EXTRACT: program_change channel=1 program=32 time=0
EXTRACT: control_change channel=1 control=7 value=100 time=0
EXTRACT: control_change channel=1 control=10 value=64 time=0
EXTRACT: program_change channel=2 program=0 time=0
EXTRACT: control_change channel=2 control=7 value=90 time=0
EXTRACT: control_change channel=2 control=10 value=64 time=0
EXTRACT: program_change channel=3 program=65 time=0
EXTRACT: control_change channel=3 control=7 value=127 time=0
EXTRACT: control_change channel=3 control=10 value=68 time=0
EXTRACT: program_change channel=4 program=52 time=0
EXTRACT: control_change channel=4 control=7 value=100 time=0
EXTRACT: control_change channel=4 control=10 value=58 time=0
EXTRACT: program_change channel=5 program=48 time=0
EXTRACT: control_change channel=5 control=7 value=100 time=0
EXTRACT: control_change channel=5 control=10 value=64 time=0
EXTRACT: program_change channel=6 program=25 time=0
EXTRACT: control_change channel=6 control=7 value=78 time=0
EXTRACT: control_change channel=6 control=10 value=21 time=0
EXTRACT: program_change channel=7 program=25 time=0
EXTRACT: control_change channel=7 control=7 value=83 time=0
EXTRACT: control_change channel=7 control=10 value=119 time=0
EXTRACT: program_change channel=8 program=26 time=0
EXTRACT: control_change channel=8 control=7 value=87 time=0
EXTRACT: control_change channel=8 control=10 value=42 time=0
EXTRACT: program_change channel=9 program=0 time=0
EXTRACT: control_change channel=9 control=7 value=100 time=0
EXTRACT: control_change channel=9 control=10 value=64 time=0
EXTRACT: program_change channel=10 program=25 time=0
EXTRACT: control_change channel=10 control=7 value=79 time=0
EXTRACT: control_change channel=10 control=10 value=67 time=0
EXTRACT: program_change channel=11 program=50 time=0
EXTRACT: control_change channel=11 control=7 value=60 time=0
EXTRACT: control_change channel=11 control=10 value=64 time=0
EXTRACT: control_change channel=1 control=11 value=127 time=0.51562445
EXTRACT: control_change channel=2 control=11 value=127 time=0.0009191166666666666
EXTRACT: control_change channel=3 control=11 value=127 time=0.0009191166666666666
EXTRACT: control_change channel=4 control=11 value=127 time=0.0009191166666666666
EXTRACT: control_change channel=5 control=11 value=127 time=0.0009191166666666666
EXTRACT: control_change channel=6 control=11 value=127 time=0.0009191166666666666
EXTRACT: control_change channel=7 control=11 value=127 time=0.0009191166666666666
EXTRACT: control_change channel=8 control=11 value=127 time=0.0009191166666666666
EXTRACT: control_change channel=9 control=11 value=127 time=0.0009191166666666666
EXTRACT: control_change channel=10 control=11 value=127 time=0.0009191166666666666
EXTRACT: control_change channel=11 control=11 value=127 time=0.0009191166666666666
EXTRACT: control_change channel=1 control=71 value=64 time=0.0055147
EXTRACT: control_change channel=2 control=71 value=64 time=0.0009191166666666666
EXTRACT: control_change channel=3 control=71 value=64 time=0.0009191166666666666
EXTRACT: control_change channel=4 control=71 value=64 time=0.0009191166666666666
EXTRACT: control_change channel=5 control=71 value=64 time=0.0009191166666666666
EXTRACT: control_change channel=6 control=71 value=64 time=0.0009191166666666666
EXTRACT: control_change channel=7 control=71 value=64 time=0.0009191166666666666
EXTRACT: control_change channel=8 control=71 value=64 time=0.0009191166666666666
EXTRACT: control_change channel=9 control=71 value=64 time=0.0009191166666666666
EXTRACT: control_change channel=10 control=71 value=64 time=0.0009191166666666666
EXTRACT: control_change channel=11 control=71 value=64 time=0.0009191166666666666
EXTRACT: control_change channel=1 control=72 value=64 time=0.0055147
EXTRACT: control_change channel=2 control=72 value=64 time=0.0009191166666666666
EXTRACT: control_change channel=3 control=72 value=64 time=0.0009191166666666666
EXTRACT: control_change channel=4 control=72 value=64 time=0.0009191166666666666
EXTRACT: control_change channel=5 control=72 value=64 time=0.0009191166666666666
EXTRACT: control_change channel=6 control=72 value=64 time=0.0009191166666666666
EXTRACT: control_change channel=7 control=72 value=64 time=0.0009191166666666666
EXTRACT: control_change channel=8 control=72 value=64 time=0.0009191166666666666
EXTRACT: control_change channel=9 control=72 value=64 time=0.0009191166666666666
EXTRACT: control_change channel=10 control=72 value=64 time=0.0009191166666666666
EXTRACT: control_change channel=11 control=72 value=64 time=0.0009191166666666666
EXTRACT: control_change channel=1 control=73 value=64 time=0.0055147
EXTRACT: control_change channel=2 control=73 value=64 time=0.0009191166666666666
EXTRACT: control_change channel=3 control=73 value=64 time=0.0009191166666666666
EXTRACT: control_change channel=4 control=73 value=64 time=0.0009191166666666666
EXTRACT: control_change channel=5 control=73 value=64 time=0.0009191166666666666
EXTRACT: control_change channel=6 control=73 value=64 time=0.0009191166666666666
EXTRACT: control_change channel=7 control=73 value=64 time=0.0009191166666666666
EXTRACT: control_change channel=8 control=73 value=64 time=0.0009191166666666666
EXTRACT: control_change channel=9 control=73 value=64 time=0.0009191166666666666
EXTRACT: control_change channel=10 control=73 value=64 time=0.0009191166666666666
EXTRACT: control_change channel=11 control=73 value=64 time=0.0009191166666666666
EXTRACT: control_change channel=1 control=74 value=64 time=0.0055147
EXTRACT: control_change channel=2 control=74 value=64 time=0.0009191166666666666
EXTRACT: control_change channel=3 control=74 value=64 time=0.0009191166666666666
EXTRACT: control_change channel=4 control=74 value=64 time=0.0009191166666666666
EXTRACT: control_change channel=5 control=74 value=64 time=0.0009191166666666666
EXTRACT: control_change channel=6 control=74 value=64 time=0.0009191166666666666
EXTRACT: control_change channel=7 control=74 value=64 time=0.0009191166666666666
EXTRACT: control_change channel=8 control=74 value=64 time=0.0009191166666666666
EXTRACT: control_change channel=9 control=74 value=64 time=0.0009191166666666666
EXTRACT: control_change channel=10 control=74 value=64 time=0.0009191166666666666
EXTRACT: control_change channel=11 control=74 value=64 time=0.0009191166666666666
EXTRACT: control_change channel=5 control=91 value=30 time=0.009191166666666667
EXTRACT: control_change channel=6 control=91 value=73 time=0.0009191166666666666
EXTRACT: control_change channel=7 control=91 value=71 time=0.0009191166666666666
EXTRACT: control_change channel=8 control=91 value=55 time=0.0009191166666666666
EXTRACT: control_change channel=9 control=91 value=55 time=0.0009191166666666666
EXTRACT: control_change channel=10 control=91 value=55 time=0.0009191166666666666
EXTRACT: control_change channel=11 control=91 value=55 time=0.0009191166666666666
EXTRACT: control_change channel=5 control=93 value=0 time=0.009191166666666667
EXTRACT: control_change channel=6 control=93 value=38 time=0.0009191166666666666
EXTRACT: control_change channel=7 control=93 value=31 time=0.0009191166666666666
EXTRACT: control_change channel=8 control=93 value=57 time=0.0009191166666666666
EXTRACT: control_change channel=9 control=93 value=20 time=0.0009191166666666666
EXTRACT: control_change channel=10 control=93 value=20 time=0.0009191166666666666
EXTRACT: control_change channel=11 control=93 value=20 time=0.0009191166666666666
EXTRACT: control_change channel=1 control=101 value=0 time=0.011948516666666666
EXTRACT: control_change channel=1 control=100 value=0 time=0.0009191166666666666
EXTRACT: control_change channel=1 control=6 value=2 time=0.0009191166666666666
EXTRACT: control_change channel=1 control=38 value=0 time=0.0009191166666666666
EXTRACT: control_change channel=2 control=101 value=0 time=0
EXTRACT: control_change channel=2 control=100 value=0 time=0.0009191166666666666
EXTRACT: control_change channel=2 control=6 value=2 time=0.0009191166666666666
EXTRACT: control_change channel=2 control=38 value=0 time=0.0009191166666666666
EXTRACT: control_change channel=3 control=101 value=0 time=0
EXTRACT: control_change channel=3 control=100 value=0 time=0.0009191166666666666
EXTRACT: control_change channel=3 control=6 value=2 time=0.0009191166666666666
EXTRACT: control_change channel=3 control=38 value=0 time=0.0009191166666666666
EXTRACT: control_change channel=4 control=101 value=0 time=0
EXTRACT: control_change channel=4 control=100 value=0 time=0.0009191166666666666
EXTRACT: control_change channel=4 control=6 value=2 time=0.0009191166666666666
EXTRACT: control_change channel=4 control=38 value=0 time=0.0009191166666666666
EXTRACT: control_change channel=9 control=1 value=0 time=0.0055147
EXTRACT: control_change channel=1 control=1 value=0 time=0.021139683333333333
EXTRACT: control_change channel=2 control=1 value=0 time=0.0009191166666666666
EXTRACT: control_change channel=3 control=1 value=0 time=0.0009191166666666666
EXTRACT: control_change channel=4 control=91 value=52 time=0.0009191166666666666
EXTRACT: control_change channel=5 control=101 value=0 time=0
EXTRACT: control_change channel=5 control=100 value=0 time=0.0009191166666666666
EXTRACT: control_change channel=5 control=6 value=2 time=0.0009191166666666666
EXTRACT: control_change channel=5 control=38 value=0 time=0.0009191166666666666
EXTRACT: control_change channel=6 control=101 value=0 time=0
EXTRACT: control_change channel=6 control=100 value=0 time=0.0009191166666666666
EXTRACT: control_change channel=6 control=6 value=2 time=0.0009191166666666666
EXTRACT: control_change channel=6 control=38 value=0 time=0.0009191166666666666
EXTRACT: control_change channel=7 control=101 value=0 time=0
EXTRACT: control_change channel=7 control=100 value=0 time=0.0009191166666666666
EXTRACT: control_change channel=7 control=6 value=2 time=0.0009191166666666666
EXTRACT: control_change channel=7 control=38 value=0 time=0.0009191166666666666
EXTRACT: control_change channel=8 control=101 value=0 time=0
EXTRACT: control_change channel=8 control=100 value=0 time=0.0009191166666666666
EXTRACT: control_change channel=8 control=6 value=2 time=0.0009191166666666666
EXTRACT: control_change channel=8 control=38 value=0 time=0.0009191166666666666
EXTRACT: control_change channel=10 control=101 value=0 time=0
EXTRACT: control_change channel=10 control=100 value=0 time=0.0009191166666666666
EXTRACT: control_change channel=10 control=6 value=2 time=0.0009191166666666666
EXTRACT: control_change channel=10 control=38 value=0 time=0.0009191166666666666
EXTRACT: control_change channel=11 control=101 value=0 time=0
EXTRACT: control_change channel=11 control=100 value=0 time=0.0009191166666666666
EXTRACT: control_change channel=11 control=6 value=2 time=0.0009191166666666666
EXTRACT: control_change channel=11 control=38 value=0 time=0.0009191166666666666
EXTRACT: control_change channel=1 control=91 value=0 time=0
EXTRACT: control_change channel=2 control=91 value=41 time=0
EXTRACT: control_change channel=3 control=91 value=56 time=0
EXTRACT: control_change channel=4 control=93 value=23 time=0
EXTRACT: control_change channel=1 control=93 value=0 time=0.010110283333333333
EXTRACT: control_change channel=2 control=93 value=22 time=0.0009191166666666666
EXTRACT: control_change channel=3 control=93 value=15 time=0.0009191166666666666
EXTRACT: control_change channel=4 control=1 value=0 time=0.0009191166666666666
EXTRACT: control_change channel=5 control=1 value=0 time=0.0009191166666666666
EXTRACT: control_change channel=6 control=1 value=0 time=0.0009191166666666666
EXTRACT: control_change channel=7 control=1 value=0 time=0.0009191166666666666
EXTRACT: control_change channel=8 control=1 value=0 time=0.0009191166666666666
EXTRACT: control_change channel=10 control=1 value=0 time=0.0018382333333333333
EXTRACT: control_change channel=11 control=1 value=0 time=0.0009191166666666666
EXTRACT: note_on channel=9 note=42 velocity=90 time=0.6222419833333334
EXTRACT: note_on channel=9 note=42 velocity=0 time=0.0009191166666666666
EXTRACT: note_on channel=9 note=42 velocity=90 time=0.4402568833333333
EXTRACT: note_on channel=9 note=42 velocity=0 time=0.0009191166666666666
EXTRACT: note_on channel=9 note=42 velocity=90 time=0.4402568833333333
EXTRACT: note_on channel=9 note=42 velocity=0 time=0.0009191166666666666
EXTRACT: note_on channel=9 note=42 velocity=100 time=0.4402568833333333
EXTRACT: note_on channel=9 note=42 velocity=0 time=0.027573499999999997
EXTRACT: note_on channel=9 note=42 velocity=100 time=0.4136025
EXTRACT: note_on channel=9 note=42 velocity=0 time=0.027573499999999997
EXTRACT: note_on channel=6 note=52 velocity=96 time=0.8547785
EXTRACT: note_on channel=7 note=52 velocity=96 time=0.013786749999999999
EXTRACT: note_on channel=6 note=54 velocity=101 time=0.42738925
EXTRACT: note_on channel=7 note=54 velocity=101 time=0.013786749999999999
EXTRACT: note_on channel=6 note=52 velocity=0 time=0.07077198333333333
EXTRACT: note_on channel=7 note=52 velocity=0 time=0.013786749999999999
EXTRACT: note_on channel=6 note=56 velocity=85 time=0.34283051666666664
EXTRACT: note_on channel=7 note=56 velocity=85 time=0.013786749999999999
EXTRACT: note_on channel=6 note=54 velocity=0 time=0.03584555
EXTRACT: note_on channel=7 note=54 velocity=0 time=0.013786749999999999
EXTRACT: note_on channel=6 note=56 velocity=0 time=0.3272055333333333
EXTRACT: note_on channel=7 note=56 velocity=0 time=0.013786749999999999
EXTRACT: control_change channel=6 control=64 value=127 time=0.028492616666666665
EXTRACT: note_on channel=1 note=28 velocity=119 time=0
EXTRACT: note_on channel=5 note=64 velocity=1 time=0
EXTRACT: note_on channel=5 note=57 velocity=1 time=0
EXTRACT: note_on channel=5 note=61 velocity=1 time=0
EXTRACT: note_on channel=6 note=40 velocity=93 time=0
EXTRACT: note_on channel=6 note=52 velocity=93 time=0
EXTRACT: note_on channel=6 note=57 velocity=96 time=0
EXTRACT: note_on channel=6 note=61 velocity=105 time=0
EXTRACT: note_on channel=3 note=57 velocity=5 time=0.0055147
EXTRACT: control_change channel=7 control=64 value=127 time=0
EXTRACT: note_on channel=7 note=40 velocity=93 time=0.00827205
EXTRACT: note_on channel=7 note=52 velocity=93 time=0
EXTRACT: note_on channel=7 note=57 velocity=96 time=0
EXTRACT: note_on channel=7 note=61 velocity=105 time=0
EXTRACT: note_on channel=3 note=57 velocity=0 time=0.11488958333333332
EXTRACT: note_on channel=3 note=57 velocity=5 time=0.33547758333333333
EXTRACT: note_on channel=6 note=61 velocity=0 time=0.05790435
EXTRACT: note_on channel=7 note=61 velocity=0 time=0.013786749999999999
EXTRACT: note_on channel=6 note=57 velocity=0 time=0.00275735
EXTRACT: note_on channel=7 note=57 velocity=0 time=0.013786749999999999
EXTRACT: note_on channel=3 note=57 velocity=0 time=0.03492643333333333
EXTRACT: note_on channel=6 note=57 velocity=82 time=0.14797778333333333
EXTRACT: note_on channel=6 note=61 velocity=96 time=0
EXTRACT: note_on channel=7 note=57 velocity=82 time=0.013786749999999999
EXTRACT: note_on channel=7 note=61 velocity=96 time=0
EXTRACT: note_on channel=3 note=57 velocity=5 time=0.15624983333333334
EXTRACT: note_on channel=6 note=57 velocity=0 time=0.11213223333333333
EXTRACT: note_on channel=6 note=61 velocity=0 time=0.0009191166666666666
EXTRACT: note_on channel=3 note=57 velocity=0 time=0.010110283333333333
EXTRACT: note_on channel=7 note=57 velocity=0 time=0.00275735
EXTRACT: note_on channel=7 note=61 velocity=0 time=0.0009191166666666666
EXTRACT: note_on channel=6 note=52 velocity=0 time=0.04779406666666666
EXTRACT: note_on channel=6 note=40 velocity=0 time=0.010110283333333333
EXTRACT: note_on channel=7 note=52 velocity=0 time=0.0036764666666666665
EXTRACT: note_on channel=7 note=40 velocity=0 time=0.010110283333333333
EXTRACT: note_on channel=5 note=64 velocity=0 time=0.21966888333333331
EXTRACT: note_on channel=5 note=57 velocity=0 time=0
EXTRACT: note_on channel=5 note=61 velocity=0 time=0
EXTRACT: note_on channel=5 note=52 velocity=1 time=0
EXTRACT: note_on channel=5 note=59 velocity=1 time=0
EXTRACT: note_on channel=5 note=56 velocity=1 time=0
EXTRACT: note_on channel=6 note=40 velocity=87 time=0
EXTRACT: note_on channel=6 note=52 velocity=91 time=0
EXTRACT: note_on channel=6 note=59 velocity=84 time=0
EXTRACT: note_on channel=6 note=56 velocity=84 time=0
EXTRACT: note_on channel=7 note=40 velocity=87 time=0.013786749999999999
EXTRACT: note_on channel=7 note=52 velocity=91 time=0
EXTRACT: note_on channel=7 note=59 velocity=84 time=0
EXTRACT: note_on channel=7 note=56 velocity=84 time=0
EXTRACT: note_on channel=3 note=57 velocity=5 time=0.009191166666666667
EXTRACT: control_change channel=6 control=64 value=0 time=0.11029399999999999
EXTRACT: note_on channel=3 note=57 velocity=0 time=0.012867633333333333
EXTRACT: control_change channel=7 control=64 value=0 time=0.0009191166666666666
EXTRACT: control_change channel=6 control=64 value=127 time=0.18014686666666666
EXTRACT: control_change channel=7 control=64 value=127 time=0.013786749999999999
EXTRACT: note_on channel=6 note=40 velocity=0 time=0.11764693333333333
EXTRACT: note_on channel=3 note=57 velocity=5 time=0.0055147
EXTRACT: note_on channel=7 note=40 velocity=0 time=0.00827205
EXTRACT: note_on channel=6 note=52 velocity=0 time=0.026654383333333333
EXTRACT: note_on channel=7 note=52 velocity=0 time=0.013786749999999999
EXTRACT: note_on channel=3 note=57 velocity=0 time=0.07444845
EXTRACT: note_on channel=6 note=40 velocity=96 time=0.14797778333333333
EXTRACT: note_on channel=7 note=40 velocity=96 time=0.013786749999999999
EXTRACT: note_on channel=1 note=28 velocity=0 time=0.12683809999999998
EXTRACT: note_on channel=1 note=28 velocity=103 time=0.0064338166666666665
EXTRACT: note_on channel=3 note=57 velocity=5 time=0.022977916666666667
EXTRACT: note_on channel=6 note=56 velocity=0 time=0.07904403333333333
EXTRACT: note_on channel=7 note=56 velocity=0 time=0.013786749999999999
EXTRACT: note_on channel=6 note=59 velocity=0 time=0.014705866666666666
EXTRACT: note_on channel=7 note=59 velocity=0 time=0.013786749999999999
EXTRACT: note_on channel=3 note=57 velocity=0 time=0.0018382333333333333
EXTRACT: note_on channel=6 note=52 velocity=94 time=0.14797778333333333
EXTRACT: note_on channel=7 note=52 velocity=94 time=0.013786749999999999
EXTRACT: note_on channel=1 note=28 velocity=0 time=0.10845576666666666
EXTRACT: note_on channel=1 note=28 velocity=91 time=0.02481615
EXTRACT: note_on channel=6 note=56 velocity=87 time=0
EXTRACT: note_on channel=6 note=59 velocity=75 time=0
EXTRACT: note_on channel=7 note=56 velocity=87 time=0.013786749999999999
EXTRACT: note_on channel=7 note=59 velocity=75 time=0
EXTRACT: note_on channel=3 note=57 velocity=5 time=0.009191166666666667
EXTRACT: note_on channel=3 note=57 velocity=0 time=0.12316163333333333
EXTRACT: note_on channel=3 note=57 velocity=5 time=0.31801436666666666
EXTRACT: note_on channel=6 note=52 velocity=0 time=0.09191166666666667
EXTRACT: note_on channel=7 note=52 velocity=0 time=0.013786749999999999
EXTRACT: note_on channel=6 note=40 velocity=0 time=0.010110283333333333
EXTRACT: note_on channel=3 note=57 velocity=0 time=0.007352933333333333
EXTRACT: note_on channel=7 note=40 velocity=0 time=0.0064338166666666665
EXTRACT: note_on channel=6 note=40 velocity=77 time=0.14154396666666666
EXTRACT: note_on channel=7 note=40 velocity=77 time=0.013786749999999999
EXTRACT: note_on channel=6 note=59 velocity=0 time=0.052389649999999996
EXTRACT: note_on channel=6 note=56 velocity=0 time=0.011948516666666666
EXTRACT: note_on channel=7 note=59 velocity=0 time=0.0018382333333333333
EXTRACT: note_on channel=7 note=56 velocity=0 time=0.011948516666666666
EXTRACT: note_on channel=3 note=57 velocity=5 time=0.07812491666666667
EXTRACT: note_on channel=3 note=57 velocity=0 time=0.12316163333333333
EXTRACT: note_on channel=6 note=59 velocity=75 time=0.29503645
EXTRACT: note_on channel=6 note=52 velocity=103 time=0
EXTRACT: note_on channel=6 note=56 velocity=84 time=0
EXTRACT: note_on channel=7 note=59 velocity=75 time=0.013786749999999999
EXTRACT: note_on channel=7 note=52 velocity=103 time=0
EXTRACT: note_on channel=7 note=56 velocity=84 time=0
EXTRACT: note_on channel=3 note=57 velocity=5 time=0.009191166666666667
EXTRACT: note_on channel=3 note=57 velocity=0 time=0.12316163333333333
EXTRACT: note_on channel=6 note=52 velocity=0 time=0.29044086666666663
EXTRACT: note_on channel=6 note=54 velocity=103 time=0.0045955833333333335
EXTRACT: note_on channel=7 note=52 velocity=0 time=0.009191166666666667
EXTRACT: note_on channel=6 note=56 velocity=0 time=0.0036764666666666665
EXTRACT: note_on channel=7 note=54 velocity=103 time=0.0009191166666666666
EXTRACT: note_on channel=3 note=57 velocity=5 time=0.009191166666666667
EXTRACT: note_on channel=7 note=56 velocity=0 time=0.0036764666666666665
EXTRACT: note_on channel=6 note=59 velocity=0 time=0.0055147
EXTRACT: note_on channel=7 note=59 velocity=0 time=0.013786749999999999
EXTRACT: note_on channel=6 note=40 velocity=0 time=0.04044113333333333
EXTRACT: note_on channel=7 note=40 velocity=0 time=0.013786749999999999
EXTRACT: note_on channel=3 note=57 velocity=0 time=0.045955833333333335
EXTRACT: note_on channel=6 note=56 velocity=109 time=0.29503645
EXTRACT: note_on channel=7 note=56 velocity=109 time=0.013786749999999999
EXTRACT: note_on channel=3 note=57 velocity=5 time=0.009191166666666667
EXTRACT: note_on channel=6 note=54 velocity=0 time=0.018382333333333334
EXTRACT: note_on channel=7 note=54 velocity=0 time=0.013786749999999999
EXTRACT: note_on channel=3 note=57 velocity=0 time=0.09099254999999999
EXTRACT: control_change channel=6 control=64 value=0 time=0.18474245
EXTRACT: control_change channel=7 control=64 value=0 time=0.013786749999999999
EXTRACT: note_on channel=6 note=56 velocity=0 time=0.07536756666666666
EXTRACT: note_on channel=1 note=28 velocity=0 time=0.0064338166666666665
EXTRACT: control_change channel=6 control=64 value=127 time=0.0036764666666666665
EXTRACT: note_on channel=7 note=56 velocity=0 time=0.0036764666666666665
EXTRACT: note_on channel=5 note=52 velocity=0 time=0.007352933333333333
EXTRACT: note_on channel=5 note=56 velocity=0 time=0
EXTRACT: note_on channel=5 note=59 velocity=0 time=0
EXTRACT: note_on channel=1 note=28 velocity=103 time=0
EXTRACT: note_on channel=5 note=61 velocity=1 time=0
EXTRACT: note_on channel=5 note=57 velocity=1 time=0
EXTRACT: note_on channel=5 note=64 velocity=1 time=0
EXTRACT: note_on channel=6 note=52 velocity=82 time=0
EXTRACT: note_on channel=6 note=61 velocity=101 time=0
EXTRACT: note_on channel=6 note=40 velocity=87 time=0
EXTRACT: note_on channel=6 note=57 velocity=79 time=0
EXTRACT: control_change channel=7 control=64 value=127 time=0.00275735
EXTRACT: note_on channel=7 note=52 velocity=82 time=0.0110294
EXTRACT: note_on channel=7 note=61 velocity=101 time=0
EXTRACT: note_on channel=7 note=40 velocity=87 time=0
EXTRACT: note_on channel=7 note=57 velocity=79 time=0
EXTRACT: note_on channel=6 note=57 velocity=0 time=0.44944805
EXTRACT: note_on channel=6 note=61 velocity=0 time=0.0045955833333333335
EXTRACT: note_on channel=7 note=57 velocity=0 time=0.009191166666666667
EXTRACT: note_on channel=7 note=61 velocity=0 time=0.0045955833333333335
EXTRACT: note_on channel=6 note=57 velocity=68 time=0.25367619999999996
EXTRACT: note_on channel=6 note=61 velocity=91 time=0
EXTRACT: note_on channel=7 note=57 velocity=68 time=0.013786749999999999
EXTRACT: note_on channel=7 note=61 velocity=91 time=0
EXTRACT: note_on channel=6 note=61 velocity=0 time=0.11397046666666666
EXTRACT: note_on channel=7 note=61 velocity=0 time=0.013786749999999999
EXTRACT: note_on channel=6 note=57 velocity=0 time=0.026654383333333333
EXTRACT: note_on channel=7 note=57 velocity=0 time=0.013786749999999999
EXTRACT: note_on channel=6 note=40 velocity=0 time=0.03676466666666667
EXTRACT: note_on channel=7 note=40 velocity=0 time=0.013786749999999999
EXTRACT: note_on channel=6 note=52 velocity=0 time=0.00275735
EXTRACT: note_on channel=7 note=52 velocity=0 time=0.013786749999999999
EXTRACT: note_on channel=1 note=28 velocity=0 time=0.2996320333333333
EXTRACT: control_change channel=6 control=64 value=0 time=0.028492616666666665
EXTRACT: note_on channel=5 note=61 velocity=0 time=0.0110294
EXTRACT: note_on channel=5 note=64 velocity=0 time=0
EXTRACT: note_on channel=5 note=57 velocity=0 time=0
EXTRACT: note_on channel=1 note=28 velocity=84 time=0
EXTRACT: note_on channel=5 note=52 velocity=1 time=0
EXTRACT: note_on channel=5 note=59 velocity=1 time=0
EXTRACT: note_on channel=5 note=56 velocity=1 time=0
EXTRACT: note_on channel=6 note=59 velocity=61 time=0
EXTRACT: note_on channel=6 note=52 velocity=82 time=0
EXTRACT: note_on channel=6 note=40 velocity=60 time=0
EXTRACT: note_on channel=6 note=56 velocity=84 time=0
EXTRACT: control_change channel=7 control=64 value=0 time=0.00275735
EXTRACT: note_on channel=7 note=59 velocity=61 time=0.0110294
EXTRACT: note_on channel=7 note=52 velocity=82 time=0
EXTRACT: note_on channel=7 note=40 velocity=60 time=0
EXTRACT: note_on channel=7 note=56 velocity=84 time=0
EXTRACT: control_change channel=6 control=64 value=127 time=0.21231595
EXTRACT: control_change channel=7 control=64 value=127 time=0.013786749999999999
EXTRACT: note_on channel=6 note=40 velocity=0 time=0.1764704
EXTRACT: note_on channel=7 note=40 velocity=0 time=0.013786749999999999
EXTRACT: note_on channel=6 note=52 velocity=0 time=0.09191166666666667
EXTRACT: note_on channel=7 note=52 velocity=0 time=0.013786749999999999
EXTRACT: note_on channel=6 note=40 velocity=87 time=0.19944831666666665
EXTRACT: note_on channel=7 note=40 velocity=87 time=0.013786749999999999
EXTRACT: note_on channel=6 note=56 velocity=0 time=0.10110283333333332
EXTRACT: note_on channel=7 note=56 velocity=0 time=0.013786749999999999
EXTRACT: note_on channel=6 note=59 velocity=0 time=0.0165441
EXTRACT: note_on channel=7 note=59 velocity=0 time=0.013786749999999999
EXTRACT: note_on channel=6 note=52 velocity=77 time=0.28216881666666666
EXTRACT: note_on channel=7 note=52 velocity=77 time=0.013786749999999999
EXTRACT: note_on channel=1 note=28 velocity=0 time=0.12591898333333332
EXTRACT: note_on channel=1 note=28 velocity=91 time=0.007352933333333333
EXTRACT: note_on channel=6 note=59 velocity=64 time=0
EXTRACT: note_on channel=6 note=56 velocity=62 time=0
EXTRACT: note_on channel=7 note=59 velocity=64 time=0.013786749999999999
EXTRACT: note_on channel=7 note=56 velocity=62 time=0
EXTRACT: note_on channel=6 note=40 velocity=0 time=0.4687495
EXTRACT: note_on channel=7 note=40 velocity=0 time=0.013786749999999999
EXTRACT: note_on channel=6 note=52 velocity=0 time=0.1213234
EXTRACT: note_on channel=7 note=52 velocity=0 time=0.013786749999999999
EXTRACT: note_on channel=6 note=40 velocity=79 time=0.10386018333333333
EXTRACT: note_on channel=7 note=40 velocity=79 time=0.013786749999999999
EXTRACT: note_on channel=6 note=56 velocity=0 time=0.04779406666666666
EXTRACT: note_on channel=7 note=56 velocity=0 time=0.013786749999999999
EXTRACT: note_on channel=6 note=59 velocity=0 time=0.03584555
EXTRACT: note_on channel=7 note=59 velocity=0 time=0.013786749999999999
EXTRACT: note_on channel=6 note=52 velocity=103 time=0.4632348
EXTRACT: note_on channel=6 note=59 velocity=58 time=0
EXTRACT: note_on channel=6 note=56 velocity=72 time=0
EXTRACT: note_on channel=7 note=52 velocity=103 time=0.013786749999999999
EXTRACT: note_on channel=7 note=59 velocity=58 time=0
EXTRACT: note_on channel=7 note=56 velocity=72 time=0
EXTRACT: note_on channel=6 note=54 velocity=112 time=0.42738925
EXTRACT: note_on channel=7 note=54 velocity=112 time=0.013786749999999999
EXTRACT: note_on channel=6 note=52 velocity=0 time=0.04319848333333333
EXTRACT: note_on channel=7 note=52 velocity=0 time=0.013786749999999999
EXTRACT: note_on channel=6 note=40 velocity=0 time=0.13419103333333332
EXTRACT: note_on channel=7 note=40 velocity=0 time=0.013786749999999999
EXTRACT: note_on channel=6 note=40 velocity=84 time=0.07536756666666666
EXTRACT: note_on channel=7 note=40 velocity=84 time=0.013786749999999999
EXTRACT: note_on channel=6 note=56 velocity=0 time=0.03033085
EXTRACT: note_on channel=7 note=56 velocity=0 time=0.013786749999999999
EXTRACT: note_on channel=6 note=56 velocity=107 time=0.08915431666666666
EXTRACT: note_on channel=7 note=56 velocity=107 time=0.013786749999999999
EXTRACT: note_on channel=6 note=54 velocity=0 time=0.007352933333333333
EXTRACT: note_on channel=7 note=54 velocity=0 time=0.013786749999999999
EXTRACT: note_on channel=6 note=40 velocity=0 time=0.27297765
EXTRACT: note_on channel=7 note=40 velocity=0 time=0.013786749999999999
EXTRACT: note_on channel=1 note=28 velocity=0 time=0.02389703333333333
EXTRACT: note_on channel=6 note=59 velocity=0 time=0.03492643333333333
EXTRACT: note_on channel=7 note=59 velocity=0 time=0.013786749999999999
EXTRACT: note_on channel=6 note=56 velocity=0 time=0.03584555
EXTRACT: control_change channel=6 control=64 value=0 time=0.0036764666666666665
EXTRACT: note_on channel=5 note=59 velocity=0 time=0.007352933333333333
EXTRACT: note_on channel=5 note=56 velocity=0 time=0
EXTRACT: note_on channel=5 note=52 velocity=0 time=0
EXTRACT: note_on channel=1 note=28 velocity=93 time=0
EXTRACT: note_on channel=5 note=64 velocity=1 time=0
EXTRACT: note_on channel=5 note=61 velocity=1 time=0
EXTRACT: note_on channel=5 note=57 velocity=1 time=0
EXTRACT: note_on channel=6 note=40 velocity=67 time=0
EXTRACT: note_on channel=6 note=61 velocity=94 time=0
EXTRACT: note_on channel=6 note=52 velocity=69 time=0
EXTRACT: note_on channel=6 note=57 velocity=68 time=0
EXTRACT: note_on channel=7 note=56 velocity=0 time=0.00275735
EXTRACT: control_change channel=7 control=64 value=0 time=0.0036764666666666665
EXTRACT: note_on channel=7 note=40 velocity=67 time=0.007352933333333333
EXTRACT: note_on channel=7 note=61 velocity=94 time=0
EXTRACT: note_on channel=7 note=52 velocity=69 time=0
EXTRACT: note_on channel=7 note=57 velocity=68 time=0
EXTRACT: control_change channel=6 control=64 value=127 time=0.028492616666666665
EXTRACT: control_change channel=7 control=64 value=127 time=0.013786749999999999
EXTRACT: note_on channel=6 note=64 velocity=79 time=0.6792272166666666
EXTRACT: note_on channel=7 note=64 velocity=79 time=0.013786749999999999
EXTRACT: note_on channel=6 note=61 velocity=0 time=0.17830863333333333
EXTRACT: note_on channel=7 note=61 velocity=0 time=0.013786749999999999
EXTRACT: note_on channel=6 note=57 velocity=0 time=0.019301449999999998
EXTRACT: note_on channel=7 note=57 velocity=0 time=0.013786749999999999
EXTRACT: note_on channel=6 note=64 velocity=0 time=0.00275735
EXTRACT: note_on channel=7 note=64 velocity=0 time=0.013786749999999999
EXTRACT: note_on channel=5 note=64 velocity=0 time=0.33272023333333334
EXTRACT: note_on channel=5 note=57 velocity=0 time=0
EXTRACT: note_on channel=5 note=61 velocity=0 time=0
EXTRACT: note_on channel=5 note=52 velocity=1 time=0
EXTRACT: note_on channel=5 note=59 velocity=1 time=0
EXTRACT: note_on channel=5 note=56 velocity=1 time=0
EXTRACT: note_on channel=6 note=59 velocity=85 time=0
EXTRACT: note_on channel=6 note=56 velocity=91 time=0
EXTRACT: control_change channel=6 control=64 value=0 time=0.0009191166666666666
EXTRACT: note_on channel=7 note=59 velocity=85 time=0.012867633333333333
EXTRACT: note_on channel=7 note=56 velocity=91 time=0
EXTRACT: control_change channel=7 control=64 value=0 time=0.0009191166666666666
EXTRACT: control_change channel=6 control=64 value=127 time=0.3051467333333333
EXTRACT: control_change channel=7 control=64 value=127 time=0.013786749999999999
EXTRACT: note_on channel=6 note=40 velocity=0 time=0.12591898333333332
EXTRACT: note_on channel=7 note=40 velocity=0 time=0.013786749999999999
EXTRACT: note_on channel=6 note=52 velocity=0 time=0.042279366666666665
EXTRACT: note_on channel=7 note=52 velocity=0 time=0.013786749999999999
EXTRACT: note_on channel=6 note=40 velocity=73 time=0.20588213333333333
EXTRACT: note_on channel=7 note=40 velocity=73 time=0.013786749999999999
EXTRACT: note_on channel=1 note=28 velocity=0 time=0.12959545
EXTRACT: note_on channel=1 note=28 velocity=94 time=0.0036764666666666665
EXTRACT: note_on channel=6 note=56 velocity=0 time=0.2261027
EXTRACT: note_on channel=7 note=56 velocity=0 time=0.013786749999999999
EXTRACT: note_on channel=6 note=52 velocity=62 time=0.05422788333333333
EXTRACT: note_on channel=7 note=52 velocity=62 time=0.013786749999999999
EXTRACT: note_on channel=6 note=59 velocity=0 time=0.014705866666666666
EXTRACT: note_on channel=7 note=59 velocity=0 time=0.013786749999999999
EXTRACT: note_on channel=1 note=28 velocity=0 time=0.00275735
EXTRACT: note_on channel=1 note=28 velocity=93 time=0.10202195
EXTRACT: note_on channel=6 note=56 velocity=87 time=0
EXTRACT: note_on channel=6 note=59 velocity=55 time=0
EXTRACT: note_on channel=7 note=56 velocity=87 time=0.013786749999999999
EXTRACT: note_on channel=7 note=59 velocity=55 time=0
EXTRACT: note_on channel=6 note=40 velocity=0 time=0.55422735
EXTRACT: note_on channel=7 note=40 velocity=0 time=0.013786749999999999
EXTRACT: note_on channel=6 note=52 velocity=0 time=0.022977916666666667
EXTRACT: note_on channel=7 note=52 velocity=0 time=0.013786749999999999
EXTRACT: note_on channel=6 note=40 velocity=76 time=0.11672781666666666
EXTRACT: note_on channel=7 note=40 velocity=76 time=0.013786749999999999
EXTRACT: note_on channel=6 note=56 velocity=0 time=0.042279366666666665
EXTRACT: note_on channel=6 note=59 velocity=0 time=0.012867633333333333
EXTRACT: note_on channel=7 note=56 velocity=0 time=0.0009191166666666666
EXTRACT: note_on channel=7 note=59 velocity=0 time=0.012867633333333333
EXTRACT: note_on channel=6 note=52 velocity=62 time=0.3584555
EXTRACT: note_on channel=7 note=52 velocity=62 time=0.013786749999999999
EXTRACT: note_on channel=6 note=56 velocity=112 time=0.13327191666666666
EXTRACT: note_on channel=7 note=56 velocity=112 time=0.013786749999999999
EXTRACT: note_on channel=6 note=56 velocity=0 time=0.42003631666666663
EXTRACT: note_on channel=6 note=54 velocity=116 time=0.007352933333333333
EXTRACT: note_on channel=6 note=59 velocity=98 time=0
EXTRACT: note_on channel=7 note=56 velocity=0 time=0.0064338166666666665
EXTRACT: note_on channel=7 note=54 velocity=116 time=0.007352933333333333
EXTRACT: note_on channel=7 note=59 velocity=98 time=0
EXTRACT: note_on channel=6 note=52 velocity=0 time=0.27757323333333334
EXTRACT: note_on channel=7 note=52 velocity=0 time=0.013786749999999999
EXTRACT: note_on channel=6 note=54 velocity=0 time=0.12775721666666667
EXTRACT: note_on channel=1 note=28 velocity=0 time=0.00827205
EXTRACT: note_on channel=1 note=40 velocity=85 time=0
EXTRACT: note_on channel=6 note=56 velocity=81 time=0
EXTRACT: note_on channel=6 note=52 velocity=112 time=0
EXTRACT: note_on channel=7 note=54 velocity=0 time=0.0055147
EXTRACT: note_on channel=7 note=56 velocity=81 time=0.00827205
EXTRACT: note_on channel=7 note=52 velocity=112 time=0
EXTRACT: note_on channel=6 note=59 velocity=0 time=0.09558813333333332
EXTRACT: note_on channel=7 note=59 velocity=0 time=0.013786749999999999
EXTRACT: control_change channel=6 control=64 value=0 time=0.25551443333333335
EXTRACT: control_change channel=7 control=64 value=0 time=0.013786749999999999
EXTRACT: note_on channel=6 note=56 velocity=0 time=0.031249966666666667
EXTRACT: note_on channel=6 note=40 velocity=0 time=0.013786749999999999
EXTRACT: note_on channel=7 note=56 velocity=0 time=0
EXTRACT: note_on channel=5 note=52 velocity=0 time=0.0036764666666666665
EXTRACT: note_on channel=5 note=59 velocity=0 time=0
EXTRACT: note_on channel=5 note=56 velocity=0 time=0
EXTRACT: note_on channel=1 note=35 velocity=94 time=0
EXTRACT: note_on channel=5 note=66 velocity=1 time=0
EXTRACT: note_on channel=5 note=63 velocity=1 time=0
EXTRACT: note_on channel=5 note=59 velocity=1 time=0
EXTRACT: note_on channel=6 note=47 velocity=51 time=0
EXTRACT: note_on channel=6 note=64 velocity=75 time=0
EXTRACT: note_on channel=6 note=54 velocity=91 time=0
EXTRACT: note_on channel=6 note=59 velocity=70 time=0
EXTRACT: note_on channel=7 note=40 velocity=0 time=0.010110283333333333
EXTRACT: note_on channel=7 note=47 velocity=51 time=0.0036764666666666665
EXTRACT: note_on channel=7 note=64 velocity=75 time=0
EXTRACT: note_on channel=7 note=54 velocity=91 time=0
EXTRACT: note_on channel=7 note=59 velocity=70 time=0
EXTRACT: note_on channel=6 note=52 velocity=0 time=0.0018382333333333333
EXTRACT: note_on channel=7 note=52 velocity=0 time=0.013786749999999999
EXTRACT: note_on channel=1 note=40 velocity=0 time=0.0055147
EXTRACT: control_change channel=6 control=64 value=127 time=0.029411733333333332
EXTRACT: control_change channel=7 control=64 value=127 time=0.013786749999999999
EXTRACT: note_on channel=6 note=47 velocity=0 time=0.3823525333333333
EXTRACT: note_on channel=7 note=47 velocity=0 time=0.013786749999999999
EXTRACT: note_on channel=6 note=54 velocity=0 time=0.04319848333333333
EXTRACT: note_on channel=7 note=54 velocity=0 time=0.013786749999999999
EXTRACT: note_on channel=6 note=47 velocity=63 time=0.2040439
EXTRACT: note_on channel=7 note=47 velocity=63 time=0.013786749999999999
EXTRACT: note_on channel=6 note=54 velocity=98 time=0.13327191666666666
EXTRACT: note_on channel=7 note=54 velocity=98 time=0.013786749999999999
EXTRACT: note_on channel=6 note=59 velocity=0 time=0.021139683333333333
EXTRACT: note_on channel=6 note=64 velocity=0 time=0.0055147
EXTRACT: note_on channel=7 note=59 velocity=0 time=0.00827205
EXTRACT: note_on channel=7 note=64 velocity=0 time=0.0055147
EXTRACT: note_on channel=1 note=35 velocity=0 time=0.27757323333333334
EXTRACT: note_on channel=1 note=30 velocity=91 time=0.10937488333333333
EXTRACT: note_on channel=6 note=64 velocity=73 time=0
EXTRACT: note_on channel=6 note=59 velocity=68 time=0
EXTRACT: note_on channel=7 note=64 velocity=73 time=0.013786749999999999
EXTRACT: note_on channel=7 note=59 velocity=68 time=0
EXTRACT: note_on channel=6 note=47 velocity=0 time=0.46415391666666667
EXTRACT: note_on channel=7 note=47 velocity=0 time=0.013786749999999999
EXTRACT: note_on channel=6 note=54 velocity=0 time=0.010110283333333333
EXTRACT: note_on channel=7 note=54 velocity=0 time=0.013786749999999999
EXTRACT: note_on channel=6 note=47 velocity=49 time=0.21966888333333331
EXTRACT: note_on channel=7 note=47 velocity=49 time=0.013786749999999999
EXTRACT: note_on channel=6 note=59 velocity=0 time=0.08180138333333332
EXTRACT: note_on channel=7 note=59 velocity=0 time=0.013786749999999999
EXTRACT: note_on channel=6 note=64 velocity=0 time=0.022977916666666667
EXTRACT: note_on channel=7 note=64 velocity=0 time=0.013786749999999999
EXTRACT: note_on channel=6 note=54 velocity=93 time=0.0009191166666666666
EXTRACT: note_on channel=7 note=54 velocity=93 time=0.013786749999999999
EXTRACT: note_on channel=1 note=30 velocity=0 time=0.4246319
EXTRACT: note_on channel=6 note=63 velocity=82 time=0.00275735
EXTRACT: note_on channel=6 note=59 velocity=82 time=0
EXTRACT: note_on channel=7 note=63 velocity=82 time=0.013786749999999999
EXTRACT: note_on channel=7 note=59 velocity=82 time=0
EXTRACT: note_on channel=3 note=47 velocity=60 time=0.7215065833333333
EXTRACT: note_on channel=3 note=47 velocity=0 time=0.13419103333333332
EXTRACT: note_on channel=3 note=52 velocity=89 time=0.012867633333333333
EXTRACT: note_on channel=3 note=52 velocity=0 time=0.3290437666666666
EXTRACT: note_on channel=3 note=52 velocity=73 time=0.11213223333333333
EXTRACT: note_on channel=3 note=52 velocity=0 time=0.14797778333333333
EXTRACT: note_on channel=3 note=54 velocity=79 time=0.14613955
EXTRACT: note_on channel=3 note=54 velocity=0 time=0.25091884999999997
EXTRACT: note_on channel=3 note=56 velocity=75 time=0.33731581666666666
EXTRACT: note_on channel=6 note=63 velocity=0 time=0.38970546666666667
EXTRACT: control_change channel=6 control=64 value=0 time=0.00827205
EXTRACT: note_on channel=7 note=63 velocity=0 time=0.0055147
EXTRACT: note_on channel=6 note=59 velocity=0 time=0.0036764666666666665
EXTRACT: control_change channel=7 control=64 value=0 time=0.0045955833333333335
EXTRACT: note_on channel=6 note=54 velocity=0 time=0.0045955833333333335
EXTRACT: note_on channel=7 note=59 velocity=0 time=0.0045955833333333335
EXTRACT: note_on channel=7 note=54 velocity=0 time=0.009191166666666667
EXTRACT: note_on channel=6 note=47 velocity=0 time=0.00827205
EXTRACT: note_on channel=3 note=57 velocity=82 time=0.0018382333333333333
EXTRACT: note_on channel=5 note=63 velocity=0 time=0
EXTRACT: note_on channel=5 note=59 velocity=0 time=0
EXTRACT: note_on channel=5 note=66 velocity=0 time=0
EXTRACT: note_on channel=1 note=28 velocity=116 time=0
EXTRACT: note_on channel=5 note=64 velocity=1 time=0
EXTRACT: note_on channel=5 note=61 velocity=1 time=0
EXTRACT: note_on channel=5 note=57 velocity=1 time=0
EXTRACT: note_on channel=6 note=57 velocity=68 time=0
EXTRACT: note_on channel=6 note=40 velocity=77 time=0
EXTRACT: note_on channel=6 note=52 velocity=69 time=0
EXTRACT: note_on channel=6 note=61 velocity=91 time=0
EXTRACT: note_on channel=3 note=56 velocity=0 time=0.00827205
EXTRACT: note_on channel=7 note=47 velocity=0 time=0.00275735
EXTRACT: note_on channel=7 note=57 velocity=68 time=0.00275735
EXTRACT: note_on channel=7 note=40 velocity=77 time=0
EXTRACT: note_on channel=7 note=52 velocity=69 time=0
EXTRACT: note_on channel=7 note=61 velocity=91 time=0
EXTRACT: control_change channel=6 control=64 value=127 time=0.12040428333333333
EXTRACT: control_change channel=7 control=64 value=127 time=0.013786749999999999
EXTRACT: note_on channel=6 note=52 velocity=0 time=0.36121285
EXTRACT: note_on channel=6 note=40 velocity=0 time=0.00827205
EXTRACT: note_on channel=7 note=52 velocity=0 time=0.0055147
EXTRACT: note_on channel=7 note=40 velocity=0 time=0.00827205
EXTRACT: note_on channel=6 note=40 velocity=67 time=0.2040439
EXTRACT: note_on channel=7 note=40 velocity=67 time=0.013786749999999999
EXTRACT: note_on channel=6 note=57 velocity=0 time=0.05698523333333333
EXTRACT: note_on channel=7 note=57 velocity=0 time=0.013786749999999999
EXTRACT: note_on channel=6 note=61 velocity=0 time=0.009191166666666667
EXTRACT: note_on channel=7 note=61 velocity=0 time=0.013786749999999999
EXTRACT: note_on channel=3 note=57 velocity=0 time=0.3694849
EXTRACT: note_on channel=1 note=28 velocity=0 time=0.07720579999999999
EXTRACT: control_change channel=6 control=64 value=0 time=0.029411733333333332
EXTRACT: note_on channel=5 note=61 velocity=0 time=0.0045955833333333335
EXTRACT: note_on channel=5 note=57 velocity=0 time=0
EXTRACT: note_on channel=5 note=64 velocity=0 time=0
EXTRACT: note_on channel=1 note=28 velocity=96 time=0
EXTRACT: note_on channel=5 note=59 velocity=1 time=0
EXTRACT: note_on channel=5 note=52 velocity=1 time=0
EXTRACT: note_on channel=5 note=56 velocity=1 time=0
EXTRACT: note_on channel=6 note=59 velocity=79 time=0
EXTRACT: note_on channel=6 note=56 velocity=84 time=0
EXTRACT: note_on channel=6 note=52 velocity=89 time=0
EXTRACT: note_on channel=3 note=56 velocity=62 time=0.0009191166666666666
EXTRACT: control_change channel=7 control=64 value=0 time=0.00827205
EXTRACT: note_on channel=7 note=59 velocity=79 time=0.0045955833333333335
EXTRACT: note_on channel=7 note=56 velocity=84 time=0
EXTRACT: note_on channel=7 note=52 velocity=89 time=0
EXTRACT: control_change channel=6 control=64 value=127 time=0.38327164999999996
EXTRACT: control_change channel=7 control=64 value=127 time=0.013786749999999999
EXTRACT: note_on channel=3 note=56 velocity=0 time=0.011948516666666666
EXTRACT: note_on channel=6 note=52 velocity=0 time=0.10753665
EXTRACT: note_on channel=7 note=52 velocity=0 time=0.013786749999999999
EXTRACT: note_on channel=6 note=40 velocity=0 time=0.0045955833333333335
EXTRACT: note_on channel=7 note=40 velocity=0 time=0.013786749999999999
EXTRACT: note_on channel=6 note=40 velocity=70 time=0.17279393333333332
EXTRACT: note_on channel=7 note=40 velocity=70 time=0.013786749999999999
EXTRACT: note_on channel=1 note=28 velocity=0 time=0.11029399999999999
EXTRACT: note_on channel=1 note=28 velocity=94 time=0.022977916666666667
EXTRACT: note_on channel=6 note=56 velocity=0 time=0.15257336666666665
EXTRACT: note_on channel=7 note=56 velocity=0 time=0.013786749999999999
EXTRACT: note_on channel=6 note=59 velocity=0 time=0.05422788333333333
EXTRACT: note_on channel=7 note=59 velocity=0 time=0.013786749999999999
EXTRACT: note_on channel=6 note=52 velocity=79 time=0.05974258333333333
EXTRACT: note_on channel=7 note=52 velocity=79 time=0.013786749999999999
EXTRACT: note_on channel=1 note=28 velocity=0 time=0.0496323
EXTRACT: note_on channel=1 note=28 velocity=93 time=0.08363961666666667
EXTRACT: note_on channel=6 note=59 velocity=57 time=0
EXTRACT: note_on channel=6 note=56 velocity=64 time=0
EXTRACT: note_on channel=7 note=59 velocity=57 time=0.013786749999999999
EXTRACT: note_on channel=7 note=56 velocity=64 time=0
EXTRACT: note_on channel=3 note=52 velocity=87 time=0.7215065833333333
EXTRACT: note_on channel=3 note=52 velocity=0 time=0.09283078333333333
EXTRACT: note_on channel=3 note=52 velocity=91 time=0.06158081666666666
EXTRACT: note_on channel=6 note=52 velocity=0 time=0.14062485
EXTRACT: note_on channel=7 note=52 velocity=0 time=0.013786749999999999
EXTRACT: note_on channel=6 note=56 velocity=0 time=0.03400731666666666
EXTRACT: note_on channel=6 note=59 velocity=0 time=0.0064338166666666665
EXTRACT: note_on channel=7 note=56 velocity=0 time=0.007352933333333333
EXTRACT: note_on channel=7 note=59 velocity=0 time=0.0064338166666666665
EXTRACT: note_on channel=3 note=52 velocity=0 time=0.10569841666666666
EXTRACT: note_on channel=3 note=52 velocity=91 time=0.11948516666666666
EXTRACT: note_on channel=6 note=52 velocity=103 time=0
EXTRACT: note_on channel=7 note=52 velocity=103 time=0.013786749999999999
EXTRACT: note_on channel=3 note=52 velocity=0 time=0.30055115
EXTRACT: note_on channel=3 note=54 velocity=89 time=0.12683809999999998
EXTRACT: note_on channel=6 note=54 velocity=105 time=0
EXTRACT: note_on channel=7 note=54 velocity=105 time=0.013786749999999999
EXTRACT: note_on channel=3 note=54 velocity=0 time=0.24632326666666665
EXTRACT: note_on channel=3 note=56 velocity=89 time=0.18106598333333332
EXTRACT: note_on channel=6 note=56 velocity=107 time=0
EXTRACT: note_on channel=6 note=54 velocity=0 time=0.0018382333333333333
EXTRACT: note_on channel=7 note=56 velocity=107 time=0.011948516666666666
EXTRACT: note_on channel=7 note=54 velocity=0 time=0.0018382333333333333
EXTRACT: note_on channel=6 note=56 velocity=0 time=0.07352933333333334
EXTRACT: note_on channel=7 note=56 velocity=0 time=0.013786749999999999
EXTRACT: note_on channel=6 note=52 velocity=0 time=0.032169083333333334
EXTRACT: note_on channel=7 note=52 velocity=0 time=0.013786749999999999
EXTRACT: note_on channel=6 note=40 velocity=0 time=0.09099254999999999
EXTRACT: note_on channel=7 note=40 velocity=0 time=0.013786749999999999
EXTRACT: note_on channel=3 note=56 velocity=0 time=0.02389703333333333
EXTRACT: note_on channel=1 note=28 velocity=0 time=0.1599263
EXTRACT: note_on channel=5 note=59 velocity=0 time=0.0036764666666666665
EXTRACT: note_on channel=5 note=52 velocity=0 time=0
EXTRACT: note_on channel=5 note=56 velocity=0 time=0
EXTRACT: note_on channel=1 note=28 velocity=112 time=0
EXTRACT: note_on channel=3 note=57 velocity=81 time=0
EXTRACT: note_on channel=5 note=64 velocity=1 time=0
EXTRACT: note_on channel=5 note=57 velocity=1 time=0
EXTRACT: note_on channel=5 note=61 velocity=1 time=0
EXTRACT: note_on channel=6 note=61 velocity=105 time=0
EXTRACT: note_on channel=6 note=40 velocity=76 time=0
EXTRACT: note_on channel=6 note=57 velocity=93 time=0
EXTRACT: note_on channel=6 note=52 velocity=85 time=0
EXTRACT: note_on channel=7 note=61 velocity=105 time=0.013786749999999999
EXTRACT: note_on channel=7 note=40 velocity=76 time=0
EXTRACT: note_on channel=7 note=57 velocity=93 time=0
EXTRACT: note_on channel=7 note=52 velocity=85 time=0
EXTRACT: control_change channel=6 control=64 value=0 time=0.00827205
EXTRACT: control_change channel=7 control=64 value=0 time=0.013786749999999999
EXTRACT: control_change channel=6 control=64 value=127 time=0.37040401666666667
EXTRACT: control_change channel=7 control=64 value=127 time=0.013786749999999999
EXTRACT: note_on channel=6 note=40 velocity=0 time=0.17463216666666667
EXTRACT: note_on channel=6 note=52 velocity=0 time=0.0009191166666666666
EXTRACT: note_on channel=7 note=40 velocity=0 time=0.012867633333333333
EXTRACT: note_on channel=7 note=52 velocity=0 time=0.0009191166666666666
EXTRACT: note_on channel=6 note=52 velocity=64 time=0.12591898333333332
EXTRACT: note_on channel=6 note=40 velocity=70 time=0
EXTRACT: note_on channel=7 note=52 velocity=64 time=0.013786749999999999
EXTRACT: note_on channel=7 note=40 velocity=70 time=0
EXTRACT: note_on channel=6 note=57 velocity=0 time=0.00275735
EXTRACT: note_on channel=7 note=57 velocity=0 time=0.013786749999999999
EXTRACT: note_on channel=6 note=61 velocity=0 time=0.009191166666666667
EXTRACT: note_on channel=7 note=61 velocity=0 time=0.013786749999999999
EXTRACT: note_on channel=6 note=61 velocity=96 time=0.0937499
EXTRACT: note_on channel=6 note=57 velocity=62 time=0
EXTRACT: note_on channel=7 note=61 velocity=96 time=0.013786749999999999
EXTRACT: note_on channel=7 note=57 velocity=62 time=0
EXTRACT: note_on channel=6 note=61 velocity=0 time=0.15257336666666665
EXTRACT: note_on channel=7 note=61 velocity=0 time=0.013786749999999999
EXTRACT: note_on channel=6 note=57 velocity=0 time=0.0036764666666666665
EXTRACT: note_on channel=7 note=57 velocity=0 time=0.013786749999999999
EXTRACT: note_on channel=3 note=57 velocity=0 time=0.045955833333333335
EXTRACT: note_on channel=6 note=40 velocity=0 time=0.06801463333333332
EXTRACT: note_on channel=6 note=52 velocity=0 time=0.0018382333333333333
EXTRACT: note_on channel=7 note=40 velocity=0 time=0.011948516666666666
EXTRACT: note_on channel=7 note=52 velocity=0 time=0.0018382333333333333
EXTRACT: note_on channel=5 note=61 velocity=0 time=0.11397046666666666
EXTRACT: note_on channel=5 note=64 velocity=0 time=0
EXTRACT: note_on channel=5 note=57 velocity=0 time=0
EXTRACT: note_on channel=3 note=56 velocity=76 time=0
EXTRACT: note_on channel=5 note=52 velocity=1 time=0
EXTRACT: note_on channel=5 note=59 velocity=1 time=0
EXTRACT: note_on channel=5 note=56 velocity=1 time=0
EXTRACT: note_on channel=6 note=40 velocity=67 time=0
EXTRACT: note_on channel=6 note=59 velocity=77 time=0
EXTRACT: note_on channel=6 note=56 velocity=61 time=0
EXTRACT: note_on channel=6 note=52 velocity=70 time=0
EXTRACT: note_on channel=7 note=40 velocity=67 time=0.013786749999999999
EXTRACT: note_on channel=7 note=59 velocity=77 time=0
EXTRACT: note_on channel=7 note=56 velocity=61 time=0
EXTRACT: note_on channel=7 note=52 velocity=70 time=0
EXTRACT: control_change channel=6 control=64 value=0 time=0.05698523333333333
EXTRACT: control_change channel=7 control=64 value=0 time=0.013786749999999999
EXTRACT: control_change channel=6 control=64 value=127 time=0.32352906666666664
EXTRACT: control_change channel=7 control=64 value=127 time=0.013786749999999999
EXTRACT: note_on channel=6 note=40 velocity=0 time=0.15349248333333332
EXTRACT: note_on channel=7 note=40 velocity=0 time=0.013786749999999999
EXTRACT: note_on channel=3 note=56 velocity=0 time=0.011948516666666666
EXTRACT: note_on channel=6 note=52 velocity=0 time=0.0045955833333333335
EXTRACT: note_on channel=7 note=52 velocity=0 time=0.013786749999999999
EXTRACT: note_on channel=6 note=40 velocity=81 time=0.1158087
EXTRACT: note_on channel=7 note=40 velocity=81 time=0.013786749999999999
EXTRACT: note_on channel=1 note=28 velocity=0 time=0.09466901666666666
EXTRACT: note_on channel=1 note=28 velocity=103 time=0.038602899999999996
EXTRACT: note_on channel=6 note=56 velocity=0 time=0.29411733333333334
EXTRACT: note_on channel=6 note=52 velocity=76 time=0
EXTRACT: note_on channel=7 note=56 velocity=0 time=0.013786749999999999
EXTRACT: note_on channel=7 note=52 velocity=76 time=0
EXTRACT: note_on channel=6 note=59 velocity=0 time=0.019301449999999998
EXTRACT: note_on channel=7 note=59 velocity=0 time=0.013786749999999999
EXTRACT: note_on channel=1 note=28 velocity=0 time=0.05147053333333333
EXTRACT: note_on channel=1 note=28 velocity=98 time=0.04871318333333333
EXTRACT: note_on channel=6 note=59 velocity=51 time=0
EXTRACT: note_on channel=6 note=56 velocity=79 time=0
EXTRACT: note_on channel=7 note=59 velocity=51 time=0.013786749999999999
EXTRACT: note_on channel=7 note=56 velocity=79 time=0
EXTRACT: note_on channel=6 note=52 velocity=0 time=0.38970546666666667
EXTRACT: note_on channel=7 note=52 velocity=0 time=0.013786749999999999
EXTRACT: note_on channel=3 note=52 velocity=87 time=0.029411733333333332
EXTRACT: note_on channel=6 note=40 velocity=0 time=0.014705866666666666
EXTRACT: note_on channel=7 note=40 velocity=0 time=0.013786749999999999
EXTRACT: note_on channel=6 note=40 velocity=76 time=0.26011001666666667
EXTRACT: note_on channel=7 note=40 velocity=76 time=0.013786749999999999
EXTRACT: note_on channel=3 note=52 velocity=0 time=0.11856604999999999
EXTRACT: note_on channel=3 note=52 velocity=87 time=0.026654383333333333
EXTRACT: note_on channel=3 note=52 velocity=0 time=0.21231595
EXTRACT: note_on channel=3 note=52 velocity=87 time=0.017463216666666666
EXTRACT: note_on channel=6 note=56 velocity=0 time=0.0064338166666666665
EXTRACT: note_on channel=7 note=56 velocity=0 time=0.013786749999999999
EXTRACT: note_on channel=6 note=59 velocity=0 time=0.0496323
EXTRACT: note_on channel=7 note=59 velocity=0 time=0.013786749999999999
EXTRACT: note_on channel=6 note=52 velocity=101 time=0.1158087
EXTRACT: note_on channel=7 note=52 velocity=101 time=0.013786749999999999
EXTRACT: note_on channel=3 note=52 velocity=0 time=0.20772036666666666
EXTRACT: note_on channel=6 note=54 velocity=107 time=0.21966888333333331
EXTRACT: note_on channel=3 note=54 velocity=87 time=0.0064338166666666665
EXTRACT: note_on channel=7 note=54 velocity=107 time=0.007352933333333333
EXTRACT: note_on channel=3 note=54 velocity=0 time=0.20496301666666666
EXTRACT: note_on channel=3 note=56 velocity=87 time=0.011948516666666666
EXTRACT: note_on channel=6 note=56 velocity=109 time=0.21047771666666665
EXTRACT: note_on channel=6 note=54 velocity=0 time=0.007352933333333333
EXTRACT: note_on channel=7 note=56 velocity=109 time=0.0064338166666666665
EXTRACT: note_on channel=7 note=54 velocity=0 time=0.007352933333333333
EXTRACT: note_on channel=6 note=56 velocity=0 time=0.07352933333333334
EXTRACT: note_on channel=7 note=56 velocity=0 time=0.013786749999999999
EXTRACT: note_on channel=3 note=56 velocity=0 time=0.10202195
EXTRACT: note_on channel=6 note=40 velocity=0 time=0.032169083333333334
EXTRACT: note_on channel=6 note=52 velocity=0 time=0.012867633333333333
EXTRACT: note_on channel=7 note=40 velocity=0 time=0.0009191166666666666
EXTRACT: note_on channel=7 note=52 velocity=0 time=0.012867633333333333
EXTRACT: control_change channel=6 control=64 value=0 time=0.10294106666666666
EXTRACT: control_change channel=7 control=64 value=0 time=0.013786749999999999
EXTRACT: note_on channel=1 note=28 velocity=0 time=0.0441176
EXTRACT: note_on channel=5 note=56 velocity=0 time=0.0110294
EXTRACT: note_on channel=5 note=52 velocity=0 time=0
EXTRACT: note_on channel=5 note=59 velocity=0 time=0
EXTRACT: note_on channel=1 note=28 velocity=116 time=0
EXTRACT: note_on channel=5 note=64 velocity=1 time=0
EXTRACT: note_on channel=5 note=61 velocity=1 time=0
EXTRACT: note_on channel=5 note=57 velocity=1 time=0
EXTRACT: note_on channel=6 note=61 velocity=98 time=0
EXTRACT: note_on channel=6 note=40 velocity=75 time=0
EXTRACT: note_on channel=6 note=52 velocity=81 time=0
EXTRACT: note_on channel=6 note=57 velocity=79 time=0
EXTRACT: note_on channel=3 note=57 velocity=82 time=0.007352933333333333
EXTRACT: note_on channel=7 note=61 velocity=98 time=0.0064338166666666665
EXTRACT: note_on channel=7 note=40 velocity=75 time=0
EXTRACT: note_on channel=7 note=52 velocity=81 time=0
EXTRACT: note_on channel=7 note=57 velocity=79 time=0
EXTRACT: control_change channel=6 control=64 value=127 time=0.09191166666666667
EXTRACT: control_change channel=7 control=64 value=127 time=0.013786749999999999
EXTRACT: note_on channel=6 note=40 velocity=0 time=0.45772009999999996
EXTRACT: note_on channel=6 note=52 velocity=0 time=0.0110294
EXTRACT: note_on channel=7 note=40 velocity=0 time=0.00275735
EXTRACT: note_on channel=7 note=52 velocity=0 time=0.0110294
EXTRACT: note_on channel=6 note=40 velocity=94 time=0.13327191666666666
EXTRACT: note_on channel=7 note=40 velocity=94 time=0.013786749999999999
EXTRACT: note_on channel=6 note=57 velocity=0 time=0.011948516666666666
EXTRACT: note_on channel=6 note=61 velocity=0 time=0.00275735
EXTRACT: note_on channel=7 note=57 velocity=0 time=0.0110294
EXTRACT: note_on channel=7 note=61 velocity=0 time=0.00275735
EXTRACT: note_on channel=6 note=57 velocity=54 time=0.10477929999999999
EXTRACT: note_on channel=6 note=61 velocity=94 time=0
EXTRACT: note_on channel=7 note=57 velocity=54 time=0.013786749999999999
EXTRACT: note_on channel=7 note=61 velocity=94 time=0
EXTRACT: note_on channel=6 note=61 velocity=0 time=0.15073513333333333
EXTRACT: note_on channel=3 note=57 velocity=0 time=0.0036764666666666665
EXTRACT: note_on channel=7 note=61 velocity=0 time=0.010110283333333333
EXTRACT: note_on channel=6 note=57 velocity=0 time=0.00827205
EXTRACT: note_on channel=7 note=57 velocity=0 time=0.013786749999999999
EXTRACT: note_on channel=5 note=61 velocity=0 time=0.24080856666666667
EXTRACT: note_on channel=5 note=57 velocity=0 time=0
EXTRACT: note_on channel=5 note=64 velocity=0 time=0
EXTRACT: note_on channel=3 note=56 velocity=79 time=0
EXTRACT: note_on channel=5 note=52 velocity=1 time=0
EXTRACT: note_on channel=5 note=56 velocity=1 time=0
EXTRACT: note_on channel=5 note=59 velocity=1 time=0
EXTRACT: note_on channel=6 note=52 velocity=89 time=0
EXTRACT: note_on channel=6 note=56 velocity=85 time=0
EXTRACT: note_on channel=6 note=59 velocity=84 time=0
EXTRACT: note_on channel=7 note=52 velocity=89 time=0.013786749999999999
EXTRACT: note_on channel=7 note=56 velocity=85 time=0
EXTRACT: note_on channel=7 note=59 velocity=84 time=0
EXTRACT: control_change channel=6 control=64 value=0 time=0.11213223333333333
EXTRACT: control_change channel=7 control=64 value=0 time=0.013786749999999999
EXTRACT: control_change channel=6 control=64 value=115 time=0.25551443333333335
EXTRACT: control_change channel=7 control=64 value=115 time=0.013786749999999999
EXTRACT: note_on channel=6 note=40 velocity=0 time=0.2113968333333333
EXTRACT: note_on channel=7 note=40 velocity=0 time=0.013786749999999999
EXTRACT: note_on channel=6 note=52 velocity=0 time=0.0055147
EXTRACT: note_on channel=7 note=52 velocity=0 time=0.013786749999999999
EXTRACT: note_on channel=6 note=40 velocity=62 time=0.08180138333333332
EXTRACT: note_on channel=7 note=40 velocity=62 time=0.013786749999999999
EXTRACT: note_on channel=3 note=56 velocity=0 time=0.0661764
EXTRACT: note_on channel=1 note=28 velocity=0 time=0.021139683333333333
EXTRACT: note_on channel=1 note=28 velocity=101 time=0.045955833333333335
EXTRACT: note_on channel=6 note=52 velocity=87 time=0
EXTRACT: note_on channel=7 note=52 velocity=87 time=0.013786749999999999
EXTRACT: note_on channel=6 note=56 velocity=0 time=0.27113941666666663
EXTRACT: note_on channel=7 note=56 velocity=0 time=0.013786749999999999
EXTRACT: note_on channel=6 note=59 velocity=0 time=0.032169083333333334
EXTRACT: note_on channel=7 note=59 velocity=0 time=0.013786749999999999
EXTRACT: note_on channel=1 note=28 velocity=0 time=0.05422788333333333
EXTRACT: note_on channel=1 note=28 velocity=105 time=0.042279366666666665
EXTRACT: note_on channel=6 note=59 velocity=65 time=0
EXTRACT: note_on channel=6 note=56 velocity=84 time=0
EXTRACT: note_on channel=7 note=59 velocity=65 time=0.013786749999999999
EXTRACT: note_on channel=7 note=56 velocity=84 time=0
EXTRACT: note_on channel=6 note=52 velocity=0 time=0.23437475
EXTRACT: note_on channel=7 note=52 velocity=0 time=0.013786749999999999
EXTRACT: note_on channel=6 note=40 velocity=0 time=0.032169083333333334
EXTRACT: note_on channel=7 note=40 velocity=0 time=0.013786749999999999
EXTRACT: note_on channel=6 note=40 velocity=77 time=0.42738925
EXTRACT: note_on channel=7 note=40 velocity=77 time=0.013786749999999999
EXTRACT: note_on channel=3 note=56 velocity=107 time=0.13327191666666666
EXTRACT: control_change channel=0 control=123 value=0 time=0.16084541666666666
EXTRACT: control_change channel=0 control=120 value=0 time=0.0045955833333333335
EXTRACT: control_change channel=0 control=121 value=0 time=0.0045955833333333335
EXTRACT: control_change channel=0 control=7 value=127 time=0.0045955833333333335
EXTRACT: control_change channel=2 control=123 value=0 time=0.022977916666666667
EXTRACT: control_change channel=2 control=120 value=0 time=0.0045955833333333335
EXTRACT: control_change channel=2 control=121 value=0 time=0.0045955833333333335
EXTRACT: control_change channel=2 control=7 value=127 time=0.0045955833333333335
EXTRACT: control_change channel=3 control=123 value=0 time=0.0045955833333333335
EXTRACT: control_change channel=3 control=120 value=0 time=0.0045955833333333335
EXTRACT: control_change channel=3 control=121 value=0 time=0.0045955833333333335
EXTRACT: control_change channel=3 control=7 value=127 time=0.0045955833333333335
EXTRACT: control_change channel=4 control=123 value=0 time=0.0045955833333333335
EXTRACT: control_change channel=4 control=120 value=0 time=0.0045955833333333335
EXTRACT: control_change channel=4 control=121 value=0 time=0.0045955833333333335
EXTRACT: control_change channel=4 control=7 value=127 time=0.0045955833333333335
EXTRACT: control_change channel=8 control=123 value=0 time=0.05974258333333333
EXTRACT: control_change channel=8 control=120 value=0 time=0.0045955833333333335
EXTRACT: control_change channel=8 control=121 value=0 time=0.0045955833333333335
EXTRACT: control_change channel=8 control=7 value=127 time=0.0045955833333333335
EXTRACT: control_change channel=10 control=123 value=0 time=0.022977916666666667
EXTRACT: control_change channel=10 control=120 value=0 time=0.0045955833333333335
EXTRACT: control_change channel=10 control=121 value=0 time=0.0045955833333333335
EXTRACT: control_change channel=10 control=7 value=127 time=0.0045955833333333335
EXTRACT: control_change channel=11 control=123 value=0 time=0.0045955833333333335
EXTRACT: control_change channel=11 control=120 value=0 time=0.0045955833333333335
EXTRACT: control_change channel=11 control=121 value=0 time=0.0045955833333333335
EXTRACT: control_change channel=11 control=7 value=127 time=0.0045955833333333335
EXTRACT: control_change channel=12 control=123 value=0 time=0.0045955833333333335
EXTRACT: control_change channel=12 control=120 value=0 time=0.0045955833333333335
EXTRACT: control_change channel=12 control=121 value=0 time=0.0045955833333333335
EXTRACT: control_change channel=12 control=7 value=127 time=0.0045955833333333335
EXTRACT: control_change channel=13 control=123 value=0 time=0.0045955833333333335
EXTRACT: control_change channel=13 control=120 value=0 time=0.0045955833333333335
EXTRACT: control_change channel=13 control=121 value=0 time=0.0045955833333333335
EXTRACT: control_change channel=13 control=7 value=127 time=0.0045955833333333335
EXTRACT: control_change channel=14 control=123 value=0 time=0.0045955833333333335
EXTRACT: control_change channel=14 control=120 value=0 time=0.0045955833333333335
EXTRACT: control_change channel=14 control=121 value=0 time=0.0045955833333333335
EXTRACT: control_change channel=14 control=7 value=127 time=0.0045955833333333335
EXTRACT: control_change channel=15 control=123 value=0 time=0.0045955833333333335
EXTRACT: note_on channel=3 note=56 velocity=0 time=0.0036764666666666665
EXTRACT: control_change channel=15 control=120 value=0 time=0.0009191166666666666
EXTRACT: control_change channel=15 control=121 value=0 time=0.0045955833333333335
EXTRACT: control_change channel=15 control=7 value=127 time=0.0045955833333333335
EXTRACT: note_on channel=3 note=56 velocity=107 time=0.0009191166666666666
EXTRACT: note_on channel=5 note=56 velocity=0 time=0.0036764666666666665
EXTRACT: note_on channel=7 note=40 velocity=0 time=0
EXTRACT: note_on channel=7 note=59 velocity=0 time=0
EXTRACT: note_on channel=5 note=52 velocity=0 time=0
EXTRACT: note_on channel=6 note=59 velocity=0 time=0
EXTRACT: note_on channel=5 note=59 velocity=0 time=0
EXTRACT: note_on channel=7 note=56 velocity=0 time=0
EXTRACT: note_on channel=6 note=40 velocity=0 time=0
EXTRACT: note_on channel=6 note=56 velocity=0 time=0
EXTRACT: note_on channel=6 note=56 velocity=112 time=0
EXTRACT: note_on channel=7 note=56 velocity=112 time=0.013786749999999999
EXTRACT: note_on channel=6 note=56 velocity=0 time=0.42003631666666663
EXTRACT: note_on channel=3 note=56 velocity=0 time=0.00275735
EXTRACT: note_on channel=3 note=54 velocity=107 time=0.0009191166666666666
EXTRACT: note_on channel=6 note=54 velocity=116 time=0.0036764666666666665
EXTRACT: note_on channel=6 note=59 velocity=98 time=0
EXTRACT: note_on channel=7 note=56 velocity=0 time=0.0064338166666666665
EXTRACT: note_on channel=7 note=54 velocity=116 time=0.007352933333333333
EXTRACT: note_on channel=7 note=59 velocity=98 time=0
EXTRACT: note_on channel=1 note=28 velocity=0 time=0.41727896666666664
EXTRACT: note_on channel=6 note=54 velocity=0 time=0.0018382333333333333
EXTRACT: note_on channel=3 note=54 velocity=0 time=0.0036764666666666665
EXTRACT: note_on channel=1 note=40 velocity=85 time=0.0045955833333333335
EXTRACT: note_on channel=6 note=56 velocity=81 time=0
EXTRACT: note_on channel=6 note=52 velocity=112 time=0
EXTRACT: note_on channel=3 note=52 velocity=107 time=0.0018382333333333333
EXTRACT: note_on channel=7 note=54 velocity=0 time=0.0036764666666666665
EXTRACT: note_on channel=7 note=56 velocity=81 time=0.00827205
EXTRACT: note_on channel=7 note=52 velocity=112 time=0
EXTRACT: note_on channel=6 note=59 velocity=0 time=0.09558813333333332
EXTRACT: note_on channel=7 note=59 velocity=0 time=0.013786749999999999
EXTRACT: control_change channel=6 control=64 value=0 time=0.25551443333333335
EXTRACT: control_change channel=7 control=64 value=0 time=0.013786749999999999
EXTRACT: note_on channel=6 note=56 velocity=0 time=0.031249966666666667
EXTRACT: note_on channel=7 note=56 velocity=0 time=0.013786749999999999
EXTRACT: note_on channel=3 note=54 velocity=107 time=0
EXTRACT: note_on channel=1 note=35 velocity=94 time=0.0036764666666666665
EXTRACT: note_on channel=5 note=66 velocity=1 time=0
EXTRACT: note_on channel=5 note=63 velocity=1 time=0
EXTRACT: note_on channel=5 note=59 velocity=1 time=0
EXTRACT: note_on channel=6 note=47 velocity=51 time=0
EXTRACT: note_on channel=6 note=64 velocity=75 time=0
EXTRACT: note_on channel=6 note=54 velocity=91 time=0
EXTRACT: note_on channel=6 note=59 velocity=70 time=0
EXTRACT: note_on channel=3 note=52 velocity=0 time=0.0009191166666666666
EXTRACT: note_on channel=7 note=47 velocity=51 time=0.012867633333333333
EXTRACT: note_on channel=7 note=64 velocity=75 time=0
EXTRACT: note_on channel=7 note=54 velocity=91 time=0
EXTRACT: note_on channel=7 note=59 velocity=70 time=0
EXTRACT: note_on channel=6 note=52 velocity=0 time=0.0018382333333333333
EXTRACT: note_on channel=7 note=52 velocity=0 time=0.013786749999999999
EXTRACT: note_on channel=1 note=40 velocity=0 time=0.0055147
EXTRACT: control_change channel=6 control=64 value=127 time=0.029411733333333332
EXTRACT: control_change channel=7 control=64 value=127 time=0.013786749999999999
EXTRACT: note_on channel=3 note=54 velocity=0 time=0.3584555
EXTRACT: note_on channel=6 note=47 velocity=0 time=0.02389703333333333
EXTRACT: note_on channel=7 note=47 velocity=0 time=0.013786749999999999
EXTRACT: note_on channel=6 note=54 velocity=0 time=0.04319848333333333
EXTRACT: note_on channel=7 note=54 velocity=0 time=0.013786749999999999
EXTRACT: note_on channel=6 note=47 velocity=63 time=0.2040439
EXTRACT: note_on channel=7 note=47 velocity=63 time=0.013786749999999999
EXTRACT: note_on channel=6 note=54 velocity=98 time=0.13327191666666666
EXTRACT: note_on channel=7 note=54 velocity=98 time=0.013786749999999999
EXTRACT: note_on channel=6 note=59 velocity=0 time=0.021139683333333333
EXTRACT: note_on channel=6 note=64 velocity=0 time=0.0055147
EXTRACT: note_on channel=7 note=59 velocity=0 time=0.00827205
EXTRACT: note_on channel=7 note=64 velocity=0 time=0.0055147
EXTRACT: note_on channel=1 note=35 velocity=0 time=0.27757323333333334
EXTRACT: note_on channel=1 note=30 velocity=91 time=0.10937488333333333
EXTRACT: note_on channel=6 note=64 velocity=73 time=0
EXTRACT: note_on channel=6 note=59 velocity=68 time=0
EXTRACT: note_on channel=7 note=64 velocity=73 time=0.013786749999999999
EXTRACT: note_on channel=7 note=59 velocity=68 time=0
EXTRACT: note_on channel=6 note=47 velocity=0 time=0.46415391666666667
EXTRACT: note_on channel=7 note=47 velocity=0 time=0.013786749999999999
EXTRACT: note_on channel=6 note=54 velocity=0 time=0.010110283333333333
EXTRACT: note_on channel=7 note=54 velocity=0 time=0.013786749999999999
EXTRACT: note_on channel=6 note=47 velocity=49 time=0.21966888333333331
EXTRACT: note_on channel=7 note=47 velocity=49 time=0.013786749999999999
EXTRACT: note_on channel=6 note=59 velocity=0 time=0.08180138333333332
EXTRACT: note_on channel=7 note=59 velocity=0 time=0.013786749999999999
EXTRACT: note_on channel=6 note=64 velocity=0 time=0.022977916666666667
EXTRACT: note_on channel=7 note=64 velocity=0 time=0.013786749999999999
EXTRACT: note_on channel=6 note=54 velocity=93 time=0.0009191166666666666
EXTRACT: note_on channel=7 note=54 velocity=93 time=0.013786749999999999
EXTRACT: note_on channel=6 note=63 velocity=82 time=0.4136025
EXTRACT: note_on channel=6 note=59 velocity=82 time=0
EXTRACT: note_on channel=1 note=30 velocity=0 time=0.0110294
EXTRACT: note_on channel=6 note=63 velocity=82 time=0.00275735
EXTRACT: note_on channel=6 note=59 velocity=82 time=0
EXTRACT: note_on channel=7 note=63 velocity=82 time=0
EXTRACT: note_on channel=7 note=59 velocity=82 time=0
EXTRACT: note_on channel=7 note=63 velocity=82 time=0.013786749999999999
EXTRACT: note_on channel=7 note=59 velocity=82 time=0
EXTRACT: note_on channel=3 note=47 velocity=75 time=0.8648887833333333
EXTRACT: note_on channel=3 note=47 velocity=0 time=0.4356613
EXTRACT: note_on channel=3 note=52 velocity=75 time=0
EXTRACT: note_on channel=3 note=54 velocity=75 time=0.44117599999999996
EXTRACT: note_on channel=3 note=52 velocity=0 time=0.00827205
EXTRACT: note_on channel=3 note=56 velocity=75 time=0.42830836666666666
EXTRACT: note_on channel=3 note=54 velocity=0 time=0.012867633333333333
EXTRACT: note_on channel=6 note=63 velocity=0 time=0.3768378333333333
EXTRACT: control_change channel=6 control=64 value=0 time=0.00827205
EXTRACT: note_on channel=6 note=63 velocity=0 time=0.0055147
EXTRACT: note_on channel=7 note=63 velocity=0 time=0
EXTRACT: note_on channel=6 note=59 velocity=0 time=0.0036764666666666665
EXTRACT: control_change channel=7 control=64 value=0 time=0.0045955833333333335
EXTRACT: note_on channel=7 note=63 velocity=0 time=0.0055147
EXTRACT: note_on channel=6 note=59 velocity=0 time=0.0036764666666666665
EXTRACT: note_on channel=7 note=59 velocity=0 time=0
EXTRACT: note_on channel=6 note=54 velocity=0 time=0.009191166666666667
EXTRACT: note_on channel=7 note=59 velocity=0 time=0.0045955833333333335
EXTRACT: note_on channel=3 note=57 velocity=82 time=0.0055147
EXTRACT: note_on channel=1 note=28 velocity=116 time=0.0009191166666666666
EXTRACT: note_on channel=5 note=64 velocity=1 time=0
EXTRACT: note_on channel=5 note=61 velocity=1 time=0
EXTRACT: note_on channel=5 note=57 velocity=1 time=0
EXTRACT: note_on channel=6 note=57 velocity=68 time=0
EXTRACT: note_on channel=6 note=40 velocity=77 time=0
EXTRACT: note_on channel=6 note=52 velocity=69 time=0
EXTRACT: note_on channel=6 note=61 velocity=91 time=0
EXTRACT: note_on channel=7 note=54 velocity=0 time=0.00275735
EXTRACT: note_on channel=3 note=56 velocity=0 time=0.0055147
EXTRACT: note_on channel=6 note=47 velocity=0 time=0.00275735
EXTRACT: note_on channel=5 note=63 velocity=0 time=0.00275735
EXTRACT: note_on channel=5 note=59 velocity=0 time=0
EXTRACT: note_on channel=5 note=66 velocity=0 time=0
EXTRACT: note_on channel=7 note=57 velocity=68 time=0
EXTRACT: note_on channel=7 note=40 velocity=77 time=0
EXTRACT: note_on channel=7 note=52 velocity=69 time=0
EXTRACT: note_on channel=7 note=61 velocity=91 time=0
EXTRACT: note_on channel=7 note=47 velocity=0 time=0.0110294
EXTRACT: control_change channel=6 control=64 value=127 time=0.10937488333333333
EXTRACT: control_change channel=7 control=64 value=127 time=0.013786749999999999
EXTRACT: note_on channel=6 note=52 velocity=0 time=0.36121285
EXTRACT: note_on channel=6 note=40 velocity=0 time=0.00827205
EXTRACT: note_on channel=7 note=52 velocity=0 time=0.0055147
EXTRACT: note_on channel=7 note=40 velocity=0 time=0.00827205
EXTRACT: note_on channel=6 note=40 velocity=67 time=0.2040439
EXTRACT: note_on channel=7 note=40 velocity=67 time=0.013786749999999999
EXTRACT: note_on channel=6 note=57 velocity=0 time=0.05698523333333333
EXTRACT: note_on channel=7 note=57 velocity=0 time=0.013786749999999999
EXTRACT: note_on channel=6 note=61 velocity=0 time=0.009191166666666667
EXTRACT: note_on channel=7 note=61 velocity=0 time=0.013786749999999999
EXTRACT: note_on channel=3 note=57 velocity=0 time=0.3694849
EXTRACT: note_on channel=1 note=28 velocity=0 time=0.07720579999999999
EXTRACT: control_change channel=6 control=64 value=0 time=0.029411733333333332
EXTRACT: note_on channel=5 note=64 velocity=0 time=0.0045955833333333335
EXTRACT: note_on channel=5 note=61 velocity=0 time=0
EXTRACT: note_on channel=5 note=57 velocity=0 time=0
EXTRACT: note_on channel=1 note=28 velocity=96 time=0
EXTRACT: note_on channel=5 note=59 velocity=1 time=0
EXTRACT: note_on channel=5 note=52 velocity=1 time=0
EXTRACT: note_on channel=5 note=56 velocity=1 time=0
EXTRACT: note_on channel=6 note=59 velocity=79 time=0
EXTRACT: note_on channel=6 note=56 velocity=84 time=0
EXTRACT: note_on channel=6 note=52 velocity=89 time=0
EXTRACT: note_on channel=3 note=56 velocity=62 time=0.0009191166666666666
EXTRACT: control_change channel=7 control=64 value=0 time=0.00827205
EXTRACT: note_on channel=7 note=59 velocity=79 time=0.0045955833333333335
EXTRACT: note_on channel=7 note=56 velocity=84 time=0
EXTRACT: note_on channel=7 note=52 velocity=89 time=0
EXTRACT: control_change channel=6 control=64 value=127 time=0.38327164999999996
EXTRACT: control_change channel=7 control=64 value=127 time=0.013786749999999999
EXTRACT: note_on channel=3 note=56 velocity=0 time=0.011948516666666666
EXTRACT: note_on channel=6 note=52 velocity=0 time=0.10753665
EXTRACT: note_on channel=7 note=52 velocity=0 time=0.013786749999999999
EXTRACT: note_on channel=6 note=40 velocity=0 time=0.0045955833333333335
EXTRACT: note_on channel=7 note=40 velocity=0 time=0.013786749999999999
EXTRACT: note_on channel=6 note=40 velocity=70 time=0.17279393333333332
EXTRACT: note_on channel=7 note=40 velocity=70 time=0.013786749999999999
EXTRACT: note_on channel=1 note=28 velocity=0 time=0.11029399999999999
EXTRACT: note_on channel=1 note=28 velocity=94 time=0.022977916666666667
EXTRACT: note_on channel=6 note=56 velocity=0 time=0.15257336666666665
EXTRACT: note_on channel=7 note=56 velocity=0 time=0.013786749999999999
EXTRACT: note_on channel=6 note=59 velocity=0 time=0.05422788333333333
EXTRACT: note_on channel=7 note=59 velocity=0 time=0.013786749999999999
EXTRACT: note_on channel=6 note=52 velocity=79 time=0.05974258333333333
EXTRACT: note_on channel=7 note=52 velocity=79 time=0.013786749999999999
EXTRACT: note_on channel=1 note=28 velocity=0 time=0.0496323
EXTRACT: note_on channel=1 note=28 velocity=93 time=0.08363961666666667
EXTRACT: note_on channel=6 note=59 velocity=57 time=0
EXTRACT: note_on channel=6 note=56 velocity=64 time=0
EXTRACT: note_on channel=7 note=59 velocity=57 time=0.013786749999999999
EXTRACT: note_on channel=7 note=56 velocity=64 time=0
EXTRACT: note_on channel=6 note=52 velocity=0 time=1.0165430333333334
EXTRACT: note_on channel=7 note=52 velocity=0 time=0.013786749999999999
EXTRACT: note_on channel=6 note=56 velocity=0 time=0.03400731666666666
EXTRACT: note_on channel=6 note=59 velocity=0 time=0.0064338166666666665
EXTRACT: note_on channel=7 note=56 velocity=0 time=0.007352933333333333
EXTRACT: note_on channel=7 note=59 velocity=0 time=0.0064338166666666665
EXTRACT: note_on channel=3 note=47 velocity=82 time=0.07996315
EXTRACT: note_on channel=6 note=52 velocity=103 time=0.14522043333333332
EXTRACT: note_on channel=3 note=52 velocity=91 time=0.0009191166666666666
EXTRACT: note_on channel=3 note=47 velocity=0 time=0.0055147
EXTRACT: note_on channel=7 note=52 velocity=103 time=0.007352933333333333
EXTRACT: note_on channel=3 note=52 velocity=0 time=0.20496301666666666
EXTRACT: note_on channel=3 note=54 velocity=91 time=0.0055147
EXTRACT: note_on channel=6 note=54 velocity=105 time=0.21691153333333332
EXTRACT: note_on channel=7 note=54 velocity=105 time=0.013786749999999999
EXTRACT: note_on channel=3 note=54 velocity=0 time=0.4227936666666666
EXTRACT: note_on channel=3 note=56 velocity=89 time=0.0045955833333333335
EXTRACT: note_on channel=6 note=56 velocity=107 time=0
EXTRACT: note_on channel=6 note=54 velocity=0 time=0.0018382333333333333
EXTRACT: note_on channel=7 note=56 velocity=107 time=0.011948516666666666
EXTRACT: note_on channel=7 note=54 velocity=0 time=0.0018382333333333333
EXTRACT: note_on channel=6 note=56 velocity=0 time=0.07352933333333334
EXTRACT: note_on channel=7 note=56 velocity=0 time=0.013786749999999999
EXTRACT: note_on channel=6 note=52 velocity=0 time=0.032169083333333334
EXTRACT: note_on channel=7 note=52 velocity=0 time=0.013786749999999999
EXTRACT: note_on channel=6 note=40 velocity=0 time=0.09099254999999999
EXTRACT: note_on channel=7 note=40 velocity=0 time=0.013786749999999999
EXTRACT: note_on channel=1 note=28 velocity=0 time=0.18382333333333334
EXTRACT: note_on channel=5 note=56 velocity=0 time=0.0036764666666666665
EXTRACT: note_on channel=5 note=59 velocity=0 time=0
EXTRACT: note_on channel=5 note=52 velocity=0 time=0
EXTRACT: note_on channel=1 note=28 velocity=112 time=0
EXTRACT: note_on channel=3 note=57 velocity=81 time=0
EXTRACT: note_on channel=5 note=64 velocity=1 time=0
EXTRACT: note_on channel=5 note=57 velocity=1 time=0
EXTRACT: note_on channel=5 note=61 velocity=1 time=0
EXTRACT: note_on channel=6 note=61 velocity=105 time=0
EXTRACT: note_on channel=6 note=40 velocity=76 time=0
EXTRACT: note_on channel=6 note=57 velocity=93 time=0
EXTRACT: note_on channel=6 note=52 velocity=85 time=0
EXTRACT: note_on channel=3 note=56 velocity=0 time=0.0045955833333333335
EXTRACT: note_on channel=7 note=61 velocity=105 time=0.009191166666666667
EXTRACT: note_on channel=7 note=40 velocity=76 time=0
EXTRACT: note_on channel=7 note=57 velocity=93 time=0
EXTRACT: note_on channel=7 note=52 velocity=85 time=0
EXTRACT: control_change channel=6 control=64 value=0 time=0.00827205
EXTRACT: control_change channel=7 control=64 value=0 time=0.013786749999999999
EXTRACT: control_change channel=6 control=64 value=127 time=0.37040401666666667
EXTRACT: control_change channel=7 control=64 value=127 time=0.013786749999999999
EXTRACT: note_on channel=6 note=40 velocity=0 time=0.17463216666666667
EXTRACT: note_on channel=6 note=52 velocity=0 time=0.0009191166666666666
EXTRACT: note_on channel=7 note=40 velocity=0 time=0.012867633333333333
EXTRACT: note_on channel=7 note=52 velocity=0 time=0.0009191166666666666
EXTRACT: note_on channel=6 note=52 velocity=64 time=0.12591898333333332
EXTRACT: note_on channel=6 note=40 velocity=70 time=0
EXTRACT: note_on channel=7 note=52 velocity=64 time=0.013786749999999999
EXTRACT: note_on channel=7 note=40 velocity=70 time=0
EXTRACT: note_on channel=6 note=57 velocity=0 time=0.00275735
EXTRACT: note_on channel=7 note=57 velocity=0 time=0.013786749999999999
EXTRACT: note_on channel=6 note=61 velocity=0 time=0.009191166666666667
EXTRACT: note_on channel=7 note=61 velocity=0 time=0.013786749999999999
EXTRACT: note_on channel=6 note=61 velocity=96 time=0.0937499
EXTRACT: note_on channel=6 note=57 velocity=62 time=0
EXTRACT: note_on channel=3 note=57 velocity=0 time=0.0036764666666666665
EXTRACT: note_on channel=3 note=59 velocity=76 time=0.0055147
EXTRACT: note_on channel=7 note=61 velocity=96 time=0.0045955833333333335
EXTRACT: note_on channel=7 note=57 velocity=62 time=0
EXTRACT: note_on channel=6 note=61 velocity=0 time=0.15257336666666665
EXTRACT: note_on channel=7 note=61 velocity=0 time=0.013786749999999999
EXTRACT: note_on channel=6 note=57 velocity=0 time=0.0036764666666666665
EXTRACT: note_on channel=7 note=57 velocity=0 time=0.013786749999999999
EXTRACT: note_on channel=6 note=40 velocity=0 time=0.11397046666666666
EXTRACT: note_on channel=6 note=52 velocity=0 time=0.0018382333333333333
EXTRACT: note_on channel=7 note=40 velocity=0 time=0.011948516666666666
EXTRACT: note_on channel=7 note=52 velocity=0 time=0.0018382333333333333
EXTRACT: note_on channel=3 note=59 velocity=0 time=0.10661753333333333
EXTRACT: note_on channel=5 note=64 velocity=0 time=0.007352933333333333
EXTRACT: note_on channel=5 note=61 velocity=0 time=0
EXTRACT: note_on channel=5 note=57 velocity=0 time=0
EXTRACT: note_on channel=3 note=59 velocity=76 time=0
EXTRACT: note_on channel=5 note=52 velocity=1 time=0
EXTRACT: note_on channel=5 note=59 velocity=1 time=0
EXTRACT: note_on channel=5 note=56 velocity=1 time=0
EXTRACT: note_on channel=6 note=40 velocity=67 time=0
EXTRACT: note_on channel=6 note=59 velocity=77 time=0
EXTRACT: note_on channel=6 note=56 velocity=61 time=0
EXTRACT: note_on channel=6 note=52 velocity=70 time=0
EXTRACT: note_on channel=7 note=40 velocity=67 time=0.013786749999999999
EXTRACT: note_on channel=7 note=59 velocity=77 time=0
EXTRACT: note_on channel=7 note=56 velocity=61 time=0
EXTRACT: note_on channel=7 note=52 velocity=70 time=0
EXTRACT: control_change channel=6 control=64 value=0 time=0.05698523333333333
EXTRACT: control_change channel=7 control=64 value=0 time=0.013786749999999999
EXTRACT: note_on channel=3 note=59 velocity=0 time=0.13143368333333333
EXTRACT: note_on channel=3 note=54 velocity=76 time=0.0055147
EXTRACT: control_change channel=6 control=64 value=127 time=0.18658068333333333
EXTRACT: control_change channel=7 control=64 value=127 time=0.013786749999999999
EXTRACT: note_on channel=3 note=54 velocity=0 time=0.015624983333333333
EXTRACT: note_on channel=3 note=56 velocity=76 time=0.012867633333333333
EXTRACT: note_on channel=6 note=40 velocity=0 time=0.12499986666666667
EXTRACT: note_on channel=7 note=40 velocity=0 time=0.013786749999999999
EXTRACT: note_on channel=6 note=52 velocity=0 time=0.0165441
EXTRACT: note_on channel=7 note=52 velocity=0 time=0.013786749999999999
EXTRACT: note_on channel=6 note=40 velocity=81 time=0.1158087
EXTRACT: note_on channel=7 note=40 velocity=81 time=0.013786749999999999
EXTRACT: note_on channel=1 note=28 velocity=0 time=0.09466901666666666
EXTRACT: note_on channel=3 note=56 velocity=0 time=0.031249966666666667
EXTRACT: note_on channel=1 note=28 velocity=103 time=0.007352933333333333
EXTRACT: note_on channel=6 note=56 velocity=0 time=0.29411733333333334
EXTRACT: note_on channel=6 note=52 velocity=76 time=0
EXTRACT: note_on channel=7 note=56 velocity=0 time=0.013786749999999999
EXTRACT: note_on channel=7 note=52 velocity=76 time=0
EXTRACT: note_on channel=6 note=59 velocity=0 time=0.019301449999999998
EXTRACT: note_on channel=7 note=59 velocity=0 time=0.013786749999999999
EXTRACT: note_on channel=1 note=28 velocity=0 time=0.05147053333333333
EXTRACT: note_on channel=1 note=28 velocity=98 time=0.04871318333333333
EXTRACT: note_on channel=6 note=59 velocity=51 time=0
EXTRACT: note_on channel=6 note=56 velocity=79 time=0
EXTRACT: note_on channel=7 note=59 velocity=51 time=0.013786749999999999
EXTRACT: note_on channel=7 note=56 velocity=79 time=0
EXTRACT: note_on channel=6 note=52 velocity=0 time=0.38970546666666667
EXTRACT: note_on channel=7 note=52 velocity=0 time=0.013786749999999999
EXTRACT: note_on channel=6 note=40 velocity=0 time=0.0441176
EXTRACT: note_on channel=7 note=40 velocity=0 time=0.013786749999999999
EXTRACT: note_on channel=6 note=40 velocity=76 time=0.26011001666666667
EXTRACT: note_on channel=7 note=40 velocity=76 time=0.013786749999999999
EXTRACT: note_on channel=6 note=56 velocity=0 time=0.38143341666666664
EXTRACT: note_on channel=7 note=56 velocity=0 time=0.013786749999999999
EXTRACT: note_on channel=6 note=59 velocity=0 time=0.0496323
EXTRACT: note_on channel=7 note=59 velocity=0 time=0.013786749999999999
EXTRACT: note_on channel=3 note=47 velocity=70 time=0.0064338166666666665
EXTRACT: note_on channel=6 note=52 velocity=101 time=0.10937488333333333
EXTRACT: note_on channel=3 note=47 velocity=0 time=0.0009191166666666666
EXTRACT: note_on channel=3 note=52 velocity=89 time=0.00827205
EXTRACT: note_on channel=7 note=52 velocity=101 time=0.0045955833333333335
EXTRACT: note_on channel=6 note=54 velocity=107 time=0.42738925
EXTRACT: note_on channel=3 note=54 velocity=89 time=0.0064338166666666665
EXTRACT: note_on channel=3 note=52 velocity=0 time=0.007352933333333333
EXTRACT: note_on channel=7 note=54 velocity=107 time=0
EXTRACT: note_on channel=6 note=56 velocity=109 time=0.42738925
EXTRACT: note_on channel=3 note=56 velocity=84 time=0.0009191166666666666
EXTRACT: note_on channel=3 note=54 velocity=0 time=0.0018382333333333333
EXTRACT: note_on channel=6 note=54 velocity=0 time=0.0045955833333333335
EXTRACT: note_on channel=7 note=56 velocity=109 time=0.0064338166666666665
EXTRACT: note_on channel=7 note=54 velocity=0 time=0.007352933333333333
EXTRACT: note_on channel=6 note=56 velocity=0 time=0.07352933333333334
EXTRACT: note_on channel=7 note=56 velocity=0 time=0.013786749999999999
EXTRACT: note_on channel=6 note=40 velocity=0 time=0.13419103333333332
EXTRACT: note_on channel=6 note=52 velocity=0 time=0.012867633333333333
EXTRACT: note_on channel=7 note=40 velocity=0 time=0.0009191166666666666
EXTRACT: note_on channel=7 note=52 velocity=0 time=0.012867633333333333
EXTRACT: control_change channel=6 control=64 value=0 time=0.10294106666666666
EXTRACT: control_change channel=7 control=64 value=0 time=0.013786749999999999
EXTRACT: note_on channel=1 note=28 velocity=0 time=0.0441176
EXTRACT: note_on channel=5 note=52 velocity=0 time=0.0110294
EXTRACT: note_on channel=5 note=59 velocity=0 time=0
EXTRACT: note_on channel=5 note=56 velocity=0 time=0
EXTRACT: note_on channel=1 note=28 velocity=116 time=0
EXTRACT: note_on channel=5 note=64 velocity=1 time=0
EXTRACT: note_on channel=5 note=61 velocity=1 time=0
EXTRACT: note_on channel=5 note=57 velocity=1 time=0
EXTRACT: note_on channel=6 note=61 velocity=98 time=0
EXTRACT: note_on channel=6 note=40 velocity=75 time=0
EXTRACT: note_on channel=6 note=52 velocity=81 time=0
EXTRACT: note_on channel=6 note=57 velocity=79 time=0
EXTRACT: note_on channel=3 note=57 velocity=82 time=0.0009191166666666666
EXTRACT: note_on channel=3 note=56 velocity=0 time=0.0018382333333333333
EXTRACT: note_on channel=7 note=61 velocity=98 time=0.0110294
EXTRACT: note_on channel=7 note=40 velocity=75 time=0
EXTRACT: note_on channel=7 note=52 velocity=81 time=0
EXTRACT: note_on channel=7 note=57 velocity=79 time=0
EXTRACT: control_change channel=6 control=64 value=127 time=0.09191166666666667
EXTRACT: control_change channel=7 control=64 value=127 time=0.013786749999999999
EXTRACT: note_on channel=6 note=40 velocity=0 time=0.45772009999999996
EXTRACT: note_on channel=6 note=52 velocity=0 time=0.0110294
EXTRACT: note_on channel=7 note=40 velocity=0 time=0.00275735
EXTRACT: note_on channel=7 note=52 velocity=0 time=0.0110294
EXTRACT: note_on channel=6 note=40 velocity=94 time=0.13327191666666666
EXTRACT: note_on channel=7 note=40 velocity=94 time=0.013786749999999999
EXTRACT: note_on channel=6 note=57 velocity=0 time=0.011948516666666666
EXTRACT: note_on channel=6 note=61 velocity=0 time=0.00275735
EXTRACT: note_on channel=7 note=57 velocity=0 time=0.0110294
EXTRACT: note_on channel=7 note=61 velocity=0 time=0.00275735
EXTRACT: note_on channel=6 note=57 velocity=54 time=0.10477929999999999
EXTRACT: note_on channel=6 note=61 velocity=94 time=0
EXTRACT: note_on channel=7 note=57 velocity=54 time=0.013786749999999999
EXTRACT: note_on channel=7 note=61 velocity=94 time=0
EXTRACT: note_on channel=3 note=57 velocity=0 time=0.14797778333333333
EXTRACT: note_on channel=6 note=61 velocity=0 time=0.00275735
EXTRACT: note_on channel=7 note=61 velocity=0 time=0.013786749999999999
EXTRACT: note_on channel=6 note=57 velocity=0 time=0.00827205
EXTRACT: note_on channel=7 note=57 velocity=0 time=0.013786749999999999
EXTRACT: note_on channel=5 note=61 velocity=0 time=0.24080856666666667
EXTRACT: note_on channel=5 note=64 velocity=0 time=0
EXTRACT: note_on channel=5 note=57 velocity=0 time=0
EXTRACT: note_on channel=3 note=56 velocity=79 time=0
EXTRACT: note_on channel=5 note=52 velocity=1 time=0
EXTRACT: note_on channel=5 note=56 velocity=1 time=0
EXTRACT: note_on channel=5 note=59 velocity=1 time=0
EXTRACT: note_on channel=6 note=52 velocity=89 time=0
EXTRACT: note_on channel=6 note=56 velocity=85 time=0
EXTRACT: note_on channel=6 note=59 velocity=84 time=0
EXTRACT: note_on channel=7 note=52 velocity=89 time=0.013786749999999999
EXTRACT: note_on channel=7 note=56 velocity=85 time=0
EXTRACT: note_on channel=7 note=59 velocity=84 time=0
EXTRACT: control_change channel=6 control=64 value=0 time=0.11213223333333333
EXTRACT: control_change channel=7 control=64 value=0 time=0.013786749999999999
EXTRACT: control_change channel=6 control=64 value=115 time=0.25551443333333335
EXTRACT: control_change channel=7 control=64 value=115 time=0.013786749999999999
EXTRACT: note_on channel=6 note=40 velocity=0 time=0.2113968333333333
EXTRACT: note_on channel=7 note=40 velocity=0 time=0.013786749999999999
EXTRACT: note_on channel=6 note=52 velocity=0 time=0.0055147
EXTRACT: note_on channel=7 note=52 velocity=0 time=0.013786749999999999
EXTRACT: note_on channel=6 note=40 velocity=62 time=0.08180138333333332
EXTRACT: note_on channel=7 note=40 velocity=62 time=0.013786749999999999
EXTRACT: note_on channel=3 note=56 velocity=0 time=0.0661764
EXTRACT: note_on channel=1 note=28 velocity=0 time=0.021139683333333333
EXTRACT: note_on channel=1 note=28 velocity=101 time=0.045955833333333335
EXTRACT: note_on channel=6 note=52 velocity=87 time=0
EXTRACT: note_on channel=7 note=52 velocity=87 time=0.013786749999999999
EXTRACT: note_on channel=6 note=56 velocity=0 time=0.27113941666666663
EXTRACT: note_on channel=7 note=56 velocity=0 time=0.013786749999999999
EXTRACT: note_on channel=6 note=59 velocity=0 time=0.032169083333333334
EXTRACT: note_on channel=7 note=59 velocity=0 time=0.013786749999999999
EXTRACT: note_on channel=1 note=28 velocity=0 time=0.05422788333333333
EXTRACT: note_on channel=1 note=28 velocity=105 time=0.042279366666666665
EXTRACT: note_on channel=6 note=59 velocity=65 time=0
EXTRACT: note_on channel=6 note=56 velocity=84 time=0
EXTRACT: note_on channel=7 note=59 velocity=65 time=0.013786749999999999
EXTRACT: note_on channel=7 note=56 velocity=84 time=0
EXTRACT: note_on channel=6 note=52 velocity=0 time=0.23437475
EXTRACT: note_on channel=7 note=52 velocity=0 time=0.013786749999999999
EXTRACT: note_on channel=6 note=40 velocity=0 time=0.032169083333333334
EXTRACT: note_on channel=7 note=40 velocity=0 time=0.013786749999999999
EXTRACT: note_on channel=6 note=40 velocity=77 time=0.42738925
EXTRACT: note_on channel=7 note=40 velocity=77 time=0.013786749999999999
EXTRACT: note_on channel=3 note=56 velocity=107 time=0.13327191666666666
EXTRACT: control_change channel=2 control=123 value=0 time=0.19761008333333333
EXTRACT: control_change channel=2 control=120 value=0 time=0.0045955833333333335
EXTRACT: control_change channel=2 control=121 value=0 time=0.0045955833333333335
EXTRACT: control_change channel=2 control=7 value=127 time=0.0045955833333333335
EXTRACT: control_change channel=3 control=123 value=0 time=0.0045955833333333335
EXTRACT: control_change channel=3 control=120 value=0 time=0.0045955833333333335
EXTRACT: control_change channel=3 control=121 value=0 time=0.0045955833333333335
EXTRACT: control_change channel=3 control=7 value=127 time=0.0045955833333333335
EXTRACT: control_change channel=4 control=123 value=0 time=0.0045955833333333335
EXTRACT: control_change channel=4 control=120 value=0 time=0.0045955833333333335
EXTRACT: control_change channel=4 control=121 value=0 time=0.0045955833333333335
EXTRACT: control_change channel=4 control=7 value=127 time=0.0045955833333333335
EXTRACT: control_change channel=8 control=123 value=0 time=0.05974258333333333
EXTRACT: control_change channel=8 control=120 value=0 time=0.0045955833333333335
EXTRACT: control_change channel=8 control=121 value=0 time=0.0045955833333333335
EXTRACT: control_change channel=8 control=7 value=127 time=0.0045955833333333335
EXTRACT: control_change channel=10 control=123 value=0 time=0.022977916666666667
EXTRACT: control_change channel=10 control=120 value=0 time=0.0045955833333333335
EXTRACT: control_change channel=10 control=121 value=0 time=0.0045955833333333335
EXTRACT: control_change channel=10 control=7 value=127 time=0.0045955833333333335
EXTRACT: control_change channel=11 control=123 value=0 time=0.0045955833333333335
EXTRACT: control_change channel=11 control=120 value=0 time=0.0045955833333333335
EXTRACT: control_change channel=11 control=121 value=0 time=0.0045955833333333335
EXTRACT: control_change channel=11 control=7 value=127 time=0.0045955833333333335
EXTRACT: note_on channel=3 note=56 velocity=0 time=0.056066116666666665
EXTRACT: note_on channel=3 note=56 velocity=107 time=0.0165441
EXTRACT: note_on channel=5 note=56 velocity=0 time=0.0055147
EXTRACT: note_on channel=7 note=40 velocity=0 time=0
EXTRACT: note_on channel=7 note=59 velocity=0 time=0
EXTRACT: note_on channel=5 note=52 velocity=0 time=0
EXTRACT: note_on channel=6 note=59 velocity=0 time=0
EXTRACT: note_on channel=5 note=59 velocity=0 time=0
EXTRACT: note_on channel=7 note=56 velocity=0 time=0
EXTRACT: note_on channel=6 note=40 velocity=0 time=0
EXTRACT: note_on channel=6 note=56 velocity=0 time=0
EXTRACT: note_on channel=6 note=56 velocity=112 time=0
EXTRACT: note_on channel=7 note=56 velocity=112 time=0.013786749999999999
EXTRACT: note_on channel=3 note=56 velocity=0 time=0.4136025
EXTRACT: note_on channel=3 note=54 velocity=107 time=0.00275735
EXTRACT: note_on channel=6 note=56 velocity=0 time=0.0036764666666666665
EXTRACT: note_on channel=6 note=54 velocity=116 time=0.007352933333333333
EXTRACT: note_on channel=6 note=59 velocity=98 time=0
EXTRACT: note_on channel=7 note=56 velocity=0 time=0.0064338166666666665
EXTRACT: note_on channel=7 note=54 velocity=116 time=0.007352933333333333
EXTRACT: note_on channel=7 note=59 velocity=98 time=0
EXTRACT: note_on channel=3 note=54 velocity=0 time=0.4080878
EXTRACT: note_on channel=3 note=52 velocity=107 time=0.00827205
EXTRACT: note_on channel=1 note=28 velocity=0 time=0.0009191166666666666
EXTRACT: note_on channel=6 note=54 velocity=0 time=0.0018382333333333333
EXTRACT: note_on channel=1 note=40 velocity=85 time=0.00827205
EXTRACT: note_on channel=6 note=56 velocity=81 time=0
EXTRACT: note_on channel=6 note=52 velocity=112 time=0
EXTRACT: note_on channel=7 note=54 velocity=0 time=0.0055147
EXTRACT: note_on channel=7 note=56 velocity=81 time=0.00827205
EXTRACT: note_on channel=7 note=52 velocity=112 time=0
EXTRACT: note_on channel=6 note=59 velocity=0 time=0.09558813333333332
EXTRACT: note_on channel=7 note=59 velocity=0 time=0.013786749999999999
EXTRACT: control_change channel=6 control=64 value=0 time=0.25551443333333335
EXTRACT: control_change channel=7 control=64 value=0 time=0.013786749999999999
EXTRACT: note_on channel=3 note=52 velocity=0 time=0.029411733333333332
EXTRACT: note_on channel=6 note=56 velocity=0 time=0.0018382333333333333
EXTRACT: note_on channel=3 note=54 velocity=107 time=0.011948516666666666
EXTRACT: note_on channel=7 note=56 velocity=0 time=0.0018382333333333333
EXTRACT: note_on channel=1 note=35 velocity=94 time=0.0036764666666666665
EXTRACT: note_on channel=5 note=66 velocity=1 time=0
EXTRACT: note_on channel=5 note=63 velocity=1 time=0
EXTRACT: note_on channel=5 note=59 velocity=1 time=0
EXTRACT: note_on channel=6 note=47 velocity=51 time=0
EXTRACT: note_on channel=6 note=64 velocity=75 time=0
EXTRACT: note_on channel=6 note=54 velocity=91 time=0
EXTRACT: note_on channel=6 note=59 velocity=70 time=0
EXTRACT: note_on channel=7 note=47 velocity=51 time=0.013786749999999999
EXTRACT: note_on channel=7 note=64 velocity=75 time=0
EXTRACT: note_on channel=7 note=54 velocity=91 time=0
EXTRACT: note_on channel=7 note=59 velocity=70 time=0
EXTRACT: note_on channel=6 note=52 velocity=0 time=0.0018382333333333333
EXTRACT: note_on channel=7 note=52 velocity=0 time=0.013786749999999999
EXTRACT: note_on channel=1 note=40 velocity=0 time=0.0055147
EXTRACT: control_change channel=6 control=64 value=127 time=0.029411733333333332
EXTRACT: control_change channel=7 control=64 value=127 time=0.013786749999999999
EXTRACT: note_on channel=3 note=54 velocity=0 time=0.34926433333333334
EXTRACT: note_on channel=6 note=47 velocity=0 time=0.0330882
EXTRACT: note_on channel=7 note=47 velocity=0 time=0.013786749999999999
EXTRACT: note_on channel=6 note=54 velocity=0 time=0.04319848333333333
EXTRACT: note_on channel=7 note=54 velocity=0 time=0.013786749999999999
EXTRACT: note_on channel=6 note=47 velocity=63 time=0.2040439
EXTRACT: note_on channel=7 note=47 velocity=63 time=0.013786749999999999
EXTRACT: note_on channel=6 note=54 velocity=98 time=0.13327191666666666
EXTRACT: note_on channel=7 note=54 velocity=98 time=0.013786749999999999
EXTRACT: note_on channel=6 note=59 velocity=0 time=0.021139683333333333
EXTRACT: note_on channel=6 note=64 velocity=0 time=0.0055147
EXTRACT: note_on channel=7 note=59 velocity=0 time=0.00827205
EXTRACT: note_on channel=7 note=64 velocity=0 time=0.0055147
EXTRACT: note_on channel=1 note=35 velocity=0 time=0.27757323333333334
EXTRACT: note_on channel=1 note=30 velocity=91 time=0.10937488333333333
EXTRACT: note_on channel=6 note=64 velocity=73 time=0
EXTRACT: note_on channel=6 note=59 velocity=68 time=0
EXTRACT: note_on channel=7 note=64 velocity=73 time=0.013786749999999999
EXTRACT: note_on channel=7 note=59 velocity=68 time=0
EXTRACT: note_on channel=6 note=47 velocity=0 time=0.46415391666666667
EXTRACT: note_on channel=7 note=47 velocity=0 time=0.013786749999999999
EXTRACT: note_on channel=6 note=54 velocity=0 time=0.010110283333333333
EXTRACT: note_on channel=7 note=54 velocity=0 time=0.013786749999999999
EXTRACT: note_on channel=6 note=47 velocity=49 time=0.21966888333333331
EXTRACT: note_on channel=7 note=47 velocity=49 time=0.013786749999999999
EXTRACT: note_on channel=6 note=59 velocity=0 time=0.08180138333333332
EXTRACT: note_on channel=7 note=59 velocity=0 time=0.013786749999999999
EXTRACT: note_on channel=6 note=64 velocity=0 time=0.022977916666666667
EXTRACT: note_on channel=7 note=64 velocity=0 time=0.013786749999999999
EXTRACT: note_on channel=6 note=54 velocity=93 time=0.0009191166666666666
EXTRACT: note_on channel=7 note=54 velocity=93 time=0.013786749999999999
EXTRACT: note_on channel=1 note=35 velocity=94 time=0.4209554333333333
EXTRACT: note_on channel=1 note=30 velocity=0 time=0.0036764666666666665
EXTRACT: note_on channel=6 note=63 velocity=82 time=0.00275735
EXTRACT: note_on channel=6 note=59 velocity=82 time=0
EXTRACT: note_on channel=7 note=63 velocity=82 time=0.013786749999999999
EXTRACT: note_on channel=7 note=59 velocity=82 time=0
EXTRACT: note_on channel=3 note=56 velocity=100 time=1.3069838999999999
EXTRACT: note_on channel=3 note=54 velocity=100 time=0.4301466
EXTRACT: note_on channel=1 note=35 velocity=0 time=0.0055147
EXTRACT: note_on channel=3 note=56 velocity=0 time=0.0055147
EXTRACT: note_on channel=3 note=54 velocity=0 time=0.4301466
EXTRACT: note_on channel=3 note=52 velocity=100 time=0.0055147
EXTRACT: note_on channel=6 note=63 velocity=0 time=0.39797751666666664
EXTRACT: note_on channel=7 note=63 velocity=0 time=0.013786749999999999
EXTRACT: note_on channel=6 note=59 velocity=0 time=0.0036764666666666665
EXTRACT: note_on channel=6 note=54 velocity=0 time=0.009191166666666667
EXTRACT: note_on channel=7 note=59 velocity=0 time=0.0045955833333333335
EXTRACT: note_on channel=3 note=52 velocity=0 time=0.0009191166666666666
EXTRACT: note_on channel=3 note=52 velocity=100 time=0.0055147
EXTRACT: note_on channel=7 note=54 velocity=0 time=0
EXTRACT: note_on channel=6 note=45 velocity=66 time=0
EXTRACT: note_on channel=6 note=52 velocity=76 time=0
EXTRACT: note_on channel=6 note=68 velocity=77 time=0
EXTRACT: note_on channel=6 note=57 velocity=68 time=0
EXTRACT: note_on channel=7 note=45 velocity=66 time=0
EXTRACT: note_on channel=7 note=52 velocity=76 time=0
EXTRACT: note_on channel=7 note=68 velocity=77 time=0
EXTRACT: note_on channel=7 note=57 velocity=68 time=0
EXTRACT: note_on channel=9 note=82 velocity=50 time=0.0018382333333333333
EXTRACT: note_on channel=1 note=33 velocity=94 time=0.00275735
EXTRACT: note_on channel=6 note=47 velocity=0 time=0.0036764666666666665
EXTRACT: note_on channel=5 note=59 velocity=0 time=0.00275735
EXTRACT: note_on channel=5 note=66 velocity=0 time=0
EXTRACT: note_on channel=5 note=63 velocity=0 time=0
EXTRACT: note_on channel=7 note=47 velocity=0 time=0.0110294
EXTRACT: note_on channel=9 note=82 velocity=0 time=0.07904403333333333
EXTRACT: note_on channel=9 note=82 velocity=50 time=0.19025714999999999
EXTRACT: note_on channel=9 note=82 velocity=0 time=0.055146999999999995
EXTRACT: note_on channel=3 note=52 velocity=0 time=0.08088226666666666
EXTRACT: note_on channel=6 note=68 velocity=0 time=0.00275735
EXTRACT: note_on channel=7 note=68 velocity=0 time=0
EXTRACT: note_on channel=6 note=68 velocity=42 time=0.0110294
EXTRACT: note_on channel=7 note=68 velocity=42 time=0
EXTRACT: note_on channel=9 note=82 velocity=50 time=0.0045955833333333335
EXTRACT: note_on channel=9 note=82 velocity=0 time=0.09558813333333332
EXTRACT: note_on channel=9 note=82 velocity=50 time=0.1920953833333333
EXTRACT: note_on channel=9 note=82 velocity=0 time=0.055146999999999995
EXTRACT: note_on channel=6 note=52 velocity=0 time=0.06433816666666667
EXTRACT: note_on channel=7 note=52 velocity=0 time=0
EXTRACT: note_on channel=7 note=68 velocity=0 time=0.029411733333333332
EXTRACT: note_on channel=6 note=68 velocity=0 time=0
EXTRACT: note_on channel=6 note=52 velocity=51 time=0
EXTRACT: note_on channel=6 note=68 velocity=51 time=0
EXTRACT: note_on channel=7 note=52 velocity=51 time=0
EXTRACT: note_on channel=7 note=68 velocity=51 time=0
EXTRACT: note_on channel=9 note=82 velocity=50 time=0.0045955833333333335
EXTRACT: note_on channel=7 note=57 velocity=0 time=0.00275735
EXTRACT: note_on channel=6 note=57 velocity=0 time=0
EXTRACT: note_on channel=6 note=57 velocity=46 time=0
EXTRACT: note_on channel=7 note=57 velocity=46 time=0
EXTRACT: note_on channel=9 note=82 velocity=0 time=0.09283078333333333
EXTRACT: note_on channel=7 note=57 velocity=0 time=0.08731608333333334
EXTRACT: note_on channel=6 note=57 velocity=0 time=0
EXTRACT: note_on channel=6 note=57 velocity=51 time=0.0330882
EXTRACT: note_on channel=7 note=57 velocity=51 time=0
EXTRACT: note_on channel=9 note=82 velocity=50 time=0.07077198333333333
EXTRACT: note_on channel=9 note=82 velocity=0 time=0.055146999999999995
EXTRACT: note_on channel=7 note=52 velocity=0 time=0.04687495
EXTRACT: note_on channel=6 note=52 velocity=0 time=0
EXTRACT: note_on channel=6 note=57 velocity=0 time=0.0036764666666666665
EXTRACT: note_on channel=7 note=57 velocity=0 time=0
EXTRACT: note_on channel=7 note=68 velocity=0 time=0.007352933333333333
EXTRACT: note_on channel=6 note=68 velocity=0 time=0
EXTRACT: note_on channel=6 note=52 velocity=61 time=0.03676466666666667
EXTRACT: note_on channel=6 note=68 velocity=76 time=0
EXTRACT: note_on channel=6 note=57 velocity=82 time=0
EXTRACT: note_on channel=7 note=52 velocity=61 time=0
EXTRACT: note_on channel=7 note=68 velocity=76 time=0
EXTRACT: note_on channel=7 note=57 velocity=82 time=0
EXTRACT: note_on channel=9 note=82 velocity=50 time=0.0036764666666666665
EXTRACT: note_on channel=3 note=52 velocity=100 time=0.0036764666666666665
EXTRACT: note_on channel=9 note=82 velocity=0 time=0.09558813333333332
EXTRACT: note_on channel=9 note=82 velocity=50 time=0.17279393333333332
EXTRACT: note_on channel=9 note=82 velocity=0 time=0.055146999999999995
EXTRACT: note_on channel=7 note=68 velocity=0 time=0.062499933333333334
EXTRACT: note_on channel=6 note=68 velocity=0 time=0
EXTRACT: note_on channel=6 note=52 velocity=0 time=0.0036764666666666665
EXTRACT: note_on channel=7 note=52 velocity=0 time=0
EXTRACT: note_on channel=3 note=52 velocity=0 time=0.04044113333333333
EXTRACT: note_on channel=6 note=52 velocity=45 time=0.0036764666666666665
EXTRACT: note_on channel=6 note=68 velocity=29 time=0
EXTRACT: note_on channel=7 note=52 velocity=45 time=0
EXTRACT: note_on channel=7 note=68 velocity=29 time=0
EXTRACT: note_on channel=9 note=82 velocity=50 time=0.0018382333333333333
EXTRACT: note_on channel=9 note=82 velocity=0 time=0.09558813333333332
EXTRACT: note_on channel=7 note=57 velocity=0 time=0.07904403333333333
EXTRACT: note_on channel=6 note=57 velocity=0 time=0
EXTRACT: note_on channel=7 note=45 velocity=0 time=0.014705866666666666
EXTRACT: note_on channel=6 note=45 velocity=0 time=0
EXTRACT: note_on channel=6 note=45 velocity=47 time=0.029411733333333332
EXTRACT: note_on channel=6 note=57 velocity=34 time=0
EXTRACT: note_on channel=7 note=45 velocity=47 time=0
EXTRACT: note_on channel=7 note=57 velocity=34 time=0
EXTRACT: note_on channel=9 note=82 velocity=50 time=0.08731608333333334
EXTRACT: note_on channel=9 note=82 velocity=0 time=0.055146999999999995
EXTRACT: note_on channel=7 note=57 velocity=0 time=0.03033085
EXTRACT: note_on channel=6 note=57 velocity=0 time=0
EXTRACT: note_on channel=7 note=52 velocity=0 time=0.007352933333333333
EXTRACT: note_on channel=6 note=52 velocity=0 time=0
EXTRACT: note_on channel=7 note=45 velocity=0 time=0.018382333333333334
EXTRACT: note_on channel=6 note=45 velocity=0 time=0
EXTRACT: note_on channel=7 note=68 velocity=0 time=0.0110294
EXTRACT: note_on channel=6 note=68 velocity=0 time=0
EXTRACT: note_on channel=6 note=45 velocity=31 time=0.0110294
EXTRACT: note_on channel=6 note=52 velocity=37 time=0
EXTRACT: note_on channel=6 note=68 velocity=41 time=0
EXTRACT: note_on channel=6 note=57 velocity=44 time=0
EXTRACT: note_on channel=7 note=45 velocity=31 time=0
EXTRACT: note_on channel=7 note=52 velocity=37 time=0
EXTRACT: note_on channel=7 note=68 velocity=41 time=0
EXTRACT: note_on channel=7 note=57 velocity=44 time=0
EXTRACT: note_on channel=9 note=82 velocity=50 time=0.0018382333333333333
EXTRACT: note_on channel=9 note=82 velocity=0 time=0.09558813333333332
EXTRACT: note_on channel=7 note=57 velocity=0 time=0.0937499
EXTRACT: note_on channel=6 note=57 velocity=0 time=0
EXTRACT: note_on channel=6 note=57 velocity=37 time=0.03676466666666667
EXTRACT: note_on channel=7 note=57 velocity=37 time=0
EXTRACT: note_on channel=9 note=82 velocity=50 time=0.07996315
EXTRACT: note_on channel=9 note=82 velocity=0 time=0.055146999999999995
EXTRACT: note_on channel=1 note=33 velocity=0 time=0.0220588
EXTRACT: note_on channel=6 note=68 velocity=0 time=0.03400731666666666
EXTRACT: note_on channel=7 note=68 velocity=0 time=0
EXTRACT: note_on channel=7 note=45 velocity=0 time=0.0036764666666666665
EXTRACT: note_on channel=6 note=52 velocity=0 time=0
EXTRACT: note_on channel=6 note=57 velocity=0 time=0
EXTRACT: note_on channel=7 note=57 velocity=0 time=0
EXTRACT: note_on channel=7 note=52 velocity=0 time=0
EXTRACT: note_on channel=6 note=45 velocity=0 time=0
EXTRACT: note_on channel=6 note=40 velocity=78 time=0.018382333333333334
EXTRACT: note_on channel=6 note=47 velocity=63 time=0
EXTRACT: note_on channel=6 note=64 velocity=75 time=0
EXTRACT: note_on channel=6 note=59 velocity=78 time=0
EXTRACT: note_on channel=7 note=40 velocity=78 time=0
EXTRACT: note_on channel=7 note=47 velocity=63 time=0
EXTRACT: note_on channel=7 note=64 velocity=75 time=0
EXTRACT: note_on channel=7 note=59 velocity=78 time=0
EXTRACT: note_on channel=9 note=82 velocity=50 time=0.0018382333333333333
EXTRACT: note_on channel=1 note=40 velocity=94 time=0.00275735
EXTRACT: note_on channel=3 note=52 velocity=100 time=0.00275735
EXTRACT: note_on channel=9 note=82 velocity=0 time=0.0937499
EXTRACT: note_on channel=9 note=82 velocity=50 time=0.20680125
EXTRACT: note_on channel=9 note=82 velocity=0 time=0.055146999999999995
EXTRACT: note_on channel=7 note=59 velocity=0 time=0.06709551666666666
EXTRACT: note_on channel=6 note=59 velocity=0 time=0
EXTRACT: note_on channel=3 note=52 velocity=0 time=0.007352933333333333
EXTRACT: note_on channel=6 note=56 velocity=41 time=0.0036764666666666665
EXTRACT: note_on channel=7 note=56 velocity=41 time=0
EXTRACT: note_on channel=9 note=82 velocity=50 time=0.0009191166666666666
EXTRACT: note_on channel=6 note=64 velocity=0 time=0.017463216666666666
EXTRACT: note_on channel=7 note=64 velocity=0 time=0
EXTRACT: note_on channel=6 note=64 velocity=41 time=0
EXTRACT: note_on channel=7 note=64 velocity=41 time=0
EXTRACT: note_on channel=9 note=82 velocity=0 time=0.08180138333333332
EXTRACT: note_on channel=7 note=64 velocity=0 time=0.09466901666666666
EXTRACT: note_on channel=6 note=64 velocity=0 time=0
EXTRACT: note_on channel=6 note=64 velocity=56 time=0.025735266666666666
EXTRACT: note_on channel=7 note=64 velocity=56 time=0
EXTRACT: note_on channel=9 note=82 velocity=50 time=0.08731608333333334
EXTRACT: note_on channel=9 note=82 velocity=0 time=0.055146999999999995
EXTRACT: note_on channel=6 note=56 velocity=0 time=0.06341904999999999
EXTRACT: note_on channel=7 note=56 velocity=0 time=0
EXTRACT: note_on channel=6 note=64 velocity=0 time=0.014705866666666666
EXTRACT: note_on channel=7 note=64 velocity=0 time=0
EXTRACT: note_on channel=6 note=56 velocity=53 time=0
EXTRACT: note_on channel=6 note=64 velocity=72 time=0
EXTRACT: note_on channel=7 note=56 velocity=53 time=0
EXTRACT: note_on channel=7 note=64 velocity=72 time=0
EXTRACT: note_on channel=9 note=82 velocity=50 time=0.0018382333333333333
EXTRACT: note_on channel=9 note=82 velocity=0 time=0.09558813333333332
EXTRACT: note_on channel=7 note=64 velocity=0 time=0.09742636666666667
EXTRACT: note_on channel=6 note=64 velocity=0 time=0
EXTRACT: note_on channel=6 note=64 velocity=50 time=0.025735266666666666
EXTRACT: note_on channel=7 note=64 velocity=50 time=0
EXTRACT: note_on channel=9 note=82 velocity=50 time=0.08731608333333334
EXTRACT: note_on channel=9 note=82 velocity=0 time=0.055146999999999995
EXTRACT: note_on channel=7 note=40 velocity=0 time=0.03033085
EXTRACT: note_on channel=6 note=40 velocity=0 time=0
EXTRACT: note_on channel=7 note=56 velocity=0 time=0.0036764666666666665
EXTRACT: note_on channel=6 note=56 velocity=0 time=0
EXTRACT: note_on channel=7 note=64 velocity=0 time=0.0036764666666666665
EXTRACT: note_on channel=6 note=64 velocity=0 time=0
EXTRACT: note_on channel=9 note=82 velocity=50 time=0.03676466666666667
EXTRACT: note_on channel=6 note=64 velocity=75 time=0.0036764666666666665
EXTRACT: note_on channel=6 note=40 velocity=50 time=0
EXTRACT: note_on channel=6 note=59 velocity=77 time=0
EXTRACT: note_on channel=7 note=64 velocity=75 time=0
EXTRACT: note_on channel=7 note=40 velocity=50 time=0
EXTRACT: note_on channel=7 note=59 velocity=77 time=0
EXTRACT: note_on channel=3 note=54 velocity=100 time=0.0064338166666666665
EXTRACT: note_on channel=9 note=82 velocity=0 time=0.08915431666666666
EXTRACT: note_on channel=3 note=54 velocity=0 time=0.12316163333333333
EXTRACT: note_on channel=3 note=56 velocity=100 time=0.0055147
EXTRACT: note_on channel=9 note=82 velocity=50 time=0.08363961666666667
EXTRACT: note_on channel=9 note=82 velocity=0 time=0.055146999999999995
EXTRACT: note_on channel=6 note=64 velocity=0 time=0.056066116666666665
EXTRACT: note_on channel=7 note=64 velocity=0 time=0
EXTRACT: note_on channel=3 note=56 velocity=0 time=0.017463216666666666
EXTRACT: note_on channel=9 note=82 velocity=50 time=0.00275735
EXTRACT: note_on channel=3 note=54 velocity=100 time=0.00827205
EXTRACT: note_on channel=6 note=64 velocity=50 time=0.0009191166666666666
EXTRACT: note_on channel=7 note=64 velocity=50 time=0
EXTRACT: note_on channel=9 note=82 velocity=0 time=0.09007343333333333
EXTRACT: note_on channel=7 note=64 velocity=0 time=0.0827205
EXTRACT: note_on channel=6 note=64 velocity=0 time=0
EXTRACT: note_on channel=3 note=54 velocity=0 time=0.038602899999999996
EXTRACT: note_on channel=6 note=64 velocity=47 time=0.0018382333333333333
EXTRACT: note_on channel=7 note=64 velocity=47 time=0
EXTRACT: note_on channel=9 note=82 velocity=50 time=0.08731608333333334
EXTRACT: note_on channel=9 note=82 velocity=0 time=0.055146999999999995
EXTRACT: note_on channel=7 note=64 velocity=0 time=0.04136025
EXTRACT: note_on channel=7 note=59 velocity=0 time=0
EXTRACT: note_on channel=6 note=64 velocity=0 time=0
EXTRACT: note_on channel=6 note=59 velocity=0 time=0
EXTRACT: note_on channel=9 note=82 velocity=50 time=0.03400731666666666
EXTRACT: note_on channel=3 note=52 velocity=100 time=0.0036764666666666665
EXTRACT: note_on channel=6 note=64 velocity=74 time=0.0064338166666666665
EXTRACT: note_on channel=7 note=64 velocity=74 time=0
EXTRACT: note_on channel=6 note=56 velocity=80 time=0.0036764666666666665
EXTRACT: note_on channel=7 note=56 velocity=80 time=0
EXTRACT: note_on channel=9 note=82 velocity=0 time=0.08547785
EXTRACT: note_on channel=7 note=64 velocity=0 time=0.08363961666666667
EXTRACT: note_on channel=6 note=64 velocity=0 time=0
EXTRACT: note_on channel=3 note=52 velocity=0 time=0.0330882
EXTRACT: note_on channel=6 note=64 velocity=68 time=0.007352933333333333
EXTRACT: note_on channel=7 note=64 velocity=68 time=0
EXTRACT: note_on channel=9 note=82 velocity=50 time=0.08731608333333334
EXTRACT: note_on channel=9 note=82 velocity=0 time=0.055146999999999995
EXTRACT: note_on channel=1 note=40 velocity=0 time=0.0220588
EXTRACT: note_on channel=7 note=40 velocity=0 time=0.0045955833333333335
EXTRACT: note_on channel=6 note=40 velocity=0 time=0
EXTRACT: note_on channel=6 note=56 velocity=0 time=0.018382333333333334
EXTRACT: note_on channel=7 note=56 velocity=0 time=0
EXTRACT: note_on channel=7 note=47 velocity=0 time=0.0036764666666666665
EXTRACT: note_on channel=6 note=47 velocity=0 time=0
EXTRACT: note_on channel=7 note=64 velocity=0 time=0.0036764666666666665
EXTRACT: note_on channel=6 note=64 velocity=0 time=0
EXTRACT: note_on channel=6 note=49 velocity=66 time=0.025735266666666666
EXTRACT: note_on channel=6 note=56 velocity=76 time=0
EXTRACT: note_on channel=6 note=71 velocity=77 time=0
EXTRACT: note_on channel=6 note=61 velocity=68 time=0
EXTRACT: note_on channel=7 note=49 velocity=66 time=0
EXTRACT: note_on channel=7 note=56 velocity=76 time=0
EXTRACT: note_on channel=7 note=71 velocity=77 time=0
EXTRACT: note_on channel=7 note=61 velocity=68 time=0
EXTRACT: note_on channel=9 note=82 velocity=50 time=0.0018382333333333333
EXTRACT: note_on channel=1 note=37 velocity=94 time=0.00275735
EXTRACT: note_on channel=3 note=52 velocity=100 time=0.0018382333333333333
EXTRACT: note_on channel=9 note=82 velocity=0 time=0.09466901666666666
EXTRACT: note_on channel=9 note=82 velocity=50 time=0.20680125
EXTRACT: note_on channel=9 note=82 velocity=0 time=0.055146999999999995
EXTRACT: note_on channel=7 note=71 velocity=0 time=0.06709551666666666
EXTRACT: note_on channel=6 note=71 velocity=0 time=0
EXTRACT: note_on channel=3 note=52 velocity=0 time=0.0064338166666666665
EXTRACT: note_on channel=6 note=71 velocity=42 time=0.0045955833333333335
EXTRACT: note_on channel=7 note=71 velocity=42 time=0
EXTRACT: note_on channel=9 note=82 velocity=50 time=0.0045955833333333335
EXTRACT: note_on channel=9 note=82 velocity=0 time=0.09558813333333332
EXTRACT: note_on channel=9 note=82 velocity=50 time=0.20772036666666666
EXTRACT: note_on channel=9 note=82 velocity=0 time=0.055146999999999995
EXTRACT: note_on channel=6 note=56 velocity=0 time=0.04871318333333333
EXTRACT: note_on channel=7 note=56 velocity=0 time=0
EXTRACT: note_on channel=7 note=71 velocity=0 time=0.029411733333333332
EXTRACT: note_on channel=6 note=71 velocity=0 time=0
EXTRACT: note_on channel=6 note=56 velocity=51 time=0
EXTRACT: note_on channel=6 note=71 velocity=51 time=0
EXTRACT: note_on channel=7 note=56 velocity=51 time=0
EXTRACT: note_on channel=7 note=71 velocity=51 time=0
EXTRACT: note_on channel=9 note=82 velocity=50 time=0.0045955833333333335
EXTRACT: note_on channel=7 note=61 velocity=0 time=0.00275735
EXTRACT: note_on channel=6 note=61 velocity=0 time=0
EXTRACT: note_on channel=6 note=61 velocity=46 time=0
EXTRACT: note_on channel=7 note=61 velocity=46 time=0
EXTRACT: note_on channel=9 note=82 velocity=0 time=0.09283078333333333
EXTRACT: note_on channel=7 note=61 velocity=0 time=0.08731608333333334
EXTRACT: note_on channel=6 note=61 velocity=0 time=0
EXTRACT: note_on channel=6 note=61 velocity=51 time=0.0330882
EXTRACT: note_on channel=7 note=61 velocity=51 time=0
EXTRACT: note_on channel=9 note=82 velocity=50 time=0.08731608333333334
EXTRACT: note_on channel=9 note=82 velocity=0 time=0.055146999999999995
EXTRACT: note_on channel=7 note=56 velocity=0 time=0.03033085
EXTRACT: note_on channel=6 note=56 velocity=0 time=0
EXTRACT: note_on channel=6 note=61 velocity=0 time=0.0036764666666666665
EXTRACT: note_on channel=7 note=61 velocity=0 time=0
EXTRACT: note_on channel=7 note=71 velocity=0 time=0.007352933333333333
EXTRACT: note_on channel=6 note=71 velocity=0 time=0
EXTRACT: note_on channel=6 note=56 velocity=61 time=0.03676466666666667
EXTRACT: note_on channel=6 note=71 velocity=76 time=0
EXTRACT: note_on channel=6 note=61 velocity=82 time=0
EXTRACT: note_on channel=7 note=56 velocity=61 time=0
EXTRACT: note_on channel=7 note=71 velocity=76 time=0
EXTRACT: note_on channel=7 note=61 velocity=82 time=0
EXTRACT: note_on channel=9 note=82 velocity=50 time=0.0036764666666666665
EXTRACT: note_on channel=3 note=52 velocity=100 time=0.00275735
EXTRACT: note_on channel=9 note=82 velocity=0 time=0.09650725
EXTRACT: note_on channel=9 note=82 velocity=50 time=0.20496301666666666
EXTRACT: note_on channel=9 note=82 velocity=0 time=0.055146999999999995
EXTRACT: note_on channel=7 note=71 velocity=0 time=0.03033085
EXTRACT: note_on channel=6 note=71 velocity=0 time=0
EXTRACT: note_on channel=6 note=56 velocity=0 time=0.0036764666666666665
EXTRACT: note_on channel=7 note=56 velocity=0 time=0
EXTRACT: note_on channel=3 note=52 velocity=0 time=0.039522016666666666
EXTRACT: note_on channel=6 note=56 velocity=45 time=0.0045955833333333335
EXTRACT: note_on channel=6 note=71 velocity=29 time=0
EXTRACT: note_on channel=7 note=56 velocity=45 time=0
EXTRACT: note_on channel=7 note=71 velocity=29 time=0
EXTRACT: note_on channel=9 note=82 velocity=50 time=0.0018382333333333333
EXTRACT: note_on channel=9 note=82 velocity=0 time=0.09558813333333332
EXTRACT: note_on channel=7 note=61 velocity=0 time=0.07904403333333333
EXTRACT: note_on channel=6 note=61 velocity=0 time=0
EXTRACT: note_on channel=6 note=49 velocity=0 time=0.014705866666666666
EXTRACT: note_on channel=7 note=49 velocity=0 time=0
EXTRACT: note_on channel=6 note=49 velocity=47 time=0.029411733333333332
EXTRACT: note_on channel=6 note=61 velocity=34 time=0
EXTRACT: note_on channel=7 note=49 velocity=47 time=0
EXTRACT: note_on channel=7 note=61 velocity=34 time=0
EXTRACT: note_on channel=9 note=82 velocity=50 time=0.08731608333333334
EXTRACT: note_on channel=9 note=82 velocity=0 time=0.055146999999999995
EXTRACT: note_on channel=7 note=61 velocity=0 time=0.03033085
EXTRACT: note_on channel=6 note=61 velocity=0 time=0
EXTRACT: note_on channel=7 note=56 velocity=0 time=0.007352933333333333
EXTRACT: note_on channel=6 note=56 velocity=0 time=0
EXTRACT: note_on channel=7 note=49 velocity=0 time=0.018382333333333334
EXTRACT: note_on channel=6 note=49 velocity=0 time=0
EXTRACT: note_on channel=7 note=71 velocity=0 time=0.0110294
EXTRACT: note_on channel=6 note=71 velocity=0 time=0
EXTRACT: note_on channel=6 note=49 velocity=31 time=0.0110294
EXTRACT: note_on channel=6 note=56 velocity=37 time=0
EXTRACT: note_on channel=6 note=71 velocity=41 time=0
EXTRACT: note_on channel=6 note=61 velocity=44 time=0
EXTRACT: note_on channel=7 note=49 velocity=31 time=0
EXTRACT: note_on channel=7 note=56 velocity=37 time=0
EXTRACT: note_on channel=7 note=71 velocity=41 time=0
EXTRACT: note_on channel=7 note=61 velocity=44 time=0
EXTRACT: note_on channel=9 note=82 velocity=50 time=0.0018382333333333333
EXTRACT: note_on channel=9 note=82 velocity=0 time=0.09558813333333332
EXTRACT: note_on channel=7 note=61 velocity=0 time=0.0937499
EXTRACT: note_on channel=6 note=61 velocity=0 time=0
EXTRACT: note_on channel=6 note=61 velocity=37 time=0.03676466666666667
EXTRACT: note_on channel=7 note=61 velocity=37 time=0
EXTRACT: note_on channel=9 note=82 velocity=50 time=0.07996315
EXTRACT: note_on channel=9 note=82 velocity=0 time=0.055146999999999995
EXTRACT: note_on channel=1 note=37 velocity=0 time=0.0220588
EXTRACT: note_on channel=6 note=71 velocity=0 time=0.03400731666666666
EXTRACT: note_on channel=7 note=71 velocity=0 time=0
EXTRACT: note_on channel=7 note=49 velocity=0 time=0.0036764666666666665
EXTRACT: note_on channel=6 note=56 velocity=0 time=0
EXTRACT: note_on channel=6 note=61 velocity=0 time=0
EXTRACT: note_on channel=7 note=61 velocity=0 time=0
EXTRACT: note_on channel=7 note=56 velocity=0 time=0
EXTRACT: note_on channel=6 note=49 velocity=0 time=0
EXTRACT: note_on channel=1 note=35 velocity=94 time=0.017463216666666666
EXTRACT: note_on channel=6 note=47 velocity=78 time=0.0009191166666666666
EXTRACT: note_on channel=6 note=42 velocity=63 time=0
EXTRACT: note_on channel=6 note=63 velocity=75 time=0
EXTRACT: note_on channel=6 note=59 velocity=78 time=0
EXTRACT: note_on channel=7 note=47 velocity=78 time=0
EXTRACT: note_on channel=7 note=42 velocity=63 time=0
EXTRACT: note_on channel=7 note=63 velocity=75 time=0
EXTRACT: note_on channel=7 note=59 velocity=78 time=0
EXTRACT: note_on channel=9 note=82 velocity=50 time=0.0018382333333333333
EXTRACT: note_on channel=3 note=54 velocity=100 time=0.0064338166666666665
EXTRACT: note_on channel=9 note=82 velocity=0 time=0.09283078333333333
EXTRACT: note_on channel=9 note=82 velocity=50 time=0.20680125
EXTRACT: note_on channel=9 note=82 velocity=0 time=0.055146999999999995
EXTRACT: note_on channel=7 note=59 velocity=0 time=0.06709551666666666
EXTRACT: note_on channel=6 note=59 velocity=0 time=0
EXTRACT: note_on channel=3 note=54 velocity=0 time=0.00827205
EXTRACT: note_on channel=6 note=54 velocity=41 time=0.00275735
EXTRACT: note_on channel=7 note=54 velocity=41 time=0
EXTRACT: note_on channel=9 note=82 velocity=50 time=0.0009191166666666666
EXTRACT: note_on channel=6 note=63 velocity=0 time=0.017463216666666666
EXTRACT: note_on channel=7 note=63 velocity=0 time=0
EXTRACT: note_on channel=6 note=63 velocity=41 time=0
EXTRACT: note_on channel=7 note=63 velocity=41 time=0
EXTRACT: note_on channel=9 note=82 velocity=0 time=0.08180138333333332
EXTRACT: note_on channel=7 note=63 velocity=0 time=0.09466901666666666
EXTRACT: note_on channel=6 note=63 velocity=0 time=0
EXTRACT: note_on channel=6 note=63 velocity=56 time=0.025735266666666666
EXTRACT: note_on channel=7 note=63 velocity=56 time=0
EXTRACT: note_on channel=9 note=82 velocity=50 time=0.08731608333333334
EXTRACT: note_on channel=9 note=82 velocity=0 time=0.055146999999999995
EXTRACT: note_on channel=7 note=54 velocity=0 time=0.06341904999999999
EXTRACT: note_on channel=6 note=54 velocity=0 time=0
EXTRACT: note_on channel=6 note=63 velocity=0 time=0.014705866666666666
EXTRACT: note_on channel=7 note=63 velocity=0 time=0
EXTRACT: note_on channel=6 note=54 velocity=53 time=0
EXTRACT: note_on channel=6 note=63 velocity=72 time=0
EXTRACT: note_on channel=7 note=54 velocity=53 time=0
EXTRACT: note_on channel=7 note=63 velocity=72 time=0
EXTRACT: note_on channel=9 note=82 velocity=50 time=0.0018382333333333333
EXTRACT: note_on channel=9 note=82 velocity=0 time=0.09558813333333332
EXTRACT: note_on channel=7 note=63 velocity=0 time=0.09742636666666667
EXTRACT: note_on channel=6 note=63 velocity=0 time=0
EXTRACT: note_on channel=6 note=63 velocity=50 time=0.025735266666666666
EXTRACT: note_on channel=7 note=63 velocity=50 time=0
EXTRACT: note_on channel=3 note=47 velocity=100 time=0.015624983333333333
EXTRACT: note_on channel=9 note=82 velocity=50 time=0.0716911
EXTRACT: note_on channel=9 note=82 velocity=0 time=0.055146999999999995
EXTRACT: note_on channel=6 note=47 velocity=0 time=0.03033085
EXTRACT: note_on channel=7 note=47 velocity=0 time=0
EXTRACT: note_on channel=7 note=54 velocity=0 time=0.0036764666666666665
EXTRACT: note_on channel=6 note=54 velocity=0 time=0
EXTRACT: note_on channel=6 note=63 velocity=0 time=0.0036764666666666665
EXTRACT: note_on channel=7 note=63 velocity=0 time=0
EXTRACT: note_on channel=9 note=82 velocity=50 time=0.03676466666666667
EXTRACT: note_on channel=6 note=63 velocity=75 time=0.0036764666666666665
EXTRACT: note_on channel=6 note=47 velocity=50 time=0
EXTRACT: note_on channel=6 note=59 velocity=77 time=0
EXTRACT: note_on channel=7 note=63 velocity=75 time=0
EXTRACT: note_on channel=7 note=47 velocity=50 time=0
EXTRACT: note_on channel=7 note=59 velocity=77 time=0
EXTRACT: note_on channel=3 note=47 velocity=0 time=0.007352933333333333
EXTRACT: note_on channel=3 note=56 velocity=100 time=0.0009191166666666666
EXTRACT: note_on channel=9 note=82 velocity=0 time=0.08731608333333334
EXTRACT: note_on channel=3 note=56 velocity=0 time=0.12499986666666667
EXTRACT: note_on channel=3 note=54 velocity=100 time=0.0110294
EXTRACT: note_on channel=9 note=82 velocity=50 time=0.07628668333333333
EXTRACT: note_on channel=9 note=82 velocity=0 time=0.055146999999999995
EXTRACT: note_on channel=7 note=63 velocity=0 time=0.056066116666666665
EXTRACT: note_on channel=6 note=63 velocity=0 time=0
EXTRACT: note_on channel=9 note=82 velocity=50 time=0.020220566666666665
EXTRACT: note_on channel=6 note=63 velocity=50 time=0.009191166666666667
EXTRACT: note_on channel=7 note=63 velocity=50 time=0
EXTRACT: note_on channel=9 note=82 velocity=0 time=0.09007343333333333
EXTRACT: note_on channel=7 note=63 velocity=0 time=0.0827205
EXTRACT: note_on channel=6 note=63 velocity=0 time=0
EXTRACT: note_on channel=3 note=54 velocity=0 time=0.04044113333333333
EXTRACT: note_on channel=6 note=63 velocity=47 time=0
EXTRACT: note_on channel=7 note=63 velocity=47 time=0
EXTRACT: note_on channel=9 note=82 velocity=50 time=0.08731608333333334
EXTRACT: note_on channel=9 note=82 velocity=0 time=0.055146999999999995
EXTRACT: note_on channel=7 note=63 velocity=0 time=0.04136025
EXTRACT: note_on channel=6 note=59 velocity=0 time=0
EXTRACT: note_on channel=6 note=63 velocity=0 time=0
EXTRACT: note_on channel=7 note=59 velocity=0 time=0
EXTRACT: note_on channel=1 note=35 velocity=0 time=0.027573499999999997
EXTRACT: note_on channel=9 note=82 velocity=50 time=0.0064338166666666665
EXTRACT: note_on channel=3 note=52 velocity=100 time=0.0055147
EXTRACT: note_on channel=6 note=63 velocity=74 time=0.0045955833333333335
EXTRACT: note_on channel=7 note=63 velocity=74 time=0
EXTRACT: note_on channel=1 note=44 velocity=94 time=0.0009191166666666666
EXTRACT: note_on channel=6 note=54 velocity=80 time=0.00275735
EXTRACT: note_on channel=7 note=54 velocity=80 time=0
EXTRACT: note_on channel=9 note=82 velocity=0 time=0.08547785
EXTRACT: note_on channel=7 note=63 velocity=0 time=0.08363961666666667
EXTRACT: note_on channel=6 note=63 velocity=0 time=0
EXTRACT: note_on channel=6 note=63 velocity=68 time=0.04044113333333333
EXTRACT: note_on channel=7 note=63 velocity=68 time=0
EXTRACT: note_on channel=9 note=82 velocity=50 time=0.08731608333333334
EXTRACT: note_on channel=9 note=82 velocity=0 time=0.055146999999999995
EXTRACT: note_on channel=7 note=47 velocity=0 time=0.026654383333333333
EXTRACT: note_on channel=6 note=47 velocity=0 time=0
EXTRACT: note_on channel=7 note=54 velocity=0 time=0.018382333333333334
EXTRACT: note_on channel=6 note=54 velocity=0 time=0
EXTRACT: note_on channel=6 note=42 velocity=0 time=0.0036764666666666665
EXTRACT: note_on channel=7 note=42 velocity=0 time=0
EXTRACT: note_on channel=6 note=63 velocity=0 time=0.0036764666666666665
EXTRACT: note_on channel=7 note=63 velocity=0 time=0
EXTRACT: note_on channel=3 note=52 velocity=0 time=0.017463216666666666
EXTRACT: note_on channel=6 note=45 velocity=67 time=0.00827205
EXTRACT: note_on channel=6 note=52 velocity=78 time=0
EXTRACT: note_on channel=6 note=64 velocity=82 time=0
EXTRACT: note_on channel=6 note=57 velocity=86 time=0
EXTRACT: note_on channel=7 note=45 velocity=67 time=0
EXTRACT: note_on channel=7 note=52 velocity=78 time=0
EXTRACT: note_on channel=7 note=64 velocity=82 time=0
EXTRACT: note_on channel=7 note=57 velocity=86 time=0
EXTRACT: note_on channel=9 note=82 velocity=50 time=0.0018382333333333333
EXTRACT: note_on channel=1 note=45 velocity=94 time=0.0064338166666666665
EXTRACT: note_on channel=3 note=52 velocity=100 time=0
EXTRACT: note_on channel=1 note=44 velocity=0 time=0.0055147
EXTRACT: note_on channel=9 note=82 velocity=0 time=0.08731608333333334
EXTRACT: note_on channel=9 note=82 velocity=50 time=0.20680125
EXTRACT: note_on channel=9 note=82 velocity=0 time=0.055146999999999995
EXTRACT: note_on channel=7 note=52 velocity=0 time=0.03033085
EXTRACT: note_on channel=6 note=52 velocity=0 time=0
EXTRACT: note_on channel=3 note=52 velocity=0 time=0.045036716666666664
EXTRACT: note_on channel=7 note=64 velocity=0 time=0.00275735
EXTRACT: note_on channel=6 note=64 velocity=0 time=0
EXTRACT: note_on channel=6 note=52 velocity=59 time=0
EXTRACT: note_on channel=6 note=64 velocity=52 time=0
EXTRACT: note_on channel=7 note=52 velocity=59 time=0
EXTRACT: note_on channel=7 note=64 velocity=52 time=0
EXTRACT: note_on channel=9 note=82 velocity=50 time=0.0045955833333333335
EXTRACT: note_on channel=9 note=82 velocity=0 time=0.09558813333333332
EXTRACT: note_on channel=7 note=57 velocity=0 time=0.04319848333333333
EXTRACT: note_on channel=6 note=57 velocity=0 time=0
EXTRACT: note_on channel=6 note=57 velocity=74 time=0.07720579999999999
EXTRACT: note_on channel=7 note=57 velocity=74 time=0
EXTRACT: note_on channel=7 note=64 velocity=0 time=0.0330882
EXTRACT: note_on channel=6 note=64 velocity=0 time=0
EXTRACT: note_on channel=6 note=64 velocity=52 time=0
EXTRACT: note_on channel=7 note=64 velocity=52 time=0
EXTRACT: note_on channel=9 note=82 velocity=50 time=0.05422788333333333
EXTRACT: note_on channel=9 note=82 velocity=0 time=0.055146999999999995
EXTRACT: note_on channel=7 note=45 velocity=0 time=0.06709551666666666
EXTRACT: note_on channel=6 note=45 velocity=0 time=0
EXTRACT: note_on channel=6 note=45 velocity=52 time=0.0110294
EXTRACT: note_on channel=7 note=45 velocity=52 time=0
EXTRACT: note_on channel=9 note=82 velocity=50 time=0.0045955833333333335
EXTRACT: note_on channel=6 note=52 velocity=0 time=0.00275735
EXTRACT: note_on channel=7 note=52 velocity=0 time=0
EXTRACT: note_on channel=6 note=52 velocity=55 time=0
EXTRACT: note_on channel=7 note=52 velocity=55 time=0
EXTRACT: note_on channel=6 note=64 velocity=0 time=0.03676466666666667
EXTRACT: note_on channel=7 note=64 velocity=0 time=0
EXTRACT: note_on channel=6 note=64 velocity=47 time=0
EXTRACT: note_on channel=7 note=64 velocity=47 time=0
EXTRACT: note_on channel=9 note=82 velocity=0 time=0.056066116666666665
EXTRACT: note_on channel=6 note=57 velocity=0 time=0.09099254999999999
EXTRACT: note_on channel=7 note=57 velocity=0 time=0
EXTRACT: note_on channel=6 note=57 velocity=68 time=0.029411733333333332
EXTRACT: note_on channel=7 note=57 velocity=68 time=0
EXTRACT: note_on channel=7 note=64 velocity=0 time=0.014705866666666666
EXTRACT: note_on channel=6 note=64 velocity=0 time=0
EXTRACT: note_on channel=6 note=64 velocity=39 time=0
EXTRACT: note_on channel=7 note=64 velocity=39 time=0
EXTRACT: note_on channel=9 note=82 velocity=50 time=0.07261021666666666
EXTRACT: note_on channel=9 note=82 velocity=0 time=0.055146999999999995
EXTRACT: note_on channel=7 note=45 velocity=0 time=0.022977916666666667
EXTRACT: note_on channel=6 note=45 velocity=0 time=0
EXTRACT: note_on channel=6 note=52 velocity=0 time=0.055146999999999995
EXTRACT: note_on channel=7 note=52 velocity=0 time=0
EXTRACT: note_on channel=6 note=45 velocity=82 time=0
EXTRACT: note_on channel=6 note=52 velocity=81 time=0
EXTRACT: note_on channel=7 note=45 velocity=82 time=0
EXTRACT: note_on channel=7 note=52 velocity=81 time=0
EXTRACT: note_on channel=9 note=82 velocity=50 time=0.0036764666666666665
EXTRACT: note_on channel=3 note=52 velocity=100 time=0.0045955833333333335
EXTRACT: note_on channel=7 note=57 velocity=0 time=0.00275735
EXTRACT: note_on channel=7 note=64 velocity=0 time=0
EXTRACT: note_on channel=6 note=57 velocity=0 time=0
EXTRACT: note_on channel=6 note=64 velocity=0 time=0
EXTRACT: note_on channel=6 note=64 velocity=73 time=0
EXTRACT: note_on channel=6 note=57 velocity=66 time=0
EXTRACT: note_on channel=7 note=64 velocity=73 time=0
EXTRACT: note_on channel=7 note=57 velocity=66 time=0
EXTRACT: note_on channel=9 note=82 velocity=0 time=0.09191166666666667
EXTRACT: note_on channel=9 note=82 velocity=50 time=0.20496301666666666
EXTRACT: note_on channel=9 note=82 velocity=0 time=0.055146999999999995
EXTRACT: note_on channel=3 note=52 velocity=0 time=0.07536756666666666
EXTRACT: note_on channel=9 note=82 velocity=50 time=0.0045955833333333335
EXTRACT: note_on channel=7 note=52 velocity=0 time=0.0165441
EXTRACT: note_on channel=6 note=52 velocity=0 time=0
EXTRACT: note_on channel=6 note=52 velocity=48 time=0
EXTRACT: note_on channel=7 note=52 velocity=48 time=0
EXTRACT: note_on channel=6 note=64 velocity=0 time=0.007352933333333333
EXTRACT: note_on channel=7 note=64 velocity=0 time=0
EXTRACT: note_on channel=6 note=64 velocity=41 time=0
EXTRACT: note_on channel=7 note=64 velocity=41 time=0
EXTRACT: note_on channel=9 note=82 velocity=0 time=0.0716911
EXTRACT: note_on channel=7 note=57 velocity=0 time=0.10845576666666666
EXTRACT: note_on channel=6 note=57 velocity=0 time=0
EXTRACT: note_on channel=6 note=57 velocity=51 time=0.014705866666666666
EXTRACT: note_on channel=7 note=57 velocity=51 time=0
EXTRACT: note_on channel=9 note=82 velocity=50 time=0.08731608333333334
EXTRACT: note_on channel=9 note=82 velocity=0 time=0.055146999999999995
EXTRACT: note_on channel=7 note=52 velocity=0 time=0.07444845
EXTRACT: note_on channel=6 note=52 velocity=0 time=0
EXTRACT: note_on channel=6 note=52 velocity=48 time=0.0036764666666666665
EXTRACT: note_on channel=7 note=52 velocity=48 time=0
EXTRACT: note_on channel=9 note=82 velocity=50 time=0.0018382333333333333
EXTRACT: note_on channel=7 note=64 velocity=0 time=0.0055147
EXTRACT: note_on channel=6 note=64 velocity=0 time=0
EXTRACT: note_on channel=6 note=64 velocity=44 time=0
EXTRACT: note_on channel=7 note=64 velocity=44 time=0
EXTRACT: note_on channel=9 note=82 velocity=0 time=0.09007343333333333
EXTRACT: note_on channel=7 note=57 velocity=0 time=0.0937499
EXTRACT: note_on channel=6 note=57 velocity=0 time=0
EXTRACT: note_on channel=6 note=57 velocity=71 time=0.029411733333333332
EXTRACT: note_on channel=7 note=57 velocity=71 time=0
EXTRACT: note_on channel=6 note=64 velocity=0 time=0.0036764666666666665
EXTRACT: note_on channel=7 note=64 velocity=0 time=0
EXTRACT: note_on channel=6 note=64 velocity=45 time=0
EXTRACT: note_on channel=7 note=64 velocity=45 time=0
EXTRACT: note_on channel=9 note=82 velocity=50 time=0.08363961666666667
EXTRACT: note_on channel=9 note=82 velocity=0 time=0.055146999999999995
EXTRACT: note_on channel=1 note=45 velocity=0 time=0.025735266666666666
EXTRACT: note_on channel=7 note=45 velocity=0 time=0.03033085
EXTRACT: note_on channel=6 note=45 velocity=0 time=0
EXTRACT: note_on channel=7 note=52 velocity=0 time=0.0036764666666666665
EXTRACT: note_on channel=6 note=57 velocity=0 time=0
EXTRACT: note_on channel=6 note=52 velocity=0 time=0
EXTRACT: note_on channel=7 note=64 velocity=0 time=0
EXTRACT: note_on channel=7 note=57 velocity=0 time=0
EXTRACT: note_on channel=6 note=64 velocity=0 time=0
EXTRACT: note_on channel=1 note=40 velocity=94 time=0.015624983333333333
EXTRACT: note_on channel=6 note=52 velocity=78 time=0.00275735
EXTRACT: note_on channel=6 note=47 velocity=63 time=0
EXTRACT: note_on channel=6 note=64 velocity=75 time=0
EXTRACT: note_on channel=6 note=59 velocity=78 time=0
EXTRACT: note_on channel=7 note=52 velocity=78 time=0
EXTRACT: note_on channel=7 note=47 velocity=63 time=0
EXTRACT: note_on channel=7 note=64 velocity=75 time=0
EXTRACT: note_on channel=7 note=59 velocity=78 time=0
EXTRACT: note_on channel=9 note=82 velocity=50 time=0.0018382333333333333
EXTRACT: note_on channel=3 note=52 velocity=100 time=0.0064338166666666665
EXTRACT: note_on channel=9 note=82 velocity=0 time=0.09283078333333333
EXTRACT: note_on channel=9 note=82 velocity=50 time=0.20680125
EXTRACT: note_on channel=9 note=82 velocity=0 time=0.055146999999999995
EXTRACT: note_on channel=7 note=59 velocity=0 time=0.06709551666666666
EXTRACT: note_on channel=6 note=59 velocity=0 time=0
EXTRACT: note_on channel=3 note=52 velocity=0 time=0.00827205
EXTRACT: note_on channel=6 note=59 velocity=41 time=0.00275735
EXTRACT: note_on channel=7 note=59 velocity=41 time=0
EXTRACT: note_on channel=9 note=82 velocity=50 time=0.0009191166666666666
EXTRACT: note_on channel=6 note=64 velocity=0 time=0.017463216666666666
EXTRACT: note_on channel=7 note=64 velocity=0 time=0
EXTRACT: note_on channel=6 note=64 velocity=41 time=0
EXTRACT: note_on channel=7 note=64 velocity=41 time=0
EXTRACT: note_on channel=9 note=82 velocity=0 time=0.08180138333333332
EXTRACT: note_on channel=7 note=64 velocity=0 time=0.09466901666666666
EXTRACT: note_on channel=6 note=64 velocity=0 time=0
EXTRACT: note_on channel=6 note=64 velocity=56 time=0.025735266666666666
EXTRACT: note_on channel=7 note=64 velocity=56 time=0
EXTRACT: note_on channel=9 note=82 velocity=50 time=0.08731608333333334
EXTRACT: note_on channel=9 note=82 velocity=0 time=0.055146999999999995
EXTRACT: note_on channel=7 note=59 velocity=0 time=0.06341904999999999
EXTRACT: note_on channel=6 note=59 velocity=0 time=0
EXTRACT: note_on channel=6 note=64 velocity=0 time=0.014705866666666666
EXTRACT: note_on channel=7 note=64 velocity=0 time=0
EXTRACT: note_on channel=6 note=59 velocity=53 time=0
EXTRACT: note_on channel=6 note=64 velocity=72 time=0
EXTRACT: note_on channel=7 note=59 velocity=53 time=0
EXTRACT: note_on channel=7 note=64 velocity=72 time=0
EXTRACT: note_on channel=9 note=82 velocity=50 time=0.0018382333333333333
EXTRACT: note_on channel=9 note=82 velocity=0 time=0.09558813333333332
EXTRACT: note_on channel=7 note=64 velocity=0 time=0.09742636666666667
EXTRACT: note_on channel=6 note=64 velocity=0 time=0
EXTRACT: note_on channel=6 note=64 velocity=50 time=0.025735266666666666
EXTRACT: note_on channel=7 note=64 velocity=50 time=0
EXTRACT: note_on channel=3 note=47 velocity=100 time=0.007352933333333333
EXTRACT: note_on channel=9 note=82 velocity=50 time=0.07996315
EXTRACT: note_on channel=9 note=82 velocity=0 time=0.055146999999999995
EXTRACT: note_on channel=6 note=52 velocity=0 time=0.03033085
EXTRACT: note_on channel=7 note=52 velocity=0 time=0
EXTRACT: note_on channel=7 note=59 velocity=0 time=0.0036764666666666665
EXTRACT: note_on channel=6 note=59 velocity=0 time=0
EXTRACT: note_on channel=6 note=64 velocity=0 time=0.0036764666666666665
EXTRACT: note_on channel=7 note=64 velocity=0 time=0
EXTRACT: note_on channel=9 note=82 velocity=50 time=0.03676466666666667
EXTRACT: note_on channel=3 note=52 velocity=100 time=0.00275735
EXTRACT: note_on channel=6 note=64 velocity=75 time=0.0009191166666666666
EXTRACT: note_on channel=6 note=52 velocity=50 time=0
EXTRACT: note_on channel=6 note=59 velocity=77 time=0
EXTRACT: note_on channel=7 note=64 velocity=75 time=0
EXTRACT: note_on channel=7 note=52 velocity=50 time=0
EXTRACT: note_on channel=7 note=59 velocity=77 time=0
EXTRACT: note_on channel=3 note=47 velocity=0 time=0.0045955833333333335
EXTRACT: note_on channel=9 note=82 velocity=0 time=0.09099254999999999
EXTRACT: note_on channel=9 note=82 velocity=50 time=0.21231595
EXTRACT: note_on channel=9 note=82 velocity=0 time=0.055146999999999995
EXTRACT: note_on channel=7 note=64 velocity=0 time=0.056066116666666665
EXTRACT: note_on channel=6 note=64 velocity=0 time=0
EXTRACT: note_on channel=3 note=52 velocity=0 time=0.010110283333333333
EXTRACT: note_on channel=9 note=82 velocity=50 time=0.010110283333333333
EXTRACT: note_on channel=3 note=52 velocity=100 time=0.0064338166666666665
EXTRACT: note_on channel=6 note=64 velocity=50 time=0.00275735
EXTRACT: note_on channel=7 note=64 velocity=50 time=0
EXTRACT: note_on channel=9 note=82 velocity=0 time=0.09007343333333333
EXTRACT: note_on channel=7 note=64 velocity=0 time=0.0827205
EXTRACT: note_on channel=6 note=64 velocity=0 time=0
EXTRACT: note_on channel=6 note=64 velocity=47 time=0.04044113333333333
EXTRACT: note_on channel=7 note=64 velocity=47 time=0
EXTRACT: note_on channel=9 note=82 velocity=50 time=0.08731608333333334
EXTRACT: note_on channel=9 note=82 velocity=0 time=0.055146999999999995
EXTRACT: note_on channel=6 note=59 velocity=0 time=0.04136025
EXTRACT: note_on channel=7 note=64 velocity=0 time=0
EXTRACT: note_on channel=6 note=64 velocity=0 time=0
EXTRACT: note_on channel=7 note=59 velocity=0 time=0
EXTRACT: note_on channel=3 note=52 velocity=0 time=0.03033085
EXTRACT: note_on channel=9 note=82 velocity=50 time=0.0036764666666666665
EXTRACT: note_on channel=6 note=64 velocity=74 time=0.010110283333333333
EXTRACT: note_on channel=7 note=64 velocity=74 time=0
EXTRACT: note_on channel=3 note=54 velocity=100 time=0.00275735
EXTRACT: note_on channel=6 note=59 velocity=80 time=0.0009191166666666666
EXTRACT: note_on channel=7 note=59 velocity=80 time=0
EXTRACT: note_on channel=9 note=82 velocity=0 time=0.08547785
EXTRACT: note_on channel=7 note=64 velocity=0 time=0.08363961666666667
EXTRACT: note_on channel=6 note=64 velocity=0 time=0
EXTRACT: note_on channel=3 note=54 velocity=0 time=0.032169083333333334
EXTRACT: note_on channel=3 note=54 velocity=100 time=0.0045955833333333335
EXTRACT: note_on channel=6 note=64 velocity=68 time=0.0036764666666666665
EXTRACT: note_on channel=7 note=64 velocity=68 time=0
EXTRACT: note_on channel=9 note=82 velocity=50 time=0.08731608333333334
EXTRACT: note_on channel=9 note=82 velocity=0 time=0.055146999999999995
EXTRACT: note_on channel=1 note=40 velocity=0 time=0.014705866666666666
EXTRACT: note_on channel=6 note=52 velocity=0 time=0.011948516666666666
EXTRACT: note_on channel=7 note=52 velocity=0 time=0
EXTRACT: note_on channel=6 note=59 velocity=0 time=0.018382333333333334
EXTRACT: note_on channel=7 note=59 velocity=0 time=0
EXTRACT: note_on channel=6 note=47 velocity=0 time=0.0036764666666666665
EXTRACT: note_on channel=7 note=47 velocity=0 time=0
EXTRACT: note_on channel=7 note=64 velocity=0 time=0.0036764666666666665
EXTRACT: note_on channel=6 note=64 velocity=0 time=0
EXTRACT: note_on channel=6 note=47 velocity=67 time=0.025735266666666666
EXTRACT: note_on channel=6 note=54 velocity=78 time=0
EXTRACT: note_on channel=6 note=66 velocity=82 time=0
EXTRACT: note_on channel=6 note=61 velocity=86 time=0
EXTRACT: note_on channel=7 note=47 velocity=67 time=0
EXTRACT: note_on channel=7 note=54 velocity=78 time=0
EXTRACT: note_on channel=7 note=66 velocity=82 time=0
EXTRACT: note_on channel=7 note=61 velocity=86 time=0
EXTRACT: note_on channel=9 note=82 velocity=50 time=0.0018382333333333333
EXTRACT: note_on channel=1 note=47 velocity=94 time=0.0064338166666666665
EXTRACT: note_on channel=9 note=82 velocity=0 time=0.09283078333333333
EXTRACT: note_on channel=3 note=54 velocity=0 time=0.10477929999999999
EXTRACT: note_on channel=9 note=82 velocity=50 time=0.10202195
EXTRACT: note_on channel=9 note=82 velocity=0 time=0.055146999999999995
EXTRACT: note_on channel=7 note=54 velocity=0 time=0.03033085
EXTRACT: note_on channel=6 note=54 velocity=0 time=0
EXTRACT: note_on channel=7 note=66 velocity=0 time=0.04779406666666666
EXTRACT: note_on channel=6 note=66 velocity=0 time=0
EXTRACT: note_on channel=6 note=54 velocity=59 time=0
EXTRACT: note_on channel=6 note=66 velocity=52 time=0
EXTRACT: note_on channel=7 note=54 velocity=59 time=0
EXTRACT: note_on channel=7 note=66 velocity=52 time=0
EXTRACT: note_on channel=9 note=82 velocity=50 time=0.0045955833333333335
EXTRACT: note_on channel=9 note=82 velocity=0 time=0.09558813333333332
EXTRACT: note_on channel=7 note=61 velocity=0 time=0.04319848333333333
EXTRACT: note_on channel=6 note=61 velocity=0 time=0
EXTRACT: note_on channel=6 note=61 velocity=74 time=0.07720579999999999
EXTRACT: note_on channel=7 note=61 velocity=74 time=0
EXTRACT: note_on channel=7 note=66 velocity=0 time=0.0330882
EXTRACT: note_on channel=6 note=66 velocity=0 time=0
EXTRACT: note_on channel=6 note=66 velocity=52 time=0
EXTRACT: note_on channel=7 note=66 velocity=52 time=0
EXTRACT: note_on channel=9 note=82 velocity=50 time=0.05422788333333333
EXTRACT: note_on channel=9 note=82 velocity=0 time=0.055146999999999995
EXTRACT: note_on channel=7 note=47 velocity=0 time=0.06709551666666666
EXTRACT: note_on channel=6 note=47 velocity=0 time=0
EXTRACT: note_on channel=6 note=47 velocity=52 time=0.0110294
EXTRACT: note_on channel=7 note=47 velocity=52 time=0
EXTRACT: note_on channel=9 note=82 velocity=50 time=0.0045955833333333335
EXTRACT: note_on channel=6 note=54 velocity=0 time=0.00275735
EXTRACT: note_on channel=7 note=54 velocity=0 time=0
EXTRACT: note_on channel=6 note=54 velocity=55 time=0
EXTRACT: note_on channel=7 note=54 velocity=55 time=0
EXTRACT: note_on channel=6 note=66 velocity=0 time=0.03676466666666667
EXTRACT: note_on channel=7 note=66 velocity=0 time=0
EXTRACT: note_on channel=6 note=66 velocity=47 time=0
EXTRACT: note_on channel=7 note=66 velocity=47 time=0
EXTRACT: note_on channel=9 note=82 velocity=0 time=0.056066116666666665
EXTRACT: note_on channel=6 note=61 velocity=0 time=0.09099254999999999
EXTRACT: note_on channel=7 note=61 velocity=0 time=0
EXTRACT: note_on channel=6 note=61 velocity=68 time=0.029411733333333332
EXTRACT: note_on channel=7 note=61 velocity=68 time=0
EXTRACT: note_on channel=7 note=66 velocity=0 time=0.014705866666666666
EXTRACT: note_on channel=6 note=66 velocity=0 time=0
EXTRACT: note_on channel=6 note=66 velocity=39 time=0
EXTRACT: note_on channel=7 note=66 velocity=39 time=0
EXTRACT: note_on channel=9 note=82 velocity=50 time=0.07261021666666666
EXTRACT: note_on channel=9 note=82 velocity=0 time=0.055146999999999995
EXTRACT: note_on channel=7 note=47 velocity=0 time=0.022977916666666667
EXTRACT: note_on channel=6 note=47 velocity=0 time=0
EXTRACT: note_on channel=6 note=54 velocity=0 time=0.055146999999999995
EXTRACT: note_on channel=7 note=54 velocity=0 time=0
EXTRACT: note_on channel=6 note=47 velocity=82 time=0
EXTRACT: note_on channel=6 note=54 velocity=81 time=0
EXTRACT: note_on channel=7 note=47 velocity=82 time=0
EXTRACT: note_on channel=7 note=54 velocity=81 time=0
EXTRACT: note_on channel=9 note=82 velocity=50 time=0.0036764666666666665
EXTRACT: note_on channel=1 note=47 velocity=0 time=0.0018382333333333333
EXTRACT: note_on channel=7 note=61 velocity=0 time=0.0055147
EXTRACT: note_on channel=7 note=66 velocity=0 time=0
EXTRACT: note_on channel=6 note=61 velocity=0 time=0
EXTRACT: note_on channel=6 note=66 velocity=0 time=0
EXTRACT: note_on channel=1 note=42 velocity=94 time=0
EXTRACT: note_on channel=6 note=66 velocity=73 time=0
EXTRACT: note_on channel=6 note=61 velocity=66 time=0
EXTRACT: note_on channel=7 note=66 velocity=73 time=0
EXTRACT: note_on channel=7 note=61 velocity=66 time=0
EXTRACT: note_on channel=9 note=82 velocity=0 time=0.09191166666666667
EXTRACT: note_on channel=9 note=82 velocity=50 time=0.20496301666666666
EXTRACT: note_on channel=9 note=82 velocity=0 time=0.055146999999999995
EXTRACT: note_on channel=9 note=82 velocity=50 time=0.07996315
EXTRACT: note_on channel=7 note=54 velocity=0 time=0.0165441
EXTRACT: note_on channel=6 note=54 velocity=0 time=0
EXTRACT: note_on channel=6 note=54 velocity=48 time=0
EXTRACT: note_on channel=7 note=54 velocity=48 time=0
EXTRACT: note_on channel=7 note=66 velocity=0 time=0.007352933333333333
EXTRACT: note_on channel=6 note=66 velocity=0 time=0
EXTRACT: note_on channel=6 note=66 velocity=41 time=0
EXTRACT: note_on channel=7 note=66 velocity=41 time=0
EXTRACT: note_on channel=9 note=82 velocity=0 time=0.0716911
EXTRACT: note_on channel=6 note=61 velocity=0 time=0.10845576666666666
EXTRACT: note_on channel=7 note=61 velocity=0 time=0
EXTRACT: note_on channel=6 note=61 velocity=51 time=0.014705866666666666
EXTRACT: note_on channel=7 note=61 velocity=51 time=0
EXTRACT: note_on channel=9 note=82 velocity=50 time=0.08731608333333334
EXTRACT: note_on channel=9 note=82 velocity=0 time=0.055146999999999995
EXTRACT: note_on channel=6 note=54 velocity=0 time=0.07444845
EXTRACT: note_on channel=7 note=54 velocity=0 time=0
EXTRACT: note_on channel=6 note=54 velocity=48 time=0.0036764666666666665
EXTRACT: note_on channel=7 note=54 velocity=48 time=0
EXTRACT: note_on channel=9 note=82 velocity=50 time=0.0018382333333333333
EXTRACT: note_on channel=7 note=66 velocity=0 time=0.0055147
EXTRACT: note_on channel=6 note=66 velocity=0 time=0
EXTRACT: note_on channel=6 note=66 velocity=44 time=0
EXTRACT: note_on channel=7 note=66 velocity=44 time=0
EXTRACT: note_on channel=9 note=82 velocity=0 time=0.09007343333333333
EXTRACT: note_on channel=7 note=61 velocity=0 time=0.0937499
EXTRACT: note_on channel=6 note=61 velocity=0 time=0
EXTRACT: note_on channel=6 note=61 velocity=71 time=0.029411733333333332
EXTRACT: note_on channel=7 note=61 velocity=71 time=0
EXTRACT: note_on channel=6 note=66 velocity=0 time=0.0036764666666666665
EXTRACT: note_on channel=7 note=66 velocity=0 time=0
EXTRACT: note_on channel=6 note=66 velocity=45 time=0
EXTRACT: note_on channel=7 note=66 velocity=45 time=0
EXTRACT: note_on channel=9 note=82 velocity=50 time=0.08363961666666667
EXTRACT: note_on channel=9 note=82 velocity=0 time=0.055146999999999995
EXTRACT: note_on channel=7 note=47 velocity=0 time=0.056066116666666665
EXTRACT: note_on channel=6 note=47 velocity=0 time=0
EXTRACT: note_on channel=7 note=61 velocity=0 time=0.0036764666666666665
EXTRACT: note_on channel=7 note=54 velocity=0 time=0
EXTRACT: note_on channel=6 note=54 velocity=0 time=0
EXTRACT: note_on channel=7 note=66 velocity=0 time=0
EXTRACT: note_on channel=6 note=66 velocity=0 time=0
EXTRACT: note_on channel=6 note=61 velocity=0 time=0
EXTRACT: note_on channel=6 note=63 velocity=82 time=0.015624983333333333
EXTRACT: note_on channel=6 note=59 velocity=82 time=0
EXTRACT: note_on channel=6 note=47 velocity=88 time=0.00275735
EXTRACT: note_on channel=6 note=42 velocity=73 time=0
EXTRACT: note_on channel=6 note=59 velocity=85 time=0
EXTRACT: note_on channel=6 note=54 velocity=88 time=0
EXTRACT: note_on channel=7 note=47 velocity=88 time=0
EXTRACT: note_on channel=7 note=42 velocity=73 time=0
EXTRACT: note_on channel=7 note=59 velocity=85 time=0
EXTRACT: note_on channel=7 note=54 velocity=88 time=0
EXTRACT: note_on channel=9 note=82 velocity=50 time=0.0018382333333333333
EXTRACT: note_on channel=1 note=42 velocity=0 time=0.0064338166666666665
EXTRACT: note_on channel=1 note=35 velocity=94 time=0.00275735
EXTRACT: note_on channel=6 note=63 velocity=82 time=0
EXTRACT: note_on channel=6 note=59 velocity=82 time=0
EXTRACT: note_on channel=7 note=63 velocity=82 time=0
EXTRACT: note_on channel=7 note=59 velocity=82 time=0
EXTRACT: note_on channel=7 note=63 velocity=82 time=0.013786749999999999
EXTRACT: note_on channel=7 note=59 velocity=82 time=0
EXTRACT: note_on channel=9 note=82 velocity=0 time=0.07628668333333333
EXTRACT: note_on channel=3 note=47 velocity=75 time=1.03952095
EXTRACT: note_on channel=3 note=52 velocity=75 time=0.19025714999999999
EXTRACT: note_on channel=3 note=47 velocity=0 time=0.0036764666666666665
EXTRACT: note_on channel=3 note=54 velocity=75 time=0.43658041666666664
EXTRACT: note_on channel=3 note=52 velocity=0 time=0.009191166666666667
EXTRACT: note_on channel=3 note=54 velocity=0 time=0.18566156666666667
EXTRACT: note_on channel=3 note=56 velocity=75 time=0.007352933333333333
EXTRACT: note_on channel=3 note=56 velocity=0 time=0.44944805
EXTRACT: note_on channel=3 note=52 velocity=75 time=0.015624983333333333
EXTRACT: note_on channel=7 note=47 velocity=0 time=0.13511014999999998
EXTRACT: note_on channel=6 note=42 velocity=0 time=0
EXTRACT: note_on channel=7 note=54 velocity=0 time=0
EXTRACT: note_on channel=7 note=59 velocity=0 time=0
EXTRACT: note_on channel=6 note=47 velocity=0 time=0
EXTRACT: note_on channel=7 note=42 velocity=0 time=0
EXTRACT: note_on channel=6 note=54 velocity=0 time=0
EXTRACT: note_on channel=6 note=59 velocity=0 time=0
EXTRACT: note_on channel=6 note=63 velocity=0 time=0.019301449999999998
EXTRACT: note_on channel=1 note=35 velocity=0 time=0.0045955833333333335
EXTRACT: control_change channel=6 control=64 value=0 time=0.0036764666666666665
EXTRACT: note_on channel=7 note=63 velocity=0 time=0.0055147
EXTRACT: note_on channel=6 note=63 velocity=0 time=0
EXTRACT: note_on channel=6 note=59 velocity=0 time=0.0036764666666666665
EXTRACT: control_change channel=7 control=64 value=0 time=0.0045955833333333335
EXTRACT: note_on channel=7 note=63 velocity=0 time=0.0055147
EXTRACT: note_on channel=7 note=59 velocity=0 time=0.0036764666666666665
EXTRACT: note_on channel=6 note=59 velocity=0 time=0
EXTRACT: note_on channel=7 note=59 velocity=0 time=0.013786749999999999
EXTRACT: note_on channel=1 note=28 velocity=116 time=0.0064338166666666665
EXTRACT: note_on channel=5 note=64 velocity=1 time=0
EXTRACT: note_on channel=5 note=61 velocity=1 time=0
EXTRACT: note_on channel=5 note=57 velocity=1 time=0
EXTRACT: note_on channel=6 note=57 velocity=68 time=0
EXTRACT: note_on channel=6 note=40 velocity=77 time=0
EXTRACT: note_on channel=6 note=52 velocity=69 time=0
EXTRACT: note_on channel=6 note=61 velocity=91 time=0
EXTRACT: note_on channel=3 note=52 velocity=0 time=0.0018382333333333333
EXTRACT: note_on channel=3 note=57 velocity=82 time=0.0064338166666666665
EXTRACT: note_on channel=7 note=57 velocity=68 time=0.0036764666666666665
EXTRACT: note_on channel=7 note=40 velocity=77 time=0
EXTRACT: note_on channel=7 note=52 velocity=69 time=0
EXTRACT: note_on channel=7 note=61 velocity=91 time=0
EXTRACT: control_change channel=6 control=64 value=127 time=0.12040428333333333
EXTRACT: control_change channel=7 control=64 value=127 time=0.013786749999999999
EXTRACT: note_on channel=6 note=52 velocity=0 time=0.36121285
EXTRACT: note_on channel=6 note=40 velocity=0 time=0.00827205
EXTRACT: note_on channel=7 note=52 velocity=0 time=0.0055147
EXTRACT: note_on channel=7 note=40 velocity=0 time=0.00827205
EXTRACT: note_on channel=6 note=40 velocity=67 time=0.2040439
EXTRACT: note_on channel=7 note=40 velocity=67 time=0.013786749999999999
EXTRACT: note_on channel=6 note=57 velocity=0 time=0.05698523333333333
EXTRACT: note_on channel=7 note=57 velocity=0 time=0.013786749999999999
EXTRACT: note_on channel=6 note=61 velocity=0 time=0.009191166666666667
EXTRACT: note_on channel=7 note=61 velocity=0 time=0.013786749999999999
EXTRACT: note_on channel=3 note=57 velocity=0 time=0.38051429999999997
EXTRACT: note_on channel=1 note=28 velocity=0 time=0.0661764
EXTRACT: control_change channel=6 control=64 value=0 time=0.029411733333333332
EXTRACT: note_on channel=5 note=64 velocity=0 time=0.0045955833333333335
EXTRACT: note_on channel=5 note=61 velocity=0 time=0
EXTRACT: note_on channel=5 note=57 velocity=0 time=0
EXTRACT: note_on channel=1 note=28 velocity=96 time=0
EXTRACT: note_on channel=5 note=59 velocity=1 time=0
EXTRACT: note_on channel=5 note=52 velocity=1 time=0
EXTRACT: note_on channel=5 note=56 velocity=1 time=0
EXTRACT: note_on channel=6 note=59 velocity=79 time=0
EXTRACT: note_on channel=6 note=56 velocity=84 time=0
EXTRACT: note_on channel=6 note=52 velocity=89 time=0
EXTRACT: note_on channel=3 note=56 velocity=62 time=0.0009191166666666666
EXTRACT: control_change channel=7 control=64 value=0 time=0.00827205
EXTRACT: note_on channel=7 note=59 velocity=79 time=0.0045955833333333335
EXTRACT: note_on channel=7 note=56 velocity=84 time=0
EXTRACT: note_on channel=7 note=52 velocity=89 time=0
EXTRACT: control_change channel=6 control=64 value=127 time=0.38327164999999996
EXTRACT: control_change channel=7 control=64 value=127 time=0.013786749999999999
EXTRACT: note_on channel=3 note=56 velocity=0 time=0.011948516666666666
EXTRACT: note_on channel=6 note=52 velocity=0 time=0.10753665
EXTRACT: note_on channel=7 note=52 velocity=0 time=0.013786749999999999
EXTRACT: note_on channel=6 note=40 velocity=0 time=0.0045955833333333335
EXTRACT: note_on channel=7 note=40 velocity=0 time=0.013786749999999999
EXTRACT: note_on channel=6 note=40 velocity=70 time=0.17279393333333332
EXTRACT: note_on channel=7 note=40 velocity=70 time=0.013786749999999999
EXTRACT: note_on channel=1 note=28 velocity=0 time=0.11029399999999999
EXTRACT: note_on channel=1 note=28 velocity=94 time=0.022977916666666667
EXTRACT: note_on channel=6 note=56 velocity=0 time=0.15257336666666665
EXTRACT: note_on channel=7 note=56 velocity=0 time=0.013786749999999999
EXTRACT: note_on channel=6 note=59 velocity=0 time=0.05422788333333333
EXTRACT: note_on channel=7 note=59 velocity=0 time=0.013786749999999999
EXTRACT: note_on channel=6 note=52 velocity=79 time=0.05974258333333333
EXTRACT: note_on channel=7 note=52 velocity=79 time=0.013786749999999999
EXTRACT: note_on channel=1 note=28 velocity=0 time=0.0496323
EXTRACT: note_on channel=1 note=28 velocity=93 time=0.08363961666666667
EXTRACT: note_on channel=6 note=59 velocity=57 time=0
EXTRACT: note_on channel=6 note=56 velocity=64 time=0
EXTRACT: note_on channel=7 note=59 velocity=57 time=0.013786749999999999
EXTRACT: note_on channel=7 note=56 velocity=64 time=0
EXTRACT: note_on channel=6 note=52 velocity=0 time=1.0165430333333334
EXTRACT: note_on channel=7 note=52 velocity=0 time=0.013786749999999999
EXTRACT: note_on channel=6 note=56 velocity=0 time=0.03400731666666666
EXTRACT: note_on channel=6 note=59 velocity=0 time=0.0064338166666666665
EXTRACT: note_on channel=7 note=56 velocity=0 time=0.007352933333333333
EXTRACT: note_on channel=7 note=59 velocity=0 time=0.0064338166666666665
EXTRACT: note_on channel=3 note=52 velocity=82 time=0.07444845
EXTRACT: note_on channel=6 note=52 velocity=103 time=0.15073513333333333
EXTRACT: note_on channel=3 note=52 velocity=0 time=0.0009191166666666666
EXTRACT: note_on channel=7 note=52 velocity=103 time=0.012867633333333333
EXTRACT: note_on channel=3 note=52 velocity=91 time=0.020220566666666665
EXTRACT: note_on channel=3 note=52 velocity=0 time=0.3143379
EXTRACT: note_on channel=6 note=54 velocity=105 time=0.09283078333333333
EXTRACT: note_on channel=3 note=54 velocity=75 time=0.00827205
EXTRACT: note_on channel=7 note=54 velocity=105 time=0.0055147
EXTRACT: note_on channel=3 note=54 velocity=0 time=0.2040439
EXTRACT: note_on channel=3 note=56 velocity=89 time=0
EXTRACT: note_on channel=6 note=56 velocity=107 time=0.22334535
EXTRACT: note_on channel=6 note=54 velocity=0 time=0.0018382333333333333
EXTRACT: note_on channel=7 note=56 velocity=107 time=0.011948516666666666
EXTRACT: note_on channel=7 note=54 velocity=0 time=0.0018382333333333333
EXTRACT: note_on channel=6 note=56 velocity=0 time=0.07352933333333334
EXTRACT: note_on channel=7 note=56 velocity=0 time=0.013786749999999999
EXTRACT: note_on channel=6 note=52 velocity=0 time=0.032169083333333334
EXTRACT: note_on channel=7 note=52 velocity=0 time=0.013786749999999999
EXTRACT: note_on channel=3 note=56 velocity=0 time=0.07352933333333334
EXTRACT: note_on channel=6 note=40 velocity=0 time=0.017463216666666666
EXTRACT: note_on channel=3 note=52 velocity=89 time=0.009191166666666667
EXTRACT: note_on channel=7 note=40 velocity=0 time=0.0045955833333333335
EXTRACT: note_on channel=1 note=28 velocity=0 time=0.18382333333333334
EXTRACT: note_on channel=5 note=59 velocity=0 time=0.0036764666666666665
EXTRACT: note_on channel=5 note=52 velocity=0 time=0
EXTRACT: note_on channel=5 note=56 velocity=0 time=0
EXTRACT: note_on channel=1 note=28 velocity=112 time=0
EXTRACT: note_on channel=3 note=57 velocity=81 time=0
EXTRACT: note_on channel=5 note=64 velocity=1 time=0
EXTRACT: note_on channel=5 note=57 velocity=1 time=0
EXTRACT: note_on channel=5 note=61 velocity=1 time=0
EXTRACT: note_on channel=6 note=61 velocity=105 time=0
EXTRACT: note_on channel=6 note=40 velocity=76 time=0
EXTRACT: note_on channel=6 note=57 velocity=93 time=0
EXTRACT: note_on channel=6 note=52 velocity=85 time=0
EXTRACT: note_on channel=3 note=52 velocity=0 time=0.00275735
EXTRACT: note_on channel=7 note=61 velocity=105 time=0.0110294
EXTRACT: note_on channel=7 note=40 velocity=76 time=0
EXTRACT: note_on channel=7 note=57 velocity=93 time=0
EXTRACT: note_on channel=7 note=52 velocity=85 time=0
EXTRACT: control_change channel=6 control=64 value=0 time=0.00827205
EXTRACT: control_change channel=7 control=64 value=0 time=0.013786749999999999
EXTRACT: control_change channel=6 control=64 value=127 time=0.37040401666666667
EXTRACT: control_change channel=7 control=64 value=127 time=0.013786749999999999
EXTRACT: note_on channel=6 note=40 velocity=0 time=0.17463216666666667
EXTRACT: note_on channel=6 note=52 velocity=0 time=0.0009191166666666666
EXTRACT: note_on channel=7 note=40 velocity=0 time=0.012867633333333333
EXTRACT: note_on channel=7 note=52 velocity=0 time=0.0009191166666666666
EXTRACT: note_on channel=6 note=52 velocity=64 time=0.12591898333333332
EXTRACT: note_on channel=6 note=40 velocity=70 time=0
EXTRACT: note_on channel=7 note=52 velocity=64 time=0.013786749999999999
EXTRACT: note_on channel=7 note=40 velocity=70 time=0
EXTRACT: note_on channel=6 note=57 velocity=0 time=0.00275735
EXTRACT: note_on channel=7 note=57 velocity=0 time=0.013786749999999999
EXTRACT: note_on channel=6 note=61 velocity=0 time=0.009191166666666667
EXTRACT: note_on channel=7 note=61 velocity=0 time=0.013786749999999999
EXTRACT: note_on channel=3 note=57 velocity=0 time=0.09099254999999999
EXTRACT: note_on channel=6 note=61 velocity=96 time=0.00275735
EXTRACT: note_on channel=6 note=57 velocity=62 time=0
EXTRACT: note_on channel=3 note=59 velocity=76 time=0.00827205
EXTRACT: note_on channel=7 note=61 velocity=96 time=0.0055147
EXTRACT: note_on channel=7 note=57 velocity=62 time=0
EXTRACT: note_on channel=6 note=61 velocity=0 time=0.15257336666666665
EXTRACT: note_on channel=7 note=61 velocity=0 time=0.013786749999999999
EXTRACT: note_on channel=6 note=57 velocity=0 time=0.0036764666666666665
EXTRACT: note_on channel=7 note=57 velocity=0 time=0.013786749999999999
EXTRACT: note_on channel=6 note=40 velocity=0 time=0.11397046666666666
EXTRACT: note_on channel=6 note=52 velocity=0 time=0.0018382333333333333
EXTRACT: note_on channel=7 note=40 velocity=0 time=0.011948516666666666
EXTRACT: note_on channel=7 note=52 velocity=0 time=0.0018382333333333333
EXTRACT: note_on channel=3 note=59 velocity=0 time=0.10569841666666666
EXTRACT: note_on channel=5 note=61 velocity=0 time=0.00827205
EXTRACT: note_on channel=5 note=57 velocity=0 time=0
EXTRACT: note_on channel=5 note=64 velocity=0 time=0
EXTRACT: note_on channel=5 note=52 velocity=1 time=0
EXTRACT: note_on channel=5 note=59 velocity=1 time=0
EXTRACT: note_on channel=5 note=56 velocity=1 time=0
EXTRACT: note_on channel=6 note=40 velocity=67 time=0
EXTRACT: note_on channel=6 note=59 velocity=77 time=0
EXTRACT: note_on channel=6 note=56 velocity=61 time=0
EXTRACT: note_on channel=6 note=52 velocity=70 time=0
EXTRACT: note_on channel=3 note=59 velocity=89 time=0.00827205
EXTRACT: note_on channel=7 note=40 velocity=67 time=0.0055147
EXTRACT: note_on channel=7 note=59 velocity=77 time=0
EXTRACT: note_on channel=7 note=56 velocity=61 time=0
EXTRACT: note_on channel=7 note=52 velocity=70 time=0
EXTRACT: control_change channel=6 control=64 value=0 time=0.05698523333333333
EXTRACT: control_change channel=7 control=64 value=0 time=0.013786749999999999
EXTRACT: note_on channel=3 note=59 velocity=0 time=0.11856604999999999
EXTRACT: note_on channel=3 note=54 velocity=89 time=0.03400731666666666
EXTRACT: control_change channel=6 control=64 value=127 time=0.1709557
EXTRACT: control_change channel=7 control=64 value=127 time=0.013786749999999999
EXTRACT: note_on channel=3 note=54 velocity=0 time=0.010110283333333333
EXTRACT: note_on channel=3 note=56 velocity=76 time=0.018382333333333334
EXTRACT: note_on channel=6 note=40 velocity=0 time=0.12499986666666667
EXTRACT: note_on channel=7 note=40 velocity=0 time=0.013786749999999999
EXTRACT: note_on channel=6 note=52 velocity=0 time=0.0165441
EXTRACT: note_on channel=7 note=52 velocity=0 time=0.013786749999999999
EXTRACT: note_on channel=3 note=56 velocity=0 time=0.03400731666666666
EXTRACT: note_on channel=3 note=54 velocity=76 time=0.011948516666666666
EXTRACT: note_on channel=6 note=40 velocity=81 time=0.06985286666666667
EXTRACT: note_on channel=7 note=40 velocity=81 time=0.013786749999999999
EXTRACT: note_on channel=1 note=28 velocity=0 time=0.09466901666666666
EXTRACT: note_on channel=3 note=54 velocity=0 time=0.02481615
EXTRACT: note_on channel=1 note=28 velocity=103 time=0.013786749999999999
EXTRACT: note_on channel=3 note=52 velocity=76 time=0.0055147
EXTRACT: note_on channel=6 note=56 velocity=0 time=0.2886026333333333
EXTRACT: note_on channel=6 note=52 velocity=76 time=0
EXTRACT: note_on channel=7 note=56 velocity=0 time=0.013786749999999999
EXTRACT: note_on channel=7 note=52 velocity=76 time=0
EXTRACT: note_on channel=6 note=59 velocity=0 time=0.019301449999999998
EXTRACT: note_on channel=7 note=59 velocity=0 time=0.013786749999999999
EXTRACT: note_on channel=1 note=28 velocity=0 time=0.05147053333333333
EXTRACT: note_on channel=3 note=52 velocity=0 time=0.03768378333333333
EXTRACT: note_on channel=1 note=28 velocity=98 time=0.0110294
EXTRACT: note_on channel=6 note=59 velocity=51 time=0
EXTRACT: note_on channel=6 note=56 velocity=79 time=0
EXTRACT: note_on channel=7 note=59 velocity=51 time=0.013786749999999999
EXTRACT: note_on channel=7 note=56 velocity=79 time=0
EXTRACT: note_on channel=6 note=52 velocity=0 time=0.38970546666666667
EXTRACT: note_on channel=7 note=52 velocity=0 time=0.013786749999999999
EXTRACT: note_on channel=6 note=40 velocity=0 time=0.0441176
EXTRACT: note_on channel=7 note=40 velocity=0 time=0.013786749999999999
EXTRACT: note_on channel=6 note=40 velocity=76 time=0.26011001666666667
EXTRACT: note_on channel=7 note=40 velocity=76 time=0.013786749999999999
EXTRACT: note_on channel=6 note=56 velocity=0 time=0.38143341666666664
EXTRACT: note_on channel=7 note=56 velocity=0 time=0.013786749999999999
EXTRACT: note_on channel=6 note=59 velocity=0 time=0.0496323
EXTRACT: note_on channel=7 note=59 velocity=0 time=0.013786749999999999
EXTRACT: note_on channel=6 note=52 velocity=101 time=0.1158087
EXTRACT: note_on channel=3 note=52 velocity=89 time=0.009191166666666667
EXTRACT: note_on channel=7 note=52 velocity=101 time=0.0045955833333333335
EXTRACT: note_on channel=6 note=54 velocity=107 time=0.42738925
EXTRACT: note_on channel=3 note=54 velocity=89 time=0.0064338166666666665
EXTRACT: note_on channel=3 note=52 velocity=0 time=0.007352933333333333
EXTRACT: note_on channel=7 note=54 velocity=107 time=0
EXTRACT: note_on channel=6 note=56 velocity=109 time=0.42738925
EXTRACT: note_on channel=3 note=56 velocity=84 time=0.0009191166666666666
EXTRACT: note_on channel=3 note=54 velocity=0 time=0.0018382333333333333
EXTRACT: note_on channel=6 note=54 velocity=0 time=0.0045955833333333335
EXTRACT: note_on channel=7 note=56 velocity=109 time=0.0064338166666666665
EXTRACT: note_on channel=7 note=54 velocity=0 time=0.007352933333333333
EXTRACT: note_on channel=6 note=56 velocity=0 time=0.07352933333333334
EXTRACT: note_on channel=7 note=56 velocity=0 time=0.013786749999999999
EXTRACT: note_on channel=6 note=40 velocity=0 time=0.13419103333333332
EXTRACT: note_on channel=6 note=52 velocity=0 time=0.012867633333333333
EXTRACT: note_on channel=7 note=40 velocity=0 time=0.0009191166666666666
EXTRACT: note_on channel=7 note=52 velocity=0 time=0.012867633333333333
EXTRACT: control_change channel=6 control=64 value=0 time=0.10294106666666666
EXTRACT: control_change channel=7 control=64 value=0 time=0.013786749999999999
EXTRACT: note_on channel=1 note=28 velocity=0 time=0.0441176
EXTRACT: note_on channel=5 note=52 velocity=0 time=0.0110294
EXTRACT: note_on channel=5 note=59 velocity=0 time=0
EXTRACT: note_on channel=5 note=56 velocity=0 time=0
EXTRACT: note_on channel=1 note=28 velocity=116 time=0
EXTRACT: note_on channel=5 note=64 velocity=1 time=0
EXTRACT: note_on channel=5 note=61 velocity=1 time=0
EXTRACT: note_on channel=5 note=57 velocity=1 time=0
EXTRACT: note_on channel=6 note=61 velocity=98 time=0
EXTRACT: note_on channel=6 note=40 velocity=75 time=0
EXTRACT: note_on channel=6 note=52 velocity=81 time=0
EXTRACT: note_on channel=6 note=57 velocity=79 time=0
EXTRACT: note_on channel=3 note=57 velocity=82 time=0.0009191166666666666
EXTRACT: note_on channel=3 note=56 velocity=0 time=0.0018382333333333333
EXTRACT: note_on channel=7 note=61 velocity=98 time=0.0110294
EXTRACT: note_on channel=7 note=40 velocity=75 time=0
EXTRACT: note_on channel=7 note=52 velocity=81 time=0
EXTRACT: note_on channel=7 note=57 velocity=79 time=0
EXTRACT: control_change channel=6 control=64 value=127 time=0.09191166666666667
EXTRACT: control_change channel=7 control=64 value=127 time=0.013786749999999999
EXTRACT: note_on channel=3 note=57 velocity=0 time=0.3216908333333333
EXTRACT: note_on channel=3 note=57 velocity=82 time=0.0064338166666666665
EXTRACT: note_on channel=6 note=40 velocity=0 time=0.12959545
EXTRACT: note_on channel=6 note=52 velocity=0 time=0.0110294
EXTRACT: note_on channel=7 note=40 velocity=0 time=0.00275735
EXTRACT: note_on channel=7 note=52 velocity=0 time=0.0110294
EXTRACT: note_on channel=6 note=40 velocity=94 time=0.13327191666666666
EXTRACT: note_on channel=7 note=40 velocity=94 time=0.013786749999999999
EXTRACT: note_on channel=6 note=57 velocity=0 time=0.011948516666666666
EXTRACT: note_on channel=6 note=61 velocity=0 time=0.00275735
EXTRACT: note_on channel=7 note=57 velocity=0 time=0.0110294
EXTRACT: note_on channel=7 note=61 velocity=0 time=0.00275735
EXTRACT: note_on channel=6 note=57 velocity=54 time=0.10477929999999999
EXTRACT: note_on channel=6 note=61 velocity=94 time=0
EXTRACT: note_on channel=3 note=57 velocity=0 time=0.0055147
EXTRACT: note_on channel=3 note=59 velocity=82 time=0.0009191166666666666
EXTRACT: note_on channel=7 note=57 velocity=54 time=0.007352933333333333
EXTRACT: note_on channel=7 note=61 velocity=94 time=0
EXTRACT: note_on channel=6 note=61 velocity=0 time=0.15073513333333333
EXTRACT: note_on channel=7 note=61 velocity=0 time=0.013786749999999999
EXTRACT: note_on channel=6 note=57 velocity=0 time=0.00827205
EXTRACT: note_on channel=7 note=57 velocity=0 time=0.013786749999999999
EXTRACT: note_on channel=3 note=59 velocity=0 time=0.23529386666666666
EXTRACT: note_on channel=5 note=64 velocity=0 time=0.0055147
EXTRACT: note_on channel=5 note=57 velocity=0 time=0
EXTRACT: note_on channel=5 note=61 velocity=0 time=0
EXTRACT: note_on channel=3 note=59 velocity=79 time=0
EXTRACT: note_on channel=5 note=52 velocity=1 time=0
EXTRACT: note_on channel=5 note=56 velocity=1 time=0
EXTRACT: note_on channel=5 note=59 velocity=1 time=0
EXTRACT: note_on channel=6 note=52 velocity=89 time=0
EXTRACT: note_on channel=6 note=56 velocity=85 time=0
EXTRACT: note_on channel=6 note=59 velocity=84 time=0
EXTRACT: note_on channel=7 note=52 velocity=89 time=0.013786749999999999
EXTRACT: note_on channel=7 note=56 velocity=85 time=0
EXTRACT: note_on channel=7 note=59 velocity=84 time=0
EXTRACT: control_change channel=6 control=64 value=0 time=0.11213223333333333
EXTRACT: control_change channel=7 control=64 value=0 time=0.013786749999999999
EXTRACT: note_on channel=3 note=59 velocity=0 time=0.07261021666666666
EXTRACT: note_on channel=3 note=54 velocity=79 time=0.011948516666666666
EXTRACT: control_change channel=6 control=64 value=115 time=0.1709557
EXTRACT: control_change channel=7 control=64 value=115 time=0.013786749999999999
EXTRACT: note_on channel=3 note=54 velocity=0 time=0.027573499999999997
EXTRACT: note_on channel=3 note=56 velocity=79 time=0.0045955833333333335
EXTRACT: note_on channel=6 note=40 velocity=0 time=0.17922775
EXTRACT: note_on channel=7 note=40 velocity=0 time=0.013786749999999999
EXTRACT: note_on channel=6 note=52 velocity=0 time=0.0055147
EXTRACT: note_on channel=7 note=52 velocity=0 time=0.013786749999999999
EXTRACT: note_on channel=3 note=56 velocity=0 time=0
EXTRACT: note_on channel=3 note=54 velocity=79 time=0.011948516666666666
EXTRACT: note_on channel=6 note=40 velocity=62 time=0.06985286666666667
EXTRACT: note_on channel=7 note=40 velocity=62 time=0.013786749999999999
EXTRACT: note_on channel=1 note=28 velocity=0 time=0.08731608333333334
EXTRACT: note_on channel=3 note=54 velocity=0 time=0.04136025
EXTRACT: note_on channel=1 note=28 velocity=101 time=0.0045955833333333335
EXTRACT: note_on channel=6 note=52 velocity=87 time=0
EXTRACT: note_on channel=3 note=56 velocity=79 time=0.0064338166666666665
EXTRACT: note_on channel=7 note=52 velocity=87 time=0.007352933333333333
EXTRACT: note_on channel=3 note=56 velocity=0 time=0.20496301666666666
EXTRACT: note_on channel=3 note=54 velocity=79 time=0.0220588
EXTRACT: note_on channel=6 note=56 velocity=0 time=0.0441176
EXTRACT: note_on channel=7 note=56 velocity=0 time=0.013786749999999999
EXTRACT: note_on channel=6 note=59 velocity=0 time=0.032169083333333334
EXTRACT: note_on channel=7 note=59 velocity=0 time=0.013786749999999999
EXTRACT: note_on channel=1 note=28 velocity=0 time=0.05422788333333333
EXTRACT: note_on channel=1 note=28 velocity=105 time=0.042279366666666665
EXTRACT: note_on channel=6 note=59 velocity=65 time=0
EXTRACT: note_on channel=6 note=56 velocity=84 time=0
EXTRACT: note_on channel=3 note=56 velocity=79 time=0.0064338166666666665
EXTRACT: note_on channel=3 note=54 velocity=0 time=0.0055147
EXTRACT: note_on channel=7 note=59 velocity=65 time=0.0018382333333333333
EXTRACT: note_on channel=7 note=56 velocity=84 time=0
EXTRACT: note_on channel=3 note=52 velocity=79 time=0.20496301666666666
EXTRACT: note_on channel=3 note=56 velocity=0 time=0.00827205
EXTRACT: note_on channel=6 note=52 velocity=0 time=0.021139683333333333
EXTRACT: note_on channel=7 note=52 velocity=0 time=0.013786749999999999
EXTRACT: note_on channel=6 note=40 velocity=0 time=0.032169083333333334
EXTRACT: note_on channel=7 note=40 velocity=0 time=0.013786749999999999
EXTRACT: note_on channel=3 note=52 velocity=0 time=0.3575363833333333
EXTRACT: note_on channel=6 note=40 velocity=77 time=0.06985286666666667
EXTRACT: note_on channel=7 note=40 velocity=77 time=0.013786749999999999
EXTRACT: control_change channel=2 control=123 value=0 time=0.330882
EXTRACT: control_change channel=2 control=120 value=0 time=0.0045955833333333335
EXTRACT: control_change channel=2 control=121 value=0 time=0.0045955833333333335
EXTRACT: control_change channel=2 control=7 value=127 time=0.0045955833333333335
EXTRACT: control_change channel=3 control=123 value=0 time=0.0045955833333333335
EXTRACT: control_change channel=3 control=120 value=0 time=0.0045955833333333335
EXTRACT: note_on channel=3 note=47 velocity=79 time=0.0009191166666666666
EXTRACT: control_change channel=3 control=121 value=0 time=0.0036764666666666665
EXTRACT: control_change channel=3 control=7 value=127 time=0.0045955833333333335
EXTRACT: control_change channel=4 control=123 value=0 time=0.0045955833333333335
EXTRACT: control_change channel=4 control=120 value=0 time=0.0045955833333333335
EXTRACT: control_change channel=4 control=121 value=0 time=0.0045955833333333335
EXTRACT: control_change channel=4 control=7 value=127 time=0.0045955833333333335
EXTRACT: control_change channel=8 control=123 value=0 time=0.05974258333333333
EXTRACT: control_change channel=8 control=120 value=0 time=0.0045955833333333335
EXTRACT: control_change channel=8 control=121 value=0 time=0.0045955833333333335
EXTRACT: control_change channel=8 control=7 value=127 time=0.0045955833333333335
EXTRACT: control_change channel=10 control=123 value=0 time=0.022977916666666667
EXTRACT: control_change channel=10 control=120 value=0 time=0.0045955833333333335
EXTRACT: control_change channel=10 control=121 value=0 time=0.0045955833333333335
EXTRACT: control_change channel=10 control=7 value=127 time=0.0045955833333333335
EXTRACT: control_change channel=11 control=123 value=0 time=0.0045955833333333335
EXTRACT: control_change channel=11 control=120 value=0 time=0.0045955833333333335
EXTRACT: control_change channel=11 control=121 value=0 time=0.0045955833333333335
EXTRACT: control_change channel=11 control=7 value=127 time=0.0045955833333333335
EXTRACT: note_on channel=3 note=47 velocity=0 time=0.05698523333333333
EXTRACT: note_on channel=3 note=56 velocity=107 time=0.015624983333333333
EXTRACT: note_on channel=7 note=59 velocity=0 time=0.0055147
EXTRACT: note_on channel=7 note=40 velocity=0 time=0
EXTRACT: note_on channel=6 note=56 velocity=0 time=0
EXTRACT: note_on channel=5 note=59 velocity=0 time=0
EXTRACT: note_on channel=5 note=52 velocity=0 time=0
EXTRACT: note_on channel=6 note=59 velocity=0 time=0
EXTRACT: note_on channel=7 note=56 velocity=0 time=0
EXTRACT: note_on channel=6 note=40 velocity=0 time=0
EXTRACT: note_on channel=5 note=56 velocity=0 time=0
EXTRACT: note_on channel=6 note=56 velocity=112 time=0
EXTRACT: note_on channel=7 note=56 velocity=112 time=0.013786749999999999
EXTRACT: note_on channel=3 note=56 velocity=0 time=0.19393361666666667
EXTRACT: note_on channel=3 note=54 velocity=107 time=0.015624983333333333
EXTRACT: note_on channel=6 note=56 velocity=0 time=0.21047771666666665
EXTRACT: note_on channel=6 note=54 velocity=116 time=0.007352933333333333
EXTRACT: note_on channel=6 note=59 velocity=98 time=0
EXTRACT: note_on channel=7 note=56 velocity=0 time=0.0064338166666666665
EXTRACT: note_on channel=7 note=54 velocity=116 time=0.007352933333333333
EXTRACT: note_on channel=7 note=59 velocity=98 time=0
EXTRACT: note_on channel=3 note=54 velocity=0 time=0.20128654999999998
EXTRACT: note_on channel=3 note=52 velocity=107 time=0.2150733
EXTRACT: note_on channel=1 note=28 velocity=0 time=0.0009191166666666666
EXTRACT: note_on channel=6 note=54 velocity=0 time=0.0018382333333333333
EXTRACT: note_on channel=1 note=40 velocity=85 time=0.00827205
EXTRACT: note_on channel=6 note=56 velocity=81 time=0
EXTRACT: note_on channel=6 note=52 velocity=112 time=0
EXTRACT: note_on channel=7 note=54 velocity=0 time=0.0055147
EXTRACT: note_on channel=7 note=56 velocity=81 time=0.00827205
EXTRACT: note_on channel=7 note=52 velocity=112 time=0
EXTRACT: note_on channel=6 note=59 velocity=0 time=0.09558813333333332
EXTRACT: note_on channel=7 note=59 velocity=0 time=0.013786749999999999
EXTRACT: note_on channel=3 note=52 velocity=0 time=0.08455873333333333
EXTRACT: note_on channel=3 note=54 velocity=107 time=0.0045955833333333335
EXTRACT: control_change channel=6 control=64 value=0 time=0.16636011666666667
EXTRACT: control_change channel=7 control=64 value=0 time=0.013786749999999999
EXTRACT: note_on channel=6 note=56 velocity=0 time=0.031249966666666667
EXTRACT: note_on channel=7 note=56 velocity=0 time=0.013786749999999999
EXTRACT: note_on channel=1 note=35 velocity=94 time=0.0036764666666666665
EXTRACT: note_on channel=5 note=66 velocity=1 time=0
EXTRACT: note_on channel=5 note=63 velocity=1 time=0
EXTRACT: note_on channel=5 note=59 velocity=1 time=0
EXTRACT: note_on channel=6 note=47 velocity=51 time=0
EXTRACT: note_on channel=6 note=64 velocity=75 time=0
EXTRACT: note_on channel=6 note=54 velocity=91 time=0
EXTRACT: note_on channel=6 note=59 velocity=70 time=0
EXTRACT: note_on channel=7 note=47 velocity=51 time=0.013786749999999999
EXTRACT: note_on channel=7 note=64 velocity=75 time=0
EXTRACT: note_on channel=7 note=54 velocity=91 time=0
EXTRACT: note_on channel=7 note=59 velocity=70 time=0
EXTRACT: note_on channel=6 note=52 velocity=0 time=0.0018382333333333333
EXTRACT: note_on channel=7 note=52 velocity=0 time=0.013786749999999999
EXTRACT: note_on channel=1 note=40 velocity=0 time=0.0055147
EXTRACT: note_on channel=3 note=54 velocity=0 time=0.16911746666666666
EXTRACT: note_on channel=6 note=47 velocity=0 time=0.25643355
EXTRACT: note_on channel=7 note=47 velocity=0 time=0.013786749999999999
EXTRACT: note_on channel=6 note=54 velocity=0 time=0.04319848333333333
EXTRACT: note_on channel=7 note=54 velocity=0 time=0.013786749999999999
EXTRACT: note_on channel=6 note=47 velocity=63 time=0.2040439
EXTRACT: note_on channel=7 note=47 velocity=63 time=0.013786749999999999
EXTRACT: note_on channel=6 note=54 velocity=98 time=0.13327191666666666
EXTRACT: note_on channel=7 note=54 velocity=98 time=0.013786749999999999
EXTRACT: note_on channel=6 note=59 velocity=0 time=0.021139683333333333
EXTRACT: note_on channel=6 note=64 velocity=0 time=0.0055147
EXTRACT: note_on channel=7 note=59 velocity=0 time=0.00827205
EXTRACT: note_on channel=7 note=64 velocity=0 time=0.0055147
EXTRACT: note_on channel=1 note=35 velocity=0 time=0.27757323333333334
EXTRACT: note_on channel=1 note=30 velocity=91 time=0.10937488333333333
EXTRACT: note_on channel=6 note=64 velocity=73 time=0
EXTRACT: note_on channel=6 note=59 velocity=68 time=0
EXTRACT: note_on channel=7 note=64 velocity=73 time=0.013786749999999999
EXTRACT: note_on channel=7 note=59 velocity=68 time=0
EXTRACT: note_on channel=6 note=47 velocity=0 time=0.46415391666666667
EXTRACT: note_on channel=7 note=47 velocity=0 time=0.013786749999999999
EXTRACT: note_on channel=6 note=54 velocity=0 time=0.010110283333333333
EXTRACT: note_on channel=7 note=54 velocity=0 time=0.013786749999999999
EXTRACT: note_on channel=6 note=47 velocity=49 time=0.21966888333333331
EXTRACT: note_on channel=7 note=47 velocity=49 time=0.013786749999999999
EXTRACT: note_on channel=6 note=59 velocity=0 time=0.08180138333333332
EXTRACT: note_on channel=7 note=59 velocity=0 time=0.013786749999999999
EXTRACT: note_on channel=6 note=64 velocity=0 time=0.022977916666666667
EXTRACT: note_on channel=7 note=64 velocity=0 time=0.013786749999999999
EXTRACT: note_on channel=6 note=54 velocity=93 time=0.0009191166666666666
EXTRACT: note_on channel=7 note=54 velocity=93 time=0.013786749999999999
EXTRACT: note_on channel=1 note=35 velocity=94 time=0.4209554333333333
EXTRACT: note_on channel=1 note=30 velocity=0 time=0.0036764666666666665
EXTRACT: note_on channel=6 note=63 velocity=82 time=0.00275735
EXTRACT: note_on channel=6 note=59 velocity=82 time=0
EXTRACT: note_on channel=7 note=63 velocity=82 time=0.013786749999999999
EXTRACT: note_on channel=7 note=59 velocity=82 time=0
EXTRACT: note_on channel=3 note=59 velocity=79 time=1.0799620833333332
EXTRACT: note_on channel=3 note=59 velocity=0 time=0.20588213333333333
EXTRACT: note_on channel=9 note=50 velocity=111 time=0.012867633333333333
EXTRACT: note_on channel=9 note=38 velocity=90 time=0.0036764666666666665
EXTRACT: note_on channel=3 note=68 velocity=79 time=0.0018382333333333333
EXTRACT: note_on channel=9 note=50 velocity=112 time=0.014705866666666666
EXTRACT: note_on channel=9 note=50 velocity=0 time=0.0606617
EXTRACT: note_on channel=9 note=38 velocity=0 time=0.0220588
EXTRACT: note_on channel=3 note=68 velocity=0 time=0.10845576666666666
EXTRACT: note_on channel=3 note=66 velocity=79 time=0.0110294
EXTRACT: note_on channel=9 note=50 velocity=0 time=0.0496323
EXTRACT: note_on channel=1 note=35 velocity=0 time=0.17187481666666665
EXTRACT: note_on channel=9 note=47 velocity=112 time=0
EXTRACT: note_on channel=9 note=47 velocity=0 time=0.25551443333333335
EXTRACT: note_on channel=9 note=38 velocity=90 time=0.05055141666666666
EXTRACT: note_on channel=9 note=38 velocity=0 time=0.0992646
EXTRACT: note_on channel=3 note=66 velocity=0 time=0.021139683333333333
EXTRACT: note_on channel=3 note=64 velocity=79 time=0.0110294
EXTRACT: note_on channel=9 note=43 velocity=112 time=0.0036764666666666665
EXTRACT: note_on channel=9 note=43 velocity=0 time=0.25091884999999997
EXTRACT: note_on channel=6 note=63 velocity=0 time=0.14705866666666667
EXTRACT: note_on channel=7 note=63 velocity=0 time=0.013786749999999999
EXTRACT: note_on channel=6 note=59 velocity=0 time=0.0036764666666666665
EXTRACT: note_on channel=3 note=64 velocity=0 time=0.0055147
EXTRACT: note_on channel=6 note=54 velocity=0 time=0.0036764666666666665
EXTRACT: note_on channel=7 note=59 velocity=0 time=0.0045955833333333335
EXTRACT: note_on channel=7 note=54 velocity=0 time=0
EXTRACT: note_on channel=6 note=45 velocity=66 time=0
EXTRACT: note_on channel=6 note=52 velocity=76 time=0
EXTRACT: note_on channel=6 note=68 velocity=77 time=0
EXTRACT: note_on channel=6 note=57 velocity=68 time=0
EXTRACT: note_on channel=7 note=45 velocity=66 time=0
EXTRACT: note_on channel=7 note=52 velocity=76 time=0
EXTRACT: note_on channel=7 note=68 velocity=77 time=0
EXTRACT: note_on channel=7 note=57 velocity=68 time=0
EXTRACT: note_on channel=9 note=36 velocity=89 time=0.0018382333333333333
EXTRACT: note_on channel=9 note=82 velocity=50 time=0
EXTRACT: note_on channel=1 note=33 velocity=94 time=0.00275735
EXTRACT: note_on channel=9 note=51 velocity=83 time=0.00275735
EXTRACT: note_on channel=6 note=47 velocity=0 time=0.0009191166666666666
EXTRACT: note_on channel=3 note=64 velocity=79 time=0
EXTRACT: note_on channel=5 note=66 velocity=0 time=0.00275735
EXTRACT: note_on channel=5 note=59 velocity=0 time=0
EXTRACT: note_on channel=5 note=63 velocity=0 time=0
EXTRACT: note_on channel=7 note=47 velocity=0 time=0.0110294
EXTRACT: note_on channel=9 note=82 velocity=0 time=0.07904403333333333
EXTRACT: note_on channel=9 note=51 velocity=0 time=0.0055147
EXTRACT: note_on channel=9 note=36 velocity=0 time=0.1158087
EXTRACT: note_on channel=9 note=82 velocity=50 time=0.06893375
EXTRACT: note_on channel=9 note=82 velocity=0 time=0.055146999999999995
EXTRACT: note_on channel=6 note=68 velocity=0 time=0.08363961666666667
EXTRACT: note_on channel=7 note=68 velocity=0 time=0
EXTRACT: note_on channel=6 note=68 velocity=42 time=0.0110294
EXTRACT: note_on channel=7 note=68 velocity=42 time=0
EXTRACT: note_on channel=9 note=82 velocity=50 time=0.0045955833333333335
EXTRACT: note_on channel=9 note=51 velocity=73 time=0.0055147
EXTRACT: note_on channel=3 note=64 velocity=0 time=0.0036764666666666665
EXTRACT: note_on channel=9 note=82 velocity=0 time=0.08639696666666666
EXTRACT: note_on channel=9 note=51 velocity=0 time=0.0055147
EXTRACT: note_on channel=9 note=82 velocity=50 time=0.18658068333333333
EXTRACT: note_on channel=9 note=82 velocity=0 time=0.055146999999999995
EXTRACT: note_on channel=7 note=52 velocity=0 time=0.06433816666666667
EXTRACT: note_on channel=6 note=52 velocity=0 time=0
EXTRACT: note_on channel=7 note=68 velocity=0 time=0.029411733333333332
EXTRACT: note_on channel=6 note=68 velocity=0 time=0
EXTRACT: note_on channel=6 note=52 velocity=51 time=0
EXTRACT: note_on channel=6 note=68 velocity=51 time=0
EXTRACT: note_on channel=7 note=52 velocity=51 time=0
EXTRACT: note_on channel=7 note=68 velocity=51 time=0
EXTRACT: note_on channel=9 note=82 velocity=50 time=0.0045955833333333335
EXTRACT: note_on channel=6 note=57 velocity=0 time=0.00275735
EXTRACT: note_on channel=7 note=57 velocity=0 time=0
EXTRACT: note_on channel=6 note=57 velocity=46 time=0
EXTRACT: note_on channel=7 note=57 velocity=46 time=0
EXTRACT: note_on channel=9 note=51 velocity=74 time=0.00275735
EXTRACT: note_on channel=9 note=82 velocity=0 time=0.09007343333333333
EXTRACT: note_on channel=9 note=51 velocity=0 time=0.0055147
EXTRACT: note_on channel=6 note=57 velocity=0 time=0.08180138333333332
EXTRACT: note_on channel=7 note=57 velocity=0 time=0
EXTRACT: note_on channel=6 note=57 velocity=51 time=0.0330882
EXTRACT: note_on channel=7 note=57 velocity=51 time=0
EXTRACT: note_on channel=9 note=82 velocity=50 time=0.07077198333333333
EXTRACT: note_on channel=9 note=82 velocity=0 time=0.055146999999999995
EXTRACT: note_on channel=7 note=52 velocity=0 time=0.04687495
EXTRACT: note_on channel=6 note=52 velocity=0 time=0
EXTRACT: note_on channel=6 note=57 velocity=0 time=0.0036764666666666665
EXTRACT: note_on channel=7 note=57 velocity=0 time=0
EXTRACT: note_on channel=7 note=68 velocity=0 time=0.007352933333333333
EXTRACT: note_on channel=6 note=68 velocity=0 time=0
EXTRACT: note_on channel=6 note=52 velocity=61 time=0.03676466666666667
EXTRACT: note_on channel=6 note=68 velocity=76 time=0
EXTRACT: note_on channel=6 note=57 velocity=82 time=0
EXTRACT: note_on channel=7 note=52 velocity=61 time=0
EXTRACT: note_on channel=7 note=68 velocity=76 time=0
EXTRACT: note_on channel=7 note=57 velocity=82 time=0
EXTRACT: note_on channel=9 note=82 velocity=50 time=0.0036764666666666665
EXTRACT: note_on channel=3 note=64 velocity=79 time=0.0018382333333333333
EXTRACT: note_on channel=9 note=44 velocity=82 time=0.0009191166666666666
EXTRACT: note_on channel=9 note=38 velocity=90 time=0.00275735
EXTRACT: note_on channel=9 note=51 velocity=79 time=0
EXTRACT: note_on channel=9 note=82 velocity=0 time=0.0937499
EXTRACT: note_on channel=9 note=38 velocity=0 time=0.0018382333333333333
EXTRACT: note_on channel=9 note=51 velocity=0 time=0.0036764666666666665
EXTRACT: note_on channel=9 note=44 velocity=0 time=0.11856604999999999
EXTRACT: note_on channel=9 note=82 velocity=50 time=0.04871318333333333
EXTRACT: note_on channel=9 note=82 velocity=0 time=0.055146999999999995
EXTRACT: note_on channel=7 note=68 velocity=0 time=0.062499933333333334
EXTRACT: note_on channel=6 note=68 velocity=0 time=0
EXTRACT: note_on channel=6 note=52 velocity=0 time=0.0036764666666666665
EXTRACT: note_on channel=7 note=52 velocity=0 time=0
EXTRACT: note_on channel=3 note=64 velocity=0 time=0.0330882
EXTRACT: note_on channel=6 note=52 velocity=45 time=0.0110294
EXTRACT: note_on channel=6 note=68 velocity=29 time=0
EXTRACT: note_on channel=7 note=52 velocity=45 time=0
EXTRACT: note_on channel=7 note=68 velocity=29 time=0
EXTRACT: note_on channel=9 note=82 velocity=50 time=0.0018382333333333333
EXTRACT: note_on channel=9 note=51 velocity=59 time=0.0055147
EXTRACT: note_on channel=9 note=82 velocity=0 time=0.09007343333333333
EXTRACT: note_on channel=9 note=51 velocity=0 time=0.0055147
EXTRACT: note_on channel=7 note=57 velocity=0 time=0.07352933333333334
EXTRACT: note_on channel=6 note=57 velocity=0 time=0
EXTRACT: note_on channel=6 note=45 velocity=0 time=0.014705866666666666
EXTRACT: note_on channel=7 note=45 velocity=0 time=0
EXTRACT: note_on channel=6 note=45 velocity=47 time=0.029411733333333332
EXTRACT: note_on channel=6 note=57 velocity=34 time=0
EXTRACT: note_on channel=7 note=45 velocity=47 time=0
EXTRACT: note_on channel=7 note=57 velocity=34 time=0
EXTRACT: note_on channel=9 note=82 velocity=50 time=0.08731608333333334
EXTRACT: note_on channel=9 note=82 velocity=0 time=0.055146999999999995
EXTRACT: note_on channel=7 note=57 velocity=0 time=0.03033085
EXTRACT: note_on channel=6 note=57 velocity=0 time=0
EXTRACT: note_on channel=7 note=52 velocity=0 time=0.007352933333333333
EXTRACT: note_on channel=6 note=52 velocity=0 time=0
EXTRACT: note_on channel=7 note=45 velocity=0 time=0.018382333333333334
EXTRACT: note_on channel=6 note=45 velocity=0 time=0
EXTRACT: note_on channel=7 note=68 velocity=0 time=0.0110294
EXTRACT: note_on channel=6 note=68 velocity=0 time=0
EXTRACT: note_on channel=6 note=45 velocity=31 time=0.0110294
EXTRACT: note_on channel=6 note=52 velocity=37 time=0
EXTRACT: note_on channel=6 note=68 velocity=41 time=0
EXTRACT: note_on channel=6 note=57 velocity=44 time=0
EXTRACT: note_on channel=7 note=45 velocity=31 time=0
EXTRACT: note_on channel=7 note=52 velocity=37 time=0
EXTRACT: note_on channel=7 note=68 velocity=41 time=0
EXTRACT: note_on channel=7 note=57 velocity=44 time=0
EXTRACT: note_on channel=9 note=82 velocity=50 time=0.0018382333333333333
EXTRACT: note_on channel=9 note=51 velocity=74 time=0.0055147
EXTRACT: note_on channel=9 note=82 velocity=0 time=0.09007343333333333
EXTRACT: note_on channel=9 note=51 velocity=0 time=0.0055147
EXTRACT: note_on channel=6 note=57 velocity=0 time=0.0882352
EXTRACT: note_on channel=7 note=57 velocity=0 time=0
EXTRACT: note_on channel=6 note=57 velocity=37 time=0.03676466666666667
EXTRACT: note_on channel=7 note=57 velocity=37 time=0
EXTRACT: note_on channel=9 note=82 velocity=50 time=0.07996315
EXTRACT: note_on channel=9 note=82 velocity=0 time=0.055146999999999995
EXTRACT: note_on channel=1 note=33 velocity=0 time=0.0220588
EXTRACT: note_on channel=6 note=68 velocity=0 time=0.03400731666666666
EXTRACT: note_on channel=7 note=68 velocity=0 time=0
EXTRACT: note_on channel=7 note=45 velocity=0 time=0.0036764666666666665
EXTRACT: note_on channel=6 note=52 velocity=0 time=0
EXTRACT: note_on channel=6 note=57 velocity=0 time=0
EXTRACT: note_on channel=7 note=57 velocity=0 time=0
EXTRACT: note_on channel=7 note=52 velocity=0 time=0
EXTRACT: note_on channel=6 note=45 velocity=0 time=0
EXTRACT: note_on channel=3 note=64 velocity=79 time=0.017463216666666666
EXTRACT: note_on channel=6 note=40 velocity=78 time=0.0009191166666666666
EXTRACT: note_on channel=6 note=47 velocity=63 time=0
EXTRACT: note_on channel=6 note=64 velocity=75 time=0
EXTRACT: note_on channel=6 note=59 velocity=78 time=0
EXTRACT: note_on channel=7 note=40 velocity=78 time=0
EXTRACT: note_on channel=7 note=47 velocity=63 time=0
EXTRACT: note_on channel=7 note=64 velocity=75 time=0
EXTRACT: note_on channel=7 note=59 velocity=78 time=0
EXTRACT: note_on channel=9 note=36 velocity=104 time=0.0009191166666666666
EXTRACT: note_on channel=9 note=82 velocity=50 time=0.0009191166666666666
EXTRACT: note_on channel=1 note=40 velocity=94 time=0.00275735
EXTRACT: note_on channel=9 note=51 velocity=60 time=0.00275735
EXTRACT: note_on channel=9 note=82 velocity=0 time=0.0937499
EXTRACT: note_on channel=9 note=51 velocity=0 time=0.0055147
EXTRACT: note_on channel=9 note=36 velocity=0 time=0.11488958333333332
EXTRACT: note_on channel=9 note=82 velocity=50 time=0.08639696666666666
EXTRACT: note_on channel=9 note=82 velocity=0 time=0.055146999999999995
EXTRACT: note_on channel=3 note=64 velocity=0 time=0.0606617
EXTRACT: note_on channel=7 note=59 velocity=0 time=0.0064338166666666665
EXTRACT: note_on channel=6 note=59 velocity=0 time=0
EXTRACT: note_on channel=6 note=56 velocity=41 time=0.0110294
EXTRACT: note_on channel=7 note=56 velocity=41 time=0
EXTRACT: note_on channel=9 note=82 velocity=50 time=0.0009191166666666666
EXTRACT: note_on channel=9 note=51 velocity=67 time=0.0055147
EXTRACT: note_on channel=7 note=64 velocity=0 time=0.011948516666666666
EXTRACT: note_on channel=6 note=64 velocity=0 time=0
EXTRACT: note_on channel=6 note=64 velocity=41 time=0
EXTRACT: note_on channel=7 note=64 velocity=41 time=0
EXTRACT: note_on channel=9 note=82 velocity=0 time=0.08180138333333332
EXTRACT: note_on channel=9 note=51 velocity=0 time=0.0055147
EXTRACT: note_on channel=6 note=64 velocity=0 time=0.08915431666666666
EXTRACT: note_on channel=7 note=64 velocity=0 time=0
EXTRACT: note_on channel=6 note=64 velocity=56 time=0.025735266666666666
EXTRACT: note_on channel=7 note=64 velocity=56 time=0
EXTRACT: note_on channel=9 note=82 velocity=50 time=0.08731608333333334
EXTRACT: note_on channel=9 note=82 velocity=0 time=0.055146999999999995
EXTRACT: note_on channel=6 note=56 velocity=0 time=0.06341904999999999
EXTRACT: note_on channel=7 note=56 velocity=0 time=0
EXTRACT: note_on channel=6 note=64 velocity=0 time=0.014705866666666666
EXTRACT: note_on channel=7 note=64 velocity=0 time=0
EXTRACT: note_on channel=6 note=56 velocity=53 time=0
EXTRACT: note_on channel=6 note=64 velocity=72 time=0
EXTRACT: note_on channel=7 note=56 velocity=53 time=0
EXTRACT: note_on channel=7 note=64 velocity=72 time=0
EXTRACT: note_on channel=9 note=82 velocity=50 time=0.0018382333333333333
EXTRACT: note_on channel=9 note=51 velocity=57 time=0.0055147
EXTRACT: note_on channel=9 note=82 velocity=0 time=0.09007343333333333
EXTRACT: note_on channel=9 note=51 velocity=0 time=0.0055147
EXTRACT: note_on channel=6 note=64 velocity=0 time=0.09191166666666667
EXTRACT: note_on channel=7 note=64 velocity=0 time=0
EXTRACT: note_on channel=6 note=64 velocity=50 time=0.025735266666666666
EXTRACT: note_on channel=7 note=64 velocity=50 time=0
EXTRACT: note_on channel=9 note=82 velocity=50 time=0.08731608333333334
EXTRACT: note_on channel=9 note=82 velocity=0 time=0.055146999999999995
EXTRACT: note_on channel=6 note=40 velocity=0 time=0.03033085
EXTRACT: note_on channel=7 note=40 velocity=0 time=0
EXTRACT: note_on channel=7 note=56 velocity=0 time=0.0036764666666666665
EXTRACT: note_on channel=6 note=56 velocity=0 time=0
EXTRACT: note_on channel=7 note=64 velocity=0 time=0.0036764666666666665
EXTRACT: note_on channel=6 note=64 velocity=0 time=0
EXTRACT: note_on channel=9 note=82 velocity=50 time=0.03676466666666667
EXTRACT: note_on channel=6 note=64 velocity=75 time=0.0036764666666666665
EXTRACT: note_on channel=6 note=40 velocity=50 time=0
EXTRACT: note_on channel=6 note=59 velocity=77 time=0
EXTRACT: note_on channel=7 note=64 velocity=75 time=0
EXTRACT: note_on channel=7 note=40 velocity=50 time=0
EXTRACT: note_on channel=7 note=59 velocity=77 time=0
EXTRACT: note_on channel=9 note=51 velocity=69 time=0.0018382333333333333
EXTRACT: note_on channel=9 note=38 velocity=90 time=0.0018382333333333333
EXTRACT: note_on channel=3 note=68 velocity=79 time=0.0018382333333333333
EXTRACT: note_on channel=9 note=82 velocity=0 time=0.09007343333333333
EXTRACT: note_on channel=9 note=51 velocity=0 time=0.0055147
EXTRACT: note_on channel=9 note=38 velocity=0 time=0.0018382333333333333
EXTRACT: note_on channel=9 note=82 velocity=50 time=0.20496301666666666
EXTRACT: note_on channel=9 note=82 velocity=0 time=0.055146999999999995
EXTRACT: note_on channel=6 note=64 velocity=0 time=0.056066116666666665
EXTRACT: note_on channel=7 note=64 velocity=0 time=0
EXTRACT: note_on channel=3 note=68 velocity=0 time=0.015624983333333333
EXTRACT: note_on channel=9 note=82 velocity=50 time=0.0045955833333333335
EXTRACT: note_on channel=9 note=51 velocity=91 time=0.0055147
EXTRACT: note_on channel=3 note=66 velocity=79 time=0.0018382333333333333
EXTRACT: note_on channel=6 note=64 velocity=50 time=0.0018382333333333333
EXTRACT: note_on channel=7 note=64 velocity=50 time=0
EXTRACT: note_on channel=9 note=82 velocity=0 time=0.09007343333333333
EXTRACT: note_on channel=9 note=51 velocity=0 time=0.0055147
EXTRACT: note_on channel=6 note=64 velocity=0 time=0.07720579999999999
EXTRACT: note_on channel=7 note=64 velocity=0 time=0
EXTRACT: note_on channel=6 note=64 velocity=47 time=0.04044113333333333
EXTRACT: note_on channel=7 note=64 velocity=47 time=0
EXTRACT: note_on channel=9 note=82 velocity=50 time=0.08731608333333334
EXTRACT: note_on channel=9 note=38 velocity=90 time=0.0009191166666666666
EXTRACT: note_on channel=9 note=82 velocity=0 time=0.05422788333333333
EXTRACT: note_on channel=7 note=64 velocity=0 time=0.04136025
EXTRACT: note_on channel=6 note=59 velocity=0 time=0
EXTRACT: note_on channel=7 note=59 velocity=0 time=0
EXTRACT: note_on channel=6 note=64 velocity=0 time=0
EXTRACT: note_on channel=9 note=38 velocity=0 time=0.0036764666666666665
EXTRACT: note_on channel=3 note=66 velocity=0 time=0.026654383333333333
EXTRACT: note_on channel=9 note=82 velocity=50 time=0.0036764666666666665
EXTRACT: note_on channel=9 note=51 velocity=76 time=0.0055147
EXTRACT: note_on channel=3 note=64 velocity=79 time=0.00275735
EXTRACT: note_on channel=6 note=64 velocity=74 time=0.0018382333333333333
EXTRACT: note_on channel=7 note=64 velocity=74 time=0
EXTRACT: note_on channel=6 note=56 velocity=80 time=0.0036764666666666665
EXTRACT: note_on channel=7 note=56 velocity=80 time=0
EXTRACT: note_on channel=9 note=82 velocity=0 time=0.08547785
EXTRACT: note_on channel=9 note=51 velocity=0 time=0.0055147
EXTRACT: note_on channel=7 note=64 velocity=0 time=0.07812491666666667
EXTRACT: note_on channel=6 note=64 velocity=0 time=0
EXTRACT: note_on channel=6 note=64 velocity=68 time=0.04044113333333333
EXTRACT: note_on channel=7 note=64 velocity=68 time=0
EXTRACT: note_on channel=9 note=82 velocity=50 time=0.08731608333333334
EXTRACT: note_on channel=9 note=82 velocity=0 time=0.055146999999999995
EXTRACT: note_on channel=1 note=40 velocity=0 time=0.0220588
EXTRACT: note_on channel=6 note=40 velocity=0 time=0.0045955833333333335
EXTRACT: note_on channel=7 note=40 velocity=0 time=0
EXTRACT: note_on channel=6 note=56 velocity=0 time=0.018382333333333334
EXTRACT: note_on channel=7 note=56 velocity=0 time=0
EXTRACT: note_on channel=7 note=47 velocity=0 time=0.0036764666666666665
EXTRACT: note_on channel=6 note=47 velocity=0 time=0
EXTRACT: note_on channel=6 note=64 velocity=0 time=0.0036764666666666665
EXTRACT: note_on channel=7 note=64 velocity=0 time=0
EXTRACT: note_on channel=3 note=64 velocity=0 time=0.019301449999999998
EXTRACT: note_on channel=6 note=49 velocity=66 time=0.0064338166666666665
EXTRACT: note_on channel=6 note=56 velocity=76 time=0
EXTRACT: note_on channel=6 note=71 velocity=77 time=0
EXTRACT: note_on channel=6 note=61 velocity=68 time=0
EXTRACT: note_on channel=7 note=49 velocity=66 time=0
EXTRACT: note_on channel=7 note=56 velocity=76 time=0
EXTRACT: note_on channel=7 note=71 velocity=77 time=0
EXTRACT: note_on channel=7 note=61 velocity=68 time=0
EXTRACT: note_on channel=9 note=36 velocity=89 time=0.0018382333333333333
EXTRACT: note_on channel=9 note=82 velocity=50 time=0
EXTRACT: note_on channel=1 note=37 velocity=94 time=0.00275735
EXTRACT: note_on channel=3 note=64 velocity=79 time=0.0009191166666666666
EXTRACT: note_on channel=9 note=51 velocity=83 time=0.0018382333333333333
EXTRACT: note_on channel=9 note=82 velocity=0 time=0.0937499
EXTRACT: note_on channel=9 note=51 velocity=0 time=0.0055147
EXTRACT: note_on channel=3 note=61 velocity=79 time=0.08363961666666667
EXTRACT: note_on channel=3 note=64 velocity=0 time=0.0110294
EXTRACT: note_on channel=9 note=36 velocity=0 time=0.021139683333333333
EXTRACT: note_on channel=9 note=82 velocity=50 time=0.08547785
EXTRACT: note_on channel=9 note=82 velocity=0 time=0.055146999999999995
EXTRACT: note_on channel=7 note=71 velocity=0 time=0.06709551666666666
EXTRACT: note_on channel=6 note=71 velocity=0 time=0
EXTRACT: note_on channel=6 note=71 velocity=42 time=0.0110294
EXTRACT: note_on channel=7 note=71 velocity=42 time=0
EXTRACT: note_on channel=9 note=82 velocity=50 time=0.0045955833333333335
EXTRACT: note_on channel=9 note=51 velocity=73 time=0.0055147
EXTRACT: note_on channel=9 note=82 velocity=0 time=0.09007343333333333
EXTRACT: note_on channel=9 note=51 velocity=0 time=0.0055147
EXTRACT: note_on channel=3 note=61 velocity=0 time=0.07261021666666666
EXTRACT: note_on channel=9 note=82 velocity=50 time=0.12959545
EXTRACT: note_on channel=9 note=82 velocity=0 time=0.055146999999999995
EXTRACT: note_on channel=6 note=56 velocity=0 time=0.04871318333333333
EXTRACT: note_on channel=7 note=56 velocity=0 time=0
EXTRACT: note_on channel=7 note=71 velocity=0 time=0.029411733333333332
EXTRACT: note_on channel=6 note=71 velocity=0 time=0
EXTRACT: note_on channel=6 note=56 velocity=51 time=0
EXTRACT: note_on channel=6 note=71 velocity=51 time=0
EXTRACT: note_on channel=7 note=56 velocity=51 time=0
EXTRACT: note_on channel=7 note=71 velocity=51 time=0
EXTRACT: note_on channel=9 note=82 velocity=50 time=0.0045955833333333335
EXTRACT: note_on channel=7 note=61 velocity=0 time=0.00275735
EXTRACT: note_on channel=6 note=61 velocity=0 time=0
EXTRACT: note_on channel=6 note=61 velocity=46 time=0
EXTRACT: note_on channel=7 note=61 velocity=46 time=0
EXTRACT: note_on channel=9 note=51 velocity=74 time=0.00275735
EXTRACT: note_on channel=9 note=82 velocity=0 time=0.09007343333333333
EXTRACT: note_on channel=9 note=51 velocity=0 time=0.0055147
EXTRACT: note_on channel=6 note=61 velocity=0 time=0.08180138333333332
EXTRACT: note_on channel=7 note=61 velocity=0 time=0
EXTRACT: note_on channel=6 note=61 velocity=51 time=0.0330882
EXTRACT: note_on channel=7 note=61 velocity=51 time=0
EXTRACT: note_on channel=9 note=82 velocity=50 time=0.08731608333333334
EXTRACT: note_on channel=9 note=82 velocity=0 time=0.055146999999999995
EXTRACT: note_on channel=7 note=56 velocity=0 time=0.03033085
EXTRACT: note_on channel=6 note=56 velocity=0 time=0
EXTRACT: note_on channel=6 note=61 velocity=0 time=0.0036764666666666665
EXTRACT: note_on channel=7 note=61 velocity=0 time=0
EXTRACT: note_on channel=7 note=71 velocity=0 time=0.007352933333333333
EXTRACT: note_on channel=6 note=71 velocity=0 time=0
EXTRACT: note_on channel=6 note=56 velocity=61 time=0.03676466666666667
EXTRACT: note_on channel=6 note=71 velocity=76 time=0
EXTRACT: note_on channel=6 note=61 velocity=82 time=0
EXTRACT: note_on channel=7 note=56 velocity=61 time=0
EXTRACT: note_on channel=7 note=71 velocity=76 time=0
EXTRACT: note_on channel=7 note=61 velocity=82 time=0
EXTRACT: note_on channel=9 note=82 velocity=50 time=0.0036764666666666665
EXTRACT: note_on channel=9 note=44 velocity=82 time=0.00275735
EXTRACT: note_on channel=9 note=38 velocity=90 time=0.00275735
EXTRACT: note_on channel=9 note=51 velocity=79 time=0
EXTRACT: note_on channel=3 note=64 velocity=79 time=0.00275735
EXTRACT: note_on channel=9 note=82 velocity=0 time=0.09099254999999999
EXTRACT: note_on channel=9 note=38 velocity=0 time=0.0018382333333333333
EXTRACT: note_on channel=9 note=51 velocity=0 time=0.0036764666666666665
EXTRACT: note_on channel=9 note=44 velocity=0 time=0.11856604999999999
EXTRACT: note_on channel=9 note=82 velocity=50 time=0.08088226666666666
EXTRACT: note_on channel=9 note=82 velocity=0 time=0.055146999999999995
EXTRACT: note_on channel=7 note=71 velocity=0 time=0.03033085
EXTRACT: note_on channel=6 note=71 velocity=0 time=0
EXTRACT: note_on channel=6 note=56 velocity=0 time=0.0036764666666666665
EXTRACT: note_on channel=7 note=56 velocity=0 time=0
EXTRACT: note_on channel=3 note=64 velocity=0 time=0.0441176
EXTRACT: note_on channel=6 note=56 velocity=45 time=0
EXTRACT: note_on channel=6 note=71 velocity=29 time=0
EXTRACT: note_on channel=7 note=56 velocity=45 time=0
EXTRACT: note_on channel=7 note=71 velocity=29 time=0
EXTRACT: note_on channel=9 note=82 velocity=50 time=0.0018382333333333333
EXTRACT: note_on channel=9 note=51 velocity=59 time=0.0055147
EXTRACT: note_on channel=9 note=82 velocity=0 time=0.09007343333333333
EXTRACT: note_on channel=9 note=51 velocity=0 time=0.0055147
EXTRACT: note_on channel=7 note=61 velocity=0 time=0.07352933333333334
EXTRACT: note_on channel=6 note=61 velocity=0 time=0
EXTRACT: note_on channel=7 note=49 velocity=0 time=0.014705866666666666
EXTRACT: note_on channel=6 note=49 velocity=0 time=0
EXTRACT: note_on channel=6 note=49 velocity=47 time=0.029411733333333332
EXTRACT: note_on channel=6 note=61 velocity=34 time=0
EXTRACT: note_on channel=7 note=49 velocity=47 time=0
EXTRACT: note_on channel=7 note=61 velocity=34 time=0
EXTRACT: note_on channel=9 note=82 velocity=50 time=0.08731608333333334
EXTRACT: note_on channel=9 note=82 velocity=0 time=0.055146999999999995
EXTRACT: note_on channel=7 note=61 velocity=0 time=0.03033085
EXTRACT: note_on channel=6 note=61 velocity=0 time=0
EXTRACT: note_on channel=7 note=56 velocity=0 time=0.007352933333333333
EXTRACT: note_on channel=6 note=56 velocity=0 time=0
EXTRACT: note_on channel=7 note=49 velocity=0 time=0.018382333333333334
EXTRACT: note_on channel=6 note=49 velocity=0 time=0
EXTRACT: note_on channel=7 note=71 velocity=0 time=0.0110294
EXTRACT: note_on channel=6 note=71 velocity=0 time=0
EXTRACT: note_on channel=3 note=66 velocity=79 time=0.0110294
EXTRACT: note_on channel=6 note=49 velocity=31 time=0
EXTRACT: note_on channel=6 note=56 velocity=37 time=0
EXTRACT: note_on channel=6 note=71 velocity=41 time=0
EXTRACT: note_on channel=6 note=61 velocity=44 time=0
EXTRACT: note_on channel=7 note=49 velocity=31 time=0
EXTRACT: note_on channel=7 note=56 velocity=37 time=0
EXTRACT: note_on channel=7 note=71 velocity=41 time=0
EXTRACT: note_on channel=7 note=61 velocity=44 time=0
EXTRACT: note_on channel=9 note=82 velocity=50 time=0.0018382333333333333
EXTRACT: note_on channel=9 note=51 velocity=74 time=0.0055147
EXTRACT: note_on channel=9 note=82 velocity=0 time=0.09007343333333333
EXTRACT: note_on channel=9 note=51 velocity=0 time=0.0055147
EXTRACT: note_on channel=7 note=61 velocity=0 time=0.0882352
EXTRACT: note_on channel=6 note=61 velocity=0 time=0
EXTRACT: note_on channel=6 note=61 velocity=37 time=0.03676466666666667
EXTRACT: note_on channel=7 note=61 velocity=37 time=0
EXTRACT: note_on channel=9 note=82 velocity=50 time=0.07996315
EXTRACT: note_on channel=9 note=82 velocity=0 time=0.055146999999999995
EXTRACT: note_on channel=1 note=37 velocity=0 time=0.0220588
EXTRACT: note_on channel=7 note=71 velocity=0 time=0.03400731666666666
EXTRACT: note_on channel=6 note=71 velocity=0 time=0
EXTRACT: note_on channel=6 note=56 velocity=0 time=0.0036764666666666665
EXTRACT: note_on channel=7 note=49 velocity=0 time=0
EXTRACT: note_on channel=6 note=49 velocity=0 time=0
EXTRACT: note_on channel=7 note=61 velocity=0 time=0
EXTRACT: note_on channel=6 note=61 velocity=0 time=0
EXTRACT: note_on channel=7 note=56 velocity=0 time=0
EXTRACT: note_on channel=3 note=66 velocity=0 time=0.0064338166666666665
EXTRACT: note_on channel=1 note=35 velocity=94 time=0.0110294
EXTRACT: note_on channel=6 note=47 velocity=78 time=0.0009191166666666666
EXTRACT: note_on channel=6 note=42 velocity=63 time=0
EXTRACT: note_on channel=6 note=63 velocity=75 time=0
EXTRACT: note_on channel=6 note=59 velocity=78 time=0
EXTRACT: note_on channel=7 note=47 velocity=78 time=0
EXTRACT: note_on channel=7 note=42 velocity=63 time=0
EXTRACT: note_on channel=7 note=63 velocity=75 time=0
EXTRACT: note_on channel=7 note=59 velocity=78 time=0
EXTRACT: note_on channel=9 note=36 velocity=104 time=0.0009191166666666666
EXTRACT: note_on channel=9 note=82 velocity=50 time=0.0009191166666666666
EXTRACT: note_on channel=3 note=66 velocity=79 time=0.0045955833333333335
EXTRACT: note_on channel=9 note=51 velocity=60 time=0.0009191166666666666
EXTRACT: note_on channel=9 note=82 velocity=0 time=0.0937499
EXTRACT: note_on channel=9 note=51 velocity=0 time=0.0055147
EXTRACT: note_on channel=9 note=36 velocity=0 time=0.11488958333333332
EXTRACT: note_on channel=9 note=82 velocity=50 time=0.08639696666666666
EXTRACT: note_on channel=9 note=82 velocity=0 time=0.055146999999999995
EXTRACT: note_on channel=7 note=59 velocity=0 time=0.06709551666666666
EXTRACT: note_on channel=6 note=59 velocity=0 time=0
EXTRACT: note_on channel=3 note=66 velocity=0 time=0.0055147
EXTRACT: note_on channel=6 note=54 velocity=41 time=0.0055147
EXTRACT: note_on channel=7 note=54 velocity=41 time=0
EXTRACT: note_on channel=9 note=82 velocity=50 time=0.0009191166666666666
EXTRACT: note_on channel=3 note=63 velocity=79 time=0.0055147
EXTRACT: note_on channel=9 note=51 velocity=67 time=0
EXTRACT: note_on channel=7 note=63 velocity=0 time=0.011948516666666666
EXTRACT: note_on channel=6 note=63 velocity=0 time=0
EXTRACT: note_on channel=6 note=63 velocity=41 time=0
EXTRACT: note_on channel=7 note=63 velocity=41 time=0
EXTRACT: note_on channel=9 note=82 velocity=0 time=0.08180138333333332
EXTRACT: note_on channel=9 note=51 velocity=0 time=0.0055147
EXTRACT: note_on channel=6 note=63 velocity=0 time=0.08915431666666666
EXTRACT: note_on channel=7 note=63 velocity=0 time=0
EXTRACT: note_on channel=3 note=63 velocity=0 time=0.011948516666666666
EXTRACT: note_on channel=3 note=59 velocity=79 time=0
EXTRACT: note_on channel=6 note=63 velocity=56 time=0.013786749999999999
EXTRACT: note_on channel=7 note=63 velocity=56 time=0
EXTRACT: note_on channel=9 note=82 velocity=50 time=0.08731608333333334
EXTRACT: note_on channel=9 note=82 velocity=0 time=0.055146999999999995
EXTRACT: note_on channel=6 note=54 velocity=0 time=0.06341904999999999
EXTRACT: note_on channel=7 note=54 velocity=0 time=0
EXTRACT: note_on channel=6 note=63 velocity=0 time=0.014705866666666666
EXTRACT: note_on channel=7 note=63 velocity=0 time=0
EXTRACT: note_on channel=6 note=54 velocity=53 time=0
EXTRACT: note_on channel=6 note=63 velocity=72 time=0
EXTRACT: note_on channel=7 note=54 velocity=53 time=0
EXTRACT: note_on channel=7 note=63 velocity=72 time=0
EXTRACT: note_on channel=9 note=82 velocity=50 time=0.0018382333333333333
EXTRACT: note_on channel=9 note=51 velocity=57 time=0.0055147
EXTRACT: note_on channel=9 note=82 velocity=0 time=0.09007343333333333
EXTRACT: note_on channel=9 note=51 velocity=0 time=0.0055147
EXTRACT: note_on channel=3 note=59 velocity=0 time=0.09191166666666667
EXTRACT: note_on channel=7 note=63 velocity=0 time=0
EXTRACT: note_on channel=6 note=63 velocity=0 time=0
EXTRACT: note_on channel=6 note=63 velocity=50 time=0.025735266666666666
EXTRACT: note_on channel=7 note=63 velocity=50 time=0
EXTRACT: note_on channel=9 note=82 velocity=50 time=0.08731608333333334
EXTRACT: note_on channel=9 note=82 velocity=0 time=0.055146999999999995
EXTRACT: note_on channel=6 note=47 velocity=0 time=0.03033085
EXTRACT: note_on channel=7 note=47 velocity=0 time=0
EXTRACT: note_on channel=7 note=54 velocity=0 time=0.0036764666666666665
EXTRACT: note_on channel=6 note=54 velocity=0 time=0
EXTRACT: note_on channel=7 note=63 velocity=0 time=0.0036764666666666665
EXTRACT: note_on channel=6 note=63 velocity=0 time=0
EXTRACT: note_on channel=9 note=82 velocity=50 time=0.03676466666666667
EXTRACT: note_on channel=6 note=63 velocity=75 time=0.0036764666666666665
EXTRACT: note_on channel=6 note=47 velocity=50 time=0
EXTRACT: note_on channel=6 note=59 velocity=77 time=0
EXTRACT: note_on channel=7 note=63 velocity=75 time=0
EXTRACT: note_on channel=7 note=47 velocity=50 time=0
EXTRACT: note_on channel=7 note=59 velocity=77 time=0
EXTRACT: note_on channel=9 note=51 velocity=69 time=0.0018382333333333333
EXTRACT: note_on channel=9 note=38 velocity=90 time=0.0018382333333333333
EXTRACT: note_on channel=3 note=68 velocity=79 time=0.00827205
EXTRACT: note_on channel=9 note=82 velocity=0 time=0.08363961666666667
EXTRACT: note_on channel=9 note=51 velocity=0 time=0.0055147
EXTRACT: note_on channel=9 note=38 velocity=0 time=0.0018382333333333333
EXTRACT: note_on channel=3 note=68 velocity=0 time=0.10937488333333333
EXTRACT: note_on channel=3 note=68 velocity=79 time=0.017463216666666666
EXTRACT: note_on channel=9 note=82 velocity=50 time=0.07812491666666667
EXTRACT: note_on channel=9 note=82 velocity=0 time=0.055146999999999995
EXTRACT: note_on channel=6 note=63 velocity=0 time=0.056066116666666665
EXTRACT: note_on channel=7 note=63 velocity=0 time=0
EXTRACT: note_on channel=3 note=68 velocity=0 time=0.0110294
EXTRACT: note_on channel=9 note=82 velocity=50 time=0.009191166666666667
EXTRACT: note_on channel=9 note=51 velocity=91 time=0.0055147
EXTRACT: note_on channel=3 note=66 velocity=79 time=0.00275735
EXTRACT: note_on channel=6 note=63 velocity=50 time=0.0009191166666666666
EXTRACT: note_on channel=7 note=63 velocity=50 time=0
EXTRACT: note_on channel=9 note=82 velocity=0 time=0.09007343333333333
EXTRACT: note_on channel=9 note=51 velocity=0 time=0.0055147
EXTRACT: note_on channel=6 note=63 velocity=0 time=0.07720579999999999
EXTRACT: note_on channel=7 note=63 velocity=0 time=0
EXTRACT: note_on channel=6 note=63 velocity=47 time=0.04044113333333333
EXTRACT: note_on channel=7 note=63 velocity=47 time=0
EXTRACT: note_on channel=9 note=82 velocity=50 time=0.08731608333333334
EXTRACT: note_on channel=9 note=38 velocity=90 time=0.0009191166666666666
EXTRACT: note_on channel=9 note=82 velocity=0 time=0.05422788333333333
EXTRACT: note_on channel=7 note=63 velocity=0 time=0.04136025
EXTRACT: note_on channel=6 note=63 velocity=0 time=0
EXTRACT: note_on channel=6 note=59 velocity=0 time=0
EXTRACT: note_on channel=7 note=59 velocity=0 time=0
EXTRACT: note_on channel=9 note=38 velocity=0 time=0.0036764666666666665
EXTRACT: note_on channel=1 note=35 velocity=0 time=0.02389703333333333
EXTRACT: note_on channel=3 note=66 velocity=0 time=0.0036764666666666665
EXTRACT: note_on channel=9 note=82 velocity=50 time=0.00275735
EXTRACT: note_on channel=9 note=51 velocity=76 time=0.0055147
EXTRACT: note_on channel=6 note=63 velocity=74 time=0.0045955833333333335
EXTRACT: note_on channel=7 note=63 velocity=74 time=0
EXTRACT: note_on channel=1 note=44 velocity=94 time=0.0009191166666666666
EXTRACT: note_on channel=6 note=54 velocity=80 time=0.00275735
EXTRACT: note_on channel=7 note=54 velocity=80 time=0
EXTRACT: note_on channel=9 note=82 velocity=0 time=0.08547785
EXTRACT: note_on channel=9 note=51 velocity=0 time=0.0055147
EXTRACT: note_on channel=7 note=63 velocity=0 time=0.07812491666666667
EXTRACT: note_on channel=6 note=63 velocity=0 time=0
EXTRACT: note_on channel=6 note=63 velocity=68 time=0.04044113333333333
EXTRACT: note_on channel=7 note=63 velocity=68 time=0
EXTRACT: note_on channel=3 note=64 velocity=79 time=0.021139683333333333
EXTRACT: note_on channel=9 note=41 velocity=73 time=0.058823466666666664
EXTRACT: note_on channel=9 note=82 velocity=50 time=0.007352933333333333
EXTRACT: note_on channel=9 note=82 velocity=0 time=0.055146999999999995
EXTRACT: note_on channel=7 note=47 velocity=0 time=0.026654383333333333
EXTRACT: note_on channel=6 note=47 velocity=0 time=0
EXTRACT: note_on channel=9 note=41 velocity=0 time=0.010110283333333333
EXTRACT: note_on channel=7 note=54 velocity=0 time=0.00827205
EXTRACT: note_on channel=6 note=54 velocity=0 time=0
EXTRACT: note_on channel=7 note=42 velocity=0 time=0.0036764666666666665
EXTRACT: note_on channel=6 note=42 velocity=0 time=0
EXTRACT: note_on channel=6 note=63 velocity=0 time=0.0036764666666666665
EXTRACT: note_on channel=7 note=63 velocity=0 time=0
EXTRACT: note_on channel=6 note=45 velocity=67 time=0.025735266666666666
EXTRACT: note_on channel=6 note=52 velocity=78 time=0
EXTRACT: note_on channel=6 note=64 velocity=82 time=0
EXTRACT: note_on channel=6 note=57 velocity=86 time=0
EXTRACT: note_on channel=7 note=45 velocity=67 time=0
EXTRACT: note_on channel=7 note=52 velocity=78 time=0
EXTRACT: note_on channel=7 note=64 velocity=82 time=0
EXTRACT: note_on channel=7 note=57 velocity=86 time=0
EXTRACT: note_on channel=3 note=64 velocity=0 time=0.0009191166666666666
EXTRACT: note_on channel=9 note=36 velocity=89 time=0.0009191166666666666
EXTRACT: note_on channel=9 note=82 velocity=50 time=0
EXTRACT: note_on channel=3 note=64 velocity=79 time=0.0055147
EXTRACT: note_on channel=9 note=51 velocity=83 time=0
EXTRACT: note_on channel=1 note=45 velocity=94 time=0.0009191166666666666
EXTRACT: note_on channel=1 note=44 velocity=0 time=0.0055147
EXTRACT: note_on channel=9 note=82 velocity=0 time=0.08731608333333334
EXTRACT: note_on channel=9 note=51 velocity=0 time=0.0055147
EXTRACT: note_on channel=9 note=36 velocity=0 time=0.1158087
EXTRACT: note_on channel=9 note=82 velocity=50 time=0.08547785
EXTRACT: note_on channel=9 note=82 velocity=0 time=0.055146999999999995
EXTRACT: note_on channel=6 note=52 velocity=0 time=0.03033085
EXTRACT: note_on channel=7 note=52 velocity=0 time=0
EXTRACT: note_on channel=3 note=64 velocity=0 time=0.04319848333333333
EXTRACT: note_on channel=7 note=64 velocity=0 time=0.0045955833333333335
EXTRACT: note_on channel=6 note=64 velocity=0 time=0
EXTRACT: note_on channel=6 note=52 velocity=59 time=0
EXTRACT: note_on channel=6 note=64 velocity=52 time=0
EXTRACT: note_on channel=7 note=52 velocity=59 time=0
EXTRACT: note_on channel=7 note=64 velocity=52 time=0
EXTRACT: note_on channel=9 note=82 velocity=50 time=0.0045955833333333335
EXTRACT: note_on channel=9 note=51 velocity=73 time=0.0055147
EXTRACT: note_on channel=9 note=82 velocity=0 time=0.09007343333333333
EXTRACT: note_on channel=9 note=51 velocity=0 time=0.0055147
EXTRACT: note_on channel=7 note=57 velocity=0 time=0.03768378333333333
EXTRACT: note_on channel=6 note=57 velocity=0 time=0
EXTRACT: note_on channel=6 note=57 velocity=74 time=0.07720579999999999
EXTRACT: note_on channel=7 note=57 velocity=74 time=0
EXTRACT: note_on channel=7 note=64 velocity=0 time=0.0330882
EXTRACT: note_on channel=6 note=64 velocity=0 time=0
EXTRACT: note_on channel=6 note=64 velocity=52 time=0
EXTRACT: note_on channel=7 note=64 velocity=52 time=0
EXTRACT: note_on channel=9 note=82 velocity=50 time=0.05422788333333333
EXTRACT: note_on channel=9 note=82 velocity=0 time=0.055146999999999995
EXTRACT: note_on channel=6 note=45 velocity=0 time=0.06709551666666666
EXTRACT: note_on channel=7 note=45 velocity=0 time=0
EXTRACT: note_on channel=6 note=45 velocity=52 time=0.0110294
EXTRACT: note_on channel=7 note=45 velocity=52 time=0
EXTRACT: note_on channel=9 note=82 velocity=50 time=0.0045955833333333335
EXTRACT: note_on channel=7 note=52 velocity=0 time=0.00275735
EXTRACT: note_on channel=6 note=52 velocity=0 time=0
EXTRACT: note_on channel=6 note=52 velocity=55 time=0
EXTRACT: note_on channel=7 note=52 velocity=55 time=0
EXTRACT: note_on channel=9 note=51 velocity=74 time=0.00275735
EXTRACT: note_on channel=7 note=64 velocity=0 time=0.03400731666666666
EXTRACT: note_on channel=6 note=64 velocity=0 time=0
EXTRACT: note_on channel=6 note=64 velocity=47 time=0
EXTRACT: note_on channel=7 note=64 velocity=47 time=0
EXTRACT: note_on channel=9 note=82 velocity=0 time=0.056066116666666665
EXTRACT: note_on channel=9 note=51 velocity=0 time=0.0055147
EXTRACT: note_on channel=6 note=57 velocity=0 time=0.08547785
EXTRACT: note_on channel=7 note=57 velocity=0 time=0
EXTRACT: note_on channel=6 note=57 velocity=68 time=0.029411733333333332
EXTRACT: note_on channel=7 note=57 velocity=68 time=0
EXTRACT: note_on channel=6 note=64 velocity=0 time=0.014705866666666666
EXTRACT: note_on channel=7 note=64 velocity=0 time=0
EXTRACT: note_on channel=6 note=64 velocity=39 time=0
EXTRACT: note_on channel=7 note=64 velocity=39 time=0
EXTRACT: note_on channel=9 note=82 velocity=50 time=0.07261021666666666
EXTRACT: note_on channel=9 note=82 velocity=0 time=0.055146999999999995
EXTRACT: note_on channel=6 note=45 velocity=0 time=0.022977916666666667
EXTRACT: note_on channel=7 note=45 velocity=0 time=0
EXTRACT: note_on channel=7 note=52 velocity=0 time=0.055146999999999995
EXTRACT: note_on channel=6 note=52 velocity=0 time=0
EXTRACT: note_on channel=6 note=45 velocity=82 time=0
EXTRACT: note_on channel=6 note=52 velocity=81 time=0
EXTRACT: note_on channel=7 note=45 velocity=82 time=0
EXTRACT: note_on channel=7 note=52 velocity=81 time=0
EXTRACT: note_on channel=3 note=64 velocity=79 time=0.0018382333333333333
EXTRACT: note_on channel=9 note=82 velocity=50 time=0.0018382333333333333
EXTRACT: note_on channel=9 note=44 velocity=82 time=0.00275735
EXTRACT: note_on channel=9 note=38 velocity=90 time=0.00275735
EXTRACT: note_on channel=9 note=51 velocity=79 time=0
EXTRACT: note_on channel=7 note=57 velocity=0 time=0.0018382333333333333
EXTRACT: note_on channel=7 note=64 velocity=0 time=0
EXTRACT: note_on channel=6 note=57 velocity=0 time=0
EXTRACT: note_on channel=6 note=64 velocity=0 time=0
EXTRACT: note_on channel=6 note=64 velocity=73 time=0
EXTRACT: note_on channel=6 note=57 velocity=66 time=0
EXTRACT: note_on channel=7 note=64 velocity=73 time=0
EXTRACT: note_on channel=7 note=57 velocity=66 time=0
EXTRACT: note_on channel=9 note=82 velocity=0 time=0.09191166666666667
EXTRACT: note_on channel=9 note=38 velocity=0 time=0.0018382333333333333
EXTRACT: note_on channel=9 note=51 velocity=0 time=0.0036764666666666665
EXTRACT: note_on channel=9 note=44 velocity=0 time=0.11856604999999999
EXTRACT: note_on channel=9 note=82 velocity=50 time=0.08088226666666666
EXTRACT: note_on channel=9 note=82 velocity=0 time=0.055146999999999995
EXTRACT: note_on channel=3 note=64 velocity=0 time=0.06801463333333332
EXTRACT: note_on channel=9 note=82 velocity=50 time=0.011948516666666666
EXTRACT: note_on channel=9 note=51 velocity=59 time=0.0055147
EXTRACT: note_on channel=6 note=52 velocity=0 time=0.0110294
EXTRACT: note_on channel=7 note=52 velocity=0 time=0
EXTRACT: note_on channel=6 note=52 velocity=48 time=0
EXTRACT: note_on channel=7 note=52 velocity=48 time=0
EXTRACT: note_on channel=6 note=64 velocity=0 time=0.007352933333333333
EXTRACT: note_on channel=7 note=64 velocity=0 time=0
EXTRACT: note_on channel=6 note=64 velocity=41 time=0
EXTRACT: note_on channel=7 note=64 velocity=41 time=0
EXTRACT: note_on channel=9 note=82 velocity=0 time=0.0716911
EXTRACT: note_on channel=9 note=51 velocity=0 time=0.0055147
EXTRACT: note_on channel=6 note=57 velocity=0 time=0.10294106666666666
EXTRACT: note_on channel=7 note=57 velocity=0 time=0
EXTRACT: note_on channel=6 note=57 velocity=51 time=0.014705866666666666
EXTRACT: note_on channel=7 note=57 velocity=51 time=0
EXTRACT: note_on channel=9 note=82 velocity=50 time=0.08731608333333334
EXTRACT: note_on channel=9 note=82 velocity=0 time=0.055146999999999995
EXTRACT: note_on channel=7 note=52 velocity=0 time=0.07444845
EXTRACT: note_on channel=6 note=52 velocity=0 time=0
EXTRACT: note_on channel=6 note=52 velocity=48 time=0.0036764666666666665
EXTRACT: note_on channel=7 note=52 velocity=48 time=0
EXTRACT: note_on channel=9 note=82 velocity=50 time=0.0018382333333333333
EXTRACT: note_on channel=7 note=64 velocity=0 time=0.0055147
EXTRACT: note_on channel=6 note=64 velocity=0 time=0
EXTRACT: note_on channel=6 note=64 velocity=44 time=0
EXTRACT: note_on channel=7 note=64 velocity=44 time=0
EXTRACT: note_on channel=9 note=51 velocity=74 time=0
EXTRACT: note_on channel=9 note=82 velocity=0 time=0.09007343333333333
EXTRACT: note_on channel=9 note=51 velocity=0 time=0.0055147
EXTRACT: note_on channel=7 note=57 velocity=0 time=0.0882352
EXTRACT: note_on channel=6 note=57 velocity=0 time=0
EXTRACT: note_on channel=6 note=57 velocity=71 time=0.029411733333333332
EXTRACT: note_on channel=7 note=57 velocity=71 time=0
EXTRACT: note_on channel=6 note=64 velocity=0 time=0.0036764666666666665
EXTRACT: note_on channel=7 note=64 velocity=0 time=0
EXTRACT: note_on channel=6 note=64 velocity=45 time=0
EXTRACT: note_on channel=7 note=64 velocity=45 time=0
EXTRACT: note_on channel=9 note=82 velocity=50 time=0.08363961666666667
EXTRACT: note_on channel=9 note=82 velocity=0 time=0.055146999999999995
EXTRACT: note_on channel=1 note=45 velocity=0 time=0.025735266666666666
EXTRACT: note_on channel=6 note=45 velocity=0 time=0.03033085
EXTRACT: note_on channel=7 note=45 velocity=0 time=0
EXTRACT: note_on channel=6 note=57 velocity=0 time=0.0036764666666666665
EXTRACT: note_on channel=7 note=52 velocity=0 time=0
EXTRACT: note_on channel=7 note=64 velocity=0 time=0
EXTRACT: note_on channel=6 note=64 velocity=0 time=0
EXTRACT: note_on channel=7 note=57 velocity=0 time=0
EXTRACT: note_on channel=6 note=52 velocity=0 time=0
EXTRACT: note_on channel=1 note=40 velocity=94 time=0.015624983333333333
EXTRACT: note_on channel=6 note=52 velocity=78 time=0.00275735
EXTRACT: note_on channel=6 note=47 velocity=63 time=0
EXTRACT: note_on channel=6 note=64 velocity=75 time=0
EXTRACT: note_on channel=6 note=59 velocity=78 time=0
EXTRACT: note_on channel=7 note=52 velocity=78 time=0
EXTRACT: note_on channel=7 note=47 velocity=63 time=0
EXTRACT: note_on channel=7 note=64 velocity=75 time=0
EXTRACT: note_on channel=7 note=59 velocity=78 time=0
EXTRACT: note_on channel=9 note=36 velocity=104 time=0.0009191166666666666
EXTRACT: note_on channel=3 note=64 velocity=79 time=0.0009191166666666666
EXTRACT: note_on channel=9 note=82 velocity=50 time=0
EXTRACT: note_on channel=9 note=51 velocity=60 time=0.0055147
EXTRACT: note_on channel=9 note=82 velocity=0 time=0.0937499
EXTRACT: note_on channel=9 note=51 velocity=0 time=0.0055147
EXTRACT: note_on channel=9 note=36 velocity=0 time=0.11488958333333332
EXTRACT: note_on channel=9 note=82 velocity=50 time=0.08639696666666666
EXTRACT: note_on channel=9 note=82 velocity=0 time=0.055146999999999995
EXTRACT: note_on channel=7 note=59 velocity=0 time=0.06709551666666666
EXTRACT: note_on channel=6 note=59 velocity=0 time=0
EXTRACT: note_on channel=3 note=64 velocity=0 time=0.0009191166666666666
EXTRACT: note_on channel=6 note=59 velocity=41 time=0.010110283333333333
EXTRACT: note_on channel=7 note=59 velocity=41 time=0
EXTRACT: note_on channel=9 note=82 velocity=50 time=0.0009191166666666666
EXTRACT: note_on channel=9 note=51 velocity=67 time=0.0055147
EXTRACT: note_on channel=6 note=64 velocity=0 time=0.011948516666666666
EXTRACT: note_on channel=7 note=64 velocity=0 time=0
EXTRACT: note_on channel=6 note=64 velocity=41 time=0
EXTRACT: note_on channel=7 note=64 velocity=41 time=0
EXTRACT: note_on channel=9 note=82 velocity=0 time=0.08180138333333332
EXTRACT: note_on channel=9 note=51 velocity=0 time=0.0055147
EXTRACT: note_on channel=6 note=64 velocity=0 time=0.08915431666666666
EXTRACT: note_on channel=7 note=64 velocity=0 time=0
EXTRACT: note_on channel=6 note=64 velocity=56 time=0.025735266666666666
EXTRACT: note_on channel=7 note=64 velocity=56 time=0
EXTRACT: note_on channel=9 note=82 velocity=50 time=0.08731608333333334
EXTRACT: note_on channel=9 note=82 velocity=0 time=0.055146999999999995
EXTRACT: note_on channel=6 note=59 velocity=0 time=0.06341904999999999
EXTRACT: note_on channel=7 note=59 velocity=0 time=0
EXTRACT: note_on channel=6 note=64 velocity=0 time=0.014705866666666666
EXTRACT: note_on channel=7 note=64 velocity=0 time=0
EXTRACT: note_on channel=6 note=59 velocity=53 time=0
EXTRACT: note_on channel=6 note=64 velocity=72 time=0
EXTRACT: note_on channel=7 note=59 velocity=53 time=0
EXTRACT: note_on channel=7 note=64 velocity=72 time=0
EXTRACT: note_on channel=9 note=82 velocity=50 time=0.0018382333333333333
EXTRACT: note_on channel=9 note=51 velocity=57 time=0.0055147
EXTRACT: note_on channel=9 note=82 velocity=0 time=0.09007343333333333
EXTRACT: note_on channel=9 note=51 velocity=0 time=0.0055147
EXTRACT: note_on channel=6 note=64 velocity=0 time=0.09191166666666667
EXTRACT: note_on channel=7 note=64 velocity=0 time=0
EXTRACT: note_on channel=6 note=64 velocity=50 time=0.025735266666666666
EXTRACT: note_on channel=7 note=64 velocity=50 time=0
EXTRACT: note_on channel=9 note=82 velocity=50 time=0.08731608333333334
EXTRACT: note_on channel=9 note=82 velocity=0 time=0.055146999999999995
EXTRACT: note_on channel=6 note=52 velocity=0 time=0.03033085
EXTRACT: note_on channel=7 note=52 velocity=0 time=0
EXTRACT: note_on channel=7 note=59 velocity=0 time=0.0036764666666666665
EXTRACT: note_on channel=6 note=59 velocity=0 time=0
EXTRACT: note_on channel=7 note=64 velocity=0 time=0.0036764666666666665
EXTRACT: note_on channel=6 note=64 velocity=0 time=0
EXTRACT: note_on channel=9 note=82 velocity=50 time=0.03676466666666667
EXTRACT: note_on channel=6 note=64 velocity=75 time=0.0036764666666666665
EXTRACT: note_on channel=6 note=52 velocity=50 time=0
EXTRACT: note_on channel=6 note=59 velocity=77 time=0
EXTRACT: note_on channel=7 note=64 velocity=75 time=0
EXTRACT: note_on channel=7 note=52 velocity=50 time=0
EXTRACT: note_on channel=7 note=59 velocity=77 time=0
EXTRACT: note_on channel=9 note=51 velocity=69 time=0.0018382333333333333
EXTRACT: note_on channel=9 note=38 velocity=90 time=0.0018382333333333333
EXTRACT: note_on channel=3 note=64 velocity=79 time=0.0036764666666666665
EXTRACT: note_on channel=9 note=82 velocity=0 time=0.0882352
EXTRACT: note_on channel=9 note=51 velocity=0 time=0.0055147
EXTRACT: note_on channel=9 note=38 velocity=0 time=0.0018382333333333333
EXTRACT: note_on channel=9 note=82 velocity=50 time=0.20496301666666666
EXTRACT: note_on channel=9 note=82 velocity=0 time=0.055146999999999995
EXTRACT: note_on channel=6 note=64 velocity=0 time=0.056066116666666665
EXTRACT: note_on channel=7 note=64 velocity=0 time=0
EXTRACT: note_on channel=3 note=64 velocity=0 time=0.015624983333333333
EXTRACT: note_on channel=9 note=82 velocity=50 time=0.0045955833333333335
EXTRACT: note_on channel=9 note=51 velocity=91 time=0.0055147
EXTRACT: note_on channel=6 note=64 velocity=50 time=0.0036764666666666665
EXTRACT: note_on channel=7 note=64 velocity=50 time=0
EXTRACT: note_on channel=3 note=64 velocity=79 time=0.0055147
EXTRACT: note_on channel=9 note=82 velocity=0 time=0.08455873333333333
EXTRACT: note_on channel=9 note=51 velocity=0 time=0.0055147
EXTRACT: note_on channel=7 note=64 velocity=0 time=0.07720579999999999
EXTRACT: note_on channel=6 note=64 velocity=0 time=0
EXTRACT: note_on channel=6 note=64 velocity=47 time=0.04044113333333333
EXTRACT: note_on channel=7 note=64 velocity=47 time=0
EXTRACT: note_on channel=9 note=82 velocity=50 time=0.08731608333333334
EXTRACT: note_on channel=9 note=38 velocity=90 time=0.0009191166666666666
EXTRACT: note_on channel=9 note=82 velocity=0 time=0.05422788333333333
EXTRACT: note_on channel=7 note=64 velocity=0 time=0.04136025
EXTRACT: note_on channel=6 note=59 velocity=0 time=0
EXTRACT: note_on channel=7 note=59 velocity=0 time=0
EXTRACT: note_on channel=6 note=64 velocity=0 time=0
EXTRACT: note_on channel=9 note=38 velocity=0 time=0.0036764666666666665
EXTRACT: note_on channel=9 note=82 velocity=50 time=0.03033085
EXTRACT: note_on channel=3 note=64 velocity=0 time=0.0036764666666666665
EXTRACT: note_on channel=3 note=66 velocity=79 time=0.0009191166666666666
EXTRACT: note_on channel=9 note=51 velocity=76 time=0.0009191166666666666
EXTRACT: note_on channel=6 note=64 velocity=74 time=0.0045955833333333335
EXTRACT: note_on channel=7 note=64 velocity=74 time=0
EXTRACT: note_on channel=6 note=59 velocity=80 time=0.0036764666666666665
EXTRACT: note_on channel=7 note=59 velocity=80 time=0
EXTRACT: note_on channel=9 note=82 velocity=0 time=0.08547785
EXTRACT: note_on channel=9 note=51 velocity=0 time=0.0055147
EXTRACT: note_on channel=6 note=64 velocity=0 time=0.07812491666666667
EXTRACT: note_on channel=7 note=64 velocity=0 time=0
EXTRACT: note_on channel=3 note=66 velocity=0 time=0.039522016666666666
EXTRACT: note_on channel=6 note=64 velocity=68 time=0.0009191166666666666
EXTRACT: note_on channel=7 note=64 velocity=68 time=0
EXTRACT: note_on channel=3 note=66 velocity=79 time=0.007352933333333333
EXTRACT: note_on channel=9 note=82 velocity=50 time=0.07996315
EXTRACT: note_on channel=9 note=82 velocity=0 time=0.055146999999999995
EXTRACT: note_on channel=1 note=40 velocity=0 time=0.014705866666666666
EXTRACT: note_on channel=7 note=52 velocity=0 time=0.011948516666666666
EXTRACT: note_on channel=6 note=52 velocity=0 time=0
EXTRACT: note_on channel=6 note=59 velocity=0 time=0.018382333333333334
EXTRACT: note_on channel=7 note=59 velocity=0 time=0
EXTRACT: note_on channel=7 note=47 velocity=0 time=0.0036764666666666665
EXTRACT: note_on channel=6 note=47 velocity=0 time=0
EXTRACT: note_on channel=6 note=64 velocity=0 time=0.0036764666666666665
EXTRACT: note_on channel=7 note=64 velocity=0 time=0
EXTRACT: note_on channel=6 note=47 velocity=67 time=0.025735266666666666
EXTRACT: note_on channel=6 note=54 velocity=78 time=0
EXTRACT: note_on channel=6 note=66 velocity=82 time=0
EXTRACT: note_on channel=6 note=61 velocity=86 time=0
EXTRACT: note_on channel=7 note=47 velocity=67 time=0
EXTRACT: note_on channel=7 note=54 velocity=78 time=0
EXTRACT: note_on channel=7 note=66 velocity=82 time=0
EXTRACT: note_on channel=7 note=61 velocity=86 time=0
EXTRACT: note_on channel=9 note=36 velocity=89 time=0.0018382333333333333
EXTRACT: note_on channel=9 note=82 velocity=50 time=0
EXTRACT: note_on channel=9 note=51 velocity=83 time=0.0055147
EXTRACT: note_on channel=1 note=47 velocity=94 time=0.0009191166666666666
EXTRACT: note_on channel=9 note=82 velocity=0 time=0.09283078333333333
EXTRACT: note_on channel=9 note=51 velocity=0 time=0.0055147
EXTRACT: note_on channel=9 note=36 velocity=0 time=0.1158087
EXTRACT: note_on channel=9 note=82 velocity=50 time=0.08547785
EXTRACT: note_on channel=9 note=82 velocity=0 time=0.055146999999999995
EXTRACT: note_on channel=7 note=54 velocity=0 time=0.03033085
EXTRACT: note_on channel=6 note=54 velocity=0 time=0
EXTRACT: note_on channel=3 note=66 velocity=0 time=0.04687495
EXTRACT: note_on channel=7 note=66 velocity=0 time=0.0009191166666666666
EXTRACT: note_on channel=6 note=66 velocity=0 time=0
EXTRACT: note_on channel=6 note=54 velocity=59 time=0
EXTRACT: note_on channel=6 note=66 velocity=52 time=0
EXTRACT: note_on channel=7 note=54 velocity=59 time=0
EXTRACT: note_on channel=7 note=66 velocity=52 time=0
EXTRACT: note_on channel=9 note=82 velocity=50 time=0.0045955833333333335
EXTRACT: note_on channel=3 note=59 velocity=79 time=0.00275735
EXTRACT: note_on channel=9 note=51 velocity=73 time=0.00275735
EXTRACT: note_on channel=9 note=82 velocity=0 time=0.09007343333333333
EXTRACT: note_on channel=9 note=51 velocity=0 time=0.0055147
EXTRACT: note_on channel=7 note=61 velocity=0 time=0.03768378333333333
EXTRACT: note_on channel=6 note=61 velocity=0 time=0
EXTRACT: note_on channel=6 note=61 velocity=74 time=0.07720579999999999
EXTRACT: note_on channel=7 note=61 velocity=74 time=0
EXTRACT: note_on channel=7 note=66 velocity=0 time=0.0330882
EXTRACT: note_on channel=6 note=66 velocity=0 time=0
EXTRACT: note_on channel=6 note=66 velocity=52 time=0
EXTRACT: note_on channel=7 note=66 velocity=52 time=0
EXTRACT: note_on channel=9 note=82 velocity=50 time=0.05422788333333333
EXTRACT: note_on channel=9 note=82 velocity=0 time=0.055146999999999995
EXTRACT: note_on channel=7 note=47 velocity=0 time=0.06709551666666666
EXTRACT: note_on channel=6 note=47 velocity=0 time=0
EXTRACT: note_on channel=3 note=59 velocity=0 time=0.0064338166666666665
EXTRACT: note_on channel=6 note=47 velocity=52 time=0.0045955833333333335
EXTRACT: note_on channel=7 note=47 velocity=52 time=0
EXTRACT: note_on channel=9 note=82 velocity=50 time=0.0045955833333333335
EXTRACT: note_on channel=7 note=54 velocity=0 time=0.00275735
EXTRACT: note_on channel=6 note=54 velocity=0 time=0
EXTRACT: note_on channel=6 note=54 velocity=55 time=0
EXTRACT: note_on channel=7 note=54 velocity=55 time=0
EXTRACT: note_on channel=9 note=51 velocity=74 time=0.00275735
EXTRACT: note_on channel=6 note=66 velocity=0 time=0.03400731666666666
EXTRACT: note_on channel=7 note=66 velocity=0 time=0
EXTRACT: note_on channel=6 note=66 velocity=47 time=0
EXTRACT: note_on channel=7 note=66 velocity=47 time=0
EXTRACT: note_on channel=9 note=82 velocity=0 time=0.056066116666666665
EXTRACT: note_on channel=9 note=51 velocity=0 time=0.0055147
EXTRACT: note_on channel=6 note=61 velocity=0 time=0.08547785
EXTRACT: note_on channel=7 note=61 velocity=0 time=0
EXTRACT: note_on channel=6 note=61 velocity=68 time=0.029411733333333332
EXTRACT: note_on channel=7 note=61 velocity=68 time=0
EXTRACT: note_on channel=6 note=66 velocity=0 time=0.014705866666666666
EXTRACT: note_on channel=7 note=66 velocity=0 time=0
EXTRACT: note_on channel=6 note=66 velocity=39 time=0
EXTRACT: note_on channel=7 note=66 velocity=39 time=0
EXTRACT: note_on channel=9 note=82 velocity=50 time=0.07261021666666666
EXTRACT: note_on channel=9 note=82 velocity=0 time=0.055146999999999995
EXTRACT: note_on channel=7 note=47 velocity=0 time=0.022977916666666667
EXTRACT: note_on channel=6 note=47 velocity=0 time=0
EXTRACT: note_on channel=7 note=54 velocity=0 time=0.055146999999999995
EXTRACT: note_on channel=6 note=54 velocity=0 time=0
EXTRACT: note_on channel=6 note=47 velocity=82 time=0
EXTRACT: note_on channel=6 note=54 velocity=81 time=0
EXTRACT: note_on channel=7 note=47 velocity=82 time=0
EXTRACT: note_on channel=7 note=54 velocity=81 time=0
EXTRACT: note_on channel=9 note=82 velocity=50 time=0.0036764666666666665
EXTRACT: note_on channel=1 note=47 velocity=0 time=0.0018382333333333333
EXTRACT: note_on channel=9 note=44 velocity=82 time=0.0009191166666666666
EXTRACT: note_on channel=9 note=38 velocity=90 time=0.00275735
EXTRACT: note_on channel=9 note=51 velocity=79 time=0
EXTRACT: note_on channel=6 note=66 velocity=0 time=0.0018382333333333333
EXTRACT: note_on channel=7 note=66 velocity=0 time=0
EXTRACT: note_on channel=6 note=61 velocity=0 time=0
EXTRACT: note_on channel=7 note=61 velocity=0 time=0
EXTRACT: note_on channel=1 note=42 velocity=94 time=0
EXTRACT: note_on channel=6 note=66 velocity=73 time=0
EXTRACT: note_on channel=6 note=61 velocity=66 time=0
EXTRACT: note_on channel=7 note=66 velocity=73 time=0
EXTRACT: note_on channel=7 note=61 velocity=66 time=0
EXTRACT: note_on channel=9 note=82 velocity=0 time=0.09191166666666667
EXTRACT: note_on channel=9 note=38 velocity=0 time=0.0018382333333333333
EXTRACT: note_on channel=9 note=51 velocity=0 time=0.0036764666666666665
EXTRACT: note_on channel=9 note=44 velocity=0 time=0.11856604999999999
EXTRACT: note_on channel=9 note=82 velocity=50 time=0.08088226666666666
EXTRACT: note_on channel=9 note=82 velocity=0 time=0.055146999999999995
EXTRACT: note_on channel=9 note=82 velocity=50 time=0.07996315
EXTRACT: note_on channel=9 note=51 velocity=59 time=0.0055147
EXTRACT: note_on channel=7 note=54 velocity=0 time=0.0110294
EXTRACT: note_on channel=6 note=54 velocity=0 time=0
EXTRACT: note_on channel=6 note=54 velocity=48 time=0
EXTRACT: note_on channel=7 note=54 velocity=48 time=0
EXTRACT: note_on channel=6 note=66 velocity=0 time=0.007352933333333333
EXTRACT: note_on channel=7 note=66 velocity=0 time=0
EXTRACT: note_on channel=6 note=66 velocity=41 time=0
EXTRACT: note_on channel=7 note=66 velocity=41 time=0
EXTRACT: note_on channel=9 note=82 velocity=0 time=0.0716911
EXTRACT: note_on channel=9 note=51 velocity=0 time=0.0055147
EXTRACT: note_on channel=7 note=61 velocity=0 time=0.10294106666666666
EXTRACT: note_on channel=6 note=61 velocity=0 time=0
EXTRACT: note_on channel=6 note=61 velocity=51 time=0.014705866666666666
EXTRACT: note_on channel=7 note=61 velocity=51 time=0
EXTRACT: note_on channel=9 note=82 velocity=50 time=0.08731608333333334
EXTRACT: note_on channel=9 note=82 velocity=0 time=0.055146999999999995
EXTRACT: note_on channel=7 note=54 velocity=0 time=0.07444845
EXTRACT: note_on channel=6 note=54 velocity=0 time=0
EXTRACT: note_on channel=6 note=54 velocity=48 time=0.0036764666666666665
EXTRACT: note_on channel=7 note=54 velocity=48 time=0
EXTRACT: note_on channel=9 note=82 velocity=50 time=0.0018382333333333333
EXTRACT: note_on channel=6 note=66 velocity=0 time=0.0055147
EXTRACT: note_on channel=7 note=66 velocity=0 time=0
EXTRACT: note_on channel=6 note=66 velocity=44 time=0
EXTRACT: note_on channel=7 note=66 velocity=44 time=0
EXTRACT: note_on channel=9 note=51 velocity=74 time=0
EXTRACT: note_on channel=9 note=82 velocity=0 time=0.09007343333333333
EXTRACT: note_on channel=9 note=51 velocity=0 time=0.0055147
EXTRACT: note_on channel=7 note=61 velocity=0 time=0.0882352
EXTRACT: note_on channel=6 note=61 velocity=0 time=0
EXTRACT: note_on channel=6 note=61 velocity=71 time=0.029411733333333332
EXTRACT: note_on channel=7 note=61 velocity=71 time=0
EXTRACT: note_on channel=6 note=66 velocity=0 time=0.0036764666666666665
EXTRACT: note_on channel=7 note=66 velocity=0 time=0
EXTRACT: note_on channel=6 note=66 velocity=45 time=0
EXTRACT: note_on channel=7 note=66 velocity=45 time=0
EXTRACT: note_on channel=9 note=82 velocity=50 time=0.08363961666666667
EXTRACT: note_on channel=9 note=82 velocity=0 time=0.055146999999999995
EXTRACT: note_on channel=6 note=47 velocity=0 time=0.056066116666666665
EXTRACT: note_on channel=7 note=47 velocity=0 time=0
EXTRACT: note_on channel=7 note=61 velocity=0 time=0.0036764666666666665
EXTRACT: note_on channel=7 note=54 velocity=0 time=0
EXTRACT: note_on channel=6 note=54 velocity=0 time=0
EXTRACT: note_on channel=7 note=66 velocity=0 time=0
EXTRACT: note_on channel=6 note=66 velocity=0 time=0
EXTRACT: note_on channel=6 note=61 velocity=0 time=0
EXTRACT: note_on channel=6 note=47 velocity=88 time=0.018382333333333334
EXTRACT: note_on channel=6 note=42 velocity=73 time=0
EXTRACT: note_on channel=6 note=59 velocity=85 time=0
EXTRACT: note_on channel=6 note=54 velocity=88 time=0
EXTRACT: note_on channel=7 note=47 velocity=88 time=0
EXTRACT: note_on channel=7 note=42 velocity=73 time=0
EXTRACT: note_on channel=7 note=59 velocity=85 time=0
EXTRACT: note_on channel=7 note=54 velocity=88 time=0
EXTRACT: note_on channel=9 note=36 velocity=104 time=0.0009191166666666666
EXTRACT: note_on channel=9 note=82 velocity=50 time=0.0009191166666666666
EXTRACT: note_on channel=9 note=51 velocity=60 time=0.0055147
EXTRACT: note_on channel=1 note=42 velocity=0 time=0.0009191166666666666
EXTRACT: note_on channel=1 note=35 velocity=94 time=0.00275735
EXTRACT: note_on channel=9 note=82 velocity=0 time=0.09007343333333333
EXTRACT: note_on channel=9 note=51 velocity=0 time=0.0055147
EXTRACT: note_on channel=9 note=36 velocity=0 time=0.11488958333333332
EXTRACT: note_on channel=9 note=51 velocity=67 time=0.2261027
EXTRACT: note_on channel=9 note=51 velocity=0 time=0.0992646
EXTRACT: note_on channel=3 note=68 velocity=79 time=0.34007316666666665
EXTRACT: note_on channel=9 note=51 velocity=57 time=0.00275735
EXTRACT: note_on channel=9 note=51 velocity=0 time=0.09558813333333332
EXTRACT: note_on channel=3 note=68 velocity=0 time=0.3318011166666667
EXTRACT: note_on channel=9 note=51 velocity=69 time=0.00827205
EXTRACT: note_on channel=9 note=38 velocity=90 time=0.0018382333333333333
EXTRACT: note_on channel=3 note=68 velocity=79 time=0.0064338166666666665
EXTRACT: note_on channel=9 note=51 velocity=0 time=0.09099254999999999
EXTRACT: note_on channel=9 note=38 velocity=0 time=0.0018382333333333333
EXTRACT: note_on channel=3 note=68 velocity=0 time=0.33731581666666666
EXTRACT: note_on channel=9 note=51 velocity=91 time=0.0045955833333333335
EXTRACT: note_on channel=3 note=64 velocity=79 time=0.0064338166666666665
EXTRACT: note_on channel=9 note=51 velocity=0 time=0.09283078333333333
EXTRACT: note_on channel=9 note=38 velocity=90 time=0.20588213333333333
EXTRACT: note_on channel=9 note=38 velocity=0 time=0.0992646
EXTRACT: note_on channel=3 note=64 velocity=0 time=0.032169083333333334
EXTRACT: note_on channel=9 note=51 velocity=76 time=0.0036764666666666665
EXTRACT: note_on channel=3 note=64 velocity=79 time=0.0018382333333333333
EXTRACT: note_on channel=9 note=51 velocity=0 time=0.09742636666666667
EXTRACT: note_on channel=9 note=41 velocity=73 time=0.1985292
EXTRACT: note_on channel=7 note=54 velocity=0 time=0.06709551666666666
EXTRACT: note_on channel=6 note=47 velocity=0 time=0
EXTRACT: note_on channel=7 note=59 velocity=0 time=0
EXTRACT: note_on channel=6 note=54 velocity=0 time=0
EXTRACT: note_on channel=6 note=42 velocity=0 time=0
EXTRACT: note_on channel=7 note=47 velocity=0 time=0
EXTRACT: note_on channel=7 note=42 velocity=0 time=0
EXTRACT: note_on channel=6 note=59 velocity=0 time=0
EXTRACT: note_on channel=1 note=35 velocity=0 time=0.02389703333333333
EXTRACT: note_on channel=9 note=41 velocity=0 time=0.00827205
EXTRACT: note_on channel=3 note=64 velocity=0 time=0.03492643333333333
EXTRACT: note_on channel=6 note=45 velocity=70 time=0.0064338166666666665
EXTRACT: note_on channel=6 note=52 velocity=76 time=0
EXTRACT: note_on channel=6 note=68 velocity=100 time=0
EXTRACT: note_on channel=6 note=57 velocity=68 time=0
EXTRACT: note_on channel=7 note=45 velocity=66 time=0
EXTRACT: note_on channel=7 note=52 velocity=76 time=0
EXTRACT: note_on channel=7 note=68 velocity=77 time=0
EXTRACT: note_on channel=7 note=57 velocity=68 time=0
EXTRACT: note_on channel=9 note=82 velocity=50 time=0.0018382333333333333
EXTRACT: note_on channel=9 note=36 velocity=89 time=0
EXTRACT: note_on channel=1 note=33 velocity=94 time=0.00275735
EXTRACT: note_on channel=3 note=64 velocity=79 time=0
EXTRACT: note_on channel=9 note=51 velocity=83 time=0.00275735
EXTRACT: note_on channel=9 note=82 velocity=0 time=0.0937499
EXTRACT: note_on channel=9 note=51 velocity=0 time=0.0055147
EXTRACT: note_on channel=3 note=61 velocity=79 time=0.10294106666666666
EXTRACT: note_on channel=3 note=64 velocity=0 time=0.0055147
EXTRACT: note_on channel=9 note=36 velocity=0 time=0.007352933333333333
EXTRACT: note_on channel=9 note=82 velocity=50 time=0.06893375
EXTRACT: note_on channel=9 note=82 velocity=0 time=0.055146999999999995
EXTRACT: note_on channel=7 note=68 velocity=0 time=0.08363961666666667
EXTRACT: note_on channel=7 note=68 velocity=42 time=0.0110294
EXTRACT: note_on channel=9 note=82 velocity=50 time=0.0045955833333333335
EXTRACT: note_on channel=9 note=51 velocity=73 time=0.0055147
EXTRACT: note_on channel=9 note=82 velocity=0 time=0.09007343333333333
EXTRACT: note_on channel=9 note=51 velocity=0 time=0.0055147
EXTRACT: note_on channel=3 note=61 velocity=0 time=0.09283078333333333
EXTRACT: note_on channel=9 note=82 velocity=50 time=0.0937499
EXTRACT: note_on channel=9 note=82 velocity=0 time=0.055146999999999995
EXTRACT: note_on channel=7 note=52 velocity=0 time=0.06433816666666667
EXTRACT: note_on channel=6 note=52 velocity=0 time=0
EXTRACT: note_on channel=7 note=68 velocity=0 time=0.029411733333333332
EXTRACT: note_on channel=6 note=52 velocity=51 time=0
EXTRACT: note_on channel=7 note=52 velocity=51 time=0
EXTRACT: note_on channel=7 note=68 velocity=51 time=0
EXTRACT: note_on channel=9 note=82 velocity=50 time=0.0045955833333333335
EXTRACT: note_on channel=6 note=57 velocity=0 time=0.00275735
EXTRACT: note_on channel=7 note=57 velocity=0 time=0
EXTRACT: note_on channel=6 note=57 velocity=46 time=0
EXTRACT: note_on channel=7 note=57 velocity=46 time=0
EXTRACT: note_on channel=9 note=51 velocity=74 time=0.00275735
EXTRACT: note_on channel=9 note=82 velocity=0 time=0.09007343333333333
EXTRACT: note_on channel=9 note=51 velocity=0 time=0.0055147
EXTRACT: note_on channel=6 note=57 velocity=0 time=0.08180138333333332
EXTRACT: note_on channel=7 note=57 velocity=0 time=0
EXTRACT: note_on channel=6 note=57 velocity=51 time=0.0330882
EXTRACT: note_on channel=7 note=57 velocity=51 time=0
EXTRACT: note_on channel=9 note=82 velocity=50 time=0.07077198333333333
EXTRACT: note_on channel=9 note=82 velocity=0 time=0.055146999999999995
EXTRACT: note_on channel=7 note=52 velocity=0 time=0.04687495
EXTRACT: note_on channel=6 note=52 velocity=0 time=0
EXTRACT: note_on channel=6 note=57 velocity=0 time=0.0036764666666666665
EXTRACT: note_on channel=7 note=57 velocity=0 time=0
EXTRACT: note_on channel=7 note=68 velocity=0 time=0.007352933333333333
EXTRACT: note_on channel=6 note=68 velocity=0 time=0.02389703333333333
EXTRACT: note_on channel=6 note=66 velocity=100 time=0.010110283333333333
EXTRACT: note_on channel=6 note=52 velocity=61 time=0.00275735
EXTRACT: note_on channel=6 note=57 velocity=82 time=0
EXTRACT: note_on channel=7 note=52 velocity=61 time=0
EXTRACT: note_on channel=7 note=68 velocity=76 time=0
EXTRACT: note_on channel=7 note=57 velocity=82 time=0
EXTRACT: note_on channel=9 note=82 velocity=50 time=0.0036764666666666665
EXTRACT: note_on channel=9 note=44 velocity=82 time=0.00275735
EXTRACT: note_on channel=9 note=38 velocity=90 time=0.00275735
EXTRACT: note_on channel=9 note=51 velocity=79 time=0
EXTRACT: note_on channel=9 note=82 velocity=0 time=0.0937499
EXTRACT: note_on channel=9 note=38 velocity=0 time=0.0018382333333333333
EXTRACT: note_on channel=9 note=51 velocity=0 time=0.0036764666666666665
EXTRACT: note_on channel=9 note=44 velocity=0 time=0.11856604999999999
EXTRACT: note_on channel=9 note=82 velocity=50 time=0.04871318333333333
EXTRACT: note_on channel=9 note=82 velocity=0 time=0.055146999999999995
EXTRACT: note_on channel=7 note=68 velocity=0 time=0.062499933333333334
EXTRACT: note_on channel=7 note=52 velocity=0 time=0.0036764666666666665
EXTRACT: note_on channel=6 note=52 velocity=0 time=0
EXTRACT: note_on channel=6 note=52 velocity=45 time=0.0441176
EXTRACT: note_on channel=7 note=52 velocity=45 time=0
EXTRACT: note_on channel=7 note=68 velocity=29 time=0
EXTRACT: note_on channel=9 note=82 velocity=50 time=0.0018382333333333333
EXTRACT: note_on channel=9 note=51 velocity=59 time=0.0055147
EXTRACT: note_on channel=9 note=82 velocity=0 time=0.09007343333333333
EXTRACT: note_on channel=9 note=51 velocity=0 time=0.0055147
EXTRACT: note_on channel=7 note=57 velocity=0 time=0.07352933333333334
EXTRACT: note_on channel=6 note=57 velocity=0 time=0
EXTRACT: note_on channel=7 note=45 velocity=0 time=0.014705866666666666
EXTRACT: note_on channel=6 note=45 velocity=0 time=0
EXTRACT: note_on channel=6 note=45 velocity=47 time=0.029411733333333332
EXTRACT: note_on channel=6 note=57 velocity=34 time=0
EXTRACT: note_on channel=7 note=45 velocity=47 time=0
EXTRACT: note_on channel=7 note=57 velocity=34 time=0
EXTRACT: note_on channel=9 note=82 velocity=50 time=0.08731608333333334
EXTRACT: note_on channel=9 note=82 velocity=0 time=0.055146999999999995
EXTRACT: note_on channel=7 note=57 velocity=0 time=0.03033085
EXTRACT: note_on channel=6 note=57 velocity=0 time=0
EXTRACT: note_on channel=7 note=52 velocity=0 time=0.007352933333333333
EXTRACT: note_on channel=6 note=52 velocity=0 time=0
EXTRACT: note_on channel=7 note=45 velocity=0 time=0.018382333333333334
EXTRACT: note_on channel=6 note=45 velocity=0 time=0
EXTRACT: note_on channel=7 note=68 velocity=0 time=0.0110294
EXTRACT: note_on channel=6 note=45 velocity=31 time=0.0110294
EXTRACT: note_on channel=6 note=52 velocity=37 time=0
EXTRACT: note_on channel=6 note=57 velocity=44 time=0
EXTRACT: note_on channel=7 note=45 velocity=31 time=0
EXTRACT: note_on channel=7 note=52 velocity=37 time=0
EXTRACT: note_on channel=7 note=68 velocity=41 time=0
EXTRACT: note_on channel=7 note=57 velocity=44 time=0
EXTRACT: note_on channel=9 note=82 velocity=50 time=0.0018382333333333333
EXTRACT: note_on channel=9 note=51 velocity=74 time=0.0055147
EXTRACT: note_on channel=9 note=82 velocity=0 time=0.09007343333333333
EXTRACT: note_on channel=9 note=51 velocity=0 time=0.0055147
EXTRACT: note_on channel=6 note=57 velocity=0 time=0.0882352
EXTRACT: note_on channel=7 note=57 velocity=0 time=0
EXTRACT: note_on channel=6 note=57 velocity=37 time=0.03676466666666667
EXTRACT: note_on channel=7 note=57 velocity=37 time=0
EXTRACT: note_on channel=9 note=82 velocity=50 time=0.07996315
EXTRACT: note_on channel=9 note=82 velocity=0 time=0.055146999999999995
EXTRACT: note_on channel=1 note=33 velocity=0 time=0.0220588
EXTRACT: note_on channel=7 note=68 velocity=0 time=0.03400731666666666
EXTRACT: note_on channel=6 note=57 velocity=0 time=0.0036764666666666665
EXTRACT: note_on channel=7 note=45 velocity=0 time=0
EXTRACT: note_on channel=6 note=45 velocity=0 time=0
EXTRACT: note_on channel=6 note=52 velocity=0 time=0
EXTRACT: note_on channel=7 note=57 velocity=0 time=0
EXTRACT: note_on channel=7 note=52 velocity=0 time=0
EXTRACT: note_on channel=6 note=66 velocity=0 time=0.0055147
EXTRACT: note_on channel=6 note=45 velocity=80 time=0.012867633333333333
EXTRACT: note_on channel=6 note=52 velocity=76 time=0
EXTRACT: note_on channel=6 note=68 velocity=100 time=0
EXTRACT: note_on channel=6 note=57 velocity=68 time=0
EXTRACT: note_on channel=7 note=45 velocity=66 time=0
EXTRACT: note_on channel=7 note=52 velocity=76 time=0
EXTRACT: note_on channel=7 note=68 velocity=77 time=0
EXTRACT: note_on channel=7 note=57 velocity=68 time=0
EXTRACT: note_on channel=9 note=82 velocity=50 time=0.0018382333333333333
EXTRACT: note_on channel=9 note=36 velocity=89 time=0
EXTRACT: note_on channel=1 note=33 velocity=94 time=0.00275735
EXTRACT: note_on channel=9 note=51 velocity=83 time=0.00275735
EXTRACT: note_on channel=9 note=82 velocity=0 time=0.0937499
EXTRACT: note_on channel=9 note=51 velocity=0 time=0.0055147
EXTRACT: note_on channel=9 note=36 velocity=0 time=0.1158087
EXTRACT: note_on channel=9 note=82 velocity=50 time=0.06893375
EXTRACT: note_on channel=9 note=82 velocity=0 time=0.055146999999999995
EXTRACT: note_on channel=7 note=68 velocity=0 time=0.08363961666666667
EXTRACT: note_on channel=7 note=68 velocity=42 time=0.0110294
EXTRACT: note_on channel=9 note=82 velocity=50 time=0.0045955833333333335
EXTRACT: note_on channel=9 note=51 velocity=73 time=0.0055147
EXTRACT: note_on channel=9 note=82 velocity=0 time=0.09007343333333333
EXTRACT: note_on channel=9 note=51 velocity=0 time=0.0055147
EXTRACT: note_on channel=9 note=82 velocity=50 time=0.18658068333333333
EXTRACT: note_on channel=9 note=82 velocity=0 time=0.055146999999999995
EXTRACT: note_on channel=7 note=52 velocity=0 time=0.06433816666666667
EXTRACT: note_on channel=6 note=52 velocity=0 time=0
EXTRACT: note_on channel=7 note=68 velocity=0 time=0.029411733333333332
EXTRACT: note_on channel=6 note=52 velocity=51 time=0
EXTRACT: note_on channel=7 note=52 velocity=51 time=0
EXTRACT: note_on channel=7 note=68 velocity=51 time=0
EXTRACT: note_on channel=9 note=82 velocity=50 time=0.0045955833333333335
EXTRACT: note_on channel=6 note=57 velocity=0 time=0.00275735
EXTRACT: note_on channel=7 note=57 velocity=0 time=0
EXTRACT: note_on channel=6 note=57 velocity=46 time=0
EXTRACT: note_on channel=7 note=57 velocity=46 time=0
EXTRACT: note_on channel=9 note=51 velocity=74 time=0.00275735
EXTRACT: note_on channel=9 note=82 velocity=0 time=0.09007343333333333
EXTRACT: note_on channel=9 note=51 velocity=0 time=0.0055147
EXTRACT: note_on channel=6 note=57 velocity=0 time=0.08180138333333332
EXTRACT: note_on channel=7 note=57 velocity=0 time=0
EXTRACT: note_on channel=6 note=57 velocity=51 time=0.0330882
EXTRACT: note_on channel=7 note=57 velocity=51 time=0
EXTRACT: note_on channel=9 note=82 velocity=50 time=0.07077198333333333
EXTRACT: note_on channel=9 note=82 velocity=0 time=0.055146999999999995
EXTRACT: note_on channel=7 note=52 velocity=0 time=0.04687495
EXTRACT: note_on channel=6 note=52 velocity=0 time=0
EXTRACT: note_on channel=6 note=57 velocity=0 time=0.0036764666666666665
EXTRACT: note_on channel=7 note=57 velocity=0 time=0
EXTRACT: note_on channel=7 note=68 velocity=0 time=0.007352933333333333
EXTRACT: note_on channel=6 note=68 velocity=0 time=0.029411733333333332
EXTRACT: note_on channel=6 note=66 velocity=100 time=0.0045955833333333335
EXTRACT: note_on channel=6 note=52 velocity=61 time=0.00275735
EXTRACT: note_on channel=6 note=57 velocity=82 time=0
EXTRACT: note_on channel=7 note=52 velocity=61 time=0
EXTRACT: note_on channel=7 note=68 velocity=76 time=0
EXTRACT: note_on channel=7 note=57 velocity=82 time=0
EXTRACT: note_on channel=9 note=50 velocity=111 time=0
EXTRACT: note_on channel=9 note=38 velocity=90 time=0.0036764666666666665
EXTRACT: note_on channel=9 note=50 velocity=112 time=0.0165441
EXTRACT: note_on channel=9 note=50 velocity=0 time=0.0606617
EXTRACT: note_on channel=9 note=38 velocity=0 time=0.0220588
EXTRACT: note_on channel=9 note=50 velocity=0 time=0.16911746666666666
EXTRACT: note_on channel=7 note=68 velocity=0 time=0.1213234
EXTRACT: note_on channel=7 note=52 velocity=0 time=0.0036764666666666665
EXTRACT: note_on channel=6 note=52 velocity=0 time=0
EXTRACT: note_on channel=6 note=52 velocity=45 time=0.0441176
EXTRACT: note_on channel=7 note=52 velocity=45 time=0
EXTRACT: note_on channel=7 note=68 velocity=29 time=0
EXTRACT: note_on channel=9 note=47 velocity=112 time=0.00275735
EXTRACT: note_on channel=7 note=57 velocity=0 time=0.17371304999999998
EXTRACT: note_on channel=6 note=57 velocity=0 time=0
EXTRACT: note_on channel=7 note=45 velocity=0 time=0.014705866666666666
EXTRACT: note_on channel=6 note=45 velocity=0 time=0
EXTRACT: note_on channel=6 note=45 velocity=47 time=0.029411733333333332
EXTRACT: note_on channel=6 note=57 velocity=34 time=0
EXTRACT: note_on channel=7 note=45 velocity=47 time=0
EXTRACT: note_on channel=7 note=57 velocity=34 time=0
EXTRACT: note_on channel=9 note=47 velocity=0 time=0.03768378333333333
EXTRACT: note_on channel=9 note=38 velocity=90 time=0.05055141666666666
EXTRACT: note_on channel=7 note=57 velocity=0 time=0.08455873333333333
EXTRACT: note_on channel=6 note=57 velocity=0 time=0
EXTRACT: note_on channel=7 note=52 velocity=0 time=0.007352933333333333
EXTRACT: note_on channel=6 note=52 velocity=0 time=0
EXTRACT: note_on channel=9 note=38 velocity=0 time=0.007352933333333333
EXTRACT: note_on channel=7 note=45 velocity=0 time=0.0110294
EXTRACT: note_on channel=6 note=45 velocity=0 time=0
EXTRACT: note_on channel=7 note=68 velocity=0 time=0.0110294
EXTRACT: note_on channel=3 note=56 velocity=100 time=0.009191166666666667
EXTRACT: note_on channel=6 note=45 velocity=31 time=0.0018382333333333333
EXTRACT: note_on channel=6 note=52 velocity=37 time=0
EXTRACT: note_on channel=6 note=57 velocity=44 time=0
EXTRACT: note_on channel=7 note=45 velocity=31 time=0
EXTRACT: note_on channel=7 note=52 velocity=37 time=0
EXTRACT: note_on channel=7 note=68 velocity=41 time=0
EXTRACT: note_on channel=7 note=57 velocity=44 time=0
EXTRACT: note_on channel=9 note=43 velocity=112 time=0.00275735
EXTRACT: note_on channel=7 note=57 velocity=0 time=0.18841891666666666
EXTRACT: note_on channel=6 note=57 velocity=0 time=0
EXTRACT: note_on channel=3 note=56 velocity=0 time=0.02481615
EXTRACT: note_on channel=3 note=56 velocity=100 time=0.0055147
EXTRACT: note_on channel=6 note=57 velocity=37 time=0.0064338166666666665
EXTRACT: note_on channel=7 note=57 velocity=37 time=0
EXTRACT: note_on channel=9 note=43 velocity=0 time=0.025735266666666666
EXTRACT: note_on channel=1 note=33 velocity=0 time=0.13143368333333333
EXTRACT: note_on channel=7 note=68 velocity=0 time=0.03400731666666666
EXTRACT: note_on channel=6 note=52 velocity=0 time=0
EXTRACT: note_on channel=7 note=52 velocity=0 time=0
EXTRACT: note_on channel=7 note=45 velocity=0 time=0
EXTRACT: note_on channel=6 note=45 velocity=0 time=0
EXTRACT: note_on channel=7 note=57 velocity=0 time=0
EXTRACT: note_on channel=6 note=57 velocity=0 time=0
EXTRACT: note_on channel=1 note=30 velocity=112 time=0
EXTRACT: note_on channel=5 note=42 velocity=44 time=0
EXTRACT: note_on channel=5 note=81 velocity=28 time=0
EXTRACT: note_on channel=5 note=78 velocity=5 time=0
EXTRACT: note_on channel=5 note=73 velocity=50 time=0
EXTRACT: note_on channel=5 note=66 velocity=6 time=0
EXTRACT: note_on channel=6 note=49 velocity=76 time=0
EXTRACT: note_on channel=6 note=42 velocity=71 time=0
EXTRACT: note_on channel=6 note=54 velocity=72 time=0
EXTRACT: note_on channel=7 note=49 velocity=76 time=0
EXTRACT: note_on channel=7 note=42 velocity=71 time=0
EXTRACT: note_on channel=7 note=54 velocity=72 time=0
EXTRACT: note_on channel=6 note=66 velocity=0 time=0.0055147
EXTRACT: note_on channel=3 note=56 velocity=0 time=0.0110294
EXTRACT: note_on channel=3 note=57 velocity=100 time=0
EXTRACT: note_on channel=9 note=36 velocity=89 time=0.0036764666666666665
EXTRACT: note_on channel=9 note=82 velocity=50 time=0
EXTRACT: note_on channel=9 note=51 velocity=83 time=0.0055147
EXTRACT: note_on channel=9 note=82 velocity=0 time=0.0937499
EXTRACT: note_on channel=9 note=51 velocity=0 time=0.0055147
EXTRACT: note_on channel=3 note=57 velocity=0 time=0.10937488333333333
EXTRACT: note_on channel=3 note=56 velocity=100 time=0.0055147
EXTRACT: note_on channel=9 note=36 velocity=0 time=0.0009191166666666666
EXTRACT: note_on channel=9 note=82 velocity=50 time=0.06893375
EXTRACT: note_on channel=9 note=82 velocity=0 time=0.055146999999999995
EXTRACT: note_on channel=7 note=49 velocity=0 time=0.05055141666666666
EXTRACT: note_on channel=6 note=49 velocity=0 time=0
EXTRACT: note_on channel=1 note=30 velocity=0 time=0.0036764666666666665
EXTRACT: note_on channel=6 note=54 velocity=0 time=0.0220588
EXTRACT: note_on channel=7 note=54 velocity=0 time=0
EXTRACT: note_on channel=1 note=30 velocity=103 time=0
EXTRACT: note_on channel=6 note=49 velocity=52 time=0
EXTRACT: note_on channel=6 note=54 velocity=45 time=0
EXTRACT: note_on channel=7 note=49 velocity=52 time=0
EXTRACT: note_on channel=7 note=54 velocity=45 time=0
EXTRACT: note_on channel=3 note=56 velocity=0 time=0.0165441
EXTRACT: note_on channel=3 note=57 velocity=100 time=0
EXTRACT: note_on channel=9 note=82 velocity=50 time=0.0064338166666666665
EXTRACT: note_on channel=9 note=51 velocity=73 time=0.0055147
EXTRACT: note_on channel=9 note=82 velocity=0 time=0.09007343333333333
EXTRACT: note_on channel=9 note=51 velocity=0 time=0.0055147
EXTRACT: note_on channel=7 note=54 velocity=0 time=0.04136025
EXTRACT: note_on channel=6 note=54 velocity=0 time=0
EXTRACT: note_on channel=6 note=54 velocity=42 time=0.055146999999999995
EXTRACT: note_on channel=7 note=54 velocity=42 time=0
EXTRACT: note_on channel=3 note=57 velocity=0 time=0.013786749999999999
EXTRACT: note_on channel=3 note=56 velocity=100 time=0.0055147
EXTRACT: note_on channel=9 note=82 velocity=50 time=0.07077198333333333
EXTRACT: note_on channel=9 note=82 velocity=0 time=0.055146999999999995
EXTRACT: note_on channel=1 note=30 velocity=0 time=0.042279366666666665
EXTRACT: note_on channel=6 note=49 velocity=0 time=0.0110294
EXTRACT: note_on channel=7 note=49 velocity=0 time=0
EXTRACT: note_on channel=1 note=30 velocity=96 time=0.0220588
EXTRACT: note_on channel=6 note=49 velocity=56 time=0
EXTRACT: note_on channel=7 note=49 velocity=56 time=0
EXTRACT: note_on channel=6 note=54 velocity=0 time=0.007352933333333333
EXTRACT: note_on channel=7 note=54 velocity=0 time=0
EXTRACT: note_on channel=6 note=54 velocity=77 time=0
EXTRACT: note_on channel=7 note=54 velocity=77 time=0
EXTRACT: note_on channel=3 note=56 velocity=0 time=0.009191166666666667
EXTRACT: note_on channel=3 note=57 velocity=100 time=0
EXTRACT: note_on channel=9 note=82 velocity=50 time=0.0064338166666666665
EXTRACT: note_on channel=9 note=51 velocity=74 time=0.0055147
EXTRACT: note_on channel=9 note=82 velocity=0 time=0.09007343333333333
EXTRACT: note_on channel=9 note=51 velocity=0 time=0.0055147
EXTRACT: note_on channel=6 note=54 velocity=0 time=0.06341904999999999
EXTRACT: note_on channel=7 note=54 velocity=0 time=0
EXTRACT: note_on channel=6 note=54 velocity=58 time=0.0330882
EXTRACT: note_on channel=7 note=54 velocity=58 time=0
EXTRACT: note_on channel=3 note=57 velocity=0 time=0.013786749999999999
EXTRACT: note_on channel=3 note=56 velocity=100 time=0.0055147
EXTRACT: note_on channel=9 note=82 velocity=50 time=0.06985286666666667
EXTRACT: note_on channel=9 note=82 velocity=0 time=0.055146999999999995
EXTRACT: note_on channel=7 note=42 velocity=0 time=0.013786749999999999
EXTRACT: note_on channel=6 note=42 velocity=0 time=0
EXTRACT: note_on channel=1 note=30 velocity=0 time=0.018382333333333334
EXTRACT: note_on channel=6 note=54 velocity=0 time=0
EXTRACT: note_on channel=7 note=54 velocity=0 time=0
EXTRACT: note_on channel=7 note=49 velocity=0 time=0.0441176
EXTRACT: note_on channel=6 note=49 velocity=0 time=0
EXTRACT: note_on channel=1 note=30 velocity=94 time=0
EXTRACT: note_on channel=6 note=54 velocity=71 time=0
EXTRACT: note_on channel=6 note=42 velocity=75 time=0
EXTRACT: note_on channel=6 note=49 velocity=39 time=0
EXTRACT: note_on channel=7 note=54 velocity=71 time=0
EXTRACT: note_on channel=7 note=42 velocity=75 time=0
EXTRACT: note_on channel=7 note=49 velocity=39 time=0
EXTRACT: note_on channel=3 note=56 velocity=0 time=0.0165441
EXTRACT: note_on channel=3 note=57 velocity=100 time=0
EXTRACT: note_on channel=9 note=82 velocity=50 time=0.0055147
EXTRACT: note_on channel=9 note=44 velocity=82 time=0.00275735
EXTRACT: note_on channel=9 note=38 velocity=90 time=0.00275735
EXTRACT: note_on channel=9 note=51 velocity=79 time=0
EXTRACT: note_on channel=9 note=82 velocity=0 time=0.0937499
EXTRACT: note_on channel=9 note=38 velocity=0 time=0.0018382333333333333
EXTRACT: note_on channel=9 note=51 velocity=0 time=0.0036764666666666665
EXTRACT: note_on channel=3 note=57 velocity=0 time=0.10753665
EXTRACT: note_on channel=9 note=44 velocity=0 time=0.0110294
EXTRACT: note_on channel=3 note=56 velocity=100 time=0
EXTRACT: note_on channel=9 note=82 velocity=50 time=0.04871318333333333
EXTRACT: note_on channel=9 note=82 velocity=0 time=0.055146999999999995
EXTRACT: note_on channel=1 note=30 velocity=0 time=0.09191166666666667
EXTRACT: note_on channel=1 note=30 velocity=96 time=0
EXTRACT: note_on channel=9 note=82 velocity=50 time=0.020220566666666665
EXTRACT: note_on channel=6 note=49 velocity=0 time=0.0018382333333333333
EXTRACT: note_on channel=7 note=49 velocity=0 time=0
EXTRACT: note_on channel=3 note=56 velocity=0 time=0
EXTRACT: note_on channel=3 note=57 velocity=100 time=0
EXTRACT: note_on channel=6 note=49 velocity=57 time=0
EXTRACT: note_on channel=7 note=49 velocity=57 time=0
EXTRACT: note_on channel=9 note=51 velocity=59 time=0.0036764666666666665
EXTRACT: note_on channel=7 note=54 velocity=0 time=0.0110294
EXTRACT: note_on channel=6 note=54 velocity=0 time=0
EXTRACT: note_on channel=9 note=82 velocity=0 time=0.07904403333333333
EXTRACT: note_on channel=9 note=51 velocity=0 time=0.0055147
EXTRACT: note_on channel=6 note=54 velocity=61 time=0.0992646
EXTRACT: note_on channel=7 note=54 velocity=61 time=0
EXTRACT: note_on channel=3 note=57 velocity=0 time=0.019301449999999998
EXTRACT: note_on channel=3 note=56 velocity=100 time=0
EXTRACT: note_on channel=9 note=82 velocity=50 time=0.08639696666666666
EXTRACT: note_on channel=9 note=82 velocity=0 time=0.055146999999999995
EXTRACT: note_on channel=6 note=42 velocity=0 time=0.03033085
EXTRACT: note_on channel=7 note=42 velocity=0 time=0
EXTRACT: note_on channel=1 note=30 velocity=0 time=0.029411733333333332
EXTRACT: note_on channel=1 note=30 velocity=96 time=0
EXTRACT: note_on channel=6 note=49 velocity=0 time=0.007352933333333333
EXTRACT: note_on channel=7 note=49 velocity=0 time=0
EXTRACT: note_on channel=6 note=42 velocity=43 time=0
EXTRACT: note_on channel=6 note=49 velocity=53 time=0
EXTRACT: note_on channel=7 note=42 velocity=43 time=0
EXTRACT: note_on channel=7 note=49 velocity=53 time=0
EXTRACT: note_on channel=7 note=54 velocity=0 time=0.0036764666666666665
EXTRACT: note_on channel=6 note=54 velocity=0 time=0
EXTRACT: note_on channel=6 note=54 velocity=76 time=0
EXTRACT: note_on channel=7 note=54 velocity=76 time=0
EXTRACT: note_on channel=3 note=56 velocity=0 time=0.0055147
EXTRACT: note_on channel=3 note=57 velocity=100 time=0
EXTRACT: note_on channel=9 note=82 velocity=50 time=0.0036764666666666665
EXTRACT: note_on channel=9 note=51 velocity=74 time=0.0055147
EXTRACT: note_on channel=9 note=82 velocity=0 time=0.09007343333333333
EXTRACT: note_on channel=9 note=51 velocity=0 time=0.0055147
EXTRACT: note_on channel=1 note=30 velocity=0 time=0.0441176
EXTRACT: note_on channel=6 note=54 velocity=0 time=0.018382333333333334
EXTRACT: note_on channel=7 note=54 velocity=0 time=0
EXTRACT: note_on channel=1 note=30 velocity=78 time=0.03676466666666667
EXTRACT: note_on channel=6 note=54 velocity=57 time=0
EXTRACT: note_on channel=7 note=54 velocity=57 time=0
EXTRACT: note_on channel=3 note=57 velocity=0 time=0.013786749999999999
EXTRACT: note_on channel=3 note=56 velocity=100 time=0.0055147
EXTRACT: note_on channel=9 note=82 velocity=50 time=0.08639696666666666
EXTRACT: note_on channel=1 note=30 velocity=0 time=0.03768378333333333
EXTRACT: note_on channel=9 note=82 velocity=0 time=0.017463216666666666
EXTRACT: note_on channel=5 note=42 velocity=0 time=0.03033085
EXTRACT: note_on channel=5 note=78 velocity=0 time=0
EXTRACT: note_on channel=5 note=81 velocity=0 time=0
EXTRACT: note_on channel=5 note=66 velocity=0 time=0
EXTRACT: note_on channel=5 note=73 velocity=0 time=0
EXTRACT: note_on channel=7 note=49 velocity=0 time=0.0110294
EXTRACT: note_on channel=6 note=54 velocity=0 time=0
EXTRACT: note_on channel=6 note=49 velocity=0 time=0
EXTRACT: note_on channel=7 note=54 velocity=0 time=0
EXTRACT: note_on channel=6 note=42 velocity=0 time=0.0036764666666666665
EXTRACT: note_on channel=7 note=42 velocity=0 time=0
EXTRACT: note_on channel=1 note=30 velocity=109 time=0.014705866666666666
EXTRACT: note_on channel=5 note=42 velocity=44 time=0
EXTRACT: note_on channel=5 note=90 velocity=15 time=0
EXTRACT: note_on channel=5 note=78 velocity=28 time=0
EXTRACT: note_on channel=6 note=42 velocity=78 time=0
EXTRACT: note_on channel=6 note=49 velocity=63 time=0
EXTRACT: note_on channel=6 note=54 velocity=75 time=0
EXTRACT: note_on channel=7 note=42 velocity=78 time=0
EXTRACT: note_on channel=7 note=49 velocity=63 time=0
EXTRACT: note_on channel=7 note=54 velocity=75 time=0
EXTRACT: note_on channel=3 note=56 velocity=0 time=0.0165441
EXTRACT: note_on channel=9 note=36 velocity=104 time=0.00275735
EXTRACT: note_on channel=9 note=82 velocity=50 time=0.0009191166666666666
EXTRACT: note_on channel=3 note=57 velocity=100 time=0.0018382333333333333
EXTRACT: note_on channel=9 note=51 velocity=60 time=0.0036764666666666665
EXTRACT: note_on channel=9 note=82 velocity=0 time=0.0937499
EXTRACT: note_on channel=9 note=51 velocity=0 time=0.0055147
EXTRACT: note_on channel=9 note=36 velocity=0 time=0.11488958333333332
EXTRACT: note_on channel=3 note=57 velocity=0 time=0
EXTRACT: note_on channel=3 note=56 velocity=100 time=0.0055147
EXTRACT: note_on channel=9 note=82 velocity=50 time=0.08088226666666666
EXTRACT: note_on channel=9 note=82 velocity=0 time=0.055146999999999995
EXTRACT: note_on channel=7 note=54 velocity=0 time=0.04871318333333333
EXTRACT: note_on channel=1 note=30 velocity=0 time=0
EXTRACT: note_on channel=6 note=54 velocity=0 time=0
EXTRACT: note_on channel=7 note=49 velocity=0 time=0.007352933333333333
EXTRACT: note_on channel=6 note=49 velocity=0 time=0
EXTRACT: note_on channel=1 note=30 velocity=92 time=0.0036764666666666665
EXTRACT: note_on channel=6 note=49 velocity=41 time=0
EXTRACT: note_on channel=7 note=49 velocity=41 time=0
EXTRACT: note_on channel=6 note=54 velocity=41 time=0.018382333333333334
EXTRACT: note_on channel=7 note=54 velocity=41 time=0
EXTRACT: note_on channel=9 note=82 velocity=50 time=0.0009191166666666666
EXTRACT: note_on channel=3 note=56 velocity=0 time=0.00275735
EXTRACT: note_on channel=3 note=57 velocity=100 time=0
EXTRACT: note_on channel=9 note=51 velocity=67 time=0.00275735
EXTRACT: note_on channel=9 note=82 velocity=0 time=0.0937499
EXTRACT: note_on channel=9 note=51 velocity=0 time=0.0055147
EXTRACT: note_on channel=7 note=54 velocity=0 time=0.07077198333333333
EXTRACT: note_on channel=6 note=54 velocity=0 time=0
EXTRACT: note_on channel=6 note=54 velocity=56 time=0.025735266666666666
EXTRACT: note_on channel=7 note=54 velocity=56 time=0
EXTRACT: note_on channel=3 note=57 velocity=0 time=0.019301449999999998
EXTRACT: note_on channel=3 note=56 velocity=100 time=0
EXTRACT: note_on channel=9 note=82 velocity=50 time=0.08639696666666666
EXTRACT: note_on channel=9 note=82 velocity=0 time=0.055146999999999995
EXTRACT: note_on channel=1 note=30 velocity=0 time=0.0045955833333333335
EXTRACT: note_on channel=6 note=49 velocity=0 time=0.04044113333333333
EXTRACT: note_on channel=7 note=49 velocity=0 time=0
EXTRACT: note_on channel=6 note=54 velocity=0 time=0.014705866666666666
EXTRACT: note_on channel=7 note=54 velocity=0 time=0
EXTRACT: note_on channel=1 note=30 velocity=94 time=0
EXTRACT: note_on channel=6 note=49 velocity=53 time=0
EXTRACT: note_on channel=6 note=54 velocity=72 time=0
EXTRACT: note_on channel=7 note=49 velocity=53 time=0
EXTRACT: note_on channel=7 note=54 velocity=72 time=0
EXTRACT: note_on channel=3 note=56 velocity=0 time=0.0165441
EXTRACT: note_on channel=9 note=82 velocity=50 time=0.0036764666666666665
EXTRACT: note_on channel=3 note=57 velocity=100 time=0.0018382333333333333
EXTRACT: note_on channel=9 note=51 velocity=57 time=0.0036764666666666665
EXTRACT: note_on channel=9 note=82 velocity=0 time=0.09007343333333333
EXTRACT: note_on channel=9 note=51 velocity=0 time=0.0055147
EXTRACT: note_on channel=1 note=30 velocity=0 time=0.05147053333333333
EXTRACT: note_on channel=7 note=54 velocity=0 time=0.0220588
EXTRACT: note_on channel=6 note=54 velocity=0 time=0
EXTRACT: note_on channel=1 note=30 velocity=81 time=0.025735266666666666
EXTRACT: note_on channel=6 note=54 velocity=50 time=0
EXTRACT: note_on channel=7 note=54 velocity=50 time=0
EXTRACT: note_on channel=3 note=57 velocity=0 time=0.019301449999999998
EXTRACT: note_on channel=3 note=56 velocity=100 time=0
EXTRACT: note_on channel=9 note=82 velocity=50 time=0.08639696666666666
EXTRACT: note_on channel=9 note=82 velocity=0 time=0.055146999999999995
EXTRACT: note_on channel=7 note=42 velocity=0 time=0.011948516666666666
EXTRACT: note_on channel=6 note=42 velocity=0 time=0
EXTRACT: note_on channel=6 note=49 velocity=0 time=0.0036764666666666665
EXTRACT: note_on channel=7 note=49 velocity=0 time=0
EXTRACT: note_on channel=6 note=54 velocity=0 time=0.0036764666666666665
EXTRACT: note_on channel=7 note=54 velocity=0 time=0
EXTRACT: note_on channel=6 note=54 velocity=75 time=0.04044113333333333
EXTRACT: note_on channel=6 note=42 velocity=50 time=0
EXTRACT: note_on channel=7 note=54 velocity=75 time=0
EXTRACT: note_on channel=7 note=42 velocity=50 time=0
EXTRACT: note_on channel=9 note=82 velocity=50 time=0.014705866666666666
EXTRACT: note_on channel=3 note=56 velocity=0 time=0.0018382333333333333
EXTRACT: note_on channel=3 note=57 velocity=100 time=0
EXTRACT: note_on channel=9 note=51 velocity=69 time=0.0036764666666666665
EXTRACT: note_on channel=1 note=30 velocity=0 time=0.0018382333333333333
EXTRACT: note_on channel=1 note=30 velocity=100 time=0
EXTRACT: note_on channel=9 note=38 velocity=90 time=0
EXTRACT: note_on channel=9 note=82 velocity=0 time=0.09191166666666667
EXTRACT: note_on channel=9 note=51 velocity=0 time=0.0055147
EXTRACT: note_on channel=9 note=38 velocity=0 time=0.0018382333333333333
EXTRACT: note_on channel=3 note=57 velocity=0 time=0.11305135
EXTRACT: note_on channel=3 note=56 velocity=100 time=0.0055147
EXTRACT: note_on channel=9 note=82 velocity=50 time=0.08639696666666666
EXTRACT: note_on channel=9 note=82 velocity=0 time=0.055146999999999995
EXTRACT: note_on channel=7 note=54 velocity=0 time=0.03768378333333333
EXTRACT: note_on channel=6 note=54 velocity=0 time=0
EXTRACT: note_on channel=1 note=30 velocity=0 time=0.0110294
EXTRACT: note_on channel=1 note=30 velocity=86 time=0.0110294
EXTRACT: note_on channel=6 note=54 velocity=50 time=0.007352933333333333
EXTRACT: note_on channel=7 note=54 velocity=50 time=0
EXTRACT: note_on channel=3 note=56 velocity=0 time=0.009191166666666667
EXTRACT: note_on channel=9 note=82 velocity=50 time=0
EXTRACT: note_on channel=3 note=57 velocity=100 time=0.0055147
EXTRACT: note_on channel=9 note=51 velocity=91 time=0
EXTRACT: note_on channel=9 note=82 velocity=0 time=0.0937499
EXTRACT: note_on channel=9 note=51 velocity=0 time=0.0055147
EXTRACT: note_on channel=1 note=30 velocity=0 time=0.05147053333333333
EXTRACT: note_on channel=7 note=54 velocity=0 time=0.007352933333333333
EXTRACT: note_on channel=6 note=54 velocity=0 time=0
EXTRACT: note_on channel=1 note=30 velocity=81 time=0.04044113333333333
EXTRACT: note_on channel=6 note=54 velocity=47 time=0
EXTRACT: note_on channel=7 note=54 velocity=47 time=0
EXTRACT: note_on channel=3 note=57 velocity=0 time=0.019301449999999998
EXTRACT: note_on channel=3 note=56 velocity=100 time=0.0055147
EXTRACT: note_on channel=9 note=82 velocity=50 time=0.08088226666666666
EXTRACT: note_on channel=9 note=38 velocity=90 time=0.0009191166666666666
EXTRACT: note_on channel=9 note=82 velocity=0 time=0.05422788333333333
EXTRACT: note_on channel=7 note=54 velocity=0 time=0.022977916666666667
EXTRACT: note_on channel=6 note=54 velocity=0 time=0
EXTRACT: note_on channel=9 note=38 velocity=0 time=0.0220588
EXTRACT: note_on channel=1 note=30 velocity=0 time=0.0036764666666666665
EXTRACT: note_on channel=1 note=30 velocity=78 time=0.0110294
EXTRACT: note_on channel=6 note=54 velocity=74 time=0.007352933333333333
EXTRACT: note_on channel=7 note=54 velocity=74 time=0
EXTRACT: note_on channel=6 note=49 velocity=80 time=0.0036764666666666665
EXTRACT: note_on channel=7 note=49 velocity=80 time=0
EXTRACT: note_on channel=9 note=82 velocity=50 time=0.0045955833333333335
EXTRACT: note_on channel=3 note=57 velocity=100 time=0.0009191166666666666
EXTRACT: note_on channel=9 note=51 velocity=76 time=0.0045955833333333335
EXTRACT: note_on channel=3 note=56 velocity=0 time=0.0009191166666666666
EXTRACT: note_on channel=9 note=82 velocity=0 time=0.09283078333333333
EXTRACT: note_on channel=9 note=51 velocity=0 time=0.0055147
EXTRACT: note_on channel=7 note=54 velocity=0 time=0.05974258333333333
EXTRACT: note_on channel=6 note=54 velocity=0 time=0
EXTRACT: note_on channel=1 note=30 velocity=0 time=0.029411733333333332
EXTRACT: note_on channel=1 note=30 velocity=78 time=0.0110294
EXTRACT: note_on channel=6 note=54 velocity=68 time=0
EXTRACT: note_on channel=7 note=54 velocity=68 time=0
EXTRACT: note_on channel=3 note=57 velocity=0 time=0.013786749999999999
EXTRACT: note_on channel=3 note=56 velocity=100 time=0.0110294
EXTRACT: note_on channel=9 note=82 velocity=50 time=0.08088226666666666
EXTRACT: note_on channel=9 note=82 velocity=0 time=0.055146999999999995
EXTRACT: note_on channel=7 note=42 velocity=0 time=0.00827205
EXTRACT: note_on channel=6 note=42 velocity=0 time=0
EXTRACT: note_on channel=6 note=49 velocity=0 time=0.018382333333333334
EXTRACT: note_on channel=5 note=90 velocity=0 time=0
EXTRACT: note_on channel=7 note=49 velocity=0 time=0
EXTRACT: note_on channel=5 note=78 velocity=0 time=0.0036764666666666665
EXTRACT: note_on channel=5 note=42 velocity=0 time=0
EXTRACT: note_on channel=7 note=54 velocity=0 time=0.0036764666666666665
EXTRACT: note_on channel=6 note=54 velocity=0 time=0
EXTRACT: note_on channel=1 note=30 velocity=0 time=0.007352933333333333
EXTRACT: note_on channel=1 note=35 velocity=112 time=0.018382333333333334
EXTRACT: note_on channel=5 note=47 velocity=46 time=0
EXTRACT: note_on channel=5 note=85 velocity=27 time=0
EXTRACT: note_on channel=5 note=73 velocity=36 time=0
EXTRACT: note_on channel=6 note=47 velocity=78 time=0
EXTRACT: note_on channel=6 note=42 velocity=63 time=0
EXTRACT: note_on channel=6 note=61 velocity=75 time=0
EXTRACT: note_on channel=6 note=54 velocity=78 time=0
EXTRACT: note_on channel=7 note=47 velocity=78 time=0
EXTRACT: note_on channel=7 note=42 velocity=63 time=0
EXTRACT: note_on channel=7 note=61 velocity=75 time=0
EXTRACT: note_on channel=7 note=54 velocity=78 time=0
EXTRACT: note_on channel=3 note=57 velocity=100 time=0.0165441
EXTRACT: note_on channel=9 note=36 velocity=89 time=0.0036764666666666665
EXTRACT: note_on channel=9 note=82 velocity=50 time=0
EXTRACT: note_on channel=3 note=56 velocity=0 time=0.0018382333333333333
EXTRACT: note_on channel=9 note=51 velocity=83 time=0.0036764666666666665
EXTRACT: note_on channel=9 note=82 velocity=0 time=0.0937499
EXTRACT: note_on channel=9 note=51 velocity=0 time=0.0055147
EXTRACT: note_on channel=3 note=57 velocity=0 time=0.10937488333333333
EXTRACT: note_on channel=9 note=36 velocity=0 time=0.0064338166666666665
EXTRACT: note_on channel=9 note=82 velocity=50 time=0.08547785
EXTRACT: note_on channel=3 note=59 velocity=100 time=0.020220566666666665
EXTRACT: note_on channel=9 note=82 velocity=0 time=0.03492643333333333
EXTRACT: note_on channel=1 note=35 velocity=0 time=0.03768378333333333
EXTRACT: note_on channel=6 note=54 velocity=0 time=0.0110294
EXTRACT: note_on channel=7 note=54 velocity=0 time=0
EXTRACT: note_on channel=1 note=35 velocity=103 time=0.0110294
EXTRACT: note_on channel=6 note=54 velocity=41 time=0
EXTRACT: note_on channel=7 note=54 velocity=41 time=0
EXTRACT: note_on channel=6 note=61 velocity=0 time=0.018382333333333334
EXTRACT: note_on channel=7 note=61 velocity=0 time=0
EXTRACT: note_on channel=6 note=61 velocity=41 time=0
EXTRACT: note_on channel=7 note=61 velocity=41 time=0
EXTRACT: note_on channel=9 note=82 velocity=50 time=0.0045955833333333335
EXTRACT: note_on channel=9 note=51 velocity=73 time=0.0055147
EXTRACT: note_on channel=9 note=82 velocity=0 time=0.09007343333333333
EXTRACT: note_on channel=3 note=59 velocity=0 time=0.0045955833333333335
EXTRACT: note_on channel=9 note=51 velocity=0 time=0.0009191166666666666
EXTRACT: note_on channel=6 note=61 velocity=0 time=0.07077198333333333
EXTRACT: note_on channel=7 note=61 velocity=0 time=0
EXTRACT: note_on channel=6 note=61 velocity=56 time=0.025735266666666666
EXTRACT: note_on channel=7 note=61 velocity=56 time=0
EXTRACT: note_on channel=9 note=82 velocity=50 time=0.10569841666666666
EXTRACT: note_on channel=3 note=59 velocity=100 time=0.013786749999999999
EXTRACT: note_on channel=9 note=82 velocity=0 time=0.04136025
EXTRACT: note_on channel=1 note=35 velocity=0 time=0.026654383333333333
EXTRACT: note_on channel=6 note=54 velocity=0 time=0.018382333333333334
EXTRACT: note_on channel=7 note=54 velocity=0 time=0
EXTRACT: note_on channel=6 note=61 velocity=0 time=0.014705866666666666
EXTRACT: note_on channel=7 note=61 velocity=0 time=0
EXTRACT: note_on channel=1 note=35 velocity=96 time=0
EXTRACT: note_on channel=6 note=54 velocity=53 time=0
EXTRACT: note_on channel=6 note=61 velocity=72 time=0
EXTRACT: note_on channel=7 note=54 velocity=53 time=0
EXTRACT: note_on channel=7 note=61 velocity=72 time=0
EXTRACT: note_on channel=9 note=82 velocity=50 time=0.022977916666666667
EXTRACT: note_on channel=9 note=51 velocity=74 time=0.0055147
EXTRACT: note_on channel=3 note=59 velocity=0 time=0.0882352
EXTRACT: note_on channel=9 note=82 velocity=0 time=0.0018382333333333333
EXTRACT: note_on channel=9 note=51 velocity=0 time=0.0055147
EXTRACT: note_on channel=6 note=61 velocity=0 time=0.07077198333333333
EXTRACT: note_on channel=7 note=61 velocity=0 time=0
EXTRACT: note_on channel=6 note=61 velocity=50 time=0.025735266666666666
EXTRACT: note_on channel=7 note=61 velocity=50 time=0
EXTRACT: note_on channel=9 note=82 velocity=50 time=0.10569841666666666
EXTRACT: note_on channel=9 note=82 velocity=0 time=0.055146999999999995
EXTRACT: note_on channel=7 note=47 velocity=0 time=0.011948516666666666
EXTRACT: note_on channel=6 note=47 velocity=0 time=0
EXTRACT: note_on channel=1 note=35 velocity=0 time=0.0036764666666666665
EXTRACT: note_on channel=6 note=54 velocity=0 time=0
EXTRACT: note_on channel=7 note=54 velocity=0 time=0
EXTRACT: note_on channel=7 note=61 velocity=0 time=0.0036764666666666665
EXTRACT: note_on channel=6 note=61 velocity=0 time=0
EXTRACT: note_on channel=1 note=35 velocity=94 time=0.04044113333333333
EXTRACT: note_on channel=6 note=61 velocity=75 time=0
EXTRACT: note_on channel=6 note=47 velocity=50 time=0
EXTRACT: note_on channel=6 note=54 velocity=77 time=0
EXTRACT: note_on channel=7 note=61 velocity=75 time=0
EXTRACT: note_on channel=7 note=47 velocity=50 time=0
EXTRACT: note_on channel=7 note=54 velocity=77 time=0
EXTRACT: note_on channel=9 note=82 velocity=50 time=0.0220588
EXTRACT: note_on channel=9 note=44 velocity=82 time=0.00275735
EXTRACT: note_on channel=9 note=38 velocity=90 time=0.00275735
EXTRACT: note_on channel=9 note=51 velocity=79 time=0
EXTRACT: note_on channel=9 note=82 velocity=0 time=0.0937499
EXTRACT: note_on channel=9 note=38 velocity=0 time=0.0018382333333333333
EXTRACT: note_on channel=9 note=51 velocity=0 time=0.0036764666666666665
EXTRACT: note_on channel=9 note=44 velocity=0 time=0.11856604999999999
EXTRACT: note_on channel=9 note=82 velocity=50 time=0.08088226666666666
EXTRACT: note_on channel=9 note=82 velocity=0 time=0.055146999999999995
EXTRACT: note_on channel=6 note=61 velocity=0 time=0.03768378333333333
EXTRACT: note_on channel=7 note=61 velocity=0 time=0
EXTRACT: note_on channel=1 note=35 velocity=0 time=0.0220588
EXTRACT: note_on channel=1 note=35 velocity=96 time=0
EXTRACT: note_on channel=6 note=61 velocity=50 time=0.007352933333333333
EXTRACT: note_on channel=7 note=61 velocity=50 time=0
EXTRACT: note_on channel=9 note=82 velocity=50 time=0.012867633333333333
EXTRACT: note_on channel=9 note=51 velocity=59 time=0.0055147
EXTRACT: note_on channel=9 note=82 velocity=0 time=0.09007343333333333
EXTRACT: note_on channel=9 note=51 velocity=0 time=0.0055147
EXTRACT: note_on channel=6 note=61 velocity=0 time=0.058823466666666664
EXTRACT: note_on channel=7 note=61 velocity=0 time=0
EXTRACT: note_on channel=6 note=61 velocity=47 time=0.04044113333333333
EXTRACT: note_on channel=7 note=61 velocity=47 time=0
EXTRACT: note_on channel=9 note=82 velocity=50 time=0.10569841666666666
EXTRACT: note_on channel=9 note=82 velocity=0 time=0.055146999999999995
EXTRACT: note_on channel=7 note=54 velocity=0 time=0.022977916666666667
EXTRACT: note_on channel=6 note=54 velocity=0 time=0
EXTRACT: note_on channel=7 note=61 velocity=0 time=0
EXTRACT: note_on channel=6 note=61 velocity=0 time=0
EXTRACT: note_on channel=1 note=35 velocity=0 time=0.03676466666666667
EXTRACT: note_on channel=1 note=35 velocity=96 time=0
EXTRACT: note_on channel=6 note=61 velocity=74 time=0.007352933333333333
EXTRACT: note_on channel=7 note=61 velocity=74 time=0
EXTRACT: note_on channel=6 note=54 velocity=80 time=0.0036764666666666665
EXTRACT: note_on channel=7 note=54 velocity=80 time=0
EXTRACT: note_on channel=9 note=82 velocity=50 time=0.009191166666666667
EXTRACT: note_on channel=9 note=51 velocity=74 time=0.0055147
EXTRACT: note_on channel=9 note=82 velocity=0 time=0.09007343333333333
EXTRACT: note_on channel=9 note=51 velocity=0 time=0.0055147
EXTRACT: note_on channel=1 note=35 velocity=0 time=0.0441176
EXTRACT: note_on channel=7 note=61 velocity=0 time=0.014705866666666666
EXTRACT: note_on channel=6 note=61 velocity=0 time=0
EXTRACT: note_on channel=1 note=35 velocity=78 time=0.04044113333333333
EXTRACT: note_on channel=6 note=61 velocity=68 time=0
EXTRACT: note_on channel=7 note=61 velocity=68 time=0
EXTRACT: note_on channel=9 note=82 velocity=50 time=0.10569841666666666
EXTRACT: note_on channel=1 note=35 velocity=0 time=0.03768378333333333
EXTRACT: note_on channel=9 note=82 velocity=0 time=0.017463216666666666
EXTRACT: note_on channel=6 note=47 velocity=0 time=0.00827205
EXTRACT: note_on channel=7 note=47 velocity=0 time=0
EXTRACT: note_on channel=6 note=54 velocity=0 time=0.018382333333333334
EXTRACT: note_on channel=7 note=54 velocity=0 time=0
EXTRACT: note_on channel=6 note=42 velocity=0 time=0.0036764666666666665
EXTRACT: note_on channel=5 note=47 velocity=0 time=0
EXTRACT: note_on channel=5 note=85 velocity=0 time=0
EXTRACT: note_on channel=5 note=73 velocity=0 time=0
EXTRACT: note_on channel=7 note=42 velocity=0 time=0
EXTRACT: note_on channel=7 note=61 velocity=0 time=0.0036764666666666665
EXTRACT: note_on channel=6 note=61 velocity=0 time=0
EXTRACT: note_on channel=1 note=35 velocity=112 time=0.025735266666666666
EXTRACT: note_on channel=5 note=47 velocity=44 time=0
EXTRACT: note_on channel=5 note=83 velocity=15 time=0
EXTRACT: note_on channel=5 note=71 velocity=28 time=0
EXTRACT: note_on channel=6 note=47 velocity=66 time=0
EXTRACT: note_on channel=6 note=54 velocity=76 time=0
EXTRACT: note_on channel=6 note=69 velocity=77 time=0
EXTRACT: note_on channel=6 note=59 velocity=68 time=0
EXTRACT: note_on channel=7 note=47 velocity=66 time=0
EXTRACT: note_on channel=7 note=54 velocity=76 time=0
EXTRACT: note_on channel=7 note=69 velocity=77 time=0
EXTRACT: note_on channel=7 note=59 velocity=68 time=0
EXTRACT: note_on channel=9 note=36 velocity=104 time=0.019301449999999998
EXTRACT: note_on channel=9 note=82 velocity=50 time=0.0009191166666666666
EXTRACT: note_on channel=9 note=51 velocity=60 time=0.0055147
EXTRACT: note_on channel=9 note=82 velocity=0 time=0.0937499
EXTRACT: note_on channel=9 note=51 velocity=0 time=0.0055147
EXTRACT: note_on channel=9 note=36 velocity=0 time=0.11488958333333332
EXTRACT: note_on channel=9 note=82 velocity=50 time=0.08639696666666666
EXTRACT: note_on channel=9 note=82 velocity=0 time=0.055146999999999995
EXTRACT: note_on channel=1 note=35 velocity=0 time=0.03768378333333333
EXTRACT: note_on channel=7 note=69 velocity=0 time=0.0110294
EXTRACT: note_on channel=6 note=69 velocity=0 time=0
EXTRACT: note_on channel=1 note=35 velocity=103 time=0.0110294
EXTRACT: note_on channel=6 note=69 velocity=42 time=0
EXTRACT: note_on channel=7 note=69 velocity=42 time=0
EXTRACT: note_on channel=9 note=82 velocity=50 time=0.019301449999999998
EXTRACT: note_on channel=9 note=51 velocity=67 time=0.0055147
EXTRACT: note_on channel=9 note=82 velocity=0 time=0.0937499
EXTRACT: note_on channel=9 note=51 velocity=0 time=0.0055147
EXTRACT: note_on channel=9 note=82 velocity=50 time=0.20220566666666664
EXTRACT: note_on channel=9 note=82 velocity=0 time=0.055146999999999995
EXTRACT: note_on channel=1 note=35 velocity=0 time=0.026654383333333333
EXTRACT: note_on channel=7 note=54 velocity=0 time=0.0036764666666666665
EXTRACT: note_on channel=6 note=54 velocity=0 time=0
EXTRACT: note_on channel=6 note=69 velocity=0 time=0.029411733333333332
EXTRACT: note_on channel=7 note=69 velocity=0 time=0
EXTRACT: note_on channel=1 note=35 velocity=96 time=0
EXTRACT: note_on channel=6 note=54 velocity=51 time=0
EXTRACT: note_on channel=6 note=69 velocity=51 time=0
EXTRACT: note_on channel=7 note=54 velocity=51 time=0
EXTRACT: note_on channel=7 note=69 velocity=51 time=0
EXTRACT: note_on channel=7 note=59 velocity=0 time=0.007352933333333333
EXTRACT: note_on channel=6 note=59 velocity=0 time=0
EXTRACT: note_on channel=6 note=59 velocity=46 time=0
EXTRACT: note_on channel=7 note=59 velocity=46 time=0
EXTRACT: note_on channel=9 note=82 velocity=50 time=0.012867633333333333
EXTRACT: note_on channel=9 note=51 velocity=57 time=0.0055147
EXTRACT: note_on channel=9 note=82 velocity=0 time=0.09007343333333333
EXTRACT: note_on channel=9 note=51 velocity=0 time=0.0055147
EXTRACT: note_on channel=6 note=59 velocity=0 time=0.0661764
EXTRACT: note_on channel=7 note=59 velocity=0 time=0
EXTRACT: note_on channel=6 note=59 velocity=51 time=0.0330882
EXTRACT: note_on channel=7 note=59 velocity=51 time=0
EXTRACT: note_on channel=9 note=82 velocity=50 time=0.10569841666666666
EXTRACT: note_on channel=9 note=82 velocity=0 time=0.055146999999999995
EXTRACT: note_on channel=6 note=54 velocity=0 time=0.011948516666666666
EXTRACT: note_on channel=7 note=54 velocity=0 time=0
EXTRACT: note_on channel=1 note=35 velocity=0 time=0.0036764666666666665
EXTRACT: note_on channel=6 note=59 velocity=0 time=0
EXTRACT: note_on channel=7 note=59 velocity=0 time=0
EXTRACT: note_on channel=7 note=69 velocity=0 time=0.007352933333333333
EXTRACT: note_on channel=6 note=69 velocity=0 time=0
EXTRACT: note_on channel=1 note=35 velocity=94 time=0.03676466666666667
EXTRACT: note_on channel=6 note=54 velocity=61 time=0
EXTRACT: note_on channel=6 note=69 velocity=76 time=0
EXTRACT: note_on channel=6 note=59 velocity=82 time=0
EXTRACT: note_on channel=7 note=54 velocity=61 time=0
EXTRACT: note_on channel=7 note=69 velocity=76 time=0
EXTRACT: note_on channel=7 note=59 velocity=82 time=0
EXTRACT: note_on channel=9 note=82 velocity=50 time=0.014705866666666666
EXTRACT: note_on channel=9 note=51 velocity=69 time=0.0055147
EXTRACT: note_on channel=9 note=38 velocity=90 time=0.0018382333333333333
EXTRACT: note_on channel=9 note=82 velocity=0 time=0.09191166666666667
EXTRACT: note_on channel=9 note=51 velocity=0 time=0.0055147
EXTRACT: note_on channel=9 note=38 velocity=0 time=0.0018382333333333333
EXTRACT: note_on channel=9 note=82 velocity=50 time=0.20496301666666666
EXTRACT: note_on channel=9 note=82 velocity=0 time=0.055146999999999995
EXTRACT: note_on channel=6 note=69 velocity=0 time=0.011948516666666666
EXTRACT: note_on channel=7 note=69 velocity=0 time=0
EXTRACT: note_on channel=7 note=54 velocity=0 time=0.0036764666666666665
EXTRACT: note_on channel=6 note=54 velocity=0 time=0
EXTRACT: note_on channel=1 note=35 velocity=0 time=0.0441176
EXTRACT: note_on channel=1 note=35 velocity=96 time=0
EXTRACT: note_on channel=6 note=54 velocity=45 time=0
EXTRACT: note_on channel=6 note=69 velocity=29 time=0
EXTRACT: note_on channel=7 note=54 velocity=45 time=0
EXTRACT: note_on channel=7 note=69 velocity=29 time=0
EXTRACT: note_on channel=9 note=82 velocity=50 time=0.0165441
EXTRACT: note_on channel=9 note=51 velocity=91 time=0.0055147
EXTRACT: note_on channel=9 note=82 velocity=0 time=0.0937499
EXTRACT: note_on channel=9 note=51 velocity=0 time=0.0055147
EXTRACT: note_on channel=7 note=59 velocity=0 time=0.055146999999999995
EXTRACT: note_on channel=6 note=59 velocity=0 time=0
EXTRACT: note_on channel=6 note=47 velocity=0 time=0.014705866666666666
EXTRACT: note_on channel=7 note=47 velocity=0 time=0
EXTRACT: note_on channel=6 note=47 velocity=47 time=0.029411733333333332
EXTRACT: note_on channel=6 note=59 velocity=34 time=0
EXTRACT: note_on channel=7 note=47 velocity=47 time=0
EXTRACT: note_on channel=7 note=59 velocity=34 time=0
EXTRACT: note_on channel=9 note=82 velocity=50 time=0.10569841666666666
EXTRACT: note_on channel=9 note=38 velocity=90 time=0.0009191166666666666
EXTRACT: note_on channel=9 note=82 velocity=0 time=0.05422788333333333
EXTRACT: note_on channel=7 note=59 velocity=0 time=0.011948516666666666
EXTRACT: note_on channel=6 note=59 velocity=0 time=0
EXTRACT: note_on channel=6 note=54 velocity=0 time=0.007352933333333333
EXTRACT: note_on channel=7 note=54 velocity=0 time=0
EXTRACT: note_on channel=6 note=47 velocity=0 time=0.018382333333333334
EXTRACT: note_on channel=7 note=47 velocity=0 time=0
EXTRACT: note_on channel=9 note=38 velocity=0 time=0.007352933333333333
EXTRACT: note_on channel=7 note=69 velocity=0 time=0.0036764666666666665
EXTRACT: note_on channel=6 note=69 velocity=0 time=0
EXTRACT: note_on channel=1 note=35 velocity=0 time=0.0110294
EXTRACT: note_on channel=1 note=35 velocity=96 time=0
EXTRACT: note_on channel=6 note=47 velocity=31 time=0
EXTRACT: note_on channel=6 note=54 velocity=37 time=0
EXTRACT: note_on channel=6 note=69 velocity=41 time=0
EXTRACT: note_on channel=6 note=59 velocity=44 time=0
EXTRACT: note_on channel=7 note=47 velocity=31 time=0
EXTRACT: note_on channel=7 note=54 velocity=37 time=0
EXTRACT: note_on channel=7 note=69 velocity=41 time=0
EXTRACT: note_on channel=7 note=59 velocity=44 time=0
EXTRACT: note_on channel=9 note=82 velocity=50 time=0.015624983333333333
EXTRACT: note_on channel=9 note=51 velocity=76 time=0.0055147
EXTRACT: note_on channel=9 note=82 velocity=0 time=0.0937499
EXTRACT: note_on channel=9 note=51 velocity=0 time=0.0055147
EXTRACT: note_on channel=1 note=35 velocity=0 time=0.045036716666666664
EXTRACT: note_on channel=6 note=59 velocity=0 time=0.025735266666666666
EXTRACT: note_on channel=7 note=59 velocity=0 time=0
EXTRACT: note_on channel=1 note=35 velocity=78 time=0.029411733333333332
EXTRACT: note_on channel=6 note=59 velocity=37 time=0.007352933333333333
EXTRACT: note_on channel=7 note=59 velocity=37 time=0
EXTRACT: note_on channel=3 note=56 velocity=100 time=0.0220588
EXTRACT: note_on channel=9 note=41 velocity=73 time=0.06893375
EXTRACT: note_on channel=9 note=82 velocity=50 time=0.007352933333333333
EXTRACT: note_on channel=1 note=35 velocity=0 time=0.03768378333333333
EXTRACT: note_on channel=9 note=82 velocity=0 time=0.017463216666666666
EXTRACT: note_on channel=5 note=83 velocity=0 time=0.026654383333333333
EXTRACT: note_on channel=5 note=71 velocity=0 time=0.0036764666666666665
EXTRACT: note_on channel=5 note=47 velocity=0 time=0
EXTRACT: note_on channel=9 note=41 velocity=0 time=0.0064338166666666665
EXTRACT: note_on channel=6 note=69 velocity=0 time=0.0009191166666666666
EXTRACT: note_on channel=7 note=69 velocity=0 time=0
EXTRACT: note_on channel=6 note=54 velocity=0 time=0.0036764666666666665
EXTRACT: note_on channel=7 note=54 velocity=0 time=0
EXTRACT: note_on channel=7 note=59 velocity=0 time=0
EXTRACT: note_on channel=7 note=47 velocity=0 time=0
EXTRACT: note_on channel=6 note=47 velocity=0 time=0
EXTRACT: note_on channel=6 note=59 velocity=0 time=0
EXTRACT: note_on channel=1 note=30 velocity=112 time=0.018382333333333334
EXTRACT: note_on channel=5 note=90 velocity=28 time=0
EXTRACT: note_on channel=5 note=78 velocity=15 time=0
EXTRACT: note_on channel=5 note=42 velocity=48 time=0
EXTRACT: note_on channel=6 note=42 velocity=78 time=0
EXTRACT: note_on channel=6 note=49 velocity=63 time=0
EXTRACT: note_on channel=6 note=66 velocity=75 time=0
EXTRACT: note_on channel=6 note=61 velocity=78 time=0
EXTRACT: note_on channel=7 note=42 velocity=78 time=0
EXTRACT: note_on channel=7 note=49 velocity=63 time=0
EXTRACT: note_on channel=7 note=66 velocity=75 time=0
EXTRACT: note_on channel=7 note=61 velocity=78 time=0
EXTRACT: note_on channel=9 note=36 velocity=89 time=0.020220566666666665
EXTRACT: note_on channel=9 note=82 velocity=50 time=0
EXTRACT: note_on channel=9 note=51 velocity=83 time=0.0055147
EXTRACT: note_on channel=3 note=56 velocity=0 time=0.0009191166666666666
EXTRACT: note_on channel=3 note=57 velocity=100 time=0
EXTRACT: note_on channel=9 note=82 velocity=0 time=0.09283078333333333
EXTRACT: note_on channel=9 note=51 velocity=0 time=0.0055147
EXTRACT: note_on channel=9 note=36 velocity=0 time=0.1158087
EXTRACT: note_on channel=3 note=57 velocity=0 time=0.0036764666666666665
EXTRACT: note_on channel=3 note=56 velocity=100 time=0.0055147
EXTRACT: note_on channel=9 note=82 velocity=50 time=0.07628668333333333
EXTRACT: note_on channel=9 note=82 velocity=0 time=0.055146999999999995
EXTRACT: note_on channel=1 note=30 velocity=0 time=0.03768378333333333
EXTRACT: note_on channel=1 note=30 velocity=103 time=0.0220588
EXTRACT: note_on channel=9 note=82 velocity=50 time=0.022977916666666667
EXTRACT: note_on channel=3 note=56 velocity=0 time=0.0036764666666666665
EXTRACT: note_on channel=3 note=57 velocity=100 time=0
EXTRACT: note_on channel=9 note=51 velocity=73 time=0.0018382333333333333
EXTRACT: note_on channel=9 note=82 velocity=0 time=0.09007343333333333
EXTRACT: note_on channel=9 note=51 velocity=0 time=0.0055147
EXTRACT: note_on channel=3 note=57 velocity=0 time=0.12040428333333333
EXTRACT: note_on channel=3 note=56 velocity=100 time=0.0055147
EXTRACT: note_on channel=9 note=82 velocity=50 time=0.07628668333333333
EXTRACT: note_on channel=9 note=82 velocity=0 time=0.055146999999999995
EXTRACT: note_on channel=1 note=30 velocity=0 time=0.026654383333333333
EXTRACT: note_on channel=1 note=30 velocity=96 time=0.0330882
EXTRACT: note_on channel=9 note=82 velocity=50 time=0.022977916666666667
EXTRACT: note_on channel=3 note=56 velocity=0 time=0.0036764666666666665
EXTRACT: note_on channel=3 note=57 velocity=100 time=0
EXTRACT: note_on channel=9 note=51 velocity=74 time=0.0018382333333333333
EXTRACT: note_on channel=9 note=82 velocity=0 time=0.09007343333333333
EXTRACT: note_on channel=9 note=51 velocity=0 time=0.0055147
EXTRACT: note_on channel=3 note=57 velocity=0 time=0.12040428333333333
EXTRACT: note_on channel=3 note=56 velocity=100 time=0.0055147
EXTRACT: note_on channel=9 note=82 velocity=50 time=0.07628668333333333
EXTRACT: note_on channel=6 note=61 velocity=0 time=0.045036716666666664
EXTRACT: note_on channel=7 note=61 velocity=0 time=0
EXTRACT: note_on channel=6 note=66 velocity=0 time=0.007352933333333333
EXTRACT: note_on channel=7 note=66 velocity=0 time=0
EXTRACT: note_on channel=9 note=82 velocity=0 time=0.00275735
EXTRACT: note_on channel=6 note=42 velocity=0 time=0.011948516666666666
EXTRACT: note_on channel=7 note=42 velocity=0 time=0
EXTRACT: note_on channel=1 note=30 velocity=0 time=0.0036764666666666665
EXTRACT: note_on channel=1 note=30 velocity=94 time=0.0441176
EXTRACT: note_on channel=6 note=66 velocity=75 time=0
EXTRACT: note_on channel=6 note=42 velocity=50 time=0
EXTRACT: note_on channel=6 note=61 velocity=77 time=0
EXTRACT: note_on channel=7 note=66 velocity=75 time=0
EXTRACT: note_on channel=7 note=42 velocity=50 time=0
EXTRACT: note_on channel=7 note=61 velocity=77 time=0
EXTRACT: note_on channel=9 note=82 velocity=50 time=0.0220588
EXTRACT: note_on channel=9 note=44 velocity=82 time=0.00275735
EXTRACT: note_on channel=3 note=56 velocity=0 time=0.0018382333333333333
EXTRACT: note_on channel=3 note=57 velocity=100 time=0
EXTRACT: note_on channel=9 note=38 velocity=90 time=0.0009191166666666666
EXTRACT: note_on channel=9 note=51 velocity=79 time=0
EXTRACT: note_on channel=9 note=82 velocity=0 time=0.0937499
EXTRACT: note_on channel=9 note=38 velocity=0 time=0.0018382333333333333
EXTRACT: note_on channel=9 note=51 velocity=0 time=0.0036764666666666665
EXTRACT: note_on channel=3 note=57 velocity=0 time=0.11764693333333333
EXTRACT: note_on channel=9 note=44 velocity=0 time=0.0009191166666666666
EXTRACT: note_on channel=3 note=56 velocity=100 time=0.010110283333333333
EXTRACT: note_on channel=9 note=82 velocity=50 time=0.07077198333333333
EXTRACT: note_on channel=9 note=82 velocity=0 time=0.055146999999999995
EXTRACT: note_on channel=1 note=30 velocity=0 time=0.05974258333333333
EXTRACT: note_on channel=1 note=30 velocity=96 time=0
EXTRACT: note_on channel=9 note=82 velocity=50 time=0.020220566666666665
EXTRACT: note_on channel=9 note=51 velocity=59 time=0.0055147
EXTRACT: note_on channel=3 note=56 velocity=0 time=0.0064338166666666665
EXTRACT: note_on channel=3 note=57 velocity=100 time=0
EXTRACT: note_on channel=9 note=82 velocity=0 time=0.08363961666666667
EXTRACT: note_on channel=9 note=51 velocity=0 time=0.0055147
EXTRACT: note_on channel=3 note=57 velocity=0 time=0.12867633333333334
EXTRACT: note_on channel=3 note=56 velocity=100 time=0
EXTRACT: note_on channel=9 note=82 velocity=50 time=0.07628668333333333
EXTRACT: note_on channel=9 note=82 velocity=0 time=0.055146999999999995
EXTRACT: note_on channel=1 note=30 velocity=0 time=0.05974258333333333
EXTRACT: note_on channel=1 note=30 velocity=96 time=0
EXTRACT: note_on channel=9 note=82 velocity=50 time=0.020220566666666665
EXTRACT: note_on channel=9 note=51 velocity=74 time=0.0055147
EXTRACT: note_on channel=3 note=56 velocity=0 time=0.0009191166666666666
EXTRACT: note_on channel=3 note=57 velocity=100 time=0
EXTRACT: note_on channel=9 note=82 velocity=0 time=0.08915431666666666
EXTRACT: note_on channel=9 note=51 velocity=0 time=0.0055147
EXTRACT: note_on channel=1 note=30 velocity=0 time=0.0441176
EXTRACT: note_on channel=1 note=30 velocity=78 time=0.055146999999999995
EXTRACT: note_on channel=3 note=57 velocity=0 time=0.02389703333333333
EXTRACT: note_on channel=3 note=56 velocity=100 time=0.0055147
EXTRACT: note_on channel=9 note=82 velocity=50 time=0.07628668333333333
EXTRACT: note_on channel=1 note=30 velocity=0 time=0.03768378333333333
EXTRACT: note_on channel=9 note=82 velocity=0 time=0.017463216666666666
EXTRACT: note_on channel=6 note=61 velocity=0 time=0.0045955833333333335
EXTRACT: note_on channel=7 note=61 velocity=0 time=0
EXTRACT: note_on channel=6 note=42 velocity=0 time=0.0036764666666666665
EXTRACT: note_on channel=7 note=42 velocity=0 time=0
EXTRACT: note_on channel=6 note=66 velocity=0 time=0.007352933333333333
EXTRACT: note_on channel=7 note=66 velocity=0 time=0
EXTRACT: note_on channel=5 note=90 velocity=0 time=0.014705866666666666
EXTRACT: note_on channel=7 note=49 velocity=0 time=0
EXTRACT: note_on channel=6 note=49 velocity=0 time=0
EXTRACT: note_on channel=5 note=78 velocity=0 time=0
EXTRACT: note_on channel=5 note=42 velocity=0 time=0
EXTRACT: note_on channel=1 note=30 velocity=106 time=0.029411733333333332
EXTRACT: note_on channel=5 note=81 velocity=15 time=0
EXTRACT: note_on channel=5 note=78 velocity=36 time=0
EXTRACT: note_on channel=5 note=73 velocity=38 time=0
EXTRACT: note_on channel=6 note=42 velocity=58 time=0
EXTRACT: note_on channel=6 note=49 velocity=66 time=0
EXTRACT: note_on channel=6 note=54 velocity=65 time=0
EXTRACT: note_on channel=7 note=42 velocity=58 time=0
EXTRACT: note_on channel=7 note=49 velocity=66 time=0
EXTRACT: note_on channel=7 note=54 velocity=65 time=0
EXTRACT: note_on channel=9 note=36 velocity=104 time=0.019301449999999998
EXTRACT: note_on channel=9 note=82 velocity=50 time=0.0009191166666666666
EXTRACT: note_on channel=9 note=51 velocity=60 time=0.0055147
EXTRACT: note_on channel=3 note=56 velocity=0 time=0.0009191166666666666
EXTRACT: note_on channel=3 note=57 velocity=100 time=0.0055147
EXTRACT: note_on channel=9 note=82 velocity=0 time=0.08731608333333334
EXTRACT: note_on channel=9 note=51 velocity=0 time=0.0055147
EXTRACT: note_on channel=9 note=36 velocity=0 time=0.11488958333333332
EXTRACT: note_on channel=3 note=57 velocity=0 time=0.010110283333333333
EXTRACT: note_on channel=3 note=56 velocity=100 time=0.0055147
EXTRACT: note_on channel=9 note=82 velocity=50 time=0.07077198333333333
EXTRACT: note_on channel=9 note=82 velocity=0 time=0.055146999999999995
EXTRACT: note_on channel=1 note=30 velocity=0 time=0.019301449999999998
EXTRACT: note_on channel=7 note=49 velocity=0 time=0.018382333333333334
EXTRACT: note_on channel=6 note=49 velocity=0 time=0
EXTRACT: note_on channel=1 note=30 velocity=102 time=0.0220588
EXTRACT: note_on channel=6 note=49 velocity=48 time=0.014705866666666666
EXTRACT: note_on channel=7 note=49 velocity=48 time=0
EXTRACT: note_on channel=9 note=82 velocity=50 time=0.0045955833333333335
EXTRACT: note_on channel=9 note=51 velocity=67 time=0.0055147
EXTRACT: note_on channel=6 note=54 velocity=0 time=0.0009191166666666666
EXTRACT: note_on channel=7 note=54 velocity=0 time=0
EXTRACT: note_on channel=6 note=54 velocity=50 time=0
EXTRACT: note_on channel=7 note=54 velocity=50 time=0
EXTRACT: note_on channel=3 note=56 velocity=0 time=0.0064338166666666665
EXTRACT: note_on channel=3 note=57 velocity=100 time=0
EXTRACT: note_on channel=9 note=82 velocity=0 time=0.08639696666666666
EXTRACT: note_on channel=9 note=51 velocity=0 time=0.0055147
EXTRACT: note_on channel=7 note=54 velocity=0 time=0.03400731666666666
EXTRACT: note_on channel=6 note=54 velocity=0 time=0
EXTRACT: note_on channel=6 note=54 velocity=39 time=0.062499933333333334
EXTRACT: note_on channel=7 note=54 velocity=39 time=0
EXTRACT: note_on channel=3 note=57 velocity=0 time=0.029411733333333332
EXTRACT: note_on channel=3 note=56 velocity=100 time=0
EXTRACT: note_on channel=9 note=82 velocity=50 time=0.07628668333333333
EXTRACT: note_on channel=9 note=82 velocity=0 time=0.055146999999999995
EXTRACT: note_on channel=1 note=30 velocity=0 time=0.011948516666666666
EXTRACT: note_on channel=6 note=42 velocity=0 time=0.007352933333333333
EXTRACT: note_on channel=7 note=42 velocity=0 time=0
EXTRACT: note_on channel=7 note=54 velocity=0 time=0.0330882
EXTRACT: note_on channel=6 note=54 velocity=0 time=0
EXTRACT: note_on channel=7 note=49 velocity=0 time=0.007352933333333333
EXTRACT: note_on channel=6 note=49 velocity=0 time=0
EXTRACT: note_on channel=1 note=30 velocity=106 time=0
EXTRACT: note_on channel=6 note=42 velocity=51 time=0
EXTRACT: note_on channel=6 note=49 velocity=45 time=0
EXTRACT: note_on channel=7 note=42 velocity=51 time=0
EXTRACT: note_on channel=7 note=49 velocity=45 time=0
EXTRACT: note_on channel=9 note=82 velocity=50 time=0.020220566666666665
EXTRACT: note_on channel=9 note=51 velocity=57 time=0.0055147
EXTRACT: note_on channel=3 note=56 velocity=0 time=0.0009191166666666666
EXTRACT: note_on channel=3 note=57 velocity=100 time=0.0055147
EXTRACT: note_on channel=6 note=54 velocity=34 time=0.0045955833333333335
EXTRACT: note_on channel=7 note=54 velocity=34 time=0
EXTRACT: note_on channel=9 note=82 velocity=0 time=0.07904403333333333
EXTRACT: note_on channel=9 note=51 velocity=0 time=0.0055147
EXTRACT: note_on channel=7 note=54 velocity=0 time=0.08088226666666666
EXTRACT: note_on channel=6 note=54 velocity=0 time=0
EXTRACT: note_on channel=6 note=54 velocity=53 time=0.018382333333333334
EXTRACT: note_on channel=7 note=54 velocity=53 time=0
EXTRACT: note_on channel=3 note=57 velocity=0 time=0.029411733333333332
EXTRACT: note_on channel=3 note=56 velocity=100 time=0
EXTRACT: note_on channel=9 note=82 velocity=50 time=0.07628668333333333
EXTRACT: note_on channel=9 note=82 velocity=0 time=0.055146999999999995
EXTRACT: note_on channel=6 note=42 velocity=0 time=0.019301449999999998
EXTRACT: note_on channel=7 note=42 velocity=0 time=0
EXTRACT: note_on channel=1 note=30 velocity=0 time=0.007352933333333333
EXTRACT: note_on channel=7 note=49 velocity=0 time=0.007352933333333333
EXTRACT: note_on channel=6 note=49 velocity=0 time=0
EXTRACT: note_on channel=1 note=30 velocity=109 time=0.025735266666666666
EXTRACT: note_on channel=6 note=49 velocity=34 time=0.0036764666666666665
EXTRACT: note_on channel=6 note=42 velocity=55 time=0
EXTRACT: note_on channel=7 note=49 velocity=34 time=0
EXTRACT: note_on channel=7 note=42 velocity=55 time=0
EXTRACT: note_on channel=9 note=82 velocity=50 time=0.0110294
EXTRACT: note_on channel=9 note=51 velocity=69 time=0.0055147
EXTRACT: note_on channel=9 note=38 velocity=90 time=0.0018382333333333333
EXTRACT: note_on channel=3 note=56 velocity=0 time=0.0045955833333333335
EXTRACT: note_on channel=3 note=57 velocity=100 time=0
EXTRACT: note_on channel=9 note=82 velocity=0 time=0.08731608333333334
EXTRACT: note_on channel=9 note=51 velocity=0 time=0.0055147
EXTRACT: note_on channel=9 note=38 velocity=0 time=0.0018382333333333333
EXTRACT: note_on channel=3 note=57 velocity=0 time=0.12316163333333333
EXTRACT: note_on channel=3 note=57 velocity=100 time=0.0055147
EXTRACT: note_on channel=9 note=82 velocity=50 time=0.07628668333333333
EXTRACT: note_on channel=9 note=82 velocity=0 time=0.055146999999999995
EXTRACT: note_on channel=6 note=49 velocity=0 time=0.019301449999999998
EXTRACT: note_on channel=7 note=49 velocity=0 time=0
EXTRACT: note_on channel=1 note=30 velocity=0 time=0.0110294
EXTRACT: note_on channel=6 note=54 velocity=0 time=0.029411733333333332
EXTRACT: note_on channel=7 note=54 velocity=0 time=0
EXTRACT: note_on channel=1 note=30 velocity=104 time=0
EXTRACT: note_on channel=6 note=49 velocity=58 time=0
EXTRACT: note_on channel=6 note=54 velocity=39 time=0
EXTRACT: note_on channel=7 note=49 velocity=58 time=0
EXTRACT: note_on channel=7 note=54 velocity=39 time=0
EXTRACT: note_on channel=9 note=82 velocity=50 time=0.0165441
EXTRACT: note_on channel=9 note=51 velocity=91 time=0.0055147
EXTRACT: note_on channel=3 note=57 velocity=0 time=0.0045955833333333335
EXTRACT: note_on channel=9 note=82 velocity=0 time=0.08915431666666666
EXTRACT: note_on channel=9 note=51 velocity=0 time=0.0055147
EXTRACT: note_on channel=7 note=54 velocity=0 time=0.062499933333333334
EXTRACT: note_on channel=6 note=54 velocity=0 time=0
EXTRACT: note_on channel=6 note=54 velocity=51 time=0.03676466666666667
EXTRACT: note_on channel=7 note=54 velocity=51 time=0
EXTRACT: note_on channel=3 note=56 velocity=100 time=0.02389703333333333
EXTRACT: note_on channel=9 note=82 velocity=50 time=0.08180138333333332
EXTRACT: note_on channel=9 note=38 velocity=90 time=0.0009191166666666666
EXTRACT: note_on channel=9 note=82 velocity=0 time=0.05422788333333333
EXTRACT: note_on channel=1 note=30 velocity=0 time=0.026654383333333333
EXTRACT: note_on channel=7 note=54 velocity=0 time=0.0036764666666666665
EXTRACT: note_on channel=6 note=54 velocity=0 time=0
EXTRACT: note_on channel=6 note=42 velocity=0 time=0.014705866666666666
EXTRACT: note_on channel=7 note=42 velocity=0 time=0
EXTRACT: note_on channel=9 note=38 velocity=0 time=0
EXTRACT: note_on channel=1 note=30 velocity=98 time=0.014705866666666666
EXTRACT: note_on channel=6 note=42 velocity=61 time=0
EXTRACT: note_on channel=7 note=42 velocity=61 time=0
EXTRACT: note_on channel=6 note=49 velocity=0 time=0.0110294
EXTRACT: note_on channel=7 note=49 velocity=0 time=0
EXTRACT: note_on channel=6 note=49 velocity=63 time=0
EXTRACT: note_on channel=7 note=49 velocity=63 time=0
EXTRACT: note_on channel=6 note=54 velocity=48 time=0.0036764666666666665
EXTRACT: note_on channel=7 note=54 velocity=48 time=0
EXTRACT: note_on channel=9 note=82 velocity=50 time=0.0009191166666666666
EXTRACT: note_on channel=3 note=56 velocity=0 time=0.0009191166666666666
EXTRACT: note_on channel=9 note=51 velocity=76 time=0.0045955833333333335
EXTRACT: note_on channel=3 note=57 velocity=100 time=0.0009191166666666666
EXTRACT: note_on channel=9 note=82 velocity=0 time=0.09283078333333333
EXTRACT: note_on channel=9 note=51 velocity=0 time=0.0055147
EXTRACT: note_on channel=3 note=57 velocity=0 time=0.00275735
EXTRACT: note_on channel=3 note=56 velocity=100 time=0.0055147
EXTRACT: note_on channel=7 note=54 velocity=0 time=0.05147053333333333
EXTRACT: note_on channel=6 note=54 velocity=0 time=0
EXTRACT: note_on channel=6 note=54 velocity=50 time=0.04044113333333333
EXTRACT: note_on channel=7 note=54 velocity=50 time=0
EXTRACT: note_on channel=3 note=56 velocity=0 time=0.009191166666666667
EXTRACT: note_on channel=3 note=57 velocity=100 time=0.0036764666666666665
EXTRACT: note_on channel=9 note=82 velocity=50 time=0.09283078333333333
EXTRACT: note_on channel=9 note=82 velocity=0 time=0.055146999999999995
EXTRACT: note_on channel=5 note=78 velocity=0 time=0.03033085
EXTRACT: note_on channel=5 note=73 velocity=0 time=0
EXTRACT: note_on channel=5 note=81 velocity=0 time=0
EXTRACT: note_on channel=6 note=49 velocity=0 time=0.0110294
EXTRACT: note_on channel=7 note=42 velocity=0 time=0
EXTRACT: note_on channel=1 note=30 velocity=0 time=0
EXTRACT: note_on channel=6 note=54 velocity=0 time=0
EXTRACT: note_on channel=7 note=54 velocity=0 time=0
EXTRACT: note_on channel=7 note=49 velocity=0 time=0
EXTRACT: note_on channel=6 note=42 velocity=0 time=0
EXTRACT: note_on channel=1 note=35 velocity=112 time=0.018382333333333334
EXTRACT: note_on channel=5 note=47 velocity=46 time=0
EXTRACT: note_on channel=5 note=85 velocity=27 time=0
EXTRACT: note_on channel=5 note=73 velocity=36 time=0
EXTRACT: note_on channel=6 note=47 velocity=78 time=0
EXTRACT: note_on channel=6 note=42 velocity=63 time=0
EXTRACT: note_on channel=6 note=61 velocity=75 time=0
EXTRACT: note_on channel=6 note=57 velocity=78 time=0
EXTRACT: note_on channel=7 note=47 velocity=78 time=0
EXTRACT: note_on channel=7 note=42 velocity=63 time=0
EXTRACT: note_on channel=7 note=61 velocity=75 time=0
EXTRACT: note_on channel=7 note=57 velocity=78 time=0
EXTRACT: note_on channel=3 note=57 velocity=0 time=0.010110283333333333
EXTRACT: note_on channel=9 note=36 velocity=89 time=0.010110283333333333
EXTRACT: note_on channel=9 note=82 velocity=50 time=0
EXTRACT: note_on channel=9 note=51 velocity=83 time=0.0055147
EXTRACT: note_on channel=9 note=82 velocity=0 time=0.0937499
EXTRACT: note_on channel=9 note=51 velocity=0 time=0.0055147
EXTRACT: note_on channel=3 note=59 velocity=100 time=0.00827205
EXTRACT: note_on channel=9 note=36 velocity=0 time=0.10753665
EXTRACT: note_on channel=9 note=82 velocity=50 time=0.08547785
EXTRACT: note_on channel=3 note=59 velocity=0 time=0.02481615
EXTRACT: note_on channel=9 note=82 velocity=0 time=0.03033085
EXTRACT: note_on channel=1 note=35 velocity=0 time=0.03768378333333333
EXTRACT: note_on channel=6 note=57 velocity=0 time=0.0110294
EXTRACT: note_on channel=7 note=57 velocity=0 time=0
EXTRACT: note_on channel=1 note=35 velocity=103 time=0.0110294
EXTRACT: note_on channel=6 note=54 velocity=41 time=0
EXTRACT: note_on channel=7 note=54 velocity=41 time=0
EXTRACT: note_on channel=6 note=61 velocity=0 time=0.018382333333333334
EXTRACT: note_on channel=7 note=61 velocity=0 time=0
EXTRACT: note_on channel=6 note=61 velocity=41 time=0
EXTRACT: note_on channel=7 note=61 velocity=41 time=0
EXTRACT: note_on channel=9 note=82 velocity=50 time=0.0045955833333333335
EXTRACT: note_on channel=9 note=51 velocity=73 time=0.0055147
EXTRACT: note_on channel=3 note=59 velocity=100 time=0.08363961666666667
EXTRACT: note_on channel=9 note=82 velocity=0 time=0.0064338166666666665
EXTRACT: note_on channel=9 note=51 velocity=0 time=0.0055147
EXTRACT: note_on channel=6 note=61 velocity=0 time=0.07077198333333333
EXTRACT: note_on channel=7 note=61 velocity=0 time=0
EXTRACT: note_on channel=6 note=61 velocity=56 time=0.025735266666666666
EXTRACT: note_on channel=7 note=61 velocity=56 time=0
EXTRACT: note_on channel=9 note=82 velocity=50 time=0.10569841666666666
EXTRACT: note_on channel=3 note=59 velocity=0 time=0.0036764666666666665
EXTRACT: note_on channel=9 note=82 velocity=0 time=0.05147053333333333
EXTRACT: note_on channel=1 note=35 velocity=0 time=0.026654383333333333
EXTRACT: note_on channel=6 note=54 velocity=0 time=0.018382333333333334
EXTRACT: note_on channel=7 note=54 velocity=0 time=0
EXTRACT: note_on channel=6 note=61 velocity=0 time=0.014705866666666666
EXTRACT: note_on channel=7 note=61 velocity=0 time=0
EXTRACT: note_on channel=1 note=35 velocity=96 time=0
EXTRACT: note_on channel=6 note=54 velocity=53 time=0
EXTRACT: note_on channel=6 note=61 velocity=72 time=0
EXTRACT: note_on channel=7 note=54 velocity=53 time=0
EXTRACT: note_on channel=7 note=61 velocity=72 time=0
EXTRACT: note_on channel=9 note=82 velocity=50 time=0.022977916666666667
EXTRACT: note_on channel=9 note=51 velocity=74 time=0.0055147
EXTRACT: note_on channel=9 note=82 velocity=0 time=0.09007343333333333
EXTRACT: note_on channel=9 note=51 velocity=0 time=0.0055147
EXTRACT: note_on channel=6 note=61 velocity=0 time=0.07077198333333333
EXTRACT: note_on channel=7 note=61 velocity=0 time=0
EXTRACT: note_on channel=6 note=61 velocity=50 time=0.025735266666666666
EXTRACT: note_on channel=7 note=61 velocity=50 time=0
EXTRACT: note_on channel=9 note=82 velocity=50 time=0.10569841666666666
EXTRACT: note_on channel=9 note=82 velocity=0 time=0.055146999999999995
EXTRACT: note_on channel=7 note=47 velocity=0 time=0.011948516666666666
EXTRACT: note_on channel=6 note=47 velocity=0 time=0
EXTRACT: note_on channel=6 note=54 velocity=0 time=0.0036764666666666665
EXTRACT: note_on channel=1 note=35 velocity=0 time=0
EXTRACT: note_on channel=7 note=54 velocity=0 time=0
EXTRACT: note_on channel=6 note=61 velocity=0 time=0.0036764666666666665
EXTRACT: note_on channel=7 note=61 velocity=0 time=0
EXTRACT: note_on channel=1 note=35 velocity=94 time=0.04044113333333333
EXTRACT: note_on channel=6 note=61 velocity=75 time=0
EXTRACT: note_on channel=6 note=47 velocity=50 time=0
EXTRACT: note_on channel=6 note=57 velocity=77 time=0
EXTRACT: note_on channel=7 note=61 velocity=75 time=0
EXTRACT: note_on channel=7 note=47 velocity=50 time=0
EXTRACT: note_on channel=7 note=57 velocity=77 time=0
EXTRACT: note_on channel=9 note=82 velocity=50 time=0.0220588
EXTRACT: note_on channel=9 note=44 velocity=82 time=0.00275735
EXTRACT: note_on channel=9 note=38 velocity=90 time=0.00275735
EXTRACT: note_on channel=9 note=51 velocity=79 time=0
EXTRACT: note_on channel=9 note=82 velocity=0 time=0.0937499
EXTRACT: note_on channel=9 note=38 velocity=0 time=0.0018382333333333333
EXTRACT: note_on channel=9 note=51 velocity=0 time=0.0036764666666666665
EXTRACT: note_on channel=9 note=44 velocity=0 time=0.11856604999999999
EXTRACT: note_on channel=9 note=82 velocity=50 time=0.08088226666666666
EXTRACT: note_on channel=9 note=82 velocity=0 time=0.055146999999999995
EXTRACT: note_on channel=6 note=61 velocity=0 time=0.03768378333333333
EXTRACT: note_on channel=7 note=61 velocity=0 time=0
EXTRACT: note_on channel=1 note=35 velocity=0 time=0.0220588
EXTRACT: note_on channel=1 note=35 velocity=96 time=0
EXTRACT: note_on channel=6 note=61 velocity=50 time=0.007352933333333333
EXTRACT: note_on channel=7 note=61 velocity=50 time=0
EXTRACT: note_on channel=9 note=82 velocity=50 time=0.012867633333333333
EXTRACT: note_on channel=9 note=51 velocity=59 time=0.0055147
EXTRACT: note_on channel=9 note=82 velocity=0 time=0.09007343333333333
EXTRACT: note_on channel=9 note=51 velocity=0 time=0.0055147
EXTRACT: note_on channel=6 note=61 velocity=0 time=0.058823466666666664
EXTRACT: note_on channel=7 note=61 velocity=0 time=0
EXTRACT: note_on channel=6 note=61 velocity=47 time=0.04044113333333333
EXTRACT: note_on channel=7 note=61 velocity=47 time=0
EXTRACT: note_on channel=9 note=82 velocity=50 time=0.10569841666666666
EXTRACT: note_on channel=9 note=82 velocity=0 time=0.055146999999999995
EXTRACT: note_on channel=7 note=57 velocity=0 time=0.022977916666666667
EXTRACT: note_on channel=6 note=57 velocity=0 time=0
EXTRACT: note_on channel=7 note=61 velocity=0 time=0
EXTRACT: note_on channel=6 note=61 velocity=0 time=0
EXTRACT: note_on channel=1 note=35 velocity=0 time=0.03676466666666667
EXTRACT: note_on channel=1 note=35 velocity=96 time=0
EXTRACT: note_on channel=6 note=61 velocity=74 time=0.007352933333333333
EXTRACT: note_on channel=7 note=61 velocity=74 time=0
EXTRACT: note_on channel=6 note=54 velocity=80 time=0.0036764666666666665
EXTRACT: note_on channel=7 note=54 velocity=80 time=0
EXTRACT: note_on channel=9 note=82 velocity=50 time=0.009191166666666667
EXTRACT: note_on channel=9 note=51 velocity=74 time=0.0055147
EXTRACT: note_on channel=9 note=82 velocity=0 time=0.09007343333333333
EXTRACT: note_on channel=9 note=51 velocity=0 time=0.0055147
EXTRACT: note_on channel=1 note=35 velocity=0 time=0.0441176
EXTRACT: note_on channel=7 note=61 velocity=0 time=0.014705866666666666
EXTRACT: note_on channel=6 note=61 velocity=0 time=0
EXTRACT: note_on channel=1 note=35 velocity=78 time=0.04044113333333333
EXTRACT: note_on channel=6 note=61 velocity=68 time=0
EXTRACT: note_on channel=7 note=61 velocity=68 time=0
EXTRACT: note_on channel=9 note=82 velocity=50 time=0.10569841666666666
EXTRACT: note_on channel=1 note=35 velocity=0 time=0.03768378333333333
EXTRACT: note_on channel=9 note=82 velocity=0 time=0.017463216666666666
EXTRACT: note_on channel=6 note=47 velocity=0 time=0.00827205
EXTRACT: note_on channel=7 note=47 velocity=0 time=0
EXTRACT: note_on channel=6 note=54 velocity=0 time=0.018382333333333334
EXTRACT: note_on channel=7 note=54 velocity=0 time=0
EXTRACT: note_on channel=5 note=85 velocity=0 time=0.0036764666666666665
EXTRACT: note_on channel=5 note=47 velocity=0 time=0
EXTRACT: note_on channel=7 note=42 velocity=0 time=0
EXTRACT: note_on channel=5 note=73 velocity=0 time=0
EXTRACT: note_on channel=6 note=42 velocity=0 time=0
EXTRACT: note_on channel=7 note=61 velocity=0 time=0.0036764666666666665
EXTRACT: note_on channel=6 note=61 velocity=0 time=0
EXTRACT: note_on channel=1 note=35 velocity=109 time=0.025735266666666666
EXTRACT: note_on channel=5 note=47 velocity=46 time=0
EXTRACT: note_on channel=5 note=83 velocity=27 time=0
EXTRACT: note_on channel=5 note=71 velocity=36 time=0
EXTRACT: note_on channel=6 note=47 velocity=78 time=0
EXTRACT: note_on channel=6 note=42 velocity=63 time=0
EXTRACT: note_on channel=6 note=59 velocity=75 time=0
EXTRACT: note_on channel=6 note=57 velocity=78 time=0
EXTRACT: note_on channel=7 note=47 velocity=78 time=0
EXTRACT: note_on channel=7 note=42 velocity=63 time=0
EXTRACT: note_on channel=7 note=59 velocity=75 time=0
EXTRACT: note_on channel=7 note=57 velocity=78 time=0
EXTRACT: note_on channel=9 note=36 velocity=104 time=0.019301449999999998
EXTRACT: note_on channel=9 note=82 velocity=50 time=0.0009191166666666666
EXTRACT: note_on channel=9 note=51 velocity=60 time=0.0055147
EXTRACT: note_on channel=9 note=82 velocity=0 time=0.0937499
EXTRACT: note_on channel=9 note=51 velocity=0 time=0.0055147
EXTRACT: note_on channel=9 note=36 velocity=0 time=0.11488958333333332
EXTRACT: note_on channel=9 note=82 velocity=50 time=0.08639696666666666
EXTRACT: note_on channel=9 note=82 velocity=0 time=0.055146999999999995
EXTRACT: note_on channel=1 note=35 velocity=0 time=0.04871318333333333
EXTRACT: note_on channel=6 note=57 velocity=0 time=0
EXTRACT: note_on channel=7 note=57 velocity=0 time=0
EXTRACT: note_on channel=1 note=35 velocity=92 time=0.0110294
EXTRACT: note_on channel=6 note=54 velocity=41 time=0
EXTRACT: note_on channel=7 note=54 velocity=41 time=0
EXTRACT: note_on channel=7 note=59 velocity=0 time=0.018382333333333334
EXTRACT: note_on channel=6 note=59 velocity=0 time=0
EXTRACT: note_on channel=6 note=59 velocity=41 time=0
EXTRACT: note_on channel=7 note=59 velocity=41 time=0
EXTRACT: note_on channel=9 note=82 velocity=50 time=0.0009191166666666666
EXTRACT: note_on channel=9 note=51 velocity=67 time=0.0055147
EXTRACT: note_on channel=9 note=82 velocity=0 time=0.0937499
EXTRACT: note_on channel=9 note=51 velocity=0 time=0.0055147
EXTRACT: note_on channel=6 note=59 velocity=0 time=0.07077198333333333
EXTRACT: note_on channel=7 note=59 velocity=0 time=0
EXTRACT: note_on channel=6 note=59 velocity=56 time=0.025735266666666666
EXTRACT: note_on channel=7 note=59 velocity=56 time=0
EXTRACT: note_on channel=9 note=82 velocity=50 time=0.10569841666666666
EXTRACT: note_on channel=9 note=82 velocity=0 time=0.055146999999999995
EXTRACT: note_on channel=1 note=35 velocity=0 time=0.0045955833333333335
EXTRACT: note_on channel=6 note=54 velocity=0 time=0.04044113333333333
EXTRACT: note_on channel=7 note=54 velocity=0 time=0
EXTRACT: note_on channel=6 note=59 velocity=0 time=0.014705866666666666
EXTRACT: note_on channel=7 note=59 velocity=0 time=0
EXTRACT: note_on channel=1 note=35 velocity=94 time=0
EXTRACT: note_on channel=6 note=54 velocity=53 time=0
EXTRACT: note_on channel=6 note=59 velocity=72 time=0
EXTRACT: note_on channel=7 note=54 velocity=53 time=0
EXTRACT: note_on channel=7 note=59 velocity=72 time=0
EXTRACT: note_on channel=9 note=82 velocity=50 time=0.020220566666666665
EXTRACT: note_on channel=9 note=51 velocity=57 time=0.0055147
EXTRACT: note_on channel=9 note=82 velocity=0 time=0.09007343333333333
EXTRACT: note_on channel=9 note=51 velocity=0 time=0.0055147
EXTRACT: note_on channel=1 note=35 velocity=0 time=0.05147053333333333
EXTRACT: note_on channel=6 note=59 velocity=0 time=0.0220588
EXTRACT: note_on channel=7 note=59 velocity=0 time=0
EXTRACT: note_on channel=1 note=35 velocity=81 time=0.025735266666666666
EXTRACT: note_on channel=6 note=59 velocity=50 time=0
EXTRACT: note_on channel=7 note=59 velocity=50 time=0
EXTRACT: note_on channel=9 note=82 velocity=50 time=0.10569841666666666
EXTRACT: note_on channel=9 note=82 velocity=0 time=0.055146999999999995
EXTRACT: note_on channel=6 note=47 velocity=0 time=0.011948516666666666
EXTRACT: note_on channel=7 note=47 velocity=0 time=0
EXTRACT: note_on channel=6 note=54 velocity=0 time=0.0036764666666666665
EXTRACT: note_on channel=7 note=54 velocity=0 time=0
EXTRACT: note_on channel=7 note=59 velocity=0 time=0.0036764666666666665
EXTRACT: note_on channel=6 note=59 velocity=0 time=0
EXTRACT: note_on channel=6 note=59 velocity=75 time=0.04044113333333333
EXTRACT: note_on channel=6 note=47 velocity=50 time=0
EXTRACT: note_on channel=6 note=57 velocity=77 time=0
EXTRACT: note_on channel=7 note=59 velocity=75 time=0
EXTRACT: note_on channel=7 note=47 velocity=50 time=0
EXTRACT: note_on channel=7 note=57 velocity=77 time=0
EXTRACT: note_on channel=9 note=82 velocity=50 time=0.014705866666666666
EXTRACT: note_on channel=9 note=50 velocity=111 time=0.0036764666666666665
EXTRACT: note_on channel=1 note=35 velocity=0 time=0.0036764666666666665
EXTRACT: note_on channel=1 note=35 velocity=100 time=0
EXTRACT: note_on channel=9 note=38 velocity=90 time=0
EXTRACT: note_on channel=9 note=50 velocity=112 time=0.0165441
EXTRACT: note_on channel=9 note=50 velocity=0 time=0.0606617
EXTRACT: note_on channel=9 note=82 velocity=0 time=0.014705866666666666
EXTRACT: note_on channel=9 note=38 velocity=0 time=0.007352933333333333
EXTRACT: note_on channel=9 note=50 velocity=0 time=0.16911746666666666
EXTRACT: note_on channel=7 note=59 velocity=0 time=0.12867633333333334
EXTRACT: note_on channel=6 note=59 velocity=0 time=0
EXTRACT: note_on channel=1 note=35 velocity=0 time=0.0110294
EXTRACT: note_on channel=1 note=35 velocity=86 time=0.0110294
EXTRACT: note_on channel=6 note=59 velocity=50 time=0.007352933333333333
EXTRACT: note_on channel=7 note=59 velocity=50 time=0
EXTRACT: note_on channel=9 note=47 velocity=112 time=0.013786749999999999
EXTRACT: note_on channel=1 note=35 velocity=0 time=0.15165425
EXTRACT: note_on channel=6 note=59 velocity=0 time=0.007352933333333333
EXTRACT: note_on channel=7 note=59 velocity=0 time=0
EXTRACT: note_on channel=1 note=35 velocity=81 time=0.04044113333333333
EXTRACT: note_on channel=6 note=59 velocity=47 time=0
EXTRACT: note_on channel=7 note=59 velocity=47 time=0
EXTRACT: note_on channel=3 note=59 velocity=100 time=0.0064338166666666665
EXTRACT: note_on channel=9 note=47 velocity=0 time=0.0496323
EXTRACT: note_on channel=9 note=38 velocity=90 time=0.05055141666666666
EXTRACT: note_on channel=7 note=57 velocity=0 time=0.07720579999999999
EXTRACT: note_on channel=6 note=57 velocity=0 time=0
EXTRACT: note_on channel=7 note=59 velocity=0 time=0
EXTRACT: note_on channel=6 note=59 velocity=0 time=0
EXTRACT: note_on channel=9 note=38 velocity=0 time=0.0220588
EXTRACT: note_on channel=1 note=35 velocity=0 time=0.0036764666666666665
EXTRACT: note_on channel=1 note=35 velocity=78 time=0.0110294
EXTRACT: note_on channel=3 note=59 velocity=0 time=0.0036764666666666665
EXTRACT: note_on channel=6 note=59 velocity=74 time=0.0036764666666666665
EXTRACT: note_on channel=7 note=59 velocity=74 time=0
EXTRACT: note_on channel=6 note=54 velocity=80 time=0.0036764666666666665
EXTRACT: note_on channel=7 note=54 velocity=80 time=0
EXTRACT: note_on channel=9 note=43 velocity=112 time=0.010110283333333333
EXTRACT: note_on channel=3 note=59 velocity=100 time=0.0045955833333333335
EXTRACT: note_on channel=7 note=59 velocity=0 time=0.15441159999999998
EXTRACT: note_on channel=6 note=59 velocity=0 time=0
EXTRACT: note_on channel=1 note=35 velocity=0 time=0.029411733333333332
EXTRACT: note_on channel=1 note=35 velocity=78 time=0.0110294
EXTRACT: note_on channel=6 note=59 velocity=68 time=0
EXTRACT: note_on channel=7 note=59 velocity=68 time=0
EXTRACT: note_on channel=3 note=59 velocity=0 time=0.022977916666666667
EXTRACT: note_on channel=3 note=59 velocity=100 time=0.0055147
EXTRACT: note_on channel=9 note=43 velocity=0 time=0.022977916666666667
EXTRACT: note_on channel=7 note=47 velocity=0 time=0.11764693333333333
EXTRACT: note_on channel=6 note=47 velocity=0 time=0
EXTRACT: note_on channel=7 note=54 velocity=0 time=0.018382333333333334
EXTRACT: note_on channel=6 note=54 velocity=0 time=0
EXTRACT: note_on channel=6 note=42 velocity=0 time=0.0036764666666666665
EXTRACT: note_on channel=5 note=47 velocity=0 time=0
EXTRACT: note_on channel=7 note=42 velocity=0 time=0
EXTRACT: note_on channel=5 note=83 velocity=0 time=0
EXTRACT: note_on channel=5 note=71 velocity=0 time=0
EXTRACT: note_on channel=6 note=59 velocity=0 time=0.0036764666666666665
EXTRACT: note_on channel=7 note=59 velocity=0 time=0
EXTRACT: note_on channel=1 note=35 velocity=0 time=0.007352933333333333
EXTRACT: note_on channel=1 note=38 velocity=109 time=0
EXTRACT: note_on channel=5 note=81 velocity=15 time=0
EXTRACT: note_on channel=5 note=78 velocity=36 time=0
EXTRACT: note_on channel=5 note=73 velocity=38 time=0
EXTRACT: note_on channel=6 note=50 velocity=78 time=0
EXTRACT: note_on channel=6 note=45 velocity=63 time=0
EXTRACT: note_on channel=6 note=62 velocity=75 time=0
EXTRACT: note_on channel=6 note=57 velocity=78 time=0
EXTRACT: note_on channel=7 note=50 velocity=78 time=0
EXTRACT: note_on channel=7 note=45 velocity=63 time=0
EXTRACT: note_on channel=7 note=62 velocity=75 time=0
EXTRACT: note_on channel=7 note=57 velocity=78 time=0
EXTRACT: note_on channel=9 note=36 velocity=89 time=0.0045955833333333335
EXTRACT: note_on channel=9 note=82 velocity=50 time=0
EXTRACT: note_on channel=3 note=59 velocity=0 time=0.0055147
EXTRACT: note_on channel=3 note=62 velocity=100 time=0
EXTRACT: note_on channel=9 note=51 velocity=83 time=0
EXTRACT: note_on channel=9 note=82 velocity=0 time=0.0937499
EXTRACT: note_on channel=9 note=51 velocity=0 time=0.0055147
EXTRACT: note_on channel=9 note=36 velocity=0 time=0.1158087
EXTRACT: note_on channel=3 note=62 velocity=0 time=0.00275735
EXTRACT: note_on channel=3 note=61 velocity=100 time=0.0009191166666666666
EXTRACT: note_on channel=9 note=82 velocity=50 time=0.06525728333333333
EXTRACT: note_on channel=9 note=82 velocity=0 time=0.055146999999999995
EXTRACT: note_on channel=1 note=38 velocity=0 time=0.08088226666666666
EXTRACT: note_on channel=6 note=57 velocity=0 time=0
EXTRACT: note_on channel=7 note=57 velocity=0 time=0
EXTRACT: note_on channel=1 note=38 velocity=92 time=0.0110294
EXTRACT: note_on channel=6 note=57 velocity=41 time=0
EXTRACT: note_on channel=7 note=57 velocity=41 time=0
EXTRACT: note_on channel=3 note=61 velocity=0 time=0.0055147
EXTRACT: note_on channel=9 note=82 velocity=50 time=0.0018382333333333333
EXTRACT: note_on channel=3 note=62 velocity=100 time=0.00275735
EXTRACT: note_on channel=9 note=51 velocity=73 time=0.00275735
EXTRACT: note_on channel=6 note=62 velocity=0 time=0.0055147
EXTRACT: note_on channel=7 note=62 velocity=0 time=0
EXTRACT: note_on channel=6 note=62 velocity=41 time=0
EXTRACT: note_on channel=7 note=62 velocity=41 time=0
EXTRACT: note_on channel=9 note=82 velocity=0 time=0.08455873333333333
EXTRACT: note_on channel=9 note=51 velocity=0 time=0.0055147
EXTRACT: note_on channel=6 note=62 velocity=0 time=0.08639696666666666
EXTRACT: note_on channel=7 note=62 velocity=0 time=0
EXTRACT: note_on channel=6 note=62 velocity=56 time=0.025735266666666666
EXTRACT: note_on channel=7 note=62 velocity=56 time=0
EXTRACT: note_on channel=3 note=62 velocity=0 time=0.007352933333333333
EXTRACT: note_on channel=3 note=61 velocity=100 time=0
EXTRACT: note_on channel=9 note=82 velocity=50 time=0.06709551666666666
EXTRACT: note_on channel=9 note=82 velocity=0 time=0.055146999999999995
EXTRACT: note_on channel=1 note=38 velocity=0 time=0.03584555
EXTRACT: note_on channel=6 note=57 velocity=0 time=0.04044113333333333
EXTRACT: note_on channel=7 note=57 velocity=0 time=0
EXTRACT: note_on channel=6 note=62 velocity=0 time=0.014705866666666666
EXTRACT: note_on channel=7 note=62 velocity=0 time=0
EXTRACT: note_on channel=1 note=38 velocity=94 time=0
EXTRACT: note_on channel=6 note=57 velocity=53 time=0
EXTRACT: note_on channel=6 note=62 velocity=72 time=0
EXTRACT: note_on channel=7 note=57 velocity=53 time=0
EXTRACT: note_on channel=7 note=62 velocity=72 time=0
EXTRACT: note_on channel=3 note=61 velocity=0 time=0.0045955833333333335
EXTRACT: note_on channel=3 note=62 velocity=100 time=0
EXTRACT: note_on channel=9 note=82 velocity=50 time=0.00275735
EXTRACT: note_on channel=9 note=51 velocity=74 time=0.0055147
EXTRACT: note_on channel=9 note=82 velocity=0 time=0.09007343333333333
EXTRACT: note_on channel=9 note=51 velocity=0 time=0.0055147
EXTRACT: note_on channel=1 note=38 velocity=0 time=0.06433816666666667
EXTRACT: note_on channel=6 note=62 velocity=0 time=0.0220588
EXTRACT: note_on channel=7 note=62 velocity=0 time=0
EXTRACT: note_on channel=1 note=38 velocity=81 time=0.025735266666666666
EXTRACT: note_on channel=6 note=62 velocity=50 time=0
EXTRACT: note_on channel=7 note=62 velocity=50 time=0
EXTRACT: note_on channel=3 note=62 velocity=0 time=0.0018382333333333333
EXTRACT: note_on channel=3 note=61 velocity=100 time=0.0110294
EXTRACT: note_on channel=9 note=82 velocity=50 time=0.0606617
EXTRACT: note_on channel=9 note=82 velocity=0 time=0.055146999999999995
EXTRACT: note_on channel=7 note=50 velocity=0 time=0.0441176
EXTRACT: note_on channel=6 note=50 velocity=0 time=0
EXTRACT: note_on channel=7 note=57 velocity=0 time=0.0036764666666666665
EXTRACT: note_on channel=6 note=57 velocity=0 time=0
EXTRACT: note_on channel=6 note=62 velocity=0 time=0.0036764666666666665
EXTRACT: note_on channel=7 note=62 velocity=0 time=0
EXTRACT: note_on channel=6 note=62 velocity=75 time=0.04044113333333333
EXTRACT: note_on channel=6 note=50 velocity=50 time=0
EXTRACT: note_on channel=6 note=57 velocity=77 time=0
EXTRACT: note_on channel=7 note=62 velocity=75 time=0
EXTRACT: note_on channel=7 note=50 velocity=50 time=0
EXTRACT: note_on channel=7 note=57 velocity=77 time=0
EXTRACT: note_on channel=3 note=62 velocity=100 time=0.0045955833333333335
EXTRACT: note_on channel=9 note=82 velocity=50 time=0.0018382333333333333
EXTRACT: note_on channel=9 note=44 velocity=82 time=0.00275735
EXTRACT: note_on channel=3 note=61 velocity=0 time=0.0009191166666666666
EXTRACT: note_on channel=9 note=38 velocity=90 time=0.0018382333333333333
EXTRACT: note_on channel=9 note=51 velocity=79 time=0
EXTRACT: note_on channel=1 note=38 velocity=0 time=0.010110283333333333
EXTRACT: note_on channel=1 note=38 velocity=100 time=0
EXTRACT: note_on channel=9 note=82 velocity=0 time=0.08363961666666667
EXTRACT: note_on channel=9 note=38 velocity=0 time=0.0018382333333333333
EXTRACT: note_on channel=9 note=51 velocity=0 time=0.0036764666666666665
EXTRACT: note_on channel=3 note=62 velocity=0 time=0.11121311666666667
EXTRACT: note_on channel=3 note=61 velocity=100 time=0.0045955833333333335
EXTRACT: note_on channel=9 note=44 velocity=0 time=0.00275735
EXTRACT: note_on channel=9 note=82 velocity=50 time=0.04871318333333333
EXTRACT: note_on channel=9 note=82 velocity=0 time=0.055146999999999995
EXTRACT: note_on channel=7 note=62 velocity=0 time=0.08547785
EXTRACT: note_on channel=6 note=62 velocity=0 time=0
EXTRACT: note_on channel=1 note=38 velocity=0 time=0.0110294
EXTRACT: note_on channel=1 note=38 velocity=86 time=0.0110294
EXTRACT: note_on channel=3 note=61 velocity=0 time=0.0036764666666666665
EXTRACT: note_on channel=3 note=62 velocity=100 time=0.0009191166666666666
EXTRACT: note_on channel=9 note=82 velocity=50 time=0
EXTRACT: note_on channel=6 note=62 velocity=50 time=0.00275735
EXTRACT: note_on channel=7 note=62 velocity=50 time=0
EXTRACT: note_on channel=9 note=51 velocity=59 time=0.00275735
EXTRACT: note_on channel=9 note=82 velocity=0 time=0.09007343333333333
EXTRACT: note_on channel=9 note=51 velocity=0 time=0.0055147
EXTRACT: note_on channel=1 note=38 velocity=0 time=0.06709551666666666
EXTRACT: note_on channel=6 note=62 velocity=0 time=0.007352933333333333
EXTRACT: note_on channel=7 note=62 velocity=0 time=0
EXTRACT: note_on channel=1 note=38 velocity=81 time=0.04044113333333333
EXTRACT: note_on channel=6 note=62 velocity=47 time=0
EXTRACT: note_on channel=7 note=62 velocity=47 time=0
EXTRACT: note_on channel=3 note=62 velocity=0 time=0.0018382333333333333
EXTRACT: note_on channel=3 note=61 velocity=100 time=0.0110294
EXTRACT: note_on channel=9 note=82 velocity=50 time=0.07720579999999999
EXTRACT: note_on channel=9 note=82 velocity=0 time=0.055146999999999995
EXTRACT: note_on channel=6 note=57 velocity=0 time=0.038602899999999996
EXTRACT: note_on channel=7 note=57 velocity=0 time=0
EXTRACT: note_on channel=6 note=62 velocity=0 time=0
EXTRACT: note_on channel=7 note=62 velocity=0 time=0
EXTRACT: note_on channel=1 note=38 velocity=0 time=0.025735266666666666
EXTRACT: note_on channel=1 note=38 velocity=78 time=0.0110294
EXTRACT: note_on channel=9 note=82 velocity=50 time=0.0045955833333333335
EXTRACT: note_on channel=6 note=62 velocity=74 time=0.00275735
EXTRACT: note_on channel=7 note=62 velocity=74 time=0
EXTRACT: note_on channel=3 note=61 velocity=0 time=0.00275735
EXTRACT: note_on channel=3 note=62 velocity=100 time=0
EXTRACT: note_on channel=9 note=51 velocity=74 time=0
EXTRACT: note_on channel=6 note=57 velocity=80 time=0.0009191166666666666
EXTRACT: note_on channel=7 note=57 velocity=80 time=0
EXTRACT: note_on channel=9 note=82 velocity=0 time=0.08915431666666666
EXTRACT: note_on channel=9 note=51 velocity=0 time=0.0055147
EXTRACT: note_on channel=6 note=62 velocity=0 time=0.07444845
EXTRACT: note_on channel=7 note=62 velocity=0 time=0
EXTRACT: note_on channel=1 note=38 velocity=0 time=0.029411733333333332
EXTRACT: note_on channel=1 note=38 velocity=78 time=0.0110294
EXTRACT: note_on channel=6 note=62 velocity=68 time=0
EXTRACT: note_on channel=7 note=62 velocity=68 time=0
EXTRACT: note_on channel=3 note=62 velocity=0 time=0.007352933333333333
EXTRACT: note_on channel=3 note=61 velocity=100 time=0
EXTRACT: note_on channel=9 note=82 velocity=50 time=0.0827205
EXTRACT: note_on channel=9 note=82 velocity=0 time=0.055146999999999995
EXTRACT: note_on channel=7 note=50 velocity=0 time=0.02389703333333333
EXTRACT: note_on channel=6 note=50 velocity=0 time=0
EXTRACT: note_on channel=7 note=57 velocity=0 time=0.018382333333333334
EXTRACT: note_on channel=6 note=57 velocity=0 time=0
EXTRACT: note_on channel=6 note=45 velocity=0 time=0.0036764666666666665
EXTRACT: note_on channel=7 note=45 velocity=0 time=0
EXTRACT: note_on channel=5 note=81 velocity=0 time=0
EXTRACT: note_on channel=5 note=73 velocity=0 time=0
EXTRACT: note_on channel=5 note=78 velocity=0 time=0
EXTRACT: note_on channel=6 note=62 velocity=0 time=0.0036764666666666665
EXTRACT: note_on channel=7 note=62 velocity=0 time=0
EXTRACT: note_on channel=1 note=38 velocity=0 time=0.007352933333333333
EXTRACT: note_on channel=1 note=38 velocity=112 time=0.018382333333333334
EXTRACT: note_on channel=5 note=88 velocity=28 time=0
EXTRACT: note_on channel=5 note=76 velocity=15 time=0
EXTRACT: note_on channel=5 note=50 velocity=48 time=0
EXTRACT: note_on channel=6 note=50 velocity=78 time=0
EXTRACT: note_on channel=6 note=45 velocity=63 time=0
EXTRACT: note_on channel=6 note=62 velocity=75 time=0
EXTRACT: note_on channel=6 note=61 velocity=78 time=0
EXTRACT: note_on channel=7 note=50 velocity=78 time=0
EXTRACT: note_on channel=7 note=45 velocity=63 time=0
EXTRACT: note_on channel=7 note=62 velocity=75 time=0
EXTRACT: note_on channel=7 note=61 velocity=78 time=0
EXTRACT: note_on channel=9 note=36 velocity=104 time=0.0036764666666666665
EXTRACT: note_on channel=3 note=61 velocity=0 time=0.0009191166666666666
EXTRACT: note_on channel=3 note=62 velocity=100 time=0
EXTRACT: note_on channel=9 note=82 velocity=50 time=0
EXTRACT: note_on channel=9 note=51 velocity=60 time=0.0055147
EXTRACT: note_on channel=9 note=82 velocity=0 time=0.0937499
EXTRACT: note_on channel=9 note=51 velocity=0 time=0.0055147
EXTRACT: note_on channel=3 note=62 velocity=0 time=0.11305135
EXTRACT: note_on channel=9 note=36 velocity=0 time=0.0018382333333333333
EXTRACT: note_on channel=3 note=61 velocity=100 time=0.009191166666666667
EXTRACT: note_on channel=9 note=82 velocity=50 time=0.07720579999999999
EXTRACT: note_on channel=9 note=82 velocity=0 time=0.055146999999999995
EXTRACT: note_on channel=6 note=61 velocity=0 time=0.06433816666666667
EXTRACT: note_on channel=7 note=61 velocity=0 time=0
EXTRACT: note_on channel=6 note=57 velocity=41 time=0.0110294
EXTRACT: note_on channel=7 note=57 velocity=41 time=0
EXTRACT: note_on channel=9 note=82 velocity=50 time=0.0036764666666666665
EXTRACT: note_on channel=1 note=38 velocity=0 time=0.0036764666666666665
EXTRACT: note_on channel=1 note=38 velocity=90 time=0
EXTRACT: note_on channel=9 note=51 velocity=67 time=0.0018382333333333333
EXTRACT: note_on channel=3 note=61 velocity=0 time=0.0009191166666666666
EXTRACT: note_on channel=3 note=62 velocity=100 time=0
EXTRACT: note_on channel=6 note=62 velocity=0 time=0.00827205
EXTRACT: note_on channel=7 note=62 velocity=0 time=0
EXTRACT: note_on channel=6 note=62 velocity=41 time=0
EXTRACT: note_on channel=7 note=62 velocity=41 time=0
EXTRACT: note_on channel=9 note=82 velocity=0 time=0.08455873333333333
EXTRACT: note_on channel=9 note=51 velocity=0 time=0.0055147
EXTRACT: note_on channel=7 note=62 velocity=0 time=0.08639696666666666
EXTRACT: note_on channel=6 note=62 velocity=0 time=0
EXTRACT: note_on channel=6 note=62 velocity=56 time=0.025735266666666666
EXTRACT: note_on channel=7 note=62 velocity=56 time=0
EXTRACT: note_on channel=3 note=62 velocity=0 time=0.007352933333333333
EXTRACT: note_on channel=3 note=61 velocity=100 time=0.0036764666666666665
EXTRACT: note_on channel=9 note=82 velocity=50 time=0.07904403333333333
EXTRACT: note_on channel=9 note=82 velocity=0 time=0.055146999999999995
EXTRACT: note_on channel=7 note=57 velocity=0 time=0.0606617
EXTRACT: note_on channel=6 note=57 velocity=0 time=0
EXTRACT: note_on channel=7 note=62 velocity=0 time=0.014705866666666666
EXTRACT: note_on channel=6 note=62 velocity=0 time=0
EXTRACT: note_on channel=6 note=57 velocity=53 time=0
EXTRACT: note_on channel=6 note=62 velocity=72 time=0
EXTRACT: note_on channel=7 note=57 velocity=53 time=0
EXTRACT: note_on channel=7 note=62 velocity=72 time=0
EXTRACT: note_on channel=3 note=62 velocity=100 time=0.00275735
EXTRACT: note_on channel=9 note=82 velocity=50 time=0.0018382333333333333
EXTRACT: note_on channel=3 note=61 velocity=0 time=0.0036764666666666665
EXTRACT: note_on channel=9 note=51 velocity=57 time=0.0018382333333333333
EXTRACT: note_on channel=1 note=38 velocity=0 time=0.019301449999999998
EXTRACT: note_on channel=1 note=38 velocity=86 time=0
EXTRACT: note_on channel=9 note=82 velocity=0 time=0.07077198333333333
EXTRACT: note_on channel=9 note=51 velocity=0 time=0.0055147
EXTRACT: note_on channel=6 note=62 velocity=0 time=0.08915431666666666
EXTRACT: note_on channel=7 note=62 velocity=0 time=0
EXTRACT: note_on channel=1 note=38 velocity=0 time=0.0110294
EXTRACT: note_on channel=3 note=62 velocity=0 time=0.014705866666666666
EXTRACT: note_on channel=1 note=38 velocity=88 time=0
EXTRACT: note_on channel=6 note=62 velocity=50 time=0
EXTRACT: note_on channel=7 note=62 velocity=50 time=0
EXTRACT: note_on channel=3 note=61 velocity=100 time=0.0110294
EXTRACT: note_on channel=9 note=82 velocity=50 time=0.07904403333333333
EXTRACT: note_on channel=9 note=82 velocity=0 time=0.055146999999999995
EXTRACT: note_on channel=7 note=50 velocity=0 time=0.027573499999999997
EXTRACT: note_on channel=6 note=50 velocity=0 time=0
EXTRACT: note_on channel=6 note=57 velocity=0 time=0.0036764666666666665
EXTRACT: note_on channel=7 note=57 velocity=0 time=0
EXTRACT: note_on channel=6 note=62 velocity=0 time=0.0036764666666666665
EXTRACT: note_on channel=7 note=62 velocity=0 time=0
EXTRACT: note_on channel=9 note=82 velocity=50 time=0.039522016666666666
EXTRACT: note_on channel=6 note=62 velocity=75 time=0.0009191166666666666
EXTRACT: note_on channel=6 note=50 velocity=50 time=0
EXTRACT: note_on channel=6 note=61 velocity=77 time=0
EXTRACT: note_on channel=7 note=62 velocity=75 time=0
EXTRACT: note_on channel=7 note=50 velocity=50 time=0
EXTRACT: note_on channel=7 note=61 velocity=77 time=0
EXTRACT: note_on channel=3 note=62 velocity=100 time=0.00275735
EXTRACT: note_on channel=9 note=51 velocity=69 time=0.0018382333333333333
EXTRACT: note_on channel=9 note=38 velocity=90 time=0.0018382333333333333
EXTRACT: note_on channel=3 note=61 velocity=0 time=0.0018382333333333333
EXTRACT: note_on channel=1 note=38 velocity=0 time=0.00275735
EXTRACT: note_on channel=1 note=38 velocity=97 time=0
EXTRACT: note_on channel=9 note=82 velocity=0 time=0.08731608333333334
EXTRACT: note_on channel=9 note=51 velocity=0 time=0.0055147
EXTRACT: note_on channel=9 note=38 velocity=0 time=0.0018382333333333333
EXTRACT: note_on channel=3 note=62 velocity=0 time=0.11488958333333332
EXTRACT: note_on channel=3 note=61 velocity=100 time=0
EXTRACT: note_on channel=9 note=82 velocity=50 time=0.09007343333333333
EXTRACT: note_on channel=9 note=82 velocity=0 time=0.055146999999999995
EXTRACT: note_on channel=6 note=62 velocity=0 time=0.05330876666666667
EXTRACT: note_on channel=7 note=62 velocity=0 time=0
EXTRACT: note_on channel=3 note=61 velocity=0 time=0.019301449999999998
EXTRACT: note_on channel=9 note=82 velocity=50 time=0.0036764666666666665
EXTRACT: note_on channel=9 note=51 velocity=91 time=0.0055147
EXTRACT: note_on channel=6 note=62 velocity=50 time=0.0009191166666666666
EXTRACT: note_on channel=7 note=62 velocity=50 time=0
EXTRACT: note_on channel=3 note=62 velocity=100 time=0.0009191166666666666
EXTRACT: note_on channel=1 note=38 velocity=0 time=0.00275735
EXTRACT: note_on channel=1 note=38 velocity=94 time=0
EXTRACT: note_on channel=9 note=82 velocity=0 time=0.08915431666666666
EXTRACT: note_on channel=9 note=51 velocity=0 time=0.0055147
EXTRACT: note_on channel=6 note=62 velocity=0 time=0.07444845
EXTRACT: note_on channel=7 note=62 velocity=0 time=0
EXTRACT: note_on channel=6 note=62 velocity=47 time=0.04044113333333333
EXTRACT: note_on channel=7 note=62 velocity=47 time=0
EXTRACT: note_on channel=3 note=62 velocity=0 time=0.0055147
EXTRACT: note_on channel=3 note=61 velocity=100 time=0.0055147
EXTRACT: note_on channel=9 note=82 velocity=50 time=0.07904403333333333
EXTRACT: note_on channel=9 note=38 velocity=90 time=0.0009191166666666666
EXTRACT: note_on channel=9 note=82 velocity=0 time=0.05422788333333333
EXTRACT: note_on channel=6 note=61 velocity=0 time=0.038602899999999996
EXTRACT: note_on channel=7 note=61 velocity=0 time=0
EXTRACT: note_on channel=6 note=62 velocity=0 time=0
EXTRACT: note_on channel=7 note=62 velocity=0 time=0
EXTRACT: note_on channel=9 note=38 velocity=0 time=0.0064338166666666665
EXTRACT: note_on channel=1 note=38 velocity=0 time=0.03033085
EXTRACT: note_on channel=1 note=38 velocity=96 time=0
EXTRACT: note_on channel=9 note=82 velocity=50 time=0
EXTRACT: note_on channel=9 note=51 velocity=76 time=0.0055147
EXTRACT: note_on channel=6 note=62 velocity=74 time=0.0018382333333333333
EXTRACT: note_on channel=7 note=62 velocity=74 time=0
EXTRACT: note_on channel=3 note=61 velocity=0 time=0.0009191166666666666
EXTRACT: note_on channel=3 note=62 velocity=100 time=0
EXTRACT: note_on channel=6 note=57 velocity=80 time=0.00275735
EXTRACT: note_on channel=7 note=57 velocity=80 time=0
EXTRACT: note_on channel=9 note=82 velocity=0 time=0.0882352
EXTRACT: note_on channel=9 note=51 velocity=0 time=0.0055147
EXTRACT: note_on channel=7 note=62 velocity=0 time=0.07536756666666666
EXTRACT: note_on channel=6 note=62 velocity=0 time=0
EXTRACT: note_on channel=6 note=62 velocity=68 time=0.04044113333333333
EXTRACT: note_on channel=7 note=62 velocity=68 time=0
EXTRACT: note_on channel=3 note=62 velocity=0 time=0.0055147
EXTRACT: note_on channel=9 note=82 velocity=50 time=0.08455873333333333
EXTRACT: note_on channel=9 note=82 velocity=0 time=0.055146999999999995
EXTRACT: note_on channel=6 note=50 velocity=0 time=0.02389703333333333
EXTRACT: note_on channel=7 note=50 velocity=0 time=0
EXTRACT: note_on channel=1 note=38 velocity=0 time=0.007352933333333333
EXTRACT: note_on channel=6 note=57 velocity=0 time=0.0110294
EXTRACT: note_on channel=7 note=57 velocity=0 time=0
EXTRACT: note_on channel=5 note=88 velocity=0 time=0.0036764666666666665
EXTRACT: note_on channel=6 note=45 velocity=0 time=0
EXTRACT: note_on channel=5 note=76 velocity=0 time=0
EXTRACT: note_on channel=5 note=50 velocity=0 time=0
EXTRACT: note_on channel=7 note=45 velocity=0 time=0
EXTRACT: note_on channel=7 note=62 velocity=0 time=0.0036764666666666665
EXTRACT: note_on channel=6 note=62 velocity=0 time=0
EXTRACT: note_on channel=1 note=39 velocity=109 time=0.025735266666666666
EXTRACT: note_on channel=5 note=39 velocity=44 time=0
EXTRACT: note_on channel=5 note=82 velocity=15 time=0
EXTRACT: note_on channel=5 note=70 velocity=28 time=0
EXTRACT: note_on channel=6 note=58 velocity=76 time=0
EXTRACT: note_on channel=6 note=51 velocity=71 time=0
EXTRACT: note_on channel=6 note=63 velocity=72 time=0
EXTRACT: note_on channel=7 note=58 velocity=76 time=0
EXTRACT: note_on channel=7 note=51 velocity=71 time=0
EXTRACT: note_on channel=7 note=63 velocity=72 time=0
EXTRACT: note_on channel=9 note=36 velocity=89 time=0.0045955833333333335
EXTRACT: note_on channel=9 note=82 velocity=50 time=0
EXTRACT: note_on channel=9 note=51 velocity=83 time=0.0055147
EXTRACT: note_on channel=9 note=82 velocity=0 time=0.0937499
EXTRACT: note_on channel=9 note=51 velocity=0 time=0.0055147
EXTRACT: note_on channel=3 note=63 velocity=100 time=0.11029399999999999
EXTRACT: note_on channel=9 note=36 velocity=0 time=0.0055147
EXTRACT: note_on channel=9 note=82 velocity=50 time=0.08547785
EXTRACT: note_on channel=9 note=82 velocity=0 time=0.055146999999999995
EXTRACT: note_on channel=6 note=58 velocity=0 time=0.0496323
EXTRACT: note_on channel=7 note=58 velocity=0 time=0
EXTRACT: note_on channel=1 note=39 velocity=0 time=0.014705866666666666
EXTRACT: note_on channel=3 note=63 velocity=0 time=0.007352933333333333
EXTRACT: note_on channel=6 note=63 velocity=0 time=0.0036764666666666665
EXTRACT: note_on channel=7 note=63 velocity=0 time=0
EXTRACT: note_on channel=1 note=39 velocity=92 time=0
EXTRACT: note_on channel=6 note=58 velocity=52 time=0
EXTRACT: note_on channel=6 note=63 velocity=45 time=0
EXTRACT: note_on channel=7 note=58 velocity=52 time=0
EXTRACT: note_on channel=7 note=63 velocity=45 time=0
EXTRACT: note_on channel=9 note=82 velocity=50 time=0.007352933333333333
EXTRACT: note_on channel=3 note=63 velocity=100 time=0.0009191166666666666
EXTRACT: note_on channel=9 note=51 velocity=73 time=0.0045955833333333335
EXTRACT: note_on channel=9 note=82 velocity=0 time=0.09007343333333333
EXTRACT: note_on channel=9 note=51 velocity=0 time=0.0055147
EXTRACT: note_on channel=7 note=63 velocity=0 time=0.05698523333333333
EXTRACT: note_on channel=6 note=63 velocity=0 time=0
EXTRACT: note_on channel=6 note=63 velocity=42 time=0.055146999999999995
EXTRACT: note_on channel=7 note=63 velocity=42 time=0
EXTRACT: note_on channel=3 note=63 velocity=0 time=0.0055147
EXTRACT: note_on channel=3 note=63 velocity=100 time=0.0055147
EXTRACT: note_on channel=9 note=82 velocity=50 time=0.07904403333333333
EXTRACT: note_on channel=9 note=82 velocity=0 time=0.055146999999999995
EXTRACT: note_on channel=1 note=39 velocity=0 time=0.020220566666666665
EXTRACT: note_on channel=7 note=58 velocity=0 time=0.0330882
EXTRACT: note_on channel=6 note=58 velocity=0 time=0
EXTRACT: note_on channel=1 note=39 velocity=94 time=0.0220588
EXTRACT: note_on channel=6 note=58 velocity=56 time=0
EXTRACT: note_on channel=7 note=58 velocity=56 time=0
EXTRACT: note_on channel=6 note=63 velocity=0 time=0.007352933333333333
EXTRACT: note_on channel=7 note=63 velocity=0 time=0
EXTRACT: note_on channel=6 note=63 velocity=77 time=0
EXTRACT: note_on channel=7 note=63 velocity=77 time=0
EXTRACT: note_on channel=9 note=82 velocity=50 time=0
EXTRACT: note_on channel=3 note=63 velocity=0 time=0.0009191166666666666
EXTRACT: note_on channel=9 note=51 velocity=74 time=0.0045955833333333335
EXTRACT: note_on channel=3 note=51 velocity=100 time=0.0064338166666666665
EXTRACT: note_on channel=9 note=82 velocity=0 time=0.08363961666666667
EXTRACT: note_on channel=9 note=51 velocity=0 time=0.0055147
EXTRACT: note_on channel=1 note=39 velocity=0 time=0.06433816666666667
EXTRACT: note_on channel=7 note=63 velocity=0 time=0.014705866666666666
EXTRACT: note_on channel=6 note=63 velocity=0 time=0
EXTRACT: note_on channel=1 note=39 velocity=81 time=0.0330882
EXTRACT: note_on channel=6 note=63 velocity=58 time=0
EXTRACT: note_on channel=7 note=63 velocity=58 time=0
EXTRACT: note_on channel=3 note=51 velocity=0 time=0.0165441
EXTRACT: note_on channel=9 note=82 velocity=50 time=0.07352933333333334
EXTRACT: note_on channel=9 note=82 velocity=0 time=0.055146999999999995
EXTRACT: note_on channel=6 note=51 velocity=0 time=0.012867633333333333
EXTRACT: note_on channel=7 note=51 velocity=0 time=0
EXTRACT: note_on channel=6 note=63 velocity=0 time=0.018382333333333334
EXTRACT: note_on channel=7 note=63 velocity=0 time=0
EXTRACT: note_on channel=6 note=58 velocity=0 time=0.0441176
EXTRACT: note_on channel=7 note=58 velocity=0 time=0
EXTRACT: note_on channel=6 note=63 velocity=71 time=0
EXTRACT: note_on channel=6 note=51 velocity=75 time=0
EXTRACT: note_on channel=6 note=58 velocity=39 time=0
EXTRACT: note_on channel=7 note=63 velocity=71 time=0
EXTRACT: note_on channel=7 note=51 velocity=75 time=0
EXTRACT: note_on channel=7 note=58 velocity=39 time=0
EXTRACT: note_on channel=9 note=82 velocity=50 time=0.0064338166666666665
EXTRACT: note_on channel=9 note=44 velocity=82 time=0.00275735
EXTRACT: note_on channel=9 note=38 velocity=90 time=0.00275735
EXTRACT: note_on channel=9 note=51 velocity=79 time=0
EXTRACT: note_on channel=1 note=39 velocity=0 time=0.010110283333333333
EXTRACT: note_on channel=1 note=39 velocity=100 time=0
EXTRACT: note_on channel=9 note=82 velocity=0 time=0.08363961666666667
EXTRACT: note_on channel=9 note=38 velocity=0 time=0.0018382333333333333
EXTRACT: note_on channel=9 note=51 velocity=0 time=0.0036764666666666665
EXTRACT: note_on channel=9 note=44 velocity=0 time=0.11856604999999999
EXTRACT: note_on channel=9 note=82 velocity=50 time=0.08088226666666666
EXTRACT: note_on channel=9 note=82 velocity=0 time=0.055146999999999995
EXTRACT: note_on channel=1 note=39 velocity=0 time=0.06433816666666667
EXTRACT: note_on channel=1 note=39 velocity=86 time=0.0110294
EXTRACT: note_on channel=3 note=63 velocity=100 time=0.00275735
EXTRACT: note_on channel=9 note=82 velocity=50 time=0.0018382333333333333
EXTRACT: note_on channel=9 note=51 velocity=59 time=0.0055147
EXTRACT: note_on channel=7 note=58 velocity=0 time=0.011948516666666666
EXTRACT: note_on channel=6 note=58 velocity=0 time=0
EXTRACT: note_on channel=6 note=58 velocity=57 time=0
EXTRACT: note_on channel=7 note=58 velocity=57 time=0
EXTRACT: note_on channel=6 note=63 velocity=0 time=0.014705866666666666
EXTRACT: note_on channel=7 note=63 velocity=0 time=0
EXTRACT: note_on channel=9 note=82 velocity=0 time=0.06341904999999999
EXTRACT: note_on channel=9 note=51 velocity=0 time=0.0055147
EXTRACT: note_on channel=1 note=39 velocity=0 time=0.06709551666666666
EXTRACT: note_on channel=3 note=63 velocity=0 time=0.04779406666666666
EXTRACT: note_on channel=1 note=39 velocity=81 time=0
EXTRACT: note_on channel=6 note=63 velocity=61 time=0
EXTRACT: note_on channel=7 note=63 velocity=61 time=0
EXTRACT: note_on channel=3 note=63 velocity=100 time=0.0110294
EXTRACT: note_on channel=9 note=82 velocity=50 time=0.07904403333333333
EXTRACT: note_on channel=9 note=82 velocity=0 time=0.055146999999999995
EXTRACT: note_on channel=6 note=51 velocity=0 time=0.045955833333333335
EXTRACT: note_on channel=7 note=51 velocity=0 time=0
EXTRACT: note_on channel=1 note=39 velocity=0 time=0.018382333333333334
EXTRACT: note_on channel=1 note=39 velocity=78 time=0.0110294
EXTRACT: note_on channel=9 note=82 velocity=50 time=0.0045955833333333335
EXTRACT: note_on channel=6 note=58 velocity=0 time=0.00275735
EXTRACT: note_on channel=7 note=58 velocity=0 time=0
EXTRACT: note_on channel=6 note=51 velocity=43 time=0
EXTRACT: note_on channel=6 note=58 velocity=53 time=0
EXTRACT: note_on channel=7 note=51 velocity=43 time=0
EXTRACT: note_on channel=7 note=58 velocity=53 time=0
EXTRACT: note_on channel=3 note=63 velocity=0 time=0.0009191166666666666
EXTRACT: note_on channel=9 note=51 velocity=74 time=0.0018382333333333333
EXTRACT: note_on channel=6 note=63 velocity=0 time=0.0009191166666666666
EXTRACT: note_on channel=7 note=63 velocity=0 time=0
EXTRACT: note_on channel=6 note=63 velocity=76 time=0
EXTRACT: note_on channel=7 note=63 velocity=76 time=0
EXTRACT: note_on channel=3 note=63 velocity=100 time=0.00275735
EXTRACT: note_on channel=9 note=82 velocity=0 time=0.08639696666666666
EXTRACT: note_on channel=9 note=51 velocity=0 time=0.0055147
EXTRACT: note_on channel=6 note=63 velocity=0 time=0.07812491666666667
EXTRACT: note_on channel=7 note=63 velocity=0 time=0
EXTRACT: note_on channel=1 note=39 velocity=0 time=0.025735266666666666
EXTRACT: note_on channel=1 note=39 velocity=78 time=0.0110294
EXTRACT: note_on channel=6 note=63 velocity=57 time=0
EXTRACT: note_on channel=7 note=63 velocity=57 time=0
EXTRACT: note_on channel=3 note=63 velocity=0 time=0.0110294
EXTRACT: note_on channel=9 note=82 velocity=50 time=0.07904403333333333
EXTRACT: note_on channel=9 note=82 velocity=0 time=0.055146999999999995
EXTRACT: note_on channel=5 note=82 velocity=0 time=0.042279366666666665
EXTRACT: note_on channel=5 note=70 velocity=0 time=0.0036764666666666665
EXTRACT: note_on channel=5 note=39 velocity=0 time=0
EXTRACT: note_on channel=6 note=63 velocity=0 time=0.0110294
EXTRACT: note_on channel=1 note=39 velocity=0 time=0
EXTRACT: note_on channel=7 note=58 velocity=0 time=0
EXTRACT: note_on channel=7 note=63 velocity=0 time=0
EXTRACT: note_on channel=6 note=58 velocity=0 time=0
EXTRACT: note_on channel=7 note=51 velocity=0 time=0.0036764666666666665
EXTRACT: note_on channel=6 note=51 velocity=0 time=0
EXTRACT: note_on channel=1 note=39 velocity=109 time=0.014705866666666666
EXTRACT: note_on channel=5 note=82 velocity=36 time=0
EXTRACT: note_on channel=5 note=70 velocity=15 time=0
EXTRACT: note_on channel=5 note=39 velocity=46 time=0
EXTRACT: note_on channel=6 note=51 velocity=78 time=0
EXTRACT: note_on channel=6 note=46 velocity=63 time=0
EXTRACT: note_on channel=6 note=58 velocity=75 time=0
EXTRACT: note_on channel=6 note=54 velocity=78 time=0
EXTRACT: note_on channel=7 note=51 velocity=78 time=0
EXTRACT: note_on channel=7 note=46 velocity=63 time=0
EXTRACT: note_on channel=7 note=58 velocity=75 time=0
EXTRACT: note_on channel=7 note=54 velocity=78 time=0
EXTRACT: note_on channel=9 note=36 velocity=104 time=0.0036764666666666665
EXTRACT: note_on channel=9 note=82 velocity=50 time=0.0009191166666666666
EXTRACT: note_on channel=9 note=51 velocity=60 time=0.0055147
EXTRACT: note_on channel=9 note=82 velocity=0 time=0.0937499
EXTRACT: note_on channel=9 note=51 velocity=0 time=0.0055147
EXTRACT: note_on channel=3 note=63 velocity=100 time=0.10477929999999999
EXTRACT: note_on channel=9 note=36 velocity=0 time=0.010110283333333333
EXTRACT: note_on channel=9 note=82 velocity=50 time=0.08639696666666666
EXTRACT: note_on channel=9 note=82 velocity=0 time=0.055146999999999995
EXTRACT: note_on channel=1 note=39 velocity=0 time=0.06433816666666667
EXTRACT: note_on channel=3 note=63 velocity=0 time=0.0018382333333333333
EXTRACT: note_on channel=1 note=39 velocity=92 time=0.009191166666666667
EXTRACT: note_on channel=3 note=63 velocity=100 time=0.00275735
EXTRACT: note_on channel=9 note=82 velocity=50 time=0.0009191166666666666
EXTRACT: note_on channel=9 note=51 velocity=67 time=0.0055147
EXTRACT: note_on channel=9 note=82 velocity=0 time=0.0937499
EXTRACT: note_on channel=9 note=51 velocity=0 time=0.0055147
EXTRACT: note_on channel=3 note=63 velocity=0 time=0.11213223333333333
EXTRACT: note_on channel=3 note=63 velocity=100 time=0.0055147
EXTRACT: note_on channel=9 note=82 velocity=50 time=0.08455873333333333
EXTRACT: note_on channel=9 note=82 velocity=0 time=0.055146999999999995
EXTRACT: note_on channel=1 note=39 velocity=0 time=0.020220566666666665
EXTRACT: note_on channel=1 note=39 velocity=94 time=0.055146999999999995
EXTRACT: note_on channel=3 note=63 velocity=0 time=0.00275735
EXTRACT: note_on channel=9 note=82 velocity=50 time=0.0018382333333333333
EXTRACT: note_on channel=9 note=51 velocity=57 time=0.0055147
EXTRACT: note_on channel=3 note=51 velocity=100 time=0.0036764666666666665
EXTRACT: note_on channel=9 note=82 velocity=0 time=0.08639696666666666
EXTRACT: note_on channel=9 note=51 velocity=0 time=0.0055147
EXTRACT: note_on channel=1 note=39 velocity=0 time=0.06709551666666666
EXTRACT: note_on channel=1 note=39 velocity=81 time=0.04779406666666666
EXTRACT: note_on channel=3 note=51 velocity=0 time=0.0110294
EXTRACT: note_on channel=9 note=82 velocity=50 time=0.07904403333333333
EXTRACT: note_on channel=9 note=82 velocity=0 time=0.055146999999999995
EXTRACT: note_on channel=6 note=54 velocity=0 time=0.0055147
EXTRACT: note_on channel=7 note=54 velocity=0 time=0
EXTRACT: note_on channel=7 note=58 velocity=0 time=0.007352933333333333
EXTRACT: note_on channel=6 note=58 velocity=0 time=0
EXTRACT: note_on channel=7 note=51 velocity=0 time=0.014705866666666666
EXTRACT: note_on channel=6 note=51 velocity=0 time=0
EXTRACT: note_on channel=9 note=82 velocity=50 time=0.04687495
EXTRACT: note_on channel=6 note=58 velocity=75 time=0.0009191166666666666
EXTRACT: note_on channel=6 note=51 velocity=50 time=0
EXTRACT: note_on channel=6 note=54 velocity=77 time=0
EXTRACT: note_on channel=7 note=58 velocity=75 time=0
EXTRACT: note_on channel=7 note=51 velocity=50 time=0
EXTRACT: note_on channel=7 note=54 velocity=77 time=0
EXTRACT: note_on channel=9 note=51 velocity=69 time=0.0045955833333333335
EXTRACT: note_on channel=9 note=38 velocity=90 time=0.0018382333333333333
EXTRACT: note_on channel=1 note=39 velocity=0 time=0.015624983333333333
EXTRACT: note_on channel=1 note=39 velocity=100 time=0
EXTRACT: note_on channel=9 note=82 velocity=0 time=0.07628668333333333
EXTRACT: note_on channel=9 note=51 velocity=0 time=0.0055147
EXTRACT: note_on channel=9 note=38 velocity=0 time=0.0018382333333333333
EXTRACT: note_on channel=9 note=82 velocity=50 time=0.20496301666666666
EXTRACT: note_on channel=9 note=82 velocity=0 time=0.055146999999999995
EXTRACT: note_on channel=1 note=39 velocity=0 time=0.06433816666666667
EXTRACT: note_on channel=3 note=63 velocity=100 time=0.00827205
EXTRACT: note_on channel=1 note=39 velocity=86 time=0.00275735
EXTRACT: note_on channel=9 note=82 velocity=50 time=0.0009191166666666666
EXTRACT: note_on channel=9 note=51 velocity=91 time=0.0055147
EXTRACT: note_on channel=9 note=82 velocity=0 time=0.0937499
EXTRACT: note_on channel=9 note=51 velocity=0 time=0.0055147
EXTRACT: note_on channel=1 note=39 velocity=0 time=0.06709551666666666
EXTRACT: note_on channel=3 note=63 velocity=0 time=0.042279366666666665
EXTRACT: note_on channel=1 note=39 velocity=81 time=0.0055147
EXTRACT: note_on channel=3 note=63 velocity=100 time=0.0055147
EXTRACT: note_on channel=9 note=82 velocity=50 time=0.08455873333333333
EXTRACT: note_on channel=9 note=38 velocity=90 time=0.0009191166666666666
EXTRACT: note_on channel=9 note=82 velocity=0 time=0.05422788333333333
EXTRACT: note_on channel=9 note=38 velocity=0 time=0.045036716666666664
EXTRACT: note_on channel=1 note=39 velocity=0 time=0.019301449999999998
EXTRACT: note_on channel=1 note=39 velocity=78 time=0.0110294
EXTRACT: note_on channel=9 note=82 velocity=50 time=0
EXTRACT: note_on channel=3 note=63 velocity=0 time=0.00275735
EXTRACT: note_on channel=9 note=51 velocity=76 time=0.00275735
EXTRACT: note_on channel=3 note=63 velocity=100 time=0.00275735
EXTRACT: note_on channel=9 note=82 velocity=0 time=0.09099254999999999
EXTRACT: note_on channel=9 note=51 velocity=0 time=0.0055147
EXTRACT: note_on channel=1 note=39 velocity=0 time=0.10477929999999999
EXTRACT: note_on channel=1 note=39 velocity=78 time=0.0110294
EXTRACT: note_on channel=3 note=63 velocity=0 time=0.0055147
EXTRACT: note_on channel=9 note=41 velocity=73 time=0.07720579999999999
EXTRACT: note_on channel=9 note=82 velocity=50 time=0.007352933333333333
EXTRACT: note_on channel=9 note=82 velocity=0 time=0.055146999999999995
EXTRACT: note_on channel=7 note=54 velocity=0 time=0.020220566666666665
EXTRACT: note_on channel=6 note=54 velocity=0 time=0
EXTRACT: note_on channel=6 note=51 velocity=0 time=0.0036764666666666665
EXTRACT: note_on channel=7 note=51 velocity=0 time=0
EXTRACT: note_on channel=6 note=58 velocity=0 time=0.007352933333333333
EXTRACT: note_on channel=7 note=58 velocity=0 time=0
EXTRACT: note_on channel=9 note=41 velocity=0 time=0.0055147
EXTRACT: note_on channel=6 note=46 velocity=0 time=0.009191166666666667
EXTRACT: note_on channel=5 note=82 velocity=0 time=0
EXTRACT: note_on channel=5 note=70 velocity=0 time=0
EXTRACT: note_on channel=7 note=46 velocity=0 time=0
EXTRACT: note_on channel=5 note=39 velocity=0 time=0
EXTRACT: note_on channel=1 note=39 velocity=0 time=0.0110294
EXTRACT: note_on channel=1 note=38 velocity=106 time=0.018382333333333334
EXTRACT: note_on channel=5 note=50 velocity=44 time=0
EXTRACT: note_on channel=5 note=88 velocity=15 time=0
EXTRACT: note_on channel=5 note=76 velocity=28 time=0
EXTRACT: note_on channel=6 note=50 velocity=78 time=0
EXTRACT: note_on channel=6 note=45 velocity=63 time=0
EXTRACT: note_on channel=6 note=62 velocity=75 time=0
EXTRACT: note_on channel=6 note=57 velocity=78 time=0
EXTRACT: note_on channel=7 note=50 velocity=78 time=0
EXTRACT: note_on channel=7 note=45 velocity=63 time=0
EXTRACT: note_on channel=7 note=62 velocity=75 time=0
EXTRACT: note_on channel=7 note=57 velocity=78 time=0
EXTRACT: note_on channel=9 note=36 velocity=89 time=0.0045955833333333335
EXTRACT: note_on channel=9 note=82 velocity=50 time=0
EXTRACT: note_on channel=9 note=51 velocity=83 time=0.0055147
EXTRACT: note_on channel=9 note=82 velocity=0 time=0.0937499
EXTRACT: note_on channel=9 note=51 velocity=0 time=0.0055147
EXTRACT: note_on channel=3 note=62 velocity=100 time=0.11397046666666666
EXTRACT: note_on channel=9 note=36 velocity=0 time=0.0018382333333333333
EXTRACT: note_on channel=9 note=82 velocity=50 time=0.08547785
EXTRACT: note_on channel=9 note=82 velocity=0 time=0.055146999999999995
EXTRACT: note_on channel=1 note=38 velocity=0 time=0.03492643333333333
EXTRACT: note_on channel=6 note=57 velocity=0 time=0.029411733333333332
EXTRACT: note_on channel=7 note=57 velocity=0 time=0
EXTRACT: note_on channel=3 note=62 velocity=0 time=0.0110294
EXTRACT: note_on channel=1 note=38 velocity=102 time=0
EXTRACT: note_on channel=6 note=57 velocity=41 time=0
EXTRACT: note_on channel=7 note=57 velocity=41 time=0
EXTRACT: note_on channel=3 note=62 velocity=100 time=0.0055147
EXTRACT: note_on channel=9 note=82 velocity=50 time=0.0018382333333333333
EXTRACT: note_on channel=9 note=51 velocity=73 time=0.0055147
EXTRACT: note_on channel=7 note=62 velocity=0 time=0.0055147
EXTRACT: note_on channel=6 note=62 velocity=0 time=0
EXTRACT: note_on channel=6 note=62 velocity=41 time=0
EXTRACT: note_on channel=7 note=62 velocity=41 time=0
EXTRACT: note_on channel=9 note=82 velocity=0 time=0.08455873333333333
EXTRACT: note_on channel=9 note=51 velocity=0 time=0.0055147
EXTRACT: note_on channel=6 note=62 velocity=0 time=0.08639696666666666
EXTRACT: note_on channel=7 note=62 velocity=0 time=0
EXTRACT: note_on channel=3 note=61 velocity=100 time=0.022977916666666667
EXTRACT: note_on channel=6 note=62 velocity=56 time=0.00275735
EXTRACT: note_on channel=7 note=62 velocity=56 time=0
EXTRACT: note_on channel=3 note=62 velocity=0 time=0.00275735
EXTRACT: note_on channel=9 note=82 velocity=50 time=0.08731608333333334
EXTRACT: note_on channel=9 note=82 velocity=0 time=0.055146999999999995
EXTRACT: note_on channel=1 note=38 velocity=0 time=0.027573499999999997
EXTRACT: note_on channel=6 note=57 velocity=0 time=0.0330882
EXTRACT: note_on channel=7 note=57 velocity=0 time=0
EXTRACT: note_on channel=3 note=61 velocity=0 time=0.009191166666666667
EXTRACT: note_on channel=6 note=62 velocity=0 time=0.0055147
EXTRACT: note_on channel=7 note=62 velocity=0 time=0
EXTRACT: note_on channel=1 note=38 velocity=106 time=0
EXTRACT: note_on channel=6 note=57 velocity=53 time=0
EXTRACT: note_on channel=6 note=62 velocity=72 time=0
EXTRACT: note_on channel=7 note=57 velocity=53 time=0
EXTRACT: note_on channel=7 note=62 velocity=72 time=0
EXTRACT: note_on channel=3 note=62 velocity=100 time=0.0055147
EXTRACT: note_on channel=9 note=82 velocity=50 time=0.0018382333333333333
EXTRACT: note_on channel=9 note=51 velocity=74 time=0.0055147
EXTRACT: note_on channel=9 note=82 velocity=0 time=0.09007343333333333
EXTRACT: note_on channel=9 note=51 velocity=0 time=0.0055147
EXTRACT: note_on channel=6 note=62 velocity=0 time=0.08639696666666666
EXTRACT: note_on channel=7 note=62 velocity=0 time=0
EXTRACT: note_on channel=6 note=62 velocity=50 time=0.025735266666666666
EXTRACT: note_on channel=7 note=62 velocity=50 time=0
EXTRACT: note_on channel=3 note=62 velocity=0 time=0.00275735
EXTRACT: note_on channel=9 note=82 velocity=50 time=0.08731608333333334
EXTRACT: note_on channel=9 note=82 velocity=0 time=0.055146999999999995
EXTRACT: note_on channel=7 note=50 velocity=0 time=0.027573499999999997
EXTRACT: note_on channel=6 note=50 velocity=0 time=0
EXTRACT: note_on channel=6 note=57 velocity=0 time=0.0036764666666666665
EXTRACT: note_on channel=7 note=57 velocity=0 time=0
EXTRACT: note_on channel=6 note=62 velocity=0 time=0.0036764666666666665
EXTRACT: note_on channel=7 note=62 velocity=0 time=0
EXTRACT: note_on channel=1 note=38 velocity=0 time=0.007352933333333333
EXTRACT: note_on channel=1 note=38 velocity=109 time=0.0330882
EXTRACT: note_on channel=6 note=62 velocity=75 time=0
EXTRACT: note_on channel=6 note=50 velocity=50 time=0
EXTRACT: note_on channel=6 note=57 velocity=77 time=0
EXTRACT: note_on channel=7 note=62 velocity=75 time=0
EXTRACT: note_on channel=7 note=50 velocity=50 time=0
EXTRACT: note_on channel=7 note=57 velocity=77 time=0
EXTRACT: note_on channel=9 note=82 velocity=50 time=0.0064338166666666665
EXTRACT: note_on channel=9 note=44 velocity=82 time=0.00275735
EXTRACT: note_on channel=9 note=38 velocity=90 time=0.00275735
EXTRACT: note_on channel=9 note=51 velocity=79 time=0
EXTRACT: note_on channel=9 note=82 velocity=0 time=0.0937499
EXTRACT: note_on channel=9 note=38 velocity=0 time=0.0018382333333333333
EXTRACT: note_on channel=9 note=51 velocity=0 time=0.0036764666666666665
EXTRACT: note_on channel=9 note=44 velocity=0 time=0.11856604999999999
EXTRACT: note_on channel=9 note=82 velocity=50 time=0.08088226666666666
EXTRACT: note_on channel=9 note=82 velocity=0 time=0.055146999999999995
EXTRACT: note_on channel=1 note=38 velocity=0 time=0.045955833333333335
EXTRACT: note_on channel=7 note=62 velocity=0 time=0.007352933333333333
EXTRACT: note_on channel=6 note=62 velocity=0 time=0
EXTRACT: note_on channel=1 note=38 velocity=104 time=0.0220588
EXTRACT: note_on channel=3 note=62 velocity=100 time=0
EXTRACT: note_on channel=9 note=82 velocity=50 time=0.0045955833333333335
EXTRACT: note_on channel=6 note=62 velocity=50 time=0.00275735
EXTRACT: note_on channel=7 note=62 velocity=50 time=0
EXTRACT: note_on channel=9 note=51 velocity=59 time=0.00275735
EXTRACT: note_on channel=9 note=82 velocity=0 time=0.09007343333333333
EXTRACT: note_on channel=9 note=51 velocity=0 time=0.0055147
EXTRACT: note_on channel=6 note=62 velocity=0 time=0.07444845
EXTRACT: note_on channel=7 note=62 velocity=0 time=0
EXTRACT: note_on channel=3 note=62 velocity=0 time=0.03768378333333333
EXTRACT: note_on channel=6 note=62 velocity=47 time=0.00275735
EXTRACT: note_on channel=7 note=62 velocity=47 time=0
EXTRACT: note_on channel=3 note=62 velocity=100 time=0.013786749999999999
EXTRACT: note_on channel=9 note=82 velocity=50 time=0.07628668333333333
EXTRACT: note_on channel=9 note=82 velocity=0 time=0.055146999999999995
EXTRACT: note_on channel=6 note=57 velocity=0 time=0.038602899999999996
EXTRACT: note_on channel=7 note=62 velocity=0 time=0
EXTRACT: note_on channel=7 note=57 velocity=0 time=0
EXTRACT: note_on channel=6 note=62 velocity=0 time=0
EXTRACT: note_on channel=1 note=38 velocity=0 time=0.0036764666666666665
EXTRACT: note_on channel=1 note=38 velocity=98 time=0.0330882
EXTRACT: note_on channel=9 note=82 velocity=50 time=0.0045955833333333335
EXTRACT: note_on channel=6 note=62 velocity=74 time=0.00275735
EXTRACT: note_on channel=7 note=62 velocity=74 time=0
EXTRACT: note_on channel=9 note=51 velocity=74 time=0.00275735
EXTRACT: note_on channel=3 note=62 velocity=0 time=0.0009191166666666666
EXTRACT: note_on channel=6 note=57 velocity=80 time=0
EXTRACT: note_on channel=7 note=57 velocity=80 time=0
EXTRACT: note_on channel=3 note=62 velocity=100 time=0.0110294
EXTRACT: note_on channel=9 note=82 velocity=0 time=0.07812491666666667
EXTRACT: note_on channel=9 note=51 velocity=0 time=0.0055147
EXTRACT: note_on channel=6 note=62 velocity=0 time=0.07444845
EXTRACT: note_on channel=7 note=62 velocity=0 time=0
EXTRACT: note_on channel=6 note=62 velocity=68 time=0.04044113333333333
EXTRACT: note_on channel=7 note=62 velocity=68 time=0
EXTRACT: note_on channel=3 note=62 velocity=0 time=0.019301449999999998
EXTRACT: note_on channel=9 note=82 velocity=50 time=0.07077198333333333
EXTRACT: note_on channel=9 note=82 velocity=0 time=0.055146999999999995
EXTRACT: note_on channel=7 note=50 velocity=0 time=0.02389703333333333
EXTRACT: note_on channel=6 note=50 velocity=0 time=0
EXTRACT: note_on channel=5 note=88 velocity=0 time=0.018382333333333334
EXTRACT: note_on channel=7 note=57 velocity=0 time=0
EXTRACT: note_on channel=6 note=57 velocity=0 time=0
EXTRACT: note_on channel=6 note=45 velocity=0 time=0.0036764666666666665
EXTRACT: note_on channel=5 note=50 velocity=0 time=0
EXTRACT: note_on channel=7 note=45 velocity=0 time=0
EXTRACT: note_on channel=5 note=76 velocity=0 time=0
EXTRACT: note_on channel=7 note=62 velocity=0 time=0.0036764666666666665
EXTRACT: note_on channel=6 note=62 velocity=0 time=0
EXTRACT: note_on channel=1 note=38 velocity=0 time=0.007352933333333333
EXTRACT: note_on channel=1 note=39 velocity=106 time=0.018382333333333334
EXTRACT: note_on channel=5 note=78 velocity=15 time=0
EXTRACT: note_on channel=5 note=75 velocity=36 time=0
EXTRACT: note_on channel=5 note=70 velocity=49 time=0
EXTRACT: note_on channel=6 note=58 velocity=76 time=0
EXTRACT: note_on channel=6 note=51 velocity=71 time=0
EXTRACT: note_on channel=6 note=63 velocity=72 time=0
EXTRACT: note_on channel=7 note=58 velocity=76 time=0
EXTRACT: note_on channel=7 note=51 velocity=71 time=0
EXTRACT: note_on channel=7 note=63 velocity=72 time=0
EXTRACT: note_on channel=9 note=36 velocity=104 time=0.0036764666666666665
EXTRACT: note_on channel=9 note=82 velocity=50 time=0.0009191166666666666
EXTRACT: note_on channel=9 note=51 velocity=60 time=0.0055147
EXTRACT: note_on channel=9 note=82 velocity=0 time=0.0937499
EXTRACT: note_on channel=9 note=51 velocity=0 time=0.0055147
EXTRACT: note_on channel=3 note=63 velocity=100 time=0.10845576666666666
EXTRACT: note_on channel=9 note=36 velocity=0 time=0.0064338166666666665
EXTRACT: note_on channel=9 note=82 velocity=50 time=0.08639696666666666
EXTRACT: note_on channel=9 note=82 velocity=0 time=0.055146999999999995
EXTRACT: note_on channel=1 note=39 velocity=0 time=0.03492643333333333
EXTRACT: note_on channel=6 note=58 velocity=0 time=0.014705866666666666
EXTRACT: note_on channel=7 note=58 velocity=0 time=0
EXTRACT: note_on channel=3 note=63 velocity=0 time=0.020220566666666665
EXTRACT: note_on channel=7 note=63 velocity=0 time=0.0055147
EXTRACT: note_on channel=6 note=63 velocity=0 time=0
EXTRACT: note_on channel=1 note=39 velocity=102 time=0
EXTRACT: note_on channel=6 note=58 velocity=52 time=0
EXTRACT: note_on channel=6 note=63 velocity=45 time=0
EXTRACT: note_on channel=7 note=58 velocity=52 time=0
EXTRACT: note_on channel=7 note=63 velocity=45 time=0
EXTRACT: note_on channel=9 note=82 velocity=50 time=0.0036764666666666665
EXTRACT: note_on channel=3 note=63 velocity=100 time=0.0018382333333333333
EXTRACT: note_on channel=9 note=51 velocity=67 time=0.0036764666666666665
EXTRACT: note_on channel=9 note=82 velocity=0 time=0.0937499
EXTRACT: note_on channel=9 note=51 velocity=0 time=0.0055147
EXTRACT: note_on channel=7 note=63 velocity=0 time=0.05698523333333333
EXTRACT: note_on channel=6 note=63 velocity=0 time=0
EXTRACT: note_on channel=6 note=63 velocity=42 time=0.055146999999999995
EXTRACT: note_on channel=7 note=63 velocity=42 time=0
EXTRACT: note_on channel=3 note=63 velocity=0 time=0.00275735
EXTRACT: note_on channel=3 note=63 velocity=100 time=0.0055147
EXTRACT: note_on channel=9 note=82 velocity=50 time=0.08180138333333332
EXTRACT: note_on channel=9 note=82 velocity=0 time=0.055146999999999995
EXTRACT: note_on channel=1 note=39 velocity=0 time=0.027573499999999997
EXTRACT: note_on channel=7 note=58 velocity=0 time=0.025735266666666666
EXTRACT: note_on channel=6 note=58 velocity=0 time=0
EXTRACT: note_on channel=1 note=39 velocity=106 time=0.0220588
EXTRACT: note_on channel=6 note=58 velocity=56 time=0
EXTRACT: note_on channel=7 note=58 velocity=56 time=0
EXTRACT: note_on channel=9 note=82 velocity=50 time=0.0045955833333333335
EXTRACT: note_on channel=3 note=63 velocity=0 time=0.0009191166666666666
EXTRACT: note_on channel=6 note=63 velocity=0 time=0.0018382333333333333
EXTRACT: note_on channel=7 note=63 velocity=0 time=0
EXTRACT: note_on channel=6 note=63 velocity=77 time=0
EXTRACT: note_on channel=7 note=63 velocity=77 time=0
EXTRACT: note_on channel=9 note=51 velocity=57 time=0.00275735
EXTRACT: note_on channel=3 note=63 velocity=100 time=0.0064338166666666665
EXTRACT: note_on channel=9 note=82 velocity=0 time=0.08363961666666667
EXTRACT: note_on channel=9 note=51 velocity=0 time=0.0055147
EXTRACT: note_on channel=7 note=63 velocity=0 time=0.08180138333333332
EXTRACT: note_on channel=6 note=63 velocity=0 time=0
EXTRACT: note_on channel=6 note=63 velocity=58 time=0.0330882
EXTRACT: note_on channel=7 note=63 velocity=58 time=0
EXTRACT: note_on channel=3 note=63 velocity=0 time=0.013786749999999999
EXTRACT: note_on channel=9 note=82 velocity=50 time=0.07628668333333333
EXTRACT: note_on channel=9 note=82 velocity=0 time=0.055146999999999995
EXTRACT: note_on channel=6 note=51 velocity=0 time=0.012867633333333333
EXTRACT: note_on channel=7 note=51 velocity=0 time=0
EXTRACT: note_on channel=6 note=63 velocity=0 time=0.018382333333333334
EXTRACT: note_on channel=7 note=63 velocity=0 time=0
EXTRACT: note_on channel=1 note=39 velocity=0 time=0.0110294
EXTRACT: note_on channel=5 note=78 velocity=0 time=0.0036764666666666665
EXTRACT: note_on channel=5 note=75 velocity=0 time=0
EXTRACT: note_on channel=5 note=70 velocity=0 time=0
EXTRACT: note_on channel=7 note=58 velocity=0 time=0.0110294
EXTRACT: note_on channel=6 note=58 velocity=0 time=0
EXTRACT: note_on channel=9 note=82 velocity=50 time=0.017463216666666666
EXTRACT: note_on channel=1 note=39 velocity=117 time=0.0009191166666666666
EXTRACT: note_on channel=5 note=78 velocity=20 time=0
EXTRACT: note_on channel=5 note=75 velocity=41 time=0
EXTRACT: note_on channel=5 note=70 velocity=54 time=0
EXTRACT: note_on channel=6 note=51 velocity=83 time=0
EXTRACT: note_on channel=6 note=46 velocity=68 time=0
EXTRACT: note_on channel=6 note=63 velocity=80 time=0
EXTRACT: note_on channel=6 note=58 velocity=83 time=0
EXTRACT: note_on channel=7 note=51 velocity=83 time=0
EXTRACT: note_on channel=7 note=46 velocity=68 time=0
EXTRACT: note_on channel=7 note=63 velocity=80 time=0
EXTRACT: note_on channel=7 note=58 velocity=83 time=0
EXTRACT: note_on channel=9 note=51 velocity=69 time=0.0045955833333333335
EXTRACT: note_on channel=9 note=38 velocity=90 time=0.0018382333333333333
EXTRACT: note_on channel=9 note=82 velocity=0 time=0.09191166666666667
EXTRACT: note_on channel=9 note=51 velocity=0 time=0.0055147
EXTRACT: note_on channel=9 note=38 velocity=0 time=0.0018382333333333333
EXTRACT: note_on channel=6 note=46 velocity=0 time=0.022977916666666667
EXTRACT: note_on channel=5 note=78 velocity=0 time=0
EXTRACT: note_on channel=6 note=58 velocity=0 time=0
EXTRACT: note_on channel=5 note=75 velocity=0 time=0
EXTRACT: note_on channel=5 note=70 velocity=0 time=0
EXTRACT: note_on channel=1 note=39 velocity=0 time=0
EXTRACT: note_on channel=7 note=58 velocity=0 time=0
EXTRACT: note_on channel=7 note=63 velocity=0 time=0
EXTRACT: note_on channel=7 note=51 velocity=0 time=0
EXTRACT: note_on channel=6 note=63 velocity=0 time=0
EXTRACT: note_on channel=6 note=51 velocity=0 time=0
EXTRACT: note_on channel=7 note=46 velocity=0 time=0
EXTRACT: note_on channel=3 note=59 velocity=100 time=0.31801436666666666
EXTRACT: note_on channel=3 note=63 velocity=100 time=0.2150733
EXTRACT: note_on channel=3 note=59 velocity=0 time=0.00275735
EXTRACT: note_on channel=3 note=63 velocity=0 time=0.43290395
EXTRACT: note_on channel=3 note=63 velocity=100 time=0.009191166666666667
EXTRACT: note_on channel=1 note=40 velocity=106 time=0.21691153333333332
EXTRACT: note_on channel=5 note=40 velocity=44 time=0
EXTRACT: note_on channel=5 note=88 velocity=15 time=0
EXTRACT: note_on channel=5 note=76 velocity=28 time=0
EXTRACT: note_on channel=6 note=52 velocity=61 time=0
EXTRACT: note_on channel=6 note=59 velocity=81 time=0
EXTRACT: note_on channel=6 note=64 velocity=85 time=0
EXTRACT: note_on channel=7 note=52 velocity=61 time=0
EXTRACT: note_on channel=7 note=59 velocity=81 time=0
EXTRACT: note_on channel=7 note=64 velocity=85 time=0
EXTRACT: note_on channel=3 note=63 velocity=0 time=0.0009191166666666666
EXTRACT: note_on channel=3 note=64 velocity=100 time=0.0018382333333333333
EXTRACT: note_on channel=9 note=36 velocity=89 time=0.0018382333333333333
EXTRACT: note_on channel=9 note=82 velocity=50 time=0
EXTRACT: note_on channel=9 note=51 velocity=83 time=0.0055147
EXTRACT: note_on channel=9 note=82 velocity=0 time=0.0937499
EXTRACT: note_on channel=9 note=51 velocity=0 time=0.0055147
EXTRACT: note_on channel=9 note=36 velocity=0 time=0.1158087
EXTRACT: note_on channel=9 note=82 velocity=50 time=0.08547785
EXTRACT: note_on channel=9 note=82 velocity=0 time=0.055146999999999995
EXTRACT: note_on channel=1 note=40 velocity=0 time=0.03492643333333333
EXTRACT: note_on channel=1 note=40 velocity=102 time=0.04044113333333333
EXTRACT: note_on channel=9 note=82 velocity=50 time=0.007352933333333333
EXTRACT: note_on channel=9 note=51 velocity=73 time=0.0055147
EXTRACT: note_on channel=9 note=82 velocity=0 time=0.09007343333333333
EXTRACT: note_on channel=9 note=51 velocity=0 time=0.0055147
EXTRACT: note_on channel=7 note=64 velocity=0 time=0.11213223333333333
EXTRACT: note_on channel=6 note=64 velocity=0 time=0
EXTRACT: note_on channel=6 note=64 velocity=58 time=0
EXTRACT: note_on channel=7 note=64 velocity=58 time=0
EXTRACT: note_on channel=9 note=82 velocity=50 time=0.09007343333333333
EXTRACT: note_on channel=9 note=82 velocity=0 time=0.055146999999999995
EXTRACT: note_on channel=1 note=40 velocity=0 time=0.027573499999999997
EXTRACT: note_on channel=7 note=59 velocity=0 time=0.0110294
EXTRACT: note_on channel=6 note=59 velocity=0 time=0
EXTRACT: note_on channel=6 note=64 velocity=0 time=0.03676466666666667
EXTRACT: note_on channel=7 note=64 velocity=0 time=0
EXTRACT: note_on channel=1 note=40 velocity=106 time=0
EXTRACT: note_on channel=6 note=59 velocity=56 time=0
EXTRACT: note_on channel=6 note=64 velocity=52 time=0
EXTRACT: note_on channel=7 note=59 velocity=56 time=0
EXTRACT: note_on channel=7 note=64 velocity=52 time=0
EXTRACT: note_on channel=9 note=82 velocity=50 time=0.007352933333333333
EXTRACT: note_on channel=9 note=51 velocity=74 time=0.0055147
EXTRACT: note_on channel=9 note=82 velocity=0 time=0.09007343333333333
EXTRACT: note_on channel=9 note=51 velocity=0 time=0.0055147
EXTRACT: note_on channel=6 note=64 velocity=0 time=0.0937499
EXTRACT: note_on channel=7 note=64 velocity=0 time=0
EXTRACT: note_on channel=6 note=64 velocity=43 time=0.018382333333333334
EXTRACT: note_on channel=7 note=64 velocity=43 time=0
EXTRACT: note_on channel=9 note=82 velocity=50 time=0.09007343333333333
EXTRACT: note_on channel=9 note=82 velocity=0 time=0.055146999999999995
EXTRACT: note_on channel=6 note=52 velocity=0 time=0.038602899999999996
EXTRACT: note_on channel=7 note=59 velocity=0 time=0
EXTRACT: note_on channel=7 note=52 velocity=0 time=0
EXTRACT: note_on channel=6 note=59 velocity=0 time=0
EXTRACT: note_on channel=1 note=40 velocity=0 time=0.0036764666666666665
EXTRACT: note_on channel=6 note=64 velocity=0 time=0.0330882
EXTRACT: note_on channel=7 note=64 velocity=0 time=0
EXTRACT: note_on channel=1 note=40 velocity=109 time=0
EXTRACT: note_on channel=6 note=52 velocity=47 time=0
EXTRACT: note_on channel=6 note=59 velocity=67 time=0
EXTRACT: note_on channel=6 note=64 velocity=68 time=0
EXTRACT: note_on channel=7 note=52 velocity=47 time=0
EXTRACT: note_on channel=7 note=59 velocity=67 time=0
EXTRACT: note_on channel=7 note=64 velocity=68 time=0
EXTRACT: note_on channel=9 note=82 velocity=50 time=0.0064338166666666665
EXTRACT: note_on channel=3 note=64 velocity=0 time=0.0018382333333333333
EXTRACT: note_on channel=9 note=44 velocity=82 time=0.0009191166666666666
EXTRACT: note_on channel=9 note=38 velocity=90 time=0.00275735
EXTRACT: note_on channel=9 note=51 velocity=79 time=0
EXTRACT: note_on channel=9 note=82 velocity=0 time=0.0937499
EXTRACT: note_on channel=9 note=38 velocity=0 time=0.0018382333333333333
EXTRACT: note_on channel=9 note=51 velocity=0 time=0.0036764666666666665
EXTRACT: note_on channel=9 note=44 velocity=0 time=0.11856604999999999
EXTRACT: note_on channel=9 note=82 velocity=50 time=0.08088226666666666
EXTRACT: note_on channel=9 note=82 velocity=0 time=0.055146999999999995
EXTRACT: note_on channel=1 note=40 velocity=0 time=0.045955833333333335
EXTRACT: note_on channel=1 note=40 velocity=104 time=0.029411733333333332
EXTRACT: note_on channel=9 note=82 velocity=50 time=0.0045955833333333335
EXTRACT: note_on channel=9 note=51 velocity=59 time=0.0055147
EXTRACT: note_on channel=7 note=64 velocity=0 time=0.00827205
EXTRACT: note_on channel=6 note=64 velocity=0 time=0
EXTRACT: note_on channel=6 note=64 velocity=50 time=0
EXTRACT: note_on channel=7 note=64 velocity=50 time=0
EXTRACT: note_on channel=9 note=82 velocity=0 time=0.08180138333333332
EXTRACT: note_on channel=9 note=51 velocity=0 time=0.0055147
EXTRACT: note_on channel=6 note=64 velocity=0 time=0.07444845
EXTRACT: note_on channel=7 note=64 velocity=0 time=0
EXTRACT: note_on channel=6 note=64 velocity=56 time=0.04044113333333333
EXTRACT: note_on channel=7 note=64 velocity=56 time=0
EXTRACT: note_on channel=9 note=82 velocity=50 time=0.09007343333333333
EXTRACT: note_on channel=9 note=82 velocity=0 time=0.055146999999999995
EXTRACT: note_on channel=1 note=40 velocity=0 time=0.042279366666666665
EXTRACT: note_on channel=6 note=64 velocity=0 time=0.0330882
EXTRACT: note_on channel=7 note=52 velocity=0 time=0
EXTRACT: note_on channel=7 note=59 velocity=0 time=0
EXTRACT: note_on channel=6 note=52 velocity=0 time=0
EXTRACT: note_on channel=7 note=64 velocity=0 time=0
EXTRACT: note_on channel=6 note=59 velocity=0 time=0
EXTRACT: note_on channel=1 note=40 velocity=98 time=0
EXTRACT: note_on channel=6 note=52 velocity=43 time=0
EXTRACT: note_on channel=6 note=59 velocity=50 time=0
EXTRACT: note_on channel=6 note=64 velocity=46 time=0
EXTRACT: note_on channel=7 note=52 velocity=43 time=0
EXTRACT: note_on channel=7 note=59 velocity=50 time=0
EXTRACT: note_on channel=7 note=64 velocity=46 time=0
EXTRACT: note_on channel=9 note=82 velocity=50 time=0.0045955833333333335
EXTRACT: note_on channel=9 note=51 velocity=74 time=0.0055147
EXTRACT: note_on channel=9 note=82 velocity=0 time=0.09007343333333333
EXTRACT: note_on channel=9 note=51 velocity=0 time=0.0055147
EXTRACT: note_on channel=7 note=64 velocity=0 time=0.07077198333333333
EXTRACT: note_on channel=6 note=64 velocity=0 time=0
EXTRACT: note_on channel=6 note=64 velocity=70 time=0.0441176
EXTRACT: note_on channel=7 note=64 velocity=70 time=0
EXTRACT: note_on channel=9 note=82 velocity=50 time=0.09007343333333333
EXTRACT: note_on channel=9 note=82 velocity=0 time=0.055146999999999995
EXTRACT: note_on channel=5 note=88 velocity=0 time=0.042279366666666665
EXTRACT: note_on channel=5 note=40 velocity=0 time=0.0036764666666666665
EXTRACT: note_on channel=5 note=76 velocity=0 time=0
EXTRACT: note_on channel=1 note=40 velocity=0 time=0.0110294
EXTRACT: note_on channel=7 note=52 velocity=0 time=0
EXTRACT: note_on channel=6 note=59 velocity=0 time=0
EXTRACT: note_on channel=7 note=64 velocity=0 time=0
EXTRACT: note_on channel=6 note=64 velocity=0 time=0
EXTRACT: note_on channel=7 note=59 velocity=0 time=0
EXTRACT: note_on channel=6 note=52 velocity=0 time=0
EXTRACT: note_on channel=1 note=28 velocity=106 time=0.018382333333333334
EXTRACT: note_on channel=5 note=88 velocity=36 time=0
EXTRACT: note_on channel=5 note=76 velocity=15 time=0
EXTRACT: note_on channel=5 note=40 velocity=46 time=0
EXTRACT: note_on channel=6 note=52 velocity=66 time=0
EXTRACT: note_on channel=6 note=59 velocity=76 time=0
EXTRACT: note_on channel=6 note=76 velocity=77 time=0
EXTRACT: note_on channel=6 note=64 velocity=68 time=0
EXTRACT: note_on channel=7 note=52 velocity=66 time=0
EXTRACT: note_on channel=7 note=59 velocity=76 time=0
EXTRACT: note_on channel=7 note=76 velocity=77 time=0
EXTRACT: note_on channel=7 note=64 velocity=68 time=0
EXTRACT: note_on channel=9 note=36 velocity=104 time=0.0036764666666666665
EXTRACT: note_on channel=9 note=82 velocity=50 time=0.0009191166666666666
EXTRACT: note_on channel=9 note=51 velocity=60 time=0.0055147
EXTRACT: note_on channel=9 note=82 velocity=0 time=0.0937499
EXTRACT: note_on channel=9 note=51 velocity=0 time=0.0055147
EXTRACT: note_on channel=9 note=36 velocity=0 time=0.11488958333333332
EXTRACT: note_on channel=1 note=28 velocity=0 time=0.1764704
EXTRACT: note_on channel=7 note=76 velocity=0 time=0.029411733333333332
EXTRACT: note_on channel=6 note=76 velocity=0 time=0
EXTRACT: note_on channel=1 note=28 velocity=102 time=0.0110294
EXTRACT: note_on channel=6 note=76 velocity=42 time=0
EXTRACT: note_on channel=7 note=76 velocity=42 time=0
EXTRACT: note_on channel=9 note=51 velocity=67 time=0.009191166666666667
EXTRACT: note_on channel=9 note=51 velocity=0 time=0.0992646
EXTRACT: note_on channel=1 note=28 velocity=0 time=0.28492616666666665
EXTRACT: note_on channel=7 note=59 velocity=0 time=0.018382333333333334
EXTRACT: note_on channel=6 note=59 velocity=0 time=0
EXTRACT: note_on channel=6 note=76 velocity=0 time=0.029411733333333332
EXTRACT: note_on channel=7 note=76 velocity=0 time=0
EXTRACT: note_on channel=1 note=28 velocity=106 time=0
EXTRACT: note_on channel=6 note=59 velocity=51 time=0
EXTRACT: note_on channel=6 note=76 velocity=51 time=0
EXTRACT: note_on channel=7 note=59 velocity=51 time=0
EXTRACT: note_on channel=7 note=76 velocity=51 time=0
EXTRACT: note_on channel=7 note=64 velocity=0 time=0.007352933333333333
EXTRACT: note_on channel=6 note=64 velocity=0 time=0
EXTRACT: note_on channel=6 note=64 velocity=46 time=0
EXTRACT: note_on channel=7 note=64 velocity=46 time=0
EXTRACT: note_on channel=9 note=51 velocity=57 time=0.00275735
EXTRACT: note_on channel=9 note=51 velocity=0 time=0.09558813333333332
EXTRACT: note_on channel=7 note=64 velocity=0 time=0.08180138333333332
EXTRACT: note_on channel=6 note=64 velocity=0 time=0
EXTRACT: note_on channel=6 note=64 velocity=51 time=0.0330882
EXTRACT: note_on channel=7 note=64 velocity=51 time=0
EXTRACT: note_on channel=7 note=59 velocity=0 time=0.17279393333333332
EXTRACT: note_on channel=6 note=59 velocity=0 time=0
EXTRACT: note_on channel=6 note=64 velocity=0 time=0.0036764666666666665
EXTRACT: note_on channel=7 note=64 velocity=0 time=0
EXTRACT: note_on channel=6 note=76 velocity=0 time=0.007352933333333333
EXTRACT: note_on channel=7 note=76 velocity=0 time=0
EXTRACT: note_on channel=1 note=28 velocity=0 time=0.0036764666666666665
EXTRACT: note_on channel=1 note=28 velocity=109 time=0.0330882
EXTRACT: note_on channel=6 note=59 velocity=61 time=0
EXTRACT: note_on channel=6 note=76 velocity=76 time=0
EXTRACT: note_on channel=6 note=64 velocity=82 time=0
EXTRACT: note_on channel=7 note=59 velocity=61 time=0
EXTRACT: note_on channel=7 note=76 velocity=76 time=0
EXTRACT: note_on channel=7 note=64 velocity=82 time=0
EXTRACT: note_on channel=9 note=50 velocity=111 time=0.00275735
EXTRACT: note_on channel=9 note=51 velocity=69 time=0.0018382333333333333
EXTRACT: note_on channel=9 note=38 velocity=90 time=0.0018382333333333333
EXTRACT: note_on channel=9 note=38 velocity=90 time=0
EXTRACT: note_on channel=3 note=68 velocity=79 time=0.0055147
EXTRACT: note_on channel=9 note=50 velocity=112 time=0.0110294
EXTRACT: note_on channel=9 note=50 velocity=0 time=0.0606617
EXTRACT: note_on channel=9 note=51 velocity=0 time=0.020220566666666665
EXTRACT: note_on channel=9 note=38 velocity=0 time=0.0018382333333333333
EXTRACT: note_on channel=9 note=38 velocity=0 time=0
EXTRACT: note_on channel=9 note=50 velocity=0 time=0.16911746666666666
EXTRACT: note_on channel=6 note=76 velocity=0 time=0.11856604999999999
EXTRACT: note_on channel=7 note=76 velocity=0 time=0
EXTRACT: note_on channel=7 note=59 velocity=0 time=0.0036764666666666665
EXTRACT: note_on channel=6 note=59 velocity=0 time=0
EXTRACT: note_on channel=1 note=28 velocity=0 time=0.014705866666666666
EXTRACT: note_on channel=1 note=28 velocity=104 time=0.029411733333333332
EXTRACT: note_on channel=6 note=59 velocity=45 time=0
EXTRACT: note_on channel=6 note=76 velocity=29 time=0
EXTRACT: note_on channel=7 note=59 velocity=45 time=0
EXTRACT: note_on channel=7 note=76 velocity=29 time=0
EXTRACT: note_on channel=3 note=68 velocity=0 time=0.0018382333333333333
EXTRACT: note_on channel=3 note=66 velocity=79 time=0.00275735
EXTRACT: note_on channel=9 note=47 velocity=112 time=0.0009191166666666666
EXTRACT: note_on channel=9 note=51 velocity=91 time=0.0009191166666666666
EXTRACT: note_on channel=9 note=51 velocity=0 time=0.0992646
EXTRACT: note_on channel=6 note=64 velocity=0 time=0.07077198333333333
EXTRACT: note_on channel=7 note=64 velocity=0 time=0
EXTRACT: note_on channel=6 note=52 velocity=0 time=0.014705866666666666
EXTRACT: note_on channel=7 note=52 velocity=0 time=0
EXTRACT: note_on channel=6 note=52 velocity=47 time=0.029411733333333332
EXTRACT: note_on channel=6 note=64 velocity=34 time=0
EXTRACT: note_on channel=7 note=52 velocity=47 time=0
EXTRACT: note_on channel=7 note=64 velocity=34 time=0
EXTRACT: note_on channel=9 note=47 velocity=0 time=0.04044113333333333
EXTRACT: note_on channel=9 note=38 velocity=90 time=0.05055141666666666
EXTRACT: note_on channel=9 note=38 velocity=90 time=0
EXTRACT: note_on channel=7 note=64 velocity=0 time=0.08180138333333332
EXTRACT: note_on channel=6 note=64 velocity=0 time=0
EXTRACT: note_on channel=6 note=59 velocity=0 time=0.007352933333333333
EXTRACT: note_on channel=7 note=59 velocity=0 time=0
EXTRACT: note_on channel=1 note=28 velocity=0 time=0.007352933333333333
EXTRACT: note_on channel=9 note=38 velocity=0 time=0.00275735
EXTRACT: note_on channel=9 note=38 velocity=0 time=0
EXTRACT: note_on channel=6 note=52 velocity=0 time=0.00827205
EXTRACT: note_on channel=7 note=52 velocity=0 time=0
EXTRACT: note_on channel=7 note=76 velocity=0 time=0.0110294
EXTRACT: note_on channel=6 note=76 velocity=0 time=0
EXTRACT: note_on channel=1 note=28 velocity=98 time=0.0110294
EXTRACT: note_on channel=6 note=52 velocity=31 time=0
EXTRACT: note_on channel=6 note=59 velocity=37 time=0
EXTRACT: note_on channel=6 note=76 velocity=41 time=0
EXTRACT: note_on channel=6 note=64 velocity=44 time=0
EXTRACT: note_on channel=7 note=52 velocity=31 time=0
EXTRACT: note_on channel=7 note=59 velocity=37 time=0
EXTRACT: note_on channel=7 note=76 velocity=41 time=0
EXTRACT: note_on channel=7 note=64 velocity=44 time=0
EXTRACT: note_on channel=3 note=64 velocity=79 time=0.0055147
EXTRACT: note_on channel=9 note=51 velocity=76 time=0
EXTRACT: note_on channel=9 note=43 velocity=112 time=0
EXTRACT: note_on channel=3 note=66 velocity=0 time=0.007352933333333333
EXTRACT: note_on channel=9 note=51 velocity=0 time=0.09191166666666667
EXTRACT: note_on channel=6 note=64 velocity=0 time=0.08639696666666666
EXTRACT: note_on channel=7 note=64 velocity=0 time=0
EXTRACT: note_on channel=6 note=64 velocity=37 time=0.03676466666666667
EXTRACT: note_on channel=7 note=64 velocity=37 time=0
EXTRACT: note_on channel=9 note=43 velocity=0 time=0.028492616666666665
EXTRACT: note_on channel=9 note=41 velocity=73 time=0.04687495
EXTRACT: note_on channel=9 note=41 velocity=0 time=0.0992646
EXTRACT: note_on channel=5 note=40 velocity=0 time=0.009191166666666667
EXTRACT: note_on channel=5 note=88 velocity=0 time=0
EXTRACT: note_on channel=5 note=76 velocity=0 time=0
EXTRACT: note_on channel=6 note=76 velocity=0 time=0.007352933333333333
EXTRACT: note_on channel=7 note=76 velocity=0 time=0
EXTRACT: note_on channel=7 note=52 velocity=0 time=0.0036764666666666665
EXTRACT: note_on channel=7 note=64 velocity=0 time=0
EXTRACT: note_on channel=6 note=64 velocity=0 time=0
EXTRACT: note_on channel=6 note=52 velocity=0 time=0
EXTRACT: note_on channel=7 note=59 velocity=0 time=0
EXTRACT: note_on channel=6 note=59 velocity=0 time=0
EXTRACT: note_on channel=1 note=28 velocity=0 time=0
EXTRACT: note_on channel=3 note=64 velocity=0 time=0.007352933333333333
EXTRACT: note_on channel=6 note=45 velocity=66 time=0
EXTRACT: note_on channel=6 note=52 velocity=76 time=0
EXTRACT: note_on channel=6 note=68 velocity=77 time=0
EXTRACT: note_on channel=6 note=57 velocity=68 time=0
EXTRACT: note_on channel=7 note=45 velocity=66 time=0
EXTRACT: note_on channel=7 note=52 velocity=76 time=0
EXTRACT: note_on channel=7 note=68 velocity=77 time=0
EXTRACT: note_on channel=7 note=57 velocity=68 time=0
EXTRACT: note_on channel=9 note=36 velocity=89 time=0.0018382333333333333
EXTRACT: note_on channel=9 note=82 velocity=50 time=0
EXTRACT: note_on channel=1 note=33 velocity=94 time=0.00275735
EXTRACT: note_on channel=9 note=51 velocity=83 time=0.00275735
EXTRACT: note_on channel=3 note=64 velocity=79 time=0.0045955833333333335
EXTRACT: note_on channel=9 note=82 velocity=0 time=0.08915431666666666
EXTRACT: note_on channel=9 note=51 velocity=0 time=0.0055147
EXTRACT: note_on channel=9 note=36 velocity=0 time=0.1158087
EXTRACT: note_on channel=9 note=82 velocity=50 time=0.06893375
EXTRACT: note_on channel=9 note=82 velocity=0 time=0.055146999999999995
EXTRACT: note_on channel=7 note=68 velocity=0 time=0.08363961666666667
EXTRACT: note_on channel=6 note=68 velocity=0 time=0
EXTRACT: note_on channel=6 note=68 velocity=42 time=0.0110294
EXTRACT: note_on channel=7 note=68 velocity=42 time=0
EXTRACT: note_on channel=9 note=82 velocity=50 time=0.0045955833333333335
EXTRACT: note_on channel=9 note=51 velocity=73 time=0.0055147
EXTRACT: note_on channel=3 note=64 velocity=0 time=0.007352933333333333
EXTRACT: note_on channel=9 note=82 velocity=0 time=0.0827205
EXTRACT: note_on channel=9 note=51 velocity=0 time=0.0055147
EXTRACT: note_on channel=9 note=82 velocity=50 time=0.18658068333333333
EXTRACT: note_on channel=9 note=82 velocity=0 time=0.055146999999999995
EXTRACT: note_on channel=6 note=52 velocity=0 time=0.06433816666666667
EXTRACT: note_on channel=7 note=52 velocity=0 time=0
EXTRACT: note_on channel=7 note=68 velocity=0 time=0.029411733333333332
EXTRACT: note_on channel=6 note=68 velocity=0 time=0
EXTRACT: note_on channel=6 note=52 velocity=51 time=0
EXTRACT: note_on channel=6 note=68 velocity=51 time=0
EXTRACT: note_on channel=7 note=52 velocity=51 time=0
EXTRACT: note_on channel=7 note=68 velocity=51 time=0
EXTRACT: note_on channel=9 note=82 velocity=50 time=0.0045955833333333335
EXTRACT: note_on channel=7 note=57 velocity=0 time=0.00275735
EXTRACT: note_on channel=6 note=57 velocity=0 time=0
EXTRACT: note_on channel=6 note=57 velocity=46 time=0
EXTRACT: note_on channel=7 note=57 velocity=46 time=0
EXTRACT: note_on channel=9 note=51 velocity=74 time=0.00275735
EXTRACT: note_on channel=9 note=82 velocity=0 time=0.09007343333333333
EXTRACT: note_on channel=9 note=51 velocity=0 time=0.0055147
EXTRACT: note_on channel=6 note=57 velocity=0 time=0.08180138333333332
EXTRACT: note_on channel=7 note=57 velocity=0 time=0
EXTRACT: note_on channel=6 note=57 velocity=51 time=0.0330882
EXTRACT: note_on channel=7 note=57 velocity=51 time=0
EXTRACT: note_on channel=9 note=82 velocity=50 time=0.07077198333333333
EXTRACT: note_on channel=9 note=82 velocity=0 time=0.055146999999999995
EXTRACT: note_on channel=7 note=52 velocity=0 time=0.04687495
EXTRACT: note_on channel=6 note=52 velocity=0 time=0
EXTRACT: note_on channel=6 note=57 velocity=0 time=0.0036764666666666665
EXTRACT: note_on channel=7 note=57 velocity=0 time=0
EXTRACT: note_on channel=7 note=68 velocity=0 time=0.007352933333333333
EXTRACT: note_on channel=6 note=68 velocity=0 time=0
EXTRACT: note_on channel=6 note=52 velocity=61 time=0.03676466666666667
EXTRACT: note_on channel=6 note=68 velocity=76 time=0
EXTRACT: note_on channel=6 note=57 velocity=82 time=0
EXTRACT: note_on channel=7 note=52 velocity=61 time=0
EXTRACT: note_on channel=7 note=68 velocity=76 time=0
EXTRACT: note_on channel=7 note=57 velocity=82 time=0
EXTRACT: note_on channel=9 note=82 velocity=50 time=0.0036764666666666665
EXTRACT: note_on channel=9 note=44 velocity=82 time=0.00275735
EXTRACT: note_on channel=3 note=64 velocity=79 time=0.00275735
EXTRACT: note_on channel=9 note=38 velocity=90 time=0
EXTRACT: note_on channel=9 note=51 velocity=79 time=0
EXTRACT: note_on channel=9 note=82 velocity=0 time=0.0937499
EXTRACT: note_on channel=9 note=38 velocity=0 time=0.0018382333333333333
EXTRACT: note_on channel=9 note=51 velocity=0 time=0.0036764666666666665
EXTRACT: note_on channel=9 note=44 velocity=0 time=0.11856604999999999
EXTRACT: note_on channel=9 note=82 velocity=50 time=0.04871318333333333
EXTRACT: note_on channel=9 note=82 velocity=0 time=0.055146999999999995
EXTRACT: note_on channel=7 note=68 velocity=0 time=0.062499933333333334
EXTRACT: note_on channel=6 note=68 velocity=0 time=0
EXTRACT: note_on channel=6 note=52 velocity=0 time=0.0036764666666666665
EXTRACT: note_on channel=7 note=52 velocity=0 time=0
EXTRACT: note_on channel=3 note=64 velocity=0 time=0.03676466666666667
EXTRACT: note_on channel=6 note=52 velocity=45 time=0.007352933333333333
EXTRACT: note_on channel=6 note=68 velocity=29 time=0
EXTRACT: note_on channel=7 note=52 velocity=45 time=0
EXTRACT: note_on channel=7 note=68 velocity=29 time=0
EXTRACT: note_on channel=9 note=82 velocity=50 time=0.0018382333333333333
EXTRACT: note_on channel=9 note=51 velocity=59 time=0.0055147
EXTRACT: note_on channel=9 note=82 velocity=0 time=0.09007343333333333
EXTRACT: note_on channel=9 note=51 velocity=0 time=0.0055147
EXTRACT: note_on channel=7 note=57 velocity=0 time=0.07352933333333334
EXTRACT: note_on channel=6 note=57 velocity=0 time=0
EXTRACT: note_on channel=7 note=45 velocity=0 time=0.014705866666666666
EXTRACT: note_on channel=6 note=45 velocity=0 time=0
EXTRACT: note_on channel=6 note=45 velocity=47 time=0.029411733333333332
EXTRACT: note_on channel=6 note=57 velocity=34 time=0
EXTRACT: note_on channel=7 note=45 velocity=47 time=0
EXTRACT: note_on channel=7 note=57 velocity=34 time=0
EXTRACT: note_on channel=9 note=82 velocity=50 time=0.08731608333333334
EXTRACT: note_on channel=9 note=82 velocity=0 time=0.055146999999999995
EXTRACT: note_on channel=7 note=57 velocity=0 time=0.03033085
EXTRACT: note_on channel=6 note=57 velocity=0 time=0
EXTRACT: note_on channel=7 note=52 velocity=0 time=0.007352933333333333
EXTRACT: note_on channel=6 note=52 velocity=0 time=0
EXTRACT: note_on channel=7 note=45 velocity=0 time=0.018382333333333334
EXTRACT: note_on channel=6 note=45 velocity=0 time=0
EXTRACT: note_on channel=7 note=68 velocity=0 time=0.0110294
EXTRACT: note_on channel=6 note=68 velocity=0 time=0
EXTRACT: note_on channel=6 note=45 velocity=31 time=0.0110294
EXTRACT: note_on channel=6 note=52 velocity=37 time=0
EXTRACT: note_on channel=6 note=68 velocity=41 time=0
EXTRACT: note_on channel=6 note=57 velocity=44 time=0
EXTRACT: note_on channel=7 note=45 velocity=31 time=0
EXTRACT: note_on channel=7 note=52 velocity=37 time=0
EXTRACT: note_on channel=7 note=68 velocity=41 time=0
EXTRACT: note_on channel=7 note=57 velocity=44 time=0
EXTRACT: note_on channel=9 note=82 velocity=50 time=0.0018382333333333333
EXTRACT: note_on channel=9 note=51 velocity=74 time=0.0055147
EXTRACT: note_on channel=9 note=82 velocity=0 time=0.09007343333333333
EXTRACT: note_on channel=9 note=51 velocity=0 time=0.0055147
EXTRACT: note_on channel=6 note=57 velocity=0 time=0.0882352
EXTRACT: note_on channel=7 note=57 velocity=0 time=0
EXTRACT: note_on channel=6 note=57 velocity=37 time=0.03676466666666667
EXTRACT: note_on channel=7 note=57 velocity=37 time=0
EXTRACT: note_on channel=9 note=82 velocity=50 time=0.07996315
EXTRACT: note_on channel=9 note=82 velocity=0 time=0.055146999999999995
EXTRACT: note_on channel=1 note=33 velocity=0 time=0.0220588
EXTRACT: note_on channel=6 note=68 velocity=0 time=0.03400731666666666
EXTRACT: note_on channel=7 note=68 velocity=0 time=0
EXTRACT: note_on channel=7 note=45 velocity=0 time=0.0036764666666666665
EXTRACT: note_on channel=6 note=52 velocity=0 time=0
EXTRACT: note_on channel=6 note=57 velocity=0 time=0
EXTRACT: note_on channel=7 note=57 velocity=0 time=0
EXTRACT: note_on channel=7 note=52 velocity=0 time=0
EXTRACT: note_on channel=6 note=45 velocity=0 time=0
EXTRACT: note_on channel=6 note=40 velocity=78 time=0.018382333333333334
EXTRACT: note_on channel=6 note=47 velocity=63 time=0
EXTRACT: note_on channel=6 note=64 velocity=75 time=0
EXTRACT: note_on channel=6 note=59 velocity=78 time=0
EXTRACT: note_on channel=7 note=40 velocity=78 time=0
EXTRACT: note_on channel=7 note=47 velocity=63 time=0
EXTRACT: note_on channel=7 note=64 velocity=75 time=0
EXTRACT: note_on channel=7 note=59 velocity=78 time=0
EXTRACT: note_on channel=9 note=36 velocity=104 time=0.0009191166666666666
EXTRACT: note_on channel=9 note=82 velocity=50 time=0.0009191166666666666
EXTRACT: note_on channel=3 note=64 velocity=79 time=0.0009191166666666666
EXTRACT: note_on channel=1 note=40 velocity=94 time=0.0018382333333333333
EXTRACT: note_on channel=9 note=51 velocity=60 time=0.00275735
EXTRACT: note_on channel=9 note=82 velocity=0 time=0.0937499
EXTRACT: note_on channel=9 note=51 velocity=0 time=0.0055147
EXTRACT: note_on channel=9 note=36 velocity=0 time=0.11488958333333332
EXTRACT: note_on channel=9 note=82 velocity=50 time=0.08639696666666666
EXTRACT: note_on channel=9 note=82 velocity=0 time=0.055146999999999995
EXTRACT: note_on channel=3 note=64 velocity=0 time=0.06433816666666667
EXTRACT: note_on channel=7 note=59 velocity=0 time=0.00275735
EXTRACT: note_on channel=6 note=59 velocity=0 time=0
EXTRACT: note_on channel=6 note=56 velocity=41 time=0.0110294
EXTRACT: note_on channel=7 note=56 velocity=41 time=0
EXTRACT: note_on channel=9 note=82 velocity=50 time=0.0009191166666666666
EXTRACT: note_on channel=9 note=51 velocity=67 time=0.0055147
EXTRACT: note_on channel=6 note=64 velocity=0 time=0.011948516666666666
EXTRACT: note_on channel=7 note=64 velocity=0 time=0
EXTRACT: note_on channel=6 note=64 velocity=41 time=0
EXTRACT: note_on channel=7 note=64 velocity=41 time=0
EXTRACT: note_on channel=9 note=82 velocity=0 time=0.08180138333333332
EXTRACT: note_on channel=9 note=51 velocity=0 time=0.0055147
EXTRACT: note_on channel=6 note=64 velocity=0 time=0.08915431666666666
EXTRACT: note_on channel=7 note=64 velocity=0 time=0
EXTRACT: note_on channel=6 note=64 velocity=56 time=0.025735266666666666
EXTRACT: note_on channel=7 note=64 velocity=56 time=0
EXTRACT: note_on channel=9 note=82 velocity=50 time=0.08731608333333334
EXTRACT: note_on channel=9 note=82 velocity=0 time=0.055146999999999995
EXTRACT: note_on channel=6 note=56 velocity=0 time=0.06341904999999999
EXTRACT: note_on channel=7 note=56 velocity=0 time=0
EXTRACT: note_on channel=6 note=64 velocity=0 time=0.014705866666666666
EXTRACT: note_on channel=7 note=64 velocity=0 time=0
EXTRACT: note_on channel=6 note=56 velocity=53 time=0
EXTRACT: note_on channel=6 note=64 velocity=72 time=0
EXTRACT: note_on channel=7 note=56 velocity=53 time=0
EXTRACT: note_on channel=7 note=64 velocity=72 time=0
EXTRACT: note_on channel=9 note=82 velocity=50 time=0.0018382333333333333
EXTRACT: note_on channel=9 note=51 velocity=57 time=0.0055147
EXTRACT: note_on channel=9 note=82 velocity=0 time=0.09007343333333333
EXTRACT: note_on channel=9 note=51 velocity=0 time=0.0055147
EXTRACT: note_on channel=6 note=64 velocity=0 time=0.09191166666666667
EXTRACT: note_on channel=7 note=64 velocity=0 time=0
EXTRACT: note_on channel=6 note=64 velocity=50 time=0.025735266666666666
EXTRACT: note_on channel=7 note=64 velocity=50 time=0
EXTRACT: note_on channel=9 note=82 velocity=50 time=0.08731608333333334
EXTRACT: note_on channel=9 note=82 velocity=0 time=0.055146999999999995
EXTRACT: note_on channel=7 note=40 velocity=0 time=0.03033085
EXTRACT: note_on channel=6 note=40 velocity=0 time=0
EXTRACT: note_on channel=7 note=56 velocity=0 time=0.0036764666666666665
EXTRACT: note_on channel=6 note=56 velocity=0 time=0
EXTRACT: note_on channel=7 note=64 velocity=0 time=0.0036764666666666665
EXTRACT: note_on channel=6 note=64 velocity=0 time=0
EXTRACT: note_on channel=9 note=82 velocity=50 time=0.03676466666666667
EXTRACT: note_on channel=6 note=64 velocity=75 time=0.0036764666666666665
EXTRACT: note_on channel=6 note=40 velocity=50 time=0
EXTRACT: note_on channel=6 note=59 velocity=77 time=0
EXTRACT: note_on channel=7 note=64 velocity=75 time=0
EXTRACT: note_on channel=7 note=40 velocity=50 time=0
EXTRACT: note_on channel=7 note=59 velocity=77 time=0
EXTRACT: note_on channel=9 note=51 velocity=69 time=0.0018382333333333333
EXTRACT: note_on channel=9 note=38 velocity=90 time=0.0018382333333333333
EXTRACT: note_on channel=3 note=66 velocity=79 time=0.0055147
EXTRACT: note_on channel=9 note=82 velocity=0 time=0.08639696666666666
EXTRACT: note_on channel=9 note=51 velocity=0 time=0.0055147
EXTRACT: note_on channel=9 note=38 velocity=0 time=0.0018382333333333333
EXTRACT: note_on channel=3 note=66 velocity=0 time=0.11948516666666666
EXTRACT: note_on channel=3 note=68 velocity=79 time=0.0055147
EXTRACT: note_on channel=9 note=82 velocity=50 time=0.07996315
EXTRACT: note_on channel=9 note=82 velocity=0 time=0.055146999999999995
EXTRACT: note_on channel=6 note=64 velocity=0 time=0.056066116666666665
EXTRACT: note_on channel=7 note=64 velocity=0 time=0
EXTRACT: note_on channel=9 note=82 velocity=50 time=0.020220566666666665
EXTRACT: note_on channel=3 note=68 velocity=0 time=0.0018382333333333333
EXTRACT: note_on channel=9 note=51 velocity=91 time=0.0036764666666666665
EXTRACT: note_on channel=6 note=64 velocity=50 time=0.0036764666666666665
EXTRACT: note_on channel=7 note=64 velocity=50 time=0
EXTRACT: note_on channel=3 note=66 velocity=79 time=0.0018382333333333333
EXTRACT: note_on channel=9 note=82 velocity=0 time=0.0882352
EXTRACT: note_on channel=9 note=51 velocity=0 time=0.0055147
EXTRACT: note_on channel=7 note=64 velocity=0 time=0.07720579999999999
EXTRACT: note_on channel=6 note=64 velocity=0 time=0
EXTRACT: note_on channel=6 note=64 velocity=47 time=0.04044113333333333
EXTRACT: note_on channel=7 note=64 velocity=47 time=0
EXTRACT: note_on channel=9 note=82 velocity=50 time=0.08731608333333334
EXTRACT: note_on channel=9 note=38 velocity=90 time=0.0009191166666666666
EXTRACT: note_on channel=9 note=82 velocity=0 time=0.05422788333333333
EXTRACT: note_on channel=7 note=64 velocity=0 time=0.04136025
EXTRACT: note_on channel=6 note=64 velocity=0 time=0
EXTRACT: note_on channel=6 note=59 velocity=0 time=0
EXTRACT: note_on channel=7 note=59 velocity=0 time=0
EXTRACT: note_on channel=9 note=38 velocity=0 time=0.0036764666666666665
EXTRACT: note_on channel=3 note=66 velocity=0 time=0.03033085
EXTRACT: note_on channel=9 note=82 velocity=50 time=0
EXTRACT: note_on channel=9 note=51 velocity=76 time=0.0055147
EXTRACT: note_on channel=3 note=64 velocity=79 time=0.0009191166666666666
EXTRACT: note_on channel=6 note=64 velocity=74 time=0.0036764666666666665
EXTRACT: note_on channel=7 note=64 velocity=74 time=0
EXTRACT: note_on channel=6 note=56 velocity=80 time=0.0036764666666666665
EXTRACT: note_on channel=7 note=56 velocity=80 time=0
EXTRACT: note_on channel=9 note=82 velocity=0 time=0.08547785
EXTRACT: note_on channel=9 note=51 velocity=0 time=0.0055147
EXTRACT: note_on channel=7 note=64 velocity=0 time=0.07812491666666667
EXTRACT: note_on channel=6 note=64 velocity=0 time=0
EXTRACT: note_on channel=6 note=64 velocity=68 time=0.04044113333333333
EXTRACT: note_on channel=7 note=64 velocity=68 time=0
EXTRACT: note_on channel=9 note=82 velocity=50 time=0.08731608333333334
EXTRACT: note_on channel=9 note=82 velocity=0 time=0.055146999999999995
EXTRACT: note_on channel=1 note=40 velocity=0 time=0.0220588
EXTRACT: note_on channel=6 note=40 velocity=0 time=0.0045955833333333335
EXTRACT: note_on channel=7 note=40 velocity=0 time=0
EXTRACT: note_on channel=6 note=56 velocity=0 time=0.018382333333333334
EXTRACT: note_on channel=7 note=56 velocity=0 time=0
EXTRACT: note_on channel=7 note=47 velocity=0 time=0.0036764666666666665
EXTRACT: note_on channel=6 note=47 velocity=0 time=0
EXTRACT: note_on channel=6 note=64 velocity=0 time=0.0036764666666666665
EXTRACT: note_on channel=7 note=64 velocity=0 time=0
EXTRACT: note_on channel=3 note=64 velocity=0 time=0.013786749999999999
EXTRACT: note_on channel=6 note=49 velocity=66 time=0.011948516666666666
EXTRACT: note_on channel=6 note=56 velocity=76 time=0
EXTRACT: note_on channel=6 note=71 velocity=77 time=0
EXTRACT: note_on channel=6 note=61 velocity=68 time=0
EXTRACT: note_on channel=7 note=49 velocity=66 time=0
EXTRACT: note_on channel=7 note=56 velocity=76 time=0
EXTRACT: note_on channel=7 note=71 velocity=77 time=0
EXTRACT: note_on channel=7 note=61 velocity=68 time=0
EXTRACT: note_on channel=9 note=36 velocity=89 time=0.0018382333333333333
EXTRACT: note_on channel=9 note=82 velocity=50 time=0
EXTRACT: note_on channel=3 note=64 velocity=79 time=0.0018382333333333333
EXTRACT: note_on channel=1 note=37 velocity=94 time=0.0009191166666666666
EXTRACT: note_on channel=9 note=51 velocity=83 time=0.00275735
EXTRACT: note_on channel=9 note=82 velocity=0 time=0.0937499
EXTRACT: note_on channel=9 note=51 velocity=0 time=0.0055147
EXTRACT: note_on channel=9 note=36 velocity=0 time=0.1158087
EXTRACT: note_on channel=9 note=82 velocity=50 time=0.08547785
EXTRACT: note_on channel=9 note=82 velocity=0 time=0.055146999999999995
EXTRACT: note_on channel=7 note=71 velocity=0 time=0.06709551666666666
EXTRACT: note_on channel=6 note=71 velocity=0 time=0
EXTRACT: note_on channel=3 note=64 velocity=0 time=0.00275735
EXTRACT: note_on channel=6 note=71 velocity=42 time=0.00827205
EXTRACT: note_on channel=7 note=71 velocity=42 time=0
EXTRACT: note_on channel=9 note=82 velocity=50 time=0.0045955833333333335
EXTRACT: note_on channel=9 note=51 velocity=73 time=0.0055147
EXTRACT: note_on channel=9 note=82 velocity=0 time=0.09007343333333333
EXTRACT: note_on channel=9 note=51 velocity=0 time=0.0055147
EXTRACT: note_on channel=9 note=82 velocity=50 time=0.20220566666666664
EXTRACT: note_on channel=9 note=82 velocity=0 time=0.055146999999999995
EXTRACT: note_on channel=6 note=56 velocity=0 time=0.04871318333333333
EXTRACT: note_on channel=7 note=56 velocity=0 time=0
EXTRACT: note_on channel=7 note=71 velocity=0 time=0.029411733333333332
EXTRACT: note_on channel=6 note=71 velocity=0 time=0
EXTRACT: note_on channel=6 note=56 velocity=51 time=0
EXTRACT: note_on channel=6 note=71 velocity=51 time=0
EXTRACT: note_on channel=7 note=56 velocity=51 time=0
EXTRACT: note_on channel=7 note=71 velocity=51 time=0
EXTRACT: note_on channel=9 note=82 velocity=50 time=0.0045955833333333335
EXTRACT: note_on channel=7 note=61 velocity=0 time=0.00275735
EXTRACT: note_on channel=6 note=61 velocity=0 time=0
EXTRACT: note_on channel=6 note=61 velocity=46 time=0
EXTRACT: note_on channel=7 note=61 velocity=46 time=0
EXTRACT: note_on channel=9 note=51 velocity=74 time=0.00275735
EXTRACT: note_on channel=9 note=82 velocity=0 time=0.09007343333333333
EXTRACT: note_on channel=9 note=51 velocity=0 time=0.0055147
EXTRACT: note_on channel=6 note=61 velocity=0 time=0.08180138333333332
EXTRACT: note_on channel=7 note=61 velocity=0 time=0
EXTRACT: note_on channel=6 note=61 velocity=51 time=0.0330882
EXTRACT: note_on channel=7 note=61 velocity=51 time=0
EXTRACT: note_on channel=9 note=82 velocity=50 time=0.08731608333333334
EXTRACT: note_on channel=9 note=82 velocity=0 time=0.055146999999999995
EXTRACT: note_on channel=7 note=56 velocity=0 time=0.03033085
EXTRACT: note_on channel=6 note=56 velocity=0 time=0
EXTRACT: note_on channel=6 note=61 velocity=0 time=0.0036764666666666665
EXTRACT: note_on channel=7 note=61 velocity=0 time=0
EXTRACT: note_on channel=7 note=71 velocity=0 time=0.007352933333333333
EXTRACT: note_on channel=6 note=71 velocity=0 time=0
EXTRACT: note_on channel=6 note=56 velocity=61 time=0.03676466666666667
EXTRACT: note_on channel=6 note=71 velocity=76 time=0
EXTRACT: note_on channel=6 note=61 velocity=82 time=0
EXTRACT: note_on channel=7 note=56 velocity=61 time=0
EXTRACT: note_on channel=7 note=71 velocity=76 time=0
EXTRACT: note_on channel=7 note=61 velocity=82 time=0
EXTRACT: note_on channel=3 note=64 velocity=79 time=0.0036764666666666665
EXTRACT: note_on channel=9 note=82 velocity=50 time=0
EXTRACT: note_on channel=9 note=44 velocity=82 time=0.00275735
EXTRACT: note_on channel=9 note=38 velocity=90 time=0.00275735
EXTRACT: note_on channel=9 note=51 velocity=79 time=0
EXTRACT: note_on channel=9 note=82 velocity=0 time=0.0937499
EXTRACT: note_on channel=9 note=38 velocity=0 time=0.0018382333333333333
EXTRACT: note_on channel=9 note=51 velocity=0 time=0.0036764666666666665
EXTRACT: note_on channel=9 note=44 velocity=0 time=0.11856604999999999
EXTRACT: note_on channel=9 note=82 velocity=50 time=0.08088226666666666
EXTRACT: note_on channel=9 note=82 velocity=0 time=0.055146999999999995
EXTRACT: note_on channel=7 note=71 velocity=0 time=0.03033085
EXTRACT: note_on channel=6 note=71 velocity=0 time=0
EXTRACT: note_on channel=6 note=56 velocity=0 time=0.0036764666666666665
EXTRACT: note_on channel=7 note=56 velocity=0 time=0
EXTRACT: note_on channel=3 note=64 velocity=0 time=0.03584555
EXTRACT: note_on channel=6 note=56 velocity=45 time=0.00827205
EXTRACT: note_on channel=6 note=71 velocity=29 time=0
EXTRACT: note_on channel=7 note=56 velocity=45 time=0
EXTRACT: note_on channel=7 note=71 velocity=29 time=0
EXTRACT: note_on channel=9 note=82 velocity=50 time=0.0018382333333333333
EXTRACT: note_on channel=9 note=51 velocity=59 time=0.0055147
EXTRACT: note_on channel=9 note=82 velocity=0 time=0.09007343333333333
EXTRACT: note_on channel=9 note=51 velocity=0 time=0.0055147
EXTRACT: note_on channel=7 note=61 velocity=0 time=0.07352933333333334
EXTRACT: note_on channel=6 note=61 velocity=0 time=0
EXTRACT: note_on channel=6 note=49 velocity=0 time=0.014705866666666666
EXTRACT: note_on channel=7 note=49 velocity=0 time=0
EXTRACT: note_on channel=6 note=49 velocity=47 time=0.029411733333333332
EXTRACT: note_on channel=6 note=61 velocity=34 time=0
EXTRACT: note_on channel=7 note=49 velocity=47 time=0
EXTRACT: note_on channel=7 note=61 velocity=34 time=0
EXTRACT: note_on channel=9 note=82 velocity=50 time=0.08731608333333334
EXTRACT: note_on channel=9 note=82 velocity=0 time=0.055146999999999995
EXTRACT: note_on channel=7 note=61 velocity=0 time=0.03033085
EXTRACT: note_on channel=6 note=61 velocity=0 time=0
EXTRACT: note_on channel=7 note=56 velocity=0 time=0.007352933333333333
EXTRACT: note_on channel=6 note=56 velocity=0 time=0
EXTRACT: note_on channel=7 note=49 velocity=0 time=0.018382333333333334
EXTRACT: note_on channel=6 note=49 velocity=0 time=0
EXTRACT: note_on channel=7 note=71 velocity=0 time=0.0110294
EXTRACT: note_on channel=6 note=71 velocity=0 time=0
EXTRACT: note_on channel=6 note=49 velocity=31 time=0.0110294
EXTRACT: note_on channel=6 note=56 velocity=37 time=0
EXTRACT: note_on channel=6 note=71 velocity=41 time=0
EXTRACT: note_on channel=6 note=61 velocity=44 time=0
EXTRACT: note_on channel=7 note=49 velocity=31 time=0
EXTRACT: note_on channel=7 note=56 velocity=37 time=0
EXTRACT: note_on channel=7 note=71 velocity=41 time=0
EXTRACT: note_on channel=7 note=61 velocity=44 time=0
EXTRACT: note_on channel=9 note=82 velocity=50 time=0.0018382333333333333
EXTRACT: note_on channel=9 note=51 velocity=74 time=0.0055147
EXTRACT: note_on channel=9 note=82 velocity=0 time=0.09007343333333333
EXTRACT: note_on channel=9 note=51 velocity=0 time=0.0055147
EXTRACT: note_on channel=6 note=61 velocity=0 time=0.0882352
EXTRACT: note_on channel=7 note=61 velocity=0 time=0
EXTRACT: note_on channel=6 note=61 velocity=37 time=0.03676466666666667
EXTRACT: note_on channel=7 note=61 velocity=37 time=0
EXTRACT: note_on channel=9 note=82 velocity=50 time=0.07996315
EXTRACT: note_on channel=9 note=82 velocity=0 time=0.055146999999999995
EXTRACT: note_on channel=1 note=37 velocity=0 time=0.0220588
EXTRACT: note_on channel=6 note=71 velocity=0 time=0.03400731666666666
EXTRACT: note_on channel=7 note=71 velocity=0 time=0
EXTRACT: note_on channel=7 note=49 velocity=0 time=0.0036764666666666665
EXTRACT: note_on channel=6 note=56 velocity=0 time=0
EXTRACT: note_on channel=6 note=61 velocity=0 time=0
EXTRACT: note_on channel=7 note=61 velocity=0 time=0
EXTRACT: note_on channel=7 note=56 velocity=0 time=0
EXTRACT: note_on channel=6 note=49 velocity=0 time=0
EXTRACT: note_on channel=1 note=35 velocity=94 time=0.017463216666666666
EXTRACT: note_on channel=6 note=47 velocity=78 time=0.0009191166666666666
EXTRACT: note_on channel=6 note=42 velocity=63 time=0
EXTRACT: note_on channel=6 note=63 velocity=75 time=0
EXTRACT: note_on channel=6 note=59 velocity=78 time=0
EXTRACT: note_on channel=7 note=47 velocity=78 time=0
EXTRACT: note_on channel=7 note=42 velocity=63 time=0
EXTRACT: note_on channel=7 note=63 velocity=75 time=0
EXTRACT: note_on channel=7 note=59 velocity=78 time=0
EXTRACT: note_on channel=9 note=36 velocity=104 time=0.0009191166666666666
EXTRACT: note_on channel=9 note=82 velocity=50 time=0.0009191166666666666
EXTRACT: note_on channel=9 note=51 velocity=60 time=0.0055147
EXTRACT: note_on channel=3 note=66 velocity=79 time=0.00275735
EXTRACT: note_on channel=9 note=82 velocity=0 time=0.09099254999999999
EXTRACT: note_on channel=9 note=51 velocity=0 time=0.0055147
EXTRACT: note_on channel=9 note=36 velocity=0 time=0.11488958333333332
EXTRACT: note_on channel=9 note=82 velocity=50 time=0.08639696666666666
EXTRACT: note_on channel=9 note=82 velocity=0 time=0.055146999999999995
EXTRACT: note_on channel=7 note=59 velocity=0 time=0.06709551666666666
EXTRACT: note_on channel=6 note=59 velocity=0 time=0
EXTRACT: note_on channel=3 note=66 velocity=0 time=0.009191166666666667
EXTRACT: note_on channel=6 note=54 velocity=41 time=0.0018382333333333333
EXTRACT: note_on channel=7 note=54 velocity=41 time=0
EXTRACT: note_on channel=9 note=82 velocity=50 time=0.0009191166666666666
EXTRACT: note_on channel=9 note=51 velocity=67 time=0.0055147
EXTRACT: note_on channel=7 note=63 velocity=0 time=0.011948516666666666
EXTRACT: note_on channel=6 note=63 velocity=0 time=0
EXTRACT: note_on channel=6 note=63 velocity=41 time=0
EXTRACT: note_on channel=7 note=63 velocity=41 time=0
EXTRACT: note_on channel=9 note=82 velocity=0 time=0.08180138333333332
EXTRACT: note_on channel=9 note=51 velocity=0 time=0.0055147
EXTRACT: note_on channel=6 note=63 velocity=0 time=0.08915431666666666
EXTRACT: note_on channel=7 note=63 velocity=0 time=0
EXTRACT: note_on channel=6 note=63 velocity=56 time=0.025735266666666666
EXTRACT: note_on channel=7 note=63 velocity=56 time=0
EXTRACT: note_on channel=9 note=82 velocity=50 time=0.08731608333333334
EXTRACT: note_on channel=9 note=82 velocity=0 time=0.055146999999999995
EXTRACT: note_on channel=6 note=54 velocity=0 time=0.06341904999999999
EXTRACT: note_on channel=7 note=54 velocity=0 time=0
EXTRACT: note_on channel=6 note=63 velocity=0 time=0.014705866666666666
EXTRACT: note_on channel=7 note=63 velocity=0 time=0
EXTRACT: note_on channel=6 note=54 velocity=53 time=0
EXTRACT: note_on channel=6 note=63 velocity=72 time=0
EXTRACT: note_on channel=7 note=54 velocity=53 time=0
EXTRACT: note_on channel=7 note=63 velocity=72 time=0
EXTRACT: note_on channel=9 note=82 velocity=50 time=0.0018382333333333333
EXTRACT: note_on channel=9 note=51 velocity=57 time=0.0055147
EXTRACT: note_on channel=9 note=82 velocity=0 time=0.09007343333333333
EXTRACT: note_on channel=9 note=51 velocity=0 time=0.0055147
EXTRACT: note_on channel=6 note=63 velocity=0 time=0.09191166666666667
EXTRACT: note_on channel=7 note=63 velocity=0 time=0
EXTRACT: note_on channel=6 note=63 velocity=50 time=0.025735266666666666
EXTRACT: note_on channel=7 note=63 velocity=50 time=0
EXTRACT: note_on channel=3 note=59 velocity=79 time=0.0220588
EXTRACT: note_on channel=9 note=82 velocity=50 time=0.06525728333333333
EXTRACT: note_on channel=9 note=82 velocity=0 time=0.055146999999999995
EXTRACT: note_on channel=6 note=47 velocity=0 time=0.03033085
EXTRACT: note_on channel=7 note=47 velocity=0 time=0
EXTRACT: note_on channel=7 note=54 velocity=0 time=0.0036764666666666665
EXTRACT: note_on channel=6 note=54 velocity=0 time=0
EXTRACT: note_on channel=6 note=63 velocity=0 time=0.0036764666666666665
EXTRACT: note_on channel=7 note=63 velocity=0 time=0
EXTRACT: note_on channel=9 note=82 velocity=50 time=0.03676466666666667
EXTRACT: note_on channel=6 note=63 velocity=75 time=0.0036764666666666665
EXTRACT: note_on channel=6 note=47 velocity=50 time=0
EXTRACT: note_on channel=6 note=59 velocity=77 time=0
EXTRACT: note_on channel=7 note=63 velocity=75 time=0
EXTRACT: note_on channel=7 note=47 velocity=50 time=0
EXTRACT: note_on channel=7 note=59 velocity=77 time=0
EXTRACT: note_on channel=3 note=59 velocity=0 time=0.0018382333333333333
EXTRACT: note_on channel=9 note=51 velocity=69 time=0
EXTRACT: note_on channel=9 note=38 velocity=90 time=0.0018382333333333333
EXTRACT: note_on channel=3 note=68 velocity=79 time=0.011948516666666666
EXTRACT: note_on channel=9 note=82 velocity=0 time=0.07996315
EXTRACT: note_on channel=9 note=51 velocity=0 time=0.0055147
EXTRACT: note_on channel=9 note=38 velocity=0 time=0.0018382333333333333
EXTRACT: note_on channel=3 note=68 velocity=0 time=0.11305135
EXTRACT: note_on channel=3 note=68 velocity=79 time=0.017463216666666666
EXTRACT: note_on channel=9 note=82 velocity=50 time=0.07444845
EXTRACT: note_on channel=9 note=82 velocity=0 time=0.055146999999999995
EXTRACT: note_on channel=6 note=63 velocity=0 time=0.056066116666666665
EXTRACT: note_on channel=7 note=63 velocity=0 time=0
EXTRACT: note_on channel=3 note=68 velocity=0 time=0.014705866666666666
EXTRACT: note_on channel=9 note=82 velocity=50 time=0.0055147
EXTRACT: note_on channel=9 note=51 velocity=91 time=0.0055147
EXTRACT: note_on channel=6 note=63 velocity=50 time=0.0036764666666666665
EXTRACT: note_on channel=7 note=63 velocity=50 time=0
EXTRACT: note_on channel=3 note=66 velocity=79 time=0.00275735
EXTRACT: note_on channel=9 note=82 velocity=0 time=0.08731608333333334
EXTRACT: note_on channel=9 note=51 velocity=0 time=0.0055147
EXTRACT: note_on channel=7 note=63 velocity=0 time=0.07720579999999999
EXTRACT: note_on channel=6 note=63 velocity=0 time=0
EXTRACT: note_on channel=6 note=63 velocity=47 time=0.04044113333333333
EXTRACT: note_on channel=7 note=63 velocity=47 time=0
EXTRACT: note_on channel=9 note=82 velocity=50 time=0.08731608333333334
EXTRACT: note_on channel=9 note=38 velocity=90 time=0.0009191166666666666
EXTRACT: note_on channel=9 note=82 velocity=0 time=0.05422788333333333
EXTRACT: note_on channel=7 note=63 velocity=0 time=0.04136025
EXTRACT: note_on channel=6 note=63 velocity=0 time=0
EXTRACT: note_on channel=6 note=59 velocity=0 time=0
EXTRACT: note_on channel=7 note=59 velocity=0 time=0
EXTRACT: note_on channel=9 note=38 velocity=0 time=0.0036764666666666665
EXTRACT: note_on channel=1 note=35 velocity=0 time=0.02389703333333333
EXTRACT: note_on channel=9 note=82 velocity=50 time=0.0064338166666666665
EXTRACT: note_on channel=3 note=66 velocity=0 time=0.0009191166666666666
EXTRACT: note_on channel=9 note=51 velocity=76 time=0.0045955833333333335
EXTRACT: note_on channel=3 note=64 velocity=79 time=0.00275735
EXTRACT: note_on channel=6 note=63 velocity=74 time=0.0018382333333333333
EXTRACT: note_on channel=7 note=63 velocity=74 time=0
EXTRACT: note_on channel=1 note=44 velocity=94 time=0.0009191166666666666
EXTRACT: note_on channel=6 note=54 velocity=80 time=0.00275735
EXTRACT: note_on channel=7 note=54 velocity=80 time=0
EXTRACT: note_on channel=9 note=82 velocity=0 time=0.08547785
EXTRACT: note_on channel=9 note=51 velocity=0 time=0.0055147
EXTRACT: note_on channel=7 note=63 velocity=0 time=0.07812491666666667
EXTRACT: note_on channel=6 note=63 velocity=0 time=0
EXTRACT: note_on channel=6 note=63 velocity=68 time=0.04044113333333333
EXTRACT: note_on channel=7 note=63 velocity=68 time=0
EXTRACT: note_on channel=9 note=41 velocity=73 time=0.07996315
EXTRACT: note_on channel=9 note=82 velocity=50 time=0.007352933333333333
EXTRACT: note_on channel=9 note=82 velocity=0 time=0.055146999999999995
EXTRACT: note_on channel=6 note=47 velocity=0 time=0.026654383333333333
EXTRACT: note_on channel=7 note=47 velocity=0 time=0
EXTRACT: note_on channel=9 note=41 velocity=0 time=0.010110283333333333
EXTRACT: note_on channel=6 note=54 velocity=0 time=0.00827205
EXTRACT: note_on channel=7 note=54 velocity=0 time=0
EXTRACT: note_on channel=6 note=42 velocity=0 time=0.0036764666666666665
EXTRACT: note_on channel=7 note=42 velocity=0 time=0
EXTRACT: note_on channel=7 note=63 velocity=0 time=0.0036764666666666665
EXTRACT: note_on channel=6 note=63 velocity=0 time=0
EXTRACT: note_on channel=3 note=64 velocity=0 time=0.022977916666666667
EXTRACT: note_on channel=6 note=45 velocity=67 time=0.00275735
EXTRACT: note_on channel=6 note=52 velocity=78 time=0
EXTRACT: note_on channel=6 note=64 velocity=82 time=0
EXTRACT: note_on channel=6 note=57 velocity=86 time=0
EXTRACT: note_on channel=7 note=45 velocity=67 time=0
EXTRACT: note_on channel=7 note=52 velocity=78 time=0
EXTRACT: note_on channel=7 note=64 velocity=82 time=0
EXTRACT: note_on channel=7 note=57 velocity=86 time=0
EXTRACT: note_on channel=9 note=36 velocity=89 time=0.0018382333333333333
EXTRACT: note_on channel=9 note=82 velocity=50 time=0
EXTRACT: note_on channel=9 note=51 velocity=83 time=0.0055147
EXTRACT: note_on channel=1 note=45 velocity=94 time=0.0009191166666666666
EXTRACT: note_on channel=3 note=64 velocity=79 time=0.00275735
EXTRACT: note_on channel=1 note=44 velocity=0 time=0.00275735
EXTRACT: note_on channel=9 note=82 velocity=0 time=0.08731608333333334
EXTRACT: note_on channel=9 note=51 velocity=0 time=0.0055147
EXTRACT: note_on channel=9 note=36 velocity=0 time=0.1158087
EXTRACT: note_on channel=9 note=82 velocity=50 time=0.08547785
EXTRACT: note_on channel=9 note=82 velocity=0 time=0.055146999999999995
EXTRACT: note_on channel=7 note=52 velocity=0 time=0.03033085
EXTRACT: note_on channel=6 note=52 velocity=0 time=0
EXTRACT: note_on channel=3 note=64 velocity=0 time=0.045036716666666664
EXTRACT: note_on channel=6 note=64 velocity=0 time=0.00275735
EXTRACT: note_on channel=7 note=64 velocity=0 time=0
EXTRACT: note_on channel=6 note=52 velocity=59 time=0
EXTRACT: note_on channel=6 note=64 velocity=52 time=0
EXTRACT: note_on channel=7 note=52 velocity=59 time=0
EXTRACT: note_on channel=7 note=64 velocity=52 time=0
EXTRACT: note_on channel=3 note=61 velocity=79 time=0.00275735
EXTRACT: note_on channel=9 note=82 velocity=50 time=0.0018382333333333333
EXTRACT: note_on channel=9 note=51 velocity=73 time=0.0055147
EXTRACT: note_on channel=9 note=82 velocity=0 time=0.09007343333333333
EXTRACT: note_on channel=9 note=51 velocity=0 time=0.0055147
EXTRACT: note_on channel=7 note=57 velocity=0 time=0.03768378333333333
EXTRACT: note_on channel=6 note=57 velocity=0 time=0
EXTRACT: note_on channel=6 note=57 velocity=74 time=0.07720579999999999
EXTRACT: note_on channel=7 note=57 velocity=74 time=0
EXTRACT: note_on channel=7 note=64 velocity=0 time=0.0330882
EXTRACT: note_on channel=6 note=64 velocity=0 time=0
EXTRACT: note_on channel=6 note=64 velocity=52 time=0
EXTRACT: note_on channel=7 note=64 velocity=52 time=0
EXTRACT: note_on channel=9 note=82 velocity=50 time=0.05422788333333333
EXTRACT: note_on channel=9 note=82 velocity=0 time=0.055146999999999995
EXTRACT: note_on channel=7 note=45 velocity=0 time=0.06709551666666666
EXTRACT: note_on channel=3 note=61 velocity=0 time=0
EXTRACT: note_on channel=6 note=45 velocity=0 time=0
EXTRACT: note_on channel=6 note=45 velocity=52 time=0.0110294
EXTRACT: note_on channel=7 note=45 velocity=52 time=0
EXTRACT: note_on channel=3 note=59 velocity=79 time=0.00275735
EXTRACT: note_on channel=9 note=82 velocity=50 time=0.0018382333333333333
EXTRACT: note_on channel=7 note=52 velocity=0 time=0.00275735
EXTRACT: note_on channel=6 note=52 velocity=0 time=0
EXTRACT: note_on channel=6 note=52 velocity=55 time=0
EXTRACT: note_on channel=7 note=52 velocity=55 time=0
EXTRACT: note_on channel=9 note=51 velocity=74 time=0.00275735
EXTRACT: note_on channel=6 note=64 velocity=0 time=0.03400731666666666
EXTRACT: note_on channel=7 note=64 velocity=0 time=0
EXTRACT: note_on channel=6 note=64 velocity=47 time=0
EXTRACT: note_on channel=7 note=64 velocity=47 time=0
EXTRACT: note_on channel=9 note=82 velocity=0 time=0.056066116666666665
EXTRACT: note_on channel=9 note=51 velocity=0 time=0.0055147
EXTRACT: note_on channel=6 note=57 velocity=0 time=0.08547785
EXTRACT: note_on channel=7 note=57 velocity=0 time=0
EXTRACT: note_on channel=6 note=57 velocity=68 time=0.029411733333333332
EXTRACT: note_on channel=7 note=57 velocity=68 time=0
EXTRACT: note_on channel=6 note=64 velocity=0 time=0.014705866666666666
EXTRACT: note_on channel=7 note=64 velocity=0 time=0
EXTRACT: note_on channel=6 note=64 velocity=39 time=0
EXTRACT: note_on channel=7 note=64 velocity=39 time=0
EXTRACT: note_on channel=9 note=82 velocity=50 time=0.07261021666666666
EXTRACT: note_on channel=9 note=82 velocity=0 time=0.055146999999999995
EXTRACT: note_on channel=6 note=45 velocity=0 time=0.022977916666666667
EXTRACT: note_on channel=7 note=45 velocity=0 time=0
EXTRACT: note_on channel=3 note=59 velocity=0 time=0.0441176
EXTRACT: note_on channel=6 note=52 velocity=0 time=0.0110294
EXTRACT: note_on channel=7 note=52 velocity=0 time=0
EXTRACT: note_on channel=6 note=45 velocity=82 time=0
EXTRACT: note_on channel=6 note=52 velocity=81 time=0
EXTRACT: note_on channel=7 note=45 velocity=82 time=0
EXTRACT: note_on channel=7 note=52 velocity=81 time=0
EXTRACT: note_on channel=9 note=82 velocity=50 time=0.0036764666666666665
EXTRACT: note_on channel=3 note=64 velocity=79 time=0.0018382333333333333
EXTRACT: note_on channel=9 note=44 velocity=82 time=0.0009191166666666666
EXTRACT: note_on channel=9 note=38 velocity=90 time=0.00275735
EXTRACT: note_on channel=9 note=51 velocity=79 time=0
EXTRACT: note_on channel=6 note=57 velocity=0 time=0.0018382333333333333
EXTRACT: note_on channel=6 note=64 velocity=0 time=0
EXTRACT: note_on channel=7 note=64 velocity=0 time=0
EXTRACT: note_on channel=7 note=57 velocity=0 time=0
EXTRACT: note_on channel=6 note=64 velocity=73 time=0
EXTRACT: note_on channel=6 note=57 velocity=66 time=0
EXTRACT: note_on channel=7 note=64 velocity=73 time=0
EXTRACT: note_on channel=7 note=57 velocity=66 time=0
EXTRACT: note_on channel=9 note=82 velocity=0 time=0.09191166666666667
EXTRACT: note_on channel=9 note=38 velocity=0 time=0.0018382333333333333
EXTRACT: note_on channel=9 note=51 velocity=0 time=0.0036764666666666665
EXTRACT: note_on channel=9 note=44 velocity=0 time=0.11856604999999999
EXTRACT: note_on channel=9 note=82 velocity=50 time=0.08088226666666666
EXTRACT: note_on channel=9 note=82 velocity=0 time=0.055146999999999995
EXTRACT: note_on channel=3 note=64 velocity=0 time=0.0716911
EXTRACT: note_on channel=9 note=82 velocity=50 time=0.00827205
EXTRACT: note_on channel=9 note=51 velocity=59 time=0.0055147
EXTRACT: note_on channel=6 note=52 velocity=0 time=0.0110294
EXTRACT: note_on channel=7 note=52 velocity=0 time=0
EXTRACT: note_on channel=6 note=52 velocity=48 time=0
EXTRACT: note_on channel=7 note=52 velocity=48 time=0
EXTRACT: note_on channel=6 note=64 velocity=0 time=0.007352933333333333
EXTRACT: note_on channel=7 note=64 velocity=0 time=0
EXTRACT: note_on channel=6 note=64 velocity=41 time=0
EXTRACT: note_on channel=7 note=64 velocity=41 time=0
EXTRACT: note_on channel=9 note=82 velocity=0 time=0.0716911
EXTRACT: note_on channel=9 note=51 velocity=0 time=0.0055147
EXTRACT: note_on channel=6 note=57 velocity=0 time=0.10294106666666666
EXTRACT: note_on channel=7 note=57 velocity=0 time=0
EXTRACT: note_on channel=6 note=57 velocity=51 time=0.014705866666666666
EXTRACT: note_on channel=7 note=57 velocity=51 time=0
EXTRACT: note_on channel=9 note=82 velocity=50 time=0.08731608333333334
EXTRACT: note_on channel=9 note=82 velocity=0 time=0.055146999999999995
EXTRACT: note_on channel=7 note=52 velocity=0 time=0.07444845
EXTRACT: note_on channel=6 note=52 velocity=0 time=0
EXTRACT: note_on channel=6 note=52 velocity=48 time=0.0036764666666666665
EXTRACT: note_on channel=7 note=52 velocity=48 time=0
EXTRACT: note_on channel=9 note=82 velocity=50 time=0.0018382333333333333
EXTRACT: note_on channel=7 note=64 velocity=0 time=0.0055147
EXTRACT: note_on channel=6 note=64 velocity=0 time=0
EXTRACT: note_on channel=6 note=64 velocity=44 time=0
EXTRACT: note_on channel=7 note=64 velocity=44 time=0
EXTRACT: note_on channel=9 note=51 velocity=74 time=0
EXTRACT: note_on channel=9 note=82 velocity=0 time=0.09007343333333333
EXTRACT: note_on channel=9 note=51 velocity=0 time=0.0055147
EXTRACT: note_on channel=7 note=57 velocity=0 time=0.0882352
EXTRACT: note_on channel=6 note=57 velocity=0 time=0
EXTRACT: note_on channel=6 note=57 velocity=71 time=0.029411733333333332
EXTRACT: note_on channel=7 note=57 velocity=71 time=0
EXTRACT: note_on channel=6 note=64 velocity=0 time=0.0036764666666666665
EXTRACT: note_on channel=7 note=64 velocity=0 time=0
EXTRACT: note_on channel=6 note=64 velocity=45 time=0
EXTRACT: note_on channel=7 note=64 velocity=45 time=0
EXTRACT: note_on channel=9 note=82 velocity=50 time=0.08363961666666667
EXTRACT: note_on channel=9 note=82 velocity=0 time=0.055146999999999995
EXTRACT: note_on channel=1 note=45 velocity=0 time=0.025735266666666666
EXTRACT: note_on channel=6 note=45 velocity=0 time=0.03033085
EXTRACT: note_on channel=7 note=45 velocity=0 time=0
EXTRACT: note_on channel=6 note=57 velocity=0 time=0.0036764666666666665
EXTRACT: note_on channel=7 note=52 velocity=0 time=0
EXTRACT: note_on channel=7 note=64 velocity=0 time=0
EXTRACT: note_on channel=6 note=64 velocity=0 time=0
EXTRACT: note_on channel=7 note=57 velocity=0 time=0
EXTRACT: note_on channel=6 note=52 velocity=0 time=0
EXTRACT: note_on channel=1 note=40 velocity=94 time=0.015624983333333333
EXTRACT: note_on channel=6 note=52 velocity=78 time=0.00275735
EXTRACT: note_on channel=6 note=47 velocity=63 time=0
EXTRACT: note_on channel=6 note=64 velocity=75 time=0
EXTRACT: note_on channel=6 note=59 velocity=78 time=0
EXTRACT: note_on channel=7 note=52 velocity=78 time=0
EXTRACT: note_on channel=7 note=47 velocity=63 time=0
EXTRACT: note_on channel=7 note=64 velocity=75 time=0
EXTRACT: note_on channel=7 note=59 velocity=78 time=0
EXTRACT: note_on channel=9 note=36 velocity=104 time=0.0009191166666666666
EXTRACT: note_on channel=9 note=82 velocity=50 time=0.0009191166666666666
EXTRACT: note_on channel=3 note=64 velocity=79 time=0.0036764666666666665
EXTRACT: note_on channel=9 note=51 velocity=60 time=0.0018382333333333333
EXTRACT: note_on channel=9 note=82 velocity=0 time=0.0937499
EXTRACT: note_on channel=9 note=51 velocity=0 time=0.0055147
EXTRACT: note_on channel=9 note=36 velocity=0 time=0.11488958333333332
EXTRACT: note_on channel=9 note=82 velocity=50 time=0.08639696666666666
EXTRACT: note_on channel=9 note=82 velocity=0 time=0.055146999999999995
EXTRACT: note_on channel=7 note=59 velocity=0 time=0.06709551666666666
EXTRACT: note_on channel=6 note=59 velocity=0 time=0
EXTRACT: note_on channel=3 note=64 velocity=0 time=0.0045955833333333335
EXTRACT: note_on channel=6 note=59 velocity=41 time=0.0064338166666666665
EXTRACT: note_on channel=7 note=59 velocity=41 time=0
EXTRACT: note_on channel=9 note=82 velocity=50 time=0.0009191166666666666
EXTRACT: note_on channel=9 note=51 velocity=67 time=0.0055147
EXTRACT: note_on channel=7 note=64 velocity=0 time=0.011948516666666666
EXTRACT: note_on channel=6 note=64 velocity=0 time=0
EXTRACT: note_on channel=6 note=64 velocity=41 time=0
EXTRACT: note_on channel=7 note=64 velocity=41 time=0
EXTRACT: note_on channel=9 note=82 velocity=0 time=0.08180138333333332
EXTRACT: note_on channel=9 note=51 velocity=0 time=0.0055147
EXTRACT: note_on channel=6 note=64 velocity=0 time=0.08915431666666666
EXTRACT: note_on channel=7 note=64 velocity=0 time=0
EXTRACT: note_on channel=6 note=64 velocity=56 time=0.025735266666666666
EXTRACT: note_on channel=7 note=64 velocity=56 time=0
EXTRACT: note_on channel=9 note=82 velocity=50 time=0.08731608333333334
EXTRACT: note_on channel=9 note=82 velocity=0 time=0.055146999999999995
EXTRACT: note_on channel=6 note=59 velocity=0 time=0.06341904999999999
EXTRACT: note_on channel=7 note=59 velocity=0 time=0
EXTRACT: note_on channel=6 note=64 velocity=0 time=0.014705866666666666
EXTRACT: note_on channel=7 note=64 velocity=0 time=0
EXTRACT: note_on channel=6 note=59 velocity=53 time=0
EXTRACT: note_on channel=6 note=64 velocity=72 time=0
EXTRACT: note_on channel=7 note=59 velocity=53 time=0
EXTRACT: note_on channel=7 note=64 velocity=72 time=0
EXTRACT: note_on channel=9 note=82 velocity=50 time=0.0018382333333333333
EXTRACT: note_on channel=9 note=51 velocity=57 time=0.0055147
EXTRACT: note_on channel=9 note=82 velocity=0 time=0.09007343333333333
EXTRACT: note_on channel=9 note=51 velocity=0 time=0.0055147
EXTRACT: note_on channel=6 note=64 velocity=0 time=0.09191166666666667
EXTRACT: note_on channel=7 note=64 velocity=0 time=0
EXTRACT: note_on channel=6 note=64 velocity=50 time=0.025735266666666666
EXTRACT: note_on channel=7 note=64 velocity=50 time=0
EXTRACT: note_on channel=3 note=59 velocity=79 time=0.00275735
EXTRACT: note_on channel=9 note=82 velocity=50 time=0.08455873333333333
EXTRACT: note_on channel=9 note=82 velocity=0 time=0.055146999999999995
EXTRACT: note_on channel=6 note=52 velocity=0 time=0.03033085
EXTRACT: note_on channel=7 note=52 velocity=0 time=0
EXTRACT: note_on channel=7 note=59 velocity=0 time=0.0036764666666666665
EXTRACT: note_on channel=6 note=59 velocity=0 time=0
EXTRACT: note_on channel=6 note=64 velocity=0 time=0.0036764666666666665
EXTRACT: note_on channel=7 note=64 velocity=0 time=0
EXTRACT: note_on channel=9 note=82 velocity=50 time=0.03676466666666667
EXTRACT: note_on channel=3 note=59 velocity=0 time=0.0036764666666666665
EXTRACT: note_on channel=6 note=64 velocity=75 time=0
EXTRACT: note_on channel=6 note=52 velocity=50 time=0
EXTRACT: note_on channel=6 note=59 velocity=77 time=0
EXTRACT: note_on channel=7 note=64 velocity=75 time=0
EXTRACT: note_on channel=7 note=52 velocity=50 time=0
EXTRACT: note_on channel=7 note=59 velocity=77 time=0
EXTRACT: note_on channel=9 note=51 velocity=69 time=0.0018382333333333333
EXTRACT: note_on channel=9 note=38 velocity=90 time=0.0018382333333333333
EXTRACT: note_on channel=3 note=64 velocity=79 time=0.007352933333333333
EXTRACT: note_on channel=9 note=82 velocity=0 time=0.08455873333333333
EXTRACT: note_on channel=9 note=51 velocity=0 time=0.0055147
EXTRACT: note_on channel=9 note=38 velocity=0 time=0.0018382333333333333
EXTRACT: note_on channel=9 note=82 velocity=50 time=0.20496301666666666
EXTRACT: note_on channel=9 note=82 velocity=0 time=0.055146999999999995
EXTRACT: note_on channel=6 note=64 velocity=0 time=0.056066116666666665
EXTRACT: note_on channel=7 note=64 velocity=0 time=0
EXTRACT: note_on channel=3 note=64 velocity=0 time=0.019301449999999998
EXTRACT: note_on channel=9 note=82 velocity=50 time=0.0009191166666666666
EXTRACT: note_on channel=9 note=51 velocity=91 time=0.0055147
EXTRACT: note_on channel=6 note=64 velocity=50 time=0.0036764666666666665
EXTRACT: note_on channel=7 note=64 velocity=50 time=0
EXTRACT: note_on channel=3 note=64 velocity=79 time=0.009191166666666667
EXTRACT: note_on channel=9 note=82 velocity=0 time=0.08088226666666666
EXTRACT: note_on channel=9 note=51 velocity=0 time=0.0055147
EXTRACT: note_on channel=7 note=64 velocity=0 time=0.07720579999999999
EXTRACT: note_on channel=6 note=64 velocity=0 time=0
EXTRACT: note_on channel=6 note=64 velocity=47 time=0.04044113333333333
EXTRACT: note_on channel=7 note=64 velocity=47 time=0
EXTRACT: note_on channel=9 note=82 velocity=50 time=0.08731608333333334
EXTRACT: note_on channel=9 note=38 velocity=90 time=0.0009191166666666666
EXTRACT: note_on channel=9 note=82 velocity=0 time=0.05422788333333333
EXTRACT: note_on channel=7 note=64 velocity=0 time=0.04136025
EXTRACT: note_on channel=6 note=59 velocity=0 time=0
EXTRACT: note_on channel=7 note=59 velocity=0 time=0
EXTRACT: note_on channel=6 note=64 velocity=0 time=0
EXTRACT: note_on channel=9 note=38 velocity=0 time=0.0036764666666666665
EXTRACT: note_on channel=9 note=82 velocity=50 time=0.03033085
EXTRACT: note_on channel=9 note=51 velocity=76 time=0.0055147
EXTRACT: note_on channel=3 note=64 velocity=0 time=0.0018382333333333333
EXTRACT: note_on channel=3 note=66 velocity=79 time=0.0009191166666666666
EXTRACT: note_on channel=6 note=64 velocity=74 time=0.0018382333333333333
EXTRACT: note_on channel=7 note=64 velocity=74 time=0
EXTRACT: note_on channel=6 note=59 velocity=80 time=0.0036764666666666665
EXTRACT: note_on channel=7 note=59 velocity=80 time=0
EXTRACT: note_on channel=9 note=82 velocity=0 time=0.08547785
EXTRACT: note_on channel=9 note=51 velocity=0 time=0.0055147
EXTRACT: note_on channel=6 note=64 velocity=0 time=0.07812491666666667
EXTRACT: note_on channel=7 note=64 velocity=0 time=0
EXTRACT: note_on channel=6 note=64 velocity=68 time=0.04044113333333333
EXTRACT: note_on channel=7 note=64 velocity=68 time=0
EXTRACT: note_on channel=3 note=66 velocity=0 time=0.00275735
EXTRACT: note_on channel=3 note=66 velocity=79 time=0.00827205
EXTRACT: note_on channel=9 note=82 velocity=50 time=0.07628668333333333
EXTRACT: note_on channel=9 note=82 velocity=0 time=0.055146999999999995
EXTRACT: note_on channel=1 note=40 velocity=0 time=0.014705866666666666
EXTRACT: note_on channel=6 note=52 velocity=0 time=0.011948516666666666
EXTRACT: note_on channel=7 note=52 velocity=0 time=0
EXTRACT: note_on channel=6 note=59 velocity=0 time=0.018382333333333334
EXTRACT: note_on channel=7 note=59 velocity=0 time=0
EXTRACT: note_on channel=6 note=47 velocity=0 time=0.0036764666666666665
EXTRACT: note_on channel=7 note=47 velocity=0 time=0
EXTRACT: note_on channel=6 note=64 velocity=0 time=0.0036764666666666665
EXTRACT: note_on channel=7 note=64 velocity=0 time=0
EXTRACT: note_on channel=6 note=47 velocity=67 time=0.025735266666666666
EXTRACT: note_on channel=6 note=54 velocity=78 time=0
EXTRACT: note_on channel=6 note=66 velocity=82 time=0
EXTRACT: note_on channel=6 note=61 velocity=86 time=0
EXTRACT: note_on channel=7 note=47 velocity=67 time=0
EXTRACT: note_on channel=7 note=54 velocity=78 time=0
EXTRACT: note_on channel=7 note=66 velocity=82 time=0
EXTRACT: note_on channel=7 note=61 velocity=86 time=0
EXTRACT: note_on channel=9 note=36 velocity=89 time=0.0018382333333333333
EXTRACT: note_on channel=9 note=82 velocity=50 time=0
EXTRACT: note_on channel=9 note=51 velocity=83 time=0.0055147
EXTRACT: note_on channel=1 note=47 velocity=94 time=0.0009191166666666666
EXTRACT: note_on channel=9 note=82 velocity=0 time=0.09283078333333333
EXTRACT: note_on channel=9 note=51 velocity=0 time=0.0055147
EXTRACT: note_on channel=9 note=36 velocity=0 time=0.1158087
EXTRACT: note_on channel=9 note=82 velocity=50 time=0.08547785
EXTRACT: note_on channel=9 note=82 velocity=0 time=0.055146999999999995
EXTRACT: note_on channel=7 note=54 velocity=0 time=0.03033085
EXTRACT: note_on channel=6 note=54 velocity=0 time=0
EXTRACT: note_on channel=7 note=66 velocity=0 time=0.04779406666666666
EXTRACT: note_on channel=6 note=66 velocity=0 time=0
EXTRACT: note_on channel=6 note=54 velocity=59 time=0
EXTRACT: note_on channel=6 note=66 velocity=52 time=0
EXTRACT: note_on channel=7 note=54 velocity=59 time=0
EXTRACT: note_on channel=7 note=66 velocity=52 time=0
EXTRACT: note_on channel=3 note=66 velocity=0 time=0.00275735
EXTRACT: note_on channel=9 note=82 velocity=50 time=0.0018382333333333333
EXTRACT: note_on channel=9 note=51 velocity=73 time=0.0055147
EXTRACT: note_on channel=9 note=82 velocity=0 time=0.09007343333333333
EXTRACT: note_on channel=9 note=51 velocity=0 time=0.0055147
EXTRACT: note_on channel=7 note=61 velocity=0 time=0.03768378333333333
EXTRACT: note_on channel=6 note=61 velocity=0 time=0
EXTRACT: note_on channel=6 note=61 velocity=74 time=0.07720579999999999
EXTRACT: note_on channel=7 note=61 velocity=74 time=0
EXTRACT: note_on channel=7 note=66 velocity=0 time=0.0330882
EXTRACT: note_on channel=6 note=66 velocity=0 time=0
EXTRACT: note_on channel=6 note=66 velocity=52 time=0
EXTRACT: note_on channel=7 note=66 velocity=52 time=0
EXTRACT: note_on channel=9 note=82 velocity=50 time=0.05422788333333333
EXTRACT: note_on channel=9 note=82 velocity=0 time=0.055146999999999995
EXTRACT: note_on channel=6 note=47 velocity=0 time=0.06709551666666666
EXTRACT: note_on channel=7 note=47 velocity=0 time=0
EXTRACT: note_on channel=6 note=47 velocity=52 time=0.0110294
EXTRACT: note_on channel=7 note=47 velocity=52 time=0
EXTRACT: note_on channel=9 note=82 velocity=50 time=0.0045955833333333335
EXTRACT: note_on channel=7 note=54 velocity=0 time=0.00275735
EXTRACT: note_on channel=6 note=54 velocity=0 time=0
EXTRACT: note_on channel=6 note=54 velocity=55 time=0
EXTRACT: note_on channel=7 note=54 velocity=55 time=0
EXTRACT: note_on channel=9 note=51 velocity=74 time=0.00275735
EXTRACT: note_on channel=6 note=66 velocity=0 time=0.03400731666666666
EXTRACT: note_on channel=7 note=66 velocity=0 time=0
EXTRACT: note_on channel=6 note=66 velocity=47 time=0
EXTRACT: note_on channel=7 note=66 velocity=47 time=0
EXTRACT: note_on channel=9 note=82 velocity=0 time=0.056066116666666665
EXTRACT: note_on channel=9 note=51 velocity=0 time=0.0055147
EXTRACT: note_on channel=7 note=61 velocity=0 time=0.08547785
EXTRACT: note_on channel=6 note=61 velocity=0 time=0
EXTRACT: note_on channel=6 note=61 velocity=68 time=0.029411733333333332
EXTRACT: note_on channel=7 note=61 velocity=68 time=0
EXTRACT: note_on channel=3 note=59 velocity=79 time=0.00827205
EXTRACT: note_on channel=6 note=66 velocity=0 time=0.0064338166666666665
EXTRACT: note_on channel=7 note=66 velocity=0 time=0
EXTRACT: note_on channel=6 note=66 velocity=39 time=0
EXTRACT: note_on channel=7 note=66 velocity=39 time=0
EXTRACT: note_on channel=9 note=82 velocity=50 time=0.07261021666666666
EXTRACT: note_on channel=9 note=82 velocity=0 time=0.055146999999999995
EXTRACT: note_on channel=7 note=47 velocity=0 time=0.022977916666666667
EXTRACT: note_on channel=6 note=47 velocity=0 time=0
EXTRACT: note_on channel=6 note=54 velocity=0 time=0.055146999999999995
EXTRACT: note_on channel=7 note=54 velocity=0 time=0
EXTRACT: note_on channel=6 note=47 velocity=82 time=0
EXTRACT: note_on channel=6 note=54 velocity=81 time=0
EXTRACT: note_on channel=7 note=47 velocity=82 time=0
EXTRACT: note_on channel=7 note=54 velocity=81 time=0
EXTRACT: note_on channel=9 note=82 velocity=50 time=0.0036764666666666665
EXTRACT: note_on channel=3 note=59 velocity=0 time=0.0018382333333333333
EXTRACT: note_on channel=1 note=47 velocity=0 time=0
EXTRACT: note_on channel=9 note=44 velocity=82 time=0.0009191166666666666
EXTRACT: note_on channel=9 note=38 velocity=90 time=0.00275735
EXTRACT: note_on channel=9 note=51 velocity=79 time=0
EXTRACT: note_on channel=6 note=61 velocity=0 time=0.0018382333333333333
EXTRACT: note_on channel=7 note=61 velocity=0 time=0
EXTRACT: note_on channel=7 note=66 velocity=0 time=0
EXTRACT: note_on channel=6 note=66 velocity=0 time=0
EXTRACT: note_on channel=1 note=42 velocity=94 time=0
EXTRACT: note_on channel=3 note=64 velocity=79 time=0
EXTRACT: note_on channel=6 note=66 velocity=73 time=0
EXTRACT: note_on channel=6 note=61 velocity=66 time=0
EXTRACT: note_on channel=7 note=66 velocity=73 time=0
EXTRACT: note_on channel=7 note=61 velocity=66 time=0
EXTRACT: note_on channel=9 note=82 velocity=0 time=0.09191166666666667
EXTRACT: note_on channel=9 note=38 velocity=0 time=0.0018382333333333333
EXTRACT: note_on channel=9 note=51 velocity=0 time=0.0036764666666666665
EXTRACT: note_on channel=9 note=44 velocity=0 time=0.11856604999999999
EXTRACT: note_on channel=9 note=82 velocity=50 time=0.08088226666666666
EXTRACT: note_on channel=9 note=82 velocity=0 time=0.055146999999999995
EXTRACT: note_on channel=3 note=64 velocity=0 time=0.07536756666666666
EXTRACT: note_on channel=9 note=82 velocity=50 time=0.0045955833333333335
EXTRACT: note_on channel=9 note=51 velocity=59 time=0.0055147
EXTRACT: note_on channel=6 note=54 velocity=0 time=0.0110294
EXTRACT: note_on channel=7 note=54 velocity=0 time=0
EXTRACT: note_on channel=6 note=54 velocity=48 time=0
EXTRACT: note_on channel=7 note=54 velocity=48 time=0
EXTRACT: note_on channel=3 note=68 velocity=79 time=0.0036764666666666665
EXTRACT: note_on channel=6 note=66 velocity=0 time=0.0036764666666666665
EXTRACT: note_on channel=7 note=66 velocity=0 time=0
EXTRACT: note_on channel=6 note=66 velocity=41 time=0
EXTRACT: note_on channel=7 note=66 velocity=41 time=0
EXTRACT: note_on channel=9 note=82 velocity=0 time=0.0716911
EXTRACT: note_on channel=9 note=51 velocity=0 time=0.0055147
EXTRACT: note_on channel=6 note=61 velocity=0 time=0.10294106666666666
EXTRACT: note_on channel=7 note=61 velocity=0 time=0
EXTRACT: note_on channel=6 note=61 velocity=51 time=0.014705866666666666
EXTRACT: note_on channel=7 note=61 velocity=51 time=0
EXTRACT: note_on channel=9 note=82 velocity=50 time=0.08731608333333334
EXTRACT: note_on channel=9 note=82 velocity=0 time=0.055146999999999995
EXTRACT: note_on channel=6 note=54 velocity=0 time=0.07444845
EXTRACT: note_on channel=7 note=54 velocity=0 time=0
EXTRACT: note_on channel=6 note=54 velocity=48 time=0.0036764666666666665
EXTRACT: note_on channel=7 note=54 velocity=48 time=0
EXTRACT: note_on channel=9 note=82 velocity=50 time=0.0018382333333333333
EXTRACT: note_on channel=6 note=66 velocity=0 time=0.0055147
EXTRACT: note_on channel=7 note=66 velocity=0 time=0
EXTRACT: note_on channel=6 note=66 velocity=44 time=0
EXTRACT: note_on channel=7 note=66 velocity=44 time=0
EXTRACT: note_on channel=9 note=51 velocity=74 time=0
EXTRACT: note_on channel=3 note=68 velocity=0 time=0.00275735
EXTRACT: note_on channel=3 note=64 velocity=79 time=0.0009191166666666666
EXTRACT: note_on channel=9 note=82 velocity=0 time=0.08639696666666666
EXTRACT: note_on channel=9 note=51 velocity=0 time=0.0055147
EXTRACT: note_on channel=6 note=61 velocity=0 time=0.0882352
EXTRACT: note_on channel=7 note=61 velocity=0 time=0
EXTRACT: note_on channel=6 note=61 velocity=71 time=0.029411733333333332
EXTRACT: note_on channel=7 note=61 velocity=71 time=0
EXTRACT: note_on channel=6 note=66 velocity=0 time=0.0036764666666666665
EXTRACT: note_on channel=7 note=66 velocity=0 time=0
EXTRACT: note_on channel=6 note=66 velocity=45 time=0
EXTRACT: note_on channel=7 note=66 velocity=45 time=0
EXTRACT: note_on channel=3 note=64 velocity=0 time=0.0045955833333333335
EXTRACT: note_on channel=3 note=66 velocity=79 time=0.00827205
EXTRACT: note_on channel=9 note=82 velocity=50 time=0.07077198333333333
EXTRACT: note_on channel=9 note=82 velocity=0 time=0.055146999999999995
EXTRACT: note_on channel=6 note=47 velocity=0 time=0.056066116666666665
EXTRACT: note_on channel=7 note=47 velocity=0 time=0
EXTRACT: note_on channel=6 note=54 velocity=0 time=0.0036764666666666665
EXTRACT: note_on channel=7 note=66 velocity=0 time=0
EXTRACT: note_on channel=6 note=61 velocity=0 time=0
EXTRACT: note_on channel=6 note=66 velocity=0 time=0
EXTRACT: note_on channel=7 note=61 velocity=0 time=0
EXTRACT: note_on channel=7 note=54 velocity=0 time=0
EXTRACT: note_on channel=6 note=47 velocity=88 time=0.018382333333333334
EXTRACT: note_on channel=6 note=42 velocity=73 time=0
EXTRACT: note_on channel=6 note=59 velocity=85 time=0
EXTRACT: note_on channel=6 note=54 velocity=88 time=0
EXTRACT: note_on channel=7 note=47 velocity=88 time=0
EXTRACT: note_on channel=7 note=42 velocity=73 time=0
EXTRACT: note_on channel=7 note=59 velocity=85 time=0
EXTRACT: note_on channel=7 note=54 velocity=88 time=0
EXTRACT: note_on channel=9 note=36 velocity=104 time=0.0009191166666666666
EXTRACT: note_on channel=9 note=82 velocity=50 time=0.0009191166666666666
EXTRACT: note_on channel=9 note=51 velocity=60 time=0.0055147
EXTRACT: note_on channel=1 note=42 velocity=0 time=0.0009191166666666666
EXTRACT: note_on channel=1 note=35 velocity=94 time=0.00275735
EXTRACT: note_on channel=9 note=82 velocity=0 time=0.09007343333333333
EXTRACT: note_on channel=9 note=51 velocity=0 time=0.0055147
EXTRACT: note_on channel=9 note=36 velocity=0 time=0.11488958333333332
EXTRACT: note_on channel=3 note=68 velocity=79 time=0.2261027
EXTRACT: note_on channel=9 note=51 velocity=67 time=0
EXTRACT: note_on channel=3 note=66 velocity=0 time=0.0018382333333333333
EXTRACT: note_on channel=9 note=51 velocity=0 time=0.09742636666666667
EXTRACT: note_on channel=3 note=68 velocity=0 time=0.11856604999999999
EXTRACT: note_on channel=9 note=51 velocity=57 time=0.22426446666666666
EXTRACT: note_on channel=9 note=51 velocity=0 time=0.09558813333333332
EXTRACT: note_on channel=3 note=59 velocity=79 time=0.12683809999999998
EXTRACT: note_on channel=9 note=50 velocity=111 time=0.2113968333333333
EXTRACT: note_on channel=9 note=38 velocity=90 time=0.0036764666666666665
EXTRACT: note_on channel=3 note=59 velocity=0 time=0.00275735
EXTRACT: note_on channel=3 note=68 velocity=79 time=0.0018382333333333333
EXTRACT: note_on channel=9 note=50 velocity=112 time=0.011948516666666666
EXTRACT: note_on channel=9 note=50 velocity=0 time=0.0606617
EXTRACT: note_on channel=9 note=38 velocity=0 time=0.0220588
EXTRACT: note_on channel=9 note=50 velocity=0 time=0.16911746666666666
EXTRACT: note_on channel=3 note=68 velocity=0 time=0.16727923333333333
EXTRACT: note_on channel=3 note=66 velocity=79 time=0.00275735
EXTRACT: note_on channel=9 note=47 velocity=112 time=0.0018382333333333333
EXTRACT: note_on channel=9 note=47 velocity=0 time=0.25551443333333335
EXTRACT: note_on channel=9 note=38 velocity=90 time=0.05055141666666666
EXTRACT: note_on channel=9 note=38 velocity=0 time=0.0992646
EXTRACT: note_on channel=3 note=64 velocity=79 time=0.03492643333333333
EXTRACT: note_on channel=9 note=43 velocity=112 time=0.0009191166666666666
EXTRACT: note_on channel=3 note=66 velocity=0 time=0.0064338166666666665
EXTRACT: note_on channel=9 note=43 velocity=0 time=0.24448503333333332
EXTRACT: note_on channel=7 note=59 velocity=0 time=0.11397046666666666
EXTRACT: note_on channel=7 note=54 velocity=0 time=0
EXTRACT: note_on channel=6 note=42 velocity=0 time=0
EXTRACT: note_on channel=7 note=42 velocity=0 time=0
EXTRACT: note_on channel=6 note=54 velocity=0 time=0
EXTRACT: note_on channel=6 note=59 velocity=0 time=0
EXTRACT: note_on channel=7 note=47 velocity=0 time=0
EXTRACT: note_on channel=6 note=47 velocity=0 time=0
EXTRACT: note_on channel=1 note=35 velocity=0 time=0.02389703333333333
EXTRACT: note_on channel=3 note=64 velocity=0 time=0.03492643333333333
EXTRACT: note_on channel=6 note=45 velocity=66 time=0
EXTRACT: note_on channel=6 note=52 velocity=76 time=0
EXTRACT: note_on channel=6 note=68 velocity=77 time=0
EXTRACT: note_on channel=6 note=57 velocity=68 time=0
EXTRACT: note_on channel=7 note=45 velocity=66 time=0
EXTRACT: note_on channel=7 note=52 velocity=76 time=0
EXTRACT: note_on channel=7 note=68 velocity=77 time=0
EXTRACT: note_on channel=7 note=57 velocity=68 time=0
EXTRACT: note_on channel=9 note=36 velocity=89 time=0.0018382333333333333
EXTRACT: note_on channel=9 note=82 velocity=50 time=0
EXTRACT: note_on channel=1 note=33 velocity=94 time=0.00275735
EXTRACT: note_on channel=9 note=51 velocity=83 time=0.00275735
EXTRACT: note_on channel=3 note=64 velocity=79 time=0.0036764666666666665
EXTRACT: note_on channel=9 note=82 velocity=0 time=0.09007343333333333
EXTRACT: note_on channel=9 note=51 velocity=0 time=0.0055147
EXTRACT: note_on channel=9 note=36 velocity=0 time=0.1158087
EXTRACT: note_on channel=9 note=82 velocity=50 time=0.06893375
EXTRACT: note_on channel=9 note=82 velocity=0 time=0.055146999999999995
EXTRACT: note_on channel=7 note=68 velocity=0 time=0.08363961666666667
EXTRACT: note_on channel=6 note=68 velocity=0 time=0
EXTRACT: note_on channel=6 note=68 velocity=42 time=0.0110294
EXTRACT: note_on channel=7 note=68 velocity=42 time=0
EXTRACT: note_on channel=9 note=82 velocity=50 time=0.0045955833333333335
EXTRACT: note_on channel=9 note=51 velocity=73 time=0.0055147
EXTRACT: note_on channel=3 note=64 velocity=0 time=0.0064338166666666665
EXTRACT: note_on channel=9 note=82 velocity=0 time=0.08363961666666667
EXTRACT: note_on channel=9 note=51 velocity=0 time=0.0055147
EXTRACT: note_on channel=9 note=82 velocity=50 time=0.18658068333333333
EXTRACT: note_on channel=9 note=82 velocity=0 time=0.055146999999999995
EXTRACT: note_on channel=6 note=52 velocity=0 time=0.06433816666666667
EXTRACT: note_on channel=7 note=52 velocity=0 time=0
EXTRACT: note_on channel=7 note=68 velocity=0 time=0.029411733333333332
EXTRACT: note_on channel=6 note=68 velocity=0 time=0
EXTRACT: note_on channel=6 note=52 velocity=51 time=0
EXTRACT: note_on channel=6 note=68 velocity=51 time=0
EXTRACT: note_on channel=7 note=52 velocity=51 time=0
EXTRACT: note_on channel=7 note=68 velocity=51 time=0
EXTRACT: note_on channel=9 note=82 velocity=50 time=0.0045955833333333335
EXTRACT: note_on channel=7 note=57 velocity=0 time=0.00275735
EXTRACT: note_on channel=6 note=57 velocity=0 time=0
EXTRACT: note_on channel=6 note=57 velocity=46 time=0
EXTRACT: note_on channel=7 note=57 velocity=46 time=0
EXTRACT: note_on channel=9 note=51 velocity=74 time=0.00275735
EXTRACT: note_on channel=9 note=82 velocity=0 time=0.09007343333333333
EXTRACT: note_on channel=9 note=51 velocity=0 time=0.0055147
EXTRACT: note_on channel=6 note=57 velocity=0 time=0.08180138333333332
EXTRACT: note_on channel=7 note=57 velocity=0 time=0
EXTRACT: note_on channel=6 note=57 velocity=51 time=0.0330882
EXTRACT: note_on channel=7 note=57 velocity=51 time=0
EXTRACT: note_on channel=9 note=82 velocity=50 time=0.07077198333333333
EXTRACT: note_on channel=9 note=82 velocity=0 time=0.055146999999999995
EXTRACT: note_on channel=7 note=52 velocity=0 time=0.04687495
EXTRACT: note_on channel=6 note=52 velocity=0 time=0
EXTRACT: note_on channel=6 note=57 velocity=0 time=0.0036764666666666665
EXTRACT: note_on channel=7 note=57 velocity=0 time=0
EXTRACT: note_on channel=7 note=68 velocity=0 time=0.007352933333333333
EXTRACT: note_on channel=6 note=68 velocity=0 time=0
EXTRACT: note_on channel=6 note=52 velocity=61 time=0.03676466666666667
EXTRACT: note_on channel=6 note=68 velocity=76 time=0
EXTRACT: note_on channel=6 note=57 velocity=82 time=0
EXTRACT: note_on channel=7 note=52 velocity=61 time=0
EXTRACT: note_on channel=7 note=68 velocity=76 time=0
EXTRACT: note_on channel=7 note=57 velocity=82 time=0
EXTRACT: note_on channel=9 note=82 velocity=50 time=0.0036764666666666665
EXTRACT: note_on channel=9 note=44 velocity=82 time=0.00275735
EXTRACT: note_on channel=3 note=64 velocity=79 time=0.0018382333333333333
EXTRACT: note_on channel=9 note=38 velocity=90 time=0.0009191166666666666
EXTRACT: note_on channel=9 note=51 velocity=79 time=0
EXTRACT: note_on channel=9 note=82 velocity=0 time=0.0937499
EXTRACT: note_on channel=9 note=38 velocity=0 time=0.0018382333333333333
EXTRACT: note_on channel=9 note=51 velocity=0 time=0.0036764666666666665
EXTRACT: note_on channel=9 note=44 velocity=0 time=0.11856604999999999
EXTRACT: note_on channel=9 note=82 velocity=50 time=0.04871318333333333
EXTRACT: note_on channel=9 note=82 velocity=0 time=0.055146999999999995
EXTRACT: note_on channel=7 note=68 velocity=0 time=0.062499933333333334
EXTRACT: note_on channel=6 note=68 velocity=0 time=0
EXTRACT: note_on channel=6 note=52 velocity=0 time=0.0036764666666666665
EXTRACT: note_on channel=7 note=52 velocity=0 time=0
EXTRACT: note_on channel=3 note=64 velocity=0 time=0.03584555
EXTRACT: note_on channel=6 note=52 velocity=45 time=0.00827205
EXTRACT: note_on channel=6 note=68 velocity=29 time=0
EXTRACT: note_on channel=7 note=52 velocity=45 time=0
EXTRACT: note_on channel=7 note=68 velocity=29 time=0
EXTRACT: note_on channel=9 note=82 velocity=50 time=0.0018382333333333333
EXTRACT: note_on channel=9 note=51 velocity=59 time=0.0055147
EXTRACT: note_on channel=9 note=82 velocity=0 time=0.09007343333333333
EXTRACT: note_on channel=9 note=51 velocity=0 time=0.0055147
EXTRACT: note_on channel=7 note=57 velocity=0 time=0.07352933333333334
EXTRACT: note_on channel=6 note=57 velocity=0 time=0
EXTRACT: note_on channel=7 note=45 velocity=0 time=0.014705866666666666
EXTRACT: note_on channel=6 note=45 velocity=0 time=0
EXTRACT: note_on channel=6 note=45 velocity=47 time=0.029411733333333332
EXTRACT: note_on channel=6 note=57 velocity=34 time=0
EXTRACT: note_on channel=7 note=45 velocity=47 time=0
EXTRACT: note_on channel=7 note=57 velocity=34 time=0
EXTRACT: note_on channel=9 note=82 velocity=50 time=0.08731608333333334
EXTRACT: note_on channel=9 note=82 velocity=0 time=0.055146999999999995
EXTRACT: note_on channel=7 note=57 velocity=0 time=0.03033085
EXTRACT: note_on channel=6 note=57 velocity=0 time=0
EXTRACT: note_on channel=7 note=52 velocity=0 time=0.007352933333333333
EXTRACT: note_on channel=6 note=52 velocity=0 time=0
EXTRACT: note_on channel=7 note=45 velocity=0 time=0.018382333333333334
EXTRACT: note_on channel=6 note=45 velocity=0 time=0
EXTRACT: note_on channel=7 note=68 velocity=0 time=0.0110294
EXTRACT: note_on channel=6 note=68 velocity=0 time=0
EXTRACT: note_on channel=6 note=45 velocity=31 time=0.0110294
EXTRACT: note_on channel=6 note=52 velocity=37 time=0
EXTRACT: note_on channel=6 note=68 velocity=41 time=0
EXTRACT: note_on channel=6 note=57 velocity=44 time=0
EXTRACT: note_on channel=7 note=45 velocity=31 time=0
EXTRACT: note_on channel=7 note=52 velocity=37 time=0
EXTRACT: note_on channel=7 note=68 velocity=41 time=0
EXTRACT: note_on channel=7 note=57 velocity=44 time=0
EXTRACT: note_on channel=9 note=82 velocity=50 time=0.0018382333333333333
EXTRACT: note_on channel=9 note=51 velocity=74 time=0.0055147
EXTRACT: note_on channel=9 note=82 velocity=0 time=0.09007343333333333
EXTRACT: note_on channel=9 note=51 velocity=0 time=0.0055147
EXTRACT: note_on channel=6 note=57 velocity=0 time=0.0882352
EXTRACT: note_on channel=7 note=57 velocity=0 time=0
EXTRACT: note_on channel=6 note=57 velocity=37 time=0.03676466666666667
EXTRACT: note_on channel=7 note=57 velocity=37 time=0
EXTRACT: note_on channel=9 note=82 velocity=50 time=0.07996315
EXTRACT: note_on channel=9 note=82 velocity=0 time=0.055146999999999995
EXTRACT: note_on channel=1 note=33 velocity=0 time=0.0220588
EXTRACT: note_on channel=6 note=68 velocity=0 time=0.03400731666666666
EXTRACT: note_on channel=7 note=68 velocity=0 time=0
EXTRACT: note_on channel=7 note=45 velocity=0 time=0.0036764666666666665
EXTRACT: note_on channel=6 note=52 velocity=0 time=0
EXTRACT: note_on channel=6 note=57 velocity=0 time=0
EXTRACT: note_on channel=7 note=57 velocity=0 time=0
EXTRACT: note_on channel=7 note=52 velocity=0 time=0
EXTRACT: note_on channel=6 note=45 velocity=0 time=0
EXTRACT: note_on channel=6 note=40 velocity=78 time=0.018382333333333334
EXTRACT: note_on channel=6 note=47 velocity=63 time=0
EXTRACT: note_on channel=6 note=64 velocity=75 time=0
EXTRACT: note_on channel=6 note=59 velocity=78 time=0
EXTRACT: note_on channel=7 note=40 velocity=78 time=0
EXTRACT: note_on channel=7 note=47 velocity=63 time=0
EXTRACT: note_on channel=7 note=64 velocity=75 time=0
EXTRACT: note_on channel=7 note=59 velocity=78 time=0
EXTRACT: note_on channel=9 note=36 velocity=104 time=0.0009191166666666666
EXTRACT: note_on channel=3 note=64 velocity=79 time=0.0009191166666666666
EXTRACT: note_on channel=9 note=82 velocity=50 time=0
EXTRACT: note_on channel=1 note=40 velocity=94 time=0.00275735
EXTRACT: note_on channel=9 note=51 velocity=60 time=0.00275735
EXTRACT: note_on channel=9 note=82 velocity=0 time=0.0937499
EXTRACT: note_on channel=9 note=51 velocity=0 time=0.0055147
EXTRACT: note_on channel=9 note=36 velocity=0 time=0.11488958333333332
EXTRACT: note_on channel=9 note=82 velocity=50 time=0.08639696666666666
EXTRACT: note_on channel=9 note=82 velocity=0 time=0.055146999999999995
EXTRACT: note_on channel=3 note=64 velocity=0 time=0.06341904999999999
EXTRACT: note_on channel=7 note=59 velocity=0 time=0.0036764666666666665
EXTRACT: note_on channel=6 note=59 velocity=0 time=0
EXTRACT: note_on channel=6 note=56 velocity=41 time=0.0110294
EXTRACT: note_on channel=7 note=56 velocity=41 time=0
EXTRACT: note_on channel=9 note=82 velocity=50 time=0.0009191166666666666
EXTRACT: note_on channel=9 note=51 velocity=67 time=0.0055147
EXTRACT: note_on channel=6 note=64 velocity=0 time=0.011948516666666666
EXTRACT: note_on channel=7 note=64 velocity=0 time=0
EXTRACT: note_on channel=6 note=64 velocity=41 time=0
EXTRACT: note_on channel=7 note=64 velocity=41 time=0
EXTRACT: note_on channel=9 note=82 velocity=0 time=0.08180138333333332
EXTRACT: note_on channel=9 note=51 velocity=0 time=0.0055147
EXTRACT: note_on channel=6 note=64 velocity=0 time=0.08915431666666666
EXTRACT: note_on channel=7 note=64 velocity=0 time=0
EXTRACT: note_on channel=6 note=64 velocity=56 time=0.025735266666666666
EXTRACT: note_on channel=7 note=64 velocity=56 time=0
EXTRACT: note_on channel=9 note=82 velocity=50 time=0.08731608333333334
EXTRACT: note_on channel=9 note=82 velocity=0 time=0.055146999999999995
EXTRACT: note_on channel=6 note=56 velocity=0 time=0.06341904999999999
EXTRACT: note_on channel=7 note=56 velocity=0 time=0
EXTRACT: note_on channel=6 note=64 velocity=0 time=0.014705866666666666
EXTRACT: note_on channel=7 note=64 velocity=0 time=0
EXTRACT: note_on channel=6 note=56 velocity=53 time=0
EXTRACT: note_on channel=6 note=64 velocity=72 time=0
EXTRACT: note_on channel=7 note=56 velocity=53 time=0
EXTRACT: note_on channel=7 note=64 velocity=72 time=0
EXTRACT: note_on channel=9 note=82 velocity=50 time=0.0018382333333333333
EXTRACT: note_on channel=9 note=51 velocity=57 time=0.0055147
EXTRACT: note_on channel=9 note=82 velocity=0 time=0.09007343333333333
EXTRACT: note_on channel=9 note=51 velocity=0 time=0.0055147
EXTRACT: note_on channel=6 note=64 velocity=0 time=0.09191166666666667
EXTRACT: note_on channel=7 note=64 velocity=0 time=0
EXTRACT: note_on channel=6 note=64 velocity=50 time=0.025735266666666666
EXTRACT: note_on channel=7 note=64 velocity=50 time=0
EXTRACT: note_on channel=9 note=82 velocity=50 time=0.08731608333333334
EXTRACT: note_on channel=9 note=82 velocity=0 time=0.055146999999999995
EXTRACT: note_on channel=7 note=40 velocity=0 time=0.03033085
EXTRACT: note_on channel=6 note=40 velocity=0 time=0
EXTRACT: note_on channel=7 note=56 velocity=0 time=0.0036764666666666665
EXTRACT: note_on channel=6 note=56 velocity=0 time=0
EXTRACT: note_on channel=7 note=64 velocity=0 time=0.0036764666666666665
EXTRACT: note_on channel=6 note=64 velocity=0 time=0
EXTRACT: note_on channel=9 note=82 velocity=50 time=0.03676466666666667
EXTRACT: note_on channel=6 note=64 velocity=75 time=0.0036764666666666665
EXTRACT: note_on channel=6 note=40 velocity=50 time=0
EXTRACT: note_on channel=6 note=59 velocity=77 time=0
EXTRACT: note_on channel=7 note=64 velocity=75 time=0
EXTRACT: note_on channel=7 note=40 velocity=50 time=0
EXTRACT: note_on channel=7 note=59 velocity=77 time=0
EXTRACT: note_on channel=9 note=51 velocity=69 time=0.0018382333333333333
EXTRACT: note_on channel=3 note=68 velocity=79 time=0.0018382333333333333
EXTRACT: note_on channel=9 note=38 velocity=90 time=0
EXTRACT: note_on channel=9 note=82 velocity=0 time=0.09191166666666667
EXTRACT: note_on channel=9 note=51 velocity=0 time=0.0055147
EXTRACT: note_on channel=9 note=38 velocity=0 time=0.0018382333333333333
EXTRACT: note_on channel=9 note=82 velocity=50 time=0.20496301666666666
EXTRACT: note_on channel=9 note=82 velocity=0 time=0.055146999999999995
EXTRACT: note_on channel=6 note=64 velocity=0 time=0.056066116666666665
EXTRACT: note_on channel=7 note=64 velocity=0 time=0
EXTRACT: note_on channel=3 note=68 velocity=0 time=0.013786749999999999
EXTRACT: note_on channel=9 note=82 velocity=50 time=0.0064338166666666665
EXTRACT: note_on channel=9 note=51 velocity=91 time=0.0055147
EXTRACT: note_on channel=6 note=64 velocity=50 time=0.0036764666666666665
EXTRACT: note_on channel=7 note=64 velocity=50 time=0
EXTRACT: note_on channel=3 note=66 velocity=79 time=0.0009191166666666666
EXTRACT: note_on channel=9 note=82 velocity=0 time=0.08915431666666666
EXTRACT: note_on channel=9 note=51 velocity=0 time=0.0055147
EXTRACT: note_on channel=7 note=64 velocity=0 time=0.07720579999999999
EXTRACT: note_on channel=6 note=64 velocity=0 time=0
EXTRACT: note_on channel=6 note=64 velocity=47 time=0.04044113333333333
EXTRACT: note_on channel=7 note=64 velocity=47 time=0
EXTRACT: note_on channel=9 note=82 velocity=50 time=0.08731608333333334
EXTRACT: note_on channel=9 note=38 velocity=90 time=0.0009191166666666666
EXTRACT: note_on channel=9 note=82 velocity=0 time=0.05422788333333333
EXTRACT: note_on channel=7 note=64 velocity=0 time=0.04136025
EXTRACT: note_on channel=6 note=59 velocity=0 time=0
EXTRACT: note_on channel=7 note=59 velocity=0 time=0
EXTRACT: note_on channel=6 note=64 velocity=0 time=0
EXTRACT: note_on channel=9 note=38 velocity=0 time=0.0036764666666666665
EXTRACT: note_on channel=3 note=66 velocity=0 time=0.029411733333333332
EXTRACT: note_on channel=9 note=82 velocity=50 time=0.0009191166666666666
EXTRACT: note_on channel=3 note=64 velocity=79 time=0.0055147
EXTRACT: note_on channel=9 note=51 velocity=76 time=0
EXTRACT: note_on channel=6 note=64 velocity=74 time=0.0045955833333333335
EXTRACT: note_on channel=7 note=64 velocity=74 time=0
EXTRACT: note_on channel=6 note=56 velocity=80 time=0.0036764666666666665
EXTRACT: note_on channel=7 note=56 velocity=80 time=0
EXTRACT: note_on channel=9 note=82 velocity=0 time=0.08547785
EXTRACT: note_on channel=9 note=51 velocity=0 time=0.0055147
EXTRACT: note_on channel=6 note=64 velocity=0 time=0.07812491666666667
EXTRACT: note_on channel=7 note=64 velocity=0 time=0
EXTRACT: note_on channel=6 note=64 velocity=68 time=0.04044113333333333
EXTRACT: note_on channel=7 note=64 velocity=68 time=0
EXTRACT: note_on channel=9 note=82 velocity=50 time=0.08731608333333334
EXTRACT: note_on channel=9 note=82 velocity=0 time=0.055146999999999995
EXTRACT: note_on channel=1 note=40 velocity=0 time=0.0220588
EXTRACT: note_on channel=7 note=40 velocity=0 time=0.0045955833333333335
EXTRACT: note_on channel=6 note=40 velocity=0 time=0
EXTRACT: note_on channel=7 note=56 velocity=0 time=0.018382333333333334
EXTRACT: note_on channel=6 note=56 velocity=0 time=0
EXTRACT: note_on channel=6 note=47 velocity=0 time=0.0036764666666666665
EXTRACT: note_on channel=7 note=47 velocity=0 time=0
EXTRACT: note_on channel=6 note=64 velocity=0 time=0.0036764666666666665
EXTRACT: note_on channel=7 note=64 velocity=0 time=0
EXTRACT: note_on channel=3 note=64 velocity=0 time=0.012867633333333333
EXTRACT: note_on channel=6 note=49 velocity=66 time=0.012867633333333333
EXTRACT: note_on channel=6 note=56 velocity=76 time=0
EXTRACT: note_on channel=6 note=71 velocity=77 time=0
EXTRACT: note_on channel=6 note=61 velocity=68 time=0
EXTRACT: note_on channel=7 note=49 velocity=66 time=0
EXTRACT: note_on channel=7 note=56 velocity=76 time=0
EXTRACT: note_on channel=7 note=71 velocity=77 time=0
EXTRACT: note_on channel=7 note=61 velocity=68 time=0
EXTRACT: note_on channel=9 note=36 velocity=89 time=0.0018382333333333333
EXTRACT: note_on channel=9 note=82 velocity=50 time=0
EXTRACT: note_on channel=3 note=64 velocity=79 time=0.0009191166666666666
EXTRACT: note_on channel=1 note=37 velocity=94 time=0.0018382333333333333
EXTRACT: note_on channel=9 note=51 velocity=83 time=0.00275735
EXTRACT: note_on channel=9 note=82 velocity=0 time=0.0937499
EXTRACT: note_on channel=9 note=51 velocity=0 time=0.0055147
EXTRACT: note_on channel=9 note=36 velocity=0 time=0.1158087
EXTRACT: note_on channel=9 note=82 velocity=50 time=0.08547785
EXTRACT: note_on channel=9 note=82 velocity=0 time=0.055146999999999995
EXTRACT: note_on channel=7 note=71 velocity=0 time=0.06709551666666666
EXTRACT: note_on channel=6 note=71 velocity=0 time=0
EXTRACT: note_on channel=3 note=64 velocity=0 time=0.0018382333333333333
EXTRACT: note_on channel=6 note=71 velocity=42 time=0.009191166666666667
EXTRACT: note_on channel=7 note=71 velocity=42 time=0
EXTRACT: note_on channel=9 note=82 velocity=50 time=0.0045955833333333335
EXTRACT: note_on channel=9 note=51 velocity=73 time=0.0055147
EXTRACT: note_on channel=9 note=82 velocity=0 time=0.09007343333333333
EXTRACT: note_on channel=9 note=51 velocity=0 time=0.0055147
EXTRACT: note_on channel=9 note=82 velocity=50 time=0.20220566666666664
EXTRACT: note_on channel=9 note=82 velocity=0 time=0.055146999999999995
EXTRACT: note_on channel=6 note=56 velocity=0 time=0.04871318333333333
EXTRACT: note_on channel=7 note=56 velocity=0 time=0
EXTRACT: note_on channel=7 note=71 velocity=0 time=0.029411733333333332
EXTRACT: note_on channel=6 note=71 velocity=0 time=0
EXTRACT: note_on channel=6 note=56 velocity=51 time=0
EXTRACT: note_on channel=6 note=71 velocity=51 time=0
EXTRACT: note_on channel=7 note=56 velocity=51 time=0
EXTRACT: note_on channel=7 note=71 velocity=51 time=0
EXTRACT: note_on channel=9 note=82 velocity=50 time=0.0045955833333333335
EXTRACT: note_on channel=7 note=61 velocity=0 time=0.00275735
EXTRACT: note_on channel=6 note=61 velocity=0 time=0
EXTRACT: note_on channel=6 note=61 velocity=46 time=0
EXTRACT: note_on channel=7 note=61 velocity=46 time=0
EXTRACT: note_on channel=9 note=51 velocity=74 time=0.00275735
EXTRACT: note_on channel=9 note=82 velocity=0 time=0.09007343333333333
EXTRACT: note_on channel=9 note=51 velocity=0 time=0.0055147
EXTRACT: note_on channel=6 note=61 velocity=0 time=0.08180138333333332
EXTRACT: note_on channel=7 note=61 velocity=0 time=0
EXTRACT: note_on channel=6 note=61 velocity=51 time=0.0330882
EXTRACT: note_on channel=7 note=61 velocity=51 time=0
EXTRACT: note_on channel=9 note=82 velocity=50 time=0.08731608333333334
EXTRACT: note_on channel=9 note=82 velocity=0 time=0.055146999999999995
EXTRACT: note_on channel=7 note=56 velocity=0 time=0.03033085
EXTRACT: note_on channel=6 note=56 velocity=0 time=0
EXTRACT: note_on channel=6 note=61 velocity=0 time=0.0036764666666666665
EXTRACT: note_on channel=7 note=61 velocity=0 time=0
EXTRACT: note_on channel=7 note=71 velocity=0 time=0.007352933333333333
EXTRACT: note_on channel=6 note=71 velocity=0 time=0
EXTRACT: note_on channel=6 note=56 velocity=61 time=0.03676466666666667
EXTRACT: note_on channel=6 note=71 velocity=76 time=0
EXTRACT: note_on channel=6 note=61 velocity=82 time=0
EXTRACT: note_on channel=7 note=56 velocity=61 time=0
EXTRACT: note_on channel=7 note=71 velocity=76 time=0
EXTRACT: note_on channel=7 note=61 velocity=82 time=0
EXTRACT: note_on channel=3 note=64 velocity=79 time=0.00275735
EXTRACT: note_on channel=9 note=82 velocity=50 time=0.0009191166666666666
EXTRACT: note_on channel=9 note=44 velocity=82 time=0.00275735
EXTRACT: note_on channel=9 note=38 velocity=90 time=0.00275735
EXTRACT: note_on channel=9 note=51 velocity=79 time=0
EXTRACT: note_on channel=9 note=82 velocity=0 time=0.0937499
EXTRACT: note_on channel=9 note=38 velocity=0 time=0.0018382333333333333
EXTRACT: note_on channel=9 note=51 velocity=0 time=0.0036764666666666665
EXTRACT: note_on channel=9 note=44 velocity=0 time=0.11856604999999999
EXTRACT: note_on channel=9 note=82 velocity=50 time=0.08088226666666666
EXTRACT: note_on channel=9 note=82 velocity=0 time=0.055146999999999995
EXTRACT: note_on channel=7 note=71 velocity=0 time=0.03033085
EXTRACT: note_on channel=6 note=71 velocity=0 time=0
EXTRACT: note_on channel=6 note=56 velocity=0 time=0.0036764666666666665
EXTRACT: note_on channel=7 note=56 velocity=0 time=0
EXTRACT: note_on channel=3 note=64 velocity=0 time=0.03492643333333333
EXTRACT: note_on channel=6 note=56 velocity=45 time=0.009191166666666667
EXTRACT: note_on channel=6 note=71 velocity=29 time=0
EXTRACT: note_on channel=7 note=56 velocity=45 time=0
EXTRACT: note_on channel=7 note=71 velocity=29 time=0
EXTRACT: note_on channel=9 note=82 velocity=50 time=0.0018382333333333333
EXTRACT: note_on channel=9 note=51 velocity=59 time=0.0055147
EXTRACT: note_on channel=9 note=82 velocity=0 time=0.09007343333333333
EXTRACT: note_on channel=9 note=51 velocity=0 time=0.0055147
EXTRACT: note_on channel=7 note=61 velocity=0 time=0.07352933333333334
EXTRACT: note_on channel=6 note=61 velocity=0 time=0
EXTRACT: note_on channel=6 note=49 velocity=0 time=0.014705866666666666
EXTRACT: note_on channel=7 note=49 velocity=0 time=0
EXTRACT: note_on channel=6 note=49 velocity=47 time=0.029411733333333332
EXTRACT: note_on channel=6 note=61 velocity=34 time=0
EXTRACT: note_on channel=7 note=49 velocity=47 time=0
EXTRACT: note_on channel=7 note=61 velocity=34 time=0
EXTRACT: note_on channel=9 note=82 velocity=50 time=0.08731608333333334
EXTRACT: note_on channel=9 note=82 velocity=0 time=0.055146999999999995
EXTRACT: note_on channel=7 note=61 velocity=0 time=0.03033085
EXTRACT: note_on channel=6 note=61 velocity=0 time=0
EXTRACT: note_on channel=7 note=56 velocity=0 time=0.007352933333333333
EXTRACT: note_on channel=6 note=56 velocity=0 time=0
EXTRACT: note_on channel=7 note=49 velocity=0 time=0.018382333333333334
EXTRACT: note_on channel=6 note=49 velocity=0 time=0
EXTRACT: note_on channel=7 note=71 velocity=0 time=0.0110294
EXTRACT: note_on channel=6 note=71 velocity=0 time=0
EXTRACT: note_on channel=6 note=49 velocity=31 time=0.0110294
EXTRACT: note_on channel=6 note=56 velocity=37 time=0
EXTRACT: note_on channel=6 note=71 velocity=41 time=0
EXTRACT: note_on channel=6 note=61 velocity=44 time=0
EXTRACT: note_on channel=7 note=49 velocity=31 time=0
EXTRACT: note_on channel=7 note=56 velocity=37 time=0
EXTRACT: note_on channel=7 note=71 velocity=41 time=0
EXTRACT: note_on channel=7 note=61 velocity=44 time=0
EXTRACT: note_on channel=9 note=82 velocity=50 time=0.0018382333333333333
EXTRACT: note_on channel=9 note=51 velocity=74 time=0.0055147
EXTRACT: note_on channel=9 note=82 velocity=0 time=0.09007343333333333
EXTRACT: note_on channel=9 note=51 velocity=0 time=0.0055147
EXTRACT: note_on channel=6 note=61 velocity=0 time=0.0882352
EXTRACT: note_on channel=7 note=61 velocity=0 time=0
EXTRACT: note_on channel=6 note=61 velocity=37 time=0.03676466666666667
EXTRACT: note_on channel=7 note=61 velocity=37 time=0
EXTRACT: note_on channel=9 note=82 velocity=50 time=0.07996315
EXTRACT: note_on channel=9 note=82 velocity=0 time=0.055146999999999995
EXTRACT: note_on channel=1 note=37 velocity=0 time=0.0220588
EXTRACT: note_on channel=6 note=71 velocity=0 time=0.03400731666666666
EXTRACT: note_on channel=7 note=71 velocity=0 time=0
EXTRACT: note_on channel=7 note=49 velocity=0 time=0.0036764666666666665
EXTRACT: note_on channel=6 note=56 velocity=0 time=0
EXTRACT: note_on channel=6 note=61 velocity=0 time=0
EXTRACT: note_on channel=7 note=61 velocity=0 time=0
EXTRACT: note_on channel=7 note=56 velocity=0 time=0
EXTRACT: note_on channel=6 note=49 velocity=0 time=0
EXTRACT: note_on channel=1 note=35 velocity=94 time=0.017463216666666666
EXTRACT: note_on channel=6 note=47 velocity=78 time=0.0009191166666666666
EXTRACT: note_on channel=6 note=42 velocity=63 time=0
EXTRACT: note_on channel=6 note=63 velocity=75 time=0
EXTRACT: note_on channel=6 note=59 velocity=78 time=0
EXTRACT: note_on channel=7 note=47 velocity=78 time=0
EXTRACT: note_on channel=7 note=42 velocity=63 time=0
EXTRACT: note_on channel=7 note=63 velocity=75 time=0
EXTRACT: note_on channel=7 note=59 velocity=78 time=0
EXTRACT: note_on channel=9 note=36 velocity=104 time=0.0009191166666666666
EXTRACT: note_on channel=9 note=82 velocity=50 time=0.0009191166666666666
EXTRACT: note_on channel=9 note=51 velocity=60 time=0.0055147
EXTRACT: note_on channel=3 note=66 velocity=79 time=0.0018382333333333333
EXTRACT: note_on channel=9 note=82 velocity=0 time=0.09191166666666667
EXTRACT: note_on channel=9 note=51 velocity=0 time=0.0055147
EXTRACT: note_on channel=9 note=36 velocity=0 time=0.11488958333333332
EXTRACT: note_on channel=9 note=82 velocity=50 time=0.08639696666666666
EXTRACT: note_on channel=9 note=82 velocity=0 time=0.055146999999999995
EXTRACT: note_on channel=7 note=59 velocity=0 time=0.06709551666666666
EXTRACT: note_on channel=6 note=59 velocity=0 time=0
EXTRACT: note_on channel=3 note=66 velocity=0 time=0.00827205
EXTRACT: note_on channel=6 note=54 velocity=41 time=0.00275735
EXTRACT: note_on channel=7 note=54 velocity=41 time=0
EXTRACT: note_on channel=9 note=82 velocity=50 time=0.0009191166666666666
EXTRACT: note_on channel=9 note=51 velocity=67 time=0.0055147
EXTRACT: note_on channel=7 note=63 velocity=0 time=0.011948516666666666
EXTRACT: note_on channel=6 note=63 velocity=0 time=0
EXTRACT: note_on channel=6 note=63 velocity=41 time=0
EXTRACT: note_on channel=7 note=63 velocity=41 time=0
EXTRACT: note_on channel=9 note=82 velocity=0 time=0.08180138333333332
EXTRACT: note_on channel=9 note=51 velocity=0 time=0.0055147
EXTRACT: note_on channel=6 note=63 velocity=0 time=0.08915431666666666
EXTRACT: note_on channel=7 note=63 velocity=0 time=0
EXTRACT: note_on channel=6 note=63 velocity=56 time=0.025735266666666666
EXTRACT: note_on channel=7 note=63 velocity=56 time=0
EXTRACT: note_on channel=9 note=82 velocity=50 time=0.08731608333333334
EXTRACT: note_on channel=9 note=82 velocity=0 time=0.055146999999999995
EXTRACT: note_on channel=6 note=54 velocity=0 time=0.06341904999999999
EXTRACT: note_on channel=7 note=54 velocity=0 time=0
EXTRACT: note_on channel=6 note=63 velocity=0 time=0.014705866666666666
EXTRACT: note_on channel=7 note=63 velocity=0 time=0
EXTRACT: note_on channel=6 note=54 velocity=53 time=0
EXTRACT: note_on channel=6 note=63 velocity=72 time=0
EXTRACT: note_on channel=7 note=54 velocity=53 time=0
EXTRACT: note_on channel=7 note=63 velocity=72 time=0
EXTRACT: note_on channel=9 note=82 velocity=50 time=0.0018382333333333333
EXTRACT: note_on channel=9 note=51 velocity=57 time=0.0055147
EXTRACT: note_on channel=9 note=82 velocity=0 time=0.09007343333333333
EXTRACT: note_on channel=9 note=51 velocity=0 time=0.0055147
EXTRACT: note_on channel=6 note=63 velocity=0 time=0.09191166666666667
EXTRACT: note_on channel=7 note=63 velocity=0 time=0
EXTRACT: note_on channel=6 note=63 velocity=50 time=0.025735266666666666
EXTRACT: note_on channel=7 note=63 velocity=50 time=0
EXTRACT: note_on channel=3 note=59 velocity=79 time=0.021139683333333333
EXTRACT: note_on channel=9 note=82 velocity=50 time=0.0661764
EXTRACT: note_on channel=9 note=82 velocity=0 time=0.055146999999999995
EXTRACT: note_on channel=6 note=47 velocity=0 time=0.03033085
EXTRACT: note_on channel=7 note=47 velocity=0 time=0
EXTRACT: note_on channel=7 note=54 velocity=0 time=0.0036764666666666665
EXTRACT: note_on channel=6 note=54 velocity=0 time=0
EXTRACT: note_on channel=6 note=63 velocity=0 time=0.0036764666666666665
EXTRACT: note_on channel=7 note=63 velocity=0 time=0
EXTRACT: note_on channel=9 note=82 velocity=50 time=0.03676466666666667
EXTRACT: note_on channel=6 note=63 velocity=75 time=0.0036764666666666665
EXTRACT: note_on channel=6 note=47 velocity=50 time=0
EXTRACT: note_on channel=6 note=59 velocity=77 time=0
EXTRACT: note_on channel=7 note=63 velocity=75 time=0
EXTRACT: note_on channel=7 note=47 velocity=50 time=0
EXTRACT: note_on channel=7 note=59 velocity=77 time=0
EXTRACT: note_on channel=3 note=59 velocity=0 time=0.0009191166666666666
EXTRACT: note_on channel=9 note=51 velocity=69 time=0.0009191166666666666
EXTRACT: note_on channel=9 note=38 velocity=90 time=0.0018382333333333333
EXTRACT: note_on channel=3 note=68 velocity=79 time=0.0110294
EXTRACT: note_on channel=9 note=82 velocity=0 time=0.08088226666666666
EXTRACT: note_on channel=9 note=51 velocity=0 time=0.0055147
EXTRACT: note_on channel=9 note=38 velocity=0 time=0.0018382333333333333
EXTRACT: note_on channel=3 note=68 velocity=0 time=0.11213223333333333
EXTRACT: note_on channel=3 note=68 velocity=79 time=0.017463216666666666
EXTRACT: note_on channel=9 note=82 velocity=50 time=0.07536756666666666
EXTRACT: note_on channel=9 note=82 velocity=0 time=0.055146999999999995
EXTRACT: note_on channel=6 note=63 velocity=0 time=0.056066116666666665
EXTRACT: note_on channel=7 note=63 velocity=0 time=0
EXTRACT: note_on channel=3 note=68 velocity=0 time=0.013786749999999999
EXTRACT: note_on channel=9 note=82 velocity=50 time=0.0064338166666666665
EXTRACT: note_on channel=9 note=51 velocity=91 time=0.0055147
EXTRACT: note_on channel=6 note=63 velocity=50 time=0.0036764666666666665
EXTRACT: note_on channel=7 note=63 velocity=50 time=0
EXTRACT: note_on channel=3 note=66 velocity=79 time=0.0018382333333333333
EXTRACT: note_on channel=9 note=82 velocity=0 time=0.0882352
EXTRACT: note_on channel=9 note=51 velocity=0 time=0.0055147
EXTRACT: note_on channel=7 note=63 velocity=0 time=0.07720579999999999
EXTRACT: note_on channel=6 note=63 velocity=0 time=0
EXTRACT: note_on channel=6 note=63 velocity=47 time=0.04044113333333333
EXTRACT: note_on channel=7 note=63 velocity=47 time=0
EXTRACT: note_on channel=9 note=82 velocity=50 time=0.08731608333333334
EXTRACT: note_on channel=9 note=38 velocity=90 time=0.0009191166666666666
EXTRACT: note_on channel=9 note=82 velocity=0 time=0.05422788333333333
EXTRACT: note_on channel=7 note=63 velocity=0 time=0.04136025
EXTRACT: note_on channel=6 note=63 velocity=0 time=0
EXTRACT: note_on channel=6 note=59 velocity=0 time=0
EXTRACT: note_on channel=7 note=59 velocity=0 time=0
EXTRACT: note_on channel=9 note=38 velocity=0 time=0.0036764666666666665
EXTRACT: note_on channel=1 note=35 velocity=0 time=0.02389703333333333
EXTRACT: note_on channel=3 note=66 velocity=0 time=0.0064338166666666665
EXTRACT: note_on channel=9 note=82 velocity=50 time=0
EXTRACT: note_on channel=9 note=51 velocity=76 time=0.0055147
EXTRACT: note_on channel=3 note=64 velocity=79 time=0.0018382333333333333
EXTRACT: note_on channel=6 note=63 velocity=74 time=0.00275735
EXTRACT: note_on channel=7 note=63 velocity=74 time=0
EXTRACT: note_on channel=1 note=44 velocity=94 time=0.0009191166666666666
EXTRACT: note_on channel=6 note=54 velocity=80 time=0.00275735
EXTRACT: note_on channel=7 note=54 velocity=80 time=0
EXTRACT: note_on channel=9 note=82 velocity=0 time=0.08547785
EXTRACT: note_on channel=9 note=51 velocity=0 time=0.0055147
EXTRACT: note_on channel=7 note=63 velocity=0 time=0.07812491666666667
EXTRACT: note_on channel=6 note=63 velocity=0 time=0
EXTRACT: note_on channel=6 note=63 velocity=68 time=0.04044113333333333
EXTRACT: note_on channel=7 note=63 velocity=68 time=0
EXTRACT: note_on channel=9 note=41 velocity=73 time=0.07996315
EXTRACT: note_on channel=9 note=82 velocity=50 time=0.007352933333333333
EXTRACT: note_on channel=9 note=82 velocity=0 time=0.055146999999999995
EXTRACT: note_on channel=6 note=47 velocity=0 time=0.026654383333333333
EXTRACT: note_on channel=7 note=47 velocity=0 time=0
EXTRACT: note_on channel=9 note=41 velocity=0 time=0.010110283333333333
EXTRACT: note_on channel=6 note=54 velocity=0 time=0.00827205
EXTRACT: note_on channel=7 note=54 velocity=0 time=0
EXTRACT: note_on channel=6 note=42 velocity=0 time=0.0036764666666666665
EXTRACT: note_on channel=7 note=42 velocity=0 time=0
EXTRACT: note_on channel=7 note=63 velocity=0 time=0.0036764666666666665
EXTRACT: note_on channel=6 note=63 velocity=0 time=0
EXTRACT: note_on channel=3 note=64 velocity=0 time=0.0220588
EXTRACT: note_on channel=6 note=45 velocity=67 time=0.0036764666666666665
EXTRACT: note_on channel=6 note=52 velocity=78 time=0
EXTRACT: note_on channel=6 note=64 velocity=82 time=0
EXTRACT: note_on channel=6 note=57 velocity=86 time=0
EXTRACT: note_on channel=7 note=45 velocity=67 time=0
EXTRACT: note_on channel=7 note=52 velocity=78 time=0
EXTRACT: note_on channel=7 note=64 velocity=82 time=0
EXTRACT: note_on channel=7 note=57 velocity=86 time=0
EXTRACT: note_on channel=9 note=36 velocity=89 time=0.0018382333333333333
EXTRACT: note_on channel=9 note=82 velocity=50 time=0
EXTRACT: note_on channel=9 note=51 velocity=83 time=0.0055147
EXTRACT: note_on channel=1 note=45 velocity=94 time=0.0009191166666666666
EXTRACT: note_on channel=3 note=64 velocity=79 time=0.0018382333333333333
EXTRACT: note_on channel=1 note=44 velocity=0 time=0.0036764666666666665
EXTRACT: note_on channel=9 note=82 velocity=0 time=0.08731608333333334
EXTRACT: note_on channel=9 note=51 velocity=0 time=0.0055147
EXTRACT: note_on channel=9 note=36 velocity=0 time=0.1158087
EXTRACT: note_on channel=9 note=82 velocity=50 time=0.08547785
EXTRACT: note_on channel=9 note=82 velocity=0 time=0.055146999999999995
EXTRACT: note_on channel=7 note=52 velocity=0 time=0.03033085
EXTRACT: note_on channel=6 note=52 velocity=0 time=0
EXTRACT: note_on channel=3 note=64 velocity=0 time=0.0441176
EXTRACT: note_on channel=6 note=64 velocity=0 time=0.0036764666666666665
EXTRACT: note_on channel=7 note=64 velocity=0 time=0
EXTRACT: note_on channel=6 note=52 velocity=59 time=0
EXTRACT: note_on channel=6 note=64 velocity=52 time=0
EXTRACT: note_on channel=7 note=52 velocity=59 time=0
EXTRACT: note_on channel=7 note=64 velocity=52 time=0
EXTRACT: note_on channel=9 note=82 velocity=50 time=0.0045955833333333335
EXTRACT: note_on channel=9 note=51 velocity=73 time=0.0055147
EXTRACT: note_on channel=9 note=82 velocity=0 time=0.09007343333333333
EXTRACT: note_on channel=9 note=51 velocity=0 time=0.0055147
EXTRACT: note_on channel=7 note=57 velocity=0 time=0.03768378333333333
EXTRACT: note_on channel=6 note=57 velocity=0 time=0
EXTRACT: note_on channel=6 note=57 velocity=74 time=0.07720579999999999
EXTRACT: note_on channel=7 note=57 velocity=74 time=0
EXTRACT: note_on channel=7 note=64 velocity=0 time=0.0330882
EXTRACT: note_on channel=6 note=64 velocity=0 time=0
EXTRACT: note_on channel=6 note=64 velocity=52 time=0
EXTRACT: note_on channel=7 note=64 velocity=52 time=0
EXTRACT: note_on channel=9 note=82 velocity=50 time=0.05422788333333333
EXTRACT: note_on channel=9 note=82 velocity=0 time=0.055146999999999995
EXTRACT: note_on channel=7 note=45 velocity=0 time=0.06709551666666666
EXTRACT: note_on channel=6 note=45 velocity=0 time=0
EXTRACT: note_on channel=6 note=45 velocity=52 time=0.0110294
EXTRACT: note_on channel=7 note=45 velocity=52 time=0
EXTRACT: note_on channel=9 note=82 velocity=50 time=0.0045955833333333335
EXTRACT: note_on channel=6 note=52 velocity=0 time=0.00275735
EXTRACT: note_on channel=7 note=52 velocity=0 time=0
EXTRACT: note_on channel=6 note=52 velocity=55 time=0
EXTRACT: note_on channel=7 note=52 velocity=55 time=0
EXTRACT: note_on channel=9 note=51 velocity=74 time=0.00275735
EXTRACT: note_on channel=6 note=64 velocity=0 time=0.03400731666666666
EXTRACT: note_on channel=7 note=64 velocity=0 time=0
EXTRACT: note_on channel=6 note=64 velocity=47 time=0
EXTRACT: note_on channel=7 note=64 velocity=47 time=0
EXTRACT: note_on channel=9 note=82 velocity=0 time=0.056066116666666665
EXTRACT: note_on channel=9 note=51 velocity=0 time=0.0055147
EXTRACT: note_on channel=6 note=57 velocity=0 time=0.08547785
EXTRACT: note_on channel=7 note=57 velocity=0 time=0
EXTRACT: note_on channel=6 note=57 velocity=68 time=0.029411733333333332
EXTRACT: note_on channel=7 note=57 velocity=68 time=0
EXTRACT: note_on channel=6 note=64 velocity=0 time=0.014705866666666666
EXTRACT: note_on channel=7 note=64 velocity=0 time=0
EXTRACT: note_on channel=6 note=64 velocity=39 time=0
EXTRACT: note_on channel=7 note=64 velocity=39 time=0
EXTRACT: note_on channel=9 note=82 velocity=50 time=0.07261021666666666
EXTRACT: note_on channel=9 note=82 velocity=0 time=0.055146999999999995
EXTRACT: note_on channel=7 note=45 velocity=0 time=0.022977916666666667
EXTRACT: note_on channel=6 note=45 velocity=0 time=0
EXTRACT: note_on channel=6 note=52 velocity=0 time=0.055146999999999995
EXTRACT: note_on channel=7 note=52 velocity=0 time=0
EXTRACT: note_on channel=6 note=45 velocity=82 time=0
EXTRACT: note_on channel=6 note=52 velocity=81 time=0
EXTRACT: note_on channel=7 note=45 velocity=82 time=0
EXTRACT: note_on channel=7 note=52 velocity=81 time=0
EXTRACT: note_on channel=3 note=64 velocity=79 time=0.0036764666666666665
EXTRACT: note_on channel=9 note=82 velocity=50 time=0
EXTRACT: note_on channel=9 note=44 velocity=82 time=0.00275735
EXTRACT: note_on channel=9 note=38 velocity=90 time=0.00275735
EXTRACT: note_on channel=9 note=51 velocity=79 time=0
EXTRACT: note_on channel=6 note=64 velocity=0 time=0.0018382333333333333
EXTRACT: note_on channel=7 note=64 velocity=0 time=0
EXTRACT: note_on channel=6 note=57 velocity=0 time=0
EXTRACT: note_on channel=7 note=57 velocity=0 time=0
EXTRACT: note_on channel=6 note=64 velocity=73 time=0
EXTRACT: note_on channel=6 note=57 velocity=66 time=0
EXTRACT: note_on channel=7 note=64 velocity=73 time=0
EXTRACT: note_on channel=7 note=57 velocity=66 time=0
EXTRACT: note_on channel=9 note=82 velocity=0 time=0.09191166666666667
EXTRACT: note_on channel=9 note=38 velocity=0 time=0.0018382333333333333
EXTRACT: note_on channel=9 note=51 velocity=0 time=0.0036764666666666665
EXTRACT: note_on channel=9 note=44 velocity=0 time=0.11856604999999999
EXTRACT: note_on channel=9 note=82 velocity=50 time=0.08088226666666666
EXTRACT: note_on channel=9 note=82 velocity=0 time=0.055146999999999995
EXTRACT: note_on channel=3 note=64 velocity=0 time=0.06985286666666667
EXTRACT: note_on channel=9 note=82 velocity=50 time=0.010110283333333333
EXTRACT: note_on channel=9 note=51 velocity=59 time=0.0055147
EXTRACT: note_on channel=6 note=52 velocity=0 time=0.0110294
EXTRACT: note_on channel=7 note=52 velocity=0 time=0
EXTRACT: note_on channel=6 note=52 velocity=48 time=0
EXTRACT: note_on channel=7 note=52 velocity=48 time=0
EXTRACT: note_on channel=6 note=64 velocity=0 time=0.007352933333333333
EXTRACT: note_on channel=7 note=64 velocity=0 time=0
EXTRACT: note_on channel=6 note=64 velocity=41 time=0
EXTRACT: note_on channel=7 note=64 velocity=41 time=0
EXTRACT: note_on channel=9 note=82 velocity=0 time=0.0716911
EXTRACT: note_on channel=9 note=51 velocity=0 time=0.0055147
EXTRACT: note_on channel=6 note=57 velocity=0 time=0.10294106666666666
EXTRACT: note_on channel=7 note=57 velocity=0 time=0
EXTRACT: note_on channel=6 note=57 velocity=51 time=0.014705866666666666
EXTRACT: note_on channel=7 note=57 velocity=51 time=0
EXTRACT: note_on channel=9 note=82 velocity=50 time=0.08731608333333334
EXTRACT: note_on channel=9 note=82 velocity=0 time=0.055146999999999995
EXTRACT: note_on channel=7 note=52 velocity=0 time=0.07444845
EXTRACT: note_on channel=6 note=52 velocity=0 time=0
EXTRACT: note_on channel=6 note=52 velocity=48 time=0.0036764666666666665
EXTRACT: note_on channel=7 note=52 velocity=48 time=0
EXTRACT: note_on channel=9 note=82 velocity=50 time=0.0018382333333333333
EXTRACT: note_on channel=7 note=64 velocity=0 time=0.0055147
EXTRACT: note_on channel=6 note=64 velocity=0 time=0
EXTRACT: note_on channel=6 note=64 velocity=44 time=0
EXTRACT: note_on channel=7 note=64 velocity=44 time=0
EXTRACT: note_on channel=9 note=51 velocity=74 time=0
EXTRACT: note_on channel=9 note=82 velocity=0 time=0.09007343333333333
EXTRACT: note_on channel=9 note=51 velocity=0 time=0.0055147
EXTRACT: note_on channel=7 note=57 velocity=0 time=0.0882352
EXTRACT: note_on channel=6 note=57 velocity=0 time=0
EXTRACT: note_on channel=6 note=57 velocity=71 time=0.029411733333333332
EXTRACT: note_on channel=7 note=57 velocity=71 time=0
EXTRACT: note_on channel=6 note=64 velocity=0 time=0.0036764666666666665
EXTRACT: note_on channel=7 note=64 velocity=0 time=0
EXTRACT: note_on channel=6 note=64 velocity=45 time=0
EXTRACT: note_on channel=7 note=64 velocity=45 time=0
EXTRACT: note_on channel=9 note=82 velocity=50 time=0.08363961666666667
EXTRACT: note_on channel=9 note=82 velocity=0 time=0.055146999999999995
EXTRACT: note_on channel=1 note=45 velocity=0 time=0.025735266666666666
EXTRACT: note_on channel=6 note=45 velocity=0 time=0.03033085
EXTRACT: note_on channel=7 note=45 velocity=0 time=0
EXTRACT: note_on channel=6 note=57 velocity=0 time=0.0036764666666666665
EXTRACT: note_on channel=7 note=52 velocity=0 time=0
EXTRACT: note_on channel=7 note=64 velocity=0 time=0
EXTRACT: note_on channel=6 note=64 velocity=0 time=0
EXTRACT: note_on channel=7 note=57 velocity=0 time=0
EXTRACT: note_on channel=6 note=52 velocity=0 time=0
EXTRACT: note_on channel=1 note=40 velocity=94 time=0.015624983333333333
EXTRACT: note_on channel=6 note=52 velocity=78 time=0.00275735
EXTRACT: note_on channel=6 note=47 velocity=63 time=0
EXTRACT: note_on channel=6 note=64 velocity=75 time=0
EXTRACT: note_on channel=6 note=59 velocity=78 time=0
EXTRACT: note_on channel=7 note=52 velocity=78 time=0
EXTRACT: note_on channel=7 note=47 velocity=63 time=0
EXTRACT: note_on channel=7 note=64 velocity=75 time=0
EXTRACT: note_on channel=7 note=59 velocity=78 time=0
EXTRACT: note_on channel=9 note=36 velocity=104 time=0.0009191166666666666
EXTRACT: note_on channel=9 note=82 velocity=50 time=0.0009191166666666666
EXTRACT: note_on channel=3 note=64 velocity=79 time=0.00275735
EXTRACT: note_on channel=9 note=51 velocity=60 time=0.00275735
EXTRACT: note_on channel=9 note=82 velocity=0 time=0.0937499
EXTRACT: note_on channel=9 note=51 velocity=0 time=0.0055147
EXTRACT: note_on channel=9 note=36 velocity=0 time=0.11488958333333332
EXTRACT: note_on channel=9 note=82 velocity=50 time=0.08639696666666666
EXTRACT: note_on channel=9 note=82 velocity=0 time=0.055146999999999995
EXTRACT: note_on channel=7 note=59 velocity=0 time=0.06709551666666666
EXTRACT: note_on channel=6 note=59 velocity=0 time=0
EXTRACT: note_on channel=3 note=64 velocity=0 time=0.0036764666666666665
EXTRACT: note_on channel=6 note=59 velocity=41 time=0.007352933333333333
EXTRACT: note_on channel=7 note=59 velocity=41 time=0
EXTRACT: note_on channel=9 note=82 velocity=50 time=0.0009191166666666666
EXTRACT: note_on channel=9 note=51 velocity=67 time=0.0055147
EXTRACT: note_on channel=7 note=64 velocity=0 time=0.011948516666666666
EXTRACT: note_on channel=6 note=64 velocity=0 time=0
EXTRACT: note_on channel=6 note=64 velocity=41 time=0
EXTRACT: note_on channel=7 note=64 velocity=41 time=0
EXTRACT: note_on channel=9 note=82 velocity=0 time=0.08180138333333332
EXTRACT: note_on channel=9 note=51 velocity=0 time=0.0055147
EXTRACT: note_on channel=6 note=64 velocity=0 time=0.08915431666666666
EXTRACT: note_on channel=7 note=64 velocity=0 time=0
EXTRACT: note_on channel=6 note=64 velocity=56 time=0.025735266666666666
EXTRACT: note_on channel=7 note=64 velocity=56 time=0
EXTRACT: note_on channel=9 note=82 velocity=50 time=0.08731608333333334
EXTRACT: note_on channel=9 note=82 velocity=0 time=0.055146999999999995
EXTRACT: note_on channel=6 note=59 velocity=0 time=0.06341904999999999
EXTRACT: note_on channel=7 note=59 velocity=0 time=0
EXTRACT: note_on channel=6 note=64 velocity=0 time=0.014705866666666666
EXTRACT: note_on channel=7 note=64 velocity=0 time=0
EXTRACT: note_on channel=6 note=59 velocity=53 time=0
EXTRACT: note_on channel=6 note=64 velocity=72 time=0
EXTRACT: note_on channel=7 note=59 velocity=53 time=0
EXTRACT: note_on channel=7 note=64 velocity=72 time=0
EXTRACT: note_on channel=9 note=82 velocity=50 time=0.0018382333333333333
EXTRACT: note_on channel=9 note=51 velocity=57 time=0.0055147
EXTRACT: note_on channel=9 note=82 velocity=0 time=0.09007343333333333
EXTRACT: note_on channel=9 note=51 velocity=0 time=0.0055147
EXTRACT: note_on channel=6 note=64 velocity=0 time=0.09191166666666667
EXTRACT: note_on channel=7 note=64 velocity=0 time=0
EXTRACT: note_on channel=6 note=64 velocity=50 time=0.025735266666666666
EXTRACT: note_on channel=7 note=64 velocity=50 time=0
EXTRACT: note_on channel=9 note=82 velocity=50 time=0.08731608333333334
EXTRACT: note_on channel=9 note=82 velocity=0 time=0.055146999999999995
EXTRACT: note_on channel=6 note=52 velocity=0 time=0.03033085
EXTRACT: note_on channel=7 note=52 velocity=0 time=0
EXTRACT: note_on channel=7 note=59 velocity=0 time=0.0036764666666666665
EXTRACT: note_on channel=6 note=59 velocity=0 time=0
EXTRACT: note_on channel=7 note=64 velocity=0 time=0.0036764666666666665
EXTRACT: note_on channel=6 note=64 velocity=0 time=0
EXTRACT: note_on channel=9 note=82 velocity=50 time=0.03676466666666667
EXTRACT: note_on channel=6 note=64 velocity=75 time=0.0036764666666666665
EXTRACT: note_on channel=6 note=52 velocity=50 time=0
EXTRACT: note_on channel=6 note=59 velocity=77 time=0
EXTRACT: note_on channel=7 note=64 velocity=75 time=0
EXTRACT: note_on channel=7 note=52 velocity=50 time=0
EXTRACT: note_on channel=7 note=59 velocity=77 time=0
EXTRACT: note_on channel=9 note=51 velocity=69 time=0.0018382333333333333
EXTRACT: note_on channel=9 note=38 velocity=90 time=0.0018382333333333333
EXTRACT: note_on channel=3 note=64 velocity=79 time=0.0064338166666666665
EXTRACT: note_on channel=9 note=82 velocity=0 time=0.08547785
EXTRACT: note_on channel=9 note=51 velocity=0 time=0.0055147
EXTRACT: note_on channel=9 note=38 velocity=0 time=0.0018382333333333333
EXTRACT: note_on channel=9 note=82 velocity=50 time=0.20496301666666666
EXTRACT: note_on channel=9 note=82 velocity=0 time=0.055146999999999995
EXTRACT: note_on channel=6 note=64 velocity=0 time=0.056066116666666665
EXTRACT: note_on channel=7 note=64 velocity=0 time=0
EXTRACT: note_on channel=3 note=64 velocity=0 time=0.018382333333333334
EXTRACT: note_on channel=9 note=82 velocity=50 time=0.0018382333333333333
EXTRACT: note_on channel=9 note=51 velocity=91 time=0.0055147
EXTRACT: note_on channel=6 note=64 velocity=50 time=0.0036764666666666665
EXTRACT: note_on channel=7 note=64 velocity=50 time=0
EXTRACT: note_on channel=3 note=64 velocity=79 time=0.00827205
EXTRACT: note_on channel=9 note=82 velocity=0 time=0.08180138333333332
EXTRACT: note_on channel=9 note=51 velocity=0 time=0.0055147
EXTRACT: note_on channel=7 note=64 velocity=0 time=0.07720579999999999
EXTRACT: note_on channel=6 note=64 velocity=0 time=0
EXTRACT: note_on channel=6 note=64 velocity=47 time=0.04044113333333333
EXTRACT: note_on channel=7 note=64 velocity=47 time=0
EXTRACT: note_on channel=9 note=82 velocity=50 time=0.08731608333333334
EXTRACT: note_on channel=9 note=38 velocity=90 time=0.0009191166666666666
EXTRACT: note_on channel=9 note=82 velocity=0 time=0.05422788333333333
EXTRACT: note_on channel=7 note=64 velocity=0 time=0.04136025
EXTRACT: note_on channel=6 note=59 velocity=0 time=0
EXTRACT: note_on channel=7 note=59 velocity=0 time=0
EXTRACT: note_on channel=6 note=64 velocity=0 time=0
EXTRACT: note_on channel=9 note=38 velocity=0 time=0.0036764666666666665
EXTRACT: note_on channel=9 note=82 velocity=50 time=0.03033085
EXTRACT: note_on channel=9 note=51 velocity=76 time=0.0055147
EXTRACT: note_on channel=3 note=64 velocity=0 time=0.0009191166666666666
EXTRACT: note_on channel=3 note=66 velocity=79 time=0.0009191166666666666
EXTRACT: note_on channel=6 note=64 velocity=74 time=0.00275735
EXTRACT: note_on channel=7 note=64 velocity=74 time=0
EXTRACT: note_on channel=6 note=59 velocity=80 time=0.0036764666666666665
EXTRACT: note_on channel=7 note=59 velocity=80 time=0
EXTRACT: note_on channel=9 note=82 velocity=0 time=0.08547785
EXTRACT: note_on channel=9 note=51 velocity=0 time=0.0055147
EXTRACT: note_on channel=6 note=64 velocity=0 time=0.07812491666666667
EXTRACT: note_on channel=7 note=64 velocity=0 time=0
EXTRACT: note_on channel=6 note=64 velocity=68 time=0.04044113333333333
EXTRACT: note_on channel=7 note=64 velocity=68 time=0
EXTRACT: note_on channel=3 note=66 velocity=0 time=0.0018382333333333333
EXTRACT: note_on channel=3 note=66 velocity=79 time=0.00827205
EXTRACT: note_on channel=9 note=82 velocity=50 time=0.07720579999999999
EXTRACT: note_on channel=9 note=82 velocity=0 time=0.055146999999999995
EXTRACT: note_on channel=1 note=40 velocity=0 time=0.014705866666666666
EXTRACT: note_on channel=7 note=52 velocity=0 time=0.011948516666666666
EXTRACT: note_on channel=6 note=52 velocity=0 time=0
EXTRACT: note_on channel=6 note=59 velocity=0 time=0.018382333333333334
EXTRACT: note_on channel=7 note=59 velocity=0 time=0
EXTRACT: note_on channel=7 note=47 velocity=0 time=0.0036764666666666665
EXTRACT: note_on channel=6 note=47 velocity=0 time=0
EXTRACT: note_on channel=7 note=64 velocity=0 time=0.0036764666666666665
EXTRACT: note_on channel=6 note=64 velocity=0 time=0
EXTRACT: note_on channel=6 note=47 velocity=67 time=0.025735266666666666
EXTRACT: note_on channel=6 note=54 velocity=78 time=0
EXTRACT: note_on channel=6 note=66 velocity=82 time=0
EXTRACT: note_on channel=6 note=61 velocity=86 time=0
EXTRACT: note_on channel=7 note=47 velocity=67 time=0
EXTRACT: note_on channel=7 note=54 velocity=78 time=0
EXTRACT: note_on channel=7 note=66 velocity=82 time=0
EXTRACT: note_on channel=7 note=61 velocity=86 time=0
EXTRACT: note_on channel=9 note=36 velocity=89 time=0.0018382333333333333
EXTRACT: note_on channel=9 note=82 velocity=50 time=0
EXTRACT: note_on channel=9 note=51 velocity=83 time=0.0055147
EXTRACT: note_on channel=1 note=47 velocity=94 time=0.0009191166666666666
EXTRACT: note_on channel=9 note=82 velocity=0 time=0.09283078333333333
EXTRACT: note_on channel=9 note=51 velocity=0 time=0.0055147
EXTRACT: note_on channel=9 note=36 velocity=0 time=0.1158087
EXTRACT: note_on channel=9 note=82 velocity=50 time=0.08547785
EXTRACT: note_on channel=9 note=82 velocity=0 time=0.055146999999999995
EXTRACT: note_on channel=7 note=54 velocity=0 time=0.03033085
EXTRACT: note_on channel=6 note=54 velocity=0 time=0
EXTRACT: note_on channel=7 note=66 velocity=0 time=0.04779406666666666
EXTRACT: note_on channel=6 note=66 velocity=0 time=0
EXTRACT: note_on channel=6 note=54 velocity=59 time=0
EXTRACT: note_on channel=6 note=66 velocity=52 time=0
EXTRACT: note_on channel=7 note=54 velocity=59 time=0
EXTRACT: note_on channel=7 note=66 velocity=52 time=0
EXTRACT: note_on channel=3 note=59 velocity=79 time=0.0009191166666666666
EXTRACT: note_on channel=3 note=66 velocity=0 time=0.0009191166666666666
EXTRACT: note_on channel=9 note=82 velocity=50 time=0.00275735
EXTRACT: note_on channel=9 note=51 velocity=73 time=0.0055147
EXTRACT: note_on channel=9 note=82 velocity=0 time=0.09007343333333333
EXTRACT: note_on channel=9 note=51 velocity=0 time=0.0055147
EXTRACT: note_on channel=7 note=61 velocity=0 time=0.03768378333333333
EXTRACT: note_on channel=6 note=61 velocity=0 time=0
EXTRACT: note_on channel=6 note=61 velocity=74 time=0.07720579999999999
EXTRACT: note_on channel=7 note=61 velocity=74 time=0
EXTRACT: note_on channel=7 note=66 velocity=0 time=0.0330882
EXTRACT: note_on channel=6 note=66 velocity=0 time=0
EXTRACT: note_on channel=6 note=66 velocity=52 time=0
EXTRACT: note_on channel=7 note=66 velocity=52 time=0
EXTRACT: note_on channel=9 note=82 velocity=50 time=0.05422788333333333
EXTRACT: note_on channel=9 note=82 velocity=0 time=0.055146999999999995
EXTRACT: note_on channel=3 note=59 velocity=0 time=0.06709551666666666
EXTRACT: note_on channel=6 note=47 velocity=0 time=0
EXTRACT: note_on channel=7 note=47 velocity=0 time=0
EXTRACT: note_on channel=6 note=47 velocity=52 time=0.0110294
EXTRACT: note_on channel=7 note=47 velocity=52 time=0
EXTRACT: note_on channel=9 note=82 velocity=50 time=0.0045955833333333335
EXTRACT: note_on channel=7 note=54 velocity=0 time=0.00275735
EXTRACT: note_on channel=6 note=54 velocity=0 time=0
EXTRACT: note_on channel=6 note=54 velocity=55 time=0
EXTRACT: note_on channel=7 note=54 velocity=55 time=0
EXTRACT: note_on channel=9 note=51 velocity=74 time=0.00275735
EXTRACT: note_on channel=6 note=66 velocity=0 time=0.03400731666666666
EXTRACT: note_on channel=7 note=66 velocity=0 time=0
EXTRACT: note_on channel=6 note=66 velocity=47 time=0
EXTRACT: note_on channel=7 note=66 velocity=47 time=0
EXTRACT: note_on channel=9 note=82 velocity=0 time=0.056066116666666665
EXTRACT: note_on channel=9 note=51 velocity=0 time=0.0055147
EXTRACT: note_on channel=7 note=61 velocity=0 time=0.08547785
EXTRACT: note_on channel=6 note=61 velocity=0 time=0
EXTRACT: note_on channel=6 note=61 velocity=68 time=0.029411733333333332
EXTRACT: note_on channel=7 note=61 velocity=68 time=0
EXTRACT: note_on channel=6 note=66 velocity=0 time=0.014705866666666666
EXTRACT: note_on channel=7 note=66 velocity=0 time=0
EXTRACT: note_on channel=6 note=66 velocity=39 time=0
EXTRACT: note_on channel=7 note=66 velocity=39 time=0
EXTRACT: note_on channel=9 note=82 velocity=50 time=0.07261021666666666
EXTRACT: note_on channel=9 note=82 velocity=0 time=0.055146999999999995
EXTRACT: note_on channel=7 note=47 velocity=0 time=0.022977916666666667
EXTRACT: note_on channel=6 note=47 velocity=0 time=0
EXTRACT: note_on channel=6 note=54 velocity=0 time=0.055146999999999995
EXTRACT: note_on channel=7 note=54 velocity=0 time=0
EXTRACT: note_on channel=6 note=47 velocity=82 time=0
EXTRACT: note_on channel=6 note=54 velocity=81 time=0
EXTRACT: note_on channel=7 note=47 velocity=82 time=0
EXTRACT: note_on channel=7 note=54 velocity=81 time=0
EXTRACT: note_on channel=9 note=82 velocity=50 time=0.0036764666666666665
EXTRACT: note_on channel=1 note=47 velocity=0 time=0.0018382333333333333
EXTRACT: note_on channel=9 note=44 velocity=82 time=0.0009191166666666666
EXTRACT: note_on channel=9 note=38 velocity=90 time=0.00275735
EXTRACT: note_on channel=9 note=51 velocity=79 time=0
EXTRACT: note_on channel=6 note=66 velocity=0 time=0.0018382333333333333
EXTRACT: note_on channel=7 note=66 velocity=0 time=0
EXTRACT: note_on channel=6 note=61 velocity=0 time=0
EXTRACT: note_on channel=7 note=61 velocity=0 time=0
EXTRACT: note_on channel=1 note=42 velocity=94 time=0
EXTRACT: note_on channel=6 note=66 velocity=73 time=0
EXTRACT: note_on channel=6 note=61 velocity=66 time=0
EXTRACT: note_on channel=7 note=66 velocity=73 time=0
EXTRACT: note_on channel=7 note=61 velocity=66 time=0
EXTRACT: note_on channel=9 note=82 velocity=0 time=0.09191166666666667
EXTRACT: note_on channel=9 note=38 velocity=0 time=0.0018382333333333333
EXTRACT: note_on channel=9 note=51 velocity=0 time=0.0036764666666666665
EXTRACT: note_on channel=9 note=44 velocity=0 time=0.11856604999999999
EXTRACT: note_on channel=9 note=82 velocity=50 time=0.08088226666666666
EXTRACT: note_on channel=9 note=82 velocity=0 time=0.055146999999999995
EXTRACT: note_on channel=9 note=82 velocity=50 time=0.07996315
EXTRACT: note_on channel=9 note=51 velocity=59 time=0.0055147
EXTRACT: note_on channel=7 note=54 velocity=0 time=0.0110294
EXTRACT: note_on channel=6 note=54 velocity=0 time=0
EXTRACT: note_on channel=6 note=54 velocity=48 time=0
EXTRACT: note_on channel=7 note=54 velocity=48 time=0
EXTRACT: note_on channel=6 note=66 velocity=0 time=0.007352933333333333
EXTRACT: note_on channel=7 note=66 velocity=0 time=0
EXTRACT: note_on channel=6 note=66 velocity=41 time=0
EXTRACT: note_on channel=7 note=66 velocity=41 time=0
EXTRACT: note_on channel=9 note=82 velocity=0 time=0.0716911
EXTRACT: note_on channel=9 note=51 velocity=0 time=0.0055147
EXTRACT: note_on channel=7 note=61 velocity=0 time=0.10294106666666666
EXTRACT: note_on channel=6 note=61 velocity=0 time=0
EXTRACT: note_on channel=6 note=61 velocity=51 time=0.014705866666666666
EXTRACT: note_on channel=7 note=61 velocity=51 time=0
EXTRACT: note_on channel=9 note=82 velocity=50 time=0.08731608333333334
EXTRACT: note_on channel=9 note=82 velocity=0 time=0.055146999999999995
EXTRACT: note_on channel=7 note=54 velocity=0 time=0.07444845
EXTRACT: note_on channel=6 note=54 velocity=0 time=0
EXTRACT: note_on channel=6 note=54 velocity=48 time=0.0036764666666666665
EXTRACT: note_on channel=7 note=54 velocity=48 time=0
EXTRACT: note_on channel=9 note=82 velocity=50 time=0.0018382333333333333
EXTRACT: note_on channel=6 note=66 velocity=0 time=0.0055147
EXTRACT: note_on channel=7 note=66 velocity=0 time=0
EXTRACT: note_on channel=6 note=66 velocity=44 time=0
EXTRACT: note_on channel=7 note=66 velocity=44 time=0
EXTRACT: note_on channel=9 note=51 velocity=74 time=0
EXTRACT: note_on channel=9 note=82 velocity=0 time=0.09007343333333333
EXTRACT: note_on channel=9 note=51 velocity=0 time=0.0055147
EXTRACT: note_on channel=7 note=61 velocity=0 time=0.0882352
EXTRACT: note_on channel=6 note=61 velocity=0 time=0
EXTRACT: note_on channel=6 note=61 velocity=71 time=0.029411733333333332
EXTRACT: note_on channel=7 note=61 velocity=71 time=0
EXTRACT: note_on channel=6 note=66 velocity=0 time=0.0036764666666666665
EXTRACT: note_on channel=7 note=66 velocity=0 time=0
EXTRACT: note_on channel=6 note=66 velocity=45 time=0
EXTRACT: note_on channel=7 note=66 velocity=45 time=0
EXTRACT: note_on channel=9 note=82 velocity=50 time=0.08363961666666667
EXTRACT: note_on channel=9 note=82 velocity=0 time=0.055146999999999995
EXTRACT: note_on channel=6 note=47 velocity=0 time=0.056066116666666665
EXTRACT: note_on channel=7 note=47 velocity=0 time=0
EXTRACT: note_on channel=7 note=61 velocity=0 time=0.0036764666666666665
EXTRACT: note_on channel=7 note=54 velocity=0 time=0
EXTRACT: note_on channel=6 note=54 velocity=0 time=0
EXTRACT: note_on channel=7 note=66 velocity=0 time=0
EXTRACT: note_on channel=6 note=66 velocity=0 time=0
EXTRACT: note_on channel=6 note=61 velocity=0 time=0
EXTRACT: note_on channel=6 note=47 velocity=88 time=0.018382333333333334
EXTRACT: note_on channel=6 note=42 velocity=73 time=0
EXTRACT: note_on channel=6 note=59 velocity=85 time=0
EXTRACT: note_on channel=6 note=54 velocity=88 time=0
EXTRACT: note_on channel=7 note=47 velocity=88 time=0
EXTRACT: note_on channel=7 note=42 velocity=73 time=0
EXTRACT: note_on channel=7 note=59 velocity=85 time=0
EXTRACT: note_on channel=7 note=54 velocity=88 time=0
EXTRACT: note_on channel=9 note=36 velocity=104 time=0.0009191166666666666
EXTRACT: note_on channel=9 note=82 velocity=50 time=0.0009191166666666666
EXTRACT: note_on channel=9 note=51 velocity=60 time=0.0055147
EXTRACT: note_on channel=1 note=42 velocity=0 time=0.0009191166666666666
EXTRACT: note_on channel=1 note=35 velocity=94 time=0.00275735
EXTRACT: note_on channel=9 note=82 velocity=0 time=0.09007343333333333
EXTRACT: note_on channel=9 note=51 velocity=0 time=0.0055147
EXTRACT: note_on channel=9 note=36 velocity=0 time=0.11488958333333332
EXTRACT: note_on channel=3 note=56 velocity=100 time=1.1075355833333334
EXTRACT: note_on channel=3 note=54 velocity=100 time=0.4301466
EXTRACT: note_on channel=3 note=56 velocity=0 time=0.0110294
EXTRACT: note_on channel=3 note=54 velocity=0 time=0.4301466
EXTRACT: note_on channel=3 note=52 velocity=100 time=0.0055147
EXTRACT: note_on channel=6 note=42 velocity=0 time=0.3676466666666667
EXTRACT: note_on channel=7 note=54 velocity=0 time=0
EXTRACT: note_on channel=6 note=54 velocity=0 time=0
EXTRACT: note_on channel=7 note=59 velocity=0 time=0
EXTRACT: note_on channel=7 note=47 velocity=0 time=0
EXTRACT: note_on channel=6 note=47 velocity=0 time=0
EXTRACT: note_on channel=6 note=59 velocity=0 time=0
EXTRACT: note_on channel=7 note=42 velocity=0 time=0
EXTRACT: note_on channel=1 note=35 velocity=0 time=0.02389703333333333
EXTRACT: note_on channel=3 note=52 velocity=0 time=0.038602899999999996
EXTRACT: note_on channel=3 note=52 velocity=100 time=0.0055147
EXTRACT: note_on channel=7 note=45 velocity=66 time=0
EXTRACT: note_on channel=1 note=33 velocity=94 time=0.0045955833333333335
EXTRACT: note_on channel=7 note=52 velocity=76 time=0.07904403333333333
EXTRACT: note_on channel=7 note=57 velocity=68 time=0.038602899999999996
EXTRACT: note_on channel=7 note=68 velocity=77 time=0.045036716666666664
EXTRACT: note_on channel=3 note=52 velocity=0 time=0.25551443333333335
EXTRACT: note_on channel=1 note=33 velocity=0 time=0.00827205
EXTRACT: note_on channel=1 note=33 velocity=94 time=0.0055147
EXTRACT: note_on channel=1 note=33 velocity=0 time=0.42647013333333333
EXTRACT: note_on channel=1 note=33 velocity=94 time=0.020220566666666665
EXTRACT: note_on channel=1 note=33 velocity=0 time=0.42647013333333333
EXTRACT: note_on channel=1 note=33 velocity=94 time=0.009191166666666667
EXTRACT: note_on channel=3 note=52 velocity=100 time=0.007352933333333333
EXTRACT: note_on channel=1 note=33 velocity=0 time=0.41911719999999997
EXTRACT: note_on channel=3 note=52 velocity=0 time=0.0110294
EXTRACT: note_on channel=1 note=33 velocity=94 time=0.015624983333333333
EXTRACT: note_on channel=1 note=33 velocity=0 time=0.42647013333333333
EXTRACT: note_on channel=1 note=33 velocity=94 time=0.014705866666666666
EXTRACT: note_on channel=1 note=33 velocity=0 time=0.42647013333333333
EXTRACT: note_on channel=7 note=40 velocity=78 time=0.007352933333333333
EXTRACT: note_on channel=7 note=68 velocity=0 time=0.0018382333333333333
EXTRACT: note_on channel=3 note=52 velocity=100 time=0.0009191166666666666
EXTRACT: note_on channel=1 note=40 velocity=94 time=0.0018382333333333333
EXTRACT: note_on channel=7 note=57 velocity=0 time=0.00275735
EXTRACT: note_on channel=7 note=45 velocity=0 time=0
EXTRACT: note_on channel=7 note=52 velocity=0 time=0
EXTRACT: note_on channel=7 note=47 velocity=63 time=0.1158087
EXTRACT: note_on channel=7 note=59 velocity=78 time=0.039522016666666666
EXTRACT: note_on channel=7 note=64 velocity=75 time=0.06525728333333333
EXTRACT: note_on channel=3 note=52 velocity=0 time=0.20496301666666666
EXTRACT: note_on channel=1 note=40 velocity=0 time=0.0064338166666666665
EXTRACT: note_on channel=7 note=56 velocity=41 time=0.0018382333333333333
EXTRACT: note_on channel=1 note=40 velocity=94 time=0.0036764666666666665
EXTRACT: note_on channel=7 note=56 velocity=0 time=0.4227936666666666
EXTRACT: note_on channel=1 note=40 velocity=0 time=0.011948516666666666
EXTRACT: note_on channel=1 note=40 velocity=94 time=0.007352933333333333
EXTRACT: note_on channel=1 note=40 velocity=0 time=0.4347421833333333
EXTRACT: note_on channel=3 note=54 velocity=100 time=0.0036764666666666665
EXTRACT: note_on channel=1 note=40 velocity=94 time=0.0018382333333333333
EXTRACT: note_on channel=3 note=54 velocity=0 time=0.21047771666666665
EXTRACT: note_on channel=3 note=56 velocity=100 time=0.0055147
EXTRACT: note_on channel=3 note=56 velocity=0 time=0.21231595
EXTRACT: note_on channel=1 note=40 velocity=0 time=0.0064338166666666665
EXTRACT: note_on channel=3 note=54 velocity=100 time=0.0045955833333333335
EXTRACT: note_on channel=1 note=40 velocity=94 time=0.0018382333333333333
EXTRACT: note_on channel=3 note=54 velocity=0 time=0.21047771666666665
EXTRACT: note_on channel=3 note=52 velocity=100 time=0.22334535
EXTRACT: note_on channel=1 note=40 velocity=0 time=0.0009191166666666666
EXTRACT: note_on channel=1 note=40 velocity=94 time=0.0064338166666666665
EXTRACT: note_on channel=3 note=52 velocity=0 time=0.20496301666666666
EXTRACT: note_on channel=1 note=40 velocity=0 time=0.22977916666666665
EXTRACT: note_on channel=7 note=49 velocity=66 time=0.00275735
EXTRACT: note_on channel=3 note=52 velocity=100 time=0.0018382333333333333
EXTRACT: note_on channel=7 note=59 velocity=0 time=0.0009191166666666666
EXTRACT: note_on channel=1 note=37 velocity=94 time=0.0018382333333333333
EXTRACT: note_on channel=7 note=40 velocity=0 time=0.0036764666666666665
EXTRACT: note_on channel=7 note=64 velocity=0 time=0
EXTRACT: note_on channel=7 note=47 velocity=0 time=0.0055147
EXTRACT: note_on channel=7 note=56 velocity=76 time=0.058823466666666664
EXTRACT: note_on channel=7 note=61 velocity=68 time=0.07261021666666666
EXTRACT: note_on channel=7 note=71 velocity=77 time=0.11213223333333333
EXTRACT: note_on channel=1 note=37 velocity=0 time=0.17279393333333332
EXTRACT: note_on channel=3 note=52 velocity=0 time=0.0018382333333333333
EXTRACT: note_on channel=1 note=37 velocity=94 time=0.020220566666666665
EXTRACT: note_on channel=1 note=37 velocity=0 time=0.42555101666666667
EXTRACT: note_on channel=1 note=37 velocity=94 time=0.015624983333333333
EXTRACT: note_on channel=1 note=37 velocity=0 time=0.42555101666666667
EXTRACT: note_on channel=3 note=52 velocity=100 time=0.0064338166666666665
EXTRACT: note_on channel=1 note=37 velocity=94 time=0.009191166666666667
EXTRACT: note_on channel=3 note=52 velocity=0 time=0.4209554333333333
EXTRACT: note_on channel=1 note=37 velocity=0 time=0.0045955833333333335
EXTRACT: note_on channel=1 note=37 velocity=94 time=0.015624983333333333
EXTRACT: note_on channel=1 note=37 velocity=0 time=0.42555101666666667
EXTRACT: note_on channel=1 note=37 velocity=94 time=0.015624983333333333
EXTRACT: note_on channel=1 note=37 velocity=0 time=0.42555101666666667
EXTRACT: note_on channel=7 note=49 velocity=0 time=0.00275735
EXTRACT: note_on channel=1 note=35 velocity=94 time=0.0009191166666666666
EXTRACT: note_on channel=7 note=42 velocity=63 time=0.0009191166666666666
EXTRACT: note_on channel=7 note=56 velocity=0 time=0.0036764666666666665
EXTRACT: note_on channel=7 note=61 velocity=0 time=0
EXTRACT: note_on channel=3 note=54 velocity=100 time=0
EXTRACT: note_on channel=7 note=71 velocity=0 time=0.0055147
EXTRACT: note_on channel=7 note=47 velocity=78 time=0.10294106666666666
EXTRACT: note_on channel=7 note=59 velocity=78 time=0.08363961666666667
EXTRACT: note_on channel=7 note=63 velocity=75 time=0.09466901666666666
EXTRACT: note_on channel=1 note=35 velocity=0 time=0.13970573333333333
EXTRACT: note_on channel=3 note=54 velocity=0 time=0.0036764666666666665
EXTRACT: note_on channel=1 note=35 velocity=94 time=0.007352933333333333
EXTRACT: note_on channel=7 note=54 velocity=41 time=0
EXTRACT: note_on channel=7 note=54 velocity=0 time=0.42647013333333333
EXTRACT: note_on channel=1 note=35 velocity=0 time=0.0045955833333333335
EXTRACT: note_on channel=1 note=35 velocity=94 time=0.010110283333333333
EXTRACT: note_on channel=3 note=47 velocity=100 time=0.2316174
EXTRACT: note_on channel=1 note=35 velocity=0 time=0.19944831666666665
EXTRACT: note_on channel=1 note=35 velocity=94 time=0.010110283333333333
EXTRACT: note_on channel=3 note=47 velocity=0 time=0.00275735
EXTRACT: note_on channel=3 note=56 velocity=100 time=0.0009191166666666666
EXTRACT: note_on channel=3 note=56 velocity=0 time=0.21231595
EXTRACT: note_on channel=3 note=56 velocity=100 time=0.0110294
EXTRACT: note_on channel=1 note=35 velocity=0 time=0.2040439
EXTRACT: note_on channel=3 note=56 velocity=0 time=0.0055147
EXTRACT: note_on channel=3 note=54 velocity=100 time=0
EXTRACT: note_on channel=1 note=35 velocity=94 time=0.0045955833333333335
EXTRACT: note_on channel=3 note=54 velocity=0 time=0.42555101666666667
EXTRACT: note_on channel=1 note=35 velocity=0 time=0.0055147
EXTRACT: note_on channel=3 note=52 velocity=100 time=0.0110294
EXTRACT: note_on channel=1 note=44 velocity=94 time=0.007352933333333333
EXTRACT: note_on channel=3 note=52 velocity=0 time=0.4227936666666666
EXTRACT: note_on channel=7 note=63 velocity=0 time=0.009191166666666667
EXTRACT: note_on channel=7 note=45 velocity=67 time=0.0009191166666666666
EXTRACT: note_on channel=3 note=52 velocity=100 time=0.0009191166666666666
EXTRACT: note_on channel=7 note=42 velocity=0 time=0.0036764666666666665
EXTRACT: note_on channel=7 note=47 velocity=0 time=0
EXTRACT: note_on channel=7 note=59 velocity=0 time=0
EXTRACT: note_on channel=1 note=45 velocity=94 time=0.0036764666666666665
EXTRACT: note_on channel=1 note=44 velocity=0 time=0.0055147
EXTRACT: note_on channel=7 note=52 velocity=78 time=0.09191166666666667
EXTRACT: note_on channel=7 note=57 velocity=86 time=0.10110283333333332
EXTRACT: note_on channel=7 note=64 velocity=82 time=0.11672781666666666
EXTRACT: note_on channel=3 note=52 velocity=0 time=0.10753665
EXTRACT: note_on channel=1 note=45 velocity=0 time=0.0009191166666666666
EXTRACT: note_on channel=1 note=45 velocity=94 time=0.0110294
EXTRACT: note_on channel=3 note=49 velocity=100 time=0.0045955833333333335
EXTRACT: note_on channel=1 note=45 velocity=0 time=0.41911719999999997
EXTRACT: note_on channel=3 note=49 velocity=0 time=0.0110294
EXTRACT: note_on channel=3 note=47 velocity=100 time=0.0055147
EXTRACT: note_on channel=1 note=45 velocity=94 time=0.0009191166666666666
EXTRACT: note_on channel=1 note=45 velocity=0 time=0.42371278333333334
EXTRACT: note_on channel=3 note=47 velocity=0 time=0.0055147
EXTRACT: note_on channel=3 note=52 velocity=100 time=0.00827205
EXTRACT: note_on channel=1 note=45 velocity=94 time=0.0036764666666666665
EXTRACT: note_on channel=1 note=45 velocity=0 time=0.42371278333333334
EXTRACT: note_on channel=3 note=52 velocity=0 time=0.00275735
EXTRACT: note_on channel=1 note=45 velocity=94 time=0.014705866666666666
EXTRACT: note_on channel=1 note=45 velocity=0 time=0.42371278333333334
EXTRACT: note_on channel=1 note=45 velocity=94 time=0.017463216666666666
EXTRACT: note_on channel=1 note=45 velocity=0 time=0.42371278333333334
EXTRACT: note_on channel=7 note=52 velocity=0 time=0.0018382333333333333
EXTRACT: note_on channel=7 note=64 velocity=0 time=0
EXTRACT: note_on channel=1 note=40 velocity=94 time=0.0110294
EXTRACT: note_on channel=7 note=47 velocity=63 time=0.00275735
EXTRACT: note_on channel=3 note=52 velocity=100 time=0.0036764666666666665
EXTRACT: note_on channel=7 note=45 velocity=0 time=0.0055147
EXTRACT: note_on channel=7 note=57 velocity=0 time=0
EXTRACT: note_on channel=7 note=52 velocity=78 time=0.06893375
EXTRACT: note_on channel=7 note=59 velocity=78 time=0.11121311666666667
EXTRACT: note_on channel=7 note=64 velocity=75 time=0.09558813333333332
EXTRACT: note_on channel=3 note=52 velocity=0 time=0.1488969
EXTRACT: note_on channel=3 note=47 velocity=100 time=0.6718742833333333
EXTRACT: note_on channel=3 note=52 velocity=100 time=0.21231595
EXTRACT: note_on channel=3 note=47 velocity=0 time=0.0055147
EXTRACT: note_on channel=3 note=52 velocity=0 time=0.4246319
EXTRACT: note_on channel=3 note=52 velocity=100 time=0.0165441
EXTRACT: note_on channel=3 note=52 velocity=0 time=0.4301466
EXTRACT: note_on channel=1 note=40 velocity=0 time=0.0036764666666666665
EXTRACT: note_on channel=1 note=45 velocity=94 time=0.0110294
EXTRACT: note_on channel=3 note=54 velocity=100 time=0.0018382333333333333
EXTRACT: note_on channel=3 note=54 velocity=0 time=0.20220566666666664
EXTRACT: note_on channel=3 note=54 velocity=100 time=0.0045955833333333335
EXTRACT: note_on channel=7 note=47 velocity=0 time=0.19944831666666665
EXTRACT: note_on channel=1 note=45 velocity=0 time=0.015624983333333333
EXTRACT: note_on channel=7 note=47 velocity=67 time=0.013786749999999999
EXTRACT: note_on channel=7 note=59 velocity=0 time=0.00275735
EXTRACT: note_on channel=7 note=64 velocity=0 time=0
EXTRACT: note_on channel=1 note=47 velocity=94 time=0.0055147
EXTRACT: note_on channel=7 note=52 velocity=0 time=0.0009191166666666666
EXTRACT: note_on channel=7 note=54 velocity=78 time=0.05147053333333333
EXTRACT: note_on channel=7 note=61 velocity=86 time=0.06158081666666666
EXTRACT: note_on channel=7 note=66 velocity=82 time=0.07261021666666666
EXTRACT: note_on channel=3 note=54 velocity=0 time=0.0064338166666666665
EXTRACT: note_on channel=1 note=47 velocity=0 time=1.12775615
EXTRACT: note_on channel=1 note=42 velocity=94 time=0.0055147
EXTRACT: note_on channel=7 note=66 velocity=0 time=1.1525722999999999
EXTRACT: note_on channel=7 note=61 velocity=0 time=0.0496323
EXTRACT: note_on channel=7 note=54 velocity=0 time=0.05055141666666666
EXTRACT: note_on channel=7 note=47 velocity=0 time=0.039522016666666666
EXTRACT: note_on channel=7 note=42 velocity=73 time=0.020220566666666665
EXTRACT: note_on channel=1 note=42 velocity=0 time=0.00827205
EXTRACT: note_on channel=1 note=35 velocity=94 time=0.00275735
EXTRACT: note_on channel=7 note=47 velocity=88 time=0.19485273333333333
EXTRACT: note_on channel=7 note=54 velocity=88 time=0.23529386666666666
EXTRACT: note_on channel=7 note=59 velocity=85 time=0.24632326666666665
EXTRACT: note_on channel=7 note=71 velocity=85 time=0.19025714999999999
EXTRACT: note_on channel=7 note=42 velocity=0 time=1.69577025
EXTRACT: note_on channel=1 note=35 velocity=0 time=0.02389703333333333
EXTRACT: note_on channel=7 note=47 velocity=0 time=0.18198509999999998
EXTRACT: note_on channel=7 note=54 velocity=0 time=0.23529386666666666
EXTRACT: note_on channel=7 note=59 velocity=0 time=0.24632326666666665
EXTRACT: note_on channel=7 note=71 velocity=0 time=0.2637864833333333
