EXTRACT: program_change channel=0 program=0 time=0
EXTRACT: control_change channel=0 control=91 value=60 time=0
EXTRACT: control_change channel=0 control=10 value=64 time=0
EXTRACT: control_change channel=0 control=7 value=100 time=0
EXTRACT: control_change channel=0 control=91 value=60 time=0
EXTRACT: control_change channel=0 control=10 value=64 time=0
EXTRACT: control_change channel=0 control=7 value=100 time=0
EXTRACT: control_change channel=0 control=91 value=60 time=0
EXTRACT: control_change channel=0 control=10 value=64 time=0
EXTRACT: control_change channel=0 control=7 value=100 time=0
EXTRACT: control_change channel=0 control=91 value=60 time=0
EXTRACT: control_change channel=0 control=10 value=64 time=0
EXTRACT: control_change channel=0 control=7 value=100 time=0
EXTRACT: control_change channel=0 control=91 value=60 time=0
EXTRACT: control_change channel=0 control=10 value=64 time=0
EXTRACT: control_change channel=0 control=7 value=100 time=0
EXTRACT: control_change channel=0 control=91 value=60 time=0
EXTRACT: control_change channel=0 control=10 value=64 time=0
EXTRACT: control_change channel=0 control=7 value=100 time=0
EXTRACT: control_change channel=0 control=91 value=60 time=0
EXTRACT: control_change channel=0 control=10 value=64 time=0
EXTRACT: control_change channel=0 control=7 value=100 time=0
EXTRACT: control_change channel=0 control=121 value=0 time=0
EXTRACT: note_on channel=0 note=66 velocity=69 time=0
EXTRACT: note_on channel=0 note=69 velocity=69 time=0
EXTRACT: note_on channel=0 note=72 velocity=69 time=0
EXTRACT: program_change channel=0 program=0 time=0
EXTRACT: control_change channel=0 control=91 value=60 time=0
EXTRACT: control_change channel=0 control=10 value=64 time=0
EXTRACT: control_change channel=0 control=7 value=100 time=0
EXTRACT: control_change channel=0 control=91 value=60 time=0
EXTRACT: control_change channel=0 control=10 value=64 time=0
EXTRACT: control_change channel=0 control=7 value=100 time=0
EXTRACT: control_change channel=0 control=91 value=60 time=0
EXTRACT: control_change channel=0 control=10 value=64 time=0
EXTRACT: control_change channel=0 control=7 value=100 time=0
EXTRACT: control_change channel=0 control=91 value=60 time=0
EXTRACT: control_change channel=0 control=10 value=64 time=0
EXTRACT: control_change channel=0 control=7 value=100 time=0
EXTRACT: control_change channel=0 control=91 value=60 time=0
EXTRACT: control_change channel=0 control=10 value=64 time=0
EXTRACT: control_change channel=0 control=7 value=100 time=0
EXTRACT: control_change channel=0 control=91 value=60 time=0
EXTRACT: control_change channel=0 control=10 value=64 time=0
EXTRACT: control_change channel=0 control=7 value=100 time=0
EXTRACT: control_change channel=0 control=91 value=60 time=0
EXTRACT: control_change channel=0 control=10 value=64 time=0
EXTRACT: control_change channel=0 control=7 value=100 time=0
EXTRACT: control_change channel=0 control=121 value=0 time=0
EXTRACT: note_on channel=0 note=50 velocity=69 time=0
EXTRACT: note_on channel=0 note=66 velocity=0 time=1.621622
EXTRACT: note_on channel=0 note=69 velocity=0 time=0
EXTRACT: note_on channel=0 note=72 velocity=0 time=0
EXTRACT: note_on channel=0 note=65 velocity=75 time=0
EXTRACT: note_on channel=0 note=69 velocity=75 time=0
EXTRACT: note_on channel=0 note=72 velocity=75 time=0
EXTRACT: note_on channel=0 note=50 velocity=0 time=0
EXTRACT: note_on channel=0 note=50 velocity=78 time=0
EXTRACT: note_on channel=0 note=65 velocity=0 time=1.621622
EXTRACT: note_on channel=0 note=69 velocity=0 time=0
EXTRACT: note_on channel=0 note=72 velocity=0 time=0
EXTRACT: note_on channel=0 note=64 velocity=75 time=0
EXTRACT: note_on channel=0 note=67 velocity=75 time=0
EXTRACT: note_on channel=0 note=72 velocity=75 time=0
EXTRACT: note_on channel=0 note=50 velocity=0 time=0
EXTRACT: note_on channel=0 note=48 velocity=76 time=0
EXTRACT: note_on channel=0 note=64 velocity=0 time=2.1596288822916665
EXTRACT: note_on channel=0 note=67 velocity=0 time=0
EXTRACT: note_on channel=0 note=72 velocity=0 time=0
EXTRACT: note_on channel=0 note=74 velocity=72 time=0
EXTRACT: note_on channel=0 note=74 velocity=0 time=0.2728041177083333
EXTRACT: note_on channel=0 note=76 velocity=83 time=0
EXTRACT: note_on channel=0 note=76 velocity=0 time=0.60810825
EXTRACT: note_on channel=0 note=66 velocity=68 time=0
EXTRACT: note_on channel=0 note=69 velocity=68 time=0
EXTRACT: note_on channel=0 note=72 velocity=68 time=0
EXTRACT: note_on channel=0 note=48 velocity=0 time=0
EXTRACT: note_on channel=0 note=50 velocity=77 time=0
EXTRACT: note_on channel=0 note=66 velocity=0 time=1.82432475
EXTRACT: note_on channel=0 note=69 velocity=0 time=0
EXTRACT: note_on channel=0 note=72 velocity=0 time=0
EXTRACT: note_on channel=0 note=65 velocity=81 time=0
EXTRACT: note_on channel=0 note=69 velocity=81 time=0
EXTRACT: note_on channel=0 note=72 velocity=81 time=0
EXTRACT: note_on channel=0 note=50 velocity=0 time=0
EXTRACT: note_on channel=0 note=50 velocity=76 time=0
EXTRACT: note_on channel=0 note=65 velocity=0 time=1.621622
EXTRACT: note_on channel=0 note=69 velocity=0 time=0
EXTRACT: note_on channel=0 note=72 velocity=0 time=0
EXTRACT: note_on channel=0 note=60 velocity=62 time=0
EXTRACT: note_on channel=0 note=64 velocity=62 time=0
EXTRACT: note_on channel=0 note=50 velocity=0 time=0
EXTRACT: note_on channel=0 note=48 velocity=73 time=0
EXTRACT: note_on channel=0 note=60 velocity=0 time=0.4054055
EXTRACT: note_on channel=0 note=64 velocity=0 time=0
EXTRACT: note_on channel=0 note=55 velocity=67 time=0
EXTRACT: note_on channel=0 note=55 velocity=0 time=0.4054055
EXTRACT: note_on channel=0 note=60 velocity=90 time=0
EXTRACT: note_on channel=0 note=64 velocity=90 time=0
EXTRACT: note_on channel=0 note=60 velocity=0 time=0.4054055
EXTRACT: note_on channel=0 note=64 velocity=0 time=0
EXTRACT: note_on channel=0 note=55 velocity=69 time=0
EXTRACT: note_on channel=0 note=55 velocity=0 time=0.4054055
EXTRACT: note_on channel=0 note=60 velocity=88 time=0
EXTRACT: note_on channel=0 note=64 velocity=88 time=0
EXTRACT: note_on channel=0 note=48 velocity=0 time=0
EXTRACT: note_on channel=0 note=48 velocity=80 time=0
EXTRACT: note_on channel=0 note=60 velocity=0 time=0.4054055
EXTRACT: note_on channel=0 note=64 velocity=0 time=0
EXTRACT: note_on channel=0 note=55 velocity=73 time=0
EXTRACT: note_on channel=0 note=55 velocity=0 time=0.4054055
EXTRACT: note_on channel=0 note=59 velocity=86 time=0
EXTRACT: note_on channel=0 note=62 velocity=86 time=0
EXTRACT: note_on channel=0 note=48 velocity=0 time=0
EXTRACT: note_on channel=0 note=47 velocity=75 time=0
EXTRACT: note_on channel=0 note=59 velocity=0 time=0.4054055
EXTRACT: note_on channel=0 note=62 velocity=0 time=0
EXTRACT: note_on channel=0 note=55 velocity=74 time=0
EXTRACT: note_on channel=0 note=55 velocity=0 time=0.4054055
EXTRACT: note_on channel=0 note=47 velocity=0 time=0
EXTRACT: note_on channel=0 note=57 velocity=68 time=0
EXTRACT: note_on channel=0 note=60 velocity=68 time=0
EXTRACT: note_on channel=0 note=64 velocity=68 time=0
EXTRACT: note_on channel=0 note=76 velocity=67 time=0.4054055
EXTRACT: note_on channel=0 note=76 velocity=0 time=0.4054055
EXTRACT: note_on channel=0 note=76 velocity=73 time=0
EXTRACT: note_on channel=0 note=57 velocity=0 time=0
EXTRACT: note_on channel=0 note=60 velocity=0 time=0
EXTRACT: note_on channel=0 note=64 velocity=0 time=0
EXTRACT: note_on channel=0 note=57 velocity=77 time=0
EXTRACT: note_on channel=0 note=60 velocity=77 time=0
EXTRACT: note_on channel=0 note=64 velocity=77 time=0
EXTRACT: note_on channel=0 note=76 velocity=0 time=0.4054055
EXTRACT: note_on channel=0 note=76 velocity=79 time=0
EXTRACT: note_on channel=0 note=76 velocity=0 time=0.20270275
EXTRACT: note_on channel=0 note=74 velocity=69 time=0
EXTRACT: note_on channel=0 note=74 velocity=0 time=0.20270275
EXTRACT: note_on channel=0 note=76 velocity=80 time=0
EXTRACT: note_on channel=0 note=57 velocity=0 time=0
EXTRACT: note_on channel=0 note=60 velocity=0 time=0
EXTRACT: note_on channel=0 note=64 velocity=0 time=0
EXTRACT: note_on channel=0 note=55 velocity=77 time=0
EXTRACT: note_on channel=0 note=60 velocity=77 time=0
EXTRACT: note_on channel=0 note=64 velocity=77 time=0
EXTRACT: note_on channel=0 note=76 velocity=0 time=0.4054055
EXTRACT: note_on channel=0 note=76 velocity=71 time=0
EXTRACT: note_on channel=0 note=76 velocity=0 time=0.20270275
EXTRACT: note_on channel=0 note=74 velocity=66 time=0
EXTRACT: note_on channel=0 note=74 velocity=0 time=0.20270275
EXTRACT: note_on channel=0 note=76 velocity=75 time=0
EXTRACT: note_on channel=0 note=55 velocity=0 time=0
EXTRACT: note_on channel=0 note=60 velocity=0 time=0
EXTRACT: note_on channel=0 note=64 velocity=0 time=0
EXTRACT: note_on channel=0 note=55 velocity=72 time=0
EXTRACT: note_on channel=0 note=60 velocity=72 time=0
EXTRACT: note_on channel=0 note=64 velocity=72 time=0
EXTRACT: note_on channel=0 note=76 velocity=0 time=0.20270275
EXTRACT: note_on channel=0 note=74 velocity=74 time=0
EXTRACT: note_on channel=0 note=74 velocity=0 time=0.20270275
EXTRACT: note_on channel=0 note=72 velocity=70 time=0
EXTRACT: note_on channel=0 note=72 velocity=0 time=0.4054055
EXTRACT: note_on channel=0 note=76 velocity=81 time=0
EXTRACT: note_on channel=0 note=55 velocity=0 time=0
EXTRACT: note_on channel=0 note=60 velocity=0 time=0
EXTRACT: note_on channel=0 note=64 velocity=0 time=0
EXTRACT: note_on channel=0 note=57 velocity=76 time=0
EXTRACT: note_on channel=0 note=62 velocity=76 time=0
EXTRACT: note_on channel=0 note=65 velocity=76 time=0
EXTRACT: note_on channel=0 note=76 velocity=0 time=0.4054055
EXTRACT: note_on channel=0 note=77 velocity=79 time=0
EXTRACT: note_on channel=0 note=77 velocity=0 time=0.20270275
EXTRACT: note_on channel=0 note=77 velocity=74 time=0
EXTRACT: note_on channel=0 note=57 velocity=0 time=0.20270275
EXTRACT: note_on channel=0 note=62 velocity=0 time=0
EXTRACT: note_on channel=0 note=65 velocity=0 time=0
EXTRACT: note_on channel=0 note=57 velocity=78 time=0
EXTRACT: note_on channel=0 note=62 velocity=78 time=0
EXTRACT: note_on channel=0 note=65 velocity=78 time=0
EXTRACT: note_on channel=0 note=77 velocity=0 time=0.810811
EXTRACT: note_on channel=0 note=57 velocity=0 time=0
EXTRACT: note_on channel=0 note=62 velocity=0 time=0
EXTRACT: note_on channel=0 note=65 velocity=0 time=0
EXTRACT: note_on channel=0 note=57 velocity=76 time=0
EXTRACT: note_on channel=0 note=62 velocity=76 time=0
EXTRACT: note_on channel=0 note=65 velocity=76 time=0
EXTRACT: note_on channel=0 note=57 velocity=0 time=0.810811
EXTRACT: note_on channel=0 note=62 velocity=0 time=0
EXTRACT: note_on channel=0 note=65 velocity=0 time=0
EXTRACT: note_on channel=0 note=57 velocity=76 time=0
EXTRACT: note_on channel=0 note=62 velocity=76 time=0
EXTRACT: note_on channel=0 note=65 velocity=76 time=0
EXTRACT: note_on channel=0 note=57 velocity=0 time=0.810811
EXTRACT: note_on channel=0 note=62 velocity=0 time=0
EXTRACT: note_on channel=0 note=65 velocity=0 time=0
EXTRACT: note_on channel=0 note=55 velocity=65 time=0
EXTRACT: note_on channel=0 note=59 velocity=65 time=0
EXTRACT: note_on channel=0 note=62 velocity=65 time=0
EXTRACT: note_on channel=0 note=74 velocity=69 time=0.4054055
EXTRACT: note_on channel=0 note=74 velocity=0 time=0.4054055
EXTRACT: note_on channel=0 note=74 velocity=73 time=0
EXTRACT: note_on channel=0 note=55 velocity=0 time=0
EXTRACT: note_on channel=0 note=59 velocity=0 time=0
EXTRACT: note_on channel=0 note=62 velocity=0 time=0
EXTRACT: note_on channel=0 note=55 velocity=71 time=0
EXTRACT: note_on channel=0 note=59 velocity=71 time=0
EXTRACT: note_on channel=0 note=62 velocity=71 time=0
EXTRACT: note_on channel=0 note=74 velocity=0 time=0.4054055
EXTRACT: note_on channel=0 note=74 velocity=73 time=0
EXTRACT: note_on channel=0 note=74 velocity=0 time=0.20270275
EXTRACT: note_on channel=0 note=72 velocity=71 time=0
EXTRACT: note_on channel=0 note=72 velocity=0 time=0.20270275
EXTRACT: note_on channel=0 note=74 velocity=80 time=0
EXTRACT: note_on channel=0 note=55 velocity=0 time=0
EXTRACT: note_on channel=0 note=59 velocity=0 time=0
EXTRACT: note_on channel=0 note=62 velocity=0 time=0
EXTRACT: note_on channel=0 note=55 velocity=74 time=0
EXTRACT: note_on channel=0 note=59 velocity=74 time=0
EXTRACT: note_on channel=0 note=62 velocity=74 time=0
EXTRACT: note_on channel=0 note=74 velocity=0 time=0.20270275
EXTRACT: note_on channel=0 note=72 velocity=73 time=0
EXTRACT: note_on channel=0 note=72 velocity=0 time=0.20270275
EXTRACT: note_on channel=0 note=74 velocity=76 time=0
EXTRACT: note_on channel=0 note=74 velocity=0 time=0.4054055
EXTRACT: note_on channel=0 note=74 velocity=71 time=0
EXTRACT: note_on channel=0 note=55 velocity=0 time=0
EXTRACT: note_on channel=0 note=59 velocity=0 time=0
EXTRACT: note_on channel=0 note=62 velocity=0 time=0
EXTRACT: note_on channel=0 note=55 velocity=76 time=0
EXTRACT: note_on channel=0 note=59 velocity=76 time=0
EXTRACT: note_on channel=0 note=62 velocity=76 time=0
EXTRACT: note_on channel=0 note=74 velocity=0 time=0.20270275
EXTRACT: note_on channel=0 note=72 velocity=71 time=0
EXTRACT: note_on channel=0 note=72 velocity=0 time=0.20270275
EXTRACT: note_on channel=0 note=69 velocity=73 time=0
EXTRACT: note_on channel=0 note=69 velocity=0 time=0.4054055
EXTRACT: note_on channel=0 note=74 velocity=85 time=0
EXTRACT: note_on channel=0 note=55 velocity=0 time=0
EXTRACT: note_on channel=0 note=59 velocity=0 time=0
EXTRACT: note_on channel=0 note=62 velocity=0 time=0
EXTRACT: note_on channel=0 note=60 velocity=88 time=0
EXTRACT: note_on channel=0 note=64 velocity=88 time=0
EXTRACT: note_on channel=0 note=67 velocity=88 time=0
EXTRACT: note_on channel=0 note=74 velocity=0 time=0.4054055
EXTRACT: note_on channel=0 note=76 velocity=86 time=0
EXTRACT: note_on channel=0 note=76 velocity=0 time=0.20270275
EXTRACT: note_on channel=0 note=76 velocity=79 time=0
EXTRACT: note_on channel=0 note=60 velocity=0 time=0.20270275
EXTRACT: note_on channel=0 note=64 velocity=0 time=0
EXTRACT: note_on channel=0 note=67 velocity=0 time=0
EXTRACT: note_on channel=0 note=60 velocity=74 time=0
EXTRACT: note_on channel=0 note=64 velocity=74 time=0
EXTRACT: note_on channel=0 note=67 velocity=74 time=0
EXTRACT: note_on channel=0 note=76 velocity=0 time=0.810811
EXTRACT: note_on channel=0 note=60 velocity=0 time=0
EXTRACT: note_on channel=0 note=64 velocity=0 time=0
EXTRACT: note_on channel=0 note=67 velocity=0 time=0
EXTRACT: note_on channel=0 note=59 velocity=77 time=0
EXTRACT: note_on channel=0 note=64 velocity=77 time=0
EXTRACT: note_on channel=0 note=67 velocity=77 time=0
EXTRACT: note_on channel=0 note=59 velocity=0 time=0.810811
EXTRACT: note_on channel=0 note=64 velocity=0 time=0
EXTRACT: note_on channel=0 note=67 velocity=0 time=0
EXTRACT: note_on channel=0 note=59 velocity=75 time=0
EXTRACT: note_on channel=0 note=64 velocity=75 time=0
EXTRACT: note_on channel=0 note=67 velocity=75 time=0
EXTRACT: note_on channel=0 note=59 velocity=0 time=0.810811
EXTRACT: note_on channel=0 note=64 velocity=0 time=0
EXTRACT: note_on channel=0 note=67 velocity=0 time=0
EXTRACT: note_on channel=0 note=57 velocity=66 time=0
EXTRACT: note_on channel=0 note=60 velocity=66 time=0
EXTRACT: note_on channel=0 note=64 velocity=66 time=0
EXTRACT: note_on channel=0 note=76 velocity=67 time=0.4054055
EXTRACT: note_on channel=0 note=76 velocity=0 time=0.4054055
EXTRACT: note_on channel=0 note=76 velocity=74 time=0
EXTRACT: note_on channel=0 note=57 velocity=0 time=0
EXTRACT: note_on channel=0 note=60 velocity=0 time=0
EXTRACT: note_on channel=0 note=64 velocity=0 time=0
EXTRACT: note_on channel=0 note=57 velocity=74 time=0
EXTRACT: note_on channel=0 note=60 velocity=74 time=0
EXTRACT: note_on channel=0 note=64 velocity=74 time=0
EXTRACT: note_on channel=0 note=76 velocity=0 time=0.4054055
EXTRACT: note_on channel=0 note=76 velocity=77 time=0
EXTRACT: note_on channel=0 note=76 velocity=0 time=0.20270275
EXTRACT: note_on channel=0 note=74 velocity=68 time=0
EXTRACT: note_on channel=0 note=74 velocity=0 time=0.20270275
EXTRACT: note_on channel=0 note=76 velocity=79 time=0
EXTRACT: note_on channel=0 note=57 velocity=0 time=0
EXTRACT: note_on channel=0 note=60 velocity=0 time=0
EXTRACT: note_on channel=0 note=64 velocity=0 time=0
EXTRACT: note_on channel=0 note=55 velocity=79 time=0
EXTRACT: note_on channel=0 note=60 velocity=79 time=0
EXTRACT: note_on channel=0 note=64 velocity=79 time=0
EXTRACT: note_on channel=0 note=76 velocity=0 time=0.4054055
EXTRACT: note_on channel=0 note=76 velocity=78 time=0
EXTRACT: note_on channel=0 note=76 velocity=0 time=0.20270275
EXTRACT: note_on channel=0 note=74 velocity=70 time=0
EXTRACT: note_on channel=0 note=74 velocity=0 time=0.20270275
EXTRACT: note_on channel=0 note=76 velocity=79 time=0
EXTRACT: note_on channel=0 note=55 velocity=0 time=0
EXTRACT: note_on channel=0 note=60 velocity=0 time=0
EXTRACT: note_on channel=0 note=64 velocity=0 time=0
EXTRACT: note_on channel=0 note=55 velocity=78 time=0
EXTRACT: note_on channel=0 note=60 velocity=78 time=0
EXTRACT: note_on channel=0 note=64 velocity=78 time=0
EXTRACT: note_on channel=0 note=76 velocity=0 time=0.20270275
EXTRACT: note_on channel=0 note=74 velocity=71 time=0
EXTRACT: note_on channel=0 note=74 velocity=0 time=0.20270275
EXTRACT: note_on channel=0 note=72 velocity=72 time=0
EXTRACT: note_on channel=0 note=72 velocity=0 time=0.4054055
EXTRACT: note_on channel=0 note=76 velocity=83 time=0
EXTRACT: note_on channel=0 note=55 velocity=0 time=0
EXTRACT: note_on channel=0 note=60 velocity=0 time=0
EXTRACT: note_on channel=0 note=64 velocity=0 time=0
EXTRACT: note_on channel=0 note=57 velocity=81 time=0
EXTRACT: note_on channel=0 note=62 velocity=81 time=0
EXTRACT: note_on channel=0 note=65 velocity=81 time=0
EXTRACT: note_on channel=0 note=76 velocity=0 time=0.4054055
EXTRACT: note_on channel=0 note=77 velocity=81 time=0
EXTRACT: note_on channel=0 note=77 velocity=0 time=0.20270275
EXTRACT: note_on channel=0 note=79 velocity=83 time=0
EXTRACT: note_on channel=0 note=57 velocity=0 time=0.20270275
EXTRACT: note_on channel=0 note=62 velocity=0 time=0
EXTRACT: note_on channel=0 note=65 velocity=0 time=0
EXTRACT: note_on channel=0 note=57 velocity=75 time=0
EXTRACT: note_on channel=0 note=62 velocity=75 time=0
EXTRACT: note_on channel=0 note=65 velocity=75 time=0
EXTRACT: note_on channel=0 note=79 velocity=0 time=0.20270275
EXTRACT: note_on channel=0 note=77 velocity=72 time=0
EXTRACT: note_on channel=0 note=77 velocity=0 time=0.60810825
EXTRACT: note_on channel=0 note=76 velocity=71 time=0
EXTRACT: note_on channel=0 note=57 velocity=0 time=0
EXTRACT: note_on channel=0 note=62 velocity=0 time=0
EXTRACT: note_on channel=0 note=65 velocity=0 time=0
EXTRACT: note_on channel=0 note=57 velocity=76 time=0
EXTRACT: note_on channel=0 note=62 velocity=76 time=0
EXTRACT: note_on channel=0 note=65 velocity=76 time=0
EXTRACT: note_on channel=0 note=76 velocity=0 time=0.4054055
EXTRACT: note_on channel=0 note=74 velocity=71 time=0
EXTRACT: note_on channel=0 note=57 velocity=0 time=0.4054055
EXTRACT: note_on channel=0 note=62 velocity=0 time=0
EXTRACT: note_on channel=0 note=65 velocity=0 time=0
EXTRACT: note_on channel=0 note=57 velocity=78 time=0
EXTRACT: note_on channel=0 note=62 velocity=78 time=0
EXTRACT: note_on channel=0 note=65 velocity=78 time=0
EXTRACT: note_on channel=0 note=74 velocity=0 time=0.810811
EXTRACT: note_on channel=0 note=57 velocity=0 time=0
EXTRACT: note_on channel=0 note=62 velocity=0 time=0
EXTRACT: note_on channel=0 note=65 velocity=0 time=0
EXTRACT: note_on channel=0 note=55 velocity=64 time=0
EXTRACT: note_on channel=0 note=59 velocity=64 time=0
EXTRACT: note_on channel=0 note=62 velocity=64 time=0
EXTRACT: note_on channel=0 note=74 velocity=70 time=0.4054055
EXTRACT: note_on channel=0 note=74 velocity=0 time=0.4054055
EXTRACT: note_on channel=0 note=74 velocity=75 time=0
EXTRACT: note_on channel=0 note=55 velocity=0 time=0
EXTRACT: note_on channel=0 note=59 velocity=0 time=0
EXTRACT: note_on channel=0 note=62 velocity=0 time=0
EXTRACT: note_on channel=0 note=55 velocity=77 time=0
EXTRACT: note_on channel=0 note=59 velocity=77 time=0
EXTRACT: note_on channel=0 note=62 velocity=77 time=0
EXTRACT: note_on channel=0 note=74 velocity=0 time=0.4054055
EXTRACT: note_on channel=0 note=74 velocity=75 time=0
EXTRACT: note_on channel=0 note=74 velocity=0 time=0.20270275
EXTRACT: note_on channel=0 note=72 velocity=72 time=0
EXTRACT: note_on channel=0 note=72 velocity=0 time=0.20270275
EXTRACT: note_on channel=0 note=74 velocity=82 time=0
EXTRACT: note_on channel=0 note=55 velocity=0 time=0
EXTRACT: note_on channel=0 note=59 velocity=0 time=0
EXTRACT: note_on channel=0 note=62 velocity=0 time=0
EXTRACT: note_on channel=0 note=55 velocity=76 time=0
EXTRACT: note_on channel=0 note=59 velocity=76 time=0
EXTRACT: note_on channel=0 note=62 velocity=76 time=0
EXTRACT: note_on channel=0 note=74 velocity=0 time=0.20270275
EXTRACT: note_on channel=0 note=72 velocity=71 time=0
EXTRACT: note_on channel=0 note=72 velocity=0 time=0.60810825
EXTRACT: note_on channel=0 note=55 velocity=0 time=0
EXTRACT: note_on channel=0 note=59 velocity=0 time=0
EXTRACT: note_on channel=0 note=62 velocity=0 time=0
EXTRACT: note_on channel=0 note=55 velocity=77 time=0
EXTRACT: note_on channel=0 note=59 velocity=77 time=0
EXTRACT: note_on channel=0 note=62 velocity=77 time=0
EXTRACT: note_on channel=0 note=74 velocity=68 time=0.4054055
EXTRACT: note_on channel=0 note=74 velocity=0 time=0.20270275
EXTRACT: note_on channel=0 note=72 velocity=69 time=0
EXTRACT: note_on channel=0 note=72 velocity=0 time=0.20270275
EXTRACT: note_on channel=0 note=74 velocity=82 time=0
EXTRACT: note_on channel=0 note=55 velocity=0 time=0
EXTRACT: note_on channel=0 note=59 velocity=0 time=0
EXTRACT: note_on channel=0 note=62 velocity=0 time=0
EXTRACT: note_on channel=0 note=60 velocity=80 time=0
EXTRACT: note_on channel=0 note=64 velocity=80 time=0
EXTRACT: note_on channel=0 note=67 velocity=80 time=0
EXTRACT: note_on channel=0 note=74 velocity=0 time=0.4054055
EXTRACT: note_on channel=0 note=76 velocity=82 time=0
EXTRACT: note_on channel=0 note=76 velocity=0 time=0.20270275
EXTRACT: note_on channel=0 note=72 velocity=70 time=0
EXTRACT: note_on channel=0 note=60 velocity=0 time=0.20270275
EXTRACT: note_on channel=0 note=64 velocity=0 time=0
EXTRACT: note_on channel=0 note=67 velocity=0 time=0
EXTRACT: note_on channel=0 note=60 velocity=76 time=0
EXTRACT: note_on channel=0 note=64 velocity=76 time=0
EXTRACT: note_on channel=0 note=67 velocity=76 time=0
EXTRACT: note_on channel=0 note=72 velocity=0 time=0.4054055
EXTRACT: note_on channel=0 note=71 velocity=71 time=0
EXTRACT: note_on channel=0 note=71 velocity=0 time=0.4054055
EXTRACT: note_on channel=0 note=72 velocity=76 time=0
EXTRACT: note_on channel=0 note=60 velocity=0 time=0
EXTRACT: note_on channel=0 note=64 velocity=0 time=0
EXTRACT: note_on channel=0 note=67 velocity=0 time=0
EXTRACT: note_on channel=0 note=59 velocity=73 time=0
EXTRACT: note_on channel=0 note=64 velocity=73 time=0
EXTRACT: note_on channel=0 note=67 velocity=73 time=0
EXTRACT: note_on channel=0 note=72 velocity=0 time=0.4054055
EXTRACT: note_on channel=0 note=74 velocity=78 time=0
EXTRACT: note_on channel=0 note=74 velocity=0 time=0.4054055
EXTRACT: note_on channel=0 note=69 velocity=67 time=0
EXTRACT: note_on channel=0 note=59 velocity=0 time=0
EXTRACT: note_on channel=0 note=64 velocity=0 time=0
EXTRACT: note_on channel=0 note=67 velocity=0 time=0
EXTRACT: note_on channel=0 note=59 velocity=77 time=0
EXTRACT: note_on channel=0 note=64 velocity=77 time=0
EXTRACT: note_on channel=0 note=67 velocity=77 time=0
EXTRACT: note_on channel=0 note=69 velocity=0 time=0.4054055
EXTRACT: note_on channel=0 note=71 velocity=85 time=0
EXTRACT: note_on channel=0 note=71 velocity=0 time=0.4054055
EXTRACT: note_on channel=0 note=84 velocity=68 time=0
EXTRACT: note_on channel=0 note=59 velocity=0 time=0
EXTRACT: note_on channel=0 note=64 velocity=0 time=0
EXTRACT: note_on channel=0 note=67 velocity=0 time=0
EXTRACT: note_on channel=0 note=57 velocity=69 time=0
EXTRACT: note_on channel=0 note=60 velocity=69 time=0
EXTRACT: note_on channel=0 note=64 velocity=69 time=0
EXTRACT: note_on channel=0 note=84 velocity=0 time=0.810811
EXTRACT: note_on channel=0 note=83 velocity=74 time=0
EXTRACT: note_on channel=0 note=57 velocity=0 time=0
EXTRACT: note_on channel=0 note=60 velocity=0 time=0
EXTRACT: note_on channel=0 note=64 velocity=0 time=0
EXTRACT: note_on channel=0 note=57 velocity=74 time=0
EXTRACT: note_on channel=0 note=60 velocity=74 time=0
EXTRACT: note_on channel=0 note=64 velocity=74 time=0
EXTRACT: note_on channel=0 note=83 velocity=0 time=0.810811
EXTRACT: note_on channel=0 note=81 velocity=73 time=0
EXTRACT: note_on channel=0 note=57 velocity=0 time=0
EXTRACT: note_on channel=0 note=60 velocity=0 time=0
EXTRACT: note_on channel=0 note=64 velocity=0 time=0
EXTRACT: note_on channel=0 note=57 velocity=82 time=0
EXTRACT: note_on channel=0 note=60 velocity=82 time=0
EXTRACT: note_on channel=0 note=64 velocity=82 time=0
EXTRACT: note_on channel=0 note=81 velocity=0 time=0.4054055
EXTRACT: note_on channel=0 note=79 velocity=69 time=0
EXTRACT: note_on channel=0 note=57 velocity=0 time=0.4054055
EXTRACT: note_on channel=0 note=60 velocity=0 time=0
EXTRACT: note_on channel=0 note=64 velocity=0 time=0
EXTRACT: note_on channel=0 note=57 velocity=75 time=0
EXTRACT: note_on channel=0 note=60 velocity=75 time=0
EXTRACT: note_on channel=0 note=64 velocity=75 time=0
EXTRACT: note_on channel=0 note=79 velocity=0 time=0.4054055
EXTRACT: note_on channel=0 note=83 velocity=82 time=0
EXTRACT: note_on channel=0 note=57 velocity=0 time=0.4054055
EXTRACT: note_on channel=0 note=60 velocity=0 time=0
EXTRACT: note_on channel=0 note=64 velocity=0 time=0
EXTRACT: note_on channel=0 note=52 velocity=69 time=0
EXTRACT: note_on channel=0 note=55 velocity=69 time=0
EXTRACT: note_on channel=0 note=59 velocity=69 time=0
EXTRACT: note_on channel=0 note=52 velocity=0 time=0.810811
EXTRACT: note_on channel=0 note=55 velocity=0 time=0
EXTRACT: note_on channel=0 note=59 velocity=0 time=0
EXTRACT: note_on channel=0 note=52 velocity=76 time=0
EXTRACT: note_on channel=0 note=55 velocity=76 time=0
EXTRACT: note_on channel=0 note=59 velocity=76 time=0
EXTRACT: note_on channel=0 note=83 velocity=0 time=0.810811
EXTRACT: note_on channel=0 note=52 velocity=0 time=0
EXTRACT: note_on channel=0 note=55 velocity=0 time=0
EXTRACT: note_on channel=0 note=59 velocity=0 time=0
EXTRACT: note_on channel=0 note=52 velocity=74 time=0
EXTRACT: note_on channel=0 note=55 velocity=74 time=0
EXTRACT: note_on channel=0 note=59 velocity=74 time=0
EXTRACT: note_on channel=0 note=52 velocity=0 time=0.810811
EXTRACT: note_on channel=0 note=55 velocity=0 time=0
EXTRACT: note_on channel=0 note=59 velocity=0 time=0
EXTRACT: note_on channel=0 note=52 velocity=71 time=0
EXTRACT: note_on channel=0 note=55 velocity=71 time=0
EXTRACT: note_on channel=0 note=59 velocity=71 time=0
EXTRACT: note_on channel=0 note=52 velocity=0 time=0.810811
EXTRACT: note_on channel=0 note=55 velocity=0 time=0
EXTRACT: note_on channel=0 note=59 velocity=0 time=0
EXTRACT: note_on channel=0 note=53 velocity=85 time=0
EXTRACT: note_on channel=0 note=58 velocity=85 time=0
EXTRACT: note_on channel=0 note=62 velocity=85 time=0
EXTRACT: note_on channel=0 note=77 velocity=73 time=0.4054055
EXTRACT: note_on channel=0 note=77 velocity=0 time=0.4054055
EXTRACT: note_on channel=0 note=77 velocity=73 time=0
EXTRACT: note_on channel=0 note=53 velocity=0 time=0
EXTRACT: note_on channel=0 note=58 velocity=0 time=0
EXTRACT: note_on channel=0 note=62 velocity=0 time=0
EXTRACT: note_on channel=0 note=53 velocity=80 time=0
EXTRACT: note_on channel=0 note=58 velocity=80 time=0
EXTRACT: note_on channel=0 note=62 velocity=80 time=0
EXTRACT: note_on channel=0 note=77 velocity=0 time=0.4054055
EXTRACT: note_on channel=0 note=77 velocity=74 time=0
EXTRACT: note_on channel=0 note=77 velocity=0 time=0.4054055
EXTRACT: note_on channel=0 note=77 velocity=76 time=0
EXTRACT: note_on channel=0 note=53 velocity=0 time=0
EXTRACT: note_on channel=0 note=58 velocity=0 time=0
EXTRACT: note_on channel=0 note=62 velocity=0 time=0
EXTRACT: note_on channel=0 note=53 velocity=75 time=0
EXTRACT: note_on channel=0 note=58 velocity=75 time=0
EXTRACT: note_on channel=0 note=62 velocity=75 time=0
EXTRACT: note_on channel=0 note=77 velocity=0 time=0.4054055
EXTRACT: note_on channel=0 note=77 velocity=75 time=0
EXTRACT: note_on channel=0 note=77 velocity=0 time=0.4054055
EXTRACT: note_on channel=0 note=77 velocity=68 time=0
EXTRACT: note_on channel=0 note=53 velocity=0 time=0
EXTRACT: note_on channel=0 note=58 velocity=0 time=0
EXTRACT: note_on channel=0 note=62 velocity=0 time=0
EXTRACT: note_on channel=0 note=53 velocity=76 time=0
EXTRACT: note_on channel=0 note=58 velocity=76 time=0
EXTRACT: note_on channel=0 note=62 velocity=76 time=0
EXTRACT: note_on channel=0 note=77 velocity=0 time=0.4054055
EXTRACT: note_on channel=0 note=76 velocity=73 time=0
EXTRACT: note_on channel=0 note=76 velocity=0 time=0.4054055
EXTRACT: note_on channel=0 note=77 velocity=79 time=0
EXTRACT: note_on channel=0 note=53 velocity=0 time=0
EXTRACT: note_on channel=0 note=58 velocity=0 time=0
EXTRACT: note_on channel=0 note=62 velocity=0 time=0
EXTRACT: note_on channel=0 note=55 velocity=78 time=0
EXTRACT: note_on channel=0 note=60 velocity=78 time=0
EXTRACT: note_on channel=0 note=64 velocity=78 time=0
EXTRACT: note_on channel=0 note=77 velocity=0 time=0.20270275
EXTRACT: note_on channel=0 note=76 velocity=68 time=0
EXTRACT: note_on channel=0 note=55 velocity=0 time=0.60810825
EXTRACT: note_on channel=0 note=60 velocity=0 time=0
EXTRACT: note_on channel=0 note=64 velocity=0 time=0
EXTRACT: note_on channel=0 note=55 velocity=77 time=0
EXTRACT: note_on channel=0 note=60 velocity=77 time=0
EXTRACT: note_on channel=0 note=64 velocity=77 time=0
EXTRACT: note_on channel=0 note=76 velocity=0 time=0.4054055
EXTRACT: note_on channel=0 note=72 velocity=69 time=0
EXTRACT: note_on channel=0 note=72 velocity=0 time=0.4054055
EXTRACT: note_on channel=0 note=81 velocity=91 time=0
EXTRACT: note_on channel=0 note=55 velocity=0 time=0
EXTRACT: note_on channel=0 note=60 velocity=0 time=0
EXTRACT: note_on channel=0 note=64 velocity=0 time=0
EXTRACT: note_on channel=0 note=55 velocity=74 time=0
EXTRACT: note_on channel=0 note=59 velocity=74 time=0
EXTRACT: note_on channel=0 note=62 velocity=74 time=0
EXTRACT: note_on channel=0 note=81 velocity=0 time=0.4054055
EXTRACT: note_on channel=0 note=79 velocity=74 time=0
EXTRACT: note_on channel=0 note=79 velocity=0 time=0.20270275
EXTRACT: note_on channel=0 note=76 velocity=70 time=0
EXTRACT: note_on channel=0 note=76 velocity=0 time=0.20270275
EXTRACT: note_on channel=0 note=79 velocity=78 time=0
EXTRACT: note_on channel=0 note=55 velocity=0 time=0
EXTRACT: note_on channel=0 note=59 velocity=0 time=0
EXTRACT: note_on channel=0 note=62 velocity=0 time=0
EXTRACT: note_on channel=0 note=79 velocity=0 time=0.4054055
EXTRACT: note_on channel=0 note=81 velocity=81 time=0
EXTRACT: note_on channel=0 note=81 velocity=0 time=0.20270275
EXTRACT: note_on channel=0 note=76 velocity=71 time=0
EXTRACT: note_on channel=0 note=76 velocity=0 time=0.20270275
EXTRACT: note_on channel=0 note=76 velocity=66 time=0
EXTRACT: note_on channel=0 note=53 velocity=72 time=0
EXTRACT: note_on channel=0 note=57 velocity=72 time=0
EXTRACT: note_on channel=0 note=60 velocity=72 time=0
EXTRACT: note_on channel=0 note=76 velocity=0 time=0.20270275
EXTRACT: note_on channel=0 note=74 velocity=71 time=0
EXTRACT: note_on channel=0 note=53 velocity=0 time=0.60810825
EXTRACT: note_on channel=0 note=57 velocity=0 time=0
EXTRACT: note_on channel=0 note=60 velocity=0 time=0
EXTRACT: note_on channel=0 note=53 velocity=70 time=0
EXTRACT: note_on channel=0 note=57 velocity=70 time=0
EXTRACT: note_on channel=0 note=60 velocity=70 time=0
EXTRACT: note_on channel=0 note=74 velocity=0 time=0.810811
EXTRACT: note_on channel=0 note=53 velocity=0 time=0
EXTRACT: note_on channel=0 note=57 velocity=0 time=0
EXTRACT: note_on channel=0 note=60 velocity=0 time=0
EXTRACT: note_on channel=0 note=55 velocity=77 time=0
EXTRACT: note_on channel=0 note=59 velocity=77 time=0
EXTRACT: note_on channel=0 note=62 velocity=77 time=0
EXTRACT: note_on channel=0 note=67 velocity=69 time=0.4054055
EXTRACT: note_on channel=0 note=67 velocity=0 time=0.4054055
EXTRACT: note_on channel=0 note=69 velocity=73 time=0
EXTRACT: note_on channel=0 note=55 velocity=0 time=0
EXTRACT: note_on channel=0 note=59 velocity=0 time=0
EXTRACT: note_on channel=0 note=62 velocity=0 time=0
EXTRACT: note_on channel=0 note=55 velocity=76 time=0
EXTRACT: note_on channel=0 note=59 velocity=76 time=0
EXTRACT: note_on channel=0 note=62 velocity=76 time=0
EXTRACT: note_on channel=0 note=69 velocity=0 time=0.4054055
EXTRACT: note_on channel=0 note=72 velocity=80 time=0
EXTRACT: note_on channel=0 note=72 velocity=0 time=0.4054055
EXTRACT: note_on channel=0 note=76 velocity=85 time=0
EXTRACT: note_on channel=0 note=55 velocity=0 time=0
EXTRACT: note_on channel=0 note=59 velocity=0 time=0
EXTRACT: note_on channel=0 note=62 velocity=0 time=0
EXTRACT: note_on channel=0 note=55 velocity=80 time=0
EXTRACT: note_on channel=0 note=60 velocity=80 time=0
EXTRACT: note_on channel=0 note=64 velocity=80 time=0
EXTRACT: note_on channel=0 note=55 velocity=0 time=0.810811
EXTRACT: note_on channel=0 note=60 velocity=0 time=0
EXTRACT: note_on channel=0 note=64 velocity=0 time=0
EXTRACT: note_on channel=0 note=55 velocity=76 time=0
EXTRACT: note_on channel=0 note=60 velocity=76 time=0
EXTRACT: note_on channel=0 note=64 velocity=76 time=0
EXTRACT: note_on channel=0 note=76 velocity=0 time=0.60810825
EXTRACT: note_on channel=0 note=81 velocity=88 time=0
EXTRACT: note_on channel=0 note=55 velocity=0 time=0.20270275
EXTRACT: note_on channel=0 note=60 velocity=0 time=0
EXTRACT: note_on channel=0 note=64 velocity=0 time=0
EXTRACT: note_on channel=0 note=55 velocity=74 time=0
EXTRACT: note_on channel=0 note=60 velocity=74 time=0
EXTRACT: note_on channel=0 note=64 velocity=74 time=0
EXTRACT: note_on channel=0 note=81 velocity=0 time=0.20270275
EXTRACT: note_on channel=0 note=81 velocity=77 time=0
EXTRACT: note_on channel=0 note=81 velocity=0 time=0.20270275
EXTRACT: note_on channel=0 note=79 velocity=72 time=0
EXTRACT: note_on channel=0 note=79 velocity=0 time=0.20270275
EXTRACT: note_on channel=0 note=76 velocity=66 time=0
EXTRACT: note_on channel=0 note=76 velocity=0 time=0.20270275
EXTRACT: note_on channel=0 note=79 velocity=83 time=0
EXTRACT: note_on channel=0 note=55 velocity=0 time=0
EXTRACT: note_on channel=0 note=60 velocity=0 time=0
EXTRACT: note_on channel=0 note=64 velocity=0 time=0
EXTRACT: note_on channel=0 note=55 velocity=79 time=0
EXTRACT: note_on channel=0 note=60 velocity=79 time=0
EXTRACT: note_on channel=0 note=64 velocity=79 time=0
EXTRACT: note_on channel=0 note=79 velocity=0 time=0.4054055
EXTRACT: note_on channel=0 note=81 velocity=85 time=0
EXTRACT: note_on channel=0 note=81 velocity=0 time=0.20270275
EXTRACT: note_on channel=0 note=76 velocity=67 time=0
EXTRACT: note_on channel=0 note=55 velocity=0 time=0.20270275
EXTRACT: note_on channel=0 note=60 velocity=0 time=0
EXTRACT: note_on channel=0 note=64 velocity=0 time=0
EXTRACT: note_on channel=0 note=53 velocity=71 time=0
EXTRACT: note_on channel=0 note=57 velocity=71 time=0
EXTRACT: note_on channel=0 note=60 velocity=71 time=0
EXTRACT: note_on channel=0 note=76 velocity=0 time=0.20270275
EXTRACT: note_on channel=0 note=74 velocity=74 time=0
EXTRACT: note_on channel=0 note=53 velocity=0 time=0.60810825
EXTRACT: note_on channel=0 note=57 velocity=0 time=0
EXTRACT: note_on channel=0 note=60 velocity=0 time=0
EXTRACT: note_on channel=0 note=53 velocity=74 time=0
EXTRACT: note_on channel=0 note=57 velocity=74 time=0
EXTRACT: note_on channel=0 note=60 velocity=74 time=0
EXTRACT: note_on channel=0 note=74 velocity=0 time=0.810811
EXTRACT: note_on channel=0 note=53 velocity=0 time=0
EXTRACT: note_on channel=0 note=57 velocity=0 time=0
EXTRACT: note_on channel=0 note=60 velocity=0 time=0
EXTRACT: note_on channel=0 note=55 velocity=86 time=0
EXTRACT: note_on channel=0 note=59 velocity=86 time=0
EXTRACT: note_on channel=0 note=62 velocity=86 time=0
EXTRACT: note_on channel=0 note=67 velocity=68 time=0.20270275
EXTRACT: note_on channel=0 note=67 velocity=0 time=0.20270275
EXTRACT: note_on channel=0 note=69 velocity=80 time=0
EXTRACT: note_on channel=0 note=69 velocity=0 time=0.20270275
EXTRACT: note_on channel=0 note=76 velocity=92 time=0
EXTRACT: note_on channel=0 note=55 velocity=0 time=0.20270275
EXTRACT: note_on channel=0 note=59 velocity=0 time=0
EXTRACT: note_on channel=0 note=62 velocity=0 time=0
EXTRACT: note_on channel=0 note=55 velocity=74 time=0
EXTRACT: note_on channel=0 note=59 velocity=74 time=0
EXTRACT: note_on channel=0 note=62 velocity=74 time=0
EXTRACT: note_on channel=0 note=76 velocity=0 time=0.20270275
EXTRACT: note_on channel=0 note=74 velocity=72 time=0
EXTRACT: note_on channel=0 note=74 velocity=0 time=0.20270275
EXTRACT: note_on channel=0 note=76 velocity=82 time=0
EXTRACT: note_on channel=0 note=76 velocity=0 time=0.4054055
EXTRACT: note_on channel=0 note=72 velocity=66 time=0
EXTRACT: note_on channel=0 note=55 velocity=0 time=0
EXTRACT: note_on channel=0 note=59 velocity=0 time=0
EXTRACT: note_on channel=0 note=62 velocity=0 time=0
EXTRACT: note_on channel=0 note=55 velocity=83 time=0
EXTRACT: note_on channel=0 note=60 velocity=83 time=0
EXTRACT: note_on channel=0 note=64 velocity=83 time=0
EXTRACT: note_on channel=0 note=72 velocity=0 time=0.810811
EXTRACT: note_on channel=0 note=55 velocity=0 time=0
EXTRACT: note_on channel=0 note=60 velocity=0 time=0
EXTRACT: note_on channel=0 note=64 velocity=0 time=0
EXTRACT: note_on channel=0 note=55 velocity=75 time=0
EXTRACT: note_on channel=0 note=60 velocity=75 time=0
EXTRACT: note_on channel=0 note=64 velocity=75 time=0
EXTRACT: note_on channel=0 note=81 velocity=67 time=0.60810825
EXTRACT: note_on channel=0 note=55 velocity=0 time=0.20270275
EXTRACT: note_on channel=0 note=60 velocity=0 time=0
EXTRACT: note_on channel=0 note=64 velocity=0 time=0
EXTRACT: note_on channel=0 note=55 velocity=80 time=0
EXTRACT: note_on channel=0 note=60 velocity=80 time=0
EXTRACT: note_on channel=0 note=64 velocity=80 time=0
EXTRACT: note_on channel=0 note=81 velocity=0 time=0.20270275
EXTRACT: note_on channel=0 note=81 velocity=76 time=0
EXTRACT: note_on channel=0 note=81 velocity=0 time=0.20270275
EXTRACT: note_on channel=0 note=79 velocity=74 time=0
EXTRACT: note_on channel=0 note=79 velocity=0 time=0.20270275
EXTRACT: note_on channel=0 note=79 velocity=78 time=0
EXTRACT: note_on channel=0 note=55 velocity=0 time=0.20270275
EXTRACT: note_on channel=0 note=60 velocity=0 time=0
EXTRACT: note_on channel=0 note=64 velocity=0 time=0
EXTRACT: note_on channel=0 note=55 velocity=81 time=0
EXTRACT: note_on channel=0 note=60 velocity=81 time=0
EXTRACT: note_on channel=0 note=64 velocity=81 time=0
EXTRACT: note_on channel=0 note=79 velocity=0 time=0.20270275
EXTRACT: note_on channel=0 note=84 velocity=85 time=0
EXTRACT: note_on channel=0 note=84 velocity=0 time=0.4054055
EXTRACT: note_on channel=0 note=81 velocity=73 time=0
EXTRACT: note_on channel=0 note=81 velocity=0 time=0.20270275
EXTRACT: note_on channel=0 note=81 velocity=65 time=0
EXTRACT: note_on channel=0 note=55 velocity=0 time=0
EXTRACT: note_on channel=0 note=60 velocity=0 time=0
EXTRACT: note_on channel=0 note=64 velocity=0 time=0
EXTRACT: note_on channel=0 note=53 velocity=70 time=0
EXTRACT: note_on channel=0 note=57 velocity=70 time=0
EXTRACT: note_on channel=0 note=60 velocity=70 time=0
EXTRACT: note_on channel=0 note=81 velocity=0 time=0.20270275
EXTRACT: note_on channel=0 note=79 velocity=68 time=0
EXTRACT: note_on channel=0 note=79 velocity=0 time=0.20270275
EXTRACT: note_on channel=0 note=79 velocity=74 time=0
EXTRACT: note_on channel=0 note=79 velocity=0 time=0.20270275
EXTRACT: note_on channel=0 note=79 velocity=77 time=0
EXTRACT: note_on channel=0 note=53 velocity=0 time=0.20270275
EXTRACT: note_on channel=0 note=57 velocity=0 time=0
EXTRACT: note_on channel=0 note=60 velocity=0 time=0
EXTRACT: note_on channel=0 note=53 velocity=74 time=0
EXTRACT: note_on channel=0 note=57 velocity=74 time=0
EXTRACT: note_on channel=0 note=60 velocity=74 time=0
EXTRACT: note_on channel=0 note=79 velocity=0 time=0.20270275
EXTRACT: note_on channel=0 note=84 velocity=89 time=0
EXTRACT: note_on channel=0 note=84 velocity=0 time=0.4054055
EXTRACT: note_on channel=0 note=81 velocity=68 time=0
EXTRACT: note_on channel=0 note=53 velocity=0 time=0.20270275
EXTRACT: note_on channel=0 note=57 velocity=0 time=0
EXTRACT: note_on channel=0 note=60 velocity=0 time=0
EXTRACT: note_on channel=0 note=55 velocity=82 time=0
EXTRACT: note_on channel=0 note=59 velocity=82 time=0
EXTRACT: note_on channel=0 note=62 velocity=82 time=0
EXTRACT: note_on channel=0 note=81 velocity=0 time=0.20270275
EXTRACT: note_on channel=0 note=79 velocity=74 time=0
EXTRACT: note_on channel=0 note=79 velocity=0 time=0.4054055
EXTRACT: note_on channel=0 note=79 velocity=73 time=0
EXTRACT: note_on channel=0 note=79 velocity=0 time=0.20270275
EXTRACT: note_on channel=0 note=79 velocity=77 time=0
EXTRACT: note_on channel=0 note=55 velocity=0 time=0
EXTRACT: note_on channel=0 note=59 velocity=0 time=0
EXTRACT: note_on channel=0 note=62 velocity=0 time=0
EXTRACT: note_on channel=0 note=55 velocity=71 time=0
EXTRACT: note_on channel=0 note=59 velocity=71 time=0
EXTRACT: note_on channel=0 note=62 velocity=71 time=0
EXTRACT: note_on channel=0 note=79 velocity=0 time=0.4054055
EXTRACT: note_on channel=0 note=77 velocity=72 time=0
EXTRACT: note_on channel=0 note=77 velocity=0 time=0.4054055
EXTRACT: note_on channel=0 note=76 velocity=71 time=0
EXTRACT: note_on channel=0 note=55 velocity=0 time=0
EXTRACT: note_on channel=0 note=59 velocity=0 time=0
EXTRACT: note_on channel=0 note=62 velocity=0 time=0
EXTRACT: note_on channel=0 note=57 velocity=82 time=0
EXTRACT: note_on channel=0 note=60 velocity=82 time=0
EXTRACT: note_on channel=0 note=64 velocity=82 time=0
EXTRACT: note_on channel=0 note=76 velocity=0 time=0.20270275
EXTRACT: note_on channel=0 note=74 velocity=67 time=0
EXTRACT: note_on channel=0 note=74 velocity=0 time=0.20270275
EXTRACT: note_on channel=0 note=76 velocity=82 time=0
EXTRACT: note_on channel=0 note=76 velocity=0 time=0.20270275
EXTRACT: note_on channel=0 note=79 velocity=84 time=0
EXTRACT: note_on channel=0 note=57 velocity=0 time=0.20270275
EXTRACT: note_on channel=0 note=60 velocity=0 time=0
EXTRACT: note_on channel=0 note=64 velocity=0 time=0
EXTRACT: note_on channel=0 note=57 velocity=76 time=0
EXTRACT: note_on channel=0 note=60 velocity=76 time=0
EXTRACT: note_on channel=0 note=64 velocity=76 time=0
EXTRACT: note_on channel=0 note=79 velocity=0 time=0.4054055
EXTRACT: note_on channel=0 note=81 velocity=80 time=0
EXTRACT: note_on channel=0 note=57 velocity=0 time=0.4054055
EXTRACT: note_on channel=0 note=60 velocity=0 time=0
EXTRACT: note_on channel=0 note=64 velocity=0 time=0
EXTRACT: note_on channel=0 note=50 velocity=68 time=0
EXTRACT: note_on channel=0 note=54 velocity=68 time=0
EXTRACT: note_on channel=0 note=57 velocity=68 time=0
EXTRACT: note_on channel=0 note=81 velocity=0 time=0.4054055
EXTRACT: note_on channel=0 note=79 velocity=66 time=0
EXTRACT: note_on channel=0 note=79 velocity=0 time=0.4054055
EXTRACT: note_on channel=0 note=79 velocity=76 time=0
EXTRACT: note_on channel=0 note=50 velocity=0 time=0
EXTRACT: note_on channel=0 note=54 velocity=0 time=0
EXTRACT: note_on channel=0 note=57 velocity=0 time=0
EXTRACT: note_on channel=0 note=50 velocity=75 time=0
EXTRACT: note_on channel=0 note=54 velocity=75 time=0
EXTRACT: note_on channel=0 note=57 velocity=75 time=0
EXTRACT: note_on channel=0 note=79 velocity=0 time=0.4054055
EXTRACT: note_on channel=0 note=84 velocity=84 time=0
EXTRACT: note_on channel=0 note=84 velocity=0 time=0.4054055
EXTRACT: note_on channel=0 note=76 velocity=67 time=0
EXTRACT: note_on channel=0 note=50 velocity=0 time=0
EXTRACT: note_on channel=0 note=54 velocity=0 time=0
EXTRACT: note_on channel=0 note=57 velocity=0 time=0
EXTRACT: note_on channel=0 note=53 velocity=83 time=0
EXTRACT: note_on channel=0 note=57 velocity=83 time=0
EXTRACT: note_on channel=0 note=60 velocity=83 time=0
EXTRACT: note_on channel=0 note=76 velocity=0 time=0.20270275
EXTRACT: note_on channel=0 note=74 velocity=68 time=0
EXTRACT: note_on channel=0 note=74 velocity=0 time=0.20270275
EXTRACT: note_on channel=0 note=72 velocity=68 time=0
EXTRACT: note_on channel=0 note=53 velocity=0 time=0.4054055
EXTRACT: note_on channel=0 note=57 velocity=0 time=0
EXTRACT: note_on channel=0 note=60 velocity=0 time=0
EXTRACT: note_on channel=0 note=53 velocity=73 time=0
EXTRACT: note_on channel=0 note=57 velocity=73 time=0
EXTRACT: note_on channel=0 note=60 velocity=73 time=0
EXTRACT: note_on channel=0 note=72 velocity=0 time=0.4054055
EXTRACT: note_on channel=0 note=69 velocity=69 time=0
EXTRACT: note_on channel=0 note=69 velocity=0 time=0.20270275
EXTRACT: note_on channel=0 note=72 velocity=82 time=0
EXTRACT: note_on channel=0 note=72 velocity=0 time=0.20270275
EXTRACT: note_on channel=0 note=74 velocity=82 time=0
EXTRACT: note_on channel=0 note=53 velocity=0 time=0
EXTRACT: note_on channel=0 note=57 velocity=0 time=0
EXTRACT: note_on channel=0 note=60 velocity=0 time=0
EXTRACT: note_on channel=0 note=53 velocity=73 time=0
EXTRACT: note_on channel=0 note=56 velocity=73 time=0
EXTRACT: note_on channel=0 note=60 velocity=73 time=0
EXTRACT: note_on channel=0 note=74 velocity=0 time=0.20270275
EXTRACT: note_on channel=0 note=76 velocity=82 time=0
EXTRACT: note_on channel=0 note=76 velocity=0 time=0.20270275
EXTRACT: note_on channel=0 note=74 velocity=70 time=0
EXTRACT: note_on channel=0 note=74 velocity=0 time=0.20270275
EXTRACT: note_on channel=0 note=72 velocity=76 time=0
EXTRACT: note_on channel=0 note=72 velocity=0 time=0.20270275
EXTRACT: note_on channel=0 note=74 velocity=80 time=0
EXTRACT: note_on channel=0 note=53 velocity=0 time=0
EXTRACT: note_on channel=0 note=56 velocity=0 time=0
EXTRACT: note_on channel=0 note=60 velocity=0 time=0
EXTRACT: note_on channel=0 note=53 velocity=75 time=0
EXTRACT: note_on channel=0 note=56 velocity=75 time=0
EXTRACT: note_on channel=0 note=60 velocity=75 time=0
EXTRACT: note_on channel=0 note=74 velocity=0 time=0.20270275
EXTRACT: note_on channel=0 note=72 velocity=71 time=0
EXTRACT: note_on channel=0 note=72 velocity=0 time=0.20270275
EXTRACT: note_on channel=0 note=72 velocity=79 time=0
EXTRACT: note_on channel=0 note=53 velocity=0 time=0.4054055
EXTRACT: note_on channel=0 note=56 velocity=0 time=0
EXTRACT: note_on channel=0 note=60 velocity=0 time=0
EXTRACT: note_on channel=0 note=48 velocity=72 time=0
EXTRACT: note_on channel=0 note=52 velocity=72 time=0
EXTRACT: note_on channel=0 note=55 velocity=72 time=0
EXTRACT: note_on channel=0 note=72 velocity=0 time=1.621622
EXTRACT: note_on channel=0 note=48 velocity=0 time=0.810811
EXTRACT: note_on channel=0 note=52 velocity=0 time=0
EXTRACT: note_on channel=0 note=55 velocity=0 time=0
EXTRACT: note_on channel=0 note=48 velocity=79 time=0
EXTRACT: note_on channel=0 note=53 velocity=79 time=0
EXTRACT: note_on channel=0 note=57 velocity=79 time=0
EXTRACT: note_on channel=0 note=60 velocity=66 time=0.810811
EXTRACT: note_on channel=0 note=64 velocity=66 time=0
EXTRACT: note_on channel=0 note=48 velocity=0 time=0
EXTRACT: note_on channel=0 note=53 velocity=0 time=0
EXTRACT: note_on channel=0 note=57 velocity=0 time=0
EXTRACT: note_on channel=0 note=48 velocity=71 time=0
EXTRACT: note_on channel=0 note=52 velocity=71 time=0
EXTRACT: note_on channel=0 note=55 velocity=71 time=0
EXTRACT: note_on channel=0 note=60 velocity=0 time=0.4054055
EXTRACT: note_on channel=0 note=64 velocity=0 time=0
EXTRACT: note_on channel=0 note=55 velocity=63 time=0
EXTRACT: note_on channel=0 note=55 velocity=0 time=0.4054055
EXTRACT: note_on channel=0 note=60 velocity=85 time=0
EXTRACT: note_on channel=0 note=64 velocity=85 time=0
EXTRACT: note_on channel=0 note=60 velocity=0 time=0.4054055
EXTRACT: note_on channel=0 note=64 velocity=0 time=0
EXTRACT: note_on channel=0 note=55 velocity=71 time=0
EXTRACT: note_on channel=0 note=55 velocity=0 time=0.4054055
EXTRACT: note_on channel=0 note=60 velocity=93 time=0
EXTRACT: note_on channel=0 note=64 velocity=93 time=0
EXTRACT: note_on channel=0 note=60 velocity=0 time=0.4054055
EXTRACT: note_on channel=0 note=64 velocity=0 time=0
EXTRACT: note_on channel=0 note=55 velocity=72 time=0
EXTRACT: note_on channel=0 note=55 velocity=0 time=0.4054055
EXTRACT: note_on channel=0 note=59 velocity=90 time=0
EXTRACT: note_on channel=0 note=62 velocity=90 time=0
EXTRACT: note_on channel=0 note=48 velocity=0 time=0
EXTRACT: note_on channel=0 note=52 velocity=0 time=0
EXTRACT: note_on channel=0 note=55 velocity=0 time=0
EXTRACT: note_on channel=0 note=47 velocity=66 time=0
EXTRACT: note_on channel=0 note=59 velocity=0 time=0.4054055
EXTRACT: note_on channel=0 note=62 velocity=0 time=0
EXTRACT: note_on channel=0 note=55 velocity=71 time=0
EXTRACT: note_on channel=0 note=55 velocity=0 time=0.4054055
EXTRACT: note_on channel=0 note=47 velocity=0 time=0
EXTRACT: note_on channel=0 note=57 velocity=94 time=0
EXTRACT: note_on channel=0 note=60 velocity=94 time=0
EXTRACT: note_on channel=0 note=64 velocity=94 time=0
EXTRACT: note_on channel=0 note=76 velocity=66 time=0.4054055
EXTRACT: note_on channel=0 note=76 velocity=0 time=0.4054055
EXTRACT: note_on channel=0 note=76 velocity=73 time=0
EXTRACT: note_on channel=0 note=57 velocity=0 time=0
EXTRACT: note_on channel=0 note=60 velocity=0 time=0
EXTRACT: note_on channel=0 note=64 velocity=0 time=0
EXTRACT: note_on channel=0 note=57 velocity=81 time=0
EXTRACT: note_on channel=0 note=60 velocity=81 time=0
EXTRACT: note_on channel=0 note=64 velocity=81 time=0
EXTRACT: note_on channel=0 note=76 velocity=0 time=0.4054055
EXTRACT: note_on channel=0 note=76 velocity=75 time=0
EXTRACT: note_on channel=0 note=76 velocity=0 time=0.20270275
EXTRACT: note_on channel=0 note=74 velocity=72 time=0
EXTRACT: note_on channel=0 note=74 velocity=0 time=0.20270275
EXTRACT: note_on channel=0 note=76 velocity=77 time=0
EXTRACT: note_on channel=0 note=57 velocity=0 time=0
EXTRACT: note_on channel=0 note=60 velocity=0 time=0
EXTRACT: note_on channel=0 note=64 velocity=0 time=0
EXTRACT: note_on channel=0 note=55 velocity=76 time=0
EXTRACT: note_on channel=0 note=60 velocity=76 time=0
EXTRACT: note_on channel=0 note=64 velocity=76 time=0
EXTRACT: note_on channel=0 note=76 velocity=0 time=0.4054055
EXTRACT: note_on channel=0 note=76 velocity=77 time=0
EXTRACT: note_on channel=0 note=76 velocity=0 time=0.20270275
EXTRACT: note_on channel=0 note=74 velocity=71 time=0
EXTRACT: note_on channel=0 note=74 velocity=0 time=0.20270275
EXTRACT: note_on channel=0 note=76 velocity=83 time=0
EXTRACT: note_on channel=0 note=55 velocity=0 time=0
EXTRACT: note_on channel=0 note=60 velocity=0 time=0
EXTRACT: note_on channel=0 note=64 velocity=0 time=0
EXTRACT: note_on channel=0 note=55 velocity=79 time=0
EXTRACT: note_on channel=0 note=60 velocity=79 time=0
EXTRACT: note_on channel=0 note=64 velocity=79 time=0
EXTRACT: note_on channel=0 note=76 velocity=0 time=0.20270275
EXTRACT: note_on channel=0 note=74 velocity=73 time=0
EXTRACT: note_on channel=0 note=74 velocity=0 time=0.20270275
EXTRACT: note_on channel=0 note=72 velocity=71 time=0
EXTRACT: note_on channel=0 note=72 velocity=0 time=0.4054055
EXTRACT: note_on channel=0 note=76 velocity=83 time=0
EXTRACT: note_on channel=0 note=55 velocity=0 time=0
EXTRACT: note_on channel=0 note=60 velocity=0 time=0
EXTRACT: note_on channel=0 note=64 velocity=0 time=0
EXTRACT: note_on channel=0 note=57 velocity=78 time=0
EXTRACT: note_on channel=0 note=62 velocity=78 time=0
EXTRACT: note_on channel=0 note=65 velocity=78 time=0
EXTRACT: note_on channel=0 note=76 velocity=0 time=0.4054055
EXTRACT: note_on channel=0 note=77 velocity=83 time=0
EXTRACT: note_on channel=0 note=77 velocity=0 time=0.20270275
EXTRACT: note_on channel=0 note=77 velocity=76 time=0
EXTRACT: note_on channel=0 note=57 velocity=0 time=0.20270275
EXTRACT: note_on channel=0 note=62 velocity=0 time=0
EXTRACT: note_on channel=0 note=65 velocity=0 time=0
EXTRACT: note_on channel=0 note=57 velocity=76 time=0
EXTRACT: note_on channel=0 note=62 velocity=76 time=0
EXTRACT: note_on channel=0 note=65 velocity=76 time=0
EXTRACT: note_on channel=0 note=77 velocity=0 time=0.810811
EXTRACT: note_on channel=0 note=57 velocity=0 time=0
EXTRACT: note_on channel=0 note=62 velocity=0 time=0
EXTRACT: note_on channel=0 note=65 velocity=0 time=0
EXTRACT: note_on channel=0 note=57 velocity=77 time=0
EXTRACT: note_on channel=0 note=62 velocity=77 time=0
EXTRACT: note_on channel=0 note=65 velocity=77 time=0
EXTRACT: note_on channel=0 note=57 velocity=0 time=0.810811
EXTRACT: note_on channel=0 note=62 velocity=0 time=0
EXTRACT: note_on channel=0 note=65 velocity=0 time=0
EXTRACT: note_on channel=0 note=57 velocity=74 time=0
EXTRACT: note_on channel=0 note=62 velocity=74 time=0
EXTRACT: note_on channel=0 note=65 velocity=74 time=0
EXTRACT: note_on channel=0 note=57 velocity=0 time=0.810811
EXTRACT: note_on channel=0 note=62 velocity=0 time=0
EXTRACT: note_on channel=0 note=65 velocity=0 time=0
EXTRACT: note_on channel=0 note=55 velocity=70 time=0
EXTRACT: note_on channel=0 note=59 velocity=70 time=0
EXTRACT: note_on channel=0 note=62 velocity=70 time=0
EXTRACT: note_on channel=0 note=74 velocity=66 time=0.4054055
EXTRACT: note_on channel=0 note=74 velocity=0 time=0.4054055
EXTRACT: note_on channel=0 note=74 velocity=73 time=0
EXTRACT: note_on channel=0 note=55 velocity=0 time=0
EXTRACT: note_on channel=0 note=59 velocity=0 time=0
EXTRACT: note_on channel=0 note=62 velocity=0 time=0
EXTRACT: note_on channel=0 note=55 velocity=73 time=0
EXTRACT: note_on channel=0 note=59 velocity=73 time=0
EXTRACT: note_on channel=0 note=62 velocity=73 time=0
EXTRACT: note_on channel=0 note=74 velocity=0 time=0.4054055
EXTRACT: note_on channel=0 note=74 velocity=77 time=0
EXTRACT: note_on channel=0 note=74 velocity=0 time=0.20270275
EXTRACT: note_on channel=0 note=72 velocity=71 time=0
EXTRACT: note_on channel=0 note=72 velocity=0 time=0.20270275
EXTRACT: note_on channel=0 note=74 velocity=80 time=0
EXTRACT: note_on channel=0 note=55 velocity=0 time=0
EXTRACT: note_on channel=0 note=59 velocity=0 time=0
EXTRACT: note_on channel=0 note=62 velocity=0 time=0
EXTRACT: note_on channel=0 note=55 velocity=73 time=0
EXTRACT: note_on channel=0 note=59 velocity=73 time=0
EXTRACT: note_on channel=0 note=62 velocity=73 time=0
EXTRACT: note_on channel=0 note=74 velocity=0 time=0.20270275
EXTRACT: note_on channel=0 note=72 velocity=66 time=0
EXTRACT: note_on channel=0 note=72 velocity=0 time=0.20270275
EXTRACT: note_on channel=0 note=74 velocity=84 time=0
EXTRACT: note_on channel=0 note=74 velocity=0 time=0.4054055
EXTRACT: note_on channel=0 note=74 velocity=75 time=0
EXTRACT: note_on channel=0 note=55 velocity=0 time=0
EXTRACT: note_on channel=0 note=59 velocity=0 time=0
EXTRACT: note_on channel=0 note=62 velocity=0 time=0
EXTRACT: note_on channel=0 note=55 velocity=78 time=0
EXTRACT: note_on channel=0 note=59 velocity=78 time=0
EXTRACT: note_on channel=0 note=62 velocity=78 time=0
EXTRACT: note_on channel=0 note=74 velocity=0 time=0.20270275
EXTRACT: note_on channel=0 note=72 velocity=68 time=0
EXTRACT: note_on channel=0 note=72 velocity=0 time=0.20270275
EXTRACT: note_on channel=0 note=69 velocity=69 time=0
EXTRACT: note_on channel=0 note=69 velocity=0 time=0.4054055
EXTRACT: note_on channel=0 note=74 velocity=83 time=0
EXTRACT: note_on channel=0 note=55 velocity=0 time=0
EXTRACT: note_on channel=0 note=59 velocity=0 time=0
EXTRACT: note_on channel=0 note=62 velocity=0 time=0
EXTRACT: note_on channel=0 note=60 velocity=87 time=0
EXTRACT: note_on channel=0 note=64 velocity=87 time=0
EXTRACT: note_on channel=0 note=67 velocity=87 time=0
EXTRACT: note_on channel=0 note=74 velocity=0 time=0.4054055
EXTRACT: note_on channel=0 note=76 velocity=81 time=0
EXTRACT: note_on channel=0 note=76 velocity=0 time=0.20270275
EXTRACT: note_on channel=0 note=76 velocity=75 time=0
EXTRACT: note_on channel=0 note=60 velocity=0 time=0.20270275
EXTRACT: note_on channel=0 note=64 velocity=0 time=0
EXTRACT: note_on channel=0 note=67 velocity=0 time=0
EXTRACT: note_on channel=0 note=60 velocity=76 time=0
EXTRACT: note_on channel=0 note=64 velocity=76 time=0
EXTRACT: note_on channel=0 note=67 velocity=76 time=0
EXTRACT: note_on channel=0 note=76 velocity=0 time=0.810811
EXTRACT: note_on channel=0 note=60 velocity=0 time=0
EXTRACT: note_on channel=0 note=64 velocity=0 time=0
EXTRACT: note_on channel=0 note=67 velocity=0 time=0
EXTRACT: note_on channel=0 note=59 velocity=80 time=0
EXTRACT: note_on channel=0 note=64 velocity=80 time=0
EXTRACT: note_on channel=0 note=67 velocity=80 time=0
EXTRACT: note_on channel=0 note=59 velocity=0 time=0.810811
EXTRACT: note_on channel=0 note=64 velocity=0 time=0
EXTRACT: note_on channel=0 note=67 velocity=0 time=0
EXTRACT: note_on channel=0 note=59 velocity=75 time=0
EXTRACT: note_on channel=0 note=64 velocity=75 time=0
EXTRACT: note_on channel=0 note=67 velocity=75 time=0
EXTRACT: note_on channel=0 note=76 velocity=68 time=0.4054055
EXTRACT: note_on channel=0 note=76 velocity=0 time=0.20270275
EXTRACT: note_on channel=0 note=79 velocity=79 time=0
EXTRACT: note_on channel=0 note=79 velocity=0 time=0.20270275
EXTRACT: note_on channel=0 note=81 velocity=69 time=0
EXTRACT: note_on channel=0 note=59 velocity=0 time=0
EXTRACT: note_on channel=0 note=64 velocity=0 time=0
EXTRACT: note_on channel=0 note=67 velocity=0 time=0
EXTRACT: note_on channel=0 note=57 velocity=69 time=0
EXTRACT: note_on channel=0 note=60 velocity=69 time=0
EXTRACT: note_on channel=0 note=64 velocity=69 time=0
EXTRACT: note_on channel=0 note=81 velocity=0 time=0.20270275
EXTRACT: note_on channel=0 note=81 velocity=71 time=0
EXTRACT: note_on channel=0 note=57 velocity=0 time=0.60810825
EXTRACT: note_on channel=0 note=60 velocity=0 time=0
EXTRACT: note_on channel=0 note=64 velocity=0 time=0
EXTRACT: note_on channel=0 note=57 velocity=74 time=0
EXTRACT: note_on channel=0 note=60 velocity=74 time=0
EXTRACT: note_on channel=0 note=64 velocity=74 time=0
EXTRACT: note_on channel=0 note=81 velocity=0 time=0.60810825
EXTRACT: note_on channel=0 note=84 velocity=84 time=0
EXTRACT: note_on channel=0 note=57 velocity=0 time=0.20270275
EXTRACT: note_on channel=0 note=60 velocity=0 time=0
EXTRACT: note_on channel=0 note=64 velocity=0 time=0
EXTRACT: note_on channel=0 note=55 velocity=74 time=0
EXTRACT: note_on channel=0 note=60 velocity=74 time=0
EXTRACT: note_on channel=0 note=64 velocity=74 time=0
EXTRACT: note_on channel=0 note=84 velocity=0 time=0.20270275
EXTRACT: note_on channel=0 note=84 velocity=74 time=0
EXTRACT: note_on channel=0 note=84 velocity=0 time=0.20270275
EXTRACT: note_on channel=0 note=83 velocity=74 time=0
EXTRACT: note_on channel=0 note=83 velocity=0 time=0.20270275
EXTRACT: note_on channel=0 note=83 velocity=71 time=0
EXTRACT: note_on channel=0 note=83 velocity=0 time=0.20270275
EXTRACT: note_on channel=0 note=81 velocity=68 time=0
EXTRACT: note_on channel=0 note=55 velocity=0 time=0
EXTRACT: note_on channel=0 note=60 velocity=0 time=0
EXTRACT: note_on channel=0 note=64 velocity=0 time=0
EXTRACT: note_on channel=0 note=55 velocity=79 time=0
EXTRACT: note_on channel=0 note=60 velocity=79 time=0
EXTRACT: note_on channel=0 note=64 velocity=79 time=0
EXTRACT: note_on channel=0 note=81 velocity=0 time=0.4054055
EXTRACT: note_on channel=0 note=79 velocity=69 time=0
EXTRACT: note_on channel=0 note=79 velocity=0 time=0.20270275
EXTRACT: note_on channel=0 note=79 velocity=68 time=0
EXTRACT: note_on channel=0 note=55 velocity=0 time=0.20270275
EXTRACT: note_on channel=0 note=60 velocity=0 time=0
EXTRACT: note_on channel=0 note=64 velocity=0 time=0
EXTRACT: note_on channel=0 note=57 velocity=87 time=0
EXTRACT: note_on channel=0 note=62 velocity=87 time=0
EXTRACT: note_on channel=0 note=65 velocity=87 time=0
EXTRACT: note_on channel=0 note=79 velocity=0 time=0.4054055
EXTRACT: note_on channel=0 note=81 velocity=84 time=0
EXTRACT: note_on channel=0 note=81 velocity=0 time=0.4054055
EXTRACT: note_on channel=0 note=81 velocity=73 time=0
EXTRACT: note_on channel=0 note=57 velocity=0 time=0
EXTRACT: note_on channel=0 note=62 velocity=0 time=0
EXTRACT: note_on channel=0 note=65 velocity=0 time=0
EXTRACT: note_on channel=0 note=57 velocity=75 time=0
EXTRACT: note_on channel=0 note=62 velocity=75 time=0
EXTRACT: note_on channel=0 note=65 velocity=75 time=0
EXTRACT: note_on channel=0 note=81 velocity=0 time=0.20270275
EXTRACT: note_on channel=0 note=79 velocity=70 time=0
EXTRACT: note_on channel=0 note=79 velocity=0 time=0.20270275
EXTRACT: note_on channel=0 note=77 velocity=67 time=0
EXTRACT: note_on channel=0 note=57 velocity=0 time=0.4054055
EXTRACT: note_on channel=0 note=62 velocity=0 time=0
EXTRACT: note_on channel=0 note=65 velocity=0 time=0
EXTRACT: note_on channel=0 note=57 velocity=78 time=0
EXTRACT: note_on channel=0 note=62 velocity=78 time=0
EXTRACT: note_on channel=0 note=65 velocity=78 time=0
EXTRACT: note_on channel=0 note=77 velocity=0 time=0.4054055
EXTRACT: note_on channel=0 note=76 velocity=73 time=0
EXTRACT: note_on channel=0 note=76 velocity=0 time=0.4054055
EXTRACT: note_on channel=0 note=74 velocity=70 time=0
EXTRACT: note_on channel=0 note=57 velocity=0 time=0
EXTRACT: note_on channel=0 note=62 velocity=0 time=0
EXTRACT: note_on channel=0 note=65 velocity=0 time=0
EXTRACT: note_on channel=0 note=57 velocity=75 time=0
EXTRACT: note_on channel=0 note=62 velocity=75 time=0
EXTRACT: note_on channel=0 note=65 velocity=75 time=0
EXTRACT: note_on channel=0 note=74 velocity=0 time=0.4054055
EXTRACT: note_on channel=0 note=72 velocity=72 time=0
EXTRACT: note_on channel=0 note=72 velocity=0 time=0.20270275
EXTRACT: note_on channel=0 note=69 velocity=70 time=0
EXTRACT: note_on channel=0 note=69 velocity=0 time=0.20270275
EXTRACT: note_on channel=0 note=57 velocity=0 time=0
EXTRACT: note_on channel=0 note=62 velocity=0 time=0
EXTRACT: note_on channel=0 note=65 velocity=0 time=0
EXTRACT: note_on channel=0 note=55 velocity=70 time=0
EXTRACT: note_on channel=0 note=59 velocity=70 time=0
EXTRACT: note_on channel=0 note=62 velocity=70 time=0
EXTRACT: note_on channel=0 note=74 velocity=71 time=0.4054055
EXTRACT: note_on channel=0 note=74 velocity=0 time=0.4054055
EXTRACT: note_on channel=0 note=74 velocity=77 time=0
EXTRACT: note_on channel=0 note=55 velocity=0 time=0
EXTRACT: note_on channel=0 note=59 velocity=0 time=0
EXTRACT: note_on channel=0 note=62 velocity=0 time=0
EXTRACT: note_on channel=0 note=55 velocity=71 time=0
EXTRACT: note_on channel=0 note=59 velocity=71 time=0
EXTRACT: note_on channel=0 note=62 velocity=71 time=0
EXTRACT: note_on channel=0 note=74 velocity=0 time=0.4054055
EXTRACT: note_on channel=0 note=74 velocity=75 time=0
EXTRACT: note_on channel=0 note=74 velocity=0 time=0.20270275
EXTRACT: note_on channel=0 note=72 velocity=70 time=0
EXTRACT: note_on channel=0 note=72 velocity=0 time=0.20270275
EXTRACT: note_on channel=0 note=74 velocity=79 time=0
EXTRACT: note_on channel=0 note=55 velocity=0 time=0
EXTRACT: note_on channel=0 note=59 velocity=0 time=0
EXTRACT: note_on channel=0 note=62 velocity=0 time=0
EXTRACT: note_on channel=0 note=55 velocity=77 time=0
EXTRACT: note_on channel=0 note=59 velocity=77 time=0
EXTRACT: note_on channel=0 note=62 velocity=77 time=0
EXTRACT: note_on channel=0 note=74 velocity=0 time=0.20270275
EXTRACT: note_on channel=0 note=72 velocity=69 time=0
EXTRACT: note_on channel=0 note=72 velocity=0 time=0.60810825
EXTRACT: note_on channel=0 note=55 velocity=0 time=0
EXTRACT: note_on channel=0 note=59 velocity=0 time=0
EXTRACT: note_on channel=0 note=62 velocity=0 time=0
EXTRACT: note_on channel=0 note=55 velocity=72 time=0
EXTRACT: note_on channel=0 note=59 velocity=72 time=0
EXTRACT: note_on channel=0 note=62 velocity=72 time=0
EXTRACT: note_on channel=0 note=74 velocity=67 time=0.4054055
EXTRACT: note_on channel=0 note=74 velocity=0 time=0.20270275
EXTRACT: note_on channel=0 note=72 velocity=73 time=0
EXTRACT: note_on channel=0 note=72 velocity=0 time=0.20270275
EXTRACT: note_on channel=0 note=74 velocity=81 time=0
EXTRACT: note_on channel=0 note=55 velocity=0 time=0
EXTRACT: note_on channel=0 note=59 velocity=0 time=0
EXTRACT: note_on channel=0 note=62 velocity=0 time=0
EXTRACT: note_on channel=0 note=60 velocity=86 time=0
EXTRACT: note_on channel=0 note=64 velocity=86 time=0
EXTRACT: note_on channel=0 note=67 velocity=86 time=0
EXTRACT: note_on channel=0 note=74 velocity=0 time=0.4054055
EXTRACT: note_on channel=0 note=76 velocity=81 time=0
EXTRACT: note_on channel=0 note=76 velocity=0 time=0.20270275
EXTRACT: note_on channel=0 note=72 velocity=71 time=0
EXTRACT: note_on channel=0 note=60 velocity=0 time=0.20270275
EXTRACT: note_on channel=0 note=64 velocity=0 time=0
EXTRACT: note_on channel=0 note=67 velocity=0 time=0
EXTRACT: note_on channel=0 note=60 velocity=78 time=0
EXTRACT: note_on channel=0 note=64 velocity=78 time=0
EXTRACT: note_on channel=0 note=67 velocity=78 time=0
EXTRACT: note_on channel=0 note=72 velocity=0 time=0.4054055
EXTRACT: note_on channel=0 note=71 velocity=71 time=0
EXTRACT: note_on channel=0 note=71 velocity=0 time=0.4054055
EXTRACT: note_on channel=0 note=72 velocity=78 time=0
EXTRACT: note_on channel=0 note=60 velocity=0 time=0
EXTRACT: note_on channel=0 note=64 velocity=0 time=0
EXTRACT: note_on channel=0 note=67 velocity=0 time=0
EXTRACT: note_on channel=0 note=59 velocity=75 time=0
EXTRACT: note_on channel=0 note=64 velocity=75 time=0
EXTRACT: note_on channel=0 note=67 velocity=75 time=0
EXTRACT: note_on channel=0 note=72 velocity=0 time=0.4054055
EXTRACT: note_on channel=0 note=74 velocity=81 time=0
EXTRACT: note_on channel=0 note=74 velocity=0 time=0.4054055
EXTRACT: note_on channel=0 note=69 velocity=62 time=0
EXTRACT: note_on channel=0 note=59 velocity=0 time=0
EXTRACT: note_on channel=0 note=64 velocity=0 time=0
EXTRACT: note_on channel=0 note=67 velocity=0 time=0
EXTRACT: note_on channel=0 note=59 velocity=76 time=0
EXTRACT: note_on channel=0 note=64 velocity=76 time=0
EXTRACT: note_on channel=0 note=67 velocity=76 time=0
EXTRACT: note_on channel=0 note=69 velocity=0 time=0.4054055
EXTRACT: note_on channel=0 note=71 velocity=81 time=0
EXTRACT: note_on channel=0 note=71 velocity=0 time=0.4054055
EXTRACT: note_on channel=0 note=84 velocity=68 time=0
EXTRACT: note_on channel=0 note=59 velocity=0 time=0
EXTRACT: note_on channel=0 note=64 velocity=0 time=0
EXTRACT: note_on channel=0 note=67 velocity=0 time=0
EXTRACT: note_on channel=0 note=57 velocity=69 time=0
EXTRACT: note_on channel=0 note=60 velocity=69 time=0
EXTRACT: note_on channel=0 note=64 velocity=69 time=0
EXTRACT: note_on channel=0 note=84 velocity=0 time=0.810811
EXTRACT: note_on channel=0 note=83 velocity=69 time=0
EXTRACT: note_on channel=0 note=57 velocity=0 time=0
EXTRACT: note_on channel=0 note=60 velocity=0 time=0
EXTRACT: note_on channel=0 note=64 velocity=0 time=0
EXTRACT: note_on channel=0 note=57 velocity=75 time=0
EXTRACT: note_on channel=0 note=60 velocity=75 time=0
EXTRACT: note_on channel=0 note=64 velocity=75 time=0
EXTRACT: note_on channel=0 note=83 velocity=0 time=0.810811
EXTRACT: note_on channel=0 note=81 velocity=73 time=0
EXTRACT: note_on channel=0 note=57 velocity=0 time=0
EXTRACT: note_on channel=0 note=60 velocity=0 time=0
EXTRACT: note_on channel=0 note=64 velocity=0 time=0
EXTRACT: note_on channel=0 note=57 velocity=78 time=0
EXTRACT: note_on channel=0 note=60 velocity=78 time=0
EXTRACT: note_on channel=0 note=64 velocity=78 time=0
EXTRACT: note_on channel=0 note=81 velocity=0 time=0.4054055
EXTRACT: note_on channel=0 note=79 velocity=72 time=0
EXTRACT: note_on channel=0 note=57 velocity=0 time=0.4054055
EXTRACT: note_on channel=0 note=60 velocity=0 time=0
EXTRACT: note_on channel=0 note=64 velocity=0 time=0
EXTRACT: note_on channel=0 note=57 velocity=72 time=0
EXTRACT: note_on channel=0 note=60 velocity=72 time=0
EXTRACT: note_on channel=0 note=64 velocity=72 time=0
EXTRACT: note_on channel=0 note=79 velocity=0 time=0.4054055
EXTRACT: note_on channel=0 note=83 velocity=82 time=0
EXTRACT: note_on channel=0 note=57 velocity=0 time=0.4054055
EXTRACT: note_on channel=0 note=60 velocity=0 time=0
EXTRACT: note_on channel=0 note=64 velocity=0 time=0
EXTRACT: note_on channel=0 note=52 velocity=71 time=0
EXTRACT: note_on channel=0 note=55 velocity=71 time=0
EXTRACT: note_on channel=0 note=59 velocity=71 time=0
EXTRACT: note_on channel=0 note=52 velocity=0 time=0.810811
EXTRACT: note_on channel=0 note=55 velocity=0 time=0
EXTRACT: note_on channel=0 note=59 velocity=0 time=0
EXTRACT: note_on channel=0 note=52 velocity=78 time=0
EXTRACT: note_on channel=0 note=55 velocity=78 time=0
EXTRACT: note_on channel=0 note=59 velocity=78 time=0
EXTRACT: note_on channel=0 note=83 velocity=0 time=0.810811
EXTRACT: note_on channel=0 note=52 velocity=0 time=0
EXTRACT: note_on channel=0 note=55 velocity=0 time=0
EXTRACT: note_on channel=0 note=59 velocity=0 time=0
EXTRACT: note_on channel=0 note=52 velocity=76 time=0
EXTRACT: note_on channel=0 note=55 velocity=76 time=0
EXTRACT: note_on channel=0 note=59 velocity=76 time=0
EXTRACT: note_on channel=0 note=52 velocity=0 time=0.810811
EXTRACT: note_on channel=0 note=55 velocity=0 time=0
EXTRACT: note_on channel=0 note=59 velocity=0 time=0
EXTRACT: note_on channel=0 note=52 velocity=78 time=0
EXTRACT: note_on channel=0 note=55 velocity=78 time=0
EXTRACT: note_on channel=0 note=59 velocity=78 time=0
EXTRACT: note_on channel=0 note=52 velocity=0 time=0.810811
EXTRACT: note_on channel=0 note=55 velocity=0 time=0
EXTRACT: note_on channel=0 note=59 velocity=0 time=0
EXTRACT: note_on channel=0 note=53 velocity=81 time=0
EXTRACT: note_on channel=0 note=58 velocity=81 time=0
EXTRACT: note_on channel=0 note=62 velocity=81 time=0
EXTRACT: note_on channel=0 note=77 velocity=67 time=0.4054055
EXTRACT: note_on channel=0 note=77 velocity=0 time=0.4054055
EXTRACT: note_on channel=0 note=77 velocity=73 time=0
EXTRACT: note_on channel=0 note=53 velocity=0 time=0
EXTRACT: note_on channel=0 note=58 velocity=0 time=0
EXTRACT: note_on channel=0 note=62 velocity=0 time=0
EXTRACT: note_on channel=0 note=53 velocity=83 time=0
EXTRACT: note_on channel=0 note=58 velocity=83 time=0
EXTRACT: note_on channel=0 note=62 velocity=83 time=0
EXTRACT: note_on channel=0 note=77 velocity=0 time=0.4054055
EXTRACT: note_on channel=0 note=77 velocity=78 time=0
EXTRACT: note_on channel=0 note=77 velocity=0 time=0.4054055
EXTRACT: note_on channel=0 note=77 velocity=73 time=0
EXTRACT: note_on channel=0 note=53 velocity=0 time=0
EXTRACT: note_on channel=0 note=58 velocity=0 time=0
EXTRACT: note_on channel=0 note=62 velocity=0 time=0
EXTRACT: note_on channel=0 note=53 velocity=76 time=0
EXTRACT: note_on channel=0 note=58 velocity=76 time=0
EXTRACT: note_on channel=0 note=62 velocity=76 time=0
EXTRACT: note_on channel=0 note=77 velocity=0 time=0.4054055
EXTRACT: note_on channel=0 note=77 velocity=77 time=0
EXTRACT: note_on channel=0 note=77 velocity=0 time=0.4054055
EXTRACT: note_on channel=0 note=77 velocity=76 time=0
EXTRACT: note_on channel=0 note=53 velocity=0 time=0
EXTRACT: note_on channel=0 note=58 velocity=0 time=0
EXTRACT: note_on channel=0 note=62 velocity=0 time=0
EXTRACT: note_on channel=0 note=53 velocity=73 time=0
EXTRACT: note_on channel=0 note=58 velocity=73 time=0
EXTRACT: note_on channel=0 note=62 velocity=73 time=0
EXTRACT: note_on channel=0 note=77 velocity=0 time=0.4054055
EXTRACT: note_on channel=0 note=76 velocity=74 time=0
EXTRACT: note_on channel=0 note=76 velocity=0 time=0.4054055
EXTRACT: note_on channel=0 note=77 velocity=77 time=0
EXTRACT: note_on channel=0 note=53 velocity=0 time=0
EXTRACT: note_on channel=0 note=58 velocity=0 time=0
EXTRACT: note_on channel=0 note=62 velocity=0 time=0
EXTRACT: note_on channel=0 note=55 velocity=81 time=0
EXTRACT: note_on channel=0 note=60 velocity=81 time=0
EXTRACT: note_on channel=0 note=64 velocity=81 time=0
EXTRACT: note_on channel=0 note=77 velocity=0 time=0.20270275
EXTRACT: note_on channel=0 note=76 velocity=72 time=0
EXTRACT: note_on channel=0 note=55 velocity=0 time=0.60810825
EXTRACT: note_on channel=0 note=60 velocity=0 time=0
EXTRACT: note_on channel=0 note=64 velocity=0 time=0
EXTRACT: note_on channel=0 note=55 velocity=79 time=0
EXTRACT: note_on channel=0 note=60 velocity=79 time=0
EXTRACT: note_on channel=0 note=64 velocity=79 time=0
EXTRACT: note_on channel=0 note=76 velocity=0 time=0.4054055
EXTRACT: note_on channel=0 note=72 velocity=69 time=0
EXTRACT: note_on channel=0 note=72 velocity=0 time=0.4054055
EXTRACT: note_on channel=0 note=81 velocity=93 time=0
EXTRACT: note_on channel=0 note=55 velocity=0 time=0
EXTRACT: note_on channel=0 note=60 velocity=0 time=0
EXTRACT: note_on channel=0 note=64 velocity=0 time=0
EXTRACT: note_on channel=0 note=55 velocity=67 time=0
EXTRACT: note_on channel=0 note=59 velocity=67 time=0
EXTRACT: note_on channel=0 note=62 velocity=67 time=0
EXTRACT: note_on channel=0 note=81 velocity=0 time=0.4054055
EXTRACT: note_on channel=0 note=79 velocity=70 time=0
EXTRACT: note_on channel=0 note=79 velocity=0 time=0.20270275
EXTRACT: note_on channel=0 note=76 velocity=67 time=0
EXTRACT: note_on channel=0 note=76 velocity=0 time=0.20270275
EXTRACT: note_on channel=0 note=79 velocity=83 time=0
EXTRACT: note_on channel=0 note=55 velocity=0 time=0
EXTRACT: note_on channel=0 note=59 velocity=0 time=0
EXTRACT: note_on channel=0 note=62 velocity=0 time=0
EXTRACT: note_on channel=0 note=79 velocity=0 time=0.4054055
EXTRACT: note_on channel=0 note=81 velocity=82 time=0
EXTRACT: note_on channel=0 note=81 velocity=0 time=0.20270275
EXTRACT: note_on channel=0 note=76 velocity=64 time=0
EXTRACT: note_on channel=0 note=76 velocity=70 time=0.20270275
EXTRACT: note_on channel=0 note=76 velocity=0 time=0
EXTRACT: note_on channel=0 note=53 velocity=71 time=0
EXTRACT: note_on channel=0 note=57 velocity=71 time=0
EXTRACT: note_on channel=0 note=60 velocity=71 time=0
EXTRACT: note_on channel=0 note=76 velocity=0 time=0.20270275
EXTRACT: note_on channel=0 note=74 velocity=68 time=0
EXTRACT: note_on channel=0 note=53 velocity=0 time=0.60810825
EXTRACT: note_on channel=0 note=57 velocity=0 time=0
EXTRACT: note_on channel=0 note=60 velocity=0 time=0
EXTRACT: note_on channel=0 note=53 velocity=76 time=0
EXTRACT: note_on channel=0 note=57 velocity=76 time=0
EXTRACT: note_on channel=0 note=60 velocity=76 time=0
EXTRACT: note_on channel=0 note=74 velocity=0 time=0.810811
EXTRACT: note_on channel=0 note=53 velocity=0 time=0
EXTRACT: note_on channel=0 note=57 velocity=0 time=0
EXTRACT: note_on channel=0 note=60 velocity=0 time=0
EXTRACT: note_on channel=0 note=55 velocity=77 time=0
EXTRACT: note_on channel=0 note=59 velocity=77 time=0
EXTRACT: note_on channel=0 note=62 velocity=77 time=0
EXTRACT: note_on channel=0 note=67 velocity=66 time=0.4054055
EXTRACT: note_on channel=0 note=67 velocity=0 time=0.4054055
EXTRACT: note_on channel=0 note=69 velocity=79 time=0
EXTRACT: note_on channel=0 note=55 velocity=0 time=0
EXTRACT: note_on channel=0 note=59 velocity=0 time=0
EXTRACT: note_on channel=0 note=62 velocity=0 time=0
EXTRACT: note_on channel=0 note=55 velocity=78 time=0
EXTRACT: note_on channel=0 note=59 velocity=78 time=0
EXTRACT: note_on channel=0 note=62 velocity=78 time=0
EXTRACT: note_on channel=0 note=69 velocity=0 time=0.4054055
EXTRACT: note_on channel=0 note=72 velocity=86 time=0
EXTRACT: note_on channel=0 note=72 velocity=0 time=0.4054055
EXTRACT: note_on channel=0 note=76 velocity=91 time=0
EXTRACT: note_on channel=0 note=55 velocity=0 time=0
EXTRACT: note_on channel=0 note=59 velocity=0 time=0
EXTRACT: note_on channel=0 note=62 velocity=0 time=0
EXTRACT: note_on channel=0 note=55 velocity=79 time=0
EXTRACT: note_on channel=0 note=60 velocity=79 time=0
EXTRACT: note_on channel=0 note=64 velocity=79 time=0
EXTRACT: note_on channel=0 note=55 velocity=0 time=0.810811
EXTRACT: note_on channel=0 note=60 velocity=0 time=0
EXTRACT: note_on channel=0 note=64 velocity=0 time=0
EXTRACT: note_on channel=0 note=55 velocity=73 time=0
EXTRACT: note_on channel=0 note=60 velocity=73 time=0
EXTRACT: note_on channel=0 note=64 velocity=73 time=0
EXTRACT: note_on channel=0 note=76 velocity=0 time=0.60810825
EXTRACT: note_on channel=0 note=81 velocity=85 time=0
EXTRACT: note_on channel=0 note=55 velocity=0 time=0.20270275
EXTRACT: note_on channel=0 note=60 velocity=0 time=0
EXTRACT: note_on channel=0 note=64 velocity=0 time=0
EXTRACT: note_on channel=0 note=55 velocity=74 time=0
EXTRACT: note_on channel=0 note=60 velocity=74 time=0
EXTRACT: note_on channel=0 note=64 velocity=74 time=0
EXTRACT: note_on channel=0 note=81 velocity=0 time=0.20270275
EXTRACT: note_on channel=0 note=81 velocity=76 time=0
EXTRACT: note_on channel=0 note=81 velocity=0 time=0.20270275
EXTRACT: note_on channel=0 note=79 velocity=73 time=0
EXTRACT: note_on channel=0 note=79 velocity=0 time=0.20270275
EXTRACT: note_on channel=0 note=76 velocity=63 time=0
EXTRACT: note_on channel=0 note=76 velocity=0 time=0.20270275
EXTRACT: note_on channel=0 note=79 velocity=80 time=0
EXTRACT: note_on channel=0 note=55 velocity=0 time=0
EXTRACT: note_on channel=0 note=60 velocity=0 time=0
EXTRACT: note_on channel=0 note=64 velocity=0 time=0
EXTRACT: note_on channel=0 note=55 velocity=78 time=0
EXTRACT: note_on channel=0 note=60 velocity=78 time=0
EXTRACT: note_on channel=0 note=64 velocity=78 time=0
EXTRACT: note_on channel=0 note=79 velocity=0 time=0.4054055
EXTRACT: note_on channel=0 note=81 velocity=82 time=0
EXTRACT: note_on channel=0 note=81 velocity=0 time=0.20270275
EXTRACT: note_on channel=0 note=76 velocity=72 time=0
EXTRACT: note_on channel=0 note=55 velocity=0 time=0.20270275
EXTRACT: note_on channel=0 note=60 velocity=0 time=0
EXTRACT: note_on channel=0 note=64 velocity=0 time=0
EXTRACT: note_on channel=0 note=53 velocity=67 time=0
EXTRACT: note_on channel=0 note=57 velocity=67 time=0
EXTRACT: note_on channel=0 note=60 velocity=67 time=0
EXTRACT: note_on channel=0 note=76 velocity=0 time=0.20270275
EXTRACT: note_on channel=0 note=74 velocity=73 time=0
EXTRACT: note_on channel=0 note=53 velocity=0 time=0.60810825
EXTRACT: note_on channel=0 note=57 velocity=0 time=0
EXTRACT: note_on channel=0 note=60 velocity=0 time=0
EXTRACT: note_on channel=0 note=53 velocity=73 time=0
EXTRACT: note_on channel=0 note=57 velocity=73 time=0
EXTRACT: note_on channel=0 note=60 velocity=73 time=0
EXTRACT: note_on channel=0 note=74 velocity=0 time=0.810811
EXTRACT: note_on channel=0 note=53 velocity=0 time=0
EXTRACT: note_on channel=0 note=57 velocity=0 time=0
EXTRACT: note_on channel=0 note=60 velocity=0 time=0
EXTRACT: note_on channel=0 note=55 velocity=76 time=0
EXTRACT: note_on channel=0 note=59 velocity=76 time=0
EXTRACT: note_on channel=0 note=62 velocity=76 time=0
EXTRACT: note_on channel=0 note=67 velocity=67 time=0.20270275
EXTRACT: note_on channel=0 note=67 velocity=0 time=0.20270275
EXTRACT: note_on channel=0 note=69 velocity=79 time=0
EXTRACT: note_on channel=0 note=69 velocity=0 time=0.20270275
EXTRACT: note_on channel=0 note=76 velocity=94 time=0
EXTRACT: note_on channel=0 note=55 velocity=0 time=0.20270275
EXTRACT: note_on channel=0 note=59 velocity=0 time=0
EXTRACT: note_on channel=0 note=62 velocity=0 time=0
EXTRACT: note_on channel=0 note=55 velocity=75 time=0
EXTRACT: note_on channel=0 note=59 velocity=75 time=0
EXTRACT: note_on channel=0 note=62 velocity=75 time=0
EXTRACT: note_on channel=0 note=76 velocity=0 time=0.20270275
EXTRACT: note_on channel=0 note=74 velocity=71 time=0
EXTRACT: note_on channel=0 note=74 velocity=0 time=0.20270275
EXTRACT: note_on channel=0 note=76 velocity=80 time=0
EXTRACT: note_on channel=0 note=76 velocity=0 time=0.4054055
EXTRACT: note_on channel=0 note=72 velocity=70 time=0
EXTRACT: note_on channel=0 note=55 velocity=0 time=0
EXTRACT: note_on channel=0 note=59 velocity=0 time=0
EXTRACT: note_on channel=0 note=62 velocity=0 time=0
EXTRACT: note_on channel=0 note=55 velocity=81 time=0
EXTRACT: note_on channel=0 note=60 velocity=81 time=0
EXTRACT: note_on channel=0 note=64 velocity=81 time=0
EXTRACT: note_on channel=0 note=72 velocity=0 time=0.810811
EXTRACT: note_on channel=0 note=55 velocity=0 time=0
EXTRACT: note_on channel=0 note=60 velocity=0 time=0
EXTRACT: note_on channel=0 note=64 velocity=0 time=0
EXTRACT: note_on channel=0 note=55 velocity=74 time=0
EXTRACT: note_on channel=0 note=60 velocity=74 time=0
EXTRACT: note_on channel=0 note=64 velocity=74 time=0
EXTRACT: note_on channel=0 note=81 velocity=71 time=0.60810825
EXTRACT: note_on channel=0 note=55 velocity=0 time=0.20270275
EXTRACT: note_on channel=0 note=60 velocity=0 time=0
EXTRACT: note_on channel=0 note=64 velocity=0 time=0
EXTRACT: note_on channel=0 note=55 velocity=72 time=0
EXTRACT: note_on channel=0 note=60 velocity=72 time=0
EXTRACT: note_on channel=0 note=64 velocity=72 time=0
EXTRACT: note_on channel=0 note=81 velocity=0 time=0.20270275
EXTRACT: note_on channel=0 note=81 velocity=77 time=0
EXTRACT: note_on channel=0 note=81 velocity=0 time=0.20270275
EXTRACT: note_on channel=0 note=79 velocity=71 time=0
EXTRACT: note_on channel=0 note=79 velocity=0 time=0.20270275
EXTRACT: note_on channel=0 note=79 velocity=73 time=0
EXTRACT: note_on channel=0 note=55 velocity=0 time=0.20270275
EXTRACT: note_on channel=0 note=60 velocity=0 time=0
EXTRACT: note_on channel=0 note=64 velocity=0 time=0
EXTRACT: note_on channel=0 note=55 velocity=76 time=0
EXTRACT: note_on channel=0 note=60 velocity=76 time=0
EXTRACT: note_on channel=0 note=64 velocity=76 time=0
EXTRACT: note_on channel=0 note=79 velocity=0 time=0.20270275
EXTRACT: note_on channel=0 note=84 velocity=81 time=0
EXTRACT: note_on channel=0 note=84 velocity=0 time=0.4054055
EXTRACT: note_on channel=0 note=81 velocity=66 time=0
EXTRACT: note_on channel=0 note=81 velocity=0 time=0.20270275
EXTRACT: note_on channel=0 note=81 velocity=73 time=0
EXTRACT: note_on channel=0 note=55 velocity=0 time=0
EXTRACT: note_on channel=0 note=60 velocity=0 time=0
EXTRACT: note_on channel=0 note=64 velocity=0 time=0
EXTRACT: note_on channel=0 note=53 velocity=64 time=0
EXTRACT: note_on channel=0 note=57 velocity=64 time=0
EXTRACT: note_on channel=0 note=60 velocity=64 time=0
EXTRACT: note_on channel=0 note=81 velocity=0 time=0.20270275
EXTRACT: note_on channel=0 note=79 velocity=70 time=0
EXTRACT: note_on channel=0 note=79 velocity=0 time=0.20270275
EXTRACT: note_on channel=0 note=79 velocity=76 time=0
EXTRACT: note_on channel=0 note=79 velocity=0 time=0.20270275
EXTRACT: note_on channel=0 note=79 velocity=74 time=0
EXTRACT: note_on channel=0 note=53 velocity=0 time=0.20270275
EXTRACT: note_on channel=0 note=57 velocity=0 time=0
EXTRACT: note_on channel=0 note=60 velocity=0 time=0
EXTRACT: note_on channel=0 note=53 velocity=76 time=0
EXTRACT: note_on channel=0 note=57 velocity=76 time=0
EXTRACT: note_on channel=0 note=60 velocity=76 time=0
EXTRACT: note_on channel=0 note=79 velocity=0 time=0.20270275
EXTRACT: note_on channel=0 note=84 velocity=87 time=0
EXTRACT: note_on channel=0 note=84 velocity=0 time=0.4054055
EXTRACT: note_on channel=0 note=81 velocity=67 time=0
EXTRACT: note_on channel=0 note=53 velocity=0 time=0.20270275
EXTRACT: note_on channel=0 note=57 velocity=0 time=0
EXTRACT: note_on channel=0 note=60 velocity=0 time=0
EXTRACT: note_on channel=0 note=55 velocity=83 time=0
EXTRACT: note_on channel=0 note=59 velocity=83 time=0
EXTRACT: note_on channel=0 note=62 velocity=83 time=0
EXTRACT: note_on channel=0 note=81 velocity=0 time=0.20270275
EXTRACT: note_on channel=0 note=79 velocity=70 time=0
EXTRACT: note_on channel=0 note=79 velocity=0 time=0.4054055
EXTRACT: note_on channel=0 note=79 velocity=73 time=0
EXTRACT: note_on channel=0 note=79 velocity=0 time=0.20270275
EXTRACT: note_on channel=0 note=79 velocity=75 time=0
EXTRACT: note_on channel=0 note=55 velocity=0 time=0
EXTRACT: note_on channel=0 note=59 velocity=0 time=0
EXTRACT: note_on channel=0 note=62 velocity=0 time=0
EXTRACT: note_on channel=0 note=55 velocity=74 time=0
EXTRACT: note_on channel=0 note=59 velocity=74 time=0
EXTRACT: note_on channel=0 note=62 velocity=74 time=0
EXTRACT: note_on channel=0 note=79 velocity=0 time=0.4054055
EXTRACT: note_on channel=0 note=77 velocity=69 time=0
EXTRACT: note_on channel=0 note=77 velocity=0 time=0.4054055
EXTRACT: note_on channel=0 note=76 velocity=73 time=0
EXTRACT: note_on channel=0 note=55 velocity=0 time=0
EXTRACT: note_on channel=0 note=59 velocity=0 time=0
EXTRACT: note_on channel=0 note=62 velocity=0 time=0
EXTRACT: note_on channel=0 note=57 velocity=81 time=0
EXTRACT: note_on channel=0 note=60 velocity=81 time=0
EXTRACT: note_on channel=0 note=64 velocity=81 time=0
EXTRACT: note_on channel=0 note=76 velocity=0 time=0.20270275
EXTRACT: note_on channel=0 note=74 velocity=73 time=0
EXTRACT: note_on channel=0 note=74 velocity=0 time=0.20270275
EXTRACT: note_on channel=0 note=76 velocity=79 time=0
EXTRACT: note_on channel=0 note=76 velocity=0 time=0.20270275
EXTRACT: note_on channel=0 note=79 velocity=82 time=0
EXTRACT: note_on channel=0 note=57 velocity=0 time=0.20270275
EXTRACT: note_on channel=0 note=60 velocity=0 time=0
EXTRACT: note_on channel=0 note=64 velocity=0 time=0
EXTRACT: note_on channel=0 note=57 velocity=81 time=0
EXTRACT: note_on channel=0 note=60 velocity=81 time=0
EXTRACT: note_on channel=0 note=64 velocity=81 time=0
EXTRACT: note_on channel=0 note=79 velocity=0 time=0.4054055
EXTRACT: note_on channel=0 note=81 velocity=79 time=0
EXTRACT: note_on channel=0 note=57 velocity=0 time=0.4054055
EXTRACT: note_on channel=0 note=60 velocity=0 time=0
EXTRACT: note_on channel=0 note=64 velocity=0 time=0
EXTRACT: note_on channel=0 note=50 velocity=70 time=0
EXTRACT: note_on channel=0 note=54 velocity=70 time=0
EXTRACT: note_on channel=0 note=57 velocity=70 time=0
EXTRACT: note_on channel=0 note=81 velocity=0 time=0.4054055
EXTRACT: note_on channel=0 note=79 velocity=74 time=0
EXTRACT: note_on channel=0 note=79 velocity=0 time=0.4054055
EXTRACT: note_on channel=0 note=79 velocity=80 time=0
EXTRACT: note_on channel=0 note=50 velocity=0 time=0
EXTRACT: note_on channel=0 note=54 velocity=0 time=0
EXTRACT: note_on channel=0 note=57 velocity=0 time=0
EXTRACT: note_on channel=0 note=50 velocity=74 time=0
EXTRACT: note_on channel=0 note=54 velocity=74 time=0
EXTRACT: note_on channel=0 note=57 velocity=74 time=0
EXTRACT: note_on channel=0 note=79 velocity=0 time=0.4054055
EXTRACT: note_on channel=0 note=84 velocity=85 time=0
EXTRACT: note_on channel=0 note=84 velocity=0 time=0.4054055
EXTRACT: note_on channel=0 note=76 velocity=63 time=0
EXTRACT: note_on channel=0 note=50 velocity=0 time=0
EXTRACT: note_on channel=0 note=54 velocity=0 time=0
EXTRACT: note_on channel=0 note=57 velocity=0 time=0
EXTRACT: note_on channel=0 note=53 velocity=80 time=0
EXTRACT: note_on channel=0 note=57 velocity=80 time=0
EXTRACT: note_on channel=0 note=60 velocity=80 time=0
EXTRACT: note_on channel=0 note=76 velocity=0 time=0.20270275
EXTRACT: note_on channel=0 note=74 velocity=69 time=0
EXTRACT: note_on channel=0 note=74 velocity=0 time=0.20270275
EXTRACT: note_on channel=0 note=72 velocity=71 time=0
EXTRACT: note_on channel=0 note=53 velocity=0 time=0.4054055
EXTRACT: note_on channel=0 note=57 velocity=0 time=0
EXTRACT: note_on channel=0 note=60 velocity=0 time=0
EXTRACT: note_on channel=0 note=53 velocity=76 time=0
EXTRACT: note_on channel=0 note=57 velocity=76 time=0
EXTRACT: note_on channel=0 note=60 velocity=76 time=0
EXTRACT: note_on channel=0 note=72 velocity=0 time=0.4054055
EXTRACT: note_on channel=0 note=69 velocity=70 time=0
EXTRACT: note_on channel=0 note=69 velocity=0 time=0.20270275
EXTRACT: note_on channel=0 note=72 velocity=82 time=0
EXTRACT: note_on channel=0 note=72 velocity=0 time=0.20270275
EXTRACT: note_on channel=0 note=74 velocity=80 time=0
EXTRACT: note_on channel=0 note=53 velocity=0 time=0
EXTRACT: note_on channel=0 note=57 velocity=0 time=0
EXTRACT: note_on channel=0 note=60 velocity=0 time=0
EXTRACT: note_on channel=0 note=53 velocity=74 time=0
EXTRACT: note_on channel=0 note=56 velocity=74 time=0
EXTRACT: note_on channel=0 note=60 velocity=74 time=0
EXTRACT: note_on channel=0 note=74 velocity=0 time=0.20270275
EXTRACT: note_on channel=0 note=76 velocity=77 time=0
EXTRACT: note_on channel=0 note=76 velocity=0 time=0.20270275
EXTRACT: note_on channel=0 note=74 velocity=72 time=0
EXTRACT: note_on channel=0 note=74 velocity=0 time=0.20270275
EXTRACT: note_on channel=0 note=72 velocity=65 time=0
EXTRACT: note_on channel=0 note=72 velocity=0 time=0.20270275
EXTRACT: note_on channel=0 note=74 velocity=80 time=0
EXTRACT: note_on channel=0 note=53 velocity=0 time=0
EXTRACT: note_on channel=0 note=56 velocity=0 time=0
EXTRACT: note_on channel=0 note=60 velocity=0 time=0
EXTRACT: note_on channel=0 note=53 velocity=75 time=0
EXTRACT: note_on channel=0 note=56 velocity=75 time=0
EXTRACT: note_on channel=0 note=60 velocity=75 time=0
EXTRACT: note_on channel=0 note=74 velocity=0 time=0.20270275
EXTRACT: note_on channel=0 note=72 velocity=74 time=0
EXTRACT: note_on channel=0 note=72 velocity=0 time=0.20270275
EXTRACT: note_on channel=0 note=72 velocity=73 time=0
EXTRACT: note_on channel=0 note=53 velocity=0 time=0.4054055
EXTRACT: note_on channel=0 note=56 velocity=0 time=0
EXTRACT: note_on channel=0 note=60 velocity=0 time=0
EXTRACT: note_on channel=0 note=48 velocity=72 time=0
EXTRACT: note_on channel=0 note=52 velocity=72 time=0
EXTRACT: note_on channel=0 note=55 velocity=72 time=0
EXTRACT: note_on channel=0 note=48 velocity=0 time=0.810811
EXTRACT: note_on channel=0 note=52 velocity=0 time=0
EXTRACT: note_on channel=0 note=55 velocity=0 time=0
EXTRACT: note_on channel=0 note=48 velocity=74 time=0
EXTRACT: note_on channel=0 note=52 velocity=74 time=0
EXTRACT: note_on channel=0 note=55 velocity=74 time=0
EXTRACT: note_on channel=0 note=72 velocity=0 time=0.810811
EXTRACT: note_on channel=0 note=48 velocity=0 time=0
EXTRACT: note_on channel=0 note=52 velocity=0 time=0
EXTRACT: note_on channel=0 note=55 velocity=0 time=0
EXTRACT: note_on channel=0 note=48 velocity=71 time=0
EXTRACT: note_on channel=0 note=52 velocity=71 time=0
EXTRACT: note_on channel=0 note=55 velocity=71 time=0
EXTRACT: note_on channel=0 note=72 velocity=69 time=0.60810825
EXTRACT: note_on channel=0 note=72 velocity=0 time=0.20270275
EXTRACT: note_on channel=0 note=76 velocity=89 time=0
EXTRACT: note_on channel=0 note=48 velocity=0 time=0
EXTRACT: note_on channel=0 note=52 velocity=0 time=0
EXTRACT: note_on channel=0 note=55 velocity=0 time=0
EXTRACT: note_on channel=0 note=48 velocity=75 time=0
EXTRACT: note_on channel=0 note=52 velocity=75 time=0
EXTRACT: note_on channel=0 note=55 velocity=75 time=0
EXTRACT: note_on channel=0 note=76 velocity=0 time=0.20270275
EXTRACT: note_on channel=0 note=79 velocity=86 time=0
EXTRACT: note_on channel=0 note=79 velocity=0 time=0.60810825
EXTRACT: note_on channel=0 note=81 velocity=74 time=0
EXTRACT: note_on channel=0 note=48 velocity=0 time=0
EXTRACT: note_on channel=0 note=52 velocity=0 time=0
EXTRACT: note_on channel=0 note=55 velocity=0 time=0
EXTRACT: note_on channel=0 note=53 velocity=88 time=0
EXTRACT: note_on channel=0 note=57 velocity=88 time=0
EXTRACT: note_on channel=0 note=60 velocity=88 time=0
EXTRACT: note_on channel=0 note=81 velocity=0 time=0.4054055
EXTRACT: note_on channel=0 note=81 velocity=73 time=0
EXTRACT: note_on channel=0 note=53 velocity=0 time=0.4054055
EXTRACT: note_on channel=0 note=57 velocity=0 time=0
EXTRACT: note_on channel=0 note=60 velocity=0 time=0
EXTRACT: note_on channel=0 note=53 velocity=75 time=0
EXTRACT: note_on channel=0 note=57 velocity=75 time=0
EXTRACT: note_on channel=0 note=60 velocity=75 time=0
EXTRACT: note_on channel=0 note=81 velocity=0 time=0.810811
EXTRACT: note_on channel=0 note=53 velocity=0 time=0
EXTRACT: note_on channel=0 note=57 velocity=0 time=0
EXTRACT: note_on channel=0 note=60 velocity=0 time=0
EXTRACT: note_on channel=0 note=53 velocity=78 time=0
EXTRACT: note_on channel=0 note=57 velocity=78 time=0
EXTRACT: note_on channel=0 note=60 velocity=78 time=0
EXTRACT: note_on channel=0 note=79 velocity=68 time=0.4054055
EXTRACT: note_on channel=0 note=79 velocity=0 time=0.4054055
EXTRACT: note_on channel=0 note=81 velocity=82 time=0
EXTRACT: note_on channel=0 note=53 velocity=0 time=0
EXTRACT: note_on channel=0 note=57 velocity=0 time=0
EXTRACT: note_on channel=0 note=60 velocity=0 time=0
EXTRACT: note_on channel=0 note=53 velocity=72 time=0
EXTRACT: note_on channel=0 note=57 velocity=72 time=0
EXTRACT: note_on channel=0 note=60 velocity=72 time=0
EXTRACT: note_on channel=0 note=81 velocity=0 time=0.20270275
EXTRACT: note_on channel=0 note=79 velocity=71 time=0
EXTRACT: note_on channel=0 note=79 velocity=0 time=0.60810825
EXTRACT: note_on channel=0 note=83 velocity=82 time=0
EXTRACT: note_on channel=0 note=53 velocity=0 time=0
EXTRACT: note_on channel=0 note=57 velocity=0 time=0
EXTRACT: note_on channel=0 note=60 velocity=0 time=0
EXTRACT: note_on channel=0 note=55 velocity=81 time=0
EXTRACT: note_on channel=0 note=59 velocity=81 time=0
EXTRACT: note_on channel=0 note=62 velocity=81 time=0
EXTRACT: note_on channel=0 note=83 velocity=0 time=0.20270275
EXTRACT: note_on channel=0 note=79 velocity=65 time=0
EXTRACT: note_on channel=0 note=55 velocity=0 time=0.60810825
EXTRACT: note_on channel=0 note=59 velocity=0 time=0
EXTRACT: note_on channel=0 note=62 velocity=0 time=0
EXTRACT: note_on channel=0 note=55 velocity=83 time=0
EXTRACT: note_on channel=0 note=59 velocity=83 time=0
EXTRACT: note_on channel=0 note=62 velocity=83 time=0
EXTRACT: note_on channel=0 note=79 velocity=0 time=0.4054055
EXTRACT: note_on channel=0 note=76 velocity=66 time=0
EXTRACT: note_on channel=0 note=76 velocity=0 time=0.4054055
EXTRACT: note_on channel=0 note=79 velocity=82 time=0
EXTRACT: note_on channel=0 note=55 velocity=0 time=0
EXTRACT: note_on channel=0 note=59 velocity=0 time=0
EXTRACT: note_on channel=0 note=62 velocity=0 time=0
EXTRACT: note_on channel=0 note=55 velocity=77 time=0
EXTRACT: note_on channel=0 note=59 velocity=77 time=0
EXTRACT: note_on channel=0 note=62 velocity=77 time=0
EXTRACT: note_on channel=0 note=79 velocity=0 time=0.60810825
EXTRACT: note_on channel=0 note=81 velocity=80 time=0
EXTRACT: note_on channel=0 note=55 velocity=0 time=0.20270275
EXTRACT: note_on channel=0 note=59 velocity=0 time=0
EXTRACT: note_on channel=0 note=62 velocity=0 time=0
EXTRACT: note_on channel=0 note=55 velocity=72 time=0
EXTRACT: note_on channel=0 note=59 velocity=72 time=0
EXTRACT: note_on channel=0 note=62 velocity=72 time=0
EXTRACT: note_on channel=0 note=81 velocity=0 time=0.4054055
EXTRACT: note_on channel=0 note=79 velocity=72 time=0
EXTRACT: note_on channel=0 note=79 velocity=0 time=0.20270275
EXTRACT: note_on channel=0 note=81 velocity=78 time=0
EXTRACT: note_on channel=0 note=81 velocity=0 time=0.20270275
EXTRACT: note_on channel=0 note=84 velocity=83 time=0
EXTRACT: note_on channel=0 note=55 velocity=0 time=0
EXTRACT: note_on channel=0 note=59 velocity=0 time=0
EXTRACT: note_on channel=0 note=62 velocity=0 time=0
EXTRACT: note_on channel=0 note=60 velocity=85 time=0
EXTRACT: note_on channel=0 note=64 velocity=85 time=0
EXTRACT: note_on channel=0 note=67 velocity=85 time=0
EXTRACT: note_on channel=0 note=60 velocity=0 time=0.810811
EXTRACT: note_on channel=0 note=64 velocity=0 time=0
EXTRACT: note_on channel=0 note=67 velocity=0 time=0
EXTRACT: note_on channel=0 note=60 velocity=74 time=0
EXTRACT: note_on channel=0 note=64 velocity=74 time=0
EXTRACT: note_on channel=0 note=67 velocity=74 time=0
EXTRACT: note_on channel=0 note=84 velocity=0 time=0.4054055
EXTRACT: note_on channel=0 note=83 velocity=69 time=0
EXTRACT: note_on channel=0 note=83 velocity=0 time=0.20270275
EXTRACT: note_on channel=0 note=84 velocity=80 time=0
EXTRACT: note_on channel=0 note=84 velocity=0 time=0.20270275
EXTRACT: note_on channel=0 note=83 velocity=74 time=0
EXTRACT: note_on channel=0 note=60 velocity=0 time=0
EXTRACT: note_on channel=0 note=64 velocity=0 time=0
EXTRACT: note_on channel=0 note=67 velocity=0 time=0
EXTRACT: note_on channel=0 note=59 velocity=75 time=0
EXTRACT: note_on channel=0 note=64 velocity=75 time=0
EXTRACT: note_on channel=0 note=67 velocity=75 time=0
EXTRACT: note_on channel=0 note=59 velocity=0 time=0.810811
EXTRACT: note_on channel=0 note=64 velocity=0 time=0
EXTRACT: note_on channel=0 note=67 velocity=0 time=0
EXTRACT: note_on channel=0 note=59 velocity=76 time=0
EXTRACT: note_on channel=0 note=64 velocity=76 time=0
EXTRACT: note_on channel=0 note=67 velocity=76 time=0
EXTRACT: note_on channel=0 note=83 velocity=0 time=0.4054055
EXTRACT: note_on channel=0 note=81 velocity=72 time=0
EXTRACT: note_on channel=0 note=81 velocity=0 time=0.20270275
EXTRACT: note_on channel=0 note=83 velocity=79 time=0
EXTRACT: note_on channel=0 note=83 velocity=0 time=0.20270275
EXTRACT: note_on channel=0 note=81 velocity=74 time=0
EXTRACT: note_on channel=0 note=59 velocity=0 time=0
EXTRACT: note_on channel=0 note=64 velocity=0 time=0
EXTRACT: note_on channel=0 note=67 velocity=0 time=0
EXTRACT: note_on channel=0 note=57 velocity=66 time=0
EXTRACT: note_on channel=0 note=60 velocity=66 time=0
EXTRACT: note_on channel=0 note=64 velocity=66 time=0
EXTRACT: note_on channel=0 note=57 velocity=0 time=0.810811
EXTRACT: note_on channel=0 note=60 velocity=0 time=0
EXTRACT: note_on channel=0 note=64 velocity=0 time=0
EXTRACT: note_on channel=0 note=57 velocity=74 time=0
EXTRACT: note_on channel=0 note=60 velocity=74 time=0
EXTRACT: note_on channel=0 note=64 velocity=74 time=0
EXTRACT: note_on channel=0 note=81 velocity=0 time=0.60810825
EXTRACT: note_on channel=0 note=79 velocity=72 time=0
EXTRACT: note_on channel=0 note=79 velocity=0 time=0.20270275
EXTRACT: note_on channel=0 note=76 velocity=67 time=0
EXTRACT: note_on channel=0 note=57 velocity=0 time=0
EXTRACT: note_on channel=0 note=60 velocity=0 time=0
EXTRACT: note_on channel=0 note=64 velocity=0 time=0
EXTRACT: note_on channel=0 note=55 velocity=74 time=0
EXTRACT: note_on channel=0 note=59 velocity=74 time=0
EXTRACT: note_on channel=0 note=62 velocity=74 time=0
EXTRACT: note_on channel=0 note=76 velocity=0 time=0.810811
EXTRACT: note_on channel=0 note=55 velocity=0 time=0
EXTRACT: note_on channel=0 note=59 velocity=0 time=0
EXTRACT: note_on channel=0 note=62 velocity=0 time=0
EXTRACT: note_on channel=0 note=55 velocity=73 time=0
EXTRACT: note_on channel=0 note=59 velocity=73 time=0
EXTRACT: note_on channel=0 note=62 velocity=73 time=0
EXTRACT: note_on channel=0 note=76 velocity=64 time=0.4054055
EXTRACT: note_on channel=0 note=76 velocity=0 time=0.4054055
EXTRACT: note_on channel=0 note=74 velocity=67 time=0
EXTRACT: note_on channel=0 note=55 velocity=0 time=0
EXTRACT: note_on channel=0 note=59 velocity=0 time=0
EXTRACT: note_on channel=0 note=62 velocity=0 time=0
EXTRACT: note_on channel=0 note=50 velocity=64 time=0
EXTRACT: note_on channel=0 note=54 velocity=64 time=0
EXTRACT: note_on channel=0 note=57 velocity=64 time=0
EXTRACT: note_on channel=0 note=74 velocity=0 time=0.20270275
EXTRACT: note_on channel=0 note=72 velocity=74 time=0
EXTRACT: note_on channel=0 note=72 velocity=0 time=0.20270275
EXTRACT: note_on channel=0 note=72 velocity=73 time=0
EXTRACT: note_on channel=0 note=72 velocity=0 time=0.20270275
EXTRACT: note_on channel=0 note=69 velocity=67 time=0
EXTRACT: note_on channel=0 note=69 velocity=0 time=0.20270275
EXTRACT: note_on channel=0 note=72 velocity=82 time=0
EXTRACT: note_on channel=0 note=50 velocity=0 time=0
EXTRACT: note_on channel=0 note=54 velocity=0 time=0
EXTRACT: note_on channel=0 note=57 velocity=0 time=0
EXTRACT: note_on channel=0 note=50 velocity=78 time=0
EXTRACT: note_on channel=0 note=54 velocity=78 time=0
EXTRACT: note_on channel=0 note=57 velocity=78 time=0
EXTRACT: note_on channel=0 note=72 velocity=0 time=0.4054055
EXTRACT: note_on channel=0 note=74 velocity=82 time=0
EXTRACT: note_on channel=0 note=74 velocity=0 time=0.4054055
EXTRACT: note_on channel=0 note=74 velocity=77 time=0
EXTRACT: note_on channel=0 note=50 velocity=0 time=0
EXTRACT: note_on channel=0 note=54 velocity=0 time=0
EXTRACT: note_on channel=0 note=57 velocity=0 time=0
EXTRACT: note_on channel=0 note=50 velocity=76 time=0
EXTRACT: note_on channel=0 note=54 velocity=76 time=0
EXTRACT: note_on channel=0 note=57 velocity=76 time=0
EXTRACT: note_on channel=0 note=74 velocity=0 time=0.60810825
EXTRACT: note_on channel=0 note=72 velocity=71 time=0
EXTRACT: note_on channel=0 note=72 velocity=0 time=0.20270275
EXTRACT: note_on channel=0 note=76 velocity=84 time=0
EXTRACT: note_on channel=0 note=50 velocity=0 time=0
EXTRACT: note_on channel=0 note=54 velocity=0 time=0
EXTRACT: note_on channel=0 note=57 velocity=0 time=0
EXTRACT: note_on channel=0 note=50 velocity=78 time=0
EXTRACT: note_on channel=0 note=54 velocity=78 time=0
EXTRACT: note_on channel=0 note=57 velocity=78 time=0
EXTRACT: note_on channel=0 note=76 velocity=0 time=0.4054055
EXTRACT: note_on channel=0 note=74 velocity=72 time=0
EXTRACT: note_on channel=0 note=74 velocity=0 time=0.20270275
EXTRACT: note_on channel=0 note=76 velocity=75 time=0
EXTRACT: note_on channel=0 note=76 velocity=0 time=0.20270275
EXTRACT: note_on channel=0 note=74 velocity=72 time=0
EXTRACT: note_on channel=0 note=50 velocity=0 time=0
EXTRACT: note_on channel=0 note=54 velocity=0 time=0
EXTRACT: note_on channel=0 note=57 velocity=0 time=0
EXTRACT: note_on channel=0 note=50 velocity=76 time=0
EXTRACT: note_on channel=0 note=53 velocity=76 time=0
EXTRACT: note_on channel=0 note=57 velocity=76 time=0
EXTRACT: note_on channel=0 note=74 velocity=0 time=0.20270275
EXTRACT: note_on channel=0 note=72 velocity=70 time=0
EXTRACT: note_on channel=0 note=72 velocity=0 time=0.20270275
EXTRACT: note_on channel=0 note=72 velocity=73 time=0
EXTRACT: note_on channel=0 note=72 velocity=0 time=0.20270275
EXTRACT: note_on channel=0 note=69 velocity=67 time=0
EXTRACT: note_on channel=0 note=69 velocity=0 time=0.20270275
EXTRACT: note_on channel=0 note=72 velocity=79 time=0
EXTRACT: note_on channel=0 note=50 velocity=0 time=0
EXTRACT: note_on channel=0 note=53 velocity=0 time=0
EXTRACT: note_on channel=0 note=57 velocity=0 time=0
EXTRACT: note_on channel=0 note=50 velocity=75 time=0
EXTRACT: note_on channel=0 note=53 velocity=75 time=0
EXTRACT: note_on channel=0 note=57 velocity=75 time=0
EXTRACT: note_on channel=0 note=72 velocity=0 time=0.4054055
EXTRACT: note_on channel=0 note=74 velocity=80 time=0
EXTRACT: note_on channel=0 note=74 velocity=0 time=0.4054055
EXTRACT: note_on channel=0 note=76 velocity=80 time=0
EXTRACT: note_on channel=0 note=50 velocity=0 time=0
EXTRACT: note_on channel=0 note=53 velocity=0 time=0
EXTRACT: note_on channel=0 note=57 velocity=0 time=0
EXTRACT: note_on channel=0 note=50 velocity=72 time=0
EXTRACT: note_on channel=0 note=53 velocity=72 time=0
EXTRACT: note_on channel=0 note=57 velocity=72 time=0
EXTRACT: note_on channel=0 note=76 velocity=0 time=0.60810825
EXTRACT: note_on channel=0 note=72 velocity=70 time=0
EXTRACT: note_on channel=0 note=72 velocity=0 time=0.20270275
EXTRACT: note_on channel=0 note=81 velocity=89 time=0
EXTRACT: note_on channel=0 note=50 velocity=0 time=0
EXTRACT: note_on channel=0 note=53 velocity=0 time=0
EXTRACT: note_on channel=0 note=57 velocity=0 time=0
EXTRACT: note_on channel=0 note=50 velocity=73 time=0
EXTRACT: note_on channel=0 note=53 velocity=73 time=0
EXTRACT: note_on channel=0 note=57 velocity=73 time=0
EXTRACT: note_on channel=0 note=81 velocity=0 time=0.20270275
EXTRACT: note_on channel=0 note=81 velocity=76 time=0
EXTRACT: note_on channel=0 note=81 velocity=0 time=0.4054055
EXTRACT: note_on channel=0 note=82 velocity=79 time=0
EXTRACT: note_on channel=0 note=50 velocity=0 time=0.20270275
EXTRACT: note_on channel=0 note=53 velocity=0 time=0
EXTRACT: note_on channel=0 note=57 velocity=0 time=0
EXTRACT: note_on channel=0 note=55 velocity=86 time=0
EXTRACT: note_on channel=0 note=59 velocity=86 time=0
EXTRACT: note_on channel=0 note=62 velocity=86 time=0
EXTRACT: note_on channel=0 note=82 velocity=0 time=0.20270275
EXTRACT: note_on channel=0 note=81 velocity=75 time=0
EXTRACT: note_on channel=0 note=81 velocity=0 time=0.20270275
EXTRACT: note_on channel=0 note=79 velocity=72 time=0
EXTRACT: note_on channel=0 note=79 velocity=0 time=0.20270275
EXTRACT: note_on channel=0 note=76 velocity=70 time=0
EXTRACT: note_on channel=0 note=76 velocity=0 time=0.20270275
EXTRACT: note_on channel=0 note=79 velocity=81 time=0
EXTRACT: note_on channel=0 note=55 velocity=0 time=0
EXTRACT: note_on channel=0 note=59 velocity=0 time=0
EXTRACT: note_on channel=0 note=62 velocity=0 time=0
EXTRACT: note_on channel=0 note=55 velocity=78 time=0
EXTRACT: note_on channel=0 note=59 velocity=78 time=0
EXTRACT: note_on channel=0 note=62 velocity=78 time=0
EXTRACT: note_on channel=0 note=79 velocity=0 time=0.20270275
EXTRACT: note_on channel=0 note=76 velocity=68 time=0
EXTRACT: note_on channel=0 note=76 velocity=0 time=0.20270275
EXTRACT: note_on channel=0 note=74 velocity=73 time=0
EXTRACT: note_on channel=0 note=55 velocity=0 time=0.4054055
EXTRACT: note_on channel=0 note=59 velocity=0 time=0
EXTRACT: note_on channel=0 note=62 velocity=0 time=0
EXTRACT: note_on channel=0 note=55 velocity=81 time=0
EXTRACT: note_on channel=0 note=59 velocity=81 time=0
EXTRACT: note_on channel=0 note=62 velocity=81 time=0
EXTRACT: note_on channel=0 note=55 velocity=0 time=0.4054055
EXTRACT: note_on channel=0 note=59 velocity=0 time=0
EXTRACT: note_on channel=0 note=62 velocity=0 time=0
EXTRACT: note_on channel=0 note=55 velocity=75 time=0
EXTRACT: note_on channel=0 note=59 velocity=75 time=0
EXTRACT: note_on channel=0 note=62 velocity=75 time=0
EXTRACT: note_on channel=0 note=55 velocity=0 time=0.4054055
EXTRACT: note_on channel=0 note=59 velocity=0 time=0
EXTRACT: note_on channel=0 note=62 velocity=0 time=0
EXTRACT: note_on channel=0 note=55 velocity=70 time=0
EXTRACT: note_on channel=0 note=59 velocity=70 time=0
EXTRACT: note_on channel=0 note=62 velocity=70 time=0
EXTRACT: note_on channel=0 note=55 velocity=0 time=0.4054055
EXTRACT: note_on channel=0 note=59 velocity=0 time=0
EXTRACT: note_on channel=0 note=62 velocity=0 time=0
EXTRACT: note_on channel=0 note=55 velocity=78 time=0
EXTRACT: note_on channel=0 note=59 velocity=78 time=0
EXTRACT: note_on channel=0 note=62 velocity=78 time=0
EXTRACT: note_on channel=0 note=74 velocity=0 time=0.4054055
EXTRACT: note_on channel=0 note=55 velocity=0 time=0
EXTRACT: note_on channel=0 note=59 velocity=0 time=0
EXTRACT: note_on channel=0 note=62 velocity=0 time=0
EXTRACT: note_on channel=0 note=55 velocity=75 time=0
EXTRACT: note_on channel=0 note=59 velocity=75 time=0
EXTRACT: note_on channel=0 note=62 velocity=75 time=0
EXTRACT: note_on channel=0 note=55 velocity=0 time=0.810811
EXTRACT: note_on channel=0 note=59 velocity=0 time=0
EXTRACT: note_on channel=0 note=62 velocity=0 time=0
EXTRACT: note_on channel=0 note=72 velocity=72 time=0.4054055
EXTRACT: note_on channel=0 note=72 velocity=0 time=0.4054055
EXTRACT: note_on channel=0 note=81 velocity=89 time=0
EXTRACT: note_on channel=0 note=81 velocity=0 time=0.4054055
EXTRACT: note_on channel=0 note=79 velocity=73 time=0
EXTRACT: note_on channel=0 note=79 velocity=0 time=0.20270275
EXTRACT: note_on channel=0 note=76 velocity=70 time=0
EXTRACT: note_on channel=0 note=76 velocity=0 time=0.20270275
EXTRACT: note_on channel=0 note=79 velocity=81 time=0
EXTRACT: note_on channel=0 note=79 velocity=0 time=0.4054055
EXTRACT: note_on channel=0 note=81 velocity=79 time=0
EXTRACT: note_on channel=0 note=81 velocity=0 time=0.20270275
EXTRACT: note_on channel=0 note=76 velocity=67 time=0
EXTRACT: note_on channel=0 note=76 velocity=70 time=0.20270275
EXTRACT: note_on channel=0 note=76 velocity=0 time=0
EXTRACT: note_on channel=0 note=53 velocity=67 time=0
EXTRACT: note_on channel=0 note=57 velocity=67 time=0
EXTRACT: note_on channel=0 note=60 velocity=67 time=0
EXTRACT: note_on channel=0 note=76 velocity=0 time=0.20270275
EXTRACT: note_on channel=0 note=74 velocity=72 time=0
EXTRACT: note_on channel=0 note=53 velocity=0 time=0.60810825
EXTRACT: note_on channel=0 note=57 velocity=0 time=0
EXTRACT: note_on channel=0 note=60 velocity=0 time=0
EXTRACT: note_on channel=0 note=53 velocity=74 time=0
EXTRACT: note_on channel=0 note=57 velocity=74 time=0
EXTRACT: note_on channel=0 note=60 velocity=74 time=0
EXTRACT: note_on channel=0 note=74 velocity=0 time=0.810811
EXTRACT: note_on channel=0 note=53 velocity=0 time=0
EXTRACT: note_on channel=0 note=57 velocity=0 time=0
EXTRACT: note_on channel=0 note=60 velocity=0 time=0
EXTRACT: note_on channel=0 note=55 velocity=81 time=0
EXTRACT: note_on channel=0 note=59 velocity=81 time=0
EXTRACT: note_on channel=0 note=62 velocity=81 time=0
EXTRACT: note_on channel=0 note=67 velocity=70 time=0.4054055
EXTRACT: note_on channel=0 note=67 velocity=0 time=0.4054055
EXTRACT: note_on channel=0 note=69 velocity=84 time=0
EXTRACT: note_on channel=0 note=55 velocity=0 time=0
EXTRACT: note_on channel=0 note=59 velocity=0 time=0
EXTRACT: note_on channel=0 note=62 velocity=0 time=0
EXTRACT: note_on channel=0 note=55 velocity=76 time=0
EXTRACT: note_on channel=0 note=59 velocity=76 time=0
EXTRACT: note_on channel=0 note=62 velocity=76 time=0
EXTRACT: note_on channel=0 note=69 velocity=0 time=0.4054055
EXTRACT: note_on channel=0 note=72 velocity=82 time=0
EXTRACT: note_on channel=0 note=72 velocity=0 time=0.4054055
EXTRACT: note_on channel=0 note=76 velocity=88 time=0
EXTRACT: note_on channel=0 note=55 velocity=0 time=0
EXTRACT: note_on channel=0 note=59 velocity=0 time=0
EXTRACT: note_on channel=0 note=62 velocity=0 time=0
EXTRACT: note_on channel=0 note=55 velocity=77 time=0
EXTRACT: note_on channel=0 note=60 velocity=77 time=0
EXTRACT: note_on channel=0 note=64 velocity=77 time=0
EXTRACT: note_on channel=0 note=55 velocity=0 time=0.810811
EXTRACT: note_on channel=0 note=60 velocity=0 time=0
EXTRACT: note_on channel=0 note=64 velocity=0 time=0
EXTRACT: note_on channel=0 note=55 velocity=79 time=0
EXTRACT: note_on channel=0 note=60 velocity=79 time=0
EXTRACT: note_on channel=0 note=64 velocity=79 time=0
EXTRACT: note_on channel=0 note=76 velocity=0 time=0.60810825
EXTRACT: note_on channel=0 note=81 velocity=87 time=0
EXTRACT: note_on channel=0 note=55 velocity=0 time=0.20270275
EXTRACT: note_on channel=0 note=60 velocity=0 time=0
EXTRACT: note_on channel=0 note=64 velocity=0 time=0
EXTRACT: note_on channel=0 note=55 velocity=73 time=0
EXTRACT: note_on channel=0 note=60 velocity=73 time=0
EXTRACT: note_on channel=0 note=64 velocity=73 time=0
EXTRACT: note_on channel=0 note=81 velocity=0 time=0.20270275
EXTRACT: note_on channel=0 note=81 velocity=73 time=0
EXTRACT: note_on channel=0 note=81 velocity=0 time=0.20270275
EXTRACT: note_on channel=0 note=79 velocity=71 time=0
EXTRACT: note_on channel=0 note=79 velocity=0 time=0.20270275
EXTRACT: note_on channel=0 note=76 velocity=71 time=0
EXTRACT: note_on channel=0 note=76 velocity=0 time=0.20270275
EXTRACT: note_on channel=0 note=79 velocity=81 time=0
EXTRACT: note_on channel=0 note=55 velocity=0 time=0
EXTRACT: note_on channel=0 note=60 velocity=0 time=0
EXTRACT: note_on channel=0 note=64 velocity=0 time=0
EXTRACT: note_on channel=0 note=55 velocity=77 time=0
EXTRACT: note_on channel=0 note=60 velocity=77 time=0
EXTRACT: note_on channel=0 note=64 velocity=77 time=0
EXTRACT: note_on channel=0 note=79 velocity=0 time=0.4054055
EXTRACT: note_on channel=0 note=81 velocity=82 time=0
EXTRACT: note_on channel=0 note=81 velocity=0 time=0.20270275
EXTRACT: note_on channel=0 note=76 velocity=69 time=0
EXTRACT: note_on channel=0 note=55 velocity=0 time=0.20270275
EXTRACT: note_on channel=0 note=60 velocity=0 time=0
EXTRACT: note_on channel=0 note=64 velocity=0 time=0
EXTRACT: note_on channel=0 note=53 velocity=67 time=0
EXTRACT: note_on channel=0 note=57 velocity=67 time=0
EXTRACT: note_on channel=0 note=60 velocity=67 time=0
EXTRACT: note_on channel=0 note=76 velocity=0 time=0.20270275
EXTRACT: note_on channel=0 note=74 velocity=72 time=0
EXTRACT: note_on channel=0 note=53 velocity=0 time=0.60810825
EXTRACT: note_on channel=0 note=57 velocity=0 time=0
EXTRACT: note_on channel=0 note=60 velocity=0 time=0
EXTRACT: note_on channel=0 note=53 velocity=76 time=0
EXTRACT: note_on channel=0 note=57 velocity=76 time=0
EXTRACT: note_on channel=0 note=60 velocity=76 time=0
EXTRACT: note_on channel=0 note=74 velocity=0 time=0.810811
EXTRACT: note_on channel=0 note=53 velocity=0 time=0
EXTRACT: note_on channel=0 note=57 velocity=0 time=0
EXTRACT: note_on channel=0 note=60 velocity=0 time=0
EXTRACT: note_on channel=0 note=55 velocity=81 time=0
EXTRACT: note_on channel=0 note=59 velocity=81 time=0
EXTRACT: note_on channel=0 note=62 velocity=81 time=0
EXTRACT: note_on channel=0 note=67 velocity=69 time=0.20270275
EXTRACT: note_on channel=0 note=67 velocity=0 time=0.20270275
EXTRACT: note_on channel=0 note=69 velocity=80 time=0
EXTRACT: note_on channel=0 note=69 velocity=0 time=0.20270275
EXTRACT: note_on channel=0 note=72 velocity=88 time=0
EXTRACT: note_on channel=0 note=55 velocity=0 time=0.20270275
EXTRACT: note_on channel=0 note=59 velocity=0 time=0
EXTRACT: note_on channel=0 note=62 velocity=0 time=0
EXTRACT: note_on channel=0 note=55 velocity=73 time=0
EXTRACT: note_on channel=0 note=59 velocity=73 time=0
EXTRACT: note_on channel=0 note=62 velocity=73 time=0
EXTRACT: note_on channel=0 note=72 velocity=0 time=0.4054055
EXTRACT: note_on channel=0 note=67 velocity=66 time=0
EXTRACT: note_on channel=0 note=67 velocity=0 time=0.4054055
EXTRACT: note_on channel=0 note=67 velocity=73 time=0
EXTRACT: note_on channel=0 note=55 velocity=0 time=0
EXTRACT: note_on channel=0 note=59 velocity=0 time=0
EXTRACT: note_on channel=0 note=62 velocity=0 time=0
EXTRACT: note_on channel=0 note=55 velocity=82 time=0
EXTRACT: note_on channel=0 note=60 velocity=82 time=0
EXTRACT: note_on channel=0 note=64 velocity=82 time=0
EXTRACT: note_on channel=0 note=55 velocity=0 time=0.810811
EXTRACT: note_on channel=0 note=60 velocity=0 time=0
EXTRACT: note_on channel=0 note=64 velocity=0 time=0
EXTRACT: note_on channel=0 note=55 velocity=72 time=0
EXTRACT: note_on channel=0 note=60 velocity=72 time=0
EXTRACT: note_on channel=0 note=64 velocity=72 time=0
EXTRACT: note_on channel=0 note=67 velocity=0 time=0.810811
EXTRACT: note_on channel=0 note=55 velocity=0 time=0
EXTRACT: note_on channel=0 note=60 velocity=0 time=0
EXTRACT: note_on channel=0 note=64 velocity=0 time=0
EXTRACT: note_on channel=0 note=55 velocity=73 time=0
EXTRACT: note_on channel=0 note=60 velocity=73 time=0
EXTRACT: note_on channel=0 note=64 velocity=73 time=0
EXTRACT: note_on channel=0 note=76 velocity=66 time=0.4054055
EXTRACT: note_on channel=0 note=76 velocity=0 time=0.20270275
EXTRACT: note_on channel=0 note=74 velocity=71 time=0
EXTRACT: note_on channel=0 note=74 velocity=0 time=0.20270275
EXTRACT: note_on channel=0 note=76 velocity=79 time=0
EXTRACT: note_on channel=0 note=55 velocity=0 time=0
EXTRACT: note_on channel=0 note=60 velocity=0 time=0
EXTRACT: note_on channel=0 note=64 velocity=0 time=0
EXTRACT: note_on channel=0 note=55 velocity=74 time=0
EXTRACT: note_on channel=0 note=60 velocity=74 time=0
EXTRACT: note_on channel=0 note=64 velocity=74 time=0
EXTRACT: note_on channel=0 note=76 velocity=0 time=0.4054055
EXTRACT: note_on channel=0 note=74 velocity=70 time=0
EXTRACT: note_on channel=0 note=74 velocity=0 time=0.20270275
EXTRACT: note_on channel=0 note=76 velocity=80 time=0
EXTRACT: note_on channel=0 note=76 velocity=0 time=0.20270275
EXTRACT: note_on channel=0 note=55 velocity=0 time=0
EXTRACT: note_on channel=0 note=60 velocity=0 time=0
EXTRACT: note_on channel=0 note=64 velocity=0 time=0
EXTRACT: note_on channel=0 note=53 velocity=67 time=0
EXTRACT: note_on channel=0 note=57 velocity=67 time=0
EXTRACT: note_on channel=0 note=60 velocity=67 time=0
EXTRACT: note_on channel=0 note=79 velocity=71 time=0.20270275
EXTRACT: note_on channel=0 note=79 velocity=0 time=0.60810825
EXTRACT: note_on channel=0 note=53 velocity=0 time=0
EXTRACT: note_on channel=0 note=57 velocity=0 time=0
EXTRACT: note_on channel=0 note=60 velocity=0 time=0
EXTRACT: note_on channel=0 note=53 velocity=74 time=0
EXTRACT: note_on channel=0 note=57 velocity=74 time=0
EXTRACT: note_on channel=0 note=60 velocity=74 time=0
EXTRACT: note_on channel=0 note=76 velocity=69 time=0.20270275
EXTRACT: note_on channel=0 note=76 velocity=0 time=0.20270275
EXTRACT: note_on channel=0 note=76 velocity=77 time=0
EXTRACT: note_on channel=0 note=76 velocity=0 time=0.20270275
EXTRACT: note_on channel=0 note=79 velocity=85 time=0
EXTRACT: note_on channel=0 note=79 velocity=0 time=0.20270275
EXTRACT: note_on channel=0 note=81 velocity=82 time=0
EXTRACT: note_on channel=0 note=53 velocity=0 time=0
EXTRACT: note_on channel=0 note=57 velocity=0 time=0
EXTRACT: note_on channel=0 note=60 velocity=0 time=0
EXTRACT: note_on channel=0 note=55 velocity=78 time=0
EXTRACT: note_on channel=0 note=59 velocity=78 time=0
EXTRACT: note_on channel=0 note=62 velocity=78 time=0
EXTRACT: note_on channel=0 note=81 velocity=0 time=0.20270275
EXTRACT: note_on channel=0 note=79 velocity=73 time=0
EXTRACT: note_on channel=0 note=79 velocity=0 time=0.20270275
EXTRACT: note_on channel=0 note=79 velocity=77 time=0
EXTRACT: note_on channel=0 note=79 velocity=0 time=0.4054055
EXTRACT: note_on channel=0 note=77 velocity=71 time=0
EXTRACT: note_on channel=0 note=55 velocity=0 time=0
EXTRACT: note_on channel=0 note=59 velocity=0 time=0
EXTRACT: note_on channel=0 note=62 velocity=0 time=0
EXTRACT: note_on channel=0 note=55 velocity=77 time=0
EXTRACT: note_on channel=0 note=59 velocity=77 time=0
EXTRACT: note_on channel=0 note=62 velocity=77 time=0
EXTRACT: note_on channel=0 note=77 velocity=0 time=0.4054055
EXTRACT: note_on channel=0 note=77 velocity=78 time=0
EXTRACT: note_on channel=0 note=77 velocity=0 time=0.4054055
EXTRACT: note_on channel=0 note=76 velocity=69 time=0
EXTRACT: note_on channel=0 note=55 velocity=0 time=0
EXTRACT: note_on channel=0 note=59 velocity=0 time=0
EXTRACT: note_on channel=0 note=62 velocity=0 time=0
EXTRACT: note_on channel=0 note=57 velocity=76 time=0
EXTRACT: note_on channel=0 note=60 velocity=76 time=0
EXTRACT: note_on channel=0 note=64 velocity=76 time=0
EXTRACT: note_on channel=0 note=76 velocity=0 time=0.4054055
EXTRACT: note_on channel=0 note=74 velocity=71 time=0
EXTRACT: note_on channel=0 note=74 velocity=0 time=0.4054055
EXTRACT: note_on channel=0 note=72 velocity=72 time=0
EXTRACT: note_on channel=0 note=57 velocity=0 time=0
EXTRACT: note_on channel=0 note=60 velocity=0 time=0
EXTRACT: note_on channel=0 note=64 velocity=0 time=0
EXTRACT: note_on channel=0 note=57 velocity=78 time=0
EXTRACT: note_on channel=0 note=60 velocity=78 time=0
EXTRACT: note_on channel=0 note=64 velocity=78 time=0
EXTRACT: note_on channel=0 note=72 velocity=0 time=0.4054055
EXTRACT: note_on channel=0 note=74 velocity=80 time=0
EXTRACT: note_on channel=0 note=74 velocity=0 time=0.4054055
EXTRACT: note_on channel=0 note=74 velocity=75 time=0
EXTRACT: note_on channel=0 note=57 velocity=0 time=0
EXTRACT: note_on channel=0 note=60 velocity=0 time=0
EXTRACT: note_on channel=0 note=64 velocity=0 time=0
EXTRACT: note_on channel=0 note=50 velocity=71 time=0
EXTRACT: note_on channel=0 note=54 velocity=71 time=0
EXTRACT: note_on channel=0 note=57 velocity=71 time=0
EXTRACT: note_on channel=0 note=74 velocity=0 time=0.4054055
EXTRACT: note_on channel=0 note=72 velocity=71 time=0
EXTRACT: note_on channel=0 note=72 velocity=0 time=0.4054055
EXTRACT: note_on channel=0 note=74 velocity=78 time=0
EXTRACT: note_on channel=0 note=50 velocity=0 time=0
EXTRACT: note_on channel=0 note=54 velocity=0 time=0
EXTRACT: note_on channel=0 note=57 velocity=0 time=0
EXTRACT: note_on channel=0 note=50 velocity=72 time=0
EXTRACT: note_on channel=0 note=54 velocity=72 time=0
EXTRACT: note_on channel=0 note=57 velocity=72 time=0
EXTRACT: note_on channel=0 note=74 velocity=0 time=0.4054055
EXTRACT: note_on channel=0 note=76 velocity=80 time=0
EXTRACT: note_on channel=0 note=76 velocity=0 time=0.4054055
EXTRACT: note_on channel=0 note=72 velocity=63 time=0
EXTRACT: note_on channel=0 note=50 velocity=0 time=0
EXTRACT: note_on channel=0 note=54 velocity=0 time=0
EXTRACT: note_on channel=0 note=57 velocity=0 time=0
EXTRACT: note_on channel=0 note=53 velocity=80 time=0
EXTRACT: note_on channel=0 note=57 velocity=80 time=0
EXTRACT: note_on channel=0 note=60 velocity=80 time=0
EXTRACT: note_on channel=0 note=72 velocity=0 time=0.20270275
EXTRACT: note_on channel=0 note=69 velocity=67 time=0
EXTRACT: note_on channel=0 note=69 velocity=0 time=0.20270275
EXTRACT: note_on channel=0 note=72 velocity=80 time=0
EXTRACT: note_on channel=0 note=53 velocity=0 time=0.4054055
EXTRACT: note_on channel=0 note=57 velocity=0 time=0
EXTRACT: note_on channel=0 note=60 velocity=0 time=0
EXTRACT: note_on channel=0 note=53 velocity=78 time=0
EXTRACT: note_on channel=0 note=57 velocity=78 time=0
EXTRACT: note_on channel=0 note=60 velocity=78 time=0
EXTRACT: note_on channel=0 note=72 velocity=0 time=0.810811
EXTRACT: note_on channel=0 note=53 velocity=0 time=0
EXTRACT: note_on channel=0 note=57 velocity=0 time=0
EXTRACT: note_on channel=0 note=60 velocity=0 time=0
EXTRACT: note_on channel=0 note=53 velocity=76 time=0
EXTRACT: note_on channel=0 note=56 velocity=76 time=0
EXTRACT: note_on channel=0 note=60 velocity=76 time=0
EXTRACT: note_on channel=0 note=67 velocity=68 time=0.4054055
EXTRACT: note_on channel=0 note=67 velocity=0 time=0.4054055
EXTRACT: note_on channel=0 note=76 velocity=88 time=0
EXTRACT: note_on channel=0 note=53 velocity=0 time=0
EXTRACT: note_on channel=0 note=56 velocity=0 time=0
EXTRACT: note_on channel=0 note=60 velocity=0 time=0
EXTRACT: note_on channel=0 note=53 velocity=73 time=0
EXTRACT: note_on channel=0 note=56 velocity=73 time=0
EXTRACT: note_on channel=0 note=60 velocity=73 time=0
EXTRACT: note_on channel=0 note=76 velocity=0 time=0.20270275
EXTRACT: note_on channel=0 note=74 velocity=73 time=0
EXTRACT: note_on channel=0 note=74 velocity=0 time=0.20270275
EXTRACT: note_on channel=0 note=72 velocity=68 time=0
EXTRACT: note_on channel=0 note=72 velocity=0 time=0.4054055
EXTRACT: note_on channel=0 note=72 velocity=75 time=0
EXTRACT: note_on channel=0 note=53 velocity=0 time=0
EXTRACT: note_on channel=0 note=56 velocity=0 time=0
EXTRACT: note_on channel=0 note=60 velocity=0 time=0
EXTRACT: note_on channel=0 note=48 velocity=72 time=0
EXTRACT: note_on channel=0 note=52 velocity=72 time=0
EXTRACT: note_on channel=0 note=55 velocity=72 time=0
EXTRACT: note_on channel=0 note=48 velocity=0 time=0.810811
EXTRACT: note_on channel=0 note=52 velocity=0 time=0
EXTRACT: note_on channel=0 note=55 velocity=0 time=0
EXTRACT: note_on channel=0 note=48 velocity=73 time=0
EXTRACT: note_on channel=0 note=52 velocity=73 time=0
EXTRACT: note_on channel=0 note=55 velocity=73 time=0
EXTRACT: note_on channel=0 note=72 velocity=0 time=0.810811
EXTRACT: note_on channel=0 note=48 velocity=0 time=0
EXTRACT: note_on channel=0 note=52 velocity=0 time=0
EXTRACT: note_on channel=0 note=55 velocity=0 time=0
EXTRACT: note_on channel=0 note=48 velocity=79 time=0
EXTRACT: note_on channel=0 note=52 velocity=79 time=0
EXTRACT: note_on channel=0 note=55 velocity=79 time=0
EXTRACT: note_on channel=0 note=74 velocity=67 time=0.60810825
EXTRACT: note_on channel=0 note=74 velocity=0 time=0.20270275
EXTRACT: note_on channel=0 note=74 velocity=74 time=0
EXTRACT: note_on channel=0 note=48 velocity=0 time=0
EXTRACT: note_on channel=0 note=52 velocity=0 time=0
EXTRACT: note_on channel=0 note=55 velocity=0 time=0
EXTRACT: note_on channel=0 note=48 velocity=78 time=0
EXTRACT: note_on channel=0 note=52 velocity=78 time=0
EXTRACT: note_on channel=0 note=55 velocity=78 time=0
EXTRACT: note_on channel=0 note=74 velocity=0 time=0.20270275
EXTRACT: note_on channel=0 note=74 velocity=76 time=0
EXTRACT: note_on channel=0 note=74 velocity=0 time=0.20270275
EXTRACT: note_on channel=0 note=76 velocity=80 time=0
EXTRACT: note_on channel=0 note=76 velocity=0 time=0.4054055
EXTRACT: note_on channel=0 note=72 velocity=66 time=0
EXTRACT: note_on channel=0 note=48 velocity=0 time=0
EXTRACT: note_on channel=0 note=52 velocity=0 time=0
EXTRACT: note_on channel=0 note=55 velocity=0 time=0
EXTRACT: note_on channel=0 note=53 velocity=85 time=0
EXTRACT: note_on channel=0 note=57 velocity=85 time=0
EXTRACT: note_on channel=0 note=60 velocity=85 time=0
EXTRACT: note_on channel=0 note=72 velocity=0 time=0.20270275
EXTRACT: note_on channel=0 note=69 velocity=66 time=0
EXTRACT: note_on channel=0 note=69 velocity=0 time=0.20270275
EXTRACT: note_on channel=0 note=72 velocity=75 time=0
EXTRACT: note_on channel=0 note=53 velocity=0 time=0.4054055
EXTRACT: note_on channel=0 note=57 velocity=0 time=0
EXTRACT: note_on channel=0 note=60 velocity=0 time=0
EXTRACT: note_on channel=0 note=53 velocity=77 time=0
EXTRACT: note_on channel=0 note=57 velocity=77 time=0
EXTRACT: note_on channel=0 note=60 velocity=77 time=0
EXTRACT: note_on channel=0 note=72 velocity=0 time=0.810811
EXTRACT: note_on channel=0 note=53 velocity=0 time=0
EXTRACT: note_on channel=0 note=57 velocity=0 time=0
EXTRACT: note_on channel=0 note=60 velocity=0 time=0
EXTRACT: note_on channel=0 note=53 velocity=74 time=0
EXTRACT: note_on channel=0 note=56 velocity=74 time=0
EXTRACT: note_on channel=0 note=60 velocity=74 time=0
EXTRACT: note_on channel=0 note=67 velocity=68 time=0.4054055
EXTRACT: note_on channel=0 note=67 velocity=0 time=0.4054055
EXTRACT: note_on channel=0 note=76 velocity=88 time=0
EXTRACT: note_on channel=0 note=53 velocity=0 time=0
EXTRACT: note_on channel=0 note=56 velocity=0 time=0
EXTRACT: note_on channel=0 note=60 velocity=0 time=0
EXTRACT: note_on channel=0 note=53 velocity=75 time=0
EXTRACT: note_on channel=0 note=56 velocity=75 time=0
EXTRACT: note_on channel=0 note=60 velocity=75 time=0
EXTRACT: note_on channel=0 note=76 velocity=0 time=0.20270275
EXTRACT: note_on channel=0 note=74 velocity=74 time=0
EXTRACT: note_on channel=0 note=74 velocity=0 time=0.20270275
EXTRACT: note_on channel=0 note=72 velocity=74 time=0
EXTRACT: note_on channel=0 note=72 velocity=0 time=0.4054055
EXTRACT: note_on channel=0 note=72 velocity=72 time=0
EXTRACT: note_on channel=0 note=53 velocity=0 time=0
EXTRACT: note_on channel=0 note=56 velocity=0 time=0
EXTRACT: note_on channel=0 note=60 velocity=0 time=0
EXTRACT: note_on channel=0 note=48 velocity=66 time=0
EXTRACT: note_on channel=0 note=52 velocity=66 time=0
EXTRACT: note_on channel=0 note=55 velocity=66 time=0
EXTRACT: note_on channel=0 note=72 velocity=0 time=3.239865620833333
EXTRACT: note_on channel=0 note=48 velocity=0 time=0
EXTRACT: note_on channel=0 note=52 velocity=0 time=0
EXTRACT: note_on channel=0 note=55 velocity=0 time=0
