EXTRACT: control_change channel=0 control=121 value=0 time=0
EXTRACT: program_change channel=0 program=73 time=0
EXTRACT: control_change channel=0 control=7 value=100 time=0
EXTRACT: control_change channel=0 control=10 value=64 time=0
EXTRACT: control_change channel=0 control=91 value=0 time=0
EXTRACT: control_change channel=0 control=93 value=0 time=0
EXTRACT: control_change channel=1 control=121 value=0 time=0
EXTRACT: program_change channel=1 program=71 time=0
EXTRACT: control_change channel=1 control=7 value=100 time=0
EXTRACT: control_change channel=1 control=10 value=64 time=0
EXTRACT: control_change channel=1 control=91 value=0 time=0
EXTRACT: control_change channel=1 control=93 value=0 time=0
EXTRACT: control_change channel=2 control=121 value=0 time=0
EXTRACT: program_change channel=2 program=64 time=0
EXTRACT: control_change channel=2 control=7 value=100 time=0
EXTRACT: control_change channel=2 control=10 value=64 time=0
EXTRACT: control_change channel=2 control=91 value=0 time=0
EXTRACT: control_change channel=2 control=93 value=0 time=0
EXTRACT: control_change channel=3 control=121 value=0 time=0
EXTRACT: program_change channel=3 program=65 time=0
EXTRACT: control_change channel=3 control=7 value=100 time=0
EXTRACT: control_change channel=3 control=10 value=64 time=0
EXTRACT: control_change channel=3 control=91 value=0 time=0
EXTRACT: control_change channel=3 control=93 value=0 time=0
EXTRACT: control_change channel=4 control=121 value=0 time=0
EXTRACT: program_change channel=4 program=66 time=0
EXTRACT: control_change channel=4 control=7 value=100 time=0
EXTRACT: control_change channel=4 control=10 value=64 time=0
EXTRACT: control_change channel=4 control=91 value=0 time=0
EXTRACT: control_change channel=4 control=93 value=0 time=0
EXTRACT: control_change channel=5 control=121 value=0 time=0
EXTRACT: program_change channel=5 program=67 time=0
EXTRACT: control_change channel=5 control=7 value=100 time=0
EXTRACT: control_change channel=5 control=10 value=64 time=0
EXTRACT: control_change channel=5 control=91 value=0 time=0
EXTRACT: control_change channel=5 control=93 value=0 time=0
EXTRACT: control_change channel=6 control=121 value=0 time=0
EXTRACT: program_change channel=6 program=43 time=0
EXTRACT: control_change channel=6 control=7 value=100 time=0
EXTRACT: control_change channel=6 control=10 value=64 time=0
EXTRACT: control_change channel=6 control=91 value=0 time=0
EXTRACT: control_change channel=6 control=93 value=0 time=0
EXTRACT: control_change channel=7 control=121 value=0 time=0
EXTRACT: program_change channel=7 program=32 time=0
EXTRACT: control_change channel=7 control=7 value=100 time=0
EXTRACT: control_change channel=7 control=10 value=64 time=0
EXTRACT: control_change channel=7 control=91 value=0 time=0
EXTRACT: control_change channel=7 control=93 value=0 time=0
EXTRACT: control_change channel=8 control=121 value=0 time=0
EXTRACT: program_change channel=8 program=44 time=0
EXTRACT: control_change channel=8 control=7 value=100 time=0
EXTRACT: control_change channel=8 control=10 value=64 time=0
EXTRACT: control_change channel=8 control=91 value=0 time=0
EXTRACT: control_change channel=8 control=93 value=0 time=0
EXTRACT: control_change channel=10 control=121 value=0 time=0
EXTRACT: program_change channel=10 program=0 time=0
EXTRACT: control_change channel=10 control=7 value=100 time=0
EXTRACT: control_change channel=10 control=10 value=64 time=0
EXTRACT: control_change channel=10 control=91 value=0 time=0
EXTRACT: control_change channel=10 control=93 value=0 time=0
EXTRACT: note_on channel=5 note=52 velocity=112 time=0.25
EXTRACT: note_on channel=10 note=52 velocity=126 time=0
EXTRACT: note_on channel=10 note=52 velocity=0 time=0.11770833333333333
EXTRACT: note_on channel=5 note=52 velocity=0 time=0.00625
EXTRACT: note_on channel=5 note=53 velocity=112 time=0.0010416666666666667
EXTRACT: note_on channel=10 note=53 velocity=126 time=0
EXTRACT: note_on channel=10 note=53 velocity=0 time=0.11770833333333333
EXTRACT: note_on channel=5 note=53 velocity=0 time=0.00625
EXTRACT: note_on channel=5 note=55 velocity=112 time=0.0010416666666666667
EXTRACT: note_on channel=10 note=55 velocity=126 time=0
EXTRACT: note_on channel=5 note=55 velocity=0 time=0.12395833333333334
EXTRACT: note_on channel=10 note=55 velocity=0 time=0
EXTRACT: note_on channel=5 note=48 velocity=112 time=0
EXTRACT: note_on channel=6 note=36 velocity=96 time=0
EXTRACT: note_on channel=10 note=60 velocity=96 time=0
EXTRACT: note_on channel=10 note=64 velocity=96 time=0
EXTRACT: note_on channel=10 note=67 velocity=96 time=0
EXTRACT: note_on channel=10 note=48 velocity=96 time=0
EXTRACT: note_on channel=0 note=67 velocity=96 time=0.5
EXTRACT: note_on channel=3 note=55 velocity=96 time=0
EXTRACT: note_on channel=10 note=60 velocity=0 time=0.21145833333333333
EXTRACT: note_on channel=10 note=64 velocity=0 time=0
EXTRACT: note_on channel=10 note=67 velocity=0 time=0
EXTRACT: note_on channel=10 note=48 velocity=0 time=0
EXTRACT: note_on channel=0 note=67 velocity=0 time=0.025
EXTRACT: note_on channel=3 note=55 velocity=0 time=0.0125
EXTRACT: note_on channel=5 note=48 velocity=0 time=0
EXTRACT: note_on channel=6 note=36 velocity=0 time=0
EXTRACT: note_on channel=0 note=67 velocity=96 time=0.0010416666666666667
EXTRACT: note_on channel=3 note=55 velocity=96 time=0
EXTRACT: note_on channel=6 note=36 velocity=96 time=0
EXTRACT: note_on channel=10 note=48 velocity=96 time=0
EXTRACT: note_on channel=0 note=67 velocity=0 time=0.23645833333333333
EXTRACT: note_on channel=3 note=55 velocity=0 time=0.0125
EXTRACT: note_on channel=0 note=69 velocity=96 time=0.0010416666666666667
EXTRACT: note_on channel=3 note=57 velocity=96 time=0
EXTRACT: note_on channel=0 note=69 velocity=0 time=0.23645833333333333
EXTRACT: note_on channel=3 note=57 velocity=0 time=0.0125
EXTRACT: note_on channel=6 note=36 velocity=0 time=0
EXTRACT: note_on channel=0 note=72 velocity=96 time=0.0010416666666666667
EXTRACT: note_on channel=3 note=60 velocity=96 time=0
EXTRACT: note_on channel=5 note=48 velocity=99 time=0
EXTRACT: note_on channel=6 note=36 velocity=96 time=0
EXTRACT: note_on channel=10 note=60 velocity=96 time=0
EXTRACT: note_on channel=10 note=64 velocity=96 time=0
EXTRACT: note_on channel=10 note=67 velocity=96 time=0
EXTRACT: note_on channel=10 note=48 velocity=0 time=0.21145833333333333
EXTRACT: note_on channel=0 note=72 velocity=0 time=0.025
EXTRACT: note_on channel=10 note=60 velocity=0 time=0
EXTRACT: note_on channel=10 note=64 velocity=0 time=0
EXTRACT: note_on channel=10 note=67 velocity=0 time=0
EXTRACT: note_on channel=3 note=60 velocity=0 time=0.0125
EXTRACT: note_on channel=5 note=48 velocity=0 time=0
EXTRACT: note_on channel=6 note=36 velocity=0 time=0
EXTRACT: note_on channel=0 note=72 velocity=96 time=0.0010416666666666667
EXTRACT: note_on channel=3 note=60 velocity=96 time=0
EXTRACT: note_on channel=5 note=48 velocity=96 time=0
EXTRACT: note_on channel=6 note=36 velocity=96 time=0
EXTRACT: note_on channel=10 note=60 velocity=96 time=0
EXTRACT: note_on channel=10 note=64 velocity=96 time=0
EXTRACT: note_on channel=10 note=67 velocity=96 time=0
EXTRACT: note_on channel=10 note=48 velocity=96 time=0
EXTRACT: note_on channel=10 note=48 velocity=0 time=0.23645833333333333
EXTRACT: note_on channel=10 note=48 velocity=96 time=0.013541666666666667
EXTRACT: note_on channel=0 note=72 velocity=0 time=0.4614583333333333
EXTRACT: note_on channel=10 note=48 velocity=0 time=0.0125
EXTRACT: note_on channel=3 note=60 velocity=0 time=0.025
EXTRACT: note_on channel=6 note=36 velocity=0 time=0
EXTRACT: note_on channel=0 note=69 velocity=96 time=0.0010416666666666667
EXTRACT: note_on channel=3 note=57 velocity=96 time=0
EXTRACT: note_on channel=6 note=36 velocity=96 time=0
EXTRACT: note_on channel=10 note=48 velocity=96 time=0
EXTRACT: note_on channel=10 note=60 velocity=0 time=0.19895833333333332
EXTRACT: note_on channel=10 note=64 velocity=0 time=0
EXTRACT: note_on channel=10 note=67 velocity=0 time=0
EXTRACT: note_on channel=0 note=69 velocity=0 time=0.05
EXTRACT: note_on channel=3 note=57 velocity=0 time=0
EXTRACT: note_on channel=5 note=48 velocity=0 time=0
EXTRACT: note_on channel=0 note=67 velocity=96 time=0.0010416666666666667
EXTRACT: note_on channel=3 note=55 velocity=96 time=0
EXTRACT: note_on channel=5 note=48 velocity=86 time=0
EXTRACT: note_on channel=10 note=60 velocity=96 time=0
EXTRACT: note_on channel=10 note=64 velocity=96 time=0
EXTRACT: note_on channel=10 note=67 velocity=96 time=0
EXTRACT: note_on channel=10 note=60 velocity=0 time=0.23645833333333333
EXTRACT: note_on channel=10 note=64 velocity=0 time=0
EXTRACT: note_on channel=10 note=67 velocity=0 time=0
EXTRACT: note_on channel=5 note=48 velocity=0 time=0.0125
EXTRACT: note_on channel=5 note=50 velocity=83 time=0.0010416666666666667
EXTRACT: note_on channel=10 note=59 velocity=96 time=0
EXTRACT: note_on channel=10 note=64 velocity=96 time=0
EXTRACT: note_on channel=10 note=67 velocity=96 time=0
EXTRACT: note_on channel=10 note=48 velocity=0 time=0.21145833333333333
EXTRACT: note_on channel=0 note=67 velocity=0 time=0.0125
EXTRACT: note_on channel=10 note=59 velocity=0 time=0.0125
EXTRACT: note_on channel=10 note=64 velocity=0 time=0
EXTRACT: note_on channel=10 note=67 velocity=0 time=0
EXTRACT: note_on channel=3 note=55 velocity=0 time=0.0125
EXTRACT: note_on channel=5 note=50 velocity=0 time=0
EXTRACT: note_on channel=6 note=36 velocity=0 time=0
EXTRACT: note_on channel=5 note=52 velocity=80 time=0.0010416666666666667
EXTRACT: note_on channel=6 note=40 velocity=96 time=0
EXTRACT: note_on channel=10 note=64 velocity=96 time=0
EXTRACT: note_on channel=10 note=67 velocity=96 time=0
EXTRACT: note_on channel=10 note=71 velocity=96 time=0
EXTRACT: note_on channel=10 note=40 velocity=96 time=0
EXTRACT: note_on channel=0 note=67 velocity=96 time=0.5
EXTRACT: note_on channel=4 note=55 velocity=96 time=0
EXTRACT: note_on channel=10 note=64 velocity=0 time=0.21145833333333333
EXTRACT: note_on channel=10 note=67 velocity=0 time=0
EXTRACT: note_on channel=10 note=71 velocity=0 time=0
EXTRACT: note_on channel=10 note=40 velocity=0 time=0
EXTRACT: note_on channel=0 note=67 velocity=0 time=0.025
EXTRACT: note_on channel=4 note=55 velocity=0 time=0.0125
EXTRACT: note_on channel=6 note=40 velocity=0 time=0
EXTRACT: note_on channel=0 note=67 velocity=96 time=0.0010416666666666667
EXTRACT: note_on channel=4 note=55 velocity=96 time=0
EXTRACT: note_on channel=6 note=40 velocity=96 time=0
EXTRACT: note_on channel=10 note=40 velocity=96 time=0
EXTRACT: note_on channel=0 note=67 velocity=0 time=0.23645833333333333
EXTRACT: note_on channel=4 note=55 velocity=0 time=0.0125
EXTRACT: note_on channel=0 note=69 velocity=96 time=0.0010416666666666667
EXTRACT: note_on channel=4 note=57 velocity=96 time=0
EXTRACT: note_on channel=0 note=69 velocity=0 time=0.23645833333333333
EXTRACT: note_on channel=4 note=57 velocity=0 time=0.0125
EXTRACT: note_on channel=6 note=40 velocity=0 time=0
EXTRACT: note_on channel=0 note=72 velocity=96 time=0.0010416666666666667
EXTRACT: note_on channel=4 note=60 velocity=96 time=0
EXTRACT: note_on channel=6 note=40 velocity=96 time=0
EXTRACT: note_on channel=10 note=64 velocity=96 time=0
EXTRACT: note_on channel=10 note=67 velocity=96 time=0
EXTRACT: note_on channel=10 note=71 velocity=96 time=0
EXTRACT: note_on channel=10 note=40 velocity=0 time=0.21145833333333333
EXTRACT: note_on channel=0 note=72 velocity=0 time=0.025
EXTRACT: note_on channel=10 note=64 velocity=0 time=0
EXTRACT: note_on channel=10 note=67 velocity=0 time=0
EXTRACT: note_on channel=10 note=71 velocity=0 time=0
EXTRACT: note_on channel=4 note=60 velocity=0 time=0.0125
EXTRACT: note_on channel=6 note=40 velocity=0 time=0
EXTRACT: note_on channel=0 note=74 velocity=96 time=0.0010416666666666667
EXTRACT: note_on channel=4 note=62 velocity=96 time=0
EXTRACT: note_on channel=6 note=40 velocity=96 time=0
EXTRACT: note_on channel=10 note=64 velocity=96 time=0
EXTRACT: note_on channel=10 note=67 velocity=96 time=0
EXTRACT: note_on channel=10 note=71 velocity=96 time=0
EXTRACT: note_on channel=10 note=40 velocity=96 time=0
EXTRACT: note_on channel=0 note=74 velocity=0 time=0.23645833333333333
EXTRACT: note_on channel=10 note=40 velocity=0 time=0
EXTRACT: note_on channel=4 note=62 velocity=0 time=0.0125
EXTRACT: note_on channel=0 note=72 velocity=96 time=0.0010416666666666667
EXTRACT: note_on channel=4 note=60 velocity=96 time=0
EXTRACT: note_on channel=10 note=40 velocity=96 time=0
EXTRACT: note_on channel=0 note=72 velocity=0 time=0.23645833333333333
EXTRACT: note_on channel=4 note=60 velocity=0 time=0.0125
EXTRACT: note_on channel=0 note=74 velocity=96 time=0.0010416666666666667
EXTRACT: note_on channel=4 note=62 velocity=96 time=0
EXTRACT: note_on channel=10 note=40 velocity=0 time=0.22395833333333334
EXTRACT: note_on channel=6 note=40 velocity=0 time=0.025
EXTRACT: note_on channel=6 note=40 velocity=96 time=0.0010416666666666667
EXTRACT: note_on channel=10 note=40 velocity=96 time=0
EXTRACT: note_on channel=10 note=64 velocity=0 time=0.19895833333333332
EXTRACT: note_on channel=10 note=67 velocity=0 time=0
EXTRACT: note_on channel=10 note=71 velocity=0 time=0
EXTRACT: note_on channel=0 note=74 velocity=0 time=0.025
EXTRACT: note_on channel=4 note=62 velocity=0 time=0.025
EXTRACT: note_on channel=0 note=76 velocity=96 time=0.0010416666666666667
EXTRACT: note_on channel=4 note=64 velocity=96 time=0
EXTRACT: note_on channel=10 note=60 velocity=96 time=0
EXTRACT: note_on channel=10 note=64 velocity=96 time=0
EXTRACT: note_on channel=10 note=67 velocity=96 time=0
EXTRACT: note_on channel=10 note=60 velocity=0 time=0.23645833333333333
EXTRACT: note_on channel=10 note=64 velocity=0 time=0
EXTRACT: note_on channel=10 note=67 velocity=0 time=0
EXTRACT: note_on channel=10 note=64 velocity=96 time=0.013541666666666667
EXTRACT: note_on channel=10 note=69 velocity=96 time=0
EXTRACT: note_on channel=10 note=72 velocity=96 time=0
EXTRACT: note_on channel=10 note=40 velocity=0 time=0.21145833333333333
EXTRACT: note_on channel=0 note=76 velocity=0 time=0.0125
EXTRACT: note_on channel=10 note=64 velocity=0 time=0.0125
EXTRACT: note_on channel=10 note=69 velocity=0 time=0
EXTRACT: note_on channel=10 note=72 velocity=0 time=0
EXTRACT: note_on channel=4 note=64 velocity=0 time=0.0125
EXTRACT: note_on channel=5 note=52 velocity=0 time=0
EXTRACT: note_on channel=6 note=40 velocity=0 time=0
EXTRACT: note_on channel=5 note=45 velocity=80 time=0.0010416666666666667
EXTRACT: note_on channel=6 note=33 velocity=96 time=0
EXTRACT: note_on channel=10 note=69 velocity=96 time=0
EXTRACT: note_on channel=10 note=72 velocity=96 time=0
EXTRACT: note_on channel=10 note=76 velocity=96 time=0
EXTRACT: note_on channel=10 note=45 velocity=96 time=0
EXTRACT: note_on channel=0 note=67 velocity=96 time=0.5
EXTRACT: note_on channel=3 note=55 velocity=96 time=0
EXTRACT: note_on channel=0 note=67 velocity=0 time=0.11770833333333333
EXTRACT: note_on channel=3 note=55 velocity=0 time=0.00625
EXTRACT: note_on channel=0 note=67 velocity=96 time=0.0010416666666666667
EXTRACT: note_on channel=3 note=55 velocity=96 time=0
EXTRACT: note_on channel=10 note=69 velocity=0 time=0.08645833333333333
EXTRACT: note_on channel=10 note=72 velocity=0 time=0
EXTRACT: note_on channel=10 note=76 velocity=0 time=0
EXTRACT: note_on channel=10 note=45 velocity=0 time=0
EXTRACT: note_on channel=0 note=67 velocity=0 time=0.03125
EXTRACT: note_on channel=3 note=55 velocity=0 time=0.00625
EXTRACT: note_on channel=6 note=33 velocity=0 time=0
EXTRACT: note_on channel=0 note=67 velocity=96 time=0.0010416666666666667
EXTRACT: note_on channel=3 note=55 velocity=96 time=0
EXTRACT: note_on channel=6 note=33 velocity=96 time=0
EXTRACT: note_on channel=10 note=45 velocity=96 time=0
EXTRACT: note_on channel=0 note=67 velocity=0 time=0.23645833333333333
EXTRACT: note_on channel=3 note=55 velocity=0 time=0.0125
EXTRACT: note_on channel=0 note=69 velocity=96 time=0.0010416666666666667
EXTRACT: note_on channel=3 note=57 velocity=96 time=0
EXTRACT: note_on channel=0 note=69 velocity=0 time=0.23645833333333333
EXTRACT: note_on channel=3 note=57 velocity=0 time=0.0125
EXTRACT: note_on channel=6 note=33 velocity=0 time=0
EXTRACT: note_on channel=0 note=72 velocity=96 time=0.0010416666666666667
EXTRACT: note_on channel=3 note=60 velocity=96 time=0
EXTRACT: note_on channel=6 note=33 velocity=96 time=0
EXTRACT: note_on channel=10 note=69 velocity=96 time=0
EXTRACT: note_on channel=10 note=72 velocity=96 time=0
EXTRACT: note_on channel=10 note=76 velocity=96 time=0
EXTRACT: note_on channel=10 note=45 velocity=0 time=0.21145833333333333
EXTRACT: note_on channel=0 note=72 velocity=0 time=0.025
EXTRACT: note_on channel=10 note=69 velocity=0 time=0
EXTRACT: note_on channel=10 note=72 velocity=0 time=0
EXTRACT: note_on channel=10 note=76 velocity=0 time=0
EXTRACT: note_on channel=3 note=60 velocity=0 time=0.0125
EXTRACT: note_on channel=5 note=45 velocity=0 time=0
EXTRACT: note_on channel=6 note=33 velocity=0 time=0
EXTRACT: note_on channel=0 note=72 velocity=96 time=0.0010416666666666667
EXTRACT: note_on channel=3 note=60 velocity=96 time=0
EXTRACT: note_on channel=5 note=45 velocity=80 time=0
EXTRACT: note_on channel=6 note=33 velocity=96 time=0
EXTRACT: note_on channel=10 note=69 velocity=96 time=0
EXTRACT: note_on channel=10 note=72 velocity=96 time=0
EXTRACT: note_on channel=10 note=76 velocity=96 time=0
EXTRACT: note_on channel=10 note=45 velocity=96 time=0
EXTRACT: note_on channel=10 note=45 velocity=0 time=0.23645833333333333
EXTRACT: note_on channel=5 note=45 velocity=0 time=0.0125
EXTRACT: note_on channel=5 note=45 velocity=80 time=0.0010416666666666667
EXTRACT: note_on channel=10 note=45 velocity=96 time=0
EXTRACT: note_on channel=5 note=45 velocity=0 time=0.24895833333333334
EXTRACT: note_on channel=5 note=45 velocity=80 time=0.0010416666666666667
EXTRACT: note_on channel=0 note=72 velocity=0 time=0.21145833333333333
EXTRACT: note_on channel=10 note=45 velocity=0 time=0.0125
EXTRACT: note_on channel=3 note=60 velocity=0 time=0.025
EXTRACT: note_on channel=5 note=45 velocity=0 time=0
EXTRACT: note_on channel=6 note=33 velocity=0 time=0
EXTRACT: note_on channel=0 note=69 velocity=96 time=0.0010416666666666667
EXTRACT: note_on channel=3 note=57 velocity=96 time=0
EXTRACT: note_on channel=5 note=47 velocity=80 time=0
EXTRACT: note_on channel=6 note=33 velocity=96 time=0
EXTRACT: note_on channel=10 note=45 velocity=96 time=0
EXTRACT: note_on channel=10 note=69 velocity=0 time=0.19895833333333332
EXTRACT: note_on channel=10 note=72 velocity=0 time=0
EXTRACT: note_on channel=10 note=76 velocity=0 time=0
EXTRACT: note_on channel=5 note=47 velocity=0 time=0.05
EXTRACT: note_on channel=5 note=48 velocity=80 time=0.0010416666666666667
EXTRACT: note_on channel=10 note=60 velocity=96 time=0
EXTRACT: note_on channel=10 note=64 velocity=96 time=0
EXTRACT: note_on channel=10 note=67 velocity=96 time=0
EXTRACT: note_on channel=0 note=69 velocity=0 time=0.22395833333333334
EXTRACT: note_on channel=10 note=60 velocity=0 time=0.0125
EXTRACT: note_on channel=10 note=64 velocity=0 time=0
EXTRACT: note_on channel=10 note=67 velocity=0 time=0
EXTRACT: note_on channel=3 note=57 velocity=0 time=0.0125
EXTRACT: note_on channel=5 note=48 velocity=0 time=0
EXTRACT: note_on channel=0 note=72 velocity=96 time=0.0010416666666666667
EXTRACT: note_on channel=3 note=60 velocity=96 time=0
EXTRACT: note_on channel=5 note=50 velocity=80 time=0
EXTRACT: note_on channel=10 note=60 velocity=96 time=0
EXTRACT: note_on channel=10 note=65 velocity=96 time=0
EXTRACT: note_on channel=10 note=69 velocity=96 time=0
EXTRACT: note_on channel=10 note=45 velocity=0 time=0.21145833333333333
EXTRACT: note_on channel=0 note=72 velocity=0 time=0.025
EXTRACT: note_on channel=10 note=60 velocity=0 time=0
EXTRACT: note_on channel=10 note=65 velocity=0 time=0
EXTRACT: note_on channel=10 note=69 velocity=0 time=0
EXTRACT: note_on channel=3 note=60 velocity=0 time=0.0125
EXTRACT: note_on channel=5 note=50 velocity=0 time=0
EXTRACT: note_on channel=6 note=33 velocity=0 time=0
EXTRACT: note_on channel=2 note=65 velocity=96 time=0.0010416666666666667
EXTRACT: note_on channel=3 note=69 velocity=80 time=0
EXTRACT: note_on channel=4 note=65 velocity=96 time=0
EXTRACT: note_on channel=5 note=50 velocity=80 time=0
EXTRACT: note_on channel=6 note=29 velocity=96 time=0
EXTRACT: note_on channel=10 note=77 velocity=112 time=0
EXTRACT: note_on channel=10 note=41 velocity=112 time=0
EXTRACT: note_on channel=10 note=77 velocity=0 time=0.4739583333333333
EXTRACT: note_on channel=10 note=41 velocity=0 time=0
EXTRACT: note_on channel=2 note=65 velocity=0 time=0.025
EXTRACT: note_on channel=3 note=69 velocity=0 time=0
EXTRACT: note_on channel=4 note=65 velocity=0 time=0
EXTRACT: note_on channel=5 note=50 velocity=0 time=0
EXTRACT: note_on channel=2 note=65 velocity=96 time=0.0010416666666666667
EXTRACT: note_on channel=3 note=69 velocity=80 time=0
EXTRACT: note_on channel=4 note=65 velocity=96 time=0
EXTRACT: note_on channel=5 note=50 velocity=80 time=0
EXTRACT: note_on channel=10 note=77 velocity=112 time=0
EXTRACT: note_on channel=10 note=41 velocity=112 time=0
EXTRACT: note_on channel=10 note=77 velocity=0 time=0.23645833333333333
EXTRACT: note_on channel=10 note=41 velocity=0 time=0
EXTRACT: note_on channel=2 note=65 velocity=0 time=0.0125
EXTRACT: note_on channel=3 note=69 velocity=0 time=0
EXTRACT: note_on channel=4 note=65 velocity=0 time=0
EXTRACT: note_on channel=5 note=50 velocity=0 time=0
EXTRACT: note_on channel=6 note=29 velocity=0 time=0
EXTRACT: note_on channel=2 note=64 velocity=96 time=0.0010416666666666667
EXTRACT: note_on channel=3 note=67 velocity=80 time=0
EXTRACT: note_on channel=4 note=64 velocity=96 time=0
EXTRACT: note_on channel=5 note=48 velocity=80 time=0
EXTRACT: note_on channel=6 note=29 velocity=96 time=0
EXTRACT: note_on channel=10 note=76 velocity=112 time=0
EXTRACT: note_on channel=10 note=41 velocity=112 time=0
EXTRACT: note_on channel=10 note=76 velocity=0 time=0.4739583333333333
EXTRACT: note_on channel=10 note=41 velocity=0 time=0
EXTRACT: note_on channel=2 note=64 velocity=0 time=0.025
EXTRACT: note_on channel=3 note=67 velocity=0 time=0
EXTRACT: note_on channel=4 note=64 velocity=0 time=0
EXTRACT: note_on channel=5 note=48 velocity=0 time=0
EXTRACT: note_on channel=6 note=29 velocity=0 time=0
EXTRACT: note_on channel=2 note=62 velocity=96 time=0.0010416666666666667
EXTRACT: note_on channel=3 note=65 velocity=80 time=0
EXTRACT: note_on channel=4 note=62 velocity=96 time=0
EXTRACT: note_on channel=5 note=48 velocity=80 time=0
EXTRACT: note_on channel=6 note=29 velocity=96 time=0
EXTRACT: note_on channel=10 note=74 velocity=112 time=0
EXTRACT: note_on channel=10 note=41 velocity=112 time=0
EXTRACT: note_on channel=10 note=74 velocity=0 time=0.23645833333333333
EXTRACT: note_on channel=10 note=41 velocity=0 time=0
EXTRACT: note_on channel=2 note=62 velocity=0 time=0.0125
EXTRACT: note_on channel=3 note=65 velocity=0 time=0
EXTRACT: note_on channel=4 note=62 velocity=0 time=0
EXTRACT: note_on channel=5 note=48 velocity=0 time=0
EXTRACT: note_on channel=6 note=29 velocity=0 time=0
EXTRACT: note_on channel=2 note=62 velocity=96 time=0.0010416666666666667
EXTRACT: note_on channel=3 note=65 velocity=80 time=0
EXTRACT: note_on channel=4 note=62 velocity=96 time=0
EXTRACT: note_on channel=5 note=45 velocity=80 time=0
EXTRACT: note_on channel=6 note=29 velocity=96 time=0
EXTRACT: note_on channel=10 note=74 velocity=112 time=0
EXTRACT: note_on channel=10 note=41 velocity=112 time=0
EXTRACT: note_on channel=10 note=74 velocity=0 time=0.11770833333333333
EXTRACT: note_on channel=10 note=76 velocity=112 time=0.007291666666666667
EXTRACT: note_on channel=10 note=76 velocity=0 time=0.11770833333333333
EXTRACT: note_on channel=10 note=77 velocity=112 time=0.007291666666666667
EXTRACT: note_on channel=10 note=77 velocity=0 time=0.11770833333333333
EXTRACT: note_on channel=2 note=62 velocity=0 time=0.00625
EXTRACT: note_on channel=4 note=62 velocity=0 time=0
EXTRACT: note_on channel=2 note=64 velocity=96 time=0.0010416666666666667
EXTRACT: note_on channel=4 note=64 velocity=96 time=0
EXTRACT: note_on channel=10 note=76 velocity=112 time=0
EXTRACT: note_on channel=10 note=76 velocity=0 time=0.11770833333333333
EXTRACT: note_on channel=2 note=64 velocity=0 time=0.00625
EXTRACT: note_on channel=4 note=64 velocity=0 time=0
EXTRACT: note_on channel=2 note=62 velocity=96 time=0.0010416666666666667
EXTRACT: note_on channel=4 note=62 velocity=96 time=0
EXTRACT: note_on channel=10 note=74 velocity=112 time=0
EXTRACT: note_on channel=10 note=41 velocity=0 time=0.21145833333333333
EXTRACT: note_on channel=10 note=74 velocity=0 time=0.025
EXTRACT: note_on channel=2 note=62 velocity=0 time=0.0125
EXTRACT: note_on channel=3 note=65 velocity=0 time=0
EXTRACT: note_on channel=4 note=62 velocity=0 time=0
EXTRACT: note_on channel=5 note=45 velocity=0 time=0
EXTRACT: note_on channel=6 note=29 velocity=0 time=0
EXTRACT: note_on channel=2 note=60 velocity=96 time=0.0010416666666666667
EXTRACT: note_on channel=3 note=64 velocity=80 time=0
EXTRACT: note_on channel=4 note=60 velocity=96 time=0
EXTRACT: note_on channel=5 note=43 velocity=80 time=0
EXTRACT: note_on channel=6 note=29 velocity=96 time=0
EXTRACT: note_on channel=10 note=72 velocity=112 time=0
EXTRACT: note_on channel=10 note=41 velocity=112 time=0
EXTRACT: note_on channel=10 note=72 velocity=0 time=0.7114583333333333
EXTRACT: note_on channel=10 note=41 velocity=0 time=0
EXTRACT: note_on channel=2 note=60 velocity=0 time=0.0375
EXTRACT: note_on channel=3 note=64 velocity=0 time=0
EXTRACT: note_on channel=4 note=60 velocity=0 time=0
EXTRACT: note_on channel=5 note=43 velocity=0 time=0
EXTRACT: note_on channel=6 note=29 velocity=0 time=0
EXTRACT: note_on channel=1 note=60 velocity=96 time=0.0010416666666666667
EXTRACT: note_on channel=2 note=67 velocity=80 time=0
EXTRACT: note_on channel=5 note=48 velocity=80 time=0
EXTRACT: note_on channel=6 note=36 velocity=96 time=0
EXTRACT: note_on channel=10 note=60 velocity=96 time=0
EXTRACT: note_on channel=10 note=64 velocity=96 time=0
EXTRACT: note_on channel=10 note=67 velocity=96 time=0
EXTRACT: note_on channel=10 note=48 velocity=96 time=0
EXTRACT: note_on channel=0 note=67 velocity=96 time=0.25
EXTRACT: note_on channel=3 note=55 velocity=96 time=0
EXTRACT: note_on channel=0 note=67 velocity=0 time=0.23645833333333333
EXTRACT: note_on channel=3 note=55 velocity=0 time=0.0125
EXTRACT: note_on channel=0 note=67 velocity=96 time=0.0010416666666666667
EXTRACT: note_on channel=3 note=55 velocity=96 time=0
EXTRACT: note_on channel=10 note=60 velocity=0 time=0.21145833333333333
EXTRACT: note_on channel=10 note=64 velocity=0 time=0
EXTRACT: note_on channel=10 note=67 velocity=0 time=0
EXTRACT: note_on channel=10 note=48 velocity=0 time=0
EXTRACT: note_on channel=0 note=67 velocity=0 time=0.025
EXTRACT: note_on channel=3 note=55 velocity=0 time=0.0125
EXTRACT: note_on channel=6 note=36 velocity=0 time=0
EXTRACT: note_on channel=0 note=67 velocity=96 time=0.0010416666666666667
EXTRACT: note_on channel=3 note=55 velocity=96 time=0
EXTRACT: note_on channel=6 note=36 velocity=96 time=0
EXTRACT: note_on channel=10 note=48 velocity=96 time=0
EXTRACT: note_on channel=0 note=67 velocity=0 time=0.23645833333333333
EXTRACT: note_on channel=3 note=55 velocity=0 time=0.0125
EXTRACT: note_on channel=0 note=69 velocity=96 time=0.0010416666666666667
EXTRACT: note_on channel=3 note=57 velocity=96 time=0
EXTRACT: note_on channel=0 note=69 velocity=0 time=0.23645833333333333
EXTRACT: note_on channel=1 note=60 velocity=0 time=0.0125
EXTRACT: note_on channel=3 note=57 velocity=0 time=0
EXTRACT: note_on channel=5 note=48 velocity=0 time=0
EXTRACT: note_on channel=6 note=36 velocity=0 time=0
EXTRACT: note_on channel=0 note=72 velocity=96 time=0.0010416666666666667
EXTRACT: note_on channel=1 note=60 velocity=90 time=0
EXTRACT: note_on channel=3 note=60 velocity=96 time=0
EXTRACT: note_on channel=5 note=48 velocity=80 time=0
EXTRACT: note_on channel=6 note=36 velocity=96 time=0
EXTRACT: note_on channel=10 note=60 velocity=96 time=0
EXTRACT: note_on channel=10 note=64 velocity=96 time=0
EXTRACT: note_on channel=10 note=67 velocity=96 time=0
EXTRACT: note_on channel=10 note=48 velocity=0 time=0.21145833333333333
EXTRACT: note_on channel=0 note=72 velocity=0 time=0.025
EXTRACT: note_on channel=10 note=60 velocity=0 time=0
EXTRACT: note_on channel=10 note=64 velocity=0 time=0
EXTRACT: note_on channel=10 note=67 velocity=0 time=0
EXTRACT: note_on channel=1 note=60 velocity=0 time=0.0125
EXTRACT: note_on channel=3 note=60 velocity=0 time=0
EXTRACT: note_on channel=5 note=48 velocity=0 time=0
EXTRACT: note_on channel=6 note=36 velocity=0 time=0
EXTRACT: note_on channel=0 note=72 velocity=96 time=0.0010416666666666667
EXTRACT: note_on channel=1 note=60 velocity=88 time=0
EXTRACT: note_on channel=3 note=60 velocity=96 time=0
EXTRACT: note_on channel=5 note=48 velocity=80 time=0
EXTRACT: note_on channel=6 note=36 velocity=96 time=0
EXTRACT: note_on channel=10 note=60 velocity=96 time=0
EXTRACT: note_on channel=10 note=64 velocity=96 time=0
EXTRACT: note_on channel=10 note=67 velocity=96 time=0
EXTRACT: note_on channel=10 note=48 velocity=96 time=0
EXTRACT: note_on channel=10 note=48 velocity=0 time=0.23645833333333333
EXTRACT: note_on channel=10 note=48 velocity=96 time=0.013541666666666667
EXTRACT: note_on channel=0 note=72 velocity=0 time=0.4614583333333333
EXTRACT: note_on channel=10 note=48 velocity=0 time=0.0125
EXTRACT: note_on channel=3 note=60 velocity=0 time=0.025
EXTRACT: note_on channel=6 note=36 velocity=0 time=0
EXTRACT: note_on channel=0 note=69 velocity=96 time=0.0010416666666666667
EXTRACT: note_on channel=3 note=57 velocity=96 time=0
EXTRACT: note_on channel=6 note=36 velocity=96 time=0
EXTRACT: note_on channel=10 note=48 velocity=96 time=0
EXTRACT: note_on channel=10 note=60 velocity=0 time=0.19895833333333332
EXTRACT: note_on channel=10 note=64 velocity=0 time=0
EXTRACT: note_on channel=10 note=67 velocity=0 time=0
EXTRACT: note_on channel=0 note=69 velocity=0 time=0.0375
EXTRACT: note_on channel=1 note=60 velocity=0 time=0.0125
EXTRACT: note_on channel=3 note=57 velocity=0 time=0
EXTRACT: note_on channel=5 note=48 velocity=0 time=0
EXTRACT: note_on channel=0 note=67 velocity=96 time=0.0010416666666666667
EXTRACT: note_on channel=1 note=60 velocity=83 time=0
EXTRACT: note_on channel=3 note=55 velocity=96 time=0
EXTRACT: note_on channel=5 note=48 velocity=80 time=0
EXTRACT: note_on channel=10 note=60 velocity=96 time=0
EXTRACT: note_on channel=10 note=64 velocity=96 time=0
EXTRACT: note_on channel=10 note=67 velocity=96 time=0
EXTRACT: note_on channel=10 note=60 velocity=0 time=0.23645833333333333
EXTRACT: note_on channel=10 note=64 velocity=0 time=0
EXTRACT: note_on channel=10 note=67 velocity=0 time=0
EXTRACT: note_on channel=1 note=60 velocity=0 time=0.0125
EXTRACT: note_on channel=5 note=48 velocity=0 time=0
EXTRACT: note_on channel=1 note=62 velocity=82 time=0.0010416666666666667
EXTRACT: note_on channel=5 note=50 velocity=80 time=0
EXTRACT: note_on channel=10 note=59 velocity=96 time=0
EXTRACT: note_on channel=10 note=64 velocity=96 time=0
EXTRACT: note_on channel=10 note=67 velocity=96 time=0
EXTRACT: note_on channel=10 note=48 velocity=0 time=0.21145833333333333
EXTRACT: note_on channel=0 note=67 velocity=0 time=0.0125
EXTRACT: note_on channel=10 note=59 velocity=0 time=0.0125
EXTRACT: note_on channel=10 note=64 velocity=0 time=0
EXTRACT: note_on channel=10 note=67 velocity=0 time=0
EXTRACT: note_on channel=1 note=62 velocity=0 time=0.0125
EXTRACT: note_on channel=2 note=67 velocity=0 time=0
EXTRACT: note_on channel=3 note=55 velocity=0 time=0
EXTRACT: note_on channel=5 note=50 velocity=0 time=0
EXTRACT: note_on channel=6 note=36 velocity=0 time=0
EXTRACT: note_on channel=1 note=64 velocity=80 time=0.0010416666666666667
EXTRACT: note_on channel=2 note=71 velocity=80 time=0
EXTRACT: note_on channel=5 note=52 velocity=80 time=0
EXTRACT: note_on channel=6 note=40 velocity=96 time=0
EXTRACT: note_on channel=10 note=64 velocity=96 time=0
EXTRACT: note_on channel=10 note=67 velocity=96 time=0
EXTRACT: note_on channel=10 note=71 velocity=96 time=0
EXTRACT: note_on channel=10 note=40 velocity=96 time=0
EXTRACT: note_on channel=0 note=67 velocity=96 time=0.625
EXTRACT: note_on channel=4 note=55 velocity=96 time=0
EXTRACT: note_on channel=10 note=64 velocity=0 time=0.08645833333333333
EXTRACT: note_on channel=10 note=67 velocity=0 time=0
EXTRACT: note_on channel=10 note=71 velocity=0 time=0
EXTRACT: note_on channel=10 note=40 velocity=0 time=0
EXTRACT: note_on channel=0 note=67 velocity=0 time=0.03125
EXTRACT: note_on channel=4 note=55 velocity=0 time=0.00625
EXTRACT: note_on channel=6 note=40 velocity=0 time=0
EXTRACT: note_on channel=0 note=67 velocity=96 time=0.0010416666666666667
EXTRACT: note_on channel=4 note=55 velocity=96 time=0
EXTRACT: note_on channel=6 note=40 velocity=96 time=0
EXTRACT: note_on channel=10 note=40 velocity=96 time=0
EXTRACT: note_on channel=0 note=67 velocity=0 time=0.23645833333333333
EXTRACT: note_on channel=4 note=55 velocity=0 time=0.0125
EXTRACT: note_on channel=0 note=69 velocity=96 time=0.0010416666666666667
EXTRACT: note_on channel=4 note=57 velocity=96 time=0
EXTRACT: note_on channel=0 note=69 velocity=0 time=0.23645833333333333
EXTRACT: note_on channel=4 note=57 velocity=0 time=0.0125
EXTRACT: note_on channel=6 note=40 velocity=0 time=0
EXTRACT: note_on channel=0 note=72 velocity=96 time=0.0010416666666666667
EXTRACT: note_on channel=4 note=60 velocity=96 time=0
EXTRACT: note_on channel=6 note=40 velocity=96 time=0
EXTRACT: note_on channel=10 note=64 velocity=96 time=0
EXTRACT: note_on channel=10 note=67 velocity=96 time=0
EXTRACT: note_on channel=10 note=71 velocity=96 time=0
EXTRACT: note_on channel=10 note=40 velocity=0 time=0.21145833333333333
EXTRACT: note_on channel=0 note=72 velocity=0 time=0.025
EXTRACT: note_on channel=10 note=64 velocity=0 time=0
EXTRACT: note_on channel=10 note=67 velocity=0 time=0
EXTRACT: note_on channel=10 note=71 velocity=0 time=0
EXTRACT: note_on channel=4 note=60 velocity=0 time=0.0125
EXTRACT: note_on channel=6 note=40 velocity=0 time=0
EXTRACT: note_on channel=0 note=74 velocity=96 time=0.0010416666666666667
EXTRACT: note_on channel=4 note=62 velocity=96 time=0
EXTRACT: note_on channel=6 note=40 velocity=96 time=0
EXTRACT: note_on channel=10 note=64 velocity=96 time=0
EXTRACT: note_on channel=10 note=67 velocity=96 time=0
EXTRACT: note_on channel=10 note=71 velocity=96 time=0
EXTRACT: note_on channel=10 note=40 velocity=96 time=0
EXTRACT: note_on channel=0 note=74 velocity=0 time=0.23645833333333333
EXTRACT: note_on channel=10 note=40 velocity=0 time=0
EXTRACT: note_on channel=4 note=62 velocity=0 time=0.0125
EXTRACT: note_on channel=0 note=72 velocity=96 time=0.0010416666666666667
EXTRACT: note_on channel=4 note=60 velocity=96 time=0
EXTRACT: note_on channel=10 note=40 velocity=96 time=0
EXTRACT: note_on channel=0 note=72 velocity=0 time=0.23645833333333333
EXTRACT: note_on channel=4 note=60 velocity=0 time=0.0125
EXTRACT: note_on channel=0 note=74 velocity=96 time=0.0010416666666666667
EXTRACT: note_on channel=4 note=62 velocity=96 time=0
EXTRACT: note_on channel=10 note=40 velocity=0 time=0.22395833333333334
EXTRACT: note_on channel=6 note=40 velocity=0 time=0.025
EXTRACT: note_on channel=6 note=40 velocity=96 time=0.0010416666666666667
EXTRACT: note_on channel=10 note=40 velocity=96 time=0
EXTRACT: note_on channel=10 note=64 velocity=0 time=0.19895833333333332
EXTRACT: note_on channel=10 note=67 velocity=0 time=0
EXTRACT: note_on channel=10 note=71 velocity=0 time=0
EXTRACT: note_on channel=0 note=74 velocity=0 time=0.025
EXTRACT: note_on channel=4 note=62 velocity=0 time=0.025
EXTRACT: note_on channel=0 note=76 velocity=96 time=0.0010416666666666667
EXTRACT: note_on channel=4 note=64 velocity=96 time=0
EXTRACT: note_on channel=10 note=60 velocity=96 time=0
EXTRACT: note_on channel=10 note=64 velocity=96 time=0
EXTRACT: note_on channel=10 note=67 velocity=96 time=0
EXTRACT: note_on channel=10 note=60 velocity=0 time=0.23645833333333333
EXTRACT: note_on channel=10 note=64 velocity=0 time=0
EXTRACT: note_on channel=10 note=67 velocity=0 time=0
EXTRACT: note_on channel=10 note=64 velocity=96 time=0.013541666666666667
EXTRACT: note_on channel=10 note=69 velocity=96 time=0
EXTRACT: note_on channel=10 note=72 velocity=96 time=0
EXTRACT: note_on channel=10 note=40 velocity=0 time=0.21145833333333333
EXTRACT: note_on channel=0 note=76 velocity=0 time=0.0125
EXTRACT: note_on channel=10 note=64 velocity=0 time=0.0125
EXTRACT: note_on channel=10 note=69 velocity=0 time=0
EXTRACT: note_on channel=10 note=72 velocity=0 time=0
EXTRACT: note_on channel=1 note=64 velocity=0 time=0.0125
EXTRACT: note_on channel=2 note=71 velocity=0 time=0
EXTRACT: note_on channel=4 note=64 velocity=0 time=0
EXTRACT: note_on channel=5 note=52 velocity=0 time=0
EXTRACT: note_on channel=6 note=40 velocity=0 time=0
EXTRACT: note_on channel=1 note=57 velocity=80 time=0.0010416666666666667
EXTRACT: note_on channel=2 note=64 velocity=80 time=0
EXTRACT: note_on channel=5 note=45 velocity=80 time=0
EXTRACT: note_on channel=6 note=33 velocity=96 time=0
EXTRACT: note_on channel=10 note=69 velocity=96 time=0
EXTRACT: note_on channel=10 note=72 velocity=96 time=0
EXTRACT: note_on channel=10 note=76 velocity=96 time=0
EXTRACT: note_on channel=10 note=45 velocity=96 time=0
EXTRACT: note_on channel=0 note=76 velocity=96 time=0.5
EXTRACT: note_on channel=3 note=64 velocity=96 time=0
EXTRACT: note_on channel=10 note=69 velocity=0 time=0.21145833333333333
EXTRACT: note_on channel=10 note=72 velocity=0 time=0
EXTRACT: note_on channel=10 note=76 velocity=0 time=0
EXTRACT: note_on channel=10 note=45 velocity=0 time=0
EXTRACT: note_on channel=0 note=76 velocity=0 time=0.025
EXTRACT: note_on channel=3 note=64 velocity=0 time=0.0125
EXTRACT: note_on channel=6 note=33 velocity=0 time=0
EXTRACT: note_on channel=0 note=76 velocity=96 time=0.0010416666666666667
EXTRACT: note_on channel=3 note=64 velocity=96 time=0
EXTRACT: note_on channel=6 note=33 velocity=96 time=0
EXTRACT: note_on channel=10 note=45 velocity=96 time=0
EXTRACT: note_on channel=0 note=76 velocity=0 time=0.23645833333333333
EXTRACT: note_on channel=3 note=64 velocity=0 time=0.0125
EXTRACT: note_on channel=0 note=74 velocity=96 time=0.0010416666666666667
EXTRACT: note_on channel=3 note=62 velocity=96 time=0
EXTRACT: note_on channel=0 note=74 velocity=0 time=0.23645833333333333
EXTRACT: note_on channel=3 note=62 velocity=0 time=0.0125
EXTRACT: note_on channel=6 note=33 velocity=0 time=0
EXTRACT: note_on channel=0 note=74 velocity=96 time=0.0010416666666666667
EXTRACT: note_on channel=3 note=62 velocity=96 time=0
EXTRACT: note_on channel=6 note=33 velocity=96 time=0
EXTRACT: note_on channel=10 note=69 velocity=96 time=0
EXTRACT: note_on channel=10 note=72 velocity=96 time=0
EXTRACT: note_on channel=10 note=76 velocity=96 time=0
EXTRACT: note_on channel=10 note=45 velocity=0 time=0.21145833333333333
EXTRACT: note_on channel=0 note=74 velocity=0 time=0.025
EXTRACT: note_on channel=10 note=69 velocity=0 time=0
EXTRACT: note_on channel=10 note=72 velocity=0 time=0
EXTRACT: note_on channel=10 note=76 velocity=0 time=0
EXTRACT: note_on channel=1 note=57 velocity=0 time=0.0125
EXTRACT: note_on channel=3 note=62 velocity=0 time=0
EXTRACT: note_on channel=5 note=45 velocity=0 time=0
EXTRACT: note_on channel=6 note=33 velocity=0 time=0
EXTRACT: note_on channel=0 note=74 velocity=96 time=0.0010416666666666667
EXTRACT: note_on channel=1 note=57 velocity=80 time=0
EXTRACT: note_on channel=3 note=62 velocity=96 time=0
EXTRACT: note_on channel=5 note=45 velocity=80 time=0
EXTRACT: note_on channel=6 note=33 velocity=96 time=0
EXTRACT: note_on channel=10 note=69 velocity=96 time=0
EXTRACT: note_on channel=10 note=72 velocity=96 time=0
EXTRACT: note_on channel=10 note=76 velocity=96 time=0
EXTRACT: note_on channel=10 note=45 velocity=96 time=0
EXTRACT: note_on channel=0 note=74 velocity=0 time=0.23645833333333333
EXTRACT: note_on channel=10 note=45 velocity=0 time=0
EXTRACT: note_on channel=1 note=57 velocity=0 time=0.0125
EXTRACT: note_on channel=3 note=62 velocity=0 time=0
EXTRACT: note_on channel=5 note=45 velocity=0 time=0
EXTRACT: note_on channel=0 note=72 velocity=96 time=0.0010416666666666667
EXTRACT: note_on channel=1 note=57 velocity=82 time=0
EXTRACT: note_on channel=3 note=60 velocity=96 time=0
EXTRACT: note_on channel=5 note=45 velocity=82 time=0
EXTRACT: note_on channel=10 note=45 velocity=96 time=0
EXTRACT: note_on channel=0 note=72 velocity=0 time=0.23645833333333333
EXTRACT: note_on channel=1 note=57 velocity=0 time=0.0125
EXTRACT: note_on channel=2 note=64 velocity=0 time=0
EXTRACT: note_on channel=3 note=60 velocity=0 time=0
EXTRACT: note_on channel=5 note=45 velocity=0 time=0
EXTRACT: note_on channel=0 note=72 velocity=96 time=0.0010416666666666667
EXTRACT: note_on channel=1 note=57 velocity=85 time=0
EXTRACT: note_on channel=2 note=57 velocity=80 time=0
EXTRACT: note_on channel=3 note=60 velocity=96 time=0
EXTRACT: note_on channel=5 note=45 velocity=85 time=0
EXTRACT: note_on channel=10 note=45 velocity=0 time=0.22395833333333334
EXTRACT: note_on channel=0 note=72 velocity=0 time=0.0125
EXTRACT: note_on channel=1 note=57 velocity=0 time=0.0125
EXTRACT: note_on channel=2 note=57 velocity=0 time=0
EXTRACT: note_on channel=3 note=60 velocity=0 time=0
EXTRACT: note_on channel=5 note=45 velocity=0 time=0
EXTRACT: note_on channel=6 note=33 velocity=0 time=0
EXTRACT: note_on channel=0 note=72 velocity=96 time=0.0010416666666666667
EXTRACT: note_on channel=1 note=59 velocity=88 time=0
EXTRACT: note_on channel=2 note=59 velocity=80 time=0
EXTRACT: note_on channel=3 note=60 velocity=96 time=0
EXTRACT: note_on channel=5 note=47 velocity=88 time=0
EXTRACT: note_on channel=6 note=33 velocity=96 time=0
EXTRACT: note_on channel=10 note=45 velocity=96 time=0
EXTRACT: note_on channel=10 note=69 velocity=0 time=0.19895833333333332
EXTRACT: note_on channel=10 note=72 velocity=0 time=0
EXTRACT: note_on channel=10 note=76 velocity=0 time=0
EXTRACT: note_on channel=0 note=72 velocity=0 time=0.0375
EXTRACT: note_on channel=1 note=59 velocity=0 time=0.0125
EXTRACT: note_on channel=2 note=59 velocity=0 time=0
EXTRACT: note_on channel=3 note=60 velocity=0 time=0
EXTRACT: note_on channel=5 note=47 velocity=0 time=0
EXTRACT: note_on channel=0 note=74 velocity=96 time=0.0010416666666666667
EXTRACT: note_on channel=1 note=60 velocity=90 time=0
EXTRACT: note_on channel=2 note=60 velocity=80 time=0
EXTRACT: note_on channel=3 note=62 velocity=96 time=0
EXTRACT: note_on channel=5 note=48 velocity=90 time=0
EXTRACT: note_on channel=10 note=60 velocity=96 time=0
EXTRACT: note_on channel=10 note=64 velocity=96 time=0
EXTRACT: note_on channel=10 note=67 velocity=96 time=0
EXTRACT: note_on channel=0 note=74 velocity=0 time=0.23645833333333333
EXTRACT: note_on channel=10 note=60 velocity=0 time=0
EXTRACT: note_on channel=10 note=64 velocity=0 time=0
EXTRACT: note_on channel=10 note=67 velocity=0 time=0
EXTRACT: note_on channel=1 note=60 velocity=0 time=0.0125
EXTRACT: note_on channel=2 note=60 velocity=0 time=0
EXTRACT: note_on channel=3 note=62 velocity=0 time=0
EXTRACT: note_on channel=5 note=48 velocity=0 time=0
EXTRACT: note_on channel=0 note=74 velocity=96 time=0.0010416666666666667
EXTRACT: note_on channel=1 note=62 velocity=93 time=0
EXTRACT: note_on channel=2 note=62 velocity=80 time=0
EXTRACT: note_on channel=3 note=62 velocity=96 time=0
EXTRACT: note_on channel=5 note=50 velocity=93 time=0
EXTRACT: note_on channel=10 note=60 velocity=96 time=0
EXTRACT: note_on channel=10 note=65 velocity=96 time=0
EXTRACT: note_on channel=10 note=69 velocity=96 time=0
EXTRACT: note_on channel=10 note=45 velocity=0 time=0.21145833333333333
EXTRACT: note_on channel=0 note=74 velocity=0 time=0.025
EXTRACT: note_on channel=10 note=60 velocity=0 time=0
EXTRACT: note_on channel=10 note=65 velocity=0 time=0
EXTRACT: note_on channel=10 note=69 velocity=0 time=0
EXTRACT: note_on channel=1 note=62 velocity=0 time=0.0125
EXTRACT: note_on channel=2 note=62 velocity=0 time=0
EXTRACT: note_on channel=3 note=62 velocity=0 time=0
EXTRACT: note_on channel=5 note=50 velocity=0 time=0
EXTRACT: note_on channel=6 note=33 velocity=0 time=0
EXTRACT: note_on channel=1 note=62 velocity=96 time=0.0010416666666666667
EXTRACT: note_on channel=2 note=65 velocity=112 time=0
EXTRACT: note_on channel=3 note=69 velocity=96 time=0
EXTRACT: note_on channel=4 note=65 velocity=112 time=0
EXTRACT: note_on channel=5 note=50 velocity=96 time=0
EXTRACT: note_on channel=6 note=29 velocity=96 time=0
EXTRACT: note_on channel=10 note=77 velocity=112 time=0
EXTRACT: note_on channel=10 note=41 velocity=112 time=0
EXTRACT: note_on channel=10 note=77 velocity=0 time=0.4739583333333333
EXTRACT: note_on channel=10 note=41 velocity=0 time=0
EXTRACT: note_on channel=1 note=62 velocity=0 time=0.025
EXTRACT: note_on channel=2 note=65 velocity=0 time=0
EXTRACT: note_on channel=3 note=69 velocity=0 time=0
EXTRACT: note_on channel=4 note=65 velocity=0 time=0
EXTRACT: note_on channel=5 note=50 velocity=0 time=0
EXTRACT: note_on channel=1 note=62 velocity=96 time=0.0010416666666666667
EXTRACT: note_on channel=2 note=65 velocity=112 time=0
EXTRACT: note_on channel=3 note=69 velocity=96 time=0
EXTRACT: note_on channel=4 note=65 velocity=112 time=0
EXTRACT: note_on channel=5 note=50 velocity=96 time=0
EXTRACT: note_on channel=10 note=77 velocity=112 time=0
EXTRACT: note_on channel=10 note=41 velocity=112 time=0
EXTRACT: note_on channel=10 note=77 velocity=0 time=0.23645833333333333
EXTRACT: note_on channel=10 note=41 velocity=0 time=0
EXTRACT: note_on channel=1 note=62 velocity=0 time=0.0125
EXTRACT: note_on channel=2 note=65 velocity=0 time=0
EXTRACT: note_on channel=3 note=69 velocity=0 time=0
EXTRACT: note_on channel=4 note=65 velocity=0 time=0
EXTRACT: note_on channel=5 note=50 velocity=0 time=0
EXTRACT: note_on channel=6 note=29 velocity=0 time=0
EXTRACT: note_on channel=1 note=60 velocity=96 time=0.0010416666666666667
EXTRACT: note_on channel=2 note=64 velocity=112 time=0
EXTRACT: note_on channel=3 note=67 velocity=96 time=0
EXTRACT: note_on channel=4 note=64 velocity=112 time=0
EXTRACT: note_on channel=5 note=48 velocity=96 time=0
EXTRACT: note_on channel=6 note=29 velocity=96 time=0
EXTRACT: note_on channel=10 note=76 velocity=112 time=0
EXTRACT: note_on channel=10 note=41 velocity=112 time=0
EXTRACT: note_on channel=10 note=76 velocity=0 time=0.4739583333333333
EXTRACT: note_on channel=10 note=41 velocity=0 time=0
EXTRACT: note_on channel=1 note=60 velocity=0 time=0.025
EXTRACT: note_on channel=2 note=64 velocity=0 time=0
EXTRACT: note_on channel=3 note=67 velocity=0 time=0
EXTRACT: note_on channel=4 note=64 velocity=0 time=0
EXTRACT: note_on channel=5 note=48 velocity=0 time=0
EXTRACT: note_on channel=6 note=29 velocity=0 time=0
EXTRACT: note_on channel=1 note=60 velocity=96 time=0.0010416666666666667
EXTRACT: note_on channel=2 note=62 velocity=112 time=0
EXTRACT: note_on channel=3 note=65 velocity=96 time=0
EXTRACT: note_on channel=4 note=62 velocity=112 time=0
EXTRACT: note_on channel=5 note=48 velocity=96 time=0
EXTRACT: note_on channel=6 note=29 velocity=96 time=0
EXTRACT: note_on channel=10 note=74 velocity=112 time=0
EXTRACT: note_on channel=10 note=41 velocity=112 time=0
EXTRACT: note_on channel=10 note=74 velocity=0 time=0.23645833333333333
EXTRACT: note_on channel=10 note=41 velocity=0 time=0
EXTRACT: note_on channel=1 note=60 velocity=0 time=0.0125
EXTRACT: note_on channel=2 note=62 velocity=0 time=0
EXTRACT: note_on channel=3 note=65 velocity=0 time=0
EXTRACT: note_on channel=4 note=62 velocity=0 time=0
EXTRACT: note_on channel=5 note=48 velocity=0 time=0
EXTRACT: note_on channel=6 note=29 velocity=0 time=0
EXTRACT: note_on channel=1 note=57 velocity=96 time=0.0010416666666666667
EXTRACT: note_on channel=2 note=62 velocity=112 time=0
EXTRACT: note_on channel=3 note=65 velocity=96 time=0
EXTRACT: note_on channel=4 note=62 velocity=112 time=0
EXTRACT: note_on channel=5 note=45 velocity=96 time=0
EXTRACT: note_on channel=6 note=29 velocity=96 time=0
EXTRACT: note_on channel=10 note=74 velocity=112 time=0
EXTRACT: note_on channel=10 note=41 velocity=112 time=0
EXTRACT: note_on channel=10 note=74 velocity=0 time=0.11770833333333333
EXTRACT: note_on channel=10 note=76 velocity=112 time=0.007291666666666667
EXTRACT: note_on channel=10 note=76 velocity=0 time=0.11770833333333333
EXTRACT: note_on channel=10 note=77 velocity=112 time=0.007291666666666667
EXTRACT: note_on channel=10 note=77 velocity=0 time=0.11770833333333333
EXTRACT: note_on channel=2 note=62 velocity=0 time=0.00625
EXTRACT: note_on channel=4 note=62 velocity=0 time=0
EXTRACT: note_on channel=2 note=64 velocity=112 time=0.0010416666666666667
EXTRACT: note_on channel=4 note=64 velocity=112 time=0
EXTRACT: note_on channel=10 note=76 velocity=112 time=0
EXTRACT: note_on channel=10 note=76 velocity=0 time=0.11770833333333333
EXTRACT: note_on channel=2 note=64 velocity=0 time=0.00625
EXTRACT: note_on channel=4 note=64 velocity=0 time=0
EXTRACT: note_on channel=2 note=62 velocity=112 time=0.0010416666666666667
EXTRACT: note_on channel=4 note=62 velocity=112 time=0
EXTRACT: note_on channel=10 note=74 velocity=112 time=0
EXTRACT: note_on channel=10 note=41 velocity=0 time=0.21145833333333333
EXTRACT: note_on channel=10 note=74 velocity=0 time=0.025
EXTRACT: note_on channel=1 note=57 velocity=0 time=0.0125
EXTRACT: note_on channel=2 note=62 velocity=0 time=0
EXTRACT: note_on channel=3 note=65 velocity=0 time=0
EXTRACT: note_on channel=4 note=62 velocity=0 time=0
EXTRACT: note_on channel=5 note=45 velocity=0 time=0
EXTRACT: note_on channel=6 note=29 velocity=0 time=0
EXTRACT: note_on channel=1 note=55 velocity=96 time=0.0010416666666666667
EXTRACT: note_on channel=2 note=60 velocity=112 time=0
EXTRACT: note_on channel=3 note=64 velocity=96 time=0
EXTRACT: note_on channel=4 note=60 velocity=112 time=0
EXTRACT: note_on channel=5 note=43 velocity=96 time=0
EXTRACT: note_on channel=6 note=29 velocity=96 time=0
EXTRACT: note_on channel=10 note=72 velocity=112 time=0
EXTRACT: note_on channel=10 note=41 velocity=112 time=0
EXTRACT: note_on channel=10 note=72 velocity=0 time=0.7114583333333333
EXTRACT: note_on channel=10 note=41 velocity=0 time=0
EXTRACT: note_on channel=1 note=55 velocity=0 time=0.0375
EXTRACT: note_on channel=2 note=60 velocity=0 time=0
EXTRACT: note_on channel=3 note=64 velocity=0 time=0
EXTRACT: note_on channel=4 note=60 velocity=0 time=0
EXTRACT: note_on channel=5 note=43 velocity=0 time=0
EXTRACT: note_on channel=6 note=29 velocity=0 time=0
EXTRACT: note_on channel=0 note=72 velocity=96 time=0.0010416666666666667
EXTRACT: note_on channel=1 note=74 velocity=112 time=0
EXTRACT: note_on channel=2 note=74 velocity=112 time=0
EXTRACT: note_on channel=3 note=62 velocity=112 time=0
EXTRACT: note_on channel=4 note=55 velocity=80 time=0
EXTRACT: note_on channel=5 note=48 velocity=96 time=0
EXTRACT: note_on channel=6 note=36 velocity=112 time=0
EXTRACT: note_on channel=10 note=74 velocity=112 time=0
EXTRACT: note_on channel=10 note=48 velocity=112 time=0
EXTRACT: note_on channel=10 note=52 velocity=112 time=0
EXTRACT: note_on channel=10 note=55 velocity=112 time=0
EXTRACT: note_on channel=10 note=74 velocity=0 time=0.23645833333333333
EXTRACT: note_on channel=1 note=74 velocity=0 time=0.0125
EXTRACT: note_on channel=2 note=74 velocity=0 time=0
EXTRACT: note_on channel=3 note=62 velocity=0 time=0
EXTRACT: note_on channel=1 note=76 velocity=112 time=0.0010416666666666667
EXTRACT: note_on channel=2 note=76 velocity=112 time=0
EXTRACT: note_on channel=3 note=64 velocity=112 time=0
EXTRACT: note_on channel=10 note=76 velocity=112 time=0
EXTRACT: note_on channel=10 note=76 velocity=0 time=0.23645833333333333
EXTRACT: note_on channel=1 note=76 velocity=0 time=0.0125
EXTRACT: note_on channel=2 note=76 velocity=0 time=0
EXTRACT: note_on channel=3 note=64 velocity=0 time=0
EXTRACT: note_on channel=1 note=74 velocity=112 time=0.0010416666666666667
EXTRACT: note_on channel=2 note=74 velocity=112 time=0
EXTRACT: note_on channel=3 note=62 velocity=112 time=0
EXTRACT: note_on channel=10 note=74 velocity=112 time=0
EXTRACT: note_on channel=10 note=48 velocity=0 time=0.21145833333333333
EXTRACT: note_on channel=10 note=52 velocity=0 time=0
EXTRACT: note_on channel=10 note=55 velocity=0 time=0
EXTRACT: note_on channel=10 note=74 velocity=0 time=0.025
EXTRACT: note_on channel=1 note=74 velocity=0 time=0.0125
EXTRACT: note_on channel=2 note=74 velocity=0 time=0
EXTRACT: note_on channel=3 note=62 velocity=0 time=0
EXTRACT: note_on channel=6 note=36 velocity=0 time=0
EXTRACT: note_on channel=1 note=76 velocity=112 time=0.0010416666666666667
EXTRACT: note_on channel=2 note=76 velocity=112 time=0
EXTRACT: note_on channel=3 note=64 velocity=112 time=0
EXTRACT: note_on channel=6 note=36 velocity=112 time=0
EXTRACT: note_on channel=10 note=76 velocity=112 time=0
EXTRACT: note_on channel=10 note=48 velocity=112 time=0
EXTRACT: note_on channel=10 note=52 velocity=112 time=0
EXTRACT: note_on channel=10 note=55 velocity=112 time=0
EXTRACT: note_on channel=6 note=36 velocity=0 time=0.49895833333333334
EXTRACT: note_on channel=6 note=36 velocity=112 time=0.0010416666666666667
EXTRACT: note_on channel=10 note=76 velocity=0 time=0.21145833333333333
EXTRACT: note_on channel=10 note=48 velocity=0 time=0
EXTRACT: note_on channel=10 note=52 velocity=0 time=0
EXTRACT: note_on channel=10 note=55 velocity=0 time=0
EXTRACT: note_on channel=1 note=76 velocity=0 time=0.0375
EXTRACT: note_on channel=2 note=76 velocity=0 time=0
EXTRACT: note_on channel=3 note=64 velocity=0 time=0
EXTRACT: note_on channel=6 note=36 velocity=0 time=0
EXTRACT: note_on channel=1 note=74 velocity=112 time=0.0010416666666666667
EXTRACT: note_on channel=2 note=74 velocity=112 time=0
EXTRACT: note_on channel=3 note=62 velocity=112 time=0
EXTRACT: note_on channel=6 note=36 velocity=112 time=0
EXTRACT: note_on channel=10 note=74 velocity=112 time=0
EXTRACT: note_on channel=10 note=55 velocity=112 time=0.125
EXTRACT: note_on channel=10 note=74 velocity=0 time=0.11145833333333333
EXTRACT: note_on channel=10 note=55 velocity=0 time=0.00625
EXTRACT: note_on channel=1 note=74 velocity=0 time=0.00625
EXTRACT: note_on channel=2 note=74 velocity=0 time=0
EXTRACT: note_on channel=3 note=62 velocity=0 time=0
EXTRACT: note_on channel=1 note=76 velocity=112 time=0.0010416666666666667
EXTRACT: note_on channel=2 note=76 velocity=112 time=0
EXTRACT: note_on channel=3 note=64 velocity=112 time=0
EXTRACT: note_on channel=10 note=76 velocity=112 time=0
EXTRACT: note_on channel=10 note=48 velocity=112 time=0
EXTRACT: note_on channel=10 note=52 velocity=112 time=0
EXTRACT: note_on channel=10 note=55 velocity=112 time=0
EXTRACT: note_on channel=10 note=76 velocity=0 time=0.23645833333333333
EXTRACT: note_on channel=10 note=48 velocity=0 time=0
EXTRACT: note_on channel=10 note=52 velocity=0 time=0
EXTRACT: note_on channel=10 note=55 velocity=0 time=0
EXTRACT: note_on channel=1 note=76 velocity=0 time=0.0125
EXTRACT: note_on channel=2 note=76 velocity=0 time=0
EXTRACT: note_on channel=3 note=64 velocity=0 time=0
EXTRACT: note_on channel=1 note=74 velocity=112 time=0.0010416666666666667
EXTRACT: note_on channel=2 note=74 velocity=112 time=0
EXTRACT: note_on channel=3 note=62 velocity=112 time=0
EXTRACT: note_on channel=10 note=74 velocity=112 time=0
EXTRACT: note_on channel=10 note=48 velocity=112 time=0
EXTRACT: note_on channel=10 note=52 velocity=112 time=0
EXTRACT: note_on channel=10 note=55 velocity=112 time=0
EXTRACT: note_on channel=10 note=74 velocity=0 time=0.23645833333333333
EXTRACT: note_on channel=1 note=74 velocity=0 time=0.0125
EXTRACT: note_on channel=2 note=74 velocity=0 time=0
EXTRACT: note_on channel=3 note=62 velocity=0 time=0
EXTRACT: note_on channel=6 note=36 velocity=0 time=0
EXTRACT: note_on channel=1 note=79 velocity=112 time=0.0010416666666666667
EXTRACT: note_on channel=2 note=79 velocity=112 time=0
EXTRACT: note_on channel=3 note=67 velocity=112 time=0
EXTRACT: note_on channel=6 note=36 velocity=112 time=0
EXTRACT: note_on channel=10 note=79 velocity=112 time=0
EXTRACT: note_on channel=10 note=48 velocity=0 time=0.4614583333333333
EXTRACT: note_on channel=10 note=52 velocity=0 time=0
EXTRACT: note_on channel=10 note=55 velocity=0 time=0
EXTRACT: note_on channel=10 note=48 velocity=112 time=0.03854166666666667
EXTRACT: note_on channel=10 note=52 velocity=112 time=0
EXTRACT: note_on channel=10 note=55 velocity=112 time=0
EXTRACT: note_on channel=0 note=72 velocity=0 time=0.09895833333333333
EXTRACT: note_on channel=10 note=79 velocity=0 time=0.1125
EXTRACT: note_on channel=10 note=48 velocity=0 time=0.025
EXTRACT: note_on channel=10 note=52 velocity=0 time=0
EXTRACT: note_on channel=10 note=55 velocity=0 time=0
EXTRACT: note_on channel=1 note=79 velocity=0 time=0.0125
EXTRACT: note_on channel=2 note=79 velocity=0 time=0
EXTRACT: note_on channel=3 note=67 velocity=0 time=0
EXTRACT: note_on channel=4 note=55 velocity=0 time=0
EXTRACT: note_on channel=5 note=48 velocity=0 time=0
EXTRACT: note_on channel=6 note=36 velocity=0 time=0
EXTRACT: note_on channel=0 note=76 velocity=96 time=0.0010416666666666667
EXTRACT: note_on channel=1 note=74 velocity=112 time=0
EXTRACT: note_on channel=2 note=74 velocity=112 time=0
EXTRACT: note_on channel=3 note=62 velocity=112 time=0
EXTRACT: note_on channel=4 note=59 velocity=80 time=0
EXTRACT: note_on channel=5 note=52 velocity=96 time=0
EXTRACT: note_on channel=6 note=40 velocity=112 time=0
EXTRACT: note_on channel=10 note=74 velocity=112 time=0
EXTRACT: note_on channel=10 note=52 velocity=112 time=0
EXTRACT: note_on channel=10 note=55 velocity=112 time=0
EXTRACT: note_on channel=10 note=59 velocity=112 time=0
EXTRACT: note_on channel=10 note=74 velocity=0 time=0.23645833333333333
EXTRACT: note_on channel=1 note=74 velocity=0 time=0.0125
EXTRACT: note_on channel=2 note=74 velocity=0 time=0
EXTRACT: note_on channel=3 note=62 velocity=0 time=0
EXTRACT: note_on channel=1 note=76 velocity=112 time=0.0010416666666666667
EXTRACT: note_on channel=2 note=76 velocity=112 time=0
EXTRACT: note_on channel=3 note=64 velocity=112 time=0
EXTRACT: note_on channel=10 note=76 velocity=112 time=0
EXTRACT: note_on channel=10 note=76 velocity=0 time=0.23645833333333333
EXTRACT: note_on channel=1 note=76 velocity=0 time=0.0125
EXTRACT: note_on channel=2 note=76 velocity=0 time=0
EXTRACT: note_on channel=3 note=64 velocity=0 time=0
EXTRACT: note_on channel=1 note=74 velocity=112 time=0.0010416666666666667
EXTRACT: note_on channel=2 note=74 velocity=112 time=0
EXTRACT: note_on channel=3 note=62 velocity=112 time=0
EXTRACT: note_on channel=10 note=74 velocity=112 time=0
EXTRACT: note_on channel=10 note=52 velocity=0 time=0.21145833333333333
EXTRACT: note_on channel=10 note=55 velocity=0 time=0
EXTRACT: note_on channel=10 note=59 velocity=0 time=0
EXTRACT: note_on channel=10 note=74 velocity=0 time=0.025
EXTRACT: note_on channel=1 note=74 velocity=0 time=0.0125
EXTRACT: note_on channel=2 note=74 velocity=0 time=0
EXTRACT: note_on channel=3 note=62 velocity=0 time=0
EXTRACT: note_on channel=6 note=40 velocity=0 time=0
EXTRACT: note_on channel=1 note=76 velocity=112 time=0.0010416666666666667
EXTRACT: note_on channel=2 note=76 velocity=112 time=0
EXTRACT: note_on channel=3 note=64 velocity=112 time=0
EXTRACT: note_on channel=6 note=40 velocity=112 time=0
EXTRACT: note_on channel=10 note=76 velocity=112 time=0
EXTRACT: note_on channel=10 note=52 velocity=112 time=0
EXTRACT: note_on channel=10 note=55 velocity=112 time=0
EXTRACT: note_on channel=10 note=59 velocity=112 time=0
EXTRACT: note_on channel=6 note=40 velocity=0 time=0.49895833333333334
EXTRACT: note_on channel=6 note=40 velocity=112 time=0.0010416666666666667
EXTRACT: note_on channel=10 note=76 velocity=0 time=0.09270833333333334
EXTRACT: note_on channel=1 note=76 velocity=0 time=0.03125
EXTRACT: note_on channel=2 note=76 velocity=0 time=0
EXTRACT: note_on channel=3 note=64 velocity=0 time=0
EXTRACT: note_on channel=1 note=74 velocity=112 time=0.0010416666666666667
EXTRACT: note_on channel=2 note=74 velocity=112 time=0
EXTRACT: note_on channel=3 note=62 velocity=112 time=0
EXTRACT: note_on channel=10 note=74 velocity=112 time=0
EXTRACT: note_on channel=10 note=52 velocity=0 time=0.08645833333333333
EXTRACT: note_on channel=10 note=55 velocity=0 time=0
EXTRACT: note_on channel=10 note=59 velocity=0 time=0
EXTRACT: note_on channel=10 note=74 velocity=0 time=0.03125
EXTRACT: note_on channel=1 note=74 velocity=0 time=0.00625
EXTRACT: note_on channel=2 note=74 velocity=0 time=0
EXTRACT: note_on channel=3 note=62 velocity=0 time=0
EXTRACT: note_on channel=6 note=40 velocity=0 time=0
EXTRACT: note_on channel=1 note=74 velocity=112 time=0.0010416666666666667
EXTRACT: note_on channel=2 note=74 velocity=112 time=0
EXTRACT: note_on channel=3 note=62 velocity=112 time=0
EXTRACT: note_on channel=6 note=40 velocity=112 time=0
EXTRACT: note_on channel=10 note=74 velocity=112 time=0
EXTRACT: note_on channel=10 note=59 velocity=112 time=0
EXTRACT: note_on channel=10 note=74 velocity=0 time=0.23645833333333333
EXTRACT: note_on channel=10 note=59 velocity=0 time=0
EXTRACT: note_on channel=1 note=74 velocity=0 time=0.0125
EXTRACT: note_on channel=2 note=74 velocity=0 time=0
EXTRACT: note_on channel=3 note=62 velocity=0 time=0
EXTRACT: note_on channel=1 note=76 velocity=112 time=0.0010416666666666667
EXTRACT: note_on channel=2 note=76 velocity=112 time=0
EXTRACT: note_on channel=3 note=64 velocity=112 time=0
EXTRACT: note_on channel=10 note=76 velocity=112 time=0
EXTRACT: note_on channel=10 note=52 velocity=112 time=0
EXTRACT: note_on channel=10 note=55 velocity=112 time=0
EXTRACT: note_on channel=10 note=59 velocity=112 time=0
EXTRACT: note_on channel=10 note=76 velocity=0 time=0.23645833333333333
EXTRACT: note_on channel=10 note=52 velocity=0 time=0
EXTRACT: note_on channel=10 note=55 velocity=0 time=0
EXTRACT: note_on channel=10 note=59 velocity=0 time=0
EXTRACT: note_on channel=1 note=76 velocity=0 time=0.0125
EXTRACT: note_on channel=2 note=76 velocity=0 time=0
EXTRACT: note_on channel=3 note=64 velocity=0 time=0
EXTRACT: note_on channel=1 note=74 velocity=112 time=0.0010416666666666667
EXTRACT: note_on channel=2 note=74 velocity=112 time=0
EXTRACT: note_on channel=3 note=62 velocity=112 time=0
EXTRACT: note_on channel=10 note=74 velocity=112 time=0
EXTRACT: note_on channel=10 note=52 velocity=112 time=0
EXTRACT: note_on channel=10 note=55 velocity=112 time=0
EXTRACT: note_on channel=10 note=59 velocity=112 time=0
EXTRACT: note_on channel=10 note=74 velocity=0 time=0.23645833333333333
EXTRACT: note_on channel=1 note=74 velocity=0 time=0.0125
EXTRACT: note_on channel=2 note=74 velocity=0 time=0
EXTRACT: note_on channel=3 note=62 velocity=0 time=0
EXTRACT: note_on channel=6 note=40 velocity=0 time=0
EXTRACT: note_on channel=1 note=81 velocity=112 time=0.0010416666666666667
EXTRACT: note_on channel=2 note=81 velocity=112 time=0
EXTRACT: note_on channel=3 note=69 velocity=112 time=0
EXTRACT: note_on channel=6 note=40 velocity=112 time=0
EXTRACT: note_on channel=10 note=81 velocity=112 time=0
EXTRACT: note_on channel=10 note=81 velocity=0 time=0.35520833333333335
EXTRACT: note_on channel=1 note=81 velocity=0 time=0.01875
EXTRACT: note_on channel=2 note=81 velocity=0 time=0
EXTRACT: note_on channel=3 note=69 velocity=0 time=0
EXTRACT: note_on channel=1 note=79 velocity=112 time=0.0010416666666666667
EXTRACT: note_on channel=2 note=79 velocity=112 time=0
EXTRACT: note_on channel=3 note=67 velocity=112 time=0
EXTRACT: note_on channel=10 note=79 velocity=112 time=0
EXTRACT: note_on channel=0 note=76 velocity=0 time=0.22395833333333334
EXTRACT: note_on channel=10 note=52 velocity=0 time=0.1
EXTRACT: note_on channel=10 note=55 velocity=0 time=0
EXTRACT: note_on channel=10 note=59 velocity=0 time=0
EXTRACT: note_on channel=4 note=59 velocity=0 time=0.05
EXTRACT: note_on channel=5 note=52 velocity=0 time=0
EXTRACT: note_on channel=6 note=40 velocity=0 time=0
EXTRACT: note_on channel=0 note=69 velocity=96 time=0.0010416666666666667
EXTRACT: note_on channel=4 note=52 velocity=80 time=0
EXTRACT: note_on channel=5 note=45 velocity=96 time=0
EXTRACT: note_on channel=6 note=33 velocity=112 time=0
EXTRACT: note_on channel=10 note=45 velocity=112 time=0
EXTRACT: note_on channel=10 note=48 velocity=112 time=0
EXTRACT: note_on channel=10 note=52 velocity=112 time=0
EXTRACT: note_on channel=10 note=79 velocity=0 time=0.3364583333333333
EXTRACT: note_on channel=1 note=79 velocity=0 time=0.0375
EXTRACT: note_on channel=2 note=79 velocity=0 time=0
EXTRACT: note_on channel=3 note=67 velocity=0 time=0
EXTRACT: note_on channel=1 note=81 velocity=112 time=0.0010416666666666667
EXTRACT: note_on channel=2 note=81 velocity=112 time=0
EXTRACT: note_on channel=3 note=69 velocity=112 time=0
EXTRACT: note_on channel=10 note=81 velocity=112 time=0
EXTRACT: note_on channel=10 note=81 velocity=0 time=0.23645833333333333
EXTRACT: note_on channel=1 note=81 velocity=0 time=0.0125
EXTRACT: note_on channel=2 note=81 velocity=0 time=0
EXTRACT: note_on channel=3 note=69 velocity=0 time=0
EXTRACT: note_on channel=1 note=76 velocity=112 time=0.0010416666666666667
EXTRACT: note_on channel=2 note=76 velocity=112 time=0
EXTRACT: note_on channel=3 note=64 velocity=112 time=0
EXTRACT: note_on channel=10 note=76 velocity=112 time=0
EXTRACT: note_on channel=6 note=33 velocity=0 time=0.12395833333333334
EXTRACT: note_on channel=6 note=33 velocity=112 time=0.0010416666666666667
EXTRACT: note_on channel=10 note=76 velocity=0 time=0.23020833333333332
EXTRACT: note_on channel=1 note=76 velocity=0 time=0.01875
EXTRACT: note_on channel=2 note=76 velocity=0 time=0
EXTRACT: note_on channel=3 note=64 velocity=0 time=0
EXTRACT: note_on channel=6 note=33 velocity=0 time=0.25
EXTRACT: note_on channel=6 note=33 velocity=112 time=0.0010416666666666667
EXTRACT: note_on channel=10 note=45 velocity=0 time=0.17395833333333333
EXTRACT: note_on channel=10 note=48 velocity=0 time=0
EXTRACT: note_on channel=10 note=52 velocity=0 time=0
EXTRACT: note_on channel=6 note=33 velocity=0 time=0.075
EXTRACT: note_on channel=6 note=33 velocity=112 time=0.0010416666666666667
EXTRACT: note_on channel=4 note=52 velocity=0 time=0.49895833333333334
EXTRACT: note_on channel=3 note=64 velocity=112 time=0.0010416666666666667
EXTRACT: note_on channel=4 note=64 velocity=80 time=0
EXTRACT: note_on channel=10 note=45 velocity=112 time=0
EXTRACT: note_on channel=10 note=48 velocity=112 time=0
EXTRACT: note_on channel=10 note=52 velocity=112 time=0
EXTRACT: note_on channel=6 note=33 velocity=0 time=0.24895833333333334
EXTRACT: note_on channel=6 note=33 velocity=112 time=0.0010416666666666667
EXTRACT: note_on channel=10 note=45 velocity=0 time=0.22395833333333334
EXTRACT: note_on channel=10 note=48 velocity=0 time=0
EXTRACT: note_on channel=10 note=52 velocity=0 time=0
EXTRACT: note_on channel=3 note=64 velocity=0 time=0.025
EXTRACT: note_on channel=4 note=64 velocity=0 time=0
EXTRACT: note_on channel=3 note=64 velocity=112 time=0.0010416666666666667
EXTRACT: note_on channel=4 note=64 velocity=80 time=0
EXTRACT: note_on channel=3 note=64 velocity=0 time=0.24895833333333334
EXTRACT: note_on channel=4 note=64 velocity=0 time=0
EXTRACT: note_on channel=3 note=64 velocity=112 time=0.0010416666666666667
EXTRACT: note_on channel=4 note=64 velocity=80 time=0
EXTRACT: note_on channel=10 note=45 velocity=112 time=0
EXTRACT: note_on channel=10 note=48 velocity=112 time=0
EXTRACT: note_on channel=10 note=52 velocity=112 time=0
EXTRACT: note_on channel=0 note=69 velocity=0 time=0.09895833333333333
EXTRACT: note_on channel=10 note=45 velocity=0 time=0.1375
EXTRACT: note_on channel=10 note=48 velocity=0 time=0
EXTRACT: note_on channel=10 note=52 velocity=0 time=0
EXTRACT: note_on channel=3 note=64 velocity=0 time=0.0125
EXTRACT: note_on channel=4 note=64 velocity=0 time=0
EXTRACT: note_on channel=5 note=45 velocity=0 time=0
EXTRACT: note_on channel=6 note=33 velocity=0 time=0
EXTRACT: note_on channel=0 note=77 velocity=96 time=0.0010416666666666667
EXTRACT: note_on channel=2 note=60 velocity=80 time=0
EXTRACT: note_on channel=3 note=62 velocity=112 time=0
EXTRACT: note_on channel=4 note=62 velocity=96 time=0
EXTRACT: note_on channel=5 note=41 velocity=96 time=0
EXTRACT: note_on channel=6 note=29 velocity=112 time=0
EXTRACT: note_on channel=10 note=53 velocity=112 time=0
EXTRACT: note_on channel=10 note=57 velocity=112 time=0
EXTRACT: note_on channel=10 note=60 velocity=112 time=0
EXTRACT: note_on channel=3 note=62 velocity=0 time=0.24895833333333334
EXTRACT: note_on channel=4 note=62 velocity=0 time=0
EXTRACT: note_on channel=3 note=62 velocity=112 time=0.0010416666666666667
EXTRACT: note_on channel=4 note=62 velocity=96 time=0
EXTRACT: note_on channel=3 note=62 velocity=0 time=0.24895833333333334
EXTRACT: note_on channel=4 note=62 velocity=0 time=0
EXTRACT: note_on channel=3 note=60 velocity=112 time=0.0010416666666666667
EXTRACT: note_on channel=4 note=60 velocity=96 time=0
EXTRACT: note_on channel=10 note=53 velocity=0 time=0.21145833333333333
EXTRACT: note_on channel=10 note=57 velocity=0 time=0
EXTRACT: note_on channel=10 note=60 velocity=0 time=0
EXTRACT: note_on channel=3 note=60 velocity=0 time=0.0375
EXTRACT: note_on channel=4 note=60 velocity=0 time=0
EXTRACT: note_on channel=6 note=29 velocity=0 time=0
EXTRACT: note_on channel=3 note=62 velocity=112 time=0.0010416666666666667
EXTRACT: note_on channel=4 note=62 velocity=96 time=0
EXTRACT: note_on channel=6 note=29 velocity=112 time=0
EXTRACT: note_on channel=10 note=53 velocity=112 time=0
EXTRACT: note_on channel=10 note=57 velocity=112 time=0
EXTRACT: note_on channel=10 note=60 velocity=112 time=0
EXTRACT: note_on channel=3 note=62 velocity=0 time=0.49895833333333334
EXTRACT: note_on channel=4 note=62 velocity=0 time=0
EXTRACT: note_on channel=6 note=29 velocity=0 time=0
EXTRACT: note_on channel=3 note=60 velocity=112 time=0.0010416666666666667
EXTRACT: note_on channel=4 note=60 velocity=96 time=0
EXTRACT: note_on channel=6 note=29 velocity=112 time=0
EXTRACT: note_on channel=10 note=53 velocity=0 time=0.21145833333333333
EXTRACT: note_on channel=10 note=57 velocity=0 time=0
EXTRACT: note_on channel=10 note=60 velocity=0 time=0
EXTRACT: note_on channel=6 note=29 velocity=0 time=0.0375
EXTRACT: note_on channel=6 note=29 velocity=112 time=0.0010416666666666667
EXTRACT: note_on channel=10 note=53 velocity=112 time=0.25
EXTRACT: note_on channel=10 note=57 velocity=112 time=0
EXTRACT: note_on channel=10 note=60 velocity=112 time=0
EXTRACT: note_on channel=10 note=53 velocity=0 time=0.23645833333333333
EXTRACT: note_on channel=10 note=57 velocity=0 time=0
EXTRACT: note_on channel=10 note=60 velocity=0 time=0
EXTRACT: note_on channel=2 note=60 velocity=0 time=0.0125
EXTRACT: note_on channel=2 note=67 velocity=112 time=0.0010416666666666667
EXTRACT: note_on channel=10 note=53 velocity=112 time=0
EXTRACT: note_on channel=10 note=57 velocity=112 time=0
EXTRACT: note_on channel=10 note=60 velocity=112 time=0
EXTRACT: note_on channel=2 note=67 velocity=0 time=0.24895833333333334
EXTRACT: note_on channel=6 note=29 velocity=0 time=0
EXTRACT: note_on channel=2 note=67 velocity=112 time=0.0010416666666666667
EXTRACT: note_on channel=6 note=29 velocity=112 time=0
EXTRACT: note_on channel=2 note=67 velocity=0 time=0.24895833333333334
EXTRACT: note_on channel=2 note=69 velocity=112 time=0.0010416666666666667
EXTRACT: note_on channel=10 note=53 velocity=0 time=0.21145833333333333
EXTRACT: note_on channel=10 note=57 velocity=0 time=0
EXTRACT: note_on channel=10 note=60 velocity=0 time=0
EXTRACT: note_on channel=2 note=69 velocity=0 time=0.0375
EXTRACT: note_on channel=2 note=72 velocity=112 time=0.0010416666666666667
EXTRACT: note_on channel=10 note=53 velocity=112 time=0
EXTRACT: note_on channel=10 note=57 velocity=112 time=0
EXTRACT: note_on channel=10 note=60 velocity=112 time=0
EXTRACT: note_on channel=0 note=77 velocity=0 time=0.09895833333333333
EXTRACT: note_on channel=10 note=53 velocity=0 time=0.1375
EXTRACT: note_on channel=10 note=57 velocity=0 time=0
EXTRACT: note_on channel=10 note=60 velocity=0 time=0
EXTRACT: note_on channel=2 note=72 velocity=0 time=0.0125
EXTRACT: note_on channel=3 note=60 velocity=0 time=0
EXTRACT: note_on channel=4 note=60 velocity=0 time=0
EXTRACT: note_on channel=5 note=41 velocity=0 time=0
EXTRACT: note_on channel=6 note=29 velocity=0 time=0
EXTRACT: note_on channel=2 note=72 velocity=112 time=0.0010416666666666667
EXTRACT: note_on channel=3 note=64 velocity=80 time=0
EXTRACT: note_on channel=4 note=52 velocity=80 time=0
EXTRACT: note_on channel=6 note=36 velocity=112 time=0
EXTRACT: note_on channel=10 note=60 velocity=112 time=0
EXTRACT: note_on channel=10 note=64 velocity=112 time=0
EXTRACT: note_on channel=10 note=67 velocity=112 time=0
EXTRACT: note_on channel=10 note=60 velocity=0 time=0.7114583333333333
EXTRACT: note_on channel=10 note=64 velocity=0 time=0
EXTRACT: note_on channel=10 note=67 velocity=0 time=0
EXTRACT: note_on channel=2 note=72 velocity=0 time=0.0375
EXTRACT: note_on channel=3 note=64 velocity=0 time=0
EXTRACT: note_on channel=4 note=52 velocity=0 time=0
EXTRACT: note_on channel=6 note=36 velocity=0 time=0
EXTRACT: note_on channel=2 note=69 velocity=112 time=0.0010416666666666667
EXTRACT: note_on channel=3 note=62 velocity=80 time=0
EXTRACT: note_on channel=4 note=50 velocity=80 time=0
EXTRACT: note_on channel=6 note=36 velocity=112 time=0
EXTRACT: note_on channel=10 note=60 velocity=112 time=0
EXTRACT: note_on channel=10 note=64 velocity=112 time=0
EXTRACT: note_on channel=10 note=67 velocity=112 time=0
EXTRACT: note_on channel=3 note=62 velocity=0 time=0.24895833333333334
EXTRACT: note_on channel=4 note=50 velocity=0 time=0
EXTRACT: note_on channel=3 note=60 velocity=80 time=0.0010416666666666667
EXTRACT: note_on channel=4 note=48 velocity=80 time=0
EXTRACT: note_on channel=6 note=36 velocity=0 time=0.24895833333333334
EXTRACT: note_on channel=6 note=36 velocity=112 time=0.0010416666666666667
EXTRACT: note_on channel=10 note=60 velocity=0 time=0.21145833333333333
EXTRACT: note_on channel=10 note=64 velocity=0 time=0
EXTRACT: note_on channel=10 note=67 velocity=0 time=0
EXTRACT: note_on channel=2 note=69 velocity=0 time=0.0375
EXTRACT: note_on channel=3 note=60 velocity=0 time=0
EXTRACT: note_on channel=4 note=48 velocity=0 time=0
EXTRACT: note_on channel=6 note=36 velocity=0 time=0
EXTRACT: note_on channel=3 note=67 velocity=80 time=0.0010416666666666667
EXTRACT: note_on channel=4 note=52 velocity=80 time=0
EXTRACT: note_on channel=6 note=36 velocity=112 time=0
EXTRACT: note_on channel=10 note=60 velocity=112 time=0
EXTRACT: note_on channel=10 note=64 velocity=112 time=0
EXTRACT: note_on channel=10 note=67 velocity=112 time=0
EXTRACT: note_on channel=5 note=36 velocity=96 time=0.25
EXTRACT: note_on channel=10 note=36 velocity=112 time=0
EXTRACT: note_on channel=2 note=64 velocity=112 time=0.25
EXTRACT: note_on channel=10 note=60 velocity=0 time=0.21145833333333333
EXTRACT: note_on channel=10 note=64 velocity=0 time=0
EXTRACT: note_on channel=10 note=67 velocity=0 time=0
EXTRACT: note_on channel=2 note=64 velocity=0 time=0.0375
EXTRACT: note_on channel=6 note=36 velocity=0 time=0
EXTRACT: note_on channel=2 note=67 velocity=112 time=0.0010416666666666667
EXTRACT: note_on channel=6 note=36 velocity=112 time=0
EXTRACT: note_on channel=10 note=60 velocity=112 time=0
EXTRACT: note_on channel=10 note=64 velocity=112 time=0
EXTRACT: note_on channel=10 note=67 velocity=112 time=0
EXTRACT: note_on channel=2 note=67 velocity=0 time=0.24895833333333334
EXTRACT: note_on channel=2 note=69 velocity=112 time=0.0010416666666666667
EXTRACT: note_on channel=2 note=69 velocity=0 time=0.24895833333333334
EXTRACT: note_on channel=2 note=72 velocity=112 time=0.0010416666666666667
EXTRACT: note_on channel=10 note=36 velocity=0 time=0.18645833333333334
EXTRACT: note_on channel=10 note=60 velocity=0 time=0.025
EXTRACT: note_on channel=10 note=64 velocity=0 time=0
EXTRACT: note_on channel=10 note=67 velocity=0 time=0
EXTRACT: note_on channel=2 note=72 velocity=0 time=0.0375
EXTRACT: note_on channel=3 note=67 velocity=0 time=0
EXTRACT: note_on channel=4 note=52 velocity=0 time=0
EXTRACT: note_on channel=5 note=36 velocity=0 time=0
EXTRACT: note_on channel=6 note=36 velocity=0 time=0
EXTRACT: note_on channel=2 note=71 velocity=112 time=0.0010416666666666667
EXTRACT: note_on channel=3 note=59 velocity=80 time=0
EXTRACT: note_on channel=4 note=59 velocity=80 time=0
EXTRACT: note_on channel=5 note=40 velocity=96 time=0
EXTRACT: note_on channel=6 note=40 velocity=112 time=0
EXTRACT: note_on channel=10 note=64 velocity=112 time=0
EXTRACT: note_on channel=10 note=67 velocity=112 time=0
EXTRACT: note_on channel=10 note=71 velocity=112 time=0
EXTRACT: note_on channel=10 note=40 velocity=112 time=0
EXTRACT: note_on channel=10 note=64 velocity=0 time=0.7114583333333333
EXTRACT: note_on channel=10 note=67 velocity=0 time=0
EXTRACT: note_on channel=10 note=71 velocity=0 time=0
EXTRACT: note_on channel=10 note=40 velocity=0 time=0
EXTRACT: note_on channel=2 note=71 velocity=0 time=0.0375
EXTRACT: note_on channel=3 note=59 velocity=0 time=0
EXTRACT: note_on channel=4 note=59 velocity=0 time=0
EXTRACT: note_on channel=5 note=40 velocity=0 time=0
EXTRACT: note_on channel=6 note=40 velocity=0 time=0
EXTRACT: note_on channel=2 note=71 velocity=112 time=0.0010416666666666667
EXTRACT: note_on channel=3 note=59 velocity=80 time=0
EXTRACT: note_on channel=4 note=55 velocity=80 time=0
EXTRACT: note_on channel=5 note=40 velocity=96 time=0
EXTRACT: note_on channel=6 note=40 velocity=112 time=0
EXTRACT: note_on channel=10 note=64 velocity=112 time=0
EXTRACT: note_on channel=10 note=67 velocity=112 time=0
EXTRACT: note_on channel=10 note=71 velocity=112 time=0
EXTRACT: note_on channel=10 note=40 velocity=112 time=0
EXTRACT: note_on channel=2 note=71 velocity=0 time=0.37395833333333334
EXTRACT: note_on channel=2 note=69 velocity=112 time=0.0010416666666666667
EXTRACT: note_on channel=10 note=64 velocity=0 time=0.09895833333333333
EXTRACT: note_on channel=10 note=67 velocity=0 time=0
EXTRACT: note_on channel=10 note=71 velocity=0 time=0
EXTRACT: note_on channel=2 note=69 velocity=0 time=0.025
EXTRACT: note_on channel=6 note=40 velocity=0 time=0
EXTRACT: note_on channel=2 note=67 velocity=112 time=0.0010416666666666667
EXTRACT: note_on channel=6 note=40 velocity=112 time=0
EXTRACT: note_on channel=10 note=64 velocity=112 time=0
EXTRACT: note_on channel=10 note=67 velocity=112 time=0
EXTRACT: note_on channel=10 note=71 velocity=112 time=0
EXTRACT: note_on channel=10 note=40 velocity=0 time=0.21145833333333333
EXTRACT: note_on channel=10 note=64 velocity=0 time=0.025
EXTRACT: note_on channel=10 note=67 velocity=0 time=0
EXTRACT: note_on channel=10 note=71 velocity=0 time=0
EXTRACT: note_on channel=3 note=59 velocity=0 time=0.0125
EXTRACT: note_on channel=4 note=55 velocity=0 time=0
EXTRACT: note_on channel=5 note=40 velocity=0 time=0
EXTRACT: note_on channel=6 note=40 velocity=0 time=0
EXTRACT: note_on channel=4 note=55 velocity=80 time=0.0010416666666666667
EXTRACT: note_on channel=5 note=40 velocity=96 time=0
EXTRACT: note_on channel=6 note=40 velocity=112 time=0
EXTRACT: note_on channel=10 note=64 velocity=112 time=0
EXTRACT: note_on channel=10 note=67 velocity=112 time=0
EXTRACT: note_on channel=10 note=71 velocity=112 time=0
EXTRACT: note_on channel=10 note=40 velocity=112 time=0
EXTRACT: note_on channel=10 note=40 velocity=0 time=0.23645833333333333
EXTRACT: note_on channel=5 note=40 velocity=0 time=0.0125
EXTRACT: note_on channel=5 note=41 velocity=96 time=0.0010416666666666667
EXTRACT: note_on channel=10 note=41 velocity=112 time=0
EXTRACT: note_on channel=10 note=41 velocity=0 time=0.23645833333333333
EXTRACT: note_on channel=2 note=67 velocity=0 time=0.0125
EXTRACT: note_on channel=5 note=41 velocity=0 time=0
EXTRACT: note_on channel=5 note=43 velocity=96 time=0.0010416666666666667
EXTRACT: note_on channel=10 note=43 velocity=112 time=0
EXTRACT: note_on channel=10 note=64 velocity=0 time=0.21145833333333333
EXTRACT: note_on channel=10 note=67 velocity=0 time=0
EXTRACT: note_on channel=10 note=71 velocity=0 time=0
EXTRACT: note_on channel=10 note=43 velocity=0 time=0.025
EXTRACT: note_on channel=4 note=55 velocity=0 time=0.0125
EXTRACT: note_on channel=5 note=43 velocity=0 time=0
EXTRACT: note_on channel=6 note=40 velocity=0 time=0
EXTRACT: note_on channel=3 note=67 velocity=112 time=0.0010416666666666667
EXTRACT: note_on channel=5 note=43 velocity=96 time=0
EXTRACT: note_on channel=6 note=40 velocity=112 time=0
EXTRACT: note_on channel=10 note=64 velocity=112 time=0
EXTRACT: note_on channel=10 note=67 velocity=112 time=0
EXTRACT: note_on channel=10 note=71 velocity=112 time=0
EXTRACT: note_on channel=10 note=43 velocity=112 time=0
EXTRACT: note_on channel=10 note=43 velocity=0 time=0.23645833333333333
EXTRACT: note_on channel=3 note=67 velocity=0 time=0.0125
EXTRACT: note_on channel=5 note=43 velocity=0 time=0
EXTRACT: note_on channel=3 note=69 velocity=112 time=0.0010416666666666667
EXTRACT: note_on channel=5 note=45 velocity=96 time=0
EXTRACT: note_on channel=10 note=45 velocity=112 time=0
EXTRACT: note_on channel=10 note=45 velocity=0 time=0.23645833333333333
EXTRACT: note_on channel=3 note=69 velocity=0 time=0.0125
EXTRACT: note_on channel=5 note=45 velocity=0 time=0
EXTRACT: note_on channel=3 note=71 velocity=112 time=0.0010416666666666667
EXTRACT: note_on channel=5 note=47 velocity=96 time=0
EXTRACT: note_on channel=10 note=47 velocity=112 time=0
EXTRACT: note_on channel=10 note=64 velocity=0 time=0.21145833333333333
EXTRACT: note_on channel=10 note=67 velocity=0 time=0
EXTRACT: note_on channel=10 note=71 velocity=0 time=0
EXTRACT: note_on channel=10 note=47 velocity=0 time=0.025
EXTRACT: note_on channel=3 note=71 velocity=0 time=0.0125
EXTRACT: note_on channel=5 note=47 velocity=0 time=0
EXTRACT: note_on channel=6 note=40 velocity=0 time=0
EXTRACT: note_on channel=2 note=60 velocity=80 time=0.0010416666666666667
EXTRACT: note_on channel=3 note=69 velocity=112 time=0
EXTRACT: note_on channel=4 note=48 velocity=80 time=0
EXTRACT: note_on channel=5 note=45 velocity=96 time=0
EXTRACT: note_on channel=6 note=33 velocity=112 time=0
EXTRACT: note_on channel=10 note=69 velocity=112 time=0
EXTRACT: note_on channel=10 note=72 velocity=112 time=0
EXTRACT: note_on channel=10 note=76 velocity=112 time=0
EXTRACT: note_on channel=10 note=45 velocity=112 time=0
EXTRACT: note_on channel=10 note=69 velocity=0 time=0.7114583333333333
EXTRACT: note_on channel=10 note=72 velocity=0 time=0
EXTRACT: note_on channel=10 note=76 velocity=0 time=0
EXTRACT: note_on channel=10 note=45 velocity=0 time=0
EXTRACT: note_on channel=2 note=60 velocity=0 time=0.0375
EXTRACT: note_on channel=3 note=69 velocity=0 time=0
EXTRACT: note_on channel=4 note=48 velocity=0 time=0
EXTRACT: note_on channel=5 note=45 velocity=0 time=0
EXTRACT: note_on channel=6 note=33 velocity=0 time=0
EXTRACT: note_on channel=2 note=60 velocity=80 time=0.0010416666666666667
EXTRACT: note_on channel=3 note=69 velocity=112 time=0
EXTRACT: note_on channel=4 note=48 velocity=80 time=0
EXTRACT: note_on channel=5 note=45 velocity=96 time=0
EXTRACT: note_on channel=6 note=33 velocity=112 time=0
EXTRACT: note_on channel=10 note=69 velocity=112 time=0
EXTRACT: note_on channel=10 note=72 velocity=112 time=0
EXTRACT: note_on channel=10 note=76 velocity=112 time=0
EXTRACT: note_on channel=10 note=45 velocity=112 time=0
EXTRACT: note_on channel=6 note=33 velocity=0 time=0.49895833333333334
EXTRACT: note_on channel=6 note=33 velocity=112 time=0.0010416666666666667
EXTRACT: note_on channel=10 note=69 velocity=0 time=0.21145833333333333
EXTRACT: note_on channel=10 note=72 velocity=0 time=0
EXTRACT: note_on channel=10 note=76 velocity=0 time=0
EXTRACT: note_on channel=10 note=45 velocity=0 time=0
EXTRACT: note_on channel=2 note=60 velocity=0 time=0.0375
EXTRACT: note_on channel=3 note=69 velocity=0 time=0
EXTRACT: note_on channel=4 note=48 velocity=0 time=0
EXTRACT: note_on channel=5 note=45 velocity=0 time=0
EXTRACT: note_on channel=6 note=33 velocity=0 time=0
EXTRACT: note_on channel=6 note=33 velocity=112 time=0.0010416666666666667
EXTRACT: note_on channel=10 note=69 velocity=112 time=0
EXTRACT: note_on channel=10 note=72 velocity=112 time=0
EXTRACT: note_on channel=10 note=76 velocity=112 time=0
EXTRACT: note_on channel=3 note=69 velocity=112 time=0.25
EXTRACT: note_on channel=10 note=45 velocity=112 time=0
EXTRACT: note_on channel=10 note=45 velocity=0 time=0.23645833333333333
EXTRACT: note_on channel=3 note=69 velocity=0 time=0.0125
EXTRACT: note_on channel=3 note=69 velocity=112 time=0.0010416666666666667
EXTRACT: note_on channel=10 note=45 velocity=112 time=0
EXTRACT: note_on channel=10 note=69 velocity=0 time=0.21145833333333333
EXTRACT: note_on channel=10 note=72 velocity=0 time=0
EXTRACT: note_on channel=10 note=76 velocity=0 time=0
EXTRACT: note_on channel=10 note=45 velocity=0 time=0.025
EXTRACT: note_on channel=3 note=69 velocity=0 time=0.0125
EXTRACT: note_on channel=6 note=33 velocity=0 time=0
EXTRACT: note_on channel=3 note=69 velocity=112 time=0.0010416666666666667
EXTRACT: note_on channel=6 note=33 velocity=112 time=0
EXTRACT: note_on channel=10 note=69 velocity=112 time=0
EXTRACT: note_on channel=10 note=72 velocity=112 time=0
EXTRACT: note_on channel=10 note=76 velocity=112 time=0
EXTRACT: note_on channel=10 note=45 velocity=112 time=0
EXTRACT: note_on channel=10 note=45 velocity=0 time=0.23645833333333333
EXTRACT: note_on channel=3 note=69 velocity=0 time=0.0125
EXTRACT: note_on channel=3 note=67 velocity=112 time=0.0010416666666666667
EXTRACT: note_on channel=10 note=43 velocity=112 time=0
EXTRACT: note_on channel=10 note=43 velocity=0 time=0.23645833333333333
EXTRACT: note_on channel=3 note=67 velocity=0 time=0.0125
EXTRACT: note_on channel=3 note=64 velocity=112 time=0.0010416666666666667
EXTRACT: note_on channel=10 note=40 velocity=112 time=0
EXTRACT: note_on channel=10 note=69 velocity=0 time=0.21145833333333333
EXTRACT: note_on channel=10 note=72 velocity=0 time=0
EXTRACT: note_on channel=10 note=76 velocity=0 time=0
EXTRACT: note_on channel=10 note=40 velocity=0 time=0.025
EXTRACT: note_on channel=3 note=64 velocity=0 time=0.0125
EXTRACT: note_on channel=6 note=33 velocity=0 time=0
EXTRACT: note_on channel=1 note=65 velocity=112 time=0.0010416666666666667
EXTRACT: note_on channel=2 note=65 velocity=112 time=0
EXTRACT: note_on channel=3 note=65 velocity=112 time=0
EXTRACT: note_on channel=4 note=62 velocity=80 time=0
EXTRACT: note_on channel=5 note=41 velocity=112 time=0
EXTRACT: note_on channel=6 note=29 velocity=112 time=0
EXTRACT: note_on channel=10 note=65 velocity=112 time=0
EXTRACT: note_on channel=10 note=69 velocity=112 time=0
EXTRACT: note_on channel=10 note=72 velocity=112 time=0
EXTRACT: note_on channel=10 note=41 velocity=112 time=0
EXTRACT: note_on channel=10 note=41 velocity=0 time=0.4739583333333333
EXTRACT: note_on channel=1 note=65 velocity=0 time=0.025
EXTRACT: note_on channel=2 note=65 velocity=0 time=0
EXTRACT: note_on channel=3 note=65 velocity=0 time=0
EXTRACT: note_on channel=4 note=62 velocity=0 time=0
EXTRACT: note_on channel=5 note=41 velocity=0 time=0
EXTRACT: note_on channel=1 note=64 velocity=112 time=0.0010416666666666667
EXTRACT: note_on channel=2 note=64 velocity=112 time=0
EXTRACT: note_on channel=3 note=64 velocity=112 time=0
EXTRACT: note_on channel=4 note=60 velocity=80 time=0
EXTRACT: note_on channel=5 note=40 velocity=112 time=0
EXTRACT: note_on channel=10 note=40 velocity=112 time=0
EXTRACT: note_on channel=10 note=65 velocity=0 time=0.21145833333333333
EXTRACT: note_on channel=10 note=69 velocity=0 time=0
EXTRACT: note_on channel=10 note=72 velocity=0 time=0
EXTRACT: note_on channel=10 note=40 velocity=0 time=0.025
EXTRACT: note_on channel=1 note=64 velocity=0 time=0.0125
EXTRACT: note_on channel=2 note=64 velocity=0 time=0
EXTRACT: note_on channel=3 note=64 velocity=0 time=0
EXTRACT: note_on channel=4 note=60 velocity=0 time=0
EXTRACT: note_on channel=5 note=40 velocity=0 time=0
EXTRACT: note_on channel=6 note=29 velocity=0 time=0
EXTRACT: note_on channel=1 note=65 velocity=112 time=0.0010416666666666667
EXTRACT: note_on channel=2 note=65 velocity=112 time=0
EXTRACT: note_on channel=3 note=65 velocity=112 time=0
EXTRACT: note_on channel=4 note=62 velocity=80 time=0
EXTRACT: note_on channel=5 note=41 velocity=112 time=0
EXTRACT: note_on channel=6 note=29 velocity=112 time=0
EXTRACT: note_on channel=10 note=65 velocity=112 time=0
EXTRACT: note_on channel=10 note=69 velocity=112 time=0
EXTRACT: note_on channel=10 note=72 velocity=112 time=0
EXTRACT: note_on channel=10 note=41 velocity=112 time=0
EXTRACT: note_on channel=10 note=41 velocity=0 time=0.4739583333333333
EXTRACT: note_on channel=1 note=65 velocity=0 time=0.025
EXTRACT: note_on channel=2 note=65 velocity=0 time=0
EXTRACT: note_on channel=3 note=65 velocity=0 time=0
EXTRACT: note_on channel=4 note=62 velocity=0 time=0
EXTRACT: note_on channel=5 note=41 velocity=0 time=0
EXTRACT: note_on channel=6 note=29 velocity=0 time=0
EXTRACT: note_on channel=1 note=64 velocity=112 time=0.0010416666666666667
EXTRACT: note_on channel=2 note=64 velocity=112 time=0
EXTRACT: note_on channel=3 note=64 velocity=112 time=0
EXTRACT: note_on channel=4 note=60 velocity=80 time=0
EXTRACT: note_on channel=5 note=40 velocity=112 time=0
EXTRACT: note_on channel=6 note=29 velocity=112 time=0
EXTRACT: note_on channel=10 note=40 velocity=112 time=0
EXTRACT: note_on channel=10 note=65 velocity=0 time=0.21145833333333333
EXTRACT: note_on channel=10 note=69 velocity=0 time=0
EXTRACT: note_on channel=10 note=72 velocity=0 time=0
EXTRACT: note_on channel=10 note=40 velocity=0 time=0.025
EXTRACT: note_on channel=1 note=64 velocity=0 time=0.0125
EXTRACT: note_on channel=2 note=64 velocity=0 time=0
EXTRACT: note_on channel=3 note=64 velocity=0 time=0
EXTRACT: note_on channel=4 note=60 velocity=0 time=0
EXTRACT: note_on channel=5 note=40 velocity=0 time=0
EXTRACT: note_on channel=6 note=29 velocity=0 time=0
EXTRACT: note_on channel=1 note=67 velocity=112 time=0.0010416666666666667
EXTRACT: note_on channel=2 note=67 velocity=112 time=0
EXTRACT: note_on channel=3 note=67 velocity=112 time=0
EXTRACT: note_on channel=4 note=64 velocity=80 time=0
EXTRACT: note_on channel=5 note=43 velocity=112 time=0
EXTRACT: note_on channel=6 note=29 velocity=112 time=0
EXTRACT: note_on channel=10 note=65 velocity=112 time=0
EXTRACT: note_on channel=10 note=69 velocity=112 time=0
EXTRACT: note_on channel=10 note=72 velocity=112 time=0
EXTRACT: note_on channel=10 note=43 velocity=112 time=0
EXTRACT: note_on channel=10 note=65 velocity=0 time=0.7114583333333333
EXTRACT: note_on channel=10 note=69 velocity=0 time=0
EXTRACT: note_on channel=10 note=72 velocity=0 time=0
EXTRACT: note_on channel=1 note=67 velocity=0 time=0.0375
EXTRACT: note_on channel=3 note=67 velocity=0 time=0
EXTRACT: note_on channel=6 note=29 velocity=0 time=0
EXTRACT: note_on channel=1 note=67 velocity=112 time=0.0010416666666666667
EXTRACT: note_on channel=3 note=67 velocity=112 time=0
EXTRACT: note_on channel=6 note=29 velocity=112 time=0
EXTRACT: note_on channel=10 note=65 velocity=112 time=0
EXTRACT: note_on channel=10 note=69 velocity=112 time=0
EXTRACT: note_on channel=10 note=72 velocity=112 time=0
EXTRACT: note_on channel=1 note=67 velocity=0 time=0.24895833333333334
EXTRACT: note_on channel=3 note=67 velocity=0 time=0
EXTRACT: note_on channel=1 note=69 velocity=112 time=0.0010416666666666667
EXTRACT: note_on channel=3 note=69 velocity=112 time=0
EXTRACT: note_on channel=1 note=69 velocity=0 time=0.24895833333333334
EXTRACT: note_on channel=3 note=69 velocity=0 time=0
EXTRACT: note_on channel=1 note=72 velocity=112 time=0.0010416666666666667
EXTRACT: note_on channel=3 note=72 velocity=112 time=0
EXTRACT: note_on channel=10 note=43 velocity=0 time=0.17395833333333333
EXTRACT: note_on channel=10 note=65 velocity=0 time=0.0375
EXTRACT: note_on channel=10 note=69 velocity=0 time=0
EXTRACT: note_on channel=10 note=72 velocity=0 time=0
EXTRACT: note_on channel=1 note=72 velocity=0 time=0.0375
EXTRACT: note_on channel=2 note=67 velocity=0 time=0
EXTRACT: note_on channel=3 note=72 velocity=0 time=0
EXTRACT: note_on channel=4 note=64 velocity=0 time=0
EXTRACT: note_on channel=5 note=43 velocity=0 time=0
EXTRACT: note_on channel=6 note=29 velocity=0 time=0
EXTRACT: note_on channel=1 note=72 velocity=112 time=0.0010416666666666667
EXTRACT: note_on channel=3 note=72 velocity=112 time=0
EXTRACT: note_on channel=4 note=52 velocity=80 time=0
EXTRACT: note_on channel=6 note=36 velocity=112 time=0
EXTRACT: note_on channel=10 note=48 velocity=112 time=0
EXTRACT: note_on channel=10 note=52 velocity=112 time=0
EXTRACT: note_on channel=10 note=55 velocity=112 time=0
EXTRACT: note_on channel=1 note=72 velocity=0 time=0.6239583333333333
EXTRACT: note_on channel=3 note=72 velocity=0 time=0
EXTRACT: note_on channel=1 note=69 velocity=112 time=0.0010416666666666667
EXTRACT: note_on channel=3 note=69 velocity=112 time=0
EXTRACT: note_on channel=10 note=48 velocity=0 time=0.08645833333333333
EXTRACT: note_on channel=10 note=52 velocity=0 time=0
EXTRACT: note_on channel=10 note=55 velocity=0 time=0
EXTRACT: note_on channel=1 note=69 velocity=0 time=0.0375
EXTRACT: note_on channel=3 note=69 velocity=0 time=0
EXTRACT: note_on channel=4 note=52 velocity=0 time=0
EXTRACT: note_on channel=6 note=36 velocity=0 time=0
EXTRACT: note_on channel=1 note=67 velocity=112 time=0.0010416666666666667
EXTRACT: note_on channel=3 note=67 velocity=112 time=0
EXTRACT: note_on channel=4 note=50 velocity=80 time=0
EXTRACT: note_on channel=6 note=36 velocity=112 time=0
EXTRACT: note_on channel=10 note=48 velocity=112 time=0
EXTRACT: note_on channel=10 note=52 velocity=112 time=0
EXTRACT: note_on channel=10 note=55 velocity=112 time=0
EXTRACT: note_on channel=4 note=50 velocity=0 time=0.24895833333333334
EXTRACT: note_on channel=4 note=48 velocity=80 time=0.0010416666666666667
EXTRACT: note_on channel=6 note=36 velocity=0 time=0.24895833333333334
EXTRACT: note_on channel=6 note=36 velocity=112 time=0.0010416666666666667
EXTRACT: note_on channel=10 note=48 velocity=0 time=0.21145833333333333
EXTRACT: note_on channel=10 note=52 velocity=0 time=0
EXTRACT: note_on channel=10 note=55 velocity=0 time=0
EXTRACT: note_on channel=1 note=67 velocity=0 time=0.0375
EXTRACT: note_on channel=3 note=67 velocity=0 time=0
EXTRACT: note_on channel=4 note=48 velocity=0 time=0
EXTRACT: note_on channel=6 note=36 velocity=0 time=0
EXTRACT: note_on channel=4 note=52 velocity=80 time=0.0010416666666666667
EXTRACT: note_on channel=6 note=36 velocity=112 time=0
EXTRACT: note_on channel=10 note=48 velocity=112 time=0
EXTRACT: note_on channel=10 note=52 velocity=112 time=0
EXTRACT: note_on channel=10 note=55 velocity=112 time=0
EXTRACT: note_on channel=0 note=84 velocity=112 time=0.25
EXTRACT: note_on channel=1 note=64 velocity=112 time=0
EXTRACT: note_on channel=2 note=84 velocity=112 time=0
EXTRACT: note_on channel=3 note=64 velocity=112 time=0
EXTRACT: note_on channel=5 note=36 velocity=96 time=0
EXTRACT: note_on channel=0 note=84 velocity=0 time=0.23645833333333333
EXTRACT: note_on channel=1 note=64 velocity=0 time=0.0125
EXTRACT: note_on channel=2 note=84 velocity=0 time=0
EXTRACT: note_on channel=3 note=64 velocity=0 time=0
EXTRACT: note_on channel=0 note=84 velocity=112 time=0.0010416666666666667
EXTRACT: note_on channel=1 note=64 velocity=112 time=0
EXTRACT: note_on channel=2 note=84 velocity=112 time=0
EXTRACT: note_on channel=3 note=64 velocity=112 time=0
EXTRACT: note_on channel=10 note=48 velocity=0 time=0.21145833333333333
EXTRACT: note_on channel=10 note=52 velocity=0 time=0
EXTRACT: note_on channel=10 note=55 velocity=0 time=0
EXTRACT: note_on channel=0 note=84 velocity=0 time=0.025
EXTRACT: note_on channel=1 note=64 velocity=0 time=0.0125
EXTRACT: note_on channel=2 note=84 velocity=0 time=0
EXTRACT: note_on channel=3 note=64 velocity=0 time=0
EXTRACT: note_on channel=6 note=36 velocity=0 time=0
EXTRACT: note_on channel=0 note=84 velocity=112 time=0.0010416666666666667
EXTRACT: note_on channel=1 note=67 velocity=112 time=0
EXTRACT: note_on channel=2 note=84 velocity=112 time=0
EXTRACT: note_on channel=3 note=67 velocity=112 time=0
EXTRACT: note_on channel=6 note=36 velocity=112 time=0
EXTRACT: note_on channel=10 note=48 velocity=112 time=0
EXTRACT: note_on channel=10 note=52 velocity=112 time=0
EXTRACT: note_on channel=10 note=55 velocity=112 time=0
EXTRACT: note_on channel=0 note=84 velocity=0 time=0.23645833333333333
EXTRACT: note_on channel=1 note=67 velocity=0 time=0.0125
EXTRACT: note_on channel=2 note=84 velocity=0 time=0
EXTRACT: note_on channel=3 note=67 velocity=0 time=0
EXTRACT: note_on channel=0 note=84 velocity=112 time=0.0010416666666666667
EXTRACT: note_on channel=1 note=69 velocity=112 time=0
EXTRACT: note_on channel=2 note=84 velocity=112 time=0
EXTRACT: note_on channel=3 note=69 velocity=112 time=0
EXTRACT: note_on channel=0 note=84 velocity=0 time=0.23645833333333333
EXTRACT: note_on channel=1 note=69 velocity=0 time=0.0125
EXTRACT: note_on channel=2 note=84 velocity=0 time=0
EXTRACT: note_on channel=3 note=69 velocity=0 time=0
EXTRACT: note_on channel=0 note=84 velocity=112 time=0.0010416666666666667
EXTRACT: note_on channel=1 note=72 velocity=112 time=0
EXTRACT: note_on channel=2 note=84 velocity=112 time=0
EXTRACT: note_on channel=3 note=72 velocity=112 time=0
EXTRACT: note_on channel=10 note=48 velocity=0 time=0.21145833333333333
EXTRACT: note_on channel=10 note=52 velocity=0 time=0
EXTRACT: note_on channel=10 note=55 velocity=0 time=0
EXTRACT: note_on channel=0 note=84 velocity=0 time=0.025
EXTRACT: note_on channel=1 note=72 velocity=0 time=0.0125
EXTRACT: note_on channel=2 note=84 velocity=0 time=0
EXTRACT: note_on channel=3 note=72 velocity=0 time=0
EXTRACT: note_on channel=4 note=52 velocity=0 time=0
EXTRACT: note_on channel=5 note=36 velocity=0 time=0
EXTRACT: note_on channel=6 note=36 velocity=0 time=0
EXTRACT: note_on channel=0 note=83 velocity=112 time=0.0010416666666666667
EXTRACT: note_on channel=1 note=71 velocity=112 time=0
EXTRACT: note_on channel=2 note=83 velocity=112 time=0
EXTRACT: note_on channel=3 note=71 velocity=112 time=0
EXTRACT: note_on channel=4 note=59 velocity=80 time=0
EXTRACT: note_on channel=5 note=40 velocity=96 time=0
EXTRACT: note_on channel=6 note=40 velocity=112 time=0
EXTRACT: note_on channel=10 note=52 velocity=112 time=0
EXTRACT: note_on channel=10 note=55 velocity=112 time=0
EXTRACT: note_on channel=10 note=59 velocity=112 time=0
EXTRACT: note_on channel=0 note=83 velocity=0 time=0.7114583333333333
EXTRACT: note_on channel=10 note=52 velocity=0 time=0
EXTRACT: note_on channel=10 note=55 velocity=0 time=0
EXTRACT: note_on channel=10 note=59 velocity=0 time=0
EXTRACT: note_on channel=1 note=71 velocity=0 time=0.0375
EXTRACT: note_on channel=2 note=83 velocity=0 time=0
EXTRACT: note_on channel=3 note=71 velocity=0 time=0
EXTRACT: note_on channel=4 note=59 velocity=0 time=0
EXTRACT: note_on channel=5 note=40 velocity=0 time=0
EXTRACT: note_on channel=6 note=40 velocity=0 time=0
EXTRACT: note_on channel=0 note=83 velocity=112 time=0.0010416666666666667
EXTRACT: note_on channel=1 note=71 velocity=112 time=0
EXTRACT: note_on channel=2 note=83 velocity=112 time=0
EXTRACT: note_on channel=3 note=71 velocity=112 time=0
EXTRACT: note_on channel=4 note=55 velocity=80 time=0
EXTRACT: note_on channel=5 note=40 velocity=96 time=0
EXTRACT: note_on channel=6 note=40 velocity=112 time=0
EXTRACT: note_on channel=10 note=52 velocity=112 time=0
EXTRACT: note_on channel=10 note=55 velocity=112 time=0
EXTRACT: note_on channel=10 note=59 velocity=112 time=0
EXTRACT: note_on channel=0 note=83 velocity=0 time=0.11770833333333333
EXTRACT: note_on channel=1 note=71 velocity=0 time=0.00625
EXTRACT: note_on channel=2 note=83 velocity=0 time=0
EXTRACT: note_on channel=3 note=71 velocity=0 time=0
EXTRACT: note_on channel=0 note=81 velocity=112 time=0.0010416666666666667
EXTRACT: note_on channel=1 note=69 velocity=112 time=0
EXTRACT: note_on channel=2 note=81 velocity=112 time=0
EXTRACT: note_on channel=3 note=69 velocity=112 time=0
EXTRACT: note_on channel=0 note=81 velocity=0 time=0.11770833333333333
EXTRACT: note_on channel=1 note=69 velocity=0 time=0.00625
EXTRACT: note_on channel=2 note=81 velocity=0 time=0
EXTRACT: note_on channel=3 note=69 velocity=0 time=0
EXTRACT: note_on channel=0 note=79 velocity=112 time=0.0010416666666666667
EXTRACT: note_on channel=1 note=67 velocity=112 time=0
EXTRACT: note_on channel=2 note=79 velocity=112 time=0
EXTRACT: note_on channel=3 note=67 velocity=112 time=0
EXTRACT: note_on channel=10 note=52 velocity=0 time=0.22395833333333334
EXTRACT: note_on channel=10 note=55 velocity=0 time=0
EXTRACT: note_on channel=10 note=59 velocity=0 time=0
EXTRACT: note_on channel=6 note=40 velocity=0 time=0.025
EXTRACT: note_on channel=6 note=40 velocity=112 time=0.0010416666666666667
EXTRACT: note_on channel=10 note=52 velocity=112 time=0
EXTRACT: note_on channel=10 note=55 velocity=112 time=0
EXTRACT: note_on channel=10 note=59 velocity=112 time=0
EXTRACT: note_on channel=10 note=52 velocity=0 time=0.23645833333333333
EXTRACT: note_on channel=10 note=55 velocity=0 time=0
EXTRACT: note_on channel=10 note=59 velocity=0 time=0
EXTRACT: note_on channel=4 note=55 velocity=0 time=0.0125
EXTRACT: note_on channel=5 note=40 velocity=0 time=0
EXTRACT: note_on channel=6 note=40 velocity=0 time=0
EXTRACT: note_on channel=4 note=55 velocity=80 time=0.0010416666666666667
EXTRACT: note_on channel=5 note=40 velocity=96 time=0
EXTRACT: note_on channel=6 note=40 velocity=112 time=0
EXTRACT: note_on channel=10 note=52 velocity=112 time=0
EXTRACT: note_on channel=10 note=55 velocity=112 time=0
EXTRACT: note_on channel=10 note=59 velocity=112 time=0
EXTRACT: note_on channel=5 note=40 velocity=0 time=0.24895833333333334
EXTRACT: note_on channel=5 note=41 velocity=96 time=0.0010416666666666667
EXTRACT: note_on channel=0 note=79 velocity=0 time=0.19895833333333332
EXTRACT: note_on channel=1 note=67 velocity=0 time=0.05
EXTRACT: note_on channel=2 note=79 velocity=0 time=0
EXTRACT: note_on channel=3 note=67 velocity=0 time=0
EXTRACT: note_on channel=5 note=41 velocity=0 time=0
EXTRACT: note_on channel=5 note=43 velocity=96 time=0.0010416666666666667
EXTRACT: note_on channel=0 note=79 velocity=112 time=0.125
EXTRACT: note_on channel=1 note=67 velocity=112 time=0
EXTRACT: note_on channel=2 note=67 velocity=112 time=0
EXTRACT: note_on channel=3 note=67 velocity=112 time=0
EXTRACT: note_on channel=10 note=52 velocity=0 time=0.08645833333333333
EXTRACT: note_on channel=10 note=55 velocity=0 time=0
EXTRACT: note_on channel=10 note=59 velocity=0 time=0
EXTRACT: note_on channel=0 note=79 velocity=0 time=0.03125
EXTRACT: note_on channel=1 note=67 velocity=0 time=0.00625
EXTRACT: note_on channel=2 note=67 velocity=0 time=0
EXTRACT: note_on channel=3 note=67 velocity=0 time=0
EXTRACT: note_on channel=4 note=55 velocity=0 time=0
EXTRACT: note_on channel=5 note=43 velocity=0 time=0
EXTRACT: note_on channel=6 note=40 velocity=0 time=0
EXTRACT: note_on channel=0 note=79 velocity=112 time=0.0010416666666666667
EXTRACT: note_on channel=1 note=67 velocity=112 time=0
EXTRACT: note_on channel=2 note=67 velocity=112 time=0
EXTRACT: note_on channel=3 note=67 velocity=112 time=0
EXTRACT: note_on channel=5 note=43 velocity=96 time=0
EXTRACT: note_on channel=6 note=40 velocity=112 time=0
EXTRACT: note_on channel=10 note=52 velocity=112 time=0
EXTRACT: note_on channel=10 note=55 velocity=112 time=0
EXTRACT: note_on channel=10 note=59 velocity=112 time=0
EXTRACT: note_on channel=0 note=79 velocity=0 time=0.23645833333333333
EXTRACT: note_on channel=1 note=67 velocity=0 time=0.0125
EXTRACT: note_on channel=2 note=67 velocity=0 time=0
EXTRACT: note_on channel=3 note=67 velocity=0 time=0
EXTRACT: note_on channel=5 note=43 velocity=0 time=0
EXTRACT: note_on channel=0 note=81 velocity=112 time=0.0010416666666666667
EXTRACT: note_on channel=1 note=69 velocity=112 time=0
EXTRACT: note_on channel=2 note=69 velocity=112 time=0
EXTRACT: note_on channel=3 note=69 velocity=112 time=0
EXTRACT: note_on channel=5 note=45 velocity=96 time=0
EXTRACT: note_on channel=0 note=81 velocity=0 time=0.23645833333333333
EXTRACT: note_on channel=1 note=69 velocity=0 time=0.0125
EXTRACT: note_on channel=2 note=69 velocity=0 time=0
EXTRACT: note_on channel=3 note=69 velocity=0 time=0
EXTRACT: note_on channel=5 note=45 velocity=0 time=0
EXTRACT: note_on channel=0 note=83 velocity=112 time=0.0010416666666666667
EXTRACT: note_on channel=1 note=71 velocity=112 time=0
EXTRACT: note_on channel=2 note=71 velocity=112 time=0
EXTRACT: note_on channel=3 note=71 velocity=112 time=0
EXTRACT: note_on channel=5 note=47 velocity=96 time=0
EXTRACT: note_on channel=10 note=52 velocity=0 time=0.21145833333333333
EXTRACT: note_on channel=10 note=55 velocity=0 time=0
EXTRACT: note_on channel=10 note=59 velocity=0 time=0
EXTRACT: note_on channel=0 note=83 velocity=0 time=0.025
EXTRACT: note_on channel=1 note=71 velocity=0 time=0.0125
EXTRACT: note_on channel=2 note=71 velocity=0 time=0
EXTRACT: note_on channel=3 note=71 velocity=0 time=0
EXTRACT: note_on channel=5 note=47 velocity=0 time=0
EXTRACT: note_on channel=6 note=40 velocity=0 time=0
EXTRACT: note_on channel=0 note=81 velocity=112 time=0.0010416666666666667
EXTRACT: note_on channel=1 note=69 velocity=112 time=0
EXTRACT: note_on channel=2 note=69 velocity=112 time=0
EXTRACT: note_on channel=3 note=69 velocity=112 time=0
EXTRACT: note_on channel=4 note=48 velocity=80 time=0
EXTRACT: note_on channel=5 note=45 velocity=96 time=0
EXTRACT: note_on channel=6 note=33 velocity=112 time=0
EXTRACT: note_on channel=10 note=57 velocity=112 time=0
EXTRACT: note_on channel=10 note=60 velocity=112 time=0
EXTRACT: note_on channel=10 note=64 velocity=112 time=0
EXTRACT: note_on channel=0 note=81 velocity=0 time=0.7114583333333333
EXTRACT: note_on channel=10 note=57 velocity=0 time=0
EXTRACT: note_on channel=10 note=60 velocity=0 time=0
EXTRACT: note_on channel=10 note=64 velocity=0 time=0
EXTRACT: note_on channel=1 note=69 velocity=0 time=0.0375
EXTRACT: note_on channel=2 note=69 velocity=0 time=0
EXTRACT: note_on channel=3 note=69 velocity=0 time=0
EXTRACT: note_on channel=4 note=48 velocity=0 time=0
EXTRACT: note_on channel=5 note=45 velocity=0 time=0
EXTRACT: note_on channel=6 note=33 velocity=0 time=0
EXTRACT: note_on channel=0 note=81 velocity=112 time=0.0010416666666666667
EXTRACT: note_on channel=1 note=69 velocity=112 time=0
EXTRACT: note_on channel=2 note=69 velocity=112 time=0
EXTRACT: note_on channel=3 note=69 velocity=112 time=0
EXTRACT: note_on channel=4 note=52 velocity=80 time=0
EXTRACT: note_on channel=5 note=45 velocity=96 time=0
EXTRACT: note_on channel=6 note=33 velocity=112 time=0
EXTRACT: note_on channel=10 note=57 velocity=112 time=0
EXTRACT: note_on channel=10 note=60 velocity=112 time=0
EXTRACT: note_on channel=10 note=64 velocity=112 time=0
EXTRACT: note_on channel=6 note=33 velocity=0 time=0.49895833333333334
EXTRACT: note_on channel=6 note=33 velocity=112 time=0.0010416666666666667
EXTRACT: note_on channel=0 note=81 velocity=0 time=0.21145833333333333
EXTRACT: note_on channel=10 note=57 velocity=0 time=0
EXTRACT: note_on channel=10 note=60 velocity=0 time=0
EXTRACT: note_on channel=10 note=64 velocity=0 time=0
EXTRACT: note_on channel=1 note=69 velocity=0 time=0.0375
EXTRACT: note_on channel=2 note=69 velocity=0 time=0
EXTRACT: note_on channel=3 note=69 velocity=0 time=0
EXTRACT: note_on channel=4 note=52 velocity=0 time=0
EXTRACT: note_on channel=5 note=45 velocity=0 time=0
EXTRACT: note_on channel=6 note=33 velocity=0 time=0
EXTRACT: note_on channel=4 note=60 velocity=80 time=0.0010416666666666667
EXTRACT: note_on channel=5 note=45 velocity=96 time=0
EXTRACT: note_on channel=6 note=33 velocity=112 time=0
EXTRACT: note_on channel=10 note=57 velocity=112 time=0
EXTRACT: note_on channel=10 note=60 velocity=112 time=0
EXTRACT: note_on channel=10 note=64 velocity=112 time=0
EXTRACT: note_on channel=0 note=81 velocity=112 time=0.25
EXTRACT: note_on channel=1 note=81 velocity=112 time=0
EXTRACT: note_on channel=2 note=81 velocity=112 time=0
EXTRACT: note_on channel=3 note=69 velocity=112 time=0
EXTRACT: note_on channel=0 note=81 velocity=0 time=0.23645833333333333
EXTRACT: note_on channel=1 note=81 velocity=0 time=0.0125
EXTRACT: note_on channel=2 note=81 velocity=0 time=0
EXTRACT: note_on channel=3 note=69 velocity=0 time=0
EXTRACT: note_on channel=0 note=81 velocity=112 time=0.0010416666666666667
EXTRACT: note_on channel=1 note=81 velocity=112 time=0
EXTRACT: note_on channel=2 note=81 velocity=112 time=0
EXTRACT: note_on channel=3 note=69 velocity=112 time=0
EXTRACT: note_on channel=10 note=57 velocity=0 time=0.21145833333333333
EXTRACT: note_on channel=10 note=60 velocity=0 time=0
EXTRACT: note_on channel=10 note=64 velocity=0 time=0
EXTRACT: note_on channel=0 note=81 velocity=0 time=0.025
EXTRACT: note_on channel=1 note=81 velocity=0 time=0.0125
EXTRACT: note_on channel=2 note=81 velocity=0 time=0
EXTRACT: note_on channel=3 note=69 velocity=0 time=0
EXTRACT: note_on channel=4 note=60 velocity=0 time=0
EXTRACT: note_on channel=5 note=45 velocity=0 time=0
EXTRACT: note_on channel=6 note=33 velocity=0 time=0
EXTRACT: note_on channel=0 note=81 velocity=112 time=0.0010416666666666667
EXTRACT: note_on channel=1 note=81 velocity=112 time=0
EXTRACT: note_on channel=2 note=81 velocity=112 time=0
EXTRACT: note_on channel=3 note=69 velocity=112 time=0
EXTRACT: note_on channel=4 note=69 velocity=80 time=0
EXTRACT: note_on channel=5 note=52 velocity=96 time=0
EXTRACT: note_on channel=6 note=33 velocity=112 time=0
EXTRACT: note_on channel=10 note=57 velocity=112 time=0
EXTRACT: note_on channel=10 note=60 velocity=112 time=0
EXTRACT: note_on channel=10 note=64 velocity=112 time=0
EXTRACT: note_on channel=0 note=81 velocity=0 time=0.23645833333333333
EXTRACT: note_on channel=1 note=81 velocity=0 time=0.0125
EXTRACT: note_on channel=2 note=81 velocity=0 time=0
EXTRACT: note_on channel=3 note=69 velocity=0 time=0
EXTRACT: note_on channel=0 note=79 velocity=112 time=0.0010416666666666667
EXTRACT: note_on channel=1 note=79 velocity=112 time=0
EXTRACT: note_on channel=2 note=79 velocity=112 time=0
EXTRACT: note_on channel=3 note=67 velocity=112 time=0
EXTRACT: note_on channel=0 note=79 velocity=0 time=0.23645833333333333
EXTRACT: note_on channel=1 note=79 velocity=0 time=0.0125
EXTRACT: note_on channel=2 note=79 velocity=0 time=0
EXTRACT: note_on channel=3 note=67 velocity=0 time=0
EXTRACT: note_on channel=0 note=76 velocity=112 time=0.0010416666666666667
EXTRACT: note_on channel=1 note=76 velocity=112 time=0
EXTRACT: note_on channel=2 note=76 velocity=112 time=0
EXTRACT: note_on channel=3 note=64 velocity=112 time=0
EXTRACT: note_on channel=10 note=57 velocity=0 time=0.21145833333333333
EXTRACT: note_on channel=10 note=60 velocity=0 time=0
EXTRACT: note_on channel=10 note=64 velocity=0 time=0
EXTRACT: note_on channel=0 note=76 velocity=0 time=0.025
EXTRACT: note_on channel=1 note=76 velocity=0 time=0.0125
EXTRACT: note_on channel=2 note=76 velocity=0 time=0
EXTRACT: note_on channel=3 note=64 velocity=0 time=0
EXTRACT: note_on channel=4 note=69 velocity=0 time=0
EXTRACT: note_on channel=5 note=52 velocity=0 time=0
EXTRACT: note_on channel=6 note=33 velocity=0 time=0
EXTRACT: note_on channel=0 note=77 velocity=96 time=0.0010416666666666667
EXTRACT: note_on channel=1 note=77 velocity=96 time=0
EXTRACT: note_on channel=2 note=77 velocity=96 time=0
EXTRACT: note_on channel=3 note=62 velocity=96 time=0
EXTRACT: note_on channel=4 note=50 velocity=96 time=0
EXTRACT: note_on channel=5 note=53 velocity=112 time=0
EXTRACT: note_on channel=6 note=29 velocity=112 time=0
EXTRACT: note_on channel=10 note=77 velocity=112 time=0
EXTRACT: note_on channel=10 note=53 velocity=112 time=0
EXTRACT: note_on channel=10 note=57 velocity=112 time=0
EXTRACT: note_on channel=10 note=60 velocity=112 time=0
EXTRACT: note_on channel=0 note=77 velocity=0 time=0.4739583333333333
EXTRACT: note_on channel=10 note=77 velocity=0 time=0
EXTRACT: note_on channel=1 note=77 velocity=0 time=0.025
EXTRACT: note_on channel=2 note=77 velocity=0 time=0
EXTRACT: note_on channel=3 note=62 velocity=0 time=0
EXTRACT: note_on channel=4 note=50 velocity=0 time=0
EXTRACT: note_on channel=5 note=53 velocity=0 time=0
EXTRACT: note_on channel=0 note=76 velocity=96 time=0.0010416666666666667
EXTRACT: note_on channel=1 note=76 velocity=96 time=0
EXTRACT: note_on channel=2 note=76 velocity=96 time=0
EXTRACT: note_on channel=3 note=60 velocity=96 time=0
EXTRACT: note_on channel=4 note=48 velocity=96 time=0
EXTRACT: note_on channel=5 note=52 velocity=112 time=0
EXTRACT: note_on channel=10 note=76 velocity=112 time=0
EXTRACT: note_on channel=10 note=53 velocity=0 time=0.21145833333333333
EXTRACT: note_on channel=10 note=57 velocity=0 time=0
EXTRACT: note_on channel=10 note=60 velocity=0 time=0
EXTRACT: note_on channel=0 note=76 velocity=0 time=0.025
EXTRACT: note_on channel=10 note=76 velocity=0 time=0
EXTRACT: note_on channel=1 note=76 velocity=0 time=0.0125
EXTRACT: note_on channel=2 note=76 velocity=0 time=0
EXTRACT: note_on channel=3 note=60 velocity=0 time=0
EXTRACT: note_on channel=4 note=48 velocity=0 time=0
EXTRACT: note_on channel=5 note=52 velocity=0 time=0
EXTRACT: note_on channel=6 note=29 velocity=0 time=0
EXTRACT: note_on channel=0 note=77 velocity=96 time=0.0010416666666666667
EXTRACT: note_on channel=1 note=77 velocity=96 time=0
EXTRACT: note_on channel=2 note=77 velocity=96 time=0
EXTRACT: note_on channel=3 note=62 velocity=96 time=0
EXTRACT: note_on channel=4 note=50 velocity=96 time=0
EXTRACT: note_on channel=5 note=53 velocity=112 time=0
EXTRACT: note_on channel=6 note=29 velocity=112 time=0
EXTRACT: note_on channel=10 note=77 velocity=112 time=0
EXTRACT: note_on channel=10 note=53 velocity=112 time=0
EXTRACT: note_on channel=10 note=57 velocity=112 time=0
EXTRACT: note_on channel=10 note=60 velocity=112 time=0
EXTRACT: note_on channel=0 note=77 velocity=0 time=0.4739583333333333
EXTRACT: note_on channel=10 note=77 velocity=0 time=0
EXTRACT: note_on channel=1 note=77 velocity=0 time=0.025
EXTRACT: note_on channel=2 note=77 velocity=0 time=0
EXTRACT: note_on channel=3 note=62 velocity=0 time=0
EXTRACT: note_on channel=4 note=50 velocity=0 time=0
EXTRACT: note_on channel=5 note=53 velocity=0 time=0
EXTRACT: note_on channel=6 note=29 velocity=0 time=0
EXTRACT: note_on channel=0 note=76 velocity=96 time=0.0010416666666666667
EXTRACT: note_on channel=1 note=76 velocity=96 time=0
EXTRACT: note_on channel=2 note=76 velocity=96 time=0
EXTRACT: note_on channel=3 note=60 velocity=96 time=0
EXTRACT: note_on channel=4 note=48 velocity=96 time=0
EXTRACT: note_on channel=5 note=52 velocity=112 time=0
EXTRACT: note_on channel=6 note=29 velocity=112 time=0
EXTRACT: note_on channel=10 note=76 velocity=112 time=0
EXTRACT: note_on channel=10 note=53 velocity=0 time=0.21145833333333333
EXTRACT: note_on channel=10 note=57 velocity=0 time=0
EXTRACT: note_on channel=10 note=60 velocity=0 time=0
EXTRACT: note_on channel=0 note=76 velocity=0 time=0.025
EXTRACT: note_on channel=10 note=76 velocity=0 time=0
EXTRACT: note_on channel=1 note=76 velocity=0 time=0.0125
EXTRACT: note_on channel=2 note=76 velocity=0 time=0
EXTRACT: note_on channel=3 note=60 velocity=0 time=0
EXTRACT: note_on channel=4 note=48 velocity=0 time=0
EXTRACT: note_on channel=5 note=52 velocity=0 time=0
EXTRACT: note_on channel=6 note=29 velocity=0 time=0
EXTRACT: note_on channel=0 note=79 velocity=96 time=0.0010416666666666667
EXTRACT: note_on channel=1 note=79 velocity=96 time=0
EXTRACT: note_on channel=2 note=79 velocity=96 time=0
EXTRACT: note_on channel=3 note=64 velocity=96 time=0
EXTRACT: note_on channel=4 note=55 velocity=96 time=0
EXTRACT: note_on channel=5 note=55 velocity=112 time=0
EXTRACT: note_on channel=6 note=29 velocity=112 time=0
EXTRACT: note_on channel=10 note=79 velocity=112 time=0
EXTRACT: note_on channel=10 note=53 velocity=112 time=0
EXTRACT: note_on channel=10 note=57 velocity=112 time=0
EXTRACT: note_on channel=10 note=60 velocity=112 time=0
EXTRACT: note_on channel=3 note=64 velocity=0 time=0.49895833333333334
EXTRACT: note_on channel=4 note=55 velocity=0 time=0
EXTRACT: note_on channel=3 note=67 velocity=96 time=0.0010416666666666667
EXTRACT: note_on channel=4 note=55 velocity=96 time=0
EXTRACT: note_on channel=10 note=53 velocity=0 time=0.21145833333333333
EXTRACT: note_on channel=10 note=57 velocity=0 time=0
EXTRACT: note_on channel=10 note=60 velocity=0 time=0
EXTRACT: note_on channel=1 note=79 velocity=0 time=0.0375
EXTRACT: note_on channel=3 note=67 velocity=0 time=0
EXTRACT: note_on channel=4 note=55 velocity=0 time=0
EXTRACT: note_on channel=6 note=29 velocity=0 time=0
EXTRACT: note_on channel=1 note=64 velocity=96 time=0.0010416666666666667
EXTRACT: note_on channel=3 note=64 velocity=100 time=0
EXTRACT: note_on channel=4 note=52 velocity=100 time=0
EXTRACT: note_on channel=6 note=29 velocity=112 time=0
EXTRACT: note_on channel=10 note=53 velocity=96 time=0
EXTRACT: note_on channel=10 note=57 velocity=96 time=0
EXTRACT: note_on channel=10 note=60 velocity=96 time=0
EXTRACT: note_on channel=1 note=64 velocity=0 time=0.24895833333333334
EXTRACT: note_on channel=3 note=64 velocity=0 time=0
EXTRACT: note_on channel=4 note=52 velocity=0 time=0
EXTRACT: note_on channel=1 note=62 velocity=96 time=0.0010416666666666667
EXTRACT: note_on channel=3 note=62 velocity=104 time=0
EXTRACT: note_on channel=4 note=50 velocity=104 time=0
EXTRACT: note_on channel=1 note=62 velocity=0 time=0.24895833333333334
EXTRACT: note_on channel=3 note=62 velocity=0 time=0
EXTRACT: note_on channel=4 note=50 velocity=0 time=0
EXTRACT: note_on channel=1 note=60 velocity=96 time=0.0010416666666666667
EXTRACT: note_on channel=3 note=60 velocity=108 time=0
EXTRACT: note_on channel=4 note=48 velocity=108 time=0
EXTRACT: note_on channel=0 note=79 velocity=0 time=0.17395833333333333
EXTRACT: note_on channel=10 note=79 velocity=0 time=0
EXTRACT: note_on channel=10 note=53 velocity=0 time=0.0375
EXTRACT: note_on channel=10 note=57 velocity=0 time=0
EXTRACT: note_on channel=10 note=60 velocity=0 time=0
EXTRACT: note_on channel=1 note=60 velocity=0 time=0.0375
EXTRACT: note_on channel=2 note=79 velocity=0 time=0
EXTRACT: note_on channel=3 note=60 velocity=0 time=0
EXTRACT: note_on channel=4 note=48 velocity=0 time=0
EXTRACT: note_on channel=5 note=55 velocity=0 time=0
EXTRACT: note_on channel=6 note=29 velocity=0 time=0
EXTRACT: note_on channel=1 note=62 velocity=112 time=0.0010416666666666667
EXTRACT: note_on channel=2 note=67 velocity=96 time=0
EXTRACT: note_on channel=3 note=62 velocity=112 time=0
EXTRACT: note_on channel=4 note=50 velocity=112 time=0
EXTRACT: note_on channel=5 note=55 velocity=96 time=0
EXTRACT: note_on channel=6 note=36 velocity=112 time=0
EXTRACT: note_on channel=10 note=48 velocity=80 time=0
EXTRACT: note_on channel=10 note=52 velocity=80 time=0
EXTRACT: note_on channel=10 note=55 velocity=80 time=0
EXTRACT: note_on channel=1 note=62 velocity=0 time=0.24895833333333334
EXTRACT: note_on channel=3 note=62 velocity=0 time=0
EXTRACT: note_on channel=4 note=50 velocity=0 time=0
EXTRACT: note_on channel=1 note=64 velocity=112 time=0.0010416666666666667
EXTRACT: note_on channel=3 note=64 velocity=112 time=0
EXTRACT: note_on channel=4 note=52 velocity=112 time=0
EXTRACT: note_on channel=1 note=64 velocity=0 time=0.49895833333333334
EXTRACT: note_on channel=2 note=67 velocity=0 time=0
EXTRACT: note_on channel=3 note=64 velocity=0 time=0
EXTRACT: note_on channel=4 note=52 velocity=0 time=0
EXTRACT: note_on channel=5 note=55 velocity=0 time=0
EXTRACT: note_on channel=6 note=36 velocity=0 time=0
EXTRACT: note_on channel=1 note=64 velocity=112 time=0.0010416666666666667
EXTRACT: note_on channel=2 note=67 velocity=96 time=0
EXTRACT: note_on channel=3 note=64 velocity=112 time=0
EXTRACT: note_on channel=4 note=52 velocity=112 time=0
EXTRACT: note_on channel=5 note=55 velocity=96 time=0
EXTRACT: note_on channel=6 note=36 velocity=112 time=0
EXTRACT: note_on channel=6 note=36 velocity=0 time=0.49895833333333334
EXTRACT: note_on channel=6 note=36 velocity=112 time=0.0010416666666666667
EXTRACT: note_on channel=10 note=48 velocity=0 time=0.17395833333333333
EXTRACT: note_on channel=10 note=52 velocity=0 time=0
EXTRACT: note_on channel=10 note=55 velocity=0 time=0
EXTRACT: note_on channel=1 note=64 velocity=0 time=0.075
EXTRACT: note_on channel=2 note=67 velocity=0 time=0
EXTRACT: note_on channel=3 note=64 velocity=0 time=0
EXTRACT: note_on channel=4 note=52 velocity=0 time=0
EXTRACT: note_on channel=5 note=55 velocity=0 time=0
EXTRACT: note_on channel=6 note=36 velocity=0 time=0
EXTRACT: note_on channel=2 note=67 velocity=96 time=0.0010416666666666667
EXTRACT: note_on channel=5 note=55 velocity=96 time=0
EXTRACT: note_on channel=6 note=36 velocity=112 time=0
EXTRACT: note_on channel=10 note=48 velocity=80 time=0
EXTRACT: note_on channel=10 note=52 velocity=80 time=0
EXTRACT: note_on channel=10 note=55 velocity=80 time=0
EXTRACT: note_on channel=1 note=57 velocity=112 time=0.5
EXTRACT: note_on channel=3 note=57 velocity=112 time=0
EXTRACT: note_on channel=4 note=45 velocity=112 time=0
EXTRACT: note_on channel=10 note=48 velocity=0 time=0.21145833333333333
EXTRACT: note_on channel=10 note=52 velocity=0 time=0
EXTRACT: note_on channel=10 note=55 velocity=0 time=0
EXTRACT: note_on channel=1 note=57 velocity=0 time=0.0375
EXTRACT: note_on channel=2 note=67 velocity=0 time=0
EXTRACT: note_on channel=3 note=57 velocity=0 time=0
EXTRACT: note_on channel=4 note=45 velocity=0 time=0
EXTRACT: note_on channel=5 note=55 velocity=0 time=0
EXTRACT: note_on channel=6 note=36 velocity=0 time=0
EXTRACT: note_on channel=1 note=60 velocity=112 time=0.0010416666666666667
EXTRACT: note_on channel=2 note=72 velocity=96 time=0
EXTRACT: note_on channel=3 note=60 velocity=112 time=0
EXTRACT: note_on channel=4 note=48 velocity=112 time=0
EXTRACT: note_on channel=5 note=60 velocity=96 time=0
EXTRACT: note_on channel=6 note=36 velocity=112 time=0
EXTRACT: note_on channel=10 note=48 velocity=80 time=0
EXTRACT: note_on channel=10 note=52 velocity=80 time=0
EXTRACT: note_on channel=10 note=55 velocity=80 time=0
EXTRACT: note_on channel=1 note=60 velocity=0 time=0.24895833333333334
EXTRACT: note_on channel=3 note=60 velocity=0 time=0
EXTRACT: note_on channel=4 note=48 velocity=0 time=0
EXTRACT: note_on channel=1 note=62 velocity=112 time=0.0010416666666666667
EXTRACT: note_on channel=3 note=62 velocity=112 time=0
EXTRACT: note_on channel=4 note=50 velocity=112 time=0
EXTRACT: note_on channel=1 note=62 velocity=0 time=0.24895833333333334
EXTRACT: note_on channel=3 note=62 velocity=0 time=0
EXTRACT: note_on channel=4 note=50 velocity=0 time=0
EXTRACT: note_on channel=1 note=64 velocity=112 time=0.0010416666666666667
EXTRACT: note_on channel=3 note=64 velocity=112 time=0
EXTRACT: note_on channel=4 note=52 velocity=112 time=0
EXTRACT: note_on channel=10 note=48 velocity=0 time=0.21145833333333333
EXTRACT: note_on channel=10 note=52 velocity=0 time=0
EXTRACT: note_on channel=10 note=55 velocity=0 time=0
EXTRACT: note_on channel=1 note=64 velocity=0 time=0.0375
EXTRACT: note_on channel=2 note=72 velocity=0 time=0
EXTRACT: note_on channel=3 note=64 velocity=0 time=0
EXTRACT: note_on channel=4 note=52 velocity=0 time=0
EXTRACT: note_on channel=5 note=60 velocity=0 time=0
EXTRACT: note_on channel=6 note=36 velocity=0 time=0
EXTRACT: note_on channel=1 note=62 velocity=112 time=0.0010416666666666667
EXTRACT: note_on channel=2 note=71 velocity=96 time=0
EXTRACT: note_on channel=3 note=62 velocity=112 time=0
EXTRACT: note_on channel=4 note=50 velocity=112 time=0
EXTRACT: note_on channel=5 note=59 velocity=96 time=0
EXTRACT: note_on channel=6 note=40 velocity=112 time=0
EXTRACT: note_on channel=10 note=52 velocity=80 time=0
EXTRACT: note_on channel=10 note=55 velocity=80 time=0
EXTRACT: note_on channel=10 note=59 velocity=80 time=0
EXTRACT: note_on channel=10 note=52 velocity=0 time=0.7114583333333333
EXTRACT: note_on channel=10 note=55 velocity=0 time=0
EXTRACT: note_on channel=10 note=59 velocity=0 time=0
EXTRACT: note_on channel=1 note=62 velocity=0 time=0.0375
EXTRACT: note_on channel=2 note=71 velocity=0 time=0
EXTRACT: note_on channel=3 note=62 velocity=0 time=0
EXTRACT: note_on channel=4 note=50 velocity=0 time=0
EXTRACT: note_on channel=5 note=59 velocity=0 time=0
EXTRACT: note_on channel=6 note=40 velocity=0 time=0
EXTRACT: note_on channel=1 note=62 velocity=112 time=0.0010416666666666667
EXTRACT: note_on channel=3 note=62 velocity=112 time=0
EXTRACT: note_on channel=4 note=50 velocity=112 time=0
EXTRACT: note_on channel=6 note=40 velocity=112 time=0
EXTRACT: note_on channel=10 note=52 velocity=80 time=0
EXTRACT: note_on channel=10 note=55 velocity=80 time=0
EXTRACT: note_on channel=10 note=59 velocity=80 time=0
EXTRACT: note_on channel=2 note=71 velocity=96 time=0.25
EXTRACT: note_on channel=5 note=59 velocity=96 time=0
EXTRACT: note_on channel=10 note=52 velocity=0 time=0.22395833333333334
EXTRACT: note_on channel=10 note=55 velocity=0 time=0
EXTRACT: note_on channel=10 note=59 velocity=0 time=0
EXTRACT: note_on channel=2 note=71 velocity=0 time=0.025
EXTRACT: note_on channel=5 note=59 velocity=0 time=0
EXTRACT: note_on channel=6 note=40 velocity=0 time=0
EXTRACT: note_on channel=2 note=69 velocity=96 time=0.0010416666666666667
EXTRACT: note_on channel=5 note=57 velocity=96 time=0
EXTRACT: note_on channel=6 note=40 velocity=112 time=0
EXTRACT: note_on channel=10 note=52 velocity=80 time=0
EXTRACT: note_on channel=10 note=55 velocity=80 time=0
EXTRACT: note_on channel=10 note=59 velocity=80 time=0
EXTRACT: note_on channel=10 note=52 velocity=0 time=0.23645833333333333
EXTRACT: note_on channel=10 note=55 velocity=0 time=0
EXTRACT: note_on channel=10 note=59 velocity=0 time=0
EXTRACT: note_on channel=1 note=62 velocity=0 time=0.0125
EXTRACT: note_on channel=2 note=69 velocity=0 time=0
EXTRACT: note_on channel=3 note=62 velocity=0 time=0
EXTRACT: note_on channel=4 note=50 velocity=0 time=0
EXTRACT: note_on channel=5 note=57 velocity=0 time=0
EXTRACT: note_on channel=6 note=40 velocity=0 time=0
EXTRACT: note_on channel=2 note=67 velocity=96 time=0.0010416666666666667
EXTRACT: note_on channel=5 note=55 velocity=96 time=0
EXTRACT: note_on channel=6 note=40 velocity=112 time=0
EXTRACT: note_on channel=10 note=52 velocity=80 time=0
EXTRACT: note_on channel=10 note=55 velocity=80 time=0
EXTRACT: note_on channel=10 note=59 velocity=80 time=0
EXTRACT: note_on channel=10 note=52 velocity=0 time=0.7114583333333333
EXTRACT: note_on channel=10 note=55 velocity=0 time=0
EXTRACT: note_on channel=10 note=59 velocity=0 time=0
EXTRACT: note_on channel=2 note=67 velocity=0 time=0.0375
EXTRACT: note_on channel=5 note=55 velocity=0 time=0
EXTRACT: note_on channel=6 note=40 velocity=0 time=0
EXTRACT: note_on channel=1 note=64 velocity=112 time=0.0010416666666666667
EXTRACT: note_on channel=2 note=67 velocity=96 time=0
EXTRACT: note_on channel=3 note=64 velocity=112 time=0
EXTRACT: note_on channel=4 note=52 velocity=112 time=0
EXTRACT: note_on channel=5 note=55 velocity=96 time=0
EXTRACT: note_on channel=6 note=40 velocity=112 time=0
EXTRACT: note_on channel=10 note=52 velocity=80 time=0
EXTRACT: note_on channel=10 note=55 velocity=80 time=0
EXTRACT: note_on channel=10 note=59 velocity=80 time=0
EXTRACT: note_on channel=1 note=64 velocity=0 time=0.24895833333333334
EXTRACT: note_on channel=3 note=64 velocity=0 time=0
EXTRACT: note_on channel=4 note=52 velocity=0 time=0
EXTRACT: note_on channel=1 note=62 velocity=112 time=0.0010416666666666667
EXTRACT: note_on channel=3 note=62 velocity=112 time=0
EXTRACT: note_on channel=4 note=50 velocity=112 time=0
EXTRACT: note_on channel=1 note=62 velocity=0 time=0.24895833333333334
EXTRACT: note_on channel=3 note=62 velocity=0 time=0
EXTRACT: note_on channel=4 note=50 velocity=0 time=0
EXTRACT: note_on channel=1 note=60 velocity=112 time=0.0010416666666666667
EXTRACT: note_on channel=3 note=60 velocity=112 time=0
EXTRACT: note_on channel=4 note=48 velocity=112 time=0
EXTRACT: note_on channel=10 note=52 velocity=0 time=0.21145833333333333
EXTRACT: note_on channel=10 note=55 velocity=0 time=0
EXTRACT: note_on channel=10 note=59 velocity=0 time=0
EXTRACT: note_on channel=1 note=60 velocity=0 time=0.0375
EXTRACT: note_on channel=2 note=67 velocity=0 time=0
EXTRACT: note_on channel=3 note=60 velocity=0 time=0
EXTRACT: note_on channel=4 note=48 velocity=0 time=0
EXTRACT: note_on channel=5 note=55 velocity=0 time=0
EXTRACT: note_on channel=6 note=40 velocity=0 time=0
EXTRACT: note_on channel=1 note=62 velocity=112 time=0.0010416666666666667
EXTRACT: note_on channel=2 note=69 velocity=96 time=0
EXTRACT: note_on channel=3 note=62 velocity=112 time=0
EXTRACT: note_on channel=4 note=50 velocity=112 time=0
EXTRACT: note_on channel=5 note=57 velocity=96 time=0
EXTRACT: note_on channel=6 note=33 velocity=112 time=0
EXTRACT: note_on channel=10 note=57 velocity=80 time=0
EXTRACT: note_on channel=10 note=60 velocity=80 time=0
EXTRACT: note_on channel=10 note=64 velocity=80 time=0
EXTRACT: note_on channel=1 note=62 velocity=0 time=0.24895833333333334
EXTRACT: note_on channel=3 note=62 velocity=0 time=0
EXTRACT: note_on channel=4 note=50 velocity=0 time=0
EXTRACT: note_on channel=1 note=64 velocity=112 time=0.0010416666666666667
EXTRACT: note_on channel=3 note=64 velocity=112 time=0
EXTRACT: note_on channel=4 note=52 velocity=112 time=0
EXTRACT: note_on channel=1 note=64 velocity=0 time=0.49895833333333334
EXTRACT: note_on channel=2 note=69 velocity=0 time=0
EXTRACT: note_on channel=3 note=64 velocity=0 time=0
EXTRACT: note_on channel=4 note=52 velocity=0 time=0
EXTRACT: note_on channel=5 note=57 velocity=0 time=0
EXTRACT: note_on channel=6 note=33 velocity=0 time=0
EXTRACT: note_on channel=1 note=64 velocity=112 time=0.0010416666666666667
EXTRACT: note_on channel=2 note=69 velocity=96 time=0
EXTRACT: note_on channel=3 note=64 velocity=112 time=0
EXTRACT: note_on channel=4 note=52 velocity=112 time=0
EXTRACT: note_on channel=5 note=57 velocity=96 time=0
EXTRACT: note_on channel=6 note=33 velocity=112 time=0
EXTRACT: note_on channel=6 note=33 velocity=0 time=0.49895833333333334
EXTRACT: note_on channel=6 note=33 velocity=112 time=0.0010416666666666667
EXTRACT: note_on channel=10 note=57 velocity=0 time=0.17395833333333333
EXTRACT: note_on channel=10 note=60 velocity=0 time=0
EXTRACT: note_on channel=10 note=64 velocity=0 time=0
EXTRACT: note_on channel=1 note=64 velocity=0 time=0.075
EXTRACT: note_on channel=2 note=69 velocity=0 time=0
EXTRACT: note_on channel=3 note=64 velocity=0 time=0
EXTRACT: note_on channel=4 note=52 velocity=0 time=0
EXTRACT: note_on channel=5 note=57 velocity=0 time=0
EXTRACT: note_on channel=6 note=33 velocity=0 time=0
EXTRACT: note_on channel=2 note=69 velocity=96 time=0.0010416666666666667
EXTRACT: note_on channel=5 note=57 velocity=96 time=0
EXTRACT: note_on channel=6 note=33 velocity=112 time=0
EXTRACT: note_on channel=10 note=57 velocity=80 time=0
EXTRACT: note_on channel=10 note=60 velocity=80 time=0
EXTRACT: note_on channel=10 note=64 velocity=80 time=0
EXTRACT: note_on channel=1 note=60 velocity=112 time=0.5
EXTRACT: note_on channel=3 note=60 velocity=112 time=0
EXTRACT: note_on channel=4 note=48 velocity=112 time=0
EXTRACT: note_on channel=10 note=57 velocity=0 time=0.21145833333333333
EXTRACT: note_on channel=10 note=60 velocity=0 time=0
EXTRACT: note_on channel=10 note=64 velocity=0 time=0
EXTRACT: note_on channel=1 note=60 velocity=0 time=0.0375
EXTRACT: note_on channel=2 note=69 velocity=0 time=0
EXTRACT: note_on channel=3 note=60 velocity=0 time=0
EXTRACT: note_on channel=4 note=48 velocity=0 time=0
EXTRACT: note_on channel=5 note=57 velocity=0 time=0
EXTRACT: note_on channel=6 note=33 velocity=0 time=0
EXTRACT: note_on channel=1 note=60 velocity=112 time=0.0010416666666666667
EXTRACT: note_on channel=2 note=67 velocity=96 time=0
EXTRACT: note_on channel=3 note=60 velocity=112 time=0
EXTRACT: note_on channel=4 note=48 velocity=112 time=0
EXTRACT: note_on channel=5 note=55 velocity=96 time=0
EXTRACT: note_on channel=6 note=33 velocity=112 time=0
EXTRACT: note_on channel=10 note=57 velocity=80 time=0
EXTRACT: note_on channel=10 note=60 velocity=80 time=0
EXTRACT: note_on channel=10 note=64 velocity=80 time=0
EXTRACT: note_on channel=1 note=60 velocity=0 time=0.24895833333333334
EXTRACT: note_on channel=3 note=60 velocity=0 time=0
EXTRACT: note_on channel=4 note=48 velocity=0 time=0
EXTRACT: note_on channel=1 note=62 velocity=112 time=0.0010416666666666667
EXTRACT: note_on channel=3 note=62 velocity=112 time=0
EXTRACT: note_on channel=4 note=50 velocity=112 time=0
EXTRACT: note_on channel=1 note=62 velocity=0 time=0.24895833333333334
EXTRACT: note_on channel=3 note=62 velocity=0 time=0
EXTRACT: note_on channel=4 note=50 velocity=0 time=0
EXTRACT: note_on channel=1 note=62 velocity=112 time=0.0010416666666666667
EXTRACT: note_on channel=3 note=62 velocity=112 time=0
EXTRACT: note_on channel=4 note=50 velocity=112 time=0
EXTRACT: note_on channel=10 note=57 velocity=0 time=0.21145833333333333
EXTRACT: note_on channel=10 note=60 velocity=0 time=0
EXTRACT: note_on channel=10 note=64 velocity=0 time=0
EXTRACT: note_on channel=1 note=62 velocity=0 time=0.0375
EXTRACT: note_on channel=2 note=67 velocity=0 time=0
EXTRACT: note_on channel=3 note=62 velocity=0 time=0
EXTRACT: note_on channel=4 note=50 velocity=0 time=0
EXTRACT: note_on channel=5 note=55 velocity=0 time=0
EXTRACT: note_on channel=6 note=33 velocity=0 time=0
EXTRACT: note_on channel=1 note=65 velocity=112 time=0.0010416666666666667
EXTRACT: note_on channel=2 note=72 velocity=96 time=0
EXTRACT: note_on channel=3 note=65 velocity=112 time=0
EXTRACT: note_on channel=4 note=53 velocity=112 time=0
EXTRACT: note_on channel=5 note=60 velocity=96 time=0
EXTRACT: note_on channel=6 note=29 velocity=112 time=0
EXTRACT: note_on channel=10 note=77 velocity=80 time=0
EXTRACT: note_on channel=10 note=53 velocity=80 time=0
EXTRACT: note_on channel=10 note=57 velocity=80 time=0
EXTRACT: note_on channel=10 note=60 velocity=80 time=0
EXTRACT: note_on channel=10 note=77 velocity=0 time=0.7114583333333333
EXTRACT: note_on channel=10 note=53 velocity=0 time=0
EXTRACT: note_on channel=10 note=57 velocity=0 time=0
EXTRACT: note_on channel=10 note=60 velocity=0 time=0
EXTRACT: note_on channel=1 note=65 velocity=0 time=0.0375
EXTRACT: note_on channel=2 note=72 velocity=0 time=0
EXTRACT: note_on channel=3 note=65 velocity=0 time=0
EXTRACT: note_on channel=4 note=53 velocity=0 time=0
EXTRACT: note_on channel=5 note=60 velocity=0 time=0
EXTRACT: note_on channel=6 note=29 velocity=0 time=0
EXTRACT: note_on channel=1 note=64 velocity=112 time=0.0010416666666666667
EXTRACT: note_on channel=2 note=69 velocity=96 time=0
EXTRACT: note_on channel=3 note=64 velocity=112 time=0
EXTRACT: note_on channel=4 note=52 velocity=112 time=0
EXTRACT: note_on channel=5 note=57 velocity=96 time=0
EXTRACT: note_on channel=6 note=29 velocity=112 time=0
EXTRACT: note_on channel=10 note=76 velocity=80 time=0
EXTRACT: note_on channel=10 note=53 velocity=80 time=0
EXTRACT: note_on channel=10 note=57 velocity=80 time=0
EXTRACT: note_on channel=10 note=60 velocity=80 time=0
EXTRACT: note_on channel=10 note=76 velocity=0 time=0.23645833333333333
EXTRACT: note_on channel=1 note=64 velocity=0 time=0.0125
EXTRACT: note_on channel=3 note=64 velocity=0 time=0
EXTRACT: note_on channel=4 note=52 velocity=0 time=0
EXTRACT: note_on channel=1 note=62 velocity=112 time=0.0010416666666666667
EXTRACT: note_on channel=3 note=62 velocity=112 time=0
EXTRACT: note_on channel=4 note=50 velocity=112 time=0
EXTRACT: note_on channel=10 note=74 velocity=80 time=0
EXTRACT: note_on channel=6 note=29 velocity=0 time=0.24895833333333334
EXTRACT: note_on channel=6 note=29 velocity=112 time=0.0010416666666666667
EXTRACT: note_on channel=10 note=53 velocity=0 time=0.21145833333333333
EXTRACT: note_on channel=10 note=57 velocity=0 time=0
EXTRACT: note_on channel=10 note=60 velocity=0 time=0
EXTRACT: note_on channel=10 note=74 velocity=0 time=0.0125
EXTRACT: note_on channel=1 note=62 velocity=0 time=0.025
EXTRACT: note_on channel=2 note=69 velocity=0 time=0
EXTRACT: note_on channel=3 note=62 velocity=0 time=0
EXTRACT: note_on channel=4 note=50 velocity=0 time=0
EXTRACT: note_on channel=5 note=57 velocity=0 time=0
EXTRACT: note_on channel=6 note=29 velocity=0 time=0
EXTRACT: note_on channel=1 note=62 velocity=112 time=0.0010416666666666667
EXTRACT: note_on channel=2 note=69 velocity=96 time=0
EXTRACT: note_on channel=3 note=62 velocity=112 time=0
EXTRACT: note_on channel=4 note=50 velocity=112 time=0
EXTRACT: note_on channel=5 note=57 velocity=96 time=0
EXTRACT: note_on channel=6 note=29 velocity=112 time=0
EXTRACT: note_on channel=10 note=74 velocity=80 time=0
EXTRACT: note_on channel=10 note=53 velocity=80 time=0
EXTRACT: note_on channel=10 note=57 velocity=80 time=0
EXTRACT: note_on channel=10 note=60 velocity=80 time=0
EXTRACT: note_on channel=10 note=74 velocity=0 time=0.11770833333333333
EXTRACT: note_on channel=10 note=76 velocity=80 time=0.007291666666666667
EXTRACT: note_on channel=10 note=76 velocity=0 time=0.11770833333333333
EXTRACT: note_on channel=10 note=77 velocity=80 time=0.007291666666666667
EXTRACT: note_on channel=10 note=77 velocity=0 time=0.11770833333333333
EXTRACT: note_on channel=1 note=62 velocity=0 time=0.00625
EXTRACT: note_on channel=2 note=69 velocity=0 time=0
EXTRACT: note_on channel=3 note=62 velocity=0 time=0
EXTRACT: note_on channel=4 note=50 velocity=0 time=0
EXTRACT: note_on channel=5 note=57 velocity=0 time=0
EXTRACT: note_on channel=1 note=64 velocity=112 time=0.0010416666666666667
EXTRACT: note_on channel=2 note=71 velocity=96 time=0
EXTRACT: note_on channel=3 note=64 velocity=112 time=0
EXTRACT: note_on channel=4 note=52 velocity=112 time=0
EXTRACT: note_on channel=5 note=59 velocity=96 time=0
EXTRACT: note_on channel=10 note=76 velocity=80 time=0
EXTRACT: note_on channel=10 note=76 velocity=0 time=0.11770833333333333
EXTRACT: note_on channel=1 note=64 velocity=0 time=0.00625
EXTRACT: note_on channel=2 note=71 velocity=0 time=0
EXTRACT: note_on channel=3 note=64 velocity=0 time=0
EXTRACT: note_on channel=4 note=52 velocity=0 time=0
EXTRACT: note_on channel=5 note=59 velocity=0 time=0
EXTRACT: note_on channel=1 note=62 velocity=112 time=0.0010416666666666667
EXTRACT: note_on channel=2 note=69 velocity=96 time=0
EXTRACT: note_on channel=3 note=62 velocity=112 time=0
EXTRACT: note_on channel=4 note=50 velocity=112 time=0
EXTRACT: note_on channel=5 note=57 velocity=96 time=0
EXTRACT: note_on channel=10 note=74 velocity=80 time=0
EXTRACT: note_on channel=10 note=53 velocity=0 time=0.21145833333333333
EXTRACT: note_on channel=10 note=57 velocity=0 time=0
EXTRACT: note_on channel=10 note=60 velocity=0 time=0
EXTRACT: note_on channel=10 note=74 velocity=0 time=0.025
EXTRACT: note_on channel=1 note=62 velocity=0 time=0.0125
EXTRACT: note_on channel=2 note=69 velocity=0 time=0
EXTRACT: note_on channel=3 note=62 velocity=0 time=0
EXTRACT: note_on channel=4 note=50 velocity=0 time=0
EXTRACT: note_on channel=5 note=57 velocity=0 time=0
EXTRACT: note_on channel=6 note=29 velocity=0 time=0
EXTRACT: note_on channel=1 note=60 velocity=112 time=0.0010416666666666667
EXTRACT: note_on channel=2 note=67 velocity=96 time=0
EXTRACT: note_on channel=3 note=60 velocity=112 time=0
EXTRACT: note_on channel=4 note=48 velocity=112 time=0
EXTRACT: note_on channel=5 note=55 velocity=96 time=0
EXTRACT: note_on channel=6 note=29 velocity=112 time=0
EXTRACT: note_on channel=10 note=72 velocity=80 time=0
EXTRACT: note_on channel=10 note=53 velocity=80 time=0
EXTRACT: note_on channel=10 note=57 velocity=80 time=0
EXTRACT: note_on channel=10 note=60 velocity=80 time=0
EXTRACT: note_on channel=10 note=72 velocity=0 time=0.7114583333333333
EXTRACT: note_on channel=10 note=53 velocity=0 time=0
EXTRACT: note_on channel=10 note=57 velocity=0 time=0
EXTRACT: note_on channel=10 note=60 velocity=0 time=0
EXTRACT: note_on channel=1 note=60 velocity=0 time=0.0375
EXTRACT: note_on channel=2 note=67 velocity=0 time=0
EXTRACT: note_on channel=3 note=60 velocity=0 time=0
EXTRACT: note_on channel=4 note=48 velocity=0 time=0
EXTRACT: note_on channel=5 note=55 velocity=0 time=0
EXTRACT: note_on channel=6 note=29 velocity=0 time=0
EXTRACT: note_on channel=6 note=36 velocity=96 time=0.0010416666666666667
EXTRACT: note_on channel=10 note=60 velocity=80 time=0
EXTRACT: note_on channel=10 note=64 velocity=80 time=0
EXTRACT: note_on channel=10 note=67 velocity=80 time=0
EXTRACT: note_on channel=10 note=48 velocity=80 time=0
EXTRACT: note_on channel=5 note=43 velocity=96 time=0.5
EXTRACT: note_on channel=5 note=43 velocity=0 time=0.12395833333333334
EXTRACT: note_on channel=5 note=43 velocity=96 time=0.0010416666666666667
EXTRACT: note_on channel=10 note=60 velocity=0 time=0.08645833333333333
EXTRACT: note_on channel=10 note=64 velocity=0 time=0
EXTRACT: note_on channel=10 note=67 velocity=0 time=0
EXTRACT: note_on channel=10 note=48 velocity=0 time=0
EXTRACT: note_on channel=5 note=43 velocity=0 time=0.0375
EXTRACT: note_on channel=6 note=36 velocity=0 time=0
EXTRACT: note_on channel=5 note=43 velocity=96 time=0.0010416666666666667
EXTRACT: note_on channel=6 note=36 velocity=96 time=0
EXTRACT: note_on channel=10 note=48 velocity=80 time=0
EXTRACT: note_on channel=5 note=43 velocity=0 time=0.24895833333333334
EXTRACT: note_on channel=5 note=45 velocity=96 time=0.0010416666666666667
EXTRACT: note_on channel=5 note=45 velocity=0 time=0.24895833333333334
EXTRACT: note_on channel=6 note=36 velocity=0 time=0
EXTRACT: note_on channel=5 note=48 velocity=96 time=0.0010416666666666667
EXTRACT: note_on channel=6 note=36 velocity=96 time=0
EXTRACT: note_on channel=10 note=60 velocity=80 time=0
EXTRACT: note_on channel=10 note=64 velocity=80 time=0
EXTRACT: note_on channel=10 note=67 velocity=80 time=0
EXTRACT: note_on channel=10 note=48 velocity=0 time=0.21145833333333333
EXTRACT: note_on channel=10 note=60 velocity=0 time=0.025
EXTRACT: note_on channel=10 note=64 velocity=0 time=0
EXTRACT: note_on channel=10 note=67 velocity=0 time=0
EXTRACT: note_on channel=5 note=48 velocity=0 time=0.0125
EXTRACT: note_on channel=6 note=36 velocity=0 time=0
EXTRACT: note_on channel=5 note=48 velocity=96 time=0.0010416666666666667
EXTRACT: note_on channel=6 note=36 velocity=96 time=0
EXTRACT: note_on channel=10 note=60 velocity=80 time=0
EXTRACT: note_on channel=10 note=64 velocity=80 time=0
EXTRACT: note_on channel=10 note=67 velocity=80 time=0
EXTRACT: note_on channel=10 note=48 velocity=80 time=0
EXTRACT: note_on channel=10 note=48 velocity=0 time=0.23645833333333333
EXTRACT: note_on channel=10 note=48 velocity=80 time=0.013541666666666667
EXTRACT: note_on channel=10 note=48 velocity=0 time=0.4739583333333333
EXTRACT: note_on channel=6 note=36 velocity=0 time=0.025
EXTRACT: note_on channel=0 note=69 velocity=80 time=0.0010416666666666667
EXTRACT: note_on channel=6 note=36 velocity=96 time=0
EXTRACT: note_on channel=10 note=48 velocity=80 time=0
EXTRACT: note_on channel=10 note=60 velocity=0 time=0.19895833333333332
EXTRACT: note_on channel=10 note=64 velocity=0 time=0
EXTRACT: note_on channel=10 note=67 velocity=0 time=0
EXTRACT: note_on channel=0 note=69 velocity=0 time=0.0375
EXTRACT: note_on channel=0 note=72 velocity=80 time=0.013541666666666667
EXTRACT: note_on channel=10 note=60 velocity=80 time=0
EXTRACT: note_on channel=10 note=64 velocity=80 time=0
EXTRACT: note_on channel=10 note=67 velocity=80 time=0
EXTRACT: note_on channel=0 note=72 velocity=0 time=0.11770833333333333
EXTRACT: note_on channel=0 note=74 velocity=80 time=0.007291666666666667
EXTRACT: note_on channel=10 note=60 velocity=0 time=0.11145833333333333
EXTRACT: note_on channel=10 note=64 velocity=0 time=0
EXTRACT: note_on channel=10 note=67 velocity=0 time=0
EXTRACT: note_on channel=0 note=74 velocity=0 time=0.00625
EXTRACT: note_on channel=0 note=79 velocity=80 time=0.007291666666666667
EXTRACT: note_on channel=10 note=59 velocity=80 time=0
EXTRACT: note_on channel=10 note=64 velocity=80 time=0
EXTRACT: note_on channel=10 note=67 velocity=80 time=0
EXTRACT: note_on channel=10 note=48 velocity=0 time=0.21145833333333333
EXTRACT: note_on channel=10 note=59 velocity=0 time=0.025
EXTRACT: note_on channel=10 note=64 velocity=0 time=0
EXTRACT: note_on channel=10 note=67 velocity=0 time=0
EXTRACT: note_on channel=5 note=48 velocity=0 time=0.0125
EXTRACT: note_on channel=6 note=36 velocity=0 time=0
EXTRACT: note_on channel=6 note=40 velocity=96 time=0.0010416666666666667
EXTRACT: note_on channel=10 note=64 velocity=80 time=0
EXTRACT: note_on channel=10 note=67 velocity=80 time=0
EXTRACT: note_on channel=10 note=71 velocity=80 time=0
EXTRACT: note_on channel=10 note=40 velocity=80 time=0
EXTRACT: note_on channel=5 note=43 velocity=96 time=0.5
EXTRACT: note_on channel=0 note=79 velocity=0 time=0.19895833333333332
EXTRACT: note_on channel=10 note=64 velocity=0 time=0.0125
EXTRACT: note_on channel=10 note=67 velocity=0 time=0
EXTRACT: note_on channel=10 note=71 velocity=0 time=0
EXTRACT: note_on channel=10 note=40 velocity=0 time=0
EXTRACT: note_on channel=5 note=43 velocity=0 time=0.0375
EXTRACT: note_on channel=6 note=40 velocity=0 time=0
EXTRACT: note_on channel=5 note=43 velocity=96 time=0.0010416666666666667
EXTRACT: note_on channel=6 note=40 velocity=96 time=0
EXTRACT: note_on channel=10 note=40 velocity=80 time=0
EXTRACT: note_on channel=5 note=43 velocity=0 time=0.24895833333333334
EXTRACT: note_on channel=5 note=45 velocity=96 time=0.0010416666666666667
EXTRACT: note_on channel=5 note=45 velocity=0 time=0.24895833333333334
EXTRACT: note_on channel=6 note=40 velocity=0 time=0
EXTRACT: note_on channel=5 note=48 velocity=96 time=0.0010416666666666667
EXTRACT: note_on channel=6 note=40 velocity=96 time=0
EXTRACT: note_on channel=10 note=64 velocity=80 time=0
EXTRACT: note_on channel=10 note=67 velocity=80 time=0
EXTRACT: note_on channel=10 note=71 velocity=80 time=0
EXTRACT: note_on channel=10 note=40 velocity=0 time=0.21145833333333333
EXTRACT: note_on channel=10 note=64 velocity=0 time=0.025
EXTRACT: note_on channel=10 note=67 velocity=0 time=0
EXTRACT: note_on channel=10 note=71 velocity=0 time=0
EXTRACT: note_on channel=5 note=48 velocity=0 time=0.0125
EXTRACT: note_on channel=6 note=40 velocity=0 time=0
EXTRACT: note_on channel=5 note=50 velocity=96 time=0.0010416666666666667
EXTRACT: note_on channel=6 note=40 velocity=96 time=0
EXTRACT: note_on channel=10 note=64 velocity=80 time=0
EXTRACT: note_on channel=10 note=67 velocity=80 time=0
EXTRACT: note_on channel=10 note=71 velocity=80 time=0
EXTRACT: note_on channel=10 note=40 velocity=80 time=0
EXTRACT: note_on channel=5 note=50 velocity=0 time=0.06145833333333333
EXTRACT: note_on channel=5 note=52 velocity=96 time=0.0010416666666666667
EXTRACT: note_on channel=5 note=52 velocity=0 time=0.06145833333333333
EXTRACT: note_on channel=5 note=50 velocity=96 time=0.0010416666666666667
EXTRACT: note_on channel=5 note=50 velocity=0 time=0.06145833333333333
EXTRACT: note_on channel=5 note=48 velocity=96 time=0.0010416666666666667
EXTRACT: note_on channel=10 note=40 velocity=0 time=0.04895833333333333
EXTRACT: note_on channel=5 note=48 velocity=0 time=0.0125
EXTRACT: note_on channel=5 note=50 velocity=96 time=0.0010416666666666667
EXTRACT: note_on channel=10 note=40 velocity=80 time=0
EXTRACT: note_on channel=10 note=40 velocity=0 time=0.4739583333333333
EXTRACT: note_on channel=6 note=40 velocity=0 time=0.025
EXTRACT: note_on channel=6 note=40 velocity=96 time=0.0010416666666666667
EXTRACT: note_on channel=10 note=40 velocity=80 time=0
EXTRACT: note_on channel=10 note=64 velocity=0 time=0.19895833333333332
EXTRACT: note_on channel=10 note=67 velocity=0 time=0
EXTRACT: note_on channel=10 note=71 velocity=0 time=0
EXTRACT: note_on channel=5 note=50 velocity=0 time=0.05
EXTRACT: note_on channel=0 note=81 velocity=80 time=0.0010416666666666667
EXTRACT: note_on channel=5 note=48 velocity=96 time=0
EXTRACT: note_on channel=10 note=60 velocity=80 time=0
EXTRACT: note_on channel=10 note=64 velocity=80 time=0
EXTRACT: note_on channel=10 note=67 velocity=80 time=0
EXTRACT: note_on channel=0 note=81 velocity=0 time=0.11770833333333333
EXTRACT: note_on channel=5 note=48 velocity=0 time=0.00625
EXTRACT: note_on channel=0 note=77 velocity=80 time=0.0010416666666666667
EXTRACT: note_on channel=5 note=45 velocity=96 time=0
EXTRACT: note_on channel=10 note=60 velocity=0 time=0.11145833333333333
EXTRACT: note_on channel=10 note=64 velocity=0 time=0
EXTRACT: note_on channel=10 note=67 velocity=0 time=0
EXTRACT: note_on channel=0 note=77 velocity=0 time=0.00625
EXTRACT: note_on channel=5 note=45 velocity=0 time=0.00625
EXTRACT: note_on channel=0 note=77 velocity=80 time=0.0010416666666666667
EXTRACT: note_on channel=10 note=64 velocity=80 time=0
EXTRACT: note_on channel=10 note=69 velocity=80 time=0
EXTRACT: note_on channel=10 note=72 velocity=80 time=0
EXTRACT: note_on channel=0 note=77 velocity=0 time=0.11770833333333333
EXTRACT: note_on channel=0 note=74 velocity=80 time=0.007291666666666667
EXTRACT: note_on channel=10 note=40 velocity=0 time=0.08645833333333333
EXTRACT: note_on channel=10 note=64 velocity=0 time=0.025
EXTRACT: note_on channel=10 note=69 velocity=0 time=0
EXTRACT: note_on channel=10 note=72 velocity=0 time=0
EXTRACT: note_on channel=0 note=74 velocity=0 time=0.00625
EXTRACT: note_on channel=6 note=40 velocity=0 time=0.00625
EXTRACT: note_on channel=0 note=76 velocity=80 time=0.0010416666666666667
EXTRACT: note_on channel=6 note=33 velocity=96 time=0
EXTRACT: note_on channel=10 note=69 velocity=80 time=0
EXTRACT: note_on channel=10 note=72 velocity=80 time=0
EXTRACT: note_on channel=10 note=76 velocity=80 time=0
EXTRACT: note_on channel=10 note=45 velocity=80 time=0
EXTRACT: note_on channel=5 note=52 velocity=96 time=0.5
EXTRACT: note_on channel=0 note=76 velocity=0 time=0.21145833333333333
EXTRACT: note_on channel=10 note=69 velocity=0 time=0
EXTRACT: note_on channel=10 note=72 velocity=0 time=0
EXTRACT: note_on channel=10 note=76 velocity=0 time=0
EXTRACT: note_on channel=10 note=45 velocity=0 time=0
EXTRACT: note_on channel=6 note=33 velocity=0 time=0.0375
EXTRACT: note_on channel=6 note=33 velocity=96 time=0.0010416666666666667
EXTRACT: note_on channel=10 note=45 velocity=80 time=0
EXTRACT: note_on channel=5 note=52 velocity=0 time=0.24895833333333334
EXTRACT: note_on channel=5 note=50 velocity=96 time=0.0010416666666666667
EXTRACT: note_on channel=5 note=50 velocity=0 time=0.24895833333333334
EXTRACT: note_on channel=6 note=33 velocity=0 time=0
EXTRACT: note_on channel=5 note=48 velocity=96 time=0.0010416666666666667
EXTRACT: note_on channel=6 note=33 velocity=96 time=0
EXTRACT: note_on channel=10 note=69 velocity=80 time=0
EXTRACT: note_on channel=10 note=72 velocity=80 time=0
EXTRACT: note_on channel=10 note=76 velocity=80 time=0
EXTRACT: note_on channel=10 note=45 velocity=0 time=0.21145833333333333
EXTRACT: note_on channel=10 note=69 velocity=0 time=0.025
EXTRACT: note_on channel=10 note=72 velocity=0 time=0
EXTRACT: note_on channel=10 note=76 velocity=0 time=0
EXTRACT: note_on channel=5 note=48 velocity=0 time=0.0125
EXTRACT: note_on channel=6 note=33 velocity=0 time=0
EXTRACT: note_on channel=5 note=50 velocity=96 time=0.0010416666666666667
EXTRACT: note_on channel=6 note=33 velocity=96 time=0
EXTRACT: note_on channel=10 note=69 velocity=80 time=0
EXTRACT: note_on channel=10 note=72 velocity=80 time=0
EXTRACT: note_on channel=10 note=76 velocity=80 time=0
EXTRACT: note_on channel=10 note=45 velocity=80 time=0
EXTRACT: note_on channel=10 note=45 velocity=0 time=0.23645833333333333
EXTRACT: note_on channel=5 note=50 velocity=0 time=0.0125
EXTRACT: note_on channel=5 note=48 velocity=96 time=0.0010416666666666667
EXTRACT: note_on channel=10 note=45 velocity=80 time=0
EXTRACT: note_on channel=5 note=48 velocity=0 time=0.24895833333333334
EXTRACT: note_on channel=5 note=48 velocity=96 time=0.0010416666666666667
EXTRACT: note_on channel=10 note=45 velocity=0 time=0.22395833333333334
EXTRACT: note_on channel=6 note=33 velocity=0 time=0.025
EXTRACT: note_on channel=6 note=33 velocity=96 time=0.0010416666666666667
EXTRACT: note_on channel=10 note=45 velocity=80 time=0
EXTRACT: note_on channel=10 note=69 velocity=0 time=0.19895833333333332
EXTRACT: note_on channel=10 note=72 velocity=0 time=0
EXTRACT: note_on channel=10 note=76 velocity=0 time=0
EXTRACT: note_on channel=10 note=60 velocity=80 time=0.051041666666666666
EXTRACT: note_on channel=10 note=64 velocity=80 time=0
EXTRACT: note_on channel=10 note=67 velocity=80 time=0
EXTRACT: note_on channel=10 note=60 velocity=0 time=0.23645833333333333
EXTRACT: note_on channel=10 note=64 velocity=0 time=0
EXTRACT: note_on channel=10 note=67 velocity=0 time=0
EXTRACT: note_on channel=5 note=48 velocity=0 time=0.0125
EXTRACT: note_on channel=5 note=45 velocity=96 time=0.0010416666666666667
EXTRACT: note_on channel=10 note=60 velocity=80 time=0
EXTRACT: note_on channel=10 note=65 velocity=80 time=0
EXTRACT: note_on channel=10 note=69 velocity=80 time=0
EXTRACT: note_on channel=10 note=45 velocity=0 time=0.21145833333333333
EXTRACT: note_on channel=10 note=60 velocity=0 time=0.025
EXTRACT: note_on channel=10 note=65 velocity=0 time=0
EXTRACT: note_on channel=10 note=69 velocity=0 time=0
EXTRACT: note_on channel=5 note=45 velocity=0 time=0.0125
EXTRACT: note_on channel=6 note=33 velocity=0 time=0
EXTRACT: note_on channel=0 note=77 velocity=80 time=0.0010416666666666667
EXTRACT: note_on channel=1 note=74 velocity=96 time=0
EXTRACT: note_on channel=5 note=53 velocity=96 time=0
EXTRACT: note_on channel=6 note=29 velocity=96 time=0
EXTRACT: note_on channel=10 note=77 velocity=80 time=0
EXTRACT: note_on channel=10 note=41 velocity=80 time=0
EXTRACT: note_on channel=10 note=77 velocity=0 time=0.4739583333333333
EXTRACT: note_on channel=10 note=41 velocity=0 time=0
EXTRACT: note_on channel=10 note=77 velocity=80 time=0.026041666666666668
EXTRACT: note_on channel=10 note=41 velocity=80 time=0
EXTRACT: note_on channel=0 note=77 velocity=0 time=0.21145833333333333
EXTRACT: note_on channel=10 note=77 velocity=0 time=0.025
EXTRACT: note_on channel=10 note=41 velocity=0 time=0
EXTRACT: note_on channel=1 note=74 velocity=0 time=0.0125
EXTRACT: note_on channel=5 note=53 velocity=0 time=0
EXTRACT: note_on channel=6 note=29 velocity=0 time=0
EXTRACT: note_on channel=0 note=76 velocity=80 time=0.0010416666666666667
EXTRACT: note_on channel=1 note=72 velocity=100 time=0
EXTRACT: note_on channel=5 note=52 velocity=96 time=0
EXTRACT: note_on channel=6 note=29 velocity=96 time=0
EXTRACT: note_on channel=10 note=76 velocity=80 time=0
EXTRACT: note_on channel=10 note=41 velocity=80 time=0
EXTRACT: note_on channel=0 note=76 velocity=0 time=0.4739583333333333
EXTRACT: note_on channel=10 note=76 velocity=0 time=0
EXTRACT: note_on channel=10 note=41 velocity=0 time=0
EXTRACT: note_on channel=1 note=72 velocity=0 time=0.025
EXTRACT: note_on channel=5 note=52 velocity=0 time=0
EXTRACT: note_on channel=6 note=29 velocity=0 time=0
EXTRACT: note_on channel=0 note=74 velocity=80 time=0.0010416666666666667
EXTRACT: note_on channel=1 note=69 velocity=103 time=0
EXTRACT: note_on channel=5 note=50 velocity=96 time=0
EXTRACT: note_on channel=6 note=29 velocity=96 time=0
EXTRACT: note_on channel=10 note=74 velocity=80 time=0
EXTRACT: note_on channel=10 note=41 velocity=80 time=0
EXTRACT: note_on channel=0 note=74 velocity=0 time=0.23645833333333333
EXTRACT: note_on channel=10 note=74 velocity=0 time=0
EXTRACT: note_on channel=10 note=41 velocity=0 time=0
EXTRACT: note_on channel=1 note=69 velocity=0 time=0.0125
EXTRACT: note_on channel=5 note=50 velocity=0 time=0
EXTRACT: note_on channel=6 note=29 velocity=0 time=0
EXTRACT: note_on channel=0 note=74 velocity=80 time=0.0010416666666666667
EXTRACT: note_on channel=1 note=69 velocity=104 time=0
EXTRACT: note_on channel=5 note=50 velocity=96 time=0
EXTRACT: note_on channel=6 note=29 velocity=96 time=0
EXTRACT: note_on channel=10 note=74 velocity=80 time=0
EXTRACT: note_on channel=10 note=41 velocity=80 time=0
EXTRACT: note_on channel=10 note=74 velocity=0 time=0.11770833333333333
EXTRACT: note_on channel=10 note=76 velocity=80 time=0.007291666666666667
EXTRACT: note_on channel=10 note=76 velocity=0 time=0.11770833333333333
EXTRACT: note_on channel=10 note=77 velocity=80 time=0.007291666666666667
EXTRACT: note_on channel=10 note=77 velocity=0 time=0.11770833333333333
EXTRACT: note_on channel=10 note=76 velocity=80 time=0.007291666666666667
EXTRACT: note_on channel=10 note=76 velocity=0 time=0.11770833333333333
EXTRACT: note_on channel=10 note=74 velocity=80 time=0.007291666666666667
EXTRACT: note_on channel=0 note=74 velocity=0 time=0.21145833333333333
EXTRACT: note_on channel=10 note=41 velocity=0 time=0
EXTRACT: note_on channel=10 note=74 velocity=0 time=0.025
EXTRACT: note_on channel=1 note=69 velocity=0 time=0.0125
EXTRACT: note_on channel=5 note=50 velocity=0 time=0
EXTRACT: note_on channel=6 note=29 velocity=0 time=0
EXTRACT: note_on channel=0 note=72 velocity=80 time=0.0010416666666666667
EXTRACT: note_on channel=1 note=67 velocity=109 time=0
EXTRACT: note_on channel=5 note=48 velocity=96 time=0
EXTRACT: note_on channel=6 note=29 velocity=96 time=0
EXTRACT: note_on channel=10 note=72 velocity=80 time=0
EXTRACT: note_on channel=10 note=41 velocity=80 time=0
EXTRACT: note_on channel=0 note=72 velocity=0 time=0.4739583333333333
EXTRACT: note_on channel=1 note=67 velocity=0 time=0.025
EXTRACT: note_on channel=5 note=48 velocity=0 time=0
EXTRACT: note_on channel=0 note=69 velocity=80 time=0.0010416666666666667
EXTRACT: note_on channel=1 note=65 velocity=112 time=0
EXTRACT: note_on channel=5 note=45 velocity=112 time=0
EXTRACT: note_on channel=0 note=69 velocity=0 time=0.11770833333333333
EXTRACT: note_on channel=1 note=65 velocity=0 time=0.00625
EXTRACT: note_on channel=5 note=45 velocity=0 time=0
EXTRACT: note_on channel=0 note=67 velocity=80 time=0.0010416666666666667
EXTRACT: note_on channel=1 note=64 velocity=112 time=0
EXTRACT: note_on channel=5 note=43 velocity=112 time=0
EXTRACT: note_on channel=10 note=72 velocity=0 time=0.08645833333333333
EXTRACT: note_on channel=10 note=41 velocity=0 time=0
EXTRACT: note_on channel=0 note=67 velocity=0 time=0.03125
EXTRACT: note_on channel=1 note=64 velocity=0 time=0.00625
EXTRACT: note_on channel=5 note=43 velocity=0 time=0
EXTRACT: note_on channel=6 note=29 velocity=0 time=0
EXTRACT: note_on channel=6 note=36 velocity=96 time=0.0010416666666666667
EXTRACT: note_on channel=10 note=60 velocity=80 time=0
EXTRACT: note_on channel=10 note=64 velocity=80 time=0
EXTRACT: note_on channel=10 note=67 velocity=80 time=0
EXTRACT: note_on channel=10 note=48 velocity=80 time=0
EXTRACT: note_on channel=1 note=67 velocity=96 time=0.5
EXTRACT: note_on channel=5 note=55 velocity=112 time=0
EXTRACT: note_on channel=10 note=60 velocity=0 time=0.21145833333333333
EXTRACT: note_on channel=10 note=64 velocity=0 time=0
EXTRACT: note_on channel=10 note=67 velocity=0 time=0
EXTRACT: note_on channel=10 note=48 velocity=0 time=0
EXTRACT: note_on channel=1 note=67 velocity=0 time=0.0375
EXTRACT: note_on channel=5 note=55 velocity=0 time=0
EXTRACT: note_on channel=6 note=36 velocity=0 time=0
EXTRACT: note_on channel=1 note=67 velocity=96 time=0.0010416666666666667
EXTRACT: note_on channel=5 note=55 velocity=112 time=0
EXTRACT: note_on channel=6 note=36 velocity=96 time=0
EXTRACT: note_on channel=10 note=48 velocity=80 time=0
EXTRACT: note_on channel=1 note=67 velocity=0 time=0.24895833333333334
EXTRACT: note_on channel=5 note=55 velocity=0 time=0
EXTRACT: note_on channel=1 note=64 velocity=96 time=0.0010416666666666667
EXTRACT: note_on channel=5 note=52 velocity=112 time=0
EXTRACT: note_on channel=1 note=64 velocity=0 time=0.24895833333333334
EXTRACT: note_on channel=5 note=52 velocity=0 time=0
EXTRACT: note_on channel=6 note=36 velocity=0 time=0
EXTRACT: note_on channel=1 note=62 velocity=96 time=0.0010416666666666667
EXTRACT: note_on channel=5 note=50 velocity=112 time=0
EXTRACT: note_on channel=6 note=36 velocity=96 time=0
EXTRACT: note_on channel=10 note=60 velocity=80 time=0
EXTRACT: note_on channel=10 note=64 velocity=80 time=0
EXTRACT: note_on channel=10 note=67 velocity=80 time=0
EXTRACT: note_on channel=10 note=48 velocity=0 time=0.21145833333333333
EXTRACT: note_on channel=10 note=60 velocity=0 time=0.025
EXTRACT: note_on channel=10 note=64 velocity=0 time=0
EXTRACT: note_on channel=10 note=67 velocity=0 time=0
EXTRACT: note_on channel=1 note=62 velocity=0 time=0.0125
EXTRACT: note_on channel=5 note=50 velocity=0 time=0
EXTRACT: note_on channel=6 note=36 velocity=0 time=0
EXTRACT: note_on channel=1 note=62 velocity=96 time=0.0010416666666666667
EXTRACT: note_on channel=5 note=50 velocity=112 time=0
EXTRACT: note_on channel=6 note=36 velocity=96 time=0
EXTRACT: note_on channel=10 note=60 velocity=80 time=0
EXTRACT: note_on channel=10 note=64 velocity=80 time=0
EXTRACT: note_on channel=10 note=67 velocity=80 time=0
EXTRACT: note_on channel=10 note=48 velocity=80 time=0
EXTRACT: note_on channel=10 note=48 velocity=0 time=0.23645833333333333
EXTRACT: note_on channel=1 note=62 velocity=0 time=0.0125
EXTRACT: note_on channel=5 note=50 velocity=0 time=0
EXTRACT: note_on channel=1 note=60 velocity=96 time=0.0010416666666666667
EXTRACT: note_on channel=5 note=48 velocity=112 time=0
EXTRACT: note_on channel=10 note=48 velocity=80 time=0
EXTRACT: note_on channel=1 note=60 velocity=0 time=0.24895833333333334
EXTRACT: note_on channel=5 note=48 velocity=0 time=0
EXTRACT: note_on channel=1 note=60 velocity=96 time=0.0010416666666666667
EXTRACT: note_on channel=5 note=48 velocity=112 time=0
EXTRACT: note_on channel=10 note=48 velocity=0 time=0.22395833333333334
EXTRACT: note_on channel=6 note=36 velocity=0 time=0.025
EXTRACT: note_on channel=6 note=36 velocity=96 time=0.0010416666666666667
EXTRACT: note_on channel=10 note=48 velocity=80 time=0
EXTRACT: note_on channel=10 note=60 velocity=0 time=0.19895833333333332
EXTRACT: note_on channel=10 note=64 velocity=0 time=0
EXTRACT: note_on channel=10 note=67 velocity=0 time=0
EXTRACT: note_on channel=0 note=84 velocity=96 time=0.051041666666666666
EXTRACT: note_on channel=3 note=72 velocity=96 time=0
EXTRACT: note_on channel=4 note=64 velocity=96 time=0
EXTRACT: note_on channel=10 note=60 velocity=80 time=0
EXTRACT: note_on channel=10 note=64 velocity=80 time=0
EXTRACT: note_on channel=10 note=67 velocity=80 time=0
EXTRACT: note_on channel=0 note=84 velocity=0 time=0.23645833333333333
EXTRACT: note_on channel=10 note=60 velocity=0 time=0
EXTRACT: note_on channel=10 note=64 velocity=0 time=0
EXTRACT: note_on channel=10 note=67 velocity=0 time=0
EXTRACT: note_on channel=3 note=72 velocity=0 time=0.0125
EXTRACT: note_on channel=0 note=81 velocity=96 time=0.0010416666666666667
EXTRACT: note_on channel=3 note=69 velocity=96 time=0
EXTRACT: note_on channel=10 note=59 velocity=80 time=0
EXTRACT: note_on channel=10 note=64 velocity=80 time=0
EXTRACT: note_on channel=10 note=67 velocity=80 time=0
EXTRACT: note_on channel=10 note=48 velocity=0 time=0.21145833333333333
EXTRACT: note_on channel=0 note=81 velocity=0 time=0.025
EXTRACT: note_on channel=10 note=59 velocity=0 time=0
EXTRACT: note_on channel=10 note=64 velocity=0 time=0
EXTRACT: note_on channel=10 note=67 velocity=0 time=0
EXTRACT: note_on channel=1 note=60 velocity=0 time=0.0125
EXTRACT: note_on channel=3 note=69 velocity=0 time=0
EXTRACT: note_on channel=4 note=64 velocity=0 time=0
EXTRACT: note_on channel=5 note=48 velocity=0 time=0
EXTRACT: note_on channel=6 note=36 velocity=0 time=0
EXTRACT: note_on channel=0 note=83 velocity=96 time=0.0010416666666666667
EXTRACT: note_on channel=3 note=71 velocity=96 time=0
EXTRACT: note_on channel=4 note=67 velocity=96 time=0
EXTRACT: note_on channel=6 note=40 velocity=96 time=0
EXTRACT: note_on channel=10 note=64 velocity=80 time=0
EXTRACT: note_on channel=10 note=67 velocity=80 time=0
EXTRACT: note_on channel=10 note=71 velocity=80 time=0
EXTRACT: note_on channel=10 note=40 velocity=80 time=0
EXTRACT: note_on channel=1 note=67 velocity=96 time=0.25
EXTRACT: note_on channel=5 note=55 velocity=112 time=0
EXTRACT: note_on channel=1 note=67 velocity=0 time=0.24895833333333334
EXTRACT: note_on channel=5 note=55 velocity=0 time=0
EXTRACT: note_on channel=1 note=67 velocity=96 time=0.0010416666666666667
EXTRACT: note_on channel=5 note=55 velocity=112 time=0
EXTRACT: note_on channel=0 note=83 velocity=0 time=0.21145833333333333
EXTRACT: note_on channel=10 note=64 velocity=0 time=0
EXTRACT: note_on channel=10 note=67 velocity=0 time=0
EXTRACT: note_on channel=10 note=71 velocity=0 time=0
EXTRACT: note_on channel=10 note=40 velocity=0 time=0
EXTRACT: note_on channel=1 note=67 velocity=0 time=0.0375
EXTRACT: note_on channel=3 note=71 velocity=0 time=0
EXTRACT: note_on channel=4 note=67 velocity=0 time=0
EXTRACT: note_on channel=5 note=55 velocity=0 time=0
EXTRACT: note_on channel=6 note=40 velocity=0 time=0
EXTRACT: note_on channel=1 note=67 velocity=96 time=0.0010416666666666667
EXTRACT: note_on channel=5 note=55 velocity=112 time=0
EXTRACT: note_on channel=6 note=40 velocity=96 time=0
EXTRACT: note_on channel=10 note=40 velocity=80 time=0
EXTRACT: note_on channel=1 note=67 velocity=0 time=0.24895833333333334
EXTRACT: note_on channel=5 note=55 velocity=0 time=0
EXTRACT: note_on channel=1 note=64 velocity=96 time=0.0010416666666666667
EXTRACT: note_on channel=5 note=52 velocity=112 time=0
EXTRACT: note_on channel=1 note=64 velocity=0 time=0.24895833333333334
EXTRACT: note_on channel=5 note=52 velocity=0 time=0
EXTRACT: note_on channel=6 note=40 velocity=0 time=0
EXTRACT: note_on channel=1 note=62 velocity=96 time=0.0010416666666666667
EXTRACT: note_on channel=5 note=50 velocity=112 time=0
EXTRACT: note_on channel=6 note=40 velocity=96 time=0
EXTRACT: note_on channel=10 note=64 velocity=80 time=0
EXTRACT: note_on channel=10 note=67 velocity=80 time=0
EXTRACT: note_on channel=10 note=71 velocity=80 time=0
EXTRACT: note_on channel=10 note=40 velocity=0 time=0.21145833333333333
EXTRACT: note_on channel=10 note=64 velocity=0 time=0.025
EXTRACT: note_on channel=10 note=67 velocity=0 time=0
EXTRACT: note_on channel=10 note=71 velocity=0 time=0
EXTRACT: note_on channel=1 note=62 velocity=0 time=0.0125
EXTRACT: note_on channel=5 note=50 velocity=0 time=0
EXTRACT: note_on channel=6 note=40 velocity=0 time=0
EXTRACT: note_on channel=0 note=79 velocity=96 time=0.0010416666666666667
EXTRACT: note_on channel=1 note=64 velocity=96 time=0
EXTRACT: note_on channel=2 note=79 velocity=96 time=0
EXTRACT: note_on channel=5 note=52 velocity=112 time=0
EXTRACT: note_on channel=6 note=40 velocity=96 time=0
EXTRACT: note_on channel=10 note=64 velocity=80 time=0
EXTRACT: note_on channel=10 note=67 velocity=80 time=0
EXTRACT: note_on channel=10 note=71 velocity=80 time=0
EXTRACT: note_on channel=10 note=40 velocity=80 time=0
EXTRACT: note_on channel=0 note=79 velocity=0 time=0.23645833333333333
EXTRACT: note_on channel=10 note=40 velocity=0 time=0
EXTRACT: note_on channel=2 note=79 velocity=0 time=0.0125
EXTRACT: note_on channel=0 note=79 velocity=96 time=0.0010416666666666667
EXTRACT: note_on channel=2 note=79 velocity=96 time=0
EXTRACT: note_on channel=10 note=40 velocity=80 time=0
EXTRACT: note_on channel=0 note=79 velocity=0 time=0.23645833333333333
EXTRACT: note_on channel=1 note=64 velocity=0 time=0.0125
EXTRACT: note_on channel=2 note=79 velocity=0 time=0
EXTRACT: note_on channel=5 note=52 velocity=0 time=0
EXTRACT: note_on channel=0 note=79 velocity=96 time=0.0010416666666666667
EXTRACT: note_on channel=1 note=65 velocity=96 time=0
EXTRACT: note_on channel=2 note=79 velocity=96 time=0
EXTRACT: note_on channel=5 note=53 velocity=112 time=0
EXTRACT: note_on channel=1 note=65 velocity=0 time=0.12395833333333334
EXTRACT: note_on channel=5 note=53 velocity=0 time=0
EXTRACT: note_on channel=1 note=64 velocity=96 time=0.0010416666666666667
EXTRACT: note_on channel=5 note=52 velocity=112 time=0
EXTRACT: note_on channel=10 note=40 velocity=0 time=0.09895833333333333
EXTRACT: note_on channel=0 note=79 velocity=0 time=0.0125
EXTRACT: note_on channel=1 note=64 velocity=0 time=0.0125
EXTRACT: note_on channel=2 note=79 velocity=0 time=0
EXTRACT: note_on channel=5 note=52 velocity=0 time=0
EXTRACT: note_on channel=6 note=40 velocity=0 time=0
EXTRACT: note_on channel=0 note=76 velocity=96 time=0.0010416666666666667
EXTRACT: note_on channel=1 note=62 velocity=96 time=0
EXTRACT: note_on channel=2 note=76 velocity=96 time=0
EXTRACT: note_on channel=5 note=50 velocity=112 time=0
EXTRACT: note_on channel=6 note=40 velocity=96 time=0
EXTRACT: note_on channel=10 note=40 velocity=80 time=0
EXTRACT: note_on channel=10 note=64 velocity=0 time=0.19895833333333332
EXTRACT: note_on channel=10 note=67 velocity=0 time=0
EXTRACT: note_on channel=10 note=71 velocity=0 time=0
EXTRACT: note_on channel=0 note=76 velocity=0 time=0.0375
EXTRACT: note_on channel=2 note=76 velocity=0 time=0.0125
EXTRACT: note_on channel=0 note=74 velocity=96 time=0.0010416666666666667
EXTRACT: note_on channel=2 note=74 velocity=96 time=0
EXTRACT: note_on channel=3 note=62 velocity=96 time=0
EXTRACT: note_on channel=10 note=60 velocity=80 time=0
EXTRACT: note_on channel=10 note=64 velocity=80 time=0
EXTRACT: note_on channel=10 note=67 velocity=80 time=0
EXTRACT: note_on channel=0 note=74 velocity=0 time=0.23645833333333333
EXTRACT: note_on channel=10 note=60 velocity=0 time=0
EXTRACT: note_on channel=10 note=64 velocity=0 time=0
EXTRACT: note_on channel=10 note=67 velocity=0 time=0
EXTRACT: note_on channel=2 note=74 velocity=0 time=0.0125
EXTRACT: note_on channel=3 note=62 velocity=0 time=0
EXTRACT: note_on channel=0 note=76 velocity=96 time=0.0010416666666666667
EXTRACT: note_on channel=2 note=76 velocity=96 time=0
EXTRACT: note_on channel=3 note=64 velocity=96 time=0
EXTRACT: note_on channel=10 note=64 velocity=80 time=0
EXTRACT: note_on channel=10 note=69 velocity=80 time=0
EXTRACT: note_on channel=10 note=72 velocity=80 time=0
EXTRACT: note_on channel=10 note=40 velocity=0 time=0.21145833333333333
EXTRACT: note_on channel=0 note=76 velocity=0 time=0.025
EXTRACT: note_on channel=10 note=64 velocity=0 time=0
EXTRACT: note_on channel=10 note=69 velocity=0 time=0
EXTRACT: note_on channel=10 note=72 velocity=0 time=0
EXTRACT: note_on channel=1 note=62 velocity=0 time=0.0125
EXTRACT: note_on channel=2 note=76 velocity=0 time=0
EXTRACT: note_on channel=3 note=64 velocity=0 time=0
EXTRACT: note_on channel=5 note=50 velocity=0 time=0
EXTRACT: note_on channel=6 note=40 velocity=0 time=0
EXTRACT: note_on channel=0 note=72 velocity=96 time=0.0010416666666666667
EXTRACT: note_on channel=2 note=72 velocity=96 time=0
EXTRACT: note_on channel=3 note=60 velocity=96 time=0
EXTRACT: note_on channel=6 note=33 velocity=96 time=0
EXTRACT: note_on channel=10 note=69 velocity=80 time=0
EXTRACT: note_on channel=10 note=72 velocity=80 time=0
EXTRACT: note_on channel=10 note=76 velocity=80 time=0
EXTRACT: note_on channel=10 note=45 velocity=80 time=0
EXTRACT: note_on channel=0 note=72 velocity=0 time=0.23645833333333333
EXTRACT: note_on channel=2 note=72 velocity=0 time=0.0125
EXTRACT: note_on channel=3 note=60 velocity=0 time=0
EXTRACT: note_on channel=0 note=69 velocity=96 time=0.0010416666666666667
EXTRACT: note_on channel=2 note=69 velocity=96 time=0
EXTRACT: note_on channel=3 note=57 velocity=96 time=0
EXTRACT: note_on channel=10 note=69 velocity=0 time=0.4614583333333333
EXTRACT: note_on channel=10 note=72 velocity=0 time=0
EXTRACT: note_on channel=10 note=76 velocity=0 time=0
EXTRACT: note_on channel=10 note=45 velocity=0 time=0
EXTRACT: note_on channel=0 note=69 velocity=0 time=0.0125
EXTRACT: note_on channel=2 note=69 velocity=0 time=0.025
EXTRACT: note_on channel=3 note=57 velocity=0 time=0
EXTRACT: note_on channel=6 note=33 velocity=0 time=0
EXTRACT: note_on channel=1 note=60 velocity=96 time=0.0010416666666666667
EXTRACT: note_on channel=3 note=60 velocity=96 time=0
EXTRACT: note_on channel=4 note=60 velocity=96 time=0
EXTRACT: note_on channel=5 note=48 velocity=112 time=0
EXTRACT: note_on channel=6 note=33 velocity=96 time=0
EXTRACT: note_on channel=10 note=45 velocity=80 time=0
EXTRACT: note_on channel=1 note=60 velocity=0 time=0.24895833333333334
EXTRACT: note_on channel=3 note=60 velocity=0 time=0
EXTRACT: note_on channel=4 note=60 velocity=0 time=0
EXTRACT: note_on channel=5 note=48 velocity=0 time=0
EXTRACT: note_on channel=1 note=62 velocity=96 time=0.0010416666666666667
EXTRACT: note_on channel=3 note=62 velocity=96 time=0
EXTRACT: note_on channel=4 note=62 velocity=96 time=0
EXTRACT: note_on channel=5 note=50 velocity=112 time=0
EXTRACT: note_on channel=1 note=62 velocity=0 time=0.24895833333333334
EXTRACT: note_on channel=3 note=62 velocity=0 time=0
EXTRACT: note_on channel=4 note=62 velocity=0 time=0
EXTRACT: note_on channel=5 note=50 velocity=0 time=0
EXTRACT: note_on channel=6 note=33 velocity=0 time=0
EXTRACT: note_on channel=1 note=60 velocity=96 time=0.0010416666666666667
EXTRACT: note_on channel=3 note=60 velocity=96 time=0
EXTRACT: note_on channel=4 note=60 velocity=96 time=0
EXTRACT: note_on channel=5 note=48 velocity=112 time=0
EXTRACT: note_on channel=6 note=33 velocity=96 time=0
EXTRACT: note_on channel=10 note=69 velocity=80 time=0
EXTRACT: note_on channel=10 note=72 velocity=80 time=0
EXTRACT: note_on channel=10 note=76 velocity=80 time=0
EXTRACT: note_on channel=10 note=45 velocity=0 time=0.21145833333333333
EXTRACT: note_on channel=10 note=69 velocity=0 time=0.025
EXTRACT: note_on channel=10 note=72 velocity=0 time=0
EXTRACT: note_on channel=10 note=76 velocity=0 time=0
EXTRACT: note_on channel=1 note=60 velocity=0 time=0.0125
EXTRACT: note_on channel=3 note=60 velocity=0 time=0
EXTRACT: note_on channel=4 note=60 velocity=0 time=0
EXTRACT: note_on channel=5 note=48 velocity=0 time=0
EXTRACT: note_on channel=6 note=33 velocity=0 time=0
EXTRACT: note_on channel=1 note=65 velocity=96 time=0.0010416666666666667
EXTRACT: note_on channel=3 note=65 velocity=96 time=0
EXTRACT: note_on channel=4 note=65 velocity=96 time=0
EXTRACT: note_on channel=5 note=53 velocity=112 time=0
EXTRACT: note_on channel=6 note=33 velocity=96 time=0
EXTRACT: note_on channel=10 note=69 velocity=80 time=0
EXTRACT: note_on channel=10 note=72 velocity=80 time=0
EXTRACT: note_on channel=10 note=76 velocity=80 time=0
EXTRACT: note_on channel=10 note=45 velocity=80 time=0
EXTRACT: note_on channel=10 note=45 velocity=0 time=0.23645833333333333
EXTRACT: note_on channel=1 note=65 velocity=0 time=0.0125
EXTRACT: note_on channel=3 note=65 velocity=0 time=0
EXTRACT: note_on channel=4 note=65 velocity=0 time=0
EXTRACT: note_on channel=5 note=53 velocity=0 time=0
EXTRACT: note_on channel=1 note=64 velocity=96 time=0.0010416666666666667
EXTRACT: note_on channel=3 note=64 velocity=96 time=0
EXTRACT: note_on channel=4 note=64 velocity=96 time=0
EXTRACT: note_on channel=5 note=52 velocity=112 time=0
EXTRACT: note_on channel=10 note=45 velocity=80 time=0
EXTRACT: note_on channel=1 note=64 velocity=0 time=0.24895833333333334
EXTRACT: note_on channel=3 note=64 velocity=0 time=0
EXTRACT: note_on channel=4 note=64 velocity=0 time=0
EXTRACT: note_on channel=5 note=52 velocity=0 time=0
EXTRACT: note_on channel=1 note=62 velocity=96 time=0.0010416666666666667
EXTRACT: note_on channel=3 note=62 velocity=96 time=0
EXTRACT: note_on channel=4 note=62 velocity=96 time=0
EXTRACT: note_on channel=5 note=50 velocity=112 time=0
EXTRACT: note_on channel=10 note=45 velocity=0 time=0.22395833333333334
EXTRACT: note_on channel=1 note=62 velocity=0 time=0.025
EXTRACT: note_on channel=3 note=62 velocity=0 time=0
EXTRACT: note_on channel=4 note=62 velocity=0 time=0
EXTRACT: note_on channel=5 note=50 velocity=0 time=0
EXTRACT: note_on channel=6 note=33 velocity=0 time=0
EXTRACT: note_on channel=1 note=60 velocity=96 time=0.0010416666666666667
EXTRACT: note_on channel=3 note=60 velocity=96 time=0
EXTRACT: note_on channel=4 note=60 velocity=96 time=0
EXTRACT: note_on channel=5 note=48 velocity=112 time=0
EXTRACT: note_on channel=6 note=33 velocity=96 time=0
EXTRACT: note_on channel=10 note=45 velocity=80 time=0
EXTRACT: note_on channel=10 note=69 velocity=0 time=0.19895833333333332
EXTRACT: note_on channel=10 note=72 velocity=0 time=0
EXTRACT: note_on channel=10 note=76 velocity=0 time=0
EXTRACT: note_on channel=1 note=60 velocity=0 time=0.05
EXTRACT: note_on channel=3 note=60 velocity=0 time=0
EXTRACT: note_on channel=4 note=60 velocity=0 time=0
EXTRACT: note_on channel=5 note=48 velocity=0 time=0
EXTRACT: note_on channel=1 note=62 velocity=96 time=0.0010416666666666667
EXTRACT: note_on channel=3 note=62 velocity=96 time=0
EXTRACT: note_on channel=4 note=62 velocity=96 time=0
EXTRACT: note_on channel=5 note=50 velocity=112 time=0
EXTRACT: note_on channel=10 note=60 velocity=80 time=0
EXTRACT: note_on channel=10 note=64 velocity=80 time=0
EXTRACT: note_on channel=10 note=67 velocity=80 time=0
EXTRACT: note_on channel=10 note=60 velocity=0 time=0.23645833333333333
EXTRACT: note_on channel=10 note=64 velocity=0 time=0
EXTRACT: note_on channel=10 note=67 velocity=0 time=0
EXTRACT: note_on channel=1 note=62 velocity=0 time=0.0125
EXTRACT: note_on channel=3 note=62 velocity=0 time=0
EXTRACT: note_on channel=4 note=62 velocity=0 time=0
EXTRACT: note_on channel=5 note=50 velocity=0 time=0
EXTRACT: note_on channel=1 note=60 velocity=96 time=0.0010416666666666667
EXTRACT: note_on channel=3 note=60 velocity=96 time=0
EXTRACT: note_on channel=4 note=60 velocity=96 time=0
EXTRACT: note_on channel=5 note=48 velocity=112 time=0
EXTRACT: note_on channel=10 note=60 velocity=80 time=0
EXTRACT: note_on channel=10 note=65 velocity=80 time=0
EXTRACT: note_on channel=10 note=69 velocity=80 time=0
EXTRACT: note_on channel=10 note=45 velocity=0 time=0.21145833333333333
EXTRACT: note_on channel=10 note=60 velocity=0 time=0.025
EXTRACT: note_on channel=10 note=65 velocity=0 time=0
EXTRACT: note_on channel=10 note=69 velocity=0 time=0
EXTRACT: note_on channel=1 note=60 velocity=0 time=0.0125
EXTRACT: note_on channel=3 note=60 velocity=0 time=0
EXTRACT: note_on channel=4 note=60 velocity=0 time=0
EXTRACT: note_on channel=5 note=48 velocity=0 time=0
EXTRACT: note_on channel=6 note=33 velocity=0 time=0
EXTRACT: note_on channel=1 note=65 velocity=96 time=0.0010416666666666667
EXTRACT: note_on channel=3 note=69 velocity=80 time=0
EXTRACT: note_on channel=4 note=62 velocity=80 time=0
EXTRACT: note_on channel=5 note=53 velocity=112 time=0
EXTRACT: note_on channel=6 note=29 velocity=96 time=0
EXTRACT: note_on channel=10 note=77 velocity=80 time=0
EXTRACT: note_on channel=10 note=41 velocity=80 time=0
EXTRACT: note_on channel=10 note=77 velocity=0 time=0.4739583333333333
EXTRACT: note_on channel=10 note=41 velocity=0 time=0
EXTRACT: note_on channel=1 note=65 velocity=0 time=0.025
EXTRACT: note_on channel=3 note=69 velocity=0 time=0
EXTRACT: note_on channel=4 note=62 velocity=0 time=0
EXTRACT: note_on channel=5 note=53 velocity=0 time=0
EXTRACT: note_on channel=1 note=65 velocity=96 time=0.0010416666666666667
EXTRACT: note_on channel=3 note=69 velocity=80 time=0
EXTRACT: note_on channel=4 note=62 velocity=80 time=0
EXTRACT: note_on channel=5 note=53 velocity=112 time=0
EXTRACT: note_on channel=10 note=77 velocity=80 time=0
EXTRACT: note_on channel=10 note=41 velocity=80 time=0
EXTRACT: note_on channel=10 note=77 velocity=0 time=0.23645833333333333
EXTRACT: note_on channel=10 note=41 velocity=0 time=0
EXTRACT: note_on channel=1 note=65 velocity=0 time=0.0125
EXTRACT: note_on channel=3 note=69 velocity=0 time=0
EXTRACT: note_on channel=4 note=62 velocity=0 time=0
EXTRACT: note_on channel=5 note=53 velocity=0 time=0
EXTRACT: note_on channel=6 note=29 velocity=0 time=0
EXTRACT: note_on channel=1 note=64 velocity=96 time=0.0010416666666666667
EXTRACT: note_on channel=3 note=67 velocity=80 time=0
EXTRACT: note_on channel=4 note=60 velocity=80 time=0
EXTRACT: note_on channel=5 note=52 velocity=112 time=0
EXTRACT: note_on channel=6 note=29 velocity=96 time=0
EXTRACT: note_on channel=10 note=76 velocity=80 time=0
EXTRACT: note_on channel=10 note=41 velocity=80 time=0
EXTRACT: note_on channel=10 note=76 velocity=0 time=0.4739583333333333
EXTRACT: note_on channel=10 note=41 velocity=0 time=0
EXTRACT: note_on channel=1 note=64 velocity=0 time=0.025
EXTRACT: note_on channel=3 note=67 velocity=0 time=0
EXTRACT: note_on channel=4 note=60 velocity=0 time=0
EXTRACT: note_on channel=5 note=52 velocity=0 time=0
EXTRACT: note_on channel=6 note=29 velocity=0 time=0
EXTRACT: note_on channel=1 note=62 velocity=96 time=0.0010416666666666667
EXTRACT: note_on channel=3 note=65 velocity=80 time=0
EXTRACT: note_on channel=4 note=57 velocity=80 time=0
EXTRACT: note_on channel=5 note=50 velocity=112 time=0
EXTRACT: note_on channel=6 note=29 velocity=96 time=0
EXTRACT: note_on channel=10 note=74 velocity=80 time=0
EXTRACT: note_on channel=10 note=41 velocity=80 time=0
EXTRACT: note_on channel=10 note=74 velocity=0 time=0.23645833333333333
EXTRACT: note_on channel=10 note=41 velocity=0 time=0
EXTRACT: note_on channel=1 note=62 velocity=0 time=0.0125
EXTRACT: note_on channel=3 note=65 velocity=0 time=0
EXTRACT: note_on channel=4 note=57 velocity=0 time=0
EXTRACT: note_on channel=5 note=50 velocity=0 time=0
EXTRACT: note_on channel=6 note=29 velocity=0 time=0
EXTRACT: note_on channel=1 note=62 velocity=96 time=0.0010416666666666667
EXTRACT: note_on channel=3 note=65 velocity=80 time=0
EXTRACT: note_on channel=4 note=57 velocity=80 time=0
EXTRACT: note_on channel=5 note=50 velocity=112 time=0
EXTRACT: note_on channel=6 note=29 velocity=96 time=0
EXTRACT: note_on channel=10 note=74 velocity=80 time=0
EXTRACT: note_on channel=10 note=41 velocity=80 time=0
EXTRACT: note_on channel=10 note=74 velocity=0 time=0.11770833333333333
EXTRACT: note_on channel=10 note=76 velocity=80 time=0.007291666666666667
EXTRACT: note_on channel=10 note=76 velocity=0 time=0.11770833333333333
EXTRACT: note_on channel=10 note=77 velocity=80 time=0.007291666666666667
EXTRACT: note_on channel=10 note=77 velocity=0 time=0.11770833333333333
EXTRACT: note_on channel=1 note=62 velocity=0 time=0.00625
EXTRACT: note_on channel=5 note=50 velocity=0 time=0
EXTRACT: note_on channel=1 note=64 velocity=96 time=0.0010416666666666667
EXTRACT: note_on channel=5 note=52 velocity=112 time=0
EXTRACT: note_on channel=10 note=76 velocity=80 time=0
EXTRACT: note_on channel=10 note=76 velocity=0 time=0.11770833333333333
EXTRACT: note_on channel=1 note=64 velocity=0 time=0.00625
EXTRACT: note_on channel=5 note=52 velocity=0 time=0
EXTRACT: note_on channel=1 note=62 velocity=96 time=0.0010416666666666667
EXTRACT: note_on channel=5 note=50 velocity=112 time=0
EXTRACT: note_on channel=10 note=74 velocity=80 time=0
EXTRACT: note_on channel=10 note=41 velocity=0 time=0.21145833333333333
EXTRACT: note_on channel=10 note=74 velocity=0 time=0.025
EXTRACT: note_on channel=1 note=62 velocity=0 time=0.0125
EXTRACT: note_on channel=3 note=65 velocity=0 time=0
EXTRACT: note_on channel=4 note=57 velocity=0 time=0
EXTRACT: note_on channel=5 note=50 velocity=0 time=0
EXTRACT: note_on channel=6 note=29 velocity=0 time=0
EXTRACT: note_on channel=1 note=60 velocity=96 time=0.0010416666666666667
EXTRACT: note_on channel=3 note=64 velocity=80 time=0
EXTRACT: note_on channel=4 note=55 velocity=80 time=0
EXTRACT: note_on channel=5 note=48 velocity=112 time=0
EXTRACT: note_on channel=6 note=29 velocity=96 time=0
EXTRACT: note_on channel=10 note=72 velocity=80 time=0
EXTRACT: note_on channel=10 note=36 velocity=80 time=0
EXTRACT: note_on channel=10 note=72 velocity=0 time=0.7114583333333333
EXTRACT: note_on channel=10 note=36 velocity=0 time=0
EXTRACT: note_on channel=1 note=60 velocity=0 time=0.0375
EXTRACT: note_on channel=3 note=64 velocity=0 time=0
EXTRACT: note_on channel=4 note=55 velocity=0 time=0
EXTRACT: note_on channel=5 note=48 velocity=0 time=0
EXTRACT: note_on channel=6 note=29 velocity=0 time=0
EXTRACT: note_on channel=3 note=62 velocity=112 time=0.0010416666666666667
EXTRACT: note_on channel=4 note=55 velocity=80 time=0
EXTRACT: note_on channel=5 note=48 velocity=96 time=0
EXTRACT: note_on channel=6 note=36 velocity=112 time=0
EXTRACT: note_on channel=10 note=74 velocity=80 time=0
EXTRACT: note_on channel=10 note=48 velocity=80 time=0
EXTRACT: note_on channel=10 note=52 velocity=80 time=0
EXTRACT: note_on channel=10 note=55 velocity=80 time=0
EXTRACT: note_on channel=10 note=74 velocity=0 time=0.23645833333333333
EXTRACT: note_on channel=3 note=62 velocity=0 time=0.0125
EXTRACT: note_on channel=3 note=64 velocity=112 time=0.0010416666666666667
EXTRACT: note_on channel=10 note=76 velocity=80 time=0
EXTRACT: note_on channel=10 note=76 velocity=0 time=0.23645833333333333
EXTRACT: note_on channel=3 note=64 velocity=0 time=0.0125
EXTRACT: note_on channel=3 note=62 velocity=112 time=0.0010416666666666667
EXTRACT: note_on channel=10 note=74 velocity=80 time=0
EXTRACT: note_on channel=10 note=48 velocity=0 time=0.21145833333333333
EXTRACT: note_on channel=10 note=52 velocity=0 time=0
EXTRACT: note_on channel=10 note=55 velocity=0 time=0
EXTRACT: note_on channel=10 note=74 velocity=0 time=0.025
EXTRACT: note_on channel=3 note=62 velocity=0 time=0.0125
EXTRACT: note_on channel=6 note=36 velocity=0 time=0
EXTRACT: note_on channel=3 note=64 velocity=112 time=0.0010416666666666667
EXTRACT: note_on channel=6 note=36 velocity=112 time=0
EXTRACT: note_on channel=10 note=76 velocity=80 time=0
EXTRACT: note_on channel=10 note=48 velocity=80 time=0
EXTRACT: note_on channel=10 note=52 velocity=80 time=0
EXTRACT: note_on channel=10 note=55 velocity=80 time=0
EXTRACT: note_on channel=6 note=36 velocity=0 time=0.49895833333333334
EXTRACT: note_on channel=6 note=36 velocity=112 time=0.0010416666666666667
EXTRACT: note_on channel=10 note=76 velocity=0 time=0.21145833333333333
EXTRACT: note_on channel=10 note=48 velocity=0 time=0
EXTRACT: note_on channel=10 note=52 velocity=0 time=0
EXTRACT: note_on channel=10 note=55 velocity=0 time=0
EXTRACT: note_on channel=3 note=64 velocity=0 time=0.0375
EXTRACT: note_on channel=6 note=36 velocity=0 time=0
EXTRACT: note_on channel=3 note=62 velocity=112 time=0.0010416666666666667
EXTRACT: note_on channel=6 note=36 velocity=112 time=0
EXTRACT: note_on channel=10 note=74 velocity=80 time=0
EXTRACT: note_on channel=10 note=55 velocity=80 time=0.125
EXTRACT: note_on channel=10 note=74 velocity=0 time=0.11145833333333333
EXTRACT: note_on channel=10 note=55 velocity=0 time=0.00625
EXTRACT: note_on channel=3 note=62 velocity=0 time=0.00625
EXTRACT: note_on channel=3 note=64 velocity=112 time=0.0010416666666666667
EXTRACT: note_on channel=10 note=76 velocity=80 time=0
EXTRACT: note_on channel=10 note=48 velocity=80 time=0
EXTRACT: note_on channel=10 note=52 velocity=80 time=0
EXTRACT: note_on channel=10 note=55 velocity=80 time=0
EXTRACT: note_on channel=10 note=76 velocity=0 time=0.23645833333333333
EXTRACT: note_on channel=10 note=48 velocity=0 time=0
EXTRACT: note_on channel=10 note=52 velocity=0 time=0
EXTRACT: note_on channel=10 note=55 velocity=0 time=0
EXTRACT: note_on channel=3 note=64 velocity=0 time=0.0125
EXTRACT: note_on channel=3 note=62 velocity=112 time=0.0010416666666666667
EXTRACT: note_on channel=10 note=74 velocity=80 time=0
EXTRACT: note_on channel=10 note=48 velocity=80 time=0
EXTRACT: note_on channel=10 note=52 velocity=80 time=0
EXTRACT: note_on channel=10 note=55 velocity=80 time=0
EXTRACT: note_on channel=10 note=74 velocity=0 time=0.23645833333333333
EXTRACT: note_on channel=3 note=62 velocity=0 time=0.0125
EXTRACT: note_on channel=6 note=36 velocity=0 time=0
EXTRACT: note_on channel=0 note=84 velocity=96 time=0.0010416666666666667
EXTRACT: note_on channel=1 note=84 velocity=96 time=0
EXTRACT: note_on channel=2 note=84 velocity=96 time=0
EXTRACT: note_on channel=3 note=67 velocity=112 time=0
EXTRACT: note_on channel=6 note=36 velocity=112 time=0
EXTRACT: note_on channel=10 note=79 velocity=80 time=0
EXTRACT: note_on channel=0 note=84 velocity=0 time=0.23645833333333333
EXTRACT: note_on channel=1 note=84 velocity=0 time=0.0125
EXTRACT: note_on channel=2 note=84 velocity=0 time=0
EXTRACT: note_on channel=0 note=84 velocity=96 time=0.0010416666666666667
EXTRACT: note_on channel=1 note=84 velocity=96 time=0
EXTRACT: note_on channel=2 note=84 velocity=96 time=0
EXTRACT: note_on channel=10 note=48 velocity=0 time=0.21145833333333333
EXTRACT: note_on channel=10 note=52 velocity=0 time=0
EXTRACT: note_on channel=10 note=55 velocity=0 time=0
EXTRACT: note_on channel=0 note=84 velocity=0 time=0.025
EXTRACT: note_on channel=1 note=84 velocity=0 time=0.0125
EXTRACT: note_on channel=2 note=84 velocity=0 time=0
EXTRACT: note_on channel=0 note=81 velocity=96 time=0.0010416666666666667
EXTRACT: note_on channel=1 note=81 velocity=96 time=0
EXTRACT: note_on channel=2 note=81 velocity=96 time=0
EXTRACT: note_on channel=10 note=48 velocity=80 time=0
EXTRACT: note_on channel=10 note=52 velocity=80 time=0
EXTRACT: note_on channel=10 note=55 velocity=80 time=0
EXTRACT: note_on channel=10 note=79 velocity=0 time=0.21145833333333333
EXTRACT: note_on channel=0 note=81 velocity=0 time=0.025
EXTRACT: note_on channel=10 note=48 velocity=0 time=0
EXTRACT: note_on channel=10 note=52 velocity=0 time=0
EXTRACT: note_on channel=10 note=55 velocity=0 time=0
EXTRACT: note_on channel=1 note=81 velocity=0 time=0.0125
EXTRACT: note_on channel=2 note=81 velocity=0 time=0
EXTRACT: note_on channel=3 note=67 velocity=0 time=0
EXTRACT: note_on channel=4 note=55 velocity=0 time=0
EXTRACT: note_on channel=5 note=48 velocity=0 time=0
EXTRACT: note_on channel=6 note=36 velocity=0 time=0
EXTRACT: note_on channel=0 note=83 velocity=96 time=0.0010416666666666667
EXTRACT: note_on channel=1 note=83 velocity=96 time=0
EXTRACT: note_on channel=2 note=83 velocity=96 time=0
EXTRACT: note_on channel=3 note=62 velocity=112 time=0
EXTRACT: note_on channel=4 note=59 velocity=80 time=0
EXTRACT: note_on channel=5 note=52 velocity=96 time=0
EXTRACT: note_on channel=6 note=40 velocity=112 time=0
EXTRACT: note_on channel=10 note=74 velocity=80 time=0
EXTRACT: note_on channel=10 note=52 velocity=80 time=0
EXTRACT: note_on channel=10 note=55 velocity=80 time=0
EXTRACT: note_on channel=10 note=59 velocity=80 time=0
EXTRACT: note_on channel=10 note=74 velocity=0 time=0.23645833333333333
EXTRACT: note_on channel=3 note=62 velocity=0 time=0.0125
EXTRACT: note_on channel=3 note=64 velocity=112 time=0.0010416666666666667
EXTRACT: note_on channel=10 note=76 velocity=80 time=0
EXTRACT: note_on channel=10 note=76 velocity=0 time=0.23645833333333333
EXTRACT: note_on channel=3 note=64 velocity=0 time=0.0125
EXTRACT: note_on channel=3 note=62 velocity=112 time=0.0010416666666666667
EXTRACT: note_on channel=10 note=74 velocity=80 time=0
EXTRACT: note_on channel=0 note=83 velocity=0 time=0.21145833333333333
EXTRACT: note_on channel=10 note=52 velocity=0 time=0
EXTRACT: note_on channel=10 note=55 velocity=0 time=0
EXTRACT: note_on channel=10 note=59 velocity=0 time=0
EXTRACT: note_on channel=10 note=74 velocity=0 time=0.025
EXTRACT: note_on channel=1 note=83 velocity=0 time=0.0125
EXTRACT: note_on channel=2 note=83 velocity=0 time=0
EXTRACT: note_on channel=3 note=62 velocity=0 time=0
EXTRACT: note_on channel=6 note=40 velocity=0 time=0
EXTRACT: note_on channel=3 note=64 velocity=112 time=0.0010416666666666667
EXTRACT: note_on channel=6 note=40 velocity=112 time=0
EXTRACT: note_on channel=10 note=76 velocity=80 time=0
EXTRACT: note_on channel=10 note=52 velocity=80 time=0
EXTRACT: note_on channel=10 note=55 velocity=80 time=0
EXTRACT: note_on channel=10 note=59 velocity=80 time=0
EXTRACT: note_on channel=6 note=40 velocity=0 time=0.49895833333333334
EXTRACT: note_on channel=6 note=40 velocity=112 time=0.0010416666666666667
EXTRACT: note_on channel=10 note=76 velocity=0 time=0.09270833333333334
EXTRACT: note_on channel=3 note=64 velocity=0 time=0.03125
EXTRACT: note_on channel=3 note=62 velocity=112 time=0.0010416666666666667
EXTRACT: note_on channel=10 note=74 velocity=80 time=0
EXTRACT: note_on channel=10 note=52 velocity=0 time=0.08645833333333333
EXTRACT: note_on channel=10 note=55 velocity=0 time=0
EXTRACT: note_on channel=10 note=59 velocity=0 time=0
EXTRACT: note_on channel=10 note=74 velocity=0 time=0.03125
EXTRACT: note_on channel=3 note=62 velocity=0 time=0.00625
EXTRACT: note_on channel=6 note=40 velocity=0 time=0
EXTRACT: note_on channel=3 note=62 velocity=112 time=0.0010416666666666667
EXTRACT: note_on channel=6 note=40 velocity=112 time=0
EXTRACT: note_on channel=10 note=74 velocity=80 time=0
EXTRACT: note_on channel=10 note=59 velocity=80 time=0
EXTRACT: note_on channel=10 note=74 velocity=0 time=0.23645833333333333
EXTRACT: note_on channel=10 note=59 velocity=0 time=0
EXTRACT: note_on channel=3 note=62 velocity=0 time=0.0125
EXTRACT: note_on channel=3 note=64 velocity=112 time=0.0010416666666666667
EXTRACT: note_on channel=10 note=76 velocity=80 time=0
EXTRACT: note_on channel=10 note=52 velocity=80 time=0
EXTRACT: note_on channel=10 note=55 velocity=80 time=0
EXTRACT: note_on channel=10 note=59 velocity=80 time=0
EXTRACT: note_on channel=10 note=76 velocity=0 time=0.23645833333333333
EXTRACT: note_on channel=10 note=52 velocity=0 time=0
EXTRACT: note_on channel=10 note=55 velocity=0 time=0
EXTRACT: note_on channel=10 note=59 velocity=0 time=0
EXTRACT: note_on channel=3 note=64 velocity=0 time=0.0125
EXTRACT: note_on channel=3 note=62 velocity=112 time=0.0010416666666666667
EXTRACT: note_on channel=10 note=74 velocity=80 time=0
EXTRACT: note_on channel=10 note=52 velocity=80 time=0
EXTRACT: note_on channel=10 note=55 velocity=80 time=0
EXTRACT: note_on channel=10 note=59 velocity=80 time=0
EXTRACT: note_on channel=10 note=74 velocity=0 time=0.23645833333333333
EXTRACT: note_on channel=3 note=62 velocity=0 time=0.0125
EXTRACT: note_on channel=6 note=40 velocity=0 time=0
EXTRACT: note_on channel=3 note=69 velocity=112 time=0.0010416666666666667
EXTRACT: note_on channel=6 note=40 velocity=112 time=0
EXTRACT: note_on channel=10 note=81 velocity=80 time=0
EXTRACT: note_on channel=0 note=86 velocity=96 time=0.25
EXTRACT: note_on channel=1 note=86 velocity=96 time=0
EXTRACT: note_on channel=2 note=86 velocity=96 time=0
EXTRACT: note_on channel=10 note=81 velocity=0 time=0.10520833333333333
EXTRACT: note_on channel=10 note=79 velocity=80 time=0.019791666666666666
EXTRACT: note_on channel=0 note=86 velocity=0 time=0.11145833333333333
EXTRACT: note_on channel=1 note=86 velocity=0 time=0.0125
EXTRACT: note_on channel=2 note=86 velocity=0 time=0
EXTRACT: note_on channel=0 note=84 velocity=96 time=0.0010416666666666667
EXTRACT: note_on channel=1 note=84 velocity=96 time=0
EXTRACT: note_on channel=2 note=84 velocity=96 time=0
EXTRACT: note_on channel=10 note=52 velocity=0 time=0.19895833333333332
EXTRACT: note_on channel=10 note=55 velocity=0 time=0
EXTRACT: note_on channel=10 note=59 velocity=0 time=0
EXTRACT: note_on channel=0 note=84 velocity=0 time=0.0375
EXTRACT: note_on channel=1 note=84 velocity=0 time=0.0125
EXTRACT: note_on channel=2 note=84 velocity=0 time=0
EXTRACT: note_on channel=4 note=59 velocity=0 time=0
EXTRACT: note_on channel=5 note=52 velocity=0 time=0
EXTRACT: note_on channel=6 note=40 velocity=0 time=0
EXTRACT: note_on channel=0 note=81 velocity=96 time=0.0010416666666666667
EXTRACT: note_on channel=1 note=81 velocity=96 time=0
EXTRACT: note_on channel=2 note=81 velocity=96 time=0
EXTRACT: note_on channel=4 note=52 velocity=80 time=0
EXTRACT: note_on channel=5 note=45 velocity=96 time=0
EXTRACT: note_on channel=6 note=33 velocity=112 time=0
EXTRACT: note_on channel=10 note=45 velocity=80 time=0
EXTRACT: note_on channel=10 note=48 velocity=80 time=0
EXTRACT: note_on channel=10 note=52 velocity=80 time=0
EXTRACT: note_on channel=0 note=81 velocity=0 time=0.11770833333333333
EXTRACT: note_on channel=1 note=81 velocity=0 time=0.00625
EXTRACT: note_on channel=2 note=81 velocity=0 time=0
EXTRACT: note_on channel=3 note=69 velocity=0 time=0
EXTRACT: note_on channel=0 note=79 velocity=96 time=0.0010416666666666667
EXTRACT: note_on channel=1 note=79 velocity=96 time=0
EXTRACT: note_on channel=2 note=79 velocity=96 time=0
EXTRACT: note_on channel=3 note=67 velocity=112 time=0
EXTRACT: note_on channel=0 note=79 velocity=0 time=0.11770833333333333
EXTRACT: note_on channel=1 note=79 velocity=0 time=0.00625
EXTRACT: note_on channel=2 note=79 velocity=0 time=0
EXTRACT: note_on channel=3 note=67 velocity=0 time=0
EXTRACT: note_on channel=0 note=76 velocity=96 time=0.0010416666666666667
EXTRACT: note_on channel=1 note=76 velocity=96 time=0
EXTRACT: note_on channel=2 note=76 velocity=96 time=0
EXTRACT: note_on channel=3 note=64 velocity=112 time=0
EXTRACT: note_on channel=10 note=79 velocity=0 time=0.08645833333333333
EXTRACT: note_on channel=10 note=81 velocity=80 time=0.03854166666666667
EXTRACT: note_on channel=10 note=81 velocity=0 time=0.23645833333333333
EXTRACT: note_on channel=10 note=76 velocity=80 time=0.013541666666666667
EXTRACT: note_on channel=0 note=76 velocity=0 time=0.09895833333333333
EXTRACT: note_on channel=1 note=76 velocity=0 time=0.025
EXTRACT: note_on channel=2 note=76 velocity=0 time=0
EXTRACT: note_on channel=3 note=64 velocity=0 time=0
EXTRACT: note_on channel=6 note=33 velocity=0 time=0
EXTRACT: note_on channel=6 note=33 velocity=112 time=0.0010416666666666667
EXTRACT: note_on channel=10 note=76 velocity=0 time=0.23020833333333332
EXTRACT: note_on channel=3 note=62 velocity=112 time=0.019791666666666666
EXTRACT: note_on channel=3 note=62 velocity=0 time=0.24895833333333334
EXTRACT: note_on channel=6 note=33 velocity=0 time=0
EXTRACT: note_on channel=3 note=62 velocity=112 time=0.0010416666666666667
EXTRACT: note_on channel=6 note=33 velocity=112 time=0
EXTRACT: note_on channel=10 note=45 velocity=0 time=0.17395833333333333
EXTRACT: note_on channel=10 note=48 velocity=0 time=0
EXTRACT: note_on channel=10 note=52 velocity=0 time=0
EXTRACT: note_on channel=3 note=62 velocity=0 time=0.075
EXTRACT: note_on channel=6 note=33 velocity=0 time=0
EXTRACT: note_on channel=3 note=64 velocity=112 time=0.0010416666666666667
EXTRACT: note_on channel=6 note=33 velocity=112 time=0
EXTRACT: note_on channel=4 note=52 velocity=0 time=0.49895833333333334
EXTRACT: note_on channel=0 note=72 velocity=96 time=0.0010416666666666667
EXTRACT: note_on channel=1 note=72 velocity=96 time=0
EXTRACT: note_on channel=2 note=72 velocity=96 time=0
EXTRACT: note_on channel=4 note=60 velocity=80 time=0
EXTRACT: note_on channel=10 note=45 velocity=80 time=0
EXTRACT: note_on channel=10 note=48 velocity=80 time=0
EXTRACT: note_on channel=10 note=52 velocity=80 time=0
EXTRACT: note_on channel=6 note=33 velocity=0 time=0.24895833333333334
EXTRACT: note_on channel=6 note=33 velocity=112 time=0.0010416666666666667
EXTRACT: note_on channel=0 note=72 velocity=0 time=0.22395833333333334
EXTRACT: note_on channel=10 note=45 velocity=0 time=0
EXTRACT: note_on channel=10 note=48 velocity=0 time=0
EXTRACT: note_on channel=10 note=52 velocity=0 time=0
EXTRACT: note_on channel=1 note=72 velocity=0 time=0.025
EXTRACT: note_on channel=2 note=72 velocity=0 time=0
EXTRACT: note_on channel=3 note=64 velocity=0 time=0
EXTRACT: note_on channel=4 note=60 velocity=0 time=0
EXTRACT: note_on channel=0 note=72 velocity=96 time=0.0010416666666666667
EXTRACT: note_on channel=1 note=72 velocity=96 time=0
EXTRACT: note_on channel=2 note=72 velocity=96 time=0
EXTRACT: note_on channel=3 note=64 velocity=112 time=0
EXTRACT: note_on channel=4 note=60 velocity=80 time=0
EXTRACT: note_on channel=0 note=72 velocity=0 time=0.23645833333333333
EXTRACT: note_on channel=1 note=72 velocity=0 time=0.0125
EXTRACT: note_on channel=2 note=72 velocity=0 time=0
EXTRACT: note_on channel=3 note=64 velocity=0 time=0
EXTRACT: note_on channel=4 note=60 velocity=0 time=0
EXTRACT: note_on channel=0 note=72 velocity=96 time=0.0010416666666666667
EXTRACT: note_on channel=1 note=72 velocity=96 time=0
EXTRACT: note_on channel=2 note=72 velocity=96 time=0
EXTRACT: note_on channel=3 note=64 velocity=112 time=0
EXTRACT: note_on channel=4 note=60 velocity=80 time=0
EXTRACT: note_on channel=10 note=45 velocity=80 time=0
EXTRACT: note_on channel=10 note=48 velocity=80 time=0
EXTRACT: note_on channel=10 note=52 velocity=80 time=0
EXTRACT: note_on channel=0 note=72 velocity=0 time=0.23645833333333333
EXTRACT: note_on channel=10 note=45 velocity=0 time=0
EXTRACT: note_on channel=10 note=48 velocity=0 time=0
EXTRACT: note_on channel=10 note=52 velocity=0 time=0
EXTRACT: note_on channel=1 note=72 velocity=0 time=0.0125
EXTRACT: note_on channel=2 note=72 velocity=0 time=0
EXTRACT: note_on channel=3 note=64 velocity=0 time=0
EXTRACT: note_on channel=4 note=60 velocity=0 time=0
EXTRACT: note_on channel=5 note=45 velocity=0 time=0
EXTRACT: note_on channel=6 note=33 velocity=0 time=0
EXTRACT: note_on channel=3 note=62 velocity=112 time=0.0010416666666666667
EXTRACT: note_on channel=4 note=57 velocity=96 time=0
EXTRACT: note_on channel=5 note=41 velocity=96 time=0
EXTRACT: note_on channel=6 note=29 velocity=112 time=0
EXTRACT: note_on channel=10 note=53 velocity=80 time=0
EXTRACT: note_on channel=10 note=57 velocity=80 time=0
EXTRACT: note_on channel=10 note=60 velocity=80 time=0
EXTRACT: note_on channel=3 note=62 velocity=0 time=0.24895833333333334
EXTRACT: note_on channel=4 note=57 velocity=0 time=0
EXTRACT: note_on channel=3 note=62 velocity=112 time=0.0010416666666666667
EXTRACT: note_on channel=4 note=57 velocity=96 time=0
EXTRACT: note_on channel=3 note=62 velocity=0 time=0.24895833333333334
EXTRACT: note_on channel=4 note=57 velocity=0 time=0
EXTRACT: note_on channel=3 note=60 velocity=112 time=0.0010416666666666667
EXTRACT: note_on channel=4 note=55 velocity=96 time=0
EXTRACT: note_on channel=10 note=53 velocity=0 time=0.21145833333333333
EXTRACT: note_on channel=10 note=57 velocity=0 time=0
EXTRACT: note_on channel=10 note=60 velocity=0 time=0
EXTRACT: note_on channel=3 note=60 velocity=0 time=0.0375
EXTRACT: note_on channel=4 note=55 velocity=0 time=0
EXTRACT: note_on channel=6 note=29 velocity=0 time=0
EXTRACT: note_on channel=3 note=62 velocity=112 time=0.0010416666666666667
EXTRACT: note_on channel=4 note=57 velocity=96 time=0
EXTRACT: note_on channel=6 note=29 velocity=112 time=0
EXTRACT: note_on channel=10 note=53 velocity=80 time=0
EXTRACT: note_on channel=10 note=57 velocity=80 time=0
EXTRACT: note_on channel=10 note=60 velocity=80 time=0
EXTRACT: note_on channel=3 note=62 velocity=0 time=0.49895833333333334
EXTRACT: note_on channel=4 note=57 velocity=0 time=0
EXTRACT: note_on channel=6 note=29 velocity=0 time=0
EXTRACT: note_on channel=3 note=60 velocity=112 time=0.0010416666666666667
EXTRACT: note_on channel=4 note=55 velocity=96 time=0
EXTRACT: note_on channel=6 note=29 velocity=112 time=0
EXTRACT: note_on channel=10 note=53 velocity=0 time=0.21145833333333333
EXTRACT: note_on channel=10 note=57 velocity=0 time=0
EXTRACT: note_on channel=10 note=60 velocity=0 time=0
EXTRACT: note_on channel=6 note=29 velocity=0 time=0.0375
EXTRACT: note_on channel=0 note=84 velocity=96 time=0.0010416666666666667
EXTRACT: note_on channel=6 note=29 velocity=112 time=0
EXTRACT: note_on channel=0 note=84 velocity=0 time=0.1
EXTRACT: note_on channel=0 note=86 velocity=98 time=0.007291666666666667
EXTRACT: note_on channel=0 note=86 velocity=0 time=0.1
EXTRACT: note_on channel=0 note=88 velocity=100 time=0.007291666666666667
EXTRACT: note_on channel=10 note=53 velocity=80 time=0.035416666666666666
EXTRACT: note_on channel=10 note=57 velocity=80 time=0
EXTRACT: note_on channel=10 note=60 velocity=80 time=0
EXTRACT: note_on channel=0 note=88 velocity=0 time=0.06458333333333333
EXTRACT: note_on channel=0 note=89 velocity=102 time=0.007291666666666667
EXTRACT: note_on channel=0 note=89 velocity=0 time=0.1
EXTRACT: note_on channel=0 note=88 velocity=104 time=0.007291666666666667
EXTRACT: note_on channel=10 note=53 velocity=0 time=0.057291666666666664
EXTRACT: note_on channel=10 note=57 velocity=0 time=0
EXTRACT: note_on channel=10 note=60 velocity=0 time=0
EXTRACT: note_on channel=3 note=60 velocity=0 time=0.0125
EXTRACT: note_on channel=3 note=67 velocity=112 time=0.0010416666666666667
EXTRACT: note_on channel=10 note=53 velocity=80 time=0
EXTRACT: note_on channel=10 note=57 velocity=80 time=0
EXTRACT: note_on channel=10 note=60 velocity=80 time=0
EXTRACT: note_on channel=0 note=88 velocity=0 time=0.029166666666666667
EXTRACT: note_on channel=0 note=89 velocity=106 time=0.007291666666666667
EXTRACT: note_on channel=0 note=89 velocity=0 time=0.1
EXTRACT: note_on channel=0 note=91 velocity=108 time=0.007291666666666667
EXTRACT: note_on channel=0 note=91 velocity=0 time=0.1
EXTRACT: note_on channel=3 note=67 velocity=0 time=0.005208333333333333
EXTRACT: note_on channel=6 note=29 velocity=0 time=0
EXTRACT: note_on channel=0 note=89 velocity=111 time=0.0010416666666666667
EXTRACT: note_on channel=3 note=67 velocity=112 time=0
EXTRACT: note_on channel=6 note=29 velocity=112 time=0
EXTRACT: note_on channel=0 note=89 velocity=0 time=0.1
EXTRACT: note_on channel=0 note=91 velocity=113 time=0.007291666666666667
EXTRACT: note_on channel=0 note=91 velocity=0 time=0.1
EXTRACT: note_on channel=0 note=93 velocity=115 time=0.007291666666666667
EXTRACT: note_on channel=3 note=67 velocity=0 time=0.034375
EXTRACT: note_on channel=3 note=69 velocity=112 time=0.0010416666666666667
EXTRACT: note_on channel=0 note=93 velocity=0 time=0.06458333333333333
EXTRACT: note_on channel=0 note=95 velocity=117 time=0.007291666666666667
EXTRACT: note_on channel=0 note=95 velocity=0 time=0.1
EXTRACT: note_on channel=0 note=93 velocity=119 time=0.007291666666666667
EXTRACT: note_on channel=10 note=53 velocity=0 time=0.03229166666666666
EXTRACT: note_on channel=10 note=57 velocity=0 time=0
EXTRACT: note_on channel=10 note=60 velocity=0 time=0
EXTRACT: note_on channel=3 note=69 velocity=0 time=0.0375
EXTRACT: note_on channel=3 note=72 velocity=112 time=0.0010416666666666667
EXTRACT: note_on channel=10 note=53 velocity=80 time=0
EXTRACT: note_on channel=10 note=57 velocity=80 time=0
EXTRACT: note_on channel=10 note=60 velocity=80 time=0
EXTRACT: note_on channel=0 note=93 velocity=0 time=0.029166666666666667
EXTRACT: note_on channel=0 note=95 velocity=121 time=0.007291666666666667
EXTRACT: note_on channel=3 note=72 velocity=0 time=0.0875
EXTRACT: note_on channel=3 note=69 velocity=112 time=0.0010416666666666667
EXTRACT: note_on channel=0 note=95 velocity=0 time=0.011458333333333333
EXTRACT: note_on channel=0 note=96 velocity=123 time=0.007291666666666667
EXTRACT: note_on channel=10 note=53 velocity=0 time=0.09270833333333334
EXTRACT: note_on channel=10 note=57 velocity=0 time=0
EXTRACT: note_on channel=10 note=60 velocity=0 time=0
EXTRACT: note_on channel=0 note=96 velocity=0 time=0.007291666666666667
EXTRACT: note_on channel=3 note=69 velocity=0 time=0.005208333333333333
EXTRACT: note_on channel=4 note=55 velocity=0 time=0
EXTRACT: note_on channel=5 note=41 velocity=0 time=0
EXTRACT: note_on channel=6 note=29 velocity=0 time=0
EXTRACT: note_on channel=1 note=64 velocity=96 time=0.0010416666666666667
EXTRACT: note_on channel=2 note=84 velocity=112 time=0
EXTRACT: note_on channel=3 note=72 velocity=112 time=0
EXTRACT: note_on channel=4 note=52 velocity=96 time=0
EXTRACT: note_on channel=6 note=36 velocity=112 time=0
EXTRACT: note_on channel=10 note=60 velocity=80 time=0
EXTRACT: note_on channel=10 note=64 velocity=80 time=0
EXTRACT: note_on channel=10 note=67 velocity=80 time=0
EXTRACT: note_on channel=10 note=60 velocity=0 time=0.7114583333333333
EXTRACT: note_on channel=10 note=64 velocity=0 time=0
EXTRACT: note_on channel=10 note=67 velocity=0 time=0
EXTRACT: note_on channel=1 note=64 velocity=0 time=0.0375
EXTRACT: note_on channel=2 note=84 velocity=0 time=0
EXTRACT: note_on channel=3 note=72 velocity=0 time=0
EXTRACT: note_on channel=4 note=52 velocity=0 time=0
EXTRACT: note_on channel=6 note=36 velocity=0 time=0
EXTRACT: note_on channel=1 note=62 velocity=96 time=0.0010416666666666667
EXTRACT: note_on channel=2 note=81 velocity=112 time=0
EXTRACT: note_on channel=3 note=69 velocity=112 time=0
EXTRACT: note_on channel=4 note=50 velocity=96 time=0
EXTRACT: note_on channel=6 note=36 velocity=112 time=0
EXTRACT: note_on channel=10 note=60 velocity=80 time=0
EXTRACT: note_on channel=10 note=64 velocity=80 time=0
EXTRACT: note_on channel=10 note=67 velocity=80 time=0
EXTRACT: note_on channel=1 note=62 velocity=0 time=0.24895833333333334
EXTRACT: note_on channel=4 note=50 velocity=0 time=0
EXTRACT: note_on channel=1 note=60 velocity=96 time=0.0010416666666666667
EXTRACT: note_on channel=4 note=48 velocity=96 time=0
EXTRACT: note_on channel=6 note=36 velocity=0 time=0.24895833333333334
EXTRACT: note_on channel=6 note=36 velocity=112 time=0.0010416666666666667
EXTRACT: note_on channel=10 note=60 velocity=0 time=0.21145833333333333
EXTRACT: note_on channel=10 note=64 velocity=0 time=0
EXTRACT: note_on channel=10 note=67 velocity=0 time=0
EXTRACT: note_on channel=1 note=60 velocity=0 time=0.0375
EXTRACT: note_on channel=2 note=81 velocity=0 time=0
EXTRACT: note_on channel=3 note=69 velocity=0 time=0
EXTRACT: note_on channel=4 note=48 velocity=0 time=0
EXTRACT: note_on channel=6 note=36 velocity=0 time=0
EXTRACT: note_on channel=1 note=67 velocity=96 time=0.0010416666666666667
EXTRACT: note_on channel=4 note=52 velocity=96 time=0
EXTRACT: note_on channel=6 note=36 velocity=112 time=0
EXTRACT: note_on channel=10 note=60 velocity=80 time=0
EXTRACT: note_on channel=10 note=64 velocity=80 time=0
EXTRACT: note_on channel=10 note=67 velocity=80 time=0
EXTRACT: note_on channel=5 note=36 velocity=96 time=0.25
EXTRACT: note_on channel=10 note=36 velocity=80 time=0
EXTRACT: note_on channel=2 note=76 velocity=112 time=0.25
EXTRACT: note_on channel=3 note=64 velocity=112 time=0
EXTRACT: note_on channel=10 note=60 velocity=0 time=0.21145833333333333
EXTRACT: note_on channel=10 note=64 velocity=0 time=0
EXTRACT: note_on channel=10 note=67 velocity=0 time=0
EXTRACT: note_on channel=2 note=76 velocity=0 time=0.0375
EXTRACT: note_on channel=3 note=64 velocity=0 time=0
EXTRACT: note_on channel=6 note=36 velocity=0 time=0
EXTRACT: note_on channel=2 note=79 velocity=112 time=0.0010416666666666667
EXTRACT: note_on channel=3 note=67 velocity=112 time=0
EXTRACT: note_on channel=6 note=36 velocity=112 time=0
EXTRACT: note_on channel=10 note=60 velocity=80 time=0
EXTRACT: note_on channel=10 note=64 velocity=80 time=0
EXTRACT: note_on channel=10 note=67 velocity=80 time=0
EXTRACT: note_on channel=2 note=79 velocity=0 time=0.24895833333333334
EXTRACT: note_on channel=3 note=67 velocity=0 time=0
EXTRACT: note_on channel=2 note=81 velocity=112 time=0.0010416666666666667
EXTRACT: note_on channel=3 note=69 velocity=112 time=0
EXTRACT: note_on channel=2 note=81 velocity=0 time=0.24895833333333334
EXTRACT: note_on channel=3 note=69 velocity=0 time=0
EXTRACT: note_on channel=2 note=84 velocity=112 time=0.0010416666666666667
EXTRACT: note_on channel=3 note=72 velocity=112 time=0
EXTRACT: note_on channel=10 note=36 velocity=0 time=0.18645833333333334
EXTRACT: note_on channel=10 note=60 velocity=0 time=0.025
EXTRACT: note_on channel=10 note=64 velocity=0 time=0
EXTRACT: note_on channel=10 note=67 velocity=0 time=0
EXTRACT: note_on channel=1 note=67 velocity=0 time=0.0375
EXTRACT: note_on channel=2 note=84 velocity=0 time=0
EXTRACT: note_on channel=3 note=72 velocity=0 time=0
EXTRACT: note_on channel=4 note=52 velocity=0 time=0
EXTRACT: note_on channel=5 note=36 velocity=0 time=0
EXTRACT: note_on channel=6 note=36 velocity=0 time=0
EXTRACT: note_on channel=1 note=59 velocity=96 time=0.0010416666666666667
EXTRACT: note_on channel=2 note=83 velocity=112 time=0
EXTRACT: note_on channel=3 note=71 velocity=112 time=0
EXTRACT: note_on channel=4 note=59 velocity=96 time=0
EXTRACT: note_on channel=5 note=40 velocity=96 time=0
EXTRACT: note_on channel=6 note=40 velocity=112 time=0
EXTRACT: note_on channel=10 note=64 velocity=80 time=0
EXTRACT: note_on channel=10 note=67 velocity=80 time=0
EXTRACT: note_on channel=10 note=71 velocity=80 time=0
EXTRACT: note_on channel=10 note=40 velocity=80 time=0
EXTRACT: note_on channel=10 note=64 velocity=0 time=0.7114583333333333
EXTRACT: note_on channel=10 note=67 velocity=0 time=0
EXTRACT: note_on channel=10 note=71 velocity=0 time=0
EXTRACT: note_on channel=10 note=40 velocity=0 time=0
EXTRACT: note_on channel=1 note=59 velocity=0 time=0.0375
EXTRACT: note_on channel=2 note=83 velocity=0 time=0
EXTRACT: note_on channel=3 note=71 velocity=0 time=0
EXTRACT: note_on channel=4 note=59 velocity=0 time=0
EXTRACT: note_on channel=5 note=40 velocity=0 time=0
EXTRACT: note_on channel=6 note=40 velocity=0 time=0
EXTRACT: note_on channel=1 note=59 velocity=96 time=0.0010416666666666667
EXTRACT: note_on channel=2 note=83 velocity=112 time=0
EXTRACT: note_on channel=3 note=71 velocity=112 time=0
EXTRACT: note_on channel=4 note=55 velocity=96 time=0
EXTRACT: note_on channel=5 note=40 velocity=96 time=0
EXTRACT: note_on channel=6 note=40 velocity=112 time=0
EXTRACT: note_on channel=10 note=64 velocity=80 time=0
EXTRACT: note_on channel=10 note=67 velocity=80 time=0
EXTRACT: note_on channel=10 note=71 velocity=80 time=0
EXTRACT: note_on channel=10 note=40 velocity=80 time=0
EXTRACT: note_on channel=2 note=83 velocity=0 time=0.37395833333333334
EXTRACT: note_on channel=3 note=71 velocity=0 time=0
EXTRACT: note_on channel=2 note=81 velocity=112 time=0.0010416666666666667
EXTRACT: note_on channel=3 note=69 velocity=112 time=0
EXTRACT: note_on channel=10 note=64 velocity=0 time=0.09895833333333333
EXTRACT: note_on channel=10 note=67 velocity=0 time=0
EXTRACT: note_on channel=10 note=71 velocity=0 time=0
EXTRACT: note_on channel=2 note=81 velocity=0 time=0.025
EXTRACT: note_on channel=3 note=69 velocity=0 time=0
EXTRACT: note_on channel=6 note=40 velocity=0 time=0
EXTRACT: note_on channel=2 note=79 velocity=112 time=0.0010416666666666667
EXTRACT: note_on channel=3 note=67 velocity=112 time=0
EXTRACT: note_on channel=6 note=40 velocity=112 time=0
EXTRACT: note_on channel=10 note=64 velocity=80 time=0
EXTRACT: note_on channel=10 note=67 velocity=80 time=0
EXTRACT: note_on channel=10 note=71 velocity=80 time=0
EXTRACT: note_on channel=10 note=40 velocity=0 time=0.21145833333333333
EXTRACT: note_on channel=10 note=64 velocity=0 time=0.025
EXTRACT: note_on channel=10 note=67 velocity=0 time=0
EXTRACT: note_on channel=10 note=71 velocity=0 time=0
EXTRACT: note_on channel=1 note=59 velocity=0 time=0.0125
EXTRACT: note_on channel=4 note=55 velocity=0 time=0
EXTRACT: note_on channel=5 note=40 velocity=0 time=0
EXTRACT: note_on channel=6 note=40 velocity=0 time=0
EXTRACT: note_on channel=4 note=55 velocity=96 time=0.0010416666666666667
EXTRACT: note_on channel=5 note=40 velocity=96 time=0
EXTRACT: note_on channel=6 note=40 velocity=112 time=0
EXTRACT: note_on channel=10 note=64 velocity=80 time=0
EXTRACT: note_on channel=10 note=67 velocity=80 time=0
EXTRACT: note_on channel=10 note=71 velocity=80 time=0
EXTRACT: note_on channel=10 note=40 velocity=80 time=0
EXTRACT: note_on channel=10 note=40 velocity=0 time=0.23645833333333333
EXTRACT: note_on channel=5 note=40 velocity=0 time=0.0125
EXTRACT: note_on channel=5 note=41 velocity=96 time=0.0010416666666666667
EXTRACT: note_on channel=10 note=41 velocity=80 time=0
EXTRACT: note_on channel=10 note=41 velocity=0 time=0.23645833333333333
EXTRACT: note_on channel=2 note=79 velocity=0 time=0.0125
EXTRACT: note_on channel=3 note=67 velocity=0 time=0
EXTRACT: note_on channel=5 note=41 velocity=0 time=0
EXTRACT: note_on channel=5 note=43 velocity=96 time=0.0010416666666666667
EXTRACT: note_on channel=10 note=43 velocity=80 time=0
EXTRACT: note_on channel=10 note=64 velocity=0 time=0.21145833333333333
EXTRACT: note_on channel=10 note=67 velocity=0 time=0
EXTRACT: note_on channel=10 note=71 velocity=0 time=0
EXTRACT: note_on channel=10 note=43 velocity=0 time=0.025
EXTRACT: note_on channel=4 note=55 velocity=0 time=0.0125
EXTRACT: note_on channel=5 note=43 velocity=0 time=0
EXTRACT: note_on channel=6 note=40 velocity=0 time=0
EXTRACT: note_on channel=3 note=67 velocity=112 time=0.0010416666666666667
EXTRACT: note_on channel=5 note=43 velocity=96 time=0
EXTRACT: note_on channel=6 note=40 velocity=112 time=0
EXTRACT: note_on channel=10 note=64 velocity=80 time=0
EXTRACT: note_on channel=10 note=67 velocity=80 time=0
EXTRACT: note_on channel=10 note=71 velocity=80 time=0
EXTRACT: note_on channel=10 note=43 velocity=80 time=0
EXTRACT: note_on channel=10 note=43 velocity=0 time=0.23645833333333333
EXTRACT: note_on channel=3 note=67 velocity=0 time=0.0125
EXTRACT: note_on channel=5 note=43 velocity=0 time=0
EXTRACT: note_on channel=3 note=69 velocity=112 time=0.0010416666666666667
EXTRACT: note_on channel=5 note=45 velocity=96 time=0
EXTRACT: note_on channel=10 note=45 velocity=80 time=0
EXTRACT: note_on channel=10 note=45 velocity=0 time=0.23645833333333333
EXTRACT: note_on channel=3 note=69 velocity=0 time=0.0125
EXTRACT: note_on channel=5 note=45 velocity=0 time=0
EXTRACT: note_on channel=3 note=71 velocity=112 time=0.0010416666666666667
EXTRACT: note_on channel=5 note=47 velocity=96 time=0
EXTRACT: note_on channel=10 note=47 velocity=80 time=0
EXTRACT: note_on channel=10 note=64 velocity=0 time=0.21145833333333333
EXTRACT: note_on channel=10 note=67 velocity=0 time=0
EXTRACT: note_on channel=10 note=71 velocity=0 time=0
EXTRACT: note_on channel=10 note=47 velocity=0 time=0.025
EXTRACT: note_on channel=3 note=71 velocity=0 time=0.0125
EXTRACT: note_on channel=5 note=47 velocity=0 time=0
EXTRACT: note_on channel=6 note=40 velocity=0 time=0
EXTRACT: note_on channel=2 note=81 velocity=112 time=0.0010416666666666667
EXTRACT: note_on channel=3 note=69 velocity=112 time=0
EXTRACT: note_on channel=4 note=48 velocity=96 time=0
EXTRACT: note_on channel=5 note=45 velocity=96 time=0
EXTRACT: note_on channel=6 note=33 velocity=112 time=0
EXTRACT: note_on channel=10 note=69 velocity=80 time=0
EXTRACT: note_on channel=10 note=72 velocity=80 time=0
EXTRACT: note_on channel=10 note=76 velocity=80 time=0
EXTRACT: note_on channel=10 note=45 velocity=80 time=0
EXTRACT: note_on channel=10 note=69 velocity=0 time=0.7114583333333333
EXTRACT: note_on channel=10 note=72 velocity=0 time=0
EXTRACT: note_on channel=10 note=76 velocity=0 time=0
EXTRACT: note_on channel=10 note=45 velocity=0 time=0
EXTRACT: note_on channel=2 note=81 velocity=0 time=0.0375
EXTRACT: note_on channel=3 note=69 velocity=0 time=0
EXTRACT: note_on channel=4 note=48 velocity=0 time=0
EXTRACT: note_on channel=5 note=45 velocity=0 time=0
EXTRACT: note_on channel=6 note=33 velocity=0 time=0
EXTRACT: note_on channel=2 note=81 velocity=112 time=0.0010416666666666667
EXTRACT: note_on channel=3 note=69 velocity=112 time=0
EXTRACT: note_on channel=4 note=48 velocity=96 time=0
EXTRACT: note_on channel=5 note=45 velocity=96 time=0
EXTRACT: note_on channel=6 note=33 velocity=112 time=0
EXTRACT: note_on channel=10 note=69 velocity=80 time=0
EXTRACT: note_on channel=10 note=72 velocity=80 time=0
EXTRACT: note_on channel=10 note=76 velocity=80 time=0
EXTRACT: note_on channel=10 note=45 velocity=80 time=0
EXTRACT: note_on channel=6 note=33 velocity=0 time=0.49895833333333334
EXTRACT: note_on channel=6 note=33 velocity=112 time=0.0010416666666666667
EXTRACT: note_on channel=10 note=69 velocity=0 time=0.21145833333333333
EXTRACT: note_on channel=10 note=72 velocity=0 time=0
EXTRACT: note_on channel=10 note=76 velocity=0 time=0
EXTRACT: note_on channel=10 note=45 velocity=0 time=0
EXTRACT: note_on channel=2 note=81 velocity=0 time=0.0375
EXTRACT: note_on channel=3 note=69 velocity=0 time=0
EXTRACT: note_on channel=4 note=48 velocity=0 time=0
EXTRACT: note_on channel=5 note=45 velocity=0 time=0
EXTRACT: note_on channel=6 note=33 velocity=0 time=0
EXTRACT: note_on channel=6 note=33 velocity=112 time=0.0010416666666666667
EXTRACT: note_on channel=10 note=69 velocity=80 time=0
EXTRACT: note_on channel=10 note=72 velocity=80 time=0
EXTRACT: note_on channel=10 note=76 velocity=80 time=0
EXTRACT: note_on channel=2 note=81 velocity=112 time=0.25
EXTRACT: note_on channel=3 note=69 velocity=112 time=0
EXTRACT: note_on channel=10 note=45 velocity=80 time=0
EXTRACT: note_on channel=10 note=45 velocity=0 time=0.23645833333333333
EXTRACT: note_on channel=2 note=81 velocity=0 time=0.0125
EXTRACT: note_on channel=3 note=69 velocity=0 time=0
EXTRACT: note_on channel=2 note=81 velocity=112 time=0.0010416666666666667
EXTRACT: note_on channel=3 note=69 velocity=112 time=0
EXTRACT: note_on channel=10 note=45 velocity=80 time=0
EXTRACT: note_on channel=10 note=69 velocity=0 time=0.21145833333333333
EXTRACT: note_on channel=10 note=72 velocity=0 time=0
EXTRACT: note_on channel=10 note=76 velocity=0 time=0
EXTRACT: note_on channel=10 note=45 velocity=0 time=0.025
EXTRACT: note_on channel=2 note=81 velocity=0 time=0.0125
EXTRACT: note_on channel=3 note=69 velocity=0 time=0
EXTRACT: note_on channel=6 note=33 velocity=0 time=0
EXTRACT: note_on channel=2 note=81 velocity=112 time=0.0010416666666666667
EXTRACT: note_on channel=3 note=69 velocity=112 time=0
EXTRACT: note_on channel=6 note=33 velocity=112 time=0
EXTRACT: note_on channel=10 note=69 velocity=80 time=0
EXTRACT: note_on channel=10 note=72 velocity=80 time=0
EXTRACT: note_on channel=10 note=76 velocity=80 time=0
EXTRACT: note_on channel=10 note=45 velocity=80 time=0
EXTRACT: note_on channel=10 note=45 velocity=0 time=0.23645833333333333
EXTRACT: note_on channel=2 note=81 velocity=0 time=0.0125
EXTRACT: note_on channel=3 note=69 velocity=0 time=0
EXTRACT: note_on channel=2 note=79 velocity=112 time=0.0010416666666666667
EXTRACT: note_on channel=3 note=67 velocity=112 time=0
EXTRACT: note_on channel=10 note=43 velocity=80 time=0
EXTRACT: note_on channel=10 note=43 velocity=0 time=0.23645833333333333
EXTRACT: note_on channel=2 note=79 velocity=0 time=0.0125
EXTRACT: note_on channel=3 note=67 velocity=0 time=0
EXTRACT: note_on channel=2 note=76 velocity=112 time=0.0010416666666666667
EXTRACT: note_on channel=3 note=64 velocity=112 time=0
EXTRACT: note_on channel=10 note=40 velocity=80 time=0
EXTRACT: note_on channel=10 note=69 velocity=0 time=0.21145833333333333
EXTRACT: note_on channel=10 note=72 velocity=0 time=0
EXTRACT: note_on channel=10 note=76 velocity=0 time=0
EXTRACT: note_on channel=10 note=40 velocity=0 time=0.025
EXTRACT: note_on channel=2 note=76 velocity=0 time=0.0125
EXTRACT: note_on channel=3 note=64 velocity=0 time=0
EXTRACT: note_on channel=6 note=33 velocity=0 time=0
EXTRACT: note_on channel=0 note=77 velocity=112 time=0.0010416666666666667
EXTRACT: note_on channel=1 note=65 velocity=112 time=0
EXTRACT: note_on channel=2 note=65 velocity=112 time=0
EXTRACT: note_on channel=3 note=77 velocity=112 time=0
EXTRACT: note_on channel=4 note=62 velocity=96 time=0
EXTRACT: note_on channel=5 note=41 velocity=112 time=0
EXTRACT: note_on channel=6 note=29 velocity=112 time=0
EXTRACT: note_on channel=10 note=65 velocity=80 time=0
EXTRACT: note_on channel=10 note=69 velocity=80 time=0
EXTRACT: note_on channel=10 note=72 velocity=80 time=0
EXTRACT: note_on channel=10 note=41 velocity=80 time=0
EXTRACT: note_on channel=0 note=77 velocity=0 time=0.4739583333333333
EXTRACT: note_on channel=10 note=41 velocity=0 time=0
EXTRACT: note_on channel=1 note=65 velocity=0 time=0.025
EXTRACT: note_on channel=2 note=65 velocity=0 time=0
EXTRACT: note_on channel=3 note=77 velocity=0 time=0
EXTRACT: note_on channel=4 note=62 velocity=0 time=0
EXTRACT: note_on channel=5 note=41 velocity=0 time=0
EXTRACT: note_on channel=0 note=76 velocity=112 time=0.0010416666666666667
EXTRACT: note_on channel=1 note=64 velocity=112 time=0
EXTRACT: note_on channel=2 note=64 velocity=112 time=0
EXTRACT: note_on channel=3 note=76 velocity=112 time=0
EXTRACT: note_on channel=4 note=60 velocity=96 time=0
EXTRACT: note_on channel=5 note=40 velocity=112 time=0
EXTRACT: note_on channel=10 note=40 velocity=80 time=0
EXTRACT: note_on channel=10 note=65 velocity=0 time=0.21145833333333333
EXTRACT: note_on channel=10 note=69 velocity=0 time=0
EXTRACT: note_on channel=10 note=72 velocity=0 time=0
EXTRACT: note_on channel=0 note=76 velocity=0 time=0.025
EXTRACT: note_on channel=10 note=40 velocity=0 time=0
EXTRACT: note_on channel=1 note=64 velocity=0 time=0.0125
EXTRACT: note_on channel=2 note=64 velocity=0 time=0
EXTRACT: note_on channel=3 note=76 velocity=0 time=0
EXTRACT: note_on channel=4 note=60 velocity=0 time=0
EXTRACT: note_on channel=5 note=40 velocity=0 time=0
EXTRACT: note_on channel=6 note=29 velocity=0 time=0
EXTRACT: note_on channel=0 note=77 velocity=112 time=0.0010416666666666667
EXTRACT: note_on channel=1 note=65 velocity=112 time=0
EXTRACT: note_on channel=2 note=65 velocity=112 time=0
EXTRACT: note_on channel=3 note=77 velocity=112 time=0
EXTRACT: note_on channel=4 note=62 velocity=96 time=0
EXTRACT: note_on channel=5 note=41 velocity=112 time=0
EXTRACT: note_on channel=6 note=29 velocity=112 time=0
EXTRACT: note_on channel=10 note=65 velocity=80 time=0
EXTRACT: note_on channel=10 note=69 velocity=80 time=0
EXTRACT: note_on channel=10 note=72 velocity=80 time=0
EXTRACT: note_on channel=10 note=41 velocity=80 time=0
EXTRACT: note_on channel=0 note=77 velocity=0 time=0.4739583333333333
EXTRACT: note_on channel=10 note=41 velocity=0 time=0
EXTRACT: note_on channel=1 note=65 velocity=0 time=0.025
EXTRACT: note_on channel=2 note=65 velocity=0 time=0
EXTRACT: note_on channel=3 note=77 velocity=0 time=0
EXTRACT: note_on channel=4 note=62 velocity=0 time=0
EXTRACT: note_on channel=5 note=41 velocity=0 time=0
EXTRACT: note_on channel=6 note=29 velocity=0 time=0
EXTRACT: note_on channel=0 note=76 velocity=112 time=0.0010416666666666667
EXTRACT: note_on channel=1 note=64 velocity=112 time=0
EXTRACT: note_on channel=2 note=64 velocity=112 time=0
EXTRACT: note_on channel=3 note=76 velocity=112 time=0
EXTRACT: note_on channel=4 note=60 velocity=96 time=0
EXTRACT: note_on channel=5 note=40 velocity=112 time=0
EXTRACT: note_on channel=6 note=29 velocity=112 time=0
EXTRACT: note_on channel=10 note=40 velocity=80 time=0
EXTRACT: note_on channel=10 note=65 velocity=0 time=0.21145833333333333
EXTRACT: note_on channel=10 note=69 velocity=0 time=0
EXTRACT: note_on channel=10 note=72 velocity=0 time=0
EXTRACT: note_on channel=0 note=76 velocity=0 time=0.025
EXTRACT: note_on channel=10 note=40 velocity=0 time=0
EXTRACT: note_on channel=1 note=64 velocity=0 time=0.0125
EXTRACT: note_on channel=2 note=64 velocity=0 time=0
EXTRACT: note_on channel=3 note=76 velocity=0 time=0
EXTRACT: note_on channel=4 note=60 velocity=0 time=0
EXTRACT: note_on channel=5 note=40 velocity=0 time=0
EXTRACT: note_on channel=6 note=29 velocity=0 time=0
EXTRACT: note_on channel=0 note=79 velocity=112 time=0.0010416666666666667
EXTRACT: note_on channel=1 note=67 velocity=112 time=0
EXTRACT: note_on channel=2 note=67 velocity=112 time=0
EXTRACT: note_on channel=3 note=79 velocity=112 time=0
EXTRACT: note_on channel=4 note=64 velocity=96 time=0
EXTRACT: note_on channel=5 note=43 velocity=112 time=0
EXTRACT: note_on channel=6 note=29 velocity=112 time=0
EXTRACT: note_on channel=10 note=65 velocity=80 time=0
EXTRACT: note_on channel=10 note=69 velocity=80 time=0
EXTRACT: note_on channel=10 note=72 velocity=80 time=0
EXTRACT: note_on channel=10 note=43 velocity=80 time=0
EXTRACT: note_on channel=0 note=79 velocity=0 time=0.7114583333333333
EXTRACT: note_on channel=10 note=65 velocity=0 time=0
EXTRACT: note_on channel=10 note=69 velocity=0 time=0
EXTRACT: note_on channel=10 note=72 velocity=0 time=0
EXTRACT: note_on channel=1 note=67 velocity=0 time=0.0375
EXTRACT: note_on channel=3 note=79 velocity=0 time=0
EXTRACT: note_on channel=6 note=29 velocity=0 time=0
EXTRACT: note_on channel=0 note=67 velocity=112 time=0.0010416666666666667
EXTRACT: note_on channel=1 note=67 velocity=112 time=0
EXTRACT: note_on channel=3 note=67 velocity=112 time=0
EXTRACT: note_on channel=6 note=29 velocity=112 time=0
EXTRACT: note_on channel=10 note=65 velocity=80 time=0
EXTRACT: note_on channel=10 note=69 velocity=80 time=0
EXTRACT: note_on channel=10 note=72 velocity=80 time=0
EXTRACT: note_on channel=0 note=67 velocity=0 time=0.23645833333333333
EXTRACT: note_on channel=1 note=67 velocity=0 time=0.0125
EXTRACT: note_on channel=3 note=67 velocity=0 time=0
EXTRACT: note_on channel=0 note=69 velocity=112 time=0.0010416666666666667
EXTRACT: note_on channel=1 note=69 velocity=112 time=0
EXTRACT: note_on channel=3 note=69 velocity=112 time=0
EXTRACT: note_on channel=0 note=69 velocity=0 time=0.23645833333333333
EXTRACT: note_on channel=1 note=69 velocity=0 time=0.0125
EXTRACT: note_on channel=3 note=69 velocity=0 time=0
EXTRACT: note_on channel=0 note=72 velocity=112 time=0.0010416666666666667
EXTRACT: note_on channel=1 note=72 velocity=112 time=0
EXTRACT: note_on channel=3 note=72 velocity=112 time=0
EXTRACT: note_on channel=10 note=43 velocity=0 time=0.17395833333333333
EXTRACT: note_on channel=10 note=65 velocity=0 time=0.0375
EXTRACT: note_on channel=10 note=69 velocity=0 time=0
EXTRACT: note_on channel=10 note=72 velocity=0 time=0
EXTRACT: note_on channel=0 note=72 velocity=0 time=0.025
EXTRACT: note_on channel=1 note=72 velocity=0 time=0.0125
EXTRACT: note_on channel=2 note=67 velocity=0 time=0
EXTRACT: note_on channel=3 note=72 velocity=0 time=0
EXTRACT: note_on channel=4 note=64 velocity=0 time=0
EXTRACT: note_on channel=5 note=43 velocity=0 time=0
EXTRACT: note_on channel=6 note=29 velocity=0 time=0
EXTRACT: note_on channel=0 note=72 velocity=112 time=0.0010416666666666667
EXTRACT: note_on channel=1 note=72 velocity=112 time=0
EXTRACT: note_on channel=3 note=72 velocity=112 time=0
EXTRACT: note_on channel=4 note=52 velocity=80 time=0
EXTRACT: note_on channel=6 note=36 velocity=112 time=0
EXTRACT: note_on channel=10 note=48 velocity=80 time=0
EXTRACT: note_on channel=10 note=52 velocity=80 time=0
EXTRACT: note_on channel=10 note=55 velocity=80 time=0
EXTRACT: note_on channel=0 note=72 velocity=0 time=0.5927083333333333
EXTRACT: note_on channel=1 note=72 velocity=0 time=0.03125
EXTRACT: note_on channel=3 note=72 velocity=0 time=0
EXTRACT: note_on channel=0 note=69 velocity=112 time=0.0010416666666666667
EXTRACT: note_on channel=1 note=69 velocity=112 time=0
EXTRACT: note_on channel=3 note=69 velocity=112 time=0
EXTRACT: note_on channel=10 note=48 velocity=0 time=0.08645833333333333
EXTRACT: note_on channel=10 note=52 velocity=0 time=0
EXTRACT: note_on channel=10 note=55 velocity=0 time=0
EXTRACT: note_on channel=0 note=69 velocity=0 time=0.03125
EXTRACT: note_on channel=1 note=69 velocity=0 time=0.00625
EXTRACT: note_on channel=3 note=69 velocity=0 time=0
EXTRACT: note_on channel=4 note=52 velocity=0 time=0
EXTRACT: note_on channel=6 note=36 velocity=0 time=0
EXTRACT: note_on channel=0 note=67 velocity=112 time=0.0010416666666666667
EXTRACT: note_on channel=1 note=67 velocity=112 time=0
EXTRACT: note_on channel=3 note=67 velocity=112 time=0
EXTRACT: note_on channel=4 note=50 velocity=80 time=0
EXTRACT: note_on channel=6 note=36 velocity=112 time=0
EXTRACT: note_on channel=10 note=48 velocity=80 time=0
EXTRACT: note_on channel=10 note=52 velocity=80 time=0
EXTRACT: note_on channel=10 note=55 velocity=80 time=0
EXTRACT: note_on channel=4 note=50 velocity=0 time=0.24895833333333334
EXTRACT: note_on channel=4 note=48 velocity=80 time=0.0010416666666666667
EXTRACT: note_on channel=6 note=36 velocity=0 time=0.24895833333333334
EXTRACT: note_on channel=6 note=36 velocity=112 time=0.0010416666666666667
EXTRACT: note_on channel=0 note=67 velocity=0 time=0.21145833333333333
EXTRACT: note_on channel=10 note=48 velocity=0 time=0
EXTRACT: note_on channel=10 note=52 velocity=0 time=0
EXTRACT: note_on channel=10 note=55 velocity=0 time=0
EXTRACT: note_on channel=1 note=67 velocity=0 time=0.0375
EXTRACT: note_on channel=3 note=67 velocity=0 time=0
EXTRACT: note_on channel=4 note=48 velocity=0 time=0
EXTRACT: note_on channel=6 note=36 velocity=0 time=0
EXTRACT: note_on channel=4 note=52 velocity=80 time=0.0010416666666666667
EXTRACT: note_on channel=6 note=36 velocity=112 time=0
EXTRACT: note_on channel=10 note=48 velocity=80 time=0
EXTRACT: note_on channel=10 note=52 velocity=80 time=0
EXTRACT: note_on channel=10 note=55 velocity=80 time=0
EXTRACT: note_on channel=0 note=84 velocity=112 time=0.25
EXTRACT: note_on channel=1 note=64 velocity=112 time=0
EXTRACT: note_on channel=2 note=84 velocity=112 time=0
EXTRACT: note_on channel=3 note=64 velocity=112 time=0
EXTRACT: note_on channel=5 note=36 velocity=96 time=0
EXTRACT: note_on channel=0 note=84 velocity=0 time=0.23645833333333333
EXTRACT: note_on channel=1 note=64 velocity=0 time=0.0125
EXTRACT: note_on channel=2 note=84 velocity=0 time=0
EXTRACT: note_on channel=3 note=64 velocity=0 time=0
EXTRACT: note_on channel=0 note=84 velocity=112 time=0.0010416666666666667
EXTRACT: note_on channel=1 note=64 velocity=112 time=0
EXTRACT: note_on channel=2 note=84 velocity=112 time=0
EXTRACT: note_on channel=3 note=64 velocity=112 time=0
EXTRACT: note_on channel=10 note=48 velocity=0 time=0.21145833333333333
EXTRACT: note_on channel=10 note=52 velocity=0 time=0
EXTRACT: note_on channel=10 note=55 velocity=0 time=0
EXTRACT: note_on channel=0 note=84 velocity=0 time=0.025
EXTRACT: note_on channel=1 note=64 velocity=0 time=0.0125
EXTRACT: note_on channel=2 note=84 velocity=0 time=0
EXTRACT: note_on channel=3 note=64 velocity=0 time=0
EXTRACT: note_on channel=6 note=36 velocity=0 time=0
EXTRACT: note_on channel=0 note=84 velocity=112 time=0.0010416666666666667
EXTRACT: note_on channel=1 note=67 velocity=112 time=0
EXTRACT: note_on channel=2 note=84 velocity=112 time=0
EXTRACT: note_on channel=3 note=67 velocity=112 time=0
EXTRACT: note_on channel=6 note=36 velocity=112 time=0
EXTRACT: note_on channel=10 note=48 velocity=80 time=0
EXTRACT: note_on channel=10 note=52 velocity=80 time=0
EXTRACT: note_on channel=10 note=55 velocity=80 time=0
EXTRACT: note_on channel=0 note=84 velocity=0 time=0.23645833333333333
EXTRACT: note_on channel=1 note=67 velocity=0 time=0.0125
EXTRACT: note_on channel=2 note=84 velocity=0 time=0
EXTRACT: note_on channel=3 note=67 velocity=0 time=0
EXTRACT: note_on channel=0 note=84 velocity=112 time=0.0010416666666666667
EXTRACT: note_on channel=1 note=69 velocity=112 time=0
EXTRACT: note_on channel=2 note=84 velocity=112 time=0
EXTRACT: note_on channel=3 note=69 velocity=112 time=0
EXTRACT: note_on channel=0 note=84 velocity=0 time=0.23645833333333333
EXTRACT: note_on channel=1 note=69 velocity=0 time=0.0125
EXTRACT: note_on channel=2 note=84 velocity=0 time=0
EXTRACT: note_on channel=3 note=69 velocity=0 time=0
EXTRACT: note_on channel=0 note=84 velocity=112 time=0.0010416666666666667
EXTRACT: note_on channel=1 note=72 velocity=112 time=0
EXTRACT: note_on channel=2 note=84 velocity=112 time=0
EXTRACT: note_on channel=3 note=72 velocity=112 time=0
EXTRACT: note_on channel=10 note=48 velocity=0 time=0.21145833333333333
EXTRACT: note_on channel=10 note=52 velocity=0 time=0
EXTRACT: note_on channel=10 note=55 velocity=0 time=0
EXTRACT: note_on channel=0 note=84 velocity=0 time=0.025
EXTRACT: note_on channel=1 note=72 velocity=0 time=0.0125
EXTRACT: note_on channel=2 note=84 velocity=0 time=0
EXTRACT: note_on channel=3 note=72 velocity=0 time=0
EXTRACT: note_on channel=4 note=52 velocity=0 time=0
EXTRACT: note_on channel=5 note=36 velocity=0 time=0
EXTRACT: note_on channel=6 note=36 velocity=0 time=0
EXTRACT: note_on channel=0 note=83 velocity=112 time=0.0010416666666666667
EXTRACT: note_on channel=1 note=71 velocity=112 time=0
EXTRACT: note_on channel=2 note=83 velocity=112 time=0
EXTRACT: note_on channel=3 note=71 velocity=112 time=0
EXTRACT: note_on channel=4 note=59 velocity=80 time=0
EXTRACT: note_on channel=5 note=40 velocity=96 time=0
EXTRACT: note_on channel=6 note=40 velocity=112 time=0
EXTRACT: note_on channel=10 note=52 velocity=80 time=0
EXTRACT: note_on channel=10 note=55 velocity=80 time=0
EXTRACT: note_on channel=10 note=59 velocity=80 time=0
EXTRACT: note_on channel=0 note=83 velocity=0 time=0.7114583333333333
EXTRACT: note_on channel=10 note=52 velocity=0 time=0
EXTRACT: note_on channel=10 note=55 velocity=0 time=0
EXTRACT: note_on channel=10 note=59 velocity=0 time=0
EXTRACT: note_on channel=1 note=71 velocity=0 time=0.0375
EXTRACT: note_on channel=2 note=83 velocity=0 time=0
EXTRACT: note_on channel=3 note=71 velocity=0 time=0
EXTRACT: note_on channel=4 note=59 velocity=0 time=0
EXTRACT: note_on channel=5 note=40 velocity=0 time=0
EXTRACT: note_on channel=6 note=40 velocity=0 time=0
EXTRACT: note_on channel=0 note=83 velocity=112 time=0.0010416666666666667
EXTRACT: note_on channel=1 note=71 velocity=112 time=0
EXTRACT: note_on channel=2 note=83 velocity=112 time=0
EXTRACT: note_on channel=3 note=71 velocity=112 time=0
EXTRACT: note_on channel=4 note=55 velocity=80 time=0
EXTRACT: note_on channel=5 note=40 velocity=96 time=0
EXTRACT: note_on channel=6 note=40 velocity=112 time=0
EXTRACT: note_on channel=10 note=52 velocity=80 time=0
EXTRACT: note_on channel=10 note=55 velocity=80 time=0
EXTRACT: note_on channel=10 note=59 velocity=80 time=0
EXTRACT: note_on channel=0 note=83 velocity=0 time=0.11770833333333333
EXTRACT: note_on channel=1 note=71 velocity=0 time=0.00625
EXTRACT: note_on channel=2 note=83 velocity=0 time=0
EXTRACT: note_on channel=3 note=71 velocity=0 time=0
EXTRACT: note_on channel=0 note=81 velocity=112 time=0.0010416666666666667
EXTRACT: note_on channel=1 note=69 velocity=112 time=0
EXTRACT: note_on channel=2 note=81 velocity=112 time=0
EXTRACT: note_on channel=3 note=69 velocity=112 time=0
EXTRACT: note_on channel=0 note=81 velocity=0 time=0.11770833333333333
EXTRACT: note_on channel=1 note=69 velocity=0 time=0.00625
EXTRACT: note_on channel=2 note=81 velocity=0 time=0
EXTRACT: note_on channel=3 note=69 velocity=0 time=0
EXTRACT: note_on channel=0 note=79 velocity=112 time=0.0010416666666666667
EXTRACT: note_on channel=1 note=67 velocity=112 time=0
EXTRACT: note_on channel=2 note=79 velocity=112 time=0
EXTRACT: note_on channel=3 note=67 velocity=112 time=0
EXTRACT: note_on channel=10 note=52 velocity=0 time=0.22395833333333334
EXTRACT: note_on channel=10 note=55 velocity=0 time=0
EXTRACT: note_on channel=10 note=59 velocity=0 time=0
EXTRACT: note_on channel=6 note=40 velocity=0 time=0.025
EXTRACT: note_on channel=6 note=40 velocity=112 time=0.0010416666666666667
EXTRACT: note_on channel=10 note=52 velocity=80 time=0
EXTRACT: note_on channel=10 note=55 velocity=80 time=0
EXTRACT: note_on channel=10 note=59 velocity=80 time=0
EXTRACT: note_on channel=10 note=52 velocity=0 time=0.23645833333333333
EXTRACT: note_on channel=10 note=55 velocity=0 time=0
EXTRACT: note_on channel=10 note=59 velocity=0 time=0
EXTRACT: note_on channel=4 note=55 velocity=0 time=0.0125
EXTRACT: note_on channel=5 note=40 velocity=0 time=0
EXTRACT: note_on channel=6 note=40 velocity=0 time=0
EXTRACT: note_on channel=4 note=55 velocity=80 time=0.0010416666666666667
EXTRACT: note_on channel=5 note=40 velocity=96 time=0
EXTRACT: note_on channel=6 note=40 velocity=112 time=0
EXTRACT: note_on channel=10 note=52 velocity=80 time=0
EXTRACT: note_on channel=10 note=55 velocity=80 time=0
EXTRACT: note_on channel=10 note=59 velocity=80 time=0
EXTRACT: note_on channel=5 note=40 velocity=0 time=0.24895833333333334
EXTRACT: note_on channel=5 note=41 velocity=96 time=0.0010416666666666667
EXTRACT: note_on channel=0 note=79 velocity=0 time=0.19895833333333332
EXTRACT: note_on channel=1 note=67 velocity=0 time=0.05
EXTRACT: note_on channel=2 note=79 velocity=0 time=0
EXTRACT: note_on channel=3 note=67 velocity=0 time=0
EXTRACT: note_on channel=5 note=41 velocity=0 time=0
EXTRACT: note_on channel=5 note=43 velocity=96 time=0.0010416666666666667
EXTRACT: note_on channel=0 note=79 velocity=112 time=0.125
EXTRACT: note_on channel=1 note=67 velocity=112 time=0
EXTRACT: note_on channel=2 note=79 velocity=112 time=0
EXTRACT: note_on channel=3 note=67 velocity=112 time=0
EXTRACT: note_on channel=10 note=52 velocity=0 time=0.08645833333333333
EXTRACT: note_on channel=10 note=55 velocity=0 time=0
EXTRACT: note_on channel=10 note=59 velocity=0 time=0
EXTRACT: note_on channel=0 note=79 velocity=0 time=0.03125
EXTRACT: note_on channel=1 note=67 velocity=0 time=0.00625
EXTRACT: note_on channel=2 note=79 velocity=0 time=0
EXTRACT: note_on channel=3 note=67 velocity=0 time=0
EXTRACT: note_on channel=4 note=55 velocity=0 time=0
EXTRACT: note_on channel=5 note=43 velocity=0 time=0
EXTRACT: note_on channel=6 note=40 velocity=0 time=0
EXTRACT: note_on channel=0 note=79 velocity=112 time=0.0010416666666666667
EXTRACT: note_on channel=1 note=67 velocity=112 time=0
EXTRACT: note_on channel=2 note=79 velocity=112 time=0
EXTRACT: note_on channel=3 note=67 velocity=112 time=0
EXTRACT: note_on channel=5 note=43 velocity=96 time=0
EXTRACT: note_on channel=6 note=40 velocity=112 time=0
EXTRACT: note_on channel=10 note=52 velocity=80 time=0
EXTRACT: note_on channel=10 note=55 velocity=80 time=0
EXTRACT: note_on channel=10 note=59 velocity=80 time=0
EXTRACT: note_on channel=0 note=79 velocity=0 time=0.23645833333333333
EXTRACT: note_on channel=1 note=67 velocity=0 time=0.0125
EXTRACT: note_on channel=2 note=79 velocity=0 time=0
EXTRACT: note_on channel=3 note=67 velocity=0 time=0
EXTRACT: note_on channel=5 note=43 velocity=0 time=0
EXTRACT: note_on channel=0 note=81 velocity=112 time=0.0010416666666666667
EXTRACT: note_on channel=1 note=69 velocity=112 time=0
EXTRACT: note_on channel=2 note=81 velocity=112 time=0
EXTRACT: note_on channel=3 note=69 velocity=112 time=0
EXTRACT: note_on channel=5 note=45 velocity=96 time=0
EXTRACT: note_on channel=0 note=81 velocity=0 time=0.23645833333333333
EXTRACT: note_on channel=1 note=69 velocity=0 time=0.0125
EXTRACT: note_on channel=2 note=81 velocity=0 time=0
EXTRACT: note_on channel=3 note=69 velocity=0 time=0
EXTRACT: note_on channel=5 note=45 velocity=0 time=0
EXTRACT: note_on channel=0 note=83 velocity=112 time=0.0010416666666666667
EXTRACT: note_on channel=1 note=71 velocity=112 time=0
EXTRACT: note_on channel=2 note=83 velocity=112 time=0
EXTRACT: note_on channel=3 note=71 velocity=112 time=0
EXTRACT: note_on channel=5 note=47 velocity=96 time=0
EXTRACT: note_on channel=10 note=52 velocity=0 time=0.21145833333333333
EXTRACT: note_on channel=10 note=55 velocity=0 time=0
EXTRACT: note_on channel=10 note=59 velocity=0 time=0
EXTRACT: note_on channel=0 note=83 velocity=0 time=0.025
EXTRACT: note_on channel=1 note=71 velocity=0 time=0.0125
EXTRACT: note_on channel=2 note=83 velocity=0 time=0
EXTRACT: note_on channel=3 note=71 velocity=0 time=0
EXTRACT: note_on channel=5 note=47 velocity=0 time=0
EXTRACT: note_on channel=6 note=40 velocity=0 time=0
EXTRACT: note_on channel=0 note=81 velocity=112 time=0.0010416666666666667
EXTRACT: note_on channel=1 note=69 velocity=112 time=0
EXTRACT: note_on channel=2 note=81 velocity=112 time=0
EXTRACT: note_on channel=3 note=69 velocity=112 time=0
EXTRACT: note_on channel=4 note=48 velocity=80 time=0
EXTRACT: note_on channel=5 note=45 velocity=96 time=0
EXTRACT: note_on channel=6 note=33 velocity=112 time=0
EXTRACT: note_on channel=10 note=57 velocity=80 time=0
EXTRACT: note_on channel=10 note=60 velocity=80 time=0
EXTRACT: note_on channel=10 note=64 velocity=80 time=0
EXTRACT: note_on channel=0 note=81 velocity=0 time=0.7114583333333333
EXTRACT: note_on channel=10 note=57 velocity=0 time=0
EXTRACT: note_on channel=10 note=60 velocity=0 time=0
EXTRACT: note_on channel=10 note=64 velocity=0 time=0
EXTRACT: note_on channel=1 note=69 velocity=0 time=0.0375
EXTRACT: note_on channel=2 note=81 velocity=0 time=0
EXTRACT: note_on channel=3 note=69 velocity=0 time=0
EXTRACT: note_on channel=4 note=48 velocity=0 time=0
EXTRACT: note_on channel=5 note=45 velocity=0 time=0
EXTRACT: note_on channel=6 note=33 velocity=0 time=0
EXTRACT: note_on channel=0 note=81 velocity=112 time=0.0010416666666666667
EXTRACT: note_on channel=1 note=69 velocity=112 time=0
EXTRACT: note_on channel=2 note=81 velocity=112 time=0
EXTRACT: note_on channel=3 note=69 velocity=112 time=0
EXTRACT: note_on channel=4 note=52 velocity=80 time=0
EXTRACT: note_on channel=5 note=45 velocity=96 time=0
EXTRACT: note_on channel=6 note=33 velocity=112 time=0
EXTRACT: note_on channel=10 note=57 velocity=80 time=0
EXTRACT: note_on channel=10 note=60 velocity=80 time=0
EXTRACT: note_on channel=10 note=64 velocity=80 time=0
EXTRACT: note_on channel=6 note=33 velocity=0 time=0.49895833333333334
EXTRACT: note_on channel=6 note=33 velocity=112 time=0.0010416666666666667
EXTRACT: note_on channel=0 note=81 velocity=0 time=0.21145833333333333
EXTRACT: note_on channel=10 note=57 velocity=0 time=0
EXTRACT: note_on channel=10 note=60 velocity=0 time=0
EXTRACT: note_on channel=10 note=64 velocity=0 time=0
EXTRACT: note_on channel=1 note=69 velocity=0 time=0.0375
EXTRACT: note_on channel=2 note=81 velocity=0 time=0
EXTRACT: note_on channel=3 note=69 velocity=0 time=0
EXTRACT: note_on channel=4 note=52 velocity=0 time=0
EXTRACT: note_on channel=5 note=45 velocity=0 time=0
EXTRACT: note_on channel=6 note=33 velocity=0 time=0
EXTRACT: note_on channel=4 note=60 velocity=80 time=0.0010416666666666667
EXTRACT: note_on channel=5 note=45 velocity=96 time=0
EXTRACT: note_on channel=6 note=33 velocity=112 time=0
EXTRACT: note_on channel=10 note=57 velocity=80 time=0
EXTRACT: note_on channel=10 note=60 velocity=80 time=0
EXTRACT: note_on channel=10 note=64 velocity=80 time=0
EXTRACT: note_on channel=0 note=81 velocity=112 time=0.25
EXTRACT: note_on channel=1 note=81 velocity=112 time=0
EXTRACT: note_on channel=2 note=81 velocity=112 time=0
EXTRACT: note_on channel=3 note=69 velocity=112 time=0
EXTRACT: note_on channel=0 note=81 velocity=0 time=0.23645833333333333
EXTRACT: note_on channel=1 note=81 velocity=0 time=0.0125
EXTRACT: note_on channel=2 note=81 velocity=0 time=0
EXTRACT: note_on channel=3 note=69 velocity=0 time=0
EXTRACT: note_on channel=0 note=81 velocity=112 time=0.0010416666666666667
EXTRACT: note_on channel=1 note=81 velocity=112 time=0
EXTRACT: note_on channel=2 note=81 velocity=112 time=0
EXTRACT: note_on channel=3 note=69 velocity=112 time=0
EXTRACT: note_on channel=10 note=57 velocity=0 time=0.21145833333333333
EXTRACT: note_on channel=10 note=60 velocity=0 time=0
EXTRACT: note_on channel=10 note=64 velocity=0 time=0
EXTRACT: note_on channel=0 note=81 velocity=0 time=0.025
EXTRACT: note_on channel=1 note=81 velocity=0 time=0.0125
EXTRACT: note_on channel=2 note=81 velocity=0 time=0
EXTRACT: note_on channel=3 note=69 velocity=0 time=0
EXTRACT: note_on channel=4 note=60 velocity=0 time=0
EXTRACT: note_on channel=5 note=45 velocity=0 time=0
EXTRACT: note_on channel=6 note=33 velocity=0 time=0
EXTRACT: note_on channel=0 note=81 velocity=112 time=0.0010416666666666667
EXTRACT: note_on channel=1 note=81 velocity=112 time=0
EXTRACT: note_on channel=2 note=81 velocity=112 time=0
EXTRACT: note_on channel=3 note=69 velocity=112 time=0
EXTRACT: note_on channel=4 note=69 velocity=80 time=0
EXTRACT: note_on channel=5 note=52 velocity=96 time=0
EXTRACT: note_on channel=6 note=33 velocity=112 time=0
EXTRACT: note_on channel=10 note=57 velocity=80 time=0
EXTRACT: note_on channel=10 note=60 velocity=80 time=0
EXTRACT: note_on channel=10 note=64 velocity=80 time=0
EXTRACT: note_on channel=0 note=81 velocity=0 time=0.23645833333333333
EXTRACT: note_on channel=1 note=81 velocity=0 time=0.0125
EXTRACT: note_on channel=2 note=81 velocity=0 time=0
EXTRACT: note_on channel=3 note=69 velocity=0 time=0
EXTRACT: note_on channel=0 note=79 velocity=112 time=0.0010416666666666667
EXTRACT: note_on channel=1 note=79 velocity=112 time=0
EXTRACT: note_on channel=2 note=79 velocity=112 time=0
EXTRACT: note_on channel=3 note=67 velocity=112 time=0
EXTRACT: note_on channel=0 note=79 velocity=0 time=0.23645833333333333
EXTRACT: note_on channel=1 note=79 velocity=0 time=0.0125
EXTRACT: note_on channel=2 note=79 velocity=0 time=0
EXTRACT: note_on channel=3 note=67 velocity=0 time=0
EXTRACT: note_on channel=0 note=76 velocity=112 time=0.0010416666666666667
EXTRACT: note_on channel=1 note=76 velocity=112 time=0
EXTRACT: note_on channel=2 note=76 velocity=112 time=0
EXTRACT: note_on channel=3 note=64 velocity=112 time=0
EXTRACT: note_on channel=10 note=57 velocity=0 time=0.21145833333333333
EXTRACT: note_on channel=10 note=60 velocity=0 time=0
EXTRACT: note_on channel=10 note=64 velocity=0 time=0
EXTRACT: note_on channel=0 note=76 velocity=0 time=0.025
EXTRACT: note_on channel=1 note=76 velocity=0 time=0.0125
EXTRACT: note_on channel=2 note=76 velocity=0 time=0
EXTRACT: note_on channel=3 note=64 velocity=0 time=0
EXTRACT: note_on channel=4 note=69 velocity=0 time=0
EXTRACT: note_on channel=5 note=52 velocity=0 time=0
EXTRACT: note_on channel=6 note=33 velocity=0 time=0
EXTRACT: note_on channel=0 note=89 velocity=112 time=0.0010416666666666667
EXTRACT: note_on channel=1 note=77 velocity=96 time=0
EXTRACT: note_on channel=2 note=77 velocity=96 time=0
EXTRACT: note_on channel=3 note=62 velocity=96 time=0
EXTRACT: note_on channel=4 note=50 velocity=96 time=0
EXTRACT: note_on channel=5 note=53 velocity=112 time=0
EXTRACT: note_on channel=6 note=29 velocity=112 time=0
EXTRACT: note_on channel=10 note=77 velocity=80 time=0
EXTRACT: note_on channel=10 note=53 velocity=80 time=0
EXTRACT: note_on channel=10 note=57 velocity=80 time=0
EXTRACT: note_on channel=10 note=60 velocity=80 time=0
EXTRACT: note_on channel=0 note=89 velocity=0 time=0.4739583333333333
EXTRACT: note_on channel=10 note=77 velocity=0 time=0
EXTRACT: note_on channel=1 note=77 velocity=0 time=0.025
EXTRACT: note_on channel=2 note=77 velocity=0 time=0
EXTRACT: note_on channel=3 note=62 velocity=0 time=0
EXTRACT: note_on channel=4 note=50 velocity=0 time=0
EXTRACT: note_on channel=5 note=53 velocity=0 time=0
EXTRACT: note_on channel=0 note=88 velocity=112 time=0.0010416666666666667
EXTRACT: note_on channel=1 note=76 velocity=96 time=0
EXTRACT: note_on channel=2 note=76 velocity=96 time=0
EXTRACT: note_on channel=3 note=60 velocity=96 time=0
EXTRACT: note_on channel=4 note=48 velocity=96 time=0
EXTRACT: note_on channel=5 note=52 velocity=112 time=0
EXTRACT: note_on channel=10 note=76 velocity=80 time=0
EXTRACT: note_on channel=10 note=53 velocity=0 time=0.21145833333333333
EXTRACT: note_on channel=10 note=57 velocity=0 time=0
EXTRACT: note_on channel=10 note=60 velocity=0 time=0
EXTRACT: note_on channel=0 note=88 velocity=0 time=0.025
EXTRACT: note_on channel=10 note=76 velocity=0 time=0
EXTRACT: note_on channel=1 note=76 velocity=0 time=0.0125
EXTRACT: note_on channel=2 note=76 velocity=0 time=0
EXTRACT: note_on channel=3 note=60 velocity=0 time=0
EXTRACT: note_on channel=4 note=48 velocity=0 time=0
EXTRACT: note_on channel=5 note=52 velocity=0 time=0
EXTRACT: note_on channel=6 note=29 velocity=0 time=0
EXTRACT: note_on channel=0 note=89 velocity=112 time=0.0010416666666666667
EXTRACT: note_on channel=1 note=77 velocity=96 time=0
EXTRACT: note_on channel=2 note=77 velocity=96 time=0
EXTRACT: note_on channel=3 note=62 velocity=96 time=0
EXTRACT: note_on channel=4 note=50 velocity=96 time=0
EXTRACT: note_on channel=5 note=53 velocity=112 time=0
EXTRACT: note_on channel=6 note=29 velocity=112 time=0
EXTRACT: note_on channel=10 note=77 velocity=80 time=0
EXTRACT: note_on channel=10 note=53 velocity=80 time=0
EXTRACT: note_on channel=10 note=57 velocity=80 time=0
EXTRACT: note_on channel=10 note=60 velocity=80 time=0
EXTRACT: note_on channel=0 note=89 velocity=0 time=0.4739583333333333
EXTRACT: note_on channel=10 note=77 velocity=0 time=0
EXTRACT: note_on channel=1 note=77 velocity=0 time=0.025
EXTRACT: note_on channel=2 note=77 velocity=0 time=0
EXTRACT: note_on channel=3 note=62 velocity=0 time=0
EXTRACT: note_on channel=4 note=50 velocity=0 time=0
EXTRACT: note_on channel=5 note=53 velocity=0 time=0
EXTRACT: note_on channel=6 note=29 velocity=0 time=0
EXTRACT: note_on channel=0 note=88 velocity=112 time=0.0010416666666666667
EXTRACT: note_on channel=1 note=76 velocity=96 time=0
EXTRACT: note_on channel=2 note=76 velocity=96 time=0
EXTRACT: note_on channel=3 note=60 velocity=96 time=0
EXTRACT: note_on channel=4 note=48 velocity=96 time=0
EXTRACT: note_on channel=5 note=52 velocity=112 time=0
EXTRACT: note_on channel=6 note=29 velocity=112 time=0
EXTRACT: note_on channel=10 note=76 velocity=80 time=0
EXTRACT: note_on channel=10 note=53 velocity=0 time=0.21145833333333333
EXTRACT: note_on channel=10 note=57 velocity=0 time=0
EXTRACT: note_on channel=10 note=60 velocity=0 time=0
EXTRACT: note_on channel=0 note=88 velocity=0 time=0.025
EXTRACT: note_on channel=10 note=76 velocity=0 time=0
EXTRACT: note_on channel=1 note=76 velocity=0 time=0.0125
EXTRACT: note_on channel=2 note=76 velocity=0 time=0
EXTRACT: note_on channel=3 note=60 velocity=0 time=0
EXTRACT: note_on channel=4 note=48 velocity=0 time=0
EXTRACT: note_on channel=5 note=52 velocity=0 time=0
EXTRACT: note_on channel=6 note=29 velocity=0 time=0
EXTRACT: note_on channel=0 note=91 velocity=112 time=0.0010416666666666667
EXTRACT: note_on channel=1 note=79 velocity=96 time=0
EXTRACT: note_on channel=2 note=79 velocity=96 time=0
EXTRACT: note_on channel=3 note=64 velocity=96 time=0
EXTRACT: note_on channel=4 note=55 velocity=96 time=0
EXTRACT: note_on channel=5 note=55 velocity=112 time=0
EXTRACT: note_on channel=6 note=29 velocity=112 time=0
EXTRACT: note_on channel=10 note=79 velocity=80 time=0
EXTRACT: note_on channel=10 note=53 velocity=80 time=0
EXTRACT: note_on channel=10 note=57 velocity=80 time=0
EXTRACT: note_on channel=10 note=60 velocity=80 time=0
EXTRACT: note_on channel=3 note=64 velocity=0 time=0.49895833333333334
EXTRACT: note_on channel=4 note=55 velocity=0 time=0
EXTRACT: note_on channel=3 note=67 velocity=96 time=0.0010416666666666667
EXTRACT: note_on channel=4 note=55 velocity=96 time=0
EXTRACT: note_on channel=10 note=53 velocity=0 time=0.21145833333333333
EXTRACT: note_on channel=10 note=57 velocity=0 time=0
EXTRACT: note_on channel=10 note=60 velocity=0 time=0
EXTRACT: note_on channel=1 note=79 velocity=0 time=0.0375
EXTRACT: note_on channel=3 note=67 velocity=0 time=0
EXTRACT: note_on channel=4 note=55 velocity=0 time=0
EXTRACT: note_on channel=6 note=29 velocity=0 time=0
EXTRACT: note_on channel=1 note=64 velocity=96 time=0.0010416666666666667
EXTRACT: note_on channel=3 note=64 velocity=100 time=0
EXTRACT: note_on channel=4 note=52 velocity=100 time=0
EXTRACT: note_on channel=6 note=29 velocity=112 time=0
EXTRACT: note_on channel=10 note=53 velocity=80 time=0
EXTRACT: note_on channel=10 note=57 velocity=80 time=0
EXTRACT: note_on channel=10 note=60 velocity=80 time=0
EXTRACT: note_on channel=1 note=64 velocity=0 time=0.24895833333333334
EXTRACT: note_on channel=3 note=64 velocity=0 time=0
EXTRACT: note_on channel=4 note=52 velocity=0 time=0
EXTRACT: note_on channel=1 note=62 velocity=96 time=0.0010416666666666667
EXTRACT: note_on channel=3 note=62 velocity=104 time=0
EXTRACT: note_on channel=4 note=50 velocity=104 time=0
EXTRACT: note_on channel=1 note=62 velocity=0 time=0.24895833333333334
EXTRACT: note_on channel=3 note=62 velocity=0 time=0
EXTRACT: note_on channel=4 note=50 velocity=0 time=0
EXTRACT: note_on channel=1 note=60 velocity=96 time=0.0010416666666666667
EXTRACT: note_on channel=3 note=60 velocity=108 time=0
EXTRACT: note_on channel=4 note=48 velocity=108 time=0
EXTRACT: note_on channel=0 note=91 velocity=0 time=0.17395833333333333
EXTRACT: note_on channel=10 note=79 velocity=0 time=0
EXTRACT: note_on channel=10 note=53 velocity=0 time=0.0375
EXTRACT: note_on channel=10 note=57 velocity=0 time=0
EXTRACT: note_on channel=10 note=60 velocity=0 time=0
EXTRACT: note_on channel=1 note=60 velocity=0 time=0.0375
EXTRACT: note_on channel=2 note=79 velocity=0 time=0
EXTRACT: note_on channel=3 note=60 velocity=0 time=0
EXTRACT: note_on channel=4 note=48 velocity=0 time=0
EXTRACT: note_on channel=5 note=55 velocity=0 time=0
EXTRACT: note_on channel=6 note=29 velocity=0 time=0
EXTRACT: note_on channel=1 note=62 velocity=112 time=0.0010416666666666667
EXTRACT: note_on channel=2 note=67 velocity=96 time=0
EXTRACT: note_on channel=3 note=62 velocity=112 time=0
EXTRACT: note_on channel=4 note=50 velocity=112 time=0
EXTRACT: note_on channel=5 note=55 velocity=80 time=0
EXTRACT: note_on channel=6 note=36 velocity=112 time=0
EXTRACT: note_on channel=10 note=48 velocity=80 time=0
EXTRACT: note_on channel=10 note=52 velocity=80 time=0
EXTRACT: note_on channel=10 note=55 velocity=80 time=0
EXTRACT: note_on channel=1 note=62 velocity=0 time=0.24895833333333334
EXTRACT: note_on channel=3 note=62 velocity=0 time=0
EXTRACT: note_on channel=4 note=50 velocity=0 time=0
EXTRACT: note_on channel=1 note=64 velocity=112 time=0.0010416666666666667
EXTRACT: note_on channel=3 note=64 velocity=112 time=0
EXTRACT: note_on channel=4 note=52 velocity=112 time=0
EXTRACT: note_on channel=1 note=64 velocity=0 time=0.49895833333333334
EXTRACT: note_on channel=2 note=67 velocity=0 time=0
EXTRACT: note_on channel=3 note=64 velocity=0 time=0
EXTRACT: note_on channel=4 note=52 velocity=0 time=0
EXTRACT: note_on channel=5 note=55 velocity=0 time=0
EXTRACT: note_on channel=6 note=36 velocity=0 time=0
EXTRACT: note_on channel=1 note=64 velocity=112 time=0.0010416666666666667
EXTRACT: note_on channel=2 note=67 velocity=96 time=0
EXTRACT: note_on channel=3 note=64 velocity=112 time=0
EXTRACT: note_on channel=4 note=52 velocity=112 time=0
EXTRACT: note_on channel=5 note=55 velocity=80 time=0
EXTRACT: note_on channel=6 note=36 velocity=112 time=0
EXTRACT: note_on channel=6 note=36 velocity=0 time=0.49895833333333334
EXTRACT: note_on channel=6 note=36 velocity=112 time=0.0010416666666666667
EXTRACT: note_on channel=10 note=48 velocity=0 time=0.17395833333333333
EXTRACT: note_on channel=10 note=52 velocity=0 time=0
EXTRACT: note_on channel=10 note=55 velocity=0 time=0
EXTRACT: note_on channel=1 note=64 velocity=0 time=0.075
EXTRACT: note_on channel=2 note=67 velocity=0 time=0
EXTRACT: note_on channel=3 note=64 velocity=0 time=0
EXTRACT: note_on channel=4 note=52 velocity=0 time=0
EXTRACT: note_on channel=5 note=55 velocity=0 time=0
EXTRACT: note_on channel=6 note=36 velocity=0 time=0
EXTRACT: note_on channel=2 note=67 velocity=96 time=0.0010416666666666667
EXTRACT: note_on channel=5 note=55 velocity=80 time=0
EXTRACT: note_on channel=6 note=36 velocity=112 time=0
EXTRACT: note_on channel=10 note=48 velocity=80 time=0
EXTRACT: note_on channel=10 note=52 velocity=80 time=0
EXTRACT: note_on channel=10 note=55 velocity=80 time=0
EXTRACT: note_on channel=1 note=57 velocity=112 time=0.5
EXTRACT: note_on channel=3 note=57 velocity=112 time=0
EXTRACT: note_on channel=4 note=45 velocity=112 time=0
EXTRACT: note_on channel=10 note=48 velocity=0 time=0.21145833333333333
EXTRACT: note_on channel=10 note=52 velocity=0 time=0
EXTRACT: note_on channel=10 note=55 velocity=0 time=0
EXTRACT: note_on channel=1 note=57 velocity=0 time=0.0375
EXTRACT: note_on channel=2 note=67 velocity=0 time=0
EXTRACT: note_on channel=3 note=57 velocity=0 time=0
EXTRACT: note_on channel=4 note=45 velocity=0 time=0
EXTRACT: note_on channel=5 note=55 velocity=0 time=0
EXTRACT: note_on channel=6 note=36 velocity=0 time=0
EXTRACT: note_on channel=1 note=60 velocity=112 time=0.0010416666666666667
EXTRACT: note_on channel=2 note=72 velocity=96 time=0
EXTRACT: note_on channel=3 note=60 velocity=112 time=0
EXTRACT: note_on channel=4 note=48 velocity=112 time=0
EXTRACT: note_on channel=5 note=60 velocity=80 time=0
EXTRACT: note_on channel=6 note=36 velocity=112 time=0
EXTRACT: note_on channel=10 note=48 velocity=80 time=0
EXTRACT: note_on channel=10 note=52 velocity=80 time=0
EXTRACT: note_on channel=10 note=55 velocity=80 time=0
EXTRACT: note_on channel=1 note=60 velocity=0 time=0.24895833333333334
EXTRACT: note_on channel=3 note=60 velocity=0 time=0
EXTRACT: note_on channel=4 note=48 velocity=0 time=0
EXTRACT: note_on channel=1 note=62 velocity=112 time=0.0010416666666666667
EXTRACT: note_on channel=3 note=62 velocity=112 time=0
EXTRACT: note_on channel=4 note=50 velocity=112 time=0
EXTRACT: note_on channel=1 note=62 velocity=0 time=0.24895833333333334
EXTRACT: note_on channel=3 note=62 velocity=0 time=0
EXTRACT: note_on channel=4 note=50 velocity=0 time=0
EXTRACT: note_on channel=1 note=64 velocity=112 time=0.0010416666666666667
EXTRACT: note_on channel=3 note=64 velocity=112 time=0
EXTRACT: note_on channel=4 note=52 velocity=112 time=0
EXTRACT: note_on channel=10 note=48 velocity=0 time=0.21145833333333333
EXTRACT: note_on channel=10 note=52 velocity=0 time=0
EXTRACT: note_on channel=10 note=55 velocity=0 time=0
EXTRACT: note_on channel=1 note=64 velocity=0 time=0.0375
EXTRACT: note_on channel=2 note=72 velocity=0 time=0
EXTRACT: note_on channel=3 note=64 velocity=0 time=0
EXTRACT: note_on channel=4 note=52 velocity=0 time=0
EXTRACT: note_on channel=5 note=60 velocity=0 time=0
EXTRACT: note_on channel=6 note=36 velocity=0 time=0
EXTRACT: note_on channel=1 note=62 velocity=112 time=0.0010416666666666667
EXTRACT: note_on channel=2 note=71 velocity=96 time=0
EXTRACT: note_on channel=3 note=62 velocity=112 time=0
EXTRACT: note_on channel=4 note=50 velocity=112 time=0
EXTRACT: note_on channel=5 note=59 velocity=80 time=0
EXTRACT: note_on channel=6 note=40 velocity=112 time=0
EXTRACT: note_on channel=10 note=52 velocity=80 time=0
EXTRACT: note_on channel=10 note=55 velocity=80 time=0
EXTRACT: note_on channel=10 note=59 velocity=80 time=0
EXTRACT: note_on channel=10 note=52 velocity=0 time=0.7114583333333333
EXTRACT: note_on channel=10 note=55 velocity=0 time=0
EXTRACT: note_on channel=10 note=59 velocity=0 time=0
EXTRACT: note_on channel=1 note=62 velocity=0 time=0.0375
EXTRACT: note_on channel=2 note=71 velocity=0 time=0
EXTRACT: note_on channel=3 note=62 velocity=0 time=0
EXTRACT: note_on channel=4 note=50 velocity=0 time=0
EXTRACT: note_on channel=5 note=59 velocity=0 time=0
EXTRACT: note_on channel=6 note=40 velocity=0 time=0
EXTRACT: note_on channel=1 note=62 velocity=112 time=0.0010416666666666667
EXTRACT: note_on channel=3 note=62 velocity=112 time=0
EXTRACT: note_on channel=4 note=50 velocity=112 time=0
EXTRACT: note_on channel=6 note=40 velocity=112 time=0
EXTRACT: note_on channel=10 note=52 velocity=80 time=0
EXTRACT: note_on channel=10 note=55 velocity=80 time=0
EXTRACT: note_on channel=10 note=59 velocity=80 time=0
EXTRACT: note_on channel=2 note=71 velocity=96 time=0.25
EXTRACT: note_on channel=5 note=59 velocity=80 time=0
EXTRACT: note_on channel=10 note=52 velocity=0 time=0.22395833333333334
EXTRACT: note_on channel=10 note=55 velocity=0 time=0
EXTRACT: note_on channel=10 note=59 velocity=0 time=0
EXTRACT: note_on channel=2 note=71 velocity=0 time=0.025
EXTRACT: note_on channel=5 note=59 velocity=0 time=0
EXTRACT: note_on channel=6 note=40 velocity=0 time=0
EXTRACT: note_on channel=2 note=69 velocity=96 time=0.0010416666666666667
EXTRACT: note_on channel=5 note=57 velocity=80 time=0
EXTRACT: note_on channel=6 note=40 velocity=112 time=0
EXTRACT: note_on channel=10 note=52 velocity=80 time=0
EXTRACT: note_on channel=10 note=55 velocity=80 time=0
EXTRACT: note_on channel=10 note=59 velocity=80 time=0
EXTRACT: note_on channel=10 note=52 velocity=0 time=0.23645833333333333
EXTRACT: note_on channel=10 note=55 velocity=0 time=0
EXTRACT: note_on channel=10 note=59 velocity=0 time=0
EXTRACT: note_on channel=1 note=62 velocity=0 time=0.0125
EXTRACT: note_on channel=2 note=69 velocity=0 time=0
EXTRACT: note_on channel=3 note=62 velocity=0 time=0
EXTRACT: note_on channel=4 note=50 velocity=0 time=0
EXTRACT: note_on channel=5 note=57 velocity=0 time=0
EXTRACT: note_on channel=6 note=40 velocity=0 time=0
EXTRACT: note_on channel=2 note=67 velocity=96 time=0.0010416666666666667
EXTRACT: note_on channel=5 note=55 velocity=80 time=0
EXTRACT: note_on channel=6 note=40 velocity=112 time=0
EXTRACT: note_on channel=10 note=52 velocity=80 time=0
EXTRACT: note_on channel=10 note=55 velocity=80 time=0
EXTRACT: note_on channel=10 note=59 velocity=80 time=0
EXTRACT: note_on channel=10 note=52 velocity=0 time=0.7114583333333333
EXTRACT: note_on channel=10 note=55 velocity=0 time=0
EXTRACT: note_on channel=10 note=59 velocity=0 time=0
EXTRACT: note_on channel=2 note=67 velocity=0 time=0.0375
EXTRACT: note_on channel=5 note=55 velocity=0 time=0
EXTRACT: note_on channel=6 note=40 velocity=0 time=0
EXTRACT: note_on channel=1 note=64 velocity=112 time=0.0010416666666666667
EXTRACT: note_on channel=2 note=67 velocity=96 time=0
EXTRACT: note_on channel=3 note=64 velocity=112 time=0
EXTRACT: note_on channel=4 note=52 velocity=112 time=0
EXTRACT: note_on channel=5 note=55 velocity=80 time=0
EXTRACT: note_on channel=6 note=40 velocity=112 time=0
EXTRACT: note_on channel=10 note=52 velocity=80 time=0
EXTRACT: note_on channel=10 note=55 velocity=80 time=0
EXTRACT: note_on channel=10 note=59 velocity=80 time=0
EXTRACT: note_on channel=1 note=64 velocity=0 time=0.24895833333333334
EXTRACT: note_on channel=3 note=64 velocity=0 time=0
EXTRACT: note_on channel=4 note=52 velocity=0 time=0
EXTRACT: note_on channel=1 note=62 velocity=112 time=0.0010416666666666667
EXTRACT: note_on channel=3 note=62 velocity=112 time=0
EXTRACT: note_on channel=4 note=50 velocity=112 time=0
EXTRACT: note_on channel=1 note=62 velocity=0 time=0.24895833333333334
EXTRACT: note_on channel=3 note=62 velocity=0 time=0
EXTRACT: note_on channel=4 note=50 velocity=0 time=0
EXTRACT: note_on channel=1 note=60 velocity=112 time=0.0010416666666666667
EXTRACT: note_on channel=3 note=60 velocity=112 time=0
EXTRACT: note_on channel=4 note=48 velocity=112 time=0
EXTRACT: note_on channel=10 note=52 velocity=0 time=0.21145833333333333
EXTRACT: note_on channel=10 note=55 velocity=0 time=0
EXTRACT: note_on channel=10 note=59 velocity=0 time=0
EXTRACT: note_on channel=1 note=60 velocity=0 time=0.0375
EXTRACT: note_on channel=2 note=67 velocity=0 time=0
EXTRACT: note_on channel=3 note=60 velocity=0 time=0
EXTRACT: note_on channel=4 note=48 velocity=0 time=0
EXTRACT: note_on channel=5 note=55 velocity=0 time=0
EXTRACT: note_on channel=6 note=40 velocity=0 time=0
EXTRACT: note_on channel=1 note=62 velocity=112 time=0.0010416666666666667
EXTRACT: note_on channel=2 note=69 velocity=96 time=0
EXTRACT: note_on channel=3 note=62 velocity=112 time=0
EXTRACT: note_on channel=4 note=50 velocity=112 time=0
EXTRACT: note_on channel=5 note=57 velocity=80 time=0
EXTRACT: note_on channel=6 note=33 velocity=112 time=0
EXTRACT: note_on channel=10 note=57 velocity=80 time=0
EXTRACT: note_on channel=10 note=60 velocity=80 time=0
EXTRACT: note_on channel=10 note=64 velocity=80 time=0
EXTRACT: note_on channel=1 note=62 velocity=0 time=0.24895833333333334
EXTRACT: note_on channel=3 note=62 velocity=0 time=0
EXTRACT: note_on channel=4 note=50 velocity=0 time=0
EXTRACT: note_on channel=1 note=64 velocity=112 time=0.0010416666666666667
EXTRACT: note_on channel=3 note=64 velocity=112 time=0
EXTRACT: note_on channel=4 note=52 velocity=112 time=0
EXTRACT: note_on channel=1 note=64 velocity=0 time=0.49895833333333334
EXTRACT: note_on channel=2 note=69 velocity=0 time=0
EXTRACT: note_on channel=3 note=64 velocity=0 time=0
EXTRACT: note_on channel=4 note=52 velocity=0 time=0
EXTRACT: note_on channel=5 note=57 velocity=0 time=0
EXTRACT: note_on channel=6 note=33 velocity=0 time=0
EXTRACT: note_on channel=1 note=64 velocity=112 time=0.0010416666666666667
EXTRACT: note_on channel=2 note=69 velocity=96 time=0
EXTRACT: note_on channel=3 note=64 velocity=112 time=0
EXTRACT: note_on channel=4 note=52 velocity=112 time=0
EXTRACT: note_on channel=5 note=57 velocity=80 time=0
EXTRACT: note_on channel=6 note=33 velocity=112 time=0
EXTRACT: note_on channel=6 note=33 velocity=0 time=0.49895833333333334
EXTRACT: note_on channel=6 note=33 velocity=112 time=0.0010416666666666667
EXTRACT: note_on channel=10 note=57 velocity=0 time=0.17395833333333333
EXTRACT: note_on channel=10 note=60 velocity=0 time=0
EXTRACT: note_on channel=10 note=64 velocity=0 time=0
EXTRACT: note_on channel=1 note=64 velocity=0 time=0.075
EXTRACT: note_on channel=2 note=69 velocity=0 time=0
EXTRACT: note_on channel=3 note=64 velocity=0 time=0
EXTRACT: note_on channel=4 note=52 velocity=0 time=0
EXTRACT: note_on channel=5 note=57 velocity=0 time=0
EXTRACT: note_on channel=6 note=33 velocity=0 time=0
EXTRACT: note_on channel=2 note=69 velocity=96 time=0.0010416666666666667
EXTRACT: note_on channel=5 note=57 velocity=80 time=0
EXTRACT: note_on channel=6 note=33 velocity=112 time=0
EXTRACT: note_on channel=10 note=57 velocity=80 time=0
EXTRACT: note_on channel=10 note=60 velocity=80 time=0
EXTRACT: note_on channel=10 note=64 velocity=80 time=0
EXTRACT: note_on channel=1 note=60 velocity=112 time=0.5
EXTRACT: note_on channel=3 note=60 velocity=112 time=0
EXTRACT: note_on channel=4 note=48 velocity=112 time=0
EXTRACT: note_on channel=10 note=57 velocity=0 time=0.21145833333333333
EXTRACT: note_on channel=10 note=60 velocity=0 time=0
EXTRACT: note_on channel=10 note=64 velocity=0 time=0
EXTRACT: note_on channel=1 note=60 velocity=0 time=0.0375
EXTRACT: note_on channel=2 note=69 velocity=0 time=0
EXTRACT: note_on channel=3 note=60 velocity=0 time=0
EXTRACT: note_on channel=4 note=48 velocity=0 time=0
EXTRACT: note_on channel=5 note=57 velocity=0 time=0
EXTRACT: note_on channel=6 note=33 velocity=0 time=0
EXTRACT: note_on channel=1 note=60 velocity=112 time=0.0010416666666666667
EXTRACT: note_on channel=2 note=67 velocity=96 time=0
EXTRACT: note_on channel=3 note=60 velocity=112 time=0
EXTRACT: note_on channel=4 note=48 velocity=112 time=0
EXTRACT: note_on channel=5 note=55 velocity=80 time=0
EXTRACT: note_on channel=6 note=33 velocity=112 time=0
EXTRACT: note_on channel=10 note=57 velocity=80 time=0
EXTRACT: note_on channel=10 note=60 velocity=80 time=0
EXTRACT: note_on channel=10 note=64 velocity=80 time=0
EXTRACT: note_on channel=1 note=60 velocity=0 time=0.24895833333333334
EXTRACT: note_on channel=3 note=60 velocity=0 time=0
EXTRACT: note_on channel=4 note=48 velocity=0 time=0
EXTRACT: note_on channel=1 note=62 velocity=112 time=0.0010416666666666667
EXTRACT: note_on channel=3 note=62 velocity=112 time=0
EXTRACT: note_on channel=4 note=50 velocity=112 time=0
EXTRACT: note_on channel=1 note=62 velocity=0 time=0.24895833333333334
EXTRACT: note_on channel=3 note=62 velocity=0 time=0
EXTRACT: note_on channel=4 note=50 velocity=0 time=0
EXTRACT: note_on channel=1 note=62 velocity=112 time=0.0010416666666666667
EXTRACT: note_on channel=3 note=62 velocity=112 time=0
EXTRACT: note_on channel=4 note=50 velocity=112 time=0
EXTRACT: note_on channel=10 note=57 velocity=0 time=0.21145833333333333
EXTRACT: note_on channel=10 note=60 velocity=0 time=0
EXTRACT: note_on channel=10 note=64 velocity=0 time=0
EXTRACT: note_on channel=1 note=62 velocity=0 time=0.0375
EXTRACT: note_on channel=2 note=67 velocity=0 time=0
EXTRACT: note_on channel=3 note=62 velocity=0 time=0
EXTRACT: note_on channel=4 note=50 velocity=0 time=0
EXTRACT: note_on channel=5 note=55 velocity=0 time=0
EXTRACT: note_on channel=6 note=33 velocity=0 time=0
EXTRACT: note_on channel=1 note=65 velocity=112 time=0.0010416666666666667
EXTRACT: note_on channel=2 note=72 velocity=96 time=0
EXTRACT: note_on channel=3 note=65 velocity=112 time=0
EXTRACT: note_on channel=4 note=53 velocity=112 time=0
EXTRACT: note_on channel=5 note=60 velocity=80 time=0
EXTRACT: note_on channel=6 note=29 velocity=112 time=0
EXTRACT: note_on channel=10 note=77 velocity=80 time=0
EXTRACT: note_on channel=10 note=53 velocity=80 time=0
EXTRACT: note_on channel=10 note=57 velocity=80 time=0
EXTRACT: note_on channel=10 note=60 velocity=80 time=0
EXTRACT: note_on channel=10 note=77 velocity=0 time=0.7114583333333333
EXTRACT: note_on channel=10 note=53 velocity=0 time=0
EXTRACT: note_on channel=10 note=57 velocity=0 time=0
EXTRACT: note_on channel=10 note=60 velocity=0 time=0
EXTRACT: note_on channel=1 note=65 velocity=0 time=0.0375
EXTRACT: note_on channel=2 note=72 velocity=0 time=0
EXTRACT: note_on channel=3 note=65 velocity=0 time=0
EXTRACT: note_on channel=4 note=53 velocity=0 time=0
EXTRACT: note_on channel=5 note=60 velocity=0 time=0
EXTRACT: note_on channel=6 note=29 velocity=0 time=0
EXTRACT: note_on channel=1 note=64 velocity=112 time=0.0010416666666666667
EXTRACT: note_on channel=2 note=69 velocity=96 time=0
EXTRACT: note_on channel=3 note=64 velocity=112 time=0
EXTRACT: note_on channel=4 note=52 velocity=112 time=0
EXTRACT: note_on channel=5 note=57 velocity=80 time=0
EXTRACT: note_on channel=6 note=29 velocity=112 time=0
EXTRACT: note_on channel=10 note=76 velocity=80 time=0
EXTRACT: note_on channel=10 note=53 velocity=80 time=0
EXTRACT: note_on channel=10 note=57 velocity=80 time=0
EXTRACT: note_on channel=10 note=60 velocity=80 time=0
EXTRACT: note_on channel=10 note=76 velocity=0 time=0.23645833333333333
EXTRACT: note_on channel=1 note=64 velocity=0 time=0.0125
EXTRACT: note_on channel=3 note=64 velocity=0 time=0
EXTRACT: note_on channel=4 note=52 velocity=0 time=0
EXTRACT: note_on channel=1 note=62 velocity=112 time=0.0010416666666666667
EXTRACT: note_on channel=3 note=62 velocity=112 time=0
EXTRACT: note_on channel=4 note=50 velocity=112 time=0
EXTRACT: note_on channel=10 note=74 velocity=80 time=0
EXTRACT: note_on channel=6 note=29 velocity=0 time=0.24895833333333334
EXTRACT: note_on channel=6 note=29 velocity=112 time=0.0010416666666666667
EXTRACT: note_on channel=10 note=53 velocity=0 time=0.21145833333333333
EXTRACT: note_on channel=10 note=57 velocity=0 time=0
EXTRACT: note_on channel=10 note=60 velocity=0 time=0
EXTRACT: note_on channel=10 note=74 velocity=0 time=0.0125
EXTRACT: note_on channel=1 note=62 velocity=0 time=0.025
EXTRACT: note_on channel=2 note=69 velocity=0 time=0
EXTRACT: note_on channel=3 note=62 velocity=0 time=0
EXTRACT: note_on channel=4 note=50 velocity=0 time=0
EXTRACT: note_on channel=5 note=57 velocity=0 time=0
EXTRACT: note_on channel=6 note=29 velocity=0 time=0
EXTRACT: note_on channel=1 note=62 velocity=112 time=0.0010416666666666667
EXTRACT: note_on channel=2 note=69 velocity=96 time=0
EXTRACT: note_on channel=3 note=62 velocity=112 time=0
EXTRACT: note_on channel=4 note=50 velocity=112 time=0
EXTRACT: note_on channel=5 note=57 velocity=80 time=0
EXTRACT: note_on channel=6 note=29 velocity=112 time=0
EXTRACT: note_on channel=10 note=74 velocity=80 time=0
EXTRACT: note_on channel=10 note=53 velocity=80 time=0
EXTRACT: note_on channel=10 note=57 velocity=80 time=0
EXTRACT: note_on channel=10 note=60 velocity=80 time=0
EXTRACT: note_on channel=10 note=74 velocity=0 time=0.11770833333333333
EXTRACT: note_on channel=10 note=76 velocity=80 time=0.007291666666666667
EXTRACT: note_on channel=10 note=76 velocity=0 time=0.11770833333333333
EXTRACT: note_on channel=10 note=77 velocity=80 time=0.007291666666666667
EXTRACT: note_on channel=10 note=77 velocity=0 time=0.11770833333333333
EXTRACT: note_on channel=1 note=62 velocity=0 time=0.00625
EXTRACT: note_on channel=2 note=69 velocity=0 time=0
EXTRACT: note_on channel=3 note=62 velocity=0 time=0
EXTRACT: note_on channel=4 note=50 velocity=0 time=0
EXTRACT: note_on channel=5 note=57 velocity=0 time=0
EXTRACT: note_on channel=1 note=64 velocity=112 time=0.0010416666666666667
EXTRACT: note_on channel=2 note=71 velocity=96 time=0
EXTRACT: note_on channel=3 note=64 velocity=112 time=0
EXTRACT: note_on channel=4 note=52 velocity=112 time=0
EXTRACT: note_on channel=5 note=59 velocity=80 time=0
EXTRACT: note_on channel=10 note=76 velocity=80 time=0
EXTRACT: note_on channel=10 note=76 velocity=0 time=0.11770833333333333
EXTRACT: note_on channel=1 note=64 velocity=0 time=0.00625
EXTRACT: note_on channel=2 note=71 velocity=0 time=0
EXTRACT: note_on channel=3 note=64 velocity=0 time=0
EXTRACT: note_on channel=4 note=52 velocity=0 time=0
EXTRACT: note_on channel=5 note=59 velocity=0 time=0
EXTRACT: note_on channel=1 note=62 velocity=112 time=0.0010416666666666667
EXTRACT: note_on channel=2 note=69 velocity=96 time=0
EXTRACT: note_on channel=3 note=62 velocity=112 time=0
EXTRACT: note_on channel=4 note=50 velocity=112 time=0
EXTRACT: note_on channel=5 note=57 velocity=80 time=0
EXTRACT: note_on channel=10 note=74 velocity=80 time=0
EXTRACT: note_on channel=10 note=53 velocity=0 time=0.21145833333333333
EXTRACT: note_on channel=10 note=57 velocity=0 time=0
EXTRACT: note_on channel=10 note=60 velocity=0 time=0
EXTRACT: note_on channel=10 note=74 velocity=0 time=0.025
EXTRACT: note_on channel=1 note=62 velocity=0 time=0.0125
EXTRACT: note_on channel=2 note=69 velocity=0 time=0
EXTRACT: note_on channel=3 note=62 velocity=0 time=0
EXTRACT: note_on channel=4 note=50 velocity=0 time=0
EXTRACT: note_on channel=5 note=57 velocity=0 time=0
EXTRACT: note_on channel=6 note=29 velocity=0 time=0
EXTRACT: note_on channel=1 note=60 velocity=112 time=0.0010416666666666667
EXTRACT: note_on channel=2 note=67 velocity=96 time=0
EXTRACT: note_on channel=3 note=60 velocity=112 time=0
EXTRACT: note_on channel=4 note=48 velocity=112 time=0
EXTRACT: note_on channel=5 note=55 velocity=80 time=0
EXTRACT: note_on channel=6 note=29 velocity=112 time=0
EXTRACT: note_on channel=10 note=72 velocity=80 time=0
EXTRACT: note_on channel=10 note=53 velocity=80 time=0
EXTRACT: note_on channel=10 note=57 velocity=80 time=0
EXTRACT: note_on channel=10 note=60 velocity=80 time=0
EXTRACT: note_on channel=10 note=72 velocity=0 time=0.7114583333333333
EXTRACT: note_on channel=10 note=53 velocity=0 time=0
EXTRACT: note_on channel=10 note=57 velocity=0 time=0
EXTRACT: note_on channel=10 note=60 velocity=0 time=0
EXTRACT: note_on channel=1 note=60 velocity=0 time=0.0375
EXTRACT: note_on channel=2 note=67 velocity=0 time=0
EXTRACT: note_on channel=3 note=60 velocity=0 time=0
EXTRACT: note_on channel=4 note=48 velocity=0 time=0
EXTRACT: note_on channel=5 note=55 velocity=0 time=0
EXTRACT: note_on channel=6 note=29 velocity=0 time=0
EXTRACT: note_on channel=6 note=36 velocity=80 time=0.0010416666666666667
EXTRACT: note_on channel=10 note=60 velocity=126 time=0
EXTRACT: note_on channel=10 note=64 velocity=126 time=0
EXTRACT: note_on channel=10 note=67 velocity=126 time=0
EXTRACT: note_on channel=10 note=48 velocity=126 time=0
EXTRACT: note_on channel=10 note=60 velocity=0 time=0.7114583333333333
EXTRACT: note_on channel=10 note=64 velocity=0 time=0
EXTRACT: note_on channel=10 note=67 velocity=0 time=0
EXTRACT: note_on channel=10 note=48 velocity=0 time=0
EXTRACT: note_on channel=6 note=36 velocity=0 time=0.0375
EXTRACT: note_on channel=6 note=36 velocity=80 time=0.0010416666666666667
EXTRACT: note_on channel=10 note=48 velocity=126 time=0
EXTRACT: note_on channel=6 note=36 velocity=0 time=0.49895833333333334
EXTRACT: note_on channel=6 note=36 velocity=80 time=0.0010416666666666667
EXTRACT: note_on channel=10 note=60 velocity=126 time=0
EXTRACT: note_on channel=10 note=64 velocity=126 time=0
EXTRACT: note_on channel=10 note=67 velocity=126 time=0
EXTRACT: note_on channel=10 note=48 velocity=0 time=0.21145833333333333
EXTRACT: note_on channel=10 note=60 velocity=0 time=0.025
EXTRACT: note_on channel=10 note=64 velocity=0 time=0
EXTRACT: note_on channel=10 note=67 velocity=0 time=0
EXTRACT: note_on channel=6 note=36 velocity=0 time=0.0125
EXTRACT: note_on channel=6 note=36 velocity=80 time=0.0010416666666666667
EXTRACT: note_on channel=10 note=60 velocity=126 time=0
EXTRACT: note_on channel=10 note=64 velocity=126 time=0
EXTRACT: note_on channel=10 note=67 velocity=126 time=0
EXTRACT: note_on channel=10 note=48 velocity=126 time=0
EXTRACT: note_on channel=10 note=48 velocity=0 time=0.23645833333333333
EXTRACT: note_on channel=10 note=52 velocity=126 time=0.013541666666666667
EXTRACT: note_on channel=10 note=52 velocity=0 time=0.23645833333333333
EXTRACT: note_on channel=10 note=48 velocity=126 time=0.013541666666666667
EXTRACT: note_on channel=10 note=48 velocity=0 time=0.23645833333333333
EXTRACT: note_on channel=6 note=36 velocity=0 time=0.0125
EXTRACT: note_on channel=6 note=36 velocity=80 time=0.0010416666666666667
EXTRACT: note_on channel=10 note=48 velocity=126 time=0
EXTRACT: note_on channel=10 note=60 velocity=0 time=0.19895833333333332
EXTRACT: note_on channel=10 note=64 velocity=0 time=0
EXTRACT: note_on channel=10 note=67 velocity=0 time=0
EXTRACT: note_on channel=10 note=60 velocity=126 time=0.051041666666666666
EXTRACT: note_on channel=10 note=64 velocity=126 time=0
EXTRACT: note_on channel=10 note=67 velocity=126 time=0
EXTRACT: note_on channel=10 note=60 velocity=0 time=0.23645833333333333
EXTRACT: note_on channel=10 note=64 velocity=0 time=0
EXTRACT: note_on channel=10 note=67 velocity=0 time=0
EXTRACT: note_on channel=10 note=59 velocity=126 time=0.013541666666666667
EXTRACT: note_on channel=10 note=64 velocity=126 time=0
EXTRACT: note_on channel=10 note=67 velocity=126 time=0
EXTRACT: note_on channel=10 note=48 velocity=0 time=0.21145833333333333
EXTRACT: note_on channel=10 note=59 velocity=0 time=0.025
EXTRACT: note_on channel=10 note=64 velocity=0 time=0
EXTRACT: note_on channel=10 note=67 velocity=0 time=0
EXTRACT: note_on channel=6 note=36 velocity=0 time=0.0125
EXTRACT: note_on channel=6 note=40 velocity=80 time=0.0010416666666666667
EXTRACT: note_on channel=10 note=64 velocity=126 time=0
EXTRACT: note_on channel=10 note=67 velocity=126 time=0
EXTRACT: note_on channel=10 note=71 velocity=126 time=0
EXTRACT: note_on channel=10 note=40 velocity=126 time=0
EXTRACT: note_on channel=10 note=64 velocity=0 time=0.7114583333333333
EXTRACT: note_on channel=10 note=67 velocity=0 time=0
EXTRACT: note_on channel=10 note=71 velocity=0 time=0
EXTRACT: note_on channel=10 note=40 velocity=0 time=0
EXTRACT: note_on channel=6 note=40 velocity=0 time=0.0375
EXTRACT: note_on channel=6 note=40 velocity=80 time=0.0010416666666666667
EXTRACT: note_on channel=10 note=40 velocity=126 time=0
EXTRACT: note_on channel=6 note=40 velocity=0 time=0.49895833333333334
EXTRACT: note_on channel=6 note=40 velocity=80 time=0.0010416666666666667
EXTRACT: note_on channel=10 note=64 velocity=126 time=0
EXTRACT: note_on channel=10 note=67 velocity=126 time=0
EXTRACT: note_on channel=10 note=71 velocity=126 time=0
EXTRACT: note_on channel=10 note=40 velocity=0 time=0.21145833333333333
EXTRACT: note_on channel=10 note=64 velocity=0 time=0.025
EXTRACT: note_on channel=10 note=67 velocity=0 time=0
EXTRACT: note_on channel=10 note=71 velocity=0 time=0
EXTRACT: note_on channel=6 note=40 velocity=0 time=0.0125
EXTRACT: note_on channel=6 note=40 velocity=80 time=0.0010416666666666667
EXTRACT: note_on channel=10 note=64 velocity=126 time=0
EXTRACT: note_on channel=10 note=67 velocity=126 time=0
EXTRACT: note_on channel=10 note=71 velocity=126 time=0
EXTRACT: note_on channel=10 note=40 velocity=126 time=0
EXTRACT: note_on channel=10 note=40 velocity=0 time=0.23645833333333333
EXTRACT: note_on channel=10 note=43 velocity=126 time=0.013541666666666667
EXTRACT: note_on channel=10 note=43 velocity=0 time=0.23645833333333333
EXTRACT: note_on channel=10 note=40 velocity=126 time=0.013541666666666667
EXTRACT: note_on channel=10 note=40 velocity=0 time=0.23645833333333333
EXTRACT: note_on channel=6 note=40 velocity=0 time=0.0125
EXTRACT: note_on channel=6 note=40 velocity=80 time=0.0010416666666666667
EXTRACT: note_on channel=10 note=40 velocity=126 time=0
EXTRACT: note_on channel=10 note=64 velocity=0 time=0.19895833333333332
EXTRACT: note_on channel=10 note=67 velocity=0 time=0
EXTRACT: note_on channel=10 note=71 velocity=0 time=0
EXTRACT: note_on channel=10 note=60 velocity=126 time=0.051041666666666666
EXTRACT: note_on channel=10 note=64 velocity=126 time=0
EXTRACT: note_on channel=10 note=67 velocity=126 time=0
EXTRACT: note_on channel=10 note=60 velocity=0 time=0.23645833333333333
EXTRACT: note_on channel=10 note=64 velocity=0 time=0
EXTRACT: note_on channel=10 note=67 velocity=0 time=0
EXTRACT: note_on channel=10 note=64 velocity=126 time=0.013541666666666667
EXTRACT: note_on channel=10 note=69 velocity=126 time=0
EXTRACT: note_on channel=10 note=72 velocity=126 time=0
EXTRACT: note_on channel=10 note=40 velocity=0 time=0.21145833333333333
EXTRACT: note_on channel=10 note=64 velocity=0 time=0.025
EXTRACT: note_on channel=10 note=69 velocity=0 time=0
EXTRACT: note_on channel=10 note=72 velocity=0 time=0
EXTRACT: note_on channel=6 note=40 velocity=0 time=0.0125
EXTRACT: note_on channel=6 note=33 velocity=80 time=0.0010416666666666667
EXTRACT: note_on channel=10 note=69 velocity=126 time=0
EXTRACT: note_on channel=10 note=72 velocity=126 time=0
EXTRACT: note_on channel=10 note=76 velocity=126 time=0
EXTRACT: note_on channel=10 note=45 velocity=126 time=0
EXTRACT: note_on channel=10 note=69 velocity=0 time=0.7114583333333333
EXTRACT: note_on channel=10 note=72 velocity=0 time=0
EXTRACT: note_on channel=10 note=76 velocity=0 time=0
EXTRACT: note_on channel=10 note=45 velocity=0 time=0
EXTRACT: note_on channel=6 note=33 velocity=0 time=0.0375
EXTRACT: note_on channel=6 note=33 velocity=80 time=0.0010416666666666667
EXTRACT: note_on channel=10 note=45 velocity=126 time=0
EXTRACT: note_on channel=6 note=33 velocity=0 time=0.49895833333333334
EXTRACT: note_on channel=6 note=33 velocity=80 time=0.0010416666666666667
EXTRACT: note_on channel=10 note=69 velocity=126 time=0
EXTRACT: note_on channel=10 note=72 velocity=126 time=0
EXTRACT: note_on channel=10 note=76 velocity=126 time=0
EXTRACT: note_on channel=10 note=45 velocity=0 time=0.21145833333333333
EXTRACT: note_on channel=10 note=69 velocity=0 time=0.025
EXTRACT: note_on channel=10 note=72 velocity=0 time=0
EXTRACT: note_on channel=10 note=76 velocity=0 time=0
EXTRACT: note_on channel=6 note=33 velocity=0 time=0.0125
EXTRACT: note_on channel=6 note=33 velocity=80 time=0.0010416666666666667
EXTRACT: note_on channel=10 note=69 velocity=126 time=0
EXTRACT: note_on channel=10 note=72 velocity=126 time=0
EXTRACT: note_on channel=10 note=76 velocity=126 time=0
EXTRACT: note_on channel=10 note=45 velocity=126 time=0
EXTRACT: note_on channel=10 note=45 velocity=0 time=0.23645833333333333
EXTRACT: note_on channel=10 note=48 velocity=126 time=0.013541666666666667
EXTRACT: note_on channel=10 note=48 velocity=0 time=0.23645833333333333
EXTRACT: note_on channel=10 note=45 velocity=126 time=0.013541666666666667
EXTRACT: note_on channel=10 note=45 velocity=0 time=0.23645833333333333
EXTRACT: note_on channel=6 note=33 velocity=0 time=0.0125
EXTRACT: note_on channel=6 note=33 velocity=80 time=0.0010416666666666667
EXTRACT: note_on channel=10 note=45 velocity=126 time=0
EXTRACT: note_on channel=10 note=69 velocity=0 time=0.19895833333333332
EXTRACT: note_on channel=10 note=72 velocity=0 time=0
EXTRACT: note_on channel=10 note=76 velocity=0 time=0
EXTRACT: note_on channel=10 note=60 velocity=126 time=0.051041666666666666
EXTRACT: note_on channel=10 note=64 velocity=126 time=0
EXTRACT: note_on channel=10 note=67 velocity=126 time=0
EXTRACT: note_on channel=10 note=60 velocity=0 time=0.23645833333333333
EXTRACT: note_on channel=10 note=64 velocity=0 time=0
EXTRACT: note_on channel=10 note=67 velocity=0 time=0
EXTRACT: note_on channel=10 note=60 velocity=126 time=0.013541666666666667
EXTRACT: note_on channel=10 note=65 velocity=126 time=0
EXTRACT: note_on channel=10 note=69 velocity=126 time=0
EXTRACT: note_on channel=10 note=45 velocity=0 time=0.21145833333333333
EXTRACT: note_on channel=10 note=60 velocity=0 time=0.025
EXTRACT: note_on channel=10 note=65 velocity=0 time=0
EXTRACT: note_on channel=10 note=69 velocity=0 time=0
EXTRACT: note_on channel=6 note=33 velocity=0 time=0.0125
EXTRACT: note_on channel=6 note=29 velocity=80 time=0.0010416666666666667
EXTRACT: note_on channel=10 note=65 velocity=126 time=0
EXTRACT: note_on channel=10 note=69 velocity=126 time=0
EXTRACT: note_on channel=10 note=72 velocity=126 time=0
EXTRACT: note_on channel=10 note=41 velocity=126 time=0
EXTRACT: note_on channel=6 note=29 velocity=0 time=0.7489583333333333
EXTRACT: note_on channel=6 note=29 velocity=80 time=0.0010416666666666667
EXTRACT: note_on channel=6 note=29 velocity=0 time=0.49895833333333334
EXTRACT: note_on channel=6 note=29 velocity=80 time=0.0010416666666666667
EXTRACT: note_on channel=6 note=29 velocity=0 time=0.24895833333333334
EXTRACT: note_on channel=6 note=29 velocity=80 time=0.0010416666666666667
EXTRACT: note_on channel=6 note=29 velocity=0 time=0.7489583333333333
EXTRACT: note_on channel=6 note=29 velocity=80 time=0.0010416666666666667
EXTRACT: note_on channel=10 note=81 velocity=126 time=0.75
EXTRACT: note_on channel=0 note=77 velocity=112 time=0.75
EXTRACT: note_on channel=0 note=77 velocity=0 time=0.1
EXTRACT: note_on channel=0 note=79 velocity=112 time=0.007291666666666667
EXTRACT: note_on channel=0 note=79 velocity=0 time=0.1
EXTRACT: note_on channel=0 note=81 velocity=112 time=0.007291666666666667
EXTRACT: note_on channel=0 note=81 velocity=0 time=0.1
EXTRACT: note_on channel=0 note=83 velocity=112 time=0.007291666666666667
EXTRACT: note_on channel=0 note=83 velocity=0 time=0.1
EXTRACT: note_on channel=0 note=79 velocity=112 time=0.007291666666666667
EXTRACT: note_on channel=0 note=79 velocity=0 time=0.1
EXTRACT: note_on channel=0 note=81 velocity=112 time=0.007291666666666667
EXTRACT: note_on channel=0 note=81 velocity=0 time=0.1
EXTRACT: note_on channel=0 note=83 velocity=112 time=0.007291666666666667
EXTRACT: note_on channel=0 note=83 velocity=0 time=0.1
EXTRACT: note_on channel=0 note=81 velocity=112 time=0.00625
EXTRACT: note_on channel=0 note=81 velocity=0 time=0.06666666666666667
EXTRACT: note_on channel=0 note=83 velocity=112 time=0.005208333333333333
EXTRACT: note_on channel=0 note=83 velocity=0 time=0.06666666666666667
EXTRACT: note_on channel=0 note=84 velocity=112 time=0.005208333333333333
EXTRACT: note_on channel=0 note=84 velocity=0 time=0.06666666666666667
EXTRACT: note_on channel=0 note=86 velocity=112 time=0.005208333333333333
EXTRACT: note_on channel=0 note=86 velocity=0 time=0.06666666666666667
EXTRACT: note_on channel=0 note=88 velocity=112 time=0.005208333333333333
EXTRACT: note_on channel=0 note=88 velocity=0 time=0.06666666666666667
EXTRACT: note_on channel=0 note=89 velocity=112 time=0.005208333333333333
EXTRACT: note_on channel=0 note=89 velocity=0 time=0.06666666666666667
EXTRACT: note_on channel=0 note=91 velocity=112 time=0.005208333333333333
EXTRACT: note_on channel=0 note=91 velocity=0 time=0.06666666666666667
EXTRACT: note_on channel=0 note=93 velocity=112 time=0.0020833333333333333
EXTRACT: note_on channel=6 note=29 velocity=0 time=0.24895833333333334
EXTRACT: note_on channel=3 note=55 velocity=80 time=0.0010416666666666667
EXTRACT: note_on channel=3 note=55 velocity=0 time=0.24895833333333334
EXTRACT: note_on channel=3 note=57 velocity=80 time=0.0010416666666666667
EXTRACT: note_on channel=10 note=65 velocity=0 time=0.19895833333333332
EXTRACT: note_on channel=10 note=69 velocity=0 time=0
EXTRACT: note_on channel=10 note=72 velocity=0 time=0
EXTRACT: note_on channel=10 note=41 velocity=0 time=0
EXTRACT: note_on channel=3 note=57 velocity=0 time=0.05
EXTRACT: note_on channel=3 note=60 velocity=80 time=0.0010416666666666667
EXTRACT: note_on channel=10 note=81 velocity=0 time=0.09895833333333333
EXTRACT: note_on channel=0 note=93 velocity=0 time=0.1
EXTRACT: note_on channel=3 note=60 velocity=0 time=0.05
EXTRACT: note_on channel=0 note=84 velocity=112 time=0.0010416666666666667
EXTRACT: note_on channel=3 note=60 velocity=80 time=0
EXTRACT: note_on channel=6 note=36 velocity=64 time=0
EXTRACT: note_on channel=10 note=72 velocity=96 time=0
EXTRACT: note_on channel=10 note=76 velocity=96 time=0
EXTRACT: note_on channel=10 note=79 velocity=96 time=0
EXTRACT: note_on channel=10 note=48 velocity=96 time=0
EXTRACT: note_on channel=0 note=84 velocity=0 time=0.7114583333333333
EXTRACT: note_on channel=3 note=60 velocity=0 time=0.0375
EXTRACT: note_on channel=6 note=36 velocity=0 time=0
EXTRACT: note_on channel=0 note=81 velocity=112 time=0.0010416666666666667
EXTRACT: note_on channel=3 note=57 velocity=80 time=0
EXTRACT: note_on channel=6 note=36 velocity=64 time=0
EXTRACT: note_on channel=0 note=81 velocity=0 time=0.23645833333333333
EXTRACT: note_on channel=3 note=57 velocity=0 time=0.0125
EXTRACT: note_on channel=0 note=79 velocity=112 time=0.0010416666666666667
EXTRACT: note_on channel=3 note=55 velocity=80 time=0
EXTRACT: note_on channel=6 note=36 velocity=0 time=0.24895833333333334
EXTRACT: note_on channel=4 note=50 velocity=80 time=0.0010416666666666667
EXTRACT: note_on channel=6 note=36 velocity=64 time=0
EXTRACT: note_on channel=0 note=79 velocity=0 time=0.22395833333333334
EXTRACT: note_on channel=3 note=55 velocity=0 time=0.025
EXTRACT: note_on channel=4 note=50 velocity=0 time=0
EXTRACT: note_on channel=6 note=36 velocity=0 time=0
EXTRACT: note_on channel=4 note=52 velocity=80 time=0.0010416666666666667
EXTRACT: note_on channel=6 note=36 velocity=64 time=0
EXTRACT: note_on channel=10 note=84 velocity=96 time=0
EXTRACT: note_on channel=0 note=86 velocity=112 time=0.5
EXTRACT: note_on channel=3 note=62 velocity=80 time=0
EXTRACT: note_on channel=0 note=86 velocity=0 time=0.23645833333333333
EXTRACT: note_on channel=3 note=62 velocity=0 time=0.0125
EXTRACT: note_on channel=4 note=52 velocity=0 time=0
EXTRACT: note_on channel=6 note=36 velocity=0 time=0
EXTRACT: note_on channel=0 note=86 velocity=112 time=0.0010416666666666667
EXTRACT: note_on channel=3 note=62 velocity=80 time=0
EXTRACT: note_on channel=6 note=36 velocity=64 time=0
EXTRACT: note_on channel=0 note=86 velocity=0 time=0.23645833333333333
EXTRACT: note_on channel=3 note=62 velocity=0 time=0.0125
EXTRACT: note_on channel=0 note=88 velocity=112 time=0.0010416666666666667
EXTRACT: note_on channel=3 note=64 velocity=80 time=0
EXTRACT: note_on channel=0 note=88 velocity=0 time=0.23645833333333333
EXTRACT: note_on channel=3 note=64 velocity=0 time=0.0125
EXTRACT: note_on channel=0 note=84 velocity=112 time=0.0010416666666666667
EXTRACT: note_on channel=3 note=60 velocity=80 time=0
EXTRACT: note_on channel=10 note=72 velocity=0 time=0.09895833333333333
EXTRACT: note_on channel=10 note=76 velocity=0 time=0
EXTRACT: note_on channel=10 note=79 velocity=0 time=0
EXTRACT: note_on channel=10 note=48 velocity=0 time=0
EXTRACT: note_on channel=10 note=84 velocity=0 time=0.075
EXTRACT: note_on channel=0 note=84 velocity=0 time=0.0625
EXTRACT: note_on channel=3 note=60 velocity=0 time=0.0125
EXTRACT: note_on channel=6 note=36 velocity=0 time=0
EXTRACT: note_on channel=0 note=86 velocity=112 time=0.0010416666666666667
EXTRACT: note_on channel=3 note=62 velocity=80 time=0
EXTRACT: note_on channel=6 note=40 velocity=64 time=0
EXTRACT: note_on channel=10 note=64 velocity=96 time=0
EXTRACT: note_on channel=10 note=67 velocity=96 time=0
EXTRACT: note_on channel=10 note=71 velocity=96 time=0
EXTRACT: note_on channel=10 note=52 velocity=96 time=0
EXTRACT: note_on channel=0 note=86 velocity=0 time=0.7114583333333333
EXTRACT: note_on channel=3 note=62 velocity=0 time=0.0375
EXTRACT: note_on channel=6 note=40 velocity=0 time=0
EXTRACT: note_on channel=0 note=86 velocity=112 time=0.0010416666666666667
EXTRACT: note_on channel=3 note=62 velocity=80 time=0
EXTRACT: note_on channel=6 note=40 velocity=64 time=0
EXTRACT: note_on channel=6 note=40 velocity=0 time=0.49895833333333334
EXTRACT: note_on channel=6 note=40 velocity=64 time=0.0010416666666666667
EXTRACT: note_on channel=0 note=86 velocity=0 time=0.21145833333333333
EXTRACT: note_on channel=3 note=62 velocity=0 time=0.0375
EXTRACT: note_on channel=6 note=40 velocity=0 time=0
EXTRACT: note_on channel=6 note=40 velocity=64 time=0.0010416666666666667
EXTRACT: note_on channel=10 note=76 velocity=96 time=0
EXTRACT: note_on channel=5 note=45 velocity=80 time=0.5
EXTRACT: note_on channel=5 note=45 velocity=0 time=0.24895833333333334
EXTRACT: note_on channel=6 note=40 velocity=0 time=0
EXTRACT: note_on channel=0 note=84 velocity=112 time=0.0010416666666666667
EXTRACT: note_on channel=3 note=60 velocity=80 time=0
EXTRACT: note_on channel=5 note=45 velocity=80 time=0
EXTRACT: note_on channel=6 note=40 velocity=64 time=0
EXTRACT: note_on channel=0 note=84 velocity=0 time=0.23645833333333333
EXTRACT: note_on channel=3 note=60 velocity=0 time=0.0125
EXTRACT: note_on channel=0 note=83 velocity=112 time=0.0010416666666666667
EXTRACT: note_on channel=3 note=59 velocity=80 time=0
EXTRACT: note_on channel=0 note=83 velocity=0 time=0.23645833333333333
EXTRACT: note_on channel=3 note=59 velocity=0 time=0.0125
EXTRACT: note_on channel=0 note=81 velocity=112 time=0.0010416666666666667
EXTRACT: note_on channel=3 note=57 velocity=80 time=0
EXTRACT: note_on channel=10 note=64 velocity=0 time=0.09895833333333333
EXTRACT: note_on channel=10 note=67 velocity=0 time=0
EXTRACT: note_on channel=10 note=71 velocity=0 time=0
EXTRACT: note_on channel=10 note=52 velocity=0 time=0
EXTRACT: note_on channel=10 note=76 velocity=0 time=0.075
EXTRACT: note_on channel=0 note=81 velocity=0 time=0.0625
EXTRACT: note_on channel=3 note=57 velocity=0 time=0.0125
EXTRACT: note_on channel=5 note=45 velocity=0 time=0
EXTRACT: note_on channel=6 note=40 velocity=0 time=0
EXTRACT: note_on channel=0 note=84 velocity=112 time=0.0010416666666666667
EXTRACT: note_on channel=3 note=60 velocity=80 time=0
EXTRACT: note_on channel=4 note=52 velocity=80 time=0
EXTRACT: note_on channel=6 note=33 velocity=64 time=0
EXTRACT: note_on channel=10 note=69 velocity=96 time=0
EXTRACT: note_on channel=10 note=72 velocity=96 time=0
EXTRACT: note_on channel=10 note=76 velocity=96 time=0
EXTRACT: note_on channel=10 note=45 velocity=96 time=0
EXTRACT: note_on channel=0 note=84 velocity=0 time=0.7114583333333333
EXTRACT: note_on channel=3 note=60 velocity=0 time=0.0375
EXTRACT: note_on channel=4 note=52 velocity=0 time=0
EXTRACT: note_on channel=6 note=33 velocity=0 time=0
EXTRACT: note_on channel=0 note=84 velocity=112 time=0.0010416666666666667
EXTRACT: note_on channel=3 note=60 velocity=80 time=0
EXTRACT: note_on channel=4 note=50 velocity=80 time=0
EXTRACT: note_on channel=6 note=33 velocity=64 time=0
EXTRACT: note_on channel=4 note=50 velocity=0 time=0.12395833333333334
EXTRACT: note_on channel=4 note=48 velocity=80 time=0.0010416666666666667
EXTRACT: note_on channel=4 note=48 velocity=0 time=0.12395833333333334
EXTRACT: note_on channel=4 note=45 velocity=80 time=0.0010416666666666667
EXTRACT: note_on channel=6 note=33 velocity=0 time=0.24895833333333334
EXTRACT: note_on channel=6 note=33 velocity=64 time=0.0010416666666666667
EXTRACT: note_on channel=0 note=84 velocity=0 time=0.21145833333333333
EXTRACT: note_on channel=3 note=60 velocity=0 time=0.0375
EXTRACT: note_on channel=4 note=45 velocity=0 time=0
EXTRACT: note_on channel=6 note=33 velocity=0 time=0
EXTRACT: note_on channel=6 note=33 velocity=64 time=0.0010416666666666667
EXTRACT: note_on channel=10 note=81 velocity=96 time=0
EXTRACT: note_on channel=0 note=81 velocity=112 time=0.25
EXTRACT: note_on channel=3 note=57 velocity=80 time=0
EXTRACT: note_on channel=0 note=81 velocity=0 time=0.23645833333333333
EXTRACT: note_on channel=3 note=57 velocity=0 time=0.0125
EXTRACT: note_on channel=0 note=81 velocity=112 time=0.0010416666666666667
EXTRACT: note_on channel=3 note=57 velocity=80 time=0
EXTRACT: note_on channel=0 note=81 velocity=0 time=0.23645833333333333
EXTRACT: note_on channel=3 note=57 velocity=0 time=0.0125
EXTRACT: note_on channel=6 note=33 velocity=0 time=0
EXTRACT: note_on channel=0 note=81 velocity=112 time=0.0010416666666666667
EXTRACT: note_on channel=3 note=57 velocity=80 time=0
EXTRACT: note_on channel=6 note=33 velocity=64 time=0
EXTRACT: note_on channel=0 note=81 velocity=0 time=0.23645833333333333
EXTRACT: note_on channel=3 note=57 velocity=0 time=0.0125
EXTRACT: note_on channel=0 note=79 velocity=112 time=0.0010416666666666667
EXTRACT: note_on channel=3 note=55 velocity=80 time=0
EXTRACT: note_on channel=0 note=79 velocity=0 time=0.23645833333333333
EXTRACT: note_on channel=3 note=55 velocity=0 time=0.0125
EXTRACT: note_on channel=0 note=79 velocity=112 time=0.0010416666666666667
EXTRACT: note_on channel=3 note=55 velocity=80 time=0
EXTRACT: note_on channel=10 note=69 velocity=0 time=0.09895833333333333
EXTRACT: note_on channel=10 note=72 velocity=0 time=0
EXTRACT: note_on channel=10 note=76 velocity=0 time=0
EXTRACT: note_on channel=10 note=45 velocity=0 time=0
EXTRACT: note_on channel=10 note=81 velocity=0 time=0.075
EXTRACT: note_on channel=0 note=79 velocity=0 time=0.0625
EXTRACT: note_on channel=3 note=55 velocity=0 time=0.0125
EXTRACT: note_on channel=6 note=33 velocity=0 time=0
EXTRACT: note_on channel=0 note=67 velocity=112 time=0.0010416666666666667
EXTRACT: note_on channel=1 note=55 velocity=112 time=0
EXTRACT: note_on channel=3 note=55 velocity=80 time=0
EXTRACT: note_on channel=6 note=29 velocity=64 time=0
EXTRACT: note_on channel=10 note=67 velocity=96 time=0
EXTRACT: note_on channel=10 note=53 velocity=96 time=0
EXTRACT: note_on channel=0 note=67 velocity=0 time=0.23645833333333333
EXTRACT: note_on channel=10 note=67 velocity=0 time=0
EXTRACT: note_on channel=1 note=55 velocity=0 time=0.0125
EXTRACT: note_on channel=3 note=55 velocity=0 time=0
EXTRACT: note_on channel=0 note=69 velocity=112 time=0.0010416666666666667
EXTRACT: note_on channel=1 note=57 velocity=112 time=0
EXTRACT: note_on channel=2 note=67 velocity=97 time=0
EXTRACT: note_on channel=3 note=57 velocity=82 time=0
EXTRACT: note_on channel=10 note=69 velocity=97 time=0
EXTRACT: note_on channel=0 note=69 velocity=0 time=0.23645833333333333
EXTRACT: note_on channel=10 note=69 velocity=0 time=0
EXTRACT: note_on channel=1 note=57 velocity=0 time=0.0125
EXTRACT: note_on channel=2 note=67 velocity=0 time=0
EXTRACT: note_on channel=3 note=57 velocity=0 time=0
EXTRACT: note_on channel=0 note=72 velocity=112 time=0.0010416666666666667
EXTRACT: note_on channel=1 note=60 velocity=112 time=0
EXTRACT: note_on channel=2 note=69 velocity=98 time=0
EXTRACT: note_on channel=3 note=60 velocity=85 time=0
EXTRACT: note_on channel=10 note=72 velocity=98 time=0
EXTRACT: note_on channel=0 note=72 velocity=0 time=0.23645833333333333
EXTRACT: note_on channel=10 note=72 velocity=0 time=0
EXTRACT: note_on channel=1 note=60 velocity=0 time=0.0125
EXTRACT: note_on channel=2 note=69 velocity=0 time=0
EXTRACT: note_on channel=3 note=60 velocity=0 time=0
EXTRACT: note_on channel=6 note=29 velocity=0 time=0
EXTRACT: note_on channel=0 note=72 velocity=112 time=0.0010416666666666667
EXTRACT: note_on channel=1 note=60 velocity=112 time=0
EXTRACT: note_on channel=2 note=72 velocity=100 time=0
EXTRACT: note_on channel=3 note=60 velocity=88 time=0
EXTRACT: note_on channel=6 note=29 velocity=76 time=0
EXTRACT: note_on channel=10 note=72 velocity=100 time=0
EXTRACT: note_on channel=0 note=72 velocity=0 time=0.23645833333333333
EXTRACT: note_on channel=10 note=72 velocity=0 time=0
EXTRACT: note_on channel=1 note=60 velocity=0 time=0.0125
EXTRACT: note_on channel=2 note=72 velocity=0 time=0
EXTRACT: note_on channel=3 note=60 velocity=0 time=0
EXTRACT: note_on channel=0 note=74 velocity=112 time=0.0010416666666666667
EXTRACT: note_on channel=1 note=62 velocity=112 time=0
EXTRACT: note_on channel=2 note=74 velocity=101 time=0
EXTRACT: note_on channel=3 note=62 velocity=90 time=0
EXTRACT: note_on channel=10 note=74 velocity=101 time=0
EXTRACT: note_on channel=0 note=74 velocity=0 time=0.23645833333333333
EXTRACT: note_on channel=10 note=74 velocity=0 time=0
EXTRACT: note_on channel=1 note=62 velocity=0 time=0.0125
EXTRACT: note_on channel=2 note=74 velocity=0 time=0
EXTRACT: note_on channel=3 note=62 velocity=0 time=0
EXTRACT: note_on channel=6 note=29 velocity=0 time=0
EXTRACT: note_on channel=0 note=72 velocity=112 time=0.0010416666666666667
EXTRACT: note_on channel=1 note=60 velocity=112 time=0
EXTRACT: note_on channel=2 note=72 velocity=102 time=0
EXTRACT: note_on channel=3 note=60 velocity=93 time=0
EXTRACT: note_on channel=6 note=29 velocity=84 time=0
EXTRACT: note_on channel=10 note=72 velocity=102 time=0
EXTRACT: note_on channel=0 note=72 velocity=0 time=0.23645833333333333
EXTRACT: note_on channel=10 note=72 velocity=0 time=0
EXTRACT: note_on channel=1 note=60 velocity=0 time=0.0125
EXTRACT: note_on channel=3 note=60 velocity=0 time=0
EXTRACT: note_on channel=6 note=29 velocity=0 time=0
EXTRACT: note_on channel=0 note=77 velocity=112 time=0.0010416666666666667
EXTRACT: note_on channel=1 note=65 velocity=112 time=0
EXTRACT: note_on channel=3 note=65 velocity=96 time=0
EXTRACT: note_on channel=6 note=29 velocity=88 time=0
EXTRACT: note_on channel=10 note=77 velocity=104 time=0
EXTRACT: note_on channel=0 note=77 velocity=0 time=0.23645833333333333
EXTRACT: note_on channel=10 note=77 velocity=0 time=0
EXTRACT: note_on channel=1 note=65 velocity=0 time=0.0125
EXTRACT: note_on channel=3 note=65 velocity=0 time=0
EXTRACT: note_on channel=0 note=79 velocity=112 time=0.0010416666666666667
EXTRACT: note_on channel=1 note=67 velocity=112 time=0
EXTRACT: note_on channel=3 note=67 velocity=98 time=0
EXTRACT: note_on channel=10 note=79 velocity=105 time=0
EXTRACT: note_on channel=0 note=79 velocity=0 time=0.23645833333333333
EXTRACT: note_on channel=10 note=79 velocity=0 time=0
EXTRACT: note_on channel=1 note=67 velocity=0 time=0.0125
EXTRACT: note_on channel=0 note=84 velocity=112 time=0.0010416666666666667
EXTRACT: note_on channel=1 note=72 velocity=112 time=0
EXTRACT: note_on channel=10 note=84 velocity=106 time=0
EXTRACT: note_on channel=0 note=84 velocity=0 time=0.23645833333333333
EXTRACT: note_on channel=10 note=84 velocity=0 time=0
EXTRACT: note_on channel=1 note=72 velocity=0 time=0.0125
EXTRACT: note_on channel=2 note=72 velocity=0 time=0
EXTRACT: note_on channel=3 note=67 velocity=0 time=0
EXTRACT: note_on channel=6 note=29 velocity=0 time=0
EXTRACT: note_on channel=0 note=88 velocity=112 time=0.0010416666666666667
EXTRACT: note_on channel=1 note=76 velocity=112 time=0
EXTRACT: note_on channel=2 note=72 velocity=108 time=0
EXTRACT: note_on channel=3 note=67 velocity=104 time=0
EXTRACT: note_on channel=6 note=29 velocity=100 time=0
EXTRACT: note_on channel=10 note=88 velocity=108 time=0
EXTRACT: note_on channel=0 note=88 velocity=0 time=0.23645833333333333
EXTRACT: note_on channel=10 note=88 velocity=0 time=0
EXTRACT: note_on channel=1 note=76 velocity=0 time=0.0125
EXTRACT: note_on channel=2 note=72 velocity=0 time=0
EXTRACT: note_on channel=3 note=67 velocity=0 time=0
EXTRACT: note_on channel=0 note=89 velocity=112 time=0.0010416666666666667
EXTRACT: note_on channel=1 note=77 velocity=112 time=0
EXTRACT: note_on channel=2 note=74 velocity=109 time=0
EXTRACT: note_on channel=3 note=69 velocity=106 time=0
EXTRACT: note_on channel=10 note=89 velocity=109 time=0
EXTRACT: note_on channel=0 note=89 velocity=0 time=0.23645833333333333
EXTRACT: note_on channel=10 note=89 velocity=0 time=0
EXTRACT: note_on channel=1 note=77 velocity=0 time=0.0125
EXTRACT: note_on channel=2 note=74 velocity=0 time=0
EXTRACT: note_on channel=3 note=69 velocity=0 time=0
EXTRACT: note_on channel=0 note=91 velocity=112 time=0.0010416666666666667
EXTRACT: note_on channel=1 note=79 velocity=112 time=0
EXTRACT: note_on channel=2 note=76 velocity=110 time=0
EXTRACT: note_on channel=3 note=72 velocity=109 time=0
EXTRACT: note_on channel=10 note=91 velocity=110 time=0
EXTRACT: note_on channel=10 note=53 velocity=0 time=0.09895833333333333
EXTRACT: note_on channel=0 note=91 velocity=0 time=0.1375
EXTRACT: note_on channel=10 note=91 velocity=0 time=0
EXTRACT: note_on channel=1 note=79 velocity=0 time=0.0125
EXTRACT: note_on channel=2 note=76 velocity=0 time=0
EXTRACT: note_on channel=3 note=72 velocity=0 time=0
EXTRACT: note_on channel=6 note=29 velocity=0 time=0
EXTRACT: note_on channel=0 note=91 velocity=112 time=0.0010416666666666667
EXTRACT: note_on channel=1 note=79 velocity=112 time=0
EXTRACT: note_on channel=2 note=79 velocity=112 time=0
EXTRACT: note_on channel=3 note=72 velocity=112 time=0
EXTRACT: note_on channel=4 note=60 velocity=112 time=0
EXTRACT: note_on channel=5 note=36 velocity=112 time=0
EXTRACT: note_on channel=6 note=36 velocity=112 time=0
EXTRACT: note_on channel=10 note=60 velocity=112 time=0
EXTRACT: note_on channel=10 note=64 velocity=112 time=0
EXTRACT: note_on channel=10 note=67 velocity=112 time=0
EXTRACT: note_on channel=0 note=91 velocity=0 time=0.7114583333333333
EXTRACT: note_on channel=10 note=60 velocity=0 time=0
EXTRACT: note_on channel=10 note=64 velocity=0 time=0
EXTRACT: note_on channel=10 note=67 velocity=0 time=0
EXTRACT: note_on channel=1 note=79 velocity=0 time=0.0375
EXTRACT: note_on channel=2 note=79 velocity=0 time=0
EXTRACT: note_on channel=3 note=72 velocity=0 time=0
EXTRACT: note_on channel=4 note=60 velocity=0 time=0
EXTRACT: note_on channel=5 note=36 velocity=0 time=0
EXTRACT: note_on channel=6 note=36 velocity=0 time=0
EXTRACT: note_on channel=0 note=88 velocity=112 time=0.0010416666666666667
EXTRACT: note_on channel=1 note=76 velocity=112 time=0
EXTRACT: note_on channel=2 note=76 velocity=112 time=0
EXTRACT: note_on channel=3 note=69 velocity=112 time=0
EXTRACT: note_on channel=4 note=57 velocity=112 time=0
EXTRACT: note_on channel=6 note=36 velocity=112 time=0
EXTRACT: note_on channel=10 note=60 velocity=112 time=0
EXTRACT: note_on channel=10 note=64 velocity=112 time=0
EXTRACT: note_on channel=10 note=67 velocity=112 time=0
EXTRACT: note_on channel=0 note=88 velocity=0 time=0.11770833333333333
EXTRACT: note_on channel=1 note=76 velocity=0 time=0.00625
EXTRACT: note_on channel=2 note=76 velocity=0 time=0
EXTRACT: note_on channel=0 note=86 velocity=112 time=0.0010416666666666667
EXTRACT: note_on channel=1 note=74 velocity=112 time=0
EXTRACT: note_on channel=2 note=74 velocity=112 time=0
EXTRACT: note_on channel=0 note=86 velocity=0 time=0.11770833333333333
EXTRACT: note_on channel=1 note=74 velocity=0 time=0.00625
EXTRACT: note_on channel=2 note=74 velocity=0 time=0
EXTRACT: note_on channel=3 note=69 velocity=0 time=0
EXTRACT: note_on channel=4 note=57 velocity=0 time=0
EXTRACT: note_on channel=0 note=84 velocity=112 time=0.0010416666666666667
EXTRACT: note_on channel=1 note=72 velocity=112 time=0
EXTRACT: note_on channel=2 note=72 velocity=112 time=0
EXTRACT: note_on channel=3 note=67 velocity=112 time=0
EXTRACT: note_on channel=4 note=55 velocity=112 time=0
EXTRACT: note_on channel=0 note=84 velocity=0 time=0.11770833333333333
EXTRACT: note_on channel=1 note=72 velocity=0 time=0.00625
EXTRACT: note_on channel=2 note=72 velocity=0 time=0
EXTRACT: note_on channel=0 note=81 velocity=112 time=0.0010416666666666667
EXTRACT: note_on channel=1 note=69 velocity=112 time=0
EXTRACT: note_on channel=2 note=69 velocity=112 time=0
EXTRACT: note_on channel=6 note=36 velocity=0 time=0.12395833333333334
EXTRACT: note_on channel=6 note=36 velocity=112 time=0.0010416666666666667
EXTRACT: note_on channel=10 note=60 velocity=0 time=0.21145833333333333
EXTRACT: note_on channel=10 note=64 velocity=0 time=0
EXTRACT: note_on channel=10 note=67 velocity=0 time=0
EXTRACT: note_on channel=0 note=81 velocity=0 time=0.01875
EXTRACT: note_on channel=1 note=69 velocity=0 time=0.01875
EXTRACT: note_on channel=2 note=69 velocity=0 time=0
EXTRACT: note_on channel=3 note=67 velocity=0 time=0
EXTRACT: note_on channel=4 note=55 velocity=0 time=0
EXTRACT: note_on channel=6 note=36 velocity=0 time=0
EXTRACT: note_on channel=6 note=36 velocity=112 time=0.0010416666666666667
EXTRACT: note_on channel=10 note=60 velocity=112 time=0
EXTRACT: note_on channel=10 note=64 velocity=112 time=0
EXTRACT: note_on channel=10 note=67 velocity=112 time=0
EXTRACT: note_on channel=0 note=84 velocity=112 time=0.25
EXTRACT: note_on channel=1 note=72 velocity=112 time=0
EXTRACT: note_on channel=2 note=72 velocity=112 time=0
EXTRACT: note_on channel=3 note=74 velocity=112 time=0
EXTRACT: note_on channel=4 note=62 velocity=112 time=0
EXTRACT: note_on channel=5 note=36 velocity=112 time=0
EXTRACT: note_on channel=10 note=36 velocity=112 time=0
EXTRACT: note_on channel=0 note=84 velocity=0 time=0.23645833333333333
EXTRACT: note_on channel=1 note=72 velocity=0 time=0.0125
EXTRACT: note_on channel=2 note=72 velocity=0 time=0
EXTRACT: note_on channel=3 note=74 velocity=0 time=0
EXTRACT: note_on channel=4 note=62 velocity=0 time=0
EXTRACT: note_on channel=0 note=84 velocity=112 time=0.0010416666666666667
EXTRACT: note_on channel=1 note=72 velocity=112 time=0
EXTRACT: note_on channel=2 note=72 velocity=112 time=0
EXTRACT: note_on channel=3 note=74 velocity=112 time=0
EXTRACT: note_on channel=4 note=62 velocity=112 time=0
EXTRACT: note_on channel=3 note=74 velocity=0 time=0.12395833333333334
EXTRACT: note_on channel=4 note=62 velocity=0 time=0
EXTRACT: note_on channel=3 note=72 velocity=112 time=0.0010416666666666667
EXTRACT: note_on channel=4 note=60 velocity=112 time=0
EXTRACT: note_on channel=10 note=60 velocity=0 time=0.08645833333333333
EXTRACT: note_on channel=10 note=64 velocity=0 time=0
EXTRACT: note_on channel=10 note=67 velocity=0 time=0
EXTRACT: note_on channel=0 note=84 velocity=0 time=0.025
EXTRACT: note_on channel=1 note=72 velocity=0 time=0.0125
EXTRACT: note_on channel=2 note=72 velocity=0 time=0
EXTRACT: note_on channel=3 note=72 velocity=0 time=0
EXTRACT: note_on channel=4 note=60 velocity=0 time=0
EXTRACT: note_on channel=6 note=36 velocity=0 time=0
EXTRACT: note_on channel=0 note=84 velocity=112 time=0.0010416666666666667
EXTRACT: note_on channel=1 note=72 velocity=112 time=0
EXTRACT: note_on channel=2 note=72 velocity=112 time=0
EXTRACT: note_on channel=3 note=74 velocity=112 time=0
EXTRACT: note_on channel=4 note=62 velocity=112 time=0
EXTRACT: note_on channel=6 note=36 velocity=112 time=0
EXTRACT: note_on channel=10 note=60 velocity=112 time=0
EXTRACT: note_on channel=10 note=64 velocity=112 time=0
EXTRACT: note_on channel=10 note=67 velocity=112 time=0
EXTRACT: note_on channel=0 note=84 velocity=0 time=0.23645833333333333
EXTRACT: note_on channel=1 note=72 velocity=0 time=0.0125
EXTRACT: note_on channel=2 note=72 velocity=0 time=0
EXTRACT: note_on channel=3 note=74 velocity=0 time=0
EXTRACT: note_on channel=4 note=62 velocity=0 time=0
EXTRACT: note_on channel=0 note=86 velocity=112 time=0.0010416666666666667
EXTRACT: note_on channel=1 note=74 velocity=112 time=0
EXTRACT: note_on channel=2 note=74 velocity=112 time=0
EXTRACT: note_on channel=3 note=76 velocity=112 time=0
EXTRACT: note_on channel=4 note=64 velocity=112 time=0
EXTRACT: note_on channel=0 note=86 velocity=0 time=0.23645833333333333
EXTRACT: note_on channel=1 note=74 velocity=0 time=0.0125
EXTRACT: note_on channel=2 note=74 velocity=0 time=0
EXTRACT: note_on channel=3 note=76 velocity=0 time=0
EXTRACT: note_on channel=4 note=64 velocity=0 time=0
EXTRACT: note_on channel=0 note=88 velocity=112 time=0.0010416666666666667
EXTRACT: note_on channel=1 note=76 velocity=112 time=0
EXTRACT: note_on channel=2 note=76 velocity=112 time=0
EXTRACT: note_on channel=3 note=72 velocity=112 time=0
EXTRACT: note_on channel=4 note=60 velocity=112 time=0
EXTRACT: note_on channel=10 note=36 velocity=0 time=0.18645833333333334
EXTRACT: note_on channel=10 note=60 velocity=0 time=0.025
EXTRACT: note_on channel=10 note=64 velocity=0 time=0
EXTRACT: note_on channel=10 note=67 velocity=0 time=0
EXTRACT: note_on channel=0 note=88 velocity=0 time=0.025
EXTRACT: note_on channel=1 note=76 velocity=0 time=0.0125
EXTRACT: note_on channel=2 note=76 velocity=0 time=0
EXTRACT: note_on channel=3 note=72 velocity=0 time=0
EXTRACT: note_on channel=4 note=60 velocity=0 time=0
EXTRACT: note_on channel=5 note=36 velocity=0 time=0
EXTRACT: note_on channel=6 note=36 velocity=0 time=0
EXTRACT: note_on channel=0 note=84 velocity=112 time=0.0010416666666666667
EXTRACT: note_on channel=1 note=71 velocity=112 time=0
EXTRACT: note_on channel=2 note=72 velocity=112 time=0
EXTRACT: note_on channel=3 note=71 velocity=112 time=0
EXTRACT: note_on channel=4 note=59 velocity=112 time=0
EXTRACT: note_on channel=5 note=40 velocity=112 time=0
EXTRACT: note_on channel=6 note=40 velocity=112 time=0
EXTRACT: note_on channel=10 note=64 velocity=112 time=0
EXTRACT: note_on channel=10 note=67 velocity=112 time=0
EXTRACT: note_on channel=10 note=71 velocity=112 time=0
EXTRACT: note_on channel=10 note=40 velocity=112 time=0
EXTRACT: note_on channel=0 note=84 velocity=0 time=0.23645833333333333
EXTRACT: note_on channel=2 note=72 velocity=0 time=0.0125
EXTRACT: note_on channel=0 note=86 velocity=112 time=0.0010416666666666667
EXTRACT: note_on channel=2 note=74 velocity=112 time=0
EXTRACT: note_on channel=10 note=64 velocity=0 time=0.4614583333333333
EXTRACT: note_on channel=10 note=67 velocity=0 time=0
EXTRACT: note_on channel=10 note=71 velocity=0 time=0
EXTRACT: note_on channel=10 note=40 velocity=0 time=0
EXTRACT: note_on channel=0 note=86 velocity=0 time=0.0125
EXTRACT: note_on channel=1 note=71 velocity=0 time=0.025
EXTRACT: note_on channel=2 note=74 velocity=0 time=0
EXTRACT: note_on channel=3 note=71 velocity=0 time=0
EXTRACT: note_on channel=4 note=59 velocity=0 time=0
EXTRACT: note_on channel=5 note=40 velocity=0 time=0
EXTRACT: note_on channel=6 note=40 velocity=0 time=0
EXTRACT: note_on channel=0 note=86 velocity=112 time=0.0010416666666666667
EXTRACT: note_on channel=1 note=71 velocity=112 time=0
EXTRACT: note_on channel=2 note=74 velocity=112 time=0
EXTRACT: note_on channel=3 note=71 velocity=112 time=0
EXTRACT: note_on channel=4 note=59 velocity=112 time=0
EXTRACT: note_on channel=5 note=40 velocity=112 time=0
EXTRACT: note_on channel=6 note=40 velocity=112 time=0
EXTRACT: note_on channel=10 note=64 velocity=112 time=0
EXTRACT: note_on channel=10 note=67 velocity=112 time=0
EXTRACT: note_on channel=10 note=71 velocity=112 time=0
EXTRACT: note_on channel=10 note=40 velocity=112 time=0
EXTRACT: note_on channel=1 note=71 velocity=0 time=0.12395833333333334
EXTRACT: note_on channel=3 note=71 velocity=0 time=0
EXTRACT: note_on channel=4 note=59 velocity=0 time=0
EXTRACT: note_on channel=1 note=69 velocity=112 time=0.0010416666666666667
EXTRACT: note_on channel=3 note=69 velocity=112 time=0
EXTRACT: note_on channel=4 note=57 velocity=112 time=0
EXTRACT: note_on channel=1 note=69 velocity=0 time=0.12395833333333334
EXTRACT: note_on channel=3 note=69 velocity=0 time=0
EXTRACT: note_on channel=4 note=57 velocity=0 time=0
EXTRACT: note_on channel=1 note=67 velocity=112 time=0.0010416666666666667
EXTRACT: note_on channel=3 note=67 velocity=112 time=0
EXTRACT: note_on channel=4 note=55 velocity=112 time=0
EXTRACT: note_on channel=1 note=67 velocity=0 time=0.12395833333333334
EXTRACT: note_on channel=3 note=67 velocity=0 time=0
EXTRACT: note_on channel=4 note=55 velocity=0 time=0
EXTRACT: note_on channel=1 note=64 velocity=112 time=0.0010416666666666667
EXTRACT: note_on channel=3 note=64 velocity=112 time=0
EXTRACT: note_on channel=4 note=52 velocity=112 time=0
EXTRACT: note_on channel=10 note=64 velocity=0 time=0.09895833333333333
EXTRACT: note_on channel=10 note=67 velocity=0 time=0
EXTRACT: note_on channel=10 note=71 velocity=0 time=0
EXTRACT: note_on channel=6 note=40 velocity=0 time=0.025
EXTRACT: note_on channel=6 note=40 velocity=112 time=0.0010416666666666667
EXTRACT: note_on channel=10 note=64 velocity=112 time=0
EXTRACT: note_on channel=10 note=67 velocity=112 time=0
EXTRACT: note_on channel=10 note=71 velocity=112 time=0
EXTRACT: note_on channel=0 note=86 velocity=0 time=0.21145833333333333
EXTRACT: note_on channel=10 note=40 velocity=0 time=0
EXTRACT: note_on channel=10 note=64 velocity=0 time=0.025
EXTRACT: note_on channel=10 note=67 velocity=0 time=0
EXTRACT: note_on channel=10 note=71 velocity=0 time=0
EXTRACT: note_on channel=1 note=64 velocity=0 time=0.0125
EXTRACT: note_on channel=2 note=74 velocity=0 time=0
EXTRACT: note_on channel=3 note=64 velocity=0 time=0
EXTRACT: note_on channel=4 note=52 velocity=0 time=0
EXTRACT: note_on channel=5 note=40 velocity=0 time=0
EXTRACT: note_on channel=6 note=40 velocity=0 time=0
EXTRACT: note_on channel=5 note=40 velocity=112 time=0.0010416666666666667
EXTRACT: note_on channel=6 note=40 velocity=112 time=0
EXTRACT: note_on channel=10 note=64 velocity=112 time=0
EXTRACT: note_on channel=10 note=67 velocity=112 time=0
EXTRACT: note_on channel=10 note=71 velocity=112 time=0
EXTRACT: note_on channel=10 note=40 velocity=112 time=0
EXTRACT: note_on channel=10 note=40 velocity=0 time=0.23645833333333333
EXTRACT: note_on channel=5 note=40 velocity=0 time=0.0125
EXTRACT: note_on channel=5 note=41 velocity=112 time=0.0010416666666666667
EXTRACT: note_on channel=10 note=41 velocity=112 time=0
EXTRACT: note_on channel=10 note=41 velocity=0 time=0.23645833333333333
EXTRACT: note_on channel=5 note=41 velocity=0 time=0.0125
EXTRACT: note_on channel=5 note=43 velocity=112 time=0.0010416666666666667
EXTRACT: note_on channel=10 note=43 velocity=112 time=0
EXTRACT: note_on channel=1 note=67 velocity=112 time=0.125
EXTRACT: note_on channel=3 note=67 velocity=112 time=0
EXTRACT: note_on channel=4 note=55 velocity=112 time=0
EXTRACT: note_on channel=10 note=64 velocity=0 time=0.08645833333333333
EXTRACT: note_on channel=10 note=67 velocity=0 time=0
EXTRACT: note_on channel=10 note=71 velocity=0 time=0
EXTRACT: note_on channel=10 note=43 velocity=0 time=0.025
EXTRACT: note_on channel=1 note=67 velocity=0 time=0.0125
EXTRACT: note_on channel=3 note=67 velocity=0 time=0
EXTRACT: note_on channel=4 note=55 velocity=0 time=0
EXTRACT: note_on channel=5 note=43 velocity=0 time=0
EXTRACT: note_on channel=6 note=40 velocity=0 time=0
EXTRACT: note_on channel=0 note=86 velocity=112 time=0.0010416666666666667
EXTRACT: note_on channel=1 note=67 velocity=112 time=0
EXTRACT: note_on channel=2 note=74 velocity=112 time=0
EXTRACT: note_on channel=3 note=67 velocity=112 time=0
EXTRACT: note_on channel=4 note=55 velocity=112 time=0
EXTRACT: note_on channel=5 note=43 velocity=112 time=0
EXTRACT: note_on channel=6 note=40 velocity=112 time=0
EXTRACT: note_on channel=10 note=64 velocity=112 time=0
EXTRACT: note_on channel=10 note=67 velocity=112 time=0
EXTRACT: note_on channel=10 note=71 velocity=112 time=0
EXTRACT: note_on channel=10 note=43 velocity=112 time=0
EXTRACT: note_on channel=0 note=86 velocity=0 time=0.23645833333333333
EXTRACT: note_on channel=10 note=43 velocity=0 time=0
EXTRACT: note_on channel=1 note=67 velocity=0 time=0.0125
EXTRACT: note_on channel=2 note=74 velocity=0 time=0
EXTRACT: note_on channel=3 note=67 velocity=0 time=0
EXTRACT: note_on channel=4 note=55 velocity=0 time=0
EXTRACT: note_on channel=5 note=43 velocity=0 time=0
EXTRACT: note_on channel=0 note=84 velocity=112 time=0.0010416666666666667
EXTRACT: note_on channel=1 note=69 velocity=112 time=0
EXTRACT: note_on channel=2 note=72 velocity=112 time=0
EXTRACT: note_on channel=3 note=69 velocity=112 time=0
EXTRACT: note_on channel=4 note=57 velocity=112 time=0
EXTRACT: note_on channel=5 note=45 velocity=112 time=0
EXTRACT: note_on channel=10 note=45 velocity=112 time=0
EXTRACT: note_on channel=0 note=84 velocity=0 time=0.23645833333333333
EXTRACT: note_on channel=10 note=45 velocity=0 time=0
EXTRACT: note_on channel=1 note=69 velocity=0 time=0.0125
EXTRACT: note_on channel=2 note=72 velocity=0 time=0
EXTRACT: note_on channel=3 note=69 velocity=0 time=0
EXTRACT: note_on channel=4 note=57 velocity=0 time=0
EXTRACT: note_on channel=5 note=45 velocity=0 time=0
EXTRACT: note_on channel=0 note=83 velocity=112 time=0.0010416666666666667
EXTRACT: note_on channel=1 note=71 velocity=112 time=0
EXTRACT: note_on channel=2 note=71 velocity=112 time=0
EXTRACT: note_on channel=3 note=71 velocity=112 time=0
EXTRACT: note_on channel=4 note=59 velocity=112 time=0
EXTRACT: note_on channel=5 note=47 velocity=112 time=0
EXTRACT: note_on channel=10 note=47 velocity=112 time=0
EXTRACT: note_on channel=10 note=64 velocity=0 time=0.21145833333333333
EXTRACT: note_on channel=10 note=67 velocity=0 time=0
EXTRACT: note_on channel=10 note=71 velocity=0 time=0
EXTRACT: note_on channel=0 note=83 velocity=0 time=0.025
EXTRACT: note_on channel=10 note=47 velocity=0 time=0
EXTRACT: note_on channel=1 note=71 velocity=0 time=0.0125
EXTRACT: note_on channel=2 note=71 velocity=0 time=0
EXTRACT: note_on channel=3 note=71 velocity=0 time=0
EXTRACT: note_on channel=4 note=59 velocity=0 time=0
EXTRACT: note_on channel=5 note=47 velocity=0 time=0
EXTRACT: note_on channel=6 note=40 velocity=0 time=0
EXTRACT: note_on channel=0 note=84 velocity=112 time=0.0010416666666666667
EXTRACT: note_on channel=1 note=72 velocity=112 time=0
EXTRACT: note_on channel=2 note=72 velocity=112 time=0
EXTRACT: note_on channel=3 note=72 velocity=112 time=0
EXTRACT: note_on channel=4 note=60 velocity=112 time=0
EXTRACT: note_on channel=5 note=45 velocity=112 time=0
EXTRACT: note_on channel=6 note=33 velocity=112 time=0
EXTRACT: note_on channel=10 note=69 velocity=112 time=0
EXTRACT: note_on channel=10 note=72 velocity=112 time=0
EXTRACT: note_on channel=10 note=76 velocity=112 time=0
EXTRACT: note_on channel=10 note=45 velocity=112 time=0
EXTRACT: note_on channel=1 note=72 velocity=0 time=0.12395833333333334
EXTRACT: note_on channel=3 note=72 velocity=0 time=0
EXTRACT: note_on channel=4 note=60 velocity=0 time=0
EXTRACT: note_on channel=1 note=71 velocity=112 time=0.0010416666666666667
EXTRACT: note_on channel=3 note=71 velocity=112 time=0
EXTRACT: note_on channel=4 note=59 velocity=112 time=0
EXTRACT: note_on channel=1 note=71 velocity=0 time=0.12395833333333334
EXTRACT: note_on channel=3 note=71 velocity=0 time=0
EXTRACT: note_on channel=4 note=59 velocity=0 time=0
EXTRACT: note_on channel=1 note=69 velocity=112 time=0.0010416666666666667
EXTRACT: note_on channel=3 note=69 velocity=112 time=0
EXTRACT: note_on channel=4 note=57 velocity=112 time=0
EXTRACT: note_on channel=0 note=84 velocity=0 time=0.4614583333333333
EXTRACT: note_on channel=10 note=69 velocity=0 time=0
EXTRACT: note_on channel=10 note=72 velocity=0 time=0
EXTRACT: note_on channel=10 note=76 velocity=0 time=0
EXTRACT: note_on channel=10 note=45 velocity=0 time=0
EXTRACT: note_on channel=1 note=69 velocity=0 time=0.0375
EXTRACT: note_on channel=2 note=72 velocity=0 time=0
EXTRACT: note_on channel=3 note=69 velocity=0 time=0
EXTRACT: note_on channel=4 note=57 velocity=0 time=0
EXTRACT: note_on channel=5 note=45 velocity=0 time=0
EXTRACT: note_on channel=6 note=33 velocity=0 time=0
EXTRACT: note_on channel=0 note=84 velocity=112 time=0.0010416666666666667
EXTRACT: note_on channel=1 note=69 velocity=112 time=0
EXTRACT: note_on channel=2 note=72 velocity=112 time=0
EXTRACT: note_on channel=3 note=69 velocity=112 time=0
EXTRACT: note_on channel=4 note=57 velocity=112 time=0
EXTRACT: note_on channel=5 note=45 velocity=112 time=0
EXTRACT: note_on channel=6 note=33 velocity=112 time=0
EXTRACT: note_on channel=10 note=69 velocity=112 time=0
EXTRACT: note_on channel=10 note=72 velocity=112 time=0
EXTRACT: note_on channel=10 note=76 velocity=112 time=0
EXTRACT: note_on channel=10 note=45 velocity=112 time=0
EXTRACT: note_on channel=6 note=33 velocity=0 time=0.49895833333333334
EXTRACT: note_on channel=6 note=33 velocity=112 time=0.0010416666666666667
EXTRACT: note_on channel=0 note=84 velocity=0 time=0.21145833333333333
EXTRACT: note_on channel=10 note=69 velocity=0 time=0
EXTRACT: note_on channel=10 note=72 velocity=0 time=0
EXTRACT: note_on channel=10 note=76 velocity=0 time=0
EXTRACT: note_on channel=10 note=45 velocity=0 time=0
EXTRACT: note_on channel=1 note=69 velocity=0 time=0.0375
EXTRACT: note_on channel=2 note=72 velocity=0 time=0
EXTRACT: note_on channel=3 note=69 velocity=0 time=0
EXTRACT: note_on channel=4 note=57 velocity=0 time=0
EXTRACT: note_on channel=5 note=45 velocity=0 time=0
EXTRACT: note_on channel=6 note=33 velocity=0 time=0
EXTRACT: note_on channel=6 note=33 velocity=112 time=0.0010416666666666667
EXTRACT: note_on channel=10 note=69 velocity=112 time=0
EXTRACT: note_on channel=10 note=72 velocity=112 time=0
EXTRACT: note_on channel=10 note=76 velocity=112 time=0
EXTRACT: note_on channel=0 note=84 velocity=112 time=0.25
EXTRACT: note_on channel=1 note=69 velocity=112 time=0
EXTRACT: note_on channel=2 note=72 velocity=112 time=0
EXTRACT: note_on channel=3 note=69 velocity=112 time=0
EXTRACT: note_on channel=4 note=57 velocity=112 time=0
EXTRACT: note_on channel=10 note=45 velocity=112 time=0
EXTRACT: note_on channel=0 note=84 velocity=0 time=0.23645833333333333
EXTRACT: note_on channel=10 note=45 velocity=0 time=0
EXTRACT: note_on channel=1 note=69 velocity=0 time=0.0125
EXTRACT: note_on channel=2 note=72 velocity=0 time=0
EXTRACT: note_on channel=3 note=69 velocity=0 time=0
EXTRACT: note_on channel=4 note=57 velocity=0 time=0
EXTRACT: note_on channel=0 note=84 velocity=112 time=0.0010416666666666667
EXTRACT: note_on channel=1 note=72 velocity=112 time=0
EXTRACT: note_on channel=2 note=72 velocity=112 time=0
EXTRACT: note_on channel=3 note=72 velocity=112 time=0
EXTRACT: note_on channel=4 note=60 velocity=112 time=0
EXTRACT: note_on channel=10 note=45 velocity=112 time=0
EXTRACT: note_on channel=10 note=69 velocity=0 time=0.21145833333333333
EXTRACT: note_on channel=10 note=72 velocity=0 time=0
EXTRACT: note_on channel=10 note=76 velocity=0 time=0
EXTRACT: note_on channel=0 note=84 velocity=0 time=0.025
EXTRACT: note_on channel=10 note=45 velocity=0 time=0
EXTRACT: note_on channel=1 note=72 velocity=0 time=0.0125
EXTRACT: note_on channel=2 note=72 velocity=0 time=0
EXTRACT: note_on channel=3 note=72 velocity=0 time=0
EXTRACT: note_on channel=4 note=60 velocity=0 time=0
EXTRACT: note_on channel=6 note=33 velocity=0 time=0
EXTRACT: note_on channel=0 note=83 velocity=112 time=0.0010416666666666667
EXTRACT: note_on channel=1 note=67 velocity=112 time=0
EXTRACT: note_on channel=2 note=71 velocity=112 time=0
EXTRACT: note_on channel=3 note=67 velocity=112 time=0
EXTRACT: note_on channel=4 note=55 velocity=112 time=0
EXTRACT: note_on channel=6 note=33 velocity=112 time=0
EXTRACT: note_on channel=10 note=69 velocity=112 time=0
EXTRACT: note_on channel=10 note=72 velocity=112 time=0
EXTRACT: note_on channel=10 note=76 velocity=112 time=0
EXTRACT: note_on channel=10 note=45 velocity=112 time=0
EXTRACT: note_on channel=0 note=83 velocity=0 time=0.23645833333333333
EXTRACT: note_on channel=10 note=45 velocity=0 time=0
EXTRACT: note_on channel=1 note=67 velocity=0 time=0.0125
EXTRACT: note_on channel=2 note=71 velocity=0 time=0
EXTRACT: note_on channel=3 note=67 velocity=0 time=0
EXTRACT: note_on channel=4 note=55 velocity=0 time=0
EXTRACT: note_on channel=0 note=81 velocity=112 time=0.0010416666666666667
EXTRACT: note_on channel=1 note=67 velocity=112 time=0
EXTRACT: note_on channel=2 note=69 velocity=112 time=0
EXTRACT: note_on channel=3 note=67 velocity=112 time=0
EXTRACT: note_on channel=4 note=55 velocity=112 time=0
EXTRACT: note_on channel=10 note=43 velocity=112 time=0
EXTRACT: note_on channel=0 note=81 velocity=0 time=0.23645833333333333
EXTRACT: note_on channel=10 note=43 velocity=0 time=0
EXTRACT: note_on channel=1 note=67 velocity=0 time=0.0125
EXTRACT: note_on channel=2 note=69 velocity=0 time=0
EXTRACT: note_on channel=3 note=67 velocity=0 time=0
EXTRACT: note_on channel=4 note=55 velocity=0 time=0
EXTRACT: note_on channel=0 note=79 velocity=112 time=0.0010416666666666667
EXTRACT: note_on channel=1 note=64 velocity=112 time=0
EXTRACT: note_on channel=2 note=67 velocity=112 time=0
EXTRACT: note_on channel=3 note=64 velocity=112 time=0
EXTRACT: note_on channel=4 note=52 velocity=112 time=0
EXTRACT: note_on channel=10 note=40 velocity=112 time=0
EXTRACT: note_on channel=10 note=69 velocity=0 time=0.21145833333333333
EXTRACT: note_on channel=10 note=72 velocity=0 time=0
EXTRACT: note_on channel=10 note=76 velocity=0 time=0
EXTRACT: note_on channel=0 note=79 velocity=0 time=0.025
EXTRACT: note_on channel=10 note=40 velocity=0 time=0
EXTRACT: note_on channel=1 note=64 velocity=0 time=0.0125
EXTRACT: note_on channel=2 note=67 velocity=0 time=0
EXTRACT: note_on channel=3 note=64 velocity=0 time=0
EXTRACT: note_on channel=4 note=52 velocity=0 time=0
EXTRACT: note_on channel=6 note=33 velocity=0 time=0
EXTRACT: note_on channel=0 note=81 velocity=112 time=0.0010416666666666667
EXTRACT: note_on channel=1 note=65 velocity=112 time=0
EXTRACT: note_on channel=2 note=69 velocity=112 time=0
EXTRACT: note_on channel=3 note=65 velocity=112 time=0
EXTRACT: note_on channel=4 note=65 velocity=112 time=0
EXTRACT: note_on channel=5 note=53 velocity=112 time=0
EXTRACT: note_on channel=6 note=29 velocity=112 time=0
EXTRACT: note_on channel=10 note=65 velocity=112 time=0
EXTRACT: note_on channel=10 note=69 velocity=112 time=0
EXTRACT: note_on channel=10 note=72 velocity=112 time=0
EXTRACT: note_on channel=10 note=41 velocity=112 time=0
EXTRACT: note_on channel=0 note=81 velocity=0 time=0.4739583333333333
EXTRACT: note_on channel=10 note=41 velocity=0 time=0
EXTRACT: note_on channel=1 note=65 velocity=0 time=0.025
EXTRACT: note_on channel=2 note=69 velocity=0 time=0
EXTRACT: note_on channel=3 note=65 velocity=0 time=0
EXTRACT: note_on channel=4 note=65 velocity=0 time=0
EXTRACT: note_on channel=5 note=53 velocity=0 time=0
EXTRACT: note_on channel=0 note=79 velocity=112 time=0.0010416666666666667
EXTRACT: note_on channel=1 note=64 velocity=112 time=0
EXTRACT: note_on channel=2 note=67 velocity=112 time=0
EXTRACT: note_on channel=3 note=64 velocity=112 time=0
EXTRACT: note_on channel=4 note=64 velocity=112 time=0
EXTRACT: note_on channel=5 note=52 velocity=112 time=0
EXTRACT: note_on channel=10 note=40 velocity=112 time=0
EXTRACT: note_on channel=10 note=65 velocity=0 time=0.21145833333333333
EXTRACT: note_on channel=10 note=69 velocity=0 time=0
EXTRACT: note_on channel=10 note=72 velocity=0 time=0
EXTRACT: note_on channel=0 note=79 velocity=0 time=0.025
EXTRACT: note_on channel=10 note=40 velocity=0 time=0
EXTRACT: note_on channel=1 note=64 velocity=0 time=0.0125
EXTRACT: note_on channel=2 note=67 velocity=0 time=0
EXTRACT: note_on channel=3 note=64 velocity=0 time=0
EXTRACT: note_on channel=4 note=64 velocity=0 time=0
EXTRACT: note_on channel=5 note=52 velocity=0 time=0
EXTRACT: note_on channel=6 note=29 velocity=0 time=0
EXTRACT: note_on channel=0 note=81 velocity=112 time=0.0010416666666666667
EXTRACT: note_on channel=1 note=65 velocity=112 time=0
EXTRACT: note_on channel=2 note=69 velocity=112 time=0
EXTRACT: note_on channel=3 note=65 velocity=112 time=0
EXTRACT: note_on channel=4 note=65 velocity=112 time=0
EXTRACT: note_on channel=5 note=53 velocity=112 time=0
EXTRACT: note_on channel=6 note=29 velocity=112 time=0
EXTRACT: note_on channel=10 note=65 velocity=112 time=0
EXTRACT: note_on channel=10 note=69 velocity=112 time=0
EXTRACT: note_on channel=10 note=72 velocity=112 time=0
EXTRACT: note_on channel=10 note=41 velocity=112 time=0
EXTRACT: note_on channel=1 note=65 velocity=0 time=0.24895833333333334
EXTRACT: note_on channel=3 note=65 velocity=0 time=0
EXTRACT: note_on channel=1 note=69 velocity=112 time=0.0010416666666666667
EXTRACT: note_on channel=3 note=69 velocity=112 time=0
EXTRACT: note_on channel=0 note=81 velocity=0 time=0.22395833333333334
EXTRACT: note_on channel=10 note=41 velocity=0 time=0
EXTRACT: note_on channel=1 note=69 velocity=0 time=0.025
EXTRACT: note_on channel=2 note=69 velocity=0 time=0
EXTRACT: note_on channel=3 note=69 velocity=0 time=0
EXTRACT: note_on channel=4 note=65 velocity=0 time=0
EXTRACT: note_on channel=5 note=53 velocity=0 time=0
EXTRACT: note_on channel=6 note=29 velocity=0 time=0
EXTRACT: note_on channel=0 note=79 velocity=112 time=0.0010416666666666667
EXTRACT: note_on channel=1 note=64 velocity=112 time=0
EXTRACT: note_on channel=2 note=67 velocity=112 time=0
EXTRACT: note_on channel=3 note=64 velocity=112 time=0
EXTRACT: note_on channel=4 note=64 velocity=112 time=0
EXTRACT: note_on channel=5 note=52 velocity=112 time=0
EXTRACT: note_on channel=6 note=29 velocity=112 time=0
EXTRACT: note_on channel=10 note=40 velocity=112 time=0
EXTRACT: note_on channel=10 note=65 velocity=0 time=0.21145833333333333
EXTRACT: note_on channel=10 note=69 velocity=0 time=0
EXTRACT: note_on channel=10 note=72 velocity=0 time=0
EXTRACT: note_on channel=0 note=79 velocity=0 time=0.025
EXTRACT: note_on channel=10 note=40 velocity=0 time=0
EXTRACT: note_on channel=1 note=64 velocity=0 time=0.0125
EXTRACT: note_on channel=2 note=67 velocity=0 time=0
EXTRACT: note_on channel=3 note=64 velocity=0 time=0
EXTRACT: note_on channel=4 note=64 velocity=0 time=0
EXTRACT: note_on channel=5 note=52 velocity=0 time=0
EXTRACT: note_on channel=6 note=29 velocity=0 time=0
EXTRACT: note_on channel=0 note=84 velocity=112 time=0.0010416666666666667
EXTRACT: note_on channel=1 note=72 velocity=112 time=0
EXTRACT: note_on channel=2 note=72 velocity=112 time=0
EXTRACT: note_on channel=3 note=72 velocity=112 time=0
EXTRACT: note_on channel=4 note=67 velocity=112 time=0
EXTRACT: note_on channel=5 note=55 velocity=112 time=0
EXTRACT: note_on channel=6 note=29 velocity=112 time=0
EXTRACT: note_on channel=10 note=65 velocity=112 time=0
EXTRACT: note_on channel=10 note=69 velocity=112 time=0
EXTRACT: note_on channel=10 note=72 velocity=112 time=0
EXTRACT: note_on channel=10 note=43 velocity=112 time=0
EXTRACT: note_on channel=1 note=72 velocity=0 time=0.49895833333333334
EXTRACT: note_on channel=3 note=72 velocity=0 time=0
EXTRACT: note_on channel=1 note=67 velocity=112 time=0.0010416666666666667
EXTRACT: note_on channel=3 note=67 velocity=112 time=0
EXTRACT: note_on channel=0 note=84 velocity=0 time=0.21145833333333333
EXTRACT: note_on channel=10 note=65 velocity=0 time=0
EXTRACT: note_on channel=10 note=69 velocity=0 time=0
EXTRACT: note_on channel=10 note=72 velocity=0 time=0
EXTRACT: note_on channel=1 note=67 velocity=0 time=0.0375
EXTRACT: note_on channel=2 note=72 velocity=0 time=0
EXTRACT: note_on channel=3 note=67 velocity=0 time=0
EXTRACT: note_on channel=4 note=67 velocity=0 time=0
EXTRACT: note_on channel=5 note=55 velocity=0 time=0
EXTRACT: note_on channel=6 note=29 velocity=0 time=0
EXTRACT: note_on channel=1 note=69 velocity=112 time=0.0010416666666666667
EXTRACT: note_on channel=3 note=69 velocity=112 time=0
EXTRACT: note_on channel=6 note=29 velocity=112 time=0
EXTRACT: note_on channel=10 note=65 velocity=112 time=0
EXTRACT: note_on channel=10 note=69 velocity=112 time=0
EXTRACT: note_on channel=10 note=72 velocity=112 time=0
EXTRACT: note_on channel=1 note=69 velocity=0 time=0.24895833333333334
EXTRACT: note_on channel=3 note=69 velocity=0 time=0
EXTRACT: note_on channel=1 note=64 velocity=112 time=0.0010416666666666667
EXTRACT: note_on channel=3 note=64 velocity=112 time=0
EXTRACT: note_on channel=1 note=64 velocity=0 time=0.24895833333333334
EXTRACT: note_on channel=3 note=64 velocity=0 time=0
EXTRACT: note_on channel=1 note=64 velocity=112 time=0.0010416666666666667
EXTRACT: note_on channel=3 note=64 velocity=112 time=0
EXTRACT: note_on channel=10 note=43 velocity=0 time=0.17395833333333333
EXTRACT: note_on channel=10 note=65 velocity=0 time=0.0375
EXTRACT: note_on channel=10 note=69 velocity=0 time=0
EXTRACT: note_on channel=10 note=72 velocity=0 time=0
EXTRACT: note_on channel=1 note=64 velocity=0 time=0.0375
EXTRACT: note_on channel=3 note=64 velocity=0 time=0
EXTRACT: note_on channel=6 note=29 velocity=0 time=0
EXTRACT: note_on channel=1 note=69 velocity=126 time=0.0010416666666666667
EXTRACT: note_on channel=3 note=69 velocity=126 time=0
EXTRACT: note_on channel=4 note=69 velocity=126 time=0
EXTRACT: note_on channel=5 note=36 velocity=126 time=0
EXTRACT: note_on channel=6 note=36 velocity=126 time=0
EXTRACT: note_on channel=10 note=60 velocity=126 time=0
EXTRACT: note_on channel=10 note=64 velocity=126 time=0
EXTRACT: note_on channel=10 note=67 velocity=126 time=0
EXTRACT: note_on channel=1 note=69 velocity=0 time=0.24895833333333334
EXTRACT: note_on channel=3 note=69 velocity=0 time=0
EXTRACT: note_on channel=4 note=69 velocity=0 time=0
EXTRACT: note_on channel=1 note=67 velocity=126 time=0.0010416666666666667
EXTRACT: note_on channel=3 note=67 velocity=126 time=0
EXTRACT: note_on channel=4 note=67 velocity=126 time=0
EXTRACT: note_on channel=0 note=88 velocity=126 time=0.25
EXTRACT: note_on channel=2 note=76 velocity=126 time=0
EXTRACT: note_on channel=10 note=60 velocity=0 time=0.21145833333333333
EXTRACT: note_on channel=10 note=64 velocity=0 time=0
EXTRACT: note_on channel=10 note=67 velocity=0 time=0
EXTRACT: note_on channel=0 note=88 velocity=0 time=0.025
EXTRACT: note_on channel=1 note=67 velocity=0 time=0.0125
EXTRACT: note_on channel=2 note=76 velocity=0 time=0
EXTRACT: note_on channel=3 note=67 velocity=0 time=0
EXTRACT: note_on channel=4 note=67 velocity=0 time=0
EXTRACT: note_on channel=5 note=36 velocity=0 time=0
EXTRACT: note_on channel=6 note=36 velocity=0 time=0
EXTRACT: note_on channel=0 note=91 velocity=126 time=0.0010416666666666667
EXTRACT: note_on channel=1 note=67 velocity=126 time=0
EXTRACT: note_on channel=2 note=79 velocity=126 time=0
EXTRACT: note_on channel=3 note=67 velocity=126 time=0
EXTRACT: note_on channel=4 note=67 velocity=126 time=0
EXTRACT: note_on channel=6 note=36 velocity=126 time=0
EXTRACT: note_on channel=10 note=60 velocity=126 time=0
EXTRACT: note_on channel=10 note=64 velocity=126 time=0
EXTRACT: note_on channel=10 note=67 velocity=126 time=0
EXTRACT: note_on channel=0 note=91 velocity=0 time=0.23645833333333333
EXTRACT: note_on channel=2 note=79 velocity=0 time=0.0125
EXTRACT: note_on channel=0 note=88 velocity=126 time=0.0010416666666666667
EXTRACT: note_on channel=2 note=76 velocity=126 time=0
EXTRACT: note_on channel=0 note=88 velocity=0 time=0.23645833333333333
EXTRACT: note_on channel=2 note=76 velocity=0 time=0.0125
EXTRACT: note_on channel=6 note=36 velocity=0 time=0
EXTRACT: note_on channel=0 note=86 velocity=126 time=0.0010416666666666667
EXTRACT: note_on channel=2 note=74 velocity=126 time=0
EXTRACT: note_on channel=6 note=36 velocity=126 time=0
EXTRACT: note_on channel=10 note=60 velocity=0 time=0.21145833333333333
EXTRACT: note_on channel=10 note=64 velocity=0 time=0
EXTRACT: note_on channel=10 note=67 velocity=0 time=0
EXTRACT: note_on channel=0 note=86 velocity=0 time=0.025
EXTRACT: note_on channel=1 note=67 velocity=0 time=0.0125
EXTRACT: note_on channel=2 note=74 velocity=0 time=0
EXTRACT: note_on channel=3 note=67 velocity=0 time=0
EXTRACT: note_on channel=4 note=67 velocity=0 time=0
EXTRACT: note_on channel=6 note=36 velocity=0 time=0
EXTRACT: note_on channel=0 note=86 velocity=126 time=0.0010416666666666667
EXTRACT: note_on channel=2 note=74 velocity=126 time=0
EXTRACT: note_on channel=6 note=36 velocity=126 time=0
EXTRACT: note_on channel=10 note=60 velocity=126 time=0
EXTRACT: note_on channel=10 note=64 velocity=126 time=0
EXTRACT: note_on channel=10 note=67 velocity=126 time=0
EXTRACT: note_on channel=0 note=86 velocity=0 time=0.23645833333333333
EXTRACT: note_on channel=2 note=74 velocity=0 time=0.0125
EXTRACT: note_on channel=0 note=84 velocity=126 time=0.0010416666666666667
EXTRACT: note_on channel=2 note=72 velocity=126 time=0
EXTRACT: note_on channel=5 note=36 velocity=126 time=0
EXTRACT: note_on channel=10 note=36 velocity=126 time=0
EXTRACT: note_on channel=0 note=84 velocity=0 time=0.23645833333333333
EXTRACT: note_on channel=2 note=72 velocity=0 time=0.0125
EXTRACT: note_on channel=0 note=84 velocity=126 time=0.0010416666666666667
EXTRACT: note_on channel=1 note=64 velocity=126 time=0
EXTRACT: note_on channel=2 note=72 velocity=126 time=0
EXTRACT: note_on channel=3 note=64 velocity=126 time=0
EXTRACT: note_on channel=4 note=64 velocity=126 time=0
EXTRACT: note_on channel=10 note=60 velocity=0 time=0.21145833333333333
EXTRACT: note_on channel=10 note=64 velocity=0 time=0
EXTRACT: note_on channel=10 note=67 velocity=0 time=0
EXTRACT: note_on channel=1 note=64 velocity=0 time=0.0375
EXTRACT: note_on channel=3 note=64 velocity=0 time=0
EXTRACT: note_on channel=4 note=64 velocity=0 time=0
EXTRACT: note_on channel=6 note=36 velocity=0 time=0
EXTRACT: note_on channel=1 note=69 velocity=126 time=0.0010416666666666667
EXTRACT: note_on channel=3 note=69 velocity=126 time=0
EXTRACT: note_on channel=4 note=69 velocity=126 time=0
EXTRACT: note_on channel=6 note=36 velocity=126 time=0
EXTRACT: note_on channel=10 note=60 velocity=126 time=0
EXTRACT: note_on channel=10 note=64 velocity=126 time=0
EXTRACT: note_on channel=10 note=67 velocity=126 time=0
EXTRACT: note_on channel=1 note=69 velocity=0 time=0.24895833333333334
EXTRACT: note_on channel=3 note=69 velocity=0 time=0
EXTRACT: note_on channel=4 note=69 velocity=0 time=0
EXTRACT: note_on channel=1 note=69 velocity=126 time=0.0010416666666666667
EXTRACT: note_on channel=3 note=69 velocity=126 time=0
EXTRACT: note_on channel=4 note=69 velocity=126 time=0
EXTRACT: note_on channel=1 note=69 velocity=0 time=0.24895833333333334
EXTRACT: note_on channel=3 note=69 velocity=0 time=0
EXTRACT: note_on channel=4 note=69 velocity=0 time=0
EXTRACT: note_on channel=1 note=67 velocity=126 time=0.0010416666666666667
EXTRACT: note_on channel=3 note=67 velocity=126 time=0
EXTRACT: note_on channel=4 note=67 velocity=126 time=0
EXTRACT: note_on channel=10 note=36 velocity=0 time=0.18645833333333334
EXTRACT: note_on channel=0 note=84 velocity=0 time=0.0125
EXTRACT: note_on channel=10 note=60 velocity=0 time=0.0125
EXTRACT: note_on channel=10 note=64 velocity=0 time=0
EXTRACT: note_on channel=10 note=67 velocity=0 time=0
EXTRACT: note_on channel=1 note=67 velocity=0 time=0.0375
EXTRACT: note_on channel=2 note=72 velocity=0 time=0
EXTRACT: note_on channel=3 note=67 velocity=0 time=0
EXTRACT: note_on channel=4 note=67 velocity=0 time=0
EXTRACT: note_on channel=5 note=36 velocity=0 time=0
EXTRACT: note_on channel=6 note=36 velocity=0 time=0
EXTRACT: note_on channel=1 note=71 velocity=126 time=0.0010416666666666667
EXTRACT: note_on channel=3 note=71 velocity=126 time=0
EXTRACT: note_on channel=4 note=71 velocity=126 time=0
EXTRACT: note_on channel=5 note=40 velocity=126 time=0
EXTRACT: note_on channel=6 note=40 velocity=126 time=0
EXTRACT: note_on channel=10 note=64 velocity=126 time=0
EXTRACT: note_on channel=10 note=67 velocity=126 time=0
EXTRACT: note_on channel=10 note=71 velocity=126 time=0
EXTRACT: note_on channel=10 note=40 velocity=126 time=0
EXTRACT: note_on channel=1 note=71 velocity=0 time=0.24895833333333334
EXTRACT: note_on channel=3 note=71 velocity=0 time=0
EXTRACT: note_on channel=4 note=71 velocity=0 time=0
EXTRACT: note_on channel=1 note=69 velocity=126 time=0.0010416666666666667
EXTRACT: note_on channel=3 note=69 velocity=126 time=0
EXTRACT: note_on channel=4 note=69 velocity=126 time=0
EXTRACT: note_on channel=1 note=69 velocity=0 time=0.24895833333333334
EXTRACT: note_on channel=3 note=69 velocity=0 time=0
EXTRACT: note_on channel=4 note=69 velocity=0 time=0
EXTRACT: note_on channel=0 note=88 velocity=126 time=0.0010416666666666667
EXTRACT: note_on channel=1 note=67 velocity=126 time=0
EXTRACT: note_on channel=2 note=76 velocity=126 time=0
EXTRACT: note_on channel=3 note=67 velocity=126 time=0
EXTRACT: note_on channel=4 note=67 velocity=126 time=0
EXTRACT: note_on channel=10 note=64 velocity=0 time=0.21145833333333333
EXTRACT: note_on channel=10 note=67 velocity=0 time=0
EXTRACT: note_on channel=10 note=71 velocity=0 time=0
EXTRACT: note_on channel=10 note=40 velocity=0 time=0
EXTRACT: note_on channel=0 note=88 velocity=0 time=0.025
EXTRACT: note_on channel=1 note=67 velocity=0 time=0.0125
EXTRACT: note_on channel=2 note=76 velocity=0 time=0
EXTRACT: note_on channel=3 note=67 velocity=0 time=0
EXTRACT: note_on channel=4 note=67 velocity=0 time=0
EXTRACT: note_on channel=5 note=40 velocity=0 time=0
EXTRACT: note_on channel=6 note=40 velocity=0 time=0
EXTRACT: note_on channel=0 note=91 velocity=126 time=0.0010416666666666667
EXTRACT: note_on channel=1 note=64 velocity=126 time=0
EXTRACT: note_on channel=2 note=79 velocity=126 time=0
EXTRACT: note_on channel=3 note=64 velocity=126 time=0
EXTRACT: note_on channel=4 note=64 velocity=126 time=0
EXTRACT: note_on channel=5 note=40 velocity=126 time=0
EXTRACT: note_on channel=6 note=40 velocity=126 time=0
EXTRACT: note_on channel=10 note=64 velocity=126 time=0
EXTRACT: note_on channel=10 note=67 velocity=126 time=0
EXTRACT: note_on channel=10 note=71 velocity=126 time=0
EXTRACT: note_on channel=10 note=40 velocity=126 time=0
EXTRACT: note_on channel=1 note=64 velocity=0 time=0.12395833333333334
EXTRACT: note_on channel=3 note=64 velocity=0 time=0
EXTRACT: note_on channel=4 note=64 velocity=0 time=0
EXTRACT: note_on channel=1 note=60 velocity=126 time=0.0010416666666666667
EXTRACT: note_on channel=3 note=60 velocity=126 time=0
EXTRACT: note_on channel=4 note=60 velocity=126 time=0
EXTRACT: note_on channel=0 note=91 velocity=0 time=0.11145833333333333
EXTRACT: note_on channel=1 note=60 velocity=0 time=0.0125
EXTRACT: note_on channel=2 note=79 velocity=0 time=0
EXTRACT: note_on channel=3 note=60 velocity=0 time=0
EXTRACT: note_on channel=4 note=60 velocity=0 time=0
EXTRACT: note_on channel=0 note=88 velocity=126 time=0.0010416666666666667
EXTRACT: note_on channel=1 note=62 velocity=126 time=0
EXTRACT: note_on channel=2 note=76 velocity=126 time=0
EXTRACT: note_on channel=3 note=62 velocity=126 time=0
EXTRACT: note_on channel=4 note=62 velocity=126 time=0
EXTRACT: note_on channel=10 note=64 velocity=0 time=0.22395833333333334
EXTRACT: note_on channel=10 note=67 velocity=0 time=0
EXTRACT: note_on channel=10 note=71 velocity=0 time=0
EXTRACT: note_on channel=0 note=88 velocity=0 time=0.0125
EXTRACT: note_on channel=2 note=76 velocity=0 time=0.0125
EXTRACT: note_on channel=6 note=40 velocity=0 time=0
EXTRACT: note_on channel=0 note=86 velocity=126 time=0.0010416666666666667
EXTRACT: note_on channel=2 note=74 velocity=126 time=0
EXTRACT: note_on channel=6 note=40 velocity=126 time=0
EXTRACT: note_on channel=10 note=64 velocity=126 time=0
EXTRACT: note_on channel=10 note=67 velocity=126 time=0
EXTRACT: note_on channel=10 note=71 velocity=126 time=0
EXTRACT: note_on channel=10 note=40 velocity=0 time=0.21145833333333333
EXTRACT: note_on channel=0 note=86 velocity=0 time=0.025
EXTRACT: note_on channel=10 note=64 velocity=0 time=0
EXTRACT: note_on channel=10 note=67 velocity=0 time=0
EXTRACT: note_on channel=10 note=71 velocity=0 time=0
EXTRACT: note_on channel=1 note=62 velocity=0 time=0.0125
EXTRACT: note_on channel=2 note=74 velocity=0 time=0
EXTRACT: note_on channel=3 note=62 velocity=0 time=0
EXTRACT: note_on channel=4 note=62 velocity=0 time=0
EXTRACT: note_on channel=5 note=40 velocity=0 time=0
EXTRACT: note_on channel=6 note=40 velocity=0 time=0
EXTRACT: note_on channel=0 note=86 velocity=126 time=0.0010416666666666667
EXTRACT: note_on channel=2 note=74 velocity=126 time=0
EXTRACT: note_on channel=5 note=40 velocity=126 time=0
EXTRACT: note_on channel=6 note=40 velocity=126 time=0
EXTRACT: note_on channel=10 note=64 velocity=126 time=0
EXTRACT: note_on channel=10 note=67 velocity=126 time=0
EXTRACT: note_on channel=10 note=71 velocity=126 time=0
EXTRACT: note_on channel=10 note=40 velocity=126 time=0
EXTRACT: note_on channel=0 note=86 velocity=0 time=0.23645833333333333
EXTRACT: note_on channel=10 note=40 velocity=0 time=0
EXTRACT: note_on channel=2 note=74 velocity=0 time=0.0125
EXTRACT: note_on channel=5 note=40 velocity=0 time=0
EXTRACT: note_on channel=0 note=84 velocity=126 time=0.0010416666666666667
EXTRACT: note_on channel=2 note=72 velocity=126 time=0
EXTRACT: note_on channel=5 note=41 velocity=126 time=0
EXTRACT: note_on channel=10 note=41 velocity=126 time=0
EXTRACT: note_on channel=0 note=84 velocity=0 time=0.23645833333333333
EXTRACT: note_on channel=10 note=41 velocity=0 time=0
EXTRACT: note_on channel=2 note=72 velocity=0 time=0.0125
EXTRACT: note_on channel=5 note=41 velocity=0 time=0
EXTRACT: note_on channel=0 note=86 velocity=126 time=0.0010416666666666667
EXTRACT: note_on channel=2 note=74 velocity=126 time=0
EXTRACT: note_on channel=5 note=43 velocity=126 time=0
EXTRACT: note_on channel=10 note=43 velocity=126 time=0
EXTRACT: note_on channel=10 note=64 velocity=0 time=0.21145833333333333
EXTRACT: note_on channel=10 note=67 velocity=0 time=0
EXTRACT: note_on channel=10 note=71 velocity=0 time=0
EXTRACT: note_on channel=10 note=43 velocity=0 time=0.025
EXTRACT: note_on channel=5 note=43 velocity=0 time=0.0125
EXTRACT: note_on channel=6 note=40 velocity=0 time=0
EXTRACT: note_on channel=1 note=64 velocity=126 time=0.0010416666666666667
EXTRACT: note_on channel=3 note=64 velocity=126 time=0
EXTRACT: note_on channel=4 note=64 velocity=126 time=0
EXTRACT: note_on channel=5 note=43 velocity=126 time=0
EXTRACT: note_on channel=6 note=40 velocity=126 time=0
EXTRACT: note_on channel=10 note=64 velocity=126 time=0
EXTRACT: note_on channel=10 note=67 velocity=126 time=0
EXTRACT: note_on channel=10 note=71 velocity=126 time=0
EXTRACT: note_on channel=10 note=43 velocity=126 time=0
EXTRACT: note_on channel=10 note=43 velocity=0 time=0.23645833333333333
EXTRACT: note_on channel=1 note=64 velocity=0 time=0.0125
EXTRACT: note_on channel=3 note=64 velocity=0 time=0
EXTRACT: note_on channel=4 note=64 velocity=0 time=0
EXTRACT: note_on channel=5 note=43 velocity=0 time=0
EXTRACT: note_on channel=1 note=62 velocity=126 time=0.0010416666666666667
EXTRACT: note_on channel=3 note=62 velocity=126 time=0
EXTRACT: note_on channel=4 note=62 velocity=126 time=0
EXTRACT: note_on channel=5 note=45 velocity=126 time=0
EXTRACT: note_on channel=10 note=45 velocity=126 time=0
EXTRACT: note_on channel=10 note=45 velocity=0 time=0.23645833333333333
EXTRACT: note_on channel=1 note=62 velocity=0 time=0.0125
EXTRACT: note_on channel=3 note=62 velocity=0 time=0
EXTRACT: note_on channel=4 note=62 velocity=0 time=0
EXTRACT: note_on channel=5 note=45 velocity=0 time=0
EXTRACT: note_on channel=1 note=60 velocity=126 time=0.0010416666666666667
EXTRACT: note_on channel=3 note=60 velocity=126 time=0
EXTRACT: note_on channel=4 note=60 velocity=126 time=0
EXTRACT: note_on channel=5 note=47 velocity=126 time=0
EXTRACT: note_on channel=10 note=47 velocity=126 time=0
EXTRACT: note_on channel=0 note=86 velocity=0 time=0.19895833333333332
EXTRACT: note_on channel=10 note=64 velocity=0 time=0.0125
EXTRACT: note_on channel=10 note=67 velocity=0 time=0
EXTRACT: note_on channel=10 note=71 velocity=0 time=0
EXTRACT: note_on channel=10 note=47 velocity=0 time=0.025
EXTRACT: note_on channel=1 note=60 velocity=0 time=0.0125
EXTRACT: note_on channel=2 note=74 velocity=0 time=0
EXTRACT: note_on channel=3 note=60 velocity=0 time=0
EXTRACT: note_on channel=4 note=60 velocity=0 time=0
EXTRACT: note_on channel=5 note=47 velocity=0 time=0
EXTRACT: note_on channel=6 note=40 velocity=0 time=0
EXTRACT: note_on channel=1 note=62 velocity=126 time=0.0010416666666666667
EXTRACT: note_on channel=3 note=62 velocity=126 time=0
EXTRACT: note_on channel=4 note=62 velocity=126 time=0
EXTRACT: note_on channel=5 note=45 velocity=126 time=0
EXTRACT: note_on channel=6 note=33 velocity=126 time=0
EXTRACT: note_on channel=10 note=69 velocity=126 time=0
EXTRACT: note_on channel=10 note=72 velocity=126 time=0
EXTRACT: note_on channel=10 note=76 velocity=126 time=0
EXTRACT: note_on channel=10 note=45 velocity=126 time=0
EXTRACT: note_on channel=1 note=62 velocity=0 time=0.24895833333333334
EXTRACT: note_on channel=3 note=62 velocity=0 time=0
EXTRACT: note_on channel=4 note=62 velocity=0 time=0
EXTRACT: note_on channel=1 note=64 velocity=126 time=0.0010416666666666667
EXTRACT: note_on channel=3 note=64 velocity=126 time=0
EXTRACT: note_on channel=4 note=64 velocity=126 time=0
EXTRACT: note_on channel=10 note=69 velocity=0 time=0.4614583333333333
EXTRACT: note_on channel=10 note=72 velocity=0 time=0
EXTRACT: note_on channel=10 note=76 velocity=0 time=0
EXTRACT: note_on channel=10 note=45 velocity=0 time=0
EXTRACT: note_on channel=1 note=64 velocity=0 time=0.0375
EXTRACT: note_on channel=3 note=64 velocity=0 time=0
EXTRACT: note_on channel=4 note=64 velocity=0 time=0
EXTRACT: note_on channel=5 note=45 velocity=0 time=0
EXTRACT: note_on channel=6 note=33 velocity=0 time=0
EXTRACT: note_on channel=0 note=88 velocity=126 time=0.0010416666666666667
EXTRACT: note_on channel=1 note=64 velocity=126 time=0
EXTRACT: note_on channel=2 note=76 velocity=126 time=0
EXTRACT: note_on channel=3 note=64 velocity=126 time=0
EXTRACT: note_on channel=4 note=64 velocity=126 time=0
EXTRACT: note_on channel=5 note=45 velocity=126 time=0
EXTRACT: note_on channel=6 note=33 velocity=126 time=0
EXTRACT: note_on channel=10 note=69 velocity=126 time=0
EXTRACT: note_on channel=10 note=72 velocity=126 time=0
EXTRACT: note_on channel=10 note=76 velocity=126 time=0
EXTRACT: note_on channel=10 note=45 velocity=126 time=0
EXTRACT: note_on channel=0 note=88 velocity=0 time=0.23645833333333333
EXTRACT: note_on channel=2 note=76 velocity=0 time=0.0125
EXTRACT: note_on channel=0 note=86 velocity=126 time=0.0010416666666666667
EXTRACT: note_on channel=2 note=74 velocity=126 time=0
EXTRACT: note_on channel=0 note=86 velocity=0 time=0.23645833333333333
EXTRACT: note_on channel=2 note=74 velocity=0 time=0.0125
EXTRACT: note_on channel=6 note=33 velocity=0 time=0
EXTRACT: note_on channel=0 note=88 velocity=126 time=0.0010416666666666667
EXTRACT: note_on channel=2 note=76 velocity=126 time=0
EXTRACT: note_on channel=6 note=33 velocity=126 time=0
EXTRACT: note_on channel=10 note=69 velocity=0 time=0.21145833333333333
EXTRACT: note_on channel=10 note=72 velocity=0 time=0
EXTRACT: note_on channel=10 note=76 velocity=0 time=0
EXTRACT: note_on channel=10 note=45 velocity=0 time=0
EXTRACT: note_on channel=0 note=88 velocity=0 time=0.025
EXTRACT: note_on channel=1 note=64 velocity=0 time=0.0125
EXTRACT: note_on channel=2 note=76 velocity=0 time=0
EXTRACT: note_on channel=3 note=64 velocity=0 time=0
EXTRACT: note_on channel=4 note=64 velocity=0 time=0
EXTRACT: note_on channel=5 note=45 velocity=0 time=0
EXTRACT: note_on channel=6 note=33 velocity=0 time=0
EXTRACT: note_on channel=0 note=88 velocity=126 time=0.0010416666666666667
EXTRACT: note_on channel=2 note=76 velocity=126 time=0
EXTRACT: note_on channel=6 note=33 velocity=126 time=0
EXTRACT: note_on channel=10 note=69 velocity=126 time=0
EXTRACT: note_on channel=10 note=72 velocity=126 time=0
EXTRACT: note_on channel=10 note=76 velocity=126 time=0
EXTRACT: note_on channel=0 note=88 velocity=0 time=0.23645833333333333
EXTRACT: note_on channel=2 note=76 velocity=0 time=0.0125
EXTRACT: note_on channel=0 note=88 velocity=126 time=0.0010416666666666667
EXTRACT: note_on channel=2 note=76 velocity=126 time=0
EXTRACT: note_on channel=10 note=45 velocity=126 time=0
EXTRACT: note_on channel=0 note=88 velocity=0 time=0.11770833333333333
EXTRACT: note_on channel=2 note=76 velocity=0 time=0.00625
EXTRACT: note_on channel=0 note=86 velocity=126 time=0.0010416666666666667
EXTRACT: note_on channel=2 note=74 velocity=126 time=0
EXTRACT: note_on channel=10 note=45 velocity=0 time=0.11145833333333333
EXTRACT: note_on channel=0 note=86 velocity=0 time=0.00625
EXTRACT: note_on channel=2 note=74 velocity=0 time=0.00625
EXTRACT: note_on channel=0 note=84 velocity=126 time=0.0010416666666666667
EXTRACT: note_on channel=1 note=57 velocity=126 time=0
EXTRACT: note_on channel=2 note=72 velocity=126 time=0
EXTRACT: note_on channel=3 note=57 velocity=126 time=0
EXTRACT: note_on channel=4 note=57 velocity=126 time=0
EXTRACT: note_on channel=10 note=45 velocity=126 time=0
EXTRACT: note_on channel=0 note=84 velocity=0 time=0.11770833333333333
EXTRACT: note_on channel=2 note=72 velocity=0 time=0.00625
EXTRACT: note_on channel=0 note=81 velocity=126 time=0.0010416666666666667
EXTRACT: note_on channel=2 note=69 velocity=126 time=0
EXTRACT: note_on channel=10 note=69 velocity=0 time=0.08645833333333333
EXTRACT: note_on channel=10 note=72 velocity=0 time=0
EXTRACT: note_on channel=10 note=76 velocity=0 time=0
EXTRACT: note_on channel=10 note=45 velocity=0 time=0.025
EXTRACT: note_on channel=0 note=81 velocity=0 time=0.00625
EXTRACT: note_on channel=1 note=57 velocity=0 time=0.00625
EXTRACT: note_on channel=2 note=69 velocity=0 time=0
EXTRACT: note_on channel=3 note=57 velocity=0 time=0
EXTRACT: note_on channel=4 note=57 velocity=0 time=0
EXTRACT: note_on channel=6 note=33 velocity=0 time=0
EXTRACT: note_on channel=0 note=84 velocity=126 time=0.0010416666666666667
EXTRACT: note_on channel=1 note=60 velocity=126 time=0
EXTRACT: note_on channel=2 note=72 velocity=126 time=0
EXTRACT: note_on channel=3 note=60 velocity=126 time=0
EXTRACT: note_on channel=4 note=60 velocity=126 time=0
EXTRACT: note_on channel=6 note=33 velocity=126 time=0
EXTRACT: note_on channel=10 note=69 velocity=126 time=0
EXTRACT: note_on channel=10 note=72 velocity=126 time=0
EXTRACT: note_on channel=10 note=76 velocity=126 time=0
EXTRACT: note_on channel=10 note=45 velocity=126 time=0
EXTRACT: note_on channel=10 note=45 velocity=0 time=0.23645833333333333
EXTRACT: note_on channel=1 note=60 velocity=0 time=0.0125
EXTRACT: note_on channel=3 note=60 velocity=0 time=0
EXTRACT: note_on channel=4 note=60 velocity=0 time=0
EXTRACT: note_on channel=1 note=62 velocity=126 time=0.0010416666666666667
EXTRACT: note_on channel=3 note=62 velocity=126 time=0
EXTRACT: note_on channel=4 note=62 velocity=126 time=0
EXTRACT: note_on channel=10 note=43 velocity=126 time=0
EXTRACT: note_on channel=10 note=43 velocity=0 time=0.23645833333333333
EXTRACT: note_on channel=1 note=62 velocity=0 time=0.0125
EXTRACT: note_on channel=3 note=62 velocity=0 time=0
EXTRACT: note_on channel=4 note=62 velocity=0 time=0
EXTRACT: note_on channel=1 note=60 velocity=126 time=0.0010416666666666667
EXTRACT: note_on channel=3 note=60 velocity=126 time=0
EXTRACT: note_on channel=4 note=60 velocity=126 time=0
EXTRACT: note_on channel=10 note=40 velocity=126 time=0
EXTRACT: note_on channel=0 note=84 velocity=0 time=0.21145833333333333
EXTRACT: note_on channel=10 note=69 velocity=0 time=0
EXTRACT: note_on channel=10 note=72 velocity=0 time=0
EXTRACT: note_on channel=10 note=76 velocity=0 time=0
EXTRACT: note_on channel=10 note=40 velocity=0 time=0.025
EXTRACT: note_on channel=1 note=60 velocity=0 time=0.0125
EXTRACT: note_on channel=2 note=72 velocity=0 time=0
EXTRACT: note_on channel=3 note=60 velocity=0 time=0
EXTRACT: note_on channel=4 note=60 velocity=0 time=0
EXTRACT: note_on channel=6 note=33 velocity=0 time=0
EXTRACT: note_on channel=0 note=77 velocity=126 time=0.0010416666666666667
EXTRACT: note_on channel=1 note=65 velocity=126 time=0
EXTRACT: note_on channel=2 note=65 velocity=126 time=0
EXTRACT: note_on channel=3 note=62 velocity=126 time=0
EXTRACT: note_on channel=4 note=65 velocity=126 time=0
EXTRACT: note_on channel=5 note=53 velocity=126 time=0
EXTRACT: note_on channel=6 note=38 velocity=126 time=0
EXTRACT: note_on channel=10 note=89 velocity=126 time=0
EXTRACT: note_on channel=10 note=53 velocity=126 time=0
EXTRACT: note_on channel=0 note=77 velocity=0 time=0.7114583333333333
EXTRACT: note_on channel=10 note=89 velocity=0 time=0
EXTRACT: note_on channel=10 note=53 velocity=0 time=0
EXTRACT: note_on channel=1 note=65 velocity=0 time=0.0375
EXTRACT: note_on channel=2 note=65 velocity=0 time=0
EXTRACT: note_on channel=3 note=62 velocity=0 time=0
EXTRACT: note_on channel=4 note=65 velocity=0 time=0
EXTRACT: note_on channel=5 note=53 velocity=0 time=0
EXTRACT: note_on channel=0 note=76 velocity=126 time=0.0010416666666666667
EXTRACT: note_on channel=1 note=64 velocity=126 time=0
EXTRACT: note_on channel=2 note=64 velocity=126 time=0
EXTRACT: note_on channel=3 note=60 velocity=126 time=0
EXTRACT: note_on channel=4 note=64 velocity=126 time=0
EXTRACT: note_on channel=5 note=52 velocity=126 time=0
EXTRACT: note_on channel=10 note=88 velocity=126 time=0
EXTRACT: note_on channel=10 note=52 velocity=126 time=0
EXTRACT: note_on channel=0 note=76 velocity=0 time=0.23645833333333333
EXTRACT: note_on channel=10 note=88 velocity=0 time=0
EXTRACT: note_on channel=10 note=52 velocity=0 time=0
EXTRACT: note_on channel=1 note=64 velocity=0 time=0.0125
EXTRACT: note_on channel=2 note=64 velocity=0 time=0
EXTRACT: note_on channel=4 note=64 velocity=0 time=0
EXTRACT: note_on channel=5 note=52 velocity=0 time=0
EXTRACT: note_on channel=0 note=74 velocity=126 time=0.0010416666666666667
EXTRACT: note_on channel=1 note=62 velocity=126 time=0
EXTRACT: note_on channel=2 note=62 velocity=126 time=0
EXTRACT: note_on channel=4 note=62 velocity=126 time=0
EXTRACT: note_on channel=5 note=50 velocity=126 time=0
EXTRACT: note_on channel=10 note=86 velocity=126 time=0
EXTRACT: note_on channel=10 note=50 velocity=126 time=0
EXTRACT: note_on channel=0 note=74 velocity=0 time=0.4739583333333333
EXTRACT: note_on channel=10 note=86 velocity=0 time=0
EXTRACT: note_on channel=10 note=50 velocity=0 time=0
EXTRACT: note_on channel=1 note=62 velocity=0 time=0.025
EXTRACT: note_on channel=2 note=62 velocity=0 time=0
EXTRACT: note_on channel=3 note=60 velocity=0 time=0
EXTRACT: note_on channel=4 note=62 velocity=0 time=0
EXTRACT: note_on channel=5 note=50 velocity=0 time=0
EXTRACT: note_on channel=6 note=38 velocity=0 time=0
EXTRACT: note_on channel=0 note=74 velocity=126 time=0.0010416666666666667
EXTRACT: note_on channel=1 note=62 velocity=126 time=0
EXTRACT: note_on channel=2 note=62 velocity=126 time=0
EXTRACT: note_on channel=3 note=57 velocity=126 time=0
EXTRACT: note_on channel=4 note=62 velocity=126 time=0
EXTRACT: note_on channel=5 note=50 velocity=126 time=0
EXTRACT: note_on channel=6 note=33 velocity=126 time=0
EXTRACT: note_on channel=10 note=86 velocity=126 time=0
EXTRACT: note_on channel=10 note=50 velocity=126 time=0
EXTRACT: note_on channel=0 note=74 velocity=0 time=0.35520833333333335
EXTRACT: note_on channel=10 note=86 velocity=0 time=0
EXTRACT: note_on channel=10 note=50 velocity=0 time=0
EXTRACT: note_on channel=1 note=62 velocity=0 time=0.01875
EXTRACT: note_on channel=2 note=62 velocity=0 time=0
EXTRACT: note_on channel=0 note=76 velocity=126 time=0.0010416666666666667
EXTRACT: note_on channel=1 note=64 velocity=126 time=0
EXTRACT: note_on channel=2 note=64 velocity=126 time=0
EXTRACT: note_on channel=10 note=88 velocity=126 time=0
EXTRACT: note_on channel=10 note=52 velocity=126 time=0
EXTRACT: note_on channel=0 note=76 velocity=0 time=0.11770833333333333
EXTRACT: note_on channel=10 note=88 velocity=0 time=0
EXTRACT: note_on channel=10 note=52 velocity=0 time=0
EXTRACT: note_on channel=1 note=64 velocity=0 time=0.00625
EXTRACT: note_on channel=2 note=64 velocity=0 time=0
EXTRACT: note_on channel=0 note=74 velocity=126 time=0.0010416666666666667
EXTRACT: note_on channel=1 note=62 velocity=126 time=0
EXTRACT: note_on channel=2 note=62 velocity=126 time=0
EXTRACT: note_on channel=10 note=86 velocity=126 time=0
EXTRACT: note_on channel=10 note=50 velocity=126 time=0
EXTRACT: note_on channel=0 note=74 velocity=0 time=0.23645833333333333
EXTRACT: note_on channel=10 note=86 velocity=0 time=0
EXTRACT: note_on channel=10 note=50 velocity=0 time=0
EXTRACT: note_on channel=1 note=62 velocity=0 time=0.0125
EXTRACT: note_on channel=2 note=62 velocity=0 time=0
EXTRACT: note_on channel=3 note=57 velocity=0 time=0
EXTRACT: note_on channel=4 note=62 velocity=0 time=0
EXTRACT: note_on channel=5 note=50 velocity=0 time=0
EXTRACT: note_on channel=6 note=33 velocity=0 time=0
EXTRACT: note_on channel=0 note=84 velocity=126 time=0.0010416666666666667
EXTRACT: note_on channel=1 note=60 velocity=126 time=0
EXTRACT: note_on channel=2 note=60 velocity=126 time=0
EXTRACT: note_on channel=3 note=64 velocity=126 time=0
EXTRACT: note_on channel=4 note=60 velocity=126 time=0
EXTRACT: note_on channel=5 note=48 velocity=126 time=0
EXTRACT: note_on channel=6 note=36 velocity=126 time=0
EXTRACT: note_on channel=10 note=84 velocity=126 time=0
EXTRACT: note_on channel=10 note=48 velocity=126 time=0
EXTRACT: note_on channel=0 note=84 velocity=0 time=0.7114583333333333
EXTRACT: note_on channel=10 note=84 velocity=0 time=0
EXTRACT: note_on channel=10 note=48 velocity=0 time=0
EXTRACT: note_on channel=1 note=60 velocity=0 time=0.0375
EXTRACT: note_on channel=2 note=60 velocity=0 time=0
EXTRACT: note_on channel=3 note=64 velocity=0 time=0
EXTRACT: note_on channel=4 note=60 velocity=0 time=0
EXTRACT: note_on channel=5 note=48 velocity=0 time=0
EXTRACT: note_on channel=6 note=36 velocity=0 time=0
