EXTRACT: control_change channel=15 control=0 value=0 time=0.03472213541666666
EXTRACT: control_change channel=15 control=32 value=0 time=0.006944427083333333
EXTRACT: program_change channel=15 program=30 time=0.006944427083333333
EXTRACT: control_change channel=15 control=7 value=121 time=0.006944427083333333
EXTRACT: control_change channel=15 control=10 value=100 time=0
EXTRACT: control_change channel=15 control=11 value=127 time=0
EXTRACT: control_change channel=15 control=93 value=30 time=0.006944427083333333
EXTRACT: control_change channel=15 control=91 value=90 time=0
EXTRACT: control_change channel=15 control=99 value=1 time=0.11805526041666665
EXTRACT: control_change channel=15 control=98 value=32 time=0.083333125
EXTRACT: control_change channel=1 control=0 value=0 time=0.02777770833333333
EXTRACT: control_change channel=2 control=0 value=0 time=0
EXTRACT: control_change channel=1 control=32 value=0 time=0.006944427083333333
EXTRACT: control_change channel=2 control=32 value=0 time=0
EXTRACT: program_change channel=1 program=33 time=0.006944427083333333
EXTRACT: program_change channel=2 program=27 time=0
EXTRACT: control_change channel=1 control=11 value=126 time=0.006944427083333333
EXTRACT: control_change channel=1 control=10 value=64 time=0
EXTRACT: control_change channel=1 control=7 value=115 time=0
EXTRACT: control_change channel=2 control=11 value=126 time=0
EXTRACT: control_change channel=2 control=10 value=105 time=0
EXTRACT: control_change channel=2 control=7 value=127 time=0
EXTRACT: control_change channel=1 control=93 value=0 time=0.006944427083333333
EXTRACT: control_change channel=1 control=91 value=0 time=0
EXTRACT: control_change channel=2 control=93 value=30 time=0
EXTRACT: control_change channel=2 control=91 value=100 time=0
EXTRACT: control_change channel=15 control=6 value=57 time=0.02777770833333333
EXTRACT: control_change channel=3 control=0 value=0 time=0.013888854166666666
EXTRACT: control_change channel=3 control=32 value=0 time=0.006944427083333333
EXTRACT: program_change channel=3 program=73 time=0.006944427083333333
EXTRACT: control_change channel=3 control=11 value=127 time=0.006944427083333333
EXTRACT: control_change channel=3 control=10 value=64 time=0
EXTRACT: control_change channel=3 control=7 value=126 time=0
EXTRACT: control_change channel=3 control=93 value=25 time=0.006944427083333333
EXTRACT: control_change channel=3 control=91 value=75 time=0
EXTRACT: control_change channel=4 control=0 value=0 time=0.006944427083333333
EXTRACT: control_change channel=4 control=32 value=0 time=0.006944427083333333
EXTRACT: control_change channel=4 control=0 value=0 time=0.006944427083333333
EXTRACT: program_change channel=4 program=52 time=0
EXTRACT: control_change channel=4 control=11 value=127 time=0.006944427083333333
EXTRACT: control_change channel=4 control=10 value=64 time=0
EXTRACT: control_change channel=4 control=7 value=115 time=0
EXTRACT: control_change channel=13 control=0 value=0 time=0
EXTRACT: control_change channel=4 control=93 value=0 time=0.006944427083333333
EXTRACT: control_change channel=4 control=91 value=40 time=0
EXTRACT: control_change channel=13 control=32 value=0 time=0
EXTRACT: control_change channel=4 control=17 value=8 time=0.006944427083333333
EXTRACT: control_change channel=5 control=0 value=0 time=0
EXTRACT: program_change channel=13 program=50 time=0
EXTRACT: control_change channel=4 control=16 value=0 time=0.006944427083333333
EXTRACT: control_change channel=5 control=32 value=0 time=0
EXTRACT: control_change channel=13 control=7 value=127 time=0
EXTRACT: control_change channel=13 control=10 value=50 time=0
EXTRACT: control_change channel=13 control=11 value=127 time=0
EXTRACT: program_change channel=5 program=54 time=0.006944427083333333
EXTRACT: control_change channel=13 control=91 value=95 time=0
EXTRACT: control_change channel=13 control=93 value=45 time=0
EXTRACT: control_change channel=5 control=11 value=127 time=0.006944427083333333
EXTRACT: control_change channel=5 control=10 value=40 time=0
EXTRACT: control_change channel=5 control=7 value=127 time=0
EXTRACT: control_change channel=5 control=91 value=50 time=0.006944427083333333
EXTRACT: control_change channel=5 control=93 value=30 time=0
EXTRACT: control_change channel=11 control=0 value=0 time=0
EXTRACT: control_change channel=6 control=0 value=0 time=0.006944427083333333
EXTRACT: control_change channel=11 control=32 value=0 time=0
EXTRACT: control_change channel=12 control=0 value=0 time=0
EXTRACT: control_change channel=6 control=32 value=0 time=0.006944427083333333
EXTRACT: program_change channel=11 program=25 time=0
EXTRACT: control_change channel=12 control=32 value=0 time=0
EXTRACT: program_change channel=6 program=52 time=0.006944427083333333
EXTRACT: control_change channel=11 control=7 value=126 time=0
EXTRACT: control_change channel=11 control=10 value=10 time=0
EXTRACT: control_change channel=11 control=11 value=127 time=0
EXTRACT: program_change channel=12 program=29 time=0
EXTRACT: control_change channel=6 control=11 value=127 time=0.006944427083333333
EXTRACT: control_change channel=6 control=10 value=75 time=0
EXTRACT: control_change channel=6 control=7 value=127 time=0
EXTRACT: control_change channel=11 control=91 value=90 time=0
EXTRACT: control_change channel=11 control=93 value=10 time=0
EXTRACT: control_change channel=12 control=7 value=126 time=0
EXTRACT: control_change channel=12 control=10 value=70 time=0
EXTRACT: control_change channel=12 control=11 value=127 time=0
EXTRACT: control_change channel=6 control=93 value=30 time=0.006944427083333333
EXTRACT: control_change channel=6 control=91 value=70 time=0
EXTRACT: control_change channel=12 control=93 value=35 time=0
EXTRACT: control_change channel=12 control=91 value=100 time=0
EXTRACT: control_change channel=7 control=0 value=0 time=0.006944427083333333
EXTRACT: control_change channel=7 control=32 value=0 time=0.006944427083333333
EXTRACT: program_change channel=7 program=24 time=0.006944427083333333
EXTRACT: control_change channel=11 control=99 value=1 time=0
EXTRACT: control_change channel=7 control=11 value=126 time=0.006944427083333333
EXTRACT: control_change channel=7 control=10 value=110 time=0
EXTRACT: control_change channel=7 control=7 value=127 time=0
EXTRACT: control_change channel=7 control=91 value=80 time=0.006944427083333333
EXTRACT: control_change channel=7 control=93 value=10 time=0
EXTRACT: control_change channel=6 control=99 value=1 time=0.006944427083333333
EXTRACT: control_change channel=8 control=0 value=0 time=0
EXTRACT: control_change channel=11 control=98 value=32 time=0
EXTRACT: control_change channel=14 control=0 value=0 time=0
EXTRACT: control_change channel=1 control=99 value=1 time=0.006944427083333333
EXTRACT: control_change channel=2 control=99 value=1 time=0
EXTRACT: control_change channel=8 control=32 value=0 time=0
EXTRACT: control_change channel=14 control=32 value=0 time=0
EXTRACT: program_change channel=8 program=25 time=0.006944427083333333
EXTRACT: control_change channel=11 control=6 value=57 time=0
EXTRACT: program_change channel=14 program=4 time=0
EXTRACT: control_change channel=8 control=11 value=127 time=0.006944427083333333
EXTRACT: control_change channel=8 control=10 value=35 time=0
EXTRACT: control_change channel=8 control=7 value=127 time=0
EXTRACT: control_change channel=14 control=11 value=126 time=0
EXTRACT: control_change channel=14 control=10 value=25 time=0
EXTRACT: control_change channel=14 control=7 value=89 time=0
EXTRACT: control_change channel=8 control=93 value=30 time=0.006944427083333333
EXTRACT: control_change channel=8 control=91 value=110 time=0
EXTRACT: control_change channel=14 control=91 value=110 time=0
EXTRACT: control_change channel=14 control=93 value=23 time=0
EXTRACT: control_change channel=7 control=99 value=1 time=0.006944427083333333
EXTRACT: control_change channel=14 control=99 value=1 time=0
EXTRACT: control_change channel=6 control=98 value=32 time=0.006944427083333333
EXTRACT: control_change channel=7 control=98 value=99 time=0
EXTRACT: control_change channel=11 control=99 value=1 time=0
EXTRACT: control_change channel=14 control=98 value=32 time=0
EXTRACT: program_change channel=9 program=0 time=0.006944427083333333
EXTRACT: control_change channel=1 control=98 value=32 time=0.006944427083333333
EXTRACT: control_change channel=2 control=98 value=32 time=0
EXTRACT: control_change channel=7 control=6 value=65 time=0
EXTRACT: control_change channel=9 control=7 value=127 time=0
EXTRACT: control_change channel=9 control=11 value=127 time=0
EXTRACT: control_change channel=9 control=10 value=64 time=0
EXTRACT: control_change channel=1 control=6 value=48 time=0.006944427083333333
EXTRACT: control_change channel=2 control=6 value=56 time=0
EXTRACT: control_change channel=8 control=99 value=1 time=0
EXTRACT: control_change channel=9 control=93 value=20 time=0
EXTRACT: control_change channel=9 control=91 value=15 time=0
EXTRACT: control_change channel=11 control=98 value=99 time=0
EXTRACT: control_change channel=14 control=6 value=55 time=0
EXTRACT: control_change channel=15 control=99 value=1 time=0
EXTRACT: control_change channel=10 control=0 value=0 time=0.006944427083333333
EXTRACT: control_change channel=10 control=32 value=0 time=0.006944427083333333
EXTRACT: control_change channel=11 control=6 value=65 time=0
EXTRACT: control_change channel=2 control=99 value=1 time=0.006944427083333333
EXTRACT: program_change channel=10 program=49 time=0
EXTRACT: control_change channel=10 control=11 value=127 time=0.006944427083333333
EXTRACT: control_change channel=10 control=10 value=40 time=0
EXTRACT: control_change channel=10 control=7 value=127 time=0
EXTRACT: control_change channel=2 control=98 value=99 time=0.006944427083333333
EXTRACT: control_change channel=10 control=91 value=70 time=0
EXTRACT: control_change channel=10 control=93 value=25 time=0
EXTRACT: control_change channel=6 control=6 value=60 time=0.006944427083333333
EXTRACT: control_change channel=2 control=6 value=65 time=0.006944427083333333
EXTRACT: control_change channel=8 control=98 value=32 time=0.006944427083333333
EXTRACT: control_change channel=12 control=99 value=1 time=0.02777770833333333
EXTRACT: control_change channel=13 control=99 value=1 time=0.006944427083333333
EXTRACT: control_change channel=15 control=98 value=99 time=0.03472213541666666
EXTRACT: control_change channel=8 control=6 value=64 time=0.013888854166666666
EXTRACT: control_change channel=13 control=98 value=32 time=0
EXTRACT: control_change channel=13 control=6 value=56 time=0.006944427083333333
EXTRACT: control_change channel=12 control=98 value=32 time=0.06249984374999999
EXTRACT: control_change channel=13 control=99 value=1 time=0
EXTRACT: control_change channel=13 control=98 value=33 time=0.013888854166666666
EXTRACT: control_change channel=13 control=6 value=80 time=0.02777770833333333
EXTRACT: control_change channel=15 control=6 value=65 time=0.0416665625
EXTRACT: control_change channel=13 control=99 value=1 time=0.02777770833333333
EXTRACT: control_change channel=13 control=98 value=99 time=0.02777770833333333
EXTRACT: control_change channel=12 control=6 value=58 time=0.02777770833333333
EXTRACT: control_change channel=13 control=6 value=68 time=0
EXTRACT: control_change channel=12 control=99 value=1 time=0.2083328125
EXTRACT: control_change channel=12 control=98 value=99 time=0.0416665625
EXTRACT: control_change channel=12 control=6 value=65 time=0.12499968749999998
EXTRACT: control_change channel=12 control=99 value=1 time=0.083333125
EXTRACT: control_change channel=12 control=98 value=33 time=0.12499968749999998
EXTRACT: control_change channel=12 control=6 value=80 time=0.0416665625
EXTRACT: note_on channel=9 note=69 velocity=12 time=0.5833318749999999
EXTRACT: note_on channel=9 note=69 velocity=0 time=0.030555479166666663
EXTRACT: note_on channel=9 note=82 velocity=1 time=0.3027770208333333
EXTRACT: note_on channel=9 note=82 velocity=0 time=0.030555479166666663
EXTRACT: note_on channel=9 note=69 velocity=13 time=0.3027770208333333
EXTRACT: note_on channel=9 note=69 velocity=0 time=0.030555479166666663
EXTRACT: control_change channel=14 control=64 value=100 time=0.23472163541666663
EXTRACT: note_on channel=9 note=82 velocity=1 time=0.06805538541666666
EXTRACT: note_on channel=14 note=54 velocity=47 time=0
EXTRACT: note_on channel=9 note=82 velocity=0 time=0.030555479166666663
EXTRACT: note_on channel=14 note=54 velocity=0 time=0.19861061458333332
EXTRACT: note_on channel=9 note=69 velocity=17 time=0.06249984374999999
EXTRACT: note_on channel=14 note=54 velocity=81 time=0
EXTRACT: note_on channel=9 note=69 velocity=0 time=0.030555479166666663
EXTRACT: note_on channel=14 note=54 velocity=0 time=0.12499968749999998
EXTRACT: note_on channel=9 note=82 velocity=1 time=0.17777733333333332
EXTRACT: note_on channel=14 note=56 velocity=69 time=0
EXTRACT: note_on channel=9 note=82 velocity=0 time=0.030555479166666663
EXTRACT: note_on channel=14 note=56 velocity=0 time=0.12499968749999998
EXTRACT: note_on channel=9 note=69 velocity=15 time=0.17777733333333332
EXTRACT: note_on channel=14 note=58 velocity=75 time=0
EXTRACT: note_on channel=9 note=69 velocity=0 time=0.030555479166666663
EXTRACT: note_on channel=14 note=58 velocity=0 time=0.12499968749999998
EXTRACT: note_on channel=9 note=82 velocity=1 time=0.17777733333333332
EXTRACT: note_on channel=14 note=61 velocity=83 time=0
EXTRACT: note_on channel=9 note=82 velocity=0 time=0.030555479166666663
EXTRACT: note_on channel=14 note=61 velocity=0 time=0.12499968749999998
EXTRACT: note_on channel=9 note=69 velocity=14 time=0.17777733333333332
EXTRACT: note_on channel=14 note=39 velocity=71 time=0
EXTRACT: note_on channel=9 note=69 velocity=0 time=0.030555479166666663
EXTRACT: note_on channel=14 note=39 velocity=0 time=0.20416615624999998
EXTRACT: note_on channel=9 note=82 velocity=2 time=0.09861086458333332
EXTRACT: note_on channel=9 note=82 velocity=0 time=0.030555479166666663
EXTRACT: note_on channel=14 note=78 velocity=45 time=0.0749998125
EXTRACT: note_on channel=14 note=77 velocity=47 time=0.08749978124999999
EXTRACT: note_on channel=14 note=78 velocity=0 time=0.0013888854166666665
EXTRACT: note_on channel=14 note=73 velocity=31 time=0.05972207291666666
EXTRACT: note_on channel=14 note=77 velocity=0 time=0.019444395833333333
EXTRACT: note_on channel=14 note=73 velocity=0 time=0.04305544791666666
EXTRACT: note_on channel=14 note=68 velocity=55 time=0.008333312499999999
EXTRACT: note_on channel=9 note=69 velocity=15 time=0.008333312499999999
EXTRACT: note_on channel=9 note=69 velocity=0 time=0.030555479166666663
EXTRACT: note_on channel=14 note=68 velocity=0 time=0.061110958333333326
EXTRACT: note_on channel=9 note=82 velocity=1 time=0.24166606249999997
EXTRACT: note_on channel=9 note=82 velocity=0 time=0.030555479166666663
EXTRACT: note_on channel=9 note=69 velocity=16 time=0.3027770208333333
EXTRACT: note_on channel=9 note=69 velocity=0 time=0.030555479166666663
EXTRACT: control_change channel=7 control=64 value=100 time=0.1083330625
EXTRACT: note_on channel=7 note=80 velocity=22 time=0.1944439583333333
EXTRACT: note_on channel=9 note=82 velocity=1 time=0
EXTRACT: note_on channel=9 note=82 velocity=0 time=0.030555479166666663
EXTRACT: note_on channel=7 note=80 velocity=0 time=0.12499968749999998
EXTRACT: note_on channel=7 note=78 velocity=27 time=0.17777733333333332
EXTRACT: note_on channel=9 note=69 velocity=21 time=0
EXTRACT: note_on channel=9 note=69 velocity=0 time=0.030555479166666663
EXTRACT: note_on channel=7 note=78 velocity=0 time=0.12499968749999998
EXTRACT: note_on channel=7 note=73 velocity=18 time=0.17777733333333332
EXTRACT: note_on channel=9 note=82 velocity=7 time=0
EXTRACT: note_on channel=9 note=82 velocity=0 time=0.030555479166666663
EXTRACT: note_on channel=7 note=73 velocity=0 time=0.12499968749999998
EXTRACT: note_on channel=9 note=69 velocity=23 time=0.17777733333333332
EXTRACT: control_change channel=13 control=11 value=0 time=0
EXTRACT: note_on channel=9 note=69 velocity=0 time=0.030555479166666663
EXTRACT: note_on channel=13 note=39 velocity=8 time=0.05277764583333333
EXTRACT: control_change channel=13 control=11 value=4 time=0
EXTRACT: note_on channel=13 note=56 velocity=22 time=0.083333125
EXTRACT: control_change channel=13 control=11 value=8 time=0
EXTRACT: note_on channel=13 note=51 velocity=14 time=0.022222166666666664
EXTRACT: note_on channel=13 note=54 velocity=18 time=0
EXTRACT: note_on channel=13 note=58 velocity=22 time=0.0013888854166666665
EXTRACT: control_change channel=13 control=11 value=12 time=0.05972207291666666
EXTRACT: note_on channel=9 note=82 velocity=10 time=0.083333125
EXTRACT: note_on channel=14 note=68 velocity=28 time=0
EXTRACT: control_change channel=13 control=11 value=16 time=0
EXTRACT: note_on channel=9 note=82 velocity=0 time=0.030555479166666663
EXTRACT: control_change channel=13 control=11 value=20 time=0.05277764583333333
EXTRACT: note_on channel=14 note=68 velocity=0 time=0.07222204166666665
EXTRACT: control_change channel=13 control=11 value=24 time=0.011111083333333332
EXTRACT: control_change channel=13 control=11 value=27 time=0.083333125
EXTRACT: note_on channel=9 note=69 velocity=22 time=0.083333125
EXTRACT: note_on channel=14 note=66 velocity=28 time=0
EXTRACT: control_change channel=13 control=11 value=31 time=0
EXTRACT: note_on channel=9 note=69 velocity=0 time=0.030555479166666663
EXTRACT: control_change channel=13 control=11 value=35 time=0.05277764583333333
EXTRACT: control_change channel=3 control=11 value=71 time=0.02777770833333333
EXTRACT: note_on channel=14 note=66 velocity=0 time=0.04444433333333333
EXTRACT: control_change channel=13 control=11 value=39 time=0.011111083333333332
EXTRACT: control_change channel=13 control=11 value=43 time=0.083333125
EXTRACT: note_on channel=3 note=54 velocity=110 time=0
EXTRACT: note_on channel=9 note=82 velocity=9 time=0.002777770833333333
EXTRACT: note_on channel=14 note=73 velocity=27 time=0
EXTRACT: control_change channel=13 control=11 value=47 time=0
EXTRACT: note_on channel=9 note=82 velocity=0 time=0.030555479166666663
EXTRACT: control_change channel=13 control=11 value=51 time=0.05277764583333333
EXTRACT: control_change channel=13 control=11 value=55 time=0.083333125
EXTRACT: note_on channel=14 note=73 velocity=0 time=0.030555479166666663
EXTRACT: note_on channel=3 note=54 velocity=0 time=0.012499968749999998
EXTRACT: control_change channel=13 control=11 value=59 time=0.04027767708333333
EXTRACT: note_on channel=3 note=54 velocity=111 time=0
EXTRACT: note_on channel=9 note=69 velocity=14 time=0
EXTRACT: control_change channel=13 control=11 value=63 time=0
EXTRACT: note_on channel=9 note=69 velocity=0 time=0.030555479166666663
EXTRACT: control_change channel=13 control=11 value=67 time=0.05277764583333333
EXTRACT: control_change channel=13 control=11 value=71 time=0.083333125
EXTRACT: control_change channel=13 control=11 value=75 time=0.083333125
EXTRACT: note_on channel=3 note=54 velocity=0 time=0.07222204166666665
EXTRACT: note_on channel=3 note=56 velocity=110 time=0
EXTRACT: note_on channel=9 note=82 velocity=5 time=0.005555541666666666
EXTRACT: control_change channel=13 control=11 value=77 time=0
EXTRACT: note_on channel=9 note=82 velocity=0 time=0.030555479166666663
EXTRACT: control_change channel=13 control=11 value=81 time=0.05277764583333333
EXTRACT: control_change channel=13 control=11 value=85 time=0.083333125
EXTRACT: control_change channel=13 control=11 value=89 time=0.083333125
EXTRACT: note_on channel=3 note=56 velocity=0 time=0.033333249999999995
EXTRACT: note_on channel=3 note=58 velocity=110 time=0
EXTRACT: note_on channel=9 note=69 velocity=8 time=0.004166656249999999
EXTRACT: control_change channel=13 control=11 value=93 time=0
EXTRACT: note_on channel=9 note=69 velocity=0 time=0.030555479166666663
EXTRACT: control_change channel=13 control=11 value=97 time=0.05277764583333333
EXTRACT: control_change channel=13 control=11 value=101 time=0.083333125
EXTRACT: control_change channel=13 control=11 value=105 time=0.083333125
EXTRACT: note_on channel=3 note=58 velocity=0 time=0.05972207291666666
EXTRACT: note_on channel=3 note=61 velocity=111 time=0
EXTRACT: note_on channel=9 note=82 velocity=1 time=0.002777770833333333
EXTRACT: control_change channel=13 control=11 value=109 time=0
EXTRACT: note_on channel=9 note=82 velocity=0 time=0.030555479166666663
EXTRACT: control_change channel=13 control=11 value=112 time=0.05277764583333333
EXTRACT: control_change channel=13 control=11 value=117 time=0.083333125
EXTRACT: control_change channel=13 control=11 value=126 time=0.083333125
EXTRACT: note_on channel=13 note=56 velocity=0 time=0.048610989583333326
EXTRACT: control_change channel=14 control=64 value=0 time=0.0013888854166666665
EXTRACT: control_change channel=7 control=64 value=0 time=0.005555541666666666
EXTRACT: note_on channel=13 note=39 velocity=0 time=0.016666624999999997
EXTRACT: note_on channel=13 note=51 velocity=0 time=0
EXTRACT: note_on channel=13 note=54 velocity=0 time=0
EXTRACT: note_on channel=13 note=58 velocity=0 time=0
EXTRACT: note_on channel=15 note=39 velocity=36 time=0.011111083333333332
EXTRACT: note_on channel=13 note=39 velocity=12 time=0.0013888854166666665
EXTRACT: note_on channel=2 note=39 velocity=51 time=0.002777770833333333
EXTRACT: control_change channel=2 control=64 value=100 time=0.016666624999999997
EXTRACT: note_on channel=13 note=51 velocity=19 time=0.002777770833333333
EXTRACT: note_on channel=13 note=54 velocity=23 time=0
EXTRACT: note_on channel=13 note=58 velocity=27 time=0.002777770833333333
EXTRACT: note_on channel=2 note=39 velocity=0 time=0.12916634375
EXTRACT: note_on channel=3 note=61 velocity=0 time=0.14583296874999999
EXTRACT: note_on channel=15 note=39 velocity=0 time=0.02361105208333333
EXTRACT: note_on channel=15 note=54 velocity=26 time=0.008333312499999999
EXTRACT: note_on channel=2 note=54 velocity=25 time=0.006944427083333333
EXTRACT: note_on channel=3 note=61 velocity=111 time=0
EXTRACT: note_on channel=2 note=54 velocity=0 time=0.012499968749999998
EXTRACT: note_on channel=15 note=54 velocity=0 time=0.29999925
EXTRACT: note_on channel=9 note=44 velocity=38 time=0.012499968749999998
EXTRACT: note_on channel=15 note=58 velocity=37 time=0
EXTRACT: note_on channel=15 note=61 velocity=47 time=0
EXTRACT: note_on channel=2 note=58 velocity=26 time=0.006944427083333333
EXTRACT: note_on channel=2 note=61 velocity=60 time=0.019444395833333333
EXTRACT: note_on channel=9 note=44 velocity=0 time=0.004166656249999999
EXTRACT: note_on channel=2 note=61 velocity=0 time=0.011111083333333332
EXTRACT: note_on channel=2 note=58 velocity=0 time=0.009722197916666666
EXTRACT: control_change channel=15 control=11 value=127 time=0.11527748958333332
EXTRACT: control_change channel=15 control=11 value=122 time=0.0416665625
EXTRACT: control_change channel=15 control=11 value=118 time=0.0416665625
EXTRACT: control_change channel=15 control=11 value=114 time=0.0416665625
EXTRACT: control_change channel=15 control=11 value=110 time=0.0416665625
EXTRACT: control_change channel=15 control=11 value=107 time=0.0416665625
EXTRACT: control_change channel=15 control=11 value=102 time=0.0416665625
EXTRACT: control_change channel=15 control=11 value=98 time=0.0416665625
EXTRACT: note_on channel=15 note=61 velocity=0 time=0.004166656249999999
EXTRACT: control_change channel=15 control=11 value=95 time=0.03749990625
EXTRACT: control_change channel=15 control=11 value=91 time=0.048610989583333326
EXTRACT: note_on channel=15 note=58 velocity=0 time=0.016666624999999997
EXTRACT: note_on channel=13 note=58 velocity=0 time=0.06249984374999999
EXTRACT: control_change channel=2 control=64 value=0 time=0.018055510416666663
EXTRACT: note_on channel=13 note=47 velocity=12 time=0.008333312499999999
EXTRACT: note_on channel=15 note=47 velocity=33 time=0.012499968749999998
EXTRACT: control_change channel=15 control=11 value=126 time=0
EXTRACT: note_on channel=13 note=39 velocity=0 time=0.002777770833333333
EXTRACT: note_on channel=13 note=59 velocity=25 time=0
EXTRACT: note_on channel=2 note=47 velocity=52 time=0.0013888854166666665
EXTRACT: control_change channel=2 control=64 value=100 time=0.005555541666666666
EXTRACT: note_on channel=3 note=61 velocity=0 time=0.05277764583333333
EXTRACT: note_on channel=2 note=47 velocity=0 time=0.12499968749999998
EXTRACT: note_on channel=15 note=47 velocity=0 time=0.13749965625
EXTRACT: note_on channel=15 note=51 velocity=26 time=0.008333312499999999
EXTRACT: note_on channel=2 note=51 velocity=25 time=0.006944427083333333
EXTRACT: note_on channel=2 note=51 velocity=0 time=0.04444433333333333
EXTRACT: note_on channel=15 note=51 velocity=0 time=0.25972157291666664
EXTRACT: note_on channel=2 note=54 velocity=47 time=0.019444395833333333
EXTRACT: note_on channel=9 note=44 velocity=30 time=0.002777770833333333
EXTRACT: note_on channel=15 note=54 velocity=37 time=0
EXTRACT: note_on channel=15 note=59 velocity=47 time=0
EXTRACT: note_on channel=2 note=59 velocity=61 time=0.005555541666666666
EXTRACT: note_on channel=2 note=59 velocity=0 time=0.015277739583333332
EXTRACT: note_on channel=2 note=54 velocity=0 time=0.009722197916666666
EXTRACT: note_on channel=9 note=44 velocity=0 time=0
EXTRACT: control_change channel=15 control=11 value=126 time=0.1083330625
EXTRACT: control_change channel=15 control=11 value=123 time=0.0416665625
EXTRACT: control_change channel=15 control=11 value=118 time=0.0416665625
EXTRACT: control_change channel=15 control=11 value=114 time=0.0416665625
EXTRACT: control_change channel=15 control=11 value=111 time=0.0416665625
EXTRACT: control_change channel=15 control=11 value=107 time=0.0416665625
EXTRACT: control_change channel=15 control=11 value=102 time=0.0416665625
EXTRACT: control_change channel=15 control=11 value=99 time=0.0416665625
EXTRACT: control_change channel=15 control=11 value=95 time=0.0416665625
EXTRACT: note_on channel=15 note=59 velocity=0 time=0.0013888854166666665
EXTRACT: control_change channel=15 control=11 value=90 time=0.04722210416666666
EXTRACT: note_on channel=15 note=54 velocity=0 time=0.07222204166666665
EXTRACT: note_on channel=13 note=54 velocity=0 time=0.024999937499999996
EXTRACT: control_change channel=15 control=11 value=127 time=0.02083328125
EXTRACT: control_change channel=2 control=64 value=0 time=0.006944427083333333
EXTRACT: note_on channel=13 note=51 velocity=0 time=0.009722197916666666
EXTRACT: note_on channel=13 note=47 velocity=0 time=0
EXTRACT: note_on channel=13 note=54 velocity=20 time=0.006944427083333333
EXTRACT: note_on channel=15 note=42 velocity=39 time=0.004166656249999999
EXTRACT: note_on channel=13 note=59 velocity=0 time=0.002777770833333333
EXTRACT: note_on channel=2 note=42 velocity=44 time=0.0013888854166666665
EXTRACT: note_on channel=13 note=58 velocity=25 time=0.008333312499999999
EXTRACT: note_on channel=13 note=42 velocity=12 time=0.011111083333333332
EXTRACT: note_on channel=13 note=49 velocity=16 time=0
EXTRACT: control_change channel=2 control=64 value=100 time=0.006944427083333333
EXTRACT: note_on channel=2 note=42 velocity=0 time=0.12499968749999998
EXTRACT: note_on channel=15 note=42 velocity=0 time=0.1583329375
EXTRACT: note_on channel=2 note=49 velocity=24 time=0.016666624999999997
EXTRACT: note_on channel=15 note=49 velocity=26 time=0.002777770833333333
EXTRACT: note_on channel=2 note=49 velocity=0 time=0.009722197916666666
EXTRACT: note_on channel=3 note=61 velocity=110 time=0
EXTRACT: note_on channel=9 note=44 velocity=27 time=0.004166656249999999
EXTRACT: note_on channel=15 note=54 velocity=37 time=0
EXTRACT: note_on channel=15 note=58 velocity=47 time=0
EXTRACT: note_on channel=15 note=49 velocity=0 time=0.005555541666666666
EXTRACT: note_on channel=2 note=58 velocity=61 time=0.009722197916666666
EXTRACT: note_on channel=2 note=54 velocity=43 time=0.002777770833333333
EXTRACT: note_on channel=9 note=44 velocity=0 time=0.012499968749999998
EXTRACT: note_on channel=2 note=54 velocity=0 time=0.02083328125
EXTRACT: note_on channel=2 note=58 velocity=0 time=0.03194436458333333
EXTRACT: control_change channel=15 control=11 value=127 time=0.06249984374999999
EXTRACT: control_change channel=15 control=11 value=123 time=0.0416665625
EXTRACT: control_change channel=15 control=11 value=119 time=0.0416665625
EXTRACT: note_on channel=3 note=61 velocity=0 time=0.011111083333333332
EXTRACT: control_change channel=15 control=11 value=115 time=0.030555479166666663
EXTRACT: control_change channel=15 control=11 value=111 time=0.0416665625
EXTRACT: note_on channel=3 note=61 velocity=111 time=0
EXTRACT: control_change channel=15 control=11 value=107 time=0.02361105208333333
EXTRACT: control_change channel=15 control=11 value=103 time=0.0416665625
EXTRACT: control_change channel=15 control=11 value=99 time=0.0416665625
EXTRACT: control_change channel=15 control=11 value=95 time=0.0416665625
EXTRACT: control_change channel=15 control=11 value=91 time=0.048610989583333326
EXTRACT: note_on channel=15 note=58 velocity=0 time=0.029166593749999997
EXTRACT: note_on channel=3 note=61 velocity=0 time=0.015277739583333332
EXTRACT: note_on channel=15 note=54 velocity=0 time=0.02361105208333333
EXTRACT: control_change channel=2 control=64 value=0 time=0.038888791666666665
EXTRACT: note_on channel=13 note=54 velocity=0 time=0.006944427083333333
EXTRACT: control_change channel=15 control=11 value=127 time=0.004166656249999999
EXTRACT: note_on channel=13 note=58 velocity=0 time=0.009722197916666666
EXTRACT: note_on channel=13 note=42 velocity=0 time=0
EXTRACT: note_on channel=3 note=63 velocity=111 time=0
EXTRACT: note_on channel=15 note=41 velocity=39 time=0.0013888854166666665
EXTRACT: note_on channel=2 note=41 velocity=44 time=0.004166656249999999
EXTRACT: note_on channel=13 note=41 velocity=11 time=0.005555541666666666
EXTRACT: note_on channel=13 note=53 velocity=21 time=0.002777770833333333
EXTRACT: control_change channel=2 control=64 value=100 time=0.008333312499999999
EXTRACT: note_on channel=13 note=56 velocity=25 time=0.005555541666666666
EXTRACT: note_on channel=2 note=41 velocity=0 time=0.16111070833333332
EXTRACT: note_on channel=3 note=63 velocity=0 time=0.11388860416666666
EXTRACT: note_on channel=15 note=41 velocity=0 time=0.02361105208333333
EXTRACT: note_on channel=3 note=61 velocity=110 time=0
EXTRACT: note_on channel=15 note=49 velocity=26 time=0
EXTRACT: note_on channel=2 note=49 velocity=24 time=0.006944427083333333
EXTRACT: note_on channel=2 note=49 velocity=0 time=0.04444433333333333
EXTRACT: note_on channel=3 note=61 velocity=0 time=0.18749953125
EXTRACT: note_on channel=15 note=49 velocity=0 time=0.09027755208333332
EXTRACT: note_on channel=3 note=58 velocity=111 time=0
EXTRACT: note_on channel=9 note=44 velocity=32 time=0.0013888854166666665
EXTRACT: note_on channel=15 note=53 velocity=31 time=0
EXTRACT: note_on channel=15 note=56 velocity=47 time=0
EXTRACT: note_on channel=2 note=56 velocity=61 time=0.015277739583333332
EXTRACT: note_on channel=2 note=53 velocity=37 time=0.002777770833333333
EXTRACT: note_on channel=9 note=44 velocity=0 time=0.012499968749999998
EXTRACT: note_on channel=2 note=56 velocity=0 time=0.011111083333333332
EXTRACT: control_change channel=15 control=11 value=127 time=0.07638869791666666
EXTRACT: control_change channel=15 control=11 value=123 time=0.0416665625
EXTRACT: control_change channel=15 control=11 value=119 time=0.0416665625
EXTRACT: note_on channel=3 note=58 velocity=0 time=0.030555479166666663
EXTRACT: control_change channel=15 control=11 value=115 time=0.011111083333333332
EXTRACT: control_change channel=15 control=11 value=111 time=0.0416665625
EXTRACT: control_change channel=15 control=11 value=107 time=0.0416665625
EXTRACT: note_on channel=3 note=58 velocity=111 time=0
EXTRACT: note_on channel=2 note=49 velocity=27 time=0.005555541666666666
EXTRACT: note_on channel=15 note=37 velocity=37 time=0.015277739583333332
EXTRACT: control_change channel=15 control=11 value=103 time=0.015277739583333332
EXTRACT: note_on channel=2 note=49 velocity=0 time=0.016666624999999997
EXTRACT: note_on channel=15 note=56 velocity=0 time=0.02083328125
EXTRACT: control_change channel=15 control=11 value=99 time=0.004166656249999999
EXTRACT: control_change channel=15 control=11 value=95 time=0.0416665625
EXTRACT: control_change channel=15 control=11 value=91 time=0.048610989583333326
EXTRACT: note_on channel=15 note=53 velocity=0 time=0.0749998125
EXTRACT: note_on channel=15 note=37 velocity=0 time=0.038888791666666665
EXTRACT: control_change channel=2 control=64 value=0 time=0
EXTRACT: note_on channel=13 note=49 velocity=0 time=0.013888854166666666
EXTRACT: note_on channel=13 note=41 velocity=0 time=0.013888854166666666
EXTRACT: note_on channel=13 note=53 velocity=0 time=0.013888854166666666
EXTRACT: control_change channel=15 control=11 value=126 time=0.004166656249999999
EXTRACT: note_on channel=15 note=39 velocity=37 time=0.006944427083333333
EXTRACT: note_on channel=13 note=39 velocity=12 time=0.0013888854166666665
EXTRACT: note_on channel=13 note=56 velocity=0 time=0.0013888854166666665
EXTRACT: note_on channel=2 note=39 velocity=43 time=0.0013888854166666665
EXTRACT: note_on channel=13 note=58 velocity=27 time=0.008333312499999999
EXTRACT: control_change channel=2 control=64 value=100 time=0.008333312499999999
EXTRACT: note_on channel=13 note=51 velocity=19 time=0.002777770833333333
EXTRACT: note_on channel=13 note=54 velocity=23 time=0
EXTRACT: note_on channel=2 note=39 velocity=0 time=0.13194411458333333
EXTRACT: note_on channel=3 note=58 velocity=0 time=0.12499968749999998
EXTRACT: note_on channel=15 note=39 velocity=0 time=0.04444433333333333
EXTRACT: note_on channel=15 note=54 velocity=26 time=0.008333312499999999
EXTRACT: note_on channel=2 note=54 velocity=26 time=0.006944427083333333
EXTRACT: note_on channel=2 note=54 velocity=0 time=0.013888854166666666
EXTRACT: note_on channel=3 note=58 velocity=111 time=0
EXTRACT: note_on channel=15 note=54 velocity=0 time=0.28333262499999995
EXTRACT: note_on channel=9 note=44 velocity=30 time=0.012499968749999998
EXTRACT: note_on channel=15 note=58 velocity=37 time=0
EXTRACT: note_on channel=15 note=61 velocity=47 time=0
EXTRACT: note_on channel=2 note=58 velocity=43 time=0.006944427083333333
EXTRACT: note_on channel=2 note=61 velocity=61 time=0.019444395833333333
EXTRACT: note_on channel=9 note=44 velocity=0 time=0.004166656249999999
EXTRACT: note_on channel=2 note=61 velocity=0 time=0.011111083333333332
EXTRACT: note_on channel=2 note=58 velocity=0 time=0.009722197916666666
EXTRACT: control_change channel=15 control=11 value=127 time=0.11527748958333332
EXTRACT: control_change channel=15 control=11 value=122 time=0.0416665625
EXTRACT: control_change channel=15 control=11 value=118 time=0.0416665625
EXTRACT: control_change channel=15 control=11 value=115 time=0.0416665625
EXTRACT: control_change channel=15 control=11 value=110 time=0.0416665625
EXTRACT: control_change channel=15 control=11 value=107 time=0.0416665625
EXTRACT: control_change channel=15 control=11 value=102 time=0.0416665625
EXTRACT: control_change channel=15 control=11 value=99 time=0.0416665625
EXTRACT: control_change channel=15 control=11 value=94 time=0.0416665625
EXTRACT: control_change channel=15 control=11 value=90 time=0.048610989583333326
EXTRACT: note_on channel=15 note=61 velocity=0 time=0.018055510416666663
EXTRACT: note_on channel=13 note=58 velocity=0 time=0.04722210416666666
EXTRACT: note_on channel=15 note=58 velocity=0 time=0.013888854166666666
EXTRACT: note_on channel=3 note=58 velocity=0 time=0.006944427083333333
EXTRACT: control_change channel=2 control=64 value=0 time=0.011111083333333332
EXTRACT: note_on channel=13 note=47 velocity=12 time=0.008333312499999999
EXTRACT: note_on channel=15 note=47 velocity=32 time=0.012499968749999998
EXTRACT: control_change channel=15 control=11 value=127 time=0
EXTRACT: note_on channel=13 note=39 velocity=0 time=0.002777770833333333
EXTRACT: note_on channel=13 note=59 velocity=25 time=0
EXTRACT: note_on channel=2 note=47 velocity=53 time=0.0013888854166666665
EXTRACT: control_change channel=2 control=64 value=100 time=0.005555541666666666
EXTRACT: note_on channel=2 note=47 velocity=0 time=0.17777733333333332
EXTRACT: note_on channel=15 note=47 velocity=0 time=0.13749965625
EXTRACT: note_on channel=15 note=51 velocity=26 time=0.008333312499999999
EXTRACT: note_on channel=2 note=51 velocity=31 time=0.006944427083333333
EXTRACT: note_on channel=2 note=51 velocity=0 time=0.04444433333333333
EXTRACT: note_on channel=15 note=51 velocity=0 time=0.25972157291666664
EXTRACT: note_on channel=2 note=54 velocity=45 time=0.019444395833333333
EXTRACT: note_on channel=9 note=44 velocity=29 time=0.002777770833333333
EXTRACT: note_on channel=15 note=54 velocity=37 time=0
EXTRACT: note_on channel=15 note=59 velocity=47 time=0
EXTRACT: note_on channel=2 note=59 velocity=61 time=0.005555541666666666
EXTRACT: note_on channel=2 note=59 velocity=0 time=0.015277739583333332
EXTRACT: note_on channel=2 note=54 velocity=0 time=0.009722197916666666
EXTRACT: note_on channel=9 note=44 velocity=0 time=0
EXTRACT: control_change channel=15 control=11 value=127 time=0.1083330625
EXTRACT: control_change channel=15 control=11 value=123 time=0.0416665625
EXTRACT: control_change channel=15 control=11 value=118 time=0.0416665625
EXTRACT: control_change channel=15 control=11 value=114 time=0.0416665625
EXTRACT: control_change channel=15 control=11 value=110 time=0.0416665625
EXTRACT: control_change channel=15 control=11 value=106 time=0.0416665625
EXTRACT: control_change channel=15 control=11 value=103 time=0.0416665625
EXTRACT: control_change channel=15 control=11 value=98 time=0.0416665625
EXTRACT: note_on channel=15 note=54 velocity=0 time=0.016666624999999997
EXTRACT: control_change channel=15 control=11 value=94 time=0.024999937499999996
EXTRACT: note_on channel=15 note=54 velocity=37 time=0.02777770833333333
EXTRACT: note_on channel=2 note=54 velocity=35 time=0.018055510416666663
EXTRACT: note_on channel=15 note=59 velocity=0 time=0.006944427083333333
EXTRACT: note_on channel=2 note=54 velocity=0 time=0.026388822916666665
EXTRACT: note_on channel=13 note=54 velocity=0 time=0.06666649999999999
EXTRACT: control_change channel=15 control=11 value=127 time=0.02083328125
EXTRACT: control_change channel=2 control=64 value=0 time=0.006944427083333333
EXTRACT: note_on channel=13 note=51 velocity=0 time=0.009722197916666666
EXTRACT: note_on channel=13 note=47 velocity=0 time=0
EXTRACT: note_on channel=13 note=54 velocity=20 time=0.006944427083333333
EXTRACT: note_on channel=15 note=42 velocity=39 time=0.004166656249999999
EXTRACT: note_on channel=13 note=59 velocity=0 time=0.002777770833333333
EXTRACT: note_on channel=2 note=42 velocity=45 time=0.0013888854166666665
EXTRACT: note_on channel=13 note=58 velocity=25 time=0.008333312499999999
EXTRACT: note_on channel=13 note=42 velocity=12 time=0.011111083333333332
EXTRACT: control_change channel=2 control=64 value=100 time=0.006944427083333333
EXTRACT: note_on channel=13 note=61 velocity=25 time=0.05138876041666666
EXTRACT: note_on channel=2 note=42 velocity=0 time=0.07361092708333332
EXTRACT: note_on channel=15 note=54 velocity=0 time=0.10416640625
EXTRACT: note_on channel=15 note=42 velocity=0 time=0.05416653125
EXTRACT: note_on channel=2 note=49 velocity=26 time=0.016666624999999997
EXTRACT: note_on channel=15 note=49 velocity=26 time=0.002777770833333333
EXTRACT: note_on channel=2 note=49 velocity=0 time=0.009722197916666666
EXTRACT: note_on channel=15 note=49 velocity=0 time=0.27361042708333333
EXTRACT: note_on channel=9 note=44 velocity=30 time=0.04999987499999999
EXTRACT: note_on channel=15 note=54 velocity=37 time=0
EXTRACT: note_on channel=15 note=58 velocity=47 time=0
EXTRACT: note_on channel=2 note=58 velocity=61 time=0.015277739583333332
EXTRACT: note_on channel=2 note=54 velocity=51 time=0.002777770833333333
EXTRACT: note_on channel=9 note=44 velocity=0 time=0.012499968749999998
EXTRACT: note_on channel=2 note=54 velocity=0 time=0.02083328125
EXTRACT: note_on channel=2 note=58 velocity=0 time=0.03194436458333333
EXTRACT: control_change channel=15 control=11 value=127 time=0.06249984374999999
EXTRACT: control_change channel=15 control=11 value=122 time=0.0416665625
EXTRACT: control_change channel=15 control=11 value=118 time=0.0416665625
EXTRACT: control_change channel=15 control=11 value=115 time=0.0416665625
EXTRACT: control_change channel=15 control=11 value=110 time=0.0416665625
EXTRACT: control_change channel=15 control=11 value=106 time=0.0416665625
EXTRACT: control_change channel=15 control=11 value=103 time=0.0416665625
EXTRACT: control_change channel=15 control=11 value=99 time=0.0416665625
EXTRACT: control_change channel=15 control=11 value=94 time=0.0416665625
EXTRACT: note_on channel=15 note=58 velocity=0 time=0.024999937499999996
EXTRACT: control_change channel=15 control=11 value=91 time=0.02361105208333333
EXTRACT: note_on channel=15 note=54 velocity=0 time=0.016666624999999997
EXTRACT: control_change channel=2 control=64 value=0 time=0.09027755208333332
EXTRACT: note_on channel=13 note=54 velocity=0 time=0.006944427083333333
EXTRACT: control_change channel=15 control=11 value=127 time=0.004166656249999999
EXTRACT: note_on channel=3 note=54 velocity=111 time=0
EXTRACT: note_on channel=13 note=58 velocity=0 time=0.006944427083333333
EXTRACT: note_on channel=13 note=42 velocity=0 time=0
EXTRACT: control_change channel=2 control=64 value=100 time=0.004166656249999999
EXTRACT: note_on channel=13 note=56 velocity=25 time=0.005555541666666666
EXTRACT: note_on channel=2 note=41 velocity=39 time=0.0013888854166666665
EXTRACT: note_on channel=2 note=49 velocity=29 time=0
EXTRACT: note_on channel=2 note=56 velocity=57 time=0
EXTRACT: note_on channel=15 note=41 velocity=39 time=0
EXTRACT: note_on channel=2 note=41 velocity=0 time=0.005555541666666666
EXTRACT: note_on channel=2 note=49 velocity=0 time=0.004166656249999999
EXTRACT: note_on channel=13 note=41 velocity=11 time=0
EXTRACT: note_on channel=13 note=53 velocity=21 time=0.002777770833333333
EXTRACT: note_on channel=15 note=56 velocity=47 time=0.008333312499999999
EXTRACT: note_on channel=2 note=56 velocity=0 time=0.004166656249999999
EXTRACT: note_on channel=3 note=54 velocity=0 time=0.2513882604166666
EXTRACT: note_on channel=3 note=54 velocity=111 time=0
EXTRACT: control_change channel=15 control=11 value=126 time=0.009722197916666666
EXTRACT: control_change channel=15 control=11 value=123 time=0.0416665625
EXTRACT: control_change channel=15 control=11 value=119 time=0.0416665625
EXTRACT: control_change channel=15 control=11 value=115 time=0.0416665625
EXTRACT: control_change channel=15 control=11 value=111 time=0.0416665625
EXTRACT: control_change channel=15 control=11 value=107 time=0.0416665625
EXTRACT: note_on channel=3 note=54 velocity=0 time=0.018055510416666663
EXTRACT: control_change channel=15 control=11 value=103 time=0.02361105208333333
EXTRACT: control_change channel=15 control=11 value=99 time=0.0416665625
EXTRACT: note_on channel=3 note=54 velocity=111 time=0
EXTRACT: note_on channel=9 note=44 velocity=39 time=0.004166656249999999
EXTRACT: control_change channel=15 control=11 value=95 time=0.006944427083333333
EXTRACT: note_on channel=9 note=44 velocity=0 time=0.02361105208333333
EXTRACT: control_change channel=15 control=11 value=91 time=0.024999937499999996
EXTRACT: note_on channel=15 note=41 velocity=0 time=0.058333187499999994
EXTRACT: note_on channel=15 note=56 velocity=0 time=0.083333125
EXTRACT: note_on channel=3 note=54 velocity=0 time=0.04722210416666666
EXTRACT: control_change channel=15 control=11 value=127 time=0.05416653125
EXTRACT: note_on channel=2 note=49 velocity=18 time=0.03472213541666666
EXTRACT: note_on channel=15 note=56 velocity=46 time=0
EXTRACT: note_on channel=3 note=56 velocity=111 time=0
EXTRACT: note_on channel=2 note=56 velocity=47 time=0.012499968749999998
EXTRACT: note_on channel=2 note=56 velocity=0 time=0.026388822916666665
EXTRACT: note_on channel=15 note=56 velocity=0 time=0.13472188541666666
EXTRACT: note_on channel=3 note=56 velocity=0 time=0.083333125
EXTRACT: note_on channel=13 note=61 velocity=0 time=0.006944427083333333
EXTRACT: control_change channel=2 control=64 value=0 time=0.013888854166666666
EXTRACT: note_on channel=13 note=56 velocity=0 time=0.02777770833333333
EXTRACT: note_on channel=13 note=41 velocity=0 time=0
EXTRACT: note_on channel=13 note=53 velocity=0 time=0.013888854166666666
EXTRACT: note_on channel=3 note=58 velocity=111 time=0
EXTRACT: note_on channel=15 note=39 velocity=37 time=0.0013888854166666665
EXTRACT: note_on channel=13 note=39 velocity=12 time=0.0013888854166666665
EXTRACT: note_on channel=2 note=39 velocity=43 time=0.002777770833333333
EXTRACT: note_on channel=13 note=51 velocity=16 time=0.008333312499999999
EXTRACT: note_on channel=13 note=58 velocity=27 time=0
EXTRACT: control_change channel=2 control=64 value=100 time=0.008333312499999999
EXTRACT: note_on channel=13 note=54 velocity=23 time=0.002777770833333333
EXTRACT: note_on channel=13 note=61 velocity=14 time=0
EXTRACT: note_on channel=2 note=39 velocity=0 time=0.13194411458333333
EXTRACT: note_on channel=15 note=39 velocity=0 time=0.16944402083333332
EXTRACT: note_on channel=15 note=54 velocity=26 time=0.008333312499999999
EXTRACT: note_on channel=2 note=54 velocity=29 time=0.006944427083333333
EXTRACT: note_on channel=2 note=54 velocity=0 time=0.013888854166666666
EXTRACT: note_on channel=3 note=58 velocity=0 time=0.17638844791666664
EXTRACT: note_on channel=15 note=54 velocity=0 time=0.12361080208333332
EXTRACT: note_on channel=3 note=58 velocity=111 time=0
EXTRACT: note_on channel=9 note=44 velocity=47 time=0.002777770833333333
EXTRACT: note_on channel=15 note=58 velocity=36 time=0
EXTRACT: note_on channel=15 note=61 velocity=46 time=0
EXTRACT: note_on channel=2 note=58 velocity=51 time=0.006944427083333333
EXTRACT: note_on channel=2 note=61 velocity=61 time=0.019444395833333333
EXTRACT: note_on channel=9 note=44 velocity=0 time=0.004166656249999999
EXTRACT: note_on channel=2 note=61 velocity=0 time=0.011111083333333332
EXTRACT: note_on channel=2 note=58 velocity=0 time=0.009722197916666666
EXTRACT: control_change channel=15 control=11 value=127 time=0.11527748958333332
EXTRACT: control_change channel=15 control=11 value=123 time=0.0416665625
EXTRACT: control_change channel=15 control=11 value=119 time=0.0416665625
EXTRACT: note_on channel=3 note=58 velocity=0 time=0.009722197916666666
EXTRACT: control_change channel=15 control=11 value=115 time=0.03194436458333333
EXTRACT: note_on channel=3 note=59 velocity=111 time=0
EXTRACT: control_change channel=15 control=11 value=111 time=0.005555541666666666
EXTRACT: control_change channel=15 control=11 value=107 time=0.0416665625
EXTRACT: control_change channel=15 control=11 value=103 time=0.0416665625
EXTRACT: control_change channel=15 control=11 value=99 time=0.0416665625
EXTRACT: control_change channel=15 control=11 value=95 time=0.0416665625
EXTRACT: note_on channel=15 note=61 velocity=0 time=0.0416665625
EXTRACT: control_change channel=15 control=11 value=91 time=0.006944427083333333
EXTRACT: note_on channel=3 note=59 velocity=0 time=0.04444433333333333
EXTRACT: note_on channel=13 note=58 velocity=0 time=0.02083328125
EXTRACT: note_on channel=15 note=58 velocity=0 time=0
EXTRACT: control_change channel=2 control=64 value=0 time=0.03194436458333333
EXTRACT: note_on channel=13 note=47 velocity=12 time=0.008333312499999999
EXTRACT: note_on channel=3 note=58 velocity=111 time=0
EXTRACT: note_on channel=15 note=47 velocity=33 time=0.002777770833333333
EXTRACT: control_change channel=15 control=11 value=127 time=0
EXTRACT: note_on channel=13 note=39 velocity=0 time=0.002777770833333333
EXTRACT: note_on channel=13 note=59 velocity=25 time=0
EXTRACT: note_on channel=2 note=47 velocity=53 time=0.0013888854166666665
EXTRACT: control_change channel=2 control=64 value=100 time=0.005555541666666666
EXTRACT: note_on channel=13 note=61 velocity=0 time=0.03472213541666666
EXTRACT: note_on channel=2 note=47 velocity=0 time=0.14305519791666665
EXTRACT: note_on channel=3 note=58 velocity=0 time=0.11388860416666666
EXTRACT: note_on channel=15 note=47 velocity=0 time=0.02361105208333333
EXTRACT: note_on channel=3 note=56 velocity=111 time=0
EXTRACT: note_on channel=15 note=51 velocity=26 time=0
EXTRACT: note_on channel=2 note=51 velocity=24 time=0.006944427083333333
EXTRACT: note_on channel=2 note=51 velocity=0 time=0.04444433333333333
EXTRACT: note_on channel=3 note=56 velocity=0 time=0.22916609374999997
EXTRACT: note_on channel=15 note=51 velocity=0 time=0.030555479166666663
EXTRACT: note_on channel=2 note=54 velocity=47 time=0.019444395833333333
EXTRACT: note_on channel=9 note=44 velocity=31 time=0.002777770833333333
EXTRACT: note_on channel=15 note=54 velocity=36 time=0
EXTRACT: note_on channel=15 note=59 velocity=47 time=0
EXTRACT: note_on channel=2 note=59 velocity=61 time=0.005555541666666666
EXTRACT: note_on channel=2 note=59 velocity=0 time=0.015277739583333332
EXTRACT: note_on channel=2 note=54 velocity=0 time=0.009722197916666666
EXTRACT: note_on channel=9 note=44 velocity=0 time=0
EXTRACT: control_change channel=15 control=11 value=127 time=0.1083330625
EXTRACT: control_change channel=15 control=11 value=122 time=0.0416665625
EXTRACT: control_change channel=15 control=11 value=119 time=0.0416665625
EXTRACT: control_change channel=15 control=11 value=114 time=0.0416665625
EXTRACT: note_on channel=3 note=54 velocity=111 time=0
EXTRACT: control_change channel=15 control=11 value=110 time=0.006944427083333333
EXTRACT: note_on channel=2 note=49 velocity=23 time=0.03472213541666666
EXTRACT: control_change channel=15 control=11 value=107 time=0.006944427083333333
EXTRACT: note_on channel=2 note=49 velocity=0 time=0.03749990625
EXTRACT: control_change channel=15 control=11 value=102 time=0.004166656249999999
EXTRACT: control_change channel=15 control=11 value=99 time=0.0416665625
EXTRACT: control_change channel=15 control=11 value=94 time=0.0416665625
EXTRACT: note_on channel=15 note=59 velocity=0 time=0.02777770833333333
EXTRACT: control_change channel=15 control=11 value=91 time=0.02083328125
EXTRACT: note_on channel=3 note=54 velocity=0 time=0.07222204166666665
EXTRACT: note_on channel=13 note=51 velocity=0 time=0.006944427083333333
EXTRACT: note_on channel=15 note=54 velocity=0 time=0.004166656249999999
EXTRACT: note_on channel=13 note=54 velocity=0 time=0.013888854166666666
EXTRACT: control_change channel=15 control=11 value=126 time=0.02083328125
EXTRACT: control_change channel=2 control=64 value=0 time=0.006944427083333333
EXTRACT: note_on channel=13 note=47 velocity=0 time=0.009722197916666666
EXTRACT: note_on channel=13 note=54 velocity=20 time=0.006944427083333333
EXTRACT: note_on channel=15 note=42 velocity=38 time=0.004166656249999999
EXTRACT: note_on channel=13 note=59 velocity=0 time=0.002777770833333333
EXTRACT: note_on channel=2 note=42 velocity=45 time=0.0013888854166666665
EXTRACT: note_on channel=3 note=58 velocity=111 time=0
EXTRACT: note_on channel=13 note=58 velocity=25 time=0.006944427083333333
EXTRACT: note_on channel=13 note=42 velocity=12 time=0.011111083333333332
EXTRACT: note_on channel=13 note=49 velocity=14 time=0.002777770833333333
EXTRACT: control_change channel=2 control=64 value=100 time=0.004166656249999999
EXTRACT: note_on channel=2 note=42 velocity=0 time=0.12499968749999998
EXTRACT: note_on channel=15 note=42 velocity=0 time=0.1583329375
EXTRACT: note_on channel=3 note=58 velocity=0 time=0.016666624999999997
EXTRACT: note_on channel=2 note=49 velocity=31 time=0
EXTRACT: note_on channel=15 note=49 velocity=26 time=0.002777770833333333
EXTRACT: note_on channel=2 note=49 velocity=0 time=0.009722197916666666
EXTRACT: note_on channel=3 note=58 velocity=111 time=0
EXTRACT: note_on channel=3 note=58 velocity=0 time=0.18472176041666666
EXTRACT: note_on channel=9 note=44 velocity=26 time=0.11666637499999999
EXTRACT: note_on channel=15 note=54 velocity=37 time=0
EXTRACT: note_on channel=15 note=58 velocity=46 time=0
EXTRACT: note_on channel=15 note=49 velocity=0 time=0.005555541666666666
EXTRACT: note_on channel=3 note=58 velocity=111 time=0
EXTRACT: note_on channel=2 note=58 velocity=60 time=0.006944427083333333
EXTRACT: note_on channel=2 note=54 velocity=51 time=0.002777770833333333
EXTRACT: note_on channel=9 note=44 velocity=0 time=0.012499968749999998
EXTRACT: note_on channel=2 note=54 velocity=0 time=0.02083328125
EXTRACT: note_on channel=2 note=58 velocity=0 time=0.03194436458333333
EXTRACT: control_change channel=15 control=11 value=126 time=0.06249984374999999
EXTRACT: control_change channel=15 control=11 value=123 time=0.0416665625
EXTRACT: control_change channel=15 control=11 value=119 time=0.0416665625
EXTRACT: control_change channel=15 control=11 value=115 time=0.0416665625
EXTRACT: note_on channel=3 note=58 velocity=0 time=0.009722197916666666
EXTRACT: control_change channel=15 control=11 value=110 time=0.03194436458333333
EXTRACT: note_on channel=3 note=59 velocity=111 time=0
EXTRACT: control_change channel=15 control=11 value=106 time=0.002777770833333333
EXTRACT: control_change channel=15 control=11 value=102 time=0.0416665625
EXTRACT: control_change channel=15 control=11 value=98 time=0.0416665625
EXTRACT: control_change channel=15 control=11 value=95 time=0.0416665625
EXTRACT: control_change channel=15 control=11 value=90 time=0.048610989583333326
EXTRACT: note_on channel=15 note=58 velocity=0 time=0.02361105208333333
EXTRACT: note_on channel=3 note=59 velocity=0 time=0.045833218749999995
EXTRACT: control_change channel=2 control=64 value=0 time=0.03749990625
EXTRACT: note_on channel=15 note=54 velocity=0 time=0.005555541666666666
EXTRACT: note_on channel=13 note=54 velocity=0 time=0.0013888854166666665
EXTRACT: control_change channel=15 control=11 value=126 time=0.004166656249999999
EXTRACT: note_on channel=13 note=58 velocity=0 time=0.009722197916666666
EXTRACT: note_on channel=13 note=42 velocity=0 time=0
EXTRACT: note_on channel=13 note=56 velocity=25 time=0.009722197916666666
EXTRACT: note_on channel=15 note=41 velocity=38 time=0.0013888854166666665
EXTRACT: note_on channel=3 note=58 velocity=111 time=0
EXTRACT: note_on channel=2 note=41 velocity=42 time=0.0013888854166666665
EXTRACT: note_on channel=13 note=41 velocity=11 time=0.005555541666666666
EXTRACT: note_on channel=13 note=53 velocity=21 time=0.002777770833333333
EXTRACT: control_change channel=2 control=64 value=100 time=0.008333312499999999
EXTRACT: note_on channel=2 note=41 velocity=0 time=0.16666625
EXTRACT: note_on channel=15 note=41 velocity=0 time=0.13749965625
EXTRACT: note_on channel=3 note=58 velocity=0 time=0.0013888854166666665
EXTRACT: note_on channel=15 note=49 velocity=23 time=0.006944427083333333
EXTRACT: note_on channel=2 note=49 velocity=26 time=0.006944427083333333
EXTRACT: note_on channel=3 note=56 velocity=111 time=0
EXTRACT: note_on channel=2 note=49 velocity=0 time=0.04027767708333333
EXTRACT: note_on channel=3 note=56 velocity=0 time=0.16666625
EXTRACT: note_on channel=15 note=49 velocity=0 time=0.11111083333333333
EXTRACT: note_on channel=9 note=44 velocity=32 time=0.004166656249999999
EXTRACT: note_on channel=15 note=53 velocity=24 time=0
EXTRACT: note_on channel=15 note=56 velocity=41 time=0
EXTRACT: note_on channel=3 note=54 velocity=111 time=0
EXTRACT: note_on channel=2 note=56 velocity=60 time=0.0013888854166666665
EXTRACT: note_on channel=2 note=53 velocity=39 time=0.002777770833333333
EXTRACT: note_on channel=9 note=44 velocity=0 time=0.012499968749999998
EXTRACT: note_on channel=2 note=56 velocity=0 time=0.011111083333333332
EXTRACT: control_change channel=15 control=11 value=127 time=0.07638869791666666
EXTRACT: control_change channel=15 control=11 value=123 time=0.0416665625
EXTRACT: control_change channel=15 control=11 value=118 time=0.0416665625
EXTRACT: note_on channel=3 note=54 velocity=0 time=0.0013888854166666665
EXTRACT: control_change channel=15 control=11 value=114 time=0.04027767708333333
EXTRACT: control_change channel=15 control=11 value=111 time=0.0416665625
EXTRACT: control_change channel=15 control=11 value=106 time=0.0416665625
EXTRACT: note_on channel=3 note=54 velocity=111 time=0
EXTRACT: note_on channel=2 note=49 velocity=31 time=0.004166656249999999
EXTRACT: control_change channel=15 control=11 value=102 time=0.02777770833333333
EXTRACT: control_change channel=15 control=11 value=99 time=0.0416665625
EXTRACT: control_change channel=15 control=11 value=95 time=0.0416665625
EXTRACT: control_change channel=15 control=11 value=90 time=0.048610989583333326
EXTRACT: note_on channel=2 note=49 velocity=0 time=0.07222204166666665
EXTRACT: note_on channel=15 note=56 velocity=0 time=0.0416665625
EXTRACT: control_change channel=2 control=64 value=0 time=0
EXTRACT: note_on channel=15 note=53 velocity=0 time=0.026388822916666665
EXTRACT: note_on channel=13 note=49 velocity=0 time=0.0013888854166666665
EXTRACT: note_on channel=13 note=56 velocity=0 time=0
EXTRACT: note_on channel=13 note=41 velocity=0 time=0
EXTRACT: note_on channel=13 note=53 velocity=0 time=0.013888854166666666
EXTRACT: control_change channel=15 control=11 value=127 time=0.004166656249999999
EXTRACT: note_on channel=15 note=39 velocity=37 time=0.006944427083333333
EXTRACT: note_on channel=13 note=39 velocity=12 time=0.0013888854166666665
EXTRACT: note_on channel=2 note=39 velocity=42 time=0.002777770833333333
EXTRACT: note_on channel=13 note=58 velocity=27 time=0.008333312499999999
EXTRACT: control_change channel=2 control=64 value=100 time=0.008333312499999999
EXTRACT: note_on channel=13 note=51 velocity=19 time=0.002777770833333333
EXTRACT: note_on channel=13 note=54 velocity=23 time=0
EXTRACT: note_on channel=2 note=39 velocity=0 time=0.13194411458333333
EXTRACT: note_on channel=15 note=39 velocity=0 time=0.16944402083333332
EXTRACT: note_on channel=15 note=54 velocity=26 time=0.008333312499999999
EXTRACT: note_on channel=2 note=54 velocity=28 time=0.006944427083333333
EXTRACT: note_on channel=2 note=54 velocity=0 time=0.013888854166666666
EXTRACT: note_on channel=15 note=54 velocity=0 time=0.29999925
EXTRACT: note_on channel=9 note=44 velocity=31 time=0.012499968749999998
EXTRACT: note_on channel=15 note=58 velocity=37 time=0
EXTRACT: note_on channel=15 note=61 velocity=46 time=0
EXTRACT: note_on channel=2 note=58 velocity=51 time=0.006944427083333333
EXTRACT: note_on channel=2 note=61 velocity=60 time=0.019444395833333333
EXTRACT: note_on channel=9 note=44 velocity=0 time=0.004166656249999999
EXTRACT: note_on channel=2 note=61 velocity=0 time=0.011111083333333332
EXTRACT: note_on channel=2 note=58 velocity=0 time=0.009722197916666666
EXTRACT: control_change channel=15 control=11 value=127 time=0.11527748958333332
EXTRACT: control_change channel=15 control=11 value=122 time=0.0416665625
EXTRACT: control_change channel=15 control=11 value=119 time=0.0416665625
EXTRACT: control_change channel=15 control=11 value=115 time=0.0416665625
EXTRACT: control_change channel=15 control=11 value=111 time=0.0416665625
EXTRACT: note_on channel=3 note=54 velocity=0 time=0.030555479166666663
EXTRACT: control_change channel=15 control=11 value=107 time=0.011111083333333332
EXTRACT: control_change channel=15 control=11 value=103 time=0.0416665625
EXTRACT: control_change channel=15 control=11 value=99 time=0.0416665625
EXTRACT: control_change channel=15 control=11 value=95 time=0.0416665625
EXTRACT: control_change channel=15 control=11 value=91 time=0.048610989583333326
EXTRACT: note_on channel=13 note=58 velocity=0 time=0.06527761458333332
EXTRACT: note_on channel=15 note=61 velocity=0 time=0.018055510416666663
EXTRACT: control_change channel=2 control=64 value=0 time=0.013888854166666666
EXTRACT: note_on channel=13 note=47 velocity=12 time=0.008333312499999999
EXTRACT: note_on channel=15 note=47 velocity=32 time=0.012499968749999998
EXTRACT: control_change channel=15 control=11 value=127 time=0
EXTRACT: note_on channel=13 note=39 velocity=0 time=0.002777770833333333
EXTRACT: note_on channel=13 note=59 velocity=25 time=0
EXTRACT: note_on channel=2 note=47 velocity=53 time=0.0013888854166666665
EXTRACT: note_on channel=15 note=58 velocity=0 time=0.005555541666666666
EXTRACT: control_change channel=2 control=64 value=100 time=0
EXTRACT: note_on channel=2 note=47 velocity=0 time=0.17777733333333332
EXTRACT: note_on channel=15 note=47 velocity=0 time=0.13749965625
EXTRACT: note_on channel=15 note=51 velocity=26 time=0.008333312499999999
EXTRACT: note_on channel=2 note=51 velocity=24 time=0.006944427083333333
EXTRACT: note_on channel=2 note=51 velocity=0 time=0.04444433333333333
EXTRACT: note_on channel=15 note=51 velocity=0 time=0.25972157291666664
EXTRACT: note_on channel=2 note=54 velocity=42 time=0.019444395833333333
EXTRACT: note_on channel=9 note=44 velocity=29 time=0.002777770833333333
EXTRACT: note_on channel=15 note=54 velocity=36 time=0
EXTRACT: note_on channel=15 note=59 velocity=46 time=0
EXTRACT: note_on channel=2 note=59 velocity=60 time=0.005555541666666666
EXTRACT: note_on channel=2 note=59 velocity=0 time=0.015277739583333332
EXTRACT: note_on channel=2 note=54 velocity=0 time=0.009722197916666666
EXTRACT: note_on channel=9 note=44 velocity=0 time=0
EXTRACT: control_change channel=15 control=11 value=127 time=0.1083330625
EXTRACT: control_change channel=15 control=11 value=123 time=0.0416665625
EXTRACT: control_change channel=15 control=11 value=119 time=0.0416665625
EXTRACT: control_change channel=15 control=11 value=115 time=0.0416665625
EXTRACT: control_change channel=15 control=11 value=111 time=0.0416665625
EXTRACT: control_change channel=15 control=11 value=107 time=0.0416665625
EXTRACT: control_change channel=15 control=11 value=103 time=0.0416665625
EXTRACT: control_change channel=15 control=11 value=99 time=0.0416665625
EXTRACT: control_change channel=15 control=11 value=95 time=0.0416665625
EXTRACT: note_on channel=15 note=59 velocity=0 time=0.058333187499999994
EXTRACT: note_on channel=15 note=54 velocity=0 time=0.083333125
EXTRACT: note_on channel=13 note=54 velocity=0 time=0.004166656249999999
EXTRACT: control_change channel=15 control=11 value=127 time=0.02083328125
EXTRACT: control_change channel=2 control=64 value=0 time=0.006944427083333333
EXTRACT: note_on channel=13 note=51 velocity=0 time=0.009722197916666666
EXTRACT: note_on channel=13 note=47 velocity=0 time=0
EXTRACT: note_on channel=13 note=54 velocity=20 time=0.006944427083333333
EXTRACT: note_on channel=15 note=42 velocity=38 time=0.004166656249999999
EXTRACT: note_on channel=13 note=59 velocity=0 time=0.002777770833333333
EXTRACT: note_on channel=2 note=42 velocity=45 time=0.0013888854166666665
EXTRACT: note_on channel=13 note=58 velocity=25 time=0.008333312499999999
EXTRACT: note_on channel=13 note=42 velocity=12 time=0.011111083333333332
EXTRACT: note_on channel=13 note=61 velocity=25 time=0.002777770833333333
EXTRACT: control_change channel=2 control=64 value=100 time=0.004166656249999999
EXTRACT: note_on channel=2 note=42 velocity=0 time=0.12499968749999998
EXTRACT: note_on channel=15 note=42 velocity=0 time=0.1583329375
EXTRACT: note_on channel=2 note=49 velocity=24 time=0.016666624999999997
EXTRACT: note_on channel=15 note=49 velocity=26 time=0.002777770833333333
EXTRACT: note_on channel=2 note=49 velocity=0 time=0.009722197916666666
EXTRACT: control_change channel=3 control=11 value=85 time=0.21249946874999998
EXTRACT: note_on channel=9 note=44 velocity=30 time=0.11111083333333333
EXTRACT: note_on channel=15 note=54 velocity=37 time=0
EXTRACT: note_on channel=15 note=58 velocity=46 time=0
EXTRACT: note_on channel=15 note=49 velocity=0 time=0.005555541666666666
EXTRACT: note_on channel=2 note=58 velocity=61 time=0.009722197916666666
EXTRACT: note_on channel=2 note=54 velocity=51 time=0.002777770833333333
EXTRACT: note_on channel=9 note=44 velocity=0 time=0.012499968749999998
EXTRACT: note_on channel=2 note=54 velocity=0 time=0.02083328125
EXTRACT: note_on channel=2 note=58 velocity=0 time=0.03194436458333333
EXTRACT: control_change channel=15 control=11 value=127 time=0.06249984374999999
EXTRACT: control_change channel=15 control=11 value=123 time=0.0416665625
EXTRACT: control_change channel=15 control=11 value=119 time=0.0416665625
EXTRACT: control_change channel=15 control=11 value=114 time=0.0416665625
EXTRACT: control_change channel=15 control=11 value=111 time=0.0416665625
EXTRACT: note_on channel=3 note=54 velocity=111 time=0
EXTRACT: control_change channel=15 control=11 value=106 time=0.02361105208333333
EXTRACT: control_change channel=15 control=11 value=102 time=0.0416665625
EXTRACT: control_change channel=15 control=11 value=99 time=0.0416665625
EXTRACT: control_change channel=15 control=11 value=94 time=0.0416665625
EXTRACT: note_on channel=15 note=58 velocity=0 time=0.009722197916666666
EXTRACT: note_on channel=3 note=54 velocity=0 time=0
EXTRACT: control_change channel=15 control=11 value=91 time=0.038888791666666665
EXTRACT: control_change channel=9 control=99 value=28 time=0.083333125
EXTRACT: control_change channel=2 control=64 value=0 time=0.02361105208333333
EXTRACT: note_on channel=15 note=54 velocity=0 time=0.005555541666666666
EXTRACT: note_on channel=13 note=54 velocity=0 time=0.0013888854166666665
EXTRACT: control_change channel=15 control=11 value=126 time=0.004166656249999999
EXTRACT: note_on channel=13 note=58 velocity=0 time=0.009722197916666666
EXTRACT: note_on channel=13 note=42 velocity=0 time=0
EXTRACT: control_change channel=2 control=64 value=100 time=0.004166656249999999
EXTRACT: note_on channel=3 note=54 velocity=110 time=0
EXTRACT: note_on channel=13 note=56 velocity=25 time=0
EXTRACT: note_on channel=2 note=41 velocity=42 time=0.0013888854166666665
EXTRACT: note_on channel=2 note=53 velocity=44 time=0
EXTRACT: note_on channel=2 note=61 velocity=60 time=0
EXTRACT: note_on channel=15 note=41 velocity=30 time=0
EXTRACT: control_change channel=9 control=98 value=47 time=0
EXTRACT: note_on channel=2 note=41 velocity=0 time=0.005555541666666666
EXTRACT: note_on channel=13 note=41 velocity=11 time=0.004166656249999999
EXTRACT: note_on channel=13 note=53 velocity=21 time=0.002777770833333333
EXTRACT: note_on channel=15 note=56 velocity=42 time=0.008333312499999999
EXTRACT: note_on channel=2 note=61 velocity=0 time=0.004166656249999999
EXTRACT: control_change channel=9 control=6 value=20 time=0.009722197916666666
EXTRACT: control_change channel=9 control=98 value=85 time=0.030555479166666663
EXTRACT: control_change channel=9 control=6 value=100 time=0.03472213541666666
EXTRACT: control_change channel=9 control=98 value=43 time=0.06666649999999999
EXTRACT: control_change channel=9 control=6 value=100 time=0.05555541666666666
EXTRACT: note_on channel=3 note=54 velocity=0 time=0.048610989583333326
EXTRACT: note_on channel=3 note=56 velocity=111 time=0
EXTRACT: note_on channel=9 note=47 velocity=84 time=0
EXTRACT: note_on channel=9 note=47 velocity=0 time=0.030555479166666663
EXTRACT: control_change channel=15 control=11 value=123 time=0.018055510416666663
EXTRACT: control_change channel=15 control=11 value=118 time=0.0416665625
EXTRACT: control_change channel=15 control=11 value=114 time=0.0416665625
EXTRACT: control_change channel=15 control=11 value=111 time=0.0416665625
EXTRACT: control_change channel=15 control=11 value=107 time=0.0416665625
EXTRACT: note_on channel=3 note=56 velocity=0 time=0.02777770833333333
EXTRACT: control_change channel=15 control=11 value=103 time=0.013888854166666666
EXTRACT: note_on channel=15 note=56 velocity=0 time=0.03472213541666666
EXTRACT: control_change channel=15 control=11 value=98 time=0.006944427083333333
EXTRACT: note_on channel=3 note=58 velocity=110 time=0
EXTRACT: note_on channel=9 note=43 velocity=80 time=0.0013888854166666665
EXTRACT: control_change channel=15 control=11 value=94 time=0.006944427083333333
EXTRACT: note_on channel=9 note=43 velocity=0 time=0.02361105208333333
EXTRACT: control_change channel=15 control=11 value=90 time=0.024999937499999996
EXTRACT: note_on channel=15 note=41 velocity=0 time=0.058333187499999994
EXTRACT: note_on channel=3 note=58 velocity=0 time=0.12499968749999998
EXTRACT: control_change channel=15 control=11 value=126 time=0.05972207291666666
EXTRACT: note_on channel=2 note=49 velocity=31 time=0.018055510416666663
EXTRACT: note_on channel=3 note=61 velocity=110 time=0
EXTRACT: note_on channel=1 note=37 velocity=117 time=0.0013888854166666665
EXTRACT: note_on channel=15 note=41 velocity=16 time=0
EXTRACT: note_on channel=15 note=49 velocity=25 time=0
EXTRACT: control_change channel=9 control=99 value=24 time=0
EXTRACT: control_change channel=9 control=98 value=85 time=0.05555541666666666
EXTRACT: control_change channel=9 control=6 value=80 time=0.02777770833333333
EXTRACT: note_on channel=15 note=41 velocity=0 time=0.0416665625
EXTRACT: control_change channel=9 control=99 value=29 time=0.006944427083333333
EXTRACT: note_on channel=15 note=49 velocity=0 time=0.002777770833333333
EXTRACT: control_change channel=9 control=98 value=85 time=0.018055510416666663
EXTRACT: control_change channel=9 control=6 value=35 time=0.02083328125
EXTRACT: note_on channel=2 note=49 velocity=0 time=0.02361105208333333
EXTRACT: control_change channel=9 control=98 value=39 time=0.011111083333333332
EXTRACT: note_on channel=13 note=61 velocity=0 time=0.002777770833333333
EXTRACT: control_change channel=9 control=6 value=15 time=0.018055510416666663
EXTRACT: control_change channel=9 control=98 value=28 time=0.02083328125
EXTRACT: control_change channel=9 control=6 value=15 time=0.02083328125
EXTRACT: control_change channel=2 control=64 value=0 time=0.009722197916666666
EXTRACT: note_on channel=13 note=56 velocity=0 time=0.02777770833333333
EXTRACT: note_on channel=13 note=41 velocity=0 time=0
EXTRACT: note_on channel=13 note=53 velocity=0 time=0.013888854166666666
EXTRACT: note_on channel=1 note=39 velocity=111 time=0.011111083333333332
EXTRACT: note_on channel=8 note=61 velocity=69 time=0
EXTRACT: note_on channel=9 note=49 velocity=76 time=0
EXTRACT: note_on channel=9 note=35 velocity=117 time=0
EXTRACT: note_on channel=11 note=51 velocity=67 time=0
EXTRACT: note_on channel=15 note=39 velocity=39 time=0
EXTRACT: note_on channel=1 note=37 velocity=0 time=0.002777770833333333
EXTRACT: note_on channel=2 note=39 velocity=58 time=0.0013888854166666665
EXTRACT: control_change channel=2 control=64 value=100 time=0.016666624999999997
EXTRACT: note_on channel=13 note=51 velocity=24 time=0.002777770833333333
EXTRACT: note_on channel=13 note=54 velocity=28 time=0
EXTRACT: note_on channel=13 note=58 velocity=31 time=0.002777770833333333
EXTRACT: note_on channel=9 note=49 velocity=0 time=0.004166656249999999
EXTRACT: note_on channel=9 note=35 velocity=0 time=0
EXTRACT: note_on channel=2 note=39 velocity=0 time=0.12499968749999998
EXTRACT: note_on channel=3 note=61 velocity=0 time=0.13888854166666664
EXTRACT: note_on channel=15 note=39 velocity=0 time=0.030555479166666663
EXTRACT: note_on channel=3 note=61 velocity=111 time=0
EXTRACT: note_on channel=9 note=42 velocity=64 time=0
EXTRACT: note_on channel=11 note=61 velocity=63 time=0
EXTRACT: note_on channel=15 note=54 velocity=29 time=0
EXTRACT: note_on channel=8 note=66 velocity=75 time=0.004166656249999999
EXTRACT: note_on channel=2 note=54 velocity=32 time=0.002777770833333333
EXTRACT: note_on channel=2 note=54 velocity=0 time=0.013888854166666666
EXTRACT: note_on channel=9 note=42 velocity=0 time=0.009722197916666666
EXTRACT: note_on channel=8 note=61 velocity=0 time=0.21944389583333332
EXTRACT: note_on channel=15 note=54 velocity=0 time=0.07083315624999999
EXTRACT: note_on channel=11 note=51 velocity=0 time=0.0013888854166666665
EXTRACT: note_on channel=9 note=85 velocity=49 time=0
EXTRACT: note_on channel=8 note=61 velocity=71 time=0.006944427083333333
EXTRACT: note_on channel=9 note=42 velocity=100 time=0.004166656249999999
EXTRACT: note_on channel=9 note=28 velocity=65 time=0
EXTRACT: note_on channel=11 note=54 velocity=73 time=0
EXTRACT: note_on channel=15 note=58 velocity=40 time=0
EXTRACT: note_on channel=15 note=61 velocity=55 time=0
EXTRACT: note_on channel=9 note=39 velocity=103 time=0.002777770833333333
EXTRACT: note_on channel=2 note=58 velocity=59 time=0.004166656249999999
EXTRACT: note_on channel=1 note=39 velocity=0 time=0.002777770833333333
EXTRACT: note_on channel=9 note=85 velocity=0 time=0.011111083333333332
EXTRACT: note_on channel=2 note=61 velocity=72 time=0.005555541666666666
EXTRACT: note_on channel=9 note=42 velocity=0 time=0.004166656249999999
EXTRACT: note_on channel=9 note=28 velocity=0 time=0
EXTRACT: note_on channel=9 note=85 velocity=107 time=0
EXTRACT: note_on channel=9 note=39 velocity=0 time=0.004166656249999999
EXTRACT: note_on channel=2 note=61 velocity=0 time=0.006944427083333333
EXTRACT: note_on channel=2 note=58 velocity=0 time=0.009722197916666666
EXTRACT: note_on channel=9 note=85 velocity=0 time=0.011111083333333332
EXTRACT: control_change channel=15 control=11 value=127 time=0.10416640625
EXTRACT: note_on channel=11 note=61 velocity=0 time=0.009722197916666666
EXTRACT: control_change channel=15 control=11 value=122 time=0.03194436458333333
EXTRACT: control_change channel=15 control=11 value=118 time=0.0416665625
EXTRACT: control_change channel=15 control=11 value=115 time=0.0416665625
EXTRACT: note_on channel=8 note=61 velocity=0 time=0.033333249999999995
EXTRACT: note_on channel=8 note=59 velocity=71 time=0.004166656249999999
EXTRACT: note_on channel=9 note=42 velocity=52 time=0.004166656249999999
EXTRACT: note_on channel=11 note=61 velocity=53 time=0
EXTRACT: control_change channel=15 control=11 value=111 time=0
EXTRACT: note_on channel=9 note=42 velocity=0 time=0.030555479166666663
EXTRACT: control_change channel=15 control=11 value=106 time=0.011111083333333332
EXTRACT: control_change channel=15 control=11 value=102 time=0.0416665625
EXTRACT: control_change channel=15 control=11 value=99 time=0.0416665625
EXTRACT: note_on channel=15 note=61 velocity=0 time=0.004166656249999999
EXTRACT: note_on channel=8 note=66 velocity=0 time=0.02361105208333333
EXTRACT: control_change channel=15 control=11 value=94 time=0.013888854166666666
EXTRACT: control_change channel=15 control=11 value=90 time=0.048610989583333326
EXTRACT: note_on channel=3 note=61 velocity=0 time=0.013888854166666666
EXTRACT: note_on channel=15 note=58 velocity=0 time=0.002777770833333333
EXTRACT: note_on channel=11 note=54 velocity=0 time=0.05416653125
EXTRACT: note_on channel=13 note=58 velocity=0 time=0.008333312499999999
EXTRACT: control_change channel=2 control=64 value=0 time=0.018055510416666663
EXTRACT: note_on channel=11 note=61 velocity=0 time=0.009722197916666666
EXTRACT: note_on channel=8 note=66 velocity=69 time=0.006944427083333333
EXTRACT: note_on channel=1 note=35 velocity=111 time=0.004166656249999999
EXTRACT: note_on channel=9 note=42 velocity=99 time=0
EXTRACT: note_on channel=9 note=35 velocity=115 time=0
EXTRACT: note_on channel=11 note=59 velocity=73 time=0
EXTRACT: note_on channel=15 note=47 velocity=36 time=0
EXTRACT: control_change channel=15 control=11 value=127 time=0
EXTRACT: note_on channel=13 note=59 velocity=30 time=0.002777770833333333
EXTRACT: note_on channel=2 note=47 velocity=60 time=0.0013888854166666665
EXTRACT: control_change channel=2 control=64 value=100 time=0.005555541666666666
EXTRACT: note_on channel=9 note=42 velocity=0 time=0.02083328125
EXTRACT: note_on channel=9 note=35 velocity=0 time=0
EXTRACT: note_on channel=2 note=47 velocity=0 time=0.1569440520833333
EXTRACT: note_on channel=8 note=59 velocity=0 time=0.07222204166666665
EXTRACT: note_on channel=11 note=59 velocity=0 time=0.05138876041666666
EXTRACT: note_on channel=15 note=47 velocity=0 time=0.013888854166666666
EXTRACT: note_on channel=8 note=59 velocity=63 time=0.002777770833333333
EXTRACT: note_on channel=11 note=61 velocity=72 time=0.004166656249999999
EXTRACT: note_on channel=9 note=42 velocity=51 time=0.0013888854166666665
EXTRACT: note_on channel=15 note=51 velocity=29 time=0
EXTRACT: note_on channel=2 note=51 velocity=33 time=0.006944427083333333
EXTRACT: note_on channel=9 note=42 velocity=0 time=0.02361105208333333
EXTRACT: note_on channel=2 note=51 velocity=0 time=0.02083328125
EXTRACT: control_change channel=3 control=11 value=101 time=0.05972207291666666
EXTRACT: note_on channel=8 note=66 velocity=0 time=0.14861073958333332
EXTRACT: note_on channel=15 note=51 velocity=0 time=0.05138876041666666
EXTRACT: note_on channel=9 note=85 velocity=53 time=0.011111083333333332
EXTRACT: note_on channel=8 note=66 velocity=71 time=0.006944427083333333
EXTRACT: note_on channel=2 note=54 velocity=63 time=0.0013888854166666665
EXTRACT: note_on channel=1 note=35 velocity=0 time=0.002777770833333333
EXTRACT: note_on channel=11 note=61 velocity=0 time=0
EXTRACT: note_on channel=9 note=42 velocity=99 time=0
EXTRACT: note_on channel=9 note=28 velocity=67 time=0
EXTRACT: note_on channel=11 note=59 velocity=75 time=0
EXTRACT: note_on channel=15 note=54 velocity=40 time=0
EXTRACT: note_on channel=15 note=59 velocity=55 time=0
EXTRACT: note_on channel=9 note=39 velocity=105 time=0.002777770833333333
EXTRACT: note_on channel=2 note=59 velocity=72 time=0.002777770833333333
EXTRACT: note_on channel=9 note=85 velocity=0 time=0.015277739583333332
EXTRACT: note_on channel=2 note=59 velocity=0 time=0
EXTRACT: note_on channel=2 note=54 velocity=0 time=0.009722197916666666
EXTRACT: note_on channel=9 note=42 velocity=0 time=0
EXTRACT: note_on channel=9 note=28 velocity=0 time=0
EXTRACT: note_on channel=9 note=85 velocity=111 time=0
EXTRACT: note_on channel=9 note=39 velocity=0 time=0.004166656249999999
EXTRACT: note_on channel=9 note=85 velocity=0 time=0.02777770833333333
EXTRACT: control_change channel=15 control=11 value=127 time=0.07638869791666666
EXTRACT: control_change channel=15 control=11 value=122 time=0.0416665625
EXTRACT: control_change channel=15 control=11 value=119 time=0.0416665625
EXTRACT: note_on channel=8 note=59 velocity=0 time=0.006944427083333333
EXTRACT: control_change channel=15 control=11 value=115 time=0.03472213541666666
EXTRACT: control_change channel=15 control=11 value=110 time=0.0416665625
EXTRACT: note_on channel=8 note=59 velocity=71 time=0.02361105208333333
EXTRACT: note_on channel=9 note=42 velocity=59 time=0.004166656249999999
EXTRACT: note_on channel=9 note=35 velocity=105 time=0
EXTRACT: note_on channel=11 note=54 velocity=48 time=0.005555541666666666
EXTRACT: control_change channel=15 control=11 value=107 time=0.008333312499999999
EXTRACT: note_on channel=9 note=42 velocity=0 time=0.016666624999999997
EXTRACT: note_on channel=9 note=35 velocity=0 time=0
EXTRACT: control_change channel=15 control=11 value=103 time=0.024999937499999996
EXTRACT: control_change channel=15 control=11 value=99 time=0.0416665625
EXTRACT: control_change channel=15 control=11 value=95 time=0.0416665625
EXTRACT: note_on channel=15 note=59 velocity=0 time=0.0013888854166666665
EXTRACT: control_change channel=15 control=11 value=91 time=0.04722210416666666
EXTRACT: note_on channel=15 note=54 velocity=0 time=0.07222204166666665
EXTRACT: note_on channel=13 note=54 velocity=0 time=0.024999937499999996
EXTRACT: note_on channel=11 note=59 velocity=0 time=0.015277739583333332
EXTRACT: control_change channel=15 control=11 value=127 time=0.005555541666666666
EXTRACT: control_change channel=2 control=64 value=0 time=0.006944427083333333
EXTRACT: note_on channel=8 note=59 velocity=0 time=0
EXTRACT: note_on channel=11 note=54 velocity=0 time=0.005555541666666666
EXTRACT: note_on channel=13 note=51 velocity=0 time=0.004166656249999999
EXTRACT: note_on channel=13 note=54 velocity=25 time=0.006944427083333333
EXTRACT: note_on channel=1 note=42 velocity=119 time=0.004166656249999999
EXTRACT: note_on channel=8 note=61 velocity=69 time=0
EXTRACT: note_on channel=9 note=42 velocity=101 time=0
EXTRACT: note_on channel=9 note=35 velocity=119 time=0
EXTRACT: note_on channel=15 note=42 velocity=42 time=0
EXTRACT: note_on channel=8 note=66 velocity=0 time=0
EXTRACT: note_on channel=13 note=59 velocity=0 time=0.002777770833333333
EXTRACT: note_on channel=2 note=42 velocity=52 time=0.0013888854166666665
EXTRACT: note_on channel=11 note=54 velocity=66 time=0.0013888854166666665
EXTRACT: note_on channel=13 note=58 velocity=30 time=0.006944427083333333
EXTRACT: note_on channel=13 note=49 velocity=21 time=0.011111083333333332
EXTRACT: note_on channel=9 note=42 velocity=0 time=0.006944427083333333
EXTRACT: note_on channel=9 note=35 velocity=0 time=0
EXTRACT: control_change channel=2 control=64 value=100 time=0
EXTRACT: note_on channel=2 note=42 velocity=0 time=0.12499968749999998
EXTRACT: note_on channel=15 note=42 velocity=0 time=0.1583329375
EXTRACT: note_on channel=8 note=66 velocity=75 time=0.015277739583333332
EXTRACT: note_on channel=2 note=49 velocity=39 time=0.0013888854166666665
EXTRACT: note_on channel=9 note=42 velocity=57 time=0.002777770833333333
EXTRACT: note_on channel=15 note=49 velocity=29 time=0
EXTRACT: note_on channel=11 note=58 velocity=75 time=0.006944427083333333
EXTRACT: note_on channel=2 note=49 velocity=0 time=0.002777770833333333
EXTRACT: note_on channel=9 note=42 velocity=0 time=0.02083328125
EXTRACT: note_on channel=8 note=61 velocity=0 time=0.12083303124999999
EXTRACT: note_on channel=11 note=54 velocity=0 time=0.14027742708333332
EXTRACT: note_on channel=9 note=85 velocity=53 time=0.030555479166666663
EXTRACT: note_on channel=8 note=61 velocity=71 time=0.006944427083333333
EXTRACT: note_on channel=9 note=42 velocity=103 time=0.004166656249999999
EXTRACT: note_on channel=9 note=28 velocity=67 time=0
EXTRACT: note_on channel=15 note=54 velocity=41 time=0
EXTRACT: note_on channel=15 note=58 velocity=57 time=0
EXTRACT: note_on channel=11 note=54 velocity=68 time=0.0013888854166666665
EXTRACT: note_on channel=9 note=39 velocity=105 time=0.0013888854166666665
EXTRACT: note_on channel=15 note=49 velocity=0 time=0.002777770833333333
EXTRACT: note_on channel=2 note=58 velocity=72 time=0.009722197916666666
EXTRACT: note_on channel=2 note=54 velocity=58 time=0.002777770833333333
EXTRACT: note_on channel=9 note=85 velocity=0 time=0.002777770833333333
EXTRACT: note_on channel=9 note=42 velocity=0 time=0.009722197916666666
EXTRACT: note_on channel=9 note=28 velocity=0 time=0
EXTRACT: note_on channel=9 note=85 velocity=111 time=0
EXTRACT: note_on channel=9 note=39 velocity=0 time=0.004166656249999999
EXTRACT: note_on channel=1 note=42 velocity=0 time=0.016666624999999997
EXTRACT: note_on channel=2 note=54 velocity=0 time=0
EXTRACT: note_on channel=9 note=85 velocity=0 time=0.011111083333333332
EXTRACT: note_on channel=2 note=58 velocity=0 time=0.02083328125
EXTRACT: control_change channel=15 control=11 value=127 time=0.06249984374999999
EXTRACT: control_change channel=15 control=11 value=123 time=0.0416665625
EXTRACT: control_change channel=15 control=11 value=119 time=0.0416665625
EXTRACT: note_on channel=8 note=66 velocity=0 time=0.005555541666666666
EXTRACT: control_change channel=15 control=11 value=115 time=0.03611102083333333
EXTRACT: note_on channel=11 note=54 velocity=0 time=0.02361105208333333
EXTRACT: note_on channel=11 note=58 velocity=0 time=0.006944427083333333
EXTRACT: control_change channel=15 control=11 value=111 time=0.011111083333333332
EXTRACT: note_on channel=1 note=37 velocity=111 time=0.02083328125
EXTRACT: note_on channel=8 note=65 velocity=71 time=0
EXTRACT: note_on channel=9 note=42 velocity=61 time=0
EXTRACT: note_on channel=9 note=35 velocity=107 time=0
EXTRACT: note_on channel=11 note=61 velocity=69 time=0.0013888854166666665
EXTRACT: note_on channel=3 note=61 velocity=110 time=0
EXTRACT: control_change channel=15 control=11 value=107 time=0.008333312499999999
EXTRACT: note_on channel=9 note=42 velocity=0 time=0.009722197916666666
EXTRACT: note_on channel=9 note=35 velocity=0 time=0
EXTRACT: control_change channel=15 control=11 value=103 time=0.03194436458333333
EXTRACT: control_change channel=15 control=11 value=99 time=0.0416665625
EXTRACT: control_change channel=15 control=11 value=95 time=0.0416665625
EXTRACT: note_on channel=3 note=61 velocity=0 time=0.02777770833333333
EXTRACT: control_change channel=15 control=11 value=91 time=0.02083328125
EXTRACT: note_on channel=15 note=58 velocity=0 time=0.029166593749999997
EXTRACT: note_on channel=15 note=54 velocity=0 time=0.038888791666666665
EXTRACT: control_change channel=2 control=64 value=0 time=0.038888791666666665
EXTRACT: note_on channel=13 note=54 velocity=0 time=0.006944427083333333
EXTRACT: control_change channel=15 control=11 value=127 time=0.004166656249999999
EXTRACT: note_on channel=13 note=58 velocity=0 time=0.009722197916666666
EXTRACT: note_on channel=11 note=49 velocity=68 time=0.004166656249999999
EXTRACT: note_on channel=9 note=42 velocity=103 time=0.006944427083333333
EXTRACT: note_on channel=15 note=41 velocity=42 time=0
EXTRACT: note_on channel=2 note=41 velocity=53 time=0.004166656249999999
EXTRACT: note_on channel=13 note=53 velocity=26 time=0.008333312499999999
EXTRACT: note_on channel=3 note=63 velocity=111 time=0
EXTRACT: control_change channel=2 control=64 value=100 time=0.0013888854166666665
EXTRACT: note_on channel=13 note=56 velocity=30 time=0.005555541666666666
EXTRACT: note_on channel=9 note=42 velocity=0 time=0.004166656249999999
EXTRACT: note_on channel=2 note=41 velocity=0 time=0.1569440520833333
EXTRACT: note_on channel=8 note=61 velocity=0 time=0.05138876041666666
EXTRACT: note_on channel=3 note=63 velocity=0 time=0.05277764583333333
EXTRACT: note_on channel=15 note=41 velocity=0 time=0.033333249999999995
EXTRACT: note_on channel=8 note=61 velocity=70 time=0.008333312499999999
EXTRACT: note_on channel=9 note=42 velocity=61 time=0
EXTRACT: note_on channel=15 note=49 velocity=29 time=0
EXTRACT: note_on channel=3 note=61 velocity=110 time=0
EXTRACT: note_on channel=2 note=49 velocity=39 time=0.0013888854166666665
EXTRACT: note_on channel=9 note=42 velocity=0 time=0.02361105208333333
EXTRACT: note_on channel=2 note=49 velocity=0 time=0.02083328125
EXTRACT: note_on channel=8 note=65 velocity=0 time=0.10416640625
EXTRACT: note_on channel=11 note=61 velocity=0 time=0.08055535416666666
EXTRACT: note_on channel=3 note=61 velocity=0 time=0.02083328125
EXTRACT: note_on channel=11 note=49 velocity=0 time=0.04999987499999999
EXTRACT: note_on channel=9 note=85 velocity=48 time=0.015277739583333332
EXTRACT: note_on channel=15 note=49 velocity=0 time=0.006944427083333333
EXTRACT: note_on channel=9 note=42 velocity=102 time=0.004166656249999999
EXTRACT: note_on channel=9 note=28 velocity=65 time=0
EXTRACT: note_on channel=15 note=53 velocity=35 time=0
EXTRACT: note_on channel=15 note=56 velocity=51 time=0
EXTRACT: note_on channel=3 note=58 velocity=111 time=0
EXTRACT: note_on channel=9 note=39 velocity=102 time=0.0013888854166666665
EXTRACT: note_on channel=11 note=56 velocity=79 time=0
EXTRACT: note_on channel=1 note=37 velocity=0 time=0.006944427083333333
EXTRACT: note_on channel=8 note=65 velocity=89 time=0.0013888854166666665
EXTRACT: note_on channel=2 note=56 velocity=72 time=0.004166656249999999
EXTRACT: note_on channel=2 note=53 velocity=53 time=0.002777770833333333
EXTRACT: note_on channel=9 note=85 velocity=0 time=0.002777770833333333
EXTRACT: note_on channel=9 note=42 velocity=0 time=0.009722197916666666
EXTRACT: note_on channel=9 note=28 velocity=0 time=0
EXTRACT: note_on channel=9 note=85 velocity=107 time=0
EXTRACT: note_on channel=9 note=39 velocity=0 time=0.004166656249999999
EXTRACT: note_on channel=2 note=56 velocity=0 time=0.006944427083333333
EXTRACT: note_on channel=9 note=85 velocity=0 time=0.02083328125
EXTRACT: control_change channel=15 control=11 value=127 time=0.05555541666666666
EXTRACT: note_on channel=8 note=65 velocity=0 time=0.02777770833333333
EXTRACT: note_on channel=3 note=58 velocity=0 time=0.0013888854166666665
EXTRACT: control_change channel=15 control=11 value=123 time=0.012499968749999998
EXTRACT: note_on channel=8 note=66 velocity=66 time=0.005555541666666666
EXTRACT: control_change channel=15 control=11 value=119 time=0.03611102083333333
EXTRACT: note_on channel=8 note=61 velocity=0 time=0.03749990625
EXTRACT: control_change channel=15 control=11 value=115 time=0.004166656249999999
EXTRACT: control_change channel=15 control=11 value=111 time=0.0416665625
EXTRACT: control_change channel=15 control=11 value=106 time=0.0416665625
EXTRACT: note_on channel=3 note=58 velocity=110 time=0
EXTRACT: note_on channel=1 note=37 velocity=117 time=0.0013888854166666665
EXTRACT: note_on channel=9 note=46 velocity=82 time=0
EXTRACT: note_on channel=9 note=35 velocity=89 time=0
EXTRACT: note_on channel=2 note=49 velocity=35 time=0.004166656249999999
EXTRACT: note_on channel=8 note=61 velocity=86 time=0.002777770833333333
EXTRACT: note_on channel=15 note=37 velocity=38 time=0.012499968749999998
EXTRACT: note_on channel=9 note=46 velocity=0 time=0.011111083333333332
EXTRACT: note_on channel=9 note=35 velocity=0 time=0
EXTRACT: control_change channel=15 control=11 value=103 time=0.004166656249999999
EXTRACT: note_on channel=2 note=49 velocity=0 time=0.016666624999999997
EXTRACT: control_change channel=7 control=64 value=100 time=0.011111083333333332
EXTRACT: note_on channel=15 note=56 velocity=0 time=0.009722197916666666
EXTRACT: control_change channel=15 control=11 value=98 time=0.004166656249999999
EXTRACT: control_change channel=15 control=11 value=94 time=0.0416665625
EXTRACT: control_change channel=15 control=11 value=91 time=0.048610989583333326
EXTRACT: note_on channel=7 note=92 velocity=46 time=0.0013888854166666665
EXTRACT: note_on channel=7 note=92 velocity=0 time=0.0013888854166666665
EXTRACT: note_on channel=15 note=53 velocity=0 time=0.07222204166666665
EXTRACT: note_on channel=7 note=90 velocity=45 time=0.011111083333333332
EXTRACT: note_on channel=7 note=90 velocity=0 time=0.006944427083333333
EXTRACT: note_on channel=15 note=37 velocity=0 time=0.02083328125
EXTRACT: control_change channel=2 control=64 value=0 time=0
EXTRACT: note_on channel=11 note=56 velocity=0 time=0.011111083333333332
EXTRACT: note_on channel=13 note=49 velocity=0 time=0.002777770833333333
EXTRACT: note_on channel=8 note=66 velocity=0 time=0.012499968749999998
EXTRACT: note_on channel=13 note=53 velocity=0 time=0.015277739583333332
EXTRACT: control_change channel=15 control=11 value=126 time=0.004166656249999999
EXTRACT: note_on channel=1 note=39 velocity=111 time=0.006944427083333333
EXTRACT: note_on channel=8 note=58 velocity=51 time=0
EXTRACT: note_on channel=9 note=42 velocity=101 time=0
EXTRACT: note_on channel=9 note=35 velocity=116 time=0
EXTRACT: note_on channel=11 note=51 velocity=66 time=0
EXTRACT: note_on channel=15 note=39 velocity=39 time=0
EXTRACT: note_on channel=13 note=56 velocity=0 time=0.002777770833333333
EXTRACT: note_on channel=1 note=37 velocity=0 time=0
EXTRACT: note_on channel=7 note=85 velocity=40 time=0
EXTRACT: note_on channel=2 note=39 velocity=50 time=0.0013888854166666665
EXTRACT: note_on channel=13 note=58 velocity=31 time=0.008333312499999999
EXTRACT: control_change channel=2 control=64 value=100 time=0.008333312499999999
EXTRACT: note_on channel=13 note=51 velocity=24 time=0.002777770833333333
EXTRACT: note_on channel=13 note=54 velocity=28 time=0
EXTRACT: note_on channel=9 note=42 velocity=0 time=0.006944427083333333
EXTRACT: note_on channel=9 note=35 velocity=0 time=0
EXTRACT: note_on channel=2 note=39 velocity=0 time=0.12499968749999998
EXTRACT: note_on channel=8 note=61 velocity=0 time=0.1569440520833333
EXTRACT: note_on channel=15 note=39 velocity=0 time=0.012499968749999998
EXTRACT: note_on channel=9 note=42 velocity=64 time=0.008333312499999999
EXTRACT: note_on channel=11 note=61 velocity=62 time=0
EXTRACT: note_on channel=15 note=54 velocity=29 time=0
EXTRACT: note_on channel=8 note=66 velocity=74 time=0.004166656249999999
EXTRACT: note_on channel=2 note=54 velocity=41 time=0.002777770833333333
EXTRACT: note_on channel=2 note=54 velocity=0 time=0.013888854166666666
EXTRACT: note_on channel=9 note=42 velocity=0 time=0.009722197916666666
EXTRACT: note_on channel=8 note=58 velocity=0 time=0.21944389583333332
EXTRACT: note_on channel=3 note=58 velocity=0 time=0.013888854166666666
EXTRACT: note_on channel=15 note=54 velocity=0 time=0.05694430208333333
EXTRACT: note_on channel=11 note=51 velocity=0 time=0.0013888854166666665
EXTRACT: note_on channel=9 note=85 velocity=54 time=0
EXTRACT: note_on channel=8 note=61 velocity=71 time=0.006944427083333333
EXTRACT: note_on channel=9 note=42 velocity=101 time=0.004166656249999999
EXTRACT: note_on channel=9 note=28 velocity=69 time=0
EXTRACT: note_on channel=11 note=54 velocity=73 time=0
EXTRACT: note_on channel=15 note=58 velocity=41 time=0
EXTRACT: note_on channel=15 note=61 velocity=51 time=0
EXTRACT: note_on channel=9 note=39 velocity=107 time=0.002777770833333333
EXTRACT: note_on channel=2 note=58 velocity=59 time=0.004166656249999999
EXTRACT: note_on channel=9 note=85 velocity=0 time=0.013888854166666666
EXTRACT: note_on channel=2 note=61 velocity=73 time=0.005555541666666666
EXTRACT: note_on channel=9 note=42 velocity=0 time=0.004166656249999999
EXTRACT: note_on channel=9 note=28 velocity=0 time=0
EXTRACT: note_on channel=9 note=85 velocity=112 time=0
EXTRACT: note_on channel=9 note=39 velocity=0 time=0.004166656249999999
EXTRACT: note_on channel=2 note=61 velocity=0 time=0.006944427083333333
EXTRACT: note_on channel=2 note=58 velocity=0 time=0.009722197916666666
EXTRACT: note_on channel=9 note=85 velocity=0 time=0.011111083333333332
EXTRACT: note_on channel=1 note=39 velocity=0 time=0
EXTRACT: control_change channel=15 control=11 value=127 time=0.10416640625
EXTRACT: note_on channel=11 note=61 velocity=0 time=0.009722197916666666
EXTRACT: control_change channel=15 control=11 value=122 time=0.03194436458333333
EXTRACT: control_change channel=15 control=11 value=119 time=0.0416665625
EXTRACT: control_change channel=15 control=11 value=114 time=0.0416665625
EXTRACT: note_on channel=8 note=61 velocity=0 time=0.033333249999999995
EXTRACT: note_on channel=8 note=59 velocity=70 time=0.004166656249999999
EXTRACT: note_on channel=9 note=42 velocity=52 time=0.004166656249999999
EXTRACT: note_on channel=11 note=61 velocity=53 time=0
EXTRACT: control_change channel=15 control=11 value=110 time=0
EXTRACT: note_on channel=9 note=42 velocity=0 time=0.030555479166666663
EXTRACT: control_change channel=15 control=11 value=107 time=0.011111083333333332
EXTRACT: control_change channel=15 control=11 value=103 time=0.0416665625
EXTRACT: control_change channel=15 control=11 value=99 time=0.0416665625
EXTRACT: note_on channel=8 note=66 velocity=0 time=0.02777770833333333
EXTRACT: control_change channel=15 control=11 value=94 time=0.013888854166666666
EXTRACT: control_change channel=15 control=11 value=90 time=0.048610989583333326
EXTRACT: note_on channel=15 note=61 velocity=0 time=0.018055510416666663
EXTRACT: note_on channel=13 note=58 velocity=0 time=0.04722210416666666
EXTRACT: note_on channel=11 note=54 velocity=0 time=0.005555541666666666
EXTRACT: note_on channel=15 note=58 velocity=0 time=0.008333312499999999
EXTRACT: control_change channel=2 control=64 value=0 time=0.018055510416666663
EXTRACT: note_on channel=11 note=61 velocity=0 time=0.009722197916666666
EXTRACT: note_on channel=8 note=66 velocity=69 time=0.006944427083333333
EXTRACT: note_on channel=1 note=35 velocity=111 time=0.004166656249999999
EXTRACT: note_on channel=9 note=42 velocity=98 time=0
EXTRACT: note_on channel=9 note=35 velocity=114 time=0
EXTRACT: note_on channel=11 note=59 velocity=73 time=0
EXTRACT: note_on channel=15 note=47 velocity=37 time=0
EXTRACT: control_change channel=15 control=11 value=126 time=0
EXTRACT: note_on channel=13 note=59 velocity=30 time=0.002777770833333333
EXTRACT: note_on channel=2 note=47 velocity=61 time=0.0013888854166666665
EXTRACT: control_change channel=2 control=64 value=100 time=0.005555541666666666
EXTRACT: note_on channel=9 note=42 velocity=0 time=0.02083328125
EXTRACT: note_on channel=9 note=35 velocity=0 time=0
EXTRACT: note_on channel=2 note=47 velocity=0 time=0.1569440520833333
EXTRACT: note_on channel=8 note=59 velocity=0 time=0.07222204166666665
EXTRACT: note_on channel=11 note=59 velocity=0 time=0.05138876041666666
EXTRACT: note_on channel=15 note=47 velocity=0 time=0.013888854166666666
EXTRACT: note_on channel=8 note=59 velocity=62 time=0.002777770833333333
EXTRACT: note_on channel=11 note=61 velocity=72 time=0.004166656249999999
EXTRACT: note_on channel=9 note=42 velocity=51 time=0.0013888854166666665
EXTRACT: note_on channel=15 note=51 velocity=29 time=0
EXTRACT: note_on channel=2 note=51 velocity=47 time=0.006944427083333333
EXTRACT: note_on channel=9 note=42 velocity=0 time=0.02361105208333333
EXTRACT: note_on channel=2 note=51 velocity=0 time=0.02083328125
EXTRACT: note_on channel=8 note=66 velocity=0 time=0.2083328125
EXTRACT: note_on channel=15 note=51 velocity=0 time=0.05138876041666666
EXTRACT: note_on channel=9 note=85 velocity=54 time=0.011111083333333332
EXTRACT: note_on channel=8 note=66 velocity=70 time=0.006944427083333333
EXTRACT: note_on channel=2 note=54 velocity=59 time=0.0013888854166666665
EXTRACT: note_on channel=11 note=61 velocity=0 time=0.002777770833333333
EXTRACT: note_on channel=9 note=42 velocity=99 time=0
EXTRACT: note_on channel=9 note=28 velocity=68 time=0
EXTRACT: note_on channel=11 note=59 velocity=74 time=0
EXTRACT: note_on channel=15 note=54 velocity=41 time=0
EXTRACT: note_on channel=15 note=59 velocity=51 time=0
EXTRACT: note_on channel=9 note=39 velocity=107 time=0.002777770833333333
EXTRACT: note_on channel=2 note=59 velocity=73 time=0.002777770833333333
EXTRACT: note_on channel=9 note=85 velocity=0 time=0.015277739583333332
EXTRACT: note_on channel=2 note=59 velocity=0 time=0
EXTRACT: note_on channel=2 note=54 velocity=0 time=0.009722197916666666
EXTRACT: note_on channel=9 note=42 velocity=0 time=0
EXTRACT: note_on channel=9 note=28 velocity=0 time=0
EXTRACT: note_on channel=9 note=85 velocity=112 time=0
EXTRACT: note_on channel=9 note=39 velocity=0 time=0.004166656249999999
EXTRACT: note_on channel=9 note=85 velocity=0 time=0.02777770833333333
EXTRACT: note_on channel=1 note=35 velocity=0 time=0.02083328125
EXTRACT: control_change channel=15 control=11 value=126 time=0.05555541666666666
EXTRACT: control_change channel=15 control=11 value=123 time=0.0416665625
EXTRACT: control_change channel=15 control=11 value=118 time=0.0416665625
EXTRACT: note_on channel=8 note=59 velocity=0 time=0.006944427083333333
EXTRACT: control_change channel=15 control=11 value=114 time=0.03472213541666666
EXTRACT: control_change channel=15 control=11 value=111 time=0.0416665625
EXTRACT: note_on channel=8 note=59 velocity=71 time=0.02361105208333333
EXTRACT: note_on channel=1 note=35 velocity=117 time=0.004166656249999999
EXTRACT: note_on channel=9 note=42 velocity=59 time=0
EXTRACT: note_on channel=9 note=35 velocity=104 time=0
EXTRACT: note_on channel=11 note=54 velocity=48 time=0.005555541666666666
EXTRACT: control_change channel=15 control=11 value=107 time=0.008333312499999999
EXTRACT: note_on channel=9 note=42 velocity=0 time=0.016666624999999997
EXTRACT: note_on channel=9 note=35 velocity=0 time=0
EXTRACT: control_change channel=15 control=11 value=102 time=0.024999937499999996
EXTRACT: control_change channel=15 control=11 value=98 time=0.0416665625
EXTRACT: note_on channel=15 note=54 velocity=0 time=0.016666624999999997
EXTRACT: control_change channel=15 control=11 value=95 time=0.024999937499999996
EXTRACT: note_on channel=15 note=54 velocity=39 time=0.02777770833333333
EXTRACT: note_on channel=2 note=54 velocity=43 time=0.018055510416666663
EXTRACT: note_on channel=15 note=59 velocity=0 time=0.006944427083333333
EXTRACT: note_on channel=2 note=54 velocity=0 time=0.026388822916666665
EXTRACT: note_on channel=13 note=54 velocity=0 time=0.06666649999999999
EXTRACT: control_change channel=7 control=64 value=0 time=0.006944427083333333
EXTRACT: note_on channel=11 note=59 velocity=0 time=0.008333312499999999
EXTRACT: control_change channel=15 control=11 value=126 time=0.005555541666666666
EXTRACT: control_change channel=2 control=64 value=0 time=0.006944427083333333
EXTRACT: note_on channel=8 note=59 velocity=0 time=0
EXTRACT: note_on channel=11 note=54 velocity=0 time=0.005555541666666666
EXTRACT: note_on channel=13 note=51 velocity=0 time=0.004166656249999999
EXTRACT: note_on channel=13 note=54 velocity=25 time=0.006944427083333333
EXTRACT: note_on channel=1 note=42 velocity=119 time=0.004166656249999999
EXTRACT: note_on channel=8 note=61 velocity=69 time=0
EXTRACT: note_on channel=9 note=42 velocity=100 time=0
EXTRACT: note_on channel=9 note=35 velocity=118 time=0
EXTRACT: note_on channel=13 note=61 velocity=30 time=0
EXTRACT: note_on channel=15 note=42 velocity=43 time=0
EXTRACT: note_on channel=8 note=66 velocity=0 time=0
EXTRACT: note_on channel=13 note=59 velocity=0 time=0.002777770833333333
EXTRACT: note_on channel=1 note=35 velocity=0 time=0
EXTRACT: note_on channel=2 note=42 velocity=53 time=0.0013888854166666665
EXTRACT: note_on channel=11 note=54 velocity=66 time=0.0013888854166666665
EXTRACT: note_on channel=13 note=58 velocity=30 time=0.006944427083333333
EXTRACT: note_on channel=9 note=42 velocity=0 time=0.018055510416666663
EXTRACT: note_on channel=9 note=35 velocity=0 time=0
EXTRACT: control_change channel=2 control=64 value=100 time=0
EXTRACT: note_on channel=2 note=42 velocity=0 time=0.12499968749999998
EXTRACT: note_on channel=15 note=54 velocity=0 time=0.10416640625
EXTRACT: note_on channel=1 note=42 velocity=0 time=0.03472213541666666
EXTRACT: note_on channel=15 note=42 velocity=0 time=0.019444395833333333
EXTRACT: note_on channel=8 note=66 velocity=75 time=0.015277739583333332
EXTRACT: note_on channel=2 note=49 velocity=41 time=0.0013888854166666665
EXTRACT: note_on channel=1 note=42 velocity=119 time=0.002777770833333333
EXTRACT: note_on channel=9 note=42 velocity=57 time=0
EXTRACT: note_on channel=15 note=49 velocity=29 time=0
EXTRACT: note_on channel=11 note=58 velocity=75 time=0.006944427083333333
EXTRACT: note_on channel=2 note=49 velocity=0 time=0.002777770833333333
EXTRACT: note_on channel=9 note=42 velocity=0 time=0.02083328125
EXTRACT: note_on channel=8 note=61 velocity=0 time=0.12083303124999999
EXTRACT: note_on channel=15 note=49 velocity=0 time=0.13194411458333333
EXTRACT: note_on channel=11 note=54 velocity=0 time=0.008333312499999999
EXTRACT: note_on channel=9 note=85 velocity=55 time=0.030555479166666663
EXTRACT: note_on channel=8 note=61 velocity=70 time=0.006944427083333333
EXTRACT: note_on channel=9 note=42 velocity=103 time=0.004166656249999999
EXTRACT: note_on channel=9 note=28 velocity=68 time=0
EXTRACT: note_on channel=15 note=54 velocity=51 time=0
EXTRACT: note_on channel=15 note=58 velocity=51 time=0
EXTRACT: note_on channel=11 note=54 velocity=68 time=0.0013888854166666665
EXTRACT: note_on channel=9 note=39 velocity=107 time=0.0013888854166666665
EXTRACT: note_on channel=2 note=58 velocity=43 time=0.012499968749999998
EXTRACT: note_on channel=2 note=54 velocity=77 time=0.002777770833333333
EXTRACT: note_on channel=9 note=85 velocity=0 time=0.002777770833333333
EXTRACT: note_on channel=9 note=42 velocity=0 time=0.009722197916666666
EXTRACT: note_on channel=9 note=28 velocity=0 time=0
EXTRACT: note_on channel=9 note=85 velocity=112 time=0
EXTRACT: note_on channel=9 note=39 velocity=0 time=0.004166656249999999
EXTRACT: note_on channel=2 note=54 velocity=0 time=0.016666624999999997
EXTRACT: note_on channel=9 note=85 velocity=0 time=0.011111083333333332
EXTRACT: note_on channel=2 note=58 velocity=0 time=0.02083328125
EXTRACT: note_on channel=1 note=42 velocity=0 time=0.030555479166666663
EXTRACT: control_change channel=15 control=11 value=126 time=0.03194436458333333
EXTRACT: control_change channel=15 control=11 value=123 time=0.0416665625
EXTRACT: control_change channel=15 control=11 value=119 time=0.0416665625
EXTRACT: note_on channel=8 note=66 velocity=0 time=0.005555541666666666
EXTRACT: control_change channel=15 control=11 value=114 time=0.03611102083333333
EXTRACT: note_on channel=11 note=54 velocity=0 time=0.02361105208333333
EXTRACT: note_on channel=11 note=58 velocity=0 time=0.006944427083333333
EXTRACT: control_change channel=15 control=11 value=111 time=0.011111083333333332
EXTRACT: note_on channel=1 note=41 velocity=111 time=0.02083328125
EXTRACT: note_on channel=8 note=65 velocity=70 time=0
EXTRACT: note_on channel=9 note=42 velocity=61 time=0
EXTRACT: note_on channel=9 note=35 velocity=107 time=0
EXTRACT: control_change channel=3 control=1 value=10 time=0
EXTRACT: note_on channel=11 note=61 velocity=68 time=0.0013888854166666665
EXTRACT: control_change channel=15 control=11 value=107 time=0.019444395833333333
EXTRACT: note_on channel=9 note=42 velocity=0 time=0.009722197916666666
EXTRACT: note_on channel=9 note=35 velocity=0 time=0
EXTRACT: control_change channel=15 control=11 value=102 time=0.03194436458333333
EXTRACT: control_change channel=15 control=11 value=99 time=0.0416665625
EXTRACT: control_change channel=15 control=11 value=95 time=0.0416665625
EXTRACT: note_on channel=15 note=58 velocity=0 time=0.024999937499999996
EXTRACT: control_change channel=15 control=11 value=91 time=0.02361105208333333
EXTRACT: note_on channel=15 note=54 velocity=0 time=0.016666624999999997
EXTRACT: note_on channel=1 note=41 velocity=0 time=0.0416665625
EXTRACT: control_change channel=2 control=64 value=0 time=0.048610989583333326
EXTRACT: note_on channel=13 note=54 velocity=0 time=0.006944427083333333
EXTRACT: control_change channel=15 control=11 value=127 time=0.004166656249999999
EXTRACT: note_on channel=13 note=58 velocity=0 time=0.009722197916666666
EXTRACT: note_on channel=11 note=49 velocity=69 time=0.004166656249999999
EXTRACT: control_change channel=2 control=64 value=100 time=0
EXTRACT: note_on channel=13 note=56 velocity=30 time=0.005555541666666666
EXTRACT: note_on channel=2 note=41 velocity=53 time=0.0013888854166666665
EXTRACT: note_on channel=2 note=49 velocity=41 time=0
EXTRACT: note_on channel=2 note=56 velocity=73 time=0
EXTRACT: note_on channel=9 note=42 velocity=103 time=0
EXTRACT: note_on channel=15 note=41 velocity=47 time=0
EXTRACT: note_on channel=2 note=41 velocity=0 time=0.005555541666666666
EXTRACT: note_on channel=2 note=49 velocity=0 time=0.004166656249999999
EXTRACT: note_on channel=13 note=53 velocity=26 time=0.002777770833333333
EXTRACT: note_on channel=15 note=56 velocity=59 time=0.008333312499999999
EXTRACT: note_on channel=2 note=56 velocity=0 time=0.004166656249999999
EXTRACT: note_on channel=9 note=42 velocity=0 time=0.005555541666666666
EXTRACT: note_on channel=8 note=61 velocity=0 time=0.2083328125
EXTRACT: note_on channel=1 note=41 velocity=111 time=0.09444420833333332
EXTRACT: note_on channel=8 note=61 velocity=70 time=0
EXTRACT: note_on channel=9 note=42 velocity=61 time=0
EXTRACT: control_change channel=15 control=11 value=127 time=0.006944427083333333
EXTRACT: note_on channel=9 note=42 velocity=0 time=0.02361105208333333
EXTRACT: control_change channel=15 control=11 value=123 time=0.018055510416666663
EXTRACT: control_change channel=15 control=11 value=119 time=0.0416665625
EXTRACT: control_change channel=15 control=11 value=115 time=0.0416665625
EXTRACT: note_on channel=8 note=65 velocity=0 time=0.02361105208333333
EXTRACT: control_change channel=15 control=11 value=111 time=0.018055510416666663
EXTRACT: control_change channel=15 control=11 value=107 time=0.0416665625
EXTRACT: note_on channel=11 note=61 velocity=0 time=0.02083328125
EXTRACT: note_on channel=1 note=41 velocity=0 time=0.002777770833333333
EXTRACT: control_change channel=15 control=11 value=103 time=0.018055510416666663
EXTRACT: control_change channel=15 control=11 value=99 time=0.0416665625
EXTRACT: note_on channel=11 note=49 velocity=0 time=0.008333312499999999
EXTRACT: note_on channel=9 note=85 velocity=47 time=0.015277739583333332
EXTRACT: note_on channel=3 note=54 velocity=110 time=0
EXTRACT: note_on channel=9 note=42 velocity=103 time=0.005555541666666666
EXTRACT: note_on channel=9 note=28 velocity=93 time=0
EXTRACT: note_on channel=8 note=65 velocity=86 time=0
EXTRACT: note_on channel=9 note=39 velocity=101 time=0.0013888854166666665
EXTRACT: note_on channel=11 note=56 velocity=79 time=0
EXTRACT: control_change channel=15 control=11 value=95 time=0.004166656249999999
EXTRACT: note_on channel=9 note=85 velocity=0 time=0.013888854166666666
EXTRACT: note_on channel=9 note=42 velocity=0 time=0.009722197916666666
EXTRACT: note_on channel=9 note=28 velocity=0 time=0
EXTRACT: note_on channel=9 note=85 velocity=105 time=0
EXTRACT: note_on channel=9 note=39 velocity=0 time=0.004166656249999999
EXTRACT: control_change channel=15 control=11 value=91 time=0.02083328125
EXTRACT: note_on channel=9 note=85 velocity=0 time=0.006944427083333333
EXTRACT: note_on channel=15 note=41 velocity=0 time=0.05138876041666666
EXTRACT: note_on channel=8 note=65 velocity=0 time=0.03194436458333333
EXTRACT: note_on channel=8 note=66 velocity=73 time=0.008333312499999999
EXTRACT: note_on channel=15 note=56 velocity=0 time=0.04305544791666666
EXTRACT: note_on channel=3 note=54 velocity=0 time=0.018055510416666663
EXTRACT: note_on channel=8 note=61 velocity=0 time=0.02361105208333333
EXTRACT: control_change channel=15 control=11 value=127 time=0.05972207291666666
EXTRACT: note_on channel=3 note=56 velocity=111 time=0
EXTRACT: note_on channel=1 note=37 velocity=111 time=0.004166656249999999
EXTRACT: note_on channel=2 note=49 velocity=26 time=0
EXTRACT: note_on channel=9 note=46 velocity=83 time=0
EXTRACT: note_on channel=9 note=35 velocity=111 time=0
EXTRACT: note_on channel=15 note=56 velocity=51 time=0
EXTRACT: note_on channel=8 note=61 velocity=68 time=0.006944427083333333
EXTRACT: note_on channel=2 note=56 velocity=55 time=0.008333312499999999
EXTRACT: note_on channel=9 note=46 velocity=0 time=0.015277739583333332
EXTRACT: note_on channel=9 note=35 velocity=0 time=0
EXTRACT: note_on channel=2 note=56 velocity=0 time=0.011111083333333332
EXTRACT: note_on channel=15 note=56 velocity=0 time=0.13472188541666666
EXTRACT: note_on channel=3 note=56 velocity=0 time=0.005555541666666666
EXTRACT: note_on channel=13 note=61 velocity=0 time=0.002777770833333333
EXTRACT: control_change channel=2 control=64 value=0 time=0.09583309374999999
EXTRACT: note_on channel=8 note=66 velocity=0 time=0.005555541666666666
EXTRACT: note_on channel=11 note=56 velocity=0 time=0.005555541666666666
EXTRACT: note_on channel=13 note=56 velocity=0 time=0.016666624999999997
EXTRACT: note_on channel=1 note=37 velocity=0 time=0.013888854166666666
EXTRACT: note_on channel=13 note=53 velocity=0 time=0
EXTRACT: note_on channel=8 note=58 velocity=58 time=0.005555541666666666
EXTRACT: note_on channel=3 note=58 velocity=111 time=0
EXTRACT: note_on channel=1 note=39 velocity=111 time=0.0013888854166666665
EXTRACT: note_on channel=9 note=42 velocity=101 time=0
EXTRACT: note_on channel=9 note=35 velocity=117 time=0
EXTRACT: note_on channel=11 note=51 velocity=66 time=0
EXTRACT: note_on channel=15 note=39 velocity=39 time=0
EXTRACT: note_on channel=2 note=39 velocity=51 time=0.004166656249999999
EXTRACT: note_on channel=13 note=51 velocity=21 time=0.008333312499999999
EXTRACT: note_on channel=13 note=58 velocity=31 time=0
EXTRACT: control_change channel=2 control=64 value=100 time=0.008333312499999999
EXTRACT: note_on channel=13 note=54 velocity=28 time=0.002777770833333333
EXTRACT: note_on channel=9 note=42 velocity=0 time=0.006944427083333333
EXTRACT: note_on channel=9 note=35 velocity=0 time=0
EXTRACT: note_on channel=3 note=58 velocity=0 time=0.10416640625
EXTRACT: note_on channel=2 note=39 velocity=0 time=0.02083328125
EXTRACT: note_on channel=3 note=58 velocity=111 time=0
EXTRACT: note_on channel=3 note=58 velocity=0 time=0.10555529166666666
EXTRACT: note_on channel=8 note=61 velocity=0 time=0
EXTRACT: note_on channel=15 note=39 velocity=0 time=0.04444433333333333
EXTRACT: note_on channel=9 note=42 velocity=65 time=0.008333312499999999
EXTRACT: note_on channel=11 note=61 velocity=62 time=0
EXTRACT: note_on channel=15 note=54 velocity=29 time=0
EXTRACT: note_on channel=8 note=66 velocity=75 time=0.004166656249999999
EXTRACT: note_on channel=3 note=58 velocity=110 time=0
EXTRACT: note_on channel=2 note=54 velocity=45 time=0.0013888854166666665
EXTRACT: note_on channel=2 note=54 velocity=0 time=0.013888854166666666
EXTRACT: note_on channel=9 note=42 velocity=0 time=0.009722197916666666
EXTRACT: note_on channel=3 note=58 velocity=0 time=0.16666625
EXTRACT: note_on channel=8 note=58 velocity=0 time=0.04722210416666666
EXTRACT: note_on channel=15 note=54 velocity=0 time=0.07638869791666666
EXTRACT: note_on channel=11 note=51 velocity=0 time=0.0013888854166666665
EXTRACT: note_on channel=9 note=85 velocity=49 time=0
EXTRACT: note_on channel=8 note=61 velocity=71 time=0.006944427083333333
EXTRACT: note_on channel=3 note=58 velocity=110 time=0
EXTRACT: note_on channel=9 note=42 velocity=101 time=0
EXTRACT: note_on channel=9 note=28 velocity=65 time=0
EXTRACT: note_on channel=11 note=54 velocity=73 time=0
EXTRACT: note_on channel=15 note=58 velocity=41 time=0
EXTRACT: note_on channel=15 note=61 velocity=51 time=0
EXTRACT: note_on channel=9 note=39 velocity=103 time=0.002777770833333333
EXTRACT: note_on channel=2 note=58 velocity=59 time=0.004166656249999999
EXTRACT: note_on channel=9 note=85 velocity=0 time=0.013888854166666666
EXTRACT: note_on channel=2 note=61 velocity=71 time=0.005555541666666666
EXTRACT: note_on channel=9 note=42 velocity=0 time=0.004166656249999999
EXTRACT: note_on channel=9 note=28 velocity=0 time=0
EXTRACT: note_on channel=9 note=85 velocity=107 time=0
EXTRACT: note_on channel=9 note=39 velocity=0 time=0.004166656249999999
EXTRACT: note_on channel=2 note=61 velocity=0 time=0.006944427083333333
EXTRACT: note_on channel=1 note=39 velocity=0 time=0
EXTRACT: note_on channel=2 note=58 velocity=0 time=0.009722197916666666
EXTRACT: note_on channel=9 note=85 velocity=0 time=0.011111083333333332
EXTRACT: control_change channel=15 control=11 value=127 time=0.10416640625
EXTRACT: note_on channel=11 note=61 velocity=0 time=0.009722197916666666
EXTRACT: control_change channel=15 control=11 value=123 time=0.03194436458333333
EXTRACT: note_on channel=3 note=58 velocity=0 time=0.019444395833333333
EXTRACT: control_change channel=15 control=11 value=119 time=0.022222166666666664
EXTRACT: control_change channel=15 control=11 value=115 time=0.0416665625
EXTRACT: note_on channel=3 note=59 velocity=110 time=0
EXTRACT: note_on channel=8 note=61 velocity=0 time=0.0013888854166666665
EXTRACT: note_on channel=8 note=59 velocity=70 time=0.004166656249999999
EXTRACT: note_on channel=9 note=42 velocity=53 time=0.004166656249999999
EXTRACT: note_on channel=11 note=61 velocity=64 time=0
EXTRACT: control_change channel=15 control=11 value=111 time=0
EXTRACT: note_on channel=9 note=42 velocity=0 time=0.030555479166666663
EXTRACT: control_change channel=15 control=11 value=107 time=0.011111083333333332
EXTRACT: control_change channel=15 control=11 value=103 time=0.0416665625
EXTRACT: control_change channel=15 control=11 value=98 time=0.0416665625
EXTRACT: note_on channel=8 note=66 velocity=0 time=0.02777770833333333
EXTRACT: control_change channel=15 control=11 value=95 time=0.013888854166666666
EXTRACT: note_on channel=15 note=61 velocity=0 time=0.0416665625
EXTRACT: note_on channel=3 note=59 velocity=0 time=0
EXTRACT: control_change channel=15 control=11 value=90 time=0.006944427083333333
EXTRACT: note_on channel=15 note=58 velocity=0 time=0.06527761458333332
EXTRACT: note_on channel=13 note=58 velocity=0 time=0
EXTRACT: note_on channel=11 note=54 velocity=0 time=0.005555541666666666
EXTRACT: control_change channel=2 control=64 value=0 time=0.026388822916666665
EXTRACT: note_on channel=11 note=61 velocity=0 time=0.009722197916666666
EXTRACT: note_on channel=3 note=58 velocity=110 time=0
EXTRACT: note_on channel=8 note=66 velocity=68 time=0
EXTRACT: note_on channel=1 note=35 velocity=111 time=0.004166656249999999
EXTRACT: note_on channel=9 note=42 velocity=99 time=0
EXTRACT: note_on channel=9 note=35 velocity=115 time=0
EXTRACT: note_on channel=11 note=59 velocity=72 time=0
EXTRACT: note_on channel=15 note=47 velocity=37 time=0
EXTRACT: control_change channel=15 control=11 value=126 time=0
EXTRACT: note_on channel=13 note=59 velocity=30 time=0.002777770833333333
EXTRACT: note_on channel=2 note=47 velocity=61 time=0.0013888854166666665
EXTRACT: control_change channel=2 control=64 value=100 time=0.005555541666666666
EXTRACT: note_on channel=9 note=42 velocity=0 time=0.02083328125
EXTRACT: note_on channel=9 note=35 velocity=0 time=0
EXTRACT: note_on channel=2 note=47 velocity=0 time=0.1569440520833333
EXTRACT: note_on channel=8 note=59 velocity=0 time=0.07222204166666665
EXTRACT: note_on channel=3 note=58 velocity=0 time=0.009722197916666666
EXTRACT: note_on channel=11 note=59 velocity=0 time=0.0416665625
EXTRACT: note_on channel=15 note=47 velocity=0 time=0.013888854166666666
EXTRACT: note_on channel=8 note=59 velocity=63 time=0.002777770833333333
EXTRACT: note_on channel=3 note=56 velocity=111 time=0
EXTRACT: note_on channel=11 note=61 velocity=73 time=0.002777770833333333
EXTRACT: note_on channel=9 note=42 velocity=50 time=0.0013888854166666665
EXTRACT: note_on channel=15 note=51 velocity=29 time=0
EXTRACT: note_on channel=2 note=51 velocity=39 time=0.006944427083333333
EXTRACT: note_on channel=9 note=42 velocity=0 time=0.02361105208333333
EXTRACT: note_on channel=2 note=51 velocity=0 time=0.02083328125
EXTRACT: note_on channel=8 note=66 velocity=0 time=0.2083328125
EXTRACT: note_on channel=15 note=51 velocity=0 time=0.05138876041666666
EXTRACT: note_on channel=9 note=85 velocity=53 time=0.011111083333333332
EXTRACT: note_on channel=8 note=66 velocity=70 time=0.006944427083333333
EXTRACT: note_on channel=2 note=54 velocity=68 time=0.0013888854166666665
EXTRACT: note_on channel=11 note=61 velocity=0 time=0.002777770833333333
EXTRACT: note_on channel=9 note=42 velocity=98 time=0
EXTRACT: note_on channel=9 note=28 velocity=66 time=0
EXTRACT: note_on channel=11 note=59 velocity=75 time=0
EXTRACT: note_on channel=15 note=54 velocity=41 time=0
EXTRACT: note_on channel=15 note=59 velocity=51 time=0
EXTRACT: note_on channel=9 note=39 velocity=105 time=0.002777770833333333
EXTRACT: note_on channel=2 note=59 velocity=71 time=0.002777770833333333
EXTRACT: note_on channel=2 note=59 velocity=0 time=0.015277739583333332
EXTRACT: note_on channel=9 note=85 velocity=0 time=0
EXTRACT: note_on channel=3 note=56 velocity=0 time=0
EXTRACT: note_on channel=1 note=35 velocity=0 time=0.009722197916666666
EXTRACT: note_on channel=2 note=54 velocity=0 time=0
EXTRACT: note_on channel=9 note=42 velocity=0 time=0
EXTRACT: note_on channel=9 note=28 velocity=0 time=0
EXTRACT: note_on channel=9 note=85 velocity=110 time=0
EXTRACT: note_on channel=9 note=39 velocity=0 time=0.004166656249999999
EXTRACT: note_on channel=9 note=85 velocity=0 time=0.02777770833333333
EXTRACT: control_change channel=15 control=11 value=127 time=0.07638869791666666
EXTRACT: control_change channel=15 control=11 value=122 time=0.0416665625
EXTRACT: control_change channel=15 control=11 value=119 time=0.0416665625
EXTRACT: note_on channel=8 note=59 velocity=0 time=0.006944427083333333
EXTRACT: control_change channel=15 control=11 value=114 time=0.03472213541666666
EXTRACT: control_change channel=15 control=11 value=111 time=0.0416665625
EXTRACT: note_on channel=8 note=59 velocity=70 time=0.02361105208333333
EXTRACT: note_on channel=1 note=35 velocity=111 time=0
EXTRACT: note_on channel=3 note=54 velocity=110 time=0
EXTRACT: note_on channel=9 note=42 velocity=58 time=0
EXTRACT: note_on channel=9 note=35 velocity=105 time=0
EXTRACT: note_on channel=11 note=54 velocity=48 time=0.005555541666666666
EXTRACT: note_on channel=2 note=49 velocity=31 time=0.0013888854166666665
EXTRACT: control_change channel=15 control=11 value=106 time=0.006944427083333333
EXTRACT: note_on channel=9 note=42 velocity=0 time=0.016666624999999997
EXTRACT: note_on channel=9 note=35 velocity=0 time=0
EXTRACT: note_on channel=2 note=49 velocity=0 time=0.02083328125
EXTRACT: control_change channel=15 control=11 value=102 time=0.004166656249999999
EXTRACT: control_change channel=15 control=11 value=99 time=0.0416665625
EXTRACT: note_on channel=3 note=54 velocity=0 time=0.029166593749999997
EXTRACT: control_change channel=15 control=11 value=95 time=0.012499968749999998
EXTRACT: note_on channel=3 note=56 velocity=110 time=0
EXTRACT: note_on channel=15 note=59 velocity=0 time=0.0013888854166666665
EXTRACT: control_change channel=15 control=11 value=91 time=0.015277739583333332
EXTRACT: note_on channel=13 note=51 velocity=0 time=0.07916646875
EXTRACT: note_on channel=15 note=54 velocity=0 time=0.004166656249999999
EXTRACT: note_on channel=3 note=56 velocity=0 time=0.009722197916666666
EXTRACT: note_on channel=13 note=54 velocity=0 time=0.004166656249999999
EXTRACT: note_on channel=11 note=59 velocity=0 time=0.015277739583333332
EXTRACT: control_change channel=15 control=11 value=126 time=0.005555541666666666
EXTRACT: control_change channel=2 control=64 value=0 time=0.006944427083333333
EXTRACT: note_on channel=8 note=59 velocity=0 time=0
EXTRACT: note_on channel=11 note=54 velocity=0 time=0.005555541666666666
EXTRACT: note_on channel=1 note=35 velocity=0 time=0.004166656249999999
EXTRACT: note_on channel=13 note=54 velocity=25 time=0.006944427083333333
EXTRACT: note_on channel=1 note=42 velocity=118 time=0.004166656249999999
EXTRACT: note_on channel=8 note=61 velocity=69 time=0
EXTRACT: note_on channel=9 note=42 velocity=101 time=0
EXTRACT: note_on channel=9 note=35 velocity=118 time=0
EXTRACT: note_on channel=15 note=42 velocity=43 time=0
EXTRACT: note_on channel=8 note=66 velocity=0 time=0
EXTRACT: note_on channel=13 note=59 velocity=0 time=0.002777770833333333
EXTRACT: note_on channel=3 note=58 velocity=111 time=0
EXTRACT: note_on channel=2 note=42 velocity=52 time=0.0013888854166666665
EXTRACT: note_on channel=11 note=54 velocity=67 time=0.0013888854166666665
EXTRACT: note_on channel=13 note=58 velocity=30 time=0.006944427083333333
EXTRACT: note_on channel=13 note=49 velocity=19 time=0.013888854166666666
EXTRACT: note_on channel=9 note=42 velocity=0 time=0.004166656249999999
EXTRACT: note_on channel=9 note=35 velocity=0 time=0
EXTRACT: control_change channel=2 control=64 value=100 time=0
EXTRACT: note_on channel=2 note=42 velocity=0 time=0.12499968749999998
EXTRACT: note_on channel=3 note=58 velocity=0 time=0.10972194791666666
EXTRACT: note_on channel=15 note=42 velocity=0 time=0.048610989583333326
EXTRACT: note_on channel=8 note=66 velocity=75 time=0.015277739583333332
EXTRACT: note_on channel=2 note=49 velocity=46 time=0.0013888854166666665
EXTRACT: note_on channel=9 note=42 velocity=56 time=0.002777770833333333
EXTRACT: note_on channel=15 note=49 velocity=29 time=0
EXTRACT: note_on channel=3 note=58 velocity=111 time=0
EXTRACT: note_on channel=11 note=58 velocity=75 time=0.0013888854166666665
EXTRACT: note_on channel=2 note=49 velocity=0 time=0.002777770833333333
EXTRACT: note_on channel=9 note=42 velocity=0 time=0.02083328125
EXTRACT: note_on channel=8 note=61 velocity=0 time=0.12083303124999999
EXTRACT: note_on channel=3 note=58 velocity=0 time=0.019444395833333333
EXTRACT: note_on channel=11 note=54 velocity=0 time=0.12083303124999999
EXTRACT: note_on channel=9 note=85 velocity=53 time=0.030555479166666663
EXTRACT: note_on channel=8 note=61 velocity=70 time=0.006944427083333333
EXTRACT: note_on channel=9 note=42 velocity=103 time=0.004166656249999999
EXTRACT: note_on channel=9 note=28 velocity=67 time=0
EXTRACT: note_on channel=15 note=54 velocity=57 time=0
EXTRACT: note_on channel=15 note=58 velocity=43 time=0
EXTRACT: note_on channel=11 note=54 velocity=68 time=0.0013888854166666665
EXTRACT: note_on channel=9 note=39 velocity=104 time=0.0013888854166666665
EXTRACT: note_on channel=3 note=58 velocity=110 time=0
EXTRACT: note_on channel=15 note=49 velocity=0 time=0.0013888854166666665
EXTRACT: note_on channel=2 note=58 velocity=49 time=0.009722197916666666
EXTRACT: note_on channel=2 note=54 velocity=66 time=0.002777770833333333
EXTRACT: note_on channel=9 note=85 velocity=0 time=0.002777770833333333
EXTRACT: note_on channel=9 note=42 velocity=0 time=0.009722197916666666
EXTRACT: note_on channel=9 note=28 velocity=0 time=0
EXTRACT: note_on channel=9 note=85 velocity=110 time=0
EXTRACT: note_on channel=9 note=39 velocity=0 time=0.004166656249999999
EXTRACT: note_on channel=2 note=54 velocity=0 time=0.016666624999999997
EXTRACT: note_on channel=9 note=85 velocity=0 time=0.011111083333333332
EXTRACT: note_on channel=2 note=58 velocity=0 time=0.02083328125
EXTRACT: note_on channel=1 note=42 velocity=0 time=0.04444433333333333
EXTRACT: control_change channel=15 control=11 value=126 time=0.018055510416666663
EXTRACT: control_change channel=15 control=11 value=122 time=0.0416665625
EXTRACT: note_on channel=3 note=58 velocity=0 time=0.013888854166666666
EXTRACT: control_change channel=15 control=11 value=118 time=0.02777770833333333
EXTRACT: note_on channel=8 note=66 velocity=0 time=0.005555541666666666
EXTRACT: control_change channel=15 control=11 value=115 time=0.03611102083333333
EXTRACT: note_on channel=11 note=54 velocity=0 time=0.02361105208333333
EXTRACT: note_on channel=11 note=58 velocity=0 time=0.006944427083333333
EXTRACT: control_change channel=15 control=11 value=110 time=0.011111083333333332
EXTRACT: note_on channel=3 note=59 velocity=110 time=0
EXTRACT: note_on channel=8 note=65 velocity=71 time=0.0013888854166666665
EXTRACT: note_on channel=9 note=42 velocity=60 time=0
EXTRACT: note_on channel=9 note=35 velocity=106 time=0
EXTRACT: note_on channel=11 note=61 velocity=69 time=0.0013888854166666665
EXTRACT: control_change channel=15 control=11 value=106 time=0.019444395833333333
EXTRACT: note_on channel=9 note=42 velocity=0 time=0.009722197916666666
EXTRACT: note_on channel=9 note=35 velocity=0 time=0
EXTRACT: control_change channel=15 control=11 value=103 time=0.03194436458333333
EXTRACT: control_change channel=15 control=11 value=99 time=0.0416665625
EXTRACT: control_change channel=15 control=11 value=94 time=0.0416665625
EXTRACT: control_change channel=15 control=11 value=90 time=0.048610989583333326
EXTRACT: note_on channel=3 note=59 velocity=0 time=0.016666624999999997
EXTRACT: note_on channel=15 note=58 velocity=0 time=0.006944427083333333
EXTRACT: control_change channel=2 control=64 value=0 time=0.083333125
EXTRACT: note_on channel=15 note=54 velocity=0 time=0.005555541666666666
EXTRACT: note_on channel=13 note=54 velocity=0 time=0.0013888854166666665
EXTRACT: control_change channel=15 control=11 value=127 time=0.004166656249999999
EXTRACT: note_on channel=13 note=58 velocity=0 time=0.009722197916666666
EXTRACT: note_on channel=11 note=49 velocity=69 time=0.004166656249999999
EXTRACT: note_on channel=3 note=58 velocity=111 time=0
EXTRACT: note_on channel=13 note=56 velocity=30 time=0.0013888854166666665
EXTRACT: note_on channel=1 note=37 velocity=111 time=0.0013888854166666665
EXTRACT: note_on channel=2 note=49 velocity=49 time=0
EXTRACT: note_on channel=9 note=42 velocity=103 time=0
EXTRACT: note_on channel=15 note=49 velocity=42 time=0
EXTRACT: note_on channel=13 note=53 velocity=26 time=0.012499968749999998
EXTRACT: note_on channel=15 note=56 velocity=27 time=0.008333312499999999
EXTRACT: control_change channel=2 control=64 value=100 time=0
EXTRACT: note_on channel=9 note=42 velocity=0 time=0.009722197916666666
EXTRACT: note_on channel=2 note=56 velocity=70 time=0.005555541666666666
EXTRACT: note_on channel=2 note=53 velocity=53 time=0.002777770833333333
EXTRACT: note_on channel=2 note=56 velocity=0 time=0.02361105208333333
EXTRACT: note_on channel=2 note=49 velocity=0 time=0.12083303124999999
EXTRACT: note_on channel=8 note=61 velocity=0 time=0.05555541666666666
EXTRACT: note_on channel=3 note=58 velocity=0 time=0.033333249999999995
EXTRACT: note_on channel=8 note=61 velocity=71 time=0.061110958333333326
EXTRACT: note_on channel=9 note=42 velocity=60 time=0
EXTRACT: note_on channel=3 note=56 velocity=110 time=0
EXTRACT: note_on channel=9 note=42 velocity=0 time=0.026388822916666665
EXTRACT: note_on channel=8 note=65 velocity=0 time=0.12499968749999998
EXTRACT: note_on channel=3 note=56 velocity=0 time=0.03194436458333333
EXTRACT: note_on channel=11 note=61 velocity=0 time=0.048610989583333326
EXTRACT: note_on channel=11 note=49 velocity=0 time=0.07083315624999999
EXTRACT: note_on channel=9 note=85 velocity=48 time=0.015277739583333332
EXTRACT: note_on channel=9 note=42 velocity=103 time=0.011111083333333332
EXTRACT: note_on channel=9 note=28 velocity=65 time=0
EXTRACT: note_on channel=9 note=39 velocity=102 time=0.002777770833333333
EXTRACT: note_on channel=11 note=56 velocity=79 time=0
EXTRACT: note_on channel=3 note=54 velocity=110 time=0
EXTRACT: note_on channel=8 note=65 velocity=88 time=0.0013888854166666665
EXTRACT: note_on channel=9 note=85 velocity=0 time=0.009722197916666666
EXTRACT: note_on channel=9 note=42 velocity=0 time=0.009722197916666666
EXTRACT: note_on channel=9 note=28 velocity=0 time=0
EXTRACT: note_on channel=9 note=85 velocity=106 time=0
EXTRACT: note_on channel=9 note=39 velocity=0 time=0.004166656249999999
EXTRACT: note_on channel=9 note=85 velocity=0 time=0.02777770833333333
EXTRACT: control_change channel=15 control=11 value=126 time=0.05555541666666666
EXTRACT: note_on channel=8 note=65 velocity=0 time=0.02777770833333333
EXTRACT: note_on channel=1 note=37 velocity=0 time=0.009722197916666666
EXTRACT: control_change channel=15 control=11 value=122 time=0.004166656249999999
EXTRACT: note_on channel=8 note=66 velocity=67 time=0.005555541666666666
EXTRACT: control_change channel=15 control=11 value=119 time=0.03611102083333333
EXTRACT: note_on channel=8 note=61 velocity=0 time=0.03749990625
EXTRACT: control_change channel=15 control=11 value=115 time=0.004166656249999999
EXTRACT: note_on channel=3 note=54 velocity=0 time=0.012499968749999998
EXTRACT: control_change channel=15 control=11 value=110 time=0.029166593749999997
EXTRACT: control_change channel=15 control=11 value=107 time=0.0416665625
EXTRACT: note_on channel=1 note=37 velocity=116 time=0.006944427083333333
EXTRACT: note_on channel=9 note=42 velocity=60 time=0
EXTRACT: note_on channel=9 note=35 velocity=69 time=0
EXTRACT: note_on channel=2 note=49 velocity=40 time=0.006944427083333333
EXTRACT: note_on channel=8 note=61 velocity=73 time=0
EXTRACT: note_on channel=3 note=54 velocity=111 time=0
EXTRACT: note_on channel=9 note=42 velocity=0 time=0.016666624999999997
EXTRACT: note_on channel=9 note=35 velocity=0 time=0
EXTRACT: control_change channel=15 control=11 value=103 time=0.004166656249999999
EXTRACT: control_change channel=15 control=11 value=98 time=0.0416665625
EXTRACT: control_change channel=15 control=11 value=95 time=0.0416665625
EXTRACT: note_on channel=15 note=49 velocity=0 time=0.016666624999999997
EXTRACT: note_on channel=15 note=56 velocity=0 time=0.02083328125
EXTRACT: control_change channel=15 control=11 value=91 time=0.011111083333333332
EXTRACT: note_on channel=2 note=49 velocity=0 time=0.07222204166666665
EXTRACT: control_change channel=2 control=64 value=0 time=0.0416665625
EXTRACT: note_on channel=8 note=66 velocity=0 time=0.005555541666666666
EXTRACT: note_on channel=11 note=56 velocity=0 time=0.005555541666666666
EXTRACT: note_on channel=13 note=49 velocity=0 time=0.016666624999999997
EXTRACT: note_on channel=13 note=56 velocity=0 time=0
EXTRACT: note_on channel=13 note=53 velocity=0 time=0.013888854166666666
EXTRACT: control_change channel=15 control=11 value=127 time=0.004166656249999999
EXTRACT: note_on channel=8 note=58 velocity=55 time=0.0013888854166666665
EXTRACT: note_on channel=1 note=27 velocity=110 time=0.005555541666666666
EXTRACT: note_on channel=9 note=42 velocity=101 time=0
EXTRACT: note_on channel=9 note=35 velocity=116 time=0
EXTRACT: note_on channel=11 note=51 velocity=67 time=0
EXTRACT: note_on channel=15 note=39 velocity=39 time=0
EXTRACT: note_on channel=1 note=37 velocity=0 time=0.002777770833333333
EXTRACT: note_on channel=2 note=39 velocity=50 time=0.0013888854166666665
EXTRACT: note_on channel=13 note=58 velocity=31 time=0.008333312499999999
EXTRACT: control_change channel=2 control=64 value=100 time=0.008333312499999999
EXTRACT: note_on channel=13 note=51 velocity=24 time=0.002777770833333333
EXTRACT: note_on channel=13 note=54 velocity=28 time=0
EXTRACT: note_on channel=9 note=42 velocity=0 time=0.006944427083333333
EXTRACT: note_on channel=9 note=35 velocity=0 time=0
EXTRACT: note_on channel=2 note=39 velocity=0 time=0.12499968749999998
EXTRACT: note_on channel=8 note=61 velocity=0 time=0.14166631249999997
EXTRACT: note_on channel=3 note=54 velocity=0 time=0.024999937499999996
EXTRACT: note_on channel=15 note=39 velocity=0 time=0.002777770833333333
EXTRACT: note_on channel=9 note=42 velocity=65 time=0.008333312499999999
EXTRACT: note_on channel=11 note=61 velocity=63 time=0
EXTRACT: note_on channel=15 note=54 velocity=29 time=0
EXTRACT: note_on channel=8 note=66 velocity=75 time=0.004166656249999999
EXTRACT: note_on channel=2 note=54 velocity=43 time=0.002777770833333333
EXTRACT: note_on channel=2 note=54 velocity=0 time=0.013888854166666666
EXTRACT: note_on channel=9 note=42 velocity=0 time=0.009722197916666666
EXTRACT: note_on channel=8 note=58 velocity=0 time=0.21388835416666666
EXTRACT: note_on channel=15 note=54 velocity=0 time=0.07638869791666666
EXTRACT: note_on channel=11 note=51 velocity=0 time=0.0013888854166666665
EXTRACT: note_on channel=9 note=85 velocity=54 time=0
EXTRACT: note_on channel=8 note=61 velocity=71 time=0.006944427083333333
EXTRACT: note_on channel=3 note=58 velocity=111 time=0
EXTRACT: note_on channel=9 note=42 velocity=101 time=0
EXTRACT: note_on channel=9 note=28 velocity=69 time=0
EXTRACT: note_on channel=11 note=54 velocity=73 time=0
EXTRACT: note_on channel=15 note=58 velocity=40 time=0
EXTRACT: note_on channel=15 note=61 velocity=50 time=0
EXTRACT: note_on channel=9 note=39 velocity=106 time=0.002777770833333333
EXTRACT: note_on channel=2 note=58 velocity=59 time=0.004166656249999999
EXTRACT: note_on channel=9 note=85 velocity=0 time=0.013888854166666666
EXTRACT: note_on channel=2 note=61 velocity=71 time=0.005555541666666666
EXTRACT: note_on channel=9 note=42 velocity=0 time=0.004166656249999999
EXTRACT: note_on channel=9 note=28 velocity=0 time=0
EXTRACT: note_on channel=9 note=85 velocity=113 time=0
EXTRACT: note_on channel=9 note=39 velocity=0 time=0.004166656249999999
EXTRACT: note_on channel=2 note=61 velocity=0 time=0.006944427083333333
EXTRACT: note_on channel=2 note=58 velocity=0 time=0.009722197916666666
EXTRACT: note_on channel=9 note=85 velocity=0 time=0.011111083333333332
EXTRACT: note_on channel=1 note=27 velocity=0 time=0.009722197916666666
EXTRACT: control_change channel=15 control=11 value=127 time=0.09444420833333332
EXTRACT: note_on channel=11 note=61 velocity=0 time=0.009722197916666666
EXTRACT: note_on channel=3 note=58 velocity=0 time=0.011111083333333332
EXTRACT: control_change channel=15 control=11 value=123 time=0.02083328125
EXTRACT: control_change channel=15 control=11 value=119 time=0.0416665625
EXTRACT: control_change channel=15 control=11 value=115 time=0.0416665625
EXTRACT: note_on channel=8 note=61 velocity=0 time=0.033333249999999995
EXTRACT: note_on channel=3 note=58 velocity=110 time=0
EXTRACT: note_on channel=8 note=59 velocity=71 time=0.0013888854166666665
EXTRACT: note_on channel=1 note=34 velocity=117 time=0.004166656249999999
EXTRACT: note_on channel=9 note=42 velocity=53 time=0
EXTRACT: note_on channel=11 note=61 velocity=53 time=0
EXTRACT: control_change channel=15 control=11 value=111 time=0
EXTRACT: note_on channel=9 note=42 velocity=0 time=0.029166593749999997
EXTRACT: control_change channel=15 control=11 value=107 time=0.011111083333333332
EXTRACT: control_change channel=15 control=11 value=103 time=0.0416665625
EXTRACT: control_change channel=15 control=11 value=99 time=0.0416665625
EXTRACT: note_on channel=8 note=66 velocity=0 time=0.02777770833333333
EXTRACT: control_change channel=15 control=11 value=95 time=0.013888854166666666
EXTRACT: control_change channel=15 control=11 value=91 time=0.048610989583333326
EXTRACT: note_on channel=3 note=58 velocity=0 time=0.022222166666666664
EXTRACT: note_on channel=13 note=58 velocity=0 time=0.04305544791666666
EXTRACT: note_on channel=11 note=54 velocity=0 time=0.005555541666666666
EXTRACT: note_on channel=1 note=34 velocity=0 time=0.005555541666666666
EXTRACT: note_on channel=15 note=61 velocity=0 time=0.006944427083333333
EXTRACT: control_change channel=2 control=64 value=0 time=0.013888854166666666
EXTRACT: note_on channel=11 note=61 velocity=0 time=0.009722197916666666
EXTRACT: note_on channel=8 note=66 velocity=69 time=0.006944427083333333
EXTRACT: note_on channel=1 note=35 velocity=110 time=0.004166656249999999
EXTRACT: note_on channel=9 note=42 velocity=99 time=0
EXTRACT: note_on channel=9 note=35 velocity=115 time=0
EXTRACT: note_on channel=11 note=59 velocity=73 time=0
EXTRACT: note_on channel=15 note=47 velocity=37 time=0
EXTRACT: control_change channel=15 control=11 value=127 time=0
EXTRACT: note_on channel=13 note=59 velocity=30 time=0.002777770833333333
EXTRACT: note_on channel=2 note=47 velocity=60 time=0.0013888854166666665
EXTRACT: note_on channel=15 note=58 velocity=0 time=0.005555541666666666
EXTRACT: control_change channel=2 control=64 value=100 time=0
EXTRACT: note_on channel=3 note=59 velocity=111 time=0
EXTRACT: note_on channel=9 note=42 velocity=0 time=0.019444395833333333
EXTRACT: note_on channel=9 note=35 velocity=0 time=0
EXTRACT: note_on channel=2 note=47 velocity=0 time=0.1569440520833333
EXTRACT: note_on channel=8 note=59 velocity=0 time=0.07222204166666665
EXTRACT: note_on channel=3 note=59 velocity=0 time=0.012499968749999998
EXTRACT: note_on channel=11 note=59 velocity=0 time=0.038888791666666665
EXTRACT: note_on channel=15 note=47 velocity=0 time=0.013888854166666666
EXTRACT: note_on channel=8 note=59 velocity=63 time=0.002777770833333333
EXTRACT: note_on channel=11 note=61 velocity=73 time=0.004166656249999999
EXTRACT: note_on channel=3 note=58 velocity=111 time=0
EXTRACT: note_on channel=9 note=42 velocity=51 time=0
EXTRACT: note_on channel=15 note=51 velocity=29 time=0
EXTRACT: note_on channel=2 note=51 velocity=38 time=0.006944427083333333
EXTRACT: note_on channel=9 note=42 velocity=0 time=0.02361105208333333
EXTRACT: note_on channel=2 note=51 velocity=0 time=0.02083328125
EXTRACT: note_on channel=3 note=58 velocity=0 time=0.14583296874999999
EXTRACT: note_on channel=8 note=66 velocity=0 time=0.06249984374999999
EXTRACT: note_on channel=15 note=51 velocity=0 time=0.05138876041666666
EXTRACT: note_on channel=9 note=85 velocity=55 time=0.011111083333333332
EXTRACT: note_on channel=8 note=66 velocity=71 time=0.006944427083333333
EXTRACT: note_on channel=2 note=54 velocity=58 time=0.0013888854166666665
EXTRACT: note_on channel=11 note=61 velocity=0 time=0.002777770833333333
EXTRACT: note_on channel=3 note=54 velocity=110 time=0
EXTRACT: note_on channel=9 note=42 velocity=99 time=0
EXTRACT: note_on channel=9 note=28 velocity=69 time=0
EXTRACT: note_on channel=11 note=59 velocity=75 time=0
EXTRACT: note_on channel=15 note=54 velocity=40 time=0
EXTRACT: note_on channel=15 note=59 velocity=51 time=0
EXTRACT: note_on channel=9 note=39 velocity=107 time=0.002777770833333333
EXTRACT: note_on channel=2 note=59 velocity=70 time=0.002777770833333333
EXTRACT: note_on channel=9 note=85 velocity=0 time=0.015277739583333332
EXTRACT: note_on channel=2 note=59 velocity=0 time=0
EXTRACT: note_on channel=2 note=54 velocity=0 time=0.009722197916666666
EXTRACT: note_on channel=9 note=42 velocity=0 time=0
EXTRACT: note_on channel=9 note=28 velocity=0 time=0
EXTRACT: note_on channel=9 note=85 velocity=113 time=0
EXTRACT: note_on channel=9 note=39 velocity=0 time=0.004166656249999999
EXTRACT: note_on channel=9 note=85 velocity=0 time=0.02777770833333333
EXTRACT: control_change channel=15 control=11 value=127 time=0.07638869791666666
EXTRACT: control_change channel=15 control=11 value=123 time=0.0416665625
EXTRACT: note_on channel=1 note=35 velocity=0 time=0.002777770833333333
EXTRACT: control_change channel=15 control=11 value=119 time=0.038888791666666665
EXTRACT: note_on channel=8 note=59 velocity=0 time=0.006944427083333333
EXTRACT: note_on channel=3 note=54 velocity=0 time=0.009722197916666666
EXTRACT: control_change channel=15 control=11 value=115 time=0.024999937499999996
EXTRACT: control_change channel=15 control=11 value=111 time=0.0416665625
EXTRACT: note_on channel=8 note=59 velocity=71 time=0.02361105208333333
EXTRACT: note_on channel=1 note=35 velocity=117 time=0
EXTRACT: note_on channel=3 note=56 velocity=111 time=0
EXTRACT: note_on channel=9 note=42 velocity=59 time=0
EXTRACT: note_on channel=9 note=35 velocity=105 time=0
EXTRACT: note_on channel=11 note=54 velocity=49 time=0.005555541666666666
EXTRACT: control_change channel=15 control=11 value=107 time=0.008333312499999999
EXTRACT: note_on channel=9 note=42 velocity=0 time=0.016666624999999997
EXTRACT: note_on channel=9 note=35 velocity=0 time=0
EXTRACT: control_change channel=15 control=11 value=103 time=0.024999937499999996
EXTRACT: control_change channel=15 control=11 value=99 time=0.0416665625
EXTRACT: pitchwheel channel=1 pitch=4384 time=0.03611102083333333
EXTRACT: control_change channel=15 control=11 value=94 time=0.005555541666666666
EXTRACT: pitchwheel channel=1 pitch=8191 time=0.008333312499999999
EXTRACT: note_on channel=15 note=59 velocity=0 time=0.04999987499999999
EXTRACT: note_on channel=15 note=54 velocity=0 time=0.083333125
EXTRACT: note_on channel=13 note=54 velocity=0 time=0.004166656249999999
EXTRACT: note_on channel=11 note=59 velocity=0 time=0.015277739583333332
EXTRACT: control_change channel=15 control=11 value=127 time=0.005555541666666666
EXTRACT: note_on channel=1 note=35 velocity=0 time=0.002777770833333333
EXTRACT: note_on channel=8 note=59 velocity=0 time=0.004166656249999999
EXTRACT: control_change channel=2 control=64 value=0 time=0
EXTRACT: note_on channel=11 note=54 velocity=0 time=0.005555541666666666
EXTRACT: note_on channel=13 note=51 velocity=0 time=0.004166656249999999
EXTRACT: note_on channel=13 note=54 velocity=25 time=0.006944427083333333
EXTRACT: note_on channel=8 note=66 velocity=0 time=0.004166656249999999
EXTRACT: note_on channel=1 note=42 velocity=118 time=0
EXTRACT: note_on channel=8 note=61 velocity=69 time=0
EXTRACT: note_on channel=9 note=42 velocity=101 time=0
EXTRACT: note_on channel=9 note=35 velocity=119 time=0
EXTRACT: note_on channel=15 note=42 velocity=42 time=0
EXTRACT: note_on channel=13 note=59 velocity=0 time=0.002777770833333333
EXTRACT: note_on channel=2 note=42 velocity=53 time=0.0013888854166666665
EXTRACT: pitchwheel channel=1 pitch=0 time=0
EXTRACT: note_on channel=11 note=54 velocity=67 time=0.0013888854166666665
EXTRACT: note_on channel=13 note=58 velocity=30 time=0.006944427083333333
EXTRACT: note_on channel=9 note=42 velocity=0 time=0.018055510416666663
EXTRACT: note_on channel=9 note=35 velocity=0 time=0
EXTRACT: control_change channel=2 control=64 value=100 time=0
EXTRACT: note_on channel=2 note=42 velocity=0 time=0.12499968749999998
EXTRACT: note_on channel=1 note=42 velocity=0 time=0.13888854166666664
EXTRACT: note_on channel=15 note=42 velocity=0 time=0.019444395833333333
EXTRACT: note_on channel=8 note=66 velocity=75 time=0.015277739583333332
EXTRACT: note_on channel=2 note=49 velocity=38 time=0.0013888854166666665
EXTRACT: note_on channel=1 note=42 velocity=119 time=0.002777770833333333
EXTRACT: note_on channel=9 note=42 velocity=57 time=0
EXTRACT: note_on channel=15 note=49 velocity=29 time=0
EXTRACT: note_on channel=11 note=58 velocity=75 time=0.006944427083333333
EXTRACT: note_on channel=2 note=49 velocity=0 time=0.002777770833333333
EXTRACT: note_on channel=9 note=42 velocity=0 time=0.02083328125
EXTRACT: note_on channel=3 note=56 velocity=0 time=0.11666637499999999
EXTRACT: note_on channel=8 note=61 velocity=0 time=0.004166656249999999
EXTRACT: note_on channel=11 note=54 velocity=0 time=0.14027742708333332
EXTRACT: note_on channel=9 note=85 velocity=55 time=0.030555479166666663
EXTRACT: note_on channel=8 note=61 velocity=71 time=0.006944427083333333
EXTRACT: note_on channel=9 note=42 velocity=103 time=0.004166656249999999
EXTRACT: note_on channel=9 note=28 velocity=69 time=0
EXTRACT: note_on channel=15 note=54 velocity=40 time=0
EXTRACT: note_on channel=15 note=58 velocity=51 time=0
EXTRACT: note_on channel=11 note=54 velocity=69 time=0.0013888854166666665
EXTRACT: note_on channel=9 note=39 velocity=107 time=0.0013888854166666665
EXTRACT: note_on channel=15 note=49 velocity=0 time=0.002777770833333333
EXTRACT: note_on channel=2 note=58 velocity=70 time=0.009722197916666666
EXTRACT: note_on channel=2 note=54 velocity=59 time=0.002777770833333333
EXTRACT: note_on channel=9 note=85 velocity=0 time=0.002777770833333333
EXTRACT: note_on channel=1 note=42 velocity=0 time=0.009722197916666666
EXTRACT: note_on channel=9 note=42 velocity=0 time=0
EXTRACT: note_on channel=9 note=28 velocity=0 time=0
EXTRACT: note_on channel=9 note=85 velocity=113 time=0
EXTRACT: note_on channel=9 note=39 velocity=0 time=0.004166656249999999
EXTRACT: note_on channel=2 note=54 velocity=0 time=0.016666624999999997
EXTRACT: note_on channel=9 note=85 velocity=0 time=0.011111083333333332
EXTRACT: note_on channel=2 note=58 velocity=0 time=0.02083328125
EXTRACT: control_change channel=15 control=11 value=126 time=0.06249984374999999
EXTRACT: control_change channel=15 control=11 value=122 time=0.0416665625
EXTRACT: control_change channel=15 control=11 value=119 time=0.0416665625
EXTRACT: note_on channel=8 note=66 velocity=0 time=0.005555541666666666
EXTRACT: control_change channel=15 control=11 value=114 time=0.03611102083333333
EXTRACT: note_on channel=11 note=54 velocity=0 time=0.02361105208333333
EXTRACT: note_on channel=11 note=58 velocity=0 time=0.006944427083333333
EXTRACT: note_on channel=3 note=66 velocity=111 time=0
EXTRACT: control_change channel=15 control=11 value=111 time=0
EXTRACT: note_on channel=1 note=37 velocity=112 time=0.02083328125
EXTRACT: note_on channel=8 note=65 velocity=71 time=0
EXTRACT: note_on channel=9 note=42 velocity=61 time=0
EXTRACT: note_on channel=9 note=35 velocity=107 time=0
EXTRACT: note_on channel=11 note=61 velocity=69 time=0.0013888854166666665
EXTRACT: control_change channel=15 control=11 value=106 time=0.019444395833333333
EXTRACT: note_on channel=9 note=42 velocity=0 time=0.009722197916666666
EXTRACT: note_on channel=9 note=35 velocity=0 time=0
EXTRACT: control_change channel=15 control=11 value=103 time=0.03194436458333333
EXTRACT: control_change channel=15 control=11 value=98 time=0.0416665625
EXTRACT: note_on channel=3 note=66 velocity=0 time=0.005555541666666666
EXTRACT: control_change channel=15 control=11 value=94 time=0.03611102083333333
EXTRACT: note_on channel=15 note=58 velocity=0 time=0.009722197916666666
EXTRACT: control_change channel=15 control=11 value=91 time=0.038888791666666665
EXTRACT: control_change channel=2 control=64 value=0 time=0.10694417708333333
EXTRACT: note_on channel=15 note=54 velocity=0 time=0.005555541666666666
EXTRACT: note_on channel=13 note=54 velocity=0 time=0.0013888854166666665
EXTRACT: control_change channel=15 control=11 value=127 time=0.004166656249999999
EXTRACT: note_on channel=3 note=66 velocity=111 time=0
EXTRACT: note_on channel=1 note=37 velocity=0 time=0.005555541666666666
EXTRACT: note_on channel=13 note=58 velocity=0 time=0
EXTRACT: note_on channel=11 note=49 velocity=69 time=0.004166656249999999
EXTRACT: control_change channel=2 control=64 value=100 time=0
EXTRACT: note_on channel=13 note=56 velocity=30 time=0.005555541666666666
EXTRACT: note_on channel=2 note=49 velocity=43 time=0.0013888854166666665
EXTRACT: note_on channel=2 note=56 velocity=70 time=0
EXTRACT: note_on channel=9 note=46 velocity=104 time=0
EXTRACT: note_on channel=15 note=49 velocity=44 time=0
EXTRACT: note_on channel=2 note=49 velocity=0 time=0.005555541666666666
EXTRACT: note_on channel=13 note=53 velocity=26 time=0.006944427083333333
EXTRACT: note_on channel=15 note=56 velocity=55 time=0.008333312499999999
EXTRACT: note_on channel=2 note=56 velocity=0 time=0.004166656249999999
EXTRACT: note_on channel=9 note=46 velocity=0 time=0.005555541666666666
EXTRACT: note_on channel=8 note=61 velocity=0 time=0.2083328125
EXTRACT: note_on channel=3 note=66 velocity=0 time=0.03194436458333333
EXTRACT: note_on channel=3 note=68 velocity=111 time=0
EXTRACT: note_on channel=2 note=49 velocity=46 time=0.011111083333333332
EXTRACT: note_on channel=8 note=61 velocity=71 time=0
EXTRACT: note_on channel=9 note=35 velocity=107 time=0
EXTRACT: note_on channel=9 note=35 velocity=0 time=0.030555479166666663
EXTRACT: control_change channel=15 control=11 value=123 time=0.018055510416666663
EXTRACT: control_change channel=1 control=101 value=0 time=0.03472213541666666
EXTRACT: control_change channel=15 control=11 value=118 time=0.006944427083333333
EXTRACT: control_change channel=15 control=11 value=114 time=0.0416665625
EXTRACT: control_change channel=1 control=100 value=0 time=0.006944427083333333
EXTRACT: note_on channel=8 note=65 velocity=0 time=0.016666624999999997
EXTRACT: control_change channel=15 control=11 value=110 time=0.018055510416666663
EXTRACT: control_change channel=1 control=6 value=8 time=0.02083328125
EXTRACT: control_change channel=15 control=11 value=106 time=0.02083328125
EXTRACT: note_on channel=11 note=61 velocity=0 time=0.02083328125
EXTRACT: note_on channel=3 note=68 velocity=0 time=0.006944427083333333
EXTRACT: control_change channel=15 control=11 value=103 time=0.013888854166666666
EXTRACT: control_change channel=15 control=11 value=98 time=0.0416665625
EXTRACT: note_on channel=11 note=49 velocity=0 time=0.008333312499999999
EXTRACT: note_on channel=3 note=70 velocity=111 time=0
EXTRACT: note_on channel=9 note=85 velocity=46 time=0
EXTRACT: note_on channel=1 note=46 velocity=122 time=0.011111083333333332
EXTRACT: note_on channel=2 note=56 velocity=49 time=0
EXTRACT: note_on channel=9 note=47 velocity=99 time=0
EXTRACT: note_on channel=9 note=28 velocity=62 time=0
EXTRACT: note_on channel=8 note=65 velocity=87 time=0.0013888854166666665
EXTRACT: note_on channel=9 note=39 velocity=100 time=0.0013888854166666665
EXTRACT: note_on channel=11 note=56 velocity=79 time=0
EXTRACT: control_change channel=15 control=11 value=94 time=0.004166656249999999
EXTRACT: note_on channel=9 note=85 velocity=0 time=0.013888854166666666
EXTRACT: note_on channel=2 note=56 velocity=0 time=0.004166656249999999
EXTRACT: note_on channel=9 note=47 velocity=0 time=0.005555541666666666
EXTRACT: note_on channel=9 note=28 velocity=0 time=0
EXTRACT: note_on channel=9 note=85 velocity=105 time=0
EXTRACT: note_on channel=9 note=39 velocity=0 time=0.004166656249999999
EXTRACT: control_change channel=15 control=11 value=91 time=0.02083328125
EXTRACT: note_on channel=9 note=85 velocity=0 time=0.006944427083333333
EXTRACT: note_on channel=8 note=65 velocity=0 time=0.083333125
EXTRACT: note_on channel=8 note=66 velocity=73 time=0.008333312499999999
EXTRACT: note_on channel=15 note=49 velocity=0 time=0.0013888854166666665
EXTRACT: control_change channel=9 control=99 value=28 time=0.06666649999999999
EXTRACT: note_on channel=15 note=56 velocity=0 time=0.016666624999999997
EXTRACT: note_on channel=8 note=61 velocity=0 time=0
EXTRACT: pitchwheel channel=1 pitch=-414 time=0
EXTRACT: note_on channel=3 note=70 velocity=0 time=0.009722197916666666
EXTRACT: pitchwheel channel=1 pitch=-1031 time=0.004166656249999999
EXTRACT: control_change channel=9 control=98 value=54 time=0.011111083333333332
EXTRACT: pitchwheel channel=1 pitch=-2152 time=0.002777770833333333
EXTRACT: control_change channel=9 control=6 value=90 time=0.011111083333333332
EXTRACT: pitchwheel channel=1 pitch=-3100 time=0.002777770833333333
EXTRACT: pitchwheel channel=1 pitch=-4138 time=0.013888854166666666
EXTRACT: control_change channel=15 control=11 value=127 time=0.004166656249999999
EXTRACT: pitchwheel channel=1 pitch=-4883 time=0.011111083333333332
EXTRACT: note_on channel=2 note=49 velocity=40 time=0.006944427083333333
EXTRACT: note_on channel=3 note=73 velocity=111 time=0
EXTRACT: pitchwheel channel=1 pitch=-5545 time=0.002777770833333333
EXTRACT: note_on channel=9 note=43 velocity=86 time=0.009722197916666666
EXTRACT: note_on channel=9 note=35 velocity=89 time=0
EXTRACT: note_on channel=15 note=41 velocity=19 time=0
EXTRACT: note_on channel=15 note=49 velocity=28 time=0
EXTRACT: pitchwheel channel=1 pitch=-5958 time=0.004166656249999999
EXTRACT: note_on channel=8 note=61 velocity=75 time=0.002777770833333333
EXTRACT: pitchwheel channel=1 pitch=-6289 time=0.012499968749999998
EXTRACT: note_on channel=9 note=43 velocity=0 time=0.011111083333333332
EXTRACT: note_on channel=9 note=35 velocity=0 time=0
EXTRACT: pitchwheel channel=1 pitch=-6620 time=0.002777770833333333
EXTRACT: pitchwheel channel=1 pitch=-6703 time=0.012499968749999998
EXTRACT: pitchwheel channel=1 pitch=-6869 time=0.015277739583333332
EXTRACT: pitchwheel channel=1 pitch=-7117 time=0.013888854166666666
EXTRACT: note_on channel=1 note=46 velocity=0 time=0.011111083333333332
EXTRACT: note_on channel=15 note=41 velocity=0 time=0.038888791666666665
EXTRACT: note_on channel=15 note=49 velocity=0 time=0.009722197916666666
EXTRACT: control_change channel=9 control=99 value=24 time=0.03194436458333333
EXTRACT: note_on channel=2 note=49 velocity=0 time=0.030555479166666663
EXTRACT: control_change channel=9 control=98 value=54 time=0.011111083333333332
EXTRACT: control_change channel=9 control=6 value=62 time=0.0416665625
EXTRACT: control_change channel=2 control=64 value=0 time=0.030555479166666663
EXTRACT: note_on channel=11 note=56 velocity=0 time=0.011111083333333332
EXTRACT: note_on channel=13 note=56 velocity=0 time=0.016666624999999997
EXTRACT: pitchwheel channel=1 pitch=0 time=0.005555541666666666
EXTRACT: note_on channel=8 note=66 velocity=0 time=0.004166656249999999
EXTRACT: note_on channel=13 note=53 velocity=0 time=0.004166656249999999
EXTRACT: note_on channel=1 note=27 velocity=119 time=0.011111083333333332
EXTRACT: note_on channel=8 note=58 velocity=57 time=0
EXTRACT: note_on channel=9 note=49 velocity=76 time=0
EXTRACT: note_on channel=9 note=35 velocity=120 time=0
EXTRACT: note_on channel=11 note=51 velocity=67 time=0
EXTRACT: note_on channel=13 note=63 velocity=37 time=0
EXTRACT: note_on channel=13 note=70 velocity=45 time=0
EXTRACT: note_on channel=15 note=39 velocity=41 time=0
EXTRACT: note_on channel=2 note=39 velocity=60 time=0.004166656249999999
EXTRACT: control_change channel=2 control=64 value=100 time=0.016666624999999997
EXTRACT: note_on channel=13 note=66 velocity=37 time=0.002777770833333333
EXTRACT: note_on channel=9 note=49 velocity=0 time=0.006944427083333333
EXTRACT: note_on channel=9 note=35 velocity=0 time=0
EXTRACT: note_on channel=2 note=39 velocity=0 time=0.12499968749999998
EXTRACT: note_on channel=8 note=61 velocity=0 time=0.15138851041666665
EXTRACT: note_on channel=15 note=39 velocity=0 time=0.018055510416666663
EXTRACT: note_on channel=9 note=46 velocity=65 time=0.008333312499999999
EXTRACT: note_on channel=9 note=54 velocity=29 time=0
EXTRACT: note_on channel=11 note=61 velocity=63 time=0
EXTRACT: note_on channel=15 note=54 velocity=31 time=0
EXTRACT: note_on channel=8 note=66 velocity=75 time=0.004166656249999999
EXTRACT: note_on channel=2 note=54 velocity=43 time=0.002777770833333333
EXTRACT: note_on channel=2 note=54 velocity=0 time=0.013888854166666666
EXTRACT: note_on channel=9 note=46 velocity=0 time=0.009722197916666666
EXTRACT: note_on channel=9 note=54 velocity=0 time=0
EXTRACT: note_on channel=8 note=58 velocity=0 time=0.21944389583333332
EXTRACT: note_on channel=3 note=73 velocity=0 time=0.02361105208333333
EXTRACT: note_on channel=15 note=54 velocity=0 time=0.04722210416666666
EXTRACT: note_on channel=1 note=27 velocity=0 time=0.0013888854166666665
EXTRACT: note_on channel=11 note=51 velocity=0 time=0
EXTRACT: note_on channel=3 note=73 velocity=111 time=0
EXTRACT: note_on channel=8 note=61 velocity=71 time=0.004166656249999999
EXTRACT: note_on channel=9 note=46 velocity=77 time=0.004166656249999999
EXTRACT: note_on channel=9 note=54 velocity=45 time=0
EXTRACT: note_on channel=11 note=54 velocity=73 time=0
EXTRACT: note_on channel=15 note=58 velocity=42 time=0
EXTRACT: note_on channel=15 note=61 velocity=57 time=0
EXTRACT: note_on channel=9 note=39 velocity=112 time=0.002777770833333333
EXTRACT: note_on channel=2 note=58 velocity=61 time=0.004166656249999999
EXTRACT: note_on channel=9 note=28 velocity=68 time=0.002777770833333333
EXTRACT: note_on channel=9 note=85 velocity=76 time=0
EXTRACT: note_on channel=2 note=61 velocity=74 time=0.016666624999999997
EXTRACT: note_on channel=9 note=46 velocity=0 time=0.004166656249999999
EXTRACT: note_on channel=9 note=54 velocity=0 time=0
EXTRACT: note_on channel=9 note=39 velocity=0 time=0.004166656249999999
EXTRACT: note_on channel=9 note=28 velocity=0 time=0.006944427083333333
EXTRACT: note_on channel=9 note=85 velocity=0 time=0
EXTRACT: note_on channel=2 note=61 velocity=0 time=0
EXTRACT: note_on channel=2 note=58 velocity=0 time=0.009722197916666666
EXTRACT: note_on channel=9 note=85 velocity=126 time=0
EXTRACT: note_on channel=9 note=85 velocity=0 time=0.03194436458333333
EXTRACT: control_change channel=15 control=11 value=126 time=0.083333125
EXTRACT: note_on channel=11 note=61 velocity=0 time=0.009722197916666666
EXTRACT: control_change channel=15 control=11 value=122 time=0.03194436458333333
EXTRACT: control_change channel=15 control=11 value=119 time=0.0416665625
EXTRACT: control_change channel=15 control=11 value=114 time=0.0416665625
EXTRACT: note_on channel=8 note=61 velocity=0 time=0.033333249999999995
EXTRACT: note_on channel=8 note=59 velocity=71 time=0.004166656249999999
EXTRACT: note_on channel=1 note=34 velocity=121 time=0.004166656249999999
EXTRACT: note_on channel=9 note=46 velocity=50 time=0
EXTRACT: note_on channel=9 note=54 velocity=34 time=0
EXTRACT: note_on channel=9 note=35 velocity=111 time=0
EXTRACT: note_on channel=11 note=61 velocity=53 time=0
EXTRACT: control_change channel=15 control=11 value=110 time=0
EXTRACT: note_on channel=9 note=46 velocity=0 time=0.030555479166666663
EXTRACT: note_on channel=9 note=54 velocity=0 time=0
EXTRACT: note_on channel=9 note=35 velocity=0 time=0
EXTRACT: control_change channel=15 control=11 value=107 time=0.011111083333333332
EXTRACT: control_change channel=15 control=11 value=103 time=0.0416665625
EXTRACT: control_change channel=15 control=11 value=98 time=0.0416665625
EXTRACT: note_on channel=15 note=61 velocity=0 time=0.004166656249999999
EXTRACT: note_on channel=8 note=66 velocity=0 time=0.02361105208333333
EXTRACT: control_change channel=15 control=11 value=95 time=0.013888854166666666
EXTRACT: control_change channel=15 control=11 value=91 time=0.048610989583333326
EXTRACT: note_on channel=15 note=58 velocity=0 time=0.016666624999999997
EXTRACT: note_on channel=3 note=73 velocity=0 time=0.02777770833333333
EXTRACT: note_on channel=13 note=70 velocity=0 time=0.008333312499999999
EXTRACT: note_on channel=11 note=54 velocity=0 time=0.018055510416666663
EXTRACT: note_on channel=13 note=71 velocity=43 time=0.02361105208333333
EXTRACT: control_change channel=2 control=64 value=0 time=0.002777770833333333
EXTRACT: note_on channel=1 note=34 velocity=0 time=0.009722197916666666
EXTRACT: note_on channel=11 note=61 velocity=0 time=0
EXTRACT: note_on channel=8 note=66 velocity=68 time=0.006944427083333333
EXTRACT: note_on channel=1 note=35 velocity=121 time=0.004166656249999999
EXTRACT: note_on channel=9 note=46 velocity=75 time=0
EXTRACT: note_on channel=9 note=35 velocity=120 time=0
EXTRACT: note_on channel=9 note=54 velocity=45 time=0
EXTRACT: note_on channel=11 note=59 velocity=73 time=0
EXTRACT: note_on channel=15 note=47 velocity=38 time=0
EXTRACT: control_change channel=15 control=11 value=126 time=0
EXTRACT: note_on channel=2 note=47 velocity=65 time=0.004166656249999999
EXTRACT: control_change channel=2 control=64 value=100 time=0.005555541666666666
EXTRACT: note_on channel=9 note=46 velocity=0 time=0.02083328125
EXTRACT: note_on channel=9 note=35 velocity=0 time=0
EXTRACT: note_on channel=9 note=54 velocity=0 time=0
EXTRACT: note_on channel=2 note=47 velocity=0 time=0.1569440520833333
EXTRACT: note_on channel=8 note=59 velocity=0 time=0.07222204166666665
EXTRACT: note_on channel=11 note=59 velocity=0 time=0.05138876041666666
EXTRACT: note_on channel=15 note=47 velocity=0 time=0.013888854166666666
EXTRACT: note_on channel=8 note=59 velocity=63 time=0.002777770833333333
EXTRACT: note_on channel=11 note=61 velocity=72 time=0.004166656249999999
EXTRACT: note_on channel=9 note=46 velocity=48 time=0.0013888854166666665
EXTRACT: note_on channel=9 note=54 velocity=30 time=0
EXTRACT: note_on channel=15 note=51 velocity=31 time=0
EXTRACT: note_on channel=2 note=51 velocity=43 time=0.006944427083333333
EXTRACT: note_on channel=9 note=46 velocity=0 time=0.02361105208333333
EXTRACT: note_on channel=9 note=54 velocity=0 time=0
EXTRACT: note_on channel=2 note=51 velocity=0 time=0.02083328125
EXTRACT: note_on channel=8 note=66 velocity=0 time=0.2083328125
EXTRACT: note_on channel=15 note=51 velocity=0 time=0.05138876041666666
EXTRACT: note_on channel=8 note=66 velocity=70 time=0.018055510416666663
EXTRACT: note_on channel=2 note=54 velocity=66 time=0.0013888854166666665
EXTRACT: note_on channel=11 note=61 velocity=0 time=0.002777770833333333
EXTRACT: note_on channel=9 note=46 velocity=74 time=0
EXTRACT: note_on channel=9 note=54 velocity=47 time=0
EXTRACT: note_on channel=11 note=59 velocity=75 time=0
EXTRACT: note_on channel=15 note=54 velocity=42 time=0
EXTRACT: note_on channel=15 note=59 velocity=56 time=0
EXTRACT: note_on channel=9 note=39 velocity=114 time=0.002777770833333333
EXTRACT: note_on channel=2 note=59 velocity=75 time=0.002777770833333333
EXTRACT: note_on channel=9 note=28 velocity=73 time=0.004166656249999999
EXTRACT: note_on channel=9 note=85 velocity=75 time=0
EXTRACT: note_on channel=2 note=59 velocity=0 time=0.011111083333333332
EXTRACT: note_on channel=2 note=54 velocity=0 time=0.009722197916666666
EXTRACT: note_on channel=9 note=46 velocity=0 time=0
EXTRACT: note_on channel=9 note=54 velocity=0 time=0
EXTRACT: note_on channel=9 note=39 velocity=0 time=0.004166656249999999
EXTRACT: note_on channel=9 note=28 velocity=0 time=0.006944427083333333
EXTRACT: note_on channel=9 note=85 velocity=0 time=0
EXTRACT: note_on channel=9 note=85 velocity=126 time=0.009722197916666666
EXTRACT: note_on channel=9 note=85 velocity=0 time=0.03194436458333333
EXTRACT: control_change channel=15 control=11 value=127 time=0.05555541666666666
EXTRACT: control_change channel=15 control=11 value=123 time=0.0416665625
EXTRACT: control_change channel=15 control=11 value=119 time=0.0416665625
EXTRACT: note_on channel=8 note=59 velocity=0 time=0.006944427083333333
EXTRACT: control_change channel=15 control=11 value=115 time=0.03472213541666666
EXTRACT: control_change channel=15 control=11 value=111 time=0.0416665625
EXTRACT: note_on channel=1 note=35 velocity=0 time=0.016666624999999997
EXTRACT: note_on channel=8 note=59 velocity=70 time=0.006944427083333333
EXTRACT: note_on channel=9 note=54 velocity=30 time=0.002777770833333333
EXTRACT: note_on channel=9 note=46 velocity=59 time=0.0013888854166666665
EXTRACT: note_on channel=9 note=35 velocity=113 time=0
EXTRACT: note_on channel=11 note=54 velocity=48 time=0.005555541666666666
EXTRACT: control_change channel=15 control=11 value=107 time=0.008333312499999999
EXTRACT: note_on channel=9 note=54 velocity=0 time=0.016666624999999997
EXTRACT: note_on channel=9 note=46 velocity=0 time=0
EXTRACT: note_on channel=9 note=35 velocity=0 time=0
EXTRACT: control_change channel=15 control=11 value=103 time=0.024999937499999996
EXTRACT: control_change channel=15 control=11 value=99 time=0.0416665625
EXTRACT: control_change channel=15 control=11 value=95 time=0.0416665625
EXTRACT: note_on channel=15 note=59 velocity=0 time=0.0013888854166666665
EXTRACT: control_change channel=15 control=11 value=91 time=0.04722210416666666
EXTRACT: note_on channel=15 note=54 velocity=0 time=0.07222204166666665
EXTRACT: note_on channel=13 note=66 velocity=0 time=0.024999937499999996
EXTRACT: note_on channel=13 note=63 velocity=0 time=0.013888854166666666
EXTRACT: note_on channel=11 note=59 velocity=0 time=0.0013888854166666665
EXTRACT: control_change channel=15 control=11 value=127 time=0.005555541666666666
EXTRACT: note_on channel=13 note=71 velocity=0 time=0.004166656249999999
EXTRACT: note_on channel=8 note=59 velocity=0 time=0.002777770833333333
EXTRACT: control_change channel=2 control=64 value=0 time=0
EXTRACT: note_on channel=11 note=54 velocity=0 time=0.005555541666666666
EXTRACT: note_on channel=13 note=70 velocity=43 time=0.0013888854166666665
EXTRACT: note_on channel=13 note=66 velocity=33 time=0.009722197916666666
EXTRACT: note_on channel=8 note=66 velocity=0 time=0.004166656249999999
EXTRACT: note_on channel=1 note=30 velocity=122 time=0
EXTRACT: note_on channel=8 note=61 velocity=69 time=0
EXTRACT: note_on channel=9 note=46 velocity=77 time=0
EXTRACT: note_on channel=9 note=54 velocity=46 time=0
EXTRACT: note_on channel=9 note=35 velocity=125 time=0
EXTRACT: note_on channel=13 note=61 velocity=35 time=0
EXTRACT: note_on channel=15 note=42 velocity=45 time=0
EXTRACT: note_on channel=2 note=42 velocity=57 time=0.004166656249999999
EXTRACT: note_on channel=11 note=54 velocity=66 time=0.0013888854166666665
EXTRACT: note_on channel=9 note=46 velocity=0 time=0.024999937499999996
EXTRACT: note_on channel=9 note=54 velocity=0 time=0
EXTRACT: note_on channel=9 note=35 velocity=0 time=0
EXTRACT: control_change channel=2 control=64 value=100 time=0
EXTRACT: note_on channel=2 note=42 velocity=0 time=0.12499968749999998
EXTRACT: note_on channel=15 note=42 velocity=0 time=0.1583329375
EXTRACT: note_on channel=8 note=66 velocity=74 time=0.015277739583333332
EXTRACT: note_on channel=2 note=49 velocity=43 time=0
EXTRACT: note_on channel=3 note=73 velocity=111 time=0
EXTRACT: note_on channel=9 note=46 velocity=55 time=0.002777770833333333
EXTRACT: note_on channel=9 note=54 velocity=27 time=0
EXTRACT: note_on channel=15 note=49 velocity=31 time=0
EXTRACT: note_on channel=11 note=58 velocity=75 time=0.006944427083333333
EXTRACT: note_on channel=2 note=49 velocity=0 time=0.002777770833333333
EXTRACT: note_on channel=9 note=46 velocity=0 time=0.02083328125
EXTRACT: note_on channel=9 note=54 velocity=0 time=0
EXTRACT: note_on channel=8 note=61 velocity=0 time=0.12083303124999999
EXTRACT: note_on channel=3 note=73 velocity=0 time=0.029166593749999997
EXTRACT: note_on channel=11 note=54 velocity=0 time=0.11111083333333333
EXTRACT: note_on channel=8 note=61 velocity=71 time=0.03749990625
EXTRACT: note_on channel=9 note=46 velocity=79 time=0.004166656249999999
EXTRACT: note_on channel=9 note=54 velocity=47 time=0
EXTRACT: note_on channel=15 note=54 velocity=42 time=0
EXTRACT: note_on channel=15 note=58 velocity=58 time=0
EXTRACT: note_on channel=3 note=73 velocity=111 time=0
EXTRACT: note_on channel=11 note=54 velocity=68 time=0
EXTRACT: note_on channel=9 note=39 velocity=115 time=0.0013888854166666665
EXTRACT: note_on channel=15 note=49 velocity=0 time=0.002777770833333333
EXTRACT: note_on channel=9 note=28 velocity=73 time=0.004166656249999999
EXTRACT: note_on channel=9 note=85 velocity=79 time=0
EXTRACT: note_on channel=2 note=58 velocity=75 time=0.005555541666666666
EXTRACT: note_on channel=2 note=54 velocity=61 time=0.002777770833333333
EXTRACT: note_on channel=9 note=46 velocity=0 time=0.012499968749999998
EXTRACT: note_on channel=9 note=54 velocity=0 time=0.0013888854166666665
EXTRACT: note_on channel=9 note=39 velocity=0 time=0.002777770833333333
EXTRACT: note_on channel=9 note=28 velocity=0 time=0.006944427083333333
EXTRACT: note_on channel=9 note=85 velocity=0 time=0
EXTRACT: note_on channel=2 note=54 velocity=0 time=0.009722197916666666
EXTRACT: note_on channel=9 note=85 velocity=127 time=0
EXTRACT: note_on channel=2 note=58 velocity=0 time=0.03194436458333333
EXTRACT: note_on channel=9 note=85 velocity=0 time=0
EXTRACT: note_on channel=1 note=30 velocity=0 time=0.04444433333333333
EXTRACT: control_change channel=15 control=11 value=127 time=0.018055510416666663
EXTRACT: control_change channel=15 control=11 value=123 time=0.0416665625
EXTRACT: note_on channel=3 note=73 velocity=0 time=0.0013888854166666665
EXTRACT: control_change channel=15 control=11 value=119 time=0.04027767708333333
EXTRACT: note_on channel=8 note=66 velocity=0 time=0.005555541666666666
EXTRACT: control_change channel=15 control=11 value=115 time=0.03611102083333333
EXTRACT: note_on channel=11 note=54 velocity=0 time=0.02361105208333333
EXTRACT: note_on channel=11 note=58 velocity=0 time=0.006944427083333333
EXTRACT: control_change channel=15 control=11 value=111 time=0.011111083333333332
EXTRACT: note_on channel=8 note=65 velocity=70 time=0.02083328125
EXTRACT: note_on channel=9 note=46 velocity=61 time=0
EXTRACT: note_on channel=9 note=35 velocity=113 time=0
EXTRACT: note_on channel=9 note=54 velocity=30 time=0
EXTRACT: note_on channel=11 note=61 velocity=69 time=0.0013888854166666665
EXTRACT: note_on channel=3 note=73 velocity=111 time=0
EXTRACT: control_change channel=15 control=11 value=107 time=0.016666624999999997
EXTRACT: note_on channel=9 note=46 velocity=0 time=0.009722197916666666
EXTRACT: note_on channel=9 note=35 velocity=0 time=0
EXTRACT: note_on channel=9 note=54 velocity=0 time=0
EXTRACT: control_change channel=15 control=11 value=103 time=0.03194436458333333
EXTRACT: control_change channel=15 control=11 value=99 time=0.0416665625
EXTRACT: control_change channel=15 control=11 value=95 time=0.0416665625
EXTRACT: control_change channel=15 control=11 value=91 time=0.048610989583333326
EXTRACT: note_on channel=15 note=58 velocity=0 time=0.029166593749999997
EXTRACT: note_on channel=3 note=73 velocity=0 time=0.009722197916666666
EXTRACT: note_on channel=15 note=54 velocity=0 time=0.029166593749999997
EXTRACT: note_on channel=13 note=70 velocity=0 time=0.033333249999999995
EXTRACT: control_change channel=2 control=64 value=0 time=0.005555541666666666
EXTRACT: note_on channel=13 note=66 velocity=0 time=0.006944427083333333
EXTRACT: control_change channel=15 control=11 value=127 time=0.004166656249999999
EXTRACT: note_on channel=11 note=49 velocity=68 time=0.013888854166666666
EXTRACT: note_on channel=1 note=25 velocity=114 time=0.006944427083333333
EXTRACT: note_on channel=9 note=46 velocity=79 time=0
EXTRACT: note_on channel=9 note=35 velocity=121 time=0
EXTRACT: note_on channel=9 note=54 velocity=49 time=0
EXTRACT: note_on channel=13 note=68 velocity=39 time=0
EXTRACT: note_on channel=15 note=41 velocity=45 time=0
EXTRACT: note_on channel=2 note=41 velocity=57 time=0
EXTRACT: note_on channel=3 note=75 velocity=111 time=0
EXTRACT: note_on channel=13 note=65 velocity=35 time=0.008333312499999999
EXTRACT: control_change channel=2 control=64 value=100 time=0.008333312499999999
EXTRACT: note_on channel=9 note=46 velocity=0 time=0.009722197916666666
EXTRACT: note_on channel=9 note=35 velocity=0 time=0
EXTRACT: note_on channel=9 note=54 velocity=0 time=0.0013888854166666665
EXTRACT: note_on channel=2 note=41 velocity=0 time=0.15555516666666666
EXTRACT: note_on channel=8 note=61 velocity=0 time=0.05138876041666666
EXTRACT: note_on channel=3 note=75 velocity=0 time=0.05277764583333333
EXTRACT: note_on channel=15 note=41 velocity=0 time=0.033333249999999995
EXTRACT: note_on channel=8 note=61 velocity=71 time=0.008333312499999999
EXTRACT: note_on channel=9 note=46 velocity=61 time=0
EXTRACT: note_on channel=9 note=54 velocity=37 time=0
EXTRACT: note_on channel=15 note=49 velocity=31 time=0
EXTRACT: note_on channel=3 note=73 velocity=111 time=0
EXTRACT: note_on channel=2 note=49 velocity=43 time=0.002777770833333333
EXTRACT: note_on channel=9 note=46 velocity=0 time=0.02361105208333333
EXTRACT: note_on channel=9 note=54 velocity=0 time=0
EXTRACT: note_on channel=2 note=49 velocity=0 time=0.02083328125
EXTRACT: note_on channel=8 note=65 velocity=0 time=0.10416640625
EXTRACT: note_on channel=3 note=73 velocity=0 time=0.05277764583333333
EXTRACT: note_on channel=11 note=61 velocity=0 time=0.02777770833333333
EXTRACT: note_on channel=11 note=49 velocity=0 time=0.07083315624999999
EXTRACT: note_on channel=1 note=25 velocity=0 time=0.015277739583333332
EXTRACT: note_on channel=15 note=49 velocity=0 time=0.006944427083333333
EXTRACT: note_on channel=9 note=46 velocity=79 time=0.004166656249999999
EXTRACT: note_on channel=9 note=54 velocity=47 time=0
EXTRACT: note_on channel=15 note=53 velocity=37 time=0
EXTRACT: note_on channel=15 note=56 velocity=52 time=0
EXTRACT: note_on channel=3 note=70 velocity=111 time=0
EXTRACT: note_on channel=9 note=39 velocity=113 time=0
EXTRACT: note_on channel=11 note=56 velocity=79 time=0
EXTRACT: note_on channel=9 note=28 velocity=69 time=0.006944427083333333
EXTRACT: note_on channel=9 note=85 velocity=79 time=0
EXTRACT: note_on channel=8 note=65 velocity=88 time=0.0013888854166666665
EXTRACT: note_on channel=2 note=56 velocity=75 time=0.004166656249999999
EXTRACT: note_on channel=2 note=53 velocity=55 time=0.002777770833333333
EXTRACT: note_on channel=9 note=46 velocity=0 time=0.012499968749999998
EXTRACT: note_on channel=9 note=54 velocity=0 time=0.0013888854166666665
EXTRACT: note_on channel=9 note=39 velocity=0 time=0.002777770833333333
EXTRACT: note_on channel=9 note=28 velocity=0 time=0.006944427083333333
EXTRACT: note_on channel=9 note=85 velocity=0 time=0
EXTRACT: note_on channel=2 note=56 velocity=0 time=0
EXTRACT: note_on channel=9 note=85 velocity=127 time=0.009722197916666666
EXTRACT: note_on channel=9 note=85 velocity=0 time=0.03194436458333333
EXTRACT: control_change channel=15 control=11 value=126 time=0.03472213541666666
EXTRACT: note_on channel=8 note=65 velocity=0 time=0.02777770833333333
EXTRACT: control_change channel=15 control=11 value=123 time=0.013888854166666666
EXTRACT: note_on channel=8 note=66 velocity=66 time=0.005555541666666666
EXTRACT: note_on channel=3 note=70 velocity=0 time=0.024999937499999996
EXTRACT: control_change channel=15 control=11 value=118 time=0.011111083333333332
EXTRACT: note_on channel=8 note=61 velocity=0 time=0.03749990625
EXTRACT: control_change channel=15 control=11 value=114 time=0.004166656249999999
EXTRACT: control_change channel=15 control=11 value=111 time=0.0416665625
EXTRACT: control_change channel=15 control=11 value=106 time=0.0416665625
EXTRACT: note_on channel=1 note=25 velocity=120 time=0.006944427083333333
EXTRACT: note_on channel=9 note=46 velocity=62 time=0
EXTRACT: note_on channel=9 note=35 velocity=114 time=0
EXTRACT: note_on channel=9 note=54 velocity=37 time=0
EXTRACT: note_on channel=2 note=49 velocity=39 time=0.004166656249999999
EXTRACT: note_on channel=8 note=61 velocity=75 time=0.002777770833333333
EXTRACT: note_on channel=3 note=70 velocity=111 time=0
EXTRACT: note_on channel=15 note=37 velocity=40 time=0.009722197916666666
EXTRACT: note_on channel=9 note=46 velocity=0 time=0.011111083333333332
EXTRACT: note_on channel=9 note=35 velocity=0 time=0
EXTRACT: note_on channel=9 note=54 velocity=0 time=0
EXTRACT: control_change channel=15 control=11 value=103 time=0.004166656249999999
EXTRACT: note_on channel=2 note=49 velocity=0 time=0.016666624999999997
EXTRACT: note_on channel=15 note=56 velocity=0 time=0.02083328125
EXTRACT: control_change channel=15 control=11 value=98 time=0.004166656249999999
EXTRACT: control_change channel=15 control=11 value=95 time=0.0416665625
EXTRACT: control_change channel=15 control=11 value=90 time=0.048610989583333326
EXTRACT: note_on channel=15 note=53 velocity=0 time=0.0749998125
EXTRACT: note_on channel=13 note=61 velocity=0 time=0.029166593749999997
EXTRACT: note_on channel=15 note=37 velocity=0 time=0.009722197916666666
EXTRACT: control_change channel=2 control=64 value=0 time=0
EXTRACT: note_on channel=11 note=56 velocity=0 time=0.011111083333333332
EXTRACT: note_on channel=8 note=66 velocity=0 time=0.009722197916666666
EXTRACT: note_on channel=13 note=68 velocity=0 time=0.008333312499999999
EXTRACT: note_on channel=13 note=70 velocity=45 time=0.009722197916666666
EXTRACT: note_on channel=13 note=65 velocity=0 time=0.002777770833333333
EXTRACT: control_change channel=15 control=11 value=126 time=0.004166656249999999
EXTRACT: note_on channel=9 note=54 velocity=42 time=0.005555541666666666
EXTRACT: note_on channel=1 note=27 velocity=118 time=0.0013888854166666665
EXTRACT: note_on channel=9 note=46 velocity=77 time=0
EXTRACT: note_on channel=9 note=35 velocity=120 time=0
EXTRACT: note_on channel=11 note=51 velocity=66 time=0
EXTRACT: note_on channel=13 note=63 velocity=37 time=0
EXTRACT: note_on channel=15 note=39 velocity=41 time=0
EXTRACT: note_on channel=1 note=25 velocity=0 time=0.002777770833333333
EXTRACT: note_on channel=2 note=39 velocity=53 time=0.0013888854166666665
EXTRACT: note_on channel=8 note=58 velocity=53 time=0
EXTRACT: control_change channel=2 control=64 value=100 time=0.016666624999999997
EXTRACT: note_on channel=13 note=66 velocity=37 time=0.002777770833333333
EXTRACT: note_on channel=9 note=54 velocity=0 time=0.006944427083333333
EXTRACT: note_on channel=9 note=46 velocity=0 time=0
EXTRACT: note_on channel=9 note=35 velocity=0 time=0
EXTRACT: note_on channel=2 note=39 velocity=0 time=0.12499968749999998
EXTRACT: note_on channel=8 note=61 velocity=0 time=0.1361107708333333
EXTRACT: note_on channel=15 note=39 velocity=0 time=0.033333249999999995
EXTRACT: note_on channel=9 note=46 velocity=65 time=0.008333312499999999
EXTRACT: note_on channel=9 note=54 velocity=29 time=0
EXTRACT: note_on channel=11 note=61 velocity=62 time=0
EXTRACT: note_on channel=15 note=54 velocity=31 time=0
EXTRACT: note_on channel=8 note=66 velocity=75 time=0.004166656249999999
EXTRACT: note_on channel=2 note=54 velocity=45 time=0.002777770833333333
EXTRACT: note_on channel=2 note=54 velocity=0 time=0.013888854166666666
EXTRACT: note_on channel=9 note=46 velocity=0 time=0.009722197916666666
EXTRACT: note_on channel=9 note=54 velocity=0 time=0
EXTRACT: note_on channel=8 note=58 velocity=0 time=0.26666599999999996
EXTRACT: note_on channel=15 note=54 velocity=0 time=0.02361105208333333
EXTRACT: note_on channel=11 note=51 velocity=0 time=0.0013888854166666665
EXTRACT: note_on channel=8 note=61 velocity=70 time=0.006944427083333333
EXTRACT: note_on channel=9 note=46 velocity=77 time=0.004166656249999999
EXTRACT: note_on channel=9 note=54 velocity=44 time=0
EXTRACT: note_on channel=11 note=54 velocity=73 time=0
EXTRACT: note_on channel=15 note=58 velocity=42 time=0
EXTRACT: note_on channel=15 note=61 velocity=52 time=0
EXTRACT: note_on channel=9 note=39 velocity=116 time=0.002777770833333333
EXTRACT: note_on channel=2 note=58 velocity=61 time=0.004166656249999999
EXTRACT: note_on channel=9 note=28 velocity=74 time=0.002777770833333333
EXTRACT: note_on channel=9 note=85 velocity=79 time=0
EXTRACT: note_on channel=2 note=61 velocity=75 time=0.016666624999999997
EXTRACT: note_on channel=9 note=46 velocity=0 time=0.004166656249999999
EXTRACT: note_on channel=9 note=54 velocity=0 time=0
EXTRACT: note_on channel=9 note=39 velocity=0 time=0.004166656249999999
EXTRACT: note_on channel=9 note=28 velocity=0 time=0.006944427083333333
EXTRACT: note_on channel=9 note=85 velocity=0 time=0
EXTRACT: note_on channel=2 note=61 velocity=0 time=0
EXTRACT: note_on channel=2 note=58 velocity=0 time=0.009722197916666666
EXTRACT: note_on channel=9 note=85 velocity=127 time=0
EXTRACT: note_on channel=1 note=27 velocity=0 time=0.02083328125
EXTRACT: note_on channel=9 note=85 velocity=0 time=0.011111083333333332
EXTRACT: control_change channel=15 control=11 value=127 time=0.083333125
EXTRACT: note_on channel=3 note=70 velocity=0 time=0.006944427083333333
EXTRACT: note_on channel=11 note=61 velocity=0 time=0.002777770833333333
EXTRACT: control_change channel=15 control=11 value=123 time=0.03194436458333333
EXTRACT: control_change channel=15 control=11 value=119 time=0.0416665625
EXTRACT: control_change channel=15 control=11 value=114 time=0.0416665625
EXTRACT: note_on channel=8 note=61 velocity=0 time=0.033333249999999995
EXTRACT: note_on channel=8 note=59 velocity=70 time=0.004166656249999999
EXTRACT: note_on channel=1 note=34 velocity=121 time=0.004166656249999999
EXTRACT: note_on channel=9 note=46 velocity=51 time=0
EXTRACT: note_on channel=9 note=54 velocity=34 time=0
EXTRACT: note_on channel=9 note=35 velocity=112 time=0
EXTRACT: note_on channel=11 note=61 velocity=53 time=0
EXTRACT: control_change channel=15 control=11 value=110 time=0
EXTRACT: note_on channel=9 note=46 velocity=0 time=0.030555479166666663
EXTRACT: note_on channel=9 note=54 velocity=0 time=0
EXTRACT: note_on channel=9 note=35 velocity=0 time=0
EXTRACT: control_change channel=15 control=11 value=106 time=0.011111083333333332
EXTRACT: control_change channel=15 control=11 value=102 time=0.0416665625
EXTRACT: control_change channel=15 control=11 value=99 time=0.0416665625
EXTRACT: note_on channel=8 note=66 velocity=0 time=0.02777770833333333
EXTRACT: control_change channel=15 control=11 value=94 time=0.013888854166666666
EXTRACT: control_change channel=15 control=11 value=90 time=0.048610989583333326
EXTRACT: note_on channel=15 note=61 velocity=0 time=0.018055510416666663
EXTRACT: note_on channel=13 note=70 velocity=0 time=0.02083328125
EXTRACT: note_on channel=11 note=54 velocity=0 time=0.03194436458333333
EXTRACT: note_on channel=15 note=58 velocity=0 time=0.008333312499999999
EXTRACT: note_on channel=13 note=71 velocity=43 time=0.015277739583333332
EXTRACT: control_change channel=2 control=64 value=0 time=0.002777770833333333
EXTRACT: note_on channel=1 note=34 velocity=0 time=0.009722197916666666
EXTRACT: note_on channel=11 note=61 velocity=0 time=0
EXTRACT: note_on channel=8 note=66 velocity=68 time=0.006944427083333333
EXTRACT: note_on channel=1 note=35 velocity=120 time=0.004166656249999999
EXTRACT: note_on channel=9 note=46 velocity=75 time=0
EXTRACT: note_on channel=9 note=35 velocity=120 time=0
EXTRACT: note_on channel=9 note=54 velocity=44 time=0
EXTRACT: note_on channel=11 note=59 velocity=73 time=0
EXTRACT: note_on channel=15 note=47 velocity=39 time=0
EXTRACT: control_change channel=15 control=11 value=127 time=0
EXTRACT: note_on channel=2 note=47 velocity=65 time=0.004166656249999999
EXTRACT: control_change channel=2 control=64 value=100 time=0.005555541666666666
EXTRACT: note_on channel=9 note=46 velocity=0 time=0.02083328125
EXTRACT: note_on channel=9 note=35 velocity=0 time=0
EXTRACT: note_on channel=9 note=54 velocity=0 time=0
EXTRACT: note_on channel=2 note=47 velocity=0 time=0.1569440520833333
EXTRACT: note_on channel=8 note=59 velocity=0 time=0.07222204166666665
EXTRACT: note_on channel=11 note=59 velocity=0 time=0.05138876041666666
EXTRACT: note_on channel=15 note=47 velocity=0 time=0.013888854166666666
EXTRACT: note_on channel=8 note=59 velocity=62 time=0.002777770833333333
EXTRACT: note_on channel=11 note=61 velocity=72 time=0.004166656249999999
EXTRACT: note_on channel=9 note=46 velocity=48 time=0.0013888854166666665
EXTRACT: note_on channel=9 note=54 velocity=30 time=0
EXTRACT: note_on channel=15 note=51 velocity=31 time=0
EXTRACT: note_on channel=2 note=51 velocity=49 time=0.006944427083333333
EXTRACT: note_on channel=9 note=46 velocity=0 time=0.02361105208333333
EXTRACT: note_on channel=9 note=54 velocity=0 time=0
EXTRACT: note_on channel=2 note=51 velocity=0 time=0.02083328125
EXTRACT: note_on channel=8 note=66 velocity=0 time=0.2083328125
EXTRACT: note_on channel=15 note=51 velocity=0 time=0.05138876041666666
EXTRACT: note_on channel=8 note=66 velocity=71 time=0.018055510416666663
EXTRACT: note_on channel=2 note=54 velocity=61 time=0.0013888854166666665
EXTRACT: note_on channel=11 note=61 velocity=0 time=0.002777770833333333
EXTRACT: note_on channel=9 note=46 velocity=75 time=0
EXTRACT: note_on channel=9 note=54 velocity=46 time=0
EXTRACT: note_on channel=11 note=59 velocity=74 time=0
EXTRACT: note_on channel=15 note=54 velocity=43 time=0
EXTRACT: note_on channel=15 note=59 velocity=52 time=0
EXTRACT: note_on channel=9 note=39 velocity=117 time=0.002777770833333333
EXTRACT: note_on channel=2 note=59 velocity=75 time=0.002777770833333333
EXTRACT: note_on channel=9 note=28 velocity=74 time=0.004166656249999999
EXTRACT: note_on channel=9 note=85 velocity=72 time=0
EXTRACT: note_on channel=2 note=59 velocity=0 time=0.011111083333333332
EXTRACT: note_on channel=2 note=54 velocity=0 time=0.009722197916666666
EXTRACT: note_on channel=9 note=46 velocity=0 time=0
EXTRACT: note_on channel=9 note=54 velocity=0 time=0
EXTRACT: note_on channel=9 note=39 velocity=0 time=0.004166656249999999
EXTRACT: note_on channel=9 note=28 velocity=0 time=0.006944427083333333
EXTRACT: note_on channel=9 note=85 velocity=0 time=0
EXTRACT: note_on channel=9 note=85 velocity=127 time=0.009722197916666666
EXTRACT: note_on channel=9 note=85 velocity=0 time=0.03194436458333333
EXTRACT: control_change channel=15 control=11 value=127 time=0.05555541666666666
EXTRACT: control_change channel=15 control=11 value=122 time=0.0416665625
EXTRACT: control_change channel=15 control=11 value=118 time=0.0416665625
EXTRACT: note_on channel=8 note=59 velocity=0 time=0.006944427083333333
EXTRACT: note_on channel=1 note=35 velocity=0 time=0.030555479166666663
EXTRACT: control_change channel=15 control=11 value=115 time=0.004166656249999999
EXTRACT: control_change channel=15 control=11 value=110 time=0.0416665625
EXTRACT: note_on channel=8 note=59 velocity=70 time=0.02361105208333333
EXTRACT: note_on channel=9 note=54 velocity=30 time=0.002777770833333333
EXTRACT: note_on channel=9 note=46 velocity=58 time=0.0013888854166666665
EXTRACT: note_on channel=9 note=35 velocity=110 time=0
EXTRACT: note_on channel=11 note=54 velocity=48 time=0.005555541666666666
EXTRACT: control_change channel=15 control=11 value=106 time=0.008333312499999999
EXTRACT: note_on channel=9 note=54 velocity=0 time=0.016666624999999997
EXTRACT: note_on channel=9 note=46 velocity=0 time=0
EXTRACT: note_on channel=9 note=35 velocity=0 time=0
EXTRACT: control_change channel=15 control=11 value=103 time=0.024999937499999996
EXTRACT: control_change channel=15 control=11 value=99 time=0.0416665625
EXTRACT: note_on channel=15 note=54 velocity=0 time=0.016666624999999997
EXTRACT: control_change channel=15 control=11 value=94 time=0.024999937499999996
EXTRACT: note_on channel=15 note=54 velocity=41 time=0.02777770833333333
EXTRACT: note_on channel=2 note=54 velocity=47 time=0.018055510416666663
EXTRACT: note_on channel=15 note=59 velocity=0 time=0.006944427083333333
EXTRACT: note_on channel=2 note=54 velocity=0 time=0.026388822916666665
EXTRACT: note_on channel=13 note=66 velocity=0 time=0.06666649999999999
EXTRACT: note_on channel=13 note=63 velocity=0 time=0.013888854166666666
EXTRACT: note_on channel=11 note=59 velocity=0 time=0.0013888854166666665
EXTRACT: control_change channel=15 control=11 value=127 time=0.005555541666666666
EXTRACT: note_on channel=13 note=71 velocity=0 time=0.004166656249999999
EXTRACT: note_on channel=8 note=59 velocity=0 time=0.002777770833333333
EXTRACT: control_change channel=2 control=64 value=0 time=0
EXTRACT: note_on channel=11 note=54 velocity=0 time=0.005555541666666666
EXTRACT: note_on channel=13 note=70 velocity=43 time=0.0013888854166666665
EXTRACT: note_on channel=13 note=66 velocity=32 time=0.009722197916666666
EXTRACT: note_on channel=8 note=66 velocity=0 time=0.004166656249999999
EXTRACT: note_on channel=1 note=30 velocity=122 time=0
EXTRACT: note_on channel=8 note=61 velocity=68 time=0
EXTRACT: note_on channel=9 note=46 velocity=76 time=0
EXTRACT: note_on channel=9 note=54 velocity=47 time=0
EXTRACT: note_on channel=9 note=35 velocity=125 time=0
EXTRACT: note_on channel=13 note=73 velocity=42 time=0
EXTRACT: note_on channel=15 note=42 velocity=45 time=0
EXTRACT: note_on channel=2 note=42 velocity=57 time=0.004166656249999999
EXTRACT: note_on channel=11 note=54 velocity=66 time=0.0013888854166666665
EXTRACT: note_on channel=9 note=46 velocity=0 time=0.024999937499999996
EXTRACT: note_on channel=9 note=54 velocity=0 time=0
EXTRACT: note_on channel=9 note=35 velocity=0 time=0
EXTRACT: control_change channel=2 control=64 value=100 time=0
EXTRACT: note_on channel=2 note=42 velocity=0 time=0.12499968749999998
EXTRACT: note_on channel=15 note=54 velocity=0 time=0.10416640625
EXTRACT: note_on channel=15 note=42 velocity=0 time=0.05416653125
EXTRACT: note_on channel=8 note=66 velocity=75 time=0.015277739583333332
EXTRACT: note_on channel=2 note=49 velocity=45 time=0.0013888854166666665
EXTRACT: note_on channel=9 note=46 velocity=55 time=0.002777770833333333
EXTRACT: note_on channel=9 note=54 velocity=27 time=0
EXTRACT: note_on channel=15 note=49 velocity=31 time=0
EXTRACT: note_on channel=11 note=58 velocity=75 time=0.006944427083333333
EXTRACT: note_on channel=2 note=49 velocity=0 time=0.002777770833333333
EXTRACT: note_on channel=9 note=46 velocity=0 time=0.02083328125
EXTRACT: note_on channel=9 note=54 velocity=0 time=0
EXTRACT: note_on channel=8 note=61 velocity=0 time=0.12083303124999999
EXTRACT: note_on channel=15 note=49 velocity=0 time=0.13194411458333333
EXTRACT: note_on channel=11 note=54 velocity=0 time=0.008333312499999999
EXTRACT: note_on channel=8 note=61 velocity=71 time=0.03749990625
EXTRACT: note_on channel=9 note=46 velocity=78 time=0.004166656249999999
EXTRACT: note_on channel=9 note=54 velocity=47 time=0
EXTRACT: note_on channel=15 note=54 velocity=53 time=0
EXTRACT: note_on channel=15 note=58 velocity=52 time=0
EXTRACT: note_on channel=11 note=54 velocity=68 time=0.0013888854166666665
EXTRACT: note_on channel=9 note=39 velocity=117 time=0.0013888854166666665
EXTRACT: note_on channel=9 note=85 velocity=77 time=0.006944427083333333
EXTRACT: note_on channel=9 note=28 velocity=75 time=0
EXTRACT: note_on channel=2 note=58 velocity=47 time=0.005555541666666666
EXTRACT: note_on channel=2 note=54 velocity=78 time=0.002777770833333333
EXTRACT: note_on channel=9 note=46 velocity=0 time=0.012499968749999998
EXTRACT: note_on channel=9 note=54 velocity=0 time=0.0013888854166666665
EXTRACT: note_on channel=9 note=39 velocity=0 time=0.002777770833333333
EXTRACT: note_on channel=9 note=85 velocity=0 time=0.006944427083333333
EXTRACT: note_on channel=9 note=28 velocity=0 time=0
EXTRACT: note_on channel=2 note=54 velocity=0 time=0.009722197916666666
EXTRACT: note_on channel=9 note=85 velocity=127 time=0
EXTRACT: note_on channel=2 note=58 velocity=0 time=0.03194436458333333
EXTRACT: note_on channel=9 note=85 velocity=0 time=0
EXTRACT: note_on channel=1 note=30 velocity=0 time=0.030555479166666663
EXTRACT: control_change channel=15 control=11 value=127 time=0.03194436458333333
EXTRACT: control_change channel=15 control=11 value=122 time=0.0416665625
EXTRACT: control_change channel=15 control=11 value=119 time=0.0416665625
EXTRACT: note_on channel=8 note=66 velocity=0 time=0.005555541666666666
EXTRACT: control_change channel=15 control=11 value=115 time=0.03611102083333333
EXTRACT: note_on channel=11 note=54 velocity=0 time=0.02361105208333333
EXTRACT: note_on channel=11 note=58 velocity=0 time=0.006944427083333333
EXTRACT: control_change channel=15 control=11 value=111 time=0.011111083333333332
EXTRACT: note_on channel=1 note=25 velocity=115 time=0.02083328125
EXTRACT: note_on channel=8 note=65 velocity=70 time=0
EXTRACT: note_on channel=9 note=46 velocity=61 time=0
EXTRACT: note_on channel=9 note=35 velocity=111 time=0
EXTRACT: note_on channel=9 note=54 velocity=30 time=0
EXTRACT: note_on channel=11 note=61 velocity=68 time=0.0013888854166666665
EXTRACT: control_change channel=15 control=11 value=107 time=0.019444395833333333
EXTRACT: note_on channel=9 note=46 velocity=0 time=0.009722197916666666
EXTRACT: note_on channel=9 note=35 velocity=0 time=0
EXTRACT: note_on channel=9 note=54 velocity=0 time=0
EXTRACT: control_change channel=15 control=11 value=103 time=0.03194436458333333
EXTRACT: control_change channel=15 control=11 value=99 time=0.0416665625
EXTRACT: control_change channel=15 control=11 value=95 time=0.0416665625
EXTRACT: note_on channel=15 note=58 velocity=0 time=0.024999937499999996
EXTRACT: control_change channel=15 control=11 value=91 time=0.02361105208333333
EXTRACT: note_on channel=15 note=54 velocity=0 time=0.016666624999999997
EXTRACT: note_on channel=1 note=25 velocity=0 time=0.0416665625
EXTRACT: note_on channel=13 note=70 velocity=0 time=0.04305544791666666
EXTRACT: control_change channel=2 control=64 value=0 time=0.005555541666666666
EXTRACT: note_on channel=13 note=68 velocity=47 time=0.004166656249999999
EXTRACT: note_on channel=13 note=66 velocity=0 time=0.002777770833333333
EXTRACT: control_change channel=15 control=11 value=127 time=0.004166656249999999
EXTRACT: note_on channel=11 note=49 velocity=69 time=0.013888854166666666
EXTRACT: control_change channel=2 control=64 value=100 time=0
EXTRACT: note_on channel=1 note=25 velocity=115 time=0.006944427083333333
EXTRACT: note_on channel=2 note=56 velocity=74 time=0
EXTRACT: note_on channel=2 note=49 velocity=42 time=0
EXTRACT: note_on channel=2 note=41 velocity=57 time=0
EXTRACT: note_on channel=9 note=46 velocity=79 time=0
EXTRACT: note_on channel=9 note=35 velocity=125 time=0
EXTRACT: note_on channel=9 note=54 velocity=49 time=0
EXTRACT: note_on channel=2 note=41 velocity=0 time=0.005555541666666666
EXTRACT: note_on channel=2 note=49 velocity=0 time=0.004166656249999999
EXTRACT: note_on channel=13 note=65 velocity=34 time=0.002777770833333333
EXTRACT: note_on channel=15 note=56 velocity=61 time=0.008333312499999999
EXTRACT: note_on channel=2 note=56 velocity=0 time=0.004166656249999999
EXTRACT: note_on channel=9 note=46 velocity=0 time=0.005555541666666666
EXTRACT: note_on channel=9 note=35 velocity=0 time=0
EXTRACT: note_on channel=9 note=54 velocity=0 time=0.0013888854166666665
EXTRACT: note_on channel=8 note=61 velocity=0 time=0.2069439270833333
EXTRACT: note_on channel=1 note=25 velocity=0 time=0.013888854166666666
EXTRACT: note_on channel=1 note=25 velocity=114 time=0.08055535416666666
EXTRACT: note_on channel=8 note=61 velocity=70 time=0
EXTRACT: note_on channel=9 note=46 velocity=69 time=0
EXTRACT: note_on channel=9 note=35 velocity=81 time=0
EXTRACT: note_on channel=9 note=54 velocity=37 time=0
EXTRACT: control_change channel=15 control=11 value=127 time=0.006944427083333333
EXTRACT: note_on channel=9 note=46 velocity=0 time=0.02361105208333333
EXTRACT: note_on channel=9 note=35 velocity=0 time=0
EXTRACT: note_on channel=9 note=54 velocity=0 time=0
EXTRACT: control_change channel=15 control=11 value=123 time=0.018055510416666663
EXTRACT: control_change channel=15 control=11 value=119 time=0.0416665625
EXTRACT: control_change channel=15 control=11 value=115 time=0.0416665625
EXTRACT: note_on channel=8 note=65 velocity=0 time=0.02361105208333333
EXTRACT: control_change channel=15 control=11 value=111 time=0.018055510416666663
EXTRACT: control_change channel=15 control=11 value=107 time=0.0416665625
EXTRACT: note_on channel=11 note=61 velocity=0 time=0.02083328125
EXTRACT: note_on channel=1 note=25 velocity=0 time=0.002777770833333333
EXTRACT: control_change channel=15 control=11 value=103 time=0.018055510416666663
EXTRACT: control_change channel=15 control=11 value=99 time=0.0416665625
EXTRACT: note_on channel=11 note=49 velocity=0 time=0.008333312499999999
EXTRACT: note_on channel=3 note=66 velocity=111 time=0
EXTRACT: note_on channel=1 note=25 velocity=114 time=0.0013888854166666665
EXTRACT: note_on channel=9 note=46 velocity=79 time=0
EXTRACT: note_on channel=9 note=54 velocity=47 time=0
EXTRACT: note_on channel=8 note=65 velocity=87 time=0.0013888854166666665
EXTRACT: note_on channel=9 note=39 velocity=111 time=0.0013888854166666665
EXTRACT: note_on channel=11 note=56 velocity=79 time=0
EXTRACT: control_change channel=15 control=11 value=95 time=0.004166656249999999
EXTRACT: note_on channel=9 note=85 velocity=75 time=0.002777770833333333
EXTRACT: note_on channel=9 note=28 velocity=97 time=0
EXTRACT: note_on channel=9 note=46 velocity=0 time=0.02083328125
EXTRACT: note_on channel=9 note=54 velocity=0 time=0.0013888854166666665
EXTRACT: note_on channel=9 note=39 velocity=0 time=0.002777770833333333
EXTRACT: note_on channel=9 note=85 velocity=0 time=0.006944427083333333
EXTRACT: note_on channel=9 note=28 velocity=0 time=0
EXTRACT: note_on channel=9 note=85 velocity=127 time=0.009722197916666666
EXTRACT: control_change channel=15 control=11 value=91 time=0.004166656249999999
EXTRACT: note_on channel=9 note=85 velocity=0 time=0.02777770833333333
EXTRACT: note_on channel=8 note=65 velocity=0 time=0.06249984374999999
EXTRACT: note_on channel=8 note=66 velocity=72 time=0.008333312499999999
EXTRACT: note_on channel=15 note=56 velocity=0 time=0.04305544791666666
EXTRACT: note_on channel=8 note=61 velocity=0 time=0.0416665625
EXTRACT: note_on channel=1 note=25 velocity=0 time=0
EXTRACT: note_on channel=3 note=66 velocity=0 time=0.015277739583333332
EXTRACT: control_change channel=15 control=11 value=127 time=0.04444433333333333
EXTRACT: note_on channel=3 note=68 velocity=111 time=0
EXTRACT: note_on channel=1 note=25 velocity=115 time=0.006944427083333333
EXTRACT: note_on channel=2 note=49 velocity=29 time=0
EXTRACT: note_on channel=9 note=46 velocity=63 time=0
EXTRACT: note_on channel=9 note=35 velocity=117 time=0
EXTRACT: note_on channel=9 note=54 velocity=37 time=0
EXTRACT: note_on channel=15 note=56 velocity=53 time=0
EXTRACT: note_on channel=8 note=61 velocity=74 time=0.006944427083333333
EXTRACT: note_on channel=2 note=56 velocity=57 time=0.008333312499999999
EXTRACT: note_on channel=9 note=46 velocity=0 time=0.015277739583333332
EXTRACT: note_on channel=9 note=35 velocity=0 time=0
EXTRACT: note_on channel=9 note=54 velocity=0 time=0
EXTRACT: note_on channel=2 note=56 velocity=0 time=0.011111083333333332
EXTRACT: note_on channel=15 note=56 velocity=0 time=0.13472188541666666
EXTRACT: note_on channel=3 note=68 velocity=0 time=0.029166593749999997
EXTRACT: control_change channel=2 control=64 value=0 time=0.0749998125
EXTRACT: note_on channel=13 note=68 velocity=0 time=0.0013888854166666665
EXTRACT: note_on channel=11 note=56 velocity=0 time=0.009722197916666666
EXTRACT: note_on channel=8 note=66 velocity=0 time=0.015277739583333332
EXTRACT: note_on channel=13 note=70 velocity=44 time=0.012499968749999998
EXTRACT: note_on channel=13 note=63 velocity=35 time=0.0013888854166666665
EXTRACT: note_on channel=13 note=73 velocity=0 time=0.0013888854166666665
EXTRACT: note_on channel=1 note=25 velocity=0 time=0
EXTRACT: note_on channel=13 note=65 velocity=0 time=0
EXTRACT: note_on channel=3 note=70 velocity=111 time=0
EXTRACT: note_on channel=9 note=54 velocity=43 time=0.004166656249999999
EXTRACT: note_on channel=1 note=27 velocity=118 time=0.0013888854166666665
EXTRACT: note_on channel=9 note=46 velocity=77 time=0
EXTRACT: note_on channel=9 note=35 velocity=120 time=0
EXTRACT: note_on channel=11 note=51 velocity=66 time=0
EXTRACT: note_on channel=15 note=39 velocity=41 time=0
EXTRACT: note_on channel=2 note=39 velocity=52 time=0.004166656249999999
EXTRACT: note_on channel=8 note=58 velocity=55 time=0
EXTRACT: control_change channel=2 control=64 value=100 time=0.016666624999999997
EXTRACT: note_on channel=13 note=66 velocity=36 time=0.002777770833333333
EXTRACT: note_on channel=9 note=54 velocity=0 time=0.006944427083333333
EXTRACT: note_on channel=9 note=46 velocity=0 time=0
EXTRACT: note_on channel=9 note=35 velocity=0 time=0
EXTRACT: note_on channel=2 note=39 velocity=0 time=0.12499968749999998
EXTRACT: note_on channel=3 note=70 velocity=0 time=0.083333125
EXTRACT: note_on channel=8 note=61 velocity=0 time=0.07361092708333332
EXTRACT: note_on channel=15 note=39 velocity=0 time=0.012499968749999998
EXTRACT: note_on channel=3 note=70 velocity=111 time=0
EXTRACT: note_on channel=9 note=46 velocity=64 time=0.002777770833333333
EXTRACT: note_on channel=9 note=54 velocity=29 time=0
EXTRACT: note_on channel=11 note=61 velocity=62 time=0
EXTRACT: note_on channel=15 note=54 velocity=31 time=0
EXTRACT: note_on channel=8 note=66 velocity=75 time=0.004166656249999999
EXTRACT: note_on channel=2 note=54 velocity=47 time=0.002777770833333333
EXTRACT: note_on channel=2 note=54 velocity=0 time=0.013888854166666666
EXTRACT: note_on channel=9 note=46 velocity=0 time=0.009722197916666666
EXTRACT: note_on channel=9 note=54 velocity=0 time=0
EXTRACT: note_on channel=3 note=70 velocity=0 time=0.14861073958333332
EXTRACT: note_on channel=8 note=58 velocity=0 time=0.07638869791666666
EXTRACT: note_on channel=15 note=54 velocity=0 time=0.06527761458333332
EXTRACT: note_on channel=1 note=27 velocity=0 time=0.0013888854166666665
EXTRACT: note_on channel=11 note=51 velocity=0 time=0
EXTRACT: note_on channel=3 note=70 velocity=111 time=0
EXTRACT: note_on channel=8 note=61 velocity=70 time=0
EXTRACT: note_on channel=9 note=46 velocity=77 time=0.004166656249999999
EXTRACT: note_on channel=9 note=54 velocity=44 time=0
EXTRACT: note_on channel=11 note=54 velocity=73 time=0
EXTRACT: note_on channel=15 note=58 velocity=43 time=0
EXTRACT: note_on channel=15 note=61 velocity=53 time=0
EXTRACT: note_on channel=9 note=39 velocity=112 time=0.002777770833333333
EXTRACT: note_on channel=2 note=58 velocity=60 time=0.004166656249999999
EXTRACT: note_on channel=9 note=85 velocity=78 time=0.002777770833333333
EXTRACT: note_on channel=9 note=28 velocity=69 time=0
EXTRACT: note_on channel=2 note=61 velocity=75 time=0.016666624999999997
EXTRACT: note_on channel=9 note=46 velocity=0 time=0.004166656249999999
EXTRACT: note_on channel=9 note=54 velocity=0 time=0
EXTRACT: note_on channel=9 note=39 velocity=0 time=0.004166656249999999
EXTRACT: note_on channel=9 note=85 velocity=0 time=0.006944427083333333
EXTRACT: note_on channel=9 note=28 velocity=0 time=0
EXTRACT: note_on channel=2 note=61 velocity=0 time=0
EXTRACT: note_on channel=2 note=58 velocity=0 time=0.009722197916666666
EXTRACT: note_on channel=9 note=85 velocity=127 time=0
EXTRACT: note_on channel=9 note=85 velocity=0 time=0.03194436458333333
EXTRACT: control_change channel=15 control=11 value=127 time=0.083333125
EXTRACT: note_on channel=11 note=61 velocity=0 time=0.009722197916666666
EXTRACT: control_change channel=15 control=11 value=123 time=0.03194436458333333
EXTRACT: control_change channel=15 control=11 value=118 time=0.0416665625
EXTRACT: note_on channel=3 note=70 velocity=0 time=0.015277739583333332
EXTRACT: control_change channel=15 control=11 value=115 time=0.026388822916666665
EXTRACT: note_on channel=8 note=61 velocity=0 time=0.033333249999999995
EXTRACT: note_on channel=3 note=71 velocity=111 time=0
EXTRACT: note_on channel=8 note=59 velocity=71 time=0.004166656249999999
EXTRACT: note_on channel=1 note=34 velocity=120 time=0.004166656249999999
EXTRACT: note_on channel=9 note=46 velocity=51 time=0
EXTRACT: note_on channel=9 note=54 velocity=34 time=0
EXTRACT: note_on channel=9 note=35 velocity=110 time=0
EXTRACT: note_on channel=11 note=61 velocity=64 time=0
EXTRACT: control_change channel=15 control=11 value=110 time=0
EXTRACT: note_on channel=9 note=46 velocity=0 time=0.030555479166666663
EXTRACT: note_on channel=9 note=54 velocity=0 time=0
EXTRACT: note_on channel=9 note=35 velocity=0 time=0
EXTRACT: control_change channel=15 control=11 value=106 time=0.011111083333333332
EXTRACT: control_change channel=15 control=11 value=103 time=0.0416665625
EXTRACT: control_change channel=15 control=11 value=98 time=0.0416665625
EXTRACT: note_on channel=8 note=66 velocity=0 time=0.02777770833333333
EXTRACT: control_change channel=15 control=11 value=95 time=0.013888854166666666
EXTRACT: note_on channel=15 note=61 velocity=0 time=0.0416665625
EXTRACT: control_change channel=15 control=11 value=90 time=0.006944427083333333
EXTRACT: note_on channel=3 note=71 velocity=0 time=0.012499968749999998
EXTRACT: note_on channel=13 note=70 velocity=0 time=0.026388822916666665
EXTRACT: note_on channel=15 note=58 velocity=0 time=0.026388822916666665
EXTRACT: note_on channel=11 note=54 velocity=0 time=0.005555541666666666
EXTRACT: note_on channel=13 note=71 velocity=43 time=0.02361105208333333
EXTRACT: control_change channel=2 control=64 value=0 time=0.002777770833333333
EXTRACT: note_on channel=1 note=34 velocity=0 time=0.009722197916666666
EXTRACT: note_on channel=11 note=61 velocity=0 time=0
EXTRACT: note_on channel=3 note=70 velocity=111 time=0
EXTRACT: note_on channel=8 note=66 velocity=69 time=0
EXTRACT: note_on channel=1 note=35 velocity=121 time=0.004166656249999999
EXTRACT: note_on channel=9 note=46 velocity=74 time=0
EXTRACT: note_on channel=9 note=35 velocity=121 time=0
EXTRACT: note_on channel=9 note=54 velocity=45 time=0
EXTRACT: note_on channel=11 note=59 velocity=72 time=0
EXTRACT: note_on channel=15 note=47 velocity=39 time=0
EXTRACT: control_change channel=15 control=11 value=127 time=0
EXTRACT: note_on channel=2 note=47 velocity=64 time=0.004166656249999999
EXTRACT: control_change channel=2 control=64 value=100 time=0.005555541666666666
EXTRACT: note_on channel=9 note=46 velocity=0 time=0.02083328125
EXTRACT: note_on channel=9 note=35 velocity=0 time=0
EXTRACT: note_on channel=9 note=54 velocity=0 time=0
EXTRACT: note_on channel=3 note=70 velocity=0 time=0.10416640625
EXTRACT: note_on channel=3 note=68 velocity=111 time=0.03749990625
EXTRACT: note_on channel=2 note=47 velocity=0 time=0.015277739583333332
EXTRACT: note_on channel=8 note=59 velocity=0 time=0.07222204166666665
EXTRACT: note_on channel=3 note=68 velocity=0 time=0.03194436458333333
EXTRACT: note_on channel=11 note=59 velocity=0 time=0.019444395833333333
EXTRACT: note_on channel=15 note=47 velocity=0 time=0.013888854166666666
EXTRACT: note_on channel=8 note=59 velocity=62 time=0.002777770833333333
EXTRACT: note_on channel=3 note=66 velocity=110 time=0.0013888854166666665
EXTRACT: note_on channel=11 note=61 velocity=73 time=0.002777770833333333
EXTRACT: note_on channel=9 note=46 velocity=48 time=0.0013888854166666665
EXTRACT: note_on channel=9 note=54 velocity=30 time=0
EXTRACT: note_on channel=15 note=51 velocity=31 time=0
EXTRACT: note_on channel=2 note=51 velocity=42 time=0.006944427083333333
EXTRACT: note_on channel=9 note=46 velocity=0 time=0.02361105208333333
EXTRACT: note_on channel=9 note=54 velocity=0 time=0
EXTRACT: note_on channel=2 note=51 velocity=0 time=0.02083328125
EXTRACT: note_on channel=3 note=66 velocity=0 time=0.17777733333333332
EXTRACT: note_on channel=8 note=66 velocity=0 time=0.030555479166666663
EXTRACT: note_on channel=15 note=51 velocity=0 time=0.05138876041666666
EXTRACT: note_on channel=8 note=66 velocity=71 time=0.018055510416666663
EXTRACT: note_on channel=2 note=54 velocity=71 time=0.0013888854166666665
EXTRACT: note_on channel=11 note=61 velocity=0 time=0.002777770833333333
EXTRACT: note_on channel=9 note=46 velocity=74 time=0
EXTRACT: note_on channel=9 note=54 velocity=46 time=0
EXTRACT: note_on channel=11 note=59 velocity=75 time=0
EXTRACT: note_on channel=15 note=54 velocity=43 time=0
EXTRACT: note_on channel=15 note=59 velocity=53 time=0
EXTRACT: note_on channel=9 note=39 velocity=115 time=0.002777770833333333
EXTRACT: note_on channel=2 note=59 velocity=75 time=0.002777770833333333
EXTRACT: note_on channel=9 note=85 velocity=78 time=0.004166656249999999
EXTRACT: note_on channel=9 note=28 velocity=72 time=0
EXTRACT: note_on channel=2 note=59 velocity=0 time=0.011111083333333332
EXTRACT: note_on channel=2 note=54 velocity=0 time=0.009722197916666666
EXTRACT: note_on channel=9 note=46 velocity=0 time=0
EXTRACT: note_on channel=9 note=54 velocity=0 time=0
EXTRACT: note_on channel=9 note=39 velocity=0 time=0.004166656249999999
EXTRACT: note_on channel=9 note=85 velocity=0 time=0.006944427083333333
EXTRACT: note_on channel=9 note=28 velocity=0 time=0
EXTRACT: note_on channel=9 note=85 velocity=127 time=0.009722197916666666
EXTRACT: note_on channel=9 note=85 velocity=0 time=0.03194436458333333
EXTRACT: control_change channel=15 control=11 value=126 time=0.05555541666666666
EXTRACT: control_change channel=15 control=11 value=122 time=0.0416665625
EXTRACT: control_change channel=15 control=11 value=119 time=0.0416665625
EXTRACT: note_on channel=8 note=59 velocity=0 time=0.006944427083333333
EXTRACT: control_change channel=15 control=11 value=115 time=0.03472213541666666
EXTRACT: control_change channel=15 control=11 value=111 time=0.0416665625
EXTRACT: note_on channel=1 note=35 velocity=0 time=0.016666624999999997
EXTRACT: note_on channel=8 note=59 velocity=71 time=0.006944427083333333
EXTRACT: note_on channel=9 note=54 velocity=30 time=0.002777770833333333
EXTRACT: note_on channel=9 note=46 velocity=58 time=0.0013888854166666665
EXTRACT: note_on channel=9 note=35 velocity=113 time=0
EXTRACT: note_on channel=3 note=66 velocity=111 time=0
EXTRACT: note_on channel=11 note=54 velocity=48 time=0.004166656249999999
EXTRACT: note_on channel=2 note=49 velocity=35 time=0.0013888854166666665
EXTRACT: control_change channel=15 control=11 value=106 time=0.006944427083333333
EXTRACT: note_on channel=9 note=54 velocity=0 time=0.016666624999999997
EXTRACT: note_on channel=9 note=46 velocity=0 time=0
EXTRACT: note_on channel=9 note=35 velocity=0 time=0
EXTRACT: note_on channel=2 note=49 velocity=0 time=0.02083328125
EXTRACT: control_change channel=15 control=11 value=102 time=0.004166656249999999
EXTRACT: control_change channel=15 control=11 value=98 time=0.0416665625
EXTRACT: control_change channel=15 control=11 value=94 time=0.0416665625
EXTRACT: note_on channel=15 note=59 velocity=0 time=0.02777770833333333
EXTRACT: control_change channel=15 control=11 value=91 time=0.02083328125
EXTRACT: note_on channel=3 note=66 velocity=0 time=0.0416665625
EXTRACT: note_on channel=13 note=63 velocity=0 time=0.013888854166666666
EXTRACT: note_on channel=15 note=54 velocity=0 time=0.02777770833333333
EXTRACT: note_on channel=13 note=66 velocity=0 time=0.013888854166666666
EXTRACT: note_on channel=11 note=59 velocity=0 time=0.015277739583333332
EXTRACT: control_change channel=15 control=11 value=126 time=0.005555541666666666
EXTRACT: note_on channel=13 note=71 velocity=0 time=0.004166656249999999
EXTRACT: note_on channel=8 note=59 velocity=0 time=0.002777770833333333
EXTRACT: control_change channel=2 control=64 value=0 time=0
EXTRACT: note_on channel=11 note=54 velocity=0 time=0.005555541666666666
EXTRACT: note_on channel=13 note=70 velocity=42 time=0.0013888854166666665
EXTRACT: note_on channel=3 note=70 velocity=110 time=0
EXTRACT: note_on channel=13 note=66 velocity=32 time=0.008333312499999999
EXTRACT: note_on channel=8 note=66 velocity=0 time=0.004166656249999999
EXTRACT: note_on channel=8 note=61 velocity=69 time=0
EXTRACT: note_on channel=9 note=46 velocity=76 time=0
EXTRACT: note_on channel=9 note=54 velocity=47 time=0
EXTRACT: note_on channel=9 note=35 velocity=124 time=0
EXTRACT: note_on channel=15 note=42 velocity=45 time=0
EXTRACT: note_on channel=13 note=61 velocity=31 time=0.0013888854166666665
EXTRACT: note_on channel=2 note=42 velocity=56 time=0.002777770833333333
EXTRACT: note_on channel=11 note=54 velocity=67 time=0.0013888854166666665
EXTRACT: note_on channel=1 note=30 velocity=123 time=0.0013888854166666665
EXTRACT: note_on channel=9 note=46 velocity=0 time=0.02361105208333333
EXTRACT: note_on channel=9 note=54 velocity=0 time=0
EXTRACT: note_on channel=9 note=35 velocity=0 time=0
EXTRACT: control_change channel=2 control=64 value=100 time=0
EXTRACT: note_on channel=2 note=42 velocity=0 time=0.12499968749999998
EXTRACT: note_on channel=3 note=70 velocity=0 time=0.083333125
EXTRACT: note_on channel=1 note=30 velocity=0 time=0.02777770833333333
EXTRACT: note_on channel=15 note=42 velocity=0 time=0.04722210416666666
EXTRACT: note_on channel=3 note=70 velocity=110 time=0
EXTRACT: note_on channel=8 note=66 velocity=75 time=0.005555541666666666
EXTRACT: note_on channel=2 note=49 velocity=48 time=0
EXTRACT: note_on channel=1 note=30 velocity=122 time=0.002777770833333333
EXTRACT: note_on channel=9 note=46 velocity=54 time=0
EXTRACT: note_on channel=9 note=54 velocity=27 time=0
EXTRACT: note_on channel=15 note=49 velocity=31 time=0
EXTRACT: note_on channel=11 note=58 velocity=75 time=0.006944427083333333
EXTRACT: note_on channel=2 note=49 velocity=0 time=0.002777770833333333
EXTRACT: note_on channel=9 note=46 velocity=0 time=0.02083328125
EXTRACT: note_on channel=9 note=54 velocity=0 time=0
EXTRACT: note_on channel=8 note=61 velocity=0 time=0.12083303124999999
EXTRACT: note_on channel=3 note=70 velocity=0 time=0.015277739583333332
EXTRACT: note_on channel=11 note=54 velocity=0 time=0.12499968749999998
EXTRACT: note_on channel=8 note=61 velocity=71 time=0.03749990625
EXTRACT: note_on channel=9 note=46 velocity=79 time=0.004166656249999999
EXTRACT: note_on channel=9 note=54 velocity=47 time=0
EXTRACT: note_on channel=15 note=54 velocity=59 time=0
EXTRACT: note_on channel=15 note=58 velocity=45 time=0
EXTRACT: note_on channel=11 note=54 velocity=68 time=0.0013888854166666665
EXTRACT: note_on channel=9 note=39 velocity=114 time=0.0013888854166666665
EXTRACT: note_on channel=15 note=49 velocity=0 time=0.002777770833333333
EXTRACT: note_on channel=9 note=85 velocity=79 time=0.004166656249999999
EXTRACT: note_on channel=9 note=28 velocity=73 time=0
EXTRACT: note_on channel=2 note=58 velocity=50 time=0
EXTRACT: note_on channel=3 note=70 velocity=111 time=0
EXTRACT: note_on channel=2 note=54 velocity=68 time=0.002777770833333333
EXTRACT: note_on channel=9 note=46 velocity=0 time=0.012499968749999998
EXTRACT: note_on channel=9 note=54 velocity=0 time=0.0013888854166666665
EXTRACT: note_on channel=9 note=39 velocity=0 time=0.002777770833333333
EXTRACT: note_on channel=9 note=85 velocity=0 time=0.006944427083333333
EXTRACT: note_on channel=9 note=28 velocity=0 time=0
EXTRACT: note_on channel=2 note=54 velocity=0 time=0.009722197916666666
EXTRACT: note_on channel=9 note=85 velocity=126 time=0
EXTRACT: note_on channel=2 note=58 velocity=0 time=0.03194436458333333
EXTRACT: note_on channel=9 note=85 velocity=0 time=0
EXTRACT: note_on channel=1 note=30 velocity=0 time=0.030555479166666663
EXTRACT: control_change channel=15 control=11 value=126 time=0.03194436458333333
EXTRACT: control_change channel=15 control=11 value=123 time=0.0416665625
EXTRACT: control_change channel=15 control=11 value=119 time=0.0416665625
EXTRACT: note_on channel=8 note=66 velocity=0 time=0.005555541666666666
EXTRACT: control_change channel=15 control=11 value=114 time=0.03611102083333333
EXTRACT: note_on channel=3 note=70 velocity=0 time=0.009722197916666666
EXTRACT: note_on channel=11 note=54 velocity=0 time=0.013888854166666666
EXTRACT: note_on channel=11 note=58 velocity=0 time=0.006944427083333333
EXTRACT: control_change channel=15 control=11 value=110 time=0.011111083333333332
EXTRACT: note_on channel=1 note=25 velocity=103 time=0.02083328125
EXTRACT: note_on channel=8 note=65 velocity=71 time=0
EXTRACT: note_on channel=9 note=46 velocity=61 time=0
EXTRACT: note_on channel=9 note=35 velocity=113 time=0
EXTRACT: note_on channel=9 note=54 velocity=30 time=0
EXTRACT: note_on channel=11 note=61 velocity=69 time=0.0013888854166666665
EXTRACT: note_on channel=3 note=70 velocity=110 time=0
EXTRACT: control_change channel=15 control=11 value=107 time=0.013888854166666666
EXTRACT: note_on channel=9 note=46 velocity=0 time=0.009722197916666666
EXTRACT: note_on channel=9 note=35 velocity=0 time=0
EXTRACT: note_on channel=9 note=54 velocity=0 time=0
EXTRACT: control_change channel=15 control=11 value=102 time=0.03194436458333333
EXTRACT: note_on channel=1 note=25 velocity=0 time=0.009722197916666666
EXTRACT: control_change channel=15 control=11 value=98 time=0.03194436458333333
EXTRACT: control_change channel=15 control=11 value=95 time=0.0416665625
EXTRACT: control_change channel=15 control=11 value=91 time=0.048610989583333326
EXTRACT: note_on channel=3 note=70 velocity=0 time=0.002777770833333333
EXTRACT: note_on channel=15 note=58 velocity=0 time=0.02083328125
EXTRACT: note_on channel=13 note=70 velocity=0 time=0.07777758333333333
EXTRACT: control_change channel=2 control=64 value=0 time=0.005555541666666666
EXTRACT: note_on channel=13 note=68 velocity=39 time=0.004166656249999999
EXTRACT: note_on channel=15 note=54 velocity=0 time=0.0013888854166666665
EXTRACT: note_on channel=13 note=66 velocity=0 time=0.0013888854166666665
EXTRACT: control_change channel=15 control=11 value=126 time=0.004166656249999999
EXTRACT: note_on channel=11 note=49 velocity=69 time=0.013888854166666666
EXTRACT: note_on channel=3 note=70 velocity=111 time=0
EXTRACT: note_on channel=1 note=25 velocity=123 time=0.0013888854166666665
EXTRACT: note_on channel=9 note=46 velocity=79 time=0
EXTRACT: note_on channel=9 note=35 velocity=121 time=0
EXTRACT: note_on channel=9 note=54 velocity=49 time=0
EXTRACT: note_on channel=2 note=41 velocity=57 time=0.004166656249999999
EXTRACT: note_on channel=13 note=65 velocity=34 time=0.008333312499999999
EXTRACT: note_on channel=15 note=56 velocity=29 time=0.008333312499999999
EXTRACT: control_change channel=2 control=64 value=100 time=0
EXTRACT: note_on channel=9 note=46 velocity=0 time=0.009722197916666666
EXTRACT: note_on channel=9 note=35 velocity=0 time=0
EXTRACT: note_on channel=9 note=54 velocity=0 time=0.0013888854166666665
EXTRACT: note_on channel=2 note=56 velocity=74 time=0.004166656249999999
EXTRACT: note_on channel=2 note=53 velocity=54 time=0.002777770833333333
EXTRACT: note_on channel=2 note=56 velocity=0 time=0.02361105208333333
EXTRACT: note_on channel=2 note=41 velocity=0 time=0.12499968749999998
EXTRACT: note_on channel=8 note=61 velocity=0 time=0.05138876041666666
EXTRACT: note_on channel=1 note=25 velocity=0 time=0.02083328125
EXTRACT: note_on channel=3 note=70 velocity=0 time=0.03194436458333333
EXTRACT: note_on channel=3 note=68 velocity=110 time=0
EXTRACT: note_on channel=8 note=61 velocity=71 time=0
EXTRACT: note_on channel=9 note=46 velocity=61 time=0
EXTRACT: note_on channel=9 note=54 velocity=37 time=0
EXTRACT: note_on channel=1 note=25 velocity=122 time=0.006944427083333333
EXTRACT: note_on channel=9 note=46 velocity=0 time=0.02361105208333333
EXTRACT: note_on channel=9 note=54 velocity=0 time=0
EXTRACT: note_on channel=8 note=65 velocity=0 time=0.12499968749999998
EXTRACT: note_on channel=3 note=68 velocity=0 time=0.03194436458333333
EXTRACT: note_on channel=11 note=61 velocity=0 time=0.048610989583333326
EXTRACT: note_on channel=11 note=49 velocity=0 time=0.07083315624999999
EXTRACT: note_on channel=3 note=68 velocity=111 time=0
EXTRACT: note_on channel=9 note=46 velocity=79 time=0.015277739583333332
EXTRACT: note_on channel=9 note=54 velocity=47 time=0
EXTRACT: note_on channel=9 note=39 velocity=113 time=0.002777770833333333
EXTRACT: note_on channel=11 note=56 velocity=79 time=0
EXTRACT: note_on channel=9 note=85 velocity=73 time=0.006944427083333333
EXTRACT: note_on channel=9 note=28 velocity=69 time=0
EXTRACT: note_on channel=8 note=65 velocity=89 time=0.0013888854166666665
EXTRACT: note_on channel=9 note=46 velocity=0 time=0.019444395833333333
EXTRACT: note_on channel=9 note=54 velocity=0 time=0.0013888854166666665
EXTRACT: note_on channel=9 note=39 velocity=0 time=0.002777770833333333
EXTRACT: note_on channel=9 note=85 velocity=0 time=0.006944427083333333
EXTRACT: note_on channel=9 note=28 velocity=0 time=0
EXTRACT: note_on channel=9 note=85 velocity=127 time=0.009722197916666666
EXTRACT: note_on channel=1 note=25 velocity=0 time=0.02083328125
EXTRACT: note_on channel=9 note=85 velocity=0 time=0.011111083333333332
EXTRACT: control_change channel=15 control=11 value=127 time=0.03472213541666666
EXTRACT: note_on channel=8 note=65 velocity=0 time=0.02777770833333333
EXTRACT: control_change channel=15 control=11 value=123 time=0.013888854166666666
EXTRACT: note_on channel=8 note=66 velocity=67 time=0.005555541666666666
EXTRACT: control_change channel=15 control=11 value=118 time=0.03611102083333333
EXTRACT: note_on channel=8 note=61 velocity=0 time=0.03749990625
EXTRACT: control_change channel=15 control=11 value=115 time=0.004166656249999999
EXTRACT: control_change channel=15 control=11 value=111 time=0.0416665625
EXTRACT: note_on channel=3 note=68 velocity=0 time=0.006944427083333333
EXTRACT: note_on channel=3 note=66 velocity=110 time=0.033333249999999995
EXTRACT: control_change channel=15 control=11 value=107 time=0.0013888854166666665
EXTRACT: note_on channel=1 note=25 velocity=121 time=0.006944427083333333
EXTRACT: note_on channel=9 note=46 velocity=61 time=0
EXTRACT: note_on channel=9 note=35 velocity=115 time=0
EXTRACT: note_on channel=9 note=54 velocity=37 time=0
EXTRACT: note_on channel=2 note=49 velocity=43 time=0.006944427083333333
EXTRACT: note_on channel=8 note=61 velocity=77 time=0
EXTRACT: note_on channel=9 note=46 velocity=0 time=0.02361105208333333
EXTRACT: note_on channel=9 note=35 velocity=0 time=0
EXTRACT: note_on channel=9 note=54 velocity=0 time=0
EXTRACT: control_change channel=15 control=11 value=103 time=0.004166656249999999
EXTRACT: control_change channel=15 control=11 value=99 time=0.0416665625
EXTRACT: control_change channel=15 control=11 value=95 time=0.0416665625
EXTRACT: note_on channel=15 note=56 velocity=0 time=0.03749990625
EXTRACT: control_change channel=15 control=11 value=91 time=0.011111083333333332
EXTRACT: note_on channel=2 note=49 velocity=0 time=0.07222204166666665
EXTRACT: control_change channel=2 control=64 value=0 time=0.0416665625
EXTRACT: note_on channel=13 note=68 velocity=0 time=0.0013888854166666665
EXTRACT: note_on channel=13 note=61 velocity=0 time=0.002777770833333333
EXTRACT: note_on channel=11 note=56 velocity=0 time=0.006944427083333333
EXTRACT: note_on channel=8 note=66 velocity=0 time=0.005555541666666666
EXTRACT: note_on channel=13 note=70 velocity=44 time=0.022222166666666664
EXTRACT: note_on channel=13 note=65 velocity=0 time=0.002777770833333333
EXTRACT: control_change channel=15 control=11 value=127 time=0.004166656249999999
EXTRACT: note_on channel=1 note=27 velocity=119 time=0.006944427083333333
EXTRACT: note_on channel=9 note=46 velocity=77 time=0
EXTRACT: note_on channel=9 note=35 velocity=121 time=0
EXTRACT: note_on channel=11 note=51 velocity=67 time=0
EXTRACT: note_on channel=13 note=63 velocity=37 time=0
EXTRACT: note_on channel=15 note=39 velocity=41 time=0
EXTRACT: note_on channel=1 note=25 velocity=0 time=0.002777770833333333
EXTRACT: note_on channel=2 note=39 velocity=53 time=0.0013888854166666665
EXTRACT: note_on channel=8 note=58 velocity=61 time=0
EXTRACT: note_on channel=9 note=54 velocity=43 time=0.005555541666666666
EXTRACT: control_change channel=2 control=64 value=100 time=0.011111083333333332
EXTRACT: note_on channel=13 note=66 velocity=37 time=0.002777770833333333
EXTRACT: note_on channel=9 note=46 velocity=0 time=0.006944427083333333
EXTRACT: note_on channel=9 note=35 velocity=0 time=0
EXTRACT: note_on channel=9 note=54 velocity=0 time=0.011111083333333332
EXTRACT: note_on channel=2 note=39 velocity=0 time=0.11388860416666666
EXTRACT: note_on channel=8 note=61 velocity=0 time=0.16666625
EXTRACT: note_on channel=15 note=39 velocity=0 time=0.002777770833333333
EXTRACT: note_on channel=9 note=46 velocity=65 time=0.008333312499999999
EXTRACT: note_on channel=9 note=54 velocity=29 time=0
EXTRACT: note_on channel=11 note=61 velocity=63 time=0
EXTRACT: note_on channel=15 note=54 velocity=31 time=0
EXTRACT: note_on channel=8 note=66 velocity=75 time=0.004166656249999999
EXTRACT: note_on channel=2 note=54 velocity=46 time=0.002777770833333333
EXTRACT: note_on channel=2 note=54 velocity=0 time=0.013888854166666666
EXTRACT: note_on channel=9 note=46 velocity=0 time=0.009722197916666666
EXTRACT: note_on channel=9 note=54 velocity=0 time=0
EXTRACT: note_on channel=8 note=58 velocity=0 time=0.22499943749999998
EXTRACT: note_on channel=15 note=54 velocity=0 time=0.06527761458333332
EXTRACT: note_on channel=11 note=51 velocity=0 time=0.0013888854166666665
EXTRACT: note_on channel=8 note=61 velocity=71 time=0.006944427083333333
EXTRACT: note_on channel=9 note=46 velocity=77 time=0.004166656249999999
EXTRACT: note_on channel=9 note=54 velocity=45 time=0
EXTRACT: note_on channel=11 note=54 velocity=73 time=0
EXTRACT: note_on channel=15 note=58 velocity=43 time=0
EXTRACT: note_on channel=15 note=61 velocity=53 time=0
EXTRACT: note_on channel=9 note=39 velocity=116 time=0.002777770833333333
EXTRACT: note_on channel=2 note=58 velocity=60 time=0.004166656249999999
EXTRACT: note_on channel=9 note=85 velocity=76 time=0.002777770833333333
EXTRACT: note_on channel=9 note=28 velocity=75 time=0
EXTRACT: note_on channel=2 note=61 velocity=73 time=0.016666624999999997
EXTRACT: note_on channel=9 note=46 velocity=0 time=0.004166656249999999
EXTRACT: note_on channel=9 note=54 velocity=0 time=0
EXTRACT: note_on channel=9 note=39 velocity=0 time=0.004166656249999999
EXTRACT: note_on channel=9 note=85 velocity=0 time=0.006944427083333333
EXTRACT: note_on channel=9 note=28 velocity=0 time=0
EXTRACT: note_on channel=2 note=61 velocity=0 time=0
EXTRACT: note_on channel=2 note=58 velocity=0 time=0.009722197916666666
EXTRACT: note_on channel=9 note=85 velocity=126 time=0
EXTRACT: note_on channel=1 note=27 velocity=0 time=0.02083328125
EXTRACT: note_on channel=9 note=85 velocity=0 time=0.011111083333333332
EXTRACT: control_change channel=15 control=11 value=127 time=0.083333125
EXTRACT: note_on channel=11 note=61 velocity=0 time=0.009722197916666666
EXTRACT: control_change channel=15 control=11 value=123 time=0.03194436458333333
EXTRACT: control_change channel=6 control=11 value=89 time=0.0416665625
EXTRACT: control_change channel=15 control=11 value=119 time=0
EXTRACT: control_change channel=15 control=11 value=115 time=0.0416665625
EXTRACT: note_on channel=8 note=61 velocity=0 time=0.033333249999999995
EXTRACT: note_on channel=8 note=59 velocity=71 time=0.004166656249999999
EXTRACT: note_on channel=1 note=34 velocity=121 time=0.004166656249999999
EXTRACT: note_on channel=6 note=58 velocity=99 time=0
EXTRACT: note_on channel=9 note=46 velocity=51 time=0
EXTRACT: note_on channel=9 note=54 velocity=34 time=0
EXTRACT: note_on channel=9 note=35 velocity=113 time=0
EXTRACT: note_on channel=11 note=61 velocity=53 time=0
EXTRACT: control_change channel=6 control=11 value=91 time=0
EXTRACT: control_change channel=15 control=11 value=111 time=0
EXTRACT: note_on channel=9 note=46 velocity=0 time=0.030555479166666663
EXTRACT: note_on channel=9 note=54 velocity=0 time=0
EXTRACT: note_on channel=9 note=35 velocity=0 time=0
EXTRACT: control_change channel=15 control=11 value=107 time=0.011111083333333332
EXTRACT: control_change channel=6 control=11 value=95 time=0.0416665625
EXTRACT: control_change channel=15 control=11 value=103 time=0
EXTRACT: control_change channel=15 control=11 value=99 time=0.0416665625
EXTRACT: note_on channel=8 note=66 velocity=0 time=0.02777770833333333
EXTRACT: control_change channel=6 control=11 value=97 time=0.013888854166666666
EXTRACT: control_change channel=15 control=11 value=95 time=0
EXTRACT: control_change channel=15 control=11 value=91 time=0.048610989583333326
EXTRACT: control_change channel=6 control=11 value=99 time=0.03472213541666666
EXTRACT: note_on channel=13 note=70 velocity=0 time=0.004166656249999999
EXTRACT: note_on channel=11 note=54 velocity=0 time=0.03194436458333333
EXTRACT: note_on channel=15 note=61 velocity=0 time=0.012499968749999998
EXTRACT: note_on channel=13 note=71 velocity=43 time=0.011111083333333332
EXTRACT: control_change channel=2 control=64 value=0 time=0.002777770833333333
EXTRACT: note_on channel=1 note=34 velocity=0 time=0.009722197916666666
EXTRACT: note_on channel=6 note=58 velocity=0 time=0
EXTRACT: note_on channel=11 note=61 velocity=0 time=0
EXTRACT: note_on channel=8 note=66 velocity=69 time=0.006944427083333333
EXTRACT: note_on channel=1 note=35 velocity=121 time=0.004166656249999999
EXTRACT: note_on channel=6 note=59 velocity=99 time=0
EXTRACT: note_on channel=6 note=66 velocity=85 time=0
EXTRACT: note_on channel=9 note=46 velocity=74 time=0
EXTRACT: note_on channel=9 note=35 velocity=121 time=0
EXTRACT: note_on channel=9 note=54 velocity=44 time=0
EXTRACT: note_on channel=11 note=59 velocity=73 time=0
EXTRACT: note_on channel=15 note=47 velocity=39 time=0
EXTRACT: control_change channel=6 control=11 value=101 time=0
EXTRACT: control_change channel=15 control=11 value=127 time=0
EXTRACT: note_on channel=2 note=47 velocity=64 time=0.004166656249999999
EXTRACT: note_on channel=15 note=58 velocity=0 time=0.005555541666666666
EXTRACT: control_change channel=2 control=64 value=100 time=0
EXTRACT: note_on channel=9 note=46 velocity=0 time=0.02083328125
EXTRACT: note_on channel=9 note=35 velocity=0 time=0
EXTRACT: note_on channel=9 note=54 velocity=0 time=0
EXTRACT: note_on channel=3 note=66 velocity=0 time=0
EXTRACT: control_change channel=6 control=11 value=103 time=0.05277764583333333
EXTRACT: control_change channel=6 control=11 value=107 time=0.083333125
EXTRACT: note_on channel=2 note=47 velocity=0 time=0.02083328125
EXTRACT: control_change channel=6 control=11 value=109 time=0.06249984374999999
EXTRACT: note_on channel=8 note=59 velocity=0 time=0.009722197916666666
EXTRACT: note_on channel=11 note=59 velocity=0 time=0.05138876041666666
EXTRACT: note_on channel=15 note=47 velocity=0 time=0.013888854166666666
EXTRACT: note_on channel=8 note=59 velocity=63 time=0.002777770833333333
EXTRACT: note_on channel=11 note=61 velocity=73 time=0.004166656249999999
EXTRACT: note_on channel=9 note=46 velocity=48 time=0.0013888854166666665
EXTRACT: note_on channel=9 note=54 velocity=30 time=0
EXTRACT: note_on channel=15 note=51 velocity=31 time=0
EXTRACT: control_change channel=6 control=11 value=111 time=0
EXTRACT: note_on channel=2 note=51 velocity=42 time=0.006944427083333333
EXTRACT: control_change channel=1 control=101 value=0 time=0.006944427083333333
EXTRACT: note_on channel=9 note=46 velocity=0 time=0.016666624999999997
EXTRACT: note_on channel=9 note=54 velocity=0 time=0
EXTRACT: note_on channel=2 note=51 velocity=0 time=0.02083328125
EXTRACT: control_change channel=1 control=100 value=0 time=0.018055510416666663
EXTRACT: control_change channel=6 control=11 value=113 time=0.013888854166666666
EXTRACT: control_change channel=1 control=6 value=7 time=0.0416665625
EXTRACT: control_change channel=6 control=11 value=115 time=0.0416665625
EXTRACT: control_change channel=6 control=11 value=118 time=0.083333125
EXTRACT: note_on channel=8 note=66 velocity=0 time=0.009722197916666666
EXTRACT: note_on channel=15 note=51 velocity=0 time=0.05138876041666666
EXTRACT: note_on channel=8 note=66 velocity=71 time=0.018055510416666663
EXTRACT: note_on channel=2 note=54 velocity=61 time=0.0013888854166666665
EXTRACT: note_on channel=11 note=61 velocity=0 time=0.002777770833333333
EXTRACT: note_on channel=9 note=46 velocity=75 time=0
EXTRACT: note_on channel=9 note=54 velocity=47 time=0
EXTRACT: note_on channel=11 note=59 velocity=75 time=0
EXTRACT: note_on channel=15 note=54 velocity=43 time=0
EXTRACT: note_on channel=15 note=59 velocity=53 time=0
EXTRACT: control_change channel=6 control=11 value=121 time=0
EXTRACT: note_on channel=9 note=39 velocity=117 time=0.002777770833333333
EXTRACT: note_on channel=2 note=59 velocity=73 time=0.002777770833333333
EXTRACT: note_on channel=9 note=85 velocity=74 time=0.004166656249999999
EXTRACT: note_on channel=9 note=28 velocity=74 time=0
EXTRACT: note_on channel=2 note=59 velocity=0 time=0.011111083333333332
EXTRACT: note_on channel=2 note=54 velocity=0 time=0.009722197916666666
EXTRACT: note_on channel=9 note=46 velocity=0 time=0
EXTRACT: note_on channel=9 note=54 velocity=0 time=0
EXTRACT: note_on channel=9 note=39 velocity=0 time=0.004166656249999999
EXTRACT: note_on channel=9 note=85 velocity=0 time=0.006944427083333333
EXTRACT: note_on channel=9 note=28 velocity=0 time=0
EXTRACT: note_on channel=9 note=85 velocity=126 time=0.009722197916666666
EXTRACT: note_on channel=9 note=85 velocity=0 time=0.03194436458333333
EXTRACT: control_change channel=6 control=11 value=122 time=0
EXTRACT: control_change channel=15 control=11 value=127 time=0.05555541666666666
EXTRACT: control_change channel=6 control=11 value=126 time=0.02777770833333333
EXTRACT: control_change channel=15 control=11 value=123 time=0.013888854166666666
EXTRACT: control_change channel=15 control=11 value=119 time=0.0416665625
EXTRACT: note_on channel=8 note=59 velocity=0 time=0.006944427083333333
EXTRACT: note_on channel=1 note=35 velocity=0 time=0.030555479166666663
EXTRACT: control_change channel=15 control=11 value=114 time=0.004166656249999999
EXTRACT: control_change channel=15 control=11 value=111 time=0.0416665625
EXTRACT: note_on channel=8 note=59 velocity=71 time=0.02361105208333333
EXTRACT: note_on channel=9 note=54 velocity=30 time=0.002777770833333333
EXTRACT: note_on channel=9 note=46 velocity=59 time=0.0013888854166666665
EXTRACT: note_on channel=9 note=35 velocity=110 time=0
EXTRACT: note_on channel=1 note=35 velocity=101 time=0.004166656249999999
EXTRACT: note_on channel=11 note=54 velocity=49 time=0.0013888854166666665
EXTRACT: control_change channel=15 control=11 value=106 time=0.008333312499999999
EXTRACT: note_on channel=9 note=54 velocity=0 time=0.016666624999999997
EXTRACT: note_on channel=9 note=46 velocity=0 time=0
EXTRACT: note_on channel=9 note=35 velocity=0 time=0
EXTRACT: control_change channel=15 control=11 value=102 time=0.024999937499999996
EXTRACT: control_change channel=15 control=11 value=99 time=0.0416665625
EXTRACT: control_change channel=15 control=11 value=94 time=0.0416665625
EXTRACT: pitchwheel channel=1 pitch=1030 time=0.018055510416666663
EXTRACT: pitchwheel channel=1 pitch=2068 time=0.013888854166666666
EXTRACT: pitchwheel channel=1 pitch=2933 time=0.015277739583333332
EXTRACT: note_on channel=15 note=59 velocity=0 time=0.011111083333333332
EXTRACT: pitchwheel channel=1 pitch=4347 time=0.002777770833333333
EXTRACT: pitchwheel channel=1 pitch=4918 time=0.013888854166666666
EXTRACT: pitchwheel channel=1 pitch=5994 time=0.013888854166666666
EXTRACT: pitchwheel channel=1 pitch=7160 time=0.015277739583333332
EXTRACT: note_on channel=6 note=66 velocity=0 time=0.002777770833333333
EXTRACT: pitchwheel channel=1 pitch=8070 time=0.009722197916666666
EXTRACT: pitchwheel channel=1 pitch=8063 time=0.015277739583333332
EXTRACT: note_on channel=15 note=54 velocity=0 time=0.009722197916666666
EXTRACT: note_on channel=13 note=66 velocity=0 time=0.004166656249999999
EXTRACT: note_on channel=6 note=59 velocity=0 time=0.004166656249999999
EXTRACT: note_on channel=13 note=63 velocity=0 time=0.009722197916666666
EXTRACT: note_on channel=11 note=59 velocity=0 time=0.0013888854166666665
EXTRACT: control_change channel=15 control=11 value=127 time=0.005555541666666666
EXTRACT: note_on channel=13 note=71 velocity=0 time=0.004166656249999999
EXTRACT: note_on channel=8 note=59 velocity=0 time=0.002777770833333333
EXTRACT: control_change channel=2 control=64 value=0 time=0
EXTRACT: note_on channel=11 note=54 velocity=0 time=0.005555541666666666
EXTRACT: note_on channel=1 note=35 velocity=0 time=0
EXTRACT: note_on channel=13 note=70 velocity=42 time=0.0013888854166666665
EXTRACT: pitchwheel channel=1 pitch=17 time=0.008333312499999999
EXTRACT: note_on channel=13 note=66 velocity=32 time=0.0013888854166666665
EXTRACT: note_on channel=8 note=66 velocity=0 time=0.004166656249999999
EXTRACT: note_on channel=1 note=42 velocity=107 time=0
EXTRACT: note_on channel=6 note=58 velocity=97 time=0
EXTRACT: note_on channel=8 note=61 velocity=69 time=0
EXTRACT: note_on channel=9 note=46 velocity=76 time=0
EXTRACT: note_on channel=9 note=35 velocity=120 time=0
EXTRACT: note_on channel=13 note=73 velocity=42 time=0
EXTRACT: note_on channel=15 note=42 velocity=45 time=0
EXTRACT: note_on channel=6 note=61 velocity=99 time=0.002777770833333333
EXTRACT: note_on channel=2 note=42 velocity=56 time=0.0013888854166666665
EXTRACT: note_on channel=11 note=54 velocity=67 time=0.0013888854166666665
EXTRACT: note_on channel=9 note=54 velocity=43 time=0.004166656249999999
EXTRACT: note_on channel=9 note=46 velocity=0 time=0.02083328125
EXTRACT: note_on channel=9 note=35 velocity=0 time=0
EXTRACT: control_change channel=2 control=64 value=100 time=0
EXTRACT: note_on channel=9 note=54 velocity=0 time=0.011111083333333332
EXTRACT: note_on channel=2 note=42 velocity=0 time=0.11388860416666666
EXTRACT: note_on channel=1 note=42 velocity=0 time=0.1361107708333333
EXTRACT: note_on channel=15 note=42 velocity=0 time=0.022222166666666664
EXTRACT: note_on channel=8 note=66 velocity=75 time=0.015277739583333332
EXTRACT: note_on channel=2 note=49 velocity=43 time=0.0013888854166666665
EXTRACT: note_on channel=1 note=42 velocity=109 time=0.002777770833333333
EXTRACT: note_on channel=9 note=46 velocity=65 time=0
EXTRACT: note_on channel=9 note=54 velocity=29 time=0
EXTRACT: note_on channel=15 note=49 velocity=31 time=0
EXTRACT: note_on channel=11 note=58 velocity=75 time=0.006944427083333333
EXTRACT: note_on channel=2 note=49 velocity=0 time=0.002777770833333333
EXTRACT: note_on channel=9 note=46 velocity=0 time=0.02083328125
EXTRACT: note_on channel=9 note=54 velocity=0 time=0
EXTRACT: control_change channel=3 control=11 value=111 time=0.08055535416666666
EXTRACT: note_on channel=8 note=61 velocity=0 time=0.04027767708333333
EXTRACT: note_on channel=11 note=54 velocity=0 time=0.14027742708333332
EXTRACT: note_on channel=1 note=42 velocity=0 time=0
EXTRACT: note_on channel=8 note=61 velocity=71 time=0.03749990625
EXTRACT: note_on channel=1 note=42 velocity=105 time=0.004166656249999999
EXTRACT: note_on channel=9 note=46 velocity=76 time=0
EXTRACT: note_on channel=9 note=54 velocity=44 time=0
EXTRACT: note_on channel=15 note=54 velocity=43 time=0
EXTRACT: note_on channel=15 note=58 velocity=53 time=0
EXTRACT: note_on channel=11 note=54 velocity=69 time=0.0013888854166666665
EXTRACT: note_on channel=9 note=39 velocity=117 time=0.0013888854166666665
EXTRACT: note_on channel=15 note=49 velocity=0 time=0.002777770833333333
EXTRACT: note_on channel=9 note=85 velocity=78 time=0.004166656249999999
EXTRACT: note_on channel=9 note=28 velocity=74 time=0
EXTRACT: note_on channel=2 note=58 velocity=73 time=0.005555541666666666
EXTRACT: note_on channel=2 note=54 velocity=60 time=0.002777770833333333
EXTRACT: note_on channel=9 note=46 velocity=0 time=0.012499968749999998
EXTRACT: note_on channel=9 note=54 velocity=0 time=0
EXTRACT: note_on channel=9 note=39 velocity=0 time=0.004166656249999999
EXTRACT: note_on channel=9 note=85 velocity=0 time=0.006944427083333333
EXTRACT: note_on channel=9 note=28 velocity=0 time=0
EXTRACT: note_on channel=2 note=54 velocity=0 time=0.009722197916666666
EXTRACT: note_on channel=9 note=85 velocity=127 time=0
EXTRACT: note_on channel=2 note=58 velocity=0 time=0.03194436458333333
EXTRACT: note_on channel=9 note=85 velocity=0 time=0
EXTRACT: control_change channel=15 control=11 value=126 time=0.06249984374999999
EXTRACT: control_change channel=15 control=11 value=123 time=0.0416665625
EXTRACT: control_change channel=15 control=11 value=118 time=0.0416665625
EXTRACT: note_on channel=8 note=66 velocity=0 time=0.005555541666666666
EXTRACT: control_change channel=15 control=11 value=114 time=0.03611102083333333
EXTRACT: note_on channel=1 note=42 velocity=0 time=0.02083328125
EXTRACT: note_on channel=11 note=54 velocity=0 time=0.002777770833333333
EXTRACT: note_on channel=11 note=58 velocity=0 time=0.006944427083333333
EXTRACT: note_on channel=3 note=66 velocity=110 time=0
EXTRACT: control_change channel=15 control=11 value=111 time=0
EXTRACT: note_on channel=1 note=42 velocity=107 time=0.013888854166666666
EXTRACT: note_on channel=8 note=65 velocity=71 time=0
EXTRACT: note_on channel=9 note=46 velocity=51 time=0
EXTRACT: note_on channel=9 note=54 velocity=34 time=0
EXTRACT: note_on channel=9 note=35 velocity=113 time=0
EXTRACT: control_change channel=6 control=11 value=127 time=0
EXTRACT: note_on channel=11 note=61 velocity=69 time=0.0013888854166666665
EXTRACT: control_change channel=15 control=11 value=107 time=0.019444395833333333
EXTRACT: note_on channel=9 note=46 velocity=0 time=0.009722197916666666
EXTRACT: note_on channel=9 note=54 velocity=0 time=0
EXTRACT: note_on channel=9 note=35 velocity=0 time=0
EXTRACT: control_change channel=15 control=11 value=103 time=0.03194436458333333
EXTRACT: control_change channel=6 control=11 value=124 time=0.02083328125
EXTRACT: control_change channel=15 control=11 value=98 time=0.02083328125
EXTRACT: note_on channel=3 note=66 velocity=0 time=0.005555541666666666
EXTRACT: control_change channel=15 control=11 value=94 time=0.03611102083333333
EXTRACT: note_on channel=15 note=58 velocity=0 time=0.009722197916666666
EXTRACT: control_change channel=6 control=11 value=121 time=0.011111083333333332
EXTRACT: control_change channel=15 control=11 value=90 time=0.02777770833333333
EXTRACT: control_change channel=6 control=11 value=116 time=0.05555541666666666
EXTRACT: note_on channel=13 note=70 velocity=0 time=0.045833218749999995
EXTRACT: note_on channel=1 note=42 velocity=0 time=0.005555541666666666
EXTRACT: control_change channel=2 control=64 value=0 time=0
EXTRACT: note_on channel=13 note=68 velocity=38 time=0.004166656249999999
EXTRACT: note_on channel=15 note=54 velocity=0 time=0.0013888854166666665
EXTRACT: note_on channel=13 note=66 velocity=0 time=0.0013888854166666665
EXTRACT: control_change channel=15 control=11 value=126 time=0.004166656249999999
EXTRACT: note_on channel=3 note=66 velocity=111 time=0
EXTRACT: note_on channel=11 note=49 velocity=69 time=0.009722197916666666
EXTRACT: control_change channel=2 control=64 value=100 time=0
EXTRACT: note_on channel=6 note=58 velocity=0 time=0.006944427083333333
EXTRACT: note_on channel=1 note=41 velocity=107 time=0
EXTRACT: note_on channel=2 note=41 velocity=53 time=0
EXTRACT: note_on channel=2 note=53 velocity=55 time=0
EXTRACT: note_on channel=2 note=61 velocity=73 time=0
EXTRACT: note_on channel=6 note=56 velocity=91 time=0
EXTRACT: note_on channel=9 note=35 velocity=121 time=0
EXTRACT: note_on channel=9 note=43 velocity=101 time=0
EXTRACT: note_on channel=9 note=54 velocity=44 time=0
EXTRACT: note_on channel=15 note=41 velocity=35 time=0
EXTRACT: control_change channel=6 control=11 value=113 time=0
EXTRACT: note_on channel=2 note=41 velocity=0 time=0.005555541666666666
EXTRACT: note_on channel=13 note=65 velocity=34 time=0.006944427083333333
EXTRACT: note_on channel=15 note=56 velocity=46 time=0.008333312499999999
EXTRACT: note_on channel=2 note=61 velocity=0 time=0.004166656249999999
EXTRACT: note_on channel=9 note=35 velocity=0 time=0.005555541666666666
EXTRACT: note_on channel=9 note=43 velocity=0 time=0
EXTRACT: note_on channel=9 note=54 velocity=0 time=0
EXTRACT: control_change channel=6 control=11 value=110 time=0.05277764583333333
EXTRACT: control_change channel=6 control=11 value=106 time=0.083333125
EXTRACT: note_on channel=8 note=61 velocity=0 time=0.07222204166666665
EXTRACT: control_change channel=6 control=11 value=103 time=0.011111083333333332
EXTRACT: note_on channel=3 note=66 velocity=0 time=0.02083328125
EXTRACT: note_on channel=1 note=41 velocity=0 time=0.02361105208333333
EXTRACT: note_on channel=3 note=68 velocity=111 time=0
EXTRACT: note_on channel=1 note=41 velocity=111 time=0.011111083333333332
EXTRACT: note_on channel=8 note=61 velocity=70 time=0
EXTRACT: note_on channel=9 note=54 velocity=31 time=0
EXTRACT: control_change channel=6 control=11 value=99 time=0
EXTRACT: note_on channel=9 note=54 velocity=0 time=0.030555479166666663
EXTRACT: control_change channel=15 control=11 value=123 time=0.018055510416666663
EXTRACT: control_change channel=6 control=11 value=97 time=0.03472213541666666
EXTRACT: control_change channel=15 control=11 value=118 time=0.006944427083333333
EXTRACT: control_change channel=15 control=11 value=114 time=0.0416665625
EXTRACT: note_on channel=8 note=65 velocity=0 time=0.02361105208333333
EXTRACT: note_on channel=9 note=47 velocity=89 time=0.011111083333333332
EXTRACT: control_change channel=6 control=11 value=92 time=0
EXTRACT: control_change channel=15 control=11 value=111 time=0.006944427083333333
EXTRACT: note_on channel=9 note=47 velocity=0 time=0.02361105208333333
EXTRACT: control_change channel=15 control=11 value=107 time=0.018055510416666663
EXTRACT: note_on channel=11 note=61 velocity=0 time=0.02083328125
EXTRACT: note_on channel=3 note=68 velocity=0 time=0.006944427083333333
EXTRACT: control_change channel=6 control=11 value=88 time=0.006944427083333333
EXTRACT: control_change channel=15 control=11 value=102 time=0.006944427083333333
EXTRACT: note_on channel=1 note=41 velocity=0 time=0.03472213541666666
EXTRACT: control_change channel=15 control=11 value=98 time=0.006944427083333333
EXTRACT: note_on channel=11 note=49 velocity=0 time=0.008333312499999999
EXTRACT: note_on channel=3 note=70 velocity=111 time=0
EXTRACT: note_on channel=1 note=41 velocity=91 time=0.011111083333333332
EXTRACT: note_on channel=9 note=47 velocity=99 time=0
EXTRACT: note_on channel=9 note=54 velocity=47 time=0
EXTRACT: control_change channel=6 control=11 value=84 time=0
EXTRACT: note_on channel=8 note=65 velocity=87 time=0.0013888854166666665
EXTRACT: note_on channel=9 note=39 velocity=117 time=0.0013888854166666665
EXTRACT: note_on channel=11 note=56 velocity=79 time=0
EXTRACT: control_change channel=15 control=11 value=95 time=0.004166656249999999
EXTRACT: note_on channel=9 note=85 velocity=79 time=0.002777770833333333
EXTRACT: note_on channel=9 note=28 velocity=75 time=0
EXTRACT: note_on channel=9 note=47 velocity=0 time=0.02083328125
EXTRACT: note_on channel=9 note=54 velocity=0 time=0
EXTRACT: note_on channel=9 note=39 velocity=0 time=0.004166656249999999
EXTRACT: note_on channel=9 note=85 velocity=0 time=0.006944427083333333
EXTRACT: note_on channel=9 note=28 velocity=0 time=0
EXTRACT: note_on channel=9 note=85 velocity=127 time=0.009722197916666666
EXTRACT: control_change channel=15 control=11 value=90 time=0.004166656249999999
EXTRACT: note_on channel=9 note=85 velocity=0 time=0.02777770833333333
EXTRACT: control_change channel=6 control=11 value=82 time=0
EXTRACT: note_on channel=8 note=65 velocity=0 time=0.06249984374999999
EXTRACT: note_on channel=8 note=66 velocity=72 time=0.008333312499999999
EXTRACT: note_on channel=15 note=41 velocity=0 time=0.0013888854166666665
EXTRACT: control_change channel=6 control=11 value=79 time=0.011111083333333332
EXTRACT: note_on channel=15 note=56 velocity=0 time=0.07222204166666665
EXTRACT: note_on channel=8 note=61 velocity=0 time=0
EXTRACT: note_on channel=3 note=70 velocity=0 time=0.009722197916666666
EXTRACT: control_change channel=6 control=11 value=74 time=0.0013888854166666665
EXTRACT: note_on channel=1 note=41 velocity=0 time=0.0416665625
EXTRACT: control_change channel=15 control=11 value=126 time=0.006944427083333333
EXTRACT: note_on channel=2 note=49 velocity=43 time=0.018055510416666663
EXTRACT: note_on channel=3 note=73 velocity=110 time=0
EXTRACT: note_on channel=9 note=54 velocity=30 time=0.011111083333333332
EXTRACT: note_on channel=1 note=37 velocity=109 time=0.0013888854166666665
EXTRACT: note_on channel=9 note=35 velocity=111 time=0
EXTRACT: note_on channel=9 note=43 velocity=87 time=0
EXTRACT: note_on channel=15 note=41 velocity=21 time=0
EXTRACT: note_on channel=15 note=49 velocity=30 time=0
EXTRACT: control_change channel=6 control=11 value=70 time=0
EXTRACT: note_on channel=8 note=61 velocity=72 time=0.006944427083333333
EXTRACT: note_on channel=9 note=54 velocity=0 time=0.02361105208333333
EXTRACT: note_on channel=9 note=35 velocity=0 time=0
EXTRACT: note_on channel=9 note=43 velocity=0 time=0
EXTRACT: control_change channel=6 control=11 value=69 time=0.05277764583333333
EXTRACT: note_on channel=15 note=41 velocity=0 time=0.0416665625
EXTRACT: note_on channel=15 note=49 velocity=0 time=0.009722197916666666
EXTRACT: note_on channel=6 note=61 velocity=0 time=0.009722197916666666
EXTRACT: control_change channel=6 control=11 value=65 time=0.022222166666666664
EXTRACT: note_on channel=2 note=49 velocity=0 time=0.030555479166666663
EXTRACT: control_change channel=2 control=64 value=0 time=0.083333125
EXTRACT: note_on channel=13 note=68 velocity=0 time=0.0013888854166666665
EXTRACT: note_on channel=11 note=56 velocity=0 time=0.009722197916666666
EXTRACT: note_on channel=8 note=66 velocity=0 time=0.005555541666666666
EXTRACT: control_change channel=5 control=11 value=86 time=0.008333312499999999
EXTRACT: note_on channel=1 note=37 velocity=0 time=0.008333312499999999
EXTRACT: note_on channel=13 note=73 velocity=0 time=0.008333312499999999
EXTRACT: note_on channel=6 note=56 velocity=0 time=0
EXTRACT: note_on channel=13 note=65 velocity=0 time=0
EXTRACT: note_on channel=1 note=39 velocity=119 time=0.011111083333333332
EXTRACT: note_on channel=8 note=58 velocity=59 time=0
EXTRACT: note_on channel=9 note=49 velocity=77 time=0
EXTRACT: note_on channel=9 note=35 velocity=121 time=0
EXTRACT: note_on channel=11 note=51 velocity=67 time=0
EXTRACT: note_on channel=13 note=63 velocity=37 time=0
EXTRACT: note_on channel=13 note=70 velocity=44 time=0
EXTRACT: note_on channel=15 note=39 velocity=41 time=0
EXTRACT: note_on channel=2 note=39 velocity=61 time=0.004166656249999999
EXTRACT: note_on channel=5 note=61 velocity=90 time=0.005555541666666666
EXTRACT: control_change channel=2 control=64 value=100 time=0.011111083333333332
EXTRACT: note_on channel=13 note=66 velocity=36 time=0.002777770833333333
EXTRACT: note_on channel=5 note=58 velocity=106 time=0.002777770833333333
EXTRACT: note_on channel=9 note=49 velocity=0 time=0.004166656249999999
EXTRACT: note_on channel=9 note=35 velocity=0 time=0
EXTRACT: control_change channel=5 control=11 value=88 time=0.05277764583333333
EXTRACT: note_on channel=2 note=39 velocity=0 time=0.07222204166666665
EXTRACT: control_change channel=5 control=11 value=90 time=0.011111083333333332
EXTRACT: control_change channel=5 control=11 value=92 time=0.083333125
EXTRACT: note_on channel=15 note=39 velocity=0 time=0.0749998125
EXTRACT: note_on channel=8 note=61 velocity=0 time=0.008333312499999999
EXTRACT: note_on channel=9 note=46 velocity=65 time=0
EXTRACT: note_on channel=9 note=54 velocity=28 time=0
EXTRACT: note_on channel=11 note=61 velocity=63 time=0
EXTRACT: note_on channel=15 note=54 velocity=31 time=0
EXTRACT: control_change channel=5 control=11 value=95 time=0
EXTRACT: note_on channel=8 note=66 velocity=74 time=0.004166656249999999
EXTRACT: note_on channel=2 note=54 velocity=43 time=0.002777770833333333
EXTRACT: note_on channel=2 note=54 velocity=0 time=0.013888854166666666
EXTRACT: note_on channel=9 note=46 velocity=0 time=0.009722197916666666
EXTRACT: note_on channel=9 note=54 velocity=0 time=0
EXTRACT: control_change channel=5 control=11 value=96 time=0.05277764583333333
EXTRACT: control_change channel=5 control=11 value=98 time=0.083333125
EXTRACT: note_on channel=8 note=58 velocity=0 time=0.083333125
EXTRACT: control_change channel=5 control=11 value=101 time=0
EXTRACT: note_on channel=15 note=54 velocity=0 time=0.07083315624999999
EXTRACT: note_on channel=11 note=51 velocity=0 time=0.0013888854166666665
EXTRACT: note_on channel=8 note=61 velocity=71 time=0.006944427083333333
EXTRACT: note_on channel=9 note=46 velocity=77 time=0.004166656249999999
EXTRACT: note_on channel=9 note=54 velocity=45 time=0
EXTRACT: note_on channel=11 note=54 velocity=73 time=0
EXTRACT: note_on channel=15 note=58 velocity=42 time=0
EXTRACT: note_on channel=15 note=61 velocity=56 time=0
EXTRACT: control_change channel=5 control=11 value=103 time=0
EXTRACT: note_on channel=9 note=39 velocity=113 time=0.002777770833333333
EXTRACT: note_on channel=2 note=58 velocity=61 time=0.004166656249999999
EXTRACT: note_on channel=9 note=85 velocity=79 time=0.002777770833333333
EXTRACT: note_on channel=9 note=28 velocity=69 time=0
EXTRACT: note_on channel=2 note=61 velocity=75 time=0.016666624999999997
EXTRACT: note_on channel=9 note=46 velocity=0 time=0.004166656249999999
EXTRACT: note_on channel=9 note=54 velocity=0 time=0
EXTRACT: note_on channel=9 note=39 velocity=0 time=0.004166656249999999
EXTRACT: note_on channel=9 note=85 velocity=0 time=0.006944427083333333
EXTRACT: note_on channel=9 note=28 velocity=0 time=0
EXTRACT: note_on channel=2 note=61 velocity=0 time=0
EXTRACT: note_on channel=2 note=58 velocity=0 time=0.009722197916666666
EXTRACT: note_on channel=9 note=85 velocity=127 time=0
EXTRACT: note_on channel=9 note=85 velocity=0 time=0.03194436458333333
EXTRACT: control_change channel=5 control=11 value=104 time=0
EXTRACT: note_on channel=1 note=39 velocity=0 time=0.07222204166666665
EXTRACT: control_change channel=5 control=11 value=106 time=0.011111083333333332
EXTRACT: control_change channel=15 control=11 value=127 time=0
EXTRACT: note_on channel=11 note=61 velocity=0 time=0.009722197916666666
EXTRACT: control_change channel=15 control=11 value=123 time=0.03194436458333333
EXTRACT: control_change channel=5 control=11 value=109 time=0.0416665625
EXTRACT: control_change channel=6 control=11 value=88 time=0
EXTRACT: control_change channel=15 control=11 value=118 time=0
EXTRACT: control_change channel=15 control=11 value=115 time=0.0416665625
EXTRACT: note_on channel=8 note=61 velocity=0 time=0.033333249999999995
EXTRACT: note_on channel=8 note=59 velocity=70 time=0.004166656249999999
EXTRACT: note_on channel=1 note=34 velocity=121 time=0.004166656249999999
EXTRACT: note_on channel=6 note=58 velocity=99 time=0
EXTRACT: note_on channel=9 note=46 velocity=51 time=0
EXTRACT: note_on channel=9 note=54 velocity=35 time=0
EXTRACT: note_on channel=9 note=35 velocity=111 time=0
EXTRACT: note_on channel=11 note=61 velocity=53 time=0
EXTRACT: control_change channel=5 control=11 value=110 time=0
EXTRACT: control_change channel=6 control=11 value=90 time=0
EXTRACT: control_change channel=15 control=11 value=111 time=0
EXTRACT: note_on channel=9 note=46 velocity=0 time=0.030555479166666663
EXTRACT: note_on channel=9 note=54 velocity=0 time=0
EXTRACT: note_on channel=9 note=35 velocity=0 time=0
EXTRACT: control_change channel=15 control=11 value=106 time=0.011111083333333332
EXTRACT: control_change channel=5 control=11 value=112 time=0.0416665625
EXTRACT: control_change channel=6 control=11 value=95 time=0
EXTRACT: control_change channel=15 control=11 value=103 time=0
EXTRACT: control_change channel=15 control=11 value=99 time=0.0416665625
EXTRACT: note_on channel=15 note=61 velocity=0 time=0.004166656249999999
EXTRACT: note_on channel=8 note=66 velocity=0 time=0.02361105208333333
EXTRACT: control_change channel=5 control=11 value=115 time=0.013888854166666666
EXTRACT: control_change channel=6 control=11 value=96 time=0
EXTRACT: control_change channel=15 control=11 value=95 time=0
EXTRACT: note_on channel=3 note=73 velocity=0 time=0.030555479166666663
EXTRACT: control_change channel=15 control=11 value=91 time=0.018055510416666663
EXTRACT: note_on channel=15 note=58 velocity=0 time=0.016666624999999997
EXTRACT: control_change channel=5 control=11 value=117 time=0.018055510416666663
EXTRACT: control_change channel=6 control=11 value=98 time=0
EXTRACT: note_on channel=13 note=70 velocity=0 time=0.018055510416666663
EXTRACT: note_on channel=11 note=54 velocity=0 time=0.018055510416666663
EXTRACT: note_on channel=13 note=71 velocity=43 time=0.02361105208333333
EXTRACT: control_change channel=2 control=64 value=0 time=0.002777770833333333
EXTRACT: note_on channel=1 note=34 velocity=0 time=0.009722197916666666
EXTRACT: note_on channel=6 note=58 velocity=0 time=0
EXTRACT: note_on channel=11 note=61 velocity=0 time=0
EXTRACT: note_on channel=5 note=63 velocity=83 time=0
EXTRACT: note_on channel=5 note=61 velocity=0 time=0.006944427083333333
EXTRACT: note_on channel=8 note=66 velocity=69 time=0
EXTRACT: note_on channel=1 note=35 velocity=121 time=0.004166656249999999
EXTRACT: note_on channel=6 note=59 velocity=99 time=0
EXTRACT: note_on channel=6 note=66 velocity=85 time=0
EXTRACT: note_on channel=9 note=46 velocity=75 time=0
EXTRACT: note_on channel=9 note=35 velocity=120 time=0
EXTRACT: note_on channel=9 note=54 velocity=44 time=0
EXTRACT: note_on channel=11 note=59 velocity=73 time=0
EXTRACT: note_on channel=15 note=47 velocity=39 time=0
EXTRACT: control_change channel=5 control=11 value=118 time=0
EXTRACT: control_change channel=6 control=11 value=101 time=0
EXTRACT: control_change channel=15 control=11 value=127 time=0
EXTRACT: note_on channel=2 note=47 velocity=65 time=0.004166656249999999
EXTRACT: control_change channel=2 control=64 value=100 time=0.005555541666666666
EXTRACT: note_on channel=5 note=58 velocity=0 time=0.005555541666666666
EXTRACT: note_on channel=5 note=59 velocity=101 time=0.0013888854166666665
EXTRACT: note_on channel=9 note=46 velocity=0 time=0.013888854166666666
EXTRACT: note_on channel=9 note=35 velocity=0 time=0
EXTRACT: note_on channel=9 note=54 velocity=0 time=0
EXTRACT: control_change channel=5 control=11 value=121 time=0.05277764583333333
EXTRACT: control_change channel=6 control=11 value=103 time=0
EXTRACT: control_change channel=5 control=11 value=123 time=0.083333125
EXTRACT: control_change channel=6 control=11 value=106 time=0
EXTRACT: note_on channel=2 note=47 velocity=0 time=0.02083328125
EXTRACT: control_change channel=5 control=11 value=124 time=0.06249984374999999
EXTRACT: control_change channel=6 control=11 value=109 time=0
EXTRACT: note_on channel=8 note=59 velocity=0 time=0.009722197916666666
EXTRACT: note_on channel=11 note=59 velocity=0 time=0.05138876041666666
EXTRACT: note_on channel=15 note=47 velocity=0 time=0.013888854166666666
EXTRACT: note_on channel=8 note=59 velocity=62 time=0.002777770833333333
EXTRACT: note_on channel=11 note=61 velocity=72 time=0.004166656249999999
EXTRACT: note_on channel=9 note=46 velocity=48 time=0.0013888854166666665
EXTRACT: note_on channel=9 note=54 velocity=31 time=0
EXTRACT: note_on channel=15 note=51 velocity=31 time=0
EXTRACT: control_change channel=5 control=11 value=127 time=0
EXTRACT: control_change channel=6 control=11 value=111 time=0
EXTRACT: note_on channel=2 note=51 velocity=43 time=0.006944427083333333
EXTRACT: note_on channel=9 note=46 velocity=0 time=0.02361105208333333
EXTRACT: note_on channel=9 note=54 velocity=0 time=0
EXTRACT: note_on channel=2 note=51 velocity=0 time=0.02083328125
EXTRACT: control_change channel=6 control=11 value=112 time=0.03194436458333333
EXTRACT: control_change channel=6 control=11 value=115 time=0.083333125
EXTRACT: control_change channel=6 control=11 value=119 time=0.083333125
EXTRACT: note_on channel=8 note=66 velocity=0 time=0.009722197916666666
EXTRACT: note_on channel=15 note=51 velocity=0 time=0.05138876041666666
EXTRACT: note_on channel=8 note=66 velocity=70 time=0.018055510416666663
EXTRACT: note_on channel=2 note=54 velocity=67 time=0.0013888854166666665
EXTRACT: note_on channel=11 note=61 velocity=0 time=0.002777770833333333
EXTRACT: note_on channel=9 note=46 velocity=74 time=0
EXTRACT: note_on channel=9 note=54 velocity=47 time=0
EXTRACT: note_on channel=11 note=59 velocity=75 time=0
EXTRACT: note_on channel=15 note=54 velocity=43 time=0
EXTRACT: note_on channel=15 note=59 velocity=56 time=0
EXTRACT: control_change channel=6 control=11 value=121 time=0
EXTRACT: note_on channel=9 note=39 velocity=115 time=0.002777770833333333
EXTRACT: note_on channel=2 note=59 velocity=75 time=0.002777770833333333
EXTRACT: note_on channel=9 note=85 velocity=72 time=0.004166656249999999
EXTRACT: note_on channel=9 note=28 velocity=73 time=0
EXTRACT: note_on channel=2 note=59 velocity=0 time=0.011111083333333332
EXTRACT: note_on channel=2 note=54 velocity=0 time=0.009722197916666666
EXTRACT: note_on channel=9 note=46 velocity=0 time=0
EXTRACT: note_on channel=9 note=54 velocity=0 time=0
EXTRACT: note_on channel=9 note=39 velocity=0 time=0.004166656249999999
EXTRACT: note_on channel=9 note=85 velocity=0 time=0.006944427083333333
EXTRACT: note_on channel=9 note=28 velocity=0 time=0
EXTRACT: note_on channel=9 note=85 velocity=126 time=0.009722197916666666
EXTRACT: note_on channel=9 note=85 velocity=0 time=0.03194436458333333
EXTRACT: control_change channel=6 control=11 value=123 time=0
EXTRACT: control_change channel=15 control=11 value=127 time=0.05555541666666666
EXTRACT: control_change channel=6 control=11 value=127 time=0.02777770833333333
EXTRACT: control_change channel=15 control=11 value=123 time=0.013888854166666666
EXTRACT: control_change channel=15 control=11 value=119 time=0.0416665625
EXTRACT: note_on channel=8 note=59 velocity=0 time=0.006944427083333333
EXTRACT: control_change channel=15 control=11 value=115 time=0.03472213541666666
EXTRACT: control_change channel=15 control=11 value=111 time=0.0416665625
EXTRACT: note_on channel=1 note=35 velocity=0 time=0.016666624999999997
EXTRACT: note_on channel=8 note=59 velocity=71 time=0.006944427083333333
EXTRACT: note_on channel=9 note=54 velocity=31 time=0.002777770833333333
EXTRACT: note_on channel=9 note=46 velocity=59 time=0.0013888854166666665
EXTRACT: note_on channel=9 note=35 velocity=112 time=0
EXTRACT: note_on channel=11 note=54 velocity=48 time=0.005555541666666666
EXTRACT: control_change channel=15 control=11 value=107 time=0.008333312499999999
EXTRACT: note_on channel=9 note=54 velocity=0 time=0.016666624999999997
EXTRACT: note_on channel=9 note=46 velocity=0 time=0
EXTRACT: note_on channel=9 note=35 velocity=0 time=0
EXTRACT: control_change channel=15 control=11 value=103 time=0.024999937499999996
EXTRACT: control_change channel=15 control=11 value=99 time=0.0416665625
EXTRACT: control_change channel=15 control=11 value=95 time=0.0416665625
EXTRACT: note_on channel=15 note=59 velocity=0 time=0.0013888854166666665
EXTRACT: control_change channel=15 control=11 value=91 time=0.04722210416666666
EXTRACT: note_on channel=15 note=54 velocity=0 time=0.07222204166666665
EXTRACT: note_on channel=13 note=66 velocity=0 time=0.024999937499999996
EXTRACT: note_on channel=6 note=59 velocity=0 time=0.004166656249999999
EXTRACT: note_on channel=13 note=63 velocity=0 time=0.009722197916666666
EXTRACT: note_on channel=11 note=59 velocity=0 time=0.0013888854166666665
EXTRACT: control_change channel=15 control=11 value=127 time=0.005555541666666666
EXTRACT: note_on channel=13 note=71 velocity=0 time=0.004166656249999999
EXTRACT: note_on channel=8 note=59 velocity=0 time=0.002777770833333333
EXTRACT: control_change channel=2 control=64 value=0 time=0
EXTRACT: note_on channel=11 note=54 velocity=0 time=0.005555541666666666
EXTRACT: note_on channel=13 note=70 velocity=43 time=0.0013888854166666665
EXTRACT: note_on channel=5 note=59 velocity=0 time=0.002777770833333333
EXTRACT: note_on channel=6 note=66 velocity=0 time=0
EXTRACT: note_on channel=5 note=63 velocity=0 time=0.0013888854166666665
EXTRACT: note_on channel=13 note=66 velocity=32 time=0.005555541666666666
EXTRACT: note_on channel=8 note=66 velocity=0 time=0.004166656249999999
EXTRACT: note_on channel=1 note=30 velocity=123 time=0
EXTRACT: note_on channel=5 note=61 velocity=82 time=0
EXTRACT: note_on channel=6 note=58 velocity=97 time=0
EXTRACT: note_on channel=8 note=61 velocity=69 time=0
EXTRACT: note_on channel=9 note=46 velocity=77 time=0
EXTRACT: note_on channel=9 note=54 velocity=47 time=0
EXTRACT: note_on channel=9 note=35 velocity=124 time=0
EXTRACT: note_on channel=13 note=61 velocity=34 time=0
EXTRACT: note_on channel=15 note=42 velocity=44 time=0
EXTRACT: note_on channel=5 note=58 velocity=91 time=0.0013888854166666665
EXTRACT: note_on channel=6 note=61 velocity=98 time=0.0013888854166666665
EXTRACT: note_on channel=2 note=42 velocity=57 time=0.0013888854166666665
EXTRACT: note_on channel=11 note=54 velocity=66 time=0.0013888854166666665
EXTRACT: note_on channel=9 note=46 velocity=0 time=0.024999937499999996
EXTRACT: note_on channel=9 note=54 velocity=0 time=0
EXTRACT: note_on channel=9 note=35 velocity=0 time=0
EXTRACT: control_change channel=2 control=64 value=100 time=0
EXTRACT: note_on channel=2 note=42 velocity=0 time=0.12499968749999998
EXTRACT: note_on channel=1 note=30 velocity=0 time=0.12499968749999998
EXTRACT: note_on channel=15 note=42 velocity=0 time=0.033333249999999995
EXTRACT: note_on channel=8 note=66 velocity=75 time=0.015277739583333332
EXTRACT: note_on channel=2 note=49 velocity=43 time=0.0013888854166666665
EXTRACT: note_on channel=1 note=30 velocity=123 time=0.002777770833333333
EXTRACT: note_on channel=9 note=46 velocity=54 time=0
EXTRACT: note_on channel=9 note=54 velocity=26 time=0
EXTRACT: note_on channel=15 note=49 velocity=31 time=0
EXTRACT: note_on channel=11 note=58 velocity=75 time=0.006944427083333333
EXTRACT: note_on channel=2 note=49 velocity=0 time=0.002777770833333333
EXTRACT: note_on channel=9 note=46 velocity=0 time=0.02083328125
EXTRACT: note_on channel=9 note=54 velocity=0 time=0
EXTRACT: note_on channel=8 note=61 velocity=0 time=0.12083303124999999
EXTRACT: note_on channel=1 note=30 velocity=0 time=0.12916634375
EXTRACT: note_on channel=11 note=54 velocity=0 time=0.011111083333333332
EXTRACT: note_on channel=8 note=61 velocity=70 time=0.03749990625
EXTRACT: note_on channel=9 note=46 velocity=78 time=0.004166656249999999
EXTRACT: note_on channel=9 note=54 velocity=46 time=0
EXTRACT: note_on channel=15 note=54 velocity=42 time=0
EXTRACT: note_on channel=15 note=58 velocity=59 time=0
EXTRACT: control_change channel=5 control=11 value=127 time=0
EXTRACT: note_on channel=3 note=73 velocity=110 time=0
EXTRACT: note_on channel=11 note=54 velocity=68 time=0
EXTRACT: note_on channel=9 note=39 velocity=115 time=0.0013888854166666665
EXTRACT: note_on channel=15 note=49 velocity=0 time=0.002777770833333333
EXTRACT: note_on channel=9 note=85 velocity=78 time=0.004166656249999999
EXTRACT: note_on channel=9 note=28 velocity=72 time=0
EXTRACT: note_on channel=2 note=58 velocity=75 time=0.005555541666666666
EXTRACT: note_on channel=2 note=54 velocity=61 time=0.002777770833333333
EXTRACT: note_on channel=9 note=46 velocity=0 time=0.012499968749999998
EXTRACT: note_on channel=9 note=54 velocity=0 time=0.0013888854166666665
EXTRACT: note_on channel=9 note=39 velocity=0 time=0.002777770833333333
EXTRACT: note_on channel=9 note=85 velocity=0 time=0.006944427083333333
EXTRACT: note_on channel=9 note=28 velocity=0 time=0
EXTRACT: note_on channel=2 note=54 velocity=0 time=0.009722197916666666
EXTRACT: note_on channel=9 note=85 velocity=127 time=0
EXTRACT: note_on channel=2 note=58 velocity=0 time=0.03194436458333333
EXTRACT: note_on channel=9 note=85 velocity=0 time=0
EXTRACT: control_change channel=5 control=11 value=125 time=0
EXTRACT: control_change channel=15 control=11 value=127 time=0.06249984374999999
EXTRACT: control_change channel=5 control=11 value=123 time=0.02083328125
EXTRACT: control_change channel=15 control=11 value=123 time=0.02083328125
EXTRACT: note_on channel=3 note=73 velocity=0 time=0.0013888854166666665
EXTRACT: control_change channel=15 control=11 value=119 time=0.04027767708333333
EXTRACT: note_on channel=8 note=66 velocity=0 time=0.005555541666666666
EXTRACT: control_change channel=5 control=11 value=121 time=0.015277739583333332
EXTRACT: control_change channel=15 control=11 value=115 time=0.02083328125
EXTRACT: note_on channel=11 note=54 velocity=0 time=0.02361105208333333
EXTRACT: note_on channel=11 note=58 velocity=0 time=0.006944427083333333
EXTRACT: control_change channel=15 control=11 value=111 time=0.011111083333333332
EXTRACT: note_on channel=6 note=58 velocity=0 time=0.009722197916666666
EXTRACT: note_on channel=5 note=58 velocity=0 time=0
EXTRACT: note_on channel=1 note=25 velocity=107 time=0.011111083333333332
EXTRACT: note_on channel=5 note=56 velocity=97 time=0
EXTRACT: note_on channel=6 note=56 velocity=91 time=0
EXTRACT: note_on channel=8 note=65 velocity=70 time=0
EXTRACT: note_on channel=9 note=46 velocity=61 time=0
EXTRACT: note_on channel=9 note=35 velocity=112 time=0
EXTRACT: note_on channel=9 note=54 velocity=31 time=0
EXTRACT: control_change channel=5 control=11 value=119 time=0
EXTRACT: control_change channel=6 control=11 value=127 time=0
EXTRACT: note_on channel=11 note=61 velocity=69 time=0.0013888854166666665
EXTRACT: note_on channel=3 note=73 velocity=110 time=0
EXTRACT: control_change channel=15 control=11 value=107 time=0.016666624999999997
EXTRACT: note_on channel=9 note=46 velocity=0 time=0.009722197916666666
EXTRACT: note_on channel=9 note=35 velocity=0 time=0
EXTRACT: note_on channel=9 note=54 velocity=0 time=0
EXTRACT: control_change channel=15 control=11 value=102 time=0.03194436458333333
EXTRACT: control_change channel=5 control=11 value=117 time=0.02083328125
EXTRACT: control_change channel=6 control=11 value=125 time=0
EXTRACT: control_change channel=15 control=11 value=99 time=0.02083328125
EXTRACT: control_change channel=15 control=11 value=94 time=0.0416665625
EXTRACT: control_change channel=5 control=11 value=117 time=0.02083328125
EXTRACT: control_change channel=6 control=11 value=121 time=0
EXTRACT: control_change channel=15 control=11 value=90 time=0.02777770833333333
EXTRACT: note_on channel=15 note=58 velocity=0 time=0.029166593749999997
EXTRACT: note_on channel=3 note=73 velocity=0 time=0.009722197916666666
EXTRACT: control_change channel=5 control=11 value=115 time=0.016666624999999997
EXTRACT: control_change channel=6 control=11 value=117 time=0
EXTRACT: note_on channel=15 note=54 velocity=0 time=0.012499968749999998
EXTRACT: note_on channel=1 note=25 velocity=0 time=0.008333312499999999
EXTRACT: note_on channel=13 note=70 velocity=0 time=0.024999937499999996
EXTRACT: control_change channel=2 control=64 value=0 time=0.005555541666666666
EXTRACT: note_on channel=13 note=66 velocity=0 time=0.006944427083333333
EXTRACT: control_change channel=15 control=11 value=127 time=0.004166656249999999
EXTRACT: note_on channel=11 note=49 velocity=68 time=0.013888854166666666
EXTRACT: note_on channel=1 note=25 velocity=123 time=0.006944427083333333
EXTRACT: note_on channel=9 note=46 velocity=78 time=0
EXTRACT: note_on channel=9 note=35 velocity=121 time=0
EXTRACT: note_on channel=9 note=54 velocity=48 time=0
EXTRACT: note_on channel=13 note=68 velocity=39 time=0
EXTRACT: note_on channel=15 note=41 velocity=44 time=0
EXTRACT: control_change channel=5 control=11 value=113 time=0
EXTRACT: control_change channel=6 control=11 value=113 time=0
EXTRACT: note_on channel=2 note=41 velocity=57 time=0
EXTRACT: note_on channel=3 note=75 velocity=110 time=0
EXTRACT: note_on channel=13 note=65 velocity=34 time=0.008333312499999999
EXTRACT: control_change channel=2 control=64 value=100 time=0.008333312499999999
EXTRACT: note_on channel=9 note=46 velocity=0 time=0.009722197916666666
EXTRACT: note_on channel=9 note=35 velocity=0 time=0
EXTRACT: note_on channel=9 note=54 velocity=0 time=0.0013888854166666665
EXTRACT: control_change channel=5 control=11 value=111 time=0.05138876041666666
EXTRACT: control_change channel=6 control=11 value=111 time=0
EXTRACT: control_change channel=5 control=11 value=109 time=0.083333125
EXTRACT: control_change channel=6 control=11 value=107 time=0
EXTRACT: note_on channel=2 note=41 velocity=0 time=0.02083328125
EXTRACT: note_on channel=8 note=61 velocity=0 time=0.05138876041666666
EXTRACT: control_change channel=5 control=11 value=109 time=0.011111083333333332
EXTRACT: control_change channel=6 control=11 value=103 time=0
EXTRACT: note_on channel=1 note=25 velocity=0 time=0.030555479166666663
EXTRACT: note_on channel=3 note=75 velocity=0 time=0.011111083333333332
EXTRACT: note_on channel=15 note=41 velocity=0 time=0.033333249999999995
EXTRACT: note_on channel=1 note=25 velocity=123 time=0.008333312499999999
EXTRACT: note_on channel=8 note=61 velocity=70 time=0
EXTRACT: note_on channel=9 note=46 velocity=60 time=0
EXTRACT: note_on channel=9 note=54 velocity=37 time=0
EXTRACT: note_on channel=15 note=49 velocity=31 time=0
EXTRACT: control_change channel=5 control=11 value=107 time=0
EXTRACT: control_change channel=6 control=11 value=99 time=0
EXTRACT: note_on channel=3 note=73 velocity=111 time=0
EXTRACT: note_on channel=2 note=49 velocity=43 time=0.002777770833333333
EXTRACT: note_on channel=9 note=46 velocity=0 time=0.02361105208333333
EXTRACT: note_on channel=9 note=54 velocity=0 time=0
EXTRACT: note_on channel=2 note=49 velocity=0 time=0.02083328125
EXTRACT: control_change channel=5 control=11 value=105 time=0.03194436458333333
EXTRACT: control_change channel=6 control=11 value=97 time=0
EXTRACT: note_on channel=8 note=65 velocity=0 time=0.07222204166666665
EXTRACT: control_change channel=5 control=11 value=103 time=0.011111083333333332
EXTRACT: control_change channel=6 control=11 value=93 time=0
EXTRACT: note_on channel=11 note=61 velocity=0 time=0.06944427083333332
EXTRACT: note_on channel=3 note=73 velocity=0 time=0.002777770833333333
EXTRACT: control_change channel=5 control=11 value=101 time=0.011111083333333332
EXTRACT: control_change channel=6 control=11 value=89 time=0
EXTRACT: note_on channel=1 note=25 velocity=0 time=0.030555479166666663
EXTRACT: note_on channel=11 note=49 velocity=0 time=0.026388822916666665
EXTRACT: note_on channel=15 note=49 velocity=0 time=0.022222166666666664
EXTRACT: note_on channel=1 note=25 velocity=121 time=0.004166656249999999
EXTRACT: note_on channel=9 note=46 velocity=78 time=0
EXTRACT: note_on channel=9 note=54 velocity=47 time=0
EXTRACT: note_on channel=15 note=53 velocity=37 time=0
EXTRACT: note_on channel=15 note=56 velocity=53 time=0
EXTRACT: control_change channel=5 control=11 value=101 time=0
EXTRACT: control_change channel=6 control=11 value=85 time=0
EXTRACT: note_on channel=3 note=70 velocity=110 time=0
EXTRACT: note_on channel=9 note=39 velocity=113 time=0
EXTRACT: note_on channel=11 note=56 velocity=79 time=0
EXTRACT: note_on channel=9 note=85 velocity=73 time=0.006944427083333333
EXTRACT: note_on channel=9 note=28 velocity=68 time=0
EXTRACT: note_on channel=8 note=65 velocity=88 time=0.0013888854166666665
EXTRACT: note_on channel=2 note=56 velocity=75 time=0.004166656249999999
EXTRACT: note_on channel=2 note=53 velocity=55 time=0.002777770833333333
EXTRACT: note_on channel=9 note=46 velocity=0 time=0.012499968749999998
EXTRACT: note_on channel=9 note=54 velocity=0 time=0.0013888854166666665
EXTRACT: note_on channel=9 note=39 velocity=0 time=0.002777770833333333
EXTRACT: note_on channel=9 note=85 velocity=0 time=0.006944427083333333
EXTRACT: note_on channel=9 note=28 velocity=0 time=0
EXTRACT: note_on channel=2 note=56 velocity=0 time=0
EXTRACT: note_on channel=9 note=85 velocity=127 time=0.009722197916666666
EXTRACT: note_on channel=9 note=85 velocity=0 time=0.03194436458333333
EXTRACT: control_change channel=5 control=11 value=99 time=0
EXTRACT: control_change channel=6 control=11 value=83 time=0
EXTRACT: control_change channel=15 control=11 value=126 time=0.03472213541666666
EXTRACT: note_on channel=8 note=65 velocity=0 time=0.02777770833333333
EXTRACT: control_change channel=15 control=11 value=123 time=0.013888854166666666
EXTRACT: note_on channel=8 note=66 velocity=67 time=0.005555541666666666
EXTRACT: control_change channel=5 control=11 value=97 time=0.0013888854166666665
EXTRACT: control_change channel=6 control=11 value=79 time=0
EXTRACT: note_on channel=3 note=70 velocity=0 time=0.02361105208333333
EXTRACT: control_change channel=15 control=11 value=118 time=0.011111083333333332
EXTRACT: note_on channel=8 note=61 velocity=0 time=0.03749990625
EXTRACT: control_change channel=15 control=11 value=115 time=0.004166656249999999
EXTRACT: note_on channel=1 note=25 velocity=0 time=0.006944427083333333
EXTRACT: control_change channel=5 control=11 value=95 time=0
EXTRACT: control_change channel=6 control=11 value=75 time=0
EXTRACT: control_change channel=15 control=11 value=110 time=0.03472213541666666
EXTRACT: note_on channel=5 note=56 velocity=0 time=0.03749990625
EXTRACT: control_change channel=15 control=11 value=106 time=0.004166656249999999
EXTRACT: note_on channel=1 note=25 velocity=120 time=0.006944427083333333
EXTRACT: note_on channel=9 note=46 velocity=63 time=0
EXTRACT: note_on channel=9 note=35 velocity=115 time=0
EXTRACT: note_on channel=9 note=54 velocity=37 time=0
EXTRACT: control_change channel=5 control=11 value=93 time=0
EXTRACT: control_change channel=6 control=11 value=71 time=0
EXTRACT: note_on channel=2 note=49 velocity=39 time=0.004166656249999999
EXTRACT: note_on channel=8 note=61 velocity=72 time=0.002777770833333333
EXTRACT: note_on channel=3 note=70 velocity=110 time=0
EXTRACT: note_on channel=15 note=37 velocity=41 time=0.009722197916666666
EXTRACT: note_on channel=5 note=61 velocity=0 time=0.008333312499999999
EXTRACT: note_on channel=9 note=46 velocity=0 time=0.002777770833333333
EXTRACT: note_on channel=9 note=35 velocity=0 time=0
EXTRACT: note_on channel=9 note=54 velocity=0 time=0
EXTRACT: control_change channel=15 control=11 value=103 time=0.004166656249999999
EXTRACT: note_on channel=6 note=61 velocity=0 time=0.016666624999999997
EXTRACT: note_on channel=2 note=49 velocity=0 time=0
EXTRACT: note_on channel=15 note=56 velocity=0 time=0.02083328125
EXTRACT: control_change channel=15 control=11 value=99 time=0.004166656249999999
EXTRACT: control_change channel=5 control=11 value=90 time=0.006944427083333333
EXTRACT: control_change channel=6 control=11 value=68 time=0
EXTRACT: note_on channel=6 note=56 velocity=0 time=0.02083328125
EXTRACT: control_change channel=15 control=11 value=95 time=0.013888854166666666
EXTRACT: control_change channel=6 control=11 value=65 time=0.048610989583333326
EXTRACT: control_change channel=15 control=11 value=90 time=0
EXTRACT: note_on channel=15 note=53 velocity=0 time=0.0749998125
EXTRACT: note_on channel=13 note=61 velocity=0 time=0.029166593749999997
EXTRACT: note_on channel=15 note=37 velocity=0 time=0.009722197916666666
EXTRACT: control_change channel=2 control=64 value=0 time=0
EXTRACT: note_on channel=8 note=66 velocity=0 time=0.005555541666666666
EXTRACT: note_on channel=11 note=56 velocity=0 time=0.005555541666666666
EXTRACT: control_change channel=5 control=11 value=87 time=0.013888854166666666
EXTRACT: note_on channel=13 note=68 velocity=0 time=0.004166656249999999
EXTRACT: note_on channel=13 note=70 velocity=44 time=0.009722197916666666
EXTRACT: note_on channel=13 note=65 velocity=0 time=0.002777770833333333
EXTRACT: control_change channel=15 control=11 value=126 time=0.004166656249999999
EXTRACT: note_on channel=8 note=58 velocity=58 time=0.0013888854166666665
EXTRACT: note_on channel=9 note=54 velocity=43 time=0.004166656249999999
EXTRACT: note_on channel=1 note=27 velocity=119 time=0.0013888854166666665
EXTRACT: note_on channel=9 note=46 velocity=77 time=0
EXTRACT: note_on channel=9 note=35 velocity=121 time=0
EXTRACT: note_on channel=11 note=51 velocity=66 time=0
EXTRACT: note_on channel=13 note=63 velocity=37 time=0
EXTRACT: note_on channel=15 note=39 velocity=40 time=0
EXTRACT: note_on channel=1 note=25 velocity=0 time=0.002777770833333333
EXTRACT: note_on channel=2 note=39 velocity=53 time=0.0013888854166666665
EXTRACT: note_on channel=5 note=61 velocity=90 time=0.005555541666666666
EXTRACT: control_change channel=2 control=64 value=100 time=0.011111083333333332
EXTRACT: note_on channel=13 note=66 velocity=37 time=0.002777770833333333
EXTRACT: note_on channel=5 note=58 velocity=107 time=0.002777770833333333
EXTRACT: note_on channel=9 note=54 velocity=0 time=0.004166656249999999
EXTRACT: note_on channel=9 note=46 velocity=0 time=0
EXTRACT: note_on channel=9 note=35 velocity=0 time=0
EXTRACT: control_change channel=5 control=11 value=88 time=0.05277764583333333
EXTRACT: note_on channel=2 note=39 velocity=0 time=0.07222204166666665
EXTRACT: control_change channel=5 control=11 value=90 time=0.011111083333333332
EXTRACT: control_change channel=5 control=11 value=93 time=0.083333125
EXTRACT: note_on channel=15 note=39 velocity=0 time=0.0749998125
EXTRACT: note_on channel=8 note=61 velocity=0 time=0.002777770833333333
EXTRACT: note_on channel=9 note=46 velocity=65 time=0.005555541666666666
EXTRACT: note_on channel=9 note=54 velocity=28 time=0
EXTRACT: note_on channel=11 note=61 velocity=62 time=0
EXTRACT: note_on channel=15 note=54 velocity=31 time=0
EXTRACT: control_change channel=3 control=1 value=15 time=0
EXTRACT: control_change channel=5 control=11 value=94 time=0
EXTRACT: note_on channel=8 note=66 velocity=75 time=0.004166656249999999
EXTRACT: note_on channel=2 note=54 velocity=44 time=0.002777770833333333
EXTRACT: note_on channel=2 note=54 velocity=0 time=0.013888854166666666
EXTRACT: note_on channel=9 note=46 velocity=0 time=0.009722197916666666
EXTRACT: note_on channel=9 note=54 velocity=0 time=0
EXTRACT: control_change channel=5 control=11 value=97 time=0.05277764583333333
EXTRACT: control_change channel=5 control=11 value=98 time=0.083333125
EXTRACT: note_on channel=8 note=58 velocity=0 time=0.07777758333333333
EXTRACT: control_change channel=5 control=11 value=101 time=0.005555541666666666
EXTRACT: note_on channel=15 note=54 velocity=0 time=0.07083315624999999
EXTRACT: note_on channel=11 note=51 velocity=0 time=0.0013888854166666665
EXTRACT: note_on channel=8 note=61 velocity=71 time=0.006944427083333333
EXTRACT: note_on channel=9 note=46 velocity=77 time=0.004166656249999999
EXTRACT: note_on channel=9 note=54 velocity=45 time=0
EXTRACT: note_on channel=11 note=54 velocity=73 time=0
EXTRACT: note_on channel=15 note=58 velocity=42 time=0
EXTRACT: note_on channel=15 note=61 velocity=52 time=0
EXTRACT: control_change channel=5 control=11 value=102 time=0
EXTRACT: note_on channel=9 note=39 velocity=117 time=0.002777770833333333
EXTRACT: note_on channel=2 note=58 velocity=61 time=0.004166656249999999
EXTRACT: note_on channel=9 note=85 velocity=79 time=0.002777770833333333
EXTRACT: note_on channel=9 note=28 velocity=75 time=0
EXTRACT: note_on channel=2 note=61 velocity=74 time=0.016666624999999997
EXTRACT: note_on channel=9 note=46 velocity=0 time=0.004166656249999999
EXTRACT: note_on channel=9 note=54 velocity=0 time=0
EXTRACT: note_on channel=9 note=39 velocity=0 time=0.004166656249999999
EXTRACT: note_on channel=9 note=85 velocity=0 time=0.006944427083333333
EXTRACT: note_on channel=9 note=28 velocity=0 time=0
EXTRACT: note_on channel=2 note=61 velocity=0 time=0
EXTRACT: note_on channel=2 note=58 velocity=0 time=0.009722197916666666
EXTRACT: note_on channel=9 note=85 velocity=127 time=0
EXTRACT: note_on channel=1 note=27 velocity=0 time=0.02083328125
EXTRACT: note_on channel=9 note=85 velocity=0 time=0.011111083333333332
EXTRACT: control_change channel=5 control=11 value=104 time=0
EXTRACT: control_change channel=5 control=11 value=107 time=0.083333125
EXTRACT: control_change channel=15 control=11 value=126 time=0
EXTRACT: note_on channel=11 note=61 velocity=0 time=0.009722197916666666
EXTRACT: control_change channel=15 control=11 value=122 time=0.03194436458333333
EXTRACT: control_change channel=5 control=11 value=109 time=0.0416665625
EXTRACT: control_change channel=6 control=11 value=88 time=0
EXTRACT: control_change channel=15 control=11 value=119 time=0
EXTRACT: control_change channel=15 control=11 value=114 time=0.0416665625
EXTRACT: note_on channel=8 note=61 velocity=0 time=0.033333249999999995
EXTRACT: note_on channel=8 note=59 velocity=70 time=0.004166656249999999
EXTRACT: note_on channel=1 note=34 velocity=120 time=0.004166656249999999
EXTRACT: note_on channel=6 note=58 velocity=98 time=0
EXTRACT: note_on channel=6 note=61 velocity=86 time=0
EXTRACT: note_on channel=9 note=46 velocity=51 time=0
EXTRACT: note_on channel=9 note=54 velocity=35 time=0
EXTRACT: note_on channel=9 note=35 velocity=113 time=0
EXTRACT: note_on channel=11 note=61 velocity=53 time=0
EXTRACT: control_change channel=5 control=11 value=111 time=0
EXTRACT: control_change channel=6 control=11 value=90 time=0
EXTRACT: control_change channel=15 control=11 value=110 time=0
EXTRACT: note_on channel=9 note=46 velocity=0 time=0.030555479166666663
EXTRACT: note_on channel=9 note=54 velocity=0 time=0
EXTRACT: note_on channel=9 note=35 velocity=0 time=0
EXTRACT: control_change channel=15 control=11 value=107 time=0.011111083333333332
EXTRACT: control_change channel=5 control=11 value=112 time=0.0416665625
EXTRACT: control_change channel=6 control=11 value=95 time=0
EXTRACT: control_change channel=15 control=11 value=103 time=0
EXTRACT: control_change channel=15 control=11 value=98 time=0.0416665625
EXTRACT: note_on channel=8 note=66 velocity=0 time=0.02777770833333333
EXTRACT: control_change channel=5 control=11 value=114 time=0.013888854166666666
EXTRACT: control_change channel=6 control=11 value=96 time=0
EXTRACT: control_change channel=15 control=11 value=94 time=0
EXTRACT: control_change channel=15 control=11 value=91 time=0.048610989583333326
EXTRACT: note_on channel=15 note=61 velocity=0 time=0.018055510416666663
EXTRACT: control_change channel=5 control=11 value=116 time=0.016666624999999997
EXTRACT: control_change channel=6 control=11 value=99 time=0
EXTRACT: note_on channel=13 note=70 velocity=0 time=0.004166656249999999
EXTRACT: note_on channel=3 note=70 velocity=0 time=0.026388822916666665
EXTRACT: note_on channel=11 note=54 velocity=0 time=0.005555541666666666
EXTRACT: note_on channel=15 note=58 velocity=0 time=0.008333312499999999
EXTRACT: note_on channel=13 note=71 velocity=42 time=0.015277739583333332
EXTRACT: control_change channel=2 control=64 value=0 time=0.002777770833333333
EXTRACT: note_on channel=1 note=34 velocity=0 time=0.009722197916666666
EXTRACT: note_on channel=6 note=58 velocity=0 time=0
EXTRACT: note_on channel=6 note=61 velocity=0 time=0
EXTRACT: note_on channel=11 note=61 velocity=0 time=0
EXTRACT: note_on channel=5 note=63 velocity=83 time=0
EXTRACT: note_on channel=5 note=61 velocity=0 time=0.006944427083333333
EXTRACT: note_on channel=8 note=66 velocity=68 time=0
EXTRACT: note_on channel=1 note=35 velocity=120 time=0.004166656249999999
EXTRACT: note_on channel=6 note=59 velocity=98 time=0
EXTRACT: note_on channel=6 note=66 velocity=85 time=0
EXTRACT: note_on channel=9 note=46 velocity=75 time=0
EXTRACT: note_on channel=9 note=35 velocity=121 time=0
EXTRACT: note_on channel=9 note=54 velocity=45 time=0
EXTRACT: note_on channel=11 note=59 velocity=73 time=0
EXTRACT: note_on channel=15 note=47 velocity=38 time=0
EXTRACT: control_change channel=5 control=11 value=118 time=0
EXTRACT: control_change channel=6 control=11 value=100 time=0
EXTRACT: control_change channel=15 control=11 value=126 time=0
EXTRACT: note_on channel=2 note=47 velocity=64 time=0.004166656249999999
EXTRACT: control_change channel=2 control=64 value=100 time=0.005555541666666666
EXTRACT: note_on channel=5 note=58 velocity=0 time=0.005555541666666666
EXTRACT: note_on channel=5 note=59 velocity=101 time=0.0013888854166666665
EXTRACT: note_on channel=9 note=46 velocity=0 time=0.013888854166666666
EXTRACT: note_on channel=9 note=35 velocity=0 time=0
EXTRACT: note_on channel=9 note=54 velocity=0 time=0
EXTRACT: control_change channel=5 control=11 value=121 time=0.05277764583333333
EXTRACT: control_change channel=6 control=11 value=103 time=0
EXTRACT: control_change channel=5 control=11 value=122 time=0.083333125
EXTRACT: control_change channel=6 control=11 value=106 time=0
EXTRACT: note_on channel=2 note=47 velocity=0 time=0.02083328125
EXTRACT: control_change channel=5 control=11 value=124 time=0.06249984374999999
EXTRACT: control_change channel=6 control=11 value=108 time=0
EXTRACT: note_on channel=8 note=59 velocity=0 time=0.009722197916666666
EXTRACT: note_on channel=1 note=35 velocity=0 time=0.0416665625
EXTRACT: note_on channel=11 note=59 velocity=0 time=0.009722197916666666
EXTRACT: note_on channel=15 note=47 velocity=0 time=0.013888854166666666
EXTRACT: note_on channel=8 note=59 velocity=63 time=0.002777770833333333
EXTRACT: note_on channel=11 note=61 velocity=72 time=0.004166656249999999
EXTRACT: note_on channel=1 note=35 velocity=121 time=0.0013888854166666665
EXTRACT: note_on channel=9 note=46 velocity=49 time=0
EXTRACT: note_on channel=9 note=54 velocity=31 time=0
EXTRACT: note_on channel=15 note=51 velocity=31 time=0
EXTRACT: control_change channel=5 control=11 value=127 time=0
EXTRACT: control_change channel=6 control=11 value=111 time=0
EXTRACT: note_on channel=2 note=51 velocity=49 time=0.006944427083333333
EXTRACT: note_on channel=9 note=46 velocity=0 time=0.02361105208333333
EXTRACT: note_on channel=9 note=54 velocity=0 time=0
EXTRACT: note_on channel=2 note=51 velocity=0 time=0.02083328125
EXTRACT: control_change channel=6 control=11 value=113 time=0.03194436458333333
EXTRACT: control_change channel=6 control=11 value=115 time=0.083333125
EXTRACT: control_change channel=6 control=11 value=118 time=0.083333125
EXTRACT: note_on channel=8 note=66 velocity=0 time=0.009722197916666666
EXTRACT: note_on channel=15 note=51 velocity=0 time=0.05138876041666666
EXTRACT: note_on channel=8 note=66 velocity=70 time=0.018055510416666663
EXTRACT: note_on channel=2 note=54 velocity=60 time=0.0013888854166666665
EXTRACT: note_on channel=11 note=61 velocity=0 time=0.002777770833333333
EXTRACT: note_on channel=9 note=46 velocity=74 time=0
EXTRACT: note_on channel=9 note=54 velocity=47 time=0
EXTRACT: note_on channel=11 note=59 velocity=74 time=0
EXTRACT: note_on channel=15 note=54 velocity=42 time=0
EXTRACT: note_on channel=15 note=59 velocity=53 time=0
EXTRACT: control_change channel=6 control=11 value=120 time=0
EXTRACT: note_on channel=9 note=39 velocity=117 time=0.002777770833333333
EXTRACT: note_on channel=2 note=59 velocity=75 time=0.002777770833333333
EXTRACT: note_on channel=9 note=85 velocity=72 time=0.004166656249999999
EXTRACT: note_on channel=9 note=28 velocity=74 time=0
EXTRACT: note_on channel=2 note=59 velocity=0 time=0.011111083333333332
EXTRACT: note_on channel=2 note=54 velocity=0 time=0.009722197916666666
EXTRACT: note_on channel=9 note=46 velocity=0 time=0
EXTRACT: note_on channel=9 note=54 velocity=0 time=0
EXTRACT: note_on channel=9 note=39 velocity=0 time=0.004166656249999999
EXTRACT: note_on channel=9 note=85 velocity=0 time=0.006944427083333333
EXTRACT: note_on channel=9 note=28 velocity=0 time=0
EXTRACT: note_on channel=9 note=85 velocity=127 time=0.009722197916666666
EXTRACT: note_on channel=1 note=35 velocity=0 time=0.011111083333333332
EXTRACT: note_on channel=9 note=85 velocity=0 time=0.02083328125
EXTRACT: control_change channel=6 control=11 value=122 time=0
EXTRACT: control_change channel=15 control=11 value=126 time=0.05555541666666666
EXTRACT: control_change channel=6 control=11 value=126 time=0.02777770833333333
EXTRACT: control_change channel=15 control=11 value=123 time=0.013888854166666666
EXTRACT: control_change channel=15 control=11 value=119 time=0.0416665625
EXTRACT: note_on channel=8 note=59 velocity=0 time=0.006944427083333333
EXTRACT: control_change channel=15 control=11 value=114 time=0.03472213541666666
EXTRACT: control_change channel=15 control=11 value=111 time=0.0416665625
EXTRACT: note_on channel=8 note=59 velocity=70 time=0.02361105208333333
EXTRACT: note_on channel=9 note=54 velocity=31 time=0.002777770833333333
EXTRACT: note_on channel=1 note=35 velocity=120 time=0.0013888854166666665
EXTRACT: note_on channel=9 note=46 velocity=59 time=0
EXTRACT: note_on channel=9 note=35 velocity=110 time=0
EXTRACT: note_on channel=11 note=54 velocity=48 time=0.005555541666666666
EXTRACT: control_change channel=15 control=11 value=107 time=0.008333312499999999
EXTRACT: note_on channel=9 note=54 velocity=0 time=0.016666624999999997
EXTRACT: note_on channel=9 note=46 velocity=0 time=0
EXTRACT: note_on channel=9 note=35 velocity=0 time=0
EXTRACT: control_change channel=15 control=11 value=102 time=0.024999937499999996
EXTRACT: control_change channel=15 control=11 value=99 time=0.0416665625
EXTRACT: note_on channel=15 note=54 velocity=0 time=0.016666624999999997
EXTRACT: control_change channel=15 control=11 value=95 time=0.024999937499999996
EXTRACT: note_on channel=15 note=54 velocity=40 time=0.02777770833333333
EXTRACT: note_on channel=2 note=54 velocity=46 time=0.018055510416666663
EXTRACT: note_on channel=15 note=59 velocity=0 time=0.006944427083333333
EXTRACT: pitchwheel channel=1 pitch=210 time=0.002777770833333333
EXTRACT: pitchwheel channel=1 pitch=1075 time=0.013888854166666666
EXTRACT: note_on channel=2 note=54 velocity=0 time=0.009722197916666666
EXTRACT: pitchwheel channel=1 pitch=2151 time=0.005555541666666666
EXTRACT: pitchwheel channel=1 pitch=3520 time=0.013888854166666666
EXTRACT: pitchwheel channel=1 pitch=4798 time=0.018055510416666663
EXTRACT: pitchwheel channel=1 pitch=6159 time=0.016666624999999997
EXTRACT: note_on channel=13 note=66 velocity=0 time=0.012499968749999998
EXTRACT: pitchwheel channel=1 pitch=7363 time=0.002777770833333333
EXTRACT: note_on channel=6 note=59 velocity=0 time=0.0013888854166666665
EXTRACT: note_on channel=13 note=63 velocity=0 time=0.009722197916666666
EXTRACT: note_on channel=11 note=59 velocity=0 time=0.0013888854166666665
EXTRACT: note_on channel=1 note=35 velocity=0 time=0.0013888854166666665
EXTRACT: pitchwheel channel=1 pitch=8191 time=0
EXTRACT: control_change channel=15 control=11 value=127 time=0.004166656249999999
EXTRACT: note_on channel=13 note=71 velocity=0 time=0.004166656249999999
EXTRACT: note_on channel=8 note=59 velocity=0 time=0.002777770833333333
EXTRACT: control_change channel=2 control=64 value=0 time=0
EXTRACT: note_on channel=11 note=54 velocity=0 time=0.005555541666666666
EXTRACT: note_on channel=13 note=70 velocity=43 time=0.0013888854166666665
EXTRACT: note_on channel=5 note=59 velocity=0 time=0.002777770833333333
EXTRACT: note_on channel=6 note=66 velocity=0 time=0
EXTRACT: note_on channel=5 note=63 velocity=0 time=0.0013888854166666665
EXTRACT: pitchwheel channel=1 pitch=53 time=0.002777770833333333
EXTRACT: note_on channel=13 note=66 velocity=32 time=0.002777770833333333
EXTRACT: note_on channel=8 note=66 velocity=0 time=0.004166656249999999
EXTRACT: note_on channel=1 note=42 velocity=115 time=0
EXTRACT: note_on channel=5 note=61 velocity=83 time=0
EXTRACT: note_on channel=6 note=58 velocity=97 time=0
EXTRACT: note_on channel=8 note=61 velocity=69 time=0
EXTRACT: note_on channel=9 note=46 velocity=76 time=0
EXTRACT: note_on channel=9 note=54 velocity=47 time=0
EXTRACT: note_on channel=9 note=35 velocity=124 time=0
EXTRACT: note_on channel=13 note=73 velocity=43 time=0
EXTRACT: note_on channel=15 note=42 velocity=45 time=0
EXTRACT: note_on channel=5 note=58 velocity=91 time=0.0013888854166666665
EXTRACT: note_on channel=6 note=61 velocity=98 time=0.0013888854166666665
EXTRACT: note_on channel=2 note=42 velocity=57 time=0.0013888854166666665
EXTRACT: note_on channel=11 note=54 velocity=66 time=0.0013888854166666665
EXTRACT: note_on channel=9 note=46 velocity=0 time=0.024999937499999996
EXTRACT: note_on channel=9 note=54 velocity=0 time=0
EXTRACT: note_on channel=9 note=35 velocity=0 time=0
EXTRACT: control_change channel=2 control=64 value=100 time=0
EXTRACT: note_on channel=2 note=42 velocity=0 time=0.12499968749999998
EXTRACT: note_on channel=1 note=42 velocity=0 time=0.09722197916666665
EXTRACT: note_on channel=15 note=54 velocity=0 time=0.006944427083333333
EXTRACT: note_on channel=15 note=42 velocity=0 time=0.05416653125
EXTRACT: note_on channel=8 note=66 velocity=75 time=0.015277739583333332
EXTRACT: note_on channel=2 note=49 velocity=44 time=0.0013888854166666665
EXTRACT: note_on channel=1 note=42 velocity=114 time=0.002777770833333333
EXTRACT: note_on channel=9 note=46 velocity=54 time=0
EXTRACT: note_on channel=9 note=54 velocity=26 time=0
EXTRACT: note_on channel=15 note=49 velocity=31 time=0
EXTRACT: note_on channel=11 note=58 velocity=75 time=0.006944427083333333
EXTRACT: note_on channel=2 note=49 velocity=0 time=0.002777770833333333
EXTRACT: note_on channel=9 note=46 velocity=0 time=0.02083328125
EXTRACT: note_on channel=9 note=54 velocity=0 time=0
EXTRACT: note_on channel=8 note=61 velocity=0 time=0.12083303124999999
EXTRACT: note_on channel=15 note=49 velocity=0 time=0.13194411458333333
EXTRACT: note_on channel=11 note=54 velocity=0 time=0.008333312499999999
EXTRACT: note_on channel=8 note=61 velocity=70 time=0.03749990625
EXTRACT: note_on channel=9 note=46 velocity=79 time=0.004166656249999999
EXTRACT: note_on channel=9 note=54 velocity=47 time=0
EXTRACT: note_on channel=15 note=54 velocity=53 time=0
EXTRACT: note_on channel=15 note=58 velocity=52 time=0
EXTRACT: control_change channel=5 control=11 value=127 time=0
EXTRACT: note_on channel=11 note=54 velocity=68 time=0.0013888854166666665
EXTRACT: note_on channel=9 note=39 velocity=117 time=0.0013888854166666665
EXTRACT: note_on channel=9 note=85 velocity=78 time=0.006944427083333333
EXTRACT: note_on channel=9 note=28 velocity=74 time=0
EXTRACT: note_on channel=2 note=58 velocity=46 time=0.005555541666666666
EXTRACT: note_on channel=2 note=54 velocity=79 time=0.002777770833333333
EXTRACT: note_on channel=1 note=42 velocity=0 time=0.002777770833333333
EXTRACT: note_on channel=9 note=46 velocity=0 time=0.009722197916666666
EXTRACT: note_on channel=9 note=54 velocity=0 time=0.0013888854166666665
EXTRACT: note_on channel=9 note=39 velocity=0 time=0.002777770833333333
EXTRACT: note_on channel=9 note=85 velocity=0 time=0.006944427083333333
EXTRACT: note_on channel=9 note=28 velocity=0 time=0
EXTRACT: note_on channel=2 note=54 velocity=0 time=0.009722197916666666
EXTRACT: note_on channel=9 note=85 velocity=126 time=0
EXTRACT: note_on channel=2 note=58 velocity=0 time=0.03194436458333333
EXTRACT: note_on channel=9 note=85 velocity=0 time=0
EXTRACT: control_change channel=5 control=11 value=124 time=0
EXTRACT: control_change channel=15 control=11 value=127 time=0.06249984374999999
EXTRACT: control_change channel=5 control=11 value=122 time=0.02083328125
EXTRACT: control_change channel=15 control=11 value=123 time=0.02083328125
EXTRACT: control_change channel=15 control=11 value=119 time=0.0416665625
EXTRACT: note_on channel=8 note=66 velocity=0 time=0.005555541666666666
EXTRACT: control_change channel=5 control=11 value=121 time=0.015277739583333332
EXTRACT: control_change channel=15 control=11 value=115 time=0.02083328125
EXTRACT: note_on channel=11 note=54 velocity=0 time=0.02361105208333333
EXTRACT: note_on channel=11 note=58 velocity=0 time=0.006944427083333333
EXTRACT: control_change channel=15 control=11 value=111 time=0.011111083333333332
EXTRACT: note_on channel=6 note=58 velocity=0 time=0.009722197916666666
EXTRACT: note_on channel=5 note=58 velocity=0 time=0
EXTRACT: note_on channel=1 note=42 velocity=115 time=0.011111083333333332
EXTRACT: note_on channel=5 note=56 velocity=97 time=0
EXTRACT: note_on channel=6 note=56 velocity=91 time=0
EXTRACT: note_on channel=8 note=65 velocity=71 time=0
EXTRACT: note_on channel=9 note=46 velocity=61 time=0
EXTRACT: note_on channel=9 note=35 velocity=110 time=0
EXTRACT: note_on channel=9 note=54 velocity=31 time=0
EXTRACT: control_change channel=5 control=11 value=118 time=0
EXTRACT: control_change channel=6 control=11 value=127 time=0
EXTRACT: note_on channel=11 note=61 velocity=68 time=0.0013888854166666665
EXTRACT: control_change channel=15 control=11 value=107 time=0.019444395833333333
EXTRACT: note_on channel=9 note=46 velocity=0 time=0.009722197916666666
EXTRACT: note_on channel=9 note=35 velocity=0 time=0
EXTRACT: note_on channel=9 note=54 velocity=0 time=0
EXTRACT: control_change channel=15 control=11 value=103 time=0.03194436458333333
EXTRACT: control_change channel=5 control=11 value=116 time=0.02083328125
EXTRACT: control_change channel=6 control=11 value=124 time=0
EXTRACT: control_change channel=15 control=11 value=99 time=0.02083328125
EXTRACT: control_change channel=15 control=11 value=95 time=0.0416665625
EXTRACT: control_change channel=5 control=11 value=117 time=0.02083328125
EXTRACT: control_change channel=6 control=11 value=120 time=0
EXTRACT: note_on channel=15 note=58 velocity=0 time=0.004166656249999999
EXTRACT: control_change channel=15 control=11 value=91 time=0.02361105208333333
EXTRACT: note_on channel=15 note=54 velocity=0 time=0.016666624999999997
EXTRACT: control_change channel=5 control=11 value=115 time=0.038888791666666665
EXTRACT: control_change channel=6 control=11 value=117 time=0
EXTRACT: note_on channel=1 note=42 velocity=0 time=0.002777770833333333
EXTRACT: note_on channel=13 note=70 velocity=0 time=0.04305544791666666
EXTRACT: control_change channel=2 control=64 value=0 time=0.005555541666666666
EXTRACT: note_on channel=13 note=68 velocity=38 time=0.004166656249999999
EXTRACT: note_on channel=13 note=66 velocity=0 time=0.002777770833333333
EXTRACT: control_change channel=15 control=11 value=127 time=0.004166656249999999
EXTRACT: note_on channel=11 note=49 velocity=69 time=0.013888854166666666
EXTRACT: control_change channel=2 control=64 value=100 time=0
EXTRACT: note_on channel=1 note=37 velocity=114 time=0.006944427083333333
EXTRACT: note_on channel=2 note=41 velocity=57 time=0
EXTRACT: note_on channel=2 note=49 velocity=42 time=0
EXTRACT: note_on channel=2 note=56 velocity=75 time=0
EXTRACT: note_on channel=9 note=46 velocity=78 time=0
EXTRACT: note_on channel=9 note=35 velocity=124 time=0
EXTRACT: note_on channel=9 note=54 velocity=49 time=0
EXTRACT: control_change channel=5 control=11 value=112 time=0
EXTRACT: control_change channel=6 control=11 value=113 time=0
EXTRACT: note_on channel=2 note=41 velocity=0 time=0.005555541666666666
EXTRACT: note_on channel=2 note=49 velocity=0 time=0.004166656249999999
EXTRACT: note_on channel=13 note=65 velocity=35 time=0.002777770833333333
EXTRACT: note_on channel=15 note=56 velocity=60 time=0.008333312499999999
EXTRACT: note_on channel=2 note=56 velocity=0 time=0.004166656249999999
EXTRACT: note_on channel=9 note=46 velocity=0 time=0.005555541666666666
EXTRACT: note_on channel=9 note=35 velocity=0 time=0
EXTRACT: note_on channel=9 note=54 velocity=0 time=0.0013888854166666665
EXTRACT: control_change channel=5 control=11 value=111 time=0.05138876041666666
EXTRACT: control_change channel=6 control=11 value=110 time=0
EXTRACT: control_change channel=5 control=11 value=109 time=0.083333125
EXTRACT: control_change channel=6 control=11 value=106 time=0
EXTRACT: note_on channel=8 note=61 velocity=0 time=0.07222204166666665
EXTRACT: control_change channel=5 control=11 value=108 time=0.011111083333333332
EXTRACT: control_change channel=6 control=11 value=103 time=0
EXTRACT: note_on channel=1 note=37 velocity=0 time=0.002777770833333333
EXTRACT: note_on channel=1 note=37 velocity=114 time=0.08055535416666666
EXTRACT: note_on channel=8 note=61 velocity=71 time=0
EXTRACT: note_on channel=9 note=46 velocity=69 time=0
EXTRACT: note_on channel=9 note=35 velocity=80 time=0
EXTRACT: note_on channel=9 note=54 velocity=36 time=0
EXTRACT: control_change channel=5 control=11 value=107 time=0
EXTRACT: control_change channel=6 control=11 value=98 time=0
EXTRACT: control_change channel=15 control=11 value=127 time=0.006944427083333333
EXTRACT: note_on channel=9 note=46 velocity=0 time=0.02361105208333333
EXTRACT: note_on channel=9 note=35 velocity=0 time=0
EXTRACT: note_on channel=9 note=54 velocity=0 time=0
EXTRACT: control_change channel=15 control=11 value=123 time=0.018055510416666663
EXTRACT: control_change channel=5 control=11 value=105 time=0.03472213541666666
EXTRACT: control_change channel=6 control=11 value=96 time=0
EXTRACT: control_change channel=15 control=11 value=119 time=0.006944427083333333
EXTRACT: control_change channel=15 control=11 value=115 time=0.0416665625
EXTRACT: note_on channel=8 note=65 velocity=0 time=0.02361105208333333
EXTRACT: control_change channel=5 control=11 value=103 time=0.011111083333333332
EXTRACT: control_change channel=6 control=11 value=93 time=0
EXTRACT: control_change channel=15 control=11 value=111 time=0.006944427083333333
EXTRACT: control_change channel=15 control=11 value=107 time=0.0416665625
EXTRACT: note_on channel=11 note=61 velocity=0 time=0.02083328125
EXTRACT: note_on channel=1 note=37 velocity=0 time=0.002777770833333333
EXTRACT: control_change channel=5 control=11 value=101 time=0.011111083333333332
EXTRACT: control_change channel=6 control=11 value=89 time=0
EXTRACT: control_change channel=15 control=11 value=103 time=0.006944427083333333
EXTRACT: control_change channel=15 control=11 value=99 time=0.0416665625
EXTRACT: note_on channel=11 note=49 velocity=0 time=0.008333312499999999
EXTRACT: note_on channel=3 note=66 velocity=111 time=0
EXTRACT: note_on channel=1 note=37 velocity=115 time=0.0013888854166666665
EXTRACT: note_on channel=9 note=46 velocity=78 time=0
EXTRACT: note_on channel=9 note=54 velocity=47 time=0
EXTRACT: control_change channel=5 control=11 value=101 time=0
EXTRACT: control_change channel=6 control=11 value=84 time=0
EXTRACT: note_on channel=8 note=65 velocity=86 time=0.0013888854166666665
EXTRACT: note_on channel=9 note=39 velocity=110 time=0.0013888854166666665
EXTRACT: note_on channel=11 note=56 velocity=79 time=0
EXTRACT: control_change channel=15 control=11 value=94 time=0.004166656249999999
EXTRACT: note_on channel=9 note=85 velocity=73 time=0.002777770833333333
EXTRACT: note_on channel=9 note=28 velocity=97 time=0
EXTRACT: note_on channel=9 note=46 velocity=0 time=0.02083328125
EXTRACT: note_on channel=9 note=54 velocity=0 time=0.0013888854166666665
EXTRACT: note_on channel=9 note=39 velocity=0 time=0.002777770833333333
EXTRACT: note_on channel=9 note=85 velocity=0 time=0.006944427083333333
EXTRACT: note_on channel=9 note=28 velocity=0 time=0
EXTRACT: note_on channel=9 note=85 velocity=126 time=0.009722197916666666
EXTRACT: control_change channel=15 control=11 value=91 time=0.004166656249999999
EXTRACT: note_on channel=9 note=85 velocity=0 time=0.02777770833333333
EXTRACT: control_change channel=5 control=11 value=99 time=0
EXTRACT: control_change channel=6 control=11 value=83 time=0
EXTRACT: note_on channel=8 note=65 velocity=0 time=0.06249984374999999
EXTRACT: note_on channel=8 note=66 velocity=73 time=0.008333312499999999
EXTRACT: control_change channel=5 control=11 value=97 time=0.012499968749999998
EXTRACT: control_change channel=6 control=11 value=79 time=0
EXTRACT: note_on channel=15 note=56 velocity=0 time=0.030555479166666663
EXTRACT: note_on channel=8 note=61 velocity=0 time=0.0416665625
EXTRACT: note_on channel=1 note=37 velocity=0 time=0
EXTRACT: control_change channel=5 control=11 value=95 time=0.011111083333333332
EXTRACT: control_change channel=6 control=11 value=74 time=0
EXTRACT: note_on channel=3 note=66 velocity=0 time=0.004166656249999999
EXTRACT: control_change channel=15 control=11 value=126 time=0.04444433333333333
EXTRACT: note_on channel=5 note=56 velocity=0 time=0.02361105208333333
EXTRACT: note_on channel=3 note=68 velocity=111 time=0
EXTRACT: note_on channel=1 note=37 velocity=115 time=0.006944427083333333
EXTRACT: note_on channel=2 note=49 velocity=29 time=0
EXTRACT: note_on channel=9 note=46 velocity=62 time=0
EXTRACT: note_on channel=9 note=35 velocity=117 time=0
EXTRACT: note_on channel=9 note=54 velocity=37 time=0
EXTRACT: note_on channel=15 note=56 velocity=53 time=0
EXTRACT: control_change channel=5 control=11 value=93 time=0
EXTRACT: control_change channel=6 control=11 value=71 time=0
EXTRACT: note_on channel=8 note=61 velocity=75 time=0.006944427083333333
EXTRACT: note_on channel=2 note=56 velocity=56 time=0.008333312499999999
EXTRACT: note_on channel=5 note=61 velocity=0 time=0.012499968749999998
EXTRACT: note_on channel=9 note=46 velocity=0 time=0.002777770833333333
EXTRACT: note_on channel=9 note=35 velocity=0 time=0
EXTRACT: note_on channel=9 note=54 velocity=0 time=0
EXTRACT: note_on channel=2 note=56 velocity=0 time=0.011111083333333332
EXTRACT: note_on channel=6 note=61 velocity=0 time=0.009722197916666666
EXTRACT: control_change channel=5 control=11 value=91 time=0.03194436458333333
EXTRACT: control_change channel=6 control=11 value=69 time=0
EXTRACT: note_on channel=6 note=56 velocity=0 time=0.02083328125
EXTRACT: control_change channel=6 control=11 value=65 time=0.06249984374999999
EXTRACT: note_on channel=15 note=56 velocity=0 time=0.009722197916666666
EXTRACT: note_on channel=13 note=73 velocity=0 time=0.008333312499999999
EXTRACT: note_on channel=3 note=68 velocity=0 time=0.02083328125
EXTRACT: control_change channel=2 control=64 value=0 time=0.0749998125
EXTRACT: note_on channel=13 note=68 velocity=0 time=0.0013888854166666665
EXTRACT: note_on channel=11 note=56 velocity=0 time=0.009722197916666666
EXTRACT: control_change channel=5 control=11 value=87 time=0.013888854166666666
EXTRACT: note_on channel=8 note=66 velocity=0 time=0.0013888854166666665
EXTRACT: note_on channel=13 note=70 velocity=45 time=0.012499968749999998
EXTRACT: note_on channel=13 note=63 velocity=35 time=0.0013888854166666665
EXTRACT: note_on channel=1 note=37 velocity=0 time=0.0013888854166666665
EXTRACT: note_on channel=13 note=65 velocity=0 time=0
EXTRACT: note_on channel=3 note=70 velocity=110 time=0
EXTRACT: note_on channel=9 note=54 velocity=43 time=0.004166656249999999
EXTRACT: note_on channel=1 note=27 velocity=119 time=0.0013888854166666665
EXTRACT: note_on channel=9 note=46 velocity=77 time=0
EXTRACT: note_on channel=9 note=35 velocity=121 time=0
EXTRACT: note_on channel=11 note=51 velocity=66 time=0
EXTRACT: note_on channel=15 note=39 velocity=40 time=0
EXTRACT: note_on channel=2 note=39 velocity=52 time=0.004166656249999999
EXTRACT: note_on channel=5 note=61 velocity=91 time=0.005555541666666666
EXTRACT: note_on channel=8 note=58 velocity=57 time=0
EXTRACT: control_change channel=2 control=64 value=100 time=0.011111083333333332
EXTRACT: note_on channel=13 note=66 velocity=37 time=0.002777770833333333
EXTRACT: note_on channel=5 note=58 velocity=107 time=0.002777770833333333
EXTRACT: note_on channel=9 note=54 velocity=0 time=0.004166656249999999
EXTRACT: note_on channel=9 note=46 velocity=0 time=0
EXTRACT: note_on channel=9 note=35 velocity=0 time=0
EXTRACT: control_change channel=5 control=11 value=89 time=0.05277764583333333
EXTRACT: note_on channel=2 note=39 velocity=0 time=0.07222204166666665
EXTRACT: control_change channel=5 control=11 value=91 time=0.011111083333333332
EXTRACT: note_on channel=3 note=70 velocity=0 time=0.07222204166666665
EXTRACT: control_change channel=5 control=11 value=93 time=0.011111083333333332
EXTRACT: note_on channel=8 note=61 velocity=0 time=0.0416665625
EXTRACT: note_on channel=15 note=39 velocity=0 time=0.033333249999999995
EXTRACT: note_on channel=3 note=70 velocity=110 time=0
EXTRACT: note_on channel=9 note=46 velocity=65 time=0.002777770833333333
EXTRACT: note_on channel=9 note=54 velocity=28 time=0
EXTRACT: note_on channel=11 note=61 velocity=62 time=0
EXTRACT: note_on channel=15 note=54 velocity=31 time=0
EXTRACT: control_change channel=5 control=11 value=95 time=0
EXTRACT: note_on channel=8 note=66 velocity=75 time=0.004166656249999999
EXTRACT: note_on channel=2 note=54 velocity=46 time=0.002777770833333333
EXTRACT: note_on channel=2 note=54 velocity=0 time=0.013888854166666666
EXTRACT: note_on channel=9 note=46 velocity=0 time=0.009722197916666666
EXTRACT: note_on channel=9 note=54 velocity=0 time=0
EXTRACT: control_change channel=5 control=11 value=97 time=0.05277764583333333
EXTRACT: control_change channel=5 control=11 value=99 time=0.083333125
EXTRACT: note_on channel=3 note=70 velocity=0 time=0.012499968749999998
EXTRACT: control_change channel=5 control=11 value=101 time=0.07083315624999999
EXTRACT: note_on channel=8 note=58 velocity=0 time=0.009722197916666666
EXTRACT: note_on channel=15 note=54 velocity=0 time=0.061110958333333326
EXTRACT: note_on channel=1 note=27 velocity=0 time=0.0013888854166666665
EXTRACT: note_on channel=11 note=51 velocity=0 time=0
EXTRACT: note_on channel=3 note=70 velocity=111 time=0
EXTRACT: note_on channel=8 note=61 velocity=71 time=0
EXTRACT: note_on channel=9 note=46 velocity=77 time=0.004166656249999999
EXTRACT: note_on channel=9 note=54 velocity=45 time=0
EXTRACT: note_on channel=11 note=54 velocity=73 time=0
EXTRACT: note_on channel=15 note=58 velocity=42 time=0
EXTRACT: note_on channel=15 note=61 velocity=53 time=0
EXTRACT: control_change channel=5 control=11 value=103 time=0
EXTRACT: note_on channel=9 note=39 velocity=113 time=0.002777770833333333
EXTRACT: note_on channel=2 note=58 velocity=61 time=0.004166656249999999
EXTRACT: note_on channel=9 note=28 velocity=69 time=0.002777770833333333
EXTRACT: note_on channel=9 note=85 velocity=79 time=0.005555541666666666
EXTRACT: note_on channel=2 note=61 velocity=74 time=0.011111083333333332
EXTRACT: note_on channel=9 note=46 velocity=0 time=0.004166656249999999
EXTRACT: note_on channel=9 note=54 velocity=0 time=0
EXTRACT: note_on channel=9 note=39 velocity=0 time=0.004166656249999999
EXTRACT: note_on channel=2 note=61 velocity=0 time=0.006944427083333333
EXTRACT: note_on channel=9 note=28 velocity=0 time=0
EXTRACT: note_on channel=9 note=85 velocity=0 time=0.005555541666666666
EXTRACT: note_on channel=2 note=58 velocity=0 time=0.004166656249999999
EXTRACT: note_on channel=9 note=85 velocity=127 time=0.005555541666666666
EXTRACT: control_change channel=5 control=11 value=105 time=0.026388822916666665
EXTRACT: note_on channel=9 note=85 velocity=0 time=0.005555541666666666
EXTRACT: control_change channel=5 control=11 value=107 time=0.07777758333333333
EXTRACT: control_change channel=15 control=11 value=126 time=0
EXTRACT: note_on channel=11 note=61 velocity=0 time=0.009722197916666666
EXTRACT: control_change channel=15 control=11 value=123 time=0.03194436458333333
EXTRACT: control_change channel=5 control=11 value=109 time=0.0416665625
EXTRACT: control_change channel=6 control=11 value=89 time=0
EXTRACT: control_change channel=15 control=11 value=118 time=0
EXTRACT: note_on channel=3 note=70 velocity=0 time=0.015277739583333332
EXTRACT: control_change channel=15 control=11 value=115 time=0.026388822916666665
EXTRACT: note_on channel=8 note=61 velocity=0 time=0.033333249999999995
EXTRACT: note_on channel=3 note=71 velocity=110 time=0
EXTRACT: note_on channel=8 note=59 velocity=71 time=0.004166656249999999
EXTRACT: note_on channel=1 note=34 velocity=120 time=0.004166656249999999
EXTRACT: note_on channel=6 note=58 velocity=98 time=0
EXTRACT: note_on channel=9 note=46 velocity=51 time=0
EXTRACT: note_on channel=9 note=54 velocity=35 time=0
EXTRACT: note_on channel=9 note=35 velocity=111 time=0
EXTRACT: note_on channel=11 note=61 velocity=64 time=0
EXTRACT: control_change channel=5 control=11 value=110 time=0
EXTRACT: control_change channel=6 control=11 value=91 time=0
EXTRACT: control_change channel=15 control=11 value=110 time=0
EXTRACT: note_on channel=6 note=61 velocity=86 time=0.009722197916666666
EXTRACT: note_on channel=9 note=46 velocity=0 time=0.02083328125
EXTRACT: note_on channel=9 note=54 velocity=0 time=0
EXTRACT: note_on channel=9 note=35 velocity=0 time=0
EXTRACT: control_change channel=15 control=11 value=107 time=0.011111083333333332
EXTRACT: control_change channel=5 control=11 value=113 time=0.0416665625
EXTRACT: control_change channel=6 control=11 value=95 time=0
EXTRACT: control_change channel=15 control=11 value=102 time=0
EXTRACT: control_change channel=15 control=11 value=98 time=0.0416665625
EXTRACT: note_on channel=8 note=66 velocity=0 time=0.02777770833333333
EXTRACT: control_change channel=5 control=11 value=114 time=0.013888854166666666
EXTRACT: control_change channel=6 control=11 value=97 time=0
EXTRACT: control_change channel=15 control=11 value=95 time=0
EXTRACT: note_on channel=15 note=61 velocity=0 time=0.0416665625
EXTRACT: control_change channel=15 control=11 value=91 time=0.006944427083333333
EXTRACT: note_on channel=3 note=71 velocity=0 time=0.012499968749999998
EXTRACT: control_change channel=5 control=11 value=116 time=0.022222166666666664
EXTRACT: control_change channel=6 control=11 value=99 time=0
EXTRACT: note_on channel=13 note=70 velocity=0 time=0.004166656249999999
EXTRACT: note_on channel=15 note=58 velocity=0 time=0.026388822916666665
EXTRACT: note_on channel=11 note=54 velocity=0 time=0.005555541666666666
EXTRACT: note_on channel=13 note=71 velocity=43 time=0.02361105208333333
EXTRACT: control_change channel=2 control=64 value=0 time=0.002777770833333333
EXTRACT: note_on channel=1 note=34 velocity=0 time=0.009722197916666666
EXTRACT: note_on channel=6 note=58 velocity=0 time=0
EXTRACT: note_on channel=11 note=61 velocity=0 time=0
EXTRACT: note_on channel=5 note=63 velocity=83 time=0
EXTRACT: note_on channel=3 note=70 velocity=110 time=0
EXTRACT: note_on channel=8 note=66 velocity=69 time=0
EXTRACT: note_on channel=5 note=61 velocity=0 time=0
EXTRACT: note_on channel=1 note=35 velocity=120 time=0.004166656249999999
EXTRACT: note_on channel=6 note=59 velocity=99 time=0
EXTRACT: note_on channel=6 note=66 velocity=85 time=0
EXTRACT: note_on channel=9 note=46 velocity=75 time=0
EXTRACT: note_on channel=9 note=35 velocity=121 time=0
EXTRACT: note_on channel=9 note=54 velocity=45 time=0
EXTRACT: note_on channel=11 note=59 velocity=72 time=0
EXTRACT: note_on channel=15 note=47 velocity=39 time=0
EXTRACT: control_change channel=5 control=11 value=119 time=0
EXTRACT: control_change channel=6 control=11 value=101 time=0
EXTRACT: control_change channel=15 control=11 value=127 time=0
EXTRACT: note_on channel=6 note=61 velocity=0 time=0
EXTRACT: note_on channel=2 note=47 velocity=64 time=0.004166656249999999
EXTRACT: control_change channel=2 control=64 value=100 time=0.005555541666666666
EXTRACT: note_on channel=5 note=58 velocity=0 time=0.005555541666666666
EXTRACT: note_on channel=5 note=59 velocity=101 time=0.0013888854166666665
EXTRACT: note_on channel=9 note=46 velocity=0 time=0.013888854166666666
EXTRACT: note_on channel=9 note=35 velocity=0 time=0
EXTRACT: note_on channel=9 note=54 velocity=0 time=0
EXTRACT: control_change channel=5 control=11 value=120 time=0.05277764583333333
EXTRACT: control_change channel=6 control=11 value=103 time=0
EXTRACT: control_change channel=5 control=11 value=123 time=0.083333125
EXTRACT: control_change channel=6 control=11 value=107 time=0
EXTRACT: note_on channel=2 note=47 velocity=0 time=0.02083328125
EXTRACT: control_change channel=5 control=11 value=124 time=0.06249984374999999
EXTRACT: control_change channel=6 control=11 value=109 time=0
EXTRACT: note_on channel=8 note=59 velocity=0 time=0.009722197916666666
EXTRACT: note_on channel=3 note=70 velocity=0 time=0
EXTRACT: note_on channel=11 note=59 velocity=0 time=0.05138876041666666
EXTRACT: note_on channel=15 note=47 velocity=0 time=0.013888854166666666
EXTRACT: note_on channel=8 note=59 velocity=63 time=0.002777770833333333
EXTRACT: note_on channel=11 note=61 velocity=73 time=0.004166656249999999
EXTRACT: note_on channel=9 note=46 velocity=49 time=0.0013888854166666665
EXTRACT: note_on channel=9 note=54 velocity=31 time=0
EXTRACT: note_on channel=15 note=51 velocity=31 time=0
EXTRACT: control_change channel=5 control=11 value=127 time=0
EXTRACT: control_change channel=6 control=11 value=111 time=0
EXTRACT: note_on channel=2 note=51 velocity=43 time=0.006944427083333333
EXTRACT: note_on channel=3 note=68 velocity=111 time=0
EXTRACT: note_on channel=9 note=46 velocity=0 time=0.013888854166666666
EXTRACT: note_on channel=9 note=54 velocity=0 time=0
EXTRACT: note_on channel=2 note=51 velocity=0 time=0.02083328125
EXTRACT: control_change channel=6 control=11 value=113 time=0.03194436458333333
EXTRACT: control_change channel=6 control=11 value=115 time=0.083333125
EXTRACT: note_on channel=3 note=68 velocity=0 time=0.083333125
EXTRACT: control_change channel=6 control=11 value=119 time=0
EXTRACT: note_on channel=8 note=66 velocity=0 time=0.009722197916666666
EXTRACT: note_on channel=15 note=51 velocity=0 time=0.05138876041666666
EXTRACT: note_on channel=1 note=35 velocity=0 time=0.011111083333333332
EXTRACT: note_on channel=8 note=66 velocity=71 time=0.006944427083333333
EXTRACT: note_on channel=2 note=54 velocity=71 time=0.0013888854166666665
EXTRACT: note_on channel=11 note=61 velocity=0 time=0.002777770833333333
EXTRACT: note_on channel=9 note=46 velocity=75 time=0
EXTRACT: note_on channel=9 note=54 velocity=47 time=0
EXTRACT: note_on channel=11 note=59 velocity=75 time=0
EXTRACT: note_on channel=15 note=54 velocity=43 time=0
EXTRACT: note_on channel=15 note=59 velocity=52 time=0
EXTRACT: control_change channel=6 control=11 value=121 time=0
EXTRACT: note_on channel=3 note=66 velocity=111 time=0
EXTRACT: note_on channel=9 note=39 velocity=115 time=0.0013888854166666665
EXTRACT: note_on channel=2 note=59 velocity=74 time=0.002777770833333333
EXTRACT: note_on channel=9 note=28 velocity=73 time=0.004166656249999999
EXTRACT: note_on channel=9 note=85 velocity=73 time=0.005555541666666666
EXTRACT: note_on channel=2 note=59 velocity=0 time=0.005555541666666666
EXTRACT: note_on channel=2 note=54 velocity=0 time=0.009722197916666666
EXTRACT: note_on channel=9 note=46 velocity=0 time=0
EXTRACT: note_on channel=9 note=54 velocity=0 time=0
EXTRACT: note_on channel=9 note=39 velocity=0 time=0.004166656249999999
EXTRACT: note_on channel=9 note=28 velocity=0 time=0.006944427083333333
EXTRACT: note_on channel=9 note=85 velocity=0 time=0.005555541666666666
EXTRACT: note_on channel=9 note=85 velocity=126 time=0.009722197916666666
EXTRACT: control_change channel=6 control=11 value=123 time=0.026388822916666665
EXTRACT: note_on channel=9 note=85 velocity=0 time=0.005555541666666666
EXTRACT: control_change channel=15 control=11 value=126 time=0.04999987499999999
EXTRACT: control_change channel=6 control=11 value=127 time=0.02777770833333333
EXTRACT: control_change channel=15 control=11 value=122 time=0.013888854166666666
EXTRACT: control_change channel=15 control=11 value=118 time=0.0416665625
EXTRACT: note_on channel=8 note=59 velocity=0 time=0.006944427083333333
EXTRACT: control_change channel=15 control=11 value=114 time=0.03472213541666666
EXTRACT: note_on channel=3 note=66 velocity=0 time=0.016666624999999997
EXTRACT: control_change channel=15 control=11 value=111 time=0.024999937499999996
EXTRACT: note_on channel=3 note=68 velocity=110 time=0
EXTRACT: note_on channel=8 note=59 velocity=71 time=0.015277739583333332
EXTRACT: note_on channel=9 note=54 velocity=31 time=0.002777770833333333
EXTRACT: note_on channel=1 note=35 velocity=120 time=0.0013888854166666665
EXTRACT: note_on channel=9 note=46 velocity=58 time=0
EXTRACT: note_on channel=9 note=35 velocity=113 time=0
EXTRACT: note_on channel=11 note=54 velocity=48 time=0.005555541666666666
EXTRACT: note_on channel=2 note=49 velocity=34 time=0.0013888854166666665
EXTRACT: control_change channel=15 control=11 value=106 time=0.006944427083333333
EXTRACT: note_on channel=9 note=54 velocity=0 time=0.016666624999999997
EXTRACT: note_on channel=9 note=46 velocity=0 time=0
EXTRACT: note_on channel=9 note=35 velocity=0 time=0
EXTRACT: note_on channel=2 note=49 velocity=0 time=0.02083328125
EXTRACT: control_change channel=15 control=11 value=102 time=0.004166656249999999
EXTRACT: control_change channel=15 control=11 value=99 time=0.0416665625
EXTRACT: control_change channel=15 control=11 value=95 time=0.0416665625
EXTRACT: note_on channel=1 note=35 velocity=0 time=0.016666624999999997
EXTRACT: note_on channel=15 note=59 velocity=0 time=0.011111083333333332
EXTRACT: control_change channel=15 control=11 value=90 time=0.02083328125
EXTRACT: note_on channel=3 note=68 velocity=0 time=0.05138876041666666
EXTRACT: note_on channel=13 note=63 velocity=0 time=0.004166656249999999
EXTRACT: note_on channel=15 note=54 velocity=0 time=0.02777770833333333
EXTRACT: note_on channel=13 note=66 velocity=0 time=0.013888854166666666
EXTRACT: note_on channel=6 note=59 velocity=0 time=0.004166656249999999
EXTRACT: note_on channel=11 note=59 velocity=0 time=0.011111083333333332
EXTRACT: control_change channel=15 control=11 value=126 time=0.005555541666666666
EXTRACT: note_on channel=13 note=71 velocity=0 time=0.004166656249999999
EXTRACT: note_on channel=8 note=59 velocity=0 time=0.002777770833333333
EXTRACT: control_change channel=2 control=64 value=0 time=0
EXTRACT: note_on channel=11 note=54 velocity=0 time=0.005555541666666666
EXTRACT: note_on channel=13 note=70 velocity=43 time=0.0013888854166666665
EXTRACT: note_on channel=3 note=70 velocity=111 time=0
EXTRACT: note_on channel=5 note=59 velocity=0 time=0.0013888854166666665
EXTRACT: note_on channel=6 note=66 velocity=0 time=0
EXTRACT: note_on channel=5 note=63 velocity=0 time=0.0013888854166666665
EXTRACT: note_on channel=13 note=66 velocity=32 time=0.005555541666666666
EXTRACT: note_on channel=8 note=66 velocity=0 time=0.004166656249999999
EXTRACT: note_on channel=5 note=61 velocity=83 time=0
EXTRACT: note_on channel=6 note=58 velocity=97 time=0
EXTRACT: note_on channel=8 note=61 velocity=69 time=0
EXTRACT: note_on channel=9 note=46 velocity=76 time=0
EXTRACT: note_on channel=9 note=54 velocity=47 time=0
EXTRACT: note_on channel=9 note=35 velocity=124 time=0
EXTRACT: note_on channel=15 note=42 velocity=45 time=0
EXTRACT: note_on channel=5 note=58 velocity=91 time=0.0013888854166666665
EXTRACT: note_on channel=13 note=61 velocity=31 time=0
EXTRACT: note_on channel=6 note=61 velocity=98 time=0.0013888854166666665
EXTRACT: note_on channel=2 note=42 velocity=57 time=0.0013888854166666665
EXTRACT: note_on channel=11 note=54 velocity=67 time=0.0013888854166666665
EXTRACT: note_on channel=1 note=30 velocity=122 time=0.0013888854166666665
EXTRACT: note_on channel=9 note=46 velocity=0 time=0.02361105208333333
EXTRACT: note_on channel=9 note=54 velocity=0 time=0
EXTRACT: note_on channel=9 note=35 velocity=0 time=0
EXTRACT: control_change channel=2 control=64 value=100 time=0
EXTRACT: note_on channel=2 note=42 velocity=0 time=0.12499968749999998
EXTRACT: note_on channel=3 note=70 velocity=0 time=0.083333125
EXTRACT: note_on channel=1 note=30 velocity=0 time=0.02777770833333333
EXTRACT: note_on channel=15 note=42 velocity=0 time=0.04722210416666666
EXTRACT: note_on channel=3 note=70 velocity=111 time=0
EXTRACT: note_on channel=8 note=66 velocity=75 time=0.005555541666666666
EXTRACT: note_on channel=2 note=49 velocity=48 time=0.0013888854166666665
EXTRACT: note_on channel=1 note=30 velocity=123 time=0.002777770833333333
EXTRACT: note_on channel=9 note=46 velocity=55 time=0
EXTRACT: note_on channel=9 note=54 velocity=26 time=0
EXTRACT: note_on channel=15 note=49 velocity=31 time=0
EXTRACT: note_on channel=11 note=58 velocity=75 time=0.006944427083333333
EXTRACT: note_on channel=2 note=49 velocity=0 time=0.002777770833333333
EXTRACT: note_on channel=9 note=46 velocity=0 time=0.02083328125
EXTRACT: note_on channel=9 note=54 velocity=0 time=0
EXTRACT: note_on channel=3 note=70 velocity=0 time=0.083333125
EXTRACT: note_on channel=8 note=61 velocity=0 time=0.03749990625
EXTRACT: note_on channel=3 note=70 velocity=110 time=0
EXTRACT: note_on channel=11 note=54 velocity=0 time=0.13055522916666665
EXTRACT: note_on channel=8 note=61 velocity=71 time=0.03749990625
EXTRACT: note_on channel=9 note=46 velocity=79 time=0.004166656249999999
EXTRACT: note_on channel=9 note=54 velocity=46 time=0
EXTRACT: note_on channel=15 note=54 velocity=59 time=0
EXTRACT: note_on channel=15 note=58 velocity=44 time=0
EXTRACT: control_change channel=5 control=11 value=126 time=0
EXTRACT: note_on channel=11 note=54 velocity=68 time=0.0013888854166666665
EXTRACT: note_on channel=9 note=39 velocity=114 time=0.0013888854166666665
EXTRACT: note_on channel=15 note=49 velocity=0 time=0.002777770833333333
EXTRACT: note_on channel=9 note=85 velocity=78 time=0.004166656249999999
EXTRACT: note_on channel=9 note=28 velocity=73 time=0
EXTRACT: note_on channel=2 note=58 velocity=50 time=0.005555541666666666
EXTRACT: note_on channel=2 note=54 velocity=69 time=0.002777770833333333
EXTRACT: note_on channel=9 note=46 velocity=0 time=0.012499968749999998
EXTRACT: note_on channel=9 note=54 velocity=0 time=0.0013888854166666665
EXTRACT: note_on channel=9 note=39 velocity=0 time=0.002777770833333333
EXTRACT: note_on channel=9 note=85 velocity=0 time=0.006944427083333333
EXTRACT: note_on channel=9 note=28 velocity=0 time=0
EXTRACT: note_on channel=2 note=54 velocity=0 time=0.009722197916666666
EXTRACT: note_on channel=9 note=85 velocity=127 time=0
EXTRACT: note_on channel=2 note=58 velocity=0 time=0.03194436458333333
EXTRACT: control_change channel=5 control=11 value=124 time=0
EXTRACT: note_on channel=9 note=85 velocity=0 time=0
EXTRACT: note_on channel=1 note=30 velocity=0 time=0.030555479166666663
EXTRACT: control_change channel=15 control=11 value=127 time=0.03194436458333333
EXTRACT: control_change channel=5 control=11 value=123 time=0.02083328125
EXTRACT: control_change channel=15 control=11 value=122 time=0.02083328125
EXTRACT: control_change channel=15 control=11 value=118 time=0.0416665625
EXTRACT: note_on channel=8 note=66 velocity=0 time=0.005555541666666666
EXTRACT: note_on channel=3 note=70 velocity=0 time=0.015277739583333332
EXTRACT: control_change channel=5 control=11 value=121 time=0
EXTRACT: control_change channel=15 control=11 value=115 time=0.02083328125
EXTRACT: note_on channel=11 note=54 velocity=0 time=0.02361105208333333
EXTRACT: note_on channel=11 note=58 velocity=0 time=0.006944427083333333
EXTRACT: control_change channel=15 control=11 value=111 time=0.011111083333333332
EXTRACT: note_on channel=6 note=58 velocity=0 time=0.009722197916666666
EXTRACT: note_on channel=5 note=58 velocity=0 time=0
EXTRACT: note_on channel=1 note=25 velocity=102 time=0.011111083333333332
EXTRACT: note_on channel=5 note=56 velocity=97 time=0
EXTRACT: note_on channel=6 note=56 velocity=90 time=0
EXTRACT: note_on channel=8 note=65 velocity=71 time=0
EXTRACT: note_on channel=9 note=46 velocity=61 time=0
EXTRACT: note_on channel=9 note=35 velocity=112 time=0
EXTRACT: note_on channel=9 note=54 velocity=31 time=0
EXTRACT: control_change channel=5 control=11 value=119 time=0
EXTRACT: control_change channel=6 control=11 value=127 time=0
EXTRACT: note_on channel=11 note=61 velocity=69 time=0.0013888854166666665
EXTRACT: note_on channel=3 note=71 velocity=111 time=0
EXTRACT: control_change channel=15 control=11 value=106 time=0.013888854166666666
EXTRACT: note_on channel=9 note=46 velocity=0 time=0.009722197916666666
EXTRACT: note_on channel=9 note=35 velocity=0 time=0
EXTRACT: note_on channel=9 note=54 velocity=0 time=0
EXTRACT: control_change channel=15 control=11 value=103 time=0.03194436458333333
EXTRACT: note_on channel=1 note=25 velocity=0 time=0.009722197916666666
EXTRACT: control_change channel=5 control=11 value=116 time=0.011111083333333332
EXTRACT: control_change channel=6 control=11 value=125 time=0
EXTRACT: control_change channel=15 control=11 value=99 time=0.02083328125
EXTRACT: control_change channel=15 control=11 value=94 time=0.0416665625
EXTRACT: control_change channel=5 control=11 value=116 time=0.02083328125
EXTRACT: control_change channel=6 control=11 value=121 time=0
EXTRACT: control_change channel=15 control=11 value=91 time=0.02777770833333333
EXTRACT: note_on channel=3 note=71 velocity=0 time=0.002777770833333333
EXTRACT: note_on channel=15 note=58 velocity=0 time=0.02083328125
EXTRACT: control_change channel=5 control=11 value=114 time=0.03194436458333333
EXTRACT: control_change channel=6 control=11 value=116 time=0
EXTRACT: note_on channel=13 note=70 velocity=0 time=0.045833218749999995
EXTRACT: control_change channel=2 control=64 value=0 time=0.005555541666666666
EXTRACT: note_on channel=13 note=68 velocity=39 time=0.004166656249999999
EXTRACT: note_on channel=15 note=54 velocity=0 time=0.0013888854166666665
EXTRACT: note_on channel=13 note=66 velocity=0 time=0.0013888854166666665
EXTRACT: control_change channel=15 control=11 value=127 time=0.004166656249999999
EXTRACT: note_on channel=11 note=49 velocity=69 time=0.013888854166666666
EXTRACT: note_on channel=3 note=70 velocity=111 time=0
EXTRACT: note_on channel=1 note=25 velocity=122 time=0.0013888854166666665
EXTRACT: note_on channel=9 note=46 velocity=78 time=0
EXTRACT: note_on channel=9 note=35 velocity=120 time=0
EXTRACT: note_on channel=9 note=54 velocity=48 time=0
EXTRACT: control_change channel=5 control=11 value=112 time=0
EXTRACT: control_change channel=6 control=11 value=113 time=0
EXTRACT: note_on channel=2 note=41 velocity=57 time=0.004166656249999999
EXTRACT: note_on channel=13 note=65 velocity=35 time=0.008333312499999999
EXTRACT: note_on channel=15 note=56 velocity=29 time=0.008333312499999999
EXTRACT: control_change channel=2 control=64 value=100 time=0
EXTRACT: note_on channel=9 note=46 velocity=0 time=0.009722197916666666
EXTRACT: note_on channel=9 note=35 velocity=0 time=0
EXTRACT: note_on channel=9 note=54 velocity=0 time=0.0013888854166666665
EXTRACT: note_on channel=2 note=56 velocity=74 time=0.004166656249999999
EXTRACT: note_on channel=2 note=53 velocity=55 time=0.002777770833333333
EXTRACT: note_on channel=2 note=56 velocity=0 time=0.02361105208333333
EXTRACT: control_change channel=5 control=11 value=111 time=0.02083328125
EXTRACT: control_change channel=6 control=11 value=110 time=0
EXTRACT: control_change channel=5 control=11 value=108 time=0.083333125
EXTRACT: control_change channel=6 control=11 value=106 time=0
EXTRACT: note_on channel=2 note=41 velocity=0 time=0.02083328125
EXTRACT: note_on channel=8 note=61 velocity=0 time=0.05138876041666666
EXTRACT: control_change channel=5 control=11 value=108 time=0.011111083333333332
EXTRACT: control_change channel=6 control=11 value=103 time=0
EXTRACT: note_on channel=1 note=25 velocity=0 time=0.009722197916666666
EXTRACT: note_on channel=3 note=70 velocity=0 time=0.03194436458333333
EXTRACT: note_on channel=3 note=68 velocity=111 time=0
EXTRACT: note_on channel=8 note=61 velocity=71 time=0
EXTRACT: note_on channel=9 note=46 velocity=60 time=0
EXTRACT: note_on channel=9 note=54 velocity=37 time=0
EXTRACT: control_change channel=5 control=11 value=107 time=0
EXTRACT: control_change channel=6 control=11 value=98 time=0
EXTRACT: note_on channel=1 note=25 velocity=123 time=0.006944427083333333
EXTRACT: note_on channel=9 note=46 velocity=0 time=0.02361105208333333
EXTRACT: note_on channel=9 note=54 velocity=0 time=0
EXTRACT: control_change channel=5 control=11 value=105 time=0.05277764583333333
EXTRACT: control_change channel=6 control=11 value=97 time=0
EXTRACT: note_on channel=8 note=65 velocity=0 time=0.07222204166666665
EXTRACT: control_change channel=5 control=11 value=102 time=0.011111083333333332
EXTRACT: control_change channel=6 control=11 value=92 time=0
EXTRACT: note_on channel=3 note=68 velocity=0 time=0.06249984374999999
EXTRACT: note_on channel=11 note=61 velocity=0 time=0.006944427083333333
EXTRACT: control_change channel=5 control=11 value=100 time=0.013888854166666666
EXTRACT: control_change channel=6 control=11 value=89 time=0
EXTRACT: note_on channel=11 note=49 velocity=0 time=0.05694430208333333
EXTRACT: note_on channel=9 note=46 velocity=79 time=0.026388822916666665
EXTRACT: note_on channel=9 note=54 velocity=46 time=0
EXTRACT: control_change channel=5 control=11 value=101 time=0
EXTRACT: control_change channel=6 control=11 value=84 time=0
EXTRACT: note_on channel=9 note=39 velocity=113 time=0.002777770833333333
EXTRACT: note_on channel=11 note=56 velocity=79 time=0
EXTRACT: note_on channel=2 note=49 velocity=43 time=0.004166656249999999
EXTRACT: note_on channel=9 note=85 velocity=72 time=0.002777770833333333
EXTRACT: note_on channel=9 note=28 velocity=68 time=0
EXTRACT: note_on channel=8 note=65 velocity=89 time=0.0013888854166666665
EXTRACT: note_on channel=9 note=46 velocity=0 time=0.019444395833333333
EXTRACT: note_on channel=9 note=54 velocity=0 time=0.0013888854166666665
EXTRACT: note_on channel=9 note=39 velocity=0 time=0.002777770833333333
EXTRACT: note_on channel=9 note=85 velocity=0 time=0.006944427083333333
EXTRACT: note_on channel=9 note=28 velocity=0 time=0
EXTRACT: note_on channel=9 note=85 velocity=127 time=0.009722197916666666
EXTRACT: note_on channel=1 note=25 velocity=0 time=0.02083328125
EXTRACT: control_change channel=5 control=11 value=98 time=0.011111083333333332
EXTRACT: control_change channel=6 control=11 value=82 time=0
EXTRACT: note_on channel=9 note=85 velocity=0 time=0
EXTRACT: control_change channel=15 control=11 value=127 time=0.03472213541666666
EXTRACT: note_on channel=8 note=65 velocity=0 time=0.02777770833333333
EXTRACT: control_change channel=15 control=11 value=123 time=0.013888854166666666
EXTRACT: note_on channel=8 note=66 velocity=67 time=0.005555541666666666
EXTRACT: control_change channel=5 control=11 value=96 time=0.0013888854166666665
EXTRACT: control_change channel=6 control=11 value=79 time=0
EXTRACT: control_change channel=15 control=11 value=119 time=0.03472213541666666
EXTRACT: note_on channel=8 note=61 velocity=0 time=0.03749990625
EXTRACT: note_on channel=2 note=49 velocity=0 time=0
EXTRACT: control_change channel=15 control=11 value=115 time=0.004166656249999999
EXTRACT: control_change channel=5 control=11 value=95 time=0.006944427083333333
EXTRACT: control_change channel=6 control=11 value=75 time=0
EXTRACT: control_change channel=15 control=11 value=111 time=0.03472213541666666
EXTRACT: note_on channel=5 note=56 velocity=0 time=0.03749990625
EXTRACT: control_change channel=15 control=11 value=107 time=0.004166656249999999
EXTRACT: note_on channel=3 note=66 velocity=111 time=0
EXTRACT: note_on channel=1 note=25 velocity=121 time=0.0013888854166666665
EXTRACT: note_on channel=9 note=46 velocity=61 time=0
EXTRACT: note_on channel=9 note=35 velocity=114 time=0
EXTRACT: note_on channel=9 note=54 velocity=36 time=0
EXTRACT: control_change channel=5 control=11 value=93 time=0
EXTRACT: control_change channel=6 control=11 value=71 time=0
EXTRACT: note_on channel=2 note=56 velocity=46 time=0.006944427083333333
EXTRACT: note_on channel=8 note=61 velocity=75 time=0
EXTRACT: note_on channel=5 note=61 velocity=0 time=0.02083328125
EXTRACT: note_on channel=9 note=46 velocity=0 time=0.002777770833333333
EXTRACT: note_on channel=9 note=35 velocity=0 time=0
EXTRACT: note_on channel=9 note=54 velocity=0 time=0
EXTRACT: control_change channel=15 control=11 value=103 time=0.004166656249999999
EXTRACT: note_on channel=6 note=61 velocity=0 time=0.016666624999999997
EXTRACT: note_on channel=2 note=56 velocity=0 time=0.02083328125
EXTRACT: control_change channel=15 control=11 value=99 time=0.004166656249999999
EXTRACT: control_change channel=5 control=11 value=90 time=0.006944427083333333
EXTRACT: control_change channel=6 control=11 value=68 time=0
EXTRACT: note_on channel=1 note=25 velocity=0 time=0.009722197916666666
EXTRACT: note_on channel=6 note=56 velocity=0 time=0.011111083333333332
EXTRACT: control_change channel=15 control=11 value=95 time=0.013888854166666666
EXTRACT: note_on channel=15 note=56 velocity=0 time=0.03749990625
EXTRACT: control_change channel=6 control=11 value=64 time=0.011111083333333332
EXTRACT: control_change channel=15 control=11 value=91 time=0
EXTRACT: note_on channel=3 note=66 velocity=0 time=0.09027755208333332
EXTRACT: control_change channel=2 control=64 value=0 time=0.02361105208333333
EXTRACT: note_on channel=13 note=68 velocity=0 time=0.0013888854166666665
EXTRACT: note_on channel=13 note=61 velocity=0 time=0.002777770833333333
EXTRACT: note_on channel=11 note=56 velocity=0 time=0.006944427083333333
EXTRACT: note_on channel=8 note=66 velocity=0 time=0.02083328125
EXTRACT: note_on channel=13 note=65 velocity=0 time=0.009722197916666666
EXTRACT: control_change channel=15 control=11 value=127 time=0.004166656249999999
EXTRACT: note_on channel=3 note=70 velocity=111 time=0
EXTRACT: note_on channel=1 note=23 velocity=118 time=0.002777770833333333
EXTRACT: note_on channel=8 note=59 velocity=69 time=0
EXTRACT: note_on channel=9 note=46 velocity=76 time=0
EXTRACT: note_on channel=9 note=35 velocity=121 time=0
EXTRACT: note_on channel=11 note=47 velocity=67 time=0
EXTRACT: note_on channel=13 note=61 velocity=37 time=0
EXTRACT: note_on channel=15 note=47 velocity=47 time=0
EXTRACT: note_on channel=2 note=47 velocity=53 time=0.004166656249999999
EXTRACT: note_on channel=9 note=54 velocity=43 time=0.005555541666666666
EXTRACT: control_change channel=2 control=64 value=100 time=0.011111083333333332
EXTRACT: note_on channel=13 note=66 velocity=37 time=0.002777770833333333
EXTRACT: note_on channel=9 note=46 velocity=0 time=0.006944427083333333
EXTRACT: note_on channel=9 note=35 velocity=0 time=0
EXTRACT: note_on channel=9 note=54 velocity=0 time=0.011111083333333332
EXTRACT: note_on channel=13 note=59 velocity=20 time=0.013888854166666666
EXTRACT: control_change channel=5 control=11 value=87 time=0.058333187499999994
EXTRACT: note_on channel=2 note=47 velocity=0 time=0.0416665625
EXTRACT: note_on channel=3 note=70 velocity=0 time=0.07777758333333333
EXTRACT: note_on channel=8 note=61 velocity=0 time=0.07916646875
EXTRACT: note_on channel=15 note=47 velocity=0 time=0.012499968749999998
EXTRACT: note_on channel=3 note=70 velocity=111 time=0
EXTRACT: note_on channel=9 note=46 velocity=65 time=0.002777770833333333
EXTRACT: note_on channel=9 note=54 velocity=28 time=0
EXTRACT: note_on channel=11 note=61 velocity=63 time=0
EXTRACT: note_on channel=8 note=66 velocity=75 time=0.004166656249999999
EXTRACT: note_on channel=2 note=54 velocity=47 time=0.002777770833333333
EXTRACT: note_on channel=2 note=54 velocity=0 time=0.013888854166666666
EXTRACT: note_on channel=15 note=54 velocity=37 time=0.006944427083333333
EXTRACT: note_on channel=9 note=46 velocity=0 time=0.002777770833333333
EXTRACT: note_on channel=9 note=54 velocity=0 time=0
EXTRACT: note_on channel=3 note=70 velocity=0 time=0.17083290624999997
EXTRACT: control_change channel=6 control=11 value=126 time=0.04444433333333333
EXTRACT: note_on channel=8 note=59 velocity=0 time=0.03472213541666666
EXTRACT: note_on channel=11 note=47 velocity=0 time=0.0416665625
EXTRACT: note_on channel=8 note=61 velocity=71 time=0.006944427083333333
EXTRACT: note_on channel=3 note=70 velocity=111 time=0
EXTRACT: note_on channel=9 note=46 velocity=77 time=0.0013888854166666665
EXTRACT: note_on channel=9 note=54 velocity=44 time=0
EXTRACT: note_on channel=11 note=54 velocity=73 time=0
EXTRACT: note_on channel=9 note=39 velocity=117 time=0.002777770833333333
EXTRACT: note_on channel=2 note=58 velocity=49 time=0.004166656249999999
EXTRACT: note_on channel=9 note=85 velocity=79 time=0.002777770833333333
EXTRACT: note_on channel=9 note=28 velocity=75 time=0
EXTRACT: note_on channel=15 note=54 velocity=0 time=0.005555541666666666
EXTRACT: note_on channel=2 note=61 velocity=73 time=0.011111083333333332
EXTRACT: note_on channel=15 note=58 velocity=43 time=0.0013888854166666665
EXTRACT: note_on channel=15 note=61 velocity=53 time=0
EXTRACT: note_on channel=9 note=46 velocity=0 time=0.002777770833333333
EXTRACT: note_on channel=9 note=54 velocity=0 time=0
EXTRACT: note_on channel=9 note=39 velocity=0 time=0.004166656249999999
EXTRACT: note_on channel=9 note=85 velocity=0 time=0.006944427083333333
EXTRACT: note_on channel=9 note=28 velocity=0 time=0
EXTRACT: note_on channel=2 note=61 velocity=0 time=0
EXTRACT: note_on channel=9 note=85 velocity=127 time=0.009722197916666666
EXTRACT: note_on channel=2 note=58 velocity=0 time=0
EXTRACT: note_on channel=1 note=23 velocity=0 time=0.02083328125
EXTRACT: note_on channel=9 note=85 velocity=0 time=0.011111083333333332
EXTRACT: control_change channel=15 control=11 value=127 time=0.083333125
EXTRACT: note_on channel=11 note=61 velocity=0 time=0.009722197916666666
EXTRACT: control_change channel=15 control=11 value=123 time=0.03194436458333333
EXTRACT: note_on channel=3 note=70 velocity=0 time=0.009722197916666666
EXTRACT: control_change channel=15 control=11 value=119 time=0.03194436458333333
EXTRACT: control_change channel=15 control=11 value=115 time=0.0416665625
EXTRACT: note_on channel=8 note=61 velocity=0 time=0.033333249999999995
EXTRACT: note_on channel=8 note=59 velocity=71 time=0.004166656249999999
EXTRACT: note_on channel=3 note=71 velocity=111 time=0
EXTRACT: note_on channel=1 note=23 velocity=120 time=0.0013888854166666665
EXTRACT: note_on channel=2 note=54 velocity=47 time=0
EXTRACT: note_on channel=9 note=46 velocity=51 time=0
EXTRACT: note_on channel=9 note=54 velocity=35 time=0
EXTRACT: note_on channel=9 note=35 velocity=113 time=0
EXTRACT: note_on channel=11 note=61 velocity=53 time=0
EXTRACT: control_change channel=15 control=11 value=111 time=0
EXTRACT: note_on channel=2 note=54 velocity=0 time=0.012499968749999998
EXTRACT: note_on channel=9 note=46 velocity=0 time=0.018055510416666663
EXTRACT: note_on channel=9 note=54 velocity=0 time=0
EXTRACT: note_on channel=9 note=35 velocity=0 time=0
EXTRACT: control_change channel=15 control=11 value=107 time=0.011111083333333332
EXTRACT: control_change channel=15 control=11 value=103 time=0.0416665625
EXTRACT: note_on channel=1 note=23 velocity=0 time=0.009722197916666666
EXTRACT: control_change channel=15 control=11 value=99 time=0.03194436458333333
EXTRACT: note_on channel=8 note=66 velocity=0 time=0.02777770833333333
EXTRACT: control_change channel=15 control=11 value=95 time=0.013888854166666666
EXTRACT: note_on channel=3 note=71 velocity=0 time=0.04722210416666666
EXTRACT: control_change channel=15 control=11 value=90 time=0.0013888854166666665
EXTRACT: note_on channel=15 note=61 velocity=0 time=0.02083328125
EXTRACT: note_on channel=11 note=54 velocity=0 time=0.04999987499999999
EXTRACT: note_on channel=15 note=58 velocity=0 time=0.022222166666666664
EXTRACT: control_change channel=2 control=64 value=0 time=0.004166656249999999
EXTRACT: note_on channel=11 note=61 velocity=0 time=0.009722197916666666
EXTRACT: note_on channel=8 note=66 velocity=68 time=0.006944427083333333
EXTRACT: note_on channel=3 note=70 velocity=111 time=0
EXTRACT: note_on channel=1 note=23 velocity=119 time=0.0013888854166666665
EXTRACT: note_on channel=9 note=46 velocity=75 time=0
EXTRACT: note_on channel=9 note=35 velocity=121 time=0
EXTRACT: note_on channel=9 note=54 velocity=45 time=0
EXTRACT: note_on channel=11 note=59 velocity=73 time=0
EXTRACT: control_change channel=15 control=11 value=127 time=0
EXTRACT: note_on channel=2 note=47 velocity=65 time=0.004166656249999999
EXTRACT: control_change channel=2 control=64 value=100 time=0.005555541666666666
EXTRACT: note_on channel=15 note=47 velocity=43 time=0.018055510416666663
EXTRACT: note_on channel=9 note=46 velocity=0 time=0.002777770833333333
EXTRACT: note_on channel=9 note=35 velocity=0 time=0
EXTRACT: note_on channel=9 note=54 velocity=0 time=0
EXTRACT: note_on channel=2 note=47 velocity=0 time=0.1569440520833333
EXTRACT: note_on channel=8 note=59 velocity=0 time=0.07222204166666665
EXTRACT: note_on channel=3 note=70 velocity=0 time=0.038888791666666665
EXTRACT: note_on channel=11 note=59 velocity=0 time=0.012499968749999998
EXTRACT: note_on channel=2 note=54 velocity=43 time=0.0013888854166666665
EXTRACT: note_on channel=8 note=61 velocity=63 time=0.015277739583333332
EXTRACT: note_on channel=3 note=68 velocity=111 time=0
EXTRACT: note_on channel=11 note=61 velocity=73 time=0.0013888854166666665
EXTRACT: note_on channel=9 note=46 velocity=49 time=0.0013888854166666665
EXTRACT: note_on channel=9 note=54 velocity=31 time=0
EXTRACT: note_on channel=15 note=47 velocity=0 time=0.019444395833333333
EXTRACT: note_on channel=2 note=54 velocity=0 time=0.004166656249999999
EXTRACT: note_on channel=15 note=51 velocity=53 time=0.004166656249999999
EXTRACT: note_on channel=9 note=46 velocity=0 time=0.002777770833333333
EXTRACT: note_on channel=9 note=54 velocity=0 time=0
EXTRACT: note_on channel=3 note=68 velocity=0 time=0.24027717708333332
EXTRACT: note_on channel=3 note=66 velocity=111 time=0
EXTRACT: note_on channel=11 note=61 velocity=0 time=0.002777770833333333
EXTRACT: note_on channel=9 note=46 velocity=75 time=0
EXTRACT: note_on channel=9 note=54 velocity=47 time=0
EXTRACT: note_on channel=11 note=54 velocity=63 time=0
EXTRACT: note_on channel=9 note=39 velocity=117 time=0.002777770833333333
EXTRACT: note_on channel=9 note=85 velocity=73 time=0.006944427083333333
EXTRACT: note_on channel=9 note=28 velocity=75 time=0
EXTRACT: note_on channel=9 note=46 velocity=0 time=0.02083328125
EXTRACT: note_on channel=9 note=54 velocity=0 time=0
EXTRACT: note_on channel=9 note=39 velocity=0 time=0.004166656249999999
EXTRACT: note_on channel=9 note=85 velocity=0 time=0.006944427083333333
EXTRACT: note_on channel=9 note=28 velocity=0 time=0
EXTRACT: note_on channel=9 note=85 velocity=127 time=0.009722197916666666
EXTRACT: note_on channel=8 note=66 velocity=0 time=0.02083328125
EXTRACT: note_on channel=1 note=23 velocity=0 time=0
EXTRACT: note_on channel=9 note=85 velocity=0 time=0.011111083333333332
EXTRACT: control_change channel=15 control=11 value=126 time=0.05555541666666666
EXTRACT: note_on channel=15 note=51 velocity=0 time=0.016666624999999997
EXTRACT: control_change channel=15 control=11 value=122 time=0.024999937499999996
EXTRACT: note_on channel=3 note=66 velocity=0 time=0.006944427083333333
EXTRACT: control_change channel=15 control=11 value=119 time=0.03472213541666666
EXTRACT: note_on channel=8 note=61 velocity=0 time=0.006944427083333333
EXTRACT: control_change channel=15 control=11 value=114 time=0.03472213541666666
EXTRACT: note_on channel=15 note=61 velocity=65 time=0.0416665625
EXTRACT: control_change channel=15 control=11 value=111 time=0
EXTRACT: note_on channel=8 note=66 velocity=68 time=0.02361105208333333
EXTRACT: note_on channel=3 note=66 velocity=111 time=0
EXTRACT: note_on channel=9 note=54 velocity=31 time=0
EXTRACT: note_on channel=1 note=23 velocity=120 time=0.0013888854166666665
EXTRACT: note_on channel=9 note=46 velocity=59 time=0
EXTRACT: note_on channel=9 note=35 velocity=111 time=0
EXTRACT: note_on channel=15 note=54 velocity=73 time=0
EXTRACT: note_on channel=11 note=61 velocity=65 time=0.005555541666666666
EXTRACT: control_change channel=15 control=11 value=106 time=0.008333312499999999
EXTRACT: note_on channel=9 note=54 velocity=0 time=0.016666624999999997
EXTRACT: note_on channel=9 note=46 velocity=0 time=0
EXTRACT: note_on channel=9 note=35 velocity=0 time=0
EXTRACT: note_on channel=2 note=61 velocity=51 time=0.022222166666666664
EXTRACT: note_on channel=2 note=66 velocity=71 time=0
EXTRACT: control_change channel=15 control=11 value=103 time=0.002777770833333333
EXTRACT: note_on channel=2 note=61 velocity=0 time=0.030555479166666663
EXTRACT: note_on channel=2 note=66 velocity=0 time=0
EXTRACT: note_on channel=1 note=23 velocity=0 time=0.006944427083333333
EXTRACT: control_change channel=15 control=11 value=98 time=0.004166656249999999
EXTRACT: control_change channel=15 control=11 value=94 time=0.0416665625
EXTRACT: note_on channel=11 note=54 velocity=0 time=0.016666624999999997
EXTRACT: note_on channel=9 note=62 velocity=73 time=0.05277764583333333
EXTRACT: note_on channel=13 note=59 velocity=0 time=0.030555479166666663
EXTRACT: note_on channel=9 note=62 velocity=0 time=0
EXTRACT: note_on channel=13 note=61 velocity=0 time=0.02777770833333333
EXTRACT: control_change channel=15 control=11 value=127 time=0.038888791666666665
EXTRACT: note_on channel=1 note=23 velocity=118 time=0.02777770833333333
EXTRACT: note_on channel=2 note=54 velocity=39 time=0
EXTRACT: note_on channel=8 note=61 velocity=44 time=0
EXTRACT: note_on channel=9 note=49 velocity=80 time=0
EXTRACT: note_on channel=9 note=35 velocity=121 time=0
EXTRACT: note_on channel=9 note=49 velocity=0 time=0.030555479166666663
EXTRACT: note_on channel=9 note=35 velocity=0 time=0
EXTRACT: note_on channel=13 note=66 velocity=0 time=0.013888854166666666
EXTRACT: note_on channel=2 note=54 velocity=0 time=0
EXTRACT: control_change channel=15 control=11 value=127 time=0.038888791666666665
EXTRACT: note_on channel=11 note=61 velocity=0 time=0.07222204166666665
EXTRACT: control_change channel=15 control=11 value=123 time=0.011111083333333332
EXTRACT: control_change channel=3 control=11 value=81 time=0.05555541666666666
EXTRACT: control_change channel=15 control=11 value=116 time=0.02777770833333333
EXTRACT: note_on channel=3 note=66 velocity=0 time=0.030555479166666663
EXTRACT: note_on channel=3 note=66 velocity=111 time=0
EXTRACT: control_change channel=15 control=11 value=110 time=0.0013888854166666665
EXTRACT: control_change channel=15 control=11 value=104 time=0.083333125
EXTRACT: control_change channel=3 control=1 value=5 time=0.02777770833333333
EXTRACT: control_change channel=1 control=11 value=127 time=0.05555541666666666
EXTRACT: control_change channel=15 control=11 value=100 time=0
EXTRACT: control_change channel=1 control=11 value=122 time=0.083333125
EXTRACT: control_change channel=15 control=11 value=95 time=0
EXTRACT: control_change channel=1 control=11 value=119 time=0.083333125
EXTRACT: control_change channel=15 control=11 value=88 time=0
EXTRACT: note_on channel=8 note=66 velocity=0 time=0.07222204166666665
EXTRACT: control_change channel=1 control=11 value=113 time=0.011111083333333332
EXTRACT: control_change channel=15 control=11 value=82 time=0
EXTRACT: control_change channel=2 control=64 value=0 time=0.024999937499999996
EXTRACT: note_on channel=3 note=66 velocity=0 time=0.016666624999999997
EXTRACT: note_on channel=15 note=54 velocity=0 time=0.030555479166666663
EXTRACT: control_change channel=1 control=11 value=108 time=0.011111083333333332
EXTRACT: control_change channel=15 control=11 value=77 time=0
EXTRACT: note_on channel=15 note=61 velocity=0 time=0.07222204166666665
EXTRACT: note_on channel=8 note=61 velocity=0 time=0
EXTRACT: control_change channel=1 control=11 value=103 time=0.011111083333333332
EXTRACT: control_change channel=15 control=11 value=73 time=0
EXTRACT: control_change channel=1 control=11 value=99 time=0.083333125
EXTRACT: control_change channel=15 control=11 value=66 time=0
EXTRACT: note_on channel=3 note=54 velocity=111 time=0
EXTRACT: control_change channel=1 control=11 value=93 time=0.04305544791666666
EXTRACT: control_change channel=1 control=11 value=89 time=0.083333125
EXTRACT: note_on channel=3 note=54 velocity=0 time=0.019444395833333333
EXTRACT: control_change channel=1 control=11 value=85 time=0.06388872916666666
EXTRACT: control_change channel=1 control=11 value=79 time=0.083333125
EXTRACT: note_on channel=3 note=54 velocity=111 time=0
EXTRACT: note_on channel=1 note=23 velocity=0 time=0.04305544791666666
EXTRACT: note_on channel=3 note=54 velocity=0 time=0.21805501041666664
EXTRACT: note_on channel=3 note=56 velocity=111 time=0
EXTRACT: note_on channel=3 note=56 velocity=0 time=0.26388822916666665
EXTRACT: note_on channel=3 note=58 velocity=111 time=0
EXTRACT: control_change channel=1 control=11 value=127 time=0.005555541666666666
EXTRACT: control_change channel=15 control=11 value=126 time=0.2527771458333333
EXTRACT: note_on channel=3 note=58 velocity=0 time=0.0013888854166666665
EXTRACT: note_on channel=3 note=61 velocity=111 time=0
EXTRACT: note_on channel=8 note=58 velocity=35 time=0.22083278124999997
EXTRACT: note_on channel=8 note=61 velocity=50 time=0.04722210416666666
EXTRACT: note_on channel=1 note=39 velocity=91 time=0.024999937499999996
EXTRACT: note_on channel=15 note=39 velocity=37 time=0
EXTRACT: note_on channel=13 note=39 velocity=12 time=0.0013888854166666665
EXTRACT: note_on channel=2 note=39 velocity=30 time=0.002777770833333333
EXTRACT: control_change channel=2 control=64 value=100 time=0.016666624999999997
EXTRACT: note_on channel=13 note=51 velocity=19 time=0.002777770833333333
EXTRACT: note_on channel=13 note=54 velocity=23 time=0
EXTRACT: note_on channel=13 note=58 velocity=27 time=0.002777770833333333
EXTRACT: note_on channel=8 note=66 velocity=53 time=0.009722197916666666
EXTRACT: note_on channel=2 note=39 velocity=0 time=0.11944414583333332
EXTRACT: note_on channel=3 note=61 velocity=0 time=0.05277764583333333
EXTRACT: note_on channel=15 note=39 velocity=0 time=0.11666637499999999
EXTRACT: note_on channel=15 note=54 velocity=26 time=0.008333312499999999
EXTRACT: note_on channel=2 note=54 velocity=22 time=0.006944427083333333
EXTRACT: note_on channel=3 note=61 velocity=111 time=0
EXTRACT: note_on channel=2 note=54 velocity=0 time=0.012499968749999998
EXTRACT: note_on channel=8 note=66 velocity=0 time=0.12638857291666666
EXTRACT: note_on channel=8 note=58 velocity=0 time=0.004166656249999999
EXTRACT: note_on channel=8 note=61 velocity=0 time=0.019444395833333333
EXTRACT: note_on channel=15 note=54 velocity=0 time=0.149999625
EXTRACT: note_on channel=8 note=58 velocity=48 time=0.012499968749999998
EXTRACT: note_on channel=8 note=61 velocity=55 time=0
EXTRACT: note_on channel=9 note=44 velocity=32 time=0
EXTRACT: note_on channel=15 note=58 velocity=37 time=0
EXTRACT: note_on channel=15 note=61 velocity=47 time=0
EXTRACT: note_on channel=1 note=39 velocity=0 time=0.009722197916666666
EXTRACT: note_on channel=2 note=61 velocity=63 time=0.016666624999999997
EXTRACT: note_on channel=9 note=44 velocity=0 time=0.004166656249999999
EXTRACT: note_on channel=2 note=61 velocity=0 time=0.011111083333333332
EXTRACT: note_on channel=8 note=61 velocity=0 time=0.0013888854166666665
EXTRACT: note_on channel=8 note=58 velocity=0 time=0.004166656249999999
EXTRACT: control_change channel=15 control=11 value=127 time=0.11944414583333332
EXTRACT: control_change channel=15 control=11 value=122 time=0.0416665625
EXTRACT: control_change channel=15 control=11 value=118 time=0.0416665625
EXTRACT: control_change channel=15 control=11 value=115 time=0.0416665625
EXTRACT: note_on channel=8 note=54 velocity=48 time=0.0416665625
EXTRACT: control_change channel=15 control=11 value=111 time=0
EXTRACT: note_on channel=8 note=63 velocity=50 time=0.016666624999999997
EXTRACT: note_on channel=8 note=59 velocity=55 time=0.0013888854166666665
EXTRACT: control_change channel=15 control=11 value=106 time=0.02361105208333333
EXTRACT: control_change channel=15 control=11 value=103 time=0.0416665625
EXTRACT: control_change channel=15 control=11 value=99 time=0.0416665625
EXTRACT: note_on channel=15 note=61 velocity=0 time=0.004166656249999999
EXTRACT: control_change channel=15 control=11 value=94 time=0.03749990625
EXTRACT: control_change channel=15 control=11 value=91 time=0.048610989583333326
EXTRACT: note_on channel=15 note=58 velocity=0 time=0.016666624999999997
EXTRACT: note_on channel=13 note=58 velocity=0 time=0.06249984374999999
EXTRACT: control_change channel=2 control=64 value=0 time=0.018055510416666663
EXTRACT: note_on channel=1 note=35 velocity=79 time=0.006944427083333333
EXTRACT: note_on channel=13 note=47 velocity=12 time=0.0013888854166666665
EXTRACT: note_on channel=15 note=47 velocity=32 time=0.012499968749999998
EXTRACT: control_change channel=15 control=11 value=127 time=0
EXTRACT: note_on channel=13 note=39 velocity=0 time=0.002777770833333333
EXTRACT: note_on channel=13 note=59 velocity=25 time=0
EXTRACT: note_on channel=2 note=47 velocity=41 time=0.0013888854166666665
EXTRACT: control_change channel=2 control=64 value=100 time=0.005555541666666666
EXTRACT: note_on channel=3 note=61 velocity=0 time=0.05277764583333333
EXTRACT: note_on channel=2 note=47 velocity=0 time=0.12499968749999998
EXTRACT: note_on channel=15 note=47 velocity=0 time=0.13749965625
EXTRACT: note_on channel=15 note=51 velocity=26 time=0.008333312499999999
EXTRACT: note_on channel=2 note=51 velocity=23 time=0.006944427083333333
EXTRACT: note_on channel=2 note=51 velocity=0 time=0.04444433333333333
EXTRACT: note_on channel=15 note=51 velocity=0 time=0.25972157291666664
EXTRACT: note_on channel=8 note=54 velocity=0 time=0.011111083333333332
EXTRACT: note_on channel=2 note=54 velocity=39 time=0.008333312499999999
EXTRACT: note_on channel=9 note=44 velocity=25 time=0.002777770833333333
EXTRACT: note_on channel=15 note=54 velocity=37 time=0
EXTRACT: note_on channel=15 note=59 velocity=47 time=0
EXTRACT: note_on channel=2 note=59 velocity=43 time=0.005555541666666666
EXTRACT: note_on channel=2 note=59 velocity=0 time=0.015277739583333332
EXTRACT: note_on channel=2 note=54 velocity=0 time=0.009722197916666666
EXTRACT: note_on channel=9 note=44 velocity=0 time=0
EXTRACT: control_change channel=15 control=11 value=127 time=0.1083330625
EXTRACT: note_on channel=1 note=35 velocity=0 time=0.016666624999999997
EXTRACT: control_change channel=15 control=11 value=123 time=0.024999937499999996
EXTRACT: control_change channel=15 control=11 value=119 time=0.0416665625
EXTRACT: note_on channel=8 note=59 velocity=0 time=0.0416665625
EXTRACT: control_change channel=15 control=11 value=115 time=0
EXTRACT: control_change channel=15 control=11 value=111 time=0.0416665625
EXTRACT: note_on channel=8 note=63 velocity=0 time=0.019444395833333333
EXTRACT: control_change channel=15 control=11 value=107 time=0.022222166666666664
EXTRACT: control_change channel=15 control=11 value=103 time=0.0416665625
EXTRACT: control_change channel=15 control=11 value=99 time=0.0416665625
EXTRACT: control_change channel=15 control=11 value=95 time=0.0416665625
EXTRACT: note_on channel=15 note=59 velocity=0 time=0.0013888854166666665
EXTRACT: control_change channel=15 control=11 value=91 time=0.04722210416666666
EXTRACT: note_on channel=8 note=58 velocity=47 time=0.05694430208333333
EXTRACT: note_on channel=15 note=54 velocity=0 time=0.015277739583333332
EXTRACT: note_on channel=13 note=54 velocity=0 time=0.024999937499999996
EXTRACT: note_on channel=8 note=61 velocity=53 time=0.016666624999999997
EXTRACT: control_change channel=15 control=11 value=127 time=0.004166656249999999
EXTRACT: control_change channel=2 control=64 value=0 time=0.006944427083333333
EXTRACT: note_on channel=13 note=51 velocity=0 time=0.009722197916666666
EXTRACT: note_on channel=13 note=47 velocity=0 time=0
EXTRACT: note_on channel=13 note=54 velocity=20 time=0.006944427083333333
EXTRACT: note_on channel=1 note=42 velocity=98 time=0.004166656249999999
EXTRACT: note_on channel=15 note=42 velocity=39 time=0
EXTRACT: note_on channel=13 note=59 velocity=0 time=0.002777770833333333
EXTRACT: note_on channel=2 note=42 velocity=41 time=0.0013888854166666665
EXTRACT: note_on channel=13 note=58 velocity=25 time=0.008333312499999999
EXTRACT: note_on channel=13 note=42 velocity=12 time=0.011111083333333332
EXTRACT: note_on channel=13 note=49 velocity=16 time=0
EXTRACT: control_change channel=2 control=64 value=100 time=0.006944427083333333
EXTRACT: note_on channel=8 note=66 velocity=70 time=0.02083328125
EXTRACT: note_on channel=2 note=42 velocity=0 time=0.10416640625
EXTRACT: note_on channel=15 note=42 velocity=0 time=0.1583329375
EXTRACT: note_on channel=2 note=49 velocity=24 time=0.016666624999999997
EXTRACT: note_on channel=15 note=49 velocity=26 time=0.002777770833333333
EXTRACT: note_on channel=2 note=49 velocity=0 time=0.009722197916666666
EXTRACT: note_on channel=8 note=61 velocity=0 time=0.2569438020833333
EXTRACT: note_on channel=8 note=66 velocity=0 time=0.02777770833333333
EXTRACT: note_on channel=8 note=58 velocity=0 time=0.013888854166666666
EXTRACT: note_on channel=3 note=61 velocity=111 time=0
EXTRACT: note_on channel=8 note=58 velocity=48 time=0.004166656249999999
EXTRACT: note_on channel=8 note=61 velocity=48 time=0
EXTRACT: note_on channel=9 note=44 velocity=22 time=0
EXTRACT: note_on channel=15 note=54 velocity=37 time=0
EXTRACT: note_on channel=15 note=58 velocity=47 time=0
EXTRACT: note_on channel=15 note=49 velocity=0 time=0.005555541666666666
EXTRACT: note_on channel=2 note=58 velocity=43 time=0.009722197916666666
EXTRACT: note_on channel=2 note=54 velocity=41 time=0.002777770833333333
EXTRACT: note_on channel=8 note=58 velocity=0 time=0.002777770833333333
EXTRACT: note_on channel=8 note=61 velocity=0 time=0.002777770833333333
EXTRACT: note_on channel=9 note=44 velocity=0 time=0.006944427083333333
EXTRACT: note_on channel=1 note=42 velocity=0 time=0.02083328125
EXTRACT: note_on channel=2 note=54 velocity=0 time=0
EXTRACT: note_on channel=2 note=58 velocity=0 time=0.03194436458333333
EXTRACT: control_change channel=15 control=11 value=127 time=0.06249984374999999
EXTRACT: control_change channel=15 control=11 value=123 time=0.0416665625
EXTRACT: control_change channel=15 control=11 value=119 time=0.0416665625
EXTRACT: note_on channel=3 note=61 velocity=0 time=0.011111083333333332
EXTRACT: control_change channel=15 control=11 value=115 time=0.030555479166666663
EXTRACT: control_change channel=15 control=11 value=111 time=0.0416665625
EXTRACT: note_on channel=3 note=61 velocity=111 time=0
EXTRACT: note_on channel=1 note=37 velocity=91 time=0.002777770833333333
EXTRACT: note_on channel=8 note=65 velocity=64 time=0.011111083333333332
EXTRACT: control_change channel=15 control=11 value=107 time=0.009722197916666666
EXTRACT: note_on channel=8 note=56 velocity=57 time=0.002777770833333333
EXTRACT: note_on channel=8 note=61 velocity=48 time=0.006944427083333333
EXTRACT: control_change channel=15 control=11 value=103 time=0.03194436458333333
EXTRACT: control_change channel=15 control=11 value=99 time=0.0416665625
EXTRACT: control_change channel=15 control=11 value=95 time=0.0416665625
EXTRACT: control_change channel=15 control=11 value=90 time=0.048610989583333326
EXTRACT: note_on channel=15 note=58 velocity=0 time=0.029166593749999997
EXTRACT: note_on channel=3 note=61 velocity=0 time=0.015277739583333332
EXTRACT: note_on channel=15 note=54 velocity=0 time=0.02361105208333333
EXTRACT: control_change channel=2 control=64 value=0 time=0.038888791666666665
EXTRACT: note_on channel=13 note=54 velocity=0 time=0.006944427083333333
EXTRACT: control_change channel=15 control=11 value=127 time=0.004166656249999999
EXTRACT: note_on channel=13 note=58 velocity=0 time=0.009722197916666666
EXTRACT: note_on channel=13 note=42 velocity=0 time=0
EXTRACT: note_on channel=3 note=63 velocity=111 time=0
EXTRACT: note_on channel=2 note=49 velocity=31 time=0.0013888854166666665
EXTRACT: note_on channel=15 note=41 velocity=39 time=0
EXTRACT: note_on channel=13 note=41 velocity=11 time=0.009722197916666666
EXTRACT: note_on channel=13 note=53 velocity=21 time=0.002777770833333333
EXTRACT: control_change channel=2 control=64 value=100 time=0.008333312499999999
EXTRACT: note_on channel=13 note=56 velocity=25 time=0.005555541666666666
EXTRACT: note_on channel=2 note=49 velocity=0 time=0.1569440520833333
EXTRACT: note_on channel=3 note=63 velocity=0 time=0.11805526041666665
EXTRACT: note_on channel=15 note=41 velocity=0 time=0.02361105208333333
EXTRACT: note_on channel=3 note=61 velocity=110 time=0
EXTRACT: note_on channel=15 note=49 velocity=26 time=0
EXTRACT: note_on channel=2 note=49 velocity=24 time=0.006944427083333333
EXTRACT: note_on channel=2 note=49 velocity=0 time=0.04444433333333333
EXTRACT: note_on channel=3 note=61 velocity=0 time=0.18749953125
EXTRACT: note_on channel=15 note=49 velocity=0 time=0.09027755208333332
EXTRACT: note_on channel=3 note=58 velocity=111 time=0
EXTRACT: note_on channel=9 note=44 velocity=27 time=0.0013888854166666665
EXTRACT: note_on channel=15 note=53 velocity=31 time=0
EXTRACT: note_on channel=15 note=56 velocity=47 time=0
EXTRACT: note_on channel=1 note=37 velocity=0 time=0.009722197916666666
EXTRACT: note_on channel=2 note=56 velocity=49 time=0.005555541666666666
EXTRACT: note_on channel=9 note=44 velocity=0 time=0.015277739583333332
EXTRACT: note_on channel=2 note=56 velocity=0 time=0.011111083333333332
EXTRACT: control_change channel=15 control=11 value=126 time=0.07638869791666666
EXTRACT: control_change channel=15 control=11 value=122 time=0.0416665625
EXTRACT: control_change channel=15 control=11 value=119 time=0.0416665625
EXTRACT: note_on channel=8 note=56 velocity=0 time=0.0013888854166666665
EXTRACT: note_on channel=3 note=58 velocity=0 time=0.029166593749999997
EXTRACT: note_on channel=8 note=61 velocity=0 time=0.005555541666666666
EXTRACT: control_change channel=15 control=11 value=114 time=0.005555541666666666
EXTRACT: note_on channel=8 note=65 velocity=0 time=0.011111083333333332
EXTRACT: control_change channel=15 control=11 value=111 time=0.030555479166666663
EXTRACT: control_change channel=15 control=11 value=106 time=0.0416665625
EXTRACT: note_on channel=3 note=58 velocity=110 time=0
EXTRACT: note_on channel=2 note=49 velocity=23 time=0.005555541666666666
EXTRACT: note_on channel=15 note=37 velocity=37 time=0.015277739583333332
EXTRACT: control_change channel=15 control=11 value=103 time=0.015277739583333332
EXTRACT: note_on channel=2 note=49 velocity=0 time=0.016666624999999997
EXTRACT: note_on channel=15 note=56 velocity=0 time=0.02083328125
EXTRACT: control_change channel=15 control=11 value=98 time=0.004166656249999999
EXTRACT: control_change channel=15 control=11 value=94 time=0.0416665625
EXTRACT: control_change channel=15 control=11 value=91 time=0.048610989583333326
EXTRACT: note_on channel=15 note=53 velocity=0 time=0.0749998125
EXTRACT: note_on channel=8 note=58 velocity=34 time=0.019444395833333333
EXTRACT: note_on channel=15 note=37 velocity=0 time=0.019444395833333333
EXTRACT: control_change channel=2 control=64 value=0 time=0
EXTRACT: note_on channel=13 note=49 velocity=0 time=0.013888854166666666
EXTRACT: note_on channel=13 note=41 velocity=0 time=0.013888854166666666
EXTRACT: note_on channel=8 note=61 velocity=51 time=0
EXTRACT: note_on channel=13 note=53 velocity=0 time=0.013888854166666666
EXTRACT: control_change channel=15 control=11 value=127 time=0.004166656249999999
EXTRACT: note_on channel=1 note=39 velocity=91 time=0.006944427083333333
EXTRACT: note_on channel=15 note=39 velocity=37 time=0
EXTRACT: note_on channel=13 note=39 velocity=12 time=0.0013888854166666665
EXTRACT: note_on channel=13 note=56 velocity=0 time=0.0013888854166666665
EXTRACT: note_on channel=2 note=39 velocity=43 time=0.0013888854166666665
EXTRACT: note_on channel=13 note=58 velocity=27 time=0.008333312499999999
EXTRACT: control_change channel=2 control=64 value=100 time=0.008333312499999999
EXTRACT: note_on channel=13 note=51 velocity=19 time=0.002777770833333333
EXTRACT: note_on channel=13 note=54 velocity=23 time=0
EXTRACT: note_on channel=8 note=66 velocity=53 time=0.012499968749999998
EXTRACT: note_on channel=2 note=39 velocity=0 time=0.11944414583333332
EXTRACT: note_on channel=15 note=39 velocity=0 time=0.16944402083333332
EXTRACT: note_on channel=15 note=54 velocity=26 time=0.008333312499999999
EXTRACT: note_on channel=2 note=54 velocity=26 time=0.006944427083333333
EXTRACT: note_on channel=2 note=54 velocity=0 time=0.013888854166666666
EXTRACT: note_on channel=8 note=66 velocity=0 time=0.12638857291666666
EXTRACT: note_on channel=8 note=58 velocity=0 time=0.004166656249999999
EXTRACT: note_on channel=8 note=61 velocity=0 time=0.019444395833333333
EXTRACT: note_on channel=3 note=58 velocity=0 time=0.08888866666666666
EXTRACT: note_on channel=15 note=54 velocity=0 time=0.061110958333333326
EXTRACT: note_on channel=8 note=58 velocity=49 time=0.012499968749999998
EXTRACT: note_on channel=8 note=61 velocity=54 time=0
EXTRACT: note_on channel=8 note=66 velocity=52 time=0
EXTRACT: note_on channel=9 note=44 velocity=25 time=0
EXTRACT: note_on channel=15 note=58 velocity=37 time=0
EXTRACT: note_on channel=15 note=61 velocity=46 time=0
EXTRACT: note_on channel=2 note=58 velocity=41 time=0.006944427083333333
EXTRACT: note_on channel=3 note=58 velocity=110 time=0
EXTRACT: note_on channel=8 note=66 velocity=0 time=0.006944427083333333
EXTRACT: note_on channel=2 note=61 velocity=61 time=0
EXTRACT: note_on channel=9 note=44 velocity=0 time=0.004166656249999999
EXTRACT: note_on channel=2 note=61 velocity=0 time=0.011111083333333332
EXTRACT: note_on channel=8 note=61 velocity=0 time=0.0013888854166666665
EXTRACT: note_on channel=8 note=58 velocity=0 time=0.004166656249999999
EXTRACT: note_on channel=2 note=58 velocity=0 time=0.004166656249999999
EXTRACT: note_on channel=1 note=39 velocity=0 time=0.011111083333333332
EXTRACT: control_change channel=15 control=11 value=127 time=0.10416640625
EXTRACT: control_change channel=15 control=11 value=122 time=0.0416665625
EXTRACT: control_change channel=15 control=11 value=118 time=0.0416665625
EXTRACT: control_change channel=15 control=11 value=114 time=0.0416665625
EXTRACT: control_change channel=15 control=11 value=110 time=0.0416665625
EXTRACT: note_on channel=8 note=61 velocity=56 time=0.016666624999999997
EXTRACT: note_on channel=8 note=59 velocity=54 time=0.0013888854166666665
EXTRACT: note_on channel=8 note=54 velocity=47 time=0.009722197916666666
EXTRACT: control_change channel=15 control=11 value=107 time=0.013888854166666666
EXTRACT: control_change channel=15 control=11 value=102 time=0.0416665625
EXTRACT: control_change channel=15 control=11 value=98 time=0.0416665625
EXTRACT: control_change channel=15 control=11 value=95 time=0.0416665625
EXTRACT: control_change channel=15 control=11 value=91 time=0.048610989583333326
EXTRACT: note_on channel=15 note=61 velocity=0 time=0.018055510416666663
EXTRACT: note_on channel=13 note=58 velocity=0 time=0.04722210416666666
EXTRACT: note_on channel=15 note=58 velocity=0 time=0.013888854166666666
EXTRACT: note_on channel=3 note=58 velocity=0 time=0.006944427083333333
EXTRACT: control_change channel=2 control=64 value=0 time=0.011111083333333332
EXTRACT: note_on channel=13 note=47 velocity=12 time=0.008333312499999999
EXTRACT: note_on channel=1 note=35 velocity=90 time=0.012499968749999998
EXTRACT: note_on channel=15 note=47 velocity=33 time=0
EXTRACT: control_change channel=15 control=11 value=126 time=0
EXTRACT: note_on channel=13 note=39 velocity=0 time=0.002777770833333333
EXTRACT: note_on channel=13 note=59 velocity=25 time=0
EXTRACT: note_on channel=2 note=47 velocity=43 time=0.0013888854166666665
EXTRACT: control_change channel=2 control=64 value=100 time=0.005555541666666666
EXTRACT: note_on channel=2 note=47 velocity=0 time=0.17777733333333332
EXTRACT: note_on channel=15 note=47 velocity=0 time=0.13749965625
EXTRACT: note_on channel=15 note=51 velocity=26 time=0.008333312499999999
EXTRACT: note_on channel=2 note=51 velocity=31 time=0.006944427083333333
EXTRACT: note_on channel=2 note=51 velocity=0 time=0.04444433333333333
EXTRACT: note_on channel=15 note=51 velocity=0 time=0.25972157291666664
EXTRACT: note_on channel=2 note=54 velocity=50 time=0.019444395833333333
EXTRACT: note_on channel=9 note=44 velocity=22 time=0.002777770833333333
EXTRACT: note_on channel=15 note=54 velocity=36 time=0
EXTRACT: note_on channel=15 note=59 velocity=46 time=0
EXTRACT: note_on channel=2 note=59 velocity=61 time=0.005555541666666666
EXTRACT: note_on channel=8 note=54 velocity=0 time=0.011111083333333332
EXTRACT: note_on channel=2 note=59 velocity=0 time=0.004166656249999999
EXTRACT: note_on channel=2 note=54 velocity=0 time=0.009722197916666666
EXTRACT: note_on channel=9 note=44 velocity=0 time=0
EXTRACT: control_change channel=15 control=11 value=126 time=0.1083330625
EXTRACT: control_change channel=15 control=11 value=123 time=0.0416665625
EXTRACT: control_change channel=15 control=11 value=118 time=0.0416665625
EXTRACT: note_on channel=8 note=59 velocity=0 time=0.0416665625
EXTRACT: control_change channel=15 control=11 value=114 time=0
EXTRACT: control_change channel=15 control=11 value=111 time=0.0416665625
EXTRACT: note_on channel=1 note=35 velocity=0 time=0.002777770833333333
EXTRACT: note_on channel=8 note=61 velocity=0 time=0.016666624999999997
EXTRACT: control_change channel=15 control=11 value=107 time=0.022222166666666664
EXTRACT: control_change channel=15 control=11 value=102 time=0.0416665625
EXTRACT: control_change channel=15 control=11 value=99 time=0.0416665625
EXTRACT: note_on channel=15 note=54 velocity=0 time=0.016666624999999997
EXTRACT: control_change channel=15 control=11 value=95 time=0.024999937499999996
EXTRACT: note_on channel=15 note=54 velocity=37 time=0.02777770833333333
EXTRACT: note_on channel=2 note=54 velocity=34 time=0.018055510416666663
EXTRACT: note_on channel=15 note=59 velocity=0 time=0.006944427083333333
EXTRACT: note_on channel=2 note=54 velocity=0 time=0.026388822916666665
EXTRACT: note_on channel=8 note=58 velocity=47 time=0.026388822916666665
EXTRACT: note_on channel=13 note=54 velocity=0 time=0.04027767708333333
EXTRACT: note_on channel=8 note=61 velocity=52 time=0.016666624999999997
EXTRACT: control_change channel=15 control=11 value=126 time=0.004166656249999999
EXTRACT: control_change channel=2 control=64 value=0 time=0.006944427083333333
EXTRACT: note_on channel=13 note=51 velocity=0 time=0.009722197916666666
EXTRACT: note_on channel=13 note=47 velocity=0 time=0
EXTRACT: note_on channel=13 note=54 velocity=20 time=0.006944427083333333
EXTRACT: note_on channel=1 note=42 velocity=99 time=0.004166656249999999
EXTRACT: note_on channel=15 note=42 velocity=38 time=0
EXTRACT: note_on channel=13 note=59 velocity=0 time=0.002777770833333333
EXTRACT: note_on channel=2 note=42 velocity=44 time=0.0013888854166666665
EXTRACT: note_on channel=13 note=58 velocity=25 time=0.008333312499999999
EXTRACT: note_on channel=13 note=42 velocity=12 time=0.011111083333333332
EXTRACT: control_change channel=2 control=64 value=100 time=0.006944427083333333
EXTRACT: note_on channel=13 note=61 velocity=25 time=0.05138876041666666
EXTRACT: note_on channel=2 note=42 velocity=0 time=0.07361092708333332
EXTRACT: note_on channel=15 note=54 velocity=0 time=0.10416640625
EXTRACT: note_on channel=15 note=42 velocity=0 time=0.05416653125
EXTRACT: note_on channel=8 note=58 velocity=0 time=0.008333312499999999
EXTRACT: note_on channel=8 note=61 velocity=0 time=0
EXTRACT: note_on channel=2 note=49 velocity=26 time=0.008333312499999999
EXTRACT: note_on channel=15 note=49 velocity=26 time=0.002777770833333333
EXTRACT: note_on channel=2 note=49 velocity=0 time=0.009722197916666666
EXTRACT: note_on channel=8 note=58 velocity=49 time=0.004166656249999999
EXTRACT: note_on channel=8 note=61 velocity=61 time=0
EXTRACT: note_on channel=8 note=58 velocity=0 time=0.02083328125
EXTRACT: note_on channel=8 note=61 velocity=0 time=0.10694417708333333
EXTRACT: note_on channel=15 note=49 velocity=0 time=0.14166631249999997
EXTRACT: note_on channel=8 note=61 velocity=32 time=0.04999987499999999
EXTRACT: note_on channel=8 note=53 velocity=31 time=0
EXTRACT: note_on channel=9 note=44 velocity=25 time=0
EXTRACT: note_on channel=15 note=54 velocity=36 time=0
EXTRACT: note_on channel=15 note=58 velocity=55 time=0
EXTRACT: note_on channel=1 note=42 velocity=0 time=0.002777770833333333
EXTRACT: note_on channel=2 note=58 velocity=39 time=0.012499968749999998
EXTRACT: note_on channel=2 note=54 velocity=60 time=0.002777770833333333
EXTRACT: note_on channel=8 note=61 velocity=0 time=0.002777770833333333
EXTRACT: note_on channel=8 note=53 velocity=0 time=0
EXTRACT: note_on channel=9 note=44 velocity=0 time=0.009722197916666666
EXTRACT: note_on channel=2 note=54 velocity=0 time=0.02083328125
EXTRACT: note_on channel=2 note=58 velocity=0 time=0.03194436458333333
EXTRACT: control_change channel=15 control=11 value=127 time=0.06249984374999999
EXTRACT: control_change channel=15 control=11 value=123 time=0.0416665625
EXTRACT: control_change channel=15 control=11 value=119 time=0.0416665625
EXTRACT: control_change channel=15 control=11 value=115 time=0.0416665625
EXTRACT: control_change channel=15 control=11 value=111 time=0.0416665625
EXTRACT: note_on channel=8 note=53 velocity=47 time=0.016666624999999997
EXTRACT: note_on channel=1 note=37 velocity=81 time=0.004166656249999999
EXTRACT: control_change channel=15 control=11 value=107 time=0.02083328125
EXTRACT: note_on channel=8 note=56 velocity=57 time=0.002777770833333333
EXTRACT: note_on channel=8 note=61 velocity=49 time=0.006944427083333333
EXTRACT: control_change channel=15 control=11 value=103 time=0.03194436458333333
EXTRACT: control_change channel=15 control=11 value=99 time=0.0416665625
EXTRACT: control_change channel=15 control=11 value=95 time=0.0416665625
EXTRACT: note_on channel=15 note=58 velocity=0 time=0.024999937499999996
EXTRACT: control_change channel=15 control=11 value=91 time=0.02361105208333333
EXTRACT: note_on channel=15 note=54 velocity=0 time=0.016666624999999997
EXTRACT: control_change channel=2 control=64 value=0 time=0.09027755208333332
EXTRACT: note_on channel=13 note=54 velocity=0 time=0.006944427083333333
EXTRACT: control_change channel=15 control=11 value=127 time=0.004166656249999999
EXTRACT: note_on channel=13 note=58 velocity=0 time=0.009722197916666666
EXTRACT: note_on channel=13 note=42 velocity=0 time=0
EXTRACT: control_change channel=2 control=64 value=100 time=0.004166656249999999
EXTRACT: note_on channel=13 note=56 velocity=25 time=0.005555541666666666
EXTRACT: note_on channel=2 note=49 velocity=38 time=0.0013888854166666665
EXTRACT: note_on channel=2 note=56 velocity=63 time=0
EXTRACT: note_on channel=2 note=49 velocity=0 time=0.009722197916666666
EXTRACT: note_on channel=13 note=41 velocity=11 time=0
EXTRACT: note_on channel=13 note=53 velocity=21 time=0.002777770833333333
EXTRACT: note_on channel=15 note=56 velocity=59 time=0.008333312499999999
EXTRACT: note_on channel=2 note=56 velocity=0 time=0.004166656249999999
EXTRACT: control_change channel=15 control=11 value=127 time=0.3152769895833333
EXTRACT: control_change channel=15 control=11 value=123 time=0.0416665625
EXTRACT: control_change channel=15 control=11 value=119 time=0.0416665625
EXTRACT: control_change channel=15 control=11 value=115 time=0.0416665625
EXTRACT: control_change channel=15 control=11 value=111 time=0.0416665625
EXTRACT: control_change channel=15 control=11 value=107 time=0.0416665625
EXTRACT: control_change channel=15 control=11 value=103 time=0.0416665625
EXTRACT: control_change channel=15 control=11 value=99 time=0.0416665625
EXTRACT: note_on channel=9 note=44 velocity=24 time=0.03472213541666666
EXTRACT: control_change channel=15 control=11 value=95 time=0.006944427083333333
EXTRACT: note_on channel=9 note=44 velocity=0 time=0.02361105208333333
EXTRACT: control_change channel=15 control=11 value=91 time=0.024999937499999996
EXTRACT: note_on channel=1 note=37 velocity=0 time=0.030555479166666663
EXTRACT: note_on channel=8 note=53 velocity=0 time=0.08888866666666666
EXTRACT: note_on channel=15 note=56 velocity=0 time=0.022222166666666664
EXTRACT: note_on channel=8 note=56 velocity=0 time=0.005555541666666666
EXTRACT: note_on channel=8 note=61 velocity=0 time=0.03472213541666666
EXTRACT: control_change channel=15 control=11 value=127 time=0.061110958333333326
EXTRACT: note_on channel=2 note=49 velocity=18 time=0.03472213541666666
EXTRACT: note_on channel=4 note=59 velocity=6 time=0
EXTRACT: note_on channel=15 note=56 velocity=46 time=0
EXTRACT: control_change channel=9 control=99 value=24 time=0
EXTRACT: note_on channel=3 note=56 velocity=111 time=0
EXTRACT: note_on channel=2 note=56 velocity=47 time=0.012499968749999998
EXTRACT: note_on channel=2 note=56 velocity=0 time=0.026388822916666665
EXTRACT: control_change channel=9 control=98 value=85 time=0.06944427083333332
EXTRACT: note_on channel=15 note=56 velocity=0 time=0.06527761458333332
EXTRACT: control_change channel=9 control=6 value=75 time=0.045833218749999995
EXTRACT: note_on channel=3 note=56 velocity=0 time=0.03749990625
EXTRACT: note_on channel=8 note=58 velocity=35 time=0.0013888854166666665
EXTRACT: note_on channel=13 note=61 velocity=0 time=0.005555541666666666
EXTRACT: control_change channel=2 control=64 value=0 time=0.013888854166666666
EXTRACT: note_on channel=13 note=56 velocity=0 time=0.02777770833333333
EXTRACT: note_on channel=13 note=41 velocity=0 time=0
EXTRACT: note_on channel=8 note=61 velocity=51 time=0
EXTRACT: note_on channel=4 note=59 velocity=0 time=0.012499968749999998
EXTRACT: note_on channel=13 note=53 velocity=0 time=0.0013888854166666665
EXTRACT: note_on channel=3 note=58 velocity=110 time=0
EXTRACT: note_on channel=1 note=39 velocity=105 time=0.0013888854166666665
EXTRACT: note_on channel=4 note=61 velocity=6 time=0
EXTRACT: note_on channel=15 note=39 velocity=36 time=0
EXTRACT: note_on channel=13 note=39 velocity=12 time=0.0013888854166666665
EXTRACT: note_on channel=2 note=39 velocity=42 time=0.002777770833333333
EXTRACT: note_on channel=13 note=51 velocity=16 time=0.008333312499999999
EXTRACT: note_on channel=13 note=58 velocity=27 time=0
EXTRACT: control_change channel=2 control=64 value=100 time=0.008333312499999999
EXTRACT: note_on channel=13 note=54 velocity=23 time=0.002777770833333333
EXTRACT: note_on channel=13 note=61 velocity=14 time=0
EXTRACT: note_on channel=8 note=66 velocity=53 time=0.012499968749999998
EXTRACT: note_on channel=2 note=39 velocity=0 time=0.11944414583333332
EXTRACT: control_change channel=9 control=99 value=28 time=0.03194436458333333
EXTRACT: control_change channel=9 control=98 value=85 time=0.06249984374999999
EXTRACT: note_on channel=3 note=58 velocity=0 time=0.009722197916666666
EXTRACT: control_change channel=9 control=6 value=64 time=0.05277764583333333
EXTRACT: note_on channel=15 note=39 velocity=0 time=0.012499968749999998
EXTRACT: note_on channel=3 note=58 velocity=111 time=0
EXTRACT: note_on channel=15 note=54 velocity=26 time=0.0013888854166666665
EXTRACT: note_on channel=2 note=54 velocity=29 time=0.006944427083333333
EXTRACT: note_on channel=2 note=54 velocity=0 time=0.013888854166666666
EXTRACT: control_change channel=9 control=99 value=29 time=0.0416665625
EXTRACT: note_on channel=8 note=66 velocity=0 time=0.08472201041666666
EXTRACT: note_on channel=8 note=58 velocity=0 time=0.004166656249999999
EXTRACT: control_change channel=9 control=98 value=85 time=0.008333312499999999
EXTRACT: note_on channel=8 note=61 velocity=0 time=0.011111083333333332
EXTRACT: control_change channel=9 control=6 value=120 time=0.04444433333333333
EXTRACT: note_on channel=3 note=58 velocity=0 time=0.04444433333333333
EXTRACT: note_on channel=15 note=54 velocity=0 time=0.061110958333333326
EXTRACT: note_on channel=3 note=58 velocity=110 time=0
EXTRACT: note_on channel=8 note=61 velocity=55 time=0.002777770833333333
EXTRACT: note_on channel=8 note=58 velocity=49 time=0
EXTRACT: note_on channel=15 note=58 velocity=37 time=0
EXTRACT: note_on channel=15 note=61 velocity=47 time=0
EXTRACT: note_on channel=9 note=85 velocity=43 time=0.004166656249999999
EXTRACT: note_on channel=2 note=58 velocity=50 time=0.002777770833333333
EXTRACT: note_on channel=9 note=42 velocity=54 time=0
EXTRACT: note_on channel=9 note=85 velocity=98 time=0.018055510416666663
EXTRACT: note_on channel=2 note=61 velocity=61 time=0.0013888854166666665
EXTRACT: note_on channel=9 note=33 velocity=45 time=0.0013888854166666665
EXTRACT: note_on channel=9 note=85 velocity=0 time=0.008333312499999999
EXTRACT: note_on channel=9 note=42 velocity=0 time=0.0013888854166666665
EXTRACT: note_on channel=1 note=39 velocity=0 time=0.004166656249999999
EXTRACT: note_on channel=2 note=61 velocity=0 time=0
EXTRACT: note_on channel=8 note=61 velocity=0 time=0.0013888854166666665
EXTRACT: note_on channel=8 note=58 velocity=0 time=0.004166656249999999
EXTRACT: note_on channel=2 note=58 velocity=0 time=0.004166656249999999
EXTRACT: note_on channel=9 note=85 velocity=0 time=0.005555541666666666
EXTRACT: note_on channel=9 note=33 velocity=0 time=0.0013888854166666665
EXTRACT: control_change channel=15 control=11 value=126 time=0.1083330625
EXTRACT: control_change channel=15 control=11 value=123 time=0.0416665625
EXTRACT: control_change channel=15 control=11 value=118 time=0.0416665625
EXTRACT: note_on channel=3 note=58 velocity=0 time=0.009722197916666666
EXTRACT: control_change channel=15 control=11 value=114 time=0.03194436458333333
EXTRACT: note_on channel=4 note=61 velocity=0 time=0.029166593749999997
EXTRACT: note_on channel=3 note=59 velocity=111 time=0
EXTRACT: note_on channel=1 note=35 velocity=85 time=0.005555541666666666
EXTRACT: note_on channel=4 note=63 velocity=6 time=0
EXTRACT: note_on channel=8 note=54 velocity=49 time=0
EXTRACT: control_change channel=15 control=11 value=111 time=0
EXTRACT: note_on channel=8 note=63 velocity=51 time=0.015277739583333332
EXTRACT: note_on channel=8 note=59 velocity=55 time=0.0013888854166666665
EXTRACT: control_change channel=15 control=11 value=106 time=0.02361105208333333
EXTRACT: control_change channel=15 control=11 value=103 time=0.0416665625
EXTRACT: control_change channel=15 control=11 value=98 time=0.0416665625
EXTRACT: control_change channel=15 control=11 value=95 time=0.0416665625
EXTRACT: note_on channel=15 note=61 velocity=0 time=0.0416665625
EXTRACT: control_change channel=15 control=11 value=90 time=0.006944427083333333
EXTRACT: note_on channel=3 note=59 velocity=0 time=0.04444433333333333
EXTRACT: note_on channel=13 note=58 velocity=0 time=0.02083328125
EXTRACT: note_on channel=15 note=58 velocity=0 time=0
EXTRACT: note_on channel=1 note=35 velocity=0 time=0.011111083333333332
EXTRACT: control_change channel=2 control=64 value=0 time=0.02083328125
EXTRACT: note_on channel=4 note=63 velocity=0 time=0.008333312499999999
EXTRACT: note_on channel=13 note=47 velocity=12 time=0
EXTRACT: note_on channel=3 note=58 velocity=110 time=0
EXTRACT: note_on channel=1 note=35 velocity=103 time=0.002777770833333333
EXTRACT: note_on channel=4 note=61 velocity=6 time=0
EXTRACT: note_on channel=15 note=47 velocity=32 time=0
EXTRACT: control_change channel=15 control=11 value=126 time=0
EXTRACT: note_on channel=13 note=39 velocity=0 time=0.002777770833333333
EXTRACT: note_on channel=13 note=59 velocity=25 time=0
EXTRACT: note_on channel=2 note=47 velocity=53 time=0.0013888854166666665
EXTRACT: control_change channel=2 control=64 value=100 time=0.005555541666666666
EXTRACT: note_on channel=13 note=61 velocity=0 time=0.03472213541666666
EXTRACT: note_on channel=2 note=47 velocity=0 time=0.14305519791666665
EXTRACT: note_on channel=3 note=58 velocity=0 time=0.11388860416666666
EXTRACT: note_on channel=4 note=61 velocity=0 time=0.019444395833333333
EXTRACT: note_on channel=15 note=47 velocity=0 time=0.004166656249999999
EXTRACT: note_on channel=3 note=56 velocity=110 time=0
EXTRACT: note_on channel=4 note=59 velocity=6 time=0
EXTRACT: note_on channel=15 note=51 velocity=26 time=0
EXTRACT: note_on channel=2 note=51 velocity=24 time=0.006944427083333333
EXTRACT: note_on channel=2 note=51 velocity=0 time=0.04444433333333333
EXTRACT: note_on channel=3 note=56 velocity=0 time=0.22916609374999997
EXTRACT: note_on channel=15 note=51 velocity=0 time=0.030555479166666663
EXTRACT: note_on channel=8 note=54 velocity=0 time=0.011111083333333332
EXTRACT: note_on channel=4 note=59 velocity=0 time=0
EXTRACT: note_on channel=2 note=54 velocity=61 time=0.008333312499999999
EXTRACT: note_on channel=15 note=54 velocity=36 time=0.002777770833333333
EXTRACT: note_on channel=15 note=59 velocity=47 time=0
EXTRACT: note_on channel=9 note=85 velocity=38 time=0.004166656249999999
EXTRACT: note_on channel=2 note=59 velocity=60 time=0.0013888854166666665
EXTRACT: note_on channel=9 note=42 velocity=47 time=0.0013888854166666665
EXTRACT: note_on channel=2 note=59 velocity=0 time=0.013888854166666666
EXTRACT: note_on channel=9 note=85 velocity=98 time=0.004166656249999999
EXTRACT: note_on channel=9 note=33 velocity=37 time=0.002777770833333333
EXTRACT: note_on channel=1 note=35 velocity=0 time=0.002777770833333333
EXTRACT: note_on channel=2 note=54 velocity=0 time=0
EXTRACT: note_on channel=9 note=85 velocity=0 time=0.005555541666666666
EXTRACT: note_on channel=9 note=42 velocity=0 time=0.0013888854166666665
EXTRACT: note_on channel=9 note=85 velocity=0 time=0.019444395833333333
EXTRACT: note_on channel=9 note=33 velocity=0 time=0.0013888854166666665
EXTRACT: control_change channel=15 control=11 value=127 time=0.08055535416666666
EXTRACT: control_change channel=15 control=11 value=123 time=0.0416665625
EXTRACT: control_change channel=15 control=11 value=119 time=0.0416665625
EXTRACT: note_on channel=8 note=59 velocity=0 time=0.0416665625
EXTRACT: control_change channel=15 control=11 value=114 time=0
EXTRACT: note_on channel=3 note=54 velocity=111 time=0
EXTRACT: control_change channel=15 control=11 value=110 time=0.006944427083333333
EXTRACT: note_on channel=8 note=63 velocity=0 time=0.019444395833333333
EXTRACT: note_on channel=2 note=49 velocity=23 time=0.015277739583333332
EXTRACT: control_change channel=15 control=11 value=106 time=0.006944427083333333
EXTRACT: note_on channel=2 note=49 velocity=0 time=0.03749990625
EXTRACT: control_change channel=15 control=11 value=102 time=0.004166656249999999
EXTRACT: note_on channel=3 note=54 velocity=0 time=0.03749990625
EXTRACT: control_change channel=15 control=11 value=99 time=0.004166656249999999
EXTRACT: control_change channel=15 control=11 value=94 time=0.0416665625
EXTRACT: note_on channel=15 note=59 velocity=0 time=0.02777770833333333
EXTRACT: note_on channel=3 note=56 velocity=111 time=0
EXTRACT: control_change channel=15 control=11 value=90 time=0.006944427083333333
EXTRACT: note_on channel=8 note=58 velocity=47 time=0.05694430208333333
EXTRACT: note_on channel=13 note=51 velocity=0 time=0.022222166666666664
EXTRACT: note_on channel=15 note=54 velocity=0 time=0.004166656249999999
EXTRACT: note_on channel=13 note=54 velocity=0 time=0.013888854166666666
EXTRACT: note_on channel=8 note=61 velocity=53 time=0.016666624999999997
EXTRACT: note_on channel=3 note=56 velocity=0 time=0
EXTRACT: control_change channel=15 control=11 value=127 time=0.004166656249999999
EXTRACT: control_change channel=2 control=64 value=0 time=0.006944427083333333
EXTRACT: note_on channel=13 note=47 velocity=0 time=0.009722197916666666
EXTRACT: note_on channel=13 note=54 velocity=20 time=0.006944427083333333
EXTRACT: note_on channel=1 note=42 velocity=113 time=0.004166656249999999
EXTRACT: note_on channel=15 note=42 velocity=38 time=0
EXTRACT: note_on channel=13 note=59 velocity=0 time=0.002777770833333333
EXTRACT: note_on channel=2 note=42 velocity=44 time=0.0013888854166666665
EXTRACT: note_on channel=3 note=58 velocity=111 time=0
EXTRACT: note_on channel=13 note=58 velocity=25 time=0.006944427083333333
EXTRACT: note_on channel=13 note=42 velocity=12 time=0.011111083333333332
EXTRACT: note_on channel=13 note=49 velocity=14 time=0.002777770833333333
EXTRACT: control_change channel=2 control=64 value=100 time=0.004166656249999999
EXTRACT: note_on channel=8 note=66 velocity=71 time=0.02083328125
EXTRACT: note_on channel=2 note=42 velocity=0 time=0.10416640625
EXTRACT: note_on channel=3 note=58 velocity=0 time=0.10416640625
EXTRACT: note_on channel=15 note=42 velocity=0 time=0.05416653125
EXTRACT: note_on channel=2 note=49 velocity=31 time=0.016666624999999997
EXTRACT: note_on channel=15 note=49 velocity=26 time=0.002777770833333333
EXTRACT: note_on channel=2 note=49 velocity=0 time=0.009722197916666666
EXTRACT: note_on channel=3 note=58 velocity=110 time=0
EXTRACT: note_on channel=3 note=58 velocity=0 time=0.18472176041666666
EXTRACT: note_on channel=8 note=61 velocity=0 time=0.04999987499999999
EXTRACT: note_on channel=8 note=66 velocity=0 time=0.02777770833333333
EXTRACT: note_on channel=8 note=58 velocity=0 time=0.013888854166666666
EXTRACT: note_on channel=8 note=61 velocity=49 time=0.024999937499999996
EXTRACT: note_on channel=8 note=58 velocity=49 time=0
EXTRACT: note_on channel=15 note=54 velocity=36 time=0
EXTRACT: note_on channel=15 note=58 velocity=46 time=0
EXTRACT: note_on channel=9 note=85 velocity=44 time=0.004166656249999999
EXTRACT: note_on channel=15 note=49 velocity=0 time=0.0013888854166666665
EXTRACT: note_on channel=9 note=42 velocity=42 time=0.0013888854166666665
EXTRACT: note_on channel=3 note=58 velocity=110 time=0
EXTRACT: note_on channel=2 note=58 velocity=60 time=0.006944427083333333
EXTRACT: note_on channel=2 note=54 velocity=50 time=0.002777770833333333
EXTRACT: note_on channel=8 note=58 velocity=0 time=0.002777770833333333
EXTRACT: note_on channel=8 note=61 velocity=0 time=0.002777770833333333
EXTRACT: note_on channel=9 note=85 velocity=99 time=0.0013888854166666665
EXTRACT: note_on channel=9 note=33 velocity=35 time=0.002777770833333333
EXTRACT: note_on channel=9 note=85 velocity=0 time=0.008333312499999999
EXTRACT: note_on channel=9 note=42 velocity=0 time=0.0013888854166666665
EXTRACT: note_on channel=2 note=54 velocity=0 time=0.013888854166666666
EXTRACT: note_on channel=9 note=85 velocity=0 time=0.005555541666666666
EXTRACT: note_on channel=9 note=33 velocity=0 time=0.0013888854166666665
EXTRACT: note_on channel=2 note=58 velocity=0 time=0.024999937499999996
EXTRACT: note_on channel=1 note=42 velocity=0 time=0.04444433333333333
EXTRACT: control_change channel=15 control=11 value=127 time=0.018055510416666663
EXTRACT: control_change channel=15 control=11 value=122 time=0.0416665625
EXTRACT: control_change channel=15 control=11 value=118 time=0.0416665625
EXTRACT: control_change channel=15 control=11 value=115 time=0.0416665625
EXTRACT: note_on channel=3 note=58 velocity=0 time=0.009722197916666666
EXTRACT: control_change channel=15 control=11 value=110 time=0.03194436458333333
EXTRACT: note_on channel=8 note=65 velocity=65 time=0.03194436458333333
EXTRACT: note_on channel=1 note=37 velocity=91 time=0.002777770833333333
EXTRACT: note_on channel=3 note=59 velocity=110 time=0
EXTRACT: control_change channel=15 control=11 value=106 time=0.002777770833333333
EXTRACT: note_on channel=8 note=56 velocity=57 time=0.002777770833333333
EXTRACT: note_on channel=8 note=61 velocity=49 time=0.006944427083333333
EXTRACT: control_change channel=15 control=11 value=103 time=0.03194436458333333
EXTRACT: control_change channel=15 control=11 value=99 time=0.0416665625
EXTRACT: control_change channel=15 control=11 value=94 time=0.0416665625
EXTRACT: control_change channel=15 control=11 value=91 time=0.048610989583333326
EXTRACT: note_on channel=15 note=58 velocity=0 time=0.02361105208333333
EXTRACT: note_on channel=3 note=59 velocity=0 time=0.045833218749999995
EXTRACT: control_change channel=2 control=64 value=0 time=0.03749990625
EXTRACT: note_on channel=15 note=54 velocity=0 time=0.005555541666666666
EXTRACT: note_on channel=13 note=54 velocity=0 time=0.0013888854166666665
EXTRACT: control_change channel=15 control=11 value=127 time=0.004166656249999999
EXTRACT: note_on channel=13 note=58 velocity=0 time=0.009722197916666666
EXTRACT: note_on channel=13 note=42 velocity=0 time=0
EXTRACT: note_on channel=13 note=56 velocity=25 time=0.009722197916666666
EXTRACT: note_on channel=2 note=49 velocity=31 time=0.0013888854166666665
EXTRACT: note_on channel=15 note=41 velocity=39 time=0
EXTRACT: note_on channel=3 note=58 velocity=110 time=0
EXTRACT: note_on channel=13 note=41 velocity=11 time=0.006944427083333333
EXTRACT: note_on channel=13 note=53 velocity=21 time=0.002777770833333333
EXTRACT: control_change channel=2 control=64 value=100 time=0.008333312499999999
EXTRACT: note_on channel=2 note=49 velocity=0 time=0.16249959374999998
EXTRACT: note_on channel=3 note=58 velocity=0 time=0.07638869791666666
EXTRACT: note_on channel=15 note=41 velocity=0 time=0.06527761458333332
EXTRACT: note_on channel=15 note=49 velocity=23 time=0.008333312499999999
EXTRACT: note_on channel=2 note=49 velocity=26 time=0.006944427083333333
EXTRACT: note_on channel=3 note=56 velocity=111 time=0
EXTRACT: note_on channel=2 note=49 velocity=0 time=0.033333249999999995
EXTRACT: note_on channel=1 note=37 velocity=0 time=0.11805526041666665
EXTRACT: note_on channel=3 note=56 velocity=0 time=0.048610989583333326
EXTRACT: note_on channel=15 note=49 velocity=0 time=0.11111083333333333
EXTRACT: note_on channel=15 note=53 velocity=24 time=0.004166656249999999
EXTRACT: note_on channel=15 note=56 velocity=40 time=0
EXTRACT: note_on channel=9 note=85 velocity=45 time=0.004166656249999999
EXTRACT: note_on channel=9 note=42 velocity=48 time=0.002777770833333333
EXTRACT: note_on channel=3 note=54 velocity=110 time=0
EXTRACT: note_on channel=2 note=56 velocity=61 time=0.0013888854166666665
EXTRACT: note_on channel=2 note=53 velocity=34 time=0.002777770833333333
EXTRACT: note_on channel=9 note=85 velocity=98 time=0.006944427083333333
EXTRACT: note_on channel=9 note=33 velocity=38 time=0.002777770833333333
EXTRACT: note_on channel=9 note=85 velocity=0 time=0.008333312499999999
EXTRACT: note_on channel=9 note=42 velocity=0 time=0.0013888854166666665
EXTRACT: note_on channel=2 note=56 velocity=0 time=0.004166656249999999
EXTRACT: note_on channel=9 note=85 velocity=0 time=0.015277739583333332
EXTRACT: note_on channel=9 note=33 velocity=0 time=0.0013888854166666665
EXTRACT: control_change channel=15 control=11 value=126 time=0.05972207291666666
EXTRACT: control_change channel=15 control=11 value=123 time=0.0416665625
EXTRACT: control_change channel=15 control=11 value=119 time=0.0416665625
EXTRACT: note_on channel=3 note=54 velocity=0 time=0.0013888854166666665
EXTRACT: note_on channel=8 note=56 velocity=0 time=0
EXTRACT: control_change channel=15 control=11 value=115 time=0.04027767708333333
EXTRACT: note_on channel=8 note=65 velocity=0 time=0.011111083333333332
EXTRACT: control_change channel=15 control=11 value=111 time=0.030555479166666663
EXTRACT: note_on channel=8 note=61 velocity=0 time=0.03749990625
EXTRACT: control_change channel=15 control=11 value=107 time=0.004166656249999999
EXTRACT: note_on channel=1 note=37 velocity=109 time=0.006944427083333333
EXTRACT: note_on channel=3 note=54 velocity=110 time=0
EXTRACT: note_on channel=2 note=49 velocity=31 time=0.004166656249999999
EXTRACT: control_change channel=15 control=11 value=103 time=0.02777770833333333
EXTRACT: control_change channel=15 control=11 value=99 time=0.0416665625
EXTRACT: control_change channel=15 control=11 value=95 time=0.0416665625
EXTRACT: control_change channel=15 control=11 value=91 time=0.048610989583333326
EXTRACT: note_on channel=2 note=49 velocity=0 time=0.07222204166666665
EXTRACT: note_on channel=8 note=58 velocity=35 time=0.022222166666666664
EXTRACT: note_on channel=15 note=56 velocity=0 time=0.019444395833333333
EXTRACT: control_change channel=2 control=64 value=0 time=0
EXTRACT: note_on channel=15 note=53 velocity=0 time=0.026388822916666665
EXTRACT: note_on channel=13 note=49 velocity=0 time=0.0013888854166666665
EXTRACT: note_on channel=13 note=56 velocity=0 time=0
EXTRACT: note_on channel=13 note=41 velocity=0 time=0
EXTRACT: note_on channel=8 note=61 velocity=51 time=0
EXTRACT: note_on channel=13 note=53 velocity=0 time=0.013888854166666666
EXTRACT: control_change channel=15 control=11 value=127 time=0.004166656249999999
EXTRACT: note_on channel=1 note=39 velocity=97 time=0.006944427083333333
EXTRACT: note_on channel=15 note=39 velocity=36 time=0
EXTRACT: note_on channel=13 note=39 velocity=12 time=0.0013888854166666665
EXTRACT: note_on channel=1 note=37 velocity=0 time=0.0013888854166666665
EXTRACT: note_on channel=2 note=39 velocity=42 time=0.0013888854166666665
EXTRACT: note_on channel=13 note=58 velocity=27 time=0.008333312499999999
EXTRACT: control_change channel=2 control=64 value=100 time=0.008333312499999999
EXTRACT: note_on channel=13 note=51 velocity=19 time=0.002777770833333333
EXTRACT: note_on channel=13 note=54 velocity=23 time=0
EXTRACT: note_on channel=8 note=66 velocity=53 time=0.012499968749999998
EXTRACT: note_on channel=2 note=39 velocity=0 time=0.11944414583333332
EXTRACT: note_on channel=15 note=39 velocity=0 time=0.16944402083333332
EXTRACT: note_on channel=15 note=54 velocity=23 time=0.008333312499999999
EXTRACT: note_on channel=2 note=54 velocity=28 time=0.006944427083333333
EXTRACT: note_on channel=2 note=54 velocity=0 time=0.013888854166666666
EXTRACT: note_on channel=8 note=66 velocity=0 time=0.12638857291666666
EXTRACT: note_on channel=8 note=58 velocity=0 time=0.004166656249999999
EXTRACT: note_on channel=8 note=61 velocity=0 time=0.019444395833333333
EXTRACT: note_on channel=15 note=54 velocity=0 time=0.149999625
EXTRACT: note_on channel=8 note=66 velocity=53 time=0.012499968749999998
EXTRACT: note_on channel=8 note=61 velocity=54 time=0
EXTRACT: note_on channel=8 note=58 velocity=48 time=0
EXTRACT: note_on channel=15 note=58 velocity=37 time=0
EXTRACT: note_on channel=15 note=61 velocity=47 time=0
EXTRACT: note_on channel=9 note=85 velocity=44 time=0.004166656249999999
EXTRACT: note_on channel=2 note=58 velocity=51 time=0.002777770833333333
EXTRACT: note_on channel=9 note=42 velocity=47 time=0
EXTRACT: note_on channel=9 note=85 velocity=98 time=0.018055510416666663
EXTRACT: note_on channel=8 note=66 velocity=0 time=0.0013888854166666665
EXTRACT: note_on channel=2 note=61 velocity=61 time=0
EXTRACT: note_on channel=9 note=33 velocity=36 time=0.0013888854166666665
EXTRACT: note_on channel=9 note=85 velocity=0 time=0.008333312499999999
EXTRACT: note_on channel=9 note=42 velocity=0 time=0.0013888854166666665
EXTRACT: note_on channel=2 note=61 velocity=0 time=0.004166656249999999
EXTRACT: note_on channel=8 note=61 velocity=0 time=0.0013888854166666665
EXTRACT: note_on channel=8 note=58 velocity=0 time=0.004166656249999999
EXTRACT: note_on channel=2 note=58 velocity=0 time=0.004166656249999999
EXTRACT: note_on channel=9 note=85 velocity=0 time=0.005555541666666666
EXTRACT: note_on channel=9 note=33 velocity=0 time=0.0013888854166666665
EXTRACT: note_on channel=1 note=39 velocity=0 time=0.013888854166666666
EXTRACT: control_change channel=15 control=11 value=127 time=0.09444420833333332
EXTRACT: control_change channel=15 control=11 value=123 time=0.0416665625
EXTRACT: control_change channel=15 control=11 value=119 time=0.0416665625
EXTRACT: control_change channel=15 control=11 value=115 time=0.0416665625
EXTRACT: note_on channel=1 note=34 velocity=109 time=0.0416665625
EXTRACT: control_change channel=15 control=11 value=111 time=0
EXTRACT: note_on channel=8 note=61 velocity=56 time=0.016666624999999997
EXTRACT: note_on channel=8 note=59 velocity=55 time=0.0013888854166666665
EXTRACT: note_on channel=8 note=54 velocity=46 time=0.009722197916666666
EXTRACT: note_on channel=3 note=54 velocity=0 time=0.002777770833333333
EXTRACT: control_change channel=15 control=11 value=107 time=0.011111083333333332
EXTRACT: control_change channel=15 control=11 value=103 time=0.0416665625
EXTRACT: control_change channel=15 control=11 value=99 time=0.0416665625
EXTRACT: control_change channel=15 control=11 value=95 time=0.0416665625
EXTRACT: control_change channel=15 control=11 value=91 time=0.048610989583333326
EXTRACT: note_on channel=13 note=58 velocity=0 time=0.06527761458333332
EXTRACT: note_on channel=1 note=34 velocity=0 time=0.011111083333333332
EXTRACT: note_on channel=15 note=61 velocity=0 time=0.006944427083333333
EXTRACT: control_change channel=2 control=64 value=0 time=0.013888854166666666
EXTRACT: note_on channel=13 note=47 velocity=12 time=0.008333312499999999
EXTRACT: note_on channel=1 note=35 velocity=103 time=0.012499968749999998
EXTRACT: note_on channel=15 note=47 velocity=32 time=0
EXTRACT: control_change channel=15 control=11 value=127 time=0
EXTRACT: note_on channel=13 note=39 velocity=0 time=0.002777770833333333
EXTRACT: note_on channel=13 note=59 velocity=25 time=0
EXTRACT: note_on channel=2 note=47 velocity=52 time=0.0013888854166666665
EXTRACT: note_on channel=15 note=58 velocity=0 time=0.005555541666666666
EXTRACT: control_change channel=2 control=64 value=100 time=0
EXTRACT: note_on channel=2 note=47 velocity=0 time=0.17777733333333332
EXTRACT: note_on channel=15 note=47 velocity=0 time=0.13749965625
EXTRACT: note_on channel=15 note=51 velocity=26 time=0.008333312499999999
EXTRACT: note_on channel=2 note=51 velocity=24 time=0.006944427083333333
EXTRACT: note_on channel=2 note=51 velocity=0 time=0.04444433333333333
EXTRACT: note_on channel=15 note=51 velocity=0 time=0.25972157291666664
EXTRACT: note_on channel=2 note=54 velocity=50 time=0.019444395833333333
EXTRACT: note_on channel=15 note=54 velocity=36 time=0.002777770833333333
EXTRACT: note_on channel=15 note=59 velocity=46 time=0
EXTRACT: note_on channel=9 note=85 velocity=37 time=0.004166656249999999
EXTRACT: note_on channel=2 note=59 velocity=61 time=0.0013888854166666665
EXTRACT: note_on channel=9 note=42 velocity=45 time=0.0013888854166666665
EXTRACT: note_on channel=8 note=54 velocity=0 time=0.009722197916666666
EXTRACT: note_on channel=2 note=59 velocity=0 time=0.004166656249999999
EXTRACT: note_on channel=9 note=85 velocity=98 time=0.004166656249999999
EXTRACT: note_on channel=9 note=33 velocity=34 time=0.002777770833333333
EXTRACT: note_on channel=2 note=54 velocity=0 time=0.002777770833333333
EXTRACT: note_on channel=9 note=85 velocity=0 time=0.005555541666666666
EXTRACT: note_on channel=9 note=42 velocity=0 time=0.0013888854166666665
EXTRACT: note_on channel=9 note=85 velocity=0 time=0.019444395833333333
EXTRACT: note_on channel=9 note=33 velocity=0 time=0.0013888854166666665
EXTRACT: control_change channel=15 control=11 value=127 time=0.08055535416666666
EXTRACT: control_change channel=15 control=11 value=122 time=0.0416665625
EXTRACT: control_change channel=15 control=11 value=119 time=0.0416665625
EXTRACT: note_on channel=1 note=35 velocity=0 time=0.016666624999999997
EXTRACT: note_on channel=8 note=59 velocity=0 time=0.024999937499999996
EXTRACT: control_change channel=15 control=11 value=114 time=0
EXTRACT: control_change channel=15 control=11 value=110 time=0.0416665625
EXTRACT: note_on channel=8 note=61 velocity=0 time=0.019444395833333333
EXTRACT: control_change channel=15 control=11 value=107 time=0.022222166666666664
EXTRACT: control_change channel=15 control=11 value=102 time=0.0416665625
EXTRACT: control_change channel=15 control=11 value=99 time=0.0416665625
EXTRACT: control_change channel=15 control=11 value=94 time=0.0416665625
EXTRACT: note_on channel=15 note=59 velocity=0 time=0.058333187499999994
EXTRACT: note_on channel=8 note=58 velocity=47 time=0.04722210416666666
EXTRACT: note_on channel=15 note=54 velocity=0 time=0.03611102083333333
EXTRACT: note_on channel=13 note=54 velocity=0 time=0.004166656249999999
EXTRACT: note_on channel=8 note=61 velocity=52 time=0.016666624999999997
EXTRACT: control_change channel=15 control=11 value=127 time=0.004166656249999999
EXTRACT: control_change channel=2 control=64 value=0 time=0.006944427083333333
EXTRACT: note_on channel=13 note=51 velocity=0 time=0.009722197916666666
EXTRACT: note_on channel=13 note=47 velocity=0 time=0
EXTRACT: note_on channel=13 note=54 velocity=20 time=0.006944427083333333
EXTRACT: note_on channel=1 note=42 velocity=113 time=0.004166656249999999
EXTRACT: note_on channel=15 note=42 velocity=39 time=0
EXTRACT: note_on channel=13 note=59 velocity=0 time=0.002777770833333333
EXTRACT: note_on channel=2 note=42 velocity=44 time=0.0013888854166666665
EXTRACT: note_on channel=13 note=58 velocity=25 time=0.008333312499999999
EXTRACT: note_on channel=13 note=42 velocity=12 time=0.011111083333333332
EXTRACT: note_on channel=13 note=61 velocity=25 time=0.002777770833333333
EXTRACT: control_change channel=2 control=64 value=100 time=0.004166656249999999
EXTRACT: note_on channel=2 note=42 velocity=0 time=0.12499968749999998
EXTRACT: note_on channel=1 note=42 velocity=0 time=0.13888854166666664
EXTRACT: note_on channel=15 note=42 velocity=0 time=0.019444395833333333
EXTRACT: note_on channel=8 note=58 velocity=0 time=0.008333312499999999
EXTRACT: note_on channel=8 note=61 velocity=0 time=0
EXTRACT: note_on channel=2 note=49 velocity=24 time=0.008333312499999999
EXTRACT: note_on channel=1 note=42 velocity=113 time=0.002777770833333333
EXTRACT: note_on channel=15 note=49 velocity=26 time=0
EXTRACT: note_on channel=2 note=49 velocity=0 time=0.009722197916666666
EXTRACT: note_on channel=8 note=61 velocity=61 time=0.004166656249999999
EXTRACT: note_on channel=8 note=58 velocity=48 time=0
EXTRACT: note_on channel=8 note=58 velocity=0 time=0.02083328125
EXTRACT: control_change channel=3 control=11 value=91 time=0.07638869791666666
EXTRACT: note_on channel=8 note=61 velocity=0 time=0.030555479166666663
EXTRACT: note_on channel=8 note=53 velocity=31 time=0.19166618749999997
EXTRACT: note_on channel=8 note=61 velocity=32 time=0
EXTRACT: note_on channel=15 note=54 velocity=36 time=0
EXTRACT: note_on channel=15 note=58 velocity=46 time=0
EXTRACT: note_on channel=9 note=85 velocity=43 time=0.004166656249999999
EXTRACT: note_on channel=15 note=49 velocity=0 time=0.0013888854166666665
EXTRACT: note_on channel=9 note=42 velocity=46 time=0.0013888854166666665
EXTRACT: note_on channel=2 note=58 velocity=60 time=0.008333312499999999
EXTRACT: note_on channel=2 note=54 velocity=51 time=0.002777770833333333
EXTRACT: note_on channel=8 note=53 velocity=0 time=0.002777770833333333
EXTRACT: note_on channel=8 note=61 velocity=0 time=0
EXTRACT: note_on channel=9 note=85 velocity=98 time=0.004166656249999999
EXTRACT: note_on channel=9 note=33 velocity=37 time=0.002777770833333333
EXTRACT: note_on channel=1 note=42 velocity=0 time=0.002777770833333333
EXTRACT: note_on channel=9 note=85 velocity=0 time=0.005555541666666666
EXTRACT: note_on channel=9 note=42 velocity=0 time=0.0013888854166666665
EXTRACT: note_on channel=2 note=54 velocity=0 time=0.013888854166666666
EXTRACT: note_on channel=9 note=85 velocity=0 time=0.005555541666666666
EXTRACT: note_on channel=9 note=33 velocity=0 time=0.0013888854166666665
EXTRACT: note_on channel=2 note=58 velocity=0 time=0.024999937499999996
EXTRACT: control_change channel=15 control=11 value=126 time=0.06249984374999999
EXTRACT: control_change channel=15 control=11 value=122 time=0.0416665625
EXTRACT: control_change channel=15 control=11 value=119 time=0.0416665625
EXTRACT: control_change channel=15 control=11 value=115 time=0.0416665625
EXTRACT: control_change channel=15 control=11 value=111 time=0.0416665625
EXTRACT: note_on channel=3 note=54 velocity=111 time=0
EXTRACT: note_on channel=1 note=37 velocity=105 time=0.002777770833333333
EXTRACT: control_change channel=15 control=11 value=106 time=0.016666624999999997
EXTRACT: note_on channel=8 note=56 velocity=44 time=0.002777770833333333
EXTRACT: note_on channel=8 note=61 velocity=57 time=0.006944427083333333
EXTRACT: control_change channel=15 control=11 value=102 time=0.03194436458333333
EXTRACT: control_change channel=15 control=11 value=98 time=0.0416665625
EXTRACT: control_change channel=15 control=11 value=94 time=0.0416665625
EXTRACT: note_on channel=15 note=58 velocity=0 time=0.009722197916666666
EXTRACT: note_on channel=3 note=54 velocity=0 time=0
EXTRACT: control_change channel=15 control=11 value=91 time=0.038888791666666665
EXTRACT: control_change channel=2 control=64 value=0 time=0.10694417708333333
EXTRACT: note_on channel=15 note=54 velocity=0 time=0.005555541666666666
EXTRACT: note_on channel=13 note=54 velocity=0 time=0.0013888854166666665
EXTRACT: control_change channel=15 control=11 value=126 time=0.004166656249999999
EXTRACT: note_on channel=13 note=58 velocity=0 time=0.009722197916666666
EXTRACT: note_on channel=13 note=42 velocity=0 time=0
EXTRACT: control_change channel=2 control=64 value=100 time=0.004166656249999999
EXTRACT: note_on channel=3 note=54 velocity=111 time=0
EXTRACT: note_on channel=13 note=56 velocity=25 time=0
EXTRACT: note_on channel=2 note=49 velocity=57 time=0.0013888854166666665
EXTRACT: note_on channel=2 note=53 velocity=52 time=0
EXTRACT: note_on channel=15 note=41 velocity=23 time=0
EXTRACT: note_on channel=2 note=49 velocity=0 time=0.005555541666666666
EXTRACT: note_on channel=13 note=41 velocity=11 time=0.004166656249999999
EXTRACT: note_on channel=13 note=53 velocity=21 time=0.002777770833333333
EXTRACT: note_on channel=15 note=56 velocity=43 time=0.008333312499999999
EXTRACT: control_change channel=9 control=99 value=28 time=0
EXTRACT: control_change channel=9 control=98 value=85 time=0.06249984374999999
EXTRACT: control_change channel=9 control=6 value=100 time=0.06249984374999999
EXTRACT: control_change channel=9 control=99 value=29 time=0.083333125
EXTRACT: note_on channel=3 note=54 velocity=0 time=0.0416665625
EXTRACT: note_on channel=3 note=56 velocity=110 time=0
EXTRACT: control_change channel=9 control=98 value=85 time=0.006944427083333333
EXTRACT: control_change channel=15 control=11 value=122 time=0.0416665625
EXTRACT: control_change channel=15 control=11 value=119 time=0.0416665625
EXTRACT: control_change channel=9 control=6 value=35 time=0.013888854166666666
EXTRACT: control_change channel=15 control=11 value=115 time=0.02777770833333333
EXTRACT: control_change channel=15 control=11 value=110 time=0.0416665625
EXTRACT: control_change channel=15 control=11 value=106 time=0.0416665625
EXTRACT: note_on channel=3 note=56 velocity=0 time=0.02777770833333333
EXTRACT: control_change channel=15 control=11 value=103 time=0.013888854166666666
EXTRACT: note_on channel=15 note=56 velocity=0 time=0.03472213541666666
EXTRACT: control_change channel=15 control=11 value=98 time=0.006944427083333333
EXTRACT: note_on channel=9 note=43 velocity=35 time=0.029166593749999997
EXTRACT: note_on channel=3 note=58 velocity=110 time=0
EXTRACT: control_change channel=15 control=11 value=94 time=0.008333312499999999
EXTRACT: note_on channel=9 note=43 velocity=94 time=0.018055510416666663
EXTRACT: note_on channel=9 note=43 velocity=0 time=0.0013888854166666665
EXTRACT: control_change channel=15 control=11 value=91 time=0.029166593749999997
EXTRACT: note_on channel=9 note=43 velocity=0 time=0.0013888854166666665
EXTRACT: note_on channel=15 note=41 velocity=0 time=0.05694430208333333
EXTRACT: note_on channel=8 note=56 velocity=0 time=0.08888866666666666
EXTRACT: note_on channel=8 note=61 velocity=0 time=0.03472213541666666
EXTRACT: note_on channel=3 note=58 velocity=0 time=0.0013888854166666665
EXTRACT: control_change channel=15 control=11 value=127 time=0.05972207291666666
EXTRACT: note_on channel=3 note=61 velocity=111 time=0
EXTRACT: note_on channel=15 note=41 velocity=16 time=0.0013888854166666665
EXTRACT: note_on channel=15 note=49 velocity=25 time=0
EXTRACT: note_on channel=15 note=41 velocity=0 time=0.12499968749999998
EXTRACT: note_on channel=15 note=49 velocity=0 time=0.009722197916666666
EXTRACT: note_on channel=1 note=37 velocity=0 time=0.02083328125
EXTRACT: note_on channel=13 note=61 velocity=0 time=0.05555541666666666
EXTRACT: control_change channel=2 control=64 value=0 time=0.06944427083333332
EXTRACT: note_on channel=13 note=56 velocity=0 time=0.02777770833333333
EXTRACT: note_on channel=13 note=41 velocity=0 time=0
EXTRACT: note_on channel=13 note=53 velocity=0 time=0.013888854166666666
EXTRACT: note_on channel=1 note=39 velocity=109 time=0.011111083333333332
EXTRACT: note_on channel=8 note=61 velocity=69 time=0
EXTRACT: note_on channel=9 note=35 velocity=117 time=0
EXTRACT: note_on channel=11 note=51 velocity=67 time=0
EXTRACT: note_on channel=15 note=39 velocity=39 time=0
EXTRACT: note_on channel=2 note=39 velocity=59 time=0.004166656249999999
EXTRACT: note_on channel=9 note=49 velocity=73 time=0
EXTRACT: control_change channel=2 control=64 value=100 time=0.016666624999999997
EXTRACT: note_on channel=13 note=51 velocity=24 time=0.002777770833333333
EXTRACT: note_on channel=13 note=54 velocity=28 time=0
EXTRACT: note_on channel=13 note=58 velocity=31 time=0.002777770833333333
EXTRACT: note_on channel=9 note=35 velocity=0 time=0.004166656249999999
EXTRACT: note_on channel=9 note=49 velocity=0 time=0.005555541666666666
EXTRACT: note_on channel=2 note=39 velocity=0 time=0.11944414583333332
EXTRACT: note_on channel=15 note=39 velocity=0 time=0.16944402083333332
EXTRACT: note_on channel=9 note=42 velocity=66 time=0.008333312499999999
EXTRACT: note_on channel=11 note=61 velocity=63 time=0
EXTRACT: note_on channel=15 note=54 velocity=29 time=0
EXTRACT: note_on channel=8 note=66 velocity=75 time=0.004166656249999999
EXTRACT: note_on channel=2 note=54 velocity=33 time=0.002777770833333333
EXTRACT: note_on channel=2 note=54 velocity=0 time=0.013888854166666666
EXTRACT: note_on channel=9 note=42 velocity=0 time=0.009722197916666666
EXTRACT: note_on channel=8 note=61 velocity=0 time=0.21944389583333332
EXTRACT: note_on channel=15 note=54 velocity=0 time=0.07083315624999999
EXTRACT: note_on channel=1 note=39 velocity=0 time=0.0013888854166666665
EXTRACT: note_on channel=11 note=51 velocity=0 time=0
EXTRACT: note_on channel=8 note=61 velocity=70 time=0.006944427083333333
EXTRACT: note_on channel=9 note=28 velocity=65 time=0.004166656249999999
EXTRACT: note_on channel=9 note=42 velocity=103 time=0
EXTRACT: note_on channel=11 note=54 velocity=73 time=0
EXTRACT: note_on channel=15 note=58 velocity=40 time=0
EXTRACT: note_on channel=15 note=61 velocity=55 time=0
EXTRACT: note_on channel=9 note=39 velocity=103 time=0.0013888854166666665
EXTRACT: note_on channel=9 note=85 velocity=61 time=0.002777770833333333
EXTRACT: note_on channel=2 note=58 velocity=58 time=0.002777770833333333
EXTRACT: note_on channel=9 note=85 velocity=109 time=0.018055510416666663
EXTRACT: note_on channel=2 note=61 velocity=73 time=0.0013888854166666665
EXTRACT: note_on channel=9 note=28 velocity=0 time=0.004166656249999999
EXTRACT: note_on channel=9 note=42 velocity=0 time=0
EXTRACT: note_on channel=9 note=39 velocity=0 time=0.002777770833333333
EXTRACT: note_on channel=9 note=85 velocity=0 time=0.002777770833333333
EXTRACT: note_on channel=2 note=61 velocity=0 time=0.005555541666666666
EXTRACT: note_on channel=2 note=58 velocity=0 time=0.009722197916666666
EXTRACT: note_on channel=9 note=85 velocity=0 time=0.005555541666666666
EXTRACT: control_change channel=15 control=11 value=126 time=0.10972194791666666
EXTRACT: note_on channel=11 note=61 velocity=0 time=0.009722197916666666
EXTRACT: control_change channel=15 control=11 value=123 time=0.03194436458333333
EXTRACT: control_change channel=15 control=11 value=119 time=0.0416665625
EXTRACT: control_change channel=15 control=11 value=114 time=0.0416665625
EXTRACT: note_on channel=8 note=61 velocity=0 time=0.033333249999999995
EXTRACT: note_on channel=8 note=59 velocity=70 time=0.004166656249999999
EXTRACT: note_on channel=1 note=34 velocity=85 time=0.004166656249999999
EXTRACT: note_on channel=9 note=42 velocity=55 time=0
EXTRACT: note_on channel=11 note=61 velocity=53 time=0
EXTRACT: control_change channel=15 control=11 value=111 time=0
EXTRACT: note_on channel=9 note=42 velocity=0 time=0.030555479166666663
EXTRACT: control_change channel=15 control=11 value=107 time=0.011111083333333332
EXTRACT: control_change channel=15 control=11 value=103 time=0.0416665625
EXTRACT: control_change channel=15 control=11 value=99 time=0.0416665625
EXTRACT: note_on channel=15 note=61 velocity=0 time=0.004166656249999999
EXTRACT: note_on channel=8 note=66 velocity=0 time=0.02361105208333333
EXTRACT: note_on channel=3 note=61 velocity=0 time=0.002777770833333333
EXTRACT: control_change channel=15 control=11 value=95 time=0.011111083333333332
EXTRACT: control_change channel=15 control=11 value=91 time=0.048610989583333326
EXTRACT: note_on channel=15 note=58 velocity=0 time=0.016666624999999997
EXTRACT: note_on channel=11 note=54 velocity=0 time=0.05416653125
EXTRACT: note_on channel=13 note=58 velocity=0 time=0.008333312499999999
EXTRACT: control_change channel=2 control=64 value=0 time=0.018055510416666663
EXTRACT: note_on channel=1 note=34 velocity=0 time=0.009722197916666666
EXTRACT: note_on channel=11 note=61 velocity=0 time=0
EXTRACT: note_on channel=8 note=66 velocity=68 time=0.006944427083333333
EXTRACT: note_on channel=1 note=35 velocity=109 time=0.004166656249999999
EXTRACT: note_on channel=9 note=35 velocity=115 time=0
EXTRACT: note_on channel=9 note=42 velocity=101 time=0
EXTRACT: note_on channel=11 note=59 velocity=73 time=0
EXTRACT: note_on channel=15 note=47 velocity=37 time=0
EXTRACT: control_change channel=15 control=11 value=127 time=0
EXTRACT: note_on channel=13 note=59 velocity=30 time=0.002777770833333333
EXTRACT: note_on channel=2 note=47 velocity=61 time=0.0013888854166666665
EXTRACT: control_change channel=2 control=64 value=100 time=0.005555541666666666
EXTRACT: note_on channel=9 note=35 velocity=0 time=0.02083328125
EXTRACT: note_on channel=9 note=42 velocity=0 time=0
EXTRACT: control_change channel=3 control=11 value=101 time=0.08055535416666666
EXTRACT: note_on channel=2 note=47 velocity=0 time=0.07638869791666666
EXTRACT: note_on channel=8 note=59 velocity=0 time=0.07222204166666665
EXTRACT: note_on channel=11 note=59 velocity=0 time=0.05138876041666666
EXTRACT: note_on channel=15 note=47 velocity=0 time=0.013888854166666666
EXTRACT: note_on channel=8 note=59 velocity=62 time=0.002777770833333333
EXTRACT: note_on channel=11 note=61 velocity=73 time=0.004166656249999999
EXTRACT: note_on channel=9 note=42 velocity=53 time=0.0013888854166666665
EXTRACT: note_on channel=15 note=51 velocity=29 time=0
EXTRACT: control_change channel=3 control=1 value=10 time=0
EXTRACT: note_on channel=2 note=51 velocity=32 time=0.006944427083333333
EXTRACT: note_on channel=9 note=42 velocity=0 time=0.02361105208333333
EXTRACT: note_on channel=2 note=51 velocity=0 time=0.02083328125
EXTRACT: note_on channel=8 note=66 velocity=0 time=0.2083328125
EXTRACT: note_on channel=15 note=51 velocity=0 time=0.05138876041666666
EXTRACT: note_on channel=8 note=66 velocity=71 time=0.018055510416666663
EXTRACT: note_on channel=2 note=54 velocity=63 time=0.0013888854166666665
EXTRACT: note_on channel=11 note=61 velocity=0 time=0.002777770833333333
EXTRACT: note_on channel=9 note=28 velocity=67 time=0
EXTRACT: note_on channel=9 note=42 velocity=101 time=0
EXTRACT: note_on channel=11 note=59 velocity=75 time=0
EXTRACT: note_on channel=15 note=54 velocity=41 time=0
EXTRACT: note_on channel=15 note=59 velocity=54 time=0
EXTRACT: note_on channel=9 note=39 velocity=105 time=0.0013888854166666665
EXTRACT: note_on channel=9 note=85 velocity=61 time=0.002777770833333333
EXTRACT: note_on channel=2 note=59 velocity=73 time=0.0013888854166666665
EXTRACT: note_on channel=2 note=59 velocity=0 time=0.015277739583333332
EXTRACT: note_on channel=9 note=85 velocity=109 time=0.004166656249999999
EXTRACT: note_on channel=2 note=54 velocity=0 time=0.005555541666666666
EXTRACT: note_on channel=9 note=28 velocity=0 time=0
EXTRACT: note_on channel=9 note=42 velocity=0 time=0
EXTRACT: note_on channel=9 note=39 velocity=0 time=0.002777770833333333
EXTRACT: note_on channel=9 note=85 velocity=0 time=0.002777770833333333
EXTRACT: note_on channel=9 note=85 velocity=0 time=0.02083328125
EXTRACT: control_change channel=15 control=11 value=127 time=0.08194423958333333
EXTRACT: control_change channel=15 control=11 value=123 time=0.0416665625
EXTRACT: control_change channel=15 control=11 value=119 time=0.0416665625
EXTRACT: note_on channel=8 note=59 velocity=0 time=0.006944427083333333
EXTRACT: control_change channel=15 control=11 value=115 time=0.03472213541666666
EXTRACT: control_change channel=15 control=11 value=111 time=0.0416665625
EXTRACT: note_on channel=1 note=35 velocity=0 time=0.016666624999999997
EXTRACT: note_on channel=8 note=59 velocity=70 time=0.006944427083333333
EXTRACT: note_on channel=9 note=35 velocity=105 time=0.004166656249999999
EXTRACT: note_on channel=9 note=42 velocity=61 time=0
EXTRACT: note_on channel=11 note=54 velocity=49 time=0.005555541666666666
EXTRACT: control_change channel=15 control=11 value=107 time=0.008333312499999999
EXTRACT: note_on channel=9 note=35 velocity=0 time=0.016666624999999997
EXTRACT: note_on channel=9 note=42 velocity=0 time=0
EXTRACT: control_change channel=15 control=11 value=103 time=0.024999937499999996
EXTRACT: control_change channel=15 control=11 value=99 time=0.0416665625
EXTRACT: control_change channel=15 control=11 value=95 time=0.0416665625
EXTRACT: note_on channel=15 note=59 velocity=0 time=0.0013888854166666665
EXTRACT: control_change channel=15 control=11 value=91 time=0.04722210416666666
EXTRACT: note_on channel=15 note=54 velocity=0 time=0.07222204166666665
EXTRACT: note_on channel=13 note=54 velocity=0 time=0.024999937499999996
EXTRACT: note_on channel=11 note=59 velocity=0 time=0.015277739583333332
EXTRACT: control_change channel=15 control=11 value=127 time=0.005555541666666666
EXTRACT: note_on channel=8 note=59 velocity=0 time=0.006944427083333333
EXTRACT: control_change channel=2 control=64 value=0 time=0
EXTRACT: note_on channel=11 note=54 velocity=0 time=0.005555541666666666
EXTRACT: note_on channel=13 note=51 velocity=0 time=0.004166656249999999
EXTRACT: note_on channel=13 note=54 velocity=25 time=0.006944427083333333
EXTRACT: note_on channel=8 note=66 velocity=0 time=0.004166656249999999
EXTRACT: note_on channel=1 note=42 velocity=113 time=0
EXTRACT: note_on channel=8 note=61 velocity=68 time=0
EXTRACT: note_on channel=9 note=35 velocity=119 time=0
EXTRACT: note_on channel=9 note=42 velocity=103 time=0
EXTRACT: note_on channel=15 note=42 velocity=43 time=0
EXTRACT: note_on channel=13 note=59 velocity=0 time=0.002777770833333333
EXTRACT: note_on channel=2 note=42 velocity=53 time=0.0013888854166666665
EXTRACT: note_on channel=11 note=54 velocity=67 time=0.0013888854166666665
EXTRACT: note_on channel=13 note=58 velocity=30 time=0.006944427083333333
EXTRACT: note_on channel=13 note=49 velocity=21 time=0.011111083333333332
EXTRACT: note_on channel=9 note=35 velocity=0 time=0.006944427083333333
EXTRACT: note_on channel=9 note=42 velocity=0 time=0
EXTRACT: control_change channel=2 control=64 value=100 time=0
EXTRACT: note_on channel=2 note=42 velocity=0 time=0.12499968749999998
EXTRACT: note_on channel=15 note=42 velocity=0 time=0.1583329375
EXTRACT: note_on channel=8 note=66 velocity=75 time=0.015277739583333332
EXTRACT: note_on channel=2 note=49 velocity=39 time=0.0013888854166666665
EXTRACT: note_on channel=3 note=61 velocity=110 time=0
EXTRACT: note_on channel=9 note=42 velocity=59 time=0
EXTRACT: note_on channel=15 note=49 velocity=29 time=0
EXTRACT: note_on channel=11 note=58 velocity=75 time=0.006944427083333333
EXTRACT: note_on channel=2 note=49 velocity=0 time=0.002777770833333333
EXTRACT: note_on channel=9 note=42 velocity=0 time=0.02083328125
EXTRACT: note_on channel=8 note=61 velocity=0 time=0.12083303124999999
EXTRACT: note_on channel=3 note=61 velocity=0 time=0.008333312499999999
EXTRACT: note_on channel=11 note=54 velocity=0 time=0.13194411458333333
EXTRACT: note_on channel=8 note=61 velocity=71 time=0.03749990625
EXTRACT: note_on channel=3 note=61 velocity=110 time=0
EXTRACT: note_on channel=9 note=28 velocity=67 time=0
EXTRACT: note_on channel=9 note=42 velocity=105 time=0
EXTRACT: note_on channel=15 note=54 velocity=41 time=0
EXTRACT: note_on channel=15 note=58 velocity=57 time=0
EXTRACT: note_on channel=9 note=39 velocity=105 time=0.0013888854166666665
EXTRACT: note_on channel=11 note=54 velocity=69 time=0
EXTRACT: note_on channel=9 note=85 velocity=60 time=0.002777770833333333
EXTRACT: note_on channel=15 note=49 velocity=0 time=0.0013888854166666665
EXTRACT: note_on channel=2 note=58 velocity=73 time=0.009722197916666666
EXTRACT: note_on channel=2 note=54 velocity=59 time=0.002777770833333333
EXTRACT: note_on channel=9 note=85 velocity=109 time=0.006944427083333333
EXTRACT: note_on channel=9 note=28 velocity=0 time=0.005555541666666666
EXTRACT: note_on channel=9 note=42 velocity=0 time=0
EXTRACT: note_on channel=9 note=39 velocity=0 time=0.002777770833333333
EXTRACT: note_on channel=9 note=85 velocity=0 time=0.002777770833333333
EXTRACT: note_on channel=2 note=54 velocity=0 time=0.015277739583333332
EXTRACT: note_on channel=9 note=85 velocity=0 time=0.005555541666666666
EXTRACT: note_on channel=1 note=42 velocity=0 time=0.015277739583333332
EXTRACT: note_on channel=2 note=58 velocity=0 time=0.011111083333333332
EXTRACT: control_change channel=15 control=11 value=127 time=0.06249984374999999
EXTRACT: note_on channel=3 note=61 velocity=0 time=0.013888854166666666
EXTRACT: control_change channel=15 control=11 value=123 time=0.02777770833333333
EXTRACT: control_change channel=15 control=11 value=119 time=0.0416665625
EXTRACT: note_on channel=8 note=66 velocity=0 time=0.005555541666666666
EXTRACT: control_change channel=15 control=11 value=115 time=0.03611102083333333
EXTRACT: note_on channel=11 note=54 velocity=0 time=0.02361105208333333
EXTRACT: note_on channel=11 note=58 velocity=0 time=0.006944427083333333
EXTRACT: control_change channel=15 control=11 value=110 time=0.011111083333333332
EXTRACT: note_on channel=1 note=37 velocity=101 time=0.02083328125
EXTRACT: note_on channel=8 note=65 velocity=70 time=0
EXTRACT: note_on channel=9 note=35 velocity=106 time=0
EXTRACT: note_on channel=9 note=42 velocity=62 time=0
EXTRACT: note_on channel=11 note=61 velocity=68 time=0.0013888854166666665
EXTRACT: note_on channel=3 note=61 velocity=111 time=0
EXTRACT: control_change channel=15 control=11 value=107 time=0.008333312499999999
EXTRACT: note_on channel=9 note=35 velocity=0 time=0.009722197916666666
EXTRACT: note_on channel=9 note=42 velocity=0 time=0
EXTRACT: control_change channel=15 control=11 value=102 time=0.03194436458333333
EXTRACT: control_change channel=15 control=11 value=98 time=0.0416665625
EXTRACT: control_change channel=15 control=11 value=95 time=0.0416665625
EXTRACT: note_on channel=3 note=61 velocity=0 time=0.02777770833333333
EXTRACT: control_change channel=15 control=11 value=90 time=0.02083328125
EXTRACT: note_on channel=15 note=58 velocity=0 time=0.029166593749999997
EXTRACT: note_on channel=15 note=54 velocity=0 time=0.038888791666666665
EXTRACT: control_change channel=2 control=64 value=0 time=0.038888791666666665
EXTRACT: note_on channel=13 note=54 velocity=0 time=0.006944427083333333
EXTRACT: control_change channel=15 control=11 value=127 time=0.004166656249999999
EXTRACT: note_on channel=13 note=58 velocity=0 time=0.009722197916666666
EXTRACT: note_on channel=11 note=49 velocity=69 time=0.004166656249999999
EXTRACT: note_on channel=9 note=42 velocity=105 time=0.006944427083333333
EXTRACT: note_on channel=15 note=41 velocity=43 time=0
EXTRACT: note_on channel=2 note=41 velocity=41 time=0.004166656249999999
EXTRACT: note_on channel=13 note=53 velocity=26 time=0.008333312499999999
EXTRACT: note_on channel=3 note=63 velocity=111 time=0
EXTRACT: control_change channel=2 control=64 value=100 time=0.0013888854166666665
EXTRACT: note_on channel=13 note=56 velocity=30 time=0.005555541666666666
EXTRACT: note_on channel=9 note=42 velocity=0 time=0.004166656249999999
EXTRACT: note_on channel=2 note=41 velocity=0 time=0.1569440520833333
EXTRACT: note_on channel=8 note=61 velocity=0 time=0.05138876041666666
EXTRACT: note_on channel=3 note=63 velocity=0 time=0.05277764583333333
EXTRACT: note_on channel=15 note=41 velocity=0 time=0.033333249999999995
EXTRACT: note_on channel=8 note=61 velocity=70 time=0.008333312499999999
EXTRACT: note_on channel=9 note=42 velocity=62 time=0
EXTRACT: note_on channel=15 note=49 velocity=29 time=0
EXTRACT: note_on channel=3 note=61 velocity=110 time=0
EXTRACT: note_on channel=2 note=49 velocity=39 time=0.0013888854166666665
EXTRACT: note_on channel=9 note=42 velocity=0 time=0.02361105208333333
EXTRACT: note_on channel=2 note=49 velocity=0 time=0.02083328125
EXTRACT: note_on channel=8 note=65 velocity=0 time=0.10416640625
EXTRACT: note_on channel=11 note=61 velocity=0 time=0.08055535416666666
EXTRACT: note_on channel=3 note=61 velocity=0 time=0.02083328125
EXTRACT: note_on channel=11 note=49 velocity=0 time=0.04999987499999999
EXTRACT: note_on channel=15 note=49 velocity=0 time=0.022222166666666664
EXTRACT: note_on channel=9 note=28 velocity=64 time=0.004166656249999999
EXTRACT: note_on channel=9 note=42 velocity=105 time=0
EXTRACT: note_on channel=15 note=56 velocity=69 time=0
EXTRACT: note_on channel=3 note=58 velocity=111 time=0
EXTRACT: note_on channel=9 note=39 velocity=103 time=0
EXTRACT: note_on channel=11 note=56 velocity=78 time=0.0013888854166666665
EXTRACT: note_on channel=9 note=85 velocity=54 time=0.0013888854166666665
EXTRACT: note_on channel=8 note=65 velocity=89 time=0.006944427083333333
EXTRACT: note_on channel=2 note=56 velocity=73 time=0.004166656249999999
EXTRACT: note_on channel=9 note=85 velocity=108 time=0.009722197916666666
EXTRACT: note_on channel=9 note=28 velocity=0 time=0.005555541666666666
EXTRACT: note_on channel=9 note=42 velocity=0 time=0
EXTRACT: note_on channel=9 note=39 velocity=0 time=0.002777770833333333
EXTRACT: note_on channel=9 note=85 velocity=0 time=0.002777770833333333
EXTRACT: note_on channel=2 note=56 velocity=0 time=0.005555541666666666
EXTRACT: note_on channel=1 note=37 velocity=0 time=0.002777770833333333
EXTRACT: note_on channel=9 note=85 velocity=0 time=0.012499968749999998
EXTRACT: control_change channel=15 control=11 value=126 time=0.061110958333333326
EXTRACT: note_on channel=8 note=65 velocity=0 time=0.02777770833333333
EXTRACT: note_on channel=3 note=58 velocity=0 time=0.0013888854166666665
EXTRACT: control_change channel=15 control=11 value=123 time=0.012499968749999998
EXTRACT: note_on channel=8 note=66 velocity=66 time=0.005555541666666666
EXTRACT: control_change channel=15 control=11 value=118 time=0.03611102083333333
EXTRACT: note_on channel=8 note=61 velocity=0 time=0.03749990625
EXTRACT: control_change channel=15 control=11 value=114 time=0.004166656249999999
EXTRACT: control_change channel=15 control=11 value=111 time=0.0416665625
EXTRACT: control_change channel=15 control=11 value=107 time=0.0416665625
EXTRACT: note_on channel=3 note=58 velocity=111 time=0
EXTRACT: note_on channel=1 note=37 velocity=99 time=0.0013888854166666665
EXTRACT: note_on channel=9 note=35 velocity=89 time=0
EXTRACT: note_on channel=9 note=46 velocity=83 time=0
EXTRACT: note_on channel=2 note=49 velocity=35 time=0.004166656249999999
EXTRACT: note_on channel=8 note=61 velocity=86 time=0.002777770833333333
EXTRACT: note_on channel=15 note=37 velocity=39 time=0.012499968749999998
EXTRACT: note_on channel=9 note=35 velocity=0 time=0.011111083333333332
EXTRACT: note_on channel=9 note=46 velocity=0 time=0
EXTRACT: control_change channel=15 control=11 value=103 time=0.004166656249999999
EXTRACT: note_on channel=2 note=49 velocity=0 time=0.016666624999999997
EXTRACT: control_change channel=15 control=11 value=98 time=0.024999937499999996
EXTRACT: control_change channel=15 control=11 value=94 time=0.0416665625
EXTRACT: note_on channel=15 note=56 velocity=0 time=0.03749990625
EXTRACT: control_change channel=15 control=11 value=90 time=0.011111083333333332
EXTRACT: note_on channel=15 note=37 velocity=0 time=0.11388860416666666
EXTRACT: control_change channel=2 control=64 value=0 time=0
EXTRACT: note_on channel=11 note=56 velocity=0 time=0.011111083333333332
EXTRACT: note_on channel=13 note=49 velocity=0 time=0.002777770833333333
EXTRACT: note_on channel=8 note=66 velocity=0 time=0.012499968749999998
EXTRACT: note_on channel=13 note=53 velocity=0 time=0.015277739583333332
EXTRACT: control_change channel=15 control=11 value=126 time=0.004166656249999999
EXTRACT: note_on channel=1 note=39 velocity=111 time=0.006944427083333333
EXTRACT: note_on channel=8 note=58 velocity=51 time=0
EXTRACT: note_on channel=9 note=35 velocity=116 time=0
EXTRACT: note_on channel=9 note=42 velocity=103 time=0
EXTRACT: note_on channel=11 note=51 velocity=66 time=0
EXTRACT: note_on channel=15 note=39 velocity=39 time=0
EXTRACT: note_on channel=13 note=56 velocity=0 time=0.002777770833333333
EXTRACT: note_on channel=1 note=37 velocity=0 time=0
EXTRACT: note_on channel=2 note=39 velocity=51 time=0.0013888854166666665
EXTRACT: note_on channel=13 note=58 velocity=31 time=0.008333312499999999
EXTRACT: control_change channel=2 control=64 value=100 time=0.008333312499999999
EXTRACT: note_on channel=13 note=51 velocity=24 time=0.002777770833333333
EXTRACT: note_on channel=13 note=54 velocity=28 time=0
EXTRACT: note_on channel=9 note=35 velocity=0 time=0.006944427083333333
EXTRACT: note_on channel=9 note=42 velocity=0 time=0
EXTRACT: note_on channel=2 note=39 velocity=0 time=0.12499968749999998
EXTRACT: note_on channel=8 note=61 velocity=0 time=0.1569440520833333
EXTRACT: note_on channel=15 note=39 velocity=0 time=0.012499968749999998
EXTRACT: note_on channel=9 note=42 velocity=66 time=0.008333312499999999
EXTRACT: note_on channel=11 note=61 velocity=63 time=0
EXTRACT: note_on channel=15 note=54 velocity=29 time=0
EXTRACT: note_on channel=8 note=66 velocity=75 time=0.004166656249999999
EXTRACT: note_on channel=2 note=54 velocity=41 time=0.002777770833333333
EXTRACT: note_on channel=2 note=54 velocity=0 time=0.013888854166666666
EXTRACT: note_on channel=9 note=42 velocity=0 time=0.009722197916666666
EXTRACT: note_on channel=8 note=58 velocity=0 time=0.21944389583333332
EXTRACT: note_on channel=15 note=54 velocity=0 time=0.07083315624999999
EXTRACT: note_on channel=11 note=51 velocity=0 time=0.0013888854166666665
EXTRACT: note_on channel=8 note=61 velocity=70 time=0.006944427083333333
EXTRACT: note_on channel=2 note=51 velocity=41 time=0.004166656249999999
EXTRACT: note_on channel=9 note=28 velocity=68 time=0
EXTRACT: note_on channel=9 note=42 velocity=102 time=0
EXTRACT: note_on channel=11 note=54 velocity=72 time=0
EXTRACT: note_on channel=15 note=58 velocity=41 time=0
EXTRACT: note_on channel=15 note=61 velocity=51 time=0
EXTRACT: note_on channel=9 note=39 velocity=107 time=0.0013888854166666665
EXTRACT: note_on channel=9 note=85 velocity=58 time=0.002777770833333333
EXTRACT: note_on channel=2 note=51 velocity=0 time=0.011111083333333332
EXTRACT: note_on channel=9 note=85 velocity=108 time=0.009722197916666666
EXTRACT: note_on channel=2 note=58 velocity=67 time=0.002777770833333333
EXTRACT: note_on channel=9 note=28 velocity=0 time=0.002777770833333333
EXTRACT: note_on channel=9 note=42 velocity=0 time=0
EXTRACT: note_on channel=9 note=39 velocity=0 time=0.002777770833333333
EXTRACT: note_on channel=9 note=85 velocity=0 time=0.002777770833333333
EXTRACT: note_on channel=9 note=85 velocity=0 time=0.02083328125
EXTRACT: note_on channel=1 note=39 velocity=0 time=0.015277739583333332
EXTRACT: note_on channel=2 note=58 velocity=0 time=0
EXTRACT: control_change channel=15 control=11 value=127 time=0.09444420833333332
EXTRACT: note_on channel=11 note=61 velocity=0 time=0.009722197916666666
EXTRACT: control_change channel=15 control=11 value=122 time=0.03194436458333333
EXTRACT: control_change channel=15 control=11 value=118 time=0.0416665625
EXTRACT: control_change channel=15 control=11 value=115 time=0.0416665625
EXTRACT: note_on channel=3 note=58 velocity=0 time=0.030555479166666663
EXTRACT: note_on channel=8 note=61 velocity=0 time=0.002777770833333333
EXTRACT: note_on channel=8 note=59 velocity=71 time=0.004166656249999999
EXTRACT: note_on channel=1 note=34 velocity=65 time=0.004166656249999999
EXTRACT: note_on channel=9 note=42 velocity=55 time=0
EXTRACT: note_on channel=11 note=61 velocity=53 time=0
EXTRACT: control_change channel=15 control=11 value=111 time=0
EXTRACT: note_on channel=9 note=42 velocity=0 time=0.030555479166666663
EXTRACT: control_change channel=15 control=11 value=106 time=0.011111083333333332
EXTRACT: control_change channel=15 control=11 value=102 time=0.0416665625
EXTRACT: control_change channel=15 control=11 value=99 time=0.0416665625
EXTRACT: note_on channel=8 note=66 velocity=0 time=0.02777770833333333
EXTRACT: control_change channel=15 control=11 value=94 time=0.013888854166666666
EXTRACT: control_change channel=15 control=11 value=90 time=0.048610989583333326
EXTRACT: note_on channel=15 note=61 velocity=0 time=0.018055510416666663
EXTRACT: note_on channel=13 note=58 velocity=0 time=0.04722210416666666
EXTRACT: note_on channel=11 note=54 velocity=0 time=0.005555541666666666
EXTRACT: note_on channel=15 note=58 velocity=0 time=0.008333312499999999
EXTRACT: control_change channel=2 control=64 value=0 time=0.018055510416666663
EXTRACT: note_on channel=1 note=34 velocity=0 time=0.009722197916666666
EXTRACT: note_on channel=11 note=61 velocity=0 time=0
EXTRACT: note_on channel=8 note=66 velocity=69 time=0.006944427083333333
EXTRACT: note_on channel=1 note=35 velocity=108 time=0.004166656249999999
EXTRACT: note_on channel=9 note=35 velocity=114 time=0
EXTRACT: note_on channel=9 note=42 velocity=101 time=0
EXTRACT: note_on channel=11 note=59 velocity=72 time=0
EXTRACT: note_on channel=15 note=47 velocity=37 time=0
EXTRACT: control_change channel=15 control=11 value=127 time=0
EXTRACT: note_on channel=13 note=59 velocity=30 time=0.002777770833333333
EXTRACT: note_on channel=2 note=47 velocity=61 time=0.0013888854166666665
EXTRACT: control_change channel=2 control=64 value=100 time=0.005555541666666666
EXTRACT: note_on channel=9 note=35 velocity=0 time=0.02083328125
EXTRACT: note_on channel=9 note=42 velocity=0 time=0
EXTRACT: note_on channel=2 note=47 velocity=0 time=0.1569440520833333
EXTRACT: note_on channel=8 note=59 velocity=0 time=0.07222204166666665
EXTRACT: note_on channel=11 note=59 velocity=0 time=0.05138876041666666
EXTRACT: note_on channel=15 note=47 velocity=0 time=0.013888854166666666
EXTRACT: note_on channel=8 note=59 velocity=62 time=0.002777770833333333
EXTRACT: note_on channel=11 note=61 velocity=73 time=0.004166656249999999
EXTRACT: note_on channel=9 note=42 velocity=52 time=0.0013888854166666665
EXTRACT: note_on channel=15 note=51 velocity=29 time=0
EXTRACT: note_on channel=2 note=51 velocity=47 time=0.006944427083333333
EXTRACT: note_on channel=9 note=42 velocity=0 time=0.02361105208333333
EXTRACT: note_on channel=2 note=51 velocity=0 time=0.02083328125
EXTRACT: note_on channel=8 note=66 velocity=0 time=0.2083328125
EXTRACT: note_on channel=15 note=51 velocity=0 time=0.05138876041666666
EXTRACT: note_on channel=8 note=66 velocity=71 time=0.018055510416666663
EXTRACT: note_on channel=11 note=61 velocity=0 time=0.004166656249999999
EXTRACT: note_on channel=9 note=28 velocity=68 time=0
EXTRACT: note_on channel=9 note=42 velocity=101 time=0
EXTRACT: note_on channel=11 note=59 velocity=74 time=0
EXTRACT: note_on channel=15 note=59 velocity=63 time=0
EXTRACT: note_on channel=9 note=39 velocity=106 time=0.0013888854166666665
EXTRACT: note_on channel=9 note=85 velocity=57 time=0.002777770833333333
EXTRACT: note_on channel=2 note=59 velocity=65 time=0.0013888854166666665
EXTRACT: note_on channel=1 note=35 velocity=0 time=0.011111083333333332
EXTRACT: note_on channel=2 note=59 velocity=0 time=0.004166656249999999
EXTRACT: note_on channel=9 note=85 velocity=109 time=0.004166656249999999
EXTRACT: note_on channel=9 note=28 velocity=0 time=0.005555541666666666
EXTRACT: note_on channel=9 note=42 velocity=0 time=0
EXTRACT: note_on channel=9 note=39 velocity=0 time=0.002777770833333333
EXTRACT: note_on channel=9 note=85 velocity=0 time=0.002777770833333333
EXTRACT: note_on channel=9 note=85 velocity=0 time=0.02083328125
EXTRACT: control_change channel=15 control=11 value=127 time=0.08194423958333333
EXTRACT: control_change channel=15 control=11 value=122 time=0.0416665625
EXTRACT: control_change channel=15 control=11 value=119 time=0.0416665625
EXTRACT: note_on channel=8 note=59 velocity=0 time=0.006944427083333333
EXTRACT: control_change channel=15 control=11 value=115 time=0.03472213541666666
EXTRACT: control_change channel=15 control=11 value=110 time=0.0416665625
EXTRACT: note_on channel=8 note=59 velocity=71 time=0.02361105208333333
EXTRACT: note_on channel=1 note=35 velocity=75 time=0.004166656249999999
EXTRACT: note_on channel=9 note=35 velocity=105 time=0
EXTRACT: note_on channel=9 note=42 velocity=60 time=0
EXTRACT: note_on channel=15 note=54 velocity=59 time=0
EXTRACT: note_on channel=11 note=54 velocity=48 time=0.005555541666666666
EXTRACT: control_change channel=15 control=11 value=107 time=0.008333312499999999
EXTRACT: note_on channel=2 note=54 velocity=51 time=0.004166656249999999
EXTRACT: note_on channel=9 note=35 velocity=0 time=0.012499968749999998
EXTRACT: note_on channel=9 note=42 velocity=0 time=0
EXTRACT: note_on channel=2 note=54 velocity=0 time=0.02083328125
EXTRACT: control_change channel=15 control=11 value=103 time=0.004166656249999999
EXTRACT: control_change channel=15 control=11 value=99 time=0.0416665625
EXTRACT: control_change channel=15 control=11 value=95 time=0.0416665625
EXTRACT: note_on channel=15 note=59 velocity=0 time=0.05277764583333333
EXTRACT: note_on channel=13 note=54 velocity=0 time=0.09305532291666666
EXTRACT: note_on channel=11 note=59 velocity=0 time=0.015277739583333332
EXTRACT: control_change channel=15 control=11 value=127 time=0.005555541666666666
EXTRACT: note_on channel=8 note=59 velocity=0 time=0.006944427083333333
EXTRACT: control_change channel=2 control=64 value=0 time=0
EXTRACT: note_on channel=11 note=54 velocity=0 time=0.005555541666666666
EXTRACT: note_on channel=13 note=51 velocity=0 time=0.004166656249999999
EXTRACT: note_on channel=1 note=35 velocity=0 time=0
EXTRACT: note_on channel=13 note=54 velocity=25 time=0.006944427083333333
EXTRACT: note_on channel=8 note=66 velocity=0 time=0.004166656249999999
EXTRACT: note_on channel=1 note=42 velocity=112 time=0
EXTRACT: note_on channel=8 note=61 velocity=69 time=0
EXTRACT: note_on channel=9 note=35 velocity=118 time=0
EXTRACT: note_on channel=9 note=42 velocity=103 time=0
EXTRACT: note_on channel=13 note=61 velocity=30 time=0
EXTRACT: note_on channel=15 note=42 velocity=43 time=0
EXTRACT: note_on channel=13 note=59 velocity=0 time=0.002777770833333333
EXTRACT: note_on channel=2 note=42 velocity=53 time=0.0013888854166666665
EXTRACT: note_on channel=11 note=54 velocity=67 time=0.0013888854166666665
EXTRACT: note_on channel=13 note=58 velocity=30 time=0.006944427083333333
EXTRACT: note_on channel=9 note=35 velocity=0 time=0.018055510416666663
EXTRACT: note_on channel=9 note=42 velocity=0 time=0
EXTRACT: control_change channel=2 control=64 value=100 time=0
EXTRACT: note_on channel=15 note=54 velocity=0 time=0.083333125
EXTRACT: note_on channel=2 note=42 velocity=0 time=0.0416665625
EXTRACT: note_on channel=1 note=42 velocity=0 time=0.13888854166666664
EXTRACT: note_on channel=15 note=42 velocity=0 time=0.019444395833333333
EXTRACT: note_on channel=8 note=66 velocity=75 time=0.015277739583333332
EXTRACT: note_on channel=2 note=49 velocity=41 time=0.0013888854166666665
EXTRACT: note_on channel=1 note=42 velocity=112 time=0.002777770833333333
EXTRACT: note_on channel=9 note=42 velocity=59 time=0
EXTRACT: note_on channel=15 note=49 velocity=29 time=0
EXTRACT: note_on channel=11 note=58 velocity=75 time=0.006944427083333333
EXTRACT: note_on channel=2 note=49 velocity=0 time=0.002777770833333333
EXTRACT: note_on channel=9 note=42 velocity=0 time=0.02083328125
EXTRACT: note_on channel=8 note=61 velocity=0 time=0.12083303124999999
EXTRACT: note_on channel=15 note=49 velocity=0 time=0.13194411458333333
EXTRACT: note_on channel=11 note=54 velocity=0 time=0.008333312499999999
EXTRACT: note_on channel=8 note=61 velocity=71 time=0.03749990625
EXTRACT: note_on channel=9 note=28 velocity=69 time=0.004166656249999999
EXTRACT: note_on channel=9 note=42 velocity=105 time=0
EXTRACT: note_on channel=15 note=54 velocity=65 time=0
EXTRACT: note_on channel=9 note=39 velocity=107 time=0.0013888854166666665
EXTRACT: note_on channel=11 note=54 velocity=69 time=0
EXTRACT: note_on channel=9 note=85 velocity=61 time=0.002777770833333333
EXTRACT: note_on channel=2 note=54 velocity=68 time=0.013888854166666666
EXTRACT: note_on channel=9 note=85 velocity=109 time=0.006944427083333333
EXTRACT: note_on channel=1 note=42 velocity=0 time=0.005555541666666666
EXTRACT: note_on channel=9 note=28 velocity=0 time=0
EXTRACT: note_on channel=9 note=42 velocity=0 time=0
EXTRACT: note_on channel=9 note=39 velocity=0 time=0.002777770833333333
EXTRACT: note_on channel=2 note=61 velocity=57 time=0.002777770833333333
EXTRACT: note_on channel=9 note=85 velocity=0 time=0
EXTRACT: note_on channel=2 note=54 velocity=0 time=0.015277739583333332
EXTRACT: note_on channel=9 note=85 velocity=0 time=0.005555541666666666
EXTRACT: note_on channel=2 note=61 velocity=0 time=0.04722210416666666
EXTRACT: control_change channel=15 control=11 value=127 time=0.0416665625
EXTRACT: control_change channel=15 control=11 value=123 time=0.0416665625
EXTRACT: control_change channel=15 control=11 value=119 time=0.0416665625
EXTRACT: note_on channel=8 note=66 velocity=0 time=0.005555541666666666
EXTRACT: control_change channel=15 control=11 value=115 time=0.03611102083333333
EXTRACT: note_on channel=11 note=54 velocity=0 time=0.02361105208333333
EXTRACT: note_on channel=11 note=58 velocity=0 time=0.006944427083333333
EXTRACT: control_change channel=15 control=11 value=111 time=0.011111083333333332
EXTRACT: note_on channel=1 note=41 velocity=99 time=0.02083328125
EXTRACT: note_on channel=8 note=65 velocity=71 time=0
EXTRACT: note_on channel=9 note=35 velocity=107 time=0
EXTRACT: note_on channel=9 note=42 velocity=63 time=0
EXTRACT: note_on channel=11 note=61 velocity=68 time=0.0013888854166666665
EXTRACT: control_change channel=15 control=11 value=107 time=0.019444395833333333
EXTRACT: note_on channel=9 note=35 velocity=0 time=0.009722197916666666
EXTRACT: note_on channel=9 note=42 velocity=0 time=0
EXTRACT: control_change channel=15 control=11 value=103 time=0.03194436458333333
EXTRACT: control_change channel=15 control=11 value=99 time=0.0416665625
EXTRACT: control_change channel=15 control=11 value=95 time=0.0416665625
EXTRACT: note_on channel=15 note=54 velocity=0 time=0.009722197916666666
EXTRACT: control_change channel=15 control=11 value=91 time=0.038888791666666665
EXTRACT: control_change channel=2 control=64 value=0 time=0.10694417708333333
EXTRACT: note_on channel=13 note=54 velocity=0 time=0.006944427083333333
EXTRACT: control_change channel=15 control=11 value=127 time=0.004166656249999999
EXTRACT: note_on channel=13 note=58 velocity=0 time=0.009722197916666666
EXTRACT: note_on channel=11 note=49 velocity=68 time=0.004166656249999999
EXTRACT: control_change channel=2 control=64 value=100 time=0
EXTRACT: note_on channel=13 note=56 velocity=30 time=0.005555541666666666
EXTRACT: note_on channel=2 note=41 velocity=52 time=0.0013888854166666665
EXTRACT: note_on channel=2 note=56 velocity=66 time=0
EXTRACT: note_on channel=9 note=42 velocity=105 time=0
EXTRACT: note_on channel=2 note=41 velocity=0 time=0.005555541666666666
EXTRACT: note_on channel=13 note=53 velocity=26 time=0.006944427083333333
EXTRACT: note_on channel=2 note=49 velocity=41 time=0.008333312499999999
EXTRACT: note_on channel=15 note=56 velocity=75 time=0
EXTRACT: note_on channel=2 note=56 velocity=0 time=0.004166656249999999
EXTRACT: note_on channel=9 note=42 velocity=0 time=0.005555541666666666
EXTRACT: note_on channel=2 note=49 velocity=0 time=0
EXTRACT: note_on channel=1 note=41 velocity=0 time=0.02361105208333333
EXTRACT: note_on channel=8 note=61 velocity=0 time=0.18472176041666666
EXTRACT: note_on channel=1 note=41 velocity=104 time=0.09444420833333332
EXTRACT: note_on channel=8 note=61 velocity=71 time=0
EXTRACT: note_on channel=9 note=42 velocity=63 time=0
EXTRACT: control_change channel=15 control=11 value=127 time=0.006944427083333333
EXTRACT: note_on channel=9 note=42 velocity=0 time=0.02361105208333333
EXTRACT: control_change channel=15 control=11 value=123 time=0.018055510416666663
EXTRACT: control_change channel=15 control=11 value=119 time=0.0416665625
EXTRACT: control_change channel=15 control=11 value=115 time=0.0416665625
EXTRACT: note_on channel=8 note=65 velocity=0 time=0.02361105208333333
EXTRACT: control_change channel=15 control=11 value=111 time=0.018055510416666663
EXTRACT: control_change channel=15 control=11 value=107 time=0.0416665625
EXTRACT: note_on channel=11 note=61 velocity=0 time=0.02083328125
EXTRACT: control_change channel=15 control=11 value=102 time=0.02083328125
EXTRACT: control_change channel=15 control=11 value=99 time=0.0416665625
EXTRACT: note_on channel=11 note=49 velocity=0 time=0.008333312499999999
EXTRACT: note_on channel=3 note=54 velocity=110 time=0
EXTRACT: note_on channel=4 note=61 velocity=6 time=0.005555541666666666
EXTRACT: note_on channel=9 note=28 velocity=93 time=0
EXTRACT: note_on channel=9 note=42 velocity=105 time=0
EXTRACT: note_on channel=8 note=65 velocity=87 time=0.0013888854166666665
EXTRACT: note_on channel=9 note=39 velocity=101 time=0
EXTRACT: note_on channel=11 note=56 velocity=78 time=0.0013888854166666665
EXTRACT: note_on channel=9 note=85 velocity=61 time=0.0013888854166666665
EXTRACT: control_change channel=15 control=11 value=94 time=0.002777770833333333
EXTRACT: note_on channel=9 note=85 velocity=109 time=0.018055510416666663
EXTRACT: note_on channel=9 note=28 velocity=0 time=0.005555541666666666
EXTRACT: note_on channel=9 note=42 velocity=0 time=0
EXTRACT: note_on channel=9 note=39 velocity=0 time=0.002777770833333333
EXTRACT: note_on channel=9 note=85 velocity=0 time=0.002777770833333333
EXTRACT: note_on channel=1 note=41 velocity=0 time=0.004166656249999999
EXTRACT: control_change channel=15 control=11 value=90 time=0.015277739583333332
EXTRACT: note_on channel=9 note=85 velocity=0 time=0.0013888854166666665
EXTRACT: note_on channel=8 note=65 velocity=0 time=0.08888866666666666
EXTRACT: note_on channel=8 note=66 velocity=73 time=0.008333312499999999
EXTRACT: note_on channel=15 note=56 velocity=0 time=0.04305544791666666
EXTRACT: note_on channel=3 note=54 velocity=0 time=0.018055510416666663
EXTRACT: note_on channel=8 note=61 velocity=0 time=0.02361105208333333
EXTRACT: control_change channel=15 control=11 value=127 time=0.05972207291666666
EXTRACT: note_on channel=4 note=61 velocity=0 time=0.022222166666666664
EXTRACT: note_on channel=1 note=37 velocity=99 time=0
EXTRACT: note_on channel=2 note=49 velocity=26 time=0
EXTRACT: note_on channel=3 note=61 velocity=111 time=0
EXTRACT: note_on channel=4 note=66 velocity=6 time=0
EXTRACT: note_on channel=9 note=35 velocity=111 time=0
EXTRACT: note_on channel=9 note=46 velocity=83 time=0
EXTRACT: note_on channel=15 note=56 velocity=51 time=0
EXTRACT: note_on channel=8 note=61 velocity=69 time=0.006944427083333333
EXTRACT: note_on channel=2 note=56 velocity=54 time=0.008333312499999999
EXTRACT: note_on channel=9 note=35 velocity=0 time=0.015277739583333332
EXTRACT: note_on channel=9 note=46 velocity=0 time=0
EXTRACT: note_on channel=2 note=56 velocity=0 time=0.011111083333333332
EXTRACT: note_on channel=15 note=56 velocity=0 time=0.13472188541666666
EXTRACT: note_on channel=13 note=61 velocity=0 time=0.008333312499999999
EXTRACT: note_on channel=3 note=61 velocity=0 time=0.033333249999999995
EXTRACT: control_change channel=2 control=64 value=0 time=0.06249984374999999
EXTRACT: note_on channel=8 note=66 velocity=0 time=0.005555541666666666
EXTRACT: note_on channel=11 note=56 velocity=0 time=0.005555541666666666
EXTRACT: note_on channel=13 note=56 velocity=0 time=0.016666624999999997
EXTRACT: note_on channel=4 note=66 velocity=0 time=0.012499968749999998
EXTRACT: note_on channel=13 note=53 velocity=0 time=0.0013888854166666665
EXTRACT: note_on channel=8 note=58 velocity=59 time=0.005555541666666666
EXTRACT: note_on channel=1 note=39 velocity=108 time=0
EXTRACT: note_on channel=3 note=61 velocity=111 time=0
EXTRACT: note_on channel=4 note=63 velocity=6 time=0
EXTRACT: note_on channel=9 note=35 velocity=117 time=0
EXTRACT: note_on channel=9 note=42 velocity=103 time=0
EXTRACT: note_on channel=11 note=51 velocity=66 time=0
EXTRACT: note_on channel=15 note=39 velocity=39 time=0
EXTRACT: note_on channel=2 note=39 velocity=51 time=0.004166656249999999
EXTRACT: note_on channel=1 note=37 velocity=0 time=0.005555541666666666
EXTRACT: note_on channel=13 note=51 velocity=21 time=0.002777770833333333
EXTRACT: note_on channel=13 note=58 velocity=31 time=0
EXTRACT: control_change channel=2 control=64 value=100 time=0.008333312499999999
EXTRACT: note_on channel=13 note=54 velocity=28 time=0.002777770833333333
EXTRACT: note_on channel=9 note=35 velocity=0 time=0.006944427083333333
EXTRACT: note_on channel=9 note=42 velocity=0 time=0
EXTRACT: note_on channel=2 note=39 velocity=0 time=0.12499968749999998
EXTRACT: note_on channel=3 note=61 velocity=0 time=0.10416640625
EXTRACT: note_on channel=8 note=61 velocity=0 time=0.02083328125
EXTRACT: note_on channel=4 note=63 velocity=0 time=0.04027767708333333
EXTRACT: note_on channel=15 note=39 velocity=0 time=0.004166656249999999
EXTRACT: note_on channel=4 note=61 velocity=6 time=0.008333312499999999
EXTRACT: note_on channel=9 note=42 velocity=67 time=0
EXTRACT: note_on channel=11 note=61 velocity=63 time=0
EXTRACT: note_on channel=15 note=54 velocity=29 time=0
EXTRACT: note_on channel=8 note=66 velocity=75 time=0.004166656249999999
EXTRACT: note_on channel=3 note=58 velocity=111 time=0
EXTRACT: note_on channel=2 note=54 velocity=44 time=0.0013888854166666665
EXTRACT: note_on channel=2 note=54 velocity=0 time=0.013888854166666666
EXTRACT: note_on channel=9 note=42 velocity=0 time=0.009722197916666666
EXTRACT: note_on channel=3 note=58 velocity=0 time=0.18749953125
EXTRACT: note_on channel=8 note=58 velocity=0 time=0.026388822916666665
EXTRACT: note_on channel=4 note=61 velocity=0 time=0.07638869791666666
EXTRACT: note_on channel=15 note=54 velocity=0 time=0
EXTRACT: note_on channel=1 note=39 velocity=0 time=0.0013888854166666665
EXTRACT: note_on channel=11 note=51 velocity=0 time=0
EXTRACT: note_on channel=8 note=61 velocity=71 time=0.006944427083333333
EXTRACT: note_on channel=3 note=58 velocity=111 time=0
EXTRACT: note_on channel=4 note=61 velocity=6 time=0
EXTRACT: note_on channel=9 note=28 velocity=65 time=0
EXTRACT: note_on channel=9 note=42 velocity=103 time=0
EXTRACT: note_on channel=11 note=54 velocity=72 time=0
EXTRACT: note_on channel=15 note=58 velocity=65 time=0
EXTRACT: note_on channel=9 note=39 velocity=102 time=0.0013888854166666665
EXTRACT: note_on channel=9 note=85 velocity=59 time=0.002777770833333333
EXTRACT: note_on channel=2 note=58 velocity=71 time=0.002777770833333333
EXTRACT: note_on channel=2 note=61 velocity=46 time=0.019444395833333333
EXTRACT: note_on channel=9 note=28 velocity=0 time=0.004166656249999999
EXTRACT: note_on channel=9 note=42 velocity=0 time=0
EXTRACT: note_on channel=9 note=39 velocity=0 time=0.002777770833333333
EXTRACT: note_on channel=9 note=85 velocity=0 time=0.002777770833333333
EXTRACT: note_on channel=9 note=85 velocity=108 time=0.002777770833333333
EXTRACT: note_on channel=2 note=61 velocity=0 time=0.002777770833333333
EXTRACT: note_on channel=2 note=58 velocity=0 time=0.009722197916666666
EXTRACT: note_on channel=9 note=85 velocity=0 time=0.019444395833333333
EXTRACT: control_change channel=15 control=11 value=126 time=0.09583309374999999
EXTRACT: note_on channel=11 note=61 velocity=0 time=0.009722197916666666
EXTRACT: control_change channel=15 control=11 value=123 time=0.03194436458333333
EXTRACT: control_change channel=15 control=11 value=118 time=0.0416665625
EXTRACT: note_on channel=3 note=58 velocity=0 time=0.030555479166666663
EXTRACT: control_change channel=15 control=11 value=115 time=0.011111083333333332
EXTRACT: note_on channel=4 note=61 velocity=0 time=0.029166593749999997
EXTRACT: note_on channel=3 note=59 velocity=111 time=0
EXTRACT: note_on channel=8 note=61 velocity=0 time=0.0013888854166666665
EXTRACT: note_on channel=8 note=59 velocity=71 time=0.004166656249999999
EXTRACT: note_on channel=4 note=63 velocity=6 time=0.004166656249999999
EXTRACT: note_on channel=9 note=42 velocity=54 time=0
EXTRACT: note_on channel=11 note=61 velocity=64 time=0
EXTRACT: control_change channel=15 control=11 value=110 time=0
EXTRACT: note_on channel=9 note=42 velocity=0 time=0.030555479166666663
EXTRACT: control_change channel=15 control=11 value=106 time=0.011111083333333332
EXTRACT: control_change channel=15 control=11 value=103 time=0.0416665625
EXTRACT: control_change channel=15 control=11 value=99 time=0.0416665625
EXTRACT: note_on channel=8 note=66 velocity=0 time=0.02777770833333333
EXTRACT: note_on channel=15 note=58 velocity=0 time=0.002777770833333333
EXTRACT: control_change channel=15 control=11 value=95 time=0.011111083333333332
EXTRACT: note_on channel=3 note=59 velocity=0 time=0.0416665625
EXTRACT: control_change channel=15 control=11 value=90 time=0.006944427083333333
EXTRACT: note_on channel=13 note=58 velocity=0 time=0.06527761458333332
EXTRACT: note_on channel=11 note=54 velocity=0 time=0.005555541666666666
EXTRACT: control_change channel=2 control=64 value=0 time=0.026388822916666665
EXTRACT: note_on channel=4 note=63 velocity=0 time=0.008333312499999999
EXTRACT: note_on channel=11 note=61 velocity=0 time=0.0013888854166666665
EXTRACT: note_on channel=3 note=58 velocity=111 time=0
EXTRACT: note_on channel=8 note=66 velocity=69 time=0
EXTRACT: note_on channel=1 note=35 velocity=109 time=0.004166656249999999
EXTRACT: note_on channel=4 note=61 velocity=6 time=0
EXTRACT: note_on channel=9 note=35 velocity=114 time=0
EXTRACT: note_on channel=9 note=42 velocity=101 time=0
EXTRACT: note_on channel=11 note=59 velocity=73 time=0
EXTRACT: note_on channel=15 note=47 velocity=37 time=0
EXTRACT: control_change channel=15 control=11 value=126 time=0
EXTRACT: note_on channel=13 note=59 velocity=30 time=0.002777770833333333
EXTRACT: note_on channel=2 note=47 velocity=60 time=0.0013888854166666665
EXTRACT: control_change channel=2 control=64 value=100 time=0.005555541666666666
EXTRACT: note_on channel=9 note=35 velocity=0 time=0.02083328125
EXTRACT: note_on channel=9 note=42 velocity=0 time=0
EXTRACT: note_on channel=2 note=47 velocity=0 time=0.1569440520833333
EXTRACT: note_on channel=8 note=59 velocity=0 time=0.07222204166666665
EXTRACT: note_on channel=3 note=58 velocity=0 time=0.009722197916666666
EXTRACT: note_on channel=11 note=59 velocity=0 time=0.0416665625
EXTRACT: note_on channel=4 note=61 velocity=0 time=0.009722197916666666
EXTRACT: note_on channel=15 note=47 velocity=0 time=0.004166656249999999
EXTRACT: note_on channel=8 note=59 velocity=63 time=0.002777770833333333
EXTRACT: note_on channel=11 note=61 velocity=73 time=0.004166656249999999
EXTRACT: note_on channel=4 note=59 velocity=6 time=0.0013888854166666665
EXTRACT: note_on channel=9 note=42 velocity=53 time=0
EXTRACT: note_on channel=15 note=51 velocity=29 time=0
EXTRACT: note_on channel=2 note=51 velocity=39 time=0.006944427083333333
EXTRACT: note_on channel=9 note=42 velocity=0 time=0.02361105208333333
EXTRACT: note_on channel=3 note=56 velocity=111 time=0
EXTRACT: note_on channel=2 note=51 velocity=0 time=0.013888854166666666
EXTRACT: note_on channel=4 note=59 velocity=0 time=0.10277752083333332
EXTRACT: note_on channel=4 note=58 velocity=6 time=0.012499968749999998
EXTRACT: note_on channel=3 note=56 velocity=0 time=0.009722197916666666
EXTRACT: note_on channel=3 note=54 velocity=111 time=0.006944427083333333
EXTRACT: note_on channel=8 note=66 velocity=0 time=0.07638869791666666
EXTRACT: note_on channel=15 note=51 velocity=0 time=0.05138876041666666
EXTRACT: note_on channel=8 note=66 velocity=71 time=0.018055510416666663
EXTRACT: note_on channel=2 note=54 velocity=69 time=0.0013888854166666665
EXTRACT: note_on channel=11 note=61 velocity=0 time=0.002777770833333333
EXTRACT: note_on channel=9 note=28 velocity=67 time=0
EXTRACT: note_on channel=9 note=42 velocity=100 time=0
EXTRACT: note_on channel=11 note=59 velocity=74 time=0
EXTRACT: note_on channel=15 note=54 velocity=69 time=0
EXTRACT: note_on channel=9 note=39 velocity=104 time=0.0013888854166666665
EXTRACT: note_on channel=9 note=85 velocity=56 time=0.002777770833333333
EXTRACT: note_on channel=2 note=59 velocity=71 time=0.0013888854166666665
EXTRACT: note_on channel=2 note=59 velocity=0 time=0.015277739583333332
EXTRACT: note_on channel=9 note=85 velocity=109 time=0.004166656249999999
EXTRACT: note_on channel=2 note=54 velocity=0 time=0.005555541666666666
EXTRACT: note_on channel=9 note=28 velocity=0 time=0
EXTRACT: note_on channel=9 note=42 velocity=0 time=0
EXTRACT: note_on channel=9 note=39 velocity=0 time=0.002777770833333333
EXTRACT: note_on channel=9 note=85 velocity=0 time=0.002777770833333333
EXTRACT: note_on channel=9 note=85 velocity=0 time=0.02083328125
EXTRACT: note_on channel=3 note=54 velocity=0 time=0.03611102083333333
EXTRACT: control_change channel=15 control=11 value=126 time=0.045833218749999995
EXTRACT: note_on channel=1 note=35 velocity=0 time=0.016666624999999997
EXTRACT: control_change channel=15 control=11 value=122 time=0.024999937499999996
EXTRACT: control_change channel=15 control=11 value=119 time=0.0416665625
EXTRACT: note_on channel=8 note=59 velocity=0 time=0.006944427083333333
EXTRACT: control_change channel=15 control=11 value=114 time=0.03472213541666666
EXTRACT: control_change channel=15 control=11 value=110 time=0.0416665625
EXTRACT: note_on channel=4 note=58 velocity=0 time=0.016666624999999997
EXTRACT: note_on channel=8 note=59 velocity=71 time=0.006944427083333333
EXTRACT: note_on channel=1 note=35 velocity=98 time=0.004166656249999999
EXTRACT: note_on channel=9 note=35 velocity=105 time=0
EXTRACT: note_on channel=9 note=42 velocity=61 time=0
EXTRACT: note_on channel=11 note=54 velocity=48 time=0.005555541666666666
EXTRACT: note_on channel=2 note=49 velocity=31 time=0.0013888854166666665
EXTRACT: control_change channel=15 control=11 value=107 time=0.006944427083333333
EXTRACT: note_on channel=9 note=35 velocity=0 time=0.016666624999999997
EXTRACT: note_on channel=9 note=42 velocity=0 time=0
EXTRACT: note_on channel=2 note=49 velocity=0 time=0.02083328125
EXTRACT: control_change channel=15 control=11 value=103 time=0.004166656249999999
EXTRACT: control_change channel=15 control=11 value=98 time=0.0416665625
EXTRACT: pitchwheel channel=1 pitch=165 time=0.03611102083333333
EXTRACT: control_change channel=15 control=11 value=94 time=0.005555541666666666
EXTRACT: pitchwheel channel=1 pitch=1451 time=0.009722197916666666
EXTRACT: pitchwheel channel=1 pitch=2527 time=0.012499968749999998
EXTRACT: pitchwheel channel=1 pitch=3805 time=0.013888854166666666
EXTRACT: control_change channel=15 control=11 value=91 time=0.012499968749999998
EXTRACT: pitchwheel channel=1 pitch=5295 time=0.002777770833333333
EXTRACT: pitchwheel channel=1 pitch=6866 time=0.012499968749999998
EXTRACT: pitchwheel channel=1 pitch=8191 time=0.015277739583333332
EXTRACT: note_on channel=13 note=51 velocity=0 time=0.048610989583333326
EXTRACT: note_on channel=15 note=54 velocity=0 time=0.004166656249999999
EXTRACT: note_on channel=13 note=54 velocity=0 time=0.013888854166666666
EXTRACT: note_on channel=11 note=59 velocity=0 time=0.015277739583333332
EXTRACT: control_change channel=15 control=11 value=126 time=0.005555541666666666
EXTRACT: note_on channel=8 note=59 velocity=0 time=0.006944427083333333
EXTRACT: control_change channel=2 control=64 value=0 time=0
EXTRACT: note_on channel=1 note=35 velocity=0 time=0.005555541666666666
EXTRACT: note_on channel=11 note=54 velocity=0 time=0
EXTRACT: note_on channel=13 note=54 velocity=25 time=0.011111083333333332
EXTRACT: pitchwheel channel=1 pitch=159 time=0.0013888854166666665
EXTRACT: note_on channel=8 note=66 velocity=0 time=0.002777770833333333
EXTRACT: note_on channel=8 note=61 velocity=69 time=0
EXTRACT: note_on channel=9 note=35 velocity=118 time=0
EXTRACT: note_on channel=9 note=42 velocity=102 time=0
EXTRACT: note_on channel=15 note=42 velocity=43 time=0
EXTRACT: note_on channel=13 note=59 velocity=0 time=0.002777770833333333
EXTRACT: note_on channel=3 note=58 velocity=111 time=0
EXTRACT: note_on channel=2 note=42 velocity=52 time=0.0013888854166666665
EXTRACT: note_on channel=11 note=54 velocity=67 time=0.0013888854166666665
EXTRACT: note_on channel=1 note=42 velocity=112 time=0.0013888854166666665
EXTRACT: note_on channel=13 note=58 velocity=30 time=0.005555541666666666
EXTRACT: note_on channel=13 note=49 velocity=19 time=0.013888854166666666
EXTRACT: note_on channel=9 note=35 velocity=0 time=0.004166656249999999
EXTRACT: note_on channel=9 note=42 velocity=0 time=0
EXTRACT: control_change channel=2 control=64 value=100 time=0
EXTRACT: note_on channel=2 note=42 velocity=0 time=0.12499968749999998
EXTRACT: note_on channel=3 note=58 velocity=0 time=0.10972194791666666
EXTRACT: note_on channel=1 note=42 velocity=0 time=0.0013888854166666665
EXTRACT: note_on channel=15 note=42 velocity=0 time=0.04722210416666666
EXTRACT: note_on channel=8 note=66 velocity=75 time=0.015277739583333332
EXTRACT: note_on channel=2 note=49 velocity=46 time=0.0013888854166666665
EXTRACT: note_on channel=1 note=42 velocity=113 time=0.002777770833333333
EXTRACT: note_on channel=9 note=42 velocity=58 time=0
EXTRACT: note_on channel=15 note=49 velocity=29 time=0
EXTRACT: note_on channel=3 note=58 velocity=111 time=0
EXTRACT: note_on channel=11 note=58 velocity=74 time=0.0013888854166666665
EXTRACT: note_on channel=2 note=49 velocity=0 time=0.002777770833333333
EXTRACT: note_on channel=9 note=42 velocity=0 time=0.02083328125
EXTRACT: note_on channel=8 note=61 velocity=0 time=0.12083303124999999
EXTRACT: note_on channel=3 note=58 velocity=0 time=0.019444395833333333
EXTRACT: note_on channel=11 note=54 velocity=0 time=0.12083303124999999
EXTRACT: note_on channel=8 note=61 velocity=71 time=0.03749990625
EXTRACT: note_on channel=9 note=28 velocity=66 time=0.004166656249999999
EXTRACT: note_on channel=9 note=42 velocity=105 time=0
EXTRACT: note_on channel=15 note=54 velocity=57 time=0
EXTRACT: note_on channel=15 note=58 velocity=42 time=0
EXTRACT: note_on channel=9 note=39 velocity=104 time=0.0013888854166666665
EXTRACT: note_on channel=11 note=54 velocity=68 time=0
EXTRACT: note_on channel=3 note=58 velocity=111 time=0
EXTRACT: note_on channel=9 note=85 velocity=60 time=0
EXTRACT: note_on channel=15 note=49 velocity=0 time=0.0013888854166666665
EXTRACT: note_on channel=2 note=58 velocity=48 time=0.009722197916666666
EXTRACT: note_on channel=2 note=54 velocity=66 time=0.002777770833333333
EXTRACT: note_on channel=9 note=85 velocity=109 time=0.006944427083333333
EXTRACT: note_on channel=9 note=28 velocity=0 time=0.005555541666666666
EXTRACT: note_on channel=9 note=42 velocity=0 time=0
EXTRACT: note_on channel=9 note=39 velocity=0 time=0.002777770833333333
EXTRACT: note_on channel=9 note=85 velocity=0 time=0.002777770833333333
EXTRACT: note_on channel=2 note=54 velocity=0 time=0.015277739583333332
EXTRACT: note_on channel=9 note=85 velocity=0 time=0.005555541666666666
EXTRACT: note_on channel=2 note=58 velocity=0 time=0.026388822916666665
EXTRACT: note_on channel=1 note=42 velocity=0 time=0.030555479166666663
EXTRACT: control_change channel=15 control=11 value=126 time=0.03194436458333333
EXTRACT: control_change channel=15 control=11 value=123 time=0.0416665625
EXTRACT: note_on channel=3 note=58 velocity=0 time=0.013888854166666666
EXTRACT: control_change channel=15 control=11 value=119 time=0.02777770833333333
EXTRACT: note_on channel=8 note=66 velocity=0 time=0.005555541666666666
EXTRACT: control_change channel=15 control=11 value=114 time=0.03611102083333333
EXTRACT: note_on channel=11 note=54 velocity=0 time=0.02361105208333333
EXTRACT: note_on channel=11 note=58 velocity=0 time=0.006944427083333333
EXTRACT: control_change channel=15 control=11 value=111 time=0.011111083333333332
EXTRACT: note_on channel=3 note=59 velocity=111 time=0
EXTRACT: note_on channel=8 note=65 velocity=71 time=0.0013888854166666665
EXTRACT: note_on channel=9 note=35 velocity=107 time=0
EXTRACT: note_on channel=9 note=42 velocity=62 time=0
EXTRACT: note_on channel=11 note=61 velocity=69 time=0.0013888854166666665
EXTRACT: control_change channel=15 control=11 value=107 time=0.019444395833333333
EXTRACT: note_on channel=9 note=35 velocity=0 time=0.009722197916666666
EXTRACT: note_on channel=9 note=42 velocity=0 time=0
EXTRACT: control_change channel=15 control=11 value=102 time=0.03194436458333333
EXTRACT: control_change channel=15 control=11 value=99 time=0.0416665625
EXTRACT: control_change channel=15 control=11 value=95 time=0.0416665625
EXTRACT: control_change channel=15 control=11 value=91 time=0.048610989583333326
EXTRACT: note_on channel=15 note=58 velocity=0 time=0.02361105208333333
EXTRACT: pitchwheel channel=3 pitch=-38 time=0.05138876041666666
EXTRACT: pitchwheel channel=3 pitch=-783 time=0.015277739583333332
EXTRACT: pitchwheel channel=3 pitch=-1573 time=0.013888854166666666
EXTRACT: control_change channel=2 control=64 value=0 time=0.002777770833333333
EXTRACT: note_on channel=15 note=54 velocity=0 time=0.005555541666666666
EXTRACT: note_on channel=13 note=54 velocity=0 time=0.0013888854166666665
EXTRACT: pitchwheel channel=3 pitch=-2107 time=0.002777770833333333
EXTRACT: control_change channel=15 control=11 value=127 time=0.0013888854166666665
EXTRACT: note_on channel=13 note=58 velocity=0 time=0.009722197916666666
EXTRACT: note_on channel=11 note=49 velocity=69 time=0.004166656249999999
EXTRACT: pitchwheel channel=3 pitch=-2686 time=0
EXTRACT: note_on channel=13 note=56 velocity=30 time=0.005555541666666666
EXTRACT: note_on channel=1 note=37 velocity=113 time=0.0013888854166666665
EXTRACT: note_on channel=2 note=49 velocity=49 time=0
EXTRACT: note_on channel=9 note=42 velocity=104 time=0
EXTRACT: pitchwheel channel=3 pitch=-3182 time=0.008333312499999999
EXTRACT: note_on channel=13 note=53 velocity=26 time=0.004166656249999999
EXTRACT: note_on channel=15 note=56 velocity=44 time=0.008333312499999999
EXTRACT: control_change channel=2 control=64 value=100 time=0
EXTRACT: pitchwheel channel=3 pitch=-3641 time=0
EXTRACT: note_on channel=9 note=42 velocity=0 time=0.009722197916666666
EXTRACT: note_on channel=2 note=53 velocity=56 time=0.008333312499999999
EXTRACT: note_on channel=2 note=49 velocity=0 time=0.1444440833333333
EXTRACT: note_on channel=8 note=61 velocity=0 time=0.05555541666666666
EXTRACT: note_on channel=3 note=59 velocity=0 time=0.02083328125
EXTRACT: pitchwheel channel=3 pitch=0 time=0.06805538541666666
EXTRACT: note_on channel=8 note=61 velocity=70 time=0.005555541666666666
EXTRACT: note_on channel=9 note=42 velocity=63 time=0
EXTRACT: note_on channel=3 note=56 velocity=111 time=0
EXTRACT: note_on channel=9 note=42 velocity=0 time=0.026388822916666665
EXTRACT: note_on channel=8 note=65 velocity=0 time=0.12499968749999998
EXTRACT: note_on channel=3 note=56 velocity=0 time=0.03194436458333333
EXTRACT: note_on channel=11 note=61 velocity=0 time=0.048610989583333326
EXTRACT: note_on channel=3 note=56 velocity=111 time=0
EXTRACT: note_on channel=11 note=49 velocity=0 time=0.005555541666666666
EXTRACT: note_on channel=1 note=37 velocity=0 time=0.015277739583333332
EXTRACT: note_on channel=9 note=28 velocity=64 time=0.011111083333333332
EXTRACT: note_on channel=9 note=42 velocity=104 time=0
EXTRACT: note_on channel=9 note=39 velocity=103 time=0.0013888854166666665
EXTRACT: note_on channel=11 note=56 velocity=78 time=0.0013888854166666665
EXTRACT: note_on channel=9 note=85 velocity=61 time=0.0013888854166666665
EXTRACT: note_on channel=8 note=65 velocity=89 time=0.006944427083333333
EXTRACT: note_on channel=9 note=85 velocity=108 time=0.013888854166666666
EXTRACT: note_on channel=9 note=28 velocity=0 time=0.005555541666666666
EXTRACT: note_on channel=9 note=42 velocity=0 time=0
EXTRACT: note_on channel=9 note=39 velocity=0 time=0.002777770833333333
EXTRACT: note_on channel=9 note=85 velocity=0 time=0.002777770833333333
EXTRACT: note_on channel=9 note=85 velocity=0 time=0.02083328125
EXTRACT: control_change channel=15 control=11 value=127 time=0.061110958333333326
EXTRACT: note_on channel=8 note=65 velocity=0 time=0.02777770833333333
EXTRACT: control_change channel=15 control=11 value=123 time=0.013888854166666666
EXTRACT: note_on channel=8 note=66 velocity=66 time=0.005555541666666666
EXTRACT: control_change channel=15 control=11 value=119 time=0.03611102083333333
EXTRACT: note_on channel=8 note=61 velocity=0 time=0.03749990625
EXTRACT: control_change channel=15 control=11 value=115 time=0.004166656249999999
EXTRACT: control_change channel=15 control=11 value=111 time=0.0416665625
EXTRACT: control_change channel=15 control=11 value=107 time=0.0416665625
EXTRACT: note_on channel=1 note=37 velocity=105 time=0.006944427083333333
EXTRACT: note_on channel=9 note=35 velocity=69 time=0
EXTRACT: note_on channel=9 note=42 velocity=63 time=0
EXTRACT: note_on channel=2 note=49 velocity=40 time=0.006944427083333333
EXTRACT: note_on channel=8 note=61 velocity=72 time=0
EXTRACT: note_on channel=9 note=35 velocity=0 time=0.02361105208333333
EXTRACT: note_on channel=9 note=42 velocity=0 time=0
EXTRACT: control_change channel=15 control=11 value=103 time=0.004166656249999999
EXTRACT: control_change channel=15 control=11 value=99 time=0.0416665625
EXTRACT: control_change channel=15 control=11 value=95 time=0.0416665625
EXTRACT: note_on channel=3 note=56 velocity=0 time=0.016666624999999997
EXTRACT: note_on channel=15 note=56 velocity=0 time=0.02083328125
EXTRACT: control_change channel=15 control=11 value=91 time=0.011111083333333332
EXTRACT: note_on channel=2 note=49 velocity=0 time=0.07222204166666665
EXTRACT: control_change channel=2 control=64 value=0 time=0.0416665625
EXTRACT: note_on channel=8 note=66 velocity=0 time=0.005555541666666666
EXTRACT: note_on channel=11 note=56 velocity=0 time=0.005555541666666666
EXTRACT: note_on channel=13 note=49 velocity=0 time=0.016666624999999997
EXTRACT: note_on channel=13 note=56 velocity=0 time=0
EXTRACT: note_on channel=13 note=53 velocity=0 time=0.013888854166666666
EXTRACT: control_change channel=15 control=11 value=127 time=0.004166656249999999
EXTRACT: note_on channel=8 note=58 velocity=55 time=0.0013888854166666665
EXTRACT: note_on channel=1 note=39 velocity=108 time=0.005555541666666666
EXTRACT: note_on channel=9 note=35 velocity=116 time=0
EXTRACT: note_on channel=9 note=42 velocity=103 time=0
EXTRACT: note_on channel=11 note=51 velocity=67 time=0
EXTRACT: note_on channel=15 note=39 velocity=38 time=0
EXTRACT: note_on channel=1 note=37 velocity=0 time=0.002777770833333333
EXTRACT: note_on channel=2 note=39 velocity=51 time=0.0013888854166666665
EXTRACT: note_on channel=13 note=58 velocity=31 time=0.008333312499999999
EXTRACT: control_change channel=2 control=64 value=100 time=0.008333312499999999
EXTRACT: note_on channel=13 note=51 velocity=24 time=0.002777770833333333
EXTRACT: note_on channel=13 note=54 velocity=28 time=0
EXTRACT: note_on channel=9 note=35 velocity=0 time=0.006944427083333333
EXTRACT: note_on channel=9 note=42 velocity=0 time=0
EXTRACT: note_on channel=3 note=54 velocity=111 time=0
EXTRACT: note_on channel=2 note=39 velocity=0 time=0.12083303124999999
EXTRACT: note_on channel=8 note=61 velocity=0 time=0.14166631249999997
EXTRACT: note_on channel=15 note=39 velocity=0 time=0.02777770833333333
EXTRACT: note_on channel=9 note=42 velocity=67 time=0.008333312499999999
EXTRACT: note_on channel=11 note=61 velocity=63 time=0
EXTRACT: note_on channel=15 note=54 velocity=29 time=0
EXTRACT: note_on channel=8 note=66 velocity=74 time=0.004166656249999999
EXTRACT: note_on channel=2 note=54 velocity=43 time=0.002777770833333333
EXTRACT: note_on channel=2 note=54 velocity=0 time=0.013888854166666666
EXTRACT: note_on channel=9 note=42 velocity=0 time=0.009722197916666666
EXTRACT: note_on channel=8 note=58 velocity=0 time=0.21388835416666666
EXTRACT: note_on channel=15 note=54 velocity=0 time=0.07638869791666666
EXTRACT: note_on channel=11 note=51 velocity=0 time=0.0013888854166666665
EXTRACT: note_on channel=8 note=61 velocity=71 time=0.006944427083333333
EXTRACT: note_on channel=9 note=28 velocity=69 time=0.004166656249999999
EXTRACT: note_on channel=9 note=42 velocity=103 time=0
EXTRACT: note_on channel=11 note=54 velocity=72 time=0
EXTRACT: note_on channel=15 note=58 velocity=41 time=0
EXTRACT: note_on channel=15 note=61 velocity=50 time=0
EXTRACT: note_on channel=9 note=39 velocity=107 time=0.0013888854166666665
EXTRACT: note_on channel=9 note=85 velocity=59 time=0.002777770833333333
EXTRACT: note_on channel=2 note=58 velocity=58 time=0.002777770833333333
EXTRACT: note_on channel=2 note=61 velocity=70 time=0.019444395833333333
EXTRACT: note_on channel=9 note=28 velocity=0 time=0.004166656249999999
EXTRACT: note_on channel=9 note=42 velocity=0 time=0
EXTRACT: note_on channel=9 note=39 velocity=0 time=0.002777770833333333
EXTRACT: note_on channel=9 note=85 velocity=0 time=0.002777770833333333
EXTRACT: note_on channel=9 note=85 velocity=109 time=0.002777770833333333
EXTRACT: note_on channel=2 note=61 velocity=0 time=0.002777770833333333
EXTRACT: note_on channel=2 note=58 velocity=0 time=0.009722197916666666
EXTRACT: note_on channel=9 note=85 velocity=0 time=0.019444395833333333
EXTRACT: note_on channel=1 note=39 velocity=0 time=0.0013888854166666665
EXTRACT: control_change channel=15 control=11 value=127 time=0.09444420833333332
EXTRACT: note_on channel=11 note=61 velocity=0 time=0.009722197916666666
EXTRACT: control_change channel=15 control=11 value=123 time=0.03194436458333333
EXTRACT: control_change channel=15 control=11 value=119 time=0.0416665625
EXTRACT: control_change channel=15 control=11 value=115 time=0.0416665625
EXTRACT: note_on channel=8 note=61 velocity=0 time=0.033333249999999995
EXTRACT: note_on channel=8 note=59 velocity=70 time=0.004166656249999999
EXTRACT: note_on channel=1 note=34 velocity=108 time=0.004166656249999999
EXTRACT: note_on channel=9 note=42 velocity=55 time=0
EXTRACT: note_on channel=11 note=61 velocity=53 time=0
EXTRACT: control_change channel=15 control=11 value=111 time=0
EXTRACT: note_on channel=9 note=42 velocity=0 time=0.030555479166666663
EXTRACT: control_change channel=15 control=11 value=107 time=0.011111083333333332
EXTRACT: note_on channel=3 note=54 velocity=0 time=0.009722197916666666
EXTRACT: control_change channel=15 control=11 value=103 time=0.03194436458333333
EXTRACT: control_change channel=15 control=11 value=98 time=0.0416665625
EXTRACT: note_on channel=8 note=66 velocity=0 time=0.02777770833333333
EXTRACT: control_change channel=15 control=11 value=95 time=0.013888854166666666
EXTRACT: control_change channel=15 control=11 value=90 time=0.048610989583333326
EXTRACT: note_on channel=13 note=58 velocity=0 time=0.06527761458333332
EXTRACT: note_on channel=11 note=54 velocity=0 time=0.005555541666666666
EXTRACT: note_on channel=15 note=61 velocity=0 time=0.012499968749999998
EXTRACT: control_change channel=2 control=64 value=0 time=0.013888854166666666
EXTRACT: note_on channel=1 note=34 velocity=0 time=0.009722197916666666
EXTRACT: note_on channel=11 note=61 velocity=0 time=0
EXTRACT: note_on channel=8 note=66 velocity=69 time=0.006944427083333333
EXTRACT: note_on channel=1 note=35 velocity=108 time=0.004166656249999999
EXTRACT: note_on channel=9 note=35 velocity=115 time=0
EXTRACT: note_on channel=9 note=42 velocity=101 time=0
EXTRACT: note_on channel=11 note=59 velocity=73 time=0
EXTRACT: note_on channel=15 note=47 velocity=37 time=0
EXTRACT: control_change channel=15 control=11 value=126 time=0
EXTRACT: note_on channel=13 note=59 velocity=30 time=0.002777770833333333
EXTRACT: note_on channel=2 note=47 velocity=61 time=0.0013888854166666665
EXTRACT: note_on channel=15 note=58 velocity=0 time=0.005555541666666666
EXTRACT: control_change channel=2 control=64 value=100 time=0
EXTRACT: note_on channel=9 note=35 velocity=0 time=0.02083328125
EXTRACT: note_on channel=9 note=42 velocity=0 time=0
EXTRACT: note_on channel=2 note=47 velocity=0 time=0.1569440520833333
EXTRACT: note_on channel=8 note=59 velocity=0 time=0.07222204166666665
EXTRACT: note_on channel=11 note=59 velocity=0 time=0.05138876041666666
EXTRACT: note_on channel=15 note=47 velocity=0 time=0.013888854166666666
EXTRACT: note_on channel=8 note=59 velocity=62 time=0.002777770833333333
EXTRACT: note_on channel=11 note=61 velocity=73 time=0.004166656249999999
EXTRACT: note_on channel=9 note=42 velocity=53 time=0.0013888854166666665
EXTRACT: note_on channel=15 note=51 velocity=29 time=0
EXTRACT: note_on channel=3 note=54 velocity=111 time=0
EXTRACT: note_on channel=2 note=51 velocity=38 time=0.005555541666666666
EXTRACT: note_on channel=9 note=42 velocity=0 time=0.02361105208333333
EXTRACT: note_on channel=2 note=51 velocity=0 time=0.02083328125
EXTRACT: note_on channel=3 note=54 velocity=0 time=0.14583296874999999
EXTRACT: note_on channel=8 note=66 velocity=0 time=0.06249984374999999
EXTRACT: note_on channel=15 note=51 velocity=0 time=0.05138876041666666
EXTRACT: note_on channel=8 note=66 velocity=70 time=0.018055510416666663
EXTRACT: note_on channel=2 note=54 velocity=58 time=0.0013888854166666665
EXTRACT: note_on channel=11 note=61 velocity=0 time=0.002777770833333333
EXTRACT: note_on channel=9 note=28 velocity=69 time=0
EXTRACT: note_on channel=9 note=42 velocity=101 time=0
EXTRACT: note_on channel=11 note=59 velocity=75 time=0
EXTRACT: note_on channel=15 note=54 velocity=41 time=0
EXTRACT: note_on channel=15 note=59 velocity=50 time=0
EXTRACT: note_on channel=9 note=39 velocity=107 time=0.0013888854166666665
EXTRACT: note_on channel=9 note=85 velocity=57 time=0.002777770833333333
EXTRACT: note_on channel=2 note=59 velocity=71 time=0.0013888854166666665
EXTRACT: note_on channel=2 note=59 velocity=0 time=0.015277739583333332
EXTRACT: note_on channel=3 note=61 velocity=111 time=0
EXTRACT: note_on channel=9 note=85 velocity=109 time=0.002777770833333333
EXTRACT: note_on channel=2 note=54 velocity=0 time=0.005555541666666666
EXTRACT: note_on channel=9 note=28 velocity=0 time=0
EXTRACT: note_on channel=9 note=42 velocity=0 time=0
EXTRACT: note_on channel=9 note=39 velocity=0 time=0.002777770833333333
EXTRACT: note_on channel=9 note=85 velocity=0 time=0.002777770833333333
EXTRACT: note_on channel=9 note=85 velocity=0 time=0.02083328125
EXTRACT: control_change channel=15 control=11 value=127 time=0.08194423958333333
EXTRACT: control_change channel=15 control=11 value=122 time=0.0416665625
EXTRACT: control_change channel=15 control=11 value=119 time=0.0416665625
EXTRACT: note_on channel=8 note=59 velocity=0 time=0.006944427083333333
EXTRACT: note_on channel=1 note=35 velocity=0 time=0.030555479166666663
EXTRACT: control_change channel=15 control=11 value=114 time=0.004166656249999999
EXTRACT: note_on channel=3 note=61 velocity=0 time=0.016666624999999997
EXTRACT: control_change channel=15 control=11 value=111 time=0.024999937499999996
EXTRACT: note_on channel=8 note=59 velocity=71 time=0.02361105208333333
EXTRACT: note_on channel=9 note=35 velocity=105 time=0.004166656249999999
EXTRACT: note_on channel=9 note=42 velocity=61 time=0
EXTRACT: note_on channel=1 note=35 velocity=88 time=0
EXTRACT: note_on channel=3 note=61 velocity=111 time=0
EXTRACT: note_on channel=11 note=54 velocity=49 time=0.0013888854166666665
EXTRACT: control_change channel=15 control=11 value=106 time=0.008333312499999999
EXTRACT: note_on channel=9 note=35 velocity=0 time=0.016666624999999997
EXTRACT: note_on channel=9 note=42 velocity=0 time=0
EXTRACT: control_change channel=15 control=11 value=102 time=0.024999937499999996
EXTRACT: control_change channel=15 control=11 value=99 time=0.0416665625
EXTRACT: control_change channel=15 control=11 value=95 time=0.0416665625
EXTRACT: note_on channel=15 note=59 velocity=0 time=0.058333187499999994
EXTRACT: note_on channel=15 note=54 velocity=0 time=0.083333125
EXTRACT: note_on channel=13 note=54 velocity=0 time=0.004166656249999999
EXTRACT: note_on channel=11 note=59 velocity=0 time=0.015277739583333332
EXTRACT: control_change channel=15 control=11 value=127 time=0.005555541666666666
EXTRACT: note_on channel=8 note=59 velocity=0 time=0.006944427083333333
EXTRACT: control_change channel=2 control=64 value=0 time=0
EXTRACT: note_on channel=11 note=54 velocity=0 time=0.005555541666666666
EXTRACT: note_on channel=1 note=35 velocity=0 time=0
EXTRACT: note_on channel=13 note=51 velocity=0 time=0.004166656249999999
EXTRACT: note_on channel=13 note=54 velocity=25 time=0.006944427083333333
EXTRACT: note_on channel=8 note=66 velocity=0 time=0.004166656249999999
EXTRACT: note_on channel=1 note=42 velocity=95 time=0
EXTRACT: note_on channel=8 note=61 velocity=69 time=0
EXTRACT: note_on channel=9 note=46 velocity=63 time=0
EXTRACT: note_on channel=9 note=35 velocity=119 time=0
EXTRACT: note_on channel=15 note=42 velocity=42 time=0
EXTRACT: note_on channel=13 note=59 velocity=0 time=0.002777770833333333
EXTRACT: note_on channel=2 note=42 velocity=53 time=0.0013888854166666665
EXTRACT: note_on channel=11 note=54 velocity=67 time=0.0013888854166666665
EXTRACT: note_on channel=13 note=58 velocity=30 time=0.006944427083333333
EXTRACT: note_on channel=9 note=46 velocity=0 time=0.018055510416666663
EXTRACT: note_on channel=9 note=35 velocity=0 time=0
EXTRACT: control_change channel=2 control=64 value=100 time=0
EXTRACT: note_on channel=13 note=61 velocity=30 time=0.02361105208333333
EXTRACT: note_on channel=2 note=42 velocity=0 time=0.10138863541666665
EXTRACT: note_on channel=1 note=42 velocity=0 time=0.1361107708333333
EXTRACT: note_on channel=15 note=42 velocity=0 time=0.022222166666666664
EXTRACT: note_on channel=8 note=66 velocity=75 time=0.015277739583333332
EXTRACT: note_on channel=2 note=49 velocity=38 time=0.0013888854166666665
EXTRACT: note_on channel=1 note=42 velocity=98 time=0.002777770833333333
EXTRACT: note_on channel=9 note=46 velocity=55 time=0
EXTRACT: note_on channel=15 note=49 velocity=29 time=0
EXTRACT: note_on channel=11 note=58 velocity=75 time=0.006944427083333333
EXTRACT: note_on channel=2 note=49 velocity=0 time=0.002777770833333333
EXTRACT: note_on channel=9 note=46 velocity=0 time=0.02083328125
EXTRACT: note_on channel=8 note=61 velocity=0 time=0.12083303124999999
EXTRACT: note_on channel=3 note=61 velocity=0 time=0.07361092708333332
EXTRACT: note_on channel=11 note=54 velocity=0 time=0.06666649999999999
EXTRACT: note_on channel=1 note=42 velocity=0 time=0
EXTRACT: note_on channel=8 note=61 velocity=70 time=0.03749990625
EXTRACT: note_on channel=1 note=42 velocity=92 time=0.004166656249999999
EXTRACT: note_on channel=9 note=46 velocity=81 time=0
EXTRACT: note_on channel=9 note=28 velocity=68 time=0
EXTRACT: note_on channel=15 note=54 velocity=41 time=0
EXTRACT: note_on channel=15 note=58 velocity=50 time=0
EXTRACT: note_on channel=9 note=39 velocity=107 time=0.0013888854166666665
EXTRACT: note_on channel=11 note=54 velocity=69 time=0
EXTRACT: note_on channel=9 note=85 velocity=60 time=0.002777770833333333
EXTRACT: note_on channel=15 note=49 velocity=0 time=0.0013888854166666665
EXTRACT: note_on channel=2 note=58 velocity=71 time=0.009722197916666666
EXTRACT: note_on channel=2 note=54 velocity=59 time=0.002777770833333333
EXTRACT: note_on channel=9 note=85 velocity=108 time=0.006944427083333333
EXTRACT: note_on channel=9 note=46 velocity=0 time=0.005555541666666666
EXTRACT: note_on channel=9 note=28 velocity=0 time=0
EXTRACT: note_on channel=9 note=39 velocity=0 time=0.002777770833333333
EXTRACT: note_on channel=9 note=85 velocity=0 time=0.002777770833333333
EXTRACT: note_on channel=2 note=54 velocity=0 time=0.015277739583333332
EXTRACT: note_on channel=9 note=85 velocity=0 time=0.005555541666666666
EXTRACT: note_on channel=2 note=58 velocity=0 time=0.026388822916666665
EXTRACT: control_change channel=15 control=11 value=126 time=0.06249984374999999
EXTRACT: control_change channel=15 control=11 value=122 time=0.0416665625
EXTRACT: control_change channel=15 control=11 value=118 time=0.0416665625
EXTRACT: note_on channel=8 note=66 velocity=0 time=0.005555541666666666
EXTRACT: control_change channel=15 control=11 value=114 time=0.03611102083333333
EXTRACT: note_on channel=1 note=42 velocity=0 time=0.02083328125
EXTRACT: note_on channel=11 note=54 velocity=0 time=0.002777770833333333
EXTRACT: note_on channel=11 note=58 velocity=0 time=0.006944427083333333
EXTRACT: note_on channel=3 note=66 velocity=111 time=0
EXTRACT: control_change channel=15 control=11 value=111 time=0
EXTRACT: note_on channel=1 note=42 velocity=103 time=0.02083328125
EXTRACT: note_on channel=8 note=65 velocity=70 time=0
EXTRACT: note_on channel=9 note=35 velocity=107 time=0
EXTRACT: note_on channel=11 note=61 velocity=69 time=0.0013888854166666665
EXTRACT: control_change channel=15 control=11 value=106 time=0.019444395833333333
EXTRACT: note_on channel=9 note=46 velocity=64 time=0.006944427083333333
EXTRACT: note_on channel=9 note=35 velocity=0 time=0.002777770833333333
EXTRACT: note_on channel=9 note=46 velocity=0 time=0.02777770833333333
EXTRACT: control_change channel=15 control=11 value=102 time=0.004166656249999999
EXTRACT: control_change channel=15 control=11 value=99 time=0.0416665625
EXTRACT: control_change channel=15 control=11 value=95 time=0.0416665625
EXTRACT: note_on channel=15 note=58 velocity=0 time=0.009722197916666666
EXTRACT: note_on channel=3 note=66 velocity=0 time=0
EXTRACT: pitchwheel channel=1 pitch=210 time=0.005555541666666666
EXTRACT: pitchwheel channel=1 pitch=992 time=0.008333312499999999
EXTRACT: pitchwheel channel=1 pitch=1948 time=0.015277739583333332
EXTRACT: control_change channel=15 control=11 value=90 time=0.009722197916666666
EXTRACT: pitchwheel channel=1 pitch=2730 time=0.004166656249999999
EXTRACT: pitchwheel channel=1 pitch=3557 time=0.013888854166666666
EXTRACT: pitchwheel channel=1 pitch=4595 time=0.013888854166666666
EXTRACT: pitchwheel channel=1 pitch=5505 time=0.015277739583333332
EXTRACT: pitchwheel channel=1 pitch=6287 time=0.012499968749999998
EXTRACT: pitchwheel channel=1 pitch=7325 time=0.015277739583333332
EXTRACT: pitchwheel channel=1 pitch=7656 time=0.013888854166666666
EXTRACT: note_on channel=1 note=42 velocity=0 time=0.018055510416666663
EXTRACT: control_change channel=2 control=64 value=0 time=0
EXTRACT: note_on channel=15 note=54 velocity=0 time=0.005555541666666666
EXTRACT: note_on channel=13 note=54 velocity=0 time=0.0013888854166666665
EXTRACT: pitchwheel channel=1 pitch=7408 time=0.002777770833333333
EXTRACT: control_change channel=15 control=11 value=126 time=0.0013888854166666665
EXTRACT: note_on channel=3 note=66 velocity=111 time=0
EXTRACT: note_on channel=13 note=58 velocity=0 time=0.005555541666666666
EXTRACT: note_on channel=11 note=49 velocity=69 time=0.004166656249999999
EXTRACT: control_change channel=2 control=64 value=100 time=0
EXTRACT: pitchwheel channel=1 pitch=189 time=0.004166656249999999
EXTRACT: note_on channel=13 note=56 velocity=30 time=0.0013888854166666665
EXTRACT: note_on channel=1 note=49 velocity=105 time=0.0013888854166666665
EXTRACT: note_on channel=2 note=49 velocity=43 time=0
EXTRACT: note_on channel=2 note=56 velocity=70 time=0
EXTRACT: note_on channel=9 note=46 velocity=97 time=0
EXTRACT: note_on channel=15 note=49 velocity=45 time=0
EXTRACT: note_on channel=2 note=49 velocity=0 time=0.005555541666666666
EXTRACT: note_on channel=13 note=65 velocity=26 time=0.006944427083333333
EXTRACT: note_on channel=15 note=56 velocity=55 time=0.008333312499999999
EXTRACT: note_on channel=2 note=56 velocity=0 time=0.004166656249999999
EXTRACT: note_on channel=9 note=46 velocity=0 time=0.005555541666666666
EXTRACT: note_on channel=8 note=61 velocity=0 time=0.2083328125
EXTRACT: note_on channel=3 note=66 velocity=0 time=0.03194436458333333
EXTRACT: note_on channel=1 note=49 velocity=0 time=0.02361105208333333
EXTRACT: note_on channel=3 note=68 velocity=111 time=0
EXTRACT: note_on channel=1 note=49 velocity=108 time=0.011111083333333332
EXTRACT: note_on channel=2 note=49 velocity=47 time=0
EXTRACT: note_on channel=8 note=61 velocity=70 time=0
EXTRACT: note_on channel=9 note=46 velocity=93 time=0
EXTRACT: note_on channel=9 note=35 velocity=106 time=0
EXTRACT: note_on channel=9 note=46 velocity=0 time=0.030555479166666663
EXTRACT: note_on channel=9 note=35 velocity=0 time=0
EXTRACT: control_change channel=15 control=11 value=123 time=0.018055510416666663
EXTRACT: control_change channel=15 control=11 value=118 time=0.0416665625
EXTRACT: control_change channel=15 control=11 value=114 time=0.0416665625
EXTRACT: note_on channel=8 note=65 velocity=0 time=0.02361105208333333
EXTRACT: control_change channel=15 control=11 value=111 time=0.018055510416666663
EXTRACT: control_change channel=15 control=11 value=107 time=0.0416665625
EXTRACT: note_on channel=11 note=61 velocity=0 time=0.02083328125
EXTRACT: note_on channel=3 note=68 velocity=0 time=0.006944427083333333
EXTRACT: control_change channel=15 control=11 value=102 time=0.013888854166666666
EXTRACT: note_on channel=1 note=49 velocity=0 time=0.03472213541666666
EXTRACT: control_change channel=15 control=11 value=99 time=0.006944427083333333
EXTRACT: note_on channel=11 note=49 velocity=0 time=0.008333312499999999
EXTRACT: note_on channel=3 note=70 velocity=111 time=0
EXTRACT: note_on channel=1 note=49 velocity=88 time=0.011111083333333332
EXTRACT: note_on channel=2 note=56 velocity=69 time=0
EXTRACT: note_on channel=9 note=28 velocity=62 time=0
EXTRACT: note_on channel=9 note=47 velocity=98 time=0
EXTRACT: note_on channel=8 note=65 velocity=86 time=0.0013888854166666665
EXTRACT: note_on channel=9 note=39 velocity=101 time=0
EXTRACT: note_on channel=11 note=56 velocity=79 time=0.0013888854166666665
EXTRACT: note_on channel=2 note=49 velocity=41 time=0.0013888854166666665
EXTRACT: control_change channel=15 control=11 value=95 time=0.002777770833333333
EXTRACT: note_on channel=2 note=56 velocity=0 time=0.018055510416666663
EXTRACT: note_on channel=9 note=28 velocity=0 time=0.005555541666666666
EXTRACT: note_on channel=9 note=47 velocity=0 time=0
EXTRACT: note_on channel=9 note=39 velocity=0 time=0.002777770833333333
EXTRACT: control_change channel=15 control=11 value=90 time=0.022222166666666664
EXTRACT: note_on channel=2 note=49 velocity=0 time=0.03749990625
EXTRACT: note_on channel=8 note=65 velocity=0 time=0.05277764583333333
EXTRACT: note_on channel=8 note=66 velocity=73 time=0.008333312499999999
EXTRACT: note_on channel=15 note=49 velocity=0 time=0.0013888854166666665
EXTRACT: note_on channel=15 note=56 velocity=0 time=0.083333125
EXTRACT: note_on channel=8 note=61 velocity=0 time=0
EXTRACT: note_on channel=3 note=70 velocity=0 time=0.009722197916666666
EXTRACT: note_on channel=1 note=49 velocity=0 time=0.04305544791666666
EXTRACT: control_change channel=15 control=11 value=127 time=0.006944427083333333
EXTRACT: note_on channel=2 note=49 velocity=41 time=0.018055510416666663
EXTRACT: note_on channel=3 note=73 velocity=110 time=0
EXTRACT: note_on channel=1 note=42 velocity=107 time=0.012499968749999998
EXTRACT: note_on channel=9 note=35 velocity=89 time=0
EXTRACT: note_on channel=9 note=43 velocity=87 time=0
EXTRACT: note_on channel=15 note=41 velocity=19 time=0
EXTRACT: note_on channel=15 note=49 velocity=28 time=0
EXTRACT: note_on channel=8 note=61 velocity=74 time=0.006944427083333333
EXTRACT: note_on channel=9 note=35 velocity=0 time=0.02361105208333333
EXTRACT: note_on channel=9 note=43 velocity=0 time=0
EXTRACT: note_on channel=15 note=41 velocity=0 time=0.09444420833333332
EXTRACT: note_on channel=15 note=49 velocity=0 time=0.009722197916666666
EXTRACT: note_on channel=2 note=49 velocity=0 time=0.06249984374999999
EXTRACT: pitchwheel channel=1 pitch=-286 time=0.019444395833333333
EXTRACT: pitchwheel channel=1 pitch=-1362 time=0.015277739583333332
EXTRACT: pitchwheel channel=1 pitch=-2979 time=0.013888854166666666
EXTRACT: pitchwheel channel=1 pitch=-4469 time=0.012499968749999998
EXTRACT: note_on channel=13 note=61 velocity=0 time=0.0013888854166666665
EXTRACT: pitchwheel channel=1 pitch=-5793 time=0.013888854166666666
EXTRACT: control_change channel=2 control=64 value=0 time=0.006944427083333333
EXTRACT: pitchwheel channel=1 pitch=-7200 time=0.006944427083333333
EXTRACT: note_on channel=11 note=56 velocity=0 time=0.004166656249999999
EXTRACT: pitchwheel channel=1 pitch=-8192 time=0.009722197916666666
EXTRACT: note_on channel=13 note=56 velocity=0 time=0.006944427083333333
EXTRACT: note_on channel=1 note=42 velocity=0 time=0.005555541666666666
EXTRACT: note_on channel=8 note=66 velocity=0 time=0.004166656249999999
EXTRACT: note_on channel=13 note=65 velocity=0 time=0.004166656249999999
EXTRACT: note_on channel=8 note=61 velocity=0 time=0
EXTRACT: pitchwheel channel=1 pitch=128 time=0.002777770833333333
EXTRACT: note_on channel=1 note=27 velocity=118 time=0.008333312499999999
EXTRACT: note_on channel=8 note=58 velocity=58 time=0
EXTRACT: note_on channel=9 note=49 velocity=72 time=0
EXTRACT: note_on channel=9 note=35 velocity=120 time=0
EXTRACT: note_on channel=11 note=51 velocity=71 time=0
EXTRACT: note_on channel=13 note=63 velocity=37 time=0
EXTRACT: note_on channel=13 note=70 velocity=45 time=0
EXTRACT: note_on channel=2 note=39 velocity=65 time=0.004166656249999999
EXTRACT: note_on channel=15 note=39 velocity=62 time=0
EXTRACT: control_change channel=2 control=64 value=100 time=0.016666624999999997
EXTRACT: note_on channel=13 note=66 velocity=37 time=0.002777770833333333
EXTRACT: note_on channel=9 note=49 velocity=0 time=0.006944427083333333
EXTRACT: note_on channel=9 note=35 velocity=0 time=0
EXTRACT: note_on channel=2 note=39 velocity=0 time=0.12499968749999998
EXTRACT: note_on channel=15 note=39 velocity=0 time=0.1736106770833333
EXTRACT: note_on channel=9 note=46 velocity=64 time=0.004166656249999999
EXTRACT: note_on channel=9 note=54 velocity=34 time=0
EXTRACT: note_on channel=11 note=61 velocity=67 time=0
EXTRACT: note_on channel=8 note=66 velocity=75 time=0.004166656249999999
EXTRACT: note_on channel=2 note=54 velocity=47 time=0.002777770833333333
EXTRACT: note_on channel=15 note=54 velocity=44 time=0
EXTRACT: note_on channel=2 note=54 velocity=0 time=0.013888854166666666
EXTRACT: note_on channel=9 note=46 velocity=0 time=0.009722197916666666
EXTRACT: note_on channel=9 note=54 velocity=0 time=0
EXTRACT: note_on channel=8 note=58 velocity=0 time=0.21944389583333332
EXTRACT: note_on channel=3 note=73 velocity=0 time=0.02361105208333333
EXTRACT: note_on channel=1 note=27 velocity=0 time=0.048610989583333326
EXTRACT: note_on channel=11 note=51 velocity=0 time=0
EXTRACT: note_on channel=3 note=73 velocity=111 time=0
EXTRACT: note_on channel=15 note=54 velocity=0 time=0.004166656249999999
EXTRACT: note_on channel=8 note=61 velocity=71 time=0
EXTRACT: note_on channel=9 note=46 velocity=77 time=0.004166656249999999
EXTRACT: note_on channel=9 note=54 velocity=48 time=0
EXTRACT: note_on channel=11 note=54 velocity=77 time=0
EXTRACT: note_on channel=9 note=39 velocity=112 time=0.002777770833333333
EXTRACT: note_on channel=2 note=58 velocity=65 time=0.004166656249999999
EXTRACT: note_on channel=15 note=58 velocity=62 time=0
EXTRACT: note_on channel=9 note=85 velocity=79 time=0.002777770833333333
EXTRACT: note_on channel=9 note=28 velocity=69 time=0
EXTRACT: note_on channel=2 note=61 velocity=85 time=0.016666624999999997
EXTRACT: note_on channel=15 note=61 velocity=82 time=0
EXTRACT: note_on channel=9 note=46 velocity=0 time=0.004166656249999999
EXTRACT: note_on channel=9 note=54 velocity=0 time=0
EXTRACT: note_on channel=9 note=39 velocity=0 time=0.004166656249999999
EXTRACT: note_on channel=9 note=85 velocity=0 time=0.006944427083333333
EXTRACT: note_on channel=9 note=28 velocity=0 time=0
EXTRACT: note_on channel=2 note=61 velocity=0 time=0
EXTRACT: note_on channel=2 note=58 velocity=0 time=0.009722197916666666
EXTRACT: note_on channel=9 note=85 velocity=126 time=0
EXTRACT: note_on channel=9 note=85 velocity=0 time=0.03194436458333333
EXTRACT: note_on channel=15 note=58 velocity=0 time=0.07222204166666665
EXTRACT: control_change channel=15 control=11 value=127 time=0.011111083333333332
EXTRACT: note_on channel=11 note=61 velocity=0 time=0.009722197916666666
EXTRACT: control_change channel=15 control=11 value=123 time=0.03194436458333333
EXTRACT: control_change channel=15 control=11 value=119 time=0.0416665625
EXTRACT: control_change channel=15 control=11 value=115 time=0.0416665625
EXTRACT: note_on channel=15 note=61 velocity=0 time=0.029166593749999997
EXTRACT: note_on channel=8 note=61 velocity=0 time=0.004166656249999999
EXTRACT: note_on channel=8 note=59 velocity=70 time=0.004166656249999999
EXTRACT: note_on channel=1 note=34 velocity=120 time=0.004166656249999999
EXTRACT: note_on channel=2 note=58 velocity=65 time=0
EXTRACT: note_on channel=9 note=46 velocity=52 time=0
EXTRACT: note_on channel=9 note=54 velocity=39 time=0
EXTRACT: note_on channel=9 note=35 velocity=110 time=0
EXTRACT: note_on channel=11 note=61 velocity=57 time=0
EXTRACT: note_on channel=15 note=58 velocity=63 time=0
EXTRACT: control_change channel=15 control=11 value=111 time=0
EXTRACT: note_on channel=9 note=46 velocity=0 time=0.030555479166666663
EXTRACT: note_on channel=9 note=54 velocity=0 time=0
EXTRACT: note_on channel=9 note=35 velocity=0 time=0
EXTRACT: control_change channel=15 control=11 value=107 time=0.011111083333333332
EXTRACT: note_on channel=2 note=58 velocity=0 time=0.002777770833333333
EXTRACT: control_change channel=15 control=11 value=103 time=0.038888791666666665
EXTRACT: control_change channel=15 control=11 value=99 time=0.0416665625
EXTRACT: note_on channel=8 note=66 velocity=0 time=0.02777770833333333
EXTRACT: control_change channel=15 control=11 value=95 time=0.013888854166666666
EXTRACT: control_change channel=15 control=11 value=91 time=0.048610989583333326
EXTRACT: note_on channel=3 note=73 velocity=0 time=0.04444433333333333
EXTRACT: note_on channel=13 note=70 velocity=0 time=0.008333312499999999
EXTRACT: note_on channel=11 note=54 velocity=0 time=0.018055510416666663
EXTRACT: note_on channel=13 note=71 velocity=43 time=0.02361105208333333
EXTRACT: control_change channel=2 control=64 value=0 time=0.002777770833333333
EXTRACT: note_on channel=1 note=34 velocity=0 time=0.009722197916666666
EXTRACT: note_on channel=11 note=61 velocity=0 time=0
EXTRACT: note_on channel=15 note=58 velocity=0 time=0.002777770833333333
EXTRACT: note_on channel=8 note=66 velocity=68 time=0.004166656249999999
EXTRACT: note_on channel=1 note=35 velocity=121 time=0.004166656249999999
EXTRACT: note_on channel=9 note=46 velocity=74 time=0
EXTRACT: note_on channel=9 note=35 velocity=121 time=0
EXTRACT: note_on channel=9 note=54 velocity=51 time=0
EXTRACT: note_on channel=11 note=59 velocity=79 time=0
EXTRACT: control_change channel=15 control=11 value=127 time=0
EXTRACT: note_on channel=2 note=47 velocity=69 time=0.004166656249999999
EXTRACT: note_on channel=15 note=47 velocity=66 time=0
EXTRACT: control_change channel=2 control=64 value=100 time=0.005555541666666666
EXTRACT: note_on channel=9 note=46 velocity=0 time=0.02083328125
EXTRACT: note_on channel=9 note=35 velocity=0 time=0
EXTRACT: note_on channel=9 note=54 velocity=0 time=0
EXTRACT: note_on channel=2 note=47 velocity=0 time=0.1569440520833333
EXTRACT: control_change channel=3 control=11 value=111 time=0.03472213541666666
EXTRACT: note_on channel=8 note=59 velocity=0 time=0.03749990625
EXTRACT: note_on channel=11 note=59 velocity=0 time=0.05138876041666666
EXTRACT: note_on channel=8 note=59 velocity=63 time=0.016666624999999997
EXTRACT: note_on channel=15 note=47 velocity=0 time=0.0013888854166666665
EXTRACT: note_on channel=11 note=61 velocity=79 time=0.002777770833333333
EXTRACT: note_on channel=9 note=46 velocity=51 time=0.0013888854166666665
EXTRACT: note_on channel=9 note=54 velocity=36 time=0
EXTRACT: note_on channel=2 note=51 velocity=47 time=0.006944427083333333
EXTRACT: note_on channel=15 note=51 velocity=44 time=0
EXTRACT: note_on channel=9 note=46 velocity=0 time=0.02361105208333333
EXTRACT: note_on channel=9 note=54 velocity=0 time=0
EXTRACT: note_on channel=2 note=51 velocity=0 time=0.02083328125
EXTRACT: note_on channel=8 note=66 velocity=0 time=0.2083328125
EXTRACT: note_on channel=15 note=51 velocity=0 time=0.058333187499999994
EXTRACT: note_on channel=8 note=66 velocity=70 time=0.011111083333333332
EXTRACT: note_on channel=2 note=54 velocity=71 time=0.0013888854166666665
EXTRACT: note_on channel=15 note=54 velocity=69 time=0
EXTRACT: note_on channel=11 note=61 velocity=0 time=0.002777770833333333
EXTRACT: note_on channel=9 note=46 velocity=75 time=0
EXTRACT: note_on channel=9 note=54 velocity=50 time=0
EXTRACT: note_on channel=11 note=59 velocity=79 time=0
EXTRACT: note_on channel=9 note=39 velocity=115 time=0.002777770833333333
EXTRACT: note_on channel=2 note=59 velocity=79 time=0.002777770833333333
EXTRACT: note_on channel=15 note=59 velocity=77 time=0
EXTRACT: note_on channel=9 note=85 velocity=73 time=0.004166656249999999
EXTRACT: note_on channel=9 note=28 velocity=73 time=0
EXTRACT: note_on channel=2 note=59 velocity=0 time=0.011111083333333332
EXTRACT: note_on channel=2 note=54 velocity=0 time=0.009722197916666666
EXTRACT: note_on channel=9 note=46 velocity=0 time=0
EXTRACT: note_on channel=9 note=54 velocity=0 time=0
EXTRACT: note_on channel=9 note=39 velocity=0 time=0.004166656249999999
EXTRACT: note_on channel=9 note=85 velocity=0 time=0.006944427083333333
EXTRACT: note_on channel=9 note=28 velocity=0 time=0
EXTRACT: note_on channel=9 note=85 velocity=127 time=0.009722197916666666
EXTRACT: note_on channel=9 note=85 velocity=0 time=0.03194436458333333
EXTRACT: control_change channel=3 control=1 value=15 time=0.02777770833333333
EXTRACT: control_change channel=15 control=11 value=127 time=0.02777770833333333
EXTRACT: control_change channel=15 control=11 value=123 time=0.0416665625
EXTRACT: note_on channel=1 note=35 velocity=0 time=0.006944427083333333
EXTRACT: control_change channel=15 control=11 value=119 time=0.03472213541666666
EXTRACT: note_on channel=15 note=54 velocity=0 time=0.006944427083333333
EXTRACT: note_on channel=8 note=59 velocity=0 time=0
EXTRACT: control_change channel=15 control=11 value=115 time=0.03472213541666666
EXTRACT: control_change channel=15 control=11 value=111 time=0.0416665625
EXTRACT: note_on channel=15 note=59 velocity=0 time=0.015277739583333332
EXTRACT: note_on channel=8 note=59 velocity=70 time=0.008333312499999999
EXTRACT: note_on channel=9 note=54 velocity=35 time=0.002777770833333333
EXTRACT: note_on channel=2 note=54 velocity=67 time=0.0013888854166666665
EXTRACT: note_on channel=9 note=46 velocity=59 time=0
EXTRACT: note_on channel=9 note=35 velocity=113 time=0
EXTRACT: note_on channel=15 note=54 velocity=64 time=0
EXTRACT: note_on channel=11 note=54 velocity=55 time=0.005555541666666666
EXTRACT: control_change channel=15 control=11 value=107 time=0.008333312499999999
EXTRACT: note_on channel=9 note=54 velocity=0 time=0.016666624999999997
EXTRACT: note_on channel=9 note=46 velocity=0 time=0
EXTRACT: note_on channel=9 note=35 velocity=0 time=0
EXTRACT: note_on channel=2 note=54 velocity=0 time=0.002777770833333333
EXTRACT: control_change channel=15 control=11 value=103 time=0.022222166666666664
EXTRACT: control_change channel=15 control=11 value=99 time=0.0416665625
EXTRACT: control_change channel=15 control=11 value=95 time=0.0416665625
EXTRACT: control_change channel=15 control=11 value=91 time=0.048610989583333326
EXTRACT: note_on channel=13 note=66 velocity=0 time=0.09722197916666665
EXTRACT: note_on channel=13 note=63 velocity=0 time=0.013888854166666666
EXTRACT: note_on channel=11 note=59 velocity=0 time=0.0013888854166666665
EXTRACT: control_change channel=15 control=11 value=126 time=0.005555541666666666
EXTRACT: note_on channel=13 note=71 velocity=0 time=0.004166656249999999
EXTRACT: note_on channel=8 note=59 velocity=0 time=0.002777770833333333
EXTRACT: control_change channel=2 control=64 value=0 time=0
EXTRACT: note_on channel=11 note=54 velocity=0 time=0.005555541666666666
EXTRACT: note_on channel=13 note=70 velocity=43 time=0.0013888854166666665
EXTRACT: note_on channel=15 note=54 velocity=0 time=0.005555541666666666
EXTRACT: note_on channel=13 note=66 velocity=32 time=0.004166656249999999
EXTRACT: note_on channel=8 note=66 velocity=0 time=0.004166656249999999
EXTRACT: note_on channel=1 note=30 velocity=123 time=0
EXTRACT: note_on channel=8 note=61 velocity=69 time=0
EXTRACT: note_on channel=9 note=46 velocity=77 time=0
EXTRACT: note_on channel=9 note=54 velocity=51 time=0
EXTRACT: note_on channel=9 note=35 velocity=125 time=0
EXTRACT: note_on channel=13 note=61 velocity=35 time=0
EXTRACT: note_on channel=2 note=42 velocity=61 time=0.004166656249999999
EXTRACT: note_on channel=15 note=42 velocity=58 time=0
EXTRACT: note_on channel=11 note=54 velocity=73 time=0.0013888854166666665
EXTRACT: note_on channel=9 note=46 velocity=0 time=0.024999937499999996
EXTRACT: note_on channel=9 note=54 velocity=0 time=0
EXTRACT: note_on channel=9 note=35 velocity=0 time=0
EXTRACT: control_change channel=2 control=64 value=100 time=0
EXTRACT: note_on channel=2 note=42 velocity=0 time=0.12499968749999998
EXTRACT: note_on channel=15 note=42 velocity=0 time=0.16249959374999998
EXTRACT: note_on channel=8 note=66 velocity=75 time=0.011111083333333332
EXTRACT: note_on channel=2 note=49 velocity=47 time=0
EXTRACT: note_on channel=3 note=73 velocity=110 time=0
EXTRACT: note_on channel=15 note=49 velocity=45 time=0
EXTRACT: note_on channel=4 note=66 velocity=6 time=0.002777770833333333
EXTRACT: note_on channel=9 note=46 velocity=57 time=0
EXTRACT: note_on channel=9 note=54 velocity=32 time=0
EXTRACT: note_on channel=11 note=58 velocity=79 time=0.006944427083333333
EXTRACT: note_on channel=2 note=49 velocity=0 time=0.002777770833333333
EXTRACT: note_on channel=9 note=46 velocity=0 time=0.02083328125
EXTRACT: note_on channel=9 note=54 velocity=0 time=0
EXTRACT: note_on channel=8 note=61 velocity=0 time=0.12083303124999999
EXTRACT: note_on channel=3 note=73 velocity=0 time=0.029166593749999997
EXTRACT: note_on channel=11 note=54 velocity=0 time=0.11111083333333333
EXTRACT: note_on channel=8 note=61 velocity=70 time=0.03749990625
EXTRACT: note_on channel=9 note=46 velocity=81 time=0.004166656249999999
EXTRACT: note_on channel=9 note=54 velocity=51 time=0
EXTRACT: note_on channel=3 note=73 velocity=110 time=0
EXTRACT: note_on channel=11 note=54 velocity=73 time=0
EXTRACT: note_on channel=9 note=39 velocity=115 time=0.0013888854166666665
EXTRACT: note_on channel=15 note=49 velocity=0 time=0.0013888854166666665
EXTRACT: note_on channel=9 note=85 velocity=79 time=0.005555541666666666
EXTRACT: note_on channel=9 note=28 velocity=73 time=0
EXTRACT: note_on channel=2 note=58 velocity=79 time=0.005555541666666666
EXTRACT: note_on channel=15 note=58 velocity=76 time=0
EXTRACT: note_on channel=2 note=54 velocity=65 time=0.002777770833333333
EXTRACT: note_on channel=15 note=54 velocity=62 time=0
EXTRACT: note_on channel=9 note=46 velocity=0 time=0.012499968749999998
EXTRACT: note_on channel=9 note=54 velocity=0 time=0.0013888854166666665
EXTRACT: note_on channel=9 note=39 velocity=0 time=0.002777770833333333
EXTRACT: note_on channel=9 note=85 velocity=0 time=0.006944427083333333
EXTRACT: note_on channel=9 note=28 velocity=0 time=0
EXTRACT: note_on channel=2 note=54 velocity=0 time=0.009722197916666666
EXTRACT: note_on channel=9 note=85 velocity=127 time=0
EXTRACT: note_on channel=2 note=58 velocity=0 time=0.03194436458333333
EXTRACT: note_on channel=9 note=85 velocity=0 time=0
EXTRACT: note_on channel=1 note=30 velocity=0 time=0.030555479166666663
EXTRACT: control_change channel=15 control=11 value=127 time=0.03194436458333333
EXTRACT: control_change channel=15 control=11 value=122 time=0.0416665625
EXTRACT: note_on channel=3 note=73 velocity=0 time=0.0013888854166666665
EXTRACT: control_change channel=15 control=11 value=118 time=0.04027767708333333
EXTRACT: note_on channel=8 note=66 velocity=0 time=0.005555541666666666
EXTRACT: control_change channel=15 control=11 value=115 time=0.03611102083333333
EXTRACT: note_on channel=11 note=54 velocity=0 time=0.02361105208333333
EXTRACT: note_on channel=11 note=58 velocity=0 time=0.006944427083333333
EXTRACT: control_change channel=15 control=11 value=110 time=0.011111083333333332
EXTRACT: note_on channel=15 note=54 velocity=0 time=0.008333312499999999
EXTRACT: note_on channel=1 note=25 velocity=106 time=0.012499968749999998
EXTRACT: note_on channel=2 note=54 velocity=55 time=0
EXTRACT: note_on channel=8 note=65 velocity=71 time=0
EXTRACT: note_on channel=9 note=46 velocity=61 time=0
EXTRACT: note_on channel=9 note=35 velocity=113 time=0
EXTRACT: note_on channel=9 note=54 velocity=37 time=0
EXTRACT: note_on channel=15 note=54 velocity=53 time=0
EXTRACT: note_on channel=11 note=61 velocity=72 time=0.0013888854166666665
EXTRACT: note_on channel=3 note=73 velocity=111 time=0
EXTRACT: control_change channel=15 control=11 value=107 time=0.016666624999999997
EXTRACT: note_on channel=9 note=46 velocity=0 time=0.009722197916666666
EXTRACT: note_on channel=9 note=35 velocity=0 time=0
EXTRACT: note_on channel=9 note=54 velocity=0 time=0
EXTRACT: note_on channel=2 note=54 velocity=0 time=0.002777770833333333
EXTRACT: note_on channel=15 note=58 velocity=0 time=0.029166593749999997
EXTRACT: control_change channel=15 control=11 value=102 time=0
EXTRACT: control_change channel=15 control=11 value=99 time=0.0416665625
EXTRACT: control_change channel=15 control=11 value=94 time=0.0416665625
EXTRACT: control_change channel=15 control=11 value=90 time=0.048610989583333326
EXTRACT: note_on channel=3 note=73 velocity=0 time=0.038888791666666665
EXTRACT: note_on channel=1 note=25 velocity=0 time=0.03749990625
EXTRACT: note_on channel=13 note=70 velocity=0 time=0.024999937499999996
EXTRACT: control_change channel=2 control=64 value=0 time=0.005555541666666666
EXTRACT: note_on channel=13 note=66 velocity=0 time=0.006944427083333333
EXTRACT: control_change channel=15 control=11 value=127 time=0.004166656249999999
EXTRACT: note_on channel=4 note=66 velocity=0 time=0.008333312499999999
EXTRACT: note_on channel=15 note=54 velocity=0 time=0
EXTRACT: note_on channel=11 note=49 velocity=73 time=0.005555541666666666
EXTRACT: note_on channel=1 note=25 velocity=123 time=0.006944427083333333
EXTRACT: note_on channel=2 note=49 velocity=61 time=0
EXTRACT: note_on channel=4 note=65 velocity=6 time=0
EXTRACT: note_on channel=9 note=46 velocity=81 time=0
EXTRACT: note_on channel=9 note=35 velocity=120 time=0
EXTRACT: note_on channel=9 note=54 velocity=53 time=0
EXTRACT: note_on channel=13 note=68 velocity=39 time=0
EXTRACT: note_on channel=15 note=49 velocity=59 time=0
EXTRACT: note_on channel=3 note=75 velocity=110 time=0
EXTRACT: note_on channel=13 note=65 velocity=35 time=0.008333312499999999
EXTRACT: note_on channel=2 note=56 velocity=55 time=0.008333312499999999
EXTRACT: note_on channel=15 note=56 velocity=52 time=0
EXTRACT: control_change channel=2 control=64 value=100 time=0
EXTRACT: note_on channel=9 note=46 velocity=0 time=0.009722197916666666
EXTRACT: note_on channel=9 note=35 velocity=0 time=0
EXTRACT: note_on channel=9 note=54 velocity=0 time=0.0013888854166666665
EXTRACT: note_on channel=2 note=56 velocity=0 time=0.022222166666666664
EXTRACT: note_on channel=2 note=49 velocity=0 time=0.12916634375
EXTRACT: note_on channel=15 note=49 velocity=0 time=0
EXTRACT: note_on channel=8 note=61 velocity=0 time=0.05555541666666666
EXTRACT: note_on channel=3 note=75 velocity=0 time=0.05277764583333333
EXTRACT: note_on channel=15 note=56 velocity=0 time=0.019444395833333333
EXTRACT: note_on channel=2 note=56 velocity=54 time=0.011111083333333332
EXTRACT: note_on channel=15 note=56 velocity=53 time=0
EXTRACT: note_on channel=8 note=61 velocity=71 time=0.011111083333333332
EXTRACT: note_on channel=9 note=46 velocity=61 time=0
EXTRACT: note_on channel=9 note=54 velocity=42 time=0
EXTRACT: note_on channel=3 note=73 velocity=111 time=0
EXTRACT: note_on channel=2 note=49 velocity=47 time=0.002777770833333333
EXTRACT: note_on channel=15 note=49 velocity=45 time=0
EXTRACT: note_on channel=2 note=56 velocity=0 time=0.016666624999999997
EXTRACT: note_on channel=9 note=46 velocity=0 time=0.006944427083333333
EXTRACT: note_on channel=9 note=54 velocity=0 time=0
EXTRACT: note_on channel=2 note=49 velocity=0 time=0.02083328125
EXTRACT: note_on channel=8 note=65 velocity=0 time=0.10416640625
EXTRACT: note_on channel=3 note=73 velocity=0 time=0.05277764583333333
EXTRACT: note_on channel=11 note=61 velocity=0 time=0.02777770833333333
EXTRACT: note_on channel=15 note=56 velocity=0 time=0.02361105208333333
EXTRACT: note_on channel=11 note=49 velocity=0 time=0.04722210416666666
EXTRACT: note_on channel=9 note=46 velocity=81 time=0.026388822916666665
EXTRACT: note_on channel=9 note=54 velocity=52 time=0
EXTRACT: note_on channel=3 note=70 velocity=110 time=0
EXTRACT: note_on channel=9 note=39 velocity=112 time=0
EXTRACT: note_on channel=11 note=56 velocity=82 time=0
EXTRACT: note_on channel=15 note=49 velocity=0 time=0.0013888854166666665
EXTRACT: note_on channel=9 note=85 velocity=72 time=0.005555541666666666
EXTRACT: note_on channel=9 note=28 velocity=69 time=0
EXTRACT: note_on channel=8 note=65 velocity=88 time=0.0013888854166666665
EXTRACT: note_on channel=2 note=56 velocity=84 time=0.004166656249999999
EXTRACT: note_on channel=15 note=56 velocity=82 time=0
EXTRACT: note_on channel=9 note=46 velocity=0 time=0.015277739583333332
EXTRACT: note_on channel=9 note=54 velocity=0 time=0.0013888854166666665
EXTRACT: note_on channel=9 note=39 velocity=0 time=0.002777770833333333
EXTRACT: note_on channel=9 note=85 velocity=0 time=0.006944427083333333
EXTRACT: note_on channel=9 note=28 velocity=0 time=0
EXTRACT: note_on channel=2 note=56 velocity=0 time=0
EXTRACT: note_on channel=9 note=85 velocity=127 time=0.009722197916666666
EXTRACT: note_on channel=1 note=25 velocity=0 time=0.02083328125
EXTRACT: note_on channel=9 note=85 velocity=0 time=0.011111083333333332
EXTRACT: control_change channel=15 control=11 value=127 time=0.03472213541666666
EXTRACT: note_on channel=8 note=65 velocity=0 time=0.02777770833333333
EXTRACT: control_change channel=15 control=11 value=123 time=0.013888854166666666
EXTRACT: note_on channel=8 note=66 velocity=67 time=0.005555541666666666
EXTRACT: note_on channel=3 note=70 velocity=0 time=0.024999937499999996
EXTRACT: control_change channel=15 control=11 value=118 time=0.011111083333333332
EXTRACT: note_on channel=8 note=61 velocity=0 time=0.03749990625
EXTRACT: control_change channel=15 control=11 value=114 time=0.004166656249999999
EXTRACT: control_change channel=15 control=11 value=110 time=0.0416665625
EXTRACT: note_on channel=4 note=65 velocity=0 time=0.03611102083333333
EXTRACT: note_on channel=15 note=56 velocity=0 time=0.004166656249999999
EXTRACT: control_change channel=15 control=11 value=106 time=0.0013888854166666665
EXTRACT: note_on channel=1 note=25 velocity=107 time=0.006944427083333333
EXTRACT: note_on channel=4 note=66 velocity=6 time=0
EXTRACT: note_on channel=9 note=46 velocity=63 time=0
EXTRACT: note_on channel=9 note=35 velocity=114 time=0
EXTRACT: note_on channel=9 note=54 velocity=42 time=0
EXTRACT: note_on channel=2 note=49 velocity=42 time=0.004166656249999999
EXTRACT: note_on channel=15 note=49 velocity=41 time=0
EXTRACT: note_on channel=2 note=53 velocity=65 time=0.002777770833333333
EXTRACT: note_on channel=8 note=61 velocity=73 time=0
EXTRACT: note_on channel=15 note=53 velocity=63 time=0
EXTRACT: note_on channel=2 note=53 velocity=0 time=0.0013888854166666665
EXTRACT: note_on channel=3 note=70 velocity=111 time=0
EXTRACT: note_on channel=9 note=46 velocity=0 time=0.02083328125
EXTRACT: note_on channel=9 note=35 velocity=0 time=0
EXTRACT: note_on channel=9 note=54 velocity=0 time=0
EXTRACT: control_change channel=15 control=11 value=103 time=0.004166656249999999
EXTRACT: note_on channel=2 note=49 velocity=0 time=0.016666624999999997
EXTRACT: control_change channel=15 control=11 value=98 time=0.024999937499999996
EXTRACT: control_change channel=15 control=11 value=94 time=0.0416665625
EXTRACT: control_change channel=15 control=11 value=91 time=0.048610989583333326
EXTRACT: note_on channel=15 note=49 velocity=0 time=0.06249984374999999
EXTRACT: note_on channel=13 note=61 velocity=0 time=0.0416665625
EXTRACT: note_on channel=1 note=25 velocity=0 time=0
EXTRACT: control_change channel=2 control=64 value=0 time=0.009722197916666666
EXTRACT: note_on channel=8 note=66 velocity=0 time=0.005555541666666666
EXTRACT: note_on channel=11 note=56 velocity=0 time=0.005555541666666666
EXTRACT: note_on channel=3 note=70 velocity=0 time=0.009722197916666666
EXTRACT: note_on channel=13 note=68 velocity=0 time=0.008333312499999999
EXTRACT: note_on channel=13 note=70 velocity=45 time=0.009722197916666666
EXTRACT: note_on channel=13 note=65 velocity=0 time=0.002777770833333333
EXTRACT: note_on channel=15 note=53 velocity=0 time=0.002777770833333333
EXTRACT: control_change channel=15 control=11 value=127 time=0.0013888854166666665
EXTRACT: note_on channel=8 note=58 velocity=59 time=0.0013888854166666665
EXTRACT: note_on channel=9 note=54 velocity=49 time=0.004166656249999999
EXTRACT: note_on channel=1 note=27 velocity=118 time=0.0013888854166666665
EXTRACT: note_on channel=9 note=46 velocity=77 time=0
EXTRACT: note_on channel=9 note=35 velocity=120 time=0
EXTRACT: note_on channel=11 note=51 velocity=70 time=0
EXTRACT: note_on channel=13 note=63 velocity=37 time=0
EXTRACT: note_on channel=2 note=39 velocity=56 time=0.004166656249999999
EXTRACT: note_on channel=15 note=39 velocity=55 time=0
EXTRACT: note_on channel=3 note=68 velocity=110 time=0.005555541666666666
EXTRACT: control_change channel=2 control=64 value=100 time=0.011111083333333332
EXTRACT: note_on channel=13 note=66 velocity=37 time=0.002777770833333333
EXTRACT: note_on channel=9 note=54 velocity=0 time=0.006944427083333333
EXTRACT: note_on channel=9 note=46 velocity=0 time=0
EXTRACT: note_on channel=9 note=35 velocity=0 time=0
EXTRACT: note_on channel=3 note=68 velocity=0 time=0.11527748958333332
EXTRACT: note_on channel=2 note=39 velocity=0 time=0.009722197916666666
EXTRACT: note_on channel=3 note=66 velocity=110 time=0.011111083333333332
EXTRACT: control_change channel=7 control=64 value=100 time=0.006944427083333333
EXTRACT: note_on channel=8 note=61 velocity=0 time=0.15416628124999998
EXTRACT: note_on channel=15 note=39 velocity=0 time=0.0013888854166666665
EXTRACT: note_on channel=7 note=92 velocity=66 time=0.004166656249999999
EXTRACT: note_on channel=9 note=46 velocity=64 time=0
EXTRACT: note_on channel=9 note=54 velocity=34 time=0
EXTRACT: note_on channel=11 note=61 velocity=67 time=0
EXTRACT: note_on channel=8 note=66 velocity=75 time=0.004166656249999999
EXTRACT: note_on channel=2 note=54 velocity=49 time=0.002777770833333333
EXTRACT: note_on channel=15 note=54 velocity=47 time=0
EXTRACT: note_on channel=2 note=54 velocity=0 time=0.013888854166666666
EXTRACT: note_on channel=9 note=46 velocity=0 time=0.009722197916666666
EXTRACT: note_on channel=9 note=54 velocity=0 time=0
EXTRACT: note_on channel=7 note=90 velocity=61 time=0.1361107708333333
EXTRACT: note_on channel=7 note=90 velocity=0 time=0.006944427083333333
EXTRACT: note_on channel=8 note=58 velocity=0 time=0.07083315624999999
EXTRACT: note_on channel=11 note=51 velocity=0 time=0.07777758333333333
EXTRACT: note_on channel=15 note=54 velocity=0 time=0.006944427083333333
EXTRACT: note_on channel=8 note=61 velocity=71 time=0
EXTRACT: note_on channel=7 note=85 velocity=50 time=0.004166656249999999
EXTRACT: note_on channel=9 note=46 velocity=76 time=0
EXTRACT: note_on channel=9 note=54 velocity=49 time=0
EXTRACT: note_on channel=11 note=54 velocity=76 time=0
EXTRACT: note_on channel=9 note=39 velocity=116 time=0.002777770833333333
EXTRACT: note_on channel=2 note=58 velocity=64 time=0.004166656249999999
EXTRACT: note_on channel=15 note=58 velocity=63 time=0
EXTRACT: note_on channel=9 note=85 velocity=78 time=0.002777770833333333
EXTRACT: note_on channel=9 note=28 velocity=75 time=0
EXTRACT: note_on channel=2 note=61 velocity=85 time=0.016666624999999997
EXTRACT: note_on channel=15 note=61 velocity=83 time=0
EXTRACT: note_on channel=9 note=46 velocity=0 time=0.004166656249999999
EXTRACT: note_on channel=9 note=54 velocity=0 time=0
EXTRACT: note_on channel=9 note=39 velocity=0 time=0.004166656249999999
EXTRACT: note_on channel=9 note=85 velocity=0 time=0.006944427083333333
EXTRACT: note_on channel=9 note=28 velocity=0 time=0
EXTRACT: note_on channel=2 note=61 velocity=0 time=0
EXTRACT: note_on channel=2 note=58 velocity=0 time=0.009722197916666666
EXTRACT: note_on channel=9 note=85 velocity=127 time=0
EXTRACT: note_on channel=1 note=27 velocity=0 time=0.02083328125
EXTRACT: note_on channel=9 note=85 velocity=0 time=0.011111083333333332
EXTRACT: control_change channel=15 control=11 value=126 time=0.083333125
EXTRACT: note_on channel=11 note=61 velocity=0 time=0.009722197916666666
EXTRACT: control_change channel=15 control=11 value=122 time=0.03194436458333333
EXTRACT: note_on channel=15 note=58 velocity=0 time=0.030555479166666663
EXTRACT: control_change channel=15 control=11 value=119 time=0.011111083333333332
EXTRACT: control_change channel=15 control=11 value=114 time=0.0416665625
EXTRACT: note_on channel=8 note=61 velocity=0 time=0.033333249999999995
EXTRACT: note_on channel=8 note=59 velocity=71 time=0.004166656249999999
EXTRACT: note_on channel=1 note=34 velocity=121 time=0.004166656249999999
EXTRACT: note_on channel=7 note=82 velocity=47 time=0
EXTRACT: note_on channel=9 note=46 velocity=52 time=0
EXTRACT: note_on channel=9 note=54 velocity=39 time=0
EXTRACT: note_on channel=9 note=35 velocity=112 time=0
EXTRACT: note_on channel=11 note=61 velocity=57 time=0
EXTRACT: control_change channel=15 control=11 value=110 time=0
EXTRACT: note_on channel=7 note=82 velocity=0 time=0.0013888854166666665
EXTRACT: note_on channel=15 note=61 velocity=0 time=0.004166656249999999
EXTRACT: note_on channel=2 note=54 velocity=64 time=0.012499968749999998
EXTRACT: note_on channel=15 note=54 velocity=63 time=0
EXTRACT: note_on channel=9 note=46 velocity=0 time=0.012499968749999998
EXTRACT: note_on channel=9 note=54 velocity=0 time=0
EXTRACT: note_on channel=9 note=35 velocity=0 time=0
EXTRACT: control_change channel=15 control=11 value=107 time=0.011111083333333332
EXTRACT: note_on channel=2 note=54 velocity=0 time=0.02083328125
EXTRACT: control_change channel=15 control=11 value=103 time=0.02083328125
EXTRACT: control_change channel=15 control=11 value=98 time=0.0416665625
EXTRACT: note_on channel=8 note=66 velocity=0 time=0.02777770833333333
EXTRACT: control_change channel=15 control=11 value=95 time=0.013888854166666666
EXTRACT: control_change channel=15 control=11 value=91 time=0.048610989583333326
EXTRACT: note_on channel=13 note=70 velocity=0 time=0.038888791666666665
EXTRACT: note_on channel=11 note=54 velocity=0 time=0.03194436458333333
EXTRACT: note_on channel=13 note=71 velocity=43 time=0.02361105208333333
EXTRACT: control_change channel=2 control=64 value=0 time=0.002777770833333333
EXTRACT: note_on channel=1 note=34 velocity=0 time=0.009722197916666666
EXTRACT: note_on channel=11 note=61 velocity=0 time=0
EXTRACT: note_on channel=15 note=54 velocity=0 time=0.002777770833333333
EXTRACT: note_on channel=8 note=66 velocity=69 time=0.004166656249999999
EXTRACT: note_on channel=1 note=35 velocity=121 time=0.004166656249999999
EXTRACT: note_on channel=9 note=46 velocity=74 time=0
EXTRACT: note_on channel=9 note=35 velocity=121 time=0
EXTRACT: note_on channel=9 note=54 velocity=50 time=0
EXTRACT: note_on channel=11 note=59 velocity=78 time=0
EXTRACT: control_change channel=15 control=11 value=126 time=0
EXTRACT: note_on channel=2 note=47 velocity=68 time=0.004166656249999999
EXTRACT: note_on channel=15 note=47 velocity=67 time=0
EXTRACT: control_change channel=2 control=64 value=100 time=0.005555541666666666
EXTRACT: note_on channel=2 note=59 velocity=65 time=0.008333312499999999
EXTRACT: note_on channel=15 note=59 velocity=63 time=0
EXTRACT: note_on channel=9 note=46 velocity=0 time=0.012499968749999998
EXTRACT: note_on channel=9 note=35 velocity=0 time=0
EXTRACT: note_on channel=9 note=54 velocity=0 time=0
EXTRACT: note_on channel=2 note=59 velocity=0 time=0.03194436458333333
EXTRACT: note_on channel=3 note=66 velocity=0 time=0.11249971874999999
EXTRACT: note_on channel=2 note=47 velocity=0 time=0.012499968749999998
EXTRACT: note_on channel=15 note=47 velocity=0 time=0
EXTRACT: note_on channel=8 note=59 velocity=0 time=0.07222204166666665
EXTRACT: note_on channel=11 note=59 velocity=0 time=0.05138876041666666
EXTRACT: note_on channel=4 note=66 velocity=0 time=0.011111083333333332
EXTRACT: note_on channel=8 note=59 velocity=63 time=0.005555541666666666
EXTRACT: note_on channel=15 note=59 velocity=0 time=0.0013888854166666665
EXTRACT: note_on channel=11 note=61 velocity=79 time=0.002777770833333333
EXTRACT: note_on channel=9 note=46 velocity=50 time=0.0013888854166666665
EXTRACT: note_on channel=9 note=54 velocity=37 time=0
EXTRACT: note_on channel=2 note=51 velocity=53 time=0.006944427083333333
EXTRACT: note_on channel=15 note=51 velocity=51 time=0
EXTRACT: note_on channel=2 note=54 velocity=53 time=0.02083328125
EXTRACT: note_on channel=15 note=54 velocity=51 time=0
EXTRACT: note_on channel=9 note=46 velocity=0 time=0.002777770833333333
EXTRACT: note_on channel=9 note=54 velocity=0 time=0
EXTRACT: note_on channel=2 note=51 velocity=0 time=0.02083328125
EXTRACT: note_on channel=2 note=54 velocity=0 time=0.02083328125
EXTRACT: note_on channel=15 note=51 velocity=0 time=0.1361107708333333
EXTRACT: note_on channel=8 note=66 velocity=0 time=0.05138876041666666
EXTRACT: note_on channel=15 note=54 velocity=0 time=0.011111083333333332
EXTRACT: note_on channel=1 note=35 velocity=0 time=0.05138876041666666
EXTRACT: note_on channel=8 note=66 velocity=71 time=0.006944427083333333
EXTRACT: note_on channel=2 note=54 velocity=64 time=0.0013888854166666665
EXTRACT: note_on channel=15 note=54 velocity=63 time=0
EXTRACT: note_on channel=11 note=61 velocity=0 time=0.002777770833333333
EXTRACT: note_on channel=9 note=46 velocity=75 time=0
EXTRACT: note_on channel=9 note=54 velocity=51 time=0
EXTRACT: note_on channel=11 note=59 velocity=78 time=0
EXTRACT: note_on channel=9 note=39 velocity=116 time=0.002777770833333333
EXTRACT: note_on channel=2 note=59 velocity=78 time=0.002777770833333333
EXTRACT: note_on channel=15 note=59 velocity=77 time=0
EXTRACT: note_on channel=9 note=85 velocity=73 time=0.004166656249999999
EXTRACT: note_on channel=9 note=28 velocity=75 time=0
EXTRACT: note_on channel=2 note=59 velocity=0 time=0.011111083333333332
EXTRACT: note_on channel=2 note=54 velocity=0 time=0.009722197916666666
EXTRACT: note_on channel=9 note=46 velocity=0 time=0
EXTRACT: note_on channel=9 note=54 velocity=0 time=0
EXTRACT: note_on channel=9 note=39 velocity=0 time=0.004166656249999999
EXTRACT: note_on channel=9 note=85 velocity=0 time=0.006944427083333333
EXTRACT: note_on channel=9 note=28 velocity=0 time=0
EXTRACT: note_on channel=9 note=85 velocity=127 time=0.009722197916666666
EXTRACT: note_on channel=9 note=85 velocity=0 time=0.03194436458333333
EXTRACT: control_change channel=15 control=11 value=127 time=0.05555541666666666
EXTRACT: control_change channel=15 control=11 value=123 time=0.0416665625
EXTRACT: note_on channel=15 note=54 velocity=0 time=0.03749990625
EXTRACT: control_change channel=15 control=11 value=119 time=0.004166656249999999
EXTRACT: note_on channel=8 note=59 velocity=0 time=0.006944427083333333
EXTRACT: control_change channel=15 control=11 value=115 time=0.03472213541666666
EXTRACT: control_change channel=15 control=11 value=111 time=0.0416665625
EXTRACT: note_on channel=15 note=59 velocity=0 time=0.02361105208333333
EXTRACT: note_on channel=8 note=59 velocity=71 time=0
EXTRACT: note_on channel=9 note=54 velocity=35 time=0.002777770833333333
EXTRACT: note_on channel=1 note=35 velocity=121 time=0.0013888854166666665
EXTRACT: note_on channel=9 note=46 velocity=59 time=0
EXTRACT: note_on channel=9 note=35 velocity=111 time=0
EXTRACT: note_on channel=11 note=54 velocity=54 time=0.005555541666666666
EXTRACT: note_on channel=2 note=51 velocity=50 time=0.0013888854166666665
EXTRACT: note_on channel=15 note=51 velocity=49 time=0
EXTRACT: control_change channel=15 control=11 value=107 time=0.006944427083333333
EXTRACT: note_on channel=2 note=54 velocity=50 time=0.013888854166666666
EXTRACT: note_on channel=15 note=54 velocity=49 time=0
EXTRACT: note_on channel=9 note=54 velocity=0 time=0.002777770833333333
EXTRACT: note_on channel=9 note=46 velocity=0 time=0
EXTRACT: note_on channel=9 note=35 velocity=0 time=0
EXTRACT: note_on channel=2 note=51 velocity=0 time=0.011111083333333332
EXTRACT: control_change channel=15 control=11 value=103 time=0.013888854166666666
EXTRACT: note_on channel=2 note=54 velocity=0 time=0.006944427083333333
EXTRACT: control_change channel=15 control=11 value=99 time=0.03472213541666666
EXTRACT: control_change channel=15 control=11 value=95 time=0.0416665625
EXTRACT: note_on channel=15 note=51 velocity=0 time=0.12083303124999999
EXTRACT: note_on channel=13 note=66 velocity=0 time=0.024999937499999996
EXTRACT: note_on channel=13 note=63 velocity=0 time=0.013888854166666666
EXTRACT: note_on channel=11 note=59 velocity=0 time=0.0013888854166666665
EXTRACT: note_on channel=1 note=35 velocity=0 time=0.0013888854166666665
EXTRACT: control_change channel=15 control=11 value=127 time=0.004166656249999999
EXTRACT: note_on channel=13 note=71 velocity=0 time=0.004166656249999999
EXTRACT: note_on channel=8 note=59 velocity=0 time=0.002777770833333333
EXTRACT: control_change channel=2 control=64 value=0 time=0
EXTRACT: note_on channel=11 note=54 velocity=0 time=0.005555541666666666
EXTRACT: note_on channel=13 note=70 velocity=42 time=0.0013888854166666665
EXTRACT: note_on channel=15 note=54 velocity=0 time=0.005555541666666666
EXTRACT: note_on channel=13 note=66 velocity=33 time=0.004166656249999999
EXTRACT: note_on channel=8 note=66 velocity=0 time=0.004166656249999999
EXTRACT: note_on channel=1 note=30 velocity=115 time=0
EXTRACT: note_on channel=8 note=61 velocity=69 time=0
EXTRACT: note_on channel=9 note=46 velocity=77 time=0
EXTRACT: note_on channel=9 note=54 velocity=51 time=0
EXTRACT: note_on channel=9 note=35 velocity=125 time=0
EXTRACT: note_on channel=13 note=73 velocity=42 time=0
EXTRACT: note_on channel=2 note=42 velocity=61 time=0.004166656249999999
EXTRACT: note_on channel=15 note=42 velocity=59 time=0
EXTRACT: note_on channel=11 note=54 velocity=73 time=0.0013888854166666665
EXTRACT: control_change channel=7 control=64 value=0 time=0.008333312499999999
EXTRACT: note_on channel=9 note=46 velocity=0 time=0.016666624999999997
EXTRACT: note_on channel=9 note=54 velocity=0 time=0
EXTRACT: note_on channel=9 note=35 velocity=0 time=0
EXTRACT: control_change channel=2 control=64 value=100 time=0
EXTRACT: note_on channel=2 note=42 velocity=0 time=0.12499968749999998
EXTRACT: note_on channel=15 note=42 velocity=0 time=0.15277739583333333
EXTRACT: note_on channel=2 note=54 velocity=48 time=0.011111083333333332
EXTRACT: note_on channel=15 note=54 velocity=47 time=0
EXTRACT: note_on channel=8 note=66 velocity=75 time=0.009722197916666666
EXTRACT: note_on channel=2 note=49 velocity=48 time=0.0013888854166666665
EXTRACT: note_on channel=15 note=49 velocity=47 time=0
EXTRACT: note_on channel=2 note=54 velocity=0 time=0.002777770833333333
EXTRACT: note_on channel=9 note=46 velocity=57 time=0
EXTRACT: note_on channel=9 note=54 velocity=32 time=0
EXTRACT: note_on channel=11 note=58 velocity=79 time=0.006944427083333333
EXTRACT: note_on channel=2 note=49 velocity=0 time=0.002777770833333333
EXTRACT: note_on channel=9 note=46 velocity=0 time=0.02083328125
EXTRACT: note_on channel=9 note=54 velocity=0 time=0
EXTRACT: note_on channel=8 note=61 velocity=0 time=0.12083303124999999
EXTRACT: note_on channel=15 note=54 velocity=0 time=0.11944414583333332
EXTRACT: note_on channel=11 note=54 velocity=0 time=0.02083328125
EXTRACT: note_on channel=1 note=30 velocity=0 time=0.030555479166666663
EXTRACT: note_on channel=8 note=61 velocity=71 time=0.006944427083333333
EXTRACT: note_on channel=9 note=46 velocity=81 time=0.004166656249999999
EXTRACT: note_on channel=9 note=54 velocity=51 time=0
EXTRACT: note_on channel=11 note=54 velocity=73 time=0.0013888854166666665
EXTRACT: note_on channel=9 note=39 velocity=117 time=0.0013888854166666665
EXTRACT: note_on channel=15 note=49 velocity=0 time=0.0013888854166666665
EXTRACT: note_on channel=9 note=85 velocity=79 time=0.005555541666666666
EXTRACT: note_on channel=9 note=28 velocity=75 time=0
EXTRACT: note_on channel=2 note=58 velocity=51 time=0.005555541666666666
EXTRACT: note_on channel=15 note=58 velocity=49 time=0
EXTRACT: note_on channel=2 note=54 velocity=83 time=0.002777770833333333
EXTRACT: note_on channel=15 note=54 velocity=81 time=0
EXTRACT: note_on channel=9 note=46 velocity=0 time=0.012499968749999998
EXTRACT: note_on channel=9 note=54 velocity=0 time=0.0013888854166666665
EXTRACT: note_on channel=9 note=39 velocity=0 time=0.002777770833333333
EXTRACT: note_on channel=9 note=85 velocity=0 time=0.006944427083333333
EXTRACT: note_on channel=9 note=28 velocity=0 time=0
EXTRACT: note_on channel=2 note=54 velocity=0 time=0.009722197916666666
EXTRACT: note_on channel=9 note=85 velocity=127 time=0
EXTRACT: note_on channel=2 note=58 velocity=0 time=0.03194436458333333
EXTRACT: note_on channel=9 note=85 velocity=0 time=0
EXTRACT: control_change channel=15 control=11 value=127 time=0.06249984374999999
EXTRACT: control_change channel=15 control=11 value=123 time=0.0416665625
EXTRACT: control_change channel=15 control=11 value=119 time=0.0416665625
EXTRACT: note_on channel=8 note=66 velocity=0 time=0.005555541666666666
EXTRACT: control_change channel=15 control=11 value=115 time=0.03611102083333333
EXTRACT: note_on channel=11 note=54 velocity=0 time=0.02361105208333333
EXTRACT: note_on channel=11 note=58 velocity=0 time=0.006944427083333333
EXTRACT: control_change channel=15 control=11 value=111 time=0.011111083333333332
EXTRACT: note_on channel=15 note=54 velocity=0 time=0.016666624999999997
EXTRACT: note_on channel=1 note=30 velocity=115 time=0.004166656249999999
EXTRACT: note_on channel=8 note=65 velocity=71 time=0
EXTRACT: note_on channel=9 note=46 velocity=61 time=0
EXTRACT: note_on channel=9 note=35 velocity=111 time=0
EXTRACT: note_on channel=9 note=54 velocity=37 time=0
EXTRACT: note_on channel=11 note=61 velocity=72 time=0.0013888854166666665
EXTRACT: note_on channel=2 note=54 velocity=82 time=0.005555541666666666
EXTRACT: note_on channel=15 note=54 velocity=81 time=0
EXTRACT: control_change channel=15 control=11 value=107 time=0.013888854166666666
EXTRACT: note_on channel=15 note=58 velocity=0 time=0.009722197916666666
EXTRACT: note_on channel=9 note=46 velocity=0 time=0
EXTRACT: note_on channel=9 note=35 velocity=0 time=0
EXTRACT: note_on channel=9 note=54 velocity=0 time=0
EXTRACT: note_on channel=2 note=54 velocity=0 time=0.011111083333333332
EXTRACT: control_change channel=15 control=11 value=103 time=0.02083328125
EXTRACT: control_change channel=15 control=11 value=99 time=0.0416665625
EXTRACT: control_change channel=15 control=11 value=95 time=0.0416665625
EXTRACT: control_change channel=15 control=11 value=91 time=0.048610989583333326
EXTRACT: note_on channel=1 note=30 velocity=0 time=0.058333187499999994
EXTRACT: note_on channel=13 note=70 velocity=0 time=0.04305544791666666
EXTRACT: control_change channel=2 control=64 value=0 time=0.005555541666666666
EXTRACT: note_on channel=13 note=68 velocity=38 time=0.004166656249999999
EXTRACT: note_on channel=13 note=66 velocity=0 time=0.002777770833333333
EXTRACT: control_change channel=15 control=11 value=127 time=0.004166656249999999
EXTRACT: note_on channel=15 note=54 velocity=0 time=0.008333312499999999
EXTRACT: note_on channel=11 note=49 velocity=72 time=0.005555541666666666
EXTRACT: control_change channel=2 control=64 value=100 time=0
EXTRACT: note_on channel=1 note=25 velocity=115 time=0.006944427083333333
EXTRACT: note_on channel=2 note=49 velocity=60 time=0
EXTRACT: note_on channel=2 note=56 velocity=79 time=0
EXTRACT: note_on channel=9 note=46 velocity=81 time=0
EXTRACT: note_on channel=9 note=35 velocity=125 time=0
EXTRACT: note_on channel=9 note=54 velocity=53 time=0
EXTRACT: note_on channel=15 note=49 velocity=58 time=0
EXTRACT: note_on channel=15 note=56 velocity=77 time=0
EXTRACT: note_on channel=2 note=49 velocity=0 time=0.005555541666666666
EXTRACT: note_on channel=15 note=49 velocity=0 time=0.004166656249999999
EXTRACT: note_on channel=13 note=65 velocity=35 time=0.002777770833333333
EXTRACT: note_on channel=2 note=61 velocity=78 time=0.008333312499999999
EXTRACT: note_on channel=15 note=61 velocity=77 time=0
EXTRACT: note_on channel=2 note=56 velocity=0 time=0.004166656249999999
EXTRACT: note_on channel=9 note=46 velocity=0 time=0.005555541666666666
EXTRACT: note_on channel=9 note=35 velocity=0 time=0
EXTRACT: note_on channel=9 note=54 velocity=0 time=0.0013888854166666665
EXTRACT: note_on channel=2 note=61 velocity=0 time=0.013888854166666666
EXTRACT: note_on channel=8 note=61 velocity=0 time=0.19305507291666665
EXTRACT: note_on channel=1 note=25 velocity=0 time=0.013888854166666666
EXTRACT: note_on channel=15 note=56 velocity=0 time=0.018055510416666663
EXTRACT: note_on channel=15 note=61 velocity=0 time=0.04999987499999999
EXTRACT: note_on channel=1 note=25 velocity=115 time=0.012499968749999998
EXTRACT: note_on channel=2 note=56 velocity=53 time=0
EXTRACT: note_on channel=2 note=61 velocity=84 time=0
EXTRACT: note_on channel=8 note=61 velocity=71 time=0
EXTRACT: note_on channel=9 note=46 velocity=70 time=0
EXTRACT: note_on channel=9 note=35 velocity=81 time=0
EXTRACT: note_on channel=9 note=54 velocity=42 time=0
EXTRACT: note_on channel=15 note=56 velocity=50 time=0
EXTRACT: note_on channel=15 note=61 velocity=82 time=0
EXTRACT: control_change channel=15 control=11 value=127 time=0.006944427083333333
EXTRACT: note_on channel=2 note=56 velocity=0 time=0.002777770833333333
EXTRACT: note_on channel=2 note=61 velocity=0 time=0.015277739583333332
EXTRACT: note_on channel=9 note=46 velocity=0 time=0.005555541666666666
EXTRACT: note_on channel=9 note=35 velocity=0 time=0
EXTRACT: note_on channel=9 note=54 velocity=0 time=0
EXTRACT: control_change channel=15 control=11 value=122 time=0.018055510416666663
EXTRACT: control_change channel=15 control=11 value=119 time=0.0416665625
EXTRACT: control_change channel=15 control=11 value=114 time=0.0416665625
EXTRACT: note_on channel=8 note=65 velocity=0 time=0.02361105208333333
EXTRACT: control_change channel=15 control=11 value=110 time=0.018055510416666663
EXTRACT: control_change channel=15 control=11 value=107 time=0.0416665625
EXTRACT: note_on channel=11 note=61 velocity=0 time=0.02083328125
EXTRACT: note_on channel=15 note=61 velocity=0 time=0.013888854166666666
EXTRACT: control_change channel=15 control=11 value=102 time=0.006944427083333333
EXTRACT: control_change channel=15 control=11 value=99 time=0.0416665625
EXTRACT: note_on channel=11 note=49 velocity=0 time=0.008333312499999999
EXTRACT: note_on channel=15 note=56 velocity=0 time=0.013888854166666666
EXTRACT: note_on channel=3 note=66 velocity=111 time=0
EXTRACT: note_on channel=2 note=56 velocity=52 time=0.0013888854166666665
EXTRACT: note_on channel=2 note=61 velocity=63 time=0
EXTRACT: note_on channel=9 note=46 velocity=81 time=0
EXTRACT: note_on channel=9 note=54 velocity=52 time=0
EXTRACT: note_on channel=15 note=56 velocity=51 time=0
EXTRACT: note_on channel=15 note=61 velocity=60 time=0
EXTRACT: note_on channel=8 note=65 velocity=87 time=0.0013888854166666665
EXTRACT: note_on channel=9 note=39 velocity=110 time=0.0013888854166666665
EXTRACT: note_on channel=11 note=56 velocity=82 time=0
EXTRACT: control_change channel=15 control=11 value=94 time=0.004166656249999999
EXTRACT: note_on channel=2 note=56 velocity=0 time=0.002777770833333333
EXTRACT: note_on channel=9 note=85 velocity=72 time=0
EXTRACT: note_on channel=9 note=28 velocity=97 time=0
EXTRACT: note_on channel=2 note=61 velocity=0 time=0.015277739583333332
EXTRACT: note_on channel=9 note=46 velocity=0 time=0.005555541666666666
EXTRACT: note_on channel=9 note=54 velocity=0 time=0.0013888854166666665
EXTRACT: note_on channel=9 note=39 velocity=0 time=0.002777770833333333
EXTRACT: note_on channel=9 note=85 velocity=0 time=0.006944427083333333
EXTRACT: note_on channel=9 note=28 velocity=0 time=0
EXTRACT: note_on channel=9 note=85 velocity=127 time=0.009722197916666666
EXTRACT: control_change channel=15 control=11 value=91 time=0.004166656249999999
EXTRACT: note_on channel=1 note=25 velocity=0 time=0.016666624999999997
EXTRACT: note_on channel=9 note=85 velocity=0 time=0.011111083333333332
EXTRACT: note_on channel=8 note=65 velocity=0 time=0.06249984374999999
EXTRACT: note_on channel=8 note=66 velocity=73 time=0.008333312499999999
EXTRACT: note_on channel=8 note=61 velocity=0 time=0.08472201041666666
EXTRACT: note_on channel=3 note=66 velocity=0 time=0.015277739583333332
EXTRACT: note_on channel=15 note=56 velocity=0 time=0.016666624999999997
EXTRACT: control_change channel=15 control=11 value=126 time=0.02777770833333333
EXTRACT: note_on channel=15 note=61 velocity=0 time=0.022222166666666664
EXTRACT: note_on channel=3 note=68 velocity=111 time=0
EXTRACT: note_on channel=1 note=25 velocity=115 time=0.006944427083333333
EXTRACT: note_on channel=2 note=49 velocity=53 time=0
EXTRACT: note_on channel=9 note=46 velocity=63 time=0
EXTRACT: note_on channel=9 note=35 velocity=116 time=0
EXTRACT: note_on channel=9 note=54 velocity=42 time=0
EXTRACT: note_on channel=15 note=49 velocity=51 time=0
EXTRACT: note_on channel=15 note=49 velocity=0 time=0.004166656249999999
EXTRACT: note_on channel=8 note=61 velocity=75 time=0.002777770833333333
EXTRACT: note_on channel=2 note=56 velocity=61 time=0.008333312499999999
EXTRACT: note_on channel=15 note=56 velocity=58 time=0
EXTRACT: note_on channel=9 note=46 velocity=0 time=0.015277739583333332
EXTRACT: note_on channel=9 note=35 velocity=0 time=0
EXTRACT: note_on channel=9 note=54 velocity=0 time=0
EXTRACT: note_on channel=2 note=56 velocity=0 time=0.011111083333333332
EXTRACT: note_on channel=13 note=73 velocity=0 time=0.14305519791666665
EXTRACT: note_on channel=3 note=68 velocity=0 time=0.02083328125
EXTRACT: note_on channel=15 note=56 velocity=0 time=0.06527761458333332
EXTRACT: control_change channel=2 control=64 value=0 time=0.009722197916666666
EXTRACT: note_on channel=13 note=68 velocity=0 time=0.0013888854166666665
EXTRACT: note_on channel=11 note=56 velocity=0 time=0.009722197916666666
EXTRACT: note_on channel=15 note=39 velocity=55 time=0.013888854166666666
EXTRACT: note_on channel=8 note=66 velocity=0 time=0.0013888854166666665
EXTRACT: note_on channel=13 note=70 velocity=44 time=0.012499968749999998
EXTRACT: note_on channel=13 note=63 velocity=35 time=0.0013888854166666665
EXTRACT: note_on channel=13 note=65 velocity=0 time=0.0013888854166666665
EXTRACT: note_on channel=1 note=25 velocity=0 time=0
EXTRACT: note_on channel=3 note=70 velocity=111 time=0
EXTRACT: note_on channel=9 note=54 velocity=49 time=0.004166656249999999
EXTRACT: note_on channel=1 note=27 velocity=119 time=0.0013888854166666665
EXTRACT: note_on channel=9 note=46 velocity=76 time=0
EXTRACT: note_on channel=9 note=35 velocity=121 time=0
EXTRACT: note_on channel=11 note=51 velocity=70 time=0
EXTRACT: note_on channel=2 note=39 velocity=56 time=0.004166656249999999
EXTRACT: note_on channel=8 note=58 velocity=57 time=0.005555541666666666
EXTRACT: note_on channel=15 note=39 velocity=0 time=0.011111083333333332
EXTRACT: control_change channel=2 control=64 value=100 time=0
EXTRACT: note_on channel=13 note=66 velocity=36 time=0.002777770833333333
EXTRACT: note_on channel=2 note=54 velocity=57 time=0.0013888854166666665
EXTRACT: note_on channel=15 note=54 velocity=54 time=0
EXTRACT: note_on channel=9 note=54 velocity=0 time=0.005555541666666666
EXTRACT: note_on channel=9 note=46 velocity=0 time=0
EXTRACT: note_on channel=9 note=35 velocity=0 time=0
EXTRACT: note_on channel=2 note=54 velocity=0 time=0.011111083333333332
EXTRACT: note_on channel=2 note=58 velocity=57 time=0.004166656249999999
EXTRACT: note_on channel=15 note=58 velocity=54 time=0
EXTRACT: note_on channel=2 note=39 velocity=0 time=0.005555541666666666
EXTRACT: note_on channel=2 note=58 velocity=0 time=0.011111083333333332
EXTRACT: note_on channel=15 note=54 velocity=0 time=0.14583296874999999
EXTRACT: note_on channel=3 note=70 velocity=0 time=0.030555479166666663
EXTRACT: note_on channel=8 note=61 velocity=0 time=0.05277764583333333
EXTRACT: note_on channel=15 note=58 velocity=0 time=0.03749990625
EXTRACT: note_on channel=3 note=70 velocity=110 time=0
EXTRACT: note_on channel=9 note=46 velocity=64 time=0.002777770833333333
EXTRACT: note_on channel=9 note=54 velocity=34 time=0
EXTRACT: note_on channel=11 note=61 velocity=67 time=0
EXTRACT: note_on channel=8 note=66 velocity=75 time=0.004166656249999999
EXTRACT: note_on channel=2 note=54 velocity=51 time=0.002777770833333333
EXTRACT: note_on channel=15 note=54 velocity=49 time=0
EXTRACT: note_on channel=2 note=51 velocity=51 time=0.011111083333333332
EXTRACT: note_on channel=15 note=51 velocity=49 time=0
EXTRACT: note_on channel=2 note=54 velocity=0 time=0.002777770833333333
EXTRACT: note_on channel=2 note=51 velocity=0 time=0.009722197916666666
EXTRACT: note_on channel=9 note=46 velocity=0 time=0
EXTRACT: note_on channel=9 note=54 velocity=0 time=0
EXTRACT: note_on channel=3 note=70 velocity=0 time=0.14861073958333332
EXTRACT: note_on channel=15 note=54 velocity=0 time=0.038888791666666665
EXTRACT: note_on channel=8 note=58 velocity=0 time=0.0416665625
EXTRACT: note_on channel=1 note=27 velocity=0 time=0.06249984374999999
EXTRACT: note_on channel=11 note=51 velocity=0 time=0
EXTRACT: note_on channel=15 note=51 velocity=0 time=0.006944427083333333
EXTRACT: note_on channel=3 note=70 velocity=110 time=0
EXTRACT: note_on channel=8 note=61 velocity=71 time=0
EXTRACT: note_on channel=9 note=46 velocity=77 time=0.004166656249999999
EXTRACT: note_on channel=9 note=54 velocity=48 time=0
EXTRACT: note_on channel=11 note=54 velocity=76 time=0
EXTRACT: note_on channel=9 note=39 velocity=112 time=0.002777770833333333
EXTRACT: note_on channel=2 note=58 velocity=65 time=0.004166656249999999
EXTRACT: note_on channel=15 note=58 velocity=63 time=0
EXTRACT: note_on channel=9 note=28 velocity=68 time=0.002777770833333333
EXTRACT: note_on channel=9 note=85 velocity=79 time=0.005555541666666666
EXTRACT: note_on channel=2 note=61 velocity=79 time=0.011111083333333332
EXTRACT: note_on channel=15 note=61 velocity=76 time=0
EXTRACT: note_on channel=9 note=46 velocity=0 time=0.004166656249999999
EXTRACT: note_on channel=9 note=54 velocity=0 time=0
EXTRACT: note_on channel=9 note=39 velocity=0 time=0.004166656249999999
EXTRACT: note_on channel=9 note=28 velocity=0 time=0.006944427083333333
EXTRACT: note_on channel=2 note=61 velocity=0 time=0
EXTRACT: note_on channel=9 note=85 velocity=0 time=0.005555541666666666
EXTRACT: note_on channel=2 note=58 velocity=0 time=0.004166656249999999
EXTRACT: note_on channel=9 note=85 velocity=127 time=0.005555541666666666
EXTRACT: note_on channel=9 note=85 velocity=0 time=0.03194436458333333
EXTRACT: control_change channel=15 control=11 value=126 time=0.07777758333333333
EXTRACT: note_on channel=11 note=61 velocity=0 time=0.009722197916666666
EXTRACT: control_change channel=15 control=11 value=123 time=0.03194436458333333
EXTRACT: note_on channel=15 note=58 velocity=0 time=0.009722197916666666
EXTRACT: control_change channel=15 control=11 value=119 time=0.03194436458333333
EXTRACT: note_on channel=3 note=70 velocity=0 time=0.015277739583333332
EXTRACT: control_change channel=15 control=11 value=115 time=0.026388822916666665
EXTRACT: note_on channel=8 note=61 velocity=0 time=0.033333249999999995
EXTRACT: note_on channel=3 note=71 velocity=110 time=0
EXTRACT: note_on channel=15 note=61 velocity=0 time=0.004166656249999999
EXTRACT: note_on channel=8 note=59 velocity=71 time=0
EXTRACT: note_on channel=1 note=34 velocity=121 time=0.004166656249999999
EXTRACT: note_on channel=9 note=46 velocity=53 time=0
EXTRACT: note_on channel=9 note=54 velocity=38 time=0
EXTRACT: note_on channel=9 note=35 velocity=110 time=0
EXTRACT: note_on channel=11 note=61 velocity=68 time=0
EXTRACT: control_change channel=15 control=11 value=110 time=0
EXTRACT: note_on channel=2 note=54 velocity=65 time=0.006944427083333333
EXTRACT: note_on channel=15 note=54 velocity=62 time=0
EXTRACT: note_on channel=9 note=46 velocity=0 time=0.02361105208333333
EXTRACT: note_on channel=9 note=54 velocity=0 time=0
EXTRACT: note_on channel=9 note=35 velocity=0 time=0
EXTRACT: control_change channel=15 control=11 value=106 time=0.011111083333333332
EXTRACT: note_on channel=2 note=54 velocity=0 time=0.009722197916666666
EXTRACT: control_change channel=15 control=11 value=102 time=0.03194436458333333
EXTRACT: control_change channel=15 control=11 value=98 time=0.0416665625
EXTRACT: note_on channel=8 note=66 velocity=0 time=0.02777770833333333
EXTRACT: control_change channel=15 control=11 value=95 time=0.013888854166666666
EXTRACT: control_change channel=15 control=11 value=90 time=0.048610989583333326
EXTRACT: note_on channel=3 note=71 velocity=0 time=0.012499968749999998
EXTRACT: note_on channel=13 note=70 velocity=0 time=0.026388822916666665
EXTRACT: note_on channel=11 note=54 velocity=0 time=0.03194436458333333
EXTRACT: note_on channel=15 note=54 velocity=0 time=0.005555541666666666
EXTRACT: note_on channel=13 note=71 velocity=43 time=0.018055510416666663
EXTRACT: control_change channel=2 control=64 value=0 time=0.002777770833333333
EXTRACT: note_on channel=1 note=34 velocity=0 time=0.009722197916666666
EXTRACT: note_on channel=11 note=61 velocity=0 time=0
EXTRACT: note_on channel=3 note=70 velocity=110 time=0
EXTRACT: note_on channel=8 note=66 velocity=68 time=0
EXTRACT: note_on channel=1 note=35 velocity=121 time=0.004166656249999999
EXTRACT: note_on channel=9 note=46 velocity=75 time=0
EXTRACT: note_on channel=9 note=35 velocity=120 time=0
EXTRACT: note_on channel=9 note=54 velocity=50 time=0
EXTRACT: note_on channel=11 note=59 velocity=79 time=0
EXTRACT: control_change channel=15 control=11 value=126 time=0
EXTRACT: note_on channel=2 note=47 velocity=69 time=0.004166656249999999
EXTRACT: note_on channel=15 note=47 velocity=66 time=0
EXTRACT: control_change channel=2 control=64 value=100 time=0.005555541666666666
EXTRACT: note_on channel=2 note=59 velocity=69 time=0.004166656249999999
EXTRACT: note_on channel=15 note=59 velocity=66 time=0
EXTRACT: note_on channel=9 note=46 velocity=0 time=0.016666624999999997
EXTRACT: note_on channel=9 note=35 velocity=0 time=0
EXTRACT: note_on channel=9 note=54 velocity=0 time=0
EXTRACT: note_on channel=2 note=59 velocity=0 time=0.03194436458333333
EXTRACT: note_on channel=2 note=47 velocity=0 time=0.030555479166666663
EXTRACT: note_on channel=3 note=70 velocity=0 time=0.0416665625
EXTRACT: note_on channel=3 note=68 velocity=111 time=0.03749990625
EXTRACT: note_on channel=15 note=47 velocity=0 time=0.05694430208333333
EXTRACT: note_on channel=8 note=59 velocity=0 time=0.030555479166666663
EXTRACT: note_on channel=15 note=59 velocity=0 time=0.03194436458333333
EXTRACT: note_on channel=3 note=68 velocity=0 time=0
EXTRACT: note_on channel=11 note=59 velocity=0 time=0.019444395833333333
EXTRACT: note_on channel=8 note=59 velocity=63 time=0.016666624999999997
EXTRACT: note_on channel=3 note=66 velocity=110 time=0.0013888854166666665
EXTRACT: note_on channel=11 note=61 velocity=79 time=0.002777770833333333
EXTRACT: note_on channel=9 note=46 velocity=50 time=0.0013888854166666665
EXTRACT: note_on channel=9 note=54 velocity=37 time=0
EXTRACT: note_on channel=2 note=51 velocity=47 time=0.006944427083333333
EXTRACT: note_on channel=15 note=51 velocity=45 time=0
EXTRACT: note_on channel=2 note=54 velocity=47 time=0.011111083333333332
EXTRACT: note_on channel=15 note=54 velocity=44 time=0
EXTRACT: note_on channel=9 note=46 velocity=0 time=0.012499968749999998
EXTRACT: note_on channel=9 note=54 velocity=0 time=0
EXTRACT: note_on channel=2 note=51 velocity=0 time=0.02083328125
EXTRACT: note_on channel=2 note=54 velocity=0 time=0.011111083333333332
EXTRACT: note_on channel=3 note=66 velocity=0 time=0.16666625
EXTRACT: note_on channel=8 note=66 velocity=0 time=0.030555479166666663
EXTRACT: note_on channel=15 note=51 velocity=0 time=0.011111083333333332
EXTRACT: note_on channel=15 note=54 velocity=0 time=0.04722210416666666
EXTRACT: note_on channel=1 note=35 velocity=0 time=0.004166656249999999
EXTRACT: note_on channel=8 note=66 velocity=70 time=0.006944427083333333
EXTRACT: note_on channel=2 note=54 velocity=75 time=0.0013888854166666665
EXTRACT: note_on channel=15 note=54 velocity=72 time=0
EXTRACT: note_on channel=11 note=61 velocity=0 time=0.002777770833333333
EXTRACT: note_on channel=9 note=46 velocity=75 time=0
EXTRACT: note_on channel=9 note=54 velocity=51 time=0
EXTRACT: note_on channel=11 note=59 velocity=78 time=0
EXTRACT: note_on channel=9 note=39 velocity=114 time=0.002777770833333333
EXTRACT: note_on channel=2 note=59 velocity=79 time=0.002777770833333333
EXTRACT: note_on channel=15 note=59 velocity=77 time=0
EXTRACT: note_on channel=9 note=28 velocity=73 time=0.004166656249999999
EXTRACT: note_on channel=9 note=85 velocity=73 time=0.005555541666666666
EXTRACT: note_on channel=2 note=59 velocity=0 time=0.005555541666666666
EXTRACT: note_on channel=2 note=54 velocity=0 time=0.009722197916666666
EXTRACT: note_on channel=9 note=46 velocity=0 time=0
EXTRACT: note_on channel=9 note=54 velocity=0 time=0
EXTRACT: note_on channel=9 note=39 velocity=0 time=0.004166656249999999
EXTRACT: note_on channel=9 note=28 velocity=0 time=0.006944427083333333
EXTRACT: note_on channel=9 note=85 velocity=0 time=0.005555541666666666
EXTRACT: note_on channel=9 note=85 velocity=127 time=0.009722197916666666
EXTRACT: note_on channel=9 note=85 velocity=0 time=0.03194436458333333
EXTRACT: control_change channel=15 control=11 value=127 time=0.04999987499999999
EXTRACT: control_change channel=15 control=11 value=123 time=0.0416665625
EXTRACT: note_on channel=15 note=54 velocity=0 time=0.006944427083333333
EXTRACT: control_change channel=15 control=11 value=118 time=0.03472213541666666
EXTRACT: note_on channel=8 note=59 velocity=0 time=0.006944427083333333
EXTRACT: control_change channel=15 control=11 value=114 time=0.03472213541666666
EXTRACT: control_change channel=15 control=11 value=111 time=0.0416665625
EXTRACT: note_on channel=15 note=59 velocity=0 time=0.02361105208333333
EXTRACT: note_on channel=8 note=59 velocity=70 time=0
EXTRACT: note_on channel=9 note=54 velocity=35 time=0.002777770833333333
EXTRACT: note_on channel=1 note=35 velocity=121 time=0.0013888854166666665
EXTRACT: note_on channel=9 note=46 velocity=59 time=0
EXTRACT: note_on channel=9 note=35 velocity=113 time=0
EXTRACT: note_on channel=3 note=66 velocity=110 time=0
EXTRACT: note_on channel=11 note=54 velocity=54 time=0.004166656249999999
EXTRACT: note_on channel=2 note=49 velocity=39 time=0.0013888854166666665
EXTRACT: note_on channel=15 note=49 velocity=37 time=0
EXTRACT: control_change channel=15 control=11 value=106 time=0.006944427083333333
EXTRACT: note_on channel=2 note=54 velocity=75 time=0.004166656249999999
EXTRACT: note_on channel=15 note=54 velocity=72 time=0
EXTRACT: note_on channel=9 note=54 velocity=0 time=0.012499968749999998
EXTRACT: note_on channel=9 note=46 velocity=0 time=0
EXTRACT: note_on channel=9 note=35 velocity=0 time=0
EXTRACT: note_on channel=2 note=54 velocity=0 time=0.02083328125
EXTRACT: note_on channel=2 note=49 velocity=0 time=0
EXTRACT: control_change channel=15 control=11 value=102 time=0.004166656249999999
EXTRACT: control_change channel=15 control=11 value=99 time=0.0416665625
EXTRACT: control_change channel=15 control=11 value=95 time=0.0416665625
EXTRACT: note_on channel=1 note=35 velocity=0 time=0.016666624999999997
EXTRACT: control_change channel=15 control=11 value=90 time=0.03194436458333333
EXTRACT: note_on channel=3 note=66 velocity=0 time=0.0416665625
EXTRACT: note_on channel=13 note=63 velocity=0 time=0.013888854166666666
EXTRACT: note_on channel=15 note=49 velocity=0 time=0.016666624999999997
EXTRACT: note_on channel=13 note=66 velocity=0 time=0.024999937499999996
EXTRACT: note_on channel=11 note=59 velocity=0 time=0.015277739583333332
EXTRACT: control_change channel=15 control=11 value=127 time=0.005555541666666666
EXTRACT: note_on channel=13 note=71 velocity=0 time=0.004166656249999999
EXTRACT: note_on channel=8 note=59 velocity=0 time=0.002777770833333333
EXTRACT: control_change channel=2 control=64 value=0 time=0
EXTRACT: note_on channel=11 note=54 velocity=0 time=0.005555541666666666
EXTRACT: note_on channel=13 note=70 velocity=42 time=0.0013888854166666665
EXTRACT: note_on channel=3 note=70 velocity=111 time=0
EXTRACT: note_on channel=15 note=54 velocity=0 time=0.004166656249999999
EXTRACT: note_on channel=13 note=66 velocity=32 time=0.004166656249999999
EXTRACT: note_on channel=8 note=66 velocity=0 time=0.004166656249999999
EXTRACT: note_on channel=8 note=61 velocity=69 time=0
EXTRACT: note_on channel=9 note=46 velocity=77 time=0
EXTRACT: note_on channel=9 note=54 velocity=51 time=0
EXTRACT: note_on channel=9 note=35 velocity=125 time=0
EXTRACT: note_on channel=13 note=61 velocity=31 time=0.0013888854166666665
EXTRACT: note_on channel=2 note=42 velocity=61 time=0.002777770833333333
EXTRACT: note_on channel=15 note=42 velocity=58 time=0
EXTRACT: note_on channel=11 note=54 velocity=73 time=0.0013888854166666665
EXTRACT: note_on channel=1 note=30 velocity=123 time=0.0013888854166666665
EXTRACT: note_on channel=2 note=58 velocity=53 time=0.011111083333333332
EXTRACT: note_on channel=15 note=58 velocity=51 time=0
EXTRACT: note_on channel=2 note=61 velocity=53 time=0.009722197916666666
EXTRACT: note_on channel=15 note=61 velocity=50 time=0
EXTRACT: note_on channel=2 note=58 velocity=0 time=0.002777770833333333
EXTRACT: note_on channel=9 note=46 velocity=0 time=0
EXTRACT: note_on channel=9 note=54 velocity=0 time=0
EXTRACT: note_on channel=9 note=35 velocity=0 time=0
EXTRACT: control_change channel=2 control=64 value=100 time=0
EXTRACT: note_on channel=2 note=61 velocity=0 time=0.011111083333333332
EXTRACT: note_on channel=2 note=42 velocity=0 time=0.0416665625
EXTRACT: note_on channel=15 note=42 velocity=0 time=0
EXTRACT: note_on channel=15 note=58 velocity=0 time=0.11388860416666666
EXTRACT: note_on channel=3 note=70 velocity=0 time=0.0416665625
EXTRACT: note_on channel=15 note=61 velocity=0 time=0.07916646875
EXTRACT: note_on channel=3 note=70 velocity=111 time=0
EXTRACT: note_on channel=8 note=66 velocity=74 time=0.005555541666666666
EXTRACT: note_on channel=2 note=49 velocity=53 time=0
EXTRACT: note_on channel=15 note=49 velocity=50 time=0
EXTRACT: note_on channel=9 note=46 velocity=57 time=0.002777770833333333
EXTRACT: note_on channel=9 note=54 velocity=32 time=0
EXTRACT: note_on channel=2 note=54 velocity=53 time=0.006944427083333333
EXTRACT: note_on channel=11 note=58 velocity=78 time=0
EXTRACT: note_on channel=15 note=54 velocity=51 time=0
EXTRACT: note_on channel=2 note=49 velocity=0 time=0.002777770833333333
EXTRACT: note_on channel=2 note=54 velocity=0 time=0.011111083333333332
EXTRACT: note_on channel=9 note=46 velocity=0 time=0.009722197916666666
EXTRACT: note_on channel=9 note=54 velocity=0 time=0
EXTRACT: note_on channel=8 note=61 velocity=0 time=0.12083303124999999
EXTRACT: note_on channel=3 note=70 velocity=0 time=0.015277739583333332
EXTRACT: note_on channel=15 note=49 velocity=0 time=0.06249984374999999
EXTRACT: note_on channel=11 note=54 velocity=0 time=0.06249984374999999
EXTRACT: note_on channel=15 note=54 velocity=0 time=0
EXTRACT: note_on channel=1 note=30 velocity=0 time=0.009722197916666666
EXTRACT: note_on channel=8 note=61 velocity=71 time=0.02777770833333333
EXTRACT: note_on channel=9 note=46 velocity=81 time=0.004166656249999999
EXTRACT: note_on channel=9 note=54 velocity=51 time=0
EXTRACT: note_on channel=11 note=54 velocity=72 time=0.0013888854166666665
EXTRACT: note_on channel=9 note=39 velocity=115 time=0.0013888854166666665
EXTRACT: note_on channel=9 note=85 velocity=79 time=0.006944427083333333
EXTRACT: note_on channel=9 note=28 velocity=73 time=0
EXTRACT: note_on channel=2 note=58 velocity=55 time=0
EXTRACT: note_on channel=3 note=70 velocity=110 time=0
EXTRACT: note_on channel=15 note=58 velocity=53 time=0
EXTRACT: note_on channel=2 note=54 velocity=73 time=0.002777770833333333
EXTRACT: note_on channel=15 note=54 velocity=70 time=0
EXTRACT: note_on channel=9 note=46 velocity=0 time=0.012499968749999998
EXTRACT: note_on channel=9 note=54 velocity=0 time=0.0013888854166666665
EXTRACT: note_on channel=9 note=39 velocity=0 time=0.002777770833333333
EXTRACT: note_on channel=9 note=85 velocity=0 time=0.006944427083333333
EXTRACT: note_on channel=9 note=28 velocity=0 time=0
EXTRACT: note_on channel=2 note=54 velocity=0 time=0.009722197916666666
EXTRACT: note_on channel=9 note=85 velocity=127 time=0
EXTRACT: note_on channel=2 note=58 velocity=0 time=0.03194436458333333
EXTRACT: note_on channel=9 note=85 velocity=0 time=0
EXTRACT: control_change channel=15 control=11 value=127 time=0.06249984374999999
EXTRACT: control_change channel=15 control=11 value=122 time=0.0416665625
EXTRACT: note_on channel=15 note=58 velocity=0 time=0.030555479166666663
EXTRACT: control_change channel=15 control=11 value=119 time=0.011111083333333332
EXTRACT: note_on channel=8 note=66 velocity=0 time=0.005555541666666666
EXTRACT: control_change channel=15 control=11 value=115 time=0.03611102083333333
EXTRACT: note_on channel=15 note=54 velocity=0 time=0.009722197916666666
EXTRACT: note_on channel=3 note=70 velocity=0 time=0
EXTRACT: note_on channel=11 note=54 velocity=0 time=0.013888854166666666
EXTRACT: note_on channel=11 note=58 velocity=0 time=0.006944427083333333
EXTRACT: control_change channel=15 control=11 value=111 time=0.011111083333333332
EXTRACT: note_on channel=1 note=30 velocity=103 time=0.02083328125
EXTRACT: note_on channel=8 note=65 velocity=70 time=0
EXTRACT: note_on channel=9 note=46 velocity=61 time=0
EXTRACT: note_on channel=9 note=35 velocity=113 time=0
EXTRACT: note_on channel=9 note=54 velocity=37 time=0
EXTRACT: note_on channel=11 note=61 velocity=73 time=0.0013888854166666665
EXTRACT: note_on channel=2 note=54 velocity=72 time=0
EXTRACT: note_on channel=3 note=70 velocity=110 time=0
EXTRACT: note_on channel=15 note=54 velocity=71 time=0
EXTRACT: control_change channel=15 control=11 value=107 time=0.013888854166666666
EXTRACT: note_on channel=9 note=46 velocity=0 time=0.009722197916666666
EXTRACT: note_on channel=9 note=35 velocity=0 time=0
EXTRACT: note_on channel=9 note=54 velocity=0 time=0
EXTRACT: note_on channel=2 note=54 velocity=0 time=0.011111083333333332
EXTRACT: control_change channel=15 control=11 value=103 time=0.02083328125
EXTRACT: control_change channel=15 control=11 value=99 time=0.0416665625
EXTRACT: control_change channel=15 control=11 value=95 time=0.0416665625
EXTRACT: control_change channel=15 control=11 value=91 time=0.048610989583333326
EXTRACT: note_on channel=3 note=70 velocity=0 time=0.02361105208333333
EXTRACT: note_on channel=13 note=70 velocity=0 time=0.07777758333333333
EXTRACT: control_change channel=2 control=64 value=0 time=0.005555541666666666
EXTRACT: note_on channel=13 note=68 velocity=38 time=0.004166656249999999
EXTRACT: note_on channel=13 note=66 velocity=0 time=0.002777770833333333
EXTRACT: control_change channel=15 control=11 value=127 time=0.004166656249999999
EXTRACT: note_on channel=15 note=54 velocity=0 time=0.008333312499999999
EXTRACT: note_on channel=1 note=30 velocity=0 time=0.0013888854166666665
EXTRACT: note_on channel=11 note=49 velocity=73 time=0.004166656249999999
EXTRACT: note_on channel=1 note=25 velocity=123 time=0.006944427083333333
EXTRACT: note_on channel=2 note=49 velocity=61 time=0
EXTRACT: note_on channel=2 note=56 velocity=58 time=0
EXTRACT: note_on channel=2 note=61 velocity=78 time=0
EXTRACT: note_on channel=9 note=46 velocity=81 time=0
EXTRACT: note_on channel=9 note=35 velocity=121 time=0
EXTRACT: note_on channel=9 note=54 velocity=53 time=0
EXTRACT: note_on channel=15 note=49 velocity=59 time=0
EXTRACT: note_on channel=15 note=56 velocity=56 time=0
EXTRACT: note_on channel=13 note=65 velocity=35 time=0.012499968749999998
EXTRACT: control_change channel=2 control=64 value=100 time=0.008333312499999999
EXTRACT: note_on channel=2 note=61 velocity=0 time=0.004166656249999999
EXTRACT: note_on channel=9 note=46 velocity=0 time=0.005555541666666666
EXTRACT: note_on channel=9 note=35 velocity=0 time=0
EXTRACT: note_on channel=9 note=54 velocity=0 time=0.0013888854166666665
EXTRACT: note_on channel=2 note=49 velocity=0 time=0.030555479166666663
EXTRACT: note_on channel=8 note=61 velocity=0 time=0.17638844791666664
EXTRACT: note_on channel=15 note=49 velocity=0 time=0.08194423958333333
EXTRACT: note_on channel=15 note=56 velocity=0 time=0
EXTRACT: note_on channel=3 note=73 velocity=111 time=0
EXTRACT: note_on channel=2 note=56 velocity=58 time=0.0013888854166666665
EXTRACT: note_on channel=2 note=61 velocity=79 time=0
EXTRACT: note_on channel=8 note=61 velocity=71 time=0
EXTRACT: note_on channel=9 note=46 velocity=61 time=0
EXTRACT: note_on channel=9 note=54 velocity=42 time=0
EXTRACT: note_on channel=15 note=56 velocity=57 time=0
EXTRACT: note_on channel=15 note=61 velocity=77 time=0
EXTRACT: note_on channel=2 note=61 velocity=0 time=0.024999937499999996
EXTRACT: note_on channel=9 note=46 velocity=0 time=0.005555541666666666
EXTRACT: note_on channel=9 note=54 velocity=0 time=0
EXTRACT: note_on channel=8 note=65 velocity=0 time=0.12499968749999998
EXTRACT: note_on channel=3 note=73 velocity=0 time=0
EXTRACT: note_on channel=3 note=70 velocity=110 time=0
EXTRACT: note_on channel=11 note=61 velocity=0 time=0.04305544791666666
EXTRACT: note_on channel=11 note=49 velocity=0 time=0.07083315624999999
EXTRACT: note_on channel=1 note=25 velocity=0 time=0.015277739583333332
EXTRACT: note_on channel=3 note=70 velocity=0 time=0
EXTRACT: note_on channel=15 note=56 velocity=0 time=0.006944427083333333
EXTRACT: note_on channel=15 note=61 velocity=0 time=0
EXTRACT: note_on channel=9 note=46 velocity=80 time=0.004166656249999999
EXTRACT: note_on channel=9 note=54 velocity=52 time=0
EXTRACT: note_on channel=9 note=39 velocity=113 time=0.002777770833333333
EXTRACT: note_on channel=11 note=56 velocity=82 time=0
EXTRACT: note_on channel=3 note=68 velocity=110 time=0
EXTRACT: note_on channel=2 note=49 velocity=47 time=0.0013888854166666665
EXTRACT: note_on channel=15 note=49 velocity=45 time=0
EXTRACT: note_on channel=9 note=85 velocity=72 time=0.002777770833333333
EXTRACT: note_on channel=9 note=28 velocity=69 time=0
EXTRACT: note_on channel=8 note=65 velocity=88 time=0.0013888854166666665
EXTRACT: note_on channel=9 note=46 velocity=0 time=0.019444395833333333
EXTRACT: note_on channel=2 note=49 velocity=0 time=0
EXTRACT: note_on channel=9 note=54 velocity=0 time=0.0013888854166666665
EXTRACT: note_on channel=9 note=39 velocity=0 time=0.002777770833333333
EXTRACT: note_on channel=9 note=85 velocity=0 time=0.006944427083333333
EXTRACT: note_on channel=9 note=28 velocity=0 time=0
EXTRACT: note_on channel=9 note=85 velocity=126 time=0.009722197916666666
EXTRACT: note_on channel=9 note=85 velocity=0 time=0.03194436458333333
EXTRACT: control_change channel=15 control=11 value=127 time=0.03472213541666666
EXTRACT: note_on channel=8 note=65 velocity=0 time=0.02777770833333333
EXTRACT: control_change channel=15 control=11 value=123 time=0.013888854166666666
EXTRACT: note_on channel=8 note=66 velocity=66 time=0.005555541666666666
EXTRACT: control_change channel=15 control=11 value=119 time=0.03611102083333333
EXTRACT: note_on channel=8 note=61 velocity=0 time=0.03749990625
EXTRACT: control_change channel=15 control=11 value=115 time=0.004166656249999999
EXTRACT: note_on channel=3 note=68 velocity=0 time=0.016666624999999997
EXTRACT: control_change channel=15 control=11 value=111 time=0.024999937499999996
EXTRACT: note_on channel=15 note=49 velocity=0 time=0.03611102083333333
EXTRACT: note_on channel=3 note=66 velocity=111 time=0.004166656249999999
EXTRACT: control_change channel=15 control=11 value=107 time=0.0013888854166666665
EXTRACT: note_on channel=1 note=25 velocity=121 time=0.006944427083333333
EXTRACT: note_on channel=2 note=61 velocity=50 time=0
EXTRACT: note_on channel=9 note=46 velocity=60 time=0
EXTRACT: note_on channel=9 note=35 velocity=115 time=0
EXTRACT: note_on channel=9 note=54 velocity=42 time=0
EXTRACT: note_on channel=15 note=61 velocity=49 time=0
EXTRACT: note_on channel=2 note=56 velocity=51 time=0.006944427083333333
EXTRACT: note_on channel=15 note=56 velocity=49 time=0
EXTRACT: note_on channel=9 note=46 velocity=0 time=0.02361105208333333
EXTRACT: note_on channel=9 note=35 velocity=0 time=0
EXTRACT: note_on channel=9 note=54 velocity=0 time=0
EXTRACT: control_change channel=15 control=11 value=103 time=0.004166656249999999
EXTRACT: note_on channel=2 note=61 velocity=0 time=0.030555479166666663
EXTRACT: note_on channel=2 note=56 velocity=0 time=0.006944427083333333
EXTRACT: control_change channel=15 control=11 value=99 time=0.004166656249999999
EXTRACT: control_change channel=15 control=11 value=95 time=0.0416665625
EXTRACT: control_change channel=15 control=11 value=91 time=0.048610989583333326
EXTRACT: note_on channel=1 note=25 velocity=0 time=0.05138876041666666
EXTRACT: note_on channel=15 note=61 velocity=0 time=0
EXTRACT: control_change channel=2 control=64 value=0 time=0.06249984374999999
EXTRACT: note_on channel=13 note=68 velocity=0 time=0.0013888854166666665
EXTRACT: note_on channel=13 note=61 velocity=0 time=0.002777770833333333
EXTRACT: note_on channel=11 note=56 velocity=0 time=0.006944427083333333
EXTRACT: note_on channel=15 note=56 velocity=0 time=0.019444395833333333
EXTRACT: note_on channel=8 note=66 velocity=0 time=0.0013888854166666665
EXTRACT: note_on channel=13 note=65 velocity=0 time=0.009722197916666666
EXTRACT: note_on channel=2 note=51 velocity=56 time=0
EXTRACT: note_on channel=15 note=51 velocity=55 time=0
EXTRACT: control_change channel=15 control=11 value=127 time=0.004166656249999999
EXTRACT: note_on channel=9 note=54 velocity=49 time=0.005555541666666666
EXTRACT: note_on channel=1 note=27 velocity=119 time=0.0013888854166666665
EXTRACT: note_on channel=9 note=46 velocity=77 time=0
EXTRACT: note_on channel=9 note=35 velocity=121 time=0
EXTRACT: note_on channel=8 note=58 velocity=57 time=0.009722197916666666
EXTRACT: note_on channel=13 note=70 velocity=45 time=0.004166656249999999
EXTRACT: note_on channel=13 note=63 velocity=35 time=0.0013888854166666665
EXTRACT: note_on channel=2 note=58 velocity=50 time=0.002777770833333333
EXTRACT: note_on channel=15 note=58 velocity=49 time=0
EXTRACT: control_change channel=2 control=64 value=100 time=0.002777770833333333
EXTRACT: note_on channel=11 note=51 velocity=71 time=0.006944427083333333
EXTRACT: note_on channel=9 note=54 velocity=0 time=0.002777770833333333
EXTRACT: note_on channel=9 note=46 velocity=0 time=0
EXTRACT: note_on channel=9 note=35 velocity=0 time=0
EXTRACT: note_on channel=2 note=51 velocity=0 time=0.011111083333333332
EXTRACT: note_on channel=13 note=66 velocity=36 time=0.009722197916666666
EXTRACT: note_on channel=2 note=58 velocity=0 time=0.03194436458333333
EXTRACT: note_on channel=3 note=66 velocity=0 time=0.17638844791666664
EXTRACT: note_on channel=15 note=51 velocity=0 time=0
EXTRACT: note_on channel=3 note=63 velocity=111 time=0.05972207291666666
EXTRACT: note_on channel=15 note=58 velocity=0 time=0.005555541666666666
EXTRACT: note_on channel=9 note=46 velocity=64 time=0.008333312499999999
EXTRACT: note_on channel=9 note=54 velocity=34 time=0
EXTRACT: note_on channel=2 note=54 velocity=51 time=0.002777770833333333
EXTRACT: note_on channel=15 note=54 velocity=49 time=0
EXTRACT: note_on channel=8 note=66 velocity=75 time=0.0013888854166666665
EXTRACT: note_on channel=2 note=54 velocity=0 time=0.012499968749999998
EXTRACT: note_on channel=2 note=51 velocity=47 time=0.006944427083333333
EXTRACT: note_on channel=15 note=51 velocity=45 time=0
EXTRACT: note_on channel=11 note=61 velocity=67 time=0.004166656249999999
EXTRACT: note_on channel=9 note=46 velocity=0 time=0.002777770833333333
EXTRACT: note_on channel=9 note=54 velocity=0 time=0
EXTRACT: note_on channel=2 note=51 velocity=0 time=0.006944427083333333
EXTRACT: note_on channel=3 note=63 velocity=0 time=0.12916634375
EXTRACT: note_on channel=3 note=61 velocity=110 time=0.004166656249999999
EXTRACT: note_on channel=8 note=58 velocity=0 time=0.08888866666666666
EXTRACT: note_on channel=15 note=54 velocity=0 time=0
EXTRACT: note_on channel=1 note=27 velocity=0 time=0.06249984374999999
EXTRACT: note_on channel=8 note=61 velocity=71 time=0.006944427083333333
EXTRACT: note_on channel=9 note=46 velocity=76 time=0.004166656249999999
EXTRACT: note_on channel=9 note=54 velocity=48 time=0
EXTRACT: note_on channel=15 note=51 velocity=0 time=0.0013888854166666665
EXTRACT: note_on channel=9 note=39 velocity=113 time=0.0013888854166666665
EXTRACT: note_on channel=9 note=28 velocity=68 time=0.006944427083333333
EXTRACT: note_on channel=2 note=54 velocity=65 time=0.004166656249999999
EXTRACT: note_on channel=15 note=54 velocity=63 time=0
EXTRACT: note_on channel=9 note=85 velocity=78 time=0.0013888854166666665
EXTRACT: note_on channel=11 note=51 velocity=0 time=0.0013888854166666665
EXTRACT: note_on channel=2 note=61 velocity=78 time=0.004166656249999999
EXTRACT: note_on channel=15 note=61 velocity=77 time=0
EXTRACT: note_on channel=11 note=54 velocity=76 time=0.006944427083333333
EXTRACT: note_on channel=9 note=46 velocity=0 time=0.002777770833333333
EXTRACT: note_on channel=9 note=54 velocity=0 time=0
EXTRACT: note_on channel=9 note=39 velocity=0 time=0.004166656249999999
EXTRACT: note_on channel=2 note=61 velocity=0 time=0.002777770833333333
EXTRACT: note_on channel=9 note=28 velocity=0 time=0.004166656249999999
EXTRACT: note_on channel=9 note=85 velocity=0 time=0.005555541666666666
EXTRACT: note_on channel=9 note=85 velocity=127 time=0.009722197916666666
EXTRACT: note_on channel=2 note=54 velocity=0 time=0.0013888854166666665
EXTRACT: note_on channel=9 note=85 velocity=0 time=0.030555479166666663
EXTRACT: control_change channel=15 control=11 value=127 time=0.07777758333333333
EXTRACT: note_on channel=11 note=61 velocity=0 time=0.03749990625
EXTRACT: control_change channel=15 control=11 value=123 time=0.004166656249999999
EXTRACT: control_change channel=6 control=11 value=88 time=0.0416665625
EXTRACT: control_change channel=15 control=11 value=118 time=0
EXTRACT: note_on channel=15 note=54 velocity=0 time=0.0416665625
EXTRACT: control_change channel=15 control=11 value=115 time=0
EXTRACT: note_on channel=15 note=61 velocity=0 time=0.022222166666666664
EXTRACT: note_on channel=8 note=61 velocity=0 time=0.011111083333333332
EXTRACT: note_on channel=2 note=58 velocity=64 time=0.0013888854166666665
EXTRACT: note_on channel=15 note=58 velocity=63 time=0
EXTRACT: note_on channel=8 note=59 velocity=70 time=0.002777770833333333
EXTRACT: note_on channel=1 note=34 velocity=121 time=0.004166656249999999
EXTRACT: note_on channel=6 note=58 velocity=98 time=0
EXTRACT: note_on channel=9 note=46 velocity=53 time=0
EXTRACT: note_on channel=9 note=54 velocity=38 time=0
EXTRACT: note_on channel=9 note=35 velocity=110 time=0
EXTRACT: control_change channel=6 control=11 value=91 time=0
EXTRACT: control_change channel=15 control=11 value=110 time=0
EXTRACT: note_on channel=2 note=54 velocity=64 time=0.013888854166666666
EXTRACT: note_on channel=15 note=54 velocity=63 time=0
EXTRACT: note_on channel=11 note=61 velocity=69 time=0.013888854166666666
EXTRACT: note_on channel=9 note=46 velocity=0 time=0.002777770833333333
EXTRACT: note_on channel=9 note=54 velocity=0 time=0
EXTRACT: note_on channel=9 note=35 velocity=0 time=0
EXTRACT: note_on channel=2 note=58 velocity=0 time=0.006944427083333333
EXTRACT: control_change channel=15 control=11 value=106 time=0.004166656249999999
EXTRACT: note_on channel=3 note=61 velocity=0 time=0.012499968749999998
EXTRACT: note_on channel=2 note=54 velocity=0 time=0.004166656249999999
EXTRACT: control_change channel=6 control=11 value=94 time=0.024999937499999996
EXTRACT: control_change channel=15 control=11 value=103 time=0
EXTRACT: control_change channel=15 control=11 value=98 time=0.0416665625
EXTRACT: note_on channel=8 note=66 velocity=0 time=0.02777770833333333
EXTRACT: control_change channel=6 control=11 value=96 time=0.013888854166666666
EXTRACT: control_change channel=15 control=11 value=95 time=0
EXTRACT: control_change channel=15 control=11 value=90 time=0.048610989583333326
EXTRACT: control_change channel=6 control=11 value=99 time=0.03472213541666666
EXTRACT: note_on channel=13 note=70 velocity=0 time=0.03194436458333333
EXTRACT: note_on channel=15 note=58 velocity=0 time=0.009722197916666666
EXTRACT: control_change channel=2 control=64 value=0 time=0.02083328125
EXTRACT: note_on channel=11 note=54 velocity=0 time=0.0013888854166666665
EXTRACT: note_on channel=15 note=54 velocity=0 time=0.006944427083333333
EXTRACT: note_on channel=1 note=34 velocity=0 time=0.0013888854166666665
EXTRACT: note_on channel=6 note=58 velocity=0 time=0
EXTRACT: note_on channel=8 note=66 velocity=68 time=0.006944427083333333
EXTRACT: note_on channel=1 note=35 velocity=121 time=0.004166656249999999
EXTRACT: note_on channel=2 note=47 velocity=68 time=0
EXTRACT: note_on channel=6 note=59 velocity=99 time=0
EXTRACT: note_on channel=6 note=66 velocity=84 time=0
EXTRACT: note_on channel=9 note=46 velocity=74 time=0
EXTRACT: note_on channel=9 note=35 velocity=121 time=0
EXTRACT: note_on channel=9 note=54 velocity=50 time=0
EXTRACT: note_on channel=15 note=47 velocity=67 time=0
EXTRACT: control_change channel=6 control=11 value=101 time=0
EXTRACT: control_change channel=15 control=11 value=127 time=0
EXTRACT: note_on channel=13 note=71 velocity=42 time=0.004166656249999999
EXTRACT: note_on channel=2 note=59 velocity=57 time=0.005555541666666666
EXTRACT: note_on channel=15 note=59 velocity=55 time=0
EXTRACT: control_change channel=2 control=64 value=100 time=0
EXTRACT: note_on channel=11 note=61 velocity=0 time=0.006944427083333333
EXTRACT: note_on channel=2 note=59 velocity=0 time=0.004166656249999999
EXTRACT: note_on channel=11 note=59 velocity=79 time=0.006944427083333333
EXTRACT: note_on channel=9 note=46 velocity=0 time=0.002777770833333333
EXTRACT: note_on channel=9 note=35 velocity=0 time=0
EXTRACT: note_on channel=9 note=54 velocity=0 time=0
EXTRACT: note_on channel=2 note=47 velocity=0 time=0.0416665625
EXTRACT: control_change channel=6 control=11 value=102 time=0.011111083333333332
EXTRACT: control_change channel=6 control=11 value=106 time=0.083333125
EXTRACT: note_on channel=15 note=47 velocity=0 time=0.05138876041666666
EXTRACT: control_change channel=6 control=11 value=109 time=0.03194436458333333
EXTRACT: note_on channel=8 note=59 velocity=0 time=0.009722197916666666
EXTRACT: note_on channel=15 note=59 velocity=0 time=0.06527761458333332
EXTRACT: note_on channel=8 note=59 velocity=62 time=0.002777770833333333
EXTRACT: note_on channel=9 note=46 velocity=51 time=0.005555541666666666
EXTRACT: note_on channel=9 note=54 velocity=37 time=0
EXTRACT: control_change channel=6 control=11 value=110 time=0
EXTRACT: note_on channel=2 note=51 velocity=46 time=0.002777770833333333
EXTRACT: note_on channel=15 note=51 velocity=45 time=0
EXTRACT: note_on channel=11 note=59 velocity=0 time=0.002777770833333333
EXTRACT: note_on channel=2 note=54 velocity=46 time=0.008333312499999999
EXTRACT: note_on channel=15 note=54 velocity=45 time=0
EXTRACT: note_on channel=11 note=61 velocity=79 time=0.012499968749999998
EXTRACT: note_on channel=9 note=46 velocity=0 time=0.004166656249999999
EXTRACT: note_on channel=9 note=54 velocity=0 time=0
EXTRACT: note_on channel=2 note=51 velocity=0 time=0.016666624999999997
EXTRACT: note_on channel=2 note=54 velocity=0 time=0.011111083333333332
EXTRACT: control_change channel=6 control=11 value=112 time=0.024999937499999996
EXTRACT: control_change channel=6 control=11 value=115 time=0.083333125
EXTRACT: note_on channel=15 note=54 velocity=0 time=0.06249984374999999
EXTRACT: control_change channel=6 control=11 value=119 time=0.02083328125
EXTRACT: note_on channel=15 note=51 velocity=0 time=0
EXTRACT: note_on channel=8 note=66 velocity=0 time=0.009722197916666666
EXTRACT: note_on channel=1 note=35 velocity=0 time=0.06249984374999999
EXTRACT: note_on channel=2 note=54 velocity=75 time=0.004166656249999999
EXTRACT: note_on channel=15 note=54 velocity=73 time=0
EXTRACT: note_on channel=8 note=66 velocity=70 time=0.002777770833333333
EXTRACT: note_on channel=2 note=59 velocity=79 time=0.004166656249999999
EXTRACT: note_on channel=9 note=46 velocity=74 time=0
EXTRACT: note_on channel=9 note=54 velocity=51 time=0
EXTRACT: note_on channel=15 note=59 velocity=77 time=0
EXTRACT: control_change channel=6 control=11 value=120 time=0
EXTRACT: note_on channel=9 note=39 velocity=115 time=0.002777770833333333
EXTRACT: note_on channel=9 note=28 velocity=72 time=0.006944427083333333
EXTRACT: note_on channel=9 note=85 velocity=73 time=0.005555541666666666
EXTRACT: note_on channel=2 note=59 velocity=0 time=0.0013888854166666665
EXTRACT: note_on channel=2 note=54 velocity=0 time=0.009722197916666666
EXTRACT: note_on channel=11 note=61 velocity=0 time=0.0013888854166666665
EXTRACT: note_on channel=11 note=59 velocity=79 time=0
EXTRACT: note_on channel=9 note=46 velocity=0 time=0.002777770833333333
EXTRACT: note_on channel=9 note=54 velocity=0 time=0
EXTRACT: note_on channel=9 note=39 velocity=0 time=0.004166656249999999
EXTRACT: note_on channel=9 note=28 velocity=0 time=0.006944427083333333
EXTRACT: note_on channel=9 note=85 velocity=0 time=0.005555541666666666
EXTRACT: note_on channel=9 note=85 velocity=127 time=0.009722197916666666
EXTRACT: control_change channel=6 control=11 value=123 time=0.026388822916666665
EXTRACT: note_on channel=9 note=85 velocity=0 time=0.005555541666666666
EXTRACT: control_change channel=15 control=11 value=126 time=0.04999987499999999
EXTRACT: control_change channel=6 control=11 value=127 time=0.02777770833333333
EXTRACT: control_change channel=15 control=11 value=122 time=0.013888854166666666
EXTRACT: control_change channel=15 control=11 value=119 time=0.0416665625
EXTRACT: note_on channel=8 note=59 velocity=0 time=0.006944427083333333
EXTRACT: note_on channel=15 note=54 velocity=0 time=0.030555479166666663
EXTRACT: control_change channel=15 control=11 value=115 time=0.004166656249999999
EXTRACT: pitchwheel channel=1 pitch=-5120 time=0.026388822916666665
EXTRACT: control_change channel=15 control=11 value=111 time=0.015277739583333332
EXTRACT: note_on channel=15 note=59 velocity=0 time=0.019444395833333333
EXTRACT: note_on channel=8 note=59 velocity=71 time=0.004166656249999999
EXTRACT: note_on channel=9 note=54 velocity=35 time=0.002777770833333333
EXTRACT: note_on channel=1 note=42 velocity=113 time=0.0013888854166666665
EXTRACT: note_on channel=9 note=46 velocity=59 time=0
EXTRACT: note_on channel=9 note=35 velocity=113 time=0
EXTRACT: note_on channel=2 note=49 velocity=38 time=0.002777770833333333
EXTRACT: note_on channel=2 note=54 velocity=38 time=0
EXTRACT: note_on channel=15 note=49 velocity=37 time=0
EXTRACT: note_on channel=15 note=54 velocity=37 time=0
EXTRACT: control_change channel=15 control=11 value=106 time=0.011111083333333332
EXTRACT: note_on channel=9 note=54 velocity=0 time=0.016666624999999997
EXTRACT: note_on channel=9 note=46 velocity=0 time=0
EXTRACT: note_on channel=9 note=35 velocity=0 time=0
EXTRACT: note_on channel=11 note=54 velocity=55 time=0.002777770833333333
EXTRACT: note_on channel=2 note=49 velocity=0 time=0.013888854166666666
EXTRACT: note_on channel=2 note=54 velocity=0 time=0
EXTRACT: control_change channel=15 control=11 value=102 time=0.008333312499999999
EXTRACT: control_change channel=15 control=11 value=98 time=0.0416665625
EXTRACT: pitchwheel channel=1 pitch=-3720 time=0.03749990625
EXTRACT: control_change channel=15 control=11 value=94 time=0.004166656249999999
EXTRACT: pitchwheel channel=1 pitch=-3066 time=0.009722197916666666
EXTRACT: pitchwheel channel=1 pitch=-2420 time=0.015277739583333332
EXTRACT: pitchwheel channel=1 pitch=-1765 time=0.012499968749999998
EXTRACT: pitchwheel channel=1 pitch=-1103 time=0.016666624999999997
EXTRACT: pitchwheel channel=1 pitch=-441 time=0.012499968749999998
EXTRACT: pitchwheel channel=1 pitch=221 time=0.013888854166666666
EXTRACT: note_on channel=6 note=66 velocity=0 time=0.026388822916666665
EXTRACT: control_change channel=2 control=64 value=0 time=0.013888854166666666
EXTRACT: note_on channel=13 note=63 velocity=0 time=0.011111083333333332
EXTRACT: note_on channel=6 note=59 velocity=0 time=0.018055510416666663
EXTRACT: control_change channel=15 control=11 value=127 time=0.016666624999999997
EXTRACT: note_on channel=8 note=59 velocity=0 time=0.006944427083333333
EXTRACT: note_on channel=13 note=66 velocity=0 time=0
EXTRACT: note_on channel=1 note=42 velocity=0 time=0.0013888854166666665
EXTRACT: note_on channel=15 note=49 velocity=0 time=0.006944427083333333
EXTRACT: note_on channel=15 note=54 velocity=0 time=0
EXTRACT: note_on channel=11 note=59 velocity=0 time=0.006944427083333333
EXTRACT: note_on channel=8 note=66 velocity=0 time=0.005555541666666666
EXTRACT: note_on channel=1 note=42 velocity=95 time=0
EXTRACT: note_on channel=2 note=61 velocity=61 time=0
EXTRACT: note_on channel=6 note=58 velocity=96 time=0
EXTRACT: note_on channel=8 note=61 velocity=68 time=0
EXTRACT: note_on channel=9 note=46 velocity=77 time=0
EXTRACT: note_on channel=9 note=54 velocity=51 time=0
EXTRACT: note_on channel=9 note=35 velocity=125 time=0
EXTRACT: note_on channel=15 note=61 velocity=59 time=0
EXTRACT: control_change channel=2 control=64 value=100 time=0
EXTRACT: note_on channel=6 note=61 velocity=98 time=0.002777770833333333
EXTRACT: note_on channel=13 note=71 velocity=0 time=0.0013888854166666665
EXTRACT: note_on channel=2 note=54 velocity=60 time=0.005555541666666666
EXTRACT: note_on channel=15 note=54 velocity=58 time=0
EXTRACT: note_on channel=11 note=54 velocity=0 time=0.002777770833333333
EXTRACT: note_on channel=13 note=70 velocity=42 time=0.0013888854166666665
EXTRACT: note_on channel=13 note=66 velocity=32 time=0.009722197916666666
EXTRACT: note_on channel=13 note=73 velocity=31 time=0.005555541666666666
EXTRACT: note_on channel=9 note=46 velocity=0 time=0.0013888854166666665
EXTRACT: note_on channel=9 note=54 velocity=0 time=0
EXTRACT: note_on channel=9 note=35 velocity=0 time=0
EXTRACT: note_on channel=11 note=54 velocity=73 time=0.002777770833333333
EXTRACT: note_on channel=2 note=61 velocity=0 time=0.018055510416666663
EXTRACT: note_on channel=2 note=54 velocity=0 time=0.02083328125
EXTRACT: control_change channel=15 control=11 value=126 time=0.011111083333333332
EXTRACT: control_change channel=15 control=11 value=122 time=0.083333125
EXTRACT: control_change channel=15 control=11 value=117 time=0.083333125
EXTRACT: note_on channel=15 note=61 velocity=0 time=0.009722197916666666
EXTRACT: note_on channel=1 note=42 velocity=0 time=0.0416665625
EXTRACT: note_on channel=15 note=54 velocity=0 time=0.012499968749999998
EXTRACT: note_on channel=2 note=49 velocity=52 time=0.012499968749999998
EXTRACT: note_on channel=15 note=49 velocity=51 time=0
EXTRACT: note_on channel=8 note=66 velocity=74 time=0.002777770833333333
EXTRACT: note_on channel=1 note=42 velocity=123 time=0.004166656249999999
EXTRACT: note_on channel=2 note=61 velocity=61 time=0
EXTRACT: note_on channel=9 note=46 velocity=57 time=0
EXTRACT: note_on channel=9 note=54 velocity=32 time=0
EXTRACT: note_on channel=15 note=61 velocity=58 time=0
EXTRACT: control_change channel=15 control=11 value=111 time=0
EXTRACT: note_on channel=2 note=49 velocity=0 time=0.005555541666666666
EXTRACT: note_on channel=9 note=46 velocity=0 time=0.024999937499999996
EXTRACT: note_on channel=9 note=54 velocity=0 time=0
EXTRACT: note_on channel=11 note=58 velocity=79 time=0.004166656249999999
EXTRACT: note_on channel=2 note=61 velocity=0 time=0.016666624999999997
EXTRACT: control_change channel=15 control=11 value=104 time=0.03194436458333333
EXTRACT: note_on channel=8 note=61 velocity=0 time=0.06805538541666666
EXTRACT: control_change channel=15 control=11 value=100 time=0.015277739583333332
EXTRACT: control_change channel=15 control=11 value=95 time=0.083333125
EXTRACT: note_on channel=15 note=49 velocity=0 time=0.02083328125
EXTRACT: note_on channel=1 note=42 velocity=0 time=0.0416665625
EXTRACT: note_on channel=11 note=54 velocity=0 time=0.006944427083333333
EXTRACT: note_on channel=15 note=61 velocity=0 time=0.002777770833333333
EXTRACT: note_on channel=8 note=61 velocity=71 time=0.006944427083333333
EXTRACT: note_on channel=1 note=42 velocity=112 time=0.004166656249999999
EXTRACT: note_on channel=2 note=61 velocity=55 time=0
EXTRACT: note_on channel=9 note=46 velocity=81 time=0
EXTRACT: note_on channel=9 note=54 velocity=51 time=0
EXTRACT: note_on channel=15 note=61 velocity=52 time=0
EXTRACT: control_change channel=15 control=11 value=88 time=0
EXTRACT: note_on channel=9 note=39 velocity=115 time=0.002777770833333333
EXTRACT: note_on channel=9 note=85 velocity=79 time=0.006944427083333333
EXTRACT: note_on channel=9 note=28 velocity=73 time=0
EXTRACT: note_on channel=2 note=54 velocity=72 time=0.004166656249999999
EXTRACT: note_on channel=15 note=54 velocity=71 time=0
EXTRACT: note_on channel=11 note=54 velocity=73 time=0.015277739583333332
EXTRACT: note_on channel=9 note=46 velocity=0 time=0.0013888854166666665
EXTRACT: note_on channel=9 note=54 velocity=0 time=0.0013888854166666665
EXTRACT: note_on channel=9 note=39 velocity=0 time=0.002777770833333333
EXTRACT: note_on channel=9 note=85 velocity=0 time=0.006944427083333333
EXTRACT: note_on channel=9 note=28 velocity=0 time=0
EXTRACT: note_on channel=2 note=54 velocity=0 time=0.005555541666666666
EXTRACT: note_on channel=9 note=85 velocity=127 time=0.004166656249999999
EXTRACT: note_on channel=2 note=61 velocity=0 time=0.016666624999999997
EXTRACT: note_on channel=9 note=85 velocity=0 time=0.015277739583333332
EXTRACT: control_change channel=15 control=11 value=82 time=0
EXTRACT: control_change channel=15 control=11 value=77 time=0.083333125
EXTRACT: note_on channel=15 note=61 velocity=0 time=0.009722197916666666
EXTRACT: note_on channel=8 note=66 velocity=0 time=0.058333187499999994
EXTRACT: control_change channel=15 control=11 value=73 time=0.015277739583333332
EXTRACT: note_on channel=1 note=42 velocity=0 time=0.030555479166666663
EXTRACT: note_on channel=3 note=66 velocity=111 time=0
EXTRACT: note_on channel=15 note=54 velocity=0 time=0.0013888854166666665
EXTRACT: note_on channel=11 note=54 velocity=0 time=0.002777770833333333
EXTRACT: note_on channel=2 note=49 velocity=61 time=0.004166656249999999
EXTRACT: note_on channel=2 note=58 velocity=73 time=0
EXTRACT: note_on channel=15 note=49 velocity=58 time=0
EXTRACT: note_on channel=15 note=58 velocity=71 time=0
EXTRACT: note_on channel=11 note=58 velocity=0 time=0.002777770833333333
EXTRACT: note_on channel=1 note=42 velocity=117 time=0.004166656249999999
EXTRACT: note_on channel=8 note=65 velocity=71 time=0
EXTRACT: note_on channel=9 note=46 velocity=61 time=0
EXTRACT: note_on channel=9 note=35 velocity=113 time=0
EXTRACT: note_on channel=9 note=54 velocity=37 time=0
EXTRACT: control_change channel=6 control=11 value=126 time=0
EXTRACT: control_change channel=15 control=11 value=66 time=0
EXTRACT: note_on channel=2 note=49 velocity=0 time=0.026388822916666665
EXTRACT: note_on channel=2 note=58 velocity=0 time=0
EXTRACT: note_on channel=11 note=61 velocity=73 time=0.002777770833333333
EXTRACT: note_on channel=9 note=46 velocity=0 time=0.0013888854166666665
EXTRACT: note_on channel=9 note=35 velocity=0 time=0
EXTRACT: note_on channel=9 note=54 velocity=0 time=0
EXTRACT: control_change channel=6 control=11 value=125 time=0.05277764583333333
EXTRACT: note_on channel=3 note=66 velocity=0 time=0.026388822916666665
EXTRACT: control_change channel=6 control=11 value=121 time=0.05694430208333333
EXTRACT: note_on channel=15 note=49 velocity=0 time=0.030555479166666663
EXTRACT: control_change channel=6 control=11 value=117 time=0.05277764583333333
EXTRACT: note_on channel=1 note=42 velocity=0 time=0.030555479166666663
EXTRACT: control_change channel=2 control=64 value=0 time=0.011111083333333332
EXTRACT: note_on channel=15 note=58 velocity=0 time=0.024999937499999996
EXTRACT: note_on channel=3 note=66 velocity=111 time=0
EXTRACT: control_change channel=2 control=64 value=100 time=0.005555541666666666
EXTRACT: note_on channel=13 note=70 velocity=0 time=0.0013888854166666665
EXTRACT: note_on channel=9 note=47 velocity=41 time=0.0013888854166666665
EXTRACT: note_on channel=2 note=49 velocity=60 time=0.002777770833333333
EXTRACT: note_on channel=15 note=49 velocity=58 time=0
EXTRACT: note_on channel=6 note=58 velocity=0 time=0.005555541666666666
EXTRACT: note_on channel=1 note=41 velocity=110 time=0
EXTRACT: note_on channel=2 note=65 velocity=79 time=0
EXTRACT: note_on channel=6 note=56 velocity=91 time=0
EXTRACT: note_on channel=9 note=54 velocity=53 time=0
EXTRACT: note_on channel=13 note=68 velocity=38 time=0
EXTRACT: control_change channel=6 control=11 value=113 time=0
EXTRACT: note_on channel=13 note=66 velocity=0 time=0.002777770833333333
EXTRACT: note_on channel=2 note=56 velocity=79 time=0.006944427083333333
EXTRACT: note_on channel=15 note=56 velocity=77 time=0
EXTRACT: note_on channel=11 note=49 velocity=73 time=0.011111083333333332
EXTRACT: note_on channel=9 note=47 velocity=105 time=0.0013888854166666665
EXTRACT: note_on channel=2 note=65 velocity=0 time=0.002777770833333333
EXTRACT: note_on channel=9 note=54 velocity=0 time=0.006944427083333333
EXTRACT: note_on channel=2 note=56 velocity=0 time=0.004166656249999999
EXTRACT: note_on channel=13 note=65 velocity=35 time=0.004166656249999999
EXTRACT: note_on channel=9 note=47 velocity=0 time=0.013888854166666666
EXTRACT: note_on channel=2 note=49 velocity=0 time=0.008333312499999999
EXTRACT: control_change channel=6 control=11 value=111 time=0.02083328125
EXTRACT: control_change channel=6 control=11 value=107 time=0.083333125
EXTRACT: note_on channel=15 note=49 velocity=0 time=0.0416665625
EXTRACT: note_on channel=8 note=61 velocity=0 time=0.030555479166666663
EXTRACT: control_change channel=6 control=11 value=103 time=0.011111083333333332
EXTRACT: note_on channel=3 note=66 velocity=0 time=0.02083328125
EXTRACT: note_on channel=1 note=41 velocity=0 time=0.015277739583333332
EXTRACT: note_on channel=15 note=56 velocity=0 time=0.03472213541666666
EXTRACT: note_on channel=3 note=68 velocity=110 time=0
EXTRACT: note_on channel=1 note=41 velocity=110 time=0.011111083333333332
EXTRACT: note_on channel=2 note=61 velocity=79 time=0
EXTRACT: note_on channel=2 note=65 velocity=79 time=0
EXTRACT: note_on channel=8 note=61 velocity=70 time=0
EXTRACT: note_on channel=9 note=54 velocity=43 time=0
EXTRACT: note_on channel=15 note=61 velocity=76 time=0
EXTRACT: note_on channel=15 note=65 velocity=76 time=0
EXTRACT: control_change channel=6 control=11 value=99 time=0
EXTRACT: note_on channel=9 note=47 velocity=90 time=0.004166656249999999
EXTRACT: note_on channel=2 note=61 velocity=0 time=0.02083328125
EXTRACT: note_on channel=2 note=65 velocity=0 time=0
EXTRACT: note_on channel=9 note=54 velocity=0 time=0.005555541666666666
EXTRACT: note_on channel=9 note=47 velocity=0 time=0.005555541666666666
EXTRACT: control_change channel=6 control=11 value=97 time=0.04722210416666666
EXTRACT: note_on channel=8 note=65 velocity=0 time=0.07222204166666665
EXTRACT: control_change channel=6 control=11 value=93 time=0.011111083333333332
EXTRACT: note_on channel=3 note=68 velocity=0 time=0.07638869791666666
EXTRACT: control_change channel=6 control=11 value=89 time=0.006944427083333333
EXTRACT: note_on channel=11 note=61 velocity=0 time=0.013888854166666666
EXTRACT: note_on channel=15 note=61 velocity=0 time=0.05694430208333333
EXTRACT: note_on channel=15 note=65 velocity=0 time=0
EXTRACT: note_on channel=3 note=70 velocity=111 time=0
EXTRACT: note_on channel=2 note=61 velocity=79 time=0.011111083333333332
EXTRACT: note_on channel=2 note=65 velocity=79 time=0
EXTRACT: note_on channel=9 note=54 velocity=53 time=0
EXTRACT: note_on channel=11 note=56 velocity=83 time=0
EXTRACT: note_on channel=15 note=61 velocity=77 time=0
EXTRACT: note_on channel=15 note=65 velocity=77 time=0
EXTRACT: control_change channel=6 control=11 value=85 time=0
EXTRACT: note_on channel=11 note=49 velocity=0 time=0.0013888854166666665
EXTRACT: note_on channel=8 note=65 velocity=88 time=0.009722197916666666
EXTRACT: note_on channel=2 note=61 velocity=0 time=0.013888854166666666
EXTRACT: note_on channel=2 note=65 velocity=0 time=0
EXTRACT: note_on channel=9 note=54 velocity=0 time=0.006944427083333333
EXTRACT: note_on channel=1 note=41 velocity=0 time=0.05138876041666666
EXTRACT: control_change channel=6 control=11 value=83 time=0
EXTRACT: note_on channel=8 note=65 velocity=0 time=0.06249984374999999
EXTRACT: note_on channel=8 note=66 velocity=67 time=0.019444395833333333
EXTRACT: control_change channel=6 control=11 value=79 time=0.0013888854166666665
EXTRACT: note_on channel=8 note=61 velocity=0 time=0.07222204166666665
EXTRACT: note_on channel=3 note=70 velocity=0 time=0.009722197916666666
EXTRACT: control_change channel=6 control=11 value=75 time=0.0013888854166666665
EXTRACT: control_change channel=15 control=11 value=127 time=0.048610989583333326
EXTRACT: note_on channel=15 note=61 velocity=0 time=0.018055510416666663
EXTRACT: note_on channel=15 note=65 velocity=0 time=0
EXTRACT: note_on channel=3 note=73 velocity=111 time=0
EXTRACT: note_on channel=2 note=61 velocity=51 time=0.006944427083333333
EXTRACT: note_on channel=15 note=61 velocity=49 time=0
EXTRACT: note_on channel=1 note=37 velocity=107 time=0.005555541666666666
EXTRACT: note_on channel=9 note=35 velocity=114 time=0
EXTRACT: note_on channel=9 note=54 velocity=42 time=0
EXTRACT: note_on channel=11 note=49 velocity=83 time=0
EXTRACT: control_change channel=6 control=11 value=71 time=0
EXTRACT: note_on channel=2 note=56 velocity=51 time=0.002777770833333333
EXTRACT: note_on channel=15 note=56 velocity=48 time=0
EXTRACT: note_on channel=9 note=43 velocity=79 time=0.0013888854166666665
EXTRACT: note_on channel=9 note=35 velocity=0 time=0.026388822916666665
EXTRACT: note_on channel=9 note=54 velocity=0 time=0
EXTRACT: note_on channel=9 note=43 velocity=0 time=0.005555541666666666
EXTRACT: note_on channel=2 note=61 velocity=0 time=0.02361105208333333
EXTRACT: note_on channel=2 note=56 velocity=0 time=0.008333312499999999
EXTRACT: control_change channel=6 control=11 value=69 time=0.015277739583333332
EXTRACT: note_on channel=6 note=61 velocity=0 time=0.061110958333333326
EXTRACT: control_change channel=6 control=11 value=65 time=0.022222166666666664
EXTRACT: note_on channel=15 note=61 velocity=0 time=0.030555479166666663
EXTRACT: note_on channel=1 note=37 velocity=0 time=0.05555541666666666
EXTRACT: note_on channel=11 note=56 velocity=0 time=0.03472213541666666
EXTRACT: control_change channel=5 control=11 value=87 time=0.018055510416666663
EXTRACT: note_on channel=13 note=68 velocity=0 time=0.004166656249999999
EXTRACT: note_on channel=8 note=66 velocity=0 time=0.002777770833333333
EXTRACT: note_on channel=13 note=73 velocity=0 time=0
EXTRACT: note_on channel=6 note=56 velocity=0 time=0.009722197916666666
EXTRACT: note_on channel=11 note=49 velocity=0 time=0
EXTRACT: note_on channel=15 note=56 velocity=0 time=0.002777770833333333
EXTRACT: note_on channel=1 note=39 velocity=118 time=0.008333312499999999
EXTRACT: note_on channel=8 note=61 velocity=72 time=0
EXTRACT: note_on channel=9 note=49 velocity=73 time=0
EXTRACT: note_on channel=9 note=35 velocity=120 time=0
EXTRACT: note_on channel=11 note=51 velocity=71 time=0
EXTRACT: note_on channel=13 note=63 velocity=36 time=0
EXTRACT: note_on channel=13 note=70 velocity=44 time=0
EXTRACT: note_on channel=2 note=39 velocity=65 time=0.004166656249999999
EXTRACT: note_on channel=5 note=61 velocity=91 time=0.005555541666666666
EXTRACT: note_on channel=2 note=39 velocity=0 time=0
EXTRACT: note_on channel=13 note=65 velocity=0 time=0.006944427083333333
EXTRACT: control_change channel=2 control=64 value=100 time=0.004166656249999999
EXTRACT: note_on channel=13 note=66 velocity=37 time=0.002777770833333333
EXTRACT: note_on channel=5 note=58 velocity=107 time=0.002777770833333333
EXTRACT: note_on channel=2 note=58 velocity=47 time=0.0013888854166666665
EXTRACT: note_on channel=15 note=58 velocity=50 time=0
EXTRACT: note_on channel=9 note=49 velocity=0 time=0.002777770833333333
EXTRACT: note_on channel=9 note=35 velocity=0 time=0
EXTRACT: note_on channel=2 note=66 velocity=63 time=0.004166656249999999
EXTRACT: note_on channel=15 note=66 velocity=66 time=0
EXTRACT: note_on channel=2 note=58 velocity=0 time=0.006944427083333333
EXTRACT: note_on channel=2 note=66 velocity=0 time=0
EXTRACT: control_change channel=5 control=11 value=88 time=0.0416665625
EXTRACT: control_change channel=5 control=11 value=91 time=0.083333125
EXTRACT: control_change channel=5 control=11 value=93 time=0.083333125
EXTRACT: note_on channel=15 note=66 velocity=0 time=0.07916646875
EXTRACT: note_on channel=9 note=46 velocity=64 time=0.004166656249999999
EXTRACT: note_on channel=9 note=54 velocity=35 time=0
EXTRACT: note_on channel=11 note=61 velocity=67 time=0
EXTRACT: control_change channel=5 control=11 value=95 time=0
EXTRACT: note_on channel=8 note=66 velocity=78 time=0.004166656249999999
EXTRACT: note_on channel=2 note=54 velocity=47 time=0.002777770833333333
EXTRACT: note_on channel=15 note=54 velocity=50 time=0
EXTRACT: note_on channel=2 note=54 velocity=0 time=0.013888854166666666
EXTRACT: note_on channel=9 note=46 velocity=0 time=0.009722197916666666
EXTRACT: note_on channel=9 note=54 velocity=0 time=0
EXTRACT: control_change channel=5 control=11 value=97 time=0.05277764583333333
EXTRACT: control_change channel=5 control=11 value=99 time=0.083333125
EXTRACT: note_on channel=15 note=58 velocity=0 time=0.030555479166666663
EXTRACT: note_on channel=8 note=61 velocity=0 time=0.05277764583333333
EXTRACT: control_change channel=5 control=11 value=101 time=0
EXTRACT: note_on channel=1 note=39 velocity=0 time=0.07222204166666665
EXTRACT: note_on channel=11 note=51 velocity=0 time=0
EXTRACT: note_on channel=15 note=54 velocity=0 time=0.004166656249999999
EXTRACT: note_on channel=8 note=61 velocity=75 time=0.002777770833333333
EXTRACT: note_on channel=9 note=46 velocity=76 time=0.004166656249999999
EXTRACT: note_on channel=9 note=54 velocity=48 time=0
EXTRACT: note_on channel=11 note=54 velocity=77 time=0
EXTRACT: control_change channel=5 control=11 value=103 time=0
EXTRACT: note_on channel=9 note=39 velocity=113 time=0.002777770833333333
EXTRACT: note_on channel=2 note=66 velocity=85 time=0.002777770833333333
EXTRACT: note_on channel=15 note=66 velocity=87 time=0
EXTRACT: note_on channel=2 note=58 velocity=65 time=0.0013888854166666665
EXTRACT: note_on channel=15 note=58 velocity=68 time=0
EXTRACT: note_on channel=9 note=85 velocity=79 time=0.002777770833333333
EXTRACT: note_on channel=9 note=28 velocity=69 time=0
EXTRACT: note_on channel=2 note=66 velocity=0 time=0.011111083333333332
EXTRACT: note_on channel=9 note=46 velocity=0 time=0.009722197916666666
EXTRACT: note_on channel=9 note=54 velocity=0 time=0
EXTRACT: note_on channel=9 note=39 velocity=0 time=0.004166656249999999
EXTRACT: note_on channel=9 note=85 velocity=0 time=0.006944427083333333
EXTRACT: note_on channel=9 note=28 velocity=0 time=0
EXTRACT: note_on channel=2 note=58 velocity=0 time=0.009722197916666666
EXTRACT: note_on channel=9 note=85 velocity=126 time=0
EXTRACT: note_on channel=9 note=85 velocity=0 time=0.03194436458333333
EXTRACT: control_change channel=5 control=11 value=105 time=0
EXTRACT: control_change channel=5 control=11 value=107 time=0.083333125
EXTRACT: control_change channel=15 control=11 value=127 time=0
EXTRACT: note_on channel=11 note=61 velocity=0 time=0.009722197916666666
EXTRACT: control_change channel=15 control=11 value=122 time=0.03194436458333333
EXTRACT: control_change channel=5 control=11 value=109 time=0.0416665625
EXTRACT: control_change channel=6 control=11 value=89 time=0
EXTRACT: control_change channel=15 control=11 value=119 time=0
EXTRACT: control_change channel=15 control=11 value=115 time=0.0416665625
EXTRACT: note_on channel=15 note=58 velocity=0 time=0.029166593749999997
EXTRACT: note_on channel=8 note=61 velocity=0 time=0.004166656249999999
EXTRACT: note_on channel=8 note=59 velocity=75 time=0.004166656249999999
EXTRACT: note_on channel=1 note=34 velocity=121 time=0.004166656249999999
EXTRACT: note_on channel=2 note=58 velocity=65 time=0
EXTRACT: note_on channel=6 note=58 velocity=99 time=0
EXTRACT: note_on channel=9 note=46 velocity=52 time=0
EXTRACT: note_on channel=9 note=54 velocity=38 time=0
EXTRACT: note_on channel=9 note=35 velocity=110 time=0
EXTRACT: note_on channel=11 note=61 velocity=57 time=0
EXTRACT: note_on channel=15 note=58 velocity=68 time=0
EXTRACT: control_change channel=5 control=11 value=111 time=0
EXTRACT: control_change channel=6 control=11 value=91 time=0
EXTRACT: control_change channel=15 control=11 value=111 time=0
EXTRACT: note_on channel=9 note=46 velocity=0 time=0.030555479166666663
EXTRACT: note_on channel=9 note=54 velocity=0 time=0
EXTRACT: note_on channel=9 note=35 velocity=0 time=0
EXTRACT: control_change channel=15 control=11 value=107 time=0.011111083333333332
EXTRACT: note_on channel=2 note=58 velocity=0 time=0.002777770833333333
EXTRACT: control_change channel=5 control=11 value=113 time=0.038888791666666665
EXTRACT: control_change channel=6 control=11 value=95 time=0
EXTRACT: control_change channel=15 control=11 value=103 time=0
EXTRACT: control_change channel=15 control=11 value=99 time=0.0416665625
EXTRACT: note_on channel=8 note=66 velocity=0 time=0.02777770833333333
EXTRACT: control_change channel=5 control=11 value=115 time=0.013888854166666666
EXTRACT: control_change channel=6 control=11 value=97 time=0
EXTRACT: control_change channel=15 control=11 value=95 time=0
EXTRACT: note_on channel=3 note=73 velocity=0 time=0.030555479166666663
EXTRACT: note_on channel=15 note=66 velocity=0 time=0.011111083333333332
EXTRACT: control_change channel=15 control=11 value=91 time=0.006944427083333333
EXTRACT: control_change channel=5 control=11 value=117 time=0.03472213541666666
EXTRACT: control_change channel=6 control=11 value=98 time=0
EXTRACT: note_on channel=13 note=70 velocity=0 time=0.018055510416666663
EXTRACT: note_on channel=11 note=54 velocity=0 time=0.018055510416666663
EXTRACT: note_on channel=13 note=71 velocity=43 time=0.02361105208333333
EXTRACT: control_change channel=2 control=64 value=0 time=0.002777770833333333
EXTRACT: note_on channel=1 note=34 velocity=0 time=0.009722197916666666
EXTRACT: note_on channel=6 note=58 velocity=0 time=0
EXTRACT: note_on channel=11 note=61 velocity=0 time=0
EXTRACT: note_on channel=5 note=63 velocity=83 time=0
EXTRACT: note_on channel=15 note=58 velocity=0 time=0.002777770833333333
EXTRACT: note_on channel=5 note=61 velocity=0 time=0.004166656249999999
EXTRACT: note_on channel=8 note=66 velocity=72 time=0
EXTRACT: note_on channel=1 note=35 velocity=120 time=0.004166656249999999
EXTRACT: note_on channel=6 note=59 velocity=98 time=0
EXTRACT: note_on channel=6 note=66 velocity=84 time=0
EXTRACT: note_on channel=9 note=46 velocity=74 time=0
EXTRACT: note_on channel=9 note=35 velocity=120 time=0
EXTRACT: note_on channel=9 note=54 velocity=51 time=0
EXTRACT: note_on channel=11 note=59 velocity=79 time=0
EXTRACT: control_change channel=5 control=11 value=119 time=0
EXTRACT: control_change channel=6 control=11 value=101 time=0
EXTRACT: control_change channel=15 control=11 value=127 time=0
EXTRACT: note_on channel=2 note=47 velocity=69 time=0.004166656249999999
EXTRACT: note_on channel=15 note=47 velocity=71 time=0
EXTRACT: note_on channel=15 note=54 velocity=71 time=0
EXTRACT: control_change channel=2 control=64 value=100 time=0.005555541666666666
EXTRACT: note_on channel=5 note=58 velocity=0 time=0.005555541666666666
EXTRACT: note_on channel=5 note=59 velocity=101 time=0.0013888854166666665
EXTRACT: note_on channel=9 note=46 velocity=0 time=0.013888854166666666
EXTRACT: note_on channel=9 note=35 velocity=0 time=0
EXTRACT: note_on channel=9 note=54 velocity=0 time=0
EXTRACT: control_change channel=5 control=11 value=121 time=0.05277764583333333
EXTRACT: control_change channel=6 control=11 value=102 time=0
EXTRACT: control_change channel=5 control=11 value=123 time=0.083333125
EXTRACT: control_change channel=6 control=11 value=106 time=0
EXTRACT: note_on channel=2 note=47 velocity=0 time=0.02083328125
EXTRACT: control_change channel=5 control=11 value=125 time=0.06249984374999999
EXTRACT: control_change channel=6 control=11 value=109 time=0
EXTRACT: note_on channel=8 note=59 velocity=0 time=0.009722197916666666
EXTRACT: note_on channel=11 note=59 velocity=0 time=0.05138876041666666
EXTRACT: note_on channel=8 note=59 velocity=67 time=0.016666624999999997
EXTRACT: note_on channel=15 note=47 velocity=0 time=0.0013888854166666665
EXTRACT: note_on channel=15 note=54 velocity=0 time=0
EXTRACT: note_on channel=11 note=61 velocity=79 time=0.002777770833333333
EXTRACT: note_on channel=9 note=46 velocity=51 time=0.0013888854166666665
EXTRACT: note_on channel=9 note=54 velocity=37 time=0
EXTRACT: control_change channel=5 control=11 value=127 time=0
EXTRACT: control_change channel=6 control=11 value=110 time=0
EXTRACT: note_on channel=2 note=51 velocity=47 time=0.006944427083333333
EXTRACT: note_on channel=15 note=51 velocity=50 time=0
EXTRACT: note_on channel=9 note=46 velocity=0 time=0.02361105208333333
EXTRACT: note_on channel=9 note=54 velocity=0 time=0
EXTRACT: note_on channel=2 note=51 velocity=0 time=0.02083328125
EXTRACT: control_change channel=6 control=11 value=113 time=0.03194436458333333
EXTRACT: control_change channel=6 control=11 value=114 time=0.083333125
EXTRACT: control_change channel=6 control=11 value=119 time=0.083333125
EXTRACT: note_on channel=8 note=66 velocity=0 time=0.009722197916666666
EXTRACT: note_on channel=15 note=51 velocity=0 time=0.058333187499999994
EXTRACT: note_on channel=8 note=66 velocity=75 time=0.011111083333333332
EXTRACT: note_on channel=2 note=54 velocity=71 time=0.0013888854166666665
EXTRACT: note_on channel=15 note=54 velocity=72 time=0
EXTRACT: note_on channel=11 note=61 velocity=0 time=0.002777770833333333
EXTRACT: note_on channel=9 note=46 velocity=74 time=0
EXTRACT: note_on channel=9 note=54 velocity=50 time=0
EXTRACT: note_on channel=11 note=59 velocity=79 time=0
EXTRACT: control_change channel=6 control=11 value=120 time=0
EXTRACT: note_on channel=9 note=39 velocity=115 time=0.002777770833333333
EXTRACT: note_on channel=2 note=59 velocity=79 time=0.002777770833333333
EXTRACT: note_on channel=15 note=59 velocity=83 time=0
EXTRACT: note_on channel=9 note=85 velocity=72 time=0.004166656249999999
EXTRACT: note_on channel=9 note=28 velocity=72 time=0
EXTRACT: note_on channel=2 note=59 velocity=0 time=0.011111083333333332
EXTRACT: note_on channel=2 note=54 velocity=0 time=0.009722197916666666
EXTRACT: note_on channel=9 note=46 velocity=0 time=0
EXTRACT: note_on channel=9 note=54 velocity=0 time=0
EXTRACT: note_on channel=9 note=39 velocity=0 time=0.004166656249999999
EXTRACT: note_on channel=1 note=35 velocity=0 time=0.006944427083333333
EXTRACT: note_on channel=9 note=85 velocity=0 time=0
EXTRACT: note_on channel=9 note=28 velocity=0 time=0
EXTRACT: note_on channel=9 note=85 velocity=127 time=0.009722197916666666
EXTRACT: note_on channel=9 note=85 velocity=0 time=0.03194436458333333
EXTRACT: control_change channel=6 control=11 value=122 time=0
EXTRACT: control_change channel=15 control=11 value=127 time=0.05555541666666666
EXTRACT: control_change channel=6 control=11 value=127 time=0.02777770833333333
EXTRACT: control_change channel=15 control=11 value=123 time=0.013888854166666666
EXTRACT: control_change channel=15 control=11 value=119 time=0.0416665625
EXTRACT: note_on channel=8 note=59 velocity=0 time=0.006944427083333333
EXTRACT: note_on channel=15 note=54 velocity=0 time=0.009722197916666666
EXTRACT: control_change channel=15 control=11 value=115 time=0.024999937499999996
EXTRACT: control_change channel=15 control=11 value=111 time=0.0416665625
EXTRACT: note_on channel=8 note=59 velocity=74 time=0.02361105208333333
EXTRACT: note_on channel=9 note=54 velocity=35 time=0.002777770833333333
EXTRACT: note_on channel=1 note=35 velocity=109 time=0.0013888854166666665
EXTRACT: note_on channel=2 note=54 velocity=67 time=0
EXTRACT: note_on channel=9 note=46 velocity=59 time=0
EXTRACT: note_on channel=9 note=35 velocity=112 time=0
EXTRACT: note_on channel=15 note=54 velocity=68 time=0
EXTRACT: note_on channel=11 note=54 velocity=55 time=0.005555541666666666
EXTRACT: control_change channel=15 control=11 value=107 time=0.008333312499999999
EXTRACT: note_on channel=9 note=54 velocity=0 time=0.016666624999999997
EXTRACT: note_on channel=9 note=46 velocity=0 time=0
EXTRACT: note_on channel=9 note=35 velocity=0 time=0
EXTRACT: note_on channel=2 note=54 velocity=0 time=0.002777770833333333
EXTRACT: control_change channel=15 control=11 value=103 time=0.022222166666666664
EXTRACT: control_change channel=15 control=11 value=99 time=0.0416665625
EXTRACT: control_change channel=15 control=11 value=95 time=0.0416665625
EXTRACT: note_on channel=1 note=35 velocity=0 time=0.016666624999999997
EXTRACT: control_change channel=15 control=11 value=91 time=0.03194436458333333
EXTRACT: note_on channel=15 note=59 velocity=0 time=0.02083328125
EXTRACT: note_on channel=13 note=66 velocity=0 time=0.07638869791666666
EXTRACT: note_on channel=6 note=59 velocity=0 time=0.004166656249999999
EXTRACT: note_on channel=13 note=63 velocity=0 time=0.009722197916666666
EXTRACT: note_on channel=11 note=59 velocity=0 time=0.0013888854166666665
EXTRACT: control_change channel=15 control=11 value=127 time=0.005555541666666666
EXTRACT: note_on channel=13 note=71 velocity=0 time=0.004166656249999999
EXTRACT: note_on channel=8 note=59 velocity=0 time=0.002777770833333333
EXTRACT: control_change channel=2 control=64 value=0 time=0
EXTRACT: note_on channel=11 note=54 velocity=0 time=0.005555541666666666
EXTRACT: note_on channel=13 note=70 velocity=42 time=0.0013888854166666665
EXTRACT: note_on channel=5 note=59 velocity=0 time=0.002777770833333333
EXTRACT: note_on channel=6 note=66 velocity=0 time=0
EXTRACT: note_on channel=5 note=63 velocity=0 time=0.0013888854166666665
EXTRACT: note_on channel=13 note=66 velocity=32 time=0.005555541666666666
EXTRACT: note_on channel=8 note=66 velocity=0 time=0.004166656249999999
EXTRACT: note_on channel=1 note=30 velocity=122 time=0
EXTRACT: note_on channel=5 note=61 velocity=83 time=0
EXTRACT: note_on channel=6 note=58 velocity=97 time=0
EXTRACT: note_on channel=8 note=61 velocity=73 time=0
EXTRACT: note_on channel=9 note=46 velocity=77 time=0
EXTRACT: note_on channel=9 note=54 velocity=50 time=0
EXTRACT: note_on channel=9 note=35 velocity=125 time=0
EXTRACT: note_on channel=13 note=61 velocity=34 time=0
EXTRACT: note_on channel=5 note=58 velocity=91 time=0.0013888854166666665
EXTRACT: note_on channel=6 note=61 velocity=98 time=0.0013888854166666665
EXTRACT: note_on channel=2 note=42 velocity=61 time=0.0013888854166666665
EXTRACT: note_on channel=15 note=42 velocity=62 time=0
EXTRACT: note_on channel=11 note=54 velocity=73 time=0.0013888854166666665
EXTRACT: note_on channel=9 note=46 velocity=0 time=0.024999937499999996
EXTRACT: note_on channel=9 note=54 velocity=0 time=0
EXTRACT: note_on channel=9 note=35 velocity=0 time=0
EXTRACT: control_change channel=2 control=64 value=100 time=0
EXTRACT: note_on channel=2 note=42 velocity=0 time=0.12499968749999998
EXTRACT: note_on channel=15 note=54 velocity=0 time=0.09444420833333332
EXTRACT: note_on channel=15 note=42 velocity=0 time=0.06805538541666666
EXTRACT: note_on channel=8 note=66 velocity=79 time=0.011111083333333332
EXTRACT: note_on channel=2 note=49 velocity=47 time=0.0013888854166666665
EXTRACT: note_on channel=15 note=49 velocity=49 time=0
EXTRACT: note_on channel=9 note=46 velocity=57 time=0.002777770833333333
EXTRACT: note_on channel=9 note=54 velocity=33 time=0
EXTRACT: note_on channel=11 note=58 velocity=79 time=0.006944427083333333
EXTRACT: note_on channel=2 note=49 velocity=0 time=0.002777770833333333
EXTRACT: note_on channel=9 note=46 velocity=0 time=0.02083328125
EXTRACT: note_on channel=9 note=54 velocity=0 time=0
EXTRACT: note_on channel=8 note=61 velocity=0 time=0.12083303124999999
EXTRACT: note_on channel=11 note=54 velocity=0 time=0.14027742708333332
EXTRACT: note_on channel=8 note=61 velocity=75 time=0.03749990625
EXTRACT: note_on channel=4 note=66 velocity=6 time=0.004166656249999999
EXTRACT: note_on channel=9 note=46 velocity=81 time=0
EXTRACT: note_on channel=9 note=54 velocity=51 time=0
EXTRACT: control_change channel=5 control=11 value=127 time=0
EXTRACT: note_on channel=3 note=73 velocity=111 time=0
EXTRACT: note_on channel=11 note=54 velocity=72 time=0
EXTRACT: note_on channel=9 note=39 velocity=115 time=0.0013888854166666665
EXTRACT: note_on channel=15 note=49 velocity=0 time=0.0013888854166666665
EXTRACT: note_on channel=9 note=85 velocity=79 time=0.005555541666666666
EXTRACT: note_on channel=9 note=28 velocity=73 time=0
EXTRACT: note_on channel=2 note=58 velocity=78 time=0.005555541666666666
EXTRACT: note_on channel=15 note=58 velocity=83 time=0
EXTRACT: note_on channel=2 note=54 velocity=65 time=0.002777770833333333
EXTRACT: note_on channel=15 note=54 velocity=68 time=0
EXTRACT: note_on channel=9 note=46 velocity=0 time=0.012499968749999998
EXTRACT: note_on channel=9 note=54 velocity=0 time=0.0013888854166666665
EXTRACT: note_on channel=9 note=39 velocity=0 time=0.002777770833333333
EXTRACT: note_on channel=9 note=85 velocity=0 time=0.006944427083333333
EXTRACT: note_on channel=9 note=28 velocity=0 time=0
EXTRACT: note_on channel=2 note=54 velocity=0 time=0.009722197916666666
EXTRACT: note_on channel=9 note=85 velocity=127 time=0
EXTRACT: note_on channel=2 note=58 velocity=0 time=0.03194436458333333
EXTRACT: note_on channel=9 note=85 velocity=0 time=0
EXTRACT: control_change channel=5 control=11 value=125 time=0
EXTRACT: note_on channel=1 note=30 velocity=0 time=0.030555479166666663
EXTRACT: control_change channel=15 control=11 value=127 time=0.03194436458333333
EXTRACT: control_change channel=5 control=11 value=123 time=0.02083328125
EXTRACT: control_change channel=15 control=11 value=123 time=0.02083328125
EXTRACT: note_on channel=3 note=73 velocity=0 time=0.0013888854166666665
EXTRACT: control_change channel=15 control=11 value=118 time=0.04027767708333333
EXTRACT: note_on channel=15 note=58 velocity=0 time=0.002777770833333333
EXTRACT: note_on channel=8 note=66 velocity=0 time=0.002777770833333333
EXTRACT: control_change channel=5 control=11 value=120 time=0.015277739583333332
EXTRACT: control_change channel=15 control=11 value=115 time=0.02083328125
EXTRACT: note_on channel=11 note=54 velocity=0 time=0.02361105208333333
EXTRACT: note_on channel=11 note=58 velocity=0 time=0.006944427083333333
EXTRACT: control_change channel=15 control=11 value=110 time=0.011111083333333332
EXTRACT: note_on channel=15 note=54 velocity=0 time=0.008333312499999999
EXTRACT: note_on channel=6 note=58 velocity=0 time=0.0013888854166666665
EXTRACT: note_on channel=5 note=58 velocity=0 time=0
EXTRACT: note_on channel=1 note=30 velocity=86 time=0.011111083333333332
EXTRACT: note_on channel=2 note=54 velocity=54 time=0
EXTRACT: note_on channel=5 note=56 velocity=97 time=0
EXTRACT: note_on channel=6 note=56 velocity=90 time=0
EXTRACT: note_on channel=8 note=65 velocity=75 time=0
EXTRACT: note_on channel=9 note=46 velocity=61 time=0
EXTRACT: note_on channel=9 note=35 velocity=113 time=0
EXTRACT: note_on channel=9 note=54 velocity=37 time=0
EXTRACT: note_on channel=15 note=54 velocity=57 time=0
EXTRACT: control_change channel=5 control=11 value=119 time=0
EXTRACT: control_change channel=6 control=11 value=127 time=0
EXTRACT: note_on channel=11 note=61 velocity=73 time=0.0013888854166666665
EXTRACT: note_on channel=3 note=73 velocity=111 time=0
EXTRACT: control_change channel=15 control=11 value=106 time=0.016666624999999997
EXTRACT: note_on channel=9 note=46 velocity=0 time=0.009722197916666666
EXTRACT: note_on channel=9 note=35 velocity=0 time=0
EXTRACT: note_on channel=9 note=54 velocity=0 time=0
EXTRACT: note_on channel=2 note=54 velocity=0 time=0.002777770833333333
EXTRACT: control_change channel=15 control=11 value=103 time=0.029166593749999997
EXTRACT: control_change channel=5 control=11 value=116 time=0.02083328125
EXTRACT: control_change channel=6 control=11 value=125 time=0
EXTRACT: control_change channel=15 control=11 value=98 time=0.02083328125
EXTRACT: control_change channel=15 control=11 value=95 time=0.0416665625
EXTRACT: note_on channel=1 note=30 velocity=0 time=0.009722197916666666
EXTRACT: control_change channel=5 control=11 value=116 time=0.011111083333333332
EXTRACT: control_change channel=6 control=11 value=120 time=0
EXTRACT: control_change channel=15 control=11 value=90 time=0.02777770833333333
EXTRACT: note_on channel=3 note=73 velocity=0 time=0.038888791666666665
EXTRACT: control_change channel=5 control=11 value=115 time=0.016666624999999997
EXTRACT: control_change channel=6 control=11 value=116 time=0
EXTRACT: note_on channel=13 note=70 velocity=0 time=0.045833218749999995
EXTRACT: control_change channel=2 control=64 value=0 time=0.005555541666666666
EXTRACT: note_on channel=13 note=66 velocity=0 time=0.006944427083333333
EXTRACT: control_change channel=15 control=11 value=127 time=0.004166656249999999
EXTRACT: note_on channel=15 note=54 velocity=0 time=0.008333312499999999
EXTRACT: note_on channel=4 note=66 velocity=0 time=0.0013888854166666665
EXTRACT: note_on channel=11 note=49 velocity=72 time=0.004166656249999999
EXTRACT: note_on channel=1 note=25 velocity=123 time=0.006944427083333333
EXTRACT: note_on channel=2 note=49 velocity=60 time=0
EXTRACT: note_on channel=4 note=65 velocity=6 time=0
EXTRACT: note_on channel=9 note=46 velocity=81 time=0
EXTRACT: note_on channel=9 note=35 velocity=121 time=0
EXTRACT: note_on channel=9 note=54 velocity=53 time=0
EXTRACT: note_on channel=13 note=68 velocity=39 time=0
EXTRACT: note_on channel=15 note=49 velocity=63 time=0
EXTRACT: control_change channel=5 control=11 value=112 time=0
EXTRACT: control_change channel=6 control=11 value=112 time=0
EXTRACT: note_on channel=3 note=75 velocity=111 time=0
EXTRACT: note_on channel=13 note=65 velocity=34 time=0.008333312499999999
EXTRACT: note_on channel=2 note=56 velocity=55 time=0.008333312499999999
EXTRACT: note_on channel=15 note=56 velocity=56 time=0
EXTRACT: control_change channel=2 control=64 value=100 time=0
EXTRACT: note_on channel=9 note=46 velocity=0 time=0.009722197916666666
EXTRACT: note_on channel=9 note=35 velocity=0 time=0
EXTRACT: note_on channel=9 note=54 velocity=0 time=0.0013888854166666665
EXTRACT: note_on channel=2 note=56 velocity=0 time=0.022222166666666664
EXTRACT: control_change channel=5 control=11 value=111 time=0.029166593749999997
EXTRACT: control_change channel=6 control=11 value=110 time=0
EXTRACT: control_change channel=5 control=11 value=108 time=0.083333125
EXTRACT: control_change channel=6 control=11 value=107 time=0
EXTRACT: note_on channel=15 note=56 velocity=0 time=0.002777770833333333
EXTRACT: note_on channel=2 note=49 velocity=0 time=0.013888854166666666
EXTRACT: note_on channel=8 note=61 velocity=0 time=0.05555541666666666
EXTRACT: note_on channel=15 note=49 velocity=0 time=0.006944427083333333
EXTRACT: control_change channel=5 control=11 value=109 time=0.004166656249999999
EXTRACT: control_change channel=6 control=11 value=102 time=0
EXTRACT: note_on channel=3 note=75 velocity=0 time=0.0416665625
EXTRACT: note_on channel=2 note=56 velocity=54 time=0.030555479166666663
EXTRACT: note_on channel=15 note=56 velocity=57 time=0
EXTRACT: note_on channel=8 note=61 velocity=75 time=0.011111083333333332
EXTRACT: note_on channel=9 note=46 velocity=61 time=0
EXTRACT: note_on channel=9 note=54 velocity=43 time=0
EXTRACT: control_change channel=5 control=11 value=106 time=0
EXTRACT: control_change channel=6 control=11 value=98 time=0
EXTRACT: note_on channel=3 note=73 velocity=111 time=0
EXTRACT: note_on channel=2 note=49 velocity=47 time=0.002777770833333333
EXTRACT: note_on channel=15 note=49 velocity=49 time=0
EXTRACT: note_on channel=2 note=56 velocity=0 time=0.016666624999999997
EXTRACT: note_on channel=9 note=46 velocity=0 time=0.006944427083333333
EXTRACT: note_on channel=9 note=54 velocity=0 time=0
EXTRACT: note_on channel=2 note=49 velocity=0 time=0.02083328125
EXTRACT: control_change channel=5 control=11 value=104 time=0.03194436458333333
EXTRACT: control_change channel=6 control=11 value=97 time=0
EXTRACT: note_on channel=8 note=65 velocity=0 time=0.07222204166666665
EXTRACT: control_change channel=5 control=11 value=103 time=0.011111083333333332
EXTRACT: control_change channel=6 control=11 value=93 time=0
EXTRACT: note_on channel=15 note=56 velocity=0 time=0.016666624999999997
EXTRACT: note_on channel=11 note=61 velocity=0 time=0.05277764583333333
EXTRACT: note_on channel=3 note=73 velocity=0 time=0.002777770833333333
EXTRACT: control_change channel=5 control=11 value=101 time=0.011111083333333332
EXTRACT: control_change channel=6 control=11 value=88 time=0
EXTRACT: note_on channel=11 note=49 velocity=0 time=0.05694430208333333
EXTRACT: note_on channel=9 note=46 velocity=81 time=0.026388822916666665
EXTRACT: note_on channel=9 note=54 velocity=53 time=0
EXTRACT: control_change channel=5 control=11 value=101 time=0
EXTRACT: control_change channel=6 control=11 value=84 time=0
EXTRACT: note_on channel=3 note=70 velocity=111 time=0
EXTRACT: note_on channel=9 note=39 velocity=113 time=0
EXTRACT: note_on channel=11 note=56 velocity=82 time=0
EXTRACT: note_on channel=9 note=85 velocity=73 time=0.006944427083333333
EXTRACT: note_on channel=9 note=28 velocity=69 time=0
EXTRACT: note_on channel=8 note=65 velocity=93 time=0.0013888854166666665
EXTRACT: note_on channel=2 note=56 velocity=84 time=0.004166656249999999
EXTRACT: note_on channel=15 note=56 velocity=89 time=0
EXTRACT: note_on channel=9 note=46 velocity=0 time=0.015277739583333332
EXTRACT: note_on channel=9 note=54 velocity=0 time=0.0013888854166666665
EXTRACT: note_on channel=9 note=39 velocity=0 time=0.002777770833333333
EXTRACT: note_on channel=9 note=85 velocity=0 time=0.006944427083333333
EXTRACT: note_on channel=9 note=28 velocity=0 time=0
EXTRACT: note_on channel=2 note=56 velocity=0 time=0
EXTRACT: note_on channel=9 note=85 velocity=126 time=0.009722197916666666
EXTRACT: note_on channel=1 note=25 velocity=0 time=0.02083328125
EXTRACT: note_on channel=9 note=85 velocity=0 time=0.011111083333333332
EXTRACT: control_change channel=5 control=11 value=98 time=0
EXTRACT: control_change channel=6 control=11 value=83 time=0
EXTRACT: note_on channel=15 note=49 velocity=0 time=0.030555479166666663
EXTRACT: control_change channel=15 control=11 value=126 time=0.004166656249999999
EXTRACT: note_on channel=8 note=65 velocity=0 time=0.02777770833333333
EXTRACT: control_change channel=15 control=11 value=122 time=0.013888854166666666
EXTRACT: note_on channel=8 note=66 velocity=71 time=0.005555541666666666
EXTRACT: control_change channel=5 control=11 value=96 time=0.0013888854166666665
EXTRACT: control_change channel=6 control=11 value=78 time=0
EXTRACT: note_on channel=3 note=70 velocity=0 time=0.02361105208333333
EXTRACT: control_change channel=15 control=11 value=119 time=0.011111083333333332
EXTRACT: note_on channel=8 note=61 velocity=0 time=0.03749990625
EXTRACT: control_change channel=15 control=11 value=115 time=0.004166656249999999
EXTRACT: control_change channel=5 control=11 value=94 time=0.006944427083333333
EXTRACT: control_change channel=6 control=11 value=74 time=0
EXTRACT: control_change channel=15 control=11 value=111 time=0.03472213541666666
EXTRACT: note_on channel=4 note=65 velocity=0 time=0.03611102083333333
EXTRACT: note_on channel=5 note=56 velocity=0 time=0.0013888854166666665
EXTRACT: note_on channel=15 note=56 velocity=0 time=0.002777770833333333
EXTRACT: control_change channel=15 control=11 value=106 time=0.0013888854166666665
EXTRACT: note_on channel=1 note=25 velocity=107 time=0.006944427083333333
EXTRACT: note_on channel=4 note=66 velocity=6 time=0
EXTRACT: note_on channel=9 note=46 velocity=62 time=0
EXTRACT: note_on channel=9 note=35 velocity=115 time=0
EXTRACT: note_on channel=9 note=54 velocity=42 time=0
EXTRACT: control_change channel=5 control=11 value=92 time=0
EXTRACT: control_change channel=6 control=11 value=71 time=0
EXTRACT: note_on channel=2 note=49 velocity=43 time=0.004166656249999999
EXTRACT: note_on channel=15 note=49 velocity=45 time=0
EXTRACT: note_on channel=2 note=53 velocity=64 time=0.002777770833333333
EXTRACT: note_on channel=8 note=61 velocity=91 time=0
EXTRACT: note_on channel=15 note=53 velocity=69 time=0
EXTRACT: note_on channel=2 note=53 velocity=0 time=0.0013888854166666665
EXTRACT: note_on channel=3 note=70 velocity=111 time=0
EXTRACT: note_on channel=5 note=61 velocity=0 time=0.018055510416666663
EXTRACT: note_on channel=9 note=46 velocity=0 time=0.002777770833333333
EXTRACT: note_on channel=9 note=35 velocity=0 time=0
EXTRACT: note_on channel=9 note=54 velocity=0 time=0
EXTRACT: control_change channel=15 control=11 value=102 time=0.004166656249999999
EXTRACT: note_on channel=6 note=61 velocity=0 time=0.016666624999999997
EXTRACT: note_on channel=2 note=49 velocity=0 time=0
EXTRACT: control_change channel=15 control=11 value=98 time=0.024999937499999996
EXTRACT: control_change channel=5 control=11 value=91 time=0.006944427083333333
EXTRACT: control_change channel=6 control=11 value=69 time=0
EXTRACT: note_on channel=6 note=56 velocity=0 time=0.02083328125
EXTRACT: control_change channel=15 control=11 value=94 time=0.013888854166666666
EXTRACT: note_on channel=1 note=25 velocity=0 time=0.03749990625
EXTRACT: control_change channel=6 control=11 value=64 time=0.011111083333333332
EXTRACT: control_change channel=15 control=11 value=91 time=0
EXTRACT: note_on channel=15 note=49 velocity=0 time=0.030555479166666663
EXTRACT: note_on channel=13 note=61 velocity=0 time=0.07361092708333332
EXTRACT: control_change channel=2 control=64 value=0 time=0.009722197916666666
EXTRACT: note_on channel=11 note=56 velocity=0 time=0.011111083333333332
EXTRACT: control_change channel=5 control=11 value=86 time=0.013888854166666666
EXTRACT: note_on channel=8 note=66 velocity=0 time=0.0013888854166666665
EXTRACT: note_on channel=13 note=68 velocity=0 time=0.002777770833333333
EXTRACT: note_on channel=13 note=70 velocity=44 time=0.009722197916666666
EXTRACT: note_on channel=13 note=65 velocity=0 time=0.002777770833333333
EXTRACT: note_on channel=15 note=53 velocity=0 time=0.002777770833333333
EXTRACT: control_change channel=15 control=11 value=126 time=0.0013888854166666665
EXTRACT: note_on channel=9 note=54 velocity=49 time=0.005555541666666666
EXTRACT: note_on channel=1 note=27 velocity=119 time=0.0013888854166666665
EXTRACT: note_on channel=8 note=58 velocity=55 time=0
EXTRACT: note_on channel=9 note=46 velocity=77 time=0
EXTRACT: note_on channel=9 note=35 velocity=120 time=0
EXTRACT: note_on channel=11 note=51 velocity=71 time=0
EXTRACT: note_on channel=13 note=63 velocity=37 time=0
EXTRACT: note_on channel=2 note=39 velocity=56 time=0.004166656249999999
EXTRACT: note_on channel=15 note=39 velocity=61 time=0
EXTRACT: note_on channel=15 note=51 velocity=69 time=0.002777770833333333
EXTRACT: note_on channel=5 note=61 velocity=91 time=0.002777770833333333
EXTRACT: control_change channel=2 control=64 value=100 time=0.011111083333333332
EXTRACT: note_on channel=13 note=66 velocity=37 time=0.002777770833333333
EXTRACT: note_on channel=5 note=58 velocity=107 time=0.002777770833333333
EXTRACT: note_on channel=9 note=54 velocity=0 time=0.004166656249999999
EXTRACT: note_on channel=9 note=46 velocity=0 time=0
EXTRACT: note_on channel=9 note=35 velocity=0 time=0
EXTRACT: control_change channel=5 control=11 value=88 time=0.05277764583333333
EXTRACT: note_on channel=2 note=39 velocity=0 time=0.07222204166666665
EXTRACT: control_change channel=5 control=11 value=91 time=0.011111083333333332
EXTRACT: control_change channel=5 control=11 value=93 time=0.083333125
EXTRACT: note_on channel=8 note=61 velocity=0 time=0.06249984374999999
EXTRACT: note_on channel=15 note=51 velocity=0 time=0.012499968749999998
EXTRACT: note_on channel=9 note=46 velocity=64 time=0.008333312499999999
EXTRACT: note_on channel=9 note=54 velocity=35 time=0
EXTRACT: note_on channel=11 note=61 velocity=66 time=0
EXTRACT: control_change channel=5 control=11 value=94 time=0
EXTRACT: note_on channel=8 note=66 velocity=79 time=0.004166656249999999
EXTRACT: note_on channel=2 note=54 velocity=49 time=0.002777770833333333
EXTRACT: note_on channel=15 note=54 velocity=51 time=0
EXTRACT: note_on channel=2 note=54 velocity=0 time=0.013888854166666666
EXTRACT: note_on channel=9 note=46 velocity=0 time=0.009722197916666666
EXTRACT: note_on channel=9 note=54 velocity=0 time=0
EXTRACT: control_change channel=5 control=11 value=96 time=0.05277764583333333
EXTRACT: control_change channel=5 control=11 value=99 time=0.083333125
EXTRACT: note_on channel=8 note=58 velocity=0 time=0.083333125
EXTRACT: control_change channel=5 control=11 value=100 time=0
EXTRACT: note_on channel=15 note=39 velocity=0 time=0.030555479166666663
EXTRACT: note_on channel=11 note=51 velocity=0 time=0.0416665625
EXTRACT: note_on channel=15 note=54 velocity=0 time=0.006944427083333333
EXTRACT: note_on channel=8 note=61 velocity=75 time=0
EXTRACT: note_on channel=9 note=46 velocity=76 time=0.004166656249999999
EXTRACT: note_on channel=9 note=54 velocity=48 time=0
EXTRACT: note_on channel=11 note=54 velocity=77 time=0
EXTRACT: control_change channel=5 control=11 value=102 time=0
EXTRACT: note_on channel=9 note=39 velocity=117 time=0.002777770833333333
EXTRACT: note_on channel=2 note=58 velocity=65 time=0.004166656249999999
EXTRACT: note_on channel=15 note=58 velocity=69 time=0
EXTRACT: note_on channel=9 note=85 velocity=79 time=0.002777770833333333
EXTRACT: note_on channel=9 note=28 velocity=75 time=0
EXTRACT: note_on channel=2 note=61 velocity=85 time=0.016666624999999997
EXTRACT: note_on channel=15 note=61 velocity=87 time=0
EXTRACT: note_on channel=9 note=46 velocity=0 time=0.004166656249999999
EXTRACT: note_on channel=9 note=54 velocity=0 time=0
EXTRACT: note_on channel=9 note=39 velocity=0 time=0.004166656249999999
EXTRACT: note_on channel=9 note=85 velocity=0 time=0.006944427083333333
EXTRACT: note_on channel=9 note=28 velocity=0 time=0
EXTRACT: note_on channel=2 note=61 velocity=0 time=0
EXTRACT: note_on channel=2 note=58 velocity=0 time=0.009722197916666666
EXTRACT: note_on channel=9 note=85 velocity=126 time=0
EXTRACT: note_on channel=1 note=27 velocity=0 time=0.02083328125
EXTRACT: note_on channel=9 note=85 velocity=0 time=0.011111083333333332
EXTRACT: control_change channel=5 control=11 value=105 time=0
EXTRACT: control_change channel=5 control=11 value=107 time=0.083333125
EXTRACT: control_change channel=15 control=11 value=126 time=0
EXTRACT: note_on channel=11 note=61 velocity=0 time=0.009722197916666666
EXTRACT: control_change channel=15 control=11 value=123 time=0.03194436458333333
EXTRACT: control_change channel=5 control=11 value=108 time=0.0416665625
EXTRACT: control_change channel=6 control=11 value=89 time=0
EXTRACT: control_change channel=15 control=11 value=119 time=0
EXTRACT: control_change channel=15 control=11 value=114 time=0.0416665625
EXTRACT: note_on channel=8 note=61 velocity=0 time=0.033333249999999995
EXTRACT: note_on channel=8 note=59 velocity=75 time=0.004166656249999999
EXTRACT: note_on channel=1 note=34 velocity=120 time=0.004166656249999999
EXTRACT: note_on channel=6 note=58 velocity=99 time=0
EXTRACT: note_on channel=6 note=61 velocity=87 time=0
EXTRACT: note_on channel=9 note=46 velocity=52 time=0
EXTRACT: note_on channel=9 note=54 velocity=38 time=0
EXTRACT: note_on channel=9 note=35 velocity=112 time=0
EXTRACT: note_on channel=11 note=61 velocity=56 time=0
EXTRACT: control_change channel=5 control=11 value=111 time=0
EXTRACT: control_change channel=6 control=11 value=91 time=0
EXTRACT: control_change channel=15 control=11 value=110 time=0
EXTRACT: note_on channel=15 note=58 velocity=0 time=0.016666624999999997
EXTRACT: note_on channel=2 note=54 velocity=64 time=0.0013888854166666665
EXTRACT: note_on channel=15 note=54 velocity=69 time=0
EXTRACT: note_on channel=9 note=46 velocity=0 time=0.012499968749999998
EXTRACT: note_on channel=9 note=54 velocity=0 time=0
EXTRACT: note_on channel=9 note=35 velocity=0 time=0
EXTRACT: control_change channel=15 control=11 value=107 time=0.011111083333333332
EXTRACT: note_on channel=2 note=54 velocity=0 time=0.02083328125
EXTRACT: control_change channel=5 control=11 value=113 time=0.02083328125
EXTRACT: control_change channel=6 control=11 value=94 time=0
EXTRACT: control_change channel=15 control=11 value=102 time=0
EXTRACT: control_change channel=15 control=11 value=98 time=0.0416665625
EXTRACT: note_on channel=8 note=66 velocity=0 time=0.02777770833333333
EXTRACT: note_on channel=1 note=34 velocity=0 time=0.002777770833333333
EXTRACT: control_change channel=5 control=11 value=114 time=0.011111083333333332
EXTRACT: control_change channel=6 control=11 value=97 time=0
EXTRACT: control_change channel=15 control=11 value=95 time=0
EXTRACT: note_on channel=15 note=61 velocity=0 time=0.03749990625
EXTRACT: control_change channel=15 control=11 value=91 time=0.011111083333333332
EXTRACT: control_change channel=5 control=11 value=117 time=0.03472213541666666
EXTRACT: control_change channel=6 control=11 value=99 time=0
EXTRACT: note_on channel=13 note=70 velocity=0 time=0.004166656249999999
EXTRACT: note_on channel=15 note=54 velocity=0 time=0.012499968749999998
EXTRACT: note_on channel=3 note=70 velocity=0 time=0.013888854166666666
EXTRACT: note_on channel=11 note=54 velocity=0 time=0.005555541666666666
EXTRACT: note_on channel=13 note=71 velocity=42 time=0.02361105208333333
EXTRACT: control_change channel=2 control=64 value=0 time=0.002777770833333333
EXTRACT: note_on channel=6 note=58 velocity=0 time=0.009722197916666666
EXTRACT: note_on channel=6 note=61 velocity=0 time=0
EXTRACT: note_on channel=11 note=61 velocity=0 time=0
EXTRACT: note_on channel=5 note=63 velocity=82 time=0
EXTRACT: note_on channel=5 note=61 velocity=0 time=0.006944427083333333
EXTRACT: note_on channel=8 note=66 velocity=73 time=0
EXTRACT: note_on channel=1 note=35 velocity=120 time=0.004166656249999999
EXTRACT: note_on channel=6 note=59 velocity=99 time=0
EXTRACT: note_on channel=6 note=66 velocity=84 time=0
EXTRACT: note_on channel=9 note=46 velocity=74 time=0
EXTRACT: note_on channel=9 note=35 velocity=120 time=0
EXTRACT: note_on channel=9 note=54 velocity=51 time=0
EXTRACT: note_on channel=11 note=59 velocity=79 time=0
EXTRACT: control_change channel=5 control=11 value=119 time=0
EXTRACT: control_change channel=6 control=11 value=101 time=0
EXTRACT: control_change channel=15 control=11 value=126 time=0
EXTRACT: note_on channel=2 note=47 velocity=68 time=0.004166656249999999
EXTRACT: note_on channel=15 note=47 velocity=71 time=0
EXTRACT: control_change channel=2 control=64 value=100 time=0.005555541666666666
EXTRACT: note_on channel=5 note=58 velocity=0 time=0.005555541666666666
EXTRACT: note_on channel=5 note=59 velocity=101 time=0.0013888854166666665
EXTRACT: note_on channel=2 note=59 velocity=64 time=0.0013888854166666665
EXTRACT: note_on channel=15 note=59 velocity=69 time=0
EXTRACT: note_on channel=9 note=46 velocity=0 time=0.012499968749999998
EXTRACT: note_on channel=9 note=35 velocity=0 time=0
EXTRACT: note_on channel=9 note=54 velocity=0 time=0
EXTRACT: note_on channel=2 note=59 velocity=0 time=0.03194436458333333
EXTRACT: control_change channel=5 control=11 value=121 time=0.02083328125
EXTRACT: control_change channel=6 control=11 value=103 time=0
EXTRACT: control_change channel=5 control=11 value=123 time=0.083333125
EXTRACT: control_change channel=6 control=11 value=107 time=0
EXTRACT: note_on channel=2 note=47 velocity=0 time=0.02083328125
EXTRACT: control_change channel=5 control=11 value=125 time=0.06249984374999999
EXTRACT: control_change channel=6 control=11 value=109 time=0
EXTRACT: note_on channel=8 note=59 velocity=0 time=0.009722197916666666
EXTRACT: note_on channel=11 note=59 velocity=0 time=0.05138876041666666
EXTRACT: note_on channel=4 note=66 velocity=0 time=0.011111083333333332
EXTRACT: note_on channel=8 note=59 velocity=67 time=0.005555541666666666
EXTRACT: note_on channel=15 note=59 velocity=0 time=0.0013888854166666665
EXTRACT: note_on channel=11 note=61 velocity=78 time=0.002777770833333333
EXTRACT: note_on channel=9 note=46 velocity=51 time=0.0013888854166666665
EXTRACT: note_on channel=9 note=54 velocity=37 time=0
EXTRACT: control_change channel=5 control=11 value=127 time=0
EXTRACT: control_change channel=6 control=11 value=111 time=0
EXTRACT: note_on channel=15 note=47 velocity=0 time=0.002777770833333333
EXTRACT: note_on channel=2 note=51 velocity=52 time=0.004166656249999999
EXTRACT: note_on channel=15 note=51 velocity=57 time=0
EXTRACT: note_on channel=2 note=54 velocity=53 time=0.02083328125
EXTRACT: note_on channel=15 note=54 velocity=57 time=0
EXTRACT: note_on channel=9 note=46 velocity=0 time=0.002777770833333333
EXTRACT: note_on channel=9 note=54 velocity=0 time=0
EXTRACT: note_on channel=2 note=51 velocity=0 time=0.02083328125
EXTRACT: note_on channel=2 note=54 velocity=0 time=0.02083328125
EXTRACT: control_change channel=6 control=11 value=113 time=0.011111083333333332
EXTRACT: control_change channel=6 control=11 value=115 time=0.083333125
EXTRACT: note_on channel=15 note=54 velocity=0 time=0.07222204166666665
EXTRACT: control_change channel=6 control=11 value=119 time=0.011111083333333332
EXTRACT: note_on channel=8 note=66 velocity=0 time=0.009722197916666666
EXTRACT: note_on channel=15 note=51 velocity=0 time=0.013888854166666666
EXTRACT: note_on channel=1 note=35 velocity=0 time=0.048610989583333326
EXTRACT: note_on channel=8 note=66 velocity=75 time=0.006944427083333333
EXTRACT: note_on channel=2 note=54 velocity=64 time=0.0013888854166666665
EXTRACT: note_on channel=15 note=54 velocity=69 time=0
EXTRACT: note_on channel=11 note=61 velocity=0 time=0.002777770833333333
EXTRACT: note_on channel=9 note=46 velocity=74 time=0
EXTRACT: note_on channel=9 note=54 velocity=50 time=0
EXTRACT: note_on channel=11 note=59 velocity=78 time=0
EXTRACT: control_change channel=6 control=11 value=121 time=0
EXTRACT: note_on channel=9 note=39 velocity=117 time=0.002777770833333333
EXTRACT: note_on channel=2 note=59 velocity=78 time=0.002777770833333333
EXTRACT: note_on channel=15 note=59 velocity=83 time=0
EXTRACT: note_on channel=9 note=85 velocity=72 time=0.004166656249999999
EXTRACT: note_on channel=9 note=28 velocity=74 time=0
EXTRACT: note_on channel=2 note=59 velocity=0 time=0.011111083333333332
EXTRACT: note_on channel=2 note=54 velocity=0 time=0.009722197916666666
EXTRACT: note_on channel=9 note=46 velocity=0 time=0
EXTRACT: note_on channel=9 note=54 velocity=0 time=0
EXTRACT: note_on channel=9 note=39 velocity=0 time=0.004166656249999999
EXTRACT: note_on channel=9 note=85 velocity=0 time=0.006944427083333333
EXTRACT: note_on channel=9 note=28 velocity=0 time=0
EXTRACT: note_on channel=9 note=85 velocity=127 time=0.009722197916666666
EXTRACT: note_on channel=9 note=85 velocity=0 time=0.03194436458333333
EXTRACT: control_change channel=6 control=11 value=123 time=0
EXTRACT: control_change channel=15 control=11 value=127 time=0.05555541666666666
EXTRACT: control_change channel=6 control=11 value=127 time=0.02777770833333333
EXTRACT: control_change channel=15 control=11 value=123 time=0.013888854166666666
EXTRACT: control_change channel=15 control=11 value=118 time=0.0416665625
EXTRACT: note_on channel=8 note=59 velocity=0 time=0.006944427083333333
EXTRACT: control_change channel=15 control=11 value=115 time=0.03472213541666666
EXTRACT: note_on channel=15 note=54 velocity=0 time=0.016666624999999997
EXTRACT: control_change channel=15 control=11 value=111 time=0.024999937499999996
EXTRACT: note_on channel=15 note=59 velocity=0 time=0.02361105208333333
EXTRACT: note_on channel=8 note=59 velocity=75 time=0
EXTRACT: note_on channel=9 note=54 velocity=35 time=0.002777770833333333
EXTRACT: note_on channel=1 note=35 velocity=120 time=0.0013888854166666665
EXTRACT: note_on channel=9 note=46 velocity=58 time=0
EXTRACT: note_on channel=9 note=35 velocity=111 time=0
EXTRACT: note_on channel=11 note=54 velocity=55 time=0.005555541666666666
EXTRACT: note_on channel=2 note=51 velocity=51 time=0.0013888854166666665
EXTRACT: note_on channel=15 note=51 velocity=53 time=0
EXTRACT: control_change channel=15 control=11 value=107 time=0.006944427083333333
EXTRACT: note_on channel=2 note=54 velocity=51 time=0.013888854166666666
EXTRACT: note_on channel=15 note=54 velocity=53 time=0
EXTRACT: note_on channel=9 note=54 velocity=0 time=0.002777770833333333
EXTRACT: note_on channel=9 note=46 velocity=0 time=0
EXTRACT: note_on channel=9 note=35 velocity=0 time=0
EXTRACT: note_on channel=2 note=51 velocity=0 time=0.011111083333333332
EXTRACT: control_change channel=15 control=11 value=103 time=0.013888854166666666
EXTRACT: note_on channel=2 note=54 velocity=0 time=0.006944427083333333
EXTRACT: control_change channel=15 control=11 value=99 time=0.03472213541666666
EXTRACT: control_change channel=15 control=11 value=95 time=0.0416665625
EXTRACT: note_on channel=1 note=35 velocity=0 time=0.016666624999999997
EXTRACT: note_on channel=15 note=51 velocity=0 time=0.10416640625
EXTRACT: note_on channel=13 note=66 velocity=0 time=0.024999937499999996
EXTRACT: note_on channel=6 note=59 velocity=0 time=0.004166656249999999
EXTRACT: note_on channel=13 note=63 velocity=0 time=0.009722197916666666
EXTRACT: note_on channel=11 note=59 velocity=0 time=0.0013888854166666665
EXTRACT: control_change channel=15 control=11 value=127 time=0.005555541666666666
EXTRACT: note_on channel=13 note=71 velocity=0 time=0.004166656249999999
EXTRACT: note_on channel=8 note=59 velocity=0 time=0.002777770833333333
EXTRACT: control_change channel=2 control=64 value=0 time=0
EXTRACT: note_on channel=11 note=54 velocity=0 time=0.005555541666666666
EXTRACT: note_on channel=13 note=70 velocity=43 time=0.0013888854166666665
EXTRACT: note_on channel=5 note=59 velocity=0 time=0.002777770833333333
EXTRACT: note_on channel=6 note=66 velocity=0 time=0
EXTRACT: note_on channel=5 note=63 velocity=0 time=0.0013888854166666665
EXTRACT: note_on channel=13 note=66 velocity=32 time=0.005555541666666666
EXTRACT: note_on channel=8 note=66 velocity=0 time=0.004166656249999999
EXTRACT: note_on channel=1 note=30 velocity=114 time=0
EXTRACT: note_on channel=5 note=61 velocity=82 time=0
EXTRACT: note_on channel=6 note=58 velocity=97 time=0
EXTRACT: note_on channel=8 note=61 velocity=73 time=0
EXTRACT: note_on channel=9 note=46 velocity=76 time=0
EXTRACT: note_on channel=9 note=54 velocity=51 time=0
EXTRACT: note_on channel=9 note=35 velocity=125 time=0
EXTRACT: note_on channel=13 note=73 velocity=43 time=0
EXTRACT: note_on channel=5 note=58 velocity=90 time=0.0013888854166666665
EXTRACT: note_on channel=6 note=61 velocity=98 time=0.0013888854166666665
EXTRACT: note_on channel=2 note=42 velocity=60 time=0.0013888854166666665
EXTRACT: note_on channel=15 note=42 velocity=63 time=0
EXTRACT: note_on channel=11 note=54 velocity=73 time=0.0013888854166666665
EXTRACT: note_on channel=9 note=46 velocity=0 time=0.024999937499999996
EXTRACT: note_on channel=9 note=54 velocity=0 time=0
EXTRACT: note_on channel=9 note=35 velocity=0 time=0
EXTRACT: control_change channel=2 control=64 value=100 time=0
EXTRACT: note_on channel=2 note=42 velocity=0 time=0.12499968749999998
EXTRACT: note_on channel=15 note=54 velocity=0 time=0.048610989583333326
EXTRACT: note_on channel=15 note=42 velocity=0 time=0.10416640625
EXTRACT: note_on channel=2 note=54 velocity=48 time=0.011111083333333332
EXTRACT: note_on channel=15 note=54 velocity=51 time=0
EXTRACT: note_on channel=8 note=66 velocity=79 time=0.009722197916666666
EXTRACT: note_on channel=2 note=49 velocity=49 time=0.0013888854166666665
EXTRACT: note_on channel=15 note=49 velocity=51 time=0
EXTRACT: note_on channel=2 note=54 velocity=0 time=0.002777770833333333
EXTRACT: note_on channel=9 note=46 velocity=57 time=0
EXTRACT: note_on channel=9 note=54 velocity=33 time=0
EXTRACT: note_on channel=11 note=58 velocity=79 time=0.006944427083333333
EXTRACT: note_on channel=2 note=49 velocity=0 time=0.002777770833333333
EXTRACT: note_on channel=9 note=46 velocity=0 time=0.02083328125
EXTRACT: note_on channel=9 note=54 velocity=0 time=0
EXTRACT: note_on channel=8 note=61 velocity=0 time=0.12083303124999999
EXTRACT: note_on channel=15 note=54 velocity=0 time=0.10138863541666665
EXTRACT: note_on channel=11 note=54 velocity=0 time=0.038888791666666665
EXTRACT: note_on channel=1 note=30 velocity=0 time=0.030555479166666663
EXTRACT: note_on channel=8 note=61 velocity=75 time=0.006944427083333333
EXTRACT: note_on channel=9 note=46 velocity=81 time=0.004166656249999999
EXTRACT: note_on channel=9 note=54 velocity=51 time=0
EXTRACT: control_change channel=5 control=11 value=127 time=0
EXTRACT: note_on channel=11 note=54 velocity=72 time=0.0013888854166666665
EXTRACT: note_on channel=9 note=39 velocity=117 time=0.0013888854166666665
EXTRACT: note_on channel=15 note=49 velocity=0 time=0.0013888854166666665
EXTRACT: note_on channel=9 note=85 velocity=79 time=0.005555541666666666
EXTRACT: note_on channel=9 note=28 velocity=75 time=0
EXTRACT: note_on channel=2 note=58 velocity=50 time=0.005555541666666666
EXTRACT: note_on channel=15 note=58 velocity=76 time=0
EXTRACT: note_on channel=2 note=54 velocity=82 time=0.002777770833333333
EXTRACT: note_on channel=15 note=54 velocity=87 time=0
EXTRACT: note_on channel=9 note=46 velocity=0 time=0.012499968749999998
EXTRACT: note_on channel=9 note=54 velocity=0 time=0.0013888854166666665
EXTRACT: note_on channel=9 note=39 velocity=0 time=0.002777770833333333
EXTRACT: note_on channel=9 note=85 velocity=0 time=0.006944427083333333
EXTRACT: note_on channel=9 note=28 velocity=0 time=0
EXTRACT: note_on channel=2 note=54 velocity=0 time=0.009722197916666666
EXTRACT: note_on channel=9 note=85 velocity=127 time=0
EXTRACT: note_on channel=2 note=58 velocity=0 time=0.03194436458333333
EXTRACT: note_on channel=9 note=85 velocity=0 time=0
EXTRACT: control_change channel=5 control=11 value=125 time=0
EXTRACT: control_change channel=15 control=11 value=127 time=0.06249984374999999
EXTRACT: control_change channel=5 control=11 value=123 time=0.02083328125
EXTRACT: control_change channel=15 control=11 value=123 time=0.02083328125
EXTRACT: control_change channel=15 control=11 value=119 time=0.0416665625
EXTRACT: note_on channel=8 note=66 velocity=0 time=0.005555541666666666
EXTRACT: control_change channel=5 control=11 value=121 time=0.015277739583333332
EXTRACT: control_change channel=15 control=11 value=115 time=0.02083328125
EXTRACT: note_on channel=15 note=58 velocity=0 time=0.016666624999999997
EXTRACT: note_on channel=11 note=54 velocity=0 time=0.006944427083333333
EXTRACT: note_on channel=11 note=58 velocity=0 time=0.006944427083333333
EXTRACT: control_change channel=15 control=11 value=111 time=0.011111083333333332
EXTRACT: note_on channel=6 note=58 velocity=0 time=0.009722197916666666
EXTRACT: note_on channel=5 note=58 velocity=0 time=0
EXTRACT: note_on channel=15 note=54 velocity=0 time=0.006944427083333333
EXTRACT: note_on channel=1 note=30 velocity=115 time=0.004166656249999999
EXTRACT: note_on channel=5 note=56 velocity=97 time=0
EXTRACT: note_on channel=6 note=56 velocity=91 time=0
EXTRACT: note_on channel=8 note=65 velocity=75 time=0
EXTRACT: note_on channel=9 note=46 velocity=61 time=0
EXTRACT: note_on channel=9 note=35 velocity=111 time=0
EXTRACT: note_on channel=9 note=54 velocity=37 time=0
EXTRACT: control_change channel=5 control=11 value=119 time=0
EXTRACT: control_change channel=6 control=11 value=127 time=0
EXTRACT: note_on channel=11 note=61 velocity=72 time=0.0013888854166666665
EXTRACT: note_on channel=2 note=54 velocity=83 time=0.005555541666666666
EXTRACT: note_on channel=15 note=54 velocity=86 time=0
EXTRACT: control_change channel=15 control=11 value=107 time=0.013888854166666666
EXTRACT: note_on channel=9 note=46 velocity=0 time=0.009722197916666666
EXTRACT: note_on channel=9 note=35 velocity=0 time=0
EXTRACT: note_on channel=9 note=54 velocity=0 time=0
EXTRACT: note_on channel=2 note=54 velocity=0 time=0.011111083333333332
EXTRACT: control_change channel=15 control=11 value=103 time=0.02083328125
EXTRACT: control_change channel=5 control=11 value=117 time=0.02083328125
EXTRACT: control_change channel=6 control=11 value=125 time=0
EXTRACT: control_change channel=15 control=11 value=99 time=0.02083328125
EXTRACT: control_change channel=15 control=11 value=95 time=0.0416665625
EXTRACT: control_change channel=5 control=11 value=117 time=0.02083328125
EXTRACT: control_change channel=6 control=11 value=121 time=0
EXTRACT: control_change channel=15 control=11 value=91 time=0.02777770833333333
EXTRACT: control_change channel=5 control=11 value=115 time=0.05555541666666666
EXTRACT: control_change channel=6 control=11 value=117 time=0
EXTRACT: note_on channel=1 note=30 velocity=0 time=0.002777770833333333
EXTRACT: note_on channel=13 note=70 velocity=0 time=0.04305544791666666
EXTRACT: control_change channel=2 control=64 value=0 time=0.005555541666666666
EXTRACT: note_on channel=13 note=68 velocity=38 time=0.004166656249999999
EXTRACT: note_on channel=13 note=66 velocity=0 time=0.002777770833333333
EXTRACT: control_change channel=15 control=11 value=127 time=0.004166656249999999
EXTRACT: note_on channel=15 note=54 velocity=0 time=0.008333312499999999
EXTRACT: note_on channel=11 note=49 velocity=72 time=0.005555541666666666
EXTRACT: control_change channel=2 control=64 value=100 time=0
EXTRACT: note_on channel=1 note=25 velocity=114 time=0.006944427083333333
EXTRACT: note_on channel=2 note=49 velocity=60 time=0
EXTRACT: note_on channel=2 note=56 velocity=79 time=0
EXTRACT: note_on channel=9 note=46 velocity=81 time=0
EXTRACT: note_on channel=9 note=35 velocity=125 time=0
EXTRACT: note_on channel=9 note=54 velocity=53 time=0
EXTRACT: note_on channel=15 note=56 velocity=82 time=0
EXTRACT: control_change channel=5 control=11 value=113 time=0
EXTRACT: control_change channel=6 control=11 value=113 time=0
EXTRACT: note_on channel=2 note=49 velocity=0 time=0.005555541666666666
EXTRACT: note_on channel=13 note=65 velocity=35 time=0.006944427083333333
EXTRACT: note_on channel=2 note=61 velocity=79 time=0.008333312499999999
EXTRACT: note_on channel=15 note=61 velocity=83 time=0
EXTRACT: note_on channel=2 note=56 velocity=0 time=0.004166656249999999
EXTRACT: note_on channel=9 note=46 velocity=0 time=0.005555541666666666
EXTRACT: note_on channel=9 note=35 velocity=0 time=0
EXTRACT: note_on channel=9 note=54 velocity=0 time=0.0013888854166666665
EXTRACT: note_on channel=2 note=61 velocity=0 time=0.013888854166666666
EXTRACT: control_change channel=5 control=11 value=111 time=0.03749990625
EXTRACT: control_change channel=6 control=11 value=111 time=0
EXTRACT: control_change channel=5 control=11 value=109 time=0.083333125
EXTRACT: control_change channel=6 control=11 value=107 time=0
EXTRACT: note_on channel=1 note=25 velocity=0 time=0.02083328125
EXTRACT: note_on channel=8 note=61 velocity=0 time=0.05138876041666666
EXTRACT: control_change channel=5 control=11 value=109 time=0.011111083333333332
EXTRACT: control_change channel=6 control=11 value=103 time=0
EXTRACT: note_on channel=15 note=61 velocity=0 time=0.009722197916666666
EXTRACT: note_on channel=15 note=56 velocity=0 time=0.02083328125
EXTRACT: note_on channel=1 note=25 velocity=114 time=0.05277764583333333
EXTRACT: note_on channel=2 note=56 velocity=52 time=0
EXTRACT: note_on channel=2 note=61 velocity=85 time=0
EXTRACT: note_on channel=8 note=61 velocity=75 time=0
EXTRACT: note_on channel=9 note=46 velocity=71 time=0
EXTRACT: note_on channel=9 note=54 velocity=43 time=0
EXTRACT: note_on channel=15 note=56 velocity=57 time=0
EXTRACT: note_on channel=15 note=61 velocity=88 time=0
EXTRACT: control_change channel=5 control=11 value=107 time=0
EXTRACT: control_change channel=6 control=11 value=99 time=0
EXTRACT: control_change channel=15 control=11 value=127 time=0.006944427083333333
EXTRACT: note_on channel=2 note=56 velocity=0 time=0.002777770833333333
EXTRACT: note_on channel=2 note=61 velocity=0 time=0.015277739583333332
EXTRACT: note_on channel=9 note=46 velocity=0 time=0.005555541666666666
EXTRACT: note_on channel=9 note=54 velocity=0 time=0
EXTRACT: control_change channel=15 control=11 value=123 time=0.018055510416666663
EXTRACT: control_change channel=5 control=11 value=105 time=0.03472213541666666
EXTRACT: control_change channel=6 control=11 value=96 time=0
EXTRACT: control_change channel=15 control=11 value=119 time=0.006944427083333333
EXTRACT: control_change channel=15 control=11 value=115 time=0.0416665625
EXTRACT: note_on channel=8 note=65 velocity=0 time=0.02361105208333333
EXTRACT: control_change channel=5 control=11 value=103 time=0.011111083333333332
EXTRACT: control_change channel=6 control=11 value=93 time=0
EXTRACT: control_change channel=15 control=11 value=110 time=0.006944427083333333
EXTRACT: control_change channel=15 control=11 value=107 time=0.0416665625
EXTRACT: note_on channel=11 note=61 velocity=0 time=0.02083328125
EXTRACT: control_change channel=5 control=11 value=101 time=0.013888854166666666
EXTRACT: control_change channel=6 control=11 value=88 time=0
EXTRACT: control_change channel=15 control=11 value=102 time=0.006944427083333333
EXTRACT: note_on channel=1 note=25 velocity=0 time=0.013888854166666666
EXTRACT: control_change channel=15 control=11 value=98 time=0.02777770833333333
EXTRACT: note_on channel=11 note=49 velocity=0 time=0.008333312499999999
EXTRACT: note_on channel=15 note=56 velocity=0 time=0.013888854166666666
EXTRACT: note_on channel=15 note=61 velocity=0 time=0
EXTRACT: note_on channel=3 note=66 velocity=111 time=0
EXTRACT: note_on channel=1 note=25 velocity=115 time=0.0013888854166666665
EXTRACT: note_on channel=2 note=56 velocity=53 time=0
EXTRACT: note_on channel=2 note=61 velocity=63 time=0
EXTRACT: note_on channel=4 note=61 velocity=1 time=0
EXTRACT: note_on channel=9 note=46 velocity=81 time=0
EXTRACT: note_on channel=9 note=54 velocity=53 time=0
EXTRACT: note_on channel=15 note=56 velocity=56 time=0
EXTRACT: note_on channel=15 note=61 velocity=67 time=0
EXTRACT: control_change channel=5 control=11 value=100 time=0
EXTRACT: control_change channel=6 control=11 value=84 time=0
EXTRACT: note_on channel=8 note=65 velocity=91 time=0.0013888854166666665
EXTRACT: note_on channel=9 note=39 velocity=111 time=0.0013888854166666665
EXTRACT: note_on channel=11 note=56 velocity=82 time=0
EXTRACT: control_change channel=15 control=11 value=95 time=0.004166656249999999
EXTRACT: note_on channel=2 note=56 velocity=0 time=0.002777770833333333
EXTRACT: note_on channel=9 note=85 velocity=73 time=0
EXTRACT: note_on channel=9 note=28 velocity=97 time=0
EXTRACT: note_on channel=2 note=61 velocity=0 time=0.015277739583333332
EXTRACT: note_on channel=9 note=46 velocity=0 time=0.005555541666666666
EXTRACT: note_on channel=9 note=54 velocity=0 time=0.0013888854166666665
EXTRACT: note_on channel=9 note=39 velocity=0 time=0.002777770833333333
EXTRACT: note_on channel=9 note=85 velocity=0 time=0.006944427083333333
EXTRACT: note_on channel=9 note=28 velocity=0 time=0
EXTRACT: note_on channel=9 note=85 velocity=126 time=0.009722197916666666
EXTRACT: control_change channel=15 control=11 value=90 time=0.004166656249999999
EXTRACT: note_on channel=9 note=85 velocity=0 time=0.02777770833333333
EXTRACT: control_change channel=5 control=11 value=99 time=0
EXTRACT: control_change channel=6 control=11 value=83 time=0
EXTRACT: note_on channel=8 note=65 velocity=0 time=0.06249984374999999
EXTRACT: note_on channel=8 note=66 velocity=76 time=0.008333312499999999
EXTRACT: control_change channel=5 control=11 value=96 time=0.012499968749999998
EXTRACT: control_change channel=6 control=11 value=78 time=0
EXTRACT: note_on channel=8 note=61 velocity=0 time=0.07222204166666665
EXTRACT: control_change channel=5 control=11 value=94 time=0.011111083333333332
EXTRACT: control_change channel=6 control=11 value=75 time=0
EXTRACT: note_on channel=3 note=66 velocity=0 time=0.004166656249999999
EXTRACT: note_on channel=1 note=25 velocity=0 time=0.016666624999999997
EXTRACT: control_change channel=15 control=11 value=127 time=0.02777770833333333
EXTRACT: note_on channel=4 note=61 velocity=0 time=0.022222166666666664
EXTRACT: note_on channel=15 note=56 velocity=0 time=0
EXTRACT: note_on channel=15 note=61 velocity=0 time=0
EXTRACT: note_on channel=5 note=56 velocity=0 time=0.0013888854166666665
EXTRACT: note_on channel=3 note=68 velocity=111 time=0
EXTRACT: note_on channel=1 note=25 velocity=115 time=0.006944427083333333
EXTRACT: note_on channel=2 note=49 velocity=53 time=0
EXTRACT: note_on channel=4 note=63 velocity=1 time=0
EXTRACT: note_on channel=9 note=46 velocity=62 time=0
EXTRACT: note_on channel=9 note=35 velocity=116 time=0
EXTRACT: note_on channel=9 note=54 velocity=43 time=0
EXTRACT: note_on channel=15 note=49 velocity=54 time=0
EXTRACT: control_change channel=5 control=11 value=93 time=0
EXTRACT: control_change channel=6 control=11 value=70 time=0
EXTRACT: note_on channel=8 note=61 velocity=73 time=0.006944427083333333
EXTRACT: note_on channel=2 note=56 velocity=61 time=0.008333312499999999
EXTRACT: note_on channel=15 note=56 velocity=64 time=0
EXTRACT: note_on channel=5 note=61 velocity=0 time=0.012499968749999998
EXTRACT: note_on channel=9 note=46 velocity=0 time=0.002777770833333333
EXTRACT: note_on channel=9 note=35 velocity=0 time=0
EXTRACT: note_on channel=9 note=54 velocity=0 time=0
EXTRACT: note_on channel=2 note=56 velocity=0 time=0.011111083333333332
EXTRACT: note_on channel=6 note=61 velocity=0 time=0.009722197916666666
EXTRACT: control_change channel=5 control=11 value=90 time=0.03194436458333333
EXTRACT: control_change channel=6 control=11 value=69 time=0
EXTRACT: note_on channel=6 note=56 velocity=0 time=0.02083328125
EXTRACT: control_change channel=6 control=11 value=64 time=0.06249984374999999
EXTRACT: note_on channel=13 note=73 velocity=0 time=0.018055510416666663
EXTRACT: note_on channel=3 note=68 velocity=0 time=0.02083328125
EXTRACT: control_change channel=2 control=64 value=0 time=0.0749998125
EXTRACT: note_on channel=13 note=68 velocity=0 time=0.0013888854166666665
EXTRACT: note_on channel=8 note=66 velocity=0 time=0.004166656249999999
EXTRACT: note_on channel=15 note=49 velocity=0 time=0.0013888854166666665
EXTRACT: note_on channel=11 note=56 velocity=0 time=0.004166656249999999
EXTRACT: control_change channel=5 control=11 value=87 time=0.013888854166666666
EXTRACT: note_on channel=13 note=70 velocity=45 time=0.013888854166666666
EXTRACT: note_on channel=4 note=63 velocity=0 time=0.0013888854166666665
EXTRACT: note_on channel=13 note=63 velocity=35 time=0
EXTRACT: note_on channel=13 note=65 velocity=0 time=0.0013888854166666665
EXTRACT: note_on channel=1 note=25 velocity=0 time=0
EXTRACT: note_on channel=15 note=56 velocity=0 time=0.002777770833333333
EXTRACT: note_on channel=3 note=70 velocity=111 time=0
EXTRACT: note_on channel=8 note=58 velocity=62 time=0
EXTRACT: note_on channel=9 note=54 velocity=49 time=0.004166656249999999
EXTRACT: note_on channel=1 note=27 velocity=118 time=0.0013888854166666665
EXTRACT: note_on channel=4 note=61 velocity=1 time=0
EXTRACT: note_on channel=4 note=66 velocity=1 time=0
EXTRACT: note_on channel=9 note=46 velocity=77 time=0
EXTRACT: note_on channel=9 note=35 velocity=120 time=0
EXTRACT: note_on channel=11 note=51 velocity=71 time=0
EXTRACT: note_on channel=2 note=39 velocity=57 time=0.004166656249999999
EXTRACT: note_on channel=15 note=54 velocity=61 time=0
EXTRACT: note_on channel=5 note=61 velocity=90 time=0.005555541666666666
EXTRACT: control_change channel=2 control=64 value=100 time=0.011111083333333332
EXTRACT: note_on channel=13 note=66 velocity=37 time=0.002777770833333333
EXTRACT: note_on channel=2 note=54 velocity=57 time=0.0013888854166666665
EXTRACT: note_on channel=5 note=58 velocity=107 time=0.0013888854166666665
EXTRACT: note_on channel=9 note=54 velocity=0 time=0.004166656249999999
EXTRACT: note_on channel=9 note=46 velocity=0 time=0
EXTRACT: note_on channel=9 note=35 velocity=0 time=0
EXTRACT: note_on channel=2 note=54 velocity=0 time=0.011111083333333332
EXTRACT: note_on channel=2 note=58 velocity=57 time=0.004166656249999999
EXTRACT: note_on channel=15 note=58 velocity=61 time=0
EXTRACT: note_on channel=2 note=39 velocity=0 time=0.005555541666666666
EXTRACT: note_on channel=2 note=58 velocity=0 time=0.011111083333333332
EXTRACT: control_change channel=5 control=11 value=88 time=0.02083328125
EXTRACT: control_change channel=5 control=11 value=91 time=0.083333125
EXTRACT: note_on channel=15 note=54 velocity=0 time=0.058333187499999994
EXTRACT: note_on channel=3 note=70 velocity=0 time=0.013888854166666666
EXTRACT: control_change channel=5 control=11 value=92 time=0.011111083333333332
EXTRACT: note_on channel=8 note=61 velocity=0 time=0.030555479166666663
EXTRACT: note_on channel=15 note=58 velocity=0 time=0.048610989583333326
EXTRACT: note_on channel=3 note=70 velocity=111 time=0
EXTRACT: note_on channel=9 note=46 velocity=65 time=0.002777770833333333
EXTRACT: note_on channel=9 note=54 velocity=34 time=0
EXTRACT: note_on channel=11 note=61 velocity=66 time=0
EXTRACT: control_change channel=5 control=11 value=94 time=0
EXTRACT: note_on channel=8 note=66 velocity=78 time=0.004166656249999999
EXTRACT: note_on channel=2 note=54 velocity=51 time=0.002777770833333333
EXTRACT: note_on channel=15 note=54 velocity=55 time=0
EXTRACT: note_on channel=2 note=51 velocity=51 time=0.011111083333333332
EXTRACT: note_on channel=15 note=51 velocity=54 time=0
EXTRACT: note_on channel=2 note=54 velocity=0 time=0.002777770833333333
EXTRACT: note_on channel=9 note=46 velocity=0 time=0.009722197916666666
EXTRACT: note_on channel=9 note=54 velocity=0 time=0
EXTRACT: note_on channel=2 note=51 velocity=0 time=0
EXTRACT: control_change channel=5 control=11 value=97 time=0.05277764583333333
EXTRACT: control_change channel=5 control=11 value=99 time=0.083333125
EXTRACT: note_on channel=3 note=70 velocity=0 time=0.012499968749999998
EXTRACT: note_on channel=8 note=58 velocity=0 time=0.06527761458333332
EXTRACT: control_change channel=5 control=11 value=101 time=0.005555541666666666
EXTRACT: note_on channel=15 note=54 velocity=0 time=0.030555479166666663
EXTRACT: note_on channel=1 note=27 velocity=0 time=0.0416665625
EXTRACT: note_on channel=11 note=51 velocity=0 time=0
EXTRACT: note_on channel=15 note=51 velocity=0 time=0.006944427083333333
EXTRACT: note_on channel=3 note=70 velocity=111 time=0
EXTRACT: note_on channel=8 note=61 velocity=75 time=0
EXTRACT: note_on channel=9 note=46 velocity=76 time=0.004166656249999999
EXTRACT: note_on channel=9 note=54 velocity=48 time=0
EXTRACT: note_on channel=11 note=54 velocity=76 time=0
EXTRACT: control_change channel=5 control=11 value=102 time=0
EXTRACT: note_on channel=9 note=39 velocity=113 time=0.002777770833333333
EXTRACT: note_on channel=2 note=58 velocity=65 time=0.004166656249999999
EXTRACT: note_on channel=15 note=58 velocity=68 time=0
EXTRACT: note_on channel=9 note=28 velocity=69 time=0.002777770833333333
EXTRACT: note_on channel=9 note=85 velocity=79 time=0.005555541666666666
EXTRACT: note_on channel=2 note=61 velocity=79 time=0.011111083333333332
EXTRACT: note_on channel=15 note=61 velocity=80 time=0
EXTRACT: note_on channel=9 note=46 velocity=0 time=0.004166656249999999
EXTRACT: note_on channel=9 note=54 velocity=0 time=0
EXTRACT: note_on channel=9 note=39 velocity=0 time=0.004166656249999999
EXTRACT: note_on channel=9 note=28 velocity=0 time=0.006944427083333333
EXTRACT: note_on channel=2 note=61 velocity=0 time=0
EXTRACT: note_on channel=9 note=85 velocity=0 time=0.005555541666666666
EXTRACT: note_on channel=2 note=58 velocity=0 time=0.004166656249999999
EXTRACT: note_on channel=9 note=85 velocity=126 time=0.005555541666666666
EXTRACT: control_change channel=5 control=11 value=104 time=0.026388822916666665
EXTRACT: note_on channel=9 note=85 velocity=0 time=0.005555541666666666
EXTRACT: control_change channel=5 control=11 value=106 time=0.07777758333333333
EXTRACT: control_change channel=15 control=11 value=126 time=0
EXTRACT: note_on channel=11 note=61 velocity=0 time=0.009722197916666666
EXTRACT: control_change channel=15 control=11 value=123 time=0.03194436458333333
EXTRACT: control_change channel=5 control=11 value=108 time=0.0416665625
EXTRACT: control_change channel=6 control=11 value=88 time=0
EXTRACT: control_change channel=15 control=11 value=118 time=0
EXTRACT: note_on channel=3 note=70 velocity=0 time=0.015277739583333332
EXTRACT: control_change channel=15 control=11 value=114 time=0.026388822916666665
EXTRACT: note_on channel=4 note=61 velocity=0 time=0.029166593749999997
EXTRACT: note_on channel=4 note=66 velocity=0 time=0
EXTRACT: note_on channel=8 note=61 velocity=0 time=0.004166656249999999
EXTRACT: note_on channel=3 note=71 velocity=111 time=0
EXTRACT: note_on channel=15 note=61 velocity=0 time=0.004166656249999999
EXTRACT: note_on channel=8 note=59 velocity=74 time=0
EXTRACT: note_on channel=1 note=34 velocity=120 time=0.004166656249999999
EXTRACT: note_on channel=4 note=63 velocity=1 time=0
EXTRACT: note_on channel=4 note=68 velocity=1 time=0
EXTRACT: note_on channel=6 note=58 velocity=99 time=0
EXTRACT: note_on channel=9 note=46 velocity=52 time=0
EXTRACT: note_on channel=9 note=54 velocity=38 time=0
EXTRACT: note_on channel=9 note=35 velocity=110 time=0
EXTRACT: note_on channel=11 note=61 velocity=69 time=0
EXTRACT: control_change channel=5 control=11 value=111 time=0
EXTRACT: control_change channel=6 control=11 value=91 time=0
EXTRACT: control_change channel=15 control=11 value=111 time=0
EXTRACT: note_on channel=2 note=54 velocity=65 time=0.006944427083333333
EXTRACT: note_on channel=15 note=54 velocity=68 time=0
EXTRACT: note_on channel=6 note=61 velocity=87 time=0.002777770833333333
EXTRACT: note_on channel=9 note=46 velocity=0 time=0.02083328125
EXTRACT: note_on channel=9 note=54 velocity=0 time=0
EXTRACT: note_on channel=9 note=35 velocity=0 time=0
EXTRACT: control_change channel=15 control=11 value=107 time=0.011111083333333332
EXTRACT: note_on channel=2 note=54 velocity=0 time=0.009722197916666666
EXTRACT: control_change channel=5 control=11 value=112 time=0.03194436458333333
EXTRACT: control_change channel=6 control=11 value=95 time=0
EXTRACT: control_change channel=15 control=11 value=103 time=0
EXTRACT: control_change channel=15 control=11 value=98 time=0.0416665625
EXTRACT: note_on channel=8 note=66 velocity=0 time=0.02777770833333333
EXTRACT: control_change channel=5 control=11 value=114 time=0.013888854166666666
EXTRACT: control_change channel=6 control=11 value=97 time=0
EXTRACT: control_change channel=15 control=11 value=94 time=0
EXTRACT: control_change channel=15 control=11 value=90 time=0.048610989583333326
EXTRACT: note_on channel=3 note=71 velocity=0 time=0.012499968749999998
EXTRACT: control_change channel=5 control=11 value=117 time=0.022222166666666664
EXTRACT: control_change channel=6 control=11 value=98 time=0
EXTRACT: note_on channel=13 note=70 velocity=0 time=0.004166656249999999
EXTRACT: note_on channel=15 note=58 velocity=0 time=0.026388822916666665
EXTRACT: note_on channel=11 note=54 velocity=0 time=0.005555541666666666
EXTRACT: note_on channel=13 note=71 velocity=43 time=0.02361105208333333
EXTRACT: control_change channel=2 control=64 value=0 time=0.002777770833333333
EXTRACT: note_on channel=4 note=63 velocity=0 time=0.008333312499999999
EXTRACT: note_on channel=4 note=68 velocity=0 time=0
EXTRACT: note_on channel=1 note=34 velocity=0 time=0.0013888854166666665
EXTRACT: note_on channel=6 note=58 velocity=0 time=0
EXTRACT: note_on channel=11 note=61 velocity=0 time=0
EXTRACT: note_on channel=5 note=63 velocity=82 time=0
EXTRACT: note_on channel=15 note=54 velocity=0 time=0.002777770833333333
EXTRACT: note_on channel=5 note=61 velocity=0 time=0.004166656249999999
EXTRACT: note_on channel=3 note=70 velocity=111 time=0
EXTRACT: note_on channel=8 note=66 velocity=73 time=0
EXTRACT: note_on channel=6 note=61 velocity=0 time=0.004166656249999999
EXTRACT: note_on channel=1 note=35 velocity=121 time=0
EXTRACT: note_on channel=4 note=61 velocity=1 time=0
EXTRACT: note_on channel=4 note=66 velocity=1 time=0
EXTRACT: note_on channel=6 note=59 velocity=99 time=0
EXTRACT: note_on channel=6 note=66 velocity=85 time=0
EXTRACT: note_on channel=9 note=46 velocity=74 time=0
EXTRACT: note_on channel=9 note=35 velocity=121 time=0
EXTRACT: note_on channel=9 note=54 velocity=50 time=0
EXTRACT: note_on channel=11 note=59 velocity=79 time=0
EXTRACT: control_change channel=5 control=11 value=119 time=0
EXTRACT: control_change channel=6 control=11 value=100 time=0
EXTRACT: control_change channel=15 control=11 value=126 time=0
EXTRACT: note_on channel=2 note=47 velocity=69 time=0.004166656249999999
EXTRACT: note_on channel=15 note=47 velocity=71 time=0
EXTRACT: control_change channel=2 control=64 value=100 time=0.005555541666666666
EXTRACT: note_on channel=2 note=59 velocity=69 time=0.004166656249999999
EXTRACT: note_on channel=15 note=59 velocity=70 time=0
EXTRACT: note_on channel=5 note=58 velocity=0 time=0.0013888854166666665
EXTRACT: note_on channel=5 note=59 velocity=101 time=0.0013888854166666665
EXTRACT: note_on channel=9 note=46 velocity=0 time=0.013888854166666666
EXTRACT: note_on channel=9 note=35 velocity=0 time=0
EXTRACT: note_on channel=9 note=54 velocity=0 time=0
EXTRACT: note_on channel=15 note=47 velocity=0 time=0.02083328125
EXTRACT: note_on channel=2 note=59 velocity=0 time=0.011111083333333332
EXTRACT: control_change channel=5 control=11 value=120 time=0.02083328125
EXTRACT: control_change channel=6 control=11 value=102 time=0
EXTRACT: note_on channel=2 note=47 velocity=0 time=0.009722197916666666
EXTRACT: control_change channel=5 control=11 value=122 time=0.07361092708333332
EXTRACT: control_change channel=6 control=11 value=106 time=0
EXTRACT: control_change channel=5 control=11 value=125 time=0.083333125
EXTRACT: control_change channel=6 control=11 value=109 time=0
EXTRACT: note_on channel=8 note=59 velocity=0 time=0.009722197916666666
EXTRACT: note_on channel=3 note=70 velocity=0 time=0
EXTRACT: note_on channel=11 note=59 velocity=0 time=0.05138876041666666
EXTRACT: note_on channel=4 note=61 velocity=0 time=0.009722197916666666
EXTRACT: note_on channel=4 note=66 velocity=0 time=0
EXTRACT: note_on channel=8 note=59 velocity=66 time=0.006944427083333333
EXTRACT: note_on channel=15 note=59 velocity=0 time=0.0013888854166666665
EXTRACT: note_on channel=11 note=61 velocity=78 time=0.002777770833333333
EXTRACT: note_on channel=4 note=63 velocity=1 time=0.0013888854166666665
EXTRACT: note_on channel=4 note=66 velocity=1 time=0
EXTRACT: note_on channel=9 note=46 velocity=51 time=0
EXTRACT: note_on channel=9 note=54 velocity=37 time=0
EXTRACT: control_change channel=5 control=11 value=126 time=0
EXTRACT: control_change channel=6 control=11 value=110 time=0
EXTRACT: note_on channel=2 note=51 velocity=47 time=0.006944427083333333
EXTRACT: note_on channel=15 note=51 velocity=48 time=0
EXTRACT: note_on channel=3 note=68 velocity=111 time=0
EXTRACT: note_on channel=2 note=54 velocity=47 time=0.0013888854166666665
EXTRACT: note_on channel=15 note=54 velocity=49 time=0
EXTRACT: note_on channel=9 note=46 velocity=0 time=0.012499968749999998
EXTRACT: note_on channel=9 note=54 velocity=0 time=0
EXTRACT: note_on channel=2 note=51 velocity=0 time=0.02083328125
EXTRACT: note_on channel=2 note=54 velocity=0 time=0.011111083333333332
EXTRACT: control_change channel=6 control=11 value=112 time=0.02083328125
EXTRACT: control_change channel=6 control=11 value=115 time=0.083333125
EXTRACT: note_on channel=3 note=68 velocity=0 time=0.083333125
EXTRACT: control_change channel=6 control=11 value=119 time=0
EXTRACT: note_on channel=8 note=66 velocity=0 time=0.009722197916666666
EXTRACT: note_on channel=15 note=51 velocity=0 time=0.013888854166666666
EXTRACT: note_on channel=15 note=54 velocity=0 time=0
EXTRACT: note_on channel=1 note=35 velocity=0 time=0.048610989583333326
EXTRACT: note_on channel=8 note=66 velocity=75 time=0.006944427083333333
EXTRACT: note_on channel=2 note=54 velocity=75 time=0.0013888854166666665
EXTRACT: note_on channel=15 note=54 velocity=79 time=0
EXTRACT: note_on channel=9 note=46 velocity=74 time=0.002777770833333333
EXTRACT: note_on channel=9 note=54 velocity=50 time=0
EXTRACT: note_on channel=11 note=59 velocity=78 time=0
EXTRACT: control_change channel=6 control=11 value=120 time=0
EXTRACT: note_on channel=11 note=61 velocity=0 time=0
EXTRACT: note_on channel=9 note=39 velocity=115 time=0.002777770833333333
EXTRACT: note_on channel=2 note=59 velocity=79 time=0.002777770833333333
EXTRACT: note_on channel=15 note=59 velocity=80 time=0
EXTRACT: note_on channel=9 note=28 velocity=72 time=0.004166656249999999
EXTRACT: note_on channel=9 note=85 velocity=72 time=0.005555541666666666
EXTRACT: note_on channel=2 note=59 velocity=0 time=0.005555541666666666
EXTRACT: note_on channel=2 note=54 velocity=0 time=0.009722197916666666
EXTRACT: note_on channel=9 note=46 velocity=0 time=0
EXTRACT: note_on channel=9 note=54 velocity=0 time=0
EXTRACT: note_on channel=9 note=39 velocity=0 time=0.004166656249999999
EXTRACT: note_on channel=9 note=28 velocity=0 time=0.006944427083333333
EXTRACT: note_on channel=9 note=85 velocity=0 time=0.005555541666666666
EXTRACT: note_on channel=9 note=85 velocity=127 time=0.009722197916666666
EXTRACT: control_change channel=6 control=11 value=122 time=0.026388822916666665
EXTRACT: note_on channel=9 note=85 velocity=0 time=0.005555541666666666
EXTRACT: control_change channel=15 control=11 value=127 time=0.04999987499999999
EXTRACT: note_on channel=4 note=63 velocity=0 time=0.016666624999999997
EXTRACT: note_on channel=4 note=66 velocity=0 time=0
EXTRACT: control_change channel=6 control=11 value=127 time=0.011111083333333332
EXTRACT: control_change channel=15 control=11 value=122 time=0.013888854166666666
EXTRACT: control_change channel=15 control=11 value=118 time=0.0416665625
EXTRACT: note_on channel=8 note=59 velocity=0 time=0.006944427083333333
EXTRACT: note_on channel=15 note=54 velocity=0 time=0.002777770833333333
EXTRACT: control_change channel=15 control=11 value=115 time=0.03194436458333333
EXTRACT: control_change channel=15 control=11 value=111 time=0.0416665625
EXTRACT: note_on channel=3 note=66 velocity=111 time=0
EXTRACT: note_on channel=15 note=59 velocity=0 time=0.015277739583333332
EXTRACT: note_on channel=8 note=59 velocity=74 time=0
EXTRACT: note_on channel=9 note=54 velocity=35 time=0.002777770833333333
EXTRACT: note_on channel=1 note=35 velocity=120 time=0.0013888854166666665
EXTRACT: note_on channel=4 note=61 velocity=1 time=0
EXTRACT: note_on channel=9 note=46 velocity=59 time=0
EXTRACT: note_on channel=9 note=35 velocity=112 time=0
EXTRACT: note_on channel=11 note=54 velocity=55 time=0.005555541666666666
EXTRACT: note_on channel=2 note=49 velocity=39 time=0.0013888854166666665
EXTRACT: note_on channel=15 note=49 velocity=40 time=0
EXTRACT: control_change channel=15 control=11 value=106 time=0.006944427083333333
EXTRACT: note_on channel=2 note=54 velocity=75 time=0.004166656249999999
EXTRACT: note_on channel=15 note=54 velocity=79 time=0
EXTRACT: note_on channel=9 note=46 velocity=0 time=0.012499968749999998
EXTRACT: note_on channel=9 note=35 velocity=0 time=0
EXTRACT: note_on channel=9 note=54 velocity=0 time=0
EXTRACT: note_on channel=2 note=49 velocity=0 time=0.02083328125
EXTRACT: note_on channel=2 note=54 velocity=0 time=0
EXTRACT: control_change channel=15 control=11 value=102 time=0.004166656249999999
EXTRACT: control_change channel=15 control=11 value=99 time=0.0416665625
EXTRACT: note_on channel=3 note=66 velocity=0 time=0.016666624999999997
EXTRACT: note_on channel=15 note=49 velocity=0 time=0.02083328125
EXTRACT: control_change channel=15 control=11 value=94 time=0.004166656249999999
EXTRACT: note_on channel=3 note=68 velocity=111 time=0
EXTRACT: note_on channel=4 note=61 velocity=0 time=0.006944427083333333
EXTRACT: note_on channel=4 note=63 velocity=1 time=0.012499968749999998
EXTRACT: control_change channel=15 control=11 value=90 time=0.02083328125
EXTRACT: note_on channel=13 note=63 velocity=0 time=0.05555541666666666
EXTRACT: note_on channel=3 note=68 velocity=0 time=0.016666624999999997
EXTRACT: note_on channel=13 note=66 velocity=0 time=0.024999937499999996
EXTRACT: note_on channel=6 note=59 velocity=0 time=0.004166656249999999
EXTRACT: note_on channel=1 note=35 velocity=0 time=0.002777770833333333
EXTRACT: note_on channel=11 note=59 velocity=0 time=0.008333312499999999
EXTRACT: control_change channel=15 control=11 value=127 time=0.005555541666666666
EXTRACT: note_on channel=13 note=71 velocity=0 time=0.004166656249999999
EXTRACT: note_on channel=8 note=59 velocity=0 time=0.002777770833333333
EXTRACT: control_change channel=2 control=64 value=0 time=0
EXTRACT: note_on channel=11 note=54 velocity=0 time=0.005555541666666666
EXTRACT: note_on channel=13 note=70 velocity=43 time=0.0013888854166666665
EXTRACT: note_on channel=4 note=63 velocity=0 time=0.0013888854166666665
EXTRACT: note_on channel=3 note=70 velocity=111 time=0
EXTRACT: note_on channel=5 note=59 velocity=0 time=0.0013888854166666665
EXTRACT: note_on channel=6 note=66 velocity=0 time=0
EXTRACT: note_on channel=5 note=63 velocity=0 time=0.0013888854166666665
EXTRACT: note_on channel=15 note=54 velocity=0 time=0.0013888854166666665
EXTRACT: note_on channel=13 note=66 velocity=33 time=0.004166656249999999
EXTRACT: note_on channel=8 note=66 velocity=0 time=0.004166656249999999
EXTRACT: note_on channel=4 note=61 velocity=1 time=0
EXTRACT: note_on channel=4 note=66 velocity=1 time=0
EXTRACT: note_on channel=5 note=61 velocity=82 time=0
EXTRACT: note_on channel=6 note=58 velocity=97 time=0
EXTRACT: note_on channel=8 note=61 velocity=72 time=0
EXTRACT: note_on channel=9 note=46 velocity=77 time=0
EXTRACT: note_on channel=9 note=54 velocity=50 time=0
EXTRACT: note_on channel=9 note=35 velocity=125 time=0
EXTRACT: note_on channel=5 note=58 velocity=90 time=0.0013888854166666665
EXTRACT: note_on channel=13 note=61 velocity=31 time=0
EXTRACT: note_on channel=6 note=61 velocity=99 time=0.0013888854166666665
EXTRACT: note_on channel=2 note=42 velocity=61 time=0.0013888854166666665
EXTRACT: note_on channel=11 note=54 velocity=72 time=0.0013888854166666665
EXTRACT: note_on channel=1 note=42 velocity=122 time=0.0013888854166666665
EXTRACT: note_on channel=2 note=58 velocity=53 time=0.011111083333333332
EXTRACT: note_on channel=15 note=58 velocity=56 time=0
EXTRACT: note_on channel=2 note=61 velocity=52 time=0.009722197916666666
EXTRACT: note_on channel=15 note=61 velocity=56 time=0
EXTRACT: note_on channel=9 note=46 velocity=0 time=0.002777770833333333
EXTRACT: note_on channel=9 note=54 velocity=0 time=0
EXTRACT: note_on channel=9 note=35 velocity=0 time=0
EXTRACT: note_on channel=2 note=58 velocity=0 time=0
EXTRACT: control_change channel=2 control=64 value=100 time=0
EXTRACT: note_on channel=2 note=42 velocity=0 time=0
EXTRACT: note_on channel=2 note=61 velocity=0 time=0.011111083333333332
EXTRACT: note_on channel=3 note=70 velocity=0 time=0.13472188541666666
EXTRACT: note_on channel=15 note=58 velocity=0 time=0.03472213541666666
EXTRACT: note_on channel=15 note=61 velocity=0 time=0.10694417708333333
EXTRACT: note_on channel=3 note=70 velocity=111 time=0
EXTRACT: note_on channel=8 note=66 velocity=79 time=0.005555541666666666
EXTRACT: note_on channel=2 note=49 velocity=53 time=0.0013888854166666665
EXTRACT: note_on channel=15 note=49 velocity=57 time=0
EXTRACT: note_on channel=9 note=46 velocity=57 time=0.002777770833333333
EXTRACT: note_on channel=9 note=54 velocity=33 time=0
EXTRACT: note_on channel=2 note=54 velocity=52 time=0.006944427083333333
EXTRACT: note_on channel=11 note=58 velocity=78 time=0
EXTRACT: note_on channel=15 note=54 velocity=57 time=0
EXTRACT: note_on channel=2 note=49 velocity=0 time=0.002777770833333333
EXTRACT: note_on channel=2 note=54 velocity=0 time=0.011111083333333332
EXTRACT: note_on channel=9 note=46 velocity=0 time=0.009722197916666666
EXTRACT: note_on channel=9 note=54 velocity=0 time=0
EXTRACT: note_on channel=8 note=61 velocity=0 time=0.12083303124999999
EXTRACT: note_on channel=3 note=70 velocity=0 time=0.06666649999999999
EXTRACT: note_on channel=15 note=49 velocity=0 time=0
EXTRACT: note_on channel=15 note=54 velocity=0 time=0.06944427083333332
EXTRACT: note_on channel=11 note=54 velocity=0 time=0.004166656249999999
EXTRACT: note_on channel=1 note=42 velocity=0 time=0.009722197916666666
EXTRACT: note_on channel=8 note=61 velocity=75 time=0.02777770833333333
EXTRACT: note_on channel=9 note=46 velocity=81 time=0.004166656249999999
EXTRACT: note_on channel=9 note=54 velocity=51 time=0
EXTRACT: control_change channel=5 control=11 value=126 time=0
EXTRACT: note_on channel=11 note=54 velocity=73 time=0.0013888854166666665
EXTRACT: note_on channel=9 note=39 velocity=115 time=0.0013888854166666665
EXTRACT: note_on channel=9 note=85 velocity=79 time=0.006944427083333333
EXTRACT: note_on channel=9 note=28 velocity=73 time=0
EXTRACT: note_on channel=2 note=58 velocity=54 time=0
EXTRACT: note_on channel=3 note=70 velocity=111 time=0
EXTRACT: note_on channel=15 note=58 velocity=58 time=0
EXTRACT: note_on channel=2 note=54 velocity=73 time=0.002777770833333333
EXTRACT: note_on channel=15 note=54 velocity=77 time=0
EXTRACT: note_on channel=9 note=46 velocity=0 time=0.012499968749999998
EXTRACT: note_on channel=9 note=54 velocity=0 time=0.0013888854166666665
EXTRACT: note_on channel=9 note=39 velocity=0 time=0.002777770833333333
EXTRACT: note_on channel=9 note=85 velocity=0 time=0.006944427083333333
EXTRACT: note_on channel=9 note=28 velocity=0 time=0
EXTRACT: note_on channel=2 note=54 velocity=0 time=0.009722197916666666
EXTRACT: note_on channel=9 note=85 velocity=127 time=0
EXTRACT: note_on channel=2 note=58 velocity=0 time=0.03194436458333333
EXTRACT: note_on channel=9 note=85 velocity=0 time=0
EXTRACT: control_change channel=5 control=11 value=125 time=0
EXTRACT: control_change channel=15 control=11 value=127 time=0.06249984374999999
EXTRACT: control_change channel=5 control=11 value=123 time=0.02083328125
EXTRACT: note_on channel=15 note=58 velocity=0 time=0.016666624999999997
EXTRACT: control_change channel=15 control=11 value=122 time=0.004166656249999999
EXTRACT: note_on channel=3 note=70 velocity=0 time=0.030555479166666663
EXTRACT: control_change channel=15 control=11 value=119 time=0.011111083333333332
EXTRACT: note_on channel=8 note=66 velocity=0 time=0.005555541666666666
EXTRACT: control_change channel=5 control=11 value=120 time=0.015277739583333332
EXTRACT: control_change channel=15 control=11 value=115 time=0.02083328125
EXTRACT: note_on channel=11 note=54 velocity=0 time=0.02361105208333333
EXTRACT: note_on channel=11 note=58 velocity=0 time=0.006944427083333333
EXTRACT: control_change channel=15 control=11 value=110 time=0.011111083333333332
EXTRACT: note_on channel=4 note=61 velocity=0 time=0.008333312499999999
EXTRACT: note_on channel=4 note=66 velocity=0 time=0
EXTRACT: note_on channel=5 note=58 velocity=0 time=0.0013888854166666665
EXTRACT: note_on channel=6 note=58 velocity=0 time=0
EXTRACT: note_on channel=15 note=54 velocity=0 time=0.006944427083333333
EXTRACT: note_on channel=1 note=42 velocity=103 time=0.004166656249999999
EXTRACT: note_on channel=4 note=63 velocity=1 time=0
EXTRACT: note_on channel=4 note=68 velocity=1 time=0
EXTRACT: note_on channel=5 note=56 velocity=97 time=0
EXTRACT: note_on channel=6 note=56 velocity=91 time=0
EXTRACT: note_on channel=9 note=46 velocity=61 time=0
EXTRACT: note_on channel=9 note=35 velocity=113 time=0
EXTRACT: note_on channel=9 note=54 velocity=37 time=0
EXTRACT: control_change channel=5 control=11 value=119 time=0
EXTRACT: control_change channel=6 control=11 value=126 time=0
EXTRACT: note_on channel=11 note=61 velocity=73 time=0.0013888854166666665
EXTRACT: note_on channel=8 note=58 velocity=79 time=0.0013888854166666665
EXTRACT: note_on channel=2 note=54 velocity=72 time=0
EXTRACT: note_on channel=3 note=71 velocity=111 time=0
EXTRACT: note_on channel=15 note=54 velocity=77 time=0
EXTRACT: control_change channel=15 control=11 value=107 time=0.013888854166666666
EXTRACT: note_on channel=9 note=46 velocity=0 time=0.009722197916666666
EXTRACT: note_on channel=9 note=35 velocity=0 time=0
EXTRACT: note_on channel=9 note=54 velocity=0 time=0
EXTRACT: note_on channel=2 note=54 velocity=0 time=0.011111083333333332
EXTRACT: control_change channel=15 control=11 value=103 time=0.02083328125
EXTRACT: control_change channel=5 control=11 value=117 time=0.02083328125
EXTRACT: control_change channel=6 control=11 value=124 time=0
EXTRACT: control_change channel=15 control=11 value=99 time=0.02083328125
EXTRACT: control_change channel=15 control=11 value=95 time=0.0416665625
EXTRACT: control_change channel=5 control=11 value=116 time=0.02083328125
EXTRACT: control_change channel=6 control=11 value=121 time=0
EXTRACT: note_on channel=1 note=42 velocity=0 time=0.009722197916666666
EXTRACT: control_change channel=15 control=11 value=91 time=0.018055510416666663
EXTRACT: note_on channel=3 note=71 velocity=0 time=0.002777770833333333
EXTRACT: control_change channel=5 control=11 value=115 time=0.05277764583333333
EXTRACT: control_change channel=6 control=11 value=117 time=0
EXTRACT: note_on channel=8 note=58 velocity=0 time=0.04444433333333333
EXTRACT: note_on channel=13 note=70 velocity=0 time=0.0013888854166666665
EXTRACT: control_change channel=2 control=64 value=0 time=0.005555541666666666
EXTRACT: note_on channel=13 note=68 velocity=39 time=0.004166656249999999
EXTRACT: note_on channel=13 note=66 velocity=0 time=0.002777770833333333
EXTRACT: control_change channel=15 control=11 value=127 time=0.004166656249999999
EXTRACT: note_on channel=15 note=54 velocity=0 time=0.008333312499999999
EXTRACT: note_on channel=4 note=63 velocity=0 time=0
EXTRACT: note_on channel=4 note=68 velocity=0 time=0
EXTRACT: note_on channel=3 note=70 velocity=110 time=0
EXTRACT: note_on channel=1 note=37 velocity=123 time=0.0013888854166666665
EXTRACT: note_on channel=2 note=49 velocity=60 time=0
EXTRACT: note_on channel=2 note=56 velocity=59 time=0
EXTRACT: note_on channel=2 note=61 velocity=79 time=0
EXTRACT: note_on channel=4 note=61 velocity=1 time=0
EXTRACT: note_on channel=4 note=66 velocity=1 time=0
EXTRACT: note_on channel=9 note=46 velocity=81 time=0
EXTRACT: note_on channel=9 note=35 velocity=121 time=0
EXTRACT: note_on channel=9 note=54 velocity=53 time=0
EXTRACT: note_on channel=11 note=49 velocity=72 time=0
EXTRACT: note_on channel=15 note=56 velocity=62 time=0
EXTRACT: note_on channel=15 note=61 velocity=81 time=0
EXTRACT: control_change channel=5 control=11 value=113 time=0
EXTRACT: control_change channel=6 control=11 value=112 time=0
EXTRACT: note_on channel=8 note=65 velocity=74 time=0.006944427083333333
EXTRACT: note_on channel=13 note=65 velocity=35 time=0.005555541666666666
EXTRACT: control_change channel=2 control=64 value=100 time=0.008333312499999999
EXTRACT: note_on channel=2 note=61 velocity=0 time=0.004166656249999999
EXTRACT: note_on channel=9 note=46 velocity=0 time=0.005555541666666666
EXTRACT: note_on channel=9 note=35 velocity=0 time=0
EXTRACT: note_on channel=9 note=54 velocity=0 time=0.0013888854166666665
EXTRACT: note_on channel=2 note=49 velocity=0 time=0.030555479166666663
EXTRACT: control_change channel=5 control=11 value=111 time=0.02083328125
EXTRACT: control_change channel=6 control=11 value=111 time=0
EXTRACT: control_change channel=5 control=11 value=109 time=0.083333125
EXTRACT: control_change channel=6 control=11 value=107 time=0
EXTRACT: note_on channel=8 note=61 velocity=0 time=0.07222204166666665
EXTRACT: control_change channel=5 control=11 value=109 time=0.011111083333333332
EXTRACT: control_change channel=6 control=11 value=102 time=0
EXTRACT: note_on channel=3 note=70 velocity=0 time=0.0416665625
EXTRACT: note_on channel=4 note=61 velocity=0 time=0.029166593749999997
EXTRACT: note_on channel=4 note=66 velocity=0 time=0
EXTRACT: note_on channel=15 note=56 velocity=0 time=0
EXTRACT: note_on channel=15 note=61 velocity=0 time=0
EXTRACT: note_on channel=2 note=56 velocity=58 time=0
EXTRACT: note_on channel=2 note=61 velocity=78 time=0
EXTRACT: note_on channel=3 note=68 velocity=111 time=0
EXTRACT: note_on channel=4 note=63 velocity=1 time=0
EXTRACT: note_on channel=8 note=61 velocity=74 time=0
EXTRACT: note_on channel=9 note=46 velocity=61 time=0
EXTRACT: note_on channel=9 note=54 velocity=43 time=0
EXTRACT: note_on channel=15 note=56 velocity=63 time=0
EXTRACT: note_on channel=15 note=61 velocity=81 time=0
EXTRACT: control_change channel=5 control=11 value=107 time=0
EXTRACT: control_change channel=6 control=11 value=99 time=0
EXTRACT: note_on channel=2 note=61 velocity=0 time=0.024999937499999996
EXTRACT: note_on channel=9 note=46 velocity=0 time=0.005555541666666666
EXTRACT: note_on channel=9 note=54 velocity=0 time=0
EXTRACT: control_change channel=5 control=11 value=105 time=0.05277764583333333
EXTRACT: control_change channel=6 control=11 value=97 time=0
EXTRACT: note_on channel=4 note=63 velocity=0 time=0.07222204166666665
EXTRACT: note_on channel=4 note=61 velocity=1 time=0.011111083333333332
EXTRACT: control_change channel=5 control=11 value=103 time=0
EXTRACT: control_change channel=6 control=11 value=93 time=0
EXTRACT: note_on channel=11 note=61 velocity=0 time=0.06944427083333332
EXTRACT: control_change channel=5 control=11 value=101 time=0.013888854166666666
EXTRACT: control_change channel=6 control=11 value=89 time=0
EXTRACT: note_on channel=3 note=68 velocity=0 time=0.030555479166666663
EXTRACT: note_on channel=8 note=65 velocity=0 time=0.013888854166666666
EXTRACT: note_on channel=11 note=49 velocity=0 time=0.019444395833333333
EXTRACT: note_on channel=1 note=37 velocity=0 time=0.008333312499999999
EXTRACT: note_on channel=15 note=61 velocity=0 time=0.006944427083333333
EXTRACT: note_on channel=9 note=46 velocity=81 time=0.004166656249999999
EXTRACT: note_on channel=9 note=54 velocity=53 time=0
EXTRACT: control_change channel=5 control=11 value=101 time=0
EXTRACT: control_change channel=6 control=11 value=85 time=0
EXTRACT: note_on channel=9 note=39 velocity=113 time=0.002777770833333333
EXTRACT: note_on channel=11 note=56 velocity=83 time=0
EXTRACT: note_on channel=8 note=65 velocity=70 time=0.002777770833333333
EXTRACT: note_on channel=2 note=49 velocity=47 time=0.0013888854166666665
EXTRACT: note_on channel=15 note=49 velocity=51 time=0
EXTRACT: note_on channel=9 note=85 velocity=73 time=0.002777770833333333
EXTRACT: note_on channel=9 note=28 velocity=69 time=0
EXTRACT: note_on channel=2 note=49 velocity=0 time=0.02083328125
EXTRACT: note_on channel=9 note=46 velocity=0 time=0
EXTRACT: note_on channel=9 note=54 velocity=0 time=0.0013888854166666665
EXTRACT: note_on channel=9 note=39 velocity=0 time=0.002777770833333333
EXTRACT: note_on channel=9 note=85 velocity=0 time=0.006944427083333333
EXTRACT: note_on channel=9 note=28 velocity=0 time=0
EXTRACT: note_on channel=9 note=85 velocity=126 time=0.009722197916666666
EXTRACT: note_on channel=9 note=85 velocity=0 time=0.03194436458333333
EXTRACT: control_change channel=5 control=11 value=99 time=0
EXTRACT: control_change channel=6 control=11 value=83 time=0
EXTRACT: control_change channel=15 control=11 value=127 time=0.03472213541666666
EXTRACT: note_on channel=4 note=61 velocity=0 time=0.03749990625
EXTRACT: control_change channel=15 control=11 value=123 time=0.004166656249999999
EXTRACT: control_change channel=5 control=11 value=97 time=0.006944427083333333
EXTRACT: control_change channel=6 control=11 value=79 time=0
EXTRACT: note_on channel=15 note=56 velocity=0 time=0.030555479166666663
EXTRACT: control_change channel=15 control=11 value=119 time=0.004166656249999999
EXTRACT: note_on channel=8 note=61 velocity=0 time=0.03749990625
EXTRACT: control_change channel=15 control=11 value=115 time=0.004166656249999999
EXTRACT: control_change channel=5 control=11 value=95 time=0.006944427083333333
EXTRACT: control_change channel=6 control=11 value=75 time=0
EXTRACT: control_change channel=15 control=11 value=111 time=0.03472213541666666
EXTRACT: note_on channel=15 note=49 velocity=0 time=0.03611102083333333
EXTRACT: note_on channel=5 note=56 velocity=0 time=0.0013888854166666665
EXTRACT: control_change channel=15 control=11 value=107 time=0.004166656249999999
EXTRACT: note_on channel=3 note=66 velocity=110 time=0
EXTRACT: note_on channel=1 note=37 velocity=120 time=0.0013888854166666665
EXTRACT: note_on channel=2 note=61 velocity=51 time=0
EXTRACT: note_on channel=9 note=46 velocity=60 time=0
EXTRACT: note_on channel=9 note=35 velocity=115 time=0
EXTRACT: note_on channel=9 note=54 velocity=42 time=0
EXTRACT: note_on channel=15 note=61 velocity=53 time=0
EXTRACT: control_change channel=5 control=11 value=93 time=0
EXTRACT: control_change channel=6 control=11 value=71 time=0
EXTRACT: note_on channel=2 note=56 velocity=51 time=0.006944427083333333
EXTRACT: note_on channel=8 note=61 velocity=76 time=0
EXTRACT: note_on channel=15 note=56 velocity=53 time=0
EXTRACT: note_on channel=5 note=61 velocity=0 time=0.02083328125
EXTRACT: note_on channel=9 note=46 velocity=0 time=0.002777770833333333
EXTRACT: note_on channel=9 note=35 velocity=0 time=0
EXTRACT: note_on channel=9 note=54 velocity=0 time=0
EXTRACT: control_change channel=15 control=11 value=103 time=0.004166656249999999
EXTRACT: note_on channel=6 note=61 velocity=0 time=0.016666624999999997
EXTRACT: note_on channel=2 note=61 velocity=0 time=0.013888854166666666
EXTRACT: note_on channel=2 note=56 velocity=0 time=0.006944427083333333
EXTRACT: control_change channel=15 control=11 value=99 time=0.004166656249999999
EXTRACT: control_change channel=5 control=11 value=91 time=0.006944427083333333
EXTRACT: control_change channel=6 control=11 value=69 time=0
EXTRACT: note_on channel=6 note=56 velocity=0 time=0.02083328125
EXTRACT: control_change channel=15 control=11 value=95 time=0.013888854166666666
EXTRACT: note_on channel=8 note=65 velocity=0 time=0.008333312499999999
EXTRACT: control_change channel=6 control=11 value=65 time=0.04027767708333333
EXTRACT: control_change channel=15 control=11 value=91 time=0
EXTRACT: note_on channel=15 note=61 velocity=0 time=0.05138876041666666
EXTRACT: note_on channel=3 note=66 velocity=0 time=0.038888791666666665
EXTRACT: note_on channel=8 note=61 velocity=0 time=0.02361105208333333
EXTRACT: note_on channel=1 note=37 velocity=0 time=0
EXTRACT: control_change channel=2 control=64 value=0 time=0
EXTRACT: note_on channel=13 note=68 velocity=0 time=0.0013888854166666665
EXTRACT: note_on channel=13 note=61 velocity=0 time=0.002777770833333333
EXTRACT: note_on channel=11 note=56 velocity=0 time=0.006944427083333333
EXTRACT: control_change channel=8 control=64 value=100 time=0
EXTRACT: note_on channel=9 note=46 velocity=87 time=0.02083328125
EXTRACT: note_on channel=15 note=56 velocity=0 time=0.008333312499999999
EXTRACT: note_on channel=13 note=65 velocity=0 time=0.0013888854166666665
EXTRACT: note_on channel=13 note=59 velocity=45 time=0
EXTRACT: control_change channel=15 control=11 value=127 time=0.004166656249999999
EXTRACT: note_on channel=3 note=70 velocity=110 time=0
EXTRACT: note_on channel=1 note=35 velocity=123 time=0.002777770833333333
EXTRACT: note_on channel=2 note=47 velocity=56 time=0
EXTRACT: note_on channel=8 note=61 velocity=53 time=0
EXTRACT: note_on channel=9 note=35 velocity=121 time=0
EXTRACT: note_on channel=9 note=54 velocity=48 time=0
EXTRACT: note_on channel=11 note=47 velocity=83 time=0
EXTRACT: note_on channel=9 note=46 velocity=0 time=0.009722197916666666
EXTRACT: note_on channel=8 note=66 velocity=80 time=0
EXTRACT: note_on channel=13 note=61 velocity=35 time=0
EXTRACT: note_on channel=2 note=58 velocity=50 time=0.008333312499999999
EXTRACT: note_on channel=15 note=58 velocity=53 time=0
EXTRACT: control_change channel=2 control=64 value=100 time=0.002777770833333333
EXTRACT: note_on channel=11 note=54 velocity=66 time=0.004166656249999999
EXTRACT: note_on channel=2 note=61 velocity=50 time=0.002777770833333333
EXTRACT: note_on channel=15 note=61 velocity=53 time=0
EXTRACT: note_on channel=8 note=61 velocity=0 time=0.002777770833333333
EXTRACT: note_on channel=9 note=35 velocity=0 time=0
EXTRACT: note_on channel=9 note=54 velocity=0 time=0
EXTRACT: note_on channel=2 note=58 velocity=0 time=0
EXTRACT: note_on channel=2 note=61 velocity=0 time=0.011111083333333332
EXTRACT: note_on channel=8 note=66 velocity=0 time=0
EXTRACT: note_on channel=13 note=66 velocity=37 time=0
EXTRACT: note_on channel=2 note=47 velocity=0 time=0.009722197916666666
EXTRACT: note_on channel=15 note=58 velocity=0 time=0.13888854166666664
EXTRACT: note_on channel=3 note=70 velocity=0 time=0.04305544791666666
EXTRACT: note_on channel=15 note=61 velocity=0 time=0.09166643749999999
EXTRACT: note_on channel=3 note=70 velocity=111 time=0
EXTRACT: note_on channel=9 note=46 velocity=64 time=0.002777770833333333
EXTRACT: note_on channel=9 note=54 velocity=35 time=0
EXTRACT: note_on channel=2 note=54 velocity=50 time=0.002777770833333333
EXTRACT: note_on channel=15 note=54 velocity=55 time=0
EXTRACT: note_on channel=8 note=54 velocity=60 time=0.002777770833333333
EXTRACT: note_on channel=15 note=47 velocity=51 time=0.0013888854166666665
EXTRACT: note_on channel=2 note=54 velocity=0 time=0.009722197916666666
EXTRACT: note_on channel=9 note=46 velocity=0 time=0.013888854166666666
EXTRACT: note_on channel=9 note=54 velocity=0 time=0
EXTRACT: note_on channel=2 note=47 velocity=47 time=0.004166656249999999
EXTRACT: note_on channel=8 note=54 velocity=0 time=0.002777770833333333
EXTRACT: note_on channel=2 note=47 velocity=0 time=0.009722197916666666
EXTRACT: note_on channel=3 note=70 velocity=0 time=0.15416628124999998
EXTRACT: note_on channel=15 note=54 velocity=0 time=0.02361105208333333
EXTRACT: control_change channel=6 control=11 value=127 time=0.02083328125
EXTRACT: note_on channel=1 note=35 velocity=0 time=0.048610989583333326
EXTRACT: note_on channel=15 note=47 velocity=0 time=0.012499968749999998
EXTRACT: note_on channel=3 note=70 velocity=110 time=0
EXTRACT: note_on channel=9 note=46 velocity=76 time=0.0013888854166666665
EXTRACT: note_on channel=9 note=54 velocity=48 time=0
EXTRACT: note_on channel=9 note=39 velocity=113 time=0.002777770833333333
EXTRACT: note_on channel=8 note=61 velocity=71 time=0.005555541666666666
EXTRACT: note_on channel=9 note=85 velocity=79 time=0.0013888854166666665
EXTRACT: note_on channel=9 note=28 velocity=69 time=0
EXTRACT: note_on channel=2 note=54 velocity=64 time=0.004166656249999999
EXTRACT: note_on channel=15 note=54 velocity=69 time=0
EXTRACT: note_on channel=2 note=61 velocity=78 time=0.006944427083333333
EXTRACT: note_on channel=15 note=61 velocity=81 time=0
EXTRACT: note_on channel=9 note=46 velocity=0 time=0.009722197916666666
EXTRACT: note_on channel=9 note=54 velocity=0 time=0
EXTRACT: note_on channel=9 note=39 velocity=0 time=0.004166656249999999
EXTRACT: note_on channel=2 note=61 velocity=0 time=0.002777770833333333
EXTRACT: note_on channel=8 note=66 velocity=67 time=0.0013888854166666665
EXTRACT: note_on channel=8 note=61 velocity=0 time=0.0013888854166666665
EXTRACT: note_on channel=9 note=85 velocity=0 time=0.0013888854166666665
EXTRACT: note_on channel=9 note=28 velocity=0 time=0
EXTRACT: note_on channel=9 note=85 velocity=126 time=0.009722197916666666
EXTRACT: note_on channel=2 note=54 velocity=0 time=0.006944427083333333
EXTRACT: note_on channel=8 note=66 velocity=0 time=0.012499968749999998
EXTRACT: note_on channel=9 note=85 velocity=0 time=0.012499968749999998
EXTRACT: control_change channel=15 control=11 value=127 time=0.083333125
EXTRACT: note_on channel=11 note=47 velocity=0 time=0.029166593749999997
EXTRACT: control_change channel=15 control=11 value=123 time=0.012499968749999998
EXTRACT: note_on channel=3 note=70 velocity=0 time=0.009722197916666666
EXTRACT: note_on channel=11 note=54 velocity=0 time=0.006944427083333333
EXTRACT: note_on channel=15 note=54 velocity=0 time=0.006944427083333333
EXTRACT: control_change channel=15 control=11 value=119 time=0.018055510416666663
EXTRACT: control_change channel=15 control=11 value=115 time=0.0416665625
EXTRACT: note_on channel=15 note=61 velocity=0 time=0.022222166666666664
EXTRACT: note_on channel=15 note=58 velocity=69 time=0.005555541666666666
EXTRACT: note_on channel=1 note=35 velocity=103 time=0.006944427083333333
EXTRACT: note_on channel=2 note=58 velocity=65 time=0
EXTRACT: note_on channel=3 note=71 velocity=111 time=0
EXTRACT: note_on channel=9 note=46 velocity=52 time=0.0013888854166666665
EXTRACT: note_on channel=9 note=54 velocity=38 time=0
EXTRACT: note_on channel=9 note=35 velocity=110 time=0
EXTRACT: control_change channel=15 control=11 value=111 time=0
EXTRACT: note_on channel=11 note=47 velocity=69 time=0.006944427083333333
EXTRACT: note_on channel=2 note=54 velocity=65 time=0.006944427083333333
EXTRACT: note_on channel=15 note=54 velocity=69 time=0
EXTRACT: note_on channel=11 note=54 velocity=63 time=0.012499968749999998
EXTRACT: note_on channel=9 note=46 velocity=0 time=0.004166656249999999
EXTRACT: note_on channel=9 note=54 velocity=0 time=0
EXTRACT: note_on channel=9 note=35 velocity=0 time=0
EXTRACT: note_on channel=2 note=58 velocity=0 time=0.006944427083333333
EXTRACT: control_change channel=15 control=11 value=106 time=0.004166656249999999
EXTRACT: note_on channel=8 note=54 velocity=52 time=0.008333312499999999
EXTRACT: note_on channel=2 note=54 velocity=0 time=0.008333312499999999
EXTRACT: note_on channel=8 note=54 velocity=0 time=0.02361105208333333
EXTRACT: control_change channel=15 control=11 value=103 time=0.0013888854166666665
EXTRACT: control_change channel=15 control=11 value=98 time=0.0416665625
EXTRACT: control_change channel=15 control=11 value=94 time=0.0416665625
EXTRACT: note_on channel=1 note=35 velocity=0 time=0.002777770833333333
EXTRACT: note_on channel=3 note=71 velocity=0 time=0.04444433333333333
EXTRACT: control_change channel=15 control=11 value=91 time=0.0013888854166666665
EXTRACT: control_change channel=5 control=11 value=127 time=0.002777770833333333
EXTRACT: note_on channel=11 note=54 velocity=0 time=0.04722210416666666
EXTRACT: note_on channel=15 note=54 velocity=0 time=0.022222166666666664
EXTRACT: note_on channel=11 note=47 velocity=0 time=0.012499968749999998
EXTRACT: note_on channel=15 note=58 velocity=0 time=0.0013888854166666665
EXTRACT: control_change channel=2 control=64 value=0 time=0.011111083333333332
EXTRACT: note_on channel=3 note=70 velocity=110 time=0
EXTRACT: note_on channel=1 note=35 velocity=122 time=0.0013888854166666665
EXTRACT: note_on channel=2 note=47 velocity=68 time=0
EXTRACT: note_on channel=9 note=46 velocity=74 time=0
EXTRACT: note_on channel=9 note=35 velocity=120 time=0
EXTRACT: note_on channel=9 note=54 velocity=51 time=0
EXTRACT: control_change channel=15 control=11 value=126 time=0
EXTRACT: note_on channel=15 note=61 velocity=67 time=0.002777770833333333
EXTRACT: note_on channel=15 note=54 velocity=71 time=0.004166656249999999
EXTRACT: note_on channel=2 note=59 velocity=56 time=0.002777770833333333
EXTRACT: control_change channel=2 control=64 value=100 time=0
EXTRACT: note_on channel=2 note=59 velocity=0 time=0.011111083333333332
EXTRACT: note_on channel=11 note=54 velocity=65 time=0.0013888854166666665
EXTRACT: note_on channel=9 note=46 velocity=0 time=0.008333312499999999
EXTRACT: note_on channel=9 note=35 velocity=0 time=0
EXTRACT: note_on channel=9 note=54 velocity=0 time=0
EXTRACT: note_on channel=8 note=61 velocity=62 time=0.006944427083333333
EXTRACT: note_on channel=11 note=47 velocity=63 time=0.002777770833333333
EXTRACT: note_on channel=8 note=66 velocity=63 time=0.011111083333333332
EXTRACT: note_on channel=8 note=61 velocity=0 time=0.016666624999999997
EXTRACT: note_on channel=2 note=47 velocity=0 time=0.004166656249999999
EXTRACT: note_on channel=8 note=66 velocity=0 time=0.011111083333333332
EXTRACT: note_on channel=15 note=54 velocity=0 time=0.15555516666666666
EXTRACT: note_on channel=3 note=70 velocity=0 time=0.05972207291666666
EXTRACT: note_on channel=15 note=61 velocity=0 time=0.019444395833333333
EXTRACT: note_on channel=3 note=68 velocity=111 time=0
EXTRACT: note_on channel=9 note=46 velocity=51 time=0.002777770833333333
EXTRACT: note_on channel=9 note=54 velocity=37 time=0
EXTRACT: note_on channel=2 note=51 velocity=47 time=0.002777770833333333
EXTRACT: note_on channel=15 note=51 velocity=49 time=0
EXTRACT: note_on channel=2 note=54 velocity=46 time=0.011111083333333332
EXTRACT: note_on channel=15 note=54 velocity=49 time=0
EXTRACT: note_on channel=9 note=46 velocity=0 time=0.016666624999999997
EXTRACT: note_on channel=9 note=54 velocity=0 time=0
EXTRACT: note_on channel=2 note=51 velocity=0 time=0.016666624999999997
EXTRACT: note_on channel=8 note=54 velocity=58 time=0.002777770833333333
EXTRACT: note_on channel=2 note=54 velocity=0 time=0.008333312499999999
EXTRACT: note_on channel=8 note=54 velocity=0 time=0.02361105208333333
EXTRACT: note_on channel=11 note=47 velocity=0 time=0.045833218749999995
EXTRACT: note_on channel=15 note=51 velocity=0 time=0.05555541666666666
EXTRACT: note_on channel=3 note=68 velocity=0 time=0.08749978124999999
EXTRACT: note_on channel=15 note=54 velocity=0 time=0.04305544791666666
EXTRACT: note_on channel=1 note=35 velocity=0 time=0.008333312499999999
EXTRACT: note_on channel=2 note=54 velocity=74 time=0.004166656249999999
EXTRACT: note_on channel=3 note=66 velocity=110 time=0
EXTRACT: note_on channel=2 note=59 velocity=79 time=0.002777770833333333
EXTRACT: note_on channel=9 note=46 velocity=74 time=0
EXTRACT: note_on channel=9 note=54 velocity=50 time=0
EXTRACT: note_on channel=15 note=66 velocity=83 time=0
EXTRACT: note_on channel=9 note=39 velocity=115 time=0.002777770833333333
EXTRACT: note_on channel=8 note=61 velocity=58 time=0.004166656249999999
EXTRACT: note_on channel=15 note=61 velocity=79 time=0
EXTRACT: note_on channel=9 note=85 velocity=72 time=0.002777770833333333
EXTRACT: note_on channel=9 note=28 velocity=72 time=0
EXTRACT: note_on channel=2 note=59 velocity=0 time=0.006944427083333333
EXTRACT: note_on channel=2 note=54 velocity=0 time=0.009722197916666666
EXTRACT: note_on channel=11 note=47 velocity=53 time=0.002777770833333333
EXTRACT: note_on channel=9 note=46 velocity=0 time=0.0013888854166666665
EXTRACT: note_on channel=9 note=54 velocity=0 time=0
EXTRACT: note_on channel=8 note=66 velocity=55 time=0.0013888854166666665
EXTRACT: note_on channel=9 note=39 velocity=0 time=0.002777770833333333
EXTRACT: note_on channel=8 note=61 velocity=0 time=0.002777770833333333
EXTRACT: note_on channel=9 note=85 velocity=0 time=0.004166656249999999
EXTRACT: note_on channel=9 note=28 velocity=0 time=0
EXTRACT: note_on channel=9 note=85 velocity=127 time=0.009722197916666666
EXTRACT: note_on channel=8 note=66 velocity=0 time=0.011111083333333332
EXTRACT: note_on channel=9 note=85 velocity=0 time=0.02083328125
EXTRACT: control_change channel=15 control=11 value=127 time=0.05555541666666666
EXTRACT: note_on channel=11 note=54 velocity=0 time=0.04027767708333333
EXTRACT: control_change channel=15 control=11 value=122 time=0.0013888854166666665
EXTRACT: note_on channel=3 note=66 velocity=0 time=0.006944427083333333
EXTRACT: control_change channel=15 control=11 value=119 time=0.03472213541666666
EXTRACT: control_change channel=15 control=11 value=114 time=0.0416665625
EXTRACT: control_change channel=15 control=11 value=110 time=0.0416665625
EXTRACT: note_on channel=15 note=66 velocity=0 time=0.019444395833333333
EXTRACT: note_on channel=3 note=66 velocity=110 time=0
EXTRACT: note_on channel=9 note=54 velocity=35 time=0
EXTRACT: note_on channel=1 note=35 velocity=121 time=0.0013888854166666665
EXTRACT: note_on channel=4 note=70 velocity=1 time=0
EXTRACT: note_on channel=9 note=46 velocity=58 time=0
EXTRACT: note_on channel=9 note=35 velocity=113 time=0
EXTRACT: note_on channel=2 note=49 velocity=39 time=0.002777770833333333
EXTRACT: note_on channel=2 note=54 velocity=38 time=0
EXTRACT: note_on channel=15 note=54 velocity=61 time=0
EXTRACT: control_change channel=15 control=11 value=107 time=0.011111083333333332
EXTRACT: note_on channel=11 note=54 velocity=55 time=0.012499968749999998
EXTRACT: note_on channel=9 note=46 velocity=0 time=0.004166656249999999
EXTRACT: note_on channel=9 note=35 velocity=0 time=0
EXTRACT: note_on channel=8 note=66 velocity=55 time=0
EXTRACT: note_on channel=9 note=54 velocity=0 time=0
EXTRACT: note_on channel=8 note=61 velocity=58 time=0.004166656249999999
EXTRACT: note_on channel=2 note=49 velocity=0 time=0.012499968749999998
EXTRACT: note_on channel=2 note=54 velocity=0 time=0
EXTRACT: control_change channel=15 control=11 value=103 time=0.008333312499999999
EXTRACT: note_on channel=8 note=66 velocity=0 time=0.006944427083333333
EXTRACT: note_on channel=8 note=61 velocity=0 time=0.002777770833333333
EXTRACT: control_change channel=15 control=11 value=99 time=0.03194436458333333
EXTRACT: control_change channel=15 control=11 value=94 time=0.0416665625
EXTRACT: note_on channel=15 note=61 velocity=0 time=0.03749990625
EXTRACT: note_on channel=11 note=47 velocity=0 time=0.024999937499999996
EXTRACT: note_on channel=11 note=54 velocity=0 time=0.038888791666666665
EXTRACT: note_on channel=13 note=59 velocity=0 time=0.019444395833333333
EXTRACT: control_change channel=2 control=64 value=0 time=0
EXTRACT: note_on channel=1 note=35 velocity=0 time=0.02083328125
EXTRACT: control_change channel=15 control=11 value=126 time=0.024999937499999996
EXTRACT: note_on channel=15 note=54 velocity=0 time=0.015277739583333332
EXTRACT: note_on channel=1 note=34 velocity=123 time=0.012499968749999998
EXTRACT: note_on channel=2 note=58 velocity=57 time=0
EXTRACT: note_on channel=9 note=46 velocity=76 time=0
EXTRACT: note_on channel=9 note=54 velocity=51 time=0
EXTRACT: note_on channel=9 note=35 velocity=125 time=0
EXTRACT: note_on channel=11 note=46 velocity=61 time=0
EXTRACT: note_on channel=13 note=58 velocity=45 time=0
EXTRACT: note_on channel=15 note=58 velocity=61 time=0
EXTRACT: control_change channel=2 control=64 value=100 time=0
EXTRACT: note_on channel=2 note=61 velocity=53 time=0.012499968749999998
EXTRACT: note_on channel=15 note=66 velocity=70 time=0
EXTRACT: note_on channel=2 note=58 velocity=0 time=0.018055510416666663
EXTRACT: note_on channel=9 note=46 velocity=0 time=0
EXTRACT: note_on channel=9 note=54 velocity=0 time=0
EXTRACT: note_on channel=9 note=35 velocity=0 time=0
EXTRACT: note_on channel=8 note=61 velocity=77 time=0
EXTRACT: note_on channel=11 note=54 velocity=59 time=0.005555541666666666
EXTRACT: note_on channel=8 note=66 velocity=63 time=0.002777770833333333
EXTRACT: note_on channel=2 note=61 velocity=0 time=0.005555541666666666
EXTRACT: note_on channel=8 note=61 velocity=0 time=0.018055510416666663
EXTRACT: note_on channel=8 note=66 velocity=0 time=0.006944427083333333
EXTRACT: note_on channel=15 note=58 velocity=0 time=0.17638844791666664
EXTRACT: note_on channel=1 note=34 velocity=0 time=0.024999937499999996
EXTRACT: note_on channel=15 note=66 velocity=0 time=0.002777770833333333
EXTRACT: note_on channel=2 note=54 velocity=52 time=0.011111083333333332
EXTRACT: note_on channel=2 note=58 velocity=47 time=0.02083328125
EXTRACT: note_on channel=11 note=54 velocity=0 time=0.006944427083333333
EXTRACT: note_on channel=2 note=54 velocity=0 time=0.004166656249999999
EXTRACT: note_on channel=15 note=58 velocity=49 time=0.002777770833333333
EXTRACT: note_on channel=1 note=34 velocity=123 time=0.013888854166666666
EXTRACT: note_on channel=9 note=35 velocity=125 time=0
EXTRACT: note_on channel=9 note=46 velocity=57 time=0
EXTRACT: note_on channel=9 note=54 velocity=33 time=0
EXTRACT: note_on channel=2 note=58 velocity=0 time=0.004166656249999999
EXTRACT: note_on channel=15 note=54 velocity=78 time=0.002777770833333333
EXTRACT: note_on channel=11 note=54 velocity=59 time=0.018055510416666663
EXTRACT: note_on channel=9 note=35 velocity=0 time=0.005555541666666666
EXTRACT: note_on channel=9 note=46 velocity=0 time=0
EXTRACT: note_on channel=9 note=54 velocity=0 time=0
EXTRACT: note_on channel=15 note=54 velocity=0 time=0.18749953125
EXTRACT: note_on channel=1 note=34 velocity=0 time=0.05277764583333333
EXTRACT: note_on channel=15 note=58 velocity=0 time=0.009722197916666666
EXTRACT: note_on channel=2 note=58 velocity=69 time=0.04444433333333333
EXTRACT: note_on channel=15 note=58 velocity=70 time=0
EXTRACT: note_on channel=1 note=34 velocity=123 time=0.008333312499999999
EXTRACT: note_on channel=9 note=35 velocity=125 time=0
EXTRACT: note_on channel=9 note=46 velocity=81 time=0
EXTRACT: note_on channel=9 note=54 velocity=51 time=0
EXTRACT: note_on channel=8 note=61 velocity=62 time=0.002777770833333333
EXTRACT: note_on channel=9 note=39 velocity=115 time=0
EXTRACT: note_on channel=8 note=66 velocity=67 time=0.002777770833333333
EXTRACT: note_on channel=2 note=61 velocity=71 time=0.002777770833333333
EXTRACT: note_on channel=15 note=66 velocity=87 time=0
EXTRACT: note_on channel=9 note=85 velocity=79 time=0.0013888854166666665
EXTRACT: note_on channel=9 note=28 velocity=73 time=0
EXTRACT: note_on channel=2 note=58 velocity=0 time=0.012499968749999998
EXTRACT: note_on channel=9 note=35 velocity=0 time=0.008333312499999999
EXTRACT: note_on channel=9 note=46 velocity=0 time=0
EXTRACT: note_on channel=9 note=54 velocity=0 time=0.0013888854166666665
EXTRACT: note_on channel=8 note=61 velocity=0 time=0.002777770833333333
EXTRACT: note_on channel=9 note=39 velocity=0 time=0
EXTRACT: note_on channel=8 note=66 velocity=0 time=0.002777770833333333
EXTRACT: note_on channel=2 note=61 velocity=0 time=0.002777770833333333
EXTRACT: note_on channel=9 note=85 velocity=0 time=0.0013888854166666665
EXTRACT: note_on channel=9 note=28 velocity=0 time=0
EXTRACT: note_on channel=9 note=85 velocity=127 time=0.009722197916666666
EXTRACT: note_on channel=9 note=85 velocity=0 time=0.03194436458333333
EXTRACT: note_on channel=11 note=46 velocity=0 time=0.024999937499999996
EXTRACT: control_change channel=15 control=11 value=126 time=0.03749990625
EXTRACT: control_change channel=15 control=11 value=122 time=0.0416665625
EXTRACT: note_on channel=11 note=54 velocity=0 time=0
EXTRACT: note_on channel=15 note=58 velocity=0 time=0.009722197916666666
EXTRACT: control_change channel=15 control=11 value=119 time=0.03194436458333333
EXTRACT: note_on channel=1 note=34 velocity=0 time=0.0416665625
EXTRACT: control_change channel=15 control=11 value=114 time=0
EXTRACT: control_change channel=15 control=11 value=110 time=0.0416665625
EXTRACT: note_on channel=15 note=66 velocity=0 time=0.012499968749999998
EXTRACT: note_on channel=11 note=46 velocity=57 time=0.005555541666666666
EXTRACT: note_on channel=1 note=34 velocity=123 time=0.002777770833333333
EXTRACT: note_on channel=9 note=46 velocity=61 time=0
EXTRACT: note_on channel=9 note=35 velocity=113 time=0
EXTRACT: note_on channel=9 note=54 velocity=37 time=0
EXTRACT: note_on channel=2 note=54 velocity=47 time=0.004166656249999999
EXTRACT: note_on channel=15 note=54 velocity=72 time=0
EXTRACT: note_on channel=8 note=54 velocity=53 time=0.004166656249999999
EXTRACT: note_on channel=2 note=58 velocity=47 time=0.005555541666666666
EXTRACT: note_on channel=15 note=58 velocity=49 time=0
EXTRACT: control_change channel=15 control=11 value=107 time=0.006944427083333333
EXTRACT: note_on channel=11 note=54 velocity=57 time=0.004166656249999999
EXTRACT: note_on channel=9 note=46 velocity=0 time=0.005555541666666666
EXTRACT: note_on channel=9 note=35 velocity=0 time=0
EXTRACT: note_on channel=9 note=54 velocity=0 time=0
EXTRACT: note_on channel=2 note=54 velocity=0 time=0.005555541666666666
EXTRACT: note_on channel=8 note=54 velocity=0 time=0.004166656249999999
EXTRACT: note_on channel=2 note=58 velocity=0 time=0.005555541666666666
EXTRACT: control_change channel=15 control=11 value=103 time=0.016666624999999997
EXTRACT: control_change channel=15 control=11 value=98 time=0.0416665625
EXTRACT: control_change channel=15 control=11 value=94 time=0.0416665625
EXTRACT: note_on channel=9 note=38 velocity=41 time=0.024999937499999996
EXTRACT: control_change channel=15 control=11 value=91 time=0.02361105208333333
EXTRACT: note_on channel=9 note=38 velocity=0 time=0.008333312499999999
EXTRACT: note_on channel=9 note=38 velocity=49 time=0.0416665625
EXTRACT: note_on channel=15 note=54 velocity=0 time=0.008333312499999999
EXTRACT: note_on channel=1 note=34 velocity=0 time=0.018055510416666663
EXTRACT: note_on channel=15 note=58 velocity=0 time=0.002777770833333333
EXTRACT: note_on channel=9 note=38 velocity=0 time=0.002777770833333333
EXTRACT: control_change channel=2 control=64 value=0 time=0.015277739583333332
EXTRACT: control_change channel=15 control=11 value=126 time=0.02083328125
EXTRACT: control_change channel=2 control=64 value=100 time=0.009722197916666666
EXTRACT: note_on channel=2 note=58 velocity=65 time=0.009722197916666666
EXTRACT: note_on channel=15 note=58 velocity=66 time=0
EXTRACT: note_on channel=1 note=34 velocity=123 time=0.0013888854166666665
EXTRACT: note_on channel=9 note=46 velocity=81 time=0
EXTRACT: note_on channel=9 note=35 velocity=121 time=0
EXTRACT: note_on channel=9 note=54 velocity=53 time=0
EXTRACT: note_on channel=8 note=61 velocity=65 time=0.009722197916666666
EXTRACT: note_on channel=2 note=61 velocity=63 time=0.011111083333333332
EXTRACT: note_on channel=15 note=66 velocity=81 time=0
EXTRACT: note_on channel=9 note=46 velocity=0 time=0.009722197916666666
EXTRACT: note_on channel=9 note=35 velocity=0 time=0
EXTRACT: note_on channel=2 note=58 velocity=0 time=0
EXTRACT: note_on channel=9 note=54 velocity=0 time=0.0013888854166666665
EXTRACT: note_on channel=8 note=66 velocity=59 time=0.005555541666666666
EXTRACT: note_on channel=8 note=61 velocity=0 time=0.004166656249999999
EXTRACT: note_on channel=2 note=61 velocity=0 time=0.011111083333333332
EXTRACT: note_on channel=8 note=66 velocity=0 time=0.016666624999999997
EXTRACT: note_on channel=15 note=58 velocity=0 time=0.09305532291666666
EXTRACT: note_on channel=11 note=46 velocity=0 time=0.024999937499999996
EXTRACT: note_on channel=1 note=34 velocity=0 time=0.083333125
EXTRACT: note_on channel=11 note=54 velocity=0 time=0.02083328125
EXTRACT: note_on channel=15 note=66 velocity=0 time=0.033333249999999995
EXTRACT: note_on channel=1 note=34 velocity=123 time=0.008333312499999999
EXTRACT: note_on channel=8 note=54 velocity=63 time=0
EXTRACT: note_on channel=9 note=35 velocity=113 time=0
EXTRACT: note_on channel=9 note=46 velocity=61 time=0
EXTRACT: note_on channel=9 note=54 velocity=43 time=0
EXTRACT: note_on channel=2 note=58 velocity=47 time=0.004166656249999999
EXTRACT: note_on channel=15 note=58 velocity=48 time=0
EXTRACT: note_on channel=11 note=46 velocity=57 time=0.013888854166666666
EXTRACT: note_on channel=11 note=54 velocity=57 time=0.006944427083333333
EXTRACT: note_on channel=8 note=54 velocity=0 time=0.005555541666666666
EXTRACT: note_on channel=9 note=35 velocity=0 time=0
EXTRACT: note_on channel=9 note=46 velocity=0 time=0
EXTRACT: note_on channel=9 note=54 velocity=0 time=0
EXTRACT: note_on channel=2 note=54 velocity=10 time=0
EXTRACT: note_on channel=15 note=54 velocity=36 time=0
EXTRACT: note_on channel=2 note=58 velocity=0 time=0.004166656249999999
EXTRACT: control_change channel=15 control=11 value=122 time=0.013888854166666666
EXTRACT: note_on channel=2 note=54 velocity=0 time=0.013888854166666666
EXTRACT: control_change channel=15 control=11 value=119 time=0.02777770833333333
EXTRACT: control_change channel=15 control=11 value=115 time=0.0416665625
EXTRACT: note_on channel=3 note=66 velocity=0 time=0.02361105208333333
EXTRACT: control_change channel=15 control=11 value=110 time=0.018055510416666663
EXTRACT: control_change channel=15 control=11 value=107 time=0.0416665625
EXTRACT: note_on channel=15 note=58 velocity=0 time=0.002777770833333333
EXTRACT: control_change channel=15 control=11 value=103 time=0.038888791666666665
EXTRACT: note_on channel=1 note=34 velocity=0 time=0.013888854166666666
EXTRACT: control_change channel=15 control=11 value=98 time=0.02777770833333333
EXTRACT: note_on channel=15 note=54 velocity=0 time=0.019444395833333333
EXTRACT: note_on channel=2 note=61 velocity=69 time=0.012499968749999998
EXTRACT: note_on channel=15 note=66 velocity=85 time=0
EXTRACT: note_on channel=2 note=58 velocity=59 time=0.0013888854166666665
EXTRACT: note_on channel=15 note=58 velocity=61 time=0
EXTRACT: note_on channel=1 note=34 velocity=123 time=0.0013888854166666665
EXTRACT: note_on channel=9 note=35 velocity=115 time=0
EXTRACT: note_on channel=9 note=46 velocity=80 time=0
EXTRACT: note_on channel=9 note=54 velocity=52 time=0
EXTRACT: note_on channel=8 note=61 velocity=61 time=0.002777770833333333
EXTRACT: note_on channel=9 note=39 velocity=112 time=0
EXTRACT: note_on channel=8 note=66 velocity=59 time=0.0013888854166666665
EXTRACT: control_change channel=15 control=11 value=95 time=0.002777770833333333
EXTRACT: note_on channel=9 note=85 velocity=73 time=0.002777770833333333
EXTRACT: note_on channel=9 note=28 velocity=68 time=0
EXTRACT: note_on channel=3 note=66 velocity=111 time=0
EXTRACT: note_on channel=2 note=61 velocity=0 time=0.008333312499999999
EXTRACT: note_on channel=2 note=58 velocity=0 time=0.0013888854166666665
EXTRACT: note_on channel=9 note=35 velocity=0 time=0.0013888854166666665
EXTRACT: note_on channel=9 note=46 velocity=0 time=0
EXTRACT: note_on channel=9 note=54 velocity=0 time=0.0013888854166666665
EXTRACT: note_on channel=8 note=61 velocity=0 time=0.0013888854166666665
EXTRACT: note_on channel=9 note=39 velocity=0 time=0.0013888854166666665
EXTRACT: note_on channel=8 note=66 velocity=0 time=0.0013888854166666665
EXTRACT: note_on channel=9 note=85 velocity=0 time=0.005555541666666666
EXTRACT: note_on channel=9 note=28 velocity=0 time=0
EXTRACT: note_on channel=9 note=85 velocity=127 time=0.009722197916666666
EXTRACT: control_change channel=15 control=11 value=91 time=0.004166656249999999
EXTRACT: note_on channel=9 note=85 velocity=0 time=0.02777770833333333
EXTRACT: note_on channel=11 note=54 velocity=0 time=0.083333125
EXTRACT: note_on channel=15 note=66 velocity=0 time=0.07916646875
EXTRACT: note_on channel=15 note=58 velocity=0 time=0.013888854166666666
EXTRACT: note_on channel=1 note=34 velocity=0 time=0.011111083333333332
EXTRACT: control_change channel=15 control=11 value=127 time=0.02777770833333333
EXTRACT: note_on channel=11 note=46 velocity=0 time=0.002777770833333333
EXTRACT: note_on channel=2 note=58 velocity=55 time=0.030555479166666663
EXTRACT: note_on channel=15 note=58 velocity=59 time=0
EXTRACT: note_on channel=1 note=34 velocity=123 time=0.0013888854166666665
EXTRACT: note_on channel=8 note=61 velocity=55 time=0
EXTRACT: note_on channel=8 note=66 velocity=65 time=0
EXTRACT: note_on channel=9 note=46 velocity=62 time=0
EXTRACT: note_on channel=9 note=35 velocity=115 time=0
EXTRACT: note_on channel=9 note=54 velocity=42 time=0
EXTRACT: note_on channel=2 note=54 velocity=47 time=0.005555541666666666
EXTRACT: note_on channel=15 note=54 velocity=72 time=0
EXTRACT: note_on channel=11 note=54 velocity=51 time=0.02083328125
EXTRACT: note_on channel=11 note=49 velocity=55 time=0
EXTRACT: note_on channel=2 note=58 velocity=0 time=0.002777770833333333
EXTRACT: note_on channel=8 note=61 velocity=0 time=0.0013888854166666665
EXTRACT: note_on channel=8 note=66 velocity=0 time=0
EXTRACT: note_on channel=9 note=46 velocity=0 time=0
EXTRACT: note_on channel=9 note=35 velocity=0 time=0
EXTRACT: note_on channel=9 note=54 velocity=0 time=0
EXTRACT: note_on channel=2 note=54 velocity=0 time=0.006944427083333333
EXTRACT: note_on channel=15 note=58 velocity=0 time=0.09722197916666665
EXTRACT: note_on channel=13 note=66 velocity=0 time=0.10416640625
EXTRACT: note_on channel=11 note=54 velocity=0 time=0.0013888854166666665
EXTRACT: note_on channel=11 note=49 velocity=0 time=0
EXTRACT: control_change channel=2 control=64 value=0 time=0.009722197916666666
EXTRACT: note_on channel=13 note=58 velocity=0 time=0.02083328125
EXTRACT: note_on channel=1 note=34 velocity=0 time=0
EXTRACT: note_on channel=13 note=61 velocity=0 time=0.009722197916666666
EXTRACT: control_change channel=2 control=64 value=100 time=0
EXTRACT: control_change channel=8 control=64 value=0 time=0.011111083333333332
EXTRACT: note_on channel=4 note=70 velocity=0 time=0.030555479166666663
EXTRACT: note_on channel=15 note=54 velocity=0 time=0
EXTRACT: note_on channel=1 note=32 velocity=123 time=0.011111083333333332
EXTRACT: note_on channel=8 note=66 velocity=69 time=0
EXTRACT: note_on channel=9 note=35 velocity=117 time=0
EXTRACT: note_on channel=9 note=49 velocity=76 time=0
EXTRACT: note_on channel=11 note=44 velocity=81 time=0
EXTRACT: note_on channel=13 note=59 velocity=45 time=0
EXTRACT: note_on channel=13 note=63 velocity=37 time=0
EXTRACT: note_on channel=2 note=44 velocity=65 time=0.004166656249999999
EXTRACT: note_on channel=15 note=44 velocity=52 time=0
EXTRACT: note_on channel=8 note=59 velocity=73 time=0.0013888854166666665
EXTRACT: note_on channel=3 note=66 velocity=0 time=0.004166656249999999
EXTRACT: control_change channel=2 control=64 value=100 time=0.011111083333333332
EXTRACT: note_on channel=13 note=66 velocity=37 time=0.002777770833333333
EXTRACT: note_on channel=2 note=59 velocity=47 time=0.004166656249999999
EXTRACT: note_on channel=15 note=59 velocity=34 time=0
EXTRACT: note_on channel=9 note=35 velocity=0 time=0.002777770833333333
EXTRACT: note_on channel=9 note=49 velocity=0 time=0
EXTRACT: note_on channel=2 note=63 velocity=63 time=0.004166656249999999
EXTRACT: note_on channel=15 note=63 velocity=64 time=0
EXTRACT: note_on channel=2 note=59 velocity=0 time=0.006944427083333333
EXTRACT: note_on channel=2 note=63 velocity=0 time=0
EXTRACT: note_on channel=8 note=63 velocity=55 time=0.004166656249999999
EXTRACT: note_on channel=11 note=51 velocity=61 time=0.006944427083333333
EXTRACT: note_on channel=2 note=44 velocity=0 time=0.030555479166666663
EXTRACT: note_on channel=15 note=44 velocity=0 time=0
EXTRACT: note_on channel=15 note=59 velocity=0 time=0.13472188541666666
EXTRACT: note_on channel=8 note=63 velocity=0 time=0.02361105208333333
EXTRACT: note_on channel=8 note=66 velocity=0 time=0.05277764583333333
EXTRACT: note_on channel=15 note=63 velocity=0 time=0.03472213541666666
EXTRACT: note_on channel=9 note=54 velocity=24 time=0.004166656249999999
EXTRACT: note_on channel=9 note=42 velocity=75 time=0
EXTRACT: note_on channel=2 note=54 velocity=47 time=0.006944427083333333
EXTRACT: note_on channel=15 note=54 velocity=49 time=0
EXTRACT: note_on channel=8 note=63 velocity=45 time=0.006944427083333333
EXTRACT: note_on channel=2 note=51 velocity=45 time=0.004166656249999999
EXTRACT: note_on channel=15 note=51 velocity=46 time=0
EXTRACT: note_on channel=2 note=54 velocity=0 time=0.002777770833333333
EXTRACT: note_on channel=15 note=54 velocity=0 time=0
EXTRACT: note_on channel=8 note=66 velocity=43 time=0
EXTRACT: note_on channel=9 note=54 velocity=0 time=0.009722197916666666
EXTRACT: note_on channel=9 note=42 velocity=0 time=0
EXTRACT: note_on channel=2 note=51 velocity=0 time=0
EXTRACT: note_on channel=11 note=44 velocity=0 time=0.13888854166666664
EXTRACT: note_on channel=8 note=63 velocity=0 time=0.02777770833333333
EXTRACT: note_on channel=8 note=66 velocity=0 time=0.009722197916666666
EXTRACT: note_on channel=11 note=51 velocity=0 time=0.004166656249999999
EXTRACT: note_on channel=8 note=59 velocity=0 time=0.05277764583333333
EXTRACT: note_on channel=1 note=32 velocity=0 time=0.030555479166666663
EXTRACT: note_on channel=8 note=66 velocity=77 time=0.030555479166666663
EXTRACT: note_on channel=15 note=51 velocity=0 time=0.0013888854166666665
EXTRACT: note_on channel=3 note=66 velocity=111 time=0
EXTRACT: note_on channel=9 note=54 velocity=38 time=0
EXTRACT: note_on channel=9 note=42 velocity=108 time=0
EXTRACT: note_on channel=9 note=28 velocity=65 time=0
EXTRACT: note_on channel=9 note=39 velocity=102 time=0.0013888854166666665
EXTRACT: note_on channel=9 note=85 velocity=60 time=0.002777770833333333
EXTRACT: note_on channel=2 note=66 velocity=85 time=0.0013888854166666665
EXTRACT: note_on channel=15 note=66 velocity=86 time=0
EXTRACT: note_on channel=2 note=59 velocity=65 time=0
EXTRACT: note_on channel=15 note=59 velocity=67 time=0
EXTRACT: note_on channel=11 note=51 velocity=65 time=0.008333312499999999
EXTRACT: note_on channel=11 note=44 velocity=81 time=0.004166656249999999
EXTRACT: note_on channel=2 note=66 velocity=0 time=0.0013888854166666665
EXTRACT: note_on channel=8 note=59 velocity=69 time=0.0013888854166666665
EXTRACT: note_on channel=9 note=85 velocity=109 time=0.002777770833333333
EXTRACT: note_on channel=8 note=63 velocity=65 time=0.002777770833333333
EXTRACT: note_on channel=9 note=54 velocity=0 time=0.002777770833333333
EXTRACT: note_on channel=9 note=42 velocity=0 time=0
EXTRACT: note_on channel=9 note=28 velocity=0 time=0
EXTRACT: note_on channel=9 note=39 velocity=0 time=0.002777770833333333
EXTRACT: note_on channel=9 note=85 velocity=0 time=0.002777770833333333
EXTRACT: note_on channel=2 note=59 velocity=0 time=0.015277739583333332
EXTRACT: note_on channel=9 note=85 velocity=0 time=0.005555541666666666
EXTRACT: note_on channel=15 note=66 velocity=0 time=0.14027742708333332
EXTRACT: note_on channel=3 note=66 velocity=0 time=0.012499968749999998
EXTRACT: note_on channel=8 note=66 velocity=0 time=0.05416653125
EXTRACT: note_on channel=15 note=59 velocity=0 time=0.05694430208333333
EXTRACT: note_on channel=1 note=32 velocity=103 time=0.012499968749999998
EXTRACT: note_on channel=2 note=58 velocity=65 time=0
EXTRACT: note_on channel=8 note=66 velocity=61 time=0
EXTRACT: note_on channel=9 note=54 velocity=28 time=0
EXTRACT: note_on channel=9 note=42 velocity=60 time=0
EXTRACT: note_on channel=15 note=58 velocity=67 time=0
EXTRACT: note_on channel=3 note=66 velocity=111 time=0
EXTRACT: note_on channel=11 note=46 velocity=75 time=0.005555541666666666
EXTRACT: note_on channel=9 note=54 velocity=0 time=0.02361105208333333
EXTRACT: note_on channel=9 note=42 velocity=0 time=0
EXTRACT: note_on channel=11 note=44 velocity=0 time=0.004166656249999999
EXTRACT: note_on channel=2 note=58 velocity=0 time=0.009722197916666666
EXTRACT: note_on channel=8 note=59 velocity=0 time=0.07916646875
EXTRACT: note_on channel=8 note=63 velocity=0 time=0.04027767708333333
EXTRACT: note_on channel=1 note=32 velocity=0 time=0.012499968749999998
EXTRACT: note_on channel=8 note=66 velocity=0 time=0.0416665625
EXTRACT: note_on channel=11 note=51 velocity=0 time=0.0013888854166666665
EXTRACT: note_on channel=11 note=46 velocity=0 time=0.029166593749999997
EXTRACT: note_on channel=3 note=66 velocity=0 time=0.009722197916666666
EXTRACT: control_change channel=2 control=64 value=0 time=0.05416653125
EXTRACT: note_on channel=8 note=63 velocity=47 time=0.004166656249999999
EXTRACT: note_on channel=8 note=66 velocity=69 time=0.0013888854166666665
EXTRACT: note_on channel=15 note=58 velocity=0 time=0.006944427083333333
EXTRACT: note_on channel=1 note=35 velocity=123 time=0.008333312499999999
EXTRACT: note_on channel=4 note=63 velocity=1 time=0
EXTRACT: note_on channel=4 note=66 velocity=1 time=0
EXTRACT: note_on channel=9 note=54 velocity=40 time=0
EXTRACT: note_on channel=9 note=42 velocity=107 time=0
EXTRACT: note_on channel=9 note=35 velocity=115 time=0
EXTRACT: note_on channel=3 note=73 velocity=110 time=0
EXTRACT: note_on channel=2 note=47 velocity=69 time=0.002777770833333333
EXTRACT: note_on channel=15 note=47 velocity=70 time=0
EXTRACT: control_change channel=2 control=64 value=100 time=0.005555541666666666
EXTRACT: note_on channel=8 note=59 velocity=61 time=0.002777770833333333
EXTRACT: note_on channel=11 note=47 velocity=83 time=0.0013888854166666665
EXTRACT: note_on channel=11 note=51 velocity=71 time=0.011111083333333332
EXTRACT: note_on channel=9 note=54 velocity=0 time=0.005555541666666666
EXTRACT: note_on channel=9 note=42 velocity=0 time=0
EXTRACT: note_on channel=9 note=35 velocity=0 time=0
EXTRACT: note_on channel=2 note=54 velocity=47 time=0.008333312499999999
EXTRACT: note_on channel=15 note=54 velocity=48 time=0
EXTRACT: note_on channel=2 note=54 velocity=0 time=0.04444433333333333
EXTRACT: note_on channel=8 note=63 velocity=0 time=0.06666649999999999
EXTRACT: note_on channel=2 note=47 velocity=0 time=0.03749990625
EXTRACT: note_on channel=15 note=47 velocity=0 time=0
EXTRACT: note_on channel=8 note=63 velocity=29 time=0.09583309374999999
EXTRACT: note_on channel=3 note=73 velocity=0 time=0.033333249999999995
EXTRACT: note_on channel=15 note=54 velocity=0 time=0.012499968749999998
EXTRACT: note_on channel=3 note=71 velocity=110 time=0
EXTRACT: note_on channel=9 note=54 velocity=27 time=0.002777770833333333
EXTRACT: note_on channel=9 note=42 velocity=58 time=0
EXTRACT: note_on channel=2 note=51 velocity=46 time=0.006944427083333333
EXTRACT: note_on channel=15 note=51 velocity=49 time=0
EXTRACT: note_on channel=9 note=54 velocity=0 time=0.02361105208333333
EXTRACT: note_on channel=9 note=42 velocity=0 time=0
EXTRACT: note_on channel=2 note=51 velocity=0 time=0.02083328125
EXTRACT: note_on channel=8 note=66 velocity=0 time=0.048610989583333326
EXTRACT: note_on channel=8 note=63 velocity=0 time=0.07777758333333333
EXTRACT: note_on channel=8 note=59 velocity=0 time=0.012499968749999998
EXTRACT: note_on channel=11 note=47 velocity=0 time=0.005555541666666666
EXTRACT: note_on channel=11 note=51 velocity=0 time=0.048610989583333326
EXTRACT: note_on channel=3 note=71 velocity=0 time=0.016666624999999997
EXTRACT: note_on channel=8 note=66 velocity=67 time=0.05694430208333333
EXTRACT: note_on channel=1 note=35 velocity=0 time=0.004166656249999999
EXTRACT: note_on channel=15 note=51 velocity=0 time=0.004166656249999999
EXTRACT: note_on channel=8 note=63 velocity=58 time=0
EXTRACT: note_on channel=9 note=54 velocity=41 time=0.006944427083333333
EXTRACT: note_on channel=9 note=42 velocity=106 time=0
EXTRACT: note_on channel=9 note=28 velocity=66 time=0
EXTRACT: note_on channel=9 note=39 velocity=104 time=0.0013888854166666665
EXTRACT: note_on channel=9 note=85 velocity=61 time=0.002777770833333333
EXTRACT: note_on channel=2 note=66 velocity=79 time=0
EXTRACT: note_on channel=3 note=70 velocity=110 time=0
EXTRACT: note_on channel=15 note=66 velocity=80 time=0
EXTRACT: note_on channel=2 note=59 velocity=70 time=0.0013888854166666665
EXTRACT: note_on channel=15 note=59 velocity=72 time=0
EXTRACT: note_on channel=8 note=59 velocity=77 time=0.002777770833333333
EXTRACT: note_on channel=2 note=66 velocity=0 time=0.011111083333333332
EXTRACT: note_on channel=9 note=85 velocity=109 time=0.004166656249999999
EXTRACT: note_on channel=9 note=54 velocity=0 time=0.005555541666666666
EXTRACT: note_on channel=9 note=42 velocity=0 time=0
EXTRACT: note_on channel=9 note=28 velocity=0 time=0
EXTRACT: note_on channel=9 note=39 velocity=0 time=0.002777770833333333
EXTRACT: note_on channel=11 note=51 velocity=66 time=0
EXTRACT: note_on channel=9 note=85 velocity=0 time=0.002777770833333333
EXTRACT: note_on channel=11 note=47 velocity=93 time=0.0013888854166666665
EXTRACT: note_on channel=2 note=59 velocity=0 time=0.004166656249999999
EXTRACT: note_on channel=9 note=85 velocity=0 time=0.015277739583333332
EXTRACT: note_on channel=11 note=47 velocity=0 time=0.15138851041666665
EXTRACT: note_on channel=3 note=70 velocity=0 time=0.006944427083333333
EXTRACT: note_on channel=8 note=66 velocity=0 time=0.0749998125
EXTRACT: note_on channel=15 note=59 velocity=0 time=0.030555479166666663
EXTRACT: note_on channel=4 note=63 velocity=0 time=0.0013888854166666665
EXTRACT: note_on channel=9 note=54 velocity=24 time=0.009722197916666666
EXTRACT: note_on channel=1 note=35 velocity=121 time=0.0013888854166666665
EXTRACT: note_on channel=2 note=51 velocity=53 time=0
EXTRACT: note_on channel=2 note=54 velocity=66 time=0
EXTRACT: note_on channel=4 note=61 velocity=1 time=0
EXTRACT: note_on channel=9 note=42 velocity=68 time=0
EXTRACT: note_on channel=9 note=35 velocity=105 time=0
EXTRACT: note_on channel=15 note=51 velocity=55 time=0
EXTRACT: note_on channel=15 note=54 velocity=69 time=0
EXTRACT: note_on channel=8 note=66 velocity=48 time=0.002777770833333333
EXTRACT: note_on channel=3 note=70 velocity=110 time=0
EXTRACT: note_on channel=15 note=66 velocity=0 time=0.026388822916666665
EXTRACT: note_on channel=9 note=54 velocity=0 time=0
EXTRACT: note_on channel=9 note=42 velocity=0 time=0
EXTRACT: note_on channel=9 note=35 velocity=0 time=0
EXTRACT: note_on channel=2 note=51 velocity=0 time=0.002777770833333333
EXTRACT: note_on channel=2 note=54 velocity=0 time=0
EXTRACT: note_on channel=11 note=47 velocity=84 time=0.011111083333333332
EXTRACT: note_on channel=8 note=63 velocity=0 time=0.11111083333333333
EXTRACT: note_on channel=8 note=66 velocity=0 time=0.013888854166666666
EXTRACT: note_on channel=8 note=59 velocity=0 time=0.05277764583333333
EXTRACT: note_on channel=1 note=35 velocity=0 time=0.058333187499999994
EXTRACT: note_on channel=13 note=66 velocity=0 time=0.004166656249999999
EXTRACT: note_on channel=11 note=51 velocity=0 time=0.013888854166666666
EXTRACT: note_on channel=13 note=63 velocity=0 time=0
EXTRACT: note_on channel=13 note=59 velocity=0 time=0.013888854166666666
EXTRACT: control_change channel=2 control=64 value=0 time=0
EXTRACT: note_on channel=15 note=51 velocity=0 time=0.012499968749999998
EXTRACT: note_on channel=15 note=54 velocity=0 time=0
EXTRACT: note_on channel=8 note=66 velocity=64 time=0.0013888854166666665
EXTRACT: note_on channel=13 note=66 velocity=33 time=0.002777770833333333
EXTRACT: note_on channel=1 note=30 velocity=123 time=0.004166656249999999
EXTRACT: note_on channel=9 note=54 velocity=40 time=0
EXTRACT: note_on channel=9 note=42 velocity=109 time=0
EXTRACT: note_on channel=9 note=35 velocity=119 time=0
EXTRACT: note_on channel=13 note=61 velocity=35 time=0
EXTRACT: note_on channel=8 note=58 velocity=67 time=0.002777770833333333
EXTRACT: note_on channel=2 note=42 velocity=60 time=0.0013888854166666665
EXTRACT: note_on channel=15 note=42 velocity=62 time=0
EXTRACT: note_on channel=8 note=61 velocity=56 time=0.0013888854166666665
EXTRACT: note_on channel=11 note=42 velocity=74 time=0.0013888854166666665
EXTRACT: note_on channel=13 note=58 velocity=43 time=0
EXTRACT: note_on channel=11 note=47 velocity=0 time=0.004166656249999999
EXTRACT: note_on channel=2 note=58 velocity=60 time=0.013888854166666666
EXTRACT: note_on channel=2 note=66 velocity=61 time=0
EXTRACT: note_on channel=15 note=58 velocity=63 time=0
EXTRACT: note_on channel=15 note=66 velocity=63 time=0
EXTRACT: note_on channel=9 note=54 velocity=0 time=0.005555541666666666
EXTRACT: note_on channel=9 note=42 velocity=0 time=0
EXTRACT: note_on channel=9 note=35 velocity=0 time=0
EXTRACT: control_change channel=2 control=64 value=100 time=0
EXTRACT: note_on channel=11 note=49 velocity=73 time=0.006944427083333333
EXTRACT: note_on channel=2 note=58 velocity=0 time=0.013888854166666666
EXTRACT: note_on channel=2 note=66 velocity=0 time=0
EXTRACT: note_on channel=4 note=66 velocity=0 time=0.10416640625
EXTRACT: note_on channel=4 note=61 velocity=0 time=0
EXTRACT: note_on channel=2 note=42 velocity=0 time=0
EXTRACT: note_on channel=15 note=42 velocity=0 time=0
EXTRACT: note_on channel=8 note=61 velocity=0 time=0.08611089583333333
EXTRACT: note_on channel=3 note=70 velocity=0 time=0.018055510416666663
EXTRACT: note_on channel=8 note=61 velocity=39 time=0.038888791666666665
EXTRACT: note_on channel=15 note=58 velocity=0 time=0.019444395833333333
EXTRACT: note_on channel=15 note=66 velocity=0 time=0
EXTRACT: note_on channel=2 note=49 velocity=47 time=0
EXTRACT: note_on channel=3 note=68 velocity=111 time=0
EXTRACT: note_on channel=15 note=49 velocity=48 time=0
EXTRACT: note_on channel=9 note=54 velocity=23 time=0.002777770833333333
EXTRACT: note_on channel=9 note=42 velocity=65 time=0
EXTRACT: note_on channel=2 note=54 velocity=46 time=0.006944427083333333
EXTRACT: note_on channel=15 note=54 velocity=49 time=0
EXTRACT: note_on channel=2 note=49 velocity=0 time=0.002777770833333333
EXTRACT: note_on channel=15 note=49 velocity=0 time=0
EXTRACT: note_on channel=2 note=54 velocity=0 time=0.011111083333333332
EXTRACT: note_on channel=9 note=54 velocity=0 time=0.009722197916666666
EXTRACT: note_on channel=9 note=42 velocity=0 time=0
EXTRACT: note_on channel=8 note=66 velocity=0 time=0.08888866666666666
EXTRACT: note_on channel=8 note=61 velocity=0 time=0.06388872916666666
EXTRACT: note_on channel=11 note=49 velocity=0 time=0.04444433333333333
EXTRACT: note_on channel=11 note=42 velocity=0 time=0.006944427083333333
EXTRACT: note_on channel=8 note=58 velocity=0 time=0
EXTRACT: note_on channel=1 note=30 velocity=0 time=0.05972207291666666
EXTRACT: pitchwheel channel=3 pitch=-1821 time=0.005555541666666666
EXTRACT: pitchwheel channel=3 pitch=-4100 time=0.012499968749999998
EXTRACT: note_on channel=15 note=54 velocity=0 time=0.013888854166666666
EXTRACT: note_on channel=8 note=66 velocity=80 time=0.0013888854166666665
EXTRACT: pitchwheel channel=3 pitch=-6620 time=0
EXTRACT: note_on channel=9 note=54 velocity=41 time=0.005555541666666666
EXTRACT: note_on channel=9 note=42 velocity=113 time=0
EXTRACT: note_on channel=9 note=28 velocity=67 time=0
EXTRACT: note_on channel=11 note=42 velocity=76 time=0
EXTRACT: note_on channel=9 note=39 velocity=105 time=0.0013888854166666665
EXTRACT: note_on channel=8 note=61 velocity=67 time=0.002777770833333333
EXTRACT: note_on channel=9 note=85 velocity=61 time=0
EXTRACT: note_on channel=2 note=66 velocity=78 time=0.0013888854166666665
EXTRACT: note_on channel=15 note=66 velocity=81 time=0
EXTRACT: pitchwheel channel=3 pitch=-8192 time=0.004166656249999999
EXTRACT: note_on channel=11 note=49 velocity=75 time=0.012499968749999998
EXTRACT: note_on channel=9 note=85 velocity=109 time=0.002777770833333333
EXTRACT: note_on channel=8 note=58 velocity=70 time=0.0013888854166666665
EXTRACT: note_on channel=2 note=58 velocity=65 time=0.0013888854166666665
EXTRACT: note_on channel=15 note=58 velocity=67 time=0
EXTRACT: note_on channel=9 note=42 velocity=0 time=0.002777770833333333
EXTRACT: note_on channel=9 note=28 velocity=0 time=0
EXTRACT: note_on channel=9 note=54 velocity=0 time=0.0013888854166666665
EXTRACT: note_on channel=9 note=39 velocity=0 time=0.0013888854166666665
EXTRACT: note_on channel=9 note=85 velocity=0 time=0.002777770833333333
EXTRACT: note_on channel=9 note=85 velocity=0 time=0.02083328125
EXTRACT: note_on channel=2 note=58 velocity=0 time=0.005555541666666666
EXTRACT: note_on channel=2 note=66 velocity=0 time=0.009722197916666666
EXTRACT: note_on channel=15 note=66 velocity=0 time=0.12499968749999998
EXTRACT: note_on channel=11 note=42 velocity=0 time=0.03749990625
EXTRACT: note_on channel=3 note=68 velocity=0 time=0.06249984374999999
EXTRACT: note_on channel=15 note=58 velocity=0 time=0.02361105208333333
EXTRACT: note_on channel=3 note=67 velocity=110 time=0
EXTRACT: note_on channel=1 note=30 velocity=111 time=0.004166656249999999
EXTRACT: note_on channel=2 note=54 velocity=55 time=0
EXTRACT: note_on channel=9 note=54 velocity=26 time=0
EXTRACT: note_on channel=9 note=42 velocity=71 time=0
EXTRACT: note_on channel=15 note=54 velocity=57 time=0
EXTRACT: note_on channel=11 note=42 velocity=74 time=0.02361105208333333
EXTRACT: note_on channel=9 note=54 velocity=0 time=0.006944427083333333
EXTRACT: note_on channel=9 note=42 velocity=0 time=0
EXTRACT: note_on channel=2 note=54 velocity=0 time=0.002777770833333333
EXTRACT: note_on channel=8 note=61 velocity=0 time=0.13194411458333333
EXTRACT: note_on channel=11 note=42 velocity=0 time=0.09999974999999998
EXTRACT: note_on channel=8 note=58 velocity=0 time=0.008333312499999999
EXTRACT: note_on channel=8 note=66 velocity=0 time=0.005555541666666666
EXTRACT: note_on channel=11 note=49 velocity=0 time=0.009722197916666666
EXTRACT: control_change channel=2 control=64 value=0 time=0.012499968749999998
EXTRACT: note_on channel=13 note=66 velocity=0 time=0.006944427083333333
EXTRACT: note_on channel=13 note=58 velocity=0 time=0.008333312499999999
EXTRACT: note_on channel=15 note=54 velocity=0 time=0.004166656249999999
EXTRACT: note_on channel=1 note=30 velocity=0 time=0.0013888854166666665
EXTRACT: note_on channel=8 note=61 velocity=61 time=0.008333312499999999
EXTRACT: note_on channel=8 note=66 velocity=64 time=0
EXTRACT: note_on channel=1 note=25 velocity=123 time=0.002777770833333333
EXTRACT: note_on channel=2 note=61 velocity=55 time=0
EXTRACT: note_on channel=2 note=49 velocity=60 time=0
EXTRACT: note_on channel=8 note=56 velocity=67 time=0
EXTRACT: note_on channel=9 note=54 velocity=43 time=0
EXTRACT: note_on channel=9 note=42 velocity=113 time=0
EXTRACT: note_on channel=13 note=56 velocity=39 time=0
EXTRACT: note_on channel=15 note=66 velocity=57 time=0
EXTRACT: note_on channel=13 note=65 velocity=35 time=0.012499968749999998
EXTRACT: note_on channel=2 note=56 velocity=54 time=0.008333312499999999
EXTRACT: note_on channel=15 note=56 velocity=57 time=0
EXTRACT: control_change channel=2 control=64 value=100 time=0
EXTRACT: note_on channel=9 note=42 velocity=0 time=0.009722197916666666
EXTRACT: note_on channel=9 note=54 velocity=0 time=0.0013888854166666665
EXTRACT: note_on channel=2 note=61 velocity=0 time=0.0013888854166666665
EXTRACT: note_on channel=11 note=49 velocity=67 time=0.002777770833333333
EXTRACT: note_on channel=11 note=56 velocity=72 time=0.005555541666666666
EXTRACT: note_on channel=2 note=56 velocity=0 time=0.012499968749999998
EXTRACT: note_on channel=2 note=49 velocity=0 time=0.12916634375
EXTRACT: note_on channel=8 note=61 velocity=0 time=0.004166656249999999
EXTRACT: note_on channel=3 note=67 velocity=0 time=0.06249984374999999
EXTRACT: note_on channel=11 note=56 velocity=0 time=0.002777770833333333
EXTRACT: note_on channel=15 note=66 velocity=0 time=0.006944427083333333
EXTRACT: note_on channel=8 note=61 velocity=41 time=0.04722210416666666
EXTRACT: pitchwheel channel=3 pitch=0 time=0.004166656249999999
EXTRACT: note_on channel=15 note=56 velocity=0 time=0.009722197916666666
EXTRACT: note_on channel=11 note=49 velocity=0 time=0.006944427083333333
EXTRACT: note_on channel=2 note=56 velocity=54 time=0.005555541666666666
EXTRACT: note_on channel=9 note=54 velocity=33 time=0
EXTRACT: note_on channel=9 note=42 velocity=71 time=0
EXTRACT: note_on channel=15 note=56 velocity=57 time=0
EXTRACT: note_on channel=3 note=66 velocity=110 time=0
EXTRACT: note_on channel=2 note=49 velocity=46 time=0.004166656249999999
EXTRACT: note_on channel=15 note=49 velocity=49 time=0
EXTRACT: note_on channel=11 note=58 velocity=66 time=0.008333312499999999
EXTRACT: note_on channel=11 note=51 velocity=67 time=0.004166656249999999
EXTRACT: note_on channel=9 note=54 velocity=0 time=0.011111083333333332
EXTRACT: note_on channel=9 note=42 velocity=0 time=0
EXTRACT: note_on channel=2 note=56 velocity=0 time=0.002777770833333333
EXTRACT: note_on channel=15 note=56 velocity=0 time=0
EXTRACT: note_on channel=2 note=49 velocity=0 time=0.018055510416666663
EXTRACT: note_on channel=8 note=66 velocity=0 time=0.07638869791666666
EXTRACT: note_on channel=8 note=61 velocity=0 time=0.06527761458333332
EXTRACT: note_on channel=3 note=66 velocity=0 time=0.005555541666666666
EXTRACT: note_on channel=8 note=56 velocity=0 time=0.009722197916666666
EXTRACT: note_on channel=11 note=58 velocity=0 time=0.03194436458333333
EXTRACT: note_on channel=3 note=65 velocity=111 time=0
EXTRACT: note_on channel=1 note=25 velocity=0 time=0.002777770833333333
EXTRACT: note_on channel=8 note=65 velocity=80 time=0.005555541666666666
EXTRACT: note_on channel=11 note=51 velocity=0 time=0.002777770833333333
EXTRACT: note_on channel=8 note=61 velocity=66 time=0.002777770833333333
EXTRACT: note_on channel=9 note=54 velocity=43 time=0
EXTRACT: note_on channel=9 note=42 velocity=113 time=0
EXTRACT: note_on channel=9 note=28 velocity=65 time=0
EXTRACT: note_on channel=9 note=39 velocity=103 time=0.0013888854166666665
EXTRACT: note_on channel=15 note=49 velocity=0 time=0.002777770833333333
EXTRACT: note_on channel=9 note=85 velocity=55 time=0
EXTRACT: note_on channel=8 note=56 velocity=70 time=0.005555541666666666
EXTRACT: note_on channel=2 note=61 velocity=64 time=0.005555541666666666
EXTRACT: note_on channel=2 note=56 velocity=85 time=0
EXTRACT: note_on channel=11 note=56 velocity=83 time=0.006944427083333333
EXTRACT: note_on channel=9 note=85 velocity=109 time=0.002777770833333333
EXTRACT: note_on channel=9 note=42 velocity=0 time=0.005555541666666666
EXTRACT: note_on channel=9 note=28 velocity=0 time=0
EXTRACT: note_on channel=9 note=54 velocity=0 time=0.0013888854166666665
EXTRACT: note_on channel=9 note=39 velocity=0 time=0.0013888854166666665
EXTRACT: note_on channel=9 note=85 velocity=0 time=0.002777770833333333
EXTRACT: note_on channel=15 note=65 velocity=67 time=0
EXTRACT: note_on channel=15 note=61 velocity=87 time=0
EXTRACT: note_on channel=2 note=61 velocity=0 time=0.005555541666666666
EXTRACT: note_on channel=2 note=56 velocity=0 time=0
EXTRACT: note_on channel=11 note=49 velocity=67 time=0.008333312499999999
EXTRACT: note_on channel=9 note=85 velocity=0 time=0.006944427083333333
EXTRACT: pitchwheel channel=3 pitch=-166 time=0.11249971874999999
EXTRACT: pitchwheel channel=3 pitch=-286 time=0.012499968749999998
EXTRACT: pitchwheel channel=3 pitch=-663 time=0.015277739583333332
EXTRACT: pitchwheel channel=3 pitch=-783 time=0.015277739583333332
EXTRACT: pitchwheel channel=3 pitch=-1242 time=0.012499968749999998
EXTRACT: pitchwheel channel=3 pitch=-1610 time=0.013888854166666666
EXTRACT: pitchwheel channel=3 pitch=-2235 time=0.015277739583333332
EXTRACT: pitchwheel channel=3 pitch=-2731 time=0.012499968749999998
EXTRACT: pitchwheel channel=3 pitch=-3100 time=0.015277739583333332
EXTRACT: pitchwheel channel=3 pitch=-3679 time=0.013888854166666666
EXTRACT: pitchwheel channel=3 pitch=-4221 time=0.013888854166666666
EXTRACT: pitchwheel channel=3 pitch=-4552 time=0.013888854166666666
EXTRACT: note_on channel=1 note=30 velocity=121 time=0.009722197916666666
EXTRACT: note_on channel=9 note=54 velocity=33 time=0
EXTRACT: note_on channel=9 note=35 velocity=89 time=0
EXTRACT: note_on channel=9 note=46 velocity=85 time=0
EXTRACT: note_on channel=2 note=49 velocity=42 time=0.004166656249999999
EXTRACT: note_on channel=15 note=49 velocity=45 time=0
EXTRACT: note_on channel=11 note=49 velocity=0 time=0
EXTRACT: pitchwheel channel=3 pitch=-4883 time=0.0013888854166666665
EXTRACT: note_on channel=15 note=65 velocity=0 time=0.006944427083333333
EXTRACT: note_on channel=15 note=61 velocity=0 time=0
EXTRACT: note_on channel=2 note=56 velocity=65 time=0.005555541666666666
EXTRACT: note_on channel=11 note=47 velocity=60 time=0
EXTRACT: note_on channel=15 note=56 velocity=67 time=0
EXTRACT: pitchwheel channel=3 pitch=-5214 time=0.0013888854166666665
EXTRACT: note_on channel=9 note=54 velocity=0 time=0.011111083333333332
EXTRACT: note_on channel=9 note=35 velocity=0 time=0
EXTRACT: note_on channel=9 note=46 velocity=0 time=0
EXTRACT: pitchwheel channel=3 pitch=-5462 time=0.002777770833333333
EXTRACT: pitchwheel channel=3 pitch=-5793 time=0.013888854166666666
EXTRACT: note_on channel=2 note=49 velocity=0 time=0.004166656249999999
EXTRACT: note_on channel=15 note=49 velocity=0 time=0
EXTRACT: pitchwheel channel=3 pitch=-6289 time=0.009722197916666666
EXTRACT: pitchwheel channel=3 pitch=-6869 time=0.015277739583333332
EXTRACT: note_on channel=8 note=65 velocity=0 time=0.012499968749999998
EXTRACT: pitchwheel channel=3 pitch=-7531 time=0.0013888854166666665
EXTRACT: pitchwheel channel=3 pitch=-8027 time=0.012499968749999998
EXTRACT: pitchwheel channel=3 pitch=-8192 time=0.015277739583333332
EXTRACT: note_on channel=8 note=61 velocity=0 time=0.019444395833333333
EXTRACT: note_on channel=11 note=56 velocity=0 time=0.038888791666666665
EXTRACT: note_on channel=8 note=56 velocity=0 time=0.004166656249999999
EXTRACT: note_on channel=3 note=65 velocity=0 time=0.019444395833333333
EXTRACT: note_on channel=13 note=61 velocity=0 time=0.07083315624999999
EXTRACT: note_on channel=1 note=30 velocity=0 time=0.009722197916666666
EXTRACT: control_change channel=2 control=64 value=0 time=0
EXTRACT: pitchwheel channel=3 pitch=128 time=0.011111083333333332
EXTRACT: note_on channel=13 note=56 velocity=0 time=0.018055510416666663
EXTRACT: note_on channel=13 note=65 velocity=0 time=0.012499968749999998
EXTRACT: note_on channel=11 note=47 velocity=0 time=0
EXTRACT: note_on channel=8 note=66 velocity=72 time=0
EXTRACT: note_on channel=15 note=56 velocity=0 time=0.002777770833333333
EXTRACT: note_on channel=8 note=63 velocity=61 time=0.002777770833333333
EXTRACT: note_on channel=1 note=32 velocity=123 time=0.005555541666666666
EXTRACT: note_on channel=8 note=59 velocity=54 time=0
EXTRACT: note_on channel=9 note=54 velocity=38 time=0
EXTRACT: note_on channel=9 note=42 velocity=109 time=0
EXTRACT: note_on channel=9 note=35 velocity=116 time=0
EXTRACT: note_on channel=11 note=44 velocity=80 time=0
EXTRACT: note_on channel=2 note=44 velocity=65 time=0
EXTRACT: note_on channel=3 note=63 velocity=111 time=0
EXTRACT: note_on channel=15 note=44 velocity=67 time=0
EXTRACT: note_on channel=13 note=56 velocity=45 time=0.002777770833333333
EXTRACT: note_on channel=13 note=59 velocity=36 time=0.002777770833333333
EXTRACT: note_on channel=13 note=63 velocity=37 time=0.004166656249999999
EXTRACT: control_change channel=2 control=64 value=100 time=0.006944427083333333
EXTRACT: note_on channel=2 note=59 velocity=46 time=0.006944427083333333
EXTRACT: note_on channel=15 note=59 velocity=49 time=0
EXTRACT: note_on channel=9 note=54 velocity=0 time=0.002777770833333333
EXTRACT: note_on channel=9 note=42 velocity=0 time=0
EXTRACT: note_on channel=9 note=35 velocity=0 time=0
EXTRACT: note_on channel=2 note=63 velocity=62 time=0.004166656249999999
EXTRACT: note_on channel=15 note=63 velocity=65 time=0
EXTRACT: note_on channel=2 note=59 velocity=0 time=0.006944427083333333
EXTRACT: note_on channel=15 note=59 velocity=0 time=0
EXTRACT: note_on channel=2 note=63 velocity=0 time=0
EXTRACT: note_on channel=11 note=51 velocity=60 time=0.011111083333333332
EXTRACT: note_on channel=2 note=44 velocity=0 time=0.030555479166666663
EXTRACT: note_on channel=15 note=44 velocity=0 time=0
EXTRACT: note_on channel=8 note=63 velocity=0 time=0.13472188541666666
EXTRACT: note_on channel=8 note=66 velocity=0 time=0.061110958333333326
EXTRACT: note_on channel=8 note=63 velocity=54 time=0.02777770833333333
EXTRACT: note_on channel=8 note=66 velocity=61 time=0.02083328125
EXTRACT: note_on channel=15 note=63 velocity=0 time=0.0013888854166666665
EXTRACT: note_on channel=9 note=54 velocity=24 time=0.004166656249999999
EXTRACT: note_on channel=9 note=42 velocity=74 time=0
EXTRACT: note_on channel=2 note=54 velocity=47 time=0.006944427083333333
EXTRACT: note_on channel=15 note=54 velocity=49 time=0
EXTRACT: note_on channel=2 note=51 velocity=44 time=0.011111083333333332
EXTRACT: note_on channel=15 note=51 velocity=47 time=0
EXTRACT: note_on channel=2 note=54 velocity=0 time=0.002777770833333333
EXTRACT: note_on channel=15 note=54 velocity=0 time=0
EXTRACT: note_on channel=9 note=54 velocity=0 time=0.009722197916666666
EXTRACT: note_on channel=9 note=42 velocity=0 time=0
EXTRACT: note_on channel=2 note=51 velocity=0 time=0
EXTRACT: note_on channel=8 note=59 velocity=0 time=0.08194423958333333
EXTRACT: note_on channel=3 note=63 velocity=0 time=0.04305544791666666
EXTRACT: note_on channel=11 note=44 velocity=0 time=0.013888854166666666
EXTRACT: note_on channel=8 note=63 velocity=0 time=0.033333249999999995
EXTRACT: note_on channel=8 note=66 velocity=0 time=0
EXTRACT: note_on channel=11 note=51 velocity=0 time=0.008333312499999999
EXTRACT: note_on channel=1 note=32 velocity=0 time=0.083333125
EXTRACT: note_on channel=8 note=59 velocity=77 time=0.013888854166666666
EXTRACT: note_on channel=8 note=63 velocity=68 time=0.005555541666666666
EXTRACT: note_on channel=8 note=66 velocity=68 time=0.005555541666666666
EXTRACT: note_on channel=3 note=66 velocity=110 time=0
EXTRACT: note_on channel=15 note=51 velocity=0 time=0.0013888854166666665
EXTRACT: note_on channel=9 note=54 velocity=39 time=0.006944427083333333
EXTRACT: note_on channel=9 note=42 velocity=108 time=0
EXTRACT: note_on channel=9 note=28 velocity=69 time=0
EXTRACT: note_on channel=9 note=39 velocity=106 time=0.0013888854166666665
EXTRACT: note_on channel=9 note=85 velocity=59 time=0.002777770833333333
EXTRACT: note_on channel=2 note=66 velocity=84 time=0.0013888854166666665
EXTRACT: note_on channel=15 note=66 velocity=87 time=0
EXTRACT: note_on channel=2 note=59 velocity=65 time=0.0013888854166666665
EXTRACT: note_on channel=15 note=59 velocity=67 time=0
EXTRACT: note_on channel=11 note=51 velocity=64 time=0.008333312499999999
EXTRACT: note_on channel=11 note=44 velocity=81 time=0.004166656249999999
EXTRACT: note_on channel=2 note=66 velocity=0 time=0.0013888854166666665
EXTRACT: note_on channel=15 note=66 velocity=0 time=0
EXTRACT: note_on channel=9 note=85 velocity=108 time=0.004166656249999999
EXTRACT: note_on channel=9 note=54 velocity=0 time=0.005555541666666666
EXTRACT: note_on channel=9 note=42 velocity=0 time=0
EXTRACT: note_on channel=9 note=28 velocity=0 time=0
EXTRACT: note_on channel=9 note=39 velocity=0 time=0.002777770833333333
EXTRACT: note_on channel=9 note=85 velocity=0 time=0.002777770833333333
EXTRACT: note_on channel=2 note=59 velocity=0 time=0.015277739583333332
EXTRACT: note_on channel=9 note=85 velocity=0 time=0.005555541666666666
EXTRACT: note_on channel=3 note=66 velocity=0 time=0.1569440520833333
EXTRACT: note_on channel=8 note=59 velocity=0 time=0.015277739583333332
EXTRACT: note_on channel=8 note=66 velocity=0 time=0.04722210416666666
EXTRACT: note_on channel=3 note=66 velocity=110 time=0
EXTRACT: note_on channel=15 note=59 velocity=0 time=0.005555541666666666
EXTRACT: note_on channel=8 note=66 velocity=61 time=0.004166656249999999
EXTRACT: note_on channel=8 note=59 velocity=60 time=0.006944427083333333
EXTRACT: note_on channel=1 note=34 velocity=111 time=0.0013888854166666665
EXTRACT: note_on channel=2 note=58 velocity=65 time=0
EXTRACT: note_on channel=9 note=54 velocity=28 time=0
EXTRACT: note_on channel=9 note=42 velocity=60 time=0
EXTRACT: note_on channel=15 note=58 velocity=67 time=0
EXTRACT: note_on channel=11 note=46 velocity=68 time=0.006944427083333333
EXTRACT: note_on channel=9 note=54 velocity=0 time=0.02361105208333333
EXTRACT: note_on channel=9 note=42 velocity=0 time=0
EXTRACT: note_on channel=11 note=44 velocity=0 time=0.004166656249999999
EXTRACT: note_on channel=2 note=58 velocity=0 time=0.009722197916666666
EXTRACT: note_on channel=8 note=63 velocity=0 time=0.13888854166666664
EXTRACT: note_on channel=11 note=51 velocity=0 time=0.03611102083333333
EXTRACT: note_on channel=8 note=66 velocity=0 time=0.0013888854166666665
EXTRACT: note_on channel=11 note=46 velocity=0 time=0.02777770833333333
EXTRACT: note_on channel=3 note=66 velocity=0 time=0.002777770833333333
EXTRACT: note_on channel=8 note=59 velocity=0 time=0.022222166666666664
EXTRACT: note_on channel=13 note=56 velocity=0 time=0.0013888854166666665
EXTRACT: note_on channel=8 note=63 velocity=54 time=0.03194436458333333
EXTRACT: note_on channel=3 note=73 velocity=111 time=0
EXTRACT: control_change channel=2 control=64 value=0 time=0
EXTRACT: note_on channel=1 note=34 velocity=0 time=0.009722197916666666
EXTRACT: note_on channel=15 note=58 velocity=0 time=0.002777770833333333
EXTRACT: note_on channel=8 note=66 velocity=63 time=0
EXTRACT: note_on channel=1 note=35 velocity=123 time=0.008333312499999999
EXTRACT: note_on channel=4 note=63 velocity=1 time=0
EXTRACT: note_on channel=4 note=66 velocity=1 time=0
EXTRACT: note_on channel=9 note=54 velocity=41 time=0
EXTRACT: note_on channel=9 note=42 velocity=107 time=0
EXTRACT: note_on channel=9 note=35 velocity=115 time=0
EXTRACT: note_on channel=2 note=47 velocity=68 time=0.004166656249999999
EXTRACT: note_on channel=15 note=47 velocity=71 time=0
EXTRACT: note_on channel=13 note=66 velocity=42 time=0.002777770833333333
EXTRACT: control_change channel=2 control=64 value=100 time=0.002777770833333333
EXTRACT: note_on channel=11 note=47 velocity=82 time=0.004166656249999999
EXTRACT: note_on channel=11 note=51 velocity=71 time=0.011111083333333332
EXTRACT: note_on channel=8 note=59 velocity=89 time=0.0013888854166666665
EXTRACT: note_on channel=9 note=54 velocity=0 time=0.004166656249999999
EXTRACT: note_on channel=9 note=42 velocity=0 time=0
EXTRACT: note_on channel=9 note=35 velocity=0 time=0
EXTRACT: note_on channel=2 note=54 velocity=47 time=0.008333312499999999
EXTRACT: note_on channel=15 note=54 velocity=49 time=0
EXTRACT: note_on channel=2 note=54 velocity=0 time=0.04444433333333333
EXTRACT: note_on channel=8 note=63 velocity=0 time=0.08472201041666666
EXTRACT: note_on channel=2 note=47 velocity=0 time=0.019444395833333333
EXTRACT: note_on channel=15 note=47 velocity=0 time=0
EXTRACT: note_on channel=3 note=73 velocity=0 time=0.09583309374999999
EXTRACT: note_on channel=8 note=63 velocity=44 time=0.006944427083333333
EXTRACT: note_on channel=3 note=71 velocity=110 time=0
EXTRACT: note_on channel=15 note=54 velocity=0 time=0.006944427083333333
EXTRACT: note_on channel=9 note=54 velocity=27 time=0.004166656249999999
EXTRACT: note_on channel=9 note=42 velocity=58 time=0
EXTRACT: note_on channel=2 note=51 velocity=47 time=0.006944427083333333
EXTRACT: note_on channel=15 note=51 velocity=48 time=0
EXTRACT: note_on channel=9 note=54 velocity=0 time=0.02361105208333333
EXTRACT: note_on channel=9 note=42 velocity=0 time=0
EXTRACT: note_on channel=2 note=51 velocity=0 time=0.02083328125
EXTRACT: note_on channel=8 note=66 velocity=0 time=0.04305544791666666
EXTRACT: note_on channel=8 note=63 velocity=0 time=0.08749978124999999
EXTRACT: note_on channel=11 note=47 velocity=0 time=0.013888854166666666
EXTRACT: note_on channel=8 note=59 velocity=0 time=0.006944427083333333
EXTRACT: note_on channel=11 note=51 velocity=0 time=0.0416665625
EXTRACT: note_on channel=3 note=71 velocity=0 time=0.04305544791666666
EXTRACT: note_on channel=8 note=63 velocity=69 time=0.03194436458333333
EXTRACT: note_on channel=1 note=35 velocity=0 time=0.002777770833333333
EXTRACT: note_on channel=15 note=51 velocity=0 time=0.004166656249999999
EXTRACT: note_on channel=8 note=66 velocity=77 time=0.006944427083333333
EXTRACT: note_on channel=9 note=54 velocity=40 time=0
EXTRACT: note_on channel=9 note=42 velocity=106 time=0
EXTRACT: note_on channel=9 note=28 velocity=68 time=0
EXTRACT: note_on channel=3 note=70 velocity=110 time=0
EXTRACT: note_on channel=8 note=59 velocity=80 time=0
EXTRACT: note_on channel=9 note=39 velocity=107 time=0
EXTRACT: note_on channel=9 note=85 velocity=56 time=0.002777770833333333
EXTRACT: note_on channel=2 note=66 velocity=78 time=0.0013888854166666665
EXTRACT: note_on channel=15 note=66 velocity=81 time=0
EXTRACT: note_on channel=2 note=59 velocity=71 time=0.0013888854166666665
EXTRACT: note_on channel=15 note=59 velocity=72 time=0
EXTRACT: note_on channel=2 note=66 velocity=0 time=0.013888854166666666
EXTRACT: note_on channel=15 note=66 velocity=0 time=0
EXTRACT: note_on channel=9 note=85 velocity=108 time=0.004166656249999999
EXTRACT: note_on channel=9 note=54 velocity=0 time=0.005555541666666666
EXTRACT: note_on channel=9 note=42 velocity=0 time=0
EXTRACT: note_on channel=9 note=28 velocity=0 time=0
EXTRACT: note_on channel=9 note=39 velocity=0 time=0.002777770833333333
EXTRACT: note_on channel=11 note=51 velocity=67 time=0
EXTRACT: note_on channel=9 note=85 velocity=0 time=0.002777770833333333
EXTRACT: note_on channel=11 note=47 velocity=92 time=0.0013888854166666665
EXTRACT: note_on channel=2 note=59 velocity=0 time=0.004166656249999999
EXTRACT: note_on channel=9 note=85 velocity=0 time=0.015277739583333332
EXTRACT: note_on channel=8 note=63 velocity=0 time=0.12361080208333332
EXTRACT: note_on channel=11 note=47 velocity=0 time=0.02777770833333333
EXTRACT: note_on channel=8 note=66 velocity=0 time=0.045833218749999995
EXTRACT: note_on channel=3 note=70 velocity=0 time=0
EXTRACT: note_on channel=15 note=59 velocity=0 time=0.06666649999999999
EXTRACT: note_on channel=8 note=63 velocity=55 time=0.002777770833333333
EXTRACT: note_on channel=8 note=66 velocity=61 time=0.0013888854166666665
EXTRACT: note_on channel=9 note=54 velocity=24 time=0.006944427083333333
EXTRACT: note_on channel=1 note=35 velocity=121 time=0.0013888854166666665
EXTRACT: note_on channel=2 note=51 velocity=53 time=0
EXTRACT: note_on channel=2 note=54 velocity=67 time=0
EXTRACT: note_on channel=9 note=42 velocity=69 time=0
EXTRACT: note_on channel=9 note=35 velocity=105 time=0
EXTRACT: note_on channel=15 note=51 velocity=55 time=0
EXTRACT: note_on channel=15 note=54 velocity=68 time=0
EXTRACT: note_on channel=3 note=70 velocity=111 time=0
EXTRACT: note_on channel=9 note=54 velocity=0 time=0.019444395833333333
EXTRACT: note_on channel=9 note=42 velocity=0 time=0
EXTRACT: note_on channel=9 note=35 velocity=0 time=0
EXTRACT: note_on channel=2 note=51 velocity=0 time=0.002777770833333333
EXTRACT: note_on channel=2 note=54 velocity=0 time=0
EXTRACT: note_on channel=11 note=47 velocity=84 time=0.011111083333333332
EXTRACT: note_on channel=8 note=66 velocity=0 time=0.08194423958333333
EXTRACT: note_on channel=8 note=63 velocity=0 time=0.06944427083333332
EXTRACT: note_on channel=8 note=59 velocity=0 time=0.07222204166666665
EXTRACT: note_on channel=13 note=63 velocity=0 time=0.005555541666666666
EXTRACT: note_on channel=3 note=70 velocity=0 time=0.002777770833333333
EXTRACT: note_on channel=1 note=35 velocity=0 time=0.004166656249999999
EXTRACT: note_on channel=11 note=51 velocity=0 time=0.018055510416666663
EXTRACT: note_on channel=15 note=51 velocity=0 time=0.005555541666666666
EXTRACT: note_on channel=15 note=54 velocity=0 time=0
EXTRACT: note_on channel=13 note=59 velocity=0 time=0.004166656249999999
EXTRACT: control_change channel=2 control=64 value=0 time=0.004166656249999999
EXTRACT: note_on channel=2 note=51 velocity=61 time=0.004166656249999999
EXTRACT: note_on channel=8 note=66 velocity=67 time=0.002777770833333333
EXTRACT: note_on channel=13 note=58 velocity=42 time=0.002777770833333333
EXTRACT: note_on channel=13 note=61 velocity=43 time=0.006944427083333333
EXTRACT: note_on channel=1 note=39 velocity=123 time=0.004166656249999999
EXTRACT: note_on channel=8 note=63 velocity=63 time=0
EXTRACT: note_on channel=9 note=54 velocity=40 time=0
EXTRACT: note_on channel=9 note=42 velocity=108 time=0
EXTRACT: note_on channel=9 note=35 velocity=119 time=0
EXTRACT: note_on channel=11 note=39 velocity=75 time=0.006944427083333333
EXTRACT: note_on channel=11 note=47 velocity=0 time=0.004166656249999999
EXTRACT: note_on channel=8 note=58 velocity=69 time=0.002777770833333333
EXTRACT: note_on channel=11 note=46 velocity=72 time=0.002777770833333333
EXTRACT: note_on channel=2 note=58 velocity=61 time=0.008333312499999999
EXTRACT: note_on channel=2 note=66 velocity=61 time=0
EXTRACT: note_on channel=15 note=58 velocity=62 time=0
EXTRACT: note_on channel=15 note=66 velocity=63 time=0
EXTRACT: note_on channel=9 note=54 velocity=0 time=0.005555541666666666
EXTRACT: note_on channel=9 note=42 velocity=0 time=0
EXTRACT: note_on channel=9 note=35 velocity=0 time=0
EXTRACT: control_change channel=2 control=64 value=100 time=0
EXTRACT: note_on channel=2 note=58 velocity=0 time=0.02083328125
EXTRACT: note_on channel=2 note=66 velocity=0 time=0
EXTRACT: note_on channel=11 note=51 velocity=74 time=0.02777770833333333
EXTRACT: note_on channel=2 note=51 velocity=0 time=0.05555541666666666
EXTRACT: note_on channel=4 note=63 velocity=0 time=0.02083328125
EXTRACT: note_on channel=4 note=66 velocity=0 time=0
EXTRACT: note_on channel=8 note=66 velocity=0 time=0.06527761458333332
EXTRACT: note_on channel=3 note=68 velocity=111 time=0.10416640625
EXTRACT: note_on channel=8 note=66 velocity=55 time=0
EXTRACT: note_on channel=9 note=54 velocity=23 time=0.008333312499999999
EXTRACT: note_on channel=9 note=42 velocity=64 time=0
EXTRACT: note_on channel=15 note=58 velocity=0 time=0.016666624999999997
EXTRACT: note_on channel=15 note=66 velocity=0 time=0
EXTRACT: note_on channel=2 note=54 velocity=47 time=0.011111083333333332
EXTRACT: note_on channel=15 note=54 velocity=48 time=0
EXTRACT: note_on channel=9 note=54 velocity=0 time=0.002777770833333333
EXTRACT: note_on channel=9 note=42 velocity=0 time=0
EXTRACT: note_on channel=2 note=54 velocity=0 time=0.011111083333333332
EXTRACT: note_on channel=2 note=51 velocity=47 time=0.018055510416666663
EXTRACT: note_on channel=15 note=51 velocity=49 time=0
EXTRACT: note_on channel=2 note=51 velocity=0 time=0.012499968749999998
EXTRACT: note_on channel=8 note=66 velocity=0 time=0.10555529166666666
EXTRACT: note_on channel=8 note=63 velocity=0 time=0
EXTRACT: note_on channel=11 note=46 velocity=0 time=0.029166593749999997
EXTRACT: note_on channel=3 note=68 velocity=0 time=0.0013888854166666665
EXTRACT: note_on channel=8 note=58 velocity=0 time=0
EXTRACT: note_on channel=11 note=39 velocity=0 time=0.019444395833333333
EXTRACT: note_on channel=15 note=54 velocity=0 time=0.045833218749999995
EXTRACT: note_on channel=1 note=39 velocity=0 time=0.013888854166666666
EXTRACT: note_on channel=11 note=39 velocity=77 time=0.018055510416666663
EXTRACT: note_on channel=8 note=66 velocity=79 time=0.009722197916666666
EXTRACT: note_on channel=15 note=51 velocity=0 time=0.004166656249999999
EXTRACT: note_on channel=8 note=63 velocity=61 time=0.006944427083333333
EXTRACT: note_on channel=8 note=58 velocity=63 time=0
EXTRACT: note_on channel=9 note=54 velocity=41 time=0
EXTRACT: note_on channel=9 note=42 velocity=112 time=0
EXTRACT: note_on channel=9 note=28 velocity=69 time=0
EXTRACT: note_on channel=9 note=39 velocity=106 time=0.0013888854166666665
EXTRACT: note_on channel=11 note=46 velocity=75 time=0
EXTRACT: note_on channel=9 note=85 velocity=61 time=0.002777770833333333
EXTRACT: note_on channel=2 note=66 velocity=79 time=0.0013888854166666665
EXTRACT: note_on channel=15 note=66 velocity=80 time=0
EXTRACT: note_on channel=3 note=66 velocity=110 time=0
EXTRACT: note_on channel=9 note=85 velocity=109 time=0.009722197916666666
EXTRACT: note_on channel=2 note=58 velocity=65 time=0.002777770833333333
EXTRACT: note_on channel=15 note=58 velocity=66 time=0
EXTRACT: note_on channel=9 note=42 velocity=0 time=0.002777770833333333
EXTRACT: note_on channel=9 note=28 velocity=0 time=0
EXTRACT: note_on channel=9 note=54 velocity=0 time=0.0013888854166666665
EXTRACT: note_on channel=9 note=39 velocity=0 time=0.0013888854166666665
EXTRACT: note_on channel=9 note=85 velocity=0 time=0.002777770833333333
EXTRACT: note_on channel=9 note=85 velocity=0 time=0.02083328125
EXTRACT: note_on channel=11 note=51 velocity=0 time=0.0013888854166666665
EXTRACT: note_on channel=2 note=58 velocity=0 time=0.004166656249999999
EXTRACT: note_on channel=2 note=66 velocity=0 time=0.009722197916666666
EXTRACT: note_on channel=8 note=63 velocity=0 time=0.12499968749999998
EXTRACT: note_on channel=11 note=39 velocity=0 time=0.016666624999999997
EXTRACT: note_on channel=8 note=58 velocity=0 time=0.029166593749999997
EXTRACT: note_on channel=8 note=66 velocity=0 time=0.024999937499999996
EXTRACT: note_on channel=3 note=66 velocity=0 time=0.03472213541666666
EXTRACT: note_on channel=8 note=58 velocity=69 time=0.015277739583333332
EXTRACT: note_on channel=15 note=58 velocity=0 time=0.002777770833333333
EXTRACT: note_on channel=11 note=51 velocity=66 time=0.002777770833333333
EXTRACT: note_on channel=8 note=66 velocity=63 time=0.004166656249999999
EXTRACT: note_on channel=8 note=63 velocity=55 time=0.002777770833333333
EXTRACT: note_on channel=1 note=39 velocity=110 time=0
EXTRACT: note_on channel=2 note=54 velocity=55 time=0
EXTRACT: note_on channel=3 note=65 velocity=111 time=0
EXTRACT: note_on channel=9 note=54 velocity=26 time=0
EXTRACT: note_on channel=9 note=42 velocity=70 time=0
EXTRACT: note_on channel=15 note=54 velocity=57 time=0
EXTRACT: note_on channel=15 note=66 velocity=0 time=0.030555479166666663
EXTRACT: note_on channel=9 note=54 velocity=0 time=0
EXTRACT: note_on channel=9 note=42 velocity=0 time=0
EXTRACT: note_on channel=2 note=54 velocity=0 time=0.002777770833333333
EXTRACT: note_on channel=8 note=66 velocity=0 time=0.12499968749999998
EXTRACT: note_on channel=3 note=65 velocity=0 time=0.024999937499999996
EXTRACT: note_on channel=8 note=63 velocity=0 time=0.038888791666666665
EXTRACT: note_on channel=8 note=58 velocity=0 time=0.029166593749999997
EXTRACT: note_on channel=11 note=46 velocity=0 time=0.016666624999999997
EXTRACT: note_on channel=11 note=51 velocity=0 time=0.008333312499999999
EXTRACT: note_on channel=13 note=66 velocity=0 time=0.004166656249999999
EXTRACT: note_on channel=13 note=58 velocity=0 time=0.02083328125
EXTRACT: control_change channel=2 control=64 value=0 time=0
EXTRACT: note_on channel=8 note=56 velocity=65 time=0.005555541666666666
EXTRACT: note_on channel=13 note=65 velocity=34 time=0.006944427083333333
EXTRACT: note_on channel=15 note=54 velocity=0 time=0.006944427083333333
EXTRACT: note_on channel=1 note=39 velocity=0 time=0.0013888854166666665
EXTRACT: control_change channel=2 control=64 value=100 time=0.004166656249999999
EXTRACT: note_on channel=8 note=61 velocity=65 time=0.002777770833333333
EXTRACT: note_on channel=1 note=37 velocity=123 time=0.004166656249999999
EXTRACT: note_on channel=2 note=61 velocity=55 time=0
EXTRACT: note_on channel=2 note=49 velocity=61 time=0
EXTRACT: note_on channel=8 note=65 velocity=67 time=0
EXTRACT: note_on channel=9 note=54 velocity=43 time=0
EXTRACT: note_on channel=9 note=42 velocity=113 time=0
EXTRACT: note_on channel=15 note=61 velocity=57 time=0
EXTRACT: note_on channel=13 note=68 velocity=41 time=0.002777770833333333
EXTRACT: note_on channel=3 note=65 velocity=111 time=0
EXTRACT: note_on channel=2 note=56 velocity=55 time=0.009722197916666666
EXTRACT: note_on channel=15 note=56 velocity=57 time=0
EXTRACT: note_on channel=11 note=44 velocity=81 time=0.0013888854166666665
EXTRACT: note_on channel=9 note=42 velocity=0 time=0.008333312499999999
EXTRACT: note_on channel=9 note=54 velocity=0 time=0.0013888854166666665
EXTRACT: note_on channel=2 note=61 velocity=0 time=0.0013888854166666665
EXTRACT: note_on channel=11 note=49 velocity=81 time=0.002777770833333333
EXTRACT: note_on channel=2 note=56 velocity=0 time=0.018055510416666663
EXTRACT: note_on channel=2 note=49 velocity=0 time=0.12916634375
EXTRACT: note_on channel=8 note=56 velocity=0 time=0.022222166666666664
EXTRACT: note_on channel=8 note=65 velocity=0 time=0.07222204166666665
EXTRACT: note_on channel=3 note=65 velocity=0 time=0.019444395833333333
EXTRACT: note_on channel=8 note=56 velocity=65 time=0.009722197916666666
EXTRACT: note_on channel=15 note=56 velocity=0 time=0.013888854166666666
EXTRACT: note_on channel=2 note=56 velocity=55 time=0.012499968749999998
EXTRACT: note_on channel=8 note=66 velocity=63 time=0
EXTRACT: note_on channel=9 note=54 velocity=33 time=0
EXTRACT: note_on channel=9 note=42 velocity=71 time=0
EXTRACT: note_on channel=15 note=56 velocity=56 time=0
EXTRACT: note_on channel=2 note=49 velocity=47 time=0.006944427083333333
EXTRACT: note_on channel=15 note=49 velocity=48 time=0
EXTRACT: note_on channel=3 note=66 velocity=110 time=0
EXTRACT: note_on channel=9 note=54 velocity=0 time=0.018055510416666663
EXTRACT: note_on channel=9 note=42 velocity=0 time=0
EXTRACT: note_on channel=2 note=56 velocity=0 time=0.002777770833333333
EXTRACT: note_on channel=15 note=56 velocity=0 time=0
EXTRACT: note_on channel=2 note=49 velocity=0 time=0.018055510416666663
EXTRACT: note_on channel=15 note=61 velocity=0 time=0.0416665625
EXTRACT: note_on channel=8 note=61 velocity=0 time=0.08194423958333333
EXTRACT: note_on channel=8 note=56 velocity=0 time=0.04999987499999999
EXTRACT: note_on channel=8 note=66 velocity=0 time=0.012499968749999998
EXTRACT: note_on channel=3 note=66 velocity=0 time=0.03611102083333333
EXTRACT: note_on channel=11 note=44 velocity=0 time=0.011111083333333332
EXTRACT: note_on channel=11 note=49 velocity=0 time=0
EXTRACT: note_on channel=8 note=61 velocity=63 time=0.026388822916666665
EXTRACT: note_on channel=8 note=65 velocity=79 time=0.009722197916666666
EXTRACT: note_on channel=1 note=37 velocity=0 time=0.0013888854166666665
EXTRACT: note_on channel=3 note=65 velocity=111 time=0
EXTRACT: note_on channel=8 note=56 velocity=71 time=0
EXTRACT: note_on channel=9 note=54 velocity=43 time=0.0013888854166666665
EXTRACT: note_on channel=9 note=42 velocity=113 time=0
EXTRACT: note_on channel=9 note=28 velocity=93 time=0
EXTRACT: note_on channel=9 note=39 velocity=101 time=0.0013888854166666665
EXTRACT: note_on channel=15 note=49 velocity=0 time=0.002777770833333333
EXTRACT: note_on channel=9 note=85 velocity=61 time=0
EXTRACT: note_on channel=2 note=61 velocity=65 time=0.011111083333333332
EXTRACT: note_on channel=2 note=56 velocity=85 time=0
EXTRACT: note_on channel=15 note=56 velocity=72 time=0
EXTRACT: note_on channel=15 note=61 velocity=72 time=0
EXTRACT: note_on channel=9 note=85 velocity=109 time=0.009722197916666666
EXTRACT: note_on channel=9 note=42 velocity=0 time=0.005555541666666666
EXTRACT: note_on channel=9 note=28 velocity=0 time=0
EXTRACT: note_on channel=9 note=54 velocity=0 time=0.0013888854166666665
EXTRACT: note_on channel=9 note=39 velocity=0 time=0.0013888854166666665
EXTRACT: note_on channel=11 note=44 velocity=70 time=0
EXTRACT: note_on channel=9 note=85 velocity=0 time=0.002777770833333333
EXTRACT: note_on channel=2 note=61 velocity=0 time=0.005555541666666666
EXTRACT: note_on channel=2 note=56 velocity=0 time=0
EXTRACT: note_on channel=11 note=49 velocity=71 time=0.004166656249999999
EXTRACT: note_on channel=9 note=85 velocity=0 time=0.011111083333333332
EXTRACT: note_on channel=8 note=61 velocity=0 time=0.13333299999999998
EXTRACT: note_on channel=3 note=65 velocity=0 time=0.04305544791666666
EXTRACT: note_on channel=11 note=44 velocity=0 time=0.033333249999999995
EXTRACT: note_on channel=11 note=49 velocity=0 time=0.04027767708333333
EXTRACT: note_on channel=8 note=65 velocity=0 time=0.015277739583333332
EXTRACT: note_on channel=15 note=56 velocity=0 time=0.002777770833333333
EXTRACT: note_on channel=15 note=61 velocity=0 time=0
EXTRACT: note_on channel=1 note=30 velocity=80 time=0.008333312499999999
EXTRACT: note_on channel=8 note=59 velocity=53 time=0
EXTRACT: note_on channel=8 note=63 velocity=79 time=0
EXTRACT: note_on channel=9 note=54 velocity=33 time=0
EXTRACT: note_on channel=9 note=35 velocity=111 time=0
EXTRACT: note_on channel=9 note=46 velocity=85 time=0
EXTRACT: note_on channel=2 note=49 velocity=43 time=0.004166656249999999
EXTRACT: note_on channel=15 note=49 velocity=45 time=0
EXTRACT: note_on channel=3 note=63 velocity=111 time=0
EXTRACT: note_on channel=11 note=47 velocity=63 time=0.004166656249999999
EXTRACT: note_on channel=2 note=56 velocity=65 time=0.008333312499999999
EXTRACT: note_on channel=15 note=56 velocity=66 time=0
EXTRACT: note_on channel=9 note=54 velocity=0 time=0.012499968749999998
EXTRACT: note_on channel=9 note=35 velocity=0 time=0
EXTRACT: note_on channel=9 note=46 velocity=0 time=0
EXTRACT: note_on channel=11 note=42 velocity=57 time=0.005555541666666666
EXTRACT: note_on channel=2 note=49 velocity=0 time=0.015277739583333332
EXTRACT: note_on channel=8 note=56 velocity=0 time=0.10416640625
EXTRACT: note_on channel=8 note=59 velocity=0 time=0.06249984374999999
EXTRACT: note_on channel=15 note=49 velocity=0 time=0.02083328125
EXTRACT: note_on channel=11 note=47 velocity=0 time=0.012499968749999998
EXTRACT: note_on channel=11 note=42 velocity=0 time=0.004166656249999999
EXTRACT: note_on channel=13 note=61 velocity=0 time=0.024999937499999996
EXTRACT: note_on channel=1 note=30 velocity=0 time=0
EXTRACT: control_change channel=2 control=64 value=0 time=0
EXTRACT: note_on channel=13 note=65 velocity=0 time=0.011111083333333332
EXTRACT: note_on channel=13 note=68 velocity=0 time=0.022222166666666664
EXTRACT: note_on channel=8 note=63 velocity=0 time=0.008333312499999999
EXTRACT: note_on channel=15 note=56 velocity=0 time=0.002777770833333333
EXTRACT: note_on channel=1 note=32 velocity=122 time=0.008333312499999999
EXTRACT: note_on channel=8 note=66 velocity=68 time=0
EXTRACT: note_on channel=9 note=54 velocity=39 time=0
EXTRACT: note_on channel=9 note=42 velocity=109 time=0
EXTRACT: note_on channel=9 note=35 velocity=117 time=0
EXTRACT: note_on channel=11 note=44 velocity=81 time=0
EXTRACT: note_on channel=2 note=44 velocity=65 time=0.004166656249999999
EXTRACT: note_on channel=15 note=44 velocity=66 time=0
EXTRACT: note_on channel=8 note=59 velocity=73 time=0.0013888854166666665
EXTRACT: note_on channel=13 note=68 velocity=40 time=0.006944427083333333
EXTRACT: note_on channel=13 note=63 velocity=43 time=0.005555541666666666
EXTRACT: control_change channel=2 control=64 value=100 time=0.002777770833333333
EXTRACT: note_on channel=2 note=59 velocity=47 time=0.006944427083333333
EXTRACT: note_on channel=15 note=59 velocity=49 time=0
EXTRACT: note_on channel=9 note=54 velocity=0 time=0.002777770833333333
EXTRACT: note_on channel=9 note=42 velocity=0 time=0
EXTRACT: note_on channel=9 note=35 velocity=0 time=0
EXTRACT: note_on channel=13 note=59 velocity=38 time=0
EXTRACT: note_on channel=2 note=63 velocity=62 time=0.004166656249999999
EXTRACT: note_on channel=15 note=63 velocity=65 time=0
EXTRACT: note_on channel=2 note=59 velocity=0 time=0.006944427083333333
EXTRACT: note_on channel=2 note=63 velocity=0 time=0
EXTRACT: note_on channel=8 note=63 velocity=54 time=0.004166656249999999
EXTRACT: note_on channel=11 note=51 velocity=61 time=0.006944427083333333
EXTRACT: note_on channel=2 note=44 velocity=0 time=0.030555479166666663
EXTRACT: note_on channel=3 note=63 velocity=0 time=0.14583296874999999
EXTRACT: note_on channel=8 note=63 velocity=0 time=0.012499968749999998
EXTRACT: note_on channel=15 note=59 velocity=0 time=0.018055510416666663
EXTRACT: note_on channel=8 note=66 velocity=0 time=0.03472213541666666
EXTRACT: note_on channel=15 note=63 velocity=0 time=0.03472213541666666
EXTRACT: note_on channel=9 note=54 velocity=24 time=0.004166656249999999
EXTRACT: note_on channel=9 note=42 velocity=75 time=0
EXTRACT: note_on channel=2 note=54 velocity=47 time=0.006944427083333333
EXTRACT: note_on channel=15 note=54 velocity=48 time=0
EXTRACT: note_on channel=15 note=44 velocity=0 time=0.002777770833333333
EXTRACT: note_on channel=8 note=63 velocity=44 time=0.004166656249999999
EXTRACT: note_on channel=2 note=51 velocity=44 time=0.004166656249999999
EXTRACT: note_on channel=15 note=51 velocity=46 time=0
EXTRACT: note_on channel=2 note=54 velocity=0 time=0.002777770833333333
EXTRACT: note_on channel=8 note=66 velocity=43 time=0
EXTRACT: note_on channel=9 note=54 velocity=0 time=0.009722197916666666
EXTRACT: note_on channel=9 note=42 velocity=0 time=0
EXTRACT: note_on channel=2 note=51 velocity=0 time=0
EXTRACT: note_on channel=11 note=44 velocity=0 time=0.13888854166666664
EXTRACT: note_on channel=8 note=63 velocity=0 time=0.02777770833333333
EXTRACT: note_on channel=8 note=66 velocity=0 time=0.009722197916666666
EXTRACT: note_on channel=11 note=51 velocity=0 time=0.004166656249999999
EXTRACT: note_on channel=8 note=59 velocity=0 time=0.05277764583333333
EXTRACT: note_on channel=1 note=32 velocity=0 time=0.030555479166666663
EXTRACT: note_on channel=15 note=54 velocity=0 time=0.02777770833333333
EXTRACT: note_on channel=8 note=66 velocity=76 time=0.002777770833333333
EXTRACT: note_on channel=15 note=51 velocity=0 time=0.0013888854166666665
EXTRACT: note_on channel=9 note=54 velocity=39 time=0.006944427083333333
EXTRACT: note_on channel=9 note=42 velocity=109 time=0
EXTRACT: note_on channel=9 note=28 velocity=65 time=0
EXTRACT: note_on channel=9 note=39 velocity=103 time=0.0013888854166666665
EXTRACT: note_on channel=9 note=85 velocity=59 time=0.002777770833333333
EXTRACT: note_on channel=2 note=66 velocity=84 time=0.0013888854166666665
EXTRACT: note_on channel=15 note=66 velocity=87 time=0
EXTRACT: note_on channel=2 note=59 velocity=65 time=0.0013888854166666665
EXTRACT: note_on channel=15 note=59 velocity=66 time=0
EXTRACT: note_on channel=3 note=66 velocity=111 time=0
EXTRACT: note_on channel=11 note=51 velocity=65 time=0
EXTRACT: note_on channel=11 note=44 velocity=81 time=0.004166656249999999
EXTRACT: note_on channel=2 note=66 velocity=0 time=0.0013888854166666665
EXTRACT: note_on channel=8 note=59 velocity=69 time=0.0013888854166666665
EXTRACT: note_on channel=8 note=63 velocity=64 time=0.005555541666666666
EXTRACT: note_on channel=9 note=54 velocity=0 time=0.002777770833333333
EXTRACT: note_on channel=9 note=42 velocity=0 time=0
EXTRACT: note_on channel=9 note=28 velocity=0 time=0
EXTRACT: note_on channel=9 note=39 velocity=0 time=0.002777770833333333
EXTRACT: note_on channel=9 note=85 velocity=0 time=0.002777770833333333
EXTRACT: note_on channel=9 note=85 velocity=108 time=0.002777770833333333
EXTRACT: note_on channel=2 note=59 velocity=0 time=0.012499968749999998
EXTRACT: note_on channel=9 note=85 velocity=0 time=0.019444395833333333
EXTRACT: note_on channel=3 note=66 velocity=0 time=0.12916634375
EXTRACT: note_on channel=8 note=66 velocity=0 time=0.06388872916666666
EXTRACT: note_on channel=15 note=66 velocity=0 time=0.03749990625
EXTRACT: note_on channel=15 note=59 velocity=0 time=0.019444395833333333
EXTRACT: note_on channel=1 note=34 velocity=111 time=0.012499968749999998
EXTRACT: note_on channel=2 note=58 velocity=64 time=0
EXTRACT: note_on channel=8 note=66 velocity=61 time=0
EXTRACT: note_on channel=9 note=54 velocity=28 time=0
EXTRACT: note_on channel=9 note=42 velocity=61 time=0
EXTRACT: note_on channel=9 note=35 velocity=110 time=0
EXTRACT: note_on channel=15 note=58 velocity=66 time=0
EXTRACT: note_on channel=3 note=66 velocity=111 time=0
EXTRACT: note_on channel=11 note=46 velocity=75 time=0.002777770833333333
EXTRACT: note_on channel=9 note=54 velocity=0 time=0.02361105208333333
EXTRACT: note_on channel=9 note=42 velocity=0 time=0
EXTRACT: note_on channel=9 note=35 velocity=0 time=0
EXTRACT: note_on channel=11 note=44 velocity=0 time=0.004166656249999999
EXTRACT: note_on channel=2 note=58 velocity=0 time=0.009722197916666666
EXTRACT: note_on channel=8 note=59 velocity=0 time=0.07916646875
EXTRACT: note_on channel=8 note=63 velocity=0 time=0.04027767708333333
EXTRACT: note_on channel=3 note=66 velocity=0 time=0.03472213541666666
EXTRACT: note_on channel=8 note=66 velocity=0 time=0.019444395833333333
EXTRACT: note_on channel=11 note=51 velocity=0 time=0.0013888854166666665
EXTRACT: note_on channel=11 note=46 velocity=0 time=0.029166593749999997
EXTRACT: note_on channel=13 note=68 velocity=0 time=0.06388872916666666
EXTRACT: note_on channel=1 note=34 velocity=0 time=0
EXTRACT: control_change channel=2 control=64 value=0 time=0
EXTRACT: note_on channel=8 note=63 velocity=46 time=0.004166656249999999
EXTRACT: note_on channel=8 note=66 velocity=68 time=0.0013888854166666665
EXTRACT: note_on channel=3 note=73 velocity=111 time=0
EXTRACT: note_on channel=1 note=35 velocity=122 time=0.002777770833333333
EXTRACT: note_on channel=4 note=61 velocity=1 time=0
EXTRACT: note_on channel=4 note=66 velocity=1 time=0
EXTRACT: note_on channel=9 note=54 velocity=40 time=0
EXTRACT: note_on channel=9 note=42 velocity=106 time=0
EXTRACT: note_on channel=9 note=35 velocity=115 time=0
EXTRACT: note_on channel=2 note=47 velocity=69 time=0.004166656249999999
EXTRACT: note_on channel=15 note=47 velocity=71 time=0
EXTRACT: control_change channel=2 control=64 value=100 time=0.005555541666666666
EXTRACT: note_on channel=8 note=59 velocity=61 time=0.002777770833333333
EXTRACT: note_on channel=11 note=47 velocity=83 time=0.0013888854166666665
EXTRACT: note_on channel=13 note=66 velocity=54 time=0.002777770833333333
EXTRACT: note_on channel=11 note=51 velocity=71 time=0.008333312499999999
EXTRACT: note_on channel=9 note=54 velocity=0 time=0.005555541666666666
EXTRACT: note_on channel=9 note=42 velocity=0 time=0
EXTRACT: note_on channel=9 note=35 velocity=0 time=0
EXTRACT: note_on channel=2 note=54 velocity=46 time=0.008333312499999999
EXTRACT: note_on channel=15 note=54 velocity=49 time=0
EXTRACT: note_on channel=2 note=54 velocity=0 time=0.04444433333333333
EXTRACT: note_on channel=8 note=63 velocity=0 time=0.06666649999999999
EXTRACT: note_on channel=15 note=58 velocity=0 time=0.026388822916666665
EXTRACT: note_on channel=2 note=47 velocity=0 time=0.011111083333333332
EXTRACT: note_on channel=3 note=73 velocity=0 time=0.083333125
EXTRACT: note_on channel=8 note=63 velocity=29 time=0.012499968749999998
EXTRACT: note_on channel=15 note=47 velocity=0 time=0.038888791666666665
EXTRACT: note_on channel=15 note=54 velocity=0 time=0.006944427083333333
EXTRACT: note_on channel=9 note=54 velocity=27 time=0.004166656249999999
EXTRACT: note_on channel=9 note=42 velocity=59 time=0
EXTRACT: note_on channel=3 note=71 velocity=111 time=0
EXTRACT: note_on channel=2 note=51 velocity=47 time=0.002777770833333333
EXTRACT: note_on channel=15 note=51 velocity=48 time=0
EXTRACT: note_on channel=9 note=54 velocity=0 time=0.02361105208333333
EXTRACT: note_on channel=9 note=42 velocity=0 time=0
EXTRACT: note_on channel=2 note=51 velocity=0 time=0.02083328125
EXTRACT: note_on channel=8 note=66 velocity=0 time=0.048610989583333326
EXTRACT: note_on channel=8 note=63 velocity=0 time=0.07777758333333333
EXTRACT: note_on channel=8 note=59 velocity=0 time=0.012499968749999998
EXTRACT: note_on channel=11 note=47 velocity=0 time=0.005555541666666666
EXTRACT: note_on channel=11 note=51 velocity=0 time=0.048610989583333326
EXTRACT: note_on channel=3 note=71 velocity=0 time=0.015277739583333332
EXTRACT: note_on channel=8 note=66 velocity=67 time=0.058333187499999994
EXTRACT: note_on channel=1 note=35 velocity=0 time=0.004166656249999999
EXTRACT: note_on channel=8 note=63 velocity=59 time=0.004166656249999999
EXTRACT: note_on channel=9 note=54 velocity=40 time=0.006944427083333333
EXTRACT: note_on channel=9 note=42 velocity=106 time=0
EXTRACT: note_on channel=9 note=28 velocity=67 time=0
EXTRACT: note_on channel=9 note=39 velocity=104 time=0.0013888854166666665
EXTRACT: note_on channel=9 note=85 velocity=57 time=0.002777770833333333
EXTRACT: note_on channel=2 note=66 velocity=78 time=0.0013888854166666665
EXTRACT: note_on channel=15 note=66 velocity=81 time=0
EXTRACT: note_on channel=2 note=59 velocity=70 time=0.0013888854166666665
EXTRACT: note_on channel=15 note=59 velocity=73 time=0
EXTRACT: note_on channel=3 note=70 velocity=111 time=0
EXTRACT: note_on channel=8 note=59 velocity=76 time=0
EXTRACT: note_on channel=2 note=66 velocity=0 time=0.011111083333333332
EXTRACT: note_on channel=9 note=85 velocity=109 time=0.004166656249999999
EXTRACT: note_on channel=9 note=54 velocity=0 time=0.005555541666666666
EXTRACT: note_on channel=9 note=42 velocity=0 time=0
EXTRACT: note_on channel=9 note=28 velocity=0 time=0
EXTRACT: note_on channel=9 note=39 velocity=0 time=0.002777770833333333
EXTRACT: note_on channel=11 note=51 velocity=67 time=0
EXTRACT: note_on channel=9 note=85 velocity=0 time=0.002777770833333333
EXTRACT: note_on channel=11 note=47 velocity=93 time=0.0013888854166666665
EXTRACT: note_on channel=2 note=59 velocity=0 time=0.004166656249999999
EXTRACT: note_on channel=9 note=85 velocity=0 time=0.015277739583333332
EXTRACT: note_on channel=11 note=47 velocity=0 time=0.15138851041666665
EXTRACT: note_on channel=3 note=70 velocity=0 time=0.04444433333333333
EXTRACT: note_on channel=15 note=51 velocity=0 time=0.006944427083333333
EXTRACT: note_on channel=8 note=66 velocity=0 time=0.030555479166666663
EXTRACT: note_on channel=15 note=59 velocity=0 time=0.030555479166666663
EXTRACT: note_on channel=9 note=54 velocity=24 time=0.011111083333333332
EXTRACT: note_on channel=1 note=25 velocity=111 time=0.0013888854166666665
EXTRACT: note_on channel=2 note=54 velocity=67 time=0
EXTRACT: note_on channel=2 note=51 velocity=53 time=0
EXTRACT: note_on channel=9 note=42 velocity=69 time=0
EXTRACT: note_on channel=15 note=51 velocity=55 time=0
EXTRACT: note_on channel=15 note=54 velocity=68 time=0
EXTRACT: note_on channel=8 note=66 velocity=48 time=0.002777770833333333
EXTRACT: note_on channel=3 note=71 velocity=111 time=0
EXTRACT: note_on channel=9 note=54 velocity=0 time=0.024999937499999996
EXTRACT: note_on channel=9 note=42 velocity=0 time=0
EXTRACT: note_on channel=2 note=54 velocity=0 time=0.002777770833333333
EXTRACT: note_on channel=2 note=51 velocity=0 time=0
EXTRACT: note_on channel=11 note=47 velocity=85 time=0.011111083333333332
EXTRACT: note_on channel=15 note=66 velocity=0 time=0.048610989583333326
EXTRACT: note_on channel=3 note=71 velocity=0 time=0.0416665625
EXTRACT: note_on channel=8 note=63 velocity=0 time=0.02083328125
EXTRACT: note_on channel=8 note=66 velocity=0 time=0.013888854166666666
EXTRACT: note_on channel=3 note=70 velocity=111 time=0
EXTRACT: note_on channel=8 note=59 velocity=0 time=0.04999987499999999
EXTRACT: note_on channel=13 note=59 velocity=0 time=0.058333187499999994
EXTRACT: note_on channel=1 note=25 velocity=0 time=0
EXTRACT: note_on channel=11 note=51 velocity=0 time=0.018055510416666663
EXTRACT: note_on channel=13 note=63 velocity=0 time=0.002777770833333333
EXTRACT: note_on channel=11 note=39 velocity=65 time=0
EXTRACT: control_change channel=2 control=64 value=0 time=0.011111083333333332
EXTRACT: note_on channel=13 note=66 velocity=0 time=0.011111083333333332
EXTRACT: note_on channel=1 note=27 velocity=122 time=0.009722197916666666
EXTRACT: note_on channel=9 note=54 velocity=40 time=0
EXTRACT: note_on channel=9 note=42 velocity=108 time=0
EXTRACT: note_on channel=9 note=35 velocity=118 time=0
EXTRACT: note_on channel=8 note=58 velocity=66 time=0.002777770833333333
EXTRACT: note_on channel=8 note=63 velocity=56 time=0.002777770833333333
EXTRACT: note_on channel=11 note=47 velocity=0 time=0.005555541666666666
EXTRACT: note_on channel=15 note=51 velocity=0 time=0.0013888854166666665
EXTRACT: note_on channel=15 note=54 velocity=0 time=0
EXTRACT: note_on channel=8 note=66 velocity=65 time=0.0013888854166666665
EXTRACT: note_on channel=13 note=63 velocity=39 time=0.004166656249999999
EXTRACT: note_on channel=13 note=70 velocity=49 time=0.004166656249999999
EXTRACT: note_on channel=11 note=54 velocity=83 time=0.0013888854166666665
EXTRACT: note_on channel=2 note=39 velocity=60 time=0.0013888854166666665
EXTRACT: note_on channel=2 note=66 velocity=60 time=0
EXTRACT: note_on channel=2 note=58 velocity=61 time=0
EXTRACT: note_on channel=11 note=51 velocity=69 time=0
EXTRACT: note_on channel=15 note=39 velocity=63 time=0
EXTRACT: note_on channel=15 note=58 velocity=63 time=0
EXTRACT: note_on channel=15 note=66 velocity=63 time=0
EXTRACT: note_on channel=13 note=66 velocity=43 time=0.0013888854166666665
EXTRACT: note_on channel=9 note=54 velocity=0 time=0.004166656249999999
EXTRACT: note_on channel=9 note=42 velocity=0 time=0
EXTRACT: note_on channel=9 note=35 velocity=0 time=0
EXTRACT: control_change channel=2 control=64 value=100 time=0
EXTRACT: note_on channel=2 note=66 velocity=0 time=0.02083328125
EXTRACT: note_on channel=2 note=58 velocity=0 time=0
EXTRACT: note_on channel=2 note=39 velocity=0 time=0.12499968749999998
EXTRACT: note_on channel=8 note=63 velocity=0 time=0.06527761458333332
EXTRACT: note_on channel=3 note=70 velocity=0 time=0.029166593749999997
EXTRACT: note_on channel=11 note=39 velocity=0 time=0.013888854166666666
EXTRACT: note_on channel=8 note=63 velocity=38 time=0.013888854166666666
EXTRACT: note_on channel=4 note=61 velocity=0 time=0.02361105208333333
EXTRACT: note_on channel=4 note=66 velocity=0 time=0
EXTRACT: note_on channel=15 note=39 velocity=0 time=0.006944427083333333
EXTRACT: note_on channel=15 note=58 velocity=0 time=0
EXTRACT: note_on channel=15 note=66 velocity=0 time=0
EXTRACT: note_on channel=4 note=58 velocity=1 time=0.004166656249999999
EXTRACT: note_on channel=4 note=63 velocity=1 time=0
EXTRACT: note_on channel=9 note=54 velocity=23 time=0
EXTRACT: note_on channel=9 note=42 velocity=64 time=0
EXTRACT: note_on channel=3 note=68 velocity=111 time=0
EXTRACT: note_on channel=2 note=54 velocity=46 time=0.002777770833333333
EXTRACT: note_on channel=2 note=51 velocity=46 time=0.011111083333333332
EXTRACT: note_on channel=15 note=51 velocity=59 time=0
EXTRACT: note_on channel=2 note=54 velocity=0 time=0.002777770833333333
EXTRACT: note_on channel=9 note=54 velocity=0 time=0.009722197916666666
EXTRACT: note_on channel=9 note=42 velocity=0 time=0
EXTRACT: note_on channel=2 note=51 velocity=0 time=0
EXTRACT: note_on channel=8 note=66 velocity=0 time=0.10972194791666666
EXTRACT: note_on channel=8 note=63 velocity=0 time=0.04305544791666666
EXTRACT: note_on channel=8 note=58 velocity=0 time=0.05138876041666666
EXTRACT: note_on channel=4 note=58 velocity=0 time=0.04999987499999999
EXTRACT: note_on channel=4 note=63 velocity=0 time=0
EXTRACT: note_on channel=3 note=68 velocity=0 time=0.004166656249999999
EXTRACT: note_on channel=1 note=27 velocity=0 time=0.005555541666666666
EXTRACT: note_on channel=15 note=51 velocity=0 time=0.03194436458333333
EXTRACT: note_on channel=8 note=66 velocity=80 time=0.0013888854166666665
EXTRACT: note_on channel=11 note=51 velocity=0 time=0.002777770833333333
EXTRACT: note_on channel=4 note=56 velocity=1 time=0.002777770833333333
EXTRACT: note_on channel=4 note=61 velocity=1 time=0
EXTRACT: note_on channel=9 note=54 velocity=40 time=0
EXTRACT: note_on channel=9 note=42 velocity=113 time=0
EXTRACT: note_on channel=9 note=28 velocity=66 time=0
EXTRACT: note_on channel=9 note=39 velocity=105 time=0.0013888854166666665
EXTRACT: note_on channel=3 note=66 velocity=111 time=0
EXTRACT: note_on channel=8 note=63 velocity=67 time=0
EXTRACT: note_on channel=9 note=85 velocity=61 time=0
EXTRACT: note_on channel=2 note=66 velocity=79 time=0.0013888854166666665
EXTRACT: note_on channel=11 note=39 velocity=73 time=0.016666624999999997
EXTRACT: note_on channel=9 note=85 velocity=108 time=0.002777770833333333
EXTRACT: note_on channel=8 note=58 velocity=71 time=0.0013888854166666665
EXTRACT: note_on channel=2 note=58 velocity=64 time=0.0013888854166666665
EXTRACT: note_on channel=15 note=58 velocity=79 time=0
EXTRACT: note_on channel=11 note=54 velocity=0 time=0.002777770833333333
EXTRACT: note_on channel=9 note=42 velocity=0 time=0
EXTRACT: note_on channel=9 note=28 velocity=0 time=0
EXTRACT: note_on channel=9 note=54 velocity=0 time=0.0013888854166666665
EXTRACT: note_on channel=9 note=39 velocity=0 time=0.0013888854166666665
EXTRACT: note_on channel=9 note=85 velocity=0 time=0.002777770833333333
EXTRACT: note_on channel=9 note=85 velocity=0 time=0.02083328125
EXTRACT: note_on channel=2 note=58 velocity=0 time=0.005555541666666666
EXTRACT: note_on channel=2 note=66 velocity=0 time=0.009722197916666666
EXTRACT: note_on channel=11 note=39 velocity=0 time=0.24583271874999998
EXTRACT: note_on channel=15 note=58 velocity=0 time=0.002777770833333333
EXTRACT: note_on channel=1 note=27 velocity=111 time=0.012499968749999998
EXTRACT: note_on channel=2 note=54 velocity=54 time=0
EXTRACT: note_on channel=9 note=54 velocity=26 time=0
EXTRACT: note_on channel=9 note=42 velocity=71 time=0
EXTRACT: note_on channel=9 note=35 velocity=106 time=0
EXTRACT: note_on channel=15 note=51 velocity=57 time=0
EXTRACT: note_on channel=11 note=51 velocity=81 time=0.009722197916666666
EXTRACT: note_on channel=11 note=54 velocity=73 time=0.002777770833333333
EXTRACT: note_on channel=9 note=54 velocity=0 time=0.018055510416666663
EXTRACT: note_on channel=9 note=42 velocity=0 time=0
EXTRACT: note_on channel=9 note=35 velocity=0 time=0
EXTRACT: note_on channel=2 note=54 velocity=0 time=0.002777770833333333
EXTRACT: note_on channel=3 note=66 velocity=0 time=0.04305544791666666
EXTRACT: note_on channel=4 note=56 velocity=0 time=0.07916646875
EXTRACT: note_on channel=4 note=61 velocity=0 time=0
EXTRACT: note_on channel=8 note=63 velocity=0 time=0.009722197916666666
EXTRACT: note_on channel=8 note=58 velocity=0 time=0.1083330625
EXTRACT: note_on channel=8 note=66 velocity=0 time=0.005555541666666666
EXTRACT: note_on channel=13 note=70 velocity=0 time=0.0013888854166666665
EXTRACT: note_on channel=11 note=54 velocity=0 time=0.016666624999999997
EXTRACT: control_change channel=2 control=64 value=0 time=0.004166656249999999
EXTRACT: note_on channel=11 note=51 velocity=0 time=0.015277739583333332
EXTRACT: note_on channel=15 note=51 velocity=0 time=0.004166656249999999
EXTRACT: note_on channel=13 note=63 velocity=0 time=0.0013888854166666665
EXTRACT: note_on channel=1 note=27 velocity=0 time=0
EXTRACT: note_on channel=8 note=61 velocity=60 time=0.008333312499999999
EXTRACT: note_on channel=8 note=65 velocity=64 time=0
EXTRACT: note_on channel=1 note=25 velocity=122 time=0.002777770833333333
EXTRACT: note_on channel=2 note=49 velocity=61 time=0
EXTRACT: note_on channel=2 note=61 velocity=55 time=0
EXTRACT: note_on channel=8 note=56 velocity=67 time=0
EXTRACT: note_on channel=9 note=54 velocity=43 time=0
EXTRACT: note_on channel=9 note=42 velocity=112 time=0
EXTRACT: note_on channel=9 note=35 velocity=122 time=0
EXTRACT: note_on channel=15 note=49 velocity=63 time=0
EXTRACT: note_on channel=11 note=53 velocity=71 time=0.0013888854166666665
EXTRACT: note_on channel=13 note=68 velocity=52 time=0.006944427083333333
EXTRACT: note_on channel=13 note=66 velocity=0 time=0.0013888854166666665
EXTRACT: note_on channel=13 note=61 velocity=34 time=0.002777770833333333
EXTRACT: note_on channel=2 note=56 velocity=54 time=0.008333312499999999
EXTRACT: note_on channel=15 note=56 velocity=57 time=0
EXTRACT: control_change channel=2 control=64 value=100 time=0
EXTRACT: note_on channel=13 note=65 velocity=50 time=0.004166656249999999
EXTRACT: note_on channel=9 note=42 velocity=0 time=0.005555541666666666
EXTRACT: note_on channel=9 note=35 velocity=0 time=0
EXTRACT: note_on channel=9 note=54 velocity=0 time=0.0013888854166666665
EXTRACT: note_on channel=11 note=49 velocity=79 time=0
EXTRACT: note_on channel=2 note=61 velocity=0 time=0.0013888854166666665
EXTRACT: note_on channel=2 note=56 velocity=0 time=0.02083328125
EXTRACT: note_on channel=2 note=49 velocity=0 time=0.12916634375
EXTRACT: note_on channel=8 note=61 velocity=0 time=0.004166656249999999
EXTRACT: note_on channel=15 note=49 velocity=0 time=0.05138876041666666
EXTRACT: note_on channel=11 note=53 velocity=0 time=0.03472213541666666
EXTRACT: note_on channel=11 note=49 velocity=0 time=0.02361105208333333
EXTRACT: note_on channel=8 note=61 velocity=40 time=0.009722197916666666
EXTRACT: note_on channel=15 note=56 velocity=0 time=0.013888854166666666
EXTRACT: note_on channel=3 note=66 velocity=111 time=0
EXTRACT: note_on channel=2 note=56 velocity=54 time=0.005555541666666666
EXTRACT: note_on channel=9 note=54 velocity=32 time=0
EXTRACT: note_on channel=9 note=42 velocity=71 time=0
EXTRACT: note_on channel=15 note=49 velocity=63 time=0
EXTRACT: note_on channel=15 note=56 velocity=57 time=0
EXTRACT: note_on channel=11 note=53 velocity=73 time=0.012499968749999998
EXTRACT: note_on channel=2 note=61 velocity=43 time=0.015277739583333332
EXTRACT: note_on channel=9 note=54 velocity=0 time=0.002777770833333333
EXTRACT: note_on channel=9 note=42 velocity=0 time=0
EXTRACT: note_on channel=2 note=56 velocity=0 time=0.002777770833333333
EXTRACT: note_on channel=11 note=49 velocity=80 time=0.002777770833333333
EXTRACT: note_on channel=2 note=61 velocity=0 time=0.03611102083333333
EXTRACT: note_on channel=8 note=65 velocity=0 time=0.05555541666666666
EXTRACT: note_on channel=8 note=61 velocity=0 time=0.06527761458333332
EXTRACT: note_on channel=8 note=56 velocity=0 time=0.015277739583333332
EXTRACT: note_on channel=15 note=56 velocity=0 time=0.009722197916666666
EXTRACT: note_on channel=3 note=66 velocity=0 time=0.011111083333333332
EXTRACT: note_on channel=15 note=49 velocity=0 time=0.009722197916666666
EXTRACT: note_on channel=1 note=25 velocity=0 time=0.083333125
EXTRACT: note_on channel=8 note=65 velocity=80 time=0.005555541666666666
EXTRACT: note_on channel=3 note=66 velocity=111 time=0
EXTRACT: note_on channel=8 note=61 velocity=61 time=0
EXTRACT: note_on channel=9 note=54 velocity=42 time=0
EXTRACT: note_on channel=9 note=42 velocity=113 time=0
EXTRACT: note_on channel=9 note=28 velocity=65 time=0
EXTRACT: note_on channel=9 note=39 velocity=103 time=0.0013888854166666665
EXTRACT: note_on channel=9 note=85 velocity=61 time=0.002777770833333333
EXTRACT: note_on channel=8 note=56 velocity=65 time=0.005555541666666666
EXTRACT: note_on channel=2 note=56 velocity=84 time=0.005555541666666666
EXTRACT: note_on channel=2 note=61 velocity=64 time=0
EXTRACT: note_on channel=15 note=56 velocity=81 time=0
EXTRACT: note_on channel=15 note=61 velocity=63 time=0
EXTRACT: note_on channel=9 note=85 velocity=109 time=0.009722197916666666
EXTRACT: note_on channel=9 note=42 velocity=0 time=0.005555541666666666
EXTRACT: note_on channel=9 note=28 velocity=0 time=0
EXTRACT: note_on channel=9 note=54 velocity=0 time=0.0013888854166666665
EXTRACT: note_on channel=9 note=39 velocity=0 time=0.0013888854166666665
EXTRACT: note_on channel=9 note=85 velocity=0 time=0.002777770833333333
EXTRACT: note_on channel=2 note=56 velocity=0 time=0.005555541666666666
EXTRACT: note_on channel=2 note=61 velocity=0 time=0
EXTRACT: note_on channel=9 note=85 velocity=0 time=0.015277739583333332
EXTRACT: note_on channel=3 note=66 velocity=0 time=0.17083290624999997
EXTRACT: note_on channel=11 note=53 velocity=0 time=0.005555541666666666
EXTRACT: note_on channel=11 note=49 velocity=0 time=0.02361105208333333
EXTRACT: note_on channel=15 note=61 velocity=0 time=0.06527761458333332
EXTRACT: note_on channel=3 note=66 velocity=111 time=0
EXTRACT: note_on channel=1 note=25 velocity=120 time=0.009722197916666666
EXTRACT: note_on channel=9 note=54 velocity=33 time=0
EXTRACT: note_on channel=9 note=46 velocity=85 time=0
EXTRACT: note_on channel=11 note=53 velocity=67 time=0.008333312499999999
EXTRACT: note_on channel=15 note=56 velocity=0 time=0.016666624999999997
EXTRACT: note_on channel=9 note=54 velocity=0 time=0.005555541666666666
EXTRACT: note_on channel=9 note=46 velocity=0 time=0
EXTRACT: note_on channel=11 note=49 velocity=82 time=0.0013888854166666665
EXTRACT: note_on channel=2 note=56 velocity=65 time=0.004166656249999999
EXTRACT: note_on channel=2 note=61 velocity=65 time=0
EXTRACT: note_on channel=15 note=49 velocity=67 time=0
EXTRACT: note_on channel=15 note=56 velocity=67 time=0
EXTRACT: note_on channel=2 note=56 velocity=0 time=0.026388822916666665
EXTRACT: note_on channel=2 note=61 velocity=0 time=0
EXTRACT: note_on channel=8 note=65 velocity=0 time=0.026388822916666665
EXTRACT: note_on channel=8 note=61 velocity=0 time=0.048610989583333326
EXTRACT: note_on channel=11 note=49 velocity=0 time=0.018055510416666663
EXTRACT: note_on channel=8 note=56 velocity=0 time=0.024999937499999996
EXTRACT: note_on channel=15 note=49 velocity=0 time=0.03749990625
EXTRACT: note_on channel=15 note=56 velocity=0 time=0
EXTRACT: control_change channel=8 control=64 value=100 time=0.011111083333333332
EXTRACT: note_on channel=8 note=54 velocity=60 time=0.019444395833333333
EXTRACT: note_on channel=11 note=47 velocity=70 time=0.0013888854166666665
EXTRACT: control_change channel=15 control=64 value=100 time=0
EXTRACT: note_on channel=11 note=53 velocity=0 time=0
EXTRACT: note_on channel=8 note=54 velocity=0 time=0.009722197916666666
EXTRACT: control_change channel=2 control=64 value=0 time=0
EXTRACT: note_on channel=13 note=61 velocity=0 time=0.0013888854166666665
EXTRACT: note_on channel=11 note=47 velocity=0 time=0.013888854166666666
EXTRACT: note_on channel=1 note=25 velocity=0 time=0.005555541666666666
EXTRACT: note_on channel=15 note=47 velocity=63 time=0.004166656249999999
EXTRACT: note_on channel=13 note=65 velocity=0 time=0.002777770833333333
EXTRACT: control_change channel=11 control=64 value=100 time=0.004166656249999999
EXTRACT: note_on channel=2 note=54 velocity=56 time=0.013888854166666666
EXTRACT: note_on channel=2 note=54 velocity=0 time=0.0013888854166666665
EXTRACT: note_on channel=3 note=66 velocity=0 time=0.002777770833333333
EXTRACT: control_change channel=2 control=64 value=100 time=0.002777770833333333
EXTRACT: note_on channel=13 note=68 velocity=0 time=0
EXTRACT: note_on channel=15 note=47 velocity=0 time=0.009722197916666666
EXTRACT: note_on channel=3 note=73 velocity=111 time=0
EXTRACT: note_on channel=2 note=59 velocity=67 time=0.0013888854166666665
EXTRACT: note_on channel=1 note=23 velocity=123 time=0.004166656249999999
EXTRACT: note_on channel=15 note=54 velocity=77 time=0
EXTRACT: note_on channel=11 note=54 velocity=67 time=0.008333312499999999
EXTRACT: note_on channel=2 note=59 velocity=0 time=0.0013888854166666665
EXTRACT: note_on channel=13 note=66 velocity=40 time=0.002777770833333333
EXTRACT: note_on channel=8 note=59 velocity=85 time=0.0013888854166666665
EXTRACT: note_on channel=8 note=59 velocity=0 time=0.0013888854166666665
EXTRACT: note_on channel=13 note=59 velocity=29 time=0.008333312499999999
EXTRACT: note_on channel=13 note=61 velocity=30 time=0.004166656249999999
EXTRACT: note_on channel=11 note=54 velocity=0 time=0.002777770833333333
EXTRACT: note_on channel=2 note=66 velocity=91 time=0.004166656249999999
EXTRACT: note_on channel=15 note=61 velocity=75 time=0.011111083333333332
EXTRACT: note_on channel=15 note=54 velocity=0 time=0.013888854166666666
EXTRACT: note_on channel=2 note=66 velocity=0 time=0.012499968749999998
EXTRACT: note_on channel=11 note=61 velocity=72 time=0.012499968749999998
EXTRACT: note_on channel=8 note=66 velocity=87 time=0.018055510416666663
EXTRACT: note_on channel=8 note=66 velocity=0 time=0.0013888854166666665
EXTRACT: note_on channel=15 note=61 velocity=0 time=0.009722197916666666
EXTRACT: note_on channel=11 note=61 velocity=0 time=0.02083328125
EXTRACT: control_change channel=15 control=11 value=127 time=0.2819437395833333
EXTRACT: control_change channel=3 control=1 value=5 time=0.02777770833333333
EXTRACT: control_change channel=15 control=11 value=127 time=0.05555541666666666
EXTRACT: control_change channel=15 control=11 value=125 time=0.083333125
EXTRACT: control_change channel=15 control=11 value=123 time=0.083333125
EXTRACT: control_change channel=15 control=11 value=121 time=0.083333125
EXTRACT: control_change channel=15 control=11 value=119 time=0.083333125
EXTRACT: control_change channel=15 control=11 value=117 time=0.083333125
EXTRACT: note_on channel=2 note=66 velocity=42 time=0.083333125
EXTRACT: control_change channel=15 control=11 value=117 time=0
EXTRACT: note_on channel=2 note=61 velocity=39 time=0.026388822916666665
EXTRACT: note_on channel=2 note=61 velocity=0 time=0.024999937499999996
EXTRACT: control_change channel=13 control=11 value=126 time=0.03194436458333333
EXTRACT: control_change channel=15 control=11 value=115 time=0
EXTRACT: control_change channel=13 control=11 value=127 time=0.083333125
EXTRACT: control_change channel=15 control=11 value=113 time=0
EXTRACT: control_change channel=13 control=11 value=124 time=0.083333125
EXTRACT: control_change channel=15 control=11 value=111 time=0
EXTRACT: note_on channel=3 note=73 velocity=0 time=0.05138876041666666
EXTRACT: control_change channel=13 control=11 value=123 time=0.03194436458333333
EXTRACT: control_change channel=15 control=11 value=109 time=0
EXTRACT: control_change channel=13 control=11 value=120 time=0.083333125
EXTRACT: control_change channel=15 control=11 value=107 time=0
EXTRACT: control_change channel=3 control=11 value=85 time=0.02777770833333333
EXTRACT: control_change channel=13 control=11 value=119 time=0.05555541666666666
EXTRACT: control_change channel=15 control=11 value=105 time=0
EXTRACT: note_on channel=3 note=68 velocity=111 time=0.002777770833333333
EXTRACT: control_change channel=1 control=11 value=127 time=0.08055535416666666
EXTRACT: control_change channel=13 control=11 value=116 time=0
EXTRACT: control_change channel=15 control=11 value=105 time=0
EXTRACT: pitchwheel channel=3 pitch=3440 time=0.04305544791666666
EXTRACT: pitchwheel channel=3 pitch=6000 time=0.002777770833333333
EXTRACT: pitchwheel channel=3 pitch=7280 time=0.004166656249999999
EXTRACT: pitchwheel channel=3 pitch=8063 time=0.004166656249999999
EXTRACT: control_change channel=1 control=11 value=125 time=0.029166593749999997
EXTRACT: control_change channel=13 control=11 value=114 time=0
EXTRACT: control_change channel=15 control=11 value=103 time=0
EXTRACT: control_change channel=1 control=11 value=123 time=0.083333125
EXTRACT: control_change channel=13 control=11 value=113 time=0
EXTRACT: control_change channel=15 control=11 value=101 time=0
EXTRACT: pitchwheel channel=3 pitch=5791 time=0.009722197916666666
EXTRACT: pitchwheel channel=3 pitch=3143 time=0.004166656249999999
EXTRACT: pitchwheel channel=3 pitch=368 time=0.008333312499999999
EXTRACT: pitchwheel channel=3 pitch=128 time=0.0013888854166666665
EXTRACT: control_change channel=1 control=11 value=123 time=0.05972207291666666
EXTRACT: control_change channel=13 control=11 value=111 time=0
EXTRACT: control_change channel=15 control=11 value=99 time=0
EXTRACT: pitchwheel channel=3 pitch=2812 time=0.06666649999999999
EXTRACT: pitchwheel channel=3 pitch=5415 time=0.008333312499999999
EXTRACT: pitchwheel channel=3 pitch=7694 time=0.006944427083333333
EXTRACT: control_change channel=1 control=11 value=121 time=0.0013888854166666665
EXTRACT: control_change channel=13 control=11 value=109 time=0
EXTRACT: control_change channel=15 control=11 value=97 time=0
EXTRACT: pitchwheel channel=3 pitch=8191 time=0.004166656249999999
EXTRACT: control_change channel=1 control=11 value=119 time=0.07916646875
EXTRACT: control_change channel=13 control=11 value=108 time=0
EXTRACT: control_change channel=15 control=11 value=94 time=0
EXTRACT: pitchwheel channel=3 pitch=4384 time=0.04999987499999999
EXTRACT: pitchwheel channel=3 pitch=0 time=0.013888854166666666
EXTRACT: control_change channel=1 control=11 value=117 time=0.019444395833333333
EXTRACT: control_change channel=13 control=11 value=106 time=0
EXTRACT: control_change channel=15 control=11 value=93 time=0
EXTRACT: note_on channel=3 note=68 velocity=0 time=0.05694430208333333
EXTRACT: control_change channel=1 control=11 value=115 time=0.026388822916666665
EXTRACT: control_change channel=13 control=11 value=104 time=0
EXTRACT: control_change channel=15 control=11 value=92 time=0
EXTRACT: note_on channel=3 note=66 velocity=111 time=0.015277739583333332
EXTRACT: control_change channel=1 control=11 value=113 time=0.06805538541666666
EXTRACT: control_change channel=13 control=11 value=102 time=0
EXTRACT: control_change channel=15 control=11 value=90 time=0
EXTRACT: control_change channel=1 control=11 value=111 time=0.083333125
EXTRACT: control_change channel=13 control=11 value=101 time=0
EXTRACT: control_change channel=15 control=11 value=89 time=0
EXTRACT: control_change channel=1 control=11 value=111 time=0.083333125
EXTRACT: control_change channel=13 control=11 value=98 time=0
EXTRACT: control_change channel=15 control=11 value=86 time=0
EXTRACT: control_change channel=1 control=11 value=109 time=0.083333125
EXTRACT: control_change channel=13 control=11 value=96 time=0
EXTRACT: control_change channel=15 control=11 value=85 time=0
EXTRACT: control_change channel=1 control=11 value=107 time=0.083333125
EXTRACT: control_change channel=13 control=11 value=95 time=0
EXTRACT: control_change channel=15 control=11 value=82 time=0
EXTRACT: note_on channel=13 note=66 velocity=0 time=0.030555479166666663
EXTRACT: control_change channel=13 control=10 value=90 time=0.011111083333333332
EXTRACT: note_on channel=13 note=65 velocity=57 time=0.013888854166666666
EXTRACT: control_change channel=1 control=11 value=105 time=0.02777770833333333
EXTRACT: control_change channel=13 control=11 value=93 time=0
EXTRACT: control_change channel=15 control=11 value=81 time=0
EXTRACT: note_on channel=15 note=65 velocity=53 time=0.03611102083333333
EXTRACT: control_change channel=1 control=11 value=103 time=0.04722210416666666
EXTRACT: control_change channel=13 control=11 value=90 time=0
EXTRACT: control_change channel=15 control=11 value=80 time=0
EXTRACT: note_on channel=15 note=65 velocity=0 time=0.04305544791666666
EXTRACT: control_change channel=1 control=11 value=100 time=0.04027767708333333
EXTRACT: control_change channel=13 control=11 value=90 time=0
EXTRACT: control_change channel=15 control=11 value=78 time=0
EXTRACT: note_on channel=13 note=65 velocity=0 time=0.06944427083333332
EXTRACT: control_change channel=1 control=11 value=99 time=0.013888854166666666
EXTRACT: control_change channel=13 control=11 value=89 time=0
EXTRACT: control_change channel=15 control=11 value=77 time=0
EXTRACT: note_on channel=13 note=65 velocity=60 time=0.05555541666666666
EXTRACT: control_change channel=13 control=10 value=30 time=0.006944427083333333
EXTRACT: control_change channel=1 control=11 value=98 time=0.02083328125
EXTRACT: control_change channel=13 control=11 value=86 time=0
EXTRACT: control_change channel=15 control=11 value=75 time=0
EXTRACT: control_change channel=1 control=11 value=96 time=0.083333125
EXTRACT: control_change channel=13 control=11 value=84 time=0
EXTRACT: control_change channel=15 control=11 value=73 time=0
EXTRACT: control_change channel=1 control=11 value=95 time=0.083333125
EXTRACT: control_change channel=13 control=11 value=83 time=0
EXTRACT: control_change channel=15 control=11 value=70 time=0
EXTRACT: note_on channel=13 note=65 velocity=0 time=0.06527761458333332
EXTRACT: control_change channel=1 control=11 value=92 time=0.018055510416666663
EXTRACT: control_change channel=13 control=11 value=81 time=0
EXTRACT: control_change channel=15 control=11 value=68 time=0
EXTRACT: note_on channel=13 note=65 velocity=46 time=0.05555541666666666
EXTRACT: control_change channel=1 control=11 value=91 time=0.02777770833333333
EXTRACT: control_change channel=13 control=10 value=90 time=0
EXTRACT: control_change channel=13 control=11 value=78 time=0
EXTRACT: control_change channel=15 control=11 value=68 time=0
EXTRACT: control_change channel=1 control=11 value=88 time=0.083333125
EXTRACT: control_change channel=13 control=11 value=77 time=0
EXTRACT: control_change channel=15 control=11 value=66 time=0
EXTRACT: control_change channel=1 control=11 value=87 time=0.083333125
EXTRACT: control_change channel=13 control=11 value=75 time=0
EXTRACT: control_change channel=15 control=11 value=65 time=0
EXTRACT: note_on channel=13 note=65 velocity=0 time=0.061110958333333326
EXTRACT: control_change channel=1 control=11 value=86 time=0.022222166666666664
EXTRACT: control_change channel=13 control=11 value=72 time=0
EXTRACT: control_change channel=15 control=11 value=62 time=0
EXTRACT: note_on channel=13 note=65 velocity=53 time=0.05555541666666666
EXTRACT: control_change channel=1 control=11 value=84 time=0.02777770833333333
EXTRACT: control_change channel=13 control=11 value=71 time=0
EXTRACT: control_change channel=15 control=11 value=60 time=0
EXTRACT: control_change channel=13 control=10 value=30 time=0.02083328125
EXTRACT: control_change channel=1 control=11 value=83 time=0.06249984374999999
EXTRACT: control_change channel=13 control=11 value=71 time=0
EXTRACT: control_change channel=15 control=11 value=59 time=0
EXTRACT: control_change channel=1 control=11 value=81 time=0.083333125
EXTRACT: control_change channel=13 control=11 value=69 time=0
EXTRACT: control_change channel=15 control=11 value=59 time=0
EXTRACT: note_on channel=13 note=65 velocity=0 time=0.07638869791666666
EXTRACT: control_change channel=1 control=11 value=79 time=0.006944427083333333
EXTRACT: control_change channel=13 control=11 value=67 time=0
EXTRACT: control_change channel=15 control=11 value=56 time=0
EXTRACT: note_on channel=13 note=65 velocity=39 time=0.05555541666666666
EXTRACT: note_on channel=9 note=82 velocity=12 time=0.02777770833333333
EXTRACT: control_change channel=1 control=11 value=76 time=0
EXTRACT: control_change channel=13 control=10 value=90 time=0
EXTRACT: control_change channel=13 control=11 value=65 time=0
EXTRACT: control_change channel=15 control=11 value=54 time=0
EXTRACT: note_on channel=9 note=82 velocity=0 time=0.030555479166666663
EXTRACT: control_change channel=1 control=11 value=74 time=0.05277764583333333
EXTRACT: control_change channel=13 control=11 value=63 time=0
EXTRACT: control_change channel=15 control=11 value=53 time=0
EXTRACT: control_change channel=1 control=11 value=74 time=0.083333125
EXTRACT: control_change channel=13 control=11 value=61 time=0
EXTRACT: control_change channel=15 control=11 value=50 time=0
EXTRACT: note_on channel=3 note=66 velocity=0 time=0.05138876041666666
EXTRACT: note_on channel=13 note=65 velocity=0 time=0.013888854166666666
EXTRACT: control_change channel=1 control=11 value=72 time=0.018055510416666663
EXTRACT: control_change channel=13 control=11 value=59 time=0
EXTRACT: control_change channel=15 control=11 value=48 time=0
EXTRACT: note_on channel=13 note=65 velocity=25 time=0.05555541666666666
EXTRACT: control_change channel=1 control=11 value=71 time=0.02777770833333333
EXTRACT: control_change channel=13 control=11 value=57 time=0
EXTRACT: control_change channel=15 control=11 value=47 time=0
EXTRACT: control_change channel=13 control=10 value=30 time=0.02083328125
EXTRACT: control_change channel=1 control=11 value=68 time=0.06249984374999999
EXTRACT: control_change channel=13 control=11 value=55 time=0
EXTRACT: control_change channel=15 control=11 value=47 time=0
EXTRACT: control_change channel=1 control=11 value=66 time=0.083333125
EXTRACT: control_change channel=13 control=11 value=53 time=0
EXTRACT: control_change channel=15 control=11 value=44 time=0
EXTRACT: note_on channel=13 note=65 velocity=0 time=0.058333187499999994
EXTRACT: control_change channel=1 control=11 value=65 time=0.024999937499999996
EXTRACT: control_change channel=13 control=11 value=53 time=0
EXTRACT: control_change channel=15 control=11 value=43 time=0
EXTRACT: note_on channel=13 note=65 velocity=25 time=0.05555541666666666
EXTRACT: note_on channel=9 note=82 velocity=15 time=0.02777770833333333
EXTRACT: control_change channel=1 control=11 value=63 time=0
EXTRACT: control_change channel=13 control=10 value=90 time=0
EXTRACT: control_change channel=13 control=11 value=51 time=0
EXTRACT: control_change channel=15 control=11 value=41 time=0
EXTRACT: note_on channel=9 note=82 velocity=0 time=0.030555479166666663
EXTRACT: control_change channel=1 control=11 value=62 time=0.05277764583333333
EXTRACT: control_change channel=13 control=11 value=49 time=0
EXTRACT: control_change channel=15 control=11 value=38 time=0
EXTRACT: control_change channel=1 control=11 value=60 time=0.083333125
EXTRACT: control_change channel=13 control=11 value=47 time=0
EXTRACT: control_change channel=15 control=11 value=37 time=0
EXTRACT: note_on channel=13 note=65 velocity=0 time=0.02361105208333333
EXTRACT: control_change channel=1 control=11 value=59 time=0.05972207291666666
EXTRACT: control_change channel=13 control=11 value=45 time=0
EXTRACT: control_change channel=15 control=11 value=35 time=0
EXTRACT: note_on channel=13 note=65 velocity=25 time=0.04444433333333333
EXTRACT: note_on channel=3 note=54 velocity=111 time=0
EXTRACT: control_change channel=1 control=11 value=56 time=0
EXTRACT: control_change channel=13 control=11 value=43 time=0
EXTRACT: control_change channel=15 control=11 value=35 time=0
EXTRACT: control_change channel=13 control=10 value=30 time=0.02083328125
EXTRACT: control_change channel=1 control=11 value=54 time=0.06249984374999999
EXTRACT: control_change channel=11 control=64 value=0 time=0
EXTRACT: control_change channel=13 control=11 value=41 time=0
EXTRACT: control_change channel=15 control=11 value=31 time=0
EXTRACT: note_on channel=3 note=54 velocity=0 time=0.06805538541666666
EXTRACT: control_change channel=1 control=11 value=53 time=0.015277739583333332
EXTRACT: control_change channel=13 control=11 value=39 time=0
EXTRACT: control_change channel=15 control=11 value=30 time=0
EXTRACT: note_on channel=13 note=65 velocity=0 time=0.04722210416666666
EXTRACT: control_change channel=1 control=11 value=53 time=0.03611102083333333
EXTRACT: control_change channel=2 control=64 value=0 time=0
EXTRACT: control_change channel=13 control=11 value=37 time=0
EXTRACT: control_change channel=15 control=11 value=29 time=0
EXTRACT: control_change channel=8 control=64 value=0 time=0.02083328125
EXTRACT: control_change channel=2 control=64 value=100 time=0.009722197916666666
EXTRACT: note_on channel=13 note=65 velocity=25 time=0.024999937499999996
EXTRACT: control_change channel=13 control=10 value=90 time=0.006944427083333333
EXTRACT: note_on channel=3 note=54 velocity=111 time=0
EXTRACT: note_on channel=9 note=82 velocity=17 time=0
EXTRACT: control_change channel=1 control=11 value=50 time=0
EXTRACT: control_change channel=13 control=11 value=35 time=0
EXTRACT: control_change channel=15 control=11 value=27 time=0
EXTRACT: note_on channel=9 note=82 velocity=0 time=0.02361105208333333
EXTRACT: control_change channel=1 control=11 value=49 time=0.05277764583333333
EXTRACT: control_change channel=13 control=11 value=35 time=0
EXTRACT: control_change channel=15 control=11 value=25 time=0
EXTRACT: control_change channel=1 control=11 value=47 time=0.083333125
EXTRACT: control_change channel=13 control=11 value=31 time=0
EXTRACT: control_change channel=15 control=11 value=23 time=0
EXTRACT: note_on channel=13 note=65 velocity=0 time=0.058333187499999994
EXTRACT: note_on channel=3 note=54 velocity=0 time=0.013888854166666666
EXTRACT: control_change channel=1 control=11 value=44 time=0.011111083333333332
EXTRACT: control_change channel=13 control=11 value=30 time=0
EXTRACT: control_change channel=15 control=11 value=22 time=0
EXTRACT: note_on channel=13 note=65 velocity=25 time=0.07638869791666666
EXTRACT: note_on channel=3 note=56 velocity=111 time=0
EXTRACT: control_change channel=1 control=11 value=43 time=0
EXTRACT: control_change channel=13 control=10 value=30 time=0
EXTRACT: control_change channel=13 control=11 value=28 time=0
EXTRACT: control_change channel=15 control=11 value=20 time=0
EXTRACT: control_change channel=1 control=11 value=41 time=0.083333125
EXTRACT: control_change channel=13 control=11 value=26 time=0
EXTRACT: control_change channel=15 control=11 value=18 time=0
EXTRACT: control_change channel=1 control=11 value=41 time=0.083333125
EXTRACT: control_change channel=13 control=11 value=25 time=0
EXTRACT: control_change channel=15 control=11 value=17 time=0
EXTRACT: note_on channel=13 note=65 velocity=0 time=0.04444433333333333
EXTRACT: control_change channel=1 control=11 value=39 time=0.038888791666666665
EXTRACT: control_change channel=13 control=11 value=23 time=0
EXTRACT: control_change channel=15 control=11 value=15 time=0
EXTRACT: note_on channel=3 note=56 velocity=0 time=0.013888854166666666
EXTRACT: note_on channel=13 note=65 velocity=25 time=0.0416665625
EXTRACT: note_on channel=9 note=82 velocity=15 time=0.02777770833333333
EXTRACT: control_change channel=1 control=11 value=37 time=0
EXTRACT: control_change channel=13 control=11 value=21 time=0
EXTRACT: control_change channel=15 control=11 value=13 time=0
EXTRACT: note_on channel=3 note=58 velocity=111 time=0
EXTRACT: note_on channel=9 note=82 velocity=0 time=0.024999937499999996
EXTRACT: control_change channel=1 control=11 value=35 time=0.05277764583333333
EXTRACT: control_change channel=13 control=11 value=19 time=0
EXTRACT: control_change channel=15 control=11 value=11 time=0
EXTRACT: control_change channel=13 control=10 value=50 time=0.06249984374999999
EXTRACT: control_change channel=1 control=11 value=32 time=0.02083328125
EXTRACT: control_change channel=13 control=11 value=17 time=0
EXTRACT: control_change channel=15 control=11 value=10 time=0
EXTRACT: note_on channel=13 note=65 velocity=0 time=0.058333187499999994
EXTRACT: control_change channel=1 control=11 value=31 time=0.024999937499999996
EXTRACT: control_change channel=13 control=11 value=15 time=0
EXTRACT: control_change channel=15 control=11 value=8 time=0
EXTRACT: note_on channel=3 note=58 velocity=0 time=0.02083328125
EXTRACT: note_on channel=13 note=65 velocity=25 time=0.05555541666666666
EXTRACT: control_change channel=1 control=11 value=29 time=0.006944427083333333
EXTRACT: control_change channel=13 control=11 value=14 time=0
EXTRACT: control_change channel=15 control=11 value=6 time=0
EXTRACT: note_on channel=3 note=61 velocity=111 time=0
EXTRACT: note_on channel=13 note=61 velocity=0 time=0.005555541666666666
EXTRACT: note_on channel=13 note=59 velocity=0 time=0
EXTRACT: control_change channel=1 control=11 value=28 time=0.05277764583333333
EXTRACT: control_change channel=13 control=11 value=12 time=0
EXTRACT: control_change channel=15 control=11 value=5 time=0
EXTRACT: control_change channel=15 control=64 value=0 time=0
EXTRACT: control_change channel=1 control=11 value=26 time=0.083333125
EXTRACT: control_change channel=13 control=11 value=10 time=0
EXTRACT: note_on channel=13 note=65 velocity=0 time=0.04444433333333333
EXTRACT: control_change channel=13 control=11 value=8 time=0.038888791666666665
EXTRACT: note_on channel=1 note=23 velocity=0 time=0.07222204166666665
EXTRACT: control_change channel=1 control=11 value=127 time=0
EXTRACT: note_on channel=1 note=27 velocity=79 time=0
EXTRACT: note_on channel=11 note=51 velocity=55 time=0
EXTRACT: note_on channel=13 note=61 velocity=25 time=0
EXTRACT: note_on channel=15 note=39 velocity=37 time=0
EXTRACT: control_change channel=13 control=11 value=23 time=0
EXTRACT: note_on channel=10 note=70 velocity=41 time=0.0013888854166666665
EXTRACT: note_on channel=13 note=39 velocity=15 time=0
EXTRACT: note_on channel=2 note=39 velocity=30 time=0.002777770833333333
EXTRACT: note_on channel=13 note=66 velocity=29 time=0.009722197916666666
EXTRACT: note_on channel=13 note=70 velocity=48 time=0.006944427083333333
EXTRACT: control_change channel=2 control=64 value=100 time=0
EXTRACT: note_on channel=8 note=66 velocity=52 time=0.015277739583333332
EXTRACT: note_on channel=2 note=39 velocity=0 time=0.11944414583333332
EXTRACT: control_change channel=13 control=11 value=24 time=0.011111083333333332
EXTRACT: note_on channel=3 note=61 velocity=0 time=0.11388860416666666
EXTRACT: note_on channel=15 note=39 velocity=0 time=0.04444433333333333
EXTRACT: note_on channel=2 note=49 velocity=41 time=0.008333312499999999
EXTRACT: note_on channel=11 note=61 velocity=50 time=0
EXTRACT: note_on channel=15 note=54 velocity=26 time=0
EXTRACT: control_change channel=13 control=11 value=26 time=0
EXTRACT: note_on channel=3 note=61 velocity=110 time=0
EXTRACT: note_on channel=2 note=49 velocity=0 time=0.008333312499999999
EXTRACT: note_on channel=8 note=66 velocity=0 time=0.13472188541666666
EXTRACT: control_change channel=13 control=11 value=28 time=0.019444395833333333
EXTRACT: note_on channel=15 note=54 velocity=0 time=0.15416628124999998
EXTRACT: note_on channel=11 note=51 velocity=0 time=0.0013888854166666665
EXTRACT: note_on channel=2 note=54 velocity=63 time=0.011111083333333332
EXTRACT: note_on channel=8 note=61 velocity=55 time=0
EXTRACT: note_on channel=8 note=58 velocity=49 time=0
EXTRACT: note_on channel=9 note=44 velocity=32 time=0
EXTRACT: note_on channel=11 note=54 velocity=61 time=0
EXTRACT: note_on channel=15 note=58 velocity=37 time=0
EXTRACT: note_on channel=15 note=61 velocity=47 time=0
EXTRACT: control_change channel=13 control=11 value=29 time=0
EXTRACT: note_on channel=1 note=27 velocity=0 time=0.009722197916666666
EXTRACT: note_on channel=2 note=54 velocity=0 time=0.005555541666666666
EXTRACT: note_on channel=9 note=44 velocity=0 time=0.015277739583333332
EXTRACT: note_on channel=8 note=61 velocity=0 time=0.012499968749999998
EXTRACT: note_on channel=8 note=58 velocity=0 time=0.004166656249999999
EXTRACT: control_change channel=13 control=11 value=31 time=0.11944414583333332
EXTRACT: control_change channel=15 control=11 value=127 time=0
EXTRACT: note_on channel=11 note=61 velocity=0 time=0.009722197916666666
EXTRACT: control_change channel=15 control=11 value=123 time=0.03194436458333333
EXTRACT: control_change channel=15 control=11 value=119 time=0.0416665625
EXTRACT: note_on channel=3 note=61 velocity=0 time=0.009722197916666666
EXTRACT: control_change channel=15 control=11 value=115 time=0.03194436458333333
EXTRACT: note_on channel=8 note=54 velocity=49 time=0.0416665625
EXTRACT: note_on channel=11 note=61 velocity=40 time=0
EXTRACT: control_change channel=13 control=11 value=32 time=0
EXTRACT: control_change channel=15 control=11 value=111 time=0
EXTRACT: note_on channel=8 note=63 velocity=51 time=0.016666624999999997
EXTRACT: note_on channel=8 note=59 velocity=55 time=0.0013888854166666665
EXTRACT: control_change channel=15 control=11 value=107 time=0.02361105208333333
EXTRACT: control_change channel=15 control=11 value=103 time=0.0416665625
EXTRACT: control_change channel=15 control=11 value=99 time=0.0416665625
EXTRACT: note_on channel=15 note=61 velocity=0 time=0.004166656249999999
EXTRACT: control_change channel=13 control=11 value=35 time=0.03749990625
EXTRACT: control_change channel=15 control=11 value=95 time=0
EXTRACT: control_change channel=15 control=11 value=91 time=0.048610989583333326
EXTRACT: note_on channel=15 note=58 velocity=0 time=0.016666624999999997
EXTRACT: note_on channel=13 note=61 velocity=0 time=0.018055510416666663
EXTRACT: note_on channel=13 note=71 velocity=48 time=0.029166593749999997
EXTRACT: note_on channel=13 note=70 velocity=0 time=0.006944427083333333
EXTRACT: note_on channel=11 note=54 velocity=0 time=0
EXTRACT: control_change channel=2 control=64 value=0 time=0.026388822916666665
EXTRACT: note_on channel=13 note=47 velocity=15 time=0.008333312499999999
EXTRACT: note_on channel=11 note=61 velocity=0 time=0.0013888854166666665
EXTRACT: note_on channel=1 note=35 velocity=75 time=0.004166656249999999
EXTRACT: note_on channel=13 note=63 velocity=47 time=0.006944427083333333
EXTRACT: note_on channel=15 note=47 velocity=32 time=0
EXTRACT: control_change channel=13 control=11 value=36 time=0
EXTRACT: control_change channel=15 control=11 value=127 time=0
EXTRACT: note_on channel=13 note=39 velocity=0 time=0.002777770833333333
EXTRACT: note_on channel=2 note=47 velocity=41 time=0.0013888854166666665
EXTRACT: control_change channel=2 control=64 value=100 time=0.005555541666666666
EXTRACT: note_on channel=10 note=71 velocity=46 time=0.002777770833333333
EXTRACT: note_on channel=10 note=70 velocity=0 time=0.004166656249999999
EXTRACT: control_change channel=13 control=11 value=38 time=0.149999625
EXTRACT: note_on channel=2 note=47 velocity=0 time=0.02083328125
EXTRACT: note_on channel=15 note=47 velocity=0 time=0.13749965625
EXTRACT: note_on channel=11 note=61 velocity=50 time=0.006944427083333333
EXTRACT: note_on channel=2 note=49 velocity=49 time=0.0013888854166666665
EXTRACT: note_on channel=15 note=51 velocity=26 time=0
EXTRACT: control_change channel=13 control=11 value=39 time=0
EXTRACT: note_on channel=2 note=49 velocity=0 time=0.04444433333333333
EXTRACT: control_change channel=13 control=11 value=40 time=0.12222191666666665
EXTRACT: note_on channel=15 note=51 velocity=0 time=0.1444440833333333
EXTRACT: note_on channel=8 note=54 velocity=0 time=0.011111083333333332
EXTRACT: note_on channel=2 note=54 velocity=61 time=0.008333312499999999
EXTRACT: note_on channel=11 note=61 velocity=0 time=0.002777770833333333
EXTRACT: note_on channel=9 note=44 velocity=25 time=0
EXTRACT: note_on channel=11 note=59 velocity=63 time=0
EXTRACT: note_on channel=15 note=54 velocity=37 time=0
EXTRACT: note_on channel=15 note=59 velocity=46 time=0
EXTRACT: control_change channel=13 control=11 value=43 time=0
EXTRACT: note_on channel=2 note=54 velocity=0 time=0.030555479166666663
EXTRACT: note_on channel=9 note=44 velocity=0 time=0
EXTRACT: control_change channel=15 control=11 value=127 time=0.1083330625
EXTRACT: note_on channel=1 note=35 velocity=0 time=0.02361105208333333
EXTRACT: control_change channel=13 control=11 value=44 time=0.004166656249999999
EXTRACT: control_change channel=15 control=11 value=123 time=0.013888854166666666
EXTRACT: control_change channel=15 control=11 value=119 time=0.0416665625
EXTRACT: note_on channel=8 note=59 velocity=0 time=0.0416665625
EXTRACT: control_change channel=15 control=11 value=115 time=0
EXTRACT: control_change channel=15 control=11 value=111 time=0.0416665625
EXTRACT: note_on channel=8 note=63 velocity=0 time=0.019444395833333333
EXTRACT: control_change channel=13 control=11 value=47 time=0.008333312499999999
EXTRACT: note_on channel=11 note=54 velocity=39 time=0.005555541666666666
EXTRACT: control_change channel=15 control=11 value=107 time=0.008333312499999999
EXTRACT: control_change channel=15 control=11 value=103 time=0.0416665625
EXTRACT: control_change channel=15 control=11 value=99 time=0.0416665625
EXTRACT: control_change channel=15 control=11 value=94 time=0.0416665625
EXTRACT: note_on channel=15 note=59 velocity=0 time=0.0013888854166666665
EXTRACT: note_on channel=13 note=66 velocity=0 time=0.015277739583333332
EXTRACT: control_change channel=13 control=11 value=48 time=0.011111083333333332
EXTRACT: control_change channel=15 control=11 value=91 time=0.02083328125
EXTRACT: note_on channel=8 note=58 velocity=47 time=0.05694430208333333
EXTRACT: note_on channel=15 note=54 velocity=0 time=0.015277739583333332
EXTRACT: note_on channel=11 note=59 velocity=0 time=0.04027767708333333
EXTRACT: note_on channel=8 note=61 velocity=53 time=0.0013888854166666665
EXTRACT: control_change channel=15 control=11 value=126 time=0.004166656249999999
EXTRACT: note_on channel=13 note=63 velocity=0 time=0.005555541666666666
EXTRACT: control_change channel=2 control=64 value=0 time=0.0013888854166666665
EXTRACT: note_on channel=13 note=71 velocity=0 time=0
EXTRACT: note_on channel=10 note=71 velocity=0 time=0.002777770833333333
EXTRACT: note_on channel=11 note=54 velocity=0 time=0.002777770833333333
EXTRACT: note_on channel=13 note=47 velocity=0 time=0.004166656249999999
EXTRACT: note_on channel=13 note=61 velocity=44 time=0.011111083333333332
EXTRACT: note_on channel=13 note=66 velocity=54 time=0
EXTRACT: note_on channel=13 note=70 velocity=47 time=0
EXTRACT: note_on channel=15 note=42 velocity=38 time=0
EXTRACT: control_change channel=13 control=11 value=48 time=0
EXTRACT: note_on channel=10 note=70 velocity=43 time=0.0013888854166666665
EXTRACT: note_on channel=2 note=42 velocity=41 time=0.002777770833333333
EXTRACT: note_on channel=11 note=54 velocity=57 time=0.0013888854166666665
EXTRACT: note_on channel=1 note=30 velocity=82 time=0.0013888854166666665
EXTRACT: note_on channel=13 note=42 velocity=15 time=0.016666624999999997
EXTRACT: control_change channel=2 control=64 value=100 time=0.006944427083333333
EXTRACT: note_on channel=8 note=66 velocity=71 time=0.02083328125
EXTRACT: note_on channel=2 note=42 velocity=0 time=0.10416640625
EXTRACT: control_change channel=13 control=11 value=51 time=0.011111083333333332
EXTRACT: note_on channel=15 note=42 velocity=0 time=0.14722185416666664
EXTRACT: note_on channel=2 note=49 velocity=37 time=0.016666624999999997
EXTRACT: note_on channel=15 note=49 velocity=26 time=0.002777770833333333
EXTRACT: control_change channel=13 control=11 value=53 time=0
EXTRACT: note_on channel=11 note=58 velocity=62 time=0.006944427083333333
EXTRACT: note_on channel=2 note=49 velocity=0 time=0.002777770833333333
EXTRACT: control_change channel=13 control=11 value=55 time=0.1569440520833333
EXTRACT: note_on channel=8 note=61 velocity=0 time=0.09999974999999998
EXTRACT: note_on channel=11 note=54 velocity=0 time=0.024999937499999996
EXTRACT: note_on channel=8 note=66 velocity=0 time=0.002777770833333333
EXTRACT: note_on channel=8 note=58 velocity=0 time=0.013888854166666666
EXTRACT: note_on channel=8 note=58 velocity=49 time=0.024999937499999996
EXTRACT: note_on channel=8 note=61 velocity=49 time=0
EXTRACT: note_on channel=9 note=44 velocity=23 time=0
EXTRACT: note_on channel=15 note=54 velocity=36 time=0
EXTRACT: note_on channel=15 note=58 velocity=47 time=0
EXTRACT: control_change channel=13 control=11 value=56 time=0
EXTRACT: note_on channel=11 note=54 velocity=56 time=0.0013888854166666665
EXTRACT: note_on channel=15 note=49 velocity=0 time=0.004166656249999999
EXTRACT: note_on channel=2 note=54 velocity=57 time=0.012499968749999998
EXTRACT: note_on channel=8 note=58 velocity=0 time=0.002777770833333333
EXTRACT: note_on channel=8 note=61 velocity=0 time=0.002777770833333333
EXTRACT: note_on channel=9 note=44 velocity=0 time=0.006944427083333333
EXTRACT: note_on channel=2 note=54 velocity=0 time=0.02083328125
EXTRACT: note_on channel=1 note=30 velocity=0 time=0.006944427083333333
EXTRACT: control_change channel=15 control=11 value=126 time=0.08749978124999999
EXTRACT: control_change channel=13 control=11 value=58 time=0.02083328125
EXTRACT: control_change channel=15 control=11 value=123 time=0.02083328125
EXTRACT: control_change channel=15 control=11 value=118 time=0.0416665625
EXTRACT: control_change channel=15 control=11 value=115 time=0.0416665625
EXTRACT: note_on channel=11 note=54 velocity=0 time=0.02361105208333333
EXTRACT: note_on channel=11 note=58 velocity=0 time=0.006944427083333333
EXTRACT: control_change channel=15 control=11 value=110 time=0.011111083333333332
EXTRACT: note_on channel=3 note=61 velocity=111 time=0
EXTRACT: control_change channel=13 control=11 value=58 time=0.004166656249999999
EXTRACT: note_on channel=11 note=61 velocity=56 time=0.0013888854166666665
EXTRACT: note_on channel=1 note=25 velocity=82 time=0.005555541666666666
EXTRACT: note_on channel=8 note=65 velocity=65 time=0.004166656249999999
EXTRACT: control_change channel=15 control=11 value=107 time=0.009722197916666666
EXTRACT: note_on channel=8 note=56 velocity=57 time=0.002777770833333333
EXTRACT: note_on channel=8 note=61 velocity=49 time=0.006944427083333333
EXTRACT: control_change channel=15 control=11 value=102 time=0.03194436458333333
EXTRACT: note_on channel=13 note=42 velocity=0 time=0.03749990625
EXTRACT: control_change channel=15 control=11 value=98 time=0.004166656249999999
EXTRACT: note_on channel=13 note=37 velocity=17 time=0.016666624999999997
EXTRACT: control_change channel=15 control=11 value=95 time=0.024999937499999996
EXTRACT: control_change channel=13 control=11 value=60 time=0.02083328125
EXTRACT: control_change channel=15 control=11 value=91 time=0.02777770833333333
EXTRACT: note_on channel=15 note=58 velocity=0 time=0.029166593749999997
EXTRACT: note_on channel=15 note=54 velocity=0 time=0.038888791666666665
EXTRACT: note_on channel=3 note=61 velocity=0 time=0
EXTRACT: control_change channel=2 control=64 value=0 time=0.038888791666666665
EXTRACT: note_on channel=10 note=70 velocity=0 time=0.006944427083333333
EXTRACT: control_change channel=15 control=11 value=127 time=0.004166656249999999
EXTRACT: note_on channel=2 note=41 velocity=31 time=0
EXTRACT: note_on channel=3 note=63 velocity=110 time=0
EXTRACT: note_on channel=11 note=49 velocity=56 time=0
EXTRACT: note_on channel=13 note=65 velocity=54 time=0
EXTRACT: note_on channel=13 note=68 velocity=45 time=0
EXTRACT: note_on channel=15 note=41 velocity=39 time=0
EXTRACT: control_change channel=13 control=11 value=63 time=0
EXTRACT: note_on channel=10 note=68 velocity=49 time=0.004166656249999999
EXTRACT: note_on channel=13 note=66 velocity=0 time=0.008333312499999999
EXTRACT: control_change channel=2 control=64 value=100 time=0.008333312499999999
EXTRACT: note_on channel=13 note=70 velocity=0 time=0.012499968749999998
EXTRACT: control_change channel=13 control=11 value=64 time=0.13333299999999998
EXTRACT: note_on channel=2 note=41 velocity=0 time=0.009722197916666666
EXTRACT: note_on channel=3 note=63 velocity=0 time=0.13888854166666664
EXTRACT: note_on channel=15 note=41 velocity=0 time=0.009722197916666666
EXTRACT: note_on channel=3 note=61 velocity=110 time=0
EXTRACT: note_on channel=15 note=49 velocity=26 time=0.0013888854166666665
EXTRACT: control_change channel=13 control=11 value=66 time=0
EXTRACT: note_on channel=2 note=49 velocity=43 time=0.006944427083333333
EXTRACT: note_on channel=2 note=49 velocity=0 time=0.04444433333333333
EXTRACT: control_change channel=13 control=11 value=69 time=0.11527748958333332
EXTRACT: note_on channel=11 note=61 velocity=0 time=0.06944427083333332
EXTRACT: note_on channel=3 note=61 velocity=0 time=0.03472213541666666
EXTRACT: note_on channel=11 note=49 velocity=0 time=0.03611102083333333
EXTRACT: note_on channel=3 note=58 velocity=111 time=0
EXTRACT: note_on channel=15 note=49 velocity=0 time=0.005555541666666666
EXTRACT: note_on channel=9 note=44 velocity=26 time=0.004166656249999999
EXTRACT: note_on channel=15 note=53 velocity=31 time=0
EXTRACT: note_on channel=15 note=56 velocity=46 time=0
EXTRACT: control_change channel=13 control=11 value=69 time=0
EXTRACT: note_on channel=11 note=56 velocity=67 time=0.002777770833333333
EXTRACT: note_on channel=2 note=56 velocity=55 time=0.012499968749999998
EXTRACT: note_on channel=1 note=25 velocity=0 time=0.0013888854166666665
EXTRACT: note_on channel=9 note=44 velocity=0 time=0.013888854166666666
EXTRACT: note_on channel=2 note=56 velocity=0 time=0.011111083333333332
EXTRACT: control_change channel=15 control=11 value=126 time=0.07638869791666666
EXTRACT: control_change channel=15 control=11 value=122 time=0.0416665625
EXTRACT: control_change channel=13 control=11 value=70 time=0.006944427083333333
EXTRACT: note_on channel=3 note=58 velocity=0 time=0.03472213541666666
EXTRACT: control_change channel=15 control=11 value=118 time=0
EXTRACT: note_on channel=8 note=56 velocity=0 time=0.0013888854166666665
EXTRACT: note_on channel=8 note=61 velocity=0 time=0.03472213541666666
EXTRACT: control_change channel=15 control=11 value=114 time=0.005555541666666666
EXTRACT: note_on channel=8 note=65 velocity=0 time=0.011111083333333332
EXTRACT: control_change channel=15 control=11 value=111 time=0.030555479166666663
EXTRACT: note_on channel=3 note=58 velocity=110 time=0
EXTRACT: control_change channel=15 control=11 value=106 time=0
EXTRACT: note_on channel=1 note=25 velocity=82 time=0.006944427083333333
EXTRACT: note_on channel=11 note=49 velocity=66 time=0
EXTRACT: control_change channel=13 control=11 value=72 time=0
EXTRACT: note_on channel=2 note=49 velocity=43 time=0.004166656249999999
EXTRACT: note_on channel=15 note=37 velocity=37 time=0.015277739583333332
EXTRACT: control_change channel=15 control=11 value=102 time=0.015277739583333332
EXTRACT: note_on channel=2 note=49 velocity=0 time=0.016666624999999997
EXTRACT: note_on channel=15 note=56 velocity=0 time=0.02083328125
EXTRACT: control_change channel=15 control=11 value=99 time=0.004166656249999999
EXTRACT: control_change channel=15 control=11 value=95 time=0.0416665625
EXTRACT: note_on channel=13 note=61 velocity=0 time=0.03749990625
EXTRACT: control_change channel=13 control=11 value=75 time=0.011111083333333332
EXTRACT: control_change channel=15 control=11 value=90 time=0
EXTRACT: note_on channel=15 note=53 velocity=0 time=0.0749998125
EXTRACT: note_on channel=8 note=58 velocity=35 time=0.019444395833333333
EXTRACT: note_on channel=15 note=37 velocity=0 time=0.019444395833333333
EXTRACT: control_change channel=2 control=64 value=0 time=0
EXTRACT: note_on channel=11 note=56 velocity=0 time=0.011111083333333332
EXTRACT: note_on channel=10 note=68 velocity=0 time=0.016666624999999997
EXTRACT: note_on channel=8 note=61 velocity=51 time=0
EXTRACT: note_on channel=13 note=37 velocity=0 time=0.006944427083333333
EXTRACT: note_on channel=13 note=68 velocity=0 time=0.006944427083333333
EXTRACT: note_on channel=1 note=25 velocity=0 time=0
EXTRACT: note_on channel=11 note=49 velocity=0 time=0
EXTRACT: control_change channel=15 control=11 value=126 time=0.004166656249999999
EXTRACT: note_on channel=1 note=27 velocity=86 time=0.006944427083333333
EXTRACT: note_on channel=11 note=51 velocity=54 time=0
EXTRACT: note_on channel=13 note=61 velocity=29 time=0
EXTRACT: note_on channel=15 note=39 velocity=36 time=0
EXTRACT: control_change channel=13 control=11 value=76 time=0
EXTRACT: note_on channel=13 note=39 velocity=14 time=0.0013888854166666665
EXTRACT: note_on channel=2 note=39 velocity=43 time=0.002777770833333333
EXTRACT: note_on channel=10 note=70 velocity=48 time=0
EXTRACT: note_on channel=13 note=65 velocity=0 time=0.008333312499999999
EXTRACT: note_on channel=13 note=66 velocity=43 time=0.0013888854166666665
EXTRACT: note_on channel=13 note=70 velocity=53 time=0.006944427083333333
EXTRACT: control_change channel=2 control=64 value=100 time=0
EXTRACT: note_on channel=8 note=66 velocity=53 time=0.015277739583333332
EXTRACT: note_on channel=2 note=39 velocity=0 time=0.11944414583333332
EXTRACT: control_change channel=13 control=11 value=78 time=0.011111083333333332
EXTRACT: note_on channel=15 note=39 velocity=0 time=0.1583329375
EXTRACT: note_on channel=11 note=61 velocity=51 time=0.008333312499999999
EXTRACT: note_on channel=15 note=54 velocity=26 time=0
EXTRACT: control_change channel=13 control=11 value=79 time=0
EXTRACT: note_on channel=2 note=49 velocity=26 time=0.013888854166666666
EXTRACT: note_on channel=2 note=49 velocity=0 time=0.013888854166666666
EXTRACT: note_on channel=8 note=66 velocity=0 time=0.11944414583333332
EXTRACT: note_on channel=8 note=58 velocity=0 time=0.004166656249999999
EXTRACT: control_change channel=13 control=11 value=81 time=0.015277739583333332
EXTRACT: note_on channel=8 note=61 velocity=0 time=0.004166656249999999
EXTRACT: note_on channel=3 note=58 velocity=0 time=0.06805538541666666
EXTRACT: note_on channel=15 note=54 velocity=0 time=0.08194423958333333
EXTRACT: note_on channel=11 note=51 velocity=0 time=0.0013888854166666665
EXTRACT: note_on channel=8 note=58 velocity=49 time=0.011111083333333332
EXTRACT: note_on channel=8 note=61 velocity=55 time=0
EXTRACT: note_on channel=8 note=66 velocity=53 time=0
EXTRACT: note_on channel=9 note=44 velocity=24 time=0
EXTRACT: note_on channel=11 note=54 velocity=61 time=0
EXTRACT: note_on channel=15 note=58 velocity=37 time=0
EXTRACT: note_on channel=15 note=61 velocity=46 time=0
EXTRACT: control_change channel=13 control=11 value=82 time=0
EXTRACT: note_on channel=2 note=54 velocity=61 time=0
EXTRACT: note_on channel=3 note=70 velocity=111 time=0
EXTRACT: note_on channel=2 note=54 velocity=0 time=0.015277739583333332
EXTRACT: note_on channel=8 note=66 velocity=0 time=0.005555541666666666
EXTRACT: note_on channel=9 note=44 velocity=0 time=0.004166656249999999
EXTRACT: note_on channel=8 note=61 velocity=0 time=0.012499968749999998
EXTRACT: note_on channel=8 note=58 velocity=0 time=0.004166656249999999
EXTRACT: note_on channel=1 note=27 velocity=0 time=0.015277739583333332
EXTRACT: control_change channel=13 control=11 value=85 time=0.10416640625
EXTRACT: control_change channel=15 control=11 value=127 time=0
EXTRACT: note_on channel=11 note=61 velocity=0 time=0.009722197916666666
EXTRACT: control_change channel=15 control=11 value=122 time=0.03194436458333333
EXTRACT: control_change channel=11 control=11 value=118 time=0.0416665625
EXTRACT: note_on channel=3 note=70 velocity=0 time=0.030555479166666663
EXTRACT: control_change channel=15 control=11 value=115 time=0.011111083333333332
EXTRACT: note_on channel=2 note=49 velocity=43 time=0.0416665625
EXTRACT: note_on channel=11 note=61 velocity=40 time=0
EXTRACT: control_change channel=13 control=11 value=87 time=0
EXTRACT: control_change channel=15 control=11 value=111 time=0
EXTRACT: note_on channel=8 note=61 velocity=57 time=0.016666624999999997
EXTRACT: note_on channel=8 note=59 velocity=55 time=0.0013888854166666665
EXTRACT: note_on channel=3 note=68 velocity=110 time=0
EXTRACT: note_on channel=8 note=54 velocity=47 time=0.004166656249999999
EXTRACT: control_change channel=15 control=11 value=106 time=0.013888854166666666
EXTRACT: note_on channel=2 note=49 velocity=0 time=0.002777770833333333
EXTRACT: control_change channel=15 control=11 value=103 time=0.038888791666666665
EXTRACT: control_change channel=15 control=11 value=99 time=0.0416665625
EXTRACT: control_change channel=13 control=11 value=88 time=0.0416665625
EXTRACT: control_change channel=15 control=11 value=94 time=0
EXTRACT: control_change channel=15 control=11 value=91 time=0.048610989583333326
EXTRACT: note_on channel=3 note=68 velocity=0 time=0.016666624999999997
EXTRACT: note_on channel=15 note=61 velocity=0 time=0.0013888854166666665
EXTRACT: note_on channel=13 note=61 velocity=0 time=0.016666624999999997
EXTRACT: note_on channel=13 note=71 velocity=52 time=0.029166593749999997
EXTRACT: note_on channel=13 note=70 velocity=0 time=0.006944427083333333
EXTRACT: note_on channel=11 note=54 velocity=0 time=0
EXTRACT: note_on channel=13 note=39 velocity=0 time=0.008333312499999999
EXTRACT: note_on channel=15 note=58 velocity=0 time=0
EXTRACT: note_on channel=10 note=70 velocity=0 time=0.013888854166666666
EXTRACT: control_change channel=2 control=64 value=0 time=0.004166656249999999
EXTRACT: note_on channel=13 note=47 velocity=14 time=0.008333312499999999
EXTRACT: note_on channel=11 note=61 velocity=0 time=0.0013888854166666665
EXTRACT: note_on channel=10 note=71 velocity=49 time=0.0013888854166666665
EXTRACT: note_on channel=1 note=35 velocity=91 time=0.009722197916666666
EXTRACT: note_on channel=11 note=59 velocity=62 time=0
EXTRACT: note_on channel=13 note=63 velocity=51 time=0
EXTRACT: note_on channel=15 note=47 velocity=33 time=0
EXTRACT: control_change channel=13 control=11 value=89 time=0
EXTRACT: control_change channel=15 control=11 value=127 time=0
EXTRACT: note_on channel=2 note=47 velocity=43 time=0.004166656249999999
EXTRACT: control_change channel=2 control=64 value=100 time=0.005555541666666666
EXTRACT: note_on channel=3 note=68 velocity=111 time=0
EXTRACT: control_change channel=13 control=11 value=91 time=0.14166631249999997
EXTRACT: note_on channel=2 note=47 velocity=0 time=0.02083328125
EXTRACT: note_on channel=3 note=68 velocity=0 time=0.12499968749999998
EXTRACT: note_on channel=15 note=47 velocity=0 time=0.012499968749999998
EXTRACT: note_on channel=15 note=51 velocity=26 time=0.008333312499999999
EXTRACT: control_change channel=13 control=11 value=93 time=0
EXTRACT: note_on channel=3 note=66 velocity=110 time=0
EXTRACT: note_on channel=2 note=49 velocity=31 time=0.011111083333333332
EXTRACT: note_on channel=2 note=49 velocity=0 time=0.04444433333333333
EXTRACT: note_on channel=11 note=59 velocity=0 time=0.09722197916666665
EXTRACT: control_change channel=13 control=11 value=95 time=0.011111083333333332
EXTRACT: note_on channel=3 note=66 velocity=0 time=0.11805526041666665
EXTRACT: note_on channel=15 note=51 velocity=0 time=0.026388822916666665
EXTRACT: note_on channel=1 note=35 velocity=0 time=0.011111083333333332
EXTRACT: note_on channel=2 note=54 velocity=65 time=0.008333312499999999
EXTRACT: note_on channel=9 note=44 velocity=23 time=0.002777770833333333
EXTRACT: note_on channel=11 note=59 velocity=63 time=0
EXTRACT: note_on channel=15 note=54 velocity=37 time=0
EXTRACT: note_on channel=15 note=59 velocity=46 time=0
EXTRACT: control_change channel=13 control=11 value=97 time=0
EXTRACT: note_on channel=3 note=68 velocity=110 time=0
EXTRACT: note_on channel=8 note=54 velocity=0 time=0.004166656249999999
EXTRACT: note_on channel=2 note=54 velocity=0 time=0.013888854166666666
EXTRACT: note_on channel=9 note=44 velocity=0 time=0
EXTRACT: control_change channel=15 control=11 value=127 time=0.1083330625
EXTRACT: control_change channel=13 control=11 value=99 time=0.02777770833333333
EXTRACT: control_change channel=15 control=11 value=123 time=0.013888854166666666
EXTRACT: control_change channel=15 control=11 value=119 time=0.0416665625
EXTRACT: note_on channel=3 note=68 velocity=0 time=0.03749990625
EXTRACT: note_on channel=8 note=59 velocity=0 time=0.004166656249999999
EXTRACT: control_change channel=15 control=11 value=115 time=0
EXTRACT: control_change channel=15 control=11 value=111 time=0.0416665625
EXTRACT: pitchwheel channel=3 pitch=-8092 time=0.012499968749999998
EXTRACT: note_on channel=8 note=61 velocity=0 time=0.006944427083333333
EXTRACT: note_on channel=1 note=35 velocity=90 time=0.008333312499999999
EXTRACT: control_change channel=13 control=11 value=99 time=0
EXTRACT: note_on channel=11 note=54 velocity=38 time=0.005555541666666666
EXTRACT: control_change channel=15 control=11 value=107 time=0.008333312499999999
EXTRACT: note_on channel=3 note=70 velocity=111 time=0
EXTRACT: control_change channel=15 control=11 value=103 time=0.029166593749999997
EXTRACT: control_change channel=15 control=11 value=99 time=0.0416665625
EXTRACT: pitchwheel channel=1 pitch=285 time=0.0013888854166666665
EXTRACT: pitchwheel channel=1 pitch=1113 time=0.013888854166666666
EXTRACT: note_on channel=15 note=54 velocity=0 time=0.0013888854166666665
EXTRACT: pitchwheel channel=1 pitch=2196 time=0.013888854166666666
EXTRACT: pitchwheel channel=3 pitch=-6857 time=0
EXTRACT: pitchwheel channel=3 pitch=-6217 time=0.009722197916666666
EXTRACT: control_change channel=15 control=11 value=95 time=0.0013888854166666665
EXTRACT: pitchwheel channel=1 pitch=2692 time=0.0013888854166666665
EXTRACT: pitchwheel channel=3 pitch=-5577 time=0.008333312499999999
EXTRACT: pitchwheel channel=1 pitch=3520 time=0.006944427083333333
EXTRACT: note_on channel=13 note=66 velocity=0 time=0
EXTRACT: note_on channel=15 note=54 velocity=36 time=0.011111083333333332
EXTRACT: control_change channel=13 control=11 value=101 time=0
EXTRACT: pitchwheel channel=1 pitch=4136 time=0.002777770833333333
EXTRACT: pitchwheel channel=3 pitch=-4937 time=0
EXTRACT: note_on channel=2 note=49 velocity=35 time=0.0013888854166666665
EXTRACT: pitchwheel channel=1 pitch=4715 time=0.012499968749999998
EXTRACT: pitchwheel channel=3 pitch=-4297 time=0.006944427083333333
EXTRACT: note_on channel=15 note=59 velocity=0 time=0.0013888854166666665
EXTRACT: pitchwheel channel=1 pitch=5415 time=0.005555541666666666
EXTRACT: note_on channel=2 note=49 velocity=0 time=0.006944427083333333
EXTRACT: pitchwheel channel=1 pitch=6159 time=0.008333312499999999
EXTRACT: pitchwheel channel=3 pitch=-3145 time=0.004166656249999999
EXTRACT: pitchwheel channel=1 pitch=7160 time=0.008333312499999999
EXTRACT: pitchwheel channel=3 pitch=-2566 time=0.005555541666666666
EXTRACT: pitchwheel channel=1 pitch=7942 time=0.008333312499999999
EXTRACT: pitchwheel channel=3 pitch=-2197 time=0.004166656249999999
EXTRACT: note_on channel=8 note=58 velocity=46 time=0.0013888854166666665
EXTRACT: pitchwheel channel=1 pitch=8063 time=0.009722197916666666
EXTRACT: pitchwheel channel=3 pitch=-1407 time=0.004166656249999999
EXTRACT: pitchwheel channel=3 pitch=-617 time=0.013888854166666666
EXTRACT: pitchwheel channel=3 pitch=-249 time=0.013888854166666666
EXTRACT: note_on channel=10 note=71 velocity=0 time=0.008333312499999999
EXTRACT: note_on channel=11 note=59 velocity=0 time=0.005555541666666666
EXTRACT: pitchwheel channel=3 pitch=128 time=0
EXTRACT: note_on channel=8 note=61 velocity=53 time=0.0013888854166666665
EXTRACT: control_change channel=15 control=11 value=127 time=0.004166656249999999
EXTRACT: note_on channel=13 note=63 velocity=0 time=0.005555541666666666
EXTRACT: control_change channel=2 control=64 value=0 time=0.0013888854166666665
EXTRACT: note_on channel=13 note=71 velocity=0 time=0
EXTRACT: note_on channel=1 note=35 velocity=0 time=0.005555541666666666
EXTRACT: note_on channel=11 note=54 velocity=0 time=0
EXTRACT: note_on channel=13 note=47 velocity=0 time=0.004166656249999999
EXTRACT: pitchwheel channel=1 pitch=137 time=0.006944427083333333
EXTRACT: note_on channel=1 note=42 velocity=100 time=0.004166656249999999
EXTRACT: note_on channel=13 note=61 velocity=51 time=0
EXTRACT: note_on channel=13 note=66 velocity=61 time=0
EXTRACT: note_on channel=13 note=70 velocity=53 time=0
EXTRACT: note_on channel=15 note=42 velocity=38 time=0
EXTRACT: control_change channel=13 control=11 value=103 time=0
EXTRACT: note_on channel=2 note=42 velocity=45 time=0.004166656249999999
EXTRACT: note_on channel=11 note=54 velocity=56 time=0.0013888854166666665
EXTRACT: note_on channel=10 note=70 velocity=49 time=0.012499968749999998
EXTRACT: note_on channel=13 note=42 velocity=14 time=0.005555541666666666
EXTRACT: control_change channel=2 control=64 value=100 time=0.006944427083333333
EXTRACT: note_on channel=2 note=42 velocity=0 time=0.12499968749999998
EXTRACT: control_change channel=13 control=11 value=105 time=0.011111083333333332
EXTRACT: note_on channel=15 note=54 velocity=0 time=0.09305532291666666
EXTRACT: note_on channel=1 note=42 velocity=0 time=0.02083328125
EXTRACT: note_on channel=15 note=42 velocity=0 time=0.033333249999999995
EXTRACT: note_on channel=8 note=58 velocity=0 time=0.008333312499999999
EXTRACT: note_on channel=8 note=61 velocity=0 time=0
EXTRACT: note_on channel=2 note=49 velocity=51 time=0.008333312499999999
EXTRACT: note_on channel=1 note=42 velocity=99 time=0.002777770833333333
EXTRACT: note_on channel=15 note=49 velocity=26 time=0
EXTRACT: control_change channel=13 control=11 value=107 time=0
EXTRACT: note_on channel=11 note=58 velocity=63 time=0.006944427083333333
EXTRACT: note_on channel=2 note=49 velocity=0 time=0.002777770833333333
EXTRACT: note_on channel=8 note=58 velocity=48 time=0.004166656249999999
EXTRACT: note_on channel=8 note=61 velocity=60 time=0
EXTRACT: note_on channel=8 note=58 velocity=0 time=0.02083328125
EXTRACT: note_on channel=8 note=61 velocity=0 time=0.10694417708333333
EXTRACT: control_change channel=13 control=11 value=109 time=0.024999937499999996
EXTRACT: note_on channel=1 note=42 velocity=0 time=0.11388860416666666
EXTRACT: note_on channel=15 note=49 velocity=0 time=0.002777770833333333
EXTRACT: note_on channel=11 note=54 velocity=0 time=0.008333312499999999
EXTRACT: note_on channel=10 note=70 velocity=0 time=0.030555479166666663
EXTRACT: note_on channel=1 note=42 velocity=107 time=0.011111083333333332
EXTRACT: note_on channel=8 note=61 velocity=32 time=0
EXTRACT: note_on channel=8 note=53 velocity=31 time=0
EXTRACT: note_on channel=9 note=44 velocity=25 time=0
EXTRACT: note_on channel=10 note=61 velocity=67 time=0
EXTRACT: note_on channel=15 note=54 velocity=37 time=0
EXTRACT: note_on channel=15 note=58 velocity=54 time=0
EXTRACT: control_change channel=13 control=11 value=109 time=0
EXTRACT: note_on channel=11 note=54 velocity=57 time=0.0013888854166666665
EXTRACT: note_on channel=10 note=73 velocity=77 time=0.005555541666666666
EXTRACT: note_on channel=2 note=58 velocity=39 time=0.008333312499999999
EXTRACT: note_on channel=2 note=54 velocity=67 time=0.002777770833333333
EXTRACT: note_on channel=8 note=61 velocity=0 time=0.002777770833333333
EXTRACT: note_on channel=8 note=53 velocity=0 time=0
EXTRACT: note_on channel=9 note=44 velocity=0 time=0.009722197916666666
EXTRACT: note_on channel=2 note=54 velocity=0 time=0.02083328125
EXTRACT: note_on channel=2 note=58 velocity=0 time=0.03194436458333333
EXTRACT: control_change channel=15 control=11 value=127 time=0.06249984374999999
EXTRACT: control_change channel=13 control=11 value=111 time=0.02083328125
EXTRACT: control_change channel=15 control=11 value=123 time=0.02083328125
EXTRACT: note_on channel=3 note=70 velocity=0 time=0.030555479166666663
EXTRACT: control_change channel=15 control=11 value=119 time=0.011111083333333332
EXTRACT: control_change channel=15 control=11 value=115 time=0.0416665625
EXTRACT: note_on channel=1 note=42 velocity=0 time=0.009722197916666666
EXTRACT: pitchwheel channel=3 pitch=-8067 time=0.012499968749999998
EXTRACT: note_on channel=11 note=54 velocity=0 time=0.0013888854166666665
EXTRACT: note_on channel=11 note=58 velocity=0 time=0.006944427083333333
EXTRACT: control_change channel=15 control=11 value=111 time=0.011111083333333332
EXTRACT: note_on channel=8 note=53 velocity=47 time=0.016666624999999997
EXTRACT: note_on channel=1 note=42 velocity=100 time=0.004166656249999999
EXTRACT: control_change channel=13 control=11 value=113 time=0
EXTRACT: note_on channel=11 note=61 velocity=56 time=0.0013888854166666665
EXTRACT: note_on channel=3 note=73 velocity=111 time=0
EXTRACT: control_change channel=15 control=11 value=107 time=0.004166656249999999
EXTRACT: note_on channel=8 note=56 velocity=56 time=0.002777770833333333
EXTRACT: note_on channel=8 note=61 velocity=49 time=0.006944427083333333
EXTRACT: control_change channel=15 control=11 value=103 time=0.03194436458333333
EXTRACT: control_change channel=15 control=11 value=99 time=0.0416665625
EXTRACT: control_change channel=15 control=11 value=95 time=0.0416665625
EXTRACT: control_change channel=13 control=11 value=115 time=0.02083328125
EXTRACT: note_on channel=15 note=58 velocity=0 time=0.004166656249999999
EXTRACT: control_change channel=15 control=11 value=91 time=0.02361105208333333
EXTRACT: pitchwheel channel=3 pitch=-6163 time=0.009722197916666666
EXTRACT: note_on channel=15 note=54 velocity=0 time=0.006944427083333333
EXTRACT: pitchwheel channel=3 pitch=-5523 time=0.02361105208333333
EXTRACT: pitchwheel channel=3 pitch=-4936 time=0.013888854166666666
EXTRACT: pitchwheel channel=3 pitch=-4221 time=0.013888854166666666
EXTRACT: pitchwheel channel=3 pitch=-3641 time=0.013888854166666666
EXTRACT: note_on channel=1 note=42 velocity=0 time=0.004166656249999999
EXTRACT: pitchwheel channel=3 pitch=-2934 time=0.009722197916666666
EXTRACT: control_change channel=2 control=64 value=0 time=0.011111083333333332
EXTRACT: pitchwheel channel=3 pitch=-2649 time=0.004166656249999999
EXTRACT: control_change channel=15 control=11 value=126 time=0.006944427083333333
EXTRACT: note_on channel=10 note=75 velocity=77 time=0.002777770833333333
EXTRACT: pitchwheel channel=3 pitch=-2152 time=0.004166656249999999
EXTRACT: note_on channel=10 note=73 velocity=0 time=0.002777770833333333
EXTRACT: note_on channel=13 note=42 velocity=0 time=0
EXTRACT: note_on channel=11 note=61 velocity=0 time=0
EXTRACT: note_on channel=11 note=49 velocity=57 time=0.004166656249999999
EXTRACT: control_change channel=2 control=64 value=100 time=0
EXTRACT: note_on channel=1 note=41 velocity=112 time=0.006944427083333333
EXTRACT: note_on channel=2 note=49 velocity=38 time=0
EXTRACT: note_on channel=9 note=47 velocity=107 time=0
EXTRACT: note_on channel=10 note=63 velocity=71 time=0
EXTRACT: note_on channel=13 note=65 velocity=61 time=0
EXTRACT: note_on channel=13 note=68 velocity=53 time=0
EXTRACT: pitchwheel channel=3 pitch=-1656 time=0
EXTRACT: control_change channel=13 control=11 value=117 time=0
EXTRACT: note_on channel=10 note=61 velocity=0 time=0.004166656249999999
EXTRACT: note_on channel=2 note=49 velocity=0 time=0.005555541666666666
EXTRACT: note_on channel=13 note=41 velocity=13 time=0
EXTRACT: note_on channel=13 note=66 velocity=0 time=0.002777770833333333
EXTRACT: note_on channel=2 note=56 velocity=63 time=0.0013888854166666665
EXTRACT: pitchwheel channel=3 pitch=-1114 time=0
EXTRACT: note_on channel=15 note=56 velocity=58 time=0.006944427083333333
EXTRACT: pitchwheel channel=3 pitch=-828 time=0.008333312499999999
EXTRACT: note_on channel=9 note=47 velocity=0 time=0.0013888854166666665
EXTRACT: note_on channel=13 note=70 velocity=0 time=0.002777770833333333
EXTRACT: note_on channel=2 note=56 velocity=0 time=0.005555541666666666
EXTRACT: pitchwheel channel=3 pitch=-286 time=0.004166656249999999
EXTRACT: pitchwheel channel=3 pitch=-1 time=0.012499968749999998
EXTRACT: pitchwheel channel=3 pitch=128 time=0.015277739583333332
EXTRACT: control_change channel=13 control=11 value=117 time=0.09583309374999999
EXTRACT: control_change channel=3 control=11 value=91 time=0.07222204166666665
EXTRACT: note_on channel=1 note=41 velocity=0 time=0.0416665625
EXTRACT: note_on channel=1 note=41 velocity=111 time=0.05277764583333333
EXTRACT: note_on channel=9 note=43 velocity=113 time=0
EXTRACT: control_change channel=13 control=11 value=119 time=0
EXTRACT: control_change channel=15 control=11 value=127 time=0.006944427083333333
EXTRACT: note_on channel=9 note=43 velocity=0 time=0.02361105208333333
EXTRACT: control_change channel=15 control=11 value=122 time=0.018055510416666663
EXTRACT: control_change channel=15 control=11 value=118 time=0.0416665625
EXTRACT: control_change channel=3 control=11 value=95 time=0.02083328125
EXTRACT: control_change channel=15 control=11 value=115 time=0.02083328125
EXTRACT: control_change channel=13 control=11 value=121 time=0.03472213541666666
EXTRACT: control_change channel=15 control=11 value=110 time=0.006944427083333333
EXTRACT: control_change channel=15 control=11 value=107 time=0.0416665625
EXTRACT: note_on channel=1 note=41 velocity=0 time=0.03749990625
EXTRACT: control_change channel=15 control=11 value=102 time=0.004166656249999999
EXTRACT: note_on channel=3 note=73 velocity=0 time=0.02361105208333333
EXTRACT: control_change channel=15 control=11 value=99 time=0.018055510416666663
EXTRACT: note_on channel=10 note=77 velocity=97 time=0.0013888854166666665
EXTRACT: note_on channel=11 note=49 velocity=0 time=0.006944427083333333
EXTRACT: control_change channel=3 control=11 value=111 time=0.005555541666666666
EXTRACT: note_on channel=10 note=75 velocity=0 time=0.02083328125
EXTRACT: note_on channel=1 note=41 velocity=116 time=0
EXTRACT: note_on channel=3 note=66 velocity=111 time=0
EXTRACT: note_on channel=9 note=41 velocity=115 time=0
EXTRACT: note_on channel=10 note=65 velocity=61 time=0
EXTRACT: control_change channel=13 control=11 value=123 time=0
EXTRACT: note_on channel=11 note=56 velocity=67 time=0.002777770833333333
EXTRACT: note_on channel=2 note=49 velocity=38 time=0.004166656249999999
EXTRACT: control_change channel=15 control=11 value=94 time=0
EXTRACT: note_on channel=2 note=49 velocity=0 time=0.009722197916666666
EXTRACT: note_on channel=2 note=56 velocity=62 time=0.004166656249999999
EXTRACT: note_on channel=10 note=63 velocity=0 time=0.008333312499999999
EXTRACT: note_on channel=9 note=41 velocity=0 time=0.0013888854166666665
EXTRACT: note_on channel=2 note=56 velocity=0 time=0.015277739583333332
EXTRACT: control_change channel=15 control=11 value=90 time=0.009722197916666666
EXTRACT: control_change channel=13 control=11 value=125 time=0.11111083333333333
EXTRACT: note_on channel=8 note=53 velocity=0 time=0.008333312499999999
EXTRACT: note_on channel=15 note=56 velocity=0 time=0.022222166666666664
EXTRACT: note_on channel=8 note=56 velocity=0 time=0.005555541666666666
EXTRACT: note_on channel=8 note=61 velocity=0 time=0.03472213541666666
EXTRACT: note_on channel=3 note=66 velocity=0 time=0.022222166666666664
EXTRACT: control_change channel=15 control=11 value=127 time=0.038888791666666665
EXTRACT: note_on channel=1 note=41 velocity=0 time=0.011111083333333332
EXTRACT: note_on channel=3 note=68 velocity=110 time=0
EXTRACT: note_on channel=1 note=37 velocity=108 time=0.006944427083333333
EXTRACT: note_on channel=2 note=49 velocity=18 time=0
EXTRACT: note_on channel=15 note=56 velocity=46 time=0
EXTRACT: control_change channel=13 control=11 value=126 time=0
EXTRACT: note_on channel=2 note=44 velocity=43 time=0.008333312499999999
EXTRACT: note_on channel=2 note=44 velocity=0 time=0.026388822916666665
EXTRACT: note_on channel=13 note=61 velocity=0 time=0.12083303124999999
EXTRACT: note_on channel=15 note=56 velocity=0 time=0.02083328125
EXTRACT: note_on channel=3 note=68 velocity=0 time=0.029166593749999997
EXTRACT: note_on channel=8 note=58 velocity=34 time=0.05555541666666666
EXTRACT: control_change channel=2 control=64 value=0 time=0.019444395833333333
EXTRACT: note_on channel=11 note=56 velocity=0 time=0.011111083333333332
EXTRACT: note_on channel=1 note=37 velocity=0 time=0.005555541666666666
EXTRACT: note_on channel=13 note=65 velocity=0 time=0.004166656249999999
EXTRACT: note_on channel=13 note=41 velocity=0 time=0.006944427083333333
EXTRACT: note_on channel=8 note=61 velocity=51 time=0
EXTRACT: note_on channel=13 note=68 velocity=0 time=0.013888854166666666
EXTRACT: note_on channel=10 note=65 velocity=0 time=0
EXTRACT: note_on channel=10 note=77 velocity=0 time=0
EXTRACT: note_on channel=3 note=70 velocity=110 time=0
EXTRACT: note_on channel=1 note=39 velocity=117 time=0.005555541666666666
EXTRACT: note_on channel=8 note=61 velocity=68 time=0
EXTRACT: note_on channel=9 note=49 velocity=73 time=0
EXTRACT: note_on channel=9 note=35 velocity=121 time=0
EXTRACT: note_on channel=10 note=66 velocity=71 time=0
EXTRACT: note_on channel=11 note=51 velocity=66 time=0
EXTRACT: note_on channel=13 note=61 velocity=19 time=0
EXTRACT: note_on channel=2 note=39 velocity=64 time=0.004166656249999999
EXTRACT: note_on channel=2 note=39 velocity=0 time=0.005555541666666666
EXTRACT: note_on channel=13 note=66 velocity=33 time=0.004166656249999999
EXTRACT: note_on channel=13 note=70 velocity=43 time=0.006944427083333333
EXTRACT: control_change channel=2 control=64 value=100 time=0
EXTRACT: note_on channel=2 note=58 velocity=47 time=0.006944427083333333
EXTRACT: note_on channel=15 note=58 velocity=51 time=0
EXTRACT: note_on channel=10 note=78 velocity=69 time=0.0013888854166666665
EXTRACT: note_on channel=9 note=49 velocity=0 time=0.0013888854166666665
EXTRACT: note_on channel=9 note=35 velocity=0 time=0
EXTRACT: note_on channel=2 note=66 velocity=62 time=0.004166656249999999
EXTRACT: note_on channel=15 note=66 velocity=67 time=0
EXTRACT: note_on channel=2 note=58 velocity=0 time=0.006944427083333333
EXTRACT: note_on channel=2 note=66 velocity=0 time=0
EXTRACT: note_on channel=3 note=70 velocity=0 time=0.19722172916666664
EXTRACT: note_on channel=15 note=66 velocity=0 time=0.09027755208333332
EXTRACT: note_on channel=3 note=70 velocity=110 time=0
EXTRACT: note_on channel=9 note=46 velocity=61 time=0.002777770833333333
EXTRACT: note_on channel=9 note=54 velocity=35 time=0
EXTRACT: note_on channel=11 note=61 velocity=63 time=0
EXTRACT: note_on channel=8 note=66 velocity=74 time=0.004166656249999999
EXTRACT: note_on channel=2 note=54 velocity=47 time=0.002777770833333333
EXTRACT: note_on channel=15 note=54 velocity=50 time=0
EXTRACT: note_on channel=2 note=54 velocity=0 time=0.013888854166666666
EXTRACT: note_on channel=9 note=46 velocity=0 time=0.009722197916666666
EXTRACT: note_on channel=9 note=54 velocity=0 time=0
EXTRACT: note_on channel=8 note=58 velocity=0 time=0.12083303124999999
EXTRACT: note_on channel=8 note=61 velocity=0 time=0.019444395833333333
EXTRACT: note_on channel=3 note=70 velocity=0 time=0.008333312499999999
EXTRACT: note_on channel=15 note=58 velocity=0 time=0.018055510416666663
EXTRACT: note_on channel=8 note=61 velocity=0 time=0.05277764583333333
EXTRACT: note_on channel=1 note=39 velocity=0 time=0.07222204166666665
EXTRACT: note_on channel=11 note=51 velocity=0 time=0
EXTRACT: note_on channel=15 note=54 velocity=0 time=0.004166656249999999
EXTRACT: note_on channel=3 note=70 velocity=110 time=0
EXTRACT: note_on channel=8 note=61 velocity=71 time=0
EXTRACT: note_on channel=9 note=46 velocity=73 time=0.004166656249999999
EXTRACT: note_on channel=9 note=54 velocity=49 time=0
EXTRACT: note_on channel=11 note=54 velocity=73 time=0
EXTRACT: note_on channel=9 note=39 velocity=113 time=0.002777770833333333
EXTRACT: note_on channel=2 note=66 velocity=84 time=0.002777770833333333
EXTRACT: note_on channel=15 note=66 velocity=86 time=0
EXTRACT: note_on channel=2 note=58 velocity=64 time=0.0013888854166666665
EXTRACT: note_on channel=15 note=58 velocity=69 time=0
EXTRACT: note_on channel=9 note=85 velocity=79 time=0.002777770833333333
EXTRACT: note_on channel=9 note=28 velocity=69 time=0
EXTRACT: note_on channel=2 note=66 velocity=0 time=0.011111083333333332
EXTRACT: note_on channel=9 note=46 velocity=0 time=0.009722197916666666
EXTRACT: note_on channel=9 note=54 velocity=0 time=0
EXTRACT: note_on channel=9 note=39 velocity=0 time=0.004166656249999999
EXTRACT: note_on channel=9 note=85 velocity=0 time=0.006944427083333333
EXTRACT: note_on channel=9 note=28 velocity=0 time=0
EXTRACT: note_on channel=2 note=58 velocity=0 time=0.009722197916666666
EXTRACT: note_on channel=9 note=85 velocity=127 time=0
EXTRACT: note_on channel=9 note=85 velocity=0 time=0.03194436458333333
EXTRACT: control_change channel=15 control=11 value=127 time=0.083333125
EXTRACT: note_on channel=11 note=61 velocity=0 time=0.009722197916666666
EXTRACT: control_change channel=15 control=11 value=123 time=0.03194436458333333
EXTRACT: control_change channel=15 control=11 value=118 time=0.0416665625
EXTRACT: note_on channel=3 note=70 velocity=0 time=0.015277739583333332
EXTRACT: control_change channel=15 control=11 value=114 time=0.026388822916666665
EXTRACT: note_on channel=15 note=58 velocity=0 time=0.029166593749999997
EXTRACT: note_on channel=8 note=61 velocity=0 time=0.004166656249999999
EXTRACT: note_on channel=3 note=71 velocity=111 time=0
EXTRACT: note_on channel=8 note=59 velocity=71 time=0.004166656249999999
EXTRACT: note_on channel=1 note=34 velocity=121 time=0.004166656249999999
EXTRACT: note_on channel=2 note=58 velocity=65 time=0
EXTRACT: note_on channel=9 note=46 velocity=49 time=0
EXTRACT: note_on channel=9 note=54 velocity=39 time=0
EXTRACT: note_on channel=9 note=35 velocity=111 time=0
EXTRACT: note_on channel=11 note=61 velocity=65 time=0
EXTRACT: note_on channel=15 note=58 velocity=68 time=0
EXTRACT: control_change channel=15 control=11 value=110 time=0
EXTRACT: note_on channel=9 note=46 velocity=0 time=0.030555479166666663
EXTRACT: note_on channel=9 note=54 velocity=0 time=0
EXTRACT: note_on channel=9 note=35 velocity=0 time=0
EXTRACT: control_change channel=15 control=11 value=106 time=0.011111083333333332
EXTRACT: note_on channel=2 note=58 velocity=0 time=0.002777770833333333
EXTRACT: control_change channel=15 control=11 value=103 time=0.038888791666666665
EXTRACT: control_change channel=15 control=11 value=98 time=0.0416665625
EXTRACT: note_on channel=8 note=66 velocity=0 time=0.02777770833333333
EXTRACT: control_change channel=15 control=11 value=94 time=0.013888854166666666
EXTRACT: note_on channel=15 note=66 velocity=0 time=0.0416665625
EXTRACT: control_change channel=15 control=11 value=91 time=0.006944427083333333
EXTRACT: note_on channel=3 note=71 velocity=0 time=0.012499968749999998
EXTRACT: note_on channel=13 note=61 velocity=0 time=0.022222166666666664
EXTRACT: note_on channel=13 note=71 velocity=43 time=0.029166593749999997
EXTRACT: note_on channel=13 note=70 velocity=0 time=0.006944427083333333
EXTRACT: note_on channel=11 note=54 velocity=0 time=0
EXTRACT: control_change channel=2 control=64 value=0 time=0.026388822916666665
EXTRACT: note_on channel=1 note=34 velocity=0 time=0.009722197916666666
EXTRACT: note_on channel=11 note=61 velocity=0 time=0
EXTRACT: note_on channel=15 note=58 velocity=0 time=0.002777770833333333
EXTRACT: note_on channel=3 note=70 velocity=110 time=0
EXTRACT: note_on channel=8 note=66 velocity=69 time=0
EXTRACT: note_on channel=1 note=35 velocity=120 time=0.004166656249999999
EXTRACT: note_on channel=9 note=46 velocity=71 time=0
EXTRACT: note_on channel=9 note=35 velocity=121 time=0
EXTRACT: note_on channel=9 note=54 velocity=50 time=0
EXTRACT: note_on channel=11 note=59 velocity=73 time=0
EXTRACT: note_on channel=13 note=63 velocity=41 time=0
EXTRACT: control_change channel=15 control=11 value=127 time=0
EXTRACT: note_on channel=2 note=47 velocity=69 time=0.004166656249999999
EXTRACT: note_on channel=15 note=47 velocity=71 time=0
EXTRACT: note_on channel=15 note=54 velocity=70 time=0
EXTRACT: control_change channel=2 control=64 value=100 time=0.005555541666666666
EXTRACT: note_on channel=9 note=46 velocity=0 time=0.02083328125
EXTRACT: note_on channel=9 note=35 velocity=0 time=0
EXTRACT: note_on channel=9 note=54 velocity=0 time=0
EXTRACT: note_on channel=2 note=47 velocity=0 time=0.1569440520833333
EXTRACT: note_on channel=8 note=59 velocity=0 time=0.07222204166666665
EXTRACT: note_on channel=3 note=70 velocity=0 time=0
EXTRACT: note_on channel=11 note=59 velocity=0 time=0.05138876041666666
EXTRACT: note_on channel=8 note=59 velocity=62 time=0.016666624999999997
EXTRACT: note_on channel=15 note=47 velocity=0 time=0.0013888854166666665
EXTRACT: note_on channel=15 note=54 velocity=0 time=0
EXTRACT: note_on channel=11 note=61 velocity=73 time=0.002777770833333333
EXTRACT: note_on channel=9 note=46 velocity=46 time=0.0013888854166666665
EXTRACT: note_on channel=9 note=54 velocity=36 time=0
EXTRACT: note_on channel=2 note=51 velocity=47 time=0.006944427083333333
EXTRACT: note_on channel=15 note=51 velocity=51 time=0
EXTRACT: note_on channel=3 note=68 velocity=110 time=0
EXTRACT: note_on channel=9 note=46 velocity=0 time=0.013888854166666666
EXTRACT: note_on channel=9 note=54 velocity=0 time=0
EXTRACT: note_on channel=2 note=51 velocity=0 time=0.02083328125
EXTRACT: note_on channel=3 note=68 velocity=0 time=0.19861061458333332
EXTRACT: note_on channel=8 note=66 velocity=0 time=0.009722197916666666
EXTRACT: note_on channel=15 note=51 velocity=0 time=0.058333187499999994
EXTRACT: note_on channel=8 note=66 velocity=70 time=0.011111083333333332
EXTRACT: note_on channel=2 note=54 velocity=70 time=0.0013888854166666665
EXTRACT: note_on channel=15 note=54 velocity=72 time=0
EXTRACT: note_on channel=11 note=61 velocity=0 time=0.002777770833333333
EXTRACT: note_on channel=9 note=46 velocity=70 time=0
EXTRACT: note_on channel=9 note=54 velocity=51 time=0
EXTRACT: note_on channel=11 note=59 velocity=75 time=0
EXTRACT: note_on channel=9 note=39 velocity=115 time=0.002777770833333333
EXTRACT: note_on channel=2 note=59 velocity=78 time=0.002777770833333333
EXTRACT: note_on channel=15 note=59 velocity=83 time=0
EXTRACT: note_on channel=9 note=85 velocity=72 time=0.004166656249999999
EXTRACT: note_on channel=9 note=28 velocity=73 time=0
EXTRACT: note_on channel=3 note=66 velocity=111 time=0
EXTRACT: note_on channel=2 note=59 velocity=0 time=0.004166656249999999
EXTRACT: note_on channel=2 note=54 velocity=0 time=0.009722197916666666
EXTRACT: note_on channel=9 note=46 velocity=0 time=0
EXTRACT: note_on channel=9 note=54 velocity=0 time=0
EXTRACT: note_on channel=9 note=39 velocity=0 time=0.004166656249999999
EXTRACT: note_on channel=1 note=35 velocity=0 time=0.006944427083333333
EXTRACT: note_on channel=9 note=85 velocity=0 time=0
EXTRACT: note_on channel=9 note=28 velocity=0 time=0
EXTRACT: note_on channel=9 note=85 velocity=126 time=0.009722197916666666
EXTRACT: note_on channel=9 note=85 velocity=0 time=0.03194436458333333
EXTRACT: control_change channel=15 control=11 value=126 time=0.05555541666666666
EXTRACT: control_change channel=15 control=11 value=122 time=0.0416665625
EXTRACT: control_change channel=15 control=11 value=119 time=0.0416665625
EXTRACT: note_on channel=8 note=59 velocity=0 time=0.006944427083333333
EXTRACT: note_on channel=15 note=54 velocity=0 time=0.009722197916666666
EXTRACT: control_change channel=15 control=11 value=114 time=0.024999937499999996
EXTRACT: note_on channel=3 note=66 velocity=0 time=0.016666624999999997
EXTRACT: control_change channel=15 control=11 value=110 time=0.024999937499999996
EXTRACT: note_on channel=8 note=59 velocity=70 time=0.02361105208333333
EXTRACT: note_on channel=9 note=54 velocity=34 time=0.002777770833333333
EXTRACT: note_on channel=1 note=35 velocity=109 time=0.0013888854166666665
EXTRACT: note_on channel=2 note=54 velocity=66 time=0
EXTRACT: note_on channel=9 note=46 velocity=55 time=0
EXTRACT: note_on channel=9 note=35 velocity=113 time=0
EXTRACT: note_on channel=15 note=54 velocity=69 time=0
EXTRACT: note_on channel=3 note=68 velocity=111 time=0
EXTRACT: note_on channel=11 note=54 velocity=49 time=0.004166656249999999
EXTRACT: control_change channel=15 control=11 value=107 time=0.008333312499999999
EXTRACT: note_on channel=9 note=54 velocity=0 time=0.016666624999999997
EXTRACT: note_on channel=9 note=46 velocity=0 time=0
EXTRACT: note_on channel=9 note=35 velocity=0 time=0
EXTRACT: note_on channel=2 note=54 velocity=0 time=0.002777770833333333
EXTRACT: control_change channel=15 control=11 value=103 time=0.022222166666666664
EXTRACT: control_change channel=15 control=11 value=98 time=0.0416665625
EXTRACT: control_change channel=15 control=11 value=95 time=0.0416665625
EXTRACT: note_on channel=1 note=35 velocity=0 time=0.016666624999999997
EXTRACT: note_on channel=13 note=66 velocity=0 time=0
EXTRACT: note_on channel=3 note=68 velocity=0 time=0.03194436458333333
EXTRACT: control_change channel=15 control=11 value=91 time=0
EXTRACT: note_on channel=15 note=59 velocity=0 time=0.02083328125
EXTRACT: note_on channel=11 note=59 velocity=0 time=0.09166643749999999
EXTRACT: control_change channel=15 control=11 value=126 time=0.005555541666666666
EXTRACT: note_on channel=13 note=63 velocity=0 time=0.005555541666666666
EXTRACT: note_on channel=8 note=59 velocity=0 time=0.0013888854166666665
EXTRACT: control_change channel=2 control=64 value=0 time=0
EXTRACT: note_on channel=13 note=71 velocity=0 time=0
EXTRACT: note_on channel=11 note=54 velocity=0 time=0.005555541666666666
EXTRACT: note_on channel=8 note=66 velocity=0 time=0.015277739583333332
EXTRACT: note_on channel=1 note=30 velocity=123 time=0
EXTRACT: note_on channel=3 note=70 velocity=110 time=0
EXTRACT: note_on channel=8 note=61 velocity=68 time=0
EXTRACT: note_on channel=9 note=46 velocity=72 time=0
EXTRACT: note_on channel=9 note=54 velocity=51 time=0
EXTRACT: note_on channel=9 note=35 velocity=124 time=0
EXTRACT: note_on channel=13 note=61 velocity=39 time=0
EXTRACT: note_on channel=13 note=66 velocity=45 time=0
EXTRACT: note_on channel=13 note=70 velocity=41 time=0
EXTRACT: note_on channel=2 note=42 velocity=60 time=0.004166656249999999
EXTRACT: note_on channel=15 note=42 velocity=62 time=0
EXTRACT: note_on channel=11 note=54 velocity=67 time=0.0013888854166666665
EXTRACT: note_on channel=9 note=46 velocity=0 time=0.024999937499999996
EXTRACT: note_on channel=9 note=54 velocity=0 time=0
EXTRACT: note_on channel=9 note=35 velocity=0 time=0
EXTRACT: control_change channel=2 control=64 value=100 time=0
EXTRACT: note_on channel=2 note=42 velocity=0 time=0.12499968749999998
EXTRACT: note_on channel=3 note=70 velocity=0 time=0.0749998125
EXTRACT: note_on channel=15 note=54 velocity=0 time=0.019444395833333333
EXTRACT: note_on channel=15 note=42 velocity=0 time=0.06805538541666666
EXTRACT: note_on channel=3 note=70 velocity=110 time=0
EXTRACT: note_on channel=8 note=66 velocity=75 time=0.005555541666666666
EXTRACT: note_on channel=2 note=49 velocity=47 time=0.0013888854166666665
EXTRACT: note_on channel=15 note=49 velocity=49 time=0
EXTRACT: note_on channel=9 note=46 velocity=52 time=0.002777770833333333
EXTRACT: note_on channel=9 note=54 velocity=32 time=0
EXTRACT: note_on channel=11 note=58 velocity=75 time=0.006944427083333333
EXTRACT: note_on channel=2 note=49 velocity=0 time=0.002777770833333333
EXTRACT: note_on channel=9 note=46 velocity=0 time=0.02083328125
EXTRACT: note_on channel=9 note=54 velocity=0 time=0
EXTRACT: note_on channel=8 note=61 velocity=0 time=0.12083303124999999
EXTRACT: note_on channel=3 note=70 velocity=0 time=0.06666649999999999
EXTRACT: note_on channel=11 note=54 velocity=0 time=0.07361092708333332
EXTRACT: note_on channel=8 note=61 velocity=70 time=0.03749990625
EXTRACT: note_on channel=9 note=46 velocity=76 time=0.004166656249999999
EXTRACT: note_on channel=9 note=54 velocity=51 time=0
EXTRACT: note_on channel=11 note=54 velocity=69 time=0.0013888854166666665
EXTRACT: note_on channel=9 note=39 velocity=114 time=0.0013888854166666665
EXTRACT: note_on channel=15 note=49 velocity=0 time=0.0013888854166666665
EXTRACT: note_on channel=9 note=85 velocity=78 time=0.005555541666666666
EXTRACT: note_on channel=9 note=28 velocity=73 time=0
EXTRACT: note_on channel=2 note=58 velocity=78 time=0
EXTRACT: note_on channel=3 note=70 velocity=111 time=0
EXTRACT: note_on channel=15 note=58 velocity=83 time=0
EXTRACT: note_on channel=2 note=54 velocity=64 time=0.002777770833333333
EXTRACT: note_on channel=15 note=54 velocity=69 time=0
EXTRACT: note_on channel=9 note=46 velocity=0 time=0.012499968749999998
EXTRACT: note_on channel=9 note=54 velocity=0 time=0.0013888854166666665
EXTRACT: note_on channel=9 note=39 velocity=0 time=0.002777770833333333
EXTRACT: note_on channel=9 note=85 velocity=0 time=0.006944427083333333
EXTRACT: note_on channel=9 note=28 velocity=0 time=0
EXTRACT: note_on channel=2 note=54 velocity=0 time=0.009722197916666666
EXTRACT: note_on channel=9 note=85 velocity=127 time=0
EXTRACT: note_on channel=2 note=58 velocity=0 time=0.03194436458333333
EXTRACT: note_on channel=9 note=85 velocity=0 time=0
EXTRACT: note_on channel=1 note=30 velocity=0 time=0.030555479166666663
EXTRACT: control_change channel=15 control=11 value=127 time=0.03194436458333333
EXTRACT: control_change channel=15 control=11 value=123 time=0.0416665625
EXTRACT: note_on channel=3 note=70 velocity=0 time=0.030555479166666663
EXTRACT: control_change channel=15 control=11 value=119 time=0.011111083333333332
EXTRACT: note_on channel=15 note=58 velocity=0 time=0.002777770833333333
EXTRACT: note_on channel=8 note=66 velocity=0 time=0.002777770833333333
EXTRACT: control_change channel=15 control=11 value=115 time=0.03611102083333333
EXTRACT: note_on channel=11 note=54 velocity=0 time=0.02361105208333333
EXTRACT: note_on channel=11 note=58 velocity=0 time=0.006944427083333333
EXTRACT: control_change channel=15 control=11 value=111 time=0.011111083333333332
EXTRACT: note_on channel=15 note=54 velocity=0 time=0.008333312499999999
EXTRACT: note_on channel=1 note=30 velocity=86 time=0.012499968749999998
EXTRACT: note_on channel=2 note=54 velocity=55 time=0
EXTRACT: note_on channel=8 note=65 velocity=70 time=0
EXTRACT: note_on channel=9 note=46 velocity=56 time=0
EXTRACT: note_on channel=9 note=35 velocity=113 time=0
EXTRACT: note_on channel=9 note=54 velocity=36 time=0
EXTRACT: note_on channel=15 note=54 velocity=57 time=0
EXTRACT: note_on channel=11 note=61 velocity=69 time=0.0013888854166666665
EXTRACT: note_on channel=3 note=71 velocity=110 time=0
EXTRACT: control_change channel=15 control=11 value=107 time=0.013888854166666666
EXTRACT: note_on channel=9 note=46 velocity=0 time=0.009722197916666666
EXTRACT: note_on channel=9 note=35 velocity=0 time=0
EXTRACT: note_on channel=9 note=54 velocity=0 time=0
EXTRACT: note_on channel=2 note=54 velocity=0 time=0.002777770833333333
EXTRACT: control_change channel=15 control=11 value=103 time=0.029166593749999997
EXTRACT: control_change channel=15 control=11 value=99 time=0.0416665625
EXTRACT: control_change channel=15 control=11 value=95 time=0.0416665625
EXTRACT: note_on channel=1 note=30 velocity=0 time=0.009722197916666666
EXTRACT: control_change channel=15 control=11 value=91 time=0.038888791666666665
EXTRACT: note_on channel=3 note=71 velocity=0 time=0.002777770833333333
EXTRACT: control_change channel=2 control=64 value=0 time=0.10416640625
EXTRACT: note_on channel=10 note=66 velocity=0 time=0.006944427083333333
EXTRACT: control_change channel=15 control=11 value=127 time=0.004166656249999999
EXTRACT: note_on channel=15 note=54 velocity=0 time=0.008333312499999999
EXTRACT: note_on channel=13 note=70 velocity=0 time=0.0013888854166666665
EXTRACT: note_on channel=11 note=49 velocity=69 time=0.004166656249999999
EXTRACT: note_on channel=1 note=25 velocity=123 time=0.006944427083333333
EXTRACT: note_on channel=2 note=49 velocity=61 time=0
EXTRACT: note_on channel=9 note=46 velocity=76 time=0
EXTRACT: note_on channel=9 note=35 velocity=121 time=0
EXTRACT: note_on channel=9 note=54 velocity=52 time=0
EXTRACT: note_on channel=10 note=65 velocity=75 time=0
EXTRACT: note_on channel=13 note=65 velocity=49 time=0
EXTRACT: note_on channel=13 note=68 velocity=39 time=0
EXTRACT: note_on channel=15 note=49 velocity=63 time=0
EXTRACT: note_on channel=10 note=78 velocity=0 time=0.002777770833333333
EXTRACT: note_on channel=13 note=66 velocity=0 time=0.009722197916666666
EXTRACT: note_on channel=2 note=56 velocity=54 time=0.008333312499999999
EXTRACT: note_on channel=15 note=56 velocity=57 time=0
EXTRACT: control_change channel=2 control=64 value=100 time=0
EXTRACT: note_on channel=10 note=77 velocity=73 time=0.008333312499999999
EXTRACT: note_on channel=9 note=46 velocity=0 time=0.0013888854166666665
EXTRACT: note_on channel=9 note=35 velocity=0 time=0
EXTRACT: note_on channel=9 note=54 velocity=0 time=0.0013888854166666665
EXTRACT: note_on channel=2 note=56 velocity=0 time=0.022222166666666664
EXTRACT: note_on channel=15 note=56 velocity=0 time=0.11527748958333332
EXTRACT: note_on channel=2 note=49 velocity=0 time=0.013888854166666666
EXTRACT: note_on channel=8 note=61 velocity=0 time=0.05555541666666666
EXTRACT: note_on channel=15 note=49 velocity=0 time=0.006944427083333333
EXTRACT: note_on channel=2 note=56 velocity=54 time=0.07638869791666666
EXTRACT: note_on channel=15 note=56 velocity=57 time=0
EXTRACT: note_on channel=8 note=61 velocity=71 time=0.011111083333333332
EXTRACT: note_on channel=9 note=46 velocity=56 time=0
EXTRACT: note_on channel=9 note=54 velocity=43 time=0
EXTRACT: note_on channel=2 note=49 velocity=47 time=0.006944427083333333
EXTRACT: note_on channel=15 note=49 velocity=49 time=0
EXTRACT: note_on channel=3 note=73 velocity=110 time=0
EXTRACT: note_on channel=2 note=56 velocity=0 time=0.005555541666666666
EXTRACT: note_on channel=9 note=46 velocity=0 time=0.006944427083333333
EXTRACT: note_on channel=9 note=54 velocity=0 time=0
EXTRACT: note_on channel=2 note=49 velocity=0 time=0.02083328125
EXTRACT: note_on channel=8 note=65 velocity=0 time=0.10416640625
EXTRACT: note_on channel=3 note=73 velocity=0 time=0.02083328125
EXTRACT: note_on channel=3 note=70 velocity=111 time=0
EXTRACT: note_on channel=15 note=56 velocity=0 time=0.002777770833333333
EXTRACT: note_on channel=11 note=61 velocity=0 time=0.05277764583333333
EXTRACT: note_on channel=11 note=49 velocity=0 time=0.07083315624999999
EXTRACT: note_on channel=9 note=46 velocity=77 time=0.026388822916666665
EXTRACT: note_on channel=9 note=54 velocity=53 time=0
EXTRACT: note_on channel=9 note=39 velocity=112 time=0.002777770833333333
EXTRACT: note_on channel=11 note=56 velocity=79 time=0
EXTRACT: note_on channel=9 note=85 velocity=73 time=0.006944427083333333
EXTRACT: note_on channel=9 note=28 velocity=69 time=0
EXTRACT: note_on channel=8 note=65 velocity=89 time=0.0013888854166666665
EXTRACT: note_on channel=3 note=70 velocity=0 time=0
EXTRACT: note_on channel=2 note=56 velocity=84 time=0.004166656249999999
EXTRACT: note_on channel=15 note=56 velocity=89 time=0
EXTRACT: note_on channel=9 note=46 velocity=0 time=0.015277739583333332
EXTRACT: note_on channel=9 note=54 velocity=0 time=0.0013888854166666665
EXTRACT: note_on channel=9 note=39 velocity=0 time=0.002777770833333333
EXTRACT: note_on channel=3 note=73 velocity=111 time=0
EXTRACT: note_on channel=9 note=85 velocity=0 time=0.002777770833333333
EXTRACT: note_on channel=9 note=28 velocity=0 time=0
EXTRACT: note_on channel=2 note=56 velocity=0 time=0
EXTRACT: note_on channel=9 note=85 velocity=127 time=0.009722197916666666
EXTRACT: note_on channel=1 note=25 velocity=0 time=0.02083328125
EXTRACT: note_on channel=9 note=85 velocity=0 time=0.011111083333333332
EXTRACT: note_on channel=15 note=49 velocity=0 time=0.030555479166666663
EXTRACT: control_change channel=15 control=11 value=127 time=0.004166656249999999
EXTRACT: note_on channel=8 note=65 velocity=0 time=0.02777770833333333
EXTRACT: control_change channel=15 control=11 value=123 time=0.013888854166666666
EXTRACT: note_on channel=8 note=66 velocity=66 time=0.005555541666666666
EXTRACT: control_change channel=15 control=11 value=119 time=0.03611102083333333
EXTRACT: note_on channel=8 note=61 velocity=0 time=0.03749990625
EXTRACT: control_change channel=15 control=11 value=115 time=0.004166656249999999
EXTRACT: control_change channel=15 control=11 value=111 time=0.0416665625
EXTRACT: note_on channel=3 note=73 velocity=0 time=0.006944427083333333
EXTRACT: note_on channel=3 note=70 velocity=110 time=0.009722197916666666
EXTRACT: note_on channel=15 note=56 velocity=0 time=0.02361105208333333
EXTRACT: control_change channel=15 control=11 value=107 time=0.0013888854166666665
EXTRACT: note_on channel=1 note=25 velocity=107 time=0.006944427083333333
EXTRACT: note_on channel=9 note=46 velocity=59 time=0
EXTRACT: note_on channel=9 note=35 velocity=115 time=0
EXTRACT: note_on channel=9 note=54 velocity=43 time=0
EXTRACT: note_on channel=2 note=49 velocity=42 time=0.004166656249999999
EXTRACT: note_on channel=15 note=49 velocity=45 time=0
EXTRACT: note_on channel=2 note=53 velocity=65 time=0.002777770833333333
EXTRACT: note_on channel=8 note=61 velocity=86 time=0
EXTRACT: note_on channel=15 note=53 velocity=69 time=0
EXTRACT: note_on channel=2 note=53 velocity=0 time=0.0013888854166666665
EXTRACT: note_on channel=9 note=46 velocity=0 time=0.022222166666666664
EXTRACT: note_on channel=9 note=35 velocity=0 time=0
EXTRACT: note_on channel=9 note=54 velocity=0 time=0
EXTRACT: control_change channel=15 control=11 value=103 time=0.004166656249999999
EXTRACT: note_on channel=2 note=49 velocity=0 time=0.016666624999999997
EXTRACT: note_on channel=3 note=70 velocity=0 time=0.02083328125
EXTRACT: control_change channel=15 control=11 value=99 time=0.004166656249999999
EXTRACT: note_on channel=3 note=68 velocity=111 time=0.013888854166666666
EXTRACT: control_change channel=15 control=11 value=95 time=0.02777770833333333
EXTRACT: note_on channel=13 note=61 velocity=0 time=0.03749990625
EXTRACT: note_on channel=1 note=25 velocity=0 time=0
EXTRACT: control_change channel=15 control=11 value=91 time=0.011111083333333332
EXTRACT: note_on channel=15 note=49 velocity=0 time=0.030555479166666663
EXTRACT: note_on channel=3 note=68 velocity=0 time=0.011111083333333332
EXTRACT: note_on channel=3 note=66 velocity=111 time=0.002777770833333333
EXTRACT: control_change channel=2 control=64 value=0 time=0.06944427083333332
EXTRACT: note_on channel=11 note=56 velocity=0 time=0.011111083333333332
EXTRACT: note_on channel=8 note=66 velocity=0 time=0.015277739583333332
EXTRACT: note_on channel=10 note=65 velocity=0 time=0.015277739583333332
EXTRACT: note_on channel=13 note=68 velocity=0 time=0
EXTRACT: note_on channel=3 note=66 velocity=0 time=0
EXTRACT: note_on channel=10 note=77 velocity=0 time=0
EXTRACT: note_on channel=15 note=53 velocity=0 time=0.002777770833333333
EXTRACT: control_change channel=15 control=11 value=127 time=0.0013888854166666665
EXTRACT: note_on channel=9 note=54 velocity=49 time=0.005555541666666666
EXTRACT: note_on channel=1 note=27 velocity=119 time=0.0013888854166666665
EXTRACT: note_on channel=8 note=58 velocity=51 time=0
EXTRACT: note_on channel=9 note=46 velocity=73 time=0
EXTRACT: note_on channel=9 note=35 velocity=121 time=0
EXTRACT: note_on channel=10 note=66 velocity=75 time=0
EXTRACT: note_on channel=11 note=51 velocity=67 time=0
EXTRACT: note_on channel=13 note=61 velocity=23 time=0
EXTRACT: note_on channel=2 note=39 velocity=57 time=0.004166656249999999
EXTRACT: note_on channel=15 note=39 velocity=61 time=0
EXTRACT: note_on channel=15 note=51 velocity=69 time=0.002777770833333333
EXTRACT: note_on channel=13 note=65 velocity=0 time=0.005555541666666666
EXTRACT: note_on channel=13 note=66 velocity=37 time=0.0013888854166666665
EXTRACT: note_on channel=3 note=63 velocity=110 time=0.005555541666666666
EXTRACT: note_on channel=13 note=70 velocity=47 time=0.0013888854166666665
EXTRACT: control_change channel=2 control=64 value=100 time=0
EXTRACT: note_on channel=10 note=78 velocity=73 time=0.008333312499999999
EXTRACT: note_on channel=9 note=54 velocity=0 time=0.0013888854166666665
EXTRACT: note_on channel=9 note=46 velocity=0 time=0
EXTRACT: note_on channel=9 note=35 velocity=0 time=0
EXTRACT: note_on channel=3 note=63 velocity=0 time=0.07361092708333332
EXTRACT: note_on channel=3 note=61 velocity=111 time=0.006944427083333333
EXTRACT: note_on channel=2 note=39 velocity=0 time=0.04444433333333333
EXTRACT: note_on channel=3 note=61 velocity=0 time=0.05277764583333333
EXTRACT: note_on channel=3 note=63 velocity=111 time=0.013888854166666666
EXTRACT: note_on channel=8 note=61 velocity=0 time=0.09027755208333332
EXTRACT: note_on channel=15 note=51 velocity=0 time=0.012499968749999998
EXTRACT: note_on channel=9 note=46 velocity=61 time=0.008333312499999999
EXTRACT: note_on channel=9 note=54 velocity=35 time=0
EXTRACT: note_on channel=11 note=61 velocity=63 time=0
EXTRACT: note_on channel=3 note=63 velocity=0 time=0
EXTRACT: note_on channel=8 note=66 velocity=74 time=0.004166656249999999
EXTRACT: note_on channel=2 note=54 velocity=48 time=0.002777770833333333
EXTRACT: note_on channel=15 note=54 velocity=51 time=0
EXTRACT: note_on channel=3 note=66 velocity=111 time=0.002777770833333333
EXTRACT: note_on channel=2 note=54 velocity=0 time=0.011111083333333332
EXTRACT: note_on channel=9 note=46 velocity=0 time=0.009722197916666666
EXTRACT: note_on channel=9 note=54 velocity=0 time=0
EXTRACT: note_on channel=8 note=58 velocity=0 time=0.21944389583333332
EXTRACT: note_on channel=15 note=39 velocity=0 time=0.030555479166666663
EXTRACT: note_on channel=11 note=51 velocity=0 time=0.0416665625
EXTRACT: note_on channel=15 note=54 velocity=0 time=0.006944427083333333
EXTRACT: note_on channel=3 note=66 velocity=0 time=0
EXTRACT: note_on channel=8 note=61 velocity=70 time=0
EXTRACT: note_on channel=9 note=46 velocity=73 time=0.004166656249999999
EXTRACT: note_on channel=9 note=54 velocity=49 time=0
EXTRACT: note_on channel=11 note=54 velocity=73 time=0
EXTRACT: note_on channel=9 note=39 velocity=117 time=0.002777770833333333
EXTRACT: note_on channel=2 note=58 velocity=65 time=0.004166656249999999
EXTRACT: note_on channel=15 note=58 velocity=69 time=0
EXTRACT: note_on channel=9 note=85 velocity=79 time=0.002777770833333333
EXTRACT: note_on channel=9 note=28 velocity=75 time=0
EXTRACT: note_on channel=2 note=61 velocity=85 time=0.016666624999999997
EXTRACT: note_on channel=15 note=61 velocity=87 time=0
EXTRACT: note_on channel=9 note=46 velocity=0 time=0.004166656249999999
EXTRACT: note_on channel=9 note=54 velocity=0 time=0
EXTRACT: note_on channel=9 note=39 velocity=0 time=0.004166656249999999
EXTRACT: note_on channel=9 note=85 velocity=0 time=0.006944427083333333
EXTRACT: note_on channel=9 note=28 velocity=0 time=0
EXTRACT: note_on channel=2 note=61 velocity=0 time=0
EXTRACT: note_on channel=2 note=58 velocity=0 time=0.009722197916666666
EXTRACT: note_on channel=9 note=85 velocity=127 time=0
EXTRACT: note_on channel=1 note=27 velocity=0 time=0.02083328125
EXTRACT: note_on channel=9 note=85 velocity=0 time=0.011111083333333332
EXTRACT: pitchwheel channel=3 pitch=-8096 time=0.05972207291666666
EXTRACT: note_on channel=3 note=70 velocity=111 time=0.02361105208333333
EXTRACT: control_change channel=15 control=11 value=126 time=0
EXTRACT: note_on channel=11 note=61 velocity=0 time=0.009722197916666666
EXTRACT: control_change channel=15 control=11 value=123 time=0.03194436458333333
EXTRACT: pitchwheel channel=3 pitch=-7117 time=0.019444395833333333
EXTRACT: pitchwheel channel=3 pitch=-6786 time=0.012499968749999998
EXTRACT: control_change channel=15 control=11 value=118 time=0.009722197916666666
EXTRACT: pitchwheel channel=3 pitch=-6124 time=0.005555541666666666
EXTRACT: pitchwheel channel=3 pitch=-5379 time=0.013888854166666666
EXTRACT: pitchwheel channel=3 pitch=-4800 time=0.013888854166666666
EXTRACT: control_change channel=15 control=11 value=114 time=0.008333312499999999
EXTRACT: pitchwheel channel=3 pitch=-4100 time=0.005555541666666666
EXTRACT: pitchwheel channel=3 pitch=-2686 time=0.015277739583333332
EXTRACT: note_on channel=8 note=61 velocity=0 time=0.012499968749999998
EXTRACT: pitchwheel channel=3 pitch=-1904 time=0
EXTRACT: note_on channel=8 note=59 velocity=71 time=0.004166656249999999
EXTRACT: note_on channel=1 note=34 velocity=121 time=0.004166656249999999
EXTRACT: note_on channel=9 note=46 velocity=49 time=0
EXTRACT: note_on channel=9 note=54 velocity=39 time=0
EXTRACT: note_on channel=9 note=35 velocity=113 time=0
EXTRACT: note_on channel=11 note=61 velocity=53 time=0
EXTRACT: control_change channel=15 control=11 value=111 time=0
EXTRACT: pitchwheel channel=3 pitch=-828 time=0.006944427083333333
EXTRACT: note_on channel=15 note=58 velocity=0 time=0.009722197916666666
EXTRACT: note_on channel=2 note=54 velocity=64 time=0.0013888854166666665
EXTRACT: note_on channel=15 note=54 velocity=69 time=0
EXTRACT: pitchwheel channel=3 pitch=128 time=0.002777770833333333
EXTRACT: note_on channel=9 note=46 velocity=0 time=0.009722197916666666
EXTRACT: note_on channel=9 note=54 velocity=0 time=0
EXTRACT: note_on channel=9 note=35 velocity=0 time=0
EXTRACT: control_change channel=15 control=11 value=106 time=0.011111083333333332
EXTRACT: note_on channel=2 note=54 velocity=0 time=0.02083328125
EXTRACT: control_change channel=15 control=11 value=103 time=0.02083328125
EXTRACT: control_change channel=15 control=11 value=98 time=0.0416665625
EXTRACT: note_on channel=3 note=70 velocity=0 time=0.02083328125
EXTRACT: note_on channel=8 note=66 velocity=0 time=0.006944427083333333
EXTRACT: note_on channel=1 note=34 velocity=0 time=0.002777770833333333
EXTRACT: pitchwheel channel=3 pitch=-3863 time=0.005555541666666666
EXTRACT: control_change channel=15 control=11 value=95 time=0.005555541666666666
EXTRACT: note_on channel=3 note=70 velocity=111 time=0.009722197916666666
EXTRACT: note_on channel=15 note=61 velocity=0 time=0.02777770833333333
EXTRACT: pitchwheel channel=3 pitch=-2822 time=0.011111083333333332
EXTRACT: control_change channel=15 control=11 value=90 time=0
EXTRACT: pitchwheel channel=3 pitch=-2429 time=0.015277739583333332
EXTRACT: pitchwheel channel=3 pitch=-1630 time=0.018055510416666663
EXTRACT: note_on channel=13 note=61 velocity=0 time=0.0013888854166666665
EXTRACT: pitchwheel channel=3 pitch=-1147 time=0.011111083333333332
EXTRACT: note_on channel=15 note=54 velocity=0 time=0.005555541666666666
EXTRACT: pitchwheel channel=3 pitch=-259 time=0.006944427083333333
EXTRACT: note_on channel=13 note=71 velocity=47 time=0.005555541666666666
EXTRACT: note_on channel=13 note=70 velocity=0 time=0.006944427083333333
EXTRACT: note_on channel=11 note=54 velocity=0 time=0
EXTRACT: pitchwheel channel=3 pitch=147 time=0.0013888854166666665
EXTRACT: control_change channel=2 control=64 value=0 time=0.024999937499999996
EXTRACT: note_on channel=10 note=66 velocity=0 time=0.009722197916666666
EXTRACT: note_on channel=11 note=61 velocity=0 time=0
EXTRACT: note_on channel=3 note=70 velocity=0 time=0
EXTRACT: note_on channel=10 note=78 velocity=0 time=0
EXTRACT: note_on channel=8 note=66 velocity=69 time=0.006944427083333333
EXTRACT: note_on channel=1 note=35 velocity=121 time=0.004166656249999999
EXTRACT: note_on channel=9 note=46 velocity=71 time=0
EXTRACT: note_on channel=9 note=35 velocity=120 time=0
EXTRACT: note_on channel=9 note=54 velocity=51 time=0
EXTRACT: note_on channel=10 note=63 velocity=75 time=0
EXTRACT: note_on channel=11 note=59 velocity=73 time=0
EXTRACT: note_on channel=13 note=63 velocity=45 time=0
EXTRACT: control_change channel=15 control=11 value=126 time=0
EXTRACT: note_on channel=2 note=47 velocity=69 time=0.004166656249999999
EXTRACT: note_on channel=15 note=47 velocity=71 time=0
EXTRACT: control_change channel=2 control=64 value=100 time=0.005555541666666666
EXTRACT: note_on channel=3 note=68 velocity=111 time=0.0013888854166666665
EXTRACT: note_on channel=2 note=59 velocity=65 time=0.006944427083333333
EXTRACT: note_on channel=15 note=59 velocity=69 time=0
EXTRACT: note_on channel=10 note=75 velocity=73 time=0.011111083333333332
EXTRACT: note_on channel=9 note=46 velocity=0 time=0.0013888854166666665
EXTRACT: note_on channel=9 note=35 velocity=0 time=0
EXTRACT: note_on channel=9 note=54 velocity=0 time=0
EXTRACT: note_on channel=2 note=59 velocity=0 time=0.03194436458333333
EXTRACT: note_on channel=3 note=68 velocity=0 time=0.09305532291666666
EXTRACT: note_on channel=3 note=66 velocity=111 time=0.018055510416666663
EXTRACT: note_on channel=2 note=47 velocity=0 time=0.013888854166666666
EXTRACT: note_on channel=8 note=59 velocity=0 time=0.07222204166666665
EXTRACT: note_on channel=11 note=59 velocity=0 time=0.05138876041666666
EXTRACT: note_on channel=8 note=59 velocity=62 time=0.016666624999999997
EXTRACT: note_on channel=15 note=59 velocity=0 time=0.0013888854166666665
EXTRACT: note_on channel=11 note=61 velocity=73 time=0.002777770833333333
EXTRACT: note_on channel=9 note=46 velocity=46 time=0.0013888854166666665
EXTRACT: note_on channel=9 note=54 velocity=37 time=0
EXTRACT: note_on channel=15 note=47 velocity=0 time=0.002777770833333333
EXTRACT: note_on channel=2 note=51 velocity=53 time=0.004166656249999999
EXTRACT: note_on channel=15 note=51 velocity=57 time=0
EXTRACT: note_on channel=2 note=54 velocity=53 time=0.02083328125
EXTRACT: note_on channel=15 note=54 velocity=57 time=0
EXTRACT: note_on channel=9 note=46 velocity=0 time=0.002777770833333333
EXTRACT: note_on channel=9 note=54 velocity=0 time=0
EXTRACT: note_on channel=2 note=51 velocity=0 time=0.02083328125
EXTRACT: note_on channel=2 note=54 velocity=0 time=0.02083328125
EXTRACT: note_on channel=15 note=54 velocity=0 time=0.16666625
EXTRACT: note_on channel=8 note=66 velocity=0 time=0.02083328125
EXTRACT: note_on channel=15 note=51 velocity=0 time=0.013888854166666666
EXTRACT: note_on channel=1 note=35 velocity=0 time=0.048610989583333326
EXTRACT: note_on channel=8 note=66 velocity=71 time=0.006944427083333333
EXTRACT: note_on channel=2 note=54 velocity=65 time=0.0013888854166666665
EXTRACT: note_on channel=15 note=54 velocity=69 time=0
EXTRACT: note_on channel=11 note=61 velocity=0 time=0.002777770833333333
EXTRACT: note_on channel=9 note=46 velocity=70 time=0
EXTRACT: note_on channel=9 note=54 velocity=51 time=0
EXTRACT: note_on channel=11 note=59 velocity=75 time=0
EXTRACT: note_on channel=9 note=39 velocity=116 time=0.002777770833333333
EXTRACT: note_on channel=2 note=59 velocity=79 time=0.002777770833333333
EXTRACT: note_on channel=15 note=59 velocity=82 time=0
EXTRACT: note_on channel=9 note=85 velocity=72 time=0.004166656249999999
EXTRACT: note_on channel=9 note=28 velocity=75 time=0
EXTRACT: note_on channel=2 note=59 velocity=0 time=0.011111083333333332
EXTRACT: note_on channel=2 note=54 velocity=0 time=0.009722197916666666
EXTRACT: note_on channel=9 note=46 velocity=0 time=0
EXTRACT: note_on channel=9 note=54 velocity=0 time=0
EXTRACT: note_on channel=9 note=39 velocity=0 time=0.004166656249999999
EXTRACT: note_on channel=9 note=85 velocity=0 time=0.006944427083333333
EXTRACT: note_on channel=9 note=28 velocity=0 time=0
EXTRACT: note_on channel=9 note=85 velocity=127 time=0.009722197916666666
EXTRACT: note_on channel=9 note=85 velocity=0 time=0.03194436458333333
EXTRACT: control_change channel=15 control=11 value=127 time=0.05555541666666666
EXTRACT: control_change channel=15 control=11 value=123 time=0.0416665625
EXTRACT: control_change channel=15 control=11 value=119 time=0.0416665625
EXTRACT: note_on channel=8 note=59 velocity=0 time=0.006944427083333333
EXTRACT: control_change channel=15 control=11 value=114 time=0.03472213541666666
EXTRACT: note_on channel=15 note=54 velocity=0 time=0.016666624999999997
EXTRACT: note_on channel=3 note=66 velocity=0 time=0.02083328125
EXTRACT: control_change channel=15 control=11 value=110 time=0.004166656249999999
EXTRACT: note_on channel=15 note=59 velocity=0 time=0.02361105208333333
EXTRACT: note_on channel=8 note=59 velocity=71 time=0
EXTRACT: note_on channel=9 note=54 velocity=34 time=0.002777770833333333
EXTRACT: note_on channel=1 note=35 velocity=121 time=0.0013888854166666665
EXTRACT: note_on channel=9 note=46 velocity=54 time=0
EXTRACT: note_on channel=9 note=35 velocity=111 time=0
EXTRACT: note_on channel=11 note=54 velocity=49 time=0.005555541666666666
EXTRACT: note_on channel=2 note=51 velocity=51 time=0.0013888854166666665
EXTRACT: note_on channel=15 note=51 velocity=53 time=0
EXTRACT: control_change channel=15 control=11 value=106 time=0.006944427083333333
EXTRACT: note_on channel=2 note=54 velocity=51 time=0.013888854166666666
EXTRACT: note_on channel=15 note=54 velocity=52 time=0
EXTRACT: note_on channel=9 note=54 velocity=0 time=0.002777770833333333
EXTRACT: note_on channel=9 note=46 velocity=0 time=0
EXTRACT: note_on channel=9 note=35 velocity=0 time=0
EXTRACT: note_on channel=2 note=51 velocity=0 time=0.011111083333333332
EXTRACT: control_change channel=15 control=11 value=102 time=0.013888854166666666
EXTRACT: note_on channel=2 note=54 velocity=0 time=0.006944427083333333
EXTRACT: control_change channel=15 control=11 value=99 time=0.03472213541666666
EXTRACT: control_change channel=15 control=11 value=94 time=0.0416665625
EXTRACT: pitchwheel channel=1 pitch=992 time=0.04444433333333333
EXTRACT: pitchwheel channel=1 pitch=2105 time=0.013888854166666666
EXTRACT: pitchwheel channel=1 pitch=3098 time=0.013888854166666666
EXTRACT: pitchwheel channel=1 pitch=4512 time=0.013888854166666666
EXTRACT: note_on channel=13 note=66 velocity=0 time=0.013888854166666666
EXTRACT: pitchwheel channel=1 pitch=5167 time=0.0013888854166666665
EXTRACT: pitchwheel channel=1 pitch=5956 time=0.013888854166666666
EXTRACT: note_on channel=15 note=51 velocity=0 time=0.005555541666666666
EXTRACT: pitchwheel channel=1 pitch=6370 time=0.008333312499999999
EXTRACT: pitchwheel channel=1 pitch=6829 time=0.02083328125
EXTRACT: pitchwheel channel=1 pitch=7981 time=0.009722197916666666
EXTRACT: note_on channel=11 note=59 velocity=0 time=0.0013888854166666665
EXTRACT: control_change channel=15 control=11 value=126 time=0.005555541666666666
EXTRACT: note_on channel=1 note=35 velocity=0 time=0.0013888854166666665
EXTRACT: note_on channel=13 note=63 velocity=0 time=0.004166656249999999
EXTRACT: note_on channel=8 note=59 velocity=0 time=0.0013888854166666665
EXTRACT: control_change channel=2 control=64 value=0 time=0
EXTRACT: note_on channel=13 note=71 velocity=0 time=0
EXTRACT: note_on channel=11 note=54 velocity=0 time=0.005555541666666666
EXTRACT: note_on channel=10 note=63 velocity=0 time=0.004166656249999999
EXTRACT: note_on channel=10 note=75 velocity=0 time=0
EXTRACT: pitchwheel channel=1 pitch=237 time=0.009722197916666666
EXTRACT: note_on channel=8 note=66 velocity=0 time=0.0013888854166666665
EXTRACT: note_on channel=1 note=42 velocity=115 time=0
EXTRACT: note_on channel=8 note=61 velocity=68 time=0
EXTRACT: note_on channel=9 note=46 velocity=72 time=0
EXTRACT: note_on channel=9 note=54 velocity=51 time=0
EXTRACT: note_on channel=9 note=35 velocity=125 time=0
EXTRACT: note_on channel=10 note=61 velocity=75 time=0
EXTRACT: note_on channel=13 note=61 velocity=45 time=0
EXTRACT: note_on channel=13 note=66 velocity=55 time=0
EXTRACT: note_on channel=13 note=70 velocity=47 time=0
EXTRACT: note_on channel=2 note=42 velocity=61 time=0.004166656249999999
EXTRACT: note_on channel=15 note=42 velocity=62 time=0
EXTRACT: note_on channel=11 note=54 velocity=67 time=0.0013888854166666665
EXTRACT: note_on channel=10 note=73 velocity=73 time=0.02361105208333333
EXTRACT: note_on channel=9 note=46 velocity=0 time=0.0013888854166666665
EXTRACT: note_on channel=9 note=54 velocity=0 time=0
EXTRACT: note_on channel=9 note=35 velocity=0 time=0
EXTRACT: control_change channel=2 control=64 value=100 time=0
EXTRACT: note_on channel=2 note=42 velocity=0 time=0.12499968749999998
EXTRACT: note_on channel=15 note=54 velocity=0 time=0.048610989583333326
EXTRACT: note_on channel=1 note=42 velocity=0 time=0.07638869791666666
EXTRACT: note_on channel=15 note=42 velocity=0 time=0.02777770833333333
EXTRACT: note_on channel=2 note=54 velocity=49 time=0.011111083333333332
EXTRACT: note_on channel=15 note=54 velocity=51 time=0
EXTRACT: note_on channel=8 note=66 velocity=75 time=0.009722197916666666
EXTRACT: note_on channel=2 note=49 velocity=49 time=0.0013888854166666665
EXTRACT: note_on channel=15 note=49 velocity=50 time=0
EXTRACT: note_on channel=2 note=54 velocity=0 time=0.002777770833333333
EXTRACT: note_on channel=1 note=42 velocity=115 time=0
EXTRACT: note_on channel=9 note=46 velocity=52 time=0
EXTRACT: note_on channel=9 note=54 velocity=32 time=0
EXTRACT: note_on channel=11 note=58 velocity=74 time=0.006944427083333333
EXTRACT: note_on channel=2 note=49 velocity=0 time=0.002777770833333333
EXTRACT: note_on channel=9 note=46 velocity=0 time=0.02083328125
EXTRACT: note_on channel=9 note=54 velocity=0 time=0
EXTRACT: note_on channel=8 note=61 velocity=0 time=0.12083303124999999
EXTRACT: note_on channel=15 note=54 velocity=0 time=0.10138863541666665
EXTRACT: note_on channel=1 note=42 velocity=0 time=0.018055510416666663
EXTRACT: note_on channel=11 note=54 velocity=0 time=0.02083328125
EXTRACT: note_on channel=3 note=66 velocity=111 time=0
EXTRACT: note_on channel=8 note=61 velocity=71 time=0
EXTRACT: note_on channel=1 note=42 velocity=115 time=0.004166656249999999
EXTRACT: note_on channel=9 note=46 velocity=76 time=0
EXTRACT: note_on channel=9 note=54 velocity=50 time=0
EXTRACT: note_on channel=11 note=54 velocity=69 time=0.0013888854166666665
EXTRACT: note_on channel=9 note=39 velocity=117 time=0.0013888854166666665
EXTRACT: note_on channel=15 note=49 velocity=0 time=0.0013888854166666665
EXTRACT: note_on channel=9 note=85 velocity=78 time=0.005555541666666666
EXTRACT: note_on channel=9 note=28 velocity=74 time=0
EXTRACT: note_on channel=2 note=58 velocity=51 time=0.005555541666666666
EXTRACT: note_on channel=15 note=58 velocity=77 time=0
EXTRACT: note_on channel=2 note=54 velocity=83 time=0.002777770833333333
EXTRACT: note_on channel=15 note=54 velocity=86 time=0
EXTRACT: note_on channel=9 note=46 velocity=0 time=0.012499968749999998
EXTRACT: note_on channel=9 note=54 velocity=0 time=0.0013888854166666665
EXTRACT: note_on channel=9 note=39 velocity=0 time=0.002777770833333333
EXTRACT: note_on channel=9 note=85 velocity=0 time=0.006944427083333333
EXTRACT: note_on channel=9 note=28 velocity=0 time=0
EXTRACT: note_on channel=2 note=54 velocity=0 time=0.009722197916666666
EXTRACT: note_on channel=9 note=85 velocity=127 time=0
EXTRACT: note_on channel=2 note=58 velocity=0 time=0.03194436458333333
EXTRACT: note_on channel=9 note=85 velocity=0 time=0
EXTRACT: control_change channel=15 control=11 value=127 time=0.06249984374999999
EXTRACT: control_change channel=15 control=11 value=123 time=0.0416665625
EXTRACT: note_on channel=3 note=66 velocity=0 time=0.0416665625
EXTRACT: control_change channel=15 control=11 value=118 time=0
EXTRACT: note_on channel=8 note=66 velocity=0 time=0.005555541666666666
EXTRACT: note_on channel=1 note=42 velocity=0 time=0.03611102083333333
EXTRACT: control_change channel=15 control=11 value=114 time=0
EXTRACT: note_on channel=15 note=58 velocity=0 time=0.016666624999999997
EXTRACT: note_on channel=11 note=54 velocity=0 time=0.006944427083333333
EXTRACT: note_on channel=11 note=58 velocity=0 time=0.006944427083333333
EXTRACT: control_change channel=15 control=11 value=111 time=0.011111083333333332
EXTRACT: note_on channel=10 note=61 velocity=0 time=0.009722197916666666
EXTRACT: note_on channel=10 note=73 velocity=0 time=0
EXTRACT: note_on channel=15 note=54 velocity=0 time=0.006944427083333333
EXTRACT: note_on channel=3 note=66 velocity=111 time=0
EXTRACT: note_on channel=1 note=42 velocity=115 time=0.004166656249999999
EXTRACT: note_on channel=8 note=65 velocity=71 time=0
EXTRACT: note_on channel=9 note=46 velocity=56 time=0
EXTRACT: note_on channel=9 note=35 velocity=111 time=0
EXTRACT: note_on channel=9 note=54 velocity=36 time=0
EXTRACT: note_on channel=10 note=65 velocity=71 time=0
EXTRACT: note_on channel=11 note=61 velocity=68 time=0.0013888854166666665
EXTRACT: note_on channel=2 note=54 velocity=83 time=0.004166656249999999
EXTRACT: note_on channel=15 note=54 velocity=87 time=0
EXTRACT: control_change channel=15 control=11 value=106 time=0.013888854166666666
EXTRACT: note_on channel=10 note=77 velocity=73 time=0.008333312499999999
EXTRACT: note_on channel=9 note=46 velocity=0 time=0.0013888854166666665
EXTRACT: note_on channel=9 note=35 velocity=0 time=0
EXTRACT: note_on channel=9 note=54 velocity=0 time=0
EXTRACT: note_on channel=2 note=54 velocity=0 time=0.011111083333333332
EXTRACT: control_change channel=15 control=11 value=102 time=0.02083328125
EXTRACT: control_change channel=15 control=11 value=99 time=0.0416665625
EXTRACT: control_change channel=15 control=11 value=95 time=0.0416665625
EXTRACT: control_change channel=15 control=11 value=90 time=0.048610989583333326
EXTRACT: note_on channel=3 note=66 velocity=0 time=0.029166593749999997
EXTRACT: control_change channel=2 control=64 value=0 time=0.07777758333333333
EXTRACT: control_change channel=15 control=11 value=127 time=0.011111083333333332
EXTRACT: note_on channel=15 note=54 velocity=0 time=0.008333312499999999
EXTRACT: note_on channel=1 note=42 velocity=0 time=0.0013888854166666665
EXTRACT: note_on channel=11 note=49 velocity=68 time=0.004166656249999999
EXTRACT: control_change channel=2 control=64 value=100 time=0
EXTRACT: note_on channel=3 note=66 velocity=111 time=0
EXTRACT: note_on channel=1 note=37 velocity=115 time=0.0013888854166666665
EXTRACT: note_on channel=2 note=49 velocity=61 time=0
EXTRACT: note_on channel=2 note=56 velocity=79 time=0
EXTRACT: note_on channel=9 note=46 velocity=76 time=0
EXTRACT: note_on channel=9 note=35 velocity=125 time=0
EXTRACT: note_on channel=9 note=54 velocity=52 time=0
EXTRACT: note_on channel=13 note=65 velocity=55 time=0
EXTRACT: note_on channel=13 note=68 velocity=46 time=0
EXTRACT: note_on channel=15 note=56 velocity=82 time=0
EXTRACT: note_on channel=2 note=49 velocity=0 time=0.005555541666666666
EXTRACT: note_on channel=13 note=66 velocity=0 time=0.006944427083333333
EXTRACT: note_on channel=2 note=61 velocity=79 time=0.008333312499999999
EXTRACT: note_on channel=15 note=61 velocity=82 time=0
EXTRACT: note_on channel=2 note=56 velocity=0 time=0.004166656249999999
EXTRACT: note_on channel=9 note=46 velocity=0 time=0.005555541666666666
EXTRACT: note_on channel=9 note=35 velocity=0 time=0
EXTRACT: note_on channel=9 note=54 velocity=0 time=0.0013888854166666665
EXTRACT: note_on channel=13 note=70 velocity=0 time=0.0013888854166666665
EXTRACT: note_on channel=2 note=61 velocity=0 time=0.012499968749999998
EXTRACT: note_on channel=8 note=61 velocity=0 time=0.19305507291666665
EXTRACT: note_on channel=15 note=61 velocity=0 time=0.02083328125
EXTRACT: note_on channel=1 note=37 velocity=0 time=0.006944427083333333
EXTRACT: note_on channel=3 note=66 velocity=0 time=0.004166656249999999
EXTRACT: note_on channel=15 note=56 velocity=0 time=0.009722197916666666
EXTRACT: note_on channel=3 note=68 velocity=111 time=0
EXTRACT: note_on channel=1 note=37 velocity=115 time=0.004166656249999999
EXTRACT: note_on channel=2 note=56 velocity=53 time=0
EXTRACT: note_on channel=2 note=61 velocity=85 time=0
EXTRACT: note_on channel=8 note=61 velocity=71 time=0
EXTRACT: note_on channel=9 note=46 velocity=72 time=0
EXTRACT: note_on channel=9 note=35 velocity=81 time=0
EXTRACT: note_on channel=9 note=54 velocity=43 time=0
EXTRACT: note_on channel=15 note=56 velocity=57 time=0
EXTRACT: note_on channel=15 note=61 velocity=89 time=0
EXTRACT: control_change channel=15 control=11 value=127 time=0.006944427083333333
EXTRACT: note_on channel=2 note=56 velocity=0 time=0.002777770833333333
EXTRACT: note_on channel=2 note=61 velocity=0 time=0.015277739583333332
EXTRACT: note_on channel=9 note=46 velocity=0 time=0.005555541666666666
EXTRACT: note_on channel=9 note=35 velocity=0 time=0
EXTRACT: note_on channel=9 note=54 velocity=0 time=0
EXTRACT: control_change channel=15 control=11 value=122 time=0.018055510416666663
EXTRACT: control_change channel=15 control=11 value=119 time=0.0416665625
EXTRACT: control_change channel=15 control=11 value=115 time=0.0416665625
EXTRACT: note_on channel=8 note=65 velocity=0 time=0.02361105208333333
EXTRACT: control_change channel=15 control=11 value=111 time=0.018055510416666663
EXTRACT: control_change channel=15 control=11 value=107 time=0.0416665625
EXTRACT: note_on channel=11 note=61 velocity=0 time=0.02083328125
EXTRACT: control_change channel=15 control=11 value=103 time=0.02083328125
EXTRACT: note_on channel=3 note=68 velocity=0 time=0.005555541666666666
EXTRACT: note_on channel=1 note=37 velocity=0 time=0.008333312499999999
EXTRACT: control_change channel=15 control=11 value=99 time=0.02777770833333333
EXTRACT: note_on channel=11 note=49 velocity=0 time=0.008333312499999999
EXTRACT: note_on channel=15 note=56 velocity=0 time=0.013888854166666666
EXTRACT: note_on channel=15 note=61 velocity=0 time=0
EXTRACT: note_on channel=3 note=70 velocity=111 time=0
EXTRACT: note_on channel=1 note=37 velocity=115 time=0.004166656249999999
EXTRACT: note_on channel=2 note=56 velocity=53 time=0
EXTRACT: note_on channel=2 note=61 velocity=63 time=0
EXTRACT: note_on channel=9 note=46 velocity=83 time=0
EXTRACT: note_on channel=9 note=54 velocity=53 time=0
EXTRACT: note_on channel=15 note=56 velocity=57 time=0
EXTRACT: note_on channel=15 note=61 velocity=66 time=0
EXTRACT: note_on channel=8 note=65 velocity=87 time=0.0013888854166666665
EXTRACT: note_on channel=9 note=39 velocity=110 time=0.0013888854166666665
EXTRACT: note_on channel=11 note=56 velocity=79 time=0
EXTRACT: control_change channel=15 control=11 value=95 time=0.004166656249999999
EXTRACT: note_on channel=2 note=56 velocity=0 time=0.002777770833333333
EXTRACT: note_on channel=9 note=85 velocity=73 time=0
EXTRACT: note_on channel=9 note=28 velocity=97 time=0
EXTRACT: note_on channel=2 note=61 velocity=0 time=0.015277739583333332
EXTRACT: note_on channel=9 note=46 velocity=0 time=0.005555541666666666
EXTRACT: note_on channel=9 note=54 velocity=0 time=0.0013888854166666665
EXTRACT: note_on channel=9 note=39 velocity=0 time=0.002777770833333333
EXTRACT: note_on channel=9 note=85 velocity=0 time=0.006944427083333333
EXTRACT: note_on channel=9 note=28 velocity=0 time=0
EXTRACT: note_on channel=9 note=85 velocity=127 time=0.009722197916666666
EXTRACT: control_change channel=15 control=11 value=91 time=0.004166656249999999
EXTRACT: note_on channel=9 note=85 velocity=0 time=0.02777770833333333
EXTRACT: note_on channel=8 note=65 velocity=0 time=0.06249984374999999
EXTRACT: note_on channel=8 note=66 velocity=73 time=0.008333312499999999
EXTRACT: note_on channel=8 note=61 velocity=0 time=0.08472201041666666
EXTRACT: note_on channel=1 note=37 velocity=0 time=0.03194436458333333
EXTRACT: note_on channel=3 note=70 velocity=0 time=0.006944427083333333
EXTRACT: control_change channel=15 control=11 value=127 time=0.02083328125
EXTRACT: note_on channel=1 note=34 velocity=115 time=0.02083328125
EXTRACT: note_on channel=15 note=56 velocity=0 time=0.0013888854166666665
EXTRACT: note_on channel=15 note=61 velocity=0 time=0
EXTRACT: note_on channel=3 note=73 velocity=111 time=0
EXTRACT: note_on channel=2 note=49 velocity=53 time=0.006944427083333333
EXTRACT: note_on channel=9 note=46 velocity=75 time=0
EXTRACT: note_on channel=9 note=35 velocity=117 time=0
EXTRACT: note_on channel=9 note=54 velocity=43 time=0
EXTRACT: note_on channel=15 note=49 velocity=54 time=0
EXTRACT: note_on channel=8 note=61 velocity=69 time=0.006944427083333333
EXTRACT: note_on channel=2 note=56 velocity=60 time=0.008333312499999999
EXTRACT: note_on channel=15 note=56 velocity=64 time=0
EXTRACT: note_on channel=9 note=46 velocity=0 time=0.015277739583333332
EXTRACT: note_on channel=9 note=35 velocity=0 time=0
EXTRACT: note_on channel=9 note=54 velocity=0 time=0
EXTRACT: note_on channel=2 note=56 velocity=0 time=0.011111083333333332
EXTRACT: note_on channel=13 note=61 velocity=0 time=0.11388860416666666
EXTRACT: control_change channel=2 control=64 value=0 time=0.12499968749999998
EXTRACT: note_on channel=8 note=66 velocity=0 time=0.005555541666666666
EXTRACT: note_on channel=15 note=49 velocity=0 time=0.0013888854166666665
EXTRACT: note_on channel=11 note=56 velocity=0 time=0.004166656249999999
EXTRACT: note_on channel=1 note=34 velocity=0 time=0.016666624999999997
EXTRACT: note_on channel=10 note=65 velocity=0 time=0.013888854166666666
EXTRACT: note_on channel=10 note=77 velocity=0 time=0
EXTRACT: note_on channel=15 note=56 velocity=0 time=0.002777770833333333
EXTRACT: note_on channel=8 note=58 velocity=59 time=0.002777770833333333
EXTRACT: note_on channel=9 note=54 velocity=49 time=0.004166656249999999
EXTRACT: note_on channel=1 note=39 velocity=119 time=0.0013888854166666665
EXTRACT: note_on channel=9 note=49 velocity=73 time=0
EXTRACT: note_on channel=9 note=35 velocity=121 time=0
EXTRACT: note_on channel=10 note=82 velocity=71 time=0
EXTRACT: note_on channel=11 note=51 velocity=66 time=0
EXTRACT: note_on channel=13 note=61 velocity=19 time=0
EXTRACT: control_change channel=12 control=11 value=70 time=0
EXTRACT: note_on channel=2 note=39 velocity=57 time=0.004166656249999999
EXTRACT: note_on channel=15 note=54 velocity=60 time=0
EXTRACT: note_on channel=13 note=65 velocity=0 time=0.008333312499999999
EXTRACT: note_on channel=13 note=66 velocity=32 time=0.0013888854166666665
EXTRACT: note_on channel=13 note=70 velocity=42 time=0.006944427083333333
EXTRACT: control_change channel=2 control=64 value=100 time=0
EXTRACT: note_on channel=2 note=54 velocity=56 time=0.004166656249999999
EXTRACT: note_on channel=10 note=70 velocity=65 time=0.002777770833333333
EXTRACT: note_on channel=9 note=54 velocity=0 time=0.002777770833333333
EXTRACT: note_on channel=9 note=49 velocity=0 time=0
EXTRACT: note_on channel=9 note=35 velocity=0 time=0
EXTRACT: note_on channel=13 note=68 velocity=0 time=0.002777770833333333
EXTRACT: note_on channel=12 note=70 velocity=99 time=0.002777770833333333
EXTRACT: note_on channel=2 note=54 velocity=0 time=0.005555541666666666
EXTRACT: note_on channel=2 note=58 velocity=56 time=0.004166656249999999
EXTRACT: note_on channel=15 note=58 velocity=61 time=0
EXTRACT: note_on channel=2 note=39 velocity=0 time=0.005555541666666666
EXTRACT: note_on channel=2 note=58 velocity=0 time=0.011111083333333332
EXTRACT: control_change channel=12 control=11 value=75 time=0.02083328125
EXTRACT: control_change channel=12 control=11 value=80 time=0.083333125
EXTRACT: note_on channel=15 note=54 velocity=0 time=0.058333187499999994
EXTRACT: control_change channel=12 control=11 value=85 time=0.024999937499999996
EXTRACT: note_on channel=8 note=61 velocity=0 time=0.030555479166666663
EXTRACT: note_on channel=15 note=58 velocity=0 time=0.048610989583333326
EXTRACT: note_on channel=9 note=46 velocity=65 time=0.004166656249999999
EXTRACT: note_on channel=9 note=54 velocity=35 time=0
EXTRACT: note_on channel=11 note=61 velocity=63 time=0
EXTRACT: control_change channel=12 control=11 value=88 time=0
EXTRACT: note_on channel=8 note=66 velocity=75 time=0.004166656249999999
EXTRACT: note_on channel=2 note=54 velocity=51 time=0.002777770833333333
EXTRACT: note_on channel=15 note=54 velocity=54 time=0
EXTRACT: note_on channel=2 note=51 velocity=50 time=0.011111083333333332
EXTRACT: note_on channel=15 note=51 velocity=54 time=0
EXTRACT: note_on channel=2 note=54 velocity=0 time=0.002777770833333333
EXTRACT: note_on channel=9 note=46 velocity=0 time=0.009722197916666666
EXTRACT: note_on channel=9 note=54 velocity=0 time=0
EXTRACT: note_on channel=2 note=51 velocity=0 time=0
EXTRACT: control_change channel=3 control=1 value=15 time=0.011111083333333332
EXTRACT: control_change channel=12 control=11 value=94 time=0.0416665625
EXTRACT: control_change channel=12 control=11 value=99 time=0.083333125
EXTRACT: note_on channel=8 note=58 velocity=0 time=0.07777758333333333
EXTRACT: control_change channel=12 control=11 value=105 time=0.005555541666666666
EXTRACT: note_on channel=15 note=54 velocity=0 time=0.030555479166666663
EXTRACT: note_on channel=1 note=39 velocity=0 time=0.0416665625
EXTRACT: note_on channel=11 note=51 velocity=0 time=0
EXTRACT: note_on channel=15 note=51 velocity=0 time=0.006944427083333333
EXTRACT: note_on channel=8 note=61 velocity=71 time=0
EXTRACT: note_on channel=9 note=46 velocity=77 time=0.004166656249999999
EXTRACT: note_on channel=9 note=54 velocity=49 time=0
EXTRACT: note_on channel=11 note=54 velocity=72 time=0
EXTRACT: control_change channel=12 control=11 value=109 time=0
EXTRACT: note_on channel=9 note=39 velocity=113 time=0.002777770833333333
EXTRACT: note_on channel=2 note=58 velocity=65 time=0.004166656249999999
EXTRACT: note_on channel=15 note=58 velocity=69 time=0
EXTRACT: note_on channel=9 note=28 velocity=69 time=0.002777770833333333
EXTRACT: note_on channel=9 note=85 velocity=79 time=0.005555541666666666
EXTRACT: note_on channel=2 note=61 velocity=78 time=0.011111083333333332
EXTRACT: note_on channel=15 note=61 velocity=81 time=0
EXTRACT: note_on channel=9 note=46 velocity=0 time=0.004166656249999999
EXTRACT: note_on channel=9 note=54 velocity=0 time=0
EXTRACT: note_on channel=9 note=39 velocity=0 time=0.004166656249999999
EXTRACT: note_on channel=9 note=28 velocity=0 time=0.006944427083333333
EXTRACT: note_on channel=2 note=61 velocity=0 time=0
EXTRACT: note_on channel=9 note=85 velocity=0 time=0.005555541666666666
EXTRACT: note_on channel=2 note=58 velocity=0 time=0.004166656249999999
EXTRACT: note_on channel=9 note=85 velocity=127 time=0.005555541666666666
EXTRACT: control_change channel=12 control=11 value=112 time=0.026388822916666665
EXTRACT: note_on channel=9 note=85 velocity=0 time=0.005555541666666666
EXTRACT: control_change channel=12 control=11 value=118 time=0.07777758333333333
EXTRACT: control_change channel=15 control=11 value=127 time=0
EXTRACT: note_on channel=11 note=61 velocity=0 time=0.009722197916666666
EXTRACT: control_change channel=15 control=11 value=123 time=0.03194436458333333
EXTRACT: control_change channel=12 control=11 value=126 time=0.0416665625
EXTRACT: control_change channel=15 control=11 value=119 time=0
EXTRACT: control_change channel=15 control=11 value=115 time=0.0416665625
EXTRACT: note_on channel=10 note=82 velocity=0 time=0.002777770833333333
EXTRACT: note_on channel=10 note=70 velocity=0 time=0.02777770833333333
EXTRACT: note_on channel=8 note=61 velocity=0 time=0.002777770833333333
EXTRACT: note_on channel=15 note=61 velocity=0 time=0.004166656249999999
EXTRACT: note_on channel=8 note=59 velocity=71 time=0
EXTRACT: note_on channel=1 note=34 velocity=121 time=0.004166656249999999
EXTRACT: note_on channel=9 note=46 velocity=53 time=0
EXTRACT: note_on channel=9 note=54 velocity=39 time=0
EXTRACT: note_on channel=9 note=35 velocity=111 time=0
EXTRACT: note_on channel=10 note=83 velocity=80 time=0
EXTRACT: note_on channel=11 note=61 velocity=53 time=0
EXTRACT: control_change channel=15 control=11 value=111 time=0
EXTRACT: note_on channel=2 note=54 velocity=65 time=0.006944427083333333
EXTRACT: note_on channel=15 note=54 velocity=68 time=0
EXTRACT: note_on channel=10 note=71 velocity=77 time=0.02083328125
EXTRACT: note_on channel=9 note=46 velocity=0 time=0.002777770833333333
EXTRACT: note_on channel=9 note=54 velocity=0 time=0
EXTRACT: note_on channel=9 note=35 velocity=0 time=0
EXTRACT: control_change channel=15 control=11 value=107 time=0.011111083333333332
EXTRACT: note_on channel=2 note=54 velocity=0 time=0.009722197916666666
EXTRACT: control_change channel=12 control=1 value=25 time=0.004166656249999999
EXTRACT: control_change channel=15 control=11 value=103 time=0.02777770833333333
EXTRACT: control_change channel=15 control=11 value=99 time=0.0416665625
EXTRACT: note_on channel=8 note=66 velocity=0 time=0.02777770833333333
EXTRACT: control_change channel=15 control=11 value=95 time=0.013888854166666666
EXTRACT: control_change channel=15 control=11 value=91 time=0.048610989583333326
EXTRACT: note_on channel=13 note=61 velocity=0 time=0.03472213541666666
EXTRACT: note_on channel=13 note=71 velocity=43 time=0.029166593749999997
EXTRACT: note_on channel=15 note=58 velocity=0 time=0.0013888854166666665
EXTRACT: note_on channel=13 note=70 velocity=0 time=0.005555541666666666
EXTRACT: note_on channel=12 note=70 velocity=0 time=0
EXTRACT: note_on channel=11 note=54 velocity=0 time=0
EXTRACT: control_change channel=2 control=64 value=0 time=0.026388822916666665
EXTRACT: note_on channel=1 note=34 velocity=0 time=0.009722197916666666
EXTRACT: note_on channel=11 note=61 velocity=0 time=0
EXTRACT: note_on channel=15 note=54 velocity=0 time=0.002777770833333333
EXTRACT: note_on channel=8 note=66 velocity=69 time=0.004166656249999999
EXTRACT: note_on channel=1 note=35 velocity=121 time=0.004166656249999999
EXTRACT: note_on channel=9 note=46 velocity=75 time=0
EXTRACT: note_on channel=9 note=35 velocity=120 time=0
EXTRACT: note_on channel=9 note=54 velocity=51 time=0
EXTRACT: note_on channel=11 note=59 velocity=72 time=0
EXTRACT: note_on channel=12 note=71 velocity=99 time=0
EXTRACT: note_on channel=13 note=63 velocity=40 time=0
EXTRACT: control_change channel=15 control=11 value=127 time=0
EXTRACT: note_on channel=2 note=47 velocity=68 time=0.004166656249999999
EXTRACT: note_on channel=15 note=47 velocity=70 time=0
EXTRACT: control_change channel=2 control=64 value=100 time=0.005555541666666666
EXTRACT: note_on channel=2 note=59 velocity=68 time=0.004166656249999999
EXTRACT: note_on channel=15 note=59 velocity=71 time=0
EXTRACT: note_on channel=9 note=46 velocity=0 time=0.016666624999999997
EXTRACT: note_on channel=9 note=35 velocity=0 time=0
EXTRACT: note_on channel=9 note=54 velocity=0 time=0
EXTRACT: note_on channel=15 note=47 velocity=0 time=0.02083328125
EXTRACT: note_on channel=2 note=59 velocity=0 time=0.011111083333333332
EXTRACT: note_on channel=2 note=47 velocity=0 time=0.030555479166666663
EXTRACT: note_on channel=8 note=59 velocity=0 time=0.16666625
EXTRACT: note_on channel=11 note=59 velocity=0 time=0.05138876041666666
EXTRACT: note_on channel=8 note=59 velocity=63 time=0.016666624999999997
EXTRACT: note_on channel=15 note=59 velocity=0 time=0.0013888854166666665
EXTRACT: note_on channel=11 note=61 velocity=72 time=0.002777770833333333
EXTRACT: note_on channel=9 note=46 velocity=51 time=0.0013888854166666665
EXTRACT: note_on channel=9 note=54 velocity=36 time=0
EXTRACT: note_on channel=2 note=51 velocity=47 time=0.006944427083333333
EXTRACT: note_on channel=15 note=51 velocity=48 time=0
EXTRACT: note_on channel=2 note=54 velocity=47 time=0.011111083333333332
EXTRACT: note_on channel=15 note=54 velocity=48 time=0
EXTRACT: note_on channel=9 note=46 velocity=0 time=0.012499968749999998
EXTRACT: note_on channel=9 note=54 velocity=0 time=0
EXTRACT: note_on channel=2 note=51 velocity=0 time=0.02083328125
EXTRACT: note_on channel=2 note=54 velocity=0 time=0.011111083333333332
EXTRACT: note_on channel=8 note=66 velocity=0 time=0.19722172916666664
EXTRACT: note_on channel=15 note=51 velocity=0 time=0.013888854166666666
EXTRACT: note_on channel=15 note=54 velocity=0 time=0
EXTRACT: note_on channel=1 note=35 velocity=0 time=0.048610989583333326
EXTRACT: note_on channel=12 note=71 velocity=0 time=0
EXTRACT: note_on channel=8 note=66 velocity=71 time=0.006944427083333333
EXTRACT: note_on channel=2 note=54 velocity=75 time=0.0013888854166666665
EXTRACT: note_on channel=15 note=54 velocity=79 time=0
EXTRACT: note_on channel=11 note=61 velocity=0 time=0.002777770833333333
EXTRACT: note_on channel=9 note=46 velocity=75 time=0
EXTRACT: note_on channel=9 note=54 velocity=50 time=0
EXTRACT: note_on channel=11 note=59 velocity=75 time=0
EXTRACT: note_on channel=12 note=70 velocity=86 time=0
EXTRACT: note_on channel=9 note=39 velocity=114 time=0.002777770833333333
EXTRACT: note_on channel=2 note=59 velocity=78 time=0.002777770833333333
EXTRACT: note_on channel=15 note=59 velocity=81 time=0
EXTRACT: note_on channel=9 note=28 velocity=73 time=0.004166656249999999
EXTRACT: note_on channel=9 note=85 velocity=72 time=0.005555541666666666
EXTRACT: note_on channel=2 note=59 velocity=0 time=0.005555541666666666
EXTRACT: note_on channel=2 note=54 velocity=0 time=0.009722197916666666
EXTRACT: note_on channel=9 note=46 velocity=0 time=0
EXTRACT: note_on channel=9 note=54 velocity=0 time=0
EXTRACT: note_on channel=9 note=39 velocity=0 time=0.004166656249999999
EXTRACT: note_on channel=9 note=28 velocity=0 time=0.006944427083333333
EXTRACT: note_on channel=3 note=73 velocity=0 time=0.004166656249999999
EXTRACT: note_on channel=9 note=85 velocity=0 time=0.0013888854166666665
EXTRACT: note_on channel=9 note=85 velocity=127 time=0.009722197916666666
EXTRACT: note_on channel=9 note=85 velocity=0 time=0.03194436458333333
EXTRACT: control_change channel=15 control=11 value=127 time=0.04999987499999999
EXTRACT: control_change channel=15 control=11 value=123 time=0.0416665625
EXTRACT: control_change channel=15 control=11 value=118 time=0.0416665625
EXTRACT: note_on channel=8 note=59 velocity=0 time=0.006944427083333333
EXTRACT: note_on channel=15 note=54 velocity=0 time=0.002777770833333333
EXTRACT: control_change channel=15 control=11 value=115 time=0.03194436458333333
EXTRACT: control_change channel=15 control=11 value=110 time=0.0416665625
EXTRACT: note_on channel=15 note=59 velocity=0 time=0.02361105208333333
EXTRACT: note_on channel=8 note=59 velocity=71 time=0
EXTRACT: note_on channel=9 note=54 velocity=34 time=0.002777770833333333
EXTRACT: note_on channel=1 note=35 velocity=121 time=0.0013888854166666665
EXTRACT: note_on channel=9 note=46 velocity=58 time=0
EXTRACT: note_on channel=9 note=35 velocity=113 time=0
EXTRACT: note_on channel=12 note=68 velocity=97 time=0
EXTRACT: note_on channel=11 note=54 velocity=49 time=0.005555541666666666
EXTRACT: note_on channel=2 note=49 velocity=38 time=0.0013888854166666665
EXTRACT: note_on channel=15 note=49 velocity=40 time=0
EXTRACT: control_change channel=15 control=11 value=106 time=0.006944427083333333
EXTRACT: note_on channel=12 note=70 velocity=0 time=0.0013888854166666665
EXTRACT: note_on channel=2 note=54 velocity=74 time=0.002777770833333333
EXTRACT: note_on channel=15 note=54 velocity=79 time=0
EXTRACT: note_on channel=9 note=54 velocity=0 time=0.012499968749999998
EXTRACT: note_on channel=9 note=46 velocity=0 time=0
EXTRACT: note_on channel=9 note=35 velocity=0 time=0
EXTRACT: note_on channel=2 note=49 velocity=0 time=0.02083328125
EXTRACT: note_on channel=2 note=54 velocity=0 time=0
EXTRACT: control_change channel=15 control=11 value=103 time=0.004166656249999999
EXTRACT: control_change channel=15 control=11 value=98 time=0.0416665625
EXTRACT: note_on channel=15 note=49 velocity=0 time=0.03749990625
EXTRACT: control_change channel=15 control=11 value=95 time=0.004166656249999999
EXTRACT: note_on channel=13 note=66 velocity=0 time=0.016666624999999997
EXTRACT: control_change channel=15 control=11 value=90 time=0.03194436458333333
EXTRACT: note_on channel=1 note=35 velocity=0 time=0.10416640625
EXTRACT: note_on channel=11 note=59 velocity=0 time=0.008333312499999999
EXTRACT: control_change channel=15 control=11 value=127 time=0.005555541666666666
EXTRACT: note_on channel=10 note=83 velocity=0 time=0.004166656249999999
EXTRACT: note_on channel=13 note=63 velocity=0 time=0.0013888854166666665
EXTRACT: note_on channel=8 note=59 velocity=0 time=0.0013888854166666665
EXTRACT: control_change channel=2 control=64 value=0 time=0
EXTRACT: note_on channel=13 note=71 velocity=0 time=0
EXTRACT: note_on channel=11 note=54 velocity=0 time=0.005555541666666666
EXTRACT: note_on channel=15 note=54 velocity=0 time=0.006944427083333333
EXTRACT: note_on channel=8 note=66 velocity=0 time=0.008333312499999999
EXTRACT: note_on channel=8 note=61 velocity=69 time=0
EXTRACT: note_on channel=9 note=46 velocity=77 time=0
EXTRACT: note_on channel=9 note=54 velocity=50 time=0
EXTRACT: note_on channel=9 note=35 velocity=125 time=0
EXTRACT: note_on channel=10 note=82 velocity=72 time=0
EXTRACT: note_on channel=13 note=61 velocity=38 time=0
EXTRACT: note_on channel=13 note=66 velocity=49 time=0
EXTRACT: note_on channel=13 note=70 velocity=41 time=0
EXTRACT: note_on channel=10 note=71 velocity=0 time=0.004166656249999999
EXTRACT: note_on channel=2 note=42 velocity=60 time=0
EXTRACT: note_on channel=11 note=54 velocity=67 time=0.0013888854166666665
EXTRACT: note_on channel=1 note=42 velocity=123 time=0.0013888854166666665
EXTRACT: note_on channel=2 note=58 velocity=53 time=0.011111083333333332
EXTRACT: note_on channel=15 note=58 velocity=57 time=0
EXTRACT: note_on channel=2 note=61 velocity=52 time=0.009722197916666666
EXTRACT: note_on channel=10 note=70 velocity=66 time=0
EXTRACT: note_on channel=15 note=61 velocity=56 time=0
EXTRACT: note_on channel=9 note=46 velocity=0 time=0.002777770833333333
EXTRACT: note_on channel=9 note=54 velocity=0 time=0
EXTRACT: note_on channel=9 note=35 velocity=0 time=0
EXTRACT: note_on channel=2 note=42 velocity=0 time=0
EXTRACT: note_on channel=2 note=58 velocity=0 time=0
EXTRACT: control_change channel=2 control=64 value=100 time=0
EXTRACT: note_on channel=2 note=61 velocity=0 time=0.011111083333333332
EXTRACT: control_change channel=3 control=11 value=121 time=0.16666625
EXTRACT: note_on channel=15 note=58 velocity=0 time=0.002777770833333333
EXTRACT: note_on channel=15 note=61 velocity=0 time=0.10694417708333333
EXTRACT: note_on channel=8 note=66 velocity=75 time=0.011111083333333332
EXTRACT: note_on channel=2 note=49 velocity=52 time=0.0013888854166666665
EXTRACT: note_on channel=15 note=49 velocity=57 time=0
EXTRACT: note_on channel=9 note=46 velocity=56 time=0.002777770833333333
EXTRACT: note_on channel=9 note=54 velocity=32 time=0
EXTRACT: note_on channel=2 note=54 velocity=53 time=0.006944427083333333
EXTRACT: note_on channel=11 note=58 velocity=74 time=0
EXTRACT: note_on channel=15 note=54 velocity=57 time=0
EXTRACT: note_on channel=2 note=49 velocity=0 time=0.002777770833333333
EXTRACT: note_on channel=2 note=54 velocity=0 time=0.011111083333333332
EXTRACT: note_on channel=9 note=46 velocity=0 time=0.009722197916666666
EXTRACT: note_on channel=9 note=54 velocity=0 time=0
EXTRACT: note_on channel=8 note=61 velocity=0 time=0.12083303124999999
EXTRACT: note_on channel=15 note=49 velocity=0 time=0.06666649999999999
EXTRACT: note_on channel=15 note=54 velocity=0 time=0.06944427083333332
EXTRACT: note_on channel=11 note=54 velocity=0 time=0.004166656249999999
EXTRACT: note_on channel=1 note=42 velocity=0 time=0.009722197916666666
EXTRACT: note_on channel=12 note=68 velocity=0 time=0.013888854166666666
EXTRACT: note_on channel=8 note=61 velocity=71 time=0.013888854166666666
EXTRACT: note_on channel=4 note=66 velocity=1 time=0.004166656249999999
EXTRACT: note_on channel=9 note=46 velocity=80 time=0
EXTRACT: note_on channel=9 note=54 velocity=50 time=0
EXTRACT: note_on channel=12 note=66 velocity=87 time=0
EXTRACT: note_on channel=3 note=73 velocity=111 time=0
EXTRACT: note_on channel=11 note=54 velocity=68 time=0
EXTRACT: note_on channel=9 note=39 velocity=115 time=0.0013888854166666665
EXTRACT: note_on channel=9 note=85 velocity=78 time=0.006944427083333333
EXTRACT: note_on channel=9 note=28 velocity=72 time=0
EXTRACT: note_on channel=2 note=58 velocity=55 time=0.005555541666666666
EXTRACT: note_on channel=15 note=58 velocity=59 time=0
EXTRACT: note_on channel=2 note=54 velocity=72 time=0.002777770833333333
EXTRACT: note_on channel=15 note=54 velocity=77 time=0
EXTRACT: note_on channel=9 note=46 velocity=0 time=0.012499968749999998
EXTRACT: note_on channel=9 note=54 velocity=0 time=0.0013888854166666665
EXTRACT: note_on channel=9 note=39 velocity=0 time=0.002777770833333333
EXTRACT: note_on channel=9 note=85 velocity=0 time=0.006944427083333333
EXTRACT: note_on channel=9 note=28 velocity=0 time=0
EXTRACT: note_on channel=2 note=54 velocity=0 time=0.009722197916666666
EXTRACT: note_on channel=9 note=85 velocity=127 time=0
EXTRACT: note_on channel=2 note=58 velocity=0 time=0.03194436458333333
EXTRACT: note_on channel=9 note=85 velocity=0 time=0
EXTRACT: control_change channel=15 control=11 value=126 time=0.06249984374999999
EXTRACT: note_on channel=15 note=58 velocity=0 time=0.03749990625
EXTRACT: control_change channel=15 control=11 value=122 time=0.004166656249999999
EXTRACT: note_on channel=3 note=73 velocity=0 time=0.0013888854166666665
EXTRACT: control_change channel=15 control=11 value=119 time=0.04027767708333333
EXTRACT: note_on channel=8 note=66 velocity=0 time=0.005555541666666666
EXTRACT: control_change channel=15 control=11 value=115 time=0.03611102083333333
EXTRACT: note_on channel=11 note=54 velocity=0 time=0.02361105208333333
EXTRACT: note_on channel=11 note=58 velocity=0 time=0.006944427083333333
EXTRACT: control_change channel=15 control=11 value=111 time=0.011111083333333332
EXTRACT: note_on channel=10 note=82 velocity=0 time=0.009722197916666666
EXTRACT: note_on channel=15 note=54 velocity=0 time=0.006944427083333333
EXTRACT: note_on channel=1 note=42 velocity=103 time=0.004166656249999999
EXTRACT: note_on channel=8 note=65 velocity=71 time=0
EXTRACT: note_on channel=9 note=46 velocity=60 time=0
EXTRACT: note_on channel=9 note=35 velocity=112 time=0
EXTRACT: note_on channel=9 note=54 velocity=37 time=0
EXTRACT: note_on channel=10 note=80 velocity=77 time=0
EXTRACT: note_on channel=12 note=68 velocity=83 time=0
EXTRACT: note_on channel=12 note=66 velocity=0 time=0.0013888854166666665
EXTRACT: note_on channel=11 note=61 velocity=68 time=0
EXTRACT: note_on channel=3 note=73 velocity=111 time=0
EXTRACT: note_on channel=2 note=54 velocity=72 time=0.002777770833333333
EXTRACT: note_on channel=15 note=54 velocity=77 time=0
EXTRACT: note_on channel=10 note=70 velocity=0 time=0.005555541666666666
EXTRACT: control_change channel=15 control=11 value=106 time=0.004166656249999999
EXTRACT: note_on channel=10 note=68 velocity=70 time=0.006944427083333333
EXTRACT: note_on channel=9 note=46 velocity=0 time=0.002777770833333333
EXTRACT: note_on channel=9 note=35 velocity=0 time=0
EXTRACT: note_on channel=9 note=54 velocity=0 time=0
EXTRACT: note_on channel=2 note=54 velocity=0 time=0.011111083333333332
EXTRACT: control_change channel=15 control=11 value=102 time=0.02083328125
EXTRACT: control_change channel=15 control=11 value=98 time=0.0416665625
EXTRACT: control_change channel=15 control=11 value=94 time=0.0416665625
EXTRACT: note_on channel=1 note=42 velocity=0 time=0.030555479166666663
EXTRACT: control_change channel=15 control=11 value=91 time=0.018055510416666663
EXTRACT: note_on channel=3 note=73 velocity=0 time=0.038888791666666665
EXTRACT: control_change channel=2 control=64 value=0 time=0.06805538541666666
EXTRACT: pitchwheel channel=3 pitch=-8081 time=0.011111083333333332
EXTRACT: control_change channel=15 control=11 value=126 time=0
EXTRACT: note_on channel=15 note=54 velocity=0 time=0.008333312499999999
EXTRACT: note_on channel=4 note=66 velocity=0 time=0.0013888854166666665
EXTRACT: note_on channel=12 note=68 velocity=0 time=0.002777770833333333
EXTRACT: note_on channel=11 note=49 velocity=68 time=0.0013888854166666665
EXTRACT: note_on channel=1 note=37 velocity=123 time=0.006944427083333333
EXTRACT: note_on channel=2 note=49 velocity=60 time=0
EXTRACT: note_on channel=2 note=56 velocity=59 time=0
EXTRACT: note_on channel=2 note=61 velocity=78 time=0
EXTRACT: note_on channel=4 note=65 velocity=1 time=0
EXTRACT: note_on channel=9 note=46 velocity=80 time=0
EXTRACT: note_on channel=9 note=35 velocity=120 time=0
EXTRACT: note_on channel=9 note=54 velocity=53 time=0
EXTRACT: note_on channel=12 note=66 velocity=69 time=0
EXTRACT: note_on channel=13 note=65 velocity=48 time=0
EXTRACT: note_on channel=13 note=68 velocity=38 time=0
EXTRACT: note_on channel=15 note=56 velocity=63 time=0
EXTRACT: note_on channel=15 note=61 velocity=81 time=0
EXTRACT: note_on channel=3 note=75 velocity=111 time=0
EXTRACT: note_on channel=13 note=66 velocity=0 time=0.008333312499999999
EXTRACT: control_change channel=2 control=64 value=100 time=0.008333312499999999
EXTRACT: note_on channel=2 note=61 velocity=0 time=0.004166656249999999
EXTRACT: note_on channel=9 note=46 velocity=0 time=0.005555541666666666
EXTRACT: note_on channel=9 note=35 velocity=0 time=0
EXTRACT: note_on channel=9 note=54 velocity=0 time=0.0013888854166666665
EXTRACT: note_on channel=13 note=70 velocity=0 time=0.0013888854166666665
EXTRACT: note_on channel=2 note=49 velocity=0 time=0.029166593749999997
EXTRACT: pitchwheel channel=3 pitch=-6207 time=0.06388872916666666
EXTRACT: pitchwheel channel=3 pitch=-5876 time=0.013888854166666666
EXTRACT: pitchwheel channel=3 pitch=-5379 time=0.015277739583333332
EXTRACT: pitchwheel channel=3 pitch=-4965 time=0.012499968749999998
EXTRACT: pitchwheel channel=3 pitch=-4552 time=0.015277739583333332
EXTRACT: pitchwheel channel=3 pitch=-4138 time=0.013888854166666666
EXTRACT: pitchwheel channel=3 pitch=-3724 time=0.013888854166666666
EXTRACT: pitchwheel channel=3 pitch=-3100 time=0.013888854166666666
EXTRACT: note_on channel=8 note=61 velocity=0 time=0.013888854166666666
EXTRACT: pitchwheel channel=3 pitch=-2814 time=0.0013888854166666665
EXTRACT: pitchwheel channel=3 pitch=-2483 time=0.012499968749999998
EXTRACT: pitchwheel channel=3 pitch=-2069 time=0.015277739583333332
EXTRACT: pitchwheel channel=3 pitch=-1738 time=0.013888854166666666
EXTRACT: pitchwheel channel=3 pitch=-1407 time=0.013888854166666666
EXTRACT: pitchwheel channel=3 pitch=-1159 time=0.013888854166666666
EXTRACT: note_on channel=12 note=66 velocity=0 time=0.006944427083333333
EXTRACT: note_on channel=15 note=56 velocity=0 time=0.004166656249999999
EXTRACT: note_on channel=15 note=61 velocity=0 time=0
EXTRACT: pitchwheel channel=3 pitch=-617 time=0.004166656249999999
EXTRACT: note_on channel=2 note=56 velocity=59 time=0.008333312499999999
EXTRACT: note_on channel=2 note=61 velocity=79 time=0
EXTRACT: note_on channel=8 note=61 velocity=71 time=0
EXTRACT: note_on channel=9 note=35 velocity=120 time=0
EXTRACT: note_on channel=9 note=46 velocity=61 time=0
EXTRACT: note_on channel=9 note=54 velocity=43 time=0
EXTRACT: note_on channel=12 note=68 velocity=81 time=0
EXTRACT: note_on channel=15 note=56 velocity=63 time=0
EXTRACT: note_on channel=15 note=61 velocity=81 time=0
EXTRACT: pitchwheel channel=3 pitch=-414 time=0.005555541666666666
EXTRACT: pitchwheel channel=3 pitch=0 time=0.013888854166666666
EXTRACT: note_on channel=2 note=61 velocity=0 time=0.005555541666666666
EXTRACT: note_on channel=9 note=35 velocity=0 time=0.005555541666666666
EXTRACT: note_on channel=9 note=46 velocity=0 time=0
EXTRACT: note_on channel=9 note=54 velocity=0 time=0
EXTRACT: note_on channel=8 note=65 velocity=0 time=0.12499968749999998
EXTRACT: note_on channel=11 note=61 velocity=0 time=0.08055535416666666
EXTRACT: note_on channel=11 note=49 velocity=0 time=0.07083315624999999
EXTRACT: note_on channel=10 note=80 velocity=0 time=0.015277739583333332
EXTRACT: note_on channel=1 note=37 velocity=0 time=0
EXTRACT: note_on channel=15 note=61 velocity=0 time=0.006944427083333333
EXTRACT: note_on channel=9 note=46 velocity=81 time=0.004166656249999999
EXTRACT: note_on channel=9 note=54 velocity=53 time=0
EXTRACT: note_on channel=10 note=78 velocity=77 time=0
EXTRACT: note_on channel=12 note=70 velocity=85 time=0
EXTRACT: note_on channel=9 note=39 velocity=112 time=0.002777770833333333
EXTRACT: note_on channel=11 note=56 velocity=79 time=0
EXTRACT: note_on channel=12 note=68 velocity=0 time=0.0013888854166666665
EXTRACT: note_on channel=2 note=49 velocity=46 time=0.002777770833333333
EXTRACT: note_on channel=15 note=49 velocity=51 time=0
EXTRACT: note_on channel=9 note=85 velocity=73 time=0.002777770833333333
EXTRACT: note_on channel=9 note=28 velocity=69 time=0
EXTRACT: note_on channel=8 note=65 velocity=89 time=0.0013888854166666665
EXTRACT: note_on channel=10 note=68 velocity=0 time=0.005555541666666666
EXTRACT: note_on channel=10 note=66 velocity=70 time=0.011111083333333332
EXTRACT: note_on channel=2 note=49 velocity=0 time=0.002777770833333333
EXTRACT: note_on channel=9 note=46 velocity=0 time=0
EXTRACT: note_on channel=9 note=54 velocity=0 time=0.0013888854166666665
EXTRACT: note_on channel=9 note=39 velocity=0 time=0.002777770833333333
EXTRACT: note_on channel=9 note=85 velocity=0 time=0.006944427083333333
EXTRACT: note_on channel=9 note=28 velocity=0 time=0
EXTRACT: note_on channel=9 note=85 velocity=127 time=0.009722197916666666
EXTRACT: note_on channel=9 note=85 velocity=0 time=0.03194436458333333
EXTRACT: note_on channel=3 note=75 velocity=0 time=0.009722197916666666
EXTRACT: control_change channel=15 control=11 value=126 time=0.024999937499999996
EXTRACT: note_on channel=8 note=65 velocity=0 time=0.02777770833333333
EXTRACT: control_change channel=15 control=11 value=123 time=0.013888854166666666
EXTRACT: note_on channel=8 note=66 velocity=67 time=0.005555541666666666
EXTRACT: note_on channel=15 note=56 velocity=0 time=0.03194436458333333
EXTRACT: control_change channel=15 control=11 value=119 time=0.004166656249999999
EXTRACT: note_on channel=8 note=61 velocity=0 time=0.03749990625
EXTRACT: note_on channel=3 note=73 velocity=111 time=0
EXTRACT: control_change channel=15 control=11 value=114 time=0
EXTRACT: control_change channel=15 control=11 value=110 time=0.0416665625
EXTRACT: note_on channel=15 note=49 velocity=0 time=0.03611102083333333
EXTRACT: note_on channel=4 note=65 velocity=0 time=0.0013888854166666665
EXTRACT: note_on channel=10 note=78 velocity=0 time=0
EXTRACT: control_change channel=15 control=11 value=107 time=0.004166656249999999
EXTRACT: note_on channel=1 note=26 velocity=121 time=0.006944427083333333
EXTRACT: note_on channel=2 note=61 velocity=51 time=0
EXTRACT: note_on channel=4 note=66 velocity=1 time=0
EXTRACT: note_on channel=9 note=46 velocity=61 time=0
EXTRACT: note_on channel=9 note=35 velocity=115 time=0
EXTRACT: note_on channel=9 note=54 velocity=43 time=0
EXTRACT: note_on channel=10 note=77 velocity=77 time=0
EXTRACT: note_on channel=12 note=71 velocity=85 time=0
EXTRACT: note_on channel=15 note=61 velocity=53 time=0
EXTRACT: note_on channel=2 note=56 velocity=51 time=0.006944427083333333
EXTRACT: note_on channel=8 note=61 velocity=72 time=0
EXTRACT: note_on channel=15 note=56 velocity=53 time=0
EXTRACT: note_on channel=10 note=66 velocity=0 time=0.009722197916666666
EXTRACT: note_on channel=12 note=70 velocity=0 time=0
EXTRACT: note_on channel=10 note=65 velocity=70 time=0.011111083333333332
EXTRACT: note_on channel=9 note=46 velocity=0 time=0.002777770833333333
EXTRACT: note_on channel=9 note=35 velocity=0 time=0
EXTRACT: note_on channel=9 note=54 velocity=0 time=0
EXTRACT: control_change channel=15 control=11 value=102 time=0.004166656249999999
EXTRACT: note_on channel=2 note=61 velocity=0 time=0.030555479166666663
EXTRACT: note_on channel=2 note=56 velocity=0 time=0.006944427083333333
EXTRACT: control_change channel=15 control=11 value=98 time=0.004166656249999999
EXTRACT: note_on channel=3 note=70 velocity=111 time=0
EXTRACT: note_on channel=3 note=73 velocity=0 time=0.009722197916666666
EXTRACT: control_change channel=15 control=11 value=95 time=0.015277739583333332
EXTRACT: note_on channel=1 note=26 velocity=0 time=0.02361105208333333
EXTRACT: note_on channel=13 note=61 velocity=0 time=0.013888854166666666
EXTRACT: control_change channel=15 control=11 value=91 time=0.011111083333333332
EXTRACT: note_on channel=15 note=61 velocity=0 time=0.05138876041666666
EXTRACT: note_on channel=3 note=70 velocity=0 time=0.0416665625
EXTRACT: control_change channel=2 control=64 value=0 time=0.02083328125
EXTRACT: note_on channel=8 note=66 velocity=0 time=0.005555541666666666
EXTRACT: note_on channel=11 note=56 velocity=0 time=0.005555541666666666
EXTRACT: note_on channel=3 note=70 velocity=111 time=0
EXTRACT: note_on channel=15 note=56 velocity=0 time=0.005555541666666666
EXTRACT: note_on channel=10 note=77 velocity=0 time=0.0013888854166666665
EXTRACT: note_on channel=12 note=71 velocity=0 time=0
EXTRACT: control_change channel=15 control=11 value=126 time=0.004166656249999999
EXTRACT: note_on channel=8 note=58 velocity=55 time=0.0013888854166666665
EXTRACT: note_on channel=9 note=54 velocity=49 time=0.004166656249999999
EXTRACT: note_on channel=1 note=27 velocity=118 time=0.0013888854166666665
EXTRACT: note_on channel=9 note=46 velocity=77 time=0
EXTRACT: note_on channel=9 note=35 velocity=121 time=0
EXTRACT: note_on channel=10 note=66 velocity=71 time=0
EXTRACT: note_on channel=10 note=78 velocity=76 time=0
EXTRACT: note_on channel=11 note=51 velocity=66 time=0
EXTRACT: note_on channel=12 note=70 velocity=95 time=0
EXTRACT: note_on channel=13 note=61 velocity=23 time=0
EXTRACT: control_change channel=12 control=11 value=76 time=0
EXTRACT: note_on channel=2 note=39 velocity=64 time=0.004166656249999999
EXTRACT: note_on channel=2 note=39 velocity=0 time=0.005555541666666666
EXTRACT: note_on channel=13 note=65 velocity=0 time=0.002777770833333333
EXTRACT: note_on channel=13 note=66 velocity=37 time=0.0013888854166666665
EXTRACT: note_on channel=10 note=65 velocity=0 time=0.002777770833333333
EXTRACT: note_on channel=13 note=70 velocity=47 time=0.004166656249999999
EXTRACT: control_change channel=2 control=64 value=100 time=0
EXTRACT: note_on channel=2 note=58 velocity=47 time=0.006944427083333333
EXTRACT: note_on channel=15 note=58 velocity=51 time=0
EXTRACT: note_on channel=9 note=54 velocity=0 time=0.002777770833333333
EXTRACT: note_on channel=9 note=46 velocity=0 time=0
EXTRACT: note_on channel=9 note=35 velocity=0 time=0
EXTRACT: note_on channel=13 note=68 velocity=0 time=0.002777770833333333
EXTRACT: note_on channel=2 note=66 velocity=63 time=0.0013888854166666665
EXTRACT: note_on channel=15 note=66 velocity=67 time=0
EXTRACT: note_on channel=2 note=58 velocity=0 time=0.006944427083333333
EXTRACT: note_on channel=2 note=66 velocity=0 time=0
EXTRACT: pitchwheel channel=3 pitch=-332 time=0.10277752083333332
EXTRACT: pitchwheel channel=3 pitch=-2934 time=0.012499968749999998
EXTRACT: control_change channel=12 control=11 value=83 time=0.009722197916666666
EXTRACT: pitchwheel channel=3 pitch=-5627 time=0.005555541666666666
EXTRACT: pitchwheel channel=3 pitch=-7282 time=0.013888854166666666
EXTRACT: pitchwheel channel=3 pitch=-3890 time=0.08472201041666666
EXTRACT: pitchwheel channel=3 pitch=0 time=0.02361105208333333
EXTRACT: note_on channel=8 note=61 velocity=0 time=0.002777770833333333
EXTRACT: note_on channel=15 note=66 velocity=0 time=0.03194436458333333
EXTRACT: note_on channel=9 note=46 velocity=65 time=0.004166656249999999
EXTRACT: note_on channel=9 note=54 velocity=35 time=0
EXTRACT: note_on channel=11 note=61 velocity=62 time=0
EXTRACT: control_change channel=12 control=11 value=90 time=0
EXTRACT: note_on channel=8 note=66 velocity=74 time=0.004166656249999999
EXTRACT: note_on channel=2 note=54 velocity=47 time=0.002777770833333333
EXTRACT: note_on channel=15 note=54 velocity=51 time=0
EXTRACT: note_on channel=2 note=54 velocity=0 time=0.013888854166666666
EXTRACT: note_on channel=9 note=46 velocity=0 time=0.009722197916666666
EXTRACT: note_on channel=9 note=54 velocity=0 time=0
EXTRACT: note_on channel=3 note=70 velocity=0 time=0.0416665625
EXTRACT: note_on channel=3 note=66 velocity=111 time=0.038888791666666665
EXTRACT: control_change channel=12 control=11 value=96 time=0.05555541666666666
EXTRACT: note_on channel=15 note=58 velocity=0 time=0.030555479166666663
EXTRACT: note_on channel=3 note=66 velocity=0 time=0.005555541666666666
EXTRACT: note_on channel=3 note=68 velocity=111 time=0.019444395833333333
EXTRACT: note_on channel=8 note=58 velocity=0 time=0.022222166666666664
EXTRACT: note_on channel=3 note=68 velocity=0 time=0.058333187499999994
EXTRACT: note_on channel=11 note=51 velocity=0 time=0.019444395833333333
EXTRACT: note_on channel=15 note=54 velocity=0 time=0.004166656249999999
EXTRACT: note_on channel=8 note=61 velocity=70 time=0.002777770833333333
EXTRACT: note_on channel=3 note=70 velocity=111 time=0.004166656249999999
EXTRACT: note_on channel=9 note=46 velocity=77 time=0
EXTRACT: note_on channel=9 note=54 velocity=49 time=0
EXTRACT: note_on channel=11 note=54 velocity=73 time=0
EXTRACT: control_change channel=12 control=11 value=103 time=0
EXTRACT: note_on channel=9 note=39 velocity=113 time=0.002777770833333333
EXTRACT: note_on channel=2 note=66 velocity=85 time=0.002777770833333333
EXTRACT: note_on channel=15 note=66 velocity=87 time=0
EXTRACT: note_on channel=2 note=58 velocity=65 time=0.0013888854166666665
EXTRACT: note_on channel=15 note=58 velocity=69 time=0
EXTRACT: note_on channel=9 note=28 velocity=69 time=0.002777770833333333
EXTRACT: note_on channel=9 note=85 velocity=79 time=0.005555541666666666
EXTRACT: note_on channel=2 note=66 velocity=0 time=0.005555541666666666
EXTRACT: note_on channel=9 note=46 velocity=0 time=0.009722197916666666
EXTRACT: note_on channel=9 note=54 velocity=0 time=0
EXTRACT: note_on channel=9 note=39 velocity=0 time=0.004166656249999999
EXTRACT: note_on channel=9 note=28 velocity=0 time=0.006944427083333333
EXTRACT: note_on channel=9 note=85 velocity=0 time=0.005555541666666666
EXTRACT: note_on channel=2 note=58 velocity=0 time=0.004166656249999999
EXTRACT: note_on channel=9 note=85 velocity=127 time=0.005555541666666666
EXTRACT: note_on channel=1 note=27 velocity=0 time=0.015277739583333332
EXTRACT: note_on channel=9 note=85 velocity=0 time=0.016666624999999997
EXTRACT: control_change channel=12 control=11 value=109 time=0.07777758333333333
EXTRACT: control_change channel=15 control=11 value=127 time=0
EXTRACT: note_on channel=11 note=61 velocity=0 time=0.009722197916666666
EXTRACT: control_change channel=15 control=11 value=123 time=0.03194436458333333
EXTRACT: control_change channel=15 control=11 value=118 time=0.0416665625
EXTRACT: control_change channel=15 control=11 value=115 time=0.0416665625
EXTRACT: note_on channel=15 note=58 velocity=0 time=0.029166593749999997
EXTRACT: note_on channel=8 note=61 velocity=0 time=0.004166656249999999
EXTRACT: note_on channel=8 note=59 velocity=71 time=0.004166656249999999
EXTRACT: note_on channel=1 note=34 velocity=121 time=0.004166656249999999
EXTRACT: note_on channel=2 note=58 velocity=65 time=0
EXTRACT: note_on channel=9 note=46 velocity=53 time=0
EXTRACT: note_on channel=9 note=54 velocity=39 time=0
EXTRACT: note_on channel=9 note=35 velocity=111 time=0
EXTRACT: note_on channel=11 note=61 velocity=53 time=0
EXTRACT: note_on channel=15 note=58 velocity=69 time=0
EXTRACT: control_change channel=12 control=11 value=114 time=0
EXTRACT: control_change channel=15 control=11 value=111 time=0
EXTRACT: note_on channel=9 note=46 velocity=0 time=0.030555479166666663
EXTRACT: note_on channel=9 note=54 velocity=0 time=0
EXTRACT: note_on channel=9 note=35 velocity=0 time=0
EXTRACT: control_change channel=15 control=11 value=107 time=0.011111083333333332
EXTRACT: note_on channel=2 note=58 velocity=0 time=0.002777770833333333
EXTRACT: control_change channel=15 control=11 value=103 time=0.038888791666666665
EXTRACT: control_change channel=15 control=11 value=99 time=0.0416665625
EXTRACT: note_on channel=8 note=66 velocity=0 time=0.02777770833333333
EXTRACT: note_on channel=1 note=34 velocity=0 time=0.002777770833333333
EXTRACT: control_change channel=12 control=11 value=124 time=0.011111083333333332
EXTRACT: control_change channel=15 control=11 value=95 time=0
EXTRACT: note_on channel=15 note=66 velocity=0 time=0.0416665625
EXTRACT: control_change channel=15 control=11 value=91 time=0.006944427083333333
EXTRACT: note_on channel=13 note=61 velocity=0 time=0.03472213541666666
EXTRACT: note_on channel=13 note=71 velocity=47 time=0.029166593749999997
EXTRACT: note_on channel=13 note=70 velocity=0 time=0.006944427083333333
EXTRACT: note_on channel=11 note=54 velocity=0 time=0
EXTRACT: control_change channel=2 control=64 value=0 time=0.026388822916666665
EXTRACT: note_on channel=4 note=66 velocity=0 time=0.009722197916666666
EXTRACT: note_on channel=11 note=61 velocity=0 time=0
EXTRACT: note_on channel=15 note=58 velocity=0 time=0.002777770833333333
EXTRACT: note_on channel=8 note=66 velocity=68 time=0.004166656249999999
EXTRACT: note_on channel=1 note=35 velocity=120 time=0.004166656249999999
EXTRACT: note_on channel=9 note=46 velocity=75 time=0
EXTRACT: note_on channel=9 note=35 velocity=120 time=0
EXTRACT: note_on channel=9 note=54 velocity=51 time=0
EXTRACT: note_on channel=11 note=59 velocity=72 time=0
EXTRACT: note_on channel=13 note=63 velocity=44 time=0
EXTRACT: control_change channel=15 control=11 value=127 time=0
EXTRACT: note_on channel=2 note=47 velocity=69 time=0.004166656249999999
EXTRACT: note_on channel=15 note=47 velocity=71 time=0
EXTRACT: note_on channel=15 note=54 velocity=71 time=0
EXTRACT: control_change channel=2 control=64 value=100 time=0.005555541666666666
EXTRACT: note_on channel=9 note=46 velocity=0 time=0.02083328125
EXTRACT: note_on channel=9 note=35 velocity=0 time=0
EXTRACT: note_on channel=9 note=54 velocity=0 time=0
EXTRACT: note_on channel=3 note=70 velocity=0 time=0.06249984374999999
EXTRACT: note_on channel=2 note=47 velocity=0 time=0.09444420833333332
EXTRACT: note_on channel=8 note=59 velocity=0 time=0.07222204166666665
EXTRACT: note_on channel=11 note=59 velocity=0 time=0.05138876041666666
EXTRACT: note_on channel=8 note=59 velocity=63 time=0.016666624999999997
EXTRACT: note_on channel=15 note=47 velocity=0 time=0.0013888854166666665
EXTRACT: note_on channel=15 note=54 velocity=0 time=0
EXTRACT: note_on channel=11 note=61 velocity=72 time=0.002777770833333333
EXTRACT: note_on channel=9 note=46 velocity=51 time=0.0013888854166666665
EXTRACT: note_on channel=9 note=54 velocity=36 time=0
EXTRACT: control_change channel=12 control=11 value=125 time=0
EXTRACT: note_on channel=2 note=51 velocity=47 time=0.006944427083333333
EXTRACT: note_on channel=15 note=51 velocity=51 time=0
EXTRACT: note_on channel=9 note=46 velocity=0 time=0.02361105208333333
EXTRACT: note_on channel=9 note=54 velocity=0 time=0
EXTRACT: note_on channel=2 note=51 velocity=0 time=0.02083328125
EXTRACT: note_on channel=12 note=70 velocity=0 time=0.10416640625
EXTRACT: note_on channel=12 note=68 velocity=85 time=0.004166656249999999
EXTRACT: control_change channel=12 control=11 value=112 time=0.006944427083333333
EXTRACT: note_on channel=8 note=66 velocity=0 time=0.09305532291666666
EXTRACT: note_on channel=12 note=70 velocity=89 time=0.05555541666666666
EXTRACT: note_on channel=15 note=51 velocity=0 time=0.002777770833333333
EXTRACT: note_on channel=12 note=68 velocity=0 time=0
EXTRACT: note_on channel=1 note=35 velocity=0 time=0.004166656249999999
EXTRACT: note_on channel=8 note=66 velocity=70 time=0.006944427083333333
EXTRACT: note_on channel=2 note=54 velocity=71 time=0.0013888854166666665
EXTRACT: note_on channel=15 note=54 velocity=73 time=0
EXTRACT: note_on channel=11 note=61 velocity=0 time=0.002777770833333333
EXTRACT: note_on channel=9 note=46 velocity=74 time=0
EXTRACT: note_on channel=9 note=54 velocity=51 time=0
EXTRACT: note_on channel=11 note=59 velocity=75 time=0
EXTRACT: control_change channel=12 control=11 value=102 time=0
EXTRACT: note_on channel=9 note=39 velocity=114 time=0.002777770833333333
EXTRACT: note_on channel=2 note=59 velocity=79 time=0.002777770833333333
EXTRACT: note_on channel=15 note=59 velocity=82 time=0
EXTRACT: note_on channel=9 note=28 velocity=73 time=0.004166656249999999
EXTRACT: note_on channel=9 note=85 velocity=72 time=0.005555541666666666
EXTRACT: note_on channel=2 note=59 velocity=0 time=0.005555541666666666
EXTRACT: note_on channel=2 note=54 velocity=0 time=0.009722197916666666
EXTRACT: note_on channel=9 note=46 velocity=0 time=0
EXTRACT: note_on channel=9 note=54 velocity=0 time=0
EXTRACT: note_on channel=9 note=39 velocity=0 time=0.004166656249999999
EXTRACT: note_on channel=9 note=28 velocity=0 time=0.006944427083333333
EXTRACT: note_on channel=9 note=85 velocity=0 time=0.005555541666666666
EXTRACT: note_on channel=9 note=85 velocity=127 time=0.009722197916666666
EXTRACT: control_change channel=12 control=11 value=93 time=0.026388822916666665
EXTRACT: note_on channel=9 note=85 velocity=0 time=0.005555541666666666
EXTRACT: control_change channel=15 control=11 value=127 time=0.04999987499999999
EXTRACT: control_change channel=15 control=11 value=123 time=0.0416665625
EXTRACT: control_change channel=15 control=11 value=119 time=0.0416665625
EXTRACT: note_on channel=8 note=59 velocity=0 time=0.006944427083333333
EXTRACT: note_on channel=15 note=54 velocity=0 time=0.009722197916666666
EXTRACT: control_change channel=15 control=11 value=115 time=0.024999937499999996
EXTRACT: control_change channel=15 control=11 value=111 time=0.0416665625
EXTRACT: note_on channel=12 note=63 velocity=87 time=0.013888854166666666
EXTRACT: note_on channel=10 note=66 velocity=0 time=0.002777770833333333
EXTRACT: note_on channel=10 note=78 velocity=0 time=0
EXTRACT: note_on channel=8 note=59 velocity=71 time=0.006944427083333333
EXTRACT: note_on channel=9 note=54 velocity=34 time=0.002777770833333333
EXTRACT: note_on channel=1 note=35 velocity=120 time=0.0013888854166666665
EXTRACT: note_on channel=2 note=54 velocity=67 time=0
EXTRACT: note_on channel=9 note=46 velocity=59 time=0
EXTRACT: note_on channel=9 note=35 velocity=112 time=0
EXTRACT: note_on channel=10 note=63 velocity=77 time=0
EXTRACT: note_on channel=10 note=75 velocity=77 time=0
EXTRACT: note_on channel=15 note=54 velocity=69 time=0
EXTRACT: note_on channel=11 note=54 velocity=48 time=0.005555541666666666
EXTRACT: control_change channel=15 control=11 value=107 time=0.008333312499999999
EXTRACT: note_on channel=9 note=54 velocity=0 time=0.016666624999999997
EXTRACT: note_on channel=9 note=46 velocity=0 time=0
EXTRACT: note_on channel=9 note=35 velocity=0 time=0
EXTRACT: note_on channel=12 note=70 velocity=0 time=0.0013888854166666665
EXTRACT: note_on channel=2 note=54 velocity=0 time=0.0013888854166666665
EXTRACT: control_change channel=15 control=11 value=103 time=0.022222166666666664
EXTRACT: control_change channel=12 control=11 value=93 time=0.02777770833333333
EXTRACT: control_change channel=15 control=11 value=99 time=0.013888854166666666
EXTRACT: control_change channel=15 control=11 value=95 time=0.0416665625
EXTRACT: note_on channel=13 note=66 velocity=0 time=0.016666624999999997
EXTRACT: control_change channel=15 control=11 value=91 time=0.03194436458333333
EXTRACT: note_on channel=15 note=59 velocity=0 time=0.02083328125
EXTRACT: note_on channel=11 note=59 velocity=0 time=0.09166643749999999
EXTRACT: note_on channel=10 note=61 velocity=72 time=0.005555541666666666
EXTRACT: control_change channel=15 control=11 value=127 time=0
EXTRACT: note_on channel=1 note=35 velocity=0 time=0.0013888854166666665
EXTRACT: note_on channel=13 note=63 velocity=0 time=0.004166656249999999
EXTRACT: note_on channel=8 note=59 velocity=0 time=0.0013888854166666665
EXTRACT: control_change channel=2 control=64 value=0 time=0
EXTRACT: note_on channel=13 note=71 velocity=0 time=0
EXTRACT: note_on channel=11 note=54 velocity=0 time=0.005555541666666666
EXTRACT: note_on channel=10 note=63 velocity=0 time=0.004166656249999999
EXTRACT: note_on channel=10 note=75 velocity=0 time=0
EXTRACT: note_on channel=8 note=66 velocity=0 time=0.011111083333333332
EXTRACT: note_on channel=1 note=30 velocity=115 time=0
EXTRACT: note_on channel=8 note=61 velocity=68 time=0
EXTRACT: note_on channel=9 note=46 velocity=77 time=0
EXTRACT: note_on channel=9 note=54 velocity=50 time=0
EXTRACT: note_on channel=9 note=35 velocity=125 time=0
EXTRACT: note_on channel=10 note=73 velocity=76 time=0
EXTRACT: note_on channel=13 note=61 velocity=44 time=0
EXTRACT: note_on channel=13 note=66 velocity=54 time=0
EXTRACT: note_on channel=13 note=70 velocity=46 time=0
EXTRACT: note_on channel=2 note=42 velocity=61 time=0.004166656249999999
EXTRACT: note_on channel=12 note=61 velocity=63 time=0
EXTRACT: note_on channel=15 note=42 velocity=62 time=0
EXTRACT: note_on channel=11 note=54 velocity=66 time=0.0013888854166666665
EXTRACT: note_on channel=12 note=63 velocity=0 time=0.006944427083333333
EXTRACT: note_on channel=9 note=46 velocity=0 time=0.018055510416666663
EXTRACT: note_on channel=9 note=54 velocity=0 time=0
EXTRACT: note_on channel=9 note=35 velocity=0 time=0
EXTRACT: control_change channel=2 control=64 value=100 time=0
EXTRACT: control_change channel=12 control=11 value=92 time=0.05277764583333333
EXTRACT: note_on channel=2 note=42 velocity=0 time=0.07222204166666665
EXTRACT: control_change channel=12 control=11 value=93 time=0.011111083333333332
EXTRACT: note_on channel=15 note=54 velocity=0 time=0.083333125
EXTRACT: control_change channel=12 control=11 value=91 time=0
EXTRACT: note_on channel=15 note=42 velocity=0 time=0.06805538541666666
EXTRACT: note_on channel=8 note=66 velocity=74 time=0.011111083333333332
EXTRACT: note_on channel=2 note=49 velocity=47 time=0.0013888854166666665
EXTRACT: note_on channel=15 note=49 velocity=48 time=0
EXTRACT: note_on channel=9 note=46 velocity=64 time=0.002777770833333333
EXTRACT: note_on channel=9 note=54 velocity=32 time=0
EXTRACT: note_on channel=11 note=58 velocity=75 time=0.006944427083333333
EXTRACT: note_on channel=2 note=49 velocity=0 time=0.002777770833333333
EXTRACT: note_on channel=9 note=46 velocity=0 time=0.02083328125
EXTRACT: note_on channel=9 note=54 velocity=0 time=0
EXTRACT: control_change channel=12 control=11 value=90 time=0.05277764583333333
EXTRACT: note_on channel=8 note=61 velocity=0 time=0.06805538541666666
EXTRACT: control_change channel=12 control=11 value=89 time=0.09861086458333332
EXTRACT: note_on channel=12 note=61 velocity=0 time=0.030555479166666663
EXTRACT: note_on channel=11 note=54 velocity=0 time=0.011111083333333332
EXTRACT: note_on channel=12 note=63 velocity=63 time=0.019444395833333333
EXTRACT: note_on channel=1 note=30 velocity=0 time=0.011111083333333332
EXTRACT: note_on channel=8 note=61 velocity=71 time=0.006944427083333333
EXTRACT: note_on channel=9 note=46 velocity=76 time=0.004166656249999999
EXTRACT: note_on channel=9 note=54 velocity=50 time=0
EXTRACT: note_on channel=11 note=54 velocity=69 time=0.0013888854166666665
EXTRACT: note_on channel=9 note=39 velocity=115 time=0.0013888854166666665
EXTRACT: note_on channel=15 note=49 velocity=0 time=0.0013888854166666665
EXTRACT: note_on channel=9 note=85 velocity=78 time=0.005555541666666666
EXTRACT: note_on channel=9 note=28 velocity=72 time=0
EXTRACT: note_on channel=2 note=58 velocity=79 time=0.005555541666666666
EXTRACT: note_on channel=15 note=58 velocity=83 time=0
EXTRACT: note_on channel=2 note=54 velocity=65 time=0.002777770833333333
EXTRACT: note_on channel=15 note=54 velocity=68 time=0
EXTRACT: note_on channel=9 note=46 velocity=0 time=0.012499968749999998
EXTRACT: note_on channel=9 note=54 velocity=0 time=0.0013888854166666665
EXTRACT: note_on channel=9 note=39 velocity=0 time=0.002777770833333333
EXTRACT: note_on channel=9 note=85 velocity=0 time=0.006944427083333333
EXTRACT: note_on channel=9 note=28 velocity=0 time=0
EXTRACT: note_on channel=2 note=54 velocity=0 time=0.009722197916666666
EXTRACT: note_on channel=9 note=85 velocity=127 time=0
EXTRACT: note_on channel=2 note=58 velocity=0 time=0.03194436458333333
EXTRACT: note_on channel=9 note=85 velocity=0 time=0
EXTRACT: control_change channel=12 control=11 value=89 time=0
EXTRACT: note_on channel=10 note=61 velocity=0 time=0.04444433333333333
EXTRACT: control_change channel=15 control=11 value=127 time=0.018055510416666663
EXTRACT: note_on channel=10 note=73 velocity=0 time=0.009722197916666666
EXTRACT: control_change channel=15 control=11 value=123 time=0.03194436458333333
EXTRACT: control_change channel=15 control=11 value=119 time=0.0416665625
EXTRACT: note_on channel=15 note=58 velocity=0 time=0.002777770833333333
EXTRACT: note_on channel=8 note=66 velocity=0 time=0.002777770833333333
EXTRACT: control_change channel=12 control=11 value=87 time=0.015277739583333332
EXTRACT: control_change channel=15 control=11 value=114 time=0.02083328125
EXTRACT: note_on channel=11 note=54 velocity=0 time=0.02361105208333333
EXTRACT: note_on channel=11 note=58 velocity=0 time=0.006944427083333333
EXTRACT: note_on channel=10 note=61 velocity=80 time=0.004166656249999999
EXTRACT: note_on channel=12 note=63 velocity=0 time=0.006944427083333333
EXTRACT: control_change channel=15 control=11 value=111 time=0
EXTRACT: note_on channel=12 note=61 velocity=63 time=0.0013888854166666665
EXTRACT: note_on channel=15 note=54 velocity=0 time=0.006944427083333333
EXTRACT: note_on channel=1 note=30 velocity=114 time=0.012499968749999998
EXTRACT: note_on channel=2 note=54 velocity=55 time=0
EXTRACT: note_on channel=8 note=65 velocity=71 time=0
EXTRACT: note_on channel=9 note=46 velocity=52 time=0
EXTRACT: note_on channel=9 note=35 velocity=113 time=0
EXTRACT: note_on channel=9 note=54 velocity=36 time=0
EXTRACT: note_on channel=10 note=73 velocity=84 time=0
EXTRACT: note_on channel=15 note=54 velocity=57 time=0
EXTRACT: note_on channel=11 note=61 velocity=68 time=0.0013888854166666665
EXTRACT: control_change channel=15 control=11 value=106 time=0.019444395833333333
EXTRACT: note_on channel=9 note=46 velocity=0 time=0.009722197916666666
EXTRACT: note_on channel=9 note=35 velocity=0 time=0
EXTRACT: note_on channel=9 note=54 velocity=0 time=0
EXTRACT: note_on channel=2 note=54 velocity=0 time=0.002777770833333333
EXTRACT: control_change channel=15 control=11 value=102 time=0.029166593749999997
EXTRACT: control_change channel=12 control=11 value=87 time=0.02083328125
EXTRACT: control_change channel=15 control=11 value=99 time=0.02083328125
EXTRACT: note_on channel=10 note=63 velocity=93 time=0.03472213541666666
EXTRACT: control_change channel=15 control=11 value=94 time=0.006944427083333333
EXTRACT: note_on channel=10 note=61 velocity=0 time=0.008333312499999999
EXTRACT: note_on channel=10 note=75 velocity=96 time=0.012499968749999998
EXTRACT: note_on channel=10 note=73 velocity=0 time=0.015277739583333332
EXTRACT: control_change channel=15 control=11 value=91 time=0.012499968749999998
EXTRACT: control_change channel=12 control=11 value=85 time=0.05555541666666666
EXTRACT: note_on channel=10 note=63 velocity=0 time=0.04444433333333333
EXTRACT: control_change channel=2 control=64 value=0 time=0.006944427083333333
EXTRACT: note_on channel=10 note=65 velocity=100 time=0.004166656249999999
EXTRACT: control_change channel=15 control=11 value=126 time=0.006944427083333333
EXTRACT: note_on channel=15 note=54 velocity=0 time=0.008333312499999999
EXTRACT: note_on channel=1 note=30 velocity=0 time=0.0013888854166666665
EXTRACT: note_on channel=10 note=75 velocity=0 time=0
EXTRACT: note_on channel=11 note=49 velocity=69 time=0.004166656249999999
EXTRACT: note_on channel=1 note=25 velocity=115 time=0.006944427083333333
EXTRACT: note_on channel=2 note=49 velocity=61 time=0
EXTRACT: note_on channel=9 note=46 velocity=75 time=0
EXTRACT: note_on channel=9 note=54 velocity=52 time=0
EXTRACT: note_on channel=10 note=77 velocity=105 time=0
EXTRACT: note_on channel=13 note=65 velocity=55 time=0
EXTRACT: note_on channel=13 note=68 velocity=46 time=0
EXTRACT: note_on channel=15 note=49 velocity=62 time=0
EXTRACT: control_change channel=12 control=11 value=85 time=0
EXTRACT: note_on channel=13 note=66 velocity=0 time=0.012499968749999998
EXTRACT: note_on channel=2 note=56 velocity=55 time=0.008333312499999999
EXTRACT: note_on channel=15 note=56 velocity=57 time=0
EXTRACT: control_change channel=2 control=64 value=100 time=0
EXTRACT: note_on channel=9 note=46 velocity=0 time=0.009722197916666666
EXTRACT: note_on channel=9 note=54 velocity=0 time=0.0013888854166666665
EXTRACT: note_on channel=13 note=70 velocity=0 time=0.0013888854166666665
EXTRACT: note_on channel=2 note=56 velocity=0 time=0.02083328125
EXTRACT: control_change channel=12 control=11 value=83 time=0.11249971874999999
EXTRACT: note_on channel=15 note=56 velocity=0 time=0.002777770833333333
EXTRACT: note_on channel=2 note=49 velocity=0 time=0.013888854166666666
EXTRACT: note_on channel=8 note=61 velocity=0 time=0.05555541666666666
EXTRACT: note_on channel=15 note=49 velocity=0 time=0.006944427083333333
EXTRACT: note_on channel=1 note=25 velocity=0 time=0.02083328125
EXTRACT: note_on channel=10 note=65 velocity=0 time=0.004166656249999999
EXTRACT: note_on channel=12 note=61 velocity=0 time=0.013888854166666666
EXTRACT: note_on channel=10 note=77 velocity=0 time=0.013888854166666666
EXTRACT: note_on channel=12 note=59 velocity=71 time=0.002777770833333333
EXTRACT: note_on channel=10 note=66 velocity=81 time=0.004166656249999999
EXTRACT: note_on channel=2 note=56 velocity=55 time=0.016666624999999997
EXTRACT: note_on channel=15 note=56 velocity=56 time=0
EXTRACT: note_on channel=1 note=25 velocity=114 time=0.011111083333333332
EXTRACT: note_on channel=8 note=61 velocity=71 time=0
EXTRACT: note_on channel=9 note=46 velocity=51 time=0
EXTRACT: note_on channel=9 note=54 velocity=42 time=0
EXTRACT: note_on channel=10 note=78 velocity=84 time=0
EXTRACT: control_change channel=12 control=11 value=83 time=0
EXTRACT: note_on channel=2 note=49 velocity=47 time=0
EXTRACT: note_on channel=3 note=73 velocity=110 time=0
EXTRACT: note_on channel=15 note=49 velocity=48 time=0
EXTRACT: note_on channel=2 note=56 velocity=0 time=0.016666624999999997
EXTRACT: note_on channel=9 note=46 velocity=0 time=0.006944427083333333
EXTRACT: note_on channel=9 note=54 velocity=0 time=0
EXTRACT: note_on channel=2 note=49 velocity=0 time=0.02083328125
EXTRACT: note_on channel=10 note=66 velocity=0 time=0.07638869791666666
EXTRACT: note_on channel=10 note=68 velocity=80 time=0.011111083333333332
EXTRACT: note_on channel=8 note=65 velocity=0 time=0.016666624999999997
EXTRACT: note_on channel=10 note=78 velocity=0 time=0
EXTRACT: note_on channel=10 note=80 velocity=87 time=0.011111083333333332
EXTRACT: control_change channel=12 control=11 value=81 time=0
EXTRACT: note_on channel=15 note=56 velocity=0 time=0.016666624999999997
EXTRACT: note_on channel=3 note=73 velocity=0 time=0.018055510416666663
EXTRACT: note_on channel=11 note=61 velocity=0 time=0.03472213541666666
EXTRACT: note_on channel=1 note=25 velocity=0 time=0.03472213541666666
EXTRACT: note_on channel=10 note=68 velocity=0 time=0.02361105208333333
EXTRACT: note_on channel=10 note=70 velocity=86 time=0.011111083333333332
EXTRACT: note_on channel=11 note=49 velocity=0 time=0.0013888854166666665
EXTRACT: note_on channel=12 note=58 velocity=81 time=0.012499968749999998
EXTRACT: note_on channel=12 note=59 velocity=0 time=0.002777770833333333
EXTRACT: note_on channel=10 note=80 velocity=0 time=0
EXTRACT: note_on channel=1 note=25 velocity=115 time=0.011111083333333332
EXTRACT: note_on channel=9 note=28 velocity=72 time=0
EXTRACT: note_on channel=9 note=39 velocity=115 time=0
EXTRACT: note_on channel=9 note=46 velocity=75 time=0
EXTRACT: note_on channel=9 note=54 velocity=53 time=0
EXTRACT: note_on channel=10 note=82 velocity=86 time=0
EXTRACT: control_change channel=12 control=11 value=81 time=0
EXTRACT: note_on channel=8 note=65 velocity=86 time=0.0013888854166666665
EXTRACT: note_on channel=11 note=56 velocity=79 time=0.0013888854166666665
EXTRACT: note_on channel=3 note=73 velocity=111 time=0
EXTRACT: note_on channel=2 note=56 velocity=85 time=0.004166656249999999
EXTRACT: note_on channel=15 note=56 velocity=89 time=0
EXTRACT: note_on channel=9 note=85 velocity=78 time=0.0013888854166666665
EXTRACT: note_on channel=9 note=28 velocity=0 time=0.013888854166666666
EXTRACT: note_on channel=9 note=39 velocity=0 time=0
EXTRACT: note_on channel=9 note=46 velocity=0 time=0
EXTRACT: note_on channel=9 note=54 velocity=0 time=0.0013888854166666665
EXTRACT: note_on channel=2 note=56 velocity=0 time=0.009722197916666666
EXTRACT: note_on channel=9 note=85 velocity=0 time=0.006944427083333333
EXTRACT: note_on channel=9 note=85 velocity=127 time=0.009722197916666666
EXTRACT: note_on channel=9 note=85 velocity=0 time=0.03194436458333333
EXTRACT: note_on channel=15 note=49 velocity=0 time=0.02361105208333333
EXTRACT: control_change channel=15 control=11 value=127 time=0.004166656249999999
EXTRACT: note_on channel=8 note=65 velocity=0 time=0.02777770833333333
EXTRACT: note_on channel=8 note=66 velocity=72 time=0.008333312499999999
EXTRACT: control_change channel=15 control=11 value=122 time=0.005555541666666666
EXTRACT: control_change channel=12 control=11 value=79 time=0.006944427083333333
EXTRACT: control_change channel=15 control=11 value=118 time=0.03472213541666666
EXTRACT: note_on channel=8 note=61 velocity=0 time=0.03749990625
EXTRACT: control_change channel=15 control=11 value=115 time=0.004166656249999999
EXTRACT: note_on channel=3 note=73 velocity=0 time=0.0013888854166666665
EXTRACT: note_on channel=1 note=25 velocity=0 time=0.026388822916666665
EXTRACT: control_change channel=15 control=11 value=111 time=0.013888854166666666
EXTRACT: note_on channel=10 note=65 velocity=63 time=0.02083328125
EXTRACT: note_on channel=10 note=70 velocity=0 time=0.009722197916666666
EXTRACT: note_on channel=15 note=56 velocity=0 time=0.009722197916666666
EXTRACT: control_change channel=15 control=11 value=107 time=0.0013888854166666665
EXTRACT: note_on channel=12 note=56 velocity=77 time=0.004166656249999999
EXTRACT: note_on channel=1 note=25 velocity=114 time=0.002777770833333333
EXTRACT: note_on channel=9 note=46 velocity=59 time=0
EXTRACT: note_on channel=9 note=35 velocity=117 time=0
EXTRACT: note_on channel=9 note=54 velocity=43 time=0
EXTRACT: note_on channel=10 note=73 velocity=67 time=0
EXTRACT: control_change channel=12 control=11 value=79 time=0
EXTRACT: note_on channel=2 note=49 velocity=43 time=0.004166656249999999
EXTRACT: note_on channel=15 note=49 velocity=45 time=0
EXTRACT: note_on channel=2 note=53 velocity=64 time=0.002777770833333333
EXTRACT: note_on channel=8 note=61 velocity=74 time=0
EXTRACT: note_on channel=15 note=53 velocity=69 time=0
EXTRACT: note_on channel=2 note=53 velocity=0 time=0.0013888854166666665
EXTRACT: note_on channel=10 note=82 velocity=0 time=0.0013888854166666665
EXTRACT: note_on channel=3 note=73 velocity=110 time=0
EXTRACT: note_on channel=12 note=58 velocity=0 time=0.009722197916666666
EXTRACT: note_on channel=9 note=46 velocity=0 time=0.009722197916666666
EXTRACT: note_on channel=9 note=35 velocity=0 time=0
EXTRACT: note_on channel=9 note=54 velocity=0 time=0
EXTRACT: control_change channel=15 control=11 value=102 time=0.004166656249999999
EXTRACT: note_on channel=2 note=49 velocity=0 time=0.016666624999999997
EXTRACT: control_change channel=15 control=11 value=98 time=0.024999937499999996
EXTRACT: control_change channel=12 control=11 value=77 time=0.006944427083333333
EXTRACT: control_change channel=15 control=11 value=94 time=0.03472213541666666
EXTRACT: note_on channel=13 note=61 velocity=0 time=0.03749990625
EXTRACT: control_change channel=15 control=11 value=90 time=0.011111083333333332
EXTRACT: note_on channel=15 note=49 velocity=0 time=0.030555479166666663
EXTRACT: note_on channel=3 note=73 velocity=0 time=0.0013888854166666665
EXTRACT: control_change channel=12 control=11 value=77 time=0.05138876041666666
EXTRACT: control_change channel=2 control=64 value=0 time=0.030555479166666663
EXTRACT: note_on channel=11 note=56 velocity=0 time=0.011111083333333332
EXTRACT: note_on channel=10 note=65 velocity=0 time=0.02361105208333333
EXTRACT: note_on channel=8 note=66 velocity=0 time=0.002777770833333333
EXTRACT: note_on channel=8 note=61 velocity=0 time=0.004166656249999999
EXTRACT: note_on channel=13 note=65 velocity=0 time=0
EXTRACT: note_on channel=13 note=68 velocity=0 time=0
EXTRACT: note_on channel=1 note=25 velocity=0 time=0
EXTRACT: note_on channel=12 note=56 velocity=0 time=0.0013888854166666665
EXTRACT: note_on channel=15 note=53 velocity=0 time=0.0013888854166666665
EXTRACT: control_change channel=15 control=11 value=127 time=0.0013888854166666665
EXTRACT: note_on channel=1 note=27 velocity=118 time=0.006944427083333333
EXTRACT: note_on channel=4 note=61 velocity=1 time=0
EXTRACT: note_on channel=4 note=66 velocity=1 time=0
EXTRACT: note_on channel=8 note=58 velocity=58 time=0
EXTRACT: note_on channel=9 note=49 velocity=73 time=0
EXTRACT: note_on channel=9 note=35 velocity=121 time=0
EXTRACT: note_on channel=10 note=75 velocity=68 time=0
EXTRACT: note_on channel=11 note=51 velocity=66 time=0
EXTRACT: note_on channel=13 note=61 velocity=19 time=0
EXTRACT: note_on channel=2 note=39 velocity=57 time=0.004166656249999999
EXTRACT: note_on channel=15 note=39 velocity=60 time=0
EXTRACT: note_on channel=15 note=51 velocity=68 time=0.002777770833333333
EXTRACT: note_on channel=10 note=73 velocity=0 time=0.002777770833333333
EXTRACT: note_on channel=13 note=66 velocity=32 time=0.004166656249999999
EXTRACT: note_on channel=12 note=58 velocity=85 time=0.0013888854166666665
EXTRACT: note_on channel=3 note=70 velocity=110 time=0
EXTRACT: note_on channel=13 note=70 velocity=42 time=0.002777770833333333
EXTRACT: control_change channel=2 control=64 value=100 time=0
EXTRACT: note_on channel=10 note=78 velocity=67 time=0.0013888854166666665
EXTRACT: note_on channel=9 note=49 velocity=0 time=0.008333312499999999
EXTRACT: note_on channel=9 note=35 velocity=0 time=0
EXTRACT: control_change channel=12 control=11 value=75 time=0.05277764583333333
EXTRACT: note_on channel=2 note=39 velocity=0 time=0.07222204166666665
EXTRACT: note_on channel=3 note=70 velocity=0 time=0.07361092708333332
EXTRACT: control_change channel=12 control=11 value=75 time=0.02083328125
EXTRACT: note_on channel=4 note=66 velocity=0 time=0.07083315624999999
EXTRACT: note_on channel=15 note=51 velocity=0 time=0.004166656249999999
EXTRACT: note_on channel=3 note=70 velocity=111 time=0
EXTRACT: note_on channel=4 note=66 velocity=1 time=0.002777770833333333
EXTRACT: note_on channel=9 note=46 velocity=65 time=0
EXTRACT: note_on channel=9 note=54 velocity=35 time=0
EXTRACT: note_on channel=11 note=61 velocity=63 time=0
EXTRACT: note_on channel=8 note=66 velocity=75 time=0.004166656249999999
EXTRACT: note_on channel=2 note=54 velocity=48 time=0.002777770833333333
EXTRACT: note_on channel=15 note=54 velocity=50 time=0
EXTRACT: note_on channel=2 note=54 velocity=0 time=0.013888854166666666
EXTRACT: note_on channel=9 note=46 velocity=0 time=0.009722197916666666
EXTRACT: note_on channel=9 note=54 velocity=0 time=0
EXTRACT: control_change channel=12 control=11 value=73 time=0.05277764583333333
EXTRACT: control_change channel=12 control=11 value=73 time=0.083333125
EXTRACT: note_on channel=3 note=70 velocity=0 time=0.05138876041666666
EXTRACT: note_on channel=8 note=58 velocity=0 time=0.03194436458333333
EXTRACT: note_on channel=15 note=39 velocity=0 time=0.030555479166666663
EXTRACT: note_on channel=12 note=58 velocity=0 time=0.03194436458333333
EXTRACT: note_on channel=4 note=66 velocity=0 time=0.008333312499999999
EXTRACT: note_on channel=1 note=27 velocity=0 time=0.0013888854166666665
EXTRACT: note_on channel=11 note=51 velocity=0 time=0
EXTRACT: note_on channel=15 note=54 velocity=0 time=0.006944427083333333
EXTRACT: note_on channel=3 note=70 velocity=110 time=0
EXTRACT: note_on channel=8 note=61 velocity=70 time=0
EXTRACT: note_on channel=4 note=66 velocity=1 time=0.004166656249999999
EXTRACT: note_on channel=9 note=46 velocity=77 time=0
EXTRACT: note_on channel=9 note=54 velocity=49 time=0
EXTRACT: note_on channel=11 note=54 velocity=73 time=0
EXTRACT: control_change channel=12 control=11 value=83 time=0
EXTRACT: note_on channel=9 note=39 velocity=113 time=0.002777770833333333
EXTRACT: note_on channel=2 note=58 velocity=64 time=0.004166656249999999
EXTRACT: note_on channel=15 note=58 velocity=68 time=0
EXTRACT: note_on channel=12 note=61 velocity=81 time=0.0013888854166666665
EXTRACT: note_on channel=9 note=85 velocity=79 time=0.0013888854166666665
EXTRACT: note_on channel=9 note=28 velocity=69 time=0
EXTRACT: note_on channel=2 note=61 velocity=85 time=0.016666624999999997
EXTRACT: note_on channel=15 note=61 velocity=87 time=0
EXTRACT: note_on channel=9 note=46 velocity=0 time=0.004166656249999999
EXTRACT: note_on channel=9 note=54 velocity=0 time=0
EXTRACT: note_on channel=9 note=39 velocity=0 time=0.004166656249999999
EXTRACT: note_on channel=9 note=85 velocity=0 time=0.006944427083333333
EXTRACT: note_on channel=9 note=28 velocity=0 time=0
EXTRACT: note_on channel=2 note=61 velocity=0 time=0
EXTRACT: note_on channel=2 note=58 velocity=0 time=0.009722197916666666
EXTRACT: note_on channel=9 note=85 velocity=127 time=0
EXTRACT: note_on channel=9 note=85 velocity=0 time=0.03194436458333333
EXTRACT: control_change channel=12 control=11 value=85 time=0.083333125
EXTRACT: control_change channel=15 control=11 value=126 time=0
EXTRACT: note_on channel=11 note=61 velocity=0 time=0.009722197916666666
EXTRACT: control_change channel=15 control=11 value=122 time=0.03194436458333333
EXTRACT: control_change channel=15 control=11 value=119 time=0.0416665625
EXTRACT: note_on channel=10 note=75 velocity=0 time=0.009722197916666666
EXTRACT: note_on channel=3 note=70 velocity=0 time=0.005555541666666666
EXTRACT: note_on channel=10 note=73 velocity=63 time=0.019444395833333333
EXTRACT: control_change channel=15 control=11 value=115 time=0.006944427083333333
EXTRACT: note_on channel=10 note=80 velocity=66 time=0.02777770833333333
EXTRACT: note_on channel=4 note=66 velocity=0 time=0.0013888854166666665
EXTRACT: note_on channel=4 note=61 velocity=0 time=0.0013888854166666665
EXTRACT: note_on channel=8 note=61 velocity=0 time=0.002777770833333333
EXTRACT: note_on channel=3 note=71 velocity=111 time=0
EXTRACT: note_on channel=8 note=59 velocity=70 time=0.004166656249999999
EXTRACT: note_on channel=10 note=78 velocity=0 time=0.004166656249999999
EXTRACT: note_on channel=1 note=34 velocity=121 time=0
EXTRACT: note_on channel=4 note=63 velocity=1 time=0
EXTRACT: note_on channel=4 note=68 velocity=1 time=0
EXTRACT: note_on channel=9 note=46 velocity=53 time=0
EXTRACT: note_on channel=9 note=54 velocity=39 time=0
EXTRACT: note_on channel=9 note=35 velocity=111 time=0
EXTRACT: note_on channel=11 note=61 velocity=65 time=0
EXTRACT: control_change channel=12 control=11 value=89 time=0
EXTRACT: control_change channel=15 control=11 value=110 time=0
EXTRACT: note_on channel=15 note=58 velocity=0 time=0.016666624999999997
EXTRACT: note_on channel=2 note=54 velocity=64 time=0.0013888854166666665
EXTRACT: note_on channel=15 note=54 velocity=68 time=0
EXTRACT: note_on channel=9 note=46 velocity=0 time=0.012499968749999998
EXTRACT: note_on channel=9 note=54 velocity=0 time=0
EXTRACT: note_on channel=9 note=35 velocity=0 time=0
EXTRACT: control_change channel=15 control=11 value=106 time=0.011111083333333332
EXTRACT: note_on channel=2 note=54 velocity=0 time=0.02083328125
EXTRACT: control_change channel=15 control=11 value=103 time=0.02083328125
EXTRACT: control_change channel=15 control=11 value=98 time=0.0416665625
EXTRACT: note_on channel=8 note=66 velocity=0 time=0.02777770833333333
EXTRACT: control_change channel=12 control=11 value=93 time=0.013888854166666666
EXTRACT: control_change channel=15 control=11 value=94 time=0
EXTRACT: note_on channel=15 note=61 velocity=0 time=0.03749990625
EXTRACT: control_change channel=15 control=11 value=91 time=0.011111083333333332
EXTRACT: note_on channel=3 note=71 velocity=0 time=0.012499968749999998
EXTRACT: note_on channel=13 note=61 velocity=0 time=0.022222166666666664
EXTRACT: note_on channel=15 note=54 velocity=0 time=0.016666624999999997
EXTRACT: note_on channel=11 note=54 velocity=0 time=0.019444395833333333
EXTRACT: note_on channel=10 note=75 velocity=67 time=0.02361105208333333
EXTRACT: control_change channel=2 control=64 value=0 time=0.002777770833333333
EXTRACT: note_on channel=4 note=63 velocity=0 time=0.008333312499999999
EXTRACT: note_on channel=4 note=68 velocity=0 time=0
EXTRACT: note_on channel=13 note=70 velocity=0 time=0.0013888854166666665
EXTRACT: note_on channel=1 note=34 velocity=0 time=0
EXTRACT: note_on channel=11 note=61 velocity=0 time=0
EXTRACT: note_on channel=3 note=70 velocity=110 time=0
EXTRACT: note_on channel=8 note=66 velocity=69 time=0
EXTRACT: note_on channel=1 note=35 velocity=121 time=0.004166656249999999
EXTRACT: note_on channel=4 note=61 velocity=1 time=0
EXTRACT: note_on channel=4 note=66 velocity=1 time=0
EXTRACT: note_on channel=9 note=46 velocity=75 time=0
EXTRACT: note_on channel=9 note=35 velocity=121 time=0
EXTRACT: note_on channel=9 note=54 velocity=51 time=0
EXTRACT: note_on channel=11 note=59 velocity=73 time=0
EXTRACT: note_on channel=13 note=63 velocity=41 time=0
EXTRACT: note_on channel=13 note=71 velocity=43 time=0
EXTRACT: control_change channel=12 control=11 value=96 time=0
EXTRACT: control_change channel=15 control=11 value=127 time=0
EXTRACT: note_on channel=10 note=73 velocity=0 time=0.0013888854166666665
EXTRACT: note_on channel=2 note=47 velocity=69 time=0.002777770833333333
EXTRACT: note_on channel=15 note=47 velocity=70 time=0
EXTRACT: note_on channel=12 note=63 velocity=83 time=0.002777770833333333
EXTRACT: note_on channel=10 note=78 velocity=67 time=0.002777770833333333
EXTRACT: control_change channel=2 control=64 value=100 time=0
EXTRACT: note_on channel=12 note=61 velocity=0 time=0
EXTRACT: note_on channel=10 note=80 velocity=0 time=0.008333312499999999
EXTRACT: note_on channel=2 note=59 velocity=64 time=0
EXTRACT: note_on channel=15 note=59 velocity=69 time=0
EXTRACT: note_on channel=9 note=46 velocity=0 time=0.012499968749999998
EXTRACT: note_on channel=9 note=35 velocity=0 time=0
EXTRACT: note_on channel=9 note=54 velocity=0 time=0
EXTRACT: note_on channel=2 note=59 velocity=0 time=0.03194436458333333
EXTRACT: control_change channel=12 control=11 value=99 time=0.10416640625
EXTRACT: note_on channel=2 note=47 velocity=0 time=0.02083328125
EXTRACT: note_on channel=3 note=70 velocity=0 time=0.06249984374999999
EXTRACT: note_on channel=8 note=59 velocity=0 time=0.009722197916666666
EXTRACT: note_on channel=11 note=59 velocity=0 time=0.05138876041666666
EXTRACT: note_on channel=4 note=61 velocity=0 time=0.009722197916666666
EXTRACT: note_on channel=4 note=66 velocity=0 time=0
EXTRACT: note_on channel=8 note=59 velocity=63 time=0.006944427083333333
EXTRACT: note_on channel=15 note=59 velocity=0 time=0.0013888854166666665
EXTRACT: note_on channel=3 note=68 velocity=111 time=0
EXTRACT: note_on channel=11 note=61 velocity=73 time=0.002777770833333333
EXTRACT: note_on channel=4 note=59 velocity=1 time=0.0013888854166666665
EXTRACT: note_on channel=4 note=63 velocity=1 time=0
EXTRACT: note_on channel=9 note=46 velocity=51 time=0
EXTRACT: note_on channel=9 note=54 velocity=37 time=0
EXTRACT: control_change channel=12 control=11 value=102 time=0
EXTRACT: note_on channel=15 note=47 velocity=0 time=0.002777770833333333
EXTRACT: note_on channel=2 note=51 velocity=53 time=0.004166656249999999
EXTRACT: note_on channel=15 note=51 velocity=57 time=0
EXTRACT: note_on channel=2 note=54 velocity=52 time=0.02083328125
EXTRACT: note_on channel=15 note=54 velocity=56 time=0
EXTRACT: note_on channel=9 note=46 velocity=0 time=0.002777770833333333
EXTRACT: note_on channel=9 note=54 velocity=0 time=0
EXTRACT: note_on channel=2 note=51 velocity=0 time=0.02083328125
EXTRACT: note_on channel=2 note=54 velocity=0 time=0.02083328125
EXTRACT: note_on channel=4 note=59 velocity=0 time=0.083333125
EXTRACT: note_on channel=4 note=63 velocity=0 time=0
EXTRACT: note_on channel=4 note=58 velocity=1 time=0.011111083333333332
EXTRACT: note_on channel=4 note=61 velocity=1 time=0
EXTRACT: control_change channel=12 control=11 value=106 time=0
EXTRACT: note_on channel=15 note=54 velocity=0 time=0.07222204166666665
EXTRACT: note_on channel=3 note=68 velocity=0 time=0.011111083333333332
EXTRACT: note_on channel=8 note=66 velocity=0 time=0.009722197916666666
EXTRACT: note_on channel=15 note=51 velocity=0 time=0.013888854166666666
EXTRACT: note_on channel=1 note=35 velocity=0 time=0.048610989583333326
EXTRACT: note_on channel=4 note=58 velocity=0 time=0
EXTRACT: note_on channel=4 note=61 velocity=0 time=0
EXTRACT: note_on channel=8 note=66 velocity=70 time=0.006944427083333333
EXTRACT: note_on channel=2 note=54 velocity=64 time=0.0013888854166666665
EXTRACT: note_on channel=15 note=54 velocity=68 time=0
EXTRACT: note_on channel=11 note=61 velocity=0 time=0.002777770833333333
EXTRACT: note_on channel=9 note=46 velocity=74 time=0
EXTRACT: note_on channel=9 note=54 velocity=51 time=0
EXTRACT: note_on channel=11 note=59 velocity=75 time=0
EXTRACT: control_change channel=12 control=11 value=111 time=0
EXTRACT: note_on channel=9 note=39 velocity=114 time=0.002777770833333333
EXTRACT: note_on channel=2 note=59 velocity=79 time=0
EXTRACT: note_on channel=3 note=66 velocity=110 time=0
EXTRACT: note_on channel=15 note=59 velocity=83 time=0
EXTRACT: note_on channel=9 note=85 velocity=72 time=0.004166656249999999
EXTRACT: note_on channel=9 note=28 velocity=73 time=0
EXTRACT: note_on channel=2 note=59 velocity=0 time=0.011111083333333332
EXTRACT: note_on channel=2 note=54 velocity=0 time=0.009722197916666666
EXTRACT: note_on channel=9 note=46 velocity=0 time=0
EXTRACT: note_on channel=9 note=54 velocity=0 time=0
EXTRACT: note_on channel=9 note=39 velocity=0 time=0.004166656249999999
EXTRACT: note_on channel=9 note=85 velocity=0 time=0.006944427083333333
EXTRACT: note_on channel=9 note=28 velocity=0 time=0
EXTRACT: note_on channel=9 note=85 velocity=126 time=0.009722197916666666
EXTRACT: note_on channel=9 note=85 velocity=0 time=0.03194436458333333
EXTRACT: control_change channel=15 control=11 value=126 time=0.05555541666666666
EXTRACT: control_change channel=12 control=11 value=112 time=0.02777770833333333
EXTRACT: control_change channel=15 control=11 value=123 time=0.013888854166666666
EXTRACT: control_change channel=15 control=11 value=119 time=0.0416665625
EXTRACT: note_on channel=8 note=59 velocity=0 time=0.006944427083333333
EXTRACT: note_on channel=3 note=66 velocity=0 time=0.030555479166666663
EXTRACT: control_change channel=15 control=11 value=114 time=0.004166656249999999
EXTRACT: note_on channel=15 note=54 velocity=0 time=0.016666624999999997
EXTRACT: control_change channel=15 control=11 value=111 time=0.024999937499999996
EXTRACT: note_on channel=15 note=59 velocity=0 time=0.02361105208333333
EXTRACT: note_on channel=8 note=59 velocity=70 time=0
EXTRACT: note_on channel=9 note=54 velocity=35 time=0.002777770833333333
EXTRACT: note_on channel=1 note=35 velocity=121 time=0.0013888854166666665
EXTRACT: note_on channel=9 note=46 velocity=58 time=0
EXTRACT: note_on channel=9 note=35 velocity=113 time=0
EXTRACT: control_change channel=12 control=11 value=117 time=0
EXTRACT: note_on channel=3 note=68 velocity=110 time=0
EXTRACT: note_on channel=11 note=54 velocity=49 time=0.004166656249999999
EXTRACT: note_on channel=2 note=51 velocity=51 time=0.0013888854166666665
EXTRACT: note_on channel=15 note=51 velocity=52 time=0
EXTRACT: control_change channel=15 control=11 value=107 time=0.005555541666666666
EXTRACT: note_on channel=2 note=54 velocity=51 time=0.013888854166666666
EXTRACT: note_on channel=15 note=54 velocity=52 time=0
EXTRACT: note_on channel=9 note=54 velocity=0 time=0.002777770833333333
EXTRACT: note_on channel=9 note=46 velocity=0 time=0
EXTRACT: note_on channel=9 note=35 velocity=0 time=0
EXTRACT: note_on channel=2 note=51 velocity=0 time=0.011111083333333332
EXTRACT: control_change channel=15 control=11 value=103 time=0.013888854166666666
EXTRACT: note_on channel=2 note=54 velocity=0 time=0.006944427083333333
EXTRACT: control_change channel=15 control=11 value=99 time=0.03472213541666666
EXTRACT: control_change channel=15 control=11 value=95 time=0.0416665625
EXTRACT: control_change channel=12 control=11 value=120 time=0.02777770833333333
EXTRACT: note_on channel=3 note=68 velocity=0 time=0.02083328125
EXTRACT: note_on channel=13 note=66 velocity=0 time=0.05138876041666666
EXTRACT: note_on channel=15 note=51 velocity=0 time=0.02083328125
EXTRACT: note_on channel=1 note=35 velocity=0 time=0.03194436458333333
EXTRACT: note_on channel=11 note=59 velocity=0 time=0.008333312499999999
EXTRACT: control_change channel=15 control=11 value=127 time=0.005555541666666666
EXTRACT: note_on channel=13 note=63 velocity=0 time=0.005555541666666666
EXTRACT: note_on channel=8 note=59 velocity=0 time=0.0013888854166666665
EXTRACT: control_change channel=2 control=64 value=0 time=0
EXTRACT: note_on channel=10 note=73 velocity=61 time=0.004166656249999999
EXTRACT: note_on channel=11 note=54 velocity=0 time=0.0013888854166666665
EXTRACT: note_on channel=13 note=71 velocity=0 time=0.004166656249999999
EXTRACT: note_on channel=12 note=63 velocity=0 time=0.004166656249999999
EXTRACT: note_on channel=10 note=75 velocity=0 time=0.005555541666666666
EXTRACT: note_on channel=8 note=66 velocity=0 time=0.0013888854166666665
EXTRACT: note_on channel=4 note=61 velocity=1 time=0
EXTRACT: note_on channel=4 note=66 velocity=1 time=0
EXTRACT: note_on channel=8 note=61 velocity=69 time=0
EXTRACT: note_on channel=9 note=46 velocity=76 time=0
EXTRACT: note_on channel=9 note=54 velocity=50 time=0
EXTRACT: note_on channel=9 note=35 velocity=125 time=0
EXTRACT: note_on channel=13 note=61 velocity=35 time=0
EXTRACT: note_on channel=13 note=66 velocity=40 time=0
EXTRACT: note_on channel=13 note=70 velocity=36 time=0
EXTRACT: control_change channel=12 control=11 value=127 time=0
EXTRACT: note_on channel=2 note=42 velocity=60 time=0.004166656249999999
EXTRACT: note_on channel=15 note=42 velocity=63 time=0
EXTRACT: note_on channel=11 note=54 velocity=67 time=0.0013888854166666665
EXTRACT: note_on channel=1 note=42 velocity=122 time=0.0013888854166666665
EXTRACT: note_on channel=3 note=70 velocity=111 time=0
EXTRACT: note_on channel=12 note=61 velocity=67 time=0.009722197916666666
EXTRACT: note_on channel=9 note=46 velocity=0 time=0.012499968749999998
EXTRACT: note_on channel=9 note=54 velocity=0 time=0
EXTRACT: note_on channel=9 note=35 velocity=0 time=0
EXTRACT: control_change channel=2 control=64 value=100 time=0
EXTRACT: note_on channel=2 note=42 velocity=0 time=0.12499968749999998
EXTRACT: note_on channel=15 note=54 velocity=0 time=0.048610989583333326
EXTRACT: note_on channel=3 note=70 velocity=0 time=0.05555541666666666
EXTRACT: note_on channel=15 note=42 velocity=0 time=0.048610989583333326
EXTRACT: note_on channel=2 note=54 velocity=48 time=0.011111083333333332
EXTRACT: note_on channel=15 note=54 velocity=51 time=0
EXTRACT: note_on channel=4 note=66 velocity=0 time=0.0013888854166666665
EXTRACT: note_on channel=3 note=70 velocity=111 time=0
EXTRACT: note_on channel=8 note=66 velocity=74 time=0.005555541666666666
EXTRACT: note_on channel=2 note=49 velocity=48 time=0.0013888854166666665
EXTRACT: note_on channel=15 note=49 velocity=50 time=0
EXTRACT: note_on channel=2 note=54 velocity=0 time=0.002777770833333333
EXTRACT: note_on channel=4 note=66 velocity=1 time=0
EXTRACT: note_on channel=9 note=46 velocity=57 time=0
EXTRACT: note_on channel=9 note=54 velocity=32 time=0
EXTRACT: note_on channel=11 note=58 velocity=75 time=0.006944427083333333
EXTRACT: note_on channel=2 note=49 velocity=0 time=0.002777770833333333
EXTRACT: note_on channel=9 note=46 velocity=0 time=0.02083328125
EXTRACT: note_on channel=9 note=54 velocity=0 time=0
EXTRACT: note_on channel=8 note=61 velocity=0 time=0.12083303124999999
EXTRACT: note_on channel=3 note=70 velocity=0 time=0.08749978124999999
EXTRACT: note_on channel=15 note=54 velocity=0 time=0.013888854166666666
EXTRACT: note_on channel=11 note=54 velocity=0 time=0.038888791666666665
EXTRACT: note_on channel=1 note=42 velocity=0 time=0.009722197916666666
EXTRACT: note_on channel=4 note=66 velocity=0 time=0.019444395833333333
EXTRACT: note_on channel=8 note=61 velocity=70 time=0.008333312499999999
EXTRACT: note_on channel=4 note=66 velocity=1 time=0.004166656249999999
EXTRACT: note_on channel=9 note=46 velocity=80 time=0
EXTRACT: note_on channel=9 note=54 velocity=51 time=0
EXTRACT: note_on channel=11 note=54 velocity=69 time=0.0013888854166666665
EXTRACT: note_on channel=9 note=39 velocity=114 time=0.0013888854166666665
EXTRACT: note_on channel=15 note=49 velocity=0 time=0.0013888854166666665
EXTRACT: note_on channel=9 note=85 velocity=78 time=0.005555541666666666
EXTRACT: note_on channel=9 note=28 velocity=72 time=0
EXTRACT: note_on channel=2 note=58 velocity=50 time=0
EXTRACT: note_on channel=3 note=70 velocity=111 time=0
EXTRACT: note_on channel=15 note=58 velocity=77 time=0
EXTRACT: note_on channel=2 note=54 velocity=83 time=0.002777770833333333
EXTRACT: note_on channel=15 note=54 velocity=87 time=0
EXTRACT: note_on channel=9 note=46 velocity=0 time=0.012499968749999998
EXTRACT: note_on channel=9 note=54 velocity=0 time=0.0013888854166666665
EXTRACT: note_on channel=9 note=39 velocity=0 time=0.002777770833333333
EXTRACT: note_on channel=9 note=85 velocity=0 time=0.006944427083333333
EXTRACT: note_on channel=9 note=28 velocity=0 time=0
EXTRACT: note_on channel=12 note=66 velocity=59 time=0.002777770833333333
EXTRACT: note_on channel=12 note=61 velocity=0 time=0.006944427083333333
EXTRACT: note_on channel=2 note=54 velocity=0 time=0
EXTRACT: note_on channel=9 note=85 velocity=127 time=0
EXTRACT: note_on channel=2 note=58 velocity=0 time=0.03194436458333333
EXTRACT: note_on channel=9 note=85 velocity=0 time=0
EXTRACT: control_change channel=15 control=11 value=127 time=0.06249984374999999
EXTRACT: control_change channel=15 control=11 value=123 time=0.0416665625
EXTRACT: control_change channel=15 control=11 value=119 time=0.0416665625
EXTRACT: note_on channel=8 note=66 velocity=0 time=0.005555541666666666
EXTRACT: control_change channel=15 control=11 value=115 time=0.03611102083333333
EXTRACT: note_on channel=3 note=70 velocity=0 time=0.009722197916666666
EXTRACT: note_on channel=15 note=58 velocity=0 time=0.006944427083333333
EXTRACT: note_on channel=11 note=54 velocity=0 time=0.006944427083333333
EXTRACT: note_on channel=11 note=58 velocity=0 time=0.006944427083333333
EXTRACT: control_change channel=15 control=11 value=111 time=0.011111083333333332
EXTRACT: note_on channel=4 note=66 velocity=0 time=0.008333312499999999
EXTRACT: note_on channel=4 note=61 velocity=0 time=0.0013888854166666665
EXTRACT: note_on channel=15 note=54 velocity=0 time=0.006944427083333333
EXTRACT: note_on channel=1 note=42 velocity=102 time=0.004166656249999999
EXTRACT: note_on channel=4 note=63 velocity=1 time=0
EXTRACT: note_on channel=4 note=68 velocity=1 time=0
EXTRACT: note_on channel=8 note=65 velocity=71 time=0
EXTRACT: note_on channel=9 note=46 velocity=61 time=0
EXTRACT: note_on channel=9 note=35 velocity=112 time=0
EXTRACT: note_on channel=9 note=54 velocity=36 time=0
EXTRACT: note_on channel=11 note=61 velocity=69 time=0.0013888854166666665
EXTRACT: note_on channel=2 note=54 velocity=82 time=0.005555541666666666
EXTRACT: note_on channel=15 note=54 velocity=86 time=0
EXTRACT: note_on channel=3 note=71 velocity=110 time=0
EXTRACT: control_change channel=15 control=11 value=107 time=0.004166656249999999
EXTRACT: note_on channel=9 note=46 velocity=0 time=0.009722197916666666
EXTRACT: note_on channel=9 note=35 velocity=0 time=0
EXTRACT: note_on channel=9 note=54 velocity=0 time=0
EXTRACT: note_on channel=2 note=54 velocity=0 time=0.011111083333333332
EXTRACT: control_change channel=15 control=11 value=103 time=0.02083328125
EXTRACT: control_change channel=15 control=11 value=99 time=0.0416665625
EXTRACT: control_change channel=15 control=11 value=95 time=0.0416665625
EXTRACT: note_on channel=1 note=42 velocity=0 time=0.030555479166666663
EXTRACT: control_change channel=15 control=11 value=91 time=0.018055510416666663
EXTRACT: note_on channel=3 note=71 velocity=0 time=0.03472213541666666
EXTRACT: control_change channel=2 control=64 value=0 time=0.07222204166666665
EXTRACT: control_change channel=15 control=11 value=127 time=0.011111083333333332
EXTRACT: note_on channel=15 note=54 velocity=0 time=0.008333312499999999
EXTRACT: note_on channel=4 note=63 velocity=0 time=0
EXTRACT: note_on channel=4 note=68 velocity=0 time=0
EXTRACT: note_on channel=13 note=70 velocity=0 time=0.0013888854166666665
EXTRACT: note_on channel=12 note=68 velocity=64 time=0.002777770833333333
EXTRACT: note_on channel=11 note=49 velocity=69 time=0.0013888854166666665
EXTRACT: control_change channel=2 control=64 value=100 time=0
EXTRACT: note_on channel=12 note=66 velocity=0 time=0.004166656249999999
EXTRACT: note_on channel=1 note=37 velocity=122 time=0.002777770833333333
EXTRACT: note_on channel=2 note=49 velocity=60 time=0
EXTRACT: note_on channel=2 note=56 velocity=79 time=0
EXTRACT: note_on channel=4 note=61 velocity=1 time=0
EXTRACT: note_on channel=4 note=66 velocity=1 time=0
EXTRACT: note_on channel=9 note=46 velocity=80 time=0
EXTRACT: note_on channel=9 note=35 velocity=121 time=0
EXTRACT: note_on channel=9 note=54 velocity=52 time=0
EXTRACT: note_on channel=13 note=65 velocity=44 time=0
EXTRACT: note_on channel=13 note=68 velocity=34 time=0
EXTRACT: note_on channel=15 note=56 velocity=83 time=0
EXTRACT: note_on channel=10 note=78 velocity=0 time=0.004166656249999999
EXTRACT: note_on channel=2 note=49 velocity=0 time=0.0013888854166666665
EXTRACT: note_on channel=13 note=66 velocity=0 time=0.006944427083333333
EXTRACT: note_on channel=3 note=70 velocity=110 time=0
EXTRACT: note_on channel=2 note=61 velocity=79 time=0.004166656249999999
EXTRACT: note_on channel=15 note=61 velocity=83 time=0
EXTRACT: note_on channel=2 note=56 velocity=0 time=0.004166656249999999
EXTRACT: note_on channel=9 note=46 velocity=0 time=0.005555541666666666
EXTRACT: note_on channel=9 note=35 velocity=0 time=0
EXTRACT: note_on channel=9 note=54 velocity=0 time=0.0013888854166666665
EXTRACT: note_on channel=10 note=77 velocity=65 time=0.006944427083333333
EXTRACT: note_on channel=2 note=61 velocity=0 time=0.006944427083333333
EXTRACT: note_on channel=8 note=61 velocity=0 time=0.19305507291666665
EXTRACT: note_on channel=15 note=61 velocity=0 time=0.02083328125
EXTRACT: note_on channel=15 note=56 velocity=0 time=0.02083328125
EXTRACT: note_on channel=3 note=70 velocity=0 time=0.02083328125
EXTRACT: note_on channel=4 note=61 velocity=0 time=0.019444395833333333
EXTRACT: note_on channel=4 note=66 velocity=0 time=0
EXTRACT: note_on channel=2 note=56 velocity=52 time=0.012499968749999998
EXTRACT: note_on channel=2 note=61 velocity=84 time=0
EXTRACT: note_on channel=4 note=59 velocity=1 time=0
EXTRACT: note_on channel=4 note=63 velocity=1 time=0
EXTRACT: note_on channel=8 note=61 velocity=71 time=0
EXTRACT: note_on channel=9 note=46 velocity=60 time=0
EXTRACT: note_on channel=9 note=54 velocity=43 time=0
EXTRACT: note_on channel=15 note=56 velocity=57 time=0
EXTRACT: note_on channel=15 note=61 velocity=89 time=0
EXTRACT: control_change channel=15 control=11 value=127 time=0.006944427083333333
EXTRACT: note_on channel=2 note=56 velocity=0 time=0.002777770833333333
EXTRACT: note_on channel=2 note=61 velocity=0 time=0.015277739583333332
EXTRACT: note_on channel=3 note=68 velocity=110 time=0
EXTRACT: note_on channel=9 note=46 velocity=0 time=0.004166656249999999
EXTRACT: note_on channel=9 note=54 velocity=0 time=0
EXTRACT: control_change channel=15 control=11 value=123 time=0.018055510416666663
EXTRACT: control_change channel=15 control=11 value=119 time=0.0416665625
EXTRACT: control_change channel=15 control=11 value=115 time=0.0416665625
EXTRACT: note_on channel=8 note=65 velocity=0 time=0.02361105208333333
EXTRACT: note_on channel=4 note=59 velocity=0 time=0
EXTRACT: note_on channel=4 note=63 velocity=0 time=0
EXTRACT: note_on channel=4 note=58 velocity=1 time=0.011111083333333332
EXTRACT: note_on channel=4 note=61 velocity=1 time=0
EXTRACT: control_change channel=15 control=11 value=111 time=0.006944427083333333
EXTRACT: control_change channel=15 control=11 value=106 time=0.0416665625
EXTRACT: note_on channel=11 note=61 velocity=0 time=0.02083328125
EXTRACT: control_change channel=15 control=11 value=103 time=0.02083328125
EXTRACT: note_on channel=3 note=68 velocity=0 time=0.026388822916666665
EXTRACT: control_change channel=15 control=11 value=98 time=0.015277739583333332
EXTRACT: note_on channel=11 note=49 velocity=0 time=0.008333312499999999
EXTRACT: note_on channel=15 note=56 velocity=0 time=0.013888854166666666
EXTRACT: note_on channel=15 note=61 velocity=0 time=0
EXTRACT: note_on channel=1 note=37 velocity=0 time=0.0013888854166666665
EXTRACT: note_on channel=2 note=56 velocity=52 time=0.011111083333333332
EXTRACT: note_on channel=2 note=61 velocity=63 time=0
EXTRACT: note_on channel=9 note=46 velocity=80 time=0
EXTRACT: note_on channel=9 note=54 velocity=53 time=0
EXTRACT: note_on channel=15 note=56 velocity=57 time=0
EXTRACT: note_on channel=15 note=61 velocity=67 time=0
EXTRACT: note_on channel=9 note=39 velocity=113 time=0.002777770833333333
EXTRACT: note_on channel=11 note=56 velocity=79 time=0
EXTRACT: control_change channel=15 control=11 value=94 time=0.004166656249999999
EXTRACT: note_on channel=2 note=56 velocity=0 time=0.002777770833333333
EXTRACT: note_on channel=9 note=85 velocity=73 time=0
EXTRACT: note_on channel=9 note=28 velocity=68 time=0
EXTRACT: note_on channel=8 note=65 velocity=88 time=0.0013888854166666665
EXTRACT: note_on channel=2 note=61 velocity=0 time=0.013888854166666666
EXTRACT: note_on channel=9 note=46 velocity=0 time=0.005555541666666666
EXTRACT: note_on channel=9 note=54 velocity=0 time=0.0013888854166666665
EXTRACT: note_on channel=9 note=39 velocity=0 time=0.002777770833333333
EXTRACT: note_on channel=9 note=85 velocity=0 time=0.006944427083333333
EXTRACT: note_on channel=9 note=28 velocity=0 time=0
EXTRACT: note_on channel=9 note=85 velocity=127 time=0.009722197916666666
EXTRACT: control_change channel=15 control=11 value=91 time=0.004166656249999999
EXTRACT: note_on channel=9 note=85 velocity=0 time=0.02777770833333333
EXTRACT: note_on channel=8 note=65 velocity=0 time=0.06249984374999999
EXTRACT: note_on channel=4 note=58 velocity=0 time=0.009722197916666666
EXTRACT: note_on channel=4 note=61 velocity=0 time=0
EXTRACT: note_on channel=8 note=66 velocity=67 time=0.009722197916666666
EXTRACT: note_on channel=8 note=61 velocity=0 time=0.07361092708333332
EXTRACT: control_change channel=15 control=11 value=126 time=0.05972207291666666
EXTRACT: note_on channel=15 note=56 velocity=0 time=0.022222166666666664
EXTRACT: note_on channel=15 note=61 velocity=0 time=0
EXTRACT: note_on channel=1 note=37 velocity=120 time=0.012499968749999998
EXTRACT: note_on channel=2 note=49 velocity=52 time=0
EXTRACT: note_on channel=9 note=46 velocity=63 time=0
EXTRACT: note_on channel=9 note=35 velocity=114 time=0
EXTRACT: note_on channel=9 note=54 velocity=43 time=0
EXTRACT: note_on channel=15 note=49 velocity=55 time=0
EXTRACT: note_on channel=8 note=61 velocity=73 time=0.006944427083333333
EXTRACT: note_on channel=2 note=56 velocity=61 time=0.008333312499999999
EXTRACT: note_on channel=15 note=56 velocity=65 time=0
EXTRACT: note_on channel=9 note=46 velocity=0 time=0.015277739583333332
EXTRACT: note_on channel=9 note=35 velocity=0 time=0
EXTRACT: note_on channel=9 note=54 velocity=0 time=0
EXTRACT: note_on channel=3 note=66 velocity=110 time=0
EXTRACT: note_on channel=2 note=56 velocity=0 time=0.011111083333333332
EXTRACT: note_on channel=13 note=61 velocity=0 time=0.11388860416666666
EXTRACT: note_on channel=1 note=37 velocity=0 time=0
EXTRACT: note_on channel=3 note=66 velocity=0 time=0.08055535416666666
EXTRACT: note_on channel=8 note=61 velocity=0 time=0.016666624999999997
EXTRACT: control_change channel=2 control=64 value=0 time=0.02777770833333333
EXTRACT: note_on channel=8 note=66 velocity=0 time=0.005555541666666666
EXTRACT: note_on channel=15 note=49 velocity=0 time=0.0013888854166666665
EXTRACT: note_on channel=10 note=73 velocity=0 time=0.004166656249999999
EXTRACT: note_on channel=11 note=56 velocity=0 time=0
EXTRACT: note_on channel=13 note=68 velocity=0 time=0.016666624999999997
EXTRACT: note_on channel=10 note=77 velocity=0 time=0.009722197916666666
EXTRACT: note_on channel=12 note=68 velocity=0 time=0.004166656249999999
EXTRACT: note_on channel=15 note=56 velocity=0 time=0.002777770833333333
EXTRACT: note_on channel=9 note=54 velocity=49 time=0.006944427083333333
EXTRACT: note_on channel=1 note=35 velocity=123 time=0.0013888854166666665
EXTRACT: note_on channel=2 note=47 velocity=57 time=0
EXTRACT: note_on channel=8 note=61 velocity=52 time=0
EXTRACT: note_on channel=9 note=46 velocity=77 time=0
EXTRACT: note_on channel=9 note=35 velocity=121 time=0
EXTRACT: note_on channel=11 note=47 velocity=83 time=0
EXTRACT: note_on channel=13 note=59 velocity=17 time=0
EXTRACT: note_on channel=13 note=61 velocity=30 time=0.006944427083333333
EXTRACT: note_on channel=3 note=70 velocity=111 time=0
EXTRACT: note_on channel=13 note=65 velocity=0 time=0.004166656249999999
EXTRACT: note_on channel=13 note=66 velocity=21 time=0.0013888854166666665
EXTRACT: note_on channel=2 note=58 velocity=50 time=0.004166656249999999
EXTRACT: note_on channel=15 note=58 velocity=53 time=0
EXTRACT: control_change channel=2 control=64 value=100 time=0.002777770833333333
EXTRACT: note_on channel=8 note=66 velocity=81 time=0.002777770833333333
EXTRACT: note_on channel=2 note=61 velocity=51 time=0.004166656249999999
EXTRACT: note_on channel=10 note=75 velocity=67 time=0
EXTRACT: note_on channel=15 note=61 velocity=53 time=0
EXTRACT: note_on channel=9 note=54 velocity=0 time=0.002777770833333333
EXTRACT: note_on channel=8 note=61 velocity=0 time=0
EXTRACT: note_on channel=9 note=46 velocity=0 time=0
EXTRACT: note_on channel=9 note=35 velocity=0 time=0
EXTRACT: note_on channel=2 note=58 velocity=0 time=0
EXTRACT: note_on channel=10 note=66 velocity=73 time=0.006944427083333333
EXTRACT: note_on channel=2 note=61 velocity=0 time=0.004166656249999999
EXTRACT: note_on channel=2 note=47 velocity=0 time=0.009722197916666666
EXTRACT: note_on channel=8 note=66 velocity=0 time=0.004166656249999999
EXTRACT: note_on channel=11 note=54 velocity=67 time=0.011111083333333332
EXTRACT: control_change channel=12 control=11 value=64 time=0.09999974999999998
EXTRACT: note_on channel=15 note=58 velocity=0 time=0.02361105208333333
EXTRACT: control_change channel=12 control=11 value=28 time=0.05972207291666666
EXTRACT: note_on channel=3 note=70 velocity=0 time=0.030555479166666663
EXTRACT: note_on channel=15 note=61 velocity=0 time=0.04444433333333333
EXTRACT: note_on channel=8 note=54 velocity=61 time=0
EXTRACT: note_on channel=9 note=46 velocity=65 time=0.008333312499999999
EXTRACT: note_on channel=9 note=54 velocity=35 time=0
EXTRACT: control_change channel=12 control=11 value=31 time=0
EXTRACT: note_on channel=2 note=54 velocity=51 time=0.002777770833333333
EXTRACT: note_on channel=15 note=54 velocity=55 time=0
EXTRACT: note_on channel=15 note=47 velocity=51 time=0.004166656249999999
EXTRACT: note_on channel=3 note=70 velocity=110 time=0
EXTRACT: note_on channel=2 note=54 velocity=0 time=0.006944427083333333
EXTRACT: note_on channel=8 note=54 velocity=0 time=0.006944427083333333
EXTRACT: note_on channel=9 note=46 velocity=0 time=0.006944427083333333
EXTRACT: note_on channel=9 note=54 velocity=0 time=0
EXTRACT: note_on channel=2 note=47 velocity=46 time=0.004166656249999999
EXTRACT: note_on channel=2 note=47 velocity=0 time=0.012499968749999998
EXTRACT: control_change channel=10 control=11 value=127 time=0.03611102083333333
EXTRACT: control_change channel=12 control=11 value=36 time=0
EXTRACT: control_change channel=10 control=11 value=127 time=0.083333125
EXTRACT: control_change channel=12 control=11 value=41 time=0
EXTRACT: note_on channel=3 note=70 velocity=0 time=0.05138876041666666
EXTRACT: note_on channel=15 note=54 velocity=0 time=0.006944427083333333
EXTRACT: control_change channel=10 control=11 value=123 time=0.024999937499999996
EXTRACT: control_change channel=12 control=11 value=45 time=0
EXTRACT: note_on channel=1 note=35 velocity=0 time=0.04444433333333333
EXTRACT: note_on channel=15 note=47 velocity=0 time=0.012499968749999998
EXTRACT: note_on channel=9 note=46 velocity=77 time=0.026388822916666665
EXTRACT: note_on channel=9 note=54 velocity=49 time=0
EXTRACT: control_change channel=10 control=11 value=119 time=0
EXTRACT: control_change channel=12 control=11 value=49 time=0
EXTRACT: note_on channel=12 note=82 velocity=95 time=0.0013888854166666665
EXTRACT: note_on channel=9 note=39 velocity=117 time=0.0013888854166666665
EXTRACT: note_on channel=3 note=70 velocity=110 time=0
EXTRACT: note_on channel=8 note=61 velocity=71 time=0
EXTRACT: note_on channel=9 note=85 velocity=79 time=0.0013888854166666665
EXTRACT: note_on channel=9 note=28 velocity=75 time=0
EXTRACT: note_on channel=2 note=54 velocity=65 time=0.004166656249999999
EXTRACT: note_on channel=15 note=54 velocity=69 time=0
EXTRACT: note_on channel=2 note=61 velocity=79 time=0.006944427083333333
EXTRACT: note_on channel=15 note=61 velocity=81 time=0
EXTRACT: note_on channel=9 note=46 velocity=0 time=0.009722197916666666
EXTRACT: note_on channel=9 note=54 velocity=0 time=0
EXTRACT: note_on channel=9 note=39 velocity=0 time=0.004166656249999999
EXTRACT: note_on channel=2 note=61 velocity=0 time=0.002777770833333333
EXTRACT: note_on channel=8 note=66 velocity=67 time=0.0013888854166666665
EXTRACT: note_on channel=8 note=61 velocity=0 time=0.0013888854166666665
EXTRACT: note_on channel=9 note=85 velocity=0 time=0.0013888854166666665
EXTRACT: note_on channel=9 note=28 velocity=0 time=0
EXTRACT: note_on channel=9 note=85 velocity=127 time=0.009722197916666666
EXTRACT: note_on channel=2 note=54 velocity=0 time=0.006944427083333333
EXTRACT: note_on channel=8 note=66 velocity=0 time=0.012499968749999998
EXTRACT: note_on channel=9 note=85 velocity=0 time=0.012499968749999998
EXTRACT: control_change channel=10 control=11 value=115 time=0
EXTRACT: control_change channel=12 control=11 value=52 time=0
EXTRACT: control_change channel=10 control=11 value=111 time=0.083333125
EXTRACT: control_change channel=12 control=11 value=56 time=0
EXTRACT: control_change channel=15 control=11 value=127 time=0
EXTRACT: note_on channel=11 note=47 velocity=0 time=0.029166593749999997
EXTRACT: control_change channel=15 control=11 value=122 time=0.012499968749999998
EXTRACT: note_on channel=15 note=54 velocity=0 time=0.02361105208333333
EXTRACT: control_change channel=10 control=11 value=107 time=0.018055510416666663
EXTRACT: control_change channel=12 control=11 value=60 time=0
EXTRACT: control_change channel=15 control=11 value=119 time=0
EXTRACT: note_on channel=11 note=54 velocity=0 time=0.016666624999999997
EXTRACT: note_on channel=3 note=70 velocity=0 time=0.004166656249999999
EXTRACT: control_change channel=15 control=11 value=114 time=0.02083328125
EXTRACT: note_on channel=15 note=61 velocity=0 time=0.022222166666666664
EXTRACT: note_on channel=15 note=58 velocity=69 time=0.005555541666666666
EXTRACT: note_on channel=1 note=35 velocity=102 time=0.006944427083333333
EXTRACT: note_on channel=2 note=58 velocity=65 time=0
EXTRACT: note_on channel=9 note=46 velocity=53 time=0.006944427083333333
EXTRACT: note_on channel=9 note=54 velocity=39 time=0
EXTRACT: note_on channel=9 note=35 velocity=113 time=0
EXTRACT: control_change channel=10 control=11 value=103 time=0
EXTRACT: control_change channel=12 control=11 value=64 time=0
EXTRACT: control_change channel=15 control=11 value=110 time=0
EXTRACT: note_on channel=3 note=71 velocity=111 time=0
EXTRACT: note_on channel=11 note=47 velocity=69 time=0.0013888854166666665
EXTRACT: note_on channel=2 note=54 velocity=65 time=0.006944427083333333
EXTRACT: note_on channel=15 note=54 velocity=69 time=0
EXTRACT: note_on channel=11 note=54 velocity=63 time=0.012499968749999998
EXTRACT: note_on channel=9 note=46 velocity=0 time=0.004166656249999999
EXTRACT: note_on channel=9 note=54 velocity=0 time=0
EXTRACT: note_on channel=9 note=35 velocity=0 time=0
EXTRACT: note_on channel=2 note=58 velocity=0 time=0.006944427083333333
EXTRACT: control_change channel=15 control=11 value=107 time=0.004166656249999999
EXTRACT: note_on channel=8 note=54 velocity=53 time=0.008333312499999999
EXTRACT: note_on channel=2 note=54 velocity=0 time=0.008333312499999999
EXTRACT: note_on channel=8 note=54 velocity=0 time=0.02361105208333333
EXTRACT: control_change channel=10 control=11 value=99 time=0.0013888854166666665
EXTRACT: control_change channel=12 control=11 value=69 time=0
EXTRACT: control_change channel=15 control=11 value=103 time=0
EXTRACT: control_change channel=15 control=11 value=99 time=0.0416665625
EXTRACT: control_change channel=10 control=11 value=95 time=0.0416665625
EXTRACT: control_change channel=12 control=11 value=74 time=0
EXTRACT: control_change channel=15 control=11 value=94 time=0
EXTRACT: note_on channel=1 note=35 velocity=0 time=0.002777770833333333
EXTRACT: control_change channel=15 control=11 value=90 time=0.045833218749999995
EXTRACT: control_change channel=10 control=11 value=90 time=0.03472213541666666
EXTRACT: control_change channel=12 control=11 value=78 time=0
EXTRACT: note_on channel=3 note=71 velocity=0 time=0.015277739583333332
EXTRACT: note_on channel=11 note=54 velocity=0 time=0
EXTRACT: note_on channel=15 note=54 velocity=0 time=0.022222166666666664
EXTRACT: note_on channel=11 note=47 velocity=0 time=0.012499968749999998
EXTRACT: note_on channel=15 note=58 velocity=0 time=0.0013888854166666665
EXTRACT: control_change channel=2 control=64 value=0 time=0.011111083333333332
EXTRACT: note_on channel=1 note=35 velocity=122 time=0.02083328125
EXTRACT: note_on channel=2 note=47 velocity=69 time=0
EXTRACT: note_on channel=9 note=46 velocity=75 time=0
EXTRACT: note_on channel=9 note=35 velocity=121 time=0
EXTRACT: note_on channel=9 note=54 velocity=51 time=0
EXTRACT: control_change channel=10 control=11 value=87 time=0
EXTRACT: control_change channel=12 control=11 value=83 time=0
EXTRACT: control_change channel=15 control=11 value=126 time=0
EXTRACT: note_on channel=15 note=61 velocity=67 time=0.002777770833333333
EXTRACT: note_on channel=3 note=70 velocity=111 time=0
EXTRACT: note_on channel=15 note=54 velocity=71 time=0
EXTRACT: note_on channel=2 note=59 velocity=57 time=0.002777770833333333
EXTRACT: control_change channel=2 control=64 value=100 time=0
EXTRACT: note_on channel=2 note=59 velocity=0 time=0.011111083333333332
EXTRACT: note_on channel=11 note=54 velocity=65 time=0.0013888854166666665
EXTRACT: note_on channel=9 note=46 velocity=0 time=0.008333312499999999
EXTRACT: note_on channel=9 note=35 velocity=0 time=0
EXTRACT: note_on channel=9 note=54 velocity=0 time=0
EXTRACT: note_on channel=8 note=61 velocity=63 time=0.006944427083333333
EXTRACT: note_on channel=11 note=47 velocity=63 time=0.002777770833333333
EXTRACT: note_on channel=8 note=66 velocity=63 time=0.011111083333333332
EXTRACT: note_on channel=8 note=61 velocity=0 time=0.016666624999999997
EXTRACT: note_on channel=2 note=47 velocity=0 time=0.004166656249999999
EXTRACT: note_on channel=8 note=66 velocity=0 time=0.011111083333333332
EXTRACT: control_change channel=10 control=11 value=82 time=0
EXTRACT: control_change channel=12 control=11 value=87 time=0
EXTRACT: control_change channel=10 control=11 value=78 time=0.083333125
EXTRACT: control_change channel=12 control=11 value=90 time=0
EXTRACT: note_on channel=15 note=54 velocity=0 time=0.07222204166666665
EXTRACT: control_change channel=10 control=11 value=75 time=0.011111083333333332
EXTRACT: control_change channel=12 control=11 value=94 time=0
EXTRACT: note_on channel=15 note=61 velocity=0 time=0.06805538541666666
EXTRACT: note_on channel=3 note=70 velocity=0 time=0.009722197916666666
EXTRACT: note_on channel=9 note=48 velocity=51 time=0.005555541666666666
EXTRACT: note_on channel=9 note=54 velocity=37 time=0
EXTRACT: control_change channel=10 control=11 value=70 time=0
EXTRACT: control_change channel=12 control=11 value=99 time=0
EXTRACT: note_on channel=2 note=51 velocity=47 time=0.002777770833333333
EXTRACT: note_on channel=15 note=51 velocity=49 time=0
EXTRACT: note_on channel=3 note=68 velocity=110 time=0
EXTRACT: note_on channel=2 note=54 velocity=47 time=0.004166656249999999
EXTRACT: note_on channel=15 note=54 velocity=49 time=0
EXTRACT: note_on channel=9 note=48 velocity=0 time=0.016666624999999997
EXTRACT: note_on channel=9 note=54 velocity=0 time=0
EXTRACT: note_on channel=2 note=51 velocity=0 time=0.016666624999999997
EXTRACT: note_on channel=8 note=54 velocity=59 time=0.002777770833333333
EXTRACT: note_on channel=2 note=54 velocity=0 time=0.008333312499999999
EXTRACT: note_on channel=8 note=54 velocity=0 time=0.02361105208333333
EXTRACT: control_change channel=10 control=11 value=67 time=0.0013888854166666665
EXTRACT: control_change channel=12 control=11 value=102 time=0
EXTRACT: note_on channel=11 note=47 velocity=0 time=0.04444433333333333
EXTRACT: control_change channel=10 control=11 value=62 time=0.038888791666666665
EXTRACT: control_change channel=12 control=11 value=106 time=0
EXTRACT: note_on channel=15 note=51 velocity=0 time=0.016666624999999997
EXTRACT: control_change channel=10 control=11 value=59 time=0.06666649999999999
EXTRACT: control_change channel=12 control=11 value=111 time=0
EXTRACT: note_on channel=3 note=68 velocity=0 time=0.02361105208333333
EXTRACT: note_on channel=15 note=54 velocity=0 time=0.04027767708333333
EXTRACT: note_on channel=9 note=45 velocity=75 time=0.005555541666666666
EXTRACT: note_on channel=1 note=35 velocity=0 time=0.002777770833333333
EXTRACT: note_on channel=2 note=54 velocity=75 time=0.004166656249999999
EXTRACT: note_on channel=2 note=59 velocity=79 time=0.006944427083333333
EXTRACT: note_on channel=9 note=54 velocity=50 time=0
EXTRACT: note_on channel=15 note=66 velocity=83 time=0
EXTRACT: control_change channel=10 control=11 value=54 time=0
EXTRACT: control_change channel=12 control=11 value=115 time=0
EXTRACT: note_on channel=9 note=39 velocity=117 time=0.002777770833333333
EXTRACT: note_on channel=8 note=61 velocity=59 time=0.004166656249999999
EXTRACT: note_on channel=15 note=61 velocity=79 time=0
EXTRACT: note_on channel=3 note=66 velocity=110 time=0
EXTRACT: note_on channel=9 note=85 velocity=72 time=0.0013888854166666665
EXTRACT: note_on channel=9 note=28 velocity=74 time=0
EXTRACT: note_on channel=9 note=45 velocity=0 time=0.006944427083333333
EXTRACT: note_on channel=2 note=59 velocity=0 time=0
EXTRACT: note_on channel=2 note=54 velocity=0 time=0.009722197916666666
EXTRACT: note_on channel=11 note=47 velocity=53 time=0.002777770833333333
EXTRACT: note_on channel=9 note=54 velocity=0 time=0.0013888854166666665
EXTRACT: note_on channel=8 note=66 velocity=55 time=0.0013888854166666665
EXTRACT: note_on channel=9 note=39 velocity=0 time=0.002777770833333333
EXTRACT: note_on channel=8 note=61 velocity=0 time=0.002777770833333333
EXTRACT: note_on channel=9 note=85 velocity=0 time=0.004166656249999999
EXTRACT: note_on channel=9 note=28 velocity=0 time=0
EXTRACT: note_on channel=9 note=85 velocity=127 time=0.009722197916666666
EXTRACT: note_on channel=8 note=66 velocity=0 time=0.011111083333333332
EXTRACT: note_on channel=9 note=85 velocity=0 time=0.02083328125
EXTRACT: control_change channel=10 control=11 value=50 time=0
EXTRACT: control_change channel=12 control=11 value=118 time=0
EXTRACT: control_change channel=15 control=11 value=126 time=0.05555541666666666
EXTRACT: control_change channel=10 control=11 value=47 time=0.02777770833333333
EXTRACT: control_change channel=12 control=11 value=125 time=0
EXTRACT: note_on channel=11 note=54 velocity=0 time=0.012499968749999998
EXTRACT: control_change channel=15 control=11 value=123 time=0.0013888854166666665
EXTRACT: note_on channel=3 note=66 velocity=0 time=0.03749990625
EXTRACT: control_change channel=15 control=11 value=118 time=0.004166656249999999
EXTRACT: control_change channel=10 control=11 value=41 time=0.02777770833333333
EXTRACT: control_change channel=15 control=11 value=114 time=0.013888854166666666
EXTRACT: control_change channel=15 control=11 value=111 time=0.0416665625
EXTRACT: note_on channel=15 note=66 velocity=0 time=0.019444395833333333
EXTRACT: note_on channel=9 note=54 velocity=34 time=0.006944427083333333
EXTRACT: note_on channel=1 note=35 velocity=107 time=0.0013888854166666665
EXTRACT: note_on channel=9 note=41 velocity=75 time=0
EXTRACT: note_on channel=9 note=46 velocity=59 time=0
EXTRACT: note_on channel=9 note=35 velocity=110 time=0
EXTRACT: control_change channel=10 control=11 value=37 time=0
EXTRACT: control_change channel=12 control=11 value=127 time=0
EXTRACT: note_on channel=2 note=49 velocity=39 time=0.002777770833333333
EXTRACT: note_on channel=2 note=54 velocity=39 time=0
EXTRACT: note_on channel=15 note=54 velocity=60 time=0
EXTRACT: note_on channel=3 note=66 velocity=111 time=0
EXTRACT: control_change channel=15 control=11 value=107 time=0.004166656249999999
EXTRACT: note_on channel=11 note=54 velocity=55 time=0.012499968749999998
EXTRACT: note_on channel=9 note=54 velocity=0 time=0.004166656249999999
EXTRACT: note_on channel=9 note=41 velocity=0 time=0
EXTRACT: note_on channel=9 note=46 velocity=0 time=0
EXTRACT: note_on channel=9 note=35 velocity=0 time=0
EXTRACT: note_on channel=8 note=66 velocity=55 time=0
EXTRACT: note_on channel=8 note=61 velocity=59 time=0.004166656249999999
EXTRACT: note_on channel=2 note=49 velocity=0 time=0.012499968749999998
EXTRACT: note_on channel=2 note=54 velocity=0 time=0
EXTRACT: control_change channel=15 control=11 value=102 time=0.008333312499999999
EXTRACT: note_on channel=8 note=66 velocity=0 time=0.006944427083333333
EXTRACT: note_on channel=8 note=61 velocity=0 time=0.002777770833333333
EXTRACT: control_change channel=10 control=11 value=32 time=0.018055510416666663
EXTRACT: control_change channel=15 control=11 value=98 time=0.013888854166666666
EXTRACT: control_change channel=15 control=11 value=95 time=0.0416665625
EXTRACT: note_on channel=1 note=35 velocity=0 time=0.016666624999999997
EXTRACT: control_change channel=10 control=11 value=29 time=0.011111083333333332
EXTRACT: note_on channel=15 note=61 velocity=0 time=0.009722197916666666
EXTRACT: note_on channel=11 note=47 velocity=0 time=0.024999937499999996
EXTRACT: note_on channel=10 note=75 velocity=0 time=0.03749990625
EXTRACT: note_on channel=10 note=66 velocity=0 time=0
EXTRACT: note_on channel=11 note=54 velocity=0 time=0.0013888854166666665
EXTRACT: control_change channel=12 control=11 value=126 time=0.009722197916666666
EXTRACT: control_change channel=2 control=64 value=0 time=0.009722197916666666
EXTRACT: note_on channel=13 note=61 velocity=0 time=0.02083328125
EXTRACT: control_change channel=8 control=64 value=0 time=0.011111083333333332
EXTRACT: control_change channel=15 control=11 value=126 time=0.013888854166666666
EXTRACT: note_on channel=13 note=66 velocity=0 time=0.002777770833333333
EXTRACT: note_on channel=9 note=49 velocity=70 time=0.011111083333333332
EXTRACT: note_on channel=15 note=54 velocity=0 time=0.0013888854166666665
EXTRACT: note_on channel=1 note=35 velocity=123 time=0.012499968749999998
EXTRACT: note_on channel=2 note=54 velocity=53 time=0
EXTRACT: note_on channel=9 note=54 velocity=50 time=0
EXTRACT: note_on channel=9 note=35 velocity=125 time=0
EXTRACT: note_on channel=12 note=78 velocity=72 time=0
EXTRACT: note_on channel=15 note=47 velocity=71 time=0
EXTRACT: control_change channel=12 control=11 value=125 time=0
EXTRACT: note_on channel=11 note=54 velocity=53 time=0.0013888854166666665
EXTRACT: note_on channel=15 note=59 velocity=76 time=0.008333312499999999
EXTRACT: note_on channel=13 note=47 velocity=39 time=0.005555541666666666
EXTRACT: note_on channel=9 note=49 velocity=0 time=0.0013888854166666665
EXTRACT: note_on channel=2 note=59 velocity=57 time=0.011111083333333332
EXTRACT: control_change channel=8 control=64 value=100 time=0
EXTRACT: note_on channel=9 note=54 velocity=0 time=0.002777770833333333
EXTRACT: note_on channel=9 note=35 velocity=0 time=0
EXTRACT: note_on channel=8 note=66 velocity=77 time=0
EXTRACT: note_on channel=8 note=61 velocity=79 time=0.011111083333333332
EXTRACT: note_on channel=11 note=47 velocity=52 time=0.0013888854166666665
EXTRACT: note_on channel=8 note=66 velocity=0 time=0.019444395833333333
EXTRACT: note_on channel=8 note=61 velocity=0 time=0.009722197916666666
EXTRACT: control_change channel=12 control=11 value=119 time=0.011111083333333332
EXTRACT: control_change channel=12 control=11 value=111 time=0.083333125
EXTRACT: control_change channel=12 control=11 value=105 time=0.083333125
EXTRACT: note_on channel=2 note=59 velocity=0 time=0.016666624999999997
EXTRACT: pitchwheel channel=2 pitch=-286 time=0.013888854166666666
EXTRACT: pitchwheel channel=2 pitch=-994 time=0.015277739583333332
EXTRACT: pitchwheel channel=2 pitch=-1573 time=0.013888854166666666
EXTRACT: note_on channel=9 note=49 velocity=1 time=0.009722197916666666
EXTRACT: pitchwheel channel=2 pitch=-2197 time=0.004166656249999999
EXTRACT: control_change channel=12 control=11 value=99 time=0.009722197916666666
EXTRACT: control_change channel=15 control=11 value=126 time=0
EXTRACT: pitchwheel channel=2 pitch=-2483 time=0.005555541666666666
EXTRACT: note_on channel=9 note=49 velocity=0 time=0.011111083333333332
EXTRACT: pitchwheel channel=2 pitch=-2897 time=0.002777770833333333
EXTRACT: note_on channel=2 note=54 velocity=0 time=0.011111083333333332
EXTRACT: pitchwheel channel=2 pitch=-3182 time=0.002777770833333333
EXTRACT: pitchwheel channel=2 pitch=-3679 time=0.013888854166666666
EXTRACT: pitchwheel channel=2 pitch=-4221 time=0.015277739583333332
EXTRACT: note_on channel=12 note=82 velocity=0 time=0.009722197916666666
EXTRACT: pitchwheel channel=2 pitch=-4634 time=0.002777770833333333
EXTRACT: control_change channel=12 control=11 value=93 time=0.008333312499999999
EXTRACT: control_change channel=15 control=11 value=113 time=0
EXTRACT: pitchwheel channel=2 pitch=-4883 time=0.006944427083333333
EXTRACT: pitchwheel channel=2 pitch=-5131 time=0.013888854166666666
EXTRACT: pitchwheel channel=2 pitch=-5379 time=0.012499968749999998
EXTRACT: pitchwheel channel=2 pitch=-5793 time=0.015277739583333332
EXTRACT: pitchwheel channel=2 pitch=-6207 time=0.013888854166666666
EXTRACT: control_change channel=12 control=11 value=87 time=0.02083328125
EXTRACT: control_change channel=15 control=11 value=101 time=0
EXTRACT: note_on channel=11 note=54 velocity=0 time=0.030555479166666663
EXTRACT: pitchwheel channel=2 pitch=-5296 time=0.004166656249999999
EXTRACT: pitchwheel channel=2 pitch=0 time=0.015277739583333332
EXTRACT: control_change channel=12 control=11 value=79 time=0.033333249999999995
EXTRACT: control_change channel=15 control=11 value=88 time=0
EXTRACT: note_on channel=13 note=59 velocity=0 time=0.04444433333333333
EXTRACT: note_on channel=11 note=47 velocity=0 time=0
EXTRACT: control_change channel=12 control=11 value=73 time=0.038888791666666665
EXTRACT: control_change channel=15 control=11 value=77 time=0
EXTRACT: control_change channel=12 control=11 value=67 time=0.083333125
EXTRACT: control_change channel=15 control=11 value=63 time=0
EXTRACT: pitchwheel channel=1 pitch=-1 time=0.018055510416666663
EXTRACT: pitchwheel channel=1 pitch=-414 time=0.013888854166666666
EXTRACT: pitchwheel channel=15 pitch=-332 time=0.002777770833333333
EXTRACT: pitchwheel channel=1 pitch=-828 time=0.011111083333333332
EXTRACT: pitchwheel channel=15 pitch=-911 time=0.004166656249999999
EXTRACT: pitchwheel channel=1 pitch=-1031 time=0.009722197916666666
EXTRACT: pitchwheel channel=15 pitch=-1242 time=0.002777770833333333
EXTRACT: note_on channel=12 note=78 velocity=0 time=0.009722197916666666
EXTRACT: pitchwheel channel=1 pitch=-1573 time=0.0013888854166666665
EXTRACT: pitchwheel channel=15 pitch=-1784 time=0.005555541666666666
EXTRACT: control_change channel=12 control=11 value=61 time=0.004166656249999999
EXTRACT: control_change channel=15 control=11 value=50 time=0
EXTRACT: pitchwheel channel=1 pitch=-1859 time=0.005555541666666666
EXTRACT: pitchwheel channel=15 pitch=-2280 time=0.004166656249999999
EXTRACT: pitchwheel channel=1 pitch=-2318 time=0.009722197916666666
EXTRACT: note_on channel=13 note=47 velocity=0 time=0.002777770833333333
EXTRACT: pitchwheel channel=15 pitch=-2649 time=0
EXTRACT: pitchwheel channel=1 pitch=-2649 time=0.011111083333333332
EXTRACT: pitchwheel channel=15 pitch=-3062 time=0.004166656249999999
EXTRACT: pitchwheel channel=1 pitch=-2934 time=0.009722197916666666
EXTRACT: pitchwheel channel=15 pitch=-3769 time=0.006944427083333333
EXTRACT: pitchwheel channel=1 pitch=-3348 time=0.006944427083333333
EXTRACT: pitchwheel channel=15 pitch=-4221 time=0.005555541666666666
EXTRACT: note_on channel=15 note=59 velocity=0 time=0.004166656249999999
EXTRACT: pitchwheel channel=1 pitch=-4100 time=0.004166656249999999
EXTRACT: control_change channel=12 control=11 value=55 time=0.008333312499999999
EXTRACT: control_change channel=15 control=11 value=39 time=0
EXTRACT: pitchwheel channel=15 pitch=-4800 time=0
EXTRACT: pitchwheel channel=1 pitch=-4552 time=0.006944427083333333
EXTRACT: pitchwheel channel=15 pitch=-5296 time=0.006944427083333333
EXTRACT: pitchwheel channel=1 pitch=-4965 time=0.005555541666666666
EXTRACT: pitchwheel channel=15 pitch=-5793 time=0.008333312499999999
EXTRACT: pitchwheel channel=1 pitch=-5462 time=0.005555541666666666
EXTRACT: pitchwheel channel=15 pitch=-6289 time=0.008333312499999999
EXTRACT: pitchwheel channel=1 pitch=-6041 time=0.006944427083333333
EXTRACT: pitchwheel channel=15 pitch=-6538 time=0.008333312499999999
EXTRACT: note_on channel=15 note=47 velocity=0 time=0.0013888854166666665
EXTRACT: pitchwheel channel=1 pitch=-6620 time=0.004166656249999999
EXTRACT: pitchwheel channel=15 pitch=-6703 time=0.006944427083333333
EXTRACT: control_change channel=12 control=11 value=47 time=0.013888854166666666
EXTRACT: pitchwheel channel=1 pitch=-6455 time=0.006944427083333333
EXTRACT: note_on channel=1 note=35 velocity=0 time=0.008333312499999999
EXTRACT: control_change channel=8 control=64 value=0 time=0.10972194791666666
EXTRACT: note_on channel=3 note=66 velocity=0 time=0.17638844791666664
EXTRACT: control_change channel=3 control=11 value=75 time=0.0416665625
EXTRACT: note_on channel=3 note=66 velocity=110 time=0
EXTRACT: pitchwheel channel=1 pitch=128 time=0.06388872916666666
EXTRACT: control_change channel=15 control=11 value=127 time=0.9749975624999999
EXTRACT: note_on channel=3 note=66 velocity=0 time=0.04444433333333333
EXTRACT: control_change channel=10 control=11 value=126 time=0.024999937499999996
EXTRACT: pitchwheel channel=15 pitch=209 time=0.12499968749999998
EXTRACT: note_on channel=9 note=82 velocity=13 time=0.06944427083333332
EXTRACT: note_on channel=9 note=82 velocity=0 time=0.030555479166666663
EXTRACT: note_on channel=9 note=82 velocity=12 time=0.6361095208333333
EXTRACT: note_on channel=9 note=82 velocity=0 time=0.030555479166666663
EXTRACT: note_on channel=3 note=54 velocity=110 time=0
EXTRACT: note_on channel=3 note=54 velocity=0 time=0.17916621875
EXTRACT: note_on channel=9 note=82 velocity=18 time=0.15138851041666665
EXTRACT: note_on channel=3 note=54 velocity=111 time=0
EXTRACT: note_on channel=9 note=82 velocity=0 time=0.019444395833333333
EXTRACT: note_on channel=3 note=54 velocity=0 time=0.27083265624999997
EXTRACT: note_on channel=3 note=56 velocity=111 time=0
EXTRACT: note_on channel=3 note=56 velocity=0 time=0.24861048958333332
EXTRACT: note_on channel=9 note=82 velocity=19 time=0.08194423958333333
EXTRACT: note_on channel=3 note=58 velocity=110 time=0
EXTRACT: note_on channel=9 note=82 velocity=0 time=0.02777770833333333
EXTRACT: note_on channel=3 note=58 velocity=0 time=0.2652771145833333
EXTRACT: note_on channel=3 note=61 velocity=111 time=0
EXTRACT: note_on channel=8 note=51 velocity=55 time=0.2861103958333333
EXTRACT: note_on channel=2 note=51 velocity=53 time=0.015277739583333332
EXTRACT: note_on channel=8 note=54 velocity=63 time=0.006944427083333333
EXTRACT: note_on channel=15 note=54 velocity=56 time=0.004166656249999999
EXTRACT: note_on channel=1 note=39 velocity=82 time=0.018055510416666663
EXTRACT: note_on channel=8 note=58 velocity=51 time=0.0013888854166666665
EXTRACT: note_on channel=2 note=54 velocity=67 time=0.004166656249999999
EXTRACT: note_on channel=15 note=61 velocity=63 time=0.012499968749999998
EXTRACT: note_on channel=8 note=61 velocity=47 time=0.005555541666666666
EXTRACT: note_on channel=2 note=61 velocity=63 time=0.002777770833333333
EXTRACT: control_change channel=15 control=11 value=127 time=0.2236105520833333
EXTRACT: note_on channel=3 note=61 velocity=0 time=0.05138876041666666
EXTRACT: control_change channel=15 control=11 value=123 time=0.03194436458333333
EXTRACT: note_on channel=3 note=61 velocity=111 time=0
EXTRACT: control_change channel=15 control=11 value=115 time=0.0013888854166666665
EXTRACT: control_change channel=15 control=11 value=109 time=0.0416665625
EXTRACT: control_change channel=15 control=11 value=101 time=0.0416665625
EXTRACT: control_change channel=15 control=11 value=95 time=0.0416665625
EXTRACT: control_change channel=15 control=11 value=87 time=0.0416665625
EXTRACT: control_change channel=15 control=11 value=79 time=0.0416665625
EXTRACT: note_on channel=15 note=61 velocity=0 time=0.022222166666666664
EXTRACT: control_change channel=15 control=11 value=73 time=0.019444395833333333
EXTRACT: note_on channel=8 note=61 velocity=0 time=0.002777770833333333
EXTRACT: note_on channel=8 note=54 velocity=0 time=0.013888854166666666
EXTRACT: note_on channel=8 note=58 velocity=0 time=0
EXTRACT: note_on channel=2 note=61 velocity=0 time=0.002777770833333333
EXTRACT: note_on channel=2 note=51 velocity=0 time=0.006944427083333333
EXTRACT: note_on channel=2 note=54 velocity=0 time=0.005555541666666666
EXTRACT: note_on channel=8 note=54 velocity=55 time=0.015277739583333332
EXTRACT: note_on channel=8 note=51 velocity=0 time=0.0013888854166666665
EXTRACT: note_on channel=8 note=54 velocity=0 time=0.002777770833333333
EXTRACT: note_on channel=8 note=58 velocity=43 time=0.005555541666666666
EXTRACT: note_on channel=8 note=61 velocity=39 time=0.0013888854166666665
EXTRACT: note_on channel=15 note=54 velocity=0 time=0.04305544791666666
EXTRACT: note_on channel=1 note=39 velocity=0 time=0.005555541666666666
EXTRACT: control_change channel=15 control=11 value=127 time=0.17083290624999997
EXTRACT: note_on channel=8 note=51 velocity=51 time=0.09305532291666666
EXTRACT: note_on channel=15 note=54 velocity=40 time=0
EXTRACT: note_on channel=1 note=35 velocity=92 time=0.004166656249999999
EXTRACT: note_on channel=15 note=59 velocity=59 time=0.0013888854166666665
EXTRACT: note_on channel=2 note=59 velocity=67 time=0.006944427083333333
EXTRACT: note_on channel=8 note=54 velocity=60 time=0.005555541666666666
EXTRACT: note_on channel=2 note=54 velocity=61 time=0.0013888854166666665
EXTRACT: note_on channel=2 note=51 velocity=47 time=0.004166656249999999
EXTRACT: note_on channel=8 note=59 velocity=69 time=0.02083328125
EXTRACT: control_change channel=15 control=11 value=127 time=0.5430541979166666
EXTRACT: control_change channel=15 control=11 value=123 time=0.083333125
EXTRACT: control_change channel=15 control=11 value=115 time=0.0416665625
EXTRACT: control_change channel=15 control=11 value=109 time=0.0416665625
EXTRACT: control_change channel=15 control=11 value=101 time=0.0416665625
EXTRACT: control_change channel=15 control=11 value=95 time=0.0416665625
EXTRACT: note_on channel=3 note=61 velocity=0 time=0.030555479166666663
EXTRACT: control_change channel=15 control=11 value=87 time=0.011111083333333332
EXTRACT: control_change channel=15 control=11 value=79 time=0.0416665625
EXTRACT: control_change channel=15 control=11 value=73 time=0.0416665625
EXTRACT: note_on channel=8 note=59 velocity=0 time=0.002777770833333333
EXTRACT: note_on channel=8 note=54 velocity=0 time=0.006944427083333333
EXTRACT: note_on channel=8 note=51 velocity=0 time=0.006944427083333333
EXTRACT: note_on channel=8 note=59 velocity=21 time=0.022222166666666664
EXTRACT: note_on channel=8 note=51 velocity=42 time=0.011111083333333332
EXTRACT: note_on channel=8 note=54 velocity=31 time=0.002777770833333333
EXTRACT: note_on channel=8 note=54 velocity=0 time=0.012499968749999998
EXTRACT: note_on channel=15 note=54 velocity=0 time=0.20138838541666665
EXTRACT: note_on channel=1 note=35 velocity=0 time=0.06388872916666666
EXTRACT: note_on channel=2 note=54 velocity=0 time=0.002777770833333333
EXTRACT: note_on channel=2 note=59 velocity=0 time=0.002777770833333333
EXTRACT: note_on channel=2 note=51 velocity=0 time=0.012499968749999998
EXTRACT: note_on channel=2 note=49 velocity=24 time=0.024999937499999996
EXTRACT: note_on channel=2 note=49 velocity=0 time=0.0013888854166666665
EXTRACT: note_on channel=8 note=51 velocity=25 time=0.0013888854166666665
EXTRACT: note_on channel=8 note=54 velocity=21 time=0.002777770833333333
EXTRACT: note_on channel=8 note=54 velocity=0 time=0.012499968749999998
EXTRACT: note_on channel=15 note=59 velocity=0 time=0.03472213541666666
EXTRACT: control_change channel=15 control=11 value=127 time=0.07361092708333332
EXTRACT: note_on channel=8 note=54 velocity=44 time=0.17222179166666665
EXTRACT: note_on channel=2 note=54 velocity=75 time=0.03194436458333333
EXTRACT: note_on channel=8 note=58 velocity=63 time=0.002777770833333333
EXTRACT: note_on channel=1 note=30 velocity=95 time=0.0013888854166666665
EXTRACT: note_on channel=15 note=54 velocity=56 time=0
EXTRACT: note_on channel=13 note=54 velocity=47 time=0.009722197916666666
EXTRACT: note_on channel=2 note=58 velocity=73 time=0.004166656249999999
EXTRACT: note_on channel=2 note=61 velocity=54 time=0.006944427083333333
EXTRACT: note_on channel=8 note=61 velocity=78 time=0
EXTRACT: note_on channel=10 note=70 velocity=57 time=0
EXTRACT: note_on channel=13 note=58 velocity=46 time=0
EXTRACT: note_on channel=10 note=66 velocity=55 time=0.004166656249999999
EXTRACT: note_on channel=13 note=61 velocity=57 time=0
EXTRACT: note_on channel=15 note=61 velocity=63 time=0.016666624999999997
EXTRACT: control_change channel=15 control=11 value=126 time=0.26388822916666665
EXTRACT: control_change channel=15 control=11 value=123 time=0.005555541666666666
EXTRACT: control_change channel=15 control=11 value=114 time=0.0416665625
EXTRACT: control_change channel=15 control=11 value=108 time=0.0416665625
EXTRACT: control_change channel=15 control=11 value=101 time=0.0416665625
EXTRACT: control_change channel=15 control=11 value=94 time=0.04027767708333333
EXTRACT: note_on channel=8 note=61 velocity=0 time=0.012499968749999998
EXTRACT: note_on channel=8 note=58 velocity=0 time=0.02777770833333333
EXTRACT: control_change channel=15 control=11 value=87 time=0.0013888854166666665
EXTRACT: note_on channel=8 note=54 velocity=0 time=0.009722197916666666
EXTRACT: note_on channel=15 note=61 velocity=0 time=0.022222166666666664
EXTRACT: control_change channel=15 control=11 value=78 time=0.009722197916666666
EXTRACT: note_on channel=2 note=54 velocity=0 time=0.002777770833333333
EXTRACT: note_on channel=2 note=58 velocity=0 time=0
EXTRACT: note_on channel=8 note=61 velocity=32 time=0.022222166666666664
EXTRACT: note_on channel=2 note=58 velocity=24 time=0.0013888854166666665
EXTRACT: note_on channel=2 note=58 velocity=0 time=0.0013888854166666665
EXTRACT: note_on channel=2 note=54 velocity=24 time=0.0013888854166666665
EXTRACT: note_on channel=8 note=54 velocity=39 time=0
EXTRACT: note_on channel=2 note=54 velocity=0 time=0.0013888854166666665
EXTRACT: note_on channel=8 note=58 velocity=34 time=0.0013888854166666665
EXTRACT: control_change channel=15 control=11 value=73 time=0.009722197916666666
EXTRACT: note_on channel=8 note=58 velocity=0 time=0.002777770833333333
EXTRACT: note_on channel=8 note=61 velocity=0 time=0.008333312499999999
EXTRACT: note_on channel=1 note=30 velocity=0 time=0.026388822916666665
EXTRACT: note_on channel=15 note=54 velocity=0 time=0.024999937499999996
EXTRACT: note_on channel=2 note=61 velocity=0 time=0.02777770833333333
EXTRACT: control_change channel=15 control=11 value=126 time=0.18749953125
EXTRACT: note_on channel=2 note=53 velocity=63 time=0.02777770833333333
EXTRACT: note_on channel=10 note=66 velocity=0 time=0.004166656249999999
EXTRACT: note_on channel=2 note=56 velocity=60 time=0.005555541666666666
EXTRACT: note_on channel=1 note=37 velocity=90 time=0.004166656249999999
EXTRACT: note_on channel=8 note=53 velocity=57 time=0.008333312499999999
EXTRACT: note_on channel=8 note=56 velocity=58 time=0.004166656249999999
EXTRACT: note_on channel=8 note=61 velocity=76 time=0.004166656249999999
EXTRACT: note_on channel=2 note=61 velocity=70 time=0.006944427083333333
EXTRACT: note_on channel=13 note=54 velocity=0 time=0.002777770833333333
EXTRACT: note_on channel=10 note=70 velocity=0 time=0.009722197916666666
EXTRACT: note_on channel=13 note=58 velocity=0 time=0
EXTRACT: note_on channel=10 note=68 velocity=57 time=0
EXTRACT: note_on channel=10 note=65 velocity=57 time=0.002777770833333333
EXTRACT: note_on channel=15 note=56 velocity=40 time=0.002777770833333333
EXTRACT: note_on channel=15 note=61 velocity=58 time=0
EXTRACT: note_on channel=13 note=53 velocity=47 time=0.008333312499999999
EXTRACT: note_on channel=13 note=56 velocity=46 time=0.0013888854166666665
EXTRACT: control_change channel=15 control=11 value=124 time=0.24027717708333332
EXTRACT: control_change channel=15 control=11 value=125 time=0.0416665625
EXTRACT: control_change channel=15 control=11 value=123 time=0.0416665625
EXTRACT: control_change channel=15 control=11 value=121 time=0.0416665625
EXTRACT: control_change channel=15 control=11 value=118 time=0.0416665625
EXTRACT: control_change channel=15 control=11 value=116 time=0.0416665625
EXTRACT: control_change channel=15 control=11 value=116 time=0.0416665625
EXTRACT: control_change channel=10 control=11 value=126 time=0.0416665625
EXTRACT: control_change channel=13 control=11 value=127 time=0
EXTRACT: control_change channel=15 control=11 value=114 time=0
EXTRACT: control_change channel=15 control=11 value=113 time=0.0416665625
EXTRACT: control_change channel=10 control=11 value=124 time=0.0416665625
EXTRACT: control_change channel=13 control=11 value=124 time=0
EXTRACT: control_change channel=15 control=11 value=110 time=0
EXTRACT: control_change channel=15 control=11 value=108 time=0.0416665625
EXTRACT: control_change channel=10 control=11 value=123 time=0.0416665625
EXTRACT: control_change channel=13 control=11 value=122 time=0
EXTRACT: control_change channel=15 control=11 value=109 time=0
EXTRACT: control_change channel=15 control=11 value=107 time=0.0416665625
EXTRACT: control_change channel=10 control=11 value=118 time=0.0416665625
EXTRACT: control_change channel=13 control=11 value=119 time=0
EXTRACT: control_change channel=15 control=11 value=104 time=0
EXTRACT: control_change channel=15 control=11 value=102 time=0.0416665625
EXTRACT: control_change channel=10 control=11 value=116 time=0.0416665625
EXTRACT: control_change channel=13 control=11 value=116 time=0
EXTRACT: control_change channel=15 control=11 value=101 time=0
EXTRACT: control_change channel=15 control=11 value=100 time=0.0416665625
EXTRACT: control_change channel=10 control=11 value=113 time=0.0416665625
EXTRACT: control_change channel=13 control=11 value=113 time=0
EXTRACT: control_change channel=15 control=11 value=98 time=0
EXTRACT: control_change channel=15 control=11 value=97 time=0.0416665625
EXTRACT: control_change channel=10 control=11 value=111 time=0.0416665625
EXTRACT: control_change channel=13 control=11 value=110 time=0
EXTRACT: control_change channel=15 control=11 value=95 time=0
EXTRACT: control_change channel=15 control=11 value=92 time=0.0416665625
EXTRACT: control_change channel=10 control=11 value=106 time=0.0416665625
EXTRACT: control_change channel=13 control=11 value=107 time=0
EXTRACT: control_change channel=15 control=11 value=93 time=0
EXTRACT: control_change channel=15 control=11 value=91 time=0.0416665625
EXTRACT: control_change channel=10 control=11 value=104 time=0.0416665625
EXTRACT: control_change channel=13 control=11 value=104 time=0
EXTRACT: control_change channel=15 control=11 value=88 time=0
EXTRACT: control_change channel=15 control=11 value=87 time=0.0416665625
EXTRACT: control_change channel=10 control=11 value=101 time=0.0416665625
EXTRACT: control_change channel=13 control=11 value=100 time=0
EXTRACT: control_change channel=15 control=11 value=85 time=0
EXTRACT: control_change channel=15 control=11 value=85 time=0.0416665625
EXTRACT: control_change channel=10 control=11 value=98 time=0.0416665625
EXTRACT: control_change channel=13 control=11 value=99 time=0
EXTRACT: control_change channel=15 control=11 value=83 time=0
EXTRACT: control_change channel=15 control=11 value=81 time=0.0416665625
EXTRACT: control_change channel=10 control=11 value=96 time=0.0416665625
EXTRACT: control_change channel=13 control=11 value=97 time=0
EXTRACT: control_change channel=15 control=11 value=79 time=0
EXTRACT: control_change channel=15 control=11 value=77 time=0.0416665625
EXTRACT: control_change channel=10 control=11 value=93 time=0.0416665625
EXTRACT: control_change channel=13 control=11 value=93 time=0
EXTRACT: control_change channel=15 control=11 value=77 time=0
EXTRACT: control_change channel=15 control=11 value=75 time=0.0416665625
EXTRACT: control_change channel=1 control=11 value=127 time=0.0416665625
EXTRACT: control_change channel=10 control=11 value=91 time=0
EXTRACT: control_change channel=13 control=11 value=90 time=0
EXTRACT: control_change channel=15 control=11 value=73 time=0
EXTRACT: control_change channel=15 control=11 value=71 time=0.0416665625
EXTRACT: control_change channel=10 control=11 value=86 time=0.0416665625
EXTRACT: control_change channel=13 control=11 value=86 time=0
EXTRACT: control_change channel=15 control=11 value=69 time=0
EXTRACT: control_change channel=15 control=11 value=69 time=0.0416665625
EXTRACT: control_change channel=1 control=11 value=123 time=0.0416665625
EXTRACT: control_change channel=10 control=11 value=85 time=0
EXTRACT: control_change channel=13 control=11 value=84 time=0
EXTRACT: control_change channel=15 control=11 value=67 time=0
EXTRACT: control_change channel=15 control=11 value=65 time=0.0416665625
EXTRACT: control_change channel=10 control=11 value=81 time=0.0416665625
EXTRACT: control_change channel=13 control=11 value=80 time=0
EXTRACT: control_change channel=15 control=11 value=63 time=0
EXTRACT: control_change channel=15 control=11 value=63 time=0.0416665625
EXTRACT: control_change channel=1 control=11 value=119 time=0.0416665625
EXTRACT: control_change channel=10 control=11 value=78 time=0
EXTRACT: control_change channel=13 control=11 value=79 time=0
EXTRACT: control_change channel=15 control=11 value=61 time=0
EXTRACT: control_change channel=15 control=11 value=59 time=0.0416665625
EXTRACT: control_change channel=10 control=11 value=75 time=0.0416665625
EXTRACT: control_change channel=13 control=11 value=74 time=0
EXTRACT: control_change channel=15 control=11 value=57 time=0
EXTRACT: control_change channel=15 control=11 value=55 time=0.0416665625
EXTRACT: control_change channel=1 control=11 value=115 time=0.0416665625
EXTRACT: control_change channel=10 control=11 value=73 time=0
EXTRACT: control_change channel=13 control=11 value=72 time=0
EXTRACT: control_change channel=15 control=11 value=55 time=0
EXTRACT: control_change channel=15 control=11 value=52 time=0.0416665625
EXTRACT: control_change channel=10 control=11 value=69 time=0.0416665625
EXTRACT: control_change channel=13 control=11 value=69 time=0
EXTRACT: control_change channel=15 control=11 value=51 time=0
EXTRACT: control_change channel=15 control=11 value=48 time=0.0416665625
EXTRACT: control_change channel=1 control=11 value=111 time=0.0416665625
EXTRACT: control_change channel=10 control=11 value=67 time=0
EXTRACT: control_change channel=13 control=11 value=67 time=0
EXTRACT: control_change channel=15 control=11 value=46 time=0
EXTRACT: control_change channel=15 control=11 value=47 time=0.0416665625
EXTRACT: control_change channel=10 control=11 value=65 time=0.0416665625
EXTRACT: control_change channel=13 control=11 value=64 time=0
EXTRACT: control_change channel=15 control=11 value=44 time=0
EXTRACT: control_change channel=15 control=11 value=43 time=0.0416665625
EXTRACT: control_change channel=1 control=11 value=105 time=0.0416665625
EXTRACT: control_change channel=10 control=11 value=61 time=0
EXTRACT: control_change channel=13 control=11 value=60 time=0
EXTRACT: control_change channel=15 control=11 value=40 time=0
EXTRACT: control_change channel=15 control=11 value=39 time=0.0416665625
EXTRACT: control_change channel=10 control=11 value=59 time=0.0416665625
EXTRACT: control_change channel=13 control=11 value=59 time=0
EXTRACT: control_change channel=15 control=11 value=38 time=0
EXTRACT: control_change channel=15 control=11 value=36 time=0.0416665625
EXTRACT: control_change channel=1 control=11 value=101 time=0.0416665625
EXTRACT: control_change channel=10 control=11 value=55 time=0
EXTRACT: control_change channel=13 control=11 value=54 time=0
EXTRACT: control_change channel=15 control=11 value=35 time=0
EXTRACT: control_change channel=15 control=11 value=33 time=0.0416665625
EXTRACT: control_change channel=10 control=11 value=53 time=0.0416665625
EXTRACT: control_change channel=13 control=11 value=52 time=0
EXTRACT: control_change channel=15 control=11 value=31 time=0
EXTRACT: control_change channel=15 control=11 value=30 time=0.0416665625
EXTRACT: control_change channel=1 control=11 value=97 time=0.0416665625
EXTRACT: control_change channel=10 control=11 value=49 time=0
EXTRACT: control_change channel=13 control=11 value=49 time=0
EXTRACT: control_change channel=15 control=11 value=28 time=0
EXTRACT: control_change channel=15 control=11 value=27 time=0.0416665625
EXTRACT: control_change channel=10 control=11 value=47 time=0.0416665625
EXTRACT: control_change channel=13 control=11 value=47 time=0
EXTRACT: control_change channel=15 control=11 value=25 time=0
EXTRACT: control_change channel=15 control=11 value=23 time=0.0416665625
EXTRACT: control_change channel=1 control=11 value=93 time=0.0416665625
EXTRACT: control_change channel=10 control=11 value=43 time=0
EXTRACT: control_change channel=13 control=11 value=42 time=0
EXTRACT: control_change channel=15 control=11 value=22 time=0
EXTRACT: control_change channel=15 control=11 value=20 time=0.0416665625
EXTRACT: control_change channel=10 control=11 value=41 time=0.0416665625
EXTRACT: control_change channel=13 control=11 value=41 time=0
EXTRACT: control_change channel=15 control=11 value=19 time=0
EXTRACT: control_change channel=15 control=11 value=17 time=0.0416665625
EXTRACT: control_change channel=1 control=11 value=89 time=0.0416665625
EXTRACT: control_change channel=10 control=11 value=37 time=0
EXTRACT: control_change channel=13 control=11 value=37 time=0
EXTRACT: control_change channel=15 control=11 value=15 time=0
EXTRACT: control_change channel=15 control=11 value=14 time=0.0416665625
EXTRACT: control_change channel=10 control=11 value=35 time=0.0416665625
EXTRACT: control_change channel=13 control=11 value=34 time=0
EXTRACT: control_change channel=15 control=11 value=12 time=0
EXTRACT: control_change channel=15 control=11 value=11 time=0.0416665625
EXTRACT: control_change channel=1 control=11 value=83 time=0.0416665625
EXTRACT: control_change channel=10 control=11 value=31 time=0
EXTRACT: control_change channel=13 control=11 value=31 time=0
EXTRACT: control_change channel=15 control=11 value=9 time=0
EXTRACT: control_change channel=15 control=11 value=7 time=0.0416665625
EXTRACT: control_change channel=10 control=11 value=29 time=0.0416665625
EXTRACT: control_change channel=13 control=11 value=29 time=0
EXTRACT: control_change channel=15 control=11 value=6 time=0
EXTRACT: control_change channel=15 control=11 value=4 time=0.0416665625
EXTRACT: control_change channel=1 control=11 value=79 time=0.0416665625
EXTRACT: control_change channel=10 control=11 value=26 time=0
EXTRACT: control_change channel=13 control=11 value=26 time=0
EXTRACT: control_change channel=15 control=11 value=3 time=0
EXTRACT: control_change channel=15 control=11 value=1 time=0.0416665625
EXTRACT: control_change channel=10 control=11 value=23 time=0.0416665625
EXTRACT: control_change channel=13 control=11 value=23 time=0
EXTRACT: control_change channel=1 control=11 value=75 time=0.083333125
EXTRACT: control_change channel=10 control=11 value=20 time=0
EXTRACT: control_change channel=13 control=11 value=20 time=0
EXTRACT: control_change channel=10 control=11 value=17 time=0.083333125
EXTRACT: control_change channel=13 control=11 value=17 time=0
EXTRACT: note_on channel=2 note=53 velocity=0 time=0.04027767708333333
EXTRACT: note_on channel=2 note=56 velocity=0 time=0.012499968749999998
EXTRACT: note_on channel=15 note=61 velocity=0 time=0.019444395833333333
EXTRACT: control_change channel=1 control=11 value=71 time=0.011111083333333332
EXTRACT: control_change channel=10 control=11 value=14 time=0
EXTRACT: control_change channel=13 control=11 value=14 time=0
EXTRACT: control_change channel=10 control=11 value=11 time=0.083333125
EXTRACT: control_change channel=13 control=11 value=11 time=0
EXTRACT: note_on channel=8 note=53 velocity=0 time=0.009722197916666666
EXTRACT: note_on channel=8 note=56 velocity=0 time=0.04305544791666666
EXTRACT: control_change channel=1 control=11 value=67 time=0.030555479166666663
EXTRACT: control_change channel=10 control=11 value=8 time=0
EXTRACT: control_change channel=13 control=11 value=8 time=0
EXTRACT: note_on channel=15 note=56 velocity=0 time=0.030555479166666663
EXTRACT: control_change channel=10 control=11 value=5 time=0.05277764583333333
EXTRACT: control_change channel=13 control=11 value=5 time=0
EXTRACT: note_on channel=2 note=61 velocity=0 time=0.026388822916666665
EXTRACT: note_on channel=8 note=61 velocity=0 time=0.013888854166666666
EXTRACT: note_on channel=13 note=61 velocity=0 time=0.0013888854166666665
EXTRACT: control_change channel=1 control=11 value=60 time=0.0416665625
EXTRACT: control_change channel=10 control=11 value=2 time=0
EXTRACT: control_change channel=13 control=11 value=2 time=0
EXTRACT: note_on channel=13 note=56 velocity=0 time=0.02083328125
EXTRACT: note_on channel=10 note=65 velocity=0 time=0.026388822916666665
EXTRACT: note_on channel=10 note=68 velocity=0 time=0.006944427083333333
EXTRACT: note_on channel=13 note=53 velocity=0 time=0.002777770833333333
EXTRACT: control_change channel=1 control=11 value=57 time=0.10972194791666666
EXTRACT: control_change channel=1 control=11 value=52 time=0.16666625
EXTRACT: control_change channel=1 control=11 value=48 time=0.16666625
EXTRACT: control_change channel=1 control=11 value=45 time=0.16666625
EXTRACT: control_change channel=1 control=11 value=38 time=0.16666625
EXTRACT: control_change channel=1 control=11 value=35 time=0.16666625
EXTRACT: control_change channel=1 control=11 value=30 time=0.16666625
EXTRACT: control_change channel=1 control=11 value=26 time=0.16666625
EXTRACT: control_change channel=1 control=11 value=22 time=0.16666625
EXTRACT: control_change channel=1 control=11 value=17 time=0.16666625
EXTRACT: control_change channel=1 control=11 value=13 time=0.16666625
EXTRACT: note_on channel=1 note=37 velocity=0 time=0.149999625
EXTRACT: control_change channel=1 control=11 value=8 time=0.016666624999999997
EXTRACT: control_change channel=1 control=11 value=4 time=0.16666625
EXTRACT: note_on channel=2 note=49 velocity=0 time=3.2499918749999996
EXTRACT: note_on channel=2 note=53 velocity=0 time=0
EXTRACT: note_on channel=2 note=53 velocity=0 time=0
EXTRACT: note_on channel=2 note=53 velocity=0 time=0
EXTRACT: note_on channel=7 note=85 velocity=0 time=0
EXTRACT: note_on channel=2 note=49 velocity=0 time=0
EXTRACT: note_on channel=2 note=53 velocity=0 time=0
EXTRACT: note_on channel=2 note=49 velocity=0 time=0
EXTRACT: note_on channel=2 note=53 velocity=0 time=0
EXTRACT: note_on channel=2 note=49 velocity=0 time=0
EXTRACT: note_on channel=2 note=53 velocity=0 time=0
EXTRACT: note_on channel=2 note=53 velocity=0 time=0
EXTRACT: note_on channel=2 note=53 velocity=0 time=0
EXTRACT: note_on channel=2 note=49 velocity=0 time=0
EXTRACT: note_on channel=2 note=53 velocity=0 time=0
EXTRACT: note_on channel=2 note=49 velocity=0 time=0
EXTRACT: note_on channel=2 note=53 velocity=0 time=0
EXTRACT: note_on channel=2 note=53 velocity=0 time=0
EXTRACT: note_on channel=2 note=49 velocity=0 time=0
EXTRACT: note_on channel=2 note=53 velocity=0 time=0
EXTRACT: note_on channel=2 note=49 velocity=0 time=0
EXTRACT: note_on channel=7 note=92 velocity=0 time=0
EXTRACT: note_on channel=7 note=85 velocity=0 time=0
EXTRACT: note_on channel=2 note=49 velocity=0 time=0
EXTRACT: note_on channel=2 note=56 velocity=0 time=0
EXTRACT: note_on channel=2 note=56 velocity=0 time=0
EXTRACT: note_on channel=9 note=47 velocity=0 time=0
EXTRACT: note_on channel=2 note=49 velocity=0 time=0
EXTRACT: note_on channel=2 note=56 velocity=0 time=0
EXTRACT: note_on channel=2 note=56 velocity=0 time=0
EXTRACT: note_on channel=2 note=56 velocity=0 time=0
EXTRACT: note_on channel=2 note=56 velocity=0 time=0
EXTRACT: note_on channel=2 note=66 velocity=0 time=0
EXTRACT: note_on channel=2 note=49 velocity=0 time=0
EXTRACT: note_on channel=2 note=49 velocity=0 time=0
EXTRACT: note_on channel=2 note=56 velocity=0 time=0
EXTRACT: note_on channel=2 note=56 velocity=0 time=0
EXTRACT: note_on channel=2 note=49 velocity=0 time=0
EXTRACT: note_on channel=8 note=58 velocity=0 time=0
EXTRACT: note_on channel=8 note=61 velocity=0 time=0
EXTRACT: note_on channel=8 note=59 velocity=0 time=0
EXTRACT: note_on channel=8 note=51 velocity=0 time=0
EXTRACT: note_on channel=8 note=54 velocity=0 time=0
EXTRACT: note_on channel=2 note=53 velocity=0 time=0
EXTRACT: note_on channel=8 note=51 velocity=0 time=0
