EXTRACT: control_change channel=0 control=7 value=83 time=0
EXTRACT: program_change channel=0 program=75 time=0
EXTRACT: control_change channel=1 control=10 value=99 time=0
EXTRACT: program_change channel=1 program=1 time=0
EXTRACT: control_change channel=2 control=10 value=52 time=0
EXTRACT: program_change channel=2 program=0 time=0
EXTRACT: control_change channel=3 control=10 value=25 time=0
EXTRACT: control_change channel=3 control=7 value=85 time=0
EXTRACT: program_change channel=3 program=32 time=0
EXTRACT: control_change channel=4 control=7 value=85 time=0
EXTRACT: program_change channel=4 program=32 time=0
EXTRACT: control_change channel=4 control=10 value=112 time=0
EXTRACT: program_change channel=5 program=52 time=0
EXTRACT: control_change channel=5 control=7 value=85 time=0
EXTRACT: control_change channel=5 control=10 value=0 time=0
EXTRACT: control_change channel=6 control=7 value=85 time=0
EXTRACT: program_change channel=6 program=102 time=0
EXTRACT: control_change channel=6 control=10 value=127 time=0
EXTRACT: program_change channel=7 program=0 time=0
EXTRACT: control_change channel=7 control=10 value=36 time=0
EXTRACT: control_change channel=7 control=7 value=85 time=0
EXTRACT: control_change channel=8 control=10 value=86 time=0
EXTRACT: control_change channel=8 control=7 value=120 time=0
EXTRACT: program_change channel=8 program=88 time=0
EXTRACT: program_change channel=9 program=0 time=0
EXTRACT: note_on channel=9 note=42 velocity=89 time=0
EXTRACT: program_change channel=10 program=85 time=0
EXTRACT: note_off channel=9 note=42 velocity=0 time=0.75
EXTRACT: note_on channel=9 note=42 velocity=89 time=0
EXTRACT: note_off channel=9 note=42 velocity=0 time=0.75
EXTRACT: note_on channel=9 note=42 velocity=89 time=0
EXTRACT: note_off channel=9 note=42 velocity=0 time=0.75
EXTRACT: note_on channel=9 note=42 velocity=89 time=0
EXTRACT: note_on channel=1 note=60 velocity=89 time=0.75
EXTRACT: note_on channel=1 note=56 velocity=89 time=0
EXTRACT: note_on channel=1 note=53 velocity=89 time=0
EXTRACT: note_on channel=2 note=48 velocity=89 time=0
EXTRACT: note_on channel=2 note=41 velocity=89 time=0
EXTRACT: note_on channel=7 note=60 velocity=89 time=0
EXTRACT: note_on channel=7 note=56 velocity=89 time=0
EXTRACT: note_on channel=7 note=53 velocity=89 time=0
EXTRACT: note_off channel=9 note=42 velocity=0 time=0
EXTRACT: note_off channel=1 note=53 velocity=0 time=1.125
EXTRACT: note_off channel=1 note=56 velocity=0 time=0
EXTRACT: note_off channel=1 note=60 velocity=0 time=0
EXTRACT: note_on channel=1 note=60 velocity=89 time=0
EXTRACT: note_on channel=1 note=56 velocity=89 time=0
EXTRACT: note_on channel=1 note=53 velocity=89 time=0
EXTRACT: note_off channel=2 note=41 velocity=0 time=0
EXTRACT: note_off channel=2 note=48 velocity=0 time=0
EXTRACT: note_on channel=2 note=48 velocity=89 time=0
EXTRACT: note_on channel=2 note=44 velocity=89 time=0
EXTRACT: note_on channel=2 note=39 velocity=89 time=0
EXTRACT: note_off channel=7 note=53 velocity=0 time=0
EXTRACT: note_off channel=7 note=56 velocity=0 time=0
EXTRACT: note_off channel=7 note=60 velocity=0 time=0
EXTRACT: note_on channel=7 note=60 velocity=89 time=0
EXTRACT: note_on channel=7 note=56 velocity=89 time=0
EXTRACT: note_on channel=7 note=53 velocity=89 time=0
EXTRACT: note_off channel=1 note=53 velocity=0 time=1.5
EXTRACT: note_off channel=1 note=56 velocity=0 time=0
EXTRACT: note_off channel=1 note=60 velocity=0 time=0
EXTRACT: note_on channel=1 note=51 velocity=89 time=0
EXTRACT: note_on channel=1 note=55 velocity=89 time=0
EXTRACT: note_on channel=1 note=58 velocity=89 time=0
EXTRACT: note_off channel=2 note=39 velocity=0 time=0
EXTRACT: note_off channel=2 note=44 velocity=0 time=0
EXTRACT: note_off channel=2 note=48 velocity=0 time=0
EXTRACT: note_on channel=2 note=39 velocity=89 time=0
EXTRACT: note_on channel=2 note=46 velocity=89 time=0
EXTRACT: note_off channel=7 note=53 velocity=0 time=0
EXTRACT: note_off channel=7 note=56 velocity=0 time=0
EXTRACT: note_off channel=7 note=60 velocity=0 time=0
EXTRACT: note_on channel=7 note=51 velocity=89 time=0
EXTRACT: note_on channel=7 note=55 velocity=89 time=0
EXTRACT: note_on channel=7 note=58 velocity=89 time=0
EXTRACT: note_off channel=1 note=58 velocity=0 time=1.125
EXTRACT: note_off channel=1 note=55 velocity=0 time=0
EXTRACT: note_off channel=1 note=51 velocity=0 time=0
EXTRACT: note_on channel=1 note=49 velocity=89 time=0
EXTRACT: note_on channel=1 note=53 velocity=89 time=0
EXTRACT: note_on channel=1 note=56 velocity=89 time=0
EXTRACT: note_off channel=2 note=46 velocity=0 time=0
EXTRACT: note_off channel=2 note=39 velocity=0 time=0
EXTRACT: note_on channel=2 note=44 velocity=89 time=0
EXTRACT: note_on channel=2 note=37 velocity=89 time=0
EXTRACT: note_off channel=7 note=58 velocity=0 time=0
EXTRACT: note_off channel=7 note=55 velocity=0 time=0
EXTRACT: note_off channel=7 note=51 velocity=0 time=0
EXTRACT: note_on channel=7 note=49 velocity=89 time=0
EXTRACT: note_on channel=7 note=53 velocity=89 time=0
EXTRACT: note_on channel=7 note=56 velocity=89 time=0
EXTRACT: note_on channel=0 note=58 velocity=89 time=0
EXTRACT: note_off channel=0 note=58 velocity=0 time=0
EXTRACT: note_on channel=0 note=58 velocity=89 time=0
EXTRACT: note_off channel=1 note=56 velocity=0 time=0
EXTRACT: note_off channel=1 note=53 velocity=0 time=0
EXTRACT: note_off channel=1 note=49 velocity=0 time=0
EXTRACT: note_on channel=1 note=60 velocity=89 time=0
EXTRACT: note_on channel=1 note=56 velocity=89 time=0
EXTRACT: note_on channel=1 note=53 velocity=89 time=0
EXTRACT: note_off channel=2 note=37 velocity=0 time=0
EXTRACT: note_off channel=2 note=44 velocity=0 time=0
EXTRACT: note_on channel=2 note=48 velocity=89 time=0
EXTRACT: note_on channel=2 note=41 velocity=89 time=0
EXTRACT: note_off channel=7 note=56 velocity=0 time=0
EXTRACT: note_off channel=7 note=53 velocity=0 time=0
EXTRACT: note_off channel=7 note=49 velocity=0 time=0
EXTRACT: note_on channel=7 note=60 velocity=89 time=0
EXTRACT: note_on channel=7 note=56 velocity=89 time=0
EXTRACT: note_on channel=7 note=53 velocity=89 time=0
EXTRACT: note_off channel=0 note=58 velocity=0 time=0
EXTRACT: note_on channel=0 note=60 velocity=89 time=0
EXTRACT: note_off channel=0 note=60 velocity=0 time=0.5625
EXTRACT: note_off channel=1 note=53 velocity=0 time=0.375
EXTRACT: note_off channel=1 note=56 velocity=0 time=0
EXTRACT: note_off channel=1 note=60 velocity=0 time=0
EXTRACT: note_on channel=1 note=60 velocity=89 time=0
EXTRACT: note_on channel=1 note=56 velocity=89 time=0
EXTRACT: note_on channel=1 note=53 velocity=89 time=0
EXTRACT: note_off channel=2 note=41 velocity=0 time=0
EXTRACT: note_off channel=2 note=48 velocity=0 time=0
EXTRACT: note_on channel=2 note=48 velocity=89 time=0
EXTRACT: note_on channel=2 note=44 velocity=89 time=0
EXTRACT: note_on channel=2 note=39 velocity=89 time=0
EXTRACT: note_off channel=7 note=53 velocity=0 time=0
EXTRACT: note_off channel=7 note=56 velocity=0 time=0
EXTRACT: note_off channel=7 note=60 velocity=0 time=0
EXTRACT: note_on channel=7 note=60 velocity=89 time=0
EXTRACT: note_on channel=7 note=56 velocity=89 time=0
EXTRACT: note_on channel=7 note=53 velocity=89 time=0
EXTRACT: note_on channel=0 note=58 velocity=89 time=0
EXTRACT: note_off channel=0 note=58 velocity=0 time=0
EXTRACT: note_on channel=0 note=58 velocity=89 time=0
EXTRACT: note_off channel=1 note=53 velocity=0 time=0
EXTRACT: note_off channel=1 note=56 velocity=0 time=0
EXTRACT: note_off channel=1 note=60 velocity=0 time=0
EXTRACT: note_on channel=1 note=51 velocity=89 time=0
EXTRACT: note_on channel=1 note=55 velocity=89 time=0
EXTRACT: note_on channel=1 note=58 velocity=89 time=0
EXTRACT: note_off channel=2 note=39 velocity=0 time=0
EXTRACT: note_off channel=2 note=44 velocity=0 time=0
EXTRACT: note_off channel=2 note=48 velocity=0 time=0
EXTRACT: note_on channel=2 note=39 velocity=89 time=0
EXTRACT: note_on channel=2 note=46 velocity=89 time=0
EXTRACT: note_off channel=7 note=53 velocity=0 time=0
EXTRACT: note_off channel=7 note=56 velocity=0 time=0
EXTRACT: note_off channel=7 note=60 velocity=0 time=0
EXTRACT: note_on channel=7 note=51 velocity=89 time=0
EXTRACT: note_on channel=7 note=55 velocity=89 time=0
EXTRACT: note_on channel=7 note=58 velocity=89 time=0
EXTRACT: note_off channel=0 note=58 velocity=0 time=1.125
EXTRACT: note_off channel=1 note=58 velocity=0 time=0
EXTRACT: note_off channel=1 note=55 velocity=0 time=0
EXTRACT: note_off channel=1 note=51 velocity=0 time=0
EXTRACT: note_on channel=1 note=49 velocity=89 time=0
EXTRACT: note_on channel=1 note=53 velocity=89 time=0
EXTRACT: note_on channel=1 note=56 velocity=89 time=0
EXTRACT: note_off channel=2 note=46 velocity=0 time=0
EXTRACT: note_off channel=2 note=39 velocity=0 time=0
EXTRACT: note_on channel=2 note=44 velocity=89 time=0
EXTRACT: note_on channel=2 note=37 velocity=89 time=0
EXTRACT: note_off channel=7 note=58 velocity=0 time=0
EXTRACT: note_off channel=7 note=55 velocity=0 time=0
EXTRACT: note_off channel=7 note=51 velocity=0 time=0
EXTRACT: note_on channel=7 note=49 velocity=89 time=0
EXTRACT: note_on channel=7 note=53 velocity=89 time=0
EXTRACT: note_on channel=7 note=56 velocity=89 time=0
EXTRACT: note_on channel=0 note=56 velocity=89 time=0
EXTRACT: note_off channel=0 note=56 velocity=0 time=0
EXTRACT: note_on channel=0 note=60 velocity=89 time=0
EXTRACT: note_off channel=0 note=60 velocity=0 time=0
EXTRACT: note_on channel=0 note=60 velocity=89 time=0
EXTRACT: note_off channel=1 note=56 velocity=0 time=0
EXTRACT: note_off channel=1 note=53 velocity=0 time=0
EXTRACT: note_off channel=1 note=49 velocity=0 time=0
EXTRACT: note_on channel=1 note=60 velocity=89 time=0
EXTRACT: note_on channel=1 note=56 velocity=89 time=0
EXTRACT: note_on channel=1 note=53 velocity=89 time=0
EXTRACT: note_off channel=2 note=37 velocity=0 time=0
EXTRACT: note_off channel=2 note=44 velocity=0 time=0
EXTRACT: note_on channel=2 note=48 velocity=89 time=0
EXTRACT: note_on channel=2 note=41 velocity=89 time=0
EXTRACT: note_off channel=7 note=56 velocity=0 time=0
EXTRACT: note_off channel=7 note=53 velocity=0 time=0
EXTRACT: note_off channel=7 note=49 velocity=0 time=0
EXTRACT: note_on channel=7 note=60 velocity=89 time=0
EXTRACT: note_on channel=7 note=56 velocity=89 time=0
EXTRACT: note_on channel=7 note=53 velocity=89 time=0
EXTRACT: note_off channel=0 note=60 velocity=0 time=0
EXTRACT: note_on channel=0 note=60 velocity=89 time=0
EXTRACT: note_off channel=0 note=60 velocity=0 time=0
EXTRACT: note_on channel=0 note=60 velocity=89 time=0
EXTRACT: note_off channel=0 note=60 velocity=0 time=0
EXTRACT: note_on channel=0 note=60 velocity=89 time=0
EXTRACT: note_off channel=1 note=53 velocity=0 time=0
EXTRACT: note_off channel=1 note=56 velocity=0 time=0
EXTRACT: note_off channel=1 note=60 velocity=0 time=0
EXTRACT: note_on channel=1 note=60 velocity=89 time=0
EXTRACT: note_on channel=1 note=56 velocity=89 time=0
EXTRACT: note_on channel=1 note=53 velocity=89 time=0
EXTRACT: note_off channel=2 note=41 velocity=0 time=0
EXTRACT: note_off channel=2 note=48 velocity=0 time=0
EXTRACT: note_on channel=2 note=48 velocity=89 time=0
EXTRACT: note_on channel=2 note=44 velocity=89 time=0
EXTRACT: note_on channel=2 note=39 velocity=89 time=0
EXTRACT: note_off channel=7 note=53 velocity=0 time=0
EXTRACT: note_off channel=7 note=56 velocity=0 time=0
EXTRACT: note_off channel=7 note=60 velocity=0 time=0
EXTRACT: note_on channel=7 note=60 velocity=89 time=0
EXTRACT: note_on channel=7 note=56 velocity=89 time=0
EXTRACT: note_on channel=7 note=53 velocity=89 time=0
EXTRACT: note_off channel=0 note=60 velocity=0 time=0
EXTRACT: note_on channel=0 note=60 velocity=89 time=0
EXTRACT: note_off channel=0 note=60 velocity=0 time=0
EXTRACT: note_on channel=0 note=58 velocity=89 time=0
EXTRACT: note_off channel=0 note=58 velocity=0 time=0
EXTRACT: note_on channel=0 note=58 velocity=89 time=0
EXTRACT: note_off channel=0 note=58 velocity=0 time=0
EXTRACT: note_on channel=0 note=56 velocity=89 time=0
EXTRACT: note_off channel=0 note=56 velocity=0 time=0
EXTRACT: note_on channel=0 note=58 velocity=89 time=0
EXTRACT: note_off channel=1 note=53 velocity=0 time=0
EXTRACT: note_off channel=1 note=56 velocity=0 time=0
EXTRACT: note_off channel=1 note=60 velocity=0 time=0
EXTRACT: note_on channel=1 note=51 velocity=89 time=0
EXTRACT: note_on channel=1 note=55 velocity=89 time=0
EXTRACT: note_on channel=1 note=58 velocity=89 time=0
EXTRACT: note_off channel=2 note=39 velocity=0 time=0
EXTRACT: note_off channel=2 note=44 velocity=0 time=0
EXTRACT: note_off channel=2 note=48 velocity=0 time=0
EXTRACT: note_on channel=2 note=39 velocity=89 time=0
EXTRACT: note_on channel=2 note=46 velocity=89 time=0
EXTRACT: note_off channel=7 note=53 velocity=0 time=0
EXTRACT: note_off channel=7 note=56 velocity=0 time=0
EXTRACT: note_off channel=7 note=60 velocity=0 time=0
EXTRACT: note_on channel=7 note=51 velocity=89 time=0
EXTRACT: note_on channel=7 note=55 velocity=89 time=0
EXTRACT: note_on channel=7 note=58 velocity=89 time=0
EXTRACT: note_off channel=0 note=58 velocity=0 time=0
EXTRACT: note_on channel=0 note=60 velocity=89 time=0
EXTRACT: note_off channel=0 note=60 velocity=0 time=0
EXTRACT: note_on channel=0 note=58 velocity=89 time=0
EXTRACT: note_off channel=0 note=58 velocity=0 time=0
EXTRACT: note_on channel=0 note=53 velocity=89 time=0
EXTRACT: note_off channel=1 note=58 velocity=0 time=0
EXTRACT: note_off channel=1 note=55 velocity=0 time=0
EXTRACT: note_off channel=1 note=51 velocity=0 time=0
EXTRACT: note_on channel=1 note=49 velocity=89 time=0
EXTRACT: note_on channel=1 note=53 velocity=89 time=0
EXTRACT: note_on channel=1 note=56 velocity=89 time=0
EXTRACT: note_off channel=2 note=46 velocity=0 time=0
EXTRACT: note_off channel=2 note=39 velocity=0 time=0
EXTRACT: note_on channel=2 note=44 velocity=89 time=0
EXTRACT: note_on channel=2 note=37 velocity=89 time=0
EXTRACT: note_off channel=7 note=58 velocity=0 time=0
EXTRACT: note_off channel=7 note=55 velocity=0 time=0
EXTRACT: note_off channel=7 note=51 velocity=0 time=0
EXTRACT: note_on channel=7 note=49 velocity=89 time=0
EXTRACT: note_on channel=7 note=53 velocity=89 time=0
EXTRACT: note_on channel=7 note=56 velocity=89 time=0
EXTRACT: note_off channel=0 note=53 velocity=0 time=0
EXTRACT: note_on channel=0 note=56 velocity=89 time=0
EXTRACT: note_off channel=0 note=56 velocity=0 time=0.75
EXTRACT: note_on channel=0 note=56 velocity=89 time=0
EXTRACT: note_off channel=0 note=56 velocity=0 time=0
EXTRACT: note_on channel=0 note=60 velocity=89 time=0
EXTRACT: note_off channel=0 note=60 velocity=0 time=0
EXTRACT: note_on channel=0 note=60 velocity=89 time=0
EXTRACT: note_off channel=1 note=56 velocity=0 time=0
EXTRACT: note_off channel=1 note=53 velocity=0 time=0
EXTRACT: note_off channel=1 note=49 velocity=0 time=0
EXTRACT: note_on channel=1 note=60 velocity=89 time=0
EXTRACT: note_on channel=1 note=56 velocity=89 time=0
EXTRACT: note_on channel=1 note=53 velocity=89 time=0
EXTRACT: note_off channel=2 note=37 velocity=0 time=0
EXTRACT: note_off channel=2 note=44 velocity=0 time=0
EXTRACT: note_on channel=2 note=48 velocity=89 time=0
EXTRACT: note_on channel=2 note=41 velocity=89 time=0
EXTRACT: note_off channel=7 note=56 velocity=0 time=0
EXTRACT: note_off channel=7 note=53 velocity=0 time=0
EXTRACT: note_off channel=7 note=49 velocity=0 time=0
EXTRACT: note_on channel=7 note=60 velocity=89 time=0
EXTRACT: note_on channel=7 note=56 velocity=89 time=0
EXTRACT: note_on channel=7 note=53 velocity=89 time=0
EXTRACT: note_off channel=0 note=60 velocity=0 time=0
EXTRACT: note_on channel=0 note=58 velocity=89 time=0
EXTRACT: note_off channel=0 note=58 velocity=0 time=0
EXTRACT: note_on channel=0 note=56 velocity=89 time=0
EXTRACT: note_off channel=0 note=56 velocity=0 time=0.375
EXTRACT: note_off channel=1 note=53 velocity=0 time=0
EXTRACT: note_off channel=1 note=56 velocity=0 time=0
EXTRACT: note_off channel=1 note=60 velocity=0 time=0
EXTRACT: note_on channel=1 note=60 velocity=89 time=0
EXTRACT: note_on channel=1 note=56 velocity=89 time=0
EXTRACT: note_on channel=1 note=53 velocity=89 time=0
EXTRACT: note_off channel=2 note=41 velocity=0 time=0
EXTRACT: note_off channel=2 note=48 velocity=0 time=0
EXTRACT: note_on channel=2 note=48 velocity=89 time=0
EXTRACT: note_on channel=2 note=44 velocity=89 time=0
EXTRACT: note_on channel=2 note=39 velocity=89 time=0
EXTRACT: note_off channel=7 note=53 velocity=0 time=0
EXTRACT: note_off channel=7 note=56 velocity=0 time=0
EXTRACT: note_off channel=7 note=60 velocity=0 time=0
EXTRACT: note_on channel=7 note=60 velocity=89 time=0
EXTRACT: note_on channel=7 note=56 velocity=89 time=0
EXTRACT: note_on channel=7 note=53 velocity=89 time=0
EXTRACT: note_on channel=0 note=58 velocity=89 time=0
EXTRACT: note_off channel=0 note=58 velocity=0 time=0
EXTRACT: note_on channel=0 note=58 velocity=89 time=0
EXTRACT: note_off channel=0 note=58 velocity=0 time=0
EXTRACT: note_on channel=0 note=58 velocity=89 time=0
EXTRACT: note_off channel=0 note=58 velocity=0 time=0
EXTRACT: note_on channel=0 note=58 velocity=89 time=0
EXTRACT: note_off channel=1 note=53 velocity=0 time=0
EXTRACT: note_off channel=1 note=56 velocity=0 time=0
EXTRACT: note_off channel=1 note=60 velocity=0 time=0
EXTRACT: note_on channel=1 note=51 velocity=89 time=0
EXTRACT: note_on channel=1 note=55 velocity=89 time=0
EXTRACT: note_on channel=1 note=58 velocity=89 time=0
EXTRACT: note_off channel=2 note=39 velocity=0 time=0
EXTRACT: note_off channel=2 note=44 velocity=0 time=0
EXTRACT: note_off channel=2 note=48 velocity=0 time=0
EXTRACT: note_on channel=2 note=39 velocity=89 time=0
EXTRACT: note_on channel=2 note=46 velocity=89 time=0
EXTRACT: note_off channel=7 note=53 velocity=0 time=0
EXTRACT: note_off channel=7 note=56 velocity=0 time=0
EXTRACT: note_off channel=7 note=60 velocity=0 time=0
EXTRACT: note_on channel=7 note=51 velocity=89 time=0
EXTRACT: note_on channel=7 note=55 velocity=89 time=0
EXTRACT: note_on channel=7 note=58 velocity=89 time=0
EXTRACT: note_off channel=0 note=58 velocity=0 time=0
EXTRACT: note_on channel=0 note=60 velocity=89 time=0
EXTRACT: note_off channel=0 note=60 velocity=0 time=0.375
EXTRACT: note_off channel=1 note=58 velocity=0 time=0.375
EXTRACT: note_off channel=1 note=55 velocity=0 time=0
EXTRACT: note_off channel=1 note=51 velocity=0 time=0
EXTRACT: note_on channel=1 note=49 velocity=89 time=0
EXTRACT: note_on channel=1 note=53 velocity=89 time=0
EXTRACT: note_on channel=1 note=56 velocity=89 time=0
EXTRACT: note_off channel=2 note=46 velocity=0 time=0
EXTRACT: note_off channel=2 note=39 velocity=0 time=0
EXTRACT: note_on channel=2 note=44 velocity=89 time=0
EXTRACT: note_on channel=2 note=37 velocity=89 time=0
EXTRACT: note_off channel=7 note=58 velocity=0 time=0
EXTRACT: note_off channel=7 note=55 velocity=0 time=0
EXTRACT: note_off channel=7 note=51 velocity=0 time=0
EXTRACT: note_on channel=7 note=49 velocity=89 time=0
EXTRACT: note_on channel=7 note=53 velocity=89 time=0
EXTRACT: note_on channel=7 note=56 velocity=89 time=0
EXTRACT: note_on channel=0 note=60 velocity=89 time=0
EXTRACT: note_off channel=0 note=60 velocity=0 time=0
EXTRACT: note_on channel=0 note=60 velocity=89 time=0
EXTRACT: note_off channel=0 note=60 velocity=0 time=0
EXTRACT: note_on channel=0 note=60 velocity=89 time=0
EXTRACT: note_off channel=0 note=60 velocity=0 time=0
EXTRACT: note_on channel=0 note=60 velocity=89 time=0
EXTRACT: note_off channel=1 note=56 velocity=0 time=0
EXTRACT: note_off channel=1 note=53 velocity=0 time=0
EXTRACT: note_off channel=1 note=49 velocity=0 time=0
EXTRACT: note_on channel=1 note=60 velocity=89 time=0
EXTRACT: note_on channel=1 note=56 velocity=89 time=0
EXTRACT: note_on channel=1 note=53 velocity=89 time=0
EXTRACT: note_off channel=2 note=37 velocity=0 time=0
EXTRACT: note_off channel=2 note=44 velocity=0 time=0
EXTRACT: note_on channel=2 note=48 velocity=89 time=0
EXTRACT: note_on channel=2 note=41 velocity=89 time=0
EXTRACT: note_off channel=7 note=56 velocity=0 time=0
EXTRACT: note_off channel=7 note=53 velocity=0 time=0
EXTRACT: note_off channel=7 note=49 velocity=0 time=0
EXTRACT: note_on channel=7 note=60 velocity=89 time=0
EXTRACT: note_on channel=7 note=56 velocity=89 time=0
EXTRACT: note_on channel=7 note=53 velocity=89 time=0
EXTRACT: note_off channel=0 note=60 velocity=0 time=0
EXTRACT: note_on channel=0 note=60 velocity=89 time=0
EXTRACT: note_off channel=0 note=60 velocity=0 time=0
EXTRACT: note_on channel=0 note=60 velocity=89 time=0
EXTRACT: note_off channel=0 note=60 velocity=0 time=0
EXTRACT: note_on channel=0 note=60 velocity=89 time=0
EXTRACT: note_off channel=1 note=53 velocity=0 time=0
EXTRACT: note_off channel=1 note=56 velocity=0 time=0
EXTRACT: note_off channel=1 note=60 velocity=0 time=0
EXTRACT: note_on channel=1 note=60 velocity=89 time=0
EXTRACT: note_on channel=1 note=56 velocity=89 time=0
EXTRACT: note_on channel=1 note=53 velocity=89 time=0
EXTRACT: note_off channel=2 note=41 velocity=0 time=0
EXTRACT: note_off channel=2 note=48 velocity=0 time=0
EXTRACT: note_on channel=2 note=48 velocity=89 time=0
EXTRACT: note_on channel=2 note=44 velocity=89 time=0
EXTRACT: note_on channel=2 note=39 velocity=89 time=0
EXTRACT: note_off channel=7 note=53 velocity=0 time=0
EXTRACT: note_off channel=7 note=56 velocity=0 time=0
EXTRACT: note_off channel=7 note=60 velocity=0 time=0
EXTRACT: note_on channel=7 note=60 velocity=89 time=0
EXTRACT: note_on channel=7 note=56 velocity=89 time=0
EXTRACT: note_on channel=7 note=53 velocity=89 time=0
EXTRACT: note_off channel=0 note=60 velocity=0 time=0
EXTRACT: note_on channel=0 note=60 velocity=89 time=0
EXTRACT: note_off channel=0 note=60 velocity=0 time=0
EXTRACT: note_on channel=0 note=58 velocity=89 time=0
EXTRACT: note_off channel=0 note=58 velocity=0 time=0
EXTRACT: note_on channel=0 note=56 velocity=89 time=0
EXTRACT: note_off channel=0 note=56 velocity=0 time=0.1875
EXTRACT: note_on channel=0 note=56 velocity=89 time=0
EXTRACT: note_off channel=0 note=56 velocity=0 time=0
EXTRACT: note_on channel=0 note=56 velocity=89 time=0
EXTRACT: note_off channel=0 note=56 velocity=0 time=0
EXTRACT: note_on channel=0 note=58 velocity=89 time=0
EXTRACT: note_off channel=0 note=58 velocity=0 time=0
EXTRACT: note_on channel=0 note=60 velocity=89 time=0
EXTRACT: note_off channel=1 note=53 velocity=0 time=0
EXTRACT: note_off channel=1 note=56 velocity=0 time=0
EXTRACT: note_off channel=1 note=60 velocity=0 time=0
EXTRACT: note_on channel=1 note=51 velocity=89 time=0
EXTRACT: note_on channel=1 note=55 velocity=89 time=0
EXTRACT: note_on channel=1 note=58 velocity=89 time=0
EXTRACT: note_off channel=2 note=39 velocity=0 time=0
EXTRACT: note_off channel=2 note=44 velocity=0 time=0
EXTRACT: note_off channel=2 note=48 velocity=0 time=0
EXTRACT: note_on channel=2 note=39 velocity=89 time=0
EXTRACT: note_on channel=2 note=46 velocity=89 time=0
EXTRACT: note_off channel=7 note=53 velocity=0 time=0
EXTRACT: note_off channel=7 note=56 velocity=0 time=0
EXTRACT: note_off channel=7 note=60 velocity=0 time=0
EXTRACT: note_on channel=7 note=51 velocity=89 time=0
EXTRACT: note_on channel=7 note=55 velocity=89 time=0
EXTRACT: note_on channel=7 note=58 velocity=89 time=0
EXTRACT: note_off channel=0 note=60 velocity=0 time=0
EXTRACT: note_on channel=0 note=58 velocity=89 time=0
EXTRACT: note_off channel=0 note=58 velocity=0 time=0
EXTRACT: note_on channel=0 note=56 velocity=89 time=0
EXTRACT: note_off channel=0 note=56 velocity=0 time=0
EXTRACT: note_on channel=0 note=56 velocity=89 time=0
EXTRACT: note_off channel=1 note=58 velocity=0 time=0
EXTRACT: note_off channel=1 note=55 velocity=0 time=0
EXTRACT: note_off channel=1 note=51 velocity=0 time=0
EXTRACT: note_on channel=1 note=49 velocity=89 time=0
EXTRACT: note_on channel=1 note=53 velocity=89 time=0
EXTRACT: note_on channel=1 note=56 velocity=89 time=0
EXTRACT: note_off channel=2 note=46 velocity=0 time=0
EXTRACT: note_off channel=2 note=39 velocity=0 time=0
EXTRACT: note_on channel=2 note=44 velocity=89 time=0
EXTRACT: note_on channel=2 note=37 velocity=89 time=0
EXTRACT: note_off channel=7 note=58 velocity=0 time=0
EXTRACT: note_off channel=7 note=55 velocity=0 time=0
EXTRACT: note_off channel=7 note=51 velocity=0 time=0
EXTRACT: note_on channel=7 note=49 velocity=89 time=0
EXTRACT: note_on channel=7 note=53 velocity=89 time=0
EXTRACT: note_on channel=7 note=56 velocity=89 time=0
EXTRACT: note_off channel=0 note=56 velocity=0 time=0
EXTRACT: note_on channel=0 note=53 velocity=89 time=0
EXTRACT: note_off channel=0 note=53 velocity=0 time=0.375
EXTRACT: note_on channel=0 note=58 velocity=89 time=0
EXTRACT: note_off channel=0 note=58 velocity=0 time=0
EXTRACT: note_on channel=0 note=58 velocity=89 time=0
EXTRACT: note_off channel=1 note=56 velocity=0 time=0
EXTRACT: note_off channel=1 note=53 velocity=0 time=0
EXTRACT: note_off channel=1 note=49 velocity=0 time=0
EXTRACT: note_on channel=1 note=60 velocity=89 time=0
EXTRACT: note_on channel=1 note=56 velocity=89 time=0
EXTRACT: note_on channel=1 note=53 velocity=89 time=0
EXTRACT: note_off channel=2 note=37 velocity=0 time=0
EXTRACT: note_off channel=2 note=44 velocity=0 time=0
EXTRACT: note_on channel=2 note=48 velocity=89 time=0
EXTRACT: note_on channel=2 note=41 velocity=89 time=0
EXTRACT: note_off channel=7 note=56 velocity=0 time=0
EXTRACT: note_off channel=7 note=53 velocity=0 time=0
EXTRACT: note_off channel=7 note=49 velocity=0 time=0
EXTRACT: note_on channel=7 note=60 velocity=89 time=0
EXTRACT: note_on channel=7 note=56 velocity=89 time=0
EXTRACT: note_on channel=7 note=53 velocity=89 time=0
EXTRACT: note_off channel=0 note=58 velocity=0 time=0.1875
EXTRACT: note_on channel=0 note=60 velocity=89 time=0
EXTRACT: note_off channel=0 note=60 velocity=0 time=0.1875
EXTRACT: note_on channel=0 note=58 velocity=89 time=0
EXTRACT: note_off channel=0 note=58 velocity=0 time=0.1875
EXTRACT: note_on channel=0 note=60 velocity=89 time=0
EXTRACT: note_off channel=0 note=60 velocity=0 time=0.1875
EXTRACT: note_on channel=0 note=58 velocity=89 time=0
EXTRACT: note_off channel=0 note=58 velocity=0 time=0
EXTRACT: note_on channel=0 note=56 velocity=89 time=0
EXTRACT: note_off channel=0 note=56 velocity=0 time=0.1875
EXTRACT: note_off channel=1 note=53 velocity=0 time=0
EXTRACT: note_off channel=1 note=56 velocity=0 time=0
EXTRACT: note_off channel=1 note=60 velocity=0 time=0
EXTRACT: note_on channel=1 note=60 velocity=89 time=0
EXTRACT: note_on channel=1 note=56 velocity=89 time=0
EXTRACT: note_on channel=1 note=53 velocity=89 time=0
EXTRACT: note_off channel=2 note=41 velocity=0 time=0
EXTRACT: note_off channel=2 note=48 velocity=0 time=0
EXTRACT: note_on channel=2 note=48 velocity=89 time=0
EXTRACT: note_on channel=2 note=44 velocity=89 time=0
EXTRACT: note_on channel=2 note=39 velocity=89 time=0
EXTRACT: note_off channel=7 note=53 velocity=0 time=0
EXTRACT: note_off channel=7 note=56 velocity=0 time=0
EXTRACT: note_off channel=7 note=60 velocity=0 time=0
EXTRACT: note_on channel=7 note=60 velocity=89 time=0
EXTRACT: note_on channel=7 note=56 velocity=89 time=0
EXTRACT: note_on channel=7 note=53 velocity=89 time=0
EXTRACT: note_on channel=0 note=58 velocity=89 time=0
EXTRACT: note_off channel=0 note=58 velocity=0 time=0
EXTRACT: note_on channel=0 note=58 velocity=89 time=0
EXTRACT: note_off channel=0 note=58 velocity=0 time=0
EXTRACT: note_on channel=0 note=58 velocity=89 time=0
EXTRACT: note_off channel=1 note=53 velocity=0 time=0
EXTRACT: note_off channel=1 note=56 velocity=0 time=0
EXTRACT: note_off channel=1 note=60 velocity=0 time=0
EXTRACT: note_on channel=1 note=51 velocity=89 time=0
EXTRACT: note_on channel=1 note=55 velocity=89 time=0
EXTRACT: note_on channel=1 note=58 velocity=89 time=0
EXTRACT: note_off channel=2 note=39 velocity=0 time=0
EXTRACT: note_off channel=2 note=44 velocity=0 time=0
EXTRACT: note_off channel=2 note=48 velocity=0 time=0
EXTRACT: note_on channel=2 note=39 velocity=89 time=0
EXTRACT: note_on channel=2 note=46 velocity=89 time=0
EXTRACT: note_off channel=7 note=53 velocity=0 time=0
EXTRACT: note_off channel=7 note=56 velocity=0 time=0
EXTRACT: note_off channel=7 note=60 velocity=0 time=0
EXTRACT: note_on channel=7 note=51 velocity=89 time=0
EXTRACT: note_on channel=7 note=55 velocity=89 time=0
EXTRACT: note_on channel=7 note=58 velocity=89 time=0
EXTRACT: note_off channel=0 note=58 velocity=0 time=0
EXTRACT: note_on channel=0 note=60 velocity=89 time=0
EXTRACT: note_off channel=0 note=60 velocity=0 time=0.375
EXTRACT: note_off channel=1 note=58 velocity=0 time=0.375
EXTRACT: note_off channel=1 note=55 velocity=0 time=0
EXTRACT: note_off channel=1 note=51 velocity=0 time=0
EXTRACT: note_on channel=1 note=49 velocity=89 time=0
EXTRACT: note_on channel=1 note=53 velocity=89 time=0
EXTRACT: note_on channel=1 note=56 velocity=89 time=0
EXTRACT: note_off channel=2 note=46 velocity=0 time=0
EXTRACT: note_off channel=2 note=39 velocity=0 time=0
EXTRACT: note_on channel=2 note=44 velocity=89 time=0
EXTRACT: note_on channel=2 note=37 velocity=89 time=0
EXTRACT: note_off channel=7 note=58 velocity=0 time=0
EXTRACT: note_off channel=7 note=55 velocity=0 time=0
EXTRACT: note_off channel=7 note=51 velocity=0 time=0
EXTRACT: note_on channel=7 note=49 velocity=89 time=0
EXTRACT: note_on channel=7 note=53 velocity=89 time=0
EXTRACT: note_on channel=7 note=56 velocity=89 time=0
EXTRACT: note_on channel=0 note=56 velocity=89 time=0
EXTRACT: note_off channel=0 note=56 velocity=0 time=0
EXTRACT: note_on channel=0 note=60 velocity=89 time=0
EXTRACT: note_off channel=0 note=60 velocity=0 time=0
EXTRACT: note_on channel=0 note=60 velocity=89 time=0
EXTRACT: note_off channel=1 note=56 velocity=0 time=0
EXTRACT: note_off channel=1 note=53 velocity=0 time=0
EXTRACT: note_off channel=1 note=49 velocity=0 time=0
EXTRACT: note_on channel=1 note=60 velocity=89 time=0
EXTRACT: note_on channel=1 note=56 velocity=89 time=0
EXTRACT: note_on channel=1 note=53 velocity=89 time=0
EXTRACT: note_off channel=2 note=37 velocity=0 time=0
EXTRACT: note_off channel=2 note=44 velocity=0 time=0
EXTRACT: note_on channel=2 note=48 velocity=89 time=0
EXTRACT: note_on channel=2 note=41 velocity=89 time=0
EXTRACT: note_off channel=7 note=56 velocity=0 time=0
EXTRACT: note_off channel=7 note=53 velocity=0 time=0
EXTRACT: note_off channel=7 note=49 velocity=0 time=0
EXTRACT: note_on channel=7 note=60 velocity=89 time=0
EXTRACT: note_on channel=7 note=56 velocity=89 time=0
EXTRACT: note_on channel=7 note=53 velocity=89 time=0
EXTRACT: note_off channel=0 note=60 velocity=0 time=0
EXTRACT: note_on channel=0 note=60 velocity=89 time=0
EXTRACT: note_off channel=0 note=60 velocity=0 time=0
EXTRACT: note_on channel=0 note=60 velocity=89 time=0
EXTRACT: note_off channel=0 note=60 velocity=0 time=0
EXTRACT: note_on channel=0 note=60 velocity=89 time=0
EXTRACT: note_off channel=1 note=53 velocity=0 time=0
EXTRACT: note_off channel=1 note=56 velocity=0 time=0
EXTRACT: note_off channel=1 note=60 velocity=0 time=0
EXTRACT: note_on channel=1 note=60 velocity=89 time=0
EXTRACT: note_on channel=1 note=56 velocity=89 time=0
EXTRACT: note_on channel=1 note=53 velocity=89 time=0
EXTRACT: note_off channel=2 note=41 velocity=0 time=0
EXTRACT: note_off channel=2 note=48 velocity=0 time=0
EXTRACT: note_on channel=2 note=48 velocity=89 time=0
EXTRACT: note_on channel=2 note=44 velocity=89 time=0
EXTRACT: note_on channel=2 note=39 velocity=89 time=0
EXTRACT: note_off channel=7 note=53 velocity=0 time=0
EXTRACT: note_off channel=7 note=56 velocity=0 time=0
EXTRACT: note_off channel=7 note=60 velocity=0 time=0
EXTRACT: note_on channel=7 note=60 velocity=89 time=0
EXTRACT: note_on channel=7 note=56 velocity=89 time=0
EXTRACT: note_on channel=7 note=53 velocity=89 time=0
EXTRACT: note_off channel=0 note=60 velocity=0 time=0
EXTRACT: note_on channel=0 note=60 velocity=89 time=0
EXTRACT: note_off channel=0 note=60 velocity=0 time=0
EXTRACT: note_on channel=0 note=58 velocity=89 time=0
EXTRACT: note_off channel=0 note=58 velocity=0 time=0
EXTRACT: note_on channel=0 note=58 velocity=89 time=0
EXTRACT: note_off channel=0 note=58 velocity=0 time=0
EXTRACT: note_on channel=0 note=58 velocity=89 time=0
EXTRACT: note_off channel=0 note=58 velocity=0 time=0
EXTRACT: note_on channel=0 note=56 velocity=89 time=0
EXTRACT: note_off channel=0 note=56 velocity=0 time=0
EXTRACT: note_on channel=0 note=58 velocity=89 time=0
EXTRACT: note_off channel=1 note=53 velocity=0 time=0
EXTRACT: note_off channel=1 note=56 velocity=0 time=0
EXTRACT: note_off channel=1 note=60 velocity=0 time=0
EXTRACT: note_on channel=1 note=51 velocity=89 time=0
EXTRACT: note_on channel=1 note=55 velocity=89 time=0
EXTRACT: note_on channel=1 note=58 velocity=89 time=0
EXTRACT: note_off channel=2 note=39 velocity=0 time=0
EXTRACT: note_off channel=2 note=44 velocity=0 time=0
EXTRACT: note_off channel=2 note=48 velocity=0 time=0
EXTRACT: note_on channel=2 note=39 velocity=89 time=0
EXTRACT: note_on channel=2 note=46 velocity=89 time=0
EXTRACT: note_off channel=7 note=53 velocity=0 time=0
EXTRACT: note_off channel=7 note=56 velocity=0 time=0
EXTRACT: note_off channel=7 note=60 velocity=0 time=0
EXTRACT: note_on channel=7 note=51 velocity=89 time=0
EXTRACT: note_on channel=7 note=55 velocity=89 time=0
EXTRACT: note_on channel=7 note=58 velocity=89 time=0
EXTRACT: note_off channel=0 note=58 velocity=0 time=0
EXTRACT: note_on channel=0 note=60 velocity=89 time=0
EXTRACT: note_off channel=0 note=60 velocity=0 time=0
EXTRACT: note_on channel=0 note=58 velocity=89 time=0
EXTRACT: note_off channel=0 note=58 velocity=0 time=0
EXTRACT: note_on channel=0 note=53 velocity=89 time=0
EXTRACT: note_off channel=1 note=58 velocity=0 time=0
EXTRACT: note_off channel=1 note=55 velocity=0 time=0
EXTRACT: note_off channel=1 note=51 velocity=0 time=0
EXTRACT: note_on channel=1 note=49 velocity=89 time=0
EXTRACT: note_on channel=1 note=53 velocity=89 time=0
EXTRACT: note_on channel=1 note=56 velocity=89 time=0
EXTRACT: note_off channel=2 note=46 velocity=0 time=0
EXTRACT: note_off channel=2 note=39 velocity=0 time=0
EXTRACT: note_on channel=2 note=44 velocity=89 time=0
EXTRACT: note_on channel=2 note=37 velocity=89 time=0
EXTRACT: note_off channel=7 note=58 velocity=0 time=0
EXTRACT: note_off channel=7 note=55 velocity=0 time=0
EXTRACT: note_off channel=7 note=51 velocity=0 time=0
EXTRACT: note_on channel=7 note=49 velocity=89 time=0
EXTRACT: note_on channel=7 note=53 velocity=89 time=0
EXTRACT: note_on channel=7 note=56 velocity=89 time=0
EXTRACT: note_off channel=0 note=53 velocity=0 time=0
EXTRACT: note_on channel=0 note=56 velocity=89 time=0
EXTRACT: note_off channel=0 note=56 velocity=0 time=0
EXTRACT: note_on channel=0 note=56 velocity=89 time=0
EXTRACT: note_off channel=0 note=56 velocity=0 time=0
EXTRACT: note_on channel=0 note=56 velocity=89 time=0
EXTRACT: note_off channel=0 note=56 velocity=0 time=0
EXTRACT: note_on channel=0 note=60 velocity=89 time=0
EXTRACT: note_off channel=0 note=60 velocity=0 time=0
EXTRACT: note_on channel=0 note=60 velocity=89 time=0
EXTRACT: note_off channel=1 note=56 velocity=0 time=0
EXTRACT: note_off channel=1 note=53 velocity=0 time=0
EXTRACT: note_off channel=1 note=49 velocity=0 time=0
EXTRACT: note_on channel=1 note=60 velocity=89 time=0
EXTRACT: note_on channel=1 note=56 velocity=89 time=0
EXTRACT: note_on channel=1 note=53 velocity=89 time=0
EXTRACT: note_off channel=2 note=37 velocity=0 time=0
EXTRACT: note_off channel=2 note=44 velocity=0 time=0
EXTRACT: note_on channel=2 note=48 velocity=89 time=0
EXTRACT: note_on channel=2 note=41 velocity=89 time=0
EXTRACT: note_off channel=7 note=56 velocity=0 time=0
EXTRACT: note_off channel=7 note=53 velocity=0 time=0
EXTRACT: note_off channel=7 note=49 velocity=0 time=0
EXTRACT: note_on channel=7 note=60 velocity=89 time=0
EXTRACT: note_on channel=7 note=56 velocity=89 time=0
EXTRACT: note_on channel=7 note=53 velocity=89 time=0
EXTRACT: note_off channel=0 note=60 velocity=0 time=0
EXTRACT: note_on channel=0 note=58 velocity=89 time=0
EXTRACT: note_off channel=0 note=58 velocity=0 time=0
EXTRACT: note_on channel=0 note=56 velocity=89 time=0
EXTRACT: note_off channel=0 note=56 velocity=0 time=0.1875
EXTRACT: note_off channel=1 note=53 velocity=0 time=0.375
EXTRACT: note_off channel=1 note=56 velocity=0 time=0
EXTRACT: note_off channel=1 note=60 velocity=0 time=0
EXTRACT: note_on channel=1 note=60 velocity=89 time=0
EXTRACT: note_on channel=1 note=56 velocity=89 time=0
EXTRACT: note_on channel=1 note=53 velocity=89 time=0
EXTRACT: note_off channel=2 note=41 velocity=0 time=0
EXTRACT: note_off channel=2 note=48 velocity=0 time=0
EXTRACT: note_on channel=2 note=48 velocity=89 time=0
EXTRACT: note_on channel=2 note=44 velocity=89 time=0
EXTRACT: note_on channel=2 note=39 velocity=89 time=0
EXTRACT: note_off channel=7 note=53 velocity=0 time=0
EXTRACT: note_off channel=7 note=56 velocity=0 time=0
EXTRACT: note_off channel=7 note=60 velocity=0 time=0
EXTRACT: note_on channel=7 note=60 velocity=89 time=0
EXTRACT: note_on channel=7 note=56 velocity=89 time=0
EXTRACT: note_on channel=7 note=53 velocity=89 time=0
EXTRACT: note_on channel=0 note=56 velocity=89 time=0
EXTRACT: note_off channel=0 note=56 velocity=0 time=0
EXTRACT: note_on channel=0 note=58 velocity=89 time=0
EXTRACT: note_off channel=0 note=58 velocity=0 time=0
EXTRACT: note_on channel=0 note=58 velocity=89 time=0
EXTRACT: note_off channel=1 note=53 velocity=0 time=0
EXTRACT: note_off channel=1 note=56 velocity=0 time=0
EXTRACT: note_off channel=1 note=60 velocity=0 time=0
EXTRACT: note_on channel=1 note=51 velocity=89 time=0
EXTRACT: note_on channel=1 note=55 velocity=89 time=0
EXTRACT: note_on channel=1 note=58 velocity=89 time=0
EXTRACT: note_off channel=2 note=39 velocity=0 time=0
EXTRACT: note_off channel=2 note=44 velocity=0 time=0
EXTRACT: note_off channel=2 note=48 velocity=0 time=0
EXTRACT: note_on channel=2 note=39 velocity=89 time=0
EXTRACT: note_on channel=2 note=46 velocity=89 time=0
EXTRACT: note_off channel=7 note=53 velocity=0 time=0
EXTRACT: note_off channel=7 note=56 velocity=0 time=0
EXTRACT: note_off channel=7 note=60 velocity=0 time=0
EXTRACT: note_on channel=7 note=51 velocity=89 time=0
EXTRACT: note_on channel=7 note=55 velocity=89 time=0
EXTRACT: note_on channel=7 note=58 velocity=89 time=0
EXTRACT: note_off channel=0 note=58 velocity=0 time=1.125
EXTRACT: note_off channel=1 note=58 velocity=0 time=0
EXTRACT: note_off channel=1 note=55 velocity=0 time=0
EXTRACT: note_off channel=1 note=51 velocity=0 time=0
EXTRACT: note_on channel=1 note=49 velocity=89 time=0
EXTRACT: note_on channel=1 note=53 velocity=89 time=0
EXTRACT: note_on channel=1 note=56 velocity=89 time=0
EXTRACT: note_off channel=2 note=46 velocity=0 time=0
EXTRACT: note_off channel=2 note=39 velocity=0 time=0
EXTRACT: note_on channel=2 note=44 velocity=89 time=0
EXTRACT: note_on channel=2 note=37 velocity=89 time=0
EXTRACT: note_off channel=7 note=58 velocity=0 time=0
EXTRACT: note_off channel=7 note=55 velocity=0 time=0
EXTRACT: note_off channel=7 note=51 velocity=0 time=0
EXTRACT: note_on channel=7 note=49 velocity=89 time=0
EXTRACT: note_on channel=7 note=53 velocity=89 time=0
EXTRACT: note_on channel=7 note=56 velocity=89 time=0
EXTRACT: note_on channel=0 note=56 velocity=89 time=0
EXTRACT: note_off channel=0 note=56 velocity=0 time=0
EXTRACT: note_on channel=0 note=60 velocity=89 time=0
EXTRACT: note_off channel=0 note=60 velocity=0 time=0
EXTRACT: note_on channel=0 note=60 velocity=89 time=0
EXTRACT: note_off channel=1 note=56 velocity=0 time=0
EXTRACT: note_off channel=1 note=53 velocity=0 time=0
EXTRACT: note_off channel=1 note=49 velocity=0 time=0
EXTRACT: note_on channel=1 note=60 velocity=89 time=0
EXTRACT: note_on channel=1 note=56 velocity=89 time=0
EXTRACT: note_on channel=1 note=53 velocity=89 time=0
EXTRACT: note_off channel=2 note=37 velocity=0 time=0
EXTRACT: note_off channel=2 note=44 velocity=0 time=0
EXTRACT: note_on channel=2 note=48 velocity=89 time=0
EXTRACT: note_on channel=2 note=41 velocity=89 time=0
EXTRACT: note_off channel=7 note=56 velocity=0 time=0
EXTRACT: note_off channel=7 note=53 velocity=0 time=0
EXTRACT: note_off channel=7 note=49 velocity=0 time=0
EXTRACT: note_on channel=7 note=60 velocity=89 time=0
EXTRACT: note_on channel=7 note=56 velocity=89 time=0
EXTRACT: note_on channel=7 note=53 velocity=89 time=0
EXTRACT: note_off channel=0 note=60 velocity=0 time=0
EXTRACT: note_on channel=0 note=60 velocity=89 time=0
EXTRACT: note_off channel=0 note=60 velocity=0 time=0
EXTRACT: note_on channel=0 note=60 velocity=89 time=0
EXTRACT: note_off channel=0 note=60 velocity=0 time=0
EXTRACT: note_on channel=0 note=60 velocity=89 time=0
EXTRACT: note_off channel=1 note=53 velocity=0 time=0
EXTRACT: note_off channel=1 note=56 velocity=0 time=0
EXTRACT: note_off channel=1 note=60 velocity=0 time=0
EXTRACT: note_on channel=1 note=60 velocity=89 time=0
EXTRACT: note_on channel=1 note=56 velocity=89 time=0
EXTRACT: note_on channel=1 note=53 velocity=89 time=0
EXTRACT: note_off channel=2 note=41 velocity=0 time=0
EXTRACT: note_off channel=2 note=48 velocity=0 time=0
EXTRACT: note_on channel=2 note=48 velocity=89 time=0
EXTRACT: note_on channel=2 note=44 velocity=89 time=0
EXTRACT: note_on channel=2 note=39 velocity=89 time=0
EXTRACT: note_off channel=7 note=53 velocity=0 time=0
EXTRACT: note_off channel=7 note=56 velocity=0 time=0
EXTRACT: note_off channel=7 note=60 velocity=0 time=0
EXTRACT: note_on channel=7 note=60 velocity=89 time=0
EXTRACT: note_on channel=7 note=56 velocity=89 time=0
EXTRACT: note_on channel=7 note=53 velocity=89 time=0
EXTRACT: note_off channel=0 note=60 velocity=0 time=0
EXTRACT: note_on channel=0 note=60 velocity=89 time=0
EXTRACT: note_off channel=0 note=60 velocity=0 time=0
EXTRACT: note_on channel=0 note=58 velocity=89 time=0
EXTRACT: note_off channel=0 note=58 velocity=0 time=0
EXTRACT: note_on channel=0 note=58 velocity=89 time=0
EXTRACT: note_off channel=0 note=58 velocity=0 time=0
EXTRACT: note_on channel=0 note=58 velocity=89 time=0
EXTRACT: note_off channel=0 note=58 velocity=0 time=0
EXTRACT: note_on channel=0 note=56 velocity=89 time=0
EXTRACT: note_off channel=0 note=56 velocity=0 time=0
EXTRACT: note_on channel=0 note=58 velocity=89 time=0
EXTRACT: note_off channel=1 note=53 velocity=0 time=0
EXTRACT: note_off channel=1 note=56 velocity=0 time=0
EXTRACT: note_off channel=1 note=60 velocity=0 time=0
EXTRACT: note_on channel=1 note=51 velocity=89 time=0
EXTRACT: note_on channel=1 note=55 velocity=89 time=0
EXTRACT: note_on channel=1 note=58 velocity=89 time=0
EXTRACT: note_off channel=2 note=39 velocity=0 time=0
EXTRACT: note_off channel=2 note=44 velocity=0 time=0
EXTRACT: note_off channel=2 note=48 velocity=0 time=0
EXTRACT: note_on channel=2 note=39 velocity=89 time=0
EXTRACT: note_on channel=2 note=46 velocity=89 time=0
EXTRACT: note_off channel=7 note=53 velocity=0 time=0
EXTRACT: note_off channel=7 note=56 velocity=0 time=0
EXTRACT: note_off channel=7 note=60 velocity=0 time=0
EXTRACT: note_on channel=7 note=51 velocity=89 time=0
EXTRACT: note_on channel=7 note=55 velocity=89 time=0
EXTRACT: note_on channel=7 note=58 velocity=89 time=0
EXTRACT: note_off channel=0 note=58 velocity=0 time=0
EXTRACT: note_on channel=0 note=60 velocity=89 time=0
EXTRACT: note_off channel=0 note=60 velocity=0 time=0
EXTRACT: note_on channel=0 note=58 velocity=89 time=0
EXTRACT: note_off channel=0 note=58 velocity=0 time=0
EXTRACT: note_on channel=0 note=53 velocity=89 time=0
EXTRACT: note_off channel=1 note=58 velocity=0 time=0
EXTRACT: note_off channel=1 note=55 velocity=0 time=0
EXTRACT: note_off channel=1 note=51 velocity=0 time=0
EXTRACT: note_on channel=1 note=49 velocity=89 time=0
EXTRACT: note_on channel=1 note=53 velocity=89 time=0
EXTRACT: note_on channel=1 note=56 velocity=89 time=0
EXTRACT: note_off channel=2 note=46 velocity=0 time=0
EXTRACT: note_off channel=2 note=39 velocity=0 time=0
EXTRACT: note_on channel=2 note=44 velocity=89 time=0
EXTRACT: note_on channel=2 note=37 velocity=89 time=0
EXTRACT: note_off channel=7 note=58 velocity=0 time=0
EXTRACT: note_off channel=7 note=55 velocity=0 time=0
EXTRACT: note_off channel=7 note=51 velocity=0 time=0
EXTRACT: note_on channel=7 note=49 velocity=89 time=0
EXTRACT: note_on channel=7 note=53 velocity=89 time=0
EXTRACT: note_on channel=7 note=56 velocity=89 time=0
EXTRACT: note_off channel=0 note=53 velocity=0 time=0
EXTRACT: note_on channel=0 note=56 velocity=89 time=0
EXTRACT: note_off channel=0 note=56 velocity=0 time=0
EXTRACT: note_on channel=0 note=56 velocity=89 time=0
EXTRACT: note_off channel=0 note=56 velocity=0 time=0
EXTRACT: note_on channel=0 note=56 velocity=89 time=0
EXTRACT: note_off channel=0 note=56 velocity=0 time=0
EXTRACT: note_on channel=0 note=60 velocity=89 time=0
EXTRACT: note_off channel=0 note=60 velocity=0 time=0
EXTRACT: note_on channel=0 note=60 velocity=89 time=0
EXTRACT: note_off channel=1 note=56 velocity=0 time=0
EXTRACT: note_off channel=1 note=53 velocity=0 time=0
EXTRACT: note_off channel=1 note=49 velocity=0 time=0
EXTRACT: note_on channel=1 note=60 velocity=89 time=0
EXTRACT: note_on channel=1 note=56 velocity=89 time=0
EXTRACT: note_on channel=1 note=53 velocity=89 time=0
EXTRACT: note_off channel=2 note=37 velocity=0 time=0
EXTRACT: note_off channel=2 note=44 velocity=0 time=0
EXTRACT: note_on channel=2 note=48 velocity=89 time=0
EXTRACT: note_on channel=2 note=41 velocity=89 time=0
EXTRACT: note_off channel=7 note=56 velocity=0 time=0
EXTRACT: note_off channel=7 note=53 velocity=0 time=0
EXTRACT: note_off channel=7 note=49 velocity=0 time=0
EXTRACT: note_on channel=7 note=60 velocity=89 time=0
EXTRACT: note_on channel=7 note=56 velocity=89 time=0
EXTRACT: note_on channel=7 note=53 velocity=89 time=0
EXTRACT: note_off channel=0 note=60 velocity=0 time=0
EXTRACT: note_on channel=0 note=58 velocity=89 time=0
EXTRACT: note_off channel=0 note=58 velocity=0 time=0
EXTRACT: note_on channel=0 note=56 velocity=89 time=0
EXTRACT: note_off channel=0 note=56 velocity=0 time=0.1875
EXTRACT: note_off channel=1 note=53 velocity=0 time=0
EXTRACT: note_off channel=1 note=56 velocity=0 time=0
EXTRACT: note_off channel=1 note=60 velocity=0 time=0
EXTRACT: note_on channel=1 note=60 velocity=89 time=0
EXTRACT: note_on channel=1 note=56 velocity=89 time=0
EXTRACT: note_on channel=1 note=53 velocity=89 time=0
EXTRACT: note_off channel=2 note=41 velocity=0 time=0
EXTRACT: note_off channel=2 note=48 velocity=0 time=0
EXTRACT: note_on channel=2 note=39 velocity=89 time=0
EXTRACT: note_on channel=2 note=46 velocity=89 time=0
EXTRACT: note_off channel=7 note=53 velocity=0 time=0
EXTRACT: note_off channel=7 note=56 velocity=0 time=0
EXTRACT: note_off channel=7 note=60 velocity=0 time=0
EXTRACT: note_on channel=7 note=60 velocity=89 time=0
EXTRACT: note_on channel=7 note=56 velocity=89 time=0
EXTRACT: note_on channel=7 note=53 velocity=89 time=0
EXTRACT: note_on channel=0 note=60 velocity=89 time=0
EXTRACT: note_off channel=0 note=60 velocity=0 time=0
EXTRACT: note_on channel=0 note=63 velocity=89 time=0
EXTRACT: note_off channel=1 note=53 velocity=0 time=0
EXTRACT: note_off channel=1 note=56 velocity=0 time=0
EXTRACT: note_off channel=1 note=60 velocity=0 time=0
EXTRACT: note_on channel=1 note=51 velocity=89 time=0
EXTRACT: note_on channel=1 note=55 velocity=89 time=0
EXTRACT: note_on channel=1 note=48 velocity=89 time=0
EXTRACT: note_off channel=2 note=46 velocity=0 time=0
EXTRACT: note_off channel=2 note=39 velocity=0 time=0
EXTRACT: note_on channel=2 note=36 velocity=89 time=0
EXTRACT: note_on channel=2 note=43 velocity=89 time=0
EXTRACT: note_off channel=7 note=53 velocity=0 time=0
EXTRACT: note_off channel=7 note=56 velocity=0 time=0
EXTRACT: note_off channel=7 note=60 velocity=0 time=0
EXTRACT: note_on channel=7 note=51 velocity=89 time=0
EXTRACT: note_on channel=7 note=55 velocity=89 time=0
EXTRACT: note_on channel=7 note=48 velocity=89 time=0
EXTRACT: note_off channel=0 note=63 velocity=0 time=0
EXTRACT: note_on channel=0 note=60 velocity=89 time=0
EXTRACT: note_off channel=0 note=60 velocity=0 time=0
EXTRACT: note_on channel=0 note=61 velocity=89 time=0
EXTRACT: note_off channel=1 note=48 velocity=0 time=0
EXTRACT: note_off channel=1 note=55 velocity=0 time=0
EXTRACT: note_off channel=1 note=51 velocity=0 time=0
EXTRACT: note_on channel=1 note=49 velocity=89 time=0
EXTRACT: note_on channel=1 note=53 velocity=89 time=0
EXTRACT: note_on channel=1 note=56 velocity=89 time=0
EXTRACT: note_off channel=2 note=43 velocity=0 time=0
EXTRACT: note_off channel=2 note=36 velocity=0 time=0
EXTRACT: note_on channel=2 note=44 velocity=89 time=0
EXTRACT: note_on channel=2 note=37 velocity=89 time=0
EXTRACT: note_off channel=7 note=48 velocity=0 time=0
EXTRACT: note_off channel=7 note=55 velocity=0 time=0
EXTRACT: note_off channel=7 note=51 velocity=0 time=0
EXTRACT: note_on channel=7 note=49 velocity=89 time=0
EXTRACT: note_on channel=7 note=53 velocity=89 time=0
EXTRACT: note_on channel=7 note=56 velocity=89 time=0
EXTRACT: note_off channel=0 note=61 velocity=0 time=0
EXTRACT: note_on channel=0 note=60 velocity=89 time=0
EXTRACT: note_off channel=0 note=60 velocity=0 time=0.1875
EXTRACT: note_on channel=0 note=58 velocity=89 time=0
EXTRACT: note_off channel=0 note=58 velocity=0 time=0
EXTRACT: note_on channel=0 note=56 velocity=89 time=0
EXTRACT: note_off channel=0 note=56 velocity=0 time=0
EXTRACT: note_on channel=0 note=56 velocity=89 time=0
EXTRACT: note_off channel=0 note=56 velocity=0 time=0
EXTRACT: note_on channel=0 note=60 velocity=89 time=0
EXTRACT: note_off channel=0 note=60 velocity=0 time=0
EXTRACT: note_on channel=0 note=60 velocity=89 time=0
EXTRACT: note_off channel=1 note=56 velocity=0 time=0
EXTRACT: note_off channel=1 note=53 velocity=0 time=0
EXTRACT: note_off channel=1 note=49 velocity=0 time=0
EXTRACT: note_on channel=1 note=60 velocity=89 time=0
EXTRACT: note_on channel=1 note=56 velocity=89 time=0
EXTRACT: note_on channel=1 note=53 velocity=89 time=0
EXTRACT: note_off channel=2 note=37 velocity=0 time=0
EXTRACT: note_off channel=2 note=44 velocity=0 time=0
EXTRACT: note_on channel=2 note=48 velocity=89 time=0
EXTRACT: note_on channel=2 note=41 velocity=89 time=0
EXTRACT: note_off channel=7 note=56 velocity=0 time=0
EXTRACT: note_off channel=7 note=53 velocity=0 time=0
EXTRACT: note_off channel=7 note=49 velocity=0 time=0
EXTRACT: note_on channel=7 note=60 velocity=89 time=0
EXTRACT: note_on channel=7 note=56 velocity=89 time=0
EXTRACT: note_on channel=7 note=53 velocity=89 time=0
EXTRACT: note_off channel=0 note=60 velocity=0 time=0
EXTRACT: note_on channel=0 note=58 velocity=89 time=0
EXTRACT: note_off channel=0 note=58 velocity=0 time=0
EXTRACT: note_on channel=0 note=58 velocity=89 time=0
EXTRACT: note_off channel=1 note=53 velocity=0 time=0
EXTRACT: note_off channel=1 note=56 velocity=0 time=0
EXTRACT: note_off channel=1 note=60 velocity=0 time=0
EXTRACT: note_on channel=1 note=60 velocity=89 time=0
EXTRACT: note_on channel=1 note=56 velocity=89 time=0
EXTRACT: note_on channel=1 note=53 velocity=89 time=0
EXTRACT: note_off channel=2 note=41 velocity=0 time=0
EXTRACT: note_off channel=2 note=48 velocity=0 time=0
EXTRACT: note_on channel=2 note=39 velocity=89 time=0
EXTRACT: note_on channel=2 note=46 velocity=89 time=0
EXTRACT: note_off channel=7 note=53 velocity=0 time=0
EXTRACT: note_off channel=7 note=56 velocity=0 time=0
EXTRACT: note_off channel=7 note=60 velocity=0 time=0
EXTRACT: note_on channel=7 note=60 velocity=89 time=0
EXTRACT: note_on channel=7 note=56 velocity=89 time=0
EXTRACT: note_on channel=7 note=53 velocity=89 time=0
EXTRACT: note_off channel=0 note=58 velocity=0 time=0
EXTRACT: note_on channel=0 note=56 velocity=89 time=0
EXTRACT: note_off channel=0 note=56 velocity=0 time=0
EXTRACT: note_on channel=0 note=56 velocity=89 time=0
EXTRACT: note_off channel=1 note=53 velocity=0 time=0
EXTRACT: note_off channel=1 note=56 velocity=0 time=0
EXTRACT: note_off channel=1 note=60 velocity=0 time=0
EXTRACT: note_on channel=1 note=56 velocity=89 time=0
EXTRACT: note_on channel=1 note=53 velocity=89 time=0
EXTRACT: note_on channel=1 note=49 velocity=89 time=0
EXTRACT: note_off channel=2 note=46 velocity=0 time=0
EXTRACT: note_off channel=2 note=39 velocity=0 time=0
EXTRACT: note_on channel=2 note=44 velocity=89 time=0
EXTRACT: note_on channel=2 note=37 velocity=89 time=0
EXTRACT: note_off channel=7 note=53 velocity=0 time=0
EXTRACT: note_off channel=7 note=56 velocity=0 time=0
EXTRACT: note_off channel=7 note=60 velocity=0 time=0
EXTRACT: note_on channel=7 note=56 velocity=89 time=0
EXTRACT: note_on channel=7 note=53 velocity=89 time=0
EXTRACT: note_on channel=7 note=49 velocity=89 time=0
EXTRACT: note_off channel=0 note=56 velocity=0 time=2.25
EXTRACT: note_on channel=0 note=65 velocity=89 time=0
EXTRACT: note_off channel=1 note=49 velocity=0 time=0
EXTRACT: note_off channel=1 note=53 velocity=0 time=0
EXTRACT: note_off channel=1 note=56 velocity=0 time=0
EXTRACT: note_on channel=1 note=60 velocity=89 time=0
EXTRACT: note_on channel=1 note=56 velocity=89 time=0
EXTRACT: note_on channel=1 note=53 velocity=89 time=0
EXTRACT: note_off channel=2 note=37 velocity=0 time=0
EXTRACT: note_off channel=2 note=44 velocity=0 time=0
EXTRACT: note_on channel=2 note=29 velocity=89 time=0
EXTRACT: note_on channel=2 note=41 velocity=89 time=0
EXTRACT: note_on channel=3 note=29 velocity=89 time=0
EXTRACT: note_on channel=3 note=41 velocity=89 time=0
EXTRACT: note_on channel=4 note=29 velocity=89 time=0
EXTRACT: note_on channel=4 note=41 velocity=89 time=0
EXTRACT: note_on channel=5 note=65 velocity=89 time=0
EXTRACT: note_on channel=6 note=65 velocity=89 time=0
EXTRACT: note_off channel=7 note=49 velocity=0 time=0
EXTRACT: note_off channel=7 note=53 velocity=0 time=0
EXTRACT: note_off channel=7 note=56 velocity=0 time=0
EXTRACT: note_on channel=7 note=60 velocity=89 time=0
EXTRACT: note_on channel=7 note=56 velocity=89 time=0
EXTRACT: note_on channel=7 note=53 velocity=89 time=0
EXTRACT: note_on channel=8 note=60 velocity=89 time=0
EXTRACT: note_on channel=8 note=56 velocity=89 time=0
EXTRACT: note_on channel=8 note=53 velocity=89 time=0
EXTRACT: note_on channel=9 note=36 velocity=89 time=0
EXTRACT: note_off channel=0 note=65 velocity=0 time=0
EXTRACT: note_on channel=0 note=65 velocity=89 time=0
EXTRACT: note_off channel=5 note=65 velocity=0 time=0
EXTRACT: note_on channel=5 note=65 velocity=89 time=0
EXTRACT: note_off channel=6 note=65 velocity=0 time=0
EXTRACT: note_on channel=6 note=65 velocity=89 time=0
EXTRACT: note_off channel=0 note=65 velocity=0 time=0
EXTRACT: note_on channel=0 note=68 velocity=89 time=0
EXTRACT: note_off channel=5 note=65 velocity=0 time=0
EXTRACT: note_on channel=5 note=68 velocity=89 time=0
EXTRACT: note_off channel=6 note=65 velocity=0 time=0
EXTRACT: note_on channel=6 note=68 velocity=89 time=0
EXTRACT: note_off channel=0 note=68 velocity=0 time=0
EXTRACT: note_on channel=0 note=68 velocity=89 time=0
EXTRACT: note_off channel=1 note=53 velocity=0 time=0
EXTRACT: note_off channel=1 note=56 velocity=0 time=0
EXTRACT: note_off channel=1 note=60 velocity=0 time=0
EXTRACT: note_on channel=1 note=56 velocity=89 time=0
EXTRACT: note_on channel=1 note=53 velocity=89 time=0
EXTRACT: note_on channel=1 note=61 velocity=89 time=0
EXTRACT: note_off channel=2 note=41 velocity=0 time=0
EXTRACT: note_off channel=2 note=29 velocity=0 time=0
EXTRACT: note_on channel=2 note=25 velocity=89 time=0
EXTRACT: note_on channel=2 note=37 velocity=89 time=0
EXTRACT: note_off channel=3 note=41 velocity=0 time=0
EXTRACT: note_off channel=3 note=29 velocity=0 time=0
EXTRACT: note_on channel=3 note=25 velocity=89 time=0
EXTRACT: note_on channel=3 note=37 velocity=89 time=0
EXTRACT: note_off channel=4 note=41 velocity=0 time=0
EXTRACT: note_off channel=4 note=29 velocity=0 time=0
EXTRACT: note_on channel=4 note=25 velocity=89 time=0
EXTRACT: note_on channel=4 note=37 velocity=89 time=0
EXTRACT: note_off channel=5 note=68 velocity=0 time=0
EXTRACT: note_on channel=5 note=68 velocity=89 time=0
EXTRACT: note_off channel=6 note=68 velocity=0 time=0
EXTRACT: note_on channel=6 note=68 velocity=89 time=0
EXTRACT: note_off channel=7 note=53 velocity=0 time=0
EXTRACT: note_off channel=7 note=56 velocity=0 time=0
EXTRACT: note_off channel=7 note=60 velocity=0 time=0
EXTRACT: note_on channel=7 note=56 velocity=89 time=0
EXTRACT: note_on channel=7 note=53 velocity=89 time=0
EXTRACT: note_on channel=7 note=61 velocity=89 time=0
EXTRACT: note_off channel=8 note=53 velocity=0 time=0
EXTRACT: note_off channel=8 note=56 velocity=0 time=0
EXTRACT: note_off channel=8 note=60 velocity=0 time=0
EXTRACT: note_on channel=8 note=56 velocity=89 time=0
EXTRACT: note_on channel=8 note=53 velocity=89 time=0
EXTRACT: note_on channel=8 note=61 velocity=89 time=0
EXTRACT: note_off channel=9 note=36 velocity=0 time=0
EXTRACT: note_on channel=9 note=36 velocity=89 time=0
EXTRACT: note_off channel=0 note=68 velocity=0 time=0
EXTRACT: note_on channel=0 note=70 velocity=89 time=0
EXTRACT: note_off channel=5 note=68 velocity=0 time=0
EXTRACT: note_on channel=5 note=70 velocity=89 time=0
EXTRACT: note_off channel=6 note=68 velocity=0 time=0
EXTRACT: note_on channel=6 note=70 velocity=89 time=0
EXTRACT: note_off channel=0 note=70 velocity=0 time=0
EXTRACT: note_on channel=0 note=70 velocity=89 time=0
EXTRACT: note_off channel=5 note=70 velocity=0 time=0
EXTRACT: note_on channel=5 note=70 velocity=89 time=0
EXTRACT: note_off channel=6 note=70 velocity=0 time=0
EXTRACT: note_on channel=6 note=70 velocity=89 time=0
EXTRACT: note_off channel=0 note=70 velocity=0 time=0
EXTRACT: note_on channel=0 note=70 velocity=89 time=0
EXTRACT: note_off channel=5 note=70 velocity=0 time=0
EXTRACT: note_on channel=5 note=70 velocity=89 time=0
EXTRACT: note_off channel=6 note=70 velocity=0 time=0
EXTRACT: note_on channel=6 note=70 velocity=89 time=0
EXTRACT: note_off channel=9 note=36 velocity=0 time=0
EXTRACT: note_off channel=1 note=61 velocity=0 time=0
EXTRACT: note_off channel=1 note=53 velocity=0 time=0
EXTRACT: note_off channel=1 note=56 velocity=0 time=0
EXTRACT: note_on channel=1 note=60 velocity=89 time=0
EXTRACT: note_on channel=1 note=56 velocity=89 time=0
EXTRACT: note_on channel=1 note=51 velocity=89 time=0
EXTRACT: note_off channel=2 note=37 velocity=0 time=0
EXTRACT: note_off channel=2 note=25 velocity=0 time=0
EXTRACT: note_on channel=2 note=44 velocity=89 time=0
EXTRACT: note_on channel=2 note=32 velocity=89 time=0
EXTRACT: note_off channel=3 note=37 velocity=0 time=0
EXTRACT: note_off channel=3 note=25 velocity=0 time=0
EXTRACT: note_on channel=3 note=44 velocity=89 time=0
EXTRACT: note_on channel=3 note=32 velocity=89 time=0
EXTRACT: note_off channel=4 note=37 velocity=0 time=0
EXTRACT: note_off channel=4 note=25 velocity=0 time=0
EXTRACT: note_on channel=4 note=44 velocity=89 time=0
EXTRACT: note_on channel=4 note=32 velocity=89 time=0
EXTRACT: note_off channel=7 note=61 velocity=0 time=0
EXTRACT: note_off channel=7 note=53 velocity=0 time=0
EXTRACT: note_off channel=7 note=56 velocity=0 time=0
EXTRACT: note_on channel=7 note=60 velocity=89 time=0
EXTRACT: note_on channel=7 note=56 velocity=89 time=0
EXTRACT: note_on channel=7 note=51 velocity=89 time=0
EXTRACT: note_off channel=8 note=61 velocity=0 time=0
EXTRACT: note_off channel=8 note=53 velocity=0 time=0
EXTRACT: note_off channel=8 note=56 velocity=0 time=0
EXTRACT: note_on channel=8 note=60 velocity=89 time=0
EXTRACT: note_on channel=8 note=56 velocity=89 time=0
EXTRACT: note_on channel=8 note=51 velocity=89 time=0
EXTRACT: note_on channel=9 note=36 velocity=89 time=0
EXTRACT: note_off channel=0 note=70 velocity=0 time=1.125
EXTRACT: note_on channel=0 note=68 velocity=89 time=0
EXTRACT: note_off channel=1 note=51 velocity=0 time=0
EXTRACT: note_off channel=1 note=56 velocity=0 time=0
EXTRACT: note_off channel=1 note=60 velocity=0 time=0
EXTRACT: note_on channel=1 note=51 velocity=89 time=0
EXTRACT: note_on channel=1 note=55 velocity=89 time=0
EXTRACT: note_on channel=1 note=58 velocity=89 time=0
EXTRACT: note_off channel=2 note=32 velocity=0 time=0
EXTRACT: note_off channel=2 note=44 velocity=0 time=0
EXTRACT: note_on channel=2 note=39 velocity=89 time=0
EXTRACT: note_on channel=2 note=27 velocity=89 time=0
EXTRACT: note_off channel=3 note=32 velocity=0 time=0
EXTRACT: note_off channel=3 note=44 velocity=0 time=0
EXTRACT: note_on channel=3 note=39 velocity=89 time=0
EXTRACT: note_on channel=3 note=27 velocity=89 time=0
EXTRACT: note_off channel=4 note=32 velocity=0 time=0
EXTRACT: note_off channel=4 note=44 velocity=0 time=0
EXTRACT: note_on channel=4 note=39 velocity=89 time=0
EXTRACT: note_on channel=4 note=27 velocity=89 time=0
EXTRACT: note_off channel=5 note=70 velocity=0 time=0
EXTRACT: note_on channel=5 note=68 velocity=89 time=0
EXTRACT: note_off channel=6 note=70 velocity=0 time=0
EXTRACT: note_on channel=6 note=68 velocity=89 time=0
EXTRACT: note_off channel=7 note=51 velocity=0 time=0
EXTRACT: note_off channel=7 note=56 velocity=0 time=0
EXTRACT: note_off channel=7 note=60 velocity=0 time=0
EXTRACT: note_on channel=7 note=51 velocity=89 time=0
EXTRACT: note_on channel=7 note=55 velocity=89 time=0
EXTRACT: note_on channel=7 note=58 velocity=89 time=0
EXTRACT: note_off channel=8 note=51 velocity=0 time=0
EXTRACT: note_off channel=8 note=56 velocity=0 time=0
EXTRACT: note_off channel=8 note=60 velocity=0 time=0
EXTRACT: note_on channel=8 note=51 velocity=89 time=0
EXTRACT: note_on channel=8 note=55 velocity=89 time=0
EXTRACT: note_on channel=8 note=58 velocity=89 time=0
EXTRACT: note_off channel=9 note=36 velocity=0 time=0
EXTRACT: note_on channel=9 note=36 velocity=89 time=0
EXTRACT: note_off channel=9 note=36 velocity=0 time=0
EXTRACT: note_on channel=9 note=36 velocity=89 time=0
EXTRACT: note_off channel=0 note=68 velocity=0 time=0
EXTRACT: note_on channel=0 note=65 velocity=89 time=0
EXTRACT: note_off channel=5 note=68 velocity=0 time=0
EXTRACT: note_on channel=5 note=65 velocity=89 time=0
EXTRACT: note_off channel=6 note=68 velocity=0 time=0
EXTRACT: note_on channel=6 note=65 velocity=89 time=0
EXTRACT: note_off channel=0 note=65 velocity=0 time=0.1875
EXTRACT: note_off channel=5 note=65 velocity=0 time=0
EXTRACT: note_off channel=6 note=65 velocity=0 time=0
EXTRACT: note_on channel=0 note=65 velocity=89 time=0
EXTRACT: note_on channel=5 note=65 velocity=89 time=0
EXTRACT: note_on channel=6 note=65 velocity=89 time=0
EXTRACT: note_off channel=9 note=36 velocity=0 time=0
EXTRACT: note_off channel=0 note=65 velocity=0 time=0
EXTRACT: note_on channel=0 note=65 velocity=89 time=0
EXTRACT: note_off channel=1 note=58 velocity=0 time=0
EXTRACT: note_off channel=1 note=55 velocity=0 time=0
EXTRACT: note_off channel=1 note=51 velocity=0 time=0
EXTRACT: note_on channel=1 note=60 velocity=89 time=0
EXTRACT: note_on channel=1 note=56 velocity=89 time=0
EXTRACT: note_on channel=1 note=53 velocity=89 time=0
EXTRACT: note_off channel=2 note=27 velocity=0 time=0
EXTRACT: note_off channel=2 note=39 velocity=0 time=0
EXTRACT: note_on channel=2 note=29 velocity=89 time=0
EXTRACT: note_on channel=2 note=41 velocity=89 time=0
EXTRACT: note_off channel=3 note=27 velocity=0 time=0
EXTRACT: note_off channel=3 note=39 velocity=0 time=0
EXTRACT: note_on channel=3 note=29 velocity=89 time=0
EXTRACT: note_on channel=3 note=41 velocity=89 time=0
EXTRACT: note_off channel=4 note=27 velocity=0 time=0
EXTRACT: note_off channel=4 note=39 velocity=0 time=0
EXTRACT: note_on channel=4 note=29 velocity=89 time=0
EXTRACT: note_on channel=4 note=41 velocity=89 time=0
EXTRACT: note_off channel=5 note=65 velocity=0 time=0
EXTRACT: note_on channel=5 note=65 velocity=89 time=0
EXTRACT: note_off channel=6 note=65 velocity=0 time=0
EXTRACT: note_on channel=6 note=65 velocity=89 time=0
EXTRACT: note_off channel=7 note=58 velocity=0 time=0
EXTRACT: note_off channel=7 note=55 velocity=0 time=0
EXTRACT: note_off channel=7 note=51 velocity=0 time=0
EXTRACT: note_on channel=7 note=60 velocity=89 time=0
EXTRACT: note_on channel=7 note=56 velocity=89 time=0
EXTRACT: note_on channel=7 note=53 velocity=89 time=0
EXTRACT: note_off channel=8 note=58 velocity=0 time=0
EXTRACT: note_off channel=8 note=55 velocity=0 time=0
EXTRACT: note_off channel=8 note=51 velocity=0 time=0
EXTRACT: note_on channel=8 note=60 velocity=89 time=0
EXTRACT: note_on channel=8 note=56 velocity=89 time=0
EXTRACT: note_on channel=8 note=53 velocity=89 time=0
EXTRACT: note_on channel=9 note=36 velocity=89 time=0
EXTRACT: note_off channel=0 note=65 velocity=0 time=0
EXTRACT: note_on channel=0 note=65 velocity=89 time=0
EXTRACT: note_off channel=5 note=65 velocity=0 time=0
EXTRACT: note_on channel=5 note=65 velocity=89 time=0
EXTRACT: note_off channel=6 note=65 velocity=0 time=0
EXTRACT: note_on channel=6 note=65 velocity=89 time=0
EXTRACT: note_off channel=0 note=65 velocity=0 time=0
EXTRACT: note_on channel=0 note=68 velocity=89 time=0
EXTRACT: note_off channel=5 note=65 velocity=0 time=0
EXTRACT: note_on channel=5 note=68 velocity=89 time=0
EXTRACT: note_off channel=6 note=65 velocity=0 time=0
EXTRACT: note_on channel=6 note=68 velocity=89 time=0
EXTRACT: note_off channel=0 note=68 velocity=0 time=0
EXTRACT: note_on channel=0 note=68 velocity=89 time=0
EXTRACT: note_off channel=1 note=53 velocity=0 time=0
EXTRACT: note_off channel=1 note=56 velocity=0 time=0
EXTRACT: note_off channel=1 note=60 velocity=0 time=0
EXTRACT: note_on channel=1 note=56 velocity=89 time=0
EXTRACT: note_on channel=1 note=53 velocity=89 time=0
EXTRACT: note_on channel=1 note=61 velocity=89 time=0
EXTRACT: note_off channel=2 note=41 velocity=0 time=0
EXTRACT: note_off channel=2 note=29 velocity=0 time=0
EXTRACT: note_on channel=2 note=25 velocity=89 time=0
EXTRACT: note_on channel=2 note=37 velocity=89 time=0
EXTRACT: note_off channel=3 note=41 velocity=0 time=0
EXTRACT: note_off channel=3 note=29 velocity=0 time=0
EXTRACT: note_on channel=3 note=25 velocity=89 time=0
EXTRACT: note_on channel=3 note=37 velocity=89 time=0
EXTRACT: note_off channel=4 note=41 velocity=0 time=0
EXTRACT: note_off channel=4 note=29 velocity=0 time=0
EXTRACT: note_on channel=4 note=25 velocity=89 time=0
EXTRACT: note_on channel=4 note=37 velocity=89 time=0
EXTRACT: note_off channel=5 note=68 velocity=0 time=0
EXTRACT: note_on channel=5 note=68 velocity=89 time=0
EXTRACT: note_off channel=6 note=68 velocity=0 time=0
EXTRACT: note_on channel=6 note=68 velocity=89 time=0
EXTRACT: note_off channel=7 note=53 velocity=0 time=0
EXTRACT: note_off channel=7 note=56 velocity=0 time=0
EXTRACT: note_off channel=7 note=60 velocity=0 time=0
EXTRACT: note_on channel=7 note=56 velocity=89 time=0
EXTRACT: note_on channel=7 note=53 velocity=89 time=0
EXTRACT: note_on channel=7 note=61 velocity=89 time=0
EXTRACT: note_off channel=8 note=53 velocity=0 time=0
EXTRACT: note_off channel=8 note=56 velocity=0 time=0
EXTRACT: note_off channel=8 note=60 velocity=0 time=0
EXTRACT: note_on channel=8 note=56 velocity=89 time=0
EXTRACT: note_on channel=8 note=53 velocity=89 time=0
EXTRACT: note_on channel=8 note=61 velocity=89 time=0
EXTRACT: note_off channel=9 note=36 velocity=0 time=0
EXTRACT: note_on channel=9 note=36 velocity=89 time=0
EXTRACT: note_off channel=0 note=68 velocity=0 time=0
EXTRACT: note_on channel=0 note=70 velocity=89 time=0
EXTRACT: note_off channel=5 note=68 velocity=0 time=0
EXTRACT: note_on channel=5 note=70 velocity=89 time=0
EXTRACT: note_off channel=6 note=68 velocity=0 time=0
EXTRACT: note_on channel=6 note=70 velocity=89 time=0
EXTRACT: note_off channel=0 note=70 velocity=0 time=0
EXTRACT: note_on channel=0 note=70 velocity=89 time=0
EXTRACT: note_off channel=5 note=70 velocity=0 time=0
EXTRACT: note_on channel=5 note=70 velocity=89 time=0
EXTRACT: note_off channel=6 note=70 velocity=0 time=0
EXTRACT: note_on channel=6 note=70 velocity=89 time=0
EXTRACT: note_off channel=0 note=70 velocity=0 time=0
EXTRACT: note_on channel=0 note=70 velocity=89 time=0
EXTRACT: note_off channel=5 note=70 velocity=0 time=0
EXTRACT: note_on channel=5 note=70 velocity=89 time=0
EXTRACT: note_off channel=6 note=70 velocity=0 time=0
EXTRACT: note_on channel=6 note=70 velocity=89 time=0
EXTRACT: note_off channel=9 note=36 velocity=0 time=0
EXTRACT: note_off channel=1 note=61 velocity=0 time=0
EXTRACT: note_off channel=1 note=53 velocity=0 time=0
EXTRACT: note_off channel=1 note=56 velocity=0 time=0
EXTRACT: note_on channel=1 note=60 velocity=89 time=0
EXTRACT: note_on channel=1 note=56 velocity=89 time=0
EXTRACT: note_on channel=1 note=51 velocity=89 time=0
EXTRACT: note_off channel=2 note=37 velocity=0 time=0
EXTRACT: note_off channel=2 note=25 velocity=0 time=0
EXTRACT: note_on channel=2 note=44 velocity=89 time=0
EXTRACT: note_on channel=2 note=32 velocity=89 time=0
EXTRACT: note_off channel=3 note=37 velocity=0 time=0
EXTRACT: note_off channel=3 note=25 velocity=0 time=0
EXTRACT: note_on channel=3 note=44 velocity=89 time=0
EXTRACT: note_on channel=3 note=32 velocity=89 time=0
EXTRACT: note_off channel=4 note=37 velocity=0 time=0
EXTRACT: note_off channel=4 note=25 velocity=0 time=0
EXTRACT: note_on channel=4 note=44 velocity=89 time=0
EXTRACT: note_on channel=4 note=32 velocity=89 time=0
EXTRACT: note_off channel=7 note=61 velocity=0 time=0
EXTRACT: note_off channel=7 note=53 velocity=0 time=0
EXTRACT: note_off channel=7 note=56 velocity=0 time=0
EXTRACT: note_on channel=7 note=60 velocity=89 time=0
EXTRACT: note_on channel=7 note=56 velocity=89 time=0
EXTRACT: note_on channel=7 note=51 velocity=89 time=0
EXTRACT: note_off channel=8 note=61 velocity=0 time=0
EXTRACT: note_off channel=8 note=53 velocity=0 time=0
EXTRACT: note_off channel=8 note=56 velocity=0 time=0
EXTRACT: note_on channel=8 note=60 velocity=89 time=0
EXTRACT: note_on channel=8 note=56 velocity=89 time=0
EXTRACT: note_on channel=8 note=51 velocity=89 time=0
EXTRACT: note_on channel=9 note=36 velocity=89 time=0
EXTRACT: note_off channel=0 note=70 velocity=0 time=0.1875
EXTRACT: note_on channel=0 note=72 velocity=89 time=0
EXTRACT: note_off channel=5 note=70 velocity=0 time=0
EXTRACT: note_on channel=5 note=72 velocity=89 time=0
EXTRACT: note_off channel=6 note=70 velocity=0 time=0
EXTRACT: note_on channel=6 note=72 velocity=89 time=0
EXTRACT: note_off channel=0 note=72 velocity=0 time=0
EXTRACT: note_on channel=0 note=70 velocity=89 time=0
EXTRACT: note_off channel=5 note=72 velocity=0 time=0
EXTRACT: note_on channel=5 note=70 velocity=89 time=0
EXTRACT: note_off channel=6 note=72 velocity=0 time=0
EXTRACT: note_on channel=6 note=70 velocity=89 time=0
EXTRACT: note_off channel=0 note=70 velocity=0 time=0
EXTRACT: note_on channel=0 note=68 velocity=89 time=0
EXTRACT: note_off channel=1 note=51 velocity=0 time=0
EXTRACT: note_off channel=1 note=56 velocity=0 time=0
EXTRACT: note_off channel=1 note=60 velocity=0 time=0
EXTRACT: note_on channel=1 note=51 velocity=89 time=0
EXTRACT: note_on channel=1 note=55 velocity=89 time=0
EXTRACT: note_on channel=1 note=58 velocity=89 time=0
EXTRACT: note_off channel=2 note=32 velocity=0 time=0
EXTRACT: note_off channel=2 note=44 velocity=0 time=0
EXTRACT: note_on channel=2 note=39 velocity=89 time=0
EXTRACT: note_on channel=2 note=27 velocity=89 time=0
EXTRACT: note_off channel=3 note=32 velocity=0 time=0
EXTRACT: note_off channel=3 note=44 velocity=0 time=0
EXTRACT: note_on channel=3 note=39 velocity=89 time=0
EXTRACT: note_on channel=3 note=27 velocity=89 time=0
EXTRACT: note_off channel=4 note=32 velocity=0 time=0
EXTRACT: note_off channel=4 note=44 velocity=0 time=0
EXTRACT: note_on channel=4 note=39 velocity=89 time=0
EXTRACT: note_on channel=4 note=27 velocity=89 time=0
EXTRACT: note_off channel=5 note=70 velocity=0 time=0
EXTRACT: note_on channel=5 note=68 velocity=89 time=0
EXTRACT: note_off channel=6 note=70 velocity=0 time=0
EXTRACT: note_on channel=6 note=68 velocity=89 time=0
EXTRACT: note_off channel=7 note=51 velocity=0 time=0
EXTRACT: note_off channel=7 note=56 velocity=0 time=0
EXTRACT: note_off channel=7 note=60 velocity=0 time=0
EXTRACT: note_on channel=7 note=51 velocity=89 time=0
EXTRACT: note_on channel=7 note=55 velocity=89 time=0
EXTRACT: note_on channel=7 note=58 velocity=89 time=0
EXTRACT: note_off channel=8 note=51 velocity=0 time=0
EXTRACT: note_off channel=8 note=56 velocity=0 time=0
EXTRACT: note_off channel=8 note=60 velocity=0 time=0
EXTRACT: note_on channel=8 note=51 velocity=89 time=0
EXTRACT: note_on channel=8 note=55 velocity=89 time=0
EXTRACT: note_on channel=8 note=58 velocity=89 time=0
EXTRACT: note_off channel=9 note=36 velocity=0 time=0
EXTRACT: note_on channel=9 note=36 velocity=89 time=0
EXTRACT: note_off channel=9 note=36 velocity=0 time=0
EXTRACT: note_on channel=9 note=36 velocity=89 time=0
EXTRACT: note_off channel=0 note=68 velocity=0 time=0
EXTRACT: note_on channel=0 note=68 velocity=89 time=0
EXTRACT: note_off channel=5 note=68 velocity=0 time=0
EXTRACT: note_on channel=5 note=68 velocity=89 time=0
EXTRACT: note_off channel=6 note=68 velocity=0 time=0
EXTRACT: note_on channel=6 note=68 velocity=89 time=0
EXTRACT: note_off channel=0 note=68 velocity=0 time=0
EXTRACT: note_on channel=0 note=75 velocity=89 time=0
EXTRACT: note_off channel=5 note=68 velocity=0 time=0
EXTRACT: note_on channel=5 note=75 velocity=89 time=0
EXTRACT: note_off channel=6 note=68 velocity=0 time=0
EXTRACT: note_on channel=6 note=75 velocity=89 time=0
EXTRACT: note_off channel=0 note=75 velocity=0 time=0
EXTRACT: note_on channel=0 note=70 velocity=89 time=0
EXTRACT: note_off channel=5 note=75 velocity=0 time=0
EXTRACT: note_on channel=5 note=70 velocity=89 time=0
EXTRACT: note_off channel=6 note=75 velocity=0 time=0
EXTRACT: note_on channel=6 note=70 velocity=89 time=0
EXTRACT: note_off channel=9 note=36 velocity=0 time=0
EXTRACT: note_off channel=0 note=70 velocity=0 time=0
EXTRACT: note_on channel=0 note=68 velocity=89 time=0
EXTRACT: note_off channel=5 note=70 velocity=0 time=0
EXTRACT: note_on channel=5 note=68 velocity=89 time=0
EXTRACT: note_off channel=6 note=70 velocity=0 time=0
EXTRACT: note_on channel=6 note=68 velocity=89 time=0
EXTRACT: note_off channel=1 note=58 velocity=0 time=0
EXTRACT: note_off channel=1 note=55 velocity=0 time=0
EXTRACT: note_off channel=1 note=51 velocity=0 time=0
EXTRACT: note_on channel=1 note=60 velocity=89 time=0
EXTRACT: note_on channel=1 note=56 velocity=89 time=0
EXTRACT: note_on channel=1 note=53 velocity=89 time=0
EXTRACT: note_off channel=2 note=27 velocity=0 time=0
EXTRACT: note_off channel=2 note=39 velocity=0 time=0
EXTRACT: note_on channel=2 note=29 velocity=89 time=0
EXTRACT: note_on channel=2 note=41 velocity=89 time=0
EXTRACT: note_off channel=3 note=27 velocity=0 time=0
EXTRACT: note_off channel=3 note=39 velocity=0 time=0
EXTRACT: note_on channel=3 note=29 velocity=89 time=0
EXTRACT: note_on channel=3 note=41 velocity=89 time=0
EXTRACT: note_off channel=4 note=27 velocity=0 time=0
EXTRACT: note_off channel=4 note=39 velocity=0 time=0
EXTRACT: note_on channel=4 note=29 velocity=89 time=0
EXTRACT: note_on channel=4 note=41 velocity=89 time=0
EXTRACT: note_off channel=7 note=58 velocity=0 time=0
EXTRACT: note_off channel=7 note=55 velocity=0 time=0
EXTRACT: note_off channel=7 note=51 velocity=0 time=0
EXTRACT: note_on channel=7 note=60 velocity=89 time=0
EXTRACT: note_on channel=7 note=56 velocity=89 time=0
EXTRACT: note_on channel=7 note=53 velocity=89 time=0
EXTRACT: note_off channel=8 note=58 velocity=0 time=0
EXTRACT: note_off channel=8 note=55 velocity=0 time=0
EXTRACT: note_off channel=8 note=51 velocity=0 time=0
EXTRACT: note_on channel=8 note=60 velocity=89 time=0
EXTRACT: note_on channel=8 note=56 velocity=89 time=0
EXTRACT: note_on channel=8 note=53 velocity=89 time=0
EXTRACT: note_on channel=9 note=36 velocity=89 time=0
EXTRACT: note_off channel=0 note=68 velocity=0 time=0
EXTRACT: note_on channel=0 note=70 velocity=89 time=0
EXTRACT: note_off channel=5 note=68 velocity=0 time=0
EXTRACT: note_on channel=5 note=70 velocity=89 time=0
EXTRACT: note_off channel=6 note=68 velocity=0 time=0
EXTRACT: note_on channel=6 note=70 velocity=89 time=0
EXTRACT: note_off channel=0 note=70 velocity=0 time=0
EXTRACT: note_on channel=0 note=72 velocity=89 time=0
EXTRACT: note_off channel=5 note=70 velocity=0 time=0
EXTRACT: note_on channel=5 note=72 velocity=89 time=0
EXTRACT: note_off channel=6 note=70 velocity=0 time=0
EXTRACT: note_on channel=6 note=72 velocity=89 time=0
EXTRACT: note_off channel=0 note=72 velocity=0 time=0.1875
EXTRACT: note_off channel=5 note=72 velocity=0 time=0
EXTRACT: note_off channel=6 note=72 velocity=0 time=0
EXTRACT: note_on channel=0 note=68 velocity=89 time=0
EXTRACT: note_off channel=1 note=53 velocity=0 time=0
EXTRACT: note_off channel=1 note=56 velocity=0 time=0
EXTRACT: note_off channel=1 note=60 velocity=0 time=0
EXTRACT: note_on channel=1 note=56 velocity=89 time=0
EXTRACT: note_on channel=1 note=53 velocity=89 time=0
EXTRACT: note_on channel=1 note=61 velocity=89 time=0
EXTRACT: note_off channel=2 note=41 velocity=0 time=0
EXTRACT: note_off channel=2 note=29 velocity=0 time=0
EXTRACT: note_on channel=2 note=25 velocity=89 time=0
EXTRACT: note_on channel=2 note=37 velocity=89 time=0
EXTRACT: note_off channel=3 note=41 velocity=0 time=0
EXTRACT: note_off channel=3 note=29 velocity=0 time=0
EXTRACT: note_on channel=3 note=25 velocity=89 time=0
EXTRACT: note_on channel=3 note=37 velocity=89 time=0
EXTRACT: note_off channel=4 note=41 velocity=0 time=0
EXTRACT: note_off channel=4 note=29 velocity=0 time=0
EXTRACT: note_on channel=4 note=25 velocity=89 time=0
EXTRACT: note_on channel=4 note=37 velocity=89 time=0
EXTRACT: note_on channel=5 note=68 velocity=89 time=0
EXTRACT: note_on channel=6 note=68 velocity=89 time=0
EXTRACT: note_off channel=7 note=53 velocity=0 time=0
EXTRACT: note_off channel=7 note=56 velocity=0 time=0
EXTRACT: note_off channel=7 note=60 velocity=0 time=0
EXTRACT: note_on channel=7 note=56 velocity=89 time=0
EXTRACT: note_on channel=7 note=53 velocity=89 time=0
EXTRACT: note_on channel=7 note=61 velocity=89 time=0
EXTRACT: note_off channel=8 note=53 velocity=0 time=0
EXTRACT: note_off channel=8 note=56 velocity=0 time=0
EXTRACT: note_off channel=8 note=60 velocity=0 time=0
EXTRACT: note_on channel=8 note=56 velocity=89 time=0
EXTRACT: note_on channel=8 note=53 velocity=89 time=0
EXTRACT: note_on channel=8 note=61 velocity=89 time=0
EXTRACT: note_off channel=9 note=36 velocity=0 time=0
EXTRACT: note_on channel=9 note=36 velocity=89 time=0
EXTRACT: note_off channel=0 note=68 velocity=0 time=0
EXTRACT: note_on channel=0 note=68 velocity=89 time=0
EXTRACT: note_off channel=5 note=68 velocity=0 time=0
EXTRACT: note_on channel=5 note=68 velocity=89 time=0
EXTRACT: note_off channel=6 note=68 velocity=0 time=0
EXTRACT: note_on channel=6 note=68 velocity=89 time=0
EXTRACT: note_off channel=0 note=68 velocity=0 time=0
EXTRACT: note_on channel=0 note=65 velocity=89 time=0
EXTRACT: note_off channel=5 note=68 velocity=0 time=0
EXTRACT: note_on channel=5 note=65 velocity=89 time=0
EXTRACT: note_off channel=6 note=68 velocity=0 time=0
EXTRACT: note_on channel=6 note=65 velocity=89 time=0
EXTRACT: note_off channel=0 note=65 velocity=0 time=0
EXTRACT: note_on channel=0 note=63 velocity=89 time=0
EXTRACT: note_off channel=5 note=65 velocity=0 time=0
EXTRACT: note_on channel=5 note=63 velocity=89 time=0
EXTRACT: note_off channel=6 note=65 velocity=0 time=0
EXTRACT: note_on channel=6 note=63 velocity=89 time=0
EXTRACT: note_off channel=0 note=63 velocity=0 time=0.1875
EXTRACT: note_off channel=5 note=63 velocity=0 time=0
EXTRACT: note_off channel=6 note=63 velocity=0 time=0
EXTRACT: note_off channel=9 note=36 velocity=0 time=0
EXTRACT: note_on channel=0 note=68 velocity=89 time=0
EXTRACT: note_on channel=5 note=68 velocity=89 time=0
EXTRACT: note_on channel=6 note=68 velocity=89 time=0
EXTRACT: note_off channel=0 note=68 velocity=0 time=0
EXTRACT: note_on channel=0 note=68 velocity=89 time=0
EXTRACT: note_off channel=5 note=68 velocity=0 time=0
EXTRACT: note_on channel=5 note=68 velocity=89 time=0
EXTRACT: note_off channel=6 note=68 velocity=0 time=0
EXTRACT: note_on channel=6 note=68 velocity=89 time=0
EXTRACT: note_off channel=0 note=68 velocity=0 time=0
EXTRACT: note_on channel=0 note=68 velocity=89 time=0
EXTRACT: note_off channel=5 note=68 velocity=0 time=0
EXTRACT: note_on channel=5 note=68 velocity=89 time=0
EXTRACT: note_off channel=6 note=68 velocity=0 time=0
EXTRACT: note_on channel=6 note=68 velocity=89 time=0
EXTRACT: note_off channel=0 note=68 velocity=0 time=0
EXTRACT: note_on channel=0 note=68 velocity=89 time=0
EXTRACT: note_off channel=1 note=61 velocity=0 time=0
EXTRACT: note_off channel=1 note=53 velocity=0 time=0
EXTRACT: note_off channel=1 note=56 velocity=0 time=0
EXTRACT: note_on channel=1 note=60 velocity=89 time=0
EXTRACT: note_on channel=1 note=56 velocity=89 time=0
EXTRACT: note_on channel=1 note=51 velocity=89 time=0
EXTRACT: note_off channel=2 note=37 velocity=0 time=0
EXTRACT: note_off channel=2 note=25 velocity=0 time=0
EXTRACT: note_on channel=2 note=44 velocity=89 time=0
EXTRACT: note_on channel=2 note=32 velocity=89 time=0
EXTRACT: note_off channel=3 note=37 velocity=0 time=0
EXTRACT: note_off channel=3 note=25 velocity=0 time=0
EXTRACT: note_on channel=3 note=44 velocity=89 time=0
EXTRACT: note_on channel=3 note=32 velocity=89 time=0
EXTRACT: note_off channel=4 note=37 velocity=0 time=0
EXTRACT: note_off channel=4 note=25 velocity=0 time=0
EXTRACT: note_on channel=4 note=44 velocity=89 time=0
EXTRACT: note_on channel=4 note=32 velocity=89 time=0
EXTRACT: note_off channel=5 note=68 velocity=0 time=0
EXTRACT: note_on channel=5 note=68 velocity=89 time=0
EXTRACT: note_off channel=6 note=68 velocity=0 time=0
EXTRACT: note_on channel=6 note=68 velocity=89 time=0
EXTRACT: note_off channel=7 note=61 velocity=0 time=0
EXTRACT: note_off channel=7 note=53 velocity=0 time=0
EXTRACT: note_off channel=7 note=56 velocity=0 time=0
EXTRACT: note_on channel=7 note=60 velocity=89 time=0
EXTRACT: note_on channel=7 note=56 velocity=89 time=0
EXTRACT: note_on channel=7 note=51 velocity=89 time=0
EXTRACT: note_off channel=8 note=61 velocity=0 time=0
EXTRACT: note_off channel=8 note=53 velocity=0 time=0
EXTRACT: note_off channel=8 note=56 velocity=0 time=0
EXTRACT: note_on channel=8 note=60 velocity=89 time=0
EXTRACT: note_on channel=8 note=56 velocity=89 time=0
EXTRACT: note_on channel=8 note=51 velocity=89 time=0
EXTRACT: note_on channel=9 note=36 velocity=89 time=0
EXTRACT: note_off channel=0 note=68 velocity=0 time=0
EXTRACT: note_on channel=0 note=67 velocity=89 time=0
EXTRACT: note_off channel=5 note=68 velocity=0 time=0
EXTRACT: note_on channel=5 note=67 velocity=89 time=0
EXTRACT: note_off channel=6 note=68 velocity=0 time=0
EXTRACT: note_on channel=6 note=67 velocity=89 time=0
EXTRACT: note_off channel=0 note=67 velocity=0 time=0
EXTRACT: note_on channel=0 note=65 velocity=89 time=0
EXTRACT: note_off channel=5 note=67 velocity=0 time=0
EXTRACT: note_on channel=5 note=65 velocity=89 time=0
EXTRACT: note_off channel=6 note=67 velocity=0 time=0
EXTRACT: note_on channel=6 note=65 velocity=89 time=0
EXTRACT: note_off channel=0 note=65 velocity=0 time=0
EXTRACT: note_on channel=0 note=63 velocity=89 time=0
EXTRACT: note_off channel=5 note=65 velocity=0 time=0
EXTRACT: note_on channel=5 note=63 velocity=89 time=0
EXTRACT: note_off channel=6 note=65 velocity=0 time=0
EXTRACT: note_on channel=6 note=63 velocity=89 time=0
EXTRACT: note_off channel=0 note=63 velocity=0 time=0
EXTRACT: note_on channel=0 note=63 velocity=89 time=0
EXTRACT: note_off channel=1 note=51 velocity=0 time=0
EXTRACT: note_off channel=1 note=56 velocity=0 time=0
EXTRACT: note_off channel=1 note=60 velocity=0 time=0
EXTRACT: note_on channel=1 note=51 velocity=89 time=0
EXTRACT: note_on channel=1 note=55 velocity=89 time=0
EXTRACT: note_on channel=1 note=58 velocity=89 time=0
EXTRACT: note_off channel=2 note=32 velocity=0 time=0
EXTRACT: note_off channel=2 note=44 velocity=0 time=0
EXTRACT: note_on channel=2 note=39 velocity=89 time=0
EXTRACT: note_on channel=2 note=27 velocity=89 time=0
EXTRACT: note_off channel=3 note=32 velocity=0 time=0
EXTRACT: note_off channel=3 note=44 velocity=0 time=0
EXTRACT: note_on channel=3 note=39 velocity=89 time=0
EXTRACT: note_on channel=3 note=27 velocity=89 time=0
EXTRACT: note_off channel=4 note=32 velocity=0 time=0
EXTRACT: note_off channel=4 note=44 velocity=0 time=0
EXTRACT: note_on channel=4 note=39 velocity=89 time=0
EXTRACT: note_on channel=4 note=27 velocity=89 time=0
EXTRACT: note_off channel=5 note=63 velocity=0 time=0
EXTRACT: note_on channel=5 note=63 velocity=89 time=0
EXTRACT: note_off channel=6 note=63 velocity=0 time=0
EXTRACT: note_on channel=6 note=63 velocity=89 time=0
EXTRACT: note_off channel=7 note=51 velocity=0 time=0
EXTRACT: note_off channel=7 note=56 velocity=0 time=0
EXTRACT: note_off channel=7 note=60 velocity=0 time=0
EXTRACT: note_on channel=7 note=51 velocity=89 time=0
EXTRACT: note_on channel=7 note=55 velocity=89 time=0
EXTRACT: note_on channel=7 note=58 velocity=89 time=0
EXTRACT: note_off channel=8 note=51 velocity=0 time=0
EXTRACT: note_off channel=8 note=56 velocity=0 time=0
EXTRACT: note_off channel=8 note=60 velocity=0 time=0
EXTRACT: note_on channel=8 note=51 velocity=89 time=0
EXTRACT: note_on channel=8 note=55 velocity=89 time=0
EXTRACT: note_on channel=8 note=58 velocity=89 time=0
EXTRACT: note_off channel=9 note=36 velocity=0 time=0
EXTRACT: note_on channel=9 note=36 velocity=89 time=0
EXTRACT: note_off channel=9 note=36 velocity=0 time=0
EXTRACT: note_on channel=9 note=36 velocity=89 time=0
EXTRACT: note_off channel=0 note=63 velocity=0 time=0
EXTRACT: note_on channel=0 note=63 velocity=89 time=0
EXTRACT: note_off channel=5 note=63 velocity=0 time=0
EXTRACT: note_on channel=5 note=63 velocity=89 time=0
EXTRACT: note_off channel=6 note=63 velocity=0 time=0
EXTRACT: note_on channel=6 note=63 velocity=89 time=0
EXTRACT: note_off channel=0 note=63 velocity=0 time=0
EXTRACT: note_on channel=0 note=63 velocity=89 time=0
EXTRACT: note_off channel=5 note=63 velocity=0 time=0
EXTRACT: note_on channel=5 note=63 velocity=89 time=0
EXTRACT: note_off channel=6 note=63 velocity=0 time=0
EXTRACT: note_on channel=6 note=63 velocity=89 time=0
EXTRACT: note_off channel=0 note=63 velocity=0 time=0
EXTRACT: note_on channel=0 note=75 velocity=89 time=0
EXTRACT: note_off channel=5 note=63 velocity=0 time=0
EXTRACT: note_on channel=5 note=75 velocity=89 time=0
EXTRACT: note_off channel=6 note=63 velocity=0 time=0
EXTRACT: note_on channel=6 note=75 velocity=89 time=0
EXTRACT: note_off channel=0 note=75 velocity=0 time=0
EXTRACT: note_on channel=0 note=70 velocity=89 time=0
EXTRACT: note_off channel=5 note=75 velocity=0 time=0
EXTRACT: note_on channel=5 note=70 velocity=89 time=0
EXTRACT: note_off channel=6 note=75 velocity=0 time=0
EXTRACT: note_on channel=6 note=70 velocity=89 time=0
EXTRACT: note_off channel=9 note=36 velocity=0 time=0
EXTRACT: note_off channel=0 note=70 velocity=0 time=0
EXTRACT: note_on channel=0 note=68 velocity=89 time=0
EXTRACT: note_off channel=5 note=70 velocity=0 time=0
EXTRACT: note_on channel=5 note=68 velocity=89 time=0
EXTRACT: note_off channel=6 note=70 velocity=0 time=0
EXTRACT: note_on channel=6 note=68 velocity=89 time=0
EXTRACT: note_off channel=1 note=58 velocity=0 time=0
EXTRACT: note_off channel=1 note=55 velocity=0 time=0
EXTRACT: note_off channel=1 note=51 velocity=0 time=0
EXTRACT: note_on channel=1 note=60 velocity=89 time=0
EXTRACT: note_on channel=1 note=56 velocity=89 time=0
EXTRACT: note_on channel=1 note=53 velocity=89 time=0
EXTRACT: note_off channel=2 note=27 velocity=0 time=0
EXTRACT: note_off channel=2 note=39 velocity=0 time=0
EXTRACT: note_on channel=2 note=29 velocity=89 time=0
EXTRACT: note_on channel=2 note=41 velocity=89 time=0
EXTRACT: note_off channel=3 note=27 velocity=0 time=0
EXTRACT: note_off channel=3 note=39 velocity=0 time=0
EXTRACT: note_on channel=3 note=29 velocity=89 time=0
EXTRACT: note_on channel=3 note=41 velocity=89 time=0
EXTRACT: note_off channel=4 note=27 velocity=0 time=0
EXTRACT: note_off channel=4 note=39 velocity=0 time=0
EXTRACT: note_on channel=4 note=29 velocity=89 time=0
EXTRACT: note_on channel=4 note=41 velocity=89 time=0
EXTRACT: note_off channel=7 note=58 velocity=0 time=0
EXTRACT: note_off channel=7 note=55 velocity=0 time=0
EXTRACT: note_off channel=7 note=51 velocity=0 time=0
EXTRACT: note_on channel=7 note=60 velocity=89 time=0
EXTRACT: note_on channel=7 note=56 velocity=89 time=0
EXTRACT: note_on channel=7 note=53 velocity=89 time=0
EXTRACT: note_off channel=8 note=58 velocity=0 time=0
EXTRACT: note_off channel=8 note=55 velocity=0 time=0
EXTRACT: note_off channel=8 note=51 velocity=0 time=0
EXTRACT: note_on channel=8 note=60 velocity=89 time=0
EXTRACT: note_on channel=8 note=56 velocity=89 time=0
EXTRACT: note_on channel=8 note=53 velocity=89 time=0
EXTRACT: note_on channel=9 note=36 velocity=89 time=0
EXTRACT: note_off channel=0 note=68 velocity=0 time=0
EXTRACT: note_on channel=0 note=70 velocity=89 time=0
EXTRACT: note_off channel=5 note=68 velocity=0 time=0
EXTRACT: note_on channel=5 note=70 velocity=89 time=0
EXTRACT: note_off channel=6 note=68 velocity=0 time=0
EXTRACT: note_on channel=6 note=70 velocity=89 time=0
EXTRACT: note_off channel=0 note=70 velocity=0 time=0
EXTRACT: note_on channel=0 note=72 velocity=89 time=0
EXTRACT: note_off channel=5 note=70 velocity=0 time=0
EXTRACT: note_on channel=5 note=72 velocity=89 time=0
EXTRACT: note_off channel=6 note=70 velocity=0 time=0
EXTRACT: note_on channel=6 note=72 velocity=89 time=0
EXTRACT: note_off channel=0 note=72 velocity=0 time=0.1875
EXTRACT: note_off channel=5 note=72 velocity=0 time=0
EXTRACT: note_off channel=6 note=72 velocity=0 time=0
EXTRACT: note_on channel=0 note=68 velocity=89 time=0
EXTRACT: note_off channel=1 note=53 velocity=0 time=0
EXTRACT: note_off channel=1 note=56 velocity=0 time=0
EXTRACT: note_off channel=1 note=60 velocity=0 time=0
EXTRACT: note_on channel=1 note=56 velocity=89 time=0
EXTRACT: note_on channel=1 note=53 velocity=89 time=0
EXTRACT: note_on channel=1 note=61 velocity=89 time=0
EXTRACT: note_off channel=2 note=41 velocity=0 time=0
EXTRACT: note_off channel=2 note=29 velocity=0 time=0
EXTRACT: note_on channel=2 note=25 velocity=89 time=0
EXTRACT: note_on channel=2 note=37 velocity=89 time=0
EXTRACT: note_off channel=3 note=41 velocity=0 time=0
EXTRACT: note_off channel=3 note=29 velocity=0 time=0
EXTRACT: note_on channel=3 note=25 velocity=89 time=0
EXTRACT: note_on channel=3 note=37 velocity=89 time=0
EXTRACT: note_off channel=4 note=41 velocity=0 time=0
EXTRACT: note_off channel=4 note=29 velocity=0 time=0
EXTRACT: note_on channel=4 note=25 velocity=89 time=0
EXTRACT: note_on channel=4 note=37 velocity=89 time=0
EXTRACT: note_on channel=5 note=68 velocity=89 time=0
EXTRACT: note_on channel=6 note=68 velocity=89 time=0
EXTRACT: note_off channel=7 note=53 velocity=0 time=0
EXTRACT: note_off channel=7 note=56 velocity=0 time=0
EXTRACT: note_off channel=7 note=60 velocity=0 time=0
EXTRACT: note_on channel=7 note=56 velocity=89 time=0
EXTRACT: note_on channel=7 note=53 velocity=89 time=0
EXTRACT: note_on channel=7 note=61 velocity=89 time=0
EXTRACT: note_off channel=8 note=53 velocity=0 time=0
EXTRACT: note_off channel=8 note=56 velocity=0 time=0
EXTRACT: note_off channel=8 note=60 velocity=0 time=0
EXTRACT: note_on channel=8 note=56 velocity=89 time=0
EXTRACT: note_on channel=8 note=53 velocity=89 time=0
EXTRACT: note_on channel=8 note=61 velocity=89 time=0
EXTRACT: note_off channel=9 note=36 velocity=0 time=0
EXTRACT: note_on channel=9 note=36 velocity=89 time=0
EXTRACT: note_off channel=0 note=68 velocity=0 time=0
EXTRACT: note_on channel=0 note=68 velocity=89 time=0
EXTRACT: note_off channel=5 note=68 velocity=0 time=0
EXTRACT: note_on channel=5 note=68 velocity=89 time=0
EXTRACT: note_off channel=6 note=68 velocity=0 time=0
EXTRACT: note_on channel=6 note=68 velocity=89 time=0
EXTRACT: note_off channel=0 note=68 velocity=0 time=0
EXTRACT: note_on channel=0 note=65 velocity=89 time=0
EXTRACT: note_off channel=5 note=68 velocity=0 time=0
EXTRACT: note_on channel=5 note=65 velocity=89 time=0
EXTRACT: note_off channel=6 note=68 velocity=0 time=0
EXTRACT: note_on channel=6 note=65 velocity=89 time=0
EXTRACT: note_off channel=0 note=65 velocity=0 time=0
EXTRACT: note_on channel=0 note=63 velocity=89 time=0
EXTRACT: note_off channel=5 note=65 velocity=0 time=0
EXTRACT: note_on channel=5 note=63 velocity=89 time=0
EXTRACT: note_off channel=6 note=65 velocity=0 time=0
EXTRACT: note_on channel=6 note=63 velocity=89 time=0
EXTRACT: note_off channel=0 note=63 velocity=0 time=0.1875
EXTRACT: note_off channel=5 note=63 velocity=0 time=0
EXTRACT: note_off channel=6 note=63 velocity=0 time=0
EXTRACT: note_off channel=9 note=36 velocity=0 time=0
EXTRACT: note_on channel=0 note=68 velocity=89 time=0
EXTRACT: note_off channel=1 note=61 velocity=0 time=0
EXTRACT: note_off channel=1 note=53 velocity=0 time=0
EXTRACT: note_off channel=1 note=56 velocity=0 time=0
EXTRACT: note_on channel=1 note=60 velocity=89 time=0
EXTRACT: note_on channel=1 note=56 velocity=89 time=0
EXTRACT: note_on channel=1 note=51 velocity=89 time=0
EXTRACT: note_off channel=2 note=37 velocity=0 time=0
EXTRACT: note_off channel=2 note=25 velocity=0 time=0
EXTRACT: note_on channel=2 note=44 velocity=89 time=0
EXTRACT: note_on channel=2 note=32 velocity=89 time=0
EXTRACT: note_off channel=3 note=37 velocity=0 time=0
EXTRACT: note_off channel=3 note=25 velocity=0 time=0
EXTRACT: note_on channel=3 note=44 velocity=89 time=0
EXTRACT: note_on channel=3 note=32 velocity=89 time=0
EXTRACT: note_off channel=4 note=37 velocity=0 time=0
EXTRACT: note_off channel=4 note=25 velocity=0 time=0
EXTRACT: note_on channel=4 note=44 velocity=89 time=0
EXTRACT: note_on channel=4 note=32 velocity=89 time=0
EXTRACT: note_on channel=5 note=68 velocity=89 time=0
EXTRACT: note_on channel=6 note=68 velocity=89 time=0
EXTRACT: note_off channel=7 note=61 velocity=0 time=0
EXTRACT: note_off channel=7 note=53 velocity=0 time=0
EXTRACT: note_off channel=7 note=56 velocity=0 time=0
EXTRACT: note_on channel=7 note=60 velocity=89 time=0
EXTRACT: note_on channel=7 note=56 velocity=89 time=0
EXTRACT: note_on channel=7 note=51 velocity=89 time=0
EXTRACT: note_off channel=8 note=61 velocity=0 time=0
EXTRACT: note_off channel=8 note=53 velocity=0 time=0
EXTRACT: note_off channel=8 note=56 velocity=0 time=0
EXTRACT: note_on channel=8 note=60 velocity=89 time=0
EXTRACT: note_on channel=8 note=56 velocity=89 time=0
EXTRACT: note_on channel=8 note=51 velocity=89 time=0
EXTRACT: note_on channel=9 note=36 velocity=89 time=0
EXTRACT: note_off channel=0 note=68 velocity=0 time=0
EXTRACT: note_on channel=0 note=67 velocity=89 time=0
EXTRACT: note_off channel=5 note=68 velocity=0 time=0
EXTRACT: note_on channel=5 note=67 velocity=89 time=0
EXTRACT: note_off channel=6 note=68 velocity=0 time=0
EXTRACT: note_on channel=6 note=67 velocity=89 time=0
EXTRACT: note_off channel=0 note=67 velocity=0 time=0
EXTRACT: note_on channel=0 note=65 velocity=89 time=0
EXTRACT: note_off channel=5 note=67 velocity=0 time=0
EXTRACT: note_on channel=5 note=65 velocity=89 time=0
EXTRACT: note_off channel=6 note=67 velocity=0 time=0
EXTRACT: note_on channel=6 note=65 velocity=89 time=0
EXTRACT: note_off channel=0 note=65 velocity=0 time=0
EXTRACT: note_on channel=0 note=63 velocity=89 time=0
EXTRACT: note_off channel=5 note=65 velocity=0 time=0
EXTRACT: note_on channel=5 note=63 velocity=89 time=0
EXTRACT: note_off channel=6 note=65 velocity=0 time=0
EXTRACT: note_on channel=6 note=63 velocity=89 time=0
EXTRACT: note_off channel=0 note=63 velocity=0 time=0
EXTRACT: note_on channel=0 note=63 velocity=89 time=0
EXTRACT: note_off channel=1 note=51 velocity=0 time=0
EXTRACT: note_off channel=1 note=56 velocity=0 time=0
EXTRACT: note_off channel=1 note=60 velocity=0 time=0
EXTRACT: note_on channel=1 note=51 velocity=89 time=0
EXTRACT: note_on channel=1 note=55 velocity=89 time=0
EXTRACT: note_on channel=1 note=58 velocity=89 time=0
EXTRACT: note_off channel=2 note=32 velocity=0 time=0
EXTRACT: note_off channel=2 note=44 velocity=0 time=0
EXTRACT: note_on channel=2 note=39 velocity=89 time=0
EXTRACT: note_on channel=2 note=27 velocity=89 time=0
EXTRACT: note_off channel=3 note=32 velocity=0 time=0
EXTRACT: note_off channel=3 note=44 velocity=0 time=0
EXTRACT: note_on channel=3 note=39 velocity=89 time=0
EXTRACT: note_on channel=3 note=27 velocity=89 time=0
EXTRACT: note_off channel=4 note=32 velocity=0 time=0
EXTRACT: note_off channel=4 note=44 velocity=0 time=0
EXTRACT: note_on channel=4 note=39 velocity=89 time=0
EXTRACT: note_on channel=4 note=27 velocity=89 time=0
EXTRACT: note_off channel=5 note=63 velocity=0 time=0
EXTRACT: note_on channel=5 note=63 velocity=89 time=0
EXTRACT: note_off channel=6 note=63 velocity=0 time=0
EXTRACT: note_on channel=6 note=63 velocity=89 time=0
EXTRACT: note_off channel=7 note=51 velocity=0 time=0
EXTRACT: note_off channel=7 note=56 velocity=0 time=0
EXTRACT: note_off channel=7 note=60 velocity=0 time=0
EXTRACT: note_on channel=7 note=51 velocity=89 time=0
EXTRACT: note_on channel=7 note=55 velocity=89 time=0
EXTRACT: note_on channel=7 note=58 velocity=89 time=0
EXTRACT: note_off channel=8 note=51 velocity=0 time=0
EXTRACT: note_off channel=8 note=56 velocity=0 time=0
EXTRACT: note_off channel=8 note=60 velocity=0 time=0
EXTRACT: note_on channel=8 note=51 velocity=89 time=0
EXTRACT: note_on channel=8 note=55 velocity=89 time=0
EXTRACT: note_on channel=8 note=58 velocity=89 time=0
EXTRACT: note_off channel=9 note=36 velocity=0 time=0
EXTRACT: note_on channel=9 note=36 velocity=89 time=0
EXTRACT: note_off channel=9 note=36 velocity=0 time=0
EXTRACT: note_on channel=9 note=36 velocity=89 time=0
EXTRACT: note_off channel=0 note=63 velocity=0 time=0
EXTRACT: note_on channel=0 note=65 velocity=89 time=0
EXTRACT: note_off channel=5 note=63 velocity=0 time=0
EXTRACT: note_on channel=5 note=65 velocity=89 time=0
EXTRACT: note_off channel=6 note=63 velocity=0 time=0
EXTRACT: note_on channel=6 note=65 velocity=89 time=0
EXTRACT: note_off channel=0 note=65 velocity=0 time=0.375
EXTRACT: note_off channel=5 note=65 velocity=0 time=0
EXTRACT: note_off channel=6 note=65 velocity=0 time=0
EXTRACT: note_off channel=9 note=36 velocity=0 time=0.375
EXTRACT: note_on channel=0 note=65 velocity=89 time=0
EXTRACT: note_off channel=1 note=58 velocity=0 time=0
EXTRACT: note_off channel=1 note=55 velocity=0 time=0
EXTRACT: note_off channel=1 note=51 velocity=0 time=0
EXTRACT: note_on channel=1 note=60 velocity=89 time=0
EXTRACT: note_on channel=1 note=56 velocity=89 time=0
EXTRACT: note_on channel=1 note=53 velocity=89 time=0
EXTRACT: note_off channel=2 note=27 velocity=0 time=0
EXTRACT: note_off channel=2 note=39 velocity=0 time=0
EXTRACT: note_on channel=2 note=29 velocity=89 time=0
EXTRACT: note_on channel=2 note=41 velocity=89 time=0
EXTRACT: note_off channel=3 note=27 velocity=0 time=0
EXTRACT: note_off channel=3 note=39 velocity=0 time=0
EXTRACT: note_on channel=3 note=29 velocity=89 time=0
EXTRACT: note_on channel=3 note=41 velocity=89 time=0
EXTRACT: note_off channel=4 note=27 velocity=0 time=0
EXTRACT: note_off channel=4 note=39 velocity=0 time=0
EXTRACT: note_on channel=4 note=29 velocity=89 time=0
EXTRACT: note_on channel=4 note=41 velocity=89 time=0
EXTRACT: note_on channel=5 note=65 velocity=89 time=0
EXTRACT: note_on channel=6 note=65 velocity=89 time=0
EXTRACT: note_off channel=7 note=58 velocity=0 time=0
EXTRACT: note_off channel=7 note=55 velocity=0 time=0
EXTRACT: note_off channel=7 note=51 velocity=0 time=0
EXTRACT: note_on channel=7 note=60 velocity=89 time=0
EXTRACT: note_on channel=7 note=56 velocity=89 time=0
EXTRACT: note_on channel=7 note=53 velocity=89 time=0
EXTRACT: note_off channel=8 note=58 velocity=0 time=0
EXTRACT: note_off channel=8 note=55 velocity=0 time=0
EXTRACT: note_off channel=8 note=51 velocity=0 time=0
EXTRACT: note_on channel=8 note=60 velocity=89 time=0
EXTRACT: note_on channel=8 note=56 velocity=89 time=0
EXTRACT: note_on channel=8 note=53 velocity=89 time=0
EXTRACT: note_on channel=9 note=36 velocity=89 time=0
EXTRACT: note_off channel=0 note=65 velocity=0 time=0
EXTRACT: note_on channel=0 note=65 velocity=89 time=0
EXTRACT: note_off channel=5 note=65 velocity=0 time=0
EXTRACT: note_on channel=5 note=65 velocity=89 time=0
EXTRACT: note_off channel=6 note=65 velocity=0 time=0
EXTRACT: note_on channel=6 note=65 velocity=89 time=0
EXTRACT: note_off channel=0 note=65 velocity=0 time=0
EXTRACT: note_on channel=0 note=68 velocity=89 time=0
EXTRACT: note_off channel=5 note=65 velocity=0 time=0
EXTRACT: note_on channel=5 note=68 velocity=89 time=0
EXTRACT: note_off channel=6 note=65 velocity=0 time=0
EXTRACT: note_on channel=6 note=68 velocity=89 time=0
EXTRACT: note_off channel=0 note=68 velocity=0 time=0
EXTRACT: note_on channel=0 note=68 velocity=89 time=0
EXTRACT: note_off channel=1 note=53 velocity=0 time=0
EXTRACT: note_off channel=1 note=56 velocity=0 time=0
EXTRACT: note_off channel=1 note=60 velocity=0 time=0
EXTRACT: note_on channel=1 note=56 velocity=89 time=0
EXTRACT: note_on channel=1 note=53 velocity=89 time=0
EXTRACT: note_on channel=1 note=61 velocity=89 time=0
EXTRACT: note_off channel=2 note=41 velocity=0 time=0
EXTRACT: note_off channel=2 note=29 velocity=0 time=0
EXTRACT: note_on channel=2 note=25 velocity=89 time=0
EXTRACT: note_on channel=2 note=37 velocity=89 time=0
EXTRACT: note_off channel=3 note=41 velocity=0 time=0
EXTRACT: note_off channel=3 note=29 velocity=0 time=0
EXTRACT: note_on channel=3 note=25 velocity=89 time=0
EXTRACT: note_on channel=3 note=37 velocity=89 time=0
EXTRACT: note_off channel=4 note=41 velocity=0 time=0
EXTRACT: note_off channel=4 note=29 velocity=0 time=0
EXTRACT: note_on channel=4 note=25 velocity=89 time=0
EXTRACT: note_on channel=4 note=37 velocity=89 time=0
EXTRACT: note_off channel=5 note=68 velocity=0 time=0
EXTRACT: note_on channel=5 note=68 velocity=89 time=0
EXTRACT: note_off channel=6 note=68 velocity=0 time=0
EXTRACT: note_on channel=6 note=68 velocity=89 time=0
EXTRACT: note_off channel=7 note=53 velocity=0 time=0
EXTRACT: note_off channel=7 note=56 velocity=0 time=0
EXTRACT: note_off channel=7 note=60 velocity=0 time=0
EXTRACT: note_on channel=7 note=56 velocity=89 time=0
EXTRACT: note_on channel=7 note=53 velocity=89 time=0
EXTRACT: note_on channel=7 note=61 velocity=89 time=0
EXTRACT: note_off channel=8 note=53 velocity=0 time=0
EXTRACT: note_off channel=8 note=56 velocity=0 time=0
EXTRACT: note_off channel=8 note=60 velocity=0 time=0
EXTRACT: note_on channel=8 note=56 velocity=89 time=0
EXTRACT: note_on channel=8 note=53 velocity=89 time=0
EXTRACT: note_on channel=8 note=61 velocity=89 time=0
EXTRACT: note_off channel=9 note=36 velocity=0 time=0
EXTRACT: note_on channel=9 note=36 velocity=89 time=0
EXTRACT: note_off channel=0 note=68 velocity=0 time=0
EXTRACT: note_on channel=0 note=70 velocity=89 time=0
EXTRACT: note_off channel=5 note=68 velocity=0 time=0
EXTRACT: note_on channel=5 note=70 velocity=89 time=0
EXTRACT: note_off channel=6 note=68 velocity=0 time=0
EXTRACT: note_on channel=6 note=70 velocity=89 time=0
EXTRACT: note_off channel=0 note=70 velocity=0 time=0
EXTRACT: note_on channel=0 note=70 velocity=89 time=0
EXTRACT: note_off channel=5 note=70 velocity=0 time=0
EXTRACT: note_on channel=5 note=70 velocity=89 time=0
EXTRACT: note_off channel=6 note=70 velocity=0 time=0
EXTRACT: note_on channel=6 note=70 velocity=89 time=0
EXTRACT: note_off channel=9 note=36 velocity=0 time=0
EXTRACT: note_off channel=0 note=70 velocity=0 time=0.5625
EXTRACT: note_on channel=0 note=72 velocity=89 time=0
EXTRACT: note_off channel=5 note=70 velocity=0 time=0
EXTRACT: note_on channel=5 note=72 velocity=89 time=0
EXTRACT: note_off channel=6 note=70 velocity=0 time=0
EXTRACT: note_on channel=6 note=72 velocity=89 time=0
EXTRACT: note_off channel=0 note=72 velocity=0 time=0
EXTRACT: note_on channel=0 note=70 velocity=89 time=0
EXTRACT: note_off channel=1 note=61 velocity=0 time=0
EXTRACT: note_off channel=1 note=53 velocity=0 time=0
EXTRACT: note_off channel=1 note=56 velocity=0 time=0
EXTRACT: note_on channel=1 note=60 velocity=89 time=0
EXTRACT: note_on channel=1 note=56 velocity=89 time=0
EXTRACT: note_on channel=1 note=51 velocity=89 time=0
EXTRACT: note_off channel=2 note=37 velocity=0 time=0
EXTRACT: note_off channel=2 note=25 velocity=0 time=0
EXTRACT: note_on channel=2 note=44 velocity=89 time=0
EXTRACT: note_on channel=2 note=32 velocity=89 time=0
EXTRACT: note_off channel=3 note=37 velocity=0 time=0
EXTRACT: note_off channel=3 note=25 velocity=0 time=0
EXTRACT: note_on channel=3 note=44 velocity=89 time=0
EXTRACT: note_on channel=3 note=32 velocity=89 time=0
EXTRACT: note_off channel=4 note=37 velocity=0 time=0
EXTRACT: note_off channel=4 note=25 velocity=0 time=0
EXTRACT: note_on channel=4 note=44 velocity=89 time=0
EXTRACT: note_on channel=4 note=32 velocity=89 time=0
EXTRACT: note_off channel=5 note=72 velocity=0 time=0
EXTRACT: note_on channel=5 note=70 velocity=89 time=0
EXTRACT: note_off channel=6 note=72 velocity=0 time=0
EXTRACT: note_on channel=6 note=70 velocity=89 time=0
EXTRACT: note_off channel=7 note=61 velocity=0 time=0
EXTRACT: note_off channel=7 note=53 velocity=0 time=0
EXTRACT: note_off channel=7 note=56 velocity=0 time=0
EXTRACT: note_on channel=7 note=60 velocity=89 time=0
EXTRACT: note_on channel=7 note=56 velocity=89 time=0
EXTRACT: note_on channel=7 note=51 velocity=89 time=0
EXTRACT: note_off channel=8 note=61 velocity=0 time=0
EXTRACT: note_off channel=8 note=53 velocity=0 time=0
EXTRACT: note_off channel=8 note=56 velocity=0 time=0
EXTRACT: note_on channel=8 note=60 velocity=89 time=0
EXTRACT: note_on channel=8 note=56 velocity=89 time=0
EXTRACT: note_on channel=8 note=51 velocity=89 time=0
EXTRACT: note_on channel=9 note=36 velocity=89 time=0
EXTRACT: note_off channel=0 note=70 velocity=0 time=1.125
EXTRACT: note_on channel=0 note=68 velocity=89 time=0
EXTRACT: note_off channel=1 note=51 velocity=0 time=0
EXTRACT: note_off channel=1 note=56 velocity=0 time=0
EXTRACT: note_off channel=1 note=60 velocity=0 time=0
EXTRACT: note_on channel=1 note=51 velocity=89 time=0
EXTRACT: note_on channel=1 note=55 velocity=89 time=0
EXTRACT: note_on channel=1 note=58 velocity=89 time=0
EXTRACT: note_off channel=2 note=32 velocity=0 time=0
EXTRACT: note_off channel=2 note=44 velocity=0 time=0
EXTRACT: note_on channel=2 note=39 velocity=89 time=0
EXTRACT: note_on channel=2 note=27 velocity=89 time=0
EXTRACT: note_off channel=3 note=32 velocity=0 time=0
EXTRACT: note_off channel=3 note=44 velocity=0 time=0
EXTRACT: note_on channel=3 note=39 velocity=89 time=0
EXTRACT: note_on channel=3 note=27 velocity=89 time=0
EXTRACT: note_off channel=4 note=32 velocity=0 time=0
EXTRACT: note_off channel=4 note=44 velocity=0 time=0
EXTRACT: note_on channel=4 note=39 velocity=89 time=0
EXTRACT: note_on channel=4 note=27 velocity=89 time=0
EXTRACT: note_off channel=5 note=70 velocity=0 time=0
EXTRACT: note_on channel=5 note=68 velocity=89 time=0
EXTRACT: note_off channel=6 note=70 velocity=0 time=0
EXTRACT: note_on channel=6 note=68 velocity=89 time=0
EXTRACT: note_off channel=7 note=51 velocity=0 time=0
EXTRACT: note_off channel=7 note=56 velocity=0 time=0
EXTRACT: note_off channel=7 note=60 velocity=0 time=0
EXTRACT: note_on channel=7 note=51 velocity=89 time=0
EXTRACT: note_on channel=7 note=55 velocity=89 time=0
EXTRACT: note_on channel=7 note=58 velocity=89 time=0
EXTRACT: note_off channel=8 note=51 velocity=0 time=0
EXTRACT: note_off channel=8 note=56 velocity=0 time=0
EXTRACT: note_off channel=8 note=60 velocity=0 time=0
EXTRACT: note_on channel=8 note=51 velocity=89 time=0
EXTRACT: note_on channel=8 note=55 velocity=89 time=0
EXTRACT: note_on channel=8 note=58 velocity=89 time=0
EXTRACT: note_off channel=9 note=36 velocity=0 time=0
EXTRACT: note_on channel=9 note=36 velocity=89 time=0
EXTRACT: note_off channel=9 note=36 velocity=0 time=0
EXTRACT: note_on channel=9 note=36 velocity=89 time=0
EXTRACT: note_off channel=0 note=68 velocity=0 time=0
EXTRACT: note_on channel=0 note=65 velocity=89 time=0
EXTRACT: note_off channel=5 note=68 velocity=0 time=0
EXTRACT: note_on channel=5 note=65 velocity=89 time=0
EXTRACT: note_off channel=6 note=68 velocity=0 time=0
EXTRACT: note_on channel=6 note=65 velocity=89 time=0
EXTRACT: note_off channel=0 note=65 velocity=0 time=0.375
EXTRACT: note_off channel=5 note=65 velocity=0 time=0
EXTRACT: note_off channel=6 note=65 velocity=0 time=0
EXTRACT: note_on channel=0 note=65 velocity=89 time=0
EXTRACT: note_on channel=5 note=65 velocity=89 time=0
EXTRACT: note_on channel=6 note=65 velocity=89 time=0
EXTRACT: note_off channel=9 note=36 velocity=0 time=0
EXTRACT: note_off channel=0 note=65 velocity=0 time=0
EXTRACT: note_on channel=0 note=65 velocity=89 time=0
EXTRACT: note_off channel=1 note=58 velocity=0 time=0
EXTRACT: note_off channel=1 note=55 velocity=0 time=0
EXTRACT: note_off channel=1 note=51 velocity=0 time=0
EXTRACT: note_on channel=1 note=60 velocity=89 time=0
EXTRACT: note_on channel=1 note=56 velocity=89 time=0
EXTRACT: note_on channel=1 note=53 velocity=89 time=0
EXTRACT: note_off channel=2 note=27 velocity=0 time=0
EXTRACT: note_off channel=2 note=39 velocity=0 time=0
EXTRACT: note_on channel=2 note=29 velocity=89 time=0
EXTRACT: note_on channel=2 note=41 velocity=89 time=0
EXTRACT: note_off channel=3 note=27 velocity=0 time=0
EXTRACT: note_off channel=3 note=39 velocity=0 time=0
EXTRACT: note_on channel=3 note=29 velocity=89 time=0
EXTRACT: note_on channel=3 note=41 velocity=89 time=0
EXTRACT: note_off channel=4 note=27 velocity=0 time=0
EXTRACT: note_off channel=4 note=39 velocity=0 time=0
EXTRACT: note_on channel=4 note=29 velocity=89 time=0
EXTRACT: note_on channel=4 note=41 velocity=89 time=0
EXTRACT: note_off channel=5 note=65 velocity=0 time=0
EXTRACT: note_on channel=5 note=65 velocity=89 time=0
EXTRACT: note_off channel=6 note=65 velocity=0 time=0
EXTRACT: note_on channel=6 note=65 velocity=89 time=0
EXTRACT: note_off channel=7 note=58 velocity=0 time=0
EXTRACT: note_off channel=7 note=55 velocity=0 time=0
EXTRACT: note_off channel=7 note=51 velocity=0 time=0
EXTRACT: note_on channel=7 note=60 velocity=89 time=0
EXTRACT: note_on channel=7 note=56 velocity=89 time=0
EXTRACT: note_on channel=7 note=53 velocity=89 time=0
EXTRACT: note_off channel=8 note=58 velocity=0 time=0
EXTRACT: note_off channel=8 note=55 velocity=0 time=0
EXTRACT: note_off channel=8 note=51 velocity=0 time=0
EXTRACT: note_on channel=8 note=60 velocity=89 time=0
EXTRACT: note_on channel=8 note=56 velocity=89 time=0
EXTRACT: note_on channel=8 note=53 velocity=89 time=0
EXTRACT: note_on channel=9 note=36 velocity=89 time=0
EXTRACT: note_off channel=0 note=65 velocity=0 time=0
EXTRACT: note_on channel=0 note=65 velocity=89 time=0
EXTRACT: note_off channel=5 note=65 velocity=0 time=0
EXTRACT: note_on channel=5 note=65 velocity=89 time=0
EXTRACT: note_off channel=6 note=65 velocity=0 time=0
EXTRACT: note_on channel=6 note=65 velocity=89 time=0
EXTRACT: note_off channel=0 note=65 velocity=0 time=0
EXTRACT: note_on channel=0 note=68 velocity=89 time=0
EXTRACT: note_off channel=5 note=65 velocity=0 time=0
EXTRACT: note_on channel=5 note=68 velocity=89 time=0
EXTRACT: note_off channel=6 note=65 velocity=0 time=0
EXTRACT: note_on channel=6 note=68 velocity=89 time=0
EXTRACT: note_off channel=0 note=68 velocity=0 time=0
EXTRACT: note_on channel=0 note=68 velocity=89 time=0
EXTRACT: note_off channel=1 note=53 velocity=0 time=0
EXTRACT: note_off channel=1 note=56 velocity=0 time=0
EXTRACT: note_off channel=1 note=60 velocity=0 time=0
EXTRACT: note_on channel=1 note=56 velocity=89 time=0
EXTRACT: note_on channel=1 note=53 velocity=89 time=0
EXTRACT: note_on channel=1 note=61 velocity=89 time=0
EXTRACT: note_off channel=2 note=41 velocity=0 time=0
EXTRACT: note_off channel=2 note=29 velocity=0 time=0
EXTRACT: note_on channel=2 note=25 velocity=89 time=0
EXTRACT: note_on channel=2 note=37 velocity=89 time=0
EXTRACT: note_off channel=3 note=41 velocity=0 time=0
EXTRACT: note_off channel=3 note=29 velocity=0 time=0
EXTRACT: note_on channel=3 note=25 velocity=89 time=0
EXTRACT: note_on channel=3 note=37 velocity=89 time=0
EXTRACT: note_off channel=4 note=41 velocity=0 time=0
EXTRACT: note_off channel=4 note=29 velocity=0 time=0
EXTRACT: note_on channel=4 note=25 velocity=89 time=0
EXTRACT: note_on channel=4 note=37 velocity=89 time=0
EXTRACT: note_off channel=5 note=68 velocity=0 time=0
EXTRACT: note_on channel=5 note=68 velocity=89 time=0
EXTRACT: note_off channel=6 note=68 velocity=0 time=0
EXTRACT: note_on channel=6 note=68 velocity=89 time=0
EXTRACT: note_off channel=7 note=53 velocity=0 time=0
EXTRACT: note_off channel=7 note=56 velocity=0 time=0
EXTRACT: note_off channel=7 note=60 velocity=0 time=0
EXTRACT: note_on channel=7 note=56 velocity=89 time=0
EXTRACT: note_on channel=7 note=53 velocity=89 time=0
EXTRACT: note_on channel=7 note=61 velocity=89 time=0
EXTRACT: note_off channel=8 note=53 velocity=0 time=0
EXTRACT: note_off channel=8 note=56 velocity=0 time=0
EXTRACT: note_off channel=8 note=60 velocity=0 time=0
EXTRACT: note_on channel=8 note=56 velocity=89 time=0
EXTRACT: note_on channel=8 note=53 velocity=89 time=0
EXTRACT: note_on channel=8 note=61 velocity=89 time=0
EXTRACT: note_off channel=9 note=36 velocity=0 time=0
EXTRACT: note_on channel=9 note=36 velocity=89 time=0
EXTRACT: note_off channel=0 note=68 velocity=0 time=0
EXTRACT: note_on channel=0 note=70 velocity=89 time=0
EXTRACT: note_off channel=5 note=68 velocity=0 time=0
EXTRACT: note_on channel=5 note=70 velocity=89 time=0
EXTRACT: note_off channel=6 note=68 velocity=0 time=0
EXTRACT: note_on channel=6 note=70 velocity=89 time=0
EXTRACT: note_off channel=0 note=70 velocity=0 time=0
EXTRACT: note_on channel=0 note=70 velocity=89 time=0
EXTRACT: note_off channel=5 note=70 velocity=0 time=0
EXTRACT: note_on channel=5 note=70 velocity=89 time=0
EXTRACT: note_off channel=6 note=70 velocity=0 time=0
EXTRACT: note_on channel=6 note=70 velocity=89 time=0
EXTRACT: note_off channel=0 note=70 velocity=0 time=0
EXTRACT: note_on channel=0 note=70 velocity=89 time=0
EXTRACT: note_off channel=5 note=70 velocity=0 time=0
EXTRACT: note_on channel=5 note=70 velocity=89 time=0
EXTRACT: note_off channel=6 note=70 velocity=0 time=0
EXTRACT: note_on channel=6 note=70 velocity=89 time=0
EXTRACT: note_off channel=9 note=36 velocity=0 time=0
EXTRACT: note_off channel=1 note=61 velocity=0 time=0
EXTRACT: note_off channel=1 note=53 velocity=0 time=0
EXTRACT: note_off channel=1 note=56 velocity=0 time=0
EXTRACT: note_on channel=1 note=60 velocity=89 time=0
EXTRACT: note_on channel=1 note=56 velocity=89 time=0
EXTRACT: note_on channel=1 note=51 velocity=89 time=0
EXTRACT: note_off channel=2 note=37 velocity=0 time=0
EXTRACT: note_off channel=2 note=25 velocity=0 time=0
EXTRACT: note_on channel=2 note=44 velocity=89 time=0
EXTRACT: note_on channel=2 note=32 velocity=89 time=0
EXTRACT: note_off channel=3 note=37 velocity=0 time=0
EXTRACT: note_off channel=3 note=25 velocity=0 time=0
EXTRACT: note_on channel=3 note=44 velocity=89 time=0
EXTRACT: note_on channel=3 note=32 velocity=89 time=0
EXTRACT: note_off channel=4 note=37 velocity=0 time=0
EXTRACT: note_off channel=4 note=25 velocity=0 time=0
EXTRACT: note_on channel=4 note=44 velocity=89 time=0
EXTRACT: note_on channel=4 note=32 velocity=89 time=0
EXTRACT: note_off channel=7 note=61 velocity=0 time=0
EXTRACT: note_off channel=7 note=53 velocity=0 time=0
EXTRACT: note_off channel=7 note=56 velocity=0 time=0
EXTRACT: note_on channel=7 note=60 velocity=89 time=0
EXTRACT: note_on channel=7 note=56 velocity=89 time=0
EXTRACT: note_on channel=7 note=51 velocity=89 time=0
EXTRACT: note_off channel=8 note=61 velocity=0 time=0
EXTRACT: note_off channel=8 note=53 velocity=0 time=0
EXTRACT: note_off channel=8 note=56 velocity=0 time=0
EXTRACT: note_on channel=8 note=60 velocity=89 time=0
EXTRACT: note_on channel=8 note=56 velocity=89 time=0
EXTRACT: note_on channel=8 note=51 velocity=89 time=0
EXTRACT: note_on channel=9 note=36 velocity=89 time=0
EXTRACT: note_off channel=0 note=70 velocity=0 time=0
EXTRACT: note_on channel=0 note=72 velocity=89 time=0
EXTRACT: note_off channel=5 note=70 velocity=0 time=0
EXTRACT: note_on channel=5 note=72 velocity=89 time=0
EXTRACT: note_off channel=6 note=70 velocity=0 time=0
EXTRACT: note_on channel=6 note=72 velocity=89 time=0
EXTRACT: note_off channel=0 note=72 velocity=0 time=0.1875
EXTRACT: note_on channel=0 note=70 velocity=89 time=0
EXTRACT: note_off channel=5 note=72 velocity=0 time=0
EXTRACT: note_on channel=5 note=70 velocity=89 time=0
EXTRACT: note_off channel=6 note=72 velocity=0 time=0
EXTRACT: note_on channel=6 note=70 velocity=89 time=0
EXTRACT: note_off channel=0 note=70 velocity=0 time=0
EXTRACT: note_on channel=0 note=68 velocity=89 time=0
EXTRACT: note_off channel=1 note=51 velocity=0 time=0
EXTRACT: note_off channel=1 note=56 velocity=0 time=0
EXTRACT: note_off channel=1 note=60 velocity=0 time=0
EXTRACT: note_on channel=1 note=51 velocity=89 time=0
EXTRACT: note_on channel=1 note=55 velocity=89 time=0
EXTRACT: note_on channel=1 note=58 velocity=89 time=0
EXTRACT: note_off channel=2 note=32 velocity=0 time=0
EXTRACT: note_off channel=2 note=44 velocity=0 time=0
EXTRACT: note_on channel=2 note=39 velocity=89 time=0
EXTRACT: note_on channel=2 note=27 velocity=89 time=0
EXTRACT: note_off channel=3 note=32 velocity=0 time=0
EXTRACT: note_off channel=3 note=44 velocity=0 time=0
EXTRACT: note_on channel=3 note=39 velocity=89 time=0
EXTRACT: note_on channel=3 note=27 velocity=89 time=0
EXTRACT: note_off channel=4 note=32 velocity=0 time=0
EXTRACT: note_off channel=4 note=44 velocity=0 time=0
EXTRACT: note_on channel=4 note=39 velocity=89 time=0
EXTRACT: note_on channel=4 note=27 velocity=89 time=0
EXTRACT: note_off channel=5 note=70 velocity=0 time=0
EXTRACT: note_on channel=5 note=68 velocity=89 time=0
EXTRACT: note_off channel=6 note=70 velocity=0 time=0
EXTRACT: note_on channel=6 note=68 velocity=89 time=0
EXTRACT: note_off channel=7 note=51 velocity=0 time=0
EXTRACT: note_off channel=7 note=56 velocity=0 time=0
EXTRACT: note_off channel=7 note=60 velocity=0 time=0
EXTRACT: note_on channel=7 note=51 velocity=89 time=0
EXTRACT: note_on channel=7 note=55 velocity=89 time=0
EXTRACT: note_on channel=7 note=58 velocity=89 time=0
EXTRACT: note_off channel=8 note=51 velocity=0 time=0
EXTRACT: note_off channel=8 note=56 velocity=0 time=0
EXTRACT: note_off channel=8 note=60 velocity=0 time=0
EXTRACT: note_on channel=8 note=51 velocity=89 time=0
EXTRACT: note_on channel=8 note=55 velocity=89 time=0
EXTRACT: note_on channel=8 note=58 velocity=89 time=0
EXTRACT: note_off channel=9 note=36 velocity=0 time=0
EXTRACT: note_on channel=9 note=36 velocity=89 time=0
EXTRACT: note_off channel=9 note=36 velocity=0 time=0
EXTRACT: note_on channel=9 note=36 velocity=89 time=0
EXTRACT: note_off channel=0 note=68 velocity=0 time=0
EXTRACT: note_on channel=0 note=68 velocity=89 time=0
EXTRACT: note_off channel=5 note=68 velocity=0 time=0
EXTRACT: note_on channel=5 note=68 velocity=89 time=0
EXTRACT: note_off channel=6 note=68 velocity=0 time=0
EXTRACT: note_on channel=6 note=68 velocity=89 time=0
EXTRACT: note_off channel=0 note=68 velocity=0 time=0
EXTRACT: note_on channel=0 note=75 velocity=89 time=0
EXTRACT: note_off channel=5 note=68 velocity=0 time=0
EXTRACT: note_on channel=5 note=75 velocity=89 time=0
EXTRACT: note_off channel=6 note=68 velocity=0 time=0
EXTRACT: note_on channel=6 note=75 velocity=89 time=0
EXTRACT: note_off channel=0 note=75 velocity=0 time=0
EXTRACT: note_on channel=0 note=70 velocity=89 time=0
EXTRACT: note_off channel=5 note=75 velocity=0 time=0
EXTRACT: note_on channel=5 note=70 velocity=89 time=0
EXTRACT: note_off channel=6 note=75 velocity=0 time=0
EXTRACT: note_on channel=6 note=70 velocity=89 time=0
EXTRACT: note_off channel=9 note=36 velocity=0 time=0
EXTRACT: note_off channel=0 note=70 velocity=0 time=0.1875
EXTRACT: note_on channel=0 note=68 velocity=89 time=0
EXTRACT: note_off channel=5 note=70 velocity=0 time=0
EXTRACT: note_on channel=5 note=68 velocity=89 time=0
EXTRACT: note_off channel=6 note=70 velocity=0 time=0
EXTRACT: note_on channel=6 note=68 velocity=89 time=0
EXTRACT: note_off channel=1 note=58 velocity=0 time=0
EXTRACT: note_off channel=1 note=55 velocity=0 time=0
EXTRACT: note_off channel=1 note=51 velocity=0 time=0
EXTRACT: note_on channel=1 note=60 velocity=89 time=0
EXTRACT: note_on channel=1 note=56 velocity=89 time=0
EXTRACT: note_on channel=1 note=53 velocity=89 time=0
EXTRACT: note_off channel=2 note=27 velocity=0 time=0
EXTRACT: note_off channel=2 note=39 velocity=0 time=0
EXTRACT: note_on channel=2 note=29 velocity=89 time=0
EXTRACT: note_on channel=2 note=41 velocity=89 time=0
EXTRACT: note_off channel=3 note=27 velocity=0 time=0
EXTRACT: note_off channel=3 note=39 velocity=0 time=0
EXTRACT: note_on channel=3 note=29 velocity=89 time=0
EXTRACT: note_on channel=3 note=41 velocity=89 time=0
EXTRACT: note_off channel=4 note=27 velocity=0 time=0
EXTRACT: note_off channel=4 note=39 velocity=0 time=0
EXTRACT: note_on channel=4 note=29 velocity=89 time=0
EXTRACT: note_on channel=4 note=41 velocity=89 time=0
EXTRACT: note_off channel=7 note=58 velocity=0 time=0
EXTRACT: note_off channel=7 note=55 velocity=0 time=0
EXTRACT: note_off channel=7 note=51 velocity=0 time=0
EXTRACT: note_on channel=7 note=60 velocity=89 time=0
EXTRACT: note_on channel=7 note=56 velocity=89 time=0
EXTRACT: note_on channel=7 note=53 velocity=89 time=0
EXTRACT: note_off channel=8 note=58 velocity=0 time=0
EXTRACT: note_off channel=8 note=55 velocity=0 time=0
EXTRACT: note_off channel=8 note=51 velocity=0 time=0
EXTRACT: note_on channel=8 note=60 velocity=89 time=0
EXTRACT: note_on channel=8 note=56 velocity=89 time=0
EXTRACT: note_on channel=8 note=53 velocity=89 time=0
EXTRACT: note_on channel=9 note=36 velocity=89 time=0
EXTRACT: note_off channel=0 note=68 velocity=0 time=0
EXTRACT: note_on channel=0 note=70 velocity=89 time=0
EXTRACT: note_off channel=5 note=68 velocity=0 time=0
EXTRACT: note_on channel=5 note=70 velocity=89 time=0
EXTRACT: note_off channel=6 note=68 velocity=0 time=0
EXTRACT: note_on channel=6 note=70 velocity=89 time=0
EXTRACT: note_off channel=0 note=70 velocity=0 time=0
EXTRACT: note_on channel=0 note=72 velocity=89 time=0
EXTRACT: note_off channel=5 note=70 velocity=0 time=0
EXTRACT: note_on channel=5 note=72 velocity=89 time=0
EXTRACT: note_off channel=6 note=70 velocity=0 time=0
EXTRACT: note_on channel=6 note=72 velocity=89 time=0
EXTRACT: note_off channel=0 note=72 velocity=0 time=0.1875
EXTRACT: note_off channel=5 note=72 velocity=0 time=0
EXTRACT: note_off channel=6 note=72 velocity=0 time=0
EXTRACT: note_on channel=0 note=68 velocity=89 time=0
EXTRACT: note_off channel=1 note=53 velocity=0 time=0
EXTRACT: note_off channel=1 note=56 velocity=0 time=0
EXTRACT: note_off channel=1 note=60 velocity=0 time=0
EXTRACT: note_on channel=1 note=56 velocity=89 time=0
EXTRACT: note_on channel=1 note=53 velocity=89 time=0
EXTRACT: note_on channel=1 note=61 velocity=89 time=0
EXTRACT: note_off channel=2 note=41 velocity=0 time=0
EXTRACT: note_off channel=2 note=29 velocity=0 time=0
EXTRACT: note_on channel=2 note=25 velocity=89 time=0
EXTRACT: note_on channel=2 note=37 velocity=89 time=0
EXTRACT: note_off channel=3 note=41 velocity=0 time=0
EXTRACT: note_off channel=3 note=29 velocity=0 time=0
EXTRACT: note_on channel=3 note=25 velocity=89 time=0
EXTRACT: note_on channel=3 note=37 velocity=89 time=0
EXTRACT: note_off channel=4 note=41 velocity=0 time=0
EXTRACT: note_off channel=4 note=29 velocity=0 time=0
EXTRACT: note_on channel=4 note=25 velocity=89 time=0
EXTRACT: note_on channel=4 note=37 velocity=89 time=0
EXTRACT: note_on channel=5 note=68 velocity=89 time=0
EXTRACT: note_on channel=6 note=68 velocity=89 time=0
EXTRACT: note_off channel=7 note=53 velocity=0 time=0
EXTRACT: note_off channel=7 note=56 velocity=0 time=0
EXTRACT: note_off channel=7 note=60 velocity=0 time=0
EXTRACT: note_on channel=7 note=56 velocity=89 time=0
EXTRACT: note_on channel=7 note=53 velocity=89 time=0
EXTRACT: note_on channel=7 note=61 velocity=89 time=0
EXTRACT: note_off channel=8 note=53 velocity=0 time=0
EXTRACT: note_off channel=8 note=56 velocity=0 time=0
EXTRACT: note_off channel=8 note=60 velocity=0 time=0
EXTRACT: note_on channel=8 note=56 velocity=89 time=0
EXTRACT: note_on channel=8 note=53 velocity=89 time=0
EXTRACT: note_on channel=8 note=61 velocity=89 time=0
EXTRACT: note_off channel=9 note=36 velocity=0 time=0
EXTRACT: note_on channel=9 note=36 velocity=89 time=0
EXTRACT: note_off channel=0 note=68 velocity=0 time=0
EXTRACT: note_on channel=0 note=68 velocity=89 time=0
EXTRACT: note_off channel=5 note=68 velocity=0 time=0
EXTRACT: note_on channel=5 note=68 velocity=89 time=0
EXTRACT: note_off channel=6 note=68 velocity=0 time=0
EXTRACT: note_on channel=6 note=68 velocity=89 time=0
EXTRACT: note_off channel=0 note=68 velocity=0 time=0
EXTRACT: note_on channel=0 note=65 velocity=89 time=0
EXTRACT: note_off channel=5 note=68 velocity=0 time=0
EXTRACT: note_on channel=5 note=65 velocity=89 time=0
EXTRACT: note_off channel=6 note=68 velocity=0 time=0
EXTRACT: note_on channel=6 note=65 velocity=89 time=0
EXTRACT: note_off channel=0 note=65 velocity=0 time=0
EXTRACT: note_on channel=0 note=63 velocity=89 time=0
EXTRACT: note_off channel=5 note=65 velocity=0 time=0
EXTRACT: note_on channel=5 note=63 velocity=89 time=0
EXTRACT: note_off channel=6 note=65 velocity=0 time=0
EXTRACT: note_on channel=6 note=63 velocity=89 time=0
EXTRACT: note_off channel=0 note=63 velocity=0 time=0.1875
EXTRACT: note_off channel=5 note=63 velocity=0 time=0
EXTRACT: note_off channel=6 note=63 velocity=0 time=0
EXTRACT: note_off channel=9 note=36 velocity=0 time=0
EXTRACT: note_on channel=0 note=68 velocity=89 time=0
EXTRACT: note_on channel=5 note=68 velocity=89 time=0
EXTRACT: note_on channel=6 note=68 velocity=89 time=0
EXTRACT: note_off channel=0 note=68 velocity=0 time=0
EXTRACT: note_on channel=0 note=68 velocity=89 time=0
EXTRACT: note_off channel=1 note=61 velocity=0 time=0
EXTRACT: note_off channel=1 note=53 velocity=0 time=0
EXTRACT: note_off channel=1 note=56 velocity=0 time=0
EXTRACT: note_on channel=1 note=60 velocity=89 time=0
EXTRACT: note_on channel=1 note=56 velocity=89 time=0
EXTRACT: note_on channel=1 note=51 velocity=89 time=0
EXTRACT: note_off channel=2 note=37 velocity=0 time=0
EXTRACT: note_off channel=2 note=25 velocity=0 time=0
EXTRACT: note_on channel=2 note=44 velocity=89 time=0
EXTRACT: note_on channel=2 note=32 velocity=89 time=0
EXTRACT: note_off channel=3 note=37 velocity=0 time=0
EXTRACT: note_off channel=3 note=25 velocity=0 time=0
EXTRACT: note_on channel=3 note=44 velocity=89 time=0
EXTRACT: note_on channel=3 note=32 velocity=89 time=0
EXTRACT: note_off channel=4 note=37 velocity=0 time=0
EXTRACT: note_off channel=4 note=25 velocity=0 time=0
EXTRACT: note_on channel=4 note=44 velocity=89 time=0
EXTRACT: note_on channel=4 note=32 velocity=89 time=0
EXTRACT: note_off channel=5 note=68 velocity=0 time=0
EXTRACT: note_on channel=5 note=68 velocity=89 time=0
EXTRACT: note_off channel=6 note=68 velocity=0 time=0
EXTRACT: note_on channel=6 note=68 velocity=89 time=0
EXTRACT: note_off channel=7 note=61 velocity=0 time=0
EXTRACT: note_off channel=7 note=53 velocity=0 time=0
EXTRACT: note_off channel=7 note=56 velocity=0 time=0
EXTRACT: note_on channel=7 note=60 velocity=89 time=0
EXTRACT: note_on channel=7 note=56 velocity=89 time=0
EXTRACT: note_on channel=7 note=51 velocity=89 time=0
EXTRACT: note_off channel=8 note=61 velocity=0 time=0
EXTRACT: note_off channel=8 note=53 velocity=0 time=0
EXTRACT: note_off channel=8 note=56 velocity=0 time=0
EXTRACT: note_on channel=8 note=60 velocity=89 time=0
EXTRACT: note_on channel=8 note=56 velocity=89 time=0
EXTRACT: note_on channel=8 note=51 velocity=89 time=0
EXTRACT: note_on channel=9 note=36 velocity=89 time=0
EXTRACT: note_off channel=0 note=68 velocity=0 time=0
EXTRACT: note_on channel=0 note=67 velocity=89 time=0
EXTRACT: note_off channel=5 note=68 velocity=0 time=0
EXTRACT: note_on channel=5 note=67 velocity=89 time=0
EXTRACT: note_off channel=6 note=68 velocity=0 time=0
EXTRACT: note_on channel=6 note=67 velocity=89 time=0
EXTRACT: note_off channel=0 note=67 velocity=0 time=0
EXTRACT: note_on channel=0 note=65 velocity=89 time=0
EXTRACT: note_off channel=5 note=67 velocity=0 time=0
EXTRACT: note_on channel=5 note=65 velocity=89 time=0
EXTRACT: note_off channel=6 note=67 velocity=0 time=0
EXTRACT: note_on channel=6 note=65 velocity=89 time=0
EXTRACT: note_off channel=0 note=65 velocity=0 time=0
EXTRACT: note_on channel=0 note=63 velocity=89 time=0
EXTRACT: note_off channel=5 note=65 velocity=0 time=0
EXTRACT: note_on channel=5 note=63 velocity=89 time=0
EXTRACT: note_off channel=6 note=65 velocity=0 time=0
EXTRACT: note_on channel=6 note=63 velocity=89 time=0
EXTRACT: note_off channel=0 note=63 velocity=0 time=0
EXTRACT: note_on channel=0 note=63 velocity=89 time=0
EXTRACT: note_off channel=1 note=51 velocity=0 time=0
EXTRACT: note_off channel=1 note=56 velocity=0 time=0
EXTRACT: note_off channel=1 note=60 velocity=0 time=0
EXTRACT: note_on channel=1 note=51 velocity=89 time=0
EXTRACT: note_on channel=1 note=55 velocity=89 time=0
EXTRACT: note_on channel=1 note=58 velocity=89 time=0
EXTRACT: note_off channel=2 note=32 velocity=0 time=0
EXTRACT: note_off channel=2 note=44 velocity=0 time=0
EXTRACT: note_on channel=2 note=39 velocity=89 time=0
EXTRACT: note_on channel=2 note=27 velocity=89 time=0
EXTRACT: note_off channel=3 note=32 velocity=0 time=0
EXTRACT: note_off channel=3 note=44 velocity=0 time=0
EXTRACT: note_on channel=3 note=39 velocity=89 time=0
EXTRACT: note_on channel=3 note=27 velocity=89 time=0
EXTRACT: note_off channel=4 note=32 velocity=0 time=0
EXTRACT: note_off channel=4 note=44 velocity=0 time=0
EXTRACT: note_on channel=4 note=39 velocity=89 time=0
EXTRACT: note_on channel=4 note=27 velocity=89 time=0
EXTRACT: note_off channel=5 note=63 velocity=0 time=0
EXTRACT: note_on channel=5 note=63 velocity=89 time=0
EXTRACT: note_off channel=6 note=63 velocity=0 time=0
EXTRACT: note_on channel=6 note=63 velocity=89 time=0
EXTRACT: note_off channel=7 note=51 velocity=0 time=0
EXTRACT: note_off channel=7 note=56 velocity=0 time=0
EXTRACT: note_off channel=7 note=60 velocity=0 time=0
EXTRACT: note_on channel=7 note=51 velocity=89 time=0
EXTRACT: note_on channel=7 note=55 velocity=89 time=0
EXTRACT: note_on channel=7 note=58 velocity=89 time=0
EXTRACT: note_off channel=8 note=51 velocity=0 time=0
EXTRACT: note_off channel=8 note=56 velocity=0 time=0
EXTRACT: note_off channel=8 note=60 velocity=0 time=0
EXTRACT: note_on channel=8 note=51 velocity=89 time=0
EXTRACT: note_on channel=8 note=55 velocity=89 time=0
EXTRACT: note_on channel=8 note=58 velocity=89 time=0
EXTRACT: note_off channel=9 note=36 velocity=0 time=0
EXTRACT: note_on channel=9 note=36 velocity=89 time=0
EXTRACT: note_off channel=9 note=36 velocity=0 time=0
EXTRACT: note_on channel=9 note=36 velocity=89 time=0
EXTRACT: note_off channel=0 note=63 velocity=0 time=0
EXTRACT: note_on channel=0 note=63 velocity=89 time=0
EXTRACT: note_off channel=5 note=63 velocity=0 time=0
EXTRACT: note_on channel=5 note=63 velocity=89 time=0
EXTRACT: note_off channel=6 note=63 velocity=0 time=0
EXTRACT: note_on channel=6 note=63 velocity=89 time=0
EXTRACT: note_off channel=0 note=63 velocity=0 time=0
EXTRACT: note_on channel=0 note=63 velocity=89 time=0
EXTRACT: note_off channel=5 note=63 velocity=0 time=0
EXTRACT: note_on channel=5 note=63 velocity=89 time=0
EXTRACT: note_off channel=6 note=63 velocity=0 time=0
EXTRACT: note_on channel=6 note=63 velocity=89 time=0
EXTRACT: note_off channel=0 note=63 velocity=0 time=0
EXTRACT: note_on channel=0 note=75 velocity=89 time=0
EXTRACT: note_off channel=5 note=63 velocity=0 time=0
EXTRACT: note_on channel=5 note=75 velocity=89 time=0
EXTRACT: note_off channel=6 note=63 velocity=0 time=0
EXTRACT: note_on channel=6 note=75 velocity=89 time=0
EXTRACT: note_off channel=0 note=75 velocity=0 time=0
EXTRACT: note_on channel=0 note=70 velocity=89 time=0
EXTRACT: note_off channel=5 note=75 velocity=0 time=0
EXTRACT: note_on channel=5 note=70 velocity=89 time=0
EXTRACT: note_off channel=6 note=75 velocity=0 time=0
EXTRACT: note_on channel=6 note=70 velocity=89 time=0
EXTRACT: note_off channel=9 note=36 velocity=0 time=0
EXTRACT: note_off channel=0 note=70 velocity=0 time=0
EXTRACT: note_on channel=0 note=68 velocity=89 time=0
EXTRACT: note_off channel=5 note=70 velocity=0 time=0
EXTRACT: note_on channel=5 note=68 velocity=89 time=0
EXTRACT: note_off channel=6 note=70 velocity=0 time=0
EXTRACT: note_on channel=6 note=68 velocity=89 time=0
EXTRACT: note_off channel=0 note=68 velocity=0 time=0.1875
EXTRACT: note_on channel=0 note=68 velocity=89 time=0
EXTRACT: note_off channel=1 note=58 velocity=0 time=0
EXTRACT: note_off channel=1 note=55 velocity=0 time=0
EXTRACT: note_off channel=1 note=51 velocity=0 time=0
EXTRACT: note_on channel=1 note=60 velocity=89 time=0
EXTRACT: note_on channel=1 note=56 velocity=89 time=0
EXTRACT: note_on channel=1 note=53 velocity=89 time=0
EXTRACT: note_off channel=2 note=27 velocity=0 time=0
EXTRACT: note_off channel=2 note=39 velocity=0 time=0
EXTRACT: note_on channel=2 note=29 velocity=89 time=0
EXTRACT: note_on channel=2 note=41 velocity=89 time=0
EXTRACT: note_off channel=3 note=27 velocity=0 time=0
EXTRACT: note_off channel=3 note=39 velocity=0 time=0
EXTRACT: note_on channel=3 note=29 velocity=89 time=0
EXTRACT: note_on channel=3 note=41 velocity=89 time=0
EXTRACT: note_off channel=4 note=27 velocity=0 time=0
EXTRACT: note_off channel=4 note=39 velocity=0 time=0
EXTRACT: note_on channel=4 note=29 velocity=89 time=0
EXTRACT: note_on channel=4 note=41 velocity=89 time=0
EXTRACT: note_off channel=5 note=68 velocity=0 time=0
EXTRACT: note_on channel=5 note=68 velocity=89 time=0
EXTRACT: note_off channel=6 note=68 velocity=0 time=0
EXTRACT: note_on channel=6 note=68 velocity=89 time=0
EXTRACT: note_off channel=7 note=58 velocity=0 time=0
EXTRACT: note_off channel=7 note=55 velocity=0 time=0
EXTRACT: note_off channel=7 note=51 velocity=0 time=0
EXTRACT: note_on channel=7 note=60 velocity=89 time=0
EXTRACT: note_on channel=7 note=56 velocity=89 time=0
EXTRACT: note_on channel=7 note=53 velocity=89 time=0
EXTRACT: note_off channel=8 note=58 velocity=0 time=0
EXTRACT: note_off channel=8 note=55 velocity=0 time=0
EXTRACT: note_off channel=8 note=51 velocity=0 time=0
EXTRACT: note_on channel=8 note=60 velocity=89 time=0
EXTRACT: note_on channel=8 note=56 velocity=89 time=0
EXTRACT: note_on channel=8 note=53 velocity=89 time=0
EXTRACT: note_on channel=9 note=36 velocity=89 time=0
EXTRACT: note_off channel=0 note=68 velocity=0 time=0.375
EXTRACT: note_on channel=0 note=70 velocity=89 time=0
EXTRACT: note_off channel=5 note=68 velocity=0 time=0
EXTRACT: note_on channel=5 note=70 velocity=89 time=0
EXTRACT: note_off channel=6 note=68 velocity=0 time=0
EXTRACT: note_on channel=6 note=70 velocity=89 time=0
EXTRACT: note_off channel=0 note=70 velocity=0 time=0
EXTRACT: note_on channel=0 note=72 velocity=89 time=0
EXTRACT: note_off channel=5 note=70 velocity=0 time=0
EXTRACT: note_on channel=5 note=72 velocity=89 time=0
EXTRACT: note_off channel=6 note=70 velocity=0 time=0
EXTRACT: note_on channel=6 note=72 velocity=89 time=0
EXTRACT: note_off channel=0 note=72 velocity=0 time=0.1875
EXTRACT: note_off channel=5 note=72 velocity=0 time=0
EXTRACT: note_off channel=6 note=72 velocity=0 time=0
EXTRACT: note_on channel=0 note=68 velocity=89 time=0
EXTRACT: note_off channel=1 note=53 velocity=0 time=0
EXTRACT: note_off channel=1 note=56 velocity=0 time=0
EXTRACT: note_off channel=1 note=60 velocity=0 time=0
EXTRACT: note_on channel=1 note=56 velocity=89 time=0
EXTRACT: note_on channel=1 note=53 velocity=89 time=0
EXTRACT: note_on channel=1 note=61 velocity=89 time=0
EXTRACT: note_off channel=2 note=41 velocity=0 time=0
EXTRACT: note_off channel=2 note=29 velocity=0 time=0
EXTRACT: note_on channel=2 note=25 velocity=89 time=0
EXTRACT: note_on channel=2 note=37 velocity=89 time=0
EXTRACT: note_off channel=3 note=41 velocity=0 time=0
EXTRACT: note_off channel=3 note=29 velocity=0 time=0
EXTRACT: note_on channel=3 note=25 velocity=89 time=0
EXTRACT: note_on channel=3 note=37 velocity=89 time=0
EXTRACT: note_off channel=4 note=41 velocity=0 time=0
EXTRACT: note_off channel=4 note=29 velocity=0 time=0
EXTRACT: note_on channel=4 note=25 velocity=89 time=0
EXTRACT: note_on channel=4 note=37 velocity=89 time=0
EXTRACT: note_on channel=5 note=68 velocity=89 time=0
EXTRACT: note_on channel=6 note=68 velocity=89 time=0
EXTRACT: note_off channel=7 note=53 velocity=0 time=0
EXTRACT: note_off channel=7 note=56 velocity=0 time=0
EXTRACT: note_off channel=7 note=60 velocity=0 time=0
EXTRACT: note_on channel=7 note=56 velocity=89 time=0
EXTRACT: note_on channel=7 note=53 velocity=89 time=0
EXTRACT: note_on channel=7 note=61 velocity=89 time=0
EXTRACT: note_off channel=8 note=53 velocity=0 time=0
EXTRACT: note_off channel=8 note=56 velocity=0 time=0
EXTRACT: note_off channel=8 note=60 velocity=0 time=0
EXTRACT: note_on channel=8 note=56 velocity=89 time=0
EXTRACT: note_on channel=8 note=53 velocity=89 time=0
EXTRACT: note_on channel=8 note=61 velocity=89 time=0
EXTRACT: note_off channel=9 note=36 velocity=0 time=0
EXTRACT: note_on channel=9 note=36 velocity=89 time=0
EXTRACT: note_off channel=0 note=68 velocity=0 time=0
EXTRACT: note_on channel=0 note=68 velocity=89 time=0
EXTRACT: note_off channel=5 note=68 velocity=0 time=0
EXTRACT: note_on channel=5 note=68 velocity=89 time=0
EXTRACT: note_off channel=6 note=68 velocity=0 time=0
EXTRACT: note_on channel=6 note=68 velocity=89 time=0
EXTRACT: note_off channel=0 note=68 velocity=0 time=0
EXTRACT: note_on channel=0 note=65 velocity=89 time=0
EXTRACT: note_off channel=5 note=68 velocity=0 time=0
EXTRACT: note_on channel=5 note=65 velocity=89 time=0
EXTRACT: note_off channel=6 note=68 velocity=0 time=0
EXTRACT: note_on channel=6 note=65 velocity=89 time=0
EXTRACT: note_off channel=0 note=65 velocity=0 time=0
EXTRACT: note_on channel=0 note=63 velocity=89 time=0
EXTRACT: note_off channel=5 note=65 velocity=0 time=0
EXTRACT: note_on channel=5 note=63 velocity=89 time=0
EXTRACT: note_off channel=6 note=65 velocity=0 time=0
EXTRACT: note_on channel=6 note=63 velocity=89 time=0
EXTRACT: note_off channel=0 note=63 velocity=0 time=0.1875
EXTRACT: note_off channel=5 note=63 velocity=0 time=0
EXTRACT: note_off channel=6 note=63 velocity=0 time=0
EXTRACT: note_off channel=9 note=36 velocity=0 time=0
EXTRACT: note_on channel=0 note=68 velocity=89 time=0
EXTRACT: note_on channel=5 note=68 velocity=89 time=0
EXTRACT: note_on channel=6 note=68 velocity=89 time=0
EXTRACT: note_off channel=0 note=68 velocity=0 time=0
EXTRACT: note_on channel=0 note=68 velocity=89 time=0
EXTRACT: note_off channel=5 note=68 velocity=0 time=0
EXTRACT: note_on channel=5 note=68 velocity=89 time=0
EXTRACT: note_off channel=6 note=68 velocity=0 time=0
EXTRACT: note_on channel=6 note=68 velocity=89 time=0
EXTRACT: note_off channel=0 note=68 velocity=0 time=0
EXTRACT: note_on channel=0 note=68 velocity=89 time=0
EXTRACT: note_off channel=1 note=61 velocity=0 time=0
EXTRACT: note_off channel=1 note=53 velocity=0 time=0
EXTRACT: note_off channel=1 note=56 velocity=0 time=0
EXTRACT: note_on channel=1 note=60 velocity=89 time=0
EXTRACT: note_on channel=1 note=56 velocity=89 time=0
EXTRACT: note_on channel=1 note=51 velocity=89 time=0
EXTRACT: note_off channel=2 note=37 velocity=0 time=0
EXTRACT: note_off channel=2 note=25 velocity=0 time=0
EXTRACT: note_on channel=2 note=44 velocity=89 time=0
EXTRACT: note_on channel=2 note=32 velocity=89 time=0
EXTRACT: note_off channel=3 note=37 velocity=0 time=0
EXTRACT: note_off channel=3 note=25 velocity=0 time=0
EXTRACT: note_on channel=3 note=44 velocity=89 time=0
EXTRACT: note_on channel=3 note=32 velocity=89 time=0
EXTRACT: note_off channel=4 note=37 velocity=0 time=0
EXTRACT: note_off channel=4 note=25 velocity=0 time=0
EXTRACT: note_on channel=4 note=44 velocity=89 time=0
EXTRACT: note_on channel=4 note=32 velocity=89 time=0
EXTRACT: note_off channel=5 note=68 velocity=0 time=0
EXTRACT: note_on channel=5 note=68 velocity=89 time=0
EXTRACT: note_off channel=6 note=68 velocity=0 time=0
EXTRACT: note_on channel=6 note=68 velocity=89 time=0
EXTRACT: note_off channel=7 note=61 velocity=0 time=0
EXTRACT: note_off channel=7 note=53 velocity=0 time=0
EXTRACT: note_off channel=7 note=56 velocity=0 time=0
EXTRACT: note_on channel=7 note=60 velocity=89 time=0
EXTRACT: note_on channel=7 note=56 velocity=89 time=0
EXTRACT: note_on channel=7 note=51 velocity=89 time=0
EXTRACT: note_off channel=8 note=61 velocity=0 time=0
EXTRACT: note_off channel=8 note=53 velocity=0 time=0
EXTRACT: note_off channel=8 note=56 velocity=0 time=0
EXTRACT: note_on channel=8 note=60 velocity=89 time=0
EXTRACT: note_on channel=8 note=56 velocity=89 time=0
EXTRACT: note_on channel=8 note=51 velocity=89 time=0
EXTRACT: note_on channel=9 note=36 velocity=89 time=0
EXTRACT: note_off channel=0 note=68 velocity=0 time=0
EXTRACT: note_on channel=0 note=67 velocity=89 time=0
EXTRACT: note_off channel=5 note=68 velocity=0 time=0
EXTRACT: note_on channel=5 note=67 velocity=89 time=0
EXTRACT: note_off channel=6 note=68 velocity=0 time=0
EXTRACT: note_on channel=6 note=67 velocity=89 time=0
EXTRACT: note_off channel=0 note=67 velocity=0 time=0
EXTRACT: note_on channel=0 note=65 velocity=89 time=0
EXTRACT: note_off channel=5 note=67 velocity=0 time=0
EXTRACT: note_on channel=5 note=65 velocity=89 time=0
EXTRACT: note_off channel=6 note=67 velocity=0 time=0
EXTRACT: note_on channel=6 note=65 velocity=89 time=0
EXTRACT: note_off channel=0 note=65 velocity=0 time=0.1875
EXTRACT: note_on channel=0 note=63 velocity=89 time=0
EXTRACT: note_off channel=5 note=65 velocity=0 time=0
EXTRACT: note_on channel=5 note=63 velocity=89 time=0
EXTRACT: note_off channel=6 note=65 velocity=0 time=0
EXTRACT: note_on channel=6 note=63 velocity=89 time=0
EXTRACT: note_off channel=0 note=63 velocity=0 time=0
EXTRACT: note_on channel=0 note=63 velocity=89 time=0
EXTRACT: note_off channel=1 note=51 velocity=0 time=0
EXTRACT: note_off channel=1 note=56 velocity=0 time=0
EXTRACT: note_off channel=1 note=60 velocity=0 time=0
EXTRACT: note_on channel=1 note=51 velocity=89 time=0
EXTRACT: note_on channel=1 note=55 velocity=89 time=0
EXTRACT: note_on channel=1 note=58 velocity=89 time=0
EXTRACT: note_off channel=2 note=32 velocity=0 time=0
EXTRACT: note_off channel=2 note=44 velocity=0 time=0
EXTRACT: note_on channel=2 note=39 velocity=89 time=0
EXTRACT: note_on channel=2 note=27 velocity=89 time=0
EXTRACT: note_off channel=3 note=32 velocity=0 time=0
EXTRACT: note_off channel=3 note=44 velocity=0 time=0
EXTRACT: note_on channel=3 note=39 velocity=89 time=0
EXTRACT: note_on channel=3 note=27 velocity=89 time=0
EXTRACT: note_off channel=4 note=32 velocity=0 time=0
EXTRACT: note_off channel=4 note=44 velocity=0 time=0
EXTRACT: note_on channel=4 note=39 velocity=89 time=0
EXTRACT: note_on channel=4 note=27 velocity=89 time=0
EXTRACT: note_off channel=5 note=63 velocity=0 time=0
EXTRACT: note_on channel=5 note=63 velocity=89 time=0
EXTRACT: note_off channel=6 note=63 velocity=0 time=0
EXTRACT: note_on channel=6 note=63 velocity=89 time=0
EXTRACT: note_off channel=7 note=51 velocity=0 time=0
EXTRACT: note_off channel=7 note=56 velocity=0 time=0
EXTRACT: note_off channel=7 note=60 velocity=0 time=0
EXTRACT: note_on channel=7 note=51 velocity=89 time=0
EXTRACT: note_on channel=7 note=55 velocity=89 time=0
EXTRACT: note_on channel=7 note=58 velocity=89 time=0
EXTRACT: note_off channel=8 note=51 velocity=0 time=0
EXTRACT: note_off channel=8 note=56 velocity=0 time=0
EXTRACT: note_off channel=8 note=60 velocity=0 time=0
EXTRACT: note_on channel=8 note=51 velocity=89 time=0
EXTRACT: note_on channel=8 note=55 velocity=89 time=0
EXTRACT: note_on channel=8 note=58 velocity=89 time=0
EXTRACT: note_off channel=9 note=36 velocity=0 time=0
EXTRACT: note_on channel=9 note=36 velocity=89 time=0
EXTRACT: note_off channel=9 note=36 velocity=0 time=0
EXTRACT: note_on channel=9 note=36 velocity=89 time=0
EXTRACT: note_off channel=0 note=63 velocity=0 time=0
EXTRACT: note_on channel=0 note=63 velocity=89 time=0
EXTRACT: note_off channel=5 note=63 velocity=0 time=0
EXTRACT: note_on channel=5 note=63 velocity=89 time=0
EXTRACT: note_off channel=6 note=63 velocity=0 time=0
EXTRACT: note_on channel=6 note=63 velocity=89 time=0
EXTRACT: note_off channel=0 note=63 velocity=0 time=0
EXTRACT: note_on channel=0 note=65 velocity=89 time=0
EXTRACT: note_off channel=5 note=63 velocity=0 time=0
EXTRACT: note_on channel=5 note=65 velocity=89 time=0
EXTRACT: note_off channel=6 note=63 velocity=0 time=0
EXTRACT: note_on channel=6 note=65 velocity=89 time=0
EXTRACT: note_off channel=0 note=65 velocity=0 time=0
EXTRACT: note_on channel=0 note=60 velocity=89 time=0
EXTRACT: note_off channel=5 note=65 velocity=0 time=0
EXTRACT: note_on channel=5 note=60 velocity=89 time=0
EXTRACT: note_off channel=6 note=65 velocity=0 time=0
EXTRACT: note_on channel=6 note=60 velocity=89 time=0
EXTRACT: note_off channel=9 note=36 velocity=0 time=0
EXTRACT: note_off channel=0 note=60 velocity=0 time=0
EXTRACT: note_on channel=0 note=58 velocity=89 time=0
EXTRACT: note_off channel=5 note=60 velocity=0 time=0
EXTRACT: note_on channel=5 note=58 velocity=89 time=0
EXTRACT: note_off channel=6 note=60 velocity=0 time=0
EXTRACT: note_on channel=6 note=58 velocity=89 time=0
EXTRACT: note_off channel=0 note=58 velocity=0 time=0
EXTRACT: note_on channel=0 note=56 velocity=89 time=0
EXTRACT: note_off channel=1 note=58 velocity=0 time=0
EXTRACT: note_off channel=1 note=55 velocity=0 time=0
EXTRACT: note_off channel=1 note=51 velocity=0 time=0
EXTRACT: note_on channel=1 note=60 velocity=89 time=0
EXTRACT: note_on channel=1 note=56 velocity=89 time=0
EXTRACT: note_on channel=1 note=53 velocity=89 time=0
EXTRACT: note_off channel=2 note=27 velocity=0 time=0
EXTRACT: note_off channel=2 note=39 velocity=0 time=0
EXTRACT: note_on channel=2 note=48 velocity=89 time=0
EXTRACT: note_on channel=2 note=41 velocity=89 time=0
EXTRACT: note_off channel=3 note=27 velocity=0 time=0
EXTRACT: note_off channel=3 note=39 velocity=0 time=0
EXTRACT: note_off channel=4 note=27 velocity=0 time=0
EXTRACT: note_off channel=4 note=39 velocity=0 time=0
EXTRACT: note_off channel=5 note=58 velocity=0 time=0
EXTRACT: note_on channel=5 note=56 velocity=89 time=0
EXTRACT: note_off channel=6 note=58 velocity=0 time=0
EXTRACT: note_on channel=6 note=56 velocity=89 time=0
EXTRACT: note_off channel=7 note=58 velocity=0 time=0
EXTRACT: note_off channel=7 note=55 velocity=0 time=0
EXTRACT: note_off channel=7 note=51 velocity=0 time=0
EXTRACT: note_on channel=7 note=60 velocity=89 time=0
EXTRACT: note_on channel=7 note=56 velocity=89 time=0
EXTRACT: note_on channel=7 note=53 velocity=89 time=0
EXTRACT: note_off channel=8 note=58 velocity=0 time=0
EXTRACT: note_off channel=8 note=55 velocity=0 time=0
EXTRACT: note_off channel=8 note=51 velocity=0 time=0
EXTRACT: note_off channel=0 note=56 velocity=0 time=0.75
EXTRACT: note_off channel=5 note=56 velocity=0 time=0
EXTRACT: note_off channel=6 note=56 velocity=0 time=0
EXTRACT: note_off channel=1 note=53 velocity=0 time=0.375
EXTRACT: note_off channel=1 note=56 velocity=0 time=0
EXTRACT: note_off channel=1 note=60 velocity=0 time=0
EXTRACT: note_on channel=1 note=56 velocity=89 time=0
EXTRACT: note_on channel=1 note=60 velocity=89 time=0
EXTRACT: note_on channel=1 note=51 velocity=89 time=0
EXTRACT: note_off channel=2 note=41 velocity=0 time=0
EXTRACT: note_off channel=2 note=48 velocity=0 time=0
EXTRACT: note_on channel=2 note=48 velocity=89 time=0
EXTRACT: note_on channel=2 note=44 velocity=89 time=0
EXTRACT: note_on channel=2 note=39 velocity=89 time=0
EXTRACT: note_off channel=7 note=53 velocity=0 time=0
EXTRACT: note_off channel=7 note=56 velocity=0 time=0
EXTRACT: note_off channel=7 note=60 velocity=0 time=0
EXTRACT: note_on channel=7 note=56 velocity=89 time=0
EXTRACT: note_on channel=7 note=60 velocity=89 time=0
EXTRACT: note_on channel=7 note=51 velocity=89 time=0
EXTRACT: note_off channel=1 note=51 velocity=0 time=1.5
EXTRACT: note_off channel=1 note=60 velocity=0 time=0
EXTRACT: note_off channel=1 note=56 velocity=0 time=0
EXTRACT: note_on channel=1 note=51 velocity=89 time=0
EXTRACT: note_on channel=1 note=55 velocity=89 time=0
EXTRACT: note_on channel=1 note=58 velocity=89 time=0
EXTRACT: note_off channel=2 note=39 velocity=0 time=0
EXTRACT: note_off channel=2 note=44 velocity=0 time=0
EXTRACT: note_off channel=2 note=48 velocity=0 time=0
EXTRACT: note_on channel=2 note=46 velocity=89 time=0
EXTRACT: note_on channel=2 note=39 velocity=89 time=0
EXTRACT: note_off channel=7 note=51 velocity=0 time=0
EXTRACT: note_off channel=7 note=60 velocity=0 time=0
EXTRACT: note_off channel=7 note=56 velocity=0 time=0
EXTRACT: note_on channel=7 note=51 velocity=89 time=0
EXTRACT: note_on channel=7 note=55 velocity=89 time=0
EXTRACT: note_on channel=7 note=58 velocity=89 time=0
EXTRACT: note_off channel=1 note=58 velocity=0 time=1.125
EXTRACT: note_off channel=1 note=55 velocity=0 time=0
EXTRACT: note_off channel=1 note=51 velocity=0 time=0
EXTRACT: note_on channel=1 note=49 velocity=89 time=0
EXTRACT: note_on channel=1 note=53 velocity=89 time=0
EXTRACT: note_on channel=1 note=56 velocity=89 time=0
EXTRACT: note_off channel=2 note=39 velocity=0 time=0
EXTRACT: note_off channel=2 note=46 velocity=0 time=0
EXTRACT: note_on channel=2 note=44 velocity=89 time=0
EXTRACT: note_on channel=2 note=37 velocity=89 time=0
EXTRACT: note_off channel=7 note=58 velocity=0 time=0
EXTRACT: note_off channel=7 note=55 velocity=0 time=0
EXTRACT: note_off channel=7 note=51 velocity=0 time=0
EXTRACT: note_on channel=7 note=49 velocity=89 time=0
EXTRACT: note_on channel=7 note=53 velocity=89 time=0
EXTRACT: note_on channel=7 note=56 velocity=89 time=0
EXTRACT: note_on channel=0 note=58 velocity=89 time=0
EXTRACT: note_off channel=0 note=58 velocity=0 time=0
EXTRACT: note_on channel=0 note=58 velocity=89 time=0
EXTRACT: note_off channel=1 note=56 velocity=0 time=0
EXTRACT: note_off channel=1 note=53 velocity=0 time=0
EXTRACT: note_off channel=1 note=49 velocity=0 time=0
EXTRACT: note_on channel=1 note=60 velocity=89 time=0
EXTRACT: note_on channel=1 note=56 velocity=89 time=0
EXTRACT: note_on channel=1 note=53 velocity=89 time=0
EXTRACT: note_off channel=2 note=37 velocity=0 time=0
EXTRACT: note_off channel=2 note=44 velocity=0 time=0
EXTRACT: note_on channel=2 note=48 velocity=89 time=0
EXTRACT: note_on channel=2 note=41 velocity=89 time=0
EXTRACT: note_off channel=7 note=56 velocity=0 time=0
EXTRACT: note_off channel=7 note=53 velocity=0 time=0
EXTRACT: note_off channel=7 note=49 velocity=0 time=0
EXTRACT: note_on channel=7 note=60 velocity=89 time=0
EXTRACT: note_on channel=7 note=56 velocity=89 time=0
EXTRACT: note_on channel=7 note=53 velocity=89 time=0
EXTRACT: note_off channel=0 note=58 velocity=0 time=0.1875
EXTRACT: note_on channel=0 note=60 velocity=89 time=0
EXTRACT: note_off channel=0 note=60 velocity=0 time=0.1875
EXTRACT: note_on channel=0 note=58 velocity=89 time=0
EXTRACT: note_off channel=0 note=58 velocity=0 time=0.1875
EXTRACT: note_on channel=0 note=60 velocity=89 time=0
EXTRACT: note_off channel=0 note=60 velocity=0 time=0.1875
EXTRACT: note_on channel=0 note=58 velocity=89 time=0
EXTRACT: note_off channel=0 note=58 velocity=0 time=0
EXTRACT: note_on channel=0 note=56 velocity=89 time=0
EXTRACT: note_off channel=0 note=56 velocity=0 time=0.1875
EXTRACT: note_off channel=1 note=53 velocity=0 time=0
EXTRACT: note_off channel=1 note=56 velocity=0 time=0
EXTRACT: note_off channel=1 note=60 velocity=0 time=0
EXTRACT: note_on channel=1 note=60 velocity=89 time=0
EXTRACT: note_on channel=1 note=56 velocity=89 time=0
EXTRACT: note_on channel=1 note=53 velocity=89 time=0
EXTRACT: note_off channel=2 note=41 velocity=0 time=0
EXTRACT: note_off channel=2 note=48 velocity=0 time=0
EXTRACT: note_on channel=2 note=48 velocity=89 time=0
EXTRACT: note_on channel=2 note=44 velocity=89 time=0
EXTRACT: note_on channel=2 note=39 velocity=89 time=0
EXTRACT: note_off channel=7 note=53 velocity=0 time=0
EXTRACT: note_off channel=7 note=56 velocity=0 time=0
EXTRACT: note_off channel=7 note=60 velocity=0 time=0
EXTRACT: note_on channel=7 note=60 velocity=89 time=0
EXTRACT: note_on channel=7 note=56 velocity=89 time=0
EXTRACT: note_on channel=7 note=53 velocity=89 time=0
EXTRACT: note_on channel=0 note=58 velocity=89 time=0
EXTRACT: note_off channel=0 note=58 velocity=0 time=0
EXTRACT: note_on channel=0 note=58 velocity=89 time=0
EXTRACT: note_off channel=1 note=53 velocity=0 time=0
EXTRACT: note_off channel=1 note=56 velocity=0 time=0
EXTRACT: note_off channel=1 note=60 velocity=0 time=0
EXTRACT: note_on channel=1 note=51 velocity=89 time=0
EXTRACT: note_on channel=1 note=55 velocity=89 time=0
EXTRACT: note_on channel=1 note=58 velocity=89 time=0
EXTRACT: note_off channel=2 note=39 velocity=0 time=0
EXTRACT: note_off channel=2 note=44 velocity=0 time=0
EXTRACT: note_off channel=2 note=48 velocity=0 time=0
EXTRACT: note_on channel=2 note=39 velocity=89 time=0
EXTRACT: note_on channel=2 note=46 velocity=89 time=0
EXTRACT: note_off channel=7 note=53 velocity=0 time=0
EXTRACT: note_off channel=7 note=56 velocity=0 time=0
EXTRACT: note_off channel=7 note=60 velocity=0 time=0
EXTRACT: note_on channel=7 note=51 velocity=89 time=0
EXTRACT: note_on channel=7 note=55 velocity=89 time=0
EXTRACT: note_on channel=7 note=58 velocity=89 time=0
EXTRACT: note_off channel=0 note=58 velocity=0 time=0
EXTRACT: note_on channel=0 note=60 velocity=89 time=0
EXTRACT: note_off channel=0 note=60 velocity=0 time=0.375
EXTRACT: note_off channel=1 note=58 velocity=0 time=0.375
EXTRACT: note_off channel=1 note=55 velocity=0 time=0
EXTRACT: note_off channel=1 note=51 velocity=0 time=0
EXTRACT: note_on channel=1 note=49 velocity=89 time=0
EXTRACT: note_on channel=1 note=53 velocity=89 time=0
EXTRACT: note_on channel=1 note=56 velocity=89 time=0
EXTRACT: note_off channel=2 note=46 velocity=0 time=0
EXTRACT: note_off channel=2 note=39 velocity=0 time=0
EXTRACT: note_on channel=2 note=44 velocity=89 time=0
EXTRACT: note_on channel=2 note=37 velocity=89 time=0
EXTRACT: note_off channel=7 note=58 velocity=0 time=0
EXTRACT: note_off channel=7 note=55 velocity=0 time=0
EXTRACT: note_off channel=7 note=51 velocity=0 time=0
EXTRACT: note_on channel=7 note=49 velocity=89 time=0
EXTRACT: note_on channel=7 note=53 velocity=89 time=0
EXTRACT: note_on channel=7 note=56 velocity=89 time=0
EXTRACT: note_on channel=0 note=60 velocity=89 time=0
EXTRACT: note_off channel=0 note=60 velocity=0 time=0
EXTRACT: note_on channel=0 note=60 velocity=89 time=0
EXTRACT: note_off channel=1 note=56 velocity=0 time=0
EXTRACT: note_off channel=1 note=53 velocity=0 time=0
EXTRACT: note_off channel=1 note=49 velocity=0 time=0
EXTRACT: note_on channel=1 note=60 velocity=89 time=0
EXTRACT: note_on channel=1 note=56 velocity=89 time=0
EXTRACT: note_on channel=1 note=53 velocity=89 time=0
EXTRACT: note_off channel=2 note=37 velocity=0 time=0
EXTRACT: note_off channel=2 note=44 velocity=0 time=0
EXTRACT: note_on channel=2 note=48 velocity=89 time=0
EXTRACT: note_on channel=2 note=41 velocity=89 time=0
EXTRACT: note_off channel=7 note=56 velocity=0 time=0
EXTRACT: note_off channel=7 note=53 velocity=0 time=0
EXTRACT: note_off channel=7 note=49 velocity=0 time=0
EXTRACT: note_on channel=7 note=60 velocity=89 time=0
EXTRACT: note_on channel=7 note=56 velocity=89 time=0
EXTRACT: note_on channel=7 note=53 velocity=89 time=0
EXTRACT: note_off channel=0 note=60 velocity=0 time=0.375
EXTRACT: note_on channel=0 note=60 velocity=89 time=0
EXTRACT: note_off channel=0 note=60 velocity=0 time=0
EXTRACT: note_on channel=0 note=60 velocity=89 time=0
EXTRACT: note_off channel=0 note=60 velocity=0 time=0
EXTRACT: note_on channel=0 note=60 velocity=89 time=0
EXTRACT: note_off channel=1 note=53 velocity=0 time=0
EXTRACT: note_off channel=1 note=56 velocity=0 time=0
EXTRACT: note_off channel=1 note=60 velocity=0 time=0
EXTRACT: note_on channel=1 note=60 velocity=89 time=0
EXTRACT: note_on channel=1 note=56 velocity=89 time=0
EXTRACT: note_on channel=1 note=53 velocity=89 time=0
EXTRACT: note_off channel=2 note=41 velocity=0 time=0
EXTRACT: note_off channel=2 note=48 velocity=0 time=0
EXTRACT: note_on channel=2 note=48 velocity=89 time=0
EXTRACT: note_on channel=2 note=44 velocity=89 time=0
EXTRACT: note_on channel=2 note=39 velocity=89 time=0
EXTRACT: note_off channel=7 note=53 velocity=0 time=0
EXTRACT: note_off channel=7 note=56 velocity=0 time=0
EXTRACT: note_off channel=7 note=60 velocity=0 time=0
EXTRACT: note_on channel=7 note=60 velocity=89 time=0
EXTRACT: note_on channel=7 note=56 velocity=89 time=0
EXTRACT: note_on channel=7 note=53 velocity=89 time=0
EXTRACT: note_off channel=0 note=60 velocity=0 time=0
EXTRACT: note_on channel=0 note=60 velocity=89 time=0
EXTRACT: note_off channel=0 note=60 velocity=0 time=0
EXTRACT: note_on channel=0 note=58 velocity=89 time=0
EXTRACT: note_off channel=0 note=58 velocity=0 time=0
EXTRACT: note_on channel=0 note=58 velocity=89 time=0
EXTRACT: note_off channel=0 note=58 velocity=0 time=0.1875
EXTRACT: note_on channel=0 note=58 velocity=89 time=0
EXTRACT: note_off channel=0 note=58 velocity=0 time=0
EXTRACT: note_on channel=0 note=56 velocity=89 time=0
EXTRACT: note_off channel=0 note=56 velocity=0 time=0
EXTRACT: note_on channel=0 note=58 velocity=89 time=0
EXTRACT: note_off channel=1 note=53 velocity=0 time=0
EXTRACT: note_off channel=1 note=56 velocity=0 time=0
EXTRACT: note_off channel=1 note=60 velocity=0 time=0
EXTRACT: note_on channel=1 note=51 velocity=89 time=0
EXTRACT: note_on channel=1 note=55 velocity=89 time=0
EXTRACT: note_on channel=1 note=58 velocity=89 time=0
EXTRACT: note_off channel=2 note=39 velocity=0 time=0
EXTRACT: note_off channel=2 note=44 velocity=0 time=0
EXTRACT: note_off channel=2 note=48 velocity=0 time=0
EXTRACT: note_on channel=2 note=39 velocity=89 time=0
EXTRACT: note_on channel=2 note=46 velocity=89 time=0
EXTRACT: note_off channel=7 note=53 velocity=0 time=0
EXTRACT: note_off channel=7 note=56 velocity=0 time=0
EXTRACT: note_off channel=7 note=60 velocity=0 time=0
EXTRACT: note_on channel=7 note=51 velocity=89 time=0
EXTRACT: note_on channel=7 note=55 velocity=89 time=0
EXTRACT: note_on channel=7 note=58 velocity=89 time=0
EXTRACT: note_off channel=0 note=58 velocity=0 time=0
EXTRACT: note_on channel=0 note=60 velocity=89 time=0
EXTRACT: note_off channel=0 note=60 velocity=0 time=0
EXTRACT: note_on channel=0 note=58 velocity=89 time=0
EXTRACT: note_off channel=0 note=58 velocity=0 time=0
EXTRACT: note_on channel=0 note=53 velocity=89 time=0
EXTRACT: note_off channel=1 note=58 velocity=0 time=0
EXTRACT: note_off channel=1 note=55 velocity=0 time=0
EXTRACT: note_off channel=1 note=51 velocity=0 time=0
EXTRACT: note_on channel=1 note=49 velocity=89 time=0
EXTRACT: note_on channel=1 note=53 velocity=89 time=0
EXTRACT: note_on channel=1 note=56 velocity=89 time=0
EXTRACT: note_off channel=2 note=46 velocity=0 time=0
EXTRACT: note_off channel=2 note=39 velocity=0 time=0
EXTRACT: note_on channel=2 note=44 velocity=89 time=0
EXTRACT: note_on channel=2 note=37 velocity=89 time=0
EXTRACT: note_off channel=7 note=58 velocity=0 time=0
EXTRACT: note_off channel=7 note=55 velocity=0 time=0
EXTRACT: note_off channel=7 note=51 velocity=0 time=0
EXTRACT: note_on channel=7 note=49 velocity=89 time=0
EXTRACT: note_on channel=7 note=53 velocity=89 time=0
EXTRACT: note_on channel=7 note=56 velocity=89 time=0
EXTRACT: note_off channel=0 note=53 velocity=0 time=0
EXTRACT: note_on channel=0 note=56 velocity=89 time=0
EXTRACT: note_off channel=0 note=56 velocity=0 time=0
EXTRACT: note_on channel=0 note=56 velocity=89 time=0
EXTRACT: note_off channel=0 note=56 velocity=0 time=0.1875
EXTRACT: note_on channel=0 note=60 velocity=89 time=0
EXTRACT: note_off channel=0 note=60 velocity=0 time=0
EXTRACT: note_on channel=0 note=60 velocity=89 time=0
EXTRACT: note_off channel=1 note=56 velocity=0 time=0
EXTRACT: note_off channel=1 note=53 velocity=0 time=0
EXTRACT: note_off channel=1 note=49 velocity=0 time=0
EXTRACT: note_on channel=1 note=60 velocity=89 time=0
EXTRACT: note_on channel=1 note=56 velocity=89 time=0
EXTRACT: note_on channel=1 note=53 velocity=89 time=0
EXTRACT: note_off channel=2 note=37 velocity=0 time=0
EXTRACT: note_off channel=2 note=44 velocity=0 time=0
EXTRACT: note_on channel=2 note=48 velocity=89 time=0
EXTRACT: note_on channel=2 note=41 velocity=89 time=0
EXTRACT: note_off channel=7 note=56 velocity=0 time=0
EXTRACT: note_off channel=7 note=53 velocity=0 time=0
EXTRACT: note_off channel=7 note=49 velocity=0 time=0
EXTRACT: note_on channel=7 note=60 velocity=89 time=0
EXTRACT: note_on channel=7 note=56 velocity=89 time=0
EXTRACT: note_on channel=7 note=53 velocity=89 time=0
EXTRACT: note_off channel=0 note=60 velocity=0 time=0.375
EXTRACT: note_off channel=1 note=53 velocity=0 time=0.75
EXTRACT: note_off channel=1 note=56 velocity=0 time=0
EXTRACT: note_off channel=1 note=60 velocity=0 time=0
EXTRACT: note_on channel=1 note=60 velocity=89 time=0
EXTRACT: note_on channel=1 note=56 velocity=89 time=0
EXTRACT: note_on channel=1 note=53 velocity=89 time=0
EXTRACT: note_off channel=2 note=41 velocity=0 time=0
EXTRACT: note_off channel=2 note=48 velocity=0 time=0
EXTRACT: note_on channel=2 note=48 velocity=89 time=0
EXTRACT: note_on channel=2 note=44 velocity=89 time=0
EXTRACT: note_on channel=2 note=39 velocity=89 time=0
EXTRACT: note_off channel=7 note=53 velocity=0 time=0
EXTRACT: note_off channel=7 note=56 velocity=0 time=0
EXTRACT: note_off channel=7 note=60 velocity=0 time=0
EXTRACT: note_on channel=7 note=60 velocity=89 time=0
EXTRACT: note_on channel=7 note=56 velocity=89 time=0
EXTRACT: note_on channel=7 note=53 velocity=89 time=0
EXTRACT: note_on channel=0 note=56 velocity=89 time=0
EXTRACT: note_off channel=0 note=56 velocity=0 time=0
EXTRACT: note_on channel=0 note=56 velocity=89 time=0
EXTRACT: note_off channel=0 note=56 velocity=0 time=0
EXTRACT: note_on channel=0 note=58 velocity=89 time=0
EXTRACT: note_off channel=0 note=58 velocity=0 time=0
EXTRACT: note_on channel=0 note=58 velocity=89 time=0
EXTRACT: note_off channel=1 note=53 velocity=0 time=0
EXTRACT: note_off channel=1 note=56 velocity=0 time=0
EXTRACT: note_off channel=1 note=60 velocity=0 time=0
EXTRACT: note_on channel=1 note=51 velocity=89 time=0
EXTRACT: note_on channel=1 note=55 velocity=89 time=0
EXTRACT: note_on channel=1 note=58 velocity=89 time=0
EXTRACT: note_off channel=2 note=39 velocity=0 time=0
EXTRACT: note_off channel=2 note=44 velocity=0 time=0
EXTRACT: note_off channel=2 note=48 velocity=0 time=0
EXTRACT: note_on channel=2 note=39 velocity=89 time=0
EXTRACT: note_on channel=2 note=46 velocity=89 time=0
EXTRACT: note_off channel=7 note=53 velocity=0 time=0
EXTRACT: note_off channel=7 note=56 velocity=0 time=0
EXTRACT: note_off channel=7 note=60 velocity=0 time=0
EXTRACT: note_on channel=7 note=51 velocity=89 time=0
EXTRACT: note_on channel=7 note=55 velocity=89 time=0
EXTRACT: note_on channel=7 note=58 velocity=89 time=0
EXTRACT: note_off channel=0 note=58 velocity=0 time=1.125
EXTRACT: note_off channel=1 note=58 velocity=0 time=0
EXTRACT: note_off channel=1 note=55 velocity=0 time=0
EXTRACT: note_off channel=1 note=51 velocity=0 time=0
EXTRACT: note_on channel=1 note=49 velocity=89 time=0
EXTRACT: note_on channel=1 note=53 velocity=89 time=0
EXTRACT: note_on channel=1 note=56 velocity=89 time=0
EXTRACT: note_off channel=2 note=46 velocity=0 time=0
EXTRACT: note_off channel=2 note=39 velocity=0 time=0
EXTRACT: note_on channel=2 note=44 velocity=89 time=0
EXTRACT: note_on channel=2 note=37 velocity=89 time=0
EXTRACT: note_off channel=7 note=58 velocity=0 time=0
EXTRACT: note_off channel=7 note=55 velocity=0 time=0
EXTRACT: note_off channel=7 note=51 velocity=0 time=0
EXTRACT: note_on channel=7 note=49 velocity=89 time=0
EXTRACT: note_on channel=7 note=53 velocity=89 time=0
EXTRACT: note_on channel=7 note=56 velocity=89 time=0
EXTRACT: note_on channel=0 note=56 velocity=89 time=0
EXTRACT: note_off channel=0 note=56 velocity=0 time=0
EXTRACT: note_on channel=0 note=56 velocity=89 time=0
EXTRACT: note_off channel=0 note=56 velocity=0 time=0
EXTRACT: note_on channel=0 note=60 velocity=89 time=0
EXTRACT: note_off channel=0 note=60 velocity=0 time=0
EXTRACT: note_on channel=0 note=60 velocity=89 time=0
EXTRACT: note_off channel=1 note=56 velocity=0 time=0
EXTRACT: note_off channel=1 note=53 velocity=0 time=0
EXTRACT: note_off channel=1 note=49 velocity=0 time=0
EXTRACT: note_on channel=1 note=60 velocity=89 time=0
EXTRACT: note_on channel=1 note=56 velocity=89 time=0
EXTRACT: note_on channel=1 note=53 velocity=89 time=0
EXTRACT: note_off channel=2 note=37 velocity=0 time=0
EXTRACT: note_off channel=2 note=44 velocity=0 time=0
EXTRACT: note_on channel=2 note=48 velocity=89 time=0
EXTRACT: note_on channel=2 note=41 velocity=89 time=0
EXTRACT: note_off channel=7 note=56 velocity=0 time=0
EXTRACT: note_off channel=7 note=53 velocity=0 time=0
EXTRACT: note_off channel=7 note=49 velocity=0 time=0
EXTRACT: note_on channel=7 note=60 velocity=89 time=0
EXTRACT: note_on channel=7 note=56 velocity=89 time=0
EXTRACT: note_on channel=7 note=53 velocity=89 time=0
EXTRACT: note_off channel=0 note=60 velocity=0 time=0
EXTRACT: note_on channel=0 note=60 velocity=89 time=0
EXTRACT: note_off channel=0 note=60 velocity=0 time=0
EXTRACT: note_on channel=0 note=60 velocity=89 time=0
EXTRACT: note_off channel=0 note=60 velocity=0 time=0
EXTRACT: note_on channel=0 note=60 velocity=89 time=0
EXTRACT: note_off channel=1 note=53 velocity=0 time=0
EXTRACT: note_off channel=1 note=56 velocity=0 time=0
EXTRACT: note_off channel=1 note=60 velocity=0 time=0
EXTRACT: note_on channel=1 note=60 velocity=89 time=0
EXTRACT: note_on channel=1 note=56 velocity=89 time=0
EXTRACT: note_on channel=1 note=53 velocity=89 time=0
EXTRACT: note_off channel=2 note=41 velocity=0 time=0
EXTRACT: note_off channel=2 note=48 velocity=0 time=0
EXTRACT: note_on channel=2 note=48 velocity=89 time=0
EXTRACT: note_on channel=2 note=44 velocity=89 time=0
EXTRACT: note_on channel=2 note=39 velocity=89 time=0
EXTRACT: note_off channel=7 note=53 velocity=0 time=0
EXTRACT: note_off channel=7 note=56 velocity=0 time=0
EXTRACT: note_off channel=7 note=60 velocity=0 time=0
EXTRACT: note_on channel=7 note=60 velocity=89 time=0
EXTRACT: note_on channel=7 note=56 velocity=89 time=0
EXTRACT: note_on channel=7 note=53 velocity=89 time=0
EXTRACT: note_off channel=0 note=60 velocity=0 time=0
EXTRACT: note_on channel=0 note=60 velocity=89 time=0
EXTRACT: note_off channel=0 note=60 velocity=0 time=0
EXTRACT: note_on channel=0 note=58 velocity=89 time=0
EXTRACT: note_off channel=0 note=58 velocity=0 time=0
EXTRACT: note_on channel=0 note=58 velocity=89 time=0
EXTRACT: note_off channel=0 note=58 velocity=0 time=0
EXTRACT: note_on channel=0 note=58 velocity=89 time=0
EXTRACT: note_off channel=0 note=58 velocity=0 time=0
EXTRACT: note_on channel=0 note=56 velocity=89 time=0
EXTRACT: note_off channel=0 note=56 velocity=0 time=0
EXTRACT: note_on channel=0 note=58 velocity=89 time=0
EXTRACT: note_off channel=1 note=53 velocity=0 time=0
EXTRACT: note_off channel=1 note=56 velocity=0 time=0
EXTRACT: note_off channel=1 note=60 velocity=0 time=0
EXTRACT: note_on channel=1 note=51 velocity=89 time=0
EXTRACT: note_on channel=1 note=55 velocity=89 time=0
EXTRACT: note_on channel=1 note=58 velocity=89 time=0
EXTRACT: note_off channel=2 note=39 velocity=0 time=0
EXTRACT: note_off channel=2 note=44 velocity=0 time=0
EXTRACT: note_off channel=2 note=48 velocity=0 time=0
EXTRACT: note_on channel=2 note=39 velocity=89 time=0
EXTRACT: note_on channel=2 note=46 velocity=89 time=0
EXTRACT: note_off channel=7 note=53 velocity=0 time=0
EXTRACT: note_off channel=7 note=56 velocity=0 time=0
EXTRACT: note_off channel=7 note=60 velocity=0 time=0
EXTRACT: note_on channel=7 note=51 velocity=89 time=0
EXTRACT: note_on channel=7 note=55 velocity=89 time=0
EXTRACT: note_on channel=7 note=58 velocity=89 time=0
EXTRACT: note_off channel=0 note=58 velocity=0 time=0
EXTRACT: note_on channel=0 note=60 velocity=89 time=0
EXTRACT: note_off channel=0 note=60 velocity=0 time=0
EXTRACT: note_on channel=0 note=58 velocity=89 time=0
EXTRACT: note_off channel=0 note=58 velocity=0 time=0
EXTRACT: note_on channel=0 note=53 velocity=89 time=0
EXTRACT: note_off channel=1 note=58 velocity=0 time=0
EXTRACT: note_off channel=1 note=55 velocity=0 time=0
EXTRACT: note_off channel=1 note=51 velocity=0 time=0
EXTRACT: note_on channel=1 note=49 velocity=89 time=0
EXTRACT: note_on channel=1 note=53 velocity=89 time=0
EXTRACT: note_on channel=1 note=56 velocity=89 time=0
EXTRACT: note_off channel=2 note=46 velocity=0 time=0
EXTRACT: note_off channel=2 note=39 velocity=0 time=0
EXTRACT: note_on channel=2 note=44 velocity=89 time=0
EXTRACT: note_on channel=2 note=37 velocity=89 time=0
EXTRACT: note_off channel=7 note=58 velocity=0 time=0
EXTRACT: note_off channel=7 note=55 velocity=0 time=0
EXTRACT: note_off channel=7 note=51 velocity=0 time=0
EXTRACT: note_on channel=7 note=49 velocity=89 time=0
EXTRACT: note_on channel=7 note=53 velocity=89 time=0
EXTRACT: note_on channel=7 note=56 velocity=89 time=0
EXTRACT: note_off channel=0 note=53 velocity=0 time=0
EXTRACT: note_on channel=0 note=56 velocity=89 time=0
EXTRACT: note_off channel=0 note=56 velocity=0 time=0
EXTRACT: note_on channel=0 note=56 velocity=89 time=0
EXTRACT: note_off channel=0 note=56 velocity=0 time=0
EXTRACT: note_on channel=0 note=56 velocity=89 time=0
EXTRACT: note_off channel=0 note=56 velocity=0 time=0
EXTRACT: note_on channel=0 note=60 velocity=89 time=0
EXTRACT: note_off channel=0 note=60 velocity=0 time=0
EXTRACT: note_on channel=0 note=60 velocity=89 time=0
EXTRACT: note_off channel=1 note=56 velocity=0 time=0
EXTRACT: note_off channel=1 note=53 velocity=0 time=0
EXTRACT: note_off channel=1 note=49 velocity=0 time=0
EXTRACT: note_on channel=1 note=60 velocity=89 time=0
EXTRACT: note_on channel=1 note=56 velocity=89 time=0
EXTRACT: note_on channel=1 note=53 velocity=89 time=0
EXTRACT: note_off channel=2 note=37 velocity=0 time=0
EXTRACT: note_off channel=2 note=44 velocity=0 time=0
EXTRACT: note_on channel=2 note=48 velocity=89 time=0
EXTRACT: note_on channel=2 note=41 velocity=89 time=0
EXTRACT: note_off channel=7 note=56 velocity=0 time=0
EXTRACT: note_off channel=7 note=53 velocity=0 time=0
EXTRACT: note_off channel=7 note=49 velocity=0 time=0
EXTRACT: note_on channel=7 note=60 velocity=89 time=0
EXTRACT: note_on channel=7 note=56 velocity=89 time=0
EXTRACT: note_on channel=7 note=53 velocity=89 time=0
EXTRACT: note_off channel=0 note=60 velocity=0 time=0
EXTRACT: note_on channel=0 note=58 velocity=89 time=0
EXTRACT: note_off channel=0 note=58 velocity=0 time=0
EXTRACT: note_on channel=0 note=56 velocity=89 time=0
EXTRACT: note_off channel=0 note=56 velocity=0 time=0.1875
EXTRACT: note_off channel=1 note=53 velocity=0 time=0
EXTRACT: note_off channel=1 note=56 velocity=0 time=0
EXTRACT: note_off channel=1 note=60 velocity=0 time=0
EXTRACT: note_on channel=1 note=60 velocity=89 time=0
EXTRACT: note_on channel=1 note=56 velocity=89 time=0
EXTRACT: note_on channel=1 note=53 velocity=89 time=0
EXTRACT: note_off channel=2 note=41 velocity=0 time=0
EXTRACT: note_off channel=2 note=48 velocity=0 time=0
EXTRACT: note_on channel=2 note=39 velocity=89 time=0
EXTRACT: note_on channel=2 note=46 velocity=89 time=0
EXTRACT: note_off channel=7 note=53 velocity=0 time=0
EXTRACT: note_off channel=7 note=56 velocity=0 time=0
EXTRACT: note_off channel=7 note=60 velocity=0 time=0
EXTRACT: note_on channel=7 note=60 velocity=89 time=0
EXTRACT: note_on channel=7 note=56 velocity=89 time=0
EXTRACT: note_on channel=7 note=53 velocity=89 time=0
EXTRACT: note_on channel=0 note=60 velocity=89 time=0
EXTRACT: note_off channel=0 note=60 velocity=0 time=0
EXTRACT: note_on channel=0 note=60 velocity=89 time=0
EXTRACT: note_off channel=0 note=60 velocity=0 time=0
EXTRACT: note_on channel=0 note=63 velocity=89 time=0
EXTRACT: note_off channel=1 note=53 velocity=0 time=0
EXTRACT: note_off channel=1 note=56 velocity=0 time=0
EXTRACT: note_off channel=1 note=60 velocity=0 time=0
EXTRACT: note_on channel=1 note=51 velocity=89 time=0
EXTRACT: note_on channel=1 note=55 velocity=89 time=0
EXTRACT: note_on channel=1 note=48 velocity=89 time=0
EXTRACT: note_off channel=2 note=46 velocity=0 time=0
EXTRACT: note_off channel=2 note=39 velocity=0 time=0
EXTRACT: note_on channel=2 note=36 velocity=89 time=0
EXTRACT: note_on channel=2 note=43 velocity=89 time=0
EXTRACT: note_off channel=7 note=53 velocity=0 time=0
EXTRACT: note_off channel=7 note=56 velocity=0 time=0
EXTRACT: note_off channel=7 note=60 velocity=0 time=0
EXTRACT: note_on channel=7 note=51 velocity=89 time=0
EXTRACT: note_on channel=7 note=55 velocity=89 time=0
EXTRACT: note_on channel=7 note=48 velocity=89 time=0
EXTRACT: note_off channel=0 note=63 velocity=0 time=0
EXTRACT: note_on channel=0 note=60 velocity=89 time=0
EXTRACT: note_off channel=0 note=60 velocity=0 time=0
EXTRACT: note_on channel=0 note=61 velocity=89 time=0
EXTRACT: note_off channel=1 note=48 velocity=0 time=0
EXTRACT: note_off channel=1 note=55 velocity=0 time=0
EXTRACT: note_off channel=1 note=51 velocity=0 time=0
EXTRACT: note_on channel=1 note=49 velocity=89 time=0
EXTRACT: note_on channel=1 note=53 velocity=89 time=0
EXTRACT: note_on channel=1 note=56 velocity=89 time=0
EXTRACT: note_off channel=2 note=43 velocity=0 time=0
EXTRACT: note_off channel=2 note=36 velocity=0 time=0
EXTRACT: note_on channel=2 note=44 velocity=89 time=0
EXTRACT: note_on channel=2 note=37 velocity=89 time=0
EXTRACT: note_off channel=7 note=48 velocity=0 time=0
EXTRACT: note_off channel=7 note=55 velocity=0 time=0
EXTRACT: note_off channel=7 note=51 velocity=0 time=0
EXTRACT: note_on channel=7 note=49 velocity=89 time=0
EXTRACT: note_on channel=7 note=53 velocity=89 time=0
EXTRACT: note_on channel=7 note=56 velocity=89 time=0
EXTRACT: note_off channel=0 note=61 velocity=0 time=0
EXTRACT: note_on channel=0 note=60 velocity=89 time=0
EXTRACT: note_off channel=0 note=60 velocity=0 time=0
EXTRACT: note_on channel=0 note=58 velocity=89 time=0
EXTRACT: note_off channel=0 note=58 velocity=0 time=0
EXTRACT: note_on channel=0 note=56 velocity=89 time=0
EXTRACT: note_off channel=0 note=56 velocity=0 time=0
EXTRACT: note_on channel=0 note=56 velocity=89 time=0
EXTRACT: note_off channel=0 note=56 velocity=0 time=0
EXTRACT: note_on channel=0 note=60 velocity=89 time=0
EXTRACT: note_off channel=0 note=60 velocity=0 time=0
EXTRACT: note_on channel=0 note=60 velocity=89 time=0
EXTRACT: note_off channel=1 note=56 velocity=0 time=0
EXTRACT: note_off channel=1 note=53 velocity=0 time=0
EXTRACT: note_off channel=1 note=49 velocity=0 time=0
EXTRACT: note_on channel=1 note=60 velocity=89 time=0
EXTRACT: note_on channel=1 note=56 velocity=89 time=0
EXTRACT: note_on channel=1 note=53 velocity=89 time=0
EXTRACT: note_off channel=2 note=37 velocity=0 time=0
EXTRACT: note_off channel=2 note=44 velocity=0 time=0
EXTRACT: note_on channel=2 note=48 velocity=89 time=0
EXTRACT: note_on channel=2 note=41 velocity=89 time=0
EXTRACT: note_off channel=7 note=56 velocity=0 time=0
EXTRACT: note_off channel=7 note=53 velocity=0 time=0
EXTRACT: note_off channel=7 note=49 velocity=0 time=0
EXTRACT: note_on channel=7 note=60 velocity=89 time=0
EXTRACT: note_on channel=7 note=56 velocity=89 time=0
EXTRACT: note_on channel=7 note=53 velocity=89 time=0
EXTRACT: note_off channel=0 note=60 velocity=0 time=0
EXTRACT: note_on channel=0 note=58 velocity=89 time=0
EXTRACT: note_off channel=0 note=58 velocity=0 time=0
EXTRACT: note_on channel=0 note=58 velocity=89 time=0
EXTRACT: note_off channel=1 note=53 velocity=0 time=0
EXTRACT: note_off channel=1 note=56 velocity=0 time=0
EXTRACT: note_off channel=1 note=60 velocity=0 time=0
EXTRACT: note_on channel=1 note=60 velocity=89 time=0
EXTRACT: note_on channel=1 note=56 velocity=89 time=0
EXTRACT: note_on channel=1 note=53 velocity=89 time=0
EXTRACT: note_off channel=2 note=41 velocity=0 time=0
EXTRACT: note_off channel=2 note=48 velocity=0 time=0
EXTRACT: note_on channel=2 note=39 velocity=89 time=0
EXTRACT: note_on channel=2 note=46 velocity=89 time=0
EXTRACT: note_off channel=7 note=53 velocity=0 time=0
EXTRACT: note_off channel=7 note=56 velocity=0 time=0
EXTRACT: note_off channel=7 note=60 velocity=0 time=0
EXTRACT: note_on channel=7 note=60 velocity=89 time=0
EXTRACT: note_on channel=7 note=56 velocity=89 time=0
EXTRACT: note_on channel=7 note=53 velocity=89 time=0
EXTRACT: note_off channel=0 note=58 velocity=0 time=0
EXTRACT: note_on channel=0 note=56 velocity=89 time=0
EXTRACT: note_off channel=0 note=56 velocity=0 time=0
EXTRACT: note_on channel=0 note=56 velocity=89 time=0
EXTRACT: note_off channel=1 note=53 velocity=0 time=0
EXTRACT: note_off channel=1 note=56 velocity=0 time=0
EXTRACT: note_off channel=1 note=60 velocity=0 time=0
EXTRACT: note_on channel=1 note=56 velocity=89 time=0
EXTRACT: note_on channel=1 note=53 velocity=89 time=0
EXTRACT: note_on channel=1 note=49 velocity=89 time=0
EXTRACT: note_off channel=2 note=46 velocity=0 time=0
EXTRACT: note_off channel=2 note=39 velocity=0 time=0
EXTRACT: note_on channel=2 note=44 velocity=89 time=0
EXTRACT: note_on channel=2 note=37 velocity=89 time=0
EXTRACT: note_off channel=7 note=53 velocity=0 time=0
EXTRACT: note_off channel=7 note=56 velocity=0 time=0
EXTRACT: note_off channel=7 note=60 velocity=0 time=0
EXTRACT: note_on channel=7 note=56 velocity=89 time=0
EXTRACT: note_on channel=7 note=53 velocity=89 time=0
EXTRACT: note_on channel=7 note=49 velocity=89 time=0
EXTRACT: note_off channel=0 note=56 velocity=0 time=2.25
EXTRACT: note_on channel=0 note=65 velocity=89 time=0
EXTRACT: note_on channel=5 note=65 velocity=89 time=0
EXTRACT: note_on channel=6 note=65 velocity=89 time=0
EXTRACT: note_off channel=0 note=65 velocity=0 time=0
EXTRACT: note_on channel=0 note=65 velocity=89 time=0
EXTRACT: note_off channel=1 note=49 velocity=0 time=0
EXTRACT: note_off channel=1 note=53 velocity=0 time=0
EXTRACT: note_off channel=1 note=56 velocity=0 time=0
EXTRACT: note_on channel=1 note=60 velocity=89 time=0
EXTRACT: note_on channel=1 note=56 velocity=89 time=0
EXTRACT: note_on channel=1 note=53 velocity=89 time=0
EXTRACT: note_off channel=2 note=37 velocity=0 time=0
EXTRACT: note_off channel=2 note=44 velocity=0 time=0
EXTRACT: note_on channel=2 note=29 velocity=89 time=0
EXTRACT: note_on channel=2 note=41 velocity=89 time=0
EXTRACT: note_on channel=3 note=29 velocity=89 time=0
EXTRACT: note_on channel=3 note=41 velocity=89 time=0
EXTRACT: note_on channel=4 note=29 velocity=89 time=0
EXTRACT: note_on channel=4 note=41 velocity=89 time=0
EXTRACT: note_off channel=5 note=65 velocity=0 time=0
EXTRACT: note_on channel=5 note=65 velocity=89 time=0
EXTRACT: note_off channel=6 note=65 velocity=0 time=0
EXTRACT: note_on channel=6 note=65 velocity=89 time=0
EXTRACT: note_off channel=7 note=49 velocity=0 time=0
EXTRACT: note_off channel=7 note=53 velocity=0 time=0
EXTRACT: note_off channel=7 note=56 velocity=0 time=0
EXTRACT: note_on channel=8 note=60 velocity=89 time=0
EXTRACT: note_on channel=8 note=56 velocity=89 time=0
EXTRACT: note_on channel=8 note=53 velocity=89 time=0
EXTRACT: note_on channel=9 note=36 velocity=89 time=0
EXTRACT: note_off channel=0 note=65 velocity=0 time=0
EXTRACT: note_on channel=0 note=65 velocity=89 time=0
EXTRACT: note_off channel=5 note=65 velocity=0 time=0
EXTRACT: note_on channel=5 note=65 velocity=89 time=0
EXTRACT: note_off channel=6 note=65 velocity=0 time=0
EXTRACT: note_on channel=6 note=65 velocity=89 time=0
EXTRACT: note_off channel=0 note=65 velocity=0 time=0
EXTRACT: note_on channel=0 note=68 velocity=89 time=0
EXTRACT: note_off channel=5 note=65 velocity=0 time=0
EXTRACT: note_on channel=5 note=68 velocity=89 time=0
EXTRACT: note_off channel=6 note=65 velocity=0 time=0
EXTRACT: note_on channel=6 note=68 velocity=89 time=0
EXTRACT: note_off channel=0 note=68 velocity=0 time=0
EXTRACT: note_on channel=0 note=68 velocity=89 time=0
EXTRACT: note_off channel=1 note=53 velocity=0 time=0
EXTRACT: note_off channel=1 note=56 velocity=0 time=0
EXTRACT: note_off channel=1 note=60 velocity=0 time=0
EXTRACT: note_on channel=1 note=56 velocity=89 time=0
EXTRACT: note_on channel=1 note=53 velocity=89 time=0
EXTRACT: note_on channel=1 note=61 velocity=89 time=0
EXTRACT: note_off channel=2 note=41 velocity=0 time=0
EXTRACT: note_off channel=2 note=29 velocity=0 time=0
EXTRACT: note_on channel=2 note=25 velocity=89 time=0
EXTRACT: note_on channel=2 note=37 velocity=89 time=0
EXTRACT: note_off channel=3 note=41 velocity=0 time=0
EXTRACT: note_off channel=3 note=29 velocity=0 time=0
EXTRACT: note_on channel=3 note=25 velocity=89 time=0
EXTRACT: note_on channel=3 note=37 velocity=89 time=0
EXTRACT: note_off channel=4 note=41 velocity=0 time=0
EXTRACT: note_off channel=4 note=29 velocity=0 time=0
EXTRACT: note_on channel=4 note=25 velocity=89 time=0
EXTRACT: note_on channel=4 note=37 velocity=89 time=0
EXTRACT: note_off channel=5 note=68 velocity=0 time=0
EXTRACT: note_on channel=5 note=68 velocity=89 time=0
EXTRACT: note_off channel=6 note=68 velocity=0 time=0
EXTRACT: note_on channel=6 note=68 velocity=89 time=0
EXTRACT: note_off channel=8 note=53 velocity=0 time=0
EXTRACT: note_off channel=8 note=56 velocity=0 time=0
EXTRACT: note_off channel=8 note=60 velocity=0 time=0
EXTRACT: note_on channel=8 note=56 velocity=89 time=0
EXTRACT: note_on channel=8 note=53 velocity=89 time=0
EXTRACT: note_on channel=8 note=61 velocity=89 time=0
EXTRACT: note_off channel=9 note=36 velocity=0 time=0
EXTRACT: note_on channel=9 note=36 velocity=89 time=0
EXTRACT: note_off channel=0 note=68 velocity=0 time=0
EXTRACT: note_on channel=0 note=70 velocity=89 time=0
EXTRACT: note_off channel=5 note=68 velocity=0 time=0
EXTRACT: note_on channel=5 note=70 velocity=89 time=0
EXTRACT: note_off channel=6 note=68 velocity=0 time=0
EXTRACT: note_on channel=6 note=70 velocity=89 time=0
EXTRACT: note_off channel=0 note=70 velocity=0 time=0
EXTRACT: note_on channel=0 note=70 velocity=89 time=0
EXTRACT: note_off channel=5 note=70 velocity=0 time=0
EXTRACT: note_on channel=5 note=70 velocity=89 time=0
EXTRACT: note_off channel=6 note=70 velocity=0 time=0
EXTRACT: note_on channel=6 note=70 velocity=89 time=0
EXTRACT: note_off channel=0 note=70 velocity=0 time=0
EXTRACT: note_on channel=0 note=70 velocity=89 time=0
EXTRACT: note_off channel=5 note=70 velocity=0 time=0
EXTRACT: note_on channel=5 note=70 velocity=89 time=0
EXTRACT: note_off channel=6 note=70 velocity=0 time=0
EXTRACT: note_on channel=6 note=70 velocity=89 time=0
EXTRACT: note_off channel=9 note=36 velocity=0 time=0
EXTRACT: note_off channel=1 note=61 velocity=0 time=0
EXTRACT: note_off channel=1 note=53 velocity=0 time=0
EXTRACT: note_off channel=1 note=56 velocity=0 time=0
EXTRACT: note_on channel=1 note=60 velocity=89 time=0
EXTRACT: note_on channel=1 note=56 velocity=89 time=0
EXTRACT: note_on channel=1 note=51 velocity=89 time=0
EXTRACT: note_off channel=2 note=37 velocity=0 time=0
EXTRACT: note_off channel=2 note=25 velocity=0 time=0
EXTRACT: note_on channel=2 note=44 velocity=89 time=0
EXTRACT: note_on channel=2 note=32 velocity=89 time=0
EXTRACT: note_off channel=3 note=37 velocity=0 time=0
EXTRACT: note_off channel=3 note=25 velocity=0 time=0
EXTRACT: note_on channel=3 note=44 velocity=89 time=0
EXTRACT: note_on channel=3 note=32 velocity=89 time=0
EXTRACT: note_off channel=4 note=37 velocity=0 time=0
EXTRACT: note_off channel=4 note=25 velocity=0 time=0
EXTRACT: note_on channel=4 note=44 velocity=89 time=0
EXTRACT: note_on channel=4 note=32 velocity=89 time=0
EXTRACT: note_off channel=8 note=61 velocity=0 time=0
EXTRACT: note_off channel=8 note=53 velocity=0 time=0
EXTRACT: note_off channel=8 note=56 velocity=0 time=0
EXTRACT: note_on channel=8 note=60 velocity=89 time=0
EXTRACT: note_on channel=8 note=56 velocity=89 time=0
EXTRACT: note_on channel=8 note=51 velocity=89 time=0
EXTRACT: note_on channel=9 note=36 velocity=89 time=0
EXTRACT: note_off channel=0 note=70 velocity=0 time=0
EXTRACT: note_on channel=0 note=68 velocity=89 time=0
EXTRACT: note_off channel=1 note=51 velocity=0 time=0
EXTRACT: note_off channel=1 note=56 velocity=0 time=0
EXTRACT: note_off channel=1 note=60 velocity=0 time=0
EXTRACT: note_on channel=1 note=51 velocity=89 time=0
EXTRACT: note_on channel=1 note=55 velocity=89 time=0
EXTRACT: note_on channel=1 note=58 velocity=89 time=0
EXTRACT: note_off channel=2 note=32 velocity=0 time=0
EXTRACT: note_off channel=2 note=44 velocity=0 time=0
EXTRACT: note_on channel=2 note=39 velocity=89 time=0
EXTRACT: note_on channel=2 note=27 velocity=89 time=0
EXTRACT: note_off channel=3 note=32 velocity=0 time=0
EXTRACT: note_off channel=3 note=44 velocity=0 time=0
EXTRACT: note_on channel=3 note=39 velocity=89 time=0
EXTRACT: note_on channel=3 note=27 velocity=89 time=0
EXTRACT: note_off channel=4 note=32 velocity=0 time=0
EXTRACT: note_off channel=4 note=44 velocity=0 time=0
EXTRACT: note_on channel=4 note=39 velocity=89 time=0
EXTRACT: note_on channel=4 note=27 velocity=89 time=0
EXTRACT: note_off channel=5 note=70 velocity=0 time=0
EXTRACT: note_on channel=5 note=68 velocity=89 time=0
EXTRACT: note_off channel=6 note=70 velocity=0 time=0
EXTRACT: note_on channel=6 note=68 velocity=89 time=0
EXTRACT: note_off channel=8 note=51 velocity=0 time=0
EXTRACT: note_off channel=8 note=56 velocity=0 time=0
EXTRACT: note_off channel=8 note=60 velocity=0 time=0
EXTRACT: note_on channel=8 note=51 velocity=89 time=0
EXTRACT: note_on channel=8 note=55 velocity=89 time=0
EXTRACT: note_on channel=8 note=58 velocity=89 time=0
EXTRACT: note_off channel=9 note=36 velocity=0 time=0
EXTRACT: note_on channel=9 note=36 velocity=89 time=0
EXTRACT: note_off channel=9 note=36 velocity=0 time=0
EXTRACT: note_on channel=9 note=36 velocity=89 time=0
EXTRACT: note_off channel=0 note=68 velocity=0 time=0
EXTRACT: note_on channel=0 note=65 velocity=89 time=0
EXTRACT: note_off channel=5 note=68 velocity=0 time=0
EXTRACT: note_on channel=5 note=65 velocity=89 time=0
EXTRACT: note_off channel=6 note=68 velocity=0 time=0
EXTRACT: note_on channel=6 note=65 velocity=89 time=0
EXTRACT: note_off channel=0 note=65 velocity=0 time=0.1875
EXTRACT: note_off channel=5 note=65 velocity=0 time=0
EXTRACT: note_off channel=6 note=65 velocity=0 time=0
EXTRACT: note_on channel=0 note=65 velocity=89 time=0
EXTRACT: note_on channel=5 note=65 velocity=89 time=0
EXTRACT: note_on channel=6 note=65 velocity=89 time=0
EXTRACT: note_off channel=9 note=36 velocity=0 time=0
EXTRACT: note_off channel=0 note=65 velocity=0 time=0
EXTRACT: note_on channel=0 note=65 velocity=89 time=0
EXTRACT: note_off channel=1 note=58 velocity=0 time=0
EXTRACT: note_off channel=1 note=55 velocity=0 time=0
EXTRACT: note_off channel=1 note=51 velocity=0 time=0
EXTRACT: note_on channel=1 note=60 velocity=89 time=0
EXTRACT: note_on channel=1 note=56 velocity=89 time=0
EXTRACT: note_on channel=1 note=53 velocity=89 time=0
EXTRACT: note_off channel=2 note=27 velocity=0 time=0
EXTRACT: note_off channel=2 note=39 velocity=0 time=0
EXTRACT: note_on channel=2 note=29 velocity=89 time=0
EXTRACT: note_on channel=2 note=41 velocity=89 time=0
EXTRACT: note_off channel=3 note=27 velocity=0 time=0
EXTRACT: note_off channel=3 note=39 velocity=0 time=0
EXTRACT: note_on channel=3 note=29 velocity=89 time=0
EXTRACT: note_on channel=3 note=41 velocity=89 time=0
EXTRACT: note_off channel=4 note=27 velocity=0 time=0
EXTRACT: note_off channel=4 note=39 velocity=0 time=0
EXTRACT: note_on channel=4 note=29 velocity=89 time=0
EXTRACT: note_on channel=4 note=41 velocity=89 time=0
EXTRACT: note_off channel=5 note=65 velocity=0 time=0
EXTRACT: note_on channel=5 note=65 velocity=89 time=0
EXTRACT: note_off channel=6 note=65 velocity=0 time=0
EXTRACT: note_on channel=6 note=65 velocity=89 time=0
EXTRACT: note_off channel=8 note=58 velocity=0 time=0
EXTRACT: note_off channel=8 note=55 velocity=0 time=0
EXTRACT: note_off channel=8 note=51 velocity=0 time=0
EXTRACT: note_on channel=8 note=60 velocity=89 time=0
EXTRACT: note_on channel=8 note=56 velocity=89 time=0
EXTRACT: note_on channel=8 note=53 velocity=89 time=0
EXTRACT: note_on channel=9 note=36 velocity=89 time=0
EXTRACT: note_off channel=0 note=65 velocity=0 time=0
EXTRACT: note_on channel=0 note=65 velocity=89 time=0
EXTRACT: note_off channel=5 note=65 velocity=0 time=0
EXTRACT: note_on channel=5 note=65 velocity=89 time=0
EXTRACT: note_off channel=6 note=65 velocity=0 time=0
EXTRACT: note_on channel=6 note=65 velocity=89 time=0
EXTRACT: note_off channel=0 note=65 velocity=0 time=0
EXTRACT: note_on channel=0 note=68 velocity=89 time=0
EXTRACT: note_off channel=5 note=65 velocity=0 time=0
EXTRACT: note_on channel=5 note=68 velocity=89 time=0
EXTRACT: note_off channel=6 note=65 velocity=0 time=0
EXTRACT: note_on channel=6 note=68 velocity=89 time=0
EXTRACT: note_off channel=0 note=68 velocity=0 time=0
EXTRACT: note_on channel=0 note=68 velocity=89 time=0
EXTRACT: note_off channel=1 note=53 velocity=0 time=0
EXTRACT: note_off channel=1 note=56 velocity=0 time=0
EXTRACT: note_off channel=1 note=60 velocity=0 time=0
EXTRACT: note_on channel=1 note=56 velocity=89 time=0
EXTRACT: note_on channel=1 note=53 velocity=89 time=0
EXTRACT: note_on channel=1 note=61 velocity=89 time=0
EXTRACT: note_off channel=2 note=41 velocity=0 time=0
EXTRACT: note_off channel=2 note=29 velocity=0 time=0
EXTRACT: note_on channel=2 note=25 velocity=89 time=0
EXTRACT: note_on channel=2 note=37 velocity=89 time=0
EXTRACT: note_off channel=3 note=41 velocity=0 time=0
EXTRACT: note_off channel=3 note=29 velocity=0 time=0
EXTRACT: note_on channel=3 note=25 velocity=89 time=0
EXTRACT: note_on channel=3 note=37 velocity=89 time=0
EXTRACT: note_off channel=4 note=41 velocity=0 time=0
EXTRACT: note_off channel=4 note=29 velocity=0 time=0
EXTRACT: note_on channel=4 note=25 velocity=89 time=0
EXTRACT: note_on channel=4 note=37 velocity=89 time=0
EXTRACT: note_off channel=5 note=68 velocity=0 time=0
EXTRACT: note_on channel=5 note=68 velocity=89 time=0
EXTRACT: note_off channel=6 note=68 velocity=0 time=0
EXTRACT: note_on channel=6 note=68 velocity=89 time=0
EXTRACT: note_off channel=8 note=53 velocity=0 time=0
EXTRACT: note_off channel=8 note=56 velocity=0 time=0
EXTRACT: note_off channel=8 note=60 velocity=0 time=0
EXTRACT: note_on channel=8 note=56 velocity=89 time=0
EXTRACT: note_on channel=8 note=53 velocity=89 time=0
EXTRACT: note_on channel=8 note=61 velocity=89 time=0
EXTRACT: note_off channel=9 note=36 velocity=0 time=0
EXTRACT: note_on channel=9 note=36 velocity=89 time=0
EXTRACT: note_off channel=0 note=68 velocity=0 time=0
EXTRACT: note_on channel=0 note=70 velocity=89 time=0
EXTRACT: note_off channel=5 note=68 velocity=0 time=0
EXTRACT: note_on channel=5 note=70 velocity=89 time=0
EXTRACT: note_off channel=6 note=68 velocity=0 time=0
EXTRACT: note_on channel=6 note=70 velocity=89 time=0
EXTRACT: note_off channel=0 note=70 velocity=0 time=0
EXTRACT: note_on channel=0 note=70 velocity=89 time=0
EXTRACT: note_off channel=5 note=70 velocity=0 time=0
EXTRACT: note_on channel=5 note=70 velocity=89 time=0
EXTRACT: note_off channel=6 note=70 velocity=0 time=0
EXTRACT: note_on channel=6 note=70 velocity=89 time=0
EXTRACT: note_off channel=0 note=70 velocity=0 time=0
EXTRACT: note_on channel=0 note=70 velocity=89 time=0
EXTRACT: note_off channel=5 note=70 velocity=0 time=0
EXTRACT: note_on channel=5 note=70 velocity=89 time=0
EXTRACT: note_off channel=6 note=70 velocity=0 time=0
EXTRACT: note_on channel=6 note=70 velocity=89 time=0
EXTRACT: note_off channel=9 note=36 velocity=0 time=0
EXTRACT: note_off channel=1 note=61 velocity=0 time=0
EXTRACT: note_off channel=1 note=53 velocity=0 time=0
EXTRACT: note_off channel=1 note=56 velocity=0 time=0
EXTRACT: note_on channel=1 note=60 velocity=89 time=0
EXTRACT: note_on channel=1 note=56 velocity=89 time=0
EXTRACT: note_on channel=1 note=51 velocity=89 time=0
EXTRACT: note_off channel=2 note=37 velocity=0 time=0
EXTRACT: note_off channel=2 note=25 velocity=0 time=0
EXTRACT: note_on channel=2 note=44 velocity=89 time=0
EXTRACT: note_on channel=2 note=32 velocity=89 time=0
EXTRACT: note_off channel=3 note=37 velocity=0 time=0
EXTRACT: note_off channel=3 note=25 velocity=0 time=0
EXTRACT: note_on channel=3 note=44 velocity=89 time=0
EXTRACT: note_on channel=3 note=32 velocity=89 time=0
EXTRACT: note_off channel=4 note=37 velocity=0 time=0
EXTRACT: note_off channel=4 note=25 velocity=0 time=0
EXTRACT: note_on channel=4 note=44 velocity=89 time=0
EXTRACT: note_on channel=4 note=32 velocity=89 time=0
EXTRACT: note_off channel=8 note=61 velocity=0 time=0
EXTRACT: note_off channel=8 note=53 velocity=0 time=0
EXTRACT: note_off channel=8 note=56 velocity=0 time=0
EXTRACT: note_on channel=8 note=60 velocity=89 time=0
EXTRACT: note_on channel=8 note=56 velocity=89 time=0
EXTRACT: note_on channel=8 note=51 velocity=89 time=0
EXTRACT: note_on channel=9 note=36 velocity=89 time=0
EXTRACT: note_off channel=0 note=70 velocity=0 time=0.1875
EXTRACT: note_on channel=0 note=72 velocity=89 time=0
EXTRACT: note_off channel=5 note=70 velocity=0 time=0
EXTRACT: note_on channel=5 note=72 velocity=89 time=0
EXTRACT: note_off channel=6 note=70 velocity=0 time=0
EXTRACT: note_on channel=6 note=72 velocity=89 time=0
EXTRACT: note_off channel=0 note=72 velocity=0 time=0
EXTRACT: note_on channel=0 note=70 velocity=89 time=0
EXTRACT: note_off channel=5 note=72 velocity=0 time=0
EXTRACT: note_on channel=5 note=70 velocity=89 time=0
EXTRACT: note_off channel=6 note=72 velocity=0 time=0
EXTRACT: note_on channel=6 note=70 velocity=89 time=0
EXTRACT: note_off channel=0 note=70 velocity=0 time=0
EXTRACT: note_on channel=0 note=68 velocity=89 time=0
EXTRACT: note_off channel=1 note=51 velocity=0 time=0
EXTRACT: note_off channel=1 note=56 velocity=0 time=0
EXTRACT: note_off channel=1 note=60 velocity=0 time=0
EXTRACT: note_on channel=1 note=51 velocity=89 time=0
EXTRACT: note_on channel=1 note=55 velocity=89 time=0
EXTRACT: note_on channel=1 note=58 velocity=89 time=0
EXTRACT: note_off channel=2 note=32 velocity=0 time=0
EXTRACT: note_off channel=2 note=44 velocity=0 time=0
EXTRACT: note_on channel=2 note=39 velocity=89 time=0
EXTRACT: note_on channel=2 note=27 velocity=89 time=0
EXTRACT: note_off channel=3 note=32 velocity=0 time=0
EXTRACT: note_off channel=3 note=44 velocity=0 time=0
EXTRACT: note_on channel=3 note=39 velocity=89 time=0
EXTRACT: note_on channel=3 note=27 velocity=89 time=0
EXTRACT: note_off channel=4 note=32 velocity=0 time=0
EXTRACT: note_off channel=4 note=44 velocity=0 time=0
EXTRACT: note_on channel=4 note=39 velocity=89 time=0
EXTRACT: note_on channel=4 note=27 velocity=89 time=0
EXTRACT: note_off channel=5 note=70 velocity=0 time=0
EXTRACT: note_on channel=5 note=68 velocity=89 time=0
EXTRACT: note_off channel=6 note=70 velocity=0 time=0
EXTRACT: note_on channel=6 note=68 velocity=89 time=0
EXTRACT: note_off channel=8 note=51 velocity=0 time=0
EXTRACT: note_off channel=8 note=56 velocity=0 time=0
EXTRACT: note_off channel=8 note=60 velocity=0 time=0
EXTRACT: note_on channel=8 note=51 velocity=89 time=0
EXTRACT: note_on channel=8 note=55 velocity=89 time=0
EXTRACT: note_on channel=8 note=58 velocity=89 time=0
EXTRACT: note_off channel=9 note=36 velocity=0 time=0
EXTRACT: note_on channel=9 note=36 velocity=89 time=0
EXTRACT: note_off channel=9 note=36 velocity=0 time=0
EXTRACT: note_on channel=9 note=36 velocity=89 time=0
EXTRACT: note_off channel=0 note=68 velocity=0 time=0
EXTRACT: note_on channel=0 note=68 velocity=89 time=0
EXTRACT: note_off channel=5 note=68 velocity=0 time=0
EXTRACT: note_on channel=5 note=68 velocity=89 time=0
EXTRACT: note_off channel=6 note=68 velocity=0 time=0
EXTRACT: note_on channel=6 note=68 velocity=89 time=0
EXTRACT: note_off channel=0 note=68 velocity=0 time=0
EXTRACT: note_on channel=0 note=75 velocity=89 time=0
EXTRACT: note_off channel=5 note=68 velocity=0 time=0
EXTRACT: note_on channel=5 note=75 velocity=89 time=0
EXTRACT: note_off channel=6 note=68 velocity=0 time=0
EXTRACT: note_on channel=6 note=75 velocity=89 time=0
EXTRACT: note_off channel=0 note=75 velocity=0 time=0
EXTRACT: note_on channel=0 note=70 velocity=89 time=0
EXTRACT: note_off channel=5 note=75 velocity=0 time=0
EXTRACT: note_on channel=5 note=70 velocity=89 time=0
EXTRACT: note_off channel=6 note=75 velocity=0 time=0
EXTRACT: note_on channel=6 note=70 velocity=89 time=0
EXTRACT: note_off channel=9 note=36 velocity=0 time=0
EXTRACT: note_off channel=0 note=70 velocity=0 time=0
EXTRACT: note_on channel=0 note=68 velocity=89 time=0
EXTRACT: note_off channel=5 note=70 velocity=0 time=0
EXTRACT: note_on channel=5 note=68 velocity=89 time=0
EXTRACT: note_off channel=6 note=70 velocity=0 time=0
EXTRACT: note_on channel=6 note=68 velocity=89 time=0
EXTRACT: note_off channel=1 note=58 velocity=0 time=0
EXTRACT: note_off channel=1 note=55 velocity=0 time=0
EXTRACT: note_off channel=1 note=51 velocity=0 time=0
EXTRACT: note_on channel=1 note=60 velocity=89 time=0
EXTRACT: note_on channel=1 note=56 velocity=89 time=0
EXTRACT: note_on channel=1 note=53 velocity=89 time=0
EXTRACT: note_off channel=2 note=27 velocity=0 time=0
EXTRACT: note_off channel=2 note=39 velocity=0 time=0
EXTRACT: note_on channel=2 note=29 velocity=89 time=0
EXTRACT: note_on channel=2 note=41 velocity=89 time=0
EXTRACT: note_off channel=3 note=27 velocity=0 time=0
EXTRACT: note_off channel=3 note=39 velocity=0 time=0
EXTRACT: note_on channel=3 note=29 velocity=89 time=0
EXTRACT: note_on channel=3 note=41 velocity=89 time=0
EXTRACT: note_off channel=4 note=27 velocity=0 time=0
EXTRACT: note_off channel=4 note=39 velocity=0 time=0
EXTRACT: note_on channel=4 note=29 velocity=89 time=0
EXTRACT: note_on channel=4 note=41 velocity=89 time=0
EXTRACT: note_off channel=8 note=58 velocity=0 time=0
EXTRACT: note_off channel=8 note=55 velocity=0 time=0
EXTRACT: note_off channel=8 note=51 velocity=0 time=0
EXTRACT: note_on channel=8 note=60 velocity=89 time=0
EXTRACT: note_on channel=8 note=56 velocity=89 time=0
EXTRACT: note_on channel=8 note=53 velocity=89 time=0
EXTRACT: note_on channel=9 note=36 velocity=89 time=0
EXTRACT: note_off channel=0 note=68 velocity=0 time=0
EXTRACT: note_on channel=0 note=70 velocity=89 time=0
EXTRACT: note_off channel=5 note=68 velocity=0 time=0
EXTRACT: note_on channel=5 note=70 velocity=89 time=0
EXTRACT: note_off channel=6 note=68 velocity=0 time=0
EXTRACT: note_on channel=6 note=70 velocity=89 time=0
EXTRACT: note_off channel=0 note=70 velocity=0 time=0
EXTRACT: note_on channel=0 note=72 velocity=89 time=0
EXTRACT: note_off channel=5 note=70 velocity=0 time=0
EXTRACT: note_on channel=5 note=72 velocity=89 time=0
EXTRACT: note_off channel=6 note=70 velocity=0 time=0
EXTRACT: note_on channel=6 note=72 velocity=89 time=0
EXTRACT: note_off channel=0 note=72 velocity=0 time=0.1875
EXTRACT: note_off channel=5 note=72 velocity=0 time=0
EXTRACT: note_off channel=6 note=72 velocity=0 time=0
EXTRACT: note_on channel=0 note=68 velocity=89 time=0
EXTRACT: note_off channel=1 note=53 velocity=0 time=0
EXTRACT: note_off channel=1 note=56 velocity=0 time=0
EXTRACT: note_off channel=1 note=60 velocity=0 time=0
EXTRACT: note_on channel=1 note=56 velocity=89 time=0
EXTRACT: note_on channel=1 note=53 velocity=89 time=0
EXTRACT: note_on channel=1 note=61 velocity=89 time=0
EXTRACT: note_off channel=2 note=41 velocity=0 time=0
EXTRACT: note_off channel=2 note=29 velocity=0 time=0
EXTRACT: note_on channel=2 note=25 velocity=89 time=0
EXTRACT: note_on channel=2 note=37 velocity=89 time=0
EXTRACT: note_off channel=3 note=41 velocity=0 time=0
EXTRACT: note_off channel=3 note=29 velocity=0 time=0
EXTRACT: note_on channel=3 note=25 velocity=89 time=0
EXTRACT: note_on channel=3 note=37 velocity=89 time=0
EXTRACT: note_off channel=4 note=41 velocity=0 time=0
EXTRACT: note_off channel=4 note=29 velocity=0 time=0
EXTRACT: note_on channel=4 note=25 velocity=89 time=0
EXTRACT: note_on channel=4 note=37 velocity=89 time=0
EXTRACT: note_on channel=5 note=68 velocity=89 time=0
EXTRACT: note_on channel=6 note=68 velocity=89 time=0
EXTRACT: note_off channel=8 note=53 velocity=0 time=0
EXTRACT: note_off channel=8 note=56 velocity=0 time=0
EXTRACT: note_off channel=8 note=60 velocity=0 time=0
EXTRACT: note_on channel=8 note=56 velocity=89 time=0
EXTRACT: note_on channel=8 note=53 velocity=89 time=0
EXTRACT: note_on channel=8 note=61 velocity=89 time=0
EXTRACT: note_off channel=9 note=36 velocity=0 time=0
EXTRACT: note_on channel=9 note=36 velocity=89 time=0
EXTRACT: note_off channel=0 note=68 velocity=0 time=0
EXTRACT: note_on channel=0 note=68 velocity=89 time=0
EXTRACT: note_off channel=5 note=68 velocity=0 time=0
EXTRACT: note_on channel=5 note=68 velocity=89 time=0
EXTRACT: note_off channel=6 note=68 velocity=0 time=0
EXTRACT: note_on channel=6 note=68 velocity=89 time=0
EXTRACT: note_off channel=0 note=68 velocity=0 time=0
EXTRACT: note_on channel=0 note=65 velocity=89 time=0
EXTRACT: note_off channel=5 note=68 velocity=0 time=0
EXTRACT: note_on channel=5 note=65 velocity=89 time=0
EXTRACT: note_off channel=6 note=68 velocity=0 time=0
EXTRACT: note_on channel=6 note=65 velocity=89 time=0
EXTRACT: note_off channel=0 note=65 velocity=0 time=0
EXTRACT: note_on channel=0 note=63 velocity=89 time=0
EXTRACT: note_off channel=5 note=65 velocity=0 time=0
EXTRACT: note_on channel=5 note=63 velocity=89 time=0
EXTRACT: note_off channel=6 note=65 velocity=0 time=0
EXTRACT: note_on channel=6 note=63 velocity=89 time=0
EXTRACT: note_off channel=0 note=63 velocity=0 time=0.1875
EXTRACT: note_off channel=5 note=63 velocity=0 time=0
EXTRACT: note_off channel=6 note=63 velocity=0 time=0
EXTRACT: note_off channel=9 note=36 velocity=0 time=0
EXTRACT: note_on channel=0 note=68 velocity=89 time=0
EXTRACT: note_on channel=5 note=68 velocity=89 time=0
EXTRACT: note_on channel=6 note=68 velocity=89 time=0
EXTRACT: note_off channel=0 note=68 velocity=0 time=0
EXTRACT: note_on channel=0 note=68 velocity=89 time=0
EXTRACT: note_off channel=5 note=68 velocity=0 time=0
EXTRACT: note_on channel=5 note=68 velocity=89 time=0
EXTRACT: note_off channel=6 note=68 velocity=0 time=0
EXTRACT: note_on channel=6 note=68 velocity=89 time=0
EXTRACT: note_off channel=0 note=68 velocity=0 time=0
EXTRACT: note_on channel=0 note=68 velocity=89 time=0
EXTRACT: note_off channel=5 note=68 velocity=0 time=0
EXTRACT: note_on channel=5 note=68 velocity=89 time=0
EXTRACT: note_off channel=6 note=68 velocity=0 time=0
EXTRACT: note_on channel=6 note=68 velocity=89 time=0
EXTRACT: note_off channel=0 note=68 velocity=0 time=0
EXTRACT: note_on channel=0 note=68 velocity=89 time=0
EXTRACT: note_off channel=1 note=61 velocity=0 time=0
EXTRACT: note_off channel=1 note=53 velocity=0 time=0
EXTRACT: note_off channel=1 note=56 velocity=0 time=0
EXTRACT: note_on channel=1 note=60 velocity=89 time=0
EXTRACT: note_on channel=1 note=56 velocity=89 time=0
EXTRACT: note_on channel=1 note=51 velocity=89 time=0
EXTRACT: note_off channel=2 note=37 velocity=0 time=0
EXTRACT: note_off channel=2 note=25 velocity=0 time=0
EXTRACT: note_on channel=2 note=44 velocity=89 time=0
EXTRACT: note_on channel=2 note=32 velocity=89 time=0
EXTRACT: note_off channel=3 note=37 velocity=0 time=0
EXTRACT: note_off channel=3 note=25 velocity=0 time=0
EXTRACT: note_on channel=3 note=44 velocity=89 time=0
EXTRACT: note_on channel=3 note=32 velocity=89 time=0
EXTRACT: note_off channel=4 note=37 velocity=0 time=0
EXTRACT: note_off channel=4 note=25 velocity=0 time=0
EXTRACT: note_on channel=4 note=44 velocity=89 time=0
EXTRACT: note_on channel=4 note=32 velocity=89 time=0
EXTRACT: note_off channel=5 note=68 velocity=0 time=0
EXTRACT: note_on channel=5 note=68 velocity=89 time=0
EXTRACT: note_off channel=6 note=68 velocity=0 time=0
EXTRACT: note_on channel=6 note=68 velocity=89 time=0
EXTRACT: note_off channel=8 note=61 velocity=0 time=0
EXTRACT: note_off channel=8 note=53 velocity=0 time=0
EXTRACT: note_off channel=8 note=56 velocity=0 time=0
EXTRACT: note_on channel=8 note=60 velocity=89 time=0
EXTRACT: note_on channel=8 note=56 velocity=89 time=0
EXTRACT: note_on channel=8 note=51 velocity=89 time=0
EXTRACT: note_on channel=9 note=36 velocity=89 time=0
EXTRACT: note_off channel=0 note=68 velocity=0 time=0
EXTRACT: note_on channel=0 note=67 velocity=89 time=0
EXTRACT: note_off channel=5 note=68 velocity=0 time=0
EXTRACT: note_on channel=5 note=67 velocity=89 time=0
EXTRACT: note_off channel=6 note=68 velocity=0 time=0
EXTRACT: note_on channel=6 note=67 velocity=89 time=0
EXTRACT: note_off channel=0 note=67 velocity=0 time=0
EXTRACT: note_on channel=0 note=65 velocity=89 time=0
EXTRACT: note_off channel=5 note=67 velocity=0 time=0
EXTRACT: note_on channel=5 note=65 velocity=89 time=0
EXTRACT: note_off channel=6 note=67 velocity=0 time=0
EXTRACT: note_on channel=6 note=65 velocity=89 time=0
EXTRACT: note_off channel=0 note=65 velocity=0 time=0
EXTRACT: note_on channel=0 note=63 velocity=89 time=0
EXTRACT: note_off channel=5 note=65 velocity=0 time=0
EXTRACT: note_on channel=5 note=63 velocity=89 time=0
EXTRACT: note_off channel=6 note=65 velocity=0 time=0
EXTRACT: note_on channel=6 note=63 velocity=89 time=0
EXTRACT: note_off channel=0 note=63 velocity=0 time=0
EXTRACT: note_on channel=0 note=63 velocity=89 time=0
EXTRACT: note_off channel=1 note=51 velocity=0 time=0
EXTRACT: note_off channel=1 note=56 velocity=0 time=0
EXTRACT: note_off channel=1 note=60 velocity=0 time=0
EXTRACT: note_on channel=1 note=51 velocity=89 time=0
EXTRACT: note_on channel=1 note=55 velocity=89 time=0
EXTRACT: note_on channel=1 note=58 velocity=89 time=0
EXTRACT: note_off channel=2 note=32 velocity=0 time=0
EXTRACT: note_off channel=2 note=44 velocity=0 time=0
EXTRACT: note_on channel=2 note=39 velocity=89 time=0
EXTRACT: note_on channel=2 note=27 velocity=89 time=0
EXTRACT: note_off channel=3 note=32 velocity=0 time=0
EXTRACT: note_off channel=3 note=44 velocity=0 time=0
EXTRACT: note_on channel=3 note=39 velocity=89 time=0
EXTRACT: note_on channel=3 note=27 velocity=89 time=0
EXTRACT: note_off channel=4 note=32 velocity=0 time=0
EXTRACT: note_off channel=4 note=44 velocity=0 time=0
EXTRACT: note_on channel=4 note=39 velocity=89 time=0
EXTRACT: note_on channel=4 note=27 velocity=89 time=0
EXTRACT: note_off channel=5 note=63 velocity=0 time=0
EXTRACT: note_on channel=5 note=63 velocity=89 time=0
EXTRACT: note_off channel=6 note=63 velocity=0 time=0
EXTRACT: note_on channel=6 note=63 velocity=89 time=0
EXTRACT: note_off channel=8 note=51 velocity=0 time=0
EXTRACT: note_off channel=8 note=56 velocity=0 time=0
EXTRACT: note_off channel=8 note=60 velocity=0 time=0
EXTRACT: note_on channel=8 note=51 velocity=89 time=0
EXTRACT: note_on channel=8 note=55 velocity=89 time=0
EXTRACT: note_on channel=8 note=58 velocity=89 time=0
EXTRACT: note_off channel=9 note=36 velocity=0 time=0
EXTRACT: note_on channel=9 note=36 velocity=89 time=0
EXTRACT: note_off channel=9 note=36 velocity=0 time=0
EXTRACT: note_on channel=9 note=36 velocity=89 time=0
EXTRACT: note_off channel=0 note=63 velocity=0 time=0
EXTRACT: note_on channel=0 note=63 velocity=89 time=0
EXTRACT: note_off channel=5 note=63 velocity=0 time=0
EXTRACT: note_on channel=5 note=63 velocity=89 time=0
EXTRACT: note_off channel=6 note=63 velocity=0 time=0
EXTRACT: note_on channel=6 note=63 velocity=89 time=0
EXTRACT: note_off channel=0 note=63 velocity=0 time=0
EXTRACT: note_on channel=0 note=63 velocity=89 time=0
EXTRACT: note_off channel=5 note=63 velocity=0 time=0
EXTRACT: note_on channel=5 note=63 velocity=89 time=0
EXTRACT: note_off channel=6 note=63 velocity=0 time=0
EXTRACT: note_on channel=6 note=63 velocity=89 time=0
EXTRACT: note_off channel=0 note=63 velocity=0 time=0
EXTRACT: note_on channel=0 note=75 velocity=89 time=0
EXTRACT: note_off channel=5 note=63 velocity=0 time=0
EXTRACT: note_on channel=5 note=75 velocity=89 time=0
EXTRACT: note_off channel=6 note=63 velocity=0 time=0
EXTRACT: note_on channel=6 note=75 velocity=89 time=0
EXTRACT: note_off channel=0 note=75 velocity=0 time=0
EXTRACT: note_on channel=0 note=70 velocity=89 time=0
EXTRACT: note_off channel=5 note=75 velocity=0 time=0
EXTRACT: note_on channel=5 note=70 velocity=89 time=0
EXTRACT: note_off channel=6 note=75 velocity=0 time=0
EXTRACT: note_on channel=6 note=70 velocity=89 time=0
EXTRACT: note_off channel=9 note=36 velocity=0 time=0
EXTRACT: note_off channel=0 note=70 velocity=0 time=0
EXTRACT: note_on channel=0 note=68 velocity=89 time=0
EXTRACT: note_off channel=5 note=70 velocity=0 time=0
EXTRACT: note_on channel=5 note=68 velocity=89 time=0
EXTRACT: note_off channel=6 note=70 velocity=0 time=0
EXTRACT: note_on channel=6 note=68 velocity=89 time=0
EXTRACT: note_off channel=1 note=58 velocity=0 time=0
EXTRACT: note_off channel=1 note=55 velocity=0 time=0
EXTRACT: note_off channel=1 note=51 velocity=0 time=0
EXTRACT: note_on channel=1 note=60 velocity=89 time=0
EXTRACT: note_on channel=1 note=56 velocity=89 time=0
EXTRACT: note_on channel=1 note=53 velocity=89 time=0
EXTRACT: note_off channel=2 note=27 velocity=0 time=0
EXTRACT: note_off channel=2 note=39 velocity=0 time=0
EXTRACT: note_on channel=2 note=29 velocity=89 time=0
EXTRACT: note_on channel=2 note=41 velocity=89 time=0
EXTRACT: note_off channel=3 note=27 velocity=0 time=0
EXTRACT: note_off channel=3 note=39 velocity=0 time=0
EXTRACT: note_on channel=3 note=29 velocity=89 time=0
EXTRACT: note_on channel=3 note=41 velocity=89 time=0
EXTRACT: note_off channel=4 note=27 velocity=0 time=0
EXTRACT: note_off channel=4 note=39 velocity=0 time=0
EXTRACT: note_on channel=4 note=29 velocity=89 time=0
EXTRACT: note_on channel=4 note=41 velocity=89 time=0
EXTRACT: note_off channel=8 note=58 velocity=0 time=0
EXTRACT: note_off channel=8 note=55 velocity=0 time=0
EXTRACT: note_off channel=8 note=51 velocity=0 time=0
EXTRACT: note_on channel=8 note=60 velocity=89 time=0
EXTRACT: note_on channel=8 note=56 velocity=89 time=0
EXTRACT: note_on channel=8 note=53 velocity=89 time=0
EXTRACT: note_on channel=9 note=36 velocity=89 time=0
EXTRACT: note_off channel=0 note=68 velocity=0 time=0
EXTRACT: note_on channel=0 note=70 velocity=89 time=0
EXTRACT: note_off channel=5 note=68 velocity=0 time=0
EXTRACT: note_on channel=5 note=70 velocity=89 time=0
EXTRACT: note_off channel=6 note=68 velocity=0 time=0
EXTRACT: note_on channel=6 note=70 velocity=89 time=0
EXTRACT: note_off channel=0 note=70 velocity=0 time=0
EXTRACT: note_on channel=0 note=72 velocity=89 time=0
EXTRACT: note_off channel=5 note=70 velocity=0 time=0
EXTRACT: note_on channel=5 note=72 velocity=89 time=0
EXTRACT: note_off channel=6 note=70 velocity=0 time=0
EXTRACT: note_on channel=6 note=72 velocity=89 time=0
EXTRACT: note_off channel=0 note=72 velocity=0 time=0.1875
EXTRACT: note_off channel=5 note=72 velocity=0 time=0
EXTRACT: note_off channel=6 note=72 velocity=0 time=0
EXTRACT: note_on channel=0 note=68 velocity=89 time=0
EXTRACT: note_off channel=1 note=53 velocity=0 time=0
EXTRACT: note_off channel=1 note=56 velocity=0 time=0
EXTRACT: note_off channel=1 note=60 velocity=0 time=0
EXTRACT: note_on channel=1 note=56 velocity=89 time=0
EXTRACT: note_on channel=1 note=53 velocity=89 time=0
EXTRACT: note_on channel=1 note=61 velocity=89 time=0
EXTRACT: note_off channel=2 note=41 velocity=0 time=0
EXTRACT: note_off channel=2 note=29 velocity=0 time=0
EXTRACT: note_on channel=2 note=25 velocity=89 time=0
EXTRACT: note_on channel=2 note=37 velocity=89 time=0
EXTRACT: note_off channel=3 note=41 velocity=0 time=0
EXTRACT: note_off channel=3 note=29 velocity=0 time=0
EXTRACT: note_on channel=3 note=25 velocity=89 time=0
EXTRACT: note_on channel=3 note=37 velocity=89 time=0
EXTRACT: note_off channel=4 note=41 velocity=0 time=0
EXTRACT: note_off channel=4 note=29 velocity=0 time=0
EXTRACT: note_on channel=4 note=25 velocity=89 time=0
EXTRACT: note_on channel=4 note=37 velocity=89 time=0
EXTRACT: note_on channel=5 note=68 velocity=89 time=0
EXTRACT: note_on channel=6 note=68 velocity=89 time=0
EXTRACT: note_off channel=8 note=53 velocity=0 time=0
EXTRACT: note_off channel=8 note=56 velocity=0 time=0
EXTRACT: note_off channel=8 note=60 velocity=0 time=0
EXTRACT: note_on channel=8 note=56 velocity=89 time=0
EXTRACT: note_on channel=8 note=53 velocity=89 time=0
EXTRACT: note_on channel=8 note=61 velocity=89 time=0
EXTRACT: note_off channel=9 note=36 velocity=0 time=0
EXTRACT: note_on channel=9 note=36 velocity=89 time=0
EXTRACT: note_off channel=0 note=68 velocity=0 time=0
EXTRACT: note_on channel=0 note=68 velocity=89 time=0
EXTRACT: note_off channel=5 note=68 velocity=0 time=0
EXTRACT: note_on channel=5 note=68 velocity=89 time=0
EXTRACT: note_off channel=6 note=68 velocity=0 time=0
EXTRACT: note_on channel=6 note=68 velocity=89 time=0
EXTRACT: note_off channel=0 note=68 velocity=0 time=0
EXTRACT: note_on channel=0 note=65 velocity=89 time=0
EXTRACT: note_off channel=5 note=68 velocity=0 time=0
EXTRACT: note_on channel=5 note=65 velocity=89 time=0
EXTRACT: note_off channel=6 note=68 velocity=0 time=0
EXTRACT: note_on channel=6 note=65 velocity=89 time=0
EXTRACT: note_off channel=0 note=65 velocity=0 time=0
EXTRACT: note_on channel=0 note=63 velocity=89 time=0
EXTRACT: note_off channel=5 note=65 velocity=0 time=0
EXTRACT: note_on channel=5 note=63 velocity=89 time=0
EXTRACT: note_off channel=6 note=65 velocity=0 time=0
EXTRACT: note_on channel=6 note=63 velocity=89 time=0
EXTRACT: note_off channel=0 note=63 velocity=0 time=0.1875
EXTRACT: note_off channel=5 note=63 velocity=0 time=0
EXTRACT: note_off channel=6 note=63 velocity=0 time=0
EXTRACT: note_off channel=9 note=36 velocity=0 time=0
EXTRACT: note_on channel=0 note=68 velocity=89 time=0
EXTRACT: note_off channel=1 note=61 velocity=0 time=0
EXTRACT: note_off channel=1 note=53 velocity=0 time=0
EXTRACT: note_off channel=1 note=56 velocity=0 time=0
EXTRACT: note_on channel=1 note=60 velocity=89 time=0
EXTRACT: note_on channel=1 note=56 velocity=89 time=0
EXTRACT: note_on channel=1 note=51 velocity=89 time=0
EXTRACT: note_off channel=2 note=37 velocity=0 time=0
EXTRACT: note_off channel=2 note=25 velocity=0 time=0
EXTRACT: note_on channel=2 note=44 velocity=89 time=0
EXTRACT: note_on channel=2 note=32 velocity=89 time=0
EXTRACT: note_off channel=3 note=37 velocity=0 time=0
EXTRACT: note_off channel=3 note=25 velocity=0 time=0
EXTRACT: note_on channel=3 note=44 velocity=89 time=0
EXTRACT: note_on channel=3 note=32 velocity=89 time=0
EXTRACT: note_off channel=4 note=37 velocity=0 time=0
EXTRACT: note_off channel=4 note=25 velocity=0 time=0
EXTRACT: note_on channel=4 note=44 velocity=89 time=0
EXTRACT: note_on channel=4 note=32 velocity=89 time=0
EXTRACT: note_on channel=5 note=68 velocity=89 time=0
EXTRACT: note_on channel=6 note=68 velocity=89 time=0
EXTRACT: note_off channel=8 note=61 velocity=0 time=0
EXTRACT: note_off channel=8 note=53 velocity=0 time=0
EXTRACT: note_off channel=8 note=56 velocity=0 time=0
EXTRACT: note_on channel=8 note=60 velocity=89 time=0
EXTRACT: note_on channel=8 note=56 velocity=89 time=0
EXTRACT: note_on channel=8 note=51 velocity=89 time=0
EXTRACT: note_on channel=9 note=36 velocity=89 time=0
EXTRACT: note_off channel=0 note=68 velocity=0 time=0
EXTRACT: note_on channel=0 note=67 velocity=89 time=0
EXTRACT: note_off channel=5 note=68 velocity=0 time=0
EXTRACT: note_on channel=5 note=67 velocity=89 time=0
EXTRACT: note_off channel=6 note=68 velocity=0 time=0
EXTRACT: note_on channel=6 note=67 velocity=89 time=0
EXTRACT: note_off channel=0 note=67 velocity=0 time=0
EXTRACT: note_on channel=0 note=65 velocity=89 time=0
EXTRACT: note_off channel=5 note=67 velocity=0 time=0
EXTRACT: note_on channel=5 note=65 velocity=89 time=0
EXTRACT: note_off channel=6 note=67 velocity=0 time=0
EXTRACT: note_on channel=6 note=65 velocity=89 time=0
EXTRACT: note_off channel=0 note=65 velocity=0 time=0
EXTRACT: note_on channel=0 note=63 velocity=89 time=0
EXTRACT: note_off channel=5 note=65 velocity=0 time=0
EXTRACT: note_on channel=5 note=63 velocity=89 time=0
EXTRACT: note_off channel=6 note=65 velocity=0 time=0
EXTRACT: note_on channel=6 note=63 velocity=89 time=0
EXTRACT: note_off channel=0 note=63 velocity=0 time=0
EXTRACT: note_on channel=0 note=63 velocity=89 time=0
EXTRACT: note_off channel=1 note=51 velocity=0 time=0
EXTRACT: note_off channel=1 note=56 velocity=0 time=0
EXTRACT: note_off channel=1 note=60 velocity=0 time=0
EXTRACT: note_on channel=1 note=51 velocity=89 time=0
EXTRACT: note_on channel=1 note=55 velocity=89 time=0
EXTRACT: note_on channel=1 note=58 velocity=89 time=0
EXTRACT: note_off channel=2 note=32 velocity=0 time=0
EXTRACT: note_off channel=2 note=44 velocity=0 time=0
EXTRACT: note_on channel=2 note=39 velocity=89 time=0
EXTRACT: note_on channel=2 note=27 velocity=89 time=0
EXTRACT: note_off channel=3 note=32 velocity=0 time=0
EXTRACT: note_off channel=3 note=44 velocity=0 time=0
EXTRACT: note_on channel=3 note=39 velocity=89 time=0
EXTRACT: note_on channel=3 note=27 velocity=89 time=0
EXTRACT: note_off channel=4 note=32 velocity=0 time=0
EXTRACT: note_off channel=4 note=44 velocity=0 time=0
EXTRACT: note_on channel=4 note=39 velocity=89 time=0
EXTRACT: note_on channel=4 note=27 velocity=89 time=0
EXTRACT: note_off channel=5 note=63 velocity=0 time=0
EXTRACT: note_on channel=5 note=63 velocity=89 time=0
EXTRACT: note_off channel=6 note=63 velocity=0 time=0
EXTRACT: note_on channel=6 note=63 velocity=89 time=0
EXTRACT: note_off channel=8 note=51 velocity=0 time=0
EXTRACT: note_off channel=8 note=56 velocity=0 time=0
EXTRACT: note_off channel=8 note=60 velocity=0 time=0
EXTRACT: note_on channel=8 note=51 velocity=89 time=0
EXTRACT: note_on channel=8 note=55 velocity=89 time=0
EXTRACT: note_on channel=8 note=58 velocity=89 time=0
EXTRACT: note_off channel=9 note=36 velocity=0 time=0
EXTRACT: note_on channel=9 note=36 velocity=89 time=0
EXTRACT: note_off channel=9 note=36 velocity=0 time=0
EXTRACT: note_on channel=9 note=36 velocity=89 time=0
EXTRACT: note_off channel=0 note=63 velocity=0 time=0
EXTRACT: note_on channel=0 note=65 velocity=89 time=0
EXTRACT: note_off channel=5 note=63 velocity=0 time=0
EXTRACT: note_on channel=5 note=65 velocity=89 time=0
EXTRACT: note_off channel=6 note=63 velocity=0 time=0
EXTRACT: note_on channel=6 note=65 velocity=89 time=0
EXTRACT: note_off channel=0 note=65 velocity=0 time=0.375
EXTRACT: note_off channel=5 note=65 velocity=0 time=0
EXTRACT: note_off channel=6 note=65 velocity=0 time=0
EXTRACT: note_off channel=9 note=36 velocity=0 time=0.375
EXTRACT: note_on channel=0 note=65 velocity=89 time=0
EXTRACT: note_off channel=1 note=58 velocity=0 time=0
EXTRACT: note_off channel=1 note=55 velocity=0 time=0
EXTRACT: note_off channel=1 note=51 velocity=0 time=0
EXTRACT: note_on channel=1 note=60 velocity=89 time=0
EXTRACT: note_on channel=1 note=56 velocity=89 time=0
EXTRACT: note_on channel=1 note=53 velocity=89 time=0
EXTRACT: note_off channel=2 note=27 velocity=0 time=0
EXTRACT: note_off channel=2 note=39 velocity=0 time=0
EXTRACT: note_on channel=2 note=29 velocity=89 time=0
EXTRACT: note_on channel=2 note=41 velocity=89 time=0
EXTRACT: note_off channel=3 note=27 velocity=0 time=0
EXTRACT: note_off channel=3 note=39 velocity=0 time=0
EXTRACT: note_on channel=3 note=29 velocity=89 time=0
EXTRACT: note_on channel=3 note=41 velocity=89 time=0
EXTRACT: note_off channel=4 note=27 velocity=0 time=0
EXTRACT: note_off channel=4 note=39 velocity=0 time=0
EXTRACT: note_on channel=4 note=29 velocity=89 time=0
EXTRACT: note_on channel=4 note=41 velocity=89 time=0
EXTRACT: note_on channel=5 note=65 velocity=89 time=0
EXTRACT: note_on channel=6 note=65 velocity=89 time=0
EXTRACT: note_off channel=8 note=58 velocity=0 time=0
EXTRACT: note_off channel=8 note=55 velocity=0 time=0
EXTRACT: note_off channel=8 note=51 velocity=0 time=0
EXTRACT: note_on channel=8 note=60 velocity=89 time=0
EXTRACT: note_on channel=8 note=56 velocity=89 time=0
EXTRACT: note_on channel=8 note=53 velocity=89 time=0
EXTRACT: note_on channel=9 note=36 velocity=89 time=0
EXTRACT: note_off channel=0 note=65 velocity=0 time=0
EXTRACT: note_on channel=0 note=65 velocity=89 time=0
EXTRACT: note_off channel=5 note=65 velocity=0 time=0
EXTRACT: note_on channel=5 note=65 velocity=89 time=0
EXTRACT: note_off channel=6 note=65 velocity=0 time=0
EXTRACT: note_on channel=6 note=65 velocity=89 time=0
EXTRACT: note_off channel=0 note=65 velocity=0 time=0
EXTRACT: note_on channel=0 note=68 velocity=89 time=0
EXTRACT: note_off channel=5 note=65 velocity=0 time=0
EXTRACT: note_on channel=5 note=68 velocity=89 time=0
EXTRACT: note_off channel=6 note=65 velocity=0 time=0
EXTRACT: note_on channel=6 note=68 velocity=89 time=0
EXTRACT: note_off channel=0 note=68 velocity=0 time=0
EXTRACT: note_on channel=0 note=68 velocity=89 time=0
EXTRACT: note_off channel=1 note=53 velocity=0 time=0
EXTRACT: note_off channel=1 note=56 velocity=0 time=0
EXTRACT: note_off channel=1 note=60 velocity=0 time=0
EXTRACT: note_on channel=1 note=56 velocity=89 time=0
EXTRACT: note_on channel=1 note=53 velocity=89 time=0
EXTRACT: note_on channel=1 note=61 velocity=89 time=0
EXTRACT: note_off channel=2 note=41 velocity=0 time=0
EXTRACT: note_off channel=2 note=29 velocity=0 time=0
EXTRACT: note_on channel=2 note=25 velocity=89 time=0
EXTRACT: note_on channel=2 note=37 velocity=89 time=0
EXTRACT: note_off channel=3 note=41 velocity=0 time=0
EXTRACT: note_off channel=3 note=29 velocity=0 time=0
EXTRACT: note_on channel=3 note=25 velocity=89 time=0
EXTRACT: note_on channel=3 note=37 velocity=89 time=0
EXTRACT: note_off channel=4 note=41 velocity=0 time=0
EXTRACT: note_off channel=4 note=29 velocity=0 time=0
EXTRACT: note_on channel=4 note=25 velocity=89 time=0
EXTRACT: note_on channel=4 note=37 velocity=89 time=0
EXTRACT: note_off channel=5 note=68 velocity=0 time=0
EXTRACT: note_on channel=5 note=68 velocity=89 time=0
EXTRACT: note_off channel=6 note=68 velocity=0 time=0
EXTRACT: note_on channel=6 note=68 velocity=89 time=0
EXTRACT: note_off channel=8 note=53 velocity=0 time=0
EXTRACT: note_off channel=8 note=56 velocity=0 time=0
EXTRACT: note_off channel=8 note=60 velocity=0 time=0
EXTRACT: note_on channel=8 note=56 velocity=89 time=0
EXTRACT: note_on channel=8 note=53 velocity=89 time=0
EXTRACT: note_on channel=8 note=61 velocity=89 time=0
EXTRACT: note_off channel=9 note=36 velocity=0 time=0
EXTRACT: note_on channel=9 note=36 velocity=89 time=0
EXTRACT: note_off channel=0 note=68 velocity=0 time=0
EXTRACT: note_on channel=0 note=70 velocity=89 time=0
EXTRACT: note_off channel=5 note=68 velocity=0 time=0
EXTRACT: note_on channel=5 note=70 velocity=89 time=0
EXTRACT: note_off channel=6 note=68 velocity=0 time=0
EXTRACT: note_on channel=6 note=70 velocity=89 time=0
EXTRACT: note_off channel=0 note=70 velocity=0 time=0
EXTRACT: note_on channel=0 note=70 velocity=89 time=0
EXTRACT: note_off channel=5 note=70 velocity=0 time=0
EXTRACT: note_on channel=5 note=70 velocity=89 time=0
EXTRACT: note_off channel=6 note=70 velocity=0 time=0
EXTRACT: note_on channel=6 note=70 velocity=89 time=0
EXTRACT: note_off channel=9 note=36 velocity=0 time=0
EXTRACT: note_off channel=0 note=70 velocity=0 time=0.5625
EXTRACT: note_on channel=0 note=72 velocity=89 time=0
EXTRACT: note_off channel=5 note=70 velocity=0 time=0
EXTRACT: note_on channel=5 note=72 velocity=89 time=0
EXTRACT: note_off channel=6 note=70 velocity=0 time=0
EXTRACT: note_on channel=6 note=72 velocity=89 time=0
EXTRACT: note_off channel=0 note=72 velocity=0 time=0
EXTRACT: note_on channel=0 note=70 velocity=89 time=0
EXTRACT: note_off channel=1 note=61 velocity=0 time=0
EXTRACT: note_off channel=1 note=53 velocity=0 time=0
EXTRACT: note_off channel=1 note=56 velocity=0 time=0
EXTRACT: note_on channel=1 note=60 velocity=89 time=0
EXTRACT: note_on channel=1 note=56 velocity=89 time=0
EXTRACT: note_on channel=1 note=51 velocity=89 time=0
EXTRACT: note_off channel=2 note=37 velocity=0 time=0
EXTRACT: note_off channel=2 note=25 velocity=0 time=0
EXTRACT: note_on channel=2 note=44 velocity=89 time=0
EXTRACT: note_on channel=2 note=32 velocity=89 time=0
EXTRACT: note_off channel=3 note=37 velocity=0 time=0
EXTRACT: note_off channel=3 note=25 velocity=0 time=0
EXTRACT: note_on channel=3 note=44 velocity=89 time=0
EXTRACT: note_on channel=3 note=32 velocity=89 time=0
EXTRACT: note_off channel=4 note=37 velocity=0 time=0
EXTRACT: note_off channel=4 note=25 velocity=0 time=0
EXTRACT: note_on channel=4 note=44 velocity=89 time=0
EXTRACT: note_on channel=4 note=32 velocity=89 time=0
EXTRACT: note_off channel=5 note=72 velocity=0 time=0
EXTRACT: note_on channel=5 note=70 velocity=89 time=0
EXTRACT: note_off channel=6 note=72 velocity=0 time=0
EXTRACT: note_on channel=6 note=70 velocity=89 time=0
EXTRACT: note_off channel=8 note=61 velocity=0 time=0
EXTRACT: note_off channel=8 note=53 velocity=0 time=0
EXTRACT: note_off channel=8 note=56 velocity=0 time=0
EXTRACT: note_on channel=8 note=60 velocity=89 time=0
EXTRACT: note_on channel=8 note=56 velocity=89 time=0
EXTRACT: note_on channel=8 note=51 velocity=89 time=0
EXTRACT: note_on channel=9 note=36 velocity=89 time=0
EXTRACT: note_off channel=0 note=70 velocity=0 time=1.125
EXTRACT: note_on channel=0 note=68 velocity=89 time=0
EXTRACT: note_off channel=1 note=51 velocity=0 time=0
EXTRACT: note_off channel=1 note=56 velocity=0 time=0
EXTRACT: note_off channel=1 note=60 velocity=0 time=0
EXTRACT: note_on channel=1 note=51 velocity=89 time=0
EXTRACT: note_on channel=1 note=55 velocity=89 time=0
EXTRACT: note_on channel=1 note=58 velocity=89 time=0
EXTRACT: note_off channel=2 note=32 velocity=0 time=0
EXTRACT: note_off channel=2 note=44 velocity=0 time=0
EXTRACT: note_on channel=2 note=39 velocity=89 time=0
EXTRACT: note_on channel=2 note=27 velocity=89 time=0
EXTRACT: note_off channel=3 note=32 velocity=0 time=0
EXTRACT: note_off channel=3 note=44 velocity=0 time=0
EXTRACT: note_on channel=3 note=39 velocity=89 time=0
EXTRACT: note_on channel=3 note=27 velocity=89 time=0
EXTRACT: note_off channel=4 note=32 velocity=0 time=0
EXTRACT: note_off channel=4 note=44 velocity=0 time=0
EXTRACT: note_on channel=4 note=39 velocity=89 time=0
EXTRACT: note_on channel=4 note=27 velocity=89 time=0
EXTRACT: note_off channel=5 note=70 velocity=0 time=0
EXTRACT: note_on channel=5 note=68 velocity=89 time=0
EXTRACT: note_off channel=6 note=70 velocity=0 time=0
EXTRACT: note_on channel=6 note=68 velocity=89 time=0
EXTRACT: note_off channel=8 note=51 velocity=0 time=0
EXTRACT: note_off channel=8 note=56 velocity=0 time=0
EXTRACT: note_off channel=8 note=60 velocity=0 time=0
EXTRACT: note_on channel=8 note=51 velocity=89 time=0
EXTRACT: note_on channel=8 note=55 velocity=89 time=0
EXTRACT: note_on channel=8 note=58 velocity=89 time=0
EXTRACT: note_off channel=9 note=36 velocity=0 time=0
EXTRACT: note_on channel=9 note=36 velocity=89 time=0
EXTRACT: note_off channel=9 note=36 velocity=0 time=0
EXTRACT: note_on channel=9 note=36 velocity=89 time=0
EXTRACT: note_off channel=0 note=68 velocity=0 time=0
EXTRACT: note_on channel=0 note=65 velocity=89 time=0
EXTRACT: note_off channel=5 note=68 velocity=0 time=0
EXTRACT: note_on channel=5 note=65 velocity=89 time=0
EXTRACT: note_off channel=6 note=68 velocity=0 time=0
EXTRACT: note_on channel=6 note=65 velocity=89 time=0
EXTRACT: note_off channel=0 note=65 velocity=0 time=0.375
EXTRACT: note_off channel=5 note=65 velocity=0 time=0
EXTRACT: note_off channel=6 note=65 velocity=0 time=0
EXTRACT: note_on channel=0 note=65 velocity=89 time=0
EXTRACT: note_on channel=5 note=65 velocity=89 time=0
EXTRACT: note_on channel=6 note=65 velocity=89 time=0
EXTRACT: note_off channel=9 note=36 velocity=0 time=0
EXTRACT: note_off channel=0 note=65 velocity=0 time=0
EXTRACT: note_on channel=0 note=65 velocity=89 time=0
EXTRACT: note_off channel=1 note=58 velocity=0 time=0
EXTRACT: note_off channel=1 note=55 velocity=0 time=0
EXTRACT: note_off channel=1 note=51 velocity=0 time=0
EXTRACT: note_on channel=1 note=60 velocity=89 time=0
EXTRACT: note_on channel=1 note=56 velocity=89 time=0
EXTRACT: note_on channel=1 note=53 velocity=89 time=0
EXTRACT: note_off channel=2 note=27 velocity=0 time=0
EXTRACT: note_off channel=2 note=39 velocity=0 time=0
EXTRACT: note_on channel=2 note=29 velocity=89 time=0
EXTRACT: note_on channel=2 note=41 velocity=89 time=0
EXTRACT: note_off channel=3 note=27 velocity=0 time=0
EXTRACT: note_off channel=3 note=39 velocity=0 time=0
EXTRACT: note_on channel=3 note=29 velocity=89 time=0
EXTRACT: note_on channel=3 note=41 velocity=89 time=0
EXTRACT: note_off channel=4 note=27 velocity=0 time=0
EXTRACT: note_off channel=4 note=39 velocity=0 time=0
EXTRACT: note_on channel=4 note=29 velocity=89 time=0
EXTRACT: note_on channel=4 note=41 velocity=89 time=0
EXTRACT: note_off channel=5 note=65 velocity=0 time=0
EXTRACT: note_on channel=5 note=65 velocity=89 time=0
EXTRACT: note_off channel=6 note=65 velocity=0 time=0
EXTRACT: note_on channel=6 note=65 velocity=89 time=0
EXTRACT: note_off channel=8 note=58 velocity=0 time=0
EXTRACT: note_off channel=8 note=55 velocity=0 time=0
EXTRACT: note_off channel=8 note=51 velocity=0 time=0
EXTRACT: note_on channel=8 note=60 velocity=89 time=0
EXTRACT: note_on channel=8 note=56 velocity=89 time=0
EXTRACT: note_on channel=8 note=53 velocity=89 time=0
EXTRACT: note_on channel=9 note=36 velocity=89 time=0
EXTRACT: note_off channel=0 note=65 velocity=0 time=0
EXTRACT: note_on channel=0 note=65 velocity=89 time=0
EXTRACT: note_off channel=5 note=65 velocity=0 time=0
EXTRACT: note_on channel=5 note=65 velocity=89 time=0
EXTRACT: note_off channel=6 note=65 velocity=0 time=0
EXTRACT: note_on channel=6 note=65 velocity=89 time=0
EXTRACT: note_off channel=0 note=65 velocity=0 time=0
EXTRACT: note_on channel=0 note=68 velocity=89 time=0
EXTRACT: note_off channel=5 note=65 velocity=0 time=0
EXTRACT: note_on channel=5 note=68 velocity=89 time=0
EXTRACT: note_off channel=6 note=65 velocity=0 time=0
EXTRACT: note_on channel=6 note=68 velocity=89 time=0
EXTRACT: note_off channel=0 note=68 velocity=0 time=0
EXTRACT: note_on channel=0 note=68 velocity=89 time=0
EXTRACT: note_off channel=1 note=53 velocity=0 time=0
EXTRACT: note_off channel=1 note=56 velocity=0 time=0
EXTRACT: note_off channel=1 note=60 velocity=0 time=0
EXTRACT: note_on channel=1 note=56 velocity=89 time=0
EXTRACT: note_on channel=1 note=53 velocity=89 time=0
EXTRACT: note_on channel=1 note=61 velocity=89 time=0
EXTRACT: note_off channel=2 note=41 velocity=0 time=0
EXTRACT: note_off channel=2 note=29 velocity=0 time=0
EXTRACT: note_on channel=2 note=25 velocity=89 time=0
EXTRACT: note_on channel=2 note=37 velocity=89 time=0
EXTRACT: note_off channel=3 note=41 velocity=0 time=0
EXTRACT: note_off channel=3 note=29 velocity=0 time=0
EXTRACT: note_on channel=3 note=25 velocity=89 time=0
EXTRACT: note_on channel=3 note=37 velocity=89 time=0
EXTRACT: note_off channel=4 note=41 velocity=0 time=0
EXTRACT: note_off channel=4 note=29 velocity=0 time=0
EXTRACT: note_on channel=4 note=25 velocity=89 time=0
EXTRACT: note_on channel=4 note=37 velocity=89 time=0
EXTRACT: note_off channel=5 note=68 velocity=0 time=0
EXTRACT: note_on channel=5 note=68 velocity=89 time=0
EXTRACT: note_off channel=6 note=68 velocity=0 time=0
EXTRACT: note_on channel=6 note=68 velocity=89 time=0
EXTRACT: note_off channel=8 note=53 velocity=0 time=0
EXTRACT: note_off channel=8 note=56 velocity=0 time=0
EXTRACT: note_off channel=8 note=60 velocity=0 time=0
EXTRACT: note_on channel=8 note=56 velocity=89 time=0
EXTRACT: note_on channel=8 note=53 velocity=89 time=0
EXTRACT: note_on channel=8 note=61 velocity=89 time=0
EXTRACT: note_off channel=9 note=36 velocity=0 time=0
EXTRACT: note_on channel=9 note=36 velocity=89 time=0
EXTRACT: note_off channel=0 note=68 velocity=0 time=0
EXTRACT: note_on channel=0 note=70 velocity=89 time=0
EXTRACT: note_off channel=5 note=68 velocity=0 time=0
EXTRACT: note_on channel=5 note=70 velocity=89 time=0
EXTRACT: note_off channel=6 note=68 velocity=0 time=0
EXTRACT: note_on channel=6 note=70 velocity=89 time=0
EXTRACT: note_off channel=0 note=70 velocity=0 time=0
EXTRACT: note_on channel=0 note=70 velocity=89 time=0
EXTRACT: note_off channel=5 note=70 velocity=0 time=0
EXTRACT: note_on channel=5 note=70 velocity=89 time=0
EXTRACT: note_off channel=6 note=70 velocity=0 time=0
EXTRACT: note_on channel=6 note=70 velocity=89 time=0
EXTRACT: note_off channel=0 note=70 velocity=0 time=0
EXTRACT: note_on channel=0 note=70 velocity=89 time=0
EXTRACT: note_off channel=5 note=70 velocity=0 time=0
EXTRACT: note_on channel=5 note=70 velocity=89 time=0
EXTRACT: note_off channel=6 note=70 velocity=0 time=0
EXTRACT: note_on channel=6 note=70 velocity=89 time=0
EXTRACT: note_off channel=9 note=36 velocity=0 time=0
EXTRACT: note_off channel=1 note=61 velocity=0 time=0
EXTRACT: note_off channel=1 note=53 velocity=0 time=0
EXTRACT: note_off channel=1 note=56 velocity=0 time=0
EXTRACT: note_on channel=1 note=60 velocity=89 time=0
EXTRACT: note_on channel=1 note=56 velocity=89 time=0
EXTRACT: note_on channel=1 note=51 velocity=89 time=0
EXTRACT: note_off channel=2 note=37 velocity=0 time=0
EXTRACT: note_off channel=2 note=25 velocity=0 time=0
EXTRACT: note_on channel=2 note=44 velocity=89 time=0
EXTRACT: note_on channel=2 note=32 velocity=89 time=0
EXTRACT: note_off channel=3 note=37 velocity=0 time=0
EXTRACT: note_off channel=3 note=25 velocity=0 time=0
EXTRACT: note_on channel=3 note=44 velocity=89 time=0
EXTRACT: note_on channel=3 note=32 velocity=89 time=0
EXTRACT: note_off channel=4 note=37 velocity=0 time=0
EXTRACT: note_off channel=4 note=25 velocity=0 time=0
EXTRACT: note_on channel=4 note=44 velocity=89 time=0
EXTRACT: note_on channel=4 note=32 velocity=89 time=0
EXTRACT: note_off channel=8 note=61 velocity=0 time=0
EXTRACT: note_off channel=8 note=53 velocity=0 time=0
EXTRACT: note_off channel=8 note=56 velocity=0 time=0
EXTRACT: note_on channel=8 note=60 velocity=89 time=0
EXTRACT: note_on channel=8 note=56 velocity=89 time=0
EXTRACT: note_on channel=8 note=51 velocity=89 time=0
EXTRACT: note_on channel=9 note=36 velocity=89 time=0
EXTRACT: note_off channel=0 note=70 velocity=0 time=0
EXTRACT: note_on channel=0 note=72 velocity=89 time=0
EXTRACT: note_off channel=5 note=70 velocity=0 time=0
EXTRACT: note_on channel=5 note=72 velocity=89 time=0
EXTRACT: note_off channel=6 note=70 velocity=0 time=0
EXTRACT: note_on channel=6 note=72 velocity=89 time=0
EXTRACT: note_off channel=0 note=72 velocity=0 time=0.1875
EXTRACT: note_on channel=0 note=70 velocity=89 time=0
EXTRACT: note_off channel=5 note=72 velocity=0 time=0
EXTRACT: note_on channel=5 note=70 velocity=89 time=0
EXTRACT: note_off channel=6 note=72 velocity=0 time=0
EXTRACT: note_on channel=6 note=70 velocity=89 time=0
EXTRACT: note_off channel=0 note=70 velocity=0 time=0
EXTRACT: note_on channel=0 note=68 velocity=89 time=0
EXTRACT: note_off channel=1 note=51 velocity=0 time=0
EXTRACT: note_off channel=1 note=56 velocity=0 time=0
EXTRACT: note_off channel=1 note=60 velocity=0 time=0
EXTRACT: note_on channel=1 note=51 velocity=89 time=0
EXTRACT: note_on channel=1 note=55 velocity=89 time=0
EXTRACT: note_on channel=1 note=58 velocity=89 time=0
EXTRACT: note_off channel=2 note=32 velocity=0 time=0
EXTRACT: note_off channel=2 note=44 velocity=0 time=0
EXTRACT: note_on channel=2 note=39 velocity=89 time=0
EXTRACT: note_on channel=2 note=27 velocity=89 time=0
EXTRACT: note_off channel=3 note=32 velocity=0 time=0
EXTRACT: note_off channel=3 note=44 velocity=0 time=0
EXTRACT: note_on channel=3 note=39 velocity=89 time=0
EXTRACT: note_on channel=3 note=27 velocity=89 time=0
EXTRACT: note_off channel=4 note=32 velocity=0 time=0
EXTRACT: note_off channel=4 note=44 velocity=0 time=0
EXTRACT: note_on channel=4 note=39 velocity=89 time=0
EXTRACT: note_on channel=4 note=27 velocity=89 time=0
EXTRACT: note_off channel=5 note=70 velocity=0 time=0
EXTRACT: note_on channel=5 note=68 velocity=89 time=0
EXTRACT: note_off channel=6 note=70 velocity=0 time=0
EXTRACT: note_on channel=6 note=68 velocity=89 time=0
EXTRACT: note_off channel=8 note=51 velocity=0 time=0
EXTRACT: note_off channel=8 note=56 velocity=0 time=0
EXTRACT: note_off channel=8 note=60 velocity=0 time=0
EXTRACT: note_on channel=8 note=51 velocity=89 time=0
EXTRACT: note_on channel=8 note=55 velocity=89 time=0
EXTRACT: note_on channel=8 note=58 velocity=89 time=0
EXTRACT: note_off channel=9 note=36 velocity=0 time=0
EXTRACT: note_on channel=9 note=36 velocity=89 time=0
EXTRACT: note_off channel=9 note=36 velocity=0 time=0
EXTRACT: note_on channel=9 note=36 velocity=89 time=0
EXTRACT: note_off channel=0 note=68 velocity=0 time=0
EXTRACT: note_on channel=0 note=68 velocity=89 time=0
EXTRACT: note_off channel=5 note=68 velocity=0 time=0
EXTRACT: note_on channel=5 note=68 velocity=89 time=0
EXTRACT: note_off channel=6 note=68 velocity=0 time=0
EXTRACT: note_on channel=6 note=68 velocity=89 time=0
EXTRACT: note_off channel=0 note=68 velocity=0 time=0
EXTRACT: note_on channel=0 note=75 velocity=89 time=0
EXTRACT: note_off channel=5 note=68 velocity=0 time=0
EXTRACT: note_on channel=5 note=75 velocity=89 time=0
EXTRACT: note_off channel=6 note=68 velocity=0 time=0
EXTRACT: note_on channel=6 note=75 velocity=89 time=0
EXTRACT: note_off channel=0 note=75 velocity=0 time=0
EXTRACT: note_on channel=0 note=70 velocity=89 time=0
EXTRACT: note_off channel=5 note=75 velocity=0 time=0
EXTRACT: note_on channel=5 note=70 velocity=89 time=0
EXTRACT: note_off channel=6 note=75 velocity=0 time=0
EXTRACT: note_on channel=6 note=70 velocity=89 time=0
EXTRACT: note_off channel=9 note=36 velocity=0 time=0
EXTRACT: note_off channel=0 note=70 velocity=0 time=0.1875
EXTRACT: note_on channel=0 note=68 velocity=89 time=0
EXTRACT: note_off channel=5 note=70 velocity=0 time=0
EXTRACT: note_on channel=5 note=68 velocity=89 time=0
EXTRACT: note_off channel=6 note=70 velocity=0 time=0
EXTRACT: note_on channel=6 note=68 velocity=89 time=0
EXTRACT: note_off channel=1 note=58 velocity=0 time=0
EXTRACT: note_off channel=1 note=55 velocity=0 time=0
EXTRACT: note_off channel=1 note=51 velocity=0 time=0
EXTRACT: note_on channel=1 note=60 velocity=89 time=0
EXTRACT: note_on channel=1 note=56 velocity=89 time=0
EXTRACT: note_on channel=1 note=53 velocity=89 time=0
EXTRACT: note_off channel=2 note=27 velocity=0 time=0
EXTRACT: note_off channel=2 note=39 velocity=0 time=0
EXTRACT: note_on channel=2 note=29 velocity=89 time=0
EXTRACT: note_on channel=2 note=41 velocity=89 time=0
EXTRACT: note_off channel=3 note=27 velocity=0 time=0
EXTRACT: note_off channel=3 note=39 velocity=0 time=0
EXTRACT: note_on channel=3 note=29 velocity=89 time=0
EXTRACT: note_on channel=3 note=41 velocity=89 time=0
EXTRACT: note_off channel=4 note=27 velocity=0 time=0
EXTRACT: note_off channel=4 note=39 velocity=0 time=0
EXTRACT: note_on channel=4 note=29 velocity=89 time=0
EXTRACT: note_on channel=4 note=41 velocity=89 time=0
EXTRACT: note_off channel=8 note=58 velocity=0 time=0
EXTRACT: note_off channel=8 note=55 velocity=0 time=0
EXTRACT: note_off channel=8 note=51 velocity=0 time=0
EXTRACT: note_on channel=8 note=60 velocity=89 time=0
EXTRACT: note_on channel=8 note=56 velocity=89 time=0
EXTRACT: note_on channel=8 note=53 velocity=89 time=0
EXTRACT: note_on channel=9 note=36 velocity=89 time=0
EXTRACT: note_off channel=0 note=68 velocity=0 time=0
EXTRACT: note_on channel=0 note=70 velocity=89 time=0
EXTRACT: note_off channel=5 note=68 velocity=0 time=0
EXTRACT: note_on channel=5 note=70 velocity=89 time=0
EXTRACT: note_off channel=6 note=68 velocity=0 time=0
EXTRACT: note_on channel=6 note=70 velocity=89 time=0
EXTRACT: note_off channel=0 note=70 velocity=0 time=0
EXTRACT: note_on channel=0 note=72 velocity=89 time=0
EXTRACT: note_off channel=5 note=70 velocity=0 time=0
EXTRACT: note_on channel=5 note=72 velocity=89 time=0
EXTRACT: note_off channel=6 note=70 velocity=0 time=0
EXTRACT: note_on channel=6 note=72 velocity=89 time=0
EXTRACT: note_off channel=0 note=72 velocity=0 time=0.1875
EXTRACT: note_off channel=5 note=72 velocity=0 time=0
EXTRACT: note_off channel=6 note=72 velocity=0 time=0
EXTRACT: note_on channel=0 note=68 velocity=89 time=0
EXTRACT: note_off channel=1 note=53 velocity=0 time=0
EXTRACT: note_off channel=1 note=56 velocity=0 time=0
EXTRACT: note_off channel=1 note=60 velocity=0 time=0
EXTRACT: note_on channel=1 note=56 velocity=89 time=0
EXTRACT: note_on channel=1 note=53 velocity=89 time=0
EXTRACT: note_on channel=1 note=61 velocity=89 time=0
EXTRACT: note_off channel=2 note=41 velocity=0 time=0
EXTRACT: note_off channel=2 note=29 velocity=0 time=0
EXTRACT: note_on channel=2 note=25 velocity=89 time=0
EXTRACT: note_on channel=2 note=37 velocity=89 time=0
EXTRACT: note_off channel=3 note=41 velocity=0 time=0
EXTRACT: note_off channel=3 note=29 velocity=0 time=0
EXTRACT: note_on channel=3 note=25 velocity=89 time=0
EXTRACT: note_on channel=3 note=37 velocity=89 time=0
EXTRACT: note_off channel=4 note=41 velocity=0 time=0
EXTRACT: note_off channel=4 note=29 velocity=0 time=0
EXTRACT: note_on channel=4 note=25 velocity=89 time=0
EXTRACT: note_on channel=4 note=37 velocity=89 time=0
EXTRACT: note_on channel=5 note=68 velocity=89 time=0
EXTRACT: note_on channel=6 note=68 velocity=89 time=0
EXTRACT: note_off channel=8 note=53 velocity=0 time=0
EXTRACT: note_off channel=8 note=56 velocity=0 time=0
EXTRACT: note_off channel=8 note=60 velocity=0 time=0
EXTRACT: note_on channel=8 note=56 velocity=89 time=0
EXTRACT: note_on channel=8 note=53 velocity=89 time=0
EXTRACT: note_on channel=8 note=61 velocity=89 time=0
EXTRACT: note_off channel=9 note=36 velocity=0 time=0
EXTRACT: note_on channel=9 note=36 velocity=89 time=0
EXTRACT: note_off channel=0 note=68 velocity=0 time=0
EXTRACT: note_on channel=0 note=68 velocity=89 time=0
EXTRACT: note_off channel=5 note=68 velocity=0 time=0
EXTRACT: note_on channel=5 note=68 velocity=89 time=0
EXTRACT: note_off channel=6 note=68 velocity=0 time=0
EXTRACT: note_on channel=6 note=68 velocity=89 time=0
EXTRACT: note_off channel=0 note=68 velocity=0 time=0
EXTRACT: note_on channel=0 note=65 velocity=89 time=0
EXTRACT: note_off channel=5 note=68 velocity=0 time=0
EXTRACT: note_on channel=5 note=65 velocity=89 time=0
EXTRACT: note_off channel=6 note=68 velocity=0 time=0
EXTRACT: note_on channel=6 note=65 velocity=89 time=0
EXTRACT: note_off channel=0 note=65 velocity=0 time=0
EXTRACT: note_on channel=0 note=63 velocity=89 time=0
EXTRACT: note_off channel=5 note=65 velocity=0 time=0
EXTRACT: note_on channel=5 note=63 velocity=89 time=0
EXTRACT: note_off channel=6 note=65 velocity=0 time=0
EXTRACT: note_on channel=6 note=63 velocity=89 time=0
EXTRACT: note_off channel=0 note=63 velocity=0 time=0.1875
EXTRACT: note_off channel=5 note=63 velocity=0 time=0
EXTRACT: note_off channel=6 note=63 velocity=0 time=0
EXTRACT: note_off channel=9 note=36 velocity=0 time=0
EXTRACT: note_on channel=0 note=68 velocity=89 time=0
EXTRACT: note_on channel=5 note=68 velocity=89 time=0
EXTRACT: note_on channel=6 note=68 velocity=89 time=0
EXTRACT: note_off channel=0 note=68 velocity=0 time=0
EXTRACT: note_on channel=0 note=68 velocity=89 time=0
EXTRACT: note_off channel=1 note=61 velocity=0 time=0
EXTRACT: note_off channel=1 note=53 velocity=0 time=0
EXTRACT: note_off channel=1 note=56 velocity=0 time=0
EXTRACT: note_on channel=1 note=60 velocity=89 time=0
EXTRACT: note_on channel=1 note=56 velocity=89 time=0
EXTRACT: note_on channel=1 note=51 velocity=89 time=0
EXTRACT: note_off channel=2 note=37 velocity=0 time=0
EXTRACT: note_off channel=2 note=25 velocity=0 time=0
EXTRACT: note_on channel=2 note=44 velocity=89 time=0
EXTRACT: note_on channel=2 note=32 velocity=89 time=0
EXTRACT: note_off channel=3 note=37 velocity=0 time=0
EXTRACT: note_off channel=3 note=25 velocity=0 time=0
EXTRACT: note_on channel=3 note=44 velocity=89 time=0
EXTRACT: note_on channel=3 note=32 velocity=89 time=0
EXTRACT: note_off channel=4 note=37 velocity=0 time=0
EXTRACT: note_off channel=4 note=25 velocity=0 time=0
EXTRACT: note_on channel=4 note=44 velocity=89 time=0
EXTRACT: note_on channel=4 note=32 velocity=89 time=0
EXTRACT: note_off channel=5 note=68 velocity=0 time=0
EXTRACT: note_on channel=5 note=68 velocity=89 time=0
EXTRACT: note_off channel=6 note=68 velocity=0 time=0
EXTRACT: note_on channel=6 note=68 velocity=89 time=0
EXTRACT: note_off channel=8 note=61 velocity=0 time=0
EXTRACT: note_off channel=8 note=53 velocity=0 time=0
EXTRACT: note_off channel=8 note=56 velocity=0 time=0
EXTRACT: note_on channel=8 note=60 velocity=89 time=0
EXTRACT: note_on channel=8 note=56 velocity=89 time=0
EXTRACT: note_on channel=8 note=51 velocity=89 time=0
EXTRACT: note_on channel=9 note=36 velocity=89 time=0
EXTRACT: note_off channel=0 note=68 velocity=0 time=0
EXTRACT: note_on channel=0 note=67 velocity=89 time=0
EXTRACT: note_off channel=5 note=68 velocity=0 time=0
EXTRACT: note_on channel=5 note=67 velocity=89 time=0
EXTRACT: note_off channel=6 note=68 velocity=0 time=0
EXTRACT: note_on channel=6 note=67 velocity=89 time=0
EXTRACT: note_off channel=0 note=67 velocity=0 time=0
EXTRACT: note_on channel=0 note=65 velocity=89 time=0
EXTRACT: note_off channel=5 note=67 velocity=0 time=0
EXTRACT: note_on channel=5 note=65 velocity=89 time=0
EXTRACT: note_off channel=6 note=67 velocity=0 time=0
EXTRACT: note_on channel=6 note=65 velocity=89 time=0
EXTRACT: note_off channel=0 note=65 velocity=0 time=0
EXTRACT: note_on channel=0 note=63 velocity=89 time=0
EXTRACT: note_off channel=5 note=65 velocity=0 time=0
EXTRACT: note_on channel=5 note=63 velocity=89 time=0
EXTRACT: note_off channel=6 note=65 velocity=0 time=0
EXTRACT: note_on channel=6 note=63 velocity=89 time=0
EXTRACT: note_off channel=0 note=63 velocity=0 time=0
EXTRACT: note_on channel=0 note=63 velocity=89 time=0
EXTRACT: note_off channel=1 note=51 velocity=0 time=0
EXTRACT: note_off channel=1 note=56 velocity=0 time=0
EXTRACT: note_off channel=1 note=60 velocity=0 time=0
EXTRACT: note_on channel=1 note=51 velocity=89 time=0
EXTRACT: note_on channel=1 note=55 velocity=89 time=0
EXTRACT: note_on channel=1 note=58 velocity=89 time=0
EXTRACT: note_off channel=2 note=32 velocity=0 time=0
EXTRACT: note_off channel=2 note=44 velocity=0 time=0
EXTRACT: note_on channel=2 note=39 velocity=89 time=0
EXTRACT: note_on channel=2 note=27 velocity=89 time=0
EXTRACT: note_off channel=3 note=32 velocity=0 time=0
EXTRACT: note_off channel=3 note=44 velocity=0 time=0
EXTRACT: note_on channel=3 note=39 velocity=89 time=0
EXTRACT: note_on channel=3 note=27 velocity=89 time=0
EXTRACT: note_off channel=4 note=32 velocity=0 time=0
EXTRACT: note_off channel=4 note=44 velocity=0 time=0
EXTRACT: note_on channel=4 note=39 velocity=89 time=0
EXTRACT: note_on channel=4 note=27 velocity=89 time=0
EXTRACT: note_off channel=5 note=63 velocity=0 time=0
EXTRACT: note_on channel=5 note=63 velocity=89 time=0
EXTRACT: note_off channel=6 note=63 velocity=0 time=0
EXTRACT: note_on channel=6 note=63 velocity=89 time=0
EXTRACT: note_off channel=8 note=51 velocity=0 time=0
EXTRACT: note_off channel=8 note=56 velocity=0 time=0
EXTRACT: note_off channel=8 note=60 velocity=0 time=0
EXTRACT: note_on channel=8 note=51 velocity=89 time=0
EXTRACT: note_on channel=8 note=55 velocity=89 time=0
EXTRACT: note_on channel=8 note=58 velocity=89 time=0
EXTRACT: note_off channel=9 note=36 velocity=0 time=0
EXTRACT: note_on channel=9 note=36 velocity=89 time=0
EXTRACT: note_off channel=9 note=36 velocity=0 time=0
EXTRACT: note_on channel=9 note=36 velocity=89 time=0
EXTRACT: note_off channel=0 note=63 velocity=0 time=0
EXTRACT: note_on channel=0 note=63 velocity=89 time=0
EXTRACT: note_off channel=5 note=63 velocity=0 time=0
EXTRACT: note_on channel=5 note=63 velocity=89 time=0
EXTRACT: note_off channel=6 note=63 velocity=0 time=0
EXTRACT: note_on channel=6 note=63 velocity=89 time=0
EXTRACT: note_off channel=0 note=63 velocity=0 time=0
EXTRACT: note_on channel=0 note=63 velocity=89 time=0
EXTRACT: note_off channel=5 note=63 velocity=0 time=0
EXTRACT: note_on channel=5 note=63 velocity=89 time=0
EXTRACT: note_off channel=6 note=63 velocity=0 time=0
EXTRACT: note_on channel=6 note=63 velocity=89 time=0
EXTRACT: note_off channel=0 note=63 velocity=0 time=0
EXTRACT: note_on channel=0 note=75 velocity=89 time=0
EXTRACT: note_off channel=5 note=63 velocity=0 time=0
EXTRACT: note_on channel=5 note=75 velocity=89 time=0
EXTRACT: note_off channel=6 note=63 velocity=0 time=0
EXTRACT: note_on channel=6 note=75 velocity=89 time=0
EXTRACT: note_off channel=0 note=75 velocity=0 time=0
EXTRACT: note_on channel=0 note=70 velocity=89 time=0
EXTRACT: note_off channel=5 note=75 velocity=0 time=0
EXTRACT: note_on channel=5 note=70 velocity=89 time=0
EXTRACT: note_off channel=6 note=75 velocity=0 time=0
EXTRACT: note_on channel=6 note=70 velocity=89 time=0
EXTRACT: note_off channel=9 note=36 velocity=0 time=0
EXTRACT: note_off channel=0 note=70 velocity=0 time=0
EXTRACT: note_on channel=0 note=68 velocity=89 time=0
EXTRACT: note_off channel=5 note=70 velocity=0 time=0
EXTRACT: note_on channel=5 note=68 velocity=89 time=0
EXTRACT: note_off channel=6 note=70 velocity=0 time=0
EXTRACT: note_on channel=6 note=68 velocity=89 time=0
EXTRACT: note_off channel=0 note=68 velocity=0 time=0.1875
EXTRACT: note_on channel=0 note=68 velocity=89 time=0
EXTRACT: note_off channel=1 note=58 velocity=0 time=0
EXTRACT: note_off channel=1 note=55 velocity=0 time=0
EXTRACT: note_off channel=1 note=51 velocity=0 time=0
EXTRACT: note_on channel=1 note=60 velocity=89 time=0
EXTRACT: note_on channel=1 note=56 velocity=89 time=0
EXTRACT: note_on channel=1 note=53 velocity=89 time=0
EXTRACT: note_off channel=2 note=27 velocity=0 time=0
EXTRACT: note_off channel=2 note=39 velocity=0 time=0
EXTRACT: note_on channel=2 note=29 velocity=89 time=0
EXTRACT: note_on channel=2 note=41 velocity=89 time=0
EXTRACT: note_off channel=3 note=27 velocity=0 time=0
EXTRACT: note_off channel=3 note=39 velocity=0 time=0
EXTRACT: note_on channel=3 note=29 velocity=89 time=0
EXTRACT: note_on channel=3 note=41 velocity=89 time=0
EXTRACT: note_off channel=4 note=27 velocity=0 time=0
EXTRACT: note_off channel=4 note=39 velocity=0 time=0
EXTRACT: note_on channel=4 note=29 velocity=89 time=0
EXTRACT: note_on channel=4 note=41 velocity=89 time=0
EXTRACT: note_off channel=5 note=68 velocity=0 time=0
EXTRACT: note_on channel=5 note=68 velocity=89 time=0
EXTRACT: note_off channel=6 note=68 velocity=0 time=0
EXTRACT: note_on channel=6 note=68 velocity=89 time=0
EXTRACT: note_off channel=8 note=58 velocity=0 time=0
EXTRACT: note_off channel=8 note=55 velocity=0 time=0
EXTRACT: note_off channel=8 note=51 velocity=0 time=0
EXTRACT: note_on channel=8 note=60 velocity=89 time=0
EXTRACT: note_on channel=8 note=56 velocity=89 time=0
EXTRACT: note_on channel=8 note=53 velocity=89 time=0
EXTRACT: note_on channel=9 note=36 velocity=89 time=0
EXTRACT: note_off channel=0 note=68 velocity=0 time=0.375
EXTRACT: note_on channel=0 note=70 velocity=89 time=0
EXTRACT: note_off channel=5 note=68 velocity=0 time=0
EXTRACT: note_on channel=5 note=70 velocity=89 time=0
EXTRACT: note_off channel=6 note=68 velocity=0 time=0
EXTRACT: note_on channel=6 note=70 velocity=89 time=0
EXTRACT: note_off channel=0 note=70 velocity=0 time=0
EXTRACT: note_on channel=0 note=72 velocity=89 time=0
EXTRACT: note_off channel=5 note=70 velocity=0 time=0
EXTRACT: note_on channel=5 note=72 velocity=89 time=0
EXTRACT: note_off channel=6 note=70 velocity=0 time=0
EXTRACT: note_on channel=6 note=72 velocity=89 time=0
EXTRACT: note_off channel=0 note=72 velocity=0 time=0.1875
EXTRACT: note_off channel=5 note=72 velocity=0 time=0
EXTRACT: note_off channel=6 note=72 velocity=0 time=0
EXTRACT: note_on channel=0 note=68 velocity=89 time=0
EXTRACT: note_off channel=1 note=53 velocity=0 time=0
EXTRACT: note_off channel=1 note=56 velocity=0 time=0
EXTRACT: note_off channel=1 note=60 velocity=0 time=0
EXTRACT: note_on channel=1 note=56 velocity=89 time=0
EXTRACT: note_on channel=1 note=53 velocity=89 time=0
EXTRACT: note_on channel=1 note=61 velocity=89 time=0
EXTRACT: note_off channel=2 note=41 velocity=0 time=0
EXTRACT: note_off channel=2 note=29 velocity=0 time=0
EXTRACT: note_on channel=2 note=25 velocity=89 time=0
EXTRACT: note_on channel=2 note=37 velocity=89 time=0
EXTRACT: note_off channel=3 note=41 velocity=0 time=0
EXTRACT: note_off channel=3 note=29 velocity=0 time=0
EXTRACT: note_on channel=3 note=25 velocity=89 time=0
EXTRACT: note_on channel=3 note=37 velocity=89 time=0
EXTRACT: note_off channel=4 note=41 velocity=0 time=0
EXTRACT: note_off channel=4 note=29 velocity=0 time=0
EXTRACT: note_on channel=4 note=25 velocity=89 time=0
EXTRACT: note_on channel=4 note=37 velocity=89 time=0
EXTRACT: note_on channel=5 note=68 velocity=89 time=0
EXTRACT: note_on channel=6 note=68 velocity=89 time=0
EXTRACT: note_off channel=8 note=53 velocity=0 time=0
EXTRACT: note_off channel=8 note=56 velocity=0 time=0
EXTRACT: note_off channel=8 note=60 velocity=0 time=0
EXTRACT: note_on channel=8 note=56 velocity=89 time=0
EXTRACT: note_on channel=8 note=53 velocity=89 time=0
EXTRACT: note_on channel=8 note=61 velocity=89 time=0
EXTRACT: note_off channel=9 note=36 velocity=0 time=0
EXTRACT: note_on channel=9 note=36 velocity=89 time=0
EXTRACT: note_off channel=0 note=68 velocity=0 time=0
EXTRACT: note_on channel=0 note=68 velocity=89 time=0
EXTRACT: note_off channel=5 note=68 velocity=0 time=0
EXTRACT: note_on channel=5 note=68 velocity=89 time=0
EXTRACT: note_off channel=6 note=68 velocity=0 time=0
EXTRACT: note_on channel=6 note=68 velocity=89 time=0
EXTRACT: note_off channel=0 note=68 velocity=0 time=0
EXTRACT: note_on channel=0 note=65 velocity=89 time=0
EXTRACT: note_off channel=5 note=68 velocity=0 time=0
EXTRACT: note_on channel=5 note=65 velocity=89 time=0
EXTRACT: note_off channel=6 note=68 velocity=0 time=0
EXTRACT: note_on channel=6 note=65 velocity=89 time=0
EXTRACT: note_off channel=0 note=65 velocity=0 time=0
EXTRACT: note_on channel=0 note=63 velocity=89 time=0
EXTRACT: note_off channel=5 note=65 velocity=0 time=0
EXTRACT: note_on channel=5 note=63 velocity=89 time=0
EXTRACT: note_off channel=6 note=65 velocity=0 time=0
EXTRACT: note_on channel=6 note=63 velocity=89 time=0
EXTRACT: note_off channel=0 note=63 velocity=0 time=0.1875
EXTRACT: note_off channel=5 note=63 velocity=0 time=0
EXTRACT: note_off channel=6 note=63 velocity=0 time=0
EXTRACT: note_off channel=9 note=36 velocity=0 time=0
EXTRACT: note_on channel=0 note=68 velocity=89 time=0
EXTRACT: note_on channel=5 note=68 velocity=89 time=0
EXTRACT: note_on channel=6 note=68 velocity=89 time=0
EXTRACT: note_off channel=0 note=68 velocity=0 time=0
EXTRACT: note_on channel=0 note=68 velocity=89 time=0
EXTRACT: note_off channel=5 note=68 velocity=0 time=0
EXTRACT: note_on channel=5 note=68 velocity=89 time=0
EXTRACT: note_off channel=6 note=68 velocity=0 time=0
EXTRACT: note_on channel=6 note=68 velocity=89 time=0
EXTRACT: note_off channel=0 note=68 velocity=0 time=0
EXTRACT: note_on channel=0 note=68 velocity=89 time=0
EXTRACT: note_off channel=1 note=61 velocity=0 time=0
EXTRACT: note_off channel=1 note=53 velocity=0 time=0
EXTRACT: note_off channel=1 note=56 velocity=0 time=0
EXTRACT: note_on channel=1 note=60 velocity=89 time=0
EXTRACT: note_on channel=1 note=56 velocity=89 time=0
EXTRACT: note_on channel=1 note=51 velocity=89 time=0
EXTRACT: note_off channel=2 note=37 velocity=0 time=0
EXTRACT: note_off channel=2 note=25 velocity=0 time=0
EXTRACT: note_on channel=2 note=44 velocity=89 time=0
EXTRACT: note_on channel=2 note=32 velocity=89 time=0
EXTRACT: note_off channel=3 note=37 velocity=0 time=0
EXTRACT: note_off channel=3 note=25 velocity=0 time=0
EXTRACT: note_on channel=3 note=44 velocity=89 time=0
EXTRACT: note_on channel=3 note=32 velocity=89 time=0
EXTRACT: note_off channel=4 note=37 velocity=0 time=0
EXTRACT: note_off channel=4 note=25 velocity=0 time=0
EXTRACT: note_on channel=4 note=44 velocity=89 time=0
EXTRACT: note_on channel=4 note=32 velocity=89 time=0
EXTRACT: note_off channel=5 note=68 velocity=0 time=0
EXTRACT: note_on channel=5 note=68 velocity=89 time=0
EXTRACT: note_off channel=6 note=68 velocity=0 time=0
EXTRACT: note_on channel=6 note=68 velocity=89 time=0
EXTRACT: note_off channel=8 note=61 velocity=0 time=0
EXTRACT: note_off channel=8 note=53 velocity=0 time=0
EXTRACT: note_off channel=8 note=56 velocity=0 time=0
EXTRACT: note_on channel=8 note=60 velocity=89 time=0
EXTRACT: note_on channel=8 note=56 velocity=89 time=0
EXTRACT: note_on channel=8 note=51 velocity=89 time=0
EXTRACT: note_on channel=9 note=36 velocity=89 time=0
EXTRACT: note_off channel=0 note=68 velocity=0 time=0
EXTRACT: note_on channel=0 note=67 velocity=89 time=0
EXTRACT: note_off channel=5 note=68 velocity=0 time=0
EXTRACT: note_on channel=5 note=67 velocity=89 time=0
EXTRACT: note_off channel=6 note=68 velocity=0 time=0
EXTRACT: note_on channel=6 note=67 velocity=89 time=0
EXTRACT: note_off channel=0 note=67 velocity=0 time=0
EXTRACT: note_on channel=0 note=65 velocity=89 time=0
EXTRACT: note_off channel=5 note=67 velocity=0 time=0
EXTRACT: note_on channel=5 note=65 velocity=89 time=0
EXTRACT: note_off channel=6 note=67 velocity=0 time=0
EXTRACT: note_on channel=6 note=65 velocity=89 time=0
EXTRACT: note_off channel=0 note=65 velocity=0 time=0.1875
EXTRACT: note_on channel=0 note=63 velocity=89 time=0
EXTRACT: note_off channel=5 note=65 velocity=0 time=0
EXTRACT: note_on channel=5 note=63 velocity=89 time=0
EXTRACT: note_off channel=6 note=65 velocity=0 time=0
EXTRACT: note_on channel=6 note=63 velocity=89 time=0
EXTRACT: note_off channel=0 note=63 velocity=0 time=0
EXTRACT: note_on channel=0 note=63 velocity=89 time=0
EXTRACT: note_off channel=1 note=51 velocity=0 time=0
EXTRACT: note_off channel=1 note=56 velocity=0 time=0
EXTRACT: note_off channel=1 note=60 velocity=0 time=0
EXTRACT: note_on channel=1 note=51 velocity=89 time=0
EXTRACT: note_on channel=1 note=55 velocity=89 time=0
EXTRACT: note_on channel=1 note=58 velocity=89 time=0
EXTRACT: note_off channel=2 note=32 velocity=0 time=0
EXTRACT: note_off channel=2 note=44 velocity=0 time=0
EXTRACT: note_on channel=2 note=39 velocity=89 time=0
EXTRACT: note_on channel=2 note=27 velocity=89 time=0
EXTRACT: note_off channel=3 note=32 velocity=0 time=0
EXTRACT: note_off channel=3 note=44 velocity=0 time=0
EXTRACT: note_on channel=3 note=39 velocity=89 time=0
EXTRACT: note_on channel=3 note=27 velocity=89 time=0
EXTRACT: note_off channel=4 note=32 velocity=0 time=0
EXTRACT: note_off channel=4 note=44 velocity=0 time=0
EXTRACT: note_on channel=4 note=39 velocity=89 time=0
EXTRACT: note_on channel=4 note=27 velocity=89 time=0
EXTRACT: note_off channel=5 note=63 velocity=0 time=0
EXTRACT: note_on channel=5 note=63 velocity=89 time=0
EXTRACT: note_off channel=6 note=63 velocity=0 time=0
EXTRACT: note_on channel=6 note=63 velocity=89 time=0
EXTRACT: note_off channel=8 note=51 velocity=0 time=0
EXTRACT: note_off channel=8 note=56 velocity=0 time=0
EXTRACT: note_off channel=8 note=60 velocity=0 time=0
EXTRACT: note_on channel=8 note=51 velocity=89 time=0
EXTRACT: note_on channel=8 note=55 velocity=89 time=0
EXTRACT: note_on channel=8 note=58 velocity=89 time=0
EXTRACT: note_off channel=9 note=36 velocity=0 time=0
EXTRACT: note_on channel=9 note=36 velocity=89 time=0
EXTRACT: note_off channel=9 note=36 velocity=0 time=0
EXTRACT: note_on channel=9 note=36 velocity=89 time=0
EXTRACT: note_off channel=0 note=63 velocity=0 time=0
EXTRACT: note_on channel=0 note=63 velocity=89 time=0
EXTRACT: note_off channel=5 note=63 velocity=0 time=0
EXTRACT: note_on channel=5 note=63 velocity=89 time=0
EXTRACT: note_off channel=6 note=63 velocity=0 time=0
EXTRACT: note_on channel=6 note=63 velocity=89 time=0
EXTRACT: note_off channel=0 note=63 velocity=0 time=0
EXTRACT: note_on channel=0 note=65 velocity=89 time=0
EXTRACT: note_off channel=5 note=63 velocity=0 time=0
EXTRACT: note_on channel=5 note=65 velocity=89 time=0
EXTRACT: note_off channel=6 note=63 velocity=0 time=0
EXTRACT: note_on channel=6 note=65 velocity=89 time=0
EXTRACT: note_off channel=0 note=65 velocity=0 time=0
EXTRACT: note_on channel=0 note=65 velocity=89 time=0
EXTRACT: note_off channel=5 note=65 velocity=0 time=0
EXTRACT: note_on channel=5 note=65 velocity=89 time=0
EXTRACT: note_off channel=6 note=65 velocity=0 time=0
EXTRACT: note_on channel=6 note=65 velocity=89 time=0
EXTRACT: note_off channel=9 note=36 velocity=0 time=0
EXTRACT: note_off channel=0 note=65 velocity=0 time=0
EXTRACT: note_on channel=0 note=68 velocity=89 time=0
EXTRACT: note_off channel=5 note=65 velocity=0 time=0
EXTRACT: note_on channel=5 note=68 velocity=89 time=0
EXTRACT: note_off channel=6 note=65 velocity=0 time=0
EXTRACT: note_on channel=6 note=68 velocity=89 time=0
EXTRACT: note_off channel=1 note=58 velocity=0 time=0
EXTRACT: note_off channel=1 note=55 velocity=0 time=0
EXTRACT: note_off channel=1 note=51 velocity=0 time=0
EXTRACT: note_on channel=1 note=68 velocity=89 time=0
EXTRACT: note_on channel=1 note=65 velocity=89 time=0
EXTRACT: note_on channel=1 note=60 velocity=89 time=0
EXTRACT: note_off channel=2 note=27 velocity=0 time=0
EXTRACT: note_off channel=2 note=39 velocity=0 time=0
EXTRACT: note_on channel=2 note=41 velocity=89 time=0
EXTRACT: note_on channel=2 note=29 velocity=89 time=0
EXTRACT: note_off channel=3 note=27 velocity=0 time=0
EXTRACT: note_off channel=3 note=39 velocity=0 time=0
EXTRACT: note_off channel=4 note=27 velocity=0 time=0
EXTRACT: note_off channel=4 note=39 velocity=0 time=0
EXTRACT: note_off channel=8 note=58 velocity=0 time=0
EXTRACT: note_off channel=8 note=55 velocity=0 time=0
EXTRACT: note_off channel=8 note=51 velocity=0 time=0
EXTRACT: note_off channel=0 note=68 velocity=0 time=0
EXTRACT: note_on channel=0 note=72 velocity=89 time=0
EXTRACT: note_off channel=5 note=68 velocity=0 time=0
EXTRACT: note_on channel=5 note=72 velocity=89 time=0
EXTRACT: note_off channel=6 note=68 velocity=0 time=0
EXTRACT: note_on channel=6 note=72 velocity=89 time=0
EXTRACT: note_off channel=0 note=72 velocity=0 time=0.375
EXTRACT: note_off channel=1 note=60 velocity=0 time=0
EXTRACT: note_off channel=1 note=65 velocity=0 time=0
EXTRACT: note_off channel=1 note=68 velocity=0 time=0
EXTRACT: note_on channel=1 note=68 velocity=89 time=0
EXTRACT: note_on channel=1 note=65 velocity=89 time=0
EXTRACT: note_on channel=1 note=60 velocity=89 time=0
EXTRACT: note_off channel=5 note=72 velocity=0 time=0
EXTRACT: note_off channel=6 note=72 velocity=0 time=0
EXTRACT: note_off channel=2 note=29 velocity=0 time=0.375
EXTRACT: note_off channel=2 note=41 velocity=0 time=0
EXTRACT: note_on channel=2 note=37 velocity=89 time=0
EXTRACT: note_on channel=2 note=25 velocity=89 time=0
EXTRACT: note_off channel=1 note=68 velocity=0 time=0.375
EXTRACT: note_off channel=1 note=65 velocity=0 time=0
EXTRACT: note_off channel=1 note=60 velocity=0 time=0
EXTRACT: note_on channel=1 note=68 velocity=89 time=0
EXTRACT: note_on channel=1 note=65 velocity=89 time=0
EXTRACT: note_on channel=1 note=61 velocity=89 time=0
EXTRACT: note_off channel=2 note=25 velocity=0 time=0.375
EXTRACT: note_off channel=2 note=37 velocity=0 time=0
EXTRACT: note_on channel=2 note=37 velocity=89 time=0
EXTRACT: note_on channel=2 note=25 velocity=89 time=0
EXTRACT: note_off channel=1 note=61 velocity=0 time=0.375
EXTRACT: note_off channel=1 note=68 velocity=0 time=0
EXTRACT: note_off channel=1 note=65 velocity=0 time=0
EXTRACT: note_on channel=1 note=68 velocity=89 time=0
EXTRACT: note_on channel=1 note=65 velocity=89 time=0
EXTRACT: note_on channel=1 note=61 velocity=89 time=0
EXTRACT: note_on channel=1 note=72 velocity=89 time=0
EXTRACT: note_on channel=0 note=73 velocity=89 time=0
EXTRACT: note_on channel=10 note=73 velocity=89 time=0
EXTRACT: note_off channel=0 note=73 velocity=0 time=0
EXTRACT: note_on channel=0 note=75 velocity=89 time=0
EXTRACT: note_off channel=1 note=72 velocity=0 time=0
EXTRACT: note_off channel=1 note=61 velocity=0 time=0
EXTRACT: note_off channel=1 note=68 velocity=0 time=0
EXTRACT: note_off channel=1 note=65 velocity=0 time=0
EXTRACT: note_on channel=1 note=58 velocity=89 time=0
EXTRACT: note_on channel=1 note=63 velocity=89 time=0
EXTRACT: note_on channel=1 note=67 velocity=89 time=0
EXTRACT: note_on channel=1 note=68 velocity=89 time=0
EXTRACT: note_off channel=2 note=25 velocity=0 time=0
EXTRACT: note_off channel=2 note=37 velocity=0 time=0
EXTRACT: note_on channel=2 note=39 velocity=89 time=0
EXTRACT: note_on channel=2 note=27 velocity=89 time=0
EXTRACT: note_off channel=10 note=73 velocity=0 time=0
EXTRACT: note_on channel=10 note=75 velocity=89 time=0
EXTRACT: note_off channel=0 note=75 velocity=0 time=0
EXTRACT: note_on channel=0 note=73 velocity=89 time=0
EXTRACT: note_off channel=1 note=68 velocity=0 time=0
EXTRACT: note_off channel=1 note=67 velocity=0 time=0
EXTRACT: note_off channel=1 note=63 velocity=0 time=0
EXTRACT: note_off channel=1 note=58 velocity=0 time=0
EXTRACT: note_on channel=1 note=58 velocity=89 time=0
EXTRACT: note_on channel=1 note=63 velocity=89 time=0
EXTRACT: note_on channel=1 note=67 velocity=89 time=0
EXTRACT: note_on channel=1 note=68 velocity=89 time=0
EXTRACT: note_off channel=10 note=75 velocity=0 time=0
EXTRACT: note_on channel=10 note=73 velocity=89 time=0
EXTRACT: note_off channel=0 note=73 velocity=0 time=0
EXTRACT: note_on channel=0 note=72 velocity=89 time=0
EXTRACT: note_off channel=10 note=73 velocity=0 time=0
EXTRACT: note_on channel=10 note=72 velocity=89 time=0
EXTRACT: note_off channel=2 note=27 velocity=0 time=0.1875
EXTRACT: note_off channel=2 note=39 velocity=0 time=0
EXTRACT: note_on channel=2 note=44 velocity=89 time=0
EXTRACT: note_on channel=2 note=32 velocity=89 time=0
EXTRACT: note_off channel=0 note=72 velocity=0 time=0
EXTRACT: note_on channel=0 note=73 velocity=89 time=0
EXTRACT: note_off channel=10 note=72 velocity=0 time=0
EXTRACT: note_on channel=10 note=73 velocity=89 time=0
EXTRACT: note_off channel=0 note=73 velocity=0 time=0
EXTRACT: note_on channel=0 note=72 velocity=89 time=0
EXTRACT: note_off channel=1 note=68 velocity=0 time=0
EXTRACT: note_off channel=1 note=67 velocity=0 time=0
EXTRACT: note_off channel=1 note=63 velocity=0 time=0
EXTRACT: note_off channel=1 note=58 velocity=0 time=0
EXTRACT: note_on channel=1 note=68 velocity=89 time=0
EXTRACT: note_on channel=1 note=60 velocity=89 time=0
EXTRACT: note_on channel=1 note=63 velocity=89 time=0
EXTRACT: note_off channel=10 note=73 velocity=0 time=0
EXTRACT: note_on channel=10 note=72 velocity=89 time=0
EXTRACT: note_off channel=2 note=32 velocity=0 time=0.375
EXTRACT: note_off channel=2 note=44 velocity=0 time=0
EXTRACT: note_on channel=2 note=44 velocity=89 time=0
EXTRACT: note_on channel=2 note=32 velocity=89 time=0
EXTRACT: note_off channel=1 note=63 velocity=0 time=0
EXTRACT: note_off channel=1 note=60 velocity=0 time=0
EXTRACT: note_off channel=1 note=68 velocity=0 time=0
EXTRACT: note_on channel=1 note=68 velocity=89 time=0
EXTRACT: note_on channel=1 note=60 velocity=89 time=0
EXTRACT: note_on channel=1 note=63 velocity=89 time=0
EXTRACT: note_off channel=0 note=72 velocity=0 time=0
EXTRACT: note_on channel=0 note=68 velocity=89 time=0
EXTRACT: note_off channel=10 note=72 velocity=0 time=0
EXTRACT: note_on channel=10 note=68 velocity=89 time=0
EXTRACT: note_off channel=0 note=68 velocity=0 time=0
EXTRACT: note_on channel=0 note=68 velocity=89 time=0
EXTRACT: note_off channel=10 note=68 velocity=0 time=0
EXTRACT: note_on channel=10 note=68 velocity=89 time=0
EXTRACT: note_off channel=0 note=68 velocity=0 time=0
EXTRACT: note_on channel=0 note=68 velocity=89 time=0
EXTRACT: note_off channel=10 note=68 velocity=0 time=0
EXTRACT: note_on channel=10 note=68 velocity=89 time=0
EXTRACT: note_off channel=1 note=63 velocity=0 time=0
EXTRACT: note_off channel=1 note=60 velocity=0 time=0
EXTRACT: note_off channel=1 note=68 velocity=0 time=0
EXTRACT: note_on channel=1 note=68 velocity=89 time=0
EXTRACT: note_on channel=1 note=65 velocity=89 time=0
EXTRACT: note_on channel=1 note=60 velocity=89 time=0
EXTRACT: note_off channel=2 note=32 velocity=0 time=0
EXTRACT: note_off channel=2 note=44 velocity=0 time=0
EXTRACT: note_on channel=2 note=41 velocity=89 time=0
EXTRACT: note_on channel=2 note=29 velocity=89 time=0
EXTRACT: note_off channel=0 note=68 velocity=0 time=0
EXTRACT: note_on channel=0 note=72 velocity=89 time=0
EXTRACT: note_off channel=10 note=68 velocity=0 time=0
EXTRACT: note_on channel=10 note=72 velocity=89 time=0
EXTRACT: note_off channel=0 note=72 velocity=0 time=0.375
EXTRACT: note_off channel=1 note=60 velocity=0 time=0
EXTRACT: note_off channel=1 note=65 velocity=0 time=0
EXTRACT: note_off channel=1 note=68 velocity=0 time=0
EXTRACT: note_on channel=1 note=68 velocity=89 time=0
EXTRACT: note_on channel=1 note=65 velocity=89 time=0
EXTRACT: note_on channel=1 note=60 velocity=89 time=0
EXTRACT: note_off channel=10 note=72 velocity=0 time=0
EXTRACT: note_off channel=2 note=29 velocity=0 time=0.375
EXTRACT: note_off channel=2 note=41 velocity=0 time=0
EXTRACT: note_on channel=2 note=37 velocity=89 time=0
EXTRACT: note_on channel=2 note=25 velocity=89 time=0
EXTRACT: note_off channel=1 note=68 velocity=0 time=0.375
EXTRACT: note_off channel=1 note=65 velocity=0 time=0
EXTRACT: note_off channel=1 note=60 velocity=0 time=0
EXTRACT: note_on channel=1 note=68 velocity=89 time=0
EXTRACT: note_on channel=1 note=65 velocity=89 time=0
EXTRACT: note_on channel=1 note=61 velocity=89 time=0
EXTRACT: note_off channel=2 note=25 velocity=0 time=0.375
EXTRACT: note_off channel=2 note=37 velocity=0 time=0
EXTRACT: note_on channel=2 note=37 velocity=89 time=0
EXTRACT: note_on channel=2 note=25 velocity=89 time=0
EXTRACT: note_off channel=1 note=61 velocity=0 time=0.375
EXTRACT: note_off channel=1 note=68 velocity=0 time=0
EXTRACT: note_off channel=1 note=65 velocity=0 time=0
EXTRACT: note_on channel=1 note=68 velocity=89 time=0
EXTRACT: note_on channel=1 note=65 velocity=89 time=0
EXTRACT: note_on channel=1 note=61 velocity=89 time=0
EXTRACT: note_on channel=1 note=72 velocity=89 time=0
EXTRACT: note_on channel=0 note=73 velocity=89 time=0
EXTRACT: note_on channel=10 note=73 velocity=89 time=0
EXTRACT: note_off channel=0 note=73 velocity=0 time=0
EXTRACT: note_on channel=0 note=75 velocity=89 time=0
EXTRACT: note_off channel=1 note=72 velocity=0 time=0
EXTRACT: note_off channel=1 note=61 velocity=0 time=0
EXTRACT: note_off channel=1 note=68 velocity=0 time=0
EXTRACT: note_off channel=1 note=65 velocity=0 time=0
EXTRACT: note_on channel=1 note=58 velocity=89 time=0
EXTRACT: note_on channel=1 note=63 velocity=89 time=0
EXTRACT: note_on channel=1 note=67 velocity=89 time=0
EXTRACT: note_on channel=1 note=68 velocity=89 time=0
EXTRACT: note_off channel=2 note=25 velocity=0 time=0
EXTRACT: note_off channel=2 note=37 velocity=0 time=0
EXTRACT: note_on channel=2 note=39 velocity=89 time=0
EXTRACT: note_on channel=2 note=27 velocity=89 time=0
EXTRACT: note_off channel=10 note=73 velocity=0 time=0
EXTRACT: note_on channel=10 note=75 velocity=89 time=0
EXTRACT: note_off channel=0 note=75 velocity=0 time=0
EXTRACT: note_on channel=0 note=77 velocity=89 time=0
EXTRACT: note_off channel=1 note=68 velocity=0 time=0
EXTRACT: note_off channel=1 note=67 velocity=0 time=0
EXTRACT: note_off channel=1 note=63 velocity=0 time=0
EXTRACT: note_off channel=1 note=58 velocity=0 time=0
EXTRACT: note_on channel=1 note=58 velocity=89 time=0
EXTRACT: note_on channel=1 note=63 velocity=89 time=0
EXTRACT: note_on channel=1 note=67 velocity=89 time=0
EXTRACT: note_on channel=1 note=68 velocity=89 time=0
EXTRACT: note_off channel=10 note=75 velocity=0 time=0
EXTRACT: note_on channel=10 note=77 velocity=89 time=0
EXTRACT: note_off channel=0 note=77 velocity=0 time=0
EXTRACT: note_on channel=0 note=75 velocity=89 time=0
EXTRACT: note_off channel=10 note=77 velocity=0 time=0
EXTRACT: note_on channel=10 note=75 velocity=89 time=0
EXTRACT: note_off channel=2 note=27 velocity=0 time=0.1875
EXTRACT: note_off channel=2 note=39 velocity=0 time=0
EXTRACT: note_on channel=2 note=44 velocity=89 time=0
EXTRACT: note_on channel=2 note=32 velocity=89 time=0
EXTRACT: note_off channel=0 note=75 velocity=0 time=0
EXTRACT: note_on channel=0 note=80 velocity=89 time=0
EXTRACT: note_off channel=10 note=75 velocity=0 time=0
EXTRACT: note_on channel=10 note=80 velocity=89 time=0
EXTRACT: note_off channel=1 note=68 velocity=0 time=0
EXTRACT: note_off channel=1 note=67 velocity=0 time=0
EXTRACT: note_off channel=1 note=63 velocity=0 time=0
EXTRACT: note_off channel=1 note=58 velocity=0 time=0
EXTRACT: note_on channel=1 note=68 velocity=89 time=0
EXTRACT: note_on channel=1 note=60 velocity=89 time=0
EXTRACT: note_on channel=1 note=63 velocity=89 time=0
EXTRACT: note_off channel=2 note=32 velocity=0 time=0.375
EXTRACT: note_off channel=2 note=44 velocity=0 time=0
EXTRACT: note_on channel=2 note=44 velocity=89 time=0
EXTRACT: note_on channel=2 note=32 velocity=89 time=0
EXTRACT: note_off channel=0 note=80 velocity=0 time=0
EXTRACT: note_on channel=0 note=68 velocity=89 time=0
EXTRACT: note_off channel=1 note=63 velocity=0 time=0
EXTRACT: note_off channel=1 note=60 velocity=0 time=0
EXTRACT: note_off channel=1 note=68 velocity=0 time=0
EXTRACT: note_on channel=1 note=68 velocity=89 time=0
EXTRACT: note_on channel=1 note=60 velocity=89 time=0
EXTRACT: note_on channel=1 note=63 velocity=89 time=0
EXTRACT: note_off channel=10 note=80 velocity=0 time=0
EXTRACT: note_on channel=10 note=68 velocity=89 time=0
EXTRACT: note_off channel=0 note=68 velocity=0 time=0
EXTRACT: note_on channel=0 note=68 velocity=89 time=0
EXTRACT: note_off channel=10 note=68 velocity=0 time=0
EXTRACT: note_on channel=10 note=68 velocity=89 time=0
EXTRACT: note_off channel=0 note=68 velocity=0 time=0
EXTRACT: note_on channel=0 note=68 velocity=89 time=0
EXTRACT: note_off channel=10 note=68 velocity=0 time=0
EXTRACT: note_on channel=10 note=68 velocity=89 time=0
EXTRACT: note_off channel=0 note=68 velocity=0 time=0
EXTRACT: note_on channel=0 note=68 velocity=89 time=0
EXTRACT: note_off channel=10 note=68 velocity=0 time=0
EXTRACT: note_on channel=10 note=68 velocity=89 time=0
EXTRACT: note_off channel=1 note=63 velocity=0 time=0
EXTRACT: note_off channel=1 note=60 velocity=0 time=0
EXTRACT: note_off channel=1 note=68 velocity=0 time=0
EXTRACT: note_on channel=1 note=68 velocity=89 time=0
EXTRACT: note_on channel=1 note=65 velocity=89 time=0
EXTRACT: note_on channel=1 note=60 velocity=89 time=0
EXTRACT: note_off channel=2 note=32 velocity=0 time=0
EXTRACT: note_off channel=2 note=44 velocity=0 time=0
EXTRACT: note_on channel=2 note=41 velocity=89 time=0
EXTRACT: note_on channel=2 note=29 velocity=89 time=0
EXTRACT: note_off channel=0 note=68 velocity=0 time=0
EXTRACT: note_on channel=0 note=72 velocity=89 time=0
EXTRACT: note_off channel=10 note=68 velocity=0 time=0
EXTRACT: note_on channel=10 note=72 velocity=89 time=0
EXTRACT: note_off channel=0 note=72 velocity=0 time=0.375
EXTRACT: note_off channel=1 note=60 velocity=0 time=0
EXTRACT: note_off channel=1 note=65 velocity=0 time=0
EXTRACT: note_off channel=1 note=68 velocity=0 time=0
EXTRACT: note_on channel=1 note=68 velocity=89 time=0
EXTRACT: note_on channel=1 note=65 velocity=89 time=0
EXTRACT: note_on channel=1 note=60 velocity=89 time=0
EXTRACT: note_off channel=10 note=72 velocity=0 time=0
EXTRACT: note_off channel=2 note=29 velocity=0 time=0.375
EXTRACT: note_off channel=2 note=41 velocity=0 time=0
EXTRACT: note_on channel=2 note=37 velocity=89 time=0
EXTRACT: note_on channel=2 note=25 velocity=89 time=0
EXTRACT: note_off channel=1 note=68 velocity=0 time=0.375
EXTRACT: note_off channel=1 note=65 velocity=0 time=0
EXTRACT: note_off channel=1 note=60 velocity=0 time=0
EXTRACT: note_on channel=1 note=68 velocity=89 time=0
EXTRACT: note_on channel=1 note=65 velocity=89 time=0
EXTRACT: note_on channel=1 note=61 velocity=89 time=0
EXTRACT: note_off channel=2 note=25 velocity=0 time=0.375
EXTRACT: note_off channel=2 note=37 velocity=0 time=0
EXTRACT: note_on channel=2 note=37 velocity=89 time=0
EXTRACT: note_on channel=2 note=25 velocity=89 time=0
EXTRACT: note_off channel=1 note=61 velocity=0 time=0.375
EXTRACT: note_off channel=1 note=68 velocity=0 time=0
EXTRACT: note_off channel=1 note=65 velocity=0 time=0
EXTRACT: note_on channel=1 note=68 velocity=89 time=0
EXTRACT: note_on channel=1 note=65 velocity=89 time=0
EXTRACT: note_on channel=1 note=61 velocity=89 time=0
EXTRACT: note_on channel=1 note=72 velocity=89 time=0
EXTRACT: note_on channel=0 note=73 velocity=89 time=0
EXTRACT: note_on channel=10 note=73 velocity=89 time=0
EXTRACT: note_off channel=0 note=73 velocity=0 time=0
EXTRACT: note_on channel=0 note=75 velocity=89 time=0
EXTRACT: note_off channel=1 note=72 velocity=0 time=0
EXTRACT: note_off channel=1 note=61 velocity=0 time=0
EXTRACT: note_off channel=1 note=68 velocity=0 time=0
EXTRACT: note_off channel=1 note=65 velocity=0 time=0
EXTRACT: note_on channel=1 note=58 velocity=89 time=0
EXTRACT: note_on channel=1 note=63 velocity=89 time=0
EXTRACT: note_on channel=1 note=67 velocity=89 time=0
EXTRACT: note_on channel=1 note=68 velocity=89 time=0
EXTRACT: note_off channel=2 note=25 velocity=0 time=0
EXTRACT: note_off channel=2 note=37 velocity=0 time=0
EXTRACT: note_on channel=2 note=39 velocity=89 time=0
EXTRACT: note_on channel=2 note=27 velocity=89 time=0
EXTRACT: note_off channel=10 note=73 velocity=0 time=0
EXTRACT: note_on channel=10 note=75 velocity=89 time=0
EXTRACT: note_off channel=0 note=75 velocity=0 time=0
EXTRACT: note_on channel=0 note=73 velocity=89 time=0
EXTRACT: note_off channel=1 note=68 velocity=0 time=0
EXTRACT: note_off channel=1 note=67 velocity=0 time=0
EXTRACT: note_off channel=1 note=63 velocity=0 time=0
EXTRACT: note_off channel=1 note=58 velocity=0 time=0
EXTRACT: note_on channel=1 note=58 velocity=89 time=0
EXTRACT: note_on channel=1 note=63 velocity=89 time=0
EXTRACT: note_on channel=1 note=67 velocity=89 time=0
EXTRACT: note_on channel=1 note=68 velocity=89 time=0
EXTRACT: note_off channel=10 note=75 velocity=0 time=0
EXTRACT: note_on channel=10 note=73 velocity=89 time=0
EXTRACT: note_off channel=0 note=73 velocity=0 time=0
EXTRACT: note_on channel=0 note=72 velocity=89 time=0
EXTRACT: note_off channel=10 note=73 velocity=0 time=0
EXTRACT: note_on channel=10 note=72 velocity=89 time=0
EXTRACT: note_off channel=2 note=27 velocity=0 time=0.1875
EXTRACT: note_off channel=2 note=39 velocity=0 time=0
EXTRACT: note_on channel=2 note=44 velocity=89 time=0
EXTRACT: note_on channel=2 note=32 velocity=89 time=0
EXTRACT: note_off channel=0 note=72 velocity=0 time=0
EXTRACT: note_on channel=0 note=73 velocity=89 time=0
EXTRACT: note_off channel=10 note=72 velocity=0 time=0
EXTRACT: note_on channel=10 note=73 velocity=89 time=0
EXTRACT: note_off channel=0 note=73 velocity=0 time=0
EXTRACT: note_on channel=0 note=72 velocity=89 time=0
EXTRACT: note_off channel=1 note=68 velocity=0 time=0
EXTRACT: note_off channel=1 note=67 velocity=0 time=0
EXTRACT: note_off channel=1 note=63 velocity=0 time=0
EXTRACT: note_off channel=1 note=58 velocity=0 time=0
EXTRACT: note_on channel=1 note=68 velocity=89 time=0
EXTRACT: note_on channel=1 note=60 velocity=89 time=0
EXTRACT: note_on channel=1 note=63 velocity=89 time=0
EXTRACT: note_off channel=10 note=73 velocity=0 time=0
EXTRACT: note_on channel=10 note=72 velocity=89 time=0
EXTRACT: note_off channel=2 note=32 velocity=0 time=0.375
EXTRACT: note_off channel=2 note=44 velocity=0 time=0
EXTRACT: note_on channel=2 note=44 velocity=89 time=0
EXTRACT: note_on channel=2 note=32 velocity=89 time=0
EXTRACT: note_off channel=1 note=63 velocity=0 time=0
EXTRACT: note_off channel=1 note=60 velocity=0 time=0
EXTRACT: note_off channel=1 note=68 velocity=0 time=0
EXTRACT: note_on channel=1 note=68 velocity=89 time=0
EXTRACT: note_on channel=1 note=60 velocity=89 time=0
EXTRACT: note_on channel=1 note=63 velocity=89 time=0
EXTRACT: note_off channel=0 note=72 velocity=0 time=0
EXTRACT: note_on channel=0 note=70 velocity=89 time=0
EXTRACT: note_off channel=10 note=72 velocity=0 time=0
EXTRACT: note_on channel=10 note=70 velocity=89 time=0
EXTRACT: note_off channel=0 note=70 velocity=0 time=0
EXTRACT: note_on channel=0 note=70 velocity=89 time=0
EXTRACT: note_off channel=10 note=70 velocity=0 time=0
EXTRACT: note_on channel=10 note=70 velocity=89 time=0
EXTRACT: note_off channel=0 note=70 velocity=0 time=0
EXTRACT: note_on channel=0 note=70 velocity=89 time=0
EXTRACT: note_off channel=10 note=70 velocity=0 time=0
EXTRACT: note_on channel=10 note=70 velocity=89 time=0
EXTRACT: note_off channel=0 note=70 velocity=0 time=0
EXTRACT: note_on channel=0 note=68 velocity=89 time=0
EXTRACT: note_off channel=10 note=70 velocity=0 time=0
EXTRACT: note_on channel=10 note=68 velocity=89 time=0
EXTRACT: note_off channel=0 note=68 velocity=0 time=0.09375
EXTRACT: note_on channel=0 note=65 velocity=89 time=0
EXTRACT: note_off channel=1 note=63 velocity=0 time=0
EXTRACT: note_off channel=1 note=60 velocity=0 time=0
EXTRACT: note_off channel=1 note=68 velocity=0 time=0
EXTRACT: note_on channel=1 note=68 velocity=89 time=0
EXTRACT: note_on channel=1 note=65 velocity=89 time=0
EXTRACT: note_on channel=1 note=60 velocity=89 time=0
EXTRACT: note_off channel=2 note=32 velocity=0 time=0
EXTRACT: note_off channel=2 note=44 velocity=0 time=0
EXTRACT: note_on channel=2 note=41 velocity=89 time=0
EXTRACT: note_on channel=2 note=29 velocity=89 time=0
EXTRACT: note_off channel=10 note=68 velocity=0 time=0
EXTRACT: note_on channel=10 note=65 velocity=89 time=0
EXTRACT: note_off channel=0 note=65 velocity=0 time=0.375
EXTRACT: note_on channel=0 note=68 velocity=89 time=0
EXTRACT: note_off channel=10 note=65 velocity=0 time=0
EXTRACT: note_on channel=10 note=68 velocity=89 time=0
EXTRACT: note_off channel=1 note=60 velocity=0 time=0.375
EXTRACT: note_off channel=1 note=65 velocity=0 time=0
EXTRACT: note_off channel=1 note=68 velocity=0 time=0
EXTRACT: note_on channel=1 note=68 velocity=89 time=0
EXTRACT: note_on channel=1 note=65 velocity=89 time=0
EXTRACT: note_on channel=1 note=60 velocity=89 time=0
EXTRACT: note_off channel=2 note=29 velocity=0 time=0.375
EXTRACT: note_off channel=2 note=41 velocity=0 time=0
EXTRACT: note_on channel=2 note=37 velocity=89 time=0
EXTRACT: note_on channel=2 note=25 velocity=89 time=0
EXTRACT: note_off channel=0 note=68 velocity=0 time=0
EXTRACT: note_on channel=0 note=70 velocity=89 time=0
EXTRACT: note_off channel=1 note=68 velocity=0 time=0
EXTRACT: note_off channel=1 note=65 velocity=0 time=0
EXTRACT: note_off channel=1 note=60 velocity=0 time=0
EXTRACT: note_on channel=1 note=68 velocity=89 time=0
EXTRACT: note_on channel=1 note=65 velocity=89 time=0
EXTRACT: note_on channel=1 note=61 velocity=89 time=0
EXTRACT: note_off channel=10 note=68 velocity=0 time=0
EXTRACT: note_on channel=10 note=70 velocity=89 time=0
EXTRACT: note_off channel=0 note=70 velocity=0 time=0.375
EXTRACT: note_off channel=2 note=25 velocity=0 time=0
EXTRACT: note_off channel=2 note=37 velocity=0 time=0
EXTRACT: note_on channel=2 note=37 velocity=89 time=0
EXTRACT: note_on channel=2 note=25 velocity=89 time=0
EXTRACT: note_off channel=10 note=70 velocity=0 time=0
EXTRACT: note_off channel=1 note=61 velocity=0 time=0.375
EXTRACT: note_off channel=1 note=68 velocity=0 time=0
EXTRACT: note_off channel=1 note=65 velocity=0 time=0
EXTRACT: note_on channel=1 note=68 velocity=89 time=0
EXTRACT: note_on channel=1 note=65 velocity=89 time=0
EXTRACT: note_on channel=1 note=61 velocity=89 time=0
EXTRACT: note_on channel=1 note=72 velocity=89 time=0
EXTRACT: note_on channel=0 note=70 velocity=89 time=0
EXTRACT: note_on channel=10 note=70 velocity=89 time=0
EXTRACT: note_off channel=0 note=70 velocity=0 time=0
EXTRACT: note_on channel=0 note=70 velocity=89 time=0
EXTRACT: note_off channel=10 note=70 velocity=0 time=0
EXTRACT: note_on channel=10 note=70 velocity=89 time=0
EXTRACT: note_off channel=0 note=70 velocity=0 time=0
EXTRACT: note_on channel=0 note=70 velocity=89 time=0
EXTRACT: note_off channel=10 note=70 velocity=0 time=0
EXTRACT: note_on channel=10 note=70 velocity=89 time=0
EXTRACT: note_off channel=1 note=72 velocity=0 time=0
EXTRACT: note_off channel=1 note=61 velocity=0 time=0
EXTRACT: note_off channel=1 note=68 velocity=0 time=0
EXTRACT: note_off channel=1 note=65 velocity=0 time=0
EXTRACT: note_on channel=1 note=58 velocity=89 time=0
EXTRACT: note_on channel=1 note=63 velocity=89 time=0
EXTRACT: note_on channel=1 note=67 velocity=89 time=0
EXTRACT: note_on channel=1 note=68 velocity=89 time=0
EXTRACT: note_off channel=2 note=25 velocity=0 time=0
EXTRACT: note_off channel=2 note=37 velocity=0 time=0
EXTRACT: note_on channel=2 note=39 velocity=89 time=0
EXTRACT: note_on channel=2 note=27 velocity=89 time=0
EXTRACT: note_off channel=0 note=70 velocity=0 time=0
EXTRACT: note_on channel=0 note=72 velocity=89 time=0
EXTRACT: note_off channel=10 note=70 velocity=0 time=0
EXTRACT: note_on channel=10 note=72 velocity=89 time=0
EXTRACT: note_off channel=1 note=68 velocity=0 time=0.375
EXTRACT: note_off channel=1 note=67 velocity=0 time=0
EXTRACT: note_off channel=1 note=63 velocity=0 time=0
EXTRACT: note_off channel=1 note=58 velocity=0 time=0
EXTRACT: note_on channel=1 note=58 velocity=89 time=0
EXTRACT: note_on channel=1 note=63 velocity=89 time=0
EXTRACT: note_on channel=1 note=67 velocity=89 time=0
EXTRACT: note_on channel=1 note=68 velocity=89 time=0
EXTRACT: note_off channel=2 note=27 velocity=0 time=0.375
EXTRACT: note_off channel=2 note=39 velocity=0 time=0
EXTRACT: note_on channel=2 note=39 velocity=89 time=0
EXTRACT: note_on channel=2 note=27 velocity=89 time=0
EXTRACT: note_off channel=1 note=68 velocity=0 time=0
EXTRACT: note_off channel=1 note=67 velocity=0 time=0
EXTRACT: note_off channel=1 note=63 velocity=0 time=0
EXTRACT: note_off channel=1 note=58 velocity=0 time=0
EXTRACT: note_on channel=1 note=58 velocity=89 time=0
EXTRACT: note_on channel=1 note=63 velocity=89 time=0
EXTRACT: note_on channel=1 note=67 velocity=89 time=0
EXTRACT: note_on channel=1 note=68 velocity=89 time=0
EXTRACT: note_off channel=1 note=68 velocity=0 time=0.75
EXTRACT: note_off channel=1 note=67 velocity=0 time=0
EXTRACT: note_off channel=1 note=63 velocity=0 time=0
EXTRACT: note_off channel=1 note=58 velocity=0 time=0
EXTRACT: note_on channel=1 note=63 velocity=89 time=0
EXTRACT: note_on channel=1 note=67 velocity=89 time=0
EXTRACT: note_on channel=1 note=68 velocity=89 time=0
EXTRACT: note_on channel=1 note=72 velocity=89 time=0
EXTRACT: note_off channel=2 note=27 velocity=0 time=0
EXTRACT: note_off channel=2 note=39 velocity=0 time=0
EXTRACT: note_on channel=2 note=39 velocity=89 time=0
EXTRACT: note_on channel=2 note=27 velocity=89 time=0
EXTRACT: note_off channel=2 note=27 velocity=0 time=0.1875
EXTRACT: note_off channel=2 note=39 velocity=0 time=0
EXTRACT: note_on channel=2 note=39 velocity=89 time=0
EXTRACT: note_on channel=2 note=27 velocity=89 time=0
EXTRACT: note_off channel=2 note=27 velocity=0 time=0.1875
EXTRACT: note_off channel=2 note=39 velocity=0 time=0
EXTRACT: note_on channel=2 note=39 velocity=89 time=0
EXTRACT: note_on channel=2 note=27 velocity=89 time=0
EXTRACT: note_off channel=2 note=27 velocity=0 time=0.1875
EXTRACT: note_off channel=2 note=39 velocity=0 time=0
EXTRACT: note_on channel=2 note=39 velocity=89 time=0
EXTRACT: note_on channel=2 note=27 velocity=89 time=0
EXTRACT: note_off channel=0 note=72 velocity=0 time=0
EXTRACT: note_on channel=0 note=65 velocity=89 time=0
EXTRACT: note_off channel=1 note=72 velocity=0 time=0
EXTRACT: note_off channel=1 note=68 velocity=0 time=0
EXTRACT: note_off channel=1 note=67 velocity=0 time=0
EXTRACT: note_off channel=1 note=63 velocity=0 time=0
EXTRACT: note_on channel=1 note=60 velocity=89 time=0
EXTRACT: note_on channel=1 note=56 velocity=89 time=0
EXTRACT: note_on channel=1 note=53 velocity=89 time=0
EXTRACT: note_off channel=2 note=27 velocity=0 time=0
EXTRACT: note_off channel=2 note=39 velocity=0 time=0
EXTRACT: note_on channel=2 note=29 velocity=89 time=0
EXTRACT: note_on channel=2 note=41 velocity=89 time=0
EXTRACT: note_on channel=3 note=29 velocity=89 time=0
EXTRACT: note_on channel=3 note=41 velocity=89 time=0
EXTRACT: note_on channel=4 note=29 velocity=89 time=0
EXTRACT: note_on channel=4 note=41 velocity=89 time=0
EXTRACT: note_on channel=5 note=65 velocity=89 time=0
EXTRACT: note_on channel=6 note=65 velocity=89 time=0
EXTRACT: note_on channel=8 note=60 velocity=89 time=0
EXTRACT: note_on channel=8 note=56 velocity=89 time=0
EXTRACT: note_on channel=8 note=53 velocity=89 time=0
EXTRACT: note_on channel=9 note=36 velocity=89 time=0
EXTRACT: note_off channel=10 note=72 velocity=0 time=0
EXTRACT: note_off channel=0 note=65 velocity=0 time=0
EXTRACT: note_on channel=0 note=65 velocity=89 time=0
EXTRACT: note_off channel=5 note=65 velocity=0 time=0
EXTRACT: note_on channel=5 note=65 velocity=89 time=0
EXTRACT: note_off channel=6 note=65 velocity=0 time=0
EXTRACT: note_on channel=6 note=65 velocity=89 time=0
EXTRACT: note_off channel=0 note=65 velocity=0 time=0
EXTRACT: note_on channel=0 note=68 velocity=89 time=0
EXTRACT: note_off channel=5 note=65 velocity=0 time=0
EXTRACT: note_on channel=5 note=68 velocity=89 time=0
EXTRACT: note_off channel=6 note=65 velocity=0 time=0
EXTRACT: note_on channel=6 note=68 velocity=89 time=0
EXTRACT: note_off channel=0 note=68 velocity=0 time=0
EXTRACT: note_on channel=0 note=68 velocity=89 time=0
EXTRACT: note_off channel=1 note=53 velocity=0 time=0
EXTRACT: note_off channel=1 note=56 velocity=0 time=0
EXTRACT: note_off channel=1 note=60 velocity=0 time=0
EXTRACT: note_on channel=1 note=56 velocity=89 time=0
EXTRACT: note_on channel=1 note=53 velocity=89 time=0
EXTRACT: note_on channel=1 note=61 velocity=89 time=0
EXTRACT: note_off channel=2 note=41 velocity=0 time=0
EXTRACT: note_off channel=2 note=29 velocity=0 time=0
EXTRACT: note_on channel=2 note=25 velocity=89 time=0
EXTRACT: note_on channel=2 note=37 velocity=89 time=0
EXTRACT: note_off channel=3 note=41 velocity=0 time=0
EXTRACT: note_off channel=3 note=29 velocity=0 time=0
EXTRACT: note_on channel=3 note=25 velocity=89 time=0
EXTRACT: note_on channel=3 note=37 velocity=89 time=0
EXTRACT: note_off channel=4 note=41 velocity=0 time=0
EXTRACT: note_off channel=4 note=29 velocity=0 time=0
EXTRACT: note_on channel=4 note=25 velocity=89 time=0
EXTRACT: note_on channel=4 note=37 velocity=89 time=0
EXTRACT: note_off channel=5 note=68 velocity=0 time=0
EXTRACT: note_on channel=5 note=68 velocity=89 time=0
EXTRACT: note_off channel=6 note=68 velocity=0 time=0
EXTRACT: note_on channel=6 note=68 velocity=89 time=0
EXTRACT: note_off channel=8 note=53 velocity=0 time=0
EXTRACT: note_off channel=8 note=56 velocity=0 time=0
EXTRACT: note_off channel=8 note=60 velocity=0 time=0
EXTRACT: note_on channel=8 note=56 velocity=89 time=0
EXTRACT: note_on channel=8 note=53 velocity=89 time=0
EXTRACT: note_on channel=8 note=61 velocity=89 time=0
EXTRACT: note_off channel=9 note=36 velocity=0 time=0
EXTRACT: note_on channel=9 note=36 velocity=89 time=0
EXTRACT: note_off channel=0 note=68 velocity=0 time=0
EXTRACT: note_on channel=0 note=70 velocity=89 time=0
EXTRACT: note_off channel=5 note=68 velocity=0 time=0
EXTRACT: note_on channel=5 note=70 velocity=89 time=0
EXTRACT: note_off channel=6 note=68 velocity=0 time=0
EXTRACT: note_on channel=6 note=70 velocity=89 time=0
EXTRACT: note_off channel=0 note=70 velocity=0 time=0
EXTRACT: note_on channel=0 note=70 velocity=89 time=0
EXTRACT: note_off channel=5 note=70 velocity=0 time=0
EXTRACT: note_on channel=5 note=70 velocity=89 time=0
EXTRACT: note_off channel=6 note=70 velocity=0 time=0
EXTRACT: note_on channel=6 note=70 velocity=89 time=0
EXTRACT: note_off channel=0 note=70 velocity=0 time=0
EXTRACT: note_on channel=0 note=70 velocity=89 time=0
EXTRACT: note_off channel=5 note=70 velocity=0 time=0
EXTRACT: note_on channel=5 note=70 velocity=89 time=0
EXTRACT: note_off channel=6 note=70 velocity=0 time=0
EXTRACT: note_on channel=6 note=70 velocity=89 time=0
EXTRACT: note_off channel=9 note=36 velocity=0 time=0
EXTRACT: note_off channel=1 note=61 velocity=0 time=0
EXTRACT: note_off channel=1 note=53 velocity=0 time=0
EXTRACT: note_off channel=1 note=56 velocity=0 time=0
EXTRACT: note_on channel=1 note=60 velocity=89 time=0
EXTRACT: note_on channel=1 note=56 velocity=89 time=0
EXTRACT: note_on channel=1 note=51 velocity=89 time=0
EXTRACT: note_off channel=2 note=37 velocity=0 time=0
EXTRACT: note_off channel=2 note=25 velocity=0 time=0
EXTRACT: note_on channel=2 note=44 velocity=89 time=0
EXTRACT: note_on channel=2 note=32 velocity=89 time=0
EXTRACT: note_off channel=3 note=37 velocity=0 time=0
EXTRACT: note_off channel=3 note=25 velocity=0 time=0
EXTRACT: note_on channel=3 note=44 velocity=89 time=0
EXTRACT: note_on channel=3 note=32 velocity=89 time=0
EXTRACT: note_off channel=4 note=37 velocity=0 time=0
EXTRACT: note_off channel=4 note=25 velocity=0 time=0
EXTRACT: note_on channel=4 note=44 velocity=89 time=0
EXTRACT: note_on channel=4 note=32 velocity=89 time=0
EXTRACT: note_off channel=8 note=61 velocity=0 time=0
EXTRACT: note_off channel=8 note=53 velocity=0 time=0
EXTRACT: note_off channel=8 note=56 velocity=0 time=0
EXTRACT: note_on channel=8 note=60 velocity=89 time=0
EXTRACT: note_on channel=8 note=56 velocity=89 time=0
EXTRACT: note_on channel=8 note=51 velocity=89 time=0
EXTRACT: note_on channel=9 note=36 velocity=89 time=0
EXTRACT: note_off channel=0 note=70 velocity=0 time=1.125
EXTRACT: note_on channel=0 note=68 velocity=89 time=0
EXTRACT: note_off channel=1 note=51 velocity=0 time=0
EXTRACT: note_off channel=1 note=56 velocity=0 time=0
EXTRACT: note_off channel=1 note=60 velocity=0 time=0
EXTRACT: note_on channel=1 note=51 velocity=89 time=0
EXTRACT: note_on channel=1 note=55 velocity=89 time=0
EXTRACT: note_on channel=1 note=58 velocity=89 time=0
EXTRACT: note_off channel=2 note=32 velocity=0 time=0
EXTRACT: note_off channel=2 note=44 velocity=0 time=0
EXTRACT: note_on channel=2 note=39 velocity=89 time=0
EXTRACT: note_on channel=2 note=27 velocity=89 time=0
EXTRACT: note_off channel=3 note=32 velocity=0 time=0
EXTRACT: note_off channel=3 note=44 velocity=0 time=0
EXTRACT: note_on channel=3 note=39 velocity=89 time=0
EXTRACT: note_on channel=3 note=27 velocity=89 time=0
EXTRACT: note_off channel=4 note=32 velocity=0 time=0
EXTRACT: note_off channel=4 note=44 velocity=0 time=0
EXTRACT: note_on channel=4 note=39 velocity=89 time=0
EXTRACT: note_on channel=4 note=27 velocity=89 time=0
EXTRACT: note_off channel=5 note=70 velocity=0 time=0
EXTRACT: note_on channel=5 note=68 velocity=89 time=0
EXTRACT: note_off channel=6 note=70 velocity=0 time=0
EXTRACT: note_on channel=6 note=68 velocity=89 time=0
EXTRACT: note_off channel=8 note=51 velocity=0 time=0
EXTRACT: note_off channel=8 note=56 velocity=0 time=0
EXTRACT: note_off channel=8 note=60 velocity=0 time=0
EXTRACT: note_on channel=8 note=51 velocity=89 time=0
EXTRACT: note_on channel=8 note=55 velocity=89 time=0
EXTRACT: note_on channel=8 note=58 velocity=89 time=0
EXTRACT: note_off channel=9 note=36 velocity=0 time=0
EXTRACT: note_on channel=9 note=36 velocity=89 time=0
EXTRACT: note_off channel=9 note=36 velocity=0 time=0
EXTRACT: note_on channel=9 note=36 velocity=89 time=0
EXTRACT: note_off channel=0 note=68 velocity=0 time=0
EXTRACT: note_on channel=0 note=65 velocity=89 time=0
EXTRACT: note_off channel=5 note=68 velocity=0 time=0
EXTRACT: note_on channel=5 note=65 velocity=89 time=0
EXTRACT: note_off channel=6 note=68 velocity=0 time=0
EXTRACT: note_on channel=6 note=65 velocity=89 time=0
EXTRACT: note_off channel=0 note=65 velocity=0 time=0.1875
EXTRACT: note_off channel=5 note=65 velocity=0 time=0
EXTRACT: note_off channel=6 note=65 velocity=0 time=0
EXTRACT: note_on channel=0 note=65 velocity=89 time=0
EXTRACT: note_on channel=5 note=65 velocity=89 time=0
EXTRACT: note_on channel=6 note=65 velocity=89 time=0
EXTRACT: note_off channel=9 note=36 velocity=0 time=0
EXTRACT: note_off channel=0 note=65 velocity=0 time=0
EXTRACT: note_on channel=0 note=65 velocity=89 time=0
EXTRACT: note_off channel=1 note=58 velocity=0 time=0
EXTRACT: note_off channel=1 note=55 velocity=0 time=0
EXTRACT: note_off channel=1 note=51 velocity=0 time=0
EXTRACT: note_on channel=1 note=60 velocity=89 time=0
EXTRACT: note_on channel=1 note=56 velocity=89 time=0
EXTRACT: note_on channel=1 note=53 velocity=89 time=0
EXTRACT: note_off channel=2 note=27 velocity=0 time=0
EXTRACT: note_off channel=2 note=39 velocity=0 time=0
EXTRACT: note_on channel=2 note=29 velocity=89 time=0
EXTRACT: note_on channel=2 note=41 velocity=89 time=0
EXTRACT: note_off channel=3 note=27 velocity=0 time=0
EXTRACT: note_off channel=3 note=39 velocity=0 time=0
EXTRACT: note_on channel=3 note=29 velocity=89 time=0
EXTRACT: note_on channel=3 note=41 velocity=89 time=0
EXTRACT: note_off channel=4 note=27 velocity=0 time=0
EXTRACT: note_off channel=4 note=39 velocity=0 time=0
EXTRACT: note_on channel=4 note=29 velocity=89 time=0
EXTRACT: note_on channel=4 note=41 velocity=89 time=0
EXTRACT: note_off channel=5 note=65 velocity=0 time=0
EXTRACT: note_on channel=5 note=65 velocity=89 time=0
EXTRACT: note_off channel=6 note=65 velocity=0 time=0
EXTRACT: note_on channel=6 note=65 velocity=89 time=0
EXTRACT: note_off channel=8 note=58 velocity=0 time=0
EXTRACT: note_off channel=8 note=55 velocity=0 time=0
EXTRACT: note_off channel=8 note=51 velocity=0 time=0
EXTRACT: note_on channel=8 note=60 velocity=89 time=0
EXTRACT: note_on channel=8 note=56 velocity=89 time=0
EXTRACT: note_on channel=8 note=53 velocity=89 time=0
EXTRACT: note_on channel=9 note=36 velocity=89 time=0
EXTRACT: note_off channel=0 note=65 velocity=0 time=0
EXTRACT: note_on channel=0 note=65 velocity=89 time=0
EXTRACT: note_off channel=5 note=65 velocity=0 time=0
EXTRACT: note_on channel=5 note=65 velocity=89 time=0
EXTRACT: note_off channel=6 note=65 velocity=0 time=0
EXTRACT: note_on channel=6 note=65 velocity=89 time=0
EXTRACT: note_off channel=0 note=65 velocity=0 time=0
EXTRACT: note_on channel=0 note=68 velocity=89 time=0
EXTRACT: note_off channel=5 note=65 velocity=0 time=0
EXTRACT: note_on channel=5 note=68 velocity=89 time=0
EXTRACT: note_off channel=6 note=65 velocity=0 time=0
EXTRACT: note_on channel=6 note=68 velocity=89 time=0
EXTRACT: note_off channel=0 note=68 velocity=0 time=0
EXTRACT: note_on channel=0 note=68 velocity=89 time=0
EXTRACT: note_off channel=1 note=53 velocity=0 time=0
EXTRACT: note_off channel=1 note=56 velocity=0 time=0
EXTRACT: note_off channel=1 note=60 velocity=0 time=0
EXTRACT: note_on channel=1 note=56 velocity=89 time=0
EXTRACT: note_on channel=1 note=53 velocity=89 time=0
EXTRACT: note_on channel=1 note=61 velocity=89 time=0
EXTRACT: note_off channel=2 note=41 velocity=0 time=0
EXTRACT: note_off channel=2 note=29 velocity=0 time=0
EXTRACT: note_on channel=2 note=25 velocity=89 time=0
EXTRACT: note_on channel=2 note=37 velocity=89 time=0
EXTRACT: note_off channel=3 note=41 velocity=0 time=0
EXTRACT: note_off channel=3 note=29 velocity=0 time=0
EXTRACT: note_on channel=3 note=25 velocity=89 time=0
EXTRACT: note_on channel=3 note=37 velocity=89 time=0
EXTRACT: note_off channel=4 note=41 velocity=0 time=0
EXTRACT: note_off channel=4 note=29 velocity=0 time=0
EXTRACT: note_on channel=4 note=25 velocity=89 time=0
EXTRACT: note_on channel=4 note=37 velocity=89 time=0
EXTRACT: note_off channel=5 note=68 velocity=0 time=0
EXTRACT: note_on channel=5 note=68 velocity=89 time=0
EXTRACT: note_off channel=6 note=68 velocity=0 time=0
EXTRACT: note_on channel=6 note=68 velocity=89 time=0
EXTRACT: note_off channel=8 note=53 velocity=0 time=0
EXTRACT: note_off channel=8 note=56 velocity=0 time=0
EXTRACT: note_off channel=8 note=60 velocity=0 time=0
EXTRACT: note_on channel=8 note=56 velocity=89 time=0
EXTRACT: note_on channel=8 note=53 velocity=89 time=0
EXTRACT: note_on channel=8 note=61 velocity=89 time=0
EXTRACT: note_off channel=9 note=36 velocity=0 time=0
EXTRACT: note_on channel=9 note=36 velocity=89 time=0
EXTRACT: note_off channel=0 note=68 velocity=0 time=0
EXTRACT: note_on channel=0 note=70 velocity=89 time=0
EXTRACT: note_off channel=5 note=68 velocity=0 time=0
EXTRACT: note_on channel=5 note=70 velocity=89 time=0
EXTRACT: note_off channel=6 note=68 velocity=0 time=0
EXTRACT: note_on channel=6 note=70 velocity=89 time=0
EXTRACT: note_off channel=0 note=70 velocity=0 time=0
EXTRACT: note_on channel=0 note=70 velocity=89 time=0
EXTRACT: note_off channel=5 note=70 velocity=0 time=0
EXTRACT: note_on channel=5 note=70 velocity=89 time=0
EXTRACT: note_off channel=6 note=70 velocity=0 time=0
EXTRACT: note_on channel=6 note=70 velocity=89 time=0
EXTRACT: note_off channel=0 note=70 velocity=0 time=0
EXTRACT: note_on channel=0 note=70 velocity=89 time=0
EXTRACT: note_off channel=5 note=70 velocity=0 time=0
EXTRACT: note_on channel=5 note=70 velocity=89 time=0
EXTRACT: note_off channel=6 note=70 velocity=0 time=0
EXTRACT: note_on channel=6 note=70 velocity=89 time=0
EXTRACT: note_off channel=9 note=36 velocity=0 time=0
EXTRACT: note_off channel=1 note=61 velocity=0 time=0
EXTRACT: note_off channel=1 note=53 velocity=0 time=0
EXTRACT: note_off channel=1 note=56 velocity=0 time=0
EXTRACT: note_on channel=1 note=60 velocity=89 time=0
EXTRACT: note_on channel=1 note=56 velocity=89 time=0
EXTRACT: note_on channel=1 note=51 velocity=89 time=0
EXTRACT: note_off channel=2 note=37 velocity=0 time=0
EXTRACT: note_off channel=2 note=25 velocity=0 time=0
EXTRACT: note_on channel=2 note=44 velocity=89 time=0
EXTRACT: note_on channel=2 note=32 velocity=89 time=0
EXTRACT: note_off channel=3 note=37 velocity=0 time=0
EXTRACT: note_off channel=3 note=25 velocity=0 time=0
EXTRACT: note_on channel=3 note=44 velocity=89 time=0
EXTRACT: note_on channel=3 note=32 velocity=89 time=0
EXTRACT: note_off channel=4 note=37 velocity=0 time=0
EXTRACT: note_off channel=4 note=25 velocity=0 time=0
EXTRACT: note_on channel=4 note=44 velocity=89 time=0
EXTRACT: note_on channel=4 note=32 velocity=89 time=0
EXTRACT: note_off channel=8 note=61 velocity=0 time=0
EXTRACT: note_off channel=8 note=53 velocity=0 time=0
EXTRACT: note_off channel=8 note=56 velocity=0 time=0
EXTRACT: note_on channel=8 note=60 velocity=89 time=0
EXTRACT: note_on channel=8 note=56 velocity=89 time=0
EXTRACT: note_on channel=8 note=51 velocity=89 time=0
EXTRACT: note_on channel=9 note=36 velocity=89 time=0
EXTRACT: note_off channel=0 note=70 velocity=0 time=0.1875
EXTRACT: note_on channel=0 note=72 velocity=89 time=0
EXTRACT: note_off channel=5 note=70 velocity=0 time=0
EXTRACT: note_on channel=5 note=72 velocity=89 time=0
EXTRACT: note_off channel=6 note=70 velocity=0 time=0
EXTRACT: note_on channel=6 note=72 velocity=89 time=0
EXTRACT: note_off channel=0 note=72 velocity=0 time=0
EXTRACT: note_on channel=0 note=70 velocity=89 time=0
EXTRACT: note_off channel=5 note=72 velocity=0 time=0
EXTRACT: note_on channel=5 note=70 velocity=89 time=0
EXTRACT: note_off channel=6 note=72 velocity=0 time=0
EXTRACT: note_on channel=6 note=70 velocity=89 time=0
EXTRACT: note_off channel=0 note=70 velocity=0 time=0
EXTRACT: note_on channel=0 note=68 velocity=89 time=0
EXTRACT: note_off channel=1 note=51 velocity=0 time=0
EXTRACT: note_off channel=1 note=56 velocity=0 time=0
EXTRACT: note_off channel=1 note=60 velocity=0 time=0
EXTRACT: note_on channel=1 note=51 velocity=89 time=0
EXTRACT: note_on channel=1 note=55 velocity=89 time=0
EXTRACT: note_on channel=1 note=58 velocity=89 time=0
EXTRACT: note_off channel=2 note=32 velocity=0 time=0
EXTRACT: note_off channel=2 note=44 velocity=0 time=0
EXTRACT: note_on channel=2 note=39 velocity=89 time=0
EXTRACT: note_on channel=2 note=27 velocity=89 time=0
EXTRACT: note_off channel=3 note=32 velocity=0 time=0
EXTRACT: note_off channel=3 note=44 velocity=0 time=0
EXTRACT: note_on channel=3 note=39 velocity=89 time=0
EXTRACT: note_on channel=3 note=27 velocity=89 time=0
EXTRACT: note_off channel=4 note=32 velocity=0 time=0
EXTRACT: note_off channel=4 note=44 velocity=0 time=0
EXTRACT: note_on channel=4 note=39 velocity=89 time=0
EXTRACT: note_on channel=4 note=27 velocity=89 time=0
EXTRACT: note_off channel=5 note=70 velocity=0 time=0
EXTRACT: note_on channel=5 note=68 velocity=89 time=0
EXTRACT: note_off channel=6 note=70 velocity=0 time=0
EXTRACT: note_on channel=6 note=68 velocity=89 time=0
EXTRACT: note_off channel=8 note=51 velocity=0 time=0
EXTRACT: note_off channel=8 note=56 velocity=0 time=0
EXTRACT: note_off channel=8 note=60 velocity=0 time=0
EXTRACT: note_on channel=8 note=51 velocity=89 time=0
EXTRACT: note_on channel=8 note=55 velocity=89 time=0
EXTRACT: note_on channel=8 note=58 velocity=89 time=0
EXTRACT: note_off channel=9 note=36 velocity=0 time=0
EXTRACT: note_on channel=9 note=36 velocity=89 time=0
EXTRACT: note_off channel=9 note=36 velocity=0 time=0
EXTRACT: note_on channel=9 note=36 velocity=89 time=0
EXTRACT: note_off channel=0 note=68 velocity=0 time=0
EXTRACT: note_on channel=0 note=68 velocity=89 time=0
EXTRACT: note_off channel=5 note=68 velocity=0 time=0
EXTRACT: note_on channel=5 note=68 velocity=89 time=0
EXTRACT: note_off channel=6 note=68 velocity=0 time=0
EXTRACT: note_on channel=6 note=68 velocity=89 time=0
EXTRACT: note_off channel=0 note=68 velocity=0 time=0
EXTRACT: note_on channel=0 note=75 velocity=89 time=0
EXTRACT: note_off channel=5 note=68 velocity=0 time=0
EXTRACT: note_on channel=5 note=75 velocity=89 time=0
EXTRACT: note_off channel=6 note=68 velocity=0 time=0
EXTRACT: note_on channel=6 note=75 velocity=89 time=0
EXTRACT: note_off channel=0 note=75 velocity=0 time=0
EXTRACT: note_on channel=0 note=70 velocity=89 time=0
EXTRACT: note_off channel=5 note=75 velocity=0 time=0
EXTRACT: note_on channel=5 note=70 velocity=89 time=0
EXTRACT: note_off channel=6 note=75 velocity=0 time=0
EXTRACT: note_on channel=6 note=70 velocity=89 time=0
EXTRACT: note_off channel=9 note=36 velocity=0 time=0
EXTRACT: note_off channel=0 note=70 velocity=0 time=0
EXTRACT: note_on channel=0 note=68 velocity=89 time=0
EXTRACT: note_off channel=5 note=70 velocity=0 time=0
EXTRACT: note_on channel=5 note=68 velocity=89 time=0
EXTRACT: note_off channel=6 note=70 velocity=0 time=0
EXTRACT: note_on channel=6 note=68 velocity=89 time=0
EXTRACT: note_off channel=1 note=58 velocity=0 time=0
EXTRACT: note_off channel=1 note=55 velocity=0 time=0
EXTRACT: note_off channel=1 note=51 velocity=0 time=0
EXTRACT: note_on channel=1 note=60 velocity=89 time=0
EXTRACT: note_on channel=1 note=56 velocity=89 time=0
EXTRACT: note_on channel=1 note=53 velocity=89 time=0
EXTRACT: note_off channel=2 note=27 velocity=0 time=0
EXTRACT: note_off channel=2 note=39 velocity=0 time=0
EXTRACT: note_on channel=2 note=29 velocity=89 time=0
EXTRACT: note_on channel=2 note=41 velocity=89 time=0
EXTRACT: note_off channel=3 note=27 velocity=0 time=0
EXTRACT: note_off channel=3 note=39 velocity=0 time=0
EXTRACT: note_on channel=3 note=29 velocity=89 time=0
EXTRACT: note_on channel=3 note=41 velocity=89 time=0
EXTRACT: note_off channel=4 note=27 velocity=0 time=0
EXTRACT: note_off channel=4 note=39 velocity=0 time=0
EXTRACT: note_on channel=4 note=29 velocity=89 time=0
EXTRACT: note_on channel=4 note=41 velocity=89 time=0
EXTRACT: note_off channel=8 note=58 velocity=0 time=0
EXTRACT: note_off channel=8 note=55 velocity=0 time=0
EXTRACT: note_off channel=8 note=51 velocity=0 time=0
EXTRACT: note_on channel=8 note=60 velocity=89 time=0
EXTRACT: note_on channel=8 note=56 velocity=89 time=0
EXTRACT: note_on channel=8 note=53 velocity=89 time=0
EXTRACT: note_on channel=9 note=36 velocity=89 time=0
EXTRACT: note_off channel=0 note=68 velocity=0 time=0
EXTRACT: note_on channel=0 note=70 velocity=89 time=0
EXTRACT: note_off channel=5 note=68 velocity=0 time=0
EXTRACT: note_on channel=5 note=70 velocity=89 time=0
EXTRACT: note_off channel=6 note=68 velocity=0 time=0
EXTRACT: note_on channel=6 note=70 velocity=89 time=0
EXTRACT: note_off channel=0 note=70 velocity=0 time=0
EXTRACT: note_on channel=0 note=72 velocity=89 time=0
EXTRACT: note_off channel=5 note=70 velocity=0 time=0
EXTRACT: note_on channel=5 note=72 velocity=89 time=0
EXTRACT: note_off channel=6 note=70 velocity=0 time=0
EXTRACT: note_on channel=6 note=72 velocity=89 time=0
EXTRACT: note_off channel=0 note=72 velocity=0 time=0.1875
EXTRACT: note_off channel=5 note=72 velocity=0 time=0
EXTRACT: note_off channel=6 note=72 velocity=0 time=0
EXTRACT: note_on channel=0 note=68 velocity=89 time=0
EXTRACT: note_off channel=1 note=53 velocity=0 time=0
EXTRACT: note_off channel=1 note=56 velocity=0 time=0
EXTRACT: note_off channel=1 note=60 velocity=0 time=0
EXTRACT: note_on channel=1 note=56 velocity=89 time=0
EXTRACT: note_on channel=1 note=53 velocity=89 time=0
EXTRACT: note_on channel=1 note=61 velocity=89 time=0
EXTRACT: note_off channel=2 note=41 velocity=0 time=0
EXTRACT: note_off channel=2 note=29 velocity=0 time=0
EXTRACT: note_on channel=2 note=25 velocity=89 time=0
EXTRACT: note_on channel=2 note=37 velocity=89 time=0
EXTRACT: note_off channel=3 note=41 velocity=0 time=0
EXTRACT: note_off channel=3 note=29 velocity=0 time=0
EXTRACT: note_on channel=3 note=25 velocity=89 time=0
EXTRACT: note_on channel=3 note=37 velocity=89 time=0
EXTRACT: note_off channel=4 note=41 velocity=0 time=0
EXTRACT: note_off channel=4 note=29 velocity=0 time=0
EXTRACT: note_on channel=4 note=25 velocity=89 time=0
EXTRACT: note_on channel=4 note=37 velocity=89 time=0
EXTRACT: note_on channel=5 note=68 velocity=89 time=0
EXTRACT: note_on channel=6 note=68 velocity=89 time=0
EXTRACT: note_off channel=8 note=53 velocity=0 time=0
EXTRACT: note_off channel=8 note=56 velocity=0 time=0
EXTRACT: note_off channel=8 note=60 velocity=0 time=0
EXTRACT: note_on channel=8 note=56 velocity=89 time=0
EXTRACT: note_on channel=8 note=53 velocity=89 time=0
EXTRACT: note_on channel=8 note=61 velocity=89 time=0
EXTRACT: note_off channel=9 note=36 velocity=0 time=0
EXTRACT: note_on channel=9 note=36 velocity=89 time=0
EXTRACT: note_off channel=0 note=68 velocity=0 time=0
EXTRACT: note_on channel=0 note=68 velocity=89 time=0
EXTRACT: note_off channel=5 note=68 velocity=0 time=0
EXTRACT: note_on channel=5 note=68 velocity=89 time=0
EXTRACT: note_off channel=6 note=68 velocity=0 time=0
EXTRACT: note_on channel=6 note=68 velocity=89 time=0
EXTRACT: note_off channel=0 note=68 velocity=0 time=0
EXTRACT: note_on channel=0 note=65 velocity=89 time=0
EXTRACT: note_off channel=5 note=68 velocity=0 time=0
EXTRACT: note_on channel=5 note=65 velocity=89 time=0
EXTRACT: note_off channel=6 note=68 velocity=0 time=0
EXTRACT: note_on channel=6 note=65 velocity=89 time=0
EXTRACT: note_off channel=0 note=65 velocity=0 time=0
EXTRACT: note_on channel=0 note=63 velocity=89 time=0
EXTRACT: note_off channel=5 note=65 velocity=0 time=0
EXTRACT: note_on channel=5 note=63 velocity=89 time=0
EXTRACT: note_off channel=6 note=65 velocity=0 time=0
EXTRACT: note_on channel=6 note=63 velocity=89 time=0
EXTRACT: note_off channel=0 note=63 velocity=0 time=0.1875
EXTRACT: note_off channel=5 note=63 velocity=0 time=0
EXTRACT: note_off channel=6 note=63 velocity=0 time=0
EXTRACT: note_off channel=9 note=36 velocity=0 time=0
EXTRACT: note_on channel=0 note=68 velocity=89 time=0
EXTRACT: note_on channel=5 note=68 velocity=89 time=0
EXTRACT: note_on channel=6 note=68 velocity=89 time=0
EXTRACT: note_off channel=0 note=68 velocity=0 time=0
EXTRACT: note_on channel=0 note=68 velocity=89 time=0
EXTRACT: note_off channel=5 note=68 velocity=0 time=0
EXTRACT: note_on channel=5 note=68 velocity=89 time=0
EXTRACT: note_off channel=6 note=68 velocity=0 time=0
EXTRACT: note_on channel=6 note=68 velocity=89 time=0
EXTRACT: note_off channel=0 note=68 velocity=0 time=0
EXTRACT: note_on channel=0 note=68 velocity=89 time=0
EXTRACT: note_off channel=5 note=68 velocity=0 time=0
EXTRACT: note_on channel=5 note=68 velocity=89 time=0
EXTRACT: note_off channel=6 note=68 velocity=0 time=0
EXTRACT: note_on channel=6 note=68 velocity=89 time=0
EXTRACT: note_off channel=0 note=68 velocity=0 time=0
EXTRACT: note_on channel=0 note=68 velocity=89 time=0
EXTRACT: note_off channel=1 note=61 velocity=0 time=0
EXTRACT: note_off channel=1 note=53 velocity=0 time=0
EXTRACT: note_off channel=1 note=56 velocity=0 time=0
EXTRACT: note_on channel=1 note=60 velocity=89 time=0
EXTRACT: note_on channel=1 note=56 velocity=89 time=0
EXTRACT: note_on channel=1 note=51 velocity=89 time=0
EXTRACT: note_off channel=2 note=37 velocity=0 time=0
EXTRACT: note_off channel=2 note=25 velocity=0 time=0
EXTRACT: note_on channel=2 note=44 velocity=89 time=0
EXTRACT: note_on channel=2 note=32 velocity=89 time=0
EXTRACT: note_off channel=3 note=37 velocity=0 time=0
EXTRACT: note_off channel=3 note=25 velocity=0 time=0
EXTRACT: note_on channel=3 note=44 velocity=89 time=0
EXTRACT: note_on channel=3 note=32 velocity=89 time=0
EXTRACT: note_off channel=4 note=37 velocity=0 time=0
EXTRACT: note_off channel=4 note=25 velocity=0 time=0
EXTRACT: note_on channel=4 note=44 velocity=89 time=0
EXTRACT: note_on channel=4 note=32 velocity=89 time=0
EXTRACT: note_off channel=5 note=68 velocity=0 time=0
EXTRACT: note_on channel=5 note=68 velocity=89 time=0
EXTRACT: note_off channel=6 note=68 velocity=0 time=0
EXTRACT: note_on channel=6 note=68 velocity=89 time=0
EXTRACT: note_off channel=8 note=61 velocity=0 time=0
EXTRACT: note_off channel=8 note=53 velocity=0 time=0
EXTRACT: note_off channel=8 note=56 velocity=0 time=0
EXTRACT: note_on channel=8 note=60 velocity=89 time=0
EXTRACT: note_on channel=8 note=56 velocity=89 time=0
EXTRACT: note_on channel=8 note=51 velocity=89 time=0
EXTRACT: note_on channel=9 note=36 velocity=89 time=0
EXTRACT: note_off channel=0 note=68 velocity=0 time=0
EXTRACT: note_on channel=0 note=67 velocity=89 time=0
EXTRACT: note_off channel=5 note=68 velocity=0 time=0
EXTRACT: note_on channel=5 note=67 velocity=89 time=0
EXTRACT: note_off channel=6 note=68 velocity=0 time=0
EXTRACT: note_on channel=6 note=67 velocity=89 time=0
EXTRACT: note_off channel=0 note=67 velocity=0 time=0
EXTRACT: note_on channel=0 note=65 velocity=89 time=0
EXTRACT: note_off channel=5 note=67 velocity=0 time=0
EXTRACT: note_on channel=5 note=65 velocity=89 time=0
EXTRACT: note_off channel=6 note=67 velocity=0 time=0
EXTRACT: note_on channel=6 note=65 velocity=89 time=0
EXTRACT: note_off channel=0 note=65 velocity=0 time=0
EXTRACT: note_on channel=0 note=63 velocity=89 time=0
EXTRACT: note_off channel=5 note=65 velocity=0 time=0
EXTRACT: note_on channel=5 note=63 velocity=89 time=0
EXTRACT: note_off channel=6 note=65 velocity=0 time=0
EXTRACT: note_on channel=6 note=63 velocity=89 time=0
EXTRACT: note_off channel=0 note=63 velocity=0 time=0
EXTRACT: note_on channel=0 note=63 velocity=89 time=0
EXTRACT: note_off channel=1 note=51 velocity=0 time=0
EXTRACT: note_off channel=1 note=56 velocity=0 time=0
EXTRACT: note_off channel=1 note=60 velocity=0 time=0
EXTRACT: note_on channel=1 note=51 velocity=89 time=0
EXTRACT: note_on channel=1 note=55 velocity=89 time=0
EXTRACT: note_on channel=1 note=58 velocity=89 time=0
EXTRACT: note_off channel=2 note=32 velocity=0 time=0
EXTRACT: note_off channel=2 note=44 velocity=0 time=0
EXTRACT: note_on channel=2 note=39 velocity=89 time=0
EXTRACT: note_on channel=2 note=27 velocity=89 time=0
EXTRACT: note_off channel=3 note=32 velocity=0 time=0
EXTRACT: note_off channel=3 note=44 velocity=0 time=0
EXTRACT: note_on channel=3 note=39 velocity=89 time=0
EXTRACT: note_on channel=3 note=27 velocity=89 time=0
EXTRACT: note_off channel=4 note=32 velocity=0 time=0
EXTRACT: note_off channel=4 note=44 velocity=0 time=0
EXTRACT: note_on channel=4 note=39 velocity=89 time=0
EXTRACT: note_on channel=4 note=27 velocity=89 time=0
EXTRACT: note_off channel=5 note=63 velocity=0 time=0
EXTRACT: note_on channel=5 note=63 velocity=89 time=0
EXTRACT: note_off channel=6 note=63 velocity=0 time=0
EXTRACT: note_on channel=6 note=63 velocity=89 time=0
EXTRACT: note_off channel=8 note=51 velocity=0 time=0
EXTRACT: note_off channel=8 note=56 velocity=0 time=0
EXTRACT: note_off channel=8 note=60 velocity=0 time=0
EXTRACT: note_on channel=8 note=51 velocity=89 time=0
EXTRACT: note_on channel=8 note=55 velocity=89 time=0
EXTRACT: note_on channel=8 note=58 velocity=89 time=0
EXTRACT: note_off channel=9 note=36 velocity=0 time=0
EXTRACT: note_on channel=9 note=36 velocity=89 time=0
EXTRACT: note_off channel=9 note=36 velocity=0 time=0
EXTRACT: note_on channel=9 note=36 velocity=89 time=0
EXTRACT: note_off channel=0 note=63 velocity=0 time=0
EXTRACT: note_on channel=0 note=63 velocity=89 time=0
EXTRACT: note_off channel=5 note=63 velocity=0 time=0
EXTRACT: note_on channel=5 note=63 velocity=89 time=0
EXTRACT: note_off channel=6 note=63 velocity=0 time=0
EXTRACT: note_on channel=6 note=63 velocity=89 time=0
EXTRACT: note_off channel=0 note=63 velocity=0 time=0
EXTRACT: note_on channel=0 note=63 velocity=89 time=0
EXTRACT: note_off channel=5 note=63 velocity=0 time=0
EXTRACT: note_on channel=5 note=63 velocity=89 time=0
EXTRACT: note_off channel=6 note=63 velocity=0 time=0
EXTRACT: note_on channel=6 note=63 velocity=89 time=0
EXTRACT: note_off channel=0 note=63 velocity=0 time=0
EXTRACT: note_on channel=0 note=75 velocity=89 time=0
EXTRACT: note_off channel=5 note=63 velocity=0 time=0
EXTRACT: note_on channel=5 note=75 velocity=89 time=0
EXTRACT: note_off channel=6 note=63 velocity=0 time=0
EXTRACT: note_on channel=6 note=75 velocity=89 time=0
EXTRACT: note_off channel=0 note=75 velocity=0 time=0
EXTRACT: note_on channel=0 note=70 velocity=89 time=0
EXTRACT: note_off channel=5 note=75 velocity=0 time=0
EXTRACT: note_on channel=5 note=70 velocity=89 time=0
EXTRACT: note_off channel=6 note=75 velocity=0 time=0
EXTRACT: note_on channel=6 note=70 velocity=89 time=0
EXTRACT: note_off channel=9 note=36 velocity=0 time=0
EXTRACT: note_off channel=0 note=70 velocity=0 time=0
EXTRACT: note_on channel=0 note=68 velocity=89 time=0
EXTRACT: note_off channel=5 note=70 velocity=0 time=0
EXTRACT: note_on channel=5 note=68 velocity=89 time=0
EXTRACT: note_off channel=6 note=70 velocity=0 time=0
EXTRACT: note_on channel=6 note=68 velocity=89 time=0
EXTRACT: note_off channel=1 note=58 velocity=0 time=0
EXTRACT: note_off channel=1 note=55 velocity=0 time=0
EXTRACT: note_off channel=1 note=51 velocity=0 time=0
EXTRACT: note_on channel=1 note=60 velocity=89 time=0
EXTRACT: note_on channel=1 note=56 velocity=89 time=0
EXTRACT: note_on channel=1 note=53 velocity=89 time=0
EXTRACT: note_off channel=2 note=27 velocity=0 time=0
EXTRACT: note_off channel=2 note=39 velocity=0 time=0
EXTRACT: note_on channel=2 note=29 velocity=89 time=0
EXTRACT: note_on channel=2 note=41 velocity=89 time=0
EXTRACT: note_off channel=3 note=27 velocity=0 time=0
EXTRACT: note_off channel=3 note=39 velocity=0 time=0
EXTRACT: note_on channel=3 note=29 velocity=89 time=0
EXTRACT: note_on channel=3 note=41 velocity=89 time=0
EXTRACT: note_off channel=4 note=27 velocity=0 time=0
EXTRACT: note_off channel=4 note=39 velocity=0 time=0
EXTRACT: note_on channel=4 note=29 velocity=89 time=0
EXTRACT: note_on channel=4 note=41 velocity=89 time=0
EXTRACT: note_off channel=8 note=58 velocity=0 time=0
EXTRACT: note_off channel=8 note=55 velocity=0 time=0
EXTRACT: note_off channel=8 note=51 velocity=0 time=0
EXTRACT: note_on channel=8 note=60 velocity=89 time=0
EXTRACT: note_on channel=8 note=56 velocity=89 time=0
EXTRACT: note_on channel=8 note=53 velocity=89 time=0
EXTRACT: note_on channel=9 note=36 velocity=89 time=0
EXTRACT: note_off channel=0 note=68 velocity=0 time=0
EXTRACT: note_on channel=0 note=70 velocity=89 time=0
EXTRACT: note_off channel=5 note=68 velocity=0 time=0
EXTRACT: note_on channel=5 note=70 velocity=89 time=0
EXTRACT: note_off channel=6 note=68 velocity=0 time=0
EXTRACT: note_on channel=6 note=70 velocity=89 time=0
EXTRACT: note_off channel=0 note=70 velocity=0 time=0
EXTRACT: note_on channel=0 note=72 velocity=89 time=0
EXTRACT: note_off channel=5 note=70 velocity=0 time=0
EXTRACT: note_on channel=5 note=72 velocity=89 time=0
EXTRACT: note_off channel=6 note=70 velocity=0 time=0
EXTRACT: note_on channel=6 note=72 velocity=89 time=0
EXTRACT: note_off channel=0 note=72 velocity=0 time=0.1875
EXTRACT: note_off channel=5 note=72 velocity=0 time=0
EXTRACT: note_off channel=6 note=72 velocity=0 time=0
EXTRACT: note_on channel=0 note=68 velocity=89 time=0
EXTRACT: note_off channel=1 note=53 velocity=0 time=0
EXTRACT: note_off channel=1 note=56 velocity=0 time=0
EXTRACT: note_off channel=1 note=60 velocity=0 time=0
EXTRACT: note_on channel=1 note=56 velocity=89 time=0
EXTRACT: note_on channel=1 note=53 velocity=89 time=0
EXTRACT: note_on channel=1 note=61 velocity=89 time=0
EXTRACT: note_off channel=2 note=41 velocity=0 time=0
EXTRACT: note_off channel=2 note=29 velocity=0 time=0
EXTRACT: note_on channel=2 note=25 velocity=89 time=0
EXTRACT: note_on channel=2 note=37 velocity=89 time=0
EXTRACT: note_off channel=3 note=41 velocity=0 time=0
EXTRACT: note_off channel=3 note=29 velocity=0 time=0
EXTRACT: note_on channel=3 note=25 velocity=89 time=0
EXTRACT: note_on channel=3 note=37 velocity=89 time=0
EXTRACT: note_off channel=4 note=41 velocity=0 time=0
EXTRACT: note_off channel=4 note=29 velocity=0 time=0
EXTRACT: note_on channel=4 note=25 velocity=89 time=0
EXTRACT: note_on channel=4 note=37 velocity=89 time=0
EXTRACT: note_on channel=5 note=68 velocity=89 time=0
EXTRACT: note_on channel=6 note=68 velocity=89 time=0
EXTRACT: note_off channel=8 note=53 velocity=0 time=0
EXTRACT: note_off channel=8 note=56 velocity=0 time=0
EXTRACT: note_off channel=8 note=60 velocity=0 time=0
EXTRACT: note_on channel=8 note=56 velocity=89 time=0
EXTRACT: note_on channel=8 note=53 velocity=89 time=0
EXTRACT: note_on channel=8 note=61 velocity=89 time=0
EXTRACT: note_off channel=9 note=36 velocity=0 time=0
EXTRACT: note_on channel=9 note=36 velocity=89 time=0
EXTRACT: note_off channel=0 note=68 velocity=0 time=0
EXTRACT: note_on channel=0 note=68 velocity=89 time=0
EXTRACT: note_off channel=5 note=68 velocity=0 time=0
EXTRACT: note_on channel=5 note=68 velocity=89 time=0
EXTRACT: note_off channel=6 note=68 velocity=0 time=0
EXTRACT: note_on channel=6 note=68 velocity=89 time=0
EXTRACT: note_off channel=0 note=68 velocity=0 time=0
EXTRACT: note_on channel=0 note=65 velocity=89 time=0
EXTRACT: note_off channel=5 note=68 velocity=0 time=0
EXTRACT: note_on channel=5 note=65 velocity=89 time=0
EXTRACT: note_off channel=6 note=68 velocity=0 time=0
EXTRACT: note_on channel=6 note=65 velocity=89 time=0
EXTRACT: note_off channel=0 note=65 velocity=0 time=0
EXTRACT: note_on channel=0 note=63 velocity=89 time=0
EXTRACT: note_off channel=5 note=65 velocity=0 time=0
EXTRACT: note_on channel=5 note=63 velocity=89 time=0
EXTRACT: note_off channel=6 note=65 velocity=0 time=0
EXTRACT: note_on channel=6 note=63 velocity=89 time=0
EXTRACT: note_off channel=0 note=63 velocity=0 time=0.1875
EXTRACT: note_off channel=5 note=63 velocity=0 time=0
EXTRACT: note_off channel=6 note=63 velocity=0 time=0
EXTRACT: note_off channel=9 note=36 velocity=0 time=0
EXTRACT: note_on channel=0 note=68 velocity=89 time=0
EXTRACT: note_off channel=1 note=61 velocity=0 time=0
EXTRACT: note_off channel=1 note=53 velocity=0 time=0
EXTRACT: note_off channel=1 note=56 velocity=0 time=0
EXTRACT: note_on channel=1 note=60 velocity=89 time=0
EXTRACT: note_on channel=1 note=56 velocity=89 time=0
EXTRACT: note_on channel=1 note=51 velocity=89 time=0
EXTRACT: note_off channel=2 note=37 velocity=0 time=0
EXTRACT: note_off channel=2 note=25 velocity=0 time=0
EXTRACT: note_on channel=2 note=44 velocity=89 time=0
EXTRACT: note_on channel=2 note=32 velocity=89 time=0
EXTRACT: note_off channel=3 note=37 velocity=0 time=0
EXTRACT: note_off channel=3 note=25 velocity=0 time=0
EXTRACT: note_on channel=3 note=44 velocity=89 time=0
EXTRACT: note_on channel=3 note=32 velocity=89 time=0
EXTRACT: note_off channel=4 note=37 velocity=0 time=0
EXTRACT: note_off channel=4 note=25 velocity=0 time=0
EXTRACT: note_on channel=4 note=44 velocity=89 time=0
EXTRACT: note_on channel=4 note=32 velocity=89 time=0
EXTRACT: note_on channel=5 note=68 velocity=89 time=0
EXTRACT: note_on channel=6 note=68 velocity=89 time=0
EXTRACT: note_off channel=8 note=61 velocity=0 time=0
EXTRACT: note_off channel=8 note=53 velocity=0 time=0
EXTRACT: note_off channel=8 note=56 velocity=0 time=0
EXTRACT: note_on channel=8 note=60 velocity=89 time=0
EXTRACT: note_on channel=8 note=56 velocity=89 time=0
EXTRACT: note_on channel=8 note=51 velocity=89 time=0
EXTRACT: note_on channel=9 note=36 velocity=89 time=0
EXTRACT: note_off channel=0 note=68 velocity=0 time=0
EXTRACT: note_on channel=0 note=67 velocity=89 time=0
EXTRACT: note_off channel=5 note=68 velocity=0 time=0
EXTRACT: note_on channel=5 note=67 velocity=89 time=0
EXTRACT: note_off channel=6 note=68 velocity=0 time=0
EXTRACT: note_on channel=6 note=67 velocity=89 time=0
EXTRACT: note_off channel=0 note=67 velocity=0 time=0
EXTRACT: note_on channel=0 note=65 velocity=89 time=0
EXTRACT: note_off channel=5 note=67 velocity=0 time=0
EXTRACT: note_on channel=5 note=65 velocity=89 time=0
EXTRACT: note_off channel=6 note=67 velocity=0 time=0
EXTRACT: note_on channel=6 note=65 velocity=89 time=0
EXTRACT: note_off channel=0 note=65 velocity=0 time=0
EXTRACT: note_on channel=0 note=63 velocity=89 time=0
EXTRACT: note_off channel=5 note=65 velocity=0 time=0
EXTRACT: note_on channel=5 note=63 velocity=89 time=0
EXTRACT: note_off channel=6 note=65 velocity=0 time=0
EXTRACT: note_on channel=6 note=63 velocity=89 time=0
EXTRACT: note_off channel=0 note=63 velocity=0 time=0
EXTRACT: note_on channel=0 note=63 velocity=89 time=0
EXTRACT: note_off channel=1 note=51 velocity=0 time=0
EXTRACT: note_off channel=1 note=56 velocity=0 time=0
EXTRACT: note_off channel=1 note=60 velocity=0 time=0
EXTRACT: note_on channel=1 note=51 velocity=89 time=0
EXTRACT: note_on channel=1 note=55 velocity=89 time=0
EXTRACT: note_on channel=1 note=58 velocity=89 time=0
EXTRACT: note_off channel=2 note=32 velocity=0 time=0
EXTRACT: note_off channel=2 note=44 velocity=0 time=0
EXTRACT: note_on channel=2 note=39 velocity=89 time=0
EXTRACT: note_on channel=2 note=27 velocity=89 time=0
EXTRACT: note_off channel=3 note=32 velocity=0 time=0
EXTRACT: note_off channel=3 note=44 velocity=0 time=0
EXTRACT: note_on channel=3 note=39 velocity=89 time=0
EXTRACT: note_on channel=3 note=27 velocity=89 time=0
EXTRACT: note_off channel=4 note=32 velocity=0 time=0
EXTRACT: note_off channel=4 note=44 velocity=0 time=0
EXTRACT: note_on channel=4 note=39 velocity=89 time=0
EXTRACT: note_on channel=4 note=27 velocity=89 time=0
EXTRACT: note_off channel=5 note=63 velocity=0 time=0
EXTRACT: note_on channel=5 note=63 velocity=89 time=0
EXTRACT: note_off channel=6 note=63 velocity=0 time=0
EXTRACT: note_on channel=6 note=63 velocity=89 time=0
EXTRACT: note_off channel=8 note=51 velocity=0 time=0
EXTRACT: note_off channel=8 note=56 velocity=0 time=0
EXTRACT: note_off channel=8 note=60 velocity=0 time=0
EXTRACT: note_on channel=8 note=51 velocity=89 time=0
EXTRACT: note_on channel=8 note=55 velocity=89 time=0
EXTRACT: note_on channel=8 note=58 velocity=89 time=0
EXTRACT: note_off channel=9 note=36 velocity=0 time=0
EXTRACT: note_on channel=9 note=36 velocity=89 time=0
EXTRACT: note_off channel=9 note=36 velocity=0 time=0
EXTRACT: note_on channel=9 note=36 velocity=89 time=0
EXTRACT: note_off channel=0 note=63 velocity=0 time=0
EXTRACT: note_on channel=0 note=65 velocity=89 time=0
EXTRACT: note_off channel=5 note=63 velocity=0 time=0
EXTRACT: note_on channel=5 note=65 velocity=89 time=0
EXTRACT: note_off channel=6 note=63 velocity=0 time=0
EXTRACT: note_on channel=6 note=65 velocity=89 time=0
EXTRACT: note_off channel=0 note=65 velocity=0 time=0.375
EXTRACT: note_off channel=5 note=65 velocity=0 time=0
EXTRACT: note_off channel=6 note=65 velocity=0 time=0
EXTRACT: note_off channel=9 note=36 velocity=0 time=0.375
EXTRACT: note_on channel=0 note=65 velocity=89 time=0
EXTRACT: note_off channel=1 note=58 velocity=0 time=0
EXTRACT: note_off channel=1 note=55 velocity=0 time=0
EXTRACT: note_off channel=1 note=51 velocity=0 time=0
EXTRACT: note_on channel=1 note=60 velocity=89 time=0
EXTRACT: note_on channel=1 note=56 velocity=89 time=0
EXTRACT: note_on channel=1 note=53 velocity=89 time=0
EXTRACT: note_off channel=2 note=27 velocity=0 time=0
EXTRACT: note_off channel=2 note=39 velocity=0 time=0
EXTRACT: note_on channel=2 note=29 velocity=89 time=0
EXTRACT: note_on channel=2 note=41 velocity=89 time=0
EXTRACT: note_off channel=3 note=27 velocity=0 time=0
EXTRACT: note_off channel=3 note=39 velocity=0 time=0
EXTRACT: note_on channel=3 note=29 velocity=89 time=0
EXTRACT: note_on channel=3 note=41 velocity=89 time=0
EXTRACT: note_off channel=4 note=27 velocity=0 time=0
EXTRACT: note_off channel=4 note=39 velocity=0 time=0
EXTRACT: note_on channel=4 note=29 velocity=89 time=0
EXTRACT: note_on channel=4 note=41 velocity=89 time=0
EXTRACT: note_on channel=5 note=65 velocity=89 time=0
EXTRACT: note_on channel=6 note=65 velocity=89 time=0
EXTRACT: note_off channel=8 note=58 velocity=0 time=0
EXTRACT: note_off channel=8 note=55 velocity=0 time=0
EXTRACT: note_off channel=8 note=51 velocity=0 time=0
EXTRACT: note_on channel=8 note=60 velocity=89 time=0
EXTRACT: note_on channel=8 note=56 velocity=89 time=0
EXTRACT: note_on channel=8 note=53 velocity=89 time=0
EXTRACT: note_on channel=9 note=36 velocity=89 time=0
EXTRACT: note_off channel=0 note=65 velocity=0 time=0
EXTRACT: note_on channel=0 note=65 velocity=89 time=0
EXTRACT: note_off channel=5 note=65 velocity=0 time=0
EXTRACT: note_on channel=5 note=65 velocity=89 time=0
EXTRACT: note_off channel=6 note=65 velocity=0 time=0
EXTRACT: note_on channel=6 note=65 velocity=89 time=0
EXTRACT: note_off channel=0 note=65 velocity=0 time=0
EXTRACT: note_on channel=0 note=68 velocity=89 time=0
EXTRACT: note_off channel=5 note=65 velocity=0 time=0
EXTRACT: note_on channel=5 note=68 velocity=89 time=0
EXTRACT: note_off channel=6 note=65 velocity=0 time=0
EXTRACT: note_on channel=6 note=68 velocity=89 time=0
EXTRACT: note_off channel=0 note=68 velocity=0 time=0
EXTRACT: note_on channel=0 note=68 velocity=89 time=0
EXTRACT: note_off channel=1 note=53 velocity=0 time=0
EXTRACT: note_off channel=1 note=56 velocity=0 time=0
EXTRACT: note_off channel=1 note=60 velocity=0 time=0
EXTRACT: note_on channel=1 note=56 velocity=89 time=0
EXTRACT: note_on channel=1 note=53 velocity=89 time=0
EXTRACT: note_on channel=1 note=61 velocity=89 time=0
EXTRACT: note_off channel=2 note=41 velocity=0 time=0
EXTRACT: note_off channel=2 note=29 velocity=0 time=0
EXTRACT: note_on channel=2 note=25 velocity=89 time=0
EXTRACT: note_on channel=2 note=37 velocity=89 time=0
EXTRACT: note_off channel=3 note=41 velocity=0 time=0
EXTRACT: note_off channel=3 note=29 velocity=0 time=0
EXTRACT: note_on channel=3 note=25 velocity=89 time=0
EXTRACT: note_on channel=3 note=37 velocity=89 time=0
EXTRACT: note_off channel=4 note=41 velocity=0 time=0
EXTRACT: note_off channel=4 note=29 velocity=0 time=0
EXTRACT: note_on channel=4 note=25 velocity=89 time=0
EXTRACT: note_on channel=4 note=37 velocity=89 time=0
EXTRACT: note_off channel=5 note=68 velocity=0 time=0
EXTRACT: note_on channel=5 note=68 velocity=89 time=0
EXTRACT: note_off channel=6 note=68 velocity=0 time=0
EXTRACT: note_on channel=6 note=68 velocity=89 time=0
EXTRACT: note_off channel=8 note=53 velocity=0 time=0
EXTRACT: note_off channel=8 note=56 velocity=0 time=0
EXTRACT: note_off channel=8 note=60 velocity=0 time=0
EXTRACT: note_on channel=8 note=56 velocity=89 time=0
EXTRACT: note_on channel=8 note=53 velocity=89 time=0
EXTRACT: note_on channel=8 note=61 velocity=89 time=0
EXTRACT: note_off channel=9 note=36 velocity=0 time=0
EXTRACT: note_on channel=9 note=36 velocity=89 time=0
EXTRACT: note_off channel=0 note=68 velocity=0 time=0
EXTRACT: note_on channel=0 note=70 velocity=89 time=0
EXTRACT: note_off channel=5 note=68 velocity=0 time=0
EXTRACT: note_on channel=5 note=70 velocity=89 time=0
EXTRACT: note_off channel=6 note=68 velocity=0 time=0
EXTRACT: note_on channel=6 note=70 velocity=89 time=0
EXTRACT: note_off channel=0 note=70 velocity=0 time=0
EXTRACT: note_on channel=0 note=70 velocity=89 time=0
EXTRACT: note_off channel=5 note=70 velocity=0 time=0
EXTRACT: note_on channel=5 note=70 velocity=89 time=0
EXTRACT: note_off channel=6 note=70 velocity=0 time=0
EXTRACT: note_on channel=6 note=70 velocity=89 time=0
EXTRACT: note_off channel=9 note=36 velocity=0 time=0
EXTRACT: note_off channel=0 note=70 velocity=0 time=0.5625
EXTRACT: note_on channel=0 note=72 velocity=89 time=0
EXTRACT: note_off channel=5 note=70 velocity=0 time=0
EXTRACT: note_on channel=5 note=72 velocity=89 time=0
EXTRACT: note_off channel=6 note=70 velocity=0 time=0
EXTRACT: note_on channel=6 note=72 velocity=89 time=0
EXTRACT: note_off channel=0 note=72 velocity=0 time=0
EXTRACT: note_on channel=0 note=70 velocity=89 time=0
EXTRACT: note_off channel=1 note=61 velocity=0 time=0
EXTRACT: note_off channel=1 note=53 velocity=0 time=0
EXTRACT: note_off channel=1 note=56 velocity=0 time=0
EXTRACT: note_on channel=1 note=60 velocity=89 time=0
EXTRACT: note_on channel=1 note=56 velocity=89 time=0
EXTRACT: note_on channel=1 note=51 velocity=89 time=0
EXTRACT: note_off channel=2 note=37 velocity=0 time=0
EXTRACT: note_off channel=2 note=25 velocity=0 time=0
EXTRACT: note_on channel=2 note=44 velocity=89 time=0
EXTRACT: note_on channel=2 note=32 velocity=89 time=0
EXTRACT: note_off channel=3 note=37 velocity=0 time=0
EXTRACT: note_off channel=3 note=25 velocity=0 time=0
EXTRACT: note_on channel=3 note=44 velocity=89 time=0
EXTRACT: note_on channel=3 note=32 velocity=89 time=0
EXTRACT: note_off channel=4 note=37 velocity=0 time=0
EXTRACT: note_off channel=4 note=25 velocity=0 time=0
EXTRACT: note_on channel=4 note=44 velocity=89 time=0
EXTRACT: note_on channel=4 note=32 velocity=89 time=0
EXTRACT: note_off channel=5 note=72 velocity=0 time=0
EXTRACT: note_on channel=5 note=70 velocity=89 time=0
EXTRACT: note_off channel=6 note=72 velocity=0 time=0
EXTRACT: note_on channel=6 note=70 velocity=89 time=0
EXTRACT: note_off channel=8 note=61 velocity=0 time=0
EXTRACT: note_off channel=8 note=53 velocity=0 time=0
EXTRACT: note_off channel=8 note=56 velocity=0 time=0
EXTRACT: note_on channel=8 note=60 velocity=89 time=0
EXTRACT: note_on channel=8 note=56 velocity=89 time=0
EXTRACT: note_on channel=8 note=51 velocity=89 time=0
EXTRACT: note_on channel=9 note=36 velocity=89 time=0
EXTRACT: note_off channel=0 note=70 velocity=0 time=1.125
EXTRACT: note_on channel=0 note=68 velocity=89 time=0
EXTRACT: note_off channel=1 note=51 velocity=0 time=0
EXTRACT: note_off channel=1 note=56 velocity=0 time=0
EXTRACT: note_off channel=1 note=60 velocity=0 time=0
EXTRACT: note_on channel=1 note=51 velocity=89 time=0
EXTRACT: note_on channel=1 note=55 velocity=89 time=0
EXTRACT: note_on channel=1 note=58 velocity=89 time=0
EXTRACT: note_off channel=2 note=32 velocity=0 time=0
EXTRACT: note_off channel=2 note=44 velocity=0 time=0
EXTRACT: note_on channel=2 note=39 velocity=89 time=0
EXTRACT: note_on channel=2 note=27 velocity=89 time=0
EXTRACT: note_off channel=3 note=32 velocity=0 time=0
EXTRACT: note_off channel=3 note=44 velocity=0 time=0
EXTRACT: note_on channel=3 note=39 velocity=89 time=0
EXTRACT: note_on channel=3 note=27 velocity=89 time=0
EXTRACT: note_off channel=4 note=32 velocity=0 time=0
EXTRACT: note_off channel=4 note=44 velocity=0 time=0
EXTRACT: note_on channel=4 note=39 velocity=89 time=0
EXTRACT: note_on channel=4 note=27 velocity=89 time=0
EXTRACT: note_off channel=5 note=70 velocity=0 time=0
EXTRACT: note_on channel=5 note=68 velocity=89 time=0
EXTRACT: note_off channel=6 note=70 velocity=0 time=0
EXTRACT: note_on channel=6 note=68 velocity=89 time=0
EXTRACT: note_off channel=8 note=51 velocity=0 time=0
EXTRACT: note_off channel=8 note=56 velocity=0 time=0
EXTRACT: note_off channel=8 note=60 velocity=0 time=0
EXTRACT: note_on channel=8 note=51 velocity=89 time=0
EXTRACT: note_on channel=8 note=55 velocity=89 time=0
EXTRACT: note_on channel=8 note=58 velocity=89 time=0
EXTRACT: note_off channel=9 note=36 velocity=0 time=0
EXTRACT: note_on channel=9 note=36 velocity=89 time=0
EXTRACT: note_off channel=9 note=36 velocity=0 time=0
EXTRACT: note_on channel=9 note=36 velocity=89 time=0
EXTRACT: note_off channel=0 note=68 velocity=0 time=0
EXTRACT: note_on channel=0 note=65 velocity=89 time=0
EXTRACT: note_off channel=5 note=68 velocity=0 time=0
EXTRACT: note_on channel=5 note=65 velocity=89 time=0
EXTRACT: note_off channel=6 note=68 velocity=0 time=0
EXTRACT: note_on channel=6 note=65 velocity=89 time=0
EXTRACT: note_off channel=0 note=65 velocity=0 time=0.375
EXTRACT: note_off channel=5 note=65 velocity=0 time=0
EXTRACT: note_off channel=6 note=65 velocity=0 time=0
EXTRACT: note_on channel=0 note=65 velocity=89 time=0
EXTRACT: note_on channel=5 note=65 velocity=89 time=0
EXTRACT: note_on channel=6 note=65 velocity=89 time=0
EXTRACT: note_off channel=9 note=36 velocity=0 time=0
EXTRACT: note_off channel=0 note=65 velocity=0 time=0
EXTRACT: note_on channel=0 note=65 velocity=89 time=0
EXTRACT: note_off channel=1 note=58 velocity=0 time=0
EXTRACT: note_off channel=1 note=55 velocity=0 time=0
EXTRACT: note_off channel=1 note=51 velocity=0 time=0
EXTRACT: note_on channel=1 note=60 velocity=89 time=0
EXTRACT: note_on channel=1 note=56 velocity=89 time=0
EXTRACT: note_on channel=1 note=53 velocity=89 time=0
EXTRACT: note_off channel=2 note=27 velocity=0 time=0
EXTRACT: note_off channel=2 note=39 velocity=0 time=0
EXTRACT: note_on channel=2 note=29 velocity=89 time=0
EXTRACT: note_on channel=2 note=41 velocity=89 time=0
EXTRACT: note_off channel=3 note=27 velocity=0 time=0
EXTRACT: note_off channel=3 note=39 velocity=0 time=0
EXTRACT: note_on channel=3 note=29 velocity=89 time=0
EXTRACT: note_on channel=3 note=41 velocity=89 time=0
EXTRACT: note_off channel=4 note=27 velocity=0 time=0
EXTRACT: note_off channel=4 note=39 velocity=0 time=0
EXTRACT: note_on channel=4 note=29 velocity=89 time=0
EXTRACT: note_on channel=4 note=41 velocity=89 time=0
EXTRACT: note_off channel=5 note=65 velocity=0 time=0
EXTRACT: note_on channel=5 note=65 velocity=89 time=0
EXTRACT: note_off channel=6 note=65 velocity=0 time=0
EXTRACT: note_on channel=6 note=65 velocity=89 time=0
EXTRACT: note_off channel=8 note=58 velocity=0 time=0
EXTRACT: note_off channel=8 note=55 velocity=0 time=0
EXTRACT: note_off channel=8 note=51 velocity=0 time=0
EXTRACT: note_on channel=8 note=60 velocity=89 time=0
EXTRACT: note_on channel=8 note=56 velocity=89 time=0
EXTRACT: note_on channel=8 note=53 velocity=89 time=0
EXTRACT: note_on channel=9 note=36 velocity=89 time=0
EXTRACT: note_off channel=0 note=65 velocity=0 time=0
EXTRACT: note_on channel=0 note=65 velocity=89 time=0
EXTRACT: note_off channel=5 note=65 velocity=0 time=0
EXTRACT: note_on channel=5 note=65 velocity=89 time=0
EXTRACT: note_off channel=6 note=65 velocity=0 time=0
EXTRACT: note_on channel=6 note=65 velocity=89 time=0
EXTRACT: note_off channel=0 note=65 velocity=0 time=0
EXTRACT: note_on channel=0 note=68 velocity=89 time=0
EXTRACT: note_off channel=5 note=65 velocity=0 time=0
EXTRACT: note_on channel=5 note=68 velocity=89 time=0
EXTRACT: note_off channel=6 note=65 velocity=0 time=0
EXTRACT: note_on channel=6 note=68 velocity=89 time=0
EXTRACT: note_off channel=0 note=68 velocity=0 time=0
EXTRACT: note_on channel=0 note=68 velocity=89 time=0
EXTRACT: note_off channel=1 note=53 velocity=0 time=0
EXTRACT: note_off channel=1 note=56 velocity=0 time=0
EXTRACT: note_off channel=1 note=60 velocity=0 time=0
EXTRACT: note_on channel=1 note=56 velocity=89 time=0
EXTRACT: note_on channel=1 note=53 velocity=89 time=0
EXTRACT: note_on channel=1 note=61 velocity=89 time=0
EXTRACT: note_off channel=2 note=41 velocity=0 time=0
EXTRACT: note_off channel=2 note=29 velocity=0 time=0
EXTRACT: note_on channel=2 note=25 velocity=89 time=0
EXTRACT: note_on channel=2 note=37 velocity=89 time=0
EXTRACT: note_off channel=3 note=41 velocity=0 time=0
EXTRACT: note_off channel=3 note=29 velocity=0 time=0
EXTRACT: note_on channel=3 note=25 velocity=89 time=0
EXTRACT: note_on channel=3 note=37 velocity=89 time=0
EXTRACT: note_off channel=4 note=41 velocity=0 time=0
EXTRACT: note_off channel=4 note=29 velocity=0 time=0
EXTRACT: note_on channel=4 note=25 velocity=89 time=0
EXTRACT: note_on channel=4 note=37 velocity=89 time=0
EXTRACT: note_off channel=5 note=68 velocity=0 time=0
EXTRACT: note_on channel=5 note=68 velocity=89 time=0
EXTRACT: note_off channel=6 note=68 velocity=0 time=0
EXTRACT: note_on channel=6 note=68 velocity=89 time=0
EXTRACT: note_off channel=8 note=53 velocity=0 time=0
EXTRACT: note_off channel=8 note=56 velocity=0 time=0
EXTRACT: note_off channel=8 note=60 velocity=0 time=0
EXTRACT: note_on channel=8 note=56 velocity=89 time=0
EXTRACT: note_on channel=8 note=53 velocity=89 time=0
EXTRACT: note_on channel=8 note=61 velocity=89 time=0
EXTRACT: note_off channel=9 note=36 velocity=0 time=0
EXTRACT: note_on channel=9 note=36 velocity=89 time=0
EXTRACT: note_off channel=0 note=68 velocity=0 time=0
EXTRACT: note_on channel=0 note=70 velocity=89 time=0
EXTRACT: note_off channel=5 note=68 velocity=0 time=0
EXTRACT: note_on channel=5 note=70 velocity=89 time=0
EXTRACT: note_off channel=6 note=68 velocity=0 time=0
EXTRACT: note_on channel=6 note=70 velocity=89 time=0
EXTRACT: note_off channel=0 note=70 velocity=0 time=0
EXTRACT: note_on channel=0 note=70 velocity=89 time=0
EXTRACT: note_off channel=5 note=70 velocity=0 time=0
EXTRACT: note_on channel=5 note=70 velocity=89 time=0
EXTRACT: note_off channel=6 note=70 velocity=0 time=0
EXTRACT: note_on channel=6 note=70 velocity=89 time=0
EXTRACT: note_off channel=0 note=70 velocity=0 time=0
EXTRACT: note_on channel=0 note=70 velocity=89 time=0
EXTRACT: note_off channel=5 note=70 velocity=0 time=0
EXTRACT: note_on channel=5 note=70 velocity=89 time=0
EXTRACT: note_off channel=6 note=70 velocity=0 time=0
EXTRACT: note_on channel=6 note=70 velocity=89 time=0
EXTRACT: note_off channel=9 note=36 velocity=0 time=0
EXTRACT: note_off channel=1 note=61 velocity=0 time=0
EXTRACT: note_off channel=1 note=53 velocity=0 time=0
EXTRACT: note_off channel=1 note=56 velocity=0 time=0
EXTRACT: note_on channel=1 note=60 velocity=89 time=0
EXTRACT: note_on channel=1 note=56 velocity=89 time=0
EXTRACT: note_on channel=1 note=51 velocity=89 time=0
EXTRACT: note_off channel=2 note=37 velocity=0 time=0
EXTRACT: note_off channel=2 note=25 velocity=0 time=0
EXTRACT: note_on channel=2 note=44 velocity=89 time=0
EXTRACT: note_on channel=2 note=32 velocity=89 time=0
EXTRACT: note_off channel=3 note=37 velocity=0 time=0
EXTRACT: note_off channel=3 note=25 velocity=0 time=0
EXTRACT: note_on channel=3 note=44 velocity=89 time=0
EXTRACT: note_on channel=3 note=32 velocity=89 time=0
EXTRACT: note_off channel=4 note=37 velocity=0 time=0
EXTRACT: note_off channel=4 note=25 velocity=0 time=0
EXTRACT: note_on channel=4 note=44 velocity=89 time=0
EXTRACT: note_on channel=4 note=32 velocity=89 time=0
EXTRACT: note_off channel=8 note=61 velocity=0 time=0
EXTRACT: note_off channel=8 note=53 velocity=0 time=0
EXTRACT: note_off channel=8 note=56 velocity=0 time=0
EXTRACT: note_on channel=8 note=60 velocity=89 time=0
EXTRACT: note_on channel=8 note=56 velocity=89 time=0
EXTRACT: note_on channel=8 note=51 velocity=89 time=0
EXTRACT: note_on channel=9 note=36 velocity=89 time=0
EXTRACT: note_off channel=0 note=70 velocity=0 time=0
EXTRACT: note_on channel=0 note=72 velocity=89 time=0
EXTRACT: note_off channel=5 note=70 velocity=0 time=0
EXTRACT: note_on channel=5 note=72 velocity=89 time=0
EXTRACT: note_off channel=6 note=70 velocity=0 time=0
EXTRACT: note_on channel=6 note=72 velocity=89 time=0
EXTRACT: note_off channel=0 note=72 velocity=0 time=0.1875
EXTRACT: note_on channel=0 note=70 velocity=89 time=0
EXTRACT: note_off channel=5 note=72 velocity=0 time=0
EXTRACT: note_on channel=5 note=70 velocity=89 time=0
EXTRACT: note_off channel=6 note=72 velocity=0 time=0
EXTRACT: note_on channel=6 note=70 velocity=89 time=0
EXTRACT: note_off channel=0 note=70 velocity=0 time=0
EXTRACT: note_on channel=0 note=68 velocity=89 time=0
EXTRACT: note_off channel=1 note=51 velocity=0 time=0
EXTRACT: note_off channel=1 note=56 velocity=0 time=0
EXTRACT: note_off channel=1 note=60 velocity=0 time=0
EXTRACT: note_on channel=1 note=51 velocity=89 time=0
EXTRACT: note_on channel=1 note=55 velocity=89 time=0
EXTRACT: note_on channel=1 note=58 velocity=89 time=0
EXTRACT: note_off channel=2 note=32 velocity=0 time=0
EXTRACT: note_off channel=2 note=44 velocity=0 time=0
EXTRACT: note_on channel=2 note=39 velocity=89 time=0
EXTRACT: note_on channel=2 note=27 velocity=89 time=0
EXTRACT: note_off channel=3 note=32 velocity=0 time=0
EXTRACT: note_off channel=3 note=44 velocity=0 time=0
EXTRACT: note_on channel=3 note=39 velocity=89 time=0
EXTRACT: note_on channel=3 note=27 velocity=89 time=0
EXTRACT: note_off channel=4 note=32 velocity=0 time=0
EXTRACT: note_off channel=4 note=44 velocity=0 time=0
EXTRACT: note_on channel=4 note=39 velocity=89 time=0
EXTRACT: note_on channel=4 note=27 velocity=89 time=0
EXTRACT: note_off channel=5 note=70 velocity=0 time=0
EXTRACT: note_on channel=5 note=68 velocity=89 time=0
EXTRACT: note_off channel=6 note=70 velocity=0 time=0
EXTRACT: note_on channel=6 note=68 velocity=89 time=0
EXTRACT: note_off channel=8 note=51 velocity=0 time=0
EXTRACT: note_off channel=8 note=56 velocity=0 time=0
EXTRACT: note_off channel=8 note=60 velocity=0 time=0
EXTRACT: note_on channel=8 note=51 velocity=89 time=0
EXTRACT: note_on channel=8 note=55 velocity=89 time=0
EXTRACT: note_on channel=8 note=58 velocity=89 time=0
EXTRACT: note_off channel=9 note=36 velocity=0 time=0
EXTRACT: note_on channel=9 note=36 velocity=89 time=0
EXTRACT: note_off channel=9 note=36 velocity=0 time=0
EXTRACT: note_on channel=9 note=36 velocity=89 time=0
EXTRACT: note_off channel=0 note=68 velocity=0 time=0
EXTRACT: note_on channel=0 note=68 velocity=89 time=0
EXTRACT: note_off channel=5 note=68 velocity=0 time=0
EXTRACT: note_on channel=5 note=68 velocity=89 time=0
EXTRACT: note_off channel=6 note=68 velocity=0 time=0
EXTRACT: note_on channel=6 note=68 velocity=89 time=0
EXTRACT: note_off channel=0 note=68 velocity=0 time=0
EXTRACT: note_on channel=0 note=75 velocity=89 time=0
EXTRACT: note_off channel=5 note=68 velocity=0 time=0
EXTRACT: note_on channel=5 note=75 velocity=89 time=0
EXTRACT: note_off channel=6 note=68 velocity=0 time=0
EXTRACT: note_on channel=6 note=75 velocity=89 time=0
EXTRACT: note_off channel=0 note=75 velocity=0 time=0
EXTRACT: note_on channel=0 note=70 velocity=89 time=0
EXTRACT: note_off channel=5 note=75 velocity=0 time=0
EXTRACT: note_on channel=5 note=70 velocity=89 time=0
EXTRACT: note_off channel=6 note=75 velocity=0 time=0
EXTRACT: note_on channel=6 note=70 velocity=89 time=0
EXTRACT: note_off channel=9 note=36 velocity=0 time=0
EXTRACT: note_off channel=0 note=70 velocity=0 time=0.1875
EXTRACT: note_on channel=0 note=68 velocity=89 time=0
EXTRACT: note_off channel=5 note=70 velocity=0 time=0
EXTRACT: note_on channel=5 note=68 velocity=89 time=0
EXTRACT: note_off channel=6 note=70 velocity=0 time=0
EXTRACT: note_on channel=6 note=68 velocity=89 time=0
EXTRACT: note_off channel=1 note=58 velocity=0 time=0
EXTRACT: note_off channel=1 note=55 velocity=0 time=0
EXTRACT: note_off channel=1 note=51 velocity=0 time=0
EXTRACT: note_on channel=1 note=60 velocity=89 time=0
EXTRACT: note_on channel=1 note=56 velocity=89 time=0
EXTRACT: note_on channel=1 note=53 velocity=89 time=0
EXTRACT: note_off channel=2 note=27 velocity=0 time=0
EXTRACT: note_off channel=2 note=39 velocity=0 time=0
EXTRACT: note_on channel=2 note=29 velocity=89 time=0
EXTRACT: note_on channel=2 note=41 velocity=89 time=0
EXTRACT: note_off channel=3 note=27 velocity=0 time=0
EXTRACT: note_off channel=3 note=39 velocity=0 time=0
EXTRACT: note_on channel=3 note=29 velocity=89 time=0
EXTRACT: note_on channel=3 note=41 velocity=89 time=0
EXTRACT: note_off channel=4 note=27 velocity=0 time=0
EXTRACT: note_off channel=4 note=39 velocity=0 time=0
EXTRACT: note_on channel=4 note=29 velocity=89 time=0
EXTRACT: note_on channel=4 note=41 velocity=89 time=0
EXTRACT: note_off channel=8 note=58 velocity=0 time=0
EXTRACT: note_off channel=8 note=55 velocity=0 time=0
EXTRACT: note_off channel=8 note=51 velocity=0 time=0
EXTRACT: note_on channel=8 note=60 velocity=89 time=0
EXTRACT: note_on channel=8 note=56 velocity=89 time=0
EXTRACT: note_on channel=8 note=53 velocity=89 time=0
EXTRACT: note_on channel=9 note=36 velocity=89 time=0
EXTRACT: note_off channel=0 note=68 velocity=0 time=0
EXTRACT: note_on channel=0 note=70 velocity=89 time=0
EXTRACT: note_off channel=5 note=68 velocity=0 time=0
EXTRACT: note_on channel=5 note=70 velocity=89 time=0
EXTRACT: note_off channel=6 note=68 velocity=0 time=0
EXTRACT: note_on channel=6 note=70 velocity=89 time=0
EXTRACT: note_off channel=0 note=70 velocity=0 time=0
EXTRACT: note_on channel=0 note=72 velocity=89 time=0
EXTRACT: note_off channel=5 note=70 velocity=0 time=0
EXTRACT: note_on channel=5 note=72 velocity=89 time=0
EXTRACT: note_off channel=6 note=70 velocity=0 time=0
EXTRACT: note_on channel=6 note=72 velocity=89 time=0
EXTRACT: note_off channel=0 note=72 velocity=0 time=0.1875
EXTRACT: note_off channel=5 note=72 velocity=0 time=0
EXTRACT: note_off channel=6 note=72 velocity=0 time=0
EXTRACT: note_on channel=0 note=68 velocity=89 time=0
EXTRACT: note_off channel=1 note=53 velocity=0 time=0
EXTRACT: note_off channel=1 note=56 velocity=0 time=0
EXTRACT: note_off channel=1 note=60 velocity=0 time=0
EXTRACT: note_on channel=1 note=56 velocity=89 time=0
EXTRACT: note_on channel=1 note=53 velocity=89 time=0
EXTRACT: note_on channel=1 note=61 velocity=89 time=0
EXTRACT: note_off channel=2 note=41 velocity=0 time=0
EXTRACT: note_off channel=2 note=29 velocity=0 time=0
EXTRACT: note_on channel=2 note=25 velocity=89 time=0
EXTRACT: note_on channel=2 note=37 velocity=89 time=0
EXTRACT: note_off channel=3 note=41 velocity=0 time=0
EXTRACT: note_off channel=3 note=29 velocity=0 time=0
EXTRACT: note_on channel=3 note=25 velocity=89 time=0
EXTRACT: note_on channel=3 note=37 velocity=89 time=0
EXTRACT: note_off channel=4 note=41 velocity=0 time=0
EXTRACT: note_off channel=4 note=29 velocity=0 time=0
EXTRACT: note_on channel=4 note=25 velocity=89 time=0
EXTRACT: note_on channel=4 note=37 velocity=89 time=0
EXTRACT: note_on channel=5 note=68 velocity=89 time=0
EXTRACT: note_on channel=6 note=68 velocity=89 time=0
EXTRACT: note_off channel=8 note=53 velocity=0 time=0
EXTRACT: note_off channel=8 note=56 velocity=0 time=0
EXTRACT: note_off channel=8 note=60 velocity=0 time=0
EXTRACT: note_on channel=8 note=56 velocity=89 time=0
EXTRACT: note_on channel=8 note=53 velocity=89 time=0
EXTRACT: note_on channel=8 note=61 velocity=89 time=0
EXTRACT: note_off channel=9 note=36 velocity=0 time=0
EXTRACT: note_on channel=9 note=36 velocity=89 time=0
EXTRACT: note_off channel=0 note=68 velocity=0 time=0
EXTRACT: note_on channel=0 note=68 velocity=89 time=0
EXTRACT: note_off channel=5 note=68 velocity=0 time=0
EXTRACT: note_on channel=5 note=68 velocity=89 time=0
EXTRACT: note_off channel=6 note=68 velocity=0 time=0
EXTRACT: note_on channel=6 note=68 velocity=89 time=0
EXTRACT: note_off channel=0 note=68 velocity=0 time=0
EXTRACT: note_on channel=0 note=65 velocity=89 time=0
EXTRACT: note_off channel=5 note=68 velocity=0 time=0
EXTRACT: note_on channel=5 note=65 velocity=89 time=0
EXTRACT: note_off channel=6 note=68 velocity=0 time=0
EXTRACT: note_on channel=6 note=65 velocity=89 time=0
EXTRACT: note_off channel=0 note=65 velocity=0 time=0
EXTRACT: note_on channel=0 note=63 velocity=89 time=0
EXTRACT: note_off channel=5 note=65 velocity=0 time=0
EXTRACT: note_on channel=5 note=63 velocity=89 time=0
EXTRACT: note_off channel=6 note=65 velocity=0 time=0
EXTRACT: note_on channel=6 note=63 velocity=89 time=0
EXTRACT: note_off channel=0 note=63 velocity=0 time=0.1875
EXTRACT: note_off channel=5 note=63 velocity=0 time=0
EXTRACT: note_off channel=6 note=63 velocity=0 time=0
EXTRACT: note_off channel=9 note=36 velocity=0 time=0
EXTRACT: note_on channel=0 note=68 velocity=89 time=0
EXTRACT: note_on channel=5 note=68 velocity=89 time=0
EXTRACT: note_on channel=6 note=68 velocity=89 time=0
EXTRACT: note_off channel=0 note=68 velocity=0 time=0
EXTRACT: note_on channel=0 note=68 velocity=89 time=0
EXTRACT: note_off channel=1 note=61 velocity=0 time=0
EXTRACT: note_off channel=1 note=53 velocity=0 time=0
EXTRACT: note_off channel=1 note=56 velocity=0 time=0
EXTRACT: note_on channel=1 note=60 velocity=89 time=0
EXTRACT: note_on channel=1 note=56 velocity=89 time=0
EXTRACT: note_on channel=1 note=51 velocity=89 time=0
EXTRACT: note_off channel=2 note=37 velocity=0 time=0
EXTRACT: note_off channel=2 note=25 velocity=0 time=0
EXTRACT: note_on channel=2 note=44 velocity=89 time=0
EXTRACT: note_on channel=2 note=32 velocity=89 time=0
EXTRACT: note_off channel=3 note=37 velocity=0 time=0
EXTRACT: note_off channel=3 note=25 velocity=0 time=0
EXTRACT: note_on channel=3 note=44 velocity=89 time=0
EXTRACT: note_on channel=3 note=32 velocity=89 time=0
EXTRACT: note_off channel=4 note=37 velocity=0 time=0
EXTRACT: note_off channel=4 note=25 velocity=0 time=0
EXTRACT: note_on channel=4 note=44 velocity=89 time=0
EXTRACT: note_on channel=4 note=32 velocity=89 time=0
EXTRACT: note_off channel=5 note=68 velocity=0 time=0
EXTRACT: note_on channel=5 note=68 velocity=89 time=0
EXTRACT: note_off channel=6 note=68 velocity=0 time=0
EXTRACT: note_on channel=6 note=68 velocity=89 time=0
EXTRACT: note_off channel=8 note=61 velocity=0 time=0
EXTRACT: note_off channel=8 note=53 velocity=0 time=0
EXTRACT: note_off channel=8 note=56 velocity=0 time=0
EXTRACT: note_on channel=8 note=60 velocity=89 time=0
EXTRACT: note_on channel=8 note=56 velocity=89 time=0
EXTRACT: note_on channel=8 note=51 velocity=89 time=0
EXTRACT: note_on channel=9 note=36 velocity=89 time=0
EXTRACT: note_off channel=0 note=68 velocity=0 time=0
EXTRACT: note_on channel=0 note=67 velocity=89 time=0
EXTRACT: note_off channel=5 note=68 velocity=0 time=0
EXTRACT: note_on channel=5 note=67 velocity=89 time=0
EXTRACT: note_off channel=6 note=68 velocity=0 time=0
EXTRACT: note_on channel=6 note=67 velocity=89 time=0
EXTRACT: note_off channel=0 note=67 velocity=0 time=0
EXTRACT: note_on channel=0 note=65 velocity=89 time=0
EXTRACT: note_off channel=5 note=67 velocity=0 time=0
EXTRACT: note_on channel=5 note=65 velocity=89 time=0
EXTRACT: note_off channel=6 note=67 velocity=0 time=0
EXTRACT: note_on channel=6 note=65 velocity=89 time=0
EXTRACT: note_off channel=0 note=65 velocity=0 time=0
EXTRACT: note_on channel=0 note=63 velocity=89 time=0
EXTRACT: note_off channel=5 note=65 velocity=0 time=0
EXTRACT: note_on channel=5 note=63 velocity=89 time=0
EXTRACT: note_off channel=6 note=65 velocity=0 time=0
EXTRACT: note_on channel=6 note=63 velocity=89 time=0
EXTRACT: note_off channel=0 note=63 velocity=0 time=0
EXTRACT: note_on channel=0 note=63 velocity=89 time=0
EXTRACT: note_off channel=1 note=51 velocity=0 time=0
EXTRACT: note_off channel=1 note=56 velocity=0 time=0
EXTRACT: note_off channel=1 note=60 velocity=0 time=0
EXTRACT: note_on channel=1 note=51 velocity=89 time=0
EXTRACT: note_on channel=1 note=55 velocity=89 time=0
EXTRACT: note_on channel=1 note=58 velocity=89 time=0
EXTRACT: note_off channel=2 note=32 velocity=0 time=0
EXTRACT: note_off channel=2 note=44 velocity=0 time=0
EXTRACT: note_on channel=2 note=39 velocity=89 time=0
EXTRACT: note_on channel=2 note=27 velocity=89 time=0
EXTRACT: note_off channel=3 note=32 velocity=0 time=0
EXTRACT: note_off channel=3 note=44 velocity=0 time=0
EXTRACT: note_on channel=3 note=39 velocity=89 time=0
EXTRACT: note_on channel=3 note=27 velocity=89 time=0
EXTRACT: note_off channel=4 note=32 velocity=0 time=0
EXTRACT: note_off channel=4 note=44 velocity=0 time=0
EXTRACT: note_on channel=4 note=39 velocity=89 time=0
EXTRACT: note_on channel=4 note=27 velocity=89 time=0
EXTRACT: note_off channel=5 note=63 velocity=0 time=0
EXTRACT: note_on channel=5 note=63 velocity=89 time=0
EXTRACT: note_off channel=6 note=63 velocity=0 time=0
EXTRACT: note_on channel=6 note=63 velocity=89 time=0
EXTRACT: note_off channel=8 note=51 velocity=0 time=0
EXTRACT: note_off channel=8 note=56 velocity=0 time=0
EXTRACT: note_off channel=8 note=60 velocity=0 time=0
EXTRACT: note_on channel=8 note=51 velocity=89 time=0
EXTRACT: note_on channel=8 note=55 velocity=89 time=0
EXTRACT: note_on channel=8 note=58 velocity=89 time=0
EXTRACT: note_off channel=9 note=36 velocity=0 time=0
EXTRACT: note_on channel=9 note=36 velocity=89 time=0
EXTRACT: note_off channel=9 note=36 velocity=0 time=0
EXTRACT: note_on channel=9 note=36 velocity=89 time=0
EXTRACT: note_off channel=0 note=63 velocity=0 time=0
EXTRACT: note_on channel=0 note=63 velocity=89 time=0
EXTRACT: note_off channel=5 note=63 velocity=0 time=0
EXTRACT: note_on channel=5 note=63 velocity=89 time=0
EXTRACT: note_off channel=6 note=63 velocity=0 time=0
EXTRACT: note_on channel=6 note=63 velocity=89 time=0
EXTRACT: note_off channel=0 note=63 velocity=0 time=0
EXTRACT: note_on channel=0 note=63 velocity=89 time=0
EXTRACT: note_off channel=5 note=63 velocity=0 time=0
EXTRACT: note_on channel=5 note=63 velocity=89 time=0
EXTRACT: note_off channel=6 note=63 velocity=0 time=0
EXTRACT: note_on channel=6 note=63 velocity=89 time=0
EXTRACT: note_off channel=0 note=63 velocity=0 time=0
EXTRACT: note_on channel=0 note=75 velocity=89 time=0
EXTRACT: note_off channel=5 note=63 velocity=0 time=0
EXTRACT: note_on channel=5 note=75 velocity=89 time=0
EXTRACT: note_off channel=6 note=63 velocity=0 time=0
EXTRACT: note_on channel=6 note=75 velocity=89 time=0
EXTRACT: note_off channel=0 note=75 velocity=0 time=0
EXTRACT: note_on channel=0 note=70 velocity=89 time=0
EXTRACT: note_off channel=5 note=75 velocity=0 time=0
EXTRACT: note_on channel=5 note=70 velocity=89 time=0
EXTRACT: note_off channel=6 note=75 velocity=0 time=0
EXTRACT: note_on channel=6 note=70 velocity=89 time=0
EXTRACT: note_off channel=9 note=36 velocity=0 time=0
EXTRACT: note_off channel=0 note=70 velocity=0 time=0
EXTRACT: note_on channel=0 note=68 velocity=89 time=0
EXTRACT: note_off channel=5 note=70 velocity=0 time=0
EXTRACT: note_on channel=5 note=68 velocity=89 time=0
EXTRACT: note_off channel=6 note=70 velocity=0 time=0
EXTRACT: note_on channel=6 note=68 velocity=89 time=0
EXTRACT: note_off channel=0 note=68 velocity=0 time=0.1875
EXTRACT: note_on channel=0 note=68 velocity=89 time=0
EXTRACT: note_off channel=1 note=58 velocity=0 time=0
EXTRACT: note_off channel=1 note=55 velocity=0 time=0
EXTRACT: note_off channel=1 note=51 velocity=0 time=0
EXTRACT: note_on channel=1 note=60 velocity=89 time=0
EXTRACT: note_on channel=1 note=56 velocity=89 time=0
EXTRACT: note_on channel=1 note=53 velocity=89 time=0
EXTRACT: note_off channel=2 note=27 velocity=0 time=0
EXTRACT: note_off channel=2 note=39 velocity=0 time=0
EXTRACT: note_on channel=2 note=29 velocity=89 time=0
EXTRACT: note_on channel=2 note=41 velocity=89 time=0
EXTRACT: note_off channel=3 note=27 velocity=0 time=0
EXTRACT: note_off channel=3 note=39 velocity=0 time=0
EXTRACT: note_on channel=3 note=29 velocity=89 time=0
EXTRACT: note_on channel=3 note=41 velocity=89 time=0
EXTRACT: note_off channel=4 note=27 velocity=0 time=0
EXTRACT: note_off channel=4 note=39 velocity=0 time=0
EXTRACT: note_on channel=4 note=29 velocity=89 time=0
EXTRACT: note_on channel=4 note=41 velocity=89 time=0
EXTRACT: note_off channel=5 note=68 velocity=0 time=0
EXTRACT: note_on channel=5 note=68 velocity=89 time=0
EXTRACT: note_off channel=6 note=68 velocity=0 time=0
EXTRACT: note_on channel=6 note=68 velocity=89 time=0
EXTRACT: note_off channel=8 note=58 velocity=0 time=0
EXTRACT: note_off channel=8 note=55 velocity=0 time=0
EXTRACT: note_off channel=8 note=51 velocity=0 time=0
EXTRACT: note_on channel=8 note=60 velocity=89 time=0
EXTRACT: note_on channel=8 note=56 velocity=89 time=0
EXTRACT: note_on channel=8 note=53 velocity=89 time=0
EXTRACT: note_on channel=9 note=36 velocity=89 time=0
EXTRACT: note_off channel=0 note=68 velocity=0 time=0.375
EXTRACT: note_on channel=0 note=70 velocity=89 time=0
EXTRACT: note_off channel=5 note=68 velocity=0 time=0
EXTRACT: note_on channel=5 note=70 velocity=89 time=0
EXTRACT: note_off channel=6 note=68 velocity=0 time=0
EXTRACT: note_on channel=6 note=70 velocity=89 time=0
EXTRACT: note_off channel=0 note=70 velocity=0 time=0
EXTRACT: note_on channel=0 note=72 velocity=89 time=0
EXTRACT: note_off channel=5 note=70 velocity=0 time=0
EXTRACT: note_on channel=5 note=72 velocity=89 time=0
EXTRACT: note_off channel=6 note=70 velocity=0 time=0
EXTRACT: note_on channel=6 note=72 velocity=89 time=0
EXTRACT: note_off channel=0 note=72 velocity=0 time=0.1875
EXTRACT: note_off channel=5 note=72 velocity=0 time=0
EXTRACT: note_off channel=6 note=72 velocity=0 time=0
EXTRACT: note_on channel=0 note=68 velocity=89 time=0
EXTRACT: note_off channel=1 note=53 velocity=0 time=0
EXTRACT: note_off channel=1 note=56 velocity=0 time=0
EXTRACT: note_off channel=1 note=60 velocity=0 time=0
EXTRACT: note_on channel=1 note=56 velocity=89 time=0
EXTRACT: note_on channel=1 note=53 velocity=89 time=0
EXTRACT: note_on channel=1 note=61 velocity=89 time=0
EXTRACT: note_off channel=2 note=41 velocity=0 time=0
EXTRACT: note_off channel=2 note=29 velocity=0 time=0
EXTRACT: note_on channel=2 note=25 velocity=89 time=0
EXTRACT: note_on channel=2 note=37 velocity=89 time=0
EXTRACT: note_off channel=3 note=41 velocity=0 time=0
EXTRACT: note_off channel=3 note=29 velocity=0 time=0
EXTRACT: note_on channel=3 note=25 velocity=89 time=0
EXTRACT: note_on channel=3 note=37 velocity=89 time=0
EXTRACT: note_off channel=4 note=41 velocity=0 time=0
EXTRACT: note_off channel=4 note=29 velocity=0 time=0
EXTRACT: note_on channel=4 note=25 velocity=89 time=0
EXTRACT: note_on channel=4 note=37 velocity=89 time=0
EXTRACT: note_on channel=5 note=68 velocity=89 time=0
EXTRACT: note_on channel=6 note=68 velocity=89 time=0
EXTRACT: note_off channel=8 note=53 velocity=0 time=0
EXTRACT: note_off channel=8 note=56 velocity=0 time=0
EXTRACT: note_off channel=8 note=60 velocity=0 time=0
EXTRACT: note_on channel=8 note=56 velocity=89 time=0
EXTRACT: note_on channel=8 note=53 velocity=89 time=0
EXTRACT: note_on channel=8 note=61 velocity=89 time=0
EXTRACT: note_off channel=9 note=36 velocity=0 time=0
EXTRACT: note_on channel=9 note=36 velocity=89 time=0
EXTRACT: note_off channel=0 note=68 velocity=0 time=0
EXTRACT: note_on channel=0 note=68 velocity=89 time=0
EXTRACT: note_off channel=5 note=68 velocity=0 time=0
EXTRACT: note_on channel=5 note=68 velocity=89 time=0
EXTRACT: note_off channel=6 note=68 velocity=0 time=0
EXTRACT: note_on channel=6 note=68 velocity=89 time=0
EXTRACT: note_off channel=0 note=68 velocity=0 time=0
EXTRACT: note_on channel=0 note=65 velocity=89 time=0
EXTRACT: note_off channel=5 note=68 velocity=0 time=0
EXTRACT: note_on channel=5 note=65 velocity=89 time=0
EXTRACT: note_off channel=6 note=68 velocity=0 time=0
EXTRACT: note_on channel=6 note=65 velocity=89 time=0
EXTRACT: note_off channel=0 note=65 velocity=0 time=0
EXTRACT: note_on channel=0 note=63 velocity=89 time=0
EXTRACT: note_off channel=5 note=65 velocity=0 time=0
EXTRACT: note_on channel=5 note=63 velocity=89 time=0
EXTRACT: note_off channel=6 note=65 velocity=0 time=0
EXTRACT: note_on channel=6 note=63 velocity=89 time=0
EXTRACT: note_off channel=0 note=63 velocity=0 time=0.1875
EXTRACT: note_off channel=5 note=63 velocity=0 time=0
EXTRACT: note_off channel=6 note=63 velocity=0 time=0
EXTRACT: note_off channel=9 note=36 velocity=0 time=0
EXTRACT: note_on channel=0 note=68 velocity=89 time=0
EXTRACT: note_on channel=5 note=68 velocity=89 time=0
EXTRACT: note_on channel=6 note=68 velocity=89 time=0
EXTRACT: note_off channel=0 note=68 velocity=0 time=0
EXTRACT: note_on channel=0 note=68 velocity=89 time=0
EXTRACT: note_off channel=5 note=68 velocity=0 time=0
EXTRACT: note_on channel=5 note=68 velocity=89 time=0
EXTRACT: note_off channel=6 note=68 velocity=0 time=0
EXTRACT: note_on channel=6 note=68 velocity=89 time=0
EXTRACT: note_off channel=0 note=68 velocity=0 time=0
EXTRACT: note_on channel=0 note=68 velocity=89 time=0
EXTRACT: note_off channel=1 note=61 velocity=0 time=0
EXTRACT: note_off channel=1 note=53 velocity=0 time=0
EXTRACT: note_off channel=1 note=56 velocity=0 time=0
EXTRACT: note_on channel=1 note=60 velocity=89 time=0
EXTRACT: note_on channel=1 note=56 velocity=89 time=0
EXTRACT: note_on channel=1 note=51 velocity=89 time=0
EXTRACT: note_off channel=2 note=37 velocity=0 time=0
EXTRACT: note_off channel=2 note=25 velocity=0 time=0
EXTRACT: note_on channel=2 note=44 velocity=89 time=0
EXTRACT: note_on channel=2 note=32 velocity=89 time=0
EXTRACT: note_off channel=3 note=37 velocity=0 time=0
EXTRACT: note_off channel=3 note=25 velocity=0 time=0
EXTRACT: note_on channel=3 note=44 velocity=89 time=0
EXTRACT: note_on channel=3 note=32 velocity=89 time=0
EXTRACT: note_off channel=4 note=37 velocity=0 time=0
EXTRACT: note_off channel=4 note=25 velocity=0 time=0
EXTRACT: note_on channel=4 note=44 velocity=89 time=0
EXTRACT: note_on channel=4 note=32 velocity=89 time=0
EXTRACT: note_off channel=5 note=68 velocity=0 time=0
EXTRACT: note_on channel=5 note=68 velocity=89 time=0
EXTRACT: note_off channel=6 note=68 velocity=0 time=0
EXTRACT: note_on channel=6 note=68 velocity=89 time=0
EXTRACT: note_off channel=8 note=61 velocity=0 time=0
EXTRACT: note_off channel=8 note=53 velocity=0 time=0
EXTRACT: note_off channel=8 note=56 velocity=0 time=0
EXTRACT: note_on channel=8 note=60 velocity=89 time=0
EXTRACT: note_on channel=8 note=56 velocity=89 time=0
EXTRACT: note_on channel=8 note=51 velocity=89 time=0
EXTRACT: note_on channel=9 note=36 velocity=89 time=0
EXTRACT: note_off channel=0 note=68 velocity=0 time=0
EXTRACT: note_on channel=0 note=68 velocity=89 time=0
EXTRACT: note_off channel=5 note=68 velocity=0 time=0
EXTRACT: note_on channel=5 note=67 velocity=89 time=0
EXTRACT: note_off channel=6 note=68 velocity=0 time=0
EXTRACT: note_on channel=6 note=67 velocity=89 time=0
EXTRACT: note_off channel=0 note=68 velocity=0 time=0
EXTRACT: note_on channel=0 note=67 velocity=89 time=0
EXTRACT: note_off channel=5 note=67 velocity=0 time=0
EXTRACT: note_on channel=5 note=65 velocity=89 time=0
EXTRACT: note_off channel=6 note=67 velocity=0 time=0
EXTRACT: note_on channel=6 note=65 velocity=89 time=0
EXTRACT: note_off channel=0 note=67 velocity=0 time=0.1875
EXTRACT: note_on channel=0 note=63 velocity=89 time=0
EXTRACT: note_off channel=5 note=65 velocity=0 time=0
EXTRACT: note_on channel=5 note=63 velocity=89 time=0
EXTRACT: note_off channel=6 note=65 velocity=0 time=0
EXTRACT: note_on channel=6 note=63 velocity=89 time=0
EXTRACT: note_off channel=0 note=63 velocity=0 time=0
EXTRACT: note_on channel=0 note=63 velocity=89 time=0
EXTRACT: note_off channel=1 note=51 velocity=0 time=0
EXTRACT: note_off channel=1 note=56 velocity=0 time=0
EXTRACT: note_off channel=1 note=60 velocity=0 time=0
EXTRACT: note_on channel=1 note=51 velocity=89 time=0
EXTRACT: note_on channel=1 note=55 velocity=89 time=0
EXTRACT: note_on channel=1 note=58 velocity=89 time=0
EXTRACT: note_off channel=2 note=32 velocity=0 time=0
EXTRACT: note_off channel=2 note=44 velocity=0 time=0
EXTRACT: note_on channel=2 note=39 velocity=89 time=0
EXTRACT: note_on channel=2 note=27 velocity=89 time=0
EXTRACT: note_off channel=3 note=32 velocity=0 time=0
EXTRACT: note_off channel=3 note=44 velocity=0 time=0
EXTRACT: note_on channel=3 note=39 velocity=89 time=0
EXTRACT: note_on channel=3 note=27 velocity=89 time=0
EXTRACT: note_off channel=4 note=32 velocity=0 time=0
EXTRACT: note_off channel=4 note=44 velocity=0 time=0
EXTRACT: note_on channel=4 note=39 velocity=89 time=0
EXTRACT: note_on channel=4 note=27 velocity=89 time=0
EXTRACT: note_off channel=5 note=63 velocity=0 time=0
EXTRACT: note_on channel=5 note=63 velocity=89 time=0
EXTRACT: note_off channel=6 note=63 velocity=0 time=0
EXTRACT: note_on channel=6 note=63 velocity=89 time=0
EXTRACT: note_off channel=8 note=51 velocity=0 time=0
EXTRACT: note_off channel=8 note=56 velocity=0 time=0
EXTRACT: note_off channel=8 note=60 velocity=0 time=0
EXTRACT: note_on channel=8 note=51 velocity=89 time=0
EXTRACT: note_on channel=8 note=55 velocity=89 time=0
EXTRACT: note_on channel=8 note=58 velocity=89 time=0
EXTRACT: note_off channel=9 note=36 velocity=0 time=0
EXTRACT: note_on channel=9 note=36 velocity=89 time=0
EXTRACT: note_off channel=9 note=36 velocity=0 time=0
EXTRACT: note_on channel=9 note=36 velocity=89 time=0
EXTRACT: note_off channel=0 note=63 velocity=0 time=0
EXTRACT: note_on channel=0 note=63 velocity=89 time=0
EXTRACT: note_off channel=5 note=63 velocity=0 time=0
EXTRACT: note_on channel=5 note=63 velocity=89 time=0
EXTRACT: note_off channel=6 note=63 velocity=0 time=0
EXTRACT: note_on channel=6 note=63 velocity=89 time=0
EXTRACT: note_off channel=0 note=63 velocity=0 time=0
EXTRACT: note_on channel=0 note=65 velocity=89 time=0
EXTRACT: note_off channel=5 note=63 velocity=0 time=0
EXTRACT: note_on channel=5 note=65 velocity=89 time=0
EXTRACT: note_off channel=6 note=63 velocity=0 time=0
EXTRACT: note_on channel=6 note=65 velocity=89 time=0
EXTRACT: note_off channel=0 note=65 velocity=0 time=0
EXTRACT: note_on channel=0 note=65 velocity=89 time=0
EXTRACT: note_off channel=5 note=65 velocity=0 time=0
EXTRACT: note_on channel=5 note=60 velocity=89 time=0
EXTRACT: note_off channel=6 note=65 velocity=0 time=0
EXTRACT: note_on channel=6 note=60 velocity=89 time=0
EXTRACT: note_off channel=9 note=36 velocity=0 time=0
EXTRACT: note_off channel=0 note=65 velocity=0 time=0
EXTRACT: note_on channel=0 note=60 velocity=89 time=0
EXTRACT: note_off channel=5 note=60 velocity=0 time=0
EXTRACT: note_on channel=5 note=58 velocity=89 time=0
EXTRACT: note_off channel=6 note=60 velocity=0 time=0
EXTRACT: note_on channel=6 note=58 velocity=89 time=0
EXTRACT: note_off channel=0 note=60 velocity=0 time=0
EXTRACT: note_on channel=0 note=58 velocity=89 time=0
EXTRACT: note_off channel=1 note=58 velocity=0 time=0
EXTRACT: note_off channel=1 note=55 velocity=0 time=0
EXTRACT: note_off channel=1 note=51 velocity=0 time=0
EXTRACT: note_on channel=1 note=60 velocity=89 time=0
EXTRACT: note_on channel=1 note=56 velocity=89 time=0
EXTRACT: note_on channel=1 note=53 velocity=89 time=0
EXTRACT: note_off channel=2 note=27 velocity=0 time=0
EXTRACT: note_off channel=2 note=39 velocity=0 time=0
EXTRACT: note_on channel=2 note=48 velocity=89 time=0
EXTRACT: note_on channel=2 note=41 velocity=89 time=0
EXTRACT: note_off channel=3 note=27 velocity=0 time=0
EXTRACT: note_off channel=3 note=39 velocity=0 time=0
EXTRACT: note_off channel=4 note=27 velocity=0 time=0
EXTRACT: note_off channel=4 note=39 velocity=0 time=0
EXTRACT: note_off channel=5 note=58 velocity=0 time=0
EXTRACT: note_on channel=5 note=56 velocity=89 time=0
EXTRACT: note_off channel=6 note=58 velocity=0 time=0
EXTRACT: note_on channel=6 note=56 velocity=89 time=0
EXTRACT: note_off channel=8 note=58 velocity=0 time=0
EXTRACT: note_off channel=8 note=55 velocity=0 time=0
EXTRACT: note_off channel=8 note=51 velocity=0 time=0
EXTRACT: note_off channel=0 note=58 velocity=0 time=0.75
EXTRACT: note_off channel=5 note=56 velocity=0 time=0
EXTRACT: note_off channel=6 note=56 velocity=0 time=0
EXTRACT: note_off channel=1 note=53 velocity=0 time=0.375
EXTRACT: note_off channel=1 note=56 velocity=0 time=0
EXTRACT: note_off channel=1 note=60 velocity=0 time=0
EXTRACT: note_on channel=1 note=56 velocity=89 time=0
EXTRACT: note_on channel=1 note=60 velocity=89 time=0
EXTRACT: note_on channel=1 note=51 velocity=89 time=0
EXTRACT: note_off channel=2 note=41 velocity=0 time=0
EXTRACT: note_off channel=2 note=48 velocity=0 time=0
EXTRACT: note_on channel=2 note=48 velocity=89 time=0
EXTRACT: note_on channel=2 note=44 velocity=89 time=0
EXTRACT: note_on channel=2 note=39 velocity=89 time=0
EXTRACT: note_off channel=1 note=51 velocity=0 time=0
EXTRACT: note_off channel=1 note=60 velocity=0 time=0
EXTRACT: note_off channel=1 note=56 velocity=0 time=0
EXTRACT: note_on channel=1 note=51 velocity=89 time=0
EXTRACT: note_on channel=1 note=55 velocity=89 time=0
EXTRACT: note_on channel=1 note=58 velocity=89 time=0
EXTRACT: note_off channel=2 note=39 velocity=0 time=0
EXTRACT: note_off channel=2 note=44 velocity=0 time=0
EXTRACT: note_off channel=2 note=48 velocity=0 time=0
EXTRACT: note_on channel=2 note=46 velocity=89 time=0
EXTRACT: note_on channel=2 note=39 velocity=89 time=0
EXTRACT: note_off channel=1 note=58 velocity=0 time=1.125
EXTRACT: note_off channel=1 note=55 velocity=0 time=0
EXTRACT: note_off channel=1 note=51 velocity=0 time=0
EXTRACT: note_on channel=1 note=49 velocity=89 time=0
EXTRACT: note_on channel=1 note=53 velocity=89 time=0
EXTRACT: note_on channel=1 note=56 velocity=89 time=0
EXTRACT: note_off channel=2 note=39 velocity=0 time=0
EXTRACT: note_off channel=2 note=46 velocity=0 time=0
EXTRACT: note_on channel=2 note=44 velocity=89 time=0
EXTRACT: note_on channel=2 note=37 velocity=89 time=0
EXTRACT: note_off channel=1 note=56 velocity=0 time=1.5
EXTRACT: note_off channel=1 note=53 velocity=0 time=0
EXTRACT: note_off channel=1 note=49 velocity=0 time=0
EXTRACT: note_on channel=1 note=56 velocity=89 time=0
EXTRACT: note_on channel=1 note=60 velocity=89 time=0
EXTRACT: note_on channel=1 note=53 velocity=89 time=0
EXTRACT: note_off channel=2 note=37 velocity=0 time=0
EXTRACT: note_off channel=2 note=44 velocity=0 time=0
EXTRACT: note_on channel=2 note=48 velocity=89 time=0
EXTRACT: note_on channel=2 note=41 velocity=89 time=0
EXTRACT: note_off channel=1 note=53 velocity=0 time=3.0
EXTRACT: note_off channel=1 note=60 velocity=0 time=0
EXTRACT: note_off channel=1 note=56 velocity=0 time=0
EXTRACT: note_off channel=2 note=41 velocity=0 time=0
EXTRACT: note_off channel=2 note=48 velocity=0 time=0
