EXTRACT: control_change channel=0 control=121 value=0 time=0
EXTRACT: program_change channel=0 program=52 time=0
EXTRACT: control_change channel=0 control=7 value=100 time=0
EXTRACT: control_change channel=0 control=10 value=64 time=0
EXTRACT: control_change channel=0 control=91 value=0 time=0
EXTRACT: control_change channel=0 control=93 value=0 time=0
EXTRACT: control_change channel=1 control=121 value=0 time=0
EXTRACT: program_change channel=1 program=0 time=0
EXTRACT: control_change channel=1 control=7 value=100 time=0
EXTRACT: control_change channel=1 control=10 value=64 time=0
EXTRACT: control_change channel=1 control=91 value=0 time=0
EXTRACT: control_change channel=1 control=93 value=0 time=0
EXTRACT: note_on channel=1 note=54 velocity=80 time=0
EXTRACT: note_on channel=1 note=57 velocity=80 time=0
EXTRACT: note_on channel=1 note=61 velocity=80 time=0
EXTRACT: note_on channel=1 note=42 velocity=80 time=0
EXTRACT: note_on channel=1 note=54 velocity=0 time=1.60387813125
EXTRACT: note_on channel=1 note=57 velocity=0 time=0
EXTRACT: note_on channel=1 note=61 velocity=0 time=0
EXTRACT: note_on channel=1 note=42 velocity=0 time=0
EXTRACT: note_on channel=1 note=57 velocity=80 time=0.08626786874999999
EXTRACT: note_on channel=1 note=64 velocity=80 time=0
EXTRACT: note_on channel=1 note=61 velocity=80 time=0
EXTRACT: note_on channel=1 note=45 velocity=80 time=0
EXTRACT: note_on channel=1 note=61 velocity=0 time=0.39964910625
EXTRACT: note_on channel=1 note=59 velocity=80 time=0.02288739375
EXTRACT: note_on channel=1 note=57 velocity=0 time=1.18134163125
EXTRACT: note_on channel=1 note=64 velocity=0 time=0
EXTRACT: note_on channel=1 note=45 velocity=0 time=0
EXTRACT: note_on channel=1 note=59 velocity=0 time=0.021126825
EXTRACT: note_on channel=1 note=61 velocity=80 time=0.06514104375
EXTRACT: note_on channel=1 note=64 velocity=80 time=0
EXTRACT: note_on channel=1 note=68 velocity=80 time=0
EXTRACT: note_on channel=1 note=49 velocity=80 time=0
EXTRACT: note_on channel=1 note=52 velocity=80 time=0
EXTRACT: note_on channel=1 note=61 velocity=0 time=1.60387813125
EXTRACT: note_on channel=1 note=64 velocity=0 time=0
EXTRACT: note_on channel=1 note=68 velocity=0 time=0
EXTRACT: note_on channel=1 note=49 velocity=0 time=0
EXTRACT: note_on channel=1 note=52 velocity=0 time=0
EXTRACT: note_on channel=1 note=59 velocity=80 time=0.08626786874999999
EXTRACT: note_on channel=1 note=63 velocity=80 time=0
EXTRACT: note_on channel=1 note=66 velocity=80 time=0
EXTRACT: note_on channel=1 note=47 velocity=80 time=0
EXTRACT: note_on channel=1 note=51 velocity=80 time=0
EXTRACT: note_on channel=1 note=59 velocity=0 time=1.60387813125
EXTRACT: note_on channel=1 note=63 velocity=0 time=0
EXTRACT: note_on channel=1 note=66 velocity=0 time=0
EXTRACT: note_on channel=1 note=47 velocity=0 time=0
EXTRACT: note_on channel=1 note=51 velocity=0 time=0
EXTRACT: note_on channel=1 note=54 velocity=80 time=0
EXTRACT: note_on channel=1 note=57 velocity=80 time=0
EXTRACT: note_on channel=1 note=61 velocity=80 time=0
EXTRACT: note_on channel=1 note=42 velocity=80 time=0
EXTRACT: note_on channel=1 note=54 velocity=0 time=1.60387813125
EXTRACT: note_on channel=1 note=57 velocity=0 time=0
EXTRACT: note_on channel=1 note=61 velocity=0 time=0
EXTRACT: note_on channel=1 note=42 velocity=0 time=0
EXTRACT: note_on channel=1 note=57 velocity=80 time=0.08626786874999999
EXTRACT: note_on channel=1 note=64 velocity=80 time=0
EXTRACT: note_on channel=1 note=61 velocity=80 time=0
EXTRACT: note_on channel=1 note=45 velocity=80 time=0
EXTRACT: note_on channel=1 note=61 velocity=0 time=0.39964910625
EXTRACT: note_on channel=1 note=59 velocity=80 time=0.02288739375
EXTRACT: note_on channel=1 note=57 velocity=0 time=1.18134163125
EXTRACT: note_on channel=1 note=64 velocity=0 time=0
EXTRACT: note_on channel=1 note=45 velocity=0 time=0
EXTRACT: note_on channel=1 note=59 velocity=0 time=0.021126825
EXTRACT: note_on channel=1 note=61 velocity=80 time=0.06514104375
EXTRACT: note_on channel=1 note=64 velocity=80 time=0
EXTRACT: note_on channel=1 note=68 velocity=80 time=0
EXTRACT: note_on channel=1 note=49 velocity=80 time=0
EXTRACT: note_on channel=1 note=52 velocity=80 time=0
EXTRACT: note_on channel=1 note=61 velocity=0 time=1.60387813125
EXTRACT: note_on channel=1 note=64 velocity=0 time=0
EXTRACT: note_on channel=1 note=68 velocity=0 time=0
EXTRACT: note_on channel=1 note=49 velocity=0 time=0
EXTRACT: note_on channel=1 note=52 velocity=0 time=0
EXTRACT: note_on channel=1 note=59 velocity=80 time=0.08626786874999999
EXTRACT: note_on channel=1 note=63 velocity=80 time=0
EXTRACT: note_on channel=1 note=66 velocity=80 time=0
EXTRACT: note_on channel=1 note=47 velocity=80 time=0
EXTRACT: note_on channel=1 note=51 velocity=80 time=0
EXTRACT: note_on channel=1 note=59 velocity=0 time=1.60387813125
EXTRACT: note_on channel=1 note=63 velocity=0 time=0
EXTRACT: note_on channel=1 note=66 velocity=0 time=0
EXTRACT: note_on channel=1 note=47 velocity=0 time=0
EXTRACT: note_on channel=1 note=51 velocity=0 time=0
EXTRACT: note_on channel=0 note=71 velocity=80 time=0.08626786874999999
EXTRACT: note_on channel=1 note=54 velocity=80 time=0
EXTRACT: note_on channel=1 note=57 velocity=80 time=0
EXTRACT: note_on channel=1 note=61 velocity=80 time=0
EXTRACT: note_on channel=1 note=42 velocity=80 time=0
EXTRACT: note_on channel=0 note=71 velocity=0 time=0.20950768125
EXTRACT: note_on channel=0 note=68 velocity=80 time=0.00176056875
EXTRACT: note_on channel=0 note=68 velocity=0 time=0.20950768125
EXTRACT: note_on channel=0 note=68 velocity=80 time=0.00176056875
EXTRACT: note_on channel=0 note=68 velocity=0 time=0.20950768125
EXTRACT: note_on channel=0 note=68 velocity=80 time=0.00176056875
EXTRACT: note_on channel=0 note=68 velocity=0 time=0.20950768125
EXTRACT: note_on channel=0 note=68 velocity=80 time=0.00176056875
EXTRACT: note_on channel=0 note=68 velocity=0 time=0.20950768125
EXTRACT: note_on channel=0 note=66 velocity=80 time=0.00176056875
EXTRACT: note_on channel=1 note=54 velocity=0 time=0.54753688125
EXTRACT: note_on channel=1 note=57 velocity=0 time=0
EXTRACT: note_on channel=1 note=61 velocity=0 time=0
EXTRACT: note_on channel=1 note=42 velocity=0 time=0
EXTRACT: note_on channel=0 note=66 velocity=0 time=0.0845073
EXTRACT: note_on channel=0 note=71 velocity=80 time=0.00176056875
EXTRACT: note_on channel=1 note=57 velocity=80 time=0
EXTRACT: note_on channel=1 note=64 velocity=80 time=0
EXTRACT: note_on channel=1 note=61 velocity=80 time=0
EXTRACT: note_on channel=1 note=45 velocity=80 time=0
EXTRACT: note_on channel=0 note=71 velocity=0 time=0.20950768125
EXTRACT: note_on channel=0 note=68 velocity=80 time=0.00176056875
EXTRACT: note_on channel=1 note=61 velocity=0 time=0.18838085625
EXTRACT: note_on channel=0 note=68 velocity=0 time=0.021126825
EXTRACT: note_on channel=0 note=68 velocity=80 time=0.00176056875
EXTRACT: note_on channel=1 note=59 velocity=80 time=0
EXTRACT: note_on channel=0 note=68 velocity=0 time=0.20950768125
EXTRACT: note_on channel=0 note=68 velocity=80 time=0.00176056875
EXTRACT: note_on channel=0 note=68 velocity=0 time=0.20950768125
EXTRACT: note_on channel=0 note=68 velocity=80 time=0.00176056875
EXTRACT: note_on channel=1 note=57 velocity=0 time=0.7588051312499999
EXTRACT: note_on channel=1 note=64 velocity=0 time=0
EXTRACT: note_on channel=1 note=45 velocity=0 time=0
EXTRACT: note_on channel=1 note=59 velocity=0 time=0.021126825
EXTRACT: note_on channel=0 note=68 velocity=0 time=0.06338047499999999
EXTRACT: note_on channel=0 note=71 velocity=80 time=0.00176056875
EXTRACT: note_on channel=1 note=61 velocity=80 time=0
EXTRACT: note_on channel=1 note=64 velocity=80 time=0
EXTRACT: note_on channel=1 note=68 velocity=80 time=0
EXTRACT: note_on channel=1 note=49 velocity=80 time=0
EXTRACT: note_on channel=1 note=52 velocity=80 time=0
EXTRACT: note_on channel=0 note=71 velocity=0 time=0.20950768125
EXTRACT: note_on channel=0 note=68 velocity=80 time=0.00176056875
EXTRACT: note_on channel=0 note=68 velocity=0 time=0.20950768125
EXTRACT: note_on channel=0 note=68 velocity=80 time=0.00176056875
EXTRACT: note_on channel=0 note=68 velocity=0 time=0.20950768125
EXTRACT: note_on channel=0 note=68 velocity=80 time=0.00176056875
EXTRACT: note_on channel=0 note=68 velocity=0 time=0.20950768125
EXTRACT: note_on channel=0 note=68 velocity=80 time=0.00176056875
EXTRACT: note_on channel=0 note=68 velocity=0 time=0.42077593125
EXTRACT: note_on channel=0 note=66 velocity=80 time=0.00176056875
EXTRACT: note_on channel=1 note=61 velocity=0 time=0.33626863125
EXTRACT: note_on channel=1 note=64 velocity=0 time=0
EXTRACT: note_on channel=1 note=68 velocity=0 time=0
EXTRACT: note_on channel=1 note=49 velocity=0 time=0
EXTRACT: note_on channel=1 note=52 velocity=0 time=0
EXTRACT: note_on channel=0 note=66 velocity=0 time=0.0845073
EXTRACT: note_on channel=0 note=66 velocity=80 time=0.00176056875
EXTRACT: note_on channel=1 note=59 velocity=80 time=0
EXTRACT: note_on channel=1 note=63 velocity=80 time=0
EXTRACT: note_on channel=1 note=66 velocity=80 time=0
EXTRACT: note_on channel=1 note=47 velocity=80 time=0
EXTRACT: note_on channel=1 note=51 velocity=80 time=0
EXTRACT: note_on channel=0 note=66 velocity=0 time=0.20950768125
EXTRACT: note_on channel=0 note=66 velocity=80 time=0.00176056875
EXTRACT: note_on channel=0 note=66 velocity=0 time=0.20950768125
EXTRACT: note_on channel=0 note=66 velocity=80 time=0.00176056875
EXTRACT: note_on channel=0 note=66 velocity=0 time=0.20950768125
EXTRACT: note_on channel=0 note=66 velocity=80 time=0.00176056875
EXTRACT: note_on channel=0 note=66 velocity=0 time=0.20950768125
EXTRACT: note_on channel=0 note=66 velocity=80 time=0.00176056875
EXTRACT: note_on channel=0 note=66 velocity=0 time=0.20950768125
EXTRACT: note_on channel=0 note=68 velocity=80 time=0.00176056875
EXTRACT: note_on channel=0 note=68 velocity=0 time=0.42077593125
EXTRACT: note_on channel=0 note=64 velocity=80 time=0.00176056875
EXTRACT: note_on channel=1 note=59 velocity=0 time=0.12500038125
EXTRACT: note_on channel=1 note=63 velocity=0 time=0
EXTRACT: note_on channel=1 note=66 velocity=0 time=0
EXTRACT: note_on channel=1 note=47 velocity=0 time=0
EXTRACT: note_on channel=1 note=51 velocity=0 time=0
EXTRACT: note_on channel=0 note=64 velocity=0 time=0.0845073
EXTRACT: note_on channel=0 note=69 velocity=80 time=0.00176056875
EXTRACT: note_on channel=1 note=54 velocity=80 time=0
EXTRACT: note_on channel=1 note=57 velocity=80 time=0
EXTRACT: note_on channel=1 note=61 velocity=80 time=0
EXTRACT: note_on channel=1 note=42 velocity=80 time=0
EXTRACT: note_on channel=0 note=69 velocity=0 time=0.20950768125
EXTRACT: note_on channel=0 note=68 velocity=80 time=0.00176056875
EXTRACT: note_on channel=0 note=68 velocity=0 time=0.20950768125
EXTRACT: note_on channel=0 note=66 velocity=80 time=0.00176056875
EXTRACT: note_on channel=0 note=66 velocity=0 time=0.20950768125
EXTRACT: note_on channel=0 note=68 velocity=80 time=0.00176056875
EXTRACT: note_on channel=0 note=68 velocity=0 time=0.20950768125
EXTRACT: note_on channel=0 note=66 velocity=80 time=0.00176056875
EXTRACT: note_on channel=0 note=66 velocity=0 time=0.20950768125
EXTRACT: note_on channel=0 note=68 velocity=80 time=0.00176056875
EXTRACT: note_on channel=0 note=68 velocity=0 time=0.10387355625
EXTRACT: note_on channel=0 note=66 velocity=80 time=0.00176056875
EXTRACT: note_on channel=0 note=66 velocity=0 time=0.10387355625
EXTRACT: note_on channel=0 note=64 velocity=80 time=0.00176056875
EXTRACT: note_on channel=1 note=54 velocity=0 time=0.33626863125
EXTRACT: note_on channel=1 note=57 velocity=0 time=0
EXTRACT: note_on channel=1 note=61 velocity=0 time=0
EXTRACT: note_on channel=1 note=42 velocity=0 time=0
EXTRACT: note_on channel=1 note=57 velocity=80 time=0.08626786874999999
EXTRACT: note_on channel=1 note=64 velocity=80 time=0
EXTRACT: note_on channel=1 note=61 velocity=80 time=0
EXTRACT: note_on channel=1 note=45 velocity=80 time=0
EXTRACT: note_on channel=1 note=61 velocity=0 time=0.39964910625
EXTRACT: note_on channel=1 note=59 velocity=80 time=0.02288739375
EXTRACT: note_on channel=0 note=64 velocity=0 time=0.42077593125
EXTRACT: note_on channel=0 note=61 velocity=80 time=0.42429706875
EXTRACT: note_on channel=0 note=61 velocity=0 time=0.20950768125
EXTRACT: note_on channel=0 note=61 velocity=80 time=0.00176056875
EXTRACT: note_on channel=1 note=57 velocity=0 time=0.12500038125
EXTRACT: note_on channel=1 note=64 velocity=0 time=0
EXTRACT: note_on channel=1 note=45 velocity=0 time=0
EXTRACT: note_on channel=1 note=59 velocity=0 time=0.021126825
EXTRACT: note_on channel=1 note=61 velocity=80 time=0.06514104375
EXTRACT: note_on channel=1 note=64 velocity=80 time=0
EXTRACT: note_on channel=1 note=68 velocity=80 time=0
EXTRACT: note_on channel=1 note=49 velocity=80 time=0
EXTRACT: note_on channel=1 note=52 velocity=80 time=0
EXTRACT: note_on channel=0 note=61 velocity=0 time=0.84331243125
EXTRACT: note_on channel=1 note=61 velocity=0 time=0.7605657
EXTRACT: note_on channel=1 note=64 velocity=0 time=0
EXTRACT: note_on channel=1 note=68 velocity=0 time=0
EXTRACT: note_on channel=1 note=49 velocity=0 time=0
EXTRACT: note_on channel=1 note=52 velocity=0 time=0
EXTRACT: note_on channel=1 note=59 velocity=80 time=0.08626786874999999
EXTRACT: note_on channel=1 note=63 velocity=80 time=0
EXTRACT: note_on channel=1 note=66 velocity=80 time=0
EXTRACT: note_on channel=1 note=47 velocity=80 time=0
EXTRACT: note_on channel=1 note=51 velocity=80 time=0
EXTRACT: note_on channel=1 note=59 velocity=0 time=1.60387813125
EXTRACT: note_on channel=1 note=63 velocity=0 time=0
EXTRACT: note_on channel=1 note=66 velocity=0 time=0
EXTRACT: note_on channel=1 note=47 velocity=0 time=0
EXTRACT: note_on channel=1 note=51 velocity=0 time=0
EXTRACT: note_on channel=0 note=71 velocity=80 time=0.08626786874999999
EXTRACT: note_on channel=1 note=54 velocity=80 time=0
EXTRACT: note_on channel=1 note=57 velocity=80 time=0
EXTRACT: note_on channel=1 note=61 velocity=80 time=0
EXTRACT: note_on channel=1 note=42 velocity=80 time=0
EXTRACT: note_on channel=0 note=71 velocity=0 time=0.20950768125
EXTRACT: note_on channel=0 note=68 velocity=80 time=0.00176056875
EXTRACT: note_on channel=0 note=68 velocity=0 time=0.20950768125
EXTRACT: note_on channel=0 note=68 velocity=80 time=0.00176056875
EXTRACT: note_on channel=0 note=68 velocity=0 time=0.20950768125
EXTRACT: note_on channel=0 note=68 velocity=80 time=0.00176056875
EXTRACT: note_on channel=0 note=68 velocity=0 time=0.20950768125
EXTRACT: note_on channel=0 note=68 velocity=80 time=0.00176056875
EXTRACT: note_on channel=0 note=68 velocity=0 time=0.20950768125
EXTRACT: note_on channel=0 note=66 velocity=80 time=0.00176056875
EXTRACT: note_on channel=0 note=66 velocity=0 time=0.42077593125
EXTRACT: note_on channel=0 note=64 velocity=80 time=0.00176056875
EXTRACT: note_on channel=1 note=54 velocity=0 time=0.12500038125
EXTRACT: note_on channel=1 note=57 velocity=0 time=0
EXTRACT: note_on channel=1 note=61 velocity=0 time=0
EXTRACT: note_on channel=1 note=42 velocity=0 time=0
EXTRACT: note_on channel=0 note=64 velocity=0 time=0.0845073
EXTRACT: note_on channel=0 note=71 velocity=80 time=0.00176056875
EXTRACT: note_on channel=1 note=57 velocity=80 time=0
EXTRACT: note_on channel=1 note=64 velocity=80 time=0
EXTRACT: note_on channel=1 note=61 velocity=80 time=0
EXTRACT: note_on channel=1 note=45 velocity=80 time=0
EXTRACT: note_on channel=0 note=71 velocity=0 time=0.20950768125
EXTRACT: note_on channel=0 note=68 velocity=80 time=0.00176056875
EXTRACT: note_on channel=1 note=61 velocity=0 time=0.18838085625
EXTRACT: note_on channel=0 note=68 velocity=0 time=0.021126825
EXTRACT: note_on channel=0 note=68 velocity=80 time=0.00176056875
EXTRACT: note_on channel=1 note=59 velocity=80 time=0
EXTRACT: note_on channel=0 note=68 velocity=0 time=0.20950768125
EXTRACT: note_on channel=0 note=68 velocity=80 time=0.00176056875
EXTRACT: note_on channel=0 note=68 velocity=0 time=0.20950768125
EXTRACT: note_on channel=0 note=68 velocity=80 time=0.00176056875
EXTRACT: note_on channel=0 note=68 velocity=0 time=0.63204418125
EXTRACT: note_on channel=0 note=64 velocity=80 time=0.00176056875
EXTRACT: note_on channel=1 note=57 velocity=0 time=0.12500038125
EXTRACT: note_on channel=1 note=64 velocity=0 time=0
EXTRACT: note_on channel=1 note=45 velocity=0 time=0
EXTRACT: note_on channel=1 note=59 velocity=0 time=0.021126825
EXTRACT: note_on channel=0 note=64 velocity=0 time=0.06338047499999999
EXTRACT: note_on channel=0 note=71 velocity=80 time=0.00176056875
EXTRACT: note_on channel=1 note=61 velocity=80 time=0
EXTRACT: note_on channel=1 note=64 velocity=80 time=0
EXTRACT: note_on channel=1 note=68 velocity=80 time=0
EXTRACT: note_on channel=1 note=49 velocity=80 time=0
EXTRACT: note_on channel=1 note=52 velocity=80 time=0
EXTRACT: note_on channel=0 note=71 velocity=0 time=0.20950768125
EXTRACT: note_on channel=0 note=68 velocity=80 time=0.00176056875
EXTRACT: note_on channel=0 note=68 velocity=0 time=0.20950768125
EXTRACT: note_on channel=0 note=68 velocity=80 time=0.00176056875
EXTRACT: note_on channel=0 note=68 velocity=0 time=0.20950768125
EXTRACT: note_on channel=0 note=68 velocity=80 time=0.00176056875
EXTRACT: note_on channel=0 note=68 velocity=0 time=0.20950768125
EXTRACT: note_on channel=0 note=68 velocity=80 time=0.00176056875
EXTRACT: note_on channel=0 note=68 velocity=0 time=0.20950768125
EXTRACT: note_on channel=0 note=66 velocity=80 time=0.00176056875
EXTRACT: note_on channel=0 note=66 velocity=0 time=0.42077593125
EXTRACT: note_on channel=0 note=66 velocity=80 time=0.00176056875
EXTRACT: note_on channel=1 note=61 velocity=0 time=0.12500038125
EXTRACT: note_on channel=1 note=64 velocity=0 time=0
EXTRACT: note_on channel=1 note=68 velocity=0 time=0
EXTRACT: note_on channel=1 note=49 velocity=0 time=0
EXTRACT: note_on channel=1 note=52 velocity=0 time=0
EXTRACT: note_on channel=0 note=66 velocity=0 time=0.0845073
EXTRACT: note_on channel=0 note=66 velocity=80 time=0.00176056875
EXTRACT: note_on channel=1 note=59 velocity=80 time=0
EXTRACT: note_on channel=1 note=63 velocity=80 time=0
EXTRACT: note_on channel=1 note=66 velocity=80 time=0
EXTRACT: note_on channel=1 note=47 velocity=80 time=0
EXTRACT: note_on channel=1 note=51 velocity=80 time=0
EXTRACT: note_on channel=0 note=66 velocity=0 time=0.20950768125
EXTRACT: note_on channel=0 note=66 velocity=80 time=0.00176056875
EXTRACT: note_on channel=0 note=66 velocity=0 time=0.20950768125
EXTRACT: note_on channel=0 note=66 velocity=80 time=0.00176056875
EXTRACT: note_on channel=0 note=66 velocity=0 time=0.20950768125
EXTRACT: note_on channel=0 note=66 velocity=80 time=0.00176056875
EXTRACT: note_on channel=0 note=66 velocity=0 time=0.20950768125
EXTRACT: note_on channel=0 note=66 velocity=80 time=0.00176056875
EXTRACT: note_on channel=0 note=66 velocity=0 time=0.20950768125
EXTRACT: note_on channel=0 note=68 velocity=80 time=0.00176056875
EXTRACT: note_on channel=0 note=68 velocity=0 time=0.42077593125
EXTRACT: note_on channel=0 note=64 velocity=80 time=0.00176056875
EXTRACT: note_on channel=1 note=59 velocity=0 time=0.12500038125
EXTRACT: note_on channel=1 note=63 velocity=0 time=0
EXTRACT: note_on channel=1 note=66 velocity=0 time=0
EXTRACT: note_on channel=1 note=47 velocity=0 time=0
EXTRACT: note_on channel=1 note=51 velocity=0 time=0
EXTRACT: note_on channel=0 note=64 velocity=0 time=0.0845073
EXTRACT: note_on channel=0 note=69 velocity=80 time=0.00176056875
EXTRACT: note_on channel=1 note=54 velocity=80 time=0
EXTRACT: note_on channel=1 note=57 velocity=80 time=0
EXTRACT: note_on channel=1 note=61 velocity=80 time=0
EXTRACT: note_on channel=1 note=42 velocity=80 time=0
EXTRACT: note_on channel=0 note=69 velocity=0 time=0.20950768125
EXTRACT: note_on channel=0 note=68 velocity=80 time=0.00176056875
EXTRACT: note_on channel=0 note=68 velocity=0 time=0.20950768125
EXTRACT: note_on channel=0 note=66 velocity=80 time=0.00176056875
EXTRACT: note_on channel=0 note=66 velocity=0 time=0.20950768125
EXTRACT: note_on channel=0 note=68 velocity=80 time=0.00176056875
EXTRACT: note_on channel=0 note=68 velocity=0 time=0.20950768125
EXTRACT: note_on channel=0 note=66 velocity=80 time=0.00176056875
EXTRACT: note_on channel=0 note=66 velocity=0 time=0.20950768125
EXTRACT: note_on channel=0 note=68 velocity=80 time=0.00176056875
EXTRACT: note_on channel=0 note=68 velocity=0 time=0.10387355625
EXTRACT: note_on channel=0 note=66 velocity=80 time=0.00176056875
EXTRACT: note_on channel=0 note=66 velocity=0 time=0.10387355625
EXTRACT: note_on channel=0 note=64 velocity=80 time=0.00176056875
EXTRACT: note_on channel=1 note=54 velocity=0 time=0.33626863125
EXTRACT: note_on channel=1 note=57 velocity=0 time=0
EXTRACT: note_on channel=1 note=61 velocity=0 time=0
EXTRACT: note_on channel=1 note=42 velocity=0 time=0
EXTRACT: note_on channel=1 note=57 velocity=80 time=0.08626786874999999
EXTRACT: note_on channel=1 note=64 velocity=80 time=0
EXTRACT: note_on channel=1 note=61 velocity=80 time=0
EXTRACT: note_on channel=1 note=45 velocity=80 time=0
EXTRACT: note_on channel=1 note=61 velocity=0 time=0.39964910625
EXTRACT: note_on channel=1 note=59 velocity=80 time=0.02288739375
EXTRACT: note_on channel=0 note=64 velocity=0 time=0.42077593125
EXTRACT: note_on channel=0 note=69 velocity=80 time=0.42429706875
EXTRACT: note_on channel=0 note=69 velocity=0 time=0.20950768125
EXTRACT: note_on channel=0 note=68 velocity=80 time=0.00176056875
EXTRACT: note_on channel=1 note=57 velocity=0 time=0.12500038125
EXTRACT: note_on channel=1 note=64 velocity=0 time=0
EXTRACT: note_on channel=1 note=45 velocity=0 time=0
EXTRACT: note_on channel=1 note=59 velocity=0 time=0.021126825
EXTRACT: note_on channel=1 note=61 velocity=80 time=0.06514104375
EXTRACT: note_on channel=1 note=64 velocity=80 time=0
EXTRACT: note_on channel=1 note=68 velocity=80 time=0
EXTRACT: note_on channel=1 note=49 velocity=80 time=0
EXTRACT: note_on channel=1 note=52 velocity=80 time=0
EXTRACT: note_on channel=0 note=68 velocity=0 time=0.84331243125
EXTRACT: note_on channel=1 note=61 velocity=0 time=0.7605657
EXTRACT: note_on channel=1 note=64 velocity=0 time=0
EXTRACT: note_on channel=1 note=68 velocity=0 time=0
EXTRACT: note_on channel=1 note=49 velocity=0 time=0
EXTRACT: note_on channel=1 note=52 velocity=0 time=0
EXTRACT: note_on channel=1 note=59 velocity=80 time=0.08626786874999999
EXTRACT: note_on channel=1 note=63 velocity=80 time=0
EXTRACT: note_on channel=1 note=66 velocity=80 time=0
EXTRACT: note_on channel=1 note=47 velocity=80 time=0
EXTRACT: note_on channel=1 note=51 velocity=80 time=0
EXTRACT: note_on channel=0 note=64 velocity=80 time=1.4788777499999999
EXTRACT: note_on channel=1 note=59 velocity=0 time=0.12500038125
EXTRACT: note_on channel=1 note=63 velocity=0 time=0
EXTRACT: note_on channel=1 note=66 velocity=0 time=0
EXTRACT: note_on channel=1 note=47 velocity=0 time=0
EXTRACT: note_on channel=1 note=51 velocity=0 time=0
EXTRACT: note_on channel=0 note=64 velocity=0 time=0.0845073
EXTRACT: note_on channel=0 note=66 velocity=80 time=0.00176056875
EXTRACT: note_on channel=1 note=54 velocity=80 time=0
EXTRACT: note_on channel=1 note=57 velocity=80 time=0
EXTRACT: note_on channel=1 note=61 velocity=80 time=0
EXTRACT: note_on channel=1 note=42 velocity=80 time=0
EXTRACT: note_on channel=0 note=66 velocity=0 time=0.42077593125
EXTRACT: note_on channel=0 note=66 velocity=80 time=0.42429706875
EXTRACT: note_on channel=0 note=66 velocity=0 time=0.42077593125
EXTRACT: note_on channel=1 note=54 velocity=0 time=0.3380292
EXTRACT: note_on channel=1 note=57 velocity=0 time=0
EXTRACT: note_on channel=1 note=61 velocity=0 time=0
EXTRACT: note_on channel=1 note=42 velocity=0 time=0
EXTRACT: note_on channel=0 note=66 velocity=80 time=0.08626786874999999
EXTRACT: note_on channel=1 note=57 velocity=80 time=0
EXTRACT: note_on channel=1 note=64 velocity=80 time=0
EXTRACT: note_on channel=1 note=61 velocity=80 time=0
EXTRACT: note_on channel=1 note=45 velocity=80 time=0
EXTRACT: note_on channel=1 note=61 velocity=0 time=0.39964910625
EXTRACT: note_on channel=1 note=59 velocity=80 time=0.02288739375
EXTRACT: note_on channel=0 note=66 velocity=0 time=0.42077593125
EXTRACT: note_on channel=0 note=64 velocity=80 time=0.00176056875
EXTRACT: note_on channel=1 note=57 velocity=0 time=0.7588051312499999
EXTRACT: note_on channel=1 note=64 velocity=0 time=0
EXTRACT: note_on channel=1 note=45 velocity=0 time=0
EXTRACT: note_on channel=1 note=59 velocity=0 time=0.021126825
EXTRACT: note_on channel=0 note=64 velocity=0 time=0.06338047499999999
EXTRACT: note_on channel=0 note=73 velocity=80 time=0.00176056875
EXTRACT: note_on channel=1 note=61 velocity=80 time=0
EXTRACT: note_on channel=1 note=64 velocity=80 time=0
EXTRACT: note_on channel=1 note=68 velocity=80 time=0
EXTRACT: note_on channel=1 note=49 velocity=80 time=0
EXTRACT: note_on channel=1 note=52 velocity=80 time=0
EXTRACT: note_on channel=0 note=73 velocity=0 time=0.42077593125
EXTRACT: note_on channel=0 note=71 velocity=80 time=0.00176056875
EXTRACT: note_on channel=0 note=71 velocity=0 time=0.42077593125
EXTRACT: note_on channel=0 note=73 velocity=80 time=0.00176056875
EXTRACT: note_on channel=0 note=73 velocity=0 time=0.42077593125
EXTRACT: note_on channel=0 note=68 velocity=80 time=0.00176056875
EXTRACT: note_on channel=1 note=61 velocity=0 time=0.33626863125
EXTRACT: note_on channel=1 note=64 velocity=0 time=0
EXTRACT: note_on channel=1 note=68 velocity=0 time=0
EXTRACT: note_on channel=1 note=49 velocity=0 time=0
EXTRACT: note_on channel=1 note=52 velocity=0 time=0
EXTRACT: note_on channel=0 note=68 velocity=0 time=0.0845073
EXTRACT: note_on channel=0 note=66 velocity=80 time=0.00176056875
EXTRACT: note_on channel=1 note=59 velocity=80 time=0
EXTRACT: note_on channel=1 note=63 velocity=80 time=0
EXTRACT: note_on channel=1 note=66 velocity=80 time=0
EXTRACT: note_on channel=1 note=47 velocity=80 time=0
EXTRACT: note_on channel=1 note=51 velocity=80 time=0
EXTRACT: note_on channel=0 note=66 velocity=0 time=0.84331243125
EXTRACT: note_on channel=0 note=59 velocity=80 time=0.21302881875
EXTRACT: note_on channel=0 note=59 velocity=0 time=0.20950768125
EXTRACT: note_on channel=0 note=59 velocity=80 time=0.00176056875
EXTRACT: note_on channel=0 note=59 velocity=0 time=0.20950768125
EXTRACT: note_on channel=0 note=59 velocity=80 time=0.00176056875
EXTRACT: note_on channel=1 note=59 velocity=0 time=0.12500038125
EXTRACT: note_on channel=1 note=63 velocity=0 time=0
EXTRACT: note_on channel=1 note=66 velocity=0 time=0
EXTRACT: note_on channel=1 note=47 velocity=0 time=0
EXTRACT: note_on channel=1 note=51 velocity=0 time=0
EXTRACT: note_on channel=0 note=59 velocity=0 time=0.0845073
EXTRACT: note_on channel=0 note=69 velocity=80 time=0.00176056875
EXTRACT: note_on channel=1 note=54 velocity=80 time=0
EXTRACT: note_on channel=1 note=57 velocity=80 time=0
EXTRACT: note_on channel=1 note=61 velocity=80 time=0
EXTRACT: note_on channel=1 note=42 velocity=80 time=0
EXTRACT: note_on channel=0 note=69 velocity=0 time=0.20950768125
EXTRACT: note_on channel=0 note=68 velocity=80 time=0.00176056875
EXTRACT: note_on channel=0 note=68 velocity=0 time=0.20950768125
EXTRACT: note_on channel=0 note=66 velocity=80 time=0.00176056875
EXTRACT: note_on channel=0 note=66 velocity=0 time=0.20950768125
EXTRACT: note_on channel=0 note=68 velocity=80 time=0.00176056875
EXTRACT: note_on channel=0 note=68 velocity=0 time=0.20950768125
EXTRACT: note_on channel=0 note=66 velocity=80 time=0.00176056875
EXTRACT: note_on channel=0 note=66 velocity=0 time=0.20950768125
EXTRACT: note_on channel=0 note=68 velocity=80 time=0.00176056875
EXTRACT: note_on channel=0 note=68 velocity=0 time=0.10387355625
EXTRACT: note_on channel=0 note=66 velocity=80 time=0.00176056875
EXTRACT: note_on channel=0 note=66 velocity=0 time=0.10387355625
EXTRACT: note_on channel=0 note=64 velocity=80 time=0.00176056875
EXTRACT: note_on channel=1 note=54 velocity=0 time=0.33626863125
EXTRACT: note_on channel=1 note=57 velocity=0 time=0
EXTRACT: note_on channel=1 note=61 velocity=0 time=0
EXTRACT: note_on channel=1 note=42 velocity=0 time=0
EXTRACT: note_on channel=1 note=57 velocity=80 time=0.08626786874999999
EXTRACT: note_on channel=1 note=64 velocity=80 time=0
EXTRACT: note_on channel=1 note=61 velocity=80 time=0
EXTRACT: note_on channel=1 note=45 velocity=80 time=0
EXTRACT: note_on channel=1 note=61 velocity=0 time=0.39964910625
EXTRACT: note_on channel=1 note=59 velocity=80 time=0.02288739375
EXTRACT: note_on channel=0 note=64 velocity=0 time=0.42077593125
EXTRACT: note_on channel=0 note=59 velocity=80 time=0.63556531875
EXTRACT: note_on channel=1 note=57 velocity=0 time=0.12500038125
EXTRACT: note_on channel=1 note=64 velocity=0 time=0
EXTRACT: note_on channel=1 note=45 velocity=0 time=0
EXTRACT: note_on channel=1 note=59 velocity=0 time=0.021126825
EXTRACT: note_on channel=0 note=59 velocity=0 time=0.06338047499999999
EXTRACT: note_on channel=0 note=69 velocity=80 time=0.00176056875
EXTRACT: note_on channel=1 note=61 velocity=80 time=0
EXTRACT: note_on channel=1 note=64 velocity=80 time=0
EXTRACT: note_on channel=1 note=68 velocity=80 time=0
EXTRACT: note_on channel=1 note=49 velocity=80 time=0
EXTRACT: note_on channel=1 note=52 velocity=80 time=0
EXTRACT: note_on channel=0 note=69 velocity=0 time=0.20950768125
EXTRACT: note_on channel=0 note=68 velocity=80 time=0.00176056875
EXTRACT: note_on channel=0 note=68 velocity=0 time=0.20950768125
EXTRACT: note_on channel=0 note=66 velocity=80 time=0.00176056875
EXTRACT: note_on channel=0 note=66 velocity=0 time=0.20950768125
EXTRACT: note_on channel=0 note=68 velocity=80 time=0.00176056875
EXTRACT: note_on channel=0 note=68 velocity=0 time=0.20950768125
EXTRACT: note_on channel=0 note=66 velocity=80 time=0.00176056875
EXTRACT: note_on channel=0 note=66 velocity=0 time=0.20950768125
EXTRACT: note_on channel=0 note=68 velocity=80 time=0.00176056875
EXTRACT: note_on channel=0 note=68 velocity=0 time=0.10387355625
EXTRACT: note_on channel=0 note=66 velocity=80 time=0.00176056875
EXTRACT: note_on channel=0 note=66 velocity=0 time=0.10387355625
EXTRACT: note_on channel=0 note=64 velocity=80 time=0.00176056875
EXTRACT: note_on channel=1 note=61 velocity=0 time=0.33626863125
EXTRACT: note_on channel=1 note=64 velocity=0 time=0
EXTRACT: note_on channel=1 note=68 velocity=0 time=0
EXTRACT: note_on channel=1 note=49 velocity=0 time=0
EXTRACT: note_on channel=1 note=52 velocity=0 time=0
EXTRACT: note_on channel=0 note=64 velocity=0 time=0.0845073
EXTRACT: note_on channel=0 note=63 velocity=80 time=0.00176056875
EXTRACT: note_on channel=1 note=59 velocity=80 time=0
EXTRACT: note_on channel=1 note=63 velocity=80 time=0
EXTRACT: note_on channel=1 note=66 velocity=80 time=0
EXTRACT: note_on channel=1 note=47 velocity=80 time=0
EXTRACT: note_on channel=1 note=51 velocity=80 time=0
EXTRACT: note_on channel=0 note=63 velocity=0 time=0.84331243125
EXTRACT: note_on channel=0 note=64 velocity=80 time=0.63556531875
EXTRACT: note_on channel=1 note=59 velocity=0 time=0.12500038125
EXTRACT: note_on channel=1 note=63 velocity=0 time=0
EXTRACT: note_on channel=1 note=66 velocity=0 time=0
EXTRACT: note_on channel=1 note=47 velocity=0 time=0
EXTRACT: note_on channel=1 note=51 velocity=0 time=0
EXTRACT: note_on channel=0 note=64 velocity=0 time=0.0845073
EXTRACT: note_on channel=0 note=66 velocity=80 time=0.00176056875
EXTRACT: note_on channel=1 note=54 velocity=80 time=0
EXTRACT: note_on channel=1 note=57 velocity=80 time=0
EXTRACT: note_on channel=1 note=61 velocity=80 time=0
EXTRACT: note_on channel=1 note=42 velocity=80 time=0
EXTRACT: note_on channel=0 note=66 velocity=0 time=0.42077593125
EXTRACT: note_on channel=0 note=66 velocity=80 time=0.42429706875
EXTRACT: note_on channel=0 note=66 velocity=0 time=0.42077593125
EXTRACT: note_on channel=1 note=54 velocity=0 time=0.3380292
EXTRACT: note_on channel=1 note=57 velocity=0 time=0
EXTRACT: note_on channel=1 note=61 velocity=0 time=0
EXTRACT: note_on channel=1 note=42 velocity=0 time=0
EXTRACT: note_on channel=0 note=66 velocity=80 time=0.08626786874999999
EXTRACT: note_on channel=1 note=57 velocity=80 time=0
EXTRACT: note_on channel=1 note=64 velocity=80 time=0
EXTRACT: note_on channel=1 note=61 velocity=80 time=0
EXTRACT: note_on channel=1 note=45 velocity=80 time=0
EXTRACT: note_on channel=1 note=61 velocity=0 time=0.39964910625
EXTRACT: note_on channel=1 note=59 velocity=80 time=0.02288739375
EXTRACT: note_on channel=0 note=66 velocity=0 time=0.42077593125
EXTRACT: note_on channel=0 note=64 velocity=80 time=0.00176056875
EXTRACT: note_on channel=1 note=57 velocity=0 time=0.7588051312499999
EXTRACT: note_on channel=1 note=64 velocity=0 time=0
EXTRACT: note_on channel=1 note=45 velocity=0 time=0
EXTRACT: note_on channel=1 note=59 velocity=0 time=0.021126825
EXTRACT: note_on channel=0 note=64 velocity=0 time=0.06338047499999999
EXTRACT: note_on channel=0 note=68 velocity=80 time=0.00176056875
EXTRACT: note_on channel=1 note=61 velocity=80 time=0
EXTRACT: note_on channel=1 note=64 velocity=80 time=0
EXTRACT: note_on channel=1 note=68 velocity=80 time=0
EXTRACT: note_on channel=1 note=49 velocity=80 time=0
EXTRACT: note_on channel=1 note=52 velocity=80 time=0
EXTRACT: note_on channel=0 note=68 velocity=0 time=0.42077593125
EXTRACT: note_on channel=0 note=69 velocity=80 time=0.00176056875
EXTRACT: note_on channel=0 note=69 velocity=0 time=0.42077593125
EXTRACT: note_on channel=0 note=71 velocity=80 time=0.00176056875
EXTRACT: note_on channel=0 note=71 velocity=0 time=0.42077593125
EXTRACT: note_on channel=0 note=66 velocity=80 time=0.00176056875
EXTRACT: note_on channel=1 note=61 velocity=0 time=0.33626863125
EXTRACT: note_on channel=1 note=64 velocity=0 time=0
EXTRACT: note_on channel=1 note=68 velocity=0 time=0
EXTRACT: note_on channel=1 note=49 velocity=0 time=0
EXTRACT: note_on channel=1 note=52 velocity=0 time=0
EXTRACT: note_on channel=1 note=59 velocity=80 time=0.08626786874999999
EXTRACT: note_on channel=1 note=63 velocity=80 time=0
EXTRACT: note_on channel=1 note=66 velocity=80 time=0
EXTRACT: note_on channel=1 note=47 velocity=80 time=0
EXTRACT: note_on channel=1 note=51 velocity=80 time=0
EXTRACT: note_on channel=0 note=66 velocity=0 time=0.84331243125
EXTRACT: note_on channel=0 note=59 velocity=80 time=0.21302881875
EXTRACT: note_on channel=0 note=59 velocity=0 time=0.20950768125
EXTRACT: note_on channel=0 note=59 velocity=80 time=0.00176056875
EXTRACT: note_on channel=0 note=59 velocity=0 time=0.20950768125
EXTRACT: note_on channel=0 note=59 velocity=80 time=0.00176056875
EXTRACT: note_on channel=1 note=59 velocity=0 time=0.12500038125
EXTRACT: note_on channel=1 note=63 velocity=0 time=0
EXTRACT: note_on channel=1 note=66 velocity=0 time=0
EXTRACT: note_on channel=1 note=47 velocity=0 time=0
EXTRACT: note_on channel=1 note=51 velocity=0 time=0
EXTRACT: note_on channel=0 note=59 velocity=0 time=0.0845073
EXTRACT: note_on channel=0 note=69 velocity=80 time=0.00176056875
EXTRACT: note_on channel=1 note=54 velocity=80 time=0
EXTRACT: note_on channel=1 note=57 velocity=80 time=0
EXTRACT: note_on channel=1 note=61 velocity=80 time=0
EXTRACT: note_on channel=1 note=42 velocity=80 time=0
EXTRACT: note_on channel=0 note=69 velocity=0 time=0.20950768125
EXTRACT: note_on channel=0 note=68 velocity=80 time=0.00176056875
EXTRACT: note_on channel=0 note=68 velocity=0 time=0.20950768125
EXTRACT: note_on channel=0 note=66 velocity=80 time=0.00176056875
EXTRACT: note_on channel=0 note=66 velocity=0 time=0.20950768125
EXTRACT: note_on channel=0 note=68 velocity=80 time=0.00176056875
EXTRACT: note_on channel=0 note=68 velocity=0 time=0.20950768125
EXTRACT: note_on channel=0 note=66 velocity=80 time=0.00176056875
EXTRACT: note_on channel=0 note=66 velocity=0 time=0.20950768125
EXTRACT: note_on channel=0 note=68 velocity=80 time=0.00176056875
EXTRACT: note_on channel=0 note=68 velocity=0 time=0.10387355625
EXTRACT: note_on channel=0 note=66 velocity=80 time=0.00176056875
EXTRACT: note_on channel=0 note=66 velocity=0 time=0.10387355625
EXTRACT: note_on channel=0 note=64 velocity=80 time=0.00176056875
EXTRACT: note_on channel=1 note=54 velocity=0 time=0.33626863125
EXTRACT: note_on channel=1 note=57 velocity=0 time=0
EXTRACT: note_on channel=1 note=61 velocity=0 time=0
EXTRACT: note_on channel=1 note=42 velocity=0 time=0
EXTRACT: note_on channel=1 note=57 velocity=80 time=0.08626786874999999
EXTRACT: note_on channel=1 note=64 velocity=80 time=0
EXTRACT: note_on channel=1 note=61 velocity=80 time=0
EXTRACT: note_on channel=1 note=45 velocity=80 time=0
EXTRACT: note_on channel=1 note=61 velocity=0 time=0.39964910625
EXTRACT: note_on channel=1 note=59 velocity=80 time=0.02288739375
EXTRACT: note_on channel=0 note=64 velocity=0 time=0.42077593125
EXTRACT: note_on channel=0 note=59 velocity=80 time=0.63556531875
EXTRACT: note_on channel=1 note=57 velocity=0 time=0.12500038125
EXTRACT: note_on channel=1 note=64 velocity=0 time=0
EXTRACT: note_on channel=1 note=45 velocity=0 time=0
EXTRACT: note_on channel=1 note=59 velocity=0 time=0.021126825
EXTRACT: note_on channel=0 note=59 velocity=0 time=0.06338047499999999
EXTRACT: note_on channel=0 note=69 velocity=80 time=0.00176056875
EXTRACT: note_on channel=1 note=61 velocity=80 time=0
EXTRACT: note_on channel=1 note=64 velocity=80 time=0
EXTRACT: note_on channel=1 note=68 velocity=80 time=0
EXTRACT: note_on channel=1 note=49 velocity=80 time=0
EXTRACT: note_on channel=1 note=52 velocity=80 time=0
EXTRACT: note_on channel=0 note=69 velocity=0 time=0.20950768125
EXTRACT: note_on channel=0 note=68 velocity=80 time=0.00176056875
EXTRACT: note_on channel=0 note=68 velocity=0 time=0.20950768125
EXTRACT: note_on channel=0 note=66 velocity=80 time=0.00176056875
EXTRACT: note_on channel=0 note=66 velocity=0 time=0.20950768125
EXTRACT: note_on channel=0 note=68 velocity=80 time=0.00176056875
EXTRACT: note_on channel=0 note=68 velocity=0 time=0.20950768125
EXTRACT: note_on channel=0 note=66 velocity=80 time=0.00176056875
EXTRACT: note_on channel=1 note=61 velocity=0 time=0.7588051312499999
EXTRACT: note_on channel=1 note=64 velocity=0 time=0
EXTRACT: note_on channel=1 note=68 velocity=0 time=0
EXTRACT: note_on channel=1 note=49 velocity=0 time=0
EXTRACT: note_on channel=1 note=52 velocity=0 time=0
EXTRACT: note_on channel=0 note=66 velocity=0 time=0.0845073
EXTRACT: note_on channel=1 note=59 velocity=80 time=0.00176056875
EXTRACT: note_on channel=1 note=63 velocity=80 time=0
EXTRACT: note_on channel=1 note=66 velocity=80 time=0
EXTRACT: note_on channel=1 note=47 velocity=80 time=0
EXTRACT: note_on channel=1 note=51 velocity=80 time=0
EXTRACT: note_on channel=0 note=66 velocity=80 time=0.63380475
EXTRACT: note_on channel=0 note=66 velocity=0 time=0.20950768125
EXTRACT: note_on channel=0 note=66 velocity=80 time=0.00176056875
EXTRACT: note_on channel=0 note=66 velocity=0 time=0.20950768125
EXTRACT: note_on channel=0 note=66 velocity=80 time=0.00176056875
EXTRACT: note_on channel=0 note=66 velocity=0 time=0.20950768125
EXTRACT: note_on channel=0 note=66 velocity=80 time=0.00176056875
EXTRACT: note_on channel=0 note=66 velocity=0 time=0.20950768125
EXTRACT: note_on channel=0 note=66 velocity=80 time=0.00176056875
EXTRACT: note_on channel=1 note=59 velocity=0 time=0.12500038125
EXTRACT: note_on channel=1 note=63 velocity=0 time=0
EXTRACT: note_on channel=1 note=66 velocity=0 time=0
EXTRACT: note_on channel=1 note=47 velocity=0 time=0
EXTRACT: note_on channel=1 note=51 velocity=0 time=0
EXTRACT: note_on channel=1 note=54 velocity=80 time=0.08626786874999999
EXTRACT: note_on channel=1 note=57 velocity=80 time=0
EXTRACT: note_on channel=1 note=61 velocity=80 time=0
EXTRACT: note_on channel=1 note=42 velocity=80 time=0
EXTRACT: note_on channel=0 note=66 velocity=0 time=0.84331243125
EXTRACT: note_on channel=0 note=73 velocity=80 time=0.00176056875
EXTRACT: note_on channel=0 note=73 velocity=0 time=0.63204418125
EXTRACT: note_on channel=0 note=69 velocity=80 time=0.00176056875
EXTRACT: note_on channel=1 note=54 velocity=0 time=0.12500038125
EXTRACT: note_on channel=1 note=57 velocity=0 time=0
EXTRACT: note_on channel=1 note=61 velocity=0 time=0
EXTRACT: note_on channel=1 note=42 velocity=0 time=0
EXTRACT: note_on channel=0 note=69 velocity=0 time=0.0845073
EXTRACT: note_on channel=0 note=68 velocity=80 time=0.00176056875
EXTRACT: note_on channel=1 note=57 velocity=80 time=0
EXTRACT: note_on channel=1 note=64 velocity=80 time=0
EXTRACT: note_on channel=1 note=61 velocity=80 time=0
EXTRACT: note_on channel=1 note=45 velocity=80 time=0
EXTRACT: note_on channel=1 note=61 velocity=0 time=0.39964910625
EXTRACT: note_on channel=1 note=59 velocity=80 time=0.02288739375
EXTRACT: note_on channel=0 note=68 velocity=0 time=0.20950768125
EXTRACT: note_on channel=0 note=69 velocity=80 time=0.00176056875
EXTRACT: note_on channel=0 note=69 velocity=0 time=0.20950768125
EXTRACT: note_on channel=0 note=68 velocity=80 time=0.00176056875
EXTRACT: note_on channel=1 note=57 velocity=0 time=0.7588051312499999
EXTRACT: note_on channel=1 note=64 velocity=0 time=0
EXTRACT: note_on channel=1 note=45 velocity=0 time=0
EXTRACT: note_on channel=1 note=59 velocity=0 time=0.021126825
EXTRACT: note_on channel=1 note=61 velocity=80 time=0.06514104375
EXTRACT: note_on channel=1 note=64 velocity=80 time=0
EXTRACT: note_on channel=1 note=68 velocity=80 time=0
EXTRACT: note_on channel=1 note=49 velocity=80 time=0
EXTRACT: note_on channel=1 note=52 velocity=80 time=0
EXTRACT: note_on channel=0 note=68 velocity=0 time=0.42077593125
EXTRACT: note_on channel=1 note=61 velocity=0 time=1.1831022
EXTRACT: note_on channel=1 note=64 velocity=0 time=0
EXTRACT: note_on channel=1 note=68 velocity=0 time=0
EXTRACT: note_on channel=1 note=49 velocity=0 time=0
EXTRACT: note_on channel=1 note=52 velocity=0 time=0
EXTRACT: note_on channel=1 note=59 velocity=80 time=0.08626786874999999
EXTRACT: note_on channel=1 note=63 velocity=80 time=0
EXTRACT: note_on channel=1 note=66 velocity=80 time=0
EXTRACT: note_on channel=1 note=47 velocity=80 time=0
EXTRACT: note_on channel=1 note=51 velocity=80 time=0
EXTRACT: note_on channel=0 note=66 velocity=80 time=0.63380475
EXTRACT: note_on channel=0 note=66 velocity=0 time=0.20950768125
EXTRACT: note_on channel=0 note=66 velocity=80 time=0.00176056875
EXTRACT: note_on channel=0 note=66 velocity=0 time=0.20950768125
EXTRACT: note_on channel=0 note=66 velocity=80 time=0.00176056875
EXTRACT: note_on channel=0 note=66 velocity=0 time=0.20950768125
EXTRACT: note_on channel=0 note=66 velocity=80 time=0.00176056875
EXTRACT: note_on channel=0 note=66 velocity=0 time=0.20950768125
EXTRACT: note_on channel=0 note=66 velocity=80 time=0.00176056875
EXTRACT: note_on channel=1 note=59 velocity=0 time=0.12500038125
EXTRACT: note_on channel=1 note=63 velocity=0 time=0
EXTRACT: note_on channel=1 note=66 velocity=0 time=0
EXTRACT: note_on channel=1 note=47 velocity=0 time=0
EXTRACT: note_on channel=1 note=51 velocity=0 time=0
EXTRACT: note_on channel=1 note=54 velocity=80 time=0.08626786874999999
EXTRACT: note_on channel=1 note=57 velocity=80 time=0
EXTRACT: note_on channel=1 note=61 velocity=80 time=0
EXTRACT: note_on channel=1 note=42 velocity=80 time=0
EXTRACT: note_on channel=0 note=66 velocity=0 time=0.63204418125
EXTRACT: note_on channel=0 note=66 velocity=80 time=0.21302881875
EXTRACT: note_on channel=0 note=66 velocity=0 time=0.63204418125
EXTRACT: note_on channel=1 note=54 velocity=0 time=0.12676094999999998
EXTRACT: note_on channel=1 note=57 velocity=0 time=0
EXTRACT: note_on channel=1 note=61 velocity=0 time=0
EXTRACT: note_on channel=1 note=42 velocity=0 time=0
EXTRACT: note_on channel=0 note=66 velocity=80 time=0.08626786874999999
EXTRACT: note_on channel=1 note=57 velocity=80 time=0
EXTRACT: note_on channel=1 note=64 velocity=80 time=0
EXTRACT: note_on channel=1 note=61 velocity=80 time=0
EXTRACT: note_on channel=1 note=45 velocity=80 time=0
EXTRACT: note_on channel=1 note=61 velocity=0 time=0.39964910625
EXTRACT: note_on channel=1 note=59 velocity=80 time=0.02288739375
EXTRACT: note_on channel=0 note=66 velocity=0 time=0.42077593125
EXTRACT: note_on channel=0 note=64 velocity=80 time=0.00176056875
EXTRACT: note_on channel=1 note=57 velocity=0 time=0.7588051312499999
EXTRACT: note_on channel=1 note=64 velocity=0 time=0
EXTRACT: note_on channel=1 note=45 velocity=0 time=0
EXTRACT: note_on channel=1 note=59 velocity=0 time=0.021126825
EXTRACT: note_on channel=0 note=64 velocity=0 time=0.06338047499999999
EXTRACT: note_on channel=1 note=61 velocity=80 time=0.00176056875
EXTRACT: note_on channel=1 note=64 velocity=80 time=0
EXTRACT: note_on channel=1 note=68 velocity=80 time=0
EXTRACT: note_on channel=1 note=49 velocity=80 time=0
EXTRACT: note_on channel=1 note=52 velocity=80 time=0
EXTRACT: note_on channel=1 note=61 velocity=0 time=1.60387813125
EXTRACT: note_on channel=1 note=64 velocity=0 time=0
EXTRACT: note_on channel=1 note=68 velocity=0 time=0
EXTRACT: note_on channel=1 note=49 velocity=0 time=0
EXTRACT: note_on channel=1 note=52 velocity=0 time=0
EXTRACT: note_on channel=1 note=59 velocity=80 time=0.08626786874999999
EXTRACT: note_on channel=1 note=63 velocity=80 time=0
EXTRACT: note_on channel=1 note=66 velocity=80 time=0
EXTRACT: note_on channel=1 note=47 velocity=80 time=0
EXTRACT: note_on channel=1 note=51 velocity=80 time=0
EXTRACT: note_on channel=0 note=71 velocity=80 time=0.63380475
EXTRACT: note_on channel=0 note=71 velocity=0 time=0.20950768125
EXTRACT: note_on channel=0 note=71 velocity=80 time=0.00176056875
EXTRACT: note_on channel=0 note=71 velocity=0 time=0.20950768125
EXTRACT: note_on channel=0 note=73 velocity=80 time=0.00176056875
EXTRACT: note_on channel=0 note=73 velocity=0 time=0.20950768125
EXTRACT: note_on channel=0 note=73 velocity=80 time=0.00176056875
EXTRACT: note_on channel=0 note=73 velocity=0 time=0.20950768125
EXTRACT: note_on channel=0 note=73 velocity=80 time=0.00176056875
EXTRACT: note_on channel=1 note=59 velocity=0 time=0.12500038125
EXTRACT: note_on channel=1 note=63 velocity=0 time=0
EXTRACT: note_on channel=1 note=66 velocity=0 time=0
EXTRACT: note_on channel=1 note=47 velocity=0 time=0
EXTRACT: note_on channel=1 note=51 velocity=0 time=0
EXTRACT: note_on channel=1 note=54 velocity=80 time=0.08626786874999999
EXTRACT: note_on channel=1 note=57 velocity=80 time=0
EXTRACT: note_on channel=1 note=61 velocity=80 time=0
EXTRACT: note_on channel=1 note=42 velocity=80 time=0
EXTRACT: note_on channel=0 note=73 velocity=0 time=0.84331243125
EXTRACT: note_on channel=0 note=80 velocity=80 time=0.00176056875
EXTRACT: note_on channel=0 note=80 velocity=0 time=0.63204418125
EXTRACT: note_on channel=0 note=78 velocity=80 time=0.00176056875
EXTRACT: note_on channel=1 note=54 velocity=0 time=0.12500038125
EXTRACT: note_on channel=1 note=57 velocity=0 time=0
EXTRACT: note_on channel=1 note=61 velocity=0 time=0
EXTRACT: note_on channel=1 note=42 velocity=0 time=0
EXTRACT: note_on channel=0 note=78 velocity=0 time=0.0845073
EXTRACT: note_on channel=0 note=78 velocity=80 time=0.00176056875
EXTRACT: note_on channel=1 note=57 velocity=80 time=0
EXTRACT: note_on channel=1 note=64 velocity=80 time=0
EXTRACT: note_on channel=1 note=61 velocity=80 time=0
EXTRACT: note_on channel=1 note=45 velocity=80 time=0
EXTRACT: note_on channel=1 note=61 velocity=0 time=0.39964910625
EXTRACT: note_on channel=1 note=59 velocity=80 time=0.02288739375
EXTRACT: note_on channel=0 note=78 velocity=0 time=0.84331243125
EXTRACT: note_on channel=0 note=76 velocity=80 time=0.00176056875
EXTRACT: note_on channel=1 note=57 velocity=0 time=0.33626863125
EXTRACT: note_on channel=1 note=64 velocity=0 time=0
EXTRACT: note_on channel=1 note=45 velocity=0 time=0
EXTRACT: note_on channel=1 note=59 velocity=0 time=0.021126825
EXTRACT: note_on channel=0 note=76 velocity=0 time=0.06338047499999999
EXTRACT: note_on channel=1 note=61 velocity=80 time=0.00176056875
EXTRACT: note_on channel=1 note=64 velocity=80 time=0
EXTRACT: note_on channel=1 note=68 velocity=80 time=0
EXTRACT: note_on channel=1 note=49 velocity=80 time=0
EXTRACT: note_on channel=1 note=52 velocity=80 time=0
EXTRACT: note_on channel=1 note=61 velocity=0 time=1.60387813125
EXTRACT: note_on channel=1 note=64 velocity=0 time=0
EXTRACT: note_on channel=1 note=68 velocity=0 time=0
EXTRACT: note_on channel=1 note=49 velocity=0 time=0
EXTRACT: note_on channel=1 note=52 velocity=0 time=0
EXTRACT: note_on channel=1 note=59 velocity=80 time=0.08626786874999999
EXTRACT: note_on channel=1 note=63 velocity=80 time=0
EXTRACT: note_on channel=1 note=66 velocity=80 time=0
EXTRACT: note_on channel=1 note=47 velocity=80 time=0
EXTRACT: note_on channel=1 note=51 velocity=80 time=0
EXTRACT: note_on channel=0 note=59 velocity=80 time=1.4788777499999999
EXTRACT: note_on channel=1 note=59 velocity=0 time=0.12500038125
EXTRACT: note_on channel=1 note=63 velocity=0 time=0
EXTRACT: note_on channel=1 note=66 velocity=0 time=0
EXTRACT: note_on channel=1 note=47 velocity=0 time=0
EXTRACT: note_on channel=1 note=51 velocity=0 time=0
EXTRACT: note_on channel=0 note=59 velocity=0 time=0.0845073
EXTRACT: note_on channel=0 note=69 velocity=80 time=0.00176056875
EXTRACT: note_on channel=1 note=54 velocity=80 time=0
EXTRACT: note_on channel=1 note=57 velocity=80 time=0
EXTRACT: note_on channel=1 note=61 velocity=80 time=0
EXTRACT: note_on channel=1 note=42 velocity=80 time=0
EXTRACT: note_on channel=0 note=69 velocity=0 time=0.20950768125
EXTRACT: note_on channel=0 note=68 velocity=80 time=0.00176056875
EXTRACT: note_on channel=0 note=68 velocity=0 time=0.20950768125
EXTRACT: note_on channel=0 note=66 velocity=80 time=0.00176056875
EXTRACT: note_on channel=0 note=66 velocity=0 time=0.20950768125
EXTRACT: note_on channel=0 note=68 velocity=80 time=0.00176056875
EXTRACT: note_on channel=0 note=68 velocity=0 time=0.20950768125
EXTRACT: note_on channel=0 note=66 velocity=80 time=0.00176056875
EXTRACT: note_on channel=0 note=66 velocity=0 time=0.20950768125
EXTRACT: note_on channel=0 note=68 velocity=80 time=0.00176056875
EXTRACT: note_on channel=0 note=68 velocity=0 time=0.10387355625
EXTRACT: note_on channel=0 note=66 velocity=80 time=0.00176056875
EXTRACT: note_on channel=0 note=66 velocity=0 time=0.10387355625
EXTRACT: note_on channel=0 note=64 velocity=80 time=0.00176056875
EXTRACT: note_on channel=1 note=54 velocity=0 time=0.33626863125
EXTRACT: note_on channel=1 note=57 velocity=0 time=0
EXTRACT: note_on channel=1 note=61 velocity=0 time=0
EXTRACT: note_on channel=1 note=42 velocity=0 time=0
EXTRACT: note_on channel=1 note=57 velocity=80 time=0.08626786874999999
EXTRACT: note_on channel=1 note=64 velocity=80 time=0
EXTRACT: note_on channel=1 note=61 velocity=80 time=0
EXTRACT: note_on channel=1 note=45 velocity=80 time=0
EXTRACT: note_on channel=1 note=61 velocity=0 time=0.39964910625
EXTRACT: note_on channel=1 note=59 velocity=80 time=0.02288739375
EXTRACT: note_on channel=0 note=64 velocity=0 time=0.42077593125
EXTRACT: note_on channel=0 note=69 velocity=80 time=0.42429706875
EXTRACT: note_on channel=0 note=69 velocity=0 time=0.20950768125
EXTRACT: note_on channel=0 note=68 velocity=80 time=0.00176056875
EXTRACT: note_on channel=1 note=57 velocity=0 time=0.12500038125
EXTRACT: note_on channel=1 note=64 velocity=0 time=0
EXTRACT: note_on channel=1 note=45 velocity=0 time=0
EXTRACT: note_on channel=1 note=59 velocity=0 time=0.021126825
EXTRACT: note_on channel=1 note=61 velocity=80 time=0.06514104375
EXTRACT: note_on channel=1 note=64 velocity=80 time=0
EXTRACT: note_on channel=1 note=68 velocity=80 time=0
EXTRACT: note_on channel=1 note=49 velocity=80 time=0
EXTRACT: note_on channel=1 note=52 velocity=80 time=0
EXTRACT: note_on channel=0 note=68 velocity=0 time=1.47711718125
EXTRACT: note_on channel=0 note=66 velocity=80 time=0.00176056875
EXTRACT: note_on channel=0 note=66 velocity=0 time=0.10387355625
EXTRACT: note_on channel=0 note=68 velocity=80 time=0.00176056875
EXTRACT: note_on channel=1 note=61 velocity=0 time=0.019366256249999998
EXTRACT: note_on channel=1 note=64 velocity=0 time=0
EXTRACT: note_on channel=1 note=68 velocity=0 time=0
EXTRACT: note_on channel=1 note=49 velocity=0 time=0
EXTRACT: note_on channel=1 note=52 velocity=0 time=0
EXTRACT: note_on channel=0 note=68 velocity=0 time=0.0845073
EXTRACT: note_on channel=0 note=71 velocity=80 time=0.00176056875
EXTRACT: note_on channel=1 note=59 velocity=80 time=0
EXTRACT: note_on channel=1 note=63 velocity=80 time=0
EXTRACT: note_on channel=1 note=66 velocity=80 time=0
EXTRACT: note_on channel=1 note=47 velocity=80 time=0
EXTRACT: note_on channel=1 note=51 velocity=80 time=0
EXTRACT: note_on channel=0 note=71 velocity=0 time=0.84331243125
EXTRACT: note_on channel=0 note=73 velocity=80 time=0.00176056875
EXTRACT: note_on channel=1 note=59 velocity=0 time=0.35739545624999997
EXTRACT: note_on channel=1 note=63 velocity=0 time=0
EXTRACT: note_on channel=1 note=66 velocity=0 time=0
EXTRACT: note_on channel=1 note=47 velocity=0 time=0
EXTRACT: note_on channel=1 note=51 velocity=0 time=0
EXTRACT: note_on channel=0 note=73 velocity=0 time=0.06338047499999999
EXTRACT: note_on channel=0 note=71 velocity=80 time=0.00176056875
EXTRACT: note_on channel=1 note=73 velocity=80 time=0
EXTRACT: note_on channel=1 note=37 velocity=80 time=0
EXTRACT: note_on channel=0 note=71 velocity=0 time=0.20950768125
EXTRACT: note_on channel=0 note=69 velocity=80 time=0.00176056875
EXTRACT: note_on channel=1 note=73 velocity=0 time=0.18838085625
EXTRACT: note_on channel=1 note=37 velocity=0 time=0
EXTRACT: note_on channel=0 note=69 velocity=0 time=0.021126825
EXTRACT: note_on channel=0 note=68 velocity=80 time=0.00176056875
EXTRACT: note_on channel=1 note=80 velocity=80 time=0
EXTRACT: note_on channel=1 note=30 velocity=80 time=0
EXTRACT: note_on channel=1 note=30 velocity=0 time=0.39964910625
EXTRACT: note_on channel=0 note=68 velocity=0 time=0.021126825
EXTRACT: note_on channel=0 note=64 velocity=80 time=0.00176056875
EXTRACT: note_on channel=1 note=42 velocity=80 time=0
EXTRACT: note_on channel=1 note=42 velocity=0 time=0.19894426875
EXTRACT: note_on channel=1 note=42 velocity=80 time=0.01232398125
EXTRACT: note_on channel=1 note=80 velocity=0 time=0.16725403125
EXTRACT: note_on channel=1 note=42 velocity=0 time=0.031690237499999996
EXTRACT: note_on channel=0 note=64 velocity=0 time=0.0105634125
EXTRACT: note_on channel=0 note=66 velocity=80 time=0.00176056875
EXTRACT: note_on channel=1 note=73 velocity=80 time=0
EXTRACT: note_on channel=1 note=30 velocity=80 time=0
EXTRACT: note_on channel=1 note=73 velocity=0 time=0.39964910625
EXTRACT: note_on channel=1 note=30 velocity=0 time=0
EXTRACT: note_on channel=0 note=66 velocity=0 time=0.021126825
EXTRACT: note_on channel=0 note=64 velocity=80 time=0.00176056875
EXTRACT: note_on channel=1 note=76 velocity=80 time=0
EXTRACT: note_on channel=1 note=42 velocity=80 time=0
EXTRACT: note_on channel=1 note=42 velocity=0 time=0.19894426875
EXTRACT: note_on channel=1 note=42 velocity=80 time=0.01232398125
EXTRACT: note_on channel=1 note=42 velocity=0 time=0.19894426875
EXTRACT: note_on channel=1 note=33 velocity=80 time=0.01232398125
EXTRACT: note_on channel=1 note=33 velocity=0 time=0.39964910625
EXTRACT: note_on channel=1 note=42 velocity=80 time=0.02288739375
EXTRACT: note_on channel=1 note=45 velocity=80 time=0
EXTRACT: note_on channel=1 note=42 velocity=0 time=0.19894426875
EXTRACT: note_on channel=1 note=45 velocity=0 time=0
EXTRACT: note_on channel=1 note=42 velocity=80 time=0.01232398125
EXTRACT: note_on channel=1 note=45 velocity=80 time=0
EXTRACT: note_on channel=1 note=76 velocity=0 time=0.14612720625
EXTRACT: note_on channel=1 note=42 velocity=0 time=0.0528170625
EXTRACT: note_on channel=1 note=45 velocity=0 time=0
EXTRACT: note_on channel=1 note=33 velocity=80 time=0.01232398125
EXTRACT: note_on channel=1 note=33 velocity=0 time=0.39964910625
EXTRACT: note_on channel=0 note=64 velocity=0 time=0.021126825
EXTRACT: note_on channel=1 note=73 velocity=80 time=0.00176056875
EXTRACT: note_on channel=1 note=42 velocity=80 time=0
EXTRACT: note_on channel=1 note=45 velocity=80 time=0
EXTRACT: note_on channel=1 note=42 velocity=0 time=0.19894426875
EXTRACT: note_on channel=1 note=45 velocity=0 time=0
EXTRACT: note_on channel=1 note=42 velocity=80 time=0.01232398125
EXTRACT: note_on channel=1 note=45 velocity=80 time=0
EXTRACT: note_on channel=1 note=73 velocity=0 time=0.18838085625
EXTRACT: note_on channel=1 note=42 velocity=0 time=0.0105634125
EXTRACT: note_on channel=1 note=45 velocity=0 time=0
EXTRACT: note_on channel=1 note=80 velocity=80 time=0.01232398125
EXTRACT: note_on channel=1 note=37 velocity=80 time=0
EXTRACT: note_on channel=1 note=37 velocity=0 time=0.39964910625
EXTRACT: note_on channel=1 note=44 velocity=80 time=0.02288739375
EXTRACT: note_on channel=1 note=49 velocity=80 time=0
EXTRACT: note_on channel=1 note=44 velocity=0 time=0.19894426875
EXTRACT: note_on channel=1 note=49 velocity=0 time=0
EXTRACT: note_on channel=1 note=44 velocity=80 time=0.01232398125
EXTRACT: note_on channel=1 note=49 velocity=80 time=0
EXTRACT: note_on channel=1 note=80 velocity=0 time=0.16725403125
EXTRACT: note_on channel=1 note=44 velocity=0 time=0.031690237499999996
EXTRACT: note_on channel=1 note=49 velocity=0 time=0
EXTRACT: note_on channel=1 note=76 velocity=80 time=0.01232398125
EXTRACT: note_on channel=1 note=37 velocity=80 time=0
EXTRACT: note_on channel=1 note=76 velocity=0 time=0.39964910625
EXTRACT: note_on channel=1 note=37 velocity=0 time=0
EXTRACT: note_on channel=1 note=75 velocity=80 time=0.02288739375
EXTRACT: note_on channel=1 note=44 velocity=80 time=0
EXTRACT: note_on channel=1 note=49 velocity=80 time=0
EXTRACT: note_on channel=1 note=44 velocity=0 time=0.19894426875
EXTRACT: note_on channel=1 note=49 velocity=0 time=0
EXTRACT: note_on channel=1 note=44 velocity=80 time=0.01232398125
EXTRACT: note_on channel=1 note=49 velocity=80 time=0
EXTRACT: note_on channel=1 note=44 velocity=0 time=0.19894426875
EXTRACT: note_on channel=1 note=49 velocity=0 time=0
EXTRACT: note_on channel=1 note=35 velocity=80 time=0.01232398125
EXTRACT: note_on channel=1 note=35 velocity=0 time=0.39964910625
EXTRACT: note_on channel=1 note=42 velocity=80 time=0.02288739375
EXTRACT: note_on channel=1 note=47 velocity=80 time=0
EXTRACT: note_on channel=1 note=42 velocity=0 time=0.19894426875
EXTRACT: note_on channel=1 note=47 velocity=0 time=0
EXTRACT: note_on channel=1 note=42 velocity=80 time=0.01232398125
EXTRACT: note_on channel=1 note=47 velocity=80 time=0
EXTRACT: note_on channel=1 note=75 velocity=0 time=0.14612720625
EXTRACT: note_on channel=1 note=42 velocity=0 time=0.0528170625
EXTRACT: note_on channel=1 note=47 velocity=0 time=0
EXTRACT: note_on channel=0 note=73 velocity=80 time=0.01232398125
EXTRACT: note_on channel=1 note=35 velocity=80 time=0
EXTRACT: note_on channel=1 note=35 velocity=0 time=0.39964910625
EXTRACT: note_on channel=1 note=73 velocity=80 time=0.02288739375
EXTRACT: note_on channel=1 note=42 velocity=80 time=0
EXTRACT: note_on channel=1 note=47 velocity=80 time=0
EXTRACT: note_on channel=1 note=42 velocity=0 time=0.19894426875
EXTRACT: note_on channel=1 note=47 velocity=0 time=0
EXTRACT: note_on channel=0 note=73 velocity=0 time=0.0105634125
EXTRACT: note_on channel=0 note=73 velocity=80 time=0.00176056875
EXTRACT: note_on channel=1 note=42 velocity=80 time=0
EXTRACT: note_on channel=1 note=47 velocity=80 time=0
EXTRACT: note_on channel=1 note=73 velocity=0 time=0.18838085625
EXTRACT: note_on channel=1 note=42 velocity=0 time=0.0105634125
EXTRACT: note_on channel=1 note=47 velocity=0 time=0
EXTRACT: note_on channel=1 note=80 velocity=80 time=0.01232398125
EXTRACT: note_on channel=1 note=30 velocity=80 time=0
EXTRACT: note_on channel=0 note=73 velocity=0 time=0.20950768125
EXTRACT: note_on channel=0 note=71 velocity=80 time=0.00176056875
EXTRACT: note_on channel=1 note=30 velocity=0 time=0.18838085625
EXTRACT: note_on channel=0 note=71 velocity=0 time=0.021126825
EXTRACT: note_on channel=0 note=69 velocity=80 time=0.00176056875
EXTRACT: note_on channel=1 note=42 velocity=80 time=0
EXTRACT: note_on channel=1 note=42 velocity=0 time=0.19894426875
EXTRACT: note_on channel=1 note=42 velocity=80 time=0.01232398125
EXTRACT: note_on channel=1 note=80 velocity=0 time=0.16725403125
EXTRACT: note_on channel=1 note=42 velocity=0 time=0.031690237499999996
EXTRACT: note_on channel=0 note=69 velocity=0 time=0.0105634125
EXTRACT: note_on channel=0 note=68 velocity=80 time=0.00176056875
EXTRACT: note_on channel=1 note=73 velocity=80 time=0
EXTRACT: note_on channel=1 note=30 velocity=80 time=0
EXTRACT: note_on channel=1 note=73 velocity=0 time=0.39964910625
EXTRACT: note_on channel=1 note=30 velocity=0 time=0
EXTRACT: note_on channel=0 note=68 velocity=0 time=0.021126825
EXTRACT: note_on channel=0 note=66 velocity=80 time=0.00176056875
EXTRACT: note_on channel=1 note=76 velocity=80 time=0
EXTRACT: note_on channel=1 note=42 velocity=80 time=0
EXTRACT: note_on channel=1 note=42 velocity=0 time=0.19894426875
EXTRACT: note_on channel=1 note=42 velocity=80 time=0.01232398125
EXTRACT: note_on channel=1 note=42 velocity=0 time=0.19894426875
EXTRACT: note_on channel=1 note=33 velocity=80 time=0.01232398125
EXTRACT: note_on channel=0 note=66 velocity=0 time=0.20950768125
EXTRACT: note_on channel=0 note=68 velocity=80 time=0.00176056875
EXTRACT: note_on channel=0 note=68 velocity=0 time=0.10387355625
EXTRACT: note_on channel=0 note=66 velocity=80 time=0.00176056875
EXTRACT: note_on channel=1 note=33 velocity=0 time=0.08274673125
EXTRACT: note_on channel=0 note=66 velocity=0 time=0.021126825
EXTRACT: note_on channel=0 note=64 velocity=80 time=0.00176056875
EXTRACT: note_on channel=1 note=42 velocity=80 time=0
EXTRACT: note_on channel=1 note=45 velocity=80 time=0
EXTRACT: note_on channel=1 note=42 velocity=0 time=0.19894426875
EXTRACT: note_on channel=1 note=45 velocity=0 time=0
EXTRACT: note_on channel=1 note=42 velocity=80 time=0.01232398125
EXTRACT: note_on channel=1 note=45 velocity=80 time=0
EXTRACT: note_on channel=1 note=76 velocity=0 time=0.14612720625
EXTRACT: note_on channel=1 note=42 velocity=0 time=0.0528170625
EXTRACT: note_on channel=1 note=45 velocity=0 time=0
EXTRACT: note_on channel=1 note=33 velocity=80 time=0.01232398125
EXTRACT: note_on channel=1 note=33 velocity=0 time=0.39964910625
EXTRACT: note_on channel=1 note=73 velocity=80 time=0.02288739375
EXTRACT: note_on channel=1 note=42 velocity=80 time=0
EXTRACT: note_on channel=1 note=45 velocity=80 time=0
EXTRACT: note_on channel=1 note=42 velocity=0 time=0.19894426875
EXTRACT: note_on channel=1 note=45 velocity=0 time=0
EXTRACT: note_on channel=1 note=42 velocity=80 time=0.01232398125
EXTRACT: note_on channel=1 note=45 velocity=80 time=0
EXTRACT: note_on channel=1 note=73 velocity=0 time=0.18838085625
EXTRACT: note_on channel=1 note=42 velocity=0 time=0.0105634125
EXTRACT: note_on channel=1 note=45 velocity=0 time=0
EXTRACT: note_on channel=0 note=64 velocity=0 time=0.0105634125
EXTRACT: note_on channel=1 note=80 velocity=80 time=0.00176056875
EXTRACT: note_on channel=1 note=37 velocity=80 time=0
EXTRACT: note_on channel=1 note=37 velocity=0 time=0.39964910625
EXTRACT: note_on channel=1 note=44 velocity=80 time=0.02288739375
EXTRACT: note_on channel=1 note=49 velocity=80 time=0
EXTRACT: note_on channel=1 note=44 velocity=0 time=0.19894426875
EXTRACT: note_on channel=1 note=49 velocity=0 time=0
EXTRACT: note_on channel=1 note=44 velocity=80 time=0.01232398125
EXTRACT: note_on channel=1 note=49 velocity=80 time=0
EXTRACT: note_on channel=1 note=80 velocity=0 time=0.16725403125
EXTRACT: note_on channel=1 note=44 velocity=0 time=0.031690237499999996
EXTRACT: note_on channel=1 note=49 velocity=0 time=0
EXTRACT: note_on channel=1 note=76 velocity=80 time=0.01232398125
EXTRACT: note_on channel=1 note=37 velocity=80 time=0
EXTRACT: note_on channel=1 note=76 velocity=0 time=0.39964910625
EXTRACT: note_on channel=1 note=37 velocity=0 time=0
EXTRACT: note_on channel=1 note=75 velocity=80 time=0.02288739375
EXTRACT: note_on channel=1 note=44 velocity=80 time=0
EXTRACT: note_on channel=1 note=49 velocity=80 time=0
EXTRACT: note_on channel=1 note=44 velocity=0 time=0.19894426875
EXTRACT: note_on channel=1 note=49 velocity=0 time=0
EXTRACT: note_on channel=1 note=44 velocity=80 time=0.01232398125
EXTRACT: note_on channel=1 note=49 velocity=80 time=0
EXTRACT: note_on channel=1 note=44 velocity=0 time=0.19894426875
EXTRACT: note_on channel=1 note=49 velocity=0 time=0
EXTRACT: note_on channel=1 note=35 velocity=80 time=0.01232398125
EXTRACT: note_on channel=1 note=75 velocity=0 time=0.77993195625
EXTRACT: note_on channel=1 note=71 velocity=80 time=0.06514104375
EXTRACT: note_on channel=1 note=35 velocity=0 time=0.35739545624999997
EXTRACT: note_on channel=1 note=71 velocity=0 time=0.04225365
EXTRACT: note_on channel=1 note=68 velocity=80 time=0.02288739375
EXTRACT: note_on channel=1 note=73 velocity=80 time=0
EXTRACT: note_on channel=1 note=42 velocity=80 time=0
EXTRACT: note_on channel=1 note=47 velocity=80 time=0
EXTRACT: note_on channel=1 note=42 velocity=0 time=0.19894426875
EXTRACT: note_on channel=1 note=47 velocity=0 time=0
EXTRACT: note_on channel=1 note=42 velocity=80 time=0.01232398125
EXTRACT: note_on channel=1 note=47 velocity=80 time=0
EXTRACT: note_on channel=1 note=68 velocity=0 time=0.18838085625
EXTRACT: note_on channel=1 note=73 velocity=0 time=0
EXTRACT: note_on channel=1 note=42 velocity=0 time=0.0105634125
EXTRACT: note_on channel=1 note=47 velocity=0 time=0
EXTRACT: note_on channel=1 note=80 velocity=80 time=0.01232398125
EXTRACT: note_on channel=1 note=30 velocity=80 time=0
EXTRACT: note_on channel=1 note=30 velocity=0 time=0.39964910625
EXTRACT: note_on channel=1 note=42 velocity=80 time=0.02288739375
EXTRACT: note_on channel=1 note=42 velocity=0 time=0.19894426875
EXTRACT: note_on channel=1 note=42 velocity=80 time=0.01232398125
EXTRACT: note_on channel=1 note=80 velocity=0 time=0.16725403125
EXTRACT: note_on channel=1 note=42 velocity=0 time=0.031690237499999996
EXTRACT: note_on channel=1 note=73 velocity=80 time=0.01232398125
EXTRACT: note_on channel=1 note=30 velocity=80 time=0
EXTRACT: note_on channel=1 note=73 velocity=0 time=0.39964910625
EXTRACT: note_on channel=1 note=30 velocity=0 time=0
EXTRACT: note_on channel=1 note=76 velocity=80 time=0.02288739375
EXTRACT: note_on channel=1 note=42 velocity=80 time=0
EXTRACT: note_on channel=1 note=42 velocity=0 time=0.19894426875
EXTRACT: note_on channel=1 note=42 velocity=80 time=0.01232398125
EXTRACT: note_on channel=1 note=42 velocity=0 time=0.19894426875
EXTRACT: note_on channel=1 note=33 velocity=80 time=0.01232398125
EXTRACT: note_on channel=1 note=33 velocity=0 time=0.39964910625
EXTRACT: note_on channel=1 note=42 velocity=80 time=0.02288739375
EXTRACT: note_on channel=1 note=45 velocity=80 time=0
EXTRACT: note_on channel=1 note=42 velocity=0 time=0.19894426875
EXTRACT: note_on channel=1 note=45 velocity=0 time=0
EXTRACT: note_on channel=1 note=42 velocity=80 time=0.01232398125
EXTRACT: note_on channel=1 note=45 velocity=80 time=0
EXTRACT: note_on channel=1 note=76 velocity=0 time=0.14612720625
EXTRACT: note_on channel=1 note=42 velocity=0 time=0.0528170625
EXTRACT: note_on channel=1 note=45 velocity=0 time=0
EXTRACT: note_on channel=1 note=33 velocity=80 time=0.01232398125
EXTRACT: note_on channel=1 note=33 velocity=0 time=0.39964910625
EXTRACT: note_on channel=1 note=61 velocity=80 time=0.02288739375
EXTRACT: note_on channel=1 note=73 velocity=80 time=0
EXTRACT: note_on channel=1 note=42 velocity=80 time=0
EXTRACT: note_on channel=1 note=45 velocity=80 time=0
EXTRACT: note_on channel=1 note=42 velocity=0 time=0.19894426875
EXTRACT: note_on channel=1 note=45 velocity=0 time=0
EXTRACT: note_on channel=1 note=42 velocity=80 time=0.01232398125
EXTRACT: note_on channel=1 note=45 velocity=80 time=0
EXTRACT: note_on channel=1 note=61 velocity=0 time=0.18838085625
EXTRACT: note_on channel=1 note=73 velocity=0 time=0
EXTRACT: note_on channel=1 note=42 velocity=0 time=0.0105634125
EXTRACT: note_on channel=1 note=45 velocity=0 time=0
EXTRACT: note_on channel=1 note=71 velocity=80 time=0.01232398125
EXTRACT: note_on channel=1 note=80 velocity=80 time=0
EXTRACT: note_on channel=1 note=37 velocity=80 time=0
EXTRACT: note_on channel=1 note=37 velocity=0 time=0.39964910625
EXTRACT: note_on channel=1 note=44 velocity=80 time=0.02288739375
EXTRACT: note_on channel=1 note=49 velocity=80 time=0
EXTRACT: note_on channel=1 note=44 velocity=0 time=0.19894426875
EXTRACT: note_on channel=1 note=49 velocity=0 time=0
EXTRACT: note_on channel=1 note=44 velocity=80 time=0.01232398125
EXTRACT: note_on channel=1 note=49 velocity=80 time=0
EXTRACT: note_on channel=1 note=71 velocity=0 time=0.16725403125
EXTRACT: note_on channel=1 note=80 velocity=0 time=0
EXTRACT: note_on channel=1 note=44 velocity=0 time=0.031690237499999996
EXTRACT: note_on channel=1 note=49 velocity=0 time=0
EXTRACT: note_on channel=1 note=68 velocity=80 time=0.01232398125
EXTRACT: note_on channel=1 note=76 velocity=80 time=0
EXTRACT: note_on channel=1 note=37 velocity=80 time=0
EXTRACT: note_on channel=1 note=68 velocity=0 time=0.39964910625
EXTRACT: note_on channel=1 note=76 velocity=0 time=0
EXTRACT: note_on channel=1 note=37 velocity=0 time=0
EXTRACT: note_on channel=1 note=66 velocity=80 time=0.02288739375
EXTRACT: note_on channel=1 note=75 velocity=80 time=0
EXTRACT: note_on channel=1 note=44 velocity=80 time=0
EXTRACT: note_on channel=1 note=49 velocity=80 time=0
EXTRACT: note_on channel=1 note=44 velocity=0 time=0.19894426875
EXTRACT: note_on channel=1 note=49 velocity=0 time=0
EXTRACT: note_on channel=1 note=44 velocity=80 time=0.01232398125
EXTRACT: note_on channel=1 note=49 velocity=80 time=0
EXTRACT: note_on channel=1 note=44 velocity=0 time=0.19894426875
EXTRACT: note_on channel=1 note=49 velocity=0 time=0
EXTRACT: note_on channel=1 note=35 velocity=80 time=0.01232398125
EXTRACT: note_on channel=1 note=35 velocity=0 time=0.39964910625
EXTRACT: note_on channel=1 note=42 velocity=80 time=0.02288739375
EXTRACT: note_on channel=1 note=47 velocity=80 time=0
EXTRACT: note_on channel=1 note=42 velocity=0 time=0.19894426875
EXTRACT: note_on channel=1 note=47 velocity=0 time=0
EXTRACT: note_on channel=1 note=42 velocity=80 time=0.01232398125
EXTRACT: note_on channel=1 note=47 velocity=80 time=0
EXTRACT: note_on channel=1 note=66 velocity=0 time=0.14612720625
EXTRACT: note_on channel=1 note=75 velocity=0 time=0
EXTRACT: note_on channel=1 note=42 velocity=0 time=0.0528170625
EXTRACT: note_on channel=1 note=47 velocity=0 time=0
EXTRACT: note_on channel=1 note=35 velocity=80 time=0.01232398125
EXTRACT: note_on channel=1 note=35 velocity=0 time=0.39964910625
EXTRACT: note_on channel=1 note=73 velocity=80 time=0.02288739375
EXTRACT: note_on channel=1 note=61 velocity=80 time=0
EXTRACT: note_on channel=1 note=42 velocity=80 time=0
EXTRACT: note_on channel=1 note=47 velocity=80 time=0
EXTRACT: note_on channel=1 note=42 velocity=0 time=0.19894426875
EXTRACT: note_on channel=1 note=47 velocity=0 time=0
EXTRACT: note_on channel=1 note=42 velocity=80 time=0.01232398125
EXTRACT: note_on channel=1 note=47 velocity=80 time=0
EXTRACT: note_on channel=1 note=73 velocity=0 time=0.18838085625
EXTRACT: note_on channel=1 note=61 velocity=0 time=0
EXTRACT: note_on channel=1 note=42 velocity=0 time=0.0105634125
EXTRACT: note_on channel=1 note=47 velocity=0 time=0
EXTRACT: note_on channel=1 note=80 velocity=80 time=0.01232398125
EXTRACT: note_on channel=1 note=71 velocity=80 time=0
EXTRACT: note_on channel=1 note=30 velocity=80 time=0
EXTRACT: note_on channel=1 note=71 velocity=0 time=0.39964910625
EXTRACT: note_on channel=1 note=30 velocity=0 time=0
EXTRACT: note_on channel=1 note=68 velocity=80 time=0.02288739375
EXTRACT: note_on channel=1 note=42 velocity=80 time=0
EXTRACT: note_on channel=1 note=42 velocity=0 time=0.19894426875
EXTRACT: note_on channel=1 note=42 velocity=80 time=0.01232398125
EXTRACT: note_on channel=1 note=80 velocity=0 time=0.16725403125
EXTRACT: note_on channel=1 note=42 velocity=0 time=0.031690237499999996
EXTRACT: note_on channel=1 note=73 velocity=80 time=0.01232398125
EXTRACT: note_on channel=1 note=30 velocity=80 time=0
EXTRACT: note_on channel=1 note=73 velocity=0 time=0.39964910625
EXTRACT: note_on channel=1 note=30 velocity=0 time=0
EXTRACT: note_on channel=1 note=76 velocity=80 time=0.02288739375
EXTRACT: note_on channel=1 note=42 velocity=80 time=0
EXTRACT: note_on channel=1 note=42 velocity=0 time=0.19894426875
EXTRACT: note_on channel=1 note=42 velocity=80 time=0.01232398125
EXTRACT: note_on channel=1 note=68 velocity=0 time=0.14612720625
EXTRACT: note_on channel=1 note=42 velocity=0 time=0.0528170625
EXTRACT: note_on channel=1 note=33 velocity=80 time=0.01232398125
EXTRACT: note_on channel=1 note=33 velocity=0 time=0.39964910625
EXTRACT: note_on channel=1 note=42 velocity=80 time=0.02288739375
EXTRACT: note_on channel=1 note=45 velocity=80 time=0
EXTRACT: note_on channel=1 note=42 velocity=0 time=0.19894426875
EXTRACT: note_on channel=1 note=45 velocity=0 time=0
EXTRACT: note_on channel=1 note=42 velocity=80 time=0.01232398125
EXTRACT: note_on channel=1 note=45 velocity=80 time=0
EXTRACT: note_on channel=1 note=76 velocity=0 time=0.14612720625
EXTRACT: note_on channel=1 note=42 velocity=0 time=0.0528170625
EXTRACT: note_on channel=1 note=45 velocity=0 time=0
EXTRACT: note_on channel=1 note=33 velocity=80 time=0.01232398125
EXTRACT: note_on channel=1 note=33 velocity=0 time=0.39964910625
EXTRACT: note_on channel=1 note=61 velocity=80 time=0.02288739375
EXTRACT: note_on channel=1 note=73 velocity=80 time=0
EXTRACT: note_on channel=1 note=42 velocity=80 time=0
EXTRACT: note_on channel=1 note=45 velocity=80 time=0
EXTRACT: note_on channel=1 note=42 velocity=0 time=0.19894426875
EXTRACT: note_on channel=1 note=45 velocity=0 time=0
EXTRACT: note_on channel=1 note=42 velocity=80 time=0.01232398125
EXTRACT: note_on channel=1 note=45 velocity=80 time=0
EXTRACT: note_on channel=1 note=61 velocity=0 time=0.18838085625
EXTRACT: note_on channel=1 note=73 velocity=0 time=0
EXTRACT: note_on channel=1 note=42 velocity=0 time=0.0105634125
EXTRACT: note_on channel=1 note=45 velocity=0 time=0
EXTRACT: note_on channel=1 note=71 velocity=80 time=0.01232398125
EXTRACT: note_on channel=1 note=80 velocity=80 time=0
EXTRACT: note_on channel=1 note=37 velocity=80 time=0
EXTRACT: note_on channel=1 note=37 velocity=0 time=0.39964910625
EXTRACT: note_on channel=1 note=44 velocity=80 time=0.02288739375
EXTRACT: note_on channel=1 note=49 velocity=80 time=0
EXTRACT: note_on channel=1 note=44 velocity=0 time=0.19894426875
EXTRACT: note_on channel=1 note=49 velocity=0 time=0
EXTRACT: note_on channel=1 note=44 velocity=80 time=0.01232398125
EXTRACT: note_on channel=1 note=49 velocity=80 time=0
EXTRACT: note_on channel=1 note=71 velocity=0 time=0.16725403125
EXTRACT: note_on channel=1 note=80 velocity=0 time=0
EXTRACT: note_on channel=1 note=44 velocity=0 time=0.031690237499999996
EXTRACT: note_on channel=1 note=49 velocity=0 time=0
EXTRACT: note_on channel=1 note=68 velocity=80 time=0.01232398125
EXTRACT: note_on channel=1 note=76 velocity=80 time=0
EXTRACT: note_on channel=1 note=37 velocity=80 time=0
EXTRACT: note_on channel=1 note=68 velocity=0 time=0.39964910625
EXTRACT: note_on channel=1 note=76 velocity=0 time=0
EXTRACT: note_on channel=1 note=37 velocity=0 time=0
EXTRACT: note_on channel=1 note=66 velocity=80 time=0.02288739375
EXTRACT: note_on channel=1 note=75 velocity=80 time=0
EXTRACT: note_on channel=1 note=44 velocity=80 time=0
EXTRACT: note_on channel=1 note=49 velocity=80 time=0
EXTRACT: note_on channel=1 note=44 velocity=0 time=0.19894426875
EXTRACT: note_on channel=1 note=49 velocity=0 time=0
EXTRACT: note_on channel=1 note=44 velocity=80 time=0.01232398125
EXTRACT: note_on channel=1 note=49 velocity=80 time=0
EXTRACT: note_on channel=1 note=44 velocity=0 time=0.19894426875
EXTRACT: note_on channel=1 note=49 velocity=0 time=0
EXTRACT: note_on channel=1 note=35 velocity=80 time=0.01232398125
EXTRACT: note_on channel=1 note=66 velocity=0 time=0.77993195625
EXTRACT: note_on channel=1 note=75 velocity=0 time=0
EXTRACT: note_on channel=1 note=35 velocity=0 time=0.823946175
EXTRACT: note_on channel=0 note=71 velocity=80 time=0.08626786874999999
EXTRACT: note_on channel=1 note=54 velocity=80 time=0
EXTRACT: note_on channel=1 note=57 velocity=80 time=0
EXTRACT: note_on channel=1 note=61 velocity=80 time=0
EXTRACT: note_on channel=1 note=42 velocity=80 time=0
EXTRACT: note_on channel=0 note=71 velocity=0 time=0.20950768125
EXTRACT: note_on channel=0 note=68 velocity=80 time=0.00176056875
EXTRACT: note_on channel=0 note=68 velocity=0 time=0.20950768125
EXTRACT: note_on channel=0 note=68 velocity=80 time=0.00176056875
EXTRACT: note_on channel=0 note=68 velocity=0 time=0.20950768125
EXTRACT: note_on channel=0 note=69 velocity=80 time=0.00176056875
EXTRACT: note_on channel=0 note=69 velocity=0 time=0.20950768125
EXTRACT: note_on channel=0 note=68 velocity=80 time=0.00176056875
EXTRACT: note_on channel=1 note=73 velocity=80 time=0
EXTRACT: note_on channel=1 note=73 velocity=0 time=0.39964910625
EXTRACT: note_on channel=1 note=73 velocity=80 time=0.02288739375
EXTRACT: note_on channel=1 note=54 velocity=0 time=0.33626863125
EXTRACT: note_on channel=1 note=57 velocity=0 time=0
EXTRACT: note_on channel=1 note=61 velocity=0 time=0
EXTRACT: note_on channel=1 note=42 velocity=0 time=0
EXTRACT: note_on channel=1 note=73 velocity=0 time=0.06338047499999999
EXTRACT: note_on channel=0 note=68 velocity=0 time=0.021126825
EXTRACT: note_on channel=0 note=71 velocity=80 time=0.00176056875
EXTRACT: note_on channel=1 note=57 velocity=80 time=0
EXTRACT: note_on channel=1 note=64 velocity=80 time=0
EXTRACT: note_on channel=1 note=61 velocity=80 time=0
EXTRACT: note_on channel=1 note=45 velocity=80 time=0
EXTRACT: note_on channel=0 note=71 velocity=0 time=0.20950768125
EXTRACT: note_on channel=0 note=68 velocity=80 time=0.00176056875
EXTRACT: note_on channel=1 note=61 velocity=0 time=0.18838085625
EXTRACT: note_on channel=0 note=68 velocity=0 time=0.021126825
EXTRACT: note_on channel=0 note=68 velocity=80 time=0.00176056875
EXTRACT: note_on channel=1 note=59 velocity=80 time=0
EXTRACT: note_on channel=1 note=69 velocity=80 time=0
EXTRACT: note_on channel=1 note=69 velocity=0 time=0.19894426875
EXTRACT: note_on channel=0 note=68 velocity=0 time=0.0105634125
EXTRACT: note_on channel=0 note=68 velocity=80 time=0.00176056875
EXTRACT: note_on channel=1 note=73 velocity=80 time=0
EXTRACT: note_on channel=1 note=73 velocity=0 time=0.19894426875
EXTRACT: note_on channel=0 note=68 velocity=0 time=0.0105634125
EXTRACT: note_on channel=0 note=68 velocity=80 time=0.00176056875
EXTRACT: note_on channel=1 note=76 velocity=80 time=0
EXTRACT: note_on channel=1 note=76 velocity=0 time=0.19894426875
EXTRACT: note_on channel=1 note=69 velocity=80 time=0.01232398125
EXTRACT: note_on channel=1 note=69 velocity=0 time=0.19894426875
EXTRACT: note_on channel=1 note=76 velocity=80 time=0.01232398125
EXTRACT: note_on channel=1 note=57 velocity=0 time=0.33626863125
EXTRACT: note_on channel=1 note=64 velocity=0 time=0
EXTRACT: note_on channel=1 note=45 velocity=0 time=0
EXTRACT: note_on channel=1 note=59 velocity=0 time=0.021126825
EXTRACT: note_on channel=1 note=76 velocity=0 time=0.04225365
EXTRACT: note_on channel=0 note=68 velocity=0 time=0.021126825
EXTRACT: note_on channel=0 note=71 velocity=80 time=0.00176056875
EXTRACT: note_on channel=1 note=61 velocity=80 time=0
EXTRACT: note_on channel=1 note=64 velocity=80 time=0
EXTRACT: note_on channel=1 note=68 velocity=80 time=0
EXTRACT: note_on channel=1 note=49 velocity=80 time=0
EXTRACT: note_on channel=1 note=52 velocity=80 time=0
EXTRACT: note_on channel=0 note=71 velocity=0 time=0.20950768125
EXTRACT: note_on channel=0 note=68 velocity=80 time=0.00176056875
EXTRACT: note_on channel=0 note=68 velocity=0 time=0.20950768125
EXTRACT: note_on channel=0 note=68 velocity=80 time=0.00176056875
EXTRACT: note_on channel=1 note=61 velocity=80 time=0
EXTRACT: note_on channel=1 note=61 velocity=0 time=0.19894426875
EXTRACT: note_on channel=0 note=68 velocity=0 time=0.0105634125
EXTRACT: note_on channel=0 note=68 velocity=80 time=0.00176056875
EXTRACT: note_on channel=1 note=64 velocity=80 time=0
EXTRACT: note_on channel=1 note=64 velocity=0 time=0.19894426875
EXTRACT: note_on channel=0 note=68 velocity=0 time=0.0105634125
EXTRACT: note_on channel=0 note=68 velocity=80 time=0.00176056875
EXTRACT: note_on channel=1 note=68 velocity=80 time=0
EXTRACT: note_on channel=1 note=68 velocity=0 time=0.19894426875
EXTRACT: note_on channel=1 note=64 velocity=80 time=0.01232398125
EXTRACT: note_on channel=1 note=64 velocity=0 time=0.19894426875
EXTRACT: note_on channel=0 note=68 velocity=0 time=0.0105634125
EXTRACT: note_on channel=0 note=66 velocity=80 time=0.00176056875
EXTRACT: note_on channel=1 note=68 velocity=80 time=0
EXTRACT: note_on channel=1 note=68 velocity=0 time=0.19894426875
EXTRACT: note_on channel=1 note=73 velocity=80 time=0.01232398125
EXTRACT: note_on channel=1 note=61 velocity=0 time=0.12500038125
EXTRACT: note_on channel=1 note=64 velocity=0 time=0
EXTRACT: note_on channel=1 note=68 velocity=0 time=0
EXTRACT: note_on channel=1 note=49 velocity=0 time=0
EXTRACT: note_on channel=1 note=52 velocity=0 time=0
EXTRACT: note_on channel=1 note=73 velocity=0 time=0.0739438875
EXTRACT: note_on channel=0 note=66 velocity=0 time=0.0105634125
EXTRACT: note_on channel=0 note=66 velocity=80 time=0.00176056875
EXTRACT: note_on channel=1 note=59 velocity=80 time=0
EXTRACT: note_on channel=1 note=63 velocity=80 time=0
EXTRACT: note_on channel=1 note=66 velocity=80 time=0
EXTRACT: note_on channel=1 note=47 velocity=80 time=0
EXTRACT: note_on channel=1 note=51 velocity=80 time=0
EXTRACT: note_on channel=0 note=66 velocity=0 time=0.20950768125
EXTRACT: note_on channel=0 note=66 velocity=80 time=0.00176056875
EXTRACT: note_on channel=0 note=66 velocity=0 time=0.20950768125
EXTRACT: note_on channel=0 note=66 velocity=80 time=0.00176056875
EXTRACT: note_on channel=1 note=59 velocity=80 time=0
EXTRACT: note_on channel=1 note=59 velocity=0 time=0.19894426875
EXTRACT: note_on channel=0 note=66 velocity=0 time=0.0105634125
EXTRACT: note_on channel=0 note=66 velocity=80 time=0.00176056875
EXTRACT: note_on channel=1 note=63 velocity=80 time=0
EXTRACT: note_on channel=1 note=63 velocity=0 time=0.19894426875
EXTRACT: note_on channel=0 note=66 velocity=0 time=0.0105634125
EXTRACT: note_on channel=0 note=66 velocity=80 time=0.00176056875
EXTRACT: note_on channel=1 note=66 velocity=80 time=0
EXTRACT: note_on channel=1 note=66 velocity=0 time=0.19894426875
EXTRACT: note_on channel=0 note=66 velocity=0 time=0.0105634125
EXTRACT: note_on channel=0 note=68 velocity=80 time=0.00176056875
EXTRACT: note_on channel=1 note=63 velocity=80 time=0
EXTRACT: note_on channel=1 note=63 velocity=0 time=0.19894426875
EXTRACT: note_on channel=1 note=66 velocity=80 time=0.01232398125
EXTRACT: note_on channel=1 note=66 velocity=0 time=0.19894426875
EXTRACT: note_on channel=0 note=68 velocity=0 time=0.0105634125
EXTRACT: note_on channel=0 note=64 velocity=80 time=0.00176056875
EXTRACT: note_on channel=1 note=71 velocity=80 time=0
EXTRACT: note_on channel=1 note=59 velocity=0 time=0.12500038125
EXTRACT: note_on channel=1 note=63 velocity=0 time=0
EXTRACT: note_on channel=1 note=66 velocity=0 time=0
EXTRACT: note_on channel=1 note=47 velocity=0 time=0
EXTRACT: note_on channel=1 note=51 velocity=0 time=0
EXTRACT: note_on channel=1 note=71 velocity=0 time=0.0739438875
EXTRACT: note_on channel=0 note=64 velocity=0 time=0.0105634125
EXTRACT: note_on channel=0 note=69 velocity=80 time=0.00176056875
EXTRACT: note_on channel=1 note=54 velocity=80 time=0
EXTRACT: note_on channel=1 note=57 velocity=80 time=0
EXTRACT: note_on channel=1 note=61 velocity=80 time=0
EXTRACT: note_on channel=1 note=42 velocity=80 time=0
EXTRACT: note_on channel=0 note=69 velocity=0 time=0.20950768125
EXTRACT: note_on channel=0 note=68 velocity=80 time=0.00176056875
EXTRACT: note_on channel=1 note=61 velocity=80 time=0
EXTRACT: note_on channel=1 note=61 velocity=0 time=0.19894426875
EXTRACT: note_on channel=0 note=68 velocity=0 time=0.0105634125
EXTRACT: note_on channel=0 note=66 velocity=80 time=0.00176056875
EXTRACT: note_on channel=1 note=64 velocity=80 time=0
EXTRACT: note_on channel=1 note=64 velocity=0 time=0.19894426875
EXTRACT: note_on channel=0 note=66 velocity=0 time=0.0105634125
EXTRACT: note_on channel=0 note=68 velocity=80 time=0.00176056875
EXTRACT: note_on channel=1 note=68 velocity=80 time=0
EXTRACT: note_on channel=1 note=68 velocity=0 time=0.19894426875
EXTRACT: note_on channel=0 note=68 velocity=0 time=0.0105634125
EXTRACT: note_on channel=0 note=66 velocity=80 time=0.00176056875
EXTRACT: note_on channel=1 note=73 velocity=80 time=0
EXTRACT: note_on channel=1 note=73 velocity=0 time=0.19894426875
EXTRACT: note_on channel=0 note=66 velocity=0 time=0.0105634125
EXTRACT: note_on channel=0 note=68 velocity=80 time=0.00176056875
EXTRACT: note_on channel=1 note=68 velocity=80 time=0
EXTRACT: note_on channel=0 note=68 velocity=0 time=0.10387355625
EXTRACT: note_on channel=0 note=66 velocity=80 time=0.00176056875
EXTRACT: note_on channel=1 note=68 velocity=0 time=0.09331014374999999
EXTRACT: note_on channel=0 note=66 velocity=0 time=0.0105634125
EXTRACT: note_on channel=0 note=64 velocity=80 time=0.00176056875
EXTRACT: note_on channel=1 note=73 velocity=80 time=0
EXTRACT: note_on channel=1 note=73 velocity=0 time=0.19894426875
EXTRACT: note_on channel=1 note=78 velocity=80 time=0.01232398125
EXTRACT: note_on channel=1 note=54 velocity=0 time=0.12500038125
EXTRACT: note_on channel=1 note=57 velocity=0 time=0
EXTRACT: note_on channel=1 note=61 velocity=0 time=0
EXTRACT: note_on channel=1 note=42 velocity=0 time=0
EXTRACT: note_on channel=1 note=78 velocity=0 time=0.0739438875
EXTRACT: note_on channel=1 note=57 velocity=80 time=0.01232398125
EXTRACT: note_on channel=1 note=61 velocity=80 time=0
EXTRACT: note_on channel=1 note=64 velocity=80 time=0
EXTRACT: note_on channel=1 note=45 velocity=80 time=0
EXTRACT: note_on channel=1 note=64 velocity=80 time=0.21126825
EXTRACT: note_on channel=1 note=64 velocity=0 time=0.19894426875
EXTRACT: note_on channel=1 note=59 velocity=80 time=0.01232398125
EXTRACT: note_on channel=1 note=69 velocity=80 time=0
EXTRACT: note_on channel=1 note=69 velocity=0 time=0.19894426875
EXTRACT: note_on channel=1 note=73 velocity=80 time=0.01232398125
EXTRACT: note_on channel=1 note=73 velocity=0 time=0.19894426875
EXTRACT: note_on channel=0 note=64 velocity=0 time=0.0105634125
EXTRACT: note_on channel=1 note=76 velocity=80 time=0.00176056875
EXTRACT: note_on channel=1 note=76 velocity=0 time=0.19894426875
EXTRACT: note_on channel=1 note=73 velocity=80 time=0.01232398125
EXTRACT: note_on channel=1 note=73 velocity=0 time=0.19894426875
EXTRACT: note_on channel=0 note=61 velocity=80 time=0.01232398125
EXTRACT: note_on channel=1 note=76 velocity=80 time=0
EXTRACT: note_on channel=0 note=61 velocity=0 time=0.20950768125
EXTRACT: note_on channel=0 note=61 velocity=80 time=0.00176056875
EXTRACT: note_on channel=1 note=57 velocity=0 time=0.12500038125
EXTRACT: note_on channel=1 note=61 velocity=0 time=0
EXTRACT: note_on channel=1 note=64 velocity=0 time=0
EXTRACT: note_on channel=1 note=45 velocity=0 time=0
EXTRACT: note_on channel=1 note=59 velocity=0 time=0.021126825
EXTRACT: note_on channel=1 note=76 velocity=0 time=0.04225365
EXTRACT: note_on channel=1 note=61 velocity=80 time=0.02288739375
EXTRACT: note_on channel=1 note=64 velocity=80 time=0
EXTRACT: note_on channel=1 note=68 velocity=80 time=0
EXTRACT: note_on channel=1 note=49 velocity=80 time=0
EXTRACT: note_on channel=1 note=52 velocity=80 time=0
EXTRACT: note_on channel=1 note=56 velocity=80 time=0.21126825
EXTRACT: note_on channel=1 note=56 velocity=0 time=0.19894426875
EXTRACT: note_on channel=1 note=61 velocity=80 time=0.01232398125
EXTRACT: note_on channel=1 note=61 velocity=0 time=0.19894426875
EXTRACT: note_on channel=1 note=64 velocity=80 time=0.01232398125
EXTRACT: note_on channel=1 note=64 velocity=0 time=0.19894426875
EXTRACT: note_on channel=0 note=61 velocity=0 time=0.0105634125
EXTRACT: note_on channel=1 note=68 velocity=80 time=0.00176056875
EXTRACT: note_on channel=1 note=68 velocity=0 time=0.19894426875
EXTRACT: note_on channel=1 note=64 velocity=80 time=0.01232398125
EXTRACT: note_on channel=1 note=64 velocity=0 time=0.19894426875
EXTRACT: note_on channel=1 note=68 velocity=80 time=0.01232398125
EXTRACT: note_on channel=1 note=68 velocity=0 time=0.19894426875
EXTRACT: note_on channel=1 note=73 velocity=80 time=0.01232398125
EXTRACT: note_on channel=1 note=61 velocity=0 time=0.12500038125
EXTRACT: note_on channel=1 note=64 velocity=0 time=0
EXTRACT: note_on channel=1 note=68 velocity=0 time=0
EXTRACT: note_on channel=1 note=49 velocity=0 time=0
EXTRACT: note_on channel=1 note=52 velocity=0 time=0
EXTRACT: note_on channel=1 note=73 velocity=0 time=0.0739438875
EXTRACT: note_on channel=1 note=59 velocity=80 time=0.01232398125
EXTRACT: note_on channel=1 note=63 velocity=80 time=0
EXTRACT: note_on channel=1 note=66 velocity=80 time=0
EXTRACT: note_on channel=1 note=47 velocity=80 time=0
EXTRACT: note_on channel=1 note=51 velocity=80 time=0
EXTRACT: note_on channel=1 note=54 velocity=80 time=0.21126825
EXTRACT: note_on channel=1 note=54 velocity=0 time=0.19894426875
EXTRACT: note_on channel=1 note=59 velocity=80 time=0.01232398125
EXTRACT: note_on channel=1 note=59 velocity=0 time=0.19894426875
EXTRACT: note_on channel=1 note=63 velocity=80 time=0.01232398125
EXTRACT: note_on channel=1 note=63 velocity=0 time=0.19894426875
EXTRACT: note_on channel=1 note=66 velocity=80 time=0.01232398125
EXTRACT: note_on channel=1 note=66 velocity=0 time=0.19894426875
EXTRACT: note_on channel=1 note=63 velocity=80 time=0.01232398125
EXTRACT: note_on channel=1 note=63 velocity=0 time=0.19894426875
EXTRACT: note_on channel=1 note=66 velocity=80 time=0.01232398125
EXTRACT: note_on channel=1 note=66 velocity=0 time=0.19894426875
EXTRACT: note_on channel=1 note=71 velocity=80 time=0.01232398125
EXTRACT: note_on channel=1 note=59 velocity=0 time=0.12500038125
EXTRACT: note_on channel=1 note=63 velocity=0 time=0
EXTRACT: note_on channel=1 note=66 velocity=0 time=0
EXTRACT: note_on channel=1 note=47 velocity=0 time=0
EXTRACT: note_on channel=1 note=51 velocity=0 time=0
EXTRACT: note_on channel=1 note=71 velocity=0 time=0.0739438875
EXTRACT: note_on channel=0 note=71 velocity=80 time=0.01232398125
EXTRACT: note_on channel=1 note=54 velocity=80 time=0
EXTRACT: note_on channel=1 note=57 velocity=80 time=0
EXTRACT: note_on channel=1 note=61 velocity=80 time=0
EXTRACT: note_on channel=1 note=42 velocity=80 time=0
EXTRACT: note_on channel=1 note=42 velocity=0 time=0.19894426875
EXTRACT: note_on channel=0 note=71 velocity=0 time=0.0105634125
EXTRACT: note_on channel=0 note=68 velocity=80 time=0.00176056875
EXTRACT: note_on channel=1 note=54 velocity=80 time=0
EXTRACT: note_on channel=1 note=54 velocity=0 time=0.19894426875
EXTRACT: note_on channel=0 note=68 velocity=0 time=0.0105634125
EXTRACT: note_on channel=0 note=68 velocity=80 time=0.00176056875
EXTRACT: note_on channel=1 note=54 velocity=80 time=0
EXTRACT: note_on channel=1 note=54 velocity=0 time=0.19894426875
EXTRACT: note_on channel=0 note=68 velocity=0 time=0.0105634125
EXTRACT: note_on channel=0 note=68 velocity=80 time=0.00176056875
EXTRACT: note_on channel=1 note=54 velocity=80 time=0
EXTRACT: note_on channel=1 note=54 velocity=0 time=0.19894426875
EXTRACT: note_on channel=0 note=68 velocity=0 time=0.0105634125
EXTRACT: note_on channel=0 note=68 velocity=80 time=0.00176056875
EXTRACT: note_on channel=1 note=73 velocity=80 time=0
EXTRACT: note_on channel=1 note=54 velocity=80 time=0
EXTRACT: note_on channel=1 note=54 velocity=0 time=0.19894426875
EXTRACT: note_on channel=0 note=68 velocity=0 time=0.0105634125
EXTRACT: note_on channel=0 note=66 velocity=80 time=0.00176056875
EXTRACT: note_on channel=1 note=54 velocity=80 time=0
EXTRACT: note_on channel=1 note=73 velocity=0 time=0.18838085625
EXTRACT: note_on channel=1 note=54 velocity=0 time=0.0105634125
EXTRACT: note_on channel=1 note=73 velocity=80 time=0.01232398125
EXTRACT: note_on channel=1 note=54 velocity=80 time=0
EXTRACT: note_on channel=1 note=54 velocity=0 time=0.19894426875
EXTRACT: note_on channel=0 note=66 velocity=0 time=0.0105634125
EXTRACT: note_on channel=0 note=64 velocity=80 time=0.00176056875
EXTRACT: note_on channel=1 note=54 velocity=80 time=0
EXTRACT: note_on channel=1 note=54 velocity=0 time=0.12500038125
EXTRACT: note_on channel=1 note=57 velocity=0 time=0
EXTRACT: note_on channel=1 note=61 velocity=0 time=0
EXTRACT: note_on channel=1 note=73 velocity=0 time=0.06338047499999999
EXTRACT: note_on channel=1 note=54 velocity=0 time=0.0105634125
EXTRACT: note_on channel=0 note=64 velocity=0 time=0.0105634125
EXTRACT: note_on channel=0 note=71 velocity=80 time=0.00176056875
EXTRACT: note_on channel=1 note=57 velocity=80 time=0
EXTRACT: note_on channel=1 note=64 velocity=80 time=0
EXTRACT: note_on channel=1 note=61 velocity=80 time=0
EXTRACT: note_on channel=1 note=45 velocity=80 time=0
EXTRACT: note_on channel=1 note=45 velocity=0 time=0.19894426875
EXTRACT: note_on channel=0 note=71 velocity=0 time=0.0105634125
EXTRACT: note_on channel=0 note=68 velocity=80 time=0.00176056875
EXTRACT: note_on channel=1 note=57 velocity=80 time=0
EXTRACT: note_on channel=1 note=61 velocity=0 time=0.18838085625
EXTRACT: note_on channel=1 note=57 velocity=0 time=0.0105634125
EXTRACT: note_on channel=0 note=68 velocity=0 time=0.0105634125
EXTRACT: note_on channel=0 note=68 velocity=80 time=0.00176056875
EXTRACT: note_on channel=1 note=59 velocity=80 time=0
EXTRACT: note_on channel=1 note=69 velocity=80 time=0
EXTRACT: note_on channel=1 note=57 velocity=80 time=0
EXTRACT: note_on channel=1 note=69 velocity=0 time=0.19894426875
EXTRACT: note_on channel=1 note=57 velocity=0 time=0
EXTRACT: note_on channel=0 note=68 velocity=0 time=0.0105634125
EXTRACT: note_on channel=0 note=69 velocity=80 time=0.00176056875
EXTRACT: note_on channel=1 note=73 velocity=80 time=0
EXTRACT: note_on channel=1 note=57 velocity=80 time=0
EXTRACT: note_on channel=1 note=73 velocity=0 time=0.19894426875
EXTRACT: note_on channel=1 note=57 velocity=0 time=0
EXTRACT: note_on channel=0 note=69 velocity=0 time=0.0105634125
EXTRACT: note_on channel=0 note=68 velocity=80 time=0.00176056875
EXTRACT: note_on channel=1 note=76 velocity=80 time=0
EXTRACT: note_on channel=1 note=57 velocity=80 time=0
EXTRACT: note_on channel=1 note=76 velocity=0 time=0.19894426875
EXTRACT: note_on channel=1 note=57 velocity=0 time=0
EXTRACT: note_on channel=1 note=69 velocity=80 time=0.01232398125
EXTRACT: note_on channel=1 note=57 velocity=80 time=0
EXTRACT: note_on channel=1 note=69 velocity=0 time=0.19894426875
EXTRACT: note_on channel=1 note=57 velocity=0 time=0
EXTRACT: note_on channel=1 note=76 velocity=80 time=0.01232398125
EXTRACT: note_on channel=1 note=57 velocity=80 time=0
EXTRACT: note_on channel=1 note=57 velocity=0 time=0.19894426875
EXTRACT: note_on channel=0 note=68 velocity=0 time=0.0105634125
EXTRACT: note_on channel=0 note=64 velocity=80 time=0.00176056875
EXTRACT: note_on channel=1 note=57 velocity=80 time=0
EXTRACT: note_on channel=1 note=57 velocity=0 time=0.12500038125
EXTRACT: note_on channel=1 note=64 velocity=0 time=0
EXTRACT: note_on channel=1 note=59 velocity=0 time=0.021126825
EXTRACT: note_on channel=1 note=76 velocity=0 time=0.04225365
EXTRACT: note_on channel=1 note=57 velocity=0 time=0.0105634125
EXTRACT: note_on channel=0 note=64 velocity=0 time=0.0105634125
EXTRACT: note_on channel=0 note=71 velocity=80 time=0.00176056875
EXTRACT: note_on channel=1 note=61 velocity=80 time=0
EXTRACT: note_on channel=1 note=64 velocity=80 time=0
EXTRACT: note_on channel=1 note=68 velocity=80 time=0
EXTRACT: note_on channel=1 note=49 velocity=80 time=0
EXTRACT: note_on channel=1 note=49 velocity=0 time=0.19894426875
EXTRACT: note_on channel=0 note=71 velocity=0 time=0.0105634125
EXTRACT: note_on channel=0 note=68 velocity=80 time=0.00176056875
EXTRACT: note_on channel=1 note=61 velocity=80 time=0
EXTRACT: note_on channel=1 note=61 velocity=0 time=0.19894426875
EXTRACT: note_on channel=0 note=68 velocity=0 time=0.0105634125
EXTRACT: note_on channel=0 note=68 velocity=80 time=0.00176056875
EXTRACT: note_on channel=1 note=61 velocity=80 time=0
EXTRACT: note_on channel=1 note=61 velocity=80 time=0
EXTRACT: note_on channel=1 note=61 velocity=0 time=0.19894426875
EXTRACT: note_on channel=1 note=61 velocity=0 time=0
EXTRACT: note_on channel=0 note=68 velocity=0 time=0.0105634125
EXTRACT: note_on channel=0 note=68 velocity=80 time=0.00176056875
EXTRACT: note_on channel=1 note=64 velocity=80 time=0
EXTRACT: note_on channel=1 note=61 velocity=80 time=0
EXTRACT: note_on channel=1 note=64 velocity=0 time=0.19894426875
EXTRACT: note_on channel=1 note=61 velocity=0 time=0
EXTRACT: note_on channel=0 note=68 velocity=0 time=0.0105634125
EXTRACT: note_on channel=0 note=68 velocity=80 time=0.00176056875
EXTRACT: note_on channel=1 note=68 velocity=80 time=0
EXTRACT: note_on channel=1 note=61 velocity=80 time=0
EXTRACT: note_on channel=1 note=68 velocity=0 time=0.19894426875
EXTRACT: note_on channel=1 note=61 velocity=0 time=0
EXTRACT: note_on channel=0 note=68 velocity=0 time=0.0105634125
EXTRACT: note_on channel=0 note=66 velocity=80 time=0.00176056875
EXTRACT: note_on channel=1 note=64 velocity=80 time=0
EXTRACT: note_on channel=1 note=61 velocity=80 time=0
EXTRACT: note_on channel=1 note=64 velocity=0 time=0.19894426875
EXTRACT: note_on channel=1 note=61 velocity=0 time=0
EXTRACT: note_on channel=1 note=68 velocity=80 time=0.01232398125
EXTRACT: note_on channel=1 note=61 velocity=80 time=0
EXTRACT: note_on channel=1 note=68 velocity=0 time=0.19894426875
EXTRACT: note_on channel=1 note=61 velocity=0 time=0
EXTRACT: note_on channel=0 note=66 velocity=0 time=0.0105634125
EXTRACT: note_on channel=0 note=66 velocity=80 time=0.00176056875
EXTRACT: note_on channel=1 note=73 velocity=80 time=0
EXTRACT: note_on channel=1 note=61 velocity=80 time=0
EXTRACT: note_on channel=1 note=61 velocity=0 time=0.12500038125
EXTRACT: note_on channel=1 note=64 velocity=0 time=0
EXTRACT: note_on channel=1 note=68 velocity=0 time=0
EXTRACT: note_on channel=1 note=73 velocity=0 time=0.0739438875
EXTRACT: note_on channel=1 note=61 velocity=0 time=0
EXTRACT: note_on channel=0 note=66 velocity=0 time=0.0105634125
EXTRACT: note_on channel=0 note=66 velocity=80 time=0.00176056875
EXTRACT: note_on channel=1 note=59 velocity=80 time=0
EXTRACT: note_on channel=1 note=63 velocity=80 time=0
EXTRACT: note_on channel=1 note=66 velocity=80 time=0
EXTRACT: note_on channel=1 note=47 velocity=80 time=0
EXTRACT: note_on channel=1 note=47 velocity=0 time=0.19894426875
EXTRACT: note_on channel=0 note=66 velocity=0 time=0.0105634125
EXTRACT: note_on channel=0 note=66 velocity=80 time=0.00176056875
EXTRACT: note_on channel=1 note=59 velocity=80 time=0
EXTRACT: note_on channel=1 note=59 velocity=0 time=0.19894426875
EXTRACT: note_on channel=0 note=66 velocity=0 time=0.0105634125
EXTRACT: note_on channel=0 note=66 velocity=80 time=0.00176056875
EXTRACT: note_on channel=1 note=59 velocity=80 time=0
EXTRACT: note_on channel=1 note=59 velocity=80 time=0
EXTRACT: note_on channel=1 note=59 velocity=0 time=0.19894426875
EXTRACT: note_on channel=1 note=59 velocity=0 time=0
EXTRACT: note_on channel=0 note=66 velocity=0 time=0.0105634125
EXTRACT: note_on channel=0 note=66 velocity=80 time=0.00176056875
EXTRACT: note_on channel=1 note=63 velocity=80 time=0
EXTRACT: note_on channel=1 note=59 velocity=80 time=0
EXTRACT: note_on channel=1 note=63 velocity=0 time=0.19894426875
EXTRACT: note_on channel=1 note=59 velocity=0 time=0
EXTRACT: note_on channel=0 note=66 velocity=0 time=0.0105634125
EXTRACT: note_on channel=0 note=66 velocity=80 time=0.00176056875
EXTRACT: note_on channel=1 note=66 velocity=80 time=0
EXTRACT: note_on channel=1 note=59 velocity=80 time=0
EXTRACT: note_on channel=1 note=66 velocity=0 time=0.19894426875
EXTRACT: note_on channel=1 note=59 velocity=0 time=0
EXTRACT: note_on channel=0 note=66 velocity=0 time=0.0105634125
EXTRACT: note_on channel=0 note=68 velocity=80 time=0.00176056875
EXTRACT: note_on channel=1 note=63 velocity=80 time=0
EXTRACT: note_on channel=1 note=59 velocity=80 time=0
EXTRACT: note_on channel=1 note=63 velocity=0 time=0.19894426875
EXTRACT: note_on channel=1 note=59 velocity=0 time=0
EXTRACT: note_on channel=1 note=66 velocity=80 time=0.01232398125
EXTRACT: note_on channel=1 note=59 velocity=80 time=0
EXTRACT: note_on channel=1 note=66 velocity=0 time=0.19894426875
EXTRACT: note_on channel=1 note=59 velocity=0 time=0
EXTRACT: note_on channel=0 note=68 velocity=0 time=0.0105634125
EXTRACT: note_on channel=0 note=64 velocity=80 time=0.00176056875
EXTRACT: note_on channel=1 note=71 velocity=80 time=0
EXTRACT: note_on channel=1 note=59 velocity=80 time=0
EXTRACT: note_on channel=1 note=59 velocity=0 time=0.12500038125
EXTRACT: note_on channel=1 note=63 velocity=0 time=0
EXTRACT: note_on channel=1 note=66 velocity=0 time=0
EXTRACT: note_on channel=1 note=71 velocity=0 time=0.0739438875
EXTRACT: note_on channel=1 note=59 velocity=0 time=0
EXTRACT: note_on channel=0 note=64 velocity=0 time=0.0105634125
EXTRACT: note_on channel=0 note=69 velocity=80 time=0.00176056875
EXTRACT: note_on channel=1 note=54 velocity=80 time=0
EXTRACT: note_on channel=1 note=57 velocity=80 time=0
EXTRACT: note_on channel=1 note=61 velocity=80 time=0
EXTRACT: note_on channel=1 note=42 velocity=80 time=0
EXTRACT: note_on channel=0 note=69 velocity=0 time=0.20950768125
EXTRACT: note_on channel=0 note=68 velocity=80 time=0.00176056875
EXTRACT: note_on channel=1 note=61 velocity=80 time=0
EXTRACT: note_on channel=1 note=61 velocity=0 time=0.19894426875
EXTRACT: note_on channel=0 note=68 velocity=0 time=0.0105634125
EXTRACT: note_on channel=0 note=66 velocity=80 time=0.00176056875
EXTRACT: note_on channel=1 note=64 velocity=80 time=0
EXTRACT: note_on channel=1 note=64 velocity=0 time=0.19894426875
EXTRACT: note_on channel=0 note=66 velocity=0 time=0.0105634125
EXTRACT: note_on channel=0 note=68 velocity=80 time=0.00176056875
EXTRACT: note_on channel=1 note=68 velocity=80 time=0
EXTRACT: note_on channel=1 note=68 velocity=0 time=0.19894426875
EXTRACT: note_on channel=0 note=68 velocity=0 time=0.0105634125
EXTRACT: note_on channel=0 note=66 velocity=80 time=0.00176056875
EXTRACT: note_on channel=1 note=73 velocity=80 time=0
EXTRACT: note_on channel=1 note=73 velocity=0 time=0.19894426875
EXTRACT: note_on channel=0 note=66 velocity=0 time=0.0105634125
EXTRACT: note_on channel=0 note=68 velocity=80 time=0.00176056875
EXTRACT: note_on channel=1 note=68 velocity=80 time=0
EXTRACT: note_on channel=0 note=68 velocity=0 time=0.10387355625
EXTRACT: note_on channel=0 note=66 velocity=80 time=0.00176056875
EXTRACT: note_on channel=1 note=68 velocity=0 time=0.09331014374999999
EXTRACT: note_on channel=0 note=66 velocity=0 time=0.0105634125
EXTRACT: note_on channel=0 note=64 velocity=80 time=0.00176056875
EXTRACT: note_on channel=1 note=73 velocity=80 time=0
EXTRACT: note_on channel=1 note=73 velocity=0 time=0.19894426875
EXTRACT: note_on channel=1 note=78 velocity=80 time=0.01232398125
EXTRACT: note_on channel=1 note=54 velocity=0 time=0.12500038125
EXTRACT: note_on channel=1 note=57 velocity=0 time=0
EXTRACT: note_on channel=1 note=61 velocity=0 time=0
EXTRACT: note_on channel=1 note=42 velocity=0 time=0
EXTRACT: note_on channel=1 note=78 velocity=0 time=0.0739438875
EXTRACT: note_on channel=1 note=57 velocity=80 time=0.01232398125
EXTRACT: note_on channel=1 note=61 velocity=80 time=0
EXTRACT: note_on channel=1 note=64 velocity=80 time=0
EXTRACT: note_on channel=1 note=61 velocity=80 time=0
EXTRACT: note_on channel=1 note=45 velocity=80 time=0
EXTRACT: note_on channel=1 note=64 velocity=80 time=0.21126825
EXTRACT: note_on channel=1 note=61 velocity=0 time=0.18838085625
EXTRACT: note_on channel=1 note=64 velocity=0 time=0.0105634125
EXTRACT: note_on channel=1 note=59 velocity=80 time=0.01232398125
EXTRACT: note_on channel=1 note=69 velocity=80 time=0
EXTRACT: note_on channel=1 note=69 velocity=0 time=0.19894426875
EXTRACT: note_on channel=1 note=73 velocity=80 time=0.01232398125
EXTRACT: note_on channel=1 note=73 velocity=0 time=0.19894426875
EXTRACT: note_on channel=0 note=64 velocity=0 time=0.0105634125
EXTRACT: note_on channel=1 note=76 velocity=80 time=0.00176056875
EXTRACT: note_on channel=1 note=76 velocity=0 time=0.19894426875
EXTRACT: note_on channel=1 note=73 velocity=80 time=0.01232398125
EXTRACT: note_on channel=1 note=73 velocity=0 time=0.19894426875
EXTRACT: note_on channel=0 note=69 velocity=80 time=0.01232398125
EXTRACT: note_on channel=1 note=76 velocity=80 time=0
EXTRACT: note_on channel=0 note=69 velocity=0 time=0.20950768125
EXTRACT: note_on channel=0 note=68 velocity=80 time=0.00176056875
EXTRACT: note_on channel=1 note=57 velocity=0 time=0.12500038125
EXTRACT: note_on channel=1 note=61 velocity=0 time=0
EXTRACT: note_on channel=1 note=64 velocity=0 time=0
EXTRACT: note_on channel=1 note=45 velocity=0 time=0
EXTRACT: note_on channel=1 note=59 velocity=0 time=0.021126825
EXTRACT: note_on channel=1 note=76 velocity=0 time=0.04225365
EXTRACT: note_on channel=1 note=61 velocity=80 time=0.02288739375
EXTRACT: note_on channel=1 note=64 velocity=80 time=0
EXTRACT: note_on channel=1 note=68 velocity=80 time=0
EXTRACT: note_on channel=1 note=49 velocity=80 time=0
EXTRACT: note_on channel=1 note=52 velocity=80 time=0
EXTRACT: note_on channel=1 note=56 velocity=80 time=0.21126825
EXTRACT: note_on channel=1 note=56 velocity=0 time=0.19894426875
EXTRACT: note_on channel=1 note=61 velocity=80 time=0.01232398125
EXTRACT: note_on channel=1 note=61 velocity=0 time=0.19894426875
EXTRACT: note_on channel=1 note=64 velocity=80 time=0.01232398125
EXTRACT: note_on channel=1 note=64 velocity=0 time=0.19894426875
EXTRACT: note_on channel=0 note=68 velocity=0 time=0.0105634125
EXTRACT: note_on channel=1 note=68 velocity=80 time=0.00176056875
EXTRACT: note_on channel=1 note=68 velocity=0 time=0.19894426875
EXTRACT: note_on channel=1 note=64 velocity=80 time=0.01232398125
EXTRACT: note_on channel=1 note=64 velocity=0 time=0.19894426875
EXTRACT: note_on channel=1 note=68 velocity=80 time=0.01232398125
EXTRACT: note_on channel=1 note=68 velocity=0 time=0.19894426875
EXTRACT: note_on channel=1 note=73 velocity=80 time=0.01232398125
EXTRACT: note_on channel=1 note=61 velocity=0 time=0.12500038125
EXTRACT: note_on channel=1 note=64 velocity=0 time=0
EXTRACT: note_on channel=1 note=68 velocity=0 time=0
EXTRACT: note_on channel=1 note=49 velocity=0 time=0
EXTRACT: note_on channel=1 note=52 velocity=0 time=0
EXTRACT: note_on channel=1 note=73 velocity=0 time=0.0739438875
EXTRACT: note_on channel=1 note=59 velocity=80 time=0.01232398125
EXTRACT: note_on channel=1 note=63 velocity=80 time=0
EXTRACT: note_on channel=1 note=66 velocity=80 time=0
EXTRACT: note_on channel=1 note=47 velocity=80 time=0
EXTRACT: note_on channel=1 note=51 velocity=80 time=0
EXTRACT: note_on channel=1 note=54 velocity=80 time=0.21126825
EXTRACT: note_on channel=1 note=54 velocity=0 time=0.19894426875
EXTRACT: note_on channel=1 note=59 velocity=80 time=0.01232398125
EXTRACT: note_on channel=1 note=59 velocity=0 time=0.19894426875
EXTRACT: note_on channel=1 note=63 velocity=80 time=0.01232398125
EXTRACT: note_on channel=1 note=63 velocity=0 time=0.19894426875
EXTRACT: note_on channel=1 note=66 velocity=80 time=0.01232398125
EXTRACT: note_on channel=1 note=66 velocity=0 time=0.19894426875
EXTRACT: note_on channel=1 note=63 velocity=80 time=0.01232398125
EXTRACT: note_on channel=1 note=63 velocity=0 time=0.19894426875
EXTRACT: note_on channel=1 note=66 velocity=80 time=0.01232398125
EXTRACT: note_on channel=1 note=66 velocity=0 time=0.19894426875
EXTRACT: note_on channel=0 note=64 velocity=80 time=0.01232398125
EXTRACT: note_on channel=1 note=71 velocity=80 time=0
EXTRACT: note_on channel=1 note=59 velocity=0 time=0.12500038125
EXTRACT: note_on channel=1 note=63 velocity=0 time=0
EXTRACT: note_on channel=1 note=66 velocity=0 time=0
EXTRACT: note_on channel=1 note=47 velocity=0 time=0
EXTRACT: note_on channel=1 note=51 velocity=0 time=0
EXTRACT: note_on channel=1 note=71 velocity=0 time=0.0739438875
EXTRACT: note_on channel=0 note=64 velocity=0 time=0.0105634125
EXTRACT: note_on channel=0 note=66 velocity=80 time=0.00176056875
EXTRACT: note_on channel=1 note=42 velocity=80 time=0
EXTRACT: note_on channel=0 note=66 velocity=0 time=0.42077593125
EXTRACT: note_on channel=0 note=66 velocity=80 time=0.42429706875
EXTRACT: note_on channel=0 note=66 velocity=0 time=0.42077593125
EXTRACT: note_on channel=1 note=42 velocity=0 time=0.3380292
EXTRACT: note_on channel=0 note=66 velocity=80 time=0.08626786874999999
EXTRACT: note_on channel=1 note=42 velocity=80 time=0
EXTRACT: note_on channel=0 note=66 velocity=0 time=0.84331243125
EXTRACT: note_on channel=0 note=64 velocity=80 time=0.00176056875
EXTRACT: note_on channel=1 note=42 velocity=0 time=0.7588051312499999
EXTRACT: note_on channel=0 note=64 velocity=0 time=0.0845073
EXTRACT: note_on channel=0 note=73 velocity=80 time=0.00176056875
EXTRACT: note_on channel=1 note=54 velocity=80 time=0
EXTRACT: note_on channel=1 note=57 velocity=80 time=0
EXTRACT: note_on channel=1 note=61 velocity=80 time=0
EXTRACT: note_on channel=1 note=42 velocity=80 time=0
EXTRACT: note_on channel=0 note=73 velocity=0 time=0.42077593125
EXTRACT: note_on channel=0 note=71 velocity=80 time=0.00176056875
EXTRACT: note_on channel=0 note=71 velocity=0 time=0.42077593125
EXTRACT: note_on channel=0 note=73 velocity=80 time=0.00176056875
EXTRACT: note_on channel=0 note=73 velocity=0 time=0.42077593125
EXTRACT: note_on channel=0 note=68 velocity=80 time=0.00176056875
EXTRACT: note_on channel=1 note=54 velocity=0 time=0.33626863125
EXTRACT: note_on channel=1 note=57 velocity=0 time=0
EXTRACT: note_on channel=1 note=61 velocity=0 time=0
EXTRACT: note_on channel=1 note=42 velocity=0 time=0
EXTRACT: note_on channel=0 note=68 velocity=0 time=0.0845073
EXTRACT: note_on channel=0 note=66 velocity=80 time=0.00176056875
EXTRACT: note_on channel=1 note=57 velocity=80 time=0
EXTRACT: note_on channel=1 note=64 velocity=80 time=0
EXTRACT: note_on channel=1 note=61 velocity=80 time=0
EXTRACT: note_on channel=1 note=45 velocity=80 time=0
EXTRACT: note_on channel=1 note=61 velocity=0 time=0.39964910625
EXTRACT: note_on channel=1 note=59 velocity=80 time=0.02288739375
EXTRACT: note_on channel=0 note=66 velocity=0 time=0.42077593125
EXTRACT: note_on channel=0 note=59 velocity=80 time=0.21302881875
EXTRACT: note_on channel=0 note=59 velocity=0 time=0.20950768125
EXTRACT: note_on channel=0 note=59 velocity=80 time=0.00176056875
EXTRACT: note_on channel=0 note=59 velocity=0 time=0.20950768125
EXTRACT: note_on channel=0 note=59 velocity=80 time=0.00176056875
EXTRACT: note_on channel=1 note=57 velocity=0 time=0.12500038125
EXTRACT: note_on channel=1 note=64 velocity=0 time=0
EXTRACT: note_on channel=1 note=45 velocity=0 time=0
EXTRACT: note_on channel=1 note=59 velocity=0 time=0.021126825
EXTRACT: note_on channel=0 note=59 velocity=0 time=0.06338047499999999
EXTRACT: note_on channel=0 note=69 velocity=80 time=0.00176056875
EXTRACT: note_on channel=1 note=54 velocity=80 time=0
EXTRACT: note_on channel=1 note=57 velocity=80 time=0
EXTRACT: note_on channel=1 note=61 velocity=80 time=0
EXTRACT: note_on channel=1 note=42 velocity=80 time=0
EXTRACT: note_on channel=0 note=69 velocity=0 time=0.20950768125
EXTRACT: note_on channel=0 note=68 velocity=80 time=0.00176056875
EXTRACT: note_on channel=0 note=68 velocity=0 time=0.20950768125
EXTRACT: note_on channel=0 note=66 velocity=80 time=0.00176056875
EXTRACT: note_on channel=0 note=66 velocity=0 time=0.20950768125
EXTRACT: note_on channel=0 note=68 velocity=80 time=0.00176056875
EXTRACT: note_on channel=0 note=68 velocity=0 time=0.20950768125
EXTRACT: note_on channel=0 note=66 velocity=80 time=0.00176056875
EXTRACT: note_on channel=0 note=66 velocity=0 time=0.20950768125
EXTRACT: note_on channel=0 note=68 velocity=80 time=0.00176056875
EXTRACT: note_on channel=0 note=68 velocity=0 time=0.10387355625
EXTRACT: note_on channel=0 note=66 velocity=80 time=0.00176056875
EXTRACT: note_on channel=0 note=66 velocity=0 time=0.10387355625
EXTRACT: note_on channel=0 note=64 velocity=80 time=0.00176056875
EXTRACT: note_on channel=1 note=54 velocity=0 time=0.33626863125
EXTRACT: note_on channel=1 note=57 velocity=0 time=0
EXTRACT: note_on channel=1 note=61 velocity=0 time=0
EXTRACT: note_on channel=1 note=42 velocity=0 time=0
EXTRACT: note_on channel=1 note=57 velocity=80 time=0.08626786874999999
EXTRACT: note_on channel=1 note=64 velocity=80 time=0
EXTRACT: note_on channel=1 note=61 velocity=80 time=0
EXTRACT: note_on channel=1 note=45 velocity=80 time=0
EXTRACT: note_on channel=1 note=61 velocity=0 time=0.39964910625
EXTRACT: note_on channel=1 note=59 velocity=80 time=0.02288739375
EXTRACT: note_on channel=0 note=64 velocity=0 time=0.42077593125
EXTRACT: note_on channel=0 note=59 velocity=80 time=0.63556531875
EXTRACT: note_on channel=1 note=57 velocity=0 time=0.12500038125
EXTRACT: note_on channel=1 note=64 velocity=0 time=0
EXTRACT: note_on channel=1 note=45 velocity=0 time=0
EXTRACT: note_on channel=1 note=59 velocity=0 time=0.021126825
EXTRACT: note_on channel=0 note=59 velocity=0 time=0.06338047499999999
EXTRACT: note_on channel=0 note=69 velocity=80 time=0.00176056875
EXTRACT: note_on channel=1 note=61 velocity=80 time=0
EXTRACT: note_on channel=1 note=64 velocity=80 time=0
EXTRACT: note_on channel=1 note=68 velocity=80 time=0
EXTRACT: note_on channel=1 note=49 velocity=80 time=0
EXTRACT: note_on channel=1 note=52 velocity=80 time=0
EXTRACT: note_on channel=0 note=69 velocity=0 time=0.20950768125
EXTRACT: note_on channel=0 note=68 velocity=80 time=0.00176056875
EXTRACT: note_on channel=0 note=68 velocity=0 time=0.20950768125
EXTRACT: note_on channel=0 note=66 velocity=80 time=0.00176056875
EXTRACT: note_on channel=0 note=66 velocity=0 time=0.20950768125
EXTRACT: note_on channel=0 note=68 velocity=80 time=0.00176056875
EXTRACT: note_on channel=0 note=68 velocity=0 time=0.20950768125
EXTRACT: note_on channel=0 note=66 velocity=80 time=0.00176056875
EXTRACT: note_on channel=0 note=66 velocity=0 time=0.20950768125
EXTRACT: note_on channel=0 note=68 velocity=80 time=0.00176056875
EXTRACT: note_on channel=0 note=68 velocity=0 time=0.10387355625
EXTRACT: note_on channel=0 note=66 velocity=80 time=0.00176056875
EXTRACT: note_on channel=0 note=66 velocity=0 time=0.10387355625
EXTRACT: note_on channel=0 note=64 velocity=80 time=0.00176056875
EXTRACT: note_on channel=1 note=61 velocity=0 time=0.33626863125
EXTRACT: note_on channel=1 note=64 velocity=0 time=0
EXTRACT: note_on channel=1 note=68 velocity=0 time=0
EXTRACT: note_on channel=1 note=49 velocity=0 time=0
EXTRACT: note_on channel=1 note=52 velocity=0 time=0
EXTRACT: note_on channel=0 note=64 velocity=0 time=0.0845073
EXTRACT: note_on channel=0 note=63 velocity=80 time=0.00176056875
EXTRACT: note_on channel=1 note=59 velocity=80 time=0
EXTRACT: note_on channel=1 note=63 velocity=80 time=0
EXTRACT: note_on channel=1 note=66 velocity=80 time=0
EXTRACT: note_on channel=1 note=47 velocity=80 time=0
EXTRACT: note_on channel=1 note=51 velocity=80 time=0
EXTRACT: note_on channel=0 note=63 velocity=0 time=0.84331243125
EXTRACT: note_on channel=0 note=64 velocity=80 time=0.63556531875
EXTRACT: note_on channel=1 note=59 velocity=0 time=0.12500038125
EXTRACT: note_on channel=1 note=63 velocity=0 time=0
EXTRACT: note_on channel=1 note=66 velocity=0 time=0
EXTRACT: note_on channel=1 note=47 velocity=0 time=0
EXTRACT: note_on channel=1 note=51 velocity=0 time=0
EXTRACT: note_on channel=0 note=64 velocity=0 time=0.0845073
EXTRACT: note_on channel=0 note=66 velocity=80 time=0.00176056875
EXTRACT: note_on channel=1 note=54 velocity=80 time=0
EXTRACT: note_on channel=1 note=57 velocity=80 time=0
EXTRACT: note_on channel=1 note=61 velocity=80 time=0
EXTRACT: note_on channel=1 note=42 velocity=80 time=0
EXTRACT: note_on channel=0 note=66 velocity=0 time=0.42077593125
EXTRACT: note_on channel=0 note=66 velocity=80 time=0.42429706875
EXTRACT: note_on channel=0 note=66 velocity=0 time=0.42077593125
EXTRACT: note_on channel=1 note=54 velocity=0 time=0.3380292
EXTRACT: note_on channel=1 note=57 velocity=0 time=0
EXTRACT: note_on channel=1 note=61 velocity=0 time=0
EXTRACT: note_on channel=1 note=42 velocity=0 time=0
EXTRACT: note_on channel=0 note=66 velocity=80 time=0.08626786874999999
EXTRACT: note_on channel=1 note=57 velocity=80 time=0
EXTRACT: note_on channel=1 note=64 velocity=80 time=0
EXTRACT: note_on channel=1 note=61 velocity=80 time=0
EXTRACT: note_on channel=1 note=45 velocity=80 time=0
EXTRACT: note_on channel=1 note=61 velocity=0 time=0.39964910625
EXTRACT: note_on channel=1 note=59 velocity=80 time=0.02288739375
EXTRACT: note_on channel=0 note=66 velocity=0 time=0.42077593125
EXTRACT: note_on channel=0 note=64 velocity=80 time=0.00176056875
EXTRACT: note_on channel=1 note=57 velocity=0 time=0.7588051312499999
EXTRACT: note_on channel=1 note=64 velocity=0 time=0
EXTRACT: note_on channel=1 note=45 velocity=0 time=0
EXTRACT: note_on channel=1 note=59 velocity=0 time=0.021126825
EXTRACT: note_on channel=0 note=64 velocity=0 time=0.06338047499999999
EXTRACT: note_on channel=0 note=68 velocity=80 time=0.00176056875
EXTRACT: note_on channel=1 note=61 velocity=80 time=0
EXTRACT: note_on channel=1 note=64 velocity=80 time=0
EXTRACT: note_on channel=1 note=68 velocity=80 time=0
EXTRACT: note_on channel=1 note=49 velocity=80 time=0
EXTRACT: note_on channel=1 note=52 velocity=80 time=0
EXTRACT: note_on channel=0 note=68 velocity=0 time=0.42077593125
EXTRACT: note_on channel=0 note=69 velocity=80 time=0.00176056875
EXTRACT: note_on channel=0 note=69 velocity=0 time=0.42077593125
EXTRACT: note_on channel=0 note=71 velocity=80 time=0.00176056875
EXTRACT: note_on channel=0 note=71 velocity=0 time=0.42077593125
EXTRACT: note_on channel=0 note=66 velocity=80 time=0.00176056875
EXTRACT: note_on channel=1 note=61 velocity=0 time=0.33626863125
EXTRACT: note_on channel=1 note=64 velocity=0 time=0
EXTRACT: note_on channel=1 note=68 velocity=0 time=0
EXTRACT: note_on channel=1 note=49 velocity=0 time=0
EXTRACT: note_on channel=1 note=52 velocity=0 time=0
EXTRACT: note_on channel=1 note=59 velocity=80 time=0.08626786874999999
EXTRACT: note_on channel=1 note=63 velocity=80 time=0
EXTRACT: note_on channel=1 note=66 velocity=80 time=0
EXTRACT: note_on channel=1 note=47 velocity=80 time=0
EXTRACT: note_on channel=1 note=51 velocity=80 time=0
EXTRACT: note_on channel=0 note=66 velocity=0 time=0.84331243125
EXTRACT: note_on channel=0 note=59 velocity=80 time=0.21302881875
EXTRACT: note_on channel=0 note=59 velocity=0 time=0.20950768125
EXTRACT: note_on channel=0 note=59 velocity=80 time=0.00176056875
EXTRACT: note_on channel=0 note=59 velocity=0 time=0.20950768125
EXTRACT: note_on channel=0 note=59 velocity=80 time=0.00176056875
EXTRACT: note_on channel=1 note=59 velocity=0 time=0.12500038125
EXTRACT: note_on channel=1 note=63 velocity=0 time=0
EXTRACT: note_on channel=1 note=66 velocity=0 time=0
EXTRACT: note_on channel=1 note=47 velocity=0 time=0
EXTRACT: note_on channel=1 note=51 velocity=0 time=0
EXTRACT: note_on channel=0 note=59 velocity=0 time=0.0845073
EXTRACT: note_on channel=0 note=69 velocity=80 time=0.00176056875
EXTRACT: note_on channel=1 note=54 velocity=80 time=0
EXTRACT: note_on channel=1 note=57 velocity=80 time=0
EXTRACT: note_on channel=1 note=61 velocity=80 time=0
EXTRACT: note_on channel=1 note=42 velocity=80 time=0
EXTRACT: note_on channel=0 note=69 velocity=0 time=0.20950768125
EXTRACT: note_on channel=0 note=68 velocity=80 time=0.00176056875
EXTRACT: note_on channel=0 note=68 velocity=0 time=0.20950768125
EXTRACT: note_on channel=0 note=66 velocity=80 time=0.00176056875
EXTRACT: note_on channel=0 note=66 velocity=0 time=0.20950768125
EXTRACT: note_on channel=0 note=68 velocity=80 time=0.00176056875
EXTRACT: note_on channel=0 note=68 velocity=0 time=0.20950768125
EXTRACT: note_on channel=0 note=66 velocity=80 time=0.00176056875
EXTRACT: note_on channel=0 note=66 velocity=0 time=0.20950768125
EXTRACT: note_on channel=0 note=68 velocity=80 time=0.00176056875
EXTRACT: note_on channel=0 note=68 velocity=0 time=0.10387355625
EXTRACT: note_on channel=0 note=66 velocity=80 time=0.00176056875
EXTRACT: note_on channel=0 note=66 velocity=0 time=0.10387355625
EXTRACT: note_on channel=0 note=64 velocity=80 time=0.00176056875
EXTRACT: note_on channel=1 note=54 velocity=0 time=0.33626863125
EXTRACT: note_on channel=1 note=57 velocity=0 time=0
EXTRACT: note_on channel=1 note=61 velocity=0 time=0
EXTRACT: note_on channel=1 note=42 velocity=0 time=0
EXTRACT: note_on channel=1 note=57 velocity=80 time=0.08626786874999999
EXTRACT: note_on channel=1 note=64 velocity=80 time=0
EXTRACT: note_on channel=1 note=61 velocity=80 time=0
EXTRACT: note_on channel=1 note=45 velocity=80 time=0
EXTRACT: note_on channel=1 note=61 velocity=0 time=0.39964910625
EXTRACT: note_on channel=1 note=59 velocity=80 time=0.02288739375
EXTRACT: note_on channel=0 note=64 velocity=0 time=0.42077593125
EXTRACT: note_on channel=0 note=59 velocity=80 time=0.63556531875
EXTRACT: note_on channel=1 note=57 velocity=0 time=0.12500038125
EXTRACT: note_on channel=1 note=64 velocity=0 time=0
EXTRACT: note_on channel=1 note=45 velocity=0 time=0
EXTRACT: note_on channel=1 note=59 velocity=0 time=0.021126825
EXTRACT: note_on channel=0 note=59 velocity=0 time=0.06338047499999999
EXTRACT: note_on channel=0 note=69 velocity=80 time=0.00176056875
EXTRACT: note_on channel=1 note=61 velocity=80 time=0
EXTRACT: note_on channel=1 note=64 velocity=80 time=0
EXTRACT: note_on channel=1 note=68 velocity=80 time=0
EXTRACT: note_on channel=1 note=49 velocity=80 time=0
EXTRACT: note_on channel=1 note=52 velocity=80 time=0
EXTRACT: note_on channel=0 note=69 velocity=0 time=0.20950768125
EXTRACT: note_on channel=0 note=68 velocity=80 time=0.00176056875
EXTRACT: note_on channel=0 note=68 velocity=0 time=0.20950768125
EXTRACT: note_on channel=0 note=66 velocity=80 time=0.00176056875
EXTRACT: note_on channel=0 note=66 velocity=0 time=0.20950768125
EXTRACT: note_on channel=0 note=68 velocity=80 time=0.00176056875
EXTRACT: note_on channel=0 note=68 velocity=0 time=0.20950768125
EXTRACT: note_on channel=0 note=66 velocity=80 time=0.00176056875
EXTRACT: note_on channel=1 note=61 velocity=0 time=0.7588051312499999
EXTRACT: note_on channel=1 note=64 velocity=0 time=0
EXTRACT: note_on channel=1 note=68 velocity=0 time=0
EXTRACT: note_on channel=1 note=49 velocity=0 time=0
EXTRACT: note_on channel=1 note=52 velocity=0 time=0
EXTRACT: note_on channel=0 note=66 velocity=0 time=0.0845073
EXTRACT: note_on channel=1 note=59 velocity=80 time=0.00176056875
EXTRACT: note_on channel=1 note=63 velocity=80 time=0
EXTRACT: note_on channel=1 note=66 velocity=80 time=0
EXTRACT: note_on channel=1 note=47 velocity=80 time=0
EXTRACT: note_on channel=1 note=51 velocity=80 time=0
EXTRACT: note_on channel=0 note=66 velocity=80 time=0.63380475
EXTRACT: note_on channel=0 note=66 velocity=0 time=0.20950768125
EXTRACT: note_on channel=0 note=66 velocity=80 time=0.00176056875
EXTRACT: note_on channel=0 note=66 velocity=0 time=0.20950768125
EXTRACT: note_on channel=0 note=66 velocity=80 time=0.00176056875
EXTRACT: note_on channel=0 note=66 velocity=0 time=0.20950768125
EXTRACT: note_on channel=0 note=66 velocity=80 time=0.00176056875
EXTRACT: note_on channel=0 note=66 velocity=0 time=0.20950768125
EXTRACT: note_on channel=0 note=66 velocity=80 time=0.00176056875
EXTRACT: note_on channel=1 note=59 velocity=0 time=0.12500038125
EXTRACT: note_on channel=1 note=63 velocity=0 time=0
EXTRACT: note_on channel=1 note=66 velocity=0 time=0
EXTRACT: note_on channel=1 note=47 velocity=0 time=0
EXTRACT: note_on channel=1 note=51 velocity=0 time=0
EXTRACT: note_on channel=1 note=54 velocity=80 time=0.08626786874999999
EXTRACT: note_on channel=1 note=57 velocity=80 time=0
EXTRACT: note_on channel=1 note=61 velocity=80 time=0
EXTRACT: note_on channel=1 note=42 velocity=80 time=0
EXTRACT: note_on channel=0 note=66 velocity=0 time=0.84331243125
EXTRACT: note_on channel=0 note=73 velocity=80 time=0.00176056875
EXTRACT: note_on channel=0 note=73 velocity=0 time=0.63204418125
EXTRACT: note_on channel=0 note=69 velocity=80 time=0.00176056875
EXTRACT: note_on channel=1 note=54 velocity=0 time=0.12500038125
EXTRACT: note_on channel=1 note=57 velocity=0 time=0
EXTRACT: note_on channel=1 note=61 velocity=0 time=0
EXTRACT: note_on channel=1 note=42 velocity=0 time=0
EXTRACT: note_on channel=0 note=69 velocity=0 time=0.0845073
EXTRACT: note_on channel=0 note=68 velocity=80 time=0.00176056875
EXTRACT: note_on channel=1 note=57 velocity=80 time=0
EXTRACT: note_on channel=1 note=64 velocity=80 time=0
EXTRACT: note_on channel=1 note=61 velocity=80 time=0
EXTRACT: note_on channel=1 note=45 velocity=80 time=0
EXTRACT: note_on channel=1 note=61 velocity=0 time=0.39964910625
EXTRACT: note_on channel=1 note=59 velocity=80 time=0.02288739375
EXTRACT: note_on channel=0 note=68 velocity=0 time=0.20950768125
EXTRACT: note_on channel=0 note=69 velocity=80 time=0.00176056875
EXTRACT: note_on channel=0 note=69 velocity=0 time=0.20950768125
EXTRACT: note_on channel=0 note=68 velocity=80 time=0.00176056875
EXTRACT: note_on channel=1 note=57 velocity=0 time=0.7588051312499999
EXTRACT: note_on channel=1 note=64 velocity=0 time=0
EXTRACT: note_on channel=1 note=45 velocity=0 time=0
EXTRACT: note_on channel=1 note=59 velocity=0 time=0.021126825
EXTRACT: note_on channel=1 note=61 velocity=80 time=0.06514104375
EXTRACT: note_on channel=1 note=64 velocity=80 time=0
EXTRACT: note_on channel=1 note=68 velocity=80 time=0
EXTRACT: note_on channel=1 note=49 velocity=80 time=0
EXTRACT: note_on channel=1 note=52 velocity=80 time=0
EXTRACT: note_on channel=0 note=68 velocity=0 time=0.42077593125
EXTRACT: note_on channel=1 note=61 velocity=0 time=1.1831022
EXTRACT: note_on channel=1 note=64 velocity=0 time=0
EXTRACT: note_on channel=1 note=68 velocity=0 time=0
EXTRACT: note_on channel=1 note=49 velocity=0 time=0
EXTRACT: note_on channel=1 note=52 velocity=0 time=0
EXTRACT: note_on channel=1 note=59 velocity=80 time=0.08626786874999999
EXTRACT: note_on channel=1 note=63 velocity=80 time=0
EXTRACT: note_on channel=1 note=66 velocity=80 time=0
EXTRACT: note_on channel=1 note=47 velocity=80 time=0
EXTRACT: note_on channel=1 note=51 velocity=80 time=0
EXTRACT: note_on channel=0 note=66 velocity=80 time=0.63380475
EXTRACT: note_on channel=0 note=66 velocity=0 time=0.20950768125
EXTRACT: note_on channel=0 note=66 velocity=80 time=0.00176056875
EXTRACT: note_on channel=0 note=66 velocity=0 time=0.20950768125
EXTRACT: note_on channel=0 note=66 velocity=80 time=0.00176056875
EXTRACT: note_on channel=0 note=66 velocity=0 time=0.20950768125
EXTRACT: note_on channel=0 note=66 velocity=80 time=0.00176056875
EXTRACT: note_on channel=0 note=66 velocity=0 time=0.20950768125
EXTRACT: note_on channel=0 note=66 velocity=80 time=0.00176056875
EXTRACT: note_on channel=1 note=59 velocity=0 time=0.12500038125
EXTRACT: note_on channel=1 note=63 velocity=0 time=0
EXTRACT: note_on channel=1 note=66 velocity=0 time=0
EXTRACT: note_on channel=1 note=47 velocity=0 time=0
EXTRACT: note_on channel=1 note=51 velocity=0 time=0
EXTRACT: note_on channel=1 note=54 velocity=80 time=0.08626786874999999
EXTRACT: note_on channel=1 note=57 velocity=80 time=0
EXTRACT: note_on channel=1 note=61 velocity=80 time=0
EXTRACT: note_on channel=1 note=42 velocity=80 time=0
EXTRACT: note_on channel=0 note=66 velocity=0 time=0.63204418125
EXTRACT: note_on channel=0 note=66 velocity=80 time=0.21302881875
EXTRACT: note_on channel=0 note=66 velocity=0 time=0.63204418125
EXTRACT: note_on channel=1 note=54 velocity=0 time=0.12676094999999998
EXTRACT: note_on channel=1 note=57 velocity=0 time=0
EXTRACT: note_on channel=1 note=61 velocity=0 time=0
EXTRACT: note_on channel=1 note=42 velocity=0 time=0
EXTRACT: note_on channel=0 note=66 velocity=80 time=0.08626786874999999
EXTRACT: note_on channel=1 note=57 velocity=80 time=0
EXTRACT: note_on channel=1 note=64 velocity=80 time=0
EXTRACT: note_on channel=1 note=61 velocity=80 time=0
EXTRACT: note_on channel=1 note=45 velocity=80 time=0
EXTRACT: note_on channel=1 note=61 velocity=0 time=0.39964910625
EXTRACT: note_on channel=1 note=59 velocity=80 time=0.02288739375
EXTRACT: note_on channel=0 note=66 velocity=0 time=0.42077593125
EXTRACT: note_on channel=0 note=64 velocity=80 time=0.00176056875
EXTRACT: note_on channel=1 note=57 velocity=0 time=0.7588051312499999
EXTRACT: note_on channel=1 note=64 velocity=0 time=0
EXTRACT: note_on channel=1 note=45 velocity=0 time=0
EXTRACT: note_on channel=1 note=59 velocity=0 time=0.021126825
EXTRACT: note_on channel=0 note=64 velocity=0 time=0.06338047499999999
EXTRACT: note_on channel=1 note=61 velocity=80 time=0.00176056875
EXTRACT: note_on channel=1 note=64 velocity=80 time=0
EXTRACT: note_on channel=1 note=68 velocity=80 time=0
EXTRACT: note_on channel=1 note=49 velocity=80 time=0
EXTRACT: note_on channel=1 note=52 velocity=80 time=0
EXTRACT: note_on channel=1 note=61 velocity=0 time=1.60387813125
EXTRACT: note_on channel=1 note=64 velocity=0 time=0
EXTRACT: note_on channel=1 note=68 velocity=0 time=0
EXTRACT: note_on channel=1 note=49 velocity=0 time=0
EXTRACT: note_on channel=1 note=52 velocity=0 time=0
EXTRACT: note_on channel=1 note=59 velocity=80 time=0.08626786874999999
EXTRACT: note_on channel=1 note=63 velocity=80 time=0
EXTRACT: note_on channel=1 note=66 velocity=80 time=0
EXTRACT: note_on channel=1 note=47 velocity=80 time=0
EXTRACT: note_on channel=1 note=51 velocity=80 time=0
EXTRACT: note_on channel=0 note=71 velocity=80 time=0.63380475
EXTRACT: note_on channel=0 note=71 velocity=0 time=0.20950768125
EXTRACT: note_on channel=0 note=71 velocity=80 time=0.00176056875
EXTRACT: note_on channel=0 note=71 velocity=0 time=0.20950768125
EXTRACT: note_on channel=0 note=73 velocity=80 time=0.00176056875
EXTRACT: note_on channel=0 note=73 velocity=0 time=0.20950768125
EXTRACT: note_on channel=0 note=73 velocity=80 time=0.00176056875
EXTRACT: note_on channel=0 note=73 velocity=0 time=0.20950768125
EXTRACT: note_on channel=0 note=73 velocity=80 time=0.00176056875
EXTRACT: note_on channel=1 note=59 velocity=0 time=0.12500038125
EXTRACT: note_on channel=1 note=63 velocity=0 time=0
EXTRACT: note_on channel=1 note=66 velocity=0 time=0
EXTRACT: note_on channel=1 note=47 velocity=0 time=0
EXTRACT: note_on channel=1 note=51 velocity=0 time=0
EXTRACT: note_on channel=1 note=54 velocity=80 time=0.08626786874999999
EXTRACT: note_on channel=1 note=57 velocity=80 time=0
EXTRACT: note_on channel=1 note=61 velocity=80 time=0
EXTRACT: note_on channel=1 note=42 velocity=80 time=0
EXTRACT: note_on channel=0 note=73 velocity=0 time=0.84331243125
EXTRACT: note_on channel=0 note=80 velocity=80 time=0.00176056875
EXTRACT: note_on channel=0 note=80 velocity=0 time=0.63204418125
EXTRACT: note_on channel=0 note=78 velocity=80 time=0.00176056875
EXTRACT: note_on channel=1 note=54 velocity=0 time=0.12500038125
EXTRACT: note_on channel=1 note=57 velocity=0 time=0
EXTRACT: note_on channel=1 note=61 velocity=0 time=0
EXTRACT: note_on channel=1 note=42 velocity=0 time=0
EXTRACT: note_on channel=0 note=78 velocity=0 time=0.0845073
EXTRACT: note_on channel=0 note=78 velocity=80 time=0.00176056875
EXTRACT: note_on channel=1 note=57 velocity=80 time=0
EXTRACT: note_on channel=1 note=64 velocity=80 time=0
EXTRACT: note_on channel=1 note=61 velocity=80 time=0
EXTRACT: note_on channel=1 note=45 velocity=80 time=0
EXTRACT: note_on channel=1 note=61 velocity=0 time=0.39964910625
EXTRACT: note_on channel=1 note=59 velocity=80 time=0.02288739375
EXTRACT: note_on channel=0 note=78 velocity=0 time=0.84331243125
EXTRACT: note_on channel=0 note=76 velocity=80 time=0.00176056875
EXTRACT: note_on channel=1 note=57 velocity=0 time=0.33626863125
EXTRACT: note_on channel=1 note=64 velocity=0 time=0
EXTRACT: note_on channel=1 note=45 velocity=0 time=0
EXTRACT: note_on channel=1 note=59 velocity=0 time=0.021126825
EXTRACT: note_on channel=0 note=76 velocity=0 time=0.06338047499999999
EXTRACT: note_on channel=1 note=61 velocity=80 time=0.00176056875
EXTRACT: note_on channel=1 note=64 velocity=80 time=0
EXTRACT: note_on channel=1 note=68 velocity=80 time=0
EXTRACT: note_on channel=1 note=49 velocity=80 time=0
EXTRACT: note_on channel=1 note=52 velocity=80 time=0
EXTRACT: note_on channel=1 note=61 velocity=0 time=1.60387813125
EXTRACT: note_on channel=1 note=64 velocity=0 time=0
EXTRACT: note_on channel=1 note=68 velocity=0 time=0
EXTRACT: note_on channel=1 note=49 velocity=0 time=0
EXTRACT: note_on channel=1 note=52 velocity=0 time=0
EXTRACT: note_on channel=1 note=59 velocity=80 time=0.08626786874999999
EXTRACT: note_on channel=1 note=63 velocity=80 time=0
EXTRACT: note_on channel=1 note=66 velocity=80 time=0
EXTRACT: note_on channel=1 note=47 velocity=80 time=0
EXTRACT: note_on channel=1 note=51 velocity=80 time=0
EXTRACT: note_on channel=0 note=59 velocity=80 time=1.4788777499999999
EXTRACT: note_on channel=1 note=59 velocity=0 time=0.12500038125
EXTRACT: note_on channel=1 note=63 velocity=0 time=0
EXTRACT: note_on channel=1 note=66 velocity=0 time=0
EXTRACT: note_on channel=1 note=47 velocity=0 time=0
EXTRACT: note_on channel=1 note=51 velocity=0 time=0
EXTRACT: note_on channel=0 note=59 velocity=0 time=0.0845073
EXTRACT: note_on channel=0 note=69 velocity=80 time=0.00176056875
EXTRACT: note_on channel=1 note=54 velocity=80 time=0
EXTRACT: note_on channel=1 note=57 velocity=80 time=0
EXTRACT: note_on channel=1 note=61 velocity=80 time=0
EXTRACT: note_on channel=1 note=42 velocity=80 time=0
EXTRACT: note_on channel=0 note=69 velocity=0 time=0.20950768125
EXTRACT: note_on channel=0 note=68 velocity=80 time=0.00176056875
EXTRACT: note_on channel=0 note=68 velocity=0 time=0.20950768125
EXTRACT: note_on channel=0 note=66 velocity=80 time=0.00176056875
EXTRACT: note_on channel=0 note=66 velocity=0 time=0.20950768125
EXTRACT: note_on channel=0 note=68 velocity=80 time=0.00176056875
EXTRACT: note_on channel=0 note=68 velocity=0 time=0.20950768125
EXTRACT: note_on channel=0 note=66 velocity=80 time=0.00176056875
EXTRACT: note_on channel=0 note=66 velocity=0 time=0.20950768125
EXTRACT: note_on channel=0 note=68 velocity=80 time=0.00176056875
EXTRACT: note_on channel=0 note=68 velocity=0 time=0.10387355625
EXTRACT: note_on channel=0 note=66 velocity=80 time=0.00176056875
EXTRACT: note_on channel=0 note=66 velocity=0 time=0.10387355625
EXTRACT: note_on channel=0 note=64 velocity=80 time=0.00176056875
EXTRACT: note_on channel=1 note=54 velocity=0 time=0.33626863125
EXTRACT: note_on channel=1 note=57 velocity=0 time=0
EXTRACT: note_on channel=1 note=61 velocity=0 time=0
EXTRACT: note_on channel=1 note=42 velocity=0 time=0
EXTRACT: note_on channel=1 note=57 velocity=80 time=0.08626786874999999
EXTRACT: note_on channel=1 note=64 velocity=80 time=0
EXTRACT: note_on channel=1 note=61 velocity=80 time=0
EXTRACT: note_on channel=1 note=45 velocity=80 time=0
EXTRACT: note_on channel=1 note=61 velocity=0 time=0.39964910625
EXTRACT: note_on channel=1 note=59 velocity=80 time=0.02288739375
EXTRACT: note_on channel=0 note=64 velocity=0 time=0.42077593125
EXTRACT: note_on channel=0 note=69 velocity=80 time=0.42429706875
EXTRACT: note_on channel=0 note=69 velocity=0 time=0.20950768125
EXTRACT: note_on channel=0 note=68 velocity=80 time=0.00176056875
EXTRACT: note_on channel=1 note=57 velocity=0 time=0.12500038125
EXTRACT: note_on channel=1 note=64 velocity=0 time=0
EXTRACT: note_on channel=1 note=45 velocity=0 time=0
EXTRACT: note_on channel=1 note=59 velocity=0 time=0.021126825
EXTRACT: note_on channel=1 note=61 velocity=80 time=0.06514104375
EXTRACT: note_on channel=1 note=64 velocity=80 time=0
EXTRACT: note_on channel=1 note=68 velocity=80 time=0
EXTRACT: note_on channel=1 note=49 velocity=80 time=0
EXTRACT: note_on channel=1 note=52 velocity=80 time=0
EXTRACT: note_on channel=0 note=68 velocity=0 time=1.47711718125
EXTRACT: note_on channel=0 note=66 velocity=80 time=0.00176056875
EXTRACT: note_on channel=0 note=66 velocity=0 time=0.10387355625
EXTRACT: note_on channel=0 note=68 velocity=80 time=0.00176056875
EXTRACT: note_on channel=1 note=61 velocity=0 time=0.019366256249999998
EXTRACT: note_on channel=1 note=64 velocity=0 time=0
EXTRACT: note_on channel=1 note=68 velocity=0 time=0
EXTRACT: note_on channel=1 note=49 velocity=0 time=0
EXTRACT: note_on channel=1 note=52 velocity=0 time=0
EXTRACT: note_on channel=0 note=68 velocity=0 time=0.0845073
EXTRACT: note_on channel=0 note=71 velocity=80 time=0.00176056875
EXTRACT: note_on channel=1 note=59 velocity=80 time=0
EXTRACT: note_on channel=1 note=63 velocity=80 time=0
EXTRACT: note_on channel=1 note=66 velocity=80 time=0
EXTRACT: note_on channel=1 note=47 velocity=80 time=0
EXTRACT: note_on channel=1 note=51 velocity=80 time=0
EXTRACT: note_on channel=0 note=71 velocity=0 time=0.84331243125
EXTRACT: note_on channel=0 note=73 velocity=80 time=0.00176056875
EXTRACT: note_on channel=1 note=59 velocity=0 time=0.35739545624999997
EXTRACT: note_on channel=1 note=63 velocity=0 time=0
EXTRACT: note_on channel=1 note=66 velocity=0 time=0
EXTRACT: note_on channel=1 note=47 velocity=0 time=0
EXTRACT: note_on channel=1 note=51 velocity=0 time=0
EXTRACT: note_on channel=0 note=73 velocity=0 time=0.06338047499999999
EXTRACT: note_on channel=0 note=71 velocity=80 time=0.00176056875
EXTRACT: note_on channel=1 note=73 velocity=80 time=0
EXTRACT: note_on channel=1 note=37 velocity=80 time=0
EXTRACT: note_on channel=0 note=71 velocity=0 time=0.20950768125
EXTRACT: note_on channel=0 note=69 velocity=80 time=0.00176056875
EXTRACT: note_on channel=1 note=73 velocity=0 time=0.18838085625
EXTRACT: note_on channel=1 note=37 velocity=0 time=0
EXTRACT: note_on channel=0 note=69 velocity=0 time=0.021126825
EXTRACT: note_on channel=0 note=68 velocity=80 time=0.00176056875
EXTRACT: note_on channel=1 note=80 velocity=80 time=0
EXTRACT: note_on channel=1 note=30 velocity=80 time=0
EXTRACT: note_on channel=1 note=30 velocity=0 time=0.39964910625
EXTRACT: note_on channel=0 note=68 velocity=0 time=0.021126825
EXTRACT: note_on channel=0 note=64 velocity=80 time=0.00176056875
EXTRACT: note_on channel=1 note=42 velocity=80 time=0
EXTRACT: note_on channel=1 note=42 velocity=0 time=0.19894426875
EXTRACT: note_on channel=1 note=42 velocity=80 time=0.01232398125
EXTRACT: note_on channel=1 note=80 velocity=0 time=0.16725403125
EXTRACT: note_on channel=1 note=42 velocity=0 time=0.031690237499999996
EXTRACT: note_on channel=0 note=64 velocity=0 time=0.0105634125
EXTRACT: note_on channel=0 note=66 velocity=80 time=0.00176056875
EXTRACT: note_on channel=1 note=73 velocity=80 time=0
EXTRACT: note_on channel=1 note=30 velocity=80 time=0
EXTRACT: note_on channel=1 note=73 velocity=0 time=0.39964910625
EXTRACT: note_on channel=1 note=30 velocity=0 time=0
EXTRACT: note_on channel=0 note=66 velocity=0 time=0.021126825
EXTRACT: note_on channel=0 note=64 velocity=80 time=0.00176056875
EXTRACT: note_on channel=1 note=76 velocity=80 time=0
EXTRACT: note_on channel=1 note=42 velocity=80 time=0
EXTRACT: note_on channel=1 note=42 velocity=0 time=0.19894426875
EXTRACT: note_on channel=1 note=42 velocity=80 time=0.01232398125
EXTRACT: note_on channel=1 note=42 velocity=0 time=0.19894426875
EXTRACT: note_on channel=1 note=33 velocity=80 time=0.01232398125
EXTRACT: note_on channel=1 note=33 velocity=0 time=0.39964910625
EXTRACT: note_on channel=1 note=42 velocity=80 time=0.02288739375
EXTRACT: note_on channel=1 note=45 velocity=80 time=0
EXTRACT: note_on channel=1 note=42 velocity=0 time=0.19894426875
EXTRACT: note_on channel=1 note=45 velocity=0 time=0
EXTRACT: note_on channel=1 note=42 velocity=80 time=0.01232398125
EXTRACT: note_on channel=1 note=45 velocity=80 time=0
EXTRACT: note_on channel=1 note=76 velocity=0 time=0.14612720625
EXTRACT: note_on channel=1 note=42 velocity=0 time=0.0528170625
EXTRACT: note_on channel=1 note=45 velocity=0 time=0
EXTRACT: note_on channel=1 note=33 velocity=80 time=0.01232398125
EXTRACT: note_on channel=1 note=33 velocity=0 time=0.39964910625
EXTRACT: note_on channel=0 note=64 velocity=0 time=0.021126825
EXTRACT: note_on channel=1 note=73 velocity=80 time=0.00176056875
EXTRACT: note_on channel=1 note=42 velocity=80 time=0
EXTRACT: note_on channel=1 note=45 velocity=80 time=0
EXTRACT: note_on channel=1 note=42 velocity=0 time=0.19894426875
EXTRACT: note_on channel=1 note=45 velocity=0 time=0
EXTRACT: note_on channel=1 note=42 velocity=80 time=0.01232398125
EXTRACT: note_on channel=1 note=45 velocity=80 time=0
EXTRACT: note_on channel=1 note=73 velocity=0 time=0.18838085625
EXTRACT: note_on channel=1 note=42 velocity=0 time=0.0105634125
EXTRACT: note_on channel=1 note=45 velocity=0 time=0
EXTRACT: note_on channel=1 note=80 velocity=80 time=0.01232398125
EXTRACT: note_on channel=1 note=37 velocity=80 time=0
EXTRACT: note_on channel=1 note=37 velocity=0 time=0.39964910625
EXTRACT: note_on channel=1 note=44 velocity=80 time=0.02288739375
EXTRACT: note_on channel=1 note=49 velocity=80 time=0
EXTRACT: note_on channel=1 note=44 velocity=0 time=0.19894426875
EXTRACT: note_on channel=1 note=49 velocity=0 time=0
EXTRACT: note_on channel=1 note=44 velocity=80 time=0.01232398125
EXTRACT: note_on channel=1 note=49 velocity=80 time=0
EXTRACT: note_on channel=1 note=80 velocity=0 time=0.16725403125
EXTRACT: note_on channel=1 note=44 velocity=0 time=0.031690237499999996
EXTRACT: note_on channel=1 note=49 velocity=0 time=0
EXTRACT: note_on channel=1 note=76 velocity=80 time=0.01232398125
EXTRACT: note_on channel=1 note=37 velocity=80 time=0
EXTRACT: note_on channel=1 note=76 velocity=0 time=0.39964910625
EXTRACT: note_on channel=1 note=37 velocity=0 time=0
EXTRACT: note_on channel=1 note=75 velocity=80 time=0.02288739375
EXTRACT: note_on channel=1 note=44 velocity=80 time=0
EXTRACT: note_on channel=1 note=49 velocity=80 time=0
EXTRACT: note_on channel=1 note=44 velocity=0 time=0.19894426875
EXTRACT: note_on channel=1 note=49 velocity=0 time=0
EXTRACT: note_on channel=1 note=44 velocity=80 time=0.01232398125
EXTRACT: note_on channel=1 note=49 velocity=80 time=0
EXTRACT: note_on channel=1 note=44 velocity=0 time=0.19894426875
EXTRACT: note_on channel=1 note=49 velocity=0 time=0
EXTRACT: note_on channel=1 note=35 velocity=80 time=0.01232398125
EXTRACT: note_on channel=1 note=35 velocity=0 time=0.39964910625
EXTRACT: note_on channel=1 note=42 velocity=80 time=0.02288739375
EXTRACT: note_on channel=1 note=47 velocity=80 time=0
EXTRACT: note_on channel=1 note=42 velocity=0 time=0.19894426875
EXTRACT: note_on channel=1 note=47 velocity=0 time=0
EXTRACT: note_on channel=1 note=42 velocity=80 time=0.01232398125
EXTRACT: note_on channel=1 note=47 velocity=80 time=0
EXTRACT: note_on channel=1 note=75 velocity=0 time=0.14612720625
EXTRACT: note_on channel=1 note=42 velocity=0 time=0.0528170625
EXTRACT: note_on channel=1 note=47 velocity=0 time=0
EXTRACT: note_on channel=0 note=73 velocity=80 time=0.01232398125
EXTRACT: note_on channel=1 note=35 velocity=80 time=0
EXTRACT: note_on channel=1 note=35 velocity=0 time=0.39964910625
EXTRACT: note_on channel=1 note=73 velocity=80 time=0.02288739375
EXTRACT: note_on channel=1 note=42 velocity=80 time=0
EXTRACT: note_on channel=1 note=47 velocity=80 time=0
EXTRACT: note_on channel=1 note=42 velocity=0 time=0.19894426875
EXTRACT: note_on channel=1 note=47 velocity=0 time=0
EXTRACT: note_on channel=0 note=73 velocity=0 time=0.0105634125
EXTRACT: note_on channel=0 note=73 velocity=80 time=0.00176056875
EXTRACT: note_on channel=1 note=42 velocity=80 time=0
EXTRACT: note_on channel=1 note=47 velocity=80 time=0
EXTRACT: note_on channel=1 note=73 velocity=0 time=0.18838085625
EXTRACT: note_on channel=1 note=42 velocity=0 time=0.0105634125
EXTRACT: note_on channel=1 note=47 velocity=0 time=0
EXTRACT: note_on channel=1 note=80 velocity=80 time=0.01232398125
EXTRACT: note_on channel=1 note=30 velocity=80 time=0
EXTRACT: note_on channel=0 note=73 velocity=0 time=0.20950768125
EXTRACT: note_on channel=0 note=71 velocity=80 time=0.00176056875
EXTRACT: note_on channel=1 note=30 velocity=0 time=0.18838085625
EXTRACT: note_on channel=0 note=71 velocity=0 time=0.021126825
EXTRACT: note_on channel=0 note=69 velocity=80 time=0.00176056875
EXTRACT: note_on channel=1 note=42 velocity=80 time=0
EXTRACT: note_on channel=1 note=42 velocity=0 time=0.19894426875
EXTRACT: note_on channel=1 note=42 velocity=80 time=0.01232398125
EXTRACT: note_on channel=1 note=80 velocity=0 time=0.16725403125
EXTRACT: note_on channel=1 note=42 velocity=0 time=0.031690237499999996
EXTRACT: note_on channel=0 note=69 velocity=0 time=0.0105634125
EXTRACT: note_on channel=0 note=68 velocity=80 time=0.00176056875
EXTRACT: note_on channel=1 note=73 velocity=80 time=0
EXTRACT: note_on channel=1 note=30 velocity=80 time=0
EXTRACT: note_on channel=1 note=73 velocity=0 time=0.39964910625
EXTRACT: note_on channel=1 note=30 velocity=0 time=0
EXTRACT: note_on channel=0 note=68 velocity=0 time=0.021126825
EXTRACT: note_on channel=0 note=66 velocity=80 time=0.00176056875
EXTRACT: note_on channel=1 note=76 velocity=80 time=0
EXTRACT: note_on channel=1 note=42 velocity=80 time=0
EXTRACT: note_on channel=1 note=42 velocity=0 time=0.19894426875
EXTRACT: note_on channel=1 note=42 velocity=80 time=0.01232398125
EXTRACT: note_on channel=1 note=42 velocity=0 time=0.19894426875
EXTRACT: note_on channel=1 note=33 velocity=80 time=0.01232398125
EXTRACT: note_on channel=0 note=66 velocity=0 time=0.20950768125
EXTRACT: note_on channel=0 note=68 velocity=80 time=0.00176056875
EXTRACT: note_on channel=0 note=68 velocity=0 time=0.10387355625
EXTRACT: note_on channel=0 note=66 velocity=80 time=0.00176056875
EXTRACT: note_on channel=1 note=33 velocity=0 time=0.08274673125
EXTRACT: note_on channel=0 note=66 velocity=0 time=0.021126825
EXTRACT: note_on channel=0 note=64 velocity=80 time=0.00176056875
EXTRACT: note_on channel=1 note=42 velocity=80 time=0
EXTRACT: note_on channel=1 note=45 velocity=80 time=0
EXTRACT: note_on channel=1 note=42 velocity=0 time=0.19894426875
EXTRACT: note_on channel=1 note=45 velocity=0 time=0
EXTRACT: note_on channel=1 note=42 velocity=80 time=0.01232398125
EXTRACT: note_on channel=1 note=45 velocity=80 time=0
EXTRACT: note_on channel=1 note=76 velocity=0 time=0.14612720625
EXTRACT: note_on channel=1 note=42 velocity=0 time=0.0528170625
EXTRACT: note_on channel=1 note=45 velocity=0 time=0
EXTRACT: note_on channel=1 note=33 velocity=80 time=0.01232398125
EXTRACT: note_on channel=1 note=33 velocity=0 time=0.39964910625
EXTRACT: note_on channel=1 note=73 velocity=80 time=0.02288739375
EXTRACT: note_on channel=1 note=42 velocity=80 time=0
EXTRACT: note_on channel=1 note=45 velocity=80 time=0
EXTRACT: note_on channel=1 note=42 velocity=0 time=0.19894426875
EXTRACT: note_on channel=1 note=45 velocity=0 time=0
EXTRACT: note_on channel=1 note=42 velocity=80 time=0.01232398125
EXTRACT: note_on channel=1 note=45 velocity=80 time=0
EXTRACT: note_on channel=1 note=73 velocity=0 time=0.18838085625
EXTRACT: note_on channel=1 note=42 velocity=0 time=0.0105634125
EXTRACT: note_on channel=1 note=45 velocity=0 time=0
EXTRACT: note_on channel=0 note=64 velocity=0 time=0.0105634125
EXTRACT: note_on channel=1 note=80 velocity=80 time=0.00176056875
EXTRACT: note_on channel=1 note=37 velocity=80 time=0
EXTRACT: note_on channel=1 note=37 velocity=0 time=0.39964910625
EXTRACT: note_on channel=1 note=44 velocity=80 time=0.02288739375
EXTRACT: note_on channel=1 note=49 velocity=80 time=0
EXTRACT: note_on channel=1 note=44 velocity=0 time=0.19894426875
EXTRACT: note_on channel=1 note=49 velocity=0 time=0
EXTRACT: note_on channel=1 note=44 velocity=80 time=0.01232398125
EXTRACT: note_on channel=1 note=49 velocity=80 time=0
EXTRACT: note_on channel=1 note=80 velocity=0 time=0.16725403125
EXTRACT: note_on channel=1 note=44 velocity=0 time=0.031690237499999996
EXTRACT: note_on channel=1 note=49 velocity=0 time=0
EXTRACT: note_on channel=1 note=76 velocity=80 time=0.01232398125
EXTRACT: note_on channel=1 note=37 velocity=80 time=0
EXTRACT: note_on channel=1 note=76 velocity=0 time=0.39964910625
EXTRACT: note_on channel=1 note=37 velocity=0 time=0
EXTRACT: note_on channel=1 note=75 velocity=80 time=0.02288739375
EXTRACT: note_on channel=1 note=44 velocity=80 time=0
EXTRACT: note_on channel=1 note=49 velocity=80 time=0
EXTRACT: note_on channel=1 note=44 velocity=0 time=0.19894426875
EXTRACT: note_on channel=1 note=49 velocity=0 time=0
EXTRACT: note_on channel=1 note=44 velocity=80 time=0.01232398125
EXTRACT: note_on channel=1 note=49 velocity=80 time=0
EXTRACT: note_on channel=1 note=44 velocity=0 time=0.19894426875
EXTRACT: note_on channel=1 note=49 velocity=0 time=0
EXTRACT: note_on channel=1 note=35 velocity=80 time=0.01232398125
EXTRACT: note_on channel=1 note=75 velocity=0 time=0.77993195625
EXTRACT: note_on channel=1 note=71 velocity=80 time=0.06514104375
EXTRACT: note_on channel=1 note=35 velocity=0 time=0.35739545624999997
EXTRACT: note_on channel=1 note=71 velocity=0 time=0.04225365
EXTRACT: note_on channel=1 note=68 velocity=80 time=0.02288739375
EXTRACT: note_on channel=1 note=73 velocity=80 time=0
EXTRACT: note_on channel=1 note=42 velocity=80 time=0
EXTRACT: note_on channel=1 note=47 velocity=80 time=0
EXTRACT: note_on channel=1 note=42 velocity=0 time=0.19894426875
EXTRACT: note_on channel=1 note=47 velocity=0 time=0
EXTRACT: note_on channel=1 note=42 velocity=80 time=0.01232398125
EXTRACT: note_on channel=1 note=47 velocity=80 time=0
EXTRACT: note_on channel=1 note=68 velocity=0 time=0.18838085625
EXTRACT: note_on channel=1 note=73 velocity=0 time=0
EXTRACT: note_on channel=1 note=42 velocity=0 time=0.0105634125
EXTRACT: note_on channel=1 note=47 velocity=0 time=0
EXTRACT: note_on channel=1 note=80 velocity=80 time=0.01232398125
EXTRACT: note_on channel=1 note=30 velocity=80 time=0
EXTRACT: note_on channel=1 note=30 velocity=0 time=0.39964910625
EXTRACT: note_on channel=1 note=42 velocity=80 time=0.02288739375
EXTRACT: note_on channel=1 note=42 velocity=0 time=0.19894426875
EXTRACT: note_on channel=1 note=42 velocity=80 time=0.01232398125
EXTRACT: note_on channel=1 note=80 velocity=0 time=0.16725403125
EXTRACT: note_on channel=1 note=42 velocity=0 time=0.031690237499999996
EXTRACT: note_on channel=1 note=73 velocity=80 time=0.01232398125
EXTRACT: note_on channel=1 note=30 velocity=80 time=0
EXTRACT: note_on channel=1 note=73 velocity=0 time=0.39964910625
EXTRACT: note_on channel=1 note=30 velocity=0 time=0
EXTRACT: note_on channel=1 note=76 velocity=80 time=0.02288739375
EXTRACT: note_on channel=1 note=42 velocity=80 time=0
EXTRACT: note_on channel=1 note=42 velocity=0 time=0.19894426875
EXTRACT: note_on channel=1 note=42 velocity=80 time=0.01232398125
EXTRACT: note_on channel=1 note=42 velocity=0 time=0.19894426875
EXTRACT: note_on channel=1 note=33 velocity=80 time=0.01232398125
EXTRACT: note_on channel=1 note=33 velocity=0 time=0.39964910625
EXTRACT: note_on channel=1 note=42 velocity=80 time=0.02288739375
EXTRACT: note_on channel=1 note=45 velocity=80 time=0
EXTRACT: note_on channel=1 note=42 velocity=0 time=0.19894426875
EXTRACT: note_on channel=1 note=45 velocity=0 time=0
EXTRACT: note_on channel=1 note=42 velocity=80 time=0.01232398125
EXTRACT: note_on channel=1 note=45 velocity=80 time=0
EXTRACT: note_on channel=1 note=76 velocity=0 time=0.14612720625
EXTRACT: note_on channel=1 note=42 velocity=0 time=0.0528170625
EXTRACT: note_on channel=1 note=45 velocity=0 time=0
EXTRACT: note_on channel=1 note=33 velocity=80 time=0.01232398125
EXTRACT: note_on channel=1 note=33 velocity=0 time=0.39964910625
EXTRACT: note_on channel=1 note=61 velocity=80 time=0.02288739375
EXTRACT: note_on channel=1 note=73 velocity=80 time=0
EXTRACT: note_on channel=1 note=42 velocity=80 time=0
EXTRACT: note_on channel=1 note=45 velocity=80 time=0
EXTRACT: note_on channel=1 note=42 velocity=0 time=0.19894426875
EXTRACT: note_on channel=1 note=45 velocity=0 time=0
EXTRACT: note_on channel=1 note=42 velocity=80 time=0.01232398125
EXTRACT: note_on channel=1 note=45 velocity=80 time=0
EXTRACT: note_on channel=1 note=61 velocity=0 time=0.18838085625
EXTRACT: note_on channel=1 note=73 velocity=0 time=0
EXTRACT: note_on channel=1 note=42 velocity=0 time=0.0105634125
EXTRACT: note_on channel=1 note=45 velocity=0 time=0
EXTRACT: note_on channel=1 note=71 velocity=80 time=0.01232398125
EXTRACT: note_on channel=1 note=80 velocity=80 time=0
EXTRACT: note_on channel=1 note=37 velocity=80 time=0
EXTRACT: note_on channel=1 note=37 velocity=0 time=0.39964910625
EXTRACT: note_on channel=1 note=44 velocity=80 time=0.02288739375
EXTRACT: note_on channel=1 note=49 velocity=80 time=0
EXTRACT: note_on channel=1 note=44 velocity=0 time=0.19894426875
EXTRACT: note_on channel=1 note=49 velocity=0 time=0
EXTRACT: note_on channel=1 note=44 velocity=80 time=0.01232398125
EXTRACT: note_on channel=1 note=49 velocity=80 time=0
EXTRACT: note_on channel=1 note=71 velocity=0 time=0.16725403125
EXTRACT: note_on channel=1 note=80 velocity=0 time=0
EXTRACT: note_on channel=1 note=44 velocity=0 time=0.031690237499999996
EXTRACT: note_on channel=1 note=49 velocity=0 time=0
EXTRACT: note_on channel=1 note=68 velocity=80 time=0.01232398125
EXTRACT: note_on channel=1 note=76 velocity=80 time=0
EXTRACT: note_on channel=1 note=37 velocity=80 time=0
EXTRACT: note_on channel=1 note=68 velocity=0 time=0.39964910625
EXTRACT: note_on channel=1 note=76 velocity=0 time=0
EXTRACT: note_on channel=1 note=37 velocity=0 time=0
EXTRACT: note_on channel=1 note=66 velocity=80 time=0.02288739375
EXTRACT: note_on channel=1 note=75 velocity=80 time=0
EXTRACT: note_on channel=1 note=44 velocity=80 time=0
EXTRACT: note_on channel=1 note=49 velocity=80 time=0
EXTRACT: note_on channel=1 note=44 velocity=0 time=0.19894426875
EXTRACT: note_on channel=1 note=49 velocity=0 time=0
EXTRACT: note_on channel=1 note=44 velocity=80 time=0.01232398125
EXTRACT: note_on channel=1 note=49 velocity=80 time=0
EXTRACT: note_on channel=1 note=44 velocity=0 time=0.19894426875
EXTRACT: note_on channel=1 note=49 velocity=0 time=0
EXTRACT: note_on channel=1 note=35 velocity=80 time=0.01232398125
EXTRACT: note_on channel=1 note=35 velocity=0 time=0.39964910625
EXTRACT: note_on channel=1 note=42 velocity=80 time=0.02288739375
EXTRACT: note_on channel=1 note=47 velocity=80 time=0
EXTRACT: note_on channel=1 note=42 velocity=0 time=0.19894426875
EXTRACT: note_on channel=1 note=47 velocity=0 time=0
EXTRACT: note_on channel=1 note=42 velocity=80 time=0.01232398125
EXTRACT: note_on channel=1 note=47 velocity=80 time=0
EXTRACT: note_on channel=1 note=66 velocity=0 time=0.14612720625
EXTRACT: note_on channel=1 note=75 velocity=0 time=0
EXTRACT: note_on channel=1 note=42 velocity=0 time=0.0528170625
EXTRACT: note_on channel=1 note=47 velocity=0 time=0
EXTRACT: note_on channel=1 note=35 velocity=80 time=0.01232398125
EXTRACT: note_on channel=1 note=35 velocity=0 time=0.39964910625
EXTRACT: note_on channel=1 note=73 velocity=80 time=0.02288739375
EXTRACT: note_on channel=1 note=61 velocity=80 time=0
EXTRACT: note_on channel=1 note=42 velocity=80 time=0
EXTRACT: note_on channel=1 note=47 velocity=80 time=0
EXTRACT: note_on channel=1 note=42 velocity=0 time=0.19894426875
EXTRACT: note_on channel=1 note=47 velocity=0 time=0
EXTRACT: note_on channel=1 note=42 velocity=80 time=0.01232398125
EXTRACT: note_on channel=1 note=47 velocity=80 time=0
EXTRACT: note_on channel=1 note=73 velocity=0 time=0.18838085625
EXTRACT: note_on channel=1 note=61 velocity=0 time=0
EXTRACT: note_on channel=1 note=42 velocity=0 time=0.0105634125
EXTRACT: note_on channel=1 note=47 velocity=0 time=0
EXTRACT: note_on channel=1 note=80 velocity=80 time=0.01232398125
EXTRACT: note_on channel=1 note=71 velocity=80 time=0
EXTRACT: note_on channel=1 note=30 velocity=80 time=0
EXTRACT: note_on channel=1 note=71 velocity=0 time=0.39964910625
EXTRACT: note_on channel=1 note=30 velocity=0 time=0
EXTRACT: note_on channel=1 note=68 velocity=80 time=0.02288739375
EXTRACT: note_on channel=1 note=42 velocity=80 time=0
EXTRACT: note_on channel=1 note=42 velocity=0 time=0.19894426875
EXTRACT: note_on channel=1 note=42 velocity=80 time=0.01232398125
EXTRACT: note_on channel=1 note=80 velocity=0 time=0.16725403125
EXTRACT: note_on channel=1 note=42 velocity=0 time=0.031690237499999996
EXTRACT: note_on channel=1 note=73 velocity=80 time=0.01232398125
EXTRACT: note_on channel=1 note=30 velocity=80 time=0
EXTRACT: note_on channel=1 note=73 velocity=0 time=0.39964910625
EXTRACT: note_on channel=1 note=30 velocity=0 time=0
EXTRACT: note_on channel=1 note=76 velocity=80 time=0.02288739375
EXTRACT: note_on channel=1 note=42 velocity=80 time=0
EXTRACT: note_on channel=1 note=42 velocity=0 time=0.19894426875
EXTRACT: note_on channel=1 note=42 velocity=80 time=0.01232398125
EXTRACT: note_on channel=1 note=68 velocity=0 time=0.14612720625
EXTRACT: note_on channel=1 note=42 velocity=0 time=0.0528170625
EXTRACT: note_on channel=1 note=33 velocity=80 time=0.01232398125
EXTRACT: note_on channel=1 note=33 velocity=0 time=0.39964910625
EXTRACT: note_on channel=1 note=42 velocity=80 time=0.02288739375
EXTRACT: note_on channel=1 note=45 velocity=80 time=0
EXTRACT: note_on channel=1 note=42 velocity=0 time=0.19894426875
EXTRACT: note_on channel=1 note=45 velocity=0 time=0
EXTRACT: note_on channel=1 note=42 velocity=80 time=0.01232398125
EXTRACT: note_on channel=1 note=45 velocity=80 time=0
EXTRACT: note_on channel=1 note=76 velocity=0 time=0.14612720625
EXTRACT: note_on channel=1 note=42 velocity=0 time=0.0528170625
EXTRACT: note_on channel=1 note=45 velocity=0 time=0
EXTRACT: note_on channel=1 note=33 velocity=80 time=0.01232398125
EXTRACT: note_on channel=1 note=33 velocity=0 time=0.39964910625
EXTRACT: note_on channel=1 note=61 velocity=80 time=0.02288739375
EXTRACT: note_on channel=1 note=73 velocity=80 time=0
EXTRACT: note_on channel=1 note=42 velocity=80 time=0
EXTRACT: note_on channel=1 note=45 velocity=80 time=0
EXTRACT: note_on channel=1 note=42 velocity=0 time=0.19894426875
EXTRACT: note_on channel=1 note=45 velocity=0 time=0
EXTRACT: note_on channel=1 note=42 velocity=80 time=0.01232398125
EXTRACT: note_on channel=1 note=45 velocity=80 time=0
EXTRACT: note_on channel=1 note=61 velocity=0 time=0.18838085625
EXTRACT: note_on channel=1 note=73 velocity=0 time=0
EXTRACT: note_on channel=1 note=42 velocity=0 time=0.0105634125
EXTRACT: note_on channel=1 note=45 velocity=0 time=0
EXTRACT: note_on channel=1 note=71 velocity=80 time=0.01232398125
EXTRACT: note_on channel=1 note=80 velocity=80 time=0
EXTRACT: note_on channel=1 note=37 velocity=80 time=0
EXTRACT: note_on channel=1 note=37 velocity=0 time=0.39964910625
EXTRACT: note_on channel=1 note=44 velocity=80 time=0.02288739375
EXTRACT: note_on channel=1 note=49 velocity=80 time=0
EXTRACT: note_on channel=1 note=44 velocity=0 time=0.19894426875
EXTRACT: note_on channel=1 note=49 velocity=0 time=0
EXTRACT: note_on channel=1 note=44 velocity=80 time=0.01232398125
EXTRACT: note_on channel=1 note=49 velocity=80 time=0
EXTRACT: note_on channel=1 note=71 velocity=0 time=0.16725403125
EXTRACT: note_on channel=1 note=80 velocity=0 time=0
EXTRACT: note_on channel=1 note=44 velocity=0 time=0.031690237499999996
EXTRACT: note_on channel=1 note=49 velocity=0 time=0
EXTRACT: note_on channel=1 note=68 velocity=80 time=0.01232398125
EXTRACT: note_on channel=1 note=76 velocity=80 time=0
EXTRACT: note_on channel=1 note=37 velocity=80 time=0
EXTRACT: note_on channel=1 note=68 velocity=0 time=0.39964910625
EXTRACT: note_on channel=1 note=76 velocity=0 time=0
EXTRACT: note_on channel=1 note=37 velocity=0 time=0
EXTRACT: note_on channel=1 note=66 velocity=80 time=0.02288739375
EXTRACT: note_on channel=1 note=75 velocity=80 time=0
EXTRACT: note_on channel=1 note=44 velocity=80 time=0
EXTRACT: note_on channel=1 note=49 velocity=80 time=0
EXTRACT: note_on channel=1 note=44 velocity=0 time=0.19894426875
EXTRACT: note_on channel=1 note=49 velocity=0 time=0
EXTRACT: note_on channel=1 note=44 velocity=80 time=0.01232398125
EXTRACT: note_on channel=1 note=49 velocity=80 time=0
EXTRACT: note_on channel=1 note=44 velocity=0 time=0.19894426875
EXTRACT: note_on channel=1 note=49 velocity=0 time=0
EXTRACT: note_on channel=1 note=35 velocity=80 time=0.01232398125
EXTRACT: note_on channel=1 note=66 velocity=0 time=0.77993195625
EXTRACT: note_on channel=1 note=75 velocity=0 time=0
EXTRACT: note_on channel=1 note=35 velocity=0 time=0.823946175
unison473
2m38
2M143
3m14
3M19
4m17
4M0
5m15
5M0
6m4
7m12
7M0