EXTRACT: control_change channel=0 control=121 value=0 time=0
EXTRACT: program_change channel=0 program=0 time=0
EXTRACT: control_change channel=0 control=7 value=104 time=0
EXTRACT: control_change channel=0 control=10 value=64 time=0
EXTRACT: control_change channel=0 control=91 value=0 time=0
EXTRACT: control_change channel=0 control=93 value=0 time=0
EXTRACT: control_change channel=1 control=121 value=0 time=0
EXTRACT: program_change channel=1 program=1 time=0
EXTRACT: control_change channel=1 control=7 value=103 time=0
EXTRACT: control_change channel=1 control=10 value=64 time=0
EXTRACT: control_change channel=1 control=91 value=0 time=0
EXTRACT: control_change channel=1 control=93 value=0 time=0
EXTRACT: note_on channel=1 note=64 velocity=49 time=0
EXTRACT: control_change channel=2 control=121 value=0 time=0
EXTRACT: program_change channel=2 program=0 time=0
EXTRACT: control_change channel=2 control=7 value=116 time=0
EXTRACT: control_change channel=2 control=10 value=64 time=0
EXTRACT: control_change channel=2 control=91 value=0 time=0
EXTRACT: control_change channel=2 control=93 value=0 time=0
EXTRACT: note_on channel=2 note=64 velocity=49 time=0
EXTRACT: control_change channel=3 control=121 value=0 time=0
EXTRACT: program_change channel=3 program=0 time=0
EXTRACT: control_change channel=3 control=7 value=111 time=0
EXTRACT: control_change channel=3 control=10 value=64 time=0
EXTRACT: control_change channel=3 control=91 value=0 time=0
EXTRACT: control_change channel=3 control=93 value=0 time=0
EXTRACT: note_on channel=3 note=60 velocity=49 time=0
EXTRACT: control_change channel=4 control=121 value=0 time=0
EXTRACT: program_change channel=4 program=0 time=0
EXTRACT: control_change channel=4 control=7 value=113 time=0
EXTRACT: control_change channel=4 control=10 value=64 time=0
EXTRACT: control_change channel=4 control=91 value=0 time=0
EXTRACT: control_change channel=4 control=93 value=0 time=0
EXTRACT: note_on channel=4 note=60 velocity=49 time=0
EXTRACT: control_change channel=5 control=121 value=0 time=0
EXTRACT: program_change channel=5 program=0 time=0
EXTRACT: control_change channel=5 control=7 value=107 time=0
EXTRACT: control_change channel=5 control=10 value=64 time=0
EXTRACT: control_change channel=5 control=91 value=0 time=0
EXTRACT: control_change channel=5 control=93 value=0 time=0
EXTRACT: note_on channel=5 note=55 velocity=49 time=0
EXTRACT: control_change channel=6 control=121 value=0 time=0
EXTRACT: program_change channel=6 program=0 time=0
EXTRACT: control_change channel=6 control=7 value=119 time=0
EXTRACT: control_change channel=6 control=10 value=64 time=0
EXTRACT: control_change channel=6 control=91 value=0 time=0
EXTRACT: control_change channel=6 control=93 value=0 time=0
EXTRACT: note_on channel=6 note=55 velocity=49 time=0
EXTRACT: note_on channel=2 note=64 velocity=0 time=1.8451904625
EXTRACT: note_on channel=2 note=69 velocity=49 time=0.0009615375
EXTRACT: note_on channel=2 note=69 velocity=0 time=0.4605764625
EXTRACT: note_on channel=2 note=67 velocity=49 time=0.0009615375
EXTRACT: note_on channel=2 note=67 velocity=0 time=0.2298074625
EXTRACT: note_on channel=2 note=65 velocity=49 time=0.0009615375
EXTRACT: note_on channel=2 note=65 velocity=0 time=0.2298074625
EXTRACT: note_on channel=2 note=64 velocity=49 time=0.0009615375
EXTRACT: note_on channel=1 note=64 velocity=0 time=0.9221144625
EXTRACT: note_on channel=2 note=64 velocity=0 time=0
EXTRACT: note_on channel=3 note=60 velocity=0 time=0
EXTRACT: note_on channel=4 note=60 velocity=0 time=0
EXTRACT: note_on channel=5 note=55 velocity=0 time=0
EXTRACT: note_on channel=6 note=55 velocity=0 time=0
EXTRACT: note_on channel=1 note=64 velocity=49 time=0.0009615375
EXTRACT: note_on channel=2 note=64 velocity=49 time=0
EXTRACT: note_on channel=3 note=62 velocity=49 time=0
EXTRACT: note_on channel=4 note=59 velocity=49 time=0
EXTRACT: note_on channel=5 note=55 velocity=49 time=0
EXTRACT: note_on channel=6 note=55 velocity=49 time=0
EXTRACT: note_on channel=1 note=64 velocity=0 time=1.3836524625
EXTRACT: note_on channel=1 note=72 velocity=54 time=0.0009615375
EXTRACT: note_on channel=1 note=72 velocity=0 time=0.4605764625
EXTRACT: note_on channel=4 note=59 velocity=0 time=0
EXTRACT: note_on channel=1 note=71 velocity=56 time=0.0009615375
EXTRACT: note_on channel=4 note=60 velocity=56 time=0
EXTRACT: note_on channel=1 note=71 velocity=0 time=0.9221144625
EXTRACT: note_on channel=4 note=60 velocity=0 time=0
EXTRACT: note_on channel=1 note=67 velocity=60 time=0.0009615375
EXTRACT: note_on channel=4 note=62 velocity=60 time=0
EXTRACT: note_on channel=1 note=67 velocity=0 time=0.9221144625
EXTRACT: note_on channel=2 note=64 velocity=0 time=0
EXTRACT: note_on channel=3 note=62 velocity=0 time=0
EXTRACT: note_on channel=4 note=62 velocity=0 time=0
EXTRACT: note_on channel=5 note=55 velocity=0 time=0
EXTRACT: note_on channel=6 note=55 velocity=0 time=0
EXTRACT: note_on channel=1 note=69 velocity=64 time=0.0009615375
EXTRACT: note_on channel=2 note=65 velocity=64 time=0
EXTRACT: note_on channel=3 note=60 velocity=64 time=0
EXTRACT: note_on channel=4 note=64 velocity=64 time=0
EXTRACT: note_on channel=5 note=57 velocity=64 time=0
EXTRACT: note_on channel=6 note=50 velocity=64 time=0
EXTRACT: note_on channel=5 note=57 velocity=0 time=0.2298074625
EXTRACT: note_on channel=5 note=57 velocity=64 time=0.0009615375
EXTRACT: note_on channel=5 note=57 velocity=0 time=0.2298074625
EXTRACT: note_on channel=5 note=57 velocity=64 time=0.0009615375
EXTRACT: note_on channel=5 note=57 velocity=0 time=0.2298074625
EXTRACT: note_on channel=5 note=57 velocity=64 time=0.0009615375
EXTRACT: note_on channel=5 note=57 velocity=0 time=0.2298074625
EXTRACT: note_on channel=5 note=57 velocity=64 time=0.0009615375
EXTRACT: note_on channel=5 note=57 velocity=0 time=0.4605764625
EXTRACT: note_on channel=5 note=57 velocity=64 time=0.0009615375
EXTRACT: note_on channel=1 note=69 velocity=0 time=0.4605764625
EXTRACT: note_on channel=4 note=64 velocity=0 time=0
EXTRACT: note_on channel=5 note=57 velocity=0 time=0
EXTRACT: note_on channel=1 note=71 velocity=64 time=0.0009615375
EXTRACT: note_on channel=4 note=62 velocity=64 time=0
EXTRACT: note_on channel=1 note=71 velocity=0 time=0.9221144625
EXTRACT: note_on channel=4 note=62 velocity=0 time=0
EXTRACT: note_on channel=1 note=72 velocity=64 time=0.0009615375
EXTRACT: note_on channel=4 note=64 velocity=68 time=0
EXTRACT: note_on channel=1 note=72 velocity=0 time=0.9221144625
EXTRACT: note_on channel=2 note=65 velocity=0 time=0
EXTRACT: note_on channel=3 note=60 velocity=0 time=0
EXTRACT: note_on channel=4 note=64 velocity=0 time=0
EXTRACT: note_on channel=6 note=50 velocity=0 time=0
EXTRACT: note_on channel=1 note=74 velocity=64 time=0.0009615375
EXTRACT: note_on channel=2 note=65 velocity=64 time=0
EXTRACT: note_on channel=3 note=62 velocity=64 time=0
EXTRACT: note_on channel=4 note=65 velocity=72 time=0
EXTRACT: note_on channel=5 note=57 velocity=72 time=0
EXTRACT: note_on channel=6 note=53 velocity=64 time=0
EXTRACT: note_on channel=3 note=62 velocity=0 time=0.2298074625
EXTRACT: note_on channel=5 note=57 velocity=0 time=0
EXTRACT: note_on channel=3 note=62 velocity=64 time=0.0009615375
EXTRACT: note_on channel=5 note=57 velocity=73 time=0
EXTRACT: note_on channel=3 note=62 velocity=0 time=0.2298074625
EXTRACT: note_on channel=5 note=57 velocity=0 time=0
EXTRACT: note_on channel=3 note=62 velocity=64 time=0.0009615375
EXTRACT: note_on channel=5 note=57 velocity=74 time=0
EXTRACT: note_on channel=3 note=62 velocity=0 time=0.2298074625
EXTRACT: note_on channel=5 note=57 velocity=0 time=0
EXTRACT: note_on channel=3 note=62 velocity=64 time=0.0009615375
EXTRACT: note_on channel=5 note=57 velocity=75 time=0
EXTRACT: note_on channel=1 note=74 velocity=0 time=0.2298074625
EXTRACT: note_on channel=3 note=62 velocity=0 time=0
EXTRACT: note_on channel=4 note=65 velocity=0 time=0
EXTRACT: note_on channel=5 note=57 velocity=0 time=0
EXTRACT: note_on channel=1 note=72 velocity=64 time=0.0009615375
EXTRACT: note_on channel=3 note=62 velocity=64 time=0
EXTRACT: note_on channel=4 note=69 velocity=76 time=0
EXTRACT: note_on channel=5 note=57 velocity=76 time=0
EXTRACT: note_on channel=3 note=62 velocity=0 time=0.4605764625
EXTRACT: note_on channel=5 note=57 velocity=0 time=0
EXTRACT: note_on channel=3 note=64 velocity=64 time=0.0009615375
EXTRACT: note_on channel=5 note=57 velocity=78 time=0
EXTRACT: note_on channel=1 note=72 velocity=0 time=0.4605764625
EXTRACT: note_on channel=2 note=65 velocity=0 time=0
EXTRACT: note_on channel=3 note=64 velocity=0 time=0
EXTRACT: note_on channel=4 note=69 velocity=0 time=0
EXTRACT: note_on channel=5 note=57 velocity=0 time=0
EXTRACT: note_on channel=6 note=53 velocity=0 time=0
EXTRACT: note_on channel=0 note=55 velocity=80 time=1.8471135375
EXTRACT: note_on channel=3 note=64 velocity=49 time=0
EXTRACT: note_on channel=6 note=60 velocity=49 time=0
EXTRACT: note_on channel=0 note=55 velocity=0 time=0.2298074625
EXTRACT: note_on channel=0 note=55 velocity=80 time=0.0009615375
EXTRACT: note_on channel=0 note=55 velocity=0 time=0.2298074625
EXTRACT: note_on channel=0 note=55 velocity=80 time=0.0009615375
EXTRACT: note_on channel=0 note=55 velocity=0 time=0.2298074625
EXTRACT: note_on channel=0 note=55 velocity=80 time=0.0009615375
EXTRACT: note_on channel=0 note=55 velocity=0 time=0.2298074625
EXTRACT: note_on channel=0 note=55 velocity=80 time=0.0009615375
EXTRACT: note_on channel=0 note=55 velocity=0 time=0.4605764625
EXTRACT: note_on channel=0 note=55 velocity=80 time=0.0009615375
EXTRACT: note_on channel=0 note=55 velocity=0 time=0.4605764625
EXTRACT: note_on channel=0 note=55 velocity=80 time=0.0009615375
EXTRACT: note_on channel=0 note=55 velocity=0 time=0.2298074625
EXTRACT: note_on channel=0 note=52 velocity=80 time=0.0009615375
EXTRACT: note_on channel=0 note=52 velocity=0 time=0.2298074625
EXTRACT: note_on channel=0 note=55 velocity=80 time=0.0009615375
EXTRACT: note_on channel=0 note=55 velocity=0 time=0.1144229625
EXTRACT: note_on channel=0 note=57 velocity=80 time=0.0009615375
EXTRACT: note_on channel=0 note=57 velocity=0 time=0.1144229625
EXTRACT: note_on channel=0 note=55 velocity=80 time=0.0009615375
EXTRACT: note_on channel=0 note=55 velocity=0 time=0.6913454625
EXTRACT: note_on channel=3 note=64 velocity=0 time=0.461538
EXTRACT: note_on channel=6 note=60 velocity=0 time=0
EXTRACT: note_on channel=0 note=55 velocity=80 time=0.0009615375
EXTRACT: note_on channel=3 note=62 velocity=49 time=0
EXTRACT: note_on channel=6 note=55 velocity=49 time=0
EXTRACT: note_on channel=0 note=55 velocity=0 time=0.2298074625
EXTRACT: note_on channel=0 note=55 velocity=80 time=0.0009615375
EXTRACT: note_on channel=0 note=55 velocity=0 time=0.2298074625
EXTRACT: note_on channel=0 note=55 velocity=80 time=0.0009615375
EXTRACT: note_on channel=0 note=55 velocity=0 time=0.2298074625
EXTRACT: note_on channel=0 note=55 velocity=80 time=0.0009615375
EXTRACT: note_on channel=0 note=55 velocity=0 time=0.2298074625
EXTRACT: note_on channel=0 note=55 velocity=80 time=0.0009615375
EXTRACT: note_on channel=0 note=55 velocity=0 time=0.4605764625
EXTRACT: note_on channel=0 note=55 velocity=80 time=0.0009615375
EXTRACT: note_on channel=0 note=55 velocity=0 time=0.4605764625
EXTRACT: note_on channel=0 note=55 velocity=80 time=0.0009615375
EXTRACT: note_on channel=0 note=55 velocity=0 time=0.2298074625
EXTRACT: note_on channel=0 note=52 velocity=80 time=0.0009615375
EXTRACT: note_on channel=0 note=52 velocity=0 time=0.2298074625
EXTRACT: note_on channel=0 note=55 velocity=80 time=0.0009615375
EXTRACT: note_on channel=0 note=55 velocity=0 time=0.1144229625
EXTRACT: note_on channel=0 note=57 velocity=80 time=0.0009615375
EXTRACT: note_on channel=0 note=57 velocity=0 time=0.1144229625
EXTRACT: note_on channel=0 note=55 velocity=80 time=0.0009615375
EXTRACT: note_on channel=0 note=55 velocity=0 time=0.6913454625
EXTRACT: note_on channel=3 note=62 velocity=0 time=0.461538
EXTRACT: note_on channel=6 note=55 velocity=0 time=0
EXTRACT: note_on channel=0 note=55 velocity=80 time=0.0009615375
EXTRACT: note_on channel=3 note=64 velocity=49 time=0
EXTRACT: note_on channel=4 note=60 velocity=80 time=0
EXTRACT: note_on channel=6 note=57 velocity=49 time=0
EXTRACT: note_on channel=0 note=55 velocity=0 time=0.2298074625
EXTRACT: note_on channel=0 note=55 velocity=80 time=0.0009615375
EXTRACT: note_on channel=0 note=55 velocity=0 time=0.2298074625
EXTRACT: note_on channel=0 note=55 velocity=80 time=0.0009615375
EXTRACT: note_on channel=0 note=55 velocity=0 time=0.2298074625
EXTRACT: note_on channel=0 note=55 velocity=80 time=0.0009615375
EXTRACT: note_on channel=0 note=55 velocity=0 time=0.2298074625
EXTRACT: note_on channel=0 note=55 velocity=80 time=0.0009615375
EXTRACT: note_on channel=0 note=55 velocity=0 time=0.4605764625
EXTRACT: note_on channel=0 note=55 velocity=80 time=0.0009615375
EXTRACT: note_on channel=0 note=55 velocity=0 time=0.2298074625
EXTRACT: note_on channel=0 note=55 velocity=80 time=0.0009615375
EXTRACT: note_on channel=0 note=55 velocity=0 time=0.2298074625
EXTRACT: note_on channel=0 note=55 velocity=80 time=0.0009615375
EXTRACT: note_on channel=0 note=55 velocity=0 time=0.2298074625
EXTRACT: note_on channel=0 note=52 velocity=80 time=0.0009615375
EXTRACT: note_on channel=0 note=52 velocity=0 time=0.2298074625
EXTRACT: note_on channel=0 note=55 velocity=80 time=0.0009615375
EXTRACT: note_on channel=0 note=55 velocity=0 time=0.1144229625
EXTRACT: note_on channel=0 note=57 velocity=80 time=0.0009615375
EXTRACT: note_on channel=0 note=57 velocity=0 time=0.1144229625
EXTRACT: note_on channel=0 note=55 velocity=80 time=0.0009615375
EXTRACT: note_on channel=0 note=55 velocity=0 time=0.6913454625
EXTRACT: note_on channel=3 note=64 velocity=0 time=0.461538
EXTRACT: note_on channel=4 note=60 velocity=0 time=0
EXTRACT: note_on channel=6 note=57 velocity=0 time=0
EXTRACT: note_on channel=3 note=64 velocity=49 time=0.0009615375
EXTRACT: note_on channel=4 note=60 velocity=80 time=0
EXTRACT: note_on channel=5 note=57 velocity=80 time=0
EXTRACT: note_on channel=6 note=53 velocity=49 time=0
EXTRACT: note_on channel=1 note=72 velocity=49 time=1.846152
EXTRACT: note_on channel=2 note=67 velocity=49 time=0
EXTRACT: note_on channel=2 note=67 velocity=0 time=0.9221144625
EXTRACT: note_on channel=2 note=65 velocity=64 time=0.0009615375
EXTRACT: note_on channel=1 note=72 velocity=0 time=0.9221144625
EXTRACT: note_on channel=2 note=65 velocity=0 time=0
EXTRACT: note_on channel=3 note=64 velocity=0 time=0
EXTRACT: note_on channel=4 note=60 velocity=0 time=0
EXTRACT: note_on channel=5 note=57 velocity=0 time=0
EXTRACT: note_on channel=6 note=53 velocity=0 time=0
EXTRACT: note_on channel=0 note=55 velocity=80 time=0.0009615375
EXTRACT: note_on channel=1 note=72 velocity=80 time=0
EXTRACT: note_on channel=2 note=64 velocity=80 time=0
EXTRACT: note_on channel=3 note=67 velocity=80 time=0
EXTRACT: note_on channel=4 note=60 velocity=80 time=0
EXTRACT: note_on channel=5 note=60 velocity=80 time=0
EXTRACT: note_on channel=6 note=55 velocity=80 time=0
EXTRACT: note_on channel=0 note=55 velocity=0 time=0.2298074625
EXTRACT: note_on channel=0 note=55 velocity=80 time=0.0009615375
EXTRACT: note_on channel=0 note=55 velocity=0 time=0.2298074625
EXTRACT: note_on channel=0 note=55 velocity=80 time=0.0009615375
EXTRACT: note_on channel=0 note=55 velocity=0 time=0.2298074625
EXTRACT: note_on channel=0 note=55 velocity=80 time=0.0009615375
EXTRACT: note_on channel=0 note=55 velocity=0 time=0.2298074625
EXTRACT: note_on channel=4 note=60 velocity=0 time=0
EXTRACT: note_on channel=0 note=55 velocity=80 time=0.0009615375
EXTRACT: note_on channel=4 note=62 velocity=80 time=0
EXTRACT: note_on channel=0 note=55 velocity=0 time=0.4605764625
EXTRACT: note_on channel=0 note=55 velocity=80 time=0.0009615375
EXTRACT: note_on channel=0 note=55 velocity=0 time=0.2298074625
EXTRACT: note_on channel=0 note=55 velocity=80 time=0.0009615375
EXTRACT: note_on channel=0 note=55 velocity=0 time=0.2298074625
EXTRACT: note_on channel=4 note=62 velocity=0 time=0
EXTRACT: note_on channel=0 note=55 velocity=80 time=0.0009615375
EXTRACT: note_on channel=4 note=64 velocity=80 time=0
EXTRACT: note_on channel=0 note=55 velocity=0 time=0.2298074625
EXTRACT: note_on channel=0 note=52 velocity=80 time=0.0009615375
EXTRACT: note_on channel=0 note=52 velocity=0 time=0.2298074625
EXTRACT: note_on channel=0 note=55 velocity=80 time=0.0009615375
EXTRACT: note_on channel=0 note=55 velocity=0 time=0.1144229625
EXTRACT: note_on channel=0 note=57 velocity=80 time=0.0009615375
EXTRACT: note_on channel=0 note=57 velocity=0 time=0.1144229625
EXTRACT: note_on channel=0 note=55 velocity=80 time=0.0009615375
EXTRACT: note_on channel=4 note=64 velocity=0 time=0.2298074625
EXTRACT: note_on channel=4 note=67 velocity=80 time=0.0009615375
EXTRACT: note_on channel=0 note=55 velocity=0 time=0.4605764625
EXTRACT: note_on channel=1 note=72 velocity=0 time=0.461538
EXTRACT: note_on channel=2 note=64 velocity=0 time=0
EXTRACT: note_on channel=3 note=67 velocity=0 time=0
EXTRACT: note_on channel=4 note=67 velocity=0 time=0
EXTRACT: note_on channel=5 note=60 velocity=0 time=0
EXTRACT: note_on channel=6 note=55 velocity=0 time=0
EXTRACT: note_on channel=0 note=55 velocity=80 time=0.0009615375
EXTRACT: note_on channel=1 note=71 velocity=80 time=0
EXTRACT: note_on channel=2 note=67 velocity=80 time=0
EXTRACT: note_on channel=3 note=62 velocity=80 time=0
EXTRACT: note_on channel=4 note=59 velocity=80 time=0
EXTRACT: note_on channel=5 note=59 velocity=80 time=0
EXTRACT: note_on channel=6 note=55 velocity=80 time=0
EXTRACT: note_on channel=0 note=55 velocity=0 time=0.2298074625
EXTRACT: note_on channel=0 note=55 velocity=80 time=0.0009615375
EXTRACT: note_on channel=0 note=55 velocity=0 time=0.2298074625
EXTRACT: note_on channel=0 note=55 velocity=80 time=0.0009615375
EXTRACT: note_on channel=0 note=55 velocity=0 time=0.2298074625
EXTRACT: note_on channel=0 note=55 velocity=80 time=0.0009615375
EXTRACT: note_on channel=0 note=55 velocity=0 time=0.2298074625
EXTRACT: note_on channel=4 note=59 velocity=0 time=0
EXTRACT: note_on channel=0 note=55 velocity=80 time=0.0009615375
EXTRACT: note_on channel=4 note=60 velocity=80 time=0
EXTRACT: note_on channel=0 note=55 velocity=0 time=0.4605764625
EXTRACT: note_on channel=0 note=55 velocity=80 time=0.0009615375
EXTRACT: note_on channel=0 note=55 velocity=0 time=0.4605764625
EXTRACT: note_on channel=1 note=71 velocity=0 time=0
EXTRACT: note_on channel=4 note=60 velocity=0 time=0
EXTRACT: note_on channel=0 note=55 velocity=80 time=0.0009615375
EXTRACT: note_on channel=1 note=74 velocity=80 time=0
EXTRACT: note_on channel=4 note=62 velocity=80 time=0
EXTRACT: note_on channel=0 note=55 velocity=0 time=0.2298074625
EXTRACT: note_on channel=0 note=52 velocity=80 time=0.0009615375
EXTRACT: note_on channel=0 note=52 velocity=0 time=0.2298074625
EXTRACT: note_on channel=0 note=55 velocity=80 time=0.0009615375
EXTRACT: note_on channel=0 note=55 velocity=0 time=0.1144229625
EXTRACT: note_on channel=0 note=57 velocity=80 time=0.0009615375
EXTRACT: note_on channel=0 note=57 velocity=0 time=0.1144229625
EXTRACT: note_on channel=0 note=55 velocity=80 time=0.0009615375
EXTRACT: note_on channel=1 note=74 velocity=0 time=0.2298074625
EXTRACT: note_on channel=4 note=62 velocity=0 time=0
EXTRACT: note_on channel=1 note=72 velocity=80 time=0.0009615375
EXTRACT: note_on channel=4 note=65 velocity=80 time=0
EXTRACT: note_on channel=0 note=55 velocity=0 time=0.4605764625
EXTRACT: note_on channel=1 note=72 velocity=0 time=0.461538
EXTRACT: note_on channel=2 note=67 velocity=0 time=0
EXTRACT: note_on channel=3 note=62 velocity=0 time=0
EXTRACT: note_on channel=4 note=65 velocity=0 time=0
EXTRACT: note_on channel=5 note=59 velocity=0 time=0
EXTRACT: note_on channel=6 note=55 velocity=0 time=0
EXTRACT: note_on channel=0 note=55 velocity=80 time=0.0009615375
EXTRACT: note_on channel=1 note=71 velocity=80 time=0
EXTRACT: note_on channel=2 note=67 velocity=80 time=0
EXTRACT: note_on channel=3 note=64 velocity=80 time=0
EXTRACT: note_on channel=4 note=60 velocity=80 time=0
EXTRACT: note_on channel=5 note=60 velocity=80 time=0
EXTRACT: note_on channel=6 note=57 velocity=80 time=0
EXTRACT: note_on channel=0 note=55 velocity=0 time=0.2298074625
EXTRACT: note_on channel=0 note=55 velocity=80 time=0.0009615375
EXTRACT: note_on channel=0 note=55 velocity=0 time=0.2298074625
EXTRACT: note_on channel=0 note=55 velocity=80 time=0.0009615375
EXTRACT: note_on channel=0 note=55 velocity=0 time=0.2298074625
EXTRACT: note_on channel=0 note=55 velocity=80 time=0.0009615375
EXTRACT: note_on channel=0 note=55 velocity=0 time=0.2298074625
EXTRACT: note_on channel=4 note=60 velocity=0 time=0
EXTRACT: note_on channel=0 note=55 velocity=80 time=0.0009615375
EXTRACT: note_on channel=4 note=62 velocity=80 time=0
EXTRACT: note_on channel=0 note=55 velocity=0 time=0.4605764625
EXTRACT: note_on channel=0 note=55 velocity=80 time=0.0009615375
EXTRACT: note_on channel=0 note=55 velocity=0 time=0.2298074625
EXTRACT: note_on channel=0 note=55 velocity=80 time=0.0009615375
EXTRACT: note_on channel=0 note=55 velocity=0 time=0.2298074625
EXTRACT: note_on channel=1 note=71 velocity=0 time=0
EXTRACT: note_on channel=4 note=62 velocity=0 time=0
EXTRACT: note_on channel=0 note=57 velocity=80 time=0.0009615375
EXTRACT: note_on channel=1 note=74 velocity=80 time=0
EXTRACT: note_on channel=4 note=64 velocity=80 time=0
EXTRACT: note_on channel=0 note=57 velocity=0 time=0.1144229625
EXTRACT: note_on channel=0 note=59 velocity=80 time=0.0009615375
EXTRACT: note_on channel=0 note=59 velocity=0 time=0.1144229625
EXTRACT: note_on channel=0 note=60 velocity=80 time=0.0009615375
EXTRACT: note_on channel=1 note=74 velocity=0 time=0.6913454625
EXTRACT: note_on channel=4 note=64 velocity=0 time=0
EXTRACT: note_on channel=1 note=72 velocity=88 time=0.0009615375
EXTRACT: note_on channel=4 note=67 velocity=88 time=0
EXTRACT: note_on channel=0 note=60 velocity=0 time=0.4605764625
EXTRACT: note_on channel=0 note=62 velocity=80 time=0.0009615375
EXTRACT: note_on channel=0 note=62 velocity=0 time=0.1144229625
EXTRACT: note_on channel=0 note=64 velocity=80 time=0.0009615375
EXTRACT: note_on channel=0 note=64 velocity=0 time=0.3451919625
EXTRACT: note_on channel=1 note=72 velocity=0 time=0
EXTRACT: note_on channel=2 note=67 velocity=0 time=0
EXTRACT: note_on channel=3 note=64 velocity=0 time=0
EXTRACT: note_on channel=4 note=67 velocity=0 time=0
EXTRACT: note_on channel=5 note=60 velocity=0 time=0
EXTRACT: note_on channel=6 note=57 velocity=0 time=0
EXTRACT: note_on channel=1 note=72 velocity=96 time=0.0009615375
EXTRACT: note_on channel=2 note=69 velocity=96 time=0
EXTRACT: note_on channel=3 note=65 velocity=96 time=0
EXTRACT: note_on channel=4 note=60 velocity=96 time=0
EXTRACT: note_on channel=5 note=57 velocity=96 time=0
EXTRACT: note_on channel=6 note=53 velocity=96 time=0
EXTRACT: note_on channel=2 note=69 velocity=0 time=1.8451904625
EXTRACT: note_on channel=5 note=57 velocity=0 time=0
EXTRACT: note_on channel=2 note=71 velocity=96 time=0.0009615375
EXTRACT: note_on channel=5 note=59 velocity=96 time=0
EXTRACT: note_on channel=1 note=72 velocity=0 time=0.9221144625
EXTRACT: note_on channel=2 note=71 velocity=0 time=0
EXTRACT: note_on channel=3 note=65 velocity=0 time=0
EXTRACT: note_on channel=4 note=60 velocity=0 time=0
EXTRACT: note_on channel=5 note=59 velocity=0 time=0
EXTRACT: note_on channel=6 note=53 velocity=0 time=0
EXTRACT: note_on channel=0 note=69 velocity=80 time=0.0009615375
EXTRACT: note_on channel=0 note=69 velocity=0 time=0.2298074625
EXTRACT: note_on channel=0 note=67 velocity=80 time=0.0009615375
EXTRACT: note_on channel=0 note=67 velocity=0 time=0.2298074625
EXTRACT: note_on channel=0 note=67 velocity=80 time=0.0009615375
EXTRACT: note_on channel=0 note=67 velocity=0 time=0.4605764625
EXTRACT: note_on channel=1 note=72 velocity=49 time=0.0009615375
EXTRACT: note_on channel=2 note=69 velocity=49 time=0
EXTRACT: note_on channel=3 note=67 velocity=49 time=0
EXTRACT: note_on channel=0 note=76 velocity=80 time=0.461538
EXTRACT: note_on channel=0 note=76 velocity=0 time=0.2298074625
EXTRACT: note_on channel=0 note=79 velocity=80 time=0.0009615375
EXTRACT: note_on channel=0 note=79 velocity=0 time=0.2298074625
EXTRACT: note_on channel=0 note=76 velocity=80 time=0.0009615375
EXTRACT: note_on channel=0 note=76 velocity=0 time=0.4605764625
EXTRACT: note_on channel=0 note=76 velocity=80 time=0.4624995375
EXTRACT: note_on channel=0 note=76 velocity=0 time=0.2298074625
EXTRACT: note_on channel=0 note=79 velocity=80 time=0.0009615375
EXTRACT: note_on channel=0 note=79 velocity=0 time=0.2298074625
EXTRACT: note_on channel=0 note=76 velocity=80 time=0.0009615375
EXTRACT: note_on channel=0 note=76 velocity=0 time=0.4605764625
EXTRACT: note_on channel=0 note=76 velocity=80 time=0.0009615375
EXTRACT: note_on channel=0 note=76 velocity=0 time=0.2298074625
EXTRACT: note_on channel=0 note=79 velocity=80 time=0.0009615375
EXTRACT: note_on channel=0 note=79 velocity=0 time=0.2298074625
EXTRACT: note_on channel=0 note=76 velocity=80 time=0.0009615375
EXTRACT: note_on channel=0 note=76 velocity=0 time=0.4605764625
EXTRACT: note_on channel=1 note=72 velocity=0 time=0
EXTRACT: note_on channel=2 note=69 velocity=0 time=0
EXTRACT: note_on channel=3 note=67 velocity=0 time=0
EXTRACT: note_on channel=1 note=71 velocity=49 time=0.0009615375
EXTRACT: note_on channel=2 note=69 velocity=49 time=0
EXTRACT: note_on channel=3 note=67 velocity=49 time=0
EXTRACT: note_on channel=4 note=62 velocity=96 time=0
EXTRACT: note_on channel=0 note=76 velocity=80 time=0.461538
EXTRACT: note_on channel=0 note=76 velocity=0 time=0.2298074625
EXTRACT: note_on channel=0 note=79 velocity=80 time=0.0009615375
EXTRACT: note_on channel=0 note=79 velocity=0 time=0.2298074625
EXTRACT: note_on channel=0 note=76 velocity=80 time=0.0009615375
EXTRACT: note_on channel=0 note=76 velocity=0 time=0.4605764625
EXTRACT: note_on channel=0 note=67 velocity=80 time=0.0009615375
EXTRACT: note_on channel=0 note=67 velocity=0 time=0.2298074625
EXTRACT: note_on channel=0 note=67 velocity=80 time=0.0009615375
EXTRACT: note_on channel=0 note=67 velocity=0 time=0.2298074625
EXTRACT: note_on channel=1 note=71 velocity=0 time=0
EXTRACT: note_on channel=2 note=69 velocity=0 time=0
EXTRACT: note_on channel=0 note=79 velocity=80 time=0.0009615375
EXTRACT: note_on channel=1 note=74 velocity=49 time=0
EXTRACT: note_on channel=2 note=72 velocity=49 time=0
EXTRACT: note_on channel=0 note=79 velocity=0 time=0.4605764625
EXTRACT: note_on channel=0 note=67 velocity=80 time=0.0009615375
EXTRACT: note_on channel=0 note=67 velocity=0 time=0.2298074625
EXTRACT: note_on channel=0 note=67 velocity=80 time=0.0009615375
EXTRACT: note_on channel=0 note=67 velocity=0 time=0.2298074625
EXTRACT: note_on channel=1 note=74 velocity=0 time=0
EXTRACT: note_on channel=2 note=72 velocity=0 time=0
EXTRACT: note_on channel=0 note=76 velocity=80 time=0.0009615375
EXTRACT: note_on channel=1 note=74 velocity=56 time=0
EXTRACT: note_on channel=2 note=71 velocity=56 time=0
EXTRACT: note_on channel=0 note=76 velocity=0 time=0.2298074625
EXTRACT: note_on channel=0 note=79 velocity=80 time=0.0009615375
EXTRACT: note_on channel=0 note=79 velocity=0 time=0.2298074625
EXTRACT: note_on channel=0 note=76 velocity=80 time=0.0009615375
EXTRACT: note_on channel=0 note=76 velocity=0 time=0.4605764625
EXTRACT: note_on channel=1 note=74 velocity=0 time=0
EXTRACT: note_on channel=2 note=71 velocity=0 time=0
EXTRACT: note_on channel=3 note=67 velocity=0 time=0
EXTRACT: note_on channel=4 note=62 velocity=0 time=0
EXTRACT: note_on channel=1 note=74 velocity=64 time=0.0009615375
EXTRACT: note_on channel=2 note=69 velocity=64 time=0
EXTRACT: note_on channel=3 note=65 velocity=64 time=0
EXTRACT: note_on channel=4 note=64 velocity=64 time=0
EXTRACT: note_on channel=5 note=62 velocity=64 time=0
EXTRACT: note_on channel=6 note=62 velocity=64 time=0
EXTRACT: note_on channel=0 note=76 velocity=80 time=0.461538
EXTRACT: note_on channel=0 note=76 velocity=0 time=0.2298074625
EXTRACT: note_on channel=0 note=79 velocity=80 time=0.0009615375
EXTRACT: note_on channel=0 note=79 velocity=0 time=0.2298074625
EXTRACT: note_on channel=0 note=76 velocity=80 time=0.0009615375
EXTRACT: note_on channel=0 note=76 velocity=0 time=0.2298074625
EXTRACT: note_on channel=0 note=74 velocity=80 time=0.0009615375
EXTRACT: note_on channel=0 note=74 velocity=0 time=0.2298074625
EXTRACT: note_on channel=5 note=62 velocity=0 time=0.461538
EXTRACT: note_on channel=5 note=64 velocity=64 time=0.0009615375
EXTRACT: note_on channel=5 note=64 velocity=0 time=0.2298074625
EXTRACT: note_on channel=5 note=67 velocity=64 time=0.0009615375
EXTRACT: note_on channel=5 note=67 velocity=0 time=0.2298074625
EXTRACT: note_on channel=5 note=64 velocity=64 time=0.0009615375
EXTRACT: note_on channel=5 note=64 velocity=0 time=0.2298074625
EXTRACT: note_on channel=5 note=62 velocity=64 time=0.0009615375
EXTRACT: note_on channel=0 note=67 velocity=80 time=0.692307
EXTRACT: note_on channel=0 note=67 velocity=0 time=0.2298074625
EXTRACT: note_on channel=0 note=67 velocity=80 time=0.0009615375
EXTRACT: note_on channel=0 note=67 velocity=0 time=0.2298074625
EXTRACT: note_on channel=1 note=74 velocity=0 time=0
EXTRACT: note_on channel=2 note=69 velocity=0 time=0
EXTRACT: note_on channel=3 note=65 velocity=0 time=0
EXTRACT: note_on channel=4 note=64 velocity=0 time=0
EXTRACT: note_on channel=5 note=62 velocity=0 time=0
EXTRACT: note_on channel=6 note=62 velocity=0 time=0
EXTRACT: note_on channel=1 note=72 velocity=64 time=0.0009615375
EXTRACT: note_on channel=2 note=69 velocity=64 time=0
EXTRACT: note_on channel=3 note=65 velocity=64 time=0
EXTRACT: note_on channel=4 note=65 velocity=64 time=0
EXTRACT: note_on channel=5 note=64 velocity=64 time=0
EXTRACT: note_on channel=6 note=60 velocity=64 time=0
EXTRACT: note_on channel=0 note=76 velocity=80 time=0.461538
EXTRACT: note_on channel=0 note=76 velocity=0 time=0.2298074625
EXTRACT: note_on channel=0 note=79 velocity=80 time=0.0009615375
EXTRACT: note_on channel=0 note=79 velocity=0 time=0.2298074625
EXTRACT: note_on channel=3 note=65 velocity=0 time=0
EXTRACT: note_on channel=0 note=76 velocity=80 time=0.0009615375
EXTRACT: note_on channel=3 note=67 velocity=64 time=0
EXTRACT: note_on channel=0 note=76 velocity=0 time=0.2298074625
EXTRACT: note_on channel=0 note=74 velocity=80 time=0.0009615375
EXTRACT: note_on channel=0 note=74 velocity=0 time=0.2298074625
EXTRACT: note_on channel=1 note=72 velocity=0 time=0.461538
EXTRACT: note_on channel=2 note=69 velocity=0 time=0
EXTRACT: note_on channel=3 note=67 velocity=0 time=0
EXTRACT: note_on channel=4 note=65 velocity=0 time=0
EXTRACT: note_on channel=5 note=64 velocity=0 time=0
EXTRACT: note_on channel=6 note=60 velocity=0 time=0
EXTRACT: note_on channel=1 note=72 velocity=64 time=0.0009615375
EXTRACT: note_on channel=2 note=69 velocity=64 time=0
EXTRACT: note_on channel=3 note=69 velocity=64 time=0
EXTRACT: note_on channel=4 note=65 velocity=64 time=0
EXTRACT: note_on channel=5 note=64 velocity=64 time=0
EXTRACT: note_on channel=6 note=60 velocity=64 time=0
EXTRACT: note_on channel=3 note=69 velocity=0 time=0.9221144625
EXTRACT: note_on channel=3 note=71 velocity=74 time=0.0009615375
EXTRACT: note_on channel=1 note=72 velocity=0 time=0.2298074625
EXTRACT: note_on channel=2 note=69 velocity=0 time=0
EXTRACT: note_on channel=3 note=71 velocity=0 time=0
EXTRACT: note_on channel=4 note=65 velocity=0 time=0
EXTRACT: note_on channel=5 note=64 velocity=0 time=0
EXTRACT: note_on channel=6 note=60 velocity=0 time=0
EXTRACT: note_on channel=0 note=72 velocity=80 time=0.0009615375
EXTRACT: note_on channel=0 note=72 velocity=0 time=0.4605764625
EXTRACT: note_on channel=0 note=72 velocity=80 time=0.0009615375
EXTRACT: note_on channel=1 note=72 velocity=80 time=0
EXTRACT: note_on channel=2 note=67 velocity=80 time=0
EXTRACT: note_on channel=3 note=64 velocity=80 time=0
EXTRACT: note_on channel=4 note=64 velocity=80 time=0.230769
EXTRACT: note_on channel=5 note=60 velocity=80 time=0
EXTRACT: note_on channel=6 note=60 velocity=80 time=0
EXTRACT: note_on channel=0 note=72 velocity=0 time=0.4605764625
EXTRACT: note_on channel=1 note=72 velocity=0 time=0
EXTRACT: note_on channel=2 note=67 velocity=0 time=0
EXTRACT: note_on channel=3 note=64 velocity=0 time=0
EXTRACT: note_on channel=0 note=67 velocity=80 time=0.0009615375
EXTRACT: note_on channel=1 note=72 velocity=80 time=0
EXTRACT: note_on channel=2 note=67 velocity=80 time=0
EXTRACT: note_on channel=3 note=64 velocity=80 time=0
EXTRACT: note_on channel=6 note=60 velocity=0 time=0.2298074625
EXTRACT: note_on channel=6 note=60 velocity=80 time=0.0009615375
EXTRACT: note_on channel=0 note=67 velocity=0 time=0.2298074625
EXTRACT: note_on channel=4 note=64 velocity=0 time=0
EXTRACT: note_on channel=5 note=60 velocity=0 time=0
EXTRACT: note_on channel=4 note=64 velocity=80 time=0.0009615375
EXTRACT: note_on channel=5 note=60 velocity=80 time=0
EXTRACT: note_on channel=0 note=69 velocity=80 time=0.230769
EXTRACT: note_on channel=0 note=69 velocity=0 time=0.2298074625
EXTRACT: note_on channel=6 note=60 velocity=0 time=0
EXTRACT: note_on channel=0 note=72 velocity=80 time=0.0009615375
EXTRACT: note_on channel=6 note=60 velocity=80 time=0
EXTRACT: note_on channel=0 note=72 velocity=0 time=0.2298074625
EXTRACT: note_on channel=0 note=69 velocity=80 time=0.0009615375
EXTRACT: note_on channel=0 note=69 velocity=0 time=0.2298074625
EXTRACT: note_on channel=4 note=64 velocity=0 time=0
EXTRACT: note_on channel=5 note=60 velocity=0 time=0
EXTRACT: note_on channel=0 note=72 velocity=80 time=0.0009615375
EXTRACT: note_on channel=4 note=64 velocity=80 time=0
EXTRACT: note_on channel=5 note=60 velocity=80 time=0
EXTRACT: note_on channel=0 note=72 velocity=0 time=0.2298074625
EXTRACT: note_on channel=6 note=60 velocity=0 time=0
EXTRACT: note_on channel=0 note=69 velocity=80 time=0.0009615375
EXTRACT: note_on channel=6 note=60 velocity=80 time=0
EXTRACT: note_on channel=0 note=69 velocity=0 time=0.2298074625
EXTRACT: note_on channel=0 note=72 velocity=80 time=0.0009615375
EXTRACT: note_on channel=0 note=72 velocity=0 time=0.2298074625
EXTRACT: note_on channel=6 note=60 velocity=0 time=0
EXTRACT: note_on channel=0 note=69 velocity=80 time=0.0009615375
EXTRACT: note_on channel=6 note=60 velocity=80 time=0
EXTRACT: note_on channel=0 note=69 velocity=0 time=0.2298074625
EXTRACT: note_on channel=4 note=64 velocity=0 time=0
EXTRACT: note_on channel=5 note=60 velocity=0 time=0
EXTRACT: note_on channel=6 note=60 velocity=0 time=0
EXTRACT: note_on channel=0 note=72 velocity=80 time=0.0009615375
EXTRACT: note_on channel=4 note=64 velocity=80 time=0
EXTRACT: note_on channel=5 note=60 velocity=80 time=0
EXTRACT: note_on channel=6 note=60 velocity=80 time=0
EXTRACT: note_on channel=0 note=72 velocity=0 time=0.2298074625
EXTRACT: note_on channel=1 note=72 velocity=0 time=0
EXTRACT: note_on channel=2 note=67 velocity=0 time=0
EXTRACT: note_on channel=3 note=64 velocity=0 time=0
EXTRACT: note_on channel=0 note=72 velocity=80 time=0.0009615375
EXTRACT: note_on channel=0 note=72 velocity=0 time=0.2298074625
EXTRACT: note_on channel=0 note=69 velocity=80 time=0.0009615375
EXTRACT: note_on channel=0 note=69 velocity=0 time=0.2298074625
EXTRACT: note_on channel=0 note=72 velocity=80 time=0.0009615375
EXTRACT: note_on channel=1 note=71 velocity=80 time=0
EXTRACT: note_on channel=2 note=67 velocity=80 time=0
EXTRACT: note_on channel=3 note=62 velocity=80 time=0
EXTRACT: note_on channel=4 note=64 velocity=0 time=0.2298074625
EXTRACT: note_on channel=5 note=60 velocity=0 time=0
EXTRACT: note_on channel=6 note=60 velocity=0 time=0
EXTRACT: note_on channel=4 note=64 velocity=80 time=0.0009615375
EXTRACT: note_on channel=5 note=59 velocity=80 time=0
EXTRACT: note_on channel=6 note=55 velocity=80 time=0
EXTRACT: note_on channel=0 note=72 velocity=0 time=0.4605764625
EXTRACT: note_on channel=1 note=71 velocity=0 time=0
EXTRACT: note_on channel=2 note=67 velocity=0 time=0
EXTRACT: note_on channel=3 note=62 velocity=0 time=0
EXTRACT: note_on channel=0 note=67 velocity=80 time=0.0009615375
EXTRACT: note_on channel=1 note=71 velocity=80 time=0
EXTRACT: note_on channel=2 note=67 velocity=80 time=0
EXTRACT: note_on channel=3 note=62 velocity=80 time=0
EXTRACT: note_on channel=6 note=55 velocity=0 time=0.2298074625
EXTRACT: note_on channel=6 note=55 velocity=80 time=0.0009615375
EXTRACT: note_on channel=0 note=67 velocity=0 time=0.2298074625
EXTRACT: note_on channel=4 note=64 velocity=0 time=0
EXTRACT: note_on channel=5 note=59 velocity=0 time=0
EXTRACT: note_on channel=4 note=64 velocity=80 time=0.0009615375
EXTRACT: note_on channel=5 note=59 velocity=80 time=0
EXTRACT: note_on channel=0 note=69 velocity=80 time=0.230769
EXTRACT: note_on channel=0 note=69 velocity=0 time=0.2298074625
EXTRACT: note_on channel=6 note=55 velocity=0 time=0
EXTRACT: note_on channel=0 note=72 velocity=80 time=0.0009615375
EXTRACT: note_on channel=6 note=55 velocity=80 time=0
EXTRACT: note_on channel=0 note=72 velocity=0 time=0.2298074625
EXTRACT: note_on channel=0 note=69 velocity=80 time=0.0009615375
EXTRACT: note_on channel=0 note=69 velocity=0 time=0.2298074625
EXTRACT: note_on channel=4 note=64 velocity=0 time=0
EXTRACT: note_on channel=5 note=59 velocity=0 time=0
EXTRACT: note_on channel=0 note=72 velocity=80 time=0.0009615375
EXTRACT: note_on channel=4 note=64 velocity=80 time=0
EXTRACT: note_on channel=5 note=59 velocity=80 time=0
EXTRACT: note_on channel=0 note=72 velocity=0 time=0.2298074625
EXTRACT: note_on channel=6 note=55 velocity=0 time=0
EXTRACT: note_on channel=0 note=69 velocity=80 time=0.0009615375
EXTRACT: note_on channel=6 note=55 velocity=80 time=0
EXTRACT: note_on channel=0 note=69 velocity=0 time=0.2298074625
EXTRACT: note_on channel=0 note=72 velocity=80 time=0.0009615375
EXTRACT: note_on channel=0 note=72 velocity=0 time=0.2298074625
EXTRACT: note_on channel=6 note=55 velocity=0 time=0
EXTRACT: note_on channel=0 note=69 velocity=80 time=0.0009615375
EXTRACT: note_on channel=6 note=55 velocity=80 time=0
EXTRACT: note_on channel=0 note=69 velocity=0 time=0.2298074625
EXTRACT: note_on channel=4 note=64 velocity=0 time=0
EXTRACT: note_on channel=5 note=59 velocity=0 time=0
EXTRACT: note_on channel=6 note=55 velocity=0 time=0
EXTRACT: note_on channel=0 note=72 velocity=80 time=0.0009615375
EXTRACT: note_on channel=4 note=64 velocity=80 time=0
EXTRACT: note_on channel=5 note=59 velocity=80 time=0
EXTRACT: note_on channel=6 note=55 velocity=80 time=0
EXTRACT: note_on channel=0 note=72 velocity=0 time=0.2298074625
EXTRACT: note_on channel=1 note=71 velocity=0 time=0
EXTRACT: note_on channel=2 note=67 velocity=0 time=0
EXTRACT: note_on channel=3 note=62 velocity=0 time=0
EXTRACT: note_on channel=0 note=69 velocity=80 time=0.0009615375
EXTRACT: note_on channel=1 note=71 velocity=80 time=0
EXTRACT: note_on channel=2 note=67 velocity=80 time=0
EXTRACT: note_on channel=3 note=62 velocity=80 time=0
EXTRACT: note_on channel=0 note=69 velocity=0 time=0.2298074625
EXTRACT: note_on channel=1 note=71 velocity=0 time=0
EXTRACT: note_on channel=2 note=67 velocity=0 time=0
EXTRACT: note_on channel=3 note=62 velocity=0 time=0
EXTRACT: note_on channel=0 note=72 velocity=80 time=0.0009615375
EXTRACT: note_on channel=1 note=71 velocity=80 time=0
EXTRACT: note_on channel=2 note=67 velocity=80 time=0
EXTRACT: note_on channel=3 note=62 velocity=80 time=0
EXTRACT: note_on channel=0 note=72 velocity=0 time=0.2298074625
EXTRACT: note_on channel=1 note=71 velocity=0 time=0
EXTRACT: note_on channel=2 note=67 velocity=0 time=0
EXTRACT: note_on channel=3 note=62 velocity=0 time=0
EXTRACT: note_on channel=0 note=74 velocity=80 time=0.0009615375
EXTRACT: note_on channel=1 note=69 velocity=80 time=0
EXTRACT: note_on channel=2 note=65 velocity=80 time=0
EXTRACT: note_on channel=3 note=62 velocity=80 time=0
EXTRACT: note_on channel=4 note=64 velocity=0 time=0.2298074625
EXTRACT: note_on channel=5 note=59 velocity=0 time=0
EXTRACT: note_on channel=6 note=55 velocity=0 time=0
EXTRACT: note_on channel=4 note=65 velocity=80 time=0.0009615375
EXTRACT: note_on channel=5 note=57 velocity=80 time=0
EXTRACT: note_on channel=6 note=50 velocity=80 time=0
EXTRACT: note_on channel=0 note=74 velocity=0 time=0.4605764625
EXTRACT: note_on channel=0 note=69 velocity=80 time=0.0009615375
EXTRACT: note_on channel=6 note=50 velocity=0 time=0.2298074625
EXTRACT: note_on channel=6 note=50 velocity=80 time=0.0009615375
EXTRACT: note_on channel=0 note=69 velocity=0 time=0.2298074625
EXTRACT: note_on channel=4 note=65 velocity=0 time=0
EXTRACT: note_on channel=5 note=57 velocity=0 time=0
EXTRACT: note_on channel=4 note=65 velocity=80 time=0.0009615375
EXTRACT: note_on channel=5 note=57 velocity=80 time=0
EXTRACT: note_on channel=0 note=67 velocity=80 time=0.230769
EXTRACT: note_on channel=0 note=67 velocity=0 time=0.2298074625
EXTRACT: note_on channel=6 note=50 velocity=0 time=0
EXTRACT: note_on channel=0 note=76 velocity=80 time=0.0009615375
EXTRACT: note_on channel=6 note=50 velocity=80 time=0
EXTRACT: note_on channel=0 note=76 velocity=0 time=0.2298074625
EXTRACT: note_on channel=0 note=74 velocity=80 time=0.0009615375
EXTRACT: note_on channel=4 note=65 velocity=0 time=0.2298074625
EXTRACT: note_on channel=5 note=57 velocity=0 time=0
EXTRACT: note_on channel=4 note=65 velocity=80 time=0.0009615375
EXTRACT: note_on channel=5 note=57 velocity=80 time=0
EXTRACT: note_on channel=6 note=50 velocity=0 time=0.2298074625
EXTRACT: note_on channel=6 note=50 velocity=80 time=0.0009615375
EXTRACT: note_on channel=0 note=74 velocity=0 time=0.2298074625
EXTRACT: note_on channel=6 note=50 velocity=0 time=0.230769
EXTRACT: note_on channel=6 note=50 velocity=80 time=0.0009615375
EXTRACT: note_on channel=4 note=65 velocity=0 time=0.2298074625
EXTRACT: note_on channel=5 note=57 velocity=0 time=0
EXTRACT: note_on channel=6 note=50 velocity=0 time=0
EXTRACT: note_on channel=4 note=65 velocity=80 time=0.0009615375
EXTRACT: note_on channel=5 note=57 velocity=80 time=0
EXTRACT: note_on channel=6 note=50 velocity=80 time=0
EXTRACT: note_on channel=1 note=69 velocity=0 time=0.4605764625
EXTRACT: note_on channel=2 note=65 velocity=0 time=0
EXTRACT: note_on channel=3 note=62 velocity=0 time=0
EXTRACT: note_on channel=0 note=77 velocity=80 time=0.0009615375
EXTRACT: note_on channel=0 note=77 velocity=0 time=0.2298074625
EXTRACT: note_on channel=0 note=76 velocity=80 time=0.0009615375
EXTRACT: note_on channel=0 note=76 velocity=0 time=0.2298074625
EXTRACT: note_on channel=4 note=65 velocity=0 time=0
EXTRACT: note_on channel=5 note=57 velocity=0 time=0
EXTRACT: note_on channel=6 note=50 velocity=0 time=0
EXTRACT: note_on channel=0 note=72 velocity=80 time=0.0009615375
EXTRACT: note_on channel=1 note=72 velocity=80 time=0
EXTRACT: note_on channel=2 note=69 velocity=80 time=0
EXTRACT: note_on channel=3 note=65 velocity=80 time=0
EXTRACT: note_on channel=4 note=65 velocity=80 time=0
EXTRACT: note_on channel=5 note=57 velocity=80 time=0
EXTRACT: note_on channel=6 note=53 velocity=80 time=0
EXTRACT: note_on channel=0 note=72 velocity=0 time=0.2298074625
EXTRACT: note_on channel=0 note=64 velocity=80 time=0.0009615375
EXTRACT: note_on channel=0 note=64 velocity=0 time=0.2298074625
EXTRACT: note_on channel=0 note=65 velocity=80 time=0.0009615375
EXTRACT: note_on channel=0 note=65 velocity=0 time=0.2298074625
EXTRACT: note_on channel=6 note=53 velocity=0 time=0
EXTRACT: note_on channel=0 note=64 velocity=80 time=0.0009615375
EXTRACT: note_on channel=6 note=53 velocity=80 time=0
EXTRACT: note_on channel=0 note=64 velocity=0 time=0.2298074625
EXTRACT: note_on channel=4 note=65 velocity=0 time=0
EXTRACT: note_on channel=5 note=57 velocity=0 time=0
EXTRACT: note_on channel=0 note=65 velocity=80 time=0.0009615375
EXTRACT: note_on channel=4 note=65 velocity=88 time=0
EXTRACT: note_on channel=5 note=57 velocity=88 time=0
EXTRACT: note_on channel=0 note=65 velocity=0 time=0.2298074625
EXTRACT: note_on channel=0 note=64 velocity=80 time=0.0009615375
EXTRACT: note_on channel=0 note=64 velocity=0 time=0.2298074625
EXTRACT: note_on channel=6 note=53 velocity=0 time=0
EXTRACT: note_on channel=0 note=65 velocity=80 time=0.0009615375
EXTRACT: note_on channel=6 note=53 velocity=80 time=0
EXTRACT: note_on channel=0 note=65 velocity=0 time=0.2298074625
EXTRACT: note_on channel=0 note=64 velocity=80 time=0.0009615375
EXTRACT: note_on channel=0 note=64 velocity=0 time=0.2298074625
EXTRACT: note_on channel=4 note=65 velocity=0 time=0
EXTRACT: note_on channel=5 note=57 velocity=0 time=0
EXTRACT: note_on channel=0 note=65 velocity=80 time=0.0009615375
EXTRACT: note_on channel=4 note=65 velocity=96 time=0
EXTRACT: note_on channel=5 note=57 velocity=96 time=0
EXTRACT: note_on channel=0 note=65 velocity=0 time=0.2298074625
EXTRACT: note_on channel=6 note=53 velocity=0 time=0
EXTRACT: note_on channel=0 note=64 velocity=80 time=0.0009615375
EXTRACT: note_on channel=6 note=53 velocity=80 time=0
EXTRACT: note_on channel=0 note=64 velocity=0 time=0.2298074625
EXTRACT: note_on channel=0 note=72 velocity=80 time=0.0009615375
EXTRACT: note_on channel=6 note=53 velocity=0 time=0.2298074625
EXTRACT: note_on channel=6 note=53 velocity=80 time=0.0009615375
EXTRACT: note_on channel=0 note=72 velocity=0 time=0.2298074625
EXTRACT: note_on channel=1 note=72 velocity=0 time=0
EXTRACT: note_on channel=2 note=69 velocity=0 time=0
EXTRACT: note_on channel=3 note=65 velocity=0 time=0
EXTRACT: note_on channel=4 note=65 velocity=0 time=0
EXTRACT: note_on channel=5 note=57 velocity=0 time=0
EXTRACT: note_on channel=6 note=53 velocity=0 time=0
EXTRACT: note_on channel=6 note=53 velocity=80 time=0.0009615375
EXTRACT: note_on channel=6 note=53 velocity=0 time=0.2298074625
EXTRACT: note_on channel=0 note=72 velocity=80 time=0.0009615375
EXTRACT: note_on channel=1 note=67 velocity=96 time=0
EXTRACT: note_on channel=2 note=64 velocity=96 time=0
EXTRACT: note_on channel=0 note=72 velocity=0 time=0.4605764625
EXTRACT: note_on channel=1 note=67 velocity=0 time=0
EXTRACT: note_on channel=2 note=64 velocity=0 time=0
EXTRACT: note_on channel=0 note=72 velocity=80 time=0.0009615375
EXTRACT: note_on channel=1 note=67 velocity=96 time=0
EXTRACT: note_on channel=2 note=64 velocity=96 time=0
EXTRACT: note_on channel=3 note=60 velocity=96 time=0.230769
EXTRACT: note_on channel=4 note=67 velocity=96 time=0
EXTRACT: note_on channel=5 note=64 velocity=96 time=0
EXTRACT: note_on channel=6 note=60 velocity=96 time=0
EXTRACT: note_on channel=0 note=72 velocity=0 time=0.4605764625
EXTRACT: note_on channel=1 note=67 velocity=0 time=0
EXTRACT: note_on channel=2 note=64 velocity=0 time=0
EXTRACT: note_on channel=0 note=67 velocity=80 time=0.0009615375
EXTRACT: note_on channel=1 note=64 velocity=96 time=0
EXTRACT: note_on channel=2 note=60 velocity=96 time=0
EXTRACT: note_on channel=3 note=60 velocity=0 time=0.2298074625
EXTRACT: note_on channel=6 note=60 velocity=0 time=0
EXTRACT: note_on channel=3 note=60 velocity=96 time=0.0009615375
EXTRACT: note_on channel=6 note=60 velocity=96 time=0
EXTRACT: note_on channel=0 note=67 velocity=0 time=0.2298074625
EXTRACT: note_on channel=1 note=64 velocity=0 time=0
EXTRACT: note_on channel=2 note=60 velocity=0 time=0
EXTRACT: note_on channel=3 note=60 velocity=0 time=0
EXTRACT: note_on channel=4 note=67 velocity=0 time=0
EXTRACT: note_on channel=5 note=64 velocity=0 time=0
EXTRACT: note_on channel=3 note=60 velocity=96 time=0.0009615375
EXTRACT: note_on channel=4 note=67 velocity=96 time=0
EXTRACT: note_on channel=5 note=64 velocity=96 time=0
EXTRACT: note_on channel=3 note=60 velocity=0 time=0.2298074625
EXTRACT: note_on channel=0 note=69 velocity=80 time=0.0009615375
EXTRACT: note_on channel=1 note=67 velocity=96 time=0
EXTRACT: note_on channel=2 note=64 velocity=96 time=0
EXTRACT: note_on channel=3 note=60 velocity=96 time=0
EXTRACT: note_on channel=0 note=69 velocity=0 time=0.2298074625
EXTRACT: note_on channel=1 note=67 velocity=0 time=0
EXTRACT: note_on channel=2 note=64 velocity=0 time=0
EXTRACT: note_on channel=3 note=60 velocity=0 time=0
EXTRACT: note_on channel=6 note=60 velocity=0 time=0
EXTRACT: note_on channel=0 note=72 velocity=80 time=0.0009615375
EXTRACT: note_on channel=1 note=67 velocity=96 time=0
EXTRACT: note_on channel=2 note=64 velocity=96 time=0
EXTRACT: note_on channel=3 note=60 velocity=96 time=0
EXTRACT: note_on channel=6 note=60 velocity=96 time=0
EXTRACT: note_on channel=0 note=72 velocity=0 time=0.2298074625
EXTRACT: note_on channel=1 note=67 velocity=0 time=0
EXTRACT: note_on channel=2 note=64 velocity=0 time=0
EXTRACT: note_on channel=3 note=60 velocity=0 time=0
EXTRACT: note_on channel=0 note=69 velocity=80 time=0.0009615375
EXTRACT: note_on channel=1 note=67 velocity=96 time=0
EXTRACT: note_on channel=2 note=64 velocity=96 time=0
EXTRACT: note_on channel=3 note=60 velocity=96 time=0
EXTRACT: note_on channel=0 note=69 velocity=0 time=0.2298074625
EXTRACT: note_on channel=1 note=67 velocity=0 time=0
EXTRACT: note_on channel=2 note=64 velocity=0 time=0
EXTRACT: note_on channel=3 note=60 velocity=0 time=0
EXTRACT: note_on channel=4 note=67 velocity=0 time=0
EXTRACT: note_on channel=5 note=64 velocity=0 time=0
EXTRACT: note_on channel=0 note=72 velocity=80 time=0.0009615375
EXTRACT: note_on channel=1 note=67 velocity=96 time=0
EXTRACT: note_on channel=2 note=64 velocity=96 time=0
EXTRACT: note_on channel=3 note=62 velocity=96 time=0
EXTRACT: note_on channel=4 note=67 velocity=96 time=0
EXTRACT: note_on channel=5 note=64 velocity=96 time=0
EXTRACT: note_on channel=0 note=72 velocity=0 time=0.2298074625
EXTRACT: note_on channel=1 note=67 velocity=0 time=0
EXTRACT: note_on channel=2 note=64 velocity=0 time=0
EXTRACT: note_on channel=6 note=60 velocity=0 time=0
EXTRACT: note_on channel=0 note=69 velocity=80 time=0.0009615375
EXTRACT: note_on channel=1 note=67 velocity=96 time=0
EXTRACT: note_on channel=2 note=64 velocity=96 time=0
EXTRACT: note_on channel=6 note=60 velocity=96 time=0
EXTRACT: note_on channel=0 note=69 velocity=0 time=0.2298074625
EXTRACT: note_on channel=1 note=67 velocity=0 time=0
EXTRACT: note_on channel=2 note=64 velocity=0 time=0
EXTRACT: note_on channel=0 note=72 velocity=80 time=0.0009615375
EXTRACT: note_on channel=1 note=67 velocity=96 time=0
EXTRACT: note_on channel=2 note=64 velocity=96 time=0
EXTRACT: note_on channel=0 note=72 velocity=0 time=0.2298074625
EXTRACT: note_on channel=1 note=67 velocity=0 time=0
EXTRACT: note_on channel=2 note=64 velocity=0 time=0
EXTRACT: note_on channel=3 note=62 velocity=0 time=0
EXTRACT: note_on channel=6 note=60 velocity=0 time=0
EXTRACT: note_on channel=0 note=69 velocity=80 time=0.0009615375
EXTRACT: note_on channel=1 note=67 velocity=96 time=0
EXTRACT: note_on channel=2 note=64 velocity=96 time=0
EXTRACT: note_on channel=3 note=64 velocity=96 time=0
EXTRACT: note_on channel=6 note=60 velocity=96 time=0
EXTRACT: note_on channel=0 note=69 velocity=0 time=0.2298074625
EXTRACT: note_on channel=1 note=67 velocity=0 time=0
EXTRACT: note_on channel=2 note=64 velocity=0 time=0
EXTRACT: note_on channel=3 note=64 velocity=0 time=0
EXTRACT: note_on channel=4 note=67 velocity=0 time=0
EXTRACT: note_on channel=5 note=64 velocity=0 time=0
EXTRACT: note_on channel=6 note=60 velocity=0 time=0
EXTRACT: note_on channel=0 note=72 velocity=80 time=0.0009615375
EXTRACT: note_on channel=1 note=67 velocity=96 time=0
EXTRACT: note_on channel=2 note=64 velocity=96 time=0
EXTRACT: note_on channel=3 note=64 velocity=96 time=0
EXTRACT: note_on channel=4 note=67 velocity=96 time=0
EXTRACT: note_on channel=5 note=64 velocity=96 time=0
EXTRACT: note_on channel=6 note=60 velocity=96 time=0
EXTRACT: note_on channel=0 note=72 velocity=0 time=0.2298074625
EXTRACT: note_on channel=1 note=67 velocity=0 time=0
EXTRACT: note_on channel=2 note=64 velocity=0 time=0
EXTRACT: note_on channel=0 note=72 velocity=80 time=0.0009615375
EXTRACT: note_on channel=1 note=67 velocity=96 time=0
EXTRACT: note_on channel=2 note=64 velocity=96 time=0
EXTRACT: note_on channel=0 note=72 velocity=0 time=0.2298074625
EXTRACT: note_on channel=1 note=67 velocity=0 time=0
EXTRACT: note_on channel=2 note=64 velocity=0 time=0
EXTRACT: note_on channel=3 note=64 velocity=0 time=0
EXTRACT: note_on channel=0 note=69 velocity=80 time=0.0009615375
EXTRACT: note_on channel=1 note=67 velocity=96 time=0
EXTRACT: note_on channel=2 note=64 velocity=96 time=0
EXTRACT: note_on channel=0 note=69 velocity=0 time=0.2298074625
EXTRACT: note_on channel=1 note=67 velocity=0 time=0
EXTRACT: note_on channel=2 note=64 velocity=0 time=0
EXTRACT: note_on channel=0 note=72 velocity=80 time=0.0009615375
EXTRACT: note_on channel=1 note=67 velocity=96 time=0
EXTRACT: note_on channel=2 note=62 velocity=96 time=0
EXTRACT: note_on channel=3 note=55 velocity=96 time=0
EXTRACT: note_on channel=3 note=55 velocity=0 time=0.2298074625
EXTRACT: note_on channel=4 note=67 velocity=0 time=0
EXTRACT: note_on channel=5 note=64 velocity=0 time=0
EXTRACT: note_on channel=6 note=60 velocity=0 time=0
EXTRACT: note_on channel=3 note=59 velocity=96 time=0.0009615375
EXTRACT: note_on channel=4 note=71 velocity=96 time=0
EXTRACT: note_on channel=5 note=62 velocity=96 time=0
EXTRACT: note_on channel=6 note=55 velocity=96 time=0
EXTRACT: note_on channel=0 note=72 velocity=0 time=0.4605764625
EXTRACT: note_on channel=1 note=67 velocity=0 time=0
EXTRACT: note_on channel=2 note=62 velocity=0 time=0
EXTRACT: note_on channel=0 note=67 velocity=80 time=0.0009615375
EXTRACT: note_on channel=1 note=67 velocity=96 time=0
EXTRACT: note_on channel=2 note=62 velocity=96 time=0
EXTRACT: note_on channel=3 note=59 velocity=0 time=0.2298074625
EXTRACT: note_on channel=6 note=55 velocity=0 time=0
EXTRACT: note_on channel=3 note=59 velocity=96 time=0.0009615375
EXTRACT: note_on channel=6 note=55 velocity=96 time=0
EXTRACT: note_on channel=0 note=67 velocity=0 time=0.2298074625
EXTRACT: note_on channel=1 note=67 velocity=0 time=0
EXTRACT: note_on channel=2 note=62 velocity=0 time=0
EXTRACT: note_on channel=3 note=59 velocity=0 time=0
EXTRACT: note_on channel=4 note=71 velocity=0 time=0
EXTRACT: note_on channel=5 note=62 velocity=0 time=0
EXTRACT: note_on channel=3 note=59 velocity=96 time=0.0009615375
EXTRACT: note_on channel=4 note=71 velocity=96 time=0
EXTRACT: note_on channel=5 note=62 velocity=96 time=0
EXTRACT: note_on channel=0 note=69 velocity=80 time=0.230769
EXTRACT: note_on channel=1 note=67 velocity=96 time=0
EXTRACT: note_on channel=2 note=62 velocity=96 time=0
EXTRACT: note_on channel=0 note=69 velocity=0 time=0.2298074625
EXTRACT: note_on channel=1 note=67 velocity=0 time=0
EXTRACT: note_on channel=2 note=62 velocity=0 time=0
EXTRACT: note_on channel=6 note=55 velocity=0 time=0
EXTRACT: note_on channel=0 note=72 velocity=80 time=0.0009615375
EXTRACT: note_on channel=1 note=67 velocity=96 time=0
EXTRACT: note_on channel=2 note=62 velocity=96 time=0
EXTRACT: note_on channel=6 note=55 velocity=96 time=0
EXTRACT: note_on channel=0 note=72 velocity=0 time=0.2298074625
EXTRACT: note_on channel=1 note=67 velocity=0 time=0
EXTRACT: note_on channel=2 note=62 velocity=0 time=0
EXTRACT: note_on channel=3 note=59 velocity=0 time=0
EXTRACT: note_on channel=0 note=69 velocity=80 time=0.0009615375
EXTRACT: note_on channel=1 note=67 velocity=96 time=0
EXTRACT: note_on channel=2 note=62 velocity=96 time=0
EXTRACT: note_on channel=3 note=59 velocity=96 time=0
EXTRACT: note_on channel=0 note=69 velocity=0 time=0.2298074625
EXTRACT: note_on channel=1 note=67 velocity=0 time=0
EXTRACT: note_on channel=2 note=62 velocity=0 time=0
EXTRACT: note_on channel=3 note=59 velocity=0 time=0
EXTRACT: note_on channel=4 note=71 velocity=0 time=0
EXTRACT: note_on channel=5 note=62 velocity=0 time=0
EXTRACT: note_on channel=0 note=72 velocity=80 time=0.0009615375
EXTRACT: note_on channel=1 note=67 velocity=96 time=0
EXTRACT: note_on channel=2 note=62 velocity=96 time=0
EXTRACT: note_on channel=3 note=60 velocity=96 time=0
EXTRACT: note_on channel=4 note=71 velocity=96 time=0
EXTRACT: note_on channel=5 note=59 velocity=96 time=0
EXTRACT: note_on channel=0 note=72 velocity=0 time=0.2298074625
EXTRACT: note_on channel=1 note=67 velocity=0 time=0
EXTRACT: note_on channel=2 note=62 velocity=0 time=0
EXTRACT: note_on channel=6 note=55 velocity=0 time=0
EXTRACT: note_on channel=0 note=69 velocity=80 time=0.0009615375
EXTRACT: note_on channel=1 note=67 velocity=96 time=0
EXTRACT: note_on channel=2 note=62 velocity=96 time=0
EXTRACT: note_on channel=6 note=55 velocity=96 time=0
EXTRACT: note_on channel=0 note=69 velocity=0 time=0.2298074625
EXTRACT: note_on channel=1 note=67 velocity=0 time=0
EXTRACT: note_on channel=2 note=62 velocity=0 time=0
EXTRACT: note_on channel=0 note=72 velocity=80 time=0.0009615375
EXTRACT: note_on channel=1 note=67 velocity=96 time=0
EXTRACT: note_on channel=2 note=62 velocity=96 time=0
EXTRACT: note_on channel=0 note=72 velocity=0 time=0.2298074625
EXTRACT: note_on channel=1 note=67 velocity=0 time=0
EXTRACT: note_on channel=2 note=62 velocity=0 time=0
EXTRACT: note_on channel=3 note=60 velocity=0 time=0
EXTRACT: note_on channel=6 note=55 velocity=0 time=0
EXTRACT: note_on channel=0 note=69 velocity=80 time=0.0009615375
EXTRACT: note_on channel=1 note=67 velocity=96 time=0
EXTRACT: note_on channel=2 note=62 velocity=96 time=0
EXTRACT: note_on channel=3 note=62 velocity=96 time=0
EXTRACT: note_on channel=6 note=55 velocity=96 time=0
EXTRACT: note_on channel=0 note=69 velocity=0 time=0.2298074625
EXTRACT: note_on channel=1 note=67 velocity=0 time=0
EXTRACT: note_on channel=2 note=62 velocity=0 time=0
EXTRACT: note_on channel=3 note=62 velocity=0 time=0
EXTRACT: note_on channel=4 note=71 velocity=0 time=0
EXTRACT: note_on channel=5 note=59 velocity=0 time=0
EXTRACT: note_on channel=6 note=55 velocity=0 time=0
EXTRACT: note_on channel=0 note=72 velocity=80 time=0.0009615375
EXTRACT: note_on channel=1 note=67 velocity=96 time=0
EXTRACT: note_on channel=2 note=62 velocity=96 time=0
EXTRACT: note_on channel=3 note=62 velocity=96 time=0
EXTRACT: note_on channel=4 note=71 velocity=96 time=0
EXTRACT: note_on channel=5 note=59 velocity=96 time=0
EXTRACT: note_on channel=6 note=55 velocity=96 time=0
EXTRACT: note_on channel=0 note=72 velocity=0 time=0.2298074625
EXTRACT: note_on channel=1 note=67 velocity=0 time=0
EXTRACT: note_on channel=2 note=62 velocity=0 time=0
EXTRACT: note_on channel=3 note=62 velocity=0 time=0
EXTRACT: note_on channel=0 note=69 velocity=80 time=0.0009615375
EXTRACT: note_on channel=1 note=67 velocity=96 time=0
EXTRACT: note_on channel=2 note=62 velocity=96 time=0
EXTRACT: note_on channel=3 note=60 velocity=96 time=0
EXTRACT: note_on channel=0 note=69 velocity=0 time=0.2298074625
EXTRACT: note_on channel=1 note=67 velocity=0 time=0
EXTRACT: note_on channel=2 note=62 velocity=0 time=0
EXTRACT: note_on channel=3 note=60 velocity=0 time=0
EXTRACT: note_on channel=0 note=72 velocity=80 time=0.0009615375
EXTRACT: note_on channel=1 note=67 velocity=96 time=0
EXTRACT: note_on channel=2 note=62 velocity=96 time=0
EXTRACT: note_on channel=3 note=62 velocity=96 time=0
EXTRACT: note_on channel=0 note=72 velocity=0 time=0.2298074625
EXTRACT: note_on channel=1 note=67 velocity=0 time=0
EXTRACT: note_on channel=2 note=62 velocity=0 time=0
EXTRACT: note_on channel=3 note=62 velocity=0 time=0
EXTRACT: note_on channel=0 note=74 velocity=80 time=0.0009615375
EXTRACT: note_on channel=1 note=69 velocity=96 time=0
EXTRACT: note_on channel=2 note=65 velocity=96 time=0
EXTRACT: note_on channel=3 note=62 velocity=96 time=0
EXTRACT: note_on channel=4 note=71 velocity=0 time=0.2298074625
EXTRACT: note_on channel=5 note=59 velocity=0 time=0
EXTRACT: note_on channel=6 note=55 velocity=0 time=0
EXTRACT: note_on channel=4 note=69 velocity=96 time=0.0009615375
EXTRACT: note_on channel=5 note=60 velocity=96 time=0
EXTRACT: note_on channel=6 note=50 velocity=96 time=0
EXTRACT: note_on channel=0 note=74 velocity=0 time=0.4605764625
EXTRACT: note_on channel=1 note=69 velocity=0 time=0
EXTRACT: note_on channel=2 note=65 velocity=0 time=0
EXTRACT: note_on channel=3 note=62 velocity=0 time=0
EXTRACT: note_on channel=0 note=69 velocity=80 time=0.0009615375
EXTRACT: note_on channel=1 note=65 velocity=96 time=0
EXTRACT: note_on channel=2 note=62 velocity=96 time=0
EXTRACT: note_on channel=3 note=57 velocity=96 time=0
EXTRACT: note_on channel=6 note=50 velocity=0 time=0.2298074625
EXTRACT: note_on channel=6 note=50 velocity=96 time=0.0009615375
EXTRACT: note_on channel=0 note=69 velocity=0 time=0.2298074625
EXTRACT: note_on channel=1 note=65 velocity=0 time=0
EXTRACT: note_on channel=2 note=62 velocity=0 time=0
EXTRACT: note_on channel=3 note=57 velocity=0 time=0
EXTRACT: note_on channel=4 note=69 velocity=0 time=0
EXTRACT: note_on channel=5 note=60 velocity=0 time=0
EXTRACT: note_on channel=4 note=69 velocity=96 time=0.0009615375
EXTRACT: note_on channel=5 note=62 velocity=96 time=0
EXTRACT: note_on channel=0 note=67 velocity=80 time=0.230769
EXTRACT: note_on channel=1 note=65 velocity=96 time=0
EXTRACT: note_on channel=2 note=62 velocity=96 time=0
EXTRACT: note_on channel=0 note=67 velocity=0 time=0.2298074625
EXTRACT: note_on channel=1 note=65 velocity=0 time=0
EXTRACT: note_on channel=2 note=62 velocity=0 time=0
EXTRACT: note_on channel=6 note=50 velocity=0 time=0
EXTRACT: note_on channel=0 note=76 velocity=80 time=0.0009615375
EXTRACT: note_on channel=1 note=69 velocity=96 time=0
EXTRACT: note_on channel=2 note=65 velocity=96 time=0
EXTRACT: note_on channel=6 note=50 velocity=96 time=0
EXTRACT: note_on channel=0 note=76 velocity=0 time=0.2298074625
EXTRACT: note_on channel=1 note=69 velocity=0 time=0
EXTRACT: note_on channel=2 note=65 velocity=0 time=0
EXTRACT: note_on channel=0 note=74 velocity=80 time=0.0009615375
EXTRACT: note_on channel=1 note=69 velocity=96 time=0
EXTRACT: note_on channel=2 note=65 velocity=96 time=0
EXTRACT: note_on channel=4 note=69 velocity=0 time=0.2298074625
EXTRACT: note_on channel=5 note=62 velocity=0 time=0
EXTRACT: note_on channel=4 note=69 velocity=96 time=0.0009615375
EXTRACT: note_on channel=5 note=64 velocity=96 time=0
EXTRACT: note_on channel=6 note=50 velocity=0 time=0.2298074625
EXTRACT: note_on channel=6 note=50 velocity=96 time=0.0009615375
EXTRACT: note_on channel=0 note=74 velocity=0 time=0.2298074625
EXTRACT: note_on channel=1 note=69 velocity=0 time=0
EXTRACT: note_on channel=2 note=65 velocity=0 time=0
EXTRACT: note_on channel=6 note=50 velocity=0 time=0.230769
EXTRACT: note_on channel=6 note=50 velocity=96 time=0.0009615375
EXTRACT: note_on channel=4 note=69 velocity=0 time=0.2298074625
EXTRACT: note_on channel=5 note=64 velocity=0 time=0
EXTRACT: note_on channel=6 note=50 velocity=0 time=0
EXTRACT: note_on channel=4 note=69 velocity=96 time=0.0009615375
EXTRACT: note_on channel=5 note=65 velocity=96 time=0
EXTRACT: note_on channel=6 note=50 velocity=96 time=0
EXTRACT: note_on channel=0 note=77 velocity=80 time=0.461538
EXTRACT: note_on channel=0 note=77 velocity=0 time=0.2298074625
EXTRACT: note_on channel=0 note=76 velocity=80 time=0.0009615375
EXTRACT: note_on channel=0 note=76 velocity=0 time=0.2298074625
EXTRACT: note_on channel=4 note=69 velocity=0 time=0
EXTRACT: note_on channel=5 note=65 velocity=0 time=0
EXTRACT: note_on channel=6 note=50 velocity=0 time=0
EXTRACT: note_on channel=0 note=72 velocity=80 time=0.0009615375
EXTRACT: note_on channel=4 note=65 velocity=96 time=0
EXTRACT: note_on channel=5 note=67 velocity=96 time=0
EXTRACT: note_on channel=6 note=53 velocity=96 time=0
EXTRACT: note_on channel=0 note=72 velocity=0 time=0.2298074625
EXTRACT: note_on channel=0 note=64 velocity=80 time=0.0009615375
EXTRACT: note_on channel=0 note=64 velocity=0 time=0.2298074625
EXTRACT: note_on channel=0 note=65 velocity=80 time=0.0009615375
EXTRACT: note_on channel=0 note=65 velocity=0 time=0.2298074625
EXTRACT: note_on channel=6 note=53 velocity=0 time=0
EXTRACT: note_on channel=0 note=64 velocity=80 time=0.0009615375
EXTRACT: note_on channel=6 note=53 velocity=96 time=0
EXTRACT: note_on channel=0 note=64 velocity=0 time=0.2298074625
EXTRACT: note_on channel=4 note=65 velocity=0 time=0
EXTRACT: note_on channel=5 note=67 velocity=0 time=0
EXTRACT: note_on channel=0 note=65 velocity=80 time=0.0009615375
EXTRACT: note_on channel=4 note=65 velocity=96 time=0
EXTRACT: note_on channel=5 note=69 velocity=96 time=0
EXTRACT: note_on channel=0 note=65 velocity=0 time=0.2298074625
EXTRACT: note_on channel=0 note=64 velocity=80 time=0.0009615375
EXTRACT: note_on channel=0 note=64 velocity=0 time=0.2298074625
EXTRACT: note_on channel=6 note=53 velocity=0 time=0
EXTRACT: note_on channel=0 note=65 velocity=80 time=0.0009615375
EXTRACT: note_on channel=6 note=53 velocity=96 time=0
EXTRACT: note_on channel=0 note=65 velocity=0 time=0.2298074625
EXTRACT: note_on channel=0 note=64 velocity=80 time=0.0009615375
EXTRACT: note_on channel=0 note=64 velocity=0 time=0.2298074625
EXTRACT: note_on channel=4 note=65 velocity=0 time=0
EXTRACT: note_on channel=5 note=69 velocity=0 time=0
EXTRACT: note_on channel=0 note=65 velocity=80 time=0.0009615375
EXTRACT: note_on channel=1 note=65 velocity=96 time=0
EXTRACT: note_on channel=4 note=65 velocity=96 time=0
EXTRACT: note_on channel=5 note=71 velocity=96 time=0
EXTRACT: note_on channel=0 note=65 velocity=0 time=0.2298074625
EXTRACT: note_on channel=1 note=65 velocity=0 time=0
EXTRACT: note_on channel=6 note=53 velocity=0 time=0
EXTRACT: note_on channel=0 note=64 velocity=80 time=0.0009615375
EXTRACT: note_on channel=1 note=64 velocity=96 time=0
EXTRACT: note_on channel=6 note=53 velocity=96 time=0
EXTRACT: note_on channel=0 note=64 velocity=0 time=0.2298074625
EXTRACT: note_on channel=1 note=64 velocity=0 time=0
EXTRACT: note_on channel=0 note=65 velocity=80 time=0.0009615375
EXTRACT: note_on channel=1 note=65 velocity=96 time=0
EXTRACT: note_on channel=2 note=65 velocity=96 time=0
EXTRACT: note_on channel=0 note=65 velocity=0 time=0.2298074625
EXTRACT: note_on channel=1 note=65 velocity=0 time=0
EXTRACT: note_on channel=2 note=65 velocity=0 time=0
EXTRACT: note_on channel=6 note=53 velocity=0 time=0
EXTRACT: note_on channel=0 note=64 velocity=80 time=0.0009615375
EXTRACT: note_on channel=1 note=64 velocity=96 time=0
EXTRACT: note_on channel=2 note=64 velocity=96 time=0
EXTRACT: note_on channel=6 note=53 velocity=96 time=0
EXTRACT: note_on channel=0 note=64 velocity=0 time=0.2298074625
EXTRACT: note_on channel=1 note=64 velocity=0 time=0
EXTRACT: note_on channel=2 note=64 velocity=0 time=0
EXTRACT: note_on channel=4 note=65 velocity=0 time=0
EXTRACT: note_on channel=5 note=71 velocity=0 time=0
EXTRACT: note_on channel=6 note=53 velocity=0 time=0
EXTRACT: note_on channel=0 note=65 velocity=80 time=0.0009615375
EXTRACT: note_on channel=1 note=65 velocity=96 time=0
EXTRACT: note_on channel=2 note=65 velocity=96 time=0
EXTRACT: note_on channel=3 note=65 velocity=96 time=0
EXTRACT: note_on channel=4 note=65 velocity=96 time=0
EXTRACT: note_on channel=5 note=72 velocity=96 time=0
EXTRACT: note_on channel=6 note=53 velocity=96 time=0
EXTRACT: note_on channel=0 note=65 velocity=0 time=0.2298074625
EXTRACT: note_on channel=1 note=65 velocity=0 time=0
EXTRACT: note_on channel=2 note=65 velocity=0 time=0
EXTRACT: note_on channel=3 note=65 velocity=0 time=0
EXTRACT: note_on channel=0 note=64 velocity=80 time=0.0009615375
EXTRACT: note_on channel=1 note=64 velocity=96 time=0
EXTRACT: note_on channel=2 note=64 velocity=96 time=0
EXTRACT: note_on channel=3 note=64 velocity=96 time=0
EXTRACT: note_on channel=0 note=64 velocity=0 time=0.2298074625
EXTRACT: note_on channel=1 note=64 velocity=0 time=0
EXTRACT: note_on channel=2 note=64 velocity=0 time=0
EXTRACT: note_on channel=3 note=64 velocity=0 time=0
EXTRACT: note_on channel=4 note=65 velocity=0 time=0
EXTRACT: note_on channel=5 note=72 velocity=0 time=0
EXTRACT: note_on channel=6 note=53 velocity=0 time=0
EXTRACT: note_on channel=0 note=72 velocity=80 time=0.0009615375
EXTRACT: note_on channel=1 note=67 velocity=96 time=0
EXTRACT: note_on channel=2 note=64 velocity=96 time=0
EXTRACT: note_on channel=3 note=60 velocity=96 time=0
EXTRACT: note_on channel=0 note=72 velocity=0 time=0.4605764625
EXTRACT: note_on channel=1 note=67 velocity=0 time=0
EXTRACT: note_on channel=2 note=64 velocity=0 time=0
EXTRACT: note_on channel=3 note=60 velocity=0 time=0
EXTRACT: note_on channel=6 note=60 velocity=64 time=0.0009615375
EXTRACT: note_on channel=5 note=64 velocity=64 time=0.230769
EXTRACT: note_on channel=1 note=62 velocity=64 time=0.230769
EXTRACT: note_on channel=2 note=74 velocity=64 time=0
EXTRACT: note_on channel=1 note=62 velocity=0 time=0.2298074625
EXTRACT: note_on channel=4 note=67 velocity=64 time=0.0009615375
EXTRACT: note_on channel=3 note=72 velocity=64 time=0.230769
EXTRACT: note_on channel=2 note=74 velocity=0 time=0.2298074625
EXTRACT: note_on channel=1 note=62 velocity=64 time=0.0009615375
EXTRACT: note_on channel=2 note=74 velocity=64 time=0
EXTRACT: note_on channel=1 note=62 velocity=0 time=0.2298074625
EXTRACT: note_on channel=4 note=67 velocity=0 time=0
EXTRACT: note_on channel=4 note=67 velocity=64 time=0.0009615375
EXTRACT: note_on channel=2 note=74 velocity=0 time=0.2298074625
EXTRACT: note_on channel=2 note=74 velocity=64 time=0.0009615375
EXTRACT: note_on channel=2 note=74 velocity=0 time=0.2298074625
EXTRACT: note_on channel=3 note=72 velocity=0 time=0
EXTRACT: note_on channel=4 note=67 velocity=0 time=0
EXTRACT: note_on channel=5 note=64 velocity=0 time=0
EXTRACT: note_on channel=6 note=60 velocity=0 time=0
EXTRACT: note_on channel=6 note=60 velocity=64 time=0.0009615375
EXTRACT: note_on channel=0 note=64 velocity=80 time=0.230769
EXTRACT: note_on channel=5 note=64 velocity=64 time=0
EXTRACT: note_on channel=0 note=64 velocity=0 time=0.2298074625
EXTRACT: note_on channel=0 note=65 velocity=80 time=0.0009615375
EXTRACT: note_on channel=1 note=62 velocity=64 time=0
EXTRACT: note_on channel=2 note=74 velocity=64 time=0
EXTRACT: note_on channel=0 note=65 velocity=0 time=0.2298074625
EXTRACT: note_on channel=1 note=62 velocity=0 time=0
EXTRACT: note_on channel=0 note=64 velocity=80 time=0.0009615375
EXTRACT: note_on channel=4 note=67 velocity=64 time=0
EXTRACT: note_on channel=0 note=64 velocity=0 time=0.2298074625
EXTRACT: note_on channel=0 note=65 velocity=80 time=0.0009615375
EXTRACT: note_on channel=3 note=72 velocity=64 time=0
EXTRACT: note_on channel=0 note=65 velocity=0 time=0.2298074625
EXTRACT: note_on channel=2 note=74 velocity=0 time=0
EXTRACT: note_on channel=0 note=64 velocity=80 time=0.0009615375
EXTRACT: note_on channel=1 note=62 velocity=64 time=0
EXTRACT: note_on channel=2 note=74 velocity=64 time=0
EXTRACT: note_on channel=0 note=64 velocity=0 time=0.2298074625
EXTRACT: note_on channel=1 note=62 velocity=0 time=0
EXTRACT: note_on channel=4 note=67 velocity=0 time=0
EXTRACT: note_on channel=0 note=74 velocity=80 time=0.0009615375
EXTRACT: note_on channel=4 note=67 velocity=64 time=0
EXTRACT: note_on channel=0 note=74 velocity=0 time=0.1144229625
EXTRACT: note_on channel=0 note=76 velocity=80 time=0.0009615375
EXTRACT: note_on channel=0 note=76 velocity=0 time=0.1144229625
EXTRACT: note_on channel=2 note=74 velocity=0 time=0
EXTRACT: note_on channel=0 note=74 velocity=80 time=0.0009615375
EXTRACT: note_on channel=2 note=74 velocity=64 time=0
EXTRACT: note_on channel=0 note=74 velocity=0 time=0.2298074625
EXTRACT: note_on channel=2 note=74 velocity=0 time=0
EXTRACT: note_on channel=3 note=72 velocity=0 time=0
EXTRACT: note_on channel=4 note=67 velocity=0 time=0
EXTRACT: note_on channel=5 note=64 velocity=0 time=0
EXTRACT: note_on channel=6 note=60 velocity=0 time=0
EXTRACT: note_on channel=6 note=59 velocity=64 time=0.0009615375
EXTRACT: note_on channel=5 note=62 velocity=64 time=0.230769
EXTRACT: note_on channel=1 note=62 velocity=64 time=0.230769
EXTRACT: note_on channel=2 note=74 velocity=64 time=0
EXTRACT: note_on channel=1 note=62 velocity=0 time=0.2298074625
EXTRACT: note_on channel=4 note=67 velocity=64 time=0.0009615375
EXTRACT: note_on channel=3 note=72 velocity=64 time=0.230769
EXTRACT: note_on channel=2 note=74 velocity=0 time=0.2298074625
EXTRACT: note_on channel=1 note=62 velocity=64 time=0.0009615375
EXTRACT: note_on channel=2 note=74 velocity=64 time=0
EXTRACT: note_on channel=1 note=62 velocity=0 time=0.2298074625
EXTRACT: note_on channel=4 note=67 velocity=0 time=0
EXTRACT: note_on channel=4 note=67 velocity=64 time=0.0009615375
EXTRACT: note_on channel=2 note=74 velocity=0 time=0.2298074625
EXTRACT: note_on channel=2 note=74 velocity=64 time=0.0009615375
EXTRACT: note_on channel=2 note=74 velocity=0 time=0.2298074625
EXTRACT: note_on channel=3 note=72 velocity=0 time=0
EXTRACT: note_on channel=4 note=67 velocity=0 time=0
EXTRACT: note_on channel=5 note=62 velocity=0 time=0
EXTRACT: note_on channel=6 note=59 velocity=0 time=0
EXTRACT: note_on channel=6 note=59 velocity=64 time=0.0009615375
EXTRACT: note_on channel=0 note=64 velocity=80 time=0.230769
EXTRACT: note_on channel=5 note=62 velocity=64 time=0
EXTRACT: note_on channel=0 note=64 velocity=0 time=0.2298074625
EXTRACT: note_on channel=0 note=65 velocity=80 time=0.0009615375
EXTRACT: note_on channel=1 note=62 velocity=64 time=0
EXTRACT: note_on channel=2 note=74 velocity=64 time=0
EXTRACT: note_on channel=0 note=65 velocity=0 time=0.2298074625
EXTRACT: note_on channel=1 note=62 velocity=0 time=0
EXTRACT: note_on channel=0 note=64 velocity=80 time=0.0009615375
EXTRACT: note_on channel=4 note=67 velocity=64 time=0
EXTRACT: note_on channel=0 note=64 velocity=0 time=0.2298074625
EXTRACT: note_on channel=0 note=65 velocity=80 time=0.0009615375
EXTRACT: note_on channel=3 note=72 velocity=64 time=0
EXTRACT: note_on channel=0 note=65 velocity=0 time=0.2298074625
EXTRACT: note_on channel=2 note=74 velocity=0 time=0
EXTRACT: note_on channel=0 note=64 velocity=80 time=0.0009615375
EXTRACT: note_on channel=1 note=62 velocity=64 time=0
EXTRACT: note_on channel=2 note=74 velocity=64 time=0
EXTRACT: note_on channel=0 note=64 velocity=0 time=0.2298074625
EXTRACT: note_on channel=1 note=62 velocity=0 time=0
EXTRACT: note_on channel=4 note=67 velocity=0 time=0
EXTRACT: note_on channel=0 note=74 velocity=80 time=0.0009615375
EXTRACT: note_on channel=4 note=67 velocity=64 time=0
EXTRACT: note_on channel=0 note=74 velocity=0 time=0.1144229625
EXTRACT: note_on channel=0 note=76 velocity=80 time=0.0009615375
EXTRACT: note_on channel=0 note=76 velocity=0 time=0.1144229625
EXTRACT: note_on channel=2 note=74 velocity=0 time=0
EXTRACT: note_on channel=0 note=74 velocity=80 time=0.0009615375
EXTRACT: note_on channel=2 note=74 velocity=64 time=0
EXTRACT: note_on channel=0 note=74 velocity=0 time=0.2298074625
EXTRACT: note_on channel=2 note=74 velocity=0 time=0
EXTRACT: note_on channel=3 note=72 velocity=0 time=0
EXTRACT: note_on channel=4 note=67 velocity=0 time=0
EXTRACT: note_on channel=5 note=62 velocity=0 time=0
EXTRACT: note_on channel=6 note=59 velocity=0 time=0
EXTRACT: note_on channel=6 note=57 velocity=64 time=0.0009615375
EXTRACT: note_on channel=5 note=62 velocity=64 time=0.230769
EXTRACT: note_on channel=1 note=62 velocity=64 time=0.230769
EXTRACT: note_on channel=2 note=74 velocity=64 time=0
EXTRACT: note_on channel=1 note=62 velocity=0 time=0.2298074625
EXTRACT: note_on channel=4 note=65 velocity=64 time=0.0009615375
EXTRACT: note_on channel=3 note=69 velocity=64 time=0.230769
EXTRACT: note_on channel=2 note=74 velocity=0 time=0.2298074625
EXTRACT: note_on channel=1 note=62 velocity=64 time=0.0009615375
EXTRACT: note_on channel=2 note=74 velocity=64 time=0
EXTRACT: note_on channel=1 note=62 velocity=0 time=0.2298074625
EXTRACT: note_on channel=4 note=65 velocity=0 time=0
EXTRACT: note_on channel=4 note=65 velocity=64 time=0.0009615375
EXTRACT: note_on channel=2 note=74 velocity=0 time=0.2298074625
EXTRACT: note_on channel=2 note=74 velocity=64 time=0.0009615375
EXTRACT: note_on channel=2 note=74 velocity=0 time=0.2298074625
EXTRACT: note_on channel=3 note=69 velocity=0 time=0
EXTRACT: note_on channel=4 note=65 velocity=0 time=0
EXTRACT: note_on channel=5 note=62 velocity=0 time=0
EXTRACT: note_on channel=6 note=57 velocity=0 time=0
EXTRACT: note_on channel=6 note=57 velocity=64 time=0.0009615375
EXTRACT: note_on channel=0 note=64 velocity=80 time=0.230769
EXTRACT: note_on channel=5 note=62 velocity=64 time=0
EXTRACT: note_on channel=0 note=64 velocity=0 time=0.2298074625
EXTRACT: note_on channel=0 note=65 velocity=80 time=0.0009615375
EXTRACT: note_on channel=1 note=62 velocity=64 time=0
EXTRACT: note_on channel=2 note=74 velocity=64 time=0
EXTRACT: note_on channel=0 note=65 velocity=0 time=0.2298074625
EXTRACT: note_on channel=1 note=62 velocity=0 time=0
EXTRACT: note_on channel=0 note=64 velocity=80 time=0.0009615375
EXTRACT: note_on channel=4 note=65 velocity=64 time=0
EXTRACT: note_on channel=0 note=64 velocity=0 time=0.2298074625
EXTRACT: note_on channel=0 note=74 velocity=80 time=0.0009615375
EXTRACT: note_on channel=3 note=69 velocity=64 time=0
EXTRACT: note_on channel=0 note=74 velocity=0 time=0.2298074625
EXTRACT: note_on channel=2 note=74 velocity=0 time=0
EXTRACT: note_on channel=0 note=76 velocity=80 time=0.0009615375
EXTRACT: note_on channel=1 note=62 velocity=64 time=0
EXTRACT: note_on channel=2 note=74 velocity=64 time=0
EXTRACT: note_on channel=0 note=76 velocity=0 time=0.2298074625
EXTRACT: note_on channel=1 note=62 velocity=0 time=0
EXTRACT: note_on channel=4 note=65 velocity=0 time=0
EXTRACT: note_on channel=0 note=74 velocity=80 time=0.0009615375
EXTRACT: note_on channel=4 note=65 velocity=64 time=0
EXTRACT: note_on channel=2 note=74 velocity=0 time=0.2298074625
EXTRACT: note_on channel=2 note=74 velocity=64 time=0.0009615375
EXTRACT: note_on channel=0 note=74 velocity=0 time=0.2298074625
EXTRACT: note_on channel=2 note=74 velocity=0 time=0
EXTRACT: note_on channel=3 note=69 velocity=0 time=0
EXTRACT: note_on channel=4 note=65 velocity=0 time=0
EXTRACT: note_on channel=5 note=62 velocity=0 time=0
EXTRACT: note_on channel=6 note=57 velocity=0 time=0
EXTRACT: note_on channel=6 note=53 velocity=64 time=0.0009615375
EXTRACT: note_on channel=5 note=60 velocity=64 time=0.230769
EXTRACT: note_on channel=1 note=62 velocity=64 time=0.230769
EXTRACT: note_on channel=2 note=72 velocity=64 time=0
EXTRACT: note_on channel=1 note=62 velocity=0 time=0.2298074625
EXTRACT: note_on channel=4 note=65 velocity=64 time=0.0009615375
EXTRACT: note_on channel=3 note=69 velocity=64 time=0.230769
EXTRACT: note_on channel=2 note=72 velocity=0 time=0.2298074625
EXTRACT: note_on channel=1 note=62 velocity=64 time=0.0009615375
EXTRACT: note_on channel=2 note=72 velocity=64 time=0
EXTRACT: note_on channel=1 note=62 velocity=0 time=0.2298074625
EXTRACT: note_on channel=4 note=65 velocity=0 time=0
EXTRACT: note_on channel=4 note=65 velocity=64 time=0.0009615375
EXTRACT: note_on channel=2 note=72 velocity=0 time=0.2298074625
EXTRACT: note_on channel=2 note=72 velocity=64 time=0.0009615375
EXTRACT: note_on channel=2 note=72 velocity=0 time=0.2298074625
EXTRACT: note_on channel=3 note=69 velocity=0 time=0
EXTRACT: note_on channel=4 note=65 velocity=0 time=0
EXTRACT: note_on channel=5 note=60 velocity=0 time=0
EXTRACT: note_on channel=6 note=53 velocity=0 time=0
EXTRACT: note_on channel=0 note=55 velocity=80 time=1.8471135375
EXTRACT: note_on channel=1 note=72 velocity=49 time=0
EXTRACT: note_on channel=2 note=67 velocity=49 time=0
EXTRACT: note_on channel=3 note=64 velocity=49 time=0
EXTRACT: note_on channel=4 note=60 velocity=49 time=0
EXTRACT: note_on channel=5 note=60 velocity=49 time=0
EXTRACT: note_on channel=6 note=60 velocity=49 time=0
EXTRACT: note_on channel=0 note=55 velocity=0 time=0.2298074625
EXTRACT: note_on channel=0 note=55 velocity=80 time=0.0009615375
EXTRACT: note_on channel=0 note=55 velocity=0 time=0.2298074625
EXTRACT: note_on channel=0 note=55 velocity=80 time=0.0009615375
EXTRACT: note_on channel=0 note=55 velocity=0 time=0.2298074625
EXTRACT: note_on channel=1 note=72 velocity=0 time=0
EXTRACT: note_on channel=2 note=67 velocity=0 time=0
EXTRACT: note_on channel=3 note=64 velocity=0 time=0
EXTRACT: note_on channel=4 note=60 velocity=0 time=0
EXTRACT: note_on channel=5 note=60 velocity=0 time=0
EXTRACT: note_on channel=0 note=55 velocity=80 time=0.0009615375
EXTRACT: note_on channel=1 note=71 velocity=49 time=0
EXTRACT: note_on channel=2 note=67 velocity=49 time=0
EXTRACT: note_on channel=3 note=64 velocity=49 time=0
EXTRACT: note_on channel=4 note=60 velocity=49 time=0
EXTRACT: note_on channel=5 note=60 velocity=49 time=0
EXTRACT: note_on channel=0 note=55 velocity=0 time=0.2298074625
EXTRACT: note_on channel=0 note=55 velocity=80 time=0.0009615375
EXTRACT: note_on channel=0 note=55 velocity=0 time=0.4605764625
EXTRACT: note_on channel=1 note=71 velocity=0 time=0
EXTRACT: note_on channel=2 note=67 velocity=0 time=0
EXTRACT: note_on channel=3 note=64 velocity=0 time=0
EXTRACT: note_on channel=4 note=60 velocity=0 time=0
EXTRACT: note_on channel=5 note=60 velocity=0 time=0
EXTRACT: note_on channel=0 note=55 velocity=80 time=0.0009615375
EXTRACT: note_on channel=1 note=72 velocity=49 time=0
EXTRACT: note_on channel=2 note=67 velocity=49 time=0
EXTRACT: note_on channel=3 note=64 velocity=49 time=0
EXTRACT: note_on channel=4 note=60 velocity=49 time=0
EXTRACT: note_on channel=5 note=60 velocity=49 time=0
EXTRACT: note_on channel=0 note=55 velocity=0 time=0.2298074625
EXTRACT: note_on channel=0 note=55 velocity=80 time=0.0009615375
EXTRACT: note_on channel=0 note=55 velocity=0 time=0.2298074625
EXTRACT: note_on channel=1 note=72 velocity=0 time=0
EXTRACT: note_on channel=2 note=67 velocity=0 time=0
EXTRACT: note_on channel=3 note=64 velocity=0 time=0
EXTRACT: note_on channel=4 note=60 velocity=0 time=0
EXTRACT: note_on channel=5 note=60 velocity=0 time=0
EXTRACT: note_on channel=0 note=55 velocity=80 time=0.0009615375
EXTRACT: note_on channel=1 note=74 velocity=49 time=0
EXTRACT: note_on channel=2 note=67 velocity=49 time=0
EXTRACT: note_on channel=3 note=62 velocity=49 time=0
EXTRACT: note_on channel=4 note=60 velocity=49 time=0
EXTRACT: note_on channel=5 note=55 velocity=49 time=0
EXTRACT: note_on channel=0 note=55 velocity=0 time=0.2298074625
EXTRACT: note_on channel=0 note=52 velocity=80 time=0.0009615375
EXTRACT: note_on channel=0 note=52 velocity=0 time=0.2298074625
EXTRACT: note_on channel=0 note=55 velocity=80 time=0.0009615375
EXTRACT: note_on channel=0 note=55 velocity=0 time=0.1144229625
EXTRACT: note_on channel=0 note=57 velocity=80 time=0.0009615375
EXTRACT: note_on channel=0 note=57 velocity=0 time=0.1144229625
EXTRACT: note_on channel=1 note=74 velocity=0 time=0
EXTRACT: note_on channel=2 note=67 velocity=0 time=0
EXTRACT: note_on channel=3 note=62 velocity=0 time=0
EXTRACT: note_on channel=4 note=60 velocity=0 time=0
EXTRACT: note_on channel=5 note=55 velocity=0 time=0
EXTRACT: note_on channel=0 note=55 velocity=80 time=0.0009615375
EXTRACT: note_on channel=1 note=72 velocity=49 time=0
EXTRACT: note_on channel=2 note=67 velocity=49 time=0
EXTRACT: note_on channel=3 note=64 velocity=49 time=0
EXTRACT: note_on channel=4 note=60 velocity=49 time=0
EXTRACT: note_on channel=5 note=55 velocity=49 time=0
EXTRACT: note_on channel=0 note=55 velocity=0 time=0.6913454625
EXTRACT: note_on channel=1 note=72 velocity=0 time=0
EXTRACT: note_on channel=2 note=67 velocity=0 time=0
EXTRACT: note_on channel=3 note=64 velocity=0 time=0
EXTRACT: note_on channel=4 note=60 velocity=0 time=0
EXTRACT: note_on channel=5 note=55 velocity=0 time=0
EXTRACT: note_on channel=1 note=67 velocity=49 time=0.0009615375
EXTRACT: note_on channel=2 note=67 velocity=49 time=0
EXTRACT: note_on channel=3 note=64 velocity=49 time=0
EXTRACT: note_on channel=4 note=60 velocity=49 time=0
EXTRACT: note_on channel=5 note=55 velocity=49 time=0
EXTRACT: note_on channel=1 note=67 velocity=0 time=0.4605764625
EXTRACT: note_on channel=2 note=67 velocity=0 time=0
EXTRACT: note_on channel=3 note=64 velocity=0 time=0
EXTRACT: note_on channel=4 note=60 velocity=0 time=0
EXTRACT: note_on channel=5 note=55 velocity=0 time=0
EXTRACT: note_on channel=6 note=60 velocity=0 time=0
EXTRACT: note_on channel=0 note=55 velocity=80 time=0.0009615375
EXTRACT: note_on channel=1 note=72 velocity=49 time=0
EXTRACT: note_on channel=2 note=67 velocity=49 time=0
EXTRACT: note_on channel=3 note=62 velocity=49 time=0
EXTRACT: note_on channel=4 note=59 velocity=49 time=0
EXTRACT: note_on channel=5 note=59 velocity=49 time=0
EXTRACT: note_on channel=6 note=55 velocity=49 time=0
EXTRACT: note_on channel=0 note=55 velocity=0 time=0.2298074625
EXTRACT: note_on channel=0 note=55 velocity=80 time=0.0009615375
EXTRACT: note_on channel=0 note=55 velocity=0 time=0.2298074625
EXTRACT: note_on channel=0 note=55 velocity=80 time=0.0009615375
EXTRACT: note_on channel=1 note=72 velocity=0 time=0.2298074625
EXTRACT: note_on channel=2 note=67 velocity=0 time=0
EXTRACT: note_on channel=3 note=62 velocity=0 time=0
EXTRACT: note_on channel=4 note=59 velocity=0 time=0
EXTRACT: note_on channel=5 note=59 velocity=0 time=0
EXTRACT: note_on channel=1 note=71 velocity=49 time=0.0009615375
EXTRACT: note_on channel=2 note=67 velocity=49 time=0
EXTRACT: note_on channel=3 note=62 velocity=49 time=0
EXTRACT: note_on channel=4 note=59 velocity=49 time=0
EXTRACT: note_on channel=5 note=59 velocity=49 time=0
EXTRACT: note_on channel=0 note=55 velocity=0 time=0.2298074625
EXTRACT: note_on channel=0 note=55 velocity=80 time=0.0009615375
EXTRACT: note_on channel=0 note=55 velocity=0 time=0.4605764625
EXTRACT: note_on channel=1 note=71 velocity=0 time=0
EXTRACT: note_on channel=2 note=67 velocity=0 time=0
EXTRACT: note_on channel=3 note=62 velocity=0 time=0
EXTRACT: note_on channel=4 note=59 velocity=0 time=0
EXTRACT: note_on channel=5 note=59 velocity=0 time=0
EXTRACT: note_on channel=0 note=55 velocity=80 time=0.0009615375
EXTRACT: note_on channel=1 note=72 velocity=49 time=0
EXTRACT: note_on channel=2 note=67 velocity=49 time=0
EXTRACT: note_on channel=3 note=62 velocity=49 time=0
EXTRACT: note_on channel=4 note=59 velocity=49 time=0
EXTRACT: note_on channel=5 note=59 velocity=49 time=0
EXTRACT: note_on channel=0 note=55 velocity=0 time=0.2298074625
EXTRACT: note_on channel=0 note=55 velocity=80 time=0.0009615375
EXTRACT: note_on channel=0 note=55 velocity=0 time=0.2298074625
EXTRACT: note_on channel=1 note=72 velocity=0 time=0
EXTRACT: note_on channel=2 note=67 velocity=0 time=0
EXTRACT: note_on channel=3 note=62 velocity=0 time=0
EXTRACT: note_on channel=4 note=59 velocity=0 time=0
EXTRACT: note_on channel=5 note=59 velocity=0 time=0
EXTRACT: note_on channel=0 note=55 velocity=80 time=0.0009615375
EXTRACT: note_on channel=1 note=74 velocity=49 time=0
EXTRACT: note_on channel=2 note=69 velocity=49 time=0
EXTRACT: note_on channel=3 note=62 velocity=49 time=0
EXTRACT: note_on channel=4 note=59 velocity=49 time=0
EXTRACT: note_on channel=5 note=55 velocity=49 time=0
EXTRACT: note_on channel=0 note=55 velocity=0 time=0.2298074625
EXTRACT: note_on channel=0 note=52 velocity=80 time=0.0009615375
EXTRACT: note_on channel=0 note=52 velocity=0 time=0.2298074625
EXTRACT: note_on channel=0 note=55 velocity=80 time=0.0009615375
EXTRACT: note_on channel=0 note=55 velocity=0 time=0.1144229625
EXTRACT: note_on channel=0 note=57 velocity=80 time=0.0009615375
EXTRACT: note_on channel=0 note=57 velocity=0 time=0.1144229625
EXTRACT: note_on channel=1 note=74 velocity=0 time=0
EXTRACT: note_on channel=2 note=69 velocity=0 time=0
EXTRACT: note_on channel=3 note=62 velocity=0 time=0
EXTRACT: note_on channel=4 note=59 velocity=0 time=0
EXTRACT: note_on channel=5 note=55 velocity=0 time=0
EXTRACT: note_on channel=0 note=55 velocity=80 time=0.0009615375
EXTRACT: note_on channel=1 note=72 velocity=49 time=0
EXTRACT: note_on channel=2 note=67 velocity=49 time=0
EXTRACT: note_on channel=3 note=62 velocity=49 time=0
EXTRACT: note_on channel=4 note=59 velocity=49 time=0
EXTRACT: note_on channel=5 note=55 velocity=49 time=0
EXTRACT: note_on channel=0 note=55 velocity=0 time=0.4605764625
EXTRACT: note_on channel=1 note=72 velocity=0 time=0.230769
EXTRACT: note_on channel=2 note=67 velocity=0 time=0
EXTRACT: note_on channel=3 note=62 velocity=0 time=0
EXTRACT: note_on channel=4 note=59 velocity=0 time=0
EXTRACT: note_on channel=5 note=55 velocity=0 time=0
EXTRACT: note_on channel=0 note=55 velocity=80 time=0.0009615375
EXTRACT: note_on channel=1 note=67 velocity=49 time=0
EXTRACT: note_on channel=2 note=64 velocity=49 time=0
EXTRACT: note_on channel=3 note=62 velocity=49 time=0
EXTRACT: note_on channel=4 note=59 velocity=49 time=0
EXTRACT: note_on channel=5 note=55 velocity=49 time=0
EXTRACT: note_on channel=0 note=55 velocity=0 time=0.2298074625
EXTRACT: note_on channel=0 note=55 velocity=80 time=0.0009615375
EXTRACT: note_on channel=0 note=55 velocity=0 time=0.2298074625
EXTRACT: note_on channel=1 note=67 velocity=0 time=0
EXTRACT: note_on channel=2 note=64 velocity=0 time=0
EXTRACT: note_on channel=3 note=62 velocity=0 time=0
EXTRACT: note_on channel=4 note=59 velocity=0 time=0
EXTRACT: note_on channel=5 note=55 velocity=0 time=0
EXTRACT: note_on channel=6 note=55 velocity=0 time=0
EXTRACT: note_on channel=0 note=55 velocity=80 time=0.0009615375
EXTRACT: note_on channel=1 note=72 velocity=49 time=0
EXTRACT: note_on channel=2 note=69 velocity=49 time=0
EXTRACT: note_on channel=3 note=65 velocity=49 time=0
EXTRACT: note_on channel=4 note=62 velocity=49 time=0
EXTRACT: note_on channel=5 note=57 velocity=49 time=0
EXTRACT: note_on channel=6 note=50 velocity=49 time=0
EXTRACT: note_on channel=0 note=55 velocity=0 time=0.2298074625
EXTRACT: note_on channel=0 note=55 velocity=80 time=0.0009615375
EXTRACT: note_on channel=0 note=55 velocity=0 time=0.2298074625
EXTRACT: note_on channel=0 note=55 velocity=80 time=0.0009615375
EXTRACT: note_on channel=0 note=55 velocity=0 time=0.2298074625
EXTRACT: note_on channel=1 note=72 velocity=0 time=0
EXTRACT: note_on channel=2 note=69 velocity=0 time=0
EXTRACT: note_on channel=3 note=65 velocity=0 time=0
EXTRACT: note_on channel=4 note=62 velocity=0 time=0
EXTRACT: note_on channel=5 note=57 velocity=0 time=0
EXTRACT: note_on channel=0 note=55 velocity=80 time=0.0009615375
EXTRACT: note_on channel=1 note=71 velocity=57 time=0
EXTRACT: note_on channel=2 note=69 velocity=57 time=0
EXTRACT: note_on channel=3 note=65 velocity=57 time=0
EXTRACT: note_on channel=4 note=62 velocity=57 time=0
EXTRACT: note_on channel=5 note=57 velocity=57 time=0
EXTRACT: note_on channel=0 note=55 velocity=0 time=0.2298074625
EXTRACT: note_on channel=0 note=55 velocity=80 time=0.0009615375
EXTRACT: note_on channel=0 note=55 velocity=0 time=0.4605764625
EXTRACT: note_on channel=1 note=71 velocity=0 time=0
EXTRACT: note_on channel=2 note=69 velocity=0 time=0
EXTRACT: note_on channel=3 note=65 velocity=0 time=0
EXTRACT: note_on channel=4 note=62 velocity=0 time=0
EXTRACT: note_on channel=5 note=57 velocity=0 time=0
EXTRACT: note_on channel=0 note=55 velocity=80 time=0.0009615375
EXTRACT: note_on channel=1 note=72 velocity=66 time=0
EXTRACT: note_on channel=2 note=69 velocity=66 time=0
EXTRACT: note_on channel=3 note=65 velocity=66 time=0
EXTRACT: note_on channel=4 note=62 velocity=66 time=0
EXTRACT: note_on channel=5 note=57 velocity=66 time=0
EXTRACT: note_on channel=0 note=55 velocity=0 time=0.2298074625
EXTRACT: note_on channel=0 note=55 velocity=80 time=0.0009615375
EXTRACT: note_on channel=0 note=55 velocity=0 time=0.2298074625
EXTRACT: note_on channel=1 note=72 velocity=0 time=0
EXTRACT: note_on channel=2 note=69 velocity=0 time=0
EXTRACT: note_on channel=3 note=65 velocity=0 time=0
EXTRACT: note_on channel=4 note=62 velocity=0 time=0
EXTRACT: note_on channel=5 note=57 velocity=0 time=0
EXTRACT: note_on channel=6 note=50 velocity=0 time=0
EXTRACT: note_on channel=0 note=57 velocity=80 time=0.0009615375
EXTRACT: note_on channel=1 note=74 velocity=72 time=0
EXTRACT: note_on channel=2 note=69 velocity=72 time=0
EXTRACT: note_on channel=3 note=66 velocity=72 time=0
EXTRACT: note_on channel=4 note=64 velocity=72 time=0
EXTRACT: note_on channel=5 note=60 velocity=72 time=0
EXTRACT: note_on channel=6 note=54 velocity=72 time=0
EXTRACT: note_on channel=0 note=57 velocity=0 time=0.2298074625
EXTRACT: note_on channel=0 note=57 velocity=80 time=0.0009615375
EXTRACT: note_on channel=0 note=57 velocity=0 time=0.2298074625
EXTRACT: note_on channel=0 note=60 velocity=80 time=0.0009615375
EXTRACT: note_on channel=0 note=60 velocity=0 time=0.2298074625
EXTRACT: note_on channel=1 note=74 velocity=0 time=0
EXTRACT: note_on channel=2 note=69 velocity=0 time=0
EXTRACT: note_on channel=3 note=66 velocity=0 time=0
EXTRACT: note_on channel=4 note=64 velocity=0 time=0
EXTRACT: note_on channel=5 note=60 velocity=0 time=0
EXTRACT: note_on channel=0 note=60 velocity=80 time=0.0009615375
EXTRACT: note_on channel=1 note=72 velocity=81 time=0
EXTRACT: note_on channel=2 note=69 velocity=81 time=0
EXTRACT: note_on channel=3 note=66 velocity=81 time=0
EXTRACT: note_on channel=4 note=64 velocity=81 time=0
EXTRACT: note_on channel=5 note=60 velocity=81 time=0
EXTRACT: note_on channel=0 note=60 velocity=0 time=0.2298074625
EXTRACT: note_on channel=0 note=62 velocity=80 time=0.0009615375
EXTRACT: note_on channel=0 note=62 velocity=0 time=0.2298074625
EXTRACT: note_on channel=0 note=62 velocity=80 time=0.0009615375
EXTRACT: note_on channel=0 note=62 velocity=0 time=0.2298074625
EXTRACT: note_on channel=1 note=72 velocity=0 time=0
EXTRACT: note_on channel=2 note=69 velocity=0 time=0
EXTRACT: note_on channel=3 note=66 velocity=0 time=0
EXTRACT: note_on channel=4 note=64 velocity=0 time=0
EXTRACT: note_on channel=5 note=60 velocity=0 time=0
EXTRACT: note_on channel=0 note=64 velocity=80 time=0.0009615375
EXTRACT: note_on channel=1 note=69 velocity=90 time=0
EXTRACT: note_on channel=2 note=66 velocity=90 time=0
EXTRACT: note_on channel=3 note=64 velocity=90 time=0
EXTRACT: note_on channel=4 note=60 velocity=90 time=0
EXTRACT: note_on channel=5 note=57 velocity=90 time=0
EXTRACT: note_on channel=0 note=64 velocity=0 time=0.4605764625
EXTRACT: note_on channel=1 note=69 velocity=0 time=0
EXTRACT: note_on channel=2 note=66 velocity=0 time=0
EXTRACT: note_on channel=3 note=64 velocity=0 time=0
EXTRACT: note_on channel=4 note=60 velocity=0 time=0
EXTRACT: note_on channel=5 note=57 velocity=0 time=0
EXTRACT: note_on channel=6 note=54 velocity=0 time=0
EXTRACT: note_on channel=0 note=62 velocity=80 time=0.0009615375
EXTRACT: note_on channel=1 note=71 velocity=115 time=0
EXTRACT: note_on channel=2 note=67 velocity=115 time=0
EXTRACT: note_on channel=3 note=67 velocity=115 time=0
EXTRACT: note_on channel=4 note=62 velocity=115 time=0
EXTRACT: note_on channel=5 note=59 velocity=115 time=0
EXTRACT: note_on channel=6 note=55 velocity=115 time=0
EXTRACT: note_on channel=0 note=62 velocity=0 time=0.1144229625
EXTRACT: note_on channel=0 note=64 velocity=80 time=0.0009615375
EXTRACT: note_on channel=0 note=64 velocity=0 time=0.1144229625
EXTRACT: note_on channel=0 note=62 velocity=80 time=0.0009615375
EXTRACT: note_on channel=0 note=62 velocity=0 time=0.1144229625
EXTRACT: note_on channel=0 note=60 velocity=80 time=0.0009615375
EXTRACT: note_on channel=0 note=60 velocity=0 time=0.1144229625
EXTRACT: note_on channel=0 note=57 velocity=80 time=0.0009615375
EXTRACT: note_on channel=1 note=71 velocity=0 time=0.2298074625
EXTRACT: note_on channel=2 note=67 velocity=0 time=0
EXTRACT: note_on channel=3 note=67 velocity=0 time=0
EXTRACT: note_on channel=4 note=62 velocity=0 time=0
EXTRACT: note_on channel=5 note=59 velocity=0 time=0
EXTRACT: note_on channel=6 note=55 velocity=0 time=0
EXTRACT: note_on channel=1 note=72 velocity=115 time=0.0009615375
EXTRACT: note_on channel=2 note=67 velocity=115 time=0
EXTRACT: note_on channel=3 note=67 velocity=115 time=0
EXTRACT: note_on channel=4 note=62 velocity=115 time=0
EXTRACT: note_on channel=5 note=60 velocity=115 time=0
EXTRACT: note_on channel=6 note=55 velocity=115 time=0
EXTRACT: note_on channel=0 note=57 velocity=0 time=0.2298074625
EXTRACT: note_on channel=1 note=72 velocity=0 time=0.461538
EXTRACT: note_on channel=2 note=67 velocity=0 time=0
EXTRACT: note_on channel=3 note=67 velocity=0 time=0
EXTRACT: note_on channel=4 note=62 velocity=0 time=0
EXTRACT: note_on channel=5 note=60 velocity=0 time=0
EXTRACT: note_on channel=6 note=55 velocity=0 time=0
EXTRACT: note_on channel=1 note=74 velocity=115 time=0.0009615375
EXTRACT: note_on channel=2 note=69 velocity=115 time=0
EXTRACT: note_on channel=3 note=67 velocity=115 time=0
EXTRACT: note_on channel=4 note=62 velocity=115 time=0
EXTRACT: note_on channel=5 note=60 velocity=115 time=0
EXTRACT: note_on channel=6 note=57 velocity=115 time=0
EXTRACT: note_on channel=1 note=74 velocity=0 time=1.3836524625
EXTRACT: note_on channel=2 note=69 velocity=0 time=0
EXTRACT: note_on channel=3 note=67 velocity=0 time=0
EXTRACT: note_on channel=4 note=62 velocity=0 time=0
EXTRACT: note_on channel=5 note=60 velocity=0 time=0
EXTRACT: note_on channel=6 note=57 velocity=0 time=0
EXTRACT: note_on channel=0 note=69 velocity=80 time=0.0009615375
EXTRACT: note_on channel=0 note=69 velocity=0 time=0.2298074625
EXTRACT: note_on channel=0 note=67 velocity=80 time=0.0009615375
EXTRACT: note_on channel=0 note=67 velocity=0 time=0.2298074625
EXTRACT: note_on channel=0 note=67 velocity=80 time=0.0009615375
EXTRACT: note_on channel=0 note=67 velocity=0 time=0.4605764625
EXTRACT: note_on channel=1 note=72 velocity=49 time=0.0009615375
EXTRACT: note_on channel=2 note=69 velocity=49 time=0
EXTRACT: note_on channel=3 note=67 velocity=49 time=0
EXTRACT: note_on channel=0 note=76 velocity=80 time=0.461538
EXTRACT: note_on channel=0 note=76 velocity=0 time=0.2298074625
EXTRACT: note_on channel=0 note=79 velocity=80 time=0.0009615375
EXTRACT: note_on channel=0 note=79 velocity=0 time=0.2298074625
EXTRACT: note_on channel=0 note=76 velocity=80 time=0.0009615375
EXTRACT: note_on channel=0 note=76 velocity=0 time=0.4605764625
EXTRACT: note_on channel=0 note=76 velocity=80 time=0.4624995375
EXTRACT: note_on channel=0 note=76 velocity=0 time=0.2298074625
EXTRACT: note_on channel=0 note=79 velocity=80 time=0.0009615375
EXTRACT: note_on channel=0 note=79 velocity=0 time=0.2298074625
EXTRACT: note_on channel=0 note=76 velocity=80 time=0.0009615375
EXTRACT: note_on channel=0 note=76 velocity=0 time=0.4605764625
EXTRACT: note_on channel=0 note=76 velocity=80 time=0.0009615375
EXTRACT: note_on channel=0 note=76 velocity=0 time=0.2298074625
EXTRACT: note_on channel=0 note=79 velocity=80 time=0.0009615375
EXTRACT: note_on channel=0 note=79 velocity=0 time=0.2298074625
EXTRACT: note_on channel=0 note=76 velocity=80 time=0.0009615375
EXTRACT: note_on channel=0 note=76 velocity=0 time=0.4605764625
EXTRACT: note_on channel=1 note=72 velocity=0 time=0
EXTRACT: note_on channel=2 note=69 velocity=0 time=0
EXTRACT: note_on channel=3 note=67 velocity=0 time=0
EXTRACT: note_on channel=1 note=71 velocity=49 time=0.0009615375
EXTRACT: note_on channel=2 note=69 velocity=49 time=0
EXTRACT: note_on channel=3 note=67 velocity=49 time=0
EXTRACT: note_on channel=4 note=62 velocity=96 time=0
EXTRACT: note_on channel=0 note=76 velocity=80 time=0.461538
EXTRACT: note_on channel=0 note=76 velocity=0 time=0.2298074625
EXTRACT: note_on channel=0 note=79 velocity=80 time=0.0009615375
EXTRACT: note_on channel=0 note=79 velocity=0 time=0.2298074625
EXTRACT: note_on channel=0 note=76 velocity=80 time=0.0009615375
EXTRACT: note_on channel=0 note=76 velocity=0 time=0.4605764625
EXTRACT: note_on channel=0 note=67 velocity=80 time=0.0009615375
EXTRACT: note_on channel=0 note=67 velocity=0 time=0.2298074625
EXTRACT: note_on channel=0 note=67 velocity=80 time=0.0009615375
EXTRACT: note_on channel=0 note=67 velocity=0 time=0.2298074625
EXTRACT: note_on channel=1 note=71 velocity=0 time=0
EXTRACT: note_on channel=2 note=69 velocity=0 time=0
EXTRACT: note_on channel=0 note=79 velocity=80 time=0.0009615375
EXTRACT: note_on channel=1 note=74 velocity=49 time=0
EXTRACT: note_on channel=2 note=72 velocity=49 time=0
EXTRACT: note_on channel=0 note=79 velocity=0 time=0.4605764625
EXTRACT: note_on channel=0 note=67 velocity=80 time=0.0009615375
EXTRACT: note_on channel=0 note=67 velocity=0 time=0.2298074625
EXTRACT: note_on channel=0 note=67 velocity=80 time=0.0009615375
EXTRACT: note_on channel=0 note=67 velocity=0 time=0.2298074625
EXTRACT: note_on channel=1 note=74 velocity=0 time=0
EXTRACT: note_on channel=2 note=72 velocity=0 time=0
EXTRACT: note_on channel=0 note=76 velocity=80 time=0.0009615375
EXTRACT: note_on channel=1 note=74 velocity=56 time=0
EXTRACT: note_on channel=2 note=71 velocity=56 time=0
EXTRACT: note_on channel=0 note=76 velocity=0 time=0.2298074625
EXTRACT: note_on channel=0 note=79 velocity=80 time=0.0009615375
EXTRACT: note_on channel=0 note=79 velocity=0 time=0.2298074625
EXTRACT: note_on channel=0 note=76 velocity=80 time=0.0009615375
EXTRACT: note_on channel=0 note=76 velocity=0 time=0.4605764625
EXTRACT: note_on channel=1 note=74 velocity=0 time=0
EXTRACT: note_on channel=2 note=71 velocity=0 time=0
EXTRACT: note_on channel=3 note=67 velocity=0 time=0
EXTRACT: note_on channel=4 note=62 velocity=0 time=0
EXTRACT: note_on channel=1 note=74 velocity=64 time=0.0009615375
EXTRACT: note_on channel=2 note=69 velocity=64 time=0
EXTRACT: note_on channel=3 note=65 velocity=64 time=0
EXTRACT: note_on channel=4 note=64 velocity=64 time=0
EXTRACT: note_on channel=5 note=62 velocity=64 time=0
EXTRACT: note_on channel=6 note=62 velocity=64 time=0
EXTRACT: note_on channel=0 note=76 velocity=80 time=0.461538
EXTRACT: note_on channel=0 note=76 velocity=0 time=0.2298074625
EXTRACT: note_on channel=0 note=79 velocity=80 time=0.0009615375
EXTRACT: note_on channel=0 note=79 velocity=0 time=0.2298074625
EXTRACT: note_on channel=0 note=76 velocity=80 time=0.0009615375
EXTRACT: note_on channel=0 note=76 velocity=0 time=0.2298074625
EXTRACT: note_on channel=0 note=74 velocity=80 time=0.0009615375
EXTRACT: note_on channel=0 note=74 velocity=0 time=0.2298074625
EXTRACT: note_on channel=5 note=62 velocity=0 time=0.461538
EXTRACT: note_on channel=5 note=64 velocity=64 time=0.0009615375
EXTRACT: note_on channel=5 note=64 velocity=0 time=0.2298074625
EXTRACT: note_on channel=5 note=67 velocity=64 time=0.0009615375
EXTRACT: note_on channel=5 note=67 velocity=0 time=0.2298074625
EXTRACT: note_on channel=5 note=64 velocity=64 time=0.0009615375
EXTRACT: note_on channel=5 note=64 velocity=0 time=0.2298074625
EXTRACT: note_on channel=5 note=62 velocity=64 time=0.0009615375
EXTRACT: note_on channel=0 note=67 velocity=80 time=0.692307
EXTRACT: note_on channel=0 note=67 velocity=0 time=0.2298074625
EXTRACT: note_on channel=0 note=67 velocity=80 time=0.0009615375
EXTRACT: note_on channel=0 note=67 velocity=0 time=0.2298074625
EXTRACT: note_on channel=1 note=74 velocity=0 time=0
EXTRACT: note_on channel=2 note=69 velocity=0 time=0
EXTRACT: note_on channel=3 note=65 velocity=0 time=0
EXTRACT: note_on channel=4 note=64 velocity=0 time=0
EXTRACT: note_on channel=5 note=62 velocity=0 time=0
EXTRACT: note_on channel=6 note=62 velocity=0 time=0
EXTRACT: note_on channel=1 note=72 velocity=64 time=0.0009615375
EXTRACT: note_on channel=2 note=69 velocity=64 time=0
EXTRACT: note_on channel=3 note=65 velocity=64 time=0
EXTRACT: note_on channel=4 note=65 velocity=64 time=0
EXTRACT: note_on channel=5 note=64 velocity=64 time=0
EXTRACT: note_on channel=6 note=60 velocity=64 time=0
EXTRACT: note_on channel=0 note=76 velocity=80 time=0.461538
EXTRACT: note_on channel=0 note=76 velocity=0 time=0.2298074625
EXTRACT: note_on channel=0 note=79 velocity=80 time=0.0009615375
EXTRACT: note_on channel=0 note=79 velocity=0 time=0.2298074625
EXTRACT: note_on channel=3 note=65 velocity=0 time=0
EXTRACT: note_on channel=0 note=76 velocity=80 time=0.0009615375
EXTRACT: note_on channel=3 note=67 velocity=64 time=0
EXTRACT: note_on channel=0 note=76 velocity=0 time=0.2298074625
EXTRACT: note_on channel=0 note=74 velocity=80 time=0.0009615375
EXTRACT: note_on channel=0 note=74 velocity=0 time=0.2298074625
EXTRACT: note_on channel=1 note=72 velocity=0 time=0.461538
EXTRACT: note_on channel=2 note=69 velocity=0 time=0
EXTRACT: note_on channel=3 note=67 velocity=0 time=0
EXTRACT: note_on channel=4 note=65 velocity=0 time=0
EXTRACT: note_on channel=5 note=64 velocity=0 time=0
EXTRACT: note_on channel=6 note=60 velocity=0 time=0
EXTRACT: note_on channel=1 note=72 velocity=64 time=0.0009615375
EXTRACT: note_on channel=2 note=69 velocity=64 time=0
EXTRACT: note_on channel=3 note=69 velocity=64 time=0
EXTRACT: note_on channel=4 note=65 velocity=64 time=0
EXTRACT: note_on channel=5 note=64 velocity=64 time=0
EXTRACT: note_on channel=6 note=60 velocity=64 time=0
EXTRACT: note_on channel=3 note=69 velocity=0 time=0.9221144625
EXTRACT: note_on channel=3 note=71 velocity=74 time=0.0009615375
EXTRACT: note_on channel=1 note=72 velocity=0 time=0.2298074625
EXTRACT: note_on channel=2 note=69 velocity=0 time=0
EXTRACT: note_on channel=3 note=71 velocity=0 time=0
EXTRACT: note_on channel=4 note=65 velocity=0 time=0
EXTRACT: note_on channel=5 note=64 velocity=0 time=0
EXTRACT: note_on channel=6 note=60 velocity=0 time=0
EXTRACT: note_on channel=0 note=72 velocity=80 time=0.0009615375
EXTRACT: note_on channel=0 note=72 velocity=0 time=0.4605764625
EXTRACT: note_on channel=0 note=72 velocity=80 time=0.0009615375
EXTRACT: note_on channel=1 note=72 velocity=80 time=0
EXTRACT: note_on channel=2 note=67 velocity=80 time=0
EXTRACT: note_on channel=3 note=64 velocity=80 time=0
EXTRACT: note_on channel=4 note=64 velocity=80 time=0.230769
EXTRACT: note_on channel=5 note=60 velocity=80 time=0
EXTRACT: note_on channel=6 note=60 velocity=80 time=0
EXTRACT: note_on channel=0 note=72 velocity=0 time=0.4605764625
EXTRACT: note_on channel=1 note=72 velocity=0 time=0
EXTRACT: note_on channel=2 note=67 velocity=0 time=0
EXTRACT: note_on channel=3 note=64 velocity=0 time=0
EXTRACT: note_on channel=0 note=67 velocity=80 time=0.0009615375
EXTRACT: note_on channel=1 note=72 velocity=80 time=0
EXTRACT: note_on channel=2 note=67 velocity=80 time=0
EXTRACT: note_on channel=3 note=64 velocity=80 time=0
EXTRACT: note_on channel=6 note=60 velocity=0 time=0.2298074625
EXTRACT: note_on channel=6 note=60 velocity=80 time=0.0009615375
EXTRACT: note_on channel=0 note=67 velocity=0 time=0.2298074625
EXTRACT: note_on channel=4 note=64 velocity=0 time=0
EXTRACT: note_on channel=5 note=60 velocity=0 time=0
EXTRACT: note_on channel=4 note=64 velocity=80 time=0.0009615375
EXTRACT: note_on channel=5 note=60 velocity=80 time=0
EXTRACT: note_on channel=0 note=69 velocity=80 time=0.230769
EXTRACT: note_on channel=0 note=69 velocity=0 time=0.2298074625
EXTRACT: note_on channel=6 note=60 velocity=0 time=0
EXTRACT: note_on channel=0 note=72 velocity=80 time=0.0009615375
EXTRACT: note_on channel=6 note=60 velocity=80 time=0
EXTRACT: note_on channel=0 note=72 velocity=0 time=0.2298074625
EXTRACT: note_on channel=0 note=69 velocity=80 time=0.0009615375
EXTRACT: note_on channel=0 note=69 velocity=0 time=0.2298074625
EXTRACT: note_on channel=4 note=64 velocity=0 time=0
EXTRACT: note_on channel=5 note=60 velocity=0 time=0
EXTRACT: note_on channel=0 note=72 velocity=80 time=0.0009615375
EXTRACT: note_on channel=4 note=64 velocity=80 time=0
EXTRACT: note_on channel=5 note=60 velocity=80 time=0
EXTRACT: note_on channel=0 note=72 velocity=0 time=0.2298074625
EXTRACT: note_on channel=6 note=60 velocity=0 time=0
EXTRACT: note_on channel=0 note=69 velocity=80 time=0.0009615375
EXTRACT: note_on channel=6 note=60 velocity=80 time=0
EXTRACT: note_on channel=0 note=69 velocity=0 time=0.2298074625
EXTRACT: note_on channel=0 note=72 velocity=80 time=0.0009615375
EXTRACT: note_on channel=0 note=72 velocity=0 time=0.2298074625
EXTRACT: note_on channel=6 note=60 velocity=0 time=0
EXTRACT: note_on channel=0 note=69 velocity=80 time=0.0009615375
EXTRACT: note_on channel=6 note=60 velocity=80 time=0
EXTRACT: note_on channel=0 note=69 velocity=0 time=0.2298074625
EXTRACT: note_on channel=4 note=64 velocity=0 time=0
EXTRACT: note_on channel=5 note=60 velocity=0 time=0
EXTRACT: note_on channel=6 note=60 velocity=0 time=0
EXTRACT: note_on channel=0 note=72 velocity=80 time=0.0009615375
EXTRACT: note_on channel=4 note=64 velocity=80 time=0
EXTRACT: note_on channel=5 note=60 velocity=80 time=0
EXTRACT: note_on channel=6 note=60 velocity=80 time=0
EXTRACT: note_on channel=0 note=72 velocity=0 time=0.2298074625
EXTRACT: note_on channel=1 note=72 velocity=0 time=0
EXTRACT: note_on channel=2 note=67 velocity=0 time=0
EXTRACT: note_on channel=3 note=64 velocity=0 time=0
EXTRACT: note_on channel=0 note=72 velocity=80 time=0.0009615375
EXTRACT: note_on channel=0 note=72 velocity=0 time=0.2298074625
EXTRACT: note_on channel=0 note=69 velocity=80 time=0.0009615375
EXTRACT: note_on channel=0 note=69 velocity=0 time=0.2298074625
EXTRACT: note_on channel=0 note=72 velocity=80 time=0.0009615375
EXTRACT: note_on channel=1 note=71 velocity=80 time=0
EXTRACT: note_on channel=2 note=67 velocity=80 time=0
EXTRACT: note_on channel=3 note=62 velocity=80 time=0
EXTRACT: note_on channel=4 note=64 velocity=0 time=0.2298074625
EXTRACT: note_on channel=5 note=60 velocity=0 time=0
EXTRACT: note_on channel=6 note=60 velocity=0 time=0
EXTRACT: note_on channel=4 note=64 velocity=80 time=0.0009615375
EXTRACT: note_on channel=5 note=59 velocity=80 time=0
EXTRACT: note_on channel=6 note=55 velocity=80 time=0
EXTRACT: note_on channel=0 note=72 velocity=0 time=0.4605764625
EXTRACT: note_on channel=1 note=71 velocity=0 time=0
EXTRACT: note_on channel=2 note=67 velocity=0 time=0
EXTRACT: note_on channel=3 note=62 velocity=0 time=0
EXTRACT: note_on channel=0 note=67 velocity=80 time=0.0009615375
EXTRACT: note_on channel=1 note=71 velocity=80 time=0
EXTRACT: note_on channel=2 note=67 velocity=80 time=0
EXTRACT: note_on channel=3 note=62 velocity=80 time=0
EXTRACT: note_on channel=6 note=55 velocity=0 time=0.2298074625
EXTRACT: note_on channel=6 note=55 velocity=80 time=0.0009615375
EXTRACT: note_on channel=0 note=67 velocity=0 time=0.2298074625
EXTRACT: note_on channel=4 note=64 velocity=0 time=0
EXTRACT: note_on channel=5 note=59 velocity=0 time=0
EXTRACT: note_on channel=4 note=64 velocity=80 time=0.0009615375
EXTRACT: note_on channel=5 note=59 velocity=80 time=0
EXTRACT: note_on channel=0 note=69 velocity=80 time=0.230769
EXTRACT: note_on channel=0 note=69 velocity=0 time=0.2298074625
EXTRACT: note_on channel=6 note=55 velocity=0 time=0
EXTRACT: note_on channel=0 note=72 velocity=80 time=0.0009615375
EXTRACT: note_on channel=6 note=55 velocity=80 time=0
EXTRACT: note_on channel=0 note=72 velocity=0 time=0.2298074625
EXTRACT: note_on channel=0 note=69 velocity=80 time=0.0009615375
EXTRACT: note_on channel=0 note=69 velocity=0 time=0.2298074625
EXTRACT: note_on channel=4 note=64 velocity=0 time=0
EXTRACT: note_on channel=5 note=59 velocity=0 time=0
EXTRACT: note_on channel=0 note=72 velocity=80 time=0.0009615375
EXTRACT: note_on channel=4 note=64 velocity=80 time=0
EXTRACT: note_on channel=5 note=59 velocity=80 time=0
EXTRACT: note_on channel=0 note=72 velocity=0 time=0.2298074625
EXTRACT: note_on channel=6 note=55 velocity=0 time=0
EXTRACT: note_on channel=0 note=69 velocity=80 time=0.0009615375
EXTRACT: note_on channel=6 note=55 velocity=80 time=0
EXTRACT: note_on channel=0 note=69 velocity=0 time=0.2298074625
EXTRACT: note_on channel=0 note=72 velocity=80 time=0.0009615375
EXTRACT: note_on channel=0 note=72 velocity=0 time=0.2298074625
EXTRACT: note_on channel=6 note=55 velocity=0 time=0
EXTRACT: note_on channel=0 note=69 velocity=80 time=0.0009615375
EXTRACT: note_on channel=6 note=55 velocity=80 time=0
EXTRACT: note_on channel=0 note=69 velocity=0 time=0.2298074625
EXTRACT: note_on channel=4 note=64 velocity=0 time=0
EXTRACT: note_on channel=5 note=59 velocity=0 time=0
EXTRACT: note_on channel=6 note=55 velocity=0 time=0
EXTRACT: note_on channel=0 note=72 velocity=80 time=0.0009615375
EXTRACT: note_on channel=4 note=64 velocity=80 time=0
EXTRACT: note_on channel=5 note=59 velocity=80 time=0
EXTRACT: note_on channel=6 note=55 velocity=80 time=0
EXTRACT: note_on channel=0 note=72 velocity=0 time=0.2298074625
EXTRACT: note_on channel=1 note=71 velocity=0 time=0
EXTRACT: note_on channel=2 note=67 velocity=0 time=0
EXTRACT: note_on channel=3 note=62 velocity=0 time=0
EXTRACT: note_on channel=0 note=69 velocity=80 time=0.0009615375
EXTRACT: note_on channel=1 note=71 velocity=80 time=0
EXTRACT: note_on channel=2 note=67 velocity=80 time=0
EXTRACT: note_on channel=3 note=62 velocity=80 time=0
EXTRACT: note_on channel=0 note=69 velocity=0 time=0.2298074625
EXTRACT: note_on channel=1 note=71 velocity=0 time=0
EXTRACT: note_on channel=2 note=67 velocity=0 time=0
EXTRACT: note_on channel=3 note=62 velocity=0 time=0
EXTRACT: note_on channel=0 note=72 velocity=80 time=0.0009615375
EXTRACT: note_on channel=1 note=71 velocity=80 time=0
EXTRACT: note_on channel=2 note=67 velocity=80 time=0
EXTRACT: note_on channel=3 note=62 velocity=80 time=0
EXTRACT: note_on channel=0 note=72 velocity=0 time=0.2298074625
EXTRACT: note_on channel=1 note=71 velocity=0 time=0
EXTRACT: note_on channel=2 note=67 velocity=0 time=0
EXTRACT: note_on channel=3 note=62 velocity=0 time=0
EXTRACT: note_on channel=0 note=74 velocity=80 time=0.0009615375
EXTRACT: note_on channel=1 note=69 velocity=80 time=0
EXTRACT: note_on channel=2 note=65 velocity=80 time=0
EXTRACT: note_on channel=3 note=62 velocity=80 time=0
EXTRACT: note_on channel=4 note=64 velocity=0 time=0.2298074625
EXTRACT: note_on channel=5 note=59 velocity=0 time=0
EXTRACT: note_on channel=6 note=55 velocity=0 time=0
EXTRACT: note_on channel=4 note=65 velocity=80 time=0.0009615375
EXTRACT: note_on channel=5 note=57 velocity=80 time=0
EXTRACT: note_on channel=6 note=50 velocity=80 time=0
EXTRACT: note_on channel=0 note=74 velocity=0 time=0.4605764625
EXTRACT: note_on channel=0 note=69 velocity=80 time=0.0009615375
EXTRACT: note_on channel=6 note=50 velocity=0 time=0.2298074625
EXTRACT: note_on channel=6 note=50 velocity=80 time=0.0009615375
EXTRACT: note_on channel=0 note=69 velocity=0 time=0.2298074625
EXTRACT: note_on channel=4 note=65 velocity=0 time=0
EXTRACT: note_on channel=5 note=57 velocity=0 time=0
EXTRACT: note_on channel=4 note=65 velocity=80 time=0.0009615375
EXTRACT: note_on channel=5 note=57 velocity=80 time=0
EXTRACT: note_on channel=0 note=67 velocity=80 time=0.230769
EXTRACT: note_on channel=0 note=67 velocity=0 time=0.2298074625
EXTRACT: note_on channel=6 note=50 velocity=0 time=0
EXTRACT: note_on channel=0 note=76 velocity=80 time=0.0009615375
EXTRACT: note_on channel=6 note=50 velocity=80 time=0
EXTRACT: note_on channel=0 note=76 velocity=0 time=0.2298074625
EXTRACT: note_on channel=0 note=74 velocity=80 time=0.0009615375
EXTRACT: note_on channel=4 note=65 velocity=0 time=0.2298074625
EXTRACT: note_on channel=5 note=57 velocity=0 time=0
EXTRACT: note_on channel=4 note=65 velocity=80 time=0.0009615375
EXTRACT: note_on channel=5 note=57 velocity=80 time=0
EXTRACT: note_on channel=6 note=50 velocity=0 time=0.2298074625
EXTRACT: note_on channel=6 note=50 velocity=80 time=0.0009615375
EXTRACT: note_on channel=0 note=74 velocity=0 time=0.2298074625
EXTRACT: note_on channel=6 note=50 velocity=0 time=0.230769
EXTRACT: note_on channel=6 note=50 velocity=80 time=0.0009615375
EXTRACT: note_on channel=4 note=65 velocity=0 time=0.2298074625
EXTRACT: note_on channel=5 note=57 velocity=0 time=0
EXTRACT: note_on channel=6 note=50 velocity=0 time=0
EXTRACT: note_on channel=4 note=65 velocity=80 time=0.0009615375
EXTRACT: note_on channel=5 note=57 velocity=80 time=0
EXTRACT: note_on channel=6 note=50 velocity=80 time=0
EXTRACT: note_on channel=1 note=69 velocity=0 time=0.4605764625
EXTRACT: note_on channel=2 note=65 velocity=0 time=0
EXTRACT: note_on channel=3 note=62 velocity=0 time=0
EXTRACT: note_on channel=0 note=77 velocity=80 time=0.0009615375
EXTRACT: note_on channel=0 note=77 velocity=0 time=0.2298074625
EXTRACT: note_on channel=0 note=76 velocity=80 time=0.0009615375
EXTRACT: note_on channel=0 note=76 velocity=0 time=0.2298074625
EXTRACT: note_on channel=4 note=65 velocity=0 time=0
EXTRACT: note_on channel=5 note=57 velocity=0 time=0
EXTRACT: note_on channel=6 note=50 velocity=0 time=0
EXTRACT: note_on channel=0 note=72 velocity=80 time=0.0009615375
EXTRACT: note_on channel=1 note=72 velocity=80 time=0
EXTRACT: note_on channel=2 note=69 velocity=80 time=0
EXTRACT: note_on channel=3 note=65 velocity=80 time=0
EXTRACT: note_on channel=4 note=65 velocity=80 time=0
EXTRACT: note_on channel=5 note=57 velocity=80 time=0
EXTRACT: note_on channel=6 note=53 velocity=80 time=0
EXTRACT: note_on channel=0 note=72 velocity=0 time=0.2298074625
EXTRACT: note_on channel=0 note=64 velocity=80 time=0.0009615375
EXTRACT: note_on channel=0 note=64 velocity=0 time=0.2298074625
EXTRACT: note_on channel=0 note=65 velocity=80 time=0.0009615375
EXTRACT: note_on channel=0 note=65 velocity=0 time=0.2298074625
EXTRACT: note_on channel=6 note=53 velocity=0 time=0
EXTRACT: note_on channel=0 note=64 velocity=80 time=0.0009615375
EXTRACT: note_on channel=6 note=53 velocity=80 time=0
EXTRACT: note_on channel=0 note=64 velocity=0 time=0.2298074625
EXTRACT: note_on channel=4 note=65 velocity=0 time=0
EXTRACT: note_on channel=5 note=57 velocity=0 time=0
EXTRACT: note_on channel=0 note=65 velocity=80 time=0.0009615375
EXTRACT: note_on channel=4 note=65 velocity=88 time=0
EXTRACT: note_on channel=5 note=57 velocity=88 time=0
EXTRACT: note_on channel=0 note=65 velocity=0 time=0.2298074625
EXTRACT: note_on channel=0 note=64 velocity=80 time=0.0009615375
EXTRACT: note_on channel=0 note=64 velocity=0 time=0.2298074625
EXTRACT: note_on channel=6 note=53 velocity=0 time=0
EXTRACT: note_on channel=0 note=65 velocity=80 time=0.0009615375
EXTRACT: note_on channel=6 note=53 velocity=80 time=0
EXTRACT: note_on channel=0 note=65 velocity=0 time=0.2298074625
EXTRACT: note_on channel=0 note=64 velocity=80 time=0.0009615375
EXTRACT: note_on channel=0 note=64 velocity=0 time=0.2298074625
EXTRACT: note_on channel=4 note=65 velocity=0 time=0
EXTRACT: note_on channel=5 note=57 velocity=0 time=0
EXTRACT: note_on channel=0 note=65 velocity=80 time=0.0009615375
EXTRACT: note_on channel=4 note=65 velocity=96 time=0
EXTRACT: note_on channel=5 note=57 velocity=96 time=0
EXTRACT: note_on channel=0 note=65 velocity=0 time=0.2298074625
EXTRACT: note_on channel=6 note=53 velocity=0 time=0
EXTRACT: note_on channel=0 note=64 velocity=80 time=0.0009615375
EXTRACT: note_on channel=6 note=53 velocity=80 time=0
EXTRACT: note_on channel=0 note=64 velocity=0 time=0.2298074625
EXTRACT: note_on channel=0 note=72 velocity=80 time=0.0009615375
EXTRACT: note_on channel=6 note=53 velocity=0 time=0.2298074625
EXTRACT: note_on channel=6 note=53 velocity=80 time=0.0009615375
EXTRACT: note_on channel=0 note=72 velocity=0 time=0.2298074625
EXTRACT: note_on channel=1 note=72 velocity=0 time=0
EXTRACT: note_on channel=2 note=69 velocity=0 time=0
EXTRACT: note_on channel=3 note=65 velocity=0 time=0
EXTRACT: note_on channel=4 note=65 velocity=0 time=0
EXTRACT: note_on channel=5 note=57 velocity=0 time=0
EXTRACT: note_on channel=6 note=53 velocity=0 time=0
EXTRACT: note_on channel=6 note=53 velocity=80 time=0.0009615375
EXTRACT: note_on channel=6 note=53 velocity=0 time=0.2298074625
EXTRACT: note_on channel=0 note=72 velocity=80 time=0.0009615375
EXTRACT: note_on channel=1 note=67 velocity=96 time=0
EXTRACT: note_on channel=2 note=64 velocity=96 time=0
EXTRACT: note_on channel=0 note=72 velocity=0 time=0.4605764625
EXTRACT: note_on channel=1 note=67 velocity=0 time=0
EXTRACT: note_on channel=2 note=64 velocity=0 time=0
EXTRACT: note_on channel=0 note=72 velocity=80 time=0.0009615375
EXTRACT: note_on channel=1 note=67 velocity=96 time=0
EXTRACT: note_on channel=2 note=64 velocity=96 time=0
EXTRACT: note_on channel=3 note=60 velocity=96 time=0.230769
EXTRACT: note_on channel=4 note=67 velocity=96 time=0
EXTRACT: note_on channel=5 note=64 velocity=96 time=0
EXTRACT: note_on channel=6 note=60 velocity=96 time=0
EXTRACT: note_on channel=0 note=72 velocity=0 time=0.4605764625
EXTRACT: note_on channel=1 note=67 velocity=0 time=0
EXTRACT: note_on channel=2 note=64 velocity=0 time=0
EXTRACT: note_on channel=0 note=67 velocity=80 time=0.0009615375
EXTRACT: note_on channel=1 note=64 velocity=96 time=0
EXTRACT: note_on channel=2 note=60 velocity=96 time=0
EXTRACT: note_on channel=3 note=60 velocity=0 time=0.2298074625
EXTRACT: note_on channel=6 note=60 velocity=0 time=0
EXTRACT: note_on channel=3 note=60 velocity=96 time=0.0009615375
EXTRACT: note_on channel=6 note=60 velocity=96 time=0
EXTRACT: note_on channel=0 note=67 velocity=0 time=0.2298074625
EXTRACT: note_on channel=1 note=64 velocity=0 time=0
EXTRACT: note_on channel=2 note=60 velocity=0 time=0
EXTRACT: note_on channel=3 note=60 velocity=0 time=0
EXTRACT: note_on channel=4 note=67 velocity=0 time=0
EXTRACT: note_on channel=5 note=64 velocity=0 time=0
EXTRACT: note_on channel=3 note=60 velocity=96 time=0.0009615375
EXTRACT: note_on channel=4 note=67 velocity=96 time=0
EXTRACT: note_on channel=5 note=64 velocity=96 time=0
EXTRACT: note_on channel=3 note=60 velocity=0 time=0.2298074625
EXTRACT: note_on channel=0 note=69 velocity=80 time=0.0009615375
EXTRACT: note_on channel=1 note=67 velocity=96 time=0
EXTRACT: note_on channel=2 note=64 velocity=96 time=0
EXTRACT: note_on channel=3 note=60 velocity=96 time=0
EXTRACT: note_on channel=0 note=69 velocity=0 time=0.2298074625
EXTRACT: note_on channel=1 note=67 velocity=0 time=0
EXTRACT: note_on channel=2 note=64 velocity=0 time=0
EXTRACT: note_on channel=3 note=60 velocity=0 time=0
EXTRACT: note_on channel=6 note=60 velocity=0 time=0
EXTRACT: note_on channel=0 note=72 velocity=80 time=0.0009615375
EXTRACT: note_on channel=1 note=67 velocity=96 time=0
EXTRACT: note_on channel=2 note=64 velocity=96 time=0
EXTRACT: note_on channel=3 note=60 velocity=96 time=0
EXTRACT: note_on channel=6 note=60 velocity=96 time=0
EXTRACT: note_on channel=0 note=72 velocity=0 time=0.2298074625
EXTRACT: note_on channel=1 note=67 velocity=0 time=0
EXTRACT: note_on channel=2 note=64 velocity=0 time=0
EXTRACT: note_on channel=3 note=60 velocity=0 time=0
EXTRACT: note_on channel=0 note=69 velocity=80 time=0.0009615375
EXTRACT: note_on channel=1 note=67 velocity=96 time=0
EXTRACT: note_on channel=2 note=64 velocity=96 time=0
EXTRACT: note_on channel=3 note=60 velocity=96 time=0
EXTRACT: note_on channel=0 note=69 velocity=0 time=0.2298074625
EXTRACT: note_on channel=1 note=67 velocity=0 time=0
EXTRACT: note_on channel=2 note=64 velocity=0 time=0
EXTRACT: note_on channel=3 note=60 velocity=0 time=0
EXTRACT: note_on channel=4 note=67 velocity=0 time=0
EXTRACT: note_on channel=5 note=64 velocity=0 time=0
EXTRACT: note_on channel=0 note=72 velocity=80 time=0.0009615375
EXTRACT: note_on channel=1 note=67 velocity=96 time=0
EXTRACT: note_on channel=2 note=64 velocity=96 time=0
EXTRACT: note_on channel=3 note=62 velocity=96 time=0
EXTRACT: note_on channel=4 note=67 velocity=96 time=0
EXTRACT: note_on channel=5 note=64 velocity=96 time=0
EXTRACT: note_on channel=0 note=72 velocity=0 time=0.2298074625
EXTRACT: note_on channel=1 note=67 velocity=0 time=0
EXTRACT: note_on channel=2 note=64 velocity=0 time=0
EXTRACT: note_on channel=6 note=60 velocity=0 time=0
EXTRACT: note_on channel=0 note=69 velocity=80 time=0.0009615375
EXTRACT: note_on channel=1 note=67 velocity=96 time=0
EXTRACT: note_on channel=2 note=64 velocity=96 time=0
EXTRACT: note_on channel=6 note=60 velocity=96 time=0
EXTRACT: note_on channel=0 note=69 velocity=0 time=0.2298074625
EXTRACT: note_on channel=1 note=67 velocity=0 time=0
EXTRACT: note_on channel=2 note=64 velocity=0 time=0
EXTRACT: note_on channel=0 note=72 velocity=80 time=0.0009615375
EXTRACT: note_on channel=1 note=67 velocity=96 time=0
EXTRACT: note_on channel=2 note=64 velocity=96 time=0
EXTRACT: note_on channel=0 note=72 velocity=0 time=0.2298074625
EXTRACT: note_on channel=1 note=67 velocity=0 time=0
EXTRACT: note_on channel=2 note=64 velocity=0 time=0
EXTRACT: note_on channel=3 note=62 velocity=0 time=0
EXTRACT: note_on channel=6 note=60 velocity=0 time=0
EXTRACT: note_on channel=0 note=69 velocity=80 time=0.0009615375
EXTRACT: note_on channel=1 note=67 velocity=96 time=0
EXTRACT: note_on channel=2 note=64 velocity=96 time=0
EXTRACT: note_on channel=3 note=64 velocity=96 time=0
EXTRACT: note_on channel=6 note=60 velocity=96 time=0
EXTRACT: note_on channel=0 note=69 velocity=0 time=0.2298074625
EXTRACT: note_on channel=1 note=67 velocity=0 time=0
EXTRACT: note_on channel=2 note=64 velocity=0 time=0
EXTRACT: note_on channel=3 note=64 velocity=0 time=0
EXTRACT: note_on channel=4 note=67 velocity=0 time=0
EXTRACT: note_on channel=5 note=64 velocity=0 time=0
EXTRACT: note_on channel=6 note=60 velocity=0 time=0
EXTRACT: note_on channel=0 note=72 velocity=80 time=0.0009615375
EXTRACT: note_on channel=1 note=67 velocity=96 time=0
EXTRACT: note_on channel=2 note=64 velocity=96 time=0
EXTRACT: note_on channel=3 note=64 velocity=96 time=0
EXTRACT: note_on channel=4 note=67 velocity=96 time=0
EXTRACT: note_on channel=5 note=64 velocity=96 time=0
EXTRACT: note_on channel=6 note=60 velocity=96 time=0
EXTRACT: note_on channel=0 note=72 velocity=0 time=0.2298074625
EXTRACT: note_on channel=1 note=67 velocity=0 time=0
EXTRACT: note_on channel=2 note=64 velocity=0 time=0
EXTRACT: note_on channel=0 note=72 velocity=80 time=0.0009615375
EXTRACT: note_on channel=1 note=67 velocity=96 time=0
EXTRACT: note_on channel=2 note=64 velocity=96 time=0
EXTRACT: note_on channel=0 note=72 velocity=0 time=0.2298074625
EXTRACT: note_on channel=1 note=67 velocity=0 time=0
EXTRACT: note_on channel=2 note=64 velocity=0 time=0
EXTRACT: note_on channel=3 note=64 velocity=0 time=0
EXTRACT: note_on channel=0 note=69 velocity=80 time=0.0009615375
EXTRACT: note_on channel=1 note=67 velocity=96 time=0
EXTRACT: note_on channel=2 note=64 velocity=96 time=0
EXTRACT: note_on channel=0 note=69 velocity=0 time=0.2298074625
EXTRACT: note_on channel=1 note=67 velocity=0 time=0
EXTRACT: note_on channel=2 note=64 velocity=0 time=0
EXTRACT: note_on channel=0 note=72 velocity=80 time=0.0009615375
EXTRACT: note_on channel=1 note=67 velocity=96 time=0
EXTRACT: note_on channel=2 note=62 velocity=96 time=0
EXTRACT: note_on channel=3 note=55 velocity=96 time=0
EXTRACT: note_on channel=3 note=55 velocity=0 time=0.2298074625
EXTRACT: note_on channel=4 note=67 velocity=0 time=0
EXTRACT: note_on channel=5 note=64 velocity=0 time=0
EXTRACT: note_on channel=6 note=60 velocity=0 time=0
EXTRACT: note_on channel=3 note=59 velocity=96 time=0.0009615375
EXTRACT: note_on channel=4 note=71 velocity=96 time=0
EXTRACT: note_on channel=5 note=62 velocity=96 time=0
EXTRACT: note_on channel=6 note=55 velocity=96 time=0
EXTRACT: note_on channel=0 note=72 velocity=0 time=0.4605764625
EXTRACT: note_on channel=1 note=67 velocity=0 time=0
EXTRACT: note_on channel=2 note=62 velocity=0 time=0
EXTRACT: note_on channel=0 note=67 velocity=80 time=0.0009615375
EXTRACT: note_on channel=1 note=67 velocity=96 time=0
EXTRACT: note_on channel=2 note=62 velocity=96 time=0
EXTRACT: note_on channel=3 note=59 velocity=0 time=0.2298074625
EXTRACT: note_on channel=6 note=55 velocity=0 time=0
EXTRACT: note_on channel=3 note=59 velocity=96 time=0.0009615375
EXTRACT: note_on channel=6 note=55 velocity=96 time=0
EXTRACT: note_on channel=0 note=67 velocity=0 time=0.2298074625
EXTRACT: note_on channel=1 note=67 velocity=0 time=0
EXTRACT: note_on channel=2 note=62 velocity=0 time=0
EXTRACT: note_on channel=3 note=59 velocity=0 time=0
EXTRACT: note_on channel=4 note=71 velocity=0 time=0
EXTRACT: note_on channel=5 note=62 velocity=0 time=0
EXTRACT: note_on channel=3 note=59 velocity=96 time=0.0009615375
EXTRACT: note_on channel=4 note=71 velocity=96 time=0
EXTRACT: note_on channel=5 note=62 velocity=96 time=0
EXTRACT: note_on channel=0 note=69 velocity=80 time=0.230769
EXTRACT: note_on channel=1 note=67 velocity=96 time=0
EXTRACT: note_on channel=2 note=62 velocity=96 time=0
EXTRACT: note_on channel=0 note=69 velocity=0 time=0.2298074625
EXTRACT: note_on channel=1 note=67 velocity=0 time=0
EXTRACT: note_on channel=2 note=62 velocity=0 time=0
EXTRACT: note_on channel=6 note=55 velocity=0 time=0
EXTRACT: note_on channel=0 note=72 velocity=80 time=0.0009615375
EXTRACT: note_on channel=1 note=67 velocity=96 time=0
EXTRACT: note_on channel=2 note=62 velocity=96 time=0
EXTRACT: note_on channel=6 note=55 velocity=96 time=0
EXTRACT: note_on channel=0 note=72 velocity=0 time=0.2298074625
EXTRACT: note_on channel=1 note=67 velocity=0 time=0
EXTRACT: note_on channel=2 note=62 velocity=0 time=0
EXTRACT: note_on channel=3 note=59 velocity=0 time=0
EXTRACT: note_on channel=0 note=69 velocity=80 time=0.0009615375
EXTRACT: note_on channel=1 note=67 velocity=96 time=0
EXTRACT: note_on channel=2 note=62 velocity=96 time=0
EXTRACT: note_on channel=3 note=59 velocity=96 time=0
EXTRACT: note_on channel=0 note=69 velocity=0 time=0.2298074625
EXTRACT: note_on channel=1 note=67 velocity=0 time=0
EXTRACT: note_on channel=2 note=62 velocity=0 time=0
EXTRACT: note_on channel=3 note=59 velocity=0 time=0
EXTRACT: note_on channel=4 note=71 velocity=0 time=0
EXTRACT: note_on channel=5 note=62 velocity=0 time=0
EXTRACT: note_on channel=0 note=72 velocity=80 time=0.0009615375
EXTRACT: note_on channel=1 note=67 velocity=96 time=0
EXTRACT: note_on channel=2 note=62 velocity=96 time=0
EXTRACT: note_on channel=3 note=60 velocity=96 time=0
EXTRACT: note_on channel=4 note=71 velocity=96 time=0
EXTRACT: note_on channel=5 note=59 velocity=96 time=0
EXTRACT: note_on channel=0 note=72 velocity=0 time=0.2298074625
EXTRACT: note_on channel=1 note=67 velocity=0 time=0
EXTRACT: note_on channel=2 note=62 velocity=0 time=0
EXTRACT: note_on channel=6 note=55 velocity=0 time=0
EXTRACT: note_on channel=0 note=69 velocity=80 time=0.0009615375
EXTRACT: note_on channel=1 note=67 velocity=96 time=0
EXTRACT: note_on channel=2 note=62 velocity=96 time=0
EXTRACT: note_on channel=6 note=55 velocity=96 time=0
EXTRACT: note_on channel=0 note=69 velocity=0 time=0.2298074625
EXTRACT: note_on channel=1 note=67 velocity=0 time=0
EXTRACT: note_on channel=2 note=62 velocity=0 time=0
EXTRACT: note_on channel=0 note=72 velocity=80 time=0.0009615375
EXTRACT: note_on channel=1 note=67 velocity=96 time=0
EXTRACT: note_on channel=2 note=62 velocity=96 time=0
EXTRACT: note_on channel=0 note=72 velocity=0 time=0.2298074625
EXTRACT: note_on channel=1 note=67 velocity=0 time=0
EXTRACT: note_on channel=2 note=62 velocity=0 time=0
EXTRACT: note_on channel=3 note=60 velocity=0 time=0
EXTRACT: note_on channel=6 note=55 velocity=0 time=0
EXTRACT: note_on channel=0 note=69 velocity=80 time=0.0009615375
EXTRACT: note_on channel=1 note=67 velocity=96 time=0
EXTRACT: note_on channel=2 note=62 velocity=96 time=0
EXTRACT: note_on channel=3 note=62 velocity=96 time=0
EXTRACT: note_on channel=6 note=55 velocity=96 time=0
EXTRACT: note_on channel=0 note=69 velocity=0 time=0.2298074625
EXTRACT: note_on channel=1 note=67 velocity=0 time=0
EXTRACT: note_on channel=2 note=62 velocity=0 time=0
EXTRACT: note_on channel=3 note=62 velocity=0 time=0
EXTRACT: note_on channel=4 note=71 velocity=0 time=0
EXTRACT: note_on channel=5 note=59 velocity=0 time=0
EXTRACT: note_on channel=6 note=55 velocity=0 time=0
EXTRACT: note_on channel=0 note=72 velocity=80 time=0.0009615375
EXTRACT: note_on channel=1 note=67 velocity=96 time=0
EXTRACT: note_on channel=2 note=62 velocity=96 time=0
EXTRACT: note_on channel=3 note=62 velocity=96 time=0
EXTRACT: note_on channel=4 note=71 velocity=96 time=0
EXTRACT: note_on channel=5 note=59 velocity=96 time=0
EXTRACT: note_on channel=6 note=55 velocity=96 time=0
EXTRACT: note_on channel=0 note=72 velocity=0 time=0.2298074625
EXTRACT: note_on channel=1 note=67 velocity=0 time=0
EXTRACT: note_on channel=2 note=62 velocity=0 time=0
EXTRACT: note_on channel=3 note=62 velocity=0 time=0
EXTRACT: note_on channel=0 note=69 velocity=80 time=0.0009615375
EXTRACT: note_on channel=1 note=67 velocity=96 time=0
EXTRACT: note_on channel=2 note=62 velocity=96 time=0
EXTRACT: note_on channel=3 note=60 velocity=96 time=0
EXTRACT: note_on channel=0 note=69 velocity=0 time=0.2298074625
EXTRACT: note_on channel=1 note=67 velocity=0 time=0
EXTRACT: note_on channel=2 note=62 velocity=0 time=0
EXTRACT: note_on channel=3 note=60 velocity=0 time=0
EXTRACT: note_on channel=0 note=72 velocity=80 time=0.0009615375
EXTRACT: note_on channel=1 note=67 velocity=96 time=0
EXTRACT: note_on channel=2 note=62 velocity=96 time=0
EXTRACT: note_on channel=3 note=62 velocity=96 time=0
EXTRACT: note_on channel=0 note=72 velocity=0 time=0.2298074625
EXTRACT: note_on channel=1 note=67 velocity=0 time=0
EXTRACT: note_on channel=2 note=62 velocity=0 time=0
EXTRACT: note_on channel=3 note=62 velocity=0 time=0
EXTRACT: note_on channel=0 note=74 velocity=80 time=0.0009615375
EXTRACT: note_on channel=1 note=69 velocity=96 time=0
EXTRACT: note_on channel=2 note=65 velocity=96 time=0
EXTRACT: note_on channel=3 note=62 velocity=96 time=0
EXTRACT: note_on channel=4 note=71 velocity=0 time=0.2298074625
EXTRACT: note_on channel=5 note=59 velocity=0 time=0
EXTRACT: note_on channel=6 note=55 velocity=0 time=0
EXTRACT: note_on channel=4 note=69 velocity=96 time=0.0009615375
EXTRACT: note_on channel=5 note=60 velocity=96 time=0
EXTRACT: note_on channel=6 note=50 velocity=96 time=0
EXTRACT: note_on channel=0 note=74 velocity=0 time=0.4605764625
EXTRACT: note_on channel=1 note=69 velocity=0 time=0
EXTRACT: note_on channel=2 note=65 velocity=0 time=0
EXTRACT: note_on channel=3 note=62 velocity=0 time=0
EXTRACT: note_on channel=0 note=69 velocity=80 time=0.0009615375
EXTRACT: note_on channel=1 note=65 velocity=96 time=0
EXTRACT: note_on channel=2 note=62 velocity=96 time=0
EXTRACT: note_on channel=3 note=57 velocity=96 time=0
EXTRACT: note_on channel=6 note=50 velocity=0 time=0.2298074625
EXTRACT: note_on channel=6 note=50 velocity=96 time=0.0009615375
EXTRACT: note_on channel=0 note=69 velocity=0 time=0.2298074625
EXTRACT: note_on channel=1 note=65 velocity=0 time=0
EXTRACT: note_on channel=2 note=62 velocity=0 time=0
EXTRACT: note_on channel=3 note=57 velocity=0 time=0
EXTRACT: note_on channel=4 note=69 velocity=0 time=0
EXTRACT: note_on channel=5 note=60 velocity=0 time=0
EXTRACT: note_on channel=4 note=69 velocity=96 time=0.0009615375
EXTRACT: note_on channel=5 note=62 velocity=96 time=0
EXTRACT: note_on channel=0 note=67 velocity=80 time=0.230769
EXTRACT: note_on channel=1 note=65 velocity=96 time=0
EXTRACT: note_on channel=2 note=62 velocity=96 time=0
EXTRACT: note_on channel=0 note=67 velocity=0 time=0.2298074625
EXTRACT: note_on channel=1 note=65 velocity=0 time=0
EXTRACT: note_on channel=2 note=62 velocity=0 time=0
EXTRACT: note_on channel=6 note=50 velocity=0 time=0
EXTRACT: note_on channel=0 note=76 velocity=80 time=0.0009615375
EXTRACT: note_on channel=1 note=69 velocity=96 time=0
EXTRACT: note_on channel=2 note=65 velocity=96 time=0
EXTRACT: note_on channel=6 note=50 velocity=96 time=0
EXTRACT: note_on channel=0 note=76 velocity=0 time=0.2298074625
EXTRACT: note_on channel=1 note=69 velocity=0 time=0
EXTRACT: note_on channel=2 note=65 velocity=0 time=0
EXTRACT: note_on channel=0 note=74 velocity=80 time=0.0009615375
EXTRACT: note_on channel=1 note=69 velocity=96 time=0
EXTRACT: note_on channel=2 note=65 velocity=96 time=0
EXTRACT: note_on channel=4 note=69 velocity=0 time=0.2298074625
EXTRACT: note_on channel=5 note=62 velocity=0 time=0
EXTRACT: note_on channel=4 note=69 velocity=96 time=0.0009615375
EXTRACT: note_on channel=5 note=64 velocity=96 time=0
EXTRACT: note_on channel=6 note=50 velocity=0 time=0.2298074625
EXTRACT: note_on channel=6 note=50 velocity=96 time=0.0009615375
EXTRACT: note_on channel=0 note=74 velocity=0 time=0.2298074625
EXTRACT: note_on channel=1 note=69 velocity=0 time=0
EXTRACT: note_on channel=2 note=65 velocity=0 time=0
EXTRACT: note_on channel=6 note=50 velocity=0 time=0.230769
EXTRACT: note_on channel=6 note=50 velocity=96 time=0.0009615375
EXTRACT: note_on channel=4 note=69 velocity=0 time=0.2298074625
EXTRACT: note_on channel=5 note=64 velocity=0 time=0
EXTRACT: note_on channel=6 note=50 velocity=0 time=0
EXTRACT: note_on channel=4 note=69 velocity=96 time=0.0009615375
EXTRACT: note_on channel=5 note=65 velocity=96 time=0
EXTRACT: note_on channel=6 note=50 velocity=96 time=0
EXTRACT: note_on channel=0 note=77 velocity=80 time=0.461538
EXTRACT: note_on channel=0 note=77 velocity=0 time=0.2298074625
EXTRACT: note_on channel=0 note=76 velocity=80 time=0.0009615375
EXTRACT: note_on channel=0 note=76 velocity=0 time=0.2298074625
EXTRACT: note_on channel=4 note=69 velocity=0 time=0
EXTRACT: note_on channel=5 note=65 velocity=0 time=0
EXTRACT: note_on channel=6 note=50 velocity=0 time=0
EXTRACT: note_on channel=0 note=72 velocity=80 time=0.0009615375
EXTRACT: note_on channel=4 note=65 velocity=96 time=0
EXTRACT: note_on channel=5 note=67 velocity=96 time=0
EXTRACT: note_on channel=6 note=53 velocity=96 time=0
EXTRACT: note_on channel=0 note=72 velocity=0 time=0.2298074625
EXTRACT: note_on channel=0 note=64 velocity=80 time=0.0009615375
EXTRACT: note_on channel=0 note=64 velocity=0 time=0.2298074625
EXTRACT: note_on channel=0 note=65 velocity=80 time=0.0009615375
EXTRACT: note_on channel=0 note=65 velocity=0 time=0.2298074625
EXTRACT: note_on channel=6 note=53 velocity=0 time=0
EXTRACT: note_on channel=0 note=64 velocity=80 time=0.0009615375
EXTRACT: note_on channel=6 note=53 velocity=96 time=0
EXTRACT: note_on channel=0 note=64 velocity=0 time=0.2298074625
EXTRACT: note_on channel=4 note=65 velocity=0 time=0
EXTRACT: note_on channel=5 note=67 velocity=0 time=0
EXTRACT: note_on channel=0 note=65 velocity=80 time=0.0009615375
EXTRACT: note_on channel=4 note=65 velocity=96 time=0
EXTRACT: note_on channel=5 note=69 velocity=96 time=0
EXTRACT: note_on channel=0 note=65 velocity=0 time=0.2298074625
EXTRACT: note_on channel=0 note=64 velocity=80 time=0.0009615375
EXTRACT: note_on channel=0 note=64 velocity=0 time=0.2298074625
EXTRACT: note_on channel=6 note=53 velocity=0 time=0
EXTRACT: note_on channel=0 note=65 velocity=80 time=0.0009615375
EXTRACT: note_on channel=6 note=53 velocity=96 time=0
EXTRACT: note_on channel=0 note=65 velocity=0 time=0.2298074625
EXTRACT: note_on channel=0 note=64 velocity=80 time=0.0009615375
EXTRACT: note_on channel=0 note=64 velocity=0 time=0.2298074625
EXTRACT: note_on channel=4 note=65 velocity=0 time=0
EXTRACT: note_on channel=5 note=69 velocity=0 time=0
EXTRACT: note_on channel=0 note=65 velocity=80 time=0.0009615375
EXTRACT: note_on channel=1 note=65 velocity=96 time=0
EXTRACT: note_on channel=4 note=65 velocity=96 time=0
EXTRACT: note_on channel=5 note=71 velocity=96 time=0
EXTRACT: note_on channel=0 note=65 velocity=0 time=0.2298074625
EXTRACT: note_on channel=1 note=65 velocity=0 time=0
EXTRACT: note_on channel=6 note=53 velocity=0 time=0
EXTRACT: note_on channel=0 note=64 velocity=80 time=0.0009615375
EXTRACT: note_on channel=1 note=64 velocity=96 time=0
EXTRACT: note_on channel=6 note=53 velocity=96 time=0
EXTRACT: note_on channel=0 note=64 velocity=0 time=0.2298074625
EXTRACT: note_on channel=1 note=64 velocity=0 time=0
EXTRACT: note_on channel=0 note=65 velocity=80 time=0.0009615375
EXTRACT: note_on channel=1 note=65 velocity=96 time=0
EXTRACT: note_on channel=2 note=65 velocity=96 time=0
EXTRACT: note_on channel=0 note=65 velocity=0 time=0.2298074625
EXTRACT: note_on channel=1 note=65 velocity=0 time=0
EXTRACT: note_on channel=2 note=65 velocity=0 time=0
EXTRACT: note_on channel=6 note=53 velocity=0 time=0
EXTRACT: note_on channel=0 note=64 velocity=80 time=0.0009615375
EXTRACT: note_on channel=1 note=64 velocity=96 time=0
EXTRACT: note_on channel=2 note=64 velocity=96 time=0
EXTRACT: note_on channel=6 note=53 velocity=96 time=0
EXTRACT: note_on channel=0 note=64 velocity=0 time=0.2298074625
EXTRACT: note_on channel=1 note=64 velocity=0 time=0
EXTRACT: note_on channel=2 note=64 velocity=0 time=0
EXTRACT: note_on channel=4 note=65 velocity=0 time=0
EXTRACT: note_on channel=5 note=71 velocity=0 time=0
EXTRACT: note_on channel=6 note=53 velocity=0 time=0
EXTRACT: note_on channel=0 note=65 velocity=80 time=0.0009615375
EXTRACT: note_on channel=1 note=65 velocity=96 time=0
EXTRACT: note_on channel=2 note=65 velocity=96 time=0
EXTRACT: note_on channel=3 note=65 velocity=96 time=0
EXTRACT: note_on channel=4 note=65 velocity=96 time=0
EXTRACT: note_on channel=5 note=72 velocity=96 time=0
EXTRACT: note_on channel=6 note=53 velocity=96 time=0
EXTRACT: note_on channel=0 note=65 velocity=0 time=0.2298074625
EXTRACT: note_on channel=1 note=65 velocity=0 time=0
EXTRACT: note_on channel=2 note=65 velocity=0 time=0
EXTRACT: note_on channel=3 note=65 velocity=0 time=0
EXTRACT: note_on channel=0 note=64 velocity=80 time=0.0009615375
EXTRACT: note_on channel=1 note=64 velocity=96 time=0
EXTRACT: note_on channel=2 note=64 velocity=96 time=0
EXTRACT: note_on channel=3 note=64 velocity=96 time=0
EXTRACT: note_on channel=0 note=64 velocity=0 time=0.2298074625
EXTRACT: note_on channel=1 note=64 velocity=0 time=0
EXTRACT: note_on channel=2 note=64 velocity=0 time=0
EXTRACT: note_on channel=3 note=64 velocity=0 time=0
EXTRACT: note_on channel=4 note=65 velocity=0 time=0
EXTRACT: note_on channel=5 note=72 velocity=0 time=0
EXTRACT: note_on channel=6 note=53 velocity=0 time=0
EXTRACT: note_on channel=0 note=72 velocity=80 time=0.0009615375
EXTRACT: note_on channel=1 note=67 velocity=96 time=0
EXTRACT: note_on channel=2 note=64 velocity=96 time=0
EXTRACT: note_on channel=3 note=60 velocity=96 time=0
EXTRACT: note_on channel=0 note=72 velocity=0 time=0.4605764625
EXTRACT: note_on channel=1 note=67 velocity=0 time=0
EXTRACT: note_on channel=2 note=64 velocity=0 time=0
EXTRACT: note_on channel=3 note=60 velocity=0 time=0
EXTRACT: note_on channel=6 note=60 velocity=64 time=0.0009615375
EXTRACT: note_on channel=5 note=64 velocity=64 time=0.230769
EXTRACT: note_on channel=1 note=62 velocity=64 time=0.230769
EXTRACT: note_on channel=2 note=74 velocity=64 time=0
EXTRACT: note_on channel=1 note=62 velocity=0 time=0.2298074625
EXTRACT: note_on channel=4 note=67 velocity=64 time=0.0009615375
EXTRACT: note_on channel=3 note=72 velocity=64 time=0.230769
EXTRACT: note_on channel=2 note=74 velocity=0 time=0.2298074625
EXTRACT: note_on channel=1 note=62 velocity=64 time=0.0009615375
EXTRACT: note_on channel=2 note=74 velocity=64 time=0
EXTRACT: note_on channel=1 note=62 velocity=0 time=0.2298074625
EXTRACT: note_on channel=4 note=67 velocity=0 time=0
EXTRACT: note_on channel=4 note=67 velocity=64 time=0.0009615375
EXTRACT: note_on channel=2 note=74 velocity=0 time=0.2298074625
EXTRACT: note_on channel=2 note=74 velocity=64 time=0.0009615375
EXTRACT: note_on channel=2 note=74 velocity=0 time=0.2298074625
EXTRACT: note_on channel=3 note=72 velocity=0 time=0
EXTRACT: note_on channel=4 note=67 velocity=0 time=0
EXTRACT: note_on channel=5 note=64 velocity=0 time=0
EXTRACT: note_on channel=6 note=60 velocity=0 time=0
EXTRACT: note_on channel=6 note=60 velocity=64 time=0.0009615375
EXTRACT: note_on channel=0 note=64 velocity=80 time=0.230769
EXTRACT: note_on channel=5 note=64 velocity=64 time=0
EXTRACT: note_on channel=0 note=64 velocity=0 time=0.2298074625
EXTRACT: note_on channel=0 note=65 velocity=80 time=0.0009615375
EXTRACT: note_on channel=1 note=62 velocity=64 time=0
EXTRACT: note_on channel=2 note=74 velocity=64 time=0
EXTRACT: note_on channel=0 note=65 velocity=0 time=0.2298074625
EXTRACT: note_on channel=1 note=62 velocity=0 time=0
EXTRACT: note_on channel=0 note=64 velocity=80 time=0.0009615375
EXTRACT: note_on channel=4 note=67 velocity=64 time=0
EXTRACT: note_on channel=0 note=64 velocity=0 time=0.2298074625
EXTRACT: note_on channel=0 note=65 velocity=80 time=0.0009615375
EXTRACT: note_on channel=3 note=72 velocity=64 time=0
EXTRACT: note_on channel=0 note=65 velocity=0 time=0.2298074625
EXTRACT: note_on channel=2 note=74 velocity=0 time=0
EXTRACT: note_on channel=0 note=64 velocity=80 time=0.0009615375
EXTRACT: note_on channel=1 note=62 velocity=64 time=0
EXTRACT: note_on channel=2 note=74 velocity=64 time=0
EXTRACT: note_on channel=0 note=64 velocity=0 time=0.2298074625
EXTRACT: note_on channel=1 note=62 velocity=0 time=0
EXTRACT: note_on channel=4 note=67 velocity=0 time=0
EXTRACT: note_on channel=0 note=74 velocity=80 time=0.0009615375
EXTRACT: note_on channel=4 note=67 velocity=64 time=0
EXTRACT: note_on channel=0 note=74 velocity=0 time=0.1144229625
EXTRACT: note_on channel=0 note=76 velocity=80 time=0.0009615375
EXTRACT: note_on channel=0 note=76 velocity=0 time=0.1144229625
EXTRACT: note_on channel=2 note=74 velocity=0 time=0
EXTRACT: note_on channel=0 note=74 velocity=80 time=0.0009615375
EXTRACT: note_on channel=2 note=74 velocity=64 time=0
EXTRACT: note_on channel=0 note=74 velocity=0 time=0.2298074625
EXTRACT: note_on channel=2 note=74 velocity=0 time=0
EXTRACT: note_on channel=3 note=72 velocity=0 time=0
EXTRACT: note_on channel=4 note=67 velocity=0 time=0
EXTRACT: note_on channel=5 note=64 velocity=0 time=0
EXTRACT: note_on channel=6 note=60 velocity=0 time=0
EXTRACT: note_on channel=6 note=59 velocity=64 time=0.0009615375
EXTRACT: note_on channel=5 note=62 velocity=64 time=0.230769
EXTRACT: note_on channel=1 note=62 velocity=64 time=0.230769
EXTRACT: note_on channel=2 note=74 velocity=64 time=0
EXTRACT: note_on channel=1 note=62 velocity=0 time=0.2298074625
EXTRACT: note_on channel=4 note=67 velocity=64 time=0.0009615375
EXTRACT: note_on channel=3 note=72 velocity=64 time=0.230769
EXTRACT: note_on channel=2 note=74 velocity=0 time=0.2298074625
EXTRACT: note_on channel=1 note=62 velocity=64 time=0.0009615375
EXTRACT: note_on channel=2 note=74 velocity=64 time=0
EXTRACT: note_on channel=1 note=62 velocity=0 time=0.2298074625
EXTRACT: note_on channel=4 note=67 velocity=0 time=0
EXTRACT: note_on channel=4 note=67 velocity=64 time=0.0009615375
EXTRACT: note_on channel=2 note=74 velocity=0 time=0.2298074625
EXTRACT: note_on channel=2 note=74 velocity=64 time=0.0009615375
EXTRACT: note_on channel=2 note=74 velocity=0 time=0.2298074625
EXTRACT: note_on channel=3 note=72 velocity=0 time=0
EXTRACT: note_on channel=4 note=67 velocity=0 time=0
EXTRACT: note_on channel=5 note=62 velocity=0 time=0
EXTRACT: note_on channel=6 note=59 velocity=0 time=0
EXTRACT: note_on channel=6 note=59 velocity=64 time=0.0009615375
EXTRACT: note_on channel=0 note=64 velocity=80 time=0.230769
EXTRACT: note_on channel=5 note=62 velocity=64 time=0
EXTRACT: note_on channel=0 note=64 velocity=0 time=0.2298074625
EXTRACT: note_on channel=0 note=65 velocity=80 time=0.0009615375
EXTRACT: note_on channel=1 note=62 velocity=64 time=0
EXTRACT: note_on channel=2 note=74 velocity=64 time=0
EXTRACT: note_on channel=0 note=65 velocity=0 time=0.2298074625
EXTRACT: note_on channel=1 note=62 velocity=0 time=0
EXTRACT: note_on channel=0 note=64 velocity=80 time=0.0009615375
EXTRACT: note_on channel=4 note=67 velocity=64 time=0
EXTRACT: note_on channel=0 note=64 velocity=0 time=0.2298074625
EXTRACT: note_on channel=0 note=65 velocity=80 time=0.0009615375
EXTRACT: note_on channel=3 note=72 velocity=64 time=0
EXTRACT: note_on channel=0 note=65 velocity=0 time=0.2298074625
EXTRACT: note_on channel=2 note=74 velocity=0 time=0
EXTRACT: note_on channel=0 note=64 velocity=80 time=0.0009615375
EXTRACT: note_on channel=1 note=62 velocity=64 time=0
EXTRACT: note_on channel=2 note=74 velocity=64 time=0
EXTRACT: note_on channel=0 note=64 velocity=0 time=0.2298074625
EXTRACT: note_on channel=1 note=62 velocity=0 time=0
EXTRACT: note_on channel=4 note=67 velocity=0 time=0
EXTRACT: note_on channel=0 note=74 velocity=80 time=0.0009615375
EXTRACT: note_on channel=4 note=67 velocity=64 time=0
EXTRACT: note_on channel=0 note=74 velocity=0 time=0.1144229625
EXTRACT: note_on channel=0 note=76 velocity=80 time=0.0009615375
EXTRACT: note_on channel=0 note=76 velocity=0 time=0.1144229625
EXTRACT: note_on channel=2 note=74 velocity=0 time=0
EXTRACT: note_on channel=0 note=74 velocity=80 time=0.0009615375
EXTRACT: note_on channel=2 note=74 velocity=64 time=0
EXTRACT: note_on channel=0 note=74 velocity=0 time=0.2298074625
EXTRACT: note_on channel=2 note=74 velocity=0 time=0
EXTRACT: note_on channel=3 note=72 velocity=0 time=0
EXTRACT: note_on channel=4 note=67 velocity=0 time=0
EXTRACT: note_on channel=5 note=62 velocity=0 time=0
EXTRACT: note_on channel=6 note=59 velocity=0 time=0
EXTRACT: note_on channel=6 note=57 velocity=64 time=0.0009615375
EXTRACT: note_on channel=5 note=62 velocity=64 time=0.230769
EXTRACT: note_on channel=1 note=62 velocity=64 time=0.230769
EXTRACT: note_on channel=2 note=74 velocity=64 time=0
EXTRACT: note_on channel=1 note=62 velocity=0 time=0.2298074625
EXTRACT: note_on channel=4 note=65 velocity=64 time=0.0009615375
EXTRACT: note_on channel=3 note=69 velocity=64 time=0.230769
EXTRACT: note_on channel=2 note=74 velocity=0 time=0.2298074625
EXTRACT: note_on channel=1 note=62 velocity=64 time=0.0009615375
EXTRACT: note_on channel=2 note=74 velocity=64 time=0
EXTRACT: note_on channel=1 note=62 velocity=0 time=0.2298074625
EXTRACT: note_on channel=4 note=65 velocity=0 time=0
EXTRACT: note_on channel=4 note=65 velocity=64 time=0.0009615375
EXTRACT: note_on channel=2 note=74 velocity=0 time=0.2298074625
EXTRACT: note_on channel=2 note=74 velocity=64 time=0.0009615375
EXTRACT: note_on channel=2 note=74 velocity=0 time=0.2298074625
EXTRACT: note_on channel=3 note=69 velocity=0 time=0
EXTRACT: note_on channel=4 note=65 velocity=0 time=0
EXTRACT: note_on channel=5 note=62 velocity=0 time=0
EXTRACT: note_on channel=6 note=57 velocity=0 time=0
EXTRACT: note_on channel=6 note=57 velocity=64 time=0.0009615375
EXTRACT: note_on channel=0 note=64 velocity=80 time=0.230769
EXTRACT: note_on channel=5 note=62 velocity=64 time=0
EXTRACT: note_on channel=0 note=64 velocity=0 time=0.2298074625
EXTRACT: note_on channel=0 note=65 velocity=80 time=0.0009615375
EXTRACT: note_on channel=1 note=62 velocity=64 time=0
EXTRACT: note_on channel=2 note=74 velocity=64 time=0
EXTRACT: note_on channel=0 note=65 velocity=0 time=0.2298074625
EXTRACT: note_on channel=1 note=62 velocity=0 time=0
EXTRACT: note_on channel=0 note=64 velocity=80 time=0.0009615375
EXTRACT: note_on channel=4 note=65 velocity=64 time=0
EXTRACT: note_on channel=0 note=64 velocity=0 time=0.2298074625
EXTRACT: note_on channel=0 note=74 velocity=80 time=0.0009615375
EXTRACT: note_on channel=3 note=69 velocity=64 time=0
EXTRACT: note_on channel=0 note=74 velocity=0 time=0.2298074625
EXTRACT: note_on channel=2 note=74 velocity=0 time=0
EXTRACT: note_on channel=0 note=76 velocity=80 time=0.0009615375
EXTRACT: note_on channel=1 note=62 velocity=64 time=0
EXTRACT: note_on channel=2 note=74 velocity=64 time=0
EXTRACT: note_on channel=0 note=76 velocity=0 time=0.2298074625
EXTRACT: note_on channel=1 note=62 velocity=0 time=0
EXTRACT: note_on channel=4 note=65 velocity=0 time=0
EXTRACT: note_on channel=0 note=74 velocity=80 time=0.0009615375
EXTRACT: note_on channel=4 note=65 velocity=64 time=0
EXTRACT: note_on channel=2 note=74 velocity=0 time=0.2298074625
EXTRACT: note_on channel=2 note=74 velocity=64 time=0.0009615375
EXTRACT: note_on channel=0 note=74 velocity=0 time=0.2298074625
EXTRACT: note_on channel=2 note=74 velocity=0 time=0
EXTRACT: note_on channel=3 note=69 velocity=0 time=0
EXTRACT: note_on channel=4 note=65 velocity=0 time=0
EXTRACT: note_on channel=5 note=62 velocity=0 time=0
EXTRACT: note_on channel=6 note=57 velocity=0 time=0
EXTRACT: note_on channel=6 note=53 velocity=64 time=0.0009615375
EXTRACT: note_on channel=5 note=60 velocity=63 time=0.230769
EXTRACT: note_on channel=1 note=62 velocity=61 time=0.230769
EXTRACT: note_on channel=2 note=72 velocity=64 time=0
EXTRACT: note_on channel=1 note=62 velocity=0 time=0.2298074625
EXTRACT: note_on channel=4 note=65 velocity=59 time=0.0009615375
EXTRACT: note_on channel=3 note=69 velocity=64 time=0.230769
EXTRACT: note_on channel=2 note=72 velocity=0 time=0.2298074625
EXTRACT: note_on channel=1 note=62 velocity=55 time=0.0009615375
EXTRACT: note_on channel=2 note=72 velocity=64 time=0
EXTRACT: note_on channel=1 note=62 velocity=0 time=0.2298074625
EXTRACT: note_on channel=4 note=65 velocity=0 time=0
EXTRACT: note_on channel=4 note=65 velocity=53 time=0.0009615375
EXTRACT: note_on channel=2 note=72 velocity=0 time=0.2298074625
EXTRACT: note_on channel=2 note=72 velocity=64 time=0.0009615375
EXTRACT: note_on channel=2 note=72 velocity=0 time=0.2298074625
EXTRACT: note_on channel=3 note=69 velocity=0 time=0
EXTRACT: note_on channel=4 note=65 velocity=0 time=0
EXTRACT: note_on channel=5 note=60 velocity=0 time=0
EXTRACT: note_on channel=6 note=53 velocity=0 time=0
EXTRACT: note_on channel=6 note=53 velocity=49 time=0.0009615375
EXTRACT: note_on channel=5 note=60 velocity=49 time=0.230769
EXTRACT: note_on channel=2 note=69 velocity=64 time=0.230769
EXTRACT: note_on channel=4 note=72 velocity=49 time=0.230769
EXTRACT: note_on channel=2 note=69 velocity=0 time=0.6913454625
EXTRACT: note_on channel=4 note=72 velocity=0 time=0
EXTRACT: note_on channel=5 note=60 velocity=0 time=0
EXTRACT: note_on channel=6 note=53 velocity=0 time=0
EXTRACT: note_on channel=0 note=64 velocity=80 time=0.0009615375
EXTRACT: note_on channel=0 note=64 velocity=0 time=0.4605764625
EXTRACT: note_on channel=0 note=60 velocity=80 time=0.0009615375
EXTRACT: note_on channel=4 note=60 velocity=49 time=0
EXTRACT: note_on channel=5 note=55 velocity=49 time=0
EXTRACT: note_on channel=6 note=52 velocity=49 time=0
EXTRACT: note_on channel=0 note=60 velocity=0 time=0.2298074625
EXTRACT: note_on channel=0 note=60 velocity=80 time=0.0009615375
EXTRACT: note_on channel=0 note=60 velocity=0 time=0.4605764625
EXTRACT: note_on channel=0 note=60 velocity=80 time=0.0009615375
EXTRACT: note_on channel=0 note=60 velocity=0 time=0.6913454625
EXTRACT: note_on channel=0 note=64 velocity=80 time=0.0009615375
EXTRACT: note_on channel=0 note=64 velocity=0 time=0.4605764625
EXTRACT: note_on channel=0 note=60 velocity=80 time=0.0009615375
EXTRACT: note_on channel=0 note=60 velocity=0 time=0.2298074625
EXTRACT: note_on channel=0 note=60 velocity=80 time=0.0009615375
EXTRACT: note_on channel=0 note=60 velocity=0 time=0.4605764625
EXTRACT: note_on channel=0 note=60 velocity=80 time=0.0009615375
EXTRACT: note_on channel=0 note=60 velocity=0 time=0.6913454625
EXTRACT: note_on channel=4 note=60 velocity=0 time=0
EXTRACT: note_on channel=5 note=55 velocity=0 time=0
EXTRACT: note_on channel=6 note=52 velocity=0 time=0
EXTRACT: note_on channel=0 note=64 velocity=80 time=0.0009615375
EXTRACT: note_on channel=0 note=64 velocity=0 time=0.4605764625
EXTRACT: note_on channel=0 note=59 velocity=80 time=0.0009615375
EXTRACT: note_on channel=4 note=59 velocity=49 time=0
EXTRACT: note_on channel=5 note=55 velocity=49 time=0
EXTRACT: note_on channel=6 note=50 velocity=49 time=0
EXTRACT: note_on channel=0 note=59 velocity=0 time=0.2298074625
EXTRACT: note_on channel=0 note=59 velocity=80 time=0.0009615375
EXTRACT: note_on channel=0 note=59 velocity=0 time=0.4605764625
EXTRACT: note_on channel=0 note=59 velocity=80 time=0.0009615375
EXTRACT: note_on channel=0 note=59 velocity=0 time=0.6913454625
EXTRACT: note_on channel=1 note=72 velocity=49 time=0.4624995375
EXTRACT: note_on channel=3 note=64 velocity=64 time=0
EXTRACT: note_on channel=3 note=64 velocity=0 time=0.2298074625
EXTRACT: note_on channel=1 note=72 velocity=0 time=0.692307
EXTRACT: note_on channel=1 note=71 velocity=56 time=0.0009615375
EXTRACT: note_on channel=3 note=62 velocity=64 time=0
EXTRACT: note_on channel=3 note=62 velocity=0 time=0.2298074625
EXTRACT: note_on channel=4 note=59 velocity=0 time=0.230769
EXTRACT: note_on channel=5 note=55 velocity=0 time=0
EXTRACT: note_on channel=6 note=50 velocity=0 time=0
EXTRACT: note_on channel=0 note=64 velocity=80 time=0.0009615375
EXTRACT: note_on channel=0 note=64 velocity=0 time=0.4605764625
EXTRACT: note_on channel=1 note=71 velocity=0 time=0
EXTRACT: note_on channel=0 note=60 velocity=80 time=0.0009615375
EXTRACT: note_on channel=1 note=69 velocity=64 time=0
EXTRACT: note_on channel=2 note=64 velocity=64 time=0
EXTRACT: note_on channel=4 note=60 velocity=64 time=0
EXTRACT: note_on channel=5 note=57 velocity=64 time=0
EXTRACT: note_on channel=6 note=52 velocity=64 time=0
EXTRACT: note_on channel=0 note=60 velocity=0 time=0.2298074625
EXTRACT: note_on channel=2 note=64 velocity=0 time=0
EXTRACT: note_on channel=0 note=60 velocity=80 time=0.0009615375
EXTRACT: note_on channel=2 note=64 velocity=64 time=0
EXTRACT: note_on channel=0 note=60 velocity=0 time=0.4605764625
EXTRACT: note_on channel=2 note=64 velocity=0 time=0
EXTRACT: note_on channel=0 note=60 velocity=80 time=0.0009615375
EXTRACT: note_on channel=2 note=64 velocity=64 time=0
EXTRACT: note_on channel=0 note=60 velocity=0 time=0.6913454625
EXTRACT: note_on channel=2 note=64 velocity=0 time=0
EXTRACT: note_on channel=0 note=64 velocity=80 time=0.0009615375
EXTRACT: note_on channel=0 note=64 velocity=0 time=0.4605764625
EXTRACT: note_on channel=0 note=60 velocity=80 time=0.0009615375
EXTRACT: note_on channel=2 note=64 velocity=64 time=0
EXTRACT: note_on channel=0 note=60 velocity=0 time=0.2298074625
EXTRACT: note_on channel=2 note=64 velocity=0 time=0
EXTRACT: note_on channel=0 note=60 velocity=80 time=0.0009615375
EXTRACT: note_on channel=2 note=64 velocity=64 time=0
EXTRACT: note_on channel=0 note=60 velocity=0 time=0.4605764625
EXTRACT: note_on channel=2 note=64 velocity=0 time=0
EXTRACT: note_on channel=0 note=60 velocity=80 time=0.0009615375
EXTRACT: note_on channel=2 note=64 velocity=64 time=0
EXTRACT: note_on channel=0 note=60 velocity=0 time=0.6913454625
EXTRACT: note_on channel=2 note=64 velocity=0 time=0
EXTRACT: note_on channel=0 note=64 velocity=80 time=0.0009615375
EXTRACT: note_on channel=0 note=64 velocity=0 time=0.4605764625
EXTRACT: note_on channel=1 note=69 velocity=0 time=0
EXTRACT: note_on channel=4 note=60 velocity=0 time=0
EXTRACT: note_on channel=5 note=57 velocity=0 time=0
EXTRACT: note_on channel=6 note=52 velocity=0 time=0
EXTRACT: note_on channel=0 note=59 velocity=80 time=0.0009615375
EXTRACT: note_on channel=0 note=59 velocity=0 time=0.2298074625
EXTRACT: note_on channel=0 note=59 velocity=80 time=0.0009615375
EXTRACT: note_on channel=0 note=59 velocity=0 time=0.4605764625
EXTRACT: note_on channel=0 note=59 velocity=80 time=0.0009615375
EXTRACT: note_on channel=0 note=59 velocity=0 time=0.6913454625
EXTRACT: note_on channel=0 note=76 velocity=80 time=0.9240375375
EXTRACT: note_on channel=0 note=76 velocity=0 time=0.4605764625
EXTRACT: note_on channel=0 note=76 velocity=80 time=0.0009615375
EXTRACT: note_on channel=0 note=76 velocity=0 time=0.2298074625
EXTRACT: note_on channel=0 note=74 velocity=80 time=0.0009615375
EXTRACT: note_on channel=0 note=74 velocity=0 time=0.2298074625
EXTRACT: note_on channel=0 note=67 velocity=80 time=0.0009615375
EXTRACT: note_on channel=0 note=67 velocity=0 time=0.2298074625
EXTRACT: note_on channel=0 note=72 velocity=80 time=0.0009615375
EXTRACT: note_on channel=1 note=72 velocity=80 time=0
EXTRACT: note_on channel=2 note=67 velocity=80 time=0
EXTRACT: note_on channel=3 note=64 velocity=80 time=0
EXTRACT: note_on channel=4 note=64 velocity=80 time=0.230769
EXTRACT: note_on channel=5 note=60 velocity=80 time=0
EXTRACT: note_on channel=6 note=60 velocity=80 time=0
EXTRACT: note_on channel=0 note=72 velocity=0 time=0.4605764625
EXTRACT: note_on channel=1 note=72 velocity=0 time=0
EXTRACT: note_on channel=2 note=67 velocity=0 time=0
EXTRACT: note_on channel=3 note=64 velocity=0 time=0
EXTRACT: note_on channel=0 note=67 velocity=80 time=0.0009615375
EXTRACT: note_on channel=1 note=72 velocity=80 time=0
EXTRACT: note_on channel=2 note=67 velocity=80 time=0
EXTRACT: note_on channel=3 note=64 velocity=80 time=0
EXTRACT: note_on channel=6 note=60 velocity=0 time=0.2298074625
EXTRACT: note_on channel=6 note=60 velocity=80 time=0.0009615375
EXTRACT: note_on channel=0 note=67 velocity=0 time=0.2298074625
EXTRACT: note_on channel=4 note=64 velocity=0 time=0
EXTRACT: note_on channel=5 note=60 velocity=0 time=0
EXTRACT: note_on channel=4 note=64 velocity=80 time=0.0009615375
EXTRACT: note_on channel=5 note=60 velocity=80 time=0
EXTRACT: note_on channel=0 note=69 velocity=80 time=0.230769
EXTRACT: note_on channel=0 note=69 velocity=0 time=0.2298074625
EXTRACT: note_on channel=6 note=60 velocity=0 time=0
EXTRACT: note_on channel=0 note=72 velocity=80 time=0.0009615375
EXTRACT: note_on channel=6 note=60 velocity=80 time=0
EXTRACT: note_on channel=0 note=72 velocity=0 time=0.2298074625
EXTRACT: note_on channel=0 note=69 velocity=80 time=0.0009615375
EXTRACT: note_on channel=0 note=69 velocity=0 time=0.2298074625
EXTRACT: note_on channel=4 note=64 velocity=0 time=0
EXTRACT: note_on channel=5 note=60 velocity=0 time=0
EXTRACT: note_on channel=0 note=72 velocity=80 time=0.0009615375
EXTRACT: note_on channel=4 note=64 velocity=80 time=0
EXTRACT: note_on channel=5 note=60 velocity=80 time=0
EXTRACT: note_on channel=0 note=72 velocity=0 time=0.2298074625
EXTRACT: note_on channel=6 note=60 velocity=0 time=0
EXTRACT: note_on channel=0 note=69 velocity=80 time=0.0009615375
EXTRACT: note_on channel=6 note=60 velocity=80 time=0
EXTRACT: note_on channel=0 note=69 velocity=0 time=0.2298074625
EXTRACT: note_on channel=0 note=72 velocity=80 time=0.0009615375
EXTRACT: note_on channel=0 note=72 velocity=0 time=0.2298074625
EXTRACT: note_on channel=6 note=60 velocity=0 time=0
EXTRACT: note_on channel=0 note=69 velocity=80 time=0.0009615375
EXTRACT: note_on channel=6 note=60 velocity=80 time=0
EXTRACT: note_on channel=0 note=69 velocity=0 time=0.2298074625
EXTRACT: note_on channel=4 note=64 velocity=0 time=0
EXTRACT: note_on channel=5 note=60 velocity=0 time=0
EXTRACT: note_on channel=6 note=60 velocity=0 time=0
EXTRACT: note_on channel=0 note=72 velocity=80 time=0.0009615375
EXTRACT: note_on channel=4 note=64 velocity=80 time=0
EXTRACT: note_on channel=5 note=60 velocity=80 time=0
EXTRACT: note_on channel=6 note=60 velocity=80 time=0
EXTRACT: note_on channel=0 note=72 velocity=0 time=0.2298074625
EXTRACT: note_on channel=1 note=72 velocity=0 time=0
EXTRACT: note_on channel=2 note=67 velocity=0 time=0
EXTRACT: note_on channel=3 note=64 velocity=0 time=0
EXTRACT: note_on channel=0 note=72 velocity=80 time=0.0009615375
EXTRACT: note_on channel=0 note=72 velocity=0 time=0.2298074625
EXTRACT: note_on channel=0 note=69 velocity=80 time=0.0009615375
EXTRACT: note_on channel=0 note=69 velocity=0 time=0.2298074625
EXTRACT: note_on channel=0 note=72 velocity=80 time=0.0009615375
EXTRACT: note_on channel=1 note=71 velocity=80 time=0
EXTRACT: note_on channel=2 note=67 velocity=80 time=0
EXTRACT: note_on channel=3 note=62 velocity=80 time=0
EXTRACT: note_on channel=4 note=64 velocity=0 time=0.2298074625
EXTRACT: note_on channel=5 note=60 velocity=0 time=0
EXTRACT: note_on channel=6 note=60 velocity=0 time=0
EXTRACT: note_on channel=4 note=64 velocity=80 time=0.0009615375
EXTRACT: note_on channel=5 note=59 velocity=80 time=0
EXTRACT: note_on channel=6 note=55 velocity=80 time=0
EXTRACT: note_on channel=0 note=72 velocity=0 time=0.4605764625
EXTRACT: note_on channel=1 note=71 velocity=0 time=0
EXTRACT: note_on channel=2 note=67 velocity=0 time=0
EXTRACT: note_on channel=3 note=62 velocity=0 time=0
EXTRACT: note_on channel=0 note=67 velocity=80 time=0.0009615375
EXTRACT: note_on channel=1 note=71 velocity=80 time=0
EXTRACT: note_on channel=2 note=67 velocity=80 time=0
EXTRACT: note_on channel=3 note=62 velocity=80 time=0
EXTRACT: note_on channel=6 note=55 velocity=0 time=0.2298074625
EXTRACT: note_on channel=6 note=55 velocity=80 time=0.0009615375
EXTRACT: note_on channel=0 note=67 velocity=0 time=0.2298074625
EXTRACT: note_on channel=4 note=64 velocity=0 time=0
EXTRACT: note_on channel=5 note=59 velocity=0 time=0
EXTRACT: note_on channel=4 note=64 velocity=80 time=0.0009615375
EXTRACT: note_on channel=5 note=59 velocity=80 time=0
EXTRACT: note_on channel=0 note=69 velocity=80 time=0.230769
EXTRACT: note_on channel=0 note=69 velocity=0 time=0.2298074625
EXTRACT: note_on channel=6 note=55 velocity=0 time=0
EXTRACT: note_on channel=0 note=72 velocity=80 time=0.0009615375
EXTRACT: note_on channel=6 note=55 velocity=80 time=0
EXTRACT: note_on channel=0 note=72 velocity=0 time=0.2298074625
EXTRACT: note_on channel=0 note=69 velocity=80 time=0.0009615375
EXTRACT: note_on channel=0 note=69 velocity=0 time=0.2298074625
EXTRACT: note_on channel=4 note=64 velocity=0 time=0
EXTRACT: note_on channel=5 note=59 velocity=0 time=0
EXTRACT: note_on channel=0 note=72 velocity=80 time=0.0009615375
EXTRACT: note_on channel=4 note=64 velocity=80 time=0
EXTRACT: note_on channel=5 note=59 velocity=80 time=0
EXTRACT: note_on channel=0 note=72 velocity=0 time=0.2298074625
EXTRACT: note_on channel=6 note=55 velocity=0 time=0
EXTRACT: note_on channel=0 note=69 velocity=80 time=0.0009615375
EXTRACT: note_on channel=6 note=55 velocity=80 time=0
EXTRACT: note_on channel=0 note=69 velocity=0 time=0.2298074625
EXTRACT: note_on channel=0 note=72 velocity=80 time=0.0009615375
EXTRACT: note_on channel=0 note=72 velocity=0 time=0.2298074625
EXTRACT: note_on channel=6 note=55 velocity=0 time=0
EXTRACT: note_on channel=0 note=69 velocity=80 time=0.0009615375
EXTRACT: note_on channel=6 note=55 velocity=80 time=0
EXTRACT: note_on channel=0 note=69 velocity=0 time=0.2298074625
EXTRACT: note_on channel=4 note=64 velocity=0 time=0
EXTRACT: note_on channel=5 note=59 velocity=0 time=0
EXTRACT: note_on channel=6 note=55 velocity=0 time=0
EXTRACT: note_on channel=0 note=72 velocity=80 time=0.0009615375
EXTRACT: note_on channel=4 note=64 velocity=80 time=0
EXTRACT: note_on channel=5 note=59 velocity=80 time=0
EXTRACT: note_on channel=6 note=55 velocity=80 time=0
EXTRACT: note_on channel=0 note=72 velocity=0 time=0.2298074625
EXTRACT: note_on channel=1 note=71 velocity=0 time=0
EXTRACT: note_on channel=2 note=67 velocity=0 time=0
EXTRACT: note_on channel=3 note=62 velocity=0 time=0
EXTRACT: note_on channel=0 note=69 velocity=80 time=0.0009615375
EXTRACT: note_on channel=1 note=71 velocity=80 time=0
EXTRACT: note_on channel=2 note=67 velocity=80 time=0
EXTRACT: note_on channel=3 note=62 velocity=80 time=0
EXTRACT: note_on channel=0 note=69 velocity=0 time=0.2298074625
EXTRACT: note_on channel=1 note=71 velocity=0 time=0
EXTRACT: note_on channel=2 note=67 velocity=0 time=0
EXTRACT: note_on channel=3 note=62 velocity=0 time=0
EXTRACT: note_on channel=0 note=72 velocity=80 time=0.0009615375
EXTRACT: note_on channel=1 note=71 velocity=80 time=0
EXTRACT: note_on channel=2 note=67 velocity=80 time=0
EXTRACT: note_on channel=3 note=62 velocity=80 time=0
EXTRACT: note_on channel=0 note=72 velocity=0 time=0.2298074625
EXTRACT: note_on channel=1 note=71 velocity=0 time=0
EXTRACT: note_on channel=2 note=67 velocity=0 time=0
EXTRACT: note_on channel=3 note=62 velocity=0 time=0
EXTRACT: note_on channel=0 note=74 velocity=80 time=0.0009615375
EXTRACT: note_on channel=1 note=69 velocity=80 time=0
EXTRACT: note_on channel=2 note=65 velocity=80 time=0
EXTRACT: note_on channel=3 note=62 velocity=80 time=0
EXTRACT: note_on channel=4 note=64 velocity=0 time=0.2298074625
EXTRACT: note_on channel=5 note=59 velocity=0 time=0
EXTRACT: note_on channel=6 note=55 velocity=0 time=0
EXTRACT: note_on channel=4 note=65 velocity=80 time=0.0009615375
EXTRACT: note_on channel=5 note=57 velocity=80 time=0
EXTRACT: note_on channel=6 note=50 velocity=80 time=0
EXTRACT: note_on channel=0 note=74 velocity=0 time=0.4605764625
EXTRACT: note_on channel=0 note=69 velocity=80 time=0.0009615375
EXTRACT: note_on channel=6 note=50 velocity=0 time=0.2298074625
EXTRACT: note_on channel=6 note=50 velocity=80 time=0.0009615375
EXTRACT: note_on channel=0 note=69 velocity=0 time=0.2298074625
EXTRACT: note_on channel=4 note=65 velocity=0 time=0
EXTRACT: note_on channel=5 note=57 velocity=0 time=0
EXTRACT: note_on channel=4 note=65 velocity=80 time=0.0009615375
EXTRACT: note_on channel=5 note=57 velocity=80 time=0
EXTRACT: note_on channel=0 note=67 velocity=80 time=0.230769
EXTRACT: note_on channel=0 note=67 velocity=0 time=0.2298074625
EXTRACT: note_on channel=6 note=50 velocity=0 time=0
EXTRACT: note_on channel=0 note=76 velocity=80 time=0.0009615375
EXTRACT: note_on channel=6 note=50 velocity=80 time=0
EXTRACT: note_on channel=0 note=76 velocity=0 time=0.2298074625
EXTRACT: note_on channel=0 note=74 velocity=80 time=0.0009615375
EXTRACT: note_on channel=4 note=65 velocity=0 time=0.2298074625
EXTRACT: note_on channel=5 note=57 velocity=0 time=0
EXTRACT: note_on channel=4 note=65 velocity=80 time=0.0009615375
EXTRACT: note_on channel=5 note=57 velocity=80 time=0
EXTRACT: note_on channel=6 note=50 velocity=0 time=0.2298074625
EXTRACT: note_on channel=6 note=50 velocity=80 time=0.0009615375
EXTRACT: note_on channel=0 note=74 velocity=0 time=0.2298074625
EXTRACT: note_on channel=6 note=50 velocity=0 time=0.230769
EXTRACT: note_on channel=6 note=50 velocity=80 time=0.0009615375
EXTRACT: note_on channel=4 note=65 velocity=0 time=0.2298074625
EXTRACT: note_on channel=5 note=57 velocity=0 time=0
EXTRACT: note_on channel=6 note=50 velocity=0 time=0
EXTRACT: note_on channel=4 note=65 velocity=80 time=0.0009615375
EXTRACT: note_on channel=5 note=57 velocity=80 time=0
EXTRACT: note_on channel=6 note=50 velocity=80 time=0
EXTRACT: note_on channel=1 note=69 velocity=0 time=0.4605764625
EXTRACT: note_on channel=2 note=65 velocity=0 time=0
EXTRACT: note_on channel=3 note=62 velocity=0 time=0
EXTRACT: note_on channel=0 note=77 velocity=80 time=0.0009615375
EXTRACT: note_on channel=0 note=77 velocity=0 time=0.2298074625
EXTRACT: note_on channel=0 note=76 velocity=80 time=0.0009615375
EXTRACT: note_on channel=0 note=76 velocity=0 time=0.2298074625
EXTRACT: note_on channel=4 note=65 velocity=0 time=0
EXTRACT: note_on channel=5 note=57 velocity=0 time=0
EXTRACT: note_on channel=6 note=50 velocity=0 time=0
EXTRACT: note_on channel=0 note=72 velocity=80 time=0.0009615375
EXTRACT: note_on channel=1 note=72 velocity=80 time=0
EXTRACT: note_on channel=2 note=69 velocity=80 time=0
EXTRACT: note_on channel=3 note=65 velocity=80 time=0
EXTRACT: note_on channel=4 note=65 velocity=80 time=0
EXTRACT: note_on channel=5 note=57 velocity=80 time=0
EXTRACT: note_on channel=6 note=53 velocity=80 time=0
EXTRACT: note_on channel=0 note=72 velocity=0 time=0.2298074625
EXTRACT: note_on channel=0 note=64 velocity=80 time=0.0009615375
EXTRACT: note_on channel=0 note=64 velocity=0 time=0.2298074625
EXTRACT: note_on channel=0 note=65 velocity=80 time=0.0009615375
EXTRACT: note_on channel=0 note=65 velocity=0 time=0.2298074625
EXTRACT: note_on channel=6 note=53 velocity=0 time=0
EXTRACT: note_on channel=0 note=64 velocity=80 time=0.0009615375
EXTRACT: note_on channel=6 note=53 velocity=80 time=0
EXTRACT: note_on channel=0 note=64 velocity=0 time=0.2298074625
EXTRACT: note_on channel=4 note=65 velocity=0 time=0
EXTRACT: note_on channel=5 note=57 velocity=0 time=0
EXTRACT: note_on channel=0 note=65 velocity=80 time=0.0009615375
EXTRACT: note_on channel=4 note=65 velocity=88 time=0
EXTRACT: note_on channel=5 note=57 velocity=88 time=0
EXTRACT: note_on channel=0 note=65 velocity=0 time=0.2298074625
EXTRACT: note_on channel=0 note=64 velocity=80 time=0.0009615375
EXTRACT: note_on channel=0 note=64 velocity=0 time=0.2298074625
EXTRACT: note_on channel=6 note=53 velocity=0 time=0
EXTRACT: note_on channel=0 note=65 velocity=80 time=0.0009615375
EXTRACT: note_on channel=6 note=53 velocity=80 time=0
EXTRACT: note_on channel=0 note=65 velocity=0 time=0.2298074625
EXTRACT: note_on channel=0 note=64 velocity=80 time=0.0009615375
EXTRACT: note_on channel=0 note=64 velocity=0 time=0.2298074625
EXTRACT: note_on channel=4 note=65 velocity=0 time=0
EXTRACT: note_on channel=5 note=57 velocity=0 time=0
EXTRACT: note_on channel=0 note=65 velocity=80 time=0.0009615375
EXTRACT: note_on channel=4 note=65 velocity=96 time=0
EXTRACT: note_on channel=5 note=57 velocity=96 time=0
EXTRACT: note_on channel=0 note=65 velocity=0 time=0.2298074625
EXTRACT: note_on channel=6 note=53 velocity=0 time=0
EXTRACT: note_on channel=0 note=64 velocity=80 time=0.0009615375
EXTRACT: note_on channel=6 note=53 velocity=80 time=0
EXTRACT: note_on channel=0 note=64 velocity=0 time=0.2298074625
EXTRACT: note_on channel=0 note=72 velocity=80 time=0.0009615375
EXTRACT: note_on channel=6 note=53 velocity=0 time=0.2298074625
EXTRACT: note_on channel=6 note=53 velocity=80 time=0.0009615375
EXTRACT: note_on channel=0 note=72 velocity=0 time=0.2298074625
EXTRACT: note_on channel=1 note=72 velocity=0 time=0
EXTRACT: note_on channel=2 note=69 velocity=0 time=0
EXTRACT: note_on channel=3 note=65 velocity=0 time=0
EXTRACT: note_on channel=4 note=65 velocity=0 time=0
EXTRACT: note_on channel=5 note=57 velocity=0 time=0
EXTRACT: note_on channel=6 note=53 velocity=0 time=0
EXTRACT: note_on channel=6 note=53 velocity=80 time=0.0009615375
EXTRACT: note_on channel=6 note=53 velocity=0 time=0.2298074625
EXTRACT: note_on channel=0 note=72 velocity=80 time=0.0009615375
EXTRACT: note_on channel=1 note=67 velocity=96 time=0
EXTRACT: note_on channel=2 note=64 velocity=96 time=0
EXTRACT: note_on channel=0 note=72 velocity=0 time=0.4605764625
EXTRACT: note_on channel=1 note=67 velocity=0 time=0
EXTRACT: note_on channel=2 note=64 velocity=0 time=0
EXTRACT: note_on channel=0 note=72 velocity=80 time=0.0009615375
EXTRACT: note_on channel=1 note=67 velocity=96 time=0
EXTRACT: note_on channel=2 note=64 velocity=96 time=0
EXTRACT: note_on channel=3 note=60 velocity=96 time=0.230769
EXTRACT: note_on channel=4 note=67 velocity=96 time=0
EXTRACT: note_on channel=5 note=64 velocity=96 time=0
EXTRACT: note_on channel=6 note=60 velocity=96 time=0
EXTRACT: note_on channel=0 note=72 velocity=0 time=0.4605764625
EXTRACT: note_on channel=1 note=67 velocity=0 time=0
EXTRACT: note_on channel=2 note=64 velocity=0 time=0
EXTRACT: note_on channel=0 note=67 velocity=80 time=0.0009615375
EXTRACT: note_on channel=1 note=64 velocity=96 time=0
EXTRACT: note_on channel=2 note=60 velocity=96 time=0
EXTRACT: note_on channel=3 note=60 velocity=0 time=0.2298074625
EXTRACT: note_on channel=6 note=60 velocity=0 time=0
EXTRACT: note_on channel=3 note=60 velocity=96 time=0.0009615375
EXTRACT: note_on channel=6 note=60 velocity=96 time=0
EXTRACT: note_on channel=0 note=67 velocity=0 time=0.2298074625
EXTRACT: note_on channel=1 note=64 velocity=0 time=0
EXTRACT: note_on channel=2 note=60 velocity=0 time=0
EXTRACT: note_on channel=3 note=60 velocity=0 time=0
EXTRACT: note_on channel=4 note=67 velocity=0 time=0
EXTRACT: note_on channel=5 note=64 velocity=0 time=0
EXTRACT: note_on channel=3 note=60 velocity=96 time=0.0009615375
EXTRACT: note_on channel=4 note=67 velocity=96 time=0
EXTRACT: note_on channel=5 note=64 velocity=96 time=0
EXTRACT: note_on channel=3 note=60 velocity=0 time=0.2298074625
EXTRACT: note_on channel=0 note=69 velocity=80 time=0.0009615375
EXTRACT: note_on channel=1 note=67 velocity=96 time=0
EXTRACT: note_on channel=2 note=64 velocity=96 time=0
EXTRACT: note_on channel=3 note=60 velocity=96 time=0
EXTRACT: note_on channel=0 note=69 velocity=0 time=0.2298074625
EXTRACT: note_on channel=1 note=67 velocity=0 time=0
EXTRACT: note_on channel=2 note=64 velocity=0 time=0
EXTRACT: note_on channel=3 note=60 velocity=0 time=0
EXTRACT: note_on channel=6 note=60 velocity=0 time=0
EXTRACT: note_on channel=0 note=72 velocity=80 time=0.0009615375
EXTRACT: note_on channel=1 note=67 velocity=96 time=0
EXTRACT: note_on channel=2 note=64 velocity=96 time=0
EXTRACT: note_on channel=3 note=60 velocity=96 time=0
EXTRACT: note_on channel=6 note=60 velocity=96 time=0
EXTRACT: note_on channel=0 note=72 velocity=0 time=0.2298074625
EXTRACT: note_on channel=1 note=67 velocity=0 time=0
EXTRACT: note_on channel=2 note=64 velocity=0 time=0
EXTRACT: note_on channel=3 note=60 velocity=0 time=0
EXTRACT: note_on channel=0 note=69 velocity=80 time=0.0009615375
EXTRACT: note_on channel=1 note=67 velocity=96 time=0
EXTRACT: note_on channel=2 note=64 velocity=96 time=0
EXTRACT: note_on channel=3 note=60 velocity=96 time=0
EXTRACT: note_on channel=0 note=69 velocity=0 time=0.2298074625
EXTRACT: note_on channel=1 note=67 velocity=0 time=0
EXTRACT: note_on channel=2 note=64 velocity=0 time=0
EXTRACT: note_on channel=3 note=60 velocity=0 time=0
EXTRACT: note_on channel=4 note=67 velocity=0 time=0
EXTRACT: note_on channel=5 note=64 velocity=0 time=0
EXTRACT: note_on channel=0 note=72 velocity=80 time=0.0009615375
EXTRACT: note_on channel=1 note=67 velocity=96 time=0
EXTRACT: note_on channel=2 note=64 velocity=96 time=0
EXTRACT: note_on channel=3 note=62 velocity=96 time=0
EXTRACT: note_on channel=4 note=67 velocity=96 time=0
EXTRACT: note_on channel=5 note=64 velocity=96 time=0
EXTRACT: note_on channel=0 note=72 velocity=0 time=0.2298074625
EXTRACT: note_on channel=1 note=67 velocity=0 time=0
EXTRACT: note_on channel=2 note=64 velocity=0 time=0
EXTRACT: note_on channel=6 note=60 velocity=0 time=0
EXTRACT: note_on channel=0 note=69 velocity=80 time=0.0009615375
EXTRACT: note_on channel=1 note=67 velocity=96 time=0
EXTRACT: note_on channel=2 note=64 velocity=96 time=0
EXTRACT: note_on channel=6 note=60 velocity=96 time=0
EXTRACT: note_on channel=0 note=69 velocity=0 time=0.2298074625
EXTRACT: note_on channel=1 note=67 velocity=0 time=0
EXTRACT: note_on channel=2 note=64 velocity=0 time=0
EXTRACT: note_on channel=0 note=72 velocity=80 time=0.0009615375
EXTRACT: note_on channel=1 note=67 velocity=96 time=0
EXTRACT: note_on channel=2 note=64 velocity=96 time=0
EXTRACT: note_on channel=0 note=72 velocity=0 time=0.2298074625
EXTRACT: note_on channel=1 note=67 velocity=0 time=0
EXTRACT: note_on channel=2 note=64 velocity=0 time=0
EXTRACT: note_on channel=3 note=62 velocity=0 time=0
EXTRACT: note_on channel=6 note=60 velocity=0 time=0
EXTRACT: note_on channel=0 note=69 velocity=80 time=0.0009615375
EXTRACT: note_on channel=1 note=67 velocity=96 time=0
EXTRACT: note_on channel=2 note=64 velocity=96 time=0
EXTRACT: note_on channel=3 note=64 velocity=96 time=0
EXTRACT: note_on channel=6 note=60 velocity=96 time=0
EXTRACT: note_on channel=0 note=69 velocity=0 time=0.2298074625
EXTRACT: note_on channel=1 note=67 velocity=0 time=0
EXTRACT: note_on channel=2 note=64 velocity=0 time=0
EXTRACT: note_on channel=3 note=64 velocity=0 time=0
EXTRACT: note_on channel=4 note=67 velocity=0 time=0
EXTRACT: note_on channel=5 note=64 velocity=0 time=0
EXTRACT: note_on channel=6 note=60 velocity=0 time=0
EXTRACT: note_on channel=0 note=72 velocity=80 time=0.0009615375
EXTRACT: note_on channel=1 note=67 velocity=96 time=0
EXTRACT: note_on channel=2 note=64 velocity=96 time=0
EXTRACT: note_on channel=3 note=64 velocity=96 time=0
EXTRACT: note_on channel=4 note=67 velocity=96 time=0
EXTRACT: note_on channel=5 note=64 velocity=96 time=0
EXTRACT: note_on channel=6 note=60 velocity=96 time=0
EXTRACT: note_on channel=0 note=72 velocity=0 time=0.2298074625
EXTRACT: note_on channel=1 note=67 velocity=0 time=0
EXTRACT: note_on channel=2 note=64 velocity=0 time=0
EXTRACT: note_on channel=0 note=72 velocity=80 time=0.0009615375
EXTRACT: note_on channel=1 note=67 velocity=96 time=0
EXTRACT: note_on channel=2 note=64 velocity=96 time=0
EXTRACT: note_on channel=0 note=72 velocity=0 time=0.2298074625
EXTRACT: note_on channel=1 note=67 velocity=0 time=0
EXTRACT: note_on channel=2 note=64 velocity=0 time=0
EXTRACT: note_on channel=3 note=64 velocity=0 time=0
EXTRACT: note_on channel=0 note=69 velocity=80 time=0.0009615375
EXTRACT: note_on channel=1 note=67 velocity=96 time=0
EXTRACT: note_on channel=2 note=64 velocity=96 time=0
EXTRACT: note_on channel=0 note=69 velocity=0 time=0.2298074625
EXTRACT: note_on channel=1 note=67 velocity=0 time=0
EXTRACT: note_on channel=2 note=64 velocity=0 time=0
EXTRACT: note_on channel=0 note=72 velocity=80 time=0.0009615375
EXTRACT: note_on channel=1 note=67 velocity=96 time=0
EXTRACT: note_on channel=2 note=62 velocity=96 time=0
EXTRACT: note_on channel=3 note=55 velocity=96 time=0
EXTRACT: note_on channel=3 note=55 velocity=0 time=0.2298074625
EXTRACT: note_on channel=4 note=67 velocity=0 time=0
EXTRACT: note_on channel=5 note=64 velocity=0 time=0
EXTRACT: note_on channel=6 note=60 velocity=0 time=0
EXTRACT: note_on channel=3 note=59 velocity=96 time=0.0009615375
EXTRACT: note_on channel=4 note=71 velocity=96 time=0
EXTRACT: note_on channel=5 note=62 velocity=96 time=0
EXTRACT: note_on channel=6 note=55 velocity=96 time=0
EXTRACT: note_on channel=0 note=72 velocity=0 time=0.4605764625
EXTRACT: note_on channel=1 note=67 velocity=0 time=0
EXTRACT: note_on channel=2 note=62 velocity=0 time=0
EXTRACT: note_on channel=0 note=67 velocity=80 time=0.0009615375
EXTRACT: note_on channel=1 note=67 velocity=96 time=0
EXTRACT: note_on channel=2 note=62 velocity=96 time=0
EXTRACT: note_on channel=3 note=59 velocity=0 time=0.2298074625
EXTRACT: note_on channel=6 note=55 velocity=0 time=0
EXTRACT: note_on channel=3 note=59 velocity=96 time=0.0009615375
EXTRACT: note_on channel=6 note=55 velocity=96 time=0
EXTRACT: note_on channel=0 note=67 velocity=0 time=0.2298074625
EXTRACT: note_on channel=1 note=67 velocity=0 time=0
EXTRACT: note_on channel=2 note=62 velocity=0 time=0
EXTRACT: note_on channel=3 note=59 velocity=0 time=0
EXTRACT: note_on channel=4 note=71 velocity=0 time=0
EXTRACT: note_on channel=5 note=62 velocity=0 time=0
EXTRACT: note_on channel=3 note=59 velocity=96 time=0.0009615375
EXTRACT: note_on channel=4 note=71 velocity=96 time=0
EXTRACT: note_on channel=5 note=62 velocity=96 time=0
EXTRACT: note_on channel=0 note=69 velocity=80 time=0.230769
EXTRACT: note_on channel=1 note=67 velocity=96 time=0
EXTRACT: note_on channel=2 note=62 velocity=96 time=0
EXTRACT: note_on channel=0 note=69 velocity=0 time=0.2298074625
EXTRACT: note_on channel=1 note=67 velocity=0 time=0
EXTRACT: note_on channel=2 note=62 velocity=0 time=0
EXTRACT: note_on channel=6 note=55 velocity=0 time=0
EXTRACT: note_on channel=0 note=72 velocity=80 time=0.0009615375
EXTRACT: note_on channel=1 note=67 velocity=96 time=0
EXTRACT: note_on channel=2 note=62 velocity=96 time=0
EXTRACT: note_on channel=6 note=55 velocity=96 time=0
EXTRACT: note_on channel=0 note=72 velocity=0 time=0.2298074625
EXTRACT: note_on channel=1 note=67 velocity=0 time=0
EXTRACT: note_on channel=2 note=62 velocity=0 time=0
EXTRACT: note_on channel=3 note=59 velocity=0 time=0
EXTRACT: note_on channel=0 note=69 velocity=80 time=0.0009615375
EXTRACT: note_on channel=1 note=67 velocity=96 time=0
EXTRACT: note_on channel=2 note=62 velocity=96 time=0
EXTRACT: note_on channel=3 note=59 velocity=96 time=0
EXTRACT: note_on channel=0 note=69 velocity=0 time=0.2298074625
EXTRACT: note_on channel=1 note=67 velocity=0 time=0
EXTRACT: note_on channel=2 note=62 velocity=0 time=0
EXTRACT: note_on channel=3 note=59 velocity=0 time=0
EXTRACT: note_on channel=4 note=71 velocity=0 time=0
EXTRACT: note_on channel=5 note=62 velocity=0 time=0
EXTRACT: note_on channel=0 note=72 velocity=80 time=0.0009615375
EXTRACT: note_on channel=1 note=67 velocity=96 time=0
EXTRACT: note_on channel=2 note=62 velocity=96 time=0
EXTRACT: note_on channel=3 note=60 velocity=96 time=0
EXTRACT: note_on channel=4 note=71 velocity=96 time=0
EXTRACT: note_on channel=5 note=59 velocity=96 time=0
EXTRACT: note_on channel=0 note=72 velocity=0 time=0.2298074625
EXTRACT: note_on channel=1 note=67 velocity=0 time=0
EXTRACT: note_on channel=2 note=62 velocity=0 time=0
EXTRACT: note_on channel=6 note=55 velocity=0 time=0
EXTRACT: note_on channel=0 note=69 velocity=80 time=0.0009615375
EXTRACT: note_on channel=1 note=67 velocity=96 time=0
EXTRACT: note_on channel=2 note=62 velocity=96 time=0
EXTRACT: note_on channel=6 note=55 velocity=96 time=0
EXTRACT: note_on channel=0 note=69 velocity=0 time=0.2298074625
EXTRACT: note_on channel=1 note=67 velocity=0 time=0
EXTRACT: note_on channel=2 note=62 velocity=0 time=0
EXTRACT: note_on channel=0 note=72 velocity=80 time=0.0009615375
EXTRACT: note_on channel=1 note=67 velocity=96 time=0
EXTRACT: note_on channel=2 note=62 velocity=96 time=0
EXTRACT: note_on channel=0 note=72 velocity=0 time=0.2298074625
EXTRACT: note_on channel=1 note=67 velocity=0 time=0
EXTRACT: note_on channel=2 note=62 velocity=0 time=0
EXTRACT: note_on channel=3 note=60 velocity=0 time=0
EXTRACT: note_on channel=6 note=55 velocity=0 time=0
EXTRACT: note_on channel=0 note=69 velocity=80 time=0.0009615375
EXTRACT: note_on channel=1 note=67 velocity=96 time=0
EXTRACT: note_on channel=2 note=62 velocity=96 time=0
EXTRACT: note_on channel=3 note=62 velocity=96 time=0
EXTRACT: note_on channel=6 note=55 velocity=96 time=0
EXTRACT: note_on channel=0 note=69 velocity=0 time=0.2298074625
EXTRACT: note_on channel=1 note=67 velocity=0 time=0
EXTRACT: note_on channel=2 note=62 velocity=0 time=0
EXTRACT: note_on channel=3 note=62 velocity=0 time=0
EXTRACT: note_on channel=4 note=71 velocity=0 time=0
EXTRACT: note_on channel=5 note=59 velocity=0 time=0
EXTRACT: note_on channel=6 note=55 velocity=0 time=0
EXTRACT: note_on channel=0 note=72 velocity=80 time=0.0009615375
EXTRACT: note_on channel=1 note=67 velocity=96 time=0
EXTRACT: note_on channel=2 note=62 velocity=96 time=0
EXTRACT: note_on channel=3 note=62 velocity=96 time=0
EXTRACT: note_on channel=4 note=71 velocity=96 time=0
EXTRACT: note_on channel=5 note=59 velocity=96 time=0
EXTRACT: note_on channel=6 note=55 velocity=96 time=0
EXTRACT: note_on channel=0 note=72 velocity=0 time=0.2298074625
EXTRACT: note_on channel=1 note=67 velocity=0 time=0
EXTRACT: note_on channel=2 note=62 velocity=0 time=0
EXTRACT: note_on channel=3 note=62 velocity=0 time=0
EXTRACT: note_on channel=0 note=69 velocity=80 time=0.0009615375
EXTRACT: note_on channel=1 note=67 velocity=96 time=0
EXTRACT: note_on channel=2 note=62 velocity=96 time=0
EXTRACT: note_on channel=3 note=60 velocity=96 time=0
EXTRACT: note_on channel=0 note=69 velocity=0 time=0.2298074625
EXTRACT: note_on channel=1 note=67 velocity=0 time=0
EXTRACT: note_on channel=2 note=62 velocity=0 time=0
EXTRACT: note_on channel=3 note=60 velocity=0 time=0
EXTRACT: note_on channel=0 note=72 velocity=80 time=0.0009615375
EXTRACT: note_on channel=1 note=67 velocity=96 time=0
EXTRACT: note_on channel=2 note=62 velocity=96 time=0
EXTRACT: note_on channel=3 note=62 velocity=96 time=0
EXTRACT: note_on channel=0 note=72 velocity=0 time=0.2298074625
EXTRACT: note_on channel=1 note=67 velocity=0 time=0
EXTRACT: note_on channel=2 note=62 velocity=0 time=0
EXTRACT: note_on channel=3 note=62 velocity=0 time=0
EXTRACT: note_on channel=0 note=74 velocity=80 time=0.0009615375
EXTRACT: note_on channel=1 note=69 velocity=96 time=0
EXTRACT: note_on channel=2 note=65 velocity=96 time=0
EXTRACT: note_on channel=3 note=62 velocity=96 time=0
EXTRACT: note_on channel=4 note=71 velocity=0 time=0.2298074625
EXTRACT: note_on channel=5 note=59 velocity=0 time=0
EXTRACT: note_on channel=6 note=55 velocity=0 time=0
EXTRACT: note_on channel=4 note=69 velocity=96 time=0.0009615375
EXTRACT: note_on channel=5 note=60 velocity=96 time=0
EXTRACT: note_on channel=6 note=50 velocity=96 time=0
EXTRACT: note_on channel=0 note=74 velocity=0 time=0.4605764625
EXTRACT: note_on channel=1 note=69 velocity=0 time=0
EXTRACT: note_on channel=2 note=65 velocity=0 time=0
EXTRACT: note_on channel=3 note=62 velocity=0 time=0
EXTRACT: note_on channel=0 note=69 velocity=80 time=0.0009615375
EXTRACT: note_on channel=1 note=65 velocity=96 time=0
EXTRACT: note_on channel=2 note=62 velocity=96 time=0
EXTRACT: note_on channel=3 note=57 velocity=96 time=0
EXTRACT: note_on channel=6 note=50 velocity=0 time=0.2298074625
EXTRACT: note_on channel=6 note=50 velocity=96 time=0.0009615375
EXTRACT: note_on channel=0 note=69 velocity=0 time=0.2298074625
EXTRACT: note_on channel=1 note=65 velocity=0 time=0
EXTRACT: note_on channel=2 note=62 velocity=0 time=0
EXTRACT: note_on channel=3 note=57 velocity=0 time=0
EXTRACT: note_on channel=4 note=69 velocity=0 time=0
EXTRACT: note_on channel=5 note=60 velocity=0 time=0
EXTRACT: note_on channel=4 note=69 velocity=96 time=0.0009615375
EXTRACT: note_on channel=5 note=62 velocity=96 time=0
EXTRACT: note_on channel=0 note=67 velocity=80 time=0.230769
EXTRACT: note_on channel=1 note=65 velocity=96 time=0
EXTRACT: note_on channel=2 note=62 velocity=96 time=0
EXTRACT: note_on channel=0 note=67 velocity=0 time=0.2298074625
EXTRACT: note_on channel=1 note=65 velocity=0 time=0
EXTRACT: note_on channel=2 note=62 velocity=0 time=0
EXTRACT: note_on channel=6 note=50 velocity=0 time=0
EXTRACT: note_on channel=0 note=76 velocity=80 time=0.0009615375
EXTRACT: note_on channel=1 note=69 velocity=96 time=0
EXTRACT: note_on channel=2 note=65 velocity=96 time=0
EXTRACT: note_on channel=6 note=50 velocity=96 time=0
EXTRACT: note_on channel=0 note=76 velocity=0 time=0.2298074625
EXTRACT: note_on channel=1 note=69 velocity=0 time=0
EXTRACT: note_on channel=2 note=65 velocity=0 time=0
EXTRACT: note_on channel=0 note=74 velocity=80 time=0.0009615375
EXTRACT: note_on channel=1 note=69 velocity=96 time=0
EXTRACT: note_on channel=2 note=65 velocity=96 time=0
EXTRACT: note_on channel=4 note=69 velocity=0 time=0.2298074625
EXTRACT: note_on channel=5 note=62 velocity=0 time=0
EXTRACT: note_on channel=4 note=69 velocity=96 time=0.0009615375
EXTRACT: note_on channel=5 note=64 velocity=96 time=0
EXTRACT: note_on channel=6 note=50 velocity=0 time=0.2298074625
EXTRACT: note_on channel=6 note=50 velocity=96 time=0.0009615375
EXTRACT: note_on channel=0 note=74 velocity=0 time=0.2298074625
EXTRACT: note_on channel=1 note=69 velocity=0 time=0
EXTRACT: note_on channel=2 note=65 velocity=0 time=0
EXTRACT: note_on channel=6 note=50 velocity=0 time=0.230769
EXTRACT: note_on channel=6 note=50 velocity=96 time=0.0009615375
EXTRACT: note_on channel=4 note=69 velocity=0 time=0.2298074625
EXTRACT: note_on channel=5 note=64 velocity=0 time=0
EXTRACT: note_on channel=6 note=50 velocity=0 time=0
EXTRACT: note_on channel=4 note=69 velocity=96 time=0.0009615375
EXTRACT: note_on channel=5 note=65 velocity=96 time=0
EXTRACT: note_on channel=6 note=50 velocity=96 time=0
EXTRACT: note_on channel=0 note=77 velocity=80 time=0.461538
EXTRACT: note_on channel=0 note=77 velocity=0 time=0.2298074625
EXTRACT: note_on channel=0 note=76 velocity=80 time=0.0009615375
EXTRACT: note_on channel=0 note=76 velocity=0 time=0.2298074625
EXTRACT: note_on channel=4 note=69 velocity=0 time=0
EXTRACT: note_on channel=5 note=65 velocity=0 time=0
EXTRACT: note_on channel=6 note=50 velocity=0 time=0
EXTRACT: note_on channel=0 note=72 velocity=80 time=0.0009615375
EXTRACT: note_on channel=4 note=65 velocity=96 time=0
EXTRACT: note_on channel=5 note=67 velocity=96 time=0
EXTRACT: note_on channel=6 note=53 velocity=96 time=0
EXTRACT: note_on channel=0 note=72 velocity=0 time=0.2298074625
EXTRACT: note_on channel=0 note=64 velocity=80 time=0.0009615375
EXTRACT: note_on channel=0 note=64 velocity=0 time=0.2298074625
EXTRACT: note_on channel=0 note=65 velocity=80 time=0.0009615375
EXTRACT: note_on channel=0 note=65 velocity=0 time=0.2298074625
EXTRACT: note_on channel=6 note=53 velocity=0 time=0
EXTRACT: note_on channel=0 note=64 velocity=80 time=0.0009615375
EXTRACT: note_on channel=6 note=53 velocity=96 time=0
EXTRACT: note_on channel=0 note=64 velocity=0 time=0.2298074625
EXTRACT: note_on channel=4 note=65 velocity=0 time=0
EXTRACT: note_on channel=5 note=67 velocity=0 time=0
EXTRACT: note_on channel=0 note=65 velocity=80 time=0.0009615375
EXTRACT: note_on channel=4 note=65 velocity=96 time=0
EXTRACT: note_on channel=5 note=69 velocity=96 time=0
EXTRACT: note_on channel=0 note=65 velocity=0 time=0.2298074625
EXTRACT: note_on channel=0 note=64 velocity=80 time=0.0009615375
EXTRACT: note_on channel=0 note=64 velocity=0 time=0.2298074625
EXTRACT: note_on channel=6 note=53 velocity=0 time=0
EXTRACT: note_on channel=0 note=65 velocity=80 time=0.0009615375
EXTRACT: note_on channel=6 note=53 velocity=96 time=0
EXTRACT: note_on channel=0 note=65 velocity=0 time=0.2298074625
EXTRACT: note_on channel=0 note=64 velocity=80 time=0.0009615375
EXTRACT: note_on channel=0 note=64 velocity=0 time=0.2298074625
EXTRACT: note_on channel=4 note=65 velocity=0 time=0
EXTRACT: note_on channel=5 note=69 velocity=0 time=0
EXTRACT: note_on channel=0 note=65 velocity=80 time=0.0009615375
EXTRACT: note_on channel=1 note=65 velocity=96 time=0
EXTRACT: note_on channel=4 note=65 velocity=96 time=0
EXTRACT: note_on channel=5 note=71 velocity=96 time=0
EXTRACT: note_on channel=0 note=65 velocity=0 time=0.2298074625
EXTRACT: note_on channel=1 note=65 velocity=0 time=0
EXTRACT: note_on channel=6 note=53 velocity=0 time=0
EXTRACT: note_on channel=0 note=64 velocity=80 time=0.0009615375
EXTRACT: note_on channel=1 note=64 velocity=96 time=0
EXTRACT: note_on channel=6 note=53 velocity=96 time=0
EXTRACT: note_on channel=0 note=64 velocity=0 time=0.2298074625
EXTRACT: note_on channel=1 note=64 velocity=0 time=0
EXTRACT: note_on channel=0 note=65 velocity=80 time=0.0009615375
EXTRACT: note_on channel=1 note=65 velocity=96 time=0
EXTRACT: note_on channel=2 note=65 velocity=96 time=0
EXTRACT: note_on channel=0 note=65 velocity=0 time=0.2298074625
EXTRACT: note_on channel=1 note=65 velocity=0 time=0
EXTRACT: note_on channel=2 note=65 velocity=0 time=0
EXTRACT: note_on channel=6 note=53 velocity=0 time=0
EXTRACT: note_on channel=0 note=64 velocity=80 time=0.0009615375
EXTRACT: note_on channel=1 note=64 velocity=96 time=0
EXTRACT: note_on channel=2 note=64 velocity=96 time=0
EXTRACT: note_on channel=6 note=53 velocity=96 time=0
EXTRACT: note_on channel=0 note=64 velocity=0 time=0.2298074625
EXTRACT: note_on channel=1 note=64 velocity=0 time=0
EXTRACT: note_on channel=2 note=64 velocity=0 time=0
EXTRACT: note_on channel=4 note=65 velocity=0 time=0
EXTRACT: note_on channel=5 note=71 velocity=0 time=0
EXTRACT: note_on channel=6 note=53 velocity=0 time=0
EXTRACT: note_on channel=0 note=65 velocity=80 time=0.0009615375
EXTRACT: note_on channel=1 note=65 velocity=96 time=0
EXTRACT: note_on channel=2 note=65 velocity=96 time=0
EXTRACT: note_on channel=3 note=65 velocity=96 time=0
EXTRACT: note_on channel=4 note=65 velocity=96 time=0
EXTRACT: note_on channel=5 note=72 velocity=96 time=0
EXTRACT: note_on channel=6 note=53 velocity=96 time=0
EXTRACT: note_on channel=0 note=65 velocity=0 time=0.2298074625
EXTRACT: note_on channel=1 note=65 velocity=0 time=0
EXTRACT: note_on channel=2 note=65 velocity=0 time=0
EXTRACT: note_on channel=3 note=65 velocity=0 time=0
EXTRACT: note_on channel=0 note=64 velocity=80 time=0.0009615375
EXTRACT: note_on channel=1 note=64 velocity=96 time=0
EXTRACT: note_on channel=2 note=64 velocity=96 time=0
EXTRACT: note_on channel=3 note=64 velocity=96 time=0
EXTRACT: note_on channel=0 note=64 velocity=0 time=0.2298074625
EXTRACT: note_on channel=1 note=64 velocity=0 time=0
EXTRACT: note_on channel=2 note=64 velocity=0 time=0
EXTRACT: note_on channel=3 note=64 velocity=0 time=0
EXTRACT: note_on channel=4 note=65 velocity=0 time=0
EXTRACT: note_on channel=5 note=72 velocity=0 time=0
EXTRACT: note_on channel=6 note=53 velocity=0 time=0
EXTRACT: note_on channel=0 note=72 velocity=80 time=0.0009615375
EXTRACT: note_on channel=1 note=67 velocity=96 time=0
EXTRACT: note_on channel=2 note=64 velocity=96 time=0
EXTRACT: note_on channel=3 note=60 velocity=96 time=0
EXTRACT: note_on channel=0 note=72 velocity=0 time=0.4605764625
EXTRACT: note_on channel=1 note=67 velocity=0 time=0
EXTRACT: note_on channel=2 note=64 velocity=0 time=0
EXTRACT: note_on channel=3 note=60 velocity=0 time=0
