EXTRACT: control_change channel=0 control=121 value=0 time=0
EXTRACT: program_change channel=0 program=25 time=0
EXTRACT: control_change channel=0 control=7 value=100 time=0
EXTRACT: control_change channel=0 control=10 value=64 time=0
EXTRACT: control_change channel=0 control=91 value=0 time=0
EXTRACT: control_change channel=0 control=93 value=0 time=0
EXTRACT: control_change channel=9 control=121 value=0 time=0
EXTRACT: program_change channel=9 program=57 time=0
EXTRACT: control_change channel=9 control=7 value=100 time=0
EXTRACT: control_change channel=9 control=10 value=64 time=0
EXTRACT: control_change channel=9 control=91 value=0 time=0
EXTRACT: control_change channel=9 control=93 value=0 time=0
EXTRACT: control_change channel=1 control=121 value=0 time=0
EXTRACT: program_change channel=1 program=25 time=0
EXTRACT: control_change channel=1 control=7 value=100 time=0
EXTRACT: control_change channel=1 control=10 value=64 time=0
EXTRACT: control_change channel=1 control=91 value=0 time=0
EXTRACT: control_change channel=1 control=93 value=0 time=0
EXTRACT: control_change channel=2 control=121 value=0 time=0
EXTRACT: program_change channel=2 program=0 time=0
EXTRACT: control_change channel=2 control=7 value=100 time=0
EXTRACT: control_change channel=2 control=10 value=64 time=0
EXTRACT: control_change channel=2 control=91 value=0 time=0
EXTRACT: control_change channel=2 control=93 value=0 time=0
EXTRACT: control_change channel=3 control=121 value=0 time=0
EXTRACT: program_change channel=3 program=25 time=0
EXTRACT: control_change channel=3 control=7 value=100 time=0
EXTRACT: control_change channel=3 control=10 value=64 time=0
EXTRACT: control_change channel=3 control=91 value=0 time=0
EXTRACT: control_change channel=3 control=93 value=0 time=0
EXTRACT: control_change channel=4 control=121 value=0 time=0
EXTRACT: program_change channel=4 program=19 time=0
EXTRACT: control_change channel=4 control=7 value=100 time=0
EXTRACT: control_change channel=4 control=10 value=64 time=0
EXTRACT: control_change channel=4 control=91 value=0 time=0
EXTRACT: control_change channel=4 control=93 value=0 time=0
EXTRACT: note_on channel=4 note=47 velocity=80 time=0
EXTRACT: note_on channel=2 note=66 velocity=80 time=0.5
EXTRACT: note_on channel=3 note=59 velocity=80 time=0
EXTRACT: note_on channel=3 note=51 velocity=80 time=0
EXTRACT: note_on channel=2 note=66 velocity=0 time=0.35520833333333335
EXTRACT: note_on channel=3 note=59 velocity=0 time=0.01875
EXTRACT: note_on channel=2 note=66 velocity=80 time=0.0010416666666666667
EXTRACT: note_on channel=3 note=59 velocity=80 time=0
EXTRACT: note_on channel=2 note=66 velocity=0 time=0.23645833333333333
EXTRACT: note_on channel=3 note=59 velocity=0 time=0.0125
EXTRACT: note_on channel=2 note=66 velocity=80 time=0.0010416666666666667
EXTRACT: note_on channel=3 note=59 velocity=80 time=0
EXTRACT: note_on channel=2 note=66 velocity=0 time=0.11770833333333333
EXTRACT: note_on channel=3 note=51 velocity=0 time=0.00625
EXTRACT: note_on channel=3 note=59 velocity=0 time=0
EXTRACT: note_on channel=2 note=66 velocity=80 time=0.0010416666666666667
EXTRACT: note_on channel=3 note=59 velocity=80 time=0
EXTRACT: note_on channel=3 note=51 velocity=80 time=0
EXTRACT: note_on channel=2 note=66 velocity=0 time=0.23645833333333333
EXTRACT: note_on channel=3 note=59 velocity=0 time=0.0125
EXTRACT: note_on channel=2 note=66 velocity=80 time=0.0010416666666666667
EXTRACT: note_on channel=3 note=59 velocity=80 time=0
EXTRACT: note_on channel=2 note=66 velocity=0 time=0.23645833333333333
EXTRACT: note_on channel=3 note=51 velocity=0 time=0.0125
EXTRACT: note_on channel=3 note=59 velocity=0 time=0
EXTRACT: note_on channel=2 note=66 velocity=80 time=0.0010416666666666667
EXTRACT: note_on channel=3 note=59 velocity=80 time=0
EXTRACT: note_on channel=3 note=51 velocity=80 time=0
EXTRACT: note_on channel=2 note=66 velocity=0 time=0.11770833333333333
EXTRACT: note_on channel=3 note=59 velocity=0 time=0.00625
EXTRACT: note_on channel=2 note=66 velocity=80 time=0.0010416666666666667
EXTRACT: note_on channel=3 note=59 velocity=80 time=0
EXTRACT: note_on channel=2 note=66 velocity=0 time=0.11770833333333333
EXTRACT: note_on channel=3 note=51 velocity=0 time=0.00625
EXTRACT: note_on channel=3 note=59 velocity=0 time=0
EXTRACT: note_on channel=4 note=47 velocity=0 time=0
EXTRACT: note_on channel=3 note=49 velocity=80 time=0.0010416666666666667
EXTRACT: note_on channel=4 note=46 velocity=80 time=0
EXTRACT: note_on channel=2 note=66 velocity=80 time=0.5
EXTRACT: note_on channel=3 note=59 velocity=80 time=0
EXTRACT: note_on channel=2 note=66 velocity=0 time=0.35520833333333335
EXTRACT: note_on channel=3 note=59 velocity=0 time=0.01875
EXTRACT: note_on channel=2 note=66 velocity=80 time=0.0010416666666666667
EXTRACT: note_on channel=3 note=59 velocity=80 time=0
EXTRACT: note_on channel=2 note=66 velocity=0 time=0.23645833333333333
EXTRACT: note_on channel=3 note=59 velocity=0 time=0.0125
EXTRACT: note_on channel=2 note=66 velocity=80 time=0.0010416666666666667
EXTRACT: note_on channel=3 note=59 velocity=80 time=0
EXTRACT: note_on channel=2 note=66 velocity=0 time=0.11770833333333333
EXTRACT: note_on channel=3 note=59 velocity=0 time=0.00625
EXTRACT: note_on channel=2 note=66 velocity=80 time=0.0010416666666666667
EXTRACT: note_on channel=3 note=59 velocity=80 time=0
EXTRACT: note_on channel=2 note=66 velocity=0 time=0.23645833333333333
EXTRACT: note_on channel=3 note=49 velocity=0 time=0.0125
EXTRACT: note_on channel=3 note=59 velocity=0 time=0
EXTRACT: note_on channel=2 note=66 velocity=80 time=0.0010416666666666667
EXTRACT: note_on channel=3 note=59 velocity=80 time=0
EXTRACT: note_on channel=3 note=49 velocity=80 time=0
EXTRACT: note_on channel=2 note=66 velocity=0 time=0.23645833333333333
EXTRACT: note_on channel=3 note=59 velocity=0 time=0.0125
EXTRACT: note_on channel=3 note=49 velocity=0 time=0
EXTRACT: note_on channel=2 note=66 velocity=80 time=0.0010416666666666667
EXTRACT: note_on channel=3 note=59 velocity=80 time=0
EXTRACT: note_on channel=3 note=49 velocity=80 time=0
EXTRACT: note_on channel=2 note=66 velocity=0 time=0.11770833333333333
EXTRACT: note_on channel=3 note=59 velocity=0 time=0.00625
EXTRACT: note_on channel=3 note=49 velocity=0 time=0
EXTRACT: note_on channel=2 note=66 velocity=80 time=0.0010416666666666667
EXTRACT: note_on channel=3 note=59 velocity=80 time=0
EXTRACT: note_on channel=3 note=49 velocity=80 time=0
EXTRACT: note_on channel=2 note=66 velocity=0 time=0.11770833333333333
EXTRACT: note_on channel=3 note=59 velocity=0 time=0.00625
EXTRACT: note_on channel=3 note=49 velocity=0 time=0
EXTRACT: note_on channel=4 note=46 velocity=0 time=0
EXTRACT: note_on channel=3 note=51 velocity=80 time=0.0010416666666666667
EXTRACT: note_on channel=4 note=44 velocity=80 time=0
EXTRACT: note_on channel=2 note=63 velocity=80 time=0.5
EXTRACT: note_on channel=3 note=59 velocity=80 time=0
EXTRACT: note_on channel=2 note=63 velocity=0 time=0.35520833333333335
EXTRACT: note_on channel=3 note=59 velocity=0 time=0.01875
EXTRACT: note_on channel=2 note=63 velocity=80 time=0.0010416666666666667
EXTRACT: note_on channel=3 note=59 velocity=80 time=0
EXTRACT: note_on channel=3 note=51 velocity=0 time=0.12395833333333334
EXTRACT: note_on channel=2 note=63 velocity=0 time=0.1125
EXTRACT: note_on channel=3 note=59 velocity=0 time=0.0125
EXTRACT: note_on channel=2 note=63 velocity=80 time=0.0010416666666666667
EXTRACT: note_on channel=3 note=59 velocity=80 time=0
EXTRACT: note_on channel=2 note=63 velocity=0 time=0.11770833333333333
EXTRACT: note_on channel=3 note=59 velocity=0 time=0.00625
EXTRACT: note_on channel=2 note=63 velocity=80 time=0.0010416666666666667
EXTRACT: note_on channel=3 note=59 velocity=80 time=0
EXTRACT: note_on channel=2 note=63 velocity=0 time=0.23645833333333333
EXTRACT: note_on channel=3 note=59 velocity=0 time=0.0125
EXTRACT: note_on channel=2 note=63 velocity=80 time=0.0010416666666666667
EXTRACT: note_on channel=3 note=59 velocity=80 time=0
EXTRACT: note_on channel=3 note=51 velocity=80 time=0
EXTRACT: note_on channel=2 note=63 velocity=0 time=0.23645833333333333
EXTRACT: note_on channel=3 note=59 velocity=0 time=0.0125
EXTRACT: note_on channel=3 note=51 velocity=0 time=0
EXTRACT: note_on channel=2 note=63 velocity=80 time=0.0010416666666666667
EXTRACT: note_on channel=3 note=59 velocity=80 time=0
EXTRACT: note_on channel=3 note=51 velocity=80 time=0
EXTRACT: note_on channel=2 note=63 velocity=0 time=0.11770833333333333
EXTRACT: note_on channel=3 note=59 velocity=0 time=0.00625
EXTRACT: note_on channel=3 note=51 velocity=0 time=0
EXTRACT: note_on channel=2 note=63 velocity=80 time=0.0010416666666666667
EXTRACT: note_on channel=3 note=59 velocity=80 time=0
EXTRACT: note_on channel=3 note=51 velocity=80 time=0
EXTRACT: note_on channel=2 note=63 velocity=0 time=0.11770833333333333
EXTRACT: note_on channel=3 note=59 velocity=0 time=0.00625
EXTRACT: note_on channel=3 note=51 velocity=0 time=0
EXTRACT: note_on channel=4 note=44 velocity=0 time=0
EXTRACT: note_on channel=4 note=52 velocity=80 time=0
EXTRACT: note_on channel=2 note=63 velocity=80 time=0.638297
EXTRACT: note_on channel=3 note=59 velocity=80 time=0
EXTRACT: note_on channel=3 note=56 velocity=80 time=0
EXTRACT: note_on channel=2 note=63 velocity=0 time=0.45345682708333335
EXTRACT: note_on channel=3 note=59 velocity=0 time=0.0239361375
EXTRACT: note_on channel=2 note=63 velocity=80 time=0.0013297854166666667
EXTRACT: note_on channel=3 note=59 velocity=80 time=0
EXTRACT: note_on channel=2 note=63 velocity=0 time=0.45345682708333335
EXTRACT: note_on channel=3 note=56 velocity=0 time=0.0239361375
EXTRACT: note_on channel=3 note=59 velocity=0 time=0
EXTRACT: note_on channel=2 note=63 velocity=80 time=0.0013297854166666667
EXTRACT: note_on channel=3 note=59 velocity=80 time=0
EXTRACT: note_on channel=3 note=54 velocity=80 time=0
EXTRACT: note_on channel=3 note=54 velocity=0 time=0.15824446458333333
EXTRACT: note_on channel=3 note=56 velocity=80 time=0.0013297854166666667
EXTRACT: note_on channel=2 note=63 velocity=0 time=0.14228703958333333
EXTRACT: note_on channel=2 note=63 velocity=80 time=0.017287210416666667
EXTRACT: note_on channel=2 note=63 velocity=0 time=0.15026575208333334
EXTRACT: note_on channel=3 note=59 velocity=0 time=0.0079787125
EXTRACT: note_on channel=2 note=63 velocity=80 time=0.0013297854166666667
EXTRACT: note_on channel=3 note=59 velocity=80 time=0
EXTRACT: note_on channel=2 note=63 velocity=0 time=0.15026575208333334
EXTRACT: note_on channel=3 note=56 velocity=0 time=0.0079787125
EXTRACT: note_on channel=3 note=59 velocity=0 time=0
EXTRACT: note_on channel=2 note=63 velocity=80 time=0.0013297854166666667
EXTRACT: note_on channel=3 note=59 velocity=80 time=0
EXTRACT: note_on channel=3 note=54 velocity=80 time=0
EXTRACT: note_on channel=2 note=63 velocity=0 time=0.15026575208333334
EXTRACT: note_on channel=3 note=59 velocity=0 time=0.0079787125
EXTRACT: note_on channel=2 note=63 velocity=80 time=0.0013297854166666667
EXTRACT: note_on channel=3 note=59 velocity=80 time=0
EXTRACT: note_on channel=2 note=63 velocity=0 time=0.15026575208333334
EXTRACT: note_on channel=3 note=54 velocity=0 time=0.0079787125
EXTRACT: note_on channel=3 note=59 velocity=0 time=0
EXTRACT: note_on channel=4 note=52 velocity=0 time=0
EXTRACT: note_on channel=1 note=71 velocity=80 time=0.0013297854166666667
EXTRACT: note_on channel=4 note=47 velocity=80 time=0
EXTRACT: note_on channel=2 note=66 velocity=80 time=0.638297
EXTRACT: note_on channel=3 note=59 velocity=80 time=0
EXTRACT: note_on channel=3 note=51 velocity=80 time=0
EXTRACT: note_on channel=2 note=66 velocity=0 time=0.45345682708333335
EXTRACT: note_on channel=3 note=59 velocity=0 time=0.0239361375
EXTRACT: note_on channel=2 note=66 velocity=80 time=0.0013297854166666667
EXTRACT: note_on channel=3 note=59 velocity=80 time=0
EXTRACT: note_on channel=3 note=59 velocity=0 time=0.31781871458333333
EXTRACT: note_on channel=3 note=59 velocity=80 time=0.0013297854166666667
EXTRACT: note_on channel=2 note=66 velocity=0 time=0.13430832708333335
EXTRACT: note_on channel=3 note=51 velocity=0 time=0.0239361375
EXTRACT: note_on channel=3 note=59 velocity=0 time=0
EXTRACT: note_on channel=2 note=66 velocity=80 time=0.0013297854166666667
EXTRACT: note_on channel=3 note=59 velocity=80 time=0
EXTRACT: note_on channel=3 note=51 velocity=80 time=0
EXTRACT: note_on channel=2 note=66 velocity=0 time=0.30186128958333336
EXTRACT: note_on channel=3 note=59 velocity=0 time=0.015957425
EXTRACT: note_on channel=2 note=66 velocity=80 time=0.0013297854166666667
EXTRACT: note_on channel=3 note=59 velocity=80 time=0
EXTRACT: note_on channel=2 note=66 velocity=0 time=0.15026575208333334
EXTRACT: note_on channel=2 note=66 velocity=80 time=0.009308497916666667
EXTRACT: note_on channel=2 note=66 velocity=0 time=0.15026575208333334
EXTRACT: note_on channel=3 note=51 velocity=0 time=0.0079787125
EXTRACT: note_on channel=3 note=59 velocity=0 time=0
EXTRACT: note_on channel=2 note=66 velocity=80 time=0.0013297854166666667
EXTRACT: note_on channel=3 note=59 velocity=80 time=0
EXTRACT: note_on channel=3 note=51 velocity=80 time=0
EXTRACT: note_on channel=2 note=66 velocity=0 time=0.15026575208333334
EXTRACT: note_on channel=3 note=59 velocity=0 time=0.0079787125
EXTRACT: note_on channel=2 note=66 velocity=80 time=0.0013297854166666667
EXTRACT: note_on channel=3 note=59 velocity=80 time=0
EXTRACT: note_on channel=2 note=66 velocity=0 time=0.15026575208333334
EXTRACT: note_on channel=1 note=71 velocity=0 time=0.0079787125
EXTRACT: note_on channel=3 note=51 velocity=0 time=0
EXTRACT: note_on channel=3 note=59 velocity=0 time=0
EXTRACT: note_on channel=4 note=47 velocity=0 time=0
EXTRACT: note_on channel=1 note=73 velocity=80 time=0.0013297854166666667
EXTRACT: note_on channel=3 note=49 velocity=80 time=0
EXTRACT: note_on channel=4 note=46 velocity=80 time=0
EXTRACT: note_on channel=2 note=66 velocity=80 time=0.638297
EXTRACT: note_on channel=3 note=59 velocity=80 time=0
EXTRACT: note_on channel=2 note=66 velocity=0 time=0.45345682708333335
EXTRACT: note_on channel=3 note=59 velocity=0 time=0.0239361375
EXTRACT: note_on channel=2 note=66 velocity=80 time=0.0013297854166666667
EXTRACT: note_on channel=3 note=59 velocity=80 time=0
EXTRACT: note_on channel=3 note=59 velocity=0 time=0.31781871458333333
EXTRACT: note_on channel=3 note=59 velocity=80 time=0.0013297854166666667
EXTRACT: note_on channel=2 note=66 velocity=0 time=0.13430832708333335
EXTRACT: note_on channel=3 note=59 velocity=0 time=0.0239361375
EXTRACT: note_on channel=2 note=66 velocity=80 time=0.0013297854166666667
EXTRACT: note_on channel=3 note=59 velocity=80 time=0
EXTRACT: note_on channel=2 note=66 velocity=0 time=0.30186128958333336
EXTRACT: note_on channel=1 note=73 velocity=0 time=0.015957425
EXTRACT: note_on channel=3 note=49 velocity=0 time=0
EXTRACT: note_on channel=3 note=59 velocity=0 time=0
EXTRACT: note_on channel=1 note=76 velocity=80 time=0.0013297854166666667
EXTRACT: note_on channel=2 note=66 velocity=80 time=0
EXTRACT: note_on channel=3 note=59 velocity=80 time=0
EXTRACT: note_on channel=3 note=49 velocity=80 time=0
EXTRACT: note_on channel=2 note=66 velocity=0 time=0.15026575208333334
EXTRACT: note_on channel=2 note=66 velocity=80 time=0.009308497916666667
EXTRACT: note_on channel=2 note=66 velocity=0 time=0.15026575208333334
EXTRACT: note_on channel=3 note=59 velocity=0 time=0.0079787125
EXTRACT: note_on channel=3 note=49 velocity=0 time=0
EXTRACT: note_on channel=2 note=66 velocity=80 time=0.0013297854166666667
EXTRACT: note_on channel=3 note=59 velocity=80 time=0
EXTRACT: note_on channel=3 note=49 velocity=80 time=0
EXTRACT: note_on channel=2 note=66 velocity=0 time=0.15026575208333334
EXTRACT: note_on channel=3 note=59 velocity=0 time=0.0079787125
EXTRACT: note_on channel=3 note=49 velocity=0 time=0
EXTRACT: note_on channel=2 note=66 velocity=80 time=0.0013297854166666667
EXTRACT: note_on channel=3 note=59 velocity=80 time=0
EXTRACT: note_on channel=3 note=49 velocity=80 time=0
EXTRACT: note_on channel=2 note=66 velocity=0 time=0.15026575208333334
EXTRACT: note_on channel=1 note=76 velocity=0 time=0.0079787125
EXTRACT: note_on channel=3 note=59 velocity=0 time=0
EXTRACT: note_on channel=3 note=49 velocity=0 time=0
EXTRACT: note_on channel=4 note=46 velocity=0 time=0
EXTRACT: note_on channel=1 note=75 velocity=80 time=0.0013297854166666667
EXTRACT: note_on channel=3 note=51 velocity=80 time=0
EXTRACT: note_on channel=4 note=44 velocity=80 time=0
EXTRACT: note_on channel=2 note=66 velocity=80 time=0.638297
EXTRACT: note_on channel=2 note=63 velocity=80 time=0
EXTRACT: note_on channel=3 note=59 velocity=80 time=0
EXTRACT: note_on channel=2 note=66 velocity=0 time=0.45345682708333335
EXTRACT: note_on channel=2 note=63 velocity=0 time=0
EXTRACT: note_on channel=3 note=59 velocity=0 time=0.0239361375
EXTRACT: note_on channel=2 note=66 velocity=80 time=0.0013297854166666667
EXTRACT: note_on channel=2 note=63 velocity=80 time=0
EXTRACT: note_on channel=3 note=59 velocity=80 time=0
EXTRACT: note_on channel=3 note=51 velocity=0 time=0.15824446458333333
EXTRACT: note_on channel=3 note=59 velocity=0 time=0.15957425
EXTRACT: note_on channel=3 note=59 velocity=80 time=0.0013297854166666667
EXTRACT: note_on channel=2 note=66 velocity=0 time=0.13430832708333335
EXTRACT: note_on channel=2 note=63 velocity=0 time=0
EXTRACT: note_on channel=3 note=59 velocity=0 time=0.0239361375
EXTRACT: note_on channel=2 note=66 velocity=80 time=0.0013297854166666667
EXTRACT: note_on channel=2 note=63 velocity=80 time=0
EXTRACT: note_on channel=3 note=59 velocity=80 time=0
EXTRACT: note_on channel=2 note=66 velocity=0 time=0.30186128958333336
EXTRACT: note_on channel=2 note=63 velocity=0 time=0
EXTRACT: note_on channel=3 note=59 velocity=0 time=0.015957425
EXTRACT: note_on channel=2 note=66 velocity=80 time=0.0013297854166666667
EXTRACT: note_on channel=2 note=63 velocity=80 time=0
EXTRACT: note_on channel=3 note=59 velocity=80 time=0
EXTRACT: note_on channel=3 note=51 velocity=80 time=0
EXTRACT: note_on channel=2 note=66 velocity=0 time=0.15026575208333334
EXTRACT: note_on channel=2 note=63 velocity=0 time=0
EXTRACT: note_on channel=2 note=66 velocity=80 time=0.009308497916666667
EXTRACT: note_on channel=2 note=63 velocity=80 time=0
EXTRACT: note_on channel=2 note=66 velocity=0 time=0.15026575208333334
EXTRACT: note_on channel=2 note=63 velocity=0 time=0
EXTRACT: note_on channel=3 note=59 velocity=0 time=0.0079787125
EXTRACT: note_on channel=3 note=51 velocity=0 time=0
EXTRACT: note_on channel=2 note=66 velocity=80 time=0.0013297854166666667
EXTRACT: note_on channel=2 note=63 velocity=80 time=0
EXTRACT: note_on channel=3 note=59 velocity=80 time=0
EXTRACT: note_on channel=3 note=51 velocity=80 time=0
EXTRACT: note_on channel=2 note=66 velocity=0 time=0.15026575208333334
EXTRACT: note_on channel=2 note=63 velocity=0 time=0
EXTRACT: note_on channel=3 note=59 velocity=0 time=0.0079787125
EXTRACT: note_on channel=3 note=51 velocity=0 time=0
EXTRACT: note_on channel=2 note=66 velocity=80 time=0.0013297854166666667
EXTRACT: note_on channel=2 note=63 velocity=80 time=0
EXTRACT: note_on channel=3 note=59 velocity=80 time=0
EXTRACT: note_on channel=3 note=51 velocity=80 time=0
EXTRACT: note_on channel=2 note=66 velocity=0 time=0.15026575208333334
EXTRACT: note_on channel=2 note=63 velocity=0 time=0
EXTRACT: note_on channel=3 note=59 velocity=0 time=0.0079787125
EXTRACT: note_on channel=3 note=51 velocity=0 time=0
EXTRACT: note_on channel=4 note=44 velocity=0 time=0
EXTRACT: note_on channel=4 note=52 velocity=80 time=0.0013297854166666667
EXTRACT: note_on channel=2 note=66 velocity=80 time=0.638297
EXTRACT: note_on channel=2 note=63 velocity=80 time=0
EXTRACT: note_on channel=3 note=59 velocity=80 time=0
EXTRACT: note_on channel=2 note=66 velocity=0 time=0.45345682708333335
EXTRACT: note_on channel=2 note=63 velocity=0 time=0
EXTRACT: note_on channel=3 note=59 velocity=0 time=0.0239361375
EXTRACT: note_on channel=2 note=66 velocity=80 time=0.0013297854166666667
EXTRACT: note_on channel=2 note=63 velocity=80 time=0
EXTRACT: note_on channel=3 note=59 velocity=80 time=0
EXTRACT: note_on channel=2 note=66 velocity=0 time=0.45345682708333335
EXTRACT: note_on channel=2 note=63 velocity=0 time=0
EXTRACT: note_on channel=3 note=59 velocity=0 time=0.0239361375
EXTRACT: note_on channel=2 note=66 velocity=80 time=0.0013297854166666667
EXTRACT: note_on channel=2 note=63 velocity=80 time=0
EXTRACT: note_on channel=3 note=59 velocity=80 time=0
EXTRACT: note_on channel=2 note=66 velocity=0 time=0.30186128958333336
EXTRACT: note_on channel=2 note=63 velocity=0 time=0
EXTRACT: note_on channel=2 note=66 velocity=80 time=0.017287210416666667
EXTRACT: note_on channel=2 note=63 velocity=80 time=0
EXTRACT: note_on channel=2 note=66 velocity=0 time=0.15026575208333334
EXTRACT: note_on channel=2 note=63 velocity=0 time=0
EXTRACT: note_on channel=3 note=59 velocity=0 time=0.0079787125
EXTRACT: note_on channel=2 note=66 velocity=80 time=0.0013297854166666667
EXTRACT: note_on channel=2 note=63 velocity=80 time=0
EXTRACT: note_on channel=3 note=59 velocity=80 time=0
EXTRACT: note_on channel=2 note=66 velocity=0 time=0.15026575208333334
EXTRACT: note_on channel=2 note=63 velocity=0 time=0
EXTRACT: note_on channel=3 note=59 velocity=0 time=0.0079787125
EXTRACT: note_on channel=2 note=66 velocity=80 time=0.0013297854166666667
EXTRACT: note_on channel=2 note=63 velocity=80 time=0
EXTRACT: note_on channel=3 note=59 velocity=80 time=0
EXTRACT: note_on channel=2 note=66 velocity=0 time=0.15026575208333334
EXTRACT: note_on channel=2 note=63 velocity=0 time=0
EXTRACT: note_on channel=3 note=59 velocity=0 time=0.0079787125
EXTRACT: note_on channel=2 note=66 velocity=80 time=0.0013297854166666667
EXTRACT: note_on channel=2 note=63 velocity=80 time=0
EXTRACT: note_on channel=3 note=59 velocity=80 time=0
EXTRACT: note_on channel=2 note=66 velocity=0 time=0.15026575208333334
EXTRACT: note_on channel=2 note=63 velocity=0 time=0
EXTRACT: note_on channel=1 note=75 velocity=0 time=0.0079787125
EXTRACT: note_on channel=3 note=59 velocity=0 time=0
EXTRACT: note_on channel=4 note=52 velocity=0 time=0
EXTRACT: note_on channel=4 note=47 velocity=80 time=0.0013297854166666667
EXTRACT: note_on channel=0 note=59 velocity=80 time=0.638297
EXTRACT: note_on channel=2 note=66 velocity=80 time=0
EXTRACT: note_on channel=3 note=59 velocity=80 time=0
EXTRACT: note_on channel=3 note=51 velocity=80 time=0
EXTRACT: note_on channel=2 note=66 velocity=0 time=0.45345682708333335
EXTRACT: note_on channel=0 note=59 velocity=0 time=0.0239361375
EXTRACT: note_on channel=3 note=59 velocity=0 time=0
EXTRACT: note_on channel=0 note=59 velocity=80 time=0.0013297854166666667
EXTRACT: note_on channel=2 note=66 velocity=80 time=0
EXTRACT: note_on channel=3 note=59 velocity=80 time=0
EXTRACT: note_on channel=2 note=66 velocity=0 time=0.30186128958333336
EXTRACT: note_on channel=2 note=66 velocity=80 time=0.017287210416666667
EXTRACT: note_on channel=2 note=66 velocity=0 time=0.15026575208333334
EXTRACT: note_on channel=0 note=59 velocity=0 time=0.0079787125
EXTRACT: note_on channel=3 note=51 velocity=0 time=0
EXTRACT: note_on channel=3 note=59 velocity=0 time=0
EXTRACT: note_on channel=0 note=54 velocity=80 time=0.0013297854166666667
EXTRACT: note_on channel=2 note=66 velocity=80 time=0
EXTRACT: note_on channel=3 note=59 velocity=80 time=0
EXTRACT: note_on channel=3 note=51 velocity=80 time=0
EXTRACT: note_on channel=2 note=66 velocity=0 time=0.30186128958333336
EXTRACT: note_on channel=3 note=59 velocity=0 time=0.015957425
EXTRACT: note_on channel=2 note=66 velocity=80 time=0.0013297854166666667
EXTRACT: note_on channel=3 note=59 velocity=80 time=0
EXTRACT: note_on channel=2 note=66 velocity=0 time=0.15026575208333334
EXTRACT: note_on channel=2 note=66 velocity=80 time=0.009308497916666667
EXTRACT: note_on channel=2 note=66 velocity=0 time=0.15026575208333334
EXTRACT: note_on channel=0 note=54 velocity=0 time=0.0079787125
EXTRACT: note_on channel=3 note=51 velocity=0 time=0
EXTRACT: note_on channel=3 note=59 velocity=0 time=0
EXTRACT: note_on channel=0 note=51 velocity=80 time=0.0013297854166666667
EXTRACT: note_on channel=2 note=66 velocity=80 time=0
EXTRACT: note_on channel=3 note=59 velocity=80 time=0
EXTRACT: note_on channel=3 note=51 velocity=80 time=0
EXTRACT: note_on channel=2 note=66 velocity=0 time=0.15026575208333334
EXTRACT: note_on channel=3 note=59 velocity=0 time=0.0079787125
EXTRACT: note_on channel=2 note=66 velocity=80 time=0.0013297854166666667
EXTRACT: note_on channel=3 note=59 velocity=80 time=0
EXTRACT: note_on channel=2 note=66 velocity=0 time=0.15026575208333334
EXTRACT: note_on channel=0 note=51 velocity=0 time=0.0079787125
EXTRACT: note_on channel=3 note=51 velocity=0 time=0
EXTRACT: note_on channel=3 note=59 velocity=0 time=0
EXTRACT: note_on channel=4 note=47 velocity=0 time=0
EXTRACT: note_on channel=0 note=49 velocity=80 time=0.0013297854166666667
EXTRACT: note_on channel=3 note=49 velocity=80 time=0
EXTRACT: note_on channel=4 note=46 velocity=80 time=0
EXTRACT: note_on channel=0 note=49 velocity=0 time=0.31781871458333333
EXTRACT: note_on channel=0 note=49 velocity=80 time=0.0013297854166666667
EXTRACT: note_on channel=2 note=66 velocity=80 time=0.3191485
EXTRACT: note_on channel=3 note=59 velocity=80 time=0
EXTRACT: note_on channel=2 note=66 velocity=0 time=0.45345682708333335
EXTRACT: note_on channel=3 note=59 velocity=0 time=0.0239361375
EXTRACT: note_on channel=2 note=66 velocity=80 time=0.0013297854166666667
EXTRACT: note_on channel=3 note=59 velocity=80 time=0
EXTRACT: note_on channel=0 note=49 velocity=0 time=0.15824446458333333
EXTRACT: note_on channel=2 note=66 velocity=0 time=0.143616825
EXTRACT: note_on channel=2 note=66 velocity=80 time=0.017287210416666667
EXTRACT: note_on channel=2 note=66 velocity=0 time=0.15026575208333334
EXTRACT: note_on channel=3 note=59 velocity=0 time=0.0079787125
EXTRACT: note_on channel=2 note=66 velocity=80 time=0.0013297854166666667
EXTRACT: note_on channel=3 note=58 velocity=80 time=0
EXTRACT: note_on channel=3 note=58 velocity=0 time=0.15824446458333333
EXTRACT: note_on channel=3 note=59 velocity=80 time=0.0013297854166666667
EXTRACT: note_on channel=2 note=66 velocity=0 time=0.14228703958333333
EXTRACT: note_on channel=3 note=49 velocity=0 time=0.015957425
EXTRACT: note_on channel=3 note=59 velocity=0 time=0
EXTRACT: note_on channel=2 note=66 velocity=80 time=0.0013297854166666667
EXTRACT: note_on channel=3 note=49 velocity=80 time=0
EXTRACT: note_on channel=2 note=66 velocity=0 time=0.15026575208333334
EXTRACT: note_on channel=2 note=66 velocity=80 time=0.009308497916666667
EXTRACT: note_on channel=3 note=59 velocity=80 time=0
EXTRACT: note_on channel=2 note=66 velocity=0 time=0.15026575208333334
EXTRACT: note_on channel=3 note=49 velocity=0 time=0.0079787125
EXTRACT: note_on channel=3 note=59 velocity=0 time=0
EXTRACT: note_on channel=2 note=66 velocity=80 time=0.0013297854166666667
EXTRACT: note_on channel=3 note=49 velocity=80 time=0
EXTRACT: note_on channel=2 note=66 velocity=0 time=0.15026575208333334
EXTRACT: note_on channel=3 note=49 velocity=0 time=0.0079787125
EXTRACT: note_on channel=2 note=66 velocity=80 time=0.0013297854166666667
EXTRACT: note_on channel=3 note=59 velocity=80 time=0
EXTRACT: note_on channel=3 note=49 velocity=80 time=0
EXTRACT: note_on channel=2 note=66 velocity=0 time=0.15026575208333334
EXTRACT: note_on channel=3 note=59 velocity=0 time=0.0079787125
EXTRACT: note_on channel=3 note=49 velocity=0 time=0
EXTRACT: note_on channel=4 note=46 velocity=0 time=0
EXTRACT: note_on channel=3 note=51 velocity=80 time=0.0013297854166666667
EXTRACT: note_on channel=4 note=44 velocity=80 time=0
EXTRACT: note_on channel=0 note=59 velocity=80 time=0.638297
EXTRACT: note_on channel=2 note=66 velocity=80 time=0
EXTRACT: note_on channel=2 note=63 velocity=80 time=0
EXTRACT: note_on channel=3 note=59 velocity=80 time=0
EXTRACT: note_on channel=2 note=66 velocity=0 time=0.45345682708333335
EXTRACT: note_on channel=2 note=63 velocity=0 time=0
EXTRACT: note_on channel=0 note=59 velocity=0 time=0.0239361375
EXTRACT: note_on channel=3 note=59 velocity=0 time=0
EXTRACT: note_on channel=0 note=59 velocity=80 time=0.0013297854166666667
EXTRACT: note_on channel=2 note=66 velocity=80 time=0
EXTRACT: note_on channel=2 note=63 velocity=80 time=0
EXTRACT: note_on channel=3 note=59 velocity=80 time=0
EXTRACT: note_on channel=3 note=51 velocity=0 time=0.15824446458333333
EXTRACT: note_on channel=2 note=66 velocity=0 time=0.143616825
EXTRACT: note_on channel=2 note=63 velocity=0 time=0
EXTRACT: note_on channel=2 note=66 velocity=80 time=0.017287210416666667
EXTRACT: note_on channel=2 note=63 velocity=80 time=0
EXTRACT: note_on channel=2 note=66 velocity=0 time=0.15026575208333334
EXTRACT: note_on channel=2 note=63 velocity=0 time=0
EXTRACT: note_on channel=3 note=59 velocity=0 time=0.0079787125
EXTRACT: note_on channel=2 note=66 velocity=80 time=0.0013297854166666667
EXTRACT: note_on channel=2 note=63 velocity=80 time=0
EXTRACT: note_on channel=3 note=58 velocity=80 time=0
EXTRACT: note_on channel=3 note=58 velocity=0 time=0.15824446458333333
EXTRACT: note_on channel=3 note=59 velocity=80 time=0.0013297854166666667
EXTRACT: note_on channel=2 note=66 velocity=0 time=0.14228703958333333
EXTRACT: note_on channel=2 note=63 velocity=0 time=0
EXTRACT: note_on channel=0 note=59 velocity=0 time=0.015957425
EXTRACT: note_on channel=3 note=59 velocity=0 time=0
EXTRACT: note_on channel=0 note=51 velocity=80 time=0.0013297854166666667
EXTRACT: note_on channel=2 note=66 velocity=80 time=0
EXTRACT: note_on channel=2 note=63 velocity=80 time=0
EXTRACT: note_on channel=3 note=51 velocity=80 time=0
EXTRACT: note_on channel=2 note=66 velocity=0 time=0.15026575208333334
EXTRACT: note_on channel=2 note=63 velocity=0 time=0
EXTRACT: note_on channel=2 note=66 velocity=80 time=0.009308497916666667
EXTRACT: note_on channel=2 note=63 velocity=80 time=0
EXTRACT: note_on channel=3 note=59 velocity=80 time=0
EXTRACT: note_on channel=2 note=66 velocity=0 time=0.15026575208333334
EXTRACT: note_on channel=2 note=63 velocity=0 time=0
EXTRACT: note_on channel=3 note=51 velocity=0 time=0.0079787125
EXTRACT: note_on channel=3 note=59 velocity=0 time=0
EXTRACT: note_on channel=2 note=66 velocity=80 time=0.0013297854166666667
EXTRACT: note_on channel=2 note=63 velocity=80 time=0
EXTRACT: note_on channel=3 note=51 velocity=80 time=0
EXTRACT: note_on channel=2 note=66 velocity=0 time=0.15026575208333334
EXTRACT: note_on channel=2 note=63 velocity=0 time=0
EXTRACT: note_on channel=0 note=51 velocity=0 time=0.0079787125
EXTRACT: note_on channel=3 note=51 velocity=0 time=0
EXTRACT: note_on channel=0 note=49 velocity=80 time=0.0013297854166666667
EXTRACT: note_on channel=2 note=66 velocity=80 time=0
EXTRACT: note_on channel=2 note=63 velocity=80 time=0
EXTRACT: note_on channel=3 note=59 velocity=80 time=0
EXTRACT: note_on channel=3 note=51 velocity=80 time=0
EXTRACT: note_on channel=2 note=66 velocity=0 time=0.15026575208333334
EXTRACT: note_on channel=2 note=63 velocity=0 time=0
EXTRACT: note_on channel=3 note=59 velocity=0 time=0.0079787125
EXTRACT: note_on channel=3 note=51 velocity=0 time=0
EXTRACT: note_on channel=4 note=44 velocity=0 time=0
EXTRACT: note_on channel=4 note=52 velocity=80 time=0.0013297854166666667
EXTRACT: note_on channel=0 note=49 velocity=0 time=0.31781871458333333
EXTRACT: note_on channel=0 note=47 velocity=80 time=0.0013297854166666667
EXTRACT: note_on channel=2 note=66 velocity=80 time=0.3191485
EXTRACT: note_on channel=2 note=63 velocity=80 time=0
EXTRACT: note_on channel=3 note=59 velocity=80 time=0
EXTRACT: note_on channel=3 note=56 velocity=80 time=0
EXTRACT: note_on channel=2 note=66 velocity=0 time=0.45345682708333335
EXTRACT: note_on channel=2 note=63 velocity=0 time=0
EXTRACT: note_on channel=3 note=59 velocity=0 time=0.0239361375
EXTRACT: note_on channel=2 note=66 velocity=80 time=0.0013297854166666667
EXTRACT: note_on channel=2 note=63 velocity=80 time=0
EXTRACT: note_on channel=3 note=59 velocity=80 time=0
EXTRACT: note_on channel=0 note=47 velocity=0 time=0.15824446458333333
EXTRACT: note_on channel=2 note=66 velocity=0 time=0.143616825
EXTRACT: note_on channel=2 note=63 velocity=0 time=0
EXTRACT: note_on channel=2 note=66 velocity=80 time=0.017287210416666667
EXTRACT: note_on channel=2 note=63 velocity=80 time=0
EXTRACT: note_on channel=2 note=66 velocity=0 time=0.15026575208333334
EXTRACT: note_on channel=2 note=63 velocity=0 time=0
EXTRACT: note_on channel=3 note=56 velocity=0 time=0.0079787125
EXTRACT: note_on channel=3 note=59 velocity=0 time=0
EXTRACT: note_on channel=2 note=66 velocity=80 time=0.0013297854166666667
EXTRACT: note_on channel=2 note=63 velocity=80 time=0
EXTRACT: note_on channel=3 note=58 velocity=80 time=0
EXTRACT: note_on channel=3 note=54 velocity=80 time=0
EXTRACT: note_on channel=3 note=58 velocity=0 time=0.15824446458333333
EXTRACT: note_on channel=3 note=54 velocity=0 time=0
EXTRACT: note_on channel=3 note=59 velocity=80 time=0.0013297854166666667
EXTRACT: note_on channel=3 note=56 velocity=80 time=0
EXTRACT: note_on channel=2 note=66 velocity=0 time=0.14228703958333333
EXTRACT: note_on channel=2 note=63 velocity=0 time=0
EXTRACT: note_on channel=3 note=59 velocity=0 time=0.015957425
EXTRACT: note_on channel=2 note=66 velocity=80 time=0.0013297854166666667
EXTRACT: note_on channel=2 note=63 velocity=80 time=0
EXTRACT: note_on channel=2 note=66 velocity=0 time=0.15026575208333334
EXTRACT: note_on channel=2 note=63 velocity=0 time=0
EXTRACT: note_on channel=2 note=66 velocity=80 time=0.009308497916666667
EXTRACT: note_on channel=2 note=63 velocity=80 time=0
EXTRACT: note_on channel=3 note=59 velocity=80 time=0
EXTRACT: note_on channel=2 note=66 velocity=0 time=0.15026575208333334
EXTRACT: note_on channel=2 note=63 velocity=0 time=0
EXTRACT: note_on channel=3 note=56 velocity=0 time=0.0079787125
EXTRACT: note_on channel=3 note=59 velocity=0 time=0
EXTRACT: note_on channel=2 note=66 velocity=80 time=0.0013297854166666667
EXTRACT: note_on channel=2 note=63 velocity=80 time=0
EXTRACT: note_on channel=3 note=54 velocity=80 time=0
EXTRACT: note_on channel=2 note=66 velocity=0 time=0.15026575208333334
EXTRACT: note_on channel=2 note=63 velocity=0 time=0
EXTRACT: note_on channel=2 note=66 velocity=80 time=0.009308497916666667
EXTRACT: note_on channel=2 note=63 velocity=80 time=0
EXTRACT: note_on channel=3 note=59 velocity=80 time=0
EXTRACT: note_on channel=2 note=66 velocity=0 time=0.15026575208333334
EXTRACT: note_on channel=2 note=63 velocity=0 time=0
EXTRACT: note_on channel=3 note=54 velocity=0 time=0.0079787125
EXTRACT: note_on channel=3 note=59 velocity=0 time=0
EXTRACT: note_on channel=4 note=52 velocity=0 time=0
EXTRACT: note_on channel=4 note=47 velocity=80 time=0.0013297854166666667
EXTRACT: note_on channel=0 note=59 velocity=80 time=0.638297
EXTRACT: note_on channel=2 note=66 velocity=80 time=0
EXTRACT: note_on channel=3 note=59 velocity=80 time=0
EXTRACT: note_on channel=3 note=51 velocity=80 time=0
EXTRACT: note_on channel=2 note=66 velocity=0 time=0.45345682708333335
EXTRACT: note_on channel=0 note=59 velocity=0 time=0.0239361375
EXTRACT: note_on channel=3 note=59 velocity=0 time=0
EXTRACT: note_on channel=0 note=59 velocity=80 time=0.0013297854166666667
EXTRACT: note_on channel=2 note=66 velocity=80 time=0
EXTRACT: note_on channel=3 note=59 velocity=80 time=0
EXTRACT: note_on channel=2 note=66 velocity=0 time=0.30186128958333336
EXTRACT: note_on channel=2 note=66 velocity=80 time=0.017287210416666667
EXTRACT: note_on channel=2 note=66 velocity=0 time=0.15026575208333334
EXTRACT: note_on channel=0 note=59 velocity=0 time=0.0079787125
EXTRACT: note_on channel=3 note=51 velocity=0 time=0
EXTRACT: note_on channel=3 note=59 velocity=0 time=0
EXTRACT: note_on channel=0 note=54 velocity=80 time=0.0013297854166666667
EXTRACT: note_on channel=2 note=66 velocity=80 time=0
EXTRACT: note_on channel=3 note=59 velocity=80 time=0
EXTRACT: note_on channel=3 note=51 velocity=80 time=0
EXTRACT: note_on channel=2 note=66 velocity=0 time=0.30186128958333336
EXTRACT: note_on channel=3 note=59 velocity=0 time=0.015957425
EXTRACT: note_on channel=2 note=66 velocity=80 time=0.0013297854166666667
EXTRACT: note_on channel=3 note=59 velocity=80 time=0
EXTRACT: note_on channel=2 note=66 velocity=0 time=0.15026575208333334
EXTRACT: note_on channel=2 note=66 velocity=80 time=0.009308497916666667
EXTRACT: note_on channel=2 note=66 velocity=0 time=0.15026575208333334
EXTRACT: note_on channel=0 note=54 velocity=0 time=0.0079787125
EXTRACT: note_on channel=3 note=51 velocity=0 time=0
EXTRACT: note_on channel=3 note=59 velocity=0 time=0
EXTRACT: note_on channel=0 note=51 velocity=80 time=0.0013297854166666667
EXTRACT: note_on channel=2 note=66 velocity=80 time=0
EXTRACT: note_on channel=3 note=59 velocity=80 time=0
EXTRACT: note_on channel=3 note=51 velocity=80 time=0
EXTRACT: note_on channel=2 note=66 velocity=0 time=0.15026575208333334
EXTRACT: note_on channel=3 note=59 velocity=0 time=0.0079787125
EXTRACT: note_on channel=2 note=66 velocity=80 time=0.0013297854166666667
EXTRACT: note_on channel=3 note=59 velocity=80 time=0
EXTRACT: note_on channel=2 note=66 velocity=0 time=0.15026575208333334
EXTRACT: note_on channel=0 note=51 velocity=0 time=0.0079787125
EXTRACT: note_on channel=3 note=51 velocity=0 time=0
EXTRACT: note_on channel=3 note=59 velocity=0 time=0
EXTRACT: note_on channel=4 note=47 velocity=0 time=0
EXTRACT: note_on channel=0 note=49 velocity=80 time=0.0013297854166666667
EXTRACT: note_on channel=3 note=49 velocity=80 time=0
EXTRACT: note_on channel=4 note=46 velocity=80 time=0
EXTRACT: note_on channel=0 note=49 velocity=0 time=0.31781871458333333
EXTRACT: note_on channel=0 note=49 velocity=80 time=0.0013297854166666667
EXTRACT: note_on channel=2 note=66 velocity=80 time=0.3191485
EXTRACT: note_on channel=3 note=59 velocity=80 time=0
EXTRACT: note_on channel=2 note=66 velocity=0 time=0.45345682708333335
EXTRACT: note_on channel=3 note=59 velocity=0 time=0.0239361375
EXTRACT: note_on channel=2 note=66 velocity=80 time=0.0013297854166666667
EXTRACT: note_on channel=3 note=59 velocity=80 time=0
EXTRACT: note_on channel=0 note=49 velocity=0 time=0.15824446458333333
EXTRACT: note_on channel=2 note=66 velocity=0 time=0.143616825
EXTRACT: note_on channel=2 note=66 velocity=80 time=0.017287210416666667
EXTRACT: note_on channel=2 note=66 velocity=0 time=0.15026575208333334
EXTRACT: note_on channel=3 note=59 velocity=0 time=0.0079787125
EXTRACT: note_on channel=2 note=66 velocity=80 time=0.0013297854166666667
EXTRACT: note_on channel=3 note=58 velocity=80 time=0
EXTRACT: note_on channel=3 note=58 velocity=0 time=0.15824446458333333
EXTRACT: note_on channel=3 note=59 velocity=80 time=0.0013297854166666667
EXTRACT: note_on channel=2 note=66 velocity=0 time=0.14228703958333333
EXTRACT: note_on channel=3 note=49 velocity=0 time=0.015957425
EXTRACT: note_on channel=3 note=59 velocity=0 time=0
EXTRACT: note_on channel=2 note=66 velocity=80 time=0.0013297854166666667
EXTRACT: note_on channel=3 note=49 velocity=80 time=0
EXTRACT: note_on channel=2 note=66 velocity=0 time=0.15026575208333334
EXTRACT: note_on channel=0 note=47 velocity=80 time=0.009308497916666667
EXTRACT: note_on channel=2 note=66 velocity=80 time=0
EXTRACT: note_on channel=3 note=59 velocity=80 time=0
EXTRACT: note_on channel=2 note=66 velocity=0 time=0.15026575208333334
EXTRACT: note_on channel=0 note=47 velocity=0 time=0.0079787125
EXTRACT: note_on channel=3 note=49 velocity=0 time=0
EXTRACT: note_on channel=3 note=59 velocity=0 time=0
EXTRACT: note_on channel=0 note=49 velocity=80 time=0.0013297854166666667
EXTRACT: note_on channel=2 note=66 velocity=80 time=0
EXTRACT: note_on channel=3 note=49 velocity=80 time=0
EXTRACT: note_on channel=2 note=66 velocity=0 time=0.15026575208333334
EXTRACT: note_on channel=0 note=49 velocity=0 time=0.0079787125
EXTRACT: note_on channel=3 note=49 velocity=0 time=0
EXTRACT: note_on channel=0 note=51 velocity=80 time=0.0013297854166666667
EXTRACT: note_on channel=2 note=66 velocity=80 time=0
EXTRACT: note_on channel=3 note=59 velocity=80 time=0
EXTRACT: note_on channel=3 note=49 velocity=80 time=0
EXTRACT: note_on channel=2 note=66 velocity=0 time=0.15026575208333334
EXTRACT: note_on channel=3 note=59 velocity=0 time=0.0079787125
EXTRACT: note_on channel=3 note=49 velocity=0 time=0
EXTRACT: note_on channel=4 note=46 velocity=0 time=0
EXTRACT: note_on channel=3 note=51 velocity=80 time=0.0013297854166666667
EXTRACT: note_on channel=4 note=44 velocity=80 time=0
EXTRACT: note_on channel=0 note=51 velocity=0 time=0.31781871458333333
EXTRACT: note_on channel=0 note=49 velocity=80 time=0.0013297854166666667
EXTRACT: note_on channel=2 note=66 velocity=80 time=0.3191485
EXTRACT: note_on channel=2 note=63 velocity=80 time=0
EXTRACT: note_on channel=3 note=59 velocity=80 time=0
EXTRACT: note_on channel=0 note=49 velocity=0 time=0.31781871458333333
EXTRACT: note_on channel=0 note=54 velocity=80 time=0.0013297854166666667
EXTRACT: note_on channel=2 note=66 velocity=0 time=0.13430832708333335
EXTRACT: note_on channel=2 note=63 velocity=0 time=0
EXTRACT: note_on channel=3 note=59 velocity=0 time=0.0239361375
EXTRACT: note_on channel=2 note=66 velocity=80 time=0.0013297854166666667
EXTRACT: note_on channel=2 note=63 velocity=80 time=0
EXTRACT: note_on channel=3 note=59 velocity=80 time=0
EXTRACT: note_on channel=3 note=51 velocity=0 time=0.15824446458333333
EXTRACT: note_on channel=2 note=66 velocity=0 time=0.143616825
EXTRACT: note_on channel=2 note=63 velocity=0 time=0
EXTRACT: note_on channel=2 note=66 velocity=80 time=0.017287210416666667
EXTRACT: note_on channel=2 note=63 velocity=80 time=0
EXTRACT: note_on channel=2 note=66 velocity=0 time=0.15026575208333334
EXTRACT: note_on channel=2 note=63 velocity=0 time=0
EXTRACT: note_on channel=0 note=54 velocity=0 time=0.0079787125
EXTRACT: note_on channel=3 note=59 velocity=0 time=0
EXTRACT: note_on channel=0 note=49 velocity=80 time=0.0013297854166666667
EXTRACT: note_on channel=2 note=66 velocity=80 time=0
EXTRACT: note_on channel=2 note=63 velocity=80 time=0
EXTRACT: note_on channel=3 note=58 velocity=80 time=0
EXTRACT: note_on channel=3 note=58 velocity=0 time=0.15824446458333333
EXTRACT: note_on channel=3 note=59 velocity=80 time=0.0013297854166666667
EXTRACT: note_on channel=2 note=66 velocity=0 time=0.14228703958333333
EXTRACT: note_on channel=2 note=63 velocity=0 time=0
EXTRACT: note_on channel=3 note=59 velocity=0 time=0.015957425
EXTRACT: note_on channel=2 note=66 velocity=80 time=0.0013297854166666667
EXTRACT: note_on channel=2 note=63 velocity=80 time=0
EXTRACT: note_on channel=3 note=51 velocity=80 time=0
EXTRACT: note_on channel=2 note=66 velocity=0 time=0.15026575208333334
EXTRACT: note_on channel=2 note=63 velocity=0 time=0
EXTRACT: note_on channel=2 note=66 velocity=80 time=0.009308497916666667
EXTRACT: note_on channel=2 note=63 velocity=80 time=0
EXTRACT: note_on channel=3 note=59 velocity=80 time=0
EXTRACT: note_on channel=2 note=66 velocity=0 time=0.15026575208333334
EXTRACT: note_on channel=2 note=63 velocity=0 time=0
EXTRACT: note_on channel=0 note=49 velocity=0 time=0.0079787125
EXTRACT: note_on channel=3 note=51 velocity=0 time=0
EXTRACT: note_on channel=3 note=59 velocity=0 time=0
EXTRACT: note_on channel=0 note=47 velocity=80 time=0.0013297854166666667
EXTRACT: note_on channel=2 note=66 velocity=80 time=0
EXTRACT: note_on channel=2 note=63 velocity=80 time=0
EXTRACT: note_on channel=3 note=51 velocity=80 time=0
EXTRACT: note_on channel=2 note=66 velocity=0 time=0.15026575208333334
EXTRACT: note_on channel=2 note=63 velocity=0 time=0
EXTRACT: note_on channel=3 note=51 velocity=0 time=0.0079787125
EXTRACT: note_on channel=2 note=66 velocity=80 time=0.0013297854166666667
EXTRACT: note_on channel=2 note=63 velocity=80 time=0
EXTRACT: note_on channel=3 note=59 velocity=80 time=0
EXTRACT: note_on channel=3 note=51 velocity=80 time=0
EXTRACT: note_on channel=2 note=66 velocity=0 time=0.15026575208333334
EXTRACT: note_on channel=2 note=63 velocity=0 time=0
EXTRACT: note_on channel=3 note=59 velocity=0 time=0.0079787125
EXTRACT: note_on channel=3 note=51 velocity=0 time=0
EXTRACT: note_on channel=4 note=44 velocity=0 time=0
EXTRACT: note_on channel=4 note=52 velocity=80 time=0.0013297854166666667
EXTRACT: note_on channel=0 note=47 velocity=0 time=0.31781871458333333
EXTRACT: note_on channel=2 note=66 velocity=80 time=0.3204782854166667
EXTRACT: note_on channel=2 note=63 velocity=80 time=0
EXTRACT: note_on channel=3 note=59 velocity=80 time=0
EXTRACT: note_on channel=3 note=56 velocity=80 time=0
EXTRACT: note_on channel=2 note=66 velocity=0 time=0.45345682708333335
EXTRACT: note_on channel=2 note=63 velocity=0 time=0
EXTRACT: note_on channel=3 note=59 velocity=0 time=0.0239361375
EXTRACT: note_on channel=2 note=66 velocity=80 time=0.0013297854166666667
EXTRACT: note_on channel=2 note=63 velocity=80 time=0
EXTRACT: note_on channel=3 note=59 velocity=80 time=0
EXTRACT: note_on channel=2 note=66 velocity=0 time=0.30186128958333336
EXTRACT: note_on channel=2 note=63 velocity=0 time=0
EXTRACT: note_on channel=2 note=66 velocity=80 time=0.017287210416666667
EXTRACT: note_on channel=2 note=63 velocity=80 time=0
EXTRACT: note_on channel=2 note=66 velocity=0 time=0.15026575208333334
EXTRACT: note_on channel=2 note=63 velocity=0 time=0
EXTRACT: note_on channel=3 note=56 velocity=0 time=0.0079787125
EXTRACT: note_on channel=3 note=59 velocity=0 time=0
EXTRACT: note_on channel=2 note=66 velocity=80 time=0.0013297854166666667
EXTRACT: note_on channel=2 note=63 velocity=80 time=0
EXTRACT: note_on channel=3 note=58 velocity=80 time=0
EXTRACT: note_on channel=3 note=54 velocity=80 time=0
EXTRACT: note_on channel=3 note=58 velocity=0 time=0.15824446458333333
EXTRACT: note_on channel=3 note=54 velocity=0 time=0
EXTRACT: note_on channel=3 note=59 velocity=80 time=0.0013297854166666667
EXTRACT: note_on channel=3 note=56 velocity=80 time=0
EXTRACT: note_on channel=2 note=66 velocity=0 time=0.14228703958333333
EXTRACT: note_on channel=2 note=63 velocity=0 time=0
EXTRACT: note_on channel=3 note=59 velocity=0 time=0.015957425
EXTRACT: note_on channel=0 note=52 velocity=80 time=0.0013297854166666667
EXTRACT: note_on channel=2 note=66 velocity=80 time=0
EXTRACT: note_on channel=2 note=63 velocity=80 time=0
EXTRACT: note_on channel=2 note=66 velocity=0 time=0.15026575208333334
EXTRACT: note_on channel=2 note=63 velocity=0 time=0
EXTRACT: note_on channel=2 note=66 velocity=80 time=0.009308497916666667
EXTRACT: note_on channel=2 note=63 velocity=80 time=0
EXTRACT: note_on channel=3 note=59 velocity=80 time=0
EXTRACT: note_on channel=2 note=66 velocity=0 time=0.15026575208333334
EXTRACT: note_on channel=2 note=63 velocity=0 time=0
EXTRACT: note_on channel=3 note=56 velocity=0 time=0.0079787125
EXTRACT: note_on channel=3 note=59 velocity=0 time=0
EXTRACT: note_on channel=2 note=66 velocity=80 time=0.0013297854166666667
EXTRACT: note_on channel=2 note=63 velocity=80 time=0
EXTRACT: note_on channel=3 note=54 velocity=80 time=0
EXTRACT: note_on channel=2 note=66 velocity=0 time=0.15026575208333334
EXTRACT: note_on channel=2 note=63 velocity=0 time=0
EXTRACT: note_on channel=2 note=66 velocity=80 time=0.009308497916666667
EXTRACT: note_on channel=2 note=63 velocity=80 time=0
EXTRACT: note_on channel=3 note=59 velocity=80 time=0
EXTRACT: note_on channel=2 note=66 velocity=0 time=0.15026575208333334
EXTRACT: note_on channel=2 note=63 velocity=0 time=0
EXTRACT: note_on channel=0 note=52 velocity=0 time=0.0079787125
EXTRACT: note_on channel=3 note=54 velocity=0 time=0
EXTRACT: note_on channel=3 note=59 velocity=0 time=0
EXTRACT: note_on channel=4 note=52 velocity=0 time=0
EXTRACT: note_on channel=1 note=66 velocity=80 time=0.0013297854166666667
EXTRACT: note_on channel=4 note=47 velocity=80 time=0
EXTRACT: note_on channel=9 note=63 velocity=80 time=0.638297
EXTRACT: note_on channel=9 note=59 velocity=80 time=0
EXTRACT: note_on channel=2 note=66 velocity=80 time=0
EXTRACT: note_on channel=3 note=59 velocity=80 time=0
EXTRACT: note_on channel=3 note=51 velocity=80 time=0
EXTRACT: note_on channel=2 note=66 velocity=0 time=0.45345682708333335
EXTRACT: note_on channel=9 note=63 velocity=0 time=0.0239361375
EXTRACT: note_on channel=9 note=59 velocity=0 time=0
EXTRACT: note_on channel=3 note=59 velocity=0 time=0
EXTRACT: note_on channel=9 note=63 velocity=80 time=0.0013297854166666667
EXTRACT: note_on channel=9 note=59 velocity=80 time=0
EXTRACT: note_on channel=2 note=66 velocity=80 time=0
EXTRACT: note_on channel=3 note=59 velocity=80 time=0
EXTRACT: note_on channel=9 note=59 velocity=0 time=0.15824446458333333
EXTRACT: note_on channel=9 note=59 velocity=80 time=0.0013297854166666667
EXTRACT: note_on channel=2 note=66 velocity=0 time=0.14228703958333333
EXTRACT: note_on channel=2 note=66 velocity=80 time=0.017287210416666667
EXTRACT: note_on channel=2 note=66 velocity=0 time=0.15026575208333334
EXTRACT: note_on channel=9 note=63 velocity=0 time=0.0079787125
EXTRACT: note_on channel=3 note=51 velocity=0 time=0
EXTRACT: note_on channel=3 note=59 velocity=0 time=0
EXTRACT: note_on channel=9 note=61 velocity=80 time=0.0013297854166666667
EXTRACT: note_on channel=2 note=66 velocity=80 time=0
EXTRACT: note_on channel=3 note=59 velocity=80 time=0
EXTRACT: note_on channel=3 note=51 velocity=80 time=0
EXTRACT: note_on channel=2 note=66 velocity=0 time=0.30186128958333336
EXTRACT: note_on channel=3 note=59 velocity=0 time=0.015957425
EXTRACT: note_on channel=2 note=66 velocity=80 time=0.0013297854166666667
EXTRACT: note_on channel=3 note=59 velocity=80 time=0
EXTRACT: note_on channel=2 note=66 velocity=0 time=0.15026575208333334
EXTRACT: note_on channel=2 note=66 velocity=80 time=0.009308497916666667
EXTRACT: note_on channel=2 note=66 velocity=0 time=0.15026575208333334
EXTRACT: note_on channel=9 note=61 velocity=0 time=0.0079787125
EXTRACT: note_on channel=3 note=51 velocity=0 time=0
EXTRACT: note_on channel=3 note=59 velocity=0 time=0
EXTRACT: note_on channel=9 note=63 velocity=80 time=0.0013297854166666667
EXTRACT: note_on channel=2 note=66 velocity=80 time=0
EXTRACT: note_on channel=3 note=59 velocity=80 time=0
EXTRACT: note_on channel=3 note=51 velocity=80 time=0
EXTRACT: note_on channel=2 note=66 velocity=0 time=0.15026575208333334
EXTRACT: note_on channel=3 note=59 velocity=0 time=0.0079787125
EXTRACT: note_on channel=2 note=66 velocity=80 time=0.0013297854166666667
EXTRACT: note_on channel=3 note=59 velocity=80 time=0
EXTRACT: note_on channel=2 note=66 velocity=0 time=0.15026575208333334
EXTRACT: note_on channel=9 note=59 velocity=0 time=0.0079787125
EXTRACT: note_on channel=9 note=63 velocity=0 time=0
EXTRACT: note_on channel=3 note=51 velocity=0 time=0
EXTRACT: note_on channel=3 note=59 velocity=0 time=0
EXTRACT: note_on channel=4 note=47 velocity=0 time=0
EXTRACT: note_on channel=3 note=49 velocity=80 time=0.0013297854166666667
EXTRACT: note_on channel=4 note=49 velocity=80 time=0
EXTRACT: note_on channel=4 note=46 velocity=80 time=0
EXTRACT: note_on channel=9 note=63 velocity=80 time=0.638297
EXTRACT: note_on channel=9 note=59 velocity=80 time=0
EXTRACT: note_on channel=2 note=66 velocity=80 time=0
EXTRACT: note_on channel=3 note=59 velocity=80 time=0
EXTRACT: note_on channel=2 note=66 velocity=0 time=0.45345682708333335
EXTRACT: note_on channel=9 note=63 velocity=0 time=0.0239361375
EXTRACT: note_on channel=9 note=59 velocity=0 time=0
EXTRACT: note_on channel=3 note=59 velocity=0 time=0
EXTRACT: note_on channel=9 note=63 velocity=80 time=0.0013297854166666667
EXTRACT: note_on channel=9 note=59 velocity=80 time=0
EXTRACT: note_on channel=2 note=66 velocity=80 time=0
EXTRACT: note_on channel=3 note=59 velocity=80 time=0
EXTRACT: note_on channel=9 note=59 velocity=0 time=0.15824446458333333
EXTRACT: note_on channel=9 note=59 velocity=80 time=0.0013297854166666667
EXTRACT: note_on channel=2 note=66 velocity=0 time=0.14228703958333333
EXTRACT: note_on channel=2 note=66 velocity=80 time=0.017287210416666667
EXTRACT: note_on channel=2 note=66 velocity=0 time=0.15026575208333334
EXTRACT: note_on channel=9 note=63 velocity=0 time=0.0079787125
EXTRACT: note_on channel=3 note=59 velocity=0 time=0
EXTRACT: note_on channel=9 note=61 velocity=80 time=0.0013297854166666667
EXTRACT: note_on channel=2 note=66 velocity=80 time=0
EXTRACT: note_on channel=3 note=58 velocity=80 time=0
EXTRACT: note_on channel=3 note=58 velocity=0 time=0.15824446458333333
EXTRACT: note_on channel=3 note=59 velocity=80 time=0.0013297854166666667
EXTRACT: note_on channel=2 note=66 velocity=0 time=0.14228703958333333
EXTRACT: note_on channel=3 note=49 velocity=0 time=0.015957425
EXTRACT: note_on channel=3 note=59 velocity=0 time=0
EXTRACT: note_on channel=2 note=66 velocity=80 time=0.0013297854166666667
EXTRACT: note_on channel=3 note=49 velocity=80 time=0
EXTRACT: note_on channel=2 note=66 velocity=0 time=0.15026575208333334
EXTRACT: note_on channel=2 note=66 velocity=80 time=0.009308497916666667
EXTRACT: note_on channel=3 note=59 velocity=80 time=0
EXTRACT: note_on channel=2 note=66 velocity=0 time=0.15026575208333334
EXTRACT: note_on channel=9 note=61 velocity=0 time=0.0079787125
EXTRACT: note_on channel=3 note=49 velocity=0 time=0
EXTRACT: note_on channel=3 note=59 velocity=0 time=0
EXTRACT: note_on channel=9 note=63 velocity=80 time=0.0013297854166666667
EXTRACT: note_on channel=2 note=66 velocity=80 time=0
EXTRACT: note_on channel=3 note=49 velocity=80 time=0
EXTRACT: note_on channel=2 note=66 velocity=0 time=0.15026575208333334
EXTRACT: note_on channel=3 note=49 velocity=0 time=0.0079787125
EXTRACT: note_on channel=2 note=66 velocity=80 time=0.0013297854166666667
EXTRACT: note_on channel=3 note=59 velocity=80 time=0
EXTRACT: note_on channel=3 note=49 velocity=80 time=0
EXTRACT: note_on channel=2 note=66 velocity=0 time=0.15026575208333334
EXTRACT: note_on channel=9 note=59 velocity=0 time=0.0079787125
EXTRACT: note_on channel=9 note=63 velocity=0 time=0
EXTRACT: note_on channel=3 note=59 velocity=0 time=0
EXTRACT: note_on channel=3 note=49 velocity=0 time=0
EXTRACT: note_on channel=4 note=49 velocity=0 time=0
EXTRACT: note_on channel=4 note=46 velocity=0 time=0
EXTRACT: note_on channel=3 note=51 velocity=80 time=0.0013297854166666667
EXTRACT: note_on channel=4 note=51 velocity=80 time=0
EXTRACT: note_on channel=4 note=44 velocity=80 time=0
EXTRACT: note_on channel=9 note=63 velocity=80 time=0.638297
EXTRACT: note_on channel=9 note=59 velocity=80 time=0
EXTRACT: note_on channel=2 note=66 velocity=80 time=0
EXTRACT: note_on channel=2 note=63 velocity=80 time=0
EXTRACT: note_on channel=3 note=59 velocity=80 time=0
EXTRACT: note_on channel=2 note=66 velocity=0 time=0.45345682708333335
EXTRACT: note_on channel=2 note=63 velocity=0 time=0
EXTRACT: note_on channel=9 note=63 velocity=0 time=0.0239361375
EXTRACT: note_on channel=9 note=59 velocity=0 time=0
EXTRACT: note_on channel=3 note=59 velocity=0 time=0
EXTRACT: note_on channel=9 note=63 velocity=80 time=0.0013297854166666667
EXTRACT: note_on channel=9 note=59 velocity=80 time=0
EXTRACT: note_on channel=2 note=66 velocity=80 time=0
EXTRACT: note_on channel=2 note=63 velocity=80 time=0
EXTRACT: note_on channel=3 note=59 velocity=80 time=0
EXTRACT: note_on channel=9 note=59 velocity=0 time=0.15824446458333333
EXTRACT: note_on channel=3 note=51 velocity=0 time=0
EXTRACT: note_on channel=9 note=59 velocity=80 time=0.0013297854166666667
EXTRACT: note_on channel=2 note=66 velocity=0 time=0.14228703958333333
EXTRACT: note_on channel=2 note=63 velocity=0 time=0
EXTRACT: note_on channel=2 note=66 velocity=80 time=0.017287210416666667
EXTRACT: note_on channel=2 note=63 velocity=80 time=0
EXTRACT: note_on channel=2 note=66 velocity=0 time=0.15026575208333334
EXTRACT: note_on channel=2 note=63 velocity=0 time=0
EXTRACT: note_on channel=9 note=63 velocity=0 time=0.0079787125
EXTRACT: note_on channel=3 note=59 velocity=0 time=0
EXTRACT: note_on channel=9 note=61 velocity=80 time=0.0013297854166666667
EXTRACT: note_on channel=2 note=66 velocity=80 time=0
EXTRACT: note_on channel=2 note=63 velocity=80 time=0
EXTRACT: note_on channel=3 note=58 velocity=80 time=0
EXTRACT: note_on channel=3 note=58 velocity=0 time=0.15824446458333333
EXTRACT: note_on channel=3 note=59 velocity=80 time=0.0013297854166666667
EXTRACT: note_on channel=2 note=66 velocity=0 time=0.14228703958333333
EXTRACT: note_on channel=2 note=63 velocity=0 time=0
EXTRACT: note_on channel=3 note=59 velocity=0 time=0.015957425
EXTRACT: note_on channel=2 note=66 velocity=80 time=0.0013297854166666667
EXTRACT: note_on channel=2 note=63 velocity=80 time=0
EXTRACT: note_on channel=3 note=51 velocity=80 time=0
EXTRACT: note_on channel=2 note=66 velocity=0 time=0.15026575208333334
EXTRACT: note_on channel=2 note=63 velocity=0 time=0
EXTRACT: note_on channel=2 note=66 velocity=80 time=0.009308497916666667
EXTRACT: note_on channel=2 note=63 velocity=80 time=0
EXTRACT: note_on channel=3 note=59 velocity=80 time=0
EXTRACT: note_on channel=2 note=66 velocity=0 time=0.15026575208333334
EXTRACT: note_on channel=2 note=63 velocity=0 time=0
EXTRACT: note_on channel=9 note=61 velocity=0 time=0.0079787125
EXTRACT: note_on channel=3 note=51 velocity=0 time=0
EXTRACT: note_on channel=3 note=59 velocity=0 time=0
EXTRACT: note_on channel=9 note=63 velocity=80 time=0.0013297854166666667
EXTRACT: note_on channel=2 note=66 velocity=80 time=0
EXTRACT: note_on channel=2 note=63 velocity=80 time=0
EXTRACT: note_on channel=3 note=51 velocity=80 time=0
EXTRACT: note_on channel=2 note=66 velocity=0 time=0.15026575208333334
EXTRACT: note_on channel=2 note=63 velocity=0 time=0
EXTRACT: note_on channel=3 note=51 velocity=0 time=0.0079787125
EXTRACT: note_on channel=2 note=66 velocity=80 time=0.0013297854166666667
EXTRACT: note_on channel=2 note=63 velocity=80 time=0
EXTRACT: note_on channel=3 note=59 velocity=80 time=0
EXTRACT: note_on channel=3 note=51 velocity=80 time=0
EXTRACT: note_on channel=2 note=66 velocity=0 time=0.15026575208333334
EXTRACT: note_on channel=2 note=63 velocity=0 time=0
EXTRACT: note_on channel=9 note=59 velocity=0 time=0.0079787125
EXTRACT: note_on channel=9 note=63 velocity=0 time=0
EXTRACT: note_on channel=1 note=66 velocity=0 time=0
EXTRACT: note_on channel=3 note=59 velocity=0 time=0
EXTRACT: note_on channel=3 note=51 velocity=0 time=0
EXTRACT: note_on channel=4 note=51 velocity=0 time=0
EXTRACT: note_on channel=4 note=44 velocity=0 time=0
EXTRACT: note_on channel=1 note=66 velocity=80 time=0.0013297854166666667
EXTRACT: note_on channel=4 note=52 velocity=80 time=0
EXTRACT: note_on channel=4 note=40 velocity=80 time=0
EXTRACT: note_on channel=1 note=64 velocity=80 time=0.3191485
EXTRACT: note_on channel=1 note=64 velocity=0 time=0.31781871458333333
EXTRACT: note_on channel=9 note=63 velocity=80 time=0.0013297854166666667
EXTRACT: note_on channel=9 note=59 velocity=80 time=0
EXTRACT: note_on channel=1 note=66 velocity=80 time=0
EXTRACT: note_on channel=2 note=66 velocity=80 time=0
EXTRACT: note_on channel=2 note=63 velocity=80 time=0
EXTRACT: note_on channel=3 note=59 velocity=80 time=0
EXTRACT: note_on channel=3 note=56 velocity=80 time=0
EXTRACT: note_on channel=1 note=66 velocity=0 time=0.31781871458333333
EXTRACT: note_on channel=1 note=71 velocity=80 time=0.0013297854166666667
EXTRACT: note_on channel=2 note=66 velocity=0 time=0.13430832708333335
EXTRACT: note_on channel=2 note=63 velocity=0 time=0
EXTRACT: note_on channel=9 note=63 velocity=0 time=0.0239361375
EXTRACT: note_on channel=9 note=59 velocity=0 time=0
EXTRACT: note_on channel=3 note=59 velocity=0 time=0
EXTRACT: note_on channel=9 note=63 velocity=80 time=0.0013297854166666667
EXTRACT: note_on channel=9 note=59 velocity=80 time=0
EXTRACT: note_on channel=2 note=66 velocity=80 time=0
EXTRACT: note_on channel=2 note=63 velocity=80 time=0
EXTRACT: note_on channel=3 note=59 velocity=80 time=0
EXTRACT: note_on channel=9 note=59 velocity=0 time=0.15824446458333333
EXTRACT: note_on channel=9 note=59 velocity=80 time=0.0013297854166666667
EXTRACT: note_on channel=2 note=66 velocity=0 time=0.14228703958333333
EXTRACT: note_on channel=2 note=63 velocity=0 time=0
EXTRACT: note_on channel=2 note=66 velocity=80 time=0.017287210416666667
EXTRACT: note_on channel=2 note=63 velocity=80 time=0
EXTRACT: note_on channel=2 note=66 velocity=0 time=0.15026575208333334
EXTRACT: note_on channel=2 note=63 velocity=0 time=0
EXTRACT: note_on channel=9 note=63 velocity=0 time=0.0079787125
EXTRACT: note_on channel=1 note=71 velocity=0 time=0
EXTRACT: note_on channel=3 note=56 velocity=0 time=0
EXTRACT: note_on channel=3 note=59 velocity=0 time=0
EXTRACT: note_on channel=9 note=61 velocity=80 time=0.0013297854166666667
EXTRACT: note_on channel=1 note=73 velocity=80 time=0
EXTRACT: note_on channel=2 note=66 velocity=80 time=0
EXTRACT: note_on channel=2 note=63 velocity=80 time=0
EXTRACT: note_on channel=3 note=58 velocity=80 time=0
EXTRACT: note_on channel=3 note=54 velocity=80 time=0
EXTRACT: note_on channel=3 note=58 velocity=0 time=0.15824446458333333
EXTRACT: note_on channel=3 note=54 velocity=0 time=0
EXTRACT: note_on channel=3 note=59 velocity=80 time=0.0013297854166666667
EXTRACT: note_on channel=3 note=56 velocity=80 time=0
EXTRACT: note_on channel=2 note=66 velocity=0 time=0.14228703958333333
EXTRACT: note_on channel=2 note=63 velocity=0 time=0
EXTRACT: note_on channel=3 note=59 velocity=0 time=0.015957425
EXTRACT: note_on channel=2 note=66 velocity=80 time=0.0013297854166666667
EXTRACT: note_on channel=2 note=63 velocity=80 time=0
EXTRACT: note_on channel=2 note=66 velocity=0 time=0.15026575208333334
EXTRACT: note_on channel=2 note=63 velocity=0 time=0
EXTRACT: note_on channel=2 note=66 velocity=80 time=0.009308497916666667
EXTRACT: note_on channel=2 note=63 velocity=80 time=0
EXTRACT: note_on channel=3 note=59 velocity=80 time=0
EXTRACT: note_on channel=2 note=66 velocity=0 time=0.15026575208333334
EXTRACT: note_on channel=2 note=63 velocity=0 time=0
EXTRACT: note_on channel=9 note=61 velocity=0 time=0.0079787125
EXTRACT: note_on channel=1 note=73 velocity=0 time=0
EXTRACT: note_on channel=3 note=56 velocity=0 time=0
EXTRACT: note_on channel=3 note=59 velocity=0 time=0
EXTRACT: note_on channel=9 note=59 velocity=80 time=0.0013297854166666667
EXTRACT: note_on channel=1 note=75 velocity=80 time=0
EXTRACT: note_on channel=2 note=66 velocity=80 time=0
EXTRACT: note_on channel=2 note=63 velocity=80 time=0
EXTRACT: note_on channel=3 note=54 velocity=80 time=0
EXTRACT: note_on channel=2 note=66 velocity=0 time=0.15026575208333334
EXTRACT: note_on channel=2 note=63 velocity=0 time=0
EXTRACT: note_on channel=2 note=66 velocity=80 time=0.009308497916666667
EXTRACT: note_on channel=2 note=63 velocity=80 time=0
EXTRACT: note_on channel=3 note=59 velocity=80 time=0
EXTRACT: note_on channel=2 note=66 velocity=0 time=0.15026575208333334
EXTRACT: note_on channel=2 note=63 velocity=0 time=0
EXTRACT: note_on channel=9 note=59 velocity=0 time=0.0079787125
EXTRACT: note_on channel=9 note=59 velocity=0 time=0
EXTRACT: note_on channel=1 note=66 velocity=0 time=0
EXTRACT: note_on channel=3 note=54 velocity=0 time=0
EXTRACT: note_on channel=3 note=59 velocity=0 time=0
EXTRACT: note_on channel=4 note=52 velocity=0 time=0
EXTRACT: note_on channel=4 note=40 velocity=0 time=0
EXTRACT: note_on channel=2 note=59 velocity=80 time=0.0013297854166666667
EXTRACT: note_on channel=4 note=47 velocity=80 time=0
EXTRACT: note_on channel=0 note=54 velocity=80 time=0.47872275
EXTRACT: note_on channel=0 note=54 velocity=0 time=0.15824446458333333
EXTRACT: note_on channel=0 note=59 velocity=80 time=0.0013297854166666667
EXTRACT: note_on channel=1 note=66 velocity=80 time=0
EXTRACT: note_on channel=3 note=59 velocity=80 time=0
EXTRACT: note_on channel=3 note=51 velocity=80 time=0
EXTRACT: note_on channel=0 note=59 velocity=0 time=0.47739296458333336
EXTRACT: note_on channel=1 note=66 velocity=0 time=0
EXTRACT: note_on channel=3 note=59 velocity=0 time=0
EXTRACT: note_on channel=0 note=59 velocity=80 time=0.0013297854166666667
EXTRACT: note_on channel=1 note=66 velocity=80 time=0
EXTRACT: note_on channel=3 note=59 velocity=80 time=0
EXTRACT: note_on channel=1 note=75 velocity=0 time=0.15824446458333333
EXTRACT: note_on channel=1 note=66 velocity=0 time=0.15957425
EXTRACT: note_on channel=1 note=66 velocity=80 time=0.0013297854166666667
EXTRACT: note_on channel=0 note=59 velocity=0 time=0.15824446458333333
EXTRACT: note_on channel=1 note=66 velocity=0 time=0
EXTRACT: note_on channel=3 note=51 velocity=0 time=0
EXTRACT: note_on channel=3 note=59 velocity=0 time=0
EXTRACT: note_on channel=0 note=54 velocity=80 time=0.0013297854166666667
EXTRACT: note_on channel=1 note=66 velocity=80 time=0
EXTRACT: note_on channel=3 note=59 velocity=80 time=0
EXTRACT: note_on channel=3 note=51 velocity=80 time=0
EXTRACT: note_on channel=1 note=66 velocity=0 time=0.31781871458333333
EXTRACT: note_on channel=3 note=59 velocity=0 time=0
EXTRACT: note_on channel=1 note=66 velocity=80 time=0.0013297854166666667
EXTRACT: note_on channel=3 note=59 velocity=80 time=0
EXTRACT: note_on channel=1 note=66 velocity=0 time=0.15824446458333333
EXTRACT: note_on channel=1 note=66 velocity=80 time=0.0013297854166666667
EXTRACT: note_on channel=0 note=54 velocity=0 time=0.15824446458333333
EXTRACT: note_on channel=1 note=66 velocity=0 time=0
EXTRACT: note_on channel=3 note=51 velocity=0 time=0
EXTRACT: note_on channel=3 note=59 velocity=0 time=0
EXTRACT: note_on channel=0 note=51 velocity=80 time=0.0013297854166666667
EXTRACT: note_on channel=1 note=66 velocity=80 time=0
EXTRACT: note_on channel=3 note=59 velocity=80 time=0
EXTRACT: note_on channel=3 note=51 velocity=80 time=0
EXTRACT: note_on channel=1 note=66 velocity=0 time=0.15824446458333333
EXTRACT: note_on channel=3 note=59 velocity=0 time=0
EXTRACT: note_on channel=1 note=66 velocity=80 time=0.0013297854166666667
EXTRACT: note_on channel=3 note=59 velocity=80 time=0
EXTRACT: note_on channel=0 note=51 velocity=0 time=0.15824446458333333
EXTRACT: note_on channel=1 note=66 velocity=0 time=0
EXTRACT: note_on channel=3 note=51 velocity=0 time=0
EXTRACT: note_on channel=3 note=59 velocity=0 time=0
EXTRACT: note_on channel=4 note=47 velocity=0 time=0
EXTRACT: note_on channel=0 note=49 velocity=80 time=0.0013297854166666667
EXTRACT: note_on channel=3 note=49 velocity=80 time=0
EXTRACT: note_on channel=4 note=46 velocity=80 time=0
EXTRACT: note_on channel=0 note=49 velocity=0 time=0.31781871458333333
EXTRACT: note_on channel=0 note=49 velocity=80 time=0.0013297854166666667
EXTRACT: note_on channel=1 note=66 velocity=80 time=0.3191485
EXTRACT: note_on channel=3 note=59 velocity=80 time=0
EXTRACT: note_on channel=1 note=66 velocity=0 time=0.47739296458333336
EXTRACT: note_on channel=3 note=59 velocity=0 time=0
EXTRACT: note_on channel=1 note=66 velocity=80 time=0.0013297854166666667
EXTRACT: note_on channel=3 note=59 velocity=80 time=0
EXTRACT: note_on channel=0 note=49 velocity=0 time=0.15824446458333333
EXTRACT: note_on channel=1 note=66 velocity=0 time=0.15957425
EXTRACT: note_on channel=1 note=66 velocity=80 time=0.0013297854166666667
EXTRACT: note_on channel=1 note=66 velocity=0 time=0.15824446458333333
EXTRACT: note_on channel=3 note=59 velocity=0 time=0
EXTRACT: note_on channel=1 note=66 velocity=80 time=0.0013297854166666667
EXTRACT: note_on channel=3 note=58 velocity=80 time=0
EXTRACT: note_on channel=3 note=58 velocity=0 time=0.15824446458333333
EXTRACT: note_on channel=3 note=59 velocity=80 time=0.0013297854166666667
EXTRACT: note_on channel=1 note=66 velocity=0 time=0.15824446458333333
EXTRACT: note_on channel=3 note=49 velocity=0 time=0
EXTRACT: note_on channel=3 note=59 velocity=0 time=0
EXTRACT: note_on channel=1 note=66 velocity=80 time=0.0013297854166666667
EXTRACT: note_on channel=3 note=49 velocity=80 time=0
EXTRACT: note_on channel=1 note=66 velocity=0 time=0.15824446458333333
EXTRACT: note_on channel=1 note=66 velocity=80 time=0.0013297854166666667
EXTRACT: note_on channel=3 note=59 velocity=80 time=0
EXTRACT: note_on channel=1 note=66 velocity=0 time=0.15824446458333333
EXTRACT: note_on channel=3 note=49 velocity=0 time=0
EXTRACT: note_on channel=3 note=59 velocity=0 time=0
EXTRACT: note_on channel=1 note=66 velocity=80 time=0.0013297854166666667
EXTRACT: note_on channel=3 note=49 velocity=80 time=0
EXTRACT: note_on channel=1 note=66 velocity=0 time=0.15824446458333333
EXTRACT: note_on channel=3 note=49 velocity=0 time=0
EXTRACT: note_on channel=1 note=66 velocity=80 time=0.0013297854166666667
EXTRACT: note_on channel=3 note=59 velocity=80 time=0
EXTRACT: note_on channel=3 note=49 velocity=80 time=0
EXTRACT: note_on channel=1 note=66 velocity=0 time=0.15824446458333333
EXTRACT: note_on channel=3 note=59 velocity=0 time=0
EXTRACT: note_on channel=3 note=49 velocity=0 time=0
EXTRACT: note_on channel=4 note=46 velocity=0 time=0
EXTRACT: note_on channel=3 note=51 velocity=80 time=0.0013297854166666667
EXTRACT: note_on channel=4 note=44 velocity=80 time=0
EXTRACT: note_on channel=0 note=59 velocity=80 time=0.638297
EXTRACT: note_on channel=1 note=66 velocity=80 time=0
EXTRACT: note_on channel=1 note=63 velocity=80 time=0
EXTRACT: note_on channel=3 note=59 velocity=80 time=0
EXTRACT: note_on channel=0 note=59 velocity=0 time=0.47739296458333336
EXTRACT: note_on channel=1 note=66 velocity=0 time=0
EXTRACT: note_on channel=1 note=63 velocity=0 time=0
EXTRACT: note_on channel=3 note=59 velocity=0 time=0
EXTRACT: note_on channel=0 note=59 velocity=80 time=0.0013297854166666667
EXTRACT: note_on channel=1 note=66 velocity=80 time=0
EXTRACT: note_on channel=1 note=63 velocity=80 time=0
EXTRACT: note_on channel=3 note=59 velocity=80 time=0
EXTRACT: note_on channel=3 note=51 velocity=0 time=0.15824446458333333
EXTRACT: note_on channel=1 note=66 velocity=0 time=0.15957425
EXTRACT: note_on channel=1 note=63 velocity=0 time=0
EXTRACT: note_on channel=1 note=66 velocity=80 time=0.0013297854166666667
EXTRACT: note_on channel=1 note=63 velocity=80 time=0
EXTRACT: note_on channel=0 note=59 velocity=0 time=0.15824446458333333
EXTRACT: note_on channel=1 note=66 velocity=0 time=0
EXTRACT: note_on channel=1 note=63 velocity=0 time=0
EXTRACT: note_on channel=3 note=59 velocity=0 time=0
EXTRACT: note_on channel=0 note=54 velocity=80 time=0.0013297854166666667
EXTRACT: note_on channel=1 note=66 velocity=80 time=0
EXTRACT: note_on channel=1 note=63 velocity=80 time=0
EXTRACT: note_on channel=3 note=58 velocity=80 time=0
EXTRACT: note_on channel=3 note=58 velocity=0 time=0.15824446458333333
EXTRACT: note_on channel=3 note=59 velocity=80 time=0.0013297854166666667
EXTRACT: note_on channel=1 note=66 velocity=0 time=0.15824446458333333
EXTRACT: note_on channel=1 note=63 velocity=0 time=0
EXTRACT: note_on channel=3 note=59 velocity=0 time=0
EXTRACT: note_on channel=1 note=66 velocity=80 time=0.0013297854166666667
EXTRACT: note_on channel=1 note=63 velocity=80 time=0
EXTRACT: note_on channel=3 note=51 velocity=80 time=0
EXTRACT: note_on channel=3 note=59 velocity=80 time=0.15957425
EXTRACT: note_on channel=0 note=54 velocity=0 time=0.15824446458333333
EXTRACT: note_on channel=1 note=66 velocity=0 time=0
EXTRACT: note_on channel=1 note=63 velocity=0 time=0
EXTRACT: note_on channel=3 note=51 velocity=0 time=0
EXTRACT: note_on channel=3 note=59 velocity=0 time=0
EXTRACT: note_on channel=0 note=51 velocity=80 time=0.0013297854166666667
EXTRACT: note_on channel=1 note=66 velocity=80 time=0
EXTRACT: note_on channel=1 note=63 velocity=80 time=0
EXTRACT: note_on channel=3 note=51 velocity=80 time=0
EXTRACT: note_on channel=1 note=66 velocity=0 time=0.15824446458333333
EXTRACT: note_on channel=1 note=63 velocity=0 time=0
EXTRACT: note_on channel=3 note=51 velocity=0 time=0
EXTRACT: note_on channel=1 note=66 velocity=80 time=0.0013297854166666667
EXTRACT: note_on channel=1 note=63 velocity=80 time=0
EXTRACT: note_on channel=3 note=59 velocity=80 time=0
EXTRACT: note_on channel=3 note=51 velocity=80 time=0
EXTRACT: note_on channel=1 note=66 velocity=0 time=0.15824446458333333
EXTRACT: note_on channel=1 note=63 velocity=0 time=0
EXTRACT: note_on channel=3 note=59 velocity=0 time=0
EXTRACT: note_on channel=3 note=51 velocity=0 time=0
EXTRACT: note_on channel=4 note=44 velocity=0 time=0
EXTRACT: note_on channel=4 note=40 velocity=80 time=0.0013297854166666667
EXTRACT: note_on channel=0 note=51 velocity=0 time=0.31781871458333333
EXTRACT: note_on channel=0 note=47 velocity=80 time=0.0013297854166666667
EXTRACT: note_on channel=1 note=66 velocity=80 time=0.3191485
EXTRACT: note_on channel=1 note=63 velocity=80 time=0
EXTRACT: note_on channel=3 note=59 velocity=80 time=0
EXTRACT: note_on channel=3 note=56 velocity=80 time=0
EXTRACT: note_on channel=1 note=66 velocity=0 time=0.47739296458333336
EXTRACT: note_on channel=1 note=63 velocity=0 time=0
EXTRACT: note_on channel=3 note=59 velocity=0 time=0
EXTRACT: note_on channel=1 note=66 velocity=80 time=0.0013297854166666667
EXTRACT: note_on channel=1 note=63 velocity=80 time=0
EXTRACT: note_on channel=3 note=59 velocity=80 time=0
EXTRACT: note_on channel=0 note=47 velocity=0 time=0.15824446458333333
EXTRACT: note_on channel=1 note=66 velocity=0 time=0.15957425
EXTRACT: note_on channel=1 note=63 velocity=0 time=0
EXTRACT: note_on channel=1 note=66 velocity=80 time=0.0013297854166666667
EXTRACT: note_on channel=1 note=63 velocity=80 time=0
EXTRACT: note_on channel=1 note=66 velocity=0 time=0.15824446458333333
EXTRACT: note_on channel=1 note=63 velocity=0 time=0
EXTRACT: note_on channel=3 note=56 velocity=0 time=0
EXTRACT: note_on channel=3 note=59 velocity=0 time=0
EXTRACT: note_on channel=1 note=66 velocity=80 time=0.0013297854166666667
EXTRACT: note_on channel=1 note=63 velocity=80 time=0
EXTRACT: note_on channel=3 note=58 velocity=80 time=0
EXTRACT: note_on channel=3 note=54 velocity=80 time=0
EXTRACT: note_on channel=3 note=58 velocity=0 time=0.15824446458333333
EXTRACT: note_on channel=3 note=54 velocity=0 time=0
EXTRACT: note_on channel=3 note=59 velocity=80 time=0.0013297854166666667
EXTRACT: note_on channel=3 note=56 velocity=80 time=0
EXTRACT: note_on channel=1 note=66 velocity=0 time=0.15824446458333333
EXTRACT: note_on channel=1 note=63 velocity=0 time=0
EXTRACT: note_on channel=3 note=59 velocity=0 time=0
EXTRACT: note_on channel=1 note=66 velocity=80 time=0.0013297854166666667
EXTRACT: note_on channel=1 note=63 velocity=80 time=0
EXTRACT: note_on channel=2 note=59 velocity=0 time=0.12632961458333333
EXTRACT: note_on channel=3 note=59 velocity=80 time=0.03324463541666667
EXTRACT: note_on channel=1 note=66 velocity=0 time=0.15824446458333333
EXTRACT: note_on channel=1 note=63 velocity=0 time=0
EXTRACT: note_on channel=3 note=56 velocity=0 time=0
EXTRACT: note_on channel=3 note=59 velocity=0 time=0
EXTRACT: note_on channel=1 note=66 velocity=80 time=0.0013297854166666667
EXTRACT: note_on channel=1 note=63 velocity=80 time=0
EXTRACT: note_on channel=3 note=54 velocity=80 time=0
EXTRACT: note_on channel=1 note=66 velocity=0 time=0.15824446458333333
EXTRACT: note_on channel=1 note=63 velocity=0 time=0
EXTRACT: note_on channel=1 note=66 velocity=80 time=0.0013297854166666667
EXTRACT: note_on channel=1 note=63 velocity=80 time=0
EXTRACT: note_on channel=3 note=59 velocity=80 time=0
EXTRACT: note_on channel=1 note=66 velocity=0 time=0.15824446458333333
EXTRACT: note_on channel=1 note=63 velocity=0 time=0
EXTRACT: note_on channel=3 note=54 velocity=0 time=0
EXTRACT: note_on channel=3 note=59 velocity=0 time=0
EXTRACT: note_on channel=4 note=40 velocity=0 time=0
EXTRACT: note_on channel=2 note=59 velocity=80 time=0.0013297854166666667
EXTRACT: note_on channel=4 note=47 velocity=80 time=0
EXTRACT: note_on channel=0 note=59 velocity=80 time=0.638297
EXTRACT: note_on channel=1 note=66 velocity=80 time=0
EXTRACT: note_on channel=3 note=59 velocity=80 time=0
EXTRACT: note_on channel=3 note=51 velocity=80 time=0
EXTRACT: note_on channel=0 note=59 velocity=0 time=0.47739296458333336
EXTRACT: note_on channel=1 note=66 velocity=0 time=0
EXTRACT: note_on channel=3 note=59 velocity=0 time=0
EXTRACT: note_on channel=0 note=59 velocity=80 time=0.0013297854166666667
EXTRACT: note_on channel=1 note=66 velocity=80 time=0
EXTRACT: note_on channel=3 note=59 velocity=80 time=0
EXTRACT: note_on channel=1 note=66 velocity=0 time=0.31781871458333333
EXTRACT: note_on channel=1 note=66 velocity=80 time=0.0013297854166666667
EXTRACT: note_on channel=0 note=59 velocity=0 time=0.15824446458333333
EXTRACT: note_on channel=1 note=66 velocity=0 time=0
EXTRACT: note_on channel=3 note=51 velocity=0 time=0
EXTRACT: note_on channel=3 note=59 velocity=0 time=0
EXTRACT: note_on channel=0 note=54 velocity=80 time=0.0013297854166666667
EXTRACT: note_on channel=1 note=66 velocity=80 time=0
EXTRACT: note_on channel=3 note=59 velocity=80 time=0
EXTRACT: note_on channel=3 note=51 velocity=80 time=0
EXTRACT: note_on channel=1 note=66 velocity=0 time=0.31781871458333333
EXTRACT: note_on channel=3 note=59 velocity=0 time=0
EXTRACT: note_on channel=1 note=66 velocity=80 time=0.0013297854166666667
EXTRACT: note_on channel=3 note=59 velocity=80 time=0
EXTRACT: note_on channel=1 note=66 velocity=0 time=0.15824446458333333
EXTRACT: note_on channel=1 note=66 velocity=80 time=0.0013297854166666667
EXTRACT: note_on channel=0 note=54 velocity=0 time=0.15824446458333333
EXTRACT: note_on channel=1 note=66 velocity=0 time=0
EXTRACT: note_on channel=3 note=51 velocity=0 time=0
EXTRACT: note_on channel=3 note=59 velocity=0 time=0
EXTRACT: note_on channel=0 note=51 velocity=80 time=0.0013297854166666667
EXTRACT: note_on channel=1 note=66 velocity=80 time=0
EXTRACT: note_on channel=3 note=59 velocity=80 time=0
EXTRACT: note_on channel=3 note=51 velocity=80 time=0
EXTRACT: note_on channel=1 note=66 velocity=0 time=0.15824446458333333
EXTRACT: note_on channel=3 note=59 velocity=0 time=0
EXTRACT: note_on channel=1 note=66 velocity=80 time=0.0013297854166666667
EXTRACT: note_on channel=3 note=59 velocity=80 time=0
EXTRACT: note_on channel=2 note=59 velocity=0 time=0.03058506458333333
EXTRACT: note_on channel=1 note=66 velocity=0 time=0.1276594
EXTRACT: note_on channel=3 note=51 velocity=0 time=0
EXTRACT: note_on channel=3 note=59 velocity=0 time=0
EXTRACT: note_on channel=4 note=47 velocity=0 time=0
EXTRACT: note_on channel=2 note=61 velocity=80 time=0.0013297854166666667
EXTRACT: note_on channel=3 note=49 velocity=80 time=0
EXTRACT: note_on channel=4 note=46 velocity=80 time=0
EXTRACT: note_on channel=0 note=51 velocity=0 time=0.31781871458333333
EXTRACT: note_on channel=0 note=47 velocity=80 time=0.0013297854166666667
EXTRACT: note_on channel=1 note=66 velocity=80 time=0.3191485
EXTRACT: note_on channel=3 note=59 velocity=80 time=0
EXTRACT: note_on channel=0 note=47 velocity=0 time=0.31781871458333333
EXTRACT: note_on channel=0 note=49 velocity=80 time=0.0013297854166666667
EXTRACT: note_on channel=1 note=66 velocity=0 time=0.15824446458333333
EXTRACT: note_on channel=3 note=59 velocity=0 time=0
EXTRACT: note_on channel=1 note=66 velocity=80 time=0.0013297854166666667
EXTRACT: note_on channel=3 note=59 velocity=80 time=0
EXTRACT: note_on channel=1 note=66 velocity=0 time=0.31781871458333333
EXTRACT: note_on channel=1 note=66 velocity=80 time=0.0013297854166666667
EXTRACT: note_on channel=0 note=49 velocity=0 time=0.15824446458333333
EXTRACT: note_on channel=1 note=66 velocity=0 time=0
EXTRACT: note_on channel=3 note=59 velocity=0 time=0
EXTRACT: note_on channel=0 note=51 velocity=80 time=0.0013297854166666667
EXTRACT: note_on channel=1 note=66 velocity=80 time=0
EXTRACT: note_on channel=3 note=58 velocity=80 time=0
EXTRACT: note_on channel=3 note=58 velocity=0 time=0.15824446458333333
EXTRACT: note_on channel=3 note=59 velocity=80 time=0.0013297854166666667
EXTRACT: note_on channel=1 note=66 velocity=0 time=0.15824446458333333
EXTRACT: note_on channel=3 note=49 velocity=0 time=0
EXTRACT: note_on channel=3 note=59 velocity=0 time=0
EXTRACT: note_on channel=1 note=66 velocity=80 time=0.0013297854166666667
EXTRACT: note_on channel=3 note=49 velocity=80 time=0
EXTRACT: note_on channel=1 note=66 velocity=0 time=0.15824446458333333
EXTRACT: note_on channel=1 note=66 velocity=80 time=0.0013297854166666667
EXTRACT: note_on channel=3 note=59 velocity=80 time=0
EXTRACT: note_on channel=0 note=51 velocity=0 time=0.15824446458333333
EXTRACT: note_on channel=1 note=66 velocity=0 time=0
EXTRACT: note_on channel=3 note=49 velocity=0 time=0
EXTRACT: note_on channel=3 note=59 velocity=0 time=0
EXTRACT: note_on channel=0 note=51 velocity=80 time=0.0013297854166666667
EXTRACT: note_on channel=1 note=66 velocity=80 time=0
EXTRACT: note_on channel=3 note=49 velocity=80 time=0
EXTRACT: note_on channel=0 note=51 velocity=0 time=0.15824446458333333
EXTRACT: note_on channel=1 note=66 velocity=0 time=0
EXTRACT: note_on channel=3 note=49 velocity=0 time=0
EXTRACT: note_on channel=0 note=52 velocity=80 time=0.0013297854166666667
EXTRACT: note_on channel=1 note=66 velocity=80 time=0
EXTRACT: note_on channel=3 note=59 velocity=80 time=0
EXTRACT: note_on channel=3 note=49 velocity=80 time=0
EXTRACT: note_on channel=2 note=61 velocity=0 time=0.03058506458333333
EXTRACT: note_on channel=0 note=52 velocity=0 time=0.1276594
EXTRACT: note_on channel=1 note=66 velocity=0 time=0
EXTRACT: note_on channel=3 note=59 velocity=0 time=0
EXTRACT: note_on channel=3 note=49 velocity=0 time=0
EXTRACT: note_on channel=4 note=46 velocity=0 time=0
EXTRACT: note_on channel=0 note=51 velocity=80 time=0.0013297854166666667
EXTRACT: note_on channel=2 note=63 velocity=80 time=0
EXTRACT: note_on channel=3 note=51 velocity=80 time=0
EXTRACT: note_on channel=4 note=44 velocity=80 time=0
EXTRACT: note_on channel=1 note=66 velocity=80 time=0.638297
EXTRACT: note_on channel=1 note=63 velocity=80 time=0
EXTRACT: note_on channel=3 note=59 velocity=80 time=0
EXTRACT: note_on channel=1 note=66 velocity=0 time=0.47739296458333336
EXTRACT: note_on channel=1 note=63 velocity=0 time=0
EXTRACT: note_on channel=3 note=59 velocity=0 time=0
EXTRACT: note_on channel=1 note=66 velocity=80 time=0.0013297854166666667
EXTRACT: note_on channel=1 note=63 velocity=80 time=0
EXTRACT: note_on channel=3 note=59 velocity=80 time=0
EXTRACT: note_on channel=0 note=51 velocity=0 time=0.15824446458333333
EXTRACT: note_on channel=3 note=51 velocity=0 time=0
EXTRACT: note_on channel=1 note=66 velocity=0 time=0.15957425
EXTRACT: note_on channel=1 note=63 velocity=0 time=0
EXTRACT: note_on channel=1 note=66 velocity=80 time=0.0013297854166666667
EXTRACT: note_on channel=1 note=63 velocity=80 time=0
EXTRACT: note_on channel=1 note=66 velocity=0 time=0.15824446458333333
EXTRACT: note_on channel=1 note=63 velocity=0 time=0
EXTRACT: note_on channel=3 note=59 velocity=0 time=0
EXTRACT: note_on channel=1 note=66 velocity=80 time=0.0013297854166666667
EXTRACT: note_on channel=1 note=63 velocity=80 time=0
EXTRACT: note_on channel=3 note=58 velocity=80 time=0
EXTRACT: note_on channel=3 note=58 velocity=0 time=0.15824446458333333
EXTRACT: note_on channel=3 note=59 velocity=80 time=0.0013297854166666667
EXTRACT: note_on channel=1 note=66 velocity=0 time=0.15824446458333333
EXTRACT: note_on channel=1 note=63 velocity=0 time=0
EXTRACT: note_on channel=3 note=59 velocity=0 time=0
EXTRACT: note_on channel=1 note=66 velocity=80 time=0.0013297854166666667
EXTRACT: note_on channel=1 note=63 velocity=80 time=0
EXTRACT: note_on channel=3 note=51 velocity=80 time=0
EXTRACT: note_on channel=1 note=66 velocity=0 time=0.15824446458333333
EXTRACT: note_on channel=1 note=63 velocity=0 time=0
EXTRACT: note_on channel=1 note=66 velocity=80 time=0.0013297854166666667
EXTRACT: note_on channel=1 note=63 velocity=80 time=0
EXTRACT: note_on channel=3 note=59 velocity=80 time=0
EXTRACT: note_on channel=1 note=66 velocity=0 time=0.15824446458333333
EXTRACT: note_on channel=1 note=63 velocity=0 time=0
EXTRACT: note_on channel=3 note=51 velocity=0 time=0
EXTRACT: note_on channel=3 note=59 velocity=0 time=0
EXTRACT: note_on channel=1 note=66 velocity=80 time=0.0013297854166666667
EXTRACT: note_on channel=1 note=63 velocity=80 time=0
EXTRACT: note_on channel=3 note=51 velocity=80 time=0
EXTRACT: note_on channel=1 note=66 velocity=0 time=0.15824446458333333
EXTRACT: note_on channel=1 note=63 velocity=0 time=0
EXTRACT: note_on channel=3 note=51 velocity=0 time=0
EXTRACT: note_on channel=1 note=66 velocity=80 time=0.0013297854166666667
EXTRACT: note_on channel=1 note=63 velocity=80 time=0
EXTRACT: note_on channel=3 note=59 velocity=80 time=0
EXTRACT: note_on channel=3 note=51 velocity=80 time=0
EXTRACT: note_on channel=2 note=63 velocity=0 time=0.03058506458333333
EXTRACT: note_on channel=1 note=66 velocity=0 time=0.1276594
EXTRACT: note_on channel=1 note=63 velocity=0 time=0
EXTRACT: note_on channel=3 note=59 velocity=0 time=0
EXTRACT: note_on channel=3 note=51 velocity=0 time=0
EXTRACT: note_on channel=4 note=44 velocity=0 time=0
EXTRACT: note_on channel=0 note=56 velocity=80 time=0.0013297854166666667
EXTRACT: note_on channel=2 note=61 velocity=80 time=0
EXTRACT: note_on channel=4 note=40 velocity=80 time=0
EXTRACT: note_on channel=0 note=56 velocity=0 time=0.31781871458333333
EXTRACT: note_on channel=0 note=59 velocity=80 time=0.0013297854166666667
EXTRACT: note_on channel=0 note=59 velocity=0 time=0.31781871458333333
EXTRACT: note_on channel=0 note=61 velocity=80 time=0.0013297854166666667
EXTRACT: note_on channel=1 note=66 velocity=80 time=0
EXTRACT: note_on channel=1 note=63 velocity=80 time=0
EXTRACT: note_on channel=3 note=59 velocity=80 time=0
EXTRACT: note_on channel=3 note=56 velocity=80 time=0
EXTRACT: note_on channel=0 note=61 velocity=0 time=0.47739296458333336
EXTRACT: note_on channel=1 note=66 velocity=0 time=0
EXTRACT: note_on channel=1 note=63 velocity=0 time=0
EXTRACT: note_on channel=3 note=59 velocity=0 time=0
EXTRACT: note_on channel=0 note=59 velocity=80 time=0.0013297854166666667
EXTRACT: note_on channel=1 note=66 velocity=80 time=0
EXTRACT: note_on channel=1 note=63 velocity=80 time=0
EXTRACT: note_on channel=3 note=59 velocity=80 time=0
EXTRACT: note_on channel=1 note=66 velocity=0 time=0.31781871458333333
EXTRACT: note_on channel=1 note=63 velocity=0 time=0
EXTRACT: note_on channel=1 note=66 velocity=80 time=0.0013297854166666667
EXTRACT: note_on channel=1 note=63 velocity=80 time=0
EXTRACT: note_on channel=1 note=66 velocity=0 time=0.15824446458333333
EXTRACT: note_on channel=1 note=63 velocity=0 time=0
EXTRACT: note_on channel=3 note=56 velocity=0 time=0
EXTRACT: note_on channel=3 note=59 velocity=0 time=0
EXTRACT: note_on channel=1 note=66 velocity=80 time=0.0013297854166666667
EXTRACT: note_on channel=1 note=63 velocity=80 time=0
EXTRACT: note_on channel=3 note=58 velocity=80 time=0
EXTRACT: note_on channel=3 note=54 velocity=80 time=0
EXTRACT: note_on channel=3 note=58 velocity=0 time=0.15824446458333333
EXTRACT: note_on channel=3 note=54 velocity=0 time=0
EXTRACT: note_on channel=3 note=59 velocity=80 time=0.0013297854166666667
EXTRACT: note_on channel=3 note=56 velocity=80 time=0
EXTRACT: note_on channel=0 note=59 velocity=0 time=0.15824446458333333
EXTRACT: note_on channel=1 note=66 velocity=0 time=0
EXTRACT: note_on channel=1 note=63 velocity=0 time=0
EXTRACT: note_on channel=3 note=59 velocity=0 time=0
EXTRACT: note_on channel=0 note=59 velocity=80 time=0.0013297854166666667
EXTRACT: note_on channel=1 note=66 velocity=80 time=0
EXTRACT: note_on channel=1 note=63 velocity=80 time=0
EXTRACT: note_on channel=0 note=59 velocity=0 time=0.15824446458333333
EXTRACT: note_on channel=1 note=66 velocity=0 time=0
EXTRACT: note_on channel=1 note=63 velocity=0 time=0
EXTRACT: note_on channel=0 note=61 velocity=80 time=0.0013297854166666667
EXTRACT: note_on channel=1 note=66 velocity=80 time=0
EXTRACT: note_on channel=1 note=63 velocity=80 time=0
EXTRACT: note_on channel=3 note=59 velocity=80 time=0
EXTRACT: note_on channel=0 note=61 velocity=0 time=0.15824446458333333
EXTRACT: note_on channel=1 note=66 velocity=0 time=0
EXTRACT: note_on channel=1 note=63 velocity=0 time=0
EXTRACT: note_on channel=3 note=56 velocity=0 time=0
EXTRACT: note_on channel=3 note=59 velocity=0 time=0
EXTRACT: note_on channel=0 note=63 velocity=80 time=0.0013297854166666667
EXTRACT: note_on channel=1 note=66 velocity=80 time=0
EXTRACT: note_on channel=1 note=63 velocity=80 time=0
EXTRACT: note_on channel=3 note=54 velocity=80 time=0
EXTRACT: note_on channel=0 note=63 velocity=0 time=0.15824446458333333
EXTRACT: note_on channel=1 note=66 velocity=0 time=0
EXTRACT: note_on channel=1 note=63 velocity=0 time=0
EXTRACT: note_on channel=0 note=63 velocity=80 time=0.0013297854166666667
EXTRACT: note_on channel=1 note=66 velocity=80 time=0
EXTRACT: note_on channel=1 note=63 velocity=80 time=0
EXTRACT: note_on channel=3 note=59 velocity=80 time=0
EXTRACT: note_on channel=2 note=61 velocity=0 time=0.03058506458333333
EXTRACT: note_on channel=1 note=66 velocity=0 time=0.1276594
EXTRACT: note_on channel=1 note=63 velocity=0 time=0
EXTRACT: note_on channel=3 note=54 velocity=0 time=0
EXTRACT: note_on channel=3 note=59 velocity=0 time=0
EXTRACT: note_on channel=4 note=40 velocity=0 time=0
EXTRACT: note_on channel=2 note=66 velocity=80 time=0.0013297854166666667
EXTRACT: note_on channel=4 note=47 velocity=80 time=0
EXTRACT: note_on channel=0 note=63 velocity=0 time=0.31781871458333333
EXTRACT: note_on channel=0 note=61 velocity=80 time=0.0013297854166666667
EXTRACT: note_on channel=1 note=66 velocity=80 time=0.3191485
EXTRACT: note_on channel=3 note=59 velocity=80 time=0
EXTRACT: note_on channel=3 note=51 velocity=80 time=0
EXTRACT: note_on channel=0 note=61 velocity=0 time=0.31781871458333333
EXTRACT: note_on channel=0 note=66 velocity=80 time=0.0013297854166666667
EXTRACT: note_on channel=1 note=66 velocity=0 time=0.15824446458333333
EXTRACT: note_on channel=3 note=59 velocity=0 time=0
EXTRACT: note_on channel=1 note=66 velocity=80 time=0.0013297854166666667
EXTRACT: note_on channel=3 note=59 velocity=80 time=0
EXTRACT: note_on channel=1 note=66 velocity=0 time=0.31781871458333333
EXTRACT: note_on channel=1 note=66 velocity=80 time=0.0013297854166666667
EXTRACT: note_on channel=0 note=66 velocity=0 time=0.15824446458333333
EXTRACT: note_on channel=1 note=66 velocity=0 time=0
EXTRACT: note_on channel=3 note=51 velocity=0 time=0
EXTRACT: note_on channel=3 note=59 velocity=0 time=0
EXTRACT: note_on channel=0 note=61 velocity=80 time=0.0013297854166666667
EXTRACT: note_on channel=1 note=66 velocity=80 time=0
EXTRACT: note_on channel=3 note=59 velocity=80 time=0
EXTRACT: note_on channel=3 note=51 velocity=80 time=0
EXTRACT: note_on channel=1 note=66 velocity=0 time=0.31781871458333333
EXTRACT: note_on channel=3 note=59 velocity=0 time=0
EXTRACT: note_on channel=1 note=66 velocity=80 time=0.0013297854166666667
EXTRACT: note_on channel=3 note=59 velocity=80 time=0
EXTRACT: note_on channel=1 note=66 velocity=0 time=0.15824446458333333
EXTRACT: note_on channel=1 note=66 velocity=80 time=0.0013297854166666667
EXTRACT: note_on channel=0 note=61 velocity=0 time=0.15824446458333333
EXTRACT: note_on channel=1 note=66 velocity=0 time=0
EXTRACT: note_on channel=3 note=51 velocity=0 time=0
EXTRACT: note_on channel=3 note=59 velocity=0 time=0
EXTRACT: note_on channel=0 note=59 velocity=80 time=0.0013297854166666667
EXTRACT: note_on channel=1 note=66 velocity=80 time=0
EXTRACT: note_on channel=3 note=59 velocity=80 time=0
EXTRACT: note_on channel=3 note=51 velocity=80 time=0
EXTRACT: note_on channel=1 note=66 velocity=0 time=0.15824446458333333
EXTRACT: note_on channel=3 note=59 velocity=0 time=0
EXTRACT: note_on channel=1 note=66 velocity=80 time=0.0013297854166666667
EXTRACT: note_on channel=3 note=59 velocity=80 time=0
EXTRACT: note_on channel=1 note=66 velocity=0 time=0.15824446458333333
EXTRACT: note_on channel=3 note=51 velocity=0 time=0
EXTRACT: note_on channel=3 note=59 velocity=0 time=0
EXTRACT: note_on channel=4 note=47 velocity=0 time=0
EXTRACT: note_on channel=3 note=49 velocity=80 time=0.0013297854166666667
EXTRACT: note_on channel=4 note=46 velocity=80 time=0
EXTRACT: note_on channel=0 note=59 velocity=0 time=0.6369672145833333
EXTRACT: note_on channel=1 note=66 velocity=80 time=0.0013297854166666667
EXTRACT: note_on channel=3 note=59 velocity=80 time=0
EXTRACT: note_on channel=1 note=66 velocity=0 time=0.47739296458333336
EXTRACT: note_on channel=3 note=59 velocity=0 time=0
EXTRACT: note_on channel=1 note=66 velocity=80 time=0.0013297854166666667
EXTRACT: note_on channel=3 note=59 velocity=80 time=0
EXTRACT: note_on channel=1 note=66 velocity=0 time=0.31781871458333333
EXTRACT: note_on channel=1 note=66 velocity=80 time=0.0013297854166666667
EXTRACT: note_on channel=1 note=66 velocity=0 time=0.15824446458333333
EXTRACT: note_on channel=3 note=59 velocity=0 time=0
EXTRACT: note_on channel=1 note=66 velocity=80 time=0.0013297854166666667
EXTRACT: note_on channel=3 note=58 velocity=80 time=0
EXTRACT: note_on channel=3 note=58 velocity=0 time=0.15824446458333333
EXTRACT: note_on channel=3 note=59 velocity=80 time=0.0013297854166666667
EXTRACT: note_on channel=1 note=66 velocity=0 time=0.15824446458333333
EXTRACT: note_on channel=3 note=49 velocity=0 time=0
EXTRACT: note_on channel=3 note=59 velocity=0 time=0
EXTRACT: note_on channel=0 note=59 velocity=80 time=0.0013297854166666667
EXTRACT: note_on channel=1 note=66 velocity=80 time=0
EXTRACT: note_on channel=3 note=49 velocity=80 time=0
EXTRACT: note_on channel=0 note=59 velocity=0 time=0.15824446458333333
EXTRACT: note_on channel=1 note=66 velocity=0 time=0
EXTRACT: note_on channel=0 note=61 velocity=80 time=0.0013297854166666667
EXTRACT: note_on channel=1 note=66 velocity=80 time=0
EXTRACT: note_on channel=3 note=59 velocity=80 time=0
EXTRACT: note_on channel=0 note=61 velocity=0 time=0.15824446458333333
EXTRACT: note_on channel=1 note=66 velocity=0 time=0
EXTRACT: note_on channel=3 note=49 velocity=0 time=0
EXTRACT: note_on channel=3 note=59 velocity=0 time=0
EXTRACT: note_on channel=0 note=63 velocity=80 time=0.0013297854166666667
EXTRACT: note_on channel=1 note=66 velocity=80 time=0
EXTRACT: note_on channel=3 note=49 velocity=80 time=0
EXTRACT: note_on channel=0 note=63 velocity=0 time=0.15824446458333333
EXTRACT: note_on channel=1 note=66 velocity=0 time=0
EXTRACT: note_on channel=3 note=49 velocity=0 time=0
EXTRACT: note_on channel=0 note=63 velocity=80 time=0.0013297854166666667
EXTRACT: note_on channel=1 note=66 velocity=80 time=0
EXTRACT: note_on channel=3 note=59 velocity=80 time=0
EXTRACT: note_on channel=3 note=49 velocity=80 time=0
EXTRACT: note_on channel=1 note=66 velocity=0 time=0.15824446458333333
EXTRACT: note_on channel=3 note=59 velocity=0 time=0
EXTRACT: note_on channel=3 note=49 velocity=0 time=0
EXTRACT: note_on channel=4 note=46 velocity=0 time=0
EXTRACT: note_on channel=3 note=51 velocity=80 time=0.0013297854166666667
EXTRACT: note_on channel=4 note=44 velocity=80 time=0
EXTRACT: note_on channel=0 note=63 velocity=0 time=0.31781871458333333
EXTRACT: note_on channel=0 note=61 velocity=80 time=0.0013297854166666667
EXTRACT: note_on channel=1 note=66 velocity=80 time=0.3191485
EXTRACT: note_on channel=1 note=63 velocity=80 time=0
EXTRACT: note_on channel=3 note=59 velocity=80 time=0
EXTRACT: note_on channel=0 note=61 velocity=0 time=0.31781871458333333
EXTRACT: note_on channel=0 note=66 velocity=80 time=0.0013297854166666667
EXTRACT: note_on channel=1 note=66 velocity=0 time=0.15824446458333333
EXTRACT: note_on channel=1 note=63 velocity=0 time=0
EXTRACT: note_on channel=3 note=59 velocity=0 time=0
EXTRACT: note_on channel=1 note=66 velocity=80 time=0.0013297854166666667
EXTRACT: note_on channel=1 note=63 velocity=80 time=0
EXTRACT: note_on channel=3 note=59 velocity=80 time=0
EXTRACT: note_on channel=3 note=51 velocity=0 time=0.15824446458333333
EXTRACT: note_on channel=1 note=66 velocity=0 time=0.15957425
EXTRACT: note_on channel=1 note=63 velocity=0 time=0
EXTRACT: note_on channel=1 note=66 velocity=80 time=0.0013297854166666667
EXTRACT: note_on channel=1 note=63 velocity=80 time=0
EXTRACT: note_on channel=0 note=66 velocity=0 time=0.15824446458333333
EXTRACT: note_on channel=1 note=66 velocity=0 time=0
EXTRACT: note_on channel=1 note=63 velocity=0 time=0
EXTRACT: note_on channel=3 note=59 velocity=0 time=0
EXTRACT: note_on channel=0 note=61 velocity=80 time=0.0013297854166666667
EXTRACT: note_on channel=1 note=66 velocity=80 time=0
EXTRACT: note_on channel=1 note=63 velocity=80 time=0
EXTRACT: note_on channel=3 note=58 velocity=80 time=0
EXTRACT: note_on channel=3 note=58 velocity=0 time=0.15824446458333333
EXTRACT: note_on channel=3 note=59 velocity=80 time=0.0013297854166666667
EXTRACT: note_on channel=1 note=66 velocity=0 time=0.15824446458333333
EXTRACT: note_on channel=1 note=63 velocity=0 time=0
EXTRACT: note_on channel=3 note=59 velocity=0 time=0
EXTRACT: note_on channel=1 note=66 velocity=80 time=0.0013297854166666667
EXTRACT: note_on channel=1 note=63 velocity=80 time=0
EXTRACT: note_on channel=3 note=51 velocity=80 time=0
EXTRACT: note_on channel=1 note=66 velocity=0 time=0.15824446458333333
EXTRACT: note_on channel=1 note=63 velocity=0 time=0
EXTRACT: note_on channel=1 note=66 velocity=80 time=0.0013297854166666667
EXTRACT: note_on channel=1 note=63 velocity=80 time=0
EXTRACT: note_on channel=3 note=59 velocity=80 time=0
EXTRACT: note_on channel=0 note=61 velocity=0 time=0.15824446458333333
EXTRACT: note_on channel=1 note=66 velocity=0 time=0
EXTRACT: note_on channel=1 note=63 velocity=0 time=0
EXTRACT: note_on channel=3 note=51 velocity=0 time=0
EXTRACT: note_on channel=3 note=59 velocity=0 time=0
EXTRACT: note_on channel=0 note=59 velocity=80 time=0.0013297854166666667
EXTRACT: note_on channel=1 note=66 velocity=80 time=0
EXTRACT: note_on channel=1 note=63 velocity=80 time=0
EXTRACT: note_on channel=3 note=51 velocity=80 time=0
EXTRACT: note_on channel=1 note=66 velocity=0 time=0.15824446458333333
EXTRACT: note_on channel=1 note=63 velocity=0 time=0
EXTRACT: note_on channel=3 note=51 velocity=0 time=0
EXTRACT: note_on channel=1 note=66 velocity=80 time=0.0013297854166666667
EXTRACT: note_on channel=1 note=63 velocity=80 time=0
EXTRACT: note_on channel=3 note=59 velocity=80 time=0
EXTRACT: note_on channel=3 note=51 velocity=80 time=0
EXTRACT: note_on channel=1 note=66 velocity=0 time=0.15824446458333333
EXTRACT: note_on channel=1 note=63 velocity=0 time=0
EXTRACT: note_on channel=3 note=59 velocity=0 time=0
EXTRACT: note_on channel=3 note=51 velocity=0 time=0
EXTRACT: note_on channel=4 note=44 velocity=0 time=0
EXTRACT: note_on channel=4 note=40 velocity=80 time=0.0013297854166666667
EXTRACT: note_on channel=0 note=59 velocity=0 time=0.6369672145833333
EXTRACT: note_on channel=1 note=66 velocity=80 time=0.0013297854166666667
EXTRACT: note_on channel=1 note=63 velocity=80 time=0
EXTRACT: note_on channel=3 note=59 velocity=80 time=0
EXTRACT: note_on channel=3 note=56 velocity=80 time=0
EXTRACT: note_on channel=1 note=66 velocity=0 time=0.47739296458333336
EXTRACT: note_on channel=1 note=63 velocity=0 time=0
EXTRACT: note_on channel=3 note=59 velocity=0 time=0
EXTRACT: note_on channel=1 note=66 velocity=80 time=0.0013297854166666667
EXTRACT: note_on channel=1 note=63 velocity=80 time=0
EXTRACT: note_on channel=3 note=59 velocity=80 time=0
EXTRACT: note_on channel=1 note=66 velocity=0 time=0.31781871458333333
EXTRACT: note_on channel=1 note=63 velocity=0 time=0
EXTRACT: note_on channel=1 note=66 velocity=80 time=0.0013297854166666667
EXTRACT: note_on channel=1 note=63 velocity=80 time=0
EXTRACT: note_on channel=1 note=66 velocity=0 time=0.15824446458333333
EXTRACT: note_on channel=1 note=63 velocity=0 time=0
EXTRACT: note_on channel=3 note=56 velocity=0 time=0
EXTRACT: note_on channel=3 note=59 velocity=0 time=0
EXTRACT: note_on channel=1 note=66 velocity=80 time=0.0013297854166666667
EXTRACT: note_on channel=1 note=63 velocity=80 time=0
EXTRACT: note_on channel=3 note=58 velocity=80 time=0
EXTRACT: note_on channel=3 note=54 velocity=80 time=0
EXTRACT: note_on channel=3 note=58 velocity=0 time=0.15824446458333333
EXTRACT: note_on channel=3 note=54 velocity=0 time=0
EXTRACT: note_on channel=3 note=59 velocity=80 time=0.0013297854166666667
EXTRACT: note_on channel=3 note=56 velocity=80 time=0
EXTRACT: note_on channel=1 note=66 velocity=0 time=0.15824446458333333
EXTRACT: note_on channel=1 note=63 velocity=0 time=0
EXTRACT: note_on channel=3 note=59 velocity=0 time=0
EXTRACT: note_on channel=0 note=59 velocity=80 time=0.0013297854166666667
EXTRACT: note_on channel=1 note=66 velocity=80 time=0
EXTRACT: note_on channel=1 note=63 velocity=80 time=0
EXTRACT: note_on channel=2 note=66 velocity=0 time=0.12632961458333333
EXTRACT: note_on channel=0 note=59 velocity=0 time=0.03191485
EXTRACT: note_on channel=1 note=66 velocity=0 time=0
EXTRACT: note_on channel=1 note=63 velocity=0 time=0
EXTRACT: note_on channel=0 note=61 velocity=80 time=0.0013297854166666667
EXTRACT: note_on channel=1 note=66 velocity=80 time=0
EXTRACT: note_on channel=1 note=63 velocity=80 time=0
EXTRACT: note_on channel=3 note=59 velocity=80 time=0
EXTRACT: note_on channel=0 note=61 velocity=0 time=0.15824446458333333
EXTRACT: note_on channel=1 note=66 velocity=0 time=0
EXTRACT: note_on channel=1 note=63 velocity=0 time=0
EXTRACT: note_on channel=3 note=56 velocity=0 time=0
EXTRACT: note_on channel=3 note=59 velocity=0 time=0
EXTRACT: note_on channel=0 note=63 velocity=80 time=0.0013297854166666667
EXTRACT: note_on channel=1 note=66 velocity=80 time=0
EXTRACT: note_on channel=1 note=63 velocity=80 time=0
EXTRACT: note_on channel=3 note=54 velocity=80 time=0
EXTRACT: note_on channel=0 note=63 velocity=0 time=0.15824446458333333
EXTRACT: note_on channel=1 note=66 velocity=0 time=0
EXTRACT: note_on channel=1 note=63 velocity=0 time=0
EXTRACT: note_on channel=0 note=63 velocity=80 time=0.0013297854166666667
EXTRACT: note_on channel=1 note=66 velocity=80 time=0
EXTRACT: note_on channel=1 note=63 velocity=80 time=0
EXTRACT: note_on channel=3 note=59 velocity=80 time=0
EXTRACT: note_on channel=1 note=66 velocity=0 time=0.15824446458333333
EXTRACT: note_on channel=1 note=63 velocity=0 time=0
EXTRACT: note_on channel=3 note=54 velocity=0 time=0
EXTRACT: note_on channel=3 note=59 velocity=0 time=0
EXTRACT: note_on channel=4 note=40 velocity=0 time=0
EXTRACT: note_on channel=2 note=66 velocity=80 time=0.0013297854166666667
EXTRACT: note_on channel=4 note=47 velocity=80 time=0
EXTRACT: note_on channel=0 note=63 velocity=0 time=0.31781871458333333
EXTRACT: note_on channel=0 note=61 velocity=80 time=0.0013297854166666667
EXTRACT: note_on channel=1 note=66 velocity=80 time=0.3191485
EXTRACT: note_on channel=3 note=59 velocity=80 time=0
EXTRACT: note_on channel=3 note=51 velocity=80 time=0
EXTRACT: note_on channel=0 note=61 velocity=0 time=0.31781871458333333
EXTRACT: note_on channel=0 note=66 velocity=80 time=0.0013297854166666667
EXTRACT: note_on channel=1 note=66 velocity=0 time=0.15824446458333333
EXTRACT: note_on channel=3 note=59 velocity=0 time=0
EXTRACT: note_on channel=1 note=66 velocity=80 time=0.0013297854166666667
EXTRACT: note_on channel=3 note=59 velocity=80 time=0
EXTRACT: note_on channel=1 note=66 velocity=0 time=0.31781871458333333
EXTRACT: note_on channel=1 note=66 velocity=80 time=0.0013297854166666667
EXTRACT: note_on channel=0 note=66 velocity=0 time=0.15824446458333333
EXTRACT: note_on channel=1 note=66 velocity=0 time=0
EXTRACT: note_on channel=3 note=51 velocity=0 time=0
EXTRACT: note_on channel=3 note=59 velocity=0 time=0
EXTRACT: note_on channel=0 note=61 velocity=80 time=0.0013297854166666667
EXTRACT: note_on channel=1 note=66 velocity=80 time=0
EXTRACT: note_on channel=3 note=59 velocity=80 time=0
EXTRACT: note_on channel=3 note=51 velocity=80 time=0
EXTRACT: note_on channel=1 note=66 velocity=0 time=0.31781871458333333
EXTRACT: note_on channel=3 note=59 velocity=0 time=0
EXTRACT: note_on channel=1 note=66 velocity=80 time=0.0013297854166666667
EXTRACT: note_on channel=3 note=59 velocity=80 time=0
EXTRACT: note_on channel=1 note=66 velocity=0 time=0.15824446458333333
EXTRACT: note_on channel=1 note=66 velocity=80 time=0.0013297854166666667
EXTRACT: note_on channel=0 note=61 velocity=0 time=0.15824446458333333
EXTRACT: note_on channel=1 note=66 velocity=0 time=0
EXTRACT: note_on channel=3 note=51 velocity=0 time=0
EXTRACT: note_on channel=3 note=59 velocity=0 time=0
EXTRACT: note_on channel=0 note=61 velocity=80 time=0.0013297854166666667
EXTRACT: note_on channel=1 note=66 velocity=80 time=0
EXTRACT: note_on channel=3 note=59 velocity=80 time=0
EXTRACT: note_on channel=3 note=51 velocity=80 time=0
EXTRACT: note_on channel=1 note=66 velocity=0 time=0.15824446458333333
EXTRACT: note_on channel=3 note=59 velocity=0 time=0
EXTRACT: note_on channel=1 note=66 velocity=80 time=0.0013297854166666667
EXTRACT: note_on channel=3 note=59 velocity=80 time=0
EXTRACT: note_on channel=1 note=66 velocity=0 time=0.15824446458333333
EXTRACT: note_on channel=3 note=51 velocity=0 time=0
EXTRACT: note_on channel=3 note=59 velocity=0 time=0
EXTRACT: note_on channel=4 note=47 velocity=0 time=0
EXTRACT: note_on channel=3 note=49 velocity=80 time=0.0013297854166666667
EXTRACT: note_on channel=4 note=46 velocity=80 time=0
EXTRACT: note_on channel=0 note=61 velocity=0 time=0.6369672145833333
EXTRACT: note_on channel=1 note=66 velocity=80 time=0.0013297854166666667
EXTRACT: note_on channel=3 note=59 velocity=80 time=0
EXTRACT: note_on channel=1 note=66 velocity=0 time=0.47739296458333336
EXTRACT: note_on channel=3 note=59 velocity=0 time=0
EXTRACT: note_on channel=1 note=66 velocity=80 time=0.0013297854166666667
EXTRACT: note_on channel=3 note=59 velocity=80 time=0
EXTRACT: note_on channel=1 note=66 velocity=0 time=0.31781871458333333
EXTRACT: note_on channel=1 note=66 velocity=80 time=0.0013297854166666667
EXTRACT: note_on channel=1 note=66 velocity=0 time=0.15824446458333333
EXTRACT: note_on channel=3 note=59 velocity=0 time=0
EXTRACT: note_on channel=1 note=66 velocity=80 time=0.0013297854166666667
EXTRACT: note_on channel=3 note=58 velocity=80 time=0
EXTRACT: note_on channel=3 note=58 velocity=0 time=0.15824446458333333
EXTRACT: note_on channel=3 note=59 velocity=80 time=0.0013297854166666667
EXTRACT: note_on channel=1 note=66 velocity=0 time=0.15824446458333333
EXTRACT: note_on channel=3 note=49 velocity=0 time=0
EXTRACT: note_on channel=3 note=59 velocity=0 time=0
EXTRACT: note_on channel=0 note=52 velocity=80 time=0.0013297854166666667
EXTRACT: note_on channel=1 note=66 velocity=80 time=0
EXTRACT: note_on channel=3 note=49 velocity=80 time=0
EXTRACT: note_on channel=1 note=66 velocity=0 time=0.15824446458333333
EXTRACT: note_on channel=1 note=66 velocity=80 time=0.0013297854166666667
EXTRACT: note_on channel=3 note=59 velocity=80 time=0
EXTRACT: note_on channel=0 note=52 velocity=0 time=0.15824446458333333
EXTRACT: note_on channel=1 note=66 velocity=0 time=0
EXTRACT: note_on channel=3 note=49 velocity=0 time=0
EXTRACT: note_on channel=3 note=59 velocity=0 time=0
EXTRACT: note_on channel=0 note=59 velocity=80 time=0.0013297854166666667
EXTRACT: note_on channel=1 note=66 velocity=80 time=0
EXTRACT: note_on channel=3 note=49 velocity=80 time=0
EXTRACT: note_on channel=2 note=66 velocity=0 time=0.06249991458333333
EXTRACT: note_on channel=1 note=66 velocity=0 time=0.09574455
EXTRACT: note_on channel=3 note=49 velocity=0 time=0
EXTRACT: note_on channel=1 note=66 velocity=80 time=0.0013297854166666667
EXTRACT: note_on channel=3 note=59 velocity=80 time=0
EXTRACT: note_on channel=3 note=49 velocity=80 time=0
EXTRACT: note_on channel=1 note=66 velocity=0 time=0.15824446458333333
EXTRACT: note_on channel=3 note=59 velocity=0 time=0
EXTRACT: note_on channel=3 note=49 velocity=0 time=0
EXTRACT: note_on channel=4 note=46 velocity=0 time=0
EXTRACT: note_on channel=2 note=63 velocity=80 time=0.0013297854166666667
EXTRACT: note_on channel=3 note=51 velocity=80 time=0
EXTRACT: note_on channel=4 note=44 velocity=80 time=0
EXTRACT: note_on channel=0 note=59 velocity=0 time=0.31781871458333333
EXTRACT: note_on channel=0 note=61 velocity=80 time=0.0013297854166666667
EXTRACT: note_on channel=1 note=66 velocity=80 time=0.3191485
EXTRACT: note_on channel=1 note=63 velocity=80 time=0
EXTRACT: note_on channel=3 note=59 velocity=80 time=0
EXTRACT: note_on channel=0 note=61 velocity=0 time=0.31781871458333333
EXTRACT: note_on channel=0 note=59 velocity=80 time=0.0013297854166666667
EXTRACT: note_on channel=1 note=66 velocity=0 time=0.15824446458333333
EXTRACT: note_on channel=1 note=63 velocity=0 time=0
EXTRACT: note_on channel=3 note=59 velocity=0 time=0
EXTRACT: note_on channel=1 note=66 velocity=80 time=0.0013297854166666667
EXTRACT: note_on channel=1 note=63 velocity=80 time=0
EXTRACT: note_on channel=3 note=59 velocity=80 time=0
EXTRACT: note_on channel=3 note=51 velocity=0 time=0.15824446458333333
EXTRACT: note_on channel=1 note=66 velocity=0 time=0.15957425
EXTRACT: note_on channel=1 note=63 velocity=0 time=0
EXTRACT: note_on channel=1 note=66 velocity=80 time=0.0013297854166666667
EXTRACT: note_on channel=1 note=63 velocity=80 time=0
EXTRACT: note_on channel=1 note=66 velocity=0 time=0.15824446458333333
EXTRACT: note_on channel=1 note=63 velocity=0 time=0
EXTRACT: note_on channel=3 note=59 velocity=0 time=0
EXTRACT: note_on channel=1 note=66 velocity=80 time=0.0013297854166666667
EXTRACT: note_on channel=1 note=63 velocity=80 time=0
EXTRACT: note_on channel=3 note=58 velocity=80 time=0
EXTRACT: note_on channel=3 note=58 velocity=0 time=0.15824446458333333
EXTRACT: note_on channel=3 note=59 velocity=80 time=0.0013297854166666667
EXTRACT: note_on channel=0 note=59 velocity=0 time=0.15824446458333333
EXTRACT: note_on channel=1 note=66 velocity=0 time=0
EXTRACT: note_on channel=1 note=63 velocity=0 time=0
EXTRACT: note_on channel=3 note=59 velocity=0 time=0
EXTRACT: note_on channel=1 note=66 velocity=80 time=0.0013297854166666667
EXTRACT: note_on channel=1 note=63 velocity=80 time=0
EXTRACT: note_on channel=3 note=51 velocity=80 time=0
EXTRACT: note_on channel=1 note=66 velocity=0 time=0.15824446458333333
EXTRACT: note_on channel=1 note=63 velocity=0 time=0
EXTRACT: note_on channel=1 note=66 velocity=80 time=0.0013297854166666667
EXTRACT: note_on channel=1 note=63 velocity=80 time=0
EXTRACT: note_on channel=3 note=59 velocity=80 time=0
EXTRACT: note_on channel=1 note=66 velocity=0 time=0.15824446458333333
EXTRACT: note_on channel=1 note=63 velocity=0 time=0
EXTRACT: note_on channel=3 note=51 velocity=0 time=0
EXTRACT: note_on channel=3 note=59 velocity=0 time=0
EXTRACT: note_on channel=0 note=63 velocity=80 time=0.0013297854166666667
EXTRACT: note_on channel=9 note=59 velocity=80 time=0
EXTRACT: note_on channel=1 note=66 velocity=80 time=0
EXTRACT: note_on channel=1 note=63 velocity=80 time=0
EXTRACT: note_on channel=3 note=51 velocity=80 time=0
EXTRACT: note_on channel=1 note=66 velocity=0 time=0.15824446458333333
EXTRACT: note_on channel=1 note=63 velocity=0 time=0
EXTRACT: note_on channel=3 note=51 velocity=0 time=0
EXTRACT: note_on channel=1 note=66 velocity=80 time=0.0013297854166666667
EXTRACT: note_on channel=1 note=63 velocity=80 time=0
EXTRACT: note_on channel=3 note=59 velocity=80 time=0
EXTRACT: note_on channel=3 note=51 velocity=80 time=0
EXTRACT: note_on channel=2 note=63 velocity=0 time=0.03058506458333333
EXTRACT: note_on channel=9 note=59 velocity=0 time=0.1276594
EXTRACT: note_on channel=1 note=66 velocity=0 time=0
EXTRACT: note_on channel=1 note=63 velocity=0 time=0
EXTRACT: note_on channel=3 note=59 velocity=0 time=0
EXTRACT: note_on channel=3 note=51 velocity=0 time=0
EXTRACT: note_on channel=4 note=44 velocity=0 time=0
EXTRACT: note_on channel=9 note=59 velocity=80 time=0.0013297854166666667
EXTRACT: note_on channel=2 note=64 velocity=80 time=0
EXTRACT: note_on channel=4 note=40 velocity=80 time=0
EXTRACT: note_on channel=0 note=63 velocity=0 time=0.31781871458333333
EXTRACT: note_on channel=9 note=59 velocity=0 time=0
EXTRACT: note_on channel=0 note=61 velocity=80 time=0.0013297854166666667
EXTRACT: note_on channel=9 note=56 velocity=80 time=0
EXTRACT: note_on channel=1 note=66 velocity=80 time=0.3191485
EXTRACT: note_on channel=1 note=63 velocity=80 time=0
EXTRACT: note_on channel=3 note=59 velocity=80 time=0
EXTRACT: note_on channel=3 note=56 velocity=80 time=0
EXTRACT: note_on channel=0 note=61 velocity=0 time=0.31781871458333333
EXTRACT: note_on channel=9 note=56 velocity=0 time=0
EXTRACT: note_on channel=0 note=59 velocity=80 time=0.0013297854166666667
EXTRACT: note_on channel=9 note=54 velocity=80 time=0
EXTRACT: note_on channel=1 note=66 velocity=0 time=0.15824446458333333
EXTRACT: note_on channel=1 note=63 velocity=0 time=0
EXTRACT: note_on channel=3 note=59 velocity=0 time=0
EXTRACT: note_on channel=1 note=66 velocity=80 time=0.0013297854166666667
EXTRACT: note_on channel=1 note=63 velocity=80 time=0
EXTRACT: note_on channel=3 note=59 velocity=80 time=0
EXTRACT: note_on channel=1 note=66 velocity=0 time=0.31781871458333333
EXTRACT: note_on channel=1 note=63 velocity=0 time=0
EXTRACT: note_on channel=1 note=66 velocity=80 time=0.0013297854166666667
EXTRACT: note_on channel=1 note=63 velocity=80 time=0
EXTRACT: note_on channel=1 note=66 velocity=0 time=0.15824446458333333
EXTRACT: note_on channel=1 note=63 velocity=0 time=0
EXTRACT: note_on channel=3 note=56 velocity=0 time=0
EXTRACT: note_on channel=3 note=59 velocity=0 time=0
EXTRACT: note_on channel=1 note=66 velocity=80 time=0.0013297854166666667
EXTRACT: note_on channel=1 note=63 velocity=80 time=0
EXTRACT: note_on channel=3 note=58 velocity=80 time=0
EXTRACT: note_on channel=3 note=54 velocity=80 time=0
EXTRACT: note_on channel=3 note=58 velocity=0 time=0.15824446458333333
EXTRACT: note_on channel=3 note=54 velocity=0 time=0
EXTRACT: note_on channel=3 note=59 velocity=80 time=0.0013297854166666667
EXTRACT: note_on channel=3 note=56 velocity=80 time=0
EXTRACT: note_on channel=0 note=59 velocity=0 time=0.15824446458333333
EXTRACT: note_on channel=9 note=54 velocity=0 time=0
EXTRACT: note_on channel=1 note=66 velocity=0 time=0
EXTRACT: note_on channel=1 note=63 velocity=0 time=0
EXTRACT: note_on channel=3 note=59 velocity=0 time=0
EXTRACT: note_on channel=1 note=66 velocity=80 time=0.0013297854166666667
EXTRACT: note_on channel=1 note=63 velocity=80 time=0
EXTRACT: note_on channel=1 note=66 velocity=0 time=0.15824446458333333
EXTRACT: note_on channel=1 note=63 velocity=0 time=0
EXTRACT: note_on channel=1 note=66 velocity=80 time=0.0013297854166666667
EXTRACT: note_on channel=1 note=63 velocity=80 time=0
EXTRACT: note_on channel=3 note=59 velocity=80 time=0
EXTRACT: note_on channel=1 note=66 velocity=0 time=0.15824446458333333
EXTRACT: note_on channel=1 note=63 velocity=0 time=0
EXTRACT: note_on channel=3 note=56 velocity=0 time=0
EXTRACT: note_on channel=3 note=59 velocity=0 time=0
EXTRACT: note_on channel=0 note=58 velocity=80 time=0.0013297854166666667
EXTRACT: note_on channel=9 note=51 velocity=80 time=0
EXTRACT: note_on channel=1 note=66 velocity=80 time=0
EXTRACT: note_on channel=1 note=63 velocity=80 time=0
EXTRACT: note_on channel=3 note=54 velocity=80 time=0
EXTRACT: note_on channel=0 note=58 velocity=0 time=0.15824446458333333
EXTRACT: note_on channel=9 note=51 velocity=0 time=0
EXTRACT: note_on channel=1 note=66 velocity=0 time=0
EXTRACT: note_on channel=1 note=63 velocity=0 time=0
EXTRACT: note_on channel=0 note=59 velocity=80 time=0.0013297854166666667
EXTRACT: note_on channel=9 note=54 velocity=80 time=0
EXTRACT: note_on channel=1 note=66 velocity=80 time=0
EXTRACT: note_on channel=1 note=63 velocity=80 time=0
EXTRACT: note_on channel=3 note=59 velocity=80 time=0
EXTRACT: note_on channel=2 note=64 velocity=0 time=0.03058506458333333
EXTRACT: note_on channel=9 note=54 velocity=0 time=0.1276594
EXTRACT: note_on channel=1 note=66 velocity=0 time=0
EXTRACT: note_on channel=1 note=63 velocity=0 time=0
EXTRACT: note_on channel=3 note=54 velocity=0 time=0
EXTRACT: note_on channel=3 note=59 velocity=0 time=0
EXTRACT: note_on channel=4 note=40 velocity=0 time=0
EXTRACT: note_on channel=1 note=71 velocity=80 time=0.0013297854166666667
EXTRACT: note_on channel=4 note=47 velocity=80 time=0
EXTRACT: note_on channel=0 note=59 velocity=0 time=0.6369672145833333
EXTRACT: note_on channel=9 note=63 velocity=80 time=0.0013297854166666667
EXTRACT: note_on channel=9 note=59 velocity=80 time=0
EXTRACT: note_on channel=2 note=66 velocity=80 time=0
EXTRACT: note_on channel=3 note=59 velocity=80 time=0
EXTRACT: note_on channel=3 note=51 velocity=80 time=0
EXTRACT: note_on channel=2 note=66 velocity=0 time=0.45345682708333335
EXTRACT: note_on channel=9 note=63 velocity=0 time=0.0239361375
EXTRACT: note_on channel=9 note=59 velocity=0 time=0
EXTRACT: note_on channel=3 note=59 velocity=0 time=0
EXTRACT: note_on channel=9 note=63 velocity=80 time=0.0013297854166666667
EXTRACT: note_on channel=9 note=59 velocity=80 time=0
EXTRACT: note_on channel=2 note=66 velocity=80 time=0
EXTRACT: note_on channel=3 note=59 velocity=80 time=0
EXTRACT: note_on channel=9 note=59 velocity=0 time=0.15824446458333333
EXTRACT: note_on channel=9 note=59 velocity=80 time=0.0013297854166666667
EXTRACT: note_on channel=2 note=66 velocity=0 time=0.14228703958333333
EXTRACT: note_on channel=2 note=66 velocity=80 time=0.017287210416666667
EXTRACT: note_on channel=2 note=66 velocity=0 time=0.15026575208333334
EXTRACT: note_on channel=9 note=63 velocity=0 time=0.0079787125
EXTRACT: note_on channel=3 note=51 velocity=0 time=0
EXTRACT: note_on channel=3 note=59 velocity=0 time=0
EXTRACT: note_on channel=9 note=61 velocity=80 time=0.0013297854166666667
EXTRACT: note_on channel=2 note=66 velocity=80 time=0
EXTRACT: note_on channel=3 note=59 velocity=80 time=0
EXTRACT: note_on channel=3 note=51 velocity=80 time=0
EXTRACT: note_on channel=2 note=66 velocity=0 time=0.30186128958333336
EXTRACT: note_on channel=3 note=59 velocity=0 time=0.015957425
EXTRACT: note_on channel=2 note=66 velocity=80 time=0.0013297854166666667
EXTRACT: note_on channel=3 note=59 velocity=80 time=0
EXTRACT: note_on channel=2 note=66 velocity=0 time=0.15026575208333334
EXTRACT: note_on channel=2 note=66 velocity=80 time=0.009308497916666667
EXTRACT: note_on channel=2 note=66 velocity=0 time=0.15026575208333334
EXTRACT: note_on channel=9 note=61 velocity=0 time=0.0079787125
EXTRACT: note_on channel=3 note=51 velocity=0 time=0
EXTRACT: note_on channel=3 note=59 velocity=0 time=0
EXTRACT: note_on channel=9 note=63 velocity=80 time=0.0013297854166666667
EXTRACT: note_on channel=2 note=66 velocity=80 time=0
EXTRACT: note_on channel=3 note=59 velocity=80 time=0
EXTRACT: note_on channel=3 note=51 velocity=80 time=0
EXTRACT: note_on channel=2 note=66 velocity=0 time=0.15026575208333334
EXTRACT: note_on channel=3 note=59 velocity=0 time=0.0079787125
EXTRACT: note_on channel=2 note=66 velocity=80 time=0.0013297854166666667
EXTRACT: note_on channel=3 note=59 velocity=80 time=0
EXTRACT: note_on channel=2 note=66 velocity=0 time=0.15026575208333334
EXTRACT: note_on channel=9 note=59 velocity=0 time=0.0079787125
EXTRACT: note_on channel=9 note=63 velocity=0 time=0
EXTRACT: note_on channel=3 note=51 velocity=0 time=0
EXTRACT: note_on channel=3 note=59 velocity=0 time=0
EXTRACT: note_on channel=4 note=47 velocity=0 time=0
EXTRACT: note_on channel=3 note=49 velocity=80 time=0.0013297854166666667
EXTRACT: note_on channel=4 note=49 velocity=80 time=0
EXTRACT: note_on channel=4 note=46 velocity=80 time=0
EXTRACT: note_on channel=9 note=63 velocity=80 time=0.638297
EXTRACT: note_on channel=9 note=59 velocity=80 time=0
EXTRACT: note_on channel=2 note=66 velocity=80 time=0
EXTRACT: note_on channel=3 note=59 velocity=80 time=0
EXTRACT: note_on channel=2 note=66 velocity=0 time=0.45345682708333335
EXTRACT: note_on channel=9 note=63 velocity=0 time=0.0239361375
EXTRACT: note_on channel=9 note=59 velocity=0 time=0
EXTRACT: note_on channel=3 note=59 velocity=0 time=0
EXTRACT: note_on channel=9 note=63 velocity=80 time=0.0013297854166666667
EXTRACT: note_on channel=9 note=59 velocity=80 time=0
EXTRACT: note_on channel=2 note=66 velocity=80 time=0
EXTRACT: note_on channel=3 note=59 velocity=80 time=0
EXTRACT: note_on channel=9 note=59 velocity=0 time=0.15824446458333333
EXTRACT: note_on channel=9 note=59 velocity=80 time=0.0013297854166666667
EXTRACT: note_on channel=2 note=66 velocity=0 time=0.14228703958333333
EXTRACT: note_on channel=2 note=66 velocity=80 time=0.017287210416666667
EXTRACT: note_on channel=2 note=66 velocity=0 time=0.15026575208333334
EXTRACT: note_on channel=9 note=63 velocity=0 time=0.0079787125
EXTRACT: note_on channel=3 note=59 velocity=0 time=0
EXTRACT: note_on channel=9 note=61 velocity=80 time=0.0013297854166666667
EXTRACT: note_on channel=2 note=66 velocity=80 time=0
EXTRACT: note_on channel=3 note=58 velocity=80 time=0
EXTRACT: note_on channel=3 note=58 velocity=0 time=0.15824446458333333
EXTRACT: note_on channel=3 note=59 velocity=80 time=0.0013297854166666667
EXTRACT: note_on channel=2 note=66 velocity=0 time=0.14228703958333333
EXTRACT: note_on channel=3 note=49 velocity=0 time=0.015957425
EXTRACT: note_on channel=3 note=59 velocity=0 time=0
EXTRACT: note_on channel=2 note=66 velocity=80 time=0.0013297854166666667
EXTRACT: note_on channel=3 note=49 velocity=80 time=0
EXTRACT: note_on channel=2 note=66 velocity=0 time=0.15026575208333334
EXTRACT: note_on channel=2 note=66 velocity=80 time=0.009308497916666667
EXTRACT: note_on channel=3 note=59 velocity=80 time=0
EXTRACT: note_on channel=2 note=66 velocity=0 time=0.15026575208333334
EXTRACT: note_on channel=9 note=61 velocity=0 time=0.0079787125
EXTRACT: note_on channel=3 note=49 velocity=0 time=0
EXTRACT: note_on channel=3 note=59 velocity=0 time=0
EXTRACT: note_on channel=9 note=63 velocity=80 time=0.0013297854166666667
EXTRACT: note_on channel=2 note=66 velocity=80 time=0
EXTRACT: note_on channel=3 note=49 velocity=80 time=0
EXTRACT: note_on channel=2 note=66 velocity=0 time=0.15026575208333334
EXTRACT: note_on channel=3 note=49 velocity=0 time=0.0079787125
EXTRACT: note_on channel=2 note=66 velocity=80 time=0.0013297854166666667
EXTRACT: note_on channel=3 note=59 velocity=80 time=0
EXTRACT: note_on channel=3 note=49 velocity=80 time=0
EXTRACT: note_on channel=2 note=66 velocity=0 time=0.15026575208333334
EXTRACT: note_on channel=9 note=59 velocity=0 time=0.0079787125
EXTRACT: note_on channel=9 note=63 velocity=0 time=0
EXTRACT: note_on channel=3 note=59 velocity=0 time=0
EXTRACT: note_on channel=3 note=49 velocity=0 time=0
EXTRACT: note_on channel=4 note=49 velocity=0 time=0
EXTRACT: note_on channel=4 note=46 velocity=0 time=0
EXTRACT: note_on channel=3 note=51 velocity=80 time=0.0013297854166666667
EXTRACT: note_on channel=4 note=51 velocity=80 time=0
EXTRACT: note_on channel=4 note=44 velocity=80 time=0
EXTRACT: note_on channel=9 note=63 velocity=80 time=0.638297
EXTRACT: note_on channel=9 note=59 velocity=80 time=0
EXTRACT: note_on channel=2 note=66 velocity=80 time=0
EXTRACT: note_on channel=2 note=63 velocity=80 time=0
EXTRACT: note_on channel=3 note=59 velocity=80 time=0
EXTRACT: note_on channel=2 note=66 velocity=0 time=0.45345682708333335
EXTRACT: note_on channel=2 note=63 velocity=0 time=0
EXTRACT: note_on channel=9 note=63 velocity=0 time=0.0239361375
EXTRACT: note_on channel=9 note=59 velocity=0 time=0
EXTRACT: note_on channel=3 note=59 velocity=0 time=0
EXTRACT: note_on channel=9 note=63 velocity=80 time=0.0013297854166666667
EXTRACT: note_on channel=9 note=59 velocity=80 time=0
EXTRACT: note_on channel=2 note=66 velocity=80 time=0
EXTRACT: note_on channel=2 note=63 velocity=80 time=0
EXTRACT: note_on channel=3 note=59 velocity=80 time=0
EXTRACT: note_on channel=9 note=59 velocity=0 time=0.15824446458333333
EXTRACT: note_on channel=3 note=51 velocity=0 time=0
EXTRACT: note_on channel=9 note=59 velocity=80 time=0.0013297854166666667
EXTRACT: note_on channel=2 note=66 velocity=0 time=0.14228703958333333
EXTRACT: note_on channel=2 note=63 velocity=0 time=0
EXTRACT: note_on channel=2 note=66 velocity=80 time=0.017287210416666667
EXTRACT: note_on channel=2 note=63 velocity=80 time=0
EXTRACT: note_on channel=2 note=66 velocity=0 time=0.15026575208333334
EXTRACT: note_on channel=2 note=63 velocity=0 time=0
EXTRACT: note_on channel=9 note=63 velocity=0 time=0.0079787125
EXTRACT: note_on channel=3 note=59 velocity=0 time=0
EXTRACT: note_on channel=9 note=61 velocity=80 time=0.0013297854166666667
EXTRACT: note_on channel=2 note=66 velocity=80 time=0
EXTRACT: note_on channel=2 note=63 velocity=80 time=0
EXTRACT: note_on channel=3 note=58 velocity=80 time=0
EXTRACT: note_on channel=3 note=58 velocity=0 time=0.15824446458333333
EXTRACT: note_on channel=3 note=59 velocity=80 time=0.0013297854166666667
EXTRACT: note_on channel=2 note=66 velocity=0 time=0.14228703958333333
EXTRACT: note_on channel=2 note=63 velocity=0 time=0
EXTRACT: note_on channel=1 note=71 velocity=0 time=0.015957425
EXTRACT: note_on channel=3 note=59 velocity=0 time=0
EXTRACT: note_on channel=1 note=71 velocity=80 time=0.0013297854166666667
EXTRACT: note_on channel=2 note=66 velocity=80 time=0
EXTRACT: note_on channel=2 note=63 velocity=80 time=0
EXTRACT: note_on channel=3 note=51 velocity=80 time=0
EXTRACT: note_on channel=2 note=66 velocity=0 time=0.15026575208333334
EXTRACT: note_on channel=2 note=63 velocity=0 time=0
EXTRACT: note_on channel=2 note=66 velocity=80 time=0.009308497916666667
EXTRACT: note_on channel=2 note=63 velocity=80 time=0
EXTRACT: note_on channel=3 note=59 velocity=80 time=0
EXTRACT: note_on channel=2 note=66 velocity=0 time=0.15026575208333334
EXTRACT: note_on channel=2 note=63 velocity=0 time=0
EXTRACT: note_on channel=9 note=61 velocity=0 time=0.0079787125
EXTRACT: note_on channel=3 note=51 velocity=0 time=0
EXTRACT: note_on channel=3 note=59 velocity=0 time=0
EXTRACT: note_on channel=9 note=63 velocity=80 time=0.0013297854166666667
EXTRACT: note_on channel=2 note=66 velocity=80 time=0
EXTRACT: note_on channel=2 note=63 velocity=80 time=0
EXTRACT: note_on channel=3 note=51 velocity=80 time=0
EXTRACT: note_on channel=2 note=66 velocity=0 time=0.15026575208333334
EXTRACT: note_on channel=2 note=63 velocity=0 time=0
EXTRACT: note_on channel=1 note=71 velocity=0 time=0.0079787125
EXTRACT: note_on channel=3 note=51 velocity=0 time=0
EXTRACT: note_on channel=1 note=70 velocity=80 time=0.0013297854166666667
EXTRACT: note_on channel=2 note=66 velocity=80 time=0
EXTRACT: note_on channel=2 note=63 velocity=80 time=0
EXTRACT: note_on channel=3 note=59 velocity=80 time=0
EXTRACT: note_on channel=3 note=51 velocity=80 time=0
EXTRACT: note_on channel=2 note=66 velocity=0 time=0.15026575208333334
EXTRACT: note_on channel=2 note=63 velocity=0 time=0
EXTRACT: note_on channel=9 note=59 velocity=0 time=0.0079787125
EXTRACT: note_on channel=9 note=63 velocity=0 time=0
EXTRACT: note_on channel=1 note=70 velocity=0 time=0
EXTRACT: note_on channel=3 note=59 velocity=0 time=0
EXTRACT: note_on channel=3 note=51 velocity=0 time=0
EXTRACT: note_on channel=4 note=51 velocity=0 time=0
EXTRACT: note_on channel=4 note=44 velocity=0 time=0
EXTRACT: note_on channel=1 note=68 velocity=80 time=0.0013297854166666667
EXTRACT: note_on channel=4 note=52 velocity=80 time=0
EXTRACT: note_on channel=4 note=40 velocity=80 time=0
EXTRACT: note_on channel=1 note=64 velocity=80 time=0.3191485
EXTRACT: note_on channel=1 note=64 velocity=0 time=0.31781871458333333
EXTRACT: note_on channel=9 note=63 velocity=80 time=0.0013297854166666667
EXTRACT: note_on channel=9 note=59 velocity=80 time=0
EXTRACT: note_on channel=1 note=66 velocity=80 time=0
EXTRACT: note_on channel=2 note=66 velocity=80 time=0
EXTRACT: note_on channel=2 note=63 velocity=80 time=0
EXTRACT: note_on channel=3 note=68 velocity=80 time=0
EXTRACT: note_on channel=3 note=56 velocity=80 time=0
EXTRACT: note_on channel=1 note=66 velocity=0 time=0.31781871458333333
EXTRACT: note_on channel=1 note=71 velocity=80 time=0.0013297854166666667
EXTRACT: note_on channel=2 note=66 velocity=0 time=0.13430832708333335
EXTRACT: note_on channel=2 note=63 velocity=0 time=0
EXTRACT: note_on channel=9 note=63 velocity=0 time=0.0239361375
EXTRACT: note_on channel=9 note=59 velocity=0 time=0
EXTRACT: note_on channel=3 note=68 velocity=0 time=0
EXTRACT: note_on channel=9 note=63 velocity=80 time=0.0013297854166666667
EXTRACT: note_on channel=9 note=59 velocity=80 time=0
EXTRACT: note_on channel=2 note=66 velocity=80 time=0
EXTRACT: note_on channel=2 note=63 velocity=80 time=0
EXTRACT: note_on channel=3 note=59 velocity=80 time=0
EXTRACT: note_on channel=9 note=59 velocity=0 time=0.15824446458333333
EXTRACT: note_on channel=9 note=59 velocity=80 time=0.0013297854166666667
EXTRACT: note_on channel=2 note=66 velocity=0 time=0.14228703958333333
EXTRACT: note_on channel=2 note=63 velocity=0 time=0
EXTRACT: note_on channel=2 note=66 velocity=80 time=0.017287210416666667
EXTRACT: note_on channel=2 note=63 velocity=80 time=0
EXTRACT: note_on channel=2 note=66 velocity=0 time=0.15026575208333334
EXTRACT: note_on channel=2 note=63 velocity=0 time=0
EXTRACT: note_on channel=9 note=63 velocity=0 time=0.0079787125
EXTRACT: note_on channel=1 note=71 velocity=0 time=0
EXTRACT: note_on channel=3 note=56 velocity=0 time=0
EXTRACT: note_on channel=3 note=59 velocity=0 time=0
EXTRACT: note_on channel=9 note=61 velocity=80 time=0.0013297854166666667
EXTRACT: note_on channel=1 note=73 velocity=80 time=0
EXTRACT: note_on channel=2 note=66 velocity=80 time=0
EXTRACT: note_on channel=2 note=63 velocity=80 time=0
EXTRACT: note_on channel=3 note=58 velocity=80 time=0
EXTRACT: note_on channel=3 note=54 velocity=80 time=0
EXTRACT: note_on channel=3 note=58 velocity=0 time=0.15824446458333333
EXTRACT: note_on channel=3 note=54 velocity=0 time=0
EXTRACT: note_on channel=3 note=59 velocity=80 time=0.0013297854166666667
EXTRACT: note_on channel=3 note=56 velocity=80 time=0
EXTRACT: note_on channel=2 note=66 velocity=0 time=0.14228703958333333
EXTRACT: note_on channel=2 note=63 velocity=0 time=0
EXTRACT: note_on channel=3 note=59 velocity=0 time=0.015957425
EXTRACT: note_on channel=2 note=66 velocity=80 time=0.0013297854166666667
EXTRACT: note_on channel=2 note=63 velocity=80 time=0
EXTRACT: note_on channel=2 note=66 velocity=0 time=0.15026575208333334
EXTRACT: note_on channel=2 note=63 velocity=0 time=0
EXTRACT: note_on channel=2 note=66 velocity=80 time=0.009308497916666667
EXTRACT: note_on channel=2 note=63 velocity=80 time=0
EXTRACT: note_on channel=3 note=59 velocity=80 time=0
EXTRACT: note_on channel=2 note=66 velocity=0 time=0.15026575208333334
EXTRACT: note_on channel=2 note=63 velocity=0 time=0
EXTRACT: note_on channel=9 note=61 velocity=0 time=0.0079787125
EXTRACT: note_on channel=1 note=73 velocity=0 time=0
EXTRACT: note_on channel=3 note=56 velocity=0 time=0
EXTRACT: note_on channel=3 note=59 velocity=0 time=0
EXTRACT: note_on channel=9 note=59 velocity=80 time=0.0013297854166666667
EXTRACT: note_on channel=1 note=75 velocity=80 time=0
EXTRACT: note_on channel=2 note=66 velocity=80 time=0
EXTRACT: note_on channel=2 note=63 velocity=80 time=0
EXTRACT: note_on channel=3 note=54 velocity=80 time=0
EXTRACT: note_on channel=2 note=66 velocity=0 time=0.15026575208333334
EXTRACT: note_on channel=2 note=63 velocity=0 time=0
EXTRACT: note_on channel=2 note=66 velocity=80 time=0.009308497916666667
EXTRACT: note_on channel=2 note=63 velocity=80 time=0
EXTRACT: note_on channel=3 note=59 velocity=80 time=0
EXTRACT: note_on channel=2 note=66 velocity=0 time=0.15026575208333334
EXTRACT: note_on channel=2 note=63 velocity=0 time=0
EXTRACT: note_on channel=9 note=59 velocity=0 time=0.0079787125
EXTRACT: note_on channel=9 note=59 velocity=0 time=0
EXTRACT: note_on channel=1 note=68 velocity=0 time=0
EXTRACT: note_on channel=3 note=54 velocity=0 time=0
EXTRACT: note_on channel=3 note=59 velocity=0 time=0
EXTRACT: note_on channel=4 note=52 velocity=0 time=0
EXTRACT: note_on channel=4 note=40 velocity=0 time=0
EXTRACT: note_on channel=2 note=66 velocity=80 time=0.0013297854166666667
EXTRACT: note_on channel=2 note=59 velocity=80 time=0
EXTRACT: note_on channel=4 note=47 velocity=80 time=0
EXTRACT: note_on channel=1 note=75 velocity=0 time=0.6369672145833333
EXTRACT: note_on channel=0 note=59 velocity=80 time=0.0013297854166666667
EXTRACT: note_on channel=9 note=71 velocity=80 time=0
EXTRACT: note_on channel=1 note=66 velocity=80 time=0
EXTRACT: note_on channel=3 note=59 velocity=80 time=0
EXTRACT: note_on channel=3 note=51 velocity=80 time=0
EXTRACT: note_on channel=0 note=59 velocity=0 time=0.47739296458333336
EXTRACT: note_on channel=9 note=71 velocity=0 time=0
EXTRACT: note_on channel=1 note=66 velocity=0 time=0
EXTRACT: note_on channel=3 note=59 velocity=0 time=0
EXTRACT: note_on channel=0 note=59 velocity=80 time=0.0013297854166666667
EXTRACT: note_on channel=9 note=71 velocity=80 time=0
EXTRACT: note_on channel=1 note=66 velocity=80 time=0
EXTRACT: note_on channel=3 note=59 velocity=80 time=0
EXTRACT: note_on channel=1 note=66 velocity=0 time=0.31781871458333333
EXTRACT: note_on channel=1 note=66 velocity=80 time=0.0013297854166666667
EXTRACT: note_on channel=0 note=59 velocity=0 time=0.15824446458333333
EXTRACT: note_on channel=9 note=71 velocity=0 time=0
EXTRACT: note_on channel=1 note=66 velocity=0 time=0
EXTRACT: note_on channel=3 note=51 velocity=0 time=0
EXTRACT: note_on channel=3 note=59 velocity=0 time=0
EXTRACT: note_on channel=0 note=54 velocity=80 time=0.0013297854166666667
EXTRACT: note_on channel=9 note=71 velocity=80 time=0
EXTRACT: note_on channel=1 note=66 velocity=80 time=0
EXTRACT: note_on channel=3 note=59 velocity=80 time=0
EXTRACT: note_on channel=3 note=51 velocity=80 time=0
EXTRACT: note_on channel=1 note=66 velocity=0 time=0.31781871458333333
EXTRACT: note_on channel=3 note=59 velocity=0 time=0
EXTRACT: note_on channel=1 note=66 velocity=80 time=0.0013297854166666667
EXTRACT: note_on channel=3 note=59 velocity=80 time=0
EXTRACT: note_on channel=9 note=71 velocity=0 time=0.15824446458333333
EXTRACT: note_on channel=1 note=66 velocity=0 time=0
EXTRACT: note_on channel=9 note=71 velocity=80 time=0.0013297854166666667
EXTRACT: note_on channel=1 note=66 velocity=80 time=0
EXTRACT: note_on channel=0 note=54 velocity=0 time=0.15824446458333333
EXTRACT: note_on channel=9 note=71 velocity=0 time=0
EXTRACT: note_on channel=1 note=66 velocity=0 time=0
EXTRACT: note_on channel=3 note=51 velocity=0 time=0
EXTRACT: note_on channel=3 note=59 velocity=0 time=0
EXTRACT: note_on channel=0 note=51 velocity=80 time=0.0013297854166666667
EXTRACT: note_on channel=9 note=71 velocity=80 time=0
EXTRACT: note_on channel=1 note=66 velocity=80 time=0
EXTRACT: note_on channel=3 note=59 velocity=80 time=0
EXTRACT: note_on channel=3 note=51 velocity=80 time=0
EXTRACT: note_on channel=9 note=71 velocity=0 time=0.15824446458333333
EXTRACT: note_on channel=1 note=66 velocity=0 time=0
EXTRACT: note_on channel=3 note=59 velocity=0 time=0
EXTRACT: note_on channel=9 note=71 velocity=80 time=0.0013297854166666667
EXTRACT: note_on channel=1 note=66 velocity=80 time=0
EXTRACT: note_on channel=3 note=59 velocity=80 time=0
EXTRACT: note_on channel=2 note=59 velocity=0 time=0.03058506458333333
EXTRACT: note_on channel=0 note=51 velocity=0 time=0.1276594
EXTRACT: note_on channel=9 note=71 velocity=0 time=0
EXTRACT: note_on channel=1 note=66 velocity=0 time=0
EXTRACT: note_on channel=3 note=51 velocity=0 time=0
EXTRACT: note_on channel=3 note=59 velocity=0 time=0
EXTRACT: note_on channel=4 note=47 velocity=0 time=0
EXTRACT: note_on channel=0 note=49 velocity=80 time=0.0013297854166666667
EXTRACT: note_on channel=2 note=61 velocity=80 time=0
EXTRACT: note_on channel=3 note=49 velocity=80 time=0
EXTRACT: note_on channel=4 note=46 velocity=80 time=0
EXTRACT: note_on channel=0 note=49 velocity=0 time=0.31781871458333333
EXTRACT: note_on channel=0 note=49 velocity=80 time=0.0013297854166666667
EXTRACT: note_on channel=9 note=70 velocity=80 time=0.3191485
EXTRACT: note_on channel=1 note=66 velocity=80 time=0
EXTRACT: note_on channel=3 note=59 velocity=80 time=0
EXTRACT: note_on channel=9 note=70 velocity=0 time=0.47739296458333336
EXTRACT: note_on channel=1 note=66 velocity=0 time=0
EXTRACT: note_on channel=3 note=59 velocity=0 time=0
EXTRACT: note_on channel=9 note=70 velocity=80 time=0.0013297854166666667
EXTRACT: note_on channel=1 note=66 velocity=80 time=0
EXTRACT: note_on channel=3 note=59 velocity=80 time=0
EXTRACT: note_on channel=0 note=49 velocity=0 time=0.15824446458333333
EXTRACT: note_on channel=1 note=66 velocity=0 time=0.15957425
EXTRACT: note_on channel=1 note=66 velocity=80 time=0.0013297854166666667
EXTRACT: note_on channel=9 note=70 velocity=0 time=0.15824446458333333
EXTRACT: note_on channel=1 note=66 velocity=0 time=0
EXTRACT: note_on channel=3 note=59 velocity=0 time=0
EXTRACT: note_on channel=9 note=70 velocity=80 time=0.0013297854166666667
EXTRACT: note_on channel=1 note=66 velocity=80 time=0
EXTRACT: note_on channel=3 note=58 velocity=80 time=0
EXTRACT: note_on channel=3 note=58 velocity=0 time=0.15824446458333333
EXTRACT: note_on channel=3 note=59 velocity=80 time=0.0013297854166666667
EXTRACT: note_on channel=1 note=66 velocity=0 time=0.15824446458333333
EXTRACT: note_on channel=3 note=49 velocity=0 time=0
EXTRACT: note_on channel=3 note=59 velocity=0 time=0
EXTRACT: note_on channel=1 note=66 velocity=80 time=0.0013297854166666667
EXTRACT: note_on channel=3 note=49 velocity=80 time=0
EXTRACT: note_on channel=9 note=70 velocity=0 time=0.15824446458333333
EXTRACT: note_on channel=1 note=66 velocity=0 time=0
EXTRACT: note_on channel=9 note=70 velocity=80 time=0.0013297854166666667
EXTRACT: note_on channel=1 note=66 velocity=80 time=0
EXTRACT: note_on channel=3 note=59 velocity=80 time=0
EXTRACT: note_on channel=9 note=70 velocity=0 time=0.15824446458333333
EXTRACT: note_on channel=1 note=66 velocity=0 time=0
EXTRACT: note_on channel=3 note=49 velocity=0 time=0
EXTRACT: note_on channel=3 note=59 velocity=0 time=0
EXTRACT: note_on channel=9 note=70 velocity=80 time=0.0013297854166666667
EXTRACT: note_on channel=1 note=66 velocity=80 time=0
EXTRACT: note_on channel=3 note=49 velocity=80 time=0
EXTRACT: note_on channel=9 note=70 velocity=0 time=0.15824446458333333
EXTRACT: note_on channel=1 note=66 velocity=0 time=0
EXTRACT: note_on channel=3 note=49 velocity=0 time=0
EXTRACT: note_on channel=9 note=70 velocity=80 time=0.0013297854166666667
EXTRACT: note_on channel=1 note=66 velocity=80 time=0
EXTRACT: note_on channel=3 note=59 velocity=80 time=0
EXTRACT: note_on channel=3 note=49 velocity=80 time=0
EXTRACT: note_on channel=2 note=61 velocity=0 time=0.03058506458333333
EXTRACT: note_on channel=9 note=70 velocity=0 time=0.1276594
EXTRACT: note_on channel=1 note=66 velocity=0 time=0
EXTRACT: note_on channel=3 note=59 velocity=0 time=0
EXTRACT: note_on channel=3 note=49 velocity=0 time=0
EXTRACT: note_on channel=4 note=46 velocity=0 time=0
EXTRACT: note_on channel=2 note=63 velocity=80 time=0.0013297854166666667
EXTRACT: note_on channel=3 note=51 velocity=80 time=0
EXTRACT: note_on channel=4 note=44 velocity=80 time=0
EXTRACT: note_on channel=0 note=59 velocity=80 time=0.638297
EXTRACT: note_on channel=9 note=68 velocity=80 time=0
EXTRACT: note_on channel=1 note=66 velocity=80 time=0
EXTRACT: note_on channel=1 note=63 velocity=80 time=0
EXTRACT: note_on channel=3 note=59 velocity=80 time=0
EXTRACT: note_on channel=0 note=59 velocity=0 time=0.47739296458333336
EXTRACT: note_on channel=9 note=68 velocity=0 time=0
EXTRACT: note_on channel=1 note=66 velocity=0 time=0
EXTRACT: note_on channel=1 note=63 velocity=0 time=0
EXTRACT: note_on channel=3 note=59 velocity=0 time=0
EXTRACT: note_on channel=0 note=59 velocity=80 time=0.0013297854166666667
EXTRACT: note_on channel=9 note=68 velocity=80 time=0
EXTRACT: note_on channel=1 note=66 velocity=80 time=0
EXTRACT: note_on channel=1 note=63 velocity=80 time=0
EXTRACT: note_on channel=3 note=59 velocity=80 time=0
EXTRACT: note_on channel=3 note=51 velocity=0 time=0.15824446458333333
EXTRACT: note_on channel=1 note=66 velocity=0 time=0.15957425
EXTRACT: note_on channel=1 note=63 velocity=0 time=0
EXTRACT: note_on channel=1 note=66 velocity=80 time=0.0013297854166666667
EXTRACT: note_on channel=1 note=63 velocity=80 time=0
EXTRACT: note_on channel=0 note=59 velocity=0 time=0.15824446458333333
EXTRACT: note_on channel=9 note=68 velocity=0 time=0
EXTRACT: note_on channel=1 note=66 velocity=0 time=0
EXTRACT: note_on channel=1 note=63 velocity=0 time=0
EXTRACT: note_on channel=3 note=59 velocity=0 time=0
EXTRACT: note_on channel=0 note=54 velocity=80 time=0.0013297854166666667
EXTRACT: note_on channel=9 note=68 velocity=80 time=0
EXTRACT: note_on channel=1 note=66 velocity=80 time=0
EXTRACT: note_on channel=1 note=63 velocity=80 time=0
EXTRACT: note_on channel=3 note=58 velocity=80 time=0
EXTRACT: note_on channel=3 note=58 velocity=0 time=0.15824446458333333
EXTRACT: note_on channel=3 note=59 velocity=80 time=0.0013297854166666667
EXTRACT: note_on channel=1 note=66 velocity=0 time=0.15824446458333333
EXTRACT: note_on channel=1 note=63 velocity=0 time=0
EXTRACT: note_on channel=3 note=59 velocity=0 time=0
EXTRACT: note_on channel=1 note=66 velocity=80 time=0.0013297854166666667
EXTRACT: note_on channel=1 note=63 velocity=80 time=0
EXTRACT: note_on channel=3 note=51 velocity=80 time=0
EXTRACT: note_on channel=9 note=68 velocity=0 time=0.15824446458333333
EXTRACT: note_on channel=1 note=66 velocity=0 time=0
EXTRACT: note_on channel=1 note=63 velocity=0 time=0
EXTRACT: note_on channel=9 note=68 velocity=80 time=0.0013297854166666667
EXTRACT: note_on channel=1 note=66 velocity=80 time=0
EXTRACT: note_on channel=1 note=63 velocity=80 time=0
EXTRACT: note_on channel=3 note=59 velocity=80 time=0
EXTRACT: note_on channel=0 note=54 velocity=0 time=0.15824446458333333
EXTRACT: note_on channel=9 note=68 velocity=0 time=0
EXTRACT: note_on channel=1 note=66 velocity=0 time=0
EXTRACT: note_on channel=1 note=63 velocity=0 time=0
EXTRACT: note_on channel=3 note=51 velocity=0 time=0
EXTRACT: note_on channel=3 note=59 velocity=0 time=0
EXTRACT: note_on channel=0 note=51 velocity=80 time=0.0013297854166666667
EXTRACT: note_on channel=9 note=68 velocity=80 time=0
EXTRACT: note_on channel=1 note=66 velocity=80 time=0
EXTRACT: note_on channel=1 note=63 velocity=80 time=0
EXTRACT: note_on channel=3 note=51 velocity=80 time=0
EXTRACT: note_on channel=9 note=68 velocity=0 time=0.15824446458333333
EXTRACT: note_on channel=1 note=66 velocity=0 time=0
EXTRACT: note_on channel=1 note=63 velocity=0 time=0
EXTRACT: note_on channel=3 note=51 velocity=0 time=0
EXTRACT: note_on channel=9 note=68 velocity=80 time=0.0013297854166666667
EXTRACT: note_on channel=1 note=66 velocity=80 time=0
EXTRACT: note_on channel=1 note=63 velocity=80 time=0
EXTRACT: note_on channel=3 note=59 velocity=80 time=0
EXTRACT: note_on channel=3 note=51 velocity=80 time=0
EXTRACT: note_on channel=2 note=63 velocity=0 time=0.03058506458333333
EXTRACT: note_on channel=9 note=68 velocity=0 time=0.1276594
EXTRACT: note_on channel=1 note=66 velocity=0 time=0
EXTRACT: note_on channel=1 note=63 velocity=0 time=0
EXTRACT: note_on channel=3 note=59 velocity=0 time=0
EXTRACT: note_on channel=3 note=51 velocity=0 time=0
EXTRACT: note_on channel=4 note=44 velocity=0 time=0
EXTRACT: note_on channel=2 note=61 velocity=80 time=0.0013297854166666667
EXTRACT: note_on channel=4 note=40 velocity=80 time=0
EXTRACT: note_on channel=0 note=51 velocity=0 time=0.31781871458333333
EXTRACT: note_on channel=0 note=47 velocity=80 time=0.0013297854166666667
EXTRACT: note_on channel=9 note=66 velocity=80 time=0.3191485
EXTRACT: note_on channel=1 note=66 velocity=80 time=0
EXTRACT: note_on channel=1 note=63 velocity=80 time=0
EXTRACT: note_on channel=3 note=59 velocity=80 time=0
EXTRACT: note_on channel=3 note=56 velocity=80 time=0
EXTRACT: note_on channel=0 note=47 velocity=0 time=0.31781871458333333
EXTRACT: note_on channel=0 note=49 velocity=80 time=0.0013297854166666667
EXTRACT: note_on channel=9 note=66 velocity=0 time=0.15824446458333333
EXTRACT: note_on channel=1 note=66 velocity=0 time=0
EXTRACT: note_on channel=1 note=63 velocity=0 time=0
EXTRACT: note_on channel=3 note=59 velocity=0 time=0
EXTRACT: note_on channel=9 note=66 velocity=80 time=0.0013297854166666667
EXTRACT: note_on channel=1 note=66 velocity=80 time=0
EXTRACT: note_on channel=1 note=63 velocity=80 time=0
EXTRACT: note_on channel=3 note=59 velocity=80 time=0
EXTRACT: note_on channel=1 note=66 velocity=0 time=0.31781871458333333
EXTRACT: note_on channel=1 note=63 velocity=0 time=0
EXTRACT: note_on channel=1 note=66 velocity=80 time=0.0013297854166666667
EXTRACT: note_on channel=1 note=63 velocity=80 time=0
EXTRACT: note_on channel=0 note=49 velocity=0 time=0.15824446458333333
EXTRACT: note_on channel=9 note=66 velocity=0 time=0
EXTRACT: note_on channel=1 note=66 velocity=0 time=0
EXTRACT: note_on channel=1 note=63 velocity=0 time=0
EXTRACT: note_on channel=3 note=56 velocity=0 time=0
EXTRACT: note_on channel=3 note=59 velocity=0 time=0
EXTRACT: note_on channel=0 note=51 velocity=80 time=0.0013297854166666667
EXTRACT: note_on channel=9 note=66 velocity=80 time=0
EXTRACT: note_on channel=1 note=66 velocity=80 time=0
EXTRACT: note_on channel=1 note=63 velocity=80 time=0
EXTRACT: note_on channel=3 note=58 velocity=80 time=0
EXTRACT: note_on channel=3 note=54 velocity=80 time=0
EXTRACT: note_on channel=3 note=58 velocity=0 time=0.15824446458333333
EXTRACT: note_on channel=3 note=54 velocity=0 time=0
EXTRACT: note_on channel=3 note=59 velocity=80 time=0.0013297854166666667
EXTRACT: note_on channel=3 note=56 velocity=80 time=0
EXTRACT: note_on channel=1 note=66 velocity=0 time=0.15824446458333333
EXTRACT: note_on channel=1 note=63 velocity=0 time=0
EXTRACT: note_on channel=3 note=59 velocity=0 time=0
EXTRACT: note_on channel=1 note=66 velocity=80 time=0.0013297854166666667
EXTRACT: note_on channel=1 note=63 velocity=80 time=0
EXTRACT: note_on channel=2 note=66 velocity=0 time=0.12632961458333333
EXTRACT: note_on channel=9 note=66 velocity=0 time=0.03191485
EXTRACT: note_on channel=1 note=66 velocity=0 time=0
EXTRACT: note_on channel=1 note=63 velocity=0 time=0
EXTRACT: note_on channel=9 note=66 velocity=80 time=0.0013297854166666667
EXTRACT: note_on channel=1 note=66 velocity=80 time=0
EXTRACT: note_on channel=1 note=63 velocity=80 time=0
EXTRACT: note_on channel=3 note=59 velocity=80 time=0
EXTRACT: note_on channel=9 note=66 velocity=0 time=0.15824446458333333
EXTRACT: note_on channel=1 note=66 velocity=0 time=0
EXTRACT: note_on channel=1 note=63 velocity=0 time=0
EXTRACT: note_on channel=3 note=56 velocity=0 time=0
EXTRACT: note_on channel=3 note=59 velocity=0 time=0
EXTRACT: note_on channel=9 note=66 velocity=80 time=0.0013297854166666667
EXTRACT: note_on channel=1 note=66 velocity=80 time=0
EXTRACT: note_on channel=1 note=63 velocity=80 time=0
EXTRACT: note_on channel=3 note=54 velocity=80 time=0
EXTRACT: note_on channel=9 note=66 velocity=0 time=0.15824446458333333
EXTRACT: note_on channel=1 note=66 velocity=0 time=0
EXTRACT: note_on channel=1 note=63 velocity=0 time=0
EXTRACT: note_on channel=9 note=66 velocity=80 time=0.0013297854166666667
EXTRACT: note_on channel=1 note=66 velocity=80 time=0
EXTRACT: note_on channel=1 note=63 velocity=80 time=0
EXTRACT: note_on channel=3 note=59 velocity=80 time=0
EXTRACT: note_on channel=2 note=61 velocity=0 time=0.03058506458333333
EXTRACT: note_on channel=0 note=51 velocity=0 time=0.1276594
EXTRACT: note_on channel=9 note=66 velocity=0 time=0
EXTRACT: note_on channel=1 note=66 velocity=0 time=0
EXTRACT: note_on channel=1 note=63 velocity=0 time=0
EXTRACT: note_on channel=3 note=54 velocity=0 time=0
EXTRACT: note_on channel=3 note=59 velocity=0 time=0
EXTRACT: note_on channel=4 note=40 velocity=0 time=0
EXTRACT: note_on channel=2 note=66 velocity=80 time=0.0013297854166666667
EXTRACT: note_on channel=2 note=59 velocity=80 time=0
EXTRACT: note_on channel=4 note=47 velocity=80 time=0
EXTRACT: note_on channel=0 note=54 velocity=80 time=0.47872275
EXTRACT: note_on channel=0 note=54 velocity=0 time=0.15824446458333333
EXTRACT: note_on channel=0 note=59 velocity=80 time=0.0013297854166666667
EXTRACT: note_on channel=9 note=71 velocity=80 time=0
EXTRACT: note_on channel=1 note=66 velocity=80 time=0
EXTRACT: note_on channel=3 note=59 velocity=80 time=0
EXTRACT: note_on channel=3 note=51 velocity=80 time=0
EXTRACT: note_on channel=0 note=59 velocity=0 time=0.47739296458333336
EXTRACT: note_on channel=9 note=71 velocity=0 time=0
EXTRACT: note_on channel=1 note=66 velocity=0 time=0
EXTRACT: note_on channel=3 note=59 velocity=0 time=0
EXTRACT: note_on channel=0 note=59 velocity=80 time=0.0013297854166666667
EXTRACT: note_on channel=9 note=71 velocity=80 time=0
EXTRACT: note_on channel=1 note=66 velocity=80 time=0
EXTRACT: note_on channel=3 note=59 velocity=80 time=0
EXTRACT: note_on channel=1 note=66 velocity=0 time=0.31781871458333333
EXTRACT: note_on channel=1 note=66 velocity=80 time=0.0013297854166666667
EXTRACT: note_on channel=0 note=59 velocity=0 time=0.15824446458333333
EXTRACT: note_on channel=9 note=71 velocity=0 time=0
EXTRACT: note_on channel=1 note=66 velocity=0 time=0
EXTRACT: note_on channel=3 note=51 velocity=0 time=0
EXTRACT: note_on channel=3 note=59 velocity=0 time=0
EXTRACT: note_on channel=0 note=54 velocity=80 time=0.0013297854166666667
EXTRACT: note_on channel=9 note=71 velocity=80 time=0
EXTRACT: note_on channel=1 note=66 velocity=80 time=0
EXTRACT: note_on channel=3 note=59 velocity=80 time=0
EXTRACT: note_on channel=3 note=51 velocity=80 time=0
EXTRACT: note_on channel=1 note=66 velocity=0 time=0.31781871458333333
EXTRACT: note_on channel=3 note=59 velocity=0 time=0
EXTRACT: note_on channel=1 note=66 velocity=80 time=0.0013297854166666667
EXTRACT: note_on channel=3 note=59 velocity=80 time=0
EXTRACT: note_on channel=9 note=71 velocity=0 time=0.15824446458333333
EXTRACT: note_on channel=1 note=66 velocity=0 time=0
EXTRACT: note_on channel=9 note=71 velocity=80 time=0.0013297854166666667
EXTRACT: note_on channel=1 note=66 velocity=80 time=0
EXTRACT: note_on channel=0 note=54 velocity=0 time=0.15824446458333333
EXTRACT: note_on channel=9 note=71 velocity=0 time=0
EXTRACT: note_on channel=1 note=66 velocity=0 time=0
EXTRACT: note_on channel=3 note=51 velocity=0 time=0
EXTRACT: note_on channel=3 note=59 velocity=0 time=0
EXTRACT: note_on channel=0 note=61 velocity=80 time=0.0013297854166666667
EXTRACT: note_on channel=9 note=71 velocity=80 time=0
EXTRACT: note_on channel=1 note=66 velocity=80 time=0
EXTRACT: note_on channel=3 note=59 velocity=80 time=0
EXTRACT: note_on channel=3 note=51 velocity=80 time=0
EXTRACT: note_on channel=9 note=71 velocity=0 time=0.15824446458333333
EXTRACT: note_on channel=1 note=66 velocity=0 time=0
EXTRACT: note_on channel=3 note=59 velocity=0 time=0
EXTRACT: note_on channel=9 note=71 velocity=80 time=0.0013297854166666667
EXTRACT: note_on channel=1 note=66 velocity=80 time=0
EXTRACT: note_on channel=3 note=59 velocity=80 time=0
EXTRACT: note_on channel=2 note=59 velocity=0 time=0.03058506458333333
EXTRACT: note_on channel=9 note=71 velocity=0 time=0.1276594
EXTRACT: note_on channel=1 note=66 velocity=0 time=0
EXTRACT: note_on channel=3 note=51 velocity=0 time=0
EXTRACT: note_on channel=3 note=59 velocity=0 time=0
EXTRACT: note_on channel=4 note=47 velocity=0 time=0
EXTRACT: note_on channel=2 note=61 velocity=80 time=0.0013297854166666667
EXTRACT: note_on channel=3 note=49 velocity=80 time=0
EXTRACT: note_on channel=4 note=46 velocity=80 time=0
EXTRACT: note_on channel=0 note=61 velocity=0 time=0.6369672145833333
EXTRACT: note_on channel=0 note=63 velocity=80 time=0.0013297854166666667
EXTRACT: note_on channel=9 note=73 velocity=80 time=0
EXTRACT: note_on channel=1 note=66 velocity=80 time=0
EXTRACT: note_on channel=3 note=59 velocity=80 time=0
EXTRACT: note_on channel=0 note=63 velocity=0 time=0.31781871458333333
EXTRACT: note_on channel=0 note=61 velocity=80 time=0.0013297854166666667
EXTRACT: note_on channel=9 note=73 velocity=0 time=0.15824446458333333
EXTRACT: note_on channel=1 note=66 velocity=0 time=0
EXTRACT: note_on channel=3 note=59 velocity=0 time=0
EXTRACT: note_on channel=9 note=73 velocity=80 time=0.0013297854166666667
EXTRACT: note_on channel=1 note=66 velocity=80 time=0
EXTRACT: note_on channel=3 note=59 velocity=80 time=0
EXTRACT: note_on channel=0 note=61 velocity=0 time=0.15824446458333333
EXTRACT: note_on channel=0 note=59 velocity=80 time=0.0013297854166666667
EXTRACT: note_on channel=1 note=66 velocity=0 time=0.15824446458333333
EXTRACT: note_on channel=1 note=66 velocity=80 time=0.0013297854166666667
EXTRACT: note_on channel=0 note=59 velocity=0 time=0.15824446458333333
EXTRACT: note_on channel=9 note=73 velocity=0 time=0
EXTRACT: note_on channel=1 note=66 velocity=0 time=0
EXTRACT: note_on channel=3 note=59 velocity=0 time=0
EXTRACT: note_on channel=0 note=59 velocity=80 time=0.0013297854166666667
EXTRACT: note_on channel=9 note=73 velocity=80 time=0
EXTRACT: note_on channel=1 note=66 velocity=80 time=0
EXTRACT: note_on channel=3 note=58 velocity=80 time=0
EXTRACT: note_on channel=3 note=58 velocity=0 time=0.15824446458333333
EXTRACT: note_on channel=3 note=59 velocity=80 time=0.0013297854166666667
EXTRACT: note_on channel=1 note=66 velocity=0 time=0.15824446458333333
EXTRACT: note_on channel=3 note=49 velocity=0 time=0
EXTRACT: note_on channel=3 note=59 velocity=0 time=0
EXTRACT: note_on channel=1 note=66 velocity=80 time=0.0013297854166666667
EXTRACT: note_on channel=3 note=49 velocity=80 time=0
EXTRACT: note_on channel=9 note=73 velocity=0 time=0.15824446458333333
EXTRACT: note_on channel=1 note=66 velocity=0 time=0
EXTRACT: note_on channel=9 note=73 velocity=80 time=0.0013297854166666667
EXTRACT: note_on channel=1 note=66 velocity=80 time=0
EXTRACT: note_on channel=3 note=59 velocity=80 time=0
EXTRACT: note_on channel=0 note=59 velocity=0 time=0.15824446458333333
EXTRACT: note_on channel=9 note=73 velocity=0 time=0
EXTRACT: note_on channel=1 note=66 velocity=0 time=0
EXTRACT: note_on channel=3 note=49 velocity=0 time=0
EXTRACT: note_on channel=3 note=59 velocity=0 time=0
EXTRACT: note_on channel=0 note=63 velocity=80 time=0.0013297854166666667
EXTRACT: note_on channel=9 note=73 velocity=80 time=0
EXTRACT: note_on channel=1 note=66 velocity=80 time=0
EXTRACT: note_on channel=3 note=49 velocity=80 time=0
EXTRACT: note_on channel=9 note=73 velocity=0 time=0.15824446458333333
EXTRACT: note_on channel=1 note=66 velocity=0 time=0
EXTRACT: note_on channel=3 note=49 velocity=0 time=0
EXTRACT: note_on channel=9 note=73 velocity=80 time=0.0013297854166666667
EXTRACT: note_on channel=1 note=66 velocity=80 time=0
EXTRACT: note_on channel=3 note=59 velocity=80 time=0
EXTRACT: note_on channel=3 note=49 velocity=80 time=0
EXTRACT: note_on channel=2 note=61 velocity=0 time=0.03058506458333333
EXTRACT: note_on channel=9 note=73 velocity=0 time=0.1276594
EXTRACT: note_on channel=1 note=66 velocity=0 time=0
EXTRACT: note_on channel=3 note=59 velocity=0 time=0
EXTRACT: note_on channel=3 note=49 velocity=0 time=0
EXTRACT: note_on channel=4 note=46 velocity=0 time=0
EXTRACT: note_on channel=2 note=63 velocity=80 time=0.0013297854166666667
EXTRACT: note_on channel=3 note=51 velocity=80 time=0
EXTRACT: note_on channel=4 note=44 velocity=80 time=0
EXTRACT: note_on channel=0 note=63 velocity=0 time=0.31781871458333333
EXTRACT: note_on channel=0 note=61 velocity=80 time=0.0013297854166666667
EXTRACT: note_on channel=9 note=75 velocity=80 time=0.3191485
EXTRACT: note_on channel=1 note=66 velocity=80 time=0
EXTRACT: note_on channel=1 note=63 velocity=80 time=0
EXTRACT: note_on channel=3 note=59 velocity=80 time=0
EXTRACT: note_on channel=0 note=61 velocity=0 time=0.31781871458333333
EXTRACT: note_on channel=0 note=59 velocity=80 time=0.0013297854166666667
EXTRACT: note_on channel=9 note=75 velocity=0 time=0.15824446458333333
EXTRACT: note_on channel=1 note=66 velocity=0 time=0
EXTRACT: note_on channel=1 note=63 velocity=0 time=0
EXTRACT: note_on channel=3 note=59 velocity=0 time=0
EXTRACT: note_on channel=9 note=75 velocity=80 time=0.0013297854166666667
EXTRACT: note_on channel=1 note=66 velocity=80 time=0
EXTRACT: note_on channel=1 note=63 velocity=80 time=0
EXTRACT: note_on channel=3 note=59 velocity=80 time=0
EXTRACT: note_on channel=3 note=51 velocity=0 time=0.15824446458333333
EXTRACT: note_on channel=1 note=66 velocity=0 time=0.15957425
EXTRACT: note_on channel=1 note=63 velocity=0 time=0
EXTRACT: note_on channel=1 note=66 velocity=80 time=0.0013297854166666667
EXTRACT: note_on channel=1 note=63 velocity=80 time=0
EXTRACT: note_on channel=0 note=59 velocity=0 time=0.15824446458333333
EXTRACT: note_on channel=9 note=75 velocity=0 time=0
EXTRACT: note_on channel=1 note=66 velocity=0 time=0
EXTRACT: note_on channel=1 note=63 velocity=0 time=0
EXTRACT: note_on channel=3 note=59 velocity=0 time=0
EXTRACT: note_on channel=0 note=58 velocity=80 time=0.0013297854166666667
EXTRACT: note_on channel=9 note=75 velocity=80 time=0
EXTRACT: note_on channel=1 note=66 velocity=80 time=0
EXTRACT: note_on channel=1 note=63 velocity=80 time=0
EXTRACT: note_on channel=3 note=58 velocity=80 time=0
EXTRACT: note_on channel=3 note=58 velocity=0 time=0.15824446458333333
EXTRACT: note_on channel=3 note=59 velocity=80 time=0.0013297854166666667
EXTRACT: note_on channel=1 note=66 velocity=0 time=0.15824446458333333
EXTRACT: note_on channel=1 note=63 velocity=0 time=0
EXTRACT: note_on channel=3 note=59 velocity=0 time=0
EXTRACT: note_on channel=1 note=66 velocity=80 time=0.0013297854166666667
EXTRACT: note_on channel=1 note=63 velocity=80 time=0
EXTRACT: note_on channel=3 note=51 velocity=80 time=0
EXTRACT: note_on channel=9 note=75 velocity=0 time=0.15824446458333333
EXTRACT: note_on channel=1 note=66 velocity=0 time=0
EXTRACT: note_on channel=1 note=63 velocity=0 time=0
EXTRACT: note_on channel=9 note=75 velocity=80 time=0.0013297854166666667
EXTRACT: note_on channel=1 note=66 velocity=80 time=0
EXTRACT: note_on channel=1 note=63 velocity=80 time=0
EXTRACT: note_on channel=3 note=59 velocity=80 time=0
EXTRACT: note_on channel=2 note=66 velocity=0 time=0.09441476458333334
EXTRACT: note_on channel=0 note=58 velocity=0 time=0.0638297
EXTRACT: note_on channel=9 note=75 velocity=0 time=0
EXTRACT: note_on channel=1 note=66 velocity=0 time=0
EXTRACT: note_on channel=1 note=63 velocity=0 time=0
EXTRACT: note_on channel=3 note=51 velocity=0 time=0
EXTRACT: note_on channel=3 note=59 velocity=0 time=0
EXTRACT: note_on channel=0 note=59 velocity=80 time=0.0013297854166666667
EXTRACT: note_on channel=9 note=75 velocity=80 time=0
EXTRACT: note_on channel=1 note=66 velocity=80 time=0
EXTRACT: note_on channel=1 note=63 velocity=80 time=0
EXTRACT: note_on channel=3 note=51 velocity=80 time=0
EXTRACT: note_on channel=9 note=75 velocity=0 time=0.15824446458333333
EXTRACT: note_on channel=1 note=66 velocity=0 time=0
EXTRACT: note_on channel=1 note=63 velocity=0 time=0
EXTRACT: note_on channel=3 note=51 velocity=0 time=0
EXTRACT: note_on channel=9 note=75 velocity=80 time=0.0013297854166666667
EXTRACT: note_on channel=1 note=66 velocity=80 time=0
EXTRACT: note_on channel=1 note=63 velocity=80 time=0
EXTRACT: note_on channel=3 note=59 velocity=80 time=0
EXTRACT: note_on channel=3 note=51 velocity=80 time=0
EXTRACT: note_on channel=2 note=63 velocity=0 time=0.03058506458333333
EXTRACT: note_on channel=9 note=75 velocity=0 time=0.1276594
EXTRACT: note_on channel=1 note=66 velocity=0 time=0
EXTRACT: note_on channel=1 note=63 velocity=0 time=0
EXTRACT: note_on channel=3 note=59 velocity=0 time=0
EXTRACT: note_on channel=3 note=51 velocity=0 time=0
EXTRACT: note_on channel=4 note=44 velocity=0 time=0
EXTRACT: note_on channel=2 note=66 velocity=80 time=0.0013297854166666667
EXTRACT: note_on channel=4 note=40 velocity=80 time=0
EXTRACT: note_on channel=2 note=64 velocity=80 time=0.3191485
EXTRACT: note_on channel=2 note=64 velocity=0 time=0.30186128958333336
EXTRACT: note_on channel=0 note=59 velocity=0 time=0.015957425
EXTRACT: note_on channel=9 note=73 velocity=80 time=0.0013297854166666667
EXTRACT: note_on channel=1 note=66 velocity=80 time=0
EXTRACT: note_on channel=1 note=63 velocity=80 time=0
EXTRACT: note_on channel=2 note=66 velocity=80 time=0
EXTRACT: note_on channel=3 note=59 velocity=80 time=0
EXTRACT: note_on channel=3 note=56 velocity=80 time=0
EXTRACT: note_on channel=2 note=66 velocity=0 time=0.30186128958333336
EXTRACT: note_on channel=2 note=71 velocity=80 time=0.017287210416666667
EXTRACT: note_on channel=9 note=73 velocity=0 time=0.15824446458333333
EXTRACT: note_on channel=1 note=66 velocity=0 time=0
EXTRACT: note_on channel=1 note=63 velocity=0 time=0
EXTRACT: note_on channel=3 note=59 velocity=0 time=0
EXTRACT: note_on channel=9 note=73 velocity=80 time=0.0013297854166666667
EXTRACT: note_on channel=1 note=66 velocity=80 time=0
EXTRACT: note_on channel=1 note=63 velocity=80 time=0
EXTRACT: note_on channel=3 note=59 velocity=80 time=0
EXTRACT: note_on channel=1 note=66 velocity=0 time=0.31781871458333333
EXTRACT: note_on channel=1 note=63 velocity=0 time=0
EXTRACT: note_on channel=1 note=66 velocity=80 time=0.0013297854166666667
EXTRACT: note_on channel=1 note=63 velocity=80 time=0
EXTRACT: note_on channel=2 note=71 velocity=0 time=0.12632961458333333
EXTRACT: note_on channel=9 note=73 velocity=0 time=0.03191485
EXTRACT: note_on channel=1 note=66 velocity=0 time=0
EXTRACT: note_on channel=1 note=63 velocity=0 time=0
EXTRACT: note_on channel=3 note=56 velocity=0 time=0
EXTRACT: note_on channel=3 note=59 velocity=0 time=0
EXTRACT: note_on channel=9 note=73 velocity=80 time=0.0013297854166666667
EXTRACT: note_on channel=1 note=66 velocity=80 time=0
EXTRACT: note_on channel=1 note=63 velocity=80 time=0
EXTRACT: note_on channel=2 note=73 velocity=80 time=0
EXTRACT: note_on channel=3 note=58 velocity=80 time=0
EXTRACT: note_on channel=3 note=54 velocity=80 time=0
EXTRACT: note_on channel=3 note=58 velocity=0 time=0.15824446458333333
EXTRACT: note_on channel=3 note=54 velocity=0 time=0
EXTRACT: note_on channel=3 note=59 velocity=80 time=0.0013297854166666667
EXTRACT: note_on channel=3 note=56 velocity=80 time=0
EXTRACT: note_on channel=1 note=66 velocity=0 time=0.15824446458333333
EXTRACT: note_on channel=1 note=63 velocity=0 time=0
EXTRACT: note_on channel=3 note=59 velocity=0 time=0
EXTRACT: note_on channel=0 note=59 velocity=80 time=0.0013297854166666667
EXTRACT: note_on channel=1 note=66 velocity=80 time=0
EXTRACT: note_on channel=1 note=63 velocity=80 time=0
EXTRACT: note_on channel=0 note=59 velocity=0 time=0.15824446458333333
EXTRACT: note_on channel=9 note=73 velocity=0 time=0
EXTRACT: note_on channel=1 note=66 velocity=0 time=0
EXTRACT: note_on channel=1 note=63 velocity=0 time=0
EXTRACT: note_on channel=0 note=61 velocity=80 time=0.0013297854166666667
EXTRACT: note_on channel=9 note=73 velocity=80 time=0
EXTRACT: note_on channel=1 note=66 velocity=80 time=0
EXTRACT: note_on channel=1 note=63 velocity=80 time=0
EXTRACT: note_on channel=3 note=59 velocity=80 time=0
EXTRACT: note_on channel=2 note=73 velocity=0 time=0.12632961458333333
EXTRACT: note_on channel=0 note=61 velocity=0 time=0.03191485
EXTRACT: note_on channel=9 note=73 velocity=0 time=0
EXTRACT: note_on channel=1 note=66 velocity=0 time=0
EXTRACT: note_on channel=1 note=63 velocity=0 time=0
EXTRACT: note_on channel=3 note=56 velocity=0 time=0
EXTRACT: note_on channel=3 note=59 velocity=0 time=0
EXTRACT: note_on channel=0 note=63 velocity=80 time=0.0013297854166666667
EXTRACT: note_on channel=9 note=73 velocity=80 time=0
EXTRACT: note_on channel=1 note=66 velocity=80 time=0
EXTRACT: note_on channel=1 note=63 velocity=80 time=0
EXTRACT: note_on channel=2 note=75 velocity=80 time=0
EXTRACT: note_on channel=3 note=54 velocity=80 time=0
EXTRACT: note_on channel=0 note=63 velocity=0 time=0.15824446458333333
EXTRACT: note_on channel=9 note=73 velocity=0 time=0
EXTRACT: note_on channel=1 note=66 velocity=0 time=0
EXTRACT: note_on channel=1 note=63 velocity=0 time=0
EXTRACT: note_on channel=0 note=63 velocity=80 time=0.0013297854166666667
EXTRACT: note_on channel=9 note=73 velocity=80 time=0
EXTRACT: note_on channel=1 note=66 velocity=80 time=0
EXTRACT: note_on channel=1 note=63 velocity=80 time=0
EXTRACT: note_on channel=3 note=59 velocity=80 time=0
EXTRACT: note_on channel=2 note=66 velocity=0 time=0.03058506458333333
EXTRACT: note_on channel=2 note=75 velocity=0 time=0.111701975
EXTRACT: note_on channel=9 note=73 velocity=0 time=0.015957425
EXTRACT: note_on channel=1 note=66 velocity=0 time=0
EXTRACT: note_on channel=1 note=63 velocity=0 time=0
EXTRACT: note_on channel=3 note=54 velocity=0 time=0
EXTRACT: note_on channel=3 note=59 velocity=0 time=0
EXTRACT: note_on channel=4 note=40 velocity=0 time=0
EXTRACT: note_on channel=1 note=75 velocity=80 time=0.0013297854166666667
EXTRACT: note_on channel=4 note=47 velocity=80 time=0
EXTRACT: note_on channel=0 note=63 velocity=0 time=0.31781871458333333
EXTRACT: note_on channel=0 note=61 velocity=80 time=0.0013297854166666667
EXTRACT: note_on channel=9 note=75 velocity=80 time=0.3191485
EXTRACT: note_on channel=2 note=66 velocity=80 time=0
EXTRACT: note_on channel=3 note=59 velocity=80 time=0
EXTRACT: note_on channel=3 note=51 velocity=80 time=0
EXTRACT: note_on channel=0 note=61 velocity=0 time=0.31781871458333333
EXTRACT: note_on channel=0 note=66 velocity=80 time=0.0013297854166666667
EXTRACT: note_on channel=2 note=66 velocity=0 time=0.13430832708333335
EXTRACT: note_on channel=9 note=75 velocity=0 time=0.0239361375
EXTRACT: note_on channel=3 note=59 velocity=0 time=0
EXTRACT: note_on channel=9 note=75 velocity=80 time=0.0013297854166666667
EXTRACT: note_on channel=2 note=66 velocity=80 time=0
EXTRACT: note_on channel=3 note=59 velocity=80 time=0
EXTRACT: note_on channel=2 note=66 velocity=0 time=0.30186128958333336
EXTRACT: note_on channel=2 note=66 velocity=80 time=0.017287210416666667
EXTRACT: note_on channel=2 note=66 velocity=0 time=0.15026575208333334
EXTRACT: note_on channel=0 note=66 velocity=0 time=0.0079787125
EXTRACT: note_on channel=9 note=75 velocity=0 time=0
EXTRACT: note_on channel=3 note=51 velocity=0 time=0
EXTRACT: note_on channel=3 note=59 velocity=0 time=0
EXTRACT: note_on channel=0 note=61 velocity=80 time=0.0013297854166666667
EXTRACT: note_on channel=9 note=75 velocity=80 time=0
EXTRACT: note_on channel=2 note=66 velocity=80 time=0
EXTRACT: note_on channel=3 note=59 velocity=80 time=0
EXTRACT: note_on channel=3 note=51 velocity=80 time=0
EXTRACT: note_on channel=2 note=66 velocity=0 time=0.30186128958333336
EXTRACT: note_on channel=3 note=59 velocity=0 time=0.015957425
EXTRACT: note_on channel=2 note=66 velocity=80 time=0.0013297854166666667
EXTRACT: note_on channel=3 note=59 velocity=80 time=0
EXTRACT: note_on channel=2 note=66 velocity=0 time=0.15026575208333334
EXTRACT: note_on channel=9 note=75 velocity=0 time=0.0079787125
EXTRACT: note_on channel=9 note=75 velocity=80 time=0.0013297854166666667
EXTRACT: note_on channel=2 note=66 velocity=80 time=0
EXTRACT: note_on channel=2 note=66 velocity=0 time=0.15026575208333334
EXTRACT: note_on channel=0 note=61 velocity=0 time=0.0079787125
EXTRACT: note_on channel=9 note=75 velocity=0 time=0
EXTRACT: note_on channel=3 note=51 velocity=0 time=0
EXTRACT: note_on channel=3 note=59 velocity=0 time=0
EXTRACT: note_on channel=0 note=59 velocity=80 time=0.0013297854166666667
EXTRACT: note_on channel=9 note=75 velocity=80 time=0
EXTRACT: note_on channel=2 note=66 velocity=80 time=0
EXTRACT: note_on channel=3 note=59 velocity=80 time=0
EXTRACT: note_on channel=3 note=51 velocity=80 time=0
EXTRACT: note_on channel=2 note=66 velocity=0 time=0.15026575208333334
EXTRACT: note_on channel=9 note=75 velocity=0 time=0.0079787125
EXTRACT: note_on channel=3 note=59 velocity=0 time=0
EXTRACT: note_on channel=9 note=75 velocity=80 time=0.0013297854166666667
EXTRACT: note_on channel=2 note=66 velocity=80 time=0
EXTRACT: note_on channel=3 note=59 velocity=80 time=0
EXTRACT: note_on channel=2 note=66 velocity=0 time=0.15026575208333334
EXTRACT: note_on channel=9 note=75 velocity=0 time=0.0079787125
EXTRACT: note_on channel=1 note=75 velocity=0 time=0
EXTRACT: note_on channel=3 note=51 velocity=0 time=0
EXTRACT: note_on channel=3 note=59 velocity=0 time=0
EXTRACT: note_on channel=4 note=47 velocity=0 time=0
EXTRACT: note_on channel=1 note=73 velocity=80 time=0.0013297854166666667
EXTRACT: note_on channel=3 note=49 velocity=80 time=0
EXTRACT: note_on channel=4 note=46 velocity=80 time=0
EXTRACT: note_on channel=0 note=59 velocity=0 time=0.6369672145833333
EXTRACT: note_on channel=9 note=73 velocity=80 time=0.0013297854166666667
EXTRACT: note_on channel=2 note=66 velocity=80 time=0
EXTRACT: note_on channel=3 note=59 velocity=80 time=0
EXTRACT: note_on channel=2 note=66 velocity=0 time=0.45345682708333335
EXTRACT: note_on channel=9 note=73 velocity=0 time=0.0239361375
EXTRACT: note_on channel=3 note=59 velocity=0 time=0
EXTRACT: note_on channel=9 note=73 velocity=80 time=0.0013297854166666667
EXTRACT: note_on channel=2 note=66 velocity=80 time=0
EXTRACT: note_on channel=3 note=59 velocity=80 time=0
EXTRACT: note_on channel=2 note=66 velocity=0 time=0.30186128958333336
EXTRACT: note_on channel=2 note=66 velocity=80 time=0.017287210416666667
EXTRACT: note_on channel=2 note=66 velocity=0 time=0.15026575208333334
EXTRACT: note_on channel=9 note=73 velocity=0 time=0.0079787125
EXTRACT: note_on channel=3 note=59 velocity=0 time=0
EXTRACT: note_on channel=9 note=73 velocity=80 time=0.0013297854166666667
EXTRACT: note_on channel=2 note=66 velocity=80 time=0
EXTRACT: note_on channel=3 note=58 velocity=80 time=0
EXTRACT: note_on channel=3 note=58 velocity=0 time=0.15824446458333333
EXTRACT: note_on channel=3 note=59 velocity=80 time=0.0013297854166666667
EXTRACT: note_on channel=2 note=66 velocity=0 time=0.14228703958333333
EXTRACT: note_on channel=3 note=49 velocity=0 time=0.015957425
EXTRACT: note_on channel=3 note=59 velocity=0 time=0
EXTRACT: note_on channel=0 note=59 velocity=80 time=0.0013297854166666667
EXTRACT: note_on channel=2 note=66 velocity=80 time=0
EXTRACT: note_on channel=3 note=49 velocity=80 time=0
EXTRACT: note_on channel=2 note=66 velocity=0 time=0.15026575208333334
EXTRACT: note_on channel=0 note=59 velocity=0 time=0.0079787125
EXTRACT: note_on channel=9 note=73 velocity=0 time=0
EXTRACT: note_on channel=0 note=61 velocity=80 time=0.0013297854166666667
EXTRACT: note_on channel=9 note=73 velocity=80 time=0
EXTRACT: note_on channel=2 note=66 velocity=80 time=0
EXTRACT: note_on channel=3 note=59 velocity=80 time=0
EXTRACT: note_on channel=2 note=66 velocity=0 time=0.15026575208333334
EXTRACT: note_on channel=0 note=61 velocity=0 time=0.0079787125
EXTRACT: note_on channel=9 note=73 velocity=0 time=0
EXTRACT: note_on channel=3 note=49 velocity=0 time=0
EXTRACT: note_on channel=3 note=59 velocity=0 time=0
EXTRACT: note_on channel=0 note=63 velocity=80 time=0.0013297854166666667
EXTRACT: note_on channel=9 note=73 velocity=80 time=0
EXTRACT: note_on channel=2 note=66 velocity=80 time=0
EXTRACT: note_on channel=3 note=49 velocity=80 time=0
EXTRACT: note_on channel=2 note=66 velocity=0 time=0.15026575208333334
EXTRACT: note_on channel=0 note=63 velocity=0 time=0.0079787125
EXTRACT: note_on channel=9 note=73 velocity=0 time=0
EXTRACT: note_on channel=3 note=49 velocity=0 time=0
EXTRACT: note_on channel=0 note=63 velocity=80 time=0.0013297854166666667
EXTRACT: note_on channel=9 note=73 velocity=80 time=0
EXTRACT: note_on channel=2 note=66 velocity=80 time=0
EXTRACT: note_on channel=3 note=59 velocity=80 time=0
EXTRACT: note_on channel=3 note=49 velocity=80 time=0
EXTRACT: note_on channel=2 note=66 velocity=0 time=0.15026575208333334
EXTRACT: note_on channel=9 note=73 velocity=0 time=0.0079787125
EXTRACT: note_on channel=1 note=73 velocity=0 time=0
EXTRACT: note_on channel=3 note=59 velocity=0 time=0
EXTRACT: note_on channel=3 note=49 velocity=0 time=0
EXTRACT: note_on channel=4 note=46 velocity=0 time=0
EXTRACT: note_on channel=1 note=71 velocity=80 time=0.0013297854166666667
EXTRACT: note_on channel=3 note=51 velocity=80 time=0
EXTRACT: note_on channel=4 note=44 velocity=80 time=0
EXTRACT: note_on channel=0 note=63 velocity=0 time=0.6369672145833333
EXTRACT: note_on channel=0 note=61 velocity=80 time=0.0013297854166666667
EXTRACT: note_on channel=9 note=75 velocity=80 time=0
EXTRACT: note_on channel=2 note=66 velocity=80 time=0
EXTRACT: note_on channel=2 note=63 velocity=80 time=0
EXTRACT: note_on channel=3 note=59 velocity=80 time=0
EXTRACT: note_on channel=0 note=61 velocity=0 time=0.31781871458333333
EXTRACT: note_on channel=0 note=66 velocity=80 time=0.0013297854166666667
EXTRACT: note_on channel=2 note=66 velocity=0 time=0.13430832708333335
EXTRACT: note_on channel=2 note=63 velocity=0 time=0
EXTRACT: note_on channel=9 note=75 velocity=0 time=0.0239361375
EXTRACT: note_on channel=3 note=59 velocity=0 time=0
EXTRACT: note_on channel=9 note=75 velocity=80 time=0.0013297854166666667
EXTRACT: note_on channel=2 note=66 velocity=80 time=0
EXTRACT: note_on channel=2 note=63 velocity=80 time=0
EXTRACT: note_on channel=3 note=59 velocity=80 time=0
EXTRACT: note_on channel=3 note=51 velocity=0 time=0.15824446458333333
EXTRACT: note_on channel=2 note=66 velocity=0 time=0.143616825
EXTRACT: note_on channel=2 note=63 velocity=0 time=0
EXTRACT: note_on channel=2 note=66 velocity=80 time=0.017287210416666667
EXTRACT: note_on channel=2 note=63 velocity=80 time=0
EXTRACT: note_on channel=2 note=66 velocity=0 time=0.15026575208333334
EXTRACT: note_on channel=2 note=63 velocity=0 time=0
EXTRACT: note_on channel=0 note=66 velocity=0 time=0.0079787125
EXTRACT: note_on channel=9 note=75 velocity=0 time=0
EXTRACT: note_on channel=3 note=59 velocity=0 time=0
EXTRACT: note_on channel=0 note=61 velocity=80 time=0.0013297854166666667
EXTRACT: note_on channel=9 note=75 velocity=80 time=0
EXTRACT: note_on channel=2 note=66 velocity=80 time=0
EXTRACT: note_on channel=2 note=63 velocity=80 time=0
EXTRACT: note_on channel=3 note=58 velocity=80 time=0
EXTRACT: note_on channel=3 note=58 velocity=0 time=0.15824446458333333
EXTRACT: note_on channel=3 note=59 velocity=80 time=0.0013297854166666667
EXTRACT: note_on channel=2 note=66 velocity=0 time=0.14228703958333333
EXTRACT: note_on channel=2 note=63 velocity=0 time=0
EXTRACT: note_on channel=3 note=59 velocity=0 time=0.015957425
EXTRACT: note_on channel=2 note=66 velocity=80 time=0.0013297854166666667
EXTRACT: note_on channel=2 note=63 velocity=80 time=0
EXTRACT: note_on channel=3 note=51 velocity=80 time=0
EXTRACT: note_on channel=2 note=66 velocity=0 time=0.15026575208333334
EXTRACT: note_on channel=2 note=63 velocity=0 time=0
EXTRACT: note_on channel=9 note=75 velocity=0 time=0.0079787125
EXTRACT: note_on channel=9 note=75 velocity=80 time=0.0013297854166666667
EXTRACT: note_on channel=2 note=66 velocity=80 time=0
EXTRACT: note_on channel=2 note=63 velocity=80 time=0
EXTRACT: note_on channel=3 note=59 velocity=80 time=0
EXTRACT: note_on channel=2 note=66 velocity=0 time=0.15026575208333334
EXTRACT: note_on channel=2 note=63 velocity=0 time=0
EXTRACT: note_on channel=0 note=61 velocity=0 time=0.0079787125
EXTRACT: note_on channel=9 note=75 velocity=0 time=0
EXTRACT: note_on channel=3 note=51 velocity=0 time=0
EXTRACT: note_on channel=3 note=59 velocity=0 time=0
EXTRACT: note_on channel=0 note=59 velocity=80 time=0.0013297854166666667
EXTRACT: note_on channel=9 note=75 velocity=80 time=0
EXTRACT: note_on channel=2 note=66 velocity=80 time=0
EXTRACT: note_on channel=2 note=63 velocity=80 time=0
EXTRACT: note_on channel=3 note=51 velocity=80 time=0
EXTRACT: note_on channel=2 note=66 velocity=0 time=0.15026575208333334
EXTRACT: note_on channel=2 note=63 velocity=0 time=0
EXTRACT: note_on channel=9 note=75 velocity=0 time=0.0079787125
EXTRACT: note_on channel=3 note=51 velocity=0 time=0
EXTRACT: note_on channel=9 note=75 velocity=80 time=0.0013297854166666667
EXTRACT: note_on channel=2 note=66 velocity=80 time=0
EXTRACT: note_on channel=2 note=63 velocity=80 time=0
EXTRACT: note_on channel=3 note=59 velocity=80 time=0
EXTRACT: note_on channel=3 note=51 velocity=80 time=0
EXTRACT: note_on channel=2 note=66 velocity=0 time=0.15026575208333334
EXTRACT: note_on channel=2 note=63 velocity=0 time=0
EXTRACT: note_on channel=9 note=75 velocity=0 time=0.0079787125
EXTRACT: note_on channel=1 note=71 velocity=0 time=0
EXTRACT: note_on channel=3 note=59 velocity=0 time=0
EXTRACT: note_on channel=3 note=51 velocity=0 time=0
EXTRACT: note_on channel=4 note=44 velocity=0 time=0
EXTRACT: note_on channel=1 note=73 velocity=80 time=0.0013297854166666667
EXTRACT: note_on channel=4 note=40 velocity=80 time=0
EXTRACT: note_on channel=9 note=64 velocity=80 time=0.3191485
EXTRACT: note_on channel=0 note=59 velocity=0 time=0.31781871458333333
EXTRACT: note_on channel=9 note=64 velocity=0 time=0
EXTRACT: note_on channel=9 note=75 velocity=80 time=0.0013297854166666667
EXTRACT: note_on channel=9 note=66 velocity=80 time=0
EXTRACT: note_on channel=2 note=66 velocity=80 time=0
EXTRACT: note_on channel=2 note=63 velocity=80 time=0
EXTRACT: note_on channel=3 note=59 velocity=80 time=0
EXTRACT: note_on channel=3 note=56 velocity=80 time=0
EXTRACT: note_on channel=9 note=66 velocity=0 time=0.31781871458333333
EXTRACT: note_on channel=9 note=71 velocity=80 time=0.0013297854166666667
EXTRACT: note_on channel=2 note=66 velocity=0 time=0.13430832708333335
EXTRACT: note_on channel=2 note=63 velocity=0 time=0
EXTRACT: note_on channel=9 note=75 velocity=0 time=0.0239361375
EXTRACT: note_on channel=3 note=59 velocity=0 time=0
EXTRACT: note_on channel=9 note=75 velocity=80 time=0.0013297854166666667
EXTRACT: note_on channel=2 note=66 velocity=80 time=0
EXTRACT: note_on channel=2 note=63 velocity=80 time=0
EXTRACT: note_on channel=3 note=59 velocity=80 time=0
EXTRACT: note_on channel=2 note=66 velocity=0 time=0.30186128958333336
EXTRACT: note_on channel=2 note=63 velocity=0 time=0
EXTRACT: note_on channel=2 note=66 velocity=80 time=0.017287210416666667
EXTRACT: note_on channel=2 note=63 velocity=80 time=0
EXTRACT: note_on channel=2 note=66 velocity=0 time=0.15026575208333334
EXTRACT: note_on channel=2 note=63 velocity=0 time=0
EXTRACT: note_on channel=9 note=71 velocity=0 time=0.0079787125
EXTRACT: note_on channel=9 note=75 velocity=0 time=0
EXTRACT: note_on channel=3 note=56 velocity=0 time=0
EXTRACT: note_on channel=3 note=59 velocity=0 time=0
EXTRACT: note_on channel=9 note=75 velocity=80 time=0.0013297854166666667
EXTRACT: note_on channel=9 note=73 velocity=80 time=0
EXTRACT: note_on channel=2 note=66 velocity=80 time=0
EXTRACT: note_on channel=2 note=63 velocity=80 time=0
EXTRACT: note_on channel=3 note=58 velocity=80 time=0
EXTRACT: note_on channel=3 note=54 velocity=80 time=0
EXTRACT: note_on channel=3 note=58 velocity=0 time=0.15824446458333333
EXTRACT: note_on channel=3 note=54 velocity=0 time=0
EXTRACT: note_on channel=3 note=59 velocity=80 time=0.0013297854166666667
EXTRACT: note_on channel=3 note=56 velocity=80 time=0
EXTRACT: note_on channel=2 note=66 velocity=0 time=0.14228703958333333
EXTRACT: note_on channel=2 note=63 velocity=0 time=0
EXTRACT: note_on channel=3 note=59 velocity=0 time=0.015957425
EXTRACT: note_on channel=0 note=59 velocity=80 time=0.0013297854166666667
EXTRACT: note_on channel=2 note=66 velocity=80 time=0
EXTRACT: note_on channel=2 note=63 velocity=80 time=0
EXTRACT: note_on channel=2 note=66 velocity=0 time=0.15026575208333334
EXTRACT: note_on channel=2 note=63 velocity=0 time=0
EXTRACT: note_on channel=0 note=59 velocity=0 time=0.0079787125
EXTRACT: note_on channel=9 note=75 velocity=0 time=0
EXTRACT: note_on channel=0 note=61 velocity=80 time=0.0013297854166666667
EXTRACT: note_on channel=9 note=75 velocity=80 time=0
EXTRACT: note_on channel=2 note=66 velocity=80 time=0
EXTRACT: note_on channel=2 note=63 velocity=80 time=0
EXTRACT: note_on channel=3 note=59 velocity=80 time=0
EXTRACT: note_on channel=2 note=66 velocity=0 time=0.15026575208333334
EXTRACT: note_on channel=2 note=63 velocity=0 time=0
EXTRACT: note_on channel=0 note=61 velocity=0 time=0.0079787125
EXTRACT: note_on channel=9 note=73 velocity=0 time=0
EXTRACT: note_on channel=9 note=75 velocity=0 time=0
EXTRACT: note_on channel=3 note=56 velocity=0 time=0
EXTRACT: note_on channel=3 note=59 velocity=0 time=0
EXTRACT: note_on channel=0 note=63 velocity=80 time=0.0013297854166666667
EXTRACT: note_on channel=9 note=75 velocity=80 time=0
EXTRACT: note_on channel=9 note=75 velocity=80 time=0
EXTRACT: note_on channel=2 note=66 velocity=80 time=0
EXTRACT: note_on channel=2 note=63 velocity=80 time=0
EXTRACT: note_on channel=3 note=54 velocity=80 time=0
EXTRACT: note_on channel=2 note=66 velocity=0 time=0.15026575208333334
EXTRACT: note_on channel=2 note=63 velocity=0 time=0
EXTRACT: note_on channel=0 note=63 velocity=0 time=0.0079787125
EXTRACT: note_on channel=9 note=75 velocity=0 time=0
EXTRACT: note_on channel=0 note=63 velocity=80 time=0.0013297854166666667
EXTRACT: note_on channel=9 note=75 velocity=80 time=0
EXTRACT: note_on channel=2 note=66 velocity=80 time=0
EXTRACT: note_on channel=2 note=63 velocity=80 time=0
EXTRACT: note_on channel=3 note=59 velocity=80 time=0
EXTRACT: note_on channel=2 note=66 velocity=0 time=0.15026575208333334
EXTRACT: note_on channel=2 note=63 velocity=0 time=0
EXTRACT: note_on channel=9 note=75 velocity=0 time=0.0079787125
EXTRACT: note_on channel=1 note=73 velocity=0 time=0
EXTRACT: note_on channel=3 note=54 velocity=0 time=0
EXTRACT: note_on channel=3 note=59 velocity=0 time=0
EXTRACT: note_on channel=4 note=40 velocity=0 time=0
EXTRACT: note_on channel=1 note=75 velocity=80 time=0.0013297854166666667
EXTRACT: note_on channel=4 note=47 velocity=80 time=0
EXTRACT: note_on channel=0 note=63 velocity=0 time=0.31781871458333333
EXTRACT: note_on channel=0 note=61 velocity=80 time=0.0013297854166666667
EXTRACT: note_on channel=9 note=75 velocity=80 time=0.3191485
EXTRACT: note_on channel=2 note=66 velocity=80 time=0
EXTRACT: note_on channel=3 note=59 velocity=80 time=0
EXTRACT: note_on channel=3 note=51 velocity=80 time=0
EXTRACT: note_on channel=0 note=61 velocity=0 time=0.31781871458333333
EXTRACT: note_on channel=0 note=66 velocity=80 time=0.0013297854166666667
EXTRACT: note_on channel=2 note=66 velocity=0 time=0.13430832708333335
EXTRACT: note_on channel=9 note=75 velocity=0 time=0.0239361375
EXTRACT: note_on channel=3 note=59 velocity=0 time=0
EXTRACT: note_on channel=9 note=75 velocity=80 time=0.0013297854166666667
EXTRACT: note_on channel=2 note=66 velocity=80 time=0
EXTRACT: note_on channel=3 note=59 velocity=80 time=0
EXTRACT: note_on channel=9 note=75 velocity=0 time=0.15824446458333333
EXTRACT: note_on channel=2 note=66 velocity=0 time=0.143616825
EXTRACT: note_on channel=2 note=66 velocity=80 time=0.017287210416666667
EXTRACT: note_on channel=2 note=66 velocity=0 time=0.15026575208333334
EXTRACT: note_on channel=0 note=66 velocity=0 time=0.0079787125
EXTRACT: note_on channel=9 note=75 velocity=0 time=0
EXTRACT: note_on channel=3 note=51 velocity=0 time=0
EXTRACT: note_on channel=3 note=59 velocity=0 time=0
EXTRACT: note_on channel=0 note=61 velocity=80 time=0.0013297854166666667
EXTRACT: note_on channel=9 note=75 velocity=80 time=0
EXTRACT: note_on channel=2 note=66 velocity=80 time=0
EXTRACT: note_on channel=3 note=59 velocity=80 time=0
EXTRACT: note_on channel=3 note=51 velocity=80 time=0
EXTRACT: note_on channel=2 note=66 velocity=0 time=0.30186128958333336
EXTRACT: note_on channel=3 note=59 velocity=0 time=0.015957425
EXTRACT: note_on channel=2 note=66 velocity=80 time=0.0013297854166666667
EXTRACT: note_on channel=3 note=59 velocity=80 time=0
EXTRACT: note_on channel=2 note=66 velocity=0 time=0.15026575208333334
EXTRACT: note_on channel=9 note=75 velocity=0 time=0.0079787125
EXTRACT: note_on channel=9 note=75 velocity=80 time=0.0013297854166666667
EXTRACT: note_on channel=2 note=66 velocity=80 time=0
EXTRACT: note_on channel=2 note=66 velocity=0 time=0.15026575208333334
EXTRACT: note_on channel=0 note=61 velocity=0 time=0.0079787125
EXTRACT: note_on channel=9 note=75 velocity=0 time=0
EXTRACT: note_on channel=3 note=51 velocity=0 time=0
EXTRACT: note_on channel=3 note=59 velocity=0 time=0
EXTRACT: note_on channel=0 note=61 velocity=80 time=0.0013297854166666667
EXTRACT: note_on channel=9 note=75 velocity=80 time=0
EXTRACT: note_on channel=2 note=66 velocity=80 time=0
EXTRACT: note_on channel=3 note=59 velocity=80 time=0
EXTRACT: note_on channel=3 note=51 velocity=80 time=0
EXTRACT: note_on channel=2 note=66 velocity=0 time=0.15026575208333334
EXTRACT: note_on channel=9 note=75 velocity=0 time=0.0079787125
EXTRACT: note_on channel=3 note=59 velocity=0 time=0
EXTRACT: note_on channel=9 note=75 velocity=80 time=0.0013297854166666667
EXTRACT: note_on channel=2 note=66 velocity=80 time=0
EXTRACT: note_on channel=3 note=59 velocity=80 time=0
EXTRACT: note_on channel=2 note=66 velocity=0 time=0.15026575208333334
EXTRACT: note_on channel=9 note=75 velocity=0 time=0.0079787125
EXTRACT: note_on channel=1 note=75 velocity=0 time=0
EXTRACT: note_on channel=3 note=51 velocity=0 time=0
EXTRACT: note_on channel=3 note=59 velocity=0 time=0
EXTRACT: note_on channel=4 note=47 velocity=0 time=0
EXTRACT: note_on channel=1 note=73 velocity=80 time=0.0013297854166666667
EXTRACT: note_on channel=3 note=49 velocity=80 time=0
EXTRACT: note_on channel=4 note=46 velocity=80 time=0
EXTRACT: note_on channel=0 note=61 velocity=0 time=0.6369672145833333
EXTRACT: note_on channel=9 note=73 velocity=80 time=0.0013297854166666667
EXTRACT: note_on channel=2 note=66 velocity=80 time=0
EXTRACT: note_on channel=3 note=59 velocity=80 time=0
EXTRACT: note_on channel=2 note=66 velocity=0 time=0.45345682708333335
EXTRACT: note_on channel=9 note=73 velocity=0 time=0.0239361375
EXTRACT: note_on channel=3 note=59 velocity=0 time=0
EXTRACT: note_on channel=9 note=73 velocity=80 time=0.0013297854166666667
EXTRACT: note_on channel=2 note=66 velocity=80 time=0
EXTRACT: note_on channel=3 note=59 velocity=80 time=0
EXTRACT: note_on channel=2 note=66 velocity=0 time=0.30186128958333336
EXTRACT: note_on channel=2 note=66 velocity=80 time=0.017287210416666667
EXTRACT: note_on channel=2 note=66 velocity=0 time=0.15026575208333334
EXTRACT: note_on channel=9 note=73 velocity=0 time=0.0079787125
EXTRACT: note_on channel=3 note=59 velocity=0 time=0
EXTRACT: note_on channel=9 note=73 velocity=80 time=0.0013297854166666667
EXTRACT: note_on channel=2 note=66 velocity=80 time=0
EXTRACT: note_on channel=3 note=58 velocity=80 time=0
EXTRACT: note_on channel=3 note=58 velocity=0 time=0.15824446458333333
EXTRACT: note_on channel=3 note=59 velocity=80 time=0.0013297854166666667
EXTRACT: note_on channel=2 note=66 velocity=0 time=0.14228703958333333
EXTRACT: note_on channel=3 note=49 velocity=0 time=0.015957425
EXTRACT: note_on channel=3 note=59 velocity=0 time=0
EXTRACT: note_on channel=0 note=52 velocity=80 time=0.0013297854166666667
EXTRACT: note_on channel=2 note=66 velocity=80 time=0
EXTRACT: note_on channel=3 note=49 velocity=80 time=0
EXTRACT: note_on channel=2 note=66 velocity=0 time=0.15026575208333334
EXTRACT: note_on channel=9 note=73 velocity=0 time=0.0079787125
EXTRACT: note_on channel=9 note=73 velocity=80 time=0.0013297854166666667
EXTRACT: note_on channel=2 note=66 velocity=80 time=0
EXTRACT: note_on channel=3 note=59 velocity=80 time=0
EXTRACT: note_on channel=2 note=66 velocity=0 time=0.15026575208333334
EXTRACT: note_on channel=0 note=52 velocity=0 time=0.0079787125
EXTRACT: note_on channel=9 note=73 velocity=0 time=0
EXTRACT: note_on channel=3 note=49 velocity=0 time=0
EXTRACT: note_on channel=3 note=59 velocity=0 time=0
EXTRACT: note_on channel=0 note=59 velocity=80 time=0.0013297854166666667
EXTRACT: note_on channel=9 note=73 velocity=80 time=0
EXTRACT: note_on channel=2 note=66 velocity=80 time=0
EXTRACT: note_on channel=3 note=49 velocity=80 time=0
EXTRACT: note_on channel=2 note=66 velocity=0 time=0.15026575208333334
EXTRACT: note_on channel=9 note=73 velocity=0 time=0.0079787125
EXTRACT: note_on channel=3 note=49 velocity=0 time=0
EXTRACT: note_on channel=9 note=73 velocity=80 time=0.0013297854166666667
EXTRACT: note_on channel=2 note=66 velocity=80 time=0
EXTRACT: note_on channel=3 note=59 velocity=80 time=0
EXTRACT: note_on channel=3 note=49 velocity=80 time=0
EXTRACT: note_on channel=2 note=66 velocity=0 time=0.15026575208333334
EXTRACT: note_on channel=9 note=73 velocity=0 time=0.0079787125
EXTRACT: note_on channel=1 note=73 velocity=0 time=0
EXTRACT: note_on channel=3 note=59 velocity=0 time=0
EXTRACT: note_on channel=3 note=49 velocity=0 time=0
EXTRACT: note_on channel=4 note=46 velocity=0 time=0
EXTRACT: note_on channel=9 note=71 velocity=80 time=0.0013297854166666667
EXTRACT: note_on channel=1 note=75 velocity=80 time=0
EXTRACT: note_on channel=3 note=51 velocity=80 time=0
EXTRACT: note_on channel=4 note=44 velocity=80 time=0
EXTRACT: note_on channel=0 note=59 velocity=0 time=0.31781871458333333
EXTRACT: note_on channel=0 note=61 velocity=80 time=0.0013297854166666667
EXTRACT: note_on channel=2 note=66 velocity=80 time=0.3191485
EXTRACT: note_on channel=2 note=63 velocity=80 time=0
EXTRACT: note_on channel=3 note=59 velocity=80 time=0
EXTRACT: note_on channel=0 note=61 velocity=0 time=0.31781871458333333
EXTRACT: note_on channel=0 note=59 velocity=80 time=0.0013297854166666667
EXTRACT: note_on channel=2 note=66 velocity=0 time=0.13430832708333335
EXTRACT: note_on channel=2 note=63 velocity=0 time=0
EXTRACT: note_on channel=3 note=59 velocity=0 time=0.0239361375
EXTRACT: note_on channel=2 note=66 velocity=80 time=0.0013297854166666667
EXTRACT: note_on channel=2 note=63 velocity=80 time=0
EXTRACT: note_on channel=3 note=59 velocity=80 time=0
EXTRACT: note_on channel=9 note=71 velocity=0 time=0.15824446458333333
EXTRACT: note_on channel=3 note=51 velocity=0 time=0
EXTRACT: note_on channel=2 note=66 velocity=0 time=0.143616825
EXTRACT: note_on channel=2 note=63 velocity=0 time=0
EXTRACT: note_on channel=2 note=66 velocity=80 time=0.017287210416666667
EXTRACT: note_on channel=2 note=63 velocity=80 time=0
EXTRACT: note_on channel=2 note=66 velocity=0 time=0.15026575208333334
EXTRACT: note_on channel=2 note=63 velocity=0 time=0
EXTRACT: note_on channel=3 note=59 velocity=0 time=0.0079787125
EXTRACT: note_on channel=2 note=66 velocity=80 time=0.0013297854166666667
EXTRACT: note_on channel=2 note=63 velocity=80 time=0
EXTRACT: note_on channel=3 note=58 velocity=80 time=0
EXTRACT: note_on channel=3 note=58 velocity=0 time=0.15824446458333333
EXTRACT: note_on channel=3 note=59 velocity=80 time=0.0013297854166666667
EXTRACT: note_on channel=2 note=66 velocity=0 time=0.14228703958333333
EXTRACT: note_on channel=2 note=63 velocity=0 time=0
EXTRACT: note_on channel=0 note=59 velocity=0 time=0.015957425
EXTRACT: note_on channel=3 note=59 velocity=0 time=0
EXTRACT: note_on channel=2 note=66 velocity=80 time=0.0013297854166666667
EXTRACT: note_on channel=2 note=63 velocity=80 time=0
EXTRACT: note_on channel=3 note=51 velocity=80 time=0
EXTRACT: note_on channel=2 note=66 velocity=0 time=0.15026575208333334
EXTRACT: note_on channel=2 note=63 velocity=0 time=0
EXTRACT: note_on channel=2 note=66 velocity=80 time=0.009308497916666667
EXTRACT: note_on channel=2 note=63 velocity=80 time=0
EXTRACT: note_on channel=3 note=59 velocity=80 time=0
EXTRACT: note_on channel=2 note=66 velocity=0 time=0.15026575208333334
EXTRACT: note_on channel=2 note=63 velocity=0 time=0
EXTRACT: note_on channel=3 note=51 velocity=0 time=0.0079787125
EXTRACT: note_on channel=3 note=59 velocity=0 time=0
EXTRACT: note_on channel=0 note=63 velocity=80 time=0.0013297854166666667
EXTRACT: note_on channel=9 note=71 velocity=80 time=0
EXTRACT: note_on channel=2 note=66 velocity=80 time=0
EXTRACT: note_on channel=2 note=63 velocity=80 time=0
EXTRACT: note_on channel=3 note=51 velocity=80 time=0
EXTRACT: note_on channel=2 note=66 velocity=0 time=0.15026575208333334
EXTRACT: note_on channel=2 note=63 velocity=0 time=0
EXTRACT: note_on channel=3 note=51 velocity=0 time=0.0079787125
EXTRACT: note_on channel=2 note=66 velocity=80 time=0.0013297854166666667
EXTRACT: note_on channel=2 note=63 velocity=80 time=0
EXTRACT: note_on channel=3 note=59 velocity=80 time=0
EXTRACT: note_on channel=3 note=51 velocity=80 time=0
EXTRACT: note_on channel=2 note=66 velocity=0 time=0.15026575208333334
EXTRACT: note_on channel=2 note=63 velocity=0 time=0
EXTRACT: note_on channel=1 note=75 velocity=0 time=0.0079787125
EXTRACT: note_on channel=3 note=59 velocity=0 time=0
EXTRACT: note_on channel=3 note=51 velocity=0 time=0
EXTRACT: note_on channel=4 note=44 velocity=0 time=0
EXTRACT: note_on channel=1 note=76 velocity=80 time=0.0013297854166666667
EXTRACT: note_on channel=4 note=40 velocity=80 time=0
EXTRACT: note_on channel=0 note=63 velocity=0 time=0.31781871458333333
EXTRACT: note_on channel=9 note=71 velocity=0 time=0
EXTRACT: note_on channel=0 note=61 velocity=80 time=0.0013297854166666667
EXTRACT: note_on channel=9 note=56 velocity=80 time=0
EXTRACT: note_on channel=1 note=64 velocity=80 time=0
EXTRACT: note_on channel=1 note=64 velocity=0 time=0.31781871458333333
EXTRACT: note_on channel=1 note=66 velocity=80 time=0.0013297854166666667
EXTRACT: note_on channel=2 note=66 velocity=80 time=0
EXTRACT: note_on channel=2 note=63 velocity=80 time=0
EXTRACT: note_on channel=3 note=59 velocity=80 time=0
EXTRACT: note_on channel=3 note=56 velocity=80 time=0
EXTRACT: note_on channel=0 note=61 velocity=0 time=0.31781871458333333
EXTRACT: note_on channel=9 note=56 velocity=0 time=0
EXTRACT: note_on channel=1 note=66 velocity=0 time=0
EXTRACT: note_on channel=0 note=59 velocity=80 time=0.0013297854166666667
EXTRACT: note_on channel=9 note=54 velocity=80 time=0
EXTRACT: note_on channel=1 note=71 velocity=80 time=0
EXTRACT: note_on channel=2 note=66 velocity=0 time=0.13430832708333335
EXTRACT: note_on channel=2 note=63 velocity=0 time=0
EXTRACT: note_on channel=3 note=59 velocity=0 time=0.0239361375
EXTRACT: note_on channel=2 note=66 velocity=80 time=0.0013297854166666667
EXTRACT: note_on channel=2 note=63 velocity=80 time=0
EXTRACT: note_on channel=3 note=59 velocity=80 time=0
EXTRACT: note_on channel=2 note=66 velocity=0 time=0.30186128958333336
EXTRACT: note_on channel=2 note=63 velocity=0 time=0
EXTRACT: note_on channel=2 note=66 velocity=80 time=0.017287210416666667
EXTRACT: note_on channel=2 note=63 velocity=80 time=0
EXTRACT: note_on channel=2 note=66 velocity=0 time=0.15026575208333334
EXTRACT: note_on channel=2 note=63 velocity=0 time=0
EXTRACT: note_on channel=1 note=71 velocity=0 time=0.0079787125
EXTRACT: note_on channel=3 note=56 velocity=0 time=0
EXTRACT: note_on channel=3 note=59 velocity=0 time=0
EXTRACT: note_on channel=1 note=73 velocity=80 time=0.0013297854166666667
EXTRACT: note_on channel=2 note=66 velocity=80 time=0
EXTRACT: note_on channel=2 note=63 velocity=80 time=0
EXTRACT: note_on channel=3 note=58 velocity=80 time=0
EXTRACT: note_on channel=3 note=54 velocity=80 time=0
EXTRACT: note_on channel=3 note=58 velocity=0 time=0.15824446458333333
EXTRACT: note_on channel=3 note=54 velocity=0 time=0
EXTRACT: note_on channel=3 note=59 velocity=80 time=0.0013297854166666667
EXTRACT: note_on channel=3 note=56 velocity=80 time=0
EXTRACT: note_on channel=2 note=66 velocity=0 time=0.14228703958333333
EXTRACT: note_on channel=2 note=63 velocity=0 time=0
EXTRACT: note_on channel=0 note=59 velocity=0 time=0.015957425
EXTRACT: note_on channel=9 note=54 velocity=0 time=0
EXTRACT: note_on channel=3 note=59 velocity=0 time=0
EXTRACT: note_on channel=2 note=66 velocity=80 time=0.0013297854166666667
EXTRACT: note_on channel=2 note=63 velocity=80 time=0
EXTRACT: note_on channel=2 note=66 velocity=0 time=0.15026575208333334
EXTRACT: note_on channel=2 note=63 velocity=0 time=0
EXTRACT: note_on channel=2 note=66 velocity=80 time=0.009308497916666667
EXTRACT: note_on channel=2 note=63 velocity=80 time=0
EXTRACT: note_on channel=3 note=59 velocity=80 time=0
EXTRACT: note_on channel=2 note=66 velocity=0 time=0.15026575208333334
EXTRACT: note_on channel=2 note=63 velocity=0 time=0
EXTRACT: note_on channel=1 note=73 velocity=0 time=0.0079787125
EXTRACT: note_on channel=3 note=56 velocity=0 time=0
EXTRACT: note_on channel=3 note=59 velocity=0 time=0
EXTRACT: note_on channel=0 note=58 velocity=80 time=0.0013297854166666667
EXTRACT: note_on channel=9 note=51 velocity=80 time=0
EXTRACT: note_on channel=1 note=75 velocity=80 time=0
EXTRACT: note_on channel=2 note=66 velocity=80 time=0
EXTRACT: note_on channel=2 note=63 velocity=80 time=0
EXTRACT: note_on channel=3 note=54 velocity=80 time=0
EXTRACT: note_on channel=2 note=66 velocity=0 time=0.15026575208333334
EXTRACT: note_on channel=2 note=63 velocity=0 time=0
EXTRACT: note_on channel=0 note=58 velocity=0 time=0.0079787125
EXTRACT: note_on channel=9 note=51 velocity=0 time=0
EXTRACT: note_on channel=0 note=59 velocity=80 time=0.0013297854166666667
EXTRACT: note_on channel=9 note=54 velocity=80 time=0
EXTRACT: note_on channel=2 note=66 velocity=80 time=0
EXTRACT: note_on channel=2 note=63 velocity=80 time=0
EXTRACT: note_on channel=3 note=59 velocity=80 time=0
EXTRACT: note_on channel=2 note=66 velocity=0 time=0.15026575208333334
EXTRACT: note_on channel=2 note=63 velocity=0 time=0
EXTRACT: note_on channel=0 note=59 velocity=0 time=0.0079787125
EXTRACT: note_on channel=9 note=54 velocity=0 time=0
EXTRACT: note_on channel=1 note=76 velocity=0 time=0
EXTRACT: note_on channel=3 note=54 velocity=0 time=0
EXTRACT: note_on channel=3 note=59 velocity=0 time=0
EXTRACT: note_on channel=4 note=40 velocity=0 time=0
EXTRACT: note_on channel=1 note=78 velocity=80 time=0.0013297854166666667
EXTRACT: note_on channel=4 note=51 velocity=80 time=0
EXTRACT: note_on channel=4 note=39 velocity=80 time=0
EXTRACT: note_on channel=3 note=56 velocity=80 time=0.3191485
EXTRACT: note_on channel=1 note=75 velocity=0 time=0.31781871458333333
EXTRACT: note_on channel=2 note=63 velocity=80 time=0.0013297854166666667
EXTRACT: note_on channel=2 note=63 velocity=0 time=0.30186128958333336
EXTRACT: note_on channel=3 note=56 velocity=0 time=0.015957425
EXTRACT: note_on channel=4 note=51 velocity=0 time=0
EXTRACT: note_on channel=4 note=39 velocity=0 time=0
EXTRACT: note_on channel=4 note=52 velocity=80 time=0.0013297854166666667
EXTRACT: note_on channel=4 note=40 velocity=80 time=0
EXTRACT: note_on channel=3 note=56 velocity=80 time=0.3191485
EXTRACT: note_on channel=2 note=59 velocity=80 time=0.3191485
EXTRACT: note_on channel=2 note=59 velocity=0 time=0.30186128958333336
EXTRACT: note_on channel=3 note=56 velocity=0 time=0.015957425
EXTRACT: note_on channel=4 note=52 velocity=0 time=0
EXTRACT: note_on channel=4 note=40 velocity=0 time=0
EXTRACT: note_on channel=2 note=58 velocity=80 time=0.0013297854166666667
EXTRACT: note_on channel=4 note=54 velocity=80 time=0
EXTRACT: note_on channel=4 note=42 velocity=80 time=0
EXTRACT: note_on channel=1 note=78 velocity=0 time=0.6369672145833333
EXTRACT: note_on channel=0 note=63 velocity=80 time=0.3204782854166667
EXTRACT: note_on channel=0 note=63 velocity=0 time=0.6369672145833333
EXTRACT: note_on channel=0 note=61 velocity=80 time=0.0013297854166666667
EXTRACT: note_on channel=0 note=61 velocity=0 time=0.31781871458333333
EXTRACT: note_on channel=0 note=61 velocity=80 time=0.0013297854166666667
EXTRACT: note_on channel=0 note=61 velocity=0 time=0.31781871458333333
EXTRACT: note_on channel=0 note=59 velocity=80 time=0.0013297854166666667
EXTRACT: note_on channel=2 note=58 velocity=0 time=0.19015931458333332
EXTRACT: note_on channel=0 note=59 velocity=0 time=0.1276594
EXTRACT: note_on channel=4 note=54 velocity=0 time=0
EXTRACT: note_on channel=4 note=42 velocity=0 time=0
EXTRACT: note_on channel=0 note=59 velocity=80 time=0.0013297854166666667
EXTRACT: note_on channel=0 note=59 velocity=0 time=0.6369672145833333
EXTRACT: note_on channel=4 note=51 velocity=80 time=0.0013297854166666667
EXTRACT: note_on channel=4 note=39 velocity=80 time=0
EXTRACT: note_on channel=3 note=56 velocity=80 time=0.3191485
EXTRACT: note_on channel=1 note=68 velocity=80 time=0.3191485
EXTRACT: note_on channel=2 note=63 velocity=80 time=0
EXTRACT: note_on channel=2 note=63 velocity=0 time=0.30186128958333336
EXTRACT: note_on channel=1 note=68 velocity=0 time=0.015957425
EXTRACT: note_on channel=3 note=56 velocity=0 time=0
EXTRACT: note_on channel=4 note=51 velocity=0 time=0
EXTRACT: note_on channel=4 note=39 velocity=0 time=0
EXTRACT: note_on channel=4 note=52 velocity=80 time=0.0013297854166666667
EXTRACT: note_on channel=4 note=40 velocity=80 time=0
EXTRACT: note_on channel=3 note=56 velocity=80 time=0.3191485
EXTRACT: note_on channel=1 note=66 velocity=80 time=0.3191485
EXTRACT: note_on channel=2 note=59 velocity=80 time=0
EXTRACT: note_on channel=2 note=59 velocity=0 time=0.30186128958333336
EXTRACT: note_on channel=3 note=56 velocity=0 time=0.015957425
EXTRACT: note_on channel=4 note=52 velocity=0 time=0
EXTRACT: note_on channel=4 note=40 velocity=0 time=0
EXTRACT: note_on channel=2 note=58 velocity=80 time=0.0013297854166666667
EXTRACT: note_on channel=3 note=54 velocity=80 time=0
EXTRACT: note_on channel=4 note=54 velocity=80 time=0
EXTRACT: note_on channel=4 note=42 velocity=80 time=0
EXTRACT: note_on channel=1 note=66 velocity=0 time=0.6369672145833333
EXTRACT: note_on channel=3 note=54 velocity=0 time=0
EXTRACT: note_on channel=4 note=54 velocity=0 time=0
EXTRACT: note_on channel=4 note=42 velocity=0 time=0
EXTRACT: note_on channel=1 note=66 velocity=80 time=0.0013297854166666667
EXTRACT: note_on channel=3 note=54 velocity=80 time=0
EXTRACT: note_on channel=4 note=54 velocity=80 time=0
EXTRACT: note_on channel=4 note=42 velocity=80 time=0
EXTRACT: note_on channel=0 note=54 velocity=80 time=0.3191485
EXTRACT: note_on channel=0 note=54 velocity=0 time=0.6369672145833333
EXTRACT: note_on channel=0 note=66 velocity=80 time=0.0013297854166666667
EXTRACT: note_on channel=0 note=66 velocity=0 time=0.6369672145833333
EXTRACT: note_on channel=0 note=68 velocity=80 time=0.0013297854166666667
EXTRACT: note_on channel=2 note=58 velocity=0 time=0.19015931458333332
EXTRACT: note_on channel=1 note=66 velocity=0 time=0.1276594
EXTRACT: note_on channel=3 note=54 velocity=0 time=0
EXTRACT: note_on channel=4 note=54 velocity=0 time=0
EXTRACT: note_on channel=4 note=42 velocity=0 time=0
EXTRACT: note_on channel=0 note=68 velocity=0 time=0.3191485
EXTRACT: note_on channel=0 note=62 velocity=80 time=0.0013297854166666667
EXTRACT: note_on channel=0 note=62 velocity=0 time=0.06249991458333333
EXTRACT: note_on channel=0 note=63 velocity=80 time=0.0013297854166666667
EXTRACT: note_on channel=4 note=51 velocity=80 time=0.2553188
EXTRACT: note_on channel=4 note=39 velocity=80 time=0
EXTRACT: note_on channel=0 note=63 velocity=0 time=0.31648892916666665
EXTRACT: note_on channel=0 note=61 velocity=80 time=0.0026595708333333333
EXTRACT: note_on channel=3 note=56 velocity=80 time=0
EXTRACT: note_on channel=0 note=61 velocity=0 time=0.31781871458333333
EXTRACT: note_on channel=0 note=59 velocity=80 time=0.0013297854166666667
EXTRACT: note_on channel=1 note=68 velocity=80 time=0
EXTRACT: note_on channel=2 note=63 velocity=80 time=0
EXTRACT: note_on channel=2 note=63 velocity=0 time=0.30186128958333336
EXTRACT: note_on channel=0 note=59 velocity=0 time=0.015957425
EXTRACT: note_on channel=1 note=68 velocity=0 time=0
EXTRACT: note_on channel=3 note=56 velocity=0 time=0
EXTRACT: note_on channel=4 note=51 velocity=0 time=0
EXTRACT: note_on channel=4 note=39 velocity=0 time=0
EXTRACT: note_on channel=0 note=56 velocity=80 time=0.0013297854166666667
EXTRACT: note_on channel=4 note=52 velocity=80 time=0
EXTRACT: note_on channel=4 note=40 velocity=80 time=0
EXTRACT: note_on channel=3 note=56 velocity=80 time=0.3191485
EXTRACT: note_on channel=1 note=66 velocity=80 time=0.3191485
EXTRACT: note_on channel=2 note=59 velocity=80 time=0
EXTRACT: note_on channel=2 note=59 velocity=0 time=0.30186128958333336
EXTRACT: note_on channel=0 note=56 velocity=0 time=0.015957425
EXTRACT: note_on channel=3 note=56 velocity=0 time=0
EXTRACT: note_on channel=4 note=52 velocity=0 time=0
EXTRACT: note_on channel=4 note=40 velocity=0 time=0
EXTRACT: note_on channel=2 note=58 velocity=80 time=0.0013297854166666667
EXTRACT: note_on channel=4 note=54 velocity=80 time=0
EXTRACT: note_on channel=4 note=42 velocity=80 time=0
EXTRACT: note_on channel=4 note=54 velocity=0 time=0.6369672145833333
EXTRACT: note_on channel=4 note=42 velocity=0 time=0
EXTRACT: note_on channel=4 note=54 velocity=80 time=0.0013297854166666667
EXTRACT: note_on channel=4 note=42 velocity=80 time=0
EXTRACT: note_on channel=0 note=63 velocity=80 time=0.3191485
EXTRACT: note_on channel=2 note=58 velocity=0 time=0.8603711645833333
EXTRACT: note_on channel=0 note=63 velocity=0 time=0.09574455
EXTRACT: note_on channel=1 note=66 velocity=0 time=0
EXTRACT: note_on channel=4 note=54 velocity=0 time=0
EXTRACT: note_on channel=4 note=42 velocity=0 time=0
EXTRACT: note_on channel=0 note=61 velocity=80 time=0.0013297854166666667
EXTRACT: note_on channel=0 note=61 velocity=0 time=0.31781871458333333
EXTRACT: note_on channel=0 note=59 velocity=80 time=0.0013297854166666667
EXTRACT: note_on channel=0 note=59 velocity=0 time=0.31781871458333333
EXTRACT: note_on channel=0 note=58 velocity=80 time=0.0013297854166666667
EXTRACT: note_on channel=1 note=66 velocity=80 time=0
EXTRACT: note_on channel=1 note=66 velocity=0 time=0.12632961458333333
EXTRACT: note_on channel=1 note=67 velocity=80 time=0.0013297854166666667
EXTRACT: note_on channel=1 note=67 velocity=0 time=0.12632961458333333
EXTRACT: note_on channel=1 note=68 velocity=80 time=0.0013297854166666667
EXTRACT: note_on channel=0 note=58 velocity=0 time=0.06249991458333333
EXTRACT: note_on channel=0 note=59 velocity=80 time=0.0013297854166666667
EXTRACT: note_on channel=1 note=68 velocity=0 time=0.06249991458333333
EXTRACT: note_on channel=1 note=69 velocity=80 time=0.0013297854166666667
EXTRACT: note_on channel=1 note=69 velocity=0 time=0.12632961458333333
EXTRACT: note_on channel=1 note=70 velocity=80 time=0.0013297854166666667
EXTRACT: note_on channel=0 note=59 velocity=0 time=0.12632961458333333
EXTRACT: note_on channel=1 note=70 velocity=0 time=0
EXTRACT: note_on channel=1 note=71 velocity=80 time=0.0013297854166666667
EXTRACT: note_on channel=2 note=66 velocity=80 time=0
EXTRACT: note_on channel=4 note=47 velocity=80 time=0
EXTRACT: note_on channel=3 note=63 velocity=80 time=0.638297
EXTRACT: note_on channel=3 note=59 velocity=80 time=0
EXTRACT: note_on channel=3 note=63 velocity=0 time=0.47739296458333336
EXTRACT: note_on channel=3 note=59 velocity=0 time=0
EXTRACT: note_on channel=3 note=63 velocity=80 time=0.0013297854166666667
EXTRACT: note_on channel=3 note=59 velocity=80 time=0
EXTRACT: note_on channel=3 note=63 velocity=0 time=0.47739296458333336
EXTRACT: note_on channel=3 note=61 velocity=80 time=0.0013297854166666667
EXTRACT: note_on channel=3 note=61 velocity=0 time=0.6369672145833333
EXTRACT: note_on channel=3 note=63 velocity=80 time=0.0013297854166666667
EXTRACT: note_on channel=2 note=66 velocity=0 time=0.19015931458333332
EXTRACT: note_on channel=1 note=71 velocity=0 time=0.1276594
EXTRACT: note_on channel=3 note=59 velocity=0 time=0
EXTRACT: note_on channel=3 note=63 velocity=0 time=0
EXTRACT: note_on channel=4 note=47 velocity=0 time=0
EXTRACT: note_on channel=1 note=73 velocity=80 time=0.0013297854166666667
EXTRACT: note_on channel=2 note=66 velocity=80 time=0
EXTRACT: note_on channel=4 note=49 velocity=80 time=0
EXTRACT: note_on channel=4 note=46 velocity=80 time=0
EXTRACT: note_on channel=3 note=63 velocity=80 time=0.638297
EXTRACT: note_on channel=3 note=59 velocity=80 time=0
EXTRACT: note_on channel=3 note=63 velocity=0 time=0.47739296458333336
EXTRACT: note_on channel=3 note=59 velocity=0 time=0
EXTRACT: note_on channel=3 note=63 velocity=80 time=0.0013297854166666667
EXTRACT: note_on channel=3 note=59 velocity=80 time=0
EXTRACT: note_on channel=3 note=63 velocity=0 time=0.47739296458333336
EXTRACT: note_on channel=3 note=61 velocity=80 time=0.0013297854166666667
EXTRACT: note_on channel=2 note=66 velocity=0 time=0.22207416458333334
EXTRACT: note_on channel=1 note=73 velocity=0 time=0.09574455
EXTRACT: note_on channel=1 note=76 velocity=80 time=0.0013297854166666667
EXTRACT: note_on channel=2 note=70 velocity=80 time=0
EXTRACT: note_on channel=3 note=61 velocity=0 time=0.31781871458333333
EXTRACT: note_on channel=3 note=63 velocity=80 time=0.0013297854166666667
EXTRACT: note_on channel=2 note=70 velocity=0 time=0.28590386458333333
EXTRACT: note_on channel=1 note=76 velocity=0 time=0.03191485
EXTRACT: note_on channel=3 note=59 velocity=0 time=0
EXTRACT: note_on channel=3 note=63 velocity=0 time=0
EXTRACT: note_on channel=4 note=49 velocity=0 time=0
EXTRACT: note_on channel=4 note=46 velocity=0 time=0
EXTRACT: note_on channel=1 note=75 velocity=80 time=0.0013297854166666667
EXTRACT: note_on channel=2 note=71 velocity=80 time=0
EXTRACT: note_on channel=4 note=51 velocity=80 time=0
EXTRACT: note_on channel=4 note=44 velocity=80 time=0
EXTRACT: note_on channel=3 note=63 velocity=80 time=0.638297
EXTRACT: note_on channel=3 note=59 velocity=80 time=0
EXTRACT: note_on channel=3 note=63 velocity=0 time=0.47739296458333336
EXTRACT: note_on channel=3 note=59 velocity=0 time=0
EXTRACT: note_on channel=3 note=63 velocity=80 time=0.0013297854166666667
EXTRACT: note_on channel=3 note=59 velocity=80 time=0
EXTRACT: note_on channel=3 note=63 velocity=0 time=0.47739296458333336
EXTRACT: note_on channel=3 note=61 velocity=80 time=0.0013297854166666667
EXTRACT: note_on channel=3 note=61 velocity=0 time=0.6369672145833333
EXTRACT: note_on channel=3 note=63 velocity=80 time=0.0013297854166666667
EXTRACT: note_on channel=2 note=71 velocity=0 time=0.038563777083333334
EXTRACT: note_on channel=2 note=70 velocity=80 time=0.12101047291666667
EXTRACT: note_on channel=2 note=70 velocity=0 time=0.15026575208333334
EXTRACT: note_on channel=3 note=59 velocity=0 time=0.0079787125
EXTRACT: note_on channel=3 note=63 velocity=0 time=0
EXTRACT: note_on channel=4 note=51 velocity=0 time=0
EXTRACT: note_on channel=4 note=44 velocity=0 time=0
EXTRACT: note_on channel=2 note=68 velocity=80 time=0.0013297854166666667
EXTRACT: note_on channel=4 note=52 velocity=80 time=0
EXTRACT: note_on channel=4 note=40 velocity=80 time=0
EXTRACT: note_on channel=9 note=64 velocity=80 time=0.3191485
EXTRACT: note_on channel=9 note=64 velocity=0 time=0.31781871458333333
EXTRACT: note_on channel=9 note=66 velocity=80 time=0.0013297854166666667
EXTRACT: note_on channel=3 note=63 velocity=80 time=0
EXTRACT: note_on channel=3 note=59 velocity=80 time=0
EXTRACT: note_on channel=9 note=66 velocity=0 time=0.31781871458333333
EXTRACT: note_on channel=9 note=71 velocity=80 time=0.0013297854166666667
EXTRACT: note_on channel=3 note=63 velocity=0 time=0.15824446458333333
EXTRACT: note_on channel=3 note=59 velocity=0 time=0
EXTRACT: note_on channel=3 note=63 velocity=80 time=0.0013297854166666667
EXTRACT: note_on channel=3 note=59 velocity=80 time=0
EXTRACT: note_on channel=9 note=71 velocity=0 time=0.47739296458333336
EXTRACT: note_on channel=3 note=63 velocity=0 time=0
EXTRACT: note_on channel=9 note=73 velocity=80 time=0.0013297854166666667
EXTRACT: note_on channel=3 note=61 velocity=80 time=0
EXTRACT: note_on channel=9 note=73 velocity=0 time=0.6369672145833333
EXTRACT: note_on channel=3 note=61 velocity=0 time=0
EXTRACT: note_on channel=9 note=74 velocity=80 time=0.0013297854166666667
EXTRACT: note_on channel=3 note=63 velocity=80 time=0
EXTRACT: note_on channel=2 note=68 velocity=0 time=0.19015931458333332
EXTRACT: note_on channel=1 note=75 velocity=0 time=0.1276594
EXTRACT: note_on channel=3 note=59 velocity=0 time=0
EXTRACT: note_on channel=3 note=63 velocity=0 time=0
EXTRACT: note_on channel=4 note=52 velocity=0 time=0
EXTRACT: note_on channel=4 note=40 velocity=0 time=0
EXTRACT: note_on channel=1 note=71 velocity=80 time=0.0013297854166666667
EXTRACT: note_on channel=2 note=63 velocity=80 time=0
EXTRACT: note_on channel=4 note=47 velocity=80 time=0
EXTRACT: note_on channel=4 note=47 velocity=80 time=0
EXTRACT: note_on channel=3 note=63 velocity=80 time=0.638297
EXTRACT: note_on channel=3 note=59 velocity=80 time=0
EXTRACT: note_on channel=3 note=63 velocity=0 time=0.47739296458333336
EXTRACT: note_on channel=3 note=59 velocity=0 time=0
EXTRACT: note_on channel=3 note=63 velocity=80 time=0.0013297854166666667
EXTRACT: note_on channel=3 note=59 velocity=80 time=0
EXTRACT: note_on channel=1 note=71 velocity=0 time=0.15824446458333333
EXTRACT: note_on channel=1 note=66 velocity=80 time=0.0013297854166666667
EXTRACT: note_on channel=1 note=66 velocity=0 time=0.31781871458333333
EXTRACT: note_on channel=3 note=63 velocity=0 time=0
EXTRACT: note_on channel=1 note=71 velocity=80 time=0.0013297854166666667
EXTRACT: note_on channel=3 note=61 velocity=80 time=0
EXTRACT: note_on channel=3 note=61 velocity=0 time=0.6369672145833333
EXTRACT: note_on channel=3 note=63 velocity=80 time=0.0013297854166666667
EXTRACT: note_on channel=2 note=63 velocity=0 time=0.19015931458333332
EXTRACT: note_on channel=9 note=74 velocity=0 time=0.1276594
EXTRACT: note_on channel=1 note=71 velocity=0 time=0
EXTRACT: note_on channel=3 note=59 velocity=0 time=0
EXTRACT: note_on channel=3 note=63 velocity=0 time=0
EXTRACT: note_on channel=4 note=47 velocity=0 time=0
EXTRACT: note_on channel=4 note=47 velocity=0 time=0
EXTRACT: note_on channel=9 note=76 velocity=80 time=0.0013297854166666667
EXTRACT: note_on channel=1 note=73 velocity=80 time=0
EXTRACT: note_on channel=2 note=66 velocity=80 time=0
EXTRACT: note_on channel=4 note=49 velocity=80 time=0
EXTRACT: note_on channel=4 note=46 velocity=80 time=0
EXTRACT: note_on channel=3 note=63 velocity=80 time=0.638297
EXTRACT: note_on channel=3 note=59 velocity=80 time=0
EXTRACT: note_on channel=3 note=63 velocity=0 time=0.47739296458333336
EXTRACT: note_on channel=3 note=59 velocity=0 time=0
EXTRACT: note_on channel=3 note=63 velocity=80 time=0.0013297854166666667
EXTRACT: note_on channel=3 note=59 velocity=80 time=0
EXTRACT: note_on channel=2 note=66 velocity=0 time=0.09441476458333334
EXTRACT: note_on channel=2 note=66 velocity=80 time=0.06515948541666666
EXTRACT: note_on channel=2 note=66 velocity=0 time=0.30186128958333336
EXTRACT: note_on channel=3 note=63 velocity=0 time=0.015957425
EXTRACT: note_on channel=2 note=70 velocity=80 time=0.0013297854166666667
EXTRACT: note_on channel=3 note=61 velocity=80 time=0
EXTRACT: note_on channel=1 note=73 velocity=0 time=0.31781871458333333
EXTRACT: note_on channel=1 note=76 velocity=80 time=0.0013297854166666667
EXTRACT: note_on channel=2 note=70 velocity=0 time=0.28590386458333333
EXTRACT: note_on channel=3 note=61 velocity=0 time=0.03191485
EXTRACT: note_on channel=2 note=71 velocity=80 time=0.0013297854166666667
EXTRACT: note_on channel=3 note=63 velocity=80 time=0
EXTRACT: note_on channel=9 note=76 velocity=0 time=0.31781871458333333
EXTRACT: note_on channel=1 note=76 velocity=0 time=0
EXTRACT: note_on channel=3 note=59 velocity=0 time=0
EXTRACT: note_on channel=3 note=63 velocity=0 time=0
EXTRACT: note_on channel=4 note=49 velocity=0 time=0
EXTRACT: note_on channel=4 note=46 velocity=0 time=0
EXTRACT: note_on channel=9 note=78 velocity=80 time=0.0013297854166666667
EXTRACT: note_on channel=1 note=75 velocity=80 time=0
EXTRACT: note_on channel=4 note=51 velocity=80 time=0
EXTRACT: note_on channel=4 note=44 velocity=80 time=0
EXTRACT: note_on channel=3 note=63 velocity=80 time=0.638297
EXTRACT: note_on channel=3 note=59 velocity=80 time=0
EXTRACT: note_on channel=3 note=63 velocity=0 time=0.47739296458333336
EXTRACT: note_on channel=3 note=59 velocity=0 time=0
EXTRACT: note_on channel=3 note=63 velocity=80 time=0.0013297854166666667
EXTRACT: note_on channel=3 note=59 velocity=80 time=0
EXTRACT: note_on channel=3 note=63 velocity=0 time=0.47739296458333336
EXTRACT: note_on channel=3 note=61 velocity=80 time=0.0013297854166666667
EXTRACT: note_on channel=3 note=61 velocity=0 time=0.6369672145833333
EXTRACT: note_on channel=3 note=63 velocity=80 time=0.0013297854166666667
EXTRACT: note_on channel=2 note=71 velocity=0 time=0.022606352083333333
EXTRACT: note_on channel=2 note=70 velocity=80 time=0.13696789791666666
EXTRACT: note_on channel=2 note=70 velocity=0 time=0.15026575208333334
EXTRACT: note_on channel=1 note=75 velocity=0 time=0.0079787125
EXTRACT: note_on channel=3 note=59 velocity=0 time=0
EXTRACT: note_on channel=3 note=63 velocity=0 time=0
EXTRACT: note_on channel=4 note=51 velocity=0 time=0
EXTRACT: note_on channel=4 note=44 velocity=0 time=0
EXTRACT: note_on channel=1 note=78 velocity=80 time=0.0013297854166666667
EXTRACT: note_on channel=2 note=68 velocity=80 time=0
EXTRACT: note_on channel=4 note=52 velocity=80 time=0
EXTRACT: note_on channel=4 note=40 velocity=80 time=0
EXTRACT: note_on channel=9 note=64 velocity=80 time=0.3191485
EXTRACT: note_on channel=9 note=64 velocity=0 time=0.31781871458333333
EXTRACT: note_on channel=9 note=66 velocity=80 time=0.0013297854166666667
EXTRACT: note_on channel=3 note=63 velocity=80 time=0
EXTRACT: note_on channel=3 note=59 velocity=80 time=0
EXTRACT: note_on channel=9 note=66 velocity=0 time=0.31781871458333333
EXTRACT: note_on channel=9 note=71 velocity=80 time=0.0013297854166666667
EXTRACT: note_on channel=3 note=63 velocity=0 time=0.15824446458333333
EXTRACT: note_on channel=3 note=59 velocity=0 time=0
EXTRACT: note_on channel=3 note=63 velocity=80 time=0.0013297854166666667
EXTRACT: note_on channel=3 note=59 velocity=80 time=0
EXTRACT: note_on channel=9 note=71 velocity=0 time=0.47739296458333336
EXTRACT: note_on channel=3 note=63 velocity=0 time=0
EXTRACT: note_on channel=9 note=73 velocity=80 time=0.0013297854166666667
EXTRACT: note_on channel=3 note=61 velocity=80 time=0
EXTRACT: note_on channel=1 note=78 velocity=0 time=0.31781871458333333
EXTRACT: note_on channel=0 note=59 velocity=80 time=0.0013297854166666667
EXTRACT: note_on channel=0 note=59 velocity=0 time=0.15824446458333333
EXTRACT: note_on channel=0 note=61 velocity=80 time=0.0013297854166666667
EXTRACT: note_on channel=0 note=61 velocity=0 time=0.15824446458333333
EXTRACT: note_on channel=9 note=73 velocity=0 time=0
EXTRACT: note_on channel=3 note=61 velocity=0 time=0
EXTRACT: note_on channel=0 note=63 velocity=80 time=0.0013297854166666667
EXTRACT: note_on channel=9 note=75 velocity=80 time=0
EXTRACT: note_on channel=3 note=63 velocity=80 time=0
EXTRACT: note_on channel=0 note=63 velocity=0 time=0.15824446458333333
EXTRACT: note_on channel=0 note=63 velocity=80 time=0.0013297854166666667
EXTRACT: note_on channel=2 note=68 velocity=0 time=0.03058506458333333
EXTRACT: note_on channel=3 note=59 velocity=0 time=0.1276594
EXTRACT: note_on channel=3 note=63 velocity=0 time=0
EXTRACT: note_on channel=4 note=52 velocity=0 time=0
EXTRACT: note_on channel=4 note=40 velocity=0 time=0
EXTRACT: note_on channel=4 note=47 velocity=80 time=0.0013297854166666667
EXTRACT: note_on channel=0 note=63 velocity=0 time=0.31781871458333333
EXTRACT: note_on channel=0 note=61 velocity=80 time=0.0013297854166666667
EXTRACT: note_on channel=9 note=75 velocity=0 time=0.31781871458333333
EXTRACT: note_on channel=2 note=66 velocity=80 time=0.0013297854166666667
EXTRACT: note_on channel=3 note=59 velocity=80 time=0
EXTRACT: note_on channel=3 note=51 velocity=80 time=0
EXTRACT: note_on channel=0 note=61 velocity=0 time=0.31781871458333333
EXTRACT: note_on channel=0 note=66 velocity=80 time=0.0013297854166666667
EXTRACT: note_on channel=2 note=66 velocity=0 time=0.13430832708333335
EXTRACT: note_on channel=3 note=59 velocity=0 time=0.0239361375
EXTRACT: note_on channel=2 note=66 velocity=80 time=0.0013297854166666667
EXTRACT: note_on channel=3 note=59 velocity=80 time=0
EXTRACT: note_on channel=2 note=66 velocity=0 time=0.30186128958333336
EXTRACT: note_on channel=3 note=59 velocity=0 time=0.015957425
EXTRACT: note_on channel=2 note=66 velocity=80 time=0.0013297854166666667
EXTRACT: note_on channel=3 note=59 velocity=80 time=0
EXTRACT: note_on channel=2 note=66 velocity=0 time=0.15026575208333334
EXTRACT: note_on channel=0 note=66 velocity=0 time=0.0079787125
EXTRACT: note_on channel=3 note=51 velocity=0 time=0
EXTRACT: note_on channel=3 note=59 velocity=0 time=0
EXTRACT: note_on channel=0 note=61 velocity=80 time=0.0013297854166666667
EXTRACT: note_on channel=2 note=66 velocity=80 time=0
EXTRACT: note_on channel=3 note=59 velocity=80 time=0
EXTRACT: note_on channel=3 note=51 velocity=80 time=0
EXTRACT: note_on channel=2 note=66 velocity=0 time=0.30186128958333336
EXTRACT: note_on channel=3 note=59 velocity=0 time=0.015957425
EXTRACT: note_on channel=2 note=66 velocity=80 time=0.0013297854166666667
EXTRACT: note_on channel=3 note=59 velocity=80 time=0
EXTRACT: note_on channel=2 note=66 velocity=0 time=0.30186128958333336
EXTRACT: note_on channel=0 note=61 velocity=0 time=0.015957425
EXTRACT: note_on channel=3 note=51 velocity=0 time=0
EXTRACT: note_on channel=3 note=59 velocity=0 time=0
EXTRACT: note_on channel=0 note=59 velocity=80 time=0.0013297854166666667
EXTRACT: note_on channel=2 note=66 velocity=80 time=0
EXTRACT: note_on channel=3 note=59 velocity=80 time=0
EXTRACT: note_on channel=3 note=51 velocity=80 time=0
EXTRACT: note_on channel=2 note=66 velocity=0 time=0.15026575208333334
EXTRACT: note_on channel=3 note=59 velocity=0 time=0.0079787125
EXTRACT: note_on channel=2 note=66 velocity=80 time=0.0013297854166666667
EXTRACT: note_on channel=3 note=59 velocity=80 time=0
EXTRACT: note_on channel=2 note=66 velocity=0 time=0.15026575208333334
EXTRACT: note_on channel=9 note=78 velocity=0 time=0.0079787125
EXTRACT: note_on channel=3 note=51 velocity=0 time=0
EXTRACT: note_on channel=3 note=59 velocity=0 time=0
EXTRACT: note_on channel=4 note=47 velocity=0 time=0
EXTRACT: note_on channel=3 note=49 velocity=80 time=0.0013297854166666667
EXTRACT: note_on channel=4 note=46 velocity=80 time=0
EXTRACT: note_on channel=0 note=59 velocity=0 time=0.6369672145833333
EXTRACT: note_on channel=2 note=66 velocity=80 time=0.0013297854166666667
EXTRACT: note_on channel=3 note=59 velocity=80 time=0
EXTRACT: note_on channel=2 note=66 velocity=0 time=0.45345682708333335
EXTRACT: note_on channel=3 note=59 velocity=0 time=0.0239361375
EXTRACT: note_on channel=2 note=66 velocity=80 time=0.0013297854166666667
EXTRACT: note_on channel=3 note=59 velocity=80 time=0
EXTRACT: note_on channel=2 note=66 velocity=0 time=0.30186128958333336
EXTRACT: note_on channel=3 note=59 velocity=0 time=0.015957425
EXTRACT: note_on channel=2 note=66 velocity=80 time=0.0013297854166666667
EXTRACT: note_on channel=3 note=59 velocity=80 time=0
EXTRACT: note_on channel=2 note=66 velocity=0 time=0.15026575208333334
EXTRACT: note_on channel=3 note=59 velocity=0 time=0.0079787125
EXTRACT: note_on channel=2 note=66 velocity=80 time=0.0013297854166666667
EXTRACT: note_on channel=3 note=59 velocity=80 time=0
EXTRACT: note_on channel=2 note=66 velocity=0 time=0.30186128958333336
EXTRACT: note_on channel=3 note=49 velocity=0 time=0.015957425
EXTRACT: note_on channel=3 note=59 velocity=0 time=0
EXTRACT: note_on channel=0 note=59 velocity=80 time=0.0013297854166666667
EXTRACT: note_on channel=2 note=66 velocity=80 time=0
EXTRACT: note_on channel=3 note=59 velocity=80 time=0
EXTRACT: note_on channel=3 note=49 velocity=80 time=0
EXTRACT: note_on channel=0 note=59 velocity=0 time=0.15824446458333333
EXTRACT: note_on channel=0 note=61 velocity=80 time=0.0013297854166666667
EXTRACT: note_on channel=2 note=66 velocity=0 time=0.14228703958333333
EXTRACT: note_on channel=0 note=61 velocity=0 time=0.015957425
EXTRACT: note_on channel=3 note=59 velocity=0 time=0
EXTRACT: note_on channel=3 note=49 velocity=0 time=0
EXTRACT: note_on channel=0 note=63 velocity=80 time=0.0013297854166666667
EXTRACT: note_on channel=2 note=66 velocity=80 time=0
EXTRACT: note_on channel=3 note=59 velocity=80 time=0
EXTRACT: note_on channel=3 note=49 velocity=80 time=0
EXTRACT: note_on channel=2 note=66 velocity=0 time=0.15026575208333334
EXTRACT: note_on channel=0 note=63 velocity=0 time=0.0079787125
EXTRACT: note_on channel=3 note=59 velocity=0 time=0
EXTRACT: note_on channel=3 note=49 velocity=0 time=0
EXTRACT: note_on channel=0 note=63 velocity=80 time=0.0013297854166666667
EXTRACT: note_on channel=2 note=66 velocity=80 time=0
EXTRACT: note_on channel=3 note=59 velocity=80 time=0
EXTRACT: note_on channel=3 note=49 velocity=80 time=0
EXTRACT: note_on channel=2 note=66 velocity=0 time=0.15026575208333334
EXTRACT: note_on channel=3 note=59 velocity=0 time=0.0079787125
EXTRACT: note_on channel=3 note=49 velocity=0 time=0
EXTRACT: note_on channel=4 note=46 velocity=0 time=0
EXTRACT: note_on channel=3 note=51 velocity=80 time=0.0013297854166666667
EXTRACT: note_on channel=4 note=44 velocity=80 time=0
EXTRACT: note_on channel=0 note=63 velocity=0 time=0.31781871458333333
EXTRACT: note_on channel=0 note=61 velocity=80 time=0.0013297854166666667
EXTRACT: note_on channel=2 note=63 velocity=80 time=0.3191485
EXTRACT: note_on channel=3 note=59 velocity=80 time=0
EXTRACT: note_on channel=0 note=61 velocity=0 time=0.31781871458333333
EXTRACT: note_on channel=0 note=66 velocity=80 time=0.0013297854166666667
EXTRACT: note_on channel=2 note=63 velocity=0 time=0.13430832708333335
EXTRACT: note_on channel=3 note=59 velocity=0 time=0.0239361375
EXTRACT: note_on channel=2 note=63 velocity=80 time=0.0013297854166666667
EXTRACT: note_on channel=3 note=59 velocity=80 time=0
EXTRACT: note_on channel=3 note=51 velocity=0 time=0.15824446458333333
EXTRACT: note_on channel=2 note=63 velocity=0 time=0.143616825
EXTRACT: note_on channel=3 note=59 velocity=0 time=0.015957425
EXTRACT: note_on channel=2 note=63 velocity=80 time=0.0013297854166666667
EXTRACT: note_on channel=3 note=59 velocity=80 time=0
EXTRACT: note_on channel=2 note=63 velocity=0 time=0.15026575208333334
EXTRACT: note_on channel=0 note=66 velocity=0 time=0.0079787125
EXTRACT: note_on channel=3 note=59 velocity=0 time=0
EXTRACT: note_on channel=0 note=61 velocity=80 time=0.0013297854166666667
EXTRACT: note_on channel=2 note=63 velocity=80 time=0
EXTRACT: note_on channel=3 note=59 velocity=80 time=0
EXTRACT: note_on channel=2 note=63 velocity=0 time=0.30186128958333336
EXTRACT: note_on channel=3 note=59 velocity=0 time=0.015957425
EXTRACT: note_on channel=2 note=63 velocity=80 time=0.0013297854166666667
EXTRACT: note_on channel=3 note=59 velocity=80 time=0
EXTRACT: note_on channel=3 note=51 velocity=80 time=0
EXTRACT: note_on channel=2 note=63 velocity=0 time=0.30186128958333336
EXTRACT: note_on channel=0 note=61 velocity=0 time=0.015957425
EXTRACT: note_on channel=3 note=59 velocity=0 time=0
EXTRACT: note_on channel=3 note=51 velocity=0 time=0
EXTRACT: note_on channel=0 note=59 velocity=80 time=0.0013297854166666667
EXTRACT: note_on channel=2 note=63 velocity=80 time=0
EXTRACT: note_on channel=3 note=59 velocity=80 time=0
EXTRACT: note_on channel=3 note=51 velocity=80 time=0
EXTRACT: note_on channel=2 note=63 velocity=0 time=0.15026575208333334
EXTRACT: note_on channel=3 note=59 velocity=0 time=0.0079787125
EXTRACT: note_on channel=3 note=51 velocity=0 time=0
EXTRACT: note_on channel=2 note=63 velocity=80 time=0.0013297854166666667
EXTRACT: note_on channel=3 note=59 velocity=80 time=0
EXTRACT: note_on channel=3 note=51 velocity=80 time=0
EXTRACT: note_on channel=2 note=63 velocity=0 time=0.15026575208333334
EXTRACT: note_on channel=3 note=59 velocity=0 time=0.0079787125
EXTRACT: note_on channel=3 note=51 velocity=0 time=0
EXTRACT: note_on channel=4 note=44 velocity=0 time=0
EXTRACT: note_on channel=4 note=52 velocity=80 time=0.0013297854166666667
EXTRACT: note_on channel=0 note=59 velocity=0 time=0.6369672145833333
EXTRACT: note_on channel=2 note=63 velocity=80 time=0.0013297854166666667
EXTRACT: note_on channel=3 note=59 velocity=80 time=0
EXTRACT: note_on channel=3 note=56 velocity=80 time=0
EXTRACT: note_on channel=2 note=63 velocity=0 time=0.45345682708333335
EXTRACT: note_on channel=3 note=59 velocity=0 time=0.0239361375
EXTRACT: note_on channel=2 note=63 velocity=80 time=0.0013297854166666667
EXTRACT: note_on channel=3 note=59 velocity=80 time=0
EXTRACT: note_on channel=2 note=63 velocity=0 time=0.45345682708333335
EXTRACT: note_on channel=3 note=56 velocity=0 time=0.0239361375
EXTRACT: note_on channel=3 note=59 velocity=0 time=0
EXTRACT: note_on channel=2 note=63 velocity=80 time=0.0013297854166666667
EXTRACT: note_on channel=3 note=59 velocity=80 time=0
EXTRACT: note_on channel=3 note=54 velocity=80 time=0
EXTRACT: note_on channel=3 note=54 velocity=0 time=0.15824446458333333
EXTRACT: note_on channel=3 note=56 velocity=80 time=0.0013297854166666667
EXTRACT: note_on channel=2 note=63 velocity=0 time=0.14228703958333333
EXTRACT: note_on channel=0 note=59 velocity=80 time=0.017287210416666667
EXTRACT: note_on channel=2 note=63 velocity=80 time=0
EXTRACT: note_on channel=2 note=63 velocity=0 time=0.15026575208333334
EXTRACT: note_on channel=0 note=59 velocity=0 time=0.0079787125
EXTRACT: note_on channel=3 note=59 velocity=0 time=0
EXTRACT: note_on channel=0 note=61 velocity=80 time=0.0013297854166666667
EXTRACT: note_on channel=2 note=63 velocity=80 time=0
EXTRACT: note_on channel=3 note=59 velocity=80 time=0
EXTRACT: note_on channel=2 note=63 velocity=0 time=0.15026575208333334
EXTRACT: note_on channel=0 note=61 velocity=0 time=0.0079787125
EXTRACT: note_on channel=3 note=56 velocity=0 time=0
EXTRACT: note_on channel=3 note=59 velocity=0 time=0
EXTRACT: note_on channel=0 note=63 velocity=80 time=0.0013297854166666667
EXTRACT: note_on channel=2 note=63 velocity=80 time=0
EXTRACT: note_on channel=3 note=59 velocity=80 time=0
EXTRACT: note_on channel=3 note=54 velocity=80 time=0
EXTRACT: note_on channel=2 note=63 velocity=0 time=0.15026575208333334
EXTRACT: note_on channel=0 note=63 velocity=0 time=0.0079787125
EXTRACT: note_on channel=3 note=59 velocity=0 time=0
EXTRACT: note_on channel=0 note=63 velocity=80 time=0.0013297854166666667
EXTRACT: note_on channel=2 note=63 velocity=80 time=0
EXTRACT: note_on channel=3 note=59 velocity=80 time=0
EXTRACT: note_on channel=2 note=63 velocity=0 time=0.15026575208333334
EXTRACT: note_on channel=3 note=54 velocity=0 time=0.0079787125
EXTRACT: note_on channel=3 note=59 velocity=0 time=0
EXTRACT: note_on channel=4 note=52 velocity=0 time=0
EXTRACT: note_on channel=4 note=47 velocity=80 time=0.0013297854166666667
EXTRACT: note_on channel=0 note=63 velocity=0 time=0.31781871458333333
EXTRACT: note_on channel=0 note=61 velocity=80 time=0.0013297854166666667
EXTRACT: note_on channel=2 note=66 velocity=80 time=0.3191485
EXTRACT: note_on channel=3 note=59 velocity=80 time=0
EXTRACT: note_on channel=3 note=51 velocity=80 time=0
EXTRACT: note_on channel=0 note=61 velocity=0 time=0.31781871458333333
EXTRACT: note_on channel=0 note=66 velocity=80 time=0.0013297854166666667
EXTRACT: note_on channel=2 note=66 velocity=0 time=0.13430832708333335
EXTRACT: note_on channel=3 note=59 velocity=0 time=0.0239361375
EXTRACT: note_on channel=2 note=66 velocity=80 time=0.0013297854166666667
EXTRACT: note_on channel=3 note=59 velocity=80 time=0
EXTRACT: note_on channel=3 note=59 velocity=0 time=0.31781871458333333
EXTRACT: note_on channel=3 note=59 velocity=80 time=0.0013297854166666667
EXTRACT: note_on channel=2 note=66 velocity=0 time=0.13430832708333335
EXTRACT: note_on channel=0 note=66 velocity=0 time=0.0239361375
EXTRACT: note_on channel=3 note=51 velocity=0 time=0
EXTRACT: note_on channel=3 note=59 velocity=0 time=0
EXTRACT: note_on channel=0 note=61 velocity=80 time=0.0013297854166666667
EXTRACT: note_on channel=2 note=66 velocity=80 time=0
EXTRACT: note_on channel=3 note=59 velocity=80 time=0
EXTRACT: note_on channel=3 note=51 velocity=80 time=0
EXTRACT: note_on channel=2 note=66 velocity=0 time=0.30186128958333336
EXTRACT: note_on channel=3 note=59 velocity=0 time=0.015957425
EXTRACT: note_on channel=2 note=66 velocity=80 time=0.0013297854166666667
EXTRACT: note_on channel=3 note=59 velocity=80 time=0
EXTRACT: note_on channel=2 note=66 velocity=0 time=0.15026575208333334
EXTRACT: note_on channel=2 note=66 velocity=80 time=0.009308497916666667
EXTRACT: note_on channel=2 note=66 velocity=0 time=0.15026575208333334
EXTRACT: note_on channel=0 note=61 velocity=0 time=0.0079787125
EXTRACT: note_on channel=3 note=51 velocity=0 time=0
EXTRACT: note_on channel=3 note=59 velocity=0 time=0
EXTRACT: note_on channel=0 note=61 velocity=80 time=0.0013297854166666667
EXTRACT: note_on channel=2 note=66 velocity=80 time=0
EXTRACT: note_on channel=3 note=59 velocity=80 time=0
EXTRACT: note_on channel=3 note=51 velocity=80 time=0
EXTRACT: note_on channel=2 note=66 velocity=0 time=0.15026575208333334
EXTRACT: note_on channel=3 note=59 velocity=0 time=0.0079787125
EXTRACT: note_on channel=2 note=66 velocity=80 time=0.0013297854166666667
EXTRACT: note_on channel=3 note=59 velocity=80 time=0
EXTRACT: note_on channel=2 note=66 velocity=0 time=0.15026575208333334
EXTRACT: note_on channel=3 note=51 velocity=0 time=0.0079787125
EXTRACT: note_on channel=3 note=59 velocity=0 time=0
EXTRACT: note_on channel=4 note=47 velocity=0 time=0
EXTRACT: note_on channel=3 note=49 velocity=80 time=0.0013297854166666667
EXTRACT: note_on channel=4 note=46 velocity=80 time=0
EXTRACT: note_on channel=0 note=61 velocity=0 time=0.6369672145833333
EXTRACT: note_on channel=2 note=66 velocity=80 time=0.0013297854166666667
EXTRACT: note_on channel=3 note=59 velocity=80 time=0
EXTRACT: note_on channel=2 note=66 velocity=0 time=0.45345682708333335
EXTRACT: note_on channel=3 note=59 velocity=0 time=0.0239361375
EXTRACT: note_on channel=2 note=66 velocity=80 time=0.0013297854166666667
EXTRACT: note_on channel=3 note=59 velocity=80 time=0
EXTRACT: note_on channel=3 note=59 velocity=0 time=0.31781871458333333
EXTRACT: note_on channel=3 note=59 velocity=80 time=0.0013297854166666667
EXTRACT: note_on channel=2 note=66 velocity=0 time=0.13430832708333335
EXTRACT: note_on channel=3 note=59 velocity=0 time=0.0239361375
EXTRACT: note_on channel=2 note=66 velocity=80 time=0.0013297854166666667
EXTRACT: note_on channel=3 note=59 velocity=80 time=0
EXTRACT: note_on channel=2 note=66 velocity=0 time=0.30186128958333336
EXTRACT: note_on channel=3 note=49 velocity=0 time=0.015957425
EXTRACT: note_on channel=3 note=59 velocity=0 time=0
EXTRACT: note_on channel=0 note=52 velocity=80 time=0.0013297854166666667
EXTRACT: note_on channel=2 note=66 velocity=80 time=0
EXTRACT: note_on channel=3 note=59 velocity=80 time=0
EXTRACT: note_on channel=3 note=49 velocity=80 time=0
EXTRACT: note_on channel=2 note=66 velocity=0 time=0.15026575208333334
EXTRACT: note_on channel=2 note=66 velocity=80 time=0.009308497916666667
EXTRACT: note_on channel=2 note=66 velocity=0 time=0.15026575208333334
EXTRACT: note_on channel=0 note=52 velocity=0 time=0.0079787125
EXTRACT: note_on channel=3 note=59 velocity=0 time=0
EXTRACT: note_on channel=3 note=49 velocity=0 time=0
EXTRACT: note_on channel=0 note=59 velocity=80 time=0.0013297854166666667
EXTRACT: note_on channel=2 note=66 velocity=80 time=0
EXTRACT: note_on channel=3 note=59 velocity=80 time=0
EXTRACT: note_on channel=3 note=49 velocity=80 time=0
EXTRACT: note_on channel=2 note=66 velocity=0 time=0.15026575208333334
EXTRACT: note_on channel=3 note=59 velocity=0 time=0.0079787125
EXTRACT: note_on channel=3 note=49 velocity=0 time=0
EXTRACT: note_on channel=2 note=66 velocity=80 time=0.0013297854166666667
EXTRACT: note_on channel=3 note=59 velocity=80 time=0
EXTRACT: note_on channel=3 note=49 velocity=80 time=0
EXTRACT: note_on channel=2 note=66 velocity=0 time=0.15026575208333334
EXTRACT: note_on channel=3 note=59 velocity=0 time=0.0079787125
EXTRACT: note_on channel=3 note=49 velocity=0 time=0
EXTRACT: note_on channel=4 note=46 velocity=0 time=0
EXTRACT: note_on channel=3 note=51 velocity=80 time=0.0013297854166666667
EXTRACT: note_on channel=4 note=44 velocity=80 time=0
EXTRACT: note_on channel=0 note=59 velocity=0 time=0.31781871458333333
EXTRACT: note_on channel=0 note=61 velocity=80 time=0.0013297854166666667
EXTRACT: note_on channel=2 note=66 velocity=80 time=0.3191485
EXTRACT: note_on channel=2 note=63 velocity=80 time=0
EXTRACT: note_on channel=3 note=59 velocity=80 time=0
EXTRACT: note_on channel=0 note=61 velocity=0 time=0.31781871458333333
EXTRACT: note_on channel=0 note=59 velocity=80 time=0.0013297854166666667
EXTRACT: note_on channel=2 note=66 velocity=0 time=0.13430832708333335
EXTRACT: note_on channel=2 note=63 velocity=0 time=0
EXTRACT: note_on channel=3 note=59 velocity=0 time=0.0239361375
EXTRACT: note_on channel=2 note=66 velocity=80 time=0.0013297854166666667
EXTRACT: note_on channel=2 note=63 velocity=80 time=0
EXTRACT: note_on channel=3 note=59 velocity=80 time=0
EXTRACT: note_on channel=3 note=51 velocity=0 time=0.15824446458333333
EXTRACT: note_on channel=3 note=59 velocity=0 time=0.15957425
EXTRACT: note_on channel=3 note=59 velocity=80 time=0.0013297854166666667
EXTRACT: note_on channel=2 note=66 velocity=0 time=0.13430832708333335
EXTRACT: note_on channel=2 note=63 velocity=0 time=0
EXTRACT: note_on channel=3 note=59 velocity=0 time=0.0239361375
EXTRACT: note_on channel=2 note=66 velocity=80 time=0.0013297854166666667
EXTRACT: note_on channel=2 note=63 velocity=80 time=0
EXTRACT: note_on channel=3 note=59 velocity=80 time=0
EXTRACT: note_on channel=2 note=66 velocity=0 time=0.30186128958333336
EXTRACT: note_on channel=2 note=63 velocity=0 time=0
EXTRACT: note_on channel=0 note=59 velocity=0 time=0.015957425
EXTRACT: note_on channel=3 note=59 velocity=0 time=0
EXTRACT: note_on channel=2 note=66 velocity=80 time=0.0013297854166666667
EXTRACT: note_on channel=2 note=63 velocity=80 time=0
EXTRACT: note_on channel=3 note=59 velocity=80 time=0
EXTRACT: note_on channel=3 note=51 velocity=80 time=0
EXTRACT: note_on channel=2 note=66 velocity=0 time=0.15026575208333334
EXTRACT: note_on channel=2 note=63 velocity=0 time=0
EXTRACT: note_on channel=2 note=66 velocity=80 time=0.009308497916666667
EXTRACT: note_on channel=2 note=63 velocity=80 time=0
EXTRACT: note_on channel=2 note=66 velocity=0 time=0.15026575208333334
EXTRACT: note_on channel=2 note=63 velocity=0 time=0
EXTRACT: note_on channel=3 note=59 velocity=0 time=0.0079787125
EXTRACT: note_on channel=3 note=51 velocity=0 time=0
EXTRACT: note_on channel=0 note=63 velocity=80 time=0.0013297854166666667
EXTRACT: note_on channel=2 note=66 velocity=80 time=0
EXTRACT: note_on channel=2 note=63 velocity=80 time=0
EXTRACT: note_on channel=3 note=59 velocity=80 time=0
EXTRACT: note_on channel=3 note=51 velocity=80 time=0
EXTRACT: note_on channel=2 note=66 velocity=0 time=0.15026575208333334
EXTRACT: note_on channel=2 note=63 velocity=0 time=0
EXTRACT: note_on channel=3 note=59 velocity=0 time=0.0079787125
EXTRACT: note_on channel=3 note=51 velocity=0 time=0
EXTRACT: note_on channel=2 note=66 velocity=80 time=0.0013297854166666667
EXTRACT: note_on channel=2 note=63 velocity=80 time=0
EXTRACT: note_on channel=3 note=59 velocity=80 time=0
EXTRACT: note_on channel=3 note=51 velocity=80 time=0
EXTRACT: note_on channel=2 note=66 velocity=0 time=0.15026575208333334
EXTRACT: note_on channel=2 note=63 velocity=0 time=0
EXTRACT: note_on channel=3 note=59 velocity=0 time=0.0079787125
EXTRACT: note_on channel=3 note=51 velocity=0 time=0
EXTRACT: note_on channel=4 note=44 velocity=0 time=0
EXTRACT: note_on channel=4 note=52 velocity=80 time=0.0013297854166666667
EXTRACT: note_on channel=0 note=63 velocity=0 time=0.31781871458333333
EXTRACT: note_on channel=0 note=61 velocity=80 time=0.0013297854166666667
EXTRACT: note_on channel=2 note=66 velocity=80 time=0.3191485
EXTRACT: note_on channel=2 note=63 velocity=80 time=0
EXTRACT: note_on channel=3 note=59 velocity=80 time=0
EXTRACT: note_on channel=3 note=56 velocity=80 time=0
EXTRACT: note_on channel=0 note=61 velocity=0 time=0.31781871458333333
EXTRACT: note_on channel=4 note=52 velocity=0 time=0
EXTRACT: note_on channel=0 note=59 velocity=80 time=0.0013297854166666667
EXTRACT: note_on channel=4 note=52 velocity=80 time=0
EXTRACT: note_on channel=2 note=66 velocity=0 time=0.13430832708333335
EXTRACT: note_on channel=2 note=63 velocity=0 time=0
EXTRACT: note_on channel=3 note=59 velocity=0 time=0.0239361375
EXTRACT: note_on channel=2 note=66 velocity=80 time=0.0013297854166666667
EXTRACT: note_on channel=2 note=63 velocity=80 time=0
EXTRACT: note_on channel=3 note=59 velocity=80 time=0
EXTRACT: note_on channel=4 note=52 velocity=0 time=0.15824446458333333
EXTRACT: note_on channel=4 note=51 velocity=80 time=0.0013297854166666667
EXTRACT: note_on channel=2 note=66 velocity=0 time=0.2938825770833333
EXTRACT: note_on channel=2 note=63 velocity=0 time=0
EXTRACT: note_on channel=3 note=56 velocity=0 time=0.0239361375
EXTRACT: note_on channel=3 note=59 velocity=0 time=0
EXTRACT: note_on channel=2 note=66 velocity=80 time=0.0013297854166666667
EXTRACT: note_on channel=2 note=63 velocity=80 time=0
EXTRACT: note_on channel=3 note=59 velocity=80 time=0
EXTRACT: note_on channel=3 note=54 velocity=80 time=0
EXTRACT: note_on channel=3 note=54 velocity=0 time=0.15824446458333333
EXTRACT: note_on channel=3 note=56 velocity=80 time=0.0013297854166666667
EXTRACT: note_on channel=2 note=66 velocity=0 time=0.14228703958333333
EXTRACT: note_on channel=2 note=63 velocity=0 time=0
EXTRACT: note_on channel=0 note=59 velocity=0 time=0.015957425
EXTRACT: note_on channel=2 note=66 velocity=80 time=0.0013297854166666667
EXTRACT: note_on channel=2 note=63 velocity=80 time=0
EXTRACT: note_on channel=2 note=66 velocity=0 time=0.15026575208333334
EXTRACT: note_on channel=2 note=63 velocity=0 time=0
EXTRACT: note_on channel=3 note=59 velocity=0 time=0.0079787125
EXTRACT: note_on channel=2 note=66 velocity=80 time=0.0013297854166666667
EXTRACT: note_on channel=2 note=63 velocity=80 time=0
EXTRACT: note_on channel=3 note=59 velocity=80 time=0
EXTRACT: note_on channel=2 note=66 velocity=0 time=0.15026575208333334
EXTRACT: note_on channel=2 note=63 velocity=0 time=0
EXTRACT: note_on channel=3 note=56 velocity=0 time=0.0079787125
EXTRACT: note_on channel=3 note=59 velocity=0 time=0
EXTRACT: note_on channel=0 note=58 velocity=80 time=0.0013297854166666667
EXTRACT: note_on channel=2 note=66 velocity=80 time=0
EXTRACT: note_on channel=2 note=63 velocity=80 time=0
EXTRACT: note_on channel=3 note=59 velocity=80 time=0
EXTRACT: note_on channel=3 note=54 velocity=80 time=0
EXTRACT: note_on channel=2 note=66 velocity=0 time=0.15026575208333334
EXTRACT: note_on channel=2 note=63 velocity=0 time=0
EXTRACT: note_on channel=0 note=58 velocity=0 time=0.0079787125
EXTRACT: note_on channel=3 note=59 velocity=0 time=0
EXTRACT: note_on channel=0 note=59 velocity=80 time=0.0013297854166666667
EXTRACT: note_on channel=2 note=66 velocity=80 time=0
EXTRACT: note_on channel=2 note=63 velocity=80 time=0
EXTRACT: note_on channel=3 note=59 velocity=80 time=0
EXTRACT: note_on channel=2 note=66 velocity=0 time=0.15026575208333334
EXTRACT: note_on channel=2 note=63 velocity=0 time=0
EXTRACT: note_on channel=0 note=59 velocity=0 time=0.0079787125
EXTRACT: note_on channel=3 note=54 velocity=0 time=0
EXTRACT: note_on channel=3 note=59 velocity=0 time=0
EXTRACT: note_on channel=4 note=51 velocity=0 time=0
EXTRACT: note_on channel=1 note=75 velocity=80 time=0.0013297854166666667
EXTRACT: note_on channel=4 note=47 velocity=80 time=0
EXTRACT: note_on channel=9 note=63 velocity=80 time=0.638297
EXTRACT: note_on channel=9 note=59 velocity=80 time=0
EXTRACT: note_on channel=2 note=66 velocity=80 time=0
EXTRACT: note_on channel=3 note=59 velocity=80 time=0
EXTRACT: note_on channel=3 note=51 velocity=80 time=0
EXTRACT: note_on channel=2 note=66 velocity=0 time=0.45345682708333335
EXTRACT: note_on channel=9 note=63 velocity=0 time=0.0239361375
EXTRACT: note_on channel=9 note=59 velocity=0 time=0
EXTRACT: note_on channel=3 note=59 velocity=0 time=0
EXTRACT: note_on channel=9 note=63 velocity=80 time=0.0013297854166666667
EXTRACT: note_on channel=9 note=59 velocity=80 time=0
EXTRACT: note_on channel=2 note=66 velocity=80 time=0
EXTRACT: note_on channel=3 note=59 velocity=80 time=0
EXTRACT: note_on channel=9 note=59 velocity=0 time=0.15824446458333333
EXTRACT: note_on channel=9 note=59 velocity=80 time=0.0013297854166666667
EXTRACT: note_on channel=2 note=66 velocity=0 time=0.14228703958333333
EXTRACT: note_on channel=3 note=59 velocity=0 time=0.015957425
EXTRACT: note_on channel=2 note=66 velocity=80 time=0.0013297854166666667
EXTRACT: note_on channel=3 note=59 velocity=80 time=0
EXTRACT: note_on channel=2 note=66 velocity=0 time=0.15026575208333334
EXTRACT: note_on channel=9 note=63 velocity=0 time=0.0079787125
EXTRACT: note_on channel=3 note=51 velocity=0 time=0
EXTRACT: note_on channel=3 note=59 velocity=0 time=0
EXTRACT: note_on channel=9 note=61 velocity=80 time=0.0013297854166666667
EXTRACT: note_on channel=2 note=66 velocity=80 time=0
EXTRACT: note_on channel=3 note=59 velocity=80 time=0
EXTRACT: note_on channel=3 note=51 velocity=80 time=0
EXTRACT: note_on channel=2 note=66 velocity=0 time=0.30186128958333336
EXTRACT: note_on channel=3 note=59 velocity=0 time=0.015957425
EXTRACT: note_on channel=2 note=66 velocity=80 time=0.0013297854166666667
EXTRACT: note_on channel=3 note=59 velocity=80 time=0
EXTRACT: note_on channel=2 note=66 velocity=0 time=0.30186128958333336
EXTRACT: note_on channel=9 note=61 velocity=0 time=0.015957425
EXTRACT: note_on channel=3 note=51 velocity=0 time=0
EXTRACT: note_on channel=3 note=59 velocity=0 time=0
EXTRACT: note_on channel=9 note=63 velocity=80 time=0.0013297854166666667
EXTRACT: note_on channel=2 note=66 velocity=80 time=0
EXTRACT: note_on channel=3 note=59 velocity=80 time=0
EXTRACT: note_on channel=3 note=51 velocity=80 time=0
EXTRACT: note_on channel=2 note=66 velocity=0 time=0.15026575208333334
EXTRACT: note_on channel=3 note=59 velocity=0 time=0.0079787125
EXTRACT: note_on channel=2 note=66 velocity=80 time=0.0013297854166666667
EXTRACT: note_on channel=3 note=59 velocity=80 time=0
EXTRACT: note_on channel=2 note=66 velocity=0 time=0.15026575208333334
EXTRACT: note_on channel=9 note=59 velocity=0 time=0.0079787125
EXTRACT: note_on channel=9 note=63 velocity=0 time=0
EXTRACT: note_on channel=1 note=75 velocity=0 time=0
EXTRACT: note_on channel=3 note=51 velocity=0 time=0
EXTRACT: note_on channel=3 note=59 velocity=0 time=0
EXTRACT: note_on channel=4 note=47 velocity=0 time=0
EXTRACT: note_on channel=1 note=73 velocity=80 time=0.0013297854166666667
EXTRACT: note_on channel=3 note=49 velocity=80 time=0
EXTRACT: note_on channel=4 note=46 velocity=80 time=0
EXTRACT: note_on channel=9 note=63 velocity=80 time=0.638297
EXTRACT: note_on channel=9 note=59 velocity=80 time=0
EXTRACT: note_on channel=2 note=66 velocity=80 time=0
EXTRACT: note_on channel=3 note=59 velocity=80 time=0
EXTRACT: note_on channel=2 note=66 velocity=0 time=0.45345682708333335
EXTRACT: note_on channel=9 note=63 velocity=0 time=0.0239361375
EXTRACT: note_on channel=9 note=59 velocity=0 time=0
EXTRACT: note_on channel=3 note=59 velocity=0 time=0
EXTRACT: note_on channel=9 note=63 velocity=80 time=0.0013297854166666667
EXTRACT: note_on channel=9 note=59 velocity=80 time=0
EXTRACT: note_on channel=2 note=66 velocity=80 time=0
EXTRACT: note_on channel=3 note=59 velocity=80 time=0
EXTRACT: note_on channel=9 note=59 velocity=0 time=0.15824446458333333
EXTRACT: note_on channel=9 note=59 velocity=80 time=0.0013297854166666667
EXTRACT: note_on channel=2 note=66 velocity=0 time=0.14228703958333333
EXTRACT: note_on channel=3 note=59 velocity=0 time=0.015957425
EXTRACT: note_on channel=2 note=66 velocity=80 time=0.0013297854166666667
EXTRACT: note_on channel=3 note=59 velocity=80 time=0
EXTRACT: note_on channel=2 note=66 velocity=0 time=0.15026575208333334
EXTRACT: note_on channel=9 note=63 velocity=0 time=0.0079787125
EXTRACT: note_on channel=3 note=59 velocity=0 time=0
EXTRACT: note_on channel=9 note=61 velocity=80 time=0.0013297854166666667
EXTRACT: note_on channel=2 note=66 velocity=80 time=0
EXTRACT: note_on channel=3 note=59 velocity=80 time=0
EXTRACT: note_on channel=2 note=66 velocity=0 time=0.30186128958333336
EXTRACT: note_on channel=3 note=49 velocity=0 time=0.015957425
EXTRACT: note_on channel=3 note=59 velocity=0 time=0
EXTRACT: note_on channel=0 note=52 velocity=80 time=0.0013297854166666667
EXTRACT: note_on channel=2 note=66 velocity=80 time=0
EXTRACT: note_on channel=3 note=59 velocity=80 time=0
EXTRACT: note_on channel=3 note=49 velocity=80 time=0
EXTRACT: note_on channel=2 note=66 velocity=0 time=0.30186128958333336
EXTRACT: note_on channel=0 note=52 velocity=0 time=0.015957425
EXTRACT: note_on channel=9 note=61 velocity=0 time=0
EXTRACT: note_on channel=3 note=59 velocity=0 time=0
EXTRACT: note_on channel=3 note=49 velocity=0 time=0
EXTRACT: note_on channel=0 note=59 velocity=80 time=0.0013297854166666667
EXTRACT: note_on channel=9 note=63 velocity=80 time=0
EXTRACT: note_on channel=2 note=66 velocity=80 time=0
EXTRACT: note_on channel=3 note=59 velocity=80 time=0
EXTRACT: note_on channel=3 note=49 velocity=80 time=0
EXTRACT: note_on channel=2 note=66 velocity=0 time=0.15026575208333334
EXTRACT: note_on channel=3 note=59 velocity=0 time=0.0079787125
EXTRACT: note_on channel=3 note=49 velocity=0 time=0
EXTRACT: note_on channel=2 note=66 velocity=80 time=0.0013297854166666667
EXTRACT: note_on channel=3 note=59 velocity=80 time=0
EXTRACT: note_on channel=3 note=49 velocity=80 time=0
EXTRACT: note_on channel=2 note=66 velocity=0 time=0.15026575208333334
EXTRACT: note_on channel=9 note=59 velocity=0 time=0.0079787125
EXTRACT: note_on channel=9 note=63 velocity=0 time=0
EXTRACT: note_on channel=1 note=73 velocity=0 time=0
EXTRACT: note_on channel=3 note=59 velocity=0 time=0
EXTRACT: note_on channel=3 note=49 velocity=0 time=0
EXTRACT: note_on channel=4 note=46 velocity=0 time=0
EXTRACT: note_on channel=1 note=71 velocity=80 time=0.0013297854166666667
EXTRACT: note_on channel=3 note=51 velocity=80 time=0
EXTRACT: note_on channel=4 note=44 velocity=80 time=0
EXTRACT: note_on channel=0 note=59 velocity=0 time=0.31781871458333333
EXTRACT: note_on channel=0 note=61 velocity=80 time=0.0013297854166666667
EXTRACT: note_on channel=9 note=63 velocity=80 time=0.3191485
EXTRACT: note_on channel=9 note=59 velocity=80 time=0
EXTRACT: note_on channel=2 note=63 velocity=80 time=0
EXTRACT: note_on channel=3 note=59 velocity=80 time=0
EXTRACT: note_on channel=0 note=61 velocity=0 time=0.31781871458333333
EXTRACT: note_on channel=0 note=59 velocity=80 time=0.0013297854166666667
EXTRACT: note_on channel=2 note=63 velocity=0 time=0.13430832708333335
EXTRACT: note_on channel=9 note=63 velocity=0 time=0.0239361375
EXTRACT: note_on channel=9 note=59 velocity=0 time=0
EXTRACT: note_on channel=3 note=59 velocity=0 time=0
EXTRACT: note_on channel=9 note=63 velocity=80 time=0.0013297854166666667
EXTRACT: note_on channel=9 note=59 velocity=80 time=0
EXTRACT: note_on channel=2 note=63 velocity=80 time=0
EXTRACT: note_on channel=3 note=59 velocity=80 time=0
EXTRACT: note_on channel=9 note=59 velocity=0 time=0.15824446458333333
EXTRACT: note_on channel=3 note=51 velocity=0 time=0
EXTRACT: note_on channel=9 note=59 velocity=80 time=0.0013297854166666667
EXTRACT: note_on channel=2 note=63 velocity=0 time=0.14228703958333333
EXTRACT: note_on channel=3 note=59 velocity=0 time=0.015957425
EXTRACT: note_on channel=2 note=63 velocity=80 time=0.0013297854166666667
EXTRACT: note_on channel=3 note=59 velocity=80 time=0
EXTRACT: note_on channel=2 note=63 velocity=0 time=0.15026575208333334
EXTRACT: note_on channel=9 note=63 velocity=0 time=0.0079787125
EXTRACT: note_on channel=3 note=59 velocity=0 time=0
EXTRACT: note_on channel=9 note=61 velocity=80 time=0.0013297854166666667
EXTRACT: note_on channel=2 note=63 velocity=80 time=0
EXTRACT: note_on channel=3 note=59 velocity=80 time=0
EXTRACT: note_on channel=2 note=63 velocity=0 time=0.30186128958333336
EXTRACT: note_on channel=0 note=59 velocity=0 time=0.015957425
EXTRACT: note_on channel=3 note=59 velocity=0 time=0
EXTRACT: note_on channel=2 note=63 velocity=80 time=0.0013297854166666667
EXTRACT: note_on channel=3 note=59 velocity=80 time=0
EXTRACT: note_on channel=3 note=51 velocity=80 time=0
EXTRACT: note_on channel=2 note=63 velocity=0 time=0.30186128958333336
EXTRACT: note_on channel=9 note=61 velocity=0 time=0.015957425
EXTRACT: note_on channel=3 note=59 velocity=0 time=0
EXTRACT: note_on channel=3 note=51 velocity=0 time=0
EXTRACT: note_on channel=0 note=63 velocity=80 time=0.0013297854166666667
EXTRACT: note_on channel=9 note=63 velocity=80 time=0
EXTRACT: note_on channel=2 note=63 velocity=80 time=0
EXTRACT: note_on channel=3 note=59 velocity=80 time=0
EXTRACT: note_on channel=3 note=51 velocity=80 time=0
EXTRACT: note_on channel=2 note=63 velocity=0 time=0.15026575208333334
EXTRACT: note_on channel=3 note=59 velocity=0 time=0.0079787125
EXTRACT: note_on channel=3 note=51 velocity=0 time=0
EXTRACT: note_on channel=2 note=63 velocity=80 time=0.0013297854166666667
EXTRACT: note_on channel=3 note=59 velocity=80 time=0
EXTRACT: note_on channel=3 note=51 velocity=80 time=0
EXTRACT: note_on channel=2 note=63 velocity=0 time=0.15026575208333334
EXTRACT: note_on channel=9 note=59 velocity=0 time=0.0079787125
EXTRACT: note_on channel=9 note=63 velocity=0 time=0
EXTRACT: note_on channel=1 note=71 velocity=0 time=0
EXTRACT: note_on channel=3 note=59 velocity=0 time=0
EXTRACT: note_on channel=3 note=51 velocity=0 time=0
EXTRACT: note_on channel=4 note=44 velocity=0 time=0
EXTRACT: note_on channel=4 note=40 velocity=80 time=0.0013297854166666667
EXTRACT: note_on channel=0 note=63 velocity=0 time=0.31781871458333333
EXTRACT: note_on channel=4 note=40 velocity=0 time=0
EXTRACT: note_on channel=0 note=61 velocity=80 time=0.0013297854166666667
EXTRACT: note_on channel=1 note=64 velocity=80 time=0
EXTRACT: note_on channel=4 note=52 velocity=80 time=0
EXTRACT: note_on channel=1 note=64 velocity=0 time=0.31781871458333333
EXTRACT: note_on channel=9 note=63 velocity=80 time=0.0013297854166666667
EXTRACT: note_on channel=9 note=59 velocity=80 time=0
EXTRACT: note_on channel=1 note=66 velocity=80 time=0
EXTRACT: note_on channel=2 note=63 velocity=80 time=0
EXTRACT: note_on channel=3 note=59 velocity=80 time=0
EXTRACT: note_on channel=3 note=56 velocity=80 time=0
EXTRACT: note_on channel=0 note=61 velocity=0 time=0.31781871458333333
EXTRACT: note_on channel=1 note=66 velocity=0 time=0
EXTRACT: note_on channel=0 note=59 velocity=80 time=0.0013297854166666667
EXTRACT: note_on channel=1 note=71 velocity=80 time=0
EXTRACT: note_on channel=2 note=63 velocity=0 time=0.13430832708333335
EXTRACT: note_on channel=9 note=63 velocity=0 time=0.0239361375
EXTRACT: note_on channel=9 note=59 velocity=0 time=0
EXTRACT: note_on channel=3 note=59 velocity=0 time=0
EXTRACT: note_on channel=9 note=63 velocity=80 time=0.0013297854166666667
EXTRACT: note_on channel=9 note=59 velocity=80 time=0
EXTRACT: note_on channel=2 note=63 velocity=80 time=0
EXTRACT: note_on channel=3 note=59 velocity=80 time=0
EXTRACT: note_on channel=9 note=59 velocity=0 time=0.15824446458333333
EXTRACT: note_on channel=4 note=52 velocity=0 time=0
EXTRACT: note_on channel=9 note=59 velocity=80 time=0.0013297854166666667
EXTRACT: note_on channel=4 note=52 velocity=80 time=0
EXTRACT: note_on channel=2 note=63 velocity=0 time=0.2938825770833333
EXTRACT: note_on channel=9 note=63 velocity=0 time=0.0239361375
EXTRACT: note_on channel=1 note=71 velocity=0 time=0
EXTRACT: note_on channel=3 note=56 velocity=0 time=0
EXTRACT: note_on channel=3 note=59 velocity=0 time=0
EXTRACT: note_on channel=9 note=61 velocity=80 time=0.0013297854166666667
EXTRACT: note_on channel=1 note=73 velocity=80 time=0
EXTRACT: note_on channel=2 note=63 velocity=80 time=0
EXTRACT: note_on channel=3 note=59 velocity=80 time=0
EXTRACT: note_on channel=3 note=54 velocity=80 time=0
EXTRACT: note_on channel=3 note=54 velocity=0 time=0.15824446458333333
EXTRACT: note_on channel=3 note=56 velocity=80 time=0.0013297854166666667
EXTRACT: note_on channel=0 note=59 velocity=0 time=0.15824446458333333
EXTRACT: note_on channel=2 note=63 velocity=0 time=0.1356381125
EXTRACT: note_on channel=3 note=59 velocity=0 time=0.0239361375
EXTRACT: note_on channel=2 note=63 velocity=80 time=0.0013297854166666667
EXTRACT: note_on channel=3 note=59 velocity=80 time=0
EXTRACT: note_on channel=2 note=63 velocity=0 time=0.15026575208333334
EXTRACT: note_on channel=9 note=61 velocity=0 time=0.0079787125
EXTRACT: note_on channel=1 note=73 velocity=0 time=0
EXTRACT: note_on channel=3 note=56 velocity=0 time=0
EXTRACT: note_on channel=3 note=59 velocity=0 time=0
EXTRACT: note_on channel=0 note=58 velocity=80 time=0.0013297854166666667
EXTRACT: note_on channel=9 note=59 velocity=80 time=0
EXTRACT: note_on channel=1 note=75 velocity=80 time=0
EXTRACT: note_on channel=2 note=63 velocity=80 time=0
EXTRACT: note_on channel=3 note=59 velocity=80 time=0
EXTRACT: note_on channel=3 note=54 velocity=80 time=0
EXTRACT: note_on channel=2 note=63 velocity=0 time=0.15026575208333334
EXTRACT: note_on channel=0 note=58 velocity=0 time=0.0079787125
EXTRACT: note_on channel=3 note=59 velocity=0 time=0
EXTRACT: note_on channel=0 note=59 velocity=80 time=0.0013297854166666667
EXTRACT: note_on channel=2 note=63 velocity=80 time=0
EXTRACT: note_on channel=3 note=59 velocity=80 time=0
EXTRACT: note_on channel=2 note=63 velocity=0 time=0.15026575208333334
EXTRACT: note_on channel=0 note=59 velocity=0 time=0.0079787125
EXTRACT: note_on channel=9 note=59 velocity=0 time=0
EXTRACT: note_on channel=9 note=59 velocity=0 time=0
EXTRACT: note_on channel=3 note=54 velocity=0 time=0
EXTRACT: note_on channel=3 note=59 velocity=0 time=0
EXTRACT: note_on channel=4 note=52 velocity=0 time=0
EXTRACT: note_on channel=4 note=47 velocity=80 time=0.0013297854166666667
EXTRACT: note_on channel=9 note=63 velocity=80 time=0.638297
EXTRACT: note_on channel=9 note=59 velocity=80 time=0
EXTRACT: note_on channel=2 note=66 velocity=80 time=0
EXTRACT: note_on channel=3 note=59 velocity=80 time=0
EXTRACT: note_on channel=3 note=51 velocity=80 time=0
EXTRACT: note_on channel=2 note=66 velocity=0 time=0.45345682708333335
EXTRACT: note_on channel=9 note=63 velocity=0 time=0.0239361375
EXTRACT: note_on channel=9 note=59 velocity=0 time=0
EXTRACT: note_on channel=3 note=59 velocity=0 time=0
EXTRACT: note_on channel=9 note=63 velocity=80 time=0.0013297854166666667
EXTRACT: note_on channel=9 note=59 velocity=80 time=0
EXTRACT: note_on channel=2 note=66 velocity=80 time=0
EXTRACT: note_on channel=3 note=59 velocity=80 time=0
EXTRACT: note_on channel=9 note=59 velocity=0 time=0.15824446458333333
EXTRACT: note_on channel=9 note=59 velocity=80 time=0.0013297854166666667
EXTRACT: note_on channel=2 note=66 velocity=0 time=0.14228703958333333
EXTRACT: note_on channel=3 note=59 velocity=0 time=0.015957425
EXTRACT: note_on channel=2 note=66 velocity=80 time=0.0013297854166666667
EXTRACT: note_on channel=3 note=59 velocity=80 time=0
EXTRACT: note_on channel=2 note=66 velocity=0 time=0.15026575208333334
EXTRACT: note_on channel=9 note=63 velocity=0 time=0.0079787125
EXTRACT: note_on channel=3 note=51 velocity=0 time=0
EXTRACT: note_on channel=3 note=59 velocity=0 time=0
EXTRACT: note_on channel=9 note=61 velocity=80 time=0.0013297854166666667
EXTRACT: note_on channel=2 note=66 velocity=80 time=0
EXTRACT: note_on channel=3 note=59 velocity=80 time=0
EXTRACT: note_on channel=3 note=51 velocity=80 time=0
EXTRACT: note_on channel=2 note=66 velocity=0 time=0.30186128958333336
EXTRACT: note_on channel=3 note=59 velocity=0 time=0.015957425
EXTRACT: note_on channel=2 note=66 velocity=80 time=0.0013297854166666667
EXTRACT: note_on channel=3 note=59 velocity=80 time=0
EXTRACT: note_on channel=2 note=66 velocity=0 time=0.30186128958333336
EXTRACT: note_on channel=9 note=61 velocity=0 time=0.015957425
EXTRACT: note_on channel=3 note=51 velocity=0 time=0
EXTRACT: note_on channel=3 note=59 velocity=0 time=0
EXTRACT: note_on channel=9 note=63 velocity=80 time=0.0013297854166666667
EXTRACT: note_on channel=2 note=66 velocity=80 time=0
EXTRACT: note_on channel=3 note=59 velocity=80 time=0
EXTRACT: note_on channel=3 note=51 velocity=80 time=0
EXTRACT: note_on channel=2 note=66 velocity=0 time=0.15026575208333334
EXTRACT: note_on channel=3 note=59 velocity=0 time=0.0079787125
EXTRACT: note_on channel=2 note=66 velocity=80 time=0.0013297854166666667
EXTRACT: note_on channel=3 note=59 velocity=80 time=0
EXTRACT: note_on channel=2 note=66 velocity=0 time=0.15026575208333334
EXTRACT: note_on channel=9 note=59 velocity=0 time=0.0079787125
EXTRACT: note_on channel=9 note=63 velocity=0 time=0
EXTRACT: note_on channel=1 note=75 velocity=0 time=0
EXTRACT: note_on channel=3 note=51 velocity=0 time=0
EXTRACT: note_on channel=3 note=59 velocity=0 time=0
EXTRACT: note_on channel=4 note=47 velocity=0 time=0
EXTRACT: note_on channel=1 note=73 velocity=80 time=0.0013297854166666667
EXTRACT: note_on channel=3 note=49 velocity=80 time=0
EXTRACT: note_on channel=4 note=46 velocity=80 time=0
EXTRACT: note_on channel=9 note=63 velocity=80 time=0.638297
EXTRACT: note_on channel=9 note=59 velocity=80 time=0
EXTRACT: note_on channel=2 note=66 velocity=80 time=0
EXTRACT: note_on channel=3 note=59 velocity=80 time=0
EXTRACT: note_on channel=2 note=66 velocity=0 time=0.45345682708333335
EXTRACT: note_on channel=9 note=63 velocity=0 time=0.0239361375
EXTRACT: note_on channel=9 note=59 velocity=0 time=0
EXTRACT: note_on channel=3 note=59 velocity=0 time=0
EXTRACT: note_on channel=9 note=63 velocity=80 time=0.0013297854166666667
EXTRACT: note_on channel=9 note=59 velocity=80 time=0
EXTRACT: note_on channel=2 note=66 velocity=80 time=0
EXTRACT: note_on channel=3 note=59 velocity=80 time=0
EXTRACT: note_on channel=9 note=59 velocity=0 time=0.15824446458333333
EXTRACT: note_on channel=9 note=59 velocity=80 time=0.0013297854166666667
EXTRACT: note_on channel=2 note=66 velocity=0 time=0.14228703958333333
EXTRACT: note_on channel=3 note=59 velocity=0 time=0.015957425
EXTRACT: note_on channel=2 note=66 velocity=80 time=0.0013297854166666667
EXTRACT: note_on channel=3 note=59 velocity=80 time=0
EXTRACT: note_on channel=2 note=66 velocity=0 time=0.15026575208333334
EXTRACT: note_on channel=9 note=63 velocity=0 time=0.0079787125
EXTRACT: note_on channel=3 note=59 velocity=0 time=0
EXTRACT: note_on channel=9 note=61 velocity=80 time=0.0013297854166666667
EXTRACT: note_on channel=2 note=66 velocity=80 time=0
EXTRACT: note_on channel=3 note=59 velocity=80 time=0
EXTRACT: note_on channel=2 note=66 velocity=0 time=0.30186128958333336
EXTRACT: note_on channel=3 note=49 velocity=0 time=0.015957425
EXTRACT: note_on channel=3 note=59 velocity=0 time=0
EXTRACT: note_on channel=0 note=52 velocity=80 time=0.0013297854166666667
EXTRACT: note_on channel=2 note=66 velocity=80 time=0
EXTRACT: note_on channel=3 note=59 velocity=80 time=0
EXTRACT: note_on channel=3 note=49 velocity=80 time=0
EXTRACT: note_on channel=2 note=66 velocity=0 time=0.30186128958333336
EXTRACT: note_on channel=0 note=52 velocity=0 time=0.015957425
EXTRACT: note_on channel=9 note=61 velocity=0 time=0
EXTRACT: note_on channel=3 note=59 velocity=0 time=0
EXTRACT: note_on channel=3 note=49 velocity=0 time=0
EXTRACT: note_on channel=0 note=59 velocity=80 time=0.0013297854166666667
EXTRACT: note_on channel=9 note=63 velocity=80 time=0
EXTRACT: note_on channel=2 note=66 velocity=80 time=0
EXTRACT: note_on channel=3 note=59 velocity=80 time=0
EXTRACT: note_on channel=3 note=49 velocity=80 time=0
EXTRACT: note_on channel=2 note=66 velocity=0 time=0.15026575208333334
EXTRACT: note_on channel=3 note=59 velocity=0 time=0.0079787125
EXTRACT: note_on channel=3 note=49 velocity=0 time=0
EXTRACT: note_on channel=2 note=66 velocity=80 time=0.0013297854166666667
EXTRACT: note_on channel=3 note=59 velocity=80 time=0
EXTRACT: note_on channel=3 note=49 velocity=80 time=0
EXTRACT: note_on channel=2 note=66 velocity=0 time=0.15026575208333334
EXTRACT: note_on channel=9 note=59 velocity=0 time=0.0079787125
EXTRACT: note_on channel=9 note=63 velocity=0 time=0
EXTRACT: note_on channel=1 note=73 velocity=0 time=0
EXTRACT: note_on channel=3 note=59 velocity=0 time=0
EXTRACT: note_on channel=3 note=49 velocity=0 time=0
EXTRACT: note_on channel=4 note=46 velocity=0 time=0
EXTRACT: note_on channel=1 note=71 velocity=80 time=0.0013297854166666667
EXTRACT: note_on channel=3 note=51 velocity=80 time=0
EXTRACT: note_on channel=4 note=44 velocity=80 time=0
EXTRACT: note_on channel=0 note=59 velocity=0 time=0.31781871458333333
EXTRACT: note_on channel=0 note=61 velocity=80 time=0.0013297854166666667
EXTRACT: note_on channel=9 note=63 velocity=80 time=0.3191485
EXTRACT: note_on channel=9 note=59 velocity=80 time=0
EXTRACT: note_on channel=2 note=63 velocity=80 time=0
EXTRACT: note_on channel=3 note=59 velocity=80 time=0
EXTRACT: note_on channel=0 note=61 velocity=0 time=0.31781871458333333
EXTRACT: note_on channel=0 note=59 velocity=80 time=0.0013297854166666667
EXTRACT: note_on channel=2 note=63 velocity=0 time=0.13430832708333335
EXTRACT: note_on channel=9 note=63 velocity=0 time=0.0239361375
EXTRACT: note_on channel=9 note=59 velocity=0 time=0
EXTRACT: note_on channel=3 note=59 velocity=0 time=0
EXTRACT: note_on channel=9 note=63 velocity=80 time=0.0013297854166666667
EXTRACT: note_on channel=9 note=59 velocity=80 time=0
EXTRACT: note_on channel=2 note=63 velocity=80 time=0
EXTRACT: note_on channel=3 note=59 velocity=80 time=0
EXTRACT: note_on channel=9 note=59 velocity=0 time=0.15824446458333333
EXTRACT: note_on channel=3 note=51 velocity=0 time=0
EXTRACT: note_on channel=9 note=59 velocity=80 time=0.0013297854166666667
EXTRACT: note_on channel=2 note=63 velocity=0 time=0.14228703958333333
EXTRACT: note_on channel=3 note=59 velocity=0 time=0.015957425
EXTRACT: note_on channel=2 note=63 velocity=80 time=0.0013297854166666667
EXTRACT: note_on channel=3 note=59 velocity=80 time=0
EXTRACT: note_on channel=2 note=63 velocity=0 time=0.15026575208333334
EXTRACT: note_on channel=9 note=63 velocity=0 time=0.0079787125
EXTRACT: note_on channel=3 note=59 velocity=0 time=0
EXTRACT: note_on channel=9 note=61 velocity=80 time=0.0013297854166666667
EXTRACT: note_on channel=2 note=63 velocity=80 time=0
EXTRACT: note_on channel=3 note=59 velocity=80 time=0
EXTRACT: note_on channel=2 note=63 velocity=0 time=0.30186128958333336
EXTRACT: note_on channel=0 note=59 velocity=0 time=0.015957425
EXTRACT: note_on channel=3 note=59 velocity=0 time=0
EXTRACT: note_on channel=2 note=63 velocity=80 time=0.0013297854166666667
EXTRACT: note_on channel=3 note=59 velocity=80 time=0
EXTRACT: note_on channel=3 note=51 velocity=80 time=0
EXTRACT: note_on channel=2 note=63 velocity=0 time=0.30186128958333336
EXTRACT: note_on channel=9 note=61 velocity=0 time=0.015957425
EXTRACT: note_on channel=3 note=59 velocity=0 time=0
EXTRACT: note_on channel=3 note=51 velocity=0 time=0
EXTRACT: note_on channel=0 note=63 velocity=80 time=0.0013297854166666667
EXTRACT: note_on channel=9 note=63 velocity=80 time=0
EXTRACT: note_on channel=2 note=63 velocity=80 time=0
EXTRACT: note_on channel=3 note=59 velocity=80 time=0
EXTRACT: note_on channel=3 note=51 velocity=80 time=0
EXTRACT: note_on channel=2 note=63 velocity=0 time=0.15026575208333334
EXTRACT: note_on channel=3 note=59 velocity=0 time=0.0079787125
EXTRACT: note_on channel=3 note=51 velocity=0 time=0
EXTRACT: note_on channel=2 note=63 velocity=80 time=0.0013297854166666667
EXTRACT: note_on channel=3 note=59 velocity=80 time=0
EXTRACT: note_on channel=3 note=51 velocity=80 time=0
EXTRACT: note_on channel=2 note=63 velocity=0 time=0.15026575208333334
EXTRACT: note_on channel=9 note=59 velocity=0 time=0.0079787125
EXTRACT: note_on channel=9 note=63 velocity=0 time=0
EXTRACT: note_on channel=1 note=71 velocity=0 time=0
EXTRACT: note_on channel=3 note=59 velocity=0 time=0
EXTRACT: note_on channel=3 note=51 velocity=0 time=0
EXTRACT: note_on channel=4 note=44 velocity=0 time=0
EXTRACT: note_on channel=4 note=40 velocity=80 time=0.0013297854166666667
EXTRACT: note_on channel=0 note=63 velocity=0 time=0.31781871458333333
EXTRACT: note_on channel=4 note=40 velocity=0 time=0
EXTRACT: note_on channel=0 note=61 velocity=80 time=0.0013297854166666667
EXTRACT: note_on channel=1 note=64 velocity=80 time=0
EXTRACT: note_on channel=4 note=52 velocity=80 time=0
EXTRACT: note_on channel=1 note=64 velocity=0 time=0.31781871458333333
EXTRACT: note_on channel=9 note=63 velocity=80 time=0.0013297854166666667
EXTRACT: note_on channel=9 note=59 velocity=80 time=0
EXTRACT: note_on channel=1 note=66 velocity=80 time=0
EXTRACT: note_on channel=2 note=63 velocity=80 time=0
EXTRACT: note_on channel=3 note=59 velocity=80 time=0
EXTRACT: note_on channel=3 note=56 velocity=80 time=0
EXTRACT: note_on channel=0 note=61 velocity=0 time=0.31781871458333333
EXTRACT: note_on channel=1 note=66 velocity=0 time=0
EXTRACT: note_on channel=0 note=59 velocity=80 time=0.0013297854166666667
EXTRACT: note_on channel=1 note=71 velocity=80 time=0
EXTRACT: note_on channel=2 note=63 velocity=0 time=0.13430832708333335
EXTRACT: note_on channel=9 note=63 velocity=0 time=0.0239361375
EXTRACT: note_on channel=9 note=59 velocity=0 time=0
EXTRACT: note_on channel=3 note=59 velocity=0 time=0
EXTRACT: note_on channel=9 note=63 velocity=80 time=0.0013297854166666667
EXTRACT: note_on channel=9 note=59 velocity=80 time=0
EXTRACT: note_on channel=2 note=63 velocity=80 time=0
EXTRACT: note_on channel=3 note=59 velocity=80 time=0
EXTRACT: note_on channel=9 note=59 velocity=0 time=0.15824446458333333
EXTRACT: note_on channel=9 note=59 velocity=80 time=0.0013297854166666667
EXTRACT: note_on channel=2 note=63 velocity=0 time=0.2938825770833333
EXTRACT: note_on channel=9 note=63 velocity=0 time=0.0239361375
EXTRACT: note_on channel=1 note=71 velocity=0 time=0
EXTRACT: note_on channel=3 note=56 velocity=0 time=0
EXTRACT: note_on channel=3 note=59 velocity=0 time=0
EXTRACT: note_on channel=9 note=61 velocity=80 time=0.0013297854166666667
EXTRACT: note_on channel=1 note=73 velocity=80 time=0
EXTRACT: note_on channel=2 note=63 velocity=80 time=0
EXTRACT: note_on channel=3 note=59 velocity=80 time=0
EXTRACT: note_on channel=3 note=54 velocity=80 time=0
EXTRACT: note_on channel=3 note=54 velocity=0 time=0.15824446458333333
EXTRACT: note_on channel=3 note=56 velocity=80 time=0.0013297854166666667
EXTRACT: note_on channel=0 note=59 velocity=0 time=0.15824446458333333
EXTRACT: note_on channel=2 note=63 velocity=0 time=0.1356381125
EXTRACT: note_on channel=3 note=59 velocity=0 time=0.0239361375
EXTRACT: note_on channel=2 note=63 velocity=80 time=0.0013297854166666667
EXTRACT: note_on channel=3 note=59 velocity=80 time=0
EXTRACT: note_on channel=2 note=63 velocity=0 time=0.15026575208333334
EXTRACT: note_on channel=9 note=61 velocity=0 time=0.0079787125
EXTRACT: note_on channel=3 note=56 velocity=0 time=0
EXTRACT: note_on channel=3 note=59 velocity=0 time=0
EXTRACT: note_on channel=0 note=58 velocity=80 time=0.0013297854166666667
EXTRACT: note_on channel=9 note=63 velocity=80 time=0
EXTRACT: note_on channel=2 note=63 velocity=80 time=0
EXTRACT: note_on channel=3 note=59 velocity=80 time=0
EXTRACT: note_on channel=3 note=54 velocity=80 time=0
EXTRACT: note_on channel=0 note=58 velocity=0 time=0.15824446458333333
EXTRACT: note_on channel=0 note=59 velocity=80 time=0.0013297854166666667
EXTRACT: note_on channel=2 note=63 velocity=0 time=0.14228703958333333
EXTRACT: note_on channel=9 note=59 velocity=0 time=0.015957425
EXTRACT: note_on channel=1 note=73 velocity=0 time=0
EXTRACT: note_on channel=3 note=59 velocity=0 time=0
EXTRACT: note_on channel=3 note=54 velocity=0 time=0
EXTRACT: note_on channel=4 note=52 velocity=0 time=0
EXTRACT: note_on channel=1 note=71 velocity=80 time=0.0013297854166666667
EXTRACT: note_on channel=2 note=63 velocity=80 time=0
EXTRACT: note_on channel=3 note=59 velocity=80 time=0
EXTRACT: note_on channel=4 note=47 velocity=80 time=0
EXTRACT: note_on channel=2 note=63 velocity=0 time=2.4241988145833333
EXTRACT: note_on channel=0 note=59 velocity=0 time=0.1276594
EXTRACT: note_on channel=9 note=63 velocity=0 time=0
EXTRACT: note_on channel=1 note=71 velocity=0 time=0
EXTRACT: note_on channel=3 note=59 velocity=0 time=0
EXTRACT: note_on channel=4 note=47 velocity=0 time=0
MUSIC75 - Collide_howie_day.mid
INTERVALS75 - Collide_howie_day.mid
unison252
2m17
2M83
3m10
3M10
4m33
4M1
5m9
5M1
6m3
7m3
7M0