EXTRACT: sysex data=(126,127,9,1) time=0
EXTRACT: sysex data=(65,16,66,18,64,0,127,0,65) time=0.0005208333333333333
EXTRACT: control_change channel=0 control=11 value=127 time=0.17300000000000001
EXTRACT: control_change channel=0 control=71 value=64 time=0.001
EXTRACT: control_change channel=0 control=72 value=64 time=0.001
EXTRACT: control_change channel=0 control=73 value=64 time=0.001
EXTRACT: control_change channel=0 control=74 value=64 time=0.001
EXTRACT: control_change channel=1 control=11 value=127 time=0.012
EXTRACT: control_change channel=1 control=71 value=64 time=0.001
EXTRACT: control_change channel=1 control=72 value=64 time=0.001
EXTRACT: control_change channel=1 control=73 value=64 time=0.001
EXTRACT: control_change channel=1 control=74 value=64 time=0.001
EXTRACT: control_change channel=2 control=11 value=127 time=0.012
EXTRACT: control_change channel=2 control=71 value=64 time=0.001
EXTRACT: control_change channel=2 control=72 value=64 time=0.001
EXTRACT: control_change channel=2 control=73 value=64 time=0.001
EXTRACT: control_change channel=2 control=74 value=64 time=0.001
EXTRACT: control_change channel=3 control=11 value=127 time=0.012
EXTRACT: control_change channel=3 control=71 value=64 time=0.001
EXTRACT: control_change channel=3 control=72 value=64 time=0.001
EXTRACT: control_change channel=3 control=73 value=64 time=0.001
EXTRACT: control_change channel=3 control=74 value=64 time=0.001
EXTRACT: control_change channel=4 control=11 value=127 time=0.012
EXTRACT: control_change channel=4 control=71 value=64 time=0.001
EXTRACT: control_change channel=4 control=72 value=64 time=0.001
EXTRACT: control_change channel=4 control=73 value=64 time=0.001
EXTRACT: control_change channel=4 control=74 value=64 time=0.001
EXTRACT: control_change channel=5 control=11 value=127 time=0.012
EXTRACT: control_change channel=5 control=71 value=64 time=0.001
EXTRACT: control_change channel=5 control=72 value=64 time=0.001
EXTRACT: control_change channel=5 control=73 value=64 time=0.001
EXTRACT: control_change channel=5 control=74 value=64 time=0.001
EXTRACT: control_change channel=6 control=11 value=127 time=0.012
EXTRACT: control_change channel=6 control=71 value=64 time=0.001
EXTRACT: control_change channel=6 control=72 value=64 time=0.001
EXTRACT: control_change channel=6 control=74 value=64 time=0.002
EXTRACT: control_change channel=7 control=11 value=127 time=0.012
EXTRACT: control_change channel=7 control=71 value=64 time=0.001
EXTRACT: control_change channel=7 control=72 value=64 time=0.001
EXTRACT: control_change channel=7 control=74 value=64 time=0.002
EXTRACT: control_change channel=7 control=73 value=78 time=0.009000000000000001
EXTRACT: control_change channel=8 control=11 value=127 time=0.003
EXTRACT: control_change channel=8 control=71 value=64 time=0.001
EXTRACT: control_change channel=8 control=72 value=64 time=0.001
EXTRACT: control_change channel=8 control=73 value=64 time=0.001
EXTRACT: control_change channel=8 control=74 value=64 time=0.001
EXTRACT: control_change channel=6 control=73 value=88 time=0.003
EXTRACT: control_change channel=9 control=11 value=127 time=0.009000000000000001
EXTRACT: control_change channel=9 control=71 value=64 time=0.001
EXTRACT: control_change channel=9 control=72 value=64 time=0.001
EXTRACT: control_change channel=9 control=73 value=64 time=0.001
EXTRACT: control_change channel=9 control=74 value=64 time=0.001
EXTRACT: control_change channel=10 control=11 value=127 time=0.012
EXTRACT: control_change channel=10 control=71 value=64 time=0.001
EXTRACT: control_change channel=10 control=72 value=64 time=0.001
EXTRACT: control_change channel=10 control=73 value=64 time=0.001
EXTRACT: control_change channel=10 control=74 value=64 time=0.001
EXTRACT: control_change channel=11 control=11 value=127 time=0.012
EXTRACT: control_change channel=11 control=71 value=64 time=0.001
EXTRACT: control_change channel=11 control=73 value=64 time=0.002
EXTRACT: control_change channel=11 control=74 value=64 time=0.001
EXTRACT: control_change channel=12 control=11 value=127 time=0.012
EXTRACT: control_change channel=12 control=71 value=64 time=0.001
EXTRACT: control_change channel=12 control=72 value=64 time=0.001
EXTRACT: control_change channel=12 control=73 value=64 time=0.001
EXTRACT: control_change channel=12 control=74 value=64 time=0.001
EXTRACT: control_change channel=13 control=11 value=127 time=0.012
EXTRACT: control_change channel=13 control=71 value=64 time=0.001
EXTRACT: control_change channel=13 control=72 value=64 time=0.001
EXTRACT: control_change channel=13 control=73 value=64 time=0.001
EXTRACT: control_change channel=13 control=74 value=64 time=0.001
EXTRACT: control_change channel=14 control=11 value=127 time=0.012
EXTRACT: control_change channel=14 control=71 value=64 time=0.001
EXTRACT: control_change channel=14 control=72 value=64 time=0.001
EXTRACT: control_change channel=14 control=73 value=64 time=0.001
EXTRACT: control_change channel=14 control=74 value=64 time=0.001
EXTRACT: control_change channel=0 control=94 value=0 time=0.009000000000000001
EXTRACT: control_change channel=0 control=101 value=0 time=0
EXTRACT: control_change channel=0 control=100 value=0 time=0.0005
EXTRACT: control_change channel=0 control=6 value=2 time=0.0005
EXTRACT: control_change channel=0 control=38 value=0 time=0.0005
EXTRACT: control_change channel=15 control=11 value=127 time=0.0015
EXTRACT: control_change channel=15 control=71 value=64 time=0.001
EXTRACT: control_change channel=15 control=72 value=64 time=0.001
EXTRACT: pitchwheel channel=0 pitch=0 time=0.001
EXTRACT: control_change channel=15 control=73 value=64 time=0
EXTRACT: control_change channel=0 control=1 value=0 time=0.001
EXTRACT: control_change channel=15 control=74 value=64 time=0
EXTRACT: control_change channel=11 control=72 value=108 time=0.001
EXTRACT: control_change channel=1 control=94 value=0 time=0.008
EXTRACT: control_change channel=1 control=101 value=0 time=0
EXTRACT: control_change channel=1 control=100 value=0 time=0.0005
EXTRACT: control_change channel=1 control=6 value=2 time=0.0005
EXTRACT: control_change channel=1 control=38 value=0 time=0.0005
EXTRACT: pitchwheel channel=1 pitch=0 time=0.0045000000000000005
EXTRACT: control_change channel=1 control=1 value=0 time=0.001
EXTRACT: control_change channel=2 control=94 value=0 time=0.009000000000000001
EXTRACT: control_change channel=2 control=101 value=0 time=0
EXTRACT: control_change channel=2 control=100 value=0 time=0.0005
EXTRACT: control_change channel=2 control=6 value=2 time=0.0005
EXTRACT: control_change channel=2 control=38 value=0 time=0.0005
EXTRACT: pitchwheel channel=2 pitch=0 time=0.0045000000000000005
EXTRACT: control_change channel=2 control=1 value=0 time=0.001
EXTRACT: control_change channel=3 control=94 value=0 time=0.009000000000000001
EXTRACT: control_change channel=3 control=101 value=0 time=0
EXTRACT: control_change channel=3 control=100 value=0 time=0.0005
EXTRACT: control_change channel=3 control=6 value=2 time=0.0005
EXTRACT: control_change channel=3 control=38 value=0 time=0.0005
EXTRACT: pitchwheel channel=3 pitch=0 time=0.0045000000000000005
EXTRACT: control_change channel=3 control=1 value=0 time=0.001
EXTRACT: control_change channel=0 control=0 value=0 time=0.0025
EXTRACT: control_change channel=0 control=32 value=0 time=0.0005
EXTRACT: program_change channel=0 program=0 time=0.0005
EXTRACT: control_change channel=0 control=7 value=100 time=0.0005
EXTRACT: control_change channel=0 control=10 value=64 time=0
EXTRACT: control_change channel=0 control=91 value=0 time=0
EXTRACT: control_change channel=0 control=93 value=0 time=0
EXTRACT: program_change channel=1 program=34 time=0.002
EXTRACT: control_change channel=1 control=7 value=100 time=0.0005
EXTRACT: control_change channel=1 control=10 value=64 time=0
EXTRACT: control_change channel=1 control=91 value=0 time=0
EXTRACT: control_change channel=1 control=93 value=0 time=0
EXTRACT: program_change channel=2 program=99 time=0.002
EXTRACT: control_change channel=2 control=7 value=84 time=0.0005
EXTRACT: control_change channel=2 control=10 value=64 time=0
EXTRACT: control_change channel=2 control=91 value=41 time=0
EXTRACT: control_change channel=2 control=93 value=22 time=0
EXTRACT: control_change channel=4 control=94 value=0 time=0
EXTRACT: control_change channel=4 control=101 value=0 time=0
EXTRACT: control_change channel=4 control=100 value=0 time=0.0005
EXTRACT: control_change channel=4 control=6 value=2 time=0.0005
EXTRACT: control_change channel=4 control=38 value=0 time=0.0005
EXTRACT: program_change channel=3 program=65 time=0.0005
EXTRACT: control_change channel=3 control=7 value=127 time=0.0005
EXTRACT: control_change channel=3 control=10 value=64 time=0
EXTRACT: control_change channel=3 control=91 value=56 time=0
EXTRACT: control_change channel=3 control=93 value=15 time=0
EXTRACT: control_change channel=4 control=0 value=0 time=0.001
EXTRACT: control_change channel=4 control=32 value=0 time=0.0005
EXTRACT: program_change channel=4 program=0 time=0.0005
EXTRACT: control_change channel=4 control=7 value=100 time=0.0005
EXTRACT: control_change channel=4 control=10 value=58 time=0
EXTRACT: control_change channel=4 control=91 value=52 time=0
EXTRACT: control_change channel=4 control=93 value=23 time=0
EXTRACT: pitchwheel channel=4 pitch=0 time=0.001
EXTRACT: control_change channel=4 control=1 value=0 time=0.001
EXTRACT: program_change channel=5 program=92 time=0
EXTRACT: control_change channel=5 control=7 value=88 time=0.0005
EXTRACT: control_change channel=5 control=10 value=64 time=0
EXTRACT: control_change channel=5 control=91 value=30 time=0
EXTRACT: control_change channel=5 control=93 value=0 time=0
EXTRACT: program_change channel=6 program=94 time=0.002
EXTRACT: control_change channel=6 control=7 value=44 time=0.0005
EXTRACT: control_change channel=6 control=10 value=75 time=0
EXTRACT: control_change channel=6 control=91 value=60 time=0
EXTRACT: control_change channel=6 control=93 value=21 time=0
EXTRACT: program_change channel=7 program=52 time=0.002
EXTRACT: control_change channel=7 control=7 value=71 time=0.0005
EXTRACT: control_change channel=7 control=10 value=64 time=0
EXTRACT: control_change channel=7 control=91 value=55 time=0
EXTRACT: control_change channel=7 control=93 value=20 time=0
EXTRACT: program_change channel=8 program=30 time=0.002
EXTRACT: control_change channel=8 control=7 value=82 time=0.0005
EXTRACT: control_change channel=8 control=10 value=64 time=0
EXTRACT: control_change channel=8 control=91 value=55 time=0
EXTRACT: control_change channel=8 control=93 value=20 time=0
EXTRACT: control_change channel=5 control=94 value=0 time=0.001
EXTRACT: program_change channel=9 program=24 time=0.001
EXTRACT: control_change channel=9 control=7 value=100 time=0.0005
EXTRACT: control_change channel=9 control=10 value=64 time=0
EXTRACT: control_change channel=9 control=91 value=55 time=0
EXTRACT: control_change channel=9 control=93 value=20 time=0
EXTRACT: control_change channel=5 control=101 value=0 time=0
EXTRACT: control_change channel=5 control=100 value=0 time=0.0005
EXTRACT: control_change channel=5 control=6 value=2 time=0.0005
EXTRACT: control_change channel=5 control=38 value=0 time=0.0005
EXTRACT: program_change channel=10 program=95 time=0.0005
EXTRACT: control_change channel=10 control=7 value=100 time=0.0005
EXTRACT: control_change channel=10 control=10 value=64 time=0
EXTRACT: control_change channel=10 control=91 value=55 time=0
EXTRACT: control_change channel=10 control=93 value=20 time=0
EXTRACT: pitchwheel channel=5 pitch=0 time=0.002
EXTRACT: program_change channel=11 program=81 time=0
EXTRACT: control_change channel=11 control=7 value=98 time=0.0005
EXTRACT: control_change channel=11 control=10 value=64 time=0
EXTRACT: control_change channel=11 control=91 value=55 time=0
EXTRACT: control_change channel=11 control=93 value=20 time=0
EXTRACT: control_change channel=5 control=1 value=0 time=0.0005
EXTRACT: control_change channel=12 control=0 value=0 time=0.0005
EXTRACT: control_change channel=12 control=32 value=0 time=0.0005
EXTRACT: program_change channel=12 program=0 time=0.0005
EXTRACT: control_change channel=12 control=7 value=100 time=0.0005
EXTRACT: control_change channel=12 control=10 value=64 time=0
EXTRACT: control_change channel=12 control=91 value=55 time=0
EXTRACT: control_change channel=12 control=93 value=20 time=0
EXTRACT: control_change channel=13 control=0 value=0 time=0.001
EXTRACT: control_change channel=13 control=32 value=0 time=0.0005
EXTRACT: program_change channel=13 program=0 time=0.0005
EXTRACT: control_change channel=13 control=7 value=100 time=0.0005
EXTRACT: control_change channel=13 control=10 value=64 time=0
EXTRACT: control_change channel=13 control=91 value=55 time=0
EXTRACT: control_change channel=13 control=93 value=20 time=0
EXTRACT: control_change channel=14 control=0 value=0 time=0.001
EXTRACT: control_change channel=14 control=32 value=0 time=0.0005
EXTRACT: program_change channel=14 program=0 time=0.0005
EXTRACT: control_change channel=14 control=7 value=100 time=0.0005
EXTRACT: control_change channel=14 control=10 value=64 time=0
EXTRACT: control_change channel=14 control=91 value=0 time=0
EXTRACT: control_change channel=14 control=93 value=0 time=0
EXTRACT: control_change channel=15 control=0 value=0 time=0.001
EXTRACT: control_change channel=15 control=32 value=0 time=0.0005
EXTRACT: control_change channel=6 control=94 value=0 time=0.0005
EXTRACT: program_change channel=15 program=0 time=0
EXTRACT: control_change channel=15 control=7 value=0 time=0.0005
EXTRACT: control_change channel=15 control=10 value=64 time=0
EXTRACT: control_change channel=15 control=91 value=0 time=0
EXTRACT: control_change channel=15 control=93 value=0 time=0
EXTRACT: control_change channel=6 control=101 value=0 time=0
EXTRACT: control_change channel=6 control=100 value=0 time=0.0005
EXTRACT: control_change channel=6 control=6 value=2 time=0.0005
EXTRACT: control_change channel=6 control=38 value=0 time=0.0005
EXTRACT: pitchwheel channel=6 pitch=0 time=0.004
EXTRACT: control_change channel=6 control=1 value=0 time=0.001
EXTRACT: control_change channel=7 control=94 value=0 time=0.009000000000000001
EXTRACT: control_change channel=7 control=101 value=0 time=0
EXTRACT: control_change channel=7 control=100 value=0 time=0.0005
EXTRACT: control_change channel=7 control=6 value=2 time=0.0005
EXTRACT: control_change channel=7 control=38 value=0 time=0.0005
EXTRACT: pitchwheel channel=7 pitch=0 time=0.0045000000000000005
EXTRACT: control_change channel=7 control=1 value=0 time=0.001
EXTRACT: control_change channel=8 control=94 value=0 time=0.009000000000000001
EXTRACT: control_change channel=8 control=101 value=0 time=0
EXTRACT: control_change channel=8 control=100 value=0 time=0.0005
EXTRACT: control_change channel=8 control=6 value=2 time=0.0005
EXTRACT: control_change channel=8 control=38 value=0 time=0.0005
EXTRACT: pitchwheel channel=8 pitch=0 time=0.0045000000000000005
EXTRACT: control_change channel=8 control=1 value=0 time=0.001
EXTRACT: control_change channel=9 control=94 value=0 time=0.009000000000000001
EXTRACT: pitchwheel channel=9 pitch=0 time=0.001
EXTRACT: control_change channel=9 control=1 value=0 time=0.001
EXTRACT: control_change channel=10 control=94 value=0 time=0.014
EXTRACT: control_change channel=10 control=101 value=0 time=0
EXTRACT: control_change channel=10 control=100 value=0 time=0.0005
EXTRACT: control_change channel=10 control=6 value=2 time=0.0005
EXTRACT: control_change channel=10 control=38 value=0 time=0.0005
EXTRACT: pitchwheel channel=10 pitch=0 time=0.0045000000000000005
EXTRACT: control_change channel=10 control=1 value=0 time=0.001
EXTRACT: control_change channel=11 control=94 value=0 time=0.009000000000000001
EXTRACT: control_change channel=11 control=101 value=0 time=0
EXTRACT: control_change channel=11 control=100 value=0 time=0.0005
EXTRACT: control_change channel=11 control=6 value=2 time=0.0005
EXTRACT: control_change channel=11 control=38 value=0 time=0.0005
EXTRACT: pitchwheel channel=11 pitch=0 time=0.0045000000000000005
EXTRACT: control_change channel=11 control=1 value=0 time=0.001
EXTRACT: control_change channel=12 control=94 value=0 time=0.009000000000000001
EXTRACT: control_change channel=12 control=101 value=0 time=0
EXTRACT: control_change channel=12 control=100 value=0 time=0.0005
EXTRACT: control_change channel=12 control=6 value=2 time=0.0005
EXTRACT: control_change channel=12 control=38 value=0 time=0.0005
EXTRACT: pitchwheel channel=12 pitch=0 time=0.0045000000000000005
EXTRACT: control_change channel=12 control=1 value=0 time=0.001
EXTRACT: control_change channel=13 control=94 value=0 time=0.009000000000000001
EXTRACT: control_change channel=13 control=101 value=0 time=0
EXTRACT: control_change channel=13 control=100 value=0 time=0.0005
EXTRACT: control_change channel=13 control=6 value=2 time=0.0005
EXTRACT: control_change channel=13 control=38 value=0 time=0.0005
EXTRACT: pitchwheel channel=13 pitch=0 time=0.0045000000000000005
EXTRACT: control_change channel=13 control=1 value=0 time=0.001
EXTRACT: control_change channel=14 control=94 value=0 time=0.009000000000000001
EXTRACT: control_change channel=14 control=101 value=0 time=0
EXTRACT: control_change channel=14 control=100 value=0 time=0.0005
EXTRACT: control_change channel=14 control=6 value=2 time=0.0005
EXTRACT: control_change channel=14 control=38 value=0 time=0.0005
EXTRACT: pitchwheel channel=14 pitch=0 time=0.0045000000000000005
EXTRACT: control_change channel=14 control=1 value=0 time=0.001
EXTRACT: control_change channel=15 control=94 value=0 time=0.009000000000000001
EXTRACT: control_change channel=15 control=101 value=0 time=0
EXTRACT: control_change channel=15 control=100 value=0 time=0.0005
EXTRACT: control_change channel=15 control=6 value=2 time=0.0005
EXTRACT: control_change channel=15 control=38 value=0 time=0.0005
EXTRACT: pitchwheel channel=15 pitch=0 time=0.0045000000000000005
EXTRACT: control_change channel=15 control=1 value=0 time=0.001
EXTRACT: note_on channel=1 note=28 velocity=127 time=1.2510000000000001
EXTRACT: note_on channel=2 note=56 velocity=122 time=0
EXTRACT: note_on channel=2 note=52 velocity=109 time=0
EXTRACT: note_on channel=2 note=59 velocity=114 time=0
EXTRACT: note_on channel=2 note=40 velocity=103 time=0
EXTRACT: note_on channel=5 note=56 velocity=122 time=0
EXTRACT: note_on channel=5 note=52 velocity=109 time=0
EXTRACT: note_on channel=5 note=59 velocity=114 time=0
EXTRACT: note_on channel=5 note=40 velocity=103 time=0
EXTRACT: note_on channel=9 note=35 velocity=107 time=0
EXTRACT: note_on channel=15 note=59 velocity=1 time=0
EXTRACT: note_on channel=15 note=52 velocity=1 time=0
EXTRACT: note_on channel=15 note=56 velocity=1 time=0
EXTRACT: note_on channel=9 note=35 velocity=0 time=0.1005
EXTRACT: note_on channel=3 note=66 velocity=124 time=0.1395
EXTRACT: note_on channel=3 note=68 velocity=122 time=0.24
EXTRACT: note_on channel=3 note=66 velocity=0 time=0.0135
EXTRACT: note_on channel=9 note=28 velocity=100 time=0.1065
EXTRACT: note_on channel=9 note=28 velocity=100 time=0.0125
EXTRACT: note_on channel=9 note=28 velocity=100 time=0.013000000000000001
EXTRACT: note_on channel=9 note=28 velocity=100 time=0.0125
EXTRACT: note_on channel=9 note=28 velocity=100 time=0.0125
EXTRACT: note_on channel=9 note=28 velocity=100 time=0.011
EXTRACT: note_on channel=9 note=28 velocity=100 time=0.0115
EXTRACT: note_on channel=9 note=28 velocity=100 time=0.0135
EXTRACT: note_on channel=9 note=28 velocity=100 time=0.0095
EXTRACT: note_on channel=9 note=28 velocity=100 time=0.011
EXTRACT: note_on channel=9 note=37 velocity=100 time=0.013000000000000001
EXTRACT: note_on channel=9 note=28 velocity=127 time=0
EXTRACT: note_on channel=9 note=76 velocity=105 time=0
EXTRACT: note_on channel=9 note=76 velocity=0 time=0.054
EXTRACT: note_on channel=9 note=28 velocity=0 time=0.007
EXTRACT: note_on channel=9 note=28 velocity=127 time=0.179
EXTRACT: note_on channel=9 note=76 velocity=109 time=0
EXTRACT: note_on channel=9 note=37 velocity=122 time=0
EXTRACT: note_on channel=3 note=68 velocity=0 time=0.054
EXTRACT: note_on channel=9 note=28 velocity=0 time=0.009000000000000001
EXTRACT: note_on channel=9 note=76 velocity=0 time=0.002
EXTRACT: note_on channel=9 note=37 velocity=0 time=0.002
EXTRACT: note_on channel=9 note=28 velocity=0 time=0.053
EXTRACT: note_on channel=9 note=28 velocity=0 time=0.0125
EXTRACT: note_on channel=9 note=28 velocity=0 time=0.013000000000000001
EXTRACT: note_on channel=9 note=28 velocity=0 time=0.0125
EXTRACT: note_on channel=9 note=28 velocity=0 time=0.0125
EXTRACT: note_on channel=9 note=28 velocity=0 time=0.011
EXTRACT: note_on channel=9 note=28 velocity=0 time=0.0115
EXTRACT: note_on channel=9 note=28 velocity=0 time=0.0135
EXTRACT: note_on channel=9 note=28 velocity=0 time=0.0095
EXTRACT: note_on channel=9 note=28 velocity=0 time=0.011
EXTRACT: note_on channel=9 note=37 velocity=0 time=0.013000000000000001
EXTRACT: note_on channel=1 note=28 velocity=0 time=0.1765
EXTRACT: note_on channel=1 note=28 velocity=116 time=0.0635
EXTRACT: note_on channel=9 note=35 velocity=109 time=0
EXTRACT: note_on channel=9 note=76 velocity=116 time=0
EXTRACT: note_on channel=9 note=28 velocity=127 time=0
EXTRACT: note_on channel=9 note=37 velocity=122 time=0
EXTRACT: note_on channel=9 note=76 velocity=0 time=0.062
EXTRACT: note_on channel=9 note=35 velocity=0 time=0.008
EXTRACT: note_on channel=9 note=28 velocity=0 time=0.003
EXTRACT: note_on channel=9 note=37 velocity=0 time=0.015
EXTRACT: note_on channel=9 note=76 velocity=114 time=0.632
EXTRACT: note_on channel=9 note=28 velocity=127 time=0
EXTRACT: note_on channel=9 note=37 velocity=114 time=0
EXTRACT: note_on channel=9 note=76 velocity=0 time=0.055
EXTRACT: note_on channel=9 note=28 velocity=0 time=0.0115
EXTRACT: note_on channel=9 note=37 velocity=0 time=0.0135
EXTRACT: note_on channel=10 note=71 velocity=119 time=0.1495
EXTRACT: note_on channel=9 note=60 velocity=103 time=0.0105
EXTRACT: note_on channel=9 note=60 velocity=0 time=0.07
EXTRACT: note_on channel=9 note=76 velocity=116 time=0.17
EXTRACT: note_on channel=9 note=28 velocity=127 time=0
EXTRACT: note_on channel=9 note=37 velocity=124 time=0
EXTRACT: note_on channel=10 note=71 velocity=0 time=0.011
EXTRACT: note_on channel=9 note=76 velocity=0 time=0.048
EXTRACT: note_on channel=9 note=28 velocity=0 time=0.0055
EXTRACT: note_on channel=9 note=37 velocity=0 time=0.0195
EXTRACT: note_on channel=1 note=28 velocity=0 time=0.13
EXTRACT: note_on channel=1 note=28 velocity=119 time=0.026000000000000002
EXTRACT: note_on channel=9 note=35 velocity=112 time=0
EXTRACT: note_on channel=9 note=35 velocity=0 time=0.069
EXTRACT: note_on channel=9 note=28 velocity=100 time=0.171
EXTRACT: note_on channel=9 note=28 velocity=100 time=0.0125
EXTRACT: note_on channel=9 note=28 velocity=100 time=0.013000000000000001
EXTRACT: note_on channel=9 note=28 velocity=100 time=0.0125
EXTRACT: note_on channel=9 note=28 velocity=100 time=0.0125
EXTRACT: note_on channel=9 note=28 velocity=100 time=0.011
EXTRACT: note_on channel=9 note=28 velocity=100 time=0.0115
EXTRACT: note_on channel=9 note=28 velocity=100 time=0.0135
EXTRACT: note_on channel=9 note=28 velocity=100 time=0.0095
EXTRACT: note_on channel=9 note=28 velocity=100 time=0.011
EXTRACT: note_on channel=9 note=28 velocity=127 time=0.013000000000000001
EXTRACT: note_on channel=9 note=28 velocity=0 time=0.061
EXTRACT: note_on channel=9 note=76 velocity=101 time=0.059000000000000004
EXTRACT: note_on channel=9 note=28 velocity=127 time=0
EXTRACT: note_on channel=9 note=37 velocity=112 time=0
EXTRACT: note_on channel=9 note=28 velocity=0 time=0.062
EXTRACT: note_on channel=9 note=37 velocity=0 time=0.0145
EXTRACT: note_on channel=9 note=76 velocity=0 time=0.0025
EXTRACT: note_on channel=9 note=28 velocity=0 time=0.161
EXTRACT: note_on channel=3 note=63 velocity=119 time=0
EXTRACT: note_on channel=9 note=76 velocity=116 time=0
EXTRACT: note_on channel=9 note=28 velocity=127 time=0
EXTRACT: note_on channel=9 note=37 velocity=114 time=0
EXTRACT: note_on channel=9 note=28 velocity=0 time=0.0125
EXTRACT: note_on channel=9 note=28 velocity=0 time=0.013000000000000001
EXTRACT: note_on channel=9 note=28 velocity=0 time=0.0125
EXTRACT: note_on channel=9 note=28 velocity=0 time=0.0125
EXTRACT: note_on channel=9 note=28 velocity=0 time=0.0095
EXTRACT: note_on channel=9 note=28 velocity=0 time=0.0015
EXTRACT: note_on channel=9 note=76 velocity=0 time=0.0075
EXTRACT: note_on channel=9 note=28 velocity=0 time=0.004
EXTRACT: note_on channel=9 note=37 velocity=0 time=0.004
EXTRACT: note_on channel=9 note=28 velocity=0 time=0.0095
EXTRACT: note_on channel=9 note=28 velocity=0 time=0.0095
EXTRACT: note_on channel=9 note=28 velocity=0 time=0.011
EXTRACT: note_on channel=2 note=40 velocity=0 time=0.0305
EXTRACT: note_on channel=5 note=40 velocity=0 time=0
EXTRACT: note_on channel=5 note=59 velocity=0 time=0.012
EXTRACT: note_on channel=2 note=59 velocity=0 time=0
EXTRACT: note_on channel=5 note=56 velocity=0 time=0.006
EXTRACT: note_on channel=2 note=56 velocity=0 time=0
EXTRACT: note_on channel=5 note=52 velocity=0 time=0.007
EXTRACT: note_on channel=2 note=52 velocity=0 time=0
EXTRACT: note_on channel=10 note=66 velocity=127 time=0.0505
EXTRACT: note_on channel=1 note=28 velocity=0 time=0.0075
EXTRACT: note_on channel=15 note=56 velocity=0 time=0.0195
EXTRACT: note_on channel=15 note=59 velocity=0 time=0
EXTRACT: note_on channel=15 note=52 velocity=0 time=0
EXTRACT: note_on channel=1 note=30 velocity=127 time=0
EXTRACT: note_on channel=2 note=58 velocity=122 time=0
EXTRACT: note_on channel=2 note=61 velocity=124 time=0
EXTRACT: note_on channel=2 note=54 velocity=116 time=0
EXTRACT: note_on channel=2 note=42 velocity=109 time=0
EXTRACT: note_on channel=5 note=58 velocity=122 time=0
EXTRACT: note_on channel=5 note=61 velocity=124 time=0
EXTRACT: note_on channel=5 note=54 velocity=116 time=0
EXTRACT: note_on channel=5 note=42 velocity=109 time=0
EXTRACT: note_on channel=9 note=35 velocity=107 time=0
EXTRACT: note_on channel=15 note=58 velocity=1 time=0
EXTRACT: note_on channel=15 note=54 velocity=1 time=0
EXTRACT: note_on channel=15 note=61 velocity=1 time=0
EXTRACT: note_on channel=3 note=63 velocity=0 time=0.078
EXTRACT: note_on channel=9 note=35 velocity=0 time=0.0225
EXTRACT: note_on channel=3 note=66 velocity=119 time=0.0195
EXTRACT: note_on channel=10 note=66 velocity=0 time=0.165
EXTRACT: note_on channel=3 note=66 velocity=0 time=0.036000000000000004
EXTRACT: note_on channel=3 note=68 velocity=127 time=0.159
EXTRACT: note_on channel=9 note=28 velocity=100 time=0.12
EXTRACT: note_on channel=9 note=28 velocity=100 time=0.0125
EXTRACT: note_on channel=9 note=28 velocity=100 time=0.013000000000000001
EXTRACT: note_on channel=9 note=28 velocity=100 time=0.0125
EXTRACT: note_on channel=9 note=28 velocity=100 time=0.0125
EXTRACT: note_on channel=9 note=28 velocity=100 time=0.011
EXTRACT: note_on channel=9 note=28 velocity=100 time=0.0115
EXTRACT: note_on channel=9 note=28 velocity=100 time=0.0135
EXTRACT: note_on channel=9 note=28 velocity=100 time=0.0095
EXTRACT: note_on channel=9 note=28 velocity=100 time=0.011
EXTRACT: note_on channel=9 note=37 velocity=100 time=0.013000000000000001
EXTRACT: note_on channel=9 note=28 velocity=127 time=0
EXTRACT: note_on channel=9 note=76 velocity=105 time=0
EXTRACT: note_on channel=9 note=76 velocity=0 time=0.054
EXTRACT: note_on channel=9 note=28 velocity=0 time=0.007
EXTRACT: note_on channel=3 note=68 velocity=0 time=0.035
EXTRACT: note_on channel=9 note=28 velocity=127 time=0.14400000000000002
EXTRACT: note_on channel=9 note=76 velocity=109 time=0
EXTRACT: note_on channel=9 note=37 velocity=122 time=0
EXTRACT: note_on channel=9 note=28 velocity=0 time=0.063
EXTRACT: note_on channel=9 note=76 velocity=0 time=0.002
EXTRACT: note_on channel=9 note=37 velocity=0 time=0.002
EXTRACT: note_on channel=9 note=28 velocity=0 time=0.053
EXTRACT: note_on channel=9 note=28 velocity=0 time=0.0125
EXTRACT: note_on channel=9 note=28 velocity=0 time=0.013000000000000001
EXTRACT: note_on channel=9 note=28 velocity=0 time=0.0125
EXTRACT: note_on channel=9 note=28 velocity=0 time=0.0125
EXTRACT: note_on channel=9 note=28 velocity=0 time=0.011
EXTRACT: note_on channel=9 note=28 velocity=0 time=0.0115
EXTRACT: note_on channel=9 note=28 velocity=0 time=0.0135
EXTRACT: note_on channel=9 note=28 velocity=0 time=0.0095
EXTRACT: note_on channel=9 note=28 velocity=0 time=0.011
EXTRACT: note_on channel=9 note=37 velocity=0 time=0.013000000000000001
EXTRACT: note_on channel=3 note=61 velocity=122 time=0
EXTRACT: note_on channel=3 note=61 velocity=0 time=0.06
EXTRACT: note_on channel=1 note=30 velocity=0 time=0.1125
EXTRACT: note_on channel=1 note=30 velocity=119 time=0.0675
EXTRACT: note_on channel=3 note=61 velocity=124 time=0
EXTRACT: note_on channel=9 note=35 velocity=109 time=0
EXTRACT: note_on channel=9 note=76 velocity=116 time=0
EXTRACT: note_on channel=9 note=28 velocity=127 time=0
EXTRACT: note_on channel=9 note=37 velocity=122 time=0
EXTRACT: note_on channel=9 note=76 velocity=0 time=0.062
EXTRACT: note_on channel=9 note=35 velocity=0 time=0.008
EXTRACT: note_on channel=9 note=28 velocity=0 time=0.003
EXTRACT: note_on channel=9 note=37 velocity=0 time=0.015
EXTRACT: note_on channel=3 note=61 velocity=0 time=0.20550000000000002
EXTRACT: note_on channel=3 note=61 velocity=116 time=0.1865
EXTRACT: note_on channel=3 note=61 velocity=0 time=0.1155
EXTRACT: note_on channel=3 note=61 velocity=105 time=0.1245
EXTRACT: note_on channel=9 note=76 velocity=114 time=0
EXTRACT: note_on channel=9 note=28 velocity=127 time=0
EXTRACT: note_on channel=9 note=37 velocity=114 time=0
EXTRACT: note_on channel=9 note=76 velocity=0 time=0.055
EXTRACT: note_on channel=9 note=28 velocity=0 time=0.0115
EXTRACT: note_on channel=9 note=37 velocity=0 time=0.0135
EXTRACT: note_on channel=3 note=61 velocity=0 time=0.131
EXTRACT: note_on channel=7 note=83 velocity=109 time=0.029
EXTRACT: note_on channel=9 note=60 velocity=103 time=0
EXTRACT: note_on channel=9 note=60 velocity=0 time=0.07
EXTRACT: note_on channel=7 note=83 velocity=0 time=0.10200000000000001
EXTRACT: note_on channel=7 note=83 velocity=109 time=0.068
EXTRACT: note_on channel=9 note=76 velocity=116 time=0
EXTRACT: note_on channel=9 note=28 velocity=127 time=0
EXTRACT: note_on channel=9 note=37 velocity=124 time=0
EXTRACT: note_on channel=9 note=76 velocity=0 time=0.059000000000000004
EXTRACT: note_on channel=9 note=28 velocity=0 time=0.0055
EXTRACT: note_on channel=9 note=37 velocity=0 time=0.0195
EXTRACT: note_on channel=1 note=30 velocity=0 time=0.084
EXTRACT: note_on channel=2 note=61 velocity=0 time=0.0045000000000000005
EXTRACT: note_on channel=5 note=61 velocity=0 time=0
EXTRACT: note_on channel=10 note=61 velocity=98 time=0.0395
EXTRACT: note_on channel=7 note=83 velocity=0 time=0.0095
EXTRACT: note_on channel=1 note=30 velocity=124 time=0.0185
EXTRACT: note_on channel=2 note=61 velocity=124 time=0
EXTRACT: note_on channel=5 note=61 velocity=124 time=0
EXTRACT: note_on channel=9 note=35 velocity=112 time=0
EXTRACT: note_on channel=9 note=35 velocity=0 time=0.069
EXTRACT: note_on channel=9 note=28 velocity=100 time=0.171
EXTRACT: note_on channel=9 note=28 velocity=100 time=0.0125
EXTRACT: note_on channel=9 note=28 velocity=100 time=0.013000000000000001
EXTRACT: note_on channel=9 note=28 velocity=100 time=0.0125
EXTRACT: note_on channel=9 note=28 velocity=100 time=0.0125
EXTRACT: note_on channel=9 note=28 velocity=100 time=0.011
EXTRACT: note_on channel=9 note=28 velocity=100 time=0.0115
EXTRACT: note_on channel=9 note=28 velocity=100 time=0.0135
EXTRACT: note_on channel=9 note=28 velocity=100 time=0.0095
EXTRACT: note_on channel=9 note=28 velocity=100 time=0.011
EXTRACT: note_on channel=9 note=28 velocity=127 time=0.013000000000000001
EXTRACT: note_on channel=9 note=28 velocity=0 time=0.061
EXTRACT: note_on channel=10 note=63 velocity=101 time=0.001
EXTRACT: note_on channel=5 note=58 velocity=0 time=0.0025
EXTRACT: note_on channel=2 note=58 velocity=0 time=0
EXTRACT: note_on channel=10 note=61 velocity=0 time=0.0005
EXTRACT: note_on channel=1 note=27 velocity=114 time=0.055
EXTRACT: note_on channel=2 note=58 velocity=119 time=0
EXTRACT: note_on channel=5 note=58 velocity=119 time=0
EXTRACT: note_on channel=9 note=76 velocity=101 time=0
EXTRACT: note_on channel=9 note=28 velocity=127 time=0
EXTRACT: note_on channel=9 note=37 velocity=112 time=0
EXTRACT: note_on channel=1 note=30 velocity=0 time=0.007
EXTRACT: note_on channel=2 note=61 velocity=0 time=0.044
EXTRACT: note_on channel=5 note=61 velocity=0 time=0
EXTRACT: note_on channel=9 note=28 velocity=0 time=0.011
EXTRACT: note_on channel=9 note=37 velocity=0 time=0.0145
EXTRACT: note_on channel=9 note=76 velocity=0 time=0.0025
EXTRACT: note_on channel=9 note=28 velocity=0 time=0.161
EXTRACT: note_on channel=3 note=63 velocity=116 time=0
EXTRACT: note_on channel=9 note=76 velocity=116 time=0
EXTRACT: note_on channel=9 note=28 velocity=127 time=0
EXTRACT: note_on channel=9 note=37 velocity=114 time=0
EXTRACT: note_on channel=9 note=28 velocity=0 time=0.0125
EXTRACT: note_on channel=9 note=28 velocity=0 time=0.013000000000000001
EXTRACT: note_on channel=9 note=28 velocity=0 time=0.0125
EXTRACT: note_on channel=9 note=28 velocity=0 time=0.0125
EXTRACT: note_on channel=9 note=28 velocity=0 time=0.0095
EXTRACT: note_on channel=9 note=28 velocity=0 time=0.0015
EXTRACT: note_on channel=9 note=76 velocity=0 time=0.0075
EXTRACT: note_on channel=9 note=28 velocity=0 time=0.004
EXTRACT: note_on channel=9 note=37 velocity=0 time=0.004
EXTRACT: note_on channel=9 note=28 velocity=0 time=0.0095
EXTRACT: note_on channel=9 note=28 velocity=0 time=0.0095
EXTRACT: note_on channel=9 note=28 velocity=0 time=0.011
EXTRACT: note_on channel=5 note=54 velocity=0 time=0.0385
EXTRACT: note_on channel=2 note=54 velocity=0 time=0
EXTRACT: note_on channel=5 note=42 velocity=0 time=0.047
EXTRACT: note_on channel=2 note=42 velocity=0 time=0
EXTRACT: note_on channel=10 note=66 velocity=103 time=0.0115
EXTRACT: note_on channel=5 note=58 velocity=0 time=0.0035
EXTRACT: note_on channel=2 note=58 velocity=0 time=0
EXTRACT: note_on channel=10 note=63 velocity=0 time=0.0135
EXTRACT: note_on channel=1 note=27 velocity=0 time=0.0015
EXTRACT: note_on channel=15 note=58 velocity=0 time=0.0175
EXTRACT: note_on channel=15 note=54 velocity=0 time=0
EXTRACT: note_on channel=15 note=61 velocity=0 time=0
EXTRACT: note_on channel=1 note=28 velocity=127 time=0
EXTRACT: note_on channel=2 note=56 velocity=116 time=0
EXTRACT: note_on channel=2 note=59 velocity=96 time=0
EXTRACT: note_on channel=2 note=52 velocity=109 time=0
EXTRACT: note_on channel=2 note=47 velocity=114 time=0
EXTRACT: note_on channel=2 note=40 velocity=103 time=0
EXTRACT: note_on channel=5 note=56 velocity=116 time=0
EXTRACT: note_on channel=5 note=59 velocity=96 time=0
EXTRACT: note_on channel=5 note=52 velocity=109 time=0
EXTRACT: note_on channel=5 note=47 velocity=114 time=0
EXTRACT: note_on channel=5 note=40 velocity=103 time=0
EXTRACT: note_on channel=9 note=35 velocity=107 time=0
EXTRACT: note_on channel=15 note=56 velocity=1 time=0
EXTRACT: note_on channel=15 note=52 velocity=1 time=0
EXTRACT: note_on channel=15 note=59 velocity=1 time=0
EXTRACT: note_on channel=3 note=63 velocity=0 time=0.0735
EXTRACT: note_on channel=9 note=35 velocity=0 time=0.027
EXTRACT: note_on channel=3 note=66 velocity=119 time=0.0195
EXTRACT: note_on channel=3 note=66 velocity=0 time=0.23450000000000001
EXTRACT: note_on channel=3 note=68 velocity=127 time=0.1255
EXTRACT: note_on channel=9 note=28 velocity=100 time=0.12
EXTRACT: note_on channel=9 note=28 velocity=100 time=0.0125
EXTRACT: note_on channel=9 note=28 velocity=100 time=0.013000000000000001
EXTRACT: note_on channel=9 note=28 velocity=100 time=0.0125
EXTRACT: note_on channel=9 note=28 velocity=100 time=0.0125
EXTRACT: note_on channel=9 note=28 velocity=100 time=0.011
EXTRACT: note_on channel=9 note=28 velocity=100 time=0.0115
EXTRACT: note_on channel=9 note=28 velocity=100 time=0.0135
EXTRACT: note_on channel=9 note=28 velocity=100 time=0.0095
EXTRACT: note_on channel=9 note=28 velocity=100 time=0.011
EXTRACT: note_on channel=9 note=37 velocity=100 time=0.013000000000000001
EXTRACT: note_on channel=9 note=28 velocity=127 time=0
EXTRACT: note_on channel=9 note=76 velocity=105 time=0
EXTRACT: note_on channel=9 note=76 velocity=0 time=0.054
EXTRACT: note_on channel=9 note=28 velocity=0 time=0.007
EXTRACT: note_on channel=9 note=28 velocity=127 time=0.179
EXTRACT: note_on channel=9 note=76 velocity=109 time=0
EXTRACT: note_on channel=9 note=37 velocity=122 time=0
EXTRACT: note_on channel=3 note=68 velocity=0 time=0.0275
EXTRACT: note_on channel=10 note=66 velocity=0 time=0.003
EXTRACT: note_on channel=9 note=28 velocity=0 time=0.0325
EXTRACT: note_on channel=9 note=76 velocity=0 time=0.002
EXTRACT: note_on channel=9 note=37 velocity=0 time=0.002
EXTRACT: note_on channel=9 note=28 velocity=0 time=0.053
EXTRACT: note_on channel=9 note=28 velocity=0 time=0.0125
EXTRACT: note_on channel=9 note=28 velocity=0 time=0.013000000000000001
EXTRACT: note_on channel=9 note=28 velocity=0 time=0.0125
EXTRACT: note_on channel=9 note=28 velocity=0 time=0.0125
EXTRACT: note_on channel=9 note=28 velocity=0 time=0.011
EXTRACT: note_on channel=9 note=28 velocity=0 time=0.0115
EXTRACT: note_on channel=9 note=28 velocity=0 time=0.0135
EXTRACT: note_on channel=9 note=28 velocity=0 time=0.0095
EXTRACT: note_on channel=9 note=28 velocity=0 time=0.011
EXTRACT: note_on channel=9 note=37 velocity=0 time=0.013000000000000001
EXTRACT: note_on channel=1 note=28 velocity=0 time=0.1765
EXTRACT: note_on channel=1 note=28 velocity=116 time=0.0635
EXTRACT: note_on channel=9 note=35 velocity=109 time=0
EXTRACT: note_on channel=9 note=76 velocity=116 time=0
EXTRACT: note_on channel=9 note=28 velocity=127 time=0
EXTRACT: note_on channel=9 note=37 velocity=122 time=0
EXTRACT: note_on channel=9 note=76 velocity=0 time=0.062
EXTRACT: note_on channel=9 note=35 velocity=0 time=0.008
EXTRACT: note_on channel=9 note=28 velocity=0 time=0.003
EXTRACT: note_on channel=9 note=37 velocity=0 time=0.015
EXTRACT: note_on channel=10 note=66 velocity=116 time=0.368
EXTRACT: note_on channel=10 note=68 velocity=114 time=0.227
EXTRACT: note_on channel=10 note=66 velocity=0 time=0.008
EXTRACT: note_on channel=9 note=76 velocity=114 time=0.029
EXTRACT: note_on channel=9 note=28 velocity=127 time=0
EXTRACT: note_on channel=9 note=37 velocity=114 time=0
EXTRACT: note_on channel=9 note=76 velocity=0 time=0.055
EXTRACT: note_on channel=9 note=28 velocity=0 time=0.0115
EXTRACT: note_on channel=9 note=37 velocity=0 time=0.0135
EXTRACT: note_on channel=10 note=68 velocity=0 time=0.07050000000000001
EXTRACT: note_on channel=10 note=71 velocity=105 time=0.042
EXTRACT: note_on channel=9 note=60 velocity=103 time=0.0475
EXTRACT: note_on channel=9 note=60 velocity=0 time=0.07
EXTRACT: note_on channel=10 note=71 velocity=0 time=0.106
EXTRACT: note_on channel=10 note=66 velocity=122 time=0.043000000000000003
EXTRACT: note_on channel=9 note=76 velocity=116 time=0.021
EXTRACT: note_on channel=9 note=28 velocity=127 time=0
EXTRACT: note_on channel=9 note=37 velocity=124 time=0
EXTRACT: note_on channel=9 note=76 velocity=0 time=0.059000000000000004
EXTRACT: note_on channel=9 note=28 velocity=0 time=0.0055
EXTRACT: note_on channel=9 note=37 velocity=0 time=0.0195
EXTRACT: note_on channel=1 note=28 velocity=0 time=0.13
EXTRACT: note_on channel=1 note=28 velocity=119 time=0.026000000000000002
EXTRACT: note_on channel=9 note=35 velocity=112 time=0
EXTRACT: note_on channel=10 note=66 velocity=0 time=0.029500000000000002
EXTRACT: note_on channel=9 note=35 velocity=0 time=0.0395
EXTRACT: note_on channel=10 note=63 velocity=124 time=0.16
EXTRACT: note_on channel=9 note=28 velocity=100 time=0.011
EXTRACT: note_on channel=9 note=28 velocity=100 time=0.0125
EXTRACT: note_on channel=9 note=28 velocity=100 time=0.013000000000000001
EXTRACT: note_on channel=9 note=28 velocity=100 time=0.0125
EXTRACT: note_on channel=9 note=28 velocity=100 time=0.0125
EXTRACT: note_on channel=9 note=28 velocity=100 time=0.011
EXTRACT: note_on channel=9 note=28 velocity=100 time=0.0115
EXTRACT: note_on channel=9 note=28 velocity=100 time=0.0135
EXTRACT: note_on channel=9 note=28 velocity=100 time=0.0095
EXTRACT: note_on channel=9 note=28 velocity=100 time=0.011
EXTRACT: note_on channel=9 note=28 velocity=127 time=0.013000000000000001
EXTRACT: note_on channel=9 note=28 velocity=0 time=0.061
EXTRACT: note_on channel=9 note=76 velocity=101 time=0.059000000000000004
EXTRACT: note_on channel=9 note=28 velocity=127 time=0
EXTRACT: note_on channel=9 note=37 velocity=112 time=0
EXTRACT: note_on channel=9 note=28 velocity=0 time=0.062
EXTRACT: note_on channel=10 note=63 velocity=0 time=0.012
EXTRACT: note_on channel=9 note=37 velocity=0 time=0.0025
EXTRACT: note_on channel=9 note=76 velocity=0 time=0.0025
EXTRACT: note_on channel=3 note=63 velocity=122 time=0.1005
EXTRACT: note_on channel=9 note=28 velocity=0 time=0.0605
EXTRACT: note_on channel=9 note=76 velocity=116 time=0
EXTRACT: note_on channel=9 note=28 velocity=127 time=0
EXTRACT: note_on channel=9 note=37 velocity=114 time=0
EXTRACT: note_on channel=9 note=28 velocity=0 time=0.0125
EXTRACT: note_on channel=9 note=28 velocity=0 time=0.013000000000000001
EXTRACT: note_on channel=9 note=28 velocity=0 time=0.0125
EXTRACT: note_on channel=9 note=28 velocity=0 time=0.0125
EXTRACT: note_on channel=9 note=28 velocity=0 time=0.0095
EXTRACT: note_on channel=9 note=28 velocity=0 time=0.0015
EXTRACT: note_on channel=9 note=76 velocity=0 time=0.0075
EXTRACT: note_on channel=9 note=28 velocity=0 time=0.004
EXTRACT: note_on channel=9 note=37 velocity=0 time=0.004
EXTRACT: note_on channel=9 note=28 velocity=0 time=0.0095
EXTRACT: note_on channel=9 note=28 velocity=0 time=0.0095
EXTRACT: note_on channel=9 note=28 velocity=0 time=0.011
EXTRACT: note_on channel=5 note=47 velocity=0 time=0.054
EXTRACT: note_on channel=2 note=47 velocity=0 time=0
EXTRACT: note_on channel=2 note=40 velocity=0 time=0.012
EXTRACT: note_on channel=5 note=40 velocity=0 time=0
EXTRACT: note_on channel=5 note=52 velocity=0 time=0.005
EXTRACT: note_on channel=2 note=52 velocity=0 time=0
EXTRACT: note_on channel=5 note=56 velocity=0 time=0.024
EXTRACT: note_on channel=2 note=56 velocity=0 time=0
EXTRACT: note_on channel=2 note=59 velocity=0 time=0.004
EXTRACT: note_on channel=5 note=59 velocity=0 time=0
EXTRACT: note_on channel=1 note=28 velocity=0 time=0.0145
EXTRACT: note_on channel=10 note=61 velocity=127 time=0.019
EXTRACT: note_on channel=15 note=59 velocity=0 time=0.0005
EXTRACT: note_on channel=15 note=56 velocity=0 time=0
EXTRACT: note_on channel=15 note=52 velocity=0 time=0
EXTRACT: note_on channel=1 note=30 velocity=124 time=0
EXTRACT: note_on channel=2 note=42 velocity=103 time=0
EXTRACT: note_on channel=2 note=58 velocity=116 time=0
EXTRACT: note_on channel=2 note=54 velocity=119 time=0
EXTRACT: note_on channel=2 note=61 velocity=124 time=0
EXTRACT: note_on channel=5 note=42 velocity=103 time=0
EXTRACT: note_on channel=5 note=58 velocity=116 time=0
EXTRACT: note_on channel=5 note=54 velocity=119 time=0
EXTRACT: note_on channel=5 note=61 velocity=124 time=0
EXTRACT: note_on channel=9 note=35 velocity=107 time=0
EXTRACT: note_on channel=15 note=54 velocity=1 time=0
EXTRACT: note_on channel=15 note=61 velocity=1 time=0
EXTRACT: note_on channel=15 note=58 velocity=1 time=0
EXTRACT: note_on channel=3 note=63 velocity=0 time=0.03
EXTRACT: note_on channel=9 note=35 velocity=0 time=0.07050000000000001
EXTRACT: note_on channel=3 note=66 velocity=122 time=0.0155
EXTRACT: note_on channel=3 note=66 velocity=0 time=0.1915
EXTRACT: note_on channel=10 note=61 velocity=0 time=0.109
EXTRACT: note_on channel=3 note=68 velocity=119 time=0.038
EXTRACT: note_on channel=9 note=28 velocity=100 time=0.1455
EXTRACT: note_on channel=9 note=28 velocity=100 time=0.0125
EXTRACT: note_on channel=9 note=28 velocity=100 time=0.013000000000000001
EXTRACT: note_on channel=9 note=28 velocity=100 time=0.0125
EXTRACT: note_on channel=9 note=28 velocity=100 time=0.0125
EXTRACT: note_on channel=9 note=28 velocity=100 time=0.011
EXTRACT: note_on channel=9 note=28 velocity=100 time=0.0115
EXTRACT: note_on channel=9 note=28 velocity=100 time=0.0135
EXTRACT: note_on channel=9 note=28 velocity=100 time=0.0095
EXTRACT: note_on channel=9 note=28 velocity=100 time=0.011
EXTRACT: note_on channel=9 note=37 velocity=100 time=0.013000000000000001
EXTRACT: note_on channel=9 note=28 velocity=127 time=0
EXTRACT: note_on channel=9 note=76 velocity=105 time=0
EXTRACT: note_on channel=9 note=76 velocity=0 time=0.054
EXTRACT: note_on channel=9 note=28 velocity=0 time=0.007
EXTRACT: note_on channel=9 note=28 velocity=127 time=0.179
EXTRACT: note_on channel=9 note=76 velocity=109 time=0
EXTRACT: note_on channel=9 note=37 velocity=122 time=0
EXTRACT: note_on channel=3 note=68 velocity=0 time=0.0105
EXTRACT: note_on channel=9 note=28 velocity=0 time=0.0525
EXTRACT: note_on channel=9 note=76 velocity=0 time=0.002
EXTRACT: note_on channel=9 note=37 velocity=0 time=0.002
EXTRACT: note_on channel=9 note=28 velocity=0 time=0.053
EXTRACT: note_on channel=9 note=28 velocity=0 time=0.0125
EXTRACT: note_on channel=3 note=61 velocity=116 time=0.0025
EXTRACT: note_on channel=9 note=28 velocity=0 time=0.0105
EXTRACT: note_on channel=9 note=28 velocity=0 time=0.0125
EXTRACT: note_on channel=9 note=28 velocity=0 time=0.0125
EXTRACT: note_on channel=9 note=28 velocity=0 time=0.011
EXTRACT: note_on channel=9 note=28 velocity=0 time=0.0115
EXTRACT: note_on channel=3 note=61 velocity=0 time=0.013000000000000001
EXTRACT: note_on channel=9 note=28 velocity=0 time=0.0005
EXTRACT: note_on channel=9 note=28 velocity=0 time=0.0095
EXTRACT: note_on channel=9 note=28 velocity=0 time=0.011
EXTRACT: note_on channel=9 note=37 velocity=0 time=0.013000000000000001
EXTRACT: note_on channel=1 note=30 velocity=0 time=0.20650000000000002
EXTRACT: note_on channel=5 note=54 velocity=0 time=0.0075
EXTRACT: note_on channel=2 note=54 velocity=0 time=0
EXTRACT: note_on channel=5 note=42 velocity=0 time=0.007
EXTRACT: note_on channel=2 note=42 velocity=0 time=0
EXTRACT: note_on channel=5 note=58 velocity=0 time=0.006
EXTRACT: note_on channel=2 note=58 velocity=0 time=0
EXTRACT: note_on channel=2 note=61 velocity=0 time=0.003
EXTRACT: note_on channel=5 note=61 velocity=0 time=0
EXTRACT: note_on channel=15 note=61 velocity=0 time=0.01
EXTRACT: note_on channel=15 note=54 velocity=0 time=0
EXTRACT: note_on channel=15 note=58 velocity=0 time=0
EXTRACT: note_on channel=1 note=35 velocity=119 time=0
EXTRACT: note_on channel=2 note=59 velocity=109 time=0
EXTRACT: note_on channel=2 note=63 velocity=116 time=0
EXTRACT: note_on channel=2 note=54 velocity=114 time=0
EXTRACT: note_on channel=2 note=47 velocity=91 time=0
EXTRACT: note_on channel=5 note=59 velocity=109 time=0
EXTRACT: note_on channel=5 note=63 velocity=116 time=0
EXTRACT: note_on channel=5 note=54 velocity=114 time=0
EXTRACT: note_on channel=5 note=47 velocity=91 time=0
EXTRACT: note_on channel=7 note=83 velocity=124 time=0
EXTRACT: note_on channel=9 note=35 velocity=109 time=0
EXTRACT: note_on channel=9 note=76 velocity=116 time=0
EXTRACT: note_on channel=9 note=28 velocity=127 time=0
EXTRACT: note_on channel=9 note=37 velocity=122 time=0
EXTRACT: note_on channel=15 note=66 velocity=1 time=0
EXTRACT: note_on channel=15 note=63 velocity=1 time=0
EXTRACT: note_on channel=15 note=59 velocity=1 time=0
EXTRACT: note_on channel=9 note=76 velocity=0 time=0.062
EXTRACT: note_on channel=9 note=35 velocity=0 time=0.008
EXTRACT: note_on channel=9 note=28 velocity=0 time=0.003
EXTRACT: note_on channel=9 note=37 velocity=0 time=0.015
EXTRACT: note_on channel=3 note=61 velocity=124 time=0.138
EXTRACT: note_on channel=7 note=83 velocity=0 time=0.0635
EXTRACT: note_on channel=3 note=61 velocity=0 time=0.201
EXTRACT: note_on channel=3 note=61 velocity=124 time=0.1815
EXTRACT: note_on channel=9 note=76 velocity=114 time=0.048
EXTRACT: note_on channel=9 note=28 velocity=127 time=0
EXTRACT: note_on channel=9 note=37 velocity=114 time=0
EXTRACT: note_on channel=9 note=76 velocity=0 time=0.055
EXTRACT: note_on channel=9 note=28 velocity=0 time=0.0115
EXTRACT: note_on channel=9 note=37 velocity=0 time=0.0135
EXTRACT: note_on channel=3 note=61 velocity=0 time=0.158
EXTRACT: note_on channel=7 note=83 velocity=116 time=0.002
EXTRACT: note_on channel=9 note=60 velocity=103 time=0
EXTRACT: note_on channel=9 note=60 velocity=0 time=0.07
EXTRACT: note_on channel=7 note=83 velocity=0 time=0.1
EXTRACT: note_on channel=7 note=83 velocity=114 time=0.07
EXTRACT: note_on channel=9 note=76 velocity=116 time=0
EXTRACT: note_on channel=9 note=28 velocity=127 time=0
EXTRACT: note_on channel=9 note=37 velocity=124 time=0
EXTRACT: note_on channel=9 note=76 velocity=0 time=0.059000000000000004
EXTRACT: note_on channel=9 note=28 velocity=0 time=0.0055
EXTRACT: note_on channel=9 note=37 velocity=0 time=0.0195
EXTRACT: note_on channel=1 note=35 velocity=0 time=0.117
EXTRACT: note_on channel=7 note=83 velocity=0 time=0.021
EXTRACT: note_on channel=1 note=47 velocity=127 time=0.018000000000000002
EXTRACT: note_on channel=9 note=35 velocity=112 time=0
EXTRACT: note_on channel=9 note=35 velocity=0 time=0.069
EXTRACT: note_on channel=3 note=63 velocity=112 time=0.171
EXTRACT: note_on channel=9 note=28 velocity=100 time=0
EXTRACT: note_on channel=9 note=28 velocity=100 time=0.0125
EXTRACT: note_on channel=9 note=28 velocity=100 time=0.013000000000000001
EXTRACT: note_on channel=9 note=28 velocity=100 time=0.0125
EXTRACT: note_on channel=9 note=28 velocity=100 time=0.0125
EXTRACT: note_on channel=3 note=63 velocity=0 time=0.008
EXTRACT: note_on channel=9 note=28 velocity=100 time=0.003
EXTRACT: note_on channel=9 note=28 velocity=100 time=0.0115
EXTRACT: note_on channel=9 note=28 velocity=100 time=0.0135
EXTRACT: note_on channel=9 note=28 velocity=100 time=0.0095
EXTRACT: note_on channel=9 note=28 velocity=100 time=0.011
EXTRACT: note_on channel=9 note=28 velocity=127 time=0.013000000000000001
EXTRACT: note_on channel=9 note=28 velocity=0 time=0.061
EXTRACT: note_on channel=1 note=47 velocity=0 time=0.044
EXTRACT: note_on channel=1 note=35 velocity=124 time=0.015
EXTRACT: note_on channel=3 note=63 velocity=112 time=0
EXTRACT: note_on channel=9 note=76 velocity=101 time=0
EXTRACT: note_on channel=9 note=28 velocity=127 time=0
EXTRACT: note_on channel=9 note=37 velocity=112 time=0
EXTRACT: note_on channel=9 note=28 velocity=0 time=0.062
EXTRACT: note_on channel=3 note=63 velocity=0 time=0.0115
EXTRACT: note_on channel=9 note=37 velocity=0 time=0.003
EXTRACT: note_on channel=9 note=76 velocity=0 time=0.0025
EXTRACT: note_on channel=9 note=28 velocity=0 time=0.161
EXTRACT: note_on channel=3 note=63 velocity=119 time=0
EXTRACT: note_on channel=9 note=76 velocity=116 time=0
EXTRACT: note_on channel=9 note=28 velocity=127 time=0
EXTRACT: note_on channel=9 note=37 velocity=114 time=0
EXTRACT: note_on channel=9 note=28 velocity=0 time=0.0125
EXTRACT: note_on channel=9 note=28 velocity=0 time=0.013000000000000001
EXTRACT: note_on channel=9 note=28 velocity=0 time=0.0125
EXTRACT: note_on channel=9 note=28 velocity=0 time=0.0125
EXTRACT: note_on channel=9 note=28 velocity=0 time=0.0095
EXTRACT: note_on channel=9 note=28 velocity=0 time=0.0015
EXTRACT: note_on channel=9 note=76 velocity=0 time=0.0075
EXTRACT: note_on channel=9 note=28 velocity=0 time=0.004
EXTRACT: note_on channel=9 note=37 velocity=0 time=0.004
EXTRACT: note_on channel=9 note=28 velocity=0 time=0.0095
EXTRACT: note_on channel=3 note=63 velocity=0 time=0.006
EXTRACT: note_on channel=9 note=28 velocity=0 time=0.0035
EXTRACT: note_on channel=9 note=28 velocity=0 time=0.011
EXTRACT: note_on channel=5 note=54 velocity=0 time=0.1315
EXTRACT: note_on channel=2 note=54 velocity=0 time=0
EXTRACT: note_on channel=15 note=66 velocity=0 time=0.0015
EXTRACT: note_on channel=1 note=35 velocity=0 time=0
EXTRACT: note_on channel=15 note=59 velocity=0 time=0
EXTRACT: note_on channel=15 note=63 velocity=0 time=0
EXTRACT: note_on channel=1 note=28 velocity=127 time=0
EXTRACT: note_on channel=2 note=56 velocity=122 time=0
EXTRACT: note_on channel=2 note=52 velocity=109 time=0
EXTRACT: note_on channel=2 note=59 velocity=114 time=0
EXTRACT: note_on channel=2 note=40 velocity=103 time=0
EXTRACT: note_on channel=3 note=63 velocity=124 time=0
EXTRACT: note_on channel=5 note=56 velocity=122 time=0
EXTRACT: note_on channel=5 note=52 velocity=109 time=0
EXTRACT: note_on channel=5 note=59 velocity=114 time=0
EXTRACT: note_on channel=5 note=40 velocity=103 time=0
EXTRACT: note_on channel=9 note=35 velocity=107 time=0
EXTRACT: note_on channel=15 note=59 velocity=1 time=0
EXTRACT: note_on channel=15 note=52 velocity=1 time=0
EXTRACT: note_on channel=15 note=56 velocity=1 time=0
EXTRACT: note_on channel=5 note=47 velocity=0 time=0.0075
EXTRACT: note_on channel=2 note=47 velocity=0 time=0
EXTRACT: note_on channel=2 note=63 velocity=0 time=0.02
EXTRACT: note_on channel=5 note=63 velocity=0 time=0
EXTRACT: note_on channel=5 note=59 velocity=0 time=0.016
EXTRACT: note_on channel=2 note=59 velocity=0 time=0
EXTRACT: note_on channel=9 note=35 velocity=0 time=0.057
EXTRACT: note_on channel=3 note=63 velocity=0 time=0.232
EXTRACT: note_on channel=3 note=61 velocity=124 time=0.1475
EXTRACT: note_on channel=3 note=61 velocity=0 time=0.0995
EXTRACT: note_on channel=9 note=28 velocity=100 time=0.0205
EXTRACT: note_on channel=9 note=28 velocity=100 time=0.0125
EXTRACT: note_on channel=9 note=28 velocity=100 time=0.013000000000000001
EXTRACT: note_on channel=9 note=28 velocity=100 time=0.0125
EXTRACT: note_on channel=9 note=28 velocity=100 time=0.0125
EXTRACT: note_on channel=9 note=28 velocity=100 time=0.011
EXTRACT: note_on channel=9 note=28 velocity=100 time=0.0115
EXTRACT: note_on channel=9 note=28 velocity=100 time=0.0135
EXTRACT: note_on channel=9 note=28 velocity=100 time=0.0095
EXTRACT: note_on channel=9 note=28 velocity=100 time=0.011
EXTRACT: note_on channel=3 note=61 velocity=109 time=0.013000000000000001
EXTRACT: note_on channel=9 note=37 velocity=100 time=0
EXTRACT: note_on channel=9 note=28 velocity=127 time=0
EXTRACT: note_on channel=9 note=76 velocity=105 time=0
EXTRACT: note_on channel=9 note=76 velocity=0 time=0.054
EXTRACT: note_on channel=9 note=28 velocity=0 time=0.007
EXTRACT: note_on channel=3 note=61 velocity=0 time=0.0475
EXTRACT: note_on channel=3 note=61 velocity=124 time=0.1315
EXTRACT: note_on channel=9 note=28 velocity=127 time=0
EXTRACT: note_on channel=9 note=76 velocity=109 time=0
EXTRACT: note_on channel=9 note=37 velocity=122 time=0
EXTRACT: note_on channel=9 note=28 velocity=0 time=0.063
EXTRACT: note_on channel=9 note=76 velocity=0 time=0.002
EXTRACT: note_on channel=9 note=37 velocity=0 time=0.002
EXTRACT: note_on channel=9 note=28 velocity=0 time=0.053
EXTRACT: note_on channel=9 note=28 velocity=0 time=0.0125
EXTRACT: note_on channel=9 note=28 velocity=0 time=0.013000000000000001
EXTRACT: note_on channel=9 note=28 velocity=0 time=0.0125
EXTRACT: note_on channel=9 note=28 velocity=0 time=0.0125
EXTRACT: note_on channel=9 note=28 velocity=0 time=0.011
EXTRACT: note_on channel=9 note=28 velocity=0 time=0.0115
EXTRACT: note_on channel=9 note=28 velocity=0 time=0.0135
EXTRACT: note_on channel=9 note=28 velocity=0 time=0.0095
EXTRACT: note_on channel=9 note=28 velocity=0 time=0.011
EXTRACT: note_on channel=9 note=37 velocity=0 time=0.013000000000000001
EXTRACT: note_on channel=3 note=61 velocity=0 time=0.068
EXTRACT: note_on channel=1 note=28 velocity=0 time=0.1085
EXTRACT: note_on channel=1 note=28 velocity=116 time=0.0635
EXTRACT: note_on channel=3 note=59 velocity=109 time=0
EXTRACT: note_on channel=9 note=35 velocity=109 time=0
EXTRACT: note_on channel=9 note=76 velocity=116 time=0
EXTRACT: note_on channel=9 note=28 velocity=127 time=0
EXTRACT: note_on channel=9 note=37 velocity=122 time=0
EXTRACT: note_on channel=9 note=76 velocity=0 time=0.062
EXTRACT: note_on channel=9 note=35 velocity=0 time=0.008
EXTRACT: note_on channel=9 note=28 velocity=0 time=0.003
EXTRACT: note_on channel=9 note=37 velocity=0 time=0.015
EXTRACT: note_on channel=3 note=59 velocity=0 time=0.2705
EXTRACT: note_on channel=3 note=63 velocity=116 time=0.3615
EXTRACT: note_on channel=9 note=76 velocity=114 time=0
EXTRACT: note_on channel=9 note=28 velocity=127 time=0
EXTRACT: note_on channel=9 note=37 velocity=114 time=0
EXTRACT: note_on channel=9 note=76 velocity=0 time=0.055
EXTRACT: note_on channel=3 note=63 velocity=0 time=0.01
EXTRACT: note_on channel=9 note=28 velocity=0 time=0.0015
EXTRACT: note_on channel=9 note=37 velocity=0 time=0.0135
EXTRACT: note_on channel=10 note=71 velocity=119 time=0.1495
EXTRACT: note_on channel=3 note=63 velocity=116 time=0.0105
EXTRACT: note_on channel=9 note=60 velocity=103 time=0
EXTRACT: note_on channel=3 note=63 velocity=0 time=0.047
EXTRACT: note_on channel=9 note=60 velocity=0 time=0.023
EXTRACT: note_on channel=3 note=63 velocity=116 time=0.05
EXTRACT: note_on channel=3 note=63 velocity=0 time=0.0585
EXTRACT: note_on channel=3 note=63 velocity=107 time=0.0615
EXTRACT: note_on channel=9 note=76 velocity=116 time=0
EXTRACT: note_on channel=9 note=28 velocity=127 time=0
EXTRACT: note_on channel=9 note=37 velocity=124 time=0
EXTRACT: note_on channel=10 note=71 velocity=0 time=0.011
EXTRACT: note_on channel=9 note=76 velocity=0 time=0.048
EXTRACT: note_on channel=9 note=28 velocity=0 time=0.0055
EXTRACT: note_on channel=3 note=63 velocity=0 time=0.006500000000000001
EXTRACT: note_on channel=9 note=37 velocity=0 time=0.013000000000000001
EXTRACT: note_on channel=1 note=28 velocity=0 time=0.13
EXTRACT: note_on channel=1 note=28 velocity=119 time=0.026000000000000002
EXTRACT: note_on channel=3 note=63 velocity=127 time=0
EXTRACT: note_on channel=9 note=35 velocity=112 time=0
EXTRACT: note_on channel=9 note=35 velocity=0 time=0.069
EXTRACT: note_on channel=3 note=63 velocity=0 time=0.1325
EXTRACT: note_on channel=9 note=28 velocity=100 time=0.0385
EXTRACT: note_on channel=9 note=28 velocity=100 time=0.0125
EXTRACT: note_on channel=9 note=28 velocity=100 time=0.013000000000000001
EXTRACT: note_on channel=9 note=28 velocity=100 time=0.0125
EXTRACT: note_on channel=9 note=28 velocity=100 time=0.0125
EXTRACT: note_on channel=9 note=28 velocity=100 time=0.011
EXTRACT: note_on channel=9 note=28 velocity=100 time=0.0115
EXTRACT: note_on channel=9 note=28 velocity=100 time=0.0135
EXTRACT: note_on channel=9 note=28 velocity=100 time=0.0095
EXTRACT: note_on channel=9 note=28 velocity=100 time=0.011
EXTRACT: note_on channel=9 note=28 velocity=127 time=0.013000000000000001
EXTRACT: note_on channel=9 note=28 velocity=0 time=0.061
EXTRACT: note_on channel=3 note=59 velocity=107 time=0.059000000000000004
EXTRACT: note_on channel=9 note=76 velocity=101 time=0
EXTRACT: note_on channel=9 note=28 velocity=127 time=0
EXTRACT: note_on channel=9 note=37 velocity=112 time=0
EXTRACT: note_on channel=3 note=59 velocity=0 time=0.061
EXTRACT: note_on channel=9 note=28 velocity=0 time=0.001
EXTRACT: note_on channel=9 note=37 velocity=0 time=0.0145
EXTRACT: note_on channel=9 note=76 velocity=0 time=0.0025
EXTRACT: note_on channel=3 note=61 velocity=119 time=0.041
EXTRACT: note_on channel=3 note=61 velocity=0 time=0.108
EXTRACT: note_on channel=9 note=28 velocity=0 time=0.012
EXTRACT: note_on channel=3 note=63 velocity=127 time=0
EXTRACT: note_on channel=9 note=76 velocity=116 time=0
EXTRACT: note_on channel=9 note=28 velocity=127 time=0
EXTRACT: note_on channel=9 note=37 velocity=114 time=0
EXTRACT: note_on channel=9 note=28 velocity=0 time=0.0125
EXTRACT: note_on channel=9 note=28 velocity=0 time=0.013000000000000001
EXTRACT: note_on channel=9 note=28 velocity=0 time=0.0125
EXTRACT: note_on channel=9 note=28 velocity=0 time=0.0125
EXTRACT: note_on channel=9 note=28 velocity=0 time=0.0095
EXTRACT: note_on channel=9 note=28 velocity=0 time=0.0015
EXTRACT: note_on channel=9 note=76 velocity=0 time=0.0075
EXTRACT: note_on channel=9 note=28 velocity=0 time=0.004
EXTRACT: note_on channel=9 note=37 velocity=0 time=0.004
EXTRACT: note_on channel=9 note=28 velocity=0 time=0.0095
EXTRACT: note_on channel=3 note=63 velocity=0 time=0.004
EXTRACT: note_on channel=9 note=28 velocity=0 time=0.0055
EXTRACT: note_on channel=9 note=28 velocity=0 time=0.011
EXTRACT: note_on channel=2 note=40 velocity=0 time=0.0305
EXTRACT: note_on channel=5 note=40 velocity=0 time=0
EXTRACT: note_on channel=2 note=59 velocity=0 time=0.012
EXTRACT: note_on channel=5 note=59 velocity=0 time=0
EXTRACT: note_on channel=5 note=56 velocity=0 time=0.006
EXTRACT: note_on channel=2 note=56 velocity=0 time=0
EXTRACT: note_on channel=2 note=52 velocity=0 time=0.007
EXTRACT: note_on channel=5 note=52 velocity=0 time=0
EXTRACT: note_on channel=10 note=66 velocity=127 time=0.0505
EXTRACT: note_on channel=1 note=28 velocity=0 time=0.0075
EXTRACT: note_on channel=15 note=59 velocity=0 time=0.0195
EXTRACT: note_on channel=15 note=52 velocity=0 time=0
EXTRACT: note_on channel=15 note=56 velocity=0 time=0
EXTRACT: note_on channel=1 note=30 velocity=127 time=0
EXTRACT: note_on channel=2 note=58 velocity=122 time=0
EXTRACT: note_on channel=2 note=61 velocity=124 time=0
EXTRACT: note_on channel=2 note=54 velocity=116 time=0
EXTRACT: note_on channel=2 note=42 velocity=109 time=0
EXTRACT: note_on channel=3 note=61 velocity=127 time=0
EXTRACT: note_on channel=5 note=58 velocity=122 time=0
EXTRACT: note_on channel=5 note=61 velocity=124 time=0
EXTRACT: note_on channel=5 note=54 velocity=116 time=0
EXTRACT: note_on channel=5 note=42 velocity=109 time=0
EXTRACT: note_on channel=9 note=35 velocity=107 time=0
EXTRACT: note_on channel=15 note=58 velocity=1 time=0
EXTRACT: note_on channel=15 note=54 velocity=1 time=0
EXTRACT: note_on channel=15 note=61 velocity=1 time=0
EXTRACT: note_on channel=9 note=35 velocity=0 time=0.1005
EXTRACT: note_on channel=10 note=66 velocity=0 time=0.1845
EXTRACT: note_on channel=3 note=61 velocity=0 time=0.066
EXTRACT: note_on channel=3 note=59 velocity=109 time=0.129
EXTRACT: note_on channel=3 note=59 velocity=0 time=0.0985
EXTRACT: note_on channel=3 note=61 velocity=122 time=0.021500000000000002
EXTRACT: note_on channel=9 note=28 velocity=100 time=0
EXTRACT: note_on channel=9 note=28 velocity=100 time=0.0125
EXTRACT: note_on channel=9 note=28 velocity=100 time=0.013000000000000001
EXTRACT: note_on channel=9 note=28 velocity=100 time=0.0125
EXTRACT: note_on channel=9 note=28 velocity=100 time=0.0125
EXTRACT: note_on channel=9 note=28 velocity=100 time=0.011
EXTRACT: note_on channel=9 note=28 velocity=100 time=0.0115
EXTRACT: note_on channel=9 note=28 velocity=100 time=0.0135
EXTRACT: note_on channel=9 note=28 velocity=100 time=0.0095
EXTRACT: note_on channel=9 note=28 velocity=100 time=0.011
EXTRACT: note_on channel=3 note=61 velocity=0 time=0.0025
EXTRACT: note_on channel=3 note=63 velocity=124 time=0.0105
EXTRACT: note_on channel=9 note=37 velocity=100 time=0
EXTRACT: note_on channel=9 note=28 velocity=127 time=0
EXTRACT: note_on channel=9 note=76 velocity=105 time=0
EXTRACT: note_on channel=9 note=76 velocity=0 time=0.054
EXTRACT: note_on channel=9 note=28 velocity=0 time=0.007
EXTRACT: note_on channel=3 note=63 velocity=0 time=0.055
EXTRACT: note_on channel=3 note=61 velocity=127 time=0.124
EXTRACT: note_on channel=9 note=28 velocity=127 time=0
EXTRACT: note_on channel=9 note=76 velocity=109 time=0
EXTRACT: note_on channel=9 note=37 velocity=122 time=0
EXTRACT: note_on channel=9 note=28 velocity=0 time=0.063
EXTRACT: note_on channel=9 note=76 velocity=0 time=0.002
EXTRACT: note_on channel=9 note=37 velocity=0 time=0.002
EXTRACT: note_on channel=9 note=28 velocity=0 time=0.053
EXTRACT: note_on channel=9 note=28 velocity=0 time=0.0125
EXTRACT: note_on channel=9 note=28 velocity=0 time=0.013000000000000001
EXTRACT: note_on channel=9 note=28 velocity=0 time=0.0125
EXTRACT: note_on channel=9 note=28 velocity=0 time=0.0125
EXTRACT: note_on channel=9 note=28 velocity=0 time=0.011
EXTRACT: note_on channel=9 note=28 velocity=0 time=0.0115
EXTRACT: note_on channel=9 note=28 velocity=0 time=0.0135
EXTRACT: note_on channel=9 note=28 velocity=0 time=0.0095
EXTRACT: note_on channel=9 note=28 velocity=0 time=0.011
EXTRACT: note_on channel=9 note=37 velocity=0 time=0.013000000000000001
EXTRACT: note_on channel=3 note=61 velocity=0 time=0.11800000000000001
EXTRACT: note_on channel=1 note=30 velocity=0 time=0.0545
EXTRACT: note_on channel=7 note=83 velocity=109 time=0.053
EXTRACT: note_on channel=1 note=30 velocity=119 time=0.0145
EXTRACT: note_on channel=3 note=59 velocity=112 time=0
EXTRACT: note_on channel=9 note=35 velocity=109 time=0
EXTRACT: note_on channel=9 note=76 velocity=116 time=0
EXTRACT: note_on channel=9 note=28 velocity=127 time=0
EXTRACT: note_on channel=9 note=37 velocity=122 time=0
EXTRACT: note_on channel=9 note=76 velocity=0 time=0.062
EXTRACT: note_on channel=9 note=35 velocity=0 time=0.008
EXTRACT: note_on channel=9 note=28 velocity=0 time=0.003
EXTRACT: note_on channel=9 note=37 velocity=0 time=0.015
EXTRACT: note_on channel=3 note=59 velocity=0 time=0.017
EXTRACT: note_on channel=3 note=61 velocity=122 time=0.015
EXTRACT: note_on channel=7 note=83 velocity=0 time=0.0375
EXTRACT: note_on channel=3 note=61 velocity=0 time=0.0765
EXTRACT: note_on channel=3 note=63 velocity=127 time=0.006
EXTRACT: note_on channel=3 note=63 velocity=0 time=0.1325
EXTRACT: note_on channel=3 note=61 velocity=127 time=0.1075
EXTRACT: note_on channel=9 note=76 velocity=114 time=0.24
EXTRACT: note_on channel=9 note=28 velocity=127 time=0
EXTRACT: note_on channel=9 note=37 velocity=114 time=0
EXTRACT: note_on channel=9 note=76 velocity=0 time=0.055
EXTRACT: note_on channel=9 note=28 velocity=0 time=0.0115
EXTRACT: note_on channel=9 note=37 velocity=0 time=0.0135
EXTRACT: note_on channel=3 note=61 velocity=0 time=0.0275
EXTRACT: note_on channel=3 note=59 velocity=124 time=0.1325
EXTRACT: note_on channel=7 note=83 velocity=109 time=0
EXTRACT: note_on channel=9 note=60 velocity=103 time=0
EXTRACT: note_on channel=9 note=60 velocity=0 time=0.07
EXTRACT: note_on channel=7 note=83 velocity=0 time=0.10200000000000001
EXTRACT: note_on channel=7 note=83 velocity=109 time=0.068
EXTRACT: note_on channel=9 note=76 velocity=116 time=0
EXTRACT: note_on channel=9 note=28 velocity=127 time=0
EXTRACT: note_on channel=9 note=37 velocity=124 time=0
EXTRACT: note_on channel=3 note=59 velocity=0 time=0.051000000000000004
EXTRACT: note_on channel=9 note=76 velocity=0 time=0.008
EXTRACT: note_on channel=9 note=28 velocity=0 time=0.0055
EXTRACT: note_on channel=9 note=37 velocity=0 time=0.0195
EXTRACT: note_on channel=1 note=30 velocity=0 time=0.084
EXTRACT: note_on channel=2 note=61 velocity=0 time=0.0045000000000000005
EXTRACT: note_on channel=5 note=61 velocity=0 time=0
EXTRACT: note_on channel=10 note=61 velocity=98 time=0.0395
EXTRACT: note_on channel=7 note=83 velocity=0 time=0.0095
EXTRACT: note_on channel=1 note=30 velocity=124 time=0.0185
EXTRACT: note_on channel=2 note=61 velocity=124 time=0
EXTRACT: note_on channel=5 note=61 velocity=124 time=0
EXTRACT: note_on channel=9 note=35 velocity=112 time=0
EXTRACT: note_on channel=9 note=35 velocity=0 time=0.069
EXTRACT: note_on channel=9 note=28 velocity=100 time=0.171
EXTRACT: note_on channel=9 note=28 velocity=100 time=0.0125
EXTRACT: note_on channel=9 note=28 velocity=100 time=0.013000000000000001
EXTRACT: note_on channel=9 note=28 velocity=100 time=0.0125
EXTRACT: note_on channel=9 note=28 velocity=100 time=0.0125
EXTRACT: note_on channel=9 note=28 velocity=100 time=0.011
EXTRACT: note_on channel=9 note=28 velocity=100 time=0.0115
EXTRACT: note_on channel=9 note=28 velocity=100 time=0.0135
EXTRACT: note_on channel=9 note=28 velocity=100 time=0.0095
EXTRACT: note_on channel=9 note=28 velocity=100 time=0.011
EXTRACT: note_on channel=9 note=28 velocity=127 time=0.013000000000000001
EXTRACT: note_on channel=5 note=58 velocity=119 time=0.05
EXTRACT: note_on channel=9 note=28 velocity=0 time=0.011
EXTRACT: note_on channel=10 note=63 velocity=101 time=0.001
EXTRACT: note_on channel=2 note=58 velocity=0 time=0.0025
EXTRACT: note_on channel=5 note=58 velocity=0 time=0
EXTRACT: note_on channel=10 note=61 velocity=0 time=0.0005
EXTRACT: note_on channel=1 note=27 velocity=114 time=0.055
EXTRACT: note_on channel=2 note=58 velocity=119 time=0
EXTRACT: note_on channel=9 note=76 velocity=101 time=0
EXTRACT: note_on channel=9 note=28 velocity=127 time=0
EXTRACT: note_on channel=9 note=37 velocity=112 time=0
EXTRACT: note_on channel=1 note=30 velocity=0 time=0.007
EXTRACT: note_on channel=5 note=61 velocity=0 time=0.044
EXTRACT: note_on channel=2 note=61 velocity=0 time=0
EXTRACT: note_on channel=9 note=28 velocity=0 time=0.011
EXTRACT: note_on channel=9 note=37 velocity=0 time=0.0145
EXTRACT: note_on channel=9 note=76 velocity=0 time=0.0025
EXTRACT: note_on channel=9 note=28 velocity=0 time=0.161
EXTRACT: note_on channel=9 note=76 velocity=116 time=0
EXTRACT: note_on channel=9 note=28 velocity=127 time=0
EXTRACT: note_on channel=9 note=37 velocity=114 time=0
EXTRACT: note_on channel=9 note=28 velocity=0 time=0.0125
EXTRACT: note_on channel=9 note=28 velocity=0 time=0.013000000000000001
EXTRACT: note_on channel=9 note=28 velocity=0 time=0.0125
EXTRACT: note_on channel=9 note=28 velocity=0 time=0.0125
EXTRACT: note_on channel=9 note=28 velocity=0 time=0.0095
EXTRACT: note_on channel=9 note=28 velocity=0 time=0.0015
EXTRACT: note_on channel=9 note=76 velocity=0 time=0.0075
EXTRACT: note_on channel=9 note=28 velocity=0 time=0.004
EXTRACT: note_on channel=9 note=37 velocity=0 time=0.004
EXTRACT: note_on channel=9 note=28 velocity=0 time=0.0095
EXTRACT: note_on channel=9 note=28 velocity=0 time=0.0095
EXTRACT: note_on channel=9 note=28 velocity=0 time=0.011
EXTRACT: note_on channel=5 note=58 velocity=0 time=0.0305
EXTRACT: note_on channel=5 note=54 velocity=0 time=0.008
EXTRACT: note_on channel=2 note=54 velocity=0 time=0
EXTRACT: note_on channel=5 note=56 velocity=116 time=0.0245
EXTRACT: note_on channel=5 note=59 velocity=96 time=0
EXTRACT: note_on channel=5 note=52 velocity=109 time=0
EXTRACT: note_on channel=5 note=47 velocity=114 time=0
EXTRACT: note_on channel=5 note=40 velocity=103 time=0
EXTRACT: note_on channel=2 note=42 velocity=0 time=0.0225
EXTRACT: note_on channel=5 note=42 velocity=0 time=0
EXTRACT: note_on channel=10 note=66 velocity=103 time=0.0115
EXTRACT: note_on channel=2 note=58 velocity=0 time=0.0035
EXTRACT: note_on channel=10 note=63 velocity=0 time=0.0135
EXTRACT: note_on channel=1 note=27 velocity=0 time=0.0015
EXTRACT: note_on channel=15 note=54 velocity=0 time=0.0175
EXTRACT: note_on channel=15 note=58 velocity=0 time=0
EXTRACT: note_on channel=15 note=61 velocity=0 time=0
EXTRACT: note_on channel=1 note=28 velocity=127 time=0
EXTRACT: note_on channel=2 note=56 velocity=116 time=0
EXTRACT: note_on channel=2 note=59 velocity=96 time=0
EXTRACT: note_on channel=2 note=52 velocity=109 time=0
EXTRACT: note_on channel=2 note=47 velocity=114 time=0
EXTRACT: note_on channel=2 note=40 velocity=103 time=0
EXTRACT: note_on channel=9 note=35 velocity=107 time=0
EXTRACT: note_on channel=15 note=56 velocity=1 time=0
EXTRACT: note_on channel=15 note=52 velocity=1 time=0
EXTRACT: note_on channel=15 note=59 velocity=1 time=0
EXTRACT: note_on channel=9 note=35 velocity=0 time=0.1005
EXTRACT: note_on channel=3 note=59 velocity=79 time=0.1395
EXTRACT: note_on channel=3 note=59 velocity=0 time=0.08600000000000001
EXTRACT: note_on channel=3 note=61 velocity=124 time=0.154
EXTRACT: note_on channel=9 note=28 velocity=100 time=0.12
EXTRACT: note_on channel=3 note=61 velocity=0 time=0.0055
EXTRACT: note_on channel=9 note=28 velocity=100 time=0.007
EXTRACT: note_on channel=9 note=28 velocity=100 time=0.013000000000000001
EXTRACT: note_on channel=9 note=28 velocity=100 time=0.0125
EXTRACT: note_on channel=9 note=28 velocity=100 time=0.0125
EXTRACT: note_on channel=9 note=28 velocity=100 time=0.011
EXTRACT: note_on channel=9 note=28 velocity=100 time=0.0115
EXTRACT: note_on channel=9 note=28 velocity=100 time=0.0135
EXTRACT: note_on channel=9 note=28 velocity=100 time=0.0095
EXTRACT: note_on channel=9 note=28 velocity=100 time=0.011
EXTRACT: note_on channel=3 note=59 velocity=105 time=0.013000000000000001
EXTRACT: note_on channel=9 note=37 velocity=100 time=0
EXTRACT: note_on channel=9 note=28 velocity=127 time=0
EXTRACT: note_on channel=9 note=76 velocity=105 time=0
EXTRACT: note_on channel=9 note=76 velocity=0 time=0.054
EXTRACT: note_on channel=9 note=28 velocity=0 time=0.007
EXTRACT: note_on channel=3 note=59 velocity=0 time=0.0315
EXTRACT: note_on channel=3 note=61 velocity=124 time=0.1475
EXTRACT: note_on channel=9 note=28 velocity=127 time=0
EXTRACT: note_on channel=9 note=76 velocity=109 time=0
EXTRACT: note_on channel=9 note=37 velocity=122 time=0
EXTRACT: note_on channel=10 note=66 velocity=0 time=0.0305
EXTRACT: note_on channel=9 note=28 velocity=0 time=0.0325
EXTRACT: note_on channel=9 note=76 velocity=0 time=0.002
EXTRACT: note_on channel=9 note=37 velocity=0 time=0.002
EXTRACT: note_on channel=3 note=61 velocity=0 time=0.043500000000000004
EXTRACT: note_on channel=9 note=28 velocity=0 time=0.0095
EXTRACT: note_on channel=9 note=28 velocity=0 time=0.0125
EXTRACT: note_on channel=9 note=28 velocity=0 time=0.013000000000000001
EXTRACT: note_on channel=9 note=28 velocity=0 time=0.0125
EXTRACT: note_on channel=9 note=28 velocity=0 time=0.0125
EXTRACT: note_on channel=9 note=28 velocity=0 time=0.011
EXTRACT: note_on channel=9 note=28 velocity=0 time=0.0115
EXTRACT: note_on channel=9 note=28 velocity=0 time=0.0135
EXTRACT: note_on channel=9 note=28 velocity=0 time=0.0095
EXTRACT: note_on channel=9 note=28 velocity=0 time=0.011
EXTRACT: note_on channel=9 note=37 velocity=0 time=0.013000000000000001
EXTRACT: note_on channel=3 note=63 velocity=119 time=0
EXTRACT: note_on channel=3 note=63 velocity=0 time=0.096
EXTRACT: note_on channel=1 note=28 velocity=0 time=0.0805
EXTRACT: note_on channel=1 note=28 velocity=116 time=0.0635
EXTRACT: note_on channel=3 note=63 velocity=127 time=0
EXTRACT: note_on channel=9 note=35 velocity=109 time=0
EXTRACT: note_on channel=9 note=76 velocity=116 time=0
EXTRACT: note_on channel=9 note=28 velocity=127 time=0
EXTRACT: note_on channel=9 note=37 velocity=122 time=0
EXTRACT: note_on channel=9 note=76 velocity=0 time=0.062
EXTRACT: note_on channel=9 note=35 velocity=0 time=0.008
EXTRACT: note_on channel=9 note=28 velocity=0 time=0.003
EXTRACT: note_on channel=9 note=37 velocity=0 time=0.015
EXTRACT: note_on channel=3 note=63 velocity=0 time=0.2775
EXTRACT: note_on channel=10 note=66 velocity=116 time=0.0905
EXTRACT: note_on channel=10 note=68 velocity=114 time=0.227
EXTRACT: note_on channel=10 note=66 velocity=0 time=0.008
EXTRACT: note_on channel=3 note=59 velocity=105 time=0.029
EXTRACT: note_on channel=9 note=76 velocity=114 time=0
EXTRACT: note_on channel=9 note=28 velocity=127 time=0
EXTRACT: note_on channel=9 note=37 velocity=114 time=0
EXTRACT: note_on channel=3 note=59 velocity=0 time=0.046
EXTRACT: note_on channel=9 note=76 velocity=0 time=0.009000000000000001
EXTRACT: note_on channel=9 note=28 velocity=0 time=0.0115
EXTRACT: note_on channel=9 note=37 velocity=0 time=0.0135
EXTRACT: note_on channel=10 note=68 velocity=0 time=0.07050000000000001
EXTRACT: note_on channel=10 note=71 velocity=105 time=0.042
EXTRACT: note_on channel=3 note=59 velocity=109 time=0.0475
EXTRACT: note_on channel=9 note=60 velocity=103 time=0
EXTRACT: note_on channel=9 note=60 velocity=0 time=0.07
EXTRACT: note_on channel=3 note=59 velocity=0 time=0.031
EXTRACT: note_on channel=10 note=71 velocity=0 time=0.075
EXTRACT: note_on channel=10 note=66 velocity=122 time=0.043000000000000003
EXTRACT: note_on channel=3 note=63 velocity=124 time=0.021
EXTRACT: note_on channel=9 note=76 velocity=116 time=0
EXTRACT: note_on channel=9 note=28 velocity=127 time=0
EXTRACT: note_on channel=9 note=37 velocity=124 time=0
EXTRACT: note_on channel=9 note=76 velocity=0 time=0.059000000000000004
EXTRACT: note_on channel=9 note=28 velocity=0 time=0.0055
EXTRACT: note_on channel=9 note=37 velocity=0 time=0.0195
EXTRACT: note_on channel=3 note=63 velocity=0 time=0.002
EXTRACT: note_on channel=1 note=28 velocity=0 time=0.128
EXTRACT: note_on channel=1 note=28 velocity=119 time=0.026000000000000002
EXTRACT: note_on channel=9 note=35 velocity=112 time=0
EXTRACT: note_on channel=3 note=61 velocity=127 time=0.002
EXTRACT: note_on channel=10 note=66 velocity=0 time=0.0275
EXTRACT: note_on channel=9 note=35 velocity=0 time=0.0395
EXTRACT: note_on channel=10 note=63 velocity=124 time=0.16
EXTRACT: note_on channel=9 note=28 velocity=100 time=0.011
EXTRACT: note_on channel=9 note=28 velocity=100 time=0.0125
EXTRACT: note_on channel=9 note=28 velocity=100 time=0.013000000000000001
EXTRACT: note_on channel=9 note=28 velocity=100 time=0.0125
EXTRACT: note_on channel=9 note=28 velocity=100 time=0.0125
EXTRACT: note_on channel=9 note=28 velocity=100 time=0.011
EXTRACT: note_on channel=9 note=28 velocity=100 time=0.0115
EXTRACT: note_on channel=9 note=28 velocity=100 time=0.0135
EXTRACT: note_on channel=9 note=28 velocity=100 time=0.0095
EXTRACT: note_on channel=9 note=28 velocity=100 time=0.011
EXTRACT: note_on channel=9 note=28 velocity=127 time=0.013000000000000001
EXTRACT: note_on channel=9 note=28 velocity=0 time=0.061
EXTRACT: note_on channel=3 note=59 velocity=116 time=0.059000000000000004
EXTRACT: note_on channel=9 note=76 velocity=101 time=0
EXTRACT: note_on channel=9 note=28 velocity=127 time=0
EXTRACT: note_on channel=9 note=37 velocity=112 time=0
EXTRACT: note_on channel=3 note=61 velocity=0 time=0.01
EXTRACT: note_on channel=9 note=28 velocity=0 time=0.052000000000000005
EXTRACT: note_on channel=10 note=63 velocity=0 time=0.012
EXTRACT: note_on channel=9 note=37 velocity=0 time=0.0025
EXTRACT: note_on channel=9 note=76 velocity=0 time=0.0025
EXTRACT: note_on channel=9 note=28 velocity=0 time=0.161
EXTRACT: note_on channel=9 note=76 velocity=116 time=0
EXTRACT: note_on channel=9 note=28 velocity=127 time=0
EXTRACT: note_on channel=9 note=37 velocity=114 time=0
EXTRACT: note_on channel=9 note=28 velocity=0 time=0.0125
EXTRACT: note_on channel=9 note=28 velocity=0 time=0.013000000000000001
EXTRACT: note_on channel=9 note=28 velocity=0 time=0.0125
EXTRACT: note_on channel=9 note=28 velocity=0 time=0.0125
EXTRACT: note_on channel=9 note=28 velocity=0 time=0.0095
EXTRACT: note_on channel=9 note=28 velocity=0 time=0.0015
EXTRACT: note_on channel=9 note=76 velocity=0 time=0.0075
EXTRACT: note_on channel=9 note=28 velocity=0 time=0.004
EXTRACT: note_on channel=9 note=37 velocity=0 time=0.004
EXTRACT: note_on channel=9 note=28 velocity=0 time=0.0095
EXTRACT: note_on channel=5 note=47 velocity=0 time=0.0045000000000000005
EXTRACT: note_on channel=9 note=28 velocity=0 time=0.005
EXTRACT: note_on channel=5 note=40 velocity=0 time=0.007
EXTRACT: note_on channel=3 note=59 velocity=0 time=0
EXTRACT: note_on channel=9 note=28 velocity=0 time=0.004
EXTRACT: note_on channel=5 note=52 velocity=0 time=0.001
EXTRACT: note_on channel=5 note=56 velocity=0 time=0.024
EXTRACT: note_on channel=5 note=59 velocity=0 time=0.004
EXTRACT: note_on channel=2 note=47 velocity=0 time=0.025
EXTRACT: note_on channel=5 note=42 velocity=103 time=0.009000000000000001
EXTRACT: note_on channel=5 note=58 velocity=116 time=0
EXTRACT: note_on channel=5 note=54 velocity=119 time=0
EXTRACT: note_on channel=5 note=61 velocity=124 time=0
EXTRACT: note_on channel=2 note=40 velocity=0 time=0.003
EXTRACT: note_on channel=2 note=52 velocity=0 time=0.005
EXTRACT: note_on channel=2 note=56 velocity=0 time=0.024
EXTRACT: note_on channel=2 note=59 velocity=0 time=0.004
EXTRACT: note_on channel=1 note=28 velocity=0 time=0.0145
EXTRACT: note_on channel=10 note=61 velocity=127 time=0.019
EXTRACT: note_on channel=15 note=52 velocity=0 time=0.0005
EXTRACT: note_on channel=15 note=56 velocity=0 time=0
EXTRACT: note_on channel=15 note=59 velocity=0 time=0
EXTRACT: note_on channel=1 note=30 velocity=124 time=0
EXTRACT: note_on channel=2 note=42 velocity=103 time=0
EXTRACT: note_on channel=2 note=58 velocity=116 time=0
EXTRACT: note_on channel=2 note=54 velocity=119 time=0
EXTRACT: note_on channel=2 note=61 velocity=124 time=0
EXTRACT: note_on channel=9 note=35 velocity=107 time=0
EXTRACT: note_on channel=15 note=54 velocity=1 time=0
EXTRACT: note_on channel=15 note=61 velocity=1 time=0
EXTRACT: note_on channel=15 note=58 velocity=1 time=0
EXTRACT: note_on channel=9 note=35 velocity=0 time=0.1005
EXTRACT: note_on channel=3 note=59 velocity=112 time=0.1395
EXTRACT: note_on channel=3 note=59 velocity=0 time=0.1145
EXTRACT: note_on channel=10 note=61 velocity=0 time=0.062
EXTRACT: note_on channel=3 note=61 velocity=122 time=0.0635
EXTRACT: note_on channel=3 note=61 velocity=0 time=0.1075
EXTRACT: note_on channel=9 note=28 velocity=100 time=0.0125
EXTRACT: note_on channel=9 note=28 velocity=100 time=0.0125
EXTRACT: note_on channel=9 note=28 velocity=100 time=0.013000000000000001
EXTRACT: note_on channel=9 note=28 velocity=100 time=0.0125
EXTRACT: note_on channel=9 note=28 velocity=100 time=0.0125
EXTRACT: note_on channel=9 note=28 velocity=100 time=0.011
EXTRACT: note_on channel=9 note=28 velocity=100 time=0.0115
EXTRACT: note_on channel=9 note=28 velocity=100 time=0.0135
EXTRACT: note_on channel=9 note=28 velocity=100 time=0.0095
EXTRACT: note_on channel=9 note=28 velocity=100 time=0.011
EXTRACT: note_on channel=3 note=59 velocity=107 time=0.013000000000000001
EXTRACT: note_on channel=9 note=37 velocity=100 time=0
EXTRACT: note_on channel=9 note=28 velocity=127 time=0
EXTRACT: note_on channel=9 note=76 velocity=105 time=0
EXTRACT: note_on channel=9 note=76 velocity=0 time=0.054
EXTRACT: note_on channel=9 note=28 velocity=0 time=0.007
EXTRACT: note_on channel=3 note=59 velocity=0 time=0.0425
EXTRACT: note_on channel=3 note=61 velocity=124 time=0.1365
EXTRACT: note_on channel=9 note=28 velocity=127 time=0
EXTRACT: note_on channel=9 note=76 velocity=109 time=0
EXTRACT: note_on channel=9 note=37 velocity=122 time=0
EXTRACT: note_on channel=9 note=28 velocity=0 time=0.063
EXTRACT: note_on channel=9 note=76 velocity=0 time=0.002
EXTRACT: note_on channel=9 note=37 velocity=0 time=0.002
EXTRACT: note_on channel=3 note=61 velocity=0 time=0.049
EXTRACT: note_on channel=9 note=28 velocity=0 time=0.004
EXTRACT: note_on channel=9 note=28 velocity=0 time=0.0125
EXTRACT: note_on channel=9 note=28 velocity=0 time=0.013000000000000001
EXTRACT: note_on channel=9 note=28 velocity=0 time=0.0125
EXTRACT: note_on channel=9 note=28 velocity=0 time=0.0125
EXTRACT: note_on channel=9 note=28 velocity=0 time=0.011
EXTRACT: note_on channel=9 note=28 velocity=0 time=0.0115
EXTRACT: note_on channel=9 note=28 velocity=0 time=0.0135
EXTRACT: note_on channel=9 note=28 velocity=0 time=0.0095
EXTRACT: note_on channel=9 note=28 velocity=0 time=0.011
EXTRACT: note_on channel=9 note=37 velocity=0 time=0.013000000000000001
EXTRACT: note_on channel=3 note=63 velocity=127 time=0
EXTRACT: note_on channel=3 note=63 velocity=0 time=0.083
EXTRACT: note_on channel=5 note=54 velocity=0 time=0.061
EXTRACT: note_on channel=5 note=42 velocity=0 time=0.007
EXTRACT: note_on channel=5 note=58 velocity=0 time=0.006
EXTRACT: note_on channel=5 note=61 velocity=0 time=0.003
EXTRACT: note_on channel=5 note=59 velocity=109 time=0.01
EXTRACT: note_on channel=5 note=63 velocity=116 time=0
EXTRACT: note_on channel=5 note=54 velocity=114 time=0
EXTRACT: note_on channel=5 note=47 velocity=91 time=0
EXTRACT: note_on channel=1 note=30 velocity=0 time=0.0365
EXTRACT: note_on channel=2 note=54 velocity=0 time=0.0075
EXTRACT: note_on channel=2 note=42 velocity=0 time=0.007
EXTRACT: note_on channel=2 note=58 velocity=0 time=0.006
EXTRACT: note_on channel=2 note=61 velocity=0 time=0.003
EXTRACT: note_on channel=15 note=61 velocity=0 time=0.01
EXTRACT: note_on channel=15 note=54 velocity=0 time=0
EXTRACT: note_on channel=15 note=58 velocity=0 time=0
EXTRACT: note_on channel=1 note=35 velocity=119 time=0
EXTRACT: note_on channel=2 note=63 velocity=116 time=0
EXTRACT: note_on channel=2 note=59 velocity=109 time=0
EXTRACT: note_on channel=2 note=54 velocity=114 time=0
EXTRACT: note_on channel=2 note=47 velocity=91 time=0
EXTRACT: note_on channel=3 note=63 velocity=127 time=0
EXTRACT: note_on channel=7 note=83 velocity=124 time=0
EXTRACT: note_on channel=9 note=35 velocity=109 time=0
EXTRACT: note_on channel=9 note=76 velocity=116 time=0
EXTRACT: note_on channel=9 note=28 velocity=127 time=0
EXTRACT: note_on channel=9 note=37 velocity=122 time=0
EXTRACT: note_on channel=15 note=66 velocity=1 time=0
EXTRACT: note_on channel=15 note=63 velocity=1 time=0
EXTRACT: note_on channel=15 note=59 velocity=1 time=0
EXTRACT: note_on channel=9 note=76 velocity=0 time=0.062
EXTRACT: note_on channel=9 note=35 velocity=0 time=0.008
EXTRACT: note_on channel=9 note=28 velocity=0 time=0.003
EXTRACT: note_on channel=9 note=37 velocity=0 time=0.015
EXTRACT: note_on channel=3 note=63 velocity=0 time=0.171
EXTRACT: note_on channel=7 note=83 velocity=0 time=0.0305
EXTRACT: note_on channel=3 note=59 velocity=103 time=0.064
EXTRACT: note_on channel=3 note=59 velocity=0 time=0.0605
EXTRACT: note_on channel=3 note=59 velocity=107 time=0.066
EXTRACT: note_on channel=9 note=76 velocity=114 time=0.24
EXTRACT: note_on channel=9 note=28 velocity=127 time=0
EXTRACT: note_on channel=9 note=37 velocity=114 time=0
EXTRACT: note_on channel=3 note=59 velocity=0 time=0.0285
EXTRACT: note_on channel=9 note=76 velocity=0 time=0.0265
EXTRACT: note_on channel=9 note=28 velocity=0 time=0.0115
EXTRACT: note_on channel=9 note=37 velocity=0 time=0.0135
EXTRACT: note_on channel=7 note=83 velocity=116 time=0.16
EXTRACT: note_on channel=9 note=60 velocity=103 time=0
EXTRACT: note_on channel=9 note=60 velocity=0 time=0.07
EXTRACT: note_on channel=7 note=83 velocity=0 time=0.1
EXTRACT: note_on channel=7 note=83 velocity=114 time=0.07
EXTRACT: note_on channel=9 note=76 velocity=116 time=0
EXTRACT: note_on channel=9 note=28 velocity=127 time=0
EXTRACT: note_on channel=9 note=37 velocity=124 time=0
EXTRACT: note_on channel=9 note=76 velocity=0 time=0.059000000000000004
EXTRACT: note_on channel=9 note=28 velocity=0 time=0.0055
EXTRACT: note_on channel=9 note=37 velocity=0 time=0.0195
EXTRACT: note_on channel=2 note=63 velocity=0 time=0.1015
EXTRACT: note_on channel=1 note=35 velocity=0 time=0.0155
EXTRACT: note_on channel=7 note=83 velocity=0 time=0.021
EXTRACT: note_on channel=1 note=47 velocity=127 time=0.018000000000000002
EXTRACT: note_on channel=2 note=64 velocity=112 time=0
EXTRACT: note_on channel=9 note=35 velocity=112 time=0
EXTRACT: note_on channel=9 note=35 velocity=0 time=0.069
EXTRACT: note_on channel=9 note=28 velocity=100 time=0.171
EXTRACT: note_on channel=9 note=28 velocity=100 time=0.0125
EXTRACT: note_on channel=9 note=28 velocity=100 time=0.013000000000000001
EXTRACT: note_on channel=9 note=28 velocity=100 time=0.0125
EXTRACT: note_on channel=9 note=28 velocity=100 time=0.0125
EXTRACT: note_on channel=9 note=28 velocity=100 time=0.011
EXTRACT: note_on channel=9 note=28 velocity=100 time=0.0115
EXTRACT: note_on channel=9 note=28 velocity=100 time=0.0135
EXTRACT: note_on channel=9 note=28 velocity=100 time=0.0095
EXTRACT: note_on channel=9 note=28 velocity=100 time=0.011
EXTRACT: note_on channel=9 note=28 velocity=127 time=0.013000000000000001
EXTRACT: note_on channel=9 note=28 velocity=0 time=0.061
EXTRACT: note_on channel=2 note=64 velocity=0 time=0.0275
EXTRACT: note_on channel=1 note=47 velocity=0 time=0.0165
EXTRACT: note_on channel=1 note=35 velocity=124 time=0.015
EXTRACT: note_on channel=2 note=63 velocity=114 time=0
EXTRACT: note_on channel=9 note=76 velocity=101 time=0
EXTRACT: note_on channel=9 note=28 velocity=127 time=0
EXTRACT: note_on channel=9 note=37 velocity=112 time=0
EXTRACT: note_on channel=9 note=28 velocity=0 time=0.062
EXTRACT: note_on channel=9 note=37 velocity=0 time=0.0145
EXTRACT: note_on channel=9 note=76 velocity=0 time=0.0025
EXTRACT: note_on channel=9 note=28 velocity=0 time=0.161
EXTRACT: note_on channel=9 note=76 velocity=116 time=0
EXTRACT: note_on channel=9 note=28 velocity=127 time=0
EXTRACT: note_on channel=9 note=37 velocity=114 time=0
EXTRACT: note_on channel=9 note=28 velocity=0 time=0.0125
EXTRACT: note_on channel=9 note=28 velocity=0 time=0.013000000000000001
EXTRACT: note_on channel=9 note=28 velocity=0 time=0.0125
EXTRACT: note_on channel=9 note=28 velocity=0 time=0.0125
EXTRACT: note_on channel=9 note=28 velocity=0 time=0.0095
EXTRACT: note_on channel=9 note=28 velocity=0 time=0.0015
EXTRACT: note_on channel=9 note=76 velocity=0 time=0.0075
EXTRACT: note_on channel=9 note=28 velocity=0 time=0.004
EXTRACT: note_on channel=9 note=37 velocity=0 time=0.004
EXTRACT: note_on channel=9 note=28 velocity=0 time=0.0095
EXTRACT: note_on channel=9 note=28 velocity=0 time=0.0095
EXTRACT: note_on channel=9 note=28 velocity=0 time=0.011
EXTRACT: note_on channel=5 note=54 velocity=0 time=0.0615
EXTRACT: note_on channel=5 note=47 velocity=0 time=0.009000000000000001
EXTRACT: note_on channel=5 note=63 velocity=0 time=0.02
EXTRACT: note_on channel=5 note=59 velocity=0 time=0.016
EXTRACT: note_on channel=2 note=54 velocity=0 time=0.025
EXTRACT: note_on channel=15 note=59 velocity=0 time=0.0015
EXTRACT: note_on channel=15 note=63 velocity=0 time=0
EXTRACT: note_on channel=1 note=35 velocity=0 time=0
EXTRACT: note_on channel=15 note=66 velocity=0 time=0
EXTRACT: note_on channel=1 note=25 velocity=96 time=0
EXTRACT: note_on channel=2 note=61 velocity=105 time=0
EXTRACT: note_on channel=2 note=52 velocity=93 time=0
EXTRACT: note_on channel=2 note=56 velocity=105 time=0
EXTRACT: note_on channel=2 note=37 velocity=96 time=0
EXTRACT: note_on channel=2 note=49 velocity=105 time=0
EXTRACT: note_on channel=5 note=61 velocity=105 time=0
EXTRACT: note_on channel=5 note=52 velocity=93 time=0
EXTRACT: note_on channel=5 note=56 velocity=105 time=0
EXTRACT: note_on channel=5 note=37 velocity=96 time=0
EXTRACT: note_on channel=5 note=49 velocity=105 time=0
EXTRACT: note_on channel=9 note=35 velocity=107 time=0
EXTRACT: note_on channel=15 note=49 velocity=1 time=0
EXTRACT: note_on channel=15 note=52 velocity=1 time=0
EXTRACT: note_on channel=15 note=56 velocity=1 time=0
EXTRACT: note_on channel=2 note=47 velocity=0 time=0.0075
EXTRACT: note_on channel=2 note=63 velocity=0 time=0.0235
EXTRACT: note_on channel=2 note=59 velocity=0 time=0.0125
EXTRACT: note_on channel=9 note=35 velocity=0 time=0.057
EXTRACT: note_on channel=3 note=59 velocity=96 time=0.1395
EXTRACT: note_on channel=3 note=59 velocity=0 time=0.08
EXTRACT: note_on channel=3 note=61 velocity=119 time=0.16
EXTRACT: note_on channel=3 note=61 velocity=0 time=0.091
EXTRACT: note_on channel=9 note=28 velocity=100 time=0.029
EXTRACT: note_on channel=9 note=28 velocity=100 time=0.0125
EXTRACT: note_on channel=9 note=28 velocity=100 time=0.013000000000000001
EXTRACT: note_on channel=9 note=28 velocity=100 time=0.0125
EXTRACT: note_on channel=9 note=28 velocity=100 time=0.0125
EXTRACT: note_on channel=9 note=28 velocity=100 time=0.011
EXTRACT: note_on channel=9 note=28 velocity=100 time=0.0115
EXTRACT: note_on channel=9 note=28 velocity=100 time=0.0135
EXTRACT: note_on channel=9 note=28 velocity=100 time=0.0095
EXTRACT: note_on channel=9 note=28 velocity=100 time=0.011
EXTRACT: note_on channel=3 note=59 velocity=98 time=0.013000000000000001
EXTRACT: note_on channel=9 note=37 velocity=100 time=0
EXTRACT: note_on channel=9 note=28 velocity=127 time=0
EXTRACT: note_on channel=9 note=76 velocity=105 time=0
EXTRACT: note_on channel=9 note=76 velocity=0 time=0.054
EXTRACT: note_on channel=9 note=28 velocity=0 time=0.007
EXTRACT: note_on channel=3 note=59 velocity=0 time=0.031
EXTRACT: note_on channel=2 note=49 velocity=0 time=0.148
EXTRACT: note_on channel=15 note=56 velocity=0 time=0
EXTRACT: note_on channel=15 note=49 velocity=0 time=0
EXTRACT: note_on channel=15 note=52 velocity=0 time=0
EXTRACT: note_on channel=5 note=52 velocity=0 time=0
EXTRACT: note_on channel=2 note=61 velocity=0 time=0
EXTRACT: note_on channel=5 note=61 velocity=0 time=0
EXTRACT: note_on channel=1 note=25 velocity=0 time=0
EXTRACT: note_on channel=5 note=37 velocity=0 time=0
EXTRACT: note_on channel=2 note=52 velocity=0 time=0
EXTRACT: note_on channel=5 note=56 velocity=0 time=0
EXTRACT: note_on channel=5 note=49 velocity=0 time=0
EXTRACT: note_on channel=2 note=56 velocity=0 time=0
EXTRACT: note_on channel=2 note=37 velocity=0 time=0
EXTRACT: note_on channel=2 note=56 velocity=116 time=0
EXTRACT: note_on channel=2 note=59 velocity=105 time=0
EXTRACT: note_on channel=2 note=52 velocity=98 time=0
EXTRACT: note_on channel=2 note=40 velocity=93 time=0
EXTRACT: note_on channel=3 note=61 velocity=122 time=0
EXTRACT: note_on channel=5 note=56 velocity=116 time=0
EXTRACT: note_on channel=5 note=59 velocity=105 time=0
EXTRACT: note_on channel=5 note=52 velocity=98 time=0
EXTRACT: note_on channel=5 note=40 velocity=93 time=0
EXTRACT: note_on channel=9 note=28 velocity=127 time=0
EXTRACT: note_on channel=9 note=76 velocity=109 time=0
EXTRACT: note_on channel=9 note=37 velocity=122 time=0
EXTRACT: note_on channel=15 note=52 velocity=1 time=0
EXTRACT: note_on channel=15 note=56 velocity=1 time=0
EXTRACT: note_on channel=15 note=59 velocity=1 time=0
EXTRACT: note_on channel=1 note=28 velocity=93 time=0.01
EXTRACT: note_on channel=9 note=28 velocity=0 time=0.053
EXTRACT: note_on channel=9 note=76 velocity=0 time=0.002
EXTRACT: note_on channel=9 note=37 velocity=0 time=0.002
EXTRACT: note_on channel=3 note=61 velocity=0 time=0.031
EXTRACT: note_on channel=9 note=28 velocity=0 time=0.022
EXTRACT: note_on channel=9 note=28 velocity=0 time=0.0125
EXTRACT: note_on channel=9 note=28 velocity=0 time=0.013000000000000001
EXTRACT: note_on channel=9 note=28 velocity=0 time=0.0125
EXTRACT: note_on channel=9 note=28 velocity=0 time=0.0125
EXTRACT: note_on channel=9 note=28 velocity=0 time=0.011
EXTRACT: note_on channel=9 note=28 velocity=0 time=0.0115
EXTRACT: note_on channel=9 note=28 velocity=0 time=0.0135
EXTRACT: note_on channel=9 note=28 velocity=0 time=0.0095
EXTRACT: note_on channel=9 note=28 velocity=0 time=0.011
EXTRACT: note_on channel=9 note=37 velocity=0 time=0.013000000000000001
EXTRACT: note_on channel=3 note=63 velocity=124 time=0
EXTRACT: note_on channel=3 note=63 velocity=0 time=0.073
EXTRACT: note_on channel=3 note=63 velocity=127 time=0.167
EXTRACT: note_on channel=9 note=35 velocity=109 time=0
EXTRACT: note_on channel=9 note=76 velocity=116 time=0
EXTRACT: note_on channel=9 note=28 velocity=127 time=0
EXTRACT: note_on channel=9 note=37 velocity=122 time=0
EXTRACT: note_on channel=9 note=76 velocity=0 time=0.062
EXTRACT: note_on channel=9 note=35 velocity=0 time=0.008
EXTRACT: note_on channel=9 note=28 velocity=0 time=0.003
EXTRACT: note_on channel=9 note=37 velocity=0 time=0.015
EXTRACT: note_on channel=3 note=63 velocity=0 time=0.213
EXTRACT: note_on channel=5 note=56 velocity=0 time=0.179
EXTRACT: note_on channel=15 note=56 velocity=0 time=0
EXTRACT: note_on channel=2 note=59 velocity=0 time=0
EXTRACT: note_on channel=5 note=40 velocity=0 time=0
EXTRACT: note_on channel=15 note=52 velocity=0 time=0
EXTRACT: note_on channel=2 note=56 velocity=0 time=0
EXTRACT: note_on channel=5 note=52 velocity=0 time=0
EXTRACT: note_on channel=15 note=59 velocity=0 time=0
EXTRACT: note_on channel=2 note=40 velocity=0 time=0
EXTRACT: note_on channel=2 note=52 velocity=0 time=0
EXTRACT: note_on channel=5 note=59 velocity=0 time=0
EXTRACT: note_on channel=1 note=35 velocity=82 time=0
EXTRACT: note_on channel=2 note=63 velocity=114 time=0
EXTRACT: note_on channel=2 note=59 velocity=109 time=0
EXTRACT: note_on channel=2 note=54 velocity=109 time=0
EXTRACT: note_on channel=2 note=47 velocity=82 time=0
EXTRACT: note_on channel=5 note=63 velocity=114 time=0
EXTRACT: note_on channel=5 note=59 velocity=109 time=0
EXTRACT: note_on channel=5 note=54 velocity=109 time=0
EXTRACT: note_on channel=5 note=47 velocity=82 time=0
EXTRACT: note_on channel=15 note=63 velocity=1 time=0
EXTRACT: note_on channel=15 note=59 velocity=1 time=0
EXTRACT: note_on channel=15 note=66 velocity=1 time=0
EXTRACT: note_on channel=1 note=28 velocity=0 time=0.01
EXTRACT: note_on channel=3 note=59 velocity=109 time=0.23
EXTRACT: note_on channel=9 note=76 velocity=114 time=0
EXTRACT: note_on channel=9 note=28 velocity=127 time=0
EXTRACT: note_on channel=9 note=37 velocity=114 time=0
EXTRACT: note_on channel=9 note=76 velocity=0 time=0.055
EXTRACT: note_on channel=9 note=28 velocity=0 time=0.0115
EXTRACT: note_on channel=3 note=59 velocity=0 time=0.0105
EXTRACT: note_on channel=9 note=37 velocity=0 time=0.003
EXTRACT: note_on channel=3 note=61 velocity=122 time=0.16
EXTRACT: note_on channel=9 note=60 velocity=103 time=0
EXTRACT: note_on channel=9 note=60 velocity=0 time=0.07
EXTRACT: note_on channel=3 note=61 velocity=0 time=0.031
EXTRACT: note_on channel=3 note=63 velocity=124 time=0.139
EXTRACT: note_on channel=9 note=76 velocity=116 time=0
EXTRACT: note_on channel=9 note=28 velocity=127 time=0
EXTRACT: note_on channel=9 note=37 velocity=124 time=0
EXTRACT: note_on channel=9 note=76 velocity=0 time=0.059000000000000004
EXTRACT: note_on channel=9 note=28 velocity=0 time=0.0055
EXTRACT: note_on channel=9 note=37 velocity=0 time=0.0195
EXTRACT: note_on channel=3 note=63 velocity=0 time=0.0035
EXTRACT: note_on channel=3 note=61 velocity=127 time=0.1525
EXTRACT: note_on channel=9 note=35 velocity=112 time=0
EXTRACT: note_on channel=9 note=35 velocity=0 time=0.069
EXTRACT: note_on channel=9 note=28 velocity=100 time=0.171
EXTRACT: note_on channel=9 note=28 velocity=100 time=0.0125
EXTRACT: note_on channel=9 note=28 velocity=100 time=0.013000000000000001
EXTRACT: note_on channel=9 note=28 velocity=100 time=0.0125
EXTRACT: note_on channel=9 note=28 velocity=100 time=0.0125
EXTRACT: note_on channel=9 note=28 velocity=100 time=0.011
EXTRACT: note_on channel=9 note=28 velocity=100 time=0.0115
EXTRACT: note_on channel=9 note=28 velocity=100 time=0.0135
EXTRACT: note_on channel=9 note=28 velocity=100 time=0.0095
EXTRACT: note_on channel=9 note=28 velocity=100 time=0.011
EXTRACT: note_on channel=3 note=61 velocity=0 time=0.006500000000000001
EXTRACT: note_on channel=9 note=28 velocity=127 time=0.006500000000000001
EXTRACT: note_on channel=9 note=28 velocity=0 time=0.061
EXTRACT: note_on channel=3 note=59 velocity=107 time=0.059000000000000004
EXTRACT: note_on channel=9 note=76 velocity=101 time=0
EXTRACT: note_on channel=9 note=28 velocity=127 time=0
EXTRACT: note_on channel=9 note=37 velocity=112 time=0
EXTRACT: note_on channel=9 note=28 velocity=0 time=0.062
EXTRACT: note_on channel=9 note=37 velocity=0 time=0.0145
EXTRACT: note_on channel=9 note=76 velocity=0 time=0.0025
EXTRACT: note_on channel=3 note=59 velocity=0 time=0.015
EXTRACT: note_on channel=9 note=28 velocity=0 time=0.146
EXTRACT: note_on channel=9 note=76 velocity=116 time=0
EXTRACT: note_on channel=9 note=28 velocity=127 time=0
EXTRACT: note_on channel=9 note=37 velocity=114 time=0
EXTRACT: note_on channel=9 note=28 velocity=0 time=0.0125
EXTRACT: note_on channel=9 note=28 velocity=0 time=0.013000000000000001
EXTRACT: note_on channel=9 note=28 velocity=0 time=0.0125
EXTRACT: note_on channel=9 note=28 velocity=0 time=0.0125
EXTRACT: note_on channel=9 note=28 velocity=0 time=0.0095
EXTRACT: note_on channel=9 note=28 velocity=0 time=0.0015
EXTRACT: note_on channel=9 note=76 velocity=0 time=0.0075
EXTRACT: note_on channel=9 note=28 velocity=0 time=0.004
EXTRACT: note_on channel=9 note=37 velocity=0 time=0.004
EXTRACT: note_on channel=9 note=28 velocity=0 time=0.0095
EXTRACT: note_on channel=9 note=28 velocity=0 time=0.0095
EXTRACT: note_on channel=9 note=28 velocity=0 time=0.011
EXTRACT: note_on channel=1 note=35 velocity=0 time=0.133
EXTRACT: note_on channel=2 note=54 velocity=0 time=0
EXTRACT: note_on channel=5 note=47 velocity=0 time=0
EXTRACT: note_on channel=2 note=59 velocity=0 time=0
EXTRACT: note_on channel=5 note=54 velocity=0 time=0
EXTRACT: note_on channel=15 note=66 velocity=0 time=0
EXTRACT: note_on channel=2 note=47 velocity=0 time=0
EXTRACT: note_on channel=15 note=63 velocity=0 time=0
EXTRACT: note_on channel=2 note=63 velocity=0 time=0
EXTRACT: note_on channel=15 note=59 velocity=0 time=0
EXTRACT: note_on channel=5 note=59 velocity=0 time=0
EXTRACT: note_on channel=5 note=63 velocity=0 time=0
EXTRACT: note_on channel=1 note=25 velocity=96 time=0
EXTRACT: note_on channel=2 note=61 velocity=105 time=0
EXTRACT: note_on channel=2 note=52 velocity=93 time=0
EXTRACT: note_on channel=2 note=56 velocity=105 time=0
EXTRACT: note_on channel=2 note=37 velocity=96 time=0
EXTRACT: note_on channel=2 note=49 velocity=105 time=0
EXTRACT: note_on channel=5 note=61 velocity=105 time=0
EXTRACT: note_on channel=5 note=52 velocity=93 time=0
EXTRACT: note_on channel=5 note=56 velocity=105 time=0
EXTRACT: note_on channel=5 note=37 velocity=96 time=0
EXTRACT: note_on channel=5 note=49 velocity=105 time=0
EXTRACT: note_on channel=9 note=35 velocity=107 time=0
EXTRACT: note_on channel=15 note=56 velocity=1 time=0
EXTRACT: note_on channel=15 note=52 velocity=1 time=0
EXTRACT: note_on channel=15 note=49 velocity=1 time=0
EXTRACT: note_on channel=9 note=35 velocity=0 time=0.1005
EXTRACT: note_on channel=3 note=59 velocity=103 time=0.1395
EXTRACT: note_on channel=3 note=59 velocity=0 time=0.12
EXTRACT: note_on channel=3 note=61 velocity=124 time=0.12
EXTRACT: note_on channel=3 note=61 velocity=0 time=0.12
EXTRACT: note_on channel=9 note=28 velocity=100 time=0
EXTRACT: note_on channel=9 note=28 velocity=100 time=0.0125
EXTRACT: note_on channel=9 note=28 velocity=100 time=0.013000000000000001
EXTRACT: note_on channel=9 note=28 velocity=100 time=0.0125
EXTRACT: note_on channel=9 note=28 velocity=100 time=0.0125
EXTRACT: note_on channel=9 note=28 velocity=100 time=0.011
EXTRACT: note_on channel=9 note=28 velocity=100 time=0.0115
EXTRACT: note_on channel=9 note=28 velocity=100 time=0.0135
EXTRACT: note_on channel=9 note=28 velocity=100 time=0.0095
EXTRACT: note_on channel=9 note=28 velocity=100 time=0.011
EXTRACT: note_on channel=3 note=59 velocity=105 time=0.013000000000000001
EXTRACT: note_on channel=7 note=83 velocity=114 time=0
EXTRACT: note_on channel=9 note=37 velocity=100 time=0
EXTRACT: note_on channel=9 note=28 velocity=127 time=0
EXTRACT: note_on channel=9 note=76 velocity=105 time=0
EXTRACT: note_on channel=9 note=76 velocity=0 time=0.054
EXTRACT: note_on channel=9 note=28 velocity=0 time=0.007
EXTRACT: note_on channel=3 note=59 velocity=0 time=0.052000000000000005
EXTRACT: note_on channel=7 note=83 velocity=0 time=0.036000000000000004
EXTRACT: note_on channel=2 note=49 velocity=0 time=0.091
EXTRACT: note_on channel=5 note=37 velocity=0 time=0
EXTRACT: note_on channel=5 note=61 velocity=0 time=0
EXTRACT: note_on channel=1 note=25 velocity=0 time=0
EXTRACT: note_on channel=2 note=56 velocity=0 time=0
EXTRACT: note_on channel=5 note=56 velocity=0 time=0
EXTRACT: note_on channel=2 note=52 velocity=0 time=0
EXTRACT: note_on channel=5 note=52 velocity=0 time=0
EXTRACT: note_on channel=5 note=49 velocity=0 time=0
EXTRACT: note_on channel=2 note=61 velocity=0 time=0
EXTRACT: note_on channel=15 note=49 velocity=0 time=0
EXTRACT: note_on channel=15 note=56 velocity=0 time=0
EXTRACT: note_on channel=2 note=37 velocity=0 time=0
EXTRACT: note_on channel=15 note=52 velocity=0 time=0
EXTRACT: note_on channel=1 note=28 velocity=105 time=0
EXTRACT: note_on channel=2 note=61 velocity=119 time=0
EXTRACT: note_on channel=2 note=52 velocity=105 time=0
EXTRACT: note_on channel=2 note=55 velocity=109 time=0
EXTRACT: note_on channel=2 note=59 velocity=109 time=0
EXTRACT: note_on channel=2 note=40 velocity=105 time=0
EXTRACT: note_on channel=3 note=61 velocity=124 time=0
EXTRACT: note_on channel=5 note=61 velocity=119 time=0
EXTRACT: note_on channel=5 note=52 velocity=105 time=0
EXTRACT: note_on channel=5 note=55 velocity=109 time=0
EXTRACT: note_on channel=5 note=59 velocity=109 time=0
EXTRACT: note_on channel=5 note=40 velocity=105 time=0
EXTRACT: note_on channel=7 note=83 velocity=109 time=0
EXTRACT: note_on channel=9 note=28 velocity=127 time=0
EXTRACT: note_on channel=9 note=76 velocity=109 time=0
EXTRACT: note_on channel=9 note=37 velocity=122 time=0
EXTRACT: note_on channel=15 note=55 velocity=1 time=0
EXTRACT: note_on channel=15 note=59 velocity=1 time=0
EXTRACT: note_on channel=15 note=61 velocity=1 time=0
EXTRACT: note_on channel=9 note=28 velocity=0 time=0.063
EXTRACT: note_on channel=9 note=76 velocity=0 time=0.002
EXTRACT: note_on channel=9 note=37 velocity=0 time=0.002
EXTRACT: note_on channel=3 note=61 velocity=0 time=0.047
EXTRACT: note_on channel=9 note=28 velocity=0 time=0.006
EXTRACT: note_on channel=9 note=28 velocity=0 time=0.0125
EXTRACT: note_on channel=9 note=28 velocity=0 time=0.013000000000000001
EXTRACT: note_on channel=9 note=28 velocity=0 time=0.0125
EXTRACT: note_on channel=7 note=83 velocity=0 time=0.006
EXTRACT: note_on channel=9 note=28 velocity=0 time=0.006500000000000001
EXTRACT: note_on channel=9 note=28 velocity=0 time=0.011
EXTRACT: note_on channel=9 note=28 velocity=0 time=0.0115
EXTRACT: note_on channel=9 note=28 velocity=0 time=0.0135
EXTRACT: note_on channel=9 note=28 velocity=0 time=0.0095
EXTRACT: note_on channel=9 note=28 velocity=0 time=0.011
EXTRACT: note_on channel=9 note=37 velocity=0 time=0.013000000000000001
EXTRACT: note_on channel=3 note=63 velocity=124 time=0
EXTRACT: note_on channel=7 note=83 velocity=103 time=0
EXTRACT: note_on channel=3 note=63 velocity=0 time=0.089
EXTRACT: note_on channel=7 note=83 velocity=0 time=0.07200000000000001
EXTRACT: note_on channel=3 note=63 velocity=124 time=0.079
EXTRACT: note_on channel=7 note=83 velocity=112 time=0
EXTRACT: note_on channel=9 note=35 velocity=109 time=0
EXTRACT: note_on channel=9 note=76 velocity=116 time=0
EXTRACT: note_on channel=9 note=28 velocity=127 time=0
EXTRACT: note_on channel=9 note=37 velocity=122 time=0
EXTRACT: note_on channel=9 note=76 velocity=0 time=0.062
EXTRACT: note_on channel=9 note=35 velocity=0 time=0.008
EXTRACT: note_on channel=9 note=28 velocity=0 time=0.003
EXTRACT: note_on channel=9 note=37 velocity=0 time=0.015
EXTRACT: note_on channel=7 note=83 velocity=0 time=0.08700000000000001
EXTRACT: note_on channel=3 note=63 velocity=0 time=0.0265
EXTRACT: note_on channel=3 note=59 velocity=114 time=0.0385
EXTRACT: note_on channel=7 note=83 velocity=119 time=0
EXTRACT: note_on channel=3 note=59 velocity=0 time=0.1285
EXTRACT: note_on channel=7 note=83 velocity=0 time=0.091
EXTRACT: note_on channel=15 note=61 velocity=0 time=0.0205
EXTRACT: note_on channel=15 note=59 velocity=0 time=0
EXTRACT: note_on channel=2 note=52 velocity=0 time=0
EXTRACT: note_on channel=5 note=40 velocity=0 time=0
EXTRACT: note_on channel=15 note=55 velocity=0 time=0
EXTRACT: note_on channel=5 note=59 velocity=0 time=0
EXTRACT: note_on channel=2 note=61 velocity=0 time=0
EXTRACT: note_on channel=5 note=61 velocity=0 time=0
EXTRACT: note_on channel=5 note=52 velocity=0 time=0
EXTRACT: note_on channel=2 note=40 velocity=0 time=0
EXTRACT: note_on channel=1 note=28 velocity=0 time=0
EXTRACT: note_on channel=5 note=55 velocity=0 time=0
EXTRACT: note_on channel=2 note=59 velocity=0 time=0
EXTRACT: note_on channel=2 note=55 velocity=0 time=0
EXTRACT: note_on channel=1 note=35 velocity=96 time=0
EXTRACT: note_on channel=2 note=54 velocity=116 time=0
EXTRACT: note_on channel=2 note=59 velocity=112 time=0
EXTRACT: note_on channel=2 note=63 velocity=122 time=0
EXTRACT: note_on channel=2 note=47 velocity=96 time=0
EXTRACT: note_on channel=3 note=59 velocity=119 time=0
EXTRACT: note_on channel=5 note=54 velocity=116 time=0
EXTRACT: note_on channel=5 note=59 velocity=112 time=0
EXTRACT: note_on channel=5 note=63 velocity=122 time=0
EXTRACT: note_on channel=5 note=47 velocity=96 time=0
EXTRACT: note_on channel=15 note=59 velocity=1 time=0
EXTRACT: note_on channel=15 note=63 velocity=1 time=0
EXTRACT: note_on channel=15 note=66 velocity=1 time=0
EXTRACT: note_on channel=3 note=59 velocity=0 time=0.1955
EXTRACT: note_on channel=9 note=76 velocity=114 time=0.0445
EXTRACT: note_on channel=9 note=28 velocity=127 time=0
EXTRACT: note_on channel=9 note=37 velocity=114 time=0
EXTRACT: note_on channel=9 note=76 velocity=0 time=0.055
EXTRACT: note_on channel=9 note=28 velocity=0 time=0.0115
EXTRACT: note_on channel=9 note=37 velocity=0 time=0.0135
EXTRACT: note_on channel=7 note=83 velocity=116 time=0.16
EXTRACT: note_on channel=9 note=60 velocity=103 time=0
EXTRACT: note_on channel=9 note=60 velocity=0 time=0.07
EXTRACT: note_on channel=9 note=76 velocity=116 time=0.17
EXTRACT: note_on channel=9 note=28 velocity=127 time=0
EXTRACT: note_on channel=9 note=37 velocity=124 time=0
EXTRACT: note_on channel=9 note=76 velocity=0 time=0.059000000000000004
EXTRACT: note_on channel=9 note=28 velocity=0 time=0.0055
EXTRACT: note_on channel=9 note=37 velocity=0 time=0.0195
EXTRACT: note_on channel=9 note=35 velocity=112 time=0.156
EXTRACT: note_on channel=7 note=83 velocity=0 time=0.014
EXTRACT: note_on channel=9 note=35 velocity=0 time=0.055
EXTRACT: note_on channel=9 note=28 velocity=100 time=0.171
EXTRACT: note_on channel=9 note=28 velocity=100 time=0.0125
EXTRACT: note_on channel=9 note=28 velocity=100 time=0.013000000000000001
EXTRACT: note_on channel=9 note=28 velocity=100 time=0.0125
EXTRACT: note_on channel=9 note=28 velocity=100 time=0.0125
EXTRACT: note_on channel=9 note=28 velocity=100 time=0.011
EXTRACT: note_on channel=9 note=28 velocity=100 time=0.0115
EXTRACT: note_on channel=9 note=28 velocity=100 time=0.0135
EXTRACT: note_on channel=9 note=28 velocity=100 time=0.0095
EXTRACT: note_on channel=9 note=28 velocity=100 time=0.011
EXTRACT: note_on channel=9 note=28 velocity=127 time=0.013000000000000001
EXTRACT: note_on channel=9 note=28 velocity=0 time=0.061
EXTRACT: note_on channel=7 note=80 velocity=122 time=0.059000000000000004
EXTRACT: note_on channel=9 note=76 velocity=101 time=0
EXTRACT: note_on channel=9 note=28 velocity=127 time=0
EXTRACT: note_on channel=9 note=37 velocity=112 time=0
EXTRACT: note_on channel=9 note=28 velocity=0 time=0.062
EXTRACT: note_on channel=9 note=37 velocity=0 time=0.0145
EXTRACT: note_on channel=9 note=76 velocity=0 time=0.0025
EXTRACT: note_on channel=3 note=66 velocity=119 time=0.041
EXTRACT: note_on channel=9 note=28 velocity=0 time=0.12
EXTRACT: note_on channel=9 note=76 velocity=116 time=0
EXTRACT: note_on channel=9 note=28 velocity=127 time=0
EXTRACT: note_on channel=9 note=37 velocity=114 time=0
EXTRACT: note_on channel=9 note=28 velocity=0 time=0.0125
EXTRACT: note_on channel=3 note=66 velocity=0 time=0.0005
EXTRACT: note_on channel=9 note=28 velocity=0 time=0.0125
EXTRACT: note_on channel=9 note=28 velocity=0 time=0.0125
EXTRACT: note_on channel=9 note=28 velocity=0 time=0.0125
EXTRACT: note_on channel=9 note=28 velocity=0 time=0.0095
EXTRACT: note_on channel=9 note=28 velocity=0 time=0.0015
EXTRACT: note_on channel=9 note=76 velocity=0 time=0.0075
EXTRACT: note_on channel=9 note=28 velocity=0 time=0.004
EXTRACT: note_on channel=9 note=37 velocity=0 time=0.004
EXTRACT: note_on channel=9 note=28 velocity=0 time=0.0095
EXTRACT: note_on channel=9 note=28 velocity=0 time=0.0095
EXTRACT: note_on channel=9 note=28 velocity=0 time=0.011
EXTRACT: note_on channel=7 note=80 velocity=0 time=0.093
EXTRACT: note_on channel=2 note=47 velocity=0 time=0.04
EXTRACT: note_on channel=2 note=59 velocity=0 time=0
EXTRACT: note_on channel=5 note=63 velocity=0 time=0
EXTRACT: note_on channel=5 note=47 velocity=0 time=0
EXTRACT: note_on channel=1 note=35 velocity=0 time=0
EXTRACT: note_on channel=5 note=54 velocity=0 time=0
EXTRACT: note_on channel=2 note=54 velocity=0 time=0
EXTRACT: note_on channel=2 note=63 velocity=0 time=0
EXTRACT: note_on channel=15 note=66 velocity=0 time=0
EXTRACT: note_on channel=5 note=59 velocity=0 time=0
EXTRACT: note_on channel=15 note=59 velocity=0 time=0
EXTRACT: note_on channel=15 note=63 velocity=0 time=0
EXTRACT: note_on channel=1 note=28 velocity=127 time=0
EXTRACT: note_on channel=2 note=56 velocity=112 time=0
EXTRACT: note_on channel=2 note=59 velocity=112 time=0
EXTRACT: note_on channel=2 note=52 velocity=107 time=0
EXTRACT: note_on channel=2 note=64 velocity=98 time=0
EXTRACT: note_on channel=2 note=40 velocity=101 time=0
EXTRACT: note_on channel=3 note=68 velocity=127 time=0
EXTRACT: note_on channel=5 note=56 velocity=112 time=0
EXTRACT: note_on channel=5 note=59 velocity=112 time=0
EXTRACT: note_on channel=5 note=52 velocity=107 time=0
EXTRACT: note_on channel=5 note=64 velocity=98 time=0
EXTRACT: note_on channel=5 note=40 velocity=101 time=0
EXTRACT: note_on channel=8 note=47 velocity=122 time=0
EXTRACT: note_on channel=8 note=40 velocity=116 time=0
EXTRACT: note_on channel=9 note=57 velocity=124 time=0
EXTRACT: note_on channel=9 note=35 velocity=107 time=0
EXTRACT: note_on channel=15 note=59 velocity=1 time=0
EXTRACT: note_on channel=15 note=52 velocity=1 time=0
EXTRACT: note_on channel=15 note=56 velocity=1 time=0
EXTRACT: note_on channel=9 note=57 velocity=0 time=0.065
EXTRACT: note_on channel=9 note=35 velocity=0 time=0.035500000000000004
EXTRACT: note_on channel=3 note=68 velocity=0 time=0.0325
EXTRACT: note_on channel=3 note=66 velocity=119 time=0.107
EXTRACT: note_on channel=3 note=66 velocity=0 time=0.094
EXTRACT: note_on channel=3 note=68 velocity=124 time=0.146
EXTRACT: note_on channel=9 note=28 velocity=100 time=0.12
EXTRACT: note_on channel=9 note=28 velocity=100 time=0.0125
EXTRACT: note_on channel=3 note=68 velocity=0 time=0.0075
EXTRACT: note_on channel=9 note=28 velocity=100 time=0.0055
EXTRACT: note_on channel=9 note=28 velocity=100 time=0.0125
EXTRACT: note_on channel=9 note=28 velocity=100 time=0.0125
EXTRACT: note_on channel=9 note=28 velocity=100 time=0.011
EXTRACT: note_on channel=9 note=28 velocity=100 time=0.0115
EXTRACT: note_on channel=9 note=28 velocity=100 time=0.0135
EXTRACT: note_on channel=9 note=28 velocity=100 time=0.0095
EXTRACT: note_on channel=9 note=28 velocity=100 time=0.011
EXTRACT: note_on channel=3 note=66 velocity=119 time=0.013000000000000001
EXTRACT: note_on channel=9 note=37 velocity=100 time=0
EXTRACT: note_on channel=9 note=28 velocity=127 time=0
EXTRACT: note_on channel=9 note=76 velocity=105 time=0
EXTRACT: note_on channel=9 note=76 velocity=0 time=0.054
EXTRACT: note_on channel=9 note=28 velocity=0 time=0.007
EXTRACT: note_on channel=3 note=66 velocity=0 time=0.05
EXTRACT: note_on channel=3 note=68 velocity=127 time=0.129
EXTRACT: note_on channel=9 note=28 velocity=127 time=0
EXTRACT: note_on channel=9 note=76 velocity=109 time=0
EXTRACT: note_on channel=9 note=39 velocity=127 time=0
EXTRACT: note_on channel=9 note=37 velocity=127 time=0
EXTRACT: note_on channel=9 note=40 velocity=127 time=0
EXTRACT: note_on channel=9 note=37 velocity=122 time=0
EXTRACT: note_on channel=9 note=37 velocity=105 time=0.0235
EXTRACT: note_on channel=9 note=37 velocity=0 time=0.014
EXTRACT: note_on channel=9 note=28 velocity=0 time=0.025500000000000002
EXTRACT: note_on channel=9 note=76 velocity=0 time=0.002
EXTRACT: note_on channel=9 note=37 velocity=0 time=0.002
EXTRACT: note_on channel=9 note=39 velocity=0 time=0.017
EXTRACT: note_on channel=9 note=28 velocity=0 time=0.036000000000000004
EXTRACT: note_on channel=9 note=40 velocity=0 time=0.0045000000000000005
EXTRACT: note_on channel=9 note=28 velocity=0 time=0.008
EXTRACT: note_on channel=9 note=37 velocity=0 time=0.002
EXTRACT: note_on channel=9 note=28 velocity=0 time=0.011
EXTRACT: note_on channel=9 note=28 velocity=0 time=0.0125
EXTRACT: note_on channel=9 note=28 velocity=0 time=0.0125
EXTRACT: note_on channel=9 note=28 velocity=0 time=0.011
EXTRACT: note_on channel=9 note=28 velocity=0 time=0.0115
EXTRACT: note_on channel=9 note=28 velocity=0 time=0.0135
EXTRACT: note_on channel=9 note=28 velocity=0 time=0.0095
EXTRACT: note_on channel=3 note=68 velocity=0 time=0.0075
EXTRACT: note_on channel=9 note=28 velocity=0 time=0.0035
EXTRACT: note_on channel=9 note=37 velocity=0 time=0.013000000000000001
EXTRACT: note_on channel=1 note=28 velocity=0 time=0.1765
EXTRACT: note_on channel=1 note=28 velocity=116 time=0.0635
EXTRACT: note_on channel=3 note=71 velocity=122 time=0
EXTRACT: note_on channel=7 note=64 velocity=105 time=0
EXTRACT: note_on channel=7 note=66 velocity=112 time=0
EXTRACT: note_on channel=7 note=59 velocity=93 time=0
EXTRACT: note_on channel=9 note=35 velocity=109 time=0
EXTRACT: note_on channel=9 note=76 velocity=116 time=0
EXTRACT: note_on channel=9 note=28 velocity=127 time=0
EXTRACT: note_on channel=9 note=37 velocity=122 time=0
EXTRACT: note_on channel=9 note=76 velocity=0 time=0.062
EXTRACT: note_on channel=9 note=35 velocity=0 time=0.008
EXTRACT: note_on channel=9 note=28 velocity=0 time=0.003
EXTRACT: note_on channel=9 note=37 velocity=0 time=0.015
EXTRACT: note_on channel=3 note=71 velocity=0 time=0.3825
EXTRACT: note_on channel=9 note=76 velocity=114 time=0.2495
EXTRACT: note_on channel=9 note=28 velocity=127 time=0
EXTRACT: note_on channel=9 note=37 velocity=114 time=0
EXTRACT: note_on channel=9 note=76 velocity=0 time=0.055
EXTRACT: note_on channel=9 note=28 velocity=0 time=0.0115
EXTRACT: note_on channel=9 note=37 velocity=0 time=0.0135
EXTRACT: note_on channel=9 note=60 velocity=103 time=0.16
EXTRACT: note_on channel=9 note=60 velocity=0 time=0.07
EXTRACT: note_on channel=9 note=76 velocity=116 time=0.17
EXTRACT: note_on channel=9 note=28 velocity=127 time=0
EXTRACT: note_on channel=9 note=37 velocity=124 time=0
EXTRACT: note_on channel=9 note=76 velocity=0 time=0.059000000000000004
EXTRACT: note_on channel=9 note=28 velocity=0 time=0.0055
EXTRACT: note_on channel=9 note=37 velocity=0 time=0.0195
EXTRACT: note_on channel=1 note=28 velocity=0 time=0.13
EXTRACT: note_on channel=1 note=28 velocity=119 time=0.026000000000000002
EXTRACT: note_on channel=9 note=35 velocity=112 time=0
EXTRACT: note_on channel=9 note=39 velocity=127 time=0
EXTRACT: note_on channel=9 note=37 velocity=127 time=0
EXTRACT: note_on channel=9 note=40 velocity=127 time=0
EXTRACT: note_on channel=9 note=35 velocity=0 time=0.069
EXTRACT: note_on channel=9 note=39 velocity=0 time=0.015
EXTRACT: note_on channel=9 note=37 velocity=0 time=0.0895
EXTRACT: note_on channel=9 note=40 velocity=0 time=0.006
EXTRACT: note_on channel=9 note=28 velocity=100 time=0.0605
EXTRACT: note_on channel=9 note=28 velocity=100 time=0.0125
EXTRACT: note_on channel=9 note=28 velocity=100 time=0.013000000000000001
EXTRACT: note_on channel=9 note=28 velocity=100 time=0.0125
EXTRACT: note_on channel=9 note=28 velocity=100 time=0.0125
EXTRACT: note_on channel=9 note=28 velocity=100 time=0.011
EXTRACT: note_on channel=9 note=28 velocity=100 time=0.0115
EXTRACT: note_on channel=9 note=28 velocity=100 time=0.0135
EXTRACT: note_on channel=9 note=28 velocity=100 time=0.0095
EXTRACT: note_on channel=9 note=28 velocity=100 time=0.011
EXTRACT: note_on channel=9 note=28 velocity=127 time=0.013000000000000001
EXTRACT: note_on channel=9 note=28 velocity=0 time=0.061
EXTRACT: note_on channel=3 note=68 velocity=127 time=0.059000000000000004
EXTRACT: note_on channel=9 note=76 velocity=101 time=0
EXTRACT: note_on channel=9 note=28 velocity=127 time=0
EXTRACT: note_on channel=9 note=37 velocity=112 time=0
EXTRACT: note_on channel=9 note=28 velocity=0 time=0.062
EXTRACT: note_on channel=9 note=37 velocity=0 time=0.0145
EXTRACT: note_on channel=9 note=76 velocity=0 time=0.0025
EXTRACT: note_on channel=3 note=68 velocity=0 time=0.0325
EXTRACT: note_on channel=3 note=68 velocity=114 time=0.1125
EXTRACT: note_on channel=9 note=28 velocity=0 time=0.016
EXTRACT: note_on channel=9 note=76 velocity=116 time=0
EXTRACT: note_on channel=9 note=28 velocity=127 time=0
EXTRACT: note_on channel=9 note=37 velocity=114 time=0
EXTRACT: note_on channel=9 note=28 velocity=0 time=0.0125
EXTRACT: note_on channel=9 note=28 velocity=0 time=0.013000000000000001
EXTRACT: note_on channel=9 note=28 velocity=0 time=0.0125
EXTRACT: note_on channel=9 note=28 velocity=0 time=0.0125
EXTRACT: note_on channel=9 note=28 velocity=0 time=0.0095
EXTRACT: note_on channel=9 note=28 velocity=0 time=0.0015
EXTRACT: note_on channel=9 note=76 velocity=0 time=0.0075
EXTRACT: note_on channel=9 note=28 velocity=0 time=0.004
EXTRACT: note_on channel=9 note=37 velocity=0 time=0.004
EXTRACT: note_on channel=9 note=28 velocity=0 time=0.0095
EXTRACT: note_on channel=9 note=28 velocity=0 time=0.0095
EXTRACT: note_on channel=3 note=68 velocity=0 time=0.0095
EXTRACT: note_on channel=9 note=28 velocity=0 time=0.0015
EXTRACT: note_on channel=7 note=59 velocity=0 time=0.07
EXTRACT: note_on channel=7 note=66 velocity=0 time=0.009000000000000001
EXTRACT: note_on channel=7 note=64 velocity=0 time=0.004
EXTRACT: note_on channel=1 note=28 velocity=0 time=0.0305
EXTRACT: note_on channel=2 note=52 velocity=0 time=0.0195
EXTRACT: note_on channel=5 note=52 velocity=0 time=0
EXTRACT: note_on channel=5 note=59 velocity=0 time=0
EXTRACT: note_on channel=2 note=59 velocity=0 time=0
EXTRACT: note_on channel=2 note=40 velocity=0 time=0
EXTRACT: note_on channel=8 note=47 velocity=0 time=0
EXTRACT: note_on channel=5 note=56 velocity=0 time=0
EXTRACT: note_on channel=15 note=56 velocity=0 time=0
EXTRACT: note_on channel=2 note=56 velocity=0 time=0
EXTRACT: note_on channel=15 note=59 velocity=0 time=0
EXTRACT: note_on channel=2 note=64 velocity=0 time=0
EXTRACT: note_on channel=5 note=40 velocity=0 time=0
EXTRACT: note_on channel=5 note=64 velocity=0 time=0
EXTRACT: note_on channel=8 note=40 velocity=0 time=0
EXTRACT: note_on channel=15 note=52 velocity=0 time=0
EXTRACT: note_on channel=1 note=30 velocity=127 time=0
EXTRACT: note_on channel=2 note=58 velocity=119 time=0
EXTRACT: note_on channel=2 note=66 velocity=119 time=0
EXTRACT: note_on channel=2 note=61 velocity=114 time=0
EXTRACT: note_on channel=2 note=42 velocity=112 time=0
EXTRACT: note_on channel=2 note=54 velocity=119 time=0
EXTRACT: note_on channel=3 note=70 velocity=127 time=0
EXTRACT: note_on channel=5 note=58 velocity=119 time=0
EXTRACT: note_on channel=5 note=66 velocity=119 time=0
EXTRACT: note_on channel=5 note=61 velocity=114 time=0
EXTRACT: note_on channel=5 note=42 velocity=112 time=0
EXTRACT: note_on channel=5 note=54 velocity=119 time=0
EXTRACT: note_on channel=7 note=61 velocity=105 time=0
EXTRACT: note_on channel=7 note=66 velocity=109 time=0
EXTRACT: note_on channel=8 note=49 velocity=122 time=0
EXTRACT: note_on channel=8 note=42 velocity=105 time=0
EXTRACT: note_on channel=9 note=35 velocity=107 time=0
EXTRACT: note_on channel=15 note=58 velocity=1 time=0
EXTRACT: note_on channel=15 note=54 velocity=1 time=0
EXTRACT: note_on channel=15 note=61 velocity=1 time=0
EXTRACT: note_on channel=9 note=35 velocity=0 time=0.1005
EXTRACT: note_on channel=3 note=70 velocity=0 time=0.008
EXTRACT: note_on channel=3 note=68 velocity=124 time=0.1315
EXTRACT: note_on channel=3 note=68 velocity=0 time=0.10250000000000001
EXTRACT: note_on channel=3 note=70 velocity=127 time=0.1375
EXTRACT: note_on channel=3 note=70 velocity=0 time=0.1045
EXTRACT: note_on channel=9 note=28 velocity=100 time=0.0155
EXTRACT: note_on channel=9 note=28 velocity=100 time=0.0125
EXTRACT: note_on channel=9 note=28 velocity=100 time=0.013000000000000001
EXTRACT: note_on channel=9 note=28 velocity=100 time=0.0125
EXTRACT: note_on channel=9 note=28 velocity=100 time=0.0125
EXTRACT: note_on channel=9 note=28 velocity=100 time=0.011
EXTRACT: note_on channel=9 note=28 velocity=100 time=0.0115
EXTRACT: note_on channel=9 note=28 velocity=100 time=0.0135
EXTRACT: note_on channel=9 note=28 velocity=100 time=0.0095
EXTRACT: note_on channel=9 note=28 velocity=100 time=0.011
EXTRACT: note_on channel=3 note=68 velocity=124 time=0.013000000000000001
EXTRACT: note_on channel=9 note=37 velocity=100 time=0
EXTRACT: note_on channel=9 note=28 velocity=127 time=0
EXTRACT: note_on channel=9 note=76 velocity=105 time=0
EXTRACT: note_on channel=9 note=76 velocity=0 time=0.054
EXTRACT: note_on channel=9 note=28 velocity=0 time=0.007
EXTRACT: note_on channel=3 note=68 velocity=0 time=0.044
EXTRACT: note_on channel=3 note=70 velocity=127 time=0.135
EXTRACT: note_on channel=9 note=39 velocity=124 time=0
EXTRACT: note_on channel=9 note=28 velocity=127 time=0
EXTRACT: note_on channel=9 note=76 velocity=109 time=0
EXTRACT: note_on channel=9 note=37 velocity=127 time=0
EXTRACT: note_on channel=9 note=40 velocity=127 time=0
EXTRACT: note_on channel=9 note=37 velocity=122 time=0
EXTRACT: note_on channel=9 note=28 velocity=0 time=0.063
EXTRACT: note_on channel=9 note=76 velocity=0 time=0.002
EXTRACT: note_on channel=9 note=37 velocity=0 time=0.002
EXTRACT: note_on channel=9 note=39 velocity=0 time=0.019
EXTRACT: note_on channel=9 note=40 velocity=0 time=0.014
EXTRACT: note_on channel=9 note=37 velocity=0 time=0.013000000000000001
EXTRACT: note_on channel=9 note=28 velocity=0 time=0.007
EXTRACT: note_on channel=9 note=28 velocity=0 time=0.0125
EXTRACT: note_on channel=9 note=28 velocity=0 time=0.013000000000000001
EXTRACT: note_on channel=9 note=28 velocity=0 time=0.0125
EXTRACT: note_on channel=9 note=28 velocity=0 time=0.0125
EXTRACT: note_on channel=9 note=28 velocity=0 time=0.011
EXTRACT: note_on channel=9 note=28 velocity=0 time=0.0115
EXTRACT: note_on channel=9 note=28 velocity=0 time=0.0135
EXTRACT: note_on channel=9 note=28 velocity=0 time=0.0095
EXTRACT: note_on channel=9 note=28 velocity=0 time=0.011
EXTRACT: note_on channel=9 note=37 velocity=0 time=0.013000000000000001
EXTRACT: note_on channel=3 note=70 velocity=0 time=0.135
EXTRACT: note_on channel=1 note=30 velocity=0 time=0.0375
EXTRACT: note_on channel=1 note=30 velocity=119 time=0.0675
EXTRACT: note_on channel=7 note=83 velocity=122 time=0
EXTRACT: note_on channel=9 note=35 velocity=109 time=0
EXTRACT: note_on channel=9 note=76 velocity=116 time=0
EXTRACT: note_on channel=9 note=28 velocity=127 time=0
EXTRACT: note_on channel=9 note=37 velocity=122 time=0
EXTRACT: note_on channel=9 note=76 velocity=0 time=0.062
EXTRACT: note_on channel=9 note=35 velocity=0 time=0.008
EXTRACT: note_on channel=9 note=28 velocity=0 time=0.003
EXTRACT: note_on channel=9 note=37 velocity=0 time=0.015
EXTRACT: note_on channel=3 note=68 velocity=127 time=0.1315
EXTRACT: note_on channel=7 note=66 velocity=0 time=0.014
EXTRACT: note_on channel=7 note=61 velocity=0 time=0.029
EXTRACT: note_on channel=3 note=68 velocity=0 time=0.03
EXTRACT: note_on channel=7 note=83 velocity=0 time=0.1225
EXTRACT: note_on channel=3 note=70 velocity=127 time=0.062
EXTRACT: note_on channel=3 note=70 velocity=0 time=0.101
EXTRACT: note_on channel=1 note=30 velocity=0 time=0.79
EXTRACT: note_on channel=8 note=42 velocity=0 time=0.07200000000000001
EXTRACT: note_on channel=8 note=49 velocity=0 time=0
EXTRACT: note_on channel=2 note=66 velocity=0 time=0.96
EXTRACT: note_on channel=2 note=54 velocity=0 time=0
EXTRACT: note_on channel=15 note=58 velocity=0 time=0
EXTRACT: note_on channel=2 note=42 velocity=0 time=0
EXTRACT: note_on channel=15 note=61 velocity=0 time=0
EXTRACT: note_on channel=5 note=58 velocity=0 time=0
EXTRACT: note_on channel=2 note=58 velocity=0 time=0
EXTRACT: note_on channel=5 note=61 velocity=0 time=0
EXTRACT: note_on channel=2 note=61 velocity=0 time=0
EXTRACT: note_on channel=15 note=54 velocity=0 time=0
EXTRACT: note_on channel=5 note=66 velocity=0 time=0
EXTRACT: note_on channel=5 note=54 velocity=0 time=0
EXTRACT: note_on channel=5 note=42 velocity=0 time=0
