EXTRACT: program_change channel=0 program=0 time=0
EXTRACT: note_on channel=0 note=50 velocity=62 time=0
EXTRACT: note_off channel=0 note=50 velocity=0 time=0.29126199999999997
EXTRACT: note_on channel=0 note=57 velocity=62 time=0
EXTRACT: note_on channel=0 note=62 velocity=62 time=0
EXTRACT: note_off channel=0 note=57 velocity=0 time=0.29126199999999997
EXTRACT: note_off channel=0 note=62 velocity=0 time=0
EXTRACT: note_on channel=0 note=50 velocity=62 time=0
EXTRACT: note_off channel=0 note=50 velocity=0 time=0.29126199999999997
EXTRACT: note_on channel=0 note=57 velocity=62 time=0
EXTRACT: note_on channel=0 note=62 velocity=62 time=0
EXTRACT: note_off channel=0 note=57 velocity=0 time=0.29126199999999997
EXTRACT: note_off channel=0 note=62 velocity=0 time=0
EXTRACT: note_on channel=0 note=50 velocity=62 time=0
EXTRACT: note_off channel=0 note=50 velocity=0 time=0.29126199999999997
EXTRACT: note_on channel=0 note=57 velocity=62 time=0
EXTRACT: note_on channel=0 note=62 velocity=62 time=0
EXTRACT: note_off channel=0 note=57 velocity=0 time=0.29126199999999997
EXTRACT: note_off channel=0 note=62 velocity=0 time=0
EXTRACT: note_on channel=0 note=50 velocity=62 time=0
EXTRACT: note_off channel=0 note=50 velocity=0 time=0.29126199999999997
EXTRACT: note_on channel=0 note=57 velocity=62 time=0
EXTRACT: note_on channel=0 note=62 velocity=62 time=0
EXTRACT: note_off channel=0 note=57 velocity=0 time=0.29126199999999997
EXTRACT: note_off channel=0 note=62 velocity=0 time=0
EXTRACT: note_on channel=0 note=54 velocity=62 time=0
EXTRACT: note_off channel=0 note=54 velocity=0 time=0.29126199999999997
EXTRACT: note_on channel=0 note=57 velocity=62 time=0
EXTRACT: note_on channel=0 note=61 velocity=62 time=0
EXTRACT: note_off channel=0 note=57 velocity=0 time=0.29126199999999997
EXTRACT: note_off channel=0 note=61 velocity=0 time=0
EXTRACT: note_on channel=0 note=54 velocity=62 time=0
EXTRACT: note_off channel=0 note=54 velocity=0 time=0.29126199999999997
EXTRACT: note_on channel=0 note=57 velocity=62 time=0
EXTRACT: note_on channel=0 note=61 velocity=62 time=0
EXTRACT: note_off channel=0 note=57 velocity=0 time=0.29126199999999997
EXTRACT: note_off channel=0 note=61 velocity=0 time=0
EXTRACT: note_on channel=0 note=54 velocity=62 time=0
EXTRACT: note_off channel=0 note=54 velocity=0 time=0.29126199999999997
EXTRACT: note_on channel=0 note=57 velocity=62 time=0
EXTRACT: note_on channel=0 note=61 velocity=62 time=0
EXTRACT: note_off channel=0 note=57 velocity=0 time=0.29126199999999997
EXTRACT: note_off channel=0 note=61 velocity=0 time=0
EXTRACT: note_on channel=0 note=54 velocity=62 time=0
EXTRACT: note_off channel=0 note=54 velocity=0 time=0.29126199999999997
EXTRACT: note_on channel=0 note=57 velocity=62 time=0
EXTRACT: note_on channel=0 note=61 velocity=62 time=0
EXTRACT: note_off channel=0 note=57 velocity=0 time=0.29126199999999997
EXTRACT: note_off channel=0 note=61 velocity=0 time=0
EXTRACT: note_on channel=0 note=50 velocity=62 time=0
EXTRACT: note_off channel=0 note=50 velocity=0 time=0.29126199999999997
EXTRACT: note_on channel=0 note=57 velocity=62 time=0
EXTRACT: note_on channel=0 note=62 velocity=62 time=0
EXTRACT: note_off channel=0 note=57 velocity=0 time=0.29126199999999997
EXTRACT: note_off channel=0 note=62 velocity=0 time=0
EXTRACT: note_on channel=0 note=50 velocity=62 time=0
EXTRACT: note_off channel=0 note=50 velocity=0 time=0.29126199999999997
EXTRACT: note_on channel=0 note=57 velocity=62 time=0
EXTRACT: note_on channel=0 note=62 velocity=62 time=0
EXTRACT: note_off channel=0 note=57 velocity=0 time=0.29126199999999997
EXTRACT: note_off channel=0 note=62 velocity=0 time=0
EXTRACT: note_on channel=0 note=50 velocity=62 time=0
EXTRACT: note_off channel=0 note=50 velocity=0 time=0.29126199999999997
EXTRACT: note_on channel=0 note=57 velocity=62 time=0
EXTRACT: note_on channel=0 note=62 velocity=62 time=0
EXTRACT: note_off channel=0 note=57 velocity=0 time=0.29126199999999997
EXTRACT: note_off channel=0 note=62 velocity=0 time=0
EXTRACT: note_on channel=0 note=50 velocity=62 time=0
EXTRACT: note_off channel=0 note=50 velocity=0 time=0.29126199999999997
EXTRACT: note_on channel=0 note=57 velocity=62 time=0
EXTRACT: note_on channel=0 note=62 velocity=62 time=0
EXTRACT: note_off channel=0 note=57 velocity=0 time=0.29126199999999997
EXTRACT: note_off channel=0 note=62 velocity=0 time=0
EXTRACT: note_on channel=0 note=54 velocity=62 time=0
EXTRACT: note_off channel=0 note=54 velocity=0 time=0.29126199999999997
EXTRACT: note_on channel=0 note=57 velocity=62 time=0
EXTRACT: note_on channel=0 note=61 velocity=62 time=0
EXTRACT: note_off channel=0 note=57 velocity=0 time=0.29126199999999997
EXTRACT: note_off channel=0 note=61 velocity=0 time=0
EXTRACT: note_on channel=0 note=54 velocity=62 time=0
EXTRACT: note_off channel=0 note=54 velocity=0 time=0.29126199999999997
EXTRACT: note_on channel=0 note=57 velocity=62 time=0
EXTRACT: note_on channel=0 note=61 velocity=62 time=0
EXTRACT: note_off channel=0 note=57 velocity=0 time=0.29126199999999997
EXTRACT: note_off channel=0 note=61 velocity=0 time=0
EXTRACT: note_on channel=0 note=54 velocity=62 time=0
EXTRACT: note_off channel=0 note=54 velocity=0 time=0.29126199999999997
EXTRACT: note_on channel=0 note=57 velocity=62 time=0
EXTRACT: note_on channel=0 note=61 velocity=62 time=0
EXTRACT: note_off channel=0 note=57 velocity=0 time=0.29126199999999997
EXTRACT: note_off channel=0 note=61 velocity=0 time=0
EXTRACT: note_on channel=0 note=54 velocity=62 time=0
EXTRACT: note_off channel=0 note=54 velocity=0 time=0.29126199999999997
EXTRACT: note_on channel=0 note=57 velocity=62 time=0
EXTRACT: note_on channel=0 note=61 velocity=62 time=0
EXTRACT: note_off channel=0 note=57 velocity=0 time=0.29126199999999997
EXTRACT: note_off channel=0 note=61 velocity=0 time=0
EXTRACT: note_on channel=0 note=50 velocity=62 time=0
EXTRACT: note_on channel=0 note=69 velocity=62 time=0.29126199999999997
EXTRACT: note_off channel=0 note=50 velocity=0 time=0
EXTRACT: note_on channel=0 note=57 velocity=62 time=0
EXTRACT: note_on channel=0 note=62 velocity=62 time=0
EXTRACT: note_off channel=0 note=69 velocity=0 time=0.29126199999999997
EXTRACT: note_on channel=0 note=69 velocity=62 time=0
EXTRACT: note_off channel=0 note=57 velocity=0 time=0
EXTRACT: note_off channel=0 note=62 velocity=0 time=0
EXTRACT: note_on channel=0 note=50 velocity=62 time=0
EXTRACT: note_off channel=0 note=69 velocity=0 time=0.29126199999999997
EXTRACT: note_on channel=0 note=69 velocity=62 time=0
EXTRACT: note_off channel=0 note=50 velocity=0 time=0
EXTRACT: note_on channel=0 note=57 velocity=62 time=0
EXTRACT: note_on channel=0 note=62 velocity=62 time=0
EXTRACT: note_off channel=0 note=69 velocity=0 time=0.14563099999999998
EXTRACT: note_on channel=0 note=69 velocity=62 time=0
EXTRACT: note_off channel=0 note=57 velocity=0 time=0.14563099999999998
EXTRACT: note_off channel=0 note=62 velocity=0 time=0
EXTRACT: note_on channel=0 note=50 velocity=62 time=0
EXTRACT: note_off channel=0 note=69 velocity=0 time=0.14563099999999998
EXTRACT: note_on channel=0 note=67 velocity=62 time=0
EXTRACT: note_off channel=0 note=50 velocity=0 time=0.14563099999999998
EXTRACT: note_on channel=0 note=57 velocity=62 time=0
EXTRACT: note_on channel=0 note=62 velocity=62 time=0
EXTRACT: note_off channel=0 note=67 velocity=0 time=0.14563099999999998
EXTRACT: note_on channel=0 note=66 velocity=62 time=0
EXTRACT: note_off channel=0 note=57 velocity=0 time=0.14563099999999998
EXTRACT: note_off channel=0 note=62 velocity=0 time=0
EXTRACT: note_on channel=0 note=50 velocity=62 time=0
EXTRACT: note_off channel=0 note=66 velocity=0 time=0.14563099999999998
EXTRACT: note_on channel=0 note=67 velocity=62 time=0
EXTRACT: note_off channel=0 note=50 velocity=0 time=0.14563099999999998
EXTRACT: note_on channel=0 note=57 velocity=62 time=0
EXTRACT: note_on channel=0 note=62 velocity=62 time=0
EXTRACT: note_off channel=0 note=67 velocity=0 time=0.14563099999999998
EXTRACT: note_on channel=0 note=69 velocity=62 time=0
EXTRACT: note_off channel=0 note=57 velocity=0 time=0.14563099999999998
EXTRACT: note_off channel=0 note=62 velocity=0 time=0
EXTRACT: note_on channel=0 note=54 velocity=62 time=0
EXTRACT: note_off channel=0 note=69 velocity=0 time=0.29126199999999997
EXTRACT: note_on channel=0 note=69 velocity=62 time=0
EXTRACT: note_off channel=0 note=54 velocity=0 time=0
EXTRACT: note_on channel=0 note=57 velocity=62 time=0
EXTRACT: note_on channel=0 note=61 velocity=62 time=0
EXTRACT: note_off channel=0 note=69 velocity=0 time=0.29126199999999997
EXTRACT: note_on channel=0 note=69 velocity=62 time=0
EXTRACT: note_off channel=0 note=57 velocity=0 time=0
EXTRACT: note_off channel=0 note=61 velocity=0 time=0
EXTRACT: note_on channel=0 note=54 velocity=62 time=0
EXTRACT: note_off channel=0 note=69 velocity=0 time=0.14563099999999998
EXTRACT: note_on channel=0 note=71 velocity=62 time=0
EXTRACT: note_off channel=0 note=54 velocity=0 time=0.14563099999999998
EXTRACT: note_on channel=0 note=57 velocity=62 time=0
EXTRACT: note_on channel=0 note=61 velocity=62 time=0
EXTRACT: note_off channel=0 note=71 velocity=0 time=0.29126199999999997
EXTRACT: note_on channel=0 note=69 velocity=62 time=0
EXTRACT: note_off channel=0 note=57 velocity=0 time=0
EXTRACT: note_off channel=0 note=61 velocity=0 time=0
EXTRACT: note_on channel=0 note=54 velocity=62 time=0
EXTRACT: note_off channel=0 note=69 velocity=0 time=0.14563099999999998
EXTRACT: note_on channel=0 note=67 velocity=62 time=0
EXTRACT: note_off channel=0 note=54 velocity=0 time=0.14563099999999998
EXTRACT: note_on channel=0 note=57 velocity=62 time=0
EXTRACT: note_on channel=0 note=61 velocity=62 time=0
EXTRACT: note_off channel=0 note=67 velocity=0 time=0.29126199999999997
EXTRACT: note_on channel=0 note=66 velocity=62 time=0
EXTRACT: note_off channel=0 note=57 velocity=0 time=0
EXTRACT: note_off channel=0 note=61 velocity=0 time=0
EXTRACT: note_on channel=0 note=54 velocity=62 time=0
EXTRACT: note_off channel=0 note=66 velocity=0 time=0.29126199999999997
EXTRACT: note_on channel=0 note=67 velocity=62 time=0
EXTRACT: note_off channel=0 note=54 velocity=0 time=0
EXTRACT: note_on channel=0 note=57 velocity=62 time=0
EXTRACT: note_on channel=0 note=61 velocity=62 time=0
EXTRACT: note_off channel=0 note=67 velocity=0 time=0.29126199999999997
EXTRACT: note_off channel=0 note=57 velocity=0 time=0
EXTRACT: note_off channel=0 note=61 velocity=0 time=0
EXTRACT: note_on channel=0 note=69 velocity=62 time=0
EXTRACT: note_on channel=0 note=50 velocity=62 time=0
EXTRACT: note_off channel=0 note=69 velocity=0 time=0.29126199999999997
EXTRACT: note_on channel=0 note=69 velocity=62 time=0
EXTRACT: note_off channel=0 note=50 velocity=0 time=0
EXTRACT: note_on channel=0 note=57 velocity=62 time=0
EXTRACT: note_on channel=0 note=62 velocity=62 time=0
EXTRACT: note_off channel=0 note=69 velocity=0 time=0.29126199999999997
EXTRACT: note_on channel=0 note=69 velocity=62 time=0
EXTRACT: note_off channel=0 note=57 velocity=0 time=0
EXTRACT: note_off channel=0 note=62 velocity=0 time=0
EXTRACT: note_on channel=0 note=50 velocity=62 time=0
EXTRACT: note_off channel=0 note=69 velocity=0 time=0.29126199999999997
EXTRACT: note_on channel=0 note=69 velocity=62 time=0
EXTRACT: note_off channel=0 note=50 velocity=0 time=0
EXTRACT: note_on channel=0 note=57 velocity=62 time=0
EXTRACT: note_on channel=0 note=62 velocity=62 time=0
EXTRACT: note_off channel=0 note=69 velocity=0 time=0.14563099999999998
EXTRACT: note_on channel=0 note=69 velocity=62 time=0
EXTRACT: note_off channel=0 note=57 velocity=0 time=0.14563099999999998
EXTRACT: note_off channel=0 note=62 velocity=0 time=0
EXTRACT: note_on channel=0 note=50 velocity=62 time=0
EXTRACT: note_off channel=0 note=69 velocity=0 time=0.29126199999999997
EXTRACT: note_on channel=0 note=67 velocity=62 time=0
EXTRACT: note_off channel=0 note=50 velocity=0 time=0
EXTRACT: note_on channel=0 note=57 velocity=62 time=0
EXTRACT: note_on channel=0 note=62 velocity=62 time=0
EXTRACT: note_off channel=0 note=67 velocity=0 time=0.29126199999999997
EXTRACT: note_on channel=0 note=66 velocity=62 time=0
EXTRACT: note_off channel=0 note=57 velocity=0 time=0
EXTRACT: note_off channel=0 note=62 velocity=0 time=0
EXTRACT: note_on channel=0 note=50 velocity=62 time=0
EXTRACT: note_off channel=0 note=66 velocity=0 time=0.29126199999999997
EXTRACT: note_on channel=0 note=67 velocity=62 time=0
EXTRACT: note_off channel=0 note=50 velocity=0 time=0
EXTRACT: note_on channel=0 note=57 velocity=62 time=0
EXTRACT: note_on channel=0 note=62 velocity=62 time=0
EXTRACT: note_off channel=0 note=67 velocity=0 time=0.14563099999999998
EXTRACT: note_on channel=0 note=69 velocity=62 time=0
EXTRACT: note_off channel=0 note=57 velocity=0 time=0.14563099999999998
EXTRACT: note_off channel=0 note=62 velocity=0 time=0
EXTRACT: note_on channel=0 note=54 velocity=62 time=0
EXTRACT: note_off channel=0 note=69 velocity=0 time=0.29126199999999997
EXTRACT: note_on channel=0 note=69 velocity=62 time=0
EXTRACT: note_off channel=0 note=54 velocity=0 time=0
EXTRACT: note_on channel=0 note=57 velocity=62 time=0
EXTRACT: note_on channel=0 note=61 velocity=62 time=0
EXTRACT: note_off channel=0 note=69 velocity=0 time=0.29126199999999997
EXTRACT: note_on channel=0 note=69 velocity=62 time=0
EXTRACT: note_off channel=0 note=57 velocity=0 time=0
EXTRACT: note_off channel=0 note=61 velocity=0 time=0
EXTRACT: note_on channel=0 note=54 velocity=62 time=0
EXTRACT: note_off channel=0 note=69 velocity=0 time=0.29126199999999997
EXTRACT: note_on channel=0 note=71 velocity=62 time=0
EXTRACT: note_off channel=0 note=54 velocity=0 time=0
EXTRACT: note_on channel=0 note=57 velocity=62 time=0
EXTRACT: note_on channel=0 note=61 velocity=62 time=0
EXTRACT: note_off channel=0 note=71 velocity=0 time=0.29126199999999997
EXTRACT: note_on channel=0 note=69 velocity=62 time=0
EXTRACT: note_off channel=0 note=57 velocity=0 time=0
EXTRACT: note_off channel=0 note=61 velocity=0 time=0
EXTRACT: note_on channel=0 note=54 velocity=62 time=0
EXTRACT: note_off channel=0 note=69 velocity=0 time=0.14563099999999998
EXTRACT: note_on channel=0 note=67 velocity=62 time=0
EXTRACT: note_off channel=0 note=54 velocity=0 time=0.14563099999999998
EXTRACT: note_on channel=0 note=57 velocity=62 time=0
EXTRACT: note_on channel=0 note=61 velocity=62 time=0
EXTRACT: note_off channel=0 note=67 velocity=0 time=0.29126199999999997
EXTRACT: note_on channel=0 note=66 velocity=62 time=0
EXTRACT: note_off channel=0 note=57 velocity=0 time=0
EXTRACT: note_off channel=0 note=61 velocity=0 time=0
EXTRACT: note_on channel=0 note=54 velocity=62 time=0
EXTRACT: note_off channel=0 note=66 velocity=0 time=0.29126199999999997
EXTRACT: note_on channel=0 note=64 velocity=62 time=0
EXTRACT: note_off channel=0 note=64 velocity=0 time=0.29126199999999997
EXTRACT: note_off channel=0 note=54 velocity=0 time=0
EXTRACT: note_on channel=0 note=66 velocity=62 time=0
EXTRACT: note_on channel=0 note=47 velocity=62 time=0
EXTRACT: note_off channel=0 note=47 velocity=0 time=0.29126199999999997
EXTRACT: note_on channel=0 note=50 velocity=62 time=0
EXTRACT: note_on channel=0 note=54 velocity=62 time=0
EXTRACT: note_off channel=0 note=50 velocity=0 time=0.29126199999999997
EXTRACT: note_off channel=0 note=54 velocity=0 time=0
EXTRACT: note_on channel=0 note=47 velocity=62 time=0
EXTRACT: note_off channel=0 note=47 velocity=0 time=0.29126199999999997
EXTRACT: note_on channel=0 note=50 velocity=62 time=0
EXTRACT: note_on channel=0 note=54 velocity=62 time=0
EXTRACT: note_off channel=0 note=50 velocity=0 time=0.29126199999999997
EXTRACT: note_off channel=0 note=54 velocity=0 time=0
EXTRACT: note_on channel=0 note=47 velocity=62 time=0
EXTRACT: note_off channel=0 note=47 velocity=0 time=0.29126199999999997
EXTRACT: note_on channel=0 note=50 velocity=62 time=0
EXTRACT: note_on channel=0 note=54 velocity=62 time=0
EXTRACT: note_off channel=0 note=50 velocity=0 time=0.29126199999999997
EXTRACT: note_off channel=0 note=54 velocity=0 time=0
EXTRACT: note_on channel=0 note=45 velocity=62 time=0
EXTRACT: note_on channel=0 note=57 velocity=62 time=0
EXTRACT: note_off channel=0 note=66 velocity=0 time=0.5825239999999999
EXTRACT: note_off channel=0 note=45 velocity=0 time=0
EXTRACT: note_off channel=0 note=57 velocity=0 time=0
EXTRACT: note_on channel=0 note=43 velocity=62 time=0
EXTRACT: note_on channel=0 note=67 velocity=62 time=0.29126199999999997
EXTRACT: note_off channel=0 note=43 velocity=0 time=0
EXTRACT: note_on channel=0 note=47 velocity=62 time=0
EXTRACT: note_on channel=0 note=50 velocity=62 time=0
EXTRACT: note_off channel=0 note=67 velocity=0 time=0.29126199999999997
EXTRACT: note_on channel=0 note=67 velocity=62 time=0
EXTRACT: note_off channel=0 note=47 velocity=0 time=0
EXTRACT: note_off channel=0 note=50 velocity=0 time=0
EXTRACT: note_on channel=0 note=43 velocity=62 time=0
EXTRACT: note_off channel=0 note=67 velocity=0 time=0.29126199999999997
EXTRACT: note_on channel=0 note=67 velocity=62 time=0
EXTRACT: note_off channel=0 note=43 velocity=0 time=0
EXTRACT: note_on channel=0 note=47 velocity=62 time=0
EXTRACT: note_on channel=0 note=50 velocity=62 time=0
EXTRACT: note_off channel=0 note=67 velocity=0 time=0.14563099999999998
EXTRACT: note_on channel=0 note=66 velocity=62 time=0
EXTRACT: note_off channel=0 note=47 velocity=0 time=0.14563099999999998
EXTRACT: note_off channel=0 note=50 velocity=0 time=0
EXTRACT: note_on channel=0 note=45 velocity=62 time=0
EXTRACT: note_off channel=0 note=66 velocity=0 time=0.29126199999999997
EXTRACT: note_on channel=0 note=64 velocity=62 time=0
EXTRACT: note_off channel=0 note=45 velocity=0 time=0
EXTRACT: note_on channel=0 note=49 velocity=62 time=0
EXTRACT: note_on channel=0 note=52 velocity=62 time=0
EXTRACT: note_off channel=0 note=64 velocity=0 time=0.29126199999999997
EXTRACT: note_on channel=0 note=62 velocity=62 time=0
EXTRACT: note_off channel=0 note=49 velocity=0 time=0
EXTRACT: note_off channel=0 note=52 velocity=0 time=0
EXTRACT: note_on channel=0 note=45 velocity=62 time=0
EXTRACT: note_off channel=0 note=62 velocity=0 time=0.29126199999999997
EXTRACT: note_on channel=0 note=64 velocity=62 time=0
EXTRACT: note_off channel=0 note=45 velocity=0 time=0
EXTRACT: note_on channel=0 note=49 velocity=62 time=0
EXTRACT: note_on channel=0 note=52 velocity=62 time=0
EXTRACT: note_off channel=0 note=64 velocity=0 time=0.29126199999999997
EXTRACT: note_off channel=0 note=49 velocity=0 time=0
EXTRACT: note_off channel=0 note=52 velocity=0 time=0
EXTRACT: note_on channel=0 note=66 velocity=62 time=0
EXTRACT: note_on channel=0 note=47 velocity=62 time=0
EXTRACT: note_off channel=0 note=47 velocity=0 time=0.29126199999999997
EXTRACT: note_on channel=0 note=50 velocity=62 time=0
EXTRACT: note_on channel=0 note=54 velocity=62 time=0
EXTRACT: note_off channel=0 note=50 velocity=0 time=0.29126199999999997
EXTRACT: note_off channel=0 note=54 velocity=0 time=0
EXTRACT: note_on channel=0 note=47 velocity=62 time=0
EXTRACT: note_off channel=0 note=47 velocity=0 time=0.29126199999999997
EXTRACT: note_on channel=0 note=50 velocity=62 time=0
EXTRACT: note_on channel=0 note=54 velocity=62 time=0
EXTRACT: note_off channel=0 note=66 velocity=0 time=0.29126199999999997
EXTRACT: note_off channel=0 note=50 velocity=0 time=0
EXTRACT: note_off channel=0 note=54 velocity=0 time=0
EXTRACT: note_on channel=0 note=47 velocity=62 time=0
EXTRACT: note_on channel=0 note=66 velocity=62 time=0.29126199999999997
EXTRACT: note_off channel=0 note=47 velocity=0 time=0
EXTRACT: note_on channel=0 note=50 velocity=62 time=0
EXTRACT: note_on channel=0 note=54 velocity=62 time=0
EXTRACT: note_off channel=0 note=66 velocity=0 time=0.29126199999999997
EXTRACT: note_on channel=0 note=66 velocity=62 time=0
EXTRACT: note_off channel=0 note=50 velocity=0 time=0
EXTRACT: note_off channel=0 note=54 velocity=0 time=0
EXTRACT: note_on channel=0 note=47 velocity=62 time=0
EXTRACT: note_off channel=0 note=66 velocity=0 time=0.29126199999999997
EXTRACT: note_on channel=0 note=62 velocity=62 time=0
EXTRACT: note_off channel=0 note=47 velocity=0 time=0
EXTRACT: note_on channel=0 note=50 velocity=62 time=0
EXTRACT: note_on channel=0 note=54 velocity=62 time=0
EXTRACT: note_off channel=0 note=62 velocity=0 time=0.29126199999999997
EXTRACT: note_off channel=0 note=50 velocity=0 time=0
EXTRACT: note_off channel=0 note=54 velocity=0 time=0
EXTRACT: note_on channel=0 note=64 velocity=62 time=0
EXTRACT: note_on channel=0 note=45 velocity=62 time=0
EXTRACT: note_off channel=0 note=45 velocity=0 time=0.29126199999999997
EXTRACT: note_on channel=0 note=49 velocity=62 time=0
EXTRACT: note_on channel=0 note=52 velocity=62 time=0
EXTRACT: note_off channel=0 note=49 velocity=0 time=0.29126199999999997
EXTRACT: note_off channel=0 note=52 velocity=0 time=0
EXTRACT: note_on channel=0 note=45 velocity=62 time=0
EXTRACT: note_off channel=0 note=45 velocity=0 time=0.29126199999999997
EXTRACT: note_on channel=0 note=49 velocity=62 time=0
EXTRACT: note_on channel=0 note=52 velocity=62 time=0
EXTRACT: note_off channel=0 note=49 velocity=0 time=0.29126199999999997
EXTRACT: note_off channel=0 note=52 velocity=0 time=0
EXTRACT: note_on channel=0 note=45 velocity=62 time=0
EXTRACT: note_off channel=0 note=45 velocity=0 time=0.29126199999999997
EXTRACT: note_on channel=0 note=49 velocity=62 time=0
EXTRACT: note_on channel=0 note=52 velocity=62 time=0
EXTRACT: note_off channel=0 note=49 velocity=0 time=0.29126199999999997
EXTRACT: note_off channel=0 note=52 velocity=0 time=0
EXTRACT: note_on channel=0 note=45 velocity=62 time=0
EXTRACT: note_off channel=0 note=45 velocity=0 time=0.29126199999999997
EXTRACT: note_on channel=0 note=49 velocity=62 time=0
EXTRACT: note_on channel=0 note=52 velocity=62 time=0
EXTRACT: note_off channel=0 note=64 velocity=0 time=0.29126199999999997
EXTRACT: note_off channel=0 note=49 velocity=0 time=0
EXTRACT: note_off channel=0 note=52 velocity=0 time=0
EXTRACT: note_on channel=0 note=50 velocity=62 time=0
EXTRACT: note_on channel=0 note=69 velocity=62 time=0.29126199999999997
EXTRACT: note_off channel=0 note=50 velocity=0 time=0
EXTRACT: note_on channel=0 note=57 velocity=62 time=0
EXTRACT: note_on channel=0 note=62 velocity=62 time=0
EXTRACT: note_off channel=0 note=69 velocity=0 time=0.29126199999999997
EXTRACT: note_on channel=0 note=69 velocity=62 time=0
EXTRACT: note_off channel=0 note=57 velocity=0 time=0
EXTRACT: note_off channel=0 note=62 velocity=0 time=0
EXTRACT: note_on channel=0 note=50 velocity=62 time=0
EXTRACT: note_off channel=0 note=69 velocity=0 time=0.29126199999999997
EXTRACT: note_on channel=0 note=69 velocity=62 time=0
EXTRACT: note_off channel=0 note=50 velocity=0 time=0
EXTRACT: note_on channel=0 note=57 velocity=62 time=0
EXTRACT: note_on channel=0 note=62 velocity=62 time=0
EXTRACT: note_off channel=0 note=69 velocity=0 time=0.14563099999999998
EXTRACT: note_on channel=0 note=69 velocity=62 time=0
EXTRACT: note_off channel=0 note=57 velocity=0 time=0.14563099999999998
EXTRACT: note_off channel=0 note=62 velocity=0 time=0
EXTRACT: note_on channel=0 note=50 velocity=62 time=0
EXTRACT: note_off channel=0 note=69 velocity=0 time=0.14563099999999998
EXTRACT: note_on channel=0 note=67 velocity=62 time=0
EXTRACT: note_off channel=0 note=50 velocity=0 time=0.14563099999999998
EXTRACT: note_on channel=0 note=57 velocity=62 time=0
EXTRACT: note_on channel=0 note=62 velocity=62 time=0
EXTRACT: note_off channel=0 note=67 velocity=0 time=0.14563099999999998
EXTRACT: note_on channel=0 note=66 velocity=62 time=0
EXTRACT: note_off channel=0 note=57 velocity=0 time=0.14563099999999998
EXTRACT: note_off channel=0 note=62 velocity=0 time=0
EXTRACT: note_on channel=0 note=50 velocity=62 time=0
EXTRACT: note_off channel=0 note=66 velocity=0 time=0.14563099999999998
EXTRACT: note_on channel=0 note=67 velocity=62 time=0
EXTRACT: note_off channel=0 note=50 velocity=0 time=0.14563099999999998
EXTRACT: note_on channel=0 note=57 velocity=62 time=0
EXTRACT: note_on channel=0 note=62 velocity=62 time=0
EXTRACT: note_off channel=0 note=67 velocity=0 time=0.14563099999999998
EXTRACT: note_on channel=0 note=69 velocity=62 time=0
EXTRACT: note_off channel=0 note=57 velocity=0 time=0.14563099999999998
EXTRACT: note_off channel=0 note=62 velocity=0 time=0
EXTRACT: note_on channel=0 note=54 velocity=62 time=0
EXTRACT: note_off channel=0 note=69 velocity=0 time=0.29126199999999997
EXTRACT: note_on channel=0 note=69 velocity=62 time=0
EXTRACT: note_off channel=0 note=54 velocity=0 time=0
EXTRACT: note_on channel=0 note=57 velocity=62 time=0
EXTRACT: note_on channel=0 note=61 velocity=62 time=0
EXTRACT: note_off channel=0 note=69 velocity=0 time=0.29126199999999997
EXTRACT: note_on channel=0 note=69 velocity=62 time=0
EXTRACT: note_off channel=0 note=57 velocity=0 time=0
EXTRACT: note_off channel=0 note=61 velocity=0 time=0
EXTRACT: note_on channel=0 note=54 velocity=62 time=0
EXTRACT: note_off channel=0 note=69 velocity=0 time=0.14563099999999998
EXTRACT: note_on channel=0 note=71 velocity=62 time=0
EXTRACT: note_off channel=0 note=54 velocity=0 time=0.14563099999999998
EXTRACT: note_on channel=0 note=57 velocity=62 time=0
EXTRACT: note_on channel=0 note=61 velocity=62 time=0
EXTRACT: note_off channel=0 note=71 velocity=0 time=0.29126199999999997
EXTRACT: note_on channel=0 note=69 velocity=62 time=0
EXTRACT: note_off channel=0 note=57 velocity=0 time=0
EXTRACT: note_off channel=0 note=61 velocity=0 time=0
EXTRACT: note_on channel=0 note=54 velocity=62 time=0
EXTRACT: note_off channel=0 note=69 velocity=0 time=0.14563099999999998
EXTRACT: note_on channel=0 note=67 velocity=62 time=0
EXTRACT: note_off channel=0 note=54 velocity=0 time=0.14563099999999998
EXTRACT: note_on channel=0 note=57 velocity=62 time=0
EXTRACT: note_on channel=0 note=61 velocity=62 time=0
EXTRACT: note_off channel=0 note=67 velocity=0 time=0.29126199999999997
EXTRACT: note_on channel=0 note=66 velocity=62 time=0
EXTRACT: note_off channel=0 note=57 velocity=0 time=0
EXTRACT: note_off channel=0 note=61 velocity=0 time=0
EXTRACT: note_on channel=0 note=54 velocity=62 time=0
EXTRACT: note_off channel=0 note=66 velocity=0 time=0.29126199999999997
EXTRACT: note_on channel=0 note=67 velocity=62 time=0
EXTRACT: note_off channel=0 note=54 velocity=0 time=0
EXTRACT: note_on channel=0 note=57 velocity=62 time=0
EXTRACT: note_on channel=0 note=61 velocity=62 time=0
EXTRACT: note_off channel=0 note=67 velocity=0 time=0.29126199999999997
EXTRACT: note_off channel=0 note=57 velocity=0 time=0
EXTRACT: note_off channel=0 note=61 velocity=0 time=0
EXTRACT: note_on channel=0 note=69 velocity=62 time=0
EXTRACT: note_on channel=0 note=50 velocity=62 time=0
EXTRACT: note_off channel=0 note=69 velocity=0 time=0.29126199999999997
EXTRACT: note_on channel=0 note=69 velocity=62 time=0
EXTRACT: note_off channel=0 note=50 velocity=0 time=0
EXTRACT: note_on channel=0 note=57 velocity=62 time=0
EXTRACT: note_on channel=0 note=62 velocity=62 time=0
EXTRACT: note_off channel=0 note=69 velocity=0 time=0.29126199999999997
EXTRACT: note_on channel=0 note=69 velocity=62 time=0
EXTRACT: note_off channel=0 note=57 velocity=0 time=0
EXTRACT: note_off channel=0 note=62 velocity=0 time=0
EXTRACT: note_on channel=0 note=50 velocity=62 time=0
EXTRACT: note_off channel=0 note=69 velocity=0 time=0.29126199999999997
EXTRACT: note_on channel=0 note=69 velocity=62 time=0
EXTRACT: note_off channel=0 note=50 velocity=0 time=0
EXTRACT: note_on channel=0 note=57 velocity=62 time=0
EXTRACT: note_on channel=0 note=62 velocity=62 time=0
EXTRACT: note_off channel=0 note=69 velocity=0 time=0.14563099999999998
EXTRACT: note_on channel=0 note=69 velocity=62 time=0
EXTRACT: note_off channel=0 note=57 velocity=0 time=0.14563099999999998
EXTRACT: note_off channel=0 note=62 velocity=0 time=0
EXTRACT: note_on channel=0 note=50 velocity=62 time=0
EXTRACT: note_off channel=0 note=69 velocity=0 time=0.29126199999999997
EXTRACT: note_on channel=0 note=67 velocity=62 time=0
EXTRACT: note_off channel=0 note=50 velocity=0 time=0
EXTRACT: note_on channel=0 note=57 velocity=62 time=0
EXTRACT: note_on channel=0 note=62 velocity=62 time=0
EXTRACT: note_off channel=0 note=67 velocity=0 time=0.29126199999999997
EXTRACT: note_on channel=0 note=66 velocity=62 time=0
EXTRACT: note_off channel=0 note=57 velocity=0 time=0
EXTRACT: note_off channel=0 note=62 velocity=0 time=0
EXTRACT: note_on channel=0 note=50 velocity=62 time=0
EXTRACT: note_off channel=0 note=66 velocity=0 time=0.29126199999999997
EXTRACT: note_on channel=0 note=67 velocity=62 time=0
EXTRACT: note_off channel=0 note=50 velocity=0 time=0
EXTRACT: note_on channel=0 note=57 velocity=62 time=0
EXTRACT: note_on channel=0 note=62 velocity=62 time=0
EXTRACT: note_off channel=0 note=67 velocity=0 time=0.14563099999999998
EXTRACT: note_on channel=0 note=69 velocity=62 time=0
EXTRACT: note_off channel=0 note=57 velocity=0 time=0.14563099999999998
EXTRACT: note_off channel=0 note=62 velocity=0 time=0
EXTRACT: note_on channel=0 note=54 velocity=62 time=0
EXTRACT: note_off channel=0 note=69 velocity=0 time=0.29126199999999997
EXTRACT: note_on channel=0 note=69 velocity=62 time=0
EXTRACT: note_off channel=0 note=54 velocity=0 time=0
EXTRACT: note_on channel=0 note=57 velocity=62 time=0
EXTRACT: note_on channel=0 note=61 velocity=62 time=0
EXTRACT: note_off channel=0 note=69 velocity=0 time=0.29126199999999997
EXTRACT: note_on channel=0 note=69 velocity=62 time=0
EXTRACT: note_off channel=0 note=57 velocity=0 time=0
EXTRACT: note_off channel=0 note=61 velocity=0 time=0
EXTRACT: note_on channel=0 note=54 velocity=62 time=0
EXTRACT: note_off channel=0 note=69 velocity=0 time=0.29126199999999997
EXTRACT: note_on channel=0 note=71 velocity=62 time=0
EXTRACT: note_off channel=0 note=54 velocity=0 time=0
EXTRACT: note_on channel=0 note=57 velocity=62 time=0
EXTRACT: note_on channel=0 note=61 velocity=62 time=0
EXTRACT: note_off channel=0 note=71 velocity=0 time=0.29126199999999997
EXTRACT: note_on channel=0 note=69 velocity=62 time=0
EXTRACT: note_off channel=0 note=57 velocity=0 time=0
EXTRACT: note_off channel=0 note=61 velocity=0 time=0
EXTRACT: note_on channel=0 note=54 velocity=62 time=0
EXTRACT: note_off channel=0 note=69 velocity=0 time=0.14563099999999998
EXTRACT: note_on channel=0 note=67 velocity=62 time=0
EXTRACT: note_off channel=0 note=54 velocity=0 time=0.14563099999999998
EXTRACT: note_on channel=0 note=57 velocity=62 time=0
EXTRACT: note_on channel=0 note=61 velocity=62 time=0
EXTRACT: note_off channel=0 note=67 velocity=0 time=0.29126199999999997
EXTRACT: note_on channel=0 note=66 velocity=62 time=0
EXTRACT: note_off channel=0 note=57 velocity=0 time=0
EXTRACT: note_off channel=0 note=61 velocity=0 time=0
EXTRACT: note_on channel=0 note=54 velocity=62 time=0
EXTRACT: note_off channel=0 note=66 velocity=0 time=0.29126199999999997
EXTRACT: note_on channel=0 note=64 velocity=62 time=0
EXTRACT: note_off channel=0 note=64 velocity=0 time=0.29126199999999997
EXTRACT: note_off channel=0 note=54 velocity=0 time=0
EXTRACT: note_on channel=0 note=66 velocity=62 time=0
EXTRACT: note_on channel=0 note=47 velocity=62 time=0
EXTRACT: note_off channel=0 note=47 velocity=0 time=0.29126199999999997
EXTRACT: note_on channel=0 note=50 velocity=62 time=0
EXTRACT: note_on channel=0 note=54 velocity=62 time=0
EXTRACT: note_off channel=0 note=50 velocity=0 time=0.29126199999999997
EXTRACT: note_off channel=0 note=54 velocity=0 time=0
EXTRACT: note_on channel=0 note=47 velocity=62 time=0
EXTRACT: note_off channel=0 note=47 velocity=0 time=0.29126199999999997
EXTRACT: note_on channel=0 note=50 velocity=62 time=0
EXTRACT: note_on channel=0 note=54 velocity=62 time=0
EXTRACT: note_off channel=0 note=50 velocity=0 time=0.29126199999999997
EXTRACT: note_off channel=0 note=54 velocity=0 time=0
EXTRACT: note_on channel=0 note=47 velocity=62 time=0
EXTRACT: note_off channel=0 note=47 velocity=0 time=0.29126199999999997
EXTRACT: note_on channel=0 note=50 velocity=62 time=0
EXTRACT: note_on channel=0 note=54 velocity=62 time=0
EXTRACT: note_off channel=0 note=50 velocity=0 time=0.29126199999999997
EXTRACT: note_off channel=0 note=54 velocity=0 time=0
EXTRACT: note_on channel=0 note=45 velocity=62 time=0
EXTRACT: note_on channel=0 note=57 velocity=62 time=0
EXTRACT: note_off channel=0 note=66 velocity=0 time=0.5825239999999999
EXTRACT: note_off channel=0 note=45 velocity=0 time=0
EXTRACT: note_off channel=0 note=57 velocity=0 time=0
EXTRACT: note_on channel=0 note=43 velocity=62 time=0
EXTRACT: note_on channel=0 note=67 velocity=62 time=0.29126199999999997
EXTRACT: note_off channel=0 note=43 velocity=0 time=0
EXTRACT: note_on channel=0 note=47 velocity=62 time=0
EXTRACT: note_on channel=0 note=50 velocity=62 time=0
EXTRACT: note_off channel=0 note=67 velocity=0 time=0.14563099999999998
EXTRACT: note_on channel=0 note=67 velocity=62 time=0
EXTRACT: note_off channel=0 note=67 velocity=0 time=0.14563099999999998
EXTRACT: note_on channel=0 note=67 velocity=62 time=0
EXTRACT: note_off channel=0 note=47 velocity=0 time=0
EXTRACT: note_off channel=0 note=50 velocity=0 time=0
EXTRACT: note_on channel=0 note=43 velocity=62 time=0
EXTRACT: note_off channel=0 note=67 velocity=0 time=0.29126199999999997
EXTRACT: note_on channel=0 note=67 velocity=62 time=0
EXTRACT: note_off channel=0 note=43 velocity=0 time=0
EXTRACT: note_on channel=0 note=47 velocity=62 time=0
EXTRACT: note_on channel=0 note=50 velocity=62 time=0
EXTRACT: note_off channel=0 note=67 velocity=0 time=0.14563099999999998
EXTRACT: note_on channel=0 note=66 velocity=62 time=0
EXTRACT: note_off channel=0 note=47 velocity=0 time=0.14563099999999998
EXTRACT: note_off channel=0 note=50 velocity=0 time=0
EXTRACT: note_on channel=0 note=45 velocity=62 time=0
EXTRACT: note_off channel=0 note=66 velocity=0 time=0.29126199999999997
EXTRACT: note_on channel=0 note=64 velocity=62 time=0
EXTRACT: note_off channel=0 note=45 velocity=0 time=0
EXTRACT: note_on channel=0 note=49 velocity=62 time=0
EXTRACT: note_on channel=0 note=52 velocity=62 time=0
EXTRACT: note_off channel=0 note=64 velocity=0 time=0.29126199999999997
EXTRACT: note_on channel=0 note=62 velocity=62 time=0
EXTRACT: note_off channel=0 note=49 velocity=0 time=0
EXTRACT: note_off channel=0 note=52 velocity=0 time=0
EXTRACT: note_on channel=0 note=45 velocity=62 time=0
EXTRACT: note_off channel=0 note=62 velocity=0 time=0.29126199999999997
EXTRACT: note_on channel=0 note=64 velocity=62 time=0
EXTRACT: note_off channel=0 note=45 velocity=0 time=0
EXTRACT: note_on channel=0 note=49 velocity=62 time=0
EXTRACT: note_on channel=0 note=52 velocity=62 time=0
EXTRACT: note_off channel=0 note=64 velocity=0 time=0.29126199999999997
EXTRACT: note_off channel=0 note=49 velocity=0 time=0
EXTRACT: note_off channel=0 note=52 velocity=0 time=0
EXTRACT: note_on channel=0 note=66 velocity=62 time=0
EXTRACT: note_on channel=0 note=47 velocity=62 time=0
EXTRACT: note_off channel=0 note=47 velocity=0 time=0.29126199999999997
EXTRACT: note_on channel=0 note=50 velocity=62 time=0
EXTRACT: note_on channel=0 note=54 velocity=62 time=0
EXTRACT: note_off channel=0 note=50 velocity=0 time=0.29126199999999997
EXTRACT: note_off channel=0 note=54 velocity=0 time=0
EXTRACT: note_on channel=0 note=47 velocity=62 time=0
EXTRACT: note_off channel=0 note=47 velocity=0 time=0.29126199999999997
EXTRACT: note_on channel=0 note=50 velocity=62 time=0
EXTRACT: note_on channel=0 note=54 velocity=62 time=0
EXTRACT: note_off channel=0 note=66 velocity=0 time=0.29126199999999997
EXTRACT: note_off channel=0 note=50 velocity=0 time=0
EXTRACT: note_off channel=0 note=54 velocity=0 time=0
EXTRACT: note_on channel=0 note=47 velocity=62 time=0
EXTRACT: note_on channel=0 note=66 velocity=62 time=0.29126199999999997
EXTRACT: note_off channel=0 note=47 velocity=0 time=0
EXTRACT: note_on channel=0 note=50 velocity=62 time=0
EXTRACT: note_on channel=0 note=54 velocity=62 time=0
EXTRACT: note_off channel=0 note=66 velocity=0 time=0.29126199999999997
EXTRACT: note_on channel=0 note=66 velocity=62 time=0
EXTRACT: note_off channel=0 note=50 velocity=0 time=0
EXTRACT: note_off channel=0 note=54 velocity=0 time=0
EXTRACT: note_on channel=0 note=47 velocity=62 time=0
EXTRACT: note_off channel=0 note=66 velocity=0 time=0.29126199999999997
EXTRACT: note_on channel=0 note=62 velocity=62 time=0
EXTRACT: note_off channel=0 note=47 velocity=0 time=0
EXTRACT: note_on channel=0 note=50 velocity=62 time=0
EXTRACT: note_on channel=0 note=54 velocity=62 time=0
EXTRACT: note_off channel=0 note=62 velocity=0 time=0.29126199999999997
EXTRACT: note_off channel=0 note=50 velocity=0 time=0
EXTRACT: note_off channel=0 note=54 velocity=0 time=0
EXTRACT: note_on channel=0 note=64 velocity=62 time=0
EXTRACT: note_on channel=0 note=45 velocity=62 time=0
EXTRACT: note_off channel=0 note=45 velocity=0 time=0.29126199999999997
EXTRACT: note_on channel=0 note=49 velocity=62 time=0
EXTRACT: note_on channel=0 note=52 velocity=62 time=0
EXTRACT: note_off channel=0 note=49 velocity=0 time=0.29126199999999997
EXTRACT: note_off channel=0 note=52 velocity=0 time=0
EXTRACT: note_on channel=0 note=45 velocity=62 time=0
EXTRACT: note_off channel=0 note=45 velocity=0 time=0.29126199999999997
EXTRACT: note_on channel=0 note=49 velocity=62 time=0
EXTRACT: note_on channel=0 note=52 velocity=62 time=0
EXTRACT: note_off channel=0 note=49 velocity=0 time=0.29126199999999997
EXTRACT: note_off channel=0 note=52 velocity=0 time=0
EXTRACT: note_on channel=0 note=45 velocity=62 time=0
EXTRACT: note_off channel=0 note=45 velocity=0 time=0.29126199999999997
EXTRACT: note_on channel=0 note=49 velocity=62 time=0
EXTRACT: note_on channel=0 note=52 velocity=62 time=0
EXTRACT: note_off channel=0 note=49 velocity=0 time=0.29126199999999997
EXTRACT: note_off channel=0 note=52 velocity=0 time=0
EXTRACT: note_on channel=0 note=45 velocity=62 time=0
EXTRACT: note_off channel=0 note=45 velocity=0 time=0.29126199999999997
EXTRACT: note_on channel=0 note=49 velocity=62 time=0
EXTRACT: note_on channel=0 note=52 velocity=62 time=0
EXTRACT: note_off channel=0 note=64 velocity=0 time=0.29126199999999997
EXTRACT: note_off channel=0 note=49 velocity=0 time=0
EXTRACT: note_off channel=0 note=52 velocity=0 time=0
EXTRACT: note_on channel=0 note=74 velocity=75 time=0
EXTRACT: note_on channel=0 note=50 velocity=75 time=0
EXTRACT: note_off channel=0 note=50 velocity=0 time=0.29126199999999997
EXTRACT: note_on channel=0 note=57 velocity=75 time=0
EXTRACT: note_on channel=0 note=62 velocity=75 time=0
EXTRACT: note_off channel=0 note=57 velocity=0 time=0.29126199999999997
EXTRACT: note_off channel=0 note=62 velocity=0 time=0
EXTRACT: note_on channel=0 note=50 velocity=75 time=0
EXTRACT: note_off channel=0 note=50 velocity=0 time=0.29126199999999997
EXTRACT: note_on channel=0 note=57 velocity=75 time=0
EXTRACT: note_on channel=0 note=62 velocity=75 time=0
EXTRACT: note_on channel=0 note=74 velocity=75 time=0.2184465
EXTRACT: note_off channel=0 note=74 velocity=0 time=0.07281549999999999
EXTRACT: note_off channel=0 note=74 velocity=0 time=0
EXTRACT: note_on channel=0 note=78 velocity=75 time=0
EXTRACT: note_off channel=0 note=57 velocity=0 time=0
EXTRACT: note_off channel=0 note=62 velocity=0 time=0
EXTRACT: note_on channel=0 note=50 velocity=75 time=0
EXTRACT: note_off channel=0 note=78 velocity=0 time=0.29126199999999997
EXTRACT: note_on channel=0 note=76 velocity=75 time=0
EXTRACT: note_off channel=0 note=50 velocity=0 time=0
EXTRACT: note_on channel=0 note=57 velocity=75 time=0
EXTRACT: note_on channel=0 note=62 velocity=75 time=0
EXTRACT: note_off channel=0 note=76 velocity=0 time=0.29126199999999997
EXTRACT: note_on channel=0 note=74 velocity=75 time=0
EXTRACT: note_off channel=0 note=57 velocity=0 time=0
EXTRACT: note_off channel=0 note=62 velocity=0 time=0
EXTRACT: note_on channel=0 note=45 velocity=75 time=0
EXTRACT: note_on channel=0 note=57 velocity=75 time=0
EXTRACT: note_off channel=0 note=74 velocity=0 time=0.29126199999999997
EXTRACT: note_on channel=0 note=73 velocity=75 time=0
EXTRACT: note_off channel=0 note=73 velocity=0 time=0.14563099999999998
EXTRACT: note_on channel=0 note=74 velocity=75 time=0
EXTRACT: note_off channel=0 note=45 velocity=0 time=0.14563099999999998
EXTRACT: note_off channel=0 note=57 velocity=0 time=0
EXTRACT: note_on channel=0 note=47 velocity=75 time=0
EXTRACT: note_off channel=0 note=74 velocity=0 time=0.29126199999999997
EXTRACT: note_on channel=0 note=73 velocity=75 time=0
EXTRACT: note_off channel=0 note=47 velocity=0 time=0
EXTRACT: note_on channel=0 note=50 velocity=75 time=0
EXTRACT: note_on channel=0 note=54 velocity=75 time=0
EXTRACT: note_off channel=0 note=73 velocity=0 time=0.29126199999999997
EXTRACT: note_on channel=0 note=71 velocity=75 time=0
EXTRACT: note_off channel=0 note=50 velocity=0 time=0
EXTRACT: note_off channel=0 note=54 velocity=0 time=0
EXTRACT: note_on channel=0 note=47 velocity=75 time=0
EXTRACT: note_off channel=0 note=47 velocity=0 time=0.29126199999999997
EXTRACT: note_on channel=0 note=50 velocity=75 time=0
EXTRACT: note_on channel=0 note=54 velocity=75 time=0
EXTRACT: note_off channel=0 note=50 velocity=0 time=0.29126199999999997
EXTRACT: note_off channel=0 note=54 velocity=0 time=0
EXTRACT: note_on channel=0 note=47 velocity=75 time=0
EXTRACT: note_off channel=0 note=47 velocity=0 time=0.29126199999999997
EXTRACT: note_on channel=0 note=50 velocity=75 time=0
EXTRACT: note_on channel=0 note=54 velocity=75 time=0
EXTRACT: note_off channel=0 note=50 velocity=0 time=0.29126199999999997
EXTRACT: note_off channel=0 note=54 velocity=0 time=0
EXTRACT: note_on channel=0 note=49 velocity=75 time=0
EXTRACT: note_off channel=0 note=49 velocity=0 time=0.29126199999999997
EXTRACT: note_on channel=0 note=52 velocity=75 time=0
EXTRACT: note_on channel=0 note=57 velocity=75 time=0
EXTRACT: note_off channel=0 note=71 velocity=0 time=0.29126199999999997
EXTRACT: note_off channel=0 note=52 velocity=0 time=0
EXTRACT: note_off channel=0 note=57 velocity=0 time=0
EXTRACT: note_on channel=0 note=69 velocity=75 time=0
EXTRACT: note_on channel=0 note=50 velocity=75 time=0
EXTRACT: note_off channel=0 note=50 velocity=0 time=0.29126199999999997
EXTRACT: note_on channel=0 note=57 velocity=75 time=0
EXTRACT: note_on channel=0 note=62 velocity=75 time=0
EXTRACT: note_off channel=0 note=57 velocity=0 time=0.29126199999999997
EXTRACT: note_off channel=0 note=62 velocity=0 time=0
EXTRACT: note_on channel=0 note=50 velocity=75 time=0
EXTRACT: note_off channel=0 note=50 velocity=0 time=0.29126199999999997
EXTRACT: note_on channel=0 note=57 velocity=75 time=0
EXTRACT: note_on channel=0 note=62 velocity=75 time=0
EXTRACT: note_on channel=0 note=69 velocity=75 time=0.2184465
EXTRACT: note_off channel=0 note=69 velocity=0 time=0.07281549999999999
EXTRACT: note_off channel=0 note=69 velocity=0 time=0
EXTRACT: note_on channel=0 note=69 velocity=75 time=0
EXTRACT: note_off channel=0 note=57 velocity=0 time=0
EXTRACT: note_off channel=0 note=62 velocity=0 time=0
EXTRACT: note_on channel=0 note=50 velocity=75 time=0
EXTRACT: note_off channel=0 note=69 velocity=0 time=0.29126199999999997
EXTRACT: note_on channel=0 note=67 velocity=75 time=0
EXTRACT: note_off channel=0 note=50 velocity=0 time=0
EXTRACT: note_on channel=0 note=57 velocity=75 time=0
EXTRACT: note_on channel=0 note=62 velocity=75 time=0
EXTRACT: note_off channel=0 note=67 velocity=0 time=0.29126199999999997
EXTRACT: note_on channel=0 note=66 velocity=75 time=0
EXTRACT: note_off channel=0 note=57 velocity=0 time=0
EXTRACT: note_off channel=0 note=62 velocity=0 time=0
EXTRACT: note_on channel=0 note=45 velocity=75 time=0
EXTRACT: note_on channel=0 note=57 velocity=75 time=0
EXTRACT: note_off channel=0 note=66 velocity=0 time=0.29126199999999997
EXTRACT: note_on channel=0 note=64 velocity=75 time=0
EXTRACT: note_off channel=0 note=64 velocity=0 time=0.14563099999999998
EXTRACT: note_on channel=0 note=66 velocity=75 time=0
EXTRACT: note_off channel=0 note=45 velocity=0 time=0.14563099999999998
EXTRACT: note_off channel=0 note=57 velocity=0 time=0
EXTRACT: note_on channel=0 note=47 velocity=75 time=0
EXTRACT: note_off channel=0 note=47 velocity=0 time=0.29126199999999997
EXTRACT: note_on channel=0 note=50 velocity=75 time=0
EXTRACT: note_on channel=0 note=54 velocity=75 time=0
EXTRACT: note_off channel=0 note=50 velocity=0 time=0.29126199999999997
EXTRACT: note_off channel=0 note=54 velocity=0 time=0
EXTRACT: note_on channel=0 note=47 velocity=75 time=0
EXTRACT: note_off channel=0 note=47 velocity=0 time=0.29126199999999997
EXTRACT: note_on channel=0 note=50 velocity=75 time=0
EXTRACT: note_on channel=0 note=54 velocity=75 time=0
EXTRACT: note_off channel=0 note=50 velocity=0 time=0.29126199999999997
EXTRACT: note_off channel=0 note=54 velocity=0 time=0
EXTRACT: note_on channel=0 note=47 velocity=75 time=0
EXTRACT: note_off channel=0 note=47 velocity=0 time=0.29126199999999997
EXTRACT: note_on channel=0 note=50 velocity=75 time=0
EXTRACT: note_on channel=0 note=54 velocity=75 time=0
EXTRACT: note_off channel=0 note=50 velocity=0 time=0.29126199999999997
EXTRACT: note_off channel=0 note=54 velocity=0 time=0
EXTRACT: note_on channel=0 note=49 velocity=75 time=0
EXTRACT: note_off channel=0 note=49 velocity=0 time=0.29126199999999997
EXTRACT: note_on channel=0 note=52 velocity=75 time=0
EXTRACT: note_on channel=0 note=57 velocity=75 time=0
EXTRACT: note_off channel=0 note=66 velocity=0 time=0.29126199999999997
EXTRACT: note_off channel=0 note=52 velocity=0 time=0
EXTRACT: note_off channel=0 note=57 velocity=0 time=0
EXTRACT: note_on channel=0 note=74 velocity=75 time=0
EXTRACT: note_on channel=0 note=50 velocity=75 time=0
EXTRACT: note_off channel=0 note=50 velocity=0 time=0.29126199999999997
EXTRACT: note_on channel=0 note=57 velocity=75 time=0
EXTRACT: note_on channel=0 note=62 velocity=75 time=0
EXTRACT: note_off channel=0 note=57 velocity=0 time=0.29126199999999997
EXTRACT: note_off channel=0 note=62 velocity=0 time=0
EXTRACT: note_on channel=0 note=50 velocity=75 time=0
EXTRACT: note_off channel=0 note=50 velocity=0 time=0.29126199999999997
EXTRACT: note_on channel=0 note=57 velocity=75 time=0
EXTRACT: note_on channel=0 note=62 velocity=75 time=0
EXTRACT: note_on channel=0 note=74 velocity=75 time=0.2184465
EXTRACT: note_off channel=0 note=74 velocity=0 time=0.07281549999999999
EXTRACT: note_off channel=0 note=74 velocity=0 time=0
EXTRACT: note_on channel=0 note=78 velocity=75 time=0
EXTRACT: note_off channel=0 note=57 velocity=0 time=0
EXTRACT: note_off channel=0 note=62 velocity=0 time=0
EXTRACT: note_on channel=0 note=50 velocity=75 time=0
EXTRACT: note_off channel=0 note=78 velocity=0 time=0.29126199999999997
EXTRACT: note_on channel=0 note=76 velocity=75 time=0
EXTRACT: note_off channel=0 note=50 velocity=0 time=0
EXTRACT: note_on channel=0 note=57 velocity=75 time=0
EXTRACT: note_on channel=0 note=62 velocity=75 time=0
EXTRACT: note_off channel=0 note=76 velocity=0 time=0.29126199999999997
EXTRACT: note_on channel=0 note=74 velocity=75 time=0
EXTRACT: note_off channel=0 note=57 velocity=0 time=0
EXTRACT: note_off channel=0 note=62 velocity=0 time=0
EXTRACT: note_on channel=0 note=45 velocity=75 time=0
EXTRACT: note_on channel=0 note=57 velocity=75 time=0
EXTRACT: note_off channel=0 note=74 velocity=0 time=0.29126199999999997
EXTRACT: note_on channel=0 note=73 velocity=75 time=0
EXTRACT: note_off channel=0 note=73 velocity=0 time=0.14563099999999998
EXTRACT: note_on channel=0 note=74 velocity=75 time=0
EXTRACT: note_off channel=0 note=45 velocity=0 time=0.14563099999999998
EXTRACT: note_off channel=0 note=57 velocity=0 time=0
EXTRACT: note_on channel=0 note=47 velocity=75 time=0
EXTRACT: note_off channel=0 note=74 velocity=0 time=0.29126199999999997
EXTRACT: note_on channel=0 note=73 velocity=75 time=0
EXTRACT: note_off channel=0 note=47 velocity=0 time=0
EXTRACT: note_on channel=0 note=50 velocity=75 time=0
EXTRACT: note_on channel=0 note=54 velocity=75 time=0
EXTRACT: note_off channel=0 note=73 velocity=0 time=0.29126199999999997
EXTRACT: note_on channel=0 note=71 velocity=75 time=0
EXTRACT: note_off channel=0 note=50 velocity=0 time=0
EXTRACT: note_off channel=0 note=54 velocity=0 time=0
EXTRACT: note_on channel=0 note=47 velocity=75 time=0
EXTRACT: note_off channel=0 note=47 velocity=0 time=0.29126199999999997
EXTRACT: note_on channel=0 note=50 velocity=75 time=0
EXTRACT: note_on channel=0 note=54 velocity=75 time=0
EXTRACT: note_off channel=0 note=50 velocity=0 time=0.29126199999999997
EXTRACT: note_off channel=0 note=54 velocity=0 time=0
EXTRACT: note_on channel=0 note=47 velocity=75 time=0
EXTRACT: note_off channel=0 note=47 velocity=0 time=0.29126199999999997
EXTRACT: note_on channel=0 note=50 velocity=75 time=0
EXTRACT: note_on channel=0 note=54 velocity=75 time=0
EXTRACT: note_off channel=0 note=50 velocity=0 time=0.29126199999999997
EXTRACT: note_off channel=0 note=54 velocity=0 time=0
EXTRACT: note_on channel=0 note=49 velocity=75 time=0
EXTRACT: note_off channel=0 note=49 velocity=0 time=0.29126199999999997
EXTRACT: note_on channel=0 note=52 velocity=75 time=0
EXTRACT: note_on channel=0 note=57 velocity=75 time=0
EXTRACT: note_off channel=0 note=71 velocity=0 time=0.29126199999999997
EXTRACT: note_off channel=0 note=52 velocity=0 time=0
EXTRACT: note_off channel=0 note=57 velocity=0 time=0
EXTRACT: note_on channel=0 note=69 velocity=75 time=0
EXTRACT: note_on channel=0 note=50 velocity=75 time=0
EXTRACT: note_off channel=0 note=50 velocity=0 time=0.29126199999999997
EXTRACT: note_on channel=0 note=57 velocity=75 time=0
EXTRACT: note_on channel=0 note=62 velocity=75 time=0
EXTRACT: note_off channel=0 note=57 velocity=0 time=0.29126199999999997
EXTRACT: note_off channel=0 note=62 velocity=0 time=0
EXTRACT: note_on channel=0 note=50 velocity=75 time=0
EXTRACT: note_off channel=0 note=50 velocity=0 time=0.29126199999999997
EXTRACT: note_on channel=0 note=57 velocity=75 time=0
EXTRACT: note_on channel=0 note=62 velocity=75 time=0
EXTRACT: note_on channel=0 note=69 velocity=75 time=0.2184465
EXTRACT: note_off channel=0 note=69 velocity=0 time=0.07281549999999999
EXTRACT: note_off channel=0 note=69 velocity=0 time=0
EXTRACT: note_on channel=0 note=69 velocity=75 time=0
EXTRACT: note_off channel=0 note=57 velocity=0 time=0
EXTRACT: note_off channel=0 note=62 velocity=0 time=0
EXTRACT: note_on channel=0 note=50 velocity=75 time=0
EXTRACT: note_off channel=0 note=69 velocity=0 time=0.29126199999999997
EXTRACT: note_on channel=0 note=67 velocity=75 time=0
EXTRACT: note_off channel=0 note=50 velocity=0 time=0
EXTRACT: note_on channel=0 note=57 velocity=75 time=0
EXTRACT: note_on channel=0 note=62 velocity=75 time=0
EXTRACT: note_off channel=0 note=67 velocity=0 time=0.29126199999999997
EXTRACT: note_on channel=0 note=66 velocity=75 time=0
EXTRACT: note_off channel=0 note=57 velocity=0 time=0
EXTRACT: note_off channel=0 note=62 velocity=0 time=0
EXTRACT: note_on channel=0 note=45 velocity=75 time=0
EXTRACT: note_on channel=0 note=57 velocity=75 time=0
EXTRACT: note_off channel=0 note=66 velocity=0 time=0.29126199999999997
EXTRACT: note_on channel=0 note=64 velocity=75 time=0
EXTRACT: note_off channel=0 note=64 velocity=0 time=0.14563099999999998
EXTRACT: note_on channel=0 note=66 velocity=75 time=0
EXTRACT: note_off channel=0 note=45 velocity=0 time=0.14563099999999998
EXTRACT: note_off channel=0 note=57 velocity=0 time=0
EXTRACT: note_on channel=0 note=47 velocity=75 time=0
EXTRACT: note_off channel=0 note=47 velocity=0 time=0.29126199999999997
EXTRACT: note_on channel=0 note=50 velocity=75 time=0
EXTRACT: note_on channel=0 note=54 velocity=75 time=0
EXTRACT: note_off channel=0 note=50 velocity=0 time=0.29126199999999997
EXTRACT: note_off channel=0 note=54 velocity=0 time=0
EXTRACT: note_on channel=0 note=47 velocity=75 time=0
EXTRACT: note_off channel=0 note=47 velocity=0 time=0.29126199999999997
EXTRACT: note_on channel=0 note=50 velocity=75 time=0
EXTRACT: note_on channel=0 note=54 velocity=75 time=0
EXTRACT: note_on channel=0 note=69 velocity=75 time=0.2184465
EXTRACT: note_off channel=0 note=66 velocity=0 time=0.07281549999999999
EXTRACT: note_off channel=0 note=69 velocity=0 time=0
EXTRACT: note_on channel=0 note=69 velocity=75 time=0
EXTRACT: note_off channel=0 note=50 velocity=0 time=0
EXTRACT: note_off channel=0 note=54 velocity=0 time=0
EXTRACT: note_on channel=0 note=47 velocity=75 time=0
EXTRACT: note_off channel=0 note=69 velocity=0 time=0.29126199999999997
EXTRACT: note_on channel=0 note=67 velocity=75 time=0
EXTRACT: note_off channel=0 note=47 velocity=0 time=0
EXTRACT: note_on channel=0 note=50 velocity=75 time=0
EXTRACT: note_on channel=0 note=54 velocity=75 time=0
EXTRACT: note_off channel=0 note=67 velocity=0 time=0.29126199999999997
EXTRACT: note_on channel=0 note=66 velocity=75 time=0
EXTRACT: note_off channel=0 note=50 velocity=0 time=0
EXTRACT: note_off channel=0 note=54 velocity=0 time=0
EXTRACT: note_on channel=0 note=49 velocity=75 time=0
EXTRACT: note_off channel=0 note=66 velocity=0 time=0.29126199999999997
EXTRACT: note_on channel=0 note=64 velocity=75 time=0
EXTRACT: note_off channel=0 note=49 velocity=0 time=0
EXTRACT: note_on channel=0 note=52 velocity=75 time=0
EXTRACT: note_on channel=0 note=57 velocity=75 time=0
EXTRACT: note_off channel=0 note=64 velocity=0 time=0.14563099999999998
EXTRACT: note_on channel=0 note=66 velocity=75 time=0
EXTRACT: note_off channel=0 note=52 velocity=0 time=0.14563099999999998
EXTRACT: note_off channel=0 note=57 velocity=0 time=0
EXTRACT: note_on channel=0 note=50 velocity=75 time=0
EXTRACT: note_off channel=0 note=50 velocity=0 time=0.29126199999999997
EXTRACT: note_on channel=0 note=57 velocity=75 time=0
EXTRACT: note_on channel=0 note=62 velocity=75 time=0
EXTRACT: note_off channel=0 note=57 velocity=0 time=0.29126199999999997
EXTRACT: note_off channel=0 note=62 velocity=0 time=0
EXTRACT: note_on channel=0 note=50 velocity=75 time=0
EXTRACT: note_off channel=0 note=50 velocity=0 time=0.29126199999999997
EXTRACT: note_on channel=0 note=57 velocity=75 time=0
EXTRACT: note_on channel=0 note=62 velocity=75 time=0
EXTRACT: note_off channel=0 note=57 velocity=0 time=0.29126199999999997
EXTRACT: note_off channel=0 note=62 velocity=0 time=0
EXTRACT: note_on channel=0 note=50 velocity=75 time=0
EXTRACT: note_off channel=0 note=50 velocity=0 time=0.29126199999999997
EXTRACT: note_on channel=0 note=57 velocity=75 time=0
EXTRACT: note_on channel=0 note=62 velocity=75 time=0
EXTRACT: note_off channel=0 note=57 velocity=0 time=0.29126199999999997
EXTRACT: note_off channel=0 note=62 velocity=0 time=0
EXTRACT: note_on channel=0 note=45 velocity=75 time=0
EXTRACT: note_on channel=0 note=57 velocity=75 time=0
EXTRACT: note_off channel=0 note=66 velocity=0 time=0.5825239999999999
EXTRACT: note_off channel=0 note=45 velocity=0 time=0
EXTRACT: note_off channel=0 note=57 velocity=0 time=0
EXTRACT: note_on channel=0 note=50 velocity=62 time=0
EXTRACT: note_on channel=0 note=69 velocity=62 time=0.29126199999999997
EXTRACT: note_off channel=0 note=50 velocity=0 time=0
EXTRACT: note_on channel=0 note=57 velocity=62 time=0
EXTRACT: note_on channel=0 note=62 velocity=62 time=0
EXTRACT: note_off channel=0 note=69 velocity=0 time=0.29126199999999997
EXTRACT: note_on channel=0 note=69 velocity=62 time=0
EXTRACT: note_off channel=0 note=57 velocity=0 time=0
EXTRACT: note_off channel=0 note=62 velocity=0 time=0
EXTRACT: note_on channel=0 note=50 velocity=62 time=0
EXTRACT: note_off channel=0 note=69 velocity=0 time=0.29126199999999997
EXTRACT: note_on channel=0 note=69 velocity=62 time=0
EXTRACT: note_off channel=0 note=50 velocity=0 time=0
EXTRACT: note_on channel=0 note=57 velocity=62 time=0
EXTRACT: note_on channel=0 note=62 velocity=62 time=0
EXTRACT: note_off channel=0 note=69 velocity=0 time=0.14563099999999998
EXTRACT: note_on channel=0 note=69 velocity=62 time=0
EXTRACT: note_off channel=0 note=57 velocity=0 time=0.14563099999999998
EXTRACT: note_off channel=0 note=62 velocity=0 time=0
EXTRACT: note_on channel=0 note=50 velocity=62 time=0
EXTRACT: note_off channel=0 note=69 velocity=0 time=0.14563099999999998
EXTRACT: note_on channel=0 note=67 velocity=62 time=0
EXTRACT: note_off channel=0 note=50 velocity=0 time=0.14563099999999998
EXTRACT: note_on channel=0 note=57 velocity=62 time=0
EXTRACT: note_on channel=0 note=62 velocity=62 time=0
EXTRACT: note_off channel=0 note=67 velocity=0 time=0.14563099999999998
EXTRACT: note_on channel=0 note=66 velocity=62 time=0
EXTRACT: note_off channel=0 note=57 velocity=0 time=0.14563099999999998
EXTRACT: note_off channel=0 note=62 velocity=0 time=0
EXTRACT: note_on channel=0 note=50 velocity=62 time=0
EXTRACT: note_off channel=0 note=66 velocity=0 time=0.14563099999999998
EXTRACT: note_on channel=0 note=67 velocity=62 time=0
EXTRACT: note_off channel=0 note=50 velocity=0 time=0.14563099999999998
EXTRACT: note_on channel=0 note=57 velocity=62 time=0
EXTRACT: note_on channel=0 note=62 velocity=62 time=0
EXTRACT: note_off channel=0 note=67 velocity=0 time=0.14563099999999998
EXTRACT: note_on channel=0 note=69 velocity=62 time=0
EXTRACT: note_off channel=0 note=57 velocity=0 time=0.14563099999999998
EXTRACT: note_off channel=0 note=62 velocity=0 time=0
EXTRACT: note_on channel=0 note=54 velocity=62 time=0
EXTRACT: note_off channel=0 note=69 velocity=0 time=0.29126199999999997
EXTRACT: note_on channel=0 note=69 velocity=62 time=0
EXTRACT: note_off channel=0 note=54 velocity=0 time=0
EXTRACT: note_on channel=0 note=57 velocity=62 time=0
EXTRACT: note_on channel=0 note=61 velocity=62 time=0
EXTRACT: note_off channel=0 note=69 velocity=0 time=0.29126199999999997
EXTRACT: note_on channel=0 note=69 velocity=62 time=0
EXTRACT: note_off channel=0 note=57 velocity=0 time=0
EXTRACT: note_off channel=0 note=61 velocity=0 time=0
EXTRACT: note_on channel=0 note=54 velocity=62 time=0
EXTRACT: note_off channel=0 note=69 velocity=0 time=0.14563099999999998
EXTRACT: note_on channel=0 note=71 velocity=62 time=0
EXTRACT: note_off channel=0 note=54 velocity=0 time=0.14563099999999998
EXTRACT: note_on channel=0 note=57 velocity=62 time=0
EXTRACT: note_on channel=0 note=61 velocity=62 time=0
EXTRACT: note_off channel=0 note=71 velocity=0 time=0.29126199999999997
EXTRACT: note_on channel=0 note=69 velocity=62 time=0
EXTRACT: note_off channel=0 note=57 velocity=0 time=0
EXTRACT: note_off channel=0 note=61 velocity=0 time=0
EXTRACT: note_on channel=0 note=54 velocity=62 time=0
EXTRACT: note_off channel=0 note=69 velocity=0 time=0.29126199999999997
EXTRACT: note_on channel=0 note=67 velocity=62 time=0
EXTRACT: note_off channel=0 note=54 velocity=0 time=0
EXTRACT: note_on channel=0 note=57 velocity=62 time=0
EXTRACT: note_on channel=0 note=61 velocity=62 time=0
EXTRACT: note_off channel=0 note=67 velocity=0 time=0.29126199999999997
EXTRACT: note_on channel=0 note=66 velocity=62 time=0
EXTRACT: note_off channel=0 note=57 velocity=0 time=0
EXTRACT: note_off channel=0 note=61 velocity=0 time=0
EXTRACT: note_on channel=0 note=54 velocity=62 time=0
EXTRACT: note_off channel=0 note=66 velocity=0 time=0.29126199999999997
EXTRACT: note_on channel=0 note=67 velocity=62 time=0
EXTRACT: note_off channel=0 note=54 velocity=0 time=0
EXTRACT: note_on channel=0 note=57 velocity=62 time=0
EXTRACT: note_on channel=0 note=61 velocity=62 time=0
EXTRACT: note_off channel=0 note=67 velocity=0 time=0.29126199999999997
EXTRACT: note_off channel=0 note=57 velocity=0 time=0
EXTRACT: note_off channel=0 note=61 velocity=0 time=0
EXTRACT: note_on channel=0 note=69 velocity=62 time=0
EXTRACT: note_on channel=0 note=50 velocity=62 time=0
EXTRACT: note_off channel=0 note=69 velocity=0 time=0.29126199999999997
EXTRACT: note_on channel=0 note=69 velocity=62 time=0
EXTRACT: note_off channel=0 note=50 velocity=0 time=0
EXTRACT: note_on channel=0 note=57 velocity=62 time=0
EXTRACT: note_on channel=0 note=62 velocity=62 time=0
EXTRACT: note_off channel=0 note=69 velocity=0 time=0.29126199999999997
EXTRACT: note_on channel=0 note=69 velocity=62 time=0
EXTRACT: note_off channel=0 note=57 velocity=0 time=0
EXTRACT: note_off channel=0 note=62 velocity=0 time=0
EXTRACT: note_on channel=0 note=50 velocity=62 time=0
EXTRACT: note_off channel=0 note=69 velocity=0 time=0.29126199999999997
EXTRACT: note_on channel=0 note=69 velocity=62 time=0
EXTRACT: note_off channel=0 note=50 velocity=0 time=0
EXTRACT: note_on channel=0 note=57 velocity=62 time=0
EXTRACT: note_on channel=0 note=62 velocity=62 time=0
EXTRACT: note_off channel=0 note=69 velocity=0 time=0.14563099999999998
EXTRACT: note_on channel=0 note=69 velocity=62 time=0
EXTRACT: note_off channel=0 note=57 velocity=0 time=0.14563099999999998
EXTRACT: note_off channel=0 note=62 velocity=0 time=0
EXTRACT: note_on channel=0 note=50 velocity=62 time=0
EXTRACT: note_off channel=0 note=69 velocity=0 time=0.29126199999999997
EXTRACT: note_on channel=0 note=67 velocity=62 time=0
EXTRACT: note_off channel=0 note=50 velocity=0 time=0
EXTRACT: note_on channel=0 note=57 velocity=62 time=0
EXTRACT: note_on channel=0 note=62 velocity=62 time=0
EXTRACT: note_off channel=0 note=67 velocity=0 time=0.29126199999999997
EXTRACT: note_on channel=0 note=66 velocity=62 time=0
EXTRACT: note_off channel=0 note=57 velocity=0 time=0
EXTRACT: note_off channel=0 note=62 velocity=0 time=0
EXTRACT: note_on channel=0 note=50 velocity=62 time=0
EXTRACT: note_off channel=0 note=66 velocity=0 time=0.29126199999999997
EXTRACT: note_on channel=0 note=67 velocity=62 time=0
EXTRACT: note_off channel=0 note=50 velocity=0 time=0
EXTRACT: note_on channel=0 note=57 velocity=62 time=0
EXTRACT: note_on channel=0 note=62 velocity=62 time=0
EXTRACT: note_off channel=0 note=67 velocity=0 time=0.14563099999999998
EXTRACT: note_on channel=0 note=69 velocity=62 time=0
EXTRACT: note_off channel=0 note=57 velocity=0 time=0.14563099999999998
EXTRACT: note_off channel=0 note=62 velocity=0 time=0
EXTRACT: note_on channel=0 note=54 velocity=62 time=0
EXTRACT: note_off channel=0 note=69 velocity=0 time=0.29126199999999997
EXTRACT: note_on channel=0 note=69 velocity=62 time=0
EXTRACT: note_off channel=0 note=54 velocity=0 time=0
EXTRACT: note_on channel=0 note=57 velocity=62 time=0
EXTRACT: note_on channel=0 note=61 velocity=62 time=0
EXTRACT: note_off channel=0 note=69 velocity=0 time=0.29126199999999997
EXTRACT: note_on channel=0 note=69 velocity=62 time=0
EXTRACT: note_off channel=0 note=57 velocity=0 time=0
EXTRACT: note_off channel=0 note=61 velocity=0 time=0
EXTRACT: note_on channel=0 note=54 velocity=62 time=0
EXTRACT: note_off channel=0 note=69 velocity=0 time=0.29126199999999997
EXTRACT: note_on channel=0 note=71 velocity=62 time=0
EXTRACT: note_off channel=0 note=54 velocity=0 time=0
EXTRACT: note_on channel=0 note=57 velocity=62 time=0
EXTRACT: note_on channel=0 note=61 velocity=62 time=0
EXTRACT: note_off channel=0 note=71 velocity=0 time=0.29126199999999997
EXTRACT: note_on channel=0 note=69 velocity=62 time=0
EXTRACT: note_off channel=0 note=57 velocity=0 time=0
EXTRACT: note_off channel=0 note=61 velocity=0 time=0
EXTRACT: note_on channel=0 note=54 velocity=62 time=0
EXTRACT: note_off channel=0 note=69 velocity=0 time=0.14563099999999998
EXTRACT: note_on channel=0 note=67 velocity=62 time=0
EXTRACT: note_off channel=0 note=54 velocity=0 time=0.14563099999999998
EXTRACT: note_on channel=0 note=57 velocity=62 time=0
EXTRACT: note_on channel=0 note=61 velocity=62 time=0
EXTRACT: note_off channel=0 note=67 velocity=0 time=0.29126199999999997
EXTRACT: note_on channel=0 note=66 velocity=62 time=0
EXTRACT: note_off channel=0 note=57 velocity=0 time=0
EXTRACT: note_off channel=0 note=61 velocity=0 time=0
EXTRACT: note_on channel=0 note=54 velocity=62 time=0
EXTRACT: note_off channel=0 note=66 velocity=0 time=0.29126199999999997
EXTRACT: note_on channel=0 note=64 velocity=62 time=0
EXTRACT: note_off channel=0 note=64 velocity=0 time=0.29126199999999997
EXTRACT: note_off channel=0 note=54 velocity=0 time=0
EXTRACT: note_on channel=0 note=66 velocity=62 time=0
EXTRACT: note_on channel=0 note=47 velocity=62 time=0
EXTRACT: note_off channel=0 note=47 velocity=0 time=0.29126199999999997
EXTRACT: note_on channel=0 note=50 velocity=62 time=0
EXTRACT: note_on channel=0 note=54 velocity=62 time=0
EXTRACT: note_off channel=0 note=50 velocity=0 time=0.29126199999999997
EXTRACT: note_off channel=0 note=54 velocity=0 time=0
EXTRACT: note_on channel=0 note=47 velocity=62 time=0
EXTRACT: note_off channel=0 note=47 velocity=0 time=0.29126199999999997
EXTRACT: note_on channel=0 note=50 velocity=62 time=0
EXTRACT: note_on channel=0 note=54 velocity=62 time=0
EXTRACT: note_off channel=0 note=50 velocity=0 time=0.29126199999999997
EXTRACT: note_off channel=0 note=54 velocity=0 time=0
EXTRACT: note_on channel=0 note=47 velocity=62 time=0
EXTRACT: note_off channel=0 note=47 velocity=0 time=0.29126199999999997
EXTRACT: note_on channel=0 note=50 velocity=62 time=0
EXTRACT: note_on channel=0 note=54 velocity=62 time=0
EXTRACT: note_off channel=0 note=50 velocity=0 time=0.29126199999999997
EXTRACT: note_off channel=0 note=54 velocity=0 time=0
EXTRACT: note_on channel=0 note=45 velocity=62 time=0
EXTRACT: note_on channel=0 note=57 velocity=62 time=0
EXTRACT: note_off channel=0 note=66 velocity=0 time=0.5825239999999999
EXTRACT: note_off channel=0 note=45 velocity=0 time=0
EXTRACT: note_off channel=0 note=57 velocity=0 time=0
EXTRACT: note_on channel=0 note=43 velocity=62 time=0
EXTRACT: note_on channel=0 note=67 velocity=62 time=0.29126199999999997
EXTRACT: note_off channel=0 note=43 velocity=0 time=0
EXTRACT: note_on channel=0 note=47 velocity=62 time=0
EXTRACT: note_on channel=0 note=50 velocity=62 time=0
EXTRACT: note_off channel=0 note=67 velocity=0 time=0.29126199999999997
EXTRACT: note_on channel=0 note=67 velocity=62 time=0
EXTRACT: note_off channel=0 note=47 velocity=0 time=0
EXTRACT: note_off channel=0 note=50 velocity=0 time=0
EXTRACT: note_on channel=0 note=43 velocity=62 time=0
EXTRACT: note_off channel=0 note=67 velocity=0 time=0.29126199999999997
EXTRACT: note_on channel=0 note=67 velocity=62 time=0
EXTRACT: note_off channel=0 note=43 velocity=0 time=0
EXTRACT: note_on channel=0 note=47 velocity=62 time=0
EXTRACT: note_on channel=0 note=50 velocity=62 time=0
EXTRACT: note_off channel=0 note=67 velocity=0 time=0.14563099999999998
EXTRACT: note_on channel=0 note=66 velocity=62 time=0
EXTRACT: note_off channel=0 note=47 velocity=0 time=0.14563099999999998
EXTRACT: note_off channel=0 note=50 velocity=0 time=0
EXTRACT: note_on channel=0 note=45 velocity=62 time=0
EXTRACT: note_off channel=0 note=66 velocity=0 time=0.29126199999999997
EXTRACT: note_on channel=0 note=64 velocity=62 time=0
EXTRACT: note_off channel=0 note=45 velocity=0 time=0
EXTRACT: note_on channel=0 note=49 velocity=62 time=0
EXTRACT: note_on channel=0 note=52 velocity=62 time=0
EXTRACT: note_off channel=0 note=64 velocity=0 time=0.29126199999999997
EXTRACT: note_on channel=0 note=62 velocity=62 time=0
EXTRACT: note_off channel=0 note=49 velocity=0 time=0
EXTRACT: note_off channel=0 note=52 velocity=0 time=0
EXTRACT: note_on channel=0 note=45 velocity=62 time=0
EXTRACT: note_off channel=0 note=62 velocity=0 time=0.29126199999999997
EXTRACT: note_on channel=0 note=64 velocity=62 time=0
EXTRACT: note_off channel=0 note=45 velocity=0 time=0
EXTRACT: note_on channel=0 note=49 velocity=62 time=0
EXTRACT: note_on channel=0 note=52 velocity=62 time=0
EXTRACT: note_off channel=0 note=64 velocity=0 time=0.29126199999999997
EXTRACT: note_off channel=0 note=49 velocity=0 time=0
EXTRACT: note_off channel=0 note=52 velocity=0 time=0
EXTRACT: note_on channel=0 note=66 velocity=62 time=0
EXTRACT: note_on channel=0 note=47 velocity=62 time=0
EXTRACT: note_off channel=0 note=47 velocity=0 time=0.29126199999999997
EXTRACT: note_on channel=0 note=50 velocity=62 time=0
EXTRACT: note_on channel=0 note=54 velocity=62 time=0
EXTRACT: note_off channel=0 note=50 velocity=0 time=0.29126199999999997
EXTRACT: note_off channel=0 note=54 velocity=0 time=0
EXTRACT: note_on channel=0 note=47 velocity=62 time=0
EXTRACT: note_off channel=0 note=47 velocity=0 time=0.29126199999999997
EXTRACT: note_on channel=0 note=50 velocity=62 time=0
EXTRACT: note_on channel=0 note=54 velocity=62 time=0
EXTRACT: note_off channel=0 note=66 velocity=0 time=0.29126199999999997
EXTRACT: note_off channel=0 note=50 velocity=0 time=0
EXTRACT: note_off channel=0 note=54 velocity=0 time=0
EXTRACT: note_on channel=0 note=47 velocity=62 time=0
EXTRACT: note_on channel=0 note=66 velocity=62 time=0.29126199999999997
EXTRACT: note_off channel=0 note=47 velocity=0 time=0
EXTRACT: note_on channel=0 note=50 velocity=62 time=0
EXTRACT: note_on channel=0 note=54 velocity=62 time=0
EXTRACT: note_off channel=0 note=66 velocity=0 time=0.29126199999999997
EXTRACT: note_on channel=0 note=66 velocity=62 time=0
EXTRACT: note_off channel=0 note=50 velocity=0 time=0
EXTRACT: note_off channel=0 note=54 velocity=0 time=0
EXTRACT: note_on channel=0 note=47 velocity=62 time=0
EXTRACT: note_off channel=0 note=66 velocity=0 time=0.29126199999999997
EXTRACT: note_on channel=0 note=62 velocity=62 time=0
EXTRACT: note_off channel=0 note=47 velocity=0 time=0
EXTRACT: note_on channel=0 note=50 velocity=62 time=0
EXTRACT: note_on channel=0 note=54 velocity=62 time=0
EXTRACT: note_off channel=0 note=62 velocity=0 time=0.29126199999999997
EXTRACT: note_off channel=0 note=50 velocity=0 time=0
EXTRACT: note_off channel=0 note=54 velocity=0 time=0
EXTRACT: note_on channel=0 note=64 velocity=62 time=0
EXTRACT: note_on channel=0 note=45 velocity=62 time=0
EXTRACT: note_off channel=0 note=45 velocity=0 time=0.29126199999999997
EXTRACT: note_on channel=0 note=49 velocity=62 time=0
EXTRACT: note_on channel=0 note=52 velocity=62 time=0
EXTRACT: note_off channel=0 note=49 velocity=0 time=0.29126199999999997
EXTRACT: note_off channel=0 note=52 velocity=0 time=0
EXTRACT: note_on channel=0 note=45 velocity=62 time=0
EXTRACT: note_off channel=0 note=45 velocity=0 time=0.29126199999999997
EXTRACT: note_on channel=0 note=49 velocity=62 time=0
EXTRACT: note_on channel=0 note=52 velocity=62 time=0
EXTRACT: note_off channel=0 note=49 velocity=0 time=0.29126199999999997
EXTRACT: note_off channel=0 note=52 velocity=0 time=0
EXTRACT: note_on channel=0 note=45 velocity=62 time=0
EXTRACT: note_off channel=0 note=45 velocity=0 time=0.29126199999999997
EXTRACT: note_on channel=0 note=49 velocity=62 time=0
EXTRACT: note_on channel=0 note=52 velocity=62 time=0
EXTRACT: note_off channel=0 note=49 velocity=0 time=0.29126199999999997
EXTRACT: note_off channel=0 note=52 velocity=0 time=0
EXTRACT: note_on channel=0 note=45 velocity=62 time=0
EXTRACT: note_off channel=0 note=45 velocity=0 time=0.29126199999999997
EXTRACT: note_on channel=0 note=49 velocity=62 time=0
EXTRACT: note_on channel=0 note=52 velocity=62 time=0
EXTRACT: note_off channel=0 note=64 velocity=0 time=0.29126199999999997
EXTRACT: note_off channel=0 note=49 velocity=0 time=0
EXTRACT: note_off channel=0 note=52 velocity=0 time=0
EXTRACT: note_on channel=0 note=50 velocity=62 time=0
EXTRACT: note_on channel=0 note=69 velocity=62 time=0.29126199999999997
EXTRACT: note_off channel=0 note=50 velocity=0 time=0
EXTRACT: note_on channel=0 note=57 velocity=62 time=0
EXTRACT: note_on channel=0 note=62 velocity=62 time=0
EXTRACT: note_off channel=0 note=69 velocity=0 time=0.29126199999999997
EXTRACT: note_on channel=0 note=69 velocity=62 time=0
EXTRACT: note_off channel=0 note=57 velocity=0 time=0
EXTRACT: note_off channel=0 note=62 velocity=0 time=0
EXTRACT: note_on channel=0 note=50 velocity=62 time=0
EXTRACT: note_off channel=0 note=69 velocity=0 time=0.29126199999999997
EXTRACT: note_on channel=0 note=69 velocity=62 time=0
EXTRACT: note_off channel=0 note=50 velocity=0 time=0
EXTRACT: note_on channel=0 note=57 velocity=62 time=0
EXTRACT: note_on channel=0 note=62 velocity=62 time=0
EXTRACT: note_off channel=0 note=69 velocity=0 time=0.14563099999999998
EXTRACT: note_on channel=0 note=69 velocity=62 time=0
EXTRACT: note_off channel=0 note=57 velocity=0 time=0.14563099999999998
EXTRACT: note_off channel=0 note=62 velocity=0 time=0
EXTRACT: note_on channel=0 note=50 velocity=62 time=0
EXTRACT: note_off channel=0 note=69 velocity=0 time=0.14563099999999998
EXTRACT: note_on channel=0 note=67 velocity=62 time=0
EXTRACT: note_off channel=0 note=50 velocity=0 time=0.14563099999999998
EXTRACT: note_on channel=0 note=57 velocity=62 time=0
EXTRACT: note_on channel=0 note=62 velocity=62 time=0
EXTRACT: note_off channel=0 note=67 velocity=0 time=0.14563099999999998
EXTRACT: note_on channel=0 note=66 velocity=62 time=0
EXTRACT: note_off channel=0 note=57 velocity=0 time=0.14563099999999998
EXTRACT: note_off channel=0 note=62 velocity=0 time=0
EXTRACT: note_on channel=0 note=50 velocity=62 time=0
EXTRACT: note_off channel=0 note=66 velocity=0 time=0.14563099999999998
EXTRACT: note_on channel=0 note=67 velocity=62 time=0
EXTRACT: note_off channel=0 note=50 velocity=0 time=0.14563099999999998
EXTRACT: note_on channel=0 note=57 velocity=62 time=0
EXTRACT: note_on channel=0 note=62 velocity=62 time=0
EXTRACT: note_off channel=0 note=67 velocity=0 time=0.14563099999999998
EXTRACT: note_on channel=0 note=69 velocity=62 time=0
EXTRACT: note_off channel=0 note=57 velocity=0 time=0.14563099999999998
EXTRACT: note_off channel=0 note=62 velocity=0 time=0
EXTRACT: note_on channel=0 note=54 velocity=62 time=0
EXTRACT: note_off channel=0 note=69 velocity=0 time=0.29126199999999997
EXTRACT: note_on channel=0 note=69 velocity=62 time=0
EXTRACT: note_off channel=0 note=54 velocity=0 time=0
EXTRACT: note_on channel=0 note=57 velocity=62 time=0
EXTRACT: note_on channel=0 note=61 velocity=62 time=0
EXTRACT: note_off channel=0 note=69 velocity=0 time=0.29126199999999997
EXTRACT: note_on channel=0 note=69 velocity=62 time=0
EXTRACT: note_off channel=0 note=57 velocity=0 time=0
EXTRACT: note_off channel=0 note=61 velocity=0 time=0
EXTRACT: note_on channel=0 note=54 velocity=62 time=0
EXTRACT: note_off channel=0 note=69 velocity=0 time=0.14563099999999998
EXTRACT: note_on channel=0 note=71 velocity=62 time=0
EXTRACT: note_off channel=0 note=54 velocity=0 time=0.14563099999999998
EXTRACT: note_on channel=0 note=57 velocity=62 time=0
EXTRACT: note_on channel=0 note=61 velocity=62 time=0
EXTRACT: note_off channel=0 note=71 velocity=0 time=0.29126199999999997
EXTRACT: note_on channel=0 note=69 velocity=62 time=0
EXTRACT: note_off channel=0 note=57 velocity=0 time=0
EXTRACT: note_off channel=0 note=61 velocity=0 time=0
EXTRACT: note_on channel=0 note=54 velocity=62 time=0
EXTRACT: note_off channel=0 note=69 velocity=0 time=0.29126199999999997
EXTRACT: note_on channel=0 note=67 velocity=62 time=0
EXTRACT: note_off channel=0 note=54 velocity=0 time=0
EXTRACT: note_on channel=0 note=57 velocity=62 time=0
EXTRACT: note_on channel=0 note=61 velocity=62 time=0
EXTRACT: note_off channel=0 note=67 velocity=0 time=0.29126199999999997
EXTRACT: note_on channel=0 note=66 velocity=62 time=0
EXTRACT: note_off channel=0 note=57 velocity=0 time=0
EXTRACT: note_off channel=0 note=61 velocity=0 time=0
EXTRACT: note_on channel=0 note=54 velocity=62 time=0
EXTRACT: note_off channel=0 note=66 velocity=0 time=0.29126199999999997
EXTRACT: note_on channel=0 note=67 velocity=62 time=0
EXTRACT: note_off channel=0 note=54 velocity=0 time=0
EXTRACT: note_on channel=0 note=57 velocity=62 time=0
EXTRACT: note_on channel=0 note=61 velocity=62 time=0
EXTRACT: note_off channel=0 note=67 velocity=0 time=0.29126199999999997
EXTRACT: note_off channel=0 note=57 velocity=0 time=0
EXTRACT: note_off channel=0 note=61 velocity=0 time=0
EXTRACT: note_on channel=0 note=69 velocity=62 time=0
EXTRACT: note_on channel=0 note=50 velocity=62 time=0
EXTRACT: note_off channel=0 note=69 velocity=0 time=0.29126199999999997
EXTRACT: note_on channel=0 note=69 velocity=62 time=0
EXTRACT: note_off channel=0 note=50 velocity=0 time=0
EXTRACT: note_on channel=0 note=57 velocity=62 time=0
EXTRACT: note_on channel=0 note=62 velocity=62 time=0
EXTRACT: note_off channel=0 note=69 velocity=0 time=0.29126199999999997
EXTRACT: note_on channel=0 note=69 velocity=62 time=0
EXTRACT: note_off channel=0 note=57 velocity=0 time=0
EXTRACT: note_off channel=0 note=62 velocity=0 time=0
EXTRACT: note_on channel=0 note=50 velocity=62 time=0
EXTRACT: note_off channel=0 note=69 velocity=0 time=0.29126199999999997
EXTRACT: note_on channel=0 note=69 velocity=62 time=0
EXTRACT: note_off channel=0 note=50 velocity=0 time=0
EXTRACT: note_on channel=0 note=57 velocity=62 time=0
EXTRACT: note_on channel=0 note=62 velocity=62 time=0
EXTRACT: note_off channel=0 note=69 velocity=0 time=0.14563099999999998
EXTRACT: note_on channel=0 note=69 velocity=62 time=0
EXTRACT: note_off channel=0 note=57 velocity=0 time=0.14563099999999998
EXTRACT: note_off channel=0 note=62 velocity=0 time=0
EXTRACT: note_on channel=0 note=50 velocity=62 time=0
EXTRACT: note_off channel=0 note=69 velocity=0 time=0.29126199999999997
EXTRACT: note_on channel=0 note=67 velocity=62 time=0
EXTRACT: note_off channel=0 note=50 velocity=0 time=0
EXTRACT: note_on channel=0 note=57 velocity=62 time=0
EXTRACT: note_on channel=0 note=62 velocity=62 time=0
EXTRACT: note_off channel=0 note=67 velocity=0 time=0.29126199999999997
EXTRACT: note_on channel=0 note=66 velocity=62 time=0
EXTRACT: note_off channel=0 note=57 velocity=0 time=0
EXTRACT: note_off channel=0 note=62 velocity=0 time=0
EXTRACT: note_on channel=0 note=50 velocity=62 time=0
EXTRACT: note_off channel=0 note=66 velocity=0 time=0.29126199999999997
EXTRACT: note_on channel=0 note=67 velocity=62 time=0
EXTRACT: note_off channel=0 note=50 velocity=0 time=0
EXTRACT: note_on channel=0 note=57 velocity=62 time=0
EXTRACT: note_on channel=0 note=62 velocity=62 time=0
EXTRACT: note_off channel=0 note=67 velocity=0 time=0.14563099999999998
EXTRACT: note_on channel=0 note=69 velocity=62 time=0
EXTRACT: note_off channel=0 note=57 velocity=0 time=0.14563099999999998
EXTRACT: note_off channel=0 note=62 velocity=0 time=0
EXTRACT: note_on channel=0 note=54 velocity=62 time=0
EXTRACT: note_off channel=0 note=69 velocity=0 time=0.29126199999999997
EXTRACT: note_on channel=0 note=69 velocity=62 time=0
EXTRACT: note_off channel=0 note=54 velocity=0 time=0
EXTRACT: note_on channel=0 note=57 velocity=62 time=0
EXTRACT: note_on channel=0 note=61 velocity=62 time=0
EXTRACT: note_off channel=0 note=69 velocity=0 time=0.29126199999999997
EXTRACT: note_on channel=0 note=69 velocity=62 time=0
EXTRACT: note_off channel=0 note=57 velocity=0 time=0
EXTRACT: note_off channel=0 note=61 velocity=0 time=0
EXTRACT: note_on channel=0 note=54 velocity=62 time=0
EXTRACT: note_off channel=0 note=69 velocity=0 time=0.29126199999999997
EXTRACT: note_on channel=0 note=71 velocity=62 time=0
EXTRACT: note_off channel=0 note=54 velocity=0 time=0
EXTRACT: note_on channel=0 note=57 velocity=62 time=0
EXTRACT: note_on channel=0 note=61 velocity=62 time=0
EXTRACT: note_off channel=0 note=71 velocity=0 time=0.29126199999999997
EXTRACT: note_on channel=0 note=69 velocity=62 time=0
EXTRACT: note_off channel=0 note=57 velocity=0 time=0
EXTRACT: note_off channel=0 note=61 velocity=0 time=0
EXTRACT: note_on channel=0 note=54 velocity=62 time=0
EXTRACT: note_off channel=0 note=69 velocity=0 time=0.14563099999999998
EXTRACT: note_on channel=0 note=67 velocity=62 time=0
EXTRACT: note_off channel=0 note=54 velocity=0 time=0.14563099999999998
EXTRACT: note_on channel=0 note=57 velocity=62 time=0
EXTRACT: note_on channel=0 note=61 velocity=62 time=0
EXTRACT: note_off channel=0 note=67 velocity=0 time=0.29126199999999997
EXTRACT: note_on channel=0 note=66 velocity=62 time=0
EXTRACT: note_off channel=0 note=57 velocity=0 time=0
EXTRACT: note_off channel=0 note=61 velocity=0 time=0
EXTRACT: note_on channel=0 note=54 velocity=62 time=0
EXTRACT: note_off channel=0 note=66 velocity=0 time=0.29126199999999997
EXTRACT: note_on channel=0 note=64 velocity=62 time=0
EXTRACT: note_off channel=0 note=64 velocity=0 time=0.29126199999999997
EXTRACT: note_off channel=0 note=54 velocity=0 time=0
EXTRACT: note_on channel=0 note=66 velocity=62 time=0
EXTRACT: note_on channel=0 note=47 velocity=62 time=0
EXTRACT: note_off channel=0 note=47 velocity=0 time=0.29126199999999997
EXTRACT: note_on channel=0 note=50 velocity=62 time=0
EXTRACT: note_on channel=0 note=54 velocity=62 time=0
EXTRACT: note_off channel=0 note=50 velocity=0 time=0.29126199999999997
EXTRACT: note_off channel=0 note=54 velocity=0 time=0
EXTRACT: note_on channel=0 note=47 velocity=62 time=0
EXTRACT: note_off channel=0 note=47 velocity=0 time=0.29126199999999997
EXTRACT: note_on channel=0 note=50 velocity=62 time=0
EXTRACT: note_on channel=0 note=54 velocity=62 time=0
EXTRACT: note_off channel=0 note=50 velocity=0 time=0.29126199999999997
EXTRACT: note_off channel=0 note=54 velocity=0 time=0
EXTRACT: note_on channel=0 note=47 velocity=62 time=0
EXTRACT: note_off channel=0 note=47 velocity=0 time=0.29126199999999997
EXTRACT: note_on channel=0 note=50 velocity=62 time=0
EXTRACT: note_on channel=0 note=54 velocity=62 time=0
EXTRACT: note_off channel=0 note=50 velocity=0 time=0.29126199999999997
EXTRACT: note_off channel=0 note=54 velocity=0 time=0
EXTRACT: note_on channel=0 note=45 velocity=62 time=0
EXTRACT: note_on channel=0 note=57 velocity=62 time=0
EXTRACT: note_off channel=0 note=66 velocity=0 time=0.5825239999999999
EXTRACT: note_off channel=0 note=45 velocity=0 time=0
EXTRACT: note_off channel=0 note=57 velocity=0 time=0
EXTRACT: note_on channel=0 note=43 velocity=62 time=0
EXTRACT: note_on channel=0 note=67 velocity=62 time=0.29126199999999997
EXTRACT: note_off channel=0 note=43 velocity=0 time=0
EXTRACT: note_on channel=0 note=47 velocity=62 time=0
EXTRACT: note_on channel=0 note=50 velocity=62 time=0
EXTRACT: note_off channel=0 note=67 velocity=0 time=0.14563099999999998
EXTRACT: note_on channel=0 note=67 velocity=62 time=0
EXTRACT: note_off channel=0 note=67 velocity=0 time=0.14563099999999998
EXTRACT: note_on channel=0 note=67 velocity=62 time=0
EXTRACT: note_off channel=0 note=47 velocity=0 time=0
EXTRACT: note_off channel=0 note=50 velocity=0 time=0
EXTRACT: note_on channel=0 note=43 velocity=62 time=0
EXTRACT: note_off channel=0 note=67 velocity=0 time=0.29126199999999997
EXTRACT: note_on channel=0 note=67 velocity=62 time=0
EXTRACT: note_off channel=0 note=43 velocity=0 time=0
EXTRACT: note_on channel=0 note=47 velocity=62 time=0
EXTRACT: note_on channel=0 note=50 velocity=62 time=0
EXTRACT: note_off channel=0 note=67 velocity=0 time=0.14563099999999998
EXTRACT: note_on channel=0 note=69 velocity=62 time=0
EXTRACT: note_off channel=0 note=47 velocity=0 time=0.14563099999999998
EXTRACT: note_off channel=0 note=50 velocity=0 time=0
EXTRACT: note_on channel=0 note=45 velocity=62 time=0
EXTRACT: note_off channel=0 note=69 velocity=0 time=0.29126199999999997
EXTRACT: note_on channel=0 note=69 velocity=62 time=0
EXTRACT: note_off channel=0 note=45 velocity=0 time=0
EXTRACT: note_on channel=0 note=49 velocity=62 time=0
EXTRACT: note_on channel=0 note=52 velocity=62 time=0
EXTRACT: note_off channel=0 note=69 velocity=0 time=0.29126199999999997
EXTRACT: note_on channel=0 note=69 velocity=62 time=0
EXTRACT: note_off channel=0 note=49 velocity=0 time=0
EXTRACT: note_off channel=0 note=52 velocity=0 time=0
EXTRACT: note_on channel=0 note=45 velocity=62 time=0
EXTRACT: note_off channel=0 note=69 velocity=0 time=0.29126199999999997
EXTRACT: note_on channel=0 note=71 velocity=62 time=0
EXTRACT: note_off channel=0 note=45 velocity=0 time=0
EXTRACT: note_on channel=0 note=49 velocity=62 time=0
EXTRACT: note_on channel=0 note=52 velocity=62 time=0
EXTRACT: note_off channel=0 note=71 velocity=0 time=0.29126199999999997
EXTRACT: note_off channel=0 note=49 velocity=0 time=0
EXTRACT: note_off channel=0 note=52 velocity=0 time=0
EXTRACT: note_on channel=0 note=66 velocity=62 time=0
EXTRACT: note_on channel=0 note=47 velocity=62 time=0
EXTRACT: note_off channel=0 note=47 velocity=0 time=0.29126199999999997
EXTRACT: note_on channel=0 note=50 velocity=62 time=0
EXTRACT: note_on channel=0 note=54 velocity=62 time=0
EXTRACT: note_off channel=0 note=50 velocity=0 time=0.29126199999999997
EXTRACT: note_off channel=0 note=54 velocity=0 time=0
EXTRACT: note_on channel=0 note=47 velocity=62 time=0
EXTRACT: note_off channel=0 note=47 velocity=0 time=0.29126199999999997
EXTRACT: note_on channel=0 note=50 velocity=62 time=0
EXTRACT: note_on channel=0 note=54 velocity=62 time=0
EXTRACT: note_off channel=0 note=66 velocity=0 time=0.29126199999999997
EXTRACT: note_off channel=0 note=50 velocity=0 time=0
EXTRACT: note_off channel=0 note=54 velocity=0 time=0
EXTRACT: note_on channel=0 note=47 velocity=62 time=0
EXTRACT: note_on channel=0 note=66 velocity=62 time=0.29126199999999997
EXTRACT: note_off channel=0 note=47 velocity=0 time=0
EXTRACT: note_on channel=0 note=50 velocity=62 time=0
EXTRACT: note_on channel=0 note=54 velocity=62 time=0
EXTRACT: note_off channel=0 note=66 velocity=0 time=0.29126199999999997
EXTRACT: note_on channel=0 note=66 velocity=62 time=0
EXTRACT: note_off channel=0 note=50 velocity=0 time=0
EXTRACT: note_off channel=0 note=54 velocity=0 time=0
EXTRACT: note_on channel=0 note=47 velocity=62 time=0
EXTRACT: note_off channel=0 note=66 velocity=0 time=0.29126199999999997
EXTRACT: note_on channel=0 note=62 velocity=62 time=0
EXTRACT: note_off channel=0 note=47 velocity=0 time=0
EXTRACT: note_on channel=0 note=50 velocity=62 time=0
EXTRACT: note_on channel=0 note=54 velocity=62 time=0
EXTRACT: note_off channel=0 note=62 velocity=0 time=0.29126199999999997
EXTRACT: note_off channel=0 note=50 velocity=0 time=0
EXTRACT: note_off channel=0 note=54 velocity=0 time=0
EXTRACT: note_on channel=0 note=64 velocity=62 time=0
EXTRACT: note_on channel=0 note=45 velocity=62 time=0
EXTRACT: note_off channel=0 note=45 velocity=0 time=0.29126199999999997
EXTRACT: note_on channel=0 note=49 velocity=62 time=0
EXTRACT: note_on channel=0 note=52 velocity=62 time=0
EXTRACT: note_off channel=0 note=49 velocity=0 time=0.29126199999999997
EXTRACT: note_off channel=0 note=52 velocity=0 time=0
EXTRACT: note_on channel=0 note=45 velocity=62 time=0
EXTRACT: note_off channel=0 note=45 velocity=0 time=0.29126199999999997
EXTRACT: note_on channel=0 note=49 velocity=62 time=0
EXTRACT: note_on channel=0 note=52 velocity=62 time=0
EXTRACT: note_off channel=0 note=49 velocity=0 time=0.29126199999999997
EXTRACT: note_off channel=0 note=52 velocity=0 time=0
EXTRACT: note_on channel=0 note=45 velocity=62 time=0
EXTRACT: note_off channel=0 note=45 velocity=0 time=0.29126199999999997
EXTRACT: note_on channel=0 note=49 velocity=62 time=0
EXTRACT: note_on channel=0 note=52 velocity=62 time=0
EXTRACT: note_off channel=0 note=49 velocity=0 time=0.29126199999999997
EXTRACT: note_off channel=0 note=52 velocity=0 time=0
EXTRACT: note_on channel=0 note=45 velocity=62 time=0
EXTRACT: note_off channel=0 note=45 velocity=0 time=0.29126199999999997
EXTRACT: note_on channel=0 note=49 velocity=62 time=0
EXTRACT: note_on channel=0 note=52 velocity=62 time=0
EXTRACT: note_off channel=0 note=64 velocity=0 time=0.29126199999999997
EXTRACT: note_off channel=0 note=49 velocity=0 time=0
EXTRACT: note_off channel=0 note=52 velocity=0 time=0
EXTRACT: note_on channel=0 note=74 velocity=75 time=0
EXTRACT: note_on channel=0 note=50 velocity=75 time=0
EXTRACT: note_off channel=0 note=50 velocity=0 time=0.29126199999999997
EXTRACT: note_on channel=0 note=57 velocity=75 time=0
EXTRACT: note_on channel=0 note=62 velocity=75 time=0
EXTRACT: note_off channel=0 note=57 velocity=0 time=0.29126199999999997
EXTRACT: note_off channel=0 note=62 velocity=0 time=0
EXTRACT: note_on channel=0 note=50 velocity=75 time=0
EXTRACT: note_off channel=0 note=50 velocity=0 time=0.29126199999999997
EXTRACT: note_on channel=0 note=57 velocity=75 time=0
EXTRACT: note_on channel=0 note=62 velocity=75 time=0
EXTRACT: note_on channel=0 note=74 velocity=75 time=0.2184465
EXTRACT: note_off channel=0 note=74 velocity=0 time=0.07281549999999999
EXTRACT: note_off channel=0 note=74 velocity=0 time=0
EXTRACT: note_on channel=0 note=78 velocity=75 time=0
EXTRACT: note_off channel=0 note=57 velocity=0 time=0
EXTRACT: note_off channel=0 note=62 velocity=0 time=0
EXTRACT: note_on channel=0 note=50 velocity=75 time=0
EXTRACT: note_off channel=0 note=78 velocity=0 time=0.29126199999999997
EXTRACT: note_on channel=0 note=76 velocity=75 time=0
EXTRACT: note_off channel=0 note=50 velocity=0 time=0
EXTRACT: note_on channel=0 note=57 velocity=75 time=0
EXTRACT: note_on channel=0 note=62 velocity=75 time=0
EXTRACT: note_off channel=0 note=76 velocity=0 time=0.29126199999999997
EXTRACT: note_on channel=0 note=74 velocity=75 time=0
EXTRACT: note_off channel=0 note=57 velocity=0 time=0
EXTRACT: note_off channel=0 note=62 velocity=0 time=0
EXTRACT: note_on channel=0 note=45 velocity=75 time=0
EXTRACT: note_on channel=0 note=57 velocity=75 time=0
EXTRACT: note_off channel=0 note=74 velocity=0 time=0.29126199999999997
EXTRACT: note_on channel=0 note=73 velocity=75 time=0
EXTRACT: note_off channel=0 note=73 velocity=0 time=0.14563099999999998
EXTRACT: note_on channel=0 note=74 velocity=75 time=0
EXTRACT: note_off channel=0 note=45 velocity=0 time=0.14563099999999998
EXTRACT: note_off channel=0 note=57 velocity=0 time=0
EXTRACT: note_on channel=0 note=47 velocity=75 time=0
EXTRACT: note_off channel=0 note=74 velocity=0 time=0.29126199999999997
EXTRACT: note_on channel=0 note=73 velocity=75 time=0
EXTRACT: note_off channel=0 note=47 velocity=0 time=0
EXTRACT: note_on channel=0 note=50 velocity=75 time=0
EXTRACT: note_on channel=0 note=54 velocity=75 time=0
EXTRACT: note_off channel=0 note=73 velocity=0 time=0.29126199999999997
EXTRACT: note_on channel=0 note=71 velocity=75 time=0
EXTRACT: note_off channel=0 note=50 velocity=0 time=0
EXTRACT: note_off channel=0 note=54 velocity=0 time=0
EXTRACT: note_on channel=0 note=47 velocity=75 time=0
EXTRACT: note_off channel=0 note=47 velocity=0 time=0.29126199999999997
EXTRACT: note_on channel=0 note=50 velocity=75 time=0
EXTRACT: note_on channel=0 note=54 velocity=75 time=0
EXTRACT: note_off channel=0 note=50 velocity=0 time=0.29126199999999997
EXTRACT: note_off channel=0 note=54 velocity=0 time=0
EXTRACT: note_on channel=0 note=47 velocity=75 time=0
EXTRACT: note_off channel=0 note=47 velocity=0 time=0.29126199999999997
EXTRACT: note_on channel=0 note=50 velocity=75 time=0
EXTRACT: note_on channel=0 note=54 velocity=75 time=0
EXTRACT: note_off channel=0 note=50 velocity=0 time=0.29126199999999997
EXTRACT: note_off channel=0 note=54 velocity=0 time=0
EXTRACT: note_on channel=0 note=49 velocity=75 time=0
EXTRACT: note_off channel=0 note=49 velocity=0 time=0.29126199999999997
EXTRACT: note_on channel=0 note=52 velocity=75 time=0
EXTRACT: note_on channel=0 note=57 velocity=75 time=0
EXTRACT: note_off channel=0 note=71 velocity=0 time=0.29126199999999997
EXTRACT: note_off channel=0 note=52 velocity=0 time=0
EXTRACT: note_off channel=0 note=57 velocity=0 time=0
EXTRACT: note_on channel=0 note=69 velocity=75 time=0
EXTRACT: note_on channel=0 note=50 velocity=75 time=0
EXTRACT: note_off channel=0 note=50 velocity=0 time=0.29126199999999997
EXTRACT: note_on channel=0 note=57 velocity=75 time=0
EXTRACT: note_on channel=0 note=62 velocity=75 time=0
EXTRACT: note_off channel=0 note=57 velocity=0 time=0.29126199999999997
EXTRACT: note_off channel=0 note=62 velocity=0 time=0
EXTRACT: note_on channel=0 note=50 velocity=75 time=0
EXTRACT: note_off channel=0 note=50 velocity=0 time=0.29126199999999997
EXTRACT: note_on channel=0 note=57 velocity=75 time=0
EXTRACT: note_on channel=0 note=62 velocity=75 time=0
EXTRACT: note_on channel=0 note=69 velocity=75 time=0.2184465
EXTRACT: note_off channel=0 note=69 velocity=0 time=0.07281549999999999
EXTRACT: note_off channel=0 note=69 velocity=0 time=0
EXTRACT: note_on channel=0 note=69 velocity=75 time=0
EXTRACT: note_off channel=0 note=57 velocity=0 time=0
EXTRACT: note_off channel=0 note=62 velocity=0 time=0
EXTRACT: note_on channel=0 note=50 velocity=75 time=0
EXTRACT: note_off channel=0 note=69 velocity=0 time=0.29126199999999997
EXTRACT: note_on channel=0 note=67 velocity=75 time=0
EXTRACT: note_off channel=0 note=50 velocity=0 time=0
EXTRACT: note_on channel=0 note=57 velocity=75 time=0
EXTRACT: note_on channel=0 note=62 velocity=75 time=0
EXTRACT: note_off channel=0 note=67 velocity=0 time=0.29126199999999997
EXTRACT: note_on channel=0 note=66 velocity=75 time=0
EXTRACT: note_off channel=0 note=57 velocity=0 time=0
EXTRACT: note_off channel=0 note=62 velocity=0 time=0
EXTRACT: note_on channel=0 note=45 velocity=75 time=0
EXTRACT: note_on channel=0 note=57 velocity=75 time=0
EXTRACT: note_off channel=0 note=66 velocity=0 time=0.29126199999999997
EXTRACT: note_on channel=0 note=64 velocity=75 time=0
EXTRACT: note_off channel=0 note=64 velocity=0 time=0.14563099999999998
EXTRACT: note_on channel=0 note=66 velocity=75 time=0
EXTRACT: note_off channel=0 note=45 velocity=0 time=0.14563099999999998
EXTRACT: note_off channel=0 note=57 velocity=0 time=0
EXTRACT: note_on channel=0 note=47 velocity=75 time=0
EXTRACT: note_off channel=0 note=47 velocity=0 time=0.29126199999999997
EXTRACT: note_on channel=0 note=50 velocity=75 time=0
EXTRACT: note_on channel=0 note=54 velocity=75 time=0
EXTRACT: note_off channel=0 note=50 velocity=0 time=0.29126199999999997
EXTRACT: note_off channel=0 note=54 velocity=0 time=0
EXTRACT: note_on channel=0 note=47 velocity=75 time=0
EXTRACT: note_off channel=0 note=47 velocity=0 time=0.29126199999999997
EXTRACT: note_on channel=0 note=50 velocity=75 time=0
EXTRACT: note_on channel=0 note=54 velocity=75 time=0
EXTRACT: note_off channel=0 note=50 velocity=0 time=0.29126199999999997
EXTRACT: note_off channel=0 note=54 velocity=0 time=0
EXTRACT: note_on channel=0 note=47 velocity=75 time=0
EXTRACT: note_off channel=0 note=47 velocity=0 time=0.29126199999999997
EXTRACT: note_on channel=0 note=50 velocity=75 time=0
EXTRACT: note_on channel=0 note=54 velocity=75 time=0
EXTRACT: note_off channel=0 note=50 velocity=0 time=0.29126199999999997
EXTRACT: note_off channel=0 note=54 velocity=0 time=0
EXTRACT: note_on channel=0 note=49 velocity=75 time=0
EXTRACT: note_off channel=0 note=49 velocity=0 time=0.29126199999999997
EXTRACT: note_on channel=0 note=52 velocity=75 time=0
EXTRACT: note_on channel=0 note=57 velocity=75 time=0
EXTRACT: note_off channel=0 note=66 velocity=0 time=0.29126199999999997
EXTRACT: note_off channel=0 note=52 velocity=0 time=0
EXTRACT: note_off channel=0 note=57 velocity=0 time=0
EXTRACT: note_on channel=0 note=74 velocity=75 time=0
EXTRACT: note_on channel=0 note=50 velocity=75 time=0
EXTRACT: note_off channel=0 note=50 velocity=0 time=0.29126199999999997
EXTRACT: note_on channel=0 note=57 velocity=75 time=0
EXTRACT: note_on channel=0 note=62 velocity=75 time=0
EXTRACT: note_off channel=0 note=57 velocity=0 time=0.29126199999999997
EXTRACT: note_off channel=0 note=62 velocity=0 time=0
EXTRACT: note_on channel=0 note=50 velocity=75 time=0
EXTRACT: note_off channel=0 note=50 velocity=0 time=0.29126199999999997
EXTRACT: note_on channel=0 note=57 velocity=75 time=0
EXTRACT: note_on channel=0 note=62 velocity=75 time=0
EXTRACT: note_on channel=0 note=74 velocity=75 time=0.2184465
EXTRACT: note_off channel=0 note=74 velocity=0 time=0.07281549999999999
EXTRACT: note_off channel=0 note=74 velocity=0 time=0
EXTRACT: note_on channel=0 note=78 velocity=75 time=0
EXTRACT: note_off channel=0 note=57 velocity=0 time=0
EXTRACT: note_off channel=0 note=62 velocity=0 time=0
EXTRACT: note_on channel=0 note=50 velocity=75 time=0
EXTRACT: note_off channel=0 note=78 velocity=0 time=0.29126199999999997
EXTRACT: note_on channel=0 note=76 velocity=75 time=0
EXTRACT: note_off channel=0 note=50 velocity=0 time=0
EXTRACT: note_on channel=0 note=57 velocity=75 time=0
EXTRACT: note_on channel=0 note=62 velocity=75 time=0
EXTRACT: note_off channel=0 note=76 velocity=0 time=0.29126199999999997
EXTRACT: note_on channel=0 note=74 velocity=75 time=0
EXTRACT: note_off channel=0 note=57 velocity=0 time=0
EXTRACT: note_off channel=0 note=62 velocity=0 time=0
EXTRACT: note_on channel=0 note=45 velocity=75 time=0
EXTRACT: note_on channel=0 note=57 velocity=75 time=0
EXTRACT: note_off channel=0 note=74 velocity=0 time=0.29126199999999997
EXTRACT: note_on channel=0 note=73 velocity=75 time=0
EXTRACT: note_off channel=0 note=73 velocity=0 time=0.14563099999999998
EXTRACT: note_on channel=0 note=74 velocity=75 time=0
EXTRACT: note_off channel=0 note=45 velocity=0 time=0.14563099999999998
EXTRACT: note_off channel=0 note=57 velocity=0 time=0
EXTRACT: note_on channel=0 note=47 velocity=75 time=0
EXTRACT: note_off channel=0 note=74 velocity=0 time=0.29126199999999997
EXTRACT: note_on channel=0 note=73 velocity=75 time=0
EXTRACT: note_off channel=0 note=47 velocity=0 time=0
EXTRACT: note_on channel=0 note=50 velocity=75 time=0
EXTRACT: note_on channel=0 note=54 velocity=75 time=0
EXTRACT: note_off channel=0 note=73 velocity=0 time=0.29126199999999997
EXTRACT: note_on channel=0 note=71 velocity=75 time=0
EXTRACT: note_off channel=0 note=50 velocity=0 time=0
EXTRACT: note_off channel=0 note=54 velocity=0 time=0
EXTRACT: note_on channel=0 note=47 velocity=75 time=0
EXTRACT: note_off channel=0 note=47 velocity=0 time=0.29126199999999997
EXTRACT: note_on channel=0 note=50 velocity=75 time=0
EXTRACT: note_on channel=0 note=54 velocity=75 time=0
EXTRACT: note_off channel=0 note=50 velocity=0 time=0.29126199999999997
EXTRACT: note_off channel=0 note=54 velocity=0 time=0
EXTRACT: note_on channel=0 note=47 velocity=75 time=0
EXTRACT: note_off channel=0 note=47 velocity=0 time=0.29126199999999997
EXTRACT: note_on channel=0 note=50 velocity=75 time=0
EXTRACT: note_on channel=0 note=54 velocity=75 time=0
EXTRACT: note_off channel=0 note=50 velocity=0 time=0.29126199999999997
EXTRACT: note_off channel=0 note=54 velocity=0 time=0
EXTRACT: note_on channel=0 note=49 velocity=75 time=0
EXTRACT: note_off channel=0 note=49 velocity=0 time=0.29126199999999997
EXTRACT: note_on channel=0 note=52 velocity=75 time=0
EXTRACT: note_on channel=0 note=57 velocity=75 time=0
EXTRACT: note_off channel=0 note=71 velocity=0 time=0.29126199999999997
EXTRACT: note_off channel=0 note=52 velocity=0 time=0
EXTRACT: note_off channel=0 note=57 velocity=0 time=0
EXTRACT: note_on channel=0 note=69 velocity=75 time=0
EXTRACT: note_on channel=0 note=50 velocity=75 time=0
EXTRACT: note_off channel=0 note=50 velocity=0 time=0.29126199999999997
EXTRACT: note_on channel=0 note=57 velocity=75 time=0
EXTRACT: note_on channel=0 note=62 velocity=75 time=0
EXTRACT: note_off channel=0 note=57 velocity=0 time=0.29126199999999997
EXTRACT: note_off channel=0 note=62 velocity=0 time=0
EXTRACT: note_on channel=0 note=50 velocity=75 time=0
EXTRACT: note_off channel=0 note=50 velocity=0 time=0.29126199999999997
EXTRACT: note_on channel=0 note=57 velocity=75 time=0
EXTRACT: note_on channel=0 note=62 velocity=75 time=0
EXTRACT: note_on channel=0 note=69 velocity=75 time=0.2184465
EXTRACT: note_off channel=0 note=69 velocity=0 time=0.07281549999999999
EXTRACT: note_off channel=0 note=69 velocity=0 time=0
EXTRACT: note_on channel=0 note=69 velocity=75 time=0
EXTRACT: note_off channel=0 note=57 velocity=0 time=0
EXTRACT: note_off channel=0 note=62 velocity=0 time=0
EXTRACT: note_on channel=0 note=50 velocity=75 time=0
EXTRACT: note_off channel=0 note=69 velocity=0 time=0.29126199999999997
EXTRACT: note_on channel=0 note=67 velocity=75 time=0
EXTRACT: note_off channel=0 note=50 velocity=0 time=0
EXTRACT: note_on channel=0 note=57 velocity=75 time=0
EXTRACT: note_on channel=0 note=62 velocity=75 time=0
EXTRACT: note_off channel=0 note=67 velocity=0 time=0.29126199999999997
EXTRACT: note_on channel=0 note=66 velocity=75 time=0
EXTRACT: note_off channel=0 note=57 velocity=0 time=0
EXTRACT: note_off channel=0 note=62 velocity=0 time=0
EXTRACT: note_on channel=0 note=45 velocity=75 time=0
EXTRACT: note_on channel=0 note=57 velocity=75 time=0
EXTRACT: note_off channel=0 note=66 velocity=0 time=0.29126199999999997
EXTRACT: note_on channel=0 note=64 velocity=75 time=0
EXTRACT: note_off channel=0 note=64 velocity=0 time=0.14563099999999998
EXTRACT: note_on channel=0 note=66 velocity=75 time=0
EXTRACT: note_off channel=0 note=45 velocity=0 time=0.14563099999999998
EXTRACT: note_off channel=0 note=57 velocity=0 time=0
EXTRACT: note_on channel=0 note=47 velocity=75 time=0
EXTRACT: note_off channel=0 note=47 velocity=0 time=0.29126199999999997
EXTRACT: note_on channel=0 note=50 velocity=75 time=0
EXTRACT: note_on channel=0 note=54 velocity=75 time=0
EXTRACT: note_off channel=0 note=50 velocity=0 time=0.29126199999999997
EXTRACT: note_off channel=0 note=54 velocity=0 time=0
EXTRACT: note_on channel=0 note=47 velocity=75 time=0
EXTRACT: note_off channel=0 note=47 velocity=0 time=0.29126199999999997
EXTRACT: note_on channel=0 note=50 velocity=75 time=0
EXTRACT: note_on channel=0 note=54 velocity=75 time=0
EXTRACT: note_off channel=0 note=50 velocity=0 time=0.29126199999999997
EXTRACT: note_off channel=0 note=54 velocity=0 time=0
EXTRACT: note_on channel=0 note=47 velocity=75 time=0
EXTRACT: note_off channel=0 note=47 velocity=0 time=0.29126199999999997
EXTRACT: note_on channel=0 note=50 velocity=75 time=0
EXTRACT: note_on channel=0 note=54 velocity=75 time=0
EXTRACT: note_off channel=0 note=50 velocity=0 time=0.29126199999999997
EXTRACT: note_off channel=0 note=54 velocity=0 time=0
EXTRACT: note_on channel=0 note=45 velocity=75 time=0
EXTRACT: note_on channel=0 note=57 velocity=75 time=0
EXTRACT: note_on channel=0 note=67 velocity=75 time=0.5097084999999999
EXTRACT: note_off channel=0 note=66 velocity=0 time=0.07281549999999999
EXTRACT: note_off channel=0 note=45 velocity=0 time=0
EXTRACT: note_off channel=0 note=57 velocity=0 time=0
EXTRACT: note_off channel=0 note=67 velocity=0 time=0
EXTRACT: note_on channel=0 note=67 velocity=62 time=0
EXTRACT: note_on channel=0 note=43 velocity=62 time=0
EXTRACT: note_off channel=0 note=67 velocity=0 time=0.29126199999999997
EXTRACT: note_on channel=0 note=67 velocity=62 time=0
EXTRACT: note_off channel=0 note=43 velocity=0 time=0
EXTRACT: note_on channel=0 note=50 velocity=62 time=0
EXTRACT: note_on channel=0 note=55 velocity=62 time=0
EXTRACT: note_off channel=0 note=67 velocity=0 time=0.29126199999999997
EXTRACT: note_on channel=0 note=67 velocity=62 time=0
EXTRACT: note_off channel=0 note=50 velocity=0 time=0
EXTRACT: note_off channel=0 note=55 velocity=0 time=0
EXTRACT: note_on channel=0 note=43 velocity=62 time=0
EXTRACT: note_off channel=0 note=67 velocity=0 time=0.29126199999999997
EXTRACT: note_on channel=0 note=67 velocity=62 time=0
EXTRACT: note_off channel=0 note=43 velocity=0 time=0
EXTRACT: note_on channel=0 note=50 velocity=62 time=0
EXTRACT: note_on channel=0 note=55 velocity=62 time=0
EXTRACT: note_off channel=0 note=67 velocity=0 time=0.29126199999999997
EXTRACT: note_on channel=0 note=71 velocity=62 time=0
EXTRACT: note_off channel=0 note=50 velocity=0 time=0
EXTRACT: note_off channel=0 note=55 velocity=0 time=0
EXTRACT: note_on channel=0 note=43 velocity=62 time=0
EXTRACT: note_off channel=0 note=71 velocity=0 time=0.14563099999999998
EXTRACT: note_on channel=0 note=71 velocity=62 time=0
EXTRACT: note_off channel=0 note=43 velocity=0 time=0.14563099999999998
EXTRACT: note_on channel=0 note=50 velocity=62 time=0
EXTRACT: note_on channel=0 note=55 velocity=62 time=0
EXTRACT: note_off channel=0 note=71 velocity=0 time=0.14563099999999998
EXTRACT: note_on channel=0 note=71 velocity=62 time=0
EXTRACT: note_off channel=0 note=50 velocity=0 time=0.14563099999999998
EXTRACT: note_off channel=0 note=55 velocity=0 time=0
EXTRACT: note_on channel=0 note=43 velocity=62 time=0
EXTRACT: note_off channel=0 note=71 velocity=0 time=0.29126199999999997
EXTRACT: note_on channel=0 note=69 velocity=62 time=0
EXTRACT: note_off channel=0 note=43 velocity=0 time=0
EXTRACT: note_on channel=0 note=50 velocity=62 time=0
EXTRACT: note_on channel=0 note=55 velocity=62 time=0
EXTRACT: note_off channel=0 note=69 velocity=0 time=0.29126199999999997
EXTRACT: note_off channel=0 note=50 velocity=0 time=0
EXTRACT: note_off channel=0 note=55 velocity=0 time=0
EXTRACT: note_on channel=0 note=69 velocity=62 time=0
EXTRACT: note_on channel=0 note=45 velocity=62 time=0
EXTRACT: note_off channel=0 note=69 velocity=0 time=0.29126199999999997
EXTRACT: note_on channel=0 note=69 velocity=62 time=0
EXTRACT: note_off channel=0 note=45 velocity=0 time=0
EXTRACT: note_on channel=0 note=52 velocity=62 time=0
EXTRACT: note_on channel=0 note=57 velocity=62 time=0
EXTRACT: note_off channel=0 note=69 velocity=0 time=0.29126199999999997
EXTRACT: note_on channel=0 note=69 velocity=62 time=0
EXTRACT: note_off channel=0 note=52 velocity=0 time=0
EXTRACT: note_off channel=0 note=57 velocity=0 time=0
EXTRACT: note_on channel=0 note=45 velocity=62 time=0
EXTRACT: note_off channel=0 note=69 velocity=0 time=0.29126199999999997
EXTRACT: note_on channel=0 note=69 velocity=62 time=0
EXTRACT: note_off channel=0 note=45 velocity=0 time=0
EXTRACT: note_on channel=0 note=52 velocity=62 time=0
EXTRACT: note_on channel=0 note=57 velocity=62 time=0
EXTRACT: note_off channel=0 note=69 velocity=0 time=0.14563099999999998
EXTRACT: note_on channel=0 note=73 velocity=62 time=0
EXTRACT: note_off channel=0 note=52 velocity=0 time=0.14563099999999998
EXTRACT: note_off channel=0 note=57 velocity=0 time=0
EXTRACT: note_on channel=0 note=45 velocity=62 time=0
EXTRACT: note_off channel=0 note=73 velocity=0 time=0.14563099999999998
EXTRACT: note_on channel=0 note=73 velocity=62 time=0
EXTRACT: note_off channel=0 note=45 velocity=0 time=0.14563099999999998
EXTRACT: note_on channel=0 note=52 velocity=62 time=0
EXTRACT: note_on channel=0 note=57 velocity=62 time=0
EXTRACT: note_off channel=0 note=73 velocity=0 time=0.14563099999999998
EXTRACT: note_on channel=0 note=73 velocity=62 time=0
EXTRACT: note_off channel=0 note=52 velocity=0 time=0.14563099999999998
EXTRACT: note_off channel=0 note=57 velocity=0 time=0
EXTRACT: note_on channel=0 note=45 velocity=62 time=0
EXTRACT: note_off channel=0 note=73 velocity=0 time=0.29126199999999997
EXTRACT: note_on channel=0 note=73 velocity=62 time=0
EXTRACT: note_off channel=0 note=45 velocity=0 time=0
EXTRACT: note_on channel=0 note=52 velocity=62 time=0
EXTRACT: note_on channel=0 note=57 velocity=62 time=0
EXTRACT: note_off channel=0 note=73 velocity=0 time=0.29126199999999997
EXTRACT: note_off channel=0 note=52 velocity=0 time=0
EXTRACT: note_off channel=0 note=57 velocity=0 time=0
EXTRACT: note_on channel=0 note=74 velocity=62 time=0
EXTRACT: note_on channel=0 note=50 velocity=62 time=0
EXTRACT: note_off channel=0 note=74 velocity=0 time=0.29126199999999997
EXTRACT: note_on channel=0 note=73 velocity=62 time=0
EXTRACT: note_off channel=0 note=50 velocity=0 time=0
EXTRACT: note_on channel=0 note=57 velocity=62 time=0
EXTRACT: note_on channel=0 note=62 velocity=62 time=0
EXTRACT: note_off channel=0 note=73 velocity=0 time=0.14563099999999998
EXTRACT: note_on channel=0 note=71 velocity=62 time=0
EXTRACT: note_off channel=0 note=57 velocity=0 time=0.14563099999999998
EXTRACT: note_off channel=0 note=62 velocity=0 time=0
EXTRACT: note_on channel=0 note=50 velocity=62 time=0
EXTRACT: note_off channel=0 note=71 velocity=0 time=0.29126199999999997
EXTRACT: note_on channel=0 note=69 velocity=62 time=0
EXTRACT: note_off channel=0 note=50 velocity=0 time=0
EXTRACT: note_on channel=0 note=57 velocity=62 time=0
EXTRACT: note_on channel=0 note=62 velocity=62 time=0
EXTRACT: note_off channel=0 note=69 velocity=0 time=0.29126199999999997
EXTRACT: note_on channel=0 note=69 velocity=62 time=0
EXTRACT: note_off channel=0 note=57 velocity=0 time=0
EXTRACT: note_off channel=0 note=62 velocity=0 time=0
EXTRACT: note_on channel=0 note=50 velocity=62 time=0
EXTRACT: note_off channel=0 note=69 velocity=0 time=0.29126199999999997
EXTRACT: note_on channel=0 note=67 velocity=62 time=0
EXTRACT: note_off channel=0 note=50 velocity=0 time=0
EXTRACT: note_on channel=0 note=57 velocity=62 time=0
EXTRACT: note_on channel=0 note=62 velocity=62 time=0
EXTRACT: note_off channel=0 note=67 velocity=0 time=0.29126199999999997
EXTRACT: note_on channel=0 note=66 velocity=62 time=0
EXTRACT: note_off channel=0 note=57 velocity=0 time=0
EXTRACT: note_off channel=0 note=62 velocity=0 time=0
EXTRACT: note_on channel=0 note=45 velocity=62 time=0
EXTRACT: note_on channel=0 note=57 velocity=62 time=0
EXTRACT: note_off channel=0 note=66 velocity=0 time=0.29126199999999997
EXTRACT: note_on channel=0 note=67 velocity=62 time=0
EXTRACT: note_off channel=0 note=67 velocity=0 time=0.14563099999999998
EXTRACT: note_on channel=0 note=66 velocity=62 time=0
EXTRACT: note_off channel=0 note=45 velocity=0 time=0.14563099999999998
EXTRACT: note_off channel=0 note=57 velocity=0 time=0
EXTRACT: note_on channel=0 note=47 velocity=62 time=0
EXTRACT: note_off channel=0 note=47 velocity=0 time=0.29126199999999997
EXTRACT: note_on channel=0 note=50 velocity=62 time=0
EXTRACT: note_on channel=0 note=54 velocity=62 time=0
EXTRACT: note_off channel=0 note=50 velocity=0 time=0.29126199999999997
EXTRACT: note_off channel=0 note=54 velocity=0 time=0
EXTRACT: note_on channel=0 note=47 velocity=62 time=0
EXTRACT: note_off channel=0 note=47 velocity=0 time=0.29126199999999997
EXTRACT: note_on channel=0 note=50 velocity=62 time=0
EXTRACT: note_on channel=0 note=54 velocity=62 time=0
EXTRACT: note_off channel=0 note=50 velocity=0 time=0.29126199999999997
EXTRACT: note_off channel=0 note=54 velocity=0 time=0
EXTRACT: note_on channel=0 note=47 velocity=62 time=0
EXTRACT: note_off channel=0 note=47 velocity=0 time=0.29126199999999997
EXTRACT: note_on channel=0 note=50 velocity=62 time=0
EXTRACT: note_on channel=0 note=54 velocity=62 time=0
EXTRACT: note_off channel=0 note=50 velocity=0 time=0.29126199999999997
EXTRACT: note_off channel=0 note=54 velocity=0 time=0
EXTRACT: note_on channel=0 note=45 velocity=62 time=0
EXTRACT: note_on channel=0 note=57 velocity=62 time=0
EXTRACT: note_on channel=0 note=67 velocity=62 time=0.5097084999999999
EXTRACT: note_off channel=0 note=66 velocity=0 time=0.07281549999999999
EXTRACT: note_off channel=0 note=45 velocity=0 time=0
EXTRACT: note_off channel=0 note=57 velocity=0 time=0
EXTRACT: note_off channel=0 note=67 velocity=0 time=0
EXTRACT: note_on channel=0 note=67 velocity=62 time=0
EXTRACT: note_on channel=0 note=43 velocity=62 time=0
EXTRACT: note_off channel=0 note=67 velocity=0 time=0.29126199999999997
EXTRACT: note_on channel=0 note=67 velocity=62 time=0
EXTRACT: note_off channel=0 note=43 velocity=0 time=0
EXTRACT: note_on channel=0 note=50 velocity=62 time=0
EXTRACT: note_on channel=0 note=55 velocity=62 time=0
EXTRACT: note_off channel=0 note=67 velocity=0 time=0.29126199999999997
EXTRACT: note_on channel=0 note=67 velocity=62 time=0
EXTRACT: note_off channel=0 note=50 velocity=0 time=0
EXTRACT: note_off channel=0 note=55 velocity=0 time=0
EXTRACT: note_on channel=0 note=43 velocity=62 time=0
EXTRACT: note_off channel=0 note=67 velocity=0 time=0.29126199999999997
EXTRACT: note_on channel=0 note=67 velocity=62 time=0
EXTRACT: note_off channel=0 note=43 velocity=0 time=0
EXTRACT: note_on channel=0 note=50 velocity=62 time=0
EXTRACT: note_on channel=0 note=55 velocity=62 time=0
EXTRACT: note_off channel=0 note=67 velocity=0 time=0.29126199999999997
EXTRACT: note_on channel=0 note=71 velocity=62 time=0
EXTRACT: note_off channel=0 note=50 velocity=0 time=0
EXTRACT: note_off channel=0 note=55 velocity=0 time=0
EXTRACT: note_on channel=0 note=43 velocity=62 time=0
EXTRACT: note_off channel=0 note=71 velocity=0 time=0.14563099999999998
EXTRACT: note_on channel=0 note=71 velocity=62 time=0
EXTRACT: note_off channel=0 note=43 velocity=0 time=0.14563099999999998
EXTRACT: note_on channel=0 note=50 velocity=62 time=0
EXTRACT: note_on channel=0 note=55 velocity=62 time=0
EXTRACT: note_off channel=0 note=71 velocity=0 time=0.14563099999999998
EXTRACT: note_on channel=0 note=71 velocity=62 time=0
EXTRACT: note_off channel=0 note=50 velocity=0 time=0.14563099999999998
EXTRACT: note_off channel=0 note=55 velocity=0 time=0
EXTRACT: note_on channel=0 note=43 velocity=62 time=0
EXTRACT: note_off channel=0 note=71 velocity=0 time=0.29126199999999997
EXTRACT: note_on channel=0 note=69 velocity=62 time=0
EXTRACT: note_off channel=0 note=43 velocity=0 time=0
EXTRACT: note_on channel=0 note=50 velocity=62 time=0
EXTRACT: note_on channel=0 note=55 velocity=62 time=0
EXTRACT: note_off channel=0 note=69 velocity=0 time=0.29126199999999997
EXTRACT: note_off channel=0 note=50 velocity=0 time=0
EXTRACT: note_off channel=0 note=55 velocity=0 time=0
EXTRACT: note_on channel=0 note=69 velocity=62 time=0
EXTRACT: note_on channel=0 note=45 velocity=62 time=0
EXTRACT: note_off channel=0 note=69 velocity=0 time=0.29126199999999997
EXTRACT: note_on channel=0 note=69 velocity=62 time=0
EXTRACT: note_off channel=0 note=45 velocity=0 time=0
EXTRACT: note_on channel=0 note=52 velocity=62 time=0
EXTRACT: note_on channel=0 note=57 velocity=62 time=0
EXTRACT: note_off channel=0 note=69 velocity=0 time=0.29126199999999997
EXTRACT: note_on channel=0 note=69 velocity=62 time=0
EXTRACT: note_off channel=0 note=52 velocity=0 time=0
EXTRACT: note_off channel=0 note=57 velocity=0 time=0
EXTRACT: note_on channel=0 note=45 velocity=62 time=0
EXTRACT: note_off channel=0 note=69 velocity=0 time=0.29126199999999997
EXTRACT: note_on channel=0 note=69 velocity=62 time=0
EXTRACT: note_off channel=0 note=45 velocity=0 time=0
EXTRACT: note_on channel=0 note=52 velocity=62 time=0
EXTRACT: note_on channel=0 note=57 velocity=62 time=0
EXTRACT: note_off channel=0 note=69 velocity=0 time=0.14563099999999998
EXTRACT: note_on channel=0 note=73 velocity=62 time=0
EXTRACT: note_off channel=0 note=52 velocity=0 time=0.14563099999999998
EXTRACT: note_off channel=0 note=57 velocity=0 time=0
EXTRACT: note_on channel=0 note=45 velocity=62 time=0
EXTRACT: note_off channel=0 note=73 velocity=0 time=0.14563099999999998
EXTRACT: note_on channel=0 note=73 velocity=62 time=0
EXTRACT: note_off channel=0 note=45 velocity=0 time=0.14563099999999998
EXTRACT: note_on channel=0 note=52 velocity=62 time=0
EXTRACT: note_on channel=0 note=57 velocity=62 time=0
EXTRACT: note_off channel=0 note=73 velocity=0 time=0.14563099999999998
EXTRACT: note_on channel=0 note=73 velocity=62 time=0
EXTRACT: note_off channel=0 note=52 velocity=0 time=0.14563099999999998
EXTRACT: note_off channel=0 note=57 velocity=0 time=0
EXTRACT: note_on channel=0 note=45 velocity=62 time=0
EXTRACT: note_off channel=0 note=73 velocity=0 time=0.29126199999999997
EXTRACT: note_on channel=0 note=73 velocity=62 time=0
EXTRACT: note_off channel=0 note=45 velocity=0 time=0
EXTRACT: note_on channel=0 note=52 velocity=62 time=0
EXTRACT: note_on channel=0 note=57 velocity=62 time=0
EXTRACT: note_off channel=0 note=73 velocity=0 time=0.29126199999999997
EXTRACT: note_off channel=0 note=52 velocity=0 time=0
EXTRACT: note_off channel=0 note=57 velocity=0 time=0
EXTRACT: note_on channel=0 note=74 velocity=62 time=0
EXTRACT: note_on channel=0 note=50 velocity=62 time=0
EXTRACT: note_off channel=0 note=74 velocity=0 time=0.29126199999999997
EXTRACT: note_on channel=0 note=73 velocity=62 time=0
EXTRACT: note_off channel=0 note=50 velocity=0 time=0
EXTRACT: note_on channel=0 note=57 velocity=62 time=0
EXTRACT: note_on channel=0 note=62 velocity=62 time=0
EXTRACT: note_off channel=0 note=73 velocity=0 time=0.14563099999999998
EXTRACT: note_on channel=0 note=71 velocity=62 time=0
EXTRACT: note_off channel=0 note=57 velocity=0 time=0.14563099999999998
EXTRACT: note_off channel=0 note=62 velocity=0 time=0
EXTRACT: note_on channel=0 note=50 velocity=62 time=0
EXTRACT: note_off channel=0 note=71 velocity=0 time=0.29126199999999997
EXTRACT: note_on channel=0 note=69 velocity=62 time=0
EXTRACT: note_off channel=0 note=50 velocity=0 time=0
EXTRACT: note_on channel=0 note=57 velocity=62 time=0
EXTRACT: note_on channel=0 note=62 velocity=62 time=0
EXTRACT: note_off channel=0 note=69 velocity=0 time=0.29126199999999997
EXTRACT: note_on channel=0 note=69 velocity=62 time=0
EXTRACT: note_off channel=0 note=57 velocity=0 time=0
EXTRACT: note_off channel=0 note=62 velocity=0 time=0
EXTRACT: note_on channel=0 note=50 velocity=62 time=0
EXTRACT: note_off channel=0 note=69 velocity=0 time=0.29126199999999997
EXTRACT: note_on channel=0 note=67 velocity=62 time=0
EXTRACT: note_off channel=0 note=50 velocity=0 time=0
EXTRACT: note_on channel=0 note=57 velocity=62 time=0
EXTRACT: note_on channel=0 note=62 velocity=62 time=0
EXTRACT: note_off channel=0 note=67 velocity=0 time=0.29126199999999997
EXTRACT: note_on channel=0 note=66 velocity=62 time=0
EXTRACT: note_off channel=0 note=57 velocity=0 time=0
EXTRACT: note_off channel=0 note=62 velocity=0 time=0
EXTRACT: note_on channel=0 note=49 velocity=62 time=0
EXTRACT: note_on channel=0 note=61 velocity=62 time=0
EXTRACT: note_off channel=0 note=66 velocity=0 time=0.29126199999999997
EXTRACT: note_on channel=0 note=67 velocity=62 time=0
EXTRACT: note_off channel=0 note=67 velocity=0 time=0.14563099999999998
EXTRACT: note_on channel=0 note=66 velocity=62 time=0
EXTRACT: note_off channel=0 note=49 velocity=0 time=0.14563099999999998
EXTRACT: note_off channel=0 note=61 velocity=0 time=0
EXTRACT: note_on channel=0 note=47 velocity=62 time=0
EXTRACT: note_off channel=0 note=47 velocity=0 time=0.29126199999999997
EXTRACT: note_on channel=0 note=50 velocity=62 time=0
EXTRACT: note_on channel=0 note=54 velocity=62 time=0
EXTRACT: note_off channel=0 note=50 velocity=0 time=0.29126199999999997
EXTRACT: note_off channel=0 note=54 velocity=0 time=0
EXTRACT: note_on channel=0 note=47 velocity=62 time=0
EXTRACT: note_off channel=0 note=47 velocity=0 time=0.29126199999999997
EXTRACT: note_on channel=0 note=50 velocity=62 time=0
EXTRACT: note_on channel=0 note=54 velocity=62 time=0
EXTRACT: note_off channel=0 note=50 velocity=0 time=0.29126199999999997
EXTRACT: note_off channel=0 note=54 velocity=0 time=0
EXTRACT: note_on channel=0 note=47 velocity=62 time=0
EXTRACT: note_off channel=0 note=47 velocity=0 time=0.29126199999999997
EXTRACT: note_on channel=0 note=50 velocity=62 time=0
EXTRACT: note_on channel=0 note=54 velocity=62 time=0
EXTRACT: note_off channel=0 note=50 velocity=0 time=0.29126199999999997
EXTRACT: note_off channel=0 note=54 velocity=0 time=0
EXTRACT: note_on channel=0 note=45 velocity=62 time=0
EXTRACT: note_on channel=0 note=57 velocity=62 time=0
EXTRACT: note_on channel=0 note=67 velocity=62 time=0.5097084999999999
EXTRACT: note_off channel=0 note=66 velocity=0 time=0.07281549999999999
EXTRACT: note_off channel=0 note=45 velocity=0 time=0
EXTRACT: note_off channel=0 note=57 velocity=0 time=0
EXTRACT: note_off channel=0 note=67 velocity=0 time=0
EXTRACT: note_on channel=0 note=67 velocity=75 time=0
EXTRACT: note_on channel=0 note=43 velocity=75 time=0
EXTRACT: note_off channel=0 note=67 velocity=0 time=0.29126199999999997
EXTRACT: note_on channel=0 note=67 velocity=75 time=0
EXTRACT: note_off channel=0 note=43 velocity=0 time=0
EXTRACT: note_on channel=0 note=50 velocity=75 time=0
EXTRACT: note_on channel=0 note=55 velocity=75 time=0
EXTRACT: note_off channel=0 note=67 velocity=0 time=0.29126199999999997
EXTRACT: note_on channel=0 note=67 velocity=75 time=0
EXTRACT: note_off channel=0 note=50 velocity=0 time=0
EXTRACT: note_off channel=0 note=55 velocity=0 time=0
EXTRACT: note_on channel=0 note=43 velocity=75 time=0
EXTRACT: note_off channel=0 note=67 velocity=0 time=0.29126199999999997
EXTRACT: note_on channel=0 note=67 velocity=75 time=0
EXTRACT: note_off channel=0 note=43 velocity=0 time=0
EXTRACT: note_on channel=0 note=50 velocity=75 time=0
EXTRACT: note_on channel=0 note=55 velocity=75 time=0
EXTRACT: note_off channel=0 note=67 velocity=0 time=0.29126199999999997
EXTRACT: note_on channel=0 note=71 velocity=75 time=0
EXTRACT: note_off channel=0 note=50 velocity=0 time=0
EXTRACT: note_off channel=0 note=55 velocity=0 time=0
EXTRACT: note_on channel=0 note=43 velocity=75 time=0
EXTRACT: note_off channel=0 note=71 velocity=0 time=0.14563099999999998
EXTRACT: note_on channel=0 note=71 velocity=75 time=0
EXTRACT: note_off channel=0 note=43 velocity=0 time=0.14563099999999998
EXTRACT: note_on channel=0 note=50 velocity=75 time=0
EXTRACT: note_on channel=0 note=55 velocity=75 time=0
EXTRACT: note_off channel=0 note=71 velocity=0 time=0.14563099999999998
EXTRACT: note_on channel=0 note=71 velocity=75 time=0
EXTRACT: note_off channel=0 note=50 velocity=0 time=0.14563099999999998
EXTRACT: note_off channel=0 note=55 velocity=0 time=0
EXTRACT: note_on channel=0 note=43 velocity=75 time=0
EXTRACT: note_off channel=0 note=71 velocity=0 time=0.29126199999999997
EXTRACT: note_on channel=0 note=69 velocity=75 time=0
EXTRACT: note_off channel=0 note=43 velocity=0 time=0
EXTRACT: note_on channel=0 note=50 velocity=75 time=0
EXTRACT: note_on channel=0 note=55 velocity=75 time=0
EXTRACT: note_off channel=0 note=69 velocity=0 time=0.29126199999999997
EXTRACT: note_off channel=0 note=50 velocity=0 time=0
EXTRACT: note_off channel=0 note=55 velocity=0 time=0
EXTRACT: note_on channel=0 note=69 velocity=75 time=0
EXTRACT: note_on channel=0 note=45 velocity=75 time=0
EXTRACT: note_off channel=0 note=69 velocity=0 time=0.29126199999999997
EXTRACT: note_on channel=0 note=69 velocity=75 time=0
EXTRACT: note_off channel=0 note=45 velocity=0 time=0
EXTRACT: note_on channel=0 note=52 velocity=75 time=0
EXTRACT: note_on channel=0 note=57 velocity=75 time=0
EXTRACT: note_off channel=0 note=69 velocity=0 time=0.29126199999999997
EXTRACT: note_on channel=0 note=69 velocity=75 time=0
EXTRACT: note_off channel=0 note=52 velocity=0 time=0
EXTRACT: note_off channel=0 note=57 velocity=0 time=0
EXTRACT: note_on channel=0 note=45 velocity=75 time=0
EXTRACT: note_off channel=0 note=69 velocity=0 time=0.29126199999999997
EXTRACT: note_on channel=0 note=69 velocity=75 time=0
EXTRACT: note_off channel=0 note=45 velocity=0 time=0
EXTRACT: note_on channel=0 note=52 velocity=75 time=0
EXTRACT: note_on channel=0 note=57 velocity=75 time=0
EXTRACT: note_off channel=0 note=69 velocity=0 time=0.14563099999999998
EXTRACT: note_on channel=0 note=73 velocity=75 time=0
EXTRACT: note_off channel=0 note=52 velocity=0 time=0.14563099999999998
EXTRACT: note_off channel=0 note=57 velocity=0 time=0
EXTRACT: note_on channel=0 note=45 velocity=75 time=0
EXTRACT: note_off channel=0 note=73 velocity=0 time=0.14563099999999998
EXTRACT: note_on channel=0 note=73 velocity=75 time=0
EXTRACT: note_off channel=0 note=45 velocity=0 time=0.14563099999999998
EXTRACT: note_on channel=0 note=52 velocity=75 time=0
EXTRACT: note_on channel=0 note=57 velocity=75 time=0
EXTRACT: note_off channel=0 note=73 velocity=0 time=0.14563099999999998
EXTRACT: note_on channel=0 note=73 velocity=75 time=0
EXTRACT: note_off channel=0 note=52 velocity=0 time=0.14563099999999998
EXTRACT: note_off channel=0 note=57 velocity=0 time=0
EXTRACT: note_on channel=0 note=45 velocity=75 time=0
EXTRACT: note_off channel=0 note=73 velocity=0 time=0.29126199999999997
EXTRACT: note_on channel=0 note=73 velocity=75 time=0
EXTRACT: note_off channel=0 note=45 velocity=0 time=0
EXTRACT: note_on channel=0 note=52 velocity=75 time=0
EXTRACT: note_on channel=0 note=57 velocity=75 time=0
EXTRACT: note_off channel=0 note=73 velocity=0 time=0.14563099999999998
EXTRACT: note_on channel=0 note=78 velocity=75 time=0
EXTRACT: note_off channel=0 note=52 velocity=0 time=0.14563099999999998
EXTRACT: note_off channel=0 note=57 velocity=0 time=0
EXTRACT: note_on channel=0 note=50 velocity=75 time=0
EXTRACT: note_off channel=0 note=78 velocity=0 time=0.29126199999999997
EXTRACT: note_on channel=0 note=76 velocity=75 time=0
EXTRACT: note_off channel=0 note=50 velocity=0 time=0
EXTRACT: note_on channel=0 note=57 velocity=75 time=0
EXTRACT: note_on channel=0 note=62 velocity=75 time=0
EXTRACT: note_off channel=0 note=76 velocity=0 time=0.29126199999999997
EXTRACT: note_on channel=0 note=74 velocity=75 time=0
EXTRACT: note_off channel=0 note=57 velocity=0 time=0
EXTRACT: note_off channel=0 note=62 velocity=0 time=0
EXTRACT: note_on channel=0 note=50 velocity=75 time=0
EXTRACT: note_off channel=0 note=74 velocity=0 time=0.29126199999999997
EXTRACT: note_on channel=0 note=73 velocity=75 time=0
EXTRACT: note_off channel=0 note=50 velocity=0 time=0
EXTRACT: note_on channel=0 note=57 velocity=75 time=0
EXTRACT: note_on channel=0 note=62 velocity=75 time=0
EXTRACT: note_off channel=0 note=73 velocity=0 time=0.29126199999999997
EXTRACT: note_on channel=0 note=74 velocity=75 time=0
EXTRACT: note_off channel=0 note=57 velocity=0 time=0
EXTRACT: note_off channel=0 note=62 velocity=0 time=0
EXTRACT: note_on channel=0 note=50 velocity=75 time=0
EXTRACT: note_off channel=0 note=74 velocity=0 time=0.29126199999999997
EXTRACT: note_on channel=0 note=73 velocity=75 time=0
EXTRACT: note_off channel=0 note=50 velocity=0 time=0
EXTRACT: note_on channel=0 note=57 velocity=75 time=0
EXTRACT: note_on channel=0 note=62 velocity=75 time=0
EXTRACT: note_off channel=0 note=73 velocity=0 time=0.29126199999999997
EXTRACT: note_on channel=0 note=71 velocity=75 time=0
EXTRACT: note_off channel=0 note=57 velocity=0 time=0
EXTRACT: note_off channel=0 note=62 velocity=0 time=0
EXTRACT: note_on channel=0 note=50 velocity=75 time=0
EXTRACT: note_off channel=0 note=71 velocity=0 time=0.29126199999999997
EXTRACT: note_on channel=0 note=73 velocity=75 time=0
EXTRACT: note_off channel=0 note=50 velocity=0 time=0
EXTRACT: note_on channel=0 note=57 velocity=75 time=0
EXTRACT: note_on channel=0 note=62 velocity=75 time=0
EXTRACT: note_off channel=0 note=73 velocity=0 time=0.14563099999999998
EXTRACT: note_on channel=0 note=74 velocity=75 time=0
EXTRACT: note_off channel=0 note=57 velocity=0 time=0.14563099999999998
EXTRACT: note_off channel=0 note=62 velocity=0 time=0
EXTRACT: note_on channel=0 note=50 velocity=75 time=0
EXTRACT: note_off channel=0 note=50 velocity=0 time=0.29126199999999997
EXTRACT: note_on channel=0 note=57 velocity=75 time=0
EXTRACT: note_on channel=0 note=62 velocity=75 time=0
EXTRACT: note_off channel=0 note=57 velocity=0 time=0.29126199999999997
EXTRACT: note_off channel=0 note=62 velocity=0 time=0
EXTRACT: note_on channel=0 note=50 velocity=75 time=0
EXTRACT: note_off channel=0 note=50 velocity=0 time=0.29126199999999997
EXTRACT: note_on channel=0 note=57 velocity=75 time=0
EXTRACT: note_on channel=0 note=62 velocity=75 time=0
EXTRACT: note_off channel=0 note=74 velocity=0 time=0.29126199999999997
EXTRACT: note_off channel=0 note=57 velocity=0 time=0
EXTRACT: note_off channel=0 note=62 velocity=0 time=0
EXTRACT: note_on channel=0 note=50 velocity=75 time=0
EXTRACT: note_on channel=0 note=69 velocity=75 time=0.29126199999999997
EXTRACT: note_off channel=0 note=50 velocity=0 time=0
EXTRACT: note_on channel=0 note=57 velocity=75 time=0
EXTRACT: note_on channel=0 note=62 velocity=75 time=0
EXTRACT: note_off channel=0 note=69 velocity=0 time=0.29126199999999997
EXTRACT: note_on channel=0 note=74 velocity=75 time=0
EXTRACT: note_off channel=0 note=57 velocity=0 time=0
EXTRACT: note_off channel=0 note=62 velocity=0 time=0
EXTRACT: note_on channel=0 note=50 velocity=75 time=0
EXTRACT: note_off channel=0 note=74 velocity=0 time=0.29126199999999997
EXTRACT: note_on channel=0 note=74 velocity=75 time=0
EXTRACT: note_off channel=0 note=50 velocity=0 time=0
EXTRACT: note_on channel=0 note=57 velocity=75 time=0
EXTRACT: note_on channel=0 note=62 velocity=75 time=0
EXTRACT: note_off channel=0 note=74 velocity=0 time=0.14563099999999998
EXTRACT: note_on channel=0 note=74 velocity=75 time=0
EXTRACT: note_off channel=0 note=57 velocity=0 time=0.14563099999999998
EXTRACT: note_off channel=0 note=62 velocity=0 time=0
EXTRACT: note_on channel=0 note=45 velocity=75 time=0
EXTRACT: note_off channel=0 note=74 velocity=0 time=0.14563099999999998
EXTRACT: note_on channel=0 note=73 velocity=75 time=0
EXTRACT: note_off channel=0 note=45 velocity=0 time=0.14563099999999998
EXTRACT: note_on channel=0 note=52 velocity=75 time=0
EXTRACT: note_on channel=0 note=57 velocity=75 time=0
EXTRACT: note_off channel=0 note=52 velocity=0 time=0.29126199999999997
EXTRACT: note_off channel=0 note=57 velocity=0 time=0
EXTRACT: note_on channel=0 note=45 velocity=75 time=0
EXTRACT: note_off channel=0 note=45 velocity=0 time=0.29126199999999997
EXTRACT: note_on channel=0 note=52 velocity=75 time=0
EXTRACT: note_on channel=0 note=57 velocity=75 time=0
EXTRACT: note_off channel=0 note=52 velocity=0 time=0.29126199999999997
EXTRACT: note_off channel=0 note=57 velocity=0 time=0
EXTRACT: note_on channel=0 note=45 velocity=75 time=0
EXTRACT: note_off channel=0 note=45 velocity=0 time=0.29126199999999997
EXTRACT: note_on channel=0 note=52 velocity=75 time=0
EXTRACT: note_on channel=0 note=57 velocity=75 time=0
EXTRACT: note_off channel=0 note=52 velocity=0 time=0.29126199999999997
EXTRACT: note_off channel=0 note=57 velocity=0 time=0
EXTRACT: note_on channel=0 note=45 velocity=75 time=0
EXTRACT: note_off channel=0 note=73 velocity=0 time=0.29126199999999997
EXTRACT: note_on channel=0 note=71 velocity=75 time=0
EXTRACT: note_off channel=0 note=45 velocity=0 time=0
EXTRACT: note_on channel=0 note=52 velocity=75 time=0
EXTRACT: note_on channel=0 note=57 velocity=75 time=0
EXTRACT: note_off channel=0 note=71 velocity=0 time=0.29126199999999997
EXTRACT: note_off channel=0 note=52 velocity=0 time=0
EXTRACT: note_off channel=0 note=57 velocity=0 time=0
EXTRACT: note_on channel=0 note=69 velocity=75 time=0
EXTRACT: note_on channel=0 note=45 velocity=75 time=0
EXTRACT: note_off channel=0 note=45 velocity=0 time=0.29126199999999997
EXTRACT: note_on channel=0 note=52 velocity=75 time=0
EXTRACT: note_on channel=0 note=57 velocity=75 time=0
EXTRACT: note_off channel=0 note=52 velocity=0 time=0.29126199999999997
EXTRACT: note_off channel=0 note=57 velocity=0 time=0
EXTRACT: note_on channel=0 note=45 velocity=75 time=0
EXTRACT: note_off channel=0 note=45 velocity=0 time=0.29126199999999997
EXTRACT: note_on channel=0 note=52 velocity=75 time=0
EXTRACT: note_on channel=0 note=57 velocity=75 time=0
EXTRACT: note_off channel=0 note=52 velocity=0 time=0.29126199999999997
EXTRACT: note_off channel=0 note=57 velocity=0 time=0
EXTRACT: note_on channel=0 note=45 velocity=75 time=0
EXTRACT: note_off channel=0 note=45 velocity=0 time=0.29126199999999997
EXTRACT: note_on channel=0 note=52 velocity=75 time=0
EXTRACT: note_on channel=0 note=57 velocity=75 time=0
EXTRACT: note_off channel=0 note=52 velocity=0 time=0.29126199999999997
EXTRACT: note_off channel=0 note=57 velocity=0 time=0
EXTRACT: note_on channel=0 note=45 velocity=75 time=0
EXTRACT: note_off channel=0 note=45 velocity=0 time=0.29126199999999997
EXTRACT: note_on channel=0 note=52 velocity=75 time=0
EXTRACT: note_on channel=0 note=57 velocity=75 time=0
EXTRACT: note_off channel=0 note=69 velocity=0 time=0.29126199999999997
EXTRACT: note_off channel=0 note=52 velocity=0 time=0
EXTRACT: note_off channel=0 note=57 velocity=0 time=0
EXTRACT: note_on channel=0 note=50 velocity=62 time=0
EXTRACT: note_on channel=0 note=69 velocity=62 time=0.29126199999999997
EXTRACT: note_off channel=0 note=50 velocity=0 time=0
EXTRACT: note_on channel=0 note=57 velocity=62 time=0
EXTRACT: note_on channel=0 note=62 velocity=62 time=0
EXTRACT: note_off channel=0 note=69 velocity=0 time=0.29126199999999997
EXTRACT: note_on channel=0 note=69 velocity=62 time=0
EXTRACT: note_off channel=0 note=57 velocity=0 time=0
EXTRACT: note_off channel=0 note=62 velocity=0 time=0
EXTRACT: note_on channel=0 note=50 velocity=62 time=0
EXTRACT: note_off channel=0 note=69 velocity=0 time=0.29126199999999997
EXTRACT: note_on channel=0 note=69 velocity=62 time=0
EXTRACT: note_off channel=0 note=50 velocity=0 time=0
EXTRACT: note_on channel=0 note=57 velocity=62 time=0
EXTRACT: note_on channel=0 note=62 velocity=62 time=0
EXTRACT: note_off channel=0 note=69 velocity=0 time=0.14563099999999998
EXTRACT: note_on channel=0 note=69 velocity=62 time=0
EXTRACT: note_off channel=0 note=57 velocity=0 time=0.14563099999999998
EXTRACT: note_off channel=0 note=62 velocity=0 time=0
EXTRACT: note_on channel=0 note=50 velocity=62 time=0
EXTRACT: note_off channel=0 note=69 velocity=0 time=0.14563099999999998
EXTRACT: note_on channel=0 note=67 velocity=62 time=0
EXTRACT: note_off channel=0 note=50 velocity=0 time=0.14563099999999998
EXTRACT: note_on channel=0 note=57 velocity=62 time=0
EXTRACT: note_on channel=0 note=62 velocity=62 time=0
EXTRACT: note_off channel=0 note=67 velocity=0 time=0.14563099999999998
EXTRACT: note_on channel=0 note=66 velocity=62 time=0
EXTRACT: note_off channel=0 note=57 velocity=0 time=0.14563099999999998
EXTRACT: note_off channel=0 note=62 velocity=0 time=0
EXTRACT: note_on channel=0 note=50 velocity=62 time=0
EXTRACT: note_off channel=0 note=66 velocity=0 time=0.14563099999999998
EXTRACT: note_on channel=0 note=67 velocity=62 time=0
EXTRACT: note_off channel=0 note=50 velocity=0 time=0.14563099999999998
EXTRACT: note_on channel=0 note=57 velocity=62 time=0
EXTRACT: note_on channel=0 note=62 velocity=62 time=0
EXTRACT: note_off channel=0 note=67 velocity=0 time=0.14563099999999998
EXTRACT: note_on channel=0 note=69 velocity=62 time=0
EXTRACT: note_off channel=0 note=57 velocity=0 time=0.14563099999999998
EXTRACT: note_off channel=0 note=62 velocity=0 time=0
EXTRACT: note_on channel=0 note=54 velocity=62 time=0
EXTRACT: note_off channel=0 note=69 velocity=0 time=0.29126199999999997
EXTRACT: note_on channel=0 note=69 velocity=62 time=0
EXTRACT: note_off channel=0 note=54 velocity=0 time=0
EXTRACT: note_on channel=0 note=57 velocity=62 time=0
EXTRACT: note_on channel=0 note=61 velocity=62 time=0
EXTRACT: note_off channel=0 note=69 velocity=0 time=0.29126199999999997
EXTRACT: note_on channel=0 note=69 velocity=62 time=0
EXTRACT: note_off channel=0 note=57 velocity=0 time=0
EXTRACT: note_off channel=0 note=61 velocity=0 time=0
EXTRACT: note_on channel=0 note=54 velocity=62 time=0
EXTRACT: note_off channel=0 note=69 velocity=0 time=0.14563099999999998
EXTRACT: note_on channel=0 note=71 velocity=62 time=0
EXTRACT: note_off channel=0 note=54 velocity=0 time=0.14563099999999998
EXTRACT: note_on channel=0 note=57 velocity=62 time=0
EXTRACT: note_on channel=0 note=61 velocity=62 time=0
EXTRACT: note_off channel=0 note=71 velocity=0 time=0.29126199999999997
EXTRACT: note_on channel=0 note=69 velocity=62 time=0
EXTRACT: note_off channel=0 note=57 velocity=0 time=0
EXTRACT: note_off channel=0 note=61 velocity=0 time=0
EXTRACT: note_on channel=0 note=54 velocity=62 time=0
EXTRACT: note_off channel=0 note=69 velocity=0 time=0.29126199999999997
EXTRACT: note_on channel=0 note=67 velocity=62 time=0
EXTRACT: note_off channel=0 note=54 velocity=0 time=0
EXTRACT: note_on channel=0 note=57 velocity=62 time=0
EXTRACT: note_on channel=0 note=61 velocity=62 time=0
EXTRACT: note_off channel=0 note=67 velocity=0 time=0.29126199999999997
EXTRACT: note_on channel=0 note=66 velocity=62 time=0
EXTRACT: note_off channel=0 note=57 velocity=0 time=0
EXTRACT: note_off channel=0 note=61 velocity=0 time=0
EXTRACT: note_on channel=0 note=54 velocity=62 time=0
EXTRACT: note_off channel=0 note=66 velocity=0 time=0.29126199999999997
EXTRACT: note_on channel=0 note=67 velocity=62 time=0
EXTRACT: note_off channel=0 note=54 velocity=0 time=0
EXTRACT: note_on channel=0 note=57 velocity=62 time=0
EXTRACT: note_on channel=0 note=61 velocity=62 time=0
EXTRACT: note_off channel=0 note=67 velocity=0 time=0.29126199999999997
EXTRACT: note_off channel=0 note=57 velocity=0 time=0
EXTRACT: note_off channel=0 note=61 velocity=0 time=0
EXTRACT: note_on channel=0 note=69 velocity=62 time=0
EXTRACT: note_on channel=0 note=50 velocity=62 time=0
EXTRACT: note_off channel=0 note=69 velocity=0 time=0.29126199999999997
EXTRACT: note_on channel=0 note=69 velocity=62 time=0
EXTRACT: note_off channel=0 note=50 velocity=0 time=0
EXTRACT: note_on channel=0 note=57 velocity=62 time=0
EXTRACT: note_on channel=0 note=62 velocity=62 time=0
EXTRACT: note_off channel=0 note=69 velocity=0 time=0.29126199999999997
EXTRACT: note_on channel=0 note=69 velocity=62 time=0
EXTRACT: note_off channel=0 note=57 velocity=0 time=0
EXTRACT: note_off channel=0 note=62 velocity=0 time=0
EXTRACT: note_on channel=0 note=50 velocity=62 time=0
EXTRACT: note_off channel=0 note=69 velocity=0 time=0.29126199999999997
EXTRACT: note_on channel=0 note=69 velocity=62 time=0
EXTRACT: note_off channel=0 note=50 velocity=0 time=0
EXTRACT: note_on channel=0 note=57 velocity=62 time=0
EXTRACT: note_on channel=0 note=62 velocity=62 time=0
EXTRACT: note_off channel=0 note=69 velocity=0 time=0.14563099999999998
EXTRACT: note_on channel=0 note=69 velocity=62 time=0
EXTRACT: note_off channel=0 note=57 velocity=0 time=0.14563099999999998
EXTRACT: note_off channel=0 note=62 velocity=0 time=0
EXTRACT: note_on channel=0 note=50 velocity=62 time=0
EXTRACT: note_off channel=0 note=69 velocity=0 time=0.29126199999999997
EXTRACT: note_on channel=0 note=67 velocity=62 time=0
EXTRACT: note_off channel=0 note=50 velocity=0 time=0
EXTRACT: note_on channel=0 note=57 velocity=62 time=0
EXTRACT: note_on channel=0 note=62 velocity=62 time=0
EXTRACT: note_off channel=0 note=67 velocity=0 time=0.29126199999999997
EXTRACT: note_on channel=0 note=66 velocity=62 time=0
EXTRACT: note_off channel=0 note=57 velocity=0 time=0
EXTRACT: note_off channel=0 note=62 velocity=0 time=0
EXTRACT: note_on channel=0 note=50 velocity=62 time=0
EXTRACT: note_off channel=0 note=66 velocity=0 time=0.29126199999999997
EXTRACT: note_on channel=0 note=67 velocity=62 time=0
EXTRACT: note_off channel=0 note=50 velocity=0 time=0
EXTRACT: note_on channel=0 note=57 velocity=62 time=0
EXTRACT: note_on channel=0 note=62 velocity=62 time=0
EXTRACT: note_off channel=0 note=67 velocity=0 time=0.14563099999999998
EXTRACT: note_on channel=0 note=69 velocity=62 time=0
EXTRACT: note_off channel=0 note=57 velocity=0 time=0.14563099999999998
EXTRACT: note_off channel=0 note=62 velocity=0 time=0
EXTRACT: note_on channel=0 note=54 velocity=62 time=0
EXTRACT: note_off channel=0 note=69 velocity=0 time=0.29126199999999997
EXTRACT: note_on channel=0 note=69 velocity=62 time=0
EXTRACT: note_off channel=0 note=54 velocity=0 time=0
EXTRACT: note_on channel=0 note=57 velocity=62 time=0
EXTRACT: note_on channel=0 note=61 velocity=62 time=0
EXTRACT: note_off channel=0 note=69 velocity=0 time=0.29126199999999997
EXTRACT: note_on channel=0 note=69 velocity=62 time=0
EXTRACT: note_off channel=0 note=57 velocity=0 time=0
EXTRACT: note_off channel=0 note=61 velocity=0 time=0
EXTRACT: note_on channel=0 note=54 velocity=62 time=0
EXTRACT: note_off channel=0 note=69 velocity=0 time=0.29126199999999997
EXTRACT: note_on channel=0 note=71 velocity=62 time=0
EXTRACT: note_off channel=0 note=54 velocity=0 time=0
EXTRACT: note_on channel=0 note=57 velocity=62 time=0
EXTRACT: note_on channel=0 note=61 velocity=62 time=0
EXTRACT: note_off channel=0 note=71 velocity=0 time=0.29126199999999997
EXTRACT: note_on channel=0 note=69 velocity=62 time=0
EXTRACT: note_off channel=0 note=57 velocity=0 time=0
EXTRACT: note_off channel=0 note=61 velocity=0 time=0
EXTRACT: note_on channel=0 note=54 velocity=62 time=0
EXTRACT: note_off channel=0 note=69 velocity=0 time=0.14563099999999998
EXTRACT: note_on channel=0 note=67 velocity=62 time=0
EXTRACT: note_off channel=0 note=54 velocity=0 time=0.14563099999999998
EXTRACT: note_on channel=0 note=57 velocity=62 time=0
EXTRACT: note_on channel=0 note=61 velocity=62 time=0
EXTRACT: note_off channel=0 note=67 velocity=0 time=0.29126199999999997
EXTRACT: note_on channel=0 note=66 velocity=62 time=0
EXTRACT: note_off channel=0 note=57 velocity=0 time=0
EXTRACT: note_off channel=0 note=61 velocity=0 time=0
EXTRACT: note_on channel=0 note=54 velocity=62 time=0
EXTRACT: note_off channel=0 note=66 velocity=0 time=0.29126199999999997
EXTRACT: note_on channel=0 note=64 velocity=62 time=0
EXTRACT: note_off channel=0 note=64 velocity=0 time=0.29126199999999997
EXTRACT: note_off channel=0 note=54 velocity=0 time=0
EXTRACT: note_on channel=0 note=66 velocity=62 time=0
EXTRACT: note_on channel=0 note=47 velocity=62 time=0
EXTRACT: note_off channel=0 note=47 velocity=0 time=0.29126199999999997
EXTRACT: note_on channel=0 note=50 velocity=62 time=0
EXTRACT: note_on channel=0 note=54 velocity=62 time=0
EXTRACT: note_off channel=0 note=50 velocity=0 time=0.29126199999999997
EXTRACT: note_off channel=0 note=54 velocity=0 time=0
EXTRACT: note_on channel=0 note=47 velocity=62 time=0
EXTRACT: note_off channel=0 note=47 velocity=0 time=0.29126199999999997
EXTRACT: note_on channel=0 note=50 velocity=62 time=0
EXTRACT: note_on channel=0 note=54 velocity=62 time=0
EXTRACT: note_off channel=0 note=50 velocity=0 time=0.29126199999999997
EXTRACT: note_off channel=0 note=54 velocity=0 time=0
EXTRACT: note_on channel=0 note=47 velocity=62 time=0
EXTRACT: note_off channel=0 note=47 velocity=0 time=0.29126199999999997
EXTRACT: note_on channel=0 note=50 velocity=62 time=0
EXTRACT: note_on channel=0 note=54 velocity=62 time=0
EXTRACT: note_off channel=0 note=50 velocity=0 time=0.29126199999999997
EXTRACT: note_off channel=0 note=54 velocity=0 time=0
EXTRACT: note_on channel=0 note=45 velocity=62 time=0
EXTRACT: note_on channel=0 note=57 velocity=62 time=0
EXTRACT: note_off channel=0 note=66 velocity=0 time=0.5825239999999999
EXTRACT: note_off channel=0 note=45 velocity=0 time=0
EXTRACT: note_off channel=0 note=57 velocity=0 time=0
EXTRACT: note_on channel=0 note=43 velocity=62 time=0
EXTRACT: note_on channel=0 note=67 velocity=62 time=0.29126199999999997
EXTRACT: note_off channel=0 note=43 velocity=0 time=0
EXTRACT: note_on channel=0 note=47 velocity=62 time=0
EXTRACT: note_on channel=0 note=50 velocity=62 time=0
EXTRACT: note_off channel=0 note=67 velocity=0 time=0.29126199999999997
EXTRACT: note_on channel=0 note=67 velocity=62 time=0
EXTRACT: note_off channel=0 note=47 velocity=0 time=0
EXTRACT: note_off channel=0 note=50 velocity=0 time=0
EXTRACT: note_on channel=0 note=43 velocity=62 time=0
EXTRACT: note_off channel=0 note=67 velocity=0 time=0.29126199999999997
EXTRACT: note_on channel=0 note=67 velocity=62 time=0
EXTRACT: note_off channel=0 note=43 velocity=0 time=0
EXTRACT: note_on channel=0 note=47 velocity=62 time=0
EXTRACT: note_on channel=0 note=50 velocity=62 time=0
EXTRACT: note_off channel=0 note=67 velocity=0 time=0.14563099999999998
EXTRACT: note_on channel=0 note=66 velocity=62 time=0
EXTRACT: note_off channel=0 note=47 velocity=0 time=0.14563099999999998
EXTRACT: note_off channel=0 note=50 velocity=0 time=0
EXTRACT: note_on channel=0 note=45 velocity=62 time=0
EXTRACT: note_off channel=0 note=66 velocity=0 time=0.29126199999999997
EXTRACT: note_on channel=0 note=64 velocity=62 time=0
EXTRACT: note_off channel=0 note=45 velocity=0 time=0
EXTRACT: note_on channel=0 note=49 velocity=62 time=0
EXTRACT: note_on channel=0 note=52 velocity=62 time=0
EXTRACT: note_off channel=0 note=64 velocity=0 time=0.29126199999999997
EXTRACT: note_on channel=0 note=62 velocity=62 time=0
EXTRACT: note_off channel=0 note=49 velocity=0 time=0
EXTRACT: note_off channel=0 note=52 velocity=0 time=0
EXTRACT: note_on channel=0 note=45 velocity=62 time=0
EXTRACT: note_off channel=0 note=62 velocity=0 time=0.29126199999999997
EXTRACT: note_on channel=0 note=64 velocity=62 time=0
EXTRACT: note_off channel=0 note=45 velocity=0 time=0
EXTRACT: note_on channel=0 note=49 velocity=62 time=0
EXTRACT: note_on channel=0 note=52 velocity=62 time=0
EXTRACT: note_off channel=0 note=64 velocity=0 time=0.29126199999999997
EXTRACT: note_off channel=0 note=49 velocity=0 time=0
EXTRACT: note_off channel=0 note=52 velocity=0 time=0
EXTRACT: note_on channel=0 note=66 velocity=62 time=0
EXTRACT: note_on channel=0 note=47 velocity=62 time=0
EXTRACT: note_off channel=0 note=47 velocity=0 time=0.29126199999999997
EXTRACT: note_on channel=0 note=50 velocity=62 time=0
EXTRACT: note_on channel=0 note=54 velocity=62 time=0
EXTRACT: note_off channel=0 note=50 velocity=0 time=0.29126199999999997
EXTRACT: note_off channel=0 note=54 velocity=0 time=0
EXTRACT: note_on channel=0 note=47 velocity=62 time=0
EXTRACT: note_off channel=0 note=47 velocity=0 time=0.29126199999999997
EXTRACT: note_on channel=0 note=50 velocity=62 time=0
EXTRACT: note_on channel=0 note=54 velocity=62 time=0
EXTRACT: note_off channel=0 note=50 velocity=0 time=0.29126199999999997
EXTRACT: note_off channel=0 note=54 velocity=0 time=0
EXTRACT: note_on channel=0 note=47 velocity=62 time=0
EXTRACT: note_off channel=0 note=47 velocity=0 time=0.29126199999999997
EXTRACT: note_on channel=0 note=50 velocity=62 time=0
EXTRACT: note_on channel=0 note=54 velocity=62 time=0
EXTRACT: note_off channel=0 note=50 velocity=0 time=0.29126199999999997
EXTRACT: note_off channel=0 note=54 velocity=0 time=0
EXTRACT: note_on channel=0 note=45 velocity=62 time=0
EXTRACT: note_on channel=0 note=57 velocity=62 time=0
EXTRACT: note_off channel=0 note=66 velocity=0 time=0.5825239999999999
EXTRACT: note_off channel=0 note=45 velocity=0 time=0
EXTRACT: note_off channel=0 note=57 velocity=0 time=0
EXTRACT: note_on channel=0 note=43 velocity=62 time=0
EXTRACT: note_on channel=0 note=67 velocity=62 time=0.29126199999999997
EXTRACT: note_off channel=0 note=43 velocity=0 time=0
EXTRACT: note_on channel=0 note=47 velocity=62 time=0
EXTRACT: note_on channel=0 note=50 velocity=62 time=0
EXTRACT: note_off channel=0 note=67 velocity=0 time=0.29126199999999997
EXTRACT: note_on channel=0 note=67 velocity=62 time=0
EXTRACT: note_off channel=0 note=47 velocity=0 time=0
EXTRACT: note_off channel=0 note=50 velocity=0 time=0
EXTRACT: note_on channel=0 note=43 velocity=62 time=0
EXTRACT: note_off channel=0 note=67 velocity=0 time=0.29126199999999997
EXTRACT: note_on channel=0 note=67 velocity=62 time=0
EXTRACT: note_off channel=0 note=43 velocity=0 time=0
EXTRACT: note_on channel=0 note=47 velocity=62 time=0
EXTRACT: note_on channel=0 note=50 velocity=62 time=0
EXTRACT: note_off channel=0 note=67 velocity=0 time=0.14563099999999998
EXTRACT: note_on channel=0 note=69 velocity=62 time=0
EXTRACT: note_off channel=0 note=47 velocity=0 time=0.14563099999999998
EXTRACT: note_off channel=0 note=50 velocity=0 time=0
EXTRACT: note_on channel=0 note=45 velocity=62 time=0
EXTRACT: note_off channel=0 note=69 velocity=0 time=0.29126199999999997
EXTRACT: note_on channel=0 note=69 velocity=62 time=0
EXTRACT: note_off channel=0 note=45 velocity=0 time=0
EXTRACT: note_on channel=0 note=49 velocity=62 time=0
EXTRACT: note_on channel=0 note=52 velocity=62 time=0
EXTRACT: note_off channel=0 note=69 velocity=0 time=0.29126199999999997
EXTRACT: note_on channel=0 note=69 velocity=62 time=0
EXTRACT: note_off channel=0 note=49 velocity=0 time=0
EXTRACT: note_off channel=0 note=52 velocity=0 time=0
EXTRACT: note_on channel=0 note=45 velocity=62 time=0
EXTRACT: note_off channel=0 note=69 velocity=0 time=0.29126199999999997
EXTRACT: note_on channel=0 note=71 velocity=62 time=0
EXTRACT: note_off channel=0 note=45 velocity=0 time=0
EXTRACT: note_on channel=0 note=49 velocity=62 time=0
EXTRACT: note_on channel=0 note=52 velocity=62 time=0
EXTRACT: note_off channel=0 note=71 velocity=0 time=0.29126199999999997
EXTRACT: note_off channel=0 note=49 velocity=0 time=0
EXTRACT: note_off channel=0 note=52 velocity=0 time=0
EXTRACT: note_on channel=0 note=66 velocity=62 time=0
EXTRACT: note_on channel=0 note=47 velocity=62 time=0
EXTRACT: note_off channel=0 note=47 velocity=0 time=0.29126199999999997
EXTRACT: note_on channel=0 note=50 velocity=62 time=0
EXTRACT: note_on channel=0 note=54 velocity=62 time=0
EXTRACT: note_off channel=0 note=50 velocity=0 time=0.29126199999999997
EXTRACT: note_off channel=0 note=54 velocity=0 time=0
EXTRACT: note_on channel=0 note=47 velocity=62 time=0
EXTRACT: note_off channel=0 note=47 velocity=0 time=0.29126199999999997
EXTRACT: note_on channel=0 note=50 velocity=62 time=0
EXTRACT: note_on channel=0 note=54 velocity=62 time=0
EXTRACT: note_off channel=0 note=50 velocity=0 time=0.29126199999999997
EXTRACT: note_off channel=0 note=54 velocity=0 time=0
EXTRACT: note_on channel=0 note=47 velocity=62 time=0
EXTRACT: note_off channel=0 note=47 velocity=0 time=0.29126199999999997
EXTRACT: note_on channel=0 note=50 velocity=62 time=0
EXTRACT: note_on channel=0 note=54 velocity=62 time=0
EXTRACT: note_off channel=0 note=50 velocity=0 time=0.29126199999999997
EXTRACT: note_off channel=0 note=54 velocity=0 time=0
EXTRACT: note_on channel=0 note=45 velocity=62 time=0
EXTRACT: note_on channel=0 note=57 velocity=62 time=0
EXTRACT: note_off channel=0 note=66 velocity=0 time=0.5825239999999999
EXTRACT: note_off channel=0 note=45 velocity=0 time=0
EXTRACT: note_off channel=0 note=57 velocity=0 time=0
EXTRACT: note_on channel=0 note=43 velocity=62 time=0
EXTRACT: note_on channel=0 note=67 velocity=62 time=0.29126199999999997
EXTRACT: note_off channel=0 note=43 velocity=0 time=0
EXTRACT: note_on channel=0 note=47 velocity=62 time=0
EXTRACT: note_on channel=0 note=50 velocity=62 time=0
EXTRACT: note_off channel=0 note=67 velocity=0 time=0.29126199999999997
EXTRACT: note_on channel=0 note=67 velocity=62 time=0
EXTRACT: note_off channel=0 note=47 velocity=0 time=0
EXTRACT: note_off channel=0 note=50 velocity=0 time=0
EXTRACT: note_on channel=0 note=43 velocity=62 time=0
EXTRACT: note_off channel=0 note=67 velocity=0 time=0.29126199999999997
EXTRACT: note_on channel=0 note=67 velocity=62 time=0
EXTRACT: note_off channel=0 note=43 velocity=0 time=0
EXTRACT: note_on channel=0 note=47 velocity=62 time=0
EXTRACT: note_on channel=0 note=50 velocity=62 time=0
EXTRACT: note_off channel=0 note=67 velocity=0 time=0.14563099999999998
EXTRACT: note_on channel=0 note=66 velocity=62 time=0
EXTRACT: note_off channel=0 note=47 velocity=0 time=0.14563099999999998
EXTRACT: note_off channel=0 note=50 velocity=0 time=0
EXTRACT: note_on channel=0 note=45 velocity=62 time=0
EXTRACT: note_off channel=0 note=66 velocity=0 time=0.29126199999999997
EXTRACT: note_on channel=0 note=64 velocity=62 time=0
EXTRACT: note_off channel=0 note=45 velocity=0 time=0
EXTRACT: note_on channel=0 note=49 velocity=62 time=0
EXTRACT: note_on channel=0 note=52 velocity=62 time=0
EXTRACT: note_off channel=0 note=64 velocity=0 time=0.29126199999999997
EXTRACT: note_on channel=0 note=62 velocity=62 time=0
EXTRACT: note_off channel=0 note=49 velocity=0 time=0
EXTRACT: note_off channel=0 note=52 velocity=0 time=0
EXTRACT: note_on channel=0 note=45 velocity=62 time=0
EXTRACT: note_off channel=0 note=62 velocity=0 time=0.29126199999999997
EXTRACT: note_on channel=0 note=64 velocity=62 time=0
EXTRACT: note_off channel=0 note=45 velocity=0 time=0
EXTRACT: note_on channel=0 note=49 velocity=62 time=0
EXTRACT: note_on channel=0 note=52 velocity=62 time=0
EXTRACT: note_off channel=0 note=64 velocity=0 time=0.29126199999999997
EXTRACT: note_off channel=0 note=49 velocity=0 time=0
EXTRACT: note_off channel=0 note=52 velocity=0 time=0
EXTRACT: note_on channel=0 note=66 velocity=62 time=0
EXTRACT: note_on channel=0 note=47 velocity=62 time=0
EXTRACT: note_off channel=0 note=47 velocity=0 time=0.29126199999999997
EXTRACT: note_on channel=0 note=50 velocity=62 time=0
EXTRACT: note_on channel=0 note=54 velocity=62 time=0
EXTRACT: note_off channel=0 note=50 velocity=0 time=0.29126199999999997
EXTRACT: note_off channel=0 note=54 velocity=0 time=0
EXTRACT: note_on channel=0 note=47 velocity=62 time=0
EXTRACT: note_off channel=0 note=47 velocity=0 time=0.29126199999999997
EXTRACT: note_on channel=0 note=50 velocity=62 time=0
EXTRACT: note_on channel=0 note=54 velocity=62 time=0
EXTRACT: note_off channel=0 note=66 velocity=0 time=0.29126199999999997
EXTRACT: note_off channel=0 note=50 velocity=0 time=0
EXTRACT: note_off channel=0 note=54 velocity=0 time=0
EXTRACT: note_on channel=0 note=47 velocity=62 time=0
EXTRACT: note_on channel=0 note=66 velocity=62 time=0.29126199999999997
EXTRACT: note_off channel=0 note=47 velocity=0 time=0
EXTRACT: note_on channel=0 note=50 velocity=62 time=0
EXTRACT: note_on channel=0 note=54 velocity=62 time=0
EXTRACT: note_off channel=0 note=66 velocity=0 time=0.29126199999999997
EXTRACT: note_on channel=0 note=66 velocity=62 time=0
EXTRACT: note_off channel=0 note=50 velocity=0 time=0
EXTRACT: note_off channel=0 note=54 velocity=0 time=0
EXTRACT: note_on channel=0 note=47 velocity=62 time=0
EXTRACT: note_off channel=0 note=66 velocity=0 time=0.29126199999999997
EXTRACT: note_on channel=0 note=62 velocity=62 time=0
EXTRACT: note_off channel=0 note=47 velocity=0 time=0
EXTRACT: note_on channel=0 note=50 velocity=62 time=0
EXTRACT: note_on channel=0 note=54 velocity=62 time=0
EXTRACT: note_off channel=0 note=62 velocity=0 time=0.29126199999999997
EXTRACT: note_off channel=0 note=50 velocity=0 time=0
EXTRACT: note_off channel=0 note=54 velocity=0 time=0
EXTRACT: note_on channel=0 note=64 velocity=62 time=0
EXTRACT: note_on channel=0 note=45 velocity=62 time=0
EXTRACT: note_off channel=0 note=45 velocity=0 time=0.29126199999999997
EXTRACT: note_on channel=0 note=49 velocity=62 time=0
EXTRACT: note_on channel=0 note=52 velocity=62 time=0
EXTRACT: note_off channel=0 note=49 velocity=0 time=0.29126199999999997
EXTRACT: note_off channel=0 note=52 velocity=0 time=0
EXTRACT: note_on channel=0 note=45 velocity=62 time=0
EXTRACT: note_off channel=0 note=45 velocity=0 time=0.29126199999999997
EXTRACT: note_on channel=0 note=49 velocity=62 time=0
EXTRACT: note_on channel=0 note=52 velocity=62 time=0
EXTRACT: note_off channel=0 note=49 velocity=0 time=0.29126199999999997
EXTRACT: note_off channel=0 note=52 velocity=0 time=0
EXTRACT: note_on channel=0 note=45 velocity=62 time=0
EXTRACT: note_off channel=0 note=45 velocity=0 time=0.29126199999999997
EXTRACT: note_on channel=0 note=49 velocity=62 time=0
EXTRACT: note_on channel=0 note=52 velocity=62 time=0
EXTRACT: note_off channel=0 note=49 velocity=0 time=0.29126199999999997
EXTRACT: note_off channel=0 note=52 velocity=0 time=0
EXTRACT: note_on channel=0 note=45 velocity=62 time=0
EXTRACT: note_off channel=0 note=45 velocity=0 time=0.29126199999999997
EXTRACT: note_on channel=0 note=49 velocity=62 time=0
EXTRACT: note_on channel=0 note=52 velocity=62 time=0
EXTRACT: note_off channel=0 note=64 velocity=0 time=0.29126199999999997
EXTRACT: note_off channel=0 note=49 velocity=0 time=0
EXTRACT: note_off channel=0 note=52 velocity=0 time=0
EXTRACT: note_on channel=0 note=45 velocity=62 time=0
EXTRACT: note_off channel=0 note=45 velocity=0 time=0.29126199999999997
EXTRACT: note_on channel=0 note=52 velocity=62 time=0
EXTRACT: note_on channel=0 note=57 velocity=62 time=0
EXTRACT: note_off channel=0 note=52 velocity=0 time=0.29126199999999997
EXTRACT: note_off channel=0 note=57 velocity=0 time=0
EXTRACT: note_on channel=0 note=45 velocity=62 time=0
EXTRACT: note_off channel=0 note=45 velocity=0 time=0.29126199999999997
EXTRACT: note_on channel=0 note=52 velocity=62 time=0
EXTRACT: note_on channel=0 note=57 velocity=62 time=0
EXTRACT: note_off channel=0 note=52 velocity=0 time=0.29126199999999997
EXTRACT: note_off channel=0 note=57 velocity=0 time=0
EXTRACT: note_on channel=0 note=45 velocity=62 time=0
EXTRACT: note_off channel=0 note=45 velocity=0 time=0.29126199999999997
EXTRACT: note_on channel=0 note=52 velocity=62 time=0
EXTRACT: note_on channel=0 note=57 velocity=62 time=0
EXTRACT: note_off channel=0 note=52 velocity=0 time=0.29126199999999997
EXTRACT: note_off channel=0 note=57 velocity=0 time=0
EXTRACT: note_on channel=0 note=45 velocity=62 time=0
EXTRACT: note_off channel=0 note=45 velocity=0 time=0.29126199999999997
EXTRACT: note_on channel=0 note=52 velocity=62 time=0
EXTRACT: note_on channel=0 note=57 velocity=62 time=0
EXTRACT: note_off channel=0 note=52 velocity=0 time=0.29126199999999997
EXTRACT: note_off channel=0 note=57 velocity=0 time=0
EXTRACT: note_on channel=0 note=74 velocity=75 time=0
EXTRACT: note_on channel=0 note=50 velocity=75 time=0
EXTRACT: note_off channel=0 note=50 velocity=0 time=0.29126199999999997
EXTRACT: note_on channel=0 note=57 velocity=75 time=0
EXTRACT: note_on channel=0 note=62 velocity=75 time=0
EXTRACT: note_off channel=0 note=57 velocity=0 time=0.29126199999999997
EXTRACT: note_off channel=0 note=62 velocity=0 time=0
EXTRACT: note_on channel=0 note=50 velocity=75 time=0
EXTRACT: note_off channel=0 note=50 velocity=0 time=0.29126199999999997
EXTRACT: note_on channel=0 note=57 velocity=75 time=0
EXTRACT: note_on channel=0 note=62 velocity=75 time=0
EXTRACT: note_on channel=0 note=74 velocity=75 time=0.2184465
EXTRACT: note_off channel=0 note=74 velocity=0 time=0.07281549999999999
EXTRACT: note_off channel=0 note=74 velocity=0 time=0
EXTRACT: note_on channel=0 note=78 velocity=75 time=0
EXTRACT: note_off channel=0 note=57 velocity=0 time=0
EXTRACT: note_off channel=0 note=62 velocity=0 time=0
EXTRACT: note_on channel=0 note=50 velocity=75 time=0
EXTRACT: note_off channel=0 note=78 velocity=0 time=0.29126199999999997
EXTRACT: note_on channel=0 note=76 velocity=75 time=0
EXTRACT: note_off channel=0 note=50 velocity=0 time=0
EXTRACT: note_on channel=0 note=57 velocity=75 time=0
EXTRACT: note_on channel=0 note=62 velocity=75 time=0
EXTRACT: note_off channel=0 note=76 velocity=0 time=0.29126199999999997
EXTRACT: note_on channel=0 note=74 velocity=75 time=0
EXTRACT: note_off channel=0 note=57 velocity=0 time=0
EXTRACT: note_off channel=0 note=62 velocity=0 time=0
EXTRACT: note_on channel=0 note=45 velocity=75 time=0
EXTRACT: note_on channel=0 note=57 velocity=75 time=0
EXTRACT: note_off channel=0 note=74 velocity=0 time=0.29126199999999997
EXTRACT: note_on channel=0 note=73 velocity=75 time=0
EXTRACT: note_off channel=0 note=73 velocity=0 time=0.14563099999999998
EXTRACT: note_on channel=0 note=74 velocity=75 time=0
EXTRACT: note_off channel=0 note=45 velocity=0 time=0.14563099999999998
EXTRACT: note_off channel=0 note=57 velocity=0 time=0
EXTRACT: note_on channel=0 note=47 velocity=75 time=0
EXTRACT: note_off channel=0 note=74 velocity=0 time=0.29126199999999997
EXTRACT: note_on channel=0 note=73 velocity=75 time=0
EXTRACT: note_off channel=0 note=47 velocity=0 time=0
EXTRACT: note_on channel=0 note=50 velocity=75 time=0
EXTRACT: note_on channel=0 note=54 velocity=75 time=0
EXTRACT: note_off channel=0 note=73 velocity=0 time=0.29126199999999997
EXTRACT: note_on channel=0 note=71 velocity=75 time=0
EXTRACT: note_off channel=0 note=50 velocity=0 time=0
EXTRACT: note_off channel=0 note=54 velocity=0 time=0
EXTRACT: note_on channel=0 note=47 velocity=75 time=0
EXTRACT: note_off channel=0 note=47 velocity=0 time=0.29126199999999997
EXTRACT: note_on channel=0 note=50 velocity=75 time=0
EXTRACT: note_on channel=0 note=54 velocity=75 time=0
EXTRACT: note_off channel=0 note=50 velocity=0 time=0.29126199999999997
EXTRACT: note_off channel=0 note=54 velocity=0 time=0
EXTRACT: note_on channel=0 note=47 velocity=75 time=0
EXTRACT: note_off channel=0 note=47 velocity=0 time=0.29126199999999997
EXTRACT: note_on channel=0 note=50 velocity=75 time=0
EXTRACT: note_on channel=0 note=54 velocity=75 time=0
EXTRACT: note_off channel=0 note=50 velocity=0 time=0.29126199999999997
EXTRACT: note_off channel=0 note=54 velocity=0 time=0
EXTRACT: note_on channel=0 note=49 velocity=75 time=0
EXTRACT: note_off channel=0 note=49 velocity=0 time=0.29126199999999997
EXTRACT: note_on channel=0 note=52 velocity=75 time=0
EXTRACT: note_on channel=0 note=57 velocity=75 time=0
EXTRACT: note_off channel=0 note=71 velocity=0 time=0.29126199999999997
EXTRACT: note_off channel=0 note=52 velocity=0 time=0
EXTRACT: note_off channel=0 note=57 velocity=0 time=0
EXTRACT: note_on channel=0 note=69 velocity=75 time=0
EXTRACT: note_on channel=0 note=50 velocity=75 time=0
EXTRACT: note_off channel=0 note=50 velocity=0 time=0.29126199999999997
EXTRACT: note_on channel=0 note=57 velocity=75 time=0
EXTRACT: note_on channel=0 note=62 velocity=75 time=0
EXTRACT: note_off channel=0 note=57 velocity=0 time=0.29126199999999997
EXTRACT: note_off channel=0 note=62 velocity=0 time=0
EXTRACT: note_on channel=0 note=50 velocity=75 time=0
EXTRACT: note_off channel=0 note=50 velocity=0 time=0.29126199999999997
EXTRACT: note_on channel=0 note=57 velocity=75 time=0
EXTRACT: note_on channel=0 note=62 velocity=75 time=0
EXTRACT: note_on channel=0 note=69 velocity=75 time=0.2184465
EXTRACT: note_off channel=0 note=69 velocity=0 time=0.07281549999999999
EXTRACT: note_off channel=0 note=69 velocity=0 time=0
EXTRACT: note_on channel=0 note=69 velocity=75 time=0
EXTRACT: note_off channel=0 note=57 velocity=0 time=0
EXTRACT: note_off channel=0 note=62 velocity=0 time=0
EXTRACT: note_on channel=0 note=50 velocity=75 time=0
EXTRACT: note_off channel=0 note=69 velocity=0 time=0.29126199999999997
EXTRACT: note_on channel=0 note=67 velocity=75 time=0
EXTRACT: note_off channel=0 note=50 velocity=0 time=0
EXTRACT: note_on channel=0 note=57 velocity=75 time=0
EXTRACT: note_on channel=0 note=62 velocity=75 time=0
EXTRACT: note_off channel=0 note=67 velocity=0 time=0.29126199999999997
EXTRACT: note_on channel=0 note=66 velocity=75 time=0
EXTRACT: note_off channel=0 note=57 velocity=0 time=0
EXTRACT: note_off channel=0 note=62 velocity=0 time=0
EXTRACT: note_on channel=0 note=45 velocity=75 time=0
EXTRACT: note_on channel=0 note=57 velocity=75 time=0
EXTRACT: note_off channel=0 note=66 velocity=0 time=0.29126199999999997
EXTRACT: note_on channel=0 note=64 velocity=75 time=0
EXTRACT: note_off channel=0 note=64 velocity=0 time=0.14563099999999998
EXTRACT: note_on channel=0 note=66 velocity=75 time=0
EXTRACT: note_off channel=0 note=45 velocity=0 time=0.14563099999999998
EXTRACT: note_off channel=0 note=57 velocity=0 time=0
EXTRACT: note_on channel=0 note=47 velocity=75 time=0
EXTRACT: note_off channel=0 note=47 velocity=0 time=0.29126199999999997
EXTRACT: note_on channel=0 note=50 velocity=75 time=0
EXTRACT: note_on channel=0 note=54 velocity=75 time=0
EXTRACT: note_off channel=0 note=50 velocity=0 time=0.29126199999999997
EXTRACT: note_off channel=0 note=54 velocity=0 time=0
EXTRACT: note_on channel=0 note=47 velocity=75 time=0
EXTRACT: note_off channel=0 note=47 velocity=0 time=0.29126199999999997
EXTRACT: note_on channel=0 note=50 velocity=75 time=0
EXTRACT: note_on channel=0 note=54 velocity=75 time=0
EXTRACT: note_off channel=0 note=50 velocity=0 time=0.29126199999999997
EXTRACT: note_off channel=0 note=54 velocity=0 time=0
EXTRACT: note_on channel=0 note=47 velocity=75 time=0
EXTRACT: note_off channel=0 note=47 velocity=0 time=0.29126199999999997
EXTRACT: note_on channel=0 note=50 velocity=75 time=0
EXTRACT: note_on channel=0 note=54 velocity=75 time=0
EXTRACT: note_off channel=0 note=50 velocity=0 time=0.29126199999999997
EXTRACT: note_off channel=0 note=54 velocity=0 time=0
EXTRACT: note_on channel=0 note=49 velocity=75 time=0
EXTRACT: note_off channel=0 note=49 velocity=0 time=0.29126199999999997
EXTRACT: note_on channel=0 note=52 velocity=75 time=0
EXTRACT: note_on channel=0 note=57 velocity=75 time=0
EXTRACT: note_off channel=0 note=66 velocity=0 time=0.29126199999999997
EXTRACT: note_off channel=0 note=52 velocity=0 time=0
EXTRACT: note_off channel=0 note=57 velocity=0 time=0
EXTRACT: note_on channel=0 note=74 velocity=75 time=0
EXTRACT: note_on channel=0 note=50 velocity=75 time=0
EXTRACT: note_off channel=0 note=50 velocity=0 time=0.29126199999999997
EXTRACT: note_on channel=0 note=57 velocity=75 time=0
EXTRACT: note_on channel=0 note=62 velocity=75 time=0
EXTRACT: note_off channel=0 note=57 velocity=0 time=0.29126199999999997
EXTRACT: note_off channel=0 note=62 velocity=0 time=0
EXTRACT: note_on channel=0 note=50 velocity=75 time=0
EXTRACT: note_off channel=0 note=50 velocity=0 time=0.29126199999999997
EXTRACT: note_on channel=0 note=57 velocity=75 time=0
EXTRACT: note_on channel=0 note=62 velocity=75 time=0
EXTRACT: note_on channel=0 note=74 velocity=75 time=0.2184465
EXTRACT: note_off channel=0 note=74 velocity=0 time=0.07281549999999999
EXTRACT: note_off channel=0 note=74 velocity=0 time=0
EXTRACT: note_on channel=0 note=78 velocity=75 time=0
EXTRACT: note_off channel=0 note=57 velocity=0 time=0
EXTRACT: note_off channel=0 note=62 velocity=0 time=0
EXTRACT: note_on channel=0 note=50 velocity=75 time=0
EXTRACT: note_off channel=0 note=78 velocity=0 time=0.29126199999999997
EXTRACT: note_on channel=0 note=76 velocity=75 time=0
EXTRACT: note_off channel=0 note=50 velocity=0 time=0
EXTRACT: note_on channel=0 note=57 velocity=75 time=0
EXTRACT: note_on channel=0 note=62 velocity=75 time=0
EXTRACT: note_off channel=0 note=76 velocity=0 time=0.29126199999999997
EXTRACT: note_on channel=0 note=74 velocity=75 time=0
EXTRACT: note_off channel=0 note=57 velocity=0 time=0
EXTRACT: note_off channel=0 note=62 velocity=0 time=0
EXTRACT: note_on channel=0 note=45 velocity=75 time=0
EXTRACT: note_on channel=0 note=57 velocity=75 time=0
EXTRACT: note_off channel=0 note=74 velocity=0 time=0.29126199999999997
EXTRACT: note_on channel=0 note=73 velocity=75 time=0
EXTRACT: note_off channel=0 note=73 velocity=0 time=0.14563099999999998
EXTRACT: note_on channel=0 note=74 velocity=75 time=0
EXTRACT: note_off channel=0 note=45 velocity=0 time=0.14563099999999998
EXTRACT: note_off channel=0 note=57 velocity=0 time=0
EXTRACT: note_on channel=0 note=47 velocity=75 time=0
EXTRACT: note_off channel=0 note=74 velocity=0 time=0.29126199999999997
EXTRACT: note_on channel=0 note=73 velocity=75 time=0
EXTRACT: note_off channel=0 note=47 velocity=0 time=0
EXTRACT: note_on channel=0 note=50 velocity=75 time=0
EXTRACT: note_on channel=0 note=54 velocity=75 time=0
EXTRACT: note_off channel=0 note=73 velocity=0 time=0.29126199999999997
EXTRACT: note_on channel=0 note=71 velocity=75 time=0
EXTRACT: note_off channel=0 note=50 velocity=0 time=0
EXTRACT: note_off channel=0 note=54 velocity=0 time=0
EXTRACT: note_on channel=0 note=47 velocity=75 time=0
EXTRACT: note_off channel=0 note=47 velocity=0 time=0.29126199999999997
EXTRACT: note_on channel=0 note=50 velocity=75 time=0
EXTRACT: note_on channel=0 note=54 velocity=75 time=0
EXTRACT: note_off channel=0 note=50 velocity=0 time=0.29126199999999997
EXTRACT: note_off channel=0 note=54 velocity=0 time=0
EXTRACT: note_on channel=0 note=47 velocity=75 time=0
EXTRACT: note_off channel=0 note=47 velocity=0 time=0.29126199999999997
EXTRACT: note_on channel=0 note=50 velocity=75 time=0
EXTRACT: note_on channel=0 note=54 velocity=75 time=0
EXTRACT: note_off channel=0 note=50 velocity=0 time=0.29126199999999997
EXTRACT: note_off channel=0 note=54 velocity=0 time=0
EXTRACT: note_on channel=0 note=49 velocity=75 time=0
EXTRACT: note_off channel=0 note=49 velocity=0 time=0.29126199999999997
EXTRACT: note_on channel=0 note=52 velocity=75 time=0
EXTRACT: note_on channel=0 note=57 velocity=75 time=0
EXTRACT: note_off channel=0 note=71 velocity=0 time=0.29126199999999997
EXTRACT: note_off channel=0 note=52 velocity=0 time=0
EXTRACT: note_off channel=0 note=57 velocity=0 time=0
EXTRACT: note_on channel=0 note=69 velocity=75 time=0
EXTRACT: note_on channel=0 note=50 velocity=75 time=0
EXTRACT: note_off channel=0 note=50 velocity=0 time=0.29126199999999997
EXTRACT: note_on channel=0 note=57 velocity=75 time=0
EXTRACT: note_on channel=0 note=62 velocity=75 time=0
EXTRACT: note_off channel=0 note=57 velocity=0 time=0.29126199999999997
EXTRACT: note_off channel=0 note=62 velocity=0 time=0
EXTRACT: note_on channel=0 note=50 velocity=75 time=0
EXTRACT: note_off channel=0 note=50 velocity=0 time=0.29126199999999997
EXTRACT: note_on channel=0 note=57 velocity=75 time=0
EXTRACT: note_on channel=0 note=62 velocity=75 time=0
EXTRACT: note_on channel=0 note=69 velocity=75 time=0.2184465
EXTRACT: note_off channel=0 note=69 velocity=0 time=0.07281549999999999
EXTRACT: note_off channel=0 note=69 velocity=0 time=0
EXTRACT: note_on channel=0 note=69 velocity=75 time=0
EXTRACT: note_off channel=0 note=57 velocity=0 time=0
EXTRACT: note_off channel=0 note=62 velocity=0 time=0
EXTRACT: note_on channel=0 note=50 velocity=75 time=0
EXTRACT: note_off channel=0 note=69 velocity=0 time=0.29126199999999997
EXTRACT: note_on channel=0 note=67 velocity=75 time=0
EXTRACT: note_off channel=0 note=50 velocity=0 time=0
EXTRACT: note_on channel=0 note=57 velocity=75 time=0
EXTRACT: note_on channel=0 note=62 velocity=75 time=0
EXTRACT: note_off channel=0 note=67 velocity=0 time=0.29126199999999997
EXTRACT: note_on channel=0 note=66 velocity=75 time=0
EXTRACT: note_off channel=0 note=57 velocity=0 time=0
EXTRACT: note_off channel=0 note=62 velocity=0 time=0
EXTRACT: note_on channel=0 note=45 velocity=75 time=0
EXTRACT: note_on channel=0 note=57 velocity=75 time=0
EXTRACT: note_off channel=0 note=66 velocity=0 time=0.29126199999999997
EXTRACT: note_on channel=0 note=64 velocity=75 time=0
EXTRACT: note_off channel=0 note=64 velocity=0 time=0.14563099999999998
EXTRACT: note_on channel=0 note=66 velocity=75 time=0
EXTRACT: note_off channel=0 note=45 velocity=0 time=0.14563099999999998
EXTRACT: note_off channel=0 note=57 velocity=0 time=0
EXTRACT: note_on channel=0 note=47 velocity=75 time=0
EXTRACT: note_off channel=0 note=47 velocity=0 time=0.29126199999999997
EXTRACT: note_on channel=0 note=50 velocity=75 time=0
EXTRACT: note_on channel=0 note=54 velocity=75 time=0
EXTRACT: note_off channel=0 note=50 velocity=0 time=0.29126199999999997
EXTRACT: note_off channel=0 note=54 velocity=0 time=0
EXTRACT: note_on channel=0 note=47 velocity=75 time=0
EXTRACT: note_off channel=0 note=47 velocity=0 time=0.29126199999999997
EXTRACT: note_on channel=0 note=50 velocity=75 time=0
EXTRACT: note_on channel=0 note=54 velocity=75 time=0
EXTRACT: note_on channel=0 note=69 velocity=75 time=0.2184465
EXTRACT: note_off channel=0 note=66 velocity=0 time=0.07281549999999999
EXTRACT: note_off channel=0 note=69 velocity=0 time=0
EXTRACT: note_on channel=0 note=69 velocity=75 time=0
EXTRACT: note_off channel=0 note=50 velocity=0 time=0
EXTRACT: note_off channel=0 note=54 velocity=0 time=0
EXTRACT: note_on channel=0 note=47 velocity=75 time=0
EXTRACT: note_off channel=0 note=69 velocity=0 time=0.29126199999999997
EXTRACT: note_on channel=0 note=67 velocity=75 time=0
EXTRACT: note_off channel=0 note=47 velocity=0 time=0
EXTRACT: note_on channel=0 note=50 velocity=75 time=0
EXTRACT: note_on channel=0 note=54 velocity=75 time=0
EXTRACT: note_off channel=0 note=67 velocity=0 time=0.29126199999999997
EXTRACT: note_on channel=0 note=66 velocity=75 time=0
EXTRACT: note_off channel=0 note=50 velocity=0 time=0
EXTRACT: note_off channel=0 note=54 velocity=0 time=0
EXTRACT: note_on channel=0 note=45 velocity=75 time=0
EXTRACT: note_on channel=0 note=57 velocity=75 time=0
EXTRACT: note_off channel=0 note=66 velocity=0 time=0.29126199999999997
EXTRACT: note_on channel=0 note=64 velocity=75 time=0
EXTRACT: note_off channel=0 note=64 velocity=0 time=0.14563099999999998
EXTRACT: note_on channel=0 note=66 velocity=75 time=0
EXTRACT: note_off channel=0 note=45 velocity=0 time=0.14563099999999998
EXTRACT: note_off channel=0 note=57 velocity=0 time=0
EXTRACT: note_on channel=0 note=50 velocity=75 time=0
EXTRACT: note_off channel=0 note=50 velocity=0 time=0.29126199999999997
EXTRACT: note_on channel=0 note=57 velocity=75 time=0
EXTRACT: note_on channel=0 note=62 velocity=75 time=0
EXTRACT: note_off channel=0 note=57 velocity=0 time=0.29126199999999997
EXTRACT: note_off channel=0 note=62 velocity=0 time=0
EXTRACT: note_on channel=0 note=50 velocity=75 time=0
EXTRACT: note_off channel=0 note=50 velocity=0 time=0.29126199999999997
EXTRACT: note_on channel=0 note=57 velocity=75 time=0
EXTRACT: note_on channel=0 note=62 velocity=75 time=0
EXTRACT: note_off channel=0 note=57 velocity=0 time=0.29126199999999997
EXTRACT: note_off channel=0 note=62 velocity=0 time=0
EXTRACT: note_on channel=0 note=50 velocity=75 time=0
EXTRACT: note_off channel=0 note=50 velocity=0 time=0.29126199999999997
EXTRACT: note_on channel=0 note=57 velocity=75 time=0
EXTRACT: note_on channel=0 note=62 velocity=75 time=0
EXTRACT: note_off channel=0 note=66 velocity=0 time=0.29126199999999997
EXTRACT: note_on channel=0 note=69 velocity=75 time=0
EXTRACT: note_off channel=0 note=57 velocity=0 time=0
EXTRACT: note_off channel=0 note=62 velocity=0 time=0
EXTRACT: note_on channel=0 note=45 velocity=75 time=0
EXTRACT: note_on channel=0 note=57 velocity=75 time=0
EXTRACT: note_off channel=0 note=69 velocity=0 time=0.5825239999999999
EXTRACT: note_off channel=0 note=45 velocity=0 time=0
EXTRACT: note_off channel=0 note=57 velocity=0 time=0
EXTRACT: note_on channel=0 note=71 velocity=75 time=0
EXTRACT: note_on channel=0 note=47 velocity=75 time=0
EXTRACT: note_off channel=0 note=47 velocity=0 time=0.29126199999999997
EXTRACT: note_on channel=0 note=50 velocity=75 time=0
EXTRACT: note_on channel=0 note=54 velocity=75 time=0
EXTRACT: note_off channel=0 note=50 velocity=0 time=0.29126199999999997
EXTRACT: note_off channel=0 note=54 velocity=0 time=0
EXTRACT: note_on channel=0 note=47 velocity=75 time=0
EXTRACT: note_off channel=0 note=47 velocity=0 time=0.29126199999999997
EXTRACT: note_on channel=0 note=50 velocity=75 time=0
EXTRACT: note_on channel=0 note=54 velocity=75 time=0
EXTRACT: note_off channel=0 note=50 velocity=0 time=0.29126199999999997
EXTRACT: note_off channel=0 note=54 velocity=0 time=0
EXTRACT: note_on channel=0 note=47 velocity=75 time=0
EXTRACT: note_off channel=0 note=47 velocity=0 time=0.29126199999999997
EXTRACT: note_on channel=0 note=50 velocity=75 time=0
EXTRACT: note_on channel=0 note=54 velocity=75 time=0
EXTRACT: note_off channel=0 note=71 velocity=0 time=0.29126199999999997
EXTRACT: note_on channel=0 note=73 velocity=75 time=0
EXTRACT: note_off channel=0 note=50 velocity=0 time=0
EXTRACT: note_off channel=0 note=54 velocity=0 time=0
EXTRACT: note_on channel=0 note=45 velocity=75 time=0
EXTRACT: note_on channel=0 note=57 velocity=75 time=0
EXTRACT: note_off channel=0 note=73 velocity=0 time=0.5825239999999999
EXTRACT: note_off channel=0 note=45 velocity=0 time=0
EXTRACT: note_off channel=0 note=57 velocity=0 time=0
EXTRACT: note_on channel=0 note=74 velocity=75 time=0
EXTRACT: note_on channel=0 note=50 velocity=75 time=0
EXTRACT: note_off channel=0 note=50 velocity=0 time=0.29126199999999997
EXTRACT: note_on channel=0 note=57 velocity=75 time=0
EXTRACT: note_on channel=0 note=62 velocity=75 time=0
EXTRACT: note_off channel=0 note=57 velocity=0 time=0.29126199999999997
EXTRACT: note_off channel=0 note=62 velocity=0 time=0
EXTRACT: note_on channel=0 note=50 velocity=75 time=0
EXTRACT: note_off channel=0 note=50 velocity=0 time=0.29126199999999997
EXTRACT: note_on channel=0 note=57 velocity=75 time=0
EXTRACT: note_on channel=0 note=62 velocity=75 time=0
EXTRACT: note_off channel=0 note=74 velocity=0 time=0.29126199999999997
EXTRACT: note_on channel=0 note=78 velocity=75 time=0
EXTRACT: note_off channel=0 note=57 velocity=0 time=0
EXTRACT: note_off channel=0 note=62 velocity=0 time=0
EXTRACT: note_on channel=0 note=50 velocity=75 time=0
EXTRACT: note_off channel=0 note=78 velocity=0 time=0.29126199999999997
EXTRACT: note_on channel=0 note=76 velocity=75 time=0
EXTRACT: note_off channel=0 note=50 velocity=0 time=0
EXTRACT: note_on channel=0 note=57 velocity=75 time=0
EXTRACT: note_on channel=0 note=62 velocity=75 time=0
EXTRACT: note_off channel=0 note=76 velocity=0 time=0.29126199999999997
EXTRACT: note_on channel=0 note=74 velocity=75 time=0
EXTRACT: note_off channel=0 note=57 velocity=0 time=0
EXTRACT: note_off channel=0 note=62 velocity=0 time=0
EXTRACT: note_on channel=0 note=45 velocity=75 time=0
EXTRACT: note_on channel=0 note=57 velocity=75 time=0
EXTRACT: note_off channel=0 note=74 velocity=0 time=0.29126199999999997
EXTRACT: note_on channel=0 note=73 velocity=75 time=0
EXTRACT: note_off channel=0 note=73 velocity=0 time=0.14563099999999998
EXTRACT: note_on channel=0 note=71 velocity=75 time=0
EXTRACT: note_off channel=0 note=45 velocity=0 time=0.14563099999999998
EXTRACT: note_off channel=0 note=57 velocity=0 time=0
EXTRACT: note_on channel=0 note=47 velocity=75 time=0
EXTRACT: note_off channel=0 note=47 velocity=0 time=0.29126199999999997
EXTRACT: note_on channel=0 note=50 velocity=75 time=0
EXTRACT: note_on channel=0 note=54 velocity=75 time=0
EXTRACT: note_off channel=0 note=50 velocity=0 time=0.29126199999999997
EXTRACT: note_off channel=0 note=54 velocity=0 time=0
EXTRACT: note_on channel=0 note=47 velocity=75 time=0
EXTRACT: note_off channel=0 note=47 velocity=0 time=0.29126199999999997
EXTRACT: note_on channel=0 note=50 velocity=75 time=0
EXTRACT: note_on channel=0 note=54 velocity=75 time=0
EXTRACT: note_off channel=0 note=50 velocity=0 time=0.29126199999999997
EXTRACT: note_off channel=0 note=54 velocity=0 time=0
EXTRACT: note_on channel=0 note=47 velocity=75 time=0
EXTRACT: note_off channel=0 note=47 velocity=0 time=0.29126199999999997
EXTRACT: note_on channel=0 note=50 velocity=75 time=0
EXTRACT: note_on channel=0 note=54 velocity=75 time=0
EXTRACT: note_off channel=0 note=71 velocity=0 time=0.29126199999999997
EXTRACT: note_on channel=0 note=73 velocity=75 time=0
EXTRACT: note_off channel=0 note=50 velocity=0 time=0
EXTRACT: note_off channel=0 note=54 velocity=0 time=0
EXTRACT: note_on channel=0 note=45 velocity=75 time=0
EXTRACT: note_on channel=0 note=57 velocity=75 time=0
EXTRACT: note_off channel=0 note=73 velocity=0 time=0.5825239999999999
EXTRACT: note_off channel=0 note=45 velocity=0 time=0
EXTRACT: note_off channel=0 note=57 velocity=0 time=0
EXTRACT: note_on channel=0 note=69 velocity=75 time=0
EXTRACT: note_on channel=0 note=50 velocity=75 time=0
EXTRACT: note_off channel=0 note=50 velocity=0 time=0.29126199999999997
EXTRACT: note_on channel=0 note=57 velocity=75 time=0
EXTRACT: note_on channel=0 note=62 velocity=75 time=0
EXTRACT: note_off channel=0 note=57 velocity=0 time=0.29126199999999997
EXTRACT: note_off channel=0 note=62 velocity=0 time=0
EXTRACT: note_on channel=0 note=50 velocity=75 time=0
EXTRACT: note_off channel=0 note=50 velocity=0 time=0.29126199999999997
EXTRACT: note_on channel=0 note=57 velocity=75 time=0
EXTRACT: note_on channel=0 note=62 velocity=75 time=0
EXTRACT: note_off channel=0 note=69 velocity=0 time=0.29126199999999997
EXTRACT: note_on channel=0 note=69 velocity=75 time=0
EXTRACT: note_off channel=0 note=57 velocity=0 time=0
EXTRACT: note_off channel=0 note=62 velocity=0 time=0
EXTRACT: note_on channel=0 note=50 velocity=75 time=0
EXTRACT: note_off channel=0 note=69 velocity=0 time=0.29126199999999997
EXTRACT: note_on channel=0 note=67 velocity=75 time=0
EXTRACT: note_off channel=0 note=50 velocity=0 time=0
EXTRACT: note_on channel=0 note=57 velocity=75 time=0
EXTRACT: note_on channel=0 note=62 velocity=75 time=0
EXTRACT: note_off channel=0 note=67 velocity=0 time=0.29126199999999997
EXTRACT: note_on channel=0 note=66 velocity=75 time=0
EXTRACT: note_off channel=0 note=57 velocity=0 time=0
EXTRACT: note_off channel=0 note=62 velocity=0 time=0
EXTRACT: note_on channel=0 note=45 velocity=75 time=0
EXTRACT: note_on channel=0 note=57 velocity=75 time=0
EXTRACT: note_off channel=0 note=66 velocity=0 time=0.29126199999999997
EXTRACT: note_on channel=0 note=64 velocity=75 time=0
EXTRACT: note_off channel=0 note=64 velocity=0 time=0.14563099999999998
EXTRACT: note_on channel=0 note=66 velocity=75 time=0
EXTRACT: note_off channel=0 note=45 velocity=0 time=0.14563099999999998
EXTRACT: note_off channel=0 note=57 velocity=0 time=0
EXTRACT: note_on channel=0 note=47 velocity=75 time=0
EXTRACT: note_off channel=0 note=47 velocity=0 time=0.29126199999999997
EXTRACT: note_on channel=0 note=50 velocity=75 time=0
EXTRACT: note_on channel=0 note=54 velocity=75 time=0
EXTRACT: note_off channel=0 note=50 velocity=0 time=0.29126199999999997
EXTRACT: note_off channel=0 note=54 velocity=0 time=0
EXTRACT: note_on channel=0 note=47 velocity=75 time=0
EXTRACT: note_off channel=0 note=47 velocity=0 time=0.29126199999999997
EXTRACT: note_on channel=0 note=50 velocity=75 time=0
EXTRACT: note_on channel=0 note=54 velocity=75 time=0
EXTRACT: note_off channel=0 note=66 velocity=0 time=0.29126199999999997
EXTRACT: note_on channel=0 note=69 velocity=75 time=0
EXTRACT: note_off channel=0 note=50 velocity=0 time=0
EXTRACT: note_off channel=0 note=54 velocity=0 time=0
EXTRACT: note_on channel=0 note=47 velocity=75 time=0
EXTRACT: note_off channel=0 note=69 velocity=0 time=0.29126199999999997
EXTRACT: note_on channel=0 note=67 velocity=75 time=0
EXTRACT: note_off channel=0 note=47 velocity=0 time=0
EXTRACT: note_on channel=0 note=50 velocity=75 time=0
EXTRACT: note_on channel=0 note=54 velocity=75 time=0
EXTRACT: note_off channel=0 note=67 velocity=0 time=0.29126199999999997
EXTRACT: note_on channel=0 note=66 velocity=75 time=0
EXTRACT: note_off channel=0 note=50 velocity=0 time=0
EXTRACT: note_off channel=0 note=54 velocity=0 time=0
EXTRACT: note_on channel=0 note=45 velocity=75 time=0
EXTRACT: note_on channel=0 note=57 velocity=75 time=0
EXTRACT: note_off channel=0 note=66 velocity=0 time=0.29126199999999997
EXTRACT: note_on channel=0 note=64 velocity=75 time=0
EXTRACT: note_off channel=0 note=64 velocity=0 time=0.29126199999999997
EXTRACT: note_off channel=0 note=45 velocity=0 time=0
EXTRACT: note_off channel=0 note=57 velocity=0 time=0
EXTRACT: note_on channel=0 note=66 velocity=75 time=0
EXTRACT: note_on channel=0 note=50 velocity=75 time=0
EXTRACT: note_off channel=0 note=50 velocity=0 time=0.29126199999999997
EXTRACT: note_on channel=0 note=57 velocity=75 time=0
EXTRACT: note_on channel=0 note=62 velocity=75 time=0
EXTRACT: note_off channel=0 note=57 velocity=0 time=0.29126199999999997
EXTRACT: note_off channel=0 note=62 velocity=0 time=0
EXTRACT: note_on channel=0 note=50 velocity=75 time=0
EXTRACT: note_off channel=0 note=50 velocity=0 time=0.29126199999999997
EXTRACT: note_on channel=0 note=57 velocity=75 time=0
EXTRACT: note_on channel=0 note=62 velocity=75 time=0
EXTRACT: note_off channel=0 note=57 velocity=0 time=0.29126199999999997
EXTRACT: note_off channel=0 note=62 velocity=0 time=0
EXTRACT: note_on channel=0 note=50 velocity=75 time=0
EXTRACT: note_off channel=0 note=50 velocity=0 time=0.29126199999999997
EXTRACT: note_on channel=0 note=57 velocity=75 time=0
EXTRACT: note_on channel=0 note=62 velocity=75 time=0
EXTRACT: note_off channel=0 note=66 velocity=0 time=0.29126199999999997
EXTRACT: note_on channel=0 note=61 velocity=75 time=0
EXTRACT: note_off channel=0 note=57 velocity=0 time=0
EXTRACT: note_off channel=0 note=62 velocity=0 time=0
EXTRACT: note_on channel=0 note=45 velocity=75 time=0
EXTRACT: note_on channel=0 note=57 velocity=75 time=0
EXTRACT: note_off channel=0 note=61 velocity=0 time=0.5825239999999999
EXTRACT: note_off channel=0 note=45 velocity=0 time=0
EXTRACT: note_off channel=0 note=57 velocity=0 time=0
EXTRACT: note_on channel=0 note=62 velocity=75 time=0
EXTRACT: note_on channel=0 note=47 velocity=75 time=0
EXTRACT: note_off channel=0 note=47 velocity=0 time=0.29126199999999997
EXTRACT: note_on channel=0 note=50 velocity=75 time=0
EXTRACT: note_on channel=0 note=54 velocity=75 time=0
EXTRACT: note_off channel=0 note=50 velocity=0 time=0.29126199999999997
EXTRACT: note_off channel=0 note=54 velocity=0 time=0
EXTRACT: note_on channel=0 note=47 velocity=75 time=0
EXTRACT: note_off channel=0 note=47 velocity=0 time=0.29126199999999997
EXTRACT: note_on channel=0 note=50 velocity=75 time=0
EXTRACT: note_on channel=0 note=54 velocity=75 time=0
EXTRACT: note_off channel=0 note=50 velocity=0 time=0.29126199999999997
EXTRACT: note_off channel=0 note=54 velocity=0 time=0
EXTRACT: note_on channel=0 note=47 velocity=75 time=0
EXTRACT: note_off channel=0 note=47 velocity=0 time=0.29126199999999997
EXTRACT: note_on channel=0 note=50 velocity=75 time=0
EXTRACT: note_on channel=0 note=54 velocity=75 time=0
EXTRACT: note_off channel=0 note=62 velocity=0 time=0.29126199999999997
EXTRACT: note_on channel=0 note=66 velocity=75 time=0
EXTRACT: note_off channel=0 note=50 velocity=0 time=0
EXTRACT: note_off channel=0 note=54 velocity=0 time=0
EXTRACT: note_on channel=0 note=45 velocity=75 time=0
EXTRACT: note_on channel=0 note=57 velocity=75 time=0
EXTRACT: note_off channel=0 note=66 velocity=0 time=0.5825239999999999
EXTRACT: note_off channel=0 note=45 velocity=0 time=0
EXTRACT: note_off channel=0 note=57 velocity=0 time=0
EXTRACT: note_on channel=0 note=62 velocity=75 time=0
EXTRACT: note_on channel=0 note=50 velocity=75 time=0
EXTRACT: note_off channel=0 note=50 velocity=0 time=0.29126199999999997
EXTRACT: note_on channel=0 note=57 velocity=72 time=0
EXTRACT: note_on channel=0 note=62 velocity=72 time=0
EXTRACT: note_off channel=0 note=57 velocity=0 time=0.29126199999999997
EXTRACT: note_off channel=0 note=62 velocity=0 time=0
EXTRACT: note_on channel=0 note=50 velocity=69 time=0
EXTRACT: note_off channel=0 note=50 velocity=0 time=0.29126199999999997
EXTRACT: note_on channel=0 note=57 velocity=66 time=0
EXTRACT: note_on channel=0 note=62 velocity=66 time=0
EXTRACT: note_off channel=0 note=57 velocity=0 time=0.29126199999999997
EXTRACT: note_off channel=0 note=62 velocity=0 time=0
EXTRACT: note_on channel=0 note=50 velocity=62 time=0
EXTRACT: note_off channel=0 note=50 velocity=0 time=0.29126199999999997
EXTRACT: note_on channel=0 note=57 velocity=59 time=0
EXTRACT: note_on channel=0 note=62 velocity=59 time=0
EXTRACT: note_off channel=0 note=57 velocity=0 time=0.29126199999999997
EXTRACT: note_off channel=0 note=62 velocity=0 time=0
EXTRACT: note_on channel=0 note=45 velocity=56 time=0
EXTRACT: note_on channel=0 note=57 velocity=56 time=0
EXTRACT: note_off channel=0 note=62 velocity=0 time=0.5825239999999999
EXTRACT: note_off channel=0 note=45 velocity=0 time=0
EXTRACT: note_off channel=0 note=57 velocity=0 time=0
EXTRACT: note_on channel=0 note=62 velocity=49 time=0
EXTRACT: note_on channel=0 note=66 velocity=49 time=0
EXTRACT: note_on channel=0 note=50 velocity=49 time=0
EXTRACT: note_on channel=0 note=57 velocity=49 time=0
EXTRACT: note_off channel=0 note=62 velocity=0 time=2.3300959999999997
EXTRACT: note_off channel=0 note=66 velocity=0 time=0
EXTRACT: note_off channel=0 note=50 velocity=0 time=0
EXTRACT: note_off channel=0 note=57 velocity=0 time=0
14 - HeyThereDelilah.mid
INTERVALS14 - HeyThereDelilah.mid
unison13
2m9
2M17
3m184
3M141
4m184
4M1
5m185
5M27
6m14
7m63
7M2