EXTRACT: sysex data=(126,127,9,1) time=0.1339285
EXTRACT: sysex data=(65,16,66,18,64,0,127,0,65) time=0
EXTRACT: sysex data=(65,16,66,18,64,1,48,5,10) time=0.04464283333333333
EXTRACT: control_change channel=0 control=7 value=90 time=1.0267851666666667
EXTRACT: control_change channel=0 control=10 value=64 time=0.008928566666666667
EXTRACT: control_change channel=0 control=0 value=0 time=0
EXTRACT: control_change channel=0 control=32 value=0 time=0.0044642833333333335
EXTRACT: program_change channel=0 program=0 time=0.0044642833333333335
EXTRACT: control_change channel=0 control=91 value=43 time=0.008928566666666667
EXTRACT: control_change channel=0 control=93 value=0 time=0.008928566666666667
EXTRACT: control_change channel=1 control=7 value=108 time=0.008928566666666667
EXTRACT: control_change channel=1 control=10 value=64 time=0.008928566666666667
EXTRACT: control_change channel=1 control=0 value=0 time=0
EXTRACT: control_change channel=1 control=32 value=0 time=0.0044642833333333335
EXTRACT: program_change channel=1 program=35 time=0.0044642833333333335
EXTRACT: control_change channel=1 control=91 value=0 time=0.008928566666666667
EXTRACT: control_change channel=1 control=93 value=0 time=0.008928566666666667
EXTRACT: control_change channel=2 control=7 value=90 time=0.008928566666666667
EXTRACT: control_change channel=2 control=10 value=54 time=0.008928566666666667
EXTRACT: control_change channel=2 control=0 value=0 time=0
EXTRACT: control_change channel=2 control=32 value=0 time=0.0044642833333333335
EXTRACT: program_change channel=2 program=119 time=0.0044642833333333335
EXTRACT: control_change channel=2 control=91 value=36 time=0.008928566666666667
EXTRACT: control_change channel=2 control=93 value=30 time=0.008928566666666667
EXTRACT: control_change channel=2 control=74 value=25 time=0.0044642833333333335
EXTRACT: control_change channel=3 control=7 value=110 time=0.0044642833333333335
EXTRACT: control_change channel=3 control=10 value=64 time=0.008928566666666667
EXTRACT: control_change channel=3 control=0 value=0 time=0
EXTRACT: control_change channel=3 control=32 value=0 time=0.0044642833333333335
EXTRACT: program_change channel=3 program=73 time=0.0044642833333333335
EXTRACT: control_change channel=3 control=91 value=45 time=0.008928566666666667
EXTRACT: control_change channel=3 control=93 value=0 time=0.008928566666666667
EXTRACT: control_change channel=4 control=7 value=95 time=0.008928566666666667
EXTRACT: control_change channel=4 control=10 value=43 time=0.008928566666666667
EXTRACT: control_change channel=4 control=0 value=0 time=0
EXTRACT: control_change channel=4 control=32 value=0 time=0.0044642833333333335
EXTRACT: program_change channel=4 program=26 time=0.0044642833333333335
EXTRACT: control_change channel=4 control=91 value=34 time=0.008928566666666667
EXTRACT: control_change channel=4 control=93 value=0 time=0.008928566666666667
EXTRACT: control_change channel=5 control=7 value=105 time=0.008928566666666667
EXTRACT: control_change channel=5 control=10 value=74 time=0.008928566666666667
EXTRACT: control_change channel=5 control=0 value=0 time=0
EXTRACT: control_change channel=5 control=32 value=0 time=0.0044642833333333335
EXTRACT: program_change channel=5 program=40 time=0.0044642833333333335
EXTRACT: control_change channel=5 control=91 value=45 time=0.008928566666666667
EXTRACT: control_change channel=5 control=93 value=0 time=0.008928566666666667
EXTRACT: control_change channel=6 control=7 value=99 time=0.008928566666666667
EXTRACT: control_change channel=6 control=10 value=64 time=0.008928566666666667
EXTRACT: control_change channel=6 control=0 value=0 time=0
EXTRACT: control_change channel=6 control=32 value=0 time=0.0044642833333333335
EXTRACT: program_change channel=6 program=90 time=0.0044642833333333335
EXTRACT: control_change channel=6 control=65 value=127 time=0.0044642833333333335
EXTRACT: control_change channel=6 control=91 value=20 time=0.0044642833333333335
EXTRACT: control_change channel=6 control=5 value=73 time=0.0044642833333333335
EXTRACT: control_change channel=6 control=93 value=0 time=0.0044642833333333335
EXTRACT: control_change channel=6 control=74 value=40 time=0.0044642833333333335
EXTRACT: control_change channel=7 control=7 value=93 time=0.0044642833333333335
EXTRACT: control_change channel=7 control=10 value=90 time=0.008928566666666667
EXTRACT: control_change channel=7 control=0 value=3 time=0
EXTRACT: control_change channel=7 control=32 value=4 time=0.0044642833333333335
EXTRACT: program_change channel=7 program=122 time=0.0044642833333333335
EXTRACT: control_change channel=7 control=91 value=119 time=0.008928566666666667
EXTRACT: control_change channel=7 control=93 value=65 time=0.008928566666666667
EXTRACT: control_change channel=9 control=7 value=114 time=0.053571400000000005
EXTRACT: control_change channel=9 control=10 value=64 time=0.008928566666666667
EXTRACT: control_change channel=9 control=0 value=0 time=0
EXTRACT: control_change channel=9 control=32 value=0 time=0.0044642833333333335
EXTRACT: program_change channel=9 program=0 time=0.0044642833333333335
EXTRACT: control_change channel=9 control=91 value=96 time=0.008928566666666667
EXTRACT: control_change channel=9 control=93 value=0 time=0.008928566666666667
EXTRACT: control_change channel=15 control=121 value=0 time=0.23214273333333335
EXTRACT: pitchwheel channel=15 pitch=0 time=0.008928566666666667
EXTRACT: control_change channel=15 control=11 value=127 time=0.008928566666666667
EXTRACT: control_change channel=15 control=91 value=0 time=0.008928566666666667
EXTRACT: control_change channel=15 control=93 value=0 time=0.008928566666666667
EXTRACT: program_change channel=15 program=0 time=0.008928566666666667
EXTRACT: control_change channel=15 control=94 value=0 time=0.008928566666666667
EXTRACT: note_on channel=9 note=42 velocity=84 time=0.21428560000000002
EXTRACT: note_on channel=9 note=42 velocity=0 time=0.06696425
EXTRACT: note_on channel=9 note=42 velocity=64 time=0.46874975
EXTRACT: note_on channel=9 note=42 velocity=0 time=0.09821423333333333
EXTRACT: note_on channel=9 note=42 velocity=64 time=0.4374997666666667
EXTRACT: note_on channel=9 note=42 velocity=0 time=0.08482138333333333
EXTRACT: note_on channel=9 note=42 velocity=64 time=0.4508926166666667
EXTRACT: note_on channel=9 note=42 velocity=0 time=0.053571400000000005
EXTRACT: note_on channel=0 note=60 velocity=88 time=0.48214260000000003
EXTRACT: note_on channel=0 note=64 velocity=86 time=0
EXTRACT: note_on channel=0 note=48 velocity=70 time=0
EXTRACT: note_on channel=0 note=55 velocity=73 time=0
EXTRACT: control_change channel=0 control=64 value=127 time=0.2589284333333333
EXTRACT: note_on channel=0 note=64 velocity=0 time=0.11607136666666668
EXTRACT: note_on channel=0 note=55 velocity=0 time=0.013392850000000001
EXTRACT: note_on channel=0 note=60 velocity=0 time=0.0044642833333333335
EXTRACT: note_on channel=0 note=55 velocity=62 time=0.14285706666666667
EXTRACT: note_on channel=0 note=64 velocity=73 time=0
EXTRACT: note_on channel=0 note=60 velocity=70 time=0
EXTRACT: note_on channel=0 note=64 velocity=0 time=0.1339285
EXTRACT: note_on channel=0 note=60 velocity=0 time=0.013392850000000001
EXTRACT: note_on channel=0 note=55 velocity=0 time=0.013392850000000001
EXTRACT: note_on channel=0 note=55 velocity=79 time=0.3749998
EXTRACT: note_on channel=0 note=64 velocity=88 time=0
EXTRACT: note_on channel=0 note=60 velocity=84 time=0
EXTRACT: note_on channel=0 note=60 velocity=0 time=0.14732135000000002
EXTRACT: note_on channel=0 note=64 velocity=0 time=0.017857133333333334
EXTRACT: note_on channel=0 note=55 velocity=0 time=0.013392850000000001
EXTRACT: note_on channel=0 note=48 velocity=0 time=0.11607136666666668
EXTRACT: control_change channel=0 control=64 value=0 time=0.23214273333333335
EXTRACT: note_on channel=0 note=50 velocity=70 time=0.008928566666666667
EXTRACT: note_on channel=0 note=65 velocity=88 time=0
EXTRACT: note_on channel=0 note=62 velocity=84 time=0
EXTRACT: note_on channel=0 note=57 velocity=73 time=0
EXTRACT: control_change channel=0 control=64 value=127 time=0.18303561666666668
EXTRACT: note_on channel=0 note=65 velocity=0 time=0.11607136666666668
EXTRACT: note_on channel=0 note=62 velocity=0 time=0.013392850000000001
EXTRACT: note_on channel=0 note=57 velocity=0 time=0.0044642833333333335
EXTRACT: note_on channel=0 note=50 velocity=0 time=0.06249996666666667
EXTRACT: note_on channel=0 note=45 velocity=70 time=0.15624991666666668
EXTRACT: note_on channel=0 note=57 velocity=69 time=0
EXTRACT: note_on channel=0 note=64 velocity=75 time=0
EXTRACT: control_change channel=0 control=64 value=0 time=0
EXTRACT: note_on channel=0 note=60 velocity=88 time=0
EXTRACT: control_change channel=0 control=64 value=127 time=0.25446415
EXTRACT: note_on channel=0 note=64 velocity=0 time=0.10267851666666666
EXTRACT: note_on channel=0 note=57 velocity=0 time=0.008928566666666667
EXTRACT: note_on channel=0 note=60 velocity=0 time=0.0044642833333333335
EXTRACT: note_on channel=0 note=64 velocity=68 time=0.16517848333333335
EXTRACT: note_on channel=0 note=57 velocity=65 time=0
EXTRACT: note_on channel=0 note=60 velocity=82 time=0
EXTRACT: note_on channel=0 note=64 velocity=0 time=0.11160708333333334
EXTRACT: note_on channel=0 note=60 velocity=0 time=0.008928566666666667
EXTRACT: note_on channel=0 note=57 velocity=0 time=0.013392850000000001
EXTRACT: note_on channel=0 note=57 velocity=66 time=0.4017855
EXTRACT: note_on channel=0 note=64 velocity=71 time=0
EXTRACT: note_on channel=0 note=60 velocity=74 time=0
EXTRACT: note_on channel=0 note=64 velocity=0 time=0.13839278333333332
EXTRACT: note_on channel=0 note=60 velocity=0 time=0.008928566666666667
EXTRACT: note_on channel=0 note=57 velocity=0 time=0.013392850000000001
EXTRACT: control_change channel=0 control=64 value=0 time=0.3482141
EXTRACT: note_on channel=0 note=64 velocity=71 time=0.026785700000000003
EXTRACT: note_on channel=0 note=60 velocity=82 time=0
EXTRACT: note_on channel=0 note=55 velocity=73 time=0
EXTRACT: control_change channel=0 control=64 value=127 time=0.16517848333333335
EXTRACT: note_on channel=0 note=60 velocity=0 time=0.14732135000000002
EXTRACT: note_on channel=0 note=64 velocity=0 time=0
EXTRACT: note_on channel=0 note=55 velocity=0 time=0.017857133333333334
EXTRACT: note_on channel=0 note=45 velocity=0 time=0.20089275
EXTRACT: note_on channel=0 note=57 velocity=69 time=0.0044642833333333335
EXTRACT: note_on channel=0 note=60 velocity=88 time=0
EXTRACT: note_on channel=0 note=64 velocity=75 time=0
EXTRACT: note_on channel=0 note=45 velocity=70 time=0
EXTRACT: control_change channel=0 control=64 value=0 time=0.017857133333333334
EXTRACT: control_change channel=0 control=64 value=127 time=0.25446415
EXTRACT: note_on channel=0 note=64 velocity=0 time=0.08482138333333333
EXTRACT: note_on channel=0 note=57 velocity=0 time=0.008928566666666667
EXTRACT: note_on channel=0 note=60 velocity=0 time=0.0044642833333333335
EXTRACT: note_on channel=0 note=64 velocity=68 time=0.16517848333333335
EXTRACT: note_on channel=0 note=60 velocity=82 time=0
EXTRACT: note_on channel=0 note=57 velocity=65 time=0
EXTRACT: note_on channel=0 note=64 velocity=0 time=0.11160708333333334
EXTRACT: note_on channel=0 note=60 velocity=0 time=0.008928566666666667
EXTRACT: note_on channel=0 note=57 velocity=0 time=0.013392850000000001
EXTRACT: note_on channel=0 note=64 velocity=71 time=0.4017855
EXTRACT: note_on channel=0 note=60 velocity=74 time=0
EXTRACT: note_on channel=0 note=57 velocity=66 time=0
EXTRACT: note_on channel=0 note=64 velocity=0 time=0.13839278333333332
EXTRACT: note_on channel=0 note=60 velocity=0 time=0.008928566666666667
EXTRACT: note_on channel=0 note=57 velocity=0 time=0.013392850000000001
EXTRACT: note_on channel=0 note=64 velocity=71 time=0.3749998
EXTRACT: note_on channel=0 note=60 velocity=82 time=0
EXTRACT: note_on channel=0 note=55 velocity=73 time=0
EXTRACT: control_change channel=0 control=64 value=0 time=0.40624978333333334
EXTRACT: note_on channel=0 note=64 velocity=0 time=0.10714280000000001
EXTRACT: note_on channel=0 note=60 velocity=0 time=0.0044642833333333335
EXTRACT: note_on channel=0 note=45 velocity=0 time=0.013392850000000001
EXTRACT: note_on channel=0 note=55 velocity=0 time=0
EXTRACT: note_on channel=0 note=60 velocity=88 time=0.0044642833333333335
EXTRACT: note_on channel=0 note=64 velocity=75 time=0
EXTRACT: note_on channel=0 note=45 velocity=70 time=0
EXTRACT: note_on channel=0 note=57 velocity=69 time=0
EXTRACT: control_change channel=0 control=64 value=127 time=0.20089275
EXTRACT: note_on channel=0 note=64 velocity=0 time=0.15624991666666668
EXTRACT: note_on channel=0 note=57 velocity=0 time=0.008928566666666667
EXTRACT: note_on channel=0 note=60 velocity=0 time=0.0044642833333333335
EXTRACT: note_on channel=0 note=64 velocity=68 time=0.16517848333333335
EXTRACT: note_on channel=0 note=60 velocity=82 time=0
EXTRACT: note_on channel=0 note=57 velocity=65 time=0
EXTRACT: note_on channel=0 note=64 velocity=0 time=0.11160708333333334
EXTRACT: note_on channel=0 note=60 velocity=0 time=0.008928566666666667
EXTRACT: note_on channel=0 note=57 velocity=0 time=0.013392850000000001
EXTRACT: note_on channel=0 note=64 velocity=71 time=0.4017855
EXTRACT: note_on channel=0 note=60 velocity=74 time=0
EXTRACT: note_on channel=0 note=57 velocity=66 time=0
EXTRACT: note_on channel=0 note=64 velocity=0 time=0.13839278333333332
EXTRACT: note_on channel=0 note=60 velocity=0 time=0.008928566666666667
EXTRACT: note_on channel=0 note=57 velocity=0 time=0.013392850000000001
EXTRACT: note_on channel=0 note=64 velocity=71 time=0.3749998
EXTRACT: note_on channel=0 note=60 velocity=82 time=0
EXTRACT: note_on channel=0 note=55 velocity=73 time=0
EXTRACT: control_change channel=0 control=64 value=0 time=0.0044642833333333335
EXTRACT: note_on channel=0 note=64 velocity=0 time=0.5089283
EXTRACT: note_on channel=0 note=60 velocity=0 time=0.0044642833333333335
EXTRACT: note_on channel=0 note=45 velocity=0 time=0.013392850000000001
EXTRACT: note_on channel=0 note=55 velocity=0 time=0
EXTRACT: note_on channel=0 note=60 velocity=88 time=0.0044642833333333335
EXTRACT: note_on channel=0 note=64 velocity=86 time=0
EXTRACT: note_on channel=0 note=48 velocity=70 time=0
EXTRACT: note_on channel=0 note=55 velocity=73 time=0
EXTRACT: control_change channel=0 control=64 value=127 time=0.2589284333333333
EXTRACT: note_on channel=0 note=64 velocity=0 time=0.11607136666666668
EXTRACT: note_on channel=0 note=55 velocity=0 time=0.013392850000000001
EXTRACT: note_on channel=0 note=60 velocity=0 time=0.0044642833333333335
EXTRACT: note_on channel=0 note=55 velocity=62 time=0.14285706666666667
EXTRACT: note_on channel=0 note=64 velocity=73 time=0
EXTRACT: note_on channel=0 note=60 velocity=70 time=0
EXTRACT: note_on channel=0 note=64 velocity=0 time=0.1339285
EXTRACT: note_on channel=0 note=60 velocity=0 time=0.013392850000000001
EXTRACT: note_on channel=0 note=55 velocity=0 time=0.013392850000000001
EXTRACT: note_on channel=0 note=55 velocity=79 time=0.3749998
EXTRACT: note_on channel=0 note=64 velocity=88 time=0
EXTRACT: note_on channel=0 note=60 velocity=84 time=0
EXTRACT: note_on channel=0 note=60 velocity=0 time=0.14732135000000002
EXTRACT: note_on channel=0 note=64 velocity=0 time=0.017857133333333334
EXTRACT: note_on channel=0 note=55 velocity=0 time=0.013392850000000001
EXTRACT: note_on channel=0 note=48 velocity=0 time=0.11607136666666668
EXTRACT: control_change channel=0 control=64 value=0 time=0.23214273333333335
EXTRACT: note_on channel=0 note=62 velocity=84 time=0.008928566666666667
EXTRACT: note_on channel=0 note=65 velocity=88 time=0
EXTRACT: note_on channel=0 note=57 velocity=73 time=0
EXTRACT: note_on channel=0 note=50 velocity=70 time=0
EXTRACT: control_change channel=0 control=64 value=127 time=0.18303561666666668
EXTRACT: note_on channel=0 note=65 velocity=0 time=0.11607136666666668
EXTRACT: note_on channel=0 note=62 velocity=0 time=0.013392850000000001
EXTRACT: note_on channel=0 note=57 velocity=0 time=0.0044642833333333335
EXTRACT: note_on channel=0 note=50 velocity=0 time=0.06249996666666667
EXTRACT: note_on channel=0 note=57 velocity=69 time=0.15624991666666668
EXTRACT: note_on channel=0 note=60 velocity=88 time=0
EXTRACT: control_change channel=0 control=64 value=0 time=0
EXTRACT: note_on channel=0 note=64 velocity=75 time=0
EXTRACT: note_on channel=0 note=45 velocity=70 time=0
EXTRACT: control_change channel=0 control=64 value=127 time=0.25446415
EXTRACT: note_on channel=0 note=64 velocity=0 time=0.10267851666666666
EXTRACT: note_on channel=0 note=57 velocity=0 time=0.008928566666666667
EXTRACT: note_on channel=0 note=60 velocity=0 time=0.0044642833333333335
EXTRACT: note_on channel=0 note=64 velocity=68 time=0.16517848333333335
EXTRACT: note_on channel=0 note=60 velocity=82 time=0
EXTRACT: note_on channel=0 note=57 velocity=65 time=0
EXTRACT: note_on channel=0 note=64 velocity=0 time=0.11160708333333334
EXTRACT: note_on channel=0 note=60 velocity=0 time=0.008928566666666667
EXTRACT: note_on channel=0 note=57 velocity=0 time=0.013392850000000001
EXTRACT: note_on channel=0 note=64 velocity=71 time=0.4017855
EXTRACT: note_on channel=0 note=60 velocity=74 time=0
EXTRACT: note_on channel=0 note=57 velocity=66 time=0
EXTRACT: note_on channel=0 note=64 velocity=0 time=0.13839278333333332
EXTRACT: note_on channel=0 note=60 velocity=0 time=0.008928566666666667
EXTRACT: note_on channel=0 note=57 velocity=0 time=0.013392850000000001
EXTRACT: control_change channel=0 control=64 value=0 time=0.3482141
EXTRACT: note_on channel=0 note=64 velocity=71 time=0.026785700000000003
EXTRACT: note_on channel=0 note=60 velocity=82 time=0
EXTRACT: note_on channel=0 note=55 velocity=73 time=0
EXTRACT: control_change channel=0 control=64 value=127 time=0.16517848333333335
EXTRACT: note_on channel=0 note=60 velocity=0 time=0.14732135000000002
EXTRACT: note_on channel=0 note=64 velocity=0 time=0
EXTRACT: note_on channel=0 note=55 velocity=0 time=0.017857133333333334
EXTRACT: note_on channel=0 note=45 velocity=0 time=0.20089275
EXTRACT: note_on channel=0 note=57 velocity=69 time=0.0044642833333333335
EXTRACT: note_on channel=0 note=60 velocity=88 time=0
EXTRACT: note_on channel=0 note=45 velocity=70 time=0
EXTRACT: note_on channel=0 note=64 velocity=75 time=0
EXTRACT: control_change channel=0 control=64 value=0 time=0.017857133333333334
EXTRACT: control_change channel=0 control=64 value=127 time=0.25446415
EXTRACT: note_on channel=0 note=64 velocity=0 time=0.08482138333333333
EXTRACT: note_on channel=0 note=57 velocity=0 time=0.008928566666666667
EXTRACT: note_on channel=0 note=60 velocity=0 time=0.0044642833333333335
EXTRACT: note_on channel=0 note=64 velocity=68 time=0.16517848333333335
EXTRACT: note_on channel=0 note=57 velocity=65 time=0
EXTRACT: note_on channel=0 note=60 velocity=82 time=0
EXTRACT: note_on channel=0 note=64 velocity=0 time=0.11160708333333334
EXTRACT: note_on channel=0 note=60 velocity=0 time=0.008928566666666667
EXTRACT: note_on channel=0 note=57 velocity=0 time=0.013392850000000001
EXTRACT: note_on channel=0 note=60 velocity=74 time=0.4017855
EXTRACT: note_on channel=0 note=64 velocity=71 time=0
EXTRACT: note_on channel=0 note=57 velocity=66 time=0
EXTRACT: note_on channel=0 note=64 velocity=0 time=0.13839278333333332
EXTRACT: note_on channel=0 note=60 velocity=0 time=0.008928566666666667
EXTRACT: note_on channel=0 note=57 velocity=0 time=0.013392850000000001
EXTRACT: note_on channel=0 note=60 velocity=82 time=0.3749998
EXTRACT: note_on channel=0 note=64 velocity=71 time=0
EXTRACT: note_on channel=0 note=55 velocity=73 time=0
EXTRACT: control_change channel=0 control=64 value=0 time=0.40624978333333334
EXTRACT: note_on channel=0 note=64 velocity=0 time=0.10714280000000001
EXTRACT: note_on channel=0 note=60 velocity=0 time=0.0044642833333333335
EXTRACT: note_on channel=0 note=45 velocity=0 time=0.013392850000000001
EXTRACT: note_on channel=0 note=55 velocity=0 time=0
EXTRACT: note_on channel=0 note=45 velocity=70 time=0.0044642833333333335
EXTRACT: note_on channel=0 note=64 velocity=75 time=0
EXTRACT: note_on channel=0 note=60 velocity=88 time=0
EXTRACT: note_on channel=0 note=57 velocity=69 time=0
EXTRACT: control_change channel=0 control=64 value=127 time=0.20089275
EXTRACT: note_on channel=0 note=64 velocity=0 time=0.15624991666666668
EXTRACT: note_on channel=0 note=57 velocity=0 time=0.008928566666666667
EXTRACT: note_on channel=0 note=60 velocity=0 time=0.0044642833333333335
EXTRACT: note_on channel=0 note=64 velocity=68 time=0.16517848333333335
EXTRACT: note_on channel=0 note=57 velocity=65 time=0
EXTRACT: note_on channel=0 note=60 velocity=82 time=0
EXTRACT: note_on channel=0 note=64 velocity=0 time=0.11160708333333334
EXTRACT: note_on channel=0 note=60 velocity=0 time=0.008928566666666667
EXTRACT: note_on channel=0 note=57 velocity=0 time=0.013392850000000001
EXTRACT: note_on channel=0 note=64 velocity=71 time=0.4017855
EXTRACT: note_on channel=0 note=60 velocity=74 time=0
EXTRACT: note_on channel=0 note=57 velocity=66 time=0
EXTRACT: note_on channel=0 note=64 velocity=0 time=0.13839278333333332
EXTRACT: note_on channel=0 note=60 velocity=0 time=0.008928566666666667
EXTRACT: note_on channel=0 note=57 velocity=0 time=0.013392850000000001
EXTRACT: note_on channel=0 note=64 velocity=71 time=0.3749998
EXTRACT: note_on channel=0 note=60 velocity=82 time=0
EXTRACT: note_on channel=0 note=55 velocity=73 time=0
EXTRACT: control_change channel=0 control=64 value=0 time=0.0044642833333333335
EXTRACT: note_on channel=0 note=64 velocity=0 time=0.5089283
EXTRACT: note_on channel=0 note=60 velocity=0 time=0.0044642833333333335
EXTRACT: note_on channel=0 note=45 velocity=0 time=0.013392850000000001
EXTRACT: note_on channel=0 note=55 velocity=0 time=0
EXTRACT: note_on channel=0 note=55 velocity=73 time=0.0044642833333333335
EXTRACT: note_on channel=0 note=60 velocity=88 time=0
EXTRACT: note_on channel=0 note=64 velocity=86 time=0
EXTRACT: note_on channel=0 note=48 velocity=70 time=0
EXTRACT: control_change channel=0 control=64 value=127 time=0.2589284333333333
EXTRACT: note_on channel=3 note=64 velocity=111 time=0.008928566666666667
EXTRACT: note_on channel=0 note=64 velocity=0 time=0.10714280000000001
EXTRACT: note_on channel=0 note=55 velocity=0 time=0.013392850000000001
EXTRACT: note_on channel=0 note=60 velocity=0 time=0.0044642833333333335
EXTRACT: note_on channel=3 note=64 velocity=0 time=0.09821423333333333
EXTRACT: note_on channel=0 note=60 velocity=70 time=0.04464283333333333
EXTRACT: note_on channel=0 note=64 velocity=73 time=0
EXTRACT: note_on channel=0 note=55 velocity=62 time=0
EXTRACT: note_on channel=3 note=67 velocity=95 time=0
EXTRACT: note_on channel=0 note=64 velocity=0 time=0.1339285
EXTRACT: note_on channel=3 note=67 velocity=0 time=0.008928566666666667
EXTRACT: note_on channel=0 note=60 velocity=0 time=0.0044642833333333335
EXTRACT: note_on channel=0 note=55 velocity=0 time=0.013392850000000001
EXTRACT: note_on channel=3 note=67 velocity=111 time=0.10714280000000001
EXTRACT: note_on channel=0 note=60 velocity=84 time=0.267857
EXTRACT: note_on channel=0 note=64 velocity=88 time=0
EXTRACT: note_on channel=0 note=55 velocity=79 time=0
EXTRACT: note_on channel=0 note=60 velocity=0 time=0.14732135000000002
EXTRACT: note_on channel=0 note=64 velocity=0 time=0.017857133333333334
EXTRACT: note_on channel=0 note=55 velocity=0 time=0.013392850000000001
EXTRACT: note_on channel=3 note=67 velocity=0 time=0.07589281666666667
EXTRACT: note_on channel=3 note=64 velocity=111 time=0.013392850000000001
EXTRACT: note_on channel=0 note=48 velocity=0 time=0.026785700000000003
EXTRACT: note_on channel=3 note=64 velocity=0 time=0.17410705
EXTRACT: control_change channel=0 control=64 value=0 time=0.05803568333333334
EXTRACT: note_on channel=0 note=50 velocity=70 time=0.008928566666666667
EXTRACT: note_on channel=0 note=65 velocity=88 time=0
EXTRACT: note_on channel=0 note=62 velocity=84 time=0
EXTRACT: note_on channel=0 note=57 velocity=73 time=0
EXTRACT: note_on channel=3 note=62 velocity=102 time=0
EXTRACT: note_on channel=3 note=62 velocity=0 time=0.17857133333333333
EXTRACT: control_change channel=0 control=64 value=127 time=0.0044642833333333335
EXTRACT: note_on channel=3 note=60 velocity=102 time=0.08482138333333333
EXTRACT: note_on channel=0 note=65 velocity=0 time=0.031249983333333335
EXTRACT: note_on channel=0 note=62 velocity=0 time=0.013392850000000001
EXTRACT: note_on channel=0 note=57 velocity=0 time=0.0044642833333333335
EXTRACT: note_on channel=0 note=50 velocity=0 time=0.06249996666666667
EXTRACT: note_on channel=3 note=60 velocity=0 time=0.06696425
EXTRACT: note_on channel=0 note=57 velocity=69 time=0.08928566666666667
EXTRACT: note_on channel=0 note=60 velocity=88 time=0
EXTRACT: note_on channel=0 note=64 velocity=75 time=0
EXTRACT: control_change channel=0 control=64 value=0 time=0
EXTRACT: note_on channel=0 note=45 velocity=70 time=0
EXTRACT: note_on channel=3 note=62 velocity=102 time=0
EXTRACT: control_change channel=0 control=64 value=127 time=0.25446415
EXTRACT: note_on channel=0 note=64 velocity=0 time=0.10267851666666666
EXTRACT: note_on channel=0 note=57 velocity=0 time=0.008928566666666667
EXTRACT: note_on channel=0 note=60 velocity=0 time=0.0044642833333333335
EXTRACT: note_on channel=3 note=62 velocity=0 time=0.08482138333333333
EXTRACT: note_on channel=0 note=64 velocity=68 time=0.0803571
EXTRACT: note_on channel=0 note=60 velocity=82 time=0
EXTRACT: note_on channel=0 note=57 velocity=65 time=0
EXTRACT: note_on channel=3 note=57 velocity=99 time=0
EXTRACT: note_on channel=0 note=64 velocity=0 time=0.11160708333333334
EXTRACT: note_on channel=0 note=60 velocity=0 time=0.008928566666666667
EXTRACT: note_on channel=0 note=57 velocity=0 time=0.013392850000000001
EXTRACT: note_on channel=0 note=64 velocity=71 time=0.4017855
EXTRACT: note_on channel=0 note=60 velocity=74 time=0
EXTRACT: note_on channel=0 note=57 velocity=66 time=0
EXTRACT: note_on channel=0 note=64 velocity=0 time=0.13839278333333332
EXTRACT: note_on channel=0 note=60 velocity=0 time=0.008928566666666667
EXTRACT: note_on channel=0 note=57 velocity=0 time=0.013392850000000001
EXTRACT: note_on channel=3 note=57 velocity=0 time=0.27678556666666665
EXTRACT: control_change channel=0 control=64 value=0 time=0.07142853333333334
EXTRACT: note_on channel=0 note=64 velocity=71 time=0.026785700000000003
EXTRACT: note_on channel=0 note=55 velocity=73 time=0
EXTRACT: note_on channel=0 note=60 velocity=82 time=0
EXTRACT: control_change channel=0 control=64 value=127 time=0.16517848333333335
EXTRACT: note_on channel=0 note=60 velocity=0 time=0.14732135000000002
EXTRACT: note_on channel=0 note=64 velocity=0 time=0
EXTRACT: note_on channel=0 note=55 velocity=0 time=0.017857133333333334
EXTRACT: note_on channel=0 note=45 velocity=0 time=0.20089275
EXTRACT: note_on channel=0 note=45 velocity=70 time=0.0044642833333333335
EXTRACT: note_on channel=0 note=64 velocity=75 time=0
EXTRACT: note_on channel=0 note=60 velocity=88 time=0
EXTRACT: note_on channel=0 note=57 velocity=69 time=0
EXTRACT: control_change channel=0 control=64 value=0 time=0.017857133333333334
EXTRACT: control_change channel=0 control=64 value=127 time=0.25446415
EXTRACT: note_on channel=0 note=64 velocity=0 time=0.08482138333333333
EXTRACT: note_on channel=0 note=57 velocity=0 time=0.008928566666666667
EXTRACT: note_on channel=0 note=60 velocity=0 time=0.0044642833333333335
EXTRACT: note_on channel=0 note=57 velocity=65 time=0.16517848333333335
EXTRACT: note_on channel=0 note=64 velocity=68 time=0
EXTRACT: note_on channel=0 note=60 velocity=82 time=0
EXTRACT: note_on channel=0 note=64 velocity=0 time=0.11160708333333334
EXTRACT: note_on channel=0 note=60 velocity=0 time=0.008928566666666667
EXTRACT: note_on channel=0 note=57 velocity=0 time=0.013392850000000001
EXTRACT: note_on channel=0 note=57 velocity=66 time=0.4017855
EXTRACT: note_on channel=0 note=64 velocity=71 time=0
EXTRACT: note_on channel=0 note=60 velocity=74 time=0
EXTRACT: note_on channel=0 note=64 velocity=0 time=0.13839278333333332
EXTRACT: note_on channel=0 note=60 velocity=0 time=0.008928566666666667
EXTRACT: note_on channel=0 note=57 velocity=0 time=0.013392850000000001
EXTRACT: note_on channel=0 note=60 velocity=82 time=0.3749998
EXTRACT: note_on channel=0 note=64 velocity=71 time=0
EXTRACT: note_on channel=0 note=55 velocity=73 time=0
EXTRACT: control_change channel=0 control=64 value=0 time=0.40624978333333334
EXTRACT: note_on channel=0 note=64 velocity=0 time=0.10714280000000001
EXTRACT: note_on channel=0 note=60 velocity=0 time=0.0044642833333333335
EXTRACT: note_on channel=0 note=45 velocity=0 time=0.013392850000000001
EXTRACT: note_on channel=0 note=55 velocity=0 time=0
EXTRACT: note_on channel=0 note=45 velocity=70 time=0.0044642833333333335
EXTRACT: note_on channel=0 note=64 velocity=75 time=0
EXTRACT: note_on channel=0 note=60 velocity=88 time=0
EXTRACT: note_on channel=0 note=57 velocity=69 time=0
EXTRACT: control_change channel=0 control=64 value=127 time=0.20089275
EXTRACT: note_on channel=0 note=64 velocity=0 time=0.15624991666666668
EXTRACT: note_on channel=0 note=57 velocity=0 time=0.008928566666666667
EXTRACT: note_on channel=0 note=60 velocity=0 time=0.0044642833333333335
EXTRACT: note_on channel=0 note=60 velocity=82 time=0.16517848333333335
EXTRACT: note_on channel=0 note=64 velocity=68 time=0
EXTRACT: note_on channel=0 note=57 velocity=65 time=0
EXTRACT: note_on channel=0 note=64 velocity=0 time=0.11160708333333334
EXTRACT: note_on channel=0 note=60 velocity=0 time=0.008928566666666667
EXTRACT: note_on channel=0 note=57 velocity=0 time=0.013392850000000001
EXTRACT: note_on channel=0 note=64 velocity=71 time=0.4017855
EXTRACT: note_on channel=0 note=57 velocity=66 time=0
EXTRACT: note_on channel=0 note=60 velocity=74 time=0
EXTRACT: note_on channel=0 note=64 velocity=0 time=0.13839278333333332
EXTRACT: note_on channel=0 note=60 velocity=0 time=0.008928566666666667
EXTRACT: note_on channel=0 note=57 velocity=0 time=0.013392850000000001
EXTRACT: note_on channel=0 note=55 velocity=73 time=0.3749998
EXTRACT: note_on channel=0 note=64 velocity=71 time=0
EXTRACT: note_on channel=0 note=60 velocity=82 time=0
EXTRACT: note_on channel=3 note=57 velocity=94 time=0
EXTRACT: control_change channel=0 control=64 value=0 time=0.0044642833333333335
EXTRACT: note_on channel=3 note=57 velocity=0 time=0.12499993333333334
EXTRACT: note_on channel=3 note=64 velocity=117 time=0.13839278333333332
EXTRACT: note_on channel=0 note=64 velocity=0 time=0.24553558333333333
EXTRACT: note_on channel=0 note=60 velocity=0 time=0.0044642833333333335
EXTRACT: note_on channel=0 note=45 velocity=0 time=0.013392850000000001
EXTRACT: note_on channel=0 note=55 velocity=0 time=0
EXTRACT: note_on channel=3 note=64 velocity=0 time=0.0044642833333333335
EXTRACT: note_on channel=0 note=60 velocity=88 time=0
EXTRACT: note_on channel=0 note=64 velocity=86 time=0
EXTRACT: note_on channel=0 note=55 velocity=73 time=0
EXTRACT: note_on channel=0 note=48 velocity=70 time=0
EXTRACT: control_change channel=0 control=64 value=127 time=0.2589284333333333
EXTRACT: note_on channel=3 note=64 velocity=93 time=0.008928566666666667
EXTRACT: note_on channel=0 note=64 velocity=0 time=0.10714280000000001
EXTRACT: note_on channel=0 note=55 velocity=0 time=0.013392850000000001
EXTRACT: note_on channel=0 note=60 velocity=0 time=0.0044642833333333335
EXTRACT: note_on channel=0 note=55 velocity=62 time=0.14285706666666667
EXTRACT: note_on channel=0 note=64 velocity=73 time=0
EXTRACT: note_on channel=0 note=60 velocity=70 time=0
EXTRACT: note_on channel=3 note=64 velocity=0 time=0.03571426666666667
EXTRACT: note_on channel=0 note=64 velocity=0 time=0.09821423333333333
EXTRACT: note_on channel=0 note=60 velocity=0 time=0.013392850000000001
EXTRACT: note_on channel=0 note=55 velocity=0 time=0.013392850000000001
EXTRACT: note_on channel=3 note=64 velocity=102 time=0.10714280000000001
EXTRACT: note_on channel=0 note=60 velocity=84 time=0.267857
EXTRACT: note_on channel=0 note=64 velocity=88 time=0
EXTRACT: note_on channel=0 note=55 velocity=79 time=0
EXTRACT: note_on channel=3 note=64 velocity=0 time=0.0803571
EXTRACT: note_on channel=0 note=60 velocity=0 time=0.06696425
EXTRACT: note_on channel=0 note=64 velocity=0 time=0.017857133333333334
EXTRACT: note_on channel=0 note=55 velocity=0 time=0.013392850000000001
EXTRACT: note_on channel=3 note=64 velocity=102 time=0.08928566666666667
EXTRACT: note_on channel=0 note=48 velocity=0 time=0.026785700000000003
EXTRACT: note_on channel=3 note=64 velocity=0 time=0.20089275
EXTRACT: control_change channel=0 control=64 value=0 time=0.031249983333333335
EXTRACT: note_on channel=0 note=50 velocity=70 time=0.008928566666666667
EXTRACT: note_on channel=0 note=65 velocity=88 time=0
EXTRACT: note_on channel=0 note=62 velocity=84 time=0
EXTRACT: note_on channel=0 note=57 velocity=73 time=0
EXTRACT: note_on channel=3 note=62 velocity=92 time=0
EXTRACT: control_change channel=0 control=64 value=127 time=0.18303561666666668
EXTRACT: note_on channel=3 note=62 velocity=0 time=0.026785700000000003
EXTRACT: note_on channel=3 note=60 velocity=95 time=0.05803568333333334
EXTRACT: note_on channel=0 note=65 velocity=0 time=0.031249983333333335
EXTRACT: note_on channel=0 note=62 velocity=0 time=0.013392850000000001
EXTRACT: note_on channel=0 note=57 velocity=0 time=0.0044642833333333335
EXTRACT: note_on channel=3 note=60 velocity=0 time=0.04017855
EXTRACT: note_on channel=0 note=50 velocity=0 time=0.022321416666666666
EXTRACT: note_on channel=0 note=45 velocity=70 time=0.15624991666666668
EXTRACT: note_on channel=0 note=57 velocity=69 time=0
EXTRACT: note_on channel=0 note=64 velocity=75 time=0
EXTRACT: note_on channel=0 note=60 velocity=88 time=0
EXTRACT: control_change channel=0 control=64 value=0 time=0
EXTRACT: note_on channel=3 note=62 velocity=117 time=0
EXTRACT: control_change channel=0 control=64 value=127 time=0.25446415
EXTRACT: note_on channel=0 note=64 velocity=0 time=0.10267851666666666
EXTRACT: note_on channel=0 note=57 velocity=0 time=0.008928566666666667
EXTRACT: note_on channel=0 note=60 velocity=0 time=0.0044642833333333335
EXTRACT: note_on channel=3 note=62 velocity=0 time=0.11607136666666668
EXTRACT: note_on channel=0 note=60 velocity=82 time=0.049107116666666666
EXTRACT: note_on channel=0 note=64 velocity=68 time=0
EXTRACT: note_on channel=0 note=57 velocity=65 time=0
EXTRACT: note_on channel=3 note=57 velocity=117 time=0
EXTRACT: note_on channel=0 note=64 velocity=0 time=0.11160708333333334
EXTRACT: note_on channel=0 note=60 velocity=0 time=0.008928566666666667
EXTRACT: note_on channel=0 note=57 velocity=0 time=0.013392850000000001
EXTRACT: note_on channel=0 note=60 velocity=74 time=0.4017855
EXTRACT: note_on channel=0 note=64 velocity=71 time=0
EXTRACT: note_on channel=0 note=57 velocity=66 time=0
EXTRACT: note_on channel=0 note=64 velocity=0 time=0.13839278333333332
EXTRACT: note_on channel=0 note=60 velocity=0 time=0.008928566666666667
EXTRACT: note_on channel=0 note=57 velocity=0 time=0.013392850000000001
EXTRACT: control_change channel=0 control=64 value=0 time=0.3482141
EXTRACT: note_on channel=3 note=57 velocity=0 time=0.022321416666666666
EXTRACT: note_on channel=0 note=55 velocity=73 time=0.0044642833333333335
EXTRACT: note_on channel=0 note=64 velocity=71 time=0
EXTRACT: note_on channel=0 note=60 velocity=82 time=0
EXTRACT: control_change channel=0 control=64 value=127 time=0.16517848333333335
EXTRACT: note_on channel=0 note=60 velocity=0 time=0.14732135000000002
EXTRACT: note_on channel=0 note=64 velocity=0 time=0
EXTRACT: note_on channel=0 note=55 velocity=0 time=0.017857133333333334
EXTRACT: note_on channel=0 note=45 velocity=0 time=0.20089275
EXTRACT: note_on channel=0 note=60 velocity=88 time=0.0044642833333333335
EXTRACT: note_on channel=0 note=64 velocity=75 time=0
EXTRACT: note_on channel=0 note=57 velocity=69 time=0
EXTRACT: note_on channel=0 note=45 velocity=70 time=0
EXTRACT: control_change channel=0 control=64 value=0 time=0.017857133333333334
EXTRACT: control_change channel=0 control=64 value=127 time=0.25446415
EXTRACT: note_on channel=0 note=64 velocity=0 time=0.08482138333333333
EXTRACT: note_on channel=0 note=57 velocity=0 time=0.008928566666666667
EXTRACT: note_on channel=0 note=60 velocity=0 time=0.0044642833333333335
EXTRACT: note_on channel=0 note=57 velocity=65 time=0.16517848333333335
EXTRACT: note_on channel=0 note=64 velocity=68 time=0
EXTRACT: note_on channel=0 note=60 velocity=82 time=0
EXTRACT: note_on channel=0 note=64 velocity=0 time=0.11160708333333334
EXTRACT: note_on channel=0 note=60 velocity=0 time=0.008928566666666667
EXTRACT: note_on channel=0 note=57 velocity=0 time=0.013392850000000001
EXTRACT: note_on channel=0 note=57 velocity=66 time=0.4017855
EXTRACT: note_on channel=0 note=64 velocity=71 time=0
EXTRACT: note_on channel=0 note=60 velocity=74 time=0
EXTRACT: note_on channel=0 note=64 velocity=0 time=0.13839278333333332
EXTRACT: note_on channel=0 note=60 velocity=0 time=0.008928566666666667
EXTRACT: note_on channel=0 note=57 velocity=0 time=0.013392850000000001
EXTRACT: note_on channel=0 note=55 velocity=73 time=0.3749998
EXTRACT: note_on channel=0 note=64 velocity=71 time=0
EXTRACT: note_on channel=0 note=60 velocity=82 time=0
EXTRACT: control_change channel=0 control=64 value=0 time=0.40624978333333334
EXTRACT: note_on channel=0 note=64 velocity=0 time=0.10714280000000001
EXTRACT: note_on channel=0 note=60 velocity=0 time=0.0044642833333333335
EXTRACT: note_on channel=0 note=55 velocity=0 time=0.013392850000000001
EXTRACT: note_on channel=0 note=45 velocity=0 time=0
EXTRACT: note_on channel=0 note=57 velocity=69 time=0.0044642833333333335
EXTRACT: note_on channel=0 note=60 velocity=88 time=0
EXTRACT: note_on channel=0 note=45 velocity=70 time=0
EXTRACT: note_on channel=0 note=64 velocity=75 time=0
EXTRACT: control_change channel=0 control=64 value=127 time=0.20089275
EXTRACT: note_on channel=0 note=64 velocity=0 time=0.15624991666666668
EXTRACT: note_on channel=0 note=57 velocity=0 time=0.008928566666666667
EXTRACT: note_on channel=0 note=60 velocity=0 time=0.0044642833333333335
EXTRACT: note_on channel=0 note=64 velocity=68 time=0.16517848333333335
EXTRACT: note_on channel=0 note=60 velocity=82 time=0
EXTRACT: note_on channel=0 note=57 velocity=65 time=0
EXTRACT: note_on channel=0 note=64 velocity=0 time=0.11160708333333334
EXTRACT: note_on channel=0 note=60 velocity=0 time=0.008928566666666667
EXTRACT: note_on channel=0 note=57 velocity=0 time=0.013392850000000001
EXTRACT: note_on channel=0 note=64 velocity=71 time=0.4017855
EXTRACT: note_on channel=0 note=60 velocity=74 time=0
EXTRACT: note_on channel=0 note=57 velocity=66 time=0
EXTRACT: note_on channel=0 note=64 velocity=0 time=0.13839278333333332
EXTRACT: note_on channel=0 note=60 velocity=0 time=0.008928566666666667
EXTRACT: note_on channel=0 note=57 velocity=0 time=0.013392850000000001
EXTRACT: note_on channel=3 note=64 velocity=111 time=0.10714280000000001
EXTRACT: note_on channel=3 note=64 velocity=0 time=0.12946421666666666
EXTRACT: note_on channel=0 note=64 velocity=71 time=0.13839278333333332
EXTRACT: note_on channel=0 note=60 velocity=82 time=0
EXTRACT: note_on channel=0 note=55 velocity=73 time=0
EXTRACT: note_on channel=3 note=64 velocity=111 time=0
EXTRACT: control_change channel=0 control=64 value=0 time=0.0044642833333333335
EXTRACT: note_on channel=3 note=64 velocity=0 time=0.22767845
EXTRACT: note_on channel=3 note=67 velocity=104 time=0.03571426666666667
EXTRACT: note_on channel=3 note=67 velocity=0 time=0.13839278333333332
EXTRACT: note_on channel=0 note=64 velocity=0 time=0.10714280000000001
EXTRACT: note_on channel=0 note=60 velocity=0 time=0.0044642833333333335
EXTRACT: note_on channel=0 note=45 velocity=0 time=0.013392850000000001
EXTRACT: note_on channel=0 note=55 velocity=0 time=0
EXTRACT: note_on channel=0 note=60 velocity=88 time=0.0044642833333333335
EXTRACT: note_on channel=0 note=64 velocity=86 time=0
EXTRACT: note_on channel=0 note=48 velocity=70 time=0
EXTRACT: note_on channel=0 note=55 velocity=73 time=0
EXTRACT: note_on channel=3 note=67 velocity=114 time=0
EXTRACT: note_on channel=3 note=67 velocity=0 time=0.1874999
EXTRACT: control_change channel=0 control=64 value=127 time=0.07142853333333334
EXTRACT: note_on channel=3 note=67 velocity=95 time=0.008928566666666667
EXTRACT: note_on channel=0 note=64 velocity=0 time=0.10714280000000001
EXTRACT: note_on channel=3 note=67 velocity=0 time=0.0044642833333333335
EXTRACT: note_on channel=0 note=55 velocity=0 time=0.008928566666666667
EXTRACT: note_on channel=0 note=60 velocity=0 time=0.0044642833333333335
EXTRACT: note_on channel=0 note=55 velocity=62 time=0.14285706666666667
EXTRACT: note_on channel=0 note=64 velocity=73 time=0
EXTRACT: note_on channel=0 note=60 velocity=70 time=0
EXTRACT: note_on channel=3 note=67 velocity=102 time=0
EXTRACT: note_on channel=0 note=64 velocity=0 time=0.1339285
EXTRACT: note_on channel=0 note=60 velocity=0 time=0.013392850000000001
EXTRACT: note_on channel=3 note=67 velocity=0 time=0.013392850000000001
EXTRACT: note_on channel=0 note=55 velocity=0 time=0
EXTRACT: note_on channel=3 note=69 velocity=102 time=0.10714280000000001
EXTRACT: note_on channel=0 note=55 velocity=79 time=0.267857
EXTRACT: note_on channel=0 note=64 velocity=88 time=0
EXTRACT: note_on channel=0 note=60 velocity=84 time=0
EXTRACT: note_on channel=0 note=60 velocity=0 time=0.14732135000000002
EXTRACT: note_on channel=0 note=64 velocity=0 time=0.017857133333333334
EXTRACT: note_on channel=0 note=55 velocity=0 time=0.013392850000000001
EXTRACT: note_on channel=3 note=64 velocity=1 time=0.08928566666666667
EXTRACT: note_on channel=0 note=48 velocity=0 time=0.026785700000000003
EXTRACT: note_on channel=3 note=69 velocity=0 time=0.017857133333333334
EXTRACT: note_on channel=3 note=64 velocity=0 time=0.1607142
EXTRACT: control_change channel=0 control=64 value=0 time=0.053571400000000005
EXTRACT: note_on channel=0 note=62 velocity=84 time=0.008928566666666667
EXTRACT: note_on channel=0 note=65 velocity=88 time=0
EXTRACT: note_on channel=0 note=50 velocity=70 time=0
EXTRACT: note_on channel=0 note=57 velocity=73 time=0
EXTRACT: note_on channel=3 note=64 velocity=95 time=0
EXTRACT: control_change channel=0 control=64 value=127 time=0.18303561666666668
EXTRACT: note_on channel=0 note=65 velocity=0 time=0.11607136666666668
EXTRACT: note_on channel=0 note=62 velocity=0 time=0.013392850000000001
EXTRACT: note_on channel=0 note=57 velocity=0 time=0.0044642833333333335
EXTRACT: note_on channel=0 note=50 velocity=0 time=0.06249996666666667
EXTRACT: note_on channel=3 note=64 velocity=0 time=0.04017855
EXTRACT: control_change channel=0 control=64 value=0 time=0.11607136666666668
EXTRACT: note_on channel=0 note=60 velocity=88 time=0
EXTRACT: note_on channel=0 note=64 velocity=75 time=0
EXTRACT: note_on channel=0 note=57 velocity=69 time=0
EXTRACT: note_on channel=0 note=45 velocity=70 time=0
EXTRACT: note_on channel=3 note=62 velocity=106 time=0
EXTRACT: note_on channel=3 note=62 velocity=0 time=0.20982131666666667
EXTRACT: control_change channel=0 control=64 value=127 time=0.04464283333333333
EXTRACT: note_on channel=3 note=60 velocity=105 time=0.013392850000000001
EXTRACT: note_on channel=0 note=64 velocity=0 time=0.08928566666666667
EXTRACT: note_on channel=0 note=57 velocity=0 time=0.008928566666666667
EXTRACT: note_on channel=0 note=60 velocity=0 time=0.0044642833333333335
EXTRACT: note_on channel=3 note=60 velocity=0 time=0.017857133333333334
EXTRACT: note_on channel=0 note=57 velocity=65 time=0.14732135000000002
EXTRACT: note_on channel=0 note=64 velocity=68 time=0
EXTRACT: note_on channel=0 note=60 velocity=82 time=0
EXTRACT: note_on channel=3 note=60 velocity=103 time=0
EXTRACT: note_on channel=0 note=64 velocity=0 time=0.11160708333333334
EXTRACT: note_on channel=0 note=60 velocity=0 time=0.008928566666666667
EXTRACT: note_on channel=0 note=57 velocity=0 time=0.013392850000000001
EXTRACT: note_on channel=3 note=60 velocity=0 time=0.27678556666666665
EXTRACT: note_on channel=0 note=60 velocity=74 time=0.12499993333333334
EXTRACT: note_on channel=0 note=64 velocity=71 time=0
EXTRACT: note_on channel=0 note=57 velocity=66 time=0
EXTRACT: note_on channel=3 note=60 velocity=99 time=0
EXTRACT: note_on channel=0 note=64 velocity=0 time=0.13839278333333332
EXTRACT: note_on channel=0 note=60 velocity=0 time=0.008928566666666667
EXTRACT: note_on channel=0 note=57 velocity=0 time=0.013392850000000001
EXTRACT: control_change channel=0 control=64 value=0 time=0.3482141
EXTRACT: note_on channel=3 note=60 velocity=0 time=0.026785700000000003
EXTRACT: note_on channel=0 note=55 velocity=73 time=0
EXTRACT: note_on channel=0 note=64 velocity=71 time=0
EXTRACT: note_on channel=0 note=60 velocity=82 time=0
EXTRACT: note_on channel=3 note=64 velocity=101 time=0
EXTRACT: control_change channel=0 control=64 value=127 time=0.16517848333333335
EXTRACT: note_on channel=3 note=64 velocity=0 time=0.14732135000000002
EXTRACT: note_on channel=0 note=64 velocity=0 time=0
EXTRACT: note_on channel=0 note=60 velocity=0 time=0
EXTRACT: note_on channel=0 note=55 velocity=0 time=0.017857133333333334
EXTRACT: note_on channel=0 note=45 velocity=0 time=0.20089275
EXTRACT: note_on channel=0 note=60 velocity=88 time=0.0044642833333333335
EXTRACT: note_on channel=0 note=64 velocity=75 time=0
EXTRACT: note_on channel=0 note=45 velocity=70 time=0
EXTRACT: note_on channel=0 note=57 velocity=69 time=0
EXTRACT: control_change channel=0 control=64 value=0 time=0.017857133333333334
EXTRACT: control_change channel=0 control=64 value=127 time=0.25446415
EXTRACT: note_on channel=0 note=64 velocity=0 time=0.08482138333333333
EXTRACT: note_on channel=0 note=57 velocity=0 time=0.008928566666666667
EXTRACT: note_on channel=0 note=60 velocity=0 time=0.0044642833333333335
EXTRACT: note_on channel=0 note=60 velocity=82 time=0.16517848333333335
EXTRACT: note_on channel=0 note=64 velocity=68 time=0
EXTRACT: note_on channel=0 note=57 velocity=65 time=0
EXTRACT: note_on channel=0 note=64 velocity=0 time=0.11160708333333334
EXTRACT: note_on channel=0 note=60 velocity=0 time=0.008928566666666667
EXTRACT: note_on channel=0 note=57 velocity=0 time=0.013392850000000001
EXTRACT: note_on channel=0 note=60 velocity=74 time=0.4017855
EXTRACT: note_on channel=0 note=64 velocity=71 time=0
EXTRACT: note_on channel=0 note=57 velocity=66 time=0
EXTRACT: note_on channel=0 note=64 velocity=0 time=0.13839278333333332
EXTRACT: note_on channel=0 note=60 velocity=0 time=0.008928566666666667
EXTRACT: note_on channel=0 note=57 velocity=0 time=0.013392850000000001
EXTRACT: note_on channel=0 note=60 velocity=82 time=0.3749998
EXTRACT: note_on channel=0 note=64 velocity=71 time=0
EXTRACT: note_on channel=0 note=55 velocity=73 time=0
EXTRACT: control_change channel=0 control=64 value=0 time=0.40624978333333334
EXTRACT: note_on channel=0 note=64 velocity=0 time=0.10714280000000001
EXTRACT: note_on channel=0 note=60 velocity=0 time=0.0044642833333333335
EXTRACT: note_on channel=0 note=45 velocity=0 time=0.013392850000000001
EXTRACT: note_on channel=0 note=55 velocity=0 time=0
EXTRACT: note_on channel=0 note=45 velocity=70 time=0.0044642833333333335
EXTRACT: note_on channel=0 note=64 velocity=75 time=0
EXTRACT: note_on channel=0 note=60 velocity=88 time=0
EXTRACT: note_on channel=0 note=57 velocity=69 time=0
EXTRACT: control_change channel=0 control=64 value=127 time=0.20089275
EXTRACT: note_on channel=0 note=64 velocity=0 time=0.15624991666666668
EXTRACT: note_on channel=0 note=57 velocity=0 time=0.008928566666666667
EXTRACT: note_on channel=0 note=60 velocity=0 time=0.0044642833333333335
EXTRACT: note_on channel=0 note=64 velocity=68 time=0.16517848333333335
EXTRACT: note_on channel=0 note=60 velocity=82 time=0
EXTRACT: note_on channel=0 note=57 velocity=65 time=0
EXTRACT: note_on channel=0 note=64 velocity=0 time=0.11160708333333334
EXTRACT: note_on channel=0 note=60 velocity=0 time=0.008928566666666667
EXTRACT: note_on channel=0 note=57 velocity=0 time=0.013392850000000001
EXTRACT: note_on channel=0 note=64 velocity=71 time=0.4017855
EXTRACT: note_on channel=0 note=60 velocity=74 time=0
EXTRACT: note_on channel=0 note=57 velocity=66 time=0
EXTRACT: note_on channel=0 note=64 velocity=0 time=0.13839278333333332
EXTRACT: note_on channel=0 note=60 velocity=0 time=0.008928566666666667
EXTRACT: note_on channel=0 note=57 velocity=0 time=0.013392850000000001
EXTRACT: note_on channel=3 note=64 velocity=100 time=0.10714280000000001
EXTRACT: note_on channel=3 note=64 velocity=0 time=0.08928566666666667
EXTRACT: note_on channel=0 note=64 velocity=71 time=0.17857133333333333
EXTRACT: note_on channel=0 note=60 velocity=82 time=0
EXTRACT: note_on channel=0 note=55 velocity=73 time=0
EXTRACT: note_on channel=3 note=64 velocity=107 time=0
EXTRACT: control_change channel=0 control=64 value=0 time=0.0044642833333333335
EXTRACT: note_on channel=3 note=64 velocity=0 time=0.48214260000000003
EXTRACT: note_on channel=0 note=64 velocity=0 time=0.026785700000000003
EXTRACT: note_on channel=0 note=60 velocity=0 time=0.0044642833333333335
EXTRACT: note_on channel=0 note=45 velocity=0 time=0.013392850000000001
EXTRACT: note_on channel=0 note=55 velocity=0 time=0
EXTRACT: note_on channel=0 note=60 velocity=88 time=0.0044642833333333335
EXTRACT: note_on channel=0 note=64 velocity=86 time=0
EXTRACT: note_on channel=0 note=48 velocity=70 time=0
EXTRACT: note_on channel=0 note=55 velocity=73 time=0
EXTRACT: note_on channel=3 note=67 velocity=114 time=0
EXTRACT: note_on channel=3 note=67 velocity=0 time=0.11160708333333334
EXTRACT: control_change channel=0 control=64 value=127 time=0.14732135000000002
EXTRACT: note_on channel=3 note=67 velocity=107 time=0.008928566666666667
EXTRACT: note_on channel=0 note=64 velocity=0 time=0.10714280000000001
EXTRACT: note_on channel=0 note=55 velocity=0 time=0.013392850000000001
EXTRACT: note_on channel=0 note=60 velocity=0 time=0.0044642833333333335
EXTRACT: note_on channel=0 note=64 velocity=73 time=0.14285706666666667
EXTRACT: note_on channel=0 note=60 velocity=70 time=0
EXTRACT: note_on channel=0 note=55 velocity=62 time=0
EXTRACT: note_on channel=0 note=64 velocity=0 time=0.1339285
EXTRACT: note_on channel=3 note=67 velocity=0 time=0.0044642833333333335
EXTRACT: note_on channel=0 note=60 velocity=0 time=0.008928566666666667
EXTRACT: note_on channel=0 note=55 velocity=0 time=0.013392850000000001
EXTRACT: note_on channel=3 note=67 velocity=113 time=0.10714280000000001
EXTRACT: note_on channel=0 note=64 velocity=88 time=0.267857
EXTRACT: note_on channel=0 note=60 velocity=84 time=0
EXTRACT: note_on channel=0 note=55 velocity=79 time=0
EXTRACT: note_on channel=0 note=60 velocity=0 time=0.14732135000000002
EXTRACT: note_on channel=0 note=64 velocity=0 time=0.017857133333333334
EXTRACT: note_on channel=0 note=55 velocity=0 time=0.013392850000000001
EXTRACT: note_on channel=0 note=48 velocity=0 time=0.11607136666666668
EXTRACT: note_on channel=3 note=67 velocity=0 time=0.04017855
EXTRACT: control_change channel=0 control=64 value=0 time=0.19196418333333334
EXTRACT: note_on channel=0 note=57 velocity=73 time=0.008928566666666667
EXTRACT: note_on channel=0 note=62 velocity=84 time=0
EXTRACT: note_on channel=0 note=65 velocity=88 time=0
EXTRACT: note_on channel=0 note=50 velocity=70 time=0
EXTRACT: note_on channel=3 note=64 velocity=91 time=0
EXTRACT: control_change channel=0 control=64 value=127 time=0.18303561666666668
EXTRACT: note_on channel=3 note=64 velocity=0 time=0.05803568333333334
EXTRACT: note_on channel=3 note=62 velocity=96 time=0.026785700000000003
EXTRACT: note_on channel=0 note=65 velocity=0 time=0.031249983333333335
EXTRACT: note_on channel=0 note=62 velocity=0 time=0.013392850000000001
EXTRACT: note_on channel=0 note=57 velocity=0 time=0.0044642833333333335
EXTRACT: note_on channel=3 note=62 velocity=0 time=0.049107116666666666
EXTRACT: note_on channel=0 note=50 velocity=0 time=0.013392850000000001
EXTRACT: control_change channel=0 control=64 value=0 time=0.15624991666666668
EXTRACT: note_on channel=0 note=60 velocity=88 time=0
EXTRACT: note_on channel=0 note=64 velocity=75 time=0
EXTRACT: note_on channel=0 note=45 velocity=70 time=0
EXTRACT: note_on channel=0 note=57 velocity=69 time=0
EXTRACT: note_on channel=3 note=62 velocity=102 time=0
EXTRACT: note_on channel=3 note=62 velocity=0 time=0.22321416666666669
EXTRACT: control_change channel=0 control=64 value=127 time=0.031249983333333335
EXTRACT: note_on channel=3 note=60 velocity=102 time=0.013392850000000001
EXTRACT: note_on channel=0 note=64 velocity=0 time=0.08928566666666667
EXTRACT: note_on channel=0 note=57 velocity=0 time=0.008928566666666667
EXTRACT: note_on channel=0 note=60 velocity=0 time=0.0044642833333333335
EXTRACT: note_on channel=3 note=60 velocity=0 time=0.013392850000000001
EXTRACT: note_on channel=0 note=57 velocity=65 time=0.15178563333333334
EXTRACT: note_on channel=0 note=64 velocity=68 time=0
EXTRACT: note_on channel=0 note=60 velocity=82 time=0
EXTRACT: note_on channel=3 note=62 velocity=102 time=0
EXTRACT: note_on channel=0 note=64 velocity=0 time=0.11160708333333334
EXTRACT: note_on channel=0 note=60 velocity=0 time=0.008928566666666667
EXTRACT: note_on channel=0 note=57 velocity=0 time=0.013392850000000001
EXTRACT: note_on channel=3 note=62 velocity=0 time=0.37946408333333337
EXTRACT: note_on channel=0 note=57 velocity=66 time=0.022321416666666666
EXTRACT: note_on channel=0 note=64 velocity=71 time=0
EXTRACT: note_on channel=0 note=60 velocity=74 time=0
EXTRACT: note_on channel=3 note=57 velocity=106 time=0
EXTRACT: note_on channel=0 note=64 velocity=0 time=0.13839278333333332
EXTRACT: note_on channel=0 note=60 velocity=0 time=0.008928566666666667
EXTRACT: note_on channel=0 note=57 velocity=0 time=0.013392850000000001
EXTRACT: control_change channel=0 control=64 value=0 time=0.3482141
EXTRACT: note_on channel=0 note=60 velocity=82 time=0.026785700000000003
EXTRACT: note_on channel=0 note=64 velocity=71 time=0
EXTRACT: note_on channel=0 note=55 velocity=73 time=0
EXTRACT: control_change channel=0 control=64 value=127 time=0.16517848333333335
EXTRACT: note_on channel=3 note=57 velocity=0 time=0.049107116666666666
EXTRACT: note_on channel=0 note=64 velocity=0 time=0.09821423333333333
EXTRACT: note_on channel=0 note=60 velocity=0 time=0
EXTRACT: note_on channel=0 note=55 velocity=0 time=0.017857133333333334
EXTRACT: note_on channel=0 note=45 velocity=0 time=0.20089275
EXTRACT: note_on channel=0 note=45 velocity=70 time=0.0044642833333333335
EXTRACT: note_on channel=0 note=64 velocity=75 time=0
EXTRACT: note_on channel=0 note=60 velocity=88 time=0
EXTRACT: note_on channel=0 note=57 velocity=69 time=0
EXTRACT: control_change channel=0 control=64 value=0 time=0.017857133333333334
EXTRACT: control_change channel=0 control=64 value=127 time=0.25446415
EXTRACT: note_on channel=0 note=64 velocity=0 time=0.08482138333333333
EXTRACT: note_on channel=0 note=57 velocity=0 time=0.008928566666666667
EXTRACT: note_on channel=0 note=60 velocity=0 time=0.0044642833333333335
EXTRACT: note_on channel=0 note=57 velocity=65 time=0.16517848333333335
EXTRACT: note_on channel=0 note=64 velocity=68 time=0
EXTRACT: note_on channel=0 note=60 velocity=82 time=0
EXTRACT: note_on channel=0 note=64 velocity=0 time=0.11160708333333334
EXTRACT: note_on channel=0 note=60 velocity=0 time=0.008928566666666667
EXTRACT: note_on channel=0 note=57 velocity=0 time=0.013392850000000001
EXTRACT: note_on channel=0 note=60 velocity=74 time=0.4017855
EXTRACT: note_on channel=0 note=64 velocity=71 time=0
EXTRACT: note_on channel=0 note=57 velocity=66 time=0
EXTRACT: note_on channel=0 note=64 velocity=0 time=0.13839278333333332
EXTRACT: note_on channel=0 note=60 velocity=0 time=0.008928566666666667
EXTRACT: note_on channel=0 note=57 velocity=0 time=0.013392850000000001
EXTRACT: note_on channel=0 note=60 velocity=82 time=0.3749998
EXTRACT: note_on channel=0 note=64 velocity=71 time=0
EXTRACT: note_on channel=0 note=55 velocity=73 time=0
EXTRACT: control_change channel=0 control=64 value=0 time=0.40624978333333334
EXTRACT: note_on channel=0 note=64 velocity=0 time=0.10714280000000001
EXTRACT: note_on channel=0 note=60 velocity=0 time=0.0044642833333333335
EXTRACT: note_on channel=0 note=45 velocity=0 time=0.013392850000000001
EXTRACT: note_on channel=0 note=55 velocity=0 time=0
EXTRACT: note_on channel=0 note=45 velocity=70 time=0.0044642833333333335
EXTRACT: note_on channel=0 note=64 velocity=75 time=0
EXTRACT: note_on channel=0 note=60 velocity=88 time=0
EXTRACT: note_on channel=0 note=57 velocity=69 time=0
EXTRACT: control_change channel=0 control=64 value=127 time=0.20089275
EXTRACT: note_on channel=0 note=64 velocity=0 time=0.15624991666666668
EXTRACT: note_on channel=0 note=57 velocity=0 time=0.008928566666666667
EXTRACT: note_on channel=0 note=60 velocity=0 time=0.0044642833333333335
EXTRACT: note_on channel=0 note=64 velocity=68 time=0.16517848333333335
EXTRACT: note_on channel=0 note=57 velocity=65 time=0
EXTRACT: note_on channel=0 note=60 velocity=82 time=0
EXTRACT: note_on channel=0 note=64 velocity=0 time=0.11160708333333334
EXTRACT: note_on channel=0 note=60 velocity=0 time=0.008928566666666667
EXTRACT: note_on channel=0 note=57 velocity=0 time=0.013392850000000001
EXTRACT: note_on channel=0 note=60 velocity=74 time=0.4017855
EXTRACT: note_on channel=0 note=64 velocity=71 time=0
EXTRACT: note_on channel=0 note=57 velocity=66 time=0
EXTRACT: note_on channel=0 note=64 velocity=0 time=0.13839278333333332
EXTRACT: note_on channel=0 note=60 velocity=0 time=0.008928566666666667
EXTRACT: note_on channel=0 note=57 velocity=0 time=0.013392850000000001
EXTRACT: note_on channel=0 note=60 velocity=82 time=0.3749998
EXTRACT: note_on channel=0 note=64 velocity=71 time=0
EXTRACT: note_on channel=0 note=57 velocity=73 time=0
EXTRACT: control_change channel=0 control=64 value=0 time=0.0044642833333333335
EXTRACT: note_on channel=0 note=64 velocity=0 time=0.5089283
EXTRACT: note_on channel=0 note=60 velocity=0 time=0.0044642833333333335
EXTRACT: note_on channel=0 note=45 velocity=0 time=0.013392850000000001
EXTRACT: note_on channel=0 note=57 velocity=0 time=0
EXTRACT: note_on channel=0 note=41 velocity=70 time=0.0044642833333333335
EXTRACT: note_on channel=0 note=60 velocity=69 time=0
EXTRACT: note_on channel=0 note=57 velocity=75 time=0
EXTRACT: note_on channel=0 note=53 velocity=74 time=0
EXTRACT: note_on channel=3 note=62 velocity=104 time=0
EXTRACT: control_change channel=0 control=64 value=127 time=0.19196418333333334
EXTRACT: note_on channel=0 note=60 velocity=0 time=0.09821423333333333
EXTRACT: note_on channel=0 note=53 velocity=0 time=0.0044642833333333335
EXTRACT: note_on channel=0 note=57 velocity=0 time=0.0044642833333333335
EXTRACT: note_on channel=3 note=62 velocity=0 time=0.15624991666666668
EXTRACT: note_on channel=0 note=60 velocity=76 time=0.0803571
EXTRACT: note_on channel=0 note=53 velocity=83 time=0
EXTRACT: note_on channel=0 note=57 velocity=72 time=0
EXTRACT: note_on channel=3 note=62 velocity=104 time=0
EXTRACT: note_on channel=0 note=60 velocity=0 time=0.14732135000000002
EXTRACT: note_on channel=0 note=57 velocity=0 time=0.0044642833333333335
EXTRACT: note_on channel=0 note=53 velocity=0 time=0.013392850000000001
EXTRACT: note_on channel=3 note=62 velocity=0 time=0.03571426666666667
EXTRACT: note_on channel=3 note=60 velocity=100 time=0.06696425
EXTRACT: note_on channel=3 note=60 velocity=0 time=0.15178563333333334
EXTRACT: note_on channel=0 note=60 velocity=78 time=0.11607136666666668
EXTRACT: note_on channel=0 note=57 velocity=73 time=0
EXTRACT: note_on channel=0 note=53 velocity=75 time=0
EXTRACT: note_on channel=3 note=62 velocity=108 time=0
EXTRACT: note_on channel=0 note=57 velocity=0 time=0.13839278333333332
EXTRACT: note_on channel=0 note=60 velocity=0 time=0
EXTRACT: note_on channel=0 note=53 velocity=0 time=0.008928566666666667
EXTRACT: note_on channel=3 note=62 velocity=0 time=0.2633927166666667
EXTRACT: note_on channel=0 note=60 velocity=78 time=0.12499993333333334
EXTRACT: note_on channel=0 note=57 velocity=86 time=0
EXTRACT: note_on channel=0 note=53 velocity=77 time=0
EXTRACT: note_on channel=3 note=62 velocity=111 time=0
EXTRACT: note_on channel=3 note=62 velocity=0 time=0.21428560000000002
EXTRACT: note_on channel=3 note=60 velocity=95 time=0.053571400000000005
EXTRACT: note_on channel=3 note=60 velocity=0 time=0.10714280000000001
EXTRACT: control_change channel=0 control=64 value=0 time=0.12053565000000001
EXTRACT: note_on channel=0 note=57 velocity=0 time=0.017857133333333334
EXTRACT: note_on channel=0 note=53 velocity=0 time=0.017857133333333334
EXTRACT: note_on channel=0 note=41 velocity=0 time=0
EXTRACT: note_on channel=0 note=60 velocity=0 time=0.0044642833333333335
EXTRACT: note_on channel=0 note=53 velocity=85 time=0
EXTRACT: note_on channel=0 note=57 velocity=86 time=0
EXTRACT: note_on channel=0 note=62 velocity=83 time=0
EXTRACT: note_on channel=0 note=38 velocity=70 time=0
EXTRACT: note_on channel=3 note=62 velocity=111 time=0
EXTRACT: control_change channel=0 control=64 value=127 time=0.29017841666666666
EXTRACT: note_on channel=0 note=62 velocity=0 time=0.07142853333333334
EXTRACT: note_on channel=0 note=57 velocity=0 time=0
EXTRACT: note_on channel=0 note=53 velocity=0 time=0.0044642833333333335
EXTRACT: note_on channel=3 note=62 velocity=0 time=0.04464283333333333
EXTRACT: note_on channel=0 note=57 velocity=75 time=0.12499993333333334
EXTRACT: note_on channel=0 note=62 velocity=76 time=0
EXTRACT: note_on channel=0 note=53 velocity=85 time=0
EXTRACT: note_on channel=3 note=62 velocity=114 time=0
EXTRACT: note_on channel=0 note=57 velocity=0 time=0.15624991666666668
EXTRACT: note_on channel=0 note=53 velocity=0 time=0.008928566666666667
EXTRACT: note_on channel=0 note=62 velocity=0 time=0
EXTRACT: note_on channel=3 note=62 velocity=0 time=0.049107116666666666
EXTRACT: note_on channel=3 note=60 velocity=104 time=0.053571400000000005
EXTRACT: note_on channel=3 note=60 velocity=0 time=0.10714280000000001
EXTRACT: note_on channel=0 note=57 velocity=79 time=0.1607142
EXTRACT: note_on channel=0 note=62 velocity=78 time=0
EXTRACT: note_on channel=0 note=53 velocity=82 time=0
EXTRACT: note_on channel=3 note=62 velocity=118 time=0
EXTRACT: note_on channel=0 note=62 velocity=0 time=0.13839278333333332
EXTRACT: note_on channel=0 note=57 velocity=0 time=0
EXTRACT: note_on channel=0 note=53 velocity=0 time=0.017857133333333334
EXTRACT: note_on channel=3 note=62 velocity=0 time=0.33928553333333333
EXTRACT: note_on channel=0 note=57 velocity=75 time=0.04017855
EXTRACT: note_on channel=0 note=62 velocity=76 time=0
EXTRACT: note_on channel=0 note=53 velocity=86 time=0
EXTRACT: note_on channel=3 note=64 velocity=104 time=0
EXTRACT: note_on channel=3 note=64 velocity=0 time=0.19642846666666666
EXTRACT: note_on channel=3 note=60 velocity=108 time=0.07142853333333334
EXTRACT: note_on channel=0 note=57 velocity=0 time=0.23214273333333335
EXTRACT: note_on channel=0 note=62 velocity=0 time=0.008928566666666667
EXTRACT: control_change channel=0 control=64 value=0 time=0.017857133333333334
EXTRACT: note_on channel=0 note=38 velocity=0 time=0.0044642833333333335
EXTRACT: note_on channel=0 note=53 velocity=0 time=0
EXTRACT: note_on channel=0 note=45 velocity=70 time=0.0044642833333333335
EXTRACT: note_on channel=0 note=60 velocity=74 time=0
EXTRACT: note_on channel=0 note=57 velocity=77 time=0
EXTRACT: note_on channel=0 note=52 velocity=76 time=0
EXTRACT: control_change channel=0 control=64 value=127 time=0.28571413333333334
EXTRACT: note_on channel=0 note=60 velocity=0 time=0.013392850000000001
EXTRACT: note_on channel=0 note=57 velocity=0 time=0.017857133333333334
EXTRACT: note_on channel=0 note=52 velocity=0 time=0.0044642833333333335
EXTRACT: note_on channel=3 note=60 velocity=0 time=0.15624991666666668
EXTRACT: note_on channel=0 note=60 velocity=74 time=0.05803568333333334
EXTRACT: note_on channel=0 note=57 velocity=66 time=0
EXTRACT: note_on channel=0 note=52 velocity=63 time=0
EXTRACT: note_on channel=0 note=60 velocity=0 time=0.12053565000000001
EXTRACT: note_on channel=0 note=52 velocity=0 time=0.026785700000000003
EXTRACT: note_on channel=0 note=57 velocity=0 time=0
EXTRACT: note_on channel=0 note=60 velocity=71 time=0.38839265
EXTRACT: note_on channel=0 note=57 velocity=64 time=0
EXTRACT: note_on channel=0 note=52 velocity=61 time=0
EXTRACT: note_on channel=0 note=60 velocity=0 time=0.12499993333333334
EXTRACT: note_on channel=0 note=57 velocity=0 time=0.013392850000000001
EXTRACT: note_on channel=0 note=52 velocity=0 time=0.008928566666666667
EXTRACT: note_on channel=0 note=60 velocity=73 time=0.38839265
EXTRACT: note_on channel=0 note=57 velocity=56 time=0
EXTRACT: note_on channel=0 note=52 velocity=63 time=0
EXTRACT: note_on channel=0 note=60 velocity=0 time=0.13839278333333332
EXTRACT: note_on channel=0 note=57 velocity=0 time=0.008928566666666667
EXTRACT: note_on channel=0 note=52 velocity=0 time=0.0044642833333333335
EXTRACT: control_change channel=0 control=64 value=0 time=0.35714266666666666
EXTRACT: note_on channel=0 note=60 velocity=74 time=0.026785700000000003
EXTRACT: note_on channel=0 note=52 velocity=76 time=0
EXTRACT: note_on channel=0 note=57 velocity=77 time=0
EXTRACT: control_change channel=0 control=64 value=127 time=0.21428560000000002
EXTRACT: note_on channel=0 note=60 velocity=0 time=0.08482138333333333
EXTRACT: note_on channel=0 note=57 velocity=0 time=0.017857133333333334
EXTRACT: note_on channel=0 note=52 velocity=0 time=0.0044642833333333335
EXTRACT: note_on channel=0 note=57 velocity=66 time=0.21428560000000002
EXTRACT: note_on channel=0 note=60 velocity=74 time=0
EXTRACT: note_on channel=0 note=52 velocity=63 time=0
EXTRACT: note_on channel=0 note=60 velocity=0 time=0.12053565000000001
EXTRACT: note_on channel=0 note=52 velocity=0 time=0.026785700000000003
EXTRACT: note_on channel=0 note=57 velocity=0 time=0
EXTRACT: note_on channel=0 note=57 velocity=64 time=0.38839265
EXTRACT: note_on channel=0 note=60 velocity=71 time=0
EXTRACT: note_on channel=0 note=52 velocity=61 time=0
EXTRACT: note_on channel=3 note=57 velocity=102 time=0
EXTRACT: note_on channel=0 note=60 velocity=0 time=0.12499993333333334
EXTRACT: note_on channel=0 note=57 velocity=0 time=0.013392850000000001
EXTRACT: note_on channel=0 note=52 velocity=0 time=0.008928566666666667
EXTRACT: note_on channel=3 note=57 velocity=0 time=0.37946408333333337
EXTRACT: note_on channel=0 note=57 velocity=56 time=0.008928566666666667
EXTRACT: note_on channel=0 note=60 velocity=73 time=0
EXTRACT: note_on channel=0 note=52 velocity=63 time=0
EXTRACT: note_on channel=3 note=60 velocity=110 time=0
EXTRACT: control_change channel=0 control=64 value=0 time=0.11160708333333334
EXTRACT: note_on channel=3 note=60 velocity=0 time=0.3928569333333333
EXTRACT: note_on channel=0 note=60 velocity=0 time=0.013392850000000001
EXTRACT: note_on channel=0 note=57 velocity=0 time=0.008928566666666667
EXTRACT: note_on channel=0 note=52 velocity=0 time=0.0044642833333333335
EXTRACT: note_on channel=0 note=41 velocity=70 time=0.0044642833333333335
EXTRACT: note_on channel=0 note=60 velocity=69 time=0
EXTRACT: note_on channel=0 note=57 velocity=75 time=0
EXTRACT: note_on channel=0 note=53 velocity=74 time=0
EXTRACT: note_on channel=3 note=62 velocity=102 time=0
EXTRACT: note_on channel=0 note=45 velocity=0 time=0.022321416666666666
EXTRACT: control_change channel=0 control=64 value=127 time=0.16964276666666667
EXTRACT: note_on channel=0 note=60 velocity=0 time=0.09821423333333333
EXTRACT: note_on channel=0 note=53 velocity=0 time=0.0044642833333333335
EXTRACT: note_on channel=0 note=57 velocity=0 time=0.0044642833333333335
EXTRACT: note_on channel=3 note=62 velocity=0 time=0.1339285
EXTRACT: note_on channel=0 note=60 velocity=76 time=0.10267851666666666
EXTRACT: note_on channel=0 note=57 velocity=72 time=0
EXTRACT: note_on channel=0 note=53 velocity=83 time=0
EXTRACT: note_on channel=3 note=62 velocity=98 time=0
EXTRACT: note_on channel=0 note=60 velocity=0 time=0.14732135000000002
EXTRACT: note_on channel=0 note=57 velocity=0 time=0.0044642833333333335
EXTRACT: note_on channel=0 note=53 velocity=0 time=0.013392850000000001
EXTRACT: note_on channel=3 note=62 velocity=0 time=0.0803571
EXTRACT: note_on channel=3 note=60 velocity=98 time=0.022321416666666666
EXTRACT: note_on channel=3 note=60 velocity=0 time=0.09821423333333333
EXTRACT: note_on channel=0 note=60 velocity=78 time=0.16964276666666667
EXTRACT: note_on channel=0 note=57 velocity=73 time=0
EXTRACT: note_on channel=0 note=53 velocity=75 time=0
EXTRACT: note_on channel=3 note=62 velocity=98 time=0
EXTRACT: note_on channel=0 note=57 velocity=0 time=0.13839278333333332
EXTRACT: note_on channel=0 note=60 velocity=0 time=0
EXTRACT: note_on channel=0 note=53 velocity=0 time=0.008928566666666667
EXTRACT: note_on channel=3 note=62 velocity=0 time=0.2633927166666667
EXTRACT: note_on channel=0 note=60 velocity=78 time=0.12499993333333334
EXTRACT: note_on channel=0 note=57 velocity=86 time=0
EXTRACT: note_on channel=0 note=53 velocity=77 time=0
EXTRACT: note_on channel=3 note=62 velocity=104 time=0
EXTRACT: note_on channel=3 note=62 velocity=0 time=0.24553558333333333
EXTRACT: note_on channel=3 note=60 velocity=86 time=0.022321416666666666
EXTRACT: note_on channel=3 note=60 velocity=0 time=0.14285706666666667
EXTRACT: control_change channel=0 control=64 value=0 time=0.08482138333333333
EXTRACT: note_on channel=0 note=57 velocity=0 time=0.017857133333333334
EXTRACT: note_on channel=0 note=53 velocity=0 time=0.017857133333333334
EXTRACT: note_on channel=0 note=41 velocity=0 time=0
EXTRACT: note_on channel=0 note=60 velocity=0 time=0.0044642833333333335
EXTRACT: note_on channel=0 note=57 velocity=86 time=0
EXTRACT: note_on channel=0 note=62 velocity=83 time=0
EXTRACT: note_on channel=0 note=38 velocity=70 time=0
EXTRACT: note_on channel=0 note=53 velocity=85 time=0
EXTRACT: note_on channel=3 note=62 velocity=107 time=0
EXTRACT: control_change channel=0 control=64 value=127 time=0.29017841666666666
EXTRACT: note_on channel=0 note=62 velocity=0 time=0.07142853333333334
EXTRACT: note_on channel=0 note=57 velocity=0 time=0
EXTRACT: note_on channel=0 note=53 velocity=0 time=0.0044642833333333335
EXTRACT: note_on channel=3 note=62 velocity=0 time=0.049107116666666666
EXTRACT: note_on channel=0 note=57 velocity=75 time=0.12053565000000001
EXTRACT: note_on channel=0 note=62 velocity=76 time=0
EXTRACT: note_on channel=0 note=53 velocity=85 time=0
EXTRACT: note_on channel=3 note=62 velocity=107 time=0
EXTRACT: note_on channel=0 note=57 velocity=0 time=0.15624991666666668
EXTRACT: note_on channel=0 note=53 velocity=0 time=0.008928566666666667
EXTRACT: note_on channel=0 note=62 velocity=0 time=0
EXTRACT: note_on channel=3 note=62 velocity=0 time=0.06249996666666667
EXTRACT: note_on channel=3 note=60 velocity=104 time=0.04017855
EXTRACT: note_on channel=3 note=60 velocity=0 time=0.12053565000000001
EXTRACT: note_on channel=0 note=57 velocity=79 time=0.14732135000000002
EXTRACT: note_on channel=0 note=62 velocity=78 time=0
EXTRACT: note_on channel=0 note=53 velocity=82 time=0
EXTRACT: note_on channel=3 note=62 velocity=106 time=0
EXTRACT: note_on channel=0 note=62 velocity=0 time=0.13839278333333332
EXTRACT: note_on channel=0 note=57 velocity=0 time=0
EXTRACT: note_on channel=0 note=53 velocity=0 time=0.017857133333333334
EXTRACT: note_on channel=3 note=62 velocity=0 time=0.3482141
EXTRACT: note_on channel=0 note=57 velocity=75 time=0.031249983333333335
EXTRACT: note_on channel=0 note=62 velocity=76 time=0
EXTRACT: note_on channel=0 note=53 velocity=86 time=0
EXTRACT: note_on channel=3 note=64 velocity=113 time=0
EXTRACT: note_on channel=3 note=64 velocity=0 time=0.20535703333333333
EXTRACT: note_on channel=3 note=65 velocity=106 time=0.06249996666666667
EXTRACT: note_on channel=0 note=57 velocity=0 time=0.23214273333333335
EXTRACT: note_on channel=0 note=62 velocity=0 time=0.008928566666666667
EXTRACT: control_change channel=0 control=64 value=0 time=0.017857133333333334
EXTRACT: note_on channel=0 note=38 velocity=0 time=0.0044642833333333335
EXTRACT: note_on channel=0 note=53 velocity=0 time=0
EXTRACT: note_on channel=3 note=65 velocity=0 time=0
EXTRACT: note_on channel=0 note=55 velocity=76 time=0.0044642833333333335
EXTRACT: note_on channel=0 note=59 velocity=77 time=0
EXTRACT: note_on channel=0 note=43 velocity=70 time=0
EXTRACT: note_on channel=0 note=62 velocity=74 time=0
EXTRACT: note_on channel=3 note=64 velocity=106 time=0
EXTRACT: control_change channel=0 control=64 value=127 time=0.28571413333333334
EXTRACT: note_on channel=0 note=62 velocity=0 time=0.013392850000000001
EXTRACT: note_on channel=0 note=59 velocity=0 time=0.017857133333333334
EXTRACT: note_on channel=0 note=55 velocity=0 time=0.0044642833333333335
EXTRACT: note_on channel=0 note=62 velocity=74 time=0.21428560000000002
EXTRACT: note_on channel=0 note=59 velocity=66 time=0
EXTRACT: note_on channel=0 note=55 velocity=63 time=0
EXTRACT: note_on channel=0 note=62 velocity=0 time=0.12053565000000001
EXTRACT: note_on channel=0 note=59 velocity=0 time=0.026785700000000003
EXTRACT: note_on channel=0 note=55 velocity=0 time=0
EXTRACT: note_on channel=3 note=64 velocity=0 time=0.12499993333333334
EXTRACT: note_on channel=0 note=62 velocity=71 time=0.2633927166666667
EXTRACT: note_on channel=0 note=59 velocity=64 time=0
EXTRACT: note_on channel=0 note=55 velocity=61 time=0
EXTRACT: note_on channel=0 note=62 velocity=0 time=0.12499993333333334
EXTRACT: note_on channel=0 note=59 velocity=0 time=0.013392850000000001
EXTRACT: note_on channel=0 note=55 velocity=0 time=0.008928566666666667
EXTRACT: note_on channel=0 note=62 velocity=73 time=0.38839265
EXTRACT: note_on channel=0 note=59 velocity=56 time=0
EXTRACT: note_on channel=0 note=55 velocity=63 time=0
EXTRACT: note_on channel=0 note=62 velocity=0 time=0.13839278333333332
EXTRACT: note_on channel=0 note=59 velocity=0 time=0.008928566666666667
EXTRACT: note_on channel=0 note=55 velocity=0 time=0.0044642833333333335
EXTRACT: control_change channel=0 control=64 value=0 time=0.35714266666666666
EXTRACT: note_on channel=0 note=59 velocity=76 time=0.026785700000000003
EXTRACT: note_on channel=0 note=62 velocity=73 time=0
EXTRACT: note_on channel=0 note=55 velocity=75 time=0
EXTRACT: control_change channel=0 control=64 value=127 time=0.21428560000000002
EXTRACT: note_on channel=0 note=62 velocity=0 time=0.08482138333333333
EXTRACT: note_on channel=0 note=59 velocity=0 time=0.017857133333333334
EXTRACT: note_on channel=0 note=55 velocity=0 time=0.0044642833333333335
EXTRACT: note_on channel=0 note=55 velocity=76 time=0.21428560000000002
EXTRACT: note_on channel=0 note=62 velocity=87 time=0
EXTRACT: note_on channel=0 note=59 velocity=79 time=0
EXTRACT: note_on channel=0 note=62 velocity=0 time=0.12053565000000001
EXTRACT: note_on channel=0 note=59 velocity=0 time=0.026785700000000003
EXTRACT: note_on channel=0 note=55 velocity=0 time=0
EXTRACT: note_on channel=2 note=69 velocity=120 time=0.09374995
EXTRACT: note_on channel=0 note=55 velocity=80 time=0.29464270000000004
EXTRACT: note_on channel=0 note=62 velocity=85 time=0
EXTRACT: note_on channel=0 note=59 velocity=83 time=0
EXTRACT: note_on channel=0 note=62 velocity=0 time=0.12499993333333334
EXTRACT: note_on channel=0 note=59 velocity=0 time=0.013392850000000001
EXTRACT: note_on channel=0 note=55 velocity=0 time=0.008928566666666667
EXTRACT: note_on channel=0 note=55 velocity=84 time=0.38839265
EXTRACT: note_on channel=0 note=62 velocity=90 time=0
EXTRACT: note_on channel=0 note=59 velocity=77 time=0
EXTRACT: control_change channel=0 control=64 value=0 time=0.11160708333333334
EXTRACT: note_on channel=0 note=62 velocity=0 time=0.40624978333333334
EXTRACT: note_on channel=0 note=59 velocity=0 time=0.008928566666666667
EXTRACT: note_on channel=0 note=55 velocity=0 time=0.0044642833333333335
EXTRACT: note_on channel=0 note=36 velocity=90 time=0.0044642833333333335
EXTRACT: note_on channel=0 note=60 velocity=88 time=0
EXTRACT: note_on channel=0 note=64 velocity=86 time=0
EXTRACT: note_on channel=0 note=48 velocity=70 time=0
EXTRACT: note_on channel=0 note=55 velocity=73 time=0
EXTRACT: note_on channel=1 note=36 velocity=60 time=0
EXTRACT: note_on channel=9 note=35 velocity=47 time=0
EXTRACT: note_on channel=0 note=43 velocity=0 time=0.022321416666666666
EXTRACT: note_on channel=9 note=35 velocity=0 time=0.17410705
EXTRACT: control_change channel=0 control=64 value=127 time=0.06249996666666667
EXTRACT: note_on channel=2 note=69 velocity=0 time=0.008928566666666667
EXTRACT: note_on channel=3 note=64 velocity=120 time=0
EXTRACT: note_on channel=3 note=64 velocity=0 time=0.07589281666666667
EXTRACT: note_on channel=0 note=64 velocity=0 time=0.031249983333333335
EXTRACT: note_on channel=0 note=55 velocity=0 time=0.013392850000000001
EXTRACT: note_on channel=0 note=60 velocity=0 time=0.0044642833333333335
EXTRACT: note_on channel=0 note=55 velocity=62 time=0.14285706666666667
EXTRACT: note_on channel=0 note=64 velocity=73 time=0
EXTRACT: note_on channel=0 note=60 velocity=70 time=0
EXTRACT: note_on channel=3 note=64 velocity=120 time=0
EXTRACT: note_on channel=0 note=64 velocity=0 time=0.1339285
EXTRACT: note_on channel=0 note=60 velocity=0 time=0.013392850000000001
EXTRACT: note_on channel=0 note=55 velocity=0 time=0.013392850000000001
EXTRACT: note_on channel=3 note=64 velocity=0 time=0.06249996666666667
EXTRACT: note_on channel=3 note=67 velocity=102 time=0.04464283333333333
EXTRACT: note_on channel=3 note=67 velocity=0 time=0.08928566666666667
EXTRACT: note_on channel=0 note=55 velocity=79 time=0.17857133333333333
EXTRACT: note_on channel=0 note=64 velocity=88 time=0
EXTRACT: note_on channel=0 note=60 velocity=84 time=0
EXTRACT: note_on channel=3 note=67 velocity=106 time=0
EXTRACT: note_on channel=0 note=60 velocity=0 time=0.14732135000000002
EXTRACT: note_on channel=0 note=64 velocity=0 time=0.017857133333333334
EXTRACT: note_on channel=0 note=55 velocity=0 time=0.013392850000000001
EXTRACT: note_on channel=3 note=67 velocity=0 time=0.2589284333333333
EXTRACT: control_change channel=0 control=64 value=0 time=0.08928566666666667
EXTRACT: note_on channel=0 note=60 velocity=84 time=0.008928566666666667
EXTRACT: note_on channel=0 note=64 velocity=88 time=0
EXTRACT: note_on channel=0 note=55 velocity=73 time=0
EXTRACT: note_on channel=3 note=64 velocity=106 time=0
EXTRACT: control_change channel=0 control=64 value=127 time=0.18303561666666668
EXTRACT: note_on channel=3 note=64 velocity=0 time=0.053571400000000005
EXTRACT: note_on channel=3 note=62 velocity=88 time=0.031249983333333335
EXTRACT: note_on channel=0 note=64 velocity=0 time=0.031249983333333335
EXTRACT: note_on channel=0 note=60 velocity=0 time=0.013392850000000001
EXTRACT: note_on channel=0 note=55 velocity=0 time=0.0044642833333333335
EXTRACT: note_on channel=3 note=62 velocity=0 time=0.031249983333333335
EXTRACT: note_on channel=0 note=48 velocity=0 time=0.18303561666666668
EXTRACT: note_on channel=1 note=36 velocity=0 time=0
EXTRACT: control_change channel=0 control=64 value=0 time=0.0044642833333333335
EXTRACT: note_on channel=0 note=57 velocity=73 time=0
EXTRACT: note_on channel=0 note=62 velocity=88 time=0
EXTRACT: note_on channel=0 note=65 velocity=86 time=0
EXTRACT: note_on channel=0 note=50 velocity=70 time=0
EXTRACT: note_on channel=0 note=38 velocity=90 time=0
EXTRACT: note_on channel=1 note=38 velocity=60 time=0
EXTRACT: note_on channel=3 note=62 velocity=102 time=0
EXTRACT: note_on channel=0 note=36 velocity=0 time=0.03571426666666667
EXTRACT: note_on channel=3 note=62 velocity=0 time=0.20535703333333333
EXTRACT: control_change channel=0 control=64 value=127 time=0.017857133333333334
EXTRACT: note_on channel=3 note=60 velocity=95 time=0.008928566666666667
EXTRACT: note_on channel=3 note=60 velocity=0 time=0.10267851666666666
EXTRACT: note_on channel=0 note=65 velocity=0 time=0.0044642833333333335
EXTRACT: note_on channel=0 note=57 velocity=0 time=0.013392850000000001
EXTRACT: note_on channel=0 note=62 velocity=0 time=0.0044642833333333335
EXTRACT: note_on channel=0 note=65 velocity=73 time=0.14285706666666667
EXTRACT: note_on channel=0 note=62 velocity=70 time=0
EXTRACT: note_on channel=0 note=57 velocity=62 time=0
EXTRACT: note_on channel=3 note=62 velocity=106 time=0
EXTRACT: note_on channel=0 note=65 velocity=0 time=0.1339285
EXTRACT: note_on channel=0 note=62 velocity=0 time=0.013392850000000001
EXTRACT: note_on channel=0 note=57 velocity=0 time=0.013392850000000001
EXTRACT: note_on channel=3 note=62 velocity=0 time=0.29464270000000004
EXTRACT: note_on channel=0 note=57 velocity=79 time=0.0803571
EXTRACT: note_on channel=0 note=65 velocity=88 time=0
EXTRACT: note_on channel=0 note=62 velocity=84 time=0
EXTRACT: note_on channel=3 note=57 velocity=110 time=0
EXTRACT: note_on channel=0 note=62 velocity=0 time=0.14732135000000002
EXTRACT: note_on channel=0 note=65 velocity=0 time=0.017857133333333334
EXTRACT: note_on channel=0 note=57 velocity=0 time=0.013392850000000001
EXTRACT: control_change channel=0 control=64 value=0 time=0.3482141
EXTRACT: note_on channel=0 note=65 velocity=88 time=0.008928566666666667
EXTRACT: note_on channel=0 note=62 velocity=84 time=0
EXTRACT: note_on channel=0 note=57 velocity=73 time=0
EXTRACT: note_on channel=3 note=57 velocity=0 time=0.07142853333333334
EXTRACT: control_change channel=0 control=64 value=127 time=0.11160708333333334
EXTRACT: note_on channel=3 note=60 velocity=95 time=0.08482138333333333
EXTRACT: note_on channel=0 note=65 velocity=0 time=0.031249983333333335
EXTRACT: note_on channel=0 note=62 velocity=0 time=0.013392850000000001
EXTRACT: note_on channel=0 note=57 velocity=0 time=0.0044642833333333335
EXTRACT: note_on channel=0 note=38 velocity=0 time=0.20089275
EXTRACT: note_on channel=1 note=38 velocity=0 time=0.013392850000000001
EXTRACT: note_on channel=0 note=50 velocity=0 time=0
EXTRACT: note_on channel=0 note=33 velocity=90 time=0.0044642833333333335
EXTRACT: note_on channel=0 note=45 velocity=70 time=0
EXTRACT: note_on channel=0 note=60 velocity=88 time=0
EXTRACT: note_on channel=0 note=64 velocity=86 time=0
EXTRACT: note_on channel=0 note=57 velocity=73 time=0
EXTRACT: control_change channel=0 control=64 value=0 time=0
EXTRACT: note_on channel=1 note=33 velocity=60 time=0
EXTRACT: note_on channel=3 note=60 velocity=0 time=0.11160708333333334
EXTRACT: control_change channel=0 control=64 value=127 time=0.14732135000000002
EXTRACT: note_on channel=3 note=60 velocity=106 time=0.008928566666666667
EXTRACT: note_on channel=0 note=64 velocity=0 time=0.10714280000000001
EXTRACT: note_on channel=0 note=57 velocity=0 time=0.013392850000000001
EXTRACT: note_on channel=0 note=60 velocity=0 time=0.0044642833333333335
EXTRACT: note_on channel=3 note=60 velocity=0 time=0.11607136666666668
EXTRACT: note_on channel=0 note=57 velocity=62 time=0.026785700000000003
EXTRACT: note_on channel=0 note=64 velocity=73 time=0
EXTRACT: note_on channel=0 note=60 velocity=70 time=0
EXTRACT: note_on channel=3 note=57 velocity=117 time=0
EXTRACT: note_on channel=0 note=64 velocity=0 time=0.1339285
EXTRACT: note_on channel=0 note=60 velocity=0 time=0.013392850000000001
EXTRACT: note_on channel=0 note=57 velocity=0 time=0.013392850000000001
EXTRACT: note_on channel=3 note=57 velocity=0 time=0.05803568333333334
EXTRACT: note_on channel=3 note=55 velocity=107 time=0.049107116666666666
EXTRACT: note_on channel=3 note=55 velocity=0 time=0.14285706666666667
EXTRACT: note_on channel=0 note=57 velocity=79 time=0.12499993333333334
EXTRACT: note_on channel=0 note=64 velocity=88 time=0
EXTRACT: note_on channel=0 note=60 velocity=84 time=0
EXTRACT: note_on channel=3 note=60 velocity=115 time=0
EXTRACT: note_on channel=0 note=60 velocity=0 time=0.14732135000000002
EXTRACT: note_on channel=0 note=64 velocity=0 time=0.017857133333333334
EXTRACT: note_on channel=0 note=57 velocity=0 time=0.013392850000000001
EXTRACT: note_on channel=3 note=60 velocity=0 time=0.07142853333333334
EXTRACT: note_on channel=3 note=62 velocity=120 time=0.017857133333333334
EXTRACT: note_on channel=3 note=62 velocity=0 time=0.21428560000000002
EXTRACT: control_change channel=0 control=64 value=0 time=0.04464283333333333
EXTRACT: note_on channel=0 note=64 velocity=88 time=0.008928566666666667
EXTRACT: note_on channel=0 note=60 velocity=84 time=0
EXTRACT: note_on channel=0 note=57 velocity=73 time=0
EXTRACT: control_change channel=0 control=64 value=127 time=0.18303561666666668
EXTRACT: note_on channel=3 note=62 velocity=117 time=0.08482138333333333
EXTRACT: note_on channel=0 note=64 velocity=0 time=0.031249983333333335
EXTRACT: note_on channel=0 note=60 velocity=0 time=0.013392850000000001
EXTRACT: note_on channel=0 note=57 velocity=0 time=0.0044642833333333335
EXTRACT: note_on channel=1 note=33 velocity=0 time=0.19196418333333334
EXTRACT: note_on channel=0 note=33 velocity=0 time=0.022321416666666666
EXTRACT: note_on channel=0 note=45 velocity=0 time=0
EXTRACT: note_on channel=0 note=41 velocity=70 time=0.0044642833333333335
EXTRACT: note_on channel=0 note=57 velocity=73 time=0
EXTRACT: note_on channel=0 note=60 velocity=88 time=0
EXTRACT: note_on channel=0 note=65 velocity=86 time=0
EXTRACT: control_change channel=0 control=64 value=0 time=0
EXTRACT: note_on channel=0 note=29 velocity=90 time=0
EXTRACT: note_on channel=1 note=29 velocity=60 time=0
EXTRACT: control_change channel=0 control=64 value=127 time=0.2589284333333333
EXTRACT: note_on channel=0 note=65 velocity=0 time=0.11607136666666668
EXTRACT: note_on channel=0 note=57 velocity=0 time=0.013392850000000001
EXTRACT: note_on channel=0 note=60 velocity=0 time=0.0044642833333333335
EXTRACT: note_on channel=3 note=62 velocity=0 time=0.04464283333333333
EXTRACT: note_on channel=0 note=60 velocity=70 time=0.09821423333333333
EXTRACT: note_on channel=0 note=65 velocity=73 time=0
EXTRACT: note_on channel=0 note=57 velocity=62 time=0
EXTRACT: note_on channel=0 note=65 velocity=0 time=0.1339285
EXTRACT: note_on channel=0 note=60 velocity=0 time=0.013392850000000001
EXTRACT: note_on channel=0 note=57 velocity=0 time=0.013392850000000001
EXTRACT: note_on channel=0 note=60 velocity=84 time=0.3749998
EXTRACT: note_on channel=0 note=65 velocity=88 time=0
EXTRACT: note_on channel=0 note=57 velocity=79 time=0
EXTRACT: note_on channel=0 note=60 velocity=0 time=0.14732135000000002
EXTRACT: note_on channel=0 note=65 velocity=0 time=0.017857133333333334
EXTRACT: note_on channel=0 note=57 velocity=0 time=0.013392850000000001
EXTRACT: control_change channel=0 control=64 value=0 time=0.3482141
EXTRACT: note_on channel=0 note=65 velocity=88 time=0.008928566666666667
EXTRACT: note_on channel=0 note=57 velocity=73 time=0
EXTRACT: note_on channel=0 note=60 velocity=84 time=0
EXTRACT: control_change channel=0 control=64 value=127 time=0.18303561666666668
EXTRACT: note_on channel=3 note=67 velocity=110 time=0.08482138333333333
EXTRACT: note_on channel=9 note=35 velocity=52 time=0
EXTRACT: note_on channel=0 note=65 velocity=0 time=0.031249983333333335
EXTRACT: note_on channel=0 note=60 velocity=0 time=0.013392850000000001
EXTRACT: note_on channel=0 note=57 velocity=0 time=0.0044642833333333335
EXTRACT: note_on channel=9 note=35 velocity=0 time=0.022321416666666666
EXTRACT: note_on channel=0 note=41 velocity=0 time=0.19196418333333334
EXTRACT: note_on channel=1 note=29 velocity=0 time=0
EXTRACT: note_on channel=0 note=29 velocity=0 time=0.0044642833333333335
EXTRACT: note_on channel=0 note=36 velocity=90 time=0
EXTRACT: note_on channel=0 note=48 velocity=70 time=0
EXTRACT: note_on channel=0 note=60 velocity=88 time=0
EXTRACT: note_on channel=0 note=64 velocity=86 time=0
EXTRACT: note_on channel=0 note=55 velocity=73 time=0
EXTRACT: control_change channel=0 control=64 value=0 time=0
EXTRACT: note_on channel=1 note=36 velocity=60 time=0
EXTRACT: note_on channel=9 note=35 velocity=65 time=0
EXTRACT: note_on channel=9 note=35 velocity=0 time=0.04017855
EXTRACT: note_on channel=3 note=67 velocity=0 time=0.026785700000000003
EXTRACT: control_change channel=0 control=64 value=127 time=0.19196418333333334
EXTRACT: note_on channel=3 note=64 velocity=88 time=0.008928566666666667
EXTRACT: note_on channel=0 note=64 velocity=0 time=0.10714280000000001
EXTRACT: note_on channel=3 note=64 velocity=0 time=0.0044642833333333335
EXTRACT: note_on channel=0 note=55 velocity=0 time=0.008928566666666667
EXTRACT: note_on channel=0 note=60 velocity=0 time=0.0044642833333333335
EXTRACT: note_on channel=0 note=55 velocity=62 time=0.14285706666666667
EXTRACT: note_on channel=0 note=64 velocity=73 time=0
EXTRACT: note_on channel=0 note=60 velocity=70 time=0
EXTRACT: note_on channel=3 note=67 velocity=120 time=0
EXTRACT: note_on channel=0 note=64 velocity=0 time=0.1339285
EXTRACT: note_on channel=0 note=60 velocity=0 time=0.013392850000000001
EXTRACT: note_on channel=0 note=55 velocity=0 time=0.013392850000000001
EXTRACT: note_on channel=3 note=67 velocity=0 time=0.24553558333333333
EXTRACT: note_on channel=0 note=60 velocity=84 time=0.12946421666666666
EXTRACT: note_on channel=0 note=64 velocity=88 time=0
EXTRACT: note_on channel=0 note=55 velocity=79 time=0
EXTRACT: note_on channel=3 note=64 velocity=106 time=0
EXTRACT: note_on channel=0 note=60 velocity=0 time=0.14732135000000002
EXTRACT: note_on channel=0 note=64 velocity=0 time=0.017857133333333334
EXTRACT: note_on channel=0 note=55 velocity=0 time=0.013392850000000001
EXTRACT: note_on channel=3 note=64 velocity=0 time=0.049107116666666666
EXTRACT: note_on channel=3 note=62 velocity=101 time=0.04017855
EXTRACT: note_on channel=3 note=62 velocity=0 time=0.0803571
EXTRACT: control_change channel=0 control=64 value=0 time=0.17857133333333333
EXTRACT: note_on channel=0 note=55 velocity=73 time=0.008928566666666667
EXTRACT: note_on channel=0 note=64 velocity=88 time=0
EXTRACT: note_on channel=0 note=60 velocity=84 time=0
EXTRACT: note_on channel=3 note=64 velocity=97 time=0
EXTRACT: control_change channel=0 control=64 value=127 time=0.18303561666666668
EXTRACT: note_on channel=0 note=64 velocity=0 time=0.11607136666666668
EXTRACT: note_on channel=0 note=60 velocity=0 time=0.013392850000000001
EXTRACT: note_on channel=0 note=55 velocity=0 time=0.0044642833333333335
EXTRACT: note_on channel=3 note=64 velocity=0 time=0.09821423333333333
EXTRACT: note_on channel=0 note=36 velocity=0 time=0.11160708333333334
EXTRACT: note_on channel=0 note=48 velocity=0 time=0.0044642833333333335
EXTRACT: note_on channel=1 note=36 velocity=0 time=0
EXTRACT: note_on channel=0 note=50 velocity=70 time=0.0044642833333333335
EXTRACT: note_on channel=0 note=57 velocity=73 time=0
EXTRACT: control_change channel=0 control=64 value=0 time=0
EXTRACT: note_on channel=0 note=65 velocity=86 time=0
EXTRACT: note_on channel=0 note=62 velocity=88 time=0
EXTRACT: note_on channel=0 note=38 velocity=90 time=0
EXTRACT: note_on channel=1 note=38 velocity=60 time=0
EXTRACT: note_on channel=3 note=62 velocity=106 time=0
EXTRACT: note_on channel=3 note=62 velocity=0 time=0.22321416666666669
EXTRACT: control_change channel=0 control=64 value=127 time=0.03571426666666667
EXTRACT: note_on channel=3 note=60 velocity=95 time=0.008928566666666667
EXTRACT: note_on channel=3 note=60 velocity=0 time=0.0803571
EXTRACT: note_on channel=0 note=65 velocity=0 time=0.026785700000000003
EXTRACT: note_on channel=0 note=57 velocity=0 time=0.013392850000000001
EXTRACT: note_on channel=0 note=62 velocity=0 time=0.0044642833333333335
EXTRACT: note_on channel=0 note=62 velocity=70 time=0.14285706666666667
EXTRACT: note_on channel=0 note=65 velocity=73 time=0
EXTRACT: note_on channel=0 note=57 velocity=62 time=0
EXTRACT: note_on channel=3 note=62 velocity=110 time=0
EXTRACT: note_on channel=0 note=65 velocity=0 time=0.1339285
EXTRACT: note_on channel=0 note=62 velocity=0 time=0.013392850000000001
EXTRACT: note_on channel=0 note=57 velocity=0 time=0.013392850000000001
EXTRACT: note_on channel=3 note=62 velocity=0 time=0.24553558333333333
EXTRACT: note_on channel=0 note=62 velocity=84 time=0.12946421666666666
EXTRACT: note_on channel=0 note=65 velocity=88 time=0
EXTRACT: note_on channel=0 note=57 velocity=79 time=0
EXTRACT: note_on channel=3 note=57 velocity=108 time=0
EXTRACT: note_on channel=0 note=62 velocity=0 time=0.14732135000000002
EXTRACT: note_on channel=0 note=65 velocity=0 time=0.017857133333333334
EXTRACT: note_on channel=0 note=57 velocity=0 time=0.013392850000000001
EXTRACT: note_on channel=3 note=57 velocity=0 time=0.3258926833333333
EXTRACT: control_change channel=0 control=64 value=0 time=0.022321416666666666
EXTRACT: note_on channel=0 note=57 velocity=73 time=0.008928566666666667
EXTRACT: note_on channel=0 note=65 velocity=88 time=0
EXTRACT: note_on channel=0 note=62 velocity=84 time=0
EXTRACT: note_on channel=3 note=55 velocity=102 time=0
EXTRACT: control_change channel=0 control=64 value=127 time=0.18303561666666668
EXTRACT: note_on channel=3 note=60 velocity=95 time=0.08482138333333333
EXTRACT: note_on channel=3 note=55 velocity=0 time=0.0044642833333333335
EXTRACT: note_on channel=0 note=65 velocity=0 time=0.026785700000000003
EXTRACT: note_on channel=0 note=62 velocity=0 time=0.013392850000000001
EXTRACT: note_on channel=0 note=57 velocity=0 time=0.0044642833333333335
EXTRACT: note_on channel=3 note=60 velocity=0 time=0.18303561666666668
EXTRACT: note_on channel=0 note=50 velocity=0 time=0.031249983333333335
EXTRACT: note_on channel=1 note=38 velocity=0 time=0
EXTRACT: note_on channel=0 note=45 velocity=70 time=0.0044642833333333335
EXTRACT: note_on channel=0 note=57 velocity=73 time=0
EXTRACT: note_on channel=0 note=60 velocity=88 time=0
EXTRACT: note_on channel=0 note=64 velocity=86 time=0
EXTRACT: note_on channel=0 note=33 velocity=90 time=0
EXTRACT: control_change channel=0 control=64 value=0 time=0
EXTRACT: note_on channel=1 note=33 velocity=60 time=0
EXTRACT: note_on channel=0 note=38 velocity=0 time=0.03571426666666667
EXTRACT: control_change channel=0 control=64 value=127 time=0.22321416666666669
EXTRACT: note_on channel=3 note=60 velocity=102 time=0.008928566666666667
EXTRACT: note_on channel=0 note=64 velocity=0 time=0.10714280000000001
EXTRACT: note_on channel=0 note=57 velocity=0 time=0.013392850000000001
EXTRACT: note_on channel=0 note=60 velocity=0 time=0.0044642833333333335
EXTRACT: note_on channel=0 note=64 velocity=73 time=0.14285706666666667
EXTRACT: note_on channel=0 note=60 velocity=70 time=0
EXTRACT: note_on channel=0 note=57 velocity=62 time=0
EXTRACT: note_on channel=3 note=60 velocity=0 time=0.12499993333333334
EXTRACT: note_on channel=0 note=64 velocity=0 time=0.008928566666666667
EXTRACT: note_on channel=0 note=60 velocity=0 time=0.013392850000000001
EXTRACT: note_on channel=0 note=57 velocity=0 time=0.013392850000000001
EXTRACT: note_on channel=3 note=55 velocity=106 time=0.10714280000000001
EXTRACT: note_on channel=3 note=55 velocity=0 time=0.15624991666666668
EXTRACT: note_on channel=0 note=64 velocity=88 time=0.11160708333333334
EXTRACT: note_on channel=0 note=60 velocity=84 time=0
EXTRACT: note_on channel=0 note=57 velocity=79 time=0
EXTRACT: note_on channel=3 note=60 velocity=98 time=0
EXTRACT: note_on channel=0 note=60 velocity=0 time=0.14732135000000002
EXTRACT: note_on channel=0 note=64 velocity=0 time=0.017857133333333334
EXTRACT: note_on channel=0 note=57 velocity=0 time=0.013392850000000001
EXTRACT: control_change channel=0 control=64 value=0 time=0.3482141
EXTRACT: note_on channel=3 note=60 velocity=0 time=0.0044642833333333335
EXTRACT: note_on channel=0 note=64 velocity=88 time=0.0044642833333333335
EXTRACT: note_on channel=0 note=57 velocity=73 time=0
EXTRACT: note_on channel=0 note=60 velocity=84 time=0
EXTRACT: note_on channel=3 note=62 velocity=110 time=0
EXTRACT: note_on channel=3 note=62 velocity=0 time=0.15178563333333334
EXTRACT: control_change channel=0 control=64 value=127 time=0.031249983333333335
EXTRACT: note_on channel=3 note=62 velocity=98 time=0.08482138333333333
EXTRACT: note_on channel=0 note=64 velocity=0 time=0.031249983333333335
EXTRACT: note_on channel=0 note=60 velocity=0 time=0.013392850000000001
EXTRACT: note_on channel=0 note=57 velocity=0 time=0.0044642833333333335
EXTRACT: note_on channel=1 note=33 velocity=0 time=0.20089275
EXTRACT: note_on channel=0 note=45 velocity=0 time=0.013392850000000001
EXTRACT: note_on channel=0 note=33 velocity=0 time=0.0044642833333333335
EXTRACT: note_on channel=0 note=41 velocity=70 time=0
EXTRACT: note_on channel=0 note=57 velocity=73 time=0
EXTRACT: control_change channel=0 control=64 value=0 time=0
EXTRACT: note_on channel=0 note=65 velocity=86 time=0
EXTRACT: note_on channel=0 note=60 velocity=88 time=0
EXTRACT: note_on channel=0 note=29 velocity=90 time=0
EXTRACT: note_on channel=1 note=29 velocity=60 time=0
EXTRACT: control_change channel=0 control=64 value=127 time=0.2589284333333333
EXTRACT: note_on channel=0 note=65 velocity=0 time=0.11607136666666668
EXTRACT: note_on channel=0 note=57 velocity=0 time=0.013392850000000001
EXTRACT: note_on channel=0 note=60 velocity=0 time=0.0044642833333333335
EXTRACT: note_on channel=3 note=62 velocity=0 time=0.008928566666666667
EXTRACT: note_on channel=0 note=60 velocity=70 time=0.1339285
EXTRACT: note_on channel=0 note=65 velocity=73 time=0
EXTRACT: note_on channel=0 note=57 velocity=62 time=0
EXTRACT: note_on channel=0 note=65 velocity=0 time=0.1339285
EXTRACT: note_on channel=0 note=60 velocity=0 time=0.013392850000000001
EXTRACT: note_on channel=0 note=57 velocity=0 time=0.013392850000000001
EXTRACT: note_on channel=3 note=60 velocity=102 time=0.10714280000000001
EXTRACT: note_on channel=3 note=60 velocity=0 time=0.12946421666666666
EXTRACT: note_on channel=0 note=65 velocity=88 time=0.13839278333333332
EXTRACT: note_on channel=0 note=57 velocity=79 time=0
EXTRACT: note_on channel=0 note=60 velocity=84 time=0
EXTRACT: note_on channel=3 note=64 velocity=111 time=0
EXTRACT: note_on channel=0 note=60 velocity=0 time=0.14732135000000002
EXTRACT: note_on channel=0 note=65 velocity=0 time=0.017857133333333334
EXTRACT: note_on channel=0 note=57 velocity=0 time=0.013392850000000001
EXTRACT: note_on channel=3 note=64 velocity=0 time=0.20535703333333333
EXTRACT: note_on channel=3 note=62 velocity=110 time=0.017857133333333334
EXTRACT: note_on channel=3 note=62 velocity=0 time=0.11607136666666668
EXTRACT: control_change channel=0 control=64 value=0 time=0.008928566666666667
EXTRACT: note_on channel=0 note=60 velocity=84 time=0.008928566666666667
EXTRACT: note_on channel=0 note=65 velocity=88 time=0
EXTRACT: note_on channel=0 note=57 velocity=73 time=0
EXTRACT: note_on channel=3 note=60 velocity=95 time=0
EXTRACT: control_change channel=0 control=64 value=127 time=0.18303561666666668
EXTRACT: note_on channel=0 note=65 velocity=0 time=0.11607136666666668
EXTRACT: note_on channel=0 note=60 velocity=0 time=0.013392850000000001
EXTRACT: note_on channel=0 note=57 velocity=0 time=0.0044642833333333335
EXTRACT: note_on channel=3 note=60 velocity=0 time=0.008928566666666667
EXTRACT: note_on channel=3 note=64 velocity=95 time=0.07589281666666667
EXTRACT: note_on channel=0 note=41 velocity=0 time=0.12946421666666666
EXTRACT: note_on channel=1 note=29 velocity=0 time=0
EXTRACT: control_change channel=0 control=64 value=0 time=0.0044642833333333335
EXTRACT: note_on channel=0 note=55 velocity=73 time=0
EXTRACT: note_on channel=0 note=60 velocity=90 time=0
EXTRACT: note_on channel=0 note=36 velocity=84 time=0
EXTRACT: note_on channel=0 note=64 velocity=86 time=0
EXTRACT: note_on channel=0 note=48 velocity=82 time=0
EXTRACT: note_on channel=1 note=36 velocity=60 time=0
EXTRACT: note_on channel=9 note=35 velocity=56 time=0
EXTRACT: note_on channel=0 note=29 velocity=0 time=0.013392850000000001
EXTRACT: note_on channel=9 note=35 velocity=0 time=0.08482138333333333
EXTRACT: control_change channel=0 control=64 value=127 time=0.049107116666666666
EXTRACT: note_on channel=0 note=64 velocity=0 time=0.14732135000000002
EXTRACT: note_on channel=0 note=55 velocity=0 time=0
EXTRACT: note_on channel=0 note=60 velocity=0 time=0.017857133333333334
EXTRACT: note_on channel=0 note=64 velocity=84 time=0.22321416666666669
EXTRACT: note_on channel=0 note=55 velocity=69 time=0
EXTRACT: note_on channel=0 note=60 velocity=84 time=0
EXTRACT: note_on channel=0 note=64 velocity=0 time=0.14285706666666667
EXTRACT: note_on channel=0 note=60 velocity=0 time=0.013392850000000001
EXTRACT: note_on channel=0 note=55 velocity=0 time=0.008928566666666667
EXTRACT: note_on channel=0 note=64 velocity=88 time=0.3705355166666667
EXTRACT: note_on channel=0 note=60 velocity=84 time=0
EXTRACT: note_on channel=0 note=55 velocity=69 time=0
EXTRACT: note_on channel=0 note=64 velocity=0 time=0.17857133333333333
EXTRACT: note_on channel=0 note=55 velocity=0 time=0.008928566666666667
EXTRACT: note_on channel=0 note=60 velocity=0 time=0.0044642833333333335
EXTRACT: note_on channel=0 note=48 velocity=0 time=0.23214273333333335
EXTRACT: note_on channel=0 note=36 velocity=0 time=0.031249983333333335
EXTRACT: control_change channel=0 control=64 value=0 time=0.06249996666666667
EXTRACT: note_on channel=1 note=36 velocity=0 time=0.013392850000000001
EXTRACT: note_on channel=0 note=57 velocity=105 time=0.0044642833333333335
EXTRACT: note_on channel=0 note=62 velocity=107 time=0
EXTRACT: note_on channel=0 note=50 velocity=79 time=0
EXTRACT: note_on channel=0 note=65 velocity=107 time=0
EXTRACT: control_change channel=0 control=64 value=127 time=0.14732135000000002
EXTRACT: control_change channel=0 control=64 value=0 time=0.28124985
EXTRACT: note_on channel=0 note=65 velocity=0 time=0.10267851666666666
EXTRACT: note_on channel=0 note=62 velocity=0 time=0
EXTRACT: note_on channel=0 note=57 velocity=0 time=0
EXTRACT: note_on channel=0 note=50 velocity=0 time=0.0044642833333333335
EXTRACT: note_on channel=0 note=60 velocity=88 time=0
EXTRACT: note_on channel=0 note=64 velocity=75 time=0
EXTRACT: note_on channel=0 note=45 velocity=70 time=0
EXTRACT: note_on channel=0 note=57 velocity=69 time=0
EXTRACT: control_change channel=0 control=64 value=127 time=0.25446415
EXTRACT: note_on channel=0 note=64 velocity=0 time=0.10267851666666666
EXTRACT: note_on channel=0 note=57 velocity=0 time=0.008928566666666667
EXTRACT: note_on channel=0 note=60 velocity=0 time=0.0044642833333333335
EXTRACT: note_on channel=0 note=57 velocity=65 time=0.16517848333333335
EXTRACT: note_on channel=0 note=64 velocity=68 time=0
EXTRACT: note_on channel=0 note=60 velocity=82 time=0
EXTRACT: note_on channel=0 note=64 velocity=0 time=0.11160708333333334
EXTRACT: note_on channel=0 note=60 velocity=0 time=0.008928566666666667
EXTRACT: note_on channel=0 note=57 velocity=0 time=0.013392850000000001
EXTRACT: note_on channel=0 note=57 velocity=66 time=0.4017855
EXTRACT: note_on channel=0 note=64 velocity=71 time=0
EXTRACT: note_on channel=0 note=60 velocity=74 time=0
EXTRACT: note_on channel=0 note=64 velocity=0 time=0.13839278333333332
EXTRACT: note_on channel=0 note=60 velocity=0 time=0.008928566666666667
EXTRACT: note_on channel=0 note=57 velocity=0 time=0.013392850000000001
EXTRACT: control_change channel=0 control=64 value=0 time=0.3482141
EXTRACT: note_on channel=0 note=64 velocity=71 time=0.026785700000000003
EXTRACT: note_on channel=0 note=60 velocity=82 time=0
EXTRACT: note_on channel=0 note=55 velocity=73 time=0
EXTRACT: control_change channel=0 control=64 value=127 time=0.16517848333333335
EXTRACT: note_on channel=3 note=64 velocity=0 time=0.11607136666666668
EXTRACT: note_on channel=0 note=60 velocity=0 time=0.031249983333333335
EXTRACT: note_on channel=0 note=64 velocity=0 time=0
EXTRACT: note_on channel=0 note=55 velocity=0 time=0.017857133333333334
EXTRACT: note_on channel=0 note=45 velocity=0 time=0.20089275
EXTRACT: note_on channel=0 note=45 velocity=70 time=0.0044642833333333335
EXTRACT: note_on channel=0 note=64 velocity=75 time=0
EXTRACT: note_on channel=0 note=60 velocity=88 time=0
EXTRACT: note_on channel=0 note=57 velocity=69 time=0
EXTRACT: control_change channel=0 control=64 value=0 time=0.017857133333333334
EXTRACT: control_change channel=0 control=64 value=127 time=0.25446415
EXTRACT: note_on channel=0 note=64 velocity=0 time=0.08482138333333333
EXTRACT: note_on channel=0 note=57 velocity=0 time=0.008928566666666667
EXTRACT: note_on channel=0 note=60 velocity=0 time=0.0044642833333333335
EXTRACT: note_on channel=0 note=57 velocity=65 time=0.16517848333333335
EXTRACT: note_on channel=0 note=64 velocity=68 time=0
EXTRACT: note_on channel=0 note=60 velocity=82 time=0
EXTRACT: note_on channel=0 note=64 velocity=0 time=0.11160708333333334
EXTRACT: note_on channel=0 note=60 velocity=0 time=0.008928566666666667
EXTRACT: note_on channel=0 note=57 velocity=0 time=0.013392850000000001
EXTRACT: note_on channel=0 note=57 velocity=66 time=0.4017855
EXTRACT: note_on channel=0 note=64 velocity=71 time=0
EXTRACT: note_on channel=0 note=60 velocity=74 time=0
EXTRACT: note_on channel=0 note=64 velocity=0 time=0.13839278333333332
EXTRACT: note_on channel=0 note=60 velocity=0 time=0.008928566666666667
EXTRACT: note_on channel=0 note=57 velocity=0 time=0.013392850000000001
EXTRACT: note_on channel=0 note=60 velocity=82 time=0.3749998
EXTRACT: note_on channel=0 note=64 velocity=71 time=0
EXTRACT: note_on channel=0 note=55 velocity=73 time=0
EXTRACT: control_change channel=0 control=64 value=0 time=0.40624978333333334
EXTRACT: note_on channel=0 note=64 velocity=0 time=0.10714280000000001
EXTRACT: note_on channel=0 note=60 velocity=0 time=0.0044642833333333335
EXTRACT: note_on channel=0 note=45 velocity=0 time=0.013392850000000001
EXTRACT: note_on channel=0 note=55 velocity=0 time=0
EXTRACT: note_on channel=0 note=45 velocity=70 time=0.0044642833333333335
EXTRACT: note_on channel=0 note=64 velocity=75 time=0
EXTRACT: note_on channel=0 note=60 velocity=88 time=0
EXTRACT: note_on channel=0 note=57 velocity=69 time=0
EXTRACT: control_change channel=0 control=64 value=127 time=0.20089275
EXTRACT: note_on channel=0 note=64 velocity=0 time=0.15624991666666668
EXTRACT: note_on channel=0 note=57 velocity=0 time=0.008928566666666667
EXTRACT: note_on channel=0 note=60 velocity=0 time=0.0044642833333333335
EXTRACT: note_on channel=0 note=60 velocity=82 time=0.16517848333333335
EXTRACT: note_on channel=0 note=64 velocity=68 time=0
EXTRACT: note_on channel=0 note=57 velocity=65 time=0
EXTRACT: note_on channel=0 note=64 velocity=0 time=0.11160708333333334
EXTRACT: note_on channel=0 note=60 velocity=0 time=0.008928566666666667
EXTRACT: note_on channel=0 note=57 velocity=0 time=0.013392850000000001
EXTRACT: note_on channel=0 note=64 velocity=71 time=0.4017855
EXTRACT: note_on channel=0 note=57 velocity=66 time=0
EXTRACT: note_on channel=0 note=60 velocity=74 time=0
EXTRACT: note_on channel=0 note=64 velocity=0 time=0.13839278333333332
EXTRACT: note_on channel=0 note=60 velocity=0 time=0.008928566666666667
EXTRACT: note_on channel=0 note=57 velocity=0 time=0.013392850000000001
EXTRACT: note_on channel=0 note=60 velocity=82 time=0.3749998
EXTRACT: note_on channel=0 note=64 velocity=71 time=0
EXTRACT: note_on channel=0 note=55 velocity=73 time=0
EXTRACT: control_change channel=0 control=64 value=0 time=0.0044642833333333335
EXTRACT: note_on channel=0 note=64 velocity=0 time=0.5089283
EXTRACT: note_on channel=0 note=60 velocity=0 time=0.0044642833333333335
EXTRACT: note_on channel=0 note=45 velocity=0 time=0.013392850000000001
EXTRACT: note_on channel=0 note=55 velocity=0 time=0
EXTRACT: note_on channel=0 note=48 velocity=70 time=0.0044642833333333335
EXTRACT: note_on channel=0 note=64 velocity=86 time=0
EXTRACT: note_on channel=0 note=60 velocity=88 time=0
EXTRACT: note_on channel=0 note=55 velocity=73 time=0
EXTRACT: control_change channel=0 control=64 value=127 time=0.2589284333333333
EXTRACT: note_on channel=4 note=64 velocity=105 time=0.008928566666666667
EXTRACT: note_on channel=0 note=64 velocity=0 time=0.10714280000000001
EXTRACT: note_on channel=0 note=55 velocity=0 time=0.013392850000000001
EXTRACT: note_on channel=0 note=60 velocity=0 time=0.0044642833333333335
EXTRACT: note_on channel=4 note=64 velocity=0 time=0.07589281666666667
EXTRACT: note_on channel=0 note=60 velocity=70 time=0.06696425
EXTRACT: note_on channel=0 note=64 velocity=73 time=0
EXTRACT: note_on channel=0 note=55 velocity=62 time=0
EXTRACT: note_on channel=4 note=67 velocity=108 time=0
EXTRACT: note_on channel=0 note=64 velocity=0 time=0.1339285
EXTRACT: note_on channel=0 note=60 velocity=0 time=0.013392850000000001
EXTRACT: note_on channel=0 note=55 velocity=0 time=0.013392850000000001
EXTRACT: note_on channel=4 note=67 velocity=0 time=0.25446415
EXTRACT: note_on channel=0 note=64 velocity=88 time=0.12053565000000001
EXTRACT: note_on channel=0 note=55 velocity=79 time=0
EXTRACT: note_on channel=0 note=60 velocity=84 time=0
EXTRACT: note_on channel=4 note=67 velocity=116 time=0
EXTRACT: note_on channel=0 note=60 velocity=0 time=0.14732135000000002
EXTRACT: note_on channel=0 note=64 velocity=0 time=0.017857133333333334
EXTRACT: note_on channel=0 note=55 velocity=0 time=0.013392850000000001
EXTRACT: note_on channel=0 note=48 velocity=0 time=0.11607136666666668
EXTRACT: note_on channel=4 note=67 velocity=0 time=0.19642846666666666
EXTRACT: control_change channel=0 control=64 value=0 time=0.03571426666666667
EXTRACT: note_on channel=0 note=57 velocity=73 time=0.008928566666666667
EXTRACT: note_on channel=0 note=62 velocity=84 time=0
EXTRACT: note_on channel=0 note=65 velocity=88 time=0
EXTRACT: note_on channel=0 note=50 velocity=70 time=0
EXTRACT: note_on channel=4 note=64 velocity=105 time=0
EXTRACT: control_change channel=0 control=64 value=127 time=0.18303561666666668
EXTRACT: note_on channel=4 note=64 velocity=0 time=0.022321416666666666
EXTRACT: note_on channel=4 note=67 velocity=96 time=0.06249996666666667
EXTRACT: note_on channel=0 note=65 velocity=0 time=0.031249983333333335
EXTRACT: note_on channel=0 note=62 velocity=0 time=0.013392850000000001
EXTRACT: note_on channel=0 note=57 velocity=0 time=0.0044642833333333335
EXTRACT: note_on channel=0 note=50 velocity=0 time=0.06249996666666667
EXTRACT: note_on channel=4 note=67 velocity=0 time=0.11607136666666668
EXTRACT: note_on channel=0 note=57 velocity=69 time=0.04017855
EXTRACT: note_on channel=0 note=60 velocity=88 time=0
EXTRACT: control_change channel=0 control=64 value=0 time=0
EXTRACT: note_on channel=0 note=64 velocity=75 time=0
EXTRACT: note_on channel=0 note=45 velocity=70 time=0
EXTRACT: note_on channel=4 note=69 velocity=112 time=0
EXTRACT: control_change channel=0 control=64 value=127 time=0.25446415
EXTRACT: note_on channel=0 note=64 velocity=0 time=0.10267851666666666
EXTRACT: note_on channel=0 note=57 velocity=0 time=0.008928566666666667
EXTRACT: note_on channel=0 note=60 velocity=0 time=0.0044642833333333335
EXTRACT: note_on channel=4 note=69 velocity=0 time=0.10714280000000001
EXTRACT: note_on channel=0 note=60 velocity=82 time=0.05803568333333334
EXTRACT: note_on channel=0 note=64 velocity=68 time=0
EXTRACT: note_on channel=0 note=57 velocity=65 time=0
EXTRACT: note_on channel=4 note=64 velocity=112 time=0
EXTRACT: note_on channel=0 note=64 velocity=0 time=0.11160708333333334
EXTRACT: note_on channel=0 note=60 velocity=0 time=0.008928566666666667
EXTRACT: note_on channel=0 note=57 velocity=0 time=0.013392850000000001
EXTRACT: note_on channel=4 note=64 velocity=0 time=0.36607123333333336
EXTRACT: note_on channel=0 note=60 velocity=74 time=0.03571426666666667
EXTRACT: note_on channel=0 note=64 velocity=71 time=0
EXTRACT: note_on channel=0 note=57 velocity=66 time=0
EXTRACT: note_on channel=4 note=62 velocity=108 time=0
EXTRACT: note_on channel=0 note=64 velocity=0 time=0.13839278333333332
EXTRACT: note_on channel=0 note=60 velocity=0 time=0.008928566666666667
EXTRACT: note_on channel=0 note=57 velocity=0 time=0.013392850000000001
EXTRACT: note_on channel=4 note=62 velocity=0 time=0.0803571
EXTRACT: note_on channel=4 note=64 velocity=120 time=0.026785700000000003
EXTRACT: control_change channel=0 control=64 value=0 time=0.24107130000000002
EXTRACT: note_on channel=0 note=55 velocity=73 time=0.026785700000000003
EXTRACT: note_on channel=0 note=64 velocity=71 time=0
EXTRACT: note_on channel=0 note=60 velocity=82 time=0
EXTRACT: control_change channel=0 control=64 value=127 time=0.16517848333333335
EXTRACT: note_on channel=0 note=60 velocity=0 time=0.14732135000000002
EXTRACT: note_on channel=0 note=64 velocity=0 time=0
EXTRACT: note_on channel=0 note=55 velocity=0 time=0.017857133333333334
EXTRACT: note_on channel=0 note=45 velocity=0 time=0.20089275
EXTRACT: note_on channel=0 note=60 velocity=88 time=0.0044642833333333335
EXTRACT: note_on channel=0 note=64 velocity=75 time=0
EXTRACT: note_on channel=0 note=57 velocity=69 time=0
EXTRACT: note_on channel=0 note=45 velocity=70 time=0
EXTRACT: control_change channel=0 control=64 value=0 time=0.017857133333333334
EXTRACT: control_change channel=0 control=64 value=127 time=0.25446415
EXTRACT: note_on channel=0 note=64 velocity=0 time=0.08482138333333333
EXTRACT: note_on channel=0 note=57 velocity=0 time=0.008928566666666667
EXTRACT: note_on channel=0 note=60 velocity=0 time=0.0044642833333333335
EXTRACT: note_on channel=4 note=64 velocity=0 time=0.07142853333333334
EXTRACT: note_on channel=0 note=57 velocity=65 time=0.09374995
EXTRACT: note_on channel=0 note=64 velocity=68 time=0
EXTRACT: note_on channel=0 note=60 velocity=82 time=0
EXTRACT: note_on channel=0 note=64 velocity=0 time=0.11160708333333334
EXTRACT: note_on channel=0 note=60 velocity=0 time=0.008928566666666667
EXTRACT: note_on channel=0 note=57 velocity=0 time=0.013392850000000001
EXTRACT: note_on channel=0 note=57 velocity=66 time=0.4017855
EXTRACT: note_on channel=0 note=64 velocity=71 time=0
EXTRACT: note_on channel=0 note=60 velocity=74 time=0
EXTRACT: note_on channel=0 note=64 velocity=0 time=0.13839278333333332
EXTRACT: note_on channel=0 note=60 velocity=0 time=0.008928566666666667
EXTRACT: note_on channel=0 note=57 velocity=0 time=0.013392850000000001
EXTRACT: note_on channel=0 note=55 velocity=73 time=0.3749998
EXTRACT: note_on channel=0 note=64 velocity=71 time=0
EXTRACT: note_on channel=0 note=60 velocity=82 time=0
EXTRACT: control_change channel=0 control=64 value=0 time=0.40624978333333334
EXTRACT: note_on channel=0 note=64 velocity=0 time=0.10714280000000001
EXTRACT: note_on channel=0 note=60 velocity=0 time=0.0044642833333333335
EXTRACT: note_on channel=0 note=55 velocity=0 time=0.013392850000000001
EXTRACT: note_on channel=0 note=45 velocity=0 time=0
EXTRACT: note_on channel=0 note=60 velocity=88 time=0.0044642833333333335
EXTRACT: note_on channel=0 note=64 velocity=75 time=0
EXTRACT: note_on channel=0 note=45 velocity=70 time=0
EXTRACT: note_on channel=0 note=57 velocity=69 time=0
EXTRACT: control_change channel=0 control=64 value=127 time=0.20089275
EXTRACT: note_on channel=0 note=64 velocity=0 time=0.15624991666666668
EXTRACT: note_on channel=0 note=57 velocity=0 time=0.008928566666666667
EXTRACT: note_on channel=0 note=60 velocity=0 time=0.0044642833333333335
EXTRACT: note_on channel=0 note=57 velocity=65 time=0.16517848333333335
EXTRACT: note_on channel=0 note=64 velocity=68 time=0
EXTRACT: note_on channel=0 note=60 velocity=82 time=0
EXTRACT: note_on channel=0 note=64 velocity=0 time=0.11160708333333334
EXTRACT: note_on channel=0 note=60 velocity=0 time=0.008928566666666667
EXTRACT: note_on channel=0 note=57 velocity=0 time=0.013392850000000001
EXTRACT: note_on channel=0 note=57 velocity=66 time=0.4017855
EXTRACT: note_on channel=0 note=64 velocity=71 time=0
EXTRACT: note_on channel=0 note=60 velocity=74 time=0
EXTRACT: note_on channel=0 note=64 velocity=0 time=0.13839278333333332
EXTRACT: note_on channel=0 note=60 velocity=0 time=0.008928566666666667
EXTRACT: note_on channel=0 note=57 velocity=0 time=0.013392850000000001
EXTRACT: note_on channel=4 note=60 velocity=108 time=0.10714280000000001
EXTRACT: note_on channel=0 note=55 velocity=73 time=0.267857
EXTRACT: note_on channel=0 note=64 velocity=71 time=0
EXTRACT: note_on channel=0 note=60 velocity=82 time=0
EXTRACT: control_change channel=0 control=64 value=0 time=0.0044642833333333335
EXTRACT: note_on channel=4 note=60 velocity=0 time=0.15624991666666668
EXTRACT: note_on channel=4 note=64 velocity=112 time=0.10714280000000001
EXTRACT: note_on channel=0 note=64 velocity=0 time=0.24553558333333333
EXTRACT: note_on channel=0 note=60 velocity=0 time=0.0044642833333333335
EXTRACT: note_on channel=0 note=45 velocity=0 time=0.013392850000000001
EXTRACT: note_on channel=0 note=55 velocity=0 time=0
EXTRACT: note_on channel=0 note=48 velocity=70 time=0.0044642833333333335
EXTRACT: note_on channel=0 note=64 velocity=86 time=0
EXTRACT: note_on channel=0 note=60 velocity=88 time=0
EXTRACT: note_on channel=0 note=55 velocity=73 time=0
EXTRACT: note_on channel=4 note=64 velocity=0 time=0.15624991666666668
EXTRACT: control_change channel=0 control=64 value=127 time=0.10267851666666666
EXTRACT: note_on channel=4 note=64 velocity=105 time=0.008928566666666667
EXTRACT: note_on channel=0 note=64 velocity=0 time=0.10714280000000001
EXTRACT: note_on channel=0 note=55 velocity=0 time=0.013392850000000001
EXTRACT: note_on channel=0 note=60 velocity=0 time=0.0044642833333333335
EXTRACT: note_on channel=0 note=60 velocity=70 time=0.14285706666666667
EXTRACT: note_on channel=0 note=64 velocity=73 time=0
EXTRACT: note_on channel=0 note=55 velocity=62 time=0
EXTRACT: note_on channel=4 note=64 velocity=0 time=0.12499993333333334
EXTRACT: note_on channel=0 note=64 velocity=0 time=0.008928566666666667
EXTRACT: note_on channel=0 note=60 velocity=0 time=0.013392850000000001
EXTRACT: note_on channel=0 note=55 velocity=0 time=0.013392850000000001
EXTRACT: note_on channel=4 note=64 velocity=102 time=0.10714280000000001
EXTRACT: note_on channel=0 note=60 velocity=84 time=0.267857
EXTRACT: note_on channel=0 note=64 velocity=88 time=0
EXTRACT: note_on channel=0 note=55 velocity=79 time=0
EXTRACT: note_on channel=0 note=60 velocity=0 time=0.14732135000000002
EXTRACT: note_on channel=4 note=64 velocity=0 time=0
EXTRACT: note_on channel=0 note=64 velocity=0 time=0.017857133333333334
EXTRACT: note_on channel=0 note=55 velocity=0 time=0.013392850000000001
EXTRACT: note_on channel=4 note=62 velocity=105 time=0.08928566666666667
EXTRACT: note_on channel=0 note=48 velocity=0 time=0.026785700000000003
EXTRACT: control_change channel=0 control=64 value=0 time=0.23214273333333335
EXTRACT: note_on channel=0 note=62 velocity=84 time=0.008928566666666667
EXTRACT: note_on channel=0 note=65 velocity=88 time=0
EXTRACT: note_on channel=0 note=50 velocity=70 time=0
EXTRACT: note_on channel=0 note=57 velocity=73 time=0
EXTRACT: note_on channel=4 note=62 velocity=0 time=0.1607142
EXTRACT: control_change channel=0 control=64 value=127 time=0.022321416666666666
EXTRACT: note_on channel=4 note=60 velocity=102 time=0.08482138333333333
EXTRACT: note_on channel=0 note=65 velocity=0 time=0.031249983333333335
EXTRACT: note_on channel=0 note=62 velocity=0 time=0.013392850000000001
EXTRACT: note_on channel=0 note=57 velocity=0 time=0.0044642833333333335
EXTRACT: note_on channel=0 note=50 velocity=0 time=0.06249996666666667
EXTRACT: note_on channel=4 note=60 velocity=0 time=0.11160708333333334
EXTRACT: control_change channel=0 control=64 value=0 time=0.04464283333333333
EXTRACT: note_on channel=0 note=60 velocity=88 time=0
EXTRACT: note_on channel=0 note=64 velocity=75 time=0
EXTRACT: note_on channel=0 note=57 velocity=69 time=0
EXTRACT: note_on channel=0 note=45 velocity=70 time=0
EXTRACT: note_on channel=4 note=62 velocity=108 time=0
EXTRACT: control_change channel=0 control=64 value=127 time=0.25446415
EXTRACT: note_on channel=0 note=64 velocity=0 time=0.10267851666666666
EXTRACT: note_on channel=0 note=57 velocity=0 time=0.008928566666666667
EXTRACT: note_on channel=0 note=60 velocity=0 time=0.0044642833333333335
EXTRACT: note_on channel=0 note=57 velocity=65 time=0.16517848333333335
EXTRACT: note_on channel=0 note=64 velocity=68 time=0
EXTRACT: note_on channel=0 note=60 velocity=82 time=0
EXTRACT: note_on channel=0 note=64 velocity=0 time=0.11160708333333334
EXTRACT: note_on channel=0 note=60 velocity=0 time=0.008928566666666667
EXTRACT: note_on channel=0 note=57 velocity=0 time=0.013392850000000001
EXTRACT: note_on channel=4 note=62 velocity=0 time=0.11160708333333334
EXTRACT: note_on channel=4 note=57 velocity=102 time=0.022321416666666666
EXTRACT: note_on channel=4 note=57 velocity=0 time=0.21428560000000002
EXTRACT: note_on channel=0 note=60 velocity=74 time=0.053571400000000005
EXTRACT: note_on channel=0 note=64 velocity=71 time=0
EXTRACT: note_on channel=0 note=57 velocity=66 time=0
EXTRACT: note_on channel=4 note=60 velocity=87 time=0
EXTRACT: note_on channel=0 note=64 velocity=0 time=0.13839278333333332
EXTRACT: note_on channel=0 note=60 velocity=0 time=0.008928566666666667
EXTRACT: note_on channel=0 note=57 velocity=0 time=0.013392850000000001
EXTRACT: note_on channel=4 note=57 velocity=105 time=0.10714280000000001
EXTRACT: note_on channel=4 note=60 velocity=0 time=0.0044642833333333335
EXTRACT: control_change channel=0 control=64 value=0 time=0.23660701666666667
EXTRACT: note_on channel=0 note=55 velocity=73 time=0.026785700000000003
EXTRACT: note_on channel=0 note=64 velocity=71 time=0
EXTRACT: note_on channel=0 note=60 velocity=82 time=0
EXTRACT: control_change channel=0 control=64 value=127 time=0.16517848333333335
EXTRACT: note_on channel=0 note=60 velocity=0 time=0.14732135000000002
EXTRACT: note_on channel=0 note=64 velocity=0 time=0
EXTRACT: note_on channel=0 note=55 velocity=0 time=0.017857133333333334
EXTRACT: note_on channel=0 note=45 velocity=0 time=0.20089275
EXTRACT: note_on channel=0 note=60 velocity=88 time=0.0044642833333333335
EXTRACT: note_on channel=0 note=64 velocity=75 time=0
EXTRACT: note_on channel=0 note=45 velocity=70 time=0
EXTRACT: note_on channel=0 note=57 velocity=69 time=0
EXTRACT: control_change channel=0 control=64 value=0 time=0.017857133333333334
EXTRACT: control_change channel=0 control=64 value=127 time=0.25446415
EXTRACT: note_on channel=0 note=64 velocity=0 time=0.08482138333333333
EXTRACT: note_on channel=0 note=57 velocity=0 time=0.008928566666666667
EXTRACT: note_on channel=0 note=60 velocity=0 time=0.0044642833333333335
EXTRACT: note_on channel=0 note=64 velocity=68 time=0.16517848333333335
EXTRACT: note_on channel=0 note=57 velocity=65 time=0
EXTRACT: note_on channel=0 note=60 velocity=82 time=0
EXTRACT: note_on channel=0 note=64 velocity=0 time=0.11160708333333334
EXTRACT: note_on channel=0 note=60 velocity=0 time=0.008928566666666667
EXTRACT: note_on channel=0 note=57 velocity=0 time=0.013392850000000001
EXTRACT: note_on channel=4 note=57 velocity=0 time=0.23660701666666667
EXTRACT: note_on channel=0 note=64 velocity=71 time=0.16517848333333335
EXTRACT: note_on channel=0 note=60 velocity=74 time=0
EXTRACT: note_on channel=0 note=57 velocity=66 time=0
EXTRACT: note_on channel=0 note=64 velocity=0 time=0.13839278333333332
EXTRACT: note_on channel=0 note=60 velocity=0 time=0.008928566666666667
EXTRACT: note_on channel=0 note=57 velocity=0 time=0.013392850000000001
EXTRACT: note_on channel=0 note=64 velocity=71 time=0.3749998
EXTRACT: note_on channel=0 note=60 velocity=82 time=0
EXTRACT: note_on channel=0 note=55 velocity=73 time=0
EXTRACT: control_change channel=0 control=64 value=0 time=0.40624978333333334
EXTRACT: note_on channel=0 note=64 velocity=0 time=0.10714280000000001
EXTRACT: note_on channel=0 note=60 velocity=0 time=0.0044642833333333335
EXTRACT: note_on channel=0 note=45 velocity=0 time=0.013392850000000001
EXTRACT: note_on channel=0 note=55 velocity=0 time=0
EXTRACT: note_on channel=0 note=57 velocity=69 time=0.0044642833333333335
EXTRACT: note_on channel=0 note=60 velocity=88 time=0
EXTRACT: note_on channel=0 note=64 velocity=75 time=0
EXTRACT: note_on channel=0 note=45 velocity=70 time=0
EXTRACT: control_change channel=0 control=64 value=127 time=0.20089275
EXTRACT: note_on channel=0 note=64 velocity=0 time=0.15624991666666668
EXTRACT: note_on channel=0 note=57 velocity=0 time=0.008928566666666667
EXTRACT: note_on channel=0 note=60 velocity=0 time=0.0044642833333333335
EXTRACT: note_on channel=0 note=57 velocity=65 time=0.16517848333333335
EXTRACT: note_on channel=0 note=64 velocity=68 time=0
EXTRACT: note_on channel=0 note=60 velocity=82 time=0
EXTRACT: note_on channel=0 note=64 velocity=0 time=0.11160708333333334
EXTRACT: note_on channel=0 note=60 velocity=0 time=0.008928566666666667
EXTRACT: note_on channel=0 note=57 velocity=0 time=0.013392850000000001
EXTRACT: note_on channel=0 note=57 velocity=66 time=0.4017855
EXTRACT: note_on channel=0 note=64 velocity=71 time=0
EXTRACT: note_on channel=0 note=60 velocity=74 time=0
EXTRACT: note_on channel=0 note=64 velocity=0 time=0.13839278333333332
EXTRACT: note_on channel=0 note=60 velocity=0 time=0.008928566666666667
EXTRACT: note_on channel=0 note=57 velocity=0 time=0.013392850000000001
EXTRACT: note_on channel=0 note=55 velocity=73 time=0.3749998
EXTRACT: note_on channel=0 note=64 velocity=71 time=0
EXTRACT: note_on channel=0 note=60 velocity=82 time=0
EXTRACT: control_change channel=0 control=64 value=0 time=0.0044642833333333335
EXTRACT: note_on channel=0 note=64 velocity=0 time=0.5089283
EXTRACT: note_on channel=0 note=60 velocity=0 time=0.0044642833333333335
EXTRACT: note_on channel=0 note=55 velocity=0 time=0.013392850000000001
EXTRACT: note_on channel=0 note=45 velocity=0 time=0
EXTRACT: note_on channel=0 note=57 velocity=75 time=0.0044642833333333335
EXTRACT: note_on channel=0 note=60 velocity=69 time=0
EXTRACT: note_on channel=0 note=53 velocity=74 time=0
EXTRACT: note_on channel=0 note=41 velocity=70 time=0
EXTRACT: note_on channel=4 note=62 velocity=120 time=0
EXTRACT: control_change channel=0 control=64 value=127 time=0.19196418333333334
EXTRACT: note_on channel=0 note=60 velocity=0 time=0.09821423333333333
EXTRACT: note_on channel=0 note=53 velocity=0 time=0.0044642833333333335
EXTRACT: note_on channel=0 note=57 velocity=0 time=0.0044642833333333335
EXTRACT: note_on channel=4 note=62 velocity=0 time=0.14732135000000002
EXTRACT: note_on channel=0 note=60 velocity=76 time=0.08928566666666667
EXTRACT: note_on channel=0 note=57 velocity=72 time=0
EXTRACT: note_on channel=0 note=53 velocity=83 time=0
EXTRACT: note_on channel=4 note=62 velocity=112 time=0
EXTRACT: note_on channel=0 note=60 velocity=0 time=0.14732135000000002
EXTRACT: note_on channel=0 note=57 velocity=0 time=0.0044642833333333335
EXTRACT: note_on channel=0 note=53 velocity=0 time=0.013392850000000001
EXTRACT: note_on channel=4 note=62 velocity=0 time=0.0803571
EXTRACT: note_on channel=4 note=60 velocity=87 time=0.022321416666666666
EXTRACT: note_on channel=4 note=60 velocity=0 time=0.19642846666666666
EXTRACT: note_on channel=0 note=60 velocity=78 time=0.07142853333333334
EXTRACT: note_on channel=0 note=57 velocity=73 time=0
EXTRACT: note_on channel=0 note=53 velocity=75 time=0
EXTRACT: note_on channel=4 note=62 velocity=116 time=0
EXTRACT: note_on channel=0 note=57 velocity=0 time=0.13839278333333332
EXTRACT: note_on channel=0 note=60 velocity=0 time=0
EXTRACT: note_on channel=0 note=53 velocity=0 time=0.008928566666666667
EXTRACT: note_on channel=4 note=62 velocity=0 time=0.31249983333333337
EXTRACT: note_on channel=0 note=60 velocity=78 time=0.07589281666666667
EXTRACT: note_on channel=0 note=57 velocity=86 time=0
EXTRACT: note_on channel=0 note=53 velocity=77 time=0
EXTRACT: note_on channel=4 note=62 velocity=108 time=0
EXTRACT: note_on channel=4 note=62 velocity=0 time=0.23214273333333335
EXTRACT: note_on channel=4 note=60 velocity=98 time=0.03571426666666667
EXTRACT: note_on channel=4 note=60 velocity=0 time=0.20982131666666667
EXTRACT: control_change channel=0 control=64 value=0 time=0.017857133333333334
EXTRACT: note_on channel=0 note=57 velocity=0 time=0.017857133333333334
EXTRACT: note_on channel=0 note=53 velocity=0 time=0.017857133333333334
EXTRACT: note_on channel=0 note=41 velocity=0 time=0
EXTRACT: note_on channel=0 note=60 velocity=0 time=0.0044642833333333335
EXTRACT: note_on channel=0 note=57 velocity=86 time=0
EXTRACT: note_on channel=0 note=62 velocity=83 time=0
EXTRACT: note_on channel=0 note=38 velocity=70 time=0
EXTRACT: note_on channel=0 note=53 velocity=85 time=0
EXTRACT: note_on channel=4 note=62 velocity=98 time=0
EXTRACT: control_change channel=0 control=64 value=127 time=0.29017841666666666
EXTRACT: note_on channel=0 note=62 velocity=0 time=0.07142853333333334
EXTRACT: note_on channel=0 note=57 velocity=0 time=0
EXTRACT: note_on channel=0 note=53 velocity=0 time=0.0044642833333333335
EXTRACT: note_on channel=4 note=62 velocity=0 time=0.06249996666666667
EXTRACT: note_on channel=0 note=53 velocity=85 time=0.10714280000000001
EXTRACT: note_on channel=0 note=62 velocity=76 time=0
EXTRACT: note_on channel=0 note=57 velocity=75 time=0
EXTRACT: note_on channel=4 note=62 velocity=94 time=0
EXTRACT: note_on channel=0 note=57 velocity=0 time=0.15624991666666668
EXTRACT: note_on channel=0 note=62 velocity=0 time=0.008928566666666667
EXTRACT: note_on channel=0 note=53 velocity=0 time=0
EXTRACT: note_on channel=4 note=62 velocity=0 time=0.06249996666666667
EXTRACT: note_on channel=4 note=60 velocity=92 time=0.04017855
EXTRACT: note_on channel=4 note=60 velocity=0 time=0.21874988333333334
EXTRACT: note_on channel=0 note=53 velocity=82 time=0.049107116666666666
EXTRACT: note_on channel=0 note=62 velocity=78 time=0
EXTRACT: note_on channel=0 note=57 velocity=79 time=0
EXTRACT: note_on channel=4 note=62 velocity=116 time=0
EXTRACT: note_on channel=0 note=57 velocity=0 time=0.13839278333333332
EXTRACT: note_on channel=0 note=62 velocity=0 time=0
EXTRACT: note_on channel=0 note=53 velocity=0 time=0.017857133333333334
EXTRACT: note_on channel=4 note=62 velocity=0 time=0.3705355166666667
EXTRACT: note_on channel=0 note=53 velocity=86 time=0.008928566666666667
EXTRACT: note_on channel=0 note=62 velocity=76 time=0
EXTRACT: note_on channel=0 note=57 velocity=75 time=0
EXTRACT: note_on channel=4 note=64 velocity=116 time=0
EXTRACT: note_on channel=4 note=64 velocity=0 time=0.24107130000000002
EXTRACT: note_on channel=4 note=60 velocity=109 time=0.026785700000000003
EXTRACT: note_on channel=0 note=57 velocity=0 time=0.23214273333333335
EXTRACT: note_on channel=0 note=62 velocity=0 time=0.008928566666666667
EXTRACT: control_change channel=0 control=64 value=0 time=0.017857133333333334
EXTRACT: note_on channel=0 note=38 velocity=0 time=0.0044642833333333335
EXTRACT: note_on channel=0 note=53 velocity=0 time=0
EXTRACT: note_on channel=0 note=57 velocity=77 time=0.0044642833333333335
EXTRACT: note_on channel=0 note=60 velocity=74 time=0
EXTRACT: note_on channel=0 note=45 velocity=70 time=0
EXTRACT: note_on channel=0 note=52 velocity=76 time=0
EXTRACT: control_change channel=0 control=64 value=127 time=0.28571413333333334
EXTRACT: note_on channel=0 note=60 velocity=0 time=0.013392850000000001
EXTRACT: note_on channel=0 note=57 velocity=0 time=0.017857133333333334
EXTRACT: note_on channel=0 note=52 velocity=0 time=0.0044642833333333335
EXTRACT: note_on channel=0 note=60 velocity=74 time=0.21428560000000002
EXTRACT: note_on channel=0 note=52 velocity=63 time=0
EXTRACT: note_on channel=0 note=57 velocity=66 time=0
EXTRACT: note_on channel=0 note=60 velocity=0 time=0.12053565000000001
EXTRACT: note_on channel=0 note=52 velocity=0 time=0.026785700000000003
EXTRACT: note_on channel=0 note=57 velocity=0 time=0
EXTRACT: note_on channel=0 note=60 velocity=71 time=0.38839265
EXTRACT: note_on channel=0 note=52 velocity=61 time=0
EXTRACT: note_on channel=0 note=57 velocity=64 time=0
EXTRACT: note_on channel=0 note=60 velocity=0 time=0.12499993333333334
EXTRACT: note_on channel=0 note=57 velocity=0 time=0.013392850000000001
EXTRACT: note_on channel=0 note=52 velocity=0 time=0.008928566666666667
EXTRACT: note_on channel=4 note=60 velocity=0 time=0.23660701666666667
EXTRACT: note_on channel=0 note=60 velocity=73 time=0.15178563333333334
EXTRACT: note_on channel=0 note=52 velocity=63 time=0
EXTRACT: note_on channel=0 note=57 velocity=56 time=0
EXTRACT: note_on channel=0 note=60 velocity=0 time=0.13839278333333332
EXTRACT: note_on channel=0 note=57 velocity=0 time=0.008928566666666667
EXTRACT: note_on channel=0 note=52 velocity=0 time=0.0044642833333333335
EXTRACT: control_change channel=0 control=64 value=0 time=0.35714266666666666
EXTRACT: note_on channel=0 note=60 velocity=74 time=0.026785700000000003
EXTRACT: note_on channel=0 note=52 velocity=76 time=0
EXTRACT: note_on channel=0 note=57 velocity=77 time=0
EXTRACT: control_change channel=0 control=64 value=127 time=0.21428560000000002
EXTRACT: note_on channel=0 note=60 velocity=0 time=0.08482138333333333
EXTRACT: note_on channel=0 note=57 velocity=0 time=0.017857133333333334
EXTRACT: note_on channel=0 note=52 velocity=0 time=0.0044642833333333335
EXTRACT: note_on channel=0 note=52 velocity=63 time=0.21428560000000002
EXTRACT: note_on channel=0 note=57 velocity=66 time=0
EXTRACT: note_on channel=0 note=60 velocity=74 time=0
EXTRACT: note_on channel=0 note=60 velocity=0 time=0.12053565000000001
EXTRACT: note_on channel=0 note=57 velocity=0 time=0.026785700000000003
EXTRACT: note_on channel=0 note=52 velocity=0 time=0
EXTRACT: note_on channel=0 note=52 velocity=61 time=0.38839265
EXTRACT: note_on channel=0 note=57 velocity=64 time=0
EXTRACT: note_on channel=0 note=60 velocity=71 time=0
EXTRACT: note_on channel=4 note=57 velocity=108 time=0
EXTRACT: note_on channel=0 note=60 velocity=0 time=0.12499993333333334
EXTRACT: note_on channel=0 note=57 velocity=0 time=0.013392850000000001
EXTRACT: note_on channel=0 note=52 velocity=0 time=0.008928566666666667
EXTRACT: note_on channel=0 note=52 velocity=63 time=0.38839265
EXTRACT: note_on channel=0 note=57 velocity=56 time=0
EXTRACT: note_on channel=0 note=60 velocity=73 time=0
EXTRACT: note_on channel=4 note=60 velocity=89 time=0
EXTRACT: note_on channel=4 note=57 velocity=0 time=0.013392850000000001
EXTRACT: control_change channel=0 control=64 value=0 time=0.09821423333333333
EXTRACT: note_on channel=0 note=60 velocity=0 time=0.40624978333333334
EXTRACT: note_on channel=0 note=57 velocity=0 time=0.008928566666666667
EXTRACT: note_on channel=0 note=52 velocity=0 time=0.0044642833333333335
EXTRACT: note_on channel=4 note=60 velocity=0 time=0.0044642833333333335
EXTRACT: note_on channel=0 note=57 velocity=75 time=0
EXTRACT: note_on channel=0 note=60 velocity=69 time=0
EXTRACT: note_on channel=0 note=41 velocity=70 time=0
EXTRACT: note_on channel=0 note=53 velocity=74 time=0
EXTRACT: note_on channel=4 note=62 velocity=102 time=0
EXTRACT: note_on channel=0 note=45 velocity=0 time=0.022321416666666666
EXTRACT: control_change channel=0 control=64 value=127 time=0.16964276666666667
EXTRACT: note_on channel=0 note=60 velocity=0 time=0.09821423333333333
EXTRACT: note_on channel=0 note=53 velocity=0 time=0.0044642833333333335
EXTRACT: note_on channel=0 note=57 velocity=0 time=0.0044642833333333335
EXTRACT: note_on channel=4 note=62 velocity=0 time=0.15178563333333334
EXTRACT: note_on channel=0 note=53 velocity=83 time=0.08482138333333333
EXTRACT: note_on channel=0 note=57 velocity=72 time=0
EXTRACT: note_on channel=0 note=60 velocity=76 time=0
EXTRACT: note_on channel=4 note=62 velocity=98 time=0
EXTRACT: note_on channel=0 note=60 velocity=0 time=0.14732135000000002
EXTRACT: note_on channel=0 note=57 velocity=0 time=0.0044642833333333335
EXTRACT: note_on channel=0 note=53 velocity=0 time=0.013392850000000001
EXTRACT: note_on channel=4 note=62 velocity=0 time=0.08928566666666667
EXTRACT: note_on channel=4 note=60 velocity=94 time=0.013392850000000001
EXTRACT: note_on channel=4 note=60 velocity=0 time=0.23660701666666667
EXTRACT: note_on channel=0 note=53 velocity=75 time=0.031249983333333335
EXTRACT: note_on channel=0 note=57 velocity=73 time=0
EXTRACT: note_on channel=0 note=60 velocity=78 time=0
EXTRACT: note_on channel=4 note=62 velocity=94 time=0
EXTRACT: note_on channel=0 note=60 velocity=0 time=0.13839278333333332
EXTRACT: note_on channel=0 note=57 velocity=0 time=0
EXTRACT: note_on channel=0 note=53 velocity=0 time=0.008928566666666667
EXTRACT: note_on channel=4 note=62 velocity=0 time=0.3303569666666667
EXTRACT: note_on channel=0 note=53 velocity=77 time=0.05803568333333334
EXTRACT: note_on channel=0 note=57 velocity=86 time=0
EXTRACT: note_on channel=0 note=60 velocity=78 time=0
EXTRACT: note_on channel=4 note=62 velocity=108 time=0
EXTRACT: note_on channel=4 note=62 velocity=0 time=0.23214273333333335
EXTRACT: note_on channel=4 note=60 velocity=100 time=0.03571426666666667
EXTRACT: note_on channel=4 note=60 velocity=0 time=0.22321416666666669
EXTRACT: control_change channel=0 control=64 value=0 time=0.0044642833333333335
EXTRACT: note_on channel=0 note=57 velocity=0 time=0.017857133333333334
EXTRACT: note_on channel=0 note=41 velocity=0 time=0.017857133333333334
EXTRACT: note_on channel=0 note=53 velocity=0 time=0
EXTRACT: note_on channel=0 note=60 velocity=0 time=0.0044642833333333335
EXTRACT: note_on channel=0 note=38 velocity=70 time=0
EXTRACT: note_on channel=0 note=62 velocity=83 time=0
EXTRACT: note_on channel=0 note=53 velocity=85 time=0
EXTRACT: note_on channel=0 note=57 velocity=86 time=0
EXTRACT: note_on channel=4 note=62 velocity=105 time=0
EXTRACT: control_change channel=0 control=64 value=127 time=0.29017841666666666
EXTRACT: note_on channel=0 note=57 velocity=0 time=0.07142853333333334
EXTRACT: note_on channel=0 note=62 velocity=0 time=0
EXTRACT: note_on channel=0 note=53 velocity=0 time=0.0044642833333333335
EXTRACT: note_on channel=4 note=62 velocity=0 time=0.06249996666666667
EXTRACT: note_on channel=0 note=53 velocity=85 time=0.10714280000000001
EXTRACT: note_on channel=0 note=57 velocity=75 time=0
EXTRACT: note_on channel=0 note=62 velocity=76 time=0
EXTRACT: note_on channel=4 note=62 velocity=105 time=0
EXTRACT: note_on channel=0 note=57 velocity=0 time=0.15624991666666668
EXTRACT: note_on channel=0 note=62 velocity=0 time=0.008928566666666667
EXTRACT: note_on channel=0 note=53 velocity=0 time=0
EXTRACT: note_on channel=4 note=62 velocity=0 time=0.049107116666666666
EXTRACT: note_on channel=4 note=60 velocity=94 time=0.053571400000000005
EXTRACT: note_on channel=4 note=60 velocity=0 time=0.23214273333333335
EXTRACT: note_on channel=0 note=53 velocity=82 time=0.03571426666666667
EXTRACT: note_on channel=0 note=57 velocity=79 time=0
EXTRACT: note_on channel=0 note=62 velocity=78 time=0
EXTRACT: note_on channel=4 note=62 velocity=112 time=0
EXTRACT: note_on channel=0 note=62 velocity=0 time=0.13839278333333332
EXTRACT: note_on channel=0 note=57 velocity=0 time=0
EXTRACT: note_on channel=0 note=53 velocity=0 time=0.017857133333333334
EXTRACT: note_on channel=0 note=62 velocity=76 time=0.37946408333333337
EXTRACT: note_on channel=0 note=53 velocity=86 time=0
EXTRACT: note_on channel=0 note=57 velocity=75 time=0
EXTRACT: note_on channel=4 note=64 velocity=96 time=0
EXTRACT: note_on channel=4 note=62 velocity=0 time=0.008928566666666667
EXTRACT: note_on channel=4 note=64 velocity=0 time=0.1607142
EXTRACT: note_on channel=4 note=64 velocity=102 time=0.09821423333333333
EXTRACT: note_on channel=0 note=57 velocity=0 time=0.23214273333333335
EXTRACT: note_on channel=0 note=62 velocity=0 time=0.008928566666666667
EXTRACT: control_change channel=0 control=64 value=0 time=0.017857133333333334
EXTRACT: note_on channel=0 note=38 velocity=0 time=0.0044642833333333335
EXTRACT: note_on channel=0 note=53 velocity=0 time=0
EXTRACT: note_on channel=0 note=43 velocity=70 time=0.0044642833333333335
EXTRACT: note_on channel=0 note=62 velocity=74 time=0
EXTRACT: note_on channel=0 note=55 velocity=76 time=0
EXTRACT: note_on channel=0 note=59 velocity=77 time=0
EXTRACT: note_on channel=6 note=55 velocity=1 time=0.267857
EXTRACT: control_change channel=0 control=64 value=127 time=0.017857133333333334
EXTRACT: note_on channel=0 note=62 velocity=0 time=0.013392850000000001
EXTRACT: note_on channel=0 note=59 velocity=0 time=0.017857133333333334
EXTRACT: note_on channel=0 note=55 velocity=0 time=0.0044642833333333335
EXTRACT: note_on channel=6 note=55 velocity=0 time=0.008928566666666667
EXTRACT: note_on channel=6 note=19 velocity=88 time=0.07142853333333334
EXTRACT: note_on channel=0 note=55 velocity=63 time=0.1339285
EXTRACT: note_on channel=0 note=59 velocity=66 time=0
EXTRACT: note_on channel=0 note=62 velocity=74 time=0
EXTRACT: note_on channel=0 note=62 velocity=0 time=0.12053565000000001
EXTRACT: note_on channel=0 note=55 velocity=0 time=0.026785700000000003
EXTRACT: note_on channel=0 note=59 velocity=0 time=0
EXTRACT: note_on channel=0 note=55 velocity=61 time=0.38839265
EXTRACT: note_on channel=0 note=59 velocity=64 time=0
EXTRACT: note_on channel=0 note=62 velocity=71 time=0
EXTRACT: note_on channel=0 note=62 velocity=0 time=0.12499993333333334
EXTRACT: note_on channel=0 note=59 velocity=0 time=0.013392850000000001
EXTRACT: note_on channel=0 note=55 velocity=0 time=0.008928566666666667
EXTRACT: note_on channel=0 note=62 velocity=73 time=0.38839265
EXTRACT: note_on channel=0 note=55 velocity=63 time=0
EXTRACT: note_on channel=0 note=59 velocity=56 time=0
EXTRACT: note_on channel=0 note=62 velocity=0 time=0.13839278333333332
EXTRACT: note_on channel=0 note=59 velocity=0 time=0.008928566666666667
EXTRACT: note_on channel=0 note=55 velocity=0 time=0.0044642833333333335
EXTRACT: note_on channel=4 note=64 velocity=0 time=0.053571400000000005
EXTRACT: control_change channel=0 control=64 value=0 time=0.3035712666666667
EXTRACT: note_on channel=0 note=55 velocity=75 time=0.026785700000000003
EXTRACT: note_on channel=0 note=59 velocity=76 time=0
EXTRACT: note_on channel=0 note=62 velocity=73 time=0
EXTRACT: control_change channel=0 control=64 value=127 time=0.21428560000000002
EXTRACT: note_on channel=0 note=62 velocity=0 time=0.08482138333333333
EXTRACT: note_on channel=0 note=59 velocity=0 time=0.017857133333333334
EXTRACT: note_on channel=0 note=55 velocity=0 time=0.0044642833333333335
EXTRACT: note_on channel=0 note=55 velocity=76 time=0.21428560000000002
EXTRACT: note_on channel=0 note=59 velocity=79 time=0
EXTRACT: note_on channel=0 note=62 velocity=87 time=0
EXTRACT: note_on channel=6 note=19 velocity=0 time=0.053571400000000005
EXTRACT: note_on channel=0 note=62 velocity=0 time=0.06696425
EXTRACT: note_on channel=0 note=59 velocity=0 time=0.026785700000000003
EXTRACT: note_on channel=0 note=55 velocity=0 time=0
EXTRACT: note_on channel=2 note=69 velocity=120 time=0.09374995
EXTRACT: note_on channel=0 note=55 velocity=80 time=0.29464270000000004
EXTRACT: note_on channel=0 note=60 velocity=83 time=0
EXTRACT: note_on channel=0 note=62 velocity=85 time=0
EXTRACT: note_on channel=0 note=62 velocity=0 time=0.12499993333333334
EXTRACT: note_on channel=0 note=60 velocity=0 time=0.013392850000000001
EXTRACT: note_on channel=0 note=55 velocity=0 time=0.008928566666666667
EXTRACT: note_on channel=0 note=62 velocity=90 time=0.38839265
EXTRACT: note_on channel=0 note=55 velocity=84 time=0
EXTRACT: note_on channel=0 note=60 velocity=77 time=0
EXTRACT: control_change channel=0 control=64 value=0 time=0.11160708333333334
EXTRACT: note_on channel=0 note=62 velocity=0 time=0.40624978333333334
EXTRACT: note_on channel=0 note=60 velocity=0 time=0.008928566666666667
EXTRACT: note_on channel=0 note=55 velocity=0 time=0.0044642833333333335
EXTRACT: note_on channel=0 note=36 velocity=90 time=0.0044642833333333335
EXTRACT: note_on channel=0 note=48 velocity=70 time=0
EXTRACT: note_on channel=0 note=64 velocity=86 time=0
EXTRACT: note_on channel=0 note=55 velocity=73 time=0
EXTRACT: note_on channel=0 note=60 velocity=88 time=0
EXTRACT: note_on channel=1 note=36 velocity=60 time=0
EXTRACT: note_on channel=9 note=35 velocity=47 time=0
EXTRACT: note_on channel=0 note=43 velocity=0 time=0.022321416666666666
EXTRACT: note_on channel=9 note=35 velocity=0 time=0.17410705
EXTRACT: control_change channel=0 control=64 value=127 time=0.06249996666666667
EXTRACT: note_on channel=2 note=69 velocity=0 time=0.008928566666666667
EXTRACT: note_on channel=4 note=64 velocity=120 time=0
EXTRACT: note_on channel=4 note=64 velocity=0 time=0.07589281666666667
EXTRACT: note_on channel=0 note=64 velocity=0 time=0.031249983333333335
EXTRACT: note_on channel=0 note=55 velocity=0 time=0.013392850000000001
EXTRACT: note_on channel=0 note=60 velocity=0 time=0.0044642833333333335
EXTRACT: note_on channel=0 note=55 velocity=62 time=0.14285706666666667
EXTRACT: note_on channel=0 note=60 velocity=70 time=0
EXTRACT: note_on channel=0 note=64 velocity=73 time=0
EXTRACT: note_on channel=4 note=64 velocity=120 time=0
EXTRACT: note_on channel=0 note=64 velocity=0 time=0.1339285
EXTRACT: note_on channel=0 note=60 velocity=0 time=0.013392850000000001
EXTRACT: note_on channel=0 note=55 velocity=0 time=0.013392850000000001
EXTRACT: note_on channel=4 note=64 velocity=0 time=0.06249996666666667
EXTRACT: note_on channel=4 note=67 velocity=112 time=0.04464283333333333
EXTRACT: note_on channel=4 note=67 velocity=0 time=0.08928566666666667
EXTRACT: note_on channel=0 note=64 velocity=88 time=0.17857133333333333
EXTRACT: note_on channel=0 note=55 velocity=79 time=0
EXTRACT: note_on channel=0 note=60 velocity=84 time=0
EXTRACT: note_on channel=4 note=67 velocity=116 time=0
EXTRACT: note_on channel=0 note=60 velocity=0 time=0.14732135000000002
EXTRACT: note_on channel=0 note=64 velocity=0 time=0.017857133333333334
EXTRACT: note_on channel=0 note=55 velocity=0 time=0.013392850000000001
EXTRACT: note_on channel=4 note=67 velocity=0 time=0.2589284333333333
EXTRACT: control_change channel=0 control=64 value=0 time=0.08928566666666667
EXTRACT: note_on channel=0 note=55 velocity=73 time=0.008928566666666667
EXTRACT: note_on channel=0 note=60 velocity=84 time=0
EXTRACT: note_on channel=0 note=64 velocity=88 time=0
EXTRACT: note_on channel=4 note=64 velocity=116 time=0
EXTRACT: control_change channel=0 control=64 value=127 time=0.18303561666666668
EXTRACT: note_on channel=4 note=64 velocity=0 time=0.053571400000000005
EXTRACT: note_on channel=4 note=62 velocity=98 time=0.031249983333333335
EXTRACT: note_on channel=0 note=64 velocity=0 time=0.031249983333333335
EXTRACT: note_on channel=0 note=60 velocity=0 time=0.013392850000000001
EXTRACT: note_on channel=0 note=55 velocity=0 time=0.0044642833333333335
EXTRACT: note_on channel=4 note=62 velocity=0 time=0.031249983333333335
EXTRACT: note_on channel=0 note=48 velocity=0 time=0.18303561666666668
EXTRACT: note_on channel=1 note=36 velocity=0 time=0
EXTRACT: control_change channel=0 control=64 value=0 time=0.0044642833333333335
EXTRACT: note_on channel=0 note=57 velocity=73 time=0
EXTRACT: note_on channel=0 note=38 velocity=90 time=0
EXTRACT: note_on channel=0 note=50 velocity=70 time=0
EXTRACT: note_on channel=0 note=62 velocity=88 time=0
EXTRACT: note_on channel=0 note=65 velocity=86 time=0
EXTRACT: note_on channel=1 note=38 velocity=60 time=0
EXTRACT: note_on channel=4 note=62 velocity=112 time=0
EXTRACT: note_on channel=0 note=36 velocity=0 time=0.03571426666666667
EXTRACT: note_on channel=4 note=62 velocity=0 time=0.20535703333333333
EXTRACT: control_change channel=0 control=64 value=127 time=0.017857133333333334
EXTRACT: note_on channel=4 note=60 velocity=105 time=0.008928566666666667
EXTRACT: note_on channel=4 note=60 velocity=0 time=0.10267851666666666
EXTRACT: note_on channel=0 note=65 velocity=0 time=0.0044642833333333335
EXTRACT: note_on channel=0 note=57 velocity=0 time=0.013392850000000001
EXTRACT: note_on channel=0 note=62 velocity=0 time=0.0044642833333333335
EXTRACT: note_on channel=0 note=65 velocity=73 time=0.14285706666666667
EXTRACT: note_on channel=0 note=57 velocity=62 time=0
EXTRACT: note_on channel=0 note=62 velocity=70 time=0
EXTRACT: note_on channel=4 note=62 velocity=116 time=0
EXTRACT: note_on channel=0 note=65 velocity=0 time=0.1339285
EXTRACT: note_on channel=0 note=62 velocity=0 time=0.013392850000000001
EXTRACT: note_on channel=0 note=57 velocity=0 time=0.013392850000000001
EXTRACT: note_on channel=4 note=62 velocity=0 time=0.29464270000000004
EXTRACT: note_on channel=0 note=65 velocity=88 time=0.0803571
EXTRACT: note_on channel=0 note=57 velocity=79 time=0
EXTRACT: note_on channel=0 note=62 velocity=84 time=0
EXTRACT: note_on channel=4 note=57 velocity=120 time=0
EXTRACT: note_on channel=0 note=62 velocity=0 time=0.14732135000000002
EXTRACT: note_on channel=0 note=65 velocity=0 time=0.017857133333333334
EXTRACT: note_on channel=0 note=57 velocity=0 time=0.013392850000000001
EXTRACT: control_change channel=0 control=64 value=0 time=0.3482141
EXTRACT: note_on channel=0 note=57 velocity=73 time=0.008928566666666667
EXTRACT: note_on channel=0 note=62 velocity=84 time=0
EXTRACT: note_on channel=0 note=65 velocity=88 time=0
EXTRACT: note_on channel=4 note=57 velocity=0 time=0.07142853333333334
EXTRACT: control_change channel=0 control=64 value=127 time=0.11160708333333334
EXTRACT: note_on channel=4 note=60 velocity=105 time=0.08482138333333333
EXTRACT: note_on channel=0 note=65 velocity=0 time=0.031249983333333335
EXTRACT: note_on channel=0 note=62 velocity=0 time=0.013392850000000001
EXTRACT: note_on channel=0 note=57 velocity=0 time=0.0044642833333333335
EXTRACT: note_on channel=0 note=38 velocity=0 time=0.20089275
EXTRACT: note_on channel=1 note=38 velocity=0 time=0.013392850000000001
EXTRACT: note_on channel=0 note=50 velocity=0 time=0
EXTRACT: control_change channel=0 control=64 value=0 time=0.0044642833333333335
EXTRACT: note_on channel=0 note=57 velocity=73 time=0
EXTRACT: note_on channel=0 note=60 velocity=88 time=0
EXTRACT: note_on channel=0 note=64 velocity=86 time=0
EXTRACT: note_on channel=0 note=33 velocity=90 time=0
EXTRACT: note_on channel=0 note=45 velocity=70 time=0
EXTRACT: note_on channel=1 note=33 velocity=60 time=0
EXTRACT: note_on channel=4 note=60 velocity=0 time=0.11160708333333334
EXTRACT: control_change channel=0 control=64 value=127 time=0.14732135000000002
EXTRACT: note_on channel=4 note=60 velocity=116 time=0.008928566666666667
EXTRACT: note_on channel=0 note=64 velocity=0 time=0.10714280000000001
EXTRACT: note_on channel=0 note=57 velocity=0 time=0.013392850000000001
EXTRACT: note_on channel=0 note=60 velocity=0 time=0.0044642833333333335
EXTRACT: note_on channel=4 note=60 velocity=0 time=0.11607136666666668
EXTRACT: note_on channel=0 note=57 velocity=62 time=0.026785700000000003
EXTRACT: note_on channel=0 note=60 velocity=70 time=0
EXTRACT: note_on channel=0 note=64 velocity=73 time=0
EXTRACT: note_on channel=4 note=57 velocity=120 time=0
EXTRACT: note_on channel=0 note=64 velocity=0 time=0.1339285
EXTRACT: note_on channel=0 note=60 velocity=0 time=0.013392850000000001
EXTRACT: note_on channel=0 note=57 velocity=0 time=0.013392850000000001
EXTRACT: note_on channel=4 note=57 velocity=0 time=0.05803568333333334
EXTRACT: note_on channel=4 note=55 velocity=100 time=0.049107116666666666
EXTRACT: note_on channel=4 note=55 velocity=0 time=0.14285706666666667
EXTRACT: note_on channel=0 note=57 velocity=79 time=0.12499993333333334
EXTRACT: note_on channel=0 note=60 velocity=84 time=0
EXTRACT: note_on channel=0 note=64 velocity=88 time=0
EXTRACT: note_on channel=4 note=60 velocity=108 time=0
EXTRACT: note_on channel=0 note=60 velocity=0 time=0.14732135000000002
EXTRACT: note_on channel=0 note=64 velocity=0 time=0.017857133333333334
EXTRACT: note_on channel=0 note=57 velocity=0 time=0.013392850000000001
EXTRACT: note_on channel=4 note=60 velocity=0 time=0.07142853333333334
EXTRACT: note_on channel=4 note=62 velocity=116 time=0.017857133333333334
EXTRACT: note_on channel=4 note=62 velocity=0 time=0.21428560000000002
EXTRACT: control_change channel=0 control=64 value=0 time=0.04464283333333333
EXTRACT: note_on channel=0 note=64 velocity=88 time=0.008928566666666667
EXTRACT: note_on channel=0 note=57 velocity=73 time=0
EXTRACT: note_on channel=0 note=60 velocity=84 time=0
EXTRACT: control_change channel=0 control=64 value=127 time=0.18303561666666668
EXTRACT: note_on channel=4 note=62 velocity=120 time=0.08482138333333333
EXTRACT: note_on channel=0 note=64 velocity=0 time=0.031249983333333335
EXTRACT: note_on channel=0 note=60 velocity=0 time=0.013392850000000001
EXTRACT: note_on channel=0 note=57 velocity=0 time=0.0044642833333333335
EXTRACT: note_on channel=1 note=33 velocity=0 time=0.19196418333333334
EXTRACT: note_on channel=0 note=33 velocity=0 time=0.022321416666666666
EXTRACT: note_on channel=0 note=45 velocity=0 time=0
EXTRACT: control_change channel=0 control=64 value=0 time=0.0044642833333333335
EXTRACT: note_on channel=0 note=57 velocity=73 time=0
EXTRACT: note_on channel=0 note=29 velocity=90 time=0
EXTRACT: note_on channel=0 note=41 velocity=70 time=0
EXTRACT: note_on channel=0 note=60 velocity=88 time=0
EXTRACT: note_on channel=0 note=65 velocity=86 time=0
EXTRACT: note_on channel=1 note=29 velocity=60 time=0
EXTRACT: control_change channel=0 control=64 value=127 time=0.2589284333333333
EXTRACT: note_on channel=0 note=65 velocity=0 time=0.11607136666666668
EXTRACT: note_on channel=0 note=57 velocity=0 time=0.013392850000000001
EXTRACT: note_on channel=0 note=60 velocity=0 time=0.0044642833333333335
EXTRACT: note_on channel=4 note=62 velocity=0 time=0.04464283333333333
EXTRACT: note_on channel=0 note=65 velocity=73 time=0.09821423333333333
EXTRACT: note_on channel=0 note=57 velocity=62 time=0
EXTRACT: note_on channel=0 note=60 velocity=70 time=0
EXTRACT: note_on channel=0 note=65 velocity=0 time=0.1339285
EXTRACT: note_on channel=0 note=60 velocity=0 time=0.013392850000000001
EXTRACT: note_on channel=0 note=57 velocity=0 time=0.013392850000000001
EXTRACT: note_on channel=0 note=65 velocity=88 time=0.3749998
EXTRACT: note_on channel=0 note=57 velocity=79 time=0
EXTRACT: note_on channel=0 note=60 velocity=84 time=0
EXTRACT: note_on channel=9 note=28 velocity=46 time=0
EXTRACT: note_on channel=9 note=75 velocity=60 time=0
EXTRACT: note_on channel=9 note=75 velocity=0 time=0.07142853333333334
EXTRACT: note_on channel=0 note=60 velocity=0 time=0.07589281666666667
EXTRACT: note_on channel=0 note=65 velocity=0 time=0.017857133333333334
EXTRACT: note_on channel=0 note=57 velocity=0 time=0.013392850000000001
EXTRACT: control_change channel=0 control=64 value=0 time=0.3482141
EXTRACT: note_on channel=0 note=65 velocity=88 time=0.008928566666666667
EXTRACT: note_on channel=0 note=57 velocity=73 time=0
EXTRACT: note_on channel=0 note=60 velocity=84 time=0
EXTRACT: control_change channel=0 control=64 value=127 time=0.18303561666666668
EXTRACT: note_on channel=4 note=67 velocity=120 time=0.08482138333333333
EXTRACT: note_on channel=9 note=35 velocity=52 time=0
EXTRACT: note_on channel=0 note=65 velocity=0 time=0.031249983333333335
EXTRACT: note_on channel=9 note=28 velocity=0 time=0.008928566666666667
EXTRACT: note_on channel=0 note=60 velocity=0 time=0.0044642833333333335
EXTRACT: note_on channel=0 note=57 velocity=0 time=0.0044642833333333335
EXTRACT: note_on channel=9 note=35 velocity=0 time=0.022321416666666666
EXTRACT: note_on channel=1 note=29 velocity=0 time=0.19196418333333334
EXTRACT: note_on channel=0 note=41 velocity=0 time=0
EXTRACT: note_on channel=0 note=29 velocity=0 time=0.0044642833333333335
EXTRACT: control_change channel=0 control=64 value=0 time=0
EXTRACT: note_on channel=0 note=36 velocity=90 time=0
EXTRACT: note_on channel=0 note=60 velocity=88 time=0
EXTRACT: note_on channel=0 note=48 velocity=70 time=0
EXTRACT: note_on channel=0 note=55 velocity=73 time=0
EXTRACT: note_on channel=0 note=64 velocity=86 time=0
EXTRACT: note_on channel=1 note=36 velocity=60 time=0
EXTRACT: note_on channel=9 note=35 velocity=65 time=0
EXTRACT: note_on channel=9 note=35 velocity=0 time=0.04017855
EXTRACT: note_on channel=4 note=67 velocity=0 time=0.026785700000000003
EXTRACT: control_change channel=0 control=64 value=127 time=0.19196418333333334
EXTRACT: note_on channel=4 note=64 velocity=98 time=0.008928566666666667
EXTRACT: note_on channel=0 note=64 velocity=0 time=0.10714280000000001
EXTRACT: note_on channel=4 note=64 velocity=0 time=0.0044642833333333335
EXTRACT: note_on channel=0 note=55 velocity=0 time=0.008928566666666667
EXTRACT: note_on channel=0 note=60 velocity=0 time=0.0044642833333333335
EXTRACT: note_on channel=0 note=64 velocity=73 time=0.14285706666666667
EXTRACT: note_on channel=0 note=55 velocity=62 time=0
EXTRACT: note_on channel=0 note=60 velocity=70 time=0
EXTRACT: note_on channel=4 note=67 velocity=120 time=0
EXTRACT: note_on channel=0 note=64 velocity=0 time=0.1339285
EXTRACT: note_on channel=0 note=60 velocity=0 time=0.013392850000000001
EXTRACT: note_on channel=0 note=55 velocity=0 time=0.013392850000000001
EXTRACT: note_on channel=4 note=67 velocity=0 time=0.24553558333333333
EXTRACT: note_on channel=0 note=55 velocity=79 time=0.12946421666666666
EXTRACT: note_on channel=0 note=60 velocity=84 time=0
EXTRACT: note_on channel=0 note=64 velocity=88 time=0
EXTRACT: note_on channel=4 note=64 velocity=116 time=0
EXTRACT: note_on channel=0 note=60 velocity=0 time=0.14732135000000002
EXTRACT: note_on channel=0 note=64 velocity=0 time=0.017857133333333334
EXTRACT: note_on channel=0 note=55 velocity=0 time=0.013392850000000001
EXTRACT: note_on channel=4 note=64 velocity=0 time=0.049107116666666666
EXTRACT: note_on channel=4 note=62 velocity=98 time=0.04017855
EXTRACT: note_on channel=4 note=62 velocity=0 time=0.0803571
EXTRACT: control_change channel=0 control=64 value=0 time=0.17857133333333333
EXTRACT: note_on channel=0 note=64 velocity=88 time=0.008928566666666667
EXTRACT: note_on channel=0 note=55 velocity=73 time=0
EXTRACT: note_on channel=0 note=60 velocity=84 time=0
EXTRACT: note_on channel=4 note=64 velocity=94 time=0
EXTRACT: control_change channel=0 control=64 value=127 time=0.18303561666666668
EXTRACT: note_on channel=0 note=64 velocity=0 time=0.11607136666666668
EXTRACT: note_on channel=0 note=60 velocity=0 time=0.013392850000000001
EXTRACT: note_on channel=0 note=55 velocity=0 time=0.0044642833333333335
EXTRACT: note_on channel=4 note=64 velocity=0 time=0.09821423333333333
EXTRACT: note_on channel=0 note=36 velocity=0 time=0.11160708333333334
EXTRACT: note_on channel=1 note=36 velocity=0 time=0.0044642833333333335
EXTRACT: note_on channel=0 note=48 velocity=0 time=0
EXTRACT: control_change channel=0 control=64 value=0 time=0.0044642833333333335
EXTRACT: note_on channel=0 note=38 velocity=90 time=0
EXTRACT: note_on channel=0 note=62 velocity=88 time=0
EXTRACT: note_on channel=0 note=65 velocity=86 time=0
EXTRACT: note_on channel=0 note=50 velocity=70 time=0
EXTRACT: note_on channel=0 note=57 velocity=73 time=0
EXTRACT: note_on channel=1 note=38 velocity=60 time=0
EXTRACT: note_on channel=4 note=62 velocity=116 time=0
EXTRACT: note_on channel=4 note=62 velocity=0 time=0.22321416666666669
EXTRACT: control_change channel=0 control=64 value=127 time=0.03571426666666667
EXTRACT: note_on channel=4 note=60 velocity=105 time=0.008928566666666667
EXTRACT: note_on channel=4 note=60 velocity=0 time=0.0803571
EXTRACT: note_on channel=0 note=65 velocity=0 time=0.026785700000000003
EXTRACT: note_on channel=0 note=57 velocity=0 time=0.013392850000000001
EXTRACT: note_on channel=0 note=62 velocity=0 time=0.0044642833333333335
EXTRACT: note_on channel=0 note=57 velocity=62 time=0.14285706666666667
EXTRACT: note_on channel=0 note=62 velocity=70 time=0
EXTRACT: note_on channel=0 note=65 velocity=73 time=0
EXTRACT: note_on channel=4 note=62 velocity=120 time=0
EXTRACT: note_on channel=0 note=65 velocity=0 time=0.1339285
EXTRACT: note_on channel=0 note=62 velocity=0 time=0.013392850000000001
EXTRACT: note_on channel=0 note=57 velocity=0 time=0.013392850000000001
EXTRACT: note_on channel=4 note=62 velocity=0 time=0.24553558333333333
EXTRACT: note_on channel=0 note=57 velocity=79 time=0.12946421666666666
EXTRACT: note_on channel=0 note=62 velocity=84 time=0
EXTRACT: note_on channel=0 note=65 velocity=88 time=0
EXTRACT: note_on channel=4 note=57 velocity=102 time=0
EXTRACT: note_on channel=0 note=62 velocity=0 time=0.14732135000000002
EXTRACT: note_on channel=0 note=65 velocity=0 time=0.017857133333333334
EXTRACT: note_on channel=0 note=57 velocity=0 time=0.013392850000000001
EXTRACT: note_on channel=4 note=57 velocity=0 time=0.3258926833333333
EXTRACT: control_change channel=0 control=64 value=0 time=0.022321416666666666
EXTRACT: note_on channel=0 note=57 velocity=73 time=0.008928566666666667
EXTRACT: note_on channel=0 note=62 velocity=84 time=0
EXTRACT: note_on channel=0 note=65 velocity=88 time=0
EXTRACT: note_on channel=4 note=55 velocity=112 time=0
EXTRACT: control_change channel=0 control=64 value=127 time=0.18303561666666668
EXTRACT: note_on channel=4 note=60 velocity=105 time=0.08482138333333333
EXTRACT: note_on channel=4 note=55 velocity=0 time=0.0044642833333333335
EXTRACT: note_on channel=0 note=65 velocity=0 time=0.026785700000000003
EXTRACT: note_on channel=0 note=62 velocity=0 time=0.013392850000000001
EXTRACT: note_on channel=0 note=57 velocity=0 time=0.0044642833333333335
EXTRACT: note_on channel=4 note=60 velocity=0 time=0.18303561666666668
EXTRACT: note_on channel=1 note=38 velocity=0 time=0.031249983333333335
EXTRACT: note_on channel=0 note=50 velocity=0 time=0
EXTRACT: control_change channel=0 control=64 value=0 time=0.0044642833333333335
EXTRACT: note_on channel=0 note=33 velocity=90 time=0
EXTRACT: note_on channel=0 note=60 velocity=88 time=0
EXTRACT: note_on channel=0 note=45 velocity=70 time=0
EXTRACT: note_on channel=0 note=57 velocity=73 time=0
EXTRACT: note_on channel=0 note=64 velocity=86 time=0
EXTRACT: note_on channel=1 note=33 velocity=60 time=0
EXTRACT: note_on channel=0 note=38 velocity=0 time=0.03571426666666667
EXTRACT: control_change channel=0 control=64 value=127 time=0.22321416666666669
EXTRACT: note_on channel=4 note=60 velocity=112 time=0.008928566666666667
EXTRACT: note_on channel=0 note=64 velocity=0 time=0.10714280000000001
EXTRACT: note_on channel=0 note=57 velocity=0 time=0.013392850000000001
EXTRACT: note_on channel=0 note=60 velocity=0 time=0.0044642833333333335
EXTRACT: note_on channel=0 note=57 velocity=62 time=0.14285706666666667
EXTRACT: note_on channel=0 note=60 velocity=70 time=0
EXTRACT: note_on channel=0 note=64 velocity=73 time=0
EXTRACT: note_on channel=4 note=60 velocity=0 time=0.12499993333333334
EXTRACT: note_on channel=0 note=64 velocity=0 time=0.008928566666666667
EXTRACT: note_on channel=0 note=60 velocity=0 time=0.013392850000000001
EXTRACT: note_on channel=0 note=57 velocity=0 time=0.013392850000000001
EXTRACT: note_on channel=4 note=55 velocity=116 time=0.10714280000000001
EXTRACT: note_on channel=4 note=55 velocity=0 time=0.15624991666666668
EXTRACT: note_on channel=0 note=57 velocity=79 time=0.11160708333333334
EXTRACT: note_on channel=0 note=60 velocity=84 time=0
EXTRACT: note_on channel=0 note=64 velocity=88 time=0
EXTRACT: note_on channel=4 note=60 velocity=108 time=0
EXTRACT: note_on channel=0 note=60 velocity=0 time=0.14732135000000002
EXTRACT: note_on channel=0 note=64 velocity=0 time=0.017857133333333334
EXTRACT: note_on channel=0 note=57 velocity=0 time=0.013392850000000001
EXTRACT: control_change channel=0 control=64 value=0 time=0.3482141
EXTRACT: note_on channel=4 note=60 velocity=0 time=0.0044642833333333335
EXTRACT: note_on channel=0 note=57 velocity=73 time=0.0044642833333333335
EXTRACT: note_on channel=0 note=60 velocity=84 time=0
EXTRACT: note_on channel=0 note=64 velocity=88 time=0
EXTRACT: note_on channel=4 note=62 velocity=120 time=0
EXTRACT: note_on channel=4 note=62 velocity=0 time=0.15178563333333334
EXTRACT: control_change channel=0 control=64 value=127 time=0.031249983333333335
EXTRACT: note_on channel=4 note=62 velocity=108 time=0.08482138333333333
EXTRACT: note_on channel=0 note=64 velocity=0 time=0.031249983333333335
EXTRACT: note_on channel=0 note=60 velocity=0 time=0.013392850000000001
EXTRACT: note_on channel=0 note=57 velocity=0 time=0.0044642833333333335
EXTRACT: note_on channel=1 note=33 velocity=0 time=0.20089275
EXTRACT: note_on channel=0 note=45 velocity=0 time=0.013392850000000001
EXTRACT: note_on channel=0 note=33 velocity=0 time=0.0044642833333333335
EXTRACT: note_on channel=0 note=41 velocity=70 time=0
EXTRACT: note_on channel=0 note=57 velocity=73 time=0
EXTRACT: note_on channel=0 note=60 velocity=88 time=0
EXTRACT: note_on channel=0 note=65 velocity=86 time=0
EXTRACT: control_change channel=0 control=64 value=0 time=0
EXTRACT: note_on channel=0 note=29 velocity=90 time=0
EXTRACT: note_on channel=1 note=29 velocity=60 time=0
EXTRACT: control_change channel=0 control=64 value=127 time=0.2589284333333333
EXTRACT: note_on channel=0 note=65 velocity=0 time=0.11607136666666668
EXTRACT: note_on channel=0 note=57 velocity=0 time=0.013392850000000001
EXTRACT: note_on channel=0 note=60 velocity=0 time=0.0044642833333333335
EXTRACT: note_on channel=4 note=62 velocity=0 time=0.008928566666666667
EXTRACT: note_on channel=0 note=65 velocity=73 time=0.1339285
EXTRACT: note_on channel=0 note=57 velocity=62 time=0
EXTRACT: note_on channel=0 note=60 velocity=70 time=0
EXTRACT: note_on channel=0 note=65 velocity=0 time=0.1339285
EXTRACT: note_on channel=0 note=60 velocity=0 time=0.013392850000000001
EXTRACT: note_on channel=0 note=57 velocity=0 time=0.013392850000000001
EXTRACT: note_on channel=4 note=60 velocity=112 time=0.10714280000000001
EXTRACT: note_on channel=4 note=60 velocity=0 time=0.12946421666666666
EXTRACT: note_on channel=0 note=57 velocity=79 time=0.13839278333333332
EXTRACT: note_on channel=0 note=60 velocity=84 time=0
EXTRACT: note_on channel=0 note=65 velocity=88 time=0
EXTRACT: note_on channel=4 note=64 velocity=120 time=0
EXTRACT: note_on channel=0 note=60 velocity=0 time=0.14732135000000002
EXTRACT: note_on channel=0 note=65 velocity=0 time=0.017857133333333334
EXTRACT: note_on channel=0 note=57 velocity=0 time=0.013392850000000001
EXTRACT: note_on channel=4 note=64 velocity=0 time=0.20535703333333333
EXTRACT: note_on channel=4 note=62 velocity=120 time=0.017857133333333334
EXTRACT: note_on channel=4 note=62 velocity=0 time=0.11607136666666668
EXTRACT: control_change channel=0 control=64 value=0 time=0.008928566666666667
EXTRACT: note_on channel=0 note=57 velocity=73 time=0.008928566666666667
EXTRACT: note_on channel=0 note=60 velocity=84 time=0
EXTRACT: note_on channel=0 note=65 velocity=88 time=0
EXTRACT: note_on channel=4 note=60 velocity=105 time=0
EXTRACT: control_change channel=0 control=64 value=127 time=0.18303561666666668
EXTRACT: note_on channel=0 note=65 velocity=0 time=0.11607136666666668
EXTRACT: note_on channel=0 note=60 velocity=0 time=0.013392850000000001
EXTRACT: note_on channel=0 note=57 velocity=0 time=0.0044642833333333335
EXTRACT: note_on channel=4 note=60 velocity=0 time=0.008928566666666667
EXTRACT: note_on channel=4 note=64 velocity=105 time=0.07589281666666667
EXTRACT: note_on channel=0 note=41 velocity=0 time=0.12946421666666666
EXTRACT: note_on channel=1 note=29 velocity=0 time=0
EXTRACT: note_on channel=0 note=48 velocity=82 time=0.0044642833333333335
EXTRACT: control_change channel=0 control=64 value=0 time=0
EXTRACT: note_on channel=0 note=36 velocity=84 time=0
EXTRACT: note_on channel=0 note=64 velocity=86 time=0
EXTRACT: note_on channel=0 note=55 velocity=73 time=0
EXTRACT: note_on channel=0 note=60 velocity=90 time=0
EXTRACT: note_on channel=1 note=36 velocity=60 time=0
EXTRACT: note_on channel=9 note=35 velocity=56 time=0
EXTRACT: note_on channel=0 note=29 velocity=0 time=0.013392850000000001
EXTRACT: note_on channel=9 note=35 velocity=0 time=0.08482138333333333
EXTRACT: control_change channel=0 control=64 value=127 time=0.049107116666666666
EXTRACT: note_on channel=0 note=64 velocity=0 time=0.14732135000000002
EXTRACT: note_on channel=0 note=55 velocity=0 time=0
EXTRACT: note_on channel=0 note=60 velocity=0 time=0.017857133333333334
EXTRACT: note_on channel=0 note=64 velocity=84 time=0.22321416666666669
EXTRACT: note_on channel=0 note=55 velocity=69 time=0
EXTRACT: note_on channel=0 note=60 velocity=84 time=0
EXTRACT: note_on channel=0 note=64 velocity=0 time=0.14285706666666667
EXTRACT: note_on channel=0 note=60 velocity=0 time=0.013392850000000001
EXTRACT: note_on channel=0 note=55 velocity=0 time=0.008928566666666667
EXTRACT: note_on channel=0 note=64 velocity=88 time=0.3705355166666667
EXTRACT: note_on channel=0 note=55 velocity=69 time=0
EXTRACT: note_on channel=0 note=60 velocity=84 time=0
EXTRACT: note_on channel=0 note=64 velocity=0 time=0.17857133333333333
EXTRACT: note_on channel=0 note=55 velocity=0 time=0.008928566666666667
EXTRACT: note_on channel=0 note=60 velocity=0 time=0.0044642833333333335
EXTRACT: note_on channel=0 note=48 velocity=0 time=0.23214273333333335
EXTRACT: note_on channel=0 note=36 velocity=0 time=0.031249983333333335
EXTRACT: control_change channel=0 control=64 value=0 time=0.06249996666666667
EXTRACT: note_on channel=1 note=36 velocity=0 time=0.013392850000000001
EXTRACT: note_on channel=0 note=38 velocity=70 time=0.0044642833333333335
EXTRACT: note_on channel=0 note=50 velocity=79 time=0
EXTRACT: note_on channel=0 note=65 velocity=107 time=0
EXTRACT: note_on channel=0 note=57 velocity=105 time=0
EXTRACT: note_on channel=0 note=62 velocity=107 time=0
EXTRACT: note_on channel=1 note=38 velocity=60 time=0
EXTRACT: control_change channel=0 control=64 value=127 time=0.14732135000000002
EXTRACT: control_change channel=0 control=64 value=0 time=0.28124985
EXTRACT: note_on channel=1 note=38 velocity=0 time=0.08928566666666667
EXTRACT: note_on channel=0 note=57 velocity=0 time=0.013392850000000001
EXTRACT: note_on channel=0 note=65 velocity=0 time=0
EXTRACT: note_on channel=0 note=62 velocity=0 time=0
EXTRACT: note_on channel=0 note=50 velocity=0 time=0.0044642833333333335
EXTRACT: note_on channel=0 note=57 velocity=69 time=0
EXTRACT: note_on channel=0 note=33 velocity=77 time=0
EXTRACT: note_on channel=0 note=45 velocity=70 time=0
EXTRACT: note_on channel=0 note=60 velocity=88 time=0
EXTRACT: note_on channel=0 note=64 velocity=75 time=0
EXTRACT: note_on channel=1 note=33 velocity=60 time=0
EXTRACT: note_on channel=0 note=38 velocity=0 time=0.022321416666666666
EXTRACT: control_change channel=0 control=64 value=127 time=0.23214273333333335
EXTRACT: note_on channel=0 note=64 velocity=0 time=0.10267851666666666
EXTRACT: note_on channel=0 note=57 velocity=0 time=0.008928566666666667
EXTRACT: note_on channel=0 note=60 velocity=0 time=0.0044642833333333335
EXTRACT: note_on channel=0 note=64 velocity=68 time=0.16517848333333335
EXTRACT: note_on channel=0 note=57 velocity=65 time=0
EXTRACT: note_on channel=0 note=60 velocity=82 time=0
EXTRACT: note_on channel=0 note=64 velocity=0 time=0.11160708333333334
EXTRACT: note_on channel=0 note=60 velocity=0 time=0.008928566666666667
EXTRACT: note_on channel=0 note=57 velocity=0 time=0.013392850000000001
EXTRACT: note_on channel=0 note=64 velocity=71 time=0.4017855
EXTRACT: note_on channel=0 note=57 velocity=66 time=0
EXTRACT: note_on channel=0 note=60 velocity=74 time=0
EXTRACT: note_on channel=0 note=64 velocity=0 time=0.13839278333333332
EXTRACT: note_on channel=0 note=60 velocity=0 time=0.008928566666666667
EXTRACT: note_on channel=0 note=57 velocity=0 time=0.013392850000000001
EXTRACT: note_on channel=0 note=33 velocity=0 time=0.3482141
EXTRACT: control_change channel=0 control=64 value=0 time=0
EXTRACT: note_on channel=1 note=33 velocity=0 time=0.013392850000000001
EXTRACT: note_on channel=0 note=60 velocity=82 time=0.013392850000000001
EXTRACT: note_on channel=0 note=31 velocity=62 time=0
EXTRACT: note_on channel=0 note=55 velocity=73 time=0
EXTRACT: note_on channel=0 note=64 velocity=71 time=0
EXTRACT: note_on channel=1 note=31 velocity=60 time=0
EXTRACT: control_change channel=0 control=64 value=127 time=0.16517848333333335
EXTRACT: note_on channel=4 note=64 velocity=0 time=0.11607136666666668
EXTRACT: note_on channel=0 note=64 velocity=0 time=0.031249983333333335
EXTRACT: note_on channel=0 note=60 velocity=0 time=0
EXTRACT: note_on channel=0 note=55 velocity=0 time=0.017857133333333334
EXTRACT: note_on channel=0 note=31 velocity=0 time=0.19196418333333334
EXTRACT: note_on channel=1 note=31 velocity=0 time=0.008928566666666667
EXTRACT: note_on channel=0 note=45 velocity=0 time=0
EXTRACT: note_on channel=0 note=33 velocity=51 time=0.0044642833333333335
EXTRACT: note_on channel=0 note=60 velocity=88 time=0
EXTRACT: note_on channel=0 note=45 velocity=70 time=0
EXTRACT: note_on channel=0 note=57 velocity=69 time=0
EXTRACT: note_on channel=0 note=64 velocity=75 time=0
EXTRACT: note_on channel=1 note=33 velocity=60 time=0
EXTRACT: control_change channel=0 control=64 value=0 time=0.017857133333333334
EXTRACT: control_change channel=0 control=64 value=127 time=0.25446415
EXTRACT: note_on channel=0 note=64 velocity=0 time=0.08482138333333333
EXTRACT: note_on channel=0 note=57 velocity=0 time=0.008928566666666667
EXTRACT: note_on channel=0 note=60 velocity=0 time=0.0044642833333333335
EXTRACT: note_on channel=0 note=64 velocity=68 time=0.16517848333333335
EXTRACT: note_on channel=0 note=57 velocity=65 time=0
EXTRACT: note_on channel=0 note=60 velocity=82 time=0
EXTRACT: note_on channel=0 note=64 velocity=0 time=0.11160708333333334
EXTRACT: note_on channel=0 note=60 velocity=0 time=0.008928566666666667
EXTRACT: note_on channel=0 note=57 velocity=0 time=0.013392850000000001
EXTRACT: note_on channel=0 note=64 velocity=71 time=0.4017855
EXTRACT: note_on channel=0 note=57 velocity=66 time=0
EXTRACT: note_on channel=0 note=60 velocity=74 time=0
EXTRACT: note_on channel=0 note=64 velocity=0 time=0.13839278333333332
EXTRACT: note_on channel=0 note=60 velocity=0 time=0.008928566666666667
EXTRACT: note_on channel=0 note=57 velocity=0 time=0.013392850000000001
EXTRACT: note_on channel=1 note=33 velocity=0 time=0.34374981666666665
EXTRACT: note_on channel=0 note=60 velocity=82 time=0.031249983333333335
EXTRACT: note_on channel=0 note=64 velocity=71 time=0
EXTRACT: note_on channel=0 note=31 velocity=63 time=0
EXTRACT: note_on channel=0 note=55 velocity=73 time=0
EXTRACT: note_on channel=1 note=31 velocity=60 time=0
EXTRACT: note_on channel=0 note=33 velocity=0 time=0.031249983333333335
EXTRACT: control_change channel=0 control=64 value=0 time=0.3749998
EXTRACT: note_on channel=0 note=64 velocity=0 time=0.10714280000000001
EXTRACT: note_on channel=0 note=60 velocity=0 time=0.0044642833333333335
EXTRACT: note_on channel=1 note=31 velocity=0 time=0.008928566666666667
EXTRACT: note_on channel=0 note=45 velocity=0 time=0.0044642833333333335
EXTRACT: note_on channel=0 note=55 velocity=0 time=0
EXTRACT: note_on channel=0 note=31 velocity=0 time=0
EXTRACT: note_on channel=0 note=33 velocity=56 time=0.0044642833333333335
EXTRACT: note_on channel=0 note=60 velocity=88 time=0
EXTRACT: note_on channel=0 note=64 velocity=75 time=0
EXTRACT: note_on channel=0 note=45 velocity=70 time=0
EXTRACT: note_on channel=0 note=57 velocity=69 time=0
EXTRACT: note_on channel=1 note=33 velocity=60 time=0
EXTRACT: control_change channel=0 control=64 value=127 time=0.20089275
EXTRACT: note_on channel=0 note=64 velocity=0 time=0.15624991666666668
EXTRACT: note_on channel=0 note=57 velocity=0 time=0.008928566666666667
EXTRACT: note_on channel=0 note=60 velocity=0 time=0.0044642833333333335
EXTRACT: note_on channel=0 note=57 velocity=65 time=0.16517848333333335
EXTRACT: note_on channel=0 note=60 velocity=82 time=0
EXTRACT: note_on channel=0 note=64 velocity=68 time=0
EXTRACT: note_on channel=0 note=64 velocity=0 time=0.11160708333333334
EXTRACT: note_on channel=0 note=60 velocity=0 time=0.008928566666666667
EXTRACT: note_on channel=0 note=57 velocity=0 time=0.013392850000000001
EXTRACT: note_on channel=0 note=57 velocity=66 time=0.4017855
EXTRACT: note_on channel=0 note=60 velocity=74 time=0
EXTRACT: note_on channel=0 note=64 velocity=71 time=0
EXTRACT: note_on channel=0 note=64 velocity=0 time=0.13839278333333332
EXTRACT: note_on channel=0 note=60 velocity=0 time=0.008928566666666667
EXTRACT: note_on channel=0 note=57 velocity=0 time=0.013392850000000001
EXTRACT: note_on channel=0 note=57 velocity=73 time=0.3749998
EXTRACT: note_on channel=0 note=60 velocity=82 time=0
EXTRACT: note_on channel=0 note=64 velocity=71 time=0
EXTRACT: control_change channel=0 control=64 value=0 time=0.0044642833333333335
EXTRACT: note_on channel=1 note=33 velocity=0 time=0.5044640166666667
EXTRACT: note_on channel=0 note=33 velocity=0 time=0
EXTRACT: note_on channel=0 note=64 velocity=0 time=0.0044642833333333335
EXTRACT: note_on channel=0 note=60 velocity=0 time=0.0044642833333333335
EXTRACT: note_on channel=0 note=57 velocity=0 time=0.013392850000000001
EXTRACT: note_on channel=0 note=45 velocity=0 time=0
EXTRACT: note_on channel=0 note=53 velocity=69 time=0.0044642833333333335
EXTRACT: note_on channel=0 note=57 velocity=88 time=0
EXTRACT: note_on channel=0 note=60 velocity=75 time=0
EXTRACT: note_on channel=0 note=29 velocity=56 time=0
EXTRACT: note_on channel=0 note=41 velocity=70 time=0
EXTRACT: note_on channel=1 note=29 velocity=60 time=0
EXTRACT: note_on channel=3 note=69 velocity=98 time=0
EXTRACT: note_on channel=4 note=69 velocity=108 time=0
EXTRACT: note_on channel=5 note=29 velocity=70 time=0
EXTRACT: note_on channel=5 note=41 velocity=70 time=0
EXTRACT: control_change channel=0 control=64 value=127 time=0.20089275
EXTRACT: note_on channel=0 note=60 velocity=0 time=0.15624991666666668
EXTRACT: note_on channel=0 note=53 velocity=0 time=0.008928566666666667
EXTRACT: note_on channel=0 note=57 velocity=0 time=0.0044642833333333335
EXTRACT: note_on channel=0 note=60 velocity=68 time=0.16517848333333335
EXTRACT: note_on channel=0 note=53 velocity=65 time=0
EXTRACT: note_on channel=0 note=57 velocity=82 time=0
EXTRACT: note_on channel=0 note=60 velocity=0 time=0.11160708333333334
EXTRACT: note_on channel=0 note=57 velocity=0 time=0.008928566666666667
EXTRACT: note_on channel=0 note=53 velocity=0 time=0.013392850000000001
EXTRACT: note_on channel=0 note=60 velocity=71 time=0.4017855
EXTRACT: note_on channel=0 note=53 velocity=66 time=0
EXTRACT: note_on channel=0 note=57 velocity=74 time=0
EXTRACT: note_on channel=0 note=60 velocity=0 time=0.13839278333333332
EXTRACT: note_on channel=0 note=57 velocity=0 time=0.008928566666666667
EXTRACT: note_on channel=0 note=53 velocity=0 time=0.013392850000000001
EXTRACT: note_on channel=4 note=69 velocity=0 time=0.3169641166666667
EXTRACT: note_on channel=3 note=69 velocity=0 time=0
EXTRACT: note_on channel=0 note=60 velocity=71 time=0.05803568333333334
EXTRACT: note_on channel=0 note=53 velocity=73 time=0
EXTRACT: note_on channel=0 note=57 velocity=82 time=0
EXTRACT: note_on channel=3 note=72 velocity=106 time=0
EXTRACT: note_on channel=4 note=72 velocity=116 time=0
EXTRACT: control_change channel=0 control=64 value=0 time=0.0044642833333333335
EXTRACT: note_on channel=4 note=72 velocity=0 time=0.19642846666666666
EXTRACT: note_on channel=3 note=72 velocity=0 time=0
EXTRACT: note_on channel=3 note=67 velocity=95 time=0.06696425
EXTRACT: note_on channel=4 note=67 velocity=105 time=0
EXTRACT: note_on channel=0 note=29 velocity=0 time=0.24107130000000002
EXTRACT: note_on channel=0 note=60 velocity=0 time=0.0044642833333333335
EXTRACT: note_on channel=0 note=57 velocity=0 time=0.0044642833333333335
EXTRACT: note_on channel=0 note=41 velocity=0 time=0.013392850000000001
EXTRACT: note_on channel=0 note=53 velocity=0 time=0
EXTRACT: note_on channel=1 note=29 velocity=0 time=0
EXTRACT: note_on channel=0 note=52 velocity=75 time=0.0044642833333333335
EXTRACT: note_on channel=0 note=33 velocity=56 time=0
EXTRACT: note_on channel=0 note=45 velocity=70 time=0
EXTRACT: note_on channel=0 note=57 velocity=69 time=0
EXTRACT: note_on channel=0 note=60 velocity=88 time=0
EXTRACT: note_on channel=1 note=33 velocity=60 time=0
EXTRACT: note_on channel=5 note=33 velocity=70 time=0
EXTRACT: note_on channel=5 note=45 velocity=70 time=0
EXTRACT: note_on channel=5 note=41 velocity=0 time=0.049107116666666666
EXTRACT: note_on channel=5 note=29 velocity=0 time=0.008928566666666667
EXTRACT: control_change channel=0 control=64 value=127 time=0.14285706666666667
EXTRACT: note_on channel=0 note=52 velocity=0 time=0.15624991666666668
EXTRACT: note_on channel=0 note=57 velocity=0 time=0.008928566666666667
EXTRACT: note_on channel=0 note=60 velocity=0 time=0.0044642833333333335
EXTRACT: note_on channel=0 note=60 velocity=82 time=0.16517848333333335
EXTRACT: note_on channel=0 note=52 velocity=68 time=0
EXTRACT: note_on channel=0 note=57 velocity=65 time=0
EXTRACT: note_on channel=0 note=52 velocity=0 time=0.11160708333333334
EXTRACT: note_on channel=0 note=60 velocity=0 time=0.008928566666666667
EXTRACT: note_on channel=0 note=57 velocity=0 time=0.013392850000000001
EXTRACT: note_on channel=3 note=67 velocity=0 time=0.05803568333333334
EXTRACT: note_on channel=4 note=67 velocity=0 time=0
EXTRACT: note_on channel=3 note=60 velocity=117 time=0.07589281666666667
EXTRACT: note_on channel=4 note=60 velocity=120 time=0
EXTRACT: note_on channel=4 note=60 velocity=0 time=0.25446415
EXTRACT: note_on channel=3 note=60 velocity=0 time=0
EXTRACT: note_on channel=0 note=60 velocity=74 time=0.013392850000000001
EXTRACT: note_on channel=0 note=52 velocity=71 time=0
EXTRACT: note_on channel=0 note=57 velocity=66 time=0
EXTRACT: note_on channel=3 note=64 velocity=102 time=0
EXTRACT: note_on channel=4 note=64 velocity=112 time=0
EXTRACT: note_on channel=0 note=52 velocity=0 time=0.13839278333333332
EXTRACT: note_on channel=0 note=60 velocity=0 time=0.008928566666666667
EXTRACT: note_on channel=0 note=57 velocity=0 time=0.013392850000000001
EXTRACT: note_on channel=3 note=64 velocity=0 time=0.19196418333333334
EXTRACT: note_on channel=4 note=64 velocity=0 time=0
EXTRACT: note_on channel=3 note=62 velocity=74 time=0.049107116666666666
EXTRACT: note_on channel=4 note=62 velocity=84 time=0
EXTRACT: note_on channel=4 note=62 velocity=0 time=0.09821423333333333
EXTRACT: note_on channel=3 note=62 velocity=0 time=0
EXTRACT: note_on channel=0 note=60 velocity=82 time=0.03571426666666667
EXTRACT: note_on channel=0 note=52 velocity=71 time=0
EXTRACT: note_on channel=0 note=57 velocity=73 time=0
EXTRACT: note_on channel=3 note=62 velocity=110 time=0
EXTRACT: note_on channel=4 note=62 velocity=105 time=0
EXTRACT: control_change channel=0 control=64 value=0 time=0.0044642833333333335
EXTRACT: note_on channel=4 note=62 velocity=0 time=0.21874988333333334
EXTRACT: note_on channel=3 note=62 velocity=0 time=0
EXTRACT: note_on channel=3 note=62 velocity=105 time=0.04464283333333333
EXTRACT: note_on channel=4 note=62 velocity=100 time=0
EXTRACT: note_on channel=1 note=33 velocity=0 time=0.23660701666666667
EXTRACT: note_on channel=5 note=33 velocity=0 time=0.0044642833333333335
EXTRACT: note_on channel=0 note=33 velocity=0 time=0
EXTRACT: note_on channel=0 note=52 velocity=0 time=0.0044642833333333335
EXTRACT: note_on channel=5 note=45 velocity=0 time=0.0044642833333333335
EXTRACT: note_on channel=0 note=60 velocity=0 time=0
EXTRACT: note_on channel=0 note=45 velocity=0 time=0.013392850000000001
EXTRACT: note_on channel=0 note=57 velocity=0 time=0
EXTRACT: note_on channel=0 note=38 velocity=56 time=0.0044642833333333335
EXTRACT: note_on channel=0 note=50 velocity=70 time=0
EXTRACT: note_on channel=0 note=62 velocity=75 time=0
EXTRACT: note_on channel=0 note=53 velocity=69 time=0
EXTRACT: note_on channel=0 note=57 velocity=88 time=0
EXTRACT: note_on channel=1 note=26 velocity=60 time=0
EXTRACT: note_on channel=5 note=26 velocity=70 time=0
EXTRACT: note_on channel=5 note=38 velocity=70 time=0
EXTRACT: control_change channel=0 control=64 value=127 time=0.20089275
EXTRACT: note_on channel=0 note=62 velocity=0 time=0.15624991666666668
EXTRACT: note_on channel=0 note=53 velocity=0 time=0.008928566666666667
EXTRACT: note_on channel=0 note=57 velocity=0 time=0.0044642833333333335
EXTRACT: note_on channel=0 note=53 velocity=65 time=0.16517848333333335
EXTRACT: note_on channel=0 note=57 velocity=82 time=0
EXTRACT: note_on channel=0 note=62 velocity=68 time=0
EXTRACT: note_on channel=0 note=62 velocity=0 time=0.11160708333333334
EXTRACT: note_on channel=0 note=57 velocity=0 time=0.008928566666666667
EXTRACT: note_on channel=0 note=53 velocity=0 time=0.013392850000000001
EXTRACT: note_on channel=3 note=62 velocity=0 time=0.12946421666666666
EXTRACT: note_on channel=4 note=62 velocity=0 time=0
EXTRACT: note_on channel=3 note=57 velocity=103 time=0.0044642833333333335
EXTRACT: note_on channel=4 note=57 velocity=98 time=0
EXTRACT: note_on channel=0 note=62 velocity=71 time=0.267857
EXTRACT: note_on channel=0 note=53 velocity=66 time=0
EXTRACT: note_on channel=0 note=57 velocity=74 time=0
EXTRACT: note_on channel=0 note=62 velocity=0 time=0.13839278333333332
EXTRACT: note_on channel=0 note=57 velocity=0 time=0.008928566666666667
EXTRACT: note_on channel=0 note=53 velocity=0 time=0.013392850000000001
EXTRACT: note_on channel=0 note=62 velocity=71 time=0.3749998
EXTRACT: note_on channel=0 note=53 velocity=73 time=0
EXTRACT: note_on channel=0 note=57 velocity=82 time=0
EXTRACT: control_change channel=0 control=64 value=0 time=0.0044642833333333335
EXTRACT: note_on channel=4 note=57 velocity=0 time=0.12946421666666666
EXTRACT: note_on channel=3 note=57 velocity=0 time=0
EXTRACT: note_on channel=0 note=38 velocity=0 time=0.3749998
EXTRACT: note_on channel=0 note=62 velocity=0 time=0.0044642833333333335
EXTRACT: note_on channel=0 note=57 velocity=0 time=0.0044642833333333335
EXTRACT: note_on channel=0 note=53 velocity=0 time=0.013392850000000001
EXTRACT: note_on channel=0 note=50 velocity=0 time=0
EXTRACT: note_on channel=0 note=38 velocity=75 time=0.0044642833333333335
EXTRACT: note_on channel=0 note=50 velocity=70 time=0
EXTRACT: note_on channel=0 note=62 velocity=88 time=0
EXTRACT: note_on channel=0 note=53 velocity=75 time=0
EXTRACT: note_on channel=0 note=57 velocity=69 time=0
EXTRACT: control_change channel=0 control=64 value=127 time=0.20089275
EXTRACT: note_on channel=0 note=53 velocity=0 time=0.15624991666666668
EXTRACT: note_on channel=0 note=57 velocity=0 time=0.008928566666666667
EXTRACT: note_on channel=0 note=62 velocity=0 time=0.0044642833333333335
EXTRACT: note_on channel=0 note=62 velocity=82 time=0.16517848333333335
EXTRACT: note_on channel=0 note=53 velocity=68 time=0
EXTRACT: note_on channel=0 note=57 velocity=65 time=0
EXTRACT: control_change channel=0 control=64 value=0 time=0.44196405
EXTRACT: note_on channel=0 note=38 velocity=0 time=0.06696425
EXTRACT: note_on channel=0 note=50 velocity=0 time=0.022321416666666666
EXTRACT: note_on channel=1 note=26 velocity=0 time=0
EXTRACT: note_on channel=0 note=53 velocity=0 time=0
EXTRACT: note_on channel=0 note=55 velocity=81 time=0.0044642833333333335
EXTRACT: note_on channel=0 note=40 velocity=85 time=0
EXTRACT: note_on channel=0 note=52 velocity=86 time=0
EXTRACT: note_on channel=0 note=59 velocity=89 time=0
EXTRACT: note_on channel=1 note=28 velocity=60 time=0
EXTRACT: note_on channel=5 note=28 velocity=70 time=0
EXTRACT: note_on channel=5 note=40 velocity=70 time=0
EXTRACT: note_on channel=0 note=62 velocity=0 time=0.0044642833333333335
EXTRACT: note_on channel=5 note=26 velocity=0 time=0
EXTRACT: note_on channel=5 note=38 velocity=0 time=0
EXTRACT: note_on channel=0 note=57 velocity=0 time=0.013392850000000001
EXTRACT: note_on channel=0 note=52 velocity=0 time=0.5044640166666667
EXTRACT: note_on channel=0 note=59 velocity=0 time=0.008928566666666667
EXTRACT: note_on channel=0 note=52 velocity=86 time=0.0044642833333333335
EXTRACT: note_on channel=0 note=55 velocity=88 time=0
EXTRACT: note_on channel=0 note=59 velocity=97 time=0
EXTRACT: note_on channel=0 note=55 velocity=0 time=0.008928566666666667
EXTRACT: note_on channel=5 note=40 velocity=0 time=0.49999973333333336
EXTRACT: note_on channel=0 note=52 velocity=0 time=0.0044642833333333335
EXTRACT: note_on channel=5 note=28 velocity=0 time=0
EXTRACT: note_on channel=0 note=59 velocity=0 time=0.0044642833333333335
EXTRACT: note_on channel=0 note=40 velocity=0 time=0.013392850000000001
EXTRACT: note_on channel=0 note=55 velocity=0 time=0
EXTRACT: note_on channel=1 note=28 velocity=0 time=0
EXTRACT: note_on channel=0 note=29 velocity=56 time=0.0044642833333333335
EXTRACT: note_on channel=0 note=41 velocity=70 time=0
EXTRACT: note_on channel=0 note=60 velocity=75 time=0
EXTRACT: note_on channel=0 note=53 velocity=69 time=0
EXTRACT: note_on channel=0 note=57 velocity=88 time=0
EXTRACT: note_on channel=1 note=29 velocity=60 time=0
EXTRACT: note_on channel=3 note=69 velocity=106 time=0
EXTRACT: note_on channel=4 note=69 velocity=96 time=0
EXTRACT: note_on channel=5 note=29 velocity=70 time=0
EXTRACT: note_on channel=5 note=41 velocity=70 time=0
EXTRACT: control_change channel=0 control=64 value=127 time=0.20089275
EXTRACT: note_on channel=0 note=60 velocity=0 time=0.15624991666666668
EXTRACT: note_on channel=0 note=53 velocity=0 time=0.008928566666666667
EXTRACT: note_on channel=0 note=57 velocity=0 time=0.0044642833333333335
EXTRACT: note_on channel=0 note=60 velocity=68 time=0.16517848333333335
EXTRACT: note_on channel=0 note=53 velocity=65 time=0
EXTRACT: note_on channel=0 note=57 velocity=82 time=0
EXTRACT: note_on channel=0 note=60 velocity=0 time=0.11160708333333334
EXTRACT: note_on channel=0 note=57 velocity=0 time=0.008928566666666667
EXTRACT: note_on channel=0 note=53 velocity=0 time=0.013392850000000001
EXTRACT: note_on channel=0 note=60 velocity=71 time=0.4017855
EXTRACT: note_on channel=0 note=53 velocity=66 time=0
EXTRACT: note_on channel=0 note=57 velocity=74 time=0
EXTRACT: note_on channel=0 note=60 velocity=0 time=0.13839278333333332
EXTRACT: note_on channel=0 note=57 velocity=0 time=0.008928566666666667
EXTRACT: note_on channel=0 note=53 velocity=0 time=0.013392850000000001
EXTRACT: note_on channel=0 note=60 velocity=71 time=0.3749998
EXTRACT: note_on channel=0 note=53 velocity=73 time=0
EXTRACT: note_on channel=0 note=57 velocity=82 time=0
EXTRACT: note_on channel=3 note=72 velocity=99 time=0
EXTRACT: note_on channel=4 note=72 velocity=89 time=0
EXTRACT: control_change channel=0 control=64 value=0 time=0.0044642833333333335
EXTRACT: note_on channel=4 note=69 velocity=0 time=0.0044642833333333335
EXTRACT: note_on channel=3 note=69 velocity=0 time=0
EXTRACT: note_on channel=3 note=67 velocity=102 time=0.2589284333333333
EXTRACT: note_on channel=4 note=67 velocity=92 time=0
EXTRACT: note_on channel=3 note=72 velocity=0 time=0.03571426666666667
EXTRACT: note_on channel=4 note=72 velocity=0 time=0
EXTRACT: note_on channel=0 note=29 velocity=0 time=0.20535703333333333
EXTRACT: note_on channel=0 note=60 velocity=0 time=0.0044642833333333335
EXTRACT: note_on channel=0 note=57 velocity=0 time=0.0044642833333333335
EXTRACT: note_on channel=0 note=41 velocity=0 time=0.013392850000000001
EXTRACT: note_on channel=0 note=53 velocity=0 time=0
EXTRACT: note_on channel=1 note=29 velocity=0 time=0
EXTRACT: note_on channel=0 note=52 velocity=75 time=0.0044642833333333335
EXTRACT: note_on channel=0 note=57 velocity=69 time=0
EXTRACT: note_on channel=0 note=60 velocity=88 time=0
EXTRACT: note_on channel=0 note=33 velocity=56 time=0
EXTRACT: note_on channel=0 note=45 velocity=70 time=0
EXTRACT: note_on channel=1 note=33 velocity=60 time=0
EXTRACT: note_on channel=5 note=33 velocity=70 time=0
EXTRACT: note_on channel=5 note=45 velocity=70 time=0
EXTRACT: note_on channel=5 note=29 velocity=0 time=0.013392850000000001
EXTRACT: note_on channel=5 note=41 velocity=0 time=0.008928566666666667
EXTRACT: control_change channel=0 control=64 value=127 time=0.17857133333333333
EXTRACT: note_on channel=0 note=52 velocity=0 time=0.15624991666666668
EXTRACT: note_on channel=0 note=57 velocity=0 time=0.008928566666666667
EXTRACT: note_on channel=0 note=60 velocity=0 time=0.0044642833333333335
EXTRACT: note_on channel=4 note=67 velocity=0 time=0.14732135000000002
EXTRACT: note_on channel=3 note=67 velocity=0 time=0
EXTRACT: note_on channel=0 note=52 velocity=68 time=0.017857133333333334
EXTRACT: note_on channel=0 note=57 velocity=65 time=0
EXTRACT: note_on channel=0 note=60 velocity=82 time=0
EXTRACT: note_on channel=0 note=52 velocity=0 time=0.11160708333333334
EXTRACT: note_on channel=0 note=60 velocity=0 time=0.008928566666666667
EXTRACT: note_on channel=0 note=57 velocity=0 time=0.013392850000000001
EXTRACT: note_on channel=3 note=60 velocity=104 time=0.1339285
EXTRACT: note_on channel=4 note=60 velocity=94 time=0
EXTRACT: note_on channel=4 note=60 velocity=0 time=0.13839278333333332
EXTRACT: note_on channel=3 note=60 velocity=0 time=0
EXTRACT: note_on channel=0 note=52 velocity=71 time=0.12946421666666666
EXTRACT: note_on channel=0 note=57 velocity=66 time=0
EXTRACT: note_on channel=0 note=60 velocity=74 time=0
EXTRACT: note_on channel=3 note=64 velocity=115 time=0
EXTRACT: note_on channel=4 note=64 velocity=105 time=0
EXTRACT: note_on channel=0 note=52 velocity=0 time=0.13839278333333332
EXTRACT: note_on channel=0 note=60 velocity=0 time=0.008928566666666667
EXTRACT: note_on channel=0 note=57 velocity=0 time=0.013392850000000001
EXTRACT: note_on channel=3 note=64 velocity=0 time=0.20982131666666667
EXTRACT: note_on channel=4 note=64 velocity=0 time=0
EXTRACT: note_on channel=3 note=62 velocity=118 time=0.031249983333333335
EXTRACT: note_on channel=4 note=62 velocity=108 time=0
EXTRACT: note_on channel=0 note=52 velocity=71 time=0.1339285
EXTRACT: note_on channel=0 note=57 velocity=73 time=0
EXTRACT: note_on channel=0 note=60 velocity=82 time=0
EXTRACT: control_change channel=0 control=64 value=0 time=0.0044642833333333335
EXTRACT: note_on channel=4 note=62 velocity=0 time=0.18303561666666668
EXTRACT: note_on channel=3 note=62 velocity=0 time=0
EXTRACT: note_on channel=3 note=60 velocity=108 time=0.0803571
EXTRACT: note_on channel=4 note=60 velocity=98 time=0
EXTRACT: note_on channel=4 note=60 velocity=0 time=0.12946421666666666
EXTRACT: note_on channel=3 note=60 velocity=0 time=0
EXTRACT: note_on channel=1 note=33 velocity=0 time=0.09821423333333333
EXTRACT: note_on channel=0 note=33 velocity=0 time=0.013392850000000001
EXTRACT: note_on channel=5 note=33 velocity=0 time=0.0044642833333333335
EXTRACT: note_on channel=0 note=52 velocity=0 time=0
EXTRACT: note_on channel=0 note=60 velocity=0 time=0.0044642833333333335
EXTRACT: note_on channel=5 note=45 velocity=0 time=0.0044642833333333335
EXTRACT: note_on channel=0 note=45 velocity=0 time=0.008928566666666667
EXTRACT: note_on channel=0 note=57 velocity=0 time=0
EXTRACT: note_on channel=0 note=38 velocity=56 time=0.0044642833333333335
EXTRACT: note_on channel=0 note=50 velocity=70 time=0
EXTRACT: note_on channel=0 note=62 velocity=75 time=0
EXTRACT: note_on channel=0 note=53 velocity=69 time=0
EXTRACT: note_on channel=0 note=57 velocity=88 time=0
EXTRACT: note_on channel=1 note=26 velocity=60 time=0
EXTRACT: note_on channel=3 note=62 velocity=110 time=0
EXTRACT: note_on channel=4 note=62 velocity=100 time=0
EXTRACT: note_on channel=5 note=26 velocity=70 time=0
EXTRACT: note_on channel=5 note=38 velocity=70 time=0
EXTRACT: control_change channel=0 control=64 value=127 time=0.20089275
EXTRACT: note_on channel=0 note=62 velocity=0 time=0.15624991666666668
EXTRACT: note_on channel=0 note=53 velocity=0 time=0.008928566666666667
EXTRACT: note_on channel=0 note=57 velocity=0 time=0.0044642833333333335
EXTRACT: note_on channel=0 note=53 velocity=65 time=0.16517848333333335
EXTRACT: note_on channel=0 note=57 velocity=82 time=0
EXTRACT: note_on channel=0 note=62 velocity=68 time=0
EXTRACT: note_on channel=0 note=62 velocity=0 time=0.11160708333333334
EXTRACT: note_on channel=0 note=57 velocity=0 time=0.008928566666666667
EXTRACT: note_on channel=0 note=53 velocity=0 time=0.013392850000000001
EXTRACT: note_on channel=4 note=62 velocity=0 time=0.08928566666666667
EXTRACT: note_on channel=3 note=62 velocity=0 time=0
EXTRACT: note_on channel=3 note=57 velocity=108 time=0.04464283333333333
EXTRACT: note_on channel=4 note=57 velocity=98 time=0
EXTRACT: note_on channel=0 note=53 velocity=66 time=0.267857
EXTRACT: note_on channel=0 note=57 velocity=74 time=0
EXTRACT: note_on channel=0 note=62 velocity=71 time=0
EXTRACT: note_on channel=0 note=62 velocity=0 time=0.13839278333333332
EXTRACT: note_on channel=0 note=57 velocity=0 time=0.008928566666666667
EXTRACT: note_on channel=0 note=53 velocity=0 time=0.013392850000000001
EXTRACT: note_on channel=0 note=62 velocity=71 time=0.3749998
EXTRACT: note_on channel=0 note=53 velocity=73 time=0
EXTRACT: note_on channel=0 note=57 velocity=82 time=0
EXTRACT: control_change channel=0 control=64 value=0 time=0.0044642833333333335
EXTRACT: note_on channel=4 note=57 velocity=0 time=0.04464283333333333
EXTRACT: note_on channel=3 note=57 velocity=0 time=0
EXTRACT: note_on channel=0 note=62 velocity=0 time=0.4642854666666667
EXTRACT: note_on channel=0 note=57 velocity=0 time=0.0044642833333333335
EXTRACT: note_on channel=0 note=53 velocity=0 time=0.013392850000000001
EXTRACT: note_on channel=0 note=62 velocity=75 time=0.0044642833333333335
EXTRACT: note_on channel=0 note=53 velocity=69 time=0
EXTRACT: note_on channel=0 note=57 velocity=88 time=0
EXTRACT: control_change channel=0 control=64 value=127 time=0.20089275
EXTRACT: note_on channel=0 note=62 velocity=0 time=0.15624991666666668
EXTRACT: note_on channel=0 note=53 velocity=0 time=0.008928566666666667
EXTRACT: note_on channel=0 note=57 velocity=0 time=0.0044642833333333335
EXTRACT: note_on channel=0 note=53 velocity=65 time=0.16517848333333335
EXTRACT: note_on channel=0 note=57 velocity=82 time=0
EXTRACT: note_on channel=0 note=62 velocity=68 time=0
EXTRACT: note_on channel=0 note=62 velocity=0 time=0.11160708333333334
EXTRACT: note_on channel=0 note=57 velocity=0 time=0.008928566666666667
EXTRACT: note_on channel=0 note=53 velocity=0 time=0.013392850000000001
EXTRACT: note_on channel=2 note=69 velocity=120 time=0.10714280000000001
EXTRACT: note_on channel=0 note=53 velocity=66 time=0.29464270000000004
EXTRACT: note_on channel=0 note=57 velocity=74 time=0
EXTRACT: note_on channel=0 note=62 velocity=71 time=0
EXTRACT: note_on channel=0 note=62 velocity=0 time=0.13839278333333332
EXTRACT: note_on channel=0 note=57 velocity=0 time=0.008928566666666667
EXTRACT: note_on channel=0 note=53 velocity=0 time=0.013392850000000001
EXTRACT: note_on channel=1 note=26 velocity=0 time=0.31249983333333337
EXTRACT: note_on channel=5 note=38 velocity=0 time=0.05803568333333334
EXTRACT: note_on channel=5 note=26 velocity=0 time=0
EXTRACT: note_on channel=0 note=38 velocity=0 time=0
EXTRACT: note_on channel=0 note=53 velocity=73 time=0.0044642833333333335
EXTRACT: note_on channel=0 note=57 velocity=82 time=0
EXTRACT: note_on channel=0 note=62 velocity=71 time=0
EXTRACT: note_on channel=0 note=36 velocity=76 time=0
EXTRACT: note_on channel=0 note=48 velocity=68 time=0
EXTRACT: note_on channel=5 note=24 velocity=70 time=0
EXTRACT: note_on channel=5 note=36 velocity=70 time=0
EXTRACT: control_change channel=0 control=64 value=0 time=0.0044642833333333335
EXTRACT: note_on channel=0 note=50 velocity=0 time=0.013392850000000001
EXTRACT: note_on channel=0 note=62 velocity=0 time=0.49553545
EXTRACT: note_on channel=0 note=57 velocity=0 time=0.0044642833333333335
EXTRACT: note_on channel=0 note=53 velocity=0 time=0.013392850000000001
EXTRACT: note_on channel=0 note=53 velocity=69 time=0.0044642833333333335
EXTRACT: note_on channel=0 note=57 velocity=88 time=0
EXTRACT: note_on channel=0 note=62 velocity=75 time=0
EXTRACT: note_on channel=0 note=38 velocity=56 time=0
EXTRACT: note_on channel=0 note=50 velocity=70 time=0
EXTRACT: note_on channel=1 note=26 velocity=60 time=0
EXTRACT: note_on channel=3 note=57 velocity=114 time=0
EXTRACT: note_on channel=4 note=53 velocity=111 time=0
EXTRACT: note_on channel=5 note=26 velocity=70 time=0
EXTRACT: note_on channel=5 note=38 velocity=70 time=0
EXTRACT: note_on channel=15 note=53 velocity=1 time=0
EXTRACT: note_on channel=5 note=36 velocity=0 time=0.017857133333333334
EXTRACT: note_on channel=0 note=48 velocity=0 time=0.0044642833333333335
EXTRACT: note_on channel=0 note=36 velocity=0 time=0.008928566666666667
EXTRACT: note_on channel=5 note=24 velocity=0 time=0.013392850000000001
EXTRACT: note_on channel=15 note=53 velocity=0 time=0.13839278333333332
EXTRACT: note_on channel=4 note=53 velocity=0 time=0
EXTRACT: control_change channel=0 control=64 value=127 time=0.017857133333333334
EXTRACT: note_on channel=3 note=57 velocity=0 time=0.026785700000000003
EXTRACT: note_on channel=2 note=69 velocity=0 time=0.04017855
EXTRACT: note_on channel=3 note=59 velocity=101 time=0
EXTRACT: note_on channel=4 note=55 velocity=98 time=0
EXTRACT: note_on channel=15 note=55 velocity=1 time=0
EXTRACT: note_on channel=0 note=62 velocity=0 time=0.08928566666666667
EXTRACT: note_on channel=0 note=53 velocity=0 time=0.008928566666666667
EXTRACT: note_on channel=0 note=57 velocity=0 time=0.0044642833333333335
EXTRACT: note_on channel=15 note=55 velocity=0 time=0.06696425
EXTRACT: note_on channel=4 note=55 velocity=0 time=0
EXTRACT: note_on channel=3 note=59 velocity=0 time=0.06696425
EXTRACT: note_on channel=0 note=62 velocity=68 time=0.031249983333333335
EXTRACT: note_on channel=0 note=53 velocity=65 time=0
EXTRACT: note_on channel=0 note=57 velocity=82 time=0
EXTRACT: note_on channel=3 note=57 velocity=89 time=0
EXTRACT: note_on channel=4 note=53 velocity=86 time=0
EXTRACT: note_on channel=15 note=53 velocity=1 time=0
EXTRACT: note_on channel=0 note=62 velocity=0 time=0.11160708333333334
EXTRACT: note_on channel=0 note=57 velocity=0 time=0.008928566666666667
EXTRACT: note_on channel=0 note=53 velocity=0 time=0.013392850000000001
EXTRACT: note_on channel=4 note=53 velocity=0 time=0.03571426666666667
EXTRACT: note_on channel=15 note=53 velocity=0 time=0
EXTRACT: note_on channel=3 note=57 velocity=0 time=0.05803568333333334
EXTRACT: note_on channel=3 note=59 velocity=111 time=0.04017855
EXTRACT: note_on channel=4 note=55 velocity=108 time=0
EXTRACT: note_on channel=15 note=55 velocity=1 time=0
EXTRACT: note_on channel=15 note=55 velocity=0 time=0.16517848333333335
EXTRACT: note_on channel=4 note=55 velocity=0 time=0
EXTRACT: note_on channel=3 note=59 velocity=0 time=0.049107116666666666
EXTRACT: note_on channel=0 note=62 velocity=71 time=0.053571400000000005
EXTRACT: note_on channel=0 note=53 velocity=66 time=0
EXTRACT: note_on channel=0 note=57 velocity=74 time=0
EXTRACT: note_on channel=3 note=57 velocity=95 time=0
EXTRACT: note_on channel=4 note=53 velocity=92 time=0
EXTRACT: note_on channel=15 note=53 velocity=1 time=0
EXTRACT: note_on channel=0 note=62 velocity=0 time=0.13839278333333332
EXTRACT: note_on channel=0 note=57 velocity=0 time=0.008928566666666667
EXTRACT: note_on channel=0 note=53 velocity=0 time=0.013392850000000001
EXTRACT: note_on channel=4 note=53 velocity=0 time=0.04017855
EXTRACT: note_on channel=15 note=53 velocity=0 time=0
EXTRACT: note_on channel=3 note=57 velocity=0 time=0.031249983333333335
EXTRACT: note_on channel=3 note=59 velocity=108 time=0.03571426666666667
EXTRACT: note_on channel=4 note=55 velocity=105 time=0
EXTRACT: note_on channel=15 note=55 velocity=1 time=0
EXTRACT: note_on channel=15 note=55 velocity=0 time=0.2633927166666667
EXTRACT: note_on channel=4 note=55 velocity=0 time=0
EXTRACT: note_on channel=3 note=59 velocity=0 time=0
EXTRACT: note_on channel=0 note=53 velocity=73 time=0.0044642833333333335
EXTRACT: note_on channel=0 note=57 velocity=82 time=0
EXTRACT: note_on channel=0 note=62 velocity=71 time=0
EXTRACT: note_on channel=3 note=57 velocity=108 time=0
EXTRACT: note_on channel=4 note=53 velocity=105 time=0
EXTRACT: note_on channel=15 note=53 velocity=1 time=0
EXTRACT: control_change channel=0 control=64 value=0 time=0.0044642833333333335
EXTRACT: note_on channel=15 note=53 velocity=0 time=0.267857
EXTRACT: note_on channel=4 note=53 velocity=0 time=0
EXTRACT: note_on channel=3 note=57 velocity=0 time=0.08928566666666667
EXTRACT: note_on channel=3 note=59 velocity=116 time=0.04017855
EXTRACT: note_on channel=4 note=55 velocity=119 time=0
EXTRACT: note_on channel=15 note=55 velocity=1 time=0
EXTRACT: note_on channel=5 note=26 velocity=0 time=0.09374995
EXTRACT: note_on channel=5 note=38 velocity=0 time=0
EXTRACT: note_on channel=0 note=38 velocity=0 time=0.013392850000000001
EXTRACT: note_on channel=0 note=62 velocity=0 time=0.0044642833333333335
EXTRACT: note_on channel=0 note=57 velocity=0 time=0.0044642833333333335
EXTRACT: note_on channel=4 note=55 velocity=0 time=0.013392850000000001
EXTRACT: note_on channel=0 note=53 velocity=0 time=0
EXTRACT: note_on channel=15 note=55 velocity=0 time=0
EXTRACT: note_on channel=1 note=26 velocity=0 time=0
EXTRACT: note_on channel=0 note=50 velocity=0 time=0
EXTRACT: note_on channel=3 note=59 velocity=0 time=0
EXTRACT: note_on channel=0 note=53 velocity=75 time=0.0044642833333333335
EXTRACT: note_on channel=0 note=57 velocity=69 time=0
EXTRACT: note_on channel=0 note=60 velocity=88 time=0
EXTRACT: note_on channel=0 note=29 velocity=56 time=0
EXTRACT: note_on channel=0 note=41 velocity=70 time=0
EXTRACT: note_on channel=1 note=29 velocity=60 time=0
EXTRACT: note_on channel=3 note=60 velocity=108 time=0
EXTRACT: note_on channel=4 note=57 velocity=105 time=0
EXTRACT: note_on channel=5 note=29 velocity=70 time=0
EXTRACT: note_on channel=5 note=41 velocity=70 time=0
EXTRACT: note_on channel=15 note=57 velocity=1 time=0
EXTRACT: control_change channel=0 control=64 value=127 time=0.20089275
EXTRACT: note_on channel=0 note=53 velocity=0 time=0.15624991666666668
EXTRACT: note_on channel=0 note=57 velocity=0 time=0.008928566666666667
EXTRACT: note_on channel=0 note=60 velocity=0 time=0.0044642833333333335
EXTRACT: note_on channel=4 note=57 velocity=0 time=0.017857133333333334
EXTRACT: note_on channel=15 note=57 velocity=0 time=0
EXTRACT: note_on channel=3 note=60 velocity=0 time=0
EXTRACT: note_on channel=3 note=62 velocity=103 time=0.013392850000000001
EXTRACT: note_on channel=4 note=59 velocity=100 time=0
EXTRACT: note_on channel=15 note=59 velocity=1 time=0
EXTRACT: note_on channel=15 note=59 velocity=0 time=0.12946421666666666
EXTRACT: note_on channel=4 note=59 velocity=0 time=0
EXTRACT: note_on channel=3 note=62 velocity=0 time=0
EXTRACT: note_on channel=0 note=60 velocity=82 time=0.0044642833333333335
EXTRACT: note_on channel=0 note=53 velocity=68 time=0
EXTRACT: note_on channel=0 note=57 velocity=65 time=0
EXTRACT: note_on channel=3 note=60 velocity=86 time=0
EXTRACT: note_on channel=4 note=57 velocity=83 time=0
EXTRACT: note_on channel=15 note=57 velocity=1 time=0
EXTRACT: note_on channel=0 note=53 velocity=0 time=0.11160708333333334
EXTRACT: note_on channel=0 note=60 velocity=0 time=0.008928566666666667
EXTRACT: note_on channel=0 note=57 velocity=0 time=0.013392850000000001
EXTRACT: note_on channel=3 note=60 velocity=0 time=0.12946421666666666
EXTRACT: note_on channel=15 note=57 velocity=0 time=0
EXTRACT: note_on channel=4 note=57 velocity=0 time=0
EXTRACT: note_on channel=3 note=62 velocity=105 time=0.0044642833333333335
EXTRACT: note_on channel=4 note=59 velocity=102 time=0
EXTRACT: note_on channel=15 note=59 velocity=1 time=0
EXTRACT: note_on channel=15 note=59 velocity=0 time=0.2633927166666667
EXTRACT: note_on channel=4 note=59 velocity=0 time=0
EXTRACT: note_on channel=3 note=62 velocity=0 time=0
EXTRACT: note_on channel=0 note=53 velocity=71 time=0.0044642833333333335
EXTRACT: note_on channel=0 note=57 velocity=66 time=0
EXTRACT: note_on channel=0 note=60 velocity=74 time=0
EXTRACT: note_on channel=3 note=60 velocity=83 time=0
EXTRACT: note_on channel=4 note=57 velocity=80 time=0
EXTRACT: note_on channel=15 note=57 velocity=1 time=0
EXTRACT: note_on channel=0 note=53 velocity=0 time=0.13839278333333332
EXTRACT: note_on channel=0 note=60 velocity=0 time=0.008928566666666667
EXTRACT: note_on channel=0 note=57 velocity=0 time=0.013392850000000001
EXTRACT: note_on channel=4 note=57 velocity=0 time=0.013392850000000001
EXTRACT: note_on channel=15 note=57 velocity=0 time=0
EXTRACT: note_on channel=3 note=60 velocity=0 time=0.06249996666666667
EXTRACT: note_on channel=3 note=62 velocity=105 time=0.031249983333333335
EXTRACT: note_on channel=4 note=59 velocity=102 time=0
EXTRACT: note_on channel=15 note=59 velocity=1 time=0
EXTRACT: note_on channel=15 note=59 velocity=0 time=0.15624991666666668
EXTRACT: note_on channel=4 note=59 velocity=0 time=0
EXTRACT: note_on channel=3 note=62 velocity=0 time=0.053571400000000005
EXTRACT: note_on channel=0 note=53 velocity=71 time=0.05803568333333334
EXTRACT: note_on channel=0 note=57 velocity=73 time=0
EXTRACT: note_on channel=0 note=60 velocity=82 time=0
EXTRACT: note_on channel=3 note=60 velocity=86 time=0
EXTRACT: note_on channel=4 note=57 velocity=83 time=0
EXTRACT: note_on channel=15 note=57 velocity=1 time=0
EXTRACT: control_change channel=0 control=64 value=0 time=0.0044642833333333335
EXTRACT: note_on channel=15 note=57 velocity=0 time=0.21874988333333334
EXTRACT: note_on channel=4 note=57 velocity=0 time=0
EXTRACT: note_on channel=3 note=60 velocity=0 time=0.008928566666666667
EXTRACT: note_on channel=3 note=62 velocity=101 time=0.03571426666666667
EXTRACT: note_on channel=4 note=59 velocity=98 time=0
EXTRACT: note_on channel=15 note=59 velocity=1 time=0
EXTRACT: note_on channel=15 note=59 velocity=0 time=0.16964276666666667
EXTRACT: note_on channel=4 note=59 velocity=0 time=0
EXTRACT: note_on channel=1 note=29 velocity=0 time=0.04464283333333333
EXTRACT: note_on channel=3 note=62 velocity=0 time=0.0044642833333333335
EXTRACT: note_on channel=0 note=29 velocity=0 time=0.022321416666666666
EXTRACT: note_on channel=0 note=53 velocity=0 time=0.0044642833333333335
EXTRACT: note_on channel=0 note=60 velocity=0 time=0.0044642833333333335
EXTRACT: note_on channel=0 note=41 velocity=0 time=0.013392850000000001
EXTRACT: note_on channel=5 note=41 velocity=0 time=0
EXTRACT: note_on channel=0 note=57 velocity=0 time=0
EXTRACT: note_on channel=0 note=57 velocity=69 time=0.0044642833333333335
EXTRACT: note_on channel=0 note=33 velocity=56 time=0
EXTRACT: note_on channel=0 note=45 velocity=70 time=0
EXTRACT: note_on channel=0 note=60 velocity=88 time=0
EXTRACT: note_on channel=0 note=64 velocity=75 time=0
EXTRACT: note_on channel=1 note=33 velocity=60 time=0
EXTRACT: note_on channel=3 note=64 velocity=101 time=0
EXTRACT: note_on channel=4 note=60 velocity=98 time=0
EXTRACT: note_on channel=5 note=33 velocity=70 time=0
EXTRACT: note_on channel=5 note=45 velocity=70 time=0
EXTRACT: note_on channel=15 note=60 velocity=1 time=0
EXTRACT: note_on channel=5 note=29 velocity=0 time=0.013392850000000001
EXTRACT: control_change channel=0 control=64 value=127 time=0.1874999
EXTRACT: note_on channel=0 note=64 velocity=0 time=0.15624991666666668
EXTRACT: note_on channel=0 note=57 velocity=0 time=0.008928566666666667
EXTRACT: note_on channel=0 note=60 velocity=0 time=0.0044642833333333335
EXTRACT: note_on channel=0 note=57 velocity=65 time=0.16517848333333335
EXTRACT: note_on channel=0 note=60 velocity=82 time=0
EXTRACT: note_on channel=0 note=64 velocity=68 time=0
EXTRACT: note_on channel=0 note=64 velocity=0 time=0.11160708333333334
EXTRACT: note_on channel=0 note=60 velocity=0 time=0.008928566666666667
EXTRACT: note_on channel=0 note=57 velocity=0 time=0.013392850000000001
EXTRACT: note_on channel=3 note=64 velocity=0 time=0.17410705
EXTRACT: note_on channel=4 note=60 velocity=0 time=0
EXTRACT: note_on channel=15 note=60 velocity=0 time=0
EXTRACT: note_on channel=0 note=57 velocity=66 time=0.22767845
EXTRACT: note_on channel=0 note=60 velocity=74 time=0
EXTRACT: note_on channel=0 note=64 velocity=71 time=0
EXTRACT: note_on channel=3 note=64 velocity=97 time=0
EXTRACT: note_on channel=4 note=60 velocity=94 time=0
EXTRACT: note_on channel=15 note=60 velocity=1 time=0
EXTRACT: note_on channel=0 note=64 velocity=0 time=0.13839278333333332
EXTRACT: note_on channel=0 note=60 velocity=0 time=0.008928566666666667
EXTRACT: note_on channel=0 note=57 velocity=0 time=0.013392850000000001
EXTRACT: note_on channel=0 note=57 velocity=73 time=0.3749998
EXTRACT: note_on channel=0 note=60 velocity=82 time=0
EXTRACT: note_on channel=0 note=64 velocity=71 time=0
EXTRACT: control_change channel=0 control=64 value=0 time=0.0044642833333333335
EXTRACT: note_on channel=0 note=64 velocity=0 time=0.5089283
EXTRACT: note_on channel=0 note=60 velocity=0 time=0.0044642833333333335
EXTRACT: note_on channel=0 note=57 velocity=0 time=0.013392850000000001
EXTRACT: note_on channel=0 note=57 velocity=75 time=0.0044642833333333335
EXTRACT: note_on channel=0 note=60 velocity=69 time=0
EXTRACT: note_on channel=0 note=64 velocity=88 time=0
EXTRACT: note_on channel=15 note=60 velocity=0 time=0.053571400000000005
EXTRACT: note_on channel=3 note=64 velocity=0 time=0
EXTRACT: note_on channel=4 note=60 velocity=0 time=0
EXTRACT: control_change channel=0 control=64 value=127 time=0.14732135000000002
EXTRACT: note_on channel=0 note=57 velocity=0 time=0.15624991666666668
EXTRACT: note_on channel=0 note=60 velocity=0 time=0.008928566666666667
EXTRACT: note_on channel=0 note=64 velocity=0 time=0.0044642833333333335
EXTRACT: note_on channel=0 note=57 velocity=68 time=0.16517848333333335
EXTRACT: note_on channel=0 note=60 velocity=65 time=0
EXTRACT: note_on channel=0 note=64 velocity=82 time=0
EXTRACT: note_on channel=0 note=57 velocity=0 time=0.11160708333333334
EXTRACT: note_on channel=0 note=64 velocity=0 time=0.008928566666666667
EXTRACT: note_on channel=0 note=60 velocity=0 time=0.013392850000000001
EXTRACT: note_on channel=0 note=57 velocity=71 time=0.4017855
EXTRACT: note_on channel=0 note=60 velocity=66 time=0
EXTRACT: note_on channel=0 note=64 velocity=74 time=0
EXTRACT: note_on channel=9 note=28 velocity=46 time=0
EXTRACT: note_on channel=9 note=75 velocity=60 time=0
EXTRACT: note_on channel=9 note=75 velocity=0 time=0.07142853333333334
EXTRACT: note_on channel=0 note=57 velocity=0 time=0.06696425
EXTRACT: note_on channel=0 note=64 velocity=0 time=0.008928566666666667
EXTRACT: note_on channel=0 note=60 velocity=0 time=0.013392850000000001
EXTRACT: note_on channel=0 note=57 velocity=71 time=0.3749998
EXTRACT: note_on channel=0 note=60 velocity=73 time=0
EXTRACT: note_on channel=0 note=64 velocity=82 time=0
EXTRACT: control_change channel=0 control=64 value=0 time=0.0044642833333333335
EXTRACT: note_on channel=3 note=52 velocity=79 time=0.2633927166666667
EXTRACT: note_on channel=4 note=48 velocity=89 time=0
EXTRACT: note_on channel=15 note=48 velocity=1 time=0
EXTRACT: note_on channel=9 note=28 velocity=0 time=0.04017855
EXTRACT: note_on channel=0 note=33 velocity=0 time=0.08928566666666667
EXTRACT: note_on channel=0 note=45 velocity=0 time=0.022321416666666666
EXTRACT: note_on channel=3 note=52 velocity=0 time=0.026785700000000003
EXTRACT: note_on channel=4 note=48 velocity=0 time=0
EXTRACT: note_on channel=15 note=48 velocity=0 time=0
EXTRACT: note_on channel=0 note=57 velocity=0 time=0.06696425
EXTRACT: note_on channel=0 note=64 velocity=0 time=0.0044642833333333335
EXTRACT: note_on channel=0 note=60 velocity=0 time=0.013392850000000001
EXTRACT: note_on channel=1 note=33 velocity=0 time=0
EXTRACT: note_on channel=0 note=53 velocity=69 time=0.0044642833333333335
EXTRACT: note_on channel=0 note=57 velocity=88 time=0
EXTRACT: note_on channel=0 note=62 velocity=75 time=0
EXTRACT: note_on channel=0 note=38 velocity=56 time=0
EXTRACT: note_on channel=0 note=50 velocity=70 time=0
EXTRACT: note_on channel=1 note=26 velocity=60 time=0
EXTRACT: note_on channel=3 note=57 velocity=117 time=0
EXTRACT: note_on channel=4 note=53 velocity=111 time=0
EXTRACT: note_on channel=5 note=26 velocity=70 time=0
EXTRACT: note_on channel=5 note=38 velocity=70 time=0
EXTRACT: note_on channel=15 note=53 velocity=1 time=0
EXTRACT: note_on channel=5 note=33 velocity=0 time=0.017857133333333334
EXTRACT: note_on channel=5 note=45 velocity=0 time=0
EXTRACT: control_change channel=0 control=64 value=127 time=0.18303561666666668
EXTRACT: note_on channel=4 note=53 velocity=0 time=0.03571426666666667
EXTRACT: note_on channel=15 note=53 velocity=0 time=0
EXTRACT: note_on channel=3 note=57 velocity=0 time=0.013392850000000001
EXTRACT: note_on channel=3 note=59 velocity=104 time=0.017857133333333334
EXTRACT: note_on channel=4 note=55 velocity=98 time=0
EXTRACT: note_on channel=15 note=55 velocity=1 time=0
EXTRACT: note_on channel=0 note=62 velocity=0 time=0.08928566666666667
EXTRACT: note_on channel=0 note=53 velocity=0 time=0.008928566666666667
EXTRACT: note_on channel=0 note=57 velocity=0 time=0.0044642833333333335
EXTRACT: note_on channel=3 note=59 velocity=0 time=0.06696425
EXTRACT: note_on channel=15 note=55 velocity=0 time=0.08928566666666667
EXTRACT: note_on channel=4 note=55 velocity=0 time=0
EXTRACT: note_on channel=0 note=62 velocity=68 time=0.008928566666666667
EXTRACT: note_on channel=0 note=53 velocity=65 time=0
EXTRACT: note_on channel=0 note=57 velocity=82 time=0
EXTRACT: note_on channel=3 note=57 velocity=92 time=0
EXTRACT: note_on channel=4 note=53 velocity=86 time=0
EXTRACT: note_on channel=15 note=53 velocity=1 time=0
EXTRACT: note_on channel=0 note=62 velocity=0 time=0.11160708333333334
EXTRACT: note_on channel=0 note=57 velocity=0 time=0.008928566666666667
EXTRACT: note_on channel=0 note=53 velocity=0 time=0.013392850000000001
EXTRACT: note_on channel=3 note=57 velocity=0 time=0.09374995
EXTRACT: note_on channel=4 note=53 velocity=0 time=0.008928566666666667
EXTRACT: note_on channel=15 note=53 velocity=0 time=0
EXTRACT: note_on channel=3 note=59 velocity=114 time=0.031249983333333335
EXTRACT: note_on channel=4 note=55 velocity=108 time=0
EXTRACT: note_on channel=15 note=55 velocity=1 time=0
EXTRACT: note_on channel=15 note=55 velocity=0 time=0.16517848333333335
EXTRACT: note_on channel=4 note=55 velocity=0 time=0
EXTRACT: note_on channel=3 note=59 velocity=0 time=0.049107116666666666
EXTRACT: note_on channel=0 note=62 velocity=71 time=0.053571400000000005
EXTRACT: note_on channel=0 note=53 velocity=66 time=0
EXTRACT: note_on channel=0 note=57 velocity=74 time=0
EXTRACT: note_on channel=3 note=57 velocity=98 time=0
EXTRACT: note_on channel=4 note=53 velocity=92 time=0
EXTRACT: note_on channel=15 note=53 velocity=1 time=0
EXTRACT: note_on channel=15 note=53 velocity=0 time=0.12946421666666666
EXTRACT: note_on channel=4 note=53 velocity=0 time=0
EXTRACT: note_on channel=3 note=57 velocity=0 time=0
EXTRACT: note_on channel=3 note=59 velocity=111 time=0.0044642833333333335
EXTRACT: note_on channel=4 note=55 velocity=105 time=0
EXTRACT: note_on channel=15 note=55 velocity=1 time=0
EXTRACT: note_on channel=0 note=62 velocity=0 time=0.0044642833333333335
EXTRACT: note_on channel=0 note=57 velocity=0 time=0.008928566666666667
EXTRACT: note_on channel=0 note=53 velocity=0 time=0.013392850000000001
EXTRACT: note_on channel=4 note=55 velocity=0 time=0.10267851666666666
EXTRACT: note_on channel=3 note=59 velocity=0 time=0
EXTRACT: note_on channel=15 note=55 velocity=0 time=0
EXTRACT: note_on channel=3 note=57 velocity=111 time=0.0044642833333333335
EXTRACT: note_on channel=4 note=53 velocity=105 time=0
EXTRACT: note_on channel=15 note=53 velocity=1 time=0
EXTRACT: note_on channel=0 note=62 velocity=71 time=0.267857
EXTRACT: note_on channel=0 note=53 velocity=73 time=0
EXTRACT: note_on channel=0 note=57 velocity=82 time=0
EXTRACT: control_change channel=0 control=64 value=0 time=0.0044642833333333335
EXTRACT: note_on channel=3 note=59 velocity=115 time=0.2633927166666667
EXTRACT: note_on channel=4 note=55 velocity=109 time=0
EXTRACT: note_on channel=15 note=55 velocity=1 time=0
EXTRACT: note_on channel=15 note=53 velocity=0 time=0.0044642833333333335
EXTRACT: note_on channel=4 note=53 velocity=0 time=0
EXTRACT: note_on channel=3 note=57 velocity=0 time=0
EXTRACT: note_on channel=0 note=38 velocity=0 time=0.23660701666666667
EXTRACT: note_on channel=0 note=62 velocity=0 time=0.0044642833333333335
EXTRACT: note_on channel=0 note=57 velocity=0 time=0.0044642833333333335
EXTRACT: note_on channel=15 note=55 velocity=0 time=0.013392850000000001
EXTRACT: note_on channel=1 note=26 velocity=0 time=0
EXTRACT: note_on channel=3 note=59 velocity=0 time=0
EXTRACT: note_on channel=4 note=55 velocity=0 time=0
EXTRACT: note_on channel=0 note=53 velocity=0 time=0
EXTRACT: note_on channel=0 note=50 velocity=0 time=0
EXTRACT: note_on channel=0 note=53 velocity=75 time=0.0044642833333333335
EXTRACT: note_on channel=0 note=57 velocity=69 time=0
EXTRACT: note_on channel=0 note=60 velocity=88 time=0
EXTRACT: note_on channel=0 note=29 velocity=56 time=0
EXTRACT: note_on channel=0 note=41 velocity=70 time=0
EXTRACT: note_on channel=1 note=29 velocity=60 time=0
EXTRACT: note_on channel=3 note=60 velocity=111 time=0
EXTRACT: note_on channel=4 note=57 velocity=105 time=0
EXTRACT: note_on channel=5 note=29 velocity=70 time=0
EXTRACT: note_on channel=5 note=41 velocity=70 time=0
EXTRACT: note_on channel=15 note=57 velocity=1 time=0
EXTRACT: note_on channel=5 note=26 velocity=0 time=0.031249983333333335
EXTRACT: note_on channel=5 note=38 velocity=0 time=0.0044642833333333335
EXTRACT: control_change channel=0 control=64 value=127 time=0.16517848333333335
EXTRACT: note_on channel=0 note=53 velocity=0 time=0.15624991666666668
EXTRACT: note_on channel=0 note=57 velocity=0 time=0.008928566666666667
EXTRACT: note_on channel=0 note=60 velocity=0 time=0.0044642833333333335
EXTRACT: note_on channel=3 note=60 velocity=0 time=0.017857133333333334
EXTRACT: note_on channel=4 note=57 velocity=0 time=0
EXTRACT: note_on channel=15 note=57 velocity=0 time=0
EXTRACT: note_on channel=3 note=62 velocity=106 time=0.013392850000000001
EXTRACT: note_on channel=4 note=59 velocity=100 time=0
EXTRACT: note_on channel=15 note=59 velocity=1 time=0
EXTRACT: note_on channel=15 note=59 velocity=0 time=0.12946421666666666
EXTRACT: note_on channel=4 note=59 velocity=0 time=0
EXTRACT: note_on channel=3 note=62 velocity=0 time=0
EXTRACT: note_on channel=0 note=60 velocity=82 time=0.0044642833333333335
EXTRACT: note_on channel=0 note=53 velocity=68 time=0
EXTRACT: note_on channel=0 note=57 velocity=65 time=0
EXTRACT: note_on channel=3 note=60 velocity=89 time=0
EXTRACT: note_on channel=4 note=57 velocity=83 time=0
EXTRACT: note_on channel=15 note=57 velocity=1 time=0
EXTRACT: note_on channel=0 note=53 velocity=0 time=0.11160708333333334
EXTRACT: note_on channel=0 note=60 velocity=0 time=0.008928566666666667
EXTRACT: note_on channel=0 note=57 velocity=0 time=0.013392850000000001
EXTRACT: note_on channel=3 note=60 velocity=0 time=0.12946421666666666
EXTRACT: note_on channel=15 note=57 velocity=0 time=0
EXTRACT: note_on channel=4 note=57 velocity=0 time=0
EXTRACT: note_on channel=3 note=62 velocity=108 time=0.0044642833333333335
EXTRACT: note_on channel=4 note=59 velocity=102 time=0
EXTRACT: note_on channel=15 note=59 velocity=1 time=0
EXTRACT: note_on channel=15 note=59 velocity=0 time=0.2633927166666667
EXTRACT: note_on channel=4 note=59 velocity=0 time=0
EXTRACT: note_on channel=3 note=62 velocity=0 time=0
EXTRACT: note_on channel=0 note=60 velocity=74 time=0.0044642833333333335
EXTRACT: note_on channel=0 note=53 velocity=71 time=0
EXTRACT: note_on channel=0 note=57 velocity=66 time=0
EXTRACT: note_on channel=3 note=60 velocity=86 time=0
EXTRACT: note_on channel=4 note=57 velocity=80 time=0
EXTRACT: note_on channel=15 note=57 velocity=1 time=0
EXTRACT: note_on channel=15 note=57 velocity=0 time=0.12946421666666666
EXTRACT: note_on channel=4 note=57 velocity=0 time=0
EXTRACT: note_on channel=3 note=60 velocity=0 time=0
EXTRACT: note_on channel=3 note=62 velocity=108 time=0.0044642833333333335
EXTRACT: note_on channel=4 note=59 velocity=102 time=0
EXTRACT: note_on channel=15 note=59 velocity=1 time=0
EXTRACT: note_on channel=0 note=53 velocity=0 time=0.0044642833333333335
EXTRACT: note_on channel=0 note=60 velocity=0 time=0.008928566666666667
EXTRACT: note_on channel=0 note=57 velocity=0 time=0.013392850000000001
EXTRACT: note_on channel=3 note=62 velocity=0 time=0.10267851666666666
EXTRACT: note_on channel=15 note=59 velocity=0 time=0
EXTRACT: note_on channel=4 note=59 velocity=0 time=0
EXTRACT: note_on channel=3 note=60 velocity=89 time=0.0044642833333333335
EXTRACT: note_on channel=4 note=57 velocity=83 time=0
EXTRACT: note_on channel=15 note=57 velocity=1 time=0
EXTRACT: note_on channel=0 note=60 velocity=82 time=0.267857
EXTRACT: note_on channel=0 note=53 velocity=71 time=0
EXTRACT: note_on channel=0 note=57 velocity=73 time=0
EXTRACT: control_change channel=0 control=64 value=0 time=0.0044642833333333335
EXTRACT: note_on channel=15 note=57 velocity=0 time=0.21874988333333334
EXTRACT: note_on channel=4 note=57 velocity=0 time=0
EXTRACT: note_on channel=3 note=60 velocity=0 time=0
EXTRACT: note_on channel=3 note=62 velocity=104 time=0.04464283333333333
EXTRACT: note_on channel=4 note=59 velocity=98 time=0
EXTRACT: note_on channel=15 note=59 velocity=1 time=0
EXTRACT: note_on channel=0 note=29 velocity=0 time=0.24107130000000002
EXTRACT: note_on channel=0 note=53 velocity=0 time=0.0044642833333333335
EXTRACT: note_on channel=0 note=60 velocity=0 time=0.0044642833333333335
EXTRACT: note_on channel=5 note=41 velocity=0 time=0.0044642833333333335
EXTRACT: note_on channel=0 note=57 velocity=0 time=0.008928566666666667
EXTRACT: note_on channel=0 note=41 velocity=0 time=0
EXTRACT: note_on channel=1 note=29 velocity=0 time=0
EXTRACT: note_on channel=15 note=59 velocity=0 time=0
EXTRACT: note_on channel=4 note=59 velocity=0 time=0
EXTRACT: note_on channel=3 note=62 velocity=0 time=0
EXTRACT: note_on channel=5 note=29 velocity=0 time=0.0044642833333333335
EXTRACT: note_on channel=0 note=31 velocity=56 time=0
EXTRACT: note_on channel=0 note=59 velocity=88 time=0
EXTRACT: note_on channel=0 note=43 velocity=70 time=0
EXTRACT: note_on channel=0 note=55 velocity=69 time=0
EXTRACT: note_on channel=0 note=62 velocity=75 time=0
EXTRACT: note_on channel=1 note=31 velocity=60 time=0
EXTRACT: note_on channel=3 note=64 velocity=104 time=0
EXTRACT: note_on channel=4 note=59 velocity=98 time=0
EXTRACT: note_on channel=5 note=31 velocity=70 time=0
EXTRACT: note_on channel=5 note=43 velocity=70 time=0
EXTRACT: note_on channel=15 note=59 velocity=1 time=0
EXTRACT: control_change channel=0 control=64 value=127 time=0.20089275
EXTRACT: note_on channel=0 note=62 velocity=0 time=0.15624991666666668
EXTRACT: note_on channel=0 note=55 velocity=0 time=0.008928566666666667
EXTRACT: note_on channel=0 note=59 velocity=0 time=0.0044642833333333335
EXTRACT: note_on channel=0 note=55 velocity=65 time=0.16517848333333335
EXTRACT: note_on channel=0 note=59 velocity=82 time=0
EXTRACT: note_on channel=0 note=62 velocity=68 time=0
EXTRACT: note_on channel=0 note=62 velocity=0 time=0.11160708333333334
EXTRACT: note_on channel=0 note=59 velocity=0 time=0.008928566666666667
EXTRACT: note_on channel=0 note=55 velocity=0 time=0.013392850000000001
EXTRACT: note_on channel=15 note=59 velocity=0 time=0.17410705
EXTRACT: note_on channel=4 note=59 velocity=0 time=0
EXTRACT: note_on channel=3 note=64 velocity=0 time=0
EXTRACT: note_on channel=0 note=55 velocity=66 time=0.22767845
EXTRACT: note_on channel=0 note=59 velocity=74 time=0
EXTRACT: note_on channel=0 note=62 velocity=71 time=0
EXTRACT: note_on channel=3 note=64 velocity=100 time=0
EXTRACT: note_on channel=4 note=59 velocity=94 time=0
EXTRACT: note_on channel=15 note=59 velocity=1 time=0
EXTRACT: note_on channel=0 note=62 velocity=0 time=0.13839278333333332
EXTRACT: note_on channel=0 note=59 velocity=0 time=0.008928566666666667
EXTRACT: note_on channel=0 note=55 velocity=0 time=0.013392850000000001
EXTRACT: note_on channel=6 note=55 velocity=1 time=0.10714280000000001
EXTRACT: note_on channel=6 note=55 velocity=0 time=0.06249996666666667
EXTRACT: note_on channel=6 note=19 velocity=88 time=0.07142853333333334
EXTRACT: note_on channel=0 note=55 velocity=73 time=0.1339285
EXTRACT: note_on channel=0 note=59 velocity=82 time=0
EXTRACT: note_on channel=0 note=62 velocity=71 time=0
EXTRACT: control_change channel=0 control=64 value=0 time=0.0044642833333333335
EXTRACT: note_on channel=0 note=62 velocity=0 time=0.5089283
EXTRACT: note_on channel=0 note=59 velocity=0 time=0.0044642833333333335
EXTRACT: note_on channel=0 note=55 velocity=0 time=0.013392850000000001
EXTRACT: note_on channel=0 note=55 velocity=75 time=0.0044642833333333335
EXTRACT: note_on channel=0 note=59 velocity=69 time=0
EXTRACT: note_on channel=0 note=62 velocity=88 time=0
EXTRACT: note_on channel=15 note=59 velocity=0 time=0.053571400000000005
EXTRACT: note_on channel=3 note=64 velocity=0 time=0
EXTRACT: note_on channel=4 note=59 velocity=0 time=0
EXTRACT: control_change channel=0 control=64 value=127 time=0.14732135000000002
EXTRACT: note_on channel=0 note=55 velocity=0 time=0.15624991666666668
EXTRACT: note_on channel=0 note=59 velocity=0 time=0.008928566666666667
EXTRACT: note_on channel=0 note=62 velocity=0 time=0.0044642833333333335
EXTRACT: note_on channel=0 note=62 velocity=82 time=0.16517848333333335
EXTRACT: note_on channel=0 note=55 velocity=68 time=0
EXTRACT: note_on channel=0 note=59 velocity=65 time=0
EXTRACT: note_on channel=0 note=55 velocity=0 time=0.11160708333333334
EXTRACT: note_on channel=0 note=62 velocity=0 time=0.008928566666666667
EXTRACT: note_on channel=0 note=59 velocity=0 time=0.013392850000000001
EXTRACT: note_on channel=2 note=69 velocity=120 time=0.10714280000000001
EXTRACT: note_on channel=0 note=62 velocity=74 time=0.29464270000000004
EXTRACT: note_on channel=0 note=55 velocity=71 time=0
EXTRACT: note_on channel=0 note=60 velocity=66 time=0
EXTRACT: note_on channel=0 note=55 velocity=0 time=0.13839278333333332
EXTRACT: note_on channel=0 note=62 velocity=0 time=0.008928566666666667
EXTRACT: note_on channel=0 note=60 velocity=0 time=0.013392850000000001
EXTRACT: note_on channel=0 note=62 velocity=82 time=0.3749998
EXTRACT: note_on channel=0 note=55 velocity=71 time=0
EXTRACT: note_on channel=0 note=60 velocity=73 time=0
EXTRACT: control_change channel=0 control=64 value=0 time=0.0044642833333333335
EXTRACT: note_on channel=6 note=19 velocity=0 time=0.049107116666666666
EXTRACT: note_on channel=0 note=31 velocity=0 time=0.34374981666666665
EXTRACT: note_on channel=0 note=43 velocity=0 time=0.022321416666666666
EXTRACT: note_on channel=1 note=31 velocity=0 time=0.026785700000000003
EXTRACT: note_on channel=0 note=55 velocity=0 time=0.06696425
EXTRACT: note_on channel=0 note=62 velocity=0 time=0.0044642833333333335
EXTRACT: note_on channel=0 note=60 velocity=0 time=0.013392850000000001
EXTRACT: note_on channel=0 note=36 velocity=90 time=0.0044642833333333335
EXTRACT: note_on channel=0 note=48 velocity=70 time=0
EXTRACT: note_on channel=0 note=64 velocity=86 time=0
EXTRACT: note_on channel=0 note=55 velocity=73 time=0
EXTRACT: note_on channel=0 note=60 velocity=88 time=0
EXTRACT: note_on channel=1 note=36 velocity=60 time=0
EXTRACT: note_on channel=5 note=36 velocity=70 time=0
EXTRACT: note_on channel=5 note=48 velocity=60 time=0
EXTRACT: note_on channel=9 note=28 velocity=46 time=0
EXTRACT: note_on channel=9 note=35 velocity=47 time=0
EXTRACT: note_on channel=9 note=75 velocity=60 time=0
EXTRACT: note_on channel=5 note=43 velocity=0 time=0.008928566666666667
EXTRACT: note_on channel=5 note=31 velocity=0 time=0
EXTRACT: note_on channel=9 note=75 velocity=0 time=0.06249996666666667
EXTRACT: note_on channel=9 note=35 velocity=0 time=0.12499993333333334
EXTRACT: control_change channel=0 control=64 value=127 time=0.06249996666666667
EXTRACT: note_on channel=2 note=69 velocity=0 time=0.008928566666666667
EXTRACT: note_on channel=3 note=64 velocity=120 time=0
EXTRACT: note_on channel=3 note=64 velocity=0 time=0.07589281666666667
EXTRACT: note_on channel=0 note=64 velocity=0 time=0.031249983333333335
EXTRACT: note_on channel=0 note=55 velocity=0 time=0.013392850000000001
EXTRACT: note_on channel=0 note=60 velocity=0 time=0.0044642833333333335
EXTRACT: note_on channel=0 note=55 velocity=62 time=0.14285706666666667
EXTRACT: note_on channel=0 note=60 velocity=70 time=0
EXTRACT: note_on channel=0 note=64 velocity=73 time=0
EXTRACT: note_on channel=3 note=64 velocity=120 time=0
EXTRACT: note_on channel=0 note=64 velocity=0 time=0.1339285
EXTRACT: note_on channel=0 note=60 velocity=0 time=0.013392850000000001
EXTRACT: note_on channel=0 note=55 velocity=0 time=0.013392850000000001
EXTRACT: note_on channel=3 note=64 velocity=0 time=0.06249996666666667
EXTRACT: note_on channel=3 note=67 velocity=102 time=0.04464283333333333
EXTRACT: note_on channel=9 note=28 velocity=0 time=0.04017855
EXTRACT: note_on channel=3 note=67 velocity=0 time=0.049107116666666666
EXTRACT: note_on channel=0 note=64 velocity=88 time=0.17857133333333333
EXTRACT: note_on channel=0 note=55 velocity=79 time=0
EXTRACT: note_on channel=0 note=60 velocity=84 time=0
EXTRACT: note_on channel=3 note=67 velocity=106 time=0
EXTRACT: note_on channel=0 note=60 velocity=0 time=0.14732135000000002
EXTRACT: note_on channel=0 note=64 velocity=0 time=0.017857133333333334
EXTRACT: note_on channel=0 note=55 velocity=0 time=0.013392850000000001
EXTRACT: note_on channel=3 note=67 velocity=0 time=0.2589284333333333
EXTRACT: control_change channel=0 control=64 value=0 time=0.08928566666666667
EXTRACT: note_on channel=0 note=55 velocity=73 time=0.008928566666666667
EXTRACT: note_on channel=0 note=60 velocity=84 time=0
EXTRACT: note_on channel=0 note=64 velocity=88 time=0
EXTRACT: note_on channel=3 note=64 velocity=106 time=0
EXTRACT: control_change channel=0 control=64 value=127 time=0.18303561666666668
EXTRACT: note_on channel=3 note=64 velocity=0 time=0.053571400000000005
EXTRACT: note_on channel=3 note=62 velocity=88 time=0.031249983333333335
EXTRACT: note_on channel=0 note=64 velocity=0 time=0.031249983333333335
EXTRACT: note_on channel=0 note=60 velocity=0 time=0.013392850000000001
EXTRACT: note_on channel=0 note=55 velocity=0 time=0.0044642833333333335
EXTRACT: note_on channel=3 note=62 velocity=0 time=0.031249983333333335
EXTRACT: note_on channel=1 note=36 velocity=0 time=0.18303561666666668
EXTRACT: note_on channel=0 note=48 velocity=0 time=0
EXTRACT: control_change channel=0 control=64 value=0 time=0.0044642833333333335
EXTRACT: note_on channel=0 note=57 velocity=73 time=0
EXTRACT: note_on channel=0 note=38 velocity=90 time=0
EXTRACT: note_on channel=0 note=50 velocity=70 time=0
EXTRACT: note_on channel=0 note=62 velocity=88 time=0
EXTRACT: note_on channel=0 note=65 velocity=86 time=0
EXTRACT: note_on channel=1 note=38 velocity=60 time=0
EXTRACT: note_on channel=3 note=62 velocity=102 time=0
EXTRACT: note_on channel=5 note=38 velocity=70 time=0
EXTRACT: note_on channel=5 note=50 velocity=60 time=0
EXTRACT: note_on channel=5 note=36 velocity=0 time=0.022321416666666666
EXTRACT: note_on channel=5 note=48 velocity=0 time=0.0044642833333333335
EXTRACT: note_on channel=0 note=36 velocity=0 time=0.008928566666666667
EXTRACT: note_on channel=3 note=62 velocity=0 time=0.20535703333333333
EXTRACT: control_change channel=0 control=64 value=127 time=0.017857133333333334
EXTRACT: note_on channel=3 note=60 velocity=95 time=0.008928566666666667
EXTRACT: note_on channel=3 note=60 velocity=0 time=0.10267851666666666
EXTRACT: note_on channel=0 note=65 velocity=0 time=0.0044642833333333335
EXTRACT: note_on channel=0 note=57 velocity=0 time=0.013392850000000001
EXTRACT: note_on channel=0 note=62 velocity=0 time=0.0044642833333333335
EXTRACT: note_on channel=0 note=57 velocity=62 time=0.14285706666666667
EXTRACT: note_on channel=0 note=62 velocity=70 time=0
EXTRACT: note_on channel=0 note=65 velocity=73 time=0
EXTRACT: note_on channel=3 note=62 velocity=106 time=0
EXTRACT: note_on channel=0 note=65 velocity=0 time=0.1339285
EXTRACT: note_on channel=0 note=62 velocity=0 time=0.013392850000000001
EXTRACT: note_on channel=0 note=57 velocity=0 time=0.013392850000000001
EXTRACT: note_on channel=3 note=62 velocity=0 time=0.29464270000000004
EXTRACT: note_on channel=0 note=57 velocity=79 time=0.0803571
EXTRACT: note_on channel=0 note=62 velocity=84 time=0
EXTRACT: note_on channel=0 note=65 velocity=88 time=0
EXTRACT: note_on channel=3 note=57 velocity=110 time=0
EXTRACT: note_on channel=0 note=62 velocity=0 time=0.14732135000000002
EXTRACT: note_on channel=0 note=65 velocity=0 time=0.017857133333333334
EXTRACT: note_on channel=0 note=57 velocity=0 time=0.013392850000000001
EXTRACT: control_change channel=0 control=64 value=0 time=0.3482141
EXTRACT: note_on channel=0 note=57 velocity=73 time=0.008928566666666667
EXTRACT: note_on channel=0 note=62 velocity=84 time=0
EXTRACT: note_on channel=0 note=65 velocity=88 time=0
EXTRACT: note_on channel=3 note=57 velocity=0 time=0.07142853333333334
EXTRACT: control_change channel=0 control=64 value=127 time=0.11160708333333334
EXTRACT: note_on channel=3 note=60 velocity=95 time=0.08482138333333333
EXTRACT: note_on channel=0 note=65 velocity=0 time=0.031249983333333335
EXTRACT: note_on channel=0 note=62 velocity=0 time=0.013392850000000001
EXTRACT: note_on channel=0 note=57 velocity=0 time=0.0044642833333333335
EXTRACT: note_on channel=5 note=38 velocity=0 time=0.16517848333333335
EXTRACT: note_on channel=5 note=50 velocity=0 time=0
EXTRACT: note_on channel=0 note=38 velocity=0 time=0.03571426666666667
EXTRACT: note_on channel=1 note=38 velocity=0 time=0.013392850000000001
EXTRACT: note_on channel=0 note=50 velocity=0 time=0
EXTRACT: note_on channel=0 note=45 velocity=70 time=0.0044642833333333335
EXTRACT: note_on channel=0 note=57 velocity=73 time=0
EXTRACT: note_on channel=0 note=60 velocity=88 time=0
EXTRACT: note_on channel=0 note=64 velocity=86 time=0
EXTRACT: control_change channel=0 control=64 value=0 time=0
EXTRACT: note_on channel=0 note=33 velocity=90 time=0
EXTRACT: note_on channel=1 note=33 velocity=60 time=0
EXTRACT: note_on channel=5 note=33 velocity=70 time=0
EXTRACT: note_on channel=5 note=45 velocity=60 time=0
EXTRACT: note_on channel=3 note=60 velocity=0 time=0.11160708333333334
EXTRACT: control_change channel=0 control=64 value=127 time=0.14732135000000002
EXTRACT: note_on channel=3 note=60 velocity=106 time=0.008928566666666667
EXTRACT: note_on channel=0 note=64 velocity=0 time=0.10714280000000001
EXTRACT: note_on channel=0 note=57 velocity=0 time=0.013392850000000001
EXTRACT: note_on channel=0 note=60 velocity=0 time=0.0044642833333333335
EXTRACT: note_on channel=3 note=60 velocity=0 time=0.11607136666666668
EXTRACT: note_on channel=0 note=64 velocity=73 time=0.026785700000000003
EXTRACT: note_on channel=0 note=57 velocity=62 time=0
EXTRACT: note_on channel=0 note=60 velocity=70 time=0
EXTRACT: note_on channel=3 note=57 velocity=117 time=0
EXTRACT: note_on channel=0 note=64 velocity=0 time=0.1339285
EXTRACT: note_on channel=0 note=60 velocity=0 time=0.013392850000000001
EXTRACT: note_on channel=0 note=57 velocity=0 time=0.013392850000000001
EXTRACT: note_on channel=3 note=57 velocity=0 time=0.05803568333333334
EXTRACT: note_on channel=3 note=55 velocity=90 time=0.049107116666666666
EXTRACT: note_on channel=3 note=55 velocity=0 time=0.14285706666666667
EXTRACT: note_on channel=0 note=64 velocity=88 time=0.12499993333333334
EXTRACT: note_on channel=0 note=57 velocity=79 time=0
EXTRACT: note_on channel=0 note=60 velocity=84 time=0
EXTRACT: note_on channel=3 note=60 velocity=98 time=0
EXTRACT: note_on channel=0 note=60 velocity=0 time=0.14732135000000002
EXTRACT: note_on channel=0 note=64 velocity=0 time=0.017857133333333334
EXTRACT: note_on channel=0 note=57 velocity=0 time=0.013392850000000001
EXTRACT: note_on channel=3 note=60 velocity=0 time=0.07142853333333334
EXTRACT: note_on channel=3 note=62 velocity=106 time=0.017857133333333334
EXTRACT: note_on channel=3 note=62 velocity=0 time=0.21428560000000002
EXTRACT: control_change channel=0 control=64 value=0 time=0.04464283333333333
EXTRACT: note_on channel=0 note=64 velocity=88 time=0.008928566666666667
EXTRACT: note_on channel=0 note=57 velocity=73 time=0
EXTRACT: note_on channel=0 note=60 velocity=84 time=0
EXTRACT: control_change channel=0 control=64 value=127 time=0.18303561666666668
EXTRACT: note_on channel=3 note=62 velocity=117 time=0.08482138333333333
EXTRACT: note_on channel=0 note=64 velocity=0 time=0.031249983333333335
EXTRACT: note_on channel=0 note=60 velocity=0 time=0.013392850000000001
EXTRACT: note_on channel=0 note=57 velocity=0 time=0.0044642833333333335
EXTRACT: note_on channel=1 note=33 velocity=0 time=0.19196418333333334
EXTRACT: note_on channel=0 note=45 velocity=0 time=0.022321416666666666
EXTRACT: note_on channel=0 note=33 velocity=0 time=0
EXTRACT: control_change channel=0 control=64 value=0 time=0.0044642833333333335
EXTRACT: note_on channel=0 note=57 velocity=73 time=0
EXTRACT: note_on channel=0 note=29 velocity=90 time=0
EXTRACT: note_on channel=0 note=41 velocity=70 time=0
EXTRACT: note_on channel=0 note=60 velocity=88 time=0
EXTRACT: note_on channel=0 note=65 velocity=86 time=0
EXTRACT: note_on channel=1 note=29 velocity=60 time=0
EXTRACT: note_on channel=5 note=29 velocity=70 time=0
EXTRACT: note_on channel=5 note=41 velocity=60 time=0
EXTRACT: note_on channel=5 note=45 velocity=0 time=0.0044642833333333335
EXTRACT: note_on channel=5 note=33 velocity=0 time=0.017857133333333334
EXTRACT: control_change channel=0 control=64 value=127 time=0.23660701666666667
EXTRACT: note_on channel=0 note=65 velocity=0 time=0.11607136666666668
EXTRACT: note_on channel=0 note=57 velocity=0 time=0.013392850000000001
EXTRACT: note_on channel=0 note=60 velocity=0 time=0.0044642833333333335
EXTRACT: note_on channel=3 note=62 velocity=0 time=0.04464283333333333
EXTRACT: note_on channel=0 note=65 velocity=73 time=0.09821423333333333
EXTRACT: note_on channel=0 note=57 velocity=62 time=0
EXTRACT: note_on channel=0 note=60 velocity=70 time=0
EXTRACT: note_on channel=0 note=65 velocity=0 time=0.1339285
EXTRACT: note_on channel=0 note=60 velocity=0 time=0.013392850000000001
EXTRACT: note_on channel=0 note=57 velocity=0 time=0.013392850000000001
EXTRACT: note_on channel=7 note=57 velocity=64 time=0.24107130000000002
EXTRACT: note_on channel=0 note=65 velocity=88 time=0.1339285
EXTRACT: note_on channel=0 note=57 velocity=79 time=0
EXTRACT: note_on channel=0 note=60 velocity=84 time=0
EXTRACT: control_change channel=7 control=11 value=127 time=0
EXTRACT: note_on channel=9 note=28 velocity=46 time=0
EXTRACT: note_on channel=9 note=75 velocity=60 time=0
EXTRACT: control_change channel=7 control=11 value=0 time=0.031249983333333335
EXTRACT: control_change channel=7 control=11 value=127 time=0.03571426666666667
EXTRACT: note_on channel=9 note=75 velocity=0 time=0.0044642833333333335
EXTRACT: control_change channel=7 control=11 value=0 time=0.026785700000000003
EXTRACT: control_change channel=7 control=11 value=127 time=0.03571426666666667
EXTRACT: note_on channel=0 note=60 velocity=0 time=0.013392850000000001
EXTRACT: note_on channel=0 note=65 velocity=0 time=0.017857133333333334
EXTRACT: control_change channel=7 control=11 value=0 time=0
EXTRACT: note_on channel=0 note=57 velocity=0 time=0.013392850000000001
EXTRACT: control_change channel=7 control=11 value=125 time=0.022321416666666666
EXTRACT: control_change channel=7 control=11 value=0 time=0.031249983333333335
EXTRACT: control_change channel=7 control=11 value=127 time=0.03571426666666667
EXTRACT: control_change channel=7 control=11 value=0 time=0.031249983333333335
EXTRACT: control_change channel=7 control=11 value=127 time=0.03571426666666667
EXTRACT: control_change channel=7 control=11 value=0 time=0.031249983333333335
EXTRACT: control_change channel=7 control=11 value=127 time=0.03571426666666667
EXTRACT: control_change channel=7 control=11 value=0 time=0.031249983333333335
EXTRACT: control_change channel=7 control=11 value=127 time=0.03571426666666667
EXTRACT: control_change channel=7 control=11 value=0 time=0.031249983333333335
EXTRACT: control_change channel=0 control=64 value=0 time=0.026785700000000003
EXTRACT: note_on channel=0 note=65 velocity=88 time=0.008928566666666667
EXTRACT: note_on channel=0 note=57 velocity=73 time=0
EXTRACT: note_on channel=0 note=60 velocity=84 time=0
EXTRACT: control_change channel=7 control=11 value=127 time=0
EXTRACT: control_change channel=7 control=11 value=0 time=0.031249983333333335
EXTRACT: control_change channel=7 control=11 value=127 time=0.03571426666666667
EXTRACT: control_change channel=7 control=11 value=0 time=0.031249983333333335
EXTRACT: control_change channel=7 control=11 value=127 time=0.03571426666666667
EXTRACT: control_change channel=7 control=11 value=0 time=0.031249983333333335
EXTRACT: control_change channel=0 control=64 value=127 time=0.017857133333333334
EXTRACT: control_change channel=7 control=11 value=127 time=0.017857133333333334
EXTRACT: control_change channel=7 control=11 value=0 time=0.031249983333333335
EXTRACT: note_on channel=3 note=67 velocity=110 time=0.03571426666666667
EXTRACT: note_on channel=4 note=60 velocity=120 time=0
EXTRACT: control_change channel=7 control=11 value=125 time=0
EXTRACT: note_on channel=9 note=35 velocity=52 time=0
EXTRACT: note_on channel=15 note=60 velocity=1 time=0
EXTRACT: note_on channel=0 note=65 velocity=0 time=0.031249983333333335
EXTRACT: control_change channel=7 control=11 value=0 time=0
EXTRACT: note_on channel=9 note=28 velocity=0 time=0.008928566666666667
EXTRACT: note_on channel=0 note=60 velocity=0 time=0.0044642833333333335
EXTRACT: note_on channel=0 note=57 velocity=0 time=0.0044642833333333335
EXTRACT: control_change channel=7 control=11 value=127 time=0.017857133333333334
EXTRACT: note_on channel=9 note=35 velocity=0 time=0.0044642833333333335
EXTRACT: control_change channel=7 control=11 value=0 time=0.026785700000000003
EXTRACT: control_change channel=7 control=11 value=127 time=0.03571426666666667
EXTRACT: control_change channel=7 control=11 value=0 time=0.031249983333333335
EXTRACT: control_change channel=7 control=11 value=127 time=0.03571426666666667
EXTRACT: control_change channel=7 control=11 value=0 time=0.031249983333333335
EXTRACT: note_on channel=5 note=41 velocity=0 time=0.031249983333333335
EXTRACT: note_on channel=0 note=41 velocity=0 time=0
EXTRACT: note_on channel=1 note=29 velocity=0 time=0
EXTRACT: note_on channel=0 note=29 velocity=0 time=0.0044642833333333335
EXTRACT: control_change channel=0 control=64 value=0 time=0
EXTRACT: note_on channel=0 note=36 velocity=90 time=0
EXTRACT: note_on channel=0 note=60 velocity=88 time=0
EXTRACT: note_on channel=0 note=48 velocity=70 time=0
EXTRACT: note_on channel=0 note=55 velocity=73 time=0
EXTRACT: note_on channel=0 note=64 velocity=86 time=0
EXTRACT: note_on channel=1 note=36 velocity=60 time=0
EXTRACT: note_on channel=5 note=36 velocity=70 time=0
EXTRACT: note_on channel=5 note=48 velocity=60 time=0
EXTRACT: control_change channel=7 control=11 value=127 time=0
EXTRACT: note_on channel=9 note=35 velocity=65 time=0
EXTRACT: note_on channel=5 note=29 velocity=0 time=0.013392850000000001
EXTRACT: control_change channel=7 control=11 value=0 time=0.017857133333333334
EXTRACT: note_on channel=9 note=35 velocity=0 time=0.008928566666666667
EXTRACT: note_on channel=15 note=60 velocity=0 time=0.026785700000000003
EXTRACT: note_on channel=4 note=60 velocity=0 time=0
EXTRACT: note_on channel=3 note=67 velocity=0 time=0
EXTRACT: control_change channel=7 control=11 value=127 time=0
EXTRACT: control_change channel=7 control=11 value=0 time=0.031249983333333335
EXTRACT: control_change channel=7 control=11 value=127 time=0.03571426666666667
EXTRACT: control_change channel=7 control=11 value=0 time=0.031249983333333335
EXTRACT: control_change channel=7 control=11 value=127 time=0.03571426666666667
EXTRACT: control_change channel=7 control=11 value=5 time=0.031249983333333335
EXTRACT: control_change channel=0 control=64 value=127 time=0.026785700000000003
EXTRACT: note_on channel=3 note=64 velocity=88 time=0.008928566666666667
EXTRACT: note_on channel=4 note=57 velocity=98 time=0
EXTRACT: control_change channel=7 control=11 value=127 time=0
EXTRACT: note_on channel=15 note=57 velocity=1 time=0
EXTRACT: control_change channel=7 control=11 value=0 time=0.031249983333333335
EXTRACT: control_change channel=7 control=11 value=127 time=0.03571426666666667
EXTRACT: control_change channel=7 control=11 value=0 time=0.031249983333333335
EXTRACT: note_on channel=0 note=64 velocity=0 time=0.008928566666666667
EXTRACT: note_on channel=4 note=57 velocity=0 time=0.0044642833333333335
EXTRACT: note_on channel=3 note=64 velocity=0 time=0
EXTRACT: note_on channel=15 note=57 velocity=0 time=0
EXTRACT: note_on channel=0 note=55 velocity=0 time=0.008928566666666667
EXTRACT: note_on channel=0 note=60 velocity=0 time=0.0044642833333333335
EXTRACT: control_change channel=7 control=11 value=127 time=0.008928566666666667
EXTRACT: control_change channel=7 control=11 value=0 time=0.031249983333333335
EXTRACT: control_change channel=7 control=11 value=127 time=0.03571426666666667
EXTRACT: control_change channel=7 control=11 value=0 time=0.031249983333333335
EXTRACT: note_on channel=0 note=64 velocity=73 time=0.03571426666666667
EXTRACT: note_on channel=0 note=55 velocity=62 time=0
EXTRACT: note_on channel=0 note=60 velocity=70 time=0
EXTRACT: note_on channel=3 note=67 velocity=120 time=0
EXTRACT: note_on channel=4 note=60 velocity=120 time=0
EXTRACT: control_change channel=7 control=11 value=127 time=0
EXTRACT: note_on channel=15 note=60 velocity=1 time=0
EXTRACT: control_change channel=7 control=11 value=0 time=0.031249983333333335
EXTRACT: control_change channel=7 control=11 value=127 time=0.03571426666666667
EXTRACT: control_change channel=7 control=11 value=0 time=0.031249983333333335
EXTRACT: note_on channel=0 note=64 velocity=0 time=0.03571426666666667
EXTRACT: control_change channel=7 control=11 value=125 time=0
EXTRACT: note_on channel=0 note=60 velocity=0 time=0.013392850000000001
EXTRACT: note_on channel=0 note=55 velocity=0 time=0.013392850000000001
EXTRACT: control_change channel=7 control=11 value=0 time=0.0044642833333333335
EXTRACT: control_change channel=7 control=11 value=127 time=0.03571426666666667
EXTRACT: control_change channel=7 control=11 value=0 time=0.031249983333333335
EXTRACT: control_change channel=7 control=11 value=127 time=0.03571426666666667
EXTRACT: control_change channel=7 control=11 value=0 time=0.031249983333333335
EXTRACT: control_change channel=7 control=11 value=127 time=0.03571426666666667
EXTRACT: control_change channel=7 control=11 value=0 time=0.031249983333333335
EXTRACT: control_change channel=7 control=11 value=127 time=0.03571426666666667
EXTRACT: note_on channel=3 note=67 velocity=0 time=0.0044642833333333335
EXTRACT: note_on channel=4 note=60 velocity=0 time=0
EXTRACT: note_on channel=15 note=60 velocity=0 time=0
EXTRACT: control_change channel=7 control=11 value=0 time=0.026785700000000003
EXTRACT: control_change channel=7 control=11 value=127 time=0.03571426666666667
EXTRACT: control_change channel=7 control=11 value=0 time=0.031249983333333335
EXTRACT: note_on channel=0 note=64 velocity=88 time=0.03571426666666667
EXTRACT: note_on channel=0 note=55 velocity=79 time=0
EXTRACT: note_on channel=0 note=60 velocity=84 time=0
EXTRACT: note_on channel=3 note=69 velocity=106 time=0
EXTRACT: note_on channel=4 note=62 velocity=116 time=0
EXTRACT: control_change channel=7 control=11 value=127 time=0
EXTRACT: note_on channel=15 note=62 velocity=1 time=0
EXTRACT: control_change channel=7 control=11 value=0 time=0.031249983333333335
EXTRACT: control_change channel=7 control=11 value=127 time=0.03571426666666667
EXTRACT: control_change channel=7 control=11 value=0 time=0.031249983333333335
EXTRACT: control_change channel=7 control=11 value=127 time=0.03571426666666667
EXTRACT: note_on channel=0 note=60 velocity=0 time=0.013392850000000001
EXTRACT: note_on channel=0 note=64 velocity=0 time=0.017857133333333334
EXTRACT: control_change channel=7 control=11 value=0 time=0
EXTRACT: note_on channel=0 note=55 velocity=0 time=0.013392850000000001
EXTRACT: control_change channel=7 control=11 value=127 time=0.022321416666666666
EXTRACT: note_on channel=3 note=69 velocity=0 time=0.026785700000000003
EXTRACT: note_on channel=4 note=62 velocity=0 time=0
EXTRACT: note_on channel=15 note=62 velocity=0 time=0
EXTRACT: control_change channel=7 control=11 value=0 time=0.0044642833333333335
EXTRACT: note_on channel=3 note=64 velocity=109 time=0.03571426666666667
EXTRACT: note_on channel=4 note=57 velocity=98 time=0
EXTRACT: control_change channel=7 control=11 value=127 time=0
EXTRACT: note_on channel=15 note=57 velocity=1 time=0
EXTRACT: control_change channel=7 control=11 value=0 time=0.031249983333333335
EXTRACT: control_change channel=7 control=11 value=127 time=0.03571426666666667
EXTRACT: note_on channel=15 note=57 velocity=0 time=0.013392850000000001
EXTRACT: note_on channel=4 note=57 velocity=0 time=0
EXTRACT: note_on channel=3 note=64 velocity=0 time=0
EXTRACT: control_change channel=7 control=11 value=0 time=0.017857133333333334
EXTRACT: control_change channel=7 control=11 value=127 time=0.03571426666666667
EXTRACT: control_change channel=7 control=11 value=3 time=0.031249983333333335
EXTRACT: control_change channel=7 control=11 value=127 time=0.03571426666666667
EXTRACT: control_change channel=7 control=11 value=0 time=0.031249983333333335
EXTRACT: control_change channel=0 control=64 value=0 time=0.026785700000000003
EXTRACT: note_on channel=0 note=55 velocity=73 time=0.008928566666666667
EXTRACT: note_on channel=0 note=60 velocity=84 time=0
EXTRACT: note_on channel=0 note=64 velocity=88 time=0
EXTRACT: note_on channel=3 note=64 velocity=105 time=0
EXTRACT: note_on channel=4 note=55 velocity=94 time=0
EXTRACT: control_change channel=7 control=11 value=127 time=0
EXTRACT: note_on channel=15 note=55 velocity=1 time=0
EXTRACT: control_change channel=7 control=11 value=0 time=0.031249983333333335
EXTRACT: control_change channel=0 control=64 value=127 time=0.15178563333333334
EXTRACT: note_on channel=0 note=64 velocity=0 time=0.11607136666666668
EXTRACT: note_on channel=0 note=60 velocity=0 time=0.013392850000000001
EXTRACT: note_on channel=0 note=55 velocity=0 time=0.0044642833333333335
EXTRACT: note_on channel=3 note=64 velocity=0 time=0.09821423333333333
EXTRACT: note_on channel=4 note=55 velocity=0 time=0
EXTRACT: note_on channel=15 note=55 velocity=0 time=0
EXTRACT: note_on channel=7 note=57 velocity=0 time=0.04017855
EXTRACT: note_on channel=5 note=48 velocity=0 time=0.026785700000000003
EXTRACT: note_on channel=5 note=36 velocity=0 time=0.04017855
EXTRACT: note_on channel=0 note=36 velocity=0 time=0.0044642833333333335
EXTRACT: note_on channel=1 note=36 velocity=0 time=0.0044642833333333335
EXTRACT: note_on channel=0 note=48 velocity=0 time=0
EXTRACT: control_change channel=0 control=64 value=0 time=0.0044642833333333335
EXTRACT: note_on channel=0 note=57 velocity=73 time=0
EXTRACT: note_on channel=0 note=62 velocity=88 time=0
EXTRACT: note_on channel=0 note=65 velocity=86 time=0
EXTRACT: note_on channel=0 note=38 velocity=90 time=0
EXTRACT: note_on channel=0 note=50 velocity=70 time=0
EXTRACT: note_on channel=1 note=38 velocity=60 time=0
EXTRACT: note_on channel=3 note=62 velocity=106 time=0
EXTRACT: note_on channel=4 note=53 velocity=116 time=0
EXTRACT: note_on channel=5 note=38 velocity=70 time=0
EXTRACT: note_on channel=5 note=50 velocity=60 time=0
EXTRACT: note_on channel=15 note=53 velocity=1 time=0
EXTRACT: note_on channel=15 note=53 velocity=0 time=0.22321416666666669
EXTRACT: note_on channel=4 note=53 velocity=0 time=0
EXTRACT: note_on channel=3 note=62 velocity=0 time=0
EXTRACT: control_change channel=0 control=64 value=127 time=0.03571426666666667
EXTRACT: note_on channel=3 note=60 velocity=95 time=0.008928566666666667
EXTRACT: note_on channel=4 note=52 velocity=105 time=0
EXTRACT: note_on channel=15 note=52 velocity=1 time=0
EXTRACT: note_on channel=15 note=52 velocity=0 time=0.0803571
EXTRACT: note_on channel=4 note=52 velocity=0 time=0
EXTRACT: note_on channel=3 note=60 velocity=0 time=0
EXTRACT: note_on channel=0 note=65 velocity=0 time=0.026785700000000003
EXTRACT: note_on channel=0 note=57 velocity=0 time=0.013392850000000001
EXTRACT: note_on channel=0 note=62 velocity=0 time=0.0044642833333333335
EXTRACT: note_on channel=0 note=57 velocity=62 time=0.14285706666666667
EXTRACT: note_on channel=0 note=62 velocity=70 time=0
EXTRACT: note_on channel=0 note=65 velocity=73 time=0
EXTRACT: note_on channel=3 note=62 velocity=110 time=0
EXTRACT: note_on channel=4 note=53 velocity=120 time=0
EXTRACT: note_on channel=15 note=53 velocity=1 time=0
EXTRACT: note_on channel=0 note=65 velocity=0 time=0.1339285
EXTRACT: note_on channel=0 note=62 velocity=0 time=0.013392850000000001
EXTRACT: note_on channel=0 note=57 velocity=0 time=0.013392850000000001
EXTRACT: note_on channel=4 note=53 velocity=0 time=0.24553558333333333
EXTRACT: note_on channel=3 note=62 velocity=0 time=0
EXTRACT: note_on channel=15 note=53 velocity=0 time=0
EXTRACT: note_on channel=0 note=57 velocity=79 time=0.12946421666666666
EXTRACT: note_on channel=0 note=62 velocity=84 time=0
EXTRACT: note_on channel=0 note=65 velocity=88 time=0
EXTRACT: note_on channel=3 note=57 velocity=92 time=0
EXTRACT: note_on channel=4 note=48 velocity=102 time=0
EXTRACT: note_on channel=15 note=48 velocity=1 time=0
EXTRACT: note_on channel=0 note=62 velocity=0 time=0.14732135000000002
EXTRACT: note_on channel=0 note=65 velocity=0 time=0.017857133333333334
EXTRACT: note_on channel=0 note=57 velocity=0 time=0.013392850000000001
EXTRACT: note_on channel=4 note=48 velocity=0 time=0.3258926833333333
EXTRACT: note_on channel=3 note=57 velocity=0 time=0
EXTRACT: note_on channel=15 note=48 velocity=0 time=0
EXTRACT: control_change channel=0 control=64 value=0 time=0.022321416666666666
EXTRACT: note_on channel=0 note=65 velocity=88 time=0.008928566666666667
EXTRACT: note_on channel=0 note=57 velocity=73 time=0
EXTRACT: note_on channel=0 note=62 velocity=84 time=0
EXTRACT: note_on channel=3 note=55 velocity=102 time=0
EXTRACT: note_on channel=4 note=48 velocity=112 time=0
EXTRACT: note_on channel=15 note=48 velocity=1 time=0
EXTRACT: control_change channel=0 control=64 value=127 time=0.18303561666666668
EXTRACT: note_on channel=3 note=60 velocity=95 time=0.08482138333333333
EXTRACT: note_on channel=4 note=52 velocity=105 time=0
EXTRACT: note_on channel=15 note=52 velocity=1 time=0
EXTRACT: note_on channel=15 note=48 velocity=0 time=0.0044642833333333335
EXTRACT: note_on channel=4 note=48 velocity=0 time=0
EXTRACT: note_on channel=3 note=55 velocity=0 time=0
EXTRACT: note_on channel=0 note=65 velocity=0 time=0.026785700000000003
EXTRACT: note_on channel=0 note=62 velocity=0 time=0.013392850000000001
EXTRACT: note_on channel=0 note=57 velocity=0 time=0.0044642833333333335
EXTRACT: note_on channel=3 note=60 velocity=0 time=0.18303561666666668
EXTRACT: note_on channel=4 note=52 velocity=0 time=0
EXTRACT: note_on channel=15 note=52 velocity=0 time=0
EXTRACT: note_on channel=1 note=38 velocity=0 time=0.031249983333333335
EXTRACT: note_on channel=0 note=50 velocity=0 time=0
EXTRACT: note_on channel=5 note=50 velocity=0 time=0.0044642833333333335
EXTRACT: control_change channel=0 control=64 value=0 time=0
EXTRACT: note_on channel=0 note=33 velocity=90 time=0
EXTRACT: note_on channel=0 note=60 velocity=88 time=0
EXTRACT: note_on channel=0 note=45 velocity=70 time=0
EXTRACT: note_on channel=0 note=57 velocity=73 time=0
EXTRACT: note_on channel=0 note=64 velocity=86 time=0
EXTRACT: note_on channel=1 note=33 velocity=60 time=0
EXTRACT: note_on channel=5 note=33 velocity=70 time=0
EXTRACT: note_on channel=5 note=45 velocity=60 time=0
EXTRACT: note_on channel=0 note=38 velocity=0 time=0.03571426666666667
EXTRACT: note_on channel=5 note=38 velocity=0 time=0
EXTRACT: control_change channel=0 control=64 value=127 time=0.22321416666666669
EXTRACT: note_on channel=3 note=62 velocity=102 time=0.008928566666666667
EXTRACT: note_on channel=4 note=52 velocity=112 time=0
EXTRACT: note_on channel=15 note=52 velocity=1 time=0
EXTRACT: note_on channel=0 note=64 velocity=0 time=0.10714280000000001
EXTRACT: note_on channel=0 note=57 velocity=0 time=0.013392850000000001
EXTRACT: note_on channel=0 note=60 velocity=0 time=0.0044642833333333335
EXTRACT: note_on channel=0 note=57 velocity=62 time=0.14285706666666667
EXTRACT: note_on channel=0 note=60 velocity=70 time=0
EXTRACT: note_on channel=0 note=64 velocity=73 time=0
EXTRACT: note_on channel=3 note=62 velocity=0 time=0.12499993333333334
EXTRACT: note_on channel=15 note=52 velocity=0 time=0
EXTRACT: note_on channel=4 note=52 velocity=0 time=0
EXTRACT: note_on channel=0 note=64 velocity=0 time=0.008928566666666667
EXTRACT: note_on channel=0 note=60 velocity=0 time=0.013392850000000001
EXTRACT: note_on channel=0 note=57 velocity=0 time=0.013392850000000001
EXTRACT: note_on channel=3 note=64 velocity=106 time=0.10714280000000001
EXTRACT: note_on channel=4 note=48 velocity=116 time=0
EXTRACT: note_on channel=15 note=48 velocity=1 time=0
EXTRACT: note_on channel=15 note=48 velocity=0 time=0.15624991666666668
EXTRACT: note_on channel=4 note=48 velocity=0 time=0
EXTRACT: note_on channel=3 note=64 velocity=0 time=0
EXTRACT: note_on channel=0 note=57 velocity=79 time=0.11160708333333334
EXTRACT: note_on channel=0 note=60 velocity=84 time=0
EXTRACT: note_on channel=0 note=64 velocity=88 time=0
EXTRACT: note_on channel=3 note=64 velocity=98 time=0
EXTRACT: note_on channel=4 note=52 velocity=108 time=0
EXTRACT: note_on channel=15 note=52 velocity=1 time=0
EXTRACT: note_on channel=0 note=60 velocity=0 time=0.14732135000000002
EXTRACT: note_on channel=0 note=64 velocity=0 time=0.017857133333333334
EXTRACT: note_on channel=0 note=57 velocity=0 time=0.013392850000000001
EXTRACT: control_change channel=0 control=64 value=0 time=0.3482141
EXTRACT: note_on channel=4 note=52 velocity=0 time=0.0044642833333333335
EXTRACT: note_on channel=3 note=64 velocity=0 time=0
EXTRACT: note_on channel=15 note=52 velocity=0 time=0
EXTRACT: note_on channel=0 note=57 velocity=73 time=0.0044642833333333335
EXTRACT: note_on channel=0 note=60 velocity=84 time=0
EXTRACT: note_on channel=0 note=64 velocity=88 time=0
EXTRACT: note_on channel=3 note=60 velocity=110 time=0
EXTRACT: note_on channel=4 note=53 velocity=120 time=0
EXTRACT: note_on channel=15 note=53 velocity=1 time=0
EXTRACT: note_on channel=15 note=53 velocity=0 time=0.15178563333333334
EXTRACT: note_on channel=4 note=53 velocity=0 time=0
EXTRACT: note_on channel=3 note=60 velocity=0 time=0
EXTRACT: control_change channel=0 control=64 value=127 time=0.031249983333333335
EXTRACT: note_on channel=3 note=57 velocity=98 time=0.08482138333333333
EXTRACT: note_on channel=4 note=53 velocity=108 time=0
EXTRACT: note_on channel=15 note=53 velocity=1 time=0
EXTRACT: note_on channel=0 note=64 velocity=0 time=0.031249983333333335
EXTRACT: note_on channel=0 note=60 velocity=0 time=0.013392850000000001
EXTRACT: note_on channel=0 note=57 velocity=0 time=0.0044642833333333335
EXTRACT: note_on channel=1 note=33 velocity=0 time=0.20089275
EXTRACT: note_on channel=5 note=45 velocity=0 time=0.0044642833333333335
EXTRACT: note_on channel=0 note=45 velocity=0 time=0.008928566666666667
EXTRACT: note_on channel=0 note=33 velocity=0 time=0.0044642833333333335
EXTRACT: note_on channel=0 note=41 velocity=70 time=0
EXTRACT: note_on channel=0 note=57 velocity=73 time=0
EXTRACT: note_on channel=0 note=60 velocity=88 time=0
EXTRACT: note_on channel=0 note=65 velocity=86 time=0
EXTRACT: control_change channel=0 control=64 value=0 time=0
EXTRACT: note_on channel=0 note=29 velocity=90 time=0
EXTRACT: note_on channel=1 note=29 velocity=60 time=0
EXTRACT: note_on channel=5 note=29 velocity=70 time=0
EXTRACT: note_on channel=5 note=41 velocity=60 time=0
EXTRACT: note_on channel=5 note=33 velocity=0 time=0.013392850000000001
EXTRACT: control_change channel=0 control=64 value=127 time=0.24553558333333333
EXTRACT: note_on channel=0 note=65 velocity=0 time=0.11607136666666668
EXTRACT: note_on channel=0 note=57 velocity=0 time=0.013392850000000001
EXTRACT: note_on channel=0 note=60 velocity=0 time=0.0044642833333333335
EXTRACT: note_on channel=4 note=53 velocity=0 time=0.008928566666666667
EXTRACT: note_on channel=3 note=57 velocity=0 time=0
EXTRACT: note_on channel=15 note=53 velocity=0 time=0
EXTRACT: note_on channel=0 note=65 velocity=73 time=0.1339285
EXTRACT: note_on channel=0 note=57 velocity=62 time=0
EXTRACT: note_on channel=0 note=60 velocity=70 time=0
EXTRACT: note_on channel=0 note=65 velocity=0 time=0.1339285
EXTRACT: note_on channel=0 note=60 velocity=0 time=0.013392850000000001
EXTRACT: note_on channel=0 note=57 velocity=0 time=0.013392850000000001
EXTRACT: note_on channel=3 note=60 velocity=102 time=0.10714280000000001
EXTRACT: note_on channel=3 note=60 velocity=0 time=0.12946421666666666
EXTRACT: note_on channel=0 note=57 velocity=79 time=0.13839278333333332
EXTRACT: note_on channel=0 note=60 velocity=84 time=0
EXTRACT: note_on channel=0 note=65 velocity=88 time=0
EXTRACT: note_on channel=3 note=64 velocity=111 time=0
EXTRACT: note_on channel=9 note=28 velocity=46 time=0
EXTRACT: note_on channel=9 note=75 velocity=60 time=0
EXTRACT: note_on channel=9 note=75 velocity=0 time=0.07142853333333334
EXTRACT: note_on channel=0 note=60 velocity=0 time=0.07589281666666667
EXTRACT: note_on channel=0 note=65 velocity=0 time=0.017857133333333334
EXTRACT: note_on channel=0 note=57 velocity=0 time=0.013392850000000001
EXTRACT: note_on channel=3 note=64 velocity=0 time=0.20535703333333333
EXTRACT: note_on channel=3 note=62 velocity=110 time=0.017857133333333334
EXTRACT: note_on channel=3 note=62 velocity=0 time=0.11607136666666668
EXTRACT: control_change channel=0 control=64 value=0 time=0.008928566666666667
EXTRACT: note_on channel=0 note=65 velocity=88 time=0.008928566666666667
EXTRACT: note_on channel=0 note=57 velocity=73 time=0
EXTRACT: note_on channel=0 note=60 velocity=84 time=0
EXTRACT: note_on channel=3 note=60 velocity=95 time=0
EXTRACT: control_change channel=0 control=64 value=127 time=0.18303561666666668
EXTRACT: note_on channel=0 note=65 velocity=0 time=0.11607136666666668
EXTRACT: note_on channel=9 note=28 velocity=0 time=0.008928566666666667
EXTRACT: note_on channel=0 note=60 velocity=0 time=0.0044642833333333335
EXTRACT: note_on channel=0 note=57 velocity=0 time=0.0044642833333333335
EXTRACT: note_on channel=3 note=60 velocity=0 time=0.008928566666666667
EXTRACT: note_on channel=3 note=64 velocity=96 time=0.07589281666666667
EXTRACT: note_on channel=1 note=29 velocity=0 time=0.12946421666666666
EXTRACT: note_on channel=0 note=41 velocity=0 time=0
EXTRACT: control_change channel=0 control=64 value=0 time=0.0044642833333333335
EXTRACT: note_on channel=0 note=36 velocity=90 time=0
EXTRACT: note_on channel=0 note=60 velocity=88 time=0
EXTRACT: note_on channel=0 note=64 velocity=86 time=0
EXTRACT: note_on channel=0 note=48 velocity=70 time=0
EXTRACT: note_on channel=0 note=55 velocity=73 time=0
EXTRACT: note_on channel=1 note=36 velocity=60 time=0
EXTRACT: note_on channel=5 note=36 velocity=70 time=0
EXTRACT: note_on channel=5 note=48 velocity=60 time=0
EXTRACT: note_on channel=9 note=35 velocity=47 time=0
EXTRACT: note_on channel=0 note=29 velocity=0 time=0.013392850000000001
EXTRACT: note_on channel=5 note=41 velocity=0 time=0.031249983333333335
EXTRACT: note_on channel=5 note=29 velocity=0 time=0.022321416666666666
EXTRACT: note_on channel=9 note=35 velocity=0 time=0.12946421666666666
EXTRACT: control_change channel=0 control=64 value=127 time=0.06249996666666667
EXTRACT: note_on channel=0 note=64 velocity=0 time=0.11607136666666668
EXTRACT: note_on channel=0 note=55 velocity=0 time=0.013392850000000001
EXTRACT: note_on channel=0 note=60 velocity=0 time=0.0044642833333333335
EXTRACT: note_on channel=0 note=55 velocity=62 time=0.14285706666666667
EXTRACT: note_on channel=0 note=60 velocity=70 time=0
EXTRACT: note_on channel=0 note=64 velocity=73 time=0
EXTRACT: note_on channel=0 note=64 velocity=0 time=0.1339285
EXTRACT: note_on channel=0 note=60 velocity=0 time=0.013392850000000001
EXTRACT: note_on channel=0 note=55 velocity=0 time=0.013392850000000001
EXTRACT: note_on channel=0 note=55 velocity=79 time=0.3749998
EXTRACT: note_on channel=0 note=60 velocity=84 time=0
EXTRACT: note_on channel=0 note=64 velocity=88 time=0
EXTRACT: note_on channel=0 note=60 velocity=0 time=0.14732135000000002
EXTRACT: note_on channel=0 note=64 velocity=0 time=0.017857133333333334
EXTRACT: note_on channel=0 note=55 velocity=0 time=0.013392850000000001
EXTRACT: control_change channel=0 control=64 value=0 time=0.3482141
EXTRACT: note_on channel=0 note=55 velocity=73 time=0.008928566666666667
EXTRACT: note_on channel=0 note=60 velocity=84 time=0
EXTRACT: note_on channel=0 note=64 velocity=88 time=0
EXTRACT: control_change channel=0 control=64 value=127 time=0.18303561666666668
EXTRACT: note_on channel=0 note=64 velocity=0 time=0.11607136666666668
EXTRACT: note_on channel=0 note=60 velocity=0 time=0.013392850000000001
EXTRACT: note_on channel=0 note=55 velocity=0 time=0.0044642833333333335
EXTRACT: note_on channel=5 note=48 velocity=0 time=0.20089275
EXTRACT: note_on channel=5 note=36 velocity=0 time=0.0044642833333333335
EXTRACT: note_on channel=0 note=36 velocity=0 time=0.0044642833333333335
EXTRACT: note_on channel=0 note=48 velocity=0 time=0.0044642833333333335
EXTRACT: note_on channel=1 note=36 velocity=0 time=0
EXTRACT: note_on channel=0 note=50 velocity=70 time=0.0044642833333333335
EXTRACT: note_on channel=0 note=57 velocity=73 time=0
EXTRACT: note_on channel=0 note=62 velocity=88 time=0
EXTRACT: note_on channel=0 note=65 velocity=86 time=0
EXTRACT: control_change channel=0 control=64 value=0 time=0
EXTRACT: note_on channel=0 note=38 velocity=90 time=0
EXTRACT: note_on channel=1 note=38 velocity=60 time=0
EXTRACT: note_on channel=5 note=38 velocity=70 time=0
EXTRACT: note_on channel=5 note=50 velocity=60 time=0
EXTRACT: control_change channel=0 control=64 value=127 time=0.2589284333333333
EXTRACT: note_on channel=0 note=65 velocity=0 time=0.11607136666666668
EXTRACT: note_on channel=0 note=57 velocity=0 time=0.013392850000000001
EXTRACT: note_on channel=0 note=62 velocity=0 time=0.0044642833333333335
EXTRACT: note_on channel=0 note=57 velocity=62 time=0.14285706666666667
EXTRACT: note_on channel=0 note=62 velocity=70 time=0
EXTRACT: note_on channel=0 note=65 velocity=73 time=0
EXTRACT: note_on channel=0 note=65 velocity=0 time=0.1339285
EXTRACT: note_on channel=0 note=62 velocity=0 time=0.013392850000000001
EXTRACT: note_on channel=0 note=57 velocity=0 time=0.013392850000000001
EXTRACT: note_on channel=0 note=57 velocity=79 time=0.3749998
EXTRACT: note_on channel=0 note=62 velocity=84 time=0
EXTRACT: note_on channel=0 note=65 velocity=88 time=0
EXTRACT: note_on channel=9 note=28 velocity=46 time=0
EXTRACT: note_on channel=9 note=75 velocity=60 time=0
EXTRACT: note_on channel=9 note=75 velocity=0 time=0.07142853333333334
EXTRACT: note_on channel=0 note=62 velocity=0 time=0.07589281666666667
EXTRACT: note_on channel=0 note=65 velocity=0 time=0.017857133333333334
EXTRACT: note_on channel=0 note=57 velocity=0 time=0.013392850000000001
EXTRACT: control_change channel=0 control=64 value=0 time=0.3482141
EXTRACT: note_on channel=3 note=64 velocity=0 time=0.0044642833333333335
EXTRACT: note_on channel=0 note=57 velocity=73 time=0.0044642833333333335
EXTRACT: note_on channel=0 note=62 velocity=84 time=0
EXTRACT: note_on channel=0 note=65 velocity=88 time=0
EXTRACT: note_on channel=3 note=67 velocity=95 time=0
EXTRACT: control_change channel=0 control=64 value=127 time=0.18303561666666668
EXTRACT: note_on channel=0 note=65 velocity=0 time=0.11607136666666668
EXTRACT: note_on channel=9 note=28 velocity=0 time=0.008928566666666667
EXTRACT: note_on channel=0 note=62 velocity=0 time=0.0044642833333333335
EXTRACT: note_on channel=0 note=57 velocity=0 time=0.0044642833333333335
EXTRACT: note_on channel=3 note=67 velocity=0 time=0.0803571
EXTRACT: note_on channel=3 note=69 velocity=95 time=0.0044642833333333335
EXTRACT: note_on channel=5 note=50 velocity=0 time=0.09821423333333333
EXTRACT: note_on channel=0 note=50 velocity=0 time=0.031249983333333335
EXTRACT: control_change channel=0 control=64 value=0 time=0.0044642833333333335
EXTRACT: note_on channel=0 note=57 velocity=73 time=0
EXTRACT: note_on channel=0 note=60 velocity=88 time=0
EXTRACT: note_on channel=0 note=64 velocity=86 time=0
EXTRACT: note_on channel=0 note=33 velocity=90 time=0
EXTRACT: note_on channel=0 note=45 velocity=70 time=0
EXTRACT: note_on channel=1 note=33 velocity=60 time=0
EXTRACT: note_on channel=5 note=33 velocity=70 time=0
EXTRACT: note_on channel=5 note=45 velocity=60 time=0
EXTRACT: note_on channel=1 note=38 velocity=0 time=0.013392850000000001
EXTRACT: note_on channel=0 note=38 velocity=0 time=0.022321416666666666
EXTRACT: note_on channel=5 note=38 velocity=0 time=0.026785700000000003
EXTRACT: control_change channel=0 control=64 value=127 time=0.19642846666666666
EXTRACT: note_on channel=0 note=64 velocity=0 time=0.11607136666666668
EXTRACT: note_on channel=0 note=57 velocity=0 time=0.013392850000000001
EXTRACT: note_on channel=0 note=60 velocity=0 time=0.0044642833333333335
EXTRACT: note_on channel=0 note=64 velocity=73 time=0.14285706666666667
EXTRACT: note_on channel=0 note=57 velocity=62 time=0
EXTRACT: note_on channel=0 note=60 velocity=70 time=0
EXTRACT: note_on channel=0 note=64 velocity=0 time=0.1339285
EXTRACT: note_on channel=0 note=60 velocity=0 time=0.013392850000000001
EXTRACT: note_on channel=0 note=57 velocity=0 time=0.013392850000000001
EXTRACT: note_on channel=0 note=57 velocity=79 time=0.3749998
EXTRACT: note_on channel=0 note=60 velocity=84 time=0
EXTRACT: note_on channel=0 note=64 velocity=88 time=0
EXTRACT: note_on channel=0 note=60 velocity=0 time=0.14732135000000002
EXTRACT: note_on channel=0 note=64 velocity=0 time=0.017857133333333334
EXTRACT: note_on channel=0 note=57 velocity=0 time=0.013392850000000001
EXTRACT: control_change channel=0 control=64 value=0 time=0.3482141
EXTRACT: note_on channel=0 note=57 velocity=73 time=0.008928566666666667
EXTRACT: note_on channel=0 note=60 velocity=84 time=0
EXTRACT: note_on channel=0 note=64 velocity=88 time=0
EXTRACT: control_change channel=0 control=64 value=127 time=0.18303561666666668
EXTRACT: note_on channel=3 note=69 velocity=0 time=0.0803571
EXTRACT: note_on channel=3 note=72 velocity=98 time=0.0044642833333333335
EXTRACT: note_on channel=0 note=64 velocity=0 time=0.031249983333333335
EXTRACT: note_on channel=0 note=60 velocity=0 time=0.013392850000000001
EXTRACT: note_on channel=0 note=57 velocity=0 time=0.0044642833333333335
EXTRACT: note_on channel=5 note=45 velocity=0 time=0.15624991666666668
EXTRACT: note_on channel=5 note=33 velocity=0 time=0.008928566666666667
EXTRACT: note_on channel=1 note=33 velocity=0 time=0.03571426666666667
EXTRACT: note_on channel=3 note=72 velocity=0 time=0.013392850000000001
EXTRACT: note_on channel=0 note=45 velocity=0 time=0
EXTRACT: note_on channel=0 note=33 velocity=0 time=0.0044642833333333335
EXTRACT: note_on channel=0 note=41 velocity=70 time=0
EXTRACT: control_change channel=0 control=64 value=0 time=0
EXTRACT: note_on channel=0 note=29 velocity=90 time=0
EXTRACT: note_on channel=0 note=65 velocity=86 time=0
EXTRACT: note_on channel=0 note=57 velocity=73 time=0
EXTRACT: note_on channel=0 note=60 velocity=88 time=0
EXTRACT: note_on channel=1 note=29 velocity=60 time=0
EXTRACT: note_on channel=3 note=67 velocity=95 time=0
EXTRACT: note_on channel=5 note=29 velocity=70 time=0
EXTRACT: note_on channel=5 note=41 velocity=60 time=0
EXTRACT: note_on channel=9 note=35 velocity=47 time=0
EXTRACT: note_on channel=9 note=35 velocity=0 time=0.19642846666666666
EXTRACT: control_change channel=0 control=64 value=127 time=0.06249996666666667
EXTRACT: note_on channel=0 note=65 velocity=0 time=0.11607136666666668
EXTRACT: note_on channel=0 note=57 velocity=0 time=0.013392850000000001
EXTRACT: note_on channel=0 note=60 velocity=0 time=0.0044642833333333335
EXTRACT: note_on channel=0 note=65 velocity=73 time=0.14285706666666667
EXTRACT: note_on channel=0 note=57 velocity=62 time=0
EXTRACT: note_on channel=0 note=60 velocity=70 time=0
EXTRACT: note_on channel=0 note=65 velocity=0 time=0.1339285
EXTRACT: note_on channel=0 note=60 velocity=0 time=0.013392850000000001
EXTRACT: note_on channel=0 note=57 velocity=0 time=0.013392850000000001
EXTRACT: note_on channel=0 note=65 velocity=88 time=0.3749998
EXTRACT: note_on channel=0 note=57 velocity=79 time=0
EXTRACT: note_on channel=0 note=60 velocity=84 time=0
EXTRACT: note_on channel=9 note=28 velocity=46 time=0
EXTRACT: note_on channel=9 note=75 velocity=60 time=0
EXTRACT: note_on channel=9 note=75 velocity=0 time=0.07142853333333334
EXTRACT: note_on channel=3 note=67 velocity=0 time=0.05803568333333334
EXTRACT: note_on channel=0 note=60 velocity=0 time=0.017857133333333334
EXTRACT: note_on channel=0 note=65 velocity=0 time=0.017857133333333334
EXTRACT: note_on channel=0 note=57 velocity=0 time=0.013392850000000001
EXTRACT: control_change channel=0 control=64 value=0 time=0.3482141
EXTRACT: note_on channel=0 note=57 velocity=73 time=0.008928566666666667
EXTRACT: note_on channel=0 note=60 velocity=84 time=0
EXTRACT: note_on channel=0 note=65 velocity=88 time=0
EXTRACT: note_on channel=3 note=67 velocity=93 time=0
EXTRACT: control_change channel=0 control=64 value=127 time=0.18303561666666668
EXTRACT: note_on channel=3 note=64 velocity=93 time=0.08482138333333333
EXTRACT: note_on channel=0 note=65 velocity=0 time=0.031249983333333335
EXTRACT: note_on channel=9 note=28 velocity=0 time=0.008928566666666667
EXTRACT: note_on channel=0 note=60 velocity=0 time=0.0044642833333333335
EXTRACT: note_on channel=0 note=57 velocity=0 time=0.0044642833333333335
EXTRACT: note_on channel=3 note=67 velocity=0 time=0.0044642833333333335
EXTRACT: note_on channel=0 note=41 velocity=0 time=0.20982131666666667
EXTRACT: note_on channel=0 note=48 velocity=70 time=0.0044642833333333335
EXTRACT: note_on channel=0 note=55 velocity=73 time=0
EXTRACT: note_on channel=0 note=60 velocity=88 time=0
EXTRACT: note_on channel=0 note=64 velocity=86 time=0
EXTRACT: control_change channel=0 control=64 value=0 time=0
EXTRACT: note_on channel=0 note=36 velocity=90 time=0
EXTRACT: note_on channel=1 note=36 velocity=60 time=0
EXTRACT: note_on channel=5 note=36 velocity=70 time=0
EXTRACT: note_on channel=5 note=48 velocity=59 time=0
EXTRACT: note_on channel=9 note=35 velocity=47 time=0
EXTRACT: note_on channel=0 note=29 velocity=0 time=0.013392850000000001
EXTRACT: note_on channel=1 note=29 velocity=0 time=0
EXTRACT: note_on channel=5 note=41 velocity=0 time=0.017857133333333334
EXTRACT: note_on channel=5 note=29 velocity=0 time=0.008928566666666667
EXTRACT: note_on channel=9 note=35 velocity=0 time=0.15624991666666668
EXTRACT: control_change channel=0 control=64 value=127 time=0.06249996666666667
EXTRACT: note_on channel=0 note=64 velocity=0 time=0.11607136666666668
EXTRACT: note_on channel=0 note=55 velocity=0 time=0.013392850000000001
EXTRACT: note_on channel=0 note=60 velocity=0 time=0.0044642833333333335
EXTRACT: note_on channel=0 note=64 velocity=73 time=0.14285706666666667
EXTRACT: note_on channel=0 note=55 velocity=62 time=0
EXTRACT: note_on channel=0 note=60 velocity=70 time=0
EXTRACT: note_on channel=0 note=64 velocity=0 time=0.1339285
EXTRACT: note_on channel=0 note=60 velocity=0 time=0.013392850000000001
EXTRACT: note_on channel=0 note=55 velocity=0 time=0.013392850000000001
EXTRACT: note_on channel=0 note=64 velocity=88 time=0.3749998
EXTRACT: note_on channel=0 note=55 velocity=79 time=0
EXTRACT: note_on channel=0 note=60 velocity=84 time=0
EXTRACT: note_on channel=0 note=60 velocity=0 time=0.14732135000000002
EXTRACT: note_on channel=0 note=64 velocity=0 time=0.017857133333333334
EXTRACT: note_on channel=0 note=55 velocity=0 time=0.013392850000000001
EXTRACT: control_change channel=0 control=64 value=0 time=0.3482141
EXTRACT: note_on channel=0 note=64 velocity=88 time=0.008928566666666667
EXTRACT: note_on channel=0 note=55 velocity=73 time=0
EXTRACT: note_on channel=0 note=60 velocity=84 time=0
EXTRACT: control_change channel=0 control=64 value=127 time=0.18303561666666668
EXTRACT: note_on channel=0 note=64 velocity=0 time=0.11607136666666668
EXTRACT: note_on channel=0 note=60 velocity=0 time=0.013392850000000001
EXTRACT: note_on channel=0 note=55 velocity=0 time=0.0044642833333333335
EXTRACT: note_on channel=1 note=36 velocity=0 time=0.19196418333333334
EXTRACT: note_on channel=5 note=36 velocity=0 time=0.0044642833333333335
EXTRACT: note_on channel=5 note=48 velocity=0 time=0.0044642833333333335
EXTRACT: note_on channel=0 note=36 velocity=0 time=0.008928566666666667
EXTRACT: note_on channel=0 note=48 velocity=0 time=0.0044642833333333335
EXTRACT: control_change channel=0 control=64 value=0 time=0.0044642833333333335
EXTRACT: note_on channel=0 note=38 velocity=90 time=0
EXTRACT: note_on channel=0 note=62 velocity=88 time=0
EXTRACT: note_on channel=0 note=65 velocity=86 time=0
EXTRACT: note_on channel=0 note=50 velocity=70 time=0
EXTRACT: note_on channel=0 note=57 velocity=73 time=0
EXTRACT: note_on channel=1 note=38 velocity=60 time=0
EXTRACT: note_on channel=5 note=38 velocity=70 time=0
EXTRACT: note_on channel=5 note=50 velocity=59 time=0
EXTRACT: control_change channel=0 control=64 value=127 time=0.2589284333333333
EXTRACT: note_on channel=0 note=65 velocity=0 time=0.11607136666666668
EXTRACT: note_on channel=0 note=57 velocity=0 time=0.013392850000000001
EXTRACT: note_on channel=0 note=62 velocity=0 time=0.0044642833333333335
EXTRACT: note_on channel=0 note=57 velocity=62 time=0.14285706666666667
EXTRACT: note_on channel=0 note=62 velocity=70 time=0
EXTRACT: note_on channel=0 note=65 velocity=73 time=0
EXTRACT: note_on channel=0 note=65 velocity=0 time=0.1339285
EXTRACT: note_on channel=0 note=62 velocity=0 time=0.013392850000000001
EXTRACT: note_on channel=0 note=57 velocity=0 time=0.013392850000000001
EXTRACT: note_on channel=3 note=64 velocity=0 time=0.3705355166666667
EXTRACT: note_on channel=0 note=65 velocity=88 time=0.0044642833333333335
EXTRACT: note_on channel=0 note=57 velocity=79 time=0
EXTRACT: note_on channel=0 note=62 velocity=84 time=0
EXTRACT: note_on channel=3 note=62 velocity=84 time=0
EXTRACT: note_on channel=9 note=28 velocity=46 time=0
EXTRACT: note_on channel=9 note=75 velocity=60 time=0
EXTRACT: note_on channel=9 note=75 velocity=0 time=0.07142853333333334
EXTRACT: note_on channel=0 note=62 velocity=0 time=0.07589281666666667
EXTRACT: note_on channel=0 note=65 velocity=0 time=0.017857133333333334
EXTRACT: note_on channel=0 note=57 velocity=0 time=0.013392850000000001
EXTRACT: note_on channel=3 note=62 velocity=0 time=0.08482138333333333
EXTRACT: note_on channel=3 note=60 velocity=79 time=0.0044642833333333335
EXTRACT: control_change channel=0 control=64 value=0 time=0.2589284333333333
EXTRACT: note_on channel=3 note=60 velocity=0 time=0.0044642833333333335
EXTRACT: note_on channel=0 note=57 velocity=73 time=0.0044642833333333335
EXTRACT: note_on channel=0 note=62 velocity=84 time=0
EXTRACT: note_on channel=0 note=65 velocity=88 time=0
EXTRACT: note_on channel=3 note=62 velocity=95 time=0
EXTRACT: control_change channel=0 control=64 value=127 time=0.18303561666666668
EXTRACT: note_on channel=3 note=62 velocity=0 time=0.0803571
EXTRACT: note_on channel=3 note=62 velocity=95 time=0.0044642833333333335
EXTRACT: note_on channel=0 note=65 velocity=0 time=0.031249983333333335
EXTRACT: note_on channel=9 note=28 velocity=0 time=0.008928566666666667
EXTRACT: note_on channel=0 note=62 velocity=0 time=0.0044642833333333335
EXTRACT: note_on channel=0 note=57 velocity=0 time=0.0044642833333333335
EXTRACT: note_on channel=0 note=50 velocity=0 time=0.21428560000000002
EXTRACT: control_change channel=0 control=64 value=0 time=0.0044642833333333335
EXTRACT: note_on channel=0 note=57 velocity=73 time=0
EXTRACT: note_on channel=0 note=33 velocity=90 time=0
EXTRACT: note_on channel=0 note=45 velocity=70 time=0
EXTRACT: note_on channel=0 note=60 velocity=88 time=0
EXTRACT: note_on channel=0 note=64 velocity=86 time=0
EXTRACT: note_on channel=1 note=33 velocity=60 time=0
EXTRACT: note_on channel=5 note=33 velocity=70 time=0
EXTRACT: note_on channel=5 note=45 velocity=59 time=0
EXTRACT: note_on channel=1 note=38 velocity=0 time=0.017857133333333334
EXTRACT: note_on channel=0 note=38 velocity=0 time=0.017857133333333334
EXTRACT: note_on channel=5 note=50 velocity=0 time=0.008928566666666667
EXTRACT: note_on channel=5 note=38 velocity=0 time=0.03571426666666667
EXTRACT: control_change channel=0 control=64 value=127 time=0.17857133333333333
EXTRACT: note_on channel=0 note=64 velocity=0 time=0.11607136666666668
EXTRACT: note_on channel=0 note=57 velocity=0 time=0.013392850000000001
EXTRACT: note_on channel=0 note=60 velocity=0 time=0.0044642833333333335
EXTRACT: note_on channel=3 note=62 velocity=0 time=0.13839278333333332
EXTRACT: note_on channel=0 note=57 velocity=62 time=0.0044642833333333335
EXTRACT: note_on channel=0 note=60 velocity=70 time=0
EXTRACT: note_on channel=0 note=64 velocity=73 time=0
EXTRACT: note_on channel=0 note=64 velocity=0 time=0.1339285
EXTRACT: note_on channel=0 note=60 velocity=0 time=0.013392850000000001
EXTRACT: note_on channel=0 note=57 velocity=0 time=0.013392850000000001
EXTRACT: note_on channel=0 note=57 velocity=79 time=0.3749998
EXTRACT: note_on channel=0 note=60 velocity=84 time=0
EXTRACT: note_on channel=0 note=64 velocity=88 time=0
EXTRACT: note_on channel=0 note=60 velocity=0 time=0.14732135000000002
EXTRACT: note_on channel=0 note=64 velocity=0 time=0.017857133333333334
EXTRACT: note_on channel=0 note=57 velocity=0 time=0.013392850000000001
EXTRACT: control_change channel=0 control=64 value=0 time=0.3482141
EXTRACT: note_on channel=0 note=64 velocity=88 time=0.008928566666666667
EXTRACT: note_on channel=0 note=57 velocity=73 time=0
EXTRACT: note_on channel=0 note=60 velocity=84 time=0
EXTRACT: control_change channel=0 control=64 value=127 time=0.18303561666666668
EXTRACT: note_on channel=0 note=64 velocity=0 time=0.11607136666666668
EXTRACT: note_on channel=0 note=60 velocity=0 time=0.013392850000000001
EXTRACT: note_on channel=0 note=57 velocity=0 time=0.0044642833333333335
EXTRACT: note_on channel=1 note=33 velocity=0 time=0.19642846666666666
EXTRACT: note_on channel=5 note=45 velocity=0 time=0.008928566666666667
EXTRACT: note_on channel=0 note=45 velocity=0 time=0.008928566666666667
EXTRACT: note_on channel=0 note=33 velocity=0 time=0.0044642833333333335
EXTRACT: note_on channel=0 note=41 velocity=70 time=0
EXTRACT: note_on channel=0 note=57 velocity=73 time=0
EXTRACT: note_on channel=0 note=60 velocity=88 time=0
EXTRACT: note_on channel=0 note=65 velocity=86 time=0
EXTRACT: control_change channel=0 control=64 value=0 time=0
EXTRACT: note_on channel=0 note=29 velocity=90 time=0
EXTRACT: note_on channel=1 note=29 velocity=60 time=0
EXTRACT: note_on channel=5 note=29 velocity=70 time=0
EXTRACT: note_on channel=5 note=41 velocity=60 time=0
EXTRACT: note_on channel=5 note=33 velocity=0 time=0.0044642833333333335
EXTRACT: control_change channel=0 control=64 value=127 time=0.25446415
EXTRACT: note_on channel=0 note=65 velocity=0 time=0.11607136666666668
EXTRACT: note_on channel=0 note=57 velocity=0 time=0.013392850000000001
EXTRACT: note_on channel=0 note=60 velocity=0 time=0.0044642833333333335
EXTRACT: note_on channel=0 note=57 velocity=62 time=0.14285706666666667
EXTRACT: note_on channel=0 note=60 velocity=70 time=0
EXTRACT: note_on channel=0 note=65 velocity=73 time=0
EXTRACT: note_on channel=0 note=65 velocity=0 time=0.1339285
EXTRACT: note_on channel=0 note=60 velocity=0 time=0.013392850000000001
EXTRACT: note_on channel=0 note=57 velocity=0 time=0.013392850000000001
EXTRACT: note_on channel=3 note=60 velocity=107 time=0.10714280000000001
EXTRACT: note_on channel=4 note=55 velocity=117 time=0
EXTRACT: note_on channel=15 note=55 velocity=1 time=0
EXTRACT: note_on channel=0 note=57 velocity=79 time=0.267857
EXTRACT: note_on channel=0 note=60 velocity=84 time=0
EXTRACT: note_on channel=0 note=65 velocity=88 time=0
EXTRACT: note_on channel=3 note=64 velocity=100 time=0
EXTRACT: note_on channel=4 note=60 velocity=110 time=0
EXTRACT: note_on channel=15 note=60 velocity=1 time=0
EXTRACT: note_on channel=15 note=55 velocity=0 time=0.026785700000000003
EXTRACT: note_on channel=4 note=55 velocity=0 time=0
EXTRACT: note_on channel=3 note=60 velocity=0 time=0
EXTRACT: note_on channel=0 note=60 velocity=0 time=0.12053565000000001
EXTRACT: note_on channel=0 note=65 velocity=0 time=0.017857133333333334
EXTRACT: note_on channel=0 note=57 velocity=0 time=0.013392850000000001
EXTRACT: note_on channel=3 note=62 velocity=85 time=0.22321416666666669
EXTRACT: note_on channel=4 note=57 velocity=95 time=0
EXTRACT: note_on channel=15 note=57 velocity=1 time=0
EXTRACT: note_on channel=3 note=64 velocity=0 time=0.008928566666666667
EXTRACT: note_on channel=4 note=60 velocity=0 time=0
EXTRACT: note_on channel=15 note=60 velocity=0 time=0
EXTRACT: note_on channel=15 note=57 velocity=0 time=0.09821423333333333
EXTRACT: note_on channel=4 note=57 velocity=0 time=0
EXTRACT: note_on channel=3 note=62 velocity=0 time=0
EXTRACT: control_change channel=0 control=64 value=0 time=0.017857133333333334
EXTRACT: note_on channel=0 note=65 velocity=88 time=0.008928566666666667
EXTRACT: note_on channel=0 note=57 velocity=73 time=0
EXTRACT: note_on channel=0 note=60 velocity=84 time=0
EXTRACT: note_on channel=3 note=60 velocity=114 time=0
EXTRACT: note_on channel=4 note=55 velocity=120 time=0
EXTRACT: note_on channel=15 note=55 velocity=1 time=0
EXTRACT: note_on channel=15 note=55 velocity=0 time=0.17857133333333333
EXTRACT: note_on channel=4 note=55 velocity=0 time=0
EXTRACT: note_on channel=3 note=60 velocity=0 time=0
EXTRACT: control_change channel=0 control=64 value=127 time=0.0044642833333333335
EXTRACT: note_on channel=3 note=60 velocity=90 time=0.08482138333333333
EXTRACT: note_on channel=4 note=55 velocity=100 time=0
EXTRACT: note_on channel=15 note=55 velocity=1 time=0
EXTRACT: note_on channel=0 note=65 velocity=0 time=0.031249983333333335
EXTRACT: note_on channel=0 note=60 velocity=0 time=0.013392850000000001
EXTRACT: note_on channel=0 note=57 velocity=0 time=0.0044642833333333335
EXTRACT: note_on channel=5 note=29 velocity=0 time=0.16517848333333335
EXTRACT: note_on channel=1 note=29 velocity=0 time=0.017857133333333334
EXTRACT: note_on channel=5 note=41 velocity=0 time=0.008928566666666667
EXTRACT: note_on channel=0 note=41 velocity=0 time=0.022321416666666666
EXTRACT: note_on channel=0 note=48 velocity=66 time=0.0044642833333333335
EXTRACT: control_change channel=0 control=64 value=0 time=0
EXTRACT: note_on channel=0 note=36 velocity=88 time=0
EXTRACT: note_on channel=0 note=64 velocity=103 time=0
EXTRACT: note_on channel=0 note=55 velocity=95 time=0
EXTRACT: note_on channel=0 note=60 velocity=103 time=0
EXTRACT: note_on channel=1 note=36 velocity=60 time=0
EXTRACT: note_on channel=5 note=24 velocity=70 time=0
EXTRACT: note_on channel=0 note=29 velocity=0 time=0.013392850000000001
EXTRACT: control_change channel=0 control=64 value=127 time=0.34374981666666665
EXTRACT: note_on channel=0 note=64 velocity=0 time=0.3169641166666667
EXTRACT: note_on channel=0 note=60 velocity=0 time=0.008928566666666667
EXTRACT: note_on channel=0 note=55 velocity=0 time=0.013392850000000001
EXTRACT: note_on channel=7 note=57 velocity=64 time=0.24107130000000002
EXTRACT: note_on channel=0 note=55 velocity=84 time=0.1339285
EXTRACT: note_on channel=0 note=60 velocity=95 time=0
EXTRACT: note_on channel=0 note=64 velocity=102 time=0
EXTRACT: control_change channel=7 control=11 value=127 time=0
EXTRACT: control_change channel=7 control=11 value=0 time=0.031249983333333335
EXTRACT: control_change channel=7 control=11 value=127 time=0.03571426666666667
EXTRACT: control_change channel=7 control=11 value=0 time=0.031249983333333335
EXTRACT: control_change channel=7 control=11 value=127 time=0.03571426666666667
EXTRACT: control_change channel=7 control=11 value=0 time=0.031249983333333335
EXTRACT: control_change channel=7 control=11 value=125 time=0.03571426666666667
EXTRACT: control_change channel=7 control=11 value=0 time=0.031249983333333335
EXTRACT: control_change channel=7 control=11 value=127 time=0.03571426666666667
EXTRACT: control_change channel=7 control=11 value=0 time=0.031249983333333335
EXTRACT: note_on channel=3 note=60 velocity=0 time=0.013392850000000001
EXTRACT: note_on channel=15 note=55 velocity=0 time=0
EXTRACT: note_on channel=4 note=55 velocity=0 time=0
EXTRACT: control_change channel=7 control=11 value=127 time=0.022321416666666666
EXTRACT: control_change channel=7 control=11 value=0 time=0.031249983333333335
EXTRACT: control_change channel=7 control=11 value=127 time=0.03571426666666667
EXTRACT: control_change channel=7 control=11 value=0 time=0.031249983333333335
EXTRACT: control_change channel=7 control=11 value=127 time=0.03571426666666667
EXTRACT: control_change channel=7 control=11 value=0 time=0.031249983333333335
EXTRACT: control_change channel=7 control=11 value=127 time=0.03571426666666667
EXTRACT: control_change channel=7 control=11 value=0 time=0.031249983333333335
EXTRACT: control_change channel=7 control=11 value=127 time=0.03571426666666667
EXTRACT: control_change channel=7 control=11 value=0 time=0.031249983333333335
EXTRACT: control_change channel=7 control=11 value=127 time=0.03571426666666667
EXTRACT: control_change channel=7 control=11 value=0 time=0.031249983333333335
EXTRACT: control_change channel=7 control=11 value=127 time=0.03571426666666667
EXTRACT: control_change channel=7 control=11 value=0 time=0.031249983333333335
EXTRACT: control_change channel=7 control=11 value=125 time=0.03571426666666667
EXTRACT: control_change channel=7 control=11 value=0 time=0.031249983333333335
EXTRACT: control_change channel=7 control=11 value=127 time=0.03571426666666667
EXTRACT: control_change channel=7 control=11 value=0 time=0.031249983333333335
EXTRACT: control_change channel=7 control=11 value=127 time=0.03571426666666667
EXTRACT: control_change channel=7 control=11 value=0 time=0.031249983333333335
EXTRACT: control_change channel=0 control=64 value=0 time=0.008928566666666667
EXTRACT: control_change channel=7 control=11 value=127 time=0.026785700000000003
EXTRACT: note_on channel=0 note=36 velocity=0 time=0.022321416666666666
EXTRACT: control_change channel=7 control=11 value=0 time=0.008928566666666667
EXTRACT: note_on channel=0 note=60 velocity=0 time=0.017857133333333334
EXTRACT: note_on channel=0 note=48 velocity=0 time=0.013392850000000001
EXTRACT: note_on channel=0 note=55 velocity=0 time=0
EXTRACT: note_on channel=0 note=64 velocity=0 time=0
EXTRACT: note_on channel=5 note=24 velocity=0 time=0
EXTRACT: note_on channel=0 note=57 velocity=88 time=0.0044642833333333335
EXTRACT: note_on channel=0 note=62 velocity=102 time=0
EXTRACT: note_on channel=0 note=65 velocity=95 time=0
EXTRACT: note_on channel=0 note=38 velocity=88 time=0
EXTRACT: note_on channel=0 note=50 velocity=74 time=0
EXTRACT: note_on channel=5 note=26 velocity=70 time=0
EXTRACT: control_change channel=7 control=11 value=127 time=0
EXTRACT: note_on channel=1 note=36 velocity=0 time=0.017857133333333334
EXTRACT: control_change channel=7 control=11 value=0 time=0.013392850000000001
EXTRACT: control_change channel=7 control=11 value=127 time=0.03571426666666667
EXTRACT: control_change channel=7 control=11 value=0 time=0.031249983333333335
EXTRACT: control_change channel=7 control=11 value=127 time=0.03571426666666667
EXTRACT: control_change channel=7 control=11 value=0 time=0.031249983333333335
EXTRACT: control_change channel=7 control=11 value=127 time=0.03571426666666667
EXTRACT: control_change channel=7 control=11 value=5 time=0.031249983333333335
EXTRACT: control_change channel=7 control=11 value=127 time=0.03571426666666667
EXTRACT: control_change channel=7 control=11 value=0 time=0.031249983333333335
EXTRACT: control_change channel=7 control=11 value=127 time=0.03571426666666667
EXTRACT: control_change channel=7 control=11 value=0 time=0.031249983333333335
EXTRACT: control_change channel=7 control=11 value=127 time=0.03571426666666667
EXTRACT: control_change channel=7 control=11 value=0 time=0.031249983333333335
EXTRACT: control_change channel=7 control=11 value=127 time=0.03571426666666667
EXTRACT: control_change channel=7 control=11 value=0 time=0.031249983333333335
EXTRACT: control_change channel=7 control=11 value=127 time=0.03571426666666667
EXTRACT: control_change channel=7 control=11 value=0 time=0.031249983333333335
EXTRACT: control_change channel=7 control=11 value=127 time=0.03571426666666667
EXTRACT: control_change channel=7 control=11 value=0 time=0.031249983333333335
EXTRACT: control_change channel=7 control=11 value=125 time=0.03571426666666667
EXTRACT: control_change channel=7 control=11 value=0 time=0.031249983333333335
EXTRACT: control_change channel=7 control=11 value=127 time=0.03571426666666667
EXTRACT: control_change channel=0 control=64 value=127 time=0.0044642833333333335
EXTRACT: control_change channel=7 control=11 value=0 time=0.026785700000000003
EXTRACT: control_change channel=7 control=11 value=127 time=0.03571426666666667
EXTRACT: control_change channel=7 control=11 value=0 time=0.031249983333333335
EXTRACT: control_change channel=7 control=11 value=127 time=0.03571426666666667
EXTRACT: control_change channel=7 control=11 value=0 time=0.031249983333333335
EXTRACT: control_change channel=7 control=11 value=127 time=0.03571426666666667
EXTRACT: note_on channel=0 note=65 velocity=0 time=0.013392850000000001
EXTRACT: control_change channel=7 control=11 value=0 time=0.017857133333333334
EXTRACT: note_on channel=0 note=62 velocity=0 time=0.0044642833333333335
EXTRACT: note_on channel=0 note=57 velocity=0 time=0
EXTRACT: control_change channel=7 control=11 value=127 time=0.031249983333333335
EXTRACT: control_change channel=7 control=11 value=0 time=0.031249983333333335
EXTRACT: note_on channel=0 note=65 velocity=102 time=0.03571426666666667
EXTRACT: note_on channel=0 note=57 velocity=98 time=0
EXTRACT: note_on channel=0 note=62 velocity=110 time=0
EXTRACT: control_change channel=7 control=11 value=127 time=0
EXTRACT: control_change channel=7 control=11 value=0 time=0.031249983333333335
EXTRACT: control_change channel=7 control=11 value=127 time=0.03571426666666667
EXTRACT: control_change channel=7 control=11 value=0 time=0.031249983333333335
EXTRACT: control_change channel=7 control=11 value=127 time=0.03571426666666667
EXTRACT: control_change channel=7 control=11 value=0 time=0.031249983333333335
EXTRACT: control_change channel=7 control=11 value=127 time=0.03571426666666667
EXTRACT: control_change channel=7 control=11 value=0 time=0.031249983333333335
EXTRACT: control_change channel=7 control=11 value=127 time=0.03571426666666667
EXTRACT: control_change channel=7 control=11 value=0 time=0.031249983333333335
EXTRACT: control_change channel=7 control=11 value=127 time=0.03571426666666667
EXTRACT: control_change channel=7 control=11 value=0 time=0.031249983333333335
EXTRACT: control_change channel=7 control=11 value=127 time=0.03571426666666667
EXTRACT: control_change channel=7 control=11 value=3 time=0.031249983333333335
EXTRACT: control_change channel=7 control=11 value=127 time=0.03571426666666667
EXTRACT: note_on channel=3 note=76 velocity=69 time=0.026785700000000003
EXTRACT: control_change channel=7 control=11 value=0 time=0.0044642833333333335
EXTRACT: control_change channel=7 control=11 value=127 time=0.03571426666666667
EXTRACT: control_change channel=7 control=11 value=0 time=0.031249983333333335
EXTRACT: note_on channel=3 note=74 velocity=77 time=0.24553558333333333
EXTRACT: note_on channel=3 note=76 velocity=0 time=0.013392850000000001
EXTRACT: note_on channel=7 note=57 velocity=0 time=0.16517848333333335
EXTRACT: control_change channel=0 control=64 value=0 time=0.031249983333333335
EXTRACT: note_on channel=0 note=50 velocity=0 time=0.008928566666666667
EXTRACT: note_on channel=0 note=57 velocity=0 time=0.03571426666666667
EXTRACT: note_on channel=0 note=38 velocity=0 time=0
EXTRACT: note_on channel=5 note=26 velocity=0 time=0
EXTRACT: note_on channel=0 note=62 velocity=0 time=0
EXTRACT: note_on channel=0 note=33 velocity=102 time=0.0044642833333333335
EXTRACT: note_on channel=0 note=45 velocity=68 time=0
EXTRACT: note_on channel=0 note=64 velocity=106 time=0
EXTRACT: note_on channel=0 note=57 velocity=90 time=0
EXTRACT: note_on channel=0 note=60 velocity=95 time=0
EXTRACT: note_on channel=5 note=33 velocity=55 time=0
EXTRACT: note_on channel=0 note=65 velocity=0 time=0.04017855
EXTRACT: control_change channel=0 control=64 value=127 time=0.7455353166666667
EXTRACT: note_on channel=0 note=64 velocity=0 time=0.11607136666666668
EXTRACT: note_on channel=0 note=57 velocity=0 time=0.008928566666666667
EXTRACT: note_on channel=0 note=60 velocity=0 time=0.008928566666666667
EXTRACT: note_on channel=0 note=64 velocity=102 time=0.15178563333333334
EXTRACT: note_on channel=0 note=57 velocity=88 time=0
EXTRACT: note_on channel=0 note=60 velocity=110 time=0
EXTRACT: note_on channel=3 note=74 velocity=0 time=0.5803568333333333
EXTRACT: control_change channel=5 control=11 value=127 time=0.35714266666666666
EXTRACT: note_on channel=0 note=64 velocity=0 time=0.09821423333333333
EXTRACT: note_on channel=0 note=45 velocity=0 time=0
EXTRACT: note_on channel=0 note=60 velocity=0 time=0.017857133333333334
EXTRACT: control_change channel=0 control=64 value=0 time=0
EXTRACT: note_on channel=5 note=33 velocity=0 time=0.0044642833333333335
EXTRACT: note_on channel=0 note=57 velocity=0 time=0.008928566666666667
EXTRACT: note_on channel=0 note=33 velocity=0 time=0
EXTRACT: note_on channel=0 note=29 velocity=68 time=0.0044642833333333335
EXTRACT: note_on channel=0 note=41 velocity=84 time=0
EXTRACT: note_on channel=0 note=65 velocity=100 time=0
EXTRACT: note_on channel=0 note=53 velocity=107 time=0
EXTRACT: note_on channel=0 note=60 velocity=102 time=0
EXTRACT: control_change channel=5 control=11 value=125 time=0
EXTRACT: note_on channel=5 note=29 velocity=70 time=0
EXTRACT: control_change channel=5 control=11 value=123 time=0.1339285
EXTRACT: control_change channel=5 control=11 value=119 time=0.1339285
EXTRACT: control_change channel=5 control=11 value=118 time=0.1339285
EXTRACT: control_change channel=5 control=11 value=114 time=0.1339285
EXTRACT: control_change channel=5 control=11 value=112 time=0.1339285
EXTRACT: control_change channel=5 control=11 value=109 time=0.1339285
EXTRACT: control_change channel=5 control=11 value=107 time=0.1339285
EXTRACT: control_change channel=5 control=11 value=104 time=0.1339285
EXTRACT: control_change channel=5 control=11 value=102 time=0.1339285
EXTRACT: control_change channel=5 control=11 value=98 time=0.1339285
EXTRACT: control_change channel=5 control=11 value=97 time=0.1339285
EXTRACT: control_change channel=5 control=11 value=93 time=0.1339285
EXTRACT: control_change channel=5 control=11 value=91 time=0.1339285
EXTRACT: control_change channel=5 control=11 value=88 time=0.1339285
EXTRACT: control_change channel=5 control=11 value=86 time=0.1339285
EXTRACT: control_change channel=5 control=11 value=82 time=0.1339285
EXTRACT: control_change channel=5 control=11 value=81 time=0.1339285
EXTRACT: control_change channel=5 control=11 value=77 time=0.1339285
EXTRACT: control_change channel=5 control=11 value=75 time=0.1339285
EXTRACT: control_change channel=5 control=11 value=72 time=0.1339285
EXTRACT: control_change channel=5 control=11 value=70 time=0.1339285
EXTRACT: control_change channel=5 control=11 value=67 time=0.1339285
EXTRACT: control_change channel=5 control=11 value=65 time=0.1339285
EXTRACT: control_change channel=5 control=11 value=61 time=0.1339285
EXTRACT: control_change channel=5 control=11 value=59 time=0.1339285
EXTRACT: control_change channel=5 control=11 value=56 time=0.1339285
EXTRACT: control_change channel=5 control=11 value=54 time=0.1339285
EXTRACT: control_change channel=5 control=11 value=51 time=0.1339285
EXTRACT: control_change channel=5 control=11 value=49 time=0.1339285
EXTRACT: control_change channel=5 control=11 value=45 time=0.1339285
EXTRACT: control_change channel=5 control=11 value=44 time=0.1339285
EXTRACT: control_change channel=5 control=11 value=40 time=0.1339285
EXTRACT: control_change channel=5 control=11 value=38 time=0.1339285
EXTRACT: control_change channel=5 control=11 value=35 time=0.1339285
EXTRACT: control_change channel=5 control=11 value=33 time=0.1339285
EXTRACT: control_change channel=5 control=11 value=29 time=0.1339285
EXTRACT: control_change channel=5 control=11 value=28 time=0.1339285
EXTRACT: control_change channel=5 control=11 value=24 time=0.1339285
EXTRACT: control_change channel=5 control=11 value=22 time=0.1339285
EXTRACT: control_change channel=5 control=11 value=19 time=0.1339285
EXTRACT: control_change channel=5 control=11 value=17 time=0.1339285
EXTRACT: control_change channel=5 control=11 value=14 time=0.1339285
EXTRACT: control_change channel=5 control=11 value=12 time=0.1339285
EXTRACT: control_change channel=5 control=11 value=8 time=0.1339285
EXTRACT: control_change channel=5 control=11 value=7 time=0.1339285
EXTRACT: note_on channel=5 note=29 velocity=0 time=2.138391716666667
EXTRACT: note_on channel=0 note=41 velocity=0 time=1.2276779166666667
EXTRACT: note_on channel=0 note=53 velocity=0 time=0.0044642833333333335
EXTRACT: note_on channel=0 note=29 velocity=0 time=0
EXTRACT: note_on channel=0 note=65 velocity=0 time=0.0044642833333333335
EXTRACT: note_on channel=0 note=60 velocity=0 time=0.008928566666666667
EXTRACT: sysex data=(126,127,9,1) time=1.3035707333333333
EXTRACT: sysex data=(65,16,66,18,64,0,127,0,65) time=0
