EXTRACT: control_change channel=6 control=100 value=0 time=0
EXTRACT: control_change channel=6 control=101 value=0 time=0
EXTRACT: control_change channel=6 control=6 value=12 time=0
EXTRACT: pitchwheel channel=6 pitch=0 time=0
EXTRACT: control_change channel=7 control=100 value=0 time=0
EXTRACT: control_change channel=7 control=101 value=0 time=0
EXTRACT: control_change channel=7 control=6 value=12 time=0
EXTRACT: pitchwheel channel=7 pitch=0 time=0
EXTRACT: program_change channel=6 program=81 time=0
EXTRACT: program_change channel=7 program=81 time=0
EXTRACT: control_change channel=6 control=7 value=72 time=0
EXTRACT: control_change channel=7 control=7 value=72 time=0
EXTRACT: control_change channel=6 control=10 value=64 time=0
EXTRACT: control_change channel=7 control=10 value=64 time=0
EXTRACT: control_change channel=6 control=93 value=0 time=0
EXTRACT: control_change channel=7 control=93 value=0 time=0
EXTRACT: control_change channel=6 control=91 value=0 time=0
EXTRACT: control_change channel=7 control=91 value=0 time=0
EXTRACT: control_change channel=6 control=92 value=0 time=0
EXTRACT: control_change channel=7 control=92 value=0 time=0
EXTRACT: control_change channel=6 control=95 value=0 time=0
EXTRACT: control_change channel=7 control=95 value=0 time=0
EXTRACT: control_change channel=0 control=100 value=0 time=0
EXTRACT: control_change channel=0 control=101 value=0 time=0
EXTRACT: control_change channel=0 control=6 value=12 time=0
EXTRACT: pitchwheel channel=0 pitch=0 time=0
EXTRACT: control_change channel=1 control=100 value=0 time=0
EXTRACT: control_change channel=1 control=101 value=0 time=0
EXTRACT: control_change channel=1 control=6 value=12 time=0
EXTRACT: pitchwheel channel=1 pitch=0 time=0
EXTRACT: program_change channel=0 program=16 time=0
EXTRACT: program_change channel=1 program=16 time=0
EXTRACT: control_change channel=0 control=7 value=56 time=0
EXTRACT: control_change channel=1 control=7 value=56 time=0
EXTRACT: control_change channel=0 control=10 value=64 time=0
EXTRACT: control_change channel=1 control=10 value=64 time=0
EXTRACT: control_change channel=0 control=93 value=0 time=0
EXTRACT: control_change channel=1 control=93 value=0 time=0
EXTRACT: control_change channel=0 control=91 value=0 time=0
EXTRACT: control_change channel=1 control=91 value=0 time=0
EXTRACT: control_change channel=0 control=92 value=0 time=0
EXTRACT: control_change channel=1 control=92 value=0 time=0
EXTRACT: control_change channel=0 control=95 value=0 time=0
EXTRACT: control_change channel=1 control=95 value=0 time=0
EXTRACT: note_on channel=0 note=67 velocity=95 time=0
EXTRACT: note_on channel=0 note=63 velocity=95 time=0
EXTRACT: note_on channel=0 note=58 velocity=95 time=0
EXTRACT: note_on channel=0 note=55 velocity=95 time=0
EXTRACT: note_on channel=0 note=51 velocity=95 time=0
EXTRACT: control_change channel=4 control=100 value=0 time=0
EXTRACT: control_change channel=4 control=101 value=0 time=0
EXTRACT: control_change channel=4 control=6 value=12 time=0
EXTRACT: pitchwheel channel=4 pitch=0 time=0
EXTRACT: control_change channel=5 control=100 value=0 time=0
EXTRACT: control_change channel=5 control=101 value=0 time=0
EXTRACT: control_change channel=5 control=6 value=12 time=0
EXTRACT: pitchwheel channel=5 pitch=0 time=0
EXTRACT: program_change channel=4 program=19 time=0
EXTRACT: program_change channel=5 program=19 time=0
EXTRACT: control_change channel=4 control=7 value=40 time=0
EXTRACT: control_change channel=5 control=7 value=40 time=0
EXTRACT: control_change channel=4 control=10 value=40 time=0
EXTRACT: control_change channel=5 control=10 value=40 time=0
EXTRACT: control_change channel=4 control=93 value=0 time=0
EXTRACT: control_change channel=5 control=93 value=0 time=0
EXTRACT: control_change channel=4 control=91 value=0 time=0
EXTRACT: control_change channel=5 control=91 value=0 time=0
EXTRACT: control_change channel=4 control=92 value=0 time=0
EXTRACT: control_change channel=5 control=92 value=0 time=0
EXTRACT: control_change channel=4 control=95 value=0 time=0
EXTRACT: control_change channel=5 control=95 value=0 time=0
EXTRACT: control_change channel=8 control=100 value=0 time=0
EXTRACT: control_change channel=8 control=101 value=0 time=0
EXTRACT: control_change channel=8 control=6 value=12 time=0
EXTRACT: pitchwheel channel=8 pitch=0 time=0
EXTRACT: control_change channel=10 control=100 value=0 time=0
EXTRACT: control_change channel=10 control=101 value=0 time=0
EXTRACT: control_change channel=10 control=6 value=12 time=0
EXTRACT: pitchwheel channel=10 pitch=0 time=0
EXTRACT: program_change channel=8 program=1 time=0
EXTRACT: program_change channel=10 program=1 time=0
EXTRACT: control_change channel=8 control=7 value=88 time=0
EXTRACT: control_change channel=10 control=7 value=88 time=0
EXTRACT: control_change channel=8 control=10 value=64 time=0
EXTRACT: control_change channel=10 control=10 value=64 time=0
EXTRACT: control_change channel=8 control=93 value=0 time=0
EXTRACT: control_change channel=10 control=93 value=0 time=0
EXTRACT: control_change channel=8 control=91 value=0 time=0
EXTRACT: control_change channel=10 control=91 value=0 time=0
EXTRACT: control_change channel=8 control=92 value=0 time=0
EXTRACT: control_change channel=10 control=92 value=0 time=0
EXTRACT: control_change channel=8 control=95 value=0 time=0
EXTRACT: control_change channel=10 control=95 value=0 time=0
EXTRACT: control_change channel=11 control=100 value=0 time=0
EXTRACT: control_change channel=11 control=101 value=0 time=0
EXTRACT: control_change channel=11 control=6 value=12 time=0
EXTRACT: pitchwheel channel=11 pitch=0 time=0
EXTRACT: control_change channel=12 control=100 value=0 time=0
EXTRACT: control_change channel=12 control=101 value=0 time=0
EXTRACT: control_change channel=12 control=6 value=12 time=0
EXTRACT: pitchwheel channel=12 pitch=0 time=0
EXTRACT: program_change channel=11 program=0 time=0
EXTRACT: program_change channel=12 program=0 time=0
EXTRACT: control_change channel=11 control=7 value=104 time=0
EXTRACT: control_change channel=12 control=7 value=104 time=0
EXTRACT: control_change channel=11 control=10 value=64 time=0
EXTRACT: control_change channel=12 control=10 value=64 time=0
EXTRACT: control_change channel=11 control=93 value=0 time=0
EXTRACT: control_change channel=12 control=93 value=0 time=0
EXTRACT: control_change channel=11 control=91 value=0 time=0
EXTRACT: control_change channel=12 control=91 value=0 time=0
EXTRACT: control_change channel=11 control=92 value=0 time=0
EXTRACT: control_change channel=12 control=92 value=0 time=0
EXTRACT: control_change channel=11 control=95 value=0 time=0
EXTRACT: control_change channel=12 control=95 value=0 time=0
EXTRACT: control_change channel=13 control=100 value=0 time=0
EXTRACT: control_change channel=13 control=101 value=0 time=0
EXTRACT: control_change channel=13 control=6 value=12 time=0
EXTRACT: pitchwheel channel=13 pitch=0 time=0
EXTRACT: control_change channel=14 control=100 value=0 time=0
EXTRACT: control_change channel=14 control=101 value=0 time=0
EXTRACT: control_change channel=14 control=6 value=12 time=0
EXTRACT: pitchwheel channel=14 pitch=0 time=0
EXTRACT: program_change channel=13 program=24 time=0
EXTRACT: program_change channel=14 program=24 time=0
EXTRACT: control_change channel=13 control=7 value=64 time=0
EXTRACT: control_change channel=14 control=7 value=64 time=0
EXTRACT: control_change channel=13 control=10 value=64 time=0
EXTRACT: control_change channel=14 control=10 value=64 time=0
EXTRACT: control_change channel=13 control=93 value=0 time=0
EXTRACT: control_change channel=14 control=93 value=0 time=0
EXTRACT: control_change channel=13 control=91 value=0 time=0
EXTRACT: control_change channel=14 control=91 value=0 time=0
EXTRACT: control_change channel=13 control=92 value=0 time=0
EXTRACT: control_change channel=14 control=92 value=0 time=0
EXTRACT: control_change channel=13 control=95 value=0 time=0
EXTRACT: control_change channel=14 control=95 value=0 time=0
EXTRACT: control_change channel=15 control=100 value=0 time=0
EXTRACT: control_change channel=15 control=101 value=0 time=0
EXTRACT: control_change channel=15 control=6 value=12 time=0
EXTRACT: pitchwheel channel=15 pitch=0 time=0
EXTRACT: program_change channel=15 program=29 time=0
EXTRACT: control_change channel=15 control=7 value=80 time=0
EXTRACT: control_change channel=15 control=10 value=8 time=0
EXTRACT: control_change channel=15 control=93 value=0 time=0
EXTRACT: control_change channel=15 control=91 value=0 time=0
EXTRACT: control_change channel=15 control=92 value=0 time=0
EXTRACT: control_change channel=15 control=95 value=0 time=0
EXTRACT: control_change channel=2 control=100 value=0 time=0
EXTRACT: control_change channel=2 control=101 value=0 time=0
EXTRACT: control_change channel=2 control=6 value=12 time=0
EXTRACT: pitchwheel channel=2 pitch=0 time=0
EXTRACT: control_change channel=3 control=100 value=0 time=0
EXTRACT: control_change channel=3 control=101 value=0 time=0
EXTRACT: control_change channel=3 control=6 value=12 time=0
EXTRACT: pitchwheel channel=3 pitch=0 time=0
EXTRACT: program_change channel=2 program=32 time=0
EXTRACT: program_change channel=3 program=32 time=0
EXTRACT: control_change channel=2 control=7 value=104 time=0
EXTRACT: control_change channel=3 control=7 value=104 time=0
EXTRACT: control_change channel=2 control=10 value=64 time=0
EXTRACT: control_change channel=3 control=10 value=64 time=0
EXTRACT: control_change channel=2 control=93 value=0 time=0
EXTRACT: control_change channel=3 control=93 value=0 time=0
EXTRACT: control_change channel=2 control=91 value=0 time=0
EXTRACT: control_change channel=3 control=91 value=0 time=0
EXTRACT: control_change channel=2 control=92 value=0 time=0
EXTRACT: control_change channel=3 control=92 value=0 time=0
EXTRACT: control_change channel=2 control=95 value=0 time=0
EXTRACT: control_change channel=3 control=95 value=0 time=0
EXTRACT: note_on channel=2 note=39 velocity=95 time=0
EXTRACT: control_change channel=9 control=100 value=0 time=0
EXTRACT: control_change channel=9 control=101 value=0 time=0
EXTRACT: control_change channel=9 control=6 value=12 time=0
EXTRACT: pitchwheel channel=9 pitch=0 time=0
EXTRACT: program_change channel=9 program=0 time=0
EXTRACT: control_change channel=9 control=7 value=48 time=0
EXTRACT: control_change channel=9 control=10 value=64 time=0
EXTRACT: control_change channel=9 control=93 value=0 time=0
EXTRACT: control_change channel=9 control=91 value=0 time=0
EXTRACT: control_change channel=9 control=92 value=0 time=0
EXTRACT: control_change channel=9 control=95 value=0 time=0
EXTRACT: note_off channel=0 note=86 velocity=0 time=0
EXTRACT: note_off channel=0 note=91 velocity=0 time=0.0009124083333333332
EXTRACT: note_off channel=0 note=84 velocity=0 time=0.0009124083333333332
EXTRACT: note_off channel=0 note=77 velocity=0 time=0.0009124083333333332
EXTRACT: note_off channel=0 note=84 velocity=0 time=0.0009124083333333332
EXTRACT: note_off channel=0 note=74 velocity=0 time=0.0009124083333333332
EXTRACT: note_off channel=0 note=83 velocity=0 time=0.0009124083333333332
EXTRACT: note_off channel=0 note=81 velocity=0 time=0.0009124083333333332
EXTRACT: note_off channel=0 note=79 velocity=0 time=0.0009124083333333332
EXTRACT: note_off channel=0 note=81 velocity=0 time=0.0009124083333333332
EXTRACT: note_off channel=0 note=71 velocity=0 time=0.0009124083333333332
EXTRACT: note_off channel=0 note=74 velocity=0 time=0.0009124083333333332
EXTRACT: note_off channel=0 note=84 velocity=0 time=0.0009124083333333332
EXTRACT: note_off channel=0 note=71 velocity=0 time=0.0009124083333333332
EXTRACT: note_off channel=0 note=77 velocity=0 time=0.0009124083333333332
EXTRACT: note_off channel=0 note=84 velocity=0 time=0.0009124083333333332
EXTRACT: note_off channel=0 note=86 velocity=0 time=0.21076632499999998
EXTRACT: note_off channel=0 note=91 velocity=0 time=0.15967145833333332
EXTRACT: note_off channel=0 note=84 velocity=0 time=0.050182458333333325
EXTRACT: note_off channel=0 note=77 velocity=0 time=0.06021894999999999
EXTRACT: note_off channel=0 note=84 velocity=0 time=0.12682475833333332
EXTRACT: note_off channel=0 note=74 velocity=0 time=0.15875904999999998
EXTRACT: note_off channel=0 note=83 velocity=0 time=0.054744499999999995
EXTRACT: note_off channel=0 note=81 velocity=0 time=0.11131381666666665
EXTRACT: note_off channel=0 note=79 velocity=0 time=0.09671528333333332
EXTRACT: note_off channel=0 note=81 velocity=0 time=0.12317512499999998
EXTRACT: note_off channel=0 note=71 velocity=0 time=0.04653282499999999
EXTRACT: note_off channel=0 note=74 velocity=0 time=0.055656908333333324
EXTRACT: note_off channel=0 note=84 velocity=0 time=0.06934303333333333
EXTRACT: note_off channel=0 note=71 velocity=0 time=0.07755470833333332
EXTRACT: note_off channel=0 note=77 velocity=0 time=0.095802875
EXTRACT: note_off channel=2 note=39 velocity=80 time=0.0218978
EXTRACT: note_on channel=2 note=39 velocity=95 time=0
EXTRACT: note_off channel=0 note=84 velocity=0 time=0.06751821666666666
EXTRACT: note_off channel=0 note=67 velocity=80 time=0.15145978333333332
EXTRACT: note_off channel=0 note=63 velocity=80 time=0
EXTRACT: note_off channel=0 note=58 velocity=80 time=0
EXTRACT: note_off channel=0 note=55 velocity=80 time=0
EXTRACT: note_off channel=0 note=51 velocity=80 time=0
EXTRACT: note_on channel=0 note=67 velocity=95 time=0
EXTRACT: note_on channel=0 note=62 velocity=95 time=0
EXTRACT: note_on channel=0 note=58 velocity=95 time=0
EXTRACT: note_on channel=0 note=55 velocity=95 time=0
EXTRACT: note_on channel=0 note=51 velocity=95 time=0
EXTRACT: note_off channel=2 note=39 velocity=80 time=0
EXTRACT: note_on channel=2 note=43 velocity=95 time=0
EXTRACT: note_off channel=2 note=43 velocity=80 time=0.8759119999999999
EXTRACT: note_on channel=2 note=46 velocity=95 time=0
EXTRACT: note_off channel=0 note=67 velocity=80 time=0.8759119999999999
EXTRACT: note_off channel=0 note=62 velocity=80 time=0
EXTRACT: note_off channel=0 note=58 velocity=80 time=0
EXTRACT: note_off channel=0 note=55 velocity=80 time=0
EXTRACT: note_off channel=0 note=51 velocity=80 time=0
EXTRACT: note_on channel=0 note=67 velocity=95 time=0
EXTRACT: note_on channel=0 note=63 velocity=95 time=0
EXTRACT: note_on channel=0 note=60 velocity=95 time=0
EXTRACT: note_on channel=0 note=55 velocity=95 time=0
EXTRACT: note_on channel=0 note=48 velocity=95 time=0
EXTRACT: note_off channel=2 note=46 velocity=80 time=0
EXTRACT: note_on channel=2 note=48 velocity=95 time=0
EXTRACT: note_off channel=0 note=67 velocity=80 time=1.7518239999999998
EXTRACT: note_off channel=0 note=63 velocity=80 time=0
EXTRACT: note_off channel=0 note=60 velocity=80 time=0
EXTRACT: note_off channel=0 note=55 velocity=80 time=0
EXTRACT: note_off channel=0 note=48 velocity=80 time=0
EXTRACT: note_on channel=0 note=67 velocity=95 time=0
EXTRACT: note_on channel=0 note=63 velocity=95 time=0
EXTRACT: note_on channel=0 note=58 velocity=95 time=0
EXTRACT: note_on channel=0 note=53 velocity=95 time=0
EXTRACT: note_on channel=0 note=50 velocity=95 time=0
EXTRACT: note_on channel=0 note=46 velocity=95 time=0
EXTRACT: note_off channel=2 note=48 velocity=80 time=0
EXTRACT: note_on channel=2 note=46 velocity=95 time=0
EXTRACT: note_off channel=0 note=67 velocity=80 time=1.7518239999999998
EXTRACT: note_off channel=0 note=63 velocity=80 time=0
EXTRACT: note_off channel=0 note=58 velocity=80 time=0
EXTRACT: note_off channel=0 note=53 velocity=80 time=0
EXTRACT: note_off channel=0 note=50 velocity=80 time=0
EXTRACT: note_off channel=0 note=46 velocity=80 time=0
EXTRACT: note_on channel=0 note=67 velocity=95 time=0
EXTRACT: note_on channel=0 note=63 velocity=95 time=0
EXTRACT: note_on channel=0 note=58 velocity=95 time=0
EXTRACT: note_on channel=0 note=55 velocity=95 time=0
EXTRACT: note_on channel=0 note=51 velocity=95 time=0
EXTRACT: note_off channel=2 note=46 velocity=80 time=0
EXTRACT: note_on channel=2 note=39 velocity=95 time=0
EXTRACT: note_off channel=2 note=39 velocity=80 time=1.532846
EXTRACT: note_on channel=2 note=39 velocity=95 time=0
EXTRACT: note_off channel=0 note=67 velocity=80 time=0.21897799999999998
EXTRACT: note_off channel=0 note=63 velocity=80 time=0
EXTRACT: note_off channel=0 note=58 velocity=80 time=0
EXTRACT: note_off channel=0 note=55 velocity=80 time=0
EXTRACT: note_off channel=0 note=51 velocity=80 time=0
EXTRACT: note_on channel=0 note=67 velocity=95 time=0
EXTRACT: note_on channel=0 note=62 velocity=95 time=0
EXTRACT: note_on channel=0 note=58 velocity=95 time=0
EXTRACT: note_on channel=0 note=55 velocity=95 time=0
EXTRACT: note_on channel=0 note=51 velocity=95 time=0
EXTRACT: note_off channel=2 note=39 velocity=80 time=0
EXTRACT: note_on channel=2 note=43 velocity=95 time=0
EXTRACT: note_off channel=2 note=43 velocity=80 time=0.8759119999999999
EXTRACT: note_on channel=2 note=38 velocity=95 time=0
EXTRACT: note_off channel=0 note=67 velocity=80 time=0.8759119999999999
EXTRACT: note_off channel=0 note=62 velocity=80 time=0
EXTRACT: note_off channel=0 note=58 velocity=80 time=0
EXTRACT: note_off channel=0 note=55 velocity=80 time=0
EXTRACT: note_off channel=0 note=51 velocity=80 time=0
EXTRACT: note_on channel=0 note=67 velocity=95 time=0
EXTRACT: note_on channel=0 note=63 velocity=95 time=0
EXTRACT: note_on channel=0 note=60 velocity=95 time=0
EXTRACT: note_on channel=0 note=55 velocity=95 time=0
EXTRACT: note_on channel=0 note=48 velocity=95 time=0
EXTRACT: note_off channel=2 note=38 velocity=80 time=0
EXTRACT: note_on channel=2 note=36 velocity=95 time=0
EXTRACT: note_off channel=0 note=67 velocity=80 time=1.7518239999999998
EXTRACT: note_off channel=0 note=63 velocity=80 time=0
EXTRACT: note_off channel=0 note=60 velocity=80 time=0
EXTRACT: note_off channel=0 note=55 velocity=80 time=0
EXTRACT: note_off channel=0 note=48 velocity=80 time=0
EXTRACT: note_on channel=0 note=67 velocity=95 time=0
EXTRACT: note_on channel=0 note=63 velocity=95 time=0
EXTRACT: note_on channel=0 note=58 velocity=95 time=0
EXTRACT: note_on channel=0 note=53 velocity=95 time=0
EXTRACT: note_on channel=0 note=50 velocity=95 time=0
EXTRACT: note_on channel=0 note=46 velocity=95 time=0
EXTRACT: note_off channel=2 note=36 velocity=80 time=0
EXTRACT: note_on channel=2 note=34 velocity=95 time=0
EXTRACT: note_on channel=6 note=75 velocity=95 time=1.3138679999999998
EXTRACT: note_off channel=6 note=75 velocity=80 time=0.21897799999999998
EXTRACT: note_on channel=6 note=79 velocity=95 time=0
EXTRACT: note_off channel=6 note=79 velocity=80 time=0.21897799999999998
EXTRACT: note_on channel=6 note=82 velocity=95 time=0
EXTRACT: note_off channel=0 note=67 velocity=80 time=0
EXTRACT: note_off channel=0 note=63 velocity=80 time=0
EXTRACT: note_off channel=0 note=58 velocity=80 time=0
EXTRACT: note_off channel=0 note=53 velocity=80 time=0
EXTRACT: note_off channel=0 note=50 velocity=80 time=0
EXTRACT: note_off channel=0 note=46 velocity=80 time=0
EXTRACT: note_on channel=0 note=67 velocity=95 time=0
EXTRACT: note_on channel=0 note=63 velocity=95 time=0
EXTRACT: note_on channel=0 note=58 velocity=95 time=0
EXTRACT: note_on channel=0 note=55 velocity=95 time=0
EXTRACT: note_on channel=0 note=51 velocity=95 time=0
EXTRACT: note_off channel=2 note=34 velocity=80 time=0
EXTRACT: note_on channel=2 note=39 velocity=95 time=0
EXTRACT: note_off channel=6 note=82 velocity=80 time=0.43795599999999996
EXTRACT: note_on channel=6 note=82 velocity=95 time=0
EXTRACT: note_off channel=6 note=82 velocity=80 time=0.21897799999999998
EXTRACT: note_on channel=6 note=79 velocity=95 time=0
EXTRACT: note_off channel=6 note=79 velocity=80 time=0.6569339999999999
EXTRACT: note_on channel=6 note=75 velocity=95 time=0
EXTRACT: note_off channel=6 note=75 velocity=80 time=0.21897799999999998
EXTRACT: note_on channel=6 note=75 velocity=95 time=0
EXTRACT: note_off channel=2 note=39 velocity=80 time=0
EXTRACT: note_on channel=2 note=39 velocity=95 time=0
EXTRACT: note_off channel=6 note=75 velocity=80 time=0.21897799999999998
EXTRACT: note_on channel=6 note=74 velocity=95 time=0
EXTRACT: note_off channel=0 note=67 velocity=80 time=0
EXTRACT: note_off channel=0 note=63 velocity=80 time=0
EXTRACT: note_off channel=0 note=58 velocity=80 time=0
EXTRACT: note_off channel=0 note=55 velocity=80 time=0
EXTRACT: note_off channel=0 note=51 velocity=80 time=0
EXTRACT: note_on channel=0 note=67 velocity=95 time=0
EXTRACT: note_on channel=0 note=62 velocity=95 time=0
EXTRACT: note_on channel=0 note=58 velocity=95 time=0
EXTRACT: note_on channel=0 note=55 velocity=95 time=0
EXTRACT: note_on channel=0 note=51 velocity=95 time=0
EXTRACT: note_off channel=2 note=39 velocity=80 time=0
EXTRACT: note_on channel=2 note=43 velocity=95 time=0
EXTRACT: note_off channel=6 note=74 velocity=80 time=0.43795599999999996
EXTRACT: note_on channel=6 note=74 velocity=95 time=0
EXTRACT: note_off channel=6 note=74 velocity=80 time=0.21897799999999998
EXTRACT: note_on channel=7 note=74 velocity=95 time=0
EXTRACT: note_off channel=2 note=43 velocity=80 time=0.21897799999999998
EXTRACT: note_on channel=2 note=46 velocity=95 time=0
EXTRACT: pitchwheel channel=7 pitch=-640 time=0.32846699999999995
EXTRACT: pitchwheel channel=7 pitch=-1408 time=0.547445
EXTRACT: note_off channel=0 note=67 velocity=80 time=0
EXTRACT: note_off channel=0 note=62 velocity=80 time=0
EXTRACT: note_off channel=0 note=58 velocity=80 time=0
EXTRACT: note_off channel=0 note=55 velocity=80 time=0
EXTRACT: note_off channel=0 note=51 velocity=80 time=0
EXTRACT: note_on channel=0 note=67 velocity=95 time=0
EXTRACT: note_on channel=0 note=63 velocity=95 time=0
EXTRACT: note_on channel=0 note=60 velocity=95 time=0
EXTRACT: note_on channel=0 note=55 velocity=95 time=0
EXTRACT: note_on channel=0 note=48 velocity=95 time=0
EXTRACT: note_off channel=2 note=46 velocity=80 time=0
EXTRACT: note_on channel=2 note=48 velocity=95 time=0
EXTRACT: note_off channel=7 note=74 velocity=80 time=1.3138679999999998
EXTRACT: pitchwheel channel=7 pitch=0 time=0
EXTRACT: note_off channel=0 note=67 velocity=80 time=0.43795599999999996
EXTRACT: note_off channel=0 note=63 velocity=80 time=0
EXTRACT: note_off channel=0 note=60 velocity=80 time=0
EXTRACT: note_off channel=0 note=55 velocity=80 time=0
EXTRACT: note_off channel=0 note=48 velocity=80 time=0
EXTRACT: note_on channel=0 note=67 velocity=95 time=0
EXTRACT: note_on channel=0 note=63 velocity=95 time=0
EXTRACT: note_on channel=0 note=58 velocity=95 time=0
EXTRACT: note_on channel=0 note=53 velocity=95 time=0
EXTRACT: note_on channel=0 note=50 velocity=95 time=0
EXTRACT: note_on channel=0 note=46 velocity=95 time=0
EXTRACT: note_off channel=2 note=48 velocity=80 time=0
EXTRACT: note_on channel=2 note=46 velocity=95 time=0
EXTRACT: note_on channel=6 note=75 velocity=86 time=1.3138679999999998
EXTRACT: note_off channel=6 note=75 velocity=80 time=0.21897799999999998
EXTRACT: note_on channel=6 note=79 velocity=95 time=0
EXTRACT: note_off channel=6 note=79 velocity=80 time=0.21897799999999998
EXTRACT: note_on channel=6 note=82 velocity=95 time=0
EXTRACT: note_off channel=0 note=67 velocity=80 time=0
EXTRACT: note_off channel=0 note=63 velocity=80 time=0
EXTRACT: note_off channel=0 note=58 velocity=80 time=0
EXTRACT: note_off channel=0 note=53 velocity=80 time=0
EXTRACT: note_off channel=0 note=50 velocity=80 time=0
EXTRACT: note_off channel=0 note=46 velocity=80 time=0
EXTRACT: note_on channel=0 note=67 velocity=95 time=0
EXTRACT: note_on channel=0 note=63 velocity=95 time=0
EXTRACT: note_on channel=0 note=58 velocity=95 time=0
EXTRACT: note_on channel=0 note=55 velocity=95 time=0
EXTRACT: note_on channel=0 note=51 velocity=95 time=0
EXTRACT: note_off channel=2 note=46 velocity=80 time=0
EXTRACT: note_on channel=2 note=39 velocity=95 time=0
EXTRACT: note_off channel=6 note=82 velocity=80 time=0.43795599999999996
EXTRACT: note_on channel=6 note=82 velocity=95 time=0
EXTRACT: note_off channel=6 note=82 velocity=80 time=0.21897799999999998
EXTRACT: note_on channel=6 note=82 velocity=95 time=0
EXTRACT: note_off channel=6 note=82 velocity=80 time=0.21897799999999998
EXTRACT: note_on channel=6 note=79 velocity=95 time=0
EXTRACT: note_off channel=6 note=79 velocity=80 time=0.43795599999999996
EXTRACT: note_on channel=6 note=75 velocity=95 time=0
EXTRACT: note_off channel=6 note=75 velocity=80 time=0.21897799999999998
EXTRACT: note_on channel=6 note=75 velocity=95 time=0
EXTRACT: note_off channel=2 note=39 velocity=80 time=0
EXTRACT: note_on channel=2 note=39 velocity=95 time=0
EXTRACT: note_off channel=6 note=75 velocity=80 time=0.21897799999999998
EXTRACT: note_on channel=6 note=74 velocity=95 time=0
EXTRACT: note_off channel=0 note=67 velocity=80 time=0
EXTRACT: note_off channel=0 note=63 velocity=80 time=0
EXTRACT: note_off channel=0 note=58 velocity=80 time=0
EXTRACT: note_off channel=0 note=55 velocity=80 time=0
EXTRACT: note_off channel=0 note=51 velocity=80 time=0
EXTRACT: note_on channel=0 note=67 velocity=95 time=0
EXTRACT: note_on channel=0 note=62 velocity=95 time=0
EXTRACT: note_on channel=0 note=58 velocity=95 time=0
EXTRACT: note_on channel=0 note=55 velocity=95 time=0
EXTRACT: note_on channel=0 note=51 velocity=95 time=0
EXTRACT: note_off channel=2 note=39 velocity=80 time=0
EXTRACT: note_on channel=2 note=43 velocity=95 time=0
EXTRACT: note_off channel=6 note=74 velocity=80 time=0.43795599999999996
EXTRACT: note_on channel=6 note=74 velocity=95 time=0
EXTRACT: note_off channel=6 note=74 velocity=80 time=0.21897799999999998
EXTRACT: note_on channel=7 note=74 velocity=95 time=0
EXTRACT: note_off channel=2 note=43 velocity=80 time=0.21897799999999998
EXTRACT: note_on channel=2 note=38 velocity=95 time=0
EXTRACT: pitchwheel channel=7 pitch=-640 time=0.32846699999999995
EXTRACT: pitchwheel channel=7 pitch=-1408 time=0.547445
EXTRACT: note_off channel=0 note=67 velocity=80 time=0
EXTRACT: note_off channel=0 note=62 velocity=80 time=0
EXTRACT: note_off channel=0 note=58 velocity=80 time=0
EXTRACT: note_off channel=0 note=55 velocity=80 time=0
EXTRACT: note_off channel=0 note=51 velocity=80 time=0
EXTRACT: note_on channel=0 note=67 velocity=95 time=0
EXTRACT: note_on channel=0 note=63 velocity=95 time=0
EXTRACT: note_on channel=0 note=60 velocity=95 time=0
EXTRACT: note_on channel=0 note=55 velocity=95 time=0
EXTRACT: note_on channel=0 note=48 velocity=95 time=0
EXTRACT: note_off channel=2 note=38 velocity=80 time=0
EXTRACT: note_on channel=2 note=36 velocity=95 time=0
EXTRACT: note_off channel=7 note=74 velocity=80 time=1.3138679999999998
EXTRACT: pitchwheel channel=7 pitch=0 time=0
EXTRACT: note_off channel=0 note=67 velocity=80 time=0.43795599999999996
EXTRACT: note_off channel=0 note=63 velocity=80 time=0
EXTRACT: note_off channel=0 note=60 velocity=80 time=0
EXTRACT: note_off channel=0 note=55 velocity=80 time=0
EXTRACT: note_off channel=0 note=48 velocity=80 time=0
EXTRACT: note_on channel=0 note=67 velocity=95 time=0
EXTRACT: note_on channel=0 note=63 velocity=95 time=0
EXTRACT: note_on channel=0 note=58 velocity=95 time=0
EXTRACT: note_on channel=0 note=53 velocity=95 time=0
EXTRACT: note_on channel=0 note=50 velocity=95 time=0
EXTRACT: note_on channel=0 note=46 velocity=95 time=0
EXTRACT: note_off channel=2 note=36 velocity=80 time=0
EXTRACT: note_on channel=2 note=34 velocity=95 time=0
EXTRACT: note_on channel=6 note=75 velocity=86 time=1.3138679999999998
EXTRACT: note_off channel=6 note=75 velocity=80 time=0.21897799999999998
EXTRACT: note_on channel=6 note=79 velocity=95 time=0
EXTRACT: note_off channel=6 note=79 velocity=80 time=0.21897799999999998
EXTRACT: note_on channel=6 note=82 velocity=95 time=0
EXTRACT: note_off channel=0 note=67 velocity=80 time=0
EXTRACT: note_off channel=0 note=63 velocity=80 time=0
EXTRACT: note_off channel=0 note=58 velocity=80 time=0
EXTRACT: note_off channel=0 note=53 velocity=80 time=0
EXTRACT: note_off channel=0 note=50 velocity=80 time=0
EXTRACT: note_off channel=0 note=46 velocity=80 time=0
EXTRACT: note_on channel=0 note=67 velocity=95 time=0
EXTRACT: note_on channel=0 note=63 velocity=95 time=0
EXTRACT: note_on channel=0 note=58 velocity=95 time=0
EXTRACT: note_on channel=0 note=55 velocity=95 time=0
EXTRACT: note_on channel=0 note=51 velocity=95 time=0
EXTRACT: note_off channel=2 note=34 velocity=80 time=0
EXTRACT: note_on channel=2 note=39 velocity=95 time=0
EXTRACT: note_off channel=6 note=82 velocity=80 time=0.43795599999999996
EXTRACT: note_on channel=6 note=82 velocity=95 time=0
EXTRACT: note_off channel=6 note=82 velocity=80 time=0.21897799999999998
EXTRACT: note_on channel=6 note=79 velocity=95 time=0
EXTRACT: note_off channel=6 note=79 velocity=80 time=0.6569339999999999
EXTRACT: note_on channel=6 note=75 velocity=95 time=0
EXTRACT: note_off channel=2 note=39 velocity=80 time=0.21897799999999998
EXTRACT: note_on channel=2 note=39 velocity=95 time=0
EXTRACT: note_off channel=6 note=75 velocity=80 time=0.21897799999999998
EXTRACT: note_on channel=6 note=74 velocity=95 time=0
EXTRACT: note_off channel=0 note=67 velocity=80 time=0
EXTRACT: note_off channel=0 note=63 velocity=80 time=0
EXTRACT: note_off channel=0 note=58 velocity=80 time=0
EXTRACT: note_off channel=0 note=55 velocity=80 time=0
EXTRACT: note_off channel=0 note=51 velocity=80 time=0
EXTRACT: note_on channel=0 note=67 velocity=95 time=0
EXTRACT: note_on channel=0 note=62 velocity=95 time=0
EXTRACT: note_on channel=0 note=58 velocity=95 time=0
EXTRACT: note_on channel=0 note=55 velocity=95 time=0
EXTRACT: note_on channel=0 note=51 velocity=95 time=0
EXTRACT: note_off channel=2 note=39 velocity=80 time=0
EXTRACT: note_on channel=2 note=43 velocity=95 time=0
EXTRACT: note_off channel=6 note=74 velocity=80 time=0.43795599999999996
EXTRACT: note_on channel=6 note=74 velocity=95 time=0
EXTRACT: note_off channel=6 note=74 velocity=80 time=0.21897799999999998
EXTRACT: note_on channel=7 note=74 velocity=95 time=0
EXTRACT: note_off channel=2 note=43 velocity=80 time=0.21897799999999998
EXTRACT: note_on channel=2 note=46 velocity=95 time=0
EXTRACT: pitchwheel channel=7 pitch=-640 time=0.32846699999999995
EXTRACT: pitchwheel channel=7 pitch=-1408 time=0.547445
EXTRACT: note_off channel=0 note=67 velocity=80 time=0
EXTRACT: note_off channel=0 note=62 velocity=80 time=0
EXTRACT: note_off channel=0 note=58 velocity=80 time=0
EXTRACT: note_off channel=0 note=55 velocity=80 time=0
EXTRACT: note_off channel=0 note=51 velocity=80 time=0
EXTRACT: note_on channel=0 note=67 velocity=95 time=0
EXTRACT: note_on channel=0 note=63 velocity=95 time=0
EXTRACT: note_on channel=0 note=60 velocity=95 time=0
EXTRACT: note_on channel=0 note=55 velocity=95 time=0
EXTRACT: note_on channel=0 note=48 velocity=95 time=0
EXTRACT: note_off channel=2 note=46 velocity=80 time=0
EXTRACT: note_on channel=2 note=48 velocity=95 time=0
EXTRACT: note_off channel=7 note=74 velocity=80 time=1.3138679999999998
EXTRACT: pitchwheel channel=7 pitch=0 time=0
EXTRACT: note_off channel=0 note=67 velocity=80 time=0.43795599999999996
EXTRACT: note_off channel=0 note=63 velocity=80 time=0
EXTRACT: note_off channel=0 note=60 velocity=80 time=0
EXTRACT: note_off channel=0 note=55 velocity=80 time=0
EXTRACT: note_off channel=0 note=48 velocity=80 time=0
EXTRACT: note_on channel=0 note=67 velocity=95 time=0
EXTRACT: note_on channel=0 note=63 velocity=95 time=0
EXTRACT: note_on channel=0 note=58 velocity=95 time=0
EXTRACT: note_on channel=0 note=53 velocity=95 time=0
EXTRACT: note_on channel=0 note=50 velocity=95 time=0
EXTRACT: note_on channel=0 note=46 velocity=95 time=0
EXTRACT: note_off channel=2 note=48 velocity=80 time=0
EXTRACT: note_on channel=2 note=46 velocity=95 time=0
EXTRACT: note_on channel=6 note=74 velocity=86 time=0.43795599999999996
EXTRACT: note_off channel=6 note=74 velocity=80 time=0.43795599999999996
EXTRACT: note_on channel=6 note=79 velocity=95 time=0
EXTRACT: note_off channel=6 note=79 velocity=80 time=0.43795599999999996
EXTRACT: note_on channel=6 note=82 velocity=95 time=0
EXTRACT: note_off channel=6 note=82 velocity=80 time=0.43795599999999996
EXTRACT: note_on channel=6 note=82 velocity=95 time=0
EXTRACT: note_off channel=0 note=67 velocity=80 time=0
EXTRACT: note_off channel=0 note=63 velocity=80 time=0
EXTRACT: note_off channel=0 note=58 velocity=80 time=0
EXTRACT: note_off channel=0 note=53 velocity=80 time=0
EXTRACT: note_off channel=0 note=50 velocity=80 time=0
EXTRACT: note_off channel=0 note=46 velocity=80 time=0
EXTRACT: note_on channel=0 note=67 velocity=95 time=0
EXTRACT: note_on channel=0 note=63 velocity=95 time=0
EXTRACT: note_on channel=0 note=58 velocity=95 time=0
EXTRACT: note_on channel=0 note=55 velocity=95 time=0
EXTRACT: note_on channel=0 note=51 velocity=95 time=0
EXTRACT: note_off channel=2 note=46 velocity=80 time=0
EXTRACT: note_on channel=2 note=39 velocity=95 time=0
EXTRACT: note_off channel=2 note=39 velocity=80 time=1.532846
EXTRACT: note_on channel=2 note=39 velocity=95 time=0
EXTRACT: note_off channel=6 note=82 velocity=80 time=0.21897799999999998
EXTRACT: note_on channel=6 note=79 velocity=95 time=0
EXTRACT: note_off channel=0 note=67 velocity=80 time=0
EXTRACT: note_off channel=0 note=63 velocity=80 time=0
EXTRACT: note_off channel=0 note=58 velocity=80 time=0
EXTRACT: note_off channel=0 note=55 velocity=80 time=0
EXTRACT: note_off channel=0 note=51 velocity=80 time=0
EXTRACT: note_on channel=0 note=67 velocity=95 time=0
EXTRACT: note_on channel=0 note=62 velocity=95 time=0
EXTRACT: note_on channel=0 note=58 velocity=95 time=0
EXTRACT: note_on channel=0 note=55 velocity=95 time=0
EXTRACT: note_on channel=0 note=51 velocity=95 time=0
EXTRACT: note_off channel=2 note=39 velocity=80 time=0
EXTRACT: note_on channel=2 note=43 velocity=95 time=0
EXTRACT: note_off channel=2 note=43 velocity=80 time=0.8759119999999999
EXTRACT: note_on channel=2 note=38 velocity=95 time=0
EXTRACT: note_off channel=0 note=67 velocity=80 time=0.8759119999999999
EXTRACT: note_off channel=0 note=62 velocity=80 time=0
EXTRACT: note_off channel=0 note=58 velocity=80 time=0
EXTRACT: note_off channel=0 note=55 velocity=80 time=0
EXTRACT: note_off channel=0 note=51 velocity=80 time=0
EXTRACT: note_on channel=0 note=67 velocity=95 time=0
EXTRACT: note_on channel=0 note=63 velocity=95 time=0
EXTRACT: note_on channel=0 note=60 velocity=95 time=0
EXTRACT: note_on channel=0 note=55 velocity=95 time=0
EXTRACT: note_on channel=0 note=48 velocity=95 time=0
EXTRACT: note_off channel=2 note=38 velocity=80 time=0
EXTRACT: note_on channel=2 note=36 velocity=95 time=0
EXTRACT: note_off channel=6 note=79 velocity=80 time=1.7518239999999998
EXTRACT: note_off channel=0 note=67 velocity=80 time=0
EXTRACT: note_off channel=0 note=63 velocity=80 time=0
EXTRACT: note_off channel=0 note=60 velocity=80 time=0
EXTRACT: note_off channel=0 note=55 velocity=80 time=0
EXTRACT: note_off channel=0 note=48 velocity=80 time=0
EXTRACT: note_on channel=0 note=67 velocity=95 time=0
EXTRACT: note_on channel=0 note=63 velocity=95 time=0
EXTRACT: note_on channel=0 note=58 velocity=95 time=0
EXTRACT: note_on channel=0 note=53 velocity=95 time=0
EXTRACT: note_on channel=0 note=50 velocity=95 time=0
EXTRACT: note_on channel=0 note=46 velocity=95 time=0
EXTRACT: note_off channel=2 note=36 velocity=80 time=0
EXTRACT: note_on channel=2 note=34 velocity=95 time=0
EXTRACT: note_on channel=6 note=75 velocity=95 time=1.3138679999999998
EXTRACT: note_off channel=6 note=75 velocity=80 time=0.21897799999999998
EXTRACT: note_on channel=6 note=79 velocity=95 time=0
EXTRACT: note_off channel=6 note=79 velocity=80 time=0.21897799999999998
EXTRACT: note_on channel=6 note=82 velocity=95 time=0
EXTRACT: note_off channel=0 note=67 velocity=80 time=0
EXTRACT: note_off channel=0 note=63 velocity=80 time=0
EXTRACT: note_off channel=0 note=58 velocity=80 time=0
EXTRACT: note_off channel=0 note=53 velocity=80 time=0
EXTRACT: note_off channel=0 note=50 velocity=80 time=0
EXTRACT: note_off channel=0 note=46 velocity=80 time=0
EXTRACT: note_on channel=0 note=67 velocity=95 time=0
EXTRACT: note_on channel=0 note=63 velocity=95 time=0
EXTRACT: note_on channel=0 note=58 velocity=95 time=0
EXTRACT: note_on channel=0 note=55 velocity=95 time=0
EXTRACT: note_on channel=0 note=51 velocity=95 time=0
EXTRACT: note_on channel=4 note=67 velocity=95 time=0
EXTRACT: note_on channel=4 note=63 velocity=95 time=0
EXTRACT: note_on channel=4 note=58 velocity=95 time=0
EXTRACT: note_on channel=4 note=55 velocity=95 time=0
EXTRACT: note_on channel=4 note=51 velocity=95 time=0
EXTRACT: note_off channel=2 note=34 velocity=80 time=0
EXTRACT: note_on channel=2 note=39 velocity=95 time=0
EXTRACT: note_off channel=6 note=82 velocity=80 time=0.43795599999999996
EXTRACT: note_on channel=6 note=82 velocity=95 time=0
EXTRACT: note_off channel=6 note=82 velocity=80 time=0.21897799999999998
EXTRACT: note_on channel=6 note=79 velocity=95 time=0
EXTRACT: note_off channel=6 note=79 velocity=80 time=0.6569339999999999
EXTRACT: note_on channel=6 note=75 velocity=95 time=0
EXTRACT: note_off channel=6 note=75 velocity=80 time=0.21897799999999998
EXTRACT: note_on channel=6 note=75 velocity=95 time=0
EXTRACT: note_off channel=2 note=39 velocity=80 time=0
EXTRACT: note_on channel=2 note=39 velocity=95 time=0
EXTRACT: note_off channel=6 note=75 velocity=80 time=0.21897799999999998
EXTRACT: note_on channel=6 note=74 velocity=95 time=0
EXTRACT: note_off channel=0 note=67 velocity=80 time=0
EXTRACT: note_off channel=0 note=63 velocity=80 time=0
EXTRACT: note_off channel=0 note=58 velocity=80 time=0
EXTRACT: note_off channel=0 note=55 velocity=80 time=0
EXTRACT: note_off channel=0 note=51 velocity=80 time=0
EXTRACT: note_on channel=0 note=67 velocity=95 time=0
EXTRACT: note_on channel=0 note=62 velocity=95 time=0
EXTRACT: note_on channel=0 note=58 velocity=95 time=0
EXTRACT: note_on channel=0 note=55 velocity=95 time=0
EXTRACT: note_on channel=0 note=51 velocity=95 time=0
EXTRACT: note_off channel=2 note=39 velocity=80 time=0
EXTRACT: note_on channel=2 note=43 velocity=95 time=0
EXTRACT: note_off channel=6 note=74 velocity=80 time=0.43795599999999996
EXTRACT: note_on channel=6 note=74 velocity=95 time=0
EXTRACT: note_off channel=6 note=74 velocity=80 time=0.21897799999999998
EXTRACT: note_on channel=7 note=74 velocity=95 time=0
EXTRACT: note_off channel=2 note=43 velocity=80 time=0.21897799999999998
EXTRACT: note_on channel=2 note=46 velocity=95 time=0
EXTRACT: pitchwheel channel=7 pitch=-640 time=0.32846699999999995
EXTRACT: pitchwheel channel=7 pitch=-1408 time=0.547445
EXTRACT: note_off channel=0 note=67 velocity=80 time=0
EXTRACT: note_off channel=0 note=62 velocity=80 time=0
EXTRACT: note_off channel=0 note=58 velocity=80 time=0
EXTRACT: note_off channel=0 note=55 velocity=80 time=0
EXTRACT: note_off channel=0 note=51 velocity=80 time=0
EXTRACT: note_on channel=0 note=67 velocity=95 time=0
EXTRACT: note_on channel=0 note=63 velocity=95 time=0
EXTRACT: note_on channel=0 note=60 velocity=95 time=0
EXTRACT: note_on channel=0 note=55 velocity=95 time=0
EXTRACT: note_on channel=0 note=48 velocity=95 time=0
EXTRACT: note_off channel=4 note=67 velocity=80 time=0
EXTRACT: note_off channel=4 note=63 velocity=80 time=0
EXTRACT: note_off channel=4 note=58 velocity=80 time=0
EXTRACT: note_off channel=4 note=55 velocity=80 time=0
EXTRACT: note_off channel=4 note=51 velocity=80 time=0
EXTRACT: note_on channel=4 note=67 velocity=95 time=0
EXTRACT: note_on channel=4 note=63 velocity=95 time=0
EXTRACT: note_on channel=4 note=60 velocity=95 time=0
EXTRACT: note_on channel=4 note=55 velocity=95 time=0
EXTRACT: note_on channel=4 note=48 velocity=95 time=0
EXTRACT: note_off channel=2 note=46 velocity=80 time=0
EXTRACT: note_on channel=2 note=48 velocity=95 time=0
EXTRACT: note_off channel=7 note=74 velocity=80 time=1.3138679999999998
EXTRACT: pitchwheel channel=7 pitch=0 time=0
EXTRACT: note_off channel=0 note=67 velocity=80 time=0.43795599999999996
EXTRACT: note_off channel=0 note=63 velocity=80 time=0
EXTRACT: note_off channel=0 note=60 velocity=80 time=0
EXTRACT: note_off channel=0 note=55 velocity=80 time=0
EXTRACT: note_off channel=0 note=48 velocity=80 time=0
EXTRACT: note_on channel=0 note=67 velocity=95 time=0
EXTRACT: note_on channel=0 note=63 velocity=95 time=0
EXTRACT: note_on channel=0 note=58 velocity=95 time=0
EXTRACT: note_on channel=0 note=53 velocity=95 time=0
EXTRACT: note_on channel=0 note=50 velocity=95 time=0
EXTRACT: note_on channel=0 note=46 velocity=95 time=0
EXTRACT: note_off channel=4 note=67 velocity=80 time=0
EXTRACT: note_off channel=4 note=63 velocity=80 time=0
EXTRACT: note_off channel=4 note=60 velocity=80 time=0
EXTRACT: note_off channel=4 note=55 velocity=80 time=0
EXTRACT: note_off channel=4 note=48 velocity=80 time=0
EXTRACT: note_on channel=4 note=70 velocity=95 time=0
EXTRACT: note_on channel=4 note=63 velocity=95 time=0
EXTRACT: note_on channel=4 note=58 velocity=95 time=0
EXTRACT: note_on channel=4 note=53 velocity=95 time=0
EXTRACT: note_on channel=4 note=50 velocity=95 time=0
EXTRACT: note_on channel=4 note=46 velocity=95 time=0
EXTRACT: note_off channel=2 note=48 velocity=80 time=0
EXTRACT: note_on channel=2 note=46 velocity=95 time=0
EXTRACT: note_on channel=6 note=75 velocity=86 time=1.3138679999999998
EXTRACT: note_off channel=6 note=75 velocity=80 time=0.21897799999999998
EXTRACT: note_on channel=6 note=79 velocity=95 time=0
EXTRACT: note_off channel=6 note=79 velocity=80 time=0.21897799999999998
EXTRACT: note_on channel=6 note=82 velocity=95 time=0
EXTRACT: note_off channel=0 note=67 velocity=80 time=0
EXTRACT: note_off channel=0 note=63 velocity=80 time=0
EXTRACT: note_off channel=0 note=58 velocity=80 time=0
EXTRACT: note_off channel=0 note=53 velocity=80 time=0
EXTRACT: note_off channel=0 note=50 velocity=80 time=0
EXTRACT: note_off channel=0 note=46 velocity=80 time=0
EXTRACT: note_on channel=0 note=67 velocity=95 time=0
EXTRACT: note_on channel=0 note=63 velocity=95 time=0
EXTRACT: note_on channel=0 note=58 velocity=95 time=0
EXTRACT: note_on channel=0 note=55 velocity=95 time=0
EXTRACT: note_on channel=0 note=51 velocity=95 time=0
EXTRACT: note_off channel=4 note=70 velocity=80 time=0
EXTRACT: note_off channel=4 note=63 velocity=80 time=0
EXTRACT: note_off channel=4 note=58 velocity=80 time=0
EXTRACT: note_off channel=4 note=53 velocity=80 time=0
EXTRACT: note_off channel=4 note=50 velocity=80 time=0
EXTRACT: note_off channel=4 note=46 velocity=80 time=0
EXTRACT: note_on channel=4 note=67 velocity=95 time=0
EXTRACT: note_on channel=4 note=63 velocity=95 time=0
EXTRACT: note_on channel=4 note=58 velocity=95 time=0
EXTRACT: note_on channel=4 note=55 velocity=95 time=0
EXTRACT: note_on channel=4 note=51 velocity=95 time=0
EXTRACT: note_off channel=2 note=46 velocity=80 time=0
EXTRACT: note_on channel=2 note=39 velocity=95 time=0
EXTRACT: note_off channel=6 note=82 velocity=80 time=0.43795599999999996
EXTRACT: note_on channel=6 note=82 velocity=95 time=0
EXTRACT: note_off channel=6 note=82 velocity=80 time=0.21897799999999998
EXTRACT: note_on channel=6 note=79 velocity=95 time=0
EXTRACT: note_off channel=6 note=79 velocity=80 time=0.6569339999999999
EXTRACT: note_on channel=6 note=75 velocity=95 time=0
EXTRACT: note_off channel=2 note=39 velocity=80 time=0.21897799999999998
EXTRACT: note_on channel=2 note=39 velocity=95 time=0
EXTRACT: note_off channel=6 note=75 velocity=80 time=0.21897799999999998
EXTRACT: note_on channel=6 note=74 velocity=95 time=0
EXTRACT: note_off channel=0 note=67 velocity=80 time=0
EXTRACT: note_off channel=0 note=63 velocity=80 time=0
EXTRACT: note_off channel=0 note=58 velocity=80 time=0
EXTRACT: note_off channel=0 note=55 velocity=80 time=0
EXTRACT: note_off channel=0 note=51 velocity=80 time=0
EXTRACT: note_on channel=0 note=67 velocity=95 time=0
EXTRACT: note_on channel=0 note=62 velocity=95 time=0
EXTRACT: note_on channel=0 note=58 velocity=95 time=0
EXTRACT: note_on channel=0 note=55 velocity=95 time=0
EXTRACT: note_on channel=0 note=51 velocity=95 time=0
EXTRACT: note_off channel=2 note=39 velocity=80 time=0
EXTRACT: note_on channel=2 note=43 velocity=95 time=0
EXTRACT: note_off channel=6 note=74 velocity=80 time=0.43795599999999996
EXTRACT: note_on channel=6 note=74 velocity=95 time=0
EXTRACT: note_off channel=6 note=74 velocity=80 time=0.21897799999999998
EXTRACT: note_on channel=7 note=74 velocity=95 time=0
EXTRACT: note_off channel=2 note=43 velocity=80 time=0.21897799999999998
EXTRACT: note_on channel=2 note=38 velocity=95 time=0
EXTRACT: pitchwheel channel=7 pitch=-640 time=0.32846699999999995
EXTRACT: pitchwheel channel=7 pitch=-1408 time=0.547445
EXTRACT: note_off channel=0 note=67 velocity=80 time=0
EXTRACT: note_off channel=0 note=62 velocity=80 time=0
EXTRACT: note_off channel=0 note=58 velocity=80 time=0
EXTRACT: note_off channel=0 note=55 velocity=80 time=0
EXTRACT: note_off channel=0 note=51 velocity=80 time=0
EXTRACT: note_on channel=0 note=67 velocity=95 time=0
EXTRACT: note_on channel=0 note=63 velocity=95 time=0
EXTRACT: note_on channel=0 note=60 velocity=95 time=0
EXTRACT: note_on channel=0 note=55 velocity=95 time=0
EXTRACT: note_on channel=0 note=48 velocity=95 time=0
EXTRACT: note_off channel=4 note=67 velocity=80 time=0
EXTRACT: note_off channel=4 note=63 velocity=80 time=0
EXTRACT: note_off channel=4 note=58 velocity=80 time=0
EXTRACT: note_off channel=4 note=55 velocity=80 time=0
EXTRACT: note_off channel=4 note=51 velocity=80 time=0
EXTRACT: note_on channel=4 note=67 velocity=95 time=0
EXTRACT: note_on channel=4 note=63 velocity=95 time=0
EXTRACT: note_on channel=4 note=60 velocity=95 time=0
EXTRACT: note_on channel=4 note=55 velocity=95 time=0
EXTRACT: note_on channel=4 note=48 velocity=95 time=0
EXTRACT: note_off channel=2 note=38 velocity=80 time=0
EXTRACT: note_on channel=2 note=36 velocity=95 time=0
EXTRACT: note_off channel=7 note=74 velocity=80 time=1.3138679999999998
EXTRACT: pitchwheel channel=7 pitch=0 time=0
EXTRACT: note_off channel=0 note=67 velocity=80 time=0.43795599999999996
EXTRACT: note_off channel=0 note=63 velocity=80 time=0
EXTRACT: note_off channel=0 note=60 velocity=80 time=0
EXTRACT: note_off channel=0 note=55 velocity=80 time=0
EXTRACT: note_off channel=0 note=48 velocity=80 time=0
EXTRACT: note_on channel=0 note=67 velocity=95 time=0
EXTRACT: note_on channel=0 note=63 velocity=95 time=0
EXTRACT: note_on channel=0 note=58 velocity=95 time=0
EXTRACT: note_on channel=0 note=53 velocity=95 time=0
EXTRACT: note_on channel=0 note=50 velocity=95 time=0
EXTRACT: note_on channel=0 note=46 velocity=95 time=0
EXTRACT: note_off channel=4 note=67 velocity=80 time=0
EXTRACT: note_off channel=4 note=63 velocity=80 time=0
EXTRACT: note_off channel=4 note=60 velocity=80 time=0
EXTRACT: note_off channel=4 note=55 velocity=80 time=0
EXTRACT: note_off channel=4 note=48 velocity=80 time=0
EXTRACT: note_on channel=4 note=70 velocity=95 time=0
EXTRACT: note_on channel=4 note=63 velocity=95 time=0
EXTRACT: note_on channel=4 note=58 velocity=95 time=0
EXTRACT: note_on channel=4 note=53 velocity=95 time=0
EXTRACT: note_on channel=4 note=50 velocity=95 time=0
EXTRACT: note_on channel=4 note=46 velocity=95 time=0
EXTRACT: note_off channel=2 note=36 velocity=80 time=0
EXTRACT: note_on channel=2 note=34 velocity=95 time=0
EXTRACT: note_on channel=6 note=75 velocity=86 time=1.3138679999999998
EXTRACT: note_off channel=6 note=75 velocity=80 time=0.21897799999999998
EXTRACT: note_on channel=6 note=79 velocity=95 time=0
EXTRACT: note_off channel=6 note=79 velocity=80 time=0.21897799999999998
EXTRACT: note_on channel=6 note=82 velocity=95 time=0
EXTRACT: note_off channel=0 note=67 velocity=80 time=0
EXTRACT: note_off channel=0 note=63 velocity=80 time=0
EXTRACT: note_off channel=0 note=58 velocity=80 time=0
EXTRACT: note_off channel=0 note=53 velocity=80 time=0
EXTRACT: note_off channel=0 note=50 velocity=80 time=0
EXTRACT: note_off channel=0 note=46 velocity=80 time=0
EXTRACT: note_on channel=0 note=67 velocity=95 time=0
EXTRACT: note_on channel=0 note=63 velocity=95 time=0
EXTRACT: note_on channel=0 note=58 velocity=95 time=0
EXTRACT: note_on channel=0 note=55 velocity=95 time=0
EXTRACT: note_on channel=0 note=51 velocity=95 time=0
EXTRACT: note_off channel=4 note=70 velocity=80 time=0
EXTRACT: note_off channel=4 note=63 velocity=80 time=0
EXTRACT: note_off channel=4 note=58 velocity=80 time=0
EXTRACT: note_off channel=4 note=53 velocity=80 time=0
EXTRACT: note_off channel=4 note=50 velocity=80 time=0
EXTRACT: note_off channel=4 note=46 velocity=80 time=0
EXTRACT: note_on channel=4 note=67 velocity=95 time=0
EXTRACT: note_on channel=4 note=63 velocity=95 time=0
EXTRACT: note_on channel=4 note=58 velocity=95 time=0
EXTRACT: note_on channel=4 note=55 velocity=95 time=0
EXTRACT: note_on channel=4 note=51 velocity=95 time=0
EXTRACT: note_off channel=2 note=34 velocity=80 time=0
EXTRACT: note_on channel=2 note=39 velocity=95 time=0
EXTRACT: note_off channel=6 note=82 velocity=80 time=0.43795599999999996
EXTRACT: note_on channel=6 note=82 velocity=95 time=0
EXTRACT: note_off channel=6 note=82 velocity=80 time=0.21897799999999998
EXTRACT: note_on channel=6 note=79 velocity=95 time=0
EXTRACT: note_off channel=6 note=79 velocity=80 time=0.6569339999999999
EXTRACT: note_on channel=6 note=75 velocity=95 time=0
EXTRACT: note_off channel=6 note=75 velocity=80 time=0.21897799999999998
EXTRACT: note_on channel=6 note=75 velocity=95 time=0
EXTRACT: note_off channel=2 note=39 velocity=80 time=0
EXTRACT: note_on channel=2 note=39 velocity=95 time=0
EXTRACT: note_off channel=6 note=75 velocity=80 time=0.21897799999999998
EXTRACT: note_on channel=6 note=74 velocity=95 time=0
EXTRACT: note_off channel=0 note=67 velocity=80 time=0
EXTRACT: note_off channel=0 note=63 velocity=80 time=0
EXTRACT: note_off channel=0 note=58 velocity=80 time=0
EXTRACT: note_off channel=0 note=55 velocity=80 time=0
EXTRACT: note_off channel=0 note=51 velocity=80 time=0
EXTRACT: note_on channel=0 note=67 velocity=95 time=0
EXTRACT: note_on channel=0 note=62 velocity=95 time=0
EXTRACT: note_on channel=0 note=58 velocity=95 time=0
EXTRACT: note_on channel=0 note=55 velocity=95 time=0
EXTRACT: note_on channel=0 note=51 velocity=95 time=0
EXTRACT: note_off channel=2 note=39 velocity=80 time=0
EXTRACT: note_on channel=2 note=43 velocity=95 time=0
EXTRACT: note_off channel=6 note=74 velocity=80 time=0.43795599999999996
EXTRACT: note_on channel=6 note=74 velocity=95 time=0
EXTRACT: note_off channel=6 note=74 velocity=80 time=0.21897799999999998
EXTRACT: note_on channel=7 note=74 velocity=95 time=0
EXTRACT: note_off channel=2 note=43 velocity=80 time=0.21897799999999998
EXTRACT: note_on channel=2 note=46 velocity=95 time=0
EXTRACT: pitchwheel channel=7 pitch=-640 time=0.32846699999999995
EXTRACT: pitchwheel channel=7 pitch=-1408 time=0.547445
EXTRACT: note_off channel=0 note=67 velocity=80 time=0
EXTRACT: note_off channel=0 note=62 velocity=80 time=0
EXTRACT: note_off channel=0 note=58 velocity=80 time=0
EXTRACT: note_off channel=0 note=55 velocity=80 time=0
EXTRACT: note_off channel=0 note=51 velocity=80 time=0
EXTRACT: note_on channel=0 note=67 velocity=95 time=0
EXTRACT: note_on channel=0 note=63 velocity=95 time=0
EXTRACT: note_on channel=0 note=60 velocity=95 time=0
EXTRACT: note_on channel=0 note=55 velocity=95 time=0
EXTRACT: note_on channel=0 note=48 velocity=95 time=0
EXTRACT: note_off channel=4 note=67 velocity=80 time=0
EXTRACT: note_off channel=4 note=63 velocity=80 time=0
EXTRACT: note_off channel=4 note=58 velocity=80 time=0
EXTRACT: note_off channel=4 note=55 velocity=80 time=0
EXTRACT: note_off channel=4 note=51 velocity=80 time=0
EXTRACT: note_on channel=4 note=67 velocity=95 time=0
EXTRACT: note_on channel=4 note=63 velocity=95 time=0
EXTRACT: note_on channel=4 note=60 velocity=95 time=0
EXTRACT: note_on channel=4 note=55 velocity=95 time=0
EXTRACT: note_on channel=4 note=48 velocity=95 time=0
EXTRACT: note_off channel=2 note=46 velocity=80 time=0
EXTRACT: note_on channel=2 note=48 velocity=95 time=0
EXTRACT: note_off channel=7 note=74 velocity=80 time=1.3138679999999998
EXTRACT: pitchwheel channel=7 pitch=0 time=0
EXTRACT: note_off channel=0 note=67 velocity=80 time=0.43795599999999996
EXTRACT: note_off channel=0 note=63 velocity=80 time=0
EXTRACT: note_off channel=0 note=60 velocity=80 time=0
EXTRACT: note_off channel=0 note=55 velocity=80 time=0
EXTRACT: note_off channel=0 note=48 velocity=80 time=0
EXTRACT: note_on channel=0 note=67 velocity=95 time=0
EXTRACT: note_on channel=0 note=63 velocity=95 time=0
EXTRACT: note_on channel=0 note=58 velocity=95 time=0
EXTRACT: note_on channel=0 note=53 velocity=95 time=0
EXTRACT: note_on channel=0 note=50 velocity=95 time=0
EXTRACT: note_on channel=0 note=46 velocity=95 time=0
EXTRACT: note_off channel=4 note=67 velocity=80 time=0
EXTRACT: note_off channel=4 note=63 velocity=80 time=0
EXTRACT: note_off channel=4 note=60 velocity=80 time=0
EXTRACT: note_off channel=4 note=55 velocity=80 time=0
EXTRACT: note_off channel=4 note=48 velocity=80 time=0
EXTRACT: note_on channel=4 note=70 velocity=95 time=0
EXTRACT: note_on channel=4 note=63 velocity=95 time=0
EXTRACT: note_on channel=4 note=58 velocity=95 time=0
EXTRACT: note_on channel=4 note=53 velocity=95 time=0
EXTRACT: note_on channel=4 note=50 velocity=95 time=0
EXTRACT: note_on channel=4 note=46 velocity=95 time=0
EXTRACT: note_off channel=2 note=48 velocity=80 time=0
EXTRACT: note_on channel=2 note=46 velocity=95 time=0
EXTRACT: note_on channel=6 note=74 velocity=86 time=0.43795599999999996
EXTRACT: note_off channel=6 note=74 velocity=80 time=0.43795599999999996
EXTRACT: note_on channel=6 note=79 velocity=95 time=0
EXTRACT: note_off channel=6 note=79 velocity=80 time=0.43795599999999996
EXTRACT: note_on channel=6 note=82 velocity=95 time=0
EXTRACT: note_off channel=6 note=82 velocity=80 time=0.43795599999999996
EXTRACT: note_on channel=6 note=82 velocity=95 time=0
EXTRACT: note_off channel=0 note=67 velocity=80 time=0
EXTRACT: note_off channel=0 note=63 velocity=80 time=0
EXTRACT: note_off channel=0 note=58 velocity=80 time=0
EXTRACT: note_off channel=0 note=53 velocity=80 time=0
EXTRACT: note_off channel=0 note=50 velocity=80 time=0
EXTRACT: note_off channel=0 note=46 velocity=80 time=0
EXTRACT: note_on channel=0 note=67 velocity=95 time=0
EXTRACT: note_on channel=0 note=63 velocity=95 time=0
EXTRACT: note_on channel=0 note=58 velocity=95 time=0
EXTRACT: note_on channel=0 note=55 velocity=95 time=0
EXTRACT: note_on channel=0 note=51 velocity=95 time=0
EXTRACT: note_off channel=4 note=70 velocity=80 time=0
EXTRACT: note_off channel=4 note=63 velocity=80 time=0
EXTRACT: note_off channel=4 note=58 velocity=80 time=0
EXTRACT: note_off channel=4 note=53 velocity=80 time=0
EXTRACT: note_off channel=4 note=50 velocity=80 time=0
EXTRACT: note_off channel=4 note=46 velocity=80 time=0
EXTRACT: note_on channel=4 note=67 velocity=95 time=0
EXTRACT: note_on channel=4 note=63 velocity=95 time=0
EXTRACT: note_on channel=4 note=58 velocity=95 time=0
EXTRACT: note_on channel=4 note=55 velocity=95 time=0
EXTRACT: note_on channel=4 note=51 velocity=95 time=0
EXTRACT: note_off channel=2 note=46 velocity=80 time=0
EXTRACT: note_on channel=2 note=39 velocity=95 time=0
EXTRACT: note_off channel=2 note=39 velocity=80 time=1.532846
EXTRACT: note_on channel=2 note=39 velocity=95 time=0
EXTRACT: note_off channel=6 note=82 velocity=80 time=0.21897799999999998
EXTRACT: note_on channel=6 note=79 velocity=95 time=0
EXTRACT: note_off channel=0 note=67 velocity=80 time=0
EXTRACT: note_off channel=0 note=63 velocity=80 time=0
EXTRACT: note_off channel=0 note=58 velocity=80 time=0
EXTRACT: note_off channel=0 note=55 velocity=80 time=0
EXTRACT: note_off channel=0 note=51 velocity=80 time=0
EXTRACT: note_on channel=0 note=67 velocity=95 time=0
EXTRACT: note_on channel=0 note=62 velocity=95 time=0
EXTRACT: note_on channel=0 note=58 velocity=95 time=0
EXTRACT: note_on channel=0 note=55 velocity=95 time=0
EXTRACT: note_on channel=0 note=51 velocity=95 time=0
EXTRACT: note_off channel=2 note=39 velocity=80 time=0
EXTRACT: note_on channel=2 note=43 velocity=95 time=0
EXTRACT: note_off channel=2 note=43 velocity=80 time=0.8759119999999999
EXTRACT: note_on channel=2 note=38 velocity=95 time=0
EXTRACT: note_off channel=0 note=67 velocity=80 time=0.8759119999999999
EXTRACT: note_off channel=0 note=62 velocity=80 time=0
EXTRACT: note_off channel=0 note=58 velocity=80 time=0
EXTRACT: note_off channel=0 note=55 velocity=80 time=0
EXTRACT: note_off channel=0 note=51 velocity=80 time=0
EXTRACT: note_on channel=0 note=67 velocity=95 time=0
EXTRACT: note_on channel=0 note=63 velocity=95 time=0
EXTRACT: note_on channel=0 note=60 velocity=95 time=0
EXTRACT: note_on channel=0 note=55 velocity=95 time=0
EXTRACT: note_on channel=0 note=48 velocity=95 time=0
EXTRACT: note_off channel=4 note=67 velocity=80 time=0
EXTRACT: note_off channel=4 note=63 velocity=80 time=0
EXTRACT: note_off channel=4 note=58 velocity=80 time=0
EXTRACT: note_off channel=4 note=55 velocity=80 time=0
EXTRACT: note_off channel=4 note=51 velocity=80 time=0
EXTRACT: note_on channel=4 note=67 velocity=95 time=0
EXTRACT: note_on channel=4 note=63 velocity=95 time=0
EXTRACT: note_on channel=4 note=60 velocity=95 time=0
EXTRACT: note_on channel=4 note=55 velocity=95 time=0
EXTRACT: note_on channel=4 note=48 velocity=95 time=0
EXTRACT: note_off channel=2 note=38 velocity=80 time=0
EXTRACT: note_on channel=2 note=36 velocity=95 time=0
EXTRACT: note_off channel=6 note=79 velocity=80 time=1.7518239999999998
EXTRACT: note_off channel=0 note=67 velocity=80 time=0
EXTRACT: note_off channel=0 note=63 velocity=80 time=0
EXTRACT: note_off channel=0 note=60 velocity=80 time=0
EXTRACT: note_off channel=0 note=55 velocity=80 time=0
EXTRACT: note_off channel=0 note=48 velocity=80 time=0
EXTRACT: note_on channel=0 note=67 velocity=95 time=0
EXTRACT: note_on channel=0 note=63 velocity=95 time=0
EXTRACT: note_on channel=0 note=58 velocity=95 time=0
EXTRACT: note_on channel=0 note=53 velocity=95 time=0
EXTRACT: note_on channel=0 note=50 velocity=95 time=0
EXTRACT: note_on channel=0 note=46 velocity=95 time=0
EXTRACT: note_off channel=4 note=67 velocity=80 time=0
EXTRACT: note_off channel=4 note=63 velocity=80 time=0
EXTRACT: note_off channel=4 note=60 velocity=80 time=0
EXTRACT: note_off channel=4 note=55 velocity=80 time=0
EXTRACT: note_off channel=4 note=48 velocity=80 time=0
EXTRACT: note_on channel=4 note=70 velocity=95 time=0
EXTRACT: note_on channel=4 note=63 velocity=95 time=0
EXTRACT: note_on channel=4 note=58 velocity=95 time=0
EXTRACT: note_on channel=4 note=53 velocity=95 time=0
EXTRACT: note_on channel=4 note=50 velocity=95 time=0
EXTRACT: note_on channel=4 note=46 velocity=95 time=0
EXTRACT: note_off channel=2 note=36 velocity=80 time=0
EXTRACT: note_on channel=2 note=34 velocity=95 time=0
EXTRACT: note_off channel=0 note=67 velocity=80 time=1.7518239999999998
EXTRACT: note_off channel=0 note=63 velocity=80 time=0
EXTRACT: note_off channel=0 note=58 velocity=80 time=0
EXTRACT: note_off channel=0 note=53 velocity=80 time=0
EXTRACT: note_off channel=0 note=50 velocity=80 time=0
EXTRACT: note_off channel=0 note=46 velocity=80 time=0
EXTRACT: program_change channel=0 program=50 time=0
EXTRACT: program_change channel=1 program=50 time=0
EXTRACT: control_change channel=0 control=7 value=56 time=0
EXTRACT: control_change channel=1 control=7 value=56 time=0
EXTRACT: control_change channel=0 control=10 value=120 time=0
EXTRACT: control_change channel=1 control=10 value=120 time=0
EXTRACT: control_change channel=0 control=7 value=4 time=0
EXTRACT: control_change channel=1 control=7 value=4 time=0
EXTRACT: note_on channel=0 note=80 velocity=95 time=0
EXTRACT: note_on channel=0 note=75 velocity=95 time=0
EXTRACT: note_on channel=0 note=72 velocity=95 time=0
EXTRACT: note_on channel=0 note=68 velocity=95 time=0
EXTRACT: note_on channel=0 note=63 velocity=95 time=0
EXTRACT: note_on channel=0 note=56 velocity=95 time=0
EXTRACT: note_off channel=4 note=70 velocity=80 time=0
EXTRACT: note_off channel=4 note=63 velocity=80 time=0
EXTRACT: note_off channel=4 note=58 velocity=80 time=0
EXTRACT: note_off channel=4 note=53 velocity=80 time=0
EXTRACT: note_off channel=4 note=50 velocity=80 time=0
EXTRACT: note_off channel=4 note=46 velocity=80 time=0
EXTRACT: program_change channel=4 program=48 time=0
EXTRACT: program_change channel=5 program=48 time=0
EXTRACT: control_change channel=4 control=7 value=56 time=0
EXTRACT: control_change channel=5 control=7 value=56 time=0
EXTRACT: control_change channel=4 control=10 value=0 time=0
EXTRACT: control_change channel=5 control=10 value=0 time=0
EXTRACT: control_change channel=4 control=7 value=4 time=0
EXTRACT: control_change channel=5 control=7 value=4 time=0
EXTRACT: note_on channel=4 note=80 velocity=95 time=0
EXTRACT: note_on channel=4 note=75 velocity=95 time=0
EXTRACT: note_on channel=4 note=72 velocity=95 time=0
EXTRACT: note_on channel=4 note=68 velocity=95 time=0
EXTRACT: note_on channel=4 note=63 velocity=95 time=0
EXTRACT: note_on channel=4 note=56 velocity=95 time=0
EXTRACT: note_on channel=8 note=68 velocity=95 time=0
EXTRACT: note_on channel=8 note=63 velocity=95 time=0
EXTRACT: note_on channel=8 note=60 velocity=95 time=0
EXTRACT: note_on channel=8 note=56 velocity=95 time=0
EXTRACT: note_on channel=8 note=51 velocity=95 time=0
EXTRACT: note_on channel=8 note=44 velocity=95 time=0
EXTRACT: note_off channel=2 note=34 velocity=80 time=0
EXTRACT: note_on channel=2 note=32 velocity=95 time=0
EXTRACT: control_change channel=0 control=7 value=9 time=0.10948899999999999
EXTRACT: control_change channel=1 control=7 value=9 time=0
EXTRACT: control_change channel=4 control=7 value=9 time=0
EXTRACT: control_change channel=5 control=7 value=9 time=0
EXTRACT: control_change channel=0 control=7 value=13 time=0.10948899999999999
EXTRACT: control_change channel=1 control=7 value=13 time=0
EXTRACT: control_change channel=4 control=7 value=13 time=0
EXTRACT: control_change channel=5 control=7 value=13 time=0
EXTRACT: control_change channel=0 control=7 value=17 time=0.10948899999999999
EXTRACT: control_change channel=1 control=7 value=17 time=0
EXTRACT: control_change channel=4 control=7 value=17 time=0
EXTRACT: control_change channel=5 control=7 value=17 time=0
EXTRACT: control_change channel=0 control=7 value=22 time=0.10948899999999999
EXTRACT: control_change channel=1 control=7 value=22 time=0
EXTRACT: control_change channel=4 control=7 value=22 time=0
EXTRACT: control_change channel=5 control=7 value=22 time=0
EXTRACT: control_change channel=0 control=7 value=26 time=0.10948899999999999
EXTRACT: control_change channel=1 control=7 value=26 time=0
EXTRACT: control_change channel=4 control=7 value=26 time=0
EXTRACT: control_change channel=5 control=7 value=26 time=0
EXTRACT: control_change channel=0 control=7 value=30 time=0.10948899999999999
EXTRACT: control_change channel=1 control=7 value=30 time=0
EXTRACT: control_change channel=4 control=7 value=30 time=0
EXTRACT: control_change channel=5 control=7 value=30 time=0
EXTRACT: control_change channel=0 control=7 value=34 time=0.10948899999999999
EXTRACT: control_change channel=1 control=7 value=34 time=0
EXTRACT: control_change channel=4 control=7 value=34 time=0
EXTRACT: control_change channel=5 control=7 value=34 time=0
EXTRACT: control_change channel=0 control=7 value=39 time=0.10948899999999999
EXTRACT: control_change channel=1 control=7 value=39 time=0
EXTRACT: control_change channel=4 control=7 value=39 time=0
EXTRACT: control_change channel=5 control=7 value=39 time=0
EXTRACT: control_change channel=0 control=7 value=43 time=0.10948899999999999
EXTRACT: control_change channel=1 control=7 value=43 time=0
EXTRACT: control_change channel=4 control=7 value=43 time=0
EXTRACT: control_change channel=5 control=7 value=43 time=0
EXTRACT: control_change channel=0 control=7 value=47 time=0.10948899999999999
EXTRACT: control_change channel=1 control=7 value=47 time=0
EXTRACT: control_change channel=4 control=7 value=47 time=0
EXTRACT: control_change channel=5 control=7 value=47 time=0
EXTRACT: control_change channel=0 control=7 value=52 time=0.10948899999999999
EXTRACT: control_change channel=1 control=7 value=52 time=0
EXTRACT: control_change channel=4 control=7 value=52 time=0
EXTRACT: control_change channel=5 control=7 value=52 time=0
EXTRACT: control_change channel=0 control=7 value=56 time=0.10948899999999999
EXTRACT: control_change channel=1 control=7 value=56 time=0
EXTRACT: control_change channel=4 control=7 value=56 time=0
EXTRACT: control_change channel=5 control=7 value=56 time=0
EXTRACT: control_change channel=6 control=7 value=88 time=0.43795599999999996
EXTRACT: control_change channel=7 control=7 value=88 time=0
EXTRACT: note_on channel=6 note=80 velocity=95 time=0
EXTRACT: note_off channel=6 note=80 velocity=80 time=0.8759119999999999
EXTRACT: note_on channel=6 note=79 velocity=95 time=0
EXTRACT: note_off channel=8 note=68 velocity=80 time=0
EXTRACT: note_off channel=8 note=63 velocity=80 time=0
EXTRACT: note_off channel=8 note=60 velocity=80 time=0
EXTRACT: note_off channel=8 note=56 velocity=80 time=0
EXTRACT: note_off channel=8 note=51 velocity=80 time=0
EXTRACT: note_off channel=8 note=44 velocity=80 time=0
EXTRACT: note_on channel=8 note=67 velocity=95 time=0
EXTRACT: note_on channel=8 note=63 velocity=95 time=0
EXTRACT: note_on channel=8 note=58 velocity=95 time=0
EXTRACT: note_on channel=8 note=55 velocity=95 time=0
EXTRACT: note_on channel=8 note=51 velocity=95 time=0
EXTRACT: note_off channel=2 note=32 velocity=80 time=0
EXTRACT: note_on channel=2 note=39 velocity=95 time=0
EXTRACT: note_off channel=6 note=79 velocity=80 time=0.8759119999999999
EXTRACT: note_on channel=7 note=77 velocity=95 time=0
EXTRACT: note_off channel=0 note=80 velocity=80 time=0
EXTRACT: note_off channel=0 note=75 velocity=80 time=0
EXTRACT: note_off channel=0 note=72 velocity=80 time=0
EXTRACT: note_off channel=0 note=68 velocity=80 time=0
EXTRACT: note_off channel=0 note=63 velocity=80 time=0
EXTRACT: note_off channel=0 note=56 velocity=80 time=0
EXTRACT: note_on channel=0 note=82 velocity=95 time=0
EXTRACT: note_on channel=0 note=77 velocity=95 time=0
EXTRACT: note_on channel=0 note=70 velocity=95 time=0
EXTRACT: note_on channel=0 note=65 velocity=95 time=0
EXTRACT: note_on channel=0 note=62 velocity=95 time=0
EXTRACT: note_on channel=0 note=58 velocity=95 time=0
EXTRACT: note_off channel=4 note=80 velocity=80 time=0
EXTRACT: note_off channel=4 note=75 velocity=80 time=0
EXTRACT: note_off channel=4 note=72 velocity=80 time=0
EXTRACT: note_off channel=4 note=68 velocity=80 time=0
EXTRACT: note_off channel=4 note=63 velocity=80 time=0
EXTRACT: note_off channel=4 note=56 velocity=80 time=0
EXTRACT: note_on channel=4 note=82 velocity=95 time=0
EXTRACT: note_on channel=4 note=77 velocity=95 time=0
EXTRACT: note_on channel=4 note=70 velocity=95 time=0
EXTRACT: note_on channel=4 note=65 velocity=95 time=0
EXTRACT: note_on channel=4 note=62 velocity=95 time=0
EXTRACT: note_on channel=4 note=58 velocity=95 time=0
EXTRACT: note_off channel=8 note=67 velocity=80 time=0
EXTRACT: note_off channel=8 note=63 velocity=80 time=0
EXTRACT: note_off channel=8 note=58 velocity=80 time=0
EXTRACT: note_off channel=8 note=55 velocity=80 time=0
EXTRACT: note_off channel=8 note=51 velocity=80 time=0
EXTRACT: note_on channel=8 note=70 velocity=95 time=0
EXTRACT: note_on channel=8 note=65 velocity=95 time=0
EXTRACT: note_on channel=8 note=58 velocity=95 time=0
EXTRACT: note_on channel=8 note=53 velocity=95 time=0
EXTRACT: note_on channel=8 note=50 velocity=95 time=0
EXTRACT: note_on channel=8 note=46 velocity=95 time=0
EXTRACT: note_off channel=2 note=39 velocity=80 time=0
EXTRACT: note_on channel=2 note=34 velocity=95 time=0
EXTRACT: pitchwheel channel=7 pitch=-640 time=0.21897799999999998
EXTRACT: pitchwheel channel=7 pitch=-1408 time=0.21897799999999998
EXTRACT: pitchwheel channel=7 pitch=-2048 time=0.3503648
EXTRACT: pitchwheel channel=7 pitch=-2048 time=0.0875912
EXTRACT: note_off channel=7 note=77 velocity=80 time=0.43795599999999996
EXTRACT: pitchwheel channel=7 pitch=0 time=0
EXTRACT: pitchwheel channel=7 pitch=0 time=0
EXTRACT: note_on channel=6 note=72 velocity=86 time=0
EXTRACT: note_off channel=6 note=72 velocity=80 time=0.43795599999999996
EXTRACT: note_on channel=6 note=74 velocity=95 time=0
EXTRACT: note_off channel=6 note=74 velocity=80 time=0.8759119999999999
EXTRACT: note_on channel=6 note=75 velocity=95 time=0
EXTRACT: note_off channel=6 note=75 velocity=80 time=0.43795599999999996
EXTRACT: note_on channel=6 note=77 velocity=95 time=0
EXTRACT: note_off channel=0 note=82 velocity=80 time=0.43795599999999996
EXTRACT: note_off channel=0 note=77 velocity=80 time=0
EXTRACT: note_off channel=0 note=70 velocity=80 time=0
EXTRACT: note_off channel=0 note=65 velocity=80 time=0
EXTRACT: note_off channel=0 note=62 velocity=80 time=0
EXTRACT: note_off channel=0 note=58 velocity=80 time=0
EXTRACT: note_on channel=0 note=80 velocity=95 time=0
EXTRACT: note_on channel=0 note=75 velocity=95 time=0
EXTRACT: note_on channel=0 note=72 velocity=95 time=0
EXTRACT: note_on channel=0 note=68 velocity=95 time=0
EXTRACT: note_on channel=0 note=63 velocity=95 time=0
EXTRACT: note_on channel=0 note=56 velocity=95 time=0
EXTRACT: note_off channel=4 note=82 velocity=80 time=0
EXTRACT: note_off channel=4 note=77 velocity=80 time=0
EXTRACT: note_off channel=4 note=70 velocity=80 time=0
EXTRACT: note_off channel=4 note=65 velocity=80 time=0
EXTRACT: note_off channel=4 note=62 velocity=80 time=0
EXTRACT: note_off channel=4 note=58 velocity=80 time=0
EXTRACT: note_on channel=4 note=80 velocity=95 time=0
EXTRACT: note_on channel=4 note=75 velocity=95 time=0
EXTRACT: note_on channel=4 note=72 velocity=95 time=0
EXTRACT: note_on channel=4 note=68 velocity=95 time=0
EXTRACT: note_on channel=4 note=63 velocity=95 time=0
EXTRACT: note_on channel=4 note=56 velocity=95 time=0
EXTRACT: note_off channel=8 note=70 velocity=80 time=0
EXTRACT: note_off channel=8 note=65 velocity=80 time=0
EXTRACT: note_off channel=8 note=58 velocity=80 time=0
EXTRACT: note_off channel=8 note=53 velocity=80 time=0
EXTRACT: note_off channel=8 note=50 velocity=80 time=0
EXTRACT: note_off channel=8 note=46 velocity=80 time=0
EXTRACT: note_on channel=8 note=68 velocity=95 time=0
EXTRACT: note_on channel=8 note=63 velocity=95 time=0
EXTRACT: note_on channel=8 note=60 velocity=95 time=0
EXTRACT: note_on channel=8 note=56 velocity=95 time=0
EXTRACT: note_on channel=8 note=51 velocity=95 time=0
EXTRACT: note_on channel=8 note=44 velocity=95 time=0
EXTRACT: note_off channel=2 note=34 velocity=80 time=0
EXTRACT: note_on channel=2 note=32 velocity=95 time=0
EXTRACT: note_off channel=6 note=77 velocity=80 time=1.7518239999999998
EXTRACT: note_on channel=6 note=80 velocity=95 time=0
EXTRACT: note_off channel=6 note=80 velocity=80 time=0.8759119999999999
EXTRACT: note_on channel=6 note=79 velocity=95 time=0
EXTRACT: note_off channel=8 note=68 velocity=80 time=0
EXTRACT: note_off channel=8 note=63 velocity=80 time=0
EXTRACT: note_off channel=8 note=60 velocity=80 time=0
EXTRACT: note_off channel=8 note=56 velocity=80 time=0
EXTRACT: note_off channel=8 note=51 velocity=80 time=0
EXTRACT: note_off channel=8 note=44 velocity=80 time=0
EXTRACT: note_on channel=8 note=67 velocity=95 time=0
EXTRACT: note_on channel=8 note=63 velocity=95 time=0
EXTRACT: note_on channel=8 note=58 velocity=95 time=0
EXTRACT: note_on channel=8 note=55 velocity=95 time=0
EXTRACT: note_on channel=8 note=51 velocity=95 time=0
EXTRACT: note_off channel=2 note=32 velocity=80 time=0
EXTRACT: note_on channel=2 note=39 velocity=95 time=0
EXTRACT: note_off channel=6 note=79 velocity=80 time=0.8759119999999999
EXTRACT: note_on channel=7 note=77 velocity=95 time=0
EXTRACT: note_off channel=0 note=80 velocity=80 time=0
EXTRACT: note_off channel=0 note=75 velocity=80 time=0
EXTRACT: note_off channel=0 note=72 velocity=80 time=0
EXTRACT: note_off channel=0 note=68 velocity=80 time=0
EXTRACT: note_off channel=0 note=63 velocity=80 time=0
EXTRACT: note_off channel=0 note=56 velocity=80 time=0
EXTRACT: note_on channel=0 note=82 velocity=95 time=0
EXTRACT: note_on channel=0 note=77 velocity=95 time=0
EXTRACT: note_on channel=0 note=70 velocity=95 time=0
EXTRACT: note_on channel=0 note=65 velocity=95 time=0
EXTRACT: note_on channel=0 note=62 velocity=95 time=0
EXTRACT: note_on channel=0 note=58 velocity=95 time=0
EXTRACT: note_off channel=4 note=80 velocity=80 time=0
EXTRACT: note_off channel=4 note=75 velocity=80 time=0
EXTRACT: note_off channel=4 note=72 velocity=80 time=0
EXTRACT: note_off channel=4 note=68 velocity=80 time=0
EXTRACT: note_off channel=4 note=63 velocity=80 time=0
EXTRACT: note_off channel=4 note=56 velocity=80 time=0
EXTRACT: note_on channel=4 note=82 velocity=95 time=0
EXTRACT: note_on channel=4 note=77 velocity=95 time=0
EXTRACT: note_on channel=4 note=70 velocity=95 time=0
EXTRACT: note_on channel=4 note=65 velocity=95 time=0
EXTRACT: note_on channel=4 note=62 velocity=95 time=0
EXTRACT: note_on channel=4 note=58 velocity=95 time=0
EXTRACT: note_off channel=8 note=67 velocity=80 time=0
EXTRACT: note_off channel=8 note=63 velocity=80 time=0
EXTRACT: note_off channel=8 note=58 velocity=80 time=0
EXTRACT: note_off channel=8 note=55 velocity=80 time=0
EXTRACT: note_off channel=8 note=51 velocity=80 time=0
EXTRACT: note_on channel=8 note=70 velocity=95 time=0
EXTRACT: note_on channel=8 note=65 velocity=95 time=0
EXTRACT: note_on channel=8 note=58 velocity=95 time=0
EXTRACT: note_on channel=8 note=53 velocity=95 time=0
EXTRACT: note_on channel=8 note=50 velocity=95 time=0
EXTRACT: note_on channel=8 note=46 velocity=95 time=0
EXTRACT: note_off channel=2 note=39 velocity=80 time=0
EXTRACT: note_on channel=2 note=34 velocity=95 time=0
EXTRACT: pitchwheel channel=7 pitch=-640 time=0.21897799999999998
EXTRACT: pitchwheel channel=7 pitch=-1408 time=0.21897799999999998
EXTRACT: pitchwheel channel=7 pitch=-2048 time=0.3503648
EXTRACT: pitchwheel channel=7 pitch=-2048 time=0.0875912
EXTRACT: note_off channel=7 note=77 velocity=80 time=0.43795599999999996
EXTRACT: pitchwheel channel=7 pitch=0 time=0
EXTRACT: pitchwheel channel=7 pitch=0 time=0
EXTRACT: note_on channel=6 note=72 velocity=86 time=0
EXTRACT: note_off channel=6 note=72 velocity=80 time=0.43795599999999996
EXTRACT: note_on channel=6 note=74 velocity=95 time=0
EXTRACT: note_off channel=6 note=74 velocity=80 time=0.8759119999999999
EXTRACT: note_on channel=6 note=75 velocity=95 time=0
EXTRACT: note_off channel=6 note=75 velocity=80 time=0.43795599999999996
EXTRACT: note_on channel=6 note=77 velocity=95 time=0
EXTRACT: note_off channel=0 note=82 velocity=80 time=0.43795599999999996
EXTRACT: note_off channel=0 note=77 velocity=80 time=0
EXTRACT: note_off channel=0 note=70 velocity=80 time=0
EXTRACT: note_off channel=0 note=65 velocity=80 time=0
EXTRACT: note_off channel=0 note=62 velocity=80 time=0
EXTRACT: note_off channel=0 note=58 velocity=80 time=0
EXTRACT: note_on channel=0 note=80 velocity=95 time=0
EXTRACT: note_on channel=0 note=75 velocity=95 time=0
EXTRACT: note_on channel=0 note=72 velocity=95 time=0
EXTRACT: note_on channel=0 note=68 velocity=95 time=0
EXTRACT: note_on channel=0 note=63 velocity=95 time=0
EXTRACT: note_on channel=0 note=56 velocity=95 time=0
EXTRACT: note_off channel=4 note=82 velocity=80 time=0
EXTRACT: note_off channel=4 note=77 velocity=80 time=0
EXTRACT: note_off channel=4 note=70 velocity=80 time=0
EXTRACT: note_off channel=4 note=65 velocity=80 time=0
EXTRACT: note_off channel=4 note=62 velocity=80 time=0
EXTRACT: note_off channel=4 note=58 velocity=80 time=0
EXTRACT: note_on channel=4 note=80 velocity=95 time=0
EXTRACT: note_on channel=4 note=75 velocity=95 time=0
EXTRACT: note_on channel=4 note=72 velocity=95 time=0
EXTRACT: note_on channel=4 note=68 velocity=95 time=0
EXTRACT: note_on channel=4 note=63 velocity=95 time=0
EXTRACT: note_on channel=4 note=56 velocity=95 time=0
EXTRACT: note_off channel=8 note=70 velocity=80 time=0
EXTRACT: note_off channel=8 note=65 velocity=80 time=0
EXTRACT: note_off channel=8 note=58 velocity=80 time=0
EXTRACT: note_off channel=8 note=53 velocity=80 time=0
EXTRACT: note_off channel=8 note=50 velocity=80 time=0
EXTRACT: note_off channel=8 note=46 velocity=80 time=0
EXTRACT: note_on channel=8 note=68 velocity=95 time=0
EXTRACT: note_on channel=8 note=63 velocity=95 time=0
EXTRACT: note_on channel=8 note=60 velocity=95 time=0
EXTRACT: note_on channel=8 note=56 velocity=95 time=0
EXTRACT: note_on channel=8 note=51 velocity=95 time=0
EXTRACT: note_on channel=8 note=44 velocity=95 time=0
EXTRACT: note_off channel=2 note=34 velocity=80 time=0
EXTRACT: note_on channel=2 note=32 velocity=95 time=0
EXTRACT: note_off channel=6 note=77 velocity=80 time=1.3138679999999998
EXTRACT: note_on channel=6 note=77 velocity=95 time=0
EXTRACT: note_off channel=6 note=77 velocity=80 time=0.43795599999999996
EXTRACT: note_on channel=6 note=80 velocity=95 time=0
EXTRACT: note_off channel=6 note=80 velocity=80 time=0.8759119999999999
EXTRACT: note_on channel=6 note=79 velocity=95 time=0
EXTRACT: note_off channel=8 note=68 velocity=80 time=0
EXTRACT: note_off channel=8 note=63 velocity=80 time=0
EXTRACT: note_off channel=8 note=60 velocity=80 time=0
EXTRACT: note_off channel=8 note=56 velocity=80 time=0
EXTRACT: note_off channel=8 note=51 velocity=80 time=0
EXTRACT: note_off channel=8 note=44 velocity=80 time=0
EXTRACT: note_on channel=8 note=67 velocity=95 time=0
EXTRACT: note_on channel=8 note=63 velocity=95 time=0
EXTRACT: note_on channel=8 note=58 velocity=95 time=0
EXTRACT: note_on channel=8 note=55 velocity=95 time=0
EXTRACT: note_on channel=8 note=51 velocity=95 time=0
EXTRACT: note_off channel=2 note=32 velocity=80 time=0
EXTRACT: note_on channel=2 note=39 velocity=95 time=0
EXTRACT: note_off channel=6 note=79 velocity=80 time=0.8759119999999999
EXTRACT: note_on channel=6 note=77 velocity=95 time=0
EXTRACT: note_off channel=0 note=80 velocity=80 time=0
EXTRACT: note_off channel=0 note=75 velocity=80 time=0
EXTRACT: note_off channel=0 note=72 velocity=80 time=0
EXTRACT: note_off channel=0 note=68 velocity=80 time=0
EXTRACT: note_off channel=0 note=63 velocity=80 time=0
EXTRACT: note_off channel=0 note=56 velocity=80 time=0
EXTRACT: note_on channel=0 note=82 velocity=95 time=0
EXTRACT: note_on channel=0 note=77 velocity=95 time=0
EXTRACT: note_on channel=0 note=70 velocity=95 time=0
EXTRACT: note_on channel=0 note=65 velocity=95 time=0
EXTRACT: note_on channel=0 note=62 velocity=95 time=0
EXTRACT: note_on channel=0 note=58 velocity=95 time=0
EXTRACT: note_off channel=4 note=80 velocity=80 time=0
EXTRACT: note_off channel=4 note=75 velocity=80 time=0
EXTRACT: note_off channel=4 note=72 velocity=80 time=0
EXTRACT: note_off channel=4 note=68 velocity=80 time=0
EXTRACT: note_off channel=4 note=63 velocity=80 time=0
EXTRACT: note_off channel=4 note=56 velocity=80 time=0
EXTRACT: note_on channel=4 note=82 velocity=95 time=0
EXTRACT: note_on channel=4 note=77 velocity=95 time=0
EXTRACT: note_on channel=4 note=70 velocity=95 time=0
EXTRACT: note_on channel=4 note=65 velocity=95 time=0
EXTRACT: note_on channel=4 note=62 velocity=95 time=0
EXTRACT: note_on channel=4 note=58 velocity=95 time=0
EXTRACT: note_off channel=8 note=67 velocity=80 time=0
EXTRACT: note_off channel=8 note=63 velocity=80 time=0
EXTRACT: note_off channel=8 note=58 velocity=80 time=0
EXTRACT: note_off channel=8 note=55 velocity=80 time=0
EXTRACT: note_off channel=8 note=51 velocity=80 time=0
EXTRACT: note_on channel=8 note=70 velocity=95 time=0
EXTRACT: note_on channel=8 note=65 velocity=95 time=0
EXTRACT: note_on channel=8 note=58 velocity=95 time=0
EXTRACT: note_on channel=8 note=53 velocity=95 time=0
EXTRACT: note_on channel=8 note=50 velocity=95 time=0
EXTRACT: note_on channel=8 note=46 velocity=95 time=0
EXTRACT: note_off channel=2 note=39 velocity=80 time=0
EXTRACT: note_on channel=2 note=34 velocity=95 time=0
EXTRACT: note_off channel=6 note=77 velocity=80 time=2.18978
EXTRACT: note_on channel=6 note=75 velocity=95 time=0
EXTRACT: note_off channel=6 note=75 velocity=80 time=0.43795599999999996
EXTRACT: note_on channel=6 note=79 velocity=86 time=0
EXTRACT: note_off channel=6 note=79 velocity=80 time=0.10948899999999999
EXTRACT: note_on channel=6 note=75 velocity=95 time=0.32846699999999995
EXTRACT: note_off channel=6 note=75 velocity=80 time=0.43795599999999996
EXTRACT: note_off channel=0 note=82 velocity=80 time=0
EXTRACT: note_off channel=0 note=77 velocity=80 time=0
EXTRACT: note_off channel=0 note=70 velocity=80 time=0
EXTRACT: note_off channel=0 note=65 velocity=80 time=0
EXTRACT: note_off channel=0 note=62 velocity=80 time=0
EXTRACT: note_off channel=0 note=58 velocity=80 time=0
EXTRACT: program_change channel=0 program=16 time=0
EXTRACT: program_change channel=1 program=16 time=0
EXTRACT: control_change channel=0 control=7 value=48 time=0
EXTRACT: control_change channel=1 control=7 value=48 time=0
EXTRACT: control_change channel=0 control=10 value=64 time=0
EXTRACT: control_change channel=1 control=10 value=64 time=0
EXTRACT: note_on channel=0 note=67 velocity=95 time=0
EXTRACT: note_on channel=0 note=63 velocity=95 time=0
EXTRACT: note_on channel=0 note=58 velocity=95 time=0
EXTRACT: note_on channel=0 note=55 velocity=95 time=0
EXTRACT: note_on channel=0 note=51 velocity=95 time=0
EXTRACT: note_off channel=4 note=82 velocity=80 time=0
EXTRACT: note_off channel=4 note=77 velocity=80 time=0
EXTRACT: note_off channel=4 note=70 velocity=80 time=0
EXTRACT: note_off channel=4 note=65 velocity=80 time=0
EXTRACT: note_off channel=4 note=62 velocity=80 time=0
EXTRACT: note_off channel=4 note=58 velocity=80 time=0
EXTRACT: program_change channel=4 program=19 time=0
EXTRACT: program_change channel=5 program=19 time=0
EXTRACT: control_change channel=4 control=7 value=32 time=0
EXTRACT: control_change channel=5 control=7 value=32 time=0
EXTRACT: control_change channel=4 control=10 value=40 time=0
EXTRACT: control_change channel=5 control=10 value=40 time=0
EXTRACT: note_on channel=4 note=67 velocity=95 time=0
EXTRACT: note_on channel=4 note=63 velocity=95 time=0
EXTRACT: note_on channel=4 note=58 velocity=95 time=0
EXTRACT: note_on channel=4 note=55 velocity=95 time=0
EXTRACT: note_on channel=4 note=51 velocity=95 time=0
EXTRACT: note_off channel=8 note=70 velocity=80 time=0
EXTRACT: note_off channel=8 note=65 velocity=80 time=0
EXTRACT: note_off channel=8 note=58 velocity=80 time=0
EXTRACT: note_off channel=8 note=53 velocity=80 time=0
EXTRACT: note_off channel=8 note=50 velocity=80 time=0
EXTRACT: note_off channel=8 note=46 velocity=80 time=0
EXTRACT: control_change channel=8 control=7 value=120 time=0
EXTRACT: control_change channel=10 control=7 value=120 time=0
EXTRACT: note_on channel=11 note=67 velocity=95 time=0
EXTRACT: note_on channel=11 note=63 velocity=95 time=0
EXTRACT: note_on channel=11 note=58 velocity=95 time=0
EXTRACT: note_on channel=11 note=55 velocity=95 time=0
EXTRACT: note_on channel=11 note=51 velocity=95 time=0
EXTRACT: note_off channel=2 note=34 velocity=80 time=0
EXTRACT: note_on channel=2 note=39 velocity=95 time=0
EXTRACT: note_on channel=8 note=67 velocity=95 time=0.43795599999999996
EXTRACT: note_off channel=8 note=67 velocity=80 time=0.43795599999999996
EXTRACT: note_on channel=8 note=75 velocity=95 time=0
EXTRACT: note_off channel=2 note=39 velocity=80 time=0.6569339999999999
EXTRACT: note_on channel=2 note=39 velocity=95 time=0
EXTRACT: note_off channel=0 note=67 velocity=80 time=0.21897799999999998
EXTRACT: note_off channel=0 note=63 velocity=80 time=0
EXTRACT: note_off channel=0 note=58 velocity=80 time=0
EXTRACT: note_off channel=0 note=55 velocity=80 time=0
EXTRACT: note_off channel=0 note=51 velocity=80 time=0
EXTRACT: note_on channel=0 note=67 velocity=95 time=0
EXTRACT: note_on channel=0 note=62 velocity=95 time=0
EXTRACT: note_on channel=0 note=58 velocity=95 time=0
EXTRACT: note_on channel=0 note=55 velocity=95 time=0
EXTRACT: note_on channel=0 note=51 velocity=95 time=0
EXTRACT: note_off channel=8 note=75 velocity=80 time=0
EXTRACT: note_off channel=2 note=39 velocity=80 time=0
EXTRACT: note_on channel=2 note=43 velocity=95 time=0
EXTRACT: note_on channel=8 note=67 velocity=95 time=0.43795599999999996
EXTRACT: note_off channel=8 note=67 velocity=80 time=0.43795599999999996
EXTRACT: note_on channel=8 note=74 velocity=95 time=0
EXTRACT: note_off channel=2 note=43 velocity=80 time=0
EXTRACT: note_on channel=2 note=46 velocity=95 time=0
EXTRACT: note_off channel=0 note=67 velocity=80 time=0.8759119999999999
EXTRACT: note_off channel=0 note=62 velocity=80 time=0
EXTRACT: note_off channel=0 note=58 velocity=80 time=0
EXTRACT: note_off channel=0 note=55 velocity=80 time=0
EXTRACT: note_off channel=0 note=51 velocity=80 time=0
EXTRACT: note_on channel=0 note=67 velocity=95 time=0
EXTRACT: note_on channel=0 note=63 velocity=95 time=0
EXTRACT: note_on channel=0 note=60 velocity=95 time=0
EXTRACT: note_on channel=0 note=55 velocity=95 time=0
EXTRACT: note_on channel=0 note=48 velocity=95 time=0
EXTRACT: note_off channel=4 note=67 velocity=80 time=0
EXTRACT: note_off channel=4 note=63 velocity=80 time=0
EXTRACT: note_off channel=4 note=58 velocity=80 time=0
EXTRACT: note_off channel=4 note=55 velocity=80 time=0
EXTRACT: note_off channel=4 note=51 velocity=80 time=0
EXTRACT: note_on channel=4 note=67 velocity=95 time=0
EXTRACT: note_on channel=4 note=63 velocity=95 time=0
EXTRACT: note_on channel=4 note=60 velocity=95 time=0
EXTRACT: note_on channel=4 note=55 velocity=95 time=0
EXTRACT: note_on channel=4 note=48 velocity=95 time=0
EXTRACT: note_off channel=8 note=74 velocity=80 time=0
EXTRACT: note_off channel=2 note=46 velocity=80 time=0
EXTRACT: note_on channel=2 note=48 velocity=95 time=0
EXTRACT: note_on channel=8 note=67 velocity=95 time=0.43795599999999996
EXTRACT: note_off channel=8 note=67 velocity=80 time=0.43795599999999996
EXTRACT: note_on channel=8 note=75 velocity=95 time=0
EXTRACT: note_off channel=0 note=67 velocity=80 time=0.8759119999999999
EXTRACT: note_off channel=0 note=63 velocity=80 time=0
EXTRACT: note_off channel=0 note=60 velocity=80 time=0
EXTRACT: note_off channel=0 note=55 velocity=80 time=0
EXTRACT: note_off channel=0 note=48 velocity=80 time=0
EXTRACT: note_on channel=0 note=67 velocity=95 time=0
EXTRACT: note_on channel=0 note=63 velocity=95 time=0
EXTRACT: note_on channel=0 note=58 velocity=95 time=0
EXTRACT: note_on channel=0 note=53 velocity=95 time=0
EXTRACT: note_on channel=0 note=50 velocity=95 time=0
EXTRACT: note_on channel=0 note=46 velocity=95 time=0
EXTRACT: note_off channel=4 note=67 velocity=80 time=0
EXTRACT: note_off channel=4 note=63 velocity=80 time=0
EXTRACT: note_off channel=4 note=60 velocity=80 time=0
EXTRACT: note_off channel=4 note=55 velocity=80 time=0
EXTRACT: note_off channel=4 note=48 velocity=80 time=0
EXTRACT: note_on channel=4 note=70 velocity=95 time=0
EXTRACT: note_on channel=4 note=63 velocity=95 time=0
EXTRACT: note_on channel=4 note=58 velocity=95 time=0
EXTRACT: note_on channel=4 note=53 velocity=95 time=0
EXTRACT: note_on channel=4 note=50 velocity=95 time=0
EXTRACT: note_on channel=4 note=46 velocity=95 time=0
EXTRACT: note_off channel=8 note=75 velocity=80 time=0
EXTRACT: note_off channel=2 note=48 velocity=80 time=0
EXTRACT: note_on channel=2 note=46 velocity=95 time=0
EXTRACT: note_on channel=8 note=67 velocity=95 time=0.43795599999999996
EXTRACT: note_off channel=8 note=67 velocity=80 time=0.43795599999999996
EXTRACT: note_on channel=8 note=74 velocity=95 time=0
EXTRACT: note_off channel=0 note=67 velocity=80 time=0.8759119999999999
EXTRACT: note_off channel=0 note=63 velocity=80 time=0
EXTRACT: note_off channel=0 note=58 velocity=80 time=0
EXTRACT: note_off channel=0 note=53 velocity=80 time=0
EXTRACT: note_off channel=0 note=50 velocity=80 time=0
EXTRACT: note_off channel=0 note=46 velocity=80 time=0
EXTRACT: note_on channel=0 note=67 velocity=95 time=0
EXTRACT: note_on channel=0 note=63 velocity=95 time=0
EXTRACT: note_on channel=0 note=58 velocity=95 time=0
EXTRACT: note_on channel=0 note=55 velocity=95 time=0
EXTRACT: note_on channel=0 note=51 velocity=95 time=0
EXTRACT: note_off channel=4 note=70 velocity=80 time=0
EXTRACT: note_off channel=4 note=63 velocity=80 time=0
EXTRACT: note_off channel=4 note=58 velocity=80 time=0
EXTRACT: note_off channel=4 note=53 velocity=80 time=0
EXTRACT: note_off channel=4 note=50 velocity=80 time=0
EXTRACT: note_off channel=4 note=46 velocity=80 time=0
EXTRACT: note_on channel=4 note=67 velocity=95 time=0
EXTRACT: note_on channel=4 note=63 velocity=95 time=0
EXTRACT: note_on channel=4 note=58 velocity=95 time=0
EXTRACT: note_on channel=4 note=55 velocity=95 time=0
EXTRACT: note_on channel=4 note=51 velocity=95 time=0
EXTRACT: note_off channel=8 note=74 velocity=80 time=0
EXTRACT: note_off channel=11 note=67 velocity=80 time=0
EXTRACT: note_off channel=11 note=63 velocity=80 time=0
EXTRACT: note_off channel=11 note=58 velocity=80 time=0
EXTRACT: note_off channel=11 note=55 velocity=80 time=0
EXTRACT: note_off channel=11 note=51 velocity=80 time=0
EXTRACT: note_on channel=11 note=67 velocity=95 time=0
EXTRACT: note_on channel=11 note=63 velocity=95 time=0
EXTRACT: note_on channel=11 note=58 velocity=95 time=0
EXTRACT: note_on channel=11 note=55 velocity=95 time=0
EXTRACT: note_on channel=11 note=51 velocity=95 time=0
EXTRACT: note_off channel=2 note=46 velocity=80 time=0
EXTRACT: note_on channel=2 note=39 velocity=95 time=0
EXTRACT: note_on channel=8 note=67 velocity=95 time=0.43795599999999996
EXTRACT: note_off channel=8 note=67 velocity=80 time=0.43795599999999996
EXTRACT: note_on channel=8 note=75 velocity=95 time=0
EXTRACT: note_off channel=2 note=39 velocity=80 time=0.6569339999999999
EXTRACT: note_on channel=2 note=39 velocity=95 time=0
EXTRACT: note_off channel=0 note=67 velocity=80 time=0.21897799999999998
EXTRACT: note_off channel=0 note=63 velocity=80 time=0
EXTRACT: note_off channel=0 note=58 velocity=80 time=0
EXTRACT: note_off channel=0 note=55 velocity=80 time=0
EXTRACT: note_off channel=0 note=51 velocity=80 time=0
EXTRACT: note_on channel=0 note=67 velocity=95 time=0
EXTRACT: note_on channel=0 note=62 velocity=95 time=0
EXTRACT: note_on channel=0 note=58 velocity=95 time=0
EXTRACT: note_on channel=0 note=55 velocity=95 time=0
EXTRACT: note_on channel=0 note=51 velocity=95 time=0
EXTRACT: note_off channel=8 note=75 velocity=80 time=0
EXTRACT: note_off channel=2 note=39 velocity=80 time=0
EXTRACT: note_on channel=2 note=43 velocity=95 time=0
EXTRACT: note_on channel=8 note=67 velocity=95 time=0.43795599999999996
EXTRACT: note_off channel=8 note=67 velocity=80 time=0.43795599999999996
EXTRACT: note_on channel=8 note=74 velocity=95 time=0
EXTRACT: note_off channel=2 note=43 velocity=80 time=0
EXTRACT: note_on channel=2 note=38 velocity=95 time=0
EXTRACT: note_off channel=0 note=67 velocity=80 time=0.8759119999999999
EXTRACT: note_off channel=0 note=62 velocity=80 time=0
EXTRACT: note_off channel=0 note=58 velocity=80 time=0
EXTRACT: note_off channel=0 note=55 velocity=80 time=0
EXTRACT: note_off channel=0 note=51 velocity=80 time=0
EXTRACT: note_on channel=0 note=67 velocity=95 time=0
EXTRACT: note_on channel=0 note=63 velocity=95 time=0
EXTRACT: note_on channel=0 note=60 velocity=95 time=0
EXTRACT: note_on channel=0 note=55 velocity=95 time=0
EXTRACT: note_on channel=0 note=48 velocity=95 time=0
EXTRACT: note_off channel=4 note=67 velocity=80 time=0
EXTRACT: note_off channel=4 note=63 velocity=80 time=0
EXTRACT: note_off channel=4 note=58 velocity=80 time=0
EXTRACT: note_off channel=4 note=55 velocity=80 time=0
EXTRACT: note_off channel=4 note=51 velocity=80 time=0
EXTRACT: note_on channel=4 note=67 velocity=95 time=0
EXTRACT: note_on channel=4 note=63 velocity=95 time=0
EXTRACT: note_on channel=4 note=60 velocity=95 time=0
EXTRACT: note_on channel=4 note=55 velocity=95 time=0
EXTRACT: note_on channel=4 note=48 velocity=95 time=0
EXTRACT: note_off channel=8 note=74 velocity=80 time=0
EXTRACT: note_off channel=2 note=38 velocity=80 time=0
EXTRACT: note_on channel=2 note=36 velocity=95 time=0
EXTRACT: note_on channel=8 note=67 velocity=95 time=0.43795599999999996
EXTRACT: note_off channel=8 note=67 velocity=80 time=0.43795599999999996
EXTRACT: note_on channel=8 note=75 velocity=95 time=0
EXTRACT: note_off channel=0 note=67 velocity=80 time=0.8759119999999999
EXTRACT: note_off channel=0 note=63 velocity=80 time=0
EXTRACT: note_off channel=0 note=60 velocity=80 time=0
EXTRACT: note_off channel=0 note=55 velocity=80 time=0
EXTRACT: note_off channel=0 note=48 velocity=80 time=0
EXTRACT: note_on channel=0 note=67 velocity=95 time=0
EXTRACT: note_on channel=0 note=63 velocity=95 time=0
EXTRACT: note_on channel=0 note=58 velocity=95 time=0
EXTRACT: note_on channel=0 note=53 velocity=95 time=0
EXTRACT: note_on channel=0 note=50 velocity=95 time=0
EXTRACT: note_on channel=0 note=46 velocity=95 time=0
EXTRACT: note_off channel=4 note=67 velocity=80 time=0
EXTRACT: note_off channel=4 note=63 velocity=80 time=0
EXTRACT: note_off channel=4 note=60 velocity=80 time=0
EXTRACT: note_off channel=4 note=55 velocity=80 time=0
EXTRACT: note_off channel=4 note=48 velocity=80 time=0
EXTRACT: note_on channel=4 note=70 velocity=95 time=0
EXTRACT: note_on channel=4 note=63 velocity=95 time=0
EXTRACT: note_on channel=4 note=58 velocity=95 time=0
EXTRACT: note_on channel=4 note=53 velocity=95 time=0
EXTRACT: note_on channel=4 note=50 velocity=95 time=0
EXTRACT: note_on channel=4 note=46 velocity=95 time=0
EXTRACT: note_off channel=8 note=75 velocity=80 time=0
EXTRACT: note_off channel=2 note=36 velocity=80 time=0
EXTRACT: note_on channel=2 note=34 velocity=95 time=0
EXTRACT: note_on channel=8 note=67 velocity=95 time=0.43795599999999996
EXTRACT: note_off channel=8 note=67 velocity=80 time=0.43795599999999996
EXTRACT: note_on channel=8 note=74 velocity=95 time=0
EXTRACT: control_change channel=6 control=7 value=72 time=0.6569339999999999
EXTRACT: control_change channel=7 control=7 value=72 time=0
EXTRACT: note_on channel=6 note=79 velocity=95 time=0
EXTRACT: note_off channel=6 note=79 velocity=80 time=0.21897799999999998
EXTRACT: note_on channel=6 note=82 velocity=95 time=0
EXTRACT: note_off channel=0 note=67 velocity=80 time=0
EXTRACT: note_off channel=0 note=63 velocity=80 time=0
EXTRACT: note_off channel=0 note=58 velocity=80 time=0
EXTRACT: note_off channel=0 note=53 velocity=80 time=0
EXTRACT: note_off channel=0 note=50 velocity=80 time=0
EXTRACT: note_off channel=0 note=46 velocity=80 time=0
EXTRACT: control_change channel=0 control=7 value=56 time=0
EXTRACT: control_change channel=1 control=7 value=56 time=0
EXTRACT: note_on channel=0 note=67 velocity=95 time=0
EXTRACT: note_on channel=0 note=63 velocity=95 time=0
EXTRACT: note_on channel=0 note=58 velocity=95 time=0
EXTRACT: note_on channel=0 note=55 velocity=95 time=0
EXTRACT: note_on channel=0 note=51 velocity=95 time=0
EXTRACT: note_off channel=4 note=70 velocity=80 time=0
EXTRACT: note_off channel=4 note=63 velocity=80 time=0
EXTRACT: note_off channel=4 note=58 velocity=80 time=0
EXTRACT: note_off channel=4 note=53 velocity=80 time=0
EXTRACT: note_off channel=4 note=50 velocity=80 time=0
EXTRACT: note_off channel=4 note=46 velocity=80 time=0
EXTRACT: control_change channel=4 control=7 value=40 time=0
EXTRACT: control_change channel=5 control=7 value=40 time=0
EXTRACT: note_on channel=4 note=67 velocity=95 time=0
EXTRACT: note_on channel=4 note=63 velocity=95 time=0
EXTRACT: note_on channel=4 note=58 velocity=95 time=0
EXTRACT: note_on channel=4 note=55 velocity=95 time=0
EXTRACT: note_on channel=4 note=51 velocity=95 time=0
EXTRACT: note_off channel=8 note=74 velocity=80 time=0
EXTRACT: note_off channel=11 note=67 velocity=80 time=0
EXTRACT: note_off channel=11 note=63 velocity=80 time=0
EXTRACT: note_off channel=11 note=58 velocity=80 time=0
EXTRACT: note_off channel=11 note=55 velocity=80 time=0
EXTRACT: note_off channel=11 note=51 velocity=80 time=0
EXTRACT: note_on channel=13 note=67 velocity=95 time=0
EXTRACT: note_on channel=13 note=63 velocity=95 time=0
EXTRACT: note_on channel=13 note=58 velocity=95 time=0
EXTRACT: note_on channel=13 note=55 velocity=95 time=0
EXTRACT: note_on channel=13 note=51 velocity=95 time=0
EXTRACT: note_off channel=2 note=34 velocity=80 time=0
EXTRACT: note_on channel=2 note=39 velocity=95 time=0
EXTRACT: note_off channel=6 note=82 velocity=80 time=0.43795599999999996
EXTRACT: note_on channel=6 note=82 velocity=95 time=0
EXTRACT: note_off channel=6 note=82 velocity=80 time=0.21897799999999998
EXTRACT: note_on channel=6 note=79 velocity=95 time=0
EXTRACT: note_off channel=13 note=67 velocity=80 time=0
EXTRACT: note_off channel=13 note=63 velocity=80 time=0
EXTRACT: note_off channel=13 note=58 velocity=80 time=0
EXTRACT: note_off channel=13 note=55 velocity=80 time=0
EXTRACT: note_off channel=13 note=51 velocity=80 time=0
EXTRACT: note_on channel=13 note=67 velocity=95 time=0
EXTRACT: note_on channel=13 note=63 velocity=95 time=0
EXTRACT: note_on channel=13 note=58 velocity=95 time=0
EXTRACT: note_on channel=13 note=55 velocity=95 time=0
EXTRACT: note_on channel=13 note=51 velocity=95 time=0
EXTRACT: note_off channel=13 note=67 velocity=80 time=0.21897799999999998
EXTRACT: note_off channel=13 note=63 velocity=80 time=0
EXTRACT: note_off channel=13 note=58 velocity=80 time=0
EXTRACT: note_off channel=13 note=55 velocity=80 time=0
EXTRACT: note_off channel=13 note=51 velocity=80 time=0
EXTRACT: note_on channel=13 note=67 velocity=95 time=0
EXTRACT: note_on channel=13 note=63 velocity=95 time=0
EXTRACT: note_on channel=13 note=58 velocity=95 time=0
EXTRACT: note_on channel=13 note=55 velocity=95 time=0
EXTRACT: note_on channel=13 note=51 velocity=95 time=0
EXTRACT: note_off channel=6 note=79 velocity=80 time=0.43795599999999996
EXTRACT: note_on channel=6 note=75 velocity=95 time=0
EXTRACT: note_off channel=13 note=67 velocity=80 time=0
EXTRACT: note_off channel=13 note=63 velocity=80 time=0
EXTRACT: note_off channel=13 note=58 velocity=80 time=0
EXTRACT: note_off channel=13 note=55 velocity=80 time=0
EXTRACT: note_off channel=13 note=51 velocity=80 time=0
EXTRACT: note_on channel=13 note=67 velocity=95 time=0
EXTRACT: note_on channel=13 note=63 velocity=95 time=0
EXTRACT: note_on channel=13 note=58 velocity=95 time=0
EXTRACT: note_on channel=13 note=55 velocity=95 time=0
EXTRACT: note_on channel=13 note=51 velocity=95 time=0
EXTRACT: note_off channel=13 note=67 velocity=80 time=0.21897799999999998
EXTRACT: note_off channel=13 note=63 velocity=80 time=0
EXTRACT: note_off channel=13 note=58 velocity=80 time=0
EXTRACT: note_off channel=13 note=55 velocity=80 time=0
EXTRACT: note_off channel=13 note=51 velocity=80 time=0
EXTRACT: note_on channel=13 note=67 velocity=95 time=0
EXTRACT: note_on channel=13 note=63 velocity=95 time=0
EXTRACT: note_on channel=13 note=58 velocity=95 time=0
EXTRACT: note_on channel=13 note=55 velocity=95 time=0
EXTRACT: note_on channel=13 note=51 velocity=95 time=0
EXTRACT: note_off channel=2 note=39 velocity=80 time=0
EXTRACT: note_on channel=2 note=39 velocity=95 time=0
EXTRACT: note_off channel=6 note=75 velocity=80 time=0.21897799999999998
EXTRACT: note_on channel=6 note=74 velocity=95 time=0
EXTRACT: note_off channel=0 note=67 velocity=80 time=0
EXTRACT: note_off channel=0 note=63 velocity=80 time=0
EXTRACT: note_off channel=0 note=58 velocity=80 time=0
EXTRACT: note_off channel=0 note=55 velocity=80 time=0
EXTRACT: note_off channel=0 note=51 velocity=80 time=0
EXTRACT: note_on channel=0 note=67 velocity=95 time=0
EXTRACT: note_on channel=0 note=62 velocity=95 time=0
EXTRACT: note_on channel=0 note=58 velocity=95 time=0
EXTRACT: note_on channel=0 note=55 velocity=95 time=0
EXTRACT: note_on channel=0 note=51 velocity=95 time=0
EXTRACT: note_off channel=13 note=67 velocity=80 time=0
EXTRACT: note_off channel=13 note=63 velocity=80 time=0
EXTRACT: note_off channel=13 note=58 velocity=80 time=0
EXTRACT: note_off channel=13 note=55 velocity=80 time=0
EXTRACT: note_off channel=13 note=51 velocity=80 time=0
EXTRACT: note_on channel=13 note=67 velocity=95 time=0
EXTRACT: note_on channel=13 note=62 velocity=95 time=0
EXTRACT: note_on channel=13 note=58 velocity=95 time=0
EXTRACT: note_on channel=13 note=55 velocity=95 time=0
EXTRACT: note_on channel=13 note=51 velocity=95 time=0
EXTRACT: note_off channel=2 note=39 velocity=80 time=0
EXTRACT: note_on channel=2 note=43 velocity=95 time=0
EXTRACT: note_off channel=6 note=74 velocity=80 time=0.43795599999999996
EXTRACT: note_on channel=6 note=74 velocity=95 time=0
EXTRACT: note_off channel=6 note=74 velocity=80 time=0.21897799999999998
EXTRACT: note_on channel=7 note=74 velocity=95 time=0
EXTRACT: note_off channel=13 note=67 velocity=80 time=0
EXTRACT: note_off channel=13 note=62 velocity=80 time=0
EXTRACT: note_off channel=13 note=58 velocity=80 time=0
EXTRACT: note_off channel=13 note=55 velocity=80 time=0
EXTRACT: note_off channel=13 note=51 velocity=80 time=0
EXTRACT: note_on channel=13 note=67 velocity=95 time=0
EXTRACT: note_on channel=13 note=62 velocity=95 time=0
EXTRACT: note_on channel=13 note=58 velocity=95 time=0
EXTRACT: note_on channel=13 note=55 velocity=95 time=0
EXTRACT: note_on channel=13 note=51 velocity=95 time=0
EXTRACT: note_off channel=13 note=67 velocity=80 time=0.21897799999999998
EXTRACT: note_off channel=13 note=62 velocity=80 time=0
EXTRACT: note_off channel=13 note=58 velocity=80 time=0
EXTRACT: note_off channel=13 note=55 velocity=80 time=0
EXTRACT: note_off channel=13 note=51 velocity=80 time=0
EXTRACT: note_on channel=13 note=67 velocity=95 time=0
EXTRACT: note_on channel=13 note=62 velocity=95 time=0
EXTRACT: note_on channel=13 note=58 velocity=95 time=0
EXTRACT: note_on channel=13 note=55 velocity=95 time=0
EXTRACT: note_on channel=13 note=51 velocity=95 time=0
EXTRACT: note_off channel=2 note=43 velocity=80 time=0
EXTRACT: note_on channel=2 note=46 velocity=95 time=0
EXTRACT: pitchwheel channel=7 pitch=-640 time=0.32846699999999995
EXTRACT: note_off channel=13 note=67 velocity=80 time=0.10948899999999999
EXTRACT: note_off channel=13 note=62 velocity=80 time=0
EXTRACT: note_off channel=13 note=58 velocity=80 time=0
EXTRACT: note_off channel=13 note=55 velocity=80 time=0
EXTRACT: note_off channel=13 note=51 velocity=80 time=0
EXTRACT: note_on channel=13 note=67 velocity=95 time=0
EXTRACT: note_on channel=13 note=62 velocity=95 time=0
EXTRACT: note_on channel=13 note=58 velocity=95 time=0
EXTRACT: note_on channel=13 note=55 velocity=95 time=0
EXTRACT: note_on channel=13 note=51 velocity=95 time=0
EXTRACT: note_off channel=13 note=67 velocity=80 time=0.21897799999999998
EXTRACT: note_off channel=13 note=62 velocity=80 time=0
EXTRACT: note_off channel=13 note=58 velocity=80 time=0
EXTRACT: note_off channel=13 note=55 velocity=80 time=0
EXTRACT: note_off channel=13 note=51 velocity=80 time=0
EXTRACT: note_on channel=13 note=67 velocity=95 time=0
EXTRACT: note_on channel=13 note=62 velocity=95 time=0
EXTRACT: note_on channel=13 note=58 velocity=95 time=0
EXTRACT: note_on channel=13 note=55 velocity=95 time=0
EXTRACT: note_on channel=13 note=51 velocity=95 time=0
EXTRACT: pitchwheel channel=7 pitch=-1408 time=0.21897799999999998
EXTRACT: note_off channel=0 note=67 velocity=80 time=0
EXTRACT: note_off channel=0 note=62 velocity=80 time=0
EXTRACT: note_off channel=0 note=58 velocity=80 time=0
EXTRACT: note_off channel=0 note=55 velocity=80 time=0
EXTRACT: note_off channel=0 note=51 velocity=80 time=0
EXTRACT: note_on channel=0 note=67 velocity=95 time=0
EXTRACT: note_on channel=0 note=63 velocity=95 time=0
EXTRACT: note_on channel=0 note=60 velocity=95 time=0
EXTRACT: note_on channel=0 note=55 velocity=95 time=0
EXTRACT: note_on channel=0 note=48 velocity=95 time=0
EXTRACT: note_off channel=4 note=67 velocity=80 time=0
EXTRACT: note_off channel=4 note=63 velocity=80 time=0
EXTRACT: note_off channel=4 note=58 velocity=80 time=0
EXTRACT: note_off channel=4 note=55 velocity=80 time=0
EXTRACT: note_off channel=4 note=51 velocity=80 time=0
EXTRACT: note_on channel=4 note=67 velocity=95 time=0
EXTRACT: note_on channel=4 note=63 velocity=95 time=0
EXTRACT: note_on channel=4 note=60 velocity=95 time=0
EXTRACT: note_on channel=4 note=55 velocity=95 time=0
EXTRACT: note_on channel=4 note=48 velocity=95 time=0
EXTRACT: note_off channel=13 note=67 velocity=80 time=0
EXTRACT: note_off channel=13 note=62 velocity=80 time=0
EXTRACT: note_off channel=13 note=58 velocity=80 time=0
EXTRACT: note_off channel=13 note=55 velocity=80 time=0
EXTRACT: note_off channel=13 note=51 velocity=80 time=0
EXTRACT: note_on channel=13 note=67 velocity=95 time=0
EXTRACT: note_on channel=13 note=63 velocity=95 time=0
EXTRACT: note_on channel=13 note=60 velocity=95 time=0
EXTRACT: note_on channel=13 note=55 velocity=95 time=0
EXTRACT: note_on channel=13 note=48 velocity=95 time=0
EXTRACT: note_off channel=2 note=46 velocity=80 time=0
EXTRACT: note_on channel=2 note=48 velocity=95 time=0
EXTRACT: note_off channel=13 note=67 velocity=80 time=0.6569339999999999
EXTRACT: note_off channel=13 note=63 velocity=80 time=0
EXTRACT: note_off channel=13 note=60 velocity=80 time=0
EXTRACT: note_off channel=13 note=55 velocity=80 time=0
EXTRACT: note_off channel=13 note=48 velocity=80 time=0
EXTRACT: note_on channel=13 note=67 velocity=95 time=0
EXTRACT: note_on channel=13 note=63 velocity=95 time=0
EXTRACT: note_on channel=13 note=60 velocity=95 time=0
EXTRACT: note_on channel=13 note=55 velocity=95 time=0
EXTRACT: note_on channel=13 note=48 velocity=95 time=0
EXTRACT: note_off channel=13 note=67 velocity=80 time=0.21897799999999998
EXTRACT: note_off channel=13 note=63 velocity=80 time=0
EXTRACT: note_off channel=13 note=60 velocity=80 time=0
EXTRACT: note_off channel=13 note=55 velocity=80 time=0
EXTRACT: note_off channel=13 note=48 velocity=80 time=0
EXTRACT: note_on channel=13 note=67 velocity=95 time=0
EXTRACT: note_on channel=13 note=63 velocity=95 time=0
EXTRACT: note_on channel=13 note=60 velocity=95 time=0
EXTRACT: note_on channel=13 note=55 velocity=95 time=0
EXTRACT: note_on channel=13 note=48 velocity=95 time=0
EXTRACT: note_off channel=7 note=74 velocity=80 time=0.43795599999999996
EXTRACT: pitchwheel channel=7 pitch=0 time=0
EXTRACT: note_off channel=13 note=67 velocity=80 time=0
EXTRACT: note_off channel=13 note=63 velocity=80 time=0
EXTRACT: note_off channel=13 note=60 velocity=80 time=0
EXTRACT: note_off channel=13 note=55 velocity=80 time=0
EXTRACT: note_off channel=13 note=48 velocity=80 time=0
EXTRACT: note_on channel=13 note=67 velocity=95 time=0
EXTRACT: note_on channel=13 note=63 velocity=95 time=0
EXTRACT: note_on channel=13 note=60 velocity=95 time=0
EXTRACT: note_on channel=13 note=55 velocity=95 time=0
EXTRACT: note_on channel=13 note=48 velocity=95 time=0
EXTRACT: note_off channel=13 note=67 velocity=80 time=0.21897799999999998
EXTRACT: note_off channel=13 note=63 velocity=80 time=0
EXTRACT: note_off channel=13 note=60 velocity=80 time=0
EXTRACT: note_off channel=13 note=55 velocity=80 time=0
EXTRACT: note_off channel=13 note=48 velocity=80 time=0
EXTRACT: note_on channel=13 note=67 velocity=95 time=0
EXTRACT: note_on channel=13 note=63 velocity=95 time=0
EXTRACT: note_on channel=13 note=60 velocity=95 time=0
EXTRACT: note_on channel=13 note=55 velocity=95 time=0
EXTRACT: note_on channel=13 note=48 velocity=95 time=0
EXTRACT: note_off channel=0 note=67 velocity=80 time=0.21897799999999998
EXTRACT: note_off channel=0 note=63 velocity=80 time=0
EXTRACT: note_off channel=0 note=60 velocity=80 time=0
EXTRACT: note_off channel=0 note=55 velocity=80 time=0
EXTRACT: note_off channel=0 note=48 velocity=80 time=0
EXTRACT: note_on channel=0 note=67 velocity=95 time=0
EXTRACT: note_on channel=0 note=63 velocity=95 time=0
EXTRACT: note_on channel=0 note=58 velocity=95 time=0
EXTRACT: note_on channel=0 note=53 velocity=95 time=0
EXTRACT: note_on channel=0 note=50 velocity=95 time=0
EXTRACT: note_on channel=0 note=46 velocity=95 time=0
EXTRACT: note_off channel=4 note=67 velocity=80 time=0
EXTRACT: note_off channel=4 note=63 velocity=80 time=0
EXTRACT: note_off channel=4 note=60 velocity=80 time=0
EXTRACT: note_off channel=4 note=55 velocity=80 time=0
EXTRACT: note_off channel=4 note=48 velocity=80 time=0
EXTRACT: note_on channel=4 note=70 velocity=95 time=0
EXTRACT: note_on channel=4 note=63 velocity=95 time=0
EXTRACT: note_on channel=4 note=58 velocity=95 time=0
EXTRACT: note_on channel=4 note=53 velocity=95 time=0
EXTRACT: note_on channel=4 note=50 velocity=95 time=0
EXTRACT: note_on channel=4 note=46 velocity=95 time=0
EXTRACT: note_off channel=13 note=67 velocity=80 time=0
EXTRACT: note_off channel=13 note=63 velocity=80 time=0
EXTRACT: note_off channel=13 note=60 velocity=80 time=0
EXTRACT: note_off channel=13 note=55 velocity=80 time=0
EXTRACT: note_off channel=13 note=48 velocity=80 time=0
EXTRACT: note_on channel=13 note=67 velocity=95 time=0
EXTRACT: note_on channel=13 note=63 velocity=95 time=0
EXTRACT: note_on channel=13 note=58 velocity=95 time=0
EXTRACT: note_on channel=13 note=53 velocity=95 time=0
EXTRACT: note_on channel=13 note=50 velocity=95 time=0
EXTRACT: note_on channel=13 note=46 velocity=95 time=0
EXTRACT: note_off channel=2 note=48 velocity=80 time=0
EXTRACT: note_on channel=2 note=46 velocity=95 time=0
EXTRACT: note_off channel=13 note=46 velocity=80 time=0.43795599999999996
EXTRACT: note_off channel=13 note=67 velocity=80 time=0.21897799999999998
EXTRACT: note_off channel=13 note=63 velocity=80 time=0
EXTRACT: note_off channel=13 note=58 velocity=80 time=0
EXTRACT: note_off channel=13 note=53 velocity=80 time=0
EXTRACT: note_off channel=13 note=50 velocity=80 time=0
EXTRACT: note_on channel=13 note=67 velocity=95 time=0
EXTRACT: note_on channel=13 note=63 velocity=95 time=0
EXTRACT: note_on channel=13 note=58 velocity=95 time=0
EXTRACT: note_on channel=13 note=53 velocity=95 time=0
EXTRACT: note_on channel=13 note=50 velocity=95 time=0
EXTRACT: note_on channel=13 note=46 velocity=95 time=0
EXTRACT: note_off channel=13 note=67 velocity=80 time=0.21897799999999998
EXTRACT: note_off channel=13 note=63 velocity=80 time=0
EXTRACT: note_off channel=13 note=58 velocity=80 time=0
EXTRACT: note_off channel=13 note=53 velocity=80 time=0
EXTRACT: note_off channel=13 note=50 velocity=80 time=0
EXTRACT: note_off channel=13 note=46 velocity=80 time=0
EXTRACT: note_on channel=13 note=67 velocity=95 time=0
EXTRACT: note_on channel=13 note=63 velocity=95 time=0
EXTRACT: note_on channel=13 note=58 velocity=95 time=0
EXTRACT: note_on channel=13 note=53 velocity=95 time=0
EXTRACT: note_on channel=13 note=50 velocity=95 time=0
EXTRACT: note_on channel=13 note=46 velocity=95 time=0
EXTRACT: note_on channel=6 note=75 velocity=86 time=0.43795599999999996
EXTRACT: note_off channel=13 note=67 velocity=80 time=0
EXTRACT: note_off channel=13 note=63 velocity=80 time=0
EXTRACT: note_off channel=13 note=58 velocity=80 time=0
EXTRACT: note_off channel=13 note=53 velocity=80 time=0
EXTRACT: note_off channel=13 note=50 velocity=80 time=0
EXTRACT: note_off channel=13 note=46 velocity=80 time=0
EXTRACT: note_on channel=13 note=67 velocity=95 time=0
EXTRACT: note_on channel=13 note=63 velocity=95 time=0
EXTRACT: note_on channel=13 note=58 velocity=95 time=0
EXTRACT: note_on channel=13 note=53 velocity=95 time=0
EXTRACT: note_on channel=13 note=50 velocity=95 time=0
EXTRACT: note_on channel=13 note=46 velocity=95 time=0
EXTRACT: note_off channel=6 note=75 velocity=80 time=0.21897799999999998
EXTRACT: note_on channel=6 note=79 velocity=95 time=0
EXTRACT: note_off channel=13 note=67 velocity=80 time=0
EXTRACT: note_off channel=13 note=63 velocity=80 time=0
EXTRACT: note_off channel=13 note=58 velocity=80 time=0
EXTRACT: note_off channel=13 note=53 velocity=80 time=0
EXTRACT: note_off channel=13 note=50 velocity=80 time=0
EXTRACT: note_off channel=13 note=46 velocity=80 time=0
EXTRACT: note_on channel=13 note=67 velocity=95 time=0
EXTRACT: note_on channel=13 note=63 velocity=95 time=0
EXTRACT: note_on channel=13 note=58 velocity=95 time=0
EXTRACT: note_on channel=13 note=53 velocity=95 time=0
EXTRACT: note_on channel=13 note=50 velocity=95 time=0
EXTRACT: note_on channel=13 note=46 velocity=95 time=0
EXTRACT: note_off channel=6 note=79 velocity=80 time=0.21897799999999998
EXTRACT: note_on channel=6 note=82 velocity=95 time=0
EXTRACT: note_off channel=0 note=67 velocity=80 time=0
EXTRACT: note_off channel=0 note=63 velocity=80 time=0
EXTRACT: note_off channel=0 note=58 velocity=80 time=0
EXTRACT: note_off channel=0 note=53 velocity=80 time=0
EXTRACT: note_off channel=0 note=50 velocity=80 time=0
EXTRACT: note_off channel=0 note=46 velocity=80 time=0
EXTRACT: note_on channel=0 note=67 velocity=95 time=0
EXTRACT: note_on channel=0 note=63 velocity=95 time=0
EXTRACT: note_on channel=0 note=58 velocity=95 time=0
EXTRACT: note_on channel=0 note=55 velocity=95 time=0
EXTRACT: note_on channel=0 note=51 velocity=95 time=0
EXTRACT: note_off channel=4 note=70 velocity=80 time=0
EXTRACT: note_off channel=4 note=63 velocity=80 time=0
EXTRACT: note_off channel=4 note=58 velocity=80 time=0
EXTRACT: note_off channel=4 note=53 velocity=80 time=0
EXTRACT: note_off channel=4 note=50 velocity=80 time=0
EXTRACT: note_off channel=4 note=46 velocity=80 time=0
EXTRACT: note_on channel=4 note=67 velocity=95 time=0
EXTRACT: note_on channel=4 note=63 velocity=95 time=0
EXTRACT: note_on channel=4 note=58 velocity=95 time=0
EXTRACT: note_on channel=4 note=55 velocity=95 time=0
EXTRACT: note_on channel=4 note=51 velocity=95 time=0
EXTRACT: note_off channel=13 note=67 velocity=80 time=0
EXTRACT: note_off channel=13 note=63 velocity=80 time=0
EXTRACT: note_off channel=13 note=58 velocity=80 time=0
EXTRACT: note_off channel=13 note=53 velocity=80 time=0
EXTRACT: note_off channel=13 note=50 velocity=80 time=0
EXTRACT: note_off channel=13 note=46 velocity=80 time=0
EXTRACT: note_on channel=13 note=67 velocity=95 time=0
EXTRACT: note_on channel=13 note=63 velocity=95 time=0
EXTRACT: note_on channel=13 note=58 velocity=95 time=0
EXTRACT: note_on channel=13 note=55 velocity=95 time=0
EXTRACT: note_on channel=13 note=51 velocity=95 time=0
EXTRACT: note_off channel=2 note=46 velocity=80 time=0
EXTRACT: note_on channel=2 note=39 velocity=95 time=0
EXTRACT: note_off channel=6 note=82 velocity=80 time=0.43795599999999996
EXTRACT: note_on channel=6 note=82 velocity=95 time=0
EXTRACT: note_off channel=6 note=82 velocity=80 time=0.21897799999999998
EXTRACT: note_on channel=6 note=79 velocity=95 time=0
EXTRACT: note_off channel=13 note=67 velocity=80 time=0
EXTRACT: note_off channel=13 note=63 velocity=80 time=0
EXTRACT: note_off channel=13 note=58 velocity=80 time=0
EXTRACT: note_off channel=13 note=55 velocity=80 time=0
EXTRACT: note_off channel=13 note=51 velocity=80 time=0
EXTRACT: note_on channel=13 note=67 velocity=95 time=0
EXTRACT: note_on channel=13 note=63 velocity=95 time=0
EXTRACT: note_on channel=13 note=58 velocity=95 time=0
EXTRACT: note_on channel=13 note=55 velocity=95 time=0
EXTRACT: note_on channel=13 note=51 velocity=95 time=0
EXTRACT: note_off channel=13 note=67 velocity=80 time=0.21897799999999998
EXTRACT: note_off channel=13 note=63 velocity=80 time=0
EXTRACT: note_off channel=13 note=58 velocity=80 time=0
EXTRACT: note_off channel=13 note=55 velocity=80 time=0
EXTRACT: note_off channel=13 note=51 velocity=80 time=0
EXTRACT: note_on channel=13 note=67 velocity=95 time=0
EXTRACT: note_on channel=13 note=63 velocity=95 time=0
EXTRACT: note_on channel=13 note=58 velocity=95 time=0
EXTRACT: note_on channel=13 note=55 velocity=95 time=0
EXTRACT: note_on channel=13 note=51 velocity=95 time=0
EXTRACT: note_off channel=6 note=79 velocity=80 time=0.43795599999999996
EXTRACT: note_on channel=6 note=75 velocity=95 time=0
EXTRACT: note_off channel=13 note=67 velocity=80 time=0
EXTRACT: note_off channel=13 note=63 velocity=80 time=0
EXTRACT: note_off channel=13 note=58 velocity=80 time=0
EXTRACT: note_off channel=13 note=55 velocity=80 time=0
EXTRACT: note_off channel=13 note=51 velocity=80 time=0
EXTRACT: note_on channel=13 note=67 velocity=95 time=0
EXTRACT: note_on channel=13 note=63 velocity=95 time=0
EXTRACT: note_on channel=13 note=58 velocity=95 time=0
EXTRACT: note_on channel=13 note=55 velocity=95 time=0
EXTRACT: note_on channel=13 note=51 velocity=95 time=0
EXTRACT: note_off channel=13 note=67 velocity=80 time=0.21897799999999998
EXTRACT: note_off channel=13 note=63 velocity=80 time=0
EXTRACT: note_off channel=13 note=58 velocity=80 time=0
EXTRACT: note_off channel=13 note=55 velocity=80 time=0
EXTRACT: note_off channel=13 note=51 velocity=80 time=0
EXTRACT: note_on channel=13 note=67 velocity=95 time=0
EXTRACT: note_on channel=13 note=63 velocity=95 time=0
EXTRACT: note_on channel=13 note=58 velocity=95 time=0
EXTRACT: note_on channel=13 note=55 velocity=95 time=0
EXTRACT: note_on channel=13 note=51 velocity=95 time=0
EXTRACT: note_off channel=2 note=39 velocity=80 time=0
EXTRACT: note_on channel=2 note=39 velocity=95 time=0
EXTRACT: note_off channel=6 note=75 velocity=80 time=0.21897799999999998
EXTRACT: note_on channel=6 note=74 velocity=95 time=0
EXTRACT: note_off channel=0 note=67 velocity=80 time=0
EXTRACT: note_off channel=0 note=63 velocity=80 time=0
EXTRACT: note_off channel=0 note=58 velocity=80 time=0
EXTRACT: note_off channel=0 note=55 velocity=80 time=0
EXTRACT: note_off channel=0 note=51 velocity=80 time=0
EXTRACT: note_on channel=0 note=67 velocity=95 time=0
EXTRACT: note_on channel=0 note=62 velocity=95 time=0
EXTRACT: note_on channel=0 note=58 velocity=95 time=0
EXTRACT: note_on channel=0 note=55 velocity=95 time=0
EXTRACT: note_on channel=0 note=51 velocity=95 time=0
EXTRACT: note_off channel=13 note=67 velocity=80 time=0
EXTRACT: note_off channel=13 note=63 velocity=80 time=0
EXTRACT: note_off channel=13 note=58 velocity=80 time=0
EXTRACT: note_off channel=13 note=55 velocity=80 time=0
EXTRACT: note_off channel=13 note=51 velocity=80 time=0
EXTRACT: note_on channel=13 note=67 velocity=95 time=0
EXTRACT: note_on channel=13 note=62 velocity=95 time=0
EXTRACT: note_on channel=13 note=58 velocity=95 time=0
EXTRACT: note_on channel=13 note=55 velocity=95 time=0
EXTRACT: note_on channel=13 note=51 velocity=95 time=0
EXTRACT: note_off channel=2 note=39 velocity=80 time=0
EXTRACT: note_on channel=2 note=43 velocity=95 time=0
EXTRACT: note_off channel=6 note=74 velocity=80 time=0.43795599999999996
EXTRACT: note_on channel=6 note=74 velocity=95 time=0
EXTRACT: note_off channel=6 note=74 velocity=80 time=0.21897799999999998
EXTRACT: note_on channel=7 note=74 velocity=95 time=0
EXTRACT: note_off channel=13 note=67 velocity=80 time=0
EXTRACT: note_off channel=13 note=62 velocity=80 time=0
EXTRACT: note_off channel=13 note=58 velocity=80 time=0
EXTRACT: note_off channel=13 note=55 velocity=80 time=0
EXTRACT: note_off channel=13 note=51 velocity=80 time=0
EXTRACT: note_on channel=13 note=67 velocity=95 time=0
EXTRACT: note_on channel=13 note=62 velocity=95 time=0
EXTRACT: note_on channel=13 note=58 velocity=95 time=0
EXTRACT: note_on channel=13 note=55 velocity=95 time=0
EXTRACT: note_on channel=13 note=51 velocity=95 time=0
EXTRACT: note_off channel=13 note=67 velocity=80 time=0.21897799999999998
EXTRACT: note_off channel=13 note=62 velocity=80 time=0
EXTRACT: note_off channel=13 note=58 velocity=80 time=0
EXTRACT: note_off channel=13 note=55 velocity=80 time=0
EXTRACT: note_off channel=13 note=51 velocity=80 time=0
EXTRACT: note_on channel=13 note=67 velocity=95 time=0
EXTRACT: note_on channel=13 note=62 velocity=95 time=0
EXTRACT: note_on channel=13 note=58 velocity=95 time=0
EXTRACT: note_on channel=13 note=55 velocity=95 time=0
EXTRACT: note_on channel=13 note=51 velocity=95 time=0
EXTRACT: note_off channel=2 note=43 velocity=80 time=0
EXTRACT: note_on channel=2 note=38 velocity=95 time=0
EXTRACT: pitchwheel channel=7 pitch=-640 time=0.32846699999999995
EXTRACT: note_off channel=13 note=67 velocity=80 time=0.10948899999999999
EXTRACT: note_off channel=13 note=62 velocity=80 time=0
EXTRACT: note_off channel=13 note=58 velocity=80 time=0
EXTRACT: note_off channel=13 note=55 velocity=80 time=0
EXTRACT: note_off channel=13 note=51 velocity=80 time=0
EXTRACT: note_on channel=13 note=67 velocity=95 time=0
EXTRACT: note_on channel=13 note=62 velocity=95 time=0
EXTRACT: note_on channel=13 note=58 velocity=95 time=0
EXTRACT: note_on channel=13 note=55 velocity=95 time=0
EXTRACT: note_on channel=13 note=51 velocity=95 time=0
EXTRACT: note_off channel=13 note=67 velocity=80 time=0.21897799999999998
EXTRACT: note_off channel=13 note=62 velocity=80 time=0
EXTRACT: note_off channel=13 note=58 velocity=80 time=0
EXTRACT: note_off channel=13 note=55 velocity=80 time=0
EXTRACT: note_off channel=13 note=51 velocity=80 time=0
EXTRACT: note_on channel=13 note=67 velocity=95 time=0
EXTRACT: note_on channel=13 note=62 velocity=95 time=0
EXTRACT: note_on channel=13 note=58 velocity=95 time=0
EXTRACT: note_on channel=13 note=55 velocity=95 time=0
EXTRACT: note_on channel=13 note=51 velocity=95 time=0
EXTRACT: pitchwheel channel=7 pitch=-1408 time=0.21897799999999998
EXTRACT: note_off channel=0 note=67 velocity=80 time=0
EXTRACT: note_off channel=0 note=62 velocity=80 time=0
EXTRACT: note_off channel=0 note=58 velocity=80 time=0
EXTRACT: note_off channel=0 note=55 velocity=80 time=0
EXTRACT: note_off channel=0 note=51 velocity=80 time=0
EXTRACT: note_on channel=0 note=67 velocity=95 time=0
EXTRACT: note_on channel=0 note=63 velocity=95 time=0
EXTRACT: note_on channel=0 note=60 velocity=95 time=0
EXTRACT: note_on channel=0 note=55 velocity=95 time=0
EXTRACT: note_on channel=0 note=48 velocity=95 time=0
EXTRACT: note_off channel=4 note=67 velocity=80 time=0
EXTRACT: note_off channel=4 note=63 velocity=80 time=0
EXTRACT: note_off channel=4 note=58 velocity=80 time=0
EXTRACT: note_off channel=4 note=55 velocity=80 time=0
EXTRACT: note_off channel=4 note=51 velocity=80 time=0
EXTRACT: note_on channel=4 note=67 velocity=95 time=0
EXTRACT: note_on channel=4 note=63 velocity=95 time=0
EXTRACT: note_on channel=4 note=60 velocity=95 time=0
EXTRACT: note_on channel=4 note=55 velocity=95 time=0
EXTRACT: note_on channel=4 note=48 velocity=95 time=0
EXTRACT: note_off channel=13 note=67 velocity=80 time=0
EXTRACT: note_off channel=13 note=62 velocity=80 time=0
EXTRACT: note_off channel=13 note=58 velocity=80 time=0
EXTRACT: note_off channel=13 note=55 velocity=80 time=0
EXTRACT: note_off channel=13 note=51 velocity=80 time=0
EXTRACT: note_on channel=13 note=67 velocity=95 time=0
EXTRACT: note_on channel=13 note=63 velocity=95 time=0
EXTRACT: note_on channel=13 note=60 velocity=95 time=0
EXTRACT: note_on channel=13 note=55 velocity=95 time=0
EXTRACT: note_on channel=13 note=48 velocity=95 time=0
EXTRACT: note_off channel=2 note=38 velocity=80 time=0
EXTRACT: note_on channel=2 note=36 velocity=95 time=0
EXTRACT: note_off channel=13 note=67 velocity=80 time=0.6569339999999999
EXTRACT: note_off channel=13 note=63 velocity=80 time=0
EXTRACT: note_off channel=13 note=60 velocity=80 time=0
EXTRACT: note_off channel=13 note=55 velocity=80 time=0
EXTRACT: note_off channel=13 note=48 velocity=80 time=0
EXTRACT: note_on channel=13 note=67 velocity=95 time=0
EXTRACT: note_on channel=13 note=63 velocity=95 time=0
EXTRACT: note_on channel=13 note=60 velocity=95 time=0
EXTRACT: note_on channel=13 note=55 velocity=95 time=0
EXTRACT: note_on channel=13 note=48 velocity=95 time=0
EXTRACT: note_off channel=13 note=67 velocity=80 time=0.21897799999999998
EXTRACT: note_off channel=13 note=63 velocity=80 time=0
EXTRACT: note_off channel=13 note=60 velocity=80 time=0
EXTRACT: note_off channel=13 note=55 velocity=80 time=0
EXTRACT: note_off channel=13 note=48 velocity=80 time=0
EXTRACT: note_on channel=13 note=67 velocity=95 time=0
EXTRACT: note_on channel=13 note=63 velocity=95 time=0
EXTRACT: note_on channel=13 note=60 velocity=95 time=0
EXTRACT: note_on channel=13 note=55 velocity=95 time=0
EXTRACT: note_on channel=13 note=48 velocity=95 time=0
EXTRACT: note_off channel=7 note=74 velocity=80 time=0.43795599999999996
EXTRACT: pitchwheel channel=7 pitch=0 time=0
EXTRACT: note_off channel=13 note=67 velocity=80 time=0
EXTRACT: note_off channel=13 note=63 velocity=80 time=0
EXTRACT: note_off channel=13 note=60 velocity=80 time=0
EXTRACT: note_off channel=13 note=55 velocity=80 time=0
EXTRACT: note_off channel=13 note=48 velocity=80 time=0
EXTRACT: note_on channel=13 note=67 velocity=95 time=0
EXTRACT: note_on channel=13 note=63 velocity=95 time=0
EXTRACT: note_on channel=13 note=60 velocity=95 time=0
EXTRACT: note_on channel=13 note=55 velocity=95 time=0
EXTRACT: note_on channel=13 note=48 velocity=95 time=0
EXTRACT: note_off channel=13 note=67 velocity=80 time=0.21897799999999998
EXTRACT: note_off channel=13 note=63 velocity=80 time=0
EXTRACT: note_off channel=13 note=60 velocity=80 time=0
EXTRACT: note_off channel=13 note=55 velocity=80 time=0
EXTRACT: note_off channel=13 note=48 velocity=80 time=0
EXTRACT: note_on channel=13 note=67 velocity=95 time=0
EXTRACT: note_on channel=13 note=63 velocity=95 time=0
EXTRACT: note_on channel=13 note=60 velocity=95 time=0
EXTRACT: note_on channel=13 note=55 velocity=95 time=0
EXTRACT: note_on channel=13 note=48 velocity=95 time=0
EXTRACT: note_off channel=0 note=67 velocity=80 time=0.21897799999999998
EXTRACT: note_off channel=0 note=63 velocity=80 time=0
EXTRACT: note_off channel=0 note=60 velocity=80 time=0
EXTRACT: note_off channel=0 note=55 velocity=80 time=0
EXTRACT: note_off channel=0 note=48 velocity=80 time=0
EXTRACT: note_on channel=0 note=67 velocity=95 time=0
EXTRACT: note_on channel=0 note=63 velocity=95 time=0
EXTRACT: note_on channel=0 note=58 velocity=95 time=0
EXTRACT: note_on channel=0 note=53 velocity=95 time=0
EXTRACT: note_on channel=0 note=50 velocity=95 time=0
EXTRACT: note_on channel=0 note=46 velocity=95 time=0
EXTRACT: note_off channel=4 note=67 velocity=80 time=0
EXTRACT: note_off channel=4 note=63 velocity=80 time=0
EXTRACT: note_off channel=4 note=60 velocity=80 time=0
EXTRACT: note_off channel=4 note=55 velocity=80 time=0
EXTRACT: note_off channel=4 note=48 velocity=80 time=0
EXTRACT: note_on channel=4 note=70 velocity=95 time=0
EXTRACT: note_on channel=4 note=63 velocity=95 time=0
EXTRACT: note_on channel=4 note=58 velocity=95 time=0
EXTRACT: note_on channel=4 note=53 velocity=95 time=0
EXTRACT: note_on channel=4 note=50 velocity=95 time=0
EXTRACT: note_on channel=4 note=46 velocity=95 time=0
EXTRACT: note_off channel=13 note=67 velocity=80 time=0
EXTRACT: note_off channel=13 note=63 velocity=80 time=0
EXTRACT: note_off channel=13 note=60 velocity=80 time=0
EXTRACT: note_off channel=13 note=55 velocity=80 time=0
EXTRACT: note_off channel=13 note=48 velocity=80 time=0
EXTRACT: note_on channel=13 note=67 velocity=95 time=0
EXTRACT: note_on channel=13 note=63 velocity=95 time=0
EXTRACT: note_on channel=13 note=58 velocity=95 time=0
EXTRACT: note_on channel=13 note=53 velocity=95 time=0
EXTRACT: note_on channel=13 note=50 velocity=95 time=0
EXTRACT: note_on channel=13 note=46 velocity=95 time=0
EXTRACT: note_off channel=2 note=36 velocity=80 time=0
EXTRACT: note_on channel=2 note=34 velocity=95 time=0
EXTRACT: note_off channel=13 note=46 velocity=80 time=0.43795599999999996
EXTRACT: note_off channel=13 note=67 velocity=80 time=0.21897799999999998
EXTRACT: note_off channel=13 note=63 velocity=80 time=0
EXTRACT: note_off channel=13 note=58 velocity=80 time=0
EXTRACT: note_off channel=13 note=53 velocity=80 time=0
EXTRACT: note_off channel=13 note=50 velocity=80 time=0
EXTRACT: note_on channel=13 note=67 velocity=95 time=0
EXTRACT: note_on channel=13 note=63 velocity=95 time=0
EXTRACT: note_on channel=13 note=58 velocity=95 time=0
EXTRACT: note_on channel=13 note=53 velocity=95 time=0
EXTRACT: note_on channel=13 note=50 velocity=95 time=0
EXTRACT: note_on channel=13 note=46 velocity=95 time=0
EXTRACT: note_off channel=13 note=67 velocity=80 time=0.21897799999999998
EXTRACT: note_off channel=13 note=63 velocity=80 time=0
EXTRACT: note_off channel=13 note=58 velocity=80 time=0
EXTRACT: note_off channel=13 note=53 velocity=80 time=0
EXTRACT: note_off channel=13 note=50 velocity=80 time=0
EXTRACT: note_off channel=13 note=46 velocity=80 time=0
EXTRACT: note_on channel=13 note=67 velocity=95 time=0
EXTRACT: note_on channel=13 note=63 velocity=95 time=0
EXTRACT: note_on channel=13 note=58 velocity=95 time=0
EXTRACT: note_on channel=13 note=53 velocity=95 time=0
EXTRACT: note_on channel=13 note=50 velocity=95 time=0
EXTRACT: note_on channel=13 note=46 velocity=95 time=0
EXTRACT: note_on channel=6 note=75 velocity=86 time=0.43795599999999996
EXTRACT: note_off channel=13 note=67 velocity=80 time=0
EXTRACT: note_off channel=13 note=63 velocity=80 time=0
EXTRACT: note_off channel=13 note=58 velocity=80 time=0
EXTRACT: note_off channel=13 note=53 velocity=80 time=0
EXTRACT: note_off channel=13 note=50 velocity=80 time=0
EXTRACT: note_off channel=13 note=46 velocity=80 time=0
EXTRACT: note_on channel=13 note=67 velocity=95 time=0
EXTRACT: note_on channel=13 note=63 velocity=95 time=0
EXTRACT: note_on channel=13 note=58 velocity=95 time=0
EXTRACT: note_on channel=13 note=53 velocity=95 time=0
EXTRACT: note_on channel=13 note=50 velocity=95 time=0
EXTRACT: note_on channel=13 note=46 velocity=95 time=0
EXTRACT: note_off channel=6 note=75 velocity=80 time=0.21897799999999998
EXTRACT: note_on channel=6 note=79 velocity=95 time=0
EXTRACT: note_off channel=13 note=67 velocity=80 time=0
EXTRACT: note_off channel=13 note=63 velocity=80 time=0
EXTRACT: note_off channel=13 note=58 velocity=80 time=0
EXTRACT: note_off channel=13 note=53 velocity=80 time=0
EXTRACT: note_off channel=13 note=50 velocity=80 time=0
EXTRACT: note_off channel=13 note=46 velocity=80 time=0
EXTRACT: note_on channel=13 note=67 velocity=95 time=0
EXTRACT: note_on channel=13 note=63 velocity=95 time=0
EXTRACT: note_on channel=13 note=58 velocity=95 time=0
EXTRACT: note_on channel=13 note=53 velocity=95 time=0
EXTRACT: note_on channel=13 note=50 velocity=95 time=0
EXTRACT: note_on channel=13 note=46 velocity=95 time=0
EXTRACT: note_off channel=6 note=79 velocity=80 time=0.21897799999999998
EXTRACT: note_on channel=6 note=82 velocity=95 time=0
EXTRACT: note_off channel=0 note=67 velocity=80 time=0
EXTRACT: note_off channel=0 note=63 velocity=80 time=0
EXTRACT: note_off channel=0 note=58 velocity=80 time=0
EXTRACT: note_off channel=0 note=53 velocity=80 time=0
EXTRACT: note_off channel=0 note=50 velocity=80 time=0
EXTRACT: note_off channel=0 note=46 velocity=80 time=0
EXTRACT: note_on channel=0 note=67 velocity=95 time=0
EXTRACT: note_on channel=0 note=63 velocity=95 time=0
EXTRACT: note_on channel=0 note=58 velocity=95 time=0
EXTRACT: note_on channel=0 note=55 velocity=95 time=0
EXTRACT: note_on channel=0 note=51 velocity=95 time=0
EXTRACT: note_off channel=4 note=70 velocity=80 time=0
EXTRACT: note_off channel=4 note=63 velocity=80 time=0
EXTRACT: note_off channel=4 note=58 velocity=80 time=0
EXTRACT: note_off channel=4 note=53 velocity=80 time=0
EXTRACT: note_off channel=4 note=50 velocity=80 time=0
EXTRACT: note_off channel=4 note=46 velocity=80 time=0
EXTRACT: note_on channel=4 note=67 velocity=95 time=0
EXTRACT: note_on channel=4 note=63 velocity=95 time=0
EXTRACT: note_on channel=4 note=58 velocity=95 time=0
EXTRACT: note_on channel=4 note=55 velocity=95 time=0
EXTRACT: note_on channel=4 note=51 velocity=95 time=0
EXTRACT: note_off channel=13 note=67 velocity=80 time=0
EXTRACT: note_off channel=13 note=63 velocity=80 time=0
EXTRACT: note_off channel=13 note=58 velocity=80 time=0
EXTRACT: note_off channel=13 note=53 velocity=80 time=0
EXTRACT: note_off channel=13 note=50 velocity=80 time=0
EXTRACT: note_off channel=13 note=46 velocity=80 time=0
EXTRACT: note_on channel=13 note=67 velocity=95 time=0
EXTRACT: note_on channel=13 note=63 velocity=95 time=0
EXTRACT: note_on channel=13 note=58 velocity=95 time=0
EXTRACT: note_on channel=13 note=55 velocity=95 time=0
EXTRACT: note_on channel=13 note=51 velocity=95 time=0
EXTRACT: note_off channel=2 note=34 velocity=80 time=0
EXTRACT: note_on channel=2 note=39 velocity=95 time=0
EXTRACT: note_off channel=6 note=82 velocity=80 time=0.43795599999999996
EXTRACT: note_on channel=6 note=82 velocity=95 time=0
EXTRACT: note_off channel=6 note=82 velocity=80 time=0.21897799999999998
EXTRACT: note_on channel=6 note=79 velocity=95 time=0
EXTRACT: note_off channel=13 note=67 velocity=80 time=0
EXTRACT: note_off channel=13 note=63 velocity=80 time=0
EXTRACT: note_off channel=13 note=58 velocity=80 time=0
EXTRACT: note_off channel=13 note=55 velocity=80 time=0
EXTRACT: note_off channel=13 note=51 velocity=80 time=0
EXTRACT: note_on channel=13 note=67 velocity=95 time=0
EXTRACT: note_on channel=13 note=63 velocity=95 time=0
EXTRACT: note_on channel=13 note=58 velocity=95 time=0
EXTRACT: note_on channel=13 note=55 velocity=95 time=0
EXTRACT: note_on channel=13 note=51 velocity=95 time=0
EXTRACT: note_off channel=13 note=67 velocity=80 time=0.21897799999999998
EXTRACT: note_off channel=13 note=63 velocity=80 time=0
EXTRACT: note_off channel=13 note=58 velocity=80 time=0
EXTRACT: note_off channel=13 note=55 velocity=80 time=0
EXTRACT: note_off channel=13 note=51 velocity=80 time=0
EXTRACT: note_on channel=13 note=67 velocity=95 time=0
EXTRACT: note_on channel=13 note=63 velocity=95 time=0
EXTRACT: note_on channel=13 note=58 velocity=95 time=0
EXTRACT: note_on channel=13 note=55 velocity=95 time=0
EXTRACT: note_on channel=13 note=51 velocity=95 time=0
EXTRACT: note_off channel=6 note=79 velocity=80 time=0.43795599999999996
EXTRACT: note_on channel=6 note=75 velocity=95 time=0
EXTRACT: note_off channel=13 note=67 velocity=80 time=0
EXTRACT: note_off channel=13 note=63 velocity=80 time=0
EXTRACT: note_off channel=13 note=58 velocity=80 time=0
EXTRACT: note_off channel=13 note=55 velocity=80 time=0
EXTRACT: note_off channel=13 note=51 velocity=80 time=0
EXTRACT: note_on channel=13 note=67 velocity=95 time=0
EXTRACT: note_on channel=13 note=63 velocity=95 time=0
EXTRACT: note_on channel=13 note=58 velocity=95 time=0
EXTRACT: note_on channel=13 note=55 velocity=95 time=0
EXTRACT: note_on channel=13 note=51 velocity=95 time=0
EXTRACT: note_off channel=6 note=75 velocity=80 time=0.21897799999999998
EXTRACT: note_on channel=6 note=75 velocity=95 time=0
EXTRACT: note_off channel=13 note=67 velocity=80 time=0
EXTRACT: note_off channel=13 note=63 velocity=80 time=0
EXTRACT: note_off channel=13 note=58 velocity=80 time=0
EXTRACT: note_off channel=13 note=55 velocity=80 time=0
EXTRACT: note_off channel=13 note=51 velocity=80 time=0
EXTRACT: note_on channel=13 note=67 velocity=95 time=0
EXTRACT: note_on channel=13 note=63 velocity=95 time=0
EXTRACT: note_on channel=13 note=58 velocity=95 time=0
EXTRACT: note_on channel=13 note=55 velocity=95 time=0
EXTRACT: note_on channel=13 note=51 velocity=95 time=0
EXTRACT: note_off channel=2 note=39 velocity=80 time=0
EXTRACT: note_on channel=2 note=39 velocity=95 time=0
EXTRACT: note_off channel=6 note=75 velocity=80 time=0.21897799999999998
EXTRACT: note_on channel=6 note=74 velocity=95 time=0
EXTRACT: note_off channel=0 note=67 velocity=80 time=0
EXTRACT: note_off channel=0 note=63 velocity=80 time=0
EXTRACT: note_off channel=0 note=58 velocity=80 time=0
EXTRACT: note_off channel=0 note=55 velocity=80 time=0
EXTRACT: note_off channel=0 note=51 velocity=80 time=0
EXTRACT: note_on channel=0 note=67 velocity=95 time=0
EXTRACT: note_on channel=0 note=62 velocity=95 time=0
EXTRACT: note_on channel=0 note=58 velocity=95 time=0
EXTRACT: note_on channel=0 note=55 velocity=95 time=0
EXTRACT: note_on channel=0 note=51 velocity=95 time=0
EXTRACT: note_off channel=13 note=67 velocity=80 time=0
EXTRACT: note_off channel=13 note=63 velocity=80 time=0
EXTRACT: note_off channel=13 note=58 velocity=80 time=0
EXTRACT: note_off channel=13 note=55 velocity=80 time=0
EXTRACT: note_off channel=13 note=51 velocity=80 time=0
EXTRACT: note_on channel=13 note=67 velocity=95 time=0
EXTRACT: note_on channel=13 note=62 velocity=95 time=0
EXTRACT: note_on channel=13 note=58 velocity=95 time=0
EXTRACT: note_on channel=13 note=55 velocity=95 time=0
EXTRACT: note_on channel=13 note=51 velocity=95 time=0
EXTRACT: note_off channel=2 note=39 velocity=80 time=0
EXTRACT: note_on channel=2 note=43 velocity=95 time=0
EXTRACT: note_off channel=6 note=74 velocity=80 time=0.43795599999999996
EXTRACT: note_on channel=6 note=74 velocity=95 time=0
EXTRACT: note_off channel=6 note=74 velocity=80 time=0.21897799999999998
EXTRACT: note_on channel=7 note=74 velocity=95 time=0
EXTRACT: note_off channel=13 note=67 velocity=80 time=0
EXTRACT: note_off channel=13 note=62 velocity=80 time=0
EXTRACT: note_off channel=13 note=58 velocity=80 time=0
EXTRACT: note_off channel=13 note=55 velocity=80 time=0
EXTRACT: note_off channel=13 note=51 velocity=80 time=0
EXTRACT: note_on channel=13 note=67 velocity=95 time=0
EXTRACT: note_on channel=13 note=62 velocity=95 time=0
EXTRACT: note_on channel=13 note=58 velocity=95 time=0
EXTRACT: note_on channel=13 note=55 velocity=95 time=0
EXTRACT: note_on channel=13 note=51 velocity=95 time=0
EXTRACT: note_off channel=13 note=67 velocity=80 time=0.21897799999999998
EXTRACT: note_off channel=13 note=62 velocity=80 time=0
EXTRACT: note_off channel=13 note=58 velocity=80 time=0
EXTRACT: note_off channel=13 note=55 velocity=80 time=0
EXTRACT: note_off channel=13 note=51 velocity=80 time=0
EXTRACT: note_on channel=13 note=67 velocity=95 time=0
EXTRACT: note_on channel=13 note=62 velocity=95 time=0
EXTRACT: note_on channel=13 note=58 velocity=95 time=0
EXTRACT: note_on channel=13 note=55 velocity=95 time=0
EXTRACT: note_on channel=13 note=51 velocity=95 time=0
EXTRACT: note_off channel=2 note=43 velocity=80 time=0
EXTRACT: note_on channel=2 note=46 velocity=95 time=0
EXTRACT: pitchwheel channel=7 pitch=-640 time=0.32846699999999995
EXTRACT: note_off channel=13 note=67 velocity=80 time=0.10948899999999999
EXTRACT: note_off channel=13 note=62 velocity=80 time=0
EXTRACT: note_off channel=13 note=58 velocity=80 time=0
EXTRACT: note_off channel=13 note=55 velocity=80 time=0
EXTRACT: note_off channel=13 note=51 velocity=80 time=0
EXTRACT: note_on channel=13 note=67 velocity=95 time=0
EXTRACT: note_on channel=13 note=62 velocity=95 time=0
EXTRACT: note_on channel=13 note=58 velocity=95 time=0
EXTRACT: note_on channel=13 note=55 velocity=95 time=0
EXTRACT: note_on channel=13 note=51 velocity=95 time=0
EXTRACT: note_off channel=13 note=67 velocity=80 time=0.21897799999999998
EXTRACT: note_off channel=13 note=62 velocity=80 time=0
EXTRACT: note_off channel=13 note=58 velocity=80 time=0
EXTRACT: note_off channel=13 note=55 velocity=80 time=0
EXTRACT: note_off channel=13 note=51 velocity=80 time=0
EXTRACT: note_on channel=13 note=67 velocity=95 time=0
EXTRACT: note_on channel=13 note=62 velocity=95 time=0
EXTRACT: note_on channel=13 note=58 velocity=95 time=0
EXTRACT: note_on channel=13 note=55 velocity=95 time=0
EXTRACT: note_on channel=13 note=51 velocity=95 time=0
EXTRACT: pitchwheel channel=7 pitch=-1408 time=0.21897799999999998
EXTRACT: note_off channel=0 note=67 velocity=80 time=0
EXTRACT: note_off channel=0 note=62 velocity=80 time=0
EXTRACT: note_off channel=0 note=58 velocity=80 time=0
EXTRACT: note_off channel=0 note=55 velocity=80 time=0
EXTRACT: note_off channel=0 note=51 velocity=80 time=0
EXTRACT: note_on channel=0 note=67 velocity=95 time=0
EXTRACT: note_on channel=0 note=63 velocity=95 time=0
EXTRACT: note_on channel=0 note=60 velocity=95 time=0
EXTRACT: note_on channel=0 note=55 velocity=95 time=0
EXTRACT: note_on channel=0 note=48 velocity=95 time=0
EXTRACT: note_off channel=4 note=67 velocity=80 time=0
EXTRACT: note_off channel=4 note=63 velocity=80 time=0
EXTRACT: note_off channel=4 note=58 velocity=80 time=0
EXTRACT: note_off channel=4 note=55 velocity=80 time=0
EXTRACT: note_off channel=4 note=51 velocity=80 time=0
EXTRACT: note_on channel=4 note=67 velocity=95 time=0
EXTRACT: note_on channel=4 note=63 velocity=95 time=0
EXTRACT: note_on channel=4 note=60 velocity=95 time=0
EXTRACT: note_on channel=4 note=55 velocity=95 time=0
EXTRACT: note_on channel=4 note=48 velocity=95 time=0
EXTRACT: note_off channel=13 note=67 velocity=80 time=0
EXTRACT: note_off channel=13 note=62 velocity=80 time=0
EXTRACT: note_off channel=13 note=58 velocity=80 time=0
EXTRACT: note_off channel=13 note=55 velocity=80 time=0
EXTRACT: note_off channel=13 note=51 velocity=80 time=0
EXTRACT: note_on channel=13 note=67 velocity=95 time=0
EXTRACT: note_on channel=13 note=63 velocity=95 time=0
EXTRACT: note_on channel=13 note=60 velocity=95 time=0
EXTRACT: note_on channel=13 note=55 velocity=95 time=0
EXTRACT: note_on channel=13 note=48 velocity=95 time=0
EXTRACT: note_off channel=2 note=46 velocity=80 time=0
EXTRACT: note_on channel=2 note=48 velocity=95 time=0
EXTRACT: note_off channel=13 note=67 velocity=80 time=0.6569339999999999
EXTRACT: note_off channel=13 note=63 velocity=80 time=0
EXTRACT: note_off channel=13 note=60 velocity=80 time=0
EXTRACT: note_off channel=13 note=55 velocity=80 time=0
EXTRACT: note_off channel=13 note=48 velocity=80 time=0
EXTRACT: note_on channel=13 note=67 velocity=95 time=0
EXTRACT: note_on channel=13 note=63 velocity=95 time=0
EXTRACT: note_on channel=13 note=60 velocity=95 time=0
EXTRACT: note_on channel=13 note=55 velocity=95 time=0
EXTRACT: note_on channel=13 note=48 velocity=95 time=0
EXTRACT: note_off channel=13 note=67 velocity=80 time=0.21897799999999998
EXTRACT: note_off channel=13 note=63 velocity=80 time=0
EXTRACT: note_off channel=13 note=60 velocity=80 time=0
EXTRACT: note_off channel=13 note=55 velocity=80 time=0
EXTRACT: note_off channel=13 note=48 velocity=80 time=0
EXTRACT: note_on channel=13 note=67 velocity=95 time=0
EXTRACT: note_on channel=13 note=63 velocity=95 time=0
EXTRACT: note_on channel=13 note=60 velocity=95 time=0
EXTRACT: note_on channel=13 note=55 velocity=95 time=0
EXTRACT: note_on channel=13 note=48 velocity=95 time=0
EXTRACT: note_off channel=7 note=74 velocity=80 time=0.43795599999999996
EXTRACT: pitchwheel channel=7 pitch=0 time=0
EXTRACT: note_off channel=13 note=67 velocity=80 time=0
EXTRACT: note_off channel=13 note=63 velocity=80 time=0
EXTRACT: note_off channel=13 note=60 velocity=80 time=0
EXTRACT: note_off channel=13 note=55 velocity=80 time=0
EXTRACT: note_off channel=13 note=48 velocity=80 time=0
EXTRACT: note_on channel=13 note=67 velocity=95 time=0
EXTRACT: note_on channel=13 note=63 velocity=95 time=0
EXTRACT: note_on channel=13 note=60 velocity=95 time=0
EXTRACT: note_on channel=13 note=55 velocity=95 time=0
EXTRACT: note_on channel=13 note=48 velocity=95 time=0
EXTRACT: note_off channel=13 note=67 velocity=80 time=0.21897799999999998
EXTRACT: note_off channel=13 note=63 velocity=80 time=0
EXTRACT: note_off channel=13 note=60 velocity=80 time=0
EXTRACT: note_off channel=13 note=55 velocity=80 time=0
EXTRACT: note_off channel=13 note=48 velocity=80 time=0
EXTRACT: note_on channel=13 note=67 velocity=95 time=0
EXTRACT: note_on channel=13 note=63 velocity=95 time=0
EXTRACT: note_on channel=13 note=60 velocity=95 time=0
EXTRACT: note_on channel=13 note=55 velocity=95 time=0
EXTRACT: note_on channel=13 note=48 velocity=95 time=0
EXTRACT: note_off channel=0 note=67 velocity=80 time=0.21897799999999998
EXTRACT: note_off channel=0 note=63 velocity=80 time=0
EXTRACT: note_off channel=0 note=60 velocity=80 time=0
EXTRACT: note_off channel=0 note=55 velocity=80 time=0
EXTRACT: note_off channel=0 note=48 velocity=80 time=0
EXTRACT: note_on channel=0 note=67 velocity=95 time=0
EXTRACT: note_on channel=0 note=63 velocity=95 time=0
EXTRACT: note_on channel=0 note=58 velocity=95 time=0
EXTRACT: note_on channel=0 note=53 velocity=95 time=0
EXTRACT: note_on channel=0 note=50 velocity=95 time=0
EXTRACT: note_on channel=0 note=46 velocity=95 time=0
EXTRACT: note_off channel=4 note=67 velocity=80 time=0
EXTRACT: note_off channel=4 note=63 velocity=80 time=0
EXTRACT: note_off channel=4 note=60 velocity=80 time=0
EXTRACT: note_off channel=4 note=55 velocity=80 time=0
EXTRACT: note_off channel=4 note=48 velocity=80 time=0
EXTRACT: note_on channel=4 note=70 velocity=95 time=0
EXTRACT: note_on channel=4 note=63 velocity=95 time=0
EXTRACT: note_on channel=4 note=58 velocity=95 time=0
EXTRACT: note_on channel=4 note=53 velocity=95 time=0
EXTRACT: note_on channel=4 note=50 velocity=95 time=0
EXTRACT: note_on channel=4 note=46 velocity=95 time=0
EXTRACT: note_off channel=13 note=67 velocity=80 time=0
EXTRACT: note_off channel=13 note=63 velocity=80 time=0
EXTRACT: note_off channel=13 note=60 velocity=80 time=0
EXTRACT: note_off channel=13 note=55 velocity=80 time=0
EXTRACT: note_off channel=13 note=48 velocity=80 time=0
EXTRACT: note_on channel=13 note=67 velocity=95 time=0
EXTRACT: note_on channel=13 note=63 velocity=95 time=0
EXTRACT: note_on channel=13 note=58 velocity=95 time=0
EXTRACT: note_on channel=13 note=53 velocity=95 time=0
EXTRACT: note_on channel=13 note=50 velocity=95 time=0
EXTRACT: note_on channel=13 note=46 velocity=95 time=0
EXTRACT: note_off channel=2 note=48 velocity=80 time=0
EXTRACT: note_on channel=2 note=46 velocity=95 time=0
EXTRACT: note_on channel=6 note=74 velocity=86 time=0.43795599999999996
EXTRACT: note_off channel=13 note=46 velocity=80 time=0
EXTRACT: note_off channel=13 note=67 velocity=80 time=0.21897799999999998
EXTRACT: note_off channel=13 note=63 velocity=80 time=0
EXTRACT: note_off channel=13 note=58 velocity=80 time=0
EXTRACT: note_off channel=13 note=53 velocity=80 time=0
EXTRACT: note_off channel=13 note=50 velocity=80 time=0
EXTRACT: note_on channel=13 note=67 velocity=95 time=0
EXTRACT: note_on channel=13 note=63 velocity=95 time=0
EXTRACT: note_on channel=13 note=58 velocity=95 time=0
EXTRACT: note_on channel=13 note=53 velocity=95 time=0
EXTRACT: note_on channel=13 note=50 velocity=95 time=0
EXTRACT: note_on channel=13 note=46 velocity=95 time=0
EXTRACT: note_off channel=6 note=74 velocity=80 time=0.21897799999999998
EXTRACT: note_on channel=6 note=79 velocity=95 time=0
EXTRACT: note_off channel=13 note=67 velocity=80 time=0
EXTRACT: note_off channel=13 note=63 velocity=80 time=0
EXTRACT: note_off channel=13 note=58 velocity=80 time=0
EXTRACT: note_off channel=13 note=53 velocity=80 time=0
EXTRACT: note_off channel=13 note=50 velocity=80 time=0
EXTRACT: note_off channel=13 note=46 velocity=80 time=0
EXTRACT: note_on channel=13 note=67 velocity=95 time=0
EXTRACT: note_on channel=13 note=63 velocity=95 time=0
EXTRACT: note_on channel=13 note=58 velocity=95 time=0
EXTRACT: note_on channel=13 note=53 velocity=95 time=0
EXTRACT: note_on channel=13 note=50 velocity=95 time=0
EXTRACT: note_on channel=13 note=46 velocity=95 time=0
EXTRACT: note_off channel=6 note=79 velocity=80 time=0.43795599999999996
EXTRACT: note_on channel=6 note=82 velocity=95 time=0
EXTRACT: note_off channel=13 note=67 velocity=80 time=0
EXTRACT: note_off channel=13 note=63 velocity=80 time=0
EXTRACT: note_off channel=13 note=58 velocity=80 time=0
EXTRACT: note_off channel=13 note=53 velocity=80 time=0
EXTRACT: note_off channel=13 note=50 velocity=80 time=0
EXTRACT: note_off channel=13 note=46 velocity=80 time=0
EXTRACT: note_on channel=13 note=67 velocity=95 time=0
EXTRACT: note_on channel=13 note=63 velocity=95 time=0
EXTRACT: note_on channel=13 note=58 velocity=95 time=0
EXTRACT: note_on channel=13 note=53 velocity=95 time=0
EXTRACT: note_on channel=13 note=50 velocity=95 time=0
EXTRACT: note_on channel=13 note=46 velocity=95 time=0
EXTRACT: note_off channel=13 note=67 velocity=80 time=0.21897799999999998
EXTRACT: note_off channel=13 note=63 velocity=80 time=0
EXTRACT: note_off channel=13 note=58 velocity=80 time=0
EXTRACT: note_off channel=13 note=53 velocity=80 time=0
EXTRACT: note_off channel=13 note=50 velocity=80 time=0
EXTRACT: note_off channel=13 note=46 velocity=80 time=0
EXTRACT: note_on channel=13 note=67 velocity=95 time=0
EXTRACT: note_on channel=13 note=63 velocity=95 time=0
EXTRACT: note_on channel=13 note=58 velocity=95 time=0
EXTRACT: note_on channel=13 note=53 velocity=95 time=0
EXTRACT: note_on channel=13 note=50 velocity=95 time=0
EXTRACT: note_on channel=13 note=46 velocity=95 time=0
EXTRACT: note_off channel=6 note=82 velocity=80 time=0.21897799999999998
EXTRACT: note_on channel=6 note=82 velocity=95 time=0
EXTRACT: note_off channel=0 note=67 velocity=80 time=0
EXTRACT: note_off channel=0 note=63 velocity=80 time=0
EXTRACT: note_off channel=0 note=58 velocity=80 time=0
EXTRACT: note_off channel=0 note=53 velocity=80 time=0
EXTRACT: note_off channel=0 note=50 velocity=80 time=0
EXTRACT: note_off channel=0 note=46 velocity=80 time=0
EXTRACT: note_on channel=0 note=67 velocity=95 time=0
EXTRACT: note_on channel=0 note=63 velocity=95 time=0
EXTRACT: note_on channel=0 note=58 velocity=95 time=0
EXTRACT: note_on channel=0 note=55 velocity=95 time=0
EXTRACT: note_on channel=0 note=51 velocity=95 time=0
EXTRACT: note_off channel=4 note=70 velocity=80 time=0
EXTRACT: note_off channel=4 note=63 velocity=80 time=0
EXTRACT: note_off channel=4 note=58 velocity=80 time=0
EXTRACT: note_off channel=4 note=53 velocity=80 time=0
EXTRACT: note_off channel=4 note=50 velocity=80 time=0
EXTRACT: note_off channel=4 note=46 velocity=80 time=0
EXTRACT: note_on channel=4 note=67 velocity=95 time=0
EXTRACT: note_on channel=4 note=63 velocity=95 time=0
EXTRACT: note_on channel=4 note=58 velocity=95 time=0
EXTRACT: note_on channel=4 note=55 velocity=95 time=0
EXTRACT: note_on channel=4 note=51 velocity=95 time=0
EXTRACT: note_off channel=13 note=67 velocity=80 time=0
EXTRACT: note_off channel=13 note=63 velocity=80 time=0
EXTRACT: note_off channel=13 note=58 velocity=80 time=0
EXTRACT: note_off channel=13 note=53 velocity=80 time=0
EXTRACT: note_off channel=13 note=50 velocity=80 time=0
EXTRACT: note_off channel=13 note=46 velocity=80 time=0
EXTRACT: note_on channel=13 note=67 velocity=95 time=0
EXTRACT: note_on channel=13 note=63 velocity=95 time=0
EXTRACT: note_on channel=13 note=58 velocity=95 time=0
EXTRACT: note_on channel=13 note=55 velocity=95 time=0
EXTRACT: note_on channel=13 note=51 velocity=95 time=0
EXTRACT: note_off channel=2 note=46 velocity=80 time=0
EXTRACT: note_on channel=2 note=39 velocity=95 time=0
EXTRACT: note_off channel=13 note=67 velocity=80 time=0.6569339999999999
EXTRACT: note_off channel=13 note=63 velocity=80 time=0
EXTRACT: note_off channel=13 note=58 velocity=80 time=0
EXTRACT: note_off channel=13 note=55 velocity=80 time=0
EXTRACT: note_off channel=13 note=51 velocity=80 time=0
EXTRACT: note_on channel=13 note=67 velocity=95 time=0
EXTRACT: note_on channel=13 note=63 velocity=95 time=0
EXTRACT: note_on channel=13 note=58 velocity=95 time=0
EXTRACT: note_on channel=13 note=55 velocity=95 time=0
EXTRACT: note_on channel=13 note=51 velocity=95 time=0
EXTRACT: note_off channel=13 note=67 velocity=80 time=0.21897799999999998
EXTRACT: note_off channel=13 note=63 velocity=80 time=0
EXTRACT: note_off channel=13 note=58 velocity=80 time=0
EXTRACT: note_off channel=13 note=55 velocity=80 time=0
EXTRACT: note_off channel=13 note=51 velocity=80 time=0
EXTRACT: note_on channel=13 note=67 velocity=95 time=0
EXTRACT: note_on channel=13 note=63 velocity=95 time=0
EXTRACT: note_on channel=13 note=58 velocity=95 time=0
EXTRACT: note_on channel=13 note=55 velocity=95 time=0
EXTRACT: note_on channel=13 note=51 velocity=95 time=0
EXTRACT: note_off channel=13 note=67 velocity=80 time=0.43795599999999996
EXTRACT: note_off channel=13 note=63 velocity=80 time=0
EXTRACT: note_off channel=13 note=58 velocity=80 time=0
EXTRACT: note_off channel=13 note=55 velocity=80 time=0
EXTRACT: note_off channel=13 note=51 velocity=80 time=0
EXTRACT: note_on channel=13 note=67 velocity=95 time=0
EXTRACT: note_on channel=13 note=63 velocity=95 time=0
EXTRACT: note_on channel=13 note=58 velocity=95 time=0
EXTRACT: note_on channel=13 note=55 velocity=95 time=0
EXTRACT: note_on channel=13 note=51 velocity=95 time=0
EXTRACT: note_off channel=13 note=67 velocity=80 time=0.21897799999999998
EXTRACT: note_off channel=13 note=63 velocity=80 time=0
EXTRACT: note_off channel=13 note=58 velocity=80 time=0
EXTRACT: note_off channel=13 note=55 velocity=80 time=0
EXTRACT: note_off channel=13 note=51 velocity=80 time=0
EXTRACT: note_on channel=13 note=67 velocity=95 time=0
EXTRACT: note_on channel=13 note=63 velocity=95 time=0
EXTRACT: note_on channel=13 note=58 velocity=95 time=0
EXTRACT: note_on channel=13 note=55 velocity=95 time=0
EXTRACT: note_on channel=13 note=51 velocity=95 time=0
EXTRACT: note_off channel=2 note=39 velocity=80 time=0
EXTRACT: note_on channel=2 note=39 velocity=95 time=0
EXTRACT: note_off channel=6 note=82 velocity=80 time=0.21897799999999998
EXTRACT: note_on channel=6 note=79 velocity=95 time=0
EXTRACT: note_off channel=0 note=67 velocity=80 time=0
EXTRACT: note_off channel=0 note=63 velocity=80 time=0
EXTRACT: note_off channel=0 note=58 velocity=80 time=0
EXTRACT: note_off channel=0 note=55 velocity=80 time=0
EXTRACT: note_off channel=0 note=51 velocity=80 time=0
EXTRACT: note_on channel=0 note=67 velocity=95 time=0
EXTRACT: note_on channel=0 note=62 velocity=95 time=0
EXTRACT: note_on channel=0 note=58 velocity=95 time=0
EXTRACT: note_on channel=0 note=55 velocity=95 time=0
EXTRACT: note_on channel=0 note=51 velocity=95 time=0
EXTRACT: note_off channel=13 note=67 velocity=80 time=0
EXTRACT: note_off channel=13 note=63 velocity=80 time=0
EXTRACT: note_off channel=13 note=58 velocity=80 time=0
EXTRACT: note_off channel=13 note=55 velocity=80 time=0
EXTRACT: note_off channel=13 note=51 velocity=80 time=0
EXTRACT: note_on channel=13 note=67 velocity=95 time=0
EXTRACT: note_on channel=13 note=62 velocity=95 time=0
EXTRACT: note_on channel=13 note=58 velocity=95 time=0
EXTRACT: note_on channel=13 note=55 velocity=95 time=0
EXTRACT: note_on channel=13 note=51 velocity=95 time=0
EXTRACT: note_off channel=2 note=39 velocity=80 time=0
EXTRACT: note_on channel=2 note=43 velocity=95 time=0
EXTRACT: note_off channel=13 note=67 velocity=80 time=0.6569339999999999
EXTRACT: note_off channel=13 note=62 velocity=80 time=0
EXTRACT: note_off channel=13 note=58 velocity=80 time=0
EXTRACT: note_off channel=13 note=55 velocity=80 time=0
EXTRACT: note_off channel=13 note=51 velocity=80 time=0
EXTRACT: note_on channel=13 note=67 velocity=95 time=0
EXTRACT: note_on channel=13 note=62 velocity=95 time=0
EXTRACT: note_on channel=13 note=58 velocity=95 time=0
EXTRACT: note_on channel=13 note=55 velocity=95 time=0
EXTRACT: note_on channel=13 note=51 velocity=95 time=0
EXTRACT: note_off channel=13 note=67 velocity=80 time=0.21897799999999998
EXTRACT: note_off channel=13 note=62 velocity=80 time=0
EXTRACT: note_off channel=13 note=58 velocity=80 time=0
EXTRACT: note_off channel=13 note=55 velocity=80 time=0
EXTRACT: note_off channel=13 note=51 velocity=80 time=0
EXTRACT: note_on channel=13 note=67 velocity=95 time=0
EXTRACT: note_on channel=13 note=62 velocity=95 time=0
EXTRACT: note_on channel=13 note=58 velocity=95 time=0
EXTRACT: note_on channel=13 note=55 velocity=95 time=0
EXTRACT: note_on channel=13 note=51 velocity=95 time=0
EXTRACT: note_off channel=2 note=43 velocity=80 time=0
EXTRACT: note_on channel=2 note=38 velocity=95 time=0
EXTRACT: note_off channel=13 note=67 velocity=80 time=0.43795599999999996
EXTRACT: note_off channel=13 note=62 velocity=80 time=0
EXTRACT: note_off channel=13 note=58 velocity=80 time=0
EXTRACT: note_off channel=13 note=55 velocity=80 time=0
EXTRACT: note_off channel=13 note=51 velocity=80 time=0
EXTRACT: note_on channel=13 note=67 velocity=95 time=0
EXTRACT: note_on channel=13 note=62 velocity=95 time=0
EXTRACT: note_on channel=13 note=58 velocity=95 time=0
EXTRACT: note_on channel=13 note=55 velocity=95 time=0
EXTRACT: note_on channel=13 note=51 velocity=95 time=0
EXTRACT: note_off channel=13 note=67 velocity=80 time=0.21897799999999998
EXTRACT: note_off channel=13 note=62 velocity=80 time=0
EXTRACT: note_off channel=13 note=58 velocity=80 time=0
EXTRACT: note_off channel=13 note=55 velocity=80 time=0
EXTRACT: note_off channel=13 note=51 velocity=80 time=0
EXTRACT: note_on channel=13 note=67 velocity=95 time=0
EXTRACT: note_on channel=13 note=62 velocity=95 time=0
EXTRACT: note_on channel=13 note=58 velocity=95 time=0
EXTRACT: note_on channel=13 note=55 velocity=95 time=0
EXTRACT: note_on channel=13 note=51 velocity=95 time=0
EXTRACT: note_off channel=0 note=67 velocity=80 time=0.21897799999999998
EXTRACT: note_off channel=0 note=62 velocity=80 time=0
EXTRACT: note_off channel=0 note=58 velocity=80 time=0
EXTRACT: note_off channel=0 note=55 velocity=80 time=0
EXTRACT: note_off channel=0 note=51 velocity=80 time=0
EXTRACT: note_on channel=0 note=67 velocity=95 time=0
EXTRACT: note_on channel=0 note=63 velocity=95 time=0
EXTRACT: note_on channel=0 note=60 velocity=95 time=0
EXTRACT: note_on channel=0 note=55 velocity=95 time=0
EXTRACT: note_on channel=0 note=48 velocity=95 time=0
EXTRACT: note_off channel=4 note=67 velocity=80 time=0
EXTRACT: note_off channel=4 note=63 velocity=80 time=0
EXTRACT: note_off channel=4 note=58 velocity=80 time=0
EXTRACT: note_off channel=4 note=55 velocity=80 time=0
EXTRACT: note_off channel=4 note=51 velocity=80 time=0
EXTRACT: note_on channel=4 note=67 velocity=95 time=0
EXTRACT: note_on channel=4 note=63 velocity=95 time=0
EXTRACT: note_on channel=4 note=60 velocity=95 time=0
EXTRACT: note_on channel=4 note=55 velocity=95 time=0
EXTRACT: note_on channel=4 note=48 velocity=95 time=0
EXTRACT: note_off channel=13 note=67 velocity=80 time=0
EXTRACT: note_off channel=13 note=62 velocity=80 time=0
EXTRACT: note_off channel=13 note=58 velocity=80 time=0
EXTRACT: note_off channel=13 note=55 velocity=80 time=0
EXTRACT: note_off channel=13 note=51 velocity=80 time=0
EXTRACT: note_on channel=13 note=67 velocity=95 time=0
EXTRACT: note_on channel=13 note=63 velocity=95 time=0
EXTRACT: note_on channel=13 note=60 velocity=95 time=0
EXTRACT: note_on channel=13 note=55 velocity=95 time=0
EXTRACT: note_on channel=13 note=48 velocity=95 time=0
EXTRACT: note_off channel=2 note=38 velocity=80 time=0
EXTRACT: note_on channel=2 note=36 velocity=95 time=0
EXTRACT: note_off channel=13 note=67 velocity=80 time=0.6569339999999999
EXTRACT: note_off channel=13 note=63 velocity=80 time=0
EXTRACT: note_off channel=13 note=60 velocity=80 time=0
EXTRACT: note_off channel=13 note=55 velocity=80 time=0
EXTRACT: note_off channel=13 note=48 velocity=80 time=0
EXTRACT: note_on channel=13 note=67 velocity=95 time=0
EXTRACT: note_on channel=13 note=63 velocity=95 time=0
EXTRACT: note_on channel=13 note=60 velocity=95 time=0
EXTRACT: note_on channel=13 note=55 velocity=95 time=0
EXTRACT: note_on channel=13 note=48 velocity=95 time=0
EXTRACT: note_off channel=13 note=67 velocity=80 time=0.21897799999999998
EXTRACT: note_off channel=13 note=63 velocity=80 time=0
EXTRACT: note_off channel=13 note=60 velocity=80 time=0
EXTRACT: note_off channel=13 note=55 velocity=80 time=0
EXTRACT: note_off channel=13 note=48 velocity=80 time=0
EXTRACT: note_on channel=13 note=67 velocity=95 time=0
EXTRACT: note_on channel=13 note=63 velocity=95 time=0
EXTRACT: note_on channel=13 note=60 velocity=95 time=0
EXTRACT: note_on channel=13 note=55 velocity=95 time=0
EXTRACT: note_on channel=13 note=48 velocity=95 time=0
EXTRACT: note_off channel=13 note=67 velocity=80 time=0.43795599999999996
EXTRACT: note_off channel=13 note=63 velocity=80 time=0
EXTRACT: note_off channel=13 note=60 velocity=80 time=0
EXTRACT: note_off channel=13 note=55 velocity=80 time=0
EXTRACT: note_off channel=13 note=48 velocity=80 time=0
EXTRACT: note_on channel=13 note=67 velocity=95 time=0
EXTRACT: note_on channel=13 note=63 velocity=95 time=0
EXTRACT: note_on channel=13 note=60 velocity=95 time=0
EXTRACT: note_on channel=13 note=55 velocity=95 time=0
EXTRACT: note_on channel=13 note=48 velocity=95 time=0
EXTRACT: note_off channel=13 note=67 velocity=80 time=0.21897799999999998
EXTRACT: note_off channel=13 note=63 velocity=80 time=0
EXTRACT: note_off channel=13 note=60 velocity=80 time=0
EXTRACT: note_off channel=13 note=55 velocity=80 time=0
EXTRACT: note_off channel=13 note=48 velocity=80 time=0
EXTRACT: note_on channel=13 note=67 velocity=95 time=0
EXTRACT: note_on channel=13 note=63 velocity=95 time=0
EXTRACT: note_on channel=13 note=60 velocity=95 time=0
EXTRACT: note_on channel=13 note=55 velocity=95 time=0
EXTRACT: note_on channel=13 note=48 velocity=95 time=0
EXTRACT: note_off channel=6 note=79 velocity=80 time=0.21897799999999998
EXTRACT: note_off channel=0 note=67 velocity=80 time=0
EXTRACT: note_off channel=0 note=63 velocity=80 time=0
EXTRACT: note_off channel=0 note=60 velocity=80 time=0
EXTRACT: note_off channel=0 note=55 velocity=80 time=0
EXTRACT: note_off channel=0 note=48 velocity=80 time=0
EXTRACT: note_on channel=0 note=67 velocity=95 time=0
EXTRACT: note_on channel=0 note=63 velocity=95 time=0
EXTRACT: note_on channel=0 note=58 velocity=95 time=0
EXTRACT: note_on channel=0 note=53 velocity=95 time=0
EXTRACT: note_on channel=0 note=50 velocity=95 time=0
EXTRACT: note_on channel=0 note=46 velocity=95 time=0
EXTRACT: note_off channel=4 note=67 velocity=80 time=0
EXTRACT: note_off channel=4 note=63 velocity=80 time=0
EXTRACT: note_off channel=4 note=60 velocity=80 time=0
EXTRACT: note_off channel=4 note=55 velocity=80 time=0
EXTRACT: note_off channel=4 note=48 velocity=80 time=0
EXTRACT: note_on channel=4 note=70 velocity=95 time=0
EXTRACT: note_on channel=4 note=63 velocity=95 time=0
EXTRACT: note_on channel=4 note=58 velocity=95 time=0
EXTRACT: note_on channel=4 note=53 velocity=95 time=0
EXTRACT: note_on channel=4 note=50 velocity=95 time=0
EXTRACT: note_on channel=4 note=46 velocity=95 time=0
EXTRACT: note_off channel=13 note=67 velocity=80 time=0
EXTRACT: note_off channel=13 note=63 velocity=80 time=0
EXTRACT: note_off channel=13 note=60 velocity=80 time=0
EXTRACT: note_off channel=13 note=55 velocity=80 time=0
EXTRACT: note_off channel=13 note=48 velocity=80 time=0
EXTRACT: note_on channel=13 note=67 velocity=95 time=0
EXTRACT: note_on channel=13 note=63 velocity=95 time=0
EXTRACT: note_on channel=13 note=58 velocity=95 time=0
EXTRACT: note_on channel=13 note=53 velocity=95 time=0
EXTRACT: note_on channel=13 note=50 velocity=95 time=0
EXTRACT: note_on channel=13 note=46 velocity=95 time=0
EXTRACT: note_off channel=2 note=36 velocity=80 time=0
EXTRACT: note_on channel=2 note=34 velocity=95 time=0
EXTRACT: note_off channel=13 note=46 velocity=80 time=0.43795599999999996
EXTRACT: note_off channel=13 note=67 velocity=80 time=0.21897799999999998
EXTRACT: note_off channel=13 note=63 velocity=80 time=0
EXTRACT: note_off channel=13 note=58 velocity=80 time=0
EXTRACT: note_off channel=13 note=53 velocity=80 time=0
EXTRACT: note_off channel=13 note=50 velocity=80 time=0
EXTRACT: note_on channel=13 note=67 velocity=95 time=0
EXTRACT: note_on channel=13 note=63 velocity=95 time=0
EXTRACT: note_on channel=13 note=58 velocity=95 time=0
EXTRACT: note_on channel=13 note=53 velocity=95 time=0
EXTRACT: note_on channel=13 note=50 velocity=95 time=0
EXTRACT: note_on channel=13 note=46 velocity=95 time=0
EXTRACT: note_off channel=13 note=67 velocity=80 time=0.21897799999999998
EXTRACT: note_off channel=13 note=63 velocity=80 time=0
EXTRACT: note_off channel=13 note=58 velocity=80 time=0
EXTRACT: note_off channel=13 note=53 velocity=80 time=0
EXTRACT: note_off channel=13 note=50 velocity=80 time=0
EXTRACT: note_off channel=13 note=46 velocity=80 time=0
EXTRACT: note_on channel=13 note=67 velocity=95 time=0
EXTRACT: note_on channel=13 note=63 velocity=95 time=0
EXTRACT: note_on channel=13 note=58 velocity=95 time=0
EXTRACT: note_on channel=13 note=53 velocity=95 time=0
EXTRACT: note_on channel=13 note=50 velocity=95 time=0
EXTRACT: note_on channel=13 note=46 velocity=95 time=0
EXTRACT: note_off channel=13 note=67 velocity=80 time=0.43795599999999996
EXTRACT: note_off channel=13 note=63 velocity=80 time=0
EXTRACT: note_off channel=13 note=58 velocity=80 time=0
EXTRACT: note_off channel=13 note=53 velocity=80 time=0
EXTRACT: note_off channel=13 note=50 velocity=80 time=0
EXTRACT: note_off channel=13 note=46 velocity=80 time=0
EXTRACT: note_on channel=13 note=67 velocity=95 time=0
EXTRACT: note_on channel=13 note=63 velocity=95 time=0
EXTRACT: note_on channel=13 note=58 velocity=95 time=0
EXTRACT: note_on channel=13 note=53 velocity=95 time=0
EXTRACT: note_on channel=13 note=50 velocity=95 time=0
EXTRACT: note_on channel=13 note=46 velocity=95 time=0
EXTRACT: note_off channel=13 note=67 velocity=80 time=0.21897799999999998
EXTRACT: note_off channel=13 note=63 velocity=80 time=0
EXTRACT: note_off channel=13 note=58 velocity=80 time=0
EXTRACT: note_off channel=13 note=53 velocity=80 time=0
EXTRACT: note_off channel=13 note=50 velocity=80 time=0
EXTRACT: note_off channel=13 note=46 velocity=80 time=0
EXTRACT: note_on channel=13 note=67 velocity=95 time=0
EXTRACT: note_on channel=13 note=63 velocity=95 time=0
EXTRACT: note_on channel=13 note=58 velocity=95 time=0
EXTRACT: note_on channel=13 note=53 velocity=95 time=0
EXTRACT: note_on channel=13 note=50 velocity=95 time=0
EXTRACT: note_on channel=13 note=46 velocity=95 time=0
EXTRACT: note_off channel=0 note=67 velocity=80 time=0.21897799999999998
EXTRACT: note_off channel=0 note=63 velocity=80 time=0
EXTRACT: note_off channel=0 note=58 velocity=80 time=0
EXTRACT: note_off channel=0 note=53 velocity=80 time=0
EXTRACT: note_off channel=0 note=50 velocity=80 time=0
EXTRACT: note_off channel=0 note=46 velocity=80 time=0
EXTRACT: program_change channel=0 program=50 time=0
EXTRACT: program_change channel=1 program=50 time=0
EXTRACT: control_change channel=0 control=7 value=56 time=0
EXTRACT: control_change channel=1 control=7 value=56 time=0
EXTRACT: control_change channel=0 control=10 value=120 time=0
EXTRACT: control_change channel=1 control=10 value=120 time=0
EXTRACT: control_change channel=0 control=7 value=4 time=0
EXTRACT: control_change channel=1 control=7 value=4 time=0
EXTRACT: note_on channel=0 note=80 velocity=95 time=0
EXTRACT: note_on channel=0 note=75 velocity=95 time=0
EXTRACT: note_on channel=0 note=72 velocity=95 time=0
EXTRACT: note_on channel=0 note=68 velocity=95 time=0
EXTRACT: note_on channel=0 note=63 velocity=95 time=0
EXTRACT: note_on channel=0 note=56 velocity=95 time=0
EXTRACT: note_off channel=4 note=70 velocity=80 time=0
EXTRACT: note_off channel=4 note=63 velocity=80 time=0
EXTRACT: note_off channel=4 note=58 velocity=80 time=0
EXTRACT: note_off channel=4 note=53 velocity=80 time=0
EXTRACT: note_off channel=4 note=50 velocity=80 time=0
EXTRACT: note_off channel=4 note=46 velocity=80 time=0
EXTRACT: program_change channel=4 program=48 time=0
EXTRACT: program_change channel=5 program=48 time=0
EXTRACT: control_change channel=4 control=7 value=56 time=0
EXTRACT: control_change channel=5 control=7 value=56 time=0
EXTRACT: control_change channel=4 control=10 value=0 time=0
EXTRACT: control_change channel=5 control=10 value=0 time=0
EXTRACT: control_change channel=4 control=7 value=4 time=0
EXTRACT: control_change channel=5 control=7 value=4 time=0
EXTRACT: note_on channel=4 note=80 velocity=95 time=0
EXTRACT: note_on channel=4 note=75 velocity=95 time=0
EXTRACT: note_on channel=4 note=72 velocity=95 time=0
EXTRACT: note_on channel=4 note=68 velocity=95 time=0
EXTRACT: note_on channel=4 note=63 velocity=95 time=0
EXTRACT: note_on channel=4 note=56 velocity=95 time=0
EXTRACT: control_change channel=8 control=7 value=88 time=0
EXTRACT: control_change channel=10 control=7 value=88 time=0
EXTRACT: note_on channel=8 note=68 velocity=95 time=0
EXTRACT: note_on channel=8 note=63 velocity=95 time=0
EXTRACT: note_on channel=8 note=60 velocity=95 time=0
EXTRACT: note_on channel=8 note=56 velocity=95 time=0
EXTRACT: note_on channel=8 note=51 velocity=95 time=0
EXTRACT: note_on channel=8 note=44 velocity=95 time=0
EXTRACT: note_off channel=13 note=67 velocity=80 time=0
EXTRACT: note_off channel=13 note=63 velocity=80 time=0
EXTRACT: note_off channel=13 note=58 velocity=80 time=0
EXTRACT: note_off channel=13 note=53 velocity=80 time=0
EXTRACT: note_off channel=13 note=50 velocity=80 time=0
EXTRACT: note_off channel=13 note=46 velocity=80 time=0
EXTRACT: control_change channel=13 control=7 value=72 time=0
EXTRACT: control_change channel=14 control=7 value=72 time=0
EXTRACT: note_on channel=13 note=44 velocity=95 time=0
EXTRACT: note_off channel=2 note=34 velocity=80 time=0
EXTRACT: note_on channel=2 note=32 velocity=95 time=0
EXTRACT: note_on channel=13 note=51 velocity=95 time=0.07299266666666666
EXTRACT: control_change channel=0 control=7 value=9 time=0.03649633333333333
EXTRACT: control_change channel=1 control=7 value=9 time=0
EXTRACT: control_change channel=4 control=7 value=9 time=0
EXTRACT: control_change channel=5 control=7 value=9 time=0
EXTRACT: note_on channel=13 note=56 velocity=95 time=0.03649633333333333
EXTRACT: control_change channel=0 control=7 value=13 time=0.07299266666666666
EXTRACT: control_change channel=1 control=7 value=13 time=0
EXTRACT: control_change channel=4 control=7 value=13 time=0
EXTRACT: control_change channel=5 control=7 value=13 time=0
EXTRACT: note_on channel=13 note=60 velocity=95 time=0
EXTRACT: note_on channel=13 note=63 velocity=95 time=0.07299266666666666
EXTRACT: control_change channel=0 control=7 value=17 time=0.03649633333333333
EXTRACT: control_change channel=1 control=7 value=17 time=0
EXTRACT: control_change channel=4 control=7 value=17 time=0
EXTRACT: control_change channel=5 control=7 value=17 time=0
EXTRACT: note_on channel=13 note=68 velocity=95 time=0.03649633333333333
EXTRACT: control_change channel=0 control=7 value=22 time=0.07299266666666666
EXTRACT: control_change channel=1 control=7 value=22 time=0
EXTRACT: control_change channel=4 control=7 value=22 time=0
EXTRACT: control_change channel=5 control=7 value=22 time=0
EXTRACT: control_change channel=0 control=7 value=26 time=0.10948899999999999
EXTRACT: control_change channel=1 control=7 value=26 time=0
EXTRACT: control_change channel=4 control=7 value=26 time=0
EXTRACT: control_change channel=5 control=7 value=26 time=0
EXTRACT: control_change channel=0 control=7 value=30 time=0.10948899999999999
EXTRACT: control_change channel=1 control=7 value=30 time=0
EXTRACT: control_change channel=4 control=7 value=30 time=0
EXTRACT: control_change channel=5 control=7 value=30 time=0
EXTRACT: control_change channel=0 control=7 value=34 time=0.10948899999999999
EXTRACT: control_change channel=1 control=7 value=34 time=0
EXTRACT: control_change channel=4 control=7 value=34 time=0
EXTRACT: control_change channel=5 control=7 value=34 time=0
EXTRACT: control_change channel=0 control=7 value=39 time=0.10948899999999999
EXTRACT: control_change channel=1 control=7 value=39 time=0
EXTRACT: control_change channel=4 control=7 value=39 time=0
EXTRACT: control_change channel=5 control=7 value=39 time=0
EXTRACT: control_change channel=0 control=7 value=43 time=0.10948899999999999
EXTRACT: control_change channel=1 control=7 value=43 time=0
EXTRACT: control_change channel=4 control=7 value=43 time=0
EXTRACT: control_change channel=5 control=7 value=43 time=0
EXTRACT: control_change channel=0 control=7 value=47 time=0.10948899999999999
EXTRACT: control_change channel=1 control=7 value=47 time=0
EXTRACT: control_change channel=4 control=7 value=47 time=0
EXTRACT: control_change channel=5 control=7 value=47 time=0
EXTRACT: control_change channel=0 control=7 value=52 time=0.10948899999999999
EXTRACT: control_change channel=1 control=7 value=52 time=0
EXTRACT: control_change channel=4 control=7 value=52 time=0
EXTRACT: control_change channel=5 control=7 value=52 time=0
EXTRACT: control_change channel=0 control=7 value=56 time=0.10948899999999999
EXTRACT: control_change channel=1 control=7 value=56 time=0
EXTRACT: control_change channel=4 control=7 value=56 time=0
EXTRACT: control_change channel=5 control=7 value=56 time=0
EXTRACT: control_change channel=6 control=7 value=88 time=0.43795599999999996
EXTRACT: control_change channel=7 control=7 value=88 time=0
EXTRACT: note_on channel=6 note=80 velocity=95 time=0
EXTRACT: note_off channel=13 note=44 velocity=80 time=0
EXTRACT: note_off channel=13 note=51 velocity=80 time=0
EXTRACT: note_off channel=13 note=56 velocity=80 time=0
EXTRACT: note_off channel=13 note=60 velocity=80 time=0
EXTRACT: note_off channel=13 note=63 velocity=80 time=0
EXTRACT: note_off channel=13 note=68 velocity=80 time=0
EXTRACT: note_on channel=13 note=68 velocity=95 time=0
EXTRACT: note_on channel=13 note=63 velocity=95 time=0
EXTRACT: note_on channel=13 note=60 velocity=95 time=0
EXTRACT: note_on channel=13 note=56 velocity=95 time=0
EXTRACT: note_on channel=13 note=51 velocity=95 time=0
EXTRACT: note_on channel=13 note=44 velocity=95 time=0
EXTRACT: note_off channel=13 note=44 velocity=80 time=0.43795599999999996
EXTRACT: note_off channel=13 note=68 velocity=80 time=0.21897799999999998
EXTRACT: note_off channel=13 note=63 velocity=80 time=0
EXTRACT: note_off channel=13 note=60 velocity=80 time=0
EXTRACT: note_off channel=13 note=56 velocity=80 time=0
EXTRACT: note_off channel=13 note=51 velocity=80 time=0
EXTRACT: note_on channel=13 note=68 velocity=95 time=0
EXTRACT: note_on channel=13 note=63 velocity=95 time=0
EXTRACT: note_on channel=13 note=60 velocity=95 time=0
EXTRACT: note_on channel=13 note=56 velocity=95 time=0
EXTRACT: note_on channel=13 note=51 velocity=95 time=0
EXTRACT: note_on channel=13 note=44 velocity=95 time=0
EXTRACT: note_off channel=6 note=80 velocity=80 time=0.21897799999999998
EXTRACT: note_on channel=6 note=79 velocity=95 time=0
EXTRACT: note_off channel=8 note=68 velocity=80 time=0
EXTRACT: note_off channel=8 note=63 velocity=80 time=0
EXTRACT: note_off channel=8 note=60 velocity=80 time=0
EXTRACT: note_off channel=8 note=56 velocity=80 time=0
EXTRACT: note_off channel=8 note=51 velocity=80 time=0
EXTRACT: note_off channel=8 note=44 velocity=80 time=0
EXTRACT: note_on channel=8 note=67 velocity=95 time=0
EXTRACT: note_on channel=8 note=63 velocity=95 time=0
EXTRACT: note_on channel=8 note=58 velocity=95 time=0
EXTRACT: note_on channel=8 note=55 velocity=95 time=0
EXTRACT: note_on channel=8 note=51 velocity=95 time=0
EXTRACT: note_off channel=13 note=68 velocity=80 time=0
EXTRACT: note_off channel=13 note=63 velocity=80 time=0
EXTRACT: note_off channel=13 note=60 velocity=80 time=0
EXTRACT: note_off channel=13 note=56 velocity=80 time=0
EXTRACT: note_off channel=13 note=51 velocity=80 time=0
EXTRACT: note_off channel=13 note=44 velocity=80 time=0
EXTRACT: note_on channel=13 note=67 velocity=95 time=0
EXTRACT: note_on channel=13 note=63 velocity=95 time=0
EXTRACT: note_on channel=13 note=58 velocity=95 time=0
EXTRACT: note_on channel=13 note=55 velocity=95 time=0
EXTRACT: note_on channel=13 note=51 velocity=95 time=0
EXTRACT: note_off channel=2 note=32 velocity=80 time=0
EXTRACT: note_on channel=2 note=39 velocity=95 time=0
EXTRACT: note_off channel=13 note=67 velocity=80 time=0.43795599999999996
EXTRACT: note_off channel=13 note=63 velocity=80 time=0
EXTRACT: note_off channel=13 note=58 velocity=80 time=0
EXTRACT: note_off channel=13 note=55 velocity=80 time=0
EXTRACT: note_off channel=13 note=51 velocity=80 time=0
EXTRACT: note_on channel=13 note=67 velocity=95 time=0
EXTRACT: note_on channel=13 note=63 velocity=95 time=0
EXTRACT: note_on channel=13 note=58 velocity=95 time=0
EXTRACT: note_on channel=13 note=55 velocity=95 time=0
EXTRACT: note_on channel=13 note=51 velocity=95 time=0
EXTRACT: note_off channel=13 note=67 velocity=80 time=0.21897799999999998
EXTRACT: note_off channel=13 note=63 velocity=80 time=0
EXTRACT: note_off channel=13 note=58 velocity=80 time=0
EXTRACT: note_off channel=13 note=55 velocity=80 time=0
EXTRACT: note_off channel=13 note=51 velocity=80 time=0
EXTRACT: note_on channel=13 note=67 velocity=95 time=0
EXTRACT: note_on channel=13 note=63 velocity=95 time=0
EXTRACT: note_on channel=13 note=58 velocity=95 time=0
EXTRACT: note_on channel=13 note=55 velocity=95 time=0
EXTRACT: note_on channel=13 note=51 velocity=95 time=0
EXTRACT: note_off channel=6 note=79 velocity=80 time=0.21897799999999998
EXTRACT: note_on channel=7 note=77 velocity=95 time=0
EXTRACT: note_off channel=0 note=80 velocity=80 time=0
EXTRACT: note_off channel=0 note=75 velocity=80 time=0
EXTRACT: note_off channel=0 note=72 velocity=80 time=0
EXTRACT: note_off channel=0 note=68 velocity=80 time=0
EXTRACT: note_off channel=0 note=63 velocity=80 time=0
EXTRACT: note_off channel=0 note=56 velocity=80 time=0
EXTRACT: note_on channel=0 note=82 velocity=95 time=0
EXTRACT: note_on channel=0 note=77 velocity=95 time=0
EXTRACT: note_on channel=0 note=70 velocity=95 time=0
EXTRACT: note_on channel=0 note=65 velocity=95 time=0
EXTRACT: note_on channel=0 note=62 velocity=95 time=0
EXTRACT: note_on channel=0 note=58 velocity=95 time=0
EXTRACT: note_off channel=4 note=80 velocity=80 time=0
EXTRACT: note_off channel=4 note=75 velocity=80 time=0
EXTRACT: note_off channel=4 note=72 velocity=80 time=0
EXTRACT: note_off channel=4 note=68 velocity=80 time=0
EXTRACT: note_off channel=4 note=63 velocity=80 time=0
EXTRACT: note_off channel=4 note=56 velocity=80 time=0
EXTRACT: note_on channel=4 note=82 velocity=95 time=0
EXTRACT: note_on channel=4 note=77 velocity=95 time=0
EXTRACT: note_on channel=4 note=70 velocity=95 time=0
EXTRACT: note_on channel=4 note=65 velocity=95 time=0
EXTRACT: note_on channel=4 note=62 velocity=95 time=0
EXTRACT: note_on channel=4 note=58 velocity=95 time=0
EXTRACT: note_off channel=8 note=67 velocity=80 time=0
EXTRACT: note_off channel=8 note=63 velocity=80 time=0
EXTRACT: note_off channel=8 note=58 velocity=80 time=0
EXTRACT: note_off channel=8 note=55 velocity=80 time=0
EXTRACT: note_off channel=8 note=51 velocity=80 time=0
EXTRACT: note_on channel=8 note=70 velocity=95 time=0
EXTRACT: note_on channel=8 note=65 velocity=95 time=0
EXTRACT: note_on channel=8 note=58 velocity=95 time=0
EXTRACT: note_on channel=8 note=53 velocity=95 time=0
EXTRACT: note_on channel=8 note=50 velocity=95 time=0
EXTRACT: note_on channel=8 note=46 velocity=95 time=0
EXTRACT: note_off channel=13 note=67 velocity=80 time=0
EXTRACT: note_off channel=13 note=63 velocity=80 time=0
EXTRACT: note_off channel=13 note=58 velocity=80 time=0
EXTRACT: note_off channel=13 note=55 velocity=80 time=0
EXTRACT: note_off channel=13 note=51 velocity=80 time=0
EXTRACT: note_on channel=13 note=70 velocity=95 time=0
EXTRACT: note_on channel=13 note=65 velocity=95 time=0
EXTRACT: note_on channel=13 note=58 velocity=95 time=0
EXTRACT: note_on channel=13 note=53 velocity=95 time=0
EXTRACT: note_on channel=13 note=50 velocity=95 time=0
EXTRACT: note_on channel=13 note=46 velocity=95 time=0
EXTRACT: note_off channel=2 note=39 velocity=80 time=0
EXTRACT: note_on channel=2 note=34 velocity=95 time=0
EXTRACT: pitchwheel channel=7 pitch=-640 time=0.21897799999999998
EXTRACT: pitchwheel channel=7 pitch=-1408 time=0.21897799999999998
EXTRACT: note_off channel=13 note=46 velocity=80 time=0
EXTRACT: note_off channel=13 note=70 velocity=80 time=0.21897799999999998
EXTRACT: note_off channel=13 note=65 velocity=80 time=0
EXTRACT: note_off channel=13 note=58 velocity=80 time=0
EXTRACT: note_off channel=13 note=53 velocity=80 time=0
EXTRACT: note_off channel=13 note=50 velocity=80 time=0
EXTRACT: note_on channel=13 note=70 velocity=95 time=0
EXTRACT: note_on channel=13 note=65 velocity=95 time=0
EXTRACT: note_on channel=13 note=58 velocity=95 time=0
EXTRACT: note_on channel=13 note=53 velocity=95 time=0
EXTRACT: note_on channel=13 note=50 velocity=95 time=0
EXTRACT: note_on channel=13 note=46 velocity=95 time=0
EXTRACT: pitchwheel channel=7 pitch=-2048 time=0.1313868
EXTRACT: pitchwheel channel=7 pitch=-2048 time=0.0875912
EXTRACT: note_off channel=13 note=70 velocity=80 time=0
EXTRACT: note_off channel=13 note=65 velocity=80 time=0
EXTRACT: note_off channel=13 note=58 velocity=80 time=0
EXTRACT: note_off channel=13 note=53 velocity=80 time=0
EXTRACT: note_off channel=13 note=50 velocity=80 time=0
EXTRACT: note_off channel=13 note=46 velocity=80 time=0
EXTRACT: note_on channel=13 note=70 velocity=95 time=0
EXTRACT: note_on channel=13 note=65 velocity=95 time=0
EXTRACT: note_on channel=13 note=58 velocity=95 time=0
EXTRACT: note_on channel=13 note=53 velocity=95 time=0
EXTRACT: note_on channel=13 note=50 velocity=95 time=0
EXTRACT: note_on channel=13 note=46 velocity=95 time=0
EXTRACT: note_off channel=7 note=77 velocity=80 time=0.43795599999999996
EXTRACT: pitchwheel channel=7 pitch=0 time=0
EXTRACT: pitchwheel channel=7 pitch=0 time=0
EXTRACT: note_on channel=6 note=72 velocity=86 time=0
EXTRACT: note_off channel=13 note=70 velocity=80 time=0
EXTRACT: note_off channel=13 note=65 velocity=80 time=0
EXTRACT: note_off channel=13 note=58 velocity=80 time=0
EXTRACT: note_off channel=13 note=53 velocity=80 time=0
EXTRACT: note_off channel=13 note=50 velocity=80 time=0
EXTRACT: note_off channel=13 note=46 velocity=80 time=0
EXTRACT: note_on channel=13 note=70 velocity=95 time=0
EXTRACT: note_on channel=13 note=65 velocity=95 time=0
EXTRACT: note_on channel=13 note=58 velocity=95 time=0
EXTRACT: note_on channel=13 note=53 velocity=95 time=0
EXTRACT: note_on channel=13 note=50 velocity=95 time=0
EXTRACT: note_on channel=13 note=46 velocity=95 time=0
EXTRACT: note_off channel=13 note=70 velocity=80 time=0.21897799999999998
EXTRACT: note_off channel=13 note=65 velocity=80 time=0
EXTRACT: note_off channel=13 note=58 velocity=80 time=0
EXTRACT: note_off channel=13 note=53 velocity=80 time=0
EXTRACT: note_off channel=13 note=50 velocity=80 time=0
EXTRACT: note_off channel=13 note=46 velocity=80 time=0
EXTRACT: note_on channel=13 note=70 velocity=95 time=0
EXTRACT: note_on channel=13 note=65 velocity=95 time=0
EXTRACT: note_on channel=13 note=58 velocity=95 time=0
EXTRACT: note_on channel=13 note=53 velocity=95 time=0
EXTRACT: note_on channel=13 note=50 velocity=95 time=0
EXTRACT: note_on channel=13 note=46 velocity=95 time=0
EXTRACT: note_off channel=6 note=72 velocity=80 time=0.21897799999999998
EXTRACT: note_on channel=6 note=74 velocity=95 time=0
EXTRACT: note_off channel=13 note=70 velocity=80 time=0
EXTRACT: note_off channel=13 note=65 velocity=80 time=0
EXTRACT: note_off channel=13 note=58 velocity=80 time=0
EXTRACT: note_off channel=13 note=53 velocity=80 time=0
EXTRACT: note_off channel=13 note=50 velocity=80 time=0
EXTRACT: note_off channel=13 note=46 velocity=80 time=0
EXTRACT: note_on channel=13 note=70 velocity=95 time=0
EXTRACT: note_on channel=13 note=65 velocity=95 time=0
EXTRACT: note_on channel=13 note=58 velocity=95 time=0
EXTRACT: note_on channel=13 note=53 velocity=95 time=0
EXTRACT: note_on channel=13 note=50 velocity=95 time=0
EXTRACT: note_on channel=13 note=46 velocity=95 time=0
EXTRACT: note_off channel=13 note=46 velocity=80 time=0.43795599999999996
EXTRACT: note_off channel=13 note=70 velocity=80 time=0.21897799999999998
EXTRACT: note_off channel=13 note=65 velocity=80 time=0
EXTRACT: note_off channel=13 note=58 velocity=80 time=0
EXTRACT: note_off channel=13 note=53 velocity=80 time=0
EXTRACT: note_off channel=13 note=50 velocity=80 time=0
EXTRACT: note_on channel=13 note=70 velocity=95 time=0
EXTRACT: note_on channel=13 note=65 velocity=95 time=0
EXTRACT: note_on channel=13 note=58 velocity=95 time=0
EXTRACT: note_on channel=13 note=53 velocity=95 time=0
EXTRACT: note_on channel=13 note=50 velocity=95 time=0
EXTRACT: note_on channel=13 note=46 velocity=95 time=0
EXTRACT: note_off channel=6 note=74 velocity=80 time=0.21897799999999998
EXTRACT: note_on channel=6 note=75 velocity=95 time=0
EXTRACT: note_off channel=13 note=70 velocity=80 time=0
EXTRACT: note_off channel=13 note=65 velocity=80 time=0
EXTRACT: note_off channel=13 note=58 velocity=80 time=0
EXTRACT: note_off channel=13 note=53 velocity=80 time=0
EXTRACT: note_off channel=13 note=50 velocity=80 time=0
EXTRACT: note_off channel=13 note=46 velocity=80 time=0
EXTRACT: note_on channel=13 note=70 velocity=95 time=0
EXTRACT: note_on channel=13 note=65 velocity=95 time=0
EXTRACT: note_on channel=13 note=58 velocity=95 time=0
EXTRACT: note_on channel=13 note=53 velocity=95 time=0
EXTRACT: note_on channel=13 note=50 velocity=95 time=0
EXTRACT: note_on channel=13 note=46 velocity=95 time=0
EXTRACT: note_off channel=6 note=75 velocity=80 time=0.43795599999999996
EXTRACT: note_on channel=6 note=77 velocity=95 time=0
EXTRACT: note_off channel=13 note=70 velocity=80 time=0
EXTRACT: note_off channel=13 note=65 velocity=80 time=0
EXTRACT: note_off channel=13 note=58 velocity=80 time=0
EXTRACT: note_off channel=13 note=53 velocity=80 time=0
EXTRACT: note_off channel=13 note=50 velocity=80 time=0
EXTRACT: note_off channel=13 note=46 velocity=80 time=0
EXTRACT: note_on channel=13 note=70 velocity=95 time=0
EXTRACT: note_on channel=13 note=65 velocity=95 time=0
EXTRACT: note_on channel=13 note=58 velocity=95 time=0
EXTRACT: note_on channel=13 note=53 velocity=95 time=0
EXTRACT: note_on channel=13 note=50 velocity=95 time=0
EXTRACT: note_on channel=13 note=46 velocity=95 time=0
EXTRACT: note_off channel=13 note=70 velocity=80 time=0.21897799999999998
EXTRACT: note_off channel=13 note=65 velocity=80 time=0
EXTRACT: note_off channel=13 note=58 velocity=80 time=0
EXTRACT: note_off channel=13 note=53 velocity=80 time=0
EXTRACT: note_off channel=13 note=50 velocity=80 time=0
EXTRACT: note_off channel=13 note=46 velocity=80 time=0
EXTRACT: note_on channel=13 note=70 velocity=95 time=0
EXTRACT: note_on channel=13 note=65 velocity=95 time=0
EXTRACT: note_on channel=13 note=58 velocity=95 time=0
EXTRACT: note_on channel=13 note=53 velocity=95 time=0
EXTRACT: note_on channel=13 note=50 velocity=95 time=0
EXTRACT: note_on channel=13 note=46 velocity=95 time=0
EXTRACT: note_off channel=0 note=82 velocity=80 time=0.21897799999999998
EXTRACT: note_off channel=0 note=77 velocity=80 time=0
EXTRACT: note_off channel=0 note=70 velocity=80 time=0
EXTRACT: note_off channel=0 note=65 velocity=80 time=0
EXTRACT: note_off channel=0 note=62 velocity=80 time=0
EXTRACT: note_off channel=0 note=58 velocity=80 time=0
EXTRACT: note_on channel=0 note=80 velocity=95 time=0
EXTRACT: note_on channel=0 note=75 velocity=95 time=0
EXTRACT: note_on channel=0 note=72 velocity=95 time=0
EXTRACT: note_on channel=0 note=68 velocity=95 time=0
EXTRACT: note_on channel=0 note=63 velocity=95 time=0
EXTRACT: note_on channel=0 note=56 velocity=95 time=0
EXTRACT: note_off channel=4 note=82 velocity=80 time=0
EXTRACT: note_off channel=4 note=77 velocity=80 time=0
EXTRACT: note_off channel=4 note=70 velocity=80 time=0
EXTRACT: note_off channel=4 note=65 velocity=80 time=0
EXTRACT: note_off channel=4 note=62 velocity=80 time=0
EXTRACT: note_off channel=4 note=58 velocity=80 time=0
EXTRACT: note_on channel=4 note=80 velocity=95 time=0
EXTRACT: note_on channel=4 note=75 velocity=95 time=0
EXTRACT: note_on channel=4 note=72 velocity=95 time=0
EXTRACT: note_on channel=4 note=68 velocity=95 time=0
EXTRACT: note_on channel=4 note=63 velocity=95 time=0
EXTRACT: note_on channel=4 note=56 velocity=95 time=0
EXTRACT: note_off channel=8 note=70 velocity=80 time=0
EXTRACT: note_off channel=8 note=65 velocity=80 time=0
EXTRACT: note_off channel=8 note=58 velocity=80 time=0
EXTRACT: note_off channel=8 note=53 velocity=80 time=0
EXTRACT: note_off channel=8 note=50 velocity=80 time=0
EXTRACT: note_off channel=8 note=46 velocity=80 time=0
EXTRACT: note_on channel=8 note=68 velocity=95 time=0
EXTRACT: note_on channel=8 note=63 velocity=95 time=0
EXTRACT: note_on channel=8 note=60 velocity=95 time=0
EXTRACT: note_on channel=8 note=56 velocity=95 time=0
EXTRACT: note_on channel=8 note=51 velocity=95 time=0
EXTRACT: note_on channel=8 note=44 velocity=95 time=0
EXTRACT: note_off channel=13 note=70 velocity=80 time=0
EXTRACT: note_off channel=13 note=65 velocity=80 time=0
EXTRACT: note_off channel=13 note=58 velocity=80 time=0
EXTRACT: note_off channel=13 note=53 velocity=80 time=0
EXTRACT: note_off channel=13 note=50 velocity=80 time=0
EXTRACT: note_off channel=13 note=46 velocity=80 time=0
EXTRACT: note_on channel=13 note=68 velocity=95 time=0
EXTRACT: note_on channel=13 note=63 velocity=95 time=0
EXTRACT: note_on channel=13 note=60 velocity=95 time=0
EXTRACT: note_on channel=13 note=56 velocity=95 time=0
EXTRACT: note_on channel=13 note=51 velocity=95 time=0
EXTRACT: note_on channel=13 note=44 velocity=95 time=0
EXTRACT: note_off channel=2 note=34 velocity=80 time=0
EXTRACT: note_on channel=2 note=32 velocity=95 time=0
EXTRACT: note_off channel=13 note=44 velocity=80 time=0.43795599999999996
EXTRACT: note_off channel=13 note=68 velocity=80 time=0.21897799999999998
EXTRACT: note_off channel=13 note=63 velocity=80 time=0
EXTRACT: note_off channel=13 note=60 velocity=80 time=0
EXTRACT: note_off channel=13 note=56 velocity=80 time=0
EXTRACT: note_off channel=13 note=51 velocity=80 time=0
EXTRACT: note_on channel=13 note=68 velocity=95 time=0
EXTRACT: note_on channel=13 note=63 velocity=95 time=0
EXTRACT: note_on channel=13 note=60 velocity=95 time=0
EXTRACT: note_on channel=13 note=56 velocity=95 time=0
EXTRACT: note_on channel=13 note=51 velocity=95 time=0
EXTRACT: note_on channel=13 note=44 velocity=95 time=0
EXTRACT: note_off channel=13 note=68 velocity=80 time=0.21897799999999998
EXTRACT: note_off channel=13 note=63 velocity=80 time=0
EXTRACT: note_off channel=13 note=60 velocity=80 time=0
EXTRACT: note_off channel=13 note=56 velocity=80 time=0
EXTRACT: note_off channel=13 note=51 velocity=80 time=0
EXTRACT: note_off channel=13 note=44 velocity=80 time=0
EXTRACT: note_on channel=13 note=68 velocity=95 time=0
EXTRACT: note_on channel=13 note=63 velocity=95 time=0
EXTRACT: note_on channel=13 note=60 velocity=95 time=0
EXTRACT: note_on channel=13 note=56 velocity=95 time=0
EXTRACT: note_on channel=13 note=51 velocity=95 time=0
EXTRACT: note_on channel=13 note=44 velocity=95 time=0
EXTRACT: note_off channel=13 note=68 velocity=80 time=0.43795599999999996
EXTRACT: note_off channel=13 note=63 velocity=80 time=0
EXTRACT: note_off channel=13 note=60 velocity=80 time=0
EXTRACT: note_off channel=13 note=56 velocity=80 time=0
EXTRACT: note_off channel=13 note=51 velocity=80 time=0
EXTRACT: note_off channel=13 note=44 velocity=80 time=0
EXTRACT: note_on channel=13 note=68 velocity=95 time=0
EXTRACT: note_on channel=13 note=63 velocity=95 time=0
EXTRACT: note_on channel=13 note=60 velocity=95 time=0
EXTRACT: note_on channel=13 note=56 velocity=95 time=0
EXTRACT: note_on channel=13 note=51 velocity=95 time=0
EXTRACT: note_on channel=13 note=44 velocity=95 time=0
EXTRACT: note_off channel=13 note=68 velocity=80 time=0.21897799999999998
EXTRACT: note_off channel=13 note=63 velocity=80 time=0
EXTRACT: note_off channel=13 note=60 velocity=80 time=0
EXTRACT: note_off channel=13 note=56 velocity=80 time=0
EXTRACT: note_off channel=13 note=51 velocity=80 time=0
EXTRACT: note_off channel=13 note=44 velocity=80 time=0
EXTRACT: note_on channel=13 note=68 velocity=95 time=0
EXTRACT: note_on channel=13 note=63 velocity=95 time=0
EXTRACT: note_on channel=13 note=60 velocity=95 time=0
EXTRACT: note_on channel=13 note=56 velocity=95 time=0
EXTRACT: note_on channel=13 note=51 velocity=95 time=0
EXTRACT: note_on channel=13 note=44 velocity=95 time=0
EXTRACT: note_off channel=6 note=77 velocity=80 time=0.21897799999999998
EXTRACT: note_on channel=6 note=80 velocity=95 time=0
EXTRACT: note_off channel=13 note=68 velocity=80 time=0
EXTRACT: note_off channel=13 note=63 velocity=80 time=0
EXTRACT: note_off channel=13 note=60 velocity=80 time=0
EXTRACT: note_off channel=13 note=56 velocity=80 time=0
EXTRACT: note_off channel=13 note=51 velocity=80 time=0
EXTRACT: note_off channel=13 note=44 velocity=80 time=0
EXTRACT: note_on channel=13 note=68 velocity=95 time=0
EXTRACT: note_on channel=13 note=63 velocity=95 time=0
EXTRACT: note_on channel=13 note=60 velocity=95 time=0
EXTRACT: note_on channel=13 note=56 velocity=95 time=0
EXTRACT: note_on channel=13 note=51 velocity=95 time=0
EXTRACT: note_on channel=13 note=44 velocity=95 time=0
EXTRACT: note_off channel=13 note=44 velocity=80 time=0.43795599999999996
EXTRACT: note_off channel=13 note=68 velocity=80 time=0.21897799999999998
EXTRACT: note_off channel=13 note=63 velocity=80 time=0
EXTRACT: note_off channel=13 note=60 velocity=80 time=0
EXTRACT: note_off channel=13 note=56 velocity=80 time=0
EXTRACT: note_off channel=13 note=51 velocity=80 time=0
EXTRACT: note_on channel=13 note=68 velocity=95 time=0
EXTRACT: note_on channel=13 note=63 velocity=95 time=0
EXTRACT: note_on channel=13 note=60 velocity=95 time=0
EXTRACT: note_on channel=13 note=56 velocity=95 time=0
EXTRACT: note_on channel=13 note=51 velocity=95 time=0
EXTRACT: note_on channel=13 note=44 velocity=95 time=0
EXTRACT: note_off channel=6 note=80 velocity=80 time=0.21897799999999998
EXTRACT: note_on channel=6 note=79 velocity=95 time=0
EXTRACT: note_off channel=8 note=68 velocity=80 time=0
EXTRACT: note_off channel=8 note=63 velocity=80 time=0
EXTRACT: note_off channel=8 note=60 velocity=80 time=0
EXTRACT: note_off channel=8 note=56 velocity=80 time=0
EXTRACT: note_off channel=8 note=51 velocity=80 time=0
EXTRACT: note_off channel=8 note=44 velocity=80 time=0
EXTRACT: note_on channel=8 note=67 velocity=95 time=0
EXTRACT: note_on channel=8 note=63 velocity=95 time=0
EXTRACT: note_on channel=8 note=58 velocity=95 time=0
EXTRACT: note_on channel=8 note=55 velocity=95 time=0
EXTRACT: note_on channel=8 note=51 velocity=95 time=0
EXTRACT: note_off channel=13 note=68 velocity=80 time=0
EXTRACT: note_off channel=13 note=63 velocity=80 time=0
EXTRACT: note_off channel=13 note=60 velocity=80 time=0
EXTRACT: note_off channel=13 note=56 velocity=80 time=0
EXTRACT: note_off channel=13 note=51 velocity=80 time=0
EXTRACT: note_off channel=13 note=44 velocity=80 time=0
EXTRACT: note_on channel=13 note=67 velocity=95 time=0
EXTRACT: note_on channel=13 note=63 velocity=95 time=0
EXTRACT: note_on channel=13 note=58 velocity=95 time=0
EXTRACT: note_on channel=13 note=55 velocity=95 time=0
EXTRACT: note_on channel=13 note=51 velocity=95 time=0
EXTRACT: note_off channel=2 note=32 velocity=80 time=0
EXTRACT: note_on channel=2 note=39 velocity=95 time=0
EXTRACT: note_off channel=13 note=67 velocity=80 time=0.43795599999999996
EXTRACT: note_off channel=13 note=63 velocity=80 time=0
EXTRACT: note_off channel=13 note=58 velocity=80 time=0
EXTRACT: note_off channel=13 note=55 velocity=80 time=0
EXTRACT: note_off channel=13 note=51 velocity=80 time=0
EXTRACT: note_on channel=13 note=67 velocity=95 time=0
EXTRACT: note_on channel=13 note=63 velocity=95 time=0
EXTRACT: note_on channel=13 note=58 velocity=95 time=0
EXTRACT: note_on channel=13 note=55 velocity=95 time=0
EXTRACT: note_on channel=13 note=51 velocity=95 time=0
EXTRACT: note_off channel=13 note=67 velocity=80 time=0.21897799999999998
EXTRACT: note_off channel=13 note=63 velocity=80 time=0
EXTRACT: note_off channel=13 note=58 velocity=80 time=0
EXTRACT: note_off channel=13 note=55 velocity=80 time=0
EXTRACT: note_off channel=13 note=51 velocity=80 time=0
EXTRACT: note_on channel=13 note=67 velocity=95 time=0
EXTRACT: note_on channel=13 note=63 velocity=95 time=0
EXTRACT: note_on channel=13 note=58 velocity=95 time=0
EXTRACT: note_on channel=13 note=55 velocity=95 time=0
EXTRACT: note_on channel=13 note=51 velocity=95 time=0
EXTRACT: note_off channel=6 note=79 velocity=80 time=0.21897799999999998
EXTRACT: note_on channel=7 note=77 velocity=95 time=0
EXTRACT: note_off channel=0 note=80 velocity=80 time=0
EXTRACT: note_off channel=0 note=75 velocity=80 time=0
EXTRACT: note_off channel=0 note=72 velocity=80 time=0
EXTRACT: note_off channel=0 note=68 velocity=80 time=0
EXTRACT: note_off channel=0 note=63 velocity=80 time=0
EXTRACT: note_off channel=0 note=56 velocity=80 time=0
EXTRACT: note_on channel=0 note=82 velocity=95 time=0
EXTRACT: note_on channel=0 note=77 velocity=95 time=0
EXTRACT: note_on channel=0 note=70 velocity=95 time=0
EXTRACT: note_on channel=0 note=65 velocity=95 time=0
EXTRACT: note_on channel=0 note=62 velocity=95 time=0
EXTRACT: note_on channel=0 note=58 velocity=95 time=0
EXTRACT: note_off channel=4 note=80 velocity=80 time=0
EXTRACT: note_off channel=4 note=75 velocity=80 time=0
EXTRACT: note_off channel=4 note=72 velocity=80 time=0
EXTRACT: note_off channel=4 note=68 velocity=80 time=0
EXTRACT: note_off channel=4 note=63 velocity=80 time=0
EXTRACT: note_off channel=4 note=56 velocity=80 time=0
EXTRACT: note_on channel=4 note=82 velocity=95 time=0
EXTRACT: note_on channel=4 note=77 velocity=95 time=0
EXTRACT: note_on channel=4 note=70 velocity=95 time=0
EXTRACT: note_on channel=4 note=65 velocity=95 time=0
EXTRACT: note_on channel=4 note=62 velocity=95 time=0
EXTRACT: note_on channel=4 note=58 velocity=95 time=0
EXTRACT: note_off channel=8 note=67 velocity=80 time=0
EXTRACT: note_off channel=8 note=63 velocity=80 time=0
EXTRACT: note_off channel=8 note=58 velocity=80 time=0
EXTRACT: note_off channel=8 note=55 velocity=80 time=0
EXTRACT: note_off channel=8 note=51 velocity=80 time=0
EXTRACT: note_on channel=8 note=70 velocity=95 time=0
EXTRACT: note_on channel=8 note=65 velocity=95 time=0
EXTRACT: note_on channel=8 note=58 velocity=95 time=0
EXTRACT: note_on channel=8 note=53 velocity=95 time=0
EXTRACT: note_on channel=8 note=50 velocity=95 time=0
EXTRACT: note_on channel=8 note=46 velocity=95 time=0
EXTRACT: note_off channel=13 note=67 velocity=80 time=0
EXTRACT: note_off channel=13 note=63 velocity=80 time=0
EXTRACT: note_off channel=13 note=58 velocity=80 time=0
EXTRACT: note_off channel=13 note=55 velocity=80 time=0
EXTRACT: note_off channel=13 note=51 velocity=80 time=0
EXTRACT: note_on channel=13 note=70 velocity=95 time=0
EXTRACT: note_on channel=13 note=65 velocity=95 time=0
EXTRACT: note_on channel=13 note=58 velocity=95 time=0
EXTRACT: note_on channel=13 note=53 velocity=95 time=0
EXTRACT: note_on channel=13 note=50 velocity=95 time=0
EXTRACT: note_on channel=13 note=46 velocity=95 time=0
EXTRACT: note_off channel=2 note=39 velocity=80 time=0
EXTRACT: note_on channel=2 note=34 velocity=95 time=0
EXTRACT: pitchwheel channel=7 pitch=-640 time=0.21897799999999998
EXTRACT: pitchwheel channel=7 pitch=-1408 time=0.21897799999999998
EXTRACT: note_off channel=13 note=46 velocity=80 time=0
EXTRACT: note_off channel=13 note=70 velocity=80 time=0.21897799999999998
EXTRACT: note_off channel=13 note=65 velocity=80 time=0
EXTRACT: note_off channel=13 note=58 velocity=80 time=0
EXTRACT: note_off channel=13 note=53 velocity=80 time=0
EXTRACT: note_off channel=13 note=50 velocity=80 time=0
EXTRACT: note_on channel=13 note=70 velocity=95 time=0
EXTRACT: note_on channel=13 note=65 velocity=95 time=0
EXTRACT: note_on channel=13 note=58 velocity=95 time=0
EXTRACT: note_on channel=13 note=53 velocity=95 time=0
EXTRACT: note_on channel=13 note=50 velocity=95 time=0
EXTRACT: note_on channel=13 note=46 velocity=95 time=0
EXTRACT: pitchwheel channel=7 pitch=-2048 time=0.1313868
EXTRACT: pitchwheel channel=7 pitch=-2048 time=0.0875912
EXTRACT: note_off channel=13 note=70 velocity=80 time=0
EXTRACT: note_off channel=13 note=65 velocity=80 time=0
EXTRACT: note_off channel=13 note=58 velocity=80 time=0
EXTRACT: note_off channel=13 note=53 velocity=80 time=0
EXTRACT: note_off channel=13 note=50 velocity=80 time=0
EXTRACT: note_off channel=13 note=46 velocity=80 time=0
EXTRACT: note_on channel=13 note=70 velocity=95 time=0
EXTRACT: note_on channel=13 note=65 velocity=95 time=0
EXTRACT: note_on channel=13 note=58 velocity=95 time=0
EXTRACT: note_on channel=13 note=53 velocity=95 time=0
EXTRACT: note_on channel=13 note=50 velocity=95 time=0
EXTRACT: note_on channel=13 note=46 velocity=95 time=0
EXTRACT: note_off channel=7 note=77 velocity=80 time=0.43795599999999996
EXTRACT: pitchwheel channel=7 pitch=0 time=0
EXTRACT: pitchwheel channel=7 pitch=0 time=0
EXTRACT: note_on channel=6 note=72 velocity=86 time=0
EXTRACT: note_off channel=13 note=70 velocity=80 time=0
EXTRACT: note_off channel=13 note=65 velocity=80 time=0
EXTRACT: note_off channel=13 note=58 velocity=80 time=0
EXTRACT: note_off channel=13 note=53 velocity=80 time=0
EXTRACT: note_off channel=13 note=50 velocity=80 time=0
EXTRACT: note_off channel=13 note=46 velocity=80 time=0
EXTRACT: note_on channel=13 note=70 velocity=95 time=0
EXTRACT: note_on channel=13 note=65 velocity=95 time=0
EXTRACT: note_on channel=13 note=58 velocity=95 time=0
EXTRACT: note_on channel=13 note=53 velocity=95 time=0
EXTRACT: note_on channel=13 note=50 velocity=95 time=0
EXTRACT: note_on channel=13 note=46 velocity=95 time=0
EXTRACT: note_off channel=13 note=70 velocity=80 time=0.21897799999999998
EXTRACT: note_off channel=13 note=65 velocity=80 time=0
EXTRACT: note_off channel=13 note=58 velocity=80 time=0
EXTRACT: note_off channel=13 note=53 velocity=80 time=0
EXTRACT: note_off channel=13 note=50 velocity=80 time=0
EXTRACT: note_off channel=13 note=46 velocity=80 time=0
EXTRACT: note_on channel=13 note=70 velocity=95 time=0
EXTRACT: note_on channel=13 note=65 velocity=95 time=0
EXTRACT: note_on channel=13 note=58 velocity=95 time=0
EXTRACT: note_on channel=13 note=53 velocity=95 time=0
EXTRACT: note_on channel=13 note=50 velocity=95 time=0
EXTRACT: note_on channel=13 note=46 velocity=95 time=0
EXTRACT: note_off channel=6 note=72 velocity=80 time=0.21897799999999998
EXTRACT: note_on channel=6 note=74 velocity=95 time=0
EXTRACT: note_off channel=13 note=70 velocity=80 time=0
EXTRACT: note_off channel=13 note=65 velocity=80 time=0
EXTRACT: note_off channel=13 note=58 velocity=80 time=0
EXTRACT: note_off channel=13 note=53 velocity=80 time=0
EXTRACT: note_off channel=13 note=50 velocity=80 time=0
EXTRACT: note_off channel=13 note=46 velocity=80 time=0
EXTRACT: note_on channel=13 note=70 velocity=95 time=0
EXTRACT: note_on channel=13 note=65 velocity=95 time=0
EXTRACT: note_on channel=13 note=58 velocity=95 time=0
EXTRACT: note_on channel=13 note=53 velocity=95 time=0
EXTRACT: note_on channel=13 note=50 velocity=95 time=0
EXTRACT: note_on channel=13 note=46 velocity=95 time=0
EXTRACT: note_off channel=13 note=46 velocity=80 time=0.43795599999999996
EXTRACT: note_off channel=13 note=70 velocity=80 time=0.21897799999999998
EXTRACT: note_off channel=13 note=65 velocity=80 time=0
EXTRACT: note_off channel=13 note=58 velocity=80 time=0
EXTRACT: note_off channel=13 note=53 velocity=80 time=0
EXTRACT: note_off channel=13 note=50 velocity=80 time=0
EXTRACT: note_on channel=13 note=70 velocity=95 time=0
EXTRACT: note_on channel=13 note=65 velocity=95 time=0
EXTRACT: note_on channel=13 note=58 velocity=95 time=0
EXTRACT: note_on channel=13 note=53 velocity=95 time=0
EXTRACT: note_on channel=13 note=50 velocity=95 time=0
EXTRACT: note_on channel=13 note=46 velocity=95 time=0
EXTRACT: note_off channel=6 note=74 velocity=80 time=0.21897799999999998
EXTRACT: note_on channel=6 note=75 velocity=95 time=0
EXTRACT: note_off channel=13 note=70 velocity=80 time=0
EXTRACT: note_off channel=13 note=65 velocity=80 time=0
EXTRACT: note_off channel=13 note=58 velocity=80 time=0
EXTRACT: note_off channel=13 note=53 velocity=80 time=0
EXTRACT: note_off channel=13 note=50 velocity=80 time=0
EXTRACT: note_off channel=13 note=46 velocity=80 time=0
EXTRACT: note_on channel=13 note=70 velocity=95 time=0
EXTRACT: note_on channel=13 note=65 velocity=95 time=0
EXTRACT: note_on channel=13 note=58 velocity=95 time=0
EXTRACT: note_on channel=13 note=53 velocity=95 time=0
EXTRACT: note_on channel=13 note=50 velocity=95 time=0
EXTRACT: note_on channel=13 note=46 velocity=95 time=0
EXTRACT: note_off channel=6 note=75 velocity=80 time=0.43795599999999996
EXTRACT: note_on channel=6 note=77 velocity=95 time=0
EXTRACT: note_off channel=13 note=70 velocity=80 time=0
EXTRACT: note_off channel=13 note=65 velocity=80 time=0
EXTRACT: note_off channel=13 note=58 velocity=80 time=0
EXTRACT: note_off channel=13 note=53 velocity=80 time=0
EXTRACT: note_off channel=13 note=50 velocity=80 time=0
EXTRACT: note_off channel=13 note=46 velocity=80 time=0
EXTRACT: note_on channel=13 note=70 velocity=95 time=0
EXTRACT: note_on channel=13 note=65 velocity=95 time=0
EXTRACT: note_on channel=13 note=58 velocity=95 time=0
EXTRACT: note_on channel=13 note=53 velocity=95 time=0
EXTRACT: note_on channel=13 note=50 velocity=95 time=0
EXTRACT: note_on channel=13 note=46 velocity=95 time=0
EXTRACT: note_off channel=13 note=70 velocity=80 time=0.21897799999999998
EXTRACT: note_off channel=13 note=65 velocity=80 time=0
EXTRACT: note_off channel=13 note=58 velocity=80 time=0
EXTRACT: note_off channel=13 note=53 velocity=80 time=0
EXTRACT: note_off channel=13 note=50 velocity=80 time=0
EXTRACT: note_off channel=13 note=46 velocity=80 time=0
EXTRACT: note_on channel=13 note=70 velocity=95 time=0
EXTRACT: note_on channel=13 note=65 velocity=95 time=0
EXTRACT: note_on channel=13 note=58 velocity=95 time=0
EXTRACT: note_on channel=13 note=53 velocity=95 time=0
EXTRACT: note_on channel=13 note=50 velocity=95 time=0
EXTRACT: note_on channel=13 note=46 velocity=95 time=0
EXTRACT: note_off channel=0 note=82 velocity=80 time=0.21897799999999998
EXTRACT: note_off channel=0 note=77 velocity=80 time=0
EXTRACT: note_off channel=0 note=70 velocity=80 time=0
EXTRACT: note_off channel=0 note=65 velocity=80 time=0
EXTRACT: note_off channel=0 note=62 velocity=80 time=0
EXTRACT: note_off channel=0 note=58 velocity=80 time=0
EXTRACT: note_on channel=0 note=80 velocity=95 time=0
EXTRACT: note_on channel=0 note=75 velocity=95 time=0
EXTRACT: note_on channel=0 note=72 velocity=95 time=0
EXTRACT: note_on channel=0 note=68 velocity=95 time=0
EXTRACT: note_on channel=0 note=63 velocity=95 time=0
EXTRACT: note_on channel=0 note=56 velocity=95 time=0
EXTRACT: note_off channel=4 note=82 velocity=80 time=0
EXTRACT: note_off channel=4 note=77 velocity=80 time=0
EXTRACT: note_off channel=4 note=70 velocity=80 time=0
EXTRACT: note_off channel=4 note=65 velocity=80 time=0
EXTRACT: note_off channel=4 note=62 velocity=80 time=0
EXTRACT: note_off channel=4 note=58 velocity=80 time=0
EXTRACT: note_on channel=4 note=80 velocity=95 time=0
EXTRACT: note_on channel=4 note=75 velocity=95 time=0
EXTRACT: note_on channel=4 note=72 velocity=95 time=0
EXTRACT: note_on channel=4 note=68 velocity=95 time=0
EXTRACT: note_on channel=4 note=63 velocity=95 time=0
EXTRACT: note_on channel=4 note=56 velocity=95 time=0
EXTRACT: note_off channel=8 note=70 velocity=80 time=0
EXTRACT: note_off channel=8 note=65 velocity=80 time=0
EXTRACT: note_off channel=8 note=58 velocity=80 time=0
EXTRACT: note_off channel=8 note=53 velocity=80 time=0
EXTRACT: note_off channel=8 note=50 velocity=80 time=0
EXTRACT: note_off channel=8 note=46 velocity=80 time=0
EXTRACT: note_on channel=8 note=68 velocity=95 time=0
EXTRACT: note_on channel=8 note=63 velocity=95 time=0
EXTRACT: note_on channel=8 note=60 velocity=95 time=0
EXTRACT: note_on channel=8 note=56 velocity=95 time=0
EXTRACT: note_on channel=8 note=51 velocity=95 time=0
EXTRACT: note_on channel=8 note=44 velocity=95 time=0
EXTRACT: note_off channel=13 note=70 velocity=80 time=0
EXTRACT: note_off channel=13 note=65 velocity=80 time=0
EXTRACT: note_off channel=13 note=58 velocity=80 time=0
EXTRACT: note_off channel=13 note=53 velocity=80 time=0
EXTRACT: note_off channel=13 note=50 velocity=80 time=0
EXTRACT: note_off channel=13 note=46 velocity=80 time=0
EXTRACT: note_on channel=13 note=68 velocity=95 time=0
EXTRACT: note_on channel=13 note=63 velocity=95 time=0
EXTRACT: note_on channel=13 note=60 velocity=95 time=0
EXTRACT: note_on channel=13 note=56 velocity=95 time=0
EXTRACT: note_on channel=13 note=51 velocity=95 time=0
EXTRACT: note_on channel=13 note=44 velocity=95 time=0
EXTRACT: note_off channel=2 note=34 velocity=80 time=0
EXTRACT: note_on channel=2 note=32 velocity=95 time=0
EXTRACT: note_off channel=13 note=44 velocity=80 time=0.43795599999999996
EXTRACT: note_off channel=13 note=68 velocity=80 time=0.21897799999999998
EXTRACT: note_off channel=13 note=63 velocity=80 time=0
EXTRACT: note_off channel=13 note=60 velocity=80 time=0
EXTRACT: note_off channel=13 note=56 velocity=80 time=0
EXTRACT: note_off channel=13 note=51 velocity=80 time=0
EXTRACT: note_on channel=13 note=68 velocity=95 time=0
EXTRACT: note_on channel=13 note=63 velocity=95 time=0
EXTRACT: note_on channel=13 note=60 velocity=95 time=0
EXTRACT: note_on channel=13 note=56 velocity=95 time=0
EXTRACT: note_on channel=13 note=51 velocity=95 time=0
EXTRACT: note_on channel=13 note=44 velocity=95 time=0
EXTRACT: note_off channel=13 note=68 velocity=80 time=0.21897799999999998
EXTRACT: note_off channel=13 note=63 velocity=80 time=0
EXTRACT: note_off channel=13 note=60 velocity=80 time=0
EXTRACT: note_off channel=13 note=56 velocity=80 time=0
EXTRACT: note_off channel=13 note=51 velocity=80 time=0
EXTRACT: note_off channel=13 note=44 velocity=80 time=0
EXTRACT: note_on channel=13 note=68 velocity=95 time=0
EXTRACT: note_on channel=13 note=63 velocity=95 time=0
EXTRACT: note_on channel=13 note=60 velocity=95 time=0
EXTRACT: note_on channel=13 note=56 velocity=95 time=0
EXTRACT: note_on channel=13 note=51 velocity=95 time=0
EXTRACT: note_on channel=13 note=44 velocity=95 time=0
EXTRACT: note_off channel=6 note=77 velocity=80 time=0.43795599999999996
EXTRACT: note_on channel=6 note=77 velocity=95 time=0
EXTRACT: note_off channel=13 note=68 velocity=80 time=0
EXTRACT: note_off channel=13 note=63 velocity=80 time=0
EXTRACT: note_off channel=13 note=60 velocity=80 time=0
EXTRACT: note_off channel=13 note=56 velocity=80 time=0
EXTRACT: note_off channel=13 note=51 velocity=80 time=0
EXTRACT: note_off channel=13 note=44 velocity=80 time=0
EXTRACT: note_on channel=13 note=68 velocity=95 time=0
EXTRACT: note_on channel=13 note=63 velocity=95 time=0
EXTRACT: note_on channel=13 note=60 velocity=95 time=0
EXTRACT: note_on channel=13 note=56 velocity=95 time=0
EXTRACT: note_on channel=13 note=51 velocity=95 time=0
EXTRACT: note_on channel=13 note=44 velocity=95 time=0
EXTRACT: note_off channel=13 note=68 velocity=80 time=0.21897799999999998
EXTRACT: note_off channel=13 note=63 velocity=80 time=0
EXTRACT: note_off channel=13 note=60 velocity=80 time=0
EXTRACT: note_off channel=13 note=56 velocity=80 time=0
EXTRACT: note_off channel=13 note=51 velocity=80 time=0
EXTRACT: note_off channel=13 note=44 velocity=80 time=0
EXTRACT: note_on channel=13 note=68 velocity=95 time=0
EXTRACT: note_on channel=13 note=63 velocity=95 time=0
EXTRACT: note_on channel=13 note=60 velocity=95 time=0
EXTRACT: note_on channel=13 note=56 velocity=95 time=0
EXTRACT: note_on channel=13 note=51 velocity=95 time=0
EXTRACT: note_on channel=13 note=44 velocity=95 time=0
EXTRACT: note_off channel=6 note=77 velocity=80 time=0.21897799999999998
EXTRACT: note_on channel=6 note=80 velocity=95 time=0
EXTRACT: note_off channel=13 note=68 velocity=80 time=0
EXTRACT: note_off channel=13 note=63 velocity=80 time=0
EXTRACT: note_off channel=13 note=60 velocity=80 time=0
EXTRACT: note_off channel=13 note=56 velocity=80 time=0
EXTRACT: note_off channel=13 note=51 velocity=80 time=0
EXTRACT: note_off channel=13 note=44 velocity=80 time=0
EXTRACT: note_on channel=13 note=68 velocity=95 time=0
EXTRACT: note_on channel=13 note=63 velocity=95 time=0
EXTRACT: note_on channel=13 note=60 velocity=95 time=0
EXTRACT: note_on channel=13 note=56 velocity=95 time=0
EXTRACT: note_on channel=13 note=51 velocity=95 time=0
EXTRACT: note_on channel=13 note=44 velocity=95 time=0
EXTRACT: note_off channel=13 note=44 velocity=80 time=0.43795599999999996
EXTRACT: note_off channel=13 note=68 velocity=80 time=0.21897799999999998
EXTRACT: note_off channel=13 note=63 velocity=80 time=0
EXTRACT: note_off channel=13 note=60 velocity=80 time=0
EXTRACT: note_off channel=13 note=56 velocity=80 time=0
EXTRACT: note_off channel=13 note=51 velocity=80 time=0
EXTRACT: note_on channel=13 note=68 velocity=95 time=0
EXTRACT: note_on channel=13 note=63 velocity=95 time=0
EXTRACT: note_on channel=13 note=60 velocity=95 time=0
EXTRACT: note_on channel=13 note=56 velocity=95 time=0
EXTRACT: note_on channel=13 note=51 velocity=95 time=0
EXTRACT: note_on channel=13 note=44 velocity=95 time=0
EXTRACT: note_off channel=6 note=80 velocity=80 time=0.21897799999999998
EXTRACT: note_on channel=6 note=79 velocity=95 time=0
EXTRACT: note_off channel=8 note=68 velocity=80 time=0
EXTRACT: note_off channel=8 note=63 velocity=80 time=0
EXTRACT: note_off channel=8 note=60 velocity=80 time=0
EXTRACT: note_off channel=8 note=56 velocity=80 time=0
EXTRACT: note_off channel=8 note=51 velocity=80 time=0
EXTRACT: note_off channel=8 note=44 velocity=80 time=0
EXTRACT: note_on channel=8 note=67 velocity=95 time=0
EXTRACT: note_on channel=8 note=63 velocity=95 time=0
EXTRACT: note_on channel=8 note=58 velocity=95 time=0
EXTRACT: note_on channel=8 note=55 velocity=95 time=0
EXTRACT: note_on channel=8 note=51 velocity=95 time=0
EXTRACT: note_off channel=13 note=68 velocity=80 time=0
EXTRACT: note_off channel=13 note=63 velocity=80 time=0
EXTRACT: note_off channel=13 note=60 velocity=80 time=0
EXTRACT: note_off channel=13 note=56 velocity=80 time=0
EXTRACT: note_off channel=13 note=51 velocity=80 time=0
EXTRACT: note_off channel=13 note=44 velocity=80 time=0
EXTRACT: note_on channel=13 note=67 velocity=95 time=0
EXTRACT: note_on channel=13 note=63 velocity=95 time=0
EXTRACT: note_on channel=13 note=58 velocity=95 time=0
EXTRACT: note_on channel=13 note=55 velocity=95 time=0
EXTRACT: note_on channel=13 note=51 velocity=95 time=0
EXTRACT: note_off channel=2 note=32 velocity=80 time=0
EXTRACT: note_on channel=2 note=39 velocity=95 time=0
EXTRACT: note_off channel=13 note=67 velocity=80 time=0.43795599999999996
EXTRACT: note_off channel=13 note=63 velocity=80 time=0
EXTRACT: note_off channel=13 note=58 velocity=80 time=0
EXTRACT: note_off channel=13 note=55 velocity=80 time=0
EXTRACT: note_off channel=13 note=51 velocity=80 time=0
EXTRACT: note_on channel=13 note=67 velocity=95 time=0
EXTRACT: note_on channel=13 note=63 velocity=95 time=0
EXTRACT: note_on channel=13 note=58 velocity=95 time=0
EXTRACT: note_on channel=13 note=55 velocity=95 time=0
EXTRACT: note_on channel=13 note=51 velocity=95 time=0
EXTRACT: note_off channel=13 note=67 velocity=80 time=0.21897799999999998
EXTRACT: note_off channel=13 note=63 velocity=80 time=0
EXTRACT: note_off channel=13 note=58 velocity=80 time=0
EXTRACT: note_off channel=13 note=55 velocity=80 time=0
EXTRACT: note_off channel=13 note=51 velocity=80 time=0
EXTRACT: note_on channel=13 note=67 velocity=95 time=0
EXTRACT: note_on channel=13 note=63 velocity=95 time=0
EXTRACT: note_on channel=13 note=58 velocity=95 time=0
EXTRACT: note_on channel=13 note=55 velocity=95 time=0
EXTRACT: note_on channel=13 note=51 velocity=95 time=0
EXTRACT: note_off channel=6 note=79 velocity=80 time=0.21897799999999998
EXTRACT: note_on channel=6 note=77 velocity=95 time=0
EXTRACT: note_off channel=0 note=80 velocity=80 time=0
EXTRACT: note_off channel=0 note=75 velocity=80 time=0
EXTRACT: note_off channel=0 note=72 velocity=80 time=0
EXTRACT: note_off channel=0 note=68 velocity=80 time=0
EXTRACT: note_off channel=0 note=63 velocity=80 time=0
EXTRACT: note_off channel=0 note=56 velocity=80 time=0
EXTRACT: note_on channel=0 note=82 velocity=95 time=0
EXTRACT: note_on channel=0 note=77 velocity=95 time=0
EXTRACT: note_on channel=0 note=70 velocity=95 time=0
EXTRACT: note_on channel=0 note=65 velocity=95 time=0
EXTRACT: note_on channel=0 note=62 velocity=95 time=0
EXTRACT: note_on channel=0 note=58 velocity=95 time=0
EXTRACT: note_off channel=4 note=80 velocity=80 time=0
EXTRACT: note_off channel=4 note=75 velocity=80 time=0
EXTRACT: note_off channel=4 note=72 velocity=80 time=0
EXTRACT: note_off channel=4 note=68 velocity=80 time=0
EXTRACT: note_off channel=4 note=63 velocity=80 time=0
EXTRACT: note_off channel=4 note=56 velocity=80 time=0
EXTRACT: note_on channel=4 note=82 velocity=95 time=0
EXTRACT: note_on channel=4 note=77 velocity=95 time=0
EXTRACT: note_on channel=4 note=70 velocity=95 time=0
EXTRACT: note_on channel=4 note=65 velocity=95 time=0
EXTRACT: note_on channel=4 note=62 velocity=95 time=0
EXTRACT: note_on channel=4 note=58 velocity=95 time=0
EXTRACT: note_off channel=8 note=67 velocity=80 time=0
EXTRACT: note_off channel=8 note=63 velocity=80 time=0
EXTRACT: note_off channel=8 note=58 velocity=80 time=0
EXTRACT: note_off channel=8 note=55 velocity=80 time=0
EXTRACT: note_off channel=8 note=51 velocity=80 time=0
EXTRACT: note_on channel=8 note=70 velocity=95 time=0
EXTRACT: note_on channel=8 note=65 velocity=95 time=0
EXTRACT: note_on channel=8 note=58 velocity=95 time=0
EXTRACT: note_on channel=8 note=53 velocity=95 time=0
EXTRACT: note_on channel=8 note=50 velocity=95 time=0
EXTRACT: note_on channel=8 note=46 velocity=95 time=0
EXTRACT: note_off channel=13 note=67 velocity=80 time=0
EXTRACT: note_off channel=13 note=63 velocity=80 time=0
EXTRACT: note_off channel=13 note=58 velocity=80 time=0
EXTRACT: note_off channel=13 note=55 velocity=80 time=0
EXTRACT: note_off channel=13 note=51 velocity=80 time=0
EXTRACT: note_on channel=13 note=70 velocity=95 time=0
EXTRACT: note_on channel=13 note=65 velocity=95 time=0
EXTRACT: note_on channel=13 note=58 velocity=95 time=0
EXTRACT: note_on channel=13 note=53 velocity=95 time=0
EXTRACT: note_on channel=13 note=50 velocity=95 time=0
EXTRACT: note_on channel=13 note=46 velocity=95 time=0
EXTRACT: note_off channel=2 note=39 velocity=80 time=0
EXTRACT: note_on channel=2 note=34 velocity=95 time=0
EXTRACT: note_off channel=13 note=46 velocity=80 time=0.43795599999999996
EXTRACT: note_off channel=13 note=70 velocity=80 time=0.21897799999999998
EXTRACT: note_off channel=13 note=65 velocity=80 time=0
EXTRACT: note_off channel=13 note=58 velocity=80 time=0
EXTRACT: note_off channel=13 note=53 velocity=80 time=0
EXTRACT: note_off channel=13 note=50 velocity=80 time=0
EXTRACT: note_on channel=13 note=70 velocity=95 time=0
EXTRACT: note_on channel=13 note=65 velocity=95 time=0
EXTRACT: note_on channel=13 note=58 velocity=95 time=0
EXTRACT: note_on channel=13 note=53 velocity=95 time=0
EXTRACT: note_on channel=13 note=50 velocity=95 time=0
EXTRACT: note_on channel=13 note=46 velocity=95 time=0
EXTRACT: note_off channel=13 note=70 velocity=80 time=0.21897799999999998
EXTRACT: note_off channel=13 note=65 velocity=80 time=0
EXTRACT: note_off channel=13 note=58 velocity=80 time=0
EXTRACT: note_off channel=13 note=53 velocity=80 time=0
EXTRACT: note_off channel=13 note=50 velocity=80 time=0
EXTRACT: note_off channel=13 note=46 velocity=80 time=0
EXTRACT: note_on channel=13 note=70 velocity=95 time=0
EXTRACT: note_on channel=13 note=65 velocity=95 time=0
EXTRACT: note_on channel=13 note=58 velocity=95 time=0
EXTRACT: note_on channel=13 note=53 velocity=95 time=0
EXTRACT: note_on channel=13 note=50 velocity=95 time=0
EXTRACT: note_on channel=13 note=46 velocity=95 time=0
EXTRACT: note_off channel=13 note=70 velocity=80 time=0.43795599999999996
EXTRACT: note_off channel=13 note=65 velocity=80 time=0
EXTRACT: note_off channel=13 note=58 velocity=80 time=0
EXTRACT: note_off channel=13 note=53 velocity=80 time=0
EXTRACT: note_off channel=13 note=50 velocity=80 time=0
EXTRACT: note_off channel=13 note=46 velocity=80 time=0
EXTRACT: note_on channel=13 note=70 velocity=95 time=0
EXTRACT: note_on channel=13 note=65 velocity=95 time=0
EXTRACT: note_on channel=13 note=58 velocity=95 time=0
EXTRACT: note_on channel=13 note=53 velocity=95 time=0
EXTRACT: note_on channel=13 note=50 velocity=95 time=0
EXTRACT: note_on channel=13 note=46 velocity=95 time=0
EXTRACT: note_off channel=13 note=70 velocity=80 time=0.21897799999999998
EXTRACT: note_off channel=13 note=65 velocity=80 time=0
EXTRACT: note_off channel=13 note=58 velocity=80 time=0
EXTRACT: note_off channel=13 note=53 velocity=80 time=0
EXTRACT: note_off channel=13 note=50 velocity=80 time=0
EXTRACT: note_off channel=13 note=46 velocity=80 time=0
EXTRACT: note_on channel=13 note=70 velocity=95 time=0
EXTRACT: note_on channel=13 note=65 velocity=95 time=0
EXTRACT: note_on channel=13 note=58 velocity=95 time=0
EXTRACT: note_on channel=13 note=53 velocity=95 time=0
EXTRACT: note_on channel=13 note=50 velocity=95 time=0
EXTRACT: note_on channel=13 note=46 velocity=95 time=0
EXTRACT: note_off channel=13 note=70 velocity=80 time=0.21897799999999998
EXTRACT: note_off channel=13 note=65 velocity=80 time=0
EXTRACT: note_off channel=13 note=58 velocity=80 time=0
EXTRACT: note_off channel=13 note=53 velocity=80 time=0
EXTRACT: note_off channel=13 note=50 velocity=80 time=0
EXTRACT: note_off channel=13 note=46 velocity=80 time=0
EXTRACT: note_on channel=13 note=70 velocity=95 time=0
EXTRACT: note_on channel=13 note=65 velocity=95 time=0
EXTRACT: note_on channel=13 note=58 velocity=95 time=0
EXTRACT: note_on channel=13 note=53 velocity=95 time=0
EXTRACT: note_on channel=13 note=50 velocity=95 time=0
EXTRACT: note_on channel=13 note=46 velocity=95 time=0
EXTRACT: note_off channel=6 note=77 velocity=80 time=0.43795599999999996
EXTRACT: note_on channel=6 note=75 velocity=95 time=0
EXTRACT: note_off channel=6 note=75 velocity=80 time=0.43795599999999996
EXTRACT: note_on channel=6 note=79 velocity=86 time=0
EXTRACT: note_off channel=6 note=79 velocity=80 time=0.10948899999999999
EXTRACT: note_on channel=6 note=75 velocity=95 time=0.32846699999999995
EXTRACT: note_off channel=6 note=75 velocity=80 time=0
EXTRACT: note_off channel=0 note=82 velocity=80 time=0
EXTRACT: note_off channel=0 note=77 velocity=80 time=0
EXTRACT: note_off channel=0 note=70 velocity=80 time=0
EXTRACT: note_off channel=0 note=65 velocity=80 time=0
EXTRACT: note_off channel=0 note=62 velocity=80 time=0
EXTRACT: note_off channel=0 note=58 velocity=80 time=0
EXTRACT: program_change channel=0 program=16 time=0
EXTRACT: program_change channel=1 program=16 time=0
EXTRACT: control_change channel=0 control=7 value=64 time=0
EXTRACT: control_change channel=1 control=7 value=64 time=0
EXTRACT: control_change channel=0 control=10 value=64 time=0
EXTRACT: control_change channel=1 control=10 value=64 time=0
EXTRACT: note_on channel=0 note=67 velocity=95 time=0
EXTRACT: note_on channel=0 note=63 velocity=95 time=0
EXTRACT: note_on channel=0 note=58 velocity=95 time=0
EXTRACT: note_on channel=0 note=55 velocity=95 time=0
EXTRACT: note_on channel=0 note=51 velocity=95 time=0
EXTRACT: note_off channel=4 note=82 velocity=80 time=0
EXTRACT: note_off channel=4 note=77 velocity=80 time=0
EXTRACT: note_off channel=4 note=70 velocity=80 time=0
EXTRACT: note_off channel=4 note=65 velocity=80 time=0
EXTRACT: note_off channel=4 note=62 velocity=80 time=0
EXTRACT: note_off channel=4 note=58 velocity=80 time=0
EXTRACT: note_off channel=8 note=70 velocity=80 time=0
EXTRACT: note_off channel=8 note=65 velocity=80 time=0
EXTRACT: note_off channel=8 note=58 velocity=80 time=0
EXTRACT: note_off channel=8 note=53 velocity=80 time=0
EXTRACT: note_off channel=8 note=50 velocity=80 time=0
EXTRACT: note_off channel=8 note=46 velocity=80 time=0
EXTRACT: note_off channel=13 note=70 velocity=80 time=0
EXTRACT: note_off channel=13 note=65 velocity=80 time=0
EXTRACT: note_off channel=13 note=58 velocity=80 time=0
EXTRACT: note_off channel=13 note=53 velocity=80 time=0
EXTRACT: note_off channel=13 note=50 velocity=80 time=0
EXTRACT: note_off channel=13 note=46 velocity=80 time=0
EXTRACT: program_change channel=13 program=99 time=0
EXTRACT: program_change channel=14 program=99 time=0
EXTRACT: control_change channel=13 control=7 value=80 time=0
EXTRACT: control_change channel=14 control=7 value=80 time=0
EXTRACT: control_change channel=13 control=10 value=120 time=0
EXTRACT: control_change channel=14 control=10 value=120 time=0
EXTRACT: note_on channel=13 note=63 velocity=95 time=0
EXTRACT: note_on channel=15 note=63 velocity=95 time=0
EXTRACT: note_off channel=2 note=34 velocity=80 time=0
EXTRACT: program_change channel=2 program=33 time=0
EXTRACT: program_change channel=3 program=33 time=0
EXTRACT: control_change channel=2 control=7 value=96 time=0
EXTRACT: control_change channel=3 control=7 value=96 time=0
EXTRACT: note_on channel=2 note=39 velocity=95 time=0
EXTRACT: note_on channel=9 note=51 velocity=95 time=0
EXTRACT: note_off channel=13 note=63 velocity=80 time=0.2142855
EXTRACT: note_on channel=13 note=63 velocity=95 time=0
EXTRACT: note_off channel=15 note=63 velocity=80 time=0
EXTRACT: note_on channel=15 note=63 velocity=95 time=0
EXTRACT: note_off channel=9 note=51 velocity=80 time=0
EXTRACT: note_on channel=9 note=51 velocity=63 time=0
EXTRACT: note_off channel=13 note=63 velocity=80 time=0.2142855
EXTRACT: note_on channel=13 note=63 velocity=95 time=0
EXTRACT: note_off channel=15 note=63 velocity=80 time=0
EXTRACT: note_on channel=15 note=63 velocity=95 time=0
EXTRACT: note_off channel=9 note=51 velocity=80 time=0
EXTRACT: note_on channel=9 note=51 velocity=95 time=0
EXTRACT: note_off channel=13 note=63 velocity=80 time=0.2142855
EXTRACT: note_on channel=13 note=63 velocity=95 time=0
EXTRACT: note_off channel=15 note=63 velocity=80 time=0
EXTRACT: note_on channel=15 note=63 velocity=95 time=0
EXTRACT: note_off channel=9 note=51 velocity=80 time=0
EXTRACT: note_on channel=9 note=51 velocity=63 time=0
EXTRACT: note_off channel=13 note=63 velocity=80 time=0.2142855
EXTRACT: note_on channel=13 note=63 velocity=95 time=0
EXTRACT: note_off channel=15 note=63 velocity=80 time=0
EXTRACT: note_on channel=15 note=63 velocity=95 time=0
EXTRACT: note_off channel=9 note=51 velocity=80 time=0
EXTRACT: note_on channel=9 note=51 velocity=95 time=0
EXTRACT: note_off channel=13 note=63 velocity=80 time=0.2142855
EXTRACT: note_on channel=13 note=63 velocity=95 time=0
EXTRACT: note_off channel=15 note=63 velocity=80 time=0
EXTRACT: note_on channel=15 note=63 velocity=95 time=0
EXTRACT: note_off channel=9 note=51 velocity=80 time=0
EXTRACT: note_on channel=9 note=51 velocity=63 time=0
EXTRACT: note_off channel=13 note=63 velocity=80 time=0.2142855
EXTRACT: note_on channel=13 note=63 velocity=95 time=0
EXTRACT: note_off channel=15 note=63 velocity=80 time=0
EXTRACT: note_on channel=15 note=63 velocity=95 time=0
EXTRACT: note_off channel=9 note=51 velocity=80 time=0
EXTRACT: note_on channel=9 note=51 velocity=95 time=0
EXTRACT: note_off channel=13 note=63 velocity=80 time=0.2142855
EXTRACT: note_on channel=13 note=63 velocity=95 time=0
EXTRACT: note_off channel=15 note=63 velocity=80 time=0
EXTRACT: note_on channel=15 note=63 velocity=95 time=0
EXTRACT: note_off channel=9 note=51 velocity=80 time=0
EXTRACT: note_on channel=9 note=51 velocity=63 time=0
EXTRACT: note_off channel=13 note=63 velocity=80 time=0.2142855
EXTRACT: note_on channel=13 note=63 velocity=95 time=0
EXTRACT: note_off channel=15 note=63 velocity=80 time=0
EXTRACT: note_on channel=15 note=63 velocity=95 time=0
EXTRACT: note_off channel=9 note=51 velocity=80 time=0
EXTRACT: note_on channel=9 note=51 velocity=95 time=0
EXTRACT: note_off channel=13 note=63 velocity=80 time=0.2142855
EXTRACT: note_on channel=13 note=63 velocity=95 time=0
EXTRACT: note_off channel=15 note=63 velocity=80 time=0
EXTRACT: note_on channel=15 note=63 velocity=95 time=0
EXTRACT: note_off channel=9 note=51 velocity=80 time=0
EXTRACT: note_on channel=9 note=51 velocity=63 time=0
EXTRACT: note_off channel=13 note=63 velocity=80 time=0.2142855
EXTRACT: note_on channel=13 note=63 velocity=95 time=0
EXTRACT: note_off channel=15 note=63 velocity=80 time=0
EXTRACT: note_on channel=15 note=63 velocity=95 time=0
EXTRACT: note_off channel=9 note=51 velocity=80 time=0
EXTRACT: note_on channel=9 note=51 velocity=95 time=0
EXTRACT: note_off channel=13 note=63 velocity=80 time=0.2142855
EXTRACT: note_on channel=14 note=63 velocity=95 time=0
EXTRACT: note_off channel=15 note=63 velocity=80 time=0
EXTRACT: note_on channel=15 note=63 velocity=95 time=0
EXTRACT: note_off channel=9 note=51 velocity=80 time=0
EXTRACT: note_on channel=9 note=51 velocity=63 time=0
EXTRACT: pitchwheel channel=14 pitch=640 time=0.10714275
EXTRACT: pitchwheel channel=15 pitch=640 time=0
EXTRACT: pitchwheel channel=14 pitch=1408 time=0.017857125
EXTRACT: pitchwheel channel=15 pitch=1408 time=0
EXTRACT: pitchwheel channel=14 pitch=2048 time=0.017857125
EXTRACT: pitchwheel channel=15 pitch=2048 time=0
EXTRACT: pitchwheel channel=14 pitch=2688 time=0.017857125
EXTRACT: pitchwheel channel=15 pitch=2688 time=0
EXTRACT: pitchwheel channel=14 pitch=3456 time=0.017857125
EXTRACT: pitchwheel channel=15 pitch=3456 time=0
EXTRACT: pitchwheel channel=14 pitch=4096 time=0.017857125
EXTRACT: pitchwheel channel=15 pitch=4096 time=0
EXTRACT: note_off channel=0 note=67 velocity=80 time=0.017857125
EXTRACT: note_off channel=0 note=63 velocity=80 time=0
EXTRACT: note_off channel=0 note=58 velocity=80 time=0
EXTRACT: note_off channel=0 note=55 velocity=80 time=0
EXTRACT: note_off channel=0 note=51 velocity=80 time=0
EXTRACT: note_on channel=0 note=67 velocity=95 time=0
EXTRACT: note_on channel=0 note=63 velocity=95 time=0
EXTRACT: note_on channel=0 note=58 velocity=95 time=0
EXTRACT: note_on channel=0 note=55 velocity=95 time=0
EXTRACT: note_on channel=0 note=51 velocity=95 time=0
EXTRACT: note_off channel=14 note=63 velocity=80 time=0
EXTRACT: pitchwheel channel=14 pitch=0 time=0
EXTRACT: note_on channel=13 note=70 velocity=86 time=0
EXTRACT: note_off channel=15 note=63 velocity=80 time=0
EXTRACT: pitchwheel channel=15 pitch=0 time=0
EXTRACT: note_on channel=15 note=70 velocity=86 time=0
EXTRACT: note_off channel=2 note=39 velocity=80 time=0
EXTRACT: note_on channel=2 note=39 velocity=95 time=0
EXTRACT: note_off channel=9 note=51 velocity=80 time=0
EXTRACT: note_on channel=9 note=51 velocity=95 time=0
EXTRACT: note_off channel=13 note=70 velocity=80 time=0.2142855
EXTRACT: note_on channel=13 note=70 velocity=95 time=0
EXTRACT: note_off channel=15 note=70 velocity=80 time=0
EXTRACT: note_on channel=15 note=70 velocity=95 time=0
EXTRACT: note_off channel=9 note=51 velocity=80 time=0
EXTRACT: note_on channel=9 note=51 velocity=95 time=0
EXTRACT: note_off channel=13 note=70 velocity=80 time=0.2142855
EXTRACT: note_on channel=13 note=70 velocity=95 time=0
EXTRACT: note_off channel=15 note=70 velocity=80 time=0
EXTRACT: note_on channel=15 note=70 velocity=95 time=0
EXTRACT: note_off channel=9 note=51 velocity=80 time=0
EXTRACT: note_on channel=9 note=51 velocity=95 time=0
EXTRACT: note_off channel=13 note=70 velocity=80 time=0.2142855
EXTRACT: note_on channel=14 note=70 velocity=95 time=0
EXTRACT: note_off channel=15 note=70 velocity=80 time=0
EXTRACT: note_on channel=15 note=70 velocity=95 time=0
EXTRACT: note_off channel=9 note=51 velocity=80 time=0
EXTRACT: note_on channel=9 note=51 velocity=95 time=0
EXTRACT: pitchwheel channel=14 pitch=-640 time=0.10714275
EXTRACT: pitchwheel channel=15 pitch=-640 time=0
EXTRACT: pitchwheel channel=14 pitch=-1408 time=0.017857125
EXTRACT: pitchwheel channel=15 pitch=-1408 time=0
EXTRACT: pitchwheel channel=14 pitch=-2048 time=0.017857125
EXTRACT: pitchwheel channel=15 pitch=-2048 time=0
EXTRACT: pitchwheel channel=14 pitch=-2688 time=0.017857125
EXTRACT: pitchwheel channel=15 pitch=-2688 time=0
EXTRACT: pitchwheel channel=14 pitch=-3456 time=0.017857125
EXTRACT: pitchwheel channel=15 pitch=-3456 time=0
EXTRACT: pitchwheel channel=14 pitch=-4096 time=0.017857125
EXTRACT: pitchwheel channel=15 pitch=-4096 time=0
EXTRACT: note_off channel=0 note=67 velocity=80 time=0.017857125
EXTRACT: note_off channel=0 note=63 velocity=80 time=0
EXTRACT: note_off channel=0 note=58 velocity=80 time=0
EXTRACT: note_off channel=0 note=55 velocity=80 time=0
EXTRACT: note_off channel=0 note=51 velocity=80 time=0
EXTRACT: note_on channel=0 note=67 velocity=95 time=0
EXTRACT: note_on channel=0 note=63 velocity=95 time=0
EXTRACT: note_on channel=0 note=60 velocity=95 time=0
EXTRACT: note_on channel=0 note=56 velocity=95 time=0
EXTRACT: note_on channel=0 note=51 velocity=95 time=0
EXTRACT: note_off channel=14 note=70 velocity=80 time=0
EXTRACT: pitchwheel channel=14 pitch=0 time=0
EXTRACT: note_on channel=13 note=63 velocity=86 time=0
EXTRACT: note_off channel=15 note=70 velocity=80 time=0
EXTRACT: pitchwheel channel=15 pitch=0 time=0
EXTRACT: note_on channel=15 note=63 velocity=86 time=0
EXTRACT: note_off channel=2 note=39 velocity=80 time=0
EXTRACT: note_on channel=2 note=44 velocity=95 time=0
EXTRACT: note_off channel=9 note=51 velocity=80 time=0
EXTRACT: note_on channel=9 note=51 velocity=95 time=0
EXTRACT: note_off channel=13 note=63 velocity=80 time=0.2142855
EXTRACT: note_on channel=13 note=63 velocity=95 time=0
EXTRACT: note_off channel=15 note=63 velocity=80 time=0
EXTRACT: note_on channel=15 note=63 velocity=95 time=0
EXTRACT: note_off channel=9 note=51 velocity=80 time=0
EXTRACT: note_on channel=9 note=51 velocity=63 time=0
EXTRACT: note_off channel=13 note=63 velocity=80 time=0.2142855
EXTRACT: note_on channel=13 note=63 velocity=95 time=0
EXTRACT: note_off channel=15 note=63 velocity=80 time=0
EXTRACT: note_on channel=15 note=63 velocity=95 time=0
EXTRACT: note_off channel=9 note=51 velocity=80 time=0
EXTRACT: note_on channel=9 note=51 velocity=95 time=0
EXTRACT: note_off channel=13 note=63 velocity=80 time=0.2142855
EXTRACT: note_on channel=13 note=63 velocity=95 time=0
EXTRACT: note_off channel=15 note=63 velocity=80 time=0
EXTRACT: note_on channel=15 note=63 velocity=95 time=0
EXTRACT: note_off channel=9 note=51 velocity=80 time=0
EXTRACT: note_on channel=9 note=51 velocity=63 time=0
EXTRACT: note_off channel=13 note=63 velocity=80 time=0.2142855
EXTRACT: note_on channel=13 note=63 velocity=95 time=0
EXTRACT: note_off channel=15 note=63 velocity=80 time=0
EXTRACT: note_on channel=15 note=63 velocity=95 time=0
EXTRACT: note_off channel=9 note=51 velocity=80 time=0
EXTRACT: note_on channel=9 note=51 velocity=95 time=0
EXTRACT: note_off channel=13 note=63 velocity=80 time=0.2142855
EXTRACT: note_on channel=13 note=63 velocity=95 time=0
EXTRACT: note_off channel=15 note=63 velocity=80 time=0
EXTRACT: note_on channel=15 note=63 velocity=95 time=0
EXTRACT: note_off channel=9 note=51 velocity=80 time=0
EXTRACT: note_on channel=9 note=51 velocity=63 time=0
EXTRACT: note_off channel=13 note=63 velocity=80 time=0.2142855
EXTRACT: note_on channel=13 note=63 velocity=95 time=0
EXTRACT: note_off channel=15 note=63 velocity=80 time=0
EXTRACT: note_on channel=15 note=63 velocity=95 time=0
EXTRACT: note_off channel=9 note=51 velocity=80 time=0
EXTRACT: note_on channel=9 note=51 velocity=95 time=0
EXTRACT: note_off channel=13 note=63 velocity=80 time=0.2142855
EXTRACT: note_on channel=13 note=63 velocity=95 time=0
EXTRACT: note_off channel=15 note=63 velocity=80 time=0
EXTRACT: note_on channel=15 note=63 velocity=95 time=0
EXTRACT: note_off channel=9 note=51 velocity=80 time=0
EXTRACT: note_on channel=9 note=51 velocity=63 time=0
EXTRACT: note_off channel=13 note=63 velocity=80 time=0.2142855
EXTRACT: note_on channel=13 note=63 velocity=95 time=0
EXTRACT: note_off channel=15 note=63 velocity=80 time=0
EXTRACT: note_on channel=15 note=63 velocity=95 time=0
EXTRACT: note_off channel=9 note=51 velocity=80 time=0
EXTRACT: note_on channel=9 note=51 velocity=95 time=0
EXTRACT: note_off channel=13 note=63 velocity=80 time=0.2142855
EXTRACT: note_on channel=13 note=63 velocity=95 time=0
EXTRACT: note_off channel=15 note=63 velocity=80 time=0
EXTRACT: note_on channel=15 note=63 velocity=95 time=0
EXTRACT: note_off channel=9 note=51 velocity=80 time=0
EXTRACT: note_on channel=9 note=51 velocity=63 time=0
EXTRACT: note_off channel=13 note=63 velocity=80 time=0.2142855
EXTRACT: note_on channel=13 note=63 velocity=95 time=0
EXTRACT: note_off channel=15 note=63 velocity=80 time=0
EXTRACT: note_on channel=15 note=63 velocity=95 time=0
EXTRACT: note_off channel=9 note=51 velocity=80 time=0
EXTRACT: note_on channel=9 note=51 velocity=95 time=0
EXTRACT: note_off channel=13 note=63 velocity=80 time=0.2142855
EXTRACT: note_on channel=14 note=63 velocity=95 time=0
EXTRACT: note_off channel=15 note=63 velocity=80 time=0
EXTRACT: note_on channel=15 note=63 velocity=95 time=0
EXTRACT: note_off channel=9 note=51 velocity=80 time=0
EXTRACT: note_on channel=9 note=51 velocity=63 time=0
EXTRACT: pitchwheel channel=14 pitch=640 time=0.10714275
EXTRACT: pitchwheel channel=15 pitch=640 time=0
EXTRACT: pitchwheel channel=14 pitch=1408 time=0.017857125
EXTRACT: pitchwheel channel=15 pitch=1408 time=0
EXTRACT: pitchwheel channel=14 pitch=2048 time=0.017857125
EXTRACT: pitchwheel channel=15 pitch=2048 time=0
EXTRACT: pitchwheel channel=14 pitch=2688 time=0.017857125
EXTRACT: pitchwheel channel=15 pitch=2688 time=0
EXTRACT: pitchwheel channel=14 pitch=3456 time=0.017857125
EXTRACT: pitchwheel channel=15 pitch=3456 time=0
EXTRACT: pitchwheel channel=14 pitch=4096 time=0.017857125
EXTRACT: pitchwheel channel=15 pitch=4096 time=0
EXTRACT: note_off channel=0 note=67 velocity=80 time=0.017857125
EXTRACT: note_off channel=0 note=63 velocity=80 time=0
EXTRACT: note_off channel=0 note=60 velocity=80 time=0
EXTRACT: note_off channel=0 note=56 velocity=80 time=0
EXTRACT: note_off channel=0 note=51 velocity=80 time=0
EXTRACT: note_on channel=0 note=67 velocity=95 time=0
EXTRACT: note_on channel=0 note=63 velocity=95 time=0
EXTRACT: note_on channel=0 note=60 velocity=95 time=0
EXTRACT: note_on channel=0 note=56 velocity=95 time=0
EXTRACT: note_on channel=0 note=51 velocity=95 time=0
EXTRACT: note_off channel=14 note=63 velocity=80 time=0
EXTRACT: pitchwheel channel=14 pitch=0 time=0
EXTRACT: note_on channel=13 note=70 velocity=86 time=0
EXTRACT: note_off channel=15 note=63 velocity=80 time=0
EXTRACT: pitchwheel channel=15 pitch=0 time=0
EXTRACT: note_on channel=15 note=70 velocity=86 time=0
EXTRACT: note_off channel=2 note=44 velocity=80 time=0
EXTRACT: note_on channel=2 note=44 velocity=95 time=0
EXTRACT: note_off channel=9 note=51 velocity=80 time=0
EXTRACT: note_on channel=9 note=51 velocity=95 time=0
EXTRACT: note_off channel=13 note=70 velocity=80 time=0.2142855
EXTRACT: note_on channel=13 note=70 velocity=95 time=0
EXTRACT: note_off channel=15 note=70 velocity=80 time=0
EXTRACT: note_on channel=15 note=70 velocity=95 time=0
EXTRACT: note_off channel=9 note=51 velocity=80 time=0
EXTRACT: note_on channel=9 note=51 velocity=95 time=0
EXTRACT: note_off channel=13 note=70 velocity=80 time=0.2142855
EXTRACT: note_on channel=13 note=70 velocity=95 time=0
EXTRACT: note_off channel=15 note=70 velocity=80 time=0
EXTRACT: note_on channel=15 note=70 velocity=95 time=0
EXTRACT: note_off channel=9 note=51 velocity=80 time=0
EXTRACT: note_on channel=9 note=51 velocity=95 time=0
EXTRACT: note_off channel=13 note=70 velocity=80 time=0.2142855
EXTRACT: note_on channel=14 note=70 velocity=95 time=0
EXTRACT: note_off channel=15 note=70 velocity=80 time=0
EXTRACT: note_on channel=15 note=70 velocity=95 time=0
EXTRACT: note_off channel=9 note=51 velocity=80 time=0
EXTRACT: note_on channel=9 note=51 velocity=95 time=0
EXTRACT: pitchwheel channel=14 pitch=-640 time=0.10714275
EXTRACT: pitchwheel channel=15 pitch=-640 time=0
EXTRACT: pitchwheel channel=14 pitch=-1408 time=0.017857125
EXTRACT: pitchwheel channel=15 pitch=-1408 time=0
EXTRACT: pitchwheel channel=14 pitch=-2048 time=0.017857125
EXTRACT: pitchwheel channel=15 pitch=-2048 time=0
EXTRACT: pitchwheel channel=14 pitch=-2688 time=0.017857125
EXTRACT: pitchwheel channel=15 pitch=-2688 time=0
EXTRACT: pitchwheel channel=14 pitch=-3456 time=0.017857125
EXTRACT: pitchwheel channel=15 pitch=-3456 time=0
EXTRACT: pitchwheel channel=14 pitch=-4096 time=0.017857125
EXTRACT: pitchwheel channel=15 pitch=-4096 time=0
EXTRACT: note_off channel=0 note=67 velocity=80 time=0.017857125
EXTRACT: note_off channel=0 note=63 velocity=80 time=0
EXTRACT: note_off channel=0 note=60 velocity=80 time=0
EXTRACT: note_off channel=0 note=56 velocity=80 time=0
EXTRACT: note_off channel=0 note=51 velocity=80 time=0
EXTRACT: note_on channel=0 note=67 velocity=95 time=0
EXTRACT: note_on channel=0 note=63 velocity=95 time=0
EXTRACT: note_on channel=0 note=58 velocity=95 time=0
EXTRACT: note_on channel=0 note=55 velocity=95 time=0
EXTRACT: note_on channel=0 note=51 velocity=95 time=0
EXTRACT: note_off channel=14 note=70 velocity=80 time=0
EXTRACT: pitchwheel channel=14 pitch=0 time=0
EXTRACT: note_on channel=13 note=63 velocity=86 time=0
EXTRACT: note_off channel=15 note=70 velocity=80 time=0
EXTRACT: pitchwheel channel=15 pitch=0 time=0
EXTRACT: note_on channel=15 note=63 velocity=86 time=0
EXTRACT: note_off channel=2 note=44 velocity=80 time=0
EXTRACT: note_on channel=2 note=39 velocity=95 time=0
EXTRACT: note_off channel=9 note=51 velocity=80 time=0
EXTRACT: note_on channel=9 note=51 velocity=95 time=0
EXTRACT: note_off channel=13 note=63 velocity=80 time=0.2142855
EXTRACT: note_on channel=13 note=63 velocity=95 time=0
EXTRACT: note_off channel=15 note=63 velocity=80 time=0
EXTRACT: note_on channel=15 note=63 velocity=95 time=0
EXTRACT: note_off channel=9 note=51 velocity=80 time=0
EXTRACT: note_on channel=9 note=51 velocity=63 time=0
EXTRACT: note_off channel=13 note=63 velocity=80 time=0.2142855
EXTRACT: note_on channel=13 note=63 velocity=95 time=0
EXTRACT: note_off channel=15 note=63 velocity=80 time=0
EXTRACT: note_on channel=15 note=63 velocity=95 time=0
EXTRACT: note_off channel=9 note=51 velocity=80 time=0
EXTRACT: note_on channel=9 note=51 velocity=95 time=0
EXTRACT: note_off channel=13 note=63 velocity=80 time=0.2142855
EXTRACT: note_on channel=13 note=63 velocity=95 time=0
EXTRACT: note_off channel=15 note=63 velocity=80 time=0
EXTRACT: note_on channel=15 note=63 velocity=95 time=0
EXTRACT: note_off channel=9 note=51 velocity=80 time=0
EXTRACT: note_on channel=9 note=51 velocity=63 time=0
EXTRACT: note_off channel=13 note=63 velocity=80 time=0.2142855
EXTRACT: note_on channel=13 note=63 velocity=95 time=0
EXTRACT: note_off channel=15 note=63 velocity=80 time=0
EXTRACT: note_on channel=15 note=63 velocity=95 time=0
EXTRACT: note_off channel=9 note=51 velocity=80 time=0
EXTRACT: note_on channel=9 note=51 velocity=95 time=0
EXTRACT: note_off channel=13 note=63 velocity=80 time=0.2142855
EXTRACT: note_on channel=13 note=63 velocity=95 time=0
EXTRACT: note_off channel=15 note=63 velocity=80 time=0
EXTRACT: note_on channel=15 note=63 velocity=95 time=0
EXTRACT: note_off channel=9 note=51 velocity=80 time=0
EXTRACT: note_on channel=9 note=51 velocity=63 time=0
EXTRACT: note_off channel=13 note=63 velocity=80 time=0.2142855
EXTRACT: note_on channel=13 note=63 velocity=95 time=0
EXTRACT: note_off channel=15 note=63 velocity=80 time=0
EXTRACT: note_on channel=15 note=63 velocity=95 time=0
EXTRACT: note_off channel=9 note=51 velocity=80 time=0
EXTRACT: note_on channel=9 note=51 velocity=95 time=0
EXTRACT: note_off channel=13 note=63 velocity=80 time=0.2142855
EXTRACT: note_on channel=13 note=63 velocity=95 time=0
EXTRACT: note_off channel=15 note=63 velocity=80 time=0
EXTRACT: note_on channel=15 note=63 velocity=95 time=0
EXTRACT: note_off channel=9 note=51 velocity=80 time=0
EXTRACT: note_on channel=9 note=51 velocity=63 time=0
EXTRACT: note_off channel=13 note=63 velocity=80 time=0.2142855
EXTRACT: note_on channel=13 note=63 velocity=95 time=0
EXTRACT: note_off channel=15 note=63 velocity=80 time=0
EXTRACT: note_on channel=15 note=63 velocity=95 time=0
EXTRACT: note_off channel=9 note=51 velocity=80 time=0
EXTRACT: note_on channel=9 note=51 velocity=95 time=0
EXTRACT: note_off channel=13 note=63 velocity=80 time=0.2142855
EXTRACT: note_on channel=13 note=63 velocity=95 time=0
EXTRACT: note_off channel=15 note=63 velocity=80 time=0
EXTRACT: note_on channel=15 note=63 velocity=95 time=0
EXTRACT: note_off channel=9 note=51 velocity=80 time=0
EXTRACT: note_on channel=9 note=51 velocity=63 time=0
EXTRACT: note_off channel=13 note=63 velocity=80 time=0.2142855
EXTRACT: note_on channel=13 note=63 velocity=95 time=0
EXTRACT: note_off channel=15 note=63 velocity=80 time=0
EXTRACT: note_on channel=15 note=63 velocity=95 time=0
EXTRACT: note_off channel=9 note=51 velocity=80 time=0
EXTRACT: note_on channel=9 note=51 velocity=95 time=0
EXTRACT: note_off channel=13 note=63 velocity=80 time=0.2142855
EXTRACT: note_on channel=14 note=63 velocity=95 time=0
EXTRACT: note_off channel=15 note=63 velocity=80 time=0
EXTRACT: note_on channel=15 note=63 velocity=95 time=0
EXTRACT: note_off channel=9 note=51 velocity=80 time=0
EXTRACT: note_on channel=9 note=51 velocity=63 time=0
EXTRACT: pitchwheel channel=14 pitch=640 time=0.10714275
EXTRACT: pitchwheel channel=15 pitch=640 time=0
EXTRACT: pitchwheel channel=14 pitch=1408 time=0.017857125
EXTRACT: pitchwheel channel=15 pitch=1408 time=0
EXTRACT: pitchwheel channel=14 pitch=2048 time=0.017857125
EXTRACT: pitchwheel channel=15 pitch=2048 time=0
EXTRACT: pitchwheel channel=14 pitch=2688 time=0.017857125
EXTRACT: pitchwheel channel=15 pitch=2688 time=0
EXTRACT: pitchwheel channel=14 pitch=3456 time=0.017857125
EXTRACT: pitchwheel channel=15 pitch=3456 time=0
EXTRACT: pitchwheel channel=14 pitch=4096 time=0.017857125
EXTRACT: pitchwheel channel=15 pitch=4096 time=0
EXTRACT: note_off channel=0 note=67 velocity=80 time=0.017857125
EXTRACT: note_off channel=0 note=63 velocity=80 time=0
EXTRACT: note_off channel=0 note=58 velocity=80 time=0
EXTRACT: note_off channel=0 note=55 velocity=80 time=0
EXTRACT: note_off channel=0 note=51 velocity=80 time=0
EXTRACT: note_on channel=0 note=67 velocity=95 time=0
EXTRACT: note_on channel=0 note=63 velocity=95 time=0
EXTRACT: note_on channel=0 note=58 velocity=95 time=0
EXTRACT: note_on channel=0 note=55 velocity=95 time=0
EXTRACT: note_on channel=0 note=51 velocity=95 time=0
EXTRACT: note_off channel=14 note=63 velocity=80 time=0
EXTRACT: pitchwheel channel=14 pitch=0 time=0
EXTRACT: note_on channel=13 note=70 velocity=86 time=0
EXTRACT: note_off channel=15 note=63 velocity=80 time=0
EXTRACT: pitchwheel channel=15 pitch=0 time=0
EXTRACT: note_on channel=15 note=70 velocity=86 time=0
EXTRACT: note_off channel=2 note=39 velocity=80 time=0
EXTRACT: note_on channel=2 note=39 velocity=95 time=0
EXTRACT: note_off channel=9 note=51 velocity=80 time=0
EXTRACT: note_on channel=9 note=51 velocity=95 time=0
EXTRACT: note_off channel=13 note=70 velocity=80 time=0.2142855
EXTRACT: note_on channel=13 note=70 velocity=95 time=0
EXTRACT: note_off channel=15 note=70 velocity=80 time=0
EXTRACT: note_on channel=15 note=70 velocity=95 time=0
EXTRACT: note_off channel=9 note=51 velocity=80 time=0
EXTRACT: note_on channel=9 note=51 velocity=95 time=0
EXTRACT: note_off channel=13 note=70 velocity=80 time=0.2142855
EXTRACT: note_on channel=13 note=70 velocity=95 time=0
EXTRACT: note_off channel=15 note=70 velocity=80 time=0
EXTRACT: note_on channel=15 note=70 velocity=95 time=0
EXTRACT: note_off channel=9 note=51 velocity=80 time=0
EXTRACT: note_on channel=9 note=51 velocity=95 time=0
EXTRACT: note_off channel=13 note=70 velocity=80 time=0.2142855
EXTRACT: note_on channel=14 note=70 velocity=95 time=0
EXTRACT: note_off channel=15 note=70 velocity=80 time=0
EXTRACT: note_on channel=15 note=70 velocity=95 time=0
EXTRACT: note_off channel=9 note=51 velocity=80 time=0
EXTRACT: note_on channel=9 note=51 velocity=95 time=0
EXTRACT: pitchwheel channel=14 pitch=-640 time=0.10714275
EXTRACT: pitchwheel channel=15 pitch=-640 time=0
EXTRACT: pitchwheel channel=14 pitch=-1408 time=0.017857125
EXTRACT: pitchwheel channel=15 pitch=-1408 time=0
EXTRACT: pitchwheel channel=14 pitch=-2048 time=0.017857125
EXTRACT: pitchwheel channel=15 pitch=-2048 time=0
EXTRACT: pitchwheel channel=14 pitch=-2688 time=0.017857125
EXTRACT: pitchwheel channel=15 pitch=-2688 time=0
EXTRACT: pitchwheel channel=14 pitch=-3456 time=0.017857125
EXTRACT: pitchwheel channel=15 pitch=-3456 time=0
EXTRACT: pitchwheel channel=14 pitch=-4096 time=0.017857125
EXTRACT: pitchwheel channel=15 pitch=-4096 time=0
EXTRACT: note_off channel=0 note=67 velocity=80 time=0.017857125
EXTRACT: note_off channel=0 note=63 velocity=80 time=0
EXTRACT: note_off channel=0 note=58 velocity=80 time=0
EXTRACT: note_off channel=0 note=55 velocity=80 time=0
EXTRACT: note_off channel=0 note=51 velocity=80 time=0
EXTRACT: note_on channel=0 note=70 velocity=95 time=0
EXTRACT: note_on channel=0 note=62 velocity=95 time=0
EXTRACT: note_on channel=0 note=58 velocity=95 time=0
EXTRACT: note_on channel=0 note=53 velocity=95 time=0
EXTRACT: note_on channel=0 note=50 velocity=95 time=0
EXTRACT: note_on channel=0 note=46 velocity=95 time=0
EXTRACT: note_off channel=14 note=70 velocity=80 time=0
EXTRACT: pitchwheel channel=14 pitch=0 time=0
EXTRACT: note_on channel=13 note=63 velocity=86 time=0
EXTRACT: note_off channel=15 note=70 velocity=80 time=0
EXTRACT: pitchwheel channel=15 pitch=0 time=0
EXTRACT: note_on channel=15 note=63 velocity=86 time=0
EXTRACT: note_off channel=2 note=39 velocity=80 time=0
EXTRACT: note_on channel=2 note=34 velocity=95 time=0
EXTRACT: note_off channel=9 note=51 velocity=80 time=0
EXTRACT: note_on channel=9 note=51 velocity=95 time=0
EXTRACT: note_off channel=13 note=63 velocity=80 time=0.2142855
EXTRACT: note_on channel=13 note=63 velocity=95 time=0
EXTRACT: note_off channel=15 note=63 velocity=80 time=0
EXTRACT: note_on channel=15 note=63 velocity=95 time=0
EXTRACT: note_off channel=9 note=51 velocity=80 time=0
EXTRACT: note_on channel=9 note=51 velocity=95 time=0
EXTRACT: note_off channel=13 note=63 velocity=80 time=0.2142855
EXTRACT: note_on channel=14 note=63 velocity=95 time=0
EXTRACT: note_off channel=15 note=63 velocity=80 time=0
EXTRACT: note_on channel=15 note=63 velocity=95 time=0
EXTRACT: note_off channel=9 note=51 velocity=80 time=0
EXTRACT: note_on channel=9 note=51 velocity=95 time=0
EXTRACT: pitchwheel channel=14 pitch=-640 time=0.1714284
EXTRACT: pitchwheel channel=15 pitch=-640 time=0
EXTRACT: note_off channel=14 note=63 velocity=80 time=0.0428571
EXTRACT: pitchwheel channel=14 pitch=0 time=0
EXTRACT: note_on channel=13 note=62 velocity=86 time=0
EXTRACT: note_off channel=15 note=63 velocity=80 time=0
EXTRACT: pitchwheel channel=15 pitch=0 time=0
EXTRACT: note_on channel=15 note=62 velocity=86 time=0
EXTRACT: note_off channel=9 note=51 velocity=80 time=0
EXTRACT: note_on channel=9 note=51 velocity=95 time=0
EXTRACT: note_off channel=13 note=62 velocity=80 time=0.2142855
EXTRACT: note_on channel=13 note=62 velocity=95 time=0
EXTRACT: note_off channel=15 note=62 velocity=80 time=0
EXTRACT: note_on channel=15 note=62 velocity=95 time=0
EXTRACT: note_off channel=9 note=51 velocity=80 time=0
EXTRACT: note_on channel=9 note=51 velocity=95 time=0
EXTRACT: note_off channel=13 note=62 velocity=80 time=0.2142855
EXTRACT: note_on channel=13 note=62 velocity=95 time=0
EXTRACT: note_off channel=15 note=62 velocity=80 time=0
EXTRACT: note_on channel=15 note=62 velocity=95 time=0
EXTRACT: note_off channel=9 note=51 velocity=80 time=0
EXTRACT: note_on channel=9 note=51 velocity=95 time=0
EXTRACT: note_off channel=13 note=62 velocity=80 time=0.2142855
EXTRACT: note_on channel=13 note=62 velocity=95 time=0
EXTRACT: note_off channel=15 note=62 velocity=80 time=0
EXTRACT: note_on channel=15 note=62 velocity=95 time=0
EXTRACT: note_off channel=9 note=51 velocity=80 time=0
EXTRACT: note_on channel=9 note=51 velocity=95 time=0
EXTRACT: note_off channel=13 note=62 velocity=80 time=0.2142855
EXTRACT: note_on channel=13 note=62 velocity=95 time=0
EXTRACT: note_off channel=15 note=62 velocity=80 time=0
EXTRACT: note_on channel=15 note=62 velocity=95 time=0
EXTRACT: note_off channel=9 note=51 velocity=80 time=0
EXTRACT: note_on channel=9 note=51 velocity=95 time=0
EXTRACT: note_off channel=13 note=62 velocity=80 time=0.2142855
EXTRACT: note_on channel=13 note=62 velocity=95 time=0
EXTRACT: note_off channel=15 note=62 velocity=80 time=0
EXTRACT: note_on channel=15 note=62 velocity=95 time=0
EXTRACT: note_off channel=9 note=51 velocity=80 time=0
EXTRACT: note_on channel=9 note=51 velocity=95 time=0
EXTRACT: note_off channel=13 note=62 velocity=80 time=0.2142855
EXTRACT: note_on channel=13 note=62 velocity=95 time=0
EXTRACT: note_off channel=15 note=62 velocity=80 time=0
EXTRACT: note_on channel=15 note=62 velocity=95 time=0
EXTRACT: note_off channel=9 note=51 velocity=80 time=0
EXTRACT: note_on channel=9 note=51 velocity=95 time=0
EXTRACT: note_off channel=13 note=62 velocity=80 time=0.2142855
EXTRACT: note_on channel=13 note=62 velocity=95 time=0
EXTRACT: note_off channel=15 note=62 velocity=80 time=0
EXTRACT: note_on channel=15 note=62 velocity=95 time=0
EXTRACT: note_off channel=9 note=51 velocity=80 time=0
EXTRACT: note_on channel=9 note=51 velocity=95 time=0
EXTRACT: note_off channel=13 note=62 velocity=80 time=0.2142855
EXTRACT: note_on channel=13 note=62 velocity=95 time=0
EXTRACT: note_off channel=15 note=62 velocity=80 time=0
EXTRACT: note_on channel=15 note=62 velocity=95 time=0
EXTRACT: note_off channel=9 note=51 velocity=80 time=0
EXTRACT: note_on channel=9 note=51 velocity=95 time=0
EXTRACT: note_off channel=13 note=62 velocity=80 time=0.2142855
EXTRACT: note_on channel=13 note=62 velocity=95 time=0
EXTRACT: note_off channel=15 note=62 velocity=80 time=0
EXTRACT: note_on channel=15 note=62 velocity=95 time=0
EXTRACT: note_off channel=9 note=51 velocity=80 time=0
EXTRACT: note_on channel=9 note=51 velocity=95 time=0
EXTRACT: note_off channel=13 note=62 velocity=80 time=0.2142855
EXTRACT: note_on channel=13 note=62 velocity=95 time=0
EXTRACT: note_off channel=15 note=62 velocity=80 time=0
EXTRACT: note_on channel=15 note=62 velocity=95 time=0
EXTRACT: note_off channel=9 note=51 velocity=80 time=0
EXTRACT: note_on channel=9 note=51 velocity=95 time=0
EXTRACT: note_off channel=13 note=62 velocity=80 time=0.2142855
EXTRACT: note_on channel=13 note=62 velocity=95 time=0
EXTRACT: note_off channel=15 note=62 velocity=80 time=0
EXTRACT: note_on channel=15 note=62 velocity=95 time=0
EXTRACT: note_off channel=9 note=51 velocity=80 time=0
EXTRACT: note_on channel=9 note=51 velocity=95 time=0
EXTRACT: note_off channel=13 note=62 velocity=80 time=0.2142855
EXTRACT: note_on channel=14 note=62 velocity=95 time=0
EXTRACT: note_off channel=15 note=62 velocity=80 time=0
EXTRACT: note_on channel=15 note=62 velocity=95 time=0
EXTRACT: note_off channel=9 note=51 velocity=80 time=0
EXTRACT: note_on channel=9 note=51 velocity=95 time=0
EXTRACT: pitchwheel channel=14 pitch=640 time=0.1714284
EXTRACT: pitchwheel channel=15 pitch=640 time=0
EXTRACT: note_off channel=0 note=70 velocity=80 time=0.0428571
EXTRACT: note_off channel=0 note=62 velocity=80 time=0
EXTRACT: note_off channel=0 note=58 velocity=80 time=0
EXTRACT: note_off channel=0 note=53 velocity=80 time=0
EXTRACT: note_off channel=0 note=50 velocity=80 time=0
EXTRACT: note_off channel=0 note=46 velocity=80 time=0
EXTRACT: note_on channel=0 note=67 velocity=95 time=0
EXTRACT: note_on channel=0 note=63 velocity=95 time=0
EXTRACT: note_on channel=0 note=58 velocity=95 time=0
EXTRACT: note_on channel=0 note=55 velocity=95 time=0
EXTRACT: note_on channel=0 note=51 velocity=95 time=0
EXTRACT: note_off channel=14 note=62 velocity=80 time=0
EXTRACT: pitchwheel channel=14 pitch=0 time=0
EXTRACT: note_on channel=13 note=63 velocity=86 time=0
EXTRACT: note_off channel=15 note=62 velocity=80 time=0
EXTRACT: pitchwheel channel=15 pitch=0 time=0
EXTRACT: note_on channel=15 note=63 velocity=86 time=0
EXTRACT: note_off channel=2 note=34 velocity=80 time=0
EXTRACT: note_on channel=2 note=39 velocity=95 time=0
EXTRACT: note_off channel=9 note=51 velocity=80 time=0
EXTRACT: control_change channel=9 control=7 value=48 time=0
EXTRACT: note_on channel=9 note=51 velocity=95 time=0
EXTRACT: control_change channel=9 control=7 value=49 time=0.10714275
EXTRACT: note_off channel=13 note=63 velocity=80 time=0.10714275
EXTRACT: note_on channel=13 note=63 velocity=95 time=0
EXTRACT: note_off channel=15 note=63 velocity=80 time=0
EXTRACT: note_on channel=15 note=63 velocity=95 time=0
EXTRACT: control_change channel=9 control=7 value=49 time=0
EXTRACT: note_off channel=9 note=51 velocity=80 time=0
EXTRACT: note_on channel=9 note=51 velocity=63 time=0
EXTRACT: control_change channel=9 control=7 value=49 time=0.10714275
EXTRACT: note_off channel=13 note=63 velocity=80 time=0.10714275
EXTRACT: note_on channel=13 note=63 velocity=95 time=0
EXTRACT: note_off channel=15 note=63 velocity=80 time=0
EXTRACT: note_on channel=15 note=63 velocity=95 time=0
EXTRACT: control_change channel=9 control=7 value=50 time=0
EXTRACT: note_off channel=9 note=51 velocity=80 time=0
EXTRACT: note_on channel=9 note=51 velocity=95 time=0
EXTRACT: control_change channel=9 control=7 value=50 time=0.10714275
EXTRACT: note_off channel=13 note=63 velocity=80 time=0.10714275
EXTRACT: note_on channel=13 note=63 velocity=95 time=0
EXTRACT: note_off channel=15 note=63 velocity=80 time=0
EXTRACT: note_on channel=15 note=63 velocity=95 time=0
EXTRACT: control_change channel=9 control=7 value=51 time=0
EXTRACT: note_off channel=9 note=51 velocity=80 time=0
EXTRACT: note_on channel=9 note=51 velocity=63 time=0
EXTRACT: control_change channel=9 control=7 value=51 time=0.10714275
EXTRACT: note_off channel=13 note=63 velocity=80 time=0.10714275
EXTRACT: note_on channel=13 note=63 velocity=95 time=0
EXTRACT: note_off channel=15 note=63 velocity=80 time=0
EXTRACT: note_on channel=15 note=63 velocity=95 time=0
EXTRACT: control_change channel=9 control=7 value=51 time=0
EXTRACT: note_off channel=9 note=51 velocity=80 time=0
EXTRACT: note_on channel=9 note=51 velocity=95 time=0
EXTRACT: control_change channel=9 control=7 value=52 time=0.10714275
EXTRACT: note_off channel=13 note=63 velocity=80 time=0.10714275
EXTRACT: note_on channel=13 note=63 velocity=95 time=0
EXTRACT: note_off channel=15 note=63 velocity=80 time=0
EXTRACT: note_on channel=15 note=63 velocity=95 time=0
EXTRACT: control_change channel=9 control=7 value=52 time=0
EXTRACT: note_off channel=9 note=51 velocity=80 time=0
EXTRACT: note_on channel=9 note=51 velocity=63 time=0
EXTRACT: control_change channel=9 control=7 value=52 time=0.10714275
EXTRACT: note_off channel=13 note=63 velocity=80 time=0.10714275
EXTRACT: note_on channel=13 note=63 velocity=95 time=0
EXTRACT: note_off channel=15 note=63 velocity=80 time=0
EXTRACT: note_on channel=15 note=63 velocity=95 time=0
EXTRACT: control_change channel=9 control=7 value=53 time=0
EXTRACT: note_off channel=9 note=51 velocity=80 time=0
EXTRACT: note_on channel=9 note=51 velocity=95 time=0
EXTRACT: control_change channel=9 control=7 value=53 time=0.10714275
EXTRACT: note_off channel=13 note=63 velocity=80 time=0.10714275
EXTRACT: note_on channel=13 note=63 velocity=95 time=0
EXTRACT: note_off channel=15 note=63 velocity=80 time=0
EXTRACT: note_on channel=15 note=63 velocity=95 time=0
EXTRACT: control_change channel=9 control=7 value=54 time=0
EXTRACT: note_off channel=9 note=51 velocity=80 time=0
EXTRACT: note_on channel=9 note=51 velocity=63 time=0
EXTRACT: control_change channel=9 control=7 value=54 time=0.10714275
EXTRACT: note_off channel=13 note=63 velocity=80 time=0.10714275
EXTRACT: note_on channel=13 note=63 velocity=95 time=0
EXTRACT: note_off channel=15 note=63 velocity=80 time=0
EXTRACT: note_on channel=15 note=63 velocity=95 time=0
EXTRACT: control_change channel=9 control=7 value=54 time=0
EXTRACT: note_off channel=9 note=51 velocity=80 time=0
EXTRACT: note_on channel=9 note=51 velocity=95 time=0
EXTRACT: control_change channel=9 control=7 value=55 time=0.10714275
EXTRACT: note_off channel=13 note=63 velocity=80 time=0.10714275
EXTRACT: note_on channel=13 note=63 velocity=95 time=0
EXTRACT: note_off channel=15 note=63 velocity=80 time=0
EXTRACT: note_on channel=15 note=63 velocity=95 time=0
EXTRACT: control_change channel=9 control=7 value=55 time=0
EXTRACT: note_off channel=9 note=51 velocity=80 time=0
EXTRACT: note_on channel=9 note=51 velocity=63 time=0
EXTRACT: control_change channel=9 control=7 value=55 time=0.10714275
EXTRACT: note_off channel=13 note=63 velocity=80 time=0.10714275
EXTRACT: note_on channel=13 note=63 velocity=95 time=0
EXTRACT: note_off channel=15 note=63 velocity=80 time=0
EXTRACT: note_on channel=15 note=63 velocity=95 time=0
EXTRACT: control_change channel=9 control=7 value=56 time=0
EXTRACT: note_off channel=9 note=51 velocity=80 time=0
EXTRACT: note_on channel=9 note=51 velocity=95 time=0
EXTRACT: control_change channel=9 control=7 value=56 time=0.10714275
EXTRACT: note_off channel=13 note=63 velocity=80 time=0.10714275
EXTRACT: note_on channel=14 note=63 velocity=95 time=0
EXTRACT: note_off channel=15 note=63 velocity=80 time=0
EXTRACT: note_on channel=15 note=63 velocity=95 time=0
EXTRACT: control_change channel=9 control=7 value=56 time=0
EXTRACT: note_off channel=9 note=51 velocity=80 time=0
EXTRACT: note_on channel=9 note=51 velocity=63 time=0
EXTRACT: pitchwheel channel=14 pitch=640 time=0.10714275
EXTRACT: pitchwheel channel=15 pitch=640 time=0
EXTRACT: control_change channel=9 control=7 value=57 time=0
EXTRACT: pitchwheel channel=14 pitch=1408 time=0.017857125
EXTRACT: pitchwheel channel=15 pitch=1408 time=0
EXTRACT: pitchwheel channel=14 pitch=2048 time=0.017857125
EXTRACT: pitchwheel channel=15 pitch=2048 time=0
EXTRACT: pitchwheel channel=14 pitch=2688 time=0.017857125
EXTRACT: pitchwheel channel=15 pitch=2688 time=0
EXTRACT: pitchwheel channel=14 pitch=3456 time=0.017857125
EXTRACT: pitchwheel channel=15 pitch=3456 time=0
EXTRACT: pitchwheel channel=14 pitch=4096 time=0.017857125
EXTRACT: pitchwheel channel=15 pitch=4096 time=0
EXTRACT: note_off channel=0 note=67 velocity=80 time=0.017857125
EXTRACT: note_off channel=0 note=63 velocity=80 time=0
EXTRACT: note_off channel=0 note=58 velocity=80 time=0
EXTRACT: note_off channel=0 note=55 velocity=80 time=0
EXTRACT: note_off channel=0 note=51 velocity=80 time=0
EXTRACT: note_on channel=0 note=67 velocity=95 time=0
EXTRACT: note_on channel=0 note=63 velocity=95 time=0
EXTRACT: note_on channel=0 note=58 velocity=95 time=0
EXTRACT: note_on channel=0 note=55 velocity=95 time=0
EXTRACT: note_on channel=0 note=51 velocity=95 time=0
EXTRACT: note_off channel=14 note=63 velocity=80 time=0
EXTRACT: pitchwheel channel=14 pitch=0 time=0
EXTRACT: note_on channel=13 note=70 velocity=86 time=0
EXTRACT: note_off channel=15 note=63 velocity=80 time=0
EXTRACT: pitchwheel channel=15 pitch=0 time=0
EXTRACT: note_on channel=15 note=70 velocity=86 time=0
EXTRACT: note_off channel=2 note=39 velocity=80 time=0
EXTRACT: note_on channel=2 note=39 velocity=95 time=0
EXTRACT: control_change channel=9 control=7 value=57 time=0
EXTRACT: note_off channel=9 note=51 velocity=80 time=0
EXTRACT: note_on channel=9 note=51 velocity=95 time=0
EXTRACT: control_change channel=9 control=7 value=58 time=0.10714275
EXTRACT: note_off channel=13 note=70 velocity=80 time=0.10714275
EXTRACT: note_on channel=13 note=70 velocity=95 time=0
EXTRACT: note_off channel=15 note=70 velocity=80 time=0
EXTRACT: note_on channel=15 note=70 velocity=95 time=0
EXTRACT: control_change channel=9 control=7 value=58 time=0
EXTRACT: note_off channel=9 note=51 velocity=80 time=0
EXTRACT: note_on channel=9 note=51 velocity=95 time=0
EXTRACT: control_change channel=9 control=7 value=58 time=0.10714275
EXTRACT: note_off channel=13 note=70 velocity=80 time=0.10714275
EXTRACT: note_on channel=13 note=70 velocity=95 time=0
EXTRACT: note_off channel=15 note=70 velocity=80 time=0
EXTRACT: note_on channel=15 note=70 velocity=95 time=0
EXTRACT: control_change channel=9 control=7 value=59 time=0
EXTRACT: note_off channel=9 note=51 velocity=80 time=0
EXTRACT: note_on channel=9 note=51 velocity=95 time=0
EXTRACT: control_change channel=9 control=7 value=59 time=0.10714275
EXTRACT: note_off channel=13 note=70 velocity=80 time=0.10714275
EXTRACT: note_on channel=14 note=70 velocity=95 time=0
EXTRACT: note_off channel=15 note=70 velocity=80 time=0
EXTRACT: note_on channel=15 note=70 velocity=95 time=0
EXTRACT: control_change channel=9 control=7 value=59 time=0
EXTRACT: note_off channel=9 note=51 velocity=80 time=0
EXTRACT: note_on channel=9 note=51 velocity=95 time=0
EXTRACT: pitchwheel channel=14 pitch=-640 time=0.10714275
EXTRACT: pitchwheel channel=15 pitch=-640 time=0
EXTRACT: control_change channel=9 control=7 value=60 time=0
EXTRACT: pitchwheel channel=14 pitch=-1408 time=0.017857125
EXTRACT: pitchwheel channel=15 pitch=-1408 time=0
EXTRACT: pitchwheel channel=14 pitch=-2048 time=0.017857125
EXTRACT: pitchwheel channel=15 pitch=-2048 time=0
EXTRACT: pitchwheel channel=14 pitch=-2688 time=0.017857125
EXTRACT: pitchwheel channel=15 pitch=-2688 time=0
EXTRACT: pitchwheel channel=14 pitch=-3456 time=0.017857125
EXTRACT: pitchwheel channel=15 pitch=-3456 time=0
EXTRACT: pitchwheel channel=14 pitch=-4096 time=0.017857125
EXTRACT: pitchwheel channel=15 pitch=-4096 time=0
EXTRACT: note_off channel=0 note=67 velocity=80 time=0.017857125
EXTRACT: note_off channel=0 note=63 velocity=80 time=0
EXTRACT: note_off channel=0 note=58 velocity=80 time=0
EXTRACT: note_off channel=0 note=55 velocity=80 time=0
EXTRACT: note_off channel=0 note=51 velocity=80 time=0
EXTRACT: note_on channel=0 note=67 velocity=95 time=0
EXTRACT: note_on channel=0 note=63 velocity=95 time=0
EXTRACT: note_on channel=0 note=60 velocity=95 time=0
EXTRACT: note_on channel=0 note=56 velocity=95 time=0
EXTRACT: note_on channel=0 note=51 velocity=95 time=0
EXTRACT: note_off channel=14 note=70 velocity=80 time=0
EXTRACT: pitchwheel channel=14 pitch=0 time=0
EXTRACT: note_on channel=13 note=63 velocity=86 time=0
EXTRACT: note_off channel=15 note=70 velocity=80 time=0
EXTRACT: pitchwheel channel=15 pitch=0 time=0
EXTRACT: note_on channel=15 note=63 velocity=86 time=0
EXTRACT: note_off channel=2 note=39 velocity=80 time=0
EXTRACT: note_on channel=2 note=44 velocity=95 time=0
EXTRACT: control_change channel=9 control=7 value=60 time=0
EXTRACT: note_off channel=9 note=51 velocity=80 time=0
EXTRACT: note_on channel=9 note=51 velocity=95 time=0
EXTRACT: control_change channel=9 control=7 value=61 time=0.10714275
EXTRACT: note_off channel=13 note=63 velocity=80 time=0.10714275
EXTRACT: note_on channel=13 note=63 velocity=95 time=0
EXTRACT: note_off channel=15 note=63 velocity=80 time=0
EXTRACT: note_on channel=15 note=63 velocity=95 time=0
EXTRACT: control_change channel=9 control=7 value=61 time=0
EXTRACT: note_off channel=9 note=51 velocity=80 time=0
EXTRACT: note_on channel=9 note=51 velocity=63 time=0
EXTRACT: control_change channel=9 control=7 value=61 time=0.10714275
EXTRACT: note_off channel=13 note=63 velocity=80 time=0.10714275
EXTRACT: note_on channel=13 note=63 velocity=95 time=0
EXTRACT: note_off channel=15 note=63 velocity=80 time=0
EXTRACT: note_on channel=15 note=63 velocity=95 time=0
EXTRACT: control_change channel=9 control=7 value=62 time=0
EXTRACT: note_off channel=9 note=51 velocity=80 time=0
EXTRACT: note_on channel=9 note=51 velocity=95 time=0
EXTRACT: control_change channel=9 control=7 value=62 time=0.10714275
EXTRACT: note_off channel=13 note=63 velocity=80 time=0.10714275
EXTRACT: note_on channel=13 note=63 velocity=95 time=0
EXTRACT: note_off channel=15 note=63 velocity=80 time=0
EXTRACT: note_on channel=15 note=63 velocity=95 time=0
EXTRACT: control_change channel=9 control=7 value=62 time=0
EXTRACT: note_off channel=9 note=51 velocity=80 time=0
EXTRACT: note_on channel=9 note=51 velocity=63 time=0
EXTRACT: control_change channel=9 control=7 value=63 time=0.10714275
EXTRACT: note_off channel=13 note=63 velocity=80 time=0.10714275
EXTRACT: note_on channel=13 note=63 velocity=95 time=0
EXTRACT: note_off channel=15 note=63 velocity=80 time=0
EXTRACT: note_on channel=15 note=63 velocity=95 time=0
EXTRACT: control_change channel=9 control=7 value=63 time=0
EXTRACT: note_off channel=9 note=51 velocity=80 time=0
EXTRACT: note_on channel=9 note=51 velocity=95 time=0
EXTRACT: control_change channel=9 control=7 value=64 time=0.10714275
EXTRACT: note_off channel=13 note=63 velocity=80 time=0.10714275
EXTRACT: note_on channel=13 note=63 velocity=95 time=0
EXTRACT: note_off channel=15 note=63 velocity=80 time=0
EXTRACT: note_on channel=15 note=63 velocity=95 time=0
EXTRACT: control_change channel=9 control=7 value=64 time=0
EXTRACT: note_off channel=9 note=51 velocity=80 time=0
EXTRACT: note_on channel=9 note=51 velocity=63 time=0
EXTRACT: control_change channel=9 control=7 value=64 time=0.10714275
EXTRACT: note_off channel=13 note=63 velocity=80 time=0.10714275
EXTRACT: note_on channel=13 note=63 velocity=95 time=0
EXTRACT: note_off channel=15 note=63 velocity=80 time=0
EXTRACT: note_on channel=15 note=63 velocity=95 time=0
EXTRACT: control_change channel=9 control=7 value=65 time=0
EXTRACT: note_off channel=9 note=51 velocity=80 time=0
EXTRACT: note_on channel=9 note=51 velocity=95 time=0
EXTRACT: control_change channel=9 control=7 value=65 time=0.10714275
EXTRACT: note_off channel=13 note=63 velocity=80 time=0.10714275
EXTRACT: note_on channel=13 note=63 velocity=95 time=0
EXTRACT: note_off channel=15 note=63 velocity=80 time=0
EXTRACT: note_on channel=15 note=63 velocity=95 time=0
EXTRACT: control_change channel=9 control=7 value=65 time=0
EXTRACT: note_off channel=9 note=51 velocity=80 time=0
EXTRACT: note_on channel=9 note=51 velocity=63 time=0
EXTRACT: control_change channel=9 control=7 value=66 time=0.10714275
EXTRACT: note_off channel=13 note=63 velocity=80 time=0.10714275
EXTRACT: note_on channel=13 note=63 velocity=95 time=0
EXTRACT: note_off channel=15 note=63 velocity=80 time=0
EXTRACT: note_on channel=15 note=63 velocity=95 time=0
EXTRACT: control_change channel=9 control=7 value=66 time=0
EXTRACT: note_off channel=9 note=51 velocity=80 time=0
EXTRACT: note_on channel=9 note=51 velocity=95 time=0
EXTRACT: control_change channel=9 control=7 value=66 time=0.10714275
EXTRACT: note_off channel=13 note=63 velocity=80 time=0.10714275
EXTRACT: note_on channel=13 note=63 velocity=95 time=0
EXTRACT: note_off channel=15 note=63 velocity=80 time=0
EXTRACT: note_on channel=15 note=63 velocity=95 time=0
EXTRACT: control_change channel=9 control=7 value=67 time=0
EXTRACT: note_off channel=9 note=51 velocity=80 time=0
EXTRACT: note_on channel=9 note=51 velocity=63 time=0
EXTRACT: control_change channel=9 control=7 value=67 time=0.10714275
EXTRACT: note_off channel=13 note=63 velocity=80 time=0.10714275
EXTRACT: note_on channel=13 note=63 velocity=95 time=0
EXTRACT: note_off channel=15 note=63 velocity=80 time=0
EXTRACT: note_on channel=15 note=63 velocity=95 time=0
EXTRACT: control_change channel=9 control=7 value=68 time=0
EXTRACT: note_off channel=9 note=51 velocity=80 time=0
EXTRACT: note_on channel=9 note=51 velocity=95 time=0
EXTRACT: control_change channel=9 control=7 value=68 time=0.10714275
EXTRACT: note_off channel=13 note=63 velocity=80 time=0.10714275
EXTRACT: note_on channel=14 note=63 velocity=95 time=0
EXTRACT: note_off channel=15 note=63 velocity=80 time=0
EXTRACT: note_on channel=15 note=63 velocity=95 time=0
EXTRACT: control_change channel=9 control=7 value=68 time=0
EXTRACT: note_off channel=9 note=51 velocity=80 time=0
EXTRACT: note_on channel=9 note=51 velocity=63 time=0
EXTRACT: pitchwheel channel=14 pitch=640 time=0.10714275
EXTRACT: pitchwheel channel=15 pitch=640 time=0
EXTRACT: control_change channel=9 control=7 value=69 time=0
EXTRACT: pitchwheel channel=14 pitch=1408 time=0.017857125
EXTRACT: pitchwheel channel=15 pitch=1408 time=0
EXTRACT: pitchwheel channel=14 pitch=2048 time=0.017857125
EXTRACT: pitchwheel channel=15 pitch=2048 time=0
EXTRACT: pitchwheel channel=14 pitch=2688 time=0.017857125
EXTRACT: pitchwheel channel=15 pitch=2688 time=0
EXTRACT: pitchwheel channel=14 pitch=3456 time=0.017857125
EXTRACT: pitchwheel channel=15 pitch=3456 time=0
EXTRACT: pitchwheel channel=14 pitch=4096 time=0.017857125
EXTRACT: pitchwheel channel=15 pitch=4096 time=0
EXTRACT: note_off channel=0 note=67 velocity=80 time=0.017857125
EXTRACT: note_off channel=0 note=63 velocity=80 time=0
EXTRACT: note_off channel=0 note=60 velocity=80 time=0
EXTRACT: note_off channel=0 note=56 velocity=80 time=0
EXTRACT: note_off channel=0 note=51 velocity=80 time=0
EXTRACT: note_on channel=0 note=67 velocity=95 time=0
EXTRACT: note_on channel=0 note=63 velocity=95 time=0
EXTRACT: note_on channel=0 note=60 velocity=95 time=0
EXTRACT: note_on channel=0 note=56 velocity=95 time=0
EXTRACT: note_on channel=0 note=51 velocity=95 time=0
EXTRACT: note_off channel=14 note=63 velocity=80 time=0
EXTRACT: pitchwheel channel=14 pitch=0 time=0
EXTRACT: note_on channel=13 note=70 velocity=86 time=0
EXTRACT: note_off channel=15 note=63 velocity=80 time=0
EXTRACT: pitchwheel channel=15 pitch=0 time=0
EXTRACT: note_on channel=15 note=70 velocity=86 time=0
EXTRACT: note_off channel=2 note=44 velocity=80 time=0
EXTRACT: note_on channel=2 note=44 velocity=95 time=0
EXTRACT: control_change channel=9 control=7 value=69 time=0
EXTRACT: note_off channel=9 note=51 velocity=80 time=0
EXTRACT: note_on channel=9 note=51 velocity=95 time=0
EXTRACT: control_change channel=9 control=7 value=69 time=0.10714275
EXTRACT: note_off channel=13 note=70 velocity=80 time=0.10714275
EXTRACT: note_on channel=13 note=70 velocity=95 time=0
EXTRACT: note_off channel=15 note=70 velocity=80 time=0
EXTRACT: note_on channel=15 note=70 velocity=95 time=0
EXTRACT: control_change channel=9 control=7 value=70 time=0
EXTRACT: note_off channel=9 note=51 velocity=80 time=0
EXTRACT: note_on channel=9 note=51 velocity=95 time=0
EXTRACT: control_change channel=9 control=7 value=70 time=0.10714275
EXTRACT: note_off channel=13 note=70 velocity=80 time=0.10714275
EXTRACT: note_on channel=13 note=70 velocity=95 time=0
EXTRACT: note_off channel=15 note=70 velocity=80 time=0
EXTRACT: note_on channel=15 note=70 velocity=95 time=0
EXTRACT: control_change channel=9 control=7 value=71 time=0
EXTRACT: note_off channel=9 note=51 velocity=80 time=0
EXTRACT: note_on channel=9 note=51 velocity=95 time=0
EXTRACT: control_change channel=9 control=7 value=71 time=0.10714275
EXTRACT: note_off channel=13 note=70 velocity=80 time=0.10714275
EXTRACT: note_on channel=14 note=70 velocity=95 time=0
EXTRACT: note_off channel=15 note=70 velocity=80 time=0
EXTRACT: note_on channel=15 note=70 velocity=95 time=0
EXTRACT: control_change channel=9 control=7 value=71 time=0
EXTRACT: note_off channel=9 note=51 velocity=80 time=0
EXTRACT: note_on channel=9 note=51 velocity=95 time=0
EXTRACT: pitchwheel channel=14 pitch=-640 time=0.10714275
EXTRACT: pitchwheel channel=15 pitch=-640 time=0
EXTRACT: control_change channel=9 control=7 value=72 time=0
EXTRACT: pitchwheel channel=14 pitch=-1408 time=0.017857125
EXTRACT: pitchwheel channel=15 pitch=-1408 time=0
EXTRACT: pitchwheel channel=14 pitch=-2048 time=0.017857125
EXTRACT: pitchwheel channel=15 pitch=-2048 time=0
EXTRACT: pitchwheel channel=14 pitch=-2688 time=0.017857125
EXTRACT: pitchwheel channel=15 pitch=-2688 time=0
EXTRACT: pitchwheel channel=14 pitch=-3456 time=0.017857125
EXTRACT: pitchwheel channel=15 pitch=-3456 time=0
EXTRACT: pitchwheel channel=14 pitch=-4096 time=0.017857125
EXTRACT: pitchwheel channel=15 pitch=-4096 time=0
EXTRACT: note_off channel=0 note=67 velocity=80 time=0.017857125
EXTRACT: note_off channel=0 note=63 velocity=80 time=0
EXTRACT: note_off channel=0 note=60 velocity=80 time=0
EXTRACT: note_off channel=0 note=56 velocity=80 time=0
EXTRACT: note_off channel=0 note=51 velocity=80 time=0
EXTRACT: note_on channel=0 note=67 velocity=95 time=0
EXTRACT: note_on channel=0 note=63 velocity=95 time=0
EXTRACT: note_on channel=0 note=58 velocity=95 time=0
EXTRACT: note_on channel=0 note=55 velocity=95 time=0
EXTRACT: note_on channel=0 note=51 velocity=95 time=0
EXTRACT: note_off channel=14 note=70 velocity=80 time=0
EXTRACT: pitchwheel channel=14 pitch=0 time=0
EXTRACT: note_on channel=13 note=63 velocity=86 time=0
EXTRACT: note_off channel=15 note=70 velocity=80 time=0
EXTRACT: pitchwheel channel=15 pitch=0 time=0
EXTRACT: note_on channel=15 note=63 velocity=86 time=0
EXTRACT: note_off channel=2 note=44 velocity=80 time=0
EXTRACT: note_on channel=2 note=39 velocity=95 time=0
EXTRACT: control_change channel=9 control=7 value=72 time=0
EXTRACT: note_off channel=9 note=51 velocity=80 time=0
EXTRACT: control_change channel=9 control=7 value=72 time=0
EXTRACT: note_on channel=9 note=51 velocity=95 time=0
EXTRACT: control_change channel=9 control=7 value=73 time=0.10714275
EXTRACT: note_off channel=13 note=63 velocity=80 time=0.10714275
EXTRACT: note_on channel=13 note=63 velocity=95 time=0
EXTRACT: note_off channel=15 note=63 velocity=80 time=0
EXTRACT: note_on channel=15 note=63 velocity=95 time=0
EXTRACT: control_change channel=9 control=7 value=73 time=0
EXTRACT: note_off channel=9 note=51 velocity=80 time=0
EXTRACT: note_on channel=9 note=51 velocity=63 time=0
EXTRACT: control_change channel=9 control=7 value=73 time=0.10714275
EXTRACT: note_off channel=13 note=63 velocity=80 time=0.10714275
EXTRACT: note_on channel=13 note=63 velocity=95 time=0
EXTRACT: note_off channel=15 note=63 velocity=80 time=0
EXTRACT: note_on channel=15 note=63 velocity=95 time=0
EXTRACT: control_change channel=9 control=7 value=74 time=0
EXTRACT: note_off channel=9 note=51 velocity=80 time=0
EXTRACT: note_on channel=9 note=51 velocity=95 time=0
EXTRACT: control_change channel=9 control=7 value=74 time=0.10714275
EXTRACT: note_off channel=13 note=63 velocity=80 time=0.10714275
EXTRACT: note_on channel=13 note=63 velocity=95 time=0
EXTRACT: note_off channel=15 note=63 velocity=80 time=0
EXTRACT: note_on channel=15 note=63 velocity=95 time=0
EXTRACT: control_change channel=9 control=7 value=75 time=0
EXTRACT: note_off channel=9 note=51 velocity=80 time=0
EXTRACT: note_on channel=9 note=51 velocity=63 time=0
EXTRACT: control_change channel=9 control=7 value=75 time=0.10714275
EXTRACT: note_off channel=13 note=63 velocity=80 time=0.10714275
EXTRACT: note_on channel=13 note=63 velocity=95 time=0
EXTRACT: note_off channel=15 note=63 velocity=80 time=0
EXTRACT: note_on channel=15 note=63 velocity=95 time=0
EXTRACT: control_change channel=9 control=7 value=75 time=0
EXTRACT: note_off channel=9 note=51 velocity=80 time=0
EXTRACT: note_on channel=9 note=51 velocity=95 time=0
EXTRACT: control_change channel=9 control=7 value=76 time=0.10714275
EXTRACT: note_off channel=13 note=63 velocity=80 time=0.10714275
EXTRACT: note_on channel=13 note=63 velocity=95 time=0
EXTRACT: note_off channel=15 note=63 velocity=80 time=0
EXTRACT: note_on channel=15 note=63 velocity=95 time=0
EXTRACT: control_change channel=9 control=7 value=76 time=0
EXTRACT: note_off channel=9 note=51 velocity=80 time=0
EXTRACT: note_on channel=9 note=51 velocity=63 time=0
EXTRACT: control_change channel=9 control=7 value=76 time=0.10714275
EXTRACT: note_off channel=13 note=63 velocity=80 time=0.10714275
EXTRACT: note_on channel=13 note=63 velocity=95 time=0
EXTRACT: note_off channel=15 note=63 velocity=80 time=0
EXTRACT: note_on channel=15 note=63 velocity=95 time=0
EXTRACT: control_change channel=9 control=7 value=77 time=0
EXTRACT: note_off channel=9 note=51 velocity=80 time=0
EXTRACT: note_on channel=9 note=51 velocity=95 time=0
EXTRACT: control_change channel=9 control=7 value=77 time=0.10714275
EXTRACT: note_off channel=13 note=63 velocity=80 time=0.10714275
EXTRACT: note_on channel=13 note=63 velocity=95 time=0
EXTRACT: note_off channel=15 note=63 velocity=80 time=0
EXTRACT: note_on channel=15 note=63 velocity=95 time=0
EXTRACT: control_change channel=9 control=7 value=78 time=0
EXTRACT: note_off channel=9 note=51 velocity=80 time=0
EXTRACT: note_on channel=9 note=51 velocity=63 time=0
EXTRACT: control_change channel=9 control=7 value=78 time=0.10714275
EXTRACT: note_off channel=13 note=63 velocity=80 time=0.10714275
EXTRACT: note_on channel=13 note=63 velocity=95 time=0
EXTRACT: note_off channel=15 note=63 velocity=80 time=0
EXTRACT: note_on channel=15 note=63 velocity=95 time=0
EXTRACT: control_change channel=9 control=7 value=78 time=0
EXTRACT: note_off channel=9 note=51 velocity=80 time=0
EXTRACT: note_on channel=9 note=51 velocity=95 time=0
EXTRACT: control_change channel=9 control=7 value=79 time=0.10714275
EXTRACT: note_off channel=13 note=63 velocity=80 time=0.10714275
EXTRACT: note_on channel=13 note=63 velocity=95 time=0
EXTRACT: note_off channel=15 note=63 velocity=80 time=0
EXTRACT: note_on channel=15 note=63 velocity=95 time=0
EXTRACT: control_change channel=9 control=7 value=79 time=0
EXTRACT: note_off channel=9 note=51 velocity=80 time=0
EXTRACT: note_on channel=9 note=51 velocity=63 time=0
EXTRACT: control_change channel=9 control=7 value=79 time=0.10714275
EXTRACT: note_off channel=13 note=63 velocity=80 time=0.10714275
EXTRACT: note_on channel=13 note=63 velocity=95 time=0
EXTRACT: note_off channel=15 note=63 velocity=80 time=0
EXTRACT: note_on channel=15 note=63 velocity=95 time=0
EXTRACT: control_change channel=9 control=7 value=80 time=0
EXTRACT: note_off channel=9 note=51 velocity=80 time=0
EXTRACT: note_on channel=9 note=51 velocity=95 time=0
EXTRACT: control_change channel=9 control=7 value=80 time=0.10714275
EXTRACT: note_off channel=13 note=63 velocity=80 time=0.10714275
EXTRACT: note_on channel=14 note=63 velocity=95 time=0
EXTRACT: note_off channel=15 note=63 velocity=80 time=0
EXTRACT: note_on channel=15 note=63 velocity=95 time=0
EXTRACT: control_change channel=9 control=7 value=80 time=0
EXTRACT: note_off channel=9 note=51 velocity=80 time=0
EXTRACT: note_on channel=9 note=51 velocity=63 time=0
EXTRACT: pitchwheel channel=14 pitch=640 time=0.10714275
EXTRACT: pitchwheel channel=15 pitch=640 time=0
EXTRACT: control_change channel=9 control=7 value=81 time=0
EXTRACT: pitchwheel channel=14 pitch=1408 time=0.017857125
EXTRACT: pitchwheel channel=15 pitch=1408 time=0
EXTRACT: pitchwheel channel=14 pitch=2048 time=0.017857125
EXTRACT: pitchwheel channel=15 pitch=2048 time=0
EXTRACT: pitchwheel channel=14 pitch=2688 time=0.017857125
EXTRACT: pitchwheel channel=15 pitch=2688 time=0
EXTRACT: pitchwheel channel=14 pitch=3456 time=0.017857125
EXTRACT: pitchwheel channel=15 pitch=3456 time=0
EXTRACT: pitchwheel channel=14 pitch=4096 time=0.017857125
EXTRACT: pitchwheel channel=15 pitch=4096 time=0
EXTRACT: note_off channel=0 note=67 velocity=80 time=0.017857125
EXTRACT: note_off channel=0 note=63 velocity=80 time=0
EXTRACT: note_off channel=0 note=58 velocity=80 time=0
EXTRACT: note_off channel=0 note=55 velocity=80 time=0
EXTRACT: note_off channel=0 note=51 velocity=80 time=0
EXTRACT: note_on channel=0 note=67 velocity=95 time=0
EXTRACT: note_on channel=0 note=63 velocity=95 time=0
EXTRACT: note_on channel=0 note=58 velocity=95 time=0
EXTRACT: note_on channel=0 note=55 velocity=95 time=0
EXTRACT: note_on channel=0 note=51 velocity=95 time=0
EXTRACT: note_off channel=14 note=63 velocity=80 time=0
EXTRACT: pitchwheel channel=14 pitch=0 time=0
EXTRACT: note_on channel=13 note=70 velocity=86 time=0
EXTRACT: note_off channel=15 note=63 velocity=80 time=0
EXTRACT: pitchwheel channel=15 pitch=0 time=0
EXTRACT: note_on channel=15 note=70 velocity=86 time=0
EXTRACT: note_off channel=2 note=39 velocity=80 time=0
EXTRACT: note_on channel=2 note=39 velocity=95 time=0
EXTRACT: control_change channel=9 control=7 value=81 time=0
EXTRACT: note_off channel=9 note=51 velocity=80 time=0
EXTRACT: note_on channel=9 note=51 velocity=95 time=0
EXTRACT: control_change channel=9 control=7 value=82 time=0.10714275
EXTRACT: note_off channel=13 note=70 velocity=80 time=0.10714275
EXTRACT: note_on channel=13 note=70 velocity=95 time=0
EXTRACT: note_off channel=15 note=70 velocity=80 time=0
EXTRACT: note_on channel=15 note=70 velocity=95 time=0
EXTRACT: control_change channel=9 control=7 value=82 time=0
EXTRACT: note_off channel=9 note=51 velocity=80 time=0
EXTRACT: note_on channel=9 note=51 velocity=95 time=0
EXTRACT: control_change channel=9 control=7 value=82 time=0.10714275
EXTRACT: note_off channel=13 note=70 velocity=80 time=0.10714275
EXTRACT: note_on channel=13 note=70 velocity=95 time=0
EXTRACT: note_off channel=15 note=70 velocity=80 time=0
EXTRACT: note_on channel=15 note=70 velocity=95 time=0
EXTRACT: control_change channel=9 control=7 value=83 time=0
EXTRACT: note_off channel=9 note=51 velocity=80 time=0
EXTRACT: note_on channel=9 note=51 velocity=95 time=0
EXTRACT: control_change channel=9 control=7 value=83 time=0.10714275
EXTRACT: note_off channel=13 note=70 velocity=80 time=0.10714275
EXTRACT: note_on channel=14 note=70 velocity=95 time=0
EXTRACT: note_off channel=15 note=70 velocity=80 time=0
EXTRACT: note_on channel=15 note=70 velocity=95 time=0
EXTRACT: control_change channel=9 control=7 value=83 time=0
EXTRACT: note_off channel=9 note=51 velocity=80 time=0
EXTRACT: note_on channel=9 note=51 velocity=95 time=0
EXTRACT: pitchwheel channel=14 pitch=-640 time=0.10714275
EXTRACT: pitchwheel channel=15 pitch=-640 time=0
EXTRACT: control_change channel=9 control=7 value=84 time=0
EXTRACT: pitchwheel channel=14 pitch=-1408 time=0.017857125
EXTRACT: pitchwheel channel=15 pitch=-1408 time=0
EXTRACT: pitchwheel channel=14 pitch=-2048 time=0.017857125
EXTRACT: pitchwheel channel=15 pitch=-2048 time=0
EXTRACT: pitchwheel channel=14 pitch=-2688 time=0.017857125
EXTRACT: pitchwheel channel=15 pitch=-2688 time=0
EXTRACT: pitchwheel channel=14 pitch=-3456 time=0.017857125
EXTRACT: pitchwheel channel=15 pitch=-3456 time=0
EXTRACT: pitchwheel channel=14 pitch=-4096 time=0.017857125
EXTRACT: pitchwheel channel=15 pitch=-4096 time=0
EXTRACT: note_off channel=0 note=67 velocity=80 time=0.017857125
EXTRACT: note_off channel=0 note=63 velocity=80 time=0
EXTRACT: note_off channel=0 note=58 velocity=80 time=0
EXTRACT: note_off channel=0 note=55 velocity=80 time=0
EXTRACT: note_off channel=0 note=51 velocity=80 time=0
EXTRACT: note_on channel=0 note=70 velocity=95 time=0
EXTRACT: note_on channel=0 note=62 velocity=95 time=0
EXTRACT: note_on channel=0 note=58 velocity=95 time=0
EXTRACT: note_on channel=0 note=53 velocity=95 time=0
EXTRACT: note_on channel=0 note=50 velocity=95 time=0
EXTRACT: note_on channel=0 note=46 velocity=95 time=0
EXTRACT: note_off channel=14 note=70 velocity=80 time=0
EXTRACT: pitchwheel channel=14 pitch=0 time=0
EXTRACT: note_on channel=13 note=63 velocity=86 time=0
EXTRACT: note_off channel=15 note=70 velocity=80 time=0
EXTRACT: pitchwheel channel=15 pitch=0 time=0
EXTRACT: note_on channel=15 note=63 velocity=86 time=0
EXTRACT: note_off channel=2 note=39 velocity=80 time=0
EXTRACT: note_on channel=2 note=34 velocity=95 time=0
EXTRACT: control_change channel=9 control=7 value=84 time=0
EXTRACT: note_off channel=9 note=51 velocity=80 time=0
EXTRACT: note_on channel=9 note=51 velocity=95 time=0
EXTRACT: control_change channel=9 control=7 value=85 time=0.10714275
EXTRACT: note_off channel=13 note=63 velocity=80 time=0.10714275
EXTRACT: note_on channel=13 note=63 velocity=95 time=0
EXTRACT: note_off channel=15 note=63 velocity=80 time=0
EXTRACT: note_on channel=15 note=63 velocity=95 time=0
EXTRACT: control_change channel=9 control=7 value=85 time=0
EXTRACT: note_off channel=9 note=51 velocity=80 time=0
EXTRACT: note_on channel=9 note=51 velocity=95 time=0
EXTRACT: control_change channel=9 control=7 value=85 time=0.10714275
EXTRACT: note_off channel=13 note=63 velocity=80 time=0.10714275
EXTRACT: note_on channel=14 note=63 velocity=95 time=0
EXTRACT: note_off channel=15 note=63 velocity=80 time=0
EXTRACT: note_on channel=15 note=63 velocity=95 time=0
EXTRACT: control_change channel=9 control=7 value=86 time=0
EXTRACT: note_off channel=9 note=51 velocity=80 time=0
EXTRACT: note_on channel=9 note=51 velocity=95 time=0
EXTRACT: control_change channel=9 control=7 value=86 time=0.10714275
EXTRACT: pitchwheel channel=14 pitch=-640 time=0.06428565
EXTRACT: pitchwheel channel=15 pitch=-640 time=0
EXTRACT: note_off channel=14 note=63 velocity=80 time=0.0428571
EXTRACT: pitchwheel channel=14 pitch=0 time=0
EXTRACT: note_on channel=13 note=62 velocity=86 time=0
EXTRACT: note_off channel=15 note=63 velocity=80 time=0
EXTRACT: pitchwheel channel=15 pitch=0 time=0
EXTRACT: note_on channel=15 note=62 velocity=86 time=0
EXTRACT: control_change channel=9 control=7 value=86 time=0
EXTRACT: note_off channel=9 note=51 velocity=80 time=0
EXTRACT: note_on channel=9 note=51 velocity=95 time=0
EXTRACT: control_change channel=9 control=7 value=87 time=0.10714275
EXTRACT: note_off channel=13 note=62 velocity=80 time=0.10714275
EXTRACT: note_on channel=13 note=62 velocity=95 time=0
EXTRACT: note_off channel=15 note=62 velocity=80 time=0
EXTRACT: note_on channel=15 note=62 velocity=95 time=0
EXTRACT: control_change channel=9 control=7 value=87 time=0
EXTRACT: note_off channel=9 note=51 velocity=80 time=0
EXTRACT: note_on channel=9 note=51 velocity=95 time=0
EXTRACT: control_change channel=9 control=7 value=88 time=0.10714275
EXTRACT: note_off channel=13 note=62 velocity=80 time=0.10714275
EXTRACT: note_on channel=13 note=62 velocity=95 time=0
EXTRACT: note_off channel=15 note=62 velocity=80 time=0
EXTRACT: note_on channel=15 note=62 velocity=95 time=0
EXTRACT: control_change channel=9 control=7 value=88 time=0
EXTRACT: note_off channel=9 note=51 velocity=80 time=0
EXTRACT: note_on channel=9 note=51 velocity=95 time=0
EXTRACT: control_change channel=9 control=7 value=88 time=0.10714275
EXTRACT: note_off channel=13 note=62 velocity=80 time=0.10714275
EXTRACT: note_on channel=13 note=62 velocity=95 time=0
EXTRACT: note_off channel=15 note=62 velocity=80 time=0
EXTRACT: note_on channel=15 note=62 velocity=95 time=0
EXTRACT: control_change channel=9 control=7 value=89 time=0
EXTRACT: note_off channel=9 note=51 velocity=80 time=0
EXTRACT: note_on channel=9 note=51 velocity=95 time=0
EXTRACT: control_change channel=9 control=7 value=89 time=0.10714275
EXTRACT: note_off channel=13 note=62 velocity=80 time=0.10714275
EXTRACT: note_on channel=13 note=62 velocity=95 time=0
EXTRACT: note_off channel=15 note=62 velocity=80 time=0
EXTRACT: note_on channel=15 note=62 velocity=95 time=0
EXTRACT: control_change channel=9 control=7 value=89 time=0
EXTRACT: note_off channel=9 note=51 velocity=80 time=0
EXTRACT: note_on channel=9 note=51 velocity=95 time=0
EXTRACT: control_change channel=9 control=7 value=90 time=0.10714275
EXTRACT: note_off channel=13 note=62 velocity=80 time=0.10714275
EXTRACT: note_on channel=13 note=62 velocity=95 time=0
EXTRACT: note_off channel=15 note=62 velocity=80 time=0
EXTRACT: note_on channel=15 note=62 velocity=95 time=0
EXTRACT: control_change channel=9 control=7 value=90 time=0
EXTRACT: note_off channel=9 note=51 velocity=80 time=0
EXTRACT: note_on channel=9 note=51 velocity=95 time=0
EXTRACT: note_on channel=9 note=46 velocity=63 time=0
EXTRACT: control_change channel=9 control=7 value=90 time=0.10714275
EXTRACT: note_off channel=13 note=62 velocity=80 time=0.10714275
EXTRACT: note_on channel=13 note=62 velocity=95 time=0
EXTRACT: note_off channel=15 note=62 velocity=80 time=0
EXTRACT: note_on channel=15 note=62 velocity=95 time=0
EXTRACT: control_change channel=9 control=7 value=91 time=0
EXTRACT: note_off channel=9 note=51 velocity=80 time=0
EXTRACT: note_off channel=9 note=46 velocity=80 time=0
EXTRACT: note_on channel=9 note=51 velocity=95 time=0
EXTRACT: note_on channel=9 note=46 velocity=63 time=0
EXTRACT: control_change channel=9 control=7 value=91 time=0.10714275
EXTRACT: note_off channel=13 note=62 velocity=80 time=0.10714275
EXTRACT: note_on channel=13 note=62 velocity=95 time=0
EXTRACT: note_off channel=15 note=62 velocity=80 time=0
EXTRACT: note_on channel=15 note=62 velocity=95 time=0
EXTRACT: control_change channel=9 control=7 value=92 time=0
EXTRACT: note_off channel=9 note=51 velocity=80 time=0
EXTRACT: note_off channel=9 note=46 velocity=80 time=0
EXTRACT: note_on channel=9 note=51 velocity=95 time=0
EXTRACT: note_on channel=9 note=46 velocity=63 time=0
EXTRACT: control_change channel=9 control=7 value=92 time=0.10714275
EXTRACT: note_off channel=13 note=62 velocity=80 time=0.10714275
EXTRACT: note_on channel=13 note=62 velocity=95 time=0
EXTRACT: note_off channel=15 note=62 velocity=80 time=0
EXTRACT: note_on channel=15 note=62 velocity=95 time=0
EXTRACT: control_change channel=9 control=7 value=92 time=0
EXTRACT: note_off channel=9 note=51 velocity=80 time=0
EXTRACT: note_off channel=9 note=46 velocity=80 time=0
EXTRACT: note_on channel=9 note=51 velocity=95 time=0
EXTRACT: note_on channel=9 note=46 velocity=63 time=0
EXTRACT: control_change channel=9 control=7 value=93 time=0.10714275
EXTRACT: note_off channel=13 note=62 velocity=80 time=0.10714275
EXTRACT: note_on channel=13 note=62 velocity=95 time=0
EXTRACT: note_off channel=15 note=62 velocity=80 time=0
EXTRACT: note_on channel=15 note=62 velocity=95 time=0
EXTRACT: control_change channel=9 control=7 value=93 time=0
EXTRACT: note_off channel=9 note=51 velocity=80 time=0
EXTRACT: note_off channel=9 note=46 velocity=80 time=0
EXTRACT: note_on channel=9 note=51 velocity=95 time=0
EXTRACT: note_on channel=9 note=46 velocity=63 time=0
EXTRACT: control_change channel=9 control=7 value=93 time=0.10714275
EXTRACT: note_off channel=13 note=62 velocity=80 time=0.10714275
EXTRACT: note_on channel=13 note=62 velocity=95 time=0
EXTRACT: note_off channel=15 note=62 velocity=80 time=0
EXTRACT: note_on channel=15 note=62 velocity=95 time=0
EXTRACT: control_change channel=9 control=7 value=94 time=0
EXTRACT: note_off channel=9 note=51 velocity=80 time=0
EXTRACT: note_off channel=9 note=46 velocity=80 time=0
EXTRACT: note_on channel=9 note=51 velocity=95 time=0
EXTRACT: note_on channel=9 note=46 velocity=63 time=0
EXTRACT: control_change channel=9 control=7 value=94 time=0.10714275
EXTRACT: note_off channel=13 note=62 velocity=80 time=0.10714275
EXTRACT: note_on channel=13 note=62 velocity=95 time=0
EXTRACT: note_off channel=15 note=62 velocity=80 time=0
EXTRACT: note_on channel=15 note=62 velocity=95 time=0
EXTRACT: control_change channel=9 control=7 value=95 time=0
EXTRACT: note_off channel=9 note=51 velocity=80 time=0
EXTRACT: note_off channel=9 note=46 velocity=80 time=0
EXTRACT: note_on channel=9 note=36 velocity=95 time=0
EXTRACT: note_on channel=9 note=51 velocity=95 time=0
EXTRACT: note_on channel=9 note=46 velocity=63 time=0
EXTRACT: control_change channel=9 control=7 value=95 time=0.10714275
EXTRACT: note_off channel=13 note=62 velocity=80 time=0.10714275
EXTRACT: note_on channel=14 note=62 velocity=95 time=0
EXTRACT: note_off channel=15 note=62 velocity=80 time=0
EXTRACT: note_on channel=15 note=62 velocity=95 time=0
EXTRACT: control_change channel=9 control=7 value=95 time=0
EXTRACT: note_off channel=9 note=36 velocity=80 time=0
EXTRACT: note_off channel=9 note=51 velocity=80 time=0
EXTRACT: note_off channel=9 note=46 velocity=80 time=0
EXTRACT: note_on channel=9 note=40 velocity=95 time=0
EXTRACT: note_on channel=9 note=51 velocity=95 time=0
EXTRACT: note_on channel=9 note=46 velocity=63 time=0
EXTRACT: control_change channel=9 control=7 value=96 time=0.10714275
EXTRACT: pitchwheel channel=14 pitch=640 time=0.06428565
EXTRACT: pitchwheel channel=15 pitch=640 time=0
EXTRACT: note_off channel=0 note=70 velocity=80 time=0.0428571
EXTRACT: note_off channel=0 note=62 velocity=80 time=0
EXTRACT: note_off channel=0 note=58 velocity=80 time=0
EXTRACT: note_off channel=0 note=53 velocity=80 time=0
EXTRACT: note_off channel=0 note=50 velocity=80 time=0
EXTRACT: note_off channel=0 note=46 velocity=80 time=0
EXTRACT: note_on channel=0 note=67 velocity=95 time=0
EXTRACT: note_on channel=0 note=63 velocity=95 time=0
EXTRACT: note_on channel=0 note=58 velocity=95 time=0
EXTRACT: note_on channel=0 note=55 velocity=95 time=0
EXTRACT: note_on channel=0 note=51 velocity=95 time=0
EXTRACT: control_change channel=8 control=10 value=48 time=0
EXTRACT: control_change channel=10 control=10 value=48 time=0
EXTRACT: note_on channel=8 note=67 velocity=95 time=0
EXTRACT: note_on channel=8 note=63 velocity=95 time=0
EXTRACT: note_on channel=8 note=58 velocity=95 time=0
EXTRACT: note_on channel=8 note=55 velocity=95 time=0
EXTRACT: note_on channel=8 note=51 velocity=95 time=0
EXTRACT: note_off channel=14 note=62 velocity=80 time=0
EXTRACT: pitchwheel channel=14 pitch=0 time=0
EXTRACT: note_on channel=13 note=63 velocity=86 time=0
EXTRACT: note_off channel=15 note=62 velocity=80 time=0
EXTRACT: pitchwheel channel=15 pitch=0 time=0
EXTRACT: note_on channel=15 note=63 velocity=86 time=0
EXTRACT: note_off channel=2 note=34 velocity=80 time=0
EXTRACT: note_on channel=2 note=39 velocity=95 time=0
EXTRACT: control_change channel=9 control=7 value=96 time=0
EXTRACT: note_off channel=9 note=40 velocity=80 time=0
EXTRACT: note_off channel=9 note=51 velocity=80 time=0
EXTRACT: note_off channel=9 note=46 velocity=80 time=0
EXTRACT: note_on channel=9 note=40 velocity=95 time=0
EXTRACT: note_on channel=9 note=51 velocity=63 time=0
EXTRACT: note_on channel=9 note=49 velocity=63 time=0
EXTRACT: note_off channel=13 note=63 velocity=80 time=0.2142855
EXTRACT: note_on channel=13 note=63 velocity=95 time=0
EXTRACT: note_off channel=15 note=63 velocity=80 time=0
EXTRACT: note_on channel=15 note=63 velocity=95 time=0
EXTRACT: note_off channel=2 note=39 velocity=80 time=0
EXTRACT: note_on channel=2 note=39 velocity=95 time=0
EXTRACT: note_off channel=9 note=40 velocity=80 time=0
EXTRACT: note_off channel=9 note=51 velocity=80 time=0
EXTRACT: note_off channel=9 note=49 velocity=80 time=0
EXTRACT: note_on channel=9 note=51 velocity=63 time=0
EXTRACT: note_off channel=13 note=63 velocity=80 time=0.2142855
EXTRACT: note_on channel=13 note=63 velocity=95 time=0
EXTRACT: note_off channel=15 note=63 velocity=80 time=0
EXTRACT: note_on channel=15 note=63 velocity=95 time=0
EXTRACT: note_off channel=2 note=39 velocity=80 time=0
EXTRACT: note_on channel=2 note=39 velocity=95 time=0
EXTRACT: note_off channel=9 note=51 velocity=80 time=0
EXTRACT: note_on channel=9 note=51 velocity=63 time=0
EXTRACT: note_off channel=13 note=63 velocity=80 time=0.2142855
EXTRACT: note_on channel=13 note=63 velocity=95 time=0
EXTRACT: note_off channel=15 note=63 velocity=80 time=0
EXTRACT: note_on channel=15 note=63 velocity=95 time=0
EXTRACT: note_off channel=2 note=39 velocity=80 time=0
EXTRACT: note_on channel=2 note=39 velocity=95 time=0
EXTRACT: note_off channel=9 note=51 velocity=80 time=0
EXTRACT: note_on channel=9 note=40 velocity=95 time=0
EXTRACT: note_on channel=9 note=51 velocity=63 time=0
EXTRACT: note_on channel=9 note=49 velocity=63 time=0
EXTRACT: note_off channel=13 note=63 velocity=80 time=0.2142855
EXTRACT: note_on channel=13 note=63 velocity=95 time=0
EXTRACT: note_off channel=15 note=63 velocity=80 time=0
EXTRACT: note_on channel=15 note=63 velocity=95 time=0
EXTRACT: note_off channel=2 note=39 velocity=80 time=0
EXTRACT: note_on channel=2 note=39 velocity=95 time=0
EXTRACT: note_off channel=9 note=40 velocity=80 time=0
EXTRACT: note_off channel=9 note=51 velocity=80 time=0
EXTRACT: note_off channel=9 note=49 velocity=80 time=0
EXTRACT: note_on channel=9 note=40 velocity=95 time=0
EXTRACT: note_on channel=9 note=51 velocity=63 time=0
EXTRACT: note_on channel=9 note=49 velocity=63 time=0
EXTRACT: note_off channel=13 note=63 velocity=80 time=0.2142855
EXTRACT: note_on channel=13 note=63 velocity=95 time=0
EXTRACT: note_off channel=15 note=63 velocity=80 time=0
EXTRACT: note_on channel=15 note=63 velocity=95 time=0
EXTRACT: note_off channel=2 note=39 velocity=80 time=0
EXTRACT: note_on channel=2 note=39 velocity=95 time=0
EXTRACT: note_off channel=9 note=40 velocity=80 time=0
EXTRACT: note_off channel=9 note=51 velocity=80 time=0
EXTRACT: note_off channel=9 note=49 velocity=80 time=0
EXTRACT: note_on channel=9 note=51 velocity=63 time=0
EXTRACT: note_off channel=13 note=63 velocity=80 time=0.2142855
EXTRACT: note_on channel=13 note=63 velocity=95 time=0
EXTRACT: note_off channel=15 note=63 velocity=80 time=0
EXTRACT: note_on channel=15 note=63 velocity=95 time=0
EXTRACT: note_off channel=2 note=39 velocity=80 time=0
EXTRACT: note_on channel=2 note=39 velocity=95 time=0
EXTRACT: note_off channel=9 note=51 velocity=80 time=0
EXTRACT: note_on channel=9 note=40 velocity=95 time=0
EXTRACT: note_on channel=9 note=51 velocity=63 time=0
EXTRACT: note_on channel=9 note=49 velocity=63 time=0
EXTRACT: note_off channel=13 note=63 velocity=80 time=0.2142855
EXTRACT: note_on channel=13 note=63 velocity=95 time=0
EXTRACT: note_off channel=15 note=63 velocity=80 time=0
EXTRACT: note_on channel=15 note=63 velocity=95 time=0
EXTRACT: note_off channel=2 note=39 velocity=80 time=0
EXTRACT: note_on channel=2 note=39 velocity=95 time=0
EXTRACT: note_off channel=9 note=40 velocity=80 time=0
EXTRACT: note_off channel=9 note=51 velocity=80 time=0
EXTRACT: note_off channel=9 note=49 velocity=80 time=0
EXTRACT: note_on channel=9 note=51 velocity=63 time=0
EXTRACT: note_off channel=13 note=63 velocity=80 time=0.2142855
EXTRACT: note_on channel=13 note=63 velocity=95 time=0
EXTRACT: note_off channel=15 note=63 velocity=80 time=0
EXTRACT: note_on channel=15 note=63 velocity=95 time=0
EXTRACT: note_off channel=2 note=39 velocity=80 time=0
EXTRACT: note_on channel=2 note=39 velocity=95 time=0
EXTRACT: note_off channel=9 note=51 velocity=80 time=0
EXTRACT: note_on channel=9 note=51 velocity=63 time=0
EXTRACT: note_off channel=13 note=63 velocity=80 time=0.2142855
EXTRACT: note_on channel=13 note=63 velocity=95 time=0
EXTRACT: note_off channel=15 note=63 velocity=80 time=0
EXTRACT: note_on channel=15 note=63 velocity=95 time=0
EXTRACT: note_off channel=2 note=39 velocity=80 time=0
EXTRACT: note_on channel=2 note=39 velocity=95 time=0
EXTRACT: note_off channel=9 note=51 velocity=80 time=0
EXTRACT: note_on channel=9 note=40 velocity=95 time=0
EXTRACT: note_on channel=9 note=51 velocity=63 time=0
EXTRACT: note_on channel=9 note=49 velocity=63 time=0
EXTRACT: note_off channel=13 note=63 velocity=80 time=0.2142855
EXTRACT: note_on channel=13 note=63 velocity=95 time=0
EXTRACT: note_off channel=15 note=63 velocity=80 time=0
EXTRACT: note_on channel=15 note=63 velocity=95 time=0
EXTRACT: note_off channel=2 note=39 velocity=80 time=0
EXTRACT: note_on channel=2 note=39 velocity=95 time=0
EXTRACT: note_off channel=9 note=40 velocity=80 time=0
EXTRACT: note_off channel=9 note=51 velocity=80 time=0
EXTRACT: note_off channel=9 note=49 velocity=80 time=0
EXTRACT: note_on channel=9 note=51 velocity=63 time=0
EXTRACT: note_off channel=13 note=63 velocity=80 time=0.2142855
EXTRACT: note_on channel=14 note=63 velocity=95 time=0
EXTRACT: note_off channel=15 note=63 velocity=80 time=0
EXTRACT: note_on channel=15 note=63 velocity=95 time=0
EXTRACT: note_off channel=2 note=39 velocity=80 time=0
EXTRACT: note_on channel=2 note=39 velocity=95 time=0
EXTRACT: note_off channel=9 note=51 velocity=80 time=0
EXTRACT: note_on channel=9 note=40 velocity=95 time=0
EXTRACT: note_on channel=9 note=51 velocity=63 time=0
EXTRACT: note_on channel=9 note=49 velocity=63 time=0
EXTRACT: pitchwheel channel=14 pitch=640 time=0.10714275
EXTRACT: pitchwheel channel=15 pitch=640 time=0
EXTRACT: pitchwheel channel=14 pitch=1408 time=0.017857125
EXTRACT: pitchwheel channel=15 pitch=1408 time=0
EXTRACT: pitchwheel channel=14 pitch=2048 time=0.017857125
EXTRACT: pitchwheel channel=15 pitch=2048 time=0
EXTRACT: pitchwheel channel=14 pitch=2688 time=0.017857125
EXTRACT: pitchwheel channel=15 pitch=2688 time=0
EXTRACT: pitchwheel channel=14 pitch=3456 time=0.017857125
EXTRACT: pitchwheel channel=15 pitch=3456 time=0
EXTRACT: pitchwheel channel=14 pitch=4096 time=0.017857125
EXTRACT: pitchwheel channel=15 pitch=4096 time=0
EXTRACT: note_off channel=14 note=63 velocity=80 time=0.017857125
EXTRACT: pitchwheel channel=14 pitch=0 time=0
EXTRACT: note_on channel=13 note=70 velocity=86 time=0
EXTRACT: note_off channel=15 note=63 velocity=80 time=0
EXTRACT: pitchwheel channel=15 pitch=0 time=0
EXTRACT: note_on channel=15 note=70 velocity=86 time=0
EXTRACT: note_off channel=2 note=39 velocity=80 time=0
EXTRACT: note_on channel=2 note=39 velocity=95 time=0
EXTRACT: note_off channel=9 note=40 velocity=80 time=0
EXTRACT: note_off channel=9 note=51 velocity=80 time=0
EXTRACT: note_off channel=9 note=49 velocity=80 time=0
EXTRACT: note_on channel=9 note=40 velocity=95 time=0
EXTRACT: note_on channel=9 note=51 velocity=63 time=0
EXTRACT: note_on channel=9 note=49 velocity=63 time=0
EXTRACT: note_off channel=13 note=70 velocity=80 time=0.2142855
EXTRACT: note_on channel=13 note=70 velocity=95 time=0
EXTRACT: note_off channel=15 note=70 velocity=80 time=0
EXTRACT: note_on channel=15 note=70 velocity=95 time=0
EXTRACT: note_off channel=2 note=39 velocity=80 time=0
EXTRACT: note_on channel=2 note=39 velocity=95 time=0
EXTRACT: note_off channel=9 note=40 velocity=80 time=0
EXTRACT: note_off channel=9 note=51 velocity=80 time=0
EXTRACT: note_off channel=9 note=49 velocity=80 time=0
EXTRACT: note_on channel=9 note=51 velocity=63 time=0
EXTRACT: note_off channel=13 note=70 velocity=80 time=0.2142855
EXTRACT: note_on channel=13 note=70 velocity=95 time=0
EXTRACT: note_off channel=15 note=70 velocity=80 time=0
EXTRACT: note_on channel=15 note=70 velocity=95 time=0
EXTRACT: note_off channel=2 note=39 velocity=80 time=0
EXTRACT: note_on channel=2 note=39 velocity=95 time=0
EXTRACT: note_off channel=9 note=51 velocity=80 time=0
EXTRACT: note_on channel=9 note=51 velocity=63 time=0
EXTRACT: note_off channel=13 note=70 velocity=80 time=0.2142855
EXTRACT: note_on channel=14 note=70 velocity=95 time=0
EXTRACT: note_off channel=15 note=70 velocity=80 time=0
EXTRACT: note_on channel=15 note=70 velocity=95 time=0
EXTRACT: note_off channel=2 note=39 velocity=80 time=0
EXTRACT: note_on channel=2 note=39 velocity=95 time=0
EXTRACT: note_off channel=9 note=51 velocity=80 time=0
EXTRACT: note_on channel=9 note=51 velocity=63 time=0
EXTRACT: pitchwheel channel=14 pitch=-640 time=0.10714275
EXTRACT: pitchwheel channel=15 pitch=-640 time=0
EXTRACT: pitchwheel channel=14 pitch=-1408 time=0.017857125
EXTRACT: pitchwheel channel=15 pitch=-1408 time=0
EXTRACT: pitchwheel channel=14 pitch=-2048 time=0.017857125
EXTRACT: pitchwheel channel=15 pitch=-2048 time=0
EXTRACT: pitchwheel channel=14 pitch=-2688 time=0.017857125
EXTRACT: pitchwheel channel=15 pitch=-2688 time=0
EXTRACT: pitchwheel channel=14 pitch=-3456 time=0.017857125
EXTRACT: pitchwheel channel=15 pitch=-3456 time=0
EXTRACT: pitchwheel channel=14 pitch=-4096 time=0.017857125
EXTRACT: pitchwheel channel=15 pitch=-4096 time=0
EXTRACT: note_off channel=0 note=67 velocity=80 time=0.017857125
EXTRACT: note_off channel=0 note=63 velocity=80 time=0
EXTRACT: note_off channel=0 note=58 velocity=80 time=0
EXTRACT: note_off channel=0 note=55 velocity=80 time=0
EXTRACT: note_off channel=0 note=51 velocity=80 time=0
EXTRACT: note_on channel=0 note=67 velocity=95 time=0
EXTRACT: note_on channel=0 note=63 velocity=95 time=0
EXTRACT: note_on channel=0 note=60 velocity=95 time=0
EXTRACT: note_on channel=0 note=56 velocity=95 time=0
EXTRACT: note_on channel=0 note=51 velocity=95 time=0
EXTRACT: note_off channel=8 note=67 velocity=80 time=0
EXTRACT: note_off channel=8 note=63 velocity=80 time=0
EXTRACT: note_off channel=8 note=58 velocity=80 time=0
EXTRACT: note_off channel=8 note=55 velocity=80 time=0
EXTRACT: note_off channel=8 note=51 velocity=80 time=0
EXTRACT: note_on channel=8 note=67 velocity=95 time=0
EXTRACT: note_on channel=8 note=63 velocity=95 time=0
EXTRACT: note_on channel=8 note=60 velocity=95 time=0
EXTRACT: note_on channel=8 note=56 velocity=95 time=0
EXTRACT: note_on channel=8 note=51 velocity=95 time=0
EXTRACT: note_on channel=8 note=44 velocity=95 time=0
EXTRACT: note_off channel=14 note=70 velocity=80 time=0
EXTRACT: pitchwheel channel=14 pitch=0 time=0
EXTRACT: note_on channel=13 note=63 velocity=86 time=0
EXTRACT: note_off channel=15 note=70 velocity=80 time=0
EXTRACT: pitchwheel channel=15 pitch=0 time=0
EXTRACT: note_on channel=15 note=63 velocity=86 time=0
EXTRACT: note_off channel=2 note=39 velocity=80 time=0
EXTRACT: note_on channel=2 note=44 velocity=95 time=0
EXTRACT: note_off channel=9 note=51 velocity=80 time=0
EXTRACT: note_on channel=9 note=40 velocity=95 time=0
EXTRACT: note_on channel=9 note=51 velocity=63 time=0
EXTRACT: note_on channel=9 note=49 velocity=63 time=0
EXTRACT: note_off channel=13 note=63 velocity=80 time=0.2142855
EXTRACT: note_on channel=13 note=63 velocity=95 time=0
EXTRACT: note_off channel=15 note=63 velocity=80 time=0
EXTRACT: note_on channel=15 note=63 velocity=95 time=0
EXTRACT: note_off channel=2 note=44 velocity=80 time=0
EXTRACT: note_on channel=2 note=44 velocity=95 time=0
EXTRACT: note_off channel=9 note=40 velocity=80 time=0
EXTRACT: note_off channel=9 note=51 velocity=80 time=0
EXTRACT: note_off channel=9 note=49 velocity=80 time=0
EXTRACT: note_on channel=9 note=51 velocity=63 time=0
EXTRACT: note_off channel=13 note=63 velocity=80 time=0.2142855
EXTRACT: note_on channel=13 note=63 velocity=95 time=0
EXTRACT: note_off channel=15 note=63 velocity=80 time=0
EXTRACT: note_on channel=15 note=63 velocity=95 time=0
EXTRACT: note_off channel=2 note=44 velocity=80 time=0
EXTRACT: note_on channel=2 note=44 velocity=95 time=0
EXTRACT: note_off channel=9 note=51 velocity=80 time=0
EXTRACT: note_on channel=9 note=51 velocity=63 time=0
EXTRACT: note_off channel=13 note=63 velocity=80 time=0.2142855
EXTRACT: note_on channel=13 note=63 velocity=95 time=0
EXTRACT: note_off channel=15 note=63 velocity=80 time=0
EXTRACT: note_on channel=15 note=63 velocity=95 time=0
EXTRACT: note_off channel=2 note=44 velocity=80 time=0
EXTRACT: note_on channel=2 note=44 velocity=95 time=0
EXTRACT: note_off channel=9 note=51 velocity=80 time=0
EXTRACT: note_on channel=9 note=40 velocity=95 time=0
EXTRACT: note_on channel=9 note=51 velocity=63 time=0
EXTRACT: note_on channel=9 note=49 velocity=63 time=0
EXTRACT: note_off channel=13 note=63 velocity=80 time=0.2142855
EXTRACT: note_on channel=13 note=63 velocity=95 time=0
EXTRACT: note_off channel=15 note=63 velocity=80 time=0
EXTRACT: note_on channel=15 note=63 velocity=95 time=0
EXTRACT: note_off channel=2 note=44 velocity=80 time=0
EXTRACT: note_on channel=2 note=44 velocity=95 time=0
EXTRACT: note_off channel=9 note=40 velocity=80 time=0
EXTRACT: note_off channel=9 note=51 velocity=80 time=0
EXTRACT: note_off channel=9 note=49 velocity=80 time=0
EXTRACT: note_on channel=9 note=40 velocity=95 time=0
EXTRACT: note_on channel=9 note=51 velocity=63 time=0
EXTRACT: note_on channel=9 note=49 velocity=63 time=0
EXTRACT: note_off channel=13 note=63 velocity=80 time=0.2142855
EXTRACT: note_on channel=13 note=63 velocity=95 time=0
EXTRACT: note_off channel=15 note=63 velocity=80 time=0
EXTRACT: note_on channel=15 note=63 velocity=95 time=0
EXTRACT: note_off channel=2 note=44 velocity=80 time=0
EXTRACT: note_on channel=2 note=44 velocity=95 time=0
EXTRACT: note_off channel=9 note=40 velocity=80 time=0
EXTRACT: note_off channel=9 note=51 velocity=80 time=0
EXTRACT: note_off channel=9 note=49 velocity=80 time=0
EXTRACT: note_on channel=9 note=51 velocity=63 time=0
EXTRACT: note_off channel=13 note=63 velocity=80 time=0.2142855
EXTRACT: note_on channel=13 note=63 velocity=95 time=0
EXTRACT: note_off channel=15 note=63 velocity=80 time=0
EXTRACT: note_on channel=15 note=63 velocity=95 time=0
EXTRACT: note_off channel=2 note=44 velocity=80 time=0
EXTRACT: note_on channel=2 note=44 velocity=95 time=0
EXTRACT: note_off channel=9 note=51 velocity=80 time=0
EXTRACT: note_on channel=9 note=40 velocity=95 time=0
EXTRACT: note_on channel=9 note=51 velocity=63 time=0
EXTRACT: note_on channel=9 note=49 velocity=63 time=0
EXTRACT: note_off channel=13 note=63 velocity=80 time=0.2142855
EXTRACT: note_on channel=13 note=63 velocity=95 time=0
EXTRACT: note_off channel=15 note=63 velocity=80 time=0
EXTRACT: note_on channel=15 note=63 velocity=95 time=0
EXTRACT: note_off channel=2 note=44 velocity=80 time=0
EXTRACT: note_on channel=2 note=44 velocity=95 time=0
EXTRACT: note_off channel=9 note=40 velocity=80 time=0
EXTRACT: note_off channel=9 note=51 velocity=80 time=0
EXTRACT: note_off channel=9 note=49 velocity=80 time=0
EXTRACT: note_on channel=9 note=51 velocity=63 time=0
EXTRACT: note_off channel=13 note=63 velocity=80 time=0.2142855
EXTRACT: note_on channel=13 note=63 velocity=95 time=0
EXTRACT: note_off channel=15 note=63 velocity=80 time=0
EXTRACT: note_on channel=15 note=63 velocity=95 time=0
EXTRACT: note_off channel=2 note=44 velocity=80 time=0
EXTRACT: note_on channel=2 note=44 velocity=95 time=0
EXTRACT: note_off channel=9 note=51 velocity=80 time=0
EXTRACT: note_on channel=9 note=51 velocity=63 time=0
EXTRACT: note_off channel=13 note=63 velocity=80 time=0.2142855
EXTRACT: note_on channel=13 note=63 velocity=95 time=0
EXTRACT: note_off channel=15 note=63 velocity=80 time=0
EXTRACT: note_on channel=15 note=63 velocity=95 time=0
EXTRACT: note_off channel=2 note=44 velocity=80 time=0
EXTRACT: note_on channel=2 note=44 velocity=95 time=0
EXTRACT: note_off channel=9 note=51 velocity=80 time=0
EXTRACT: note_on channel=9 note=40 velocity=95 time=0
EXTRACT: note_on channel=9 note=51 velocity=63 time=0
EXTRACT: note_on channel=9 note=49 velocity=63 time=0
EXTRACT: note_off channel=13 note=63 velocity=80 time=0.2142855
EXTRACT: note_on channel=13 note=63 velocity=95 time=0
EXTRACT: note_off channel=15 note=63 velocity=80 time=0
EXTRACT: note_on channel=15 note=63 velocity=95 time=0
EXTRACT: note_off channel=2 note=44 velocity=80 time=0
EXTRACT: note_on channel=2 note=44 velocity=95 time=0
EXTRACT: note_off channel=9 note=40 velocity=80 time=0
EXTRACT: note_off channel=9 note=51 velocity=80 time=0
EXTRACT: note_off channel=9 note=49 velocity=80 time=0
EXTRACT: note_on channel=9 note=51 velocity=63 time=0
EXTRACT: note_off channel=13 note=63 velocity=80 time=0.2142855
EXTRACT: note_on channel=14 note=63 velocity=95 time=0
EXTRACT: note_off channel=15 note=63 velocity=80 time=0
EXTRACT: note_on channel=15 note=63 velocity=95 time=0
EXTRACT: note_off channel=2 note=44 velocity=80 time=0
EXTRACT: note_on channel=2 note=44 velocity=95 time=0
EXTRACT: note_off channel=9 note=51 velocity=80 time=0
EXTRACT: note_on channel=9 note=40 velocity=95 time=0
EXTRACT: note_on channel=9 note=51 velocity=63 time=0
EXTRACT: note_on channel=9 note=49 velocity=63 time=0
EXTRACT: pitchwheel channel=14 pitch=640 time=0.10714275
EXTRACT: pitchwheel channel=15 pitch=640 time=0
EXTRACT: pitchwheel channel=14 pitch=1408 time=0.017857125
EXTRACT: pitchwheel channel=15 pitch=1408 time=0
EXTRACT: pitchwheel channel=14 pitch=2048 time=0.017857125
EXTRACT: pitchwheel channel=15 pitch=2048 time=0
EXTRACT: pitchwheel channel=14 pitch=2688 time=0.017857125
EXTRACT: pitchwheel channel=15 pitch=2688 time=0
EXTRACT: pitchwheel channel=14 pitch=3456 time=0.017857125
EXTRACT: pitchwheel channel=15 pitch=3456 time=0
EXTRACT: pitchwheel channel=14 pitch=4096 time=0.017857125
EXTRACT: pitchwheel channel=15 pitch=4096 time=0
EXTRACT: note_off channel=14 note=63 velocity=80 time=0.017857125
EXTRACT: pitchwheel channel=14 pitch=0 time=0
EXTRACT: note_on channel=13 note=70 velocity=86 time=0
EXTRACT: note_off channel=15 note=63 velocity=80 time=0
EXTRACT: pitchwheel channel=15 pitch=0 time=0
EXTRACT: note_on channel=15 note=70 velocity=86 time=0
EXTRACT: note_off channel=2 note=44 velocity=80 time=0
EXTRACT: note_on channel=2 note=44 velocity=95 time=0
EXTRACT: note_off channel=9 note=40 velocity=80 time=0
EXTRACT: note_off channel=9 note=51 velocity=80 time=0
EXTRACT: note_off channel=9 note=49 velocity=80 time=0
EXTRACT: note_on channel=9 note=40 velocity=95 time=0
EXTRACT: note_on channel=9 note=51 velocity=63 time=0
EXTRACT: note_on channel=9 note=49 velocity=63 time=0
EXTRACT: note_off channel=13 note=70 velocity=80 time=0.2142855
EXTRACT: note_on channel=13 note=70 velocity=95 time=0
EXTRACT: note_off channel=15 note=70 velocity=80 time=0
EXTRACT: note_on channel=15 note=70 velocity=95 time=0
EXTRACT: note_off channel=2 note=44 velocity=80 time=0
EXTRACT: note_on channel=2 note=44 velocity=95 time=0
EXTRACT: note_off channel=9 note=40 velocity=80 time=0
EXTRACT: note_off channel=9 note=51 velocity=80 time=0
EXTRACT: note_off channel=9 note=49 velocity=80 time=0
EXTRACT: note_on channel=9 note=51 velocity=63 time=0
EXTRACT: note_off channel=13 note=70 velocity=80 time=0.2142855
EXTRACT: note_on channel=13 note=70 velocity=95 time=0
EXTRACT: note_off channel=15 note=70 velocity=80 time=0
EXTRACT: note_on channel=15 note=70 velocity=95 time=0
EXTRACT: note_off channel=2 note=44 velocity=80 time=0
EXTRACT: note_on channel=2 note=44 velocity=95 time=0
EXTRACT: note_off channel=9 note=51 velocity=80 time=0
EXTRACT: note_on channel=9 note=51 velocity=63 time=0
EXTRACT: note_off channel=13 note=70 velocity=80 time=0.2142855
EXTRACT: note_on channel=14 note=70 velocity=95 time=0
EXTRACT: note_off channel=15 note=70 velocity=80 time=0
EXTRACT: note_on channel=15 note=70 velocity=95 time=0
EXTRACT: note_off channel=2 note=44 velocity=80 time=0
EXTRACT: note_on channel=2 note=44 velocity=95 time=0
EXTRACT: note_off channel=9 note=51 velocity=80 time=0
EXTRACT: note_on channel=9 note=51 velocity=63 time=0
EXTRACT: pitchwheel channel=14 pitch=-640 time=0.10714275
EXTRACT: pitchwheel channel=15 pitch=-640 time=0
EXTRACT: pitchwheel channel=14 pitch=-1408 time=0.017857125
EXTRACT: pitchwheel channel=15 pitch=-1408 time=0
EXTRACT: pitchwheel channel=14 pitch=-2048 time=0.017857125
EXTRACT: pitchwheel channel=15 pitch=-2048 time=0
EXTRACT: pitchwheel channel=14 pitch=-2688 time=0.017857125
EXTRACT: pitchwheel channel=15 pitch=-2688 time=0
EXTRACT: pitchwheel channel=14 pitch=-3456 time=0.017857125
EXTRACT: pitchwheel channel=15 pitch=-3456 time=0
EXTRACT: pitchwheel channel=14 pitch=-4096 time=0.017857125
EXTRACT: pitchwheel channel=15 pitch=-4096 time=0
EXTRACT: note_off channel=0 note=67 velocity=80 time=0.017857125
EXTRACT: note_off channel=0 note=63 velocity=80 time=0
EXTRACT: note_off channel=0 note=60 velocity=80 time=0
EXTRACT: note_off channel=0 note=56 velocity=80 time=0
EXTRACT: note_off channel=0 note=51 velocity=80 time=0
EXTRACT: note_on channel=0 note=67 velocity=95 time=0
EXTRACT: note_on channel=0 note=63 velocity=95 time=0
EXTRACT: note_on channel=0 note=58 velocity=95 time=0
EXTRACT: note_on channel=0 note=55 velocity=95 time=0
EXTRACT: note_on channel=0 note=51 velocity=95 time=0
EXTRACT: note_off channel=8 note=67 velocity=80 time=0
EXTRACT: note_off channel=8 note=63 velocity=80 time=0
EXTRACT: note_off channel=8 note=60 velocity=80 time=0
EXTRACT: note_off channel=8 note=56 velocity=80 time=0
EXTRACT: note_off channel=8 note=51 velocity=80 time=0
EXTRACT: note_off channel=8 note=44 velocity=80 time=0
EXTRACT: note_on channel=8 note=67 velocity=95 time=0
EXTRACT: note_on channel=8 note=63 velocity=95 time=0
EXTRACT: note_on channel=8 note=58 velocity=95 time=0
EXTRACT: note_on channel=8 note=55 velocity=95 time=0
EXTRACT: note_on channel=8 note=51 velocity=95 time=0
EXTRACT: note_off channel=14 note=70 velocity=80 time=0
EXTRACT: pitchwheel channel=14 pitch=0 time=0
EXTRACT: note_on channel=13 note=63 velocity=86 time=0
EXTRACT: note_off channel=15 note=70 velocity=80 time=0
EXTRACT: pitchwheel channel=15 pitch=0 time=0
EXTRACT: note_on channel=15 note=63 velocity=86 time=0
EXTRACT: note_off channel=2 note=44 velocity=80 time=0
EXTRACT: note_on channel=2 note=39 velocity=95 time=0
EXTRACT: note_off channel=9 note=51 velocity=80 time=0
EXTRACT: note_on channel=9 note=40 velocity=95 time=0
EXTRACT: note_on channel=9 note=51 velocity=63 time=0
EXTRACT: note_on channel=9 note=49 velocity=63 time=0
EXTRACT: note_off channel=13 note=63 velocity=80 time=0.2142855
EXTRACT: note_on channel=13 note=63 velocity=95 time=0
EXTRACT: note_off channel=15 note=63 velocity=80 time=0
EXTRACT: note_on channel=15 note=63 velocity=95 time=0
EXTRACT: note_off channel=2 note=39 velocity=80 time=0
EXTRACT: note_on channel=2 note=39 velocity=95 time=0
EXTRACT: note_off channel=9 note=40 velocity=80 time=0
EXTRACT: note_off channel=9 note=51 velocity=80 time=0
EXTRACT: note_off channel=9 note=49 velocity=80 time=0
EXTRACT: note_on channel=9 note=51 velocity=63 time=0
EXTRACT: note_off channel=13 note=63 velocity=80 time=0.2142855
EXTRACT: note_on channel=13 note=63 velocity=95 time=0
EXTRACT: note_off channel=15 note=63 velocity=80 time=0
EXTRACT: note_on channel=15 note=63 velocity=95 time=0
EXTRACT: note_off channel=2 note=39 velocity=80 time=0
EXTRACT: note_on channel=2 note=39 velocity=95 time=0
EXTRACT: note_off channel=9 note=51 velocity=80 time=0
EXTRACT: note_on channel=9 note=51 velocity=63 time=0
EXTRACT: note_off channel=13 note=63 velocity=80 time=0.2142855
EXTRACT: note_on channel=13 note=63 velocity=95 time=0
EXTRACT: note_off channel=15 note=63 velocity=80 time=0
EXTRACT: note_on channel=15 note=63 velocity=95 time=0
EXTRACT: note_off channel=2 note=39 velocity=80 time=0
EXTRACT: note_on channel=2 note=39 velocity=95 time=0
EXTRACT: note_off channel=9 note=51 velocity=80 time=0
EXTRACT: note_on channel=9 note=40 velocity=95 time=0
EXTRACT: note_on channel=9 note=51 velocity=63 time=0
EXTRACT: note_on channel=9 note=49 velocity=63 time=0
EXTRACT: note_off channel=13 note=63 velocity=80 time=0.2142855
EXTRACT: note_on channel=13 note=63 velocity=95 time=0
EXTRACT: note_off channel=15 note=63 velocity=80 time=0
EXTRACT: note_on channel=15 note=63 velocity=95 time=0
EXTRACT: note_off channel=2 note=39 velocity=80 time=0
EXTRACT: note_on channel=2 note=39 velocity=95 time=0
EXTRACT: note_off channel=9 note=40 velocity=80 time=0
EXTRACT: note_off channel=9 note=51 velocity=80 time=0
EXTRACT: note_off channel=9 note=49 velocity=80 time=0
EXTRACT: note_on channel=9 note=40 velocity=95 time=0
EXTRACT: note_on channel=9 note=51 velocity=63 time=0
EXTRACT: note_on channel=9 note=49 velocity=63 time=0
EXTRACT: note_off channel=13 note=63 velocity=80 time=0.2142855
EXTRACT: note_on channel=13 note=63 velocity=95 time=0
EXTRACT: note_off channel=15 note=63 velocity=80 time=0
EXTRACT: note_on channel=15 note=63 velocity=95 time=0
EXTRACT: note_off channel=2 note=39 velocity=80 time=0
EXTRACT: note_on channel=2 note=39 velocity=95 time=0
EXTRACT: note_off channel=9 note=40 velocity=80 time=0
EXTRACT: note_off channel=9 note=51 velocity=80 time=0
EXTRACT: note_off channel=9 note=49 velocity=80 time=0
EXTRACT: note_on channel=9 note=51 velocity=63 time=0
EXTRACT: note_off channel=13 note=63 velocity=80 time=0.2142855
EXTRACT: note_on channel=13 note=63 velocity=95 time=0
EXTRACT: note_off channel=15 note=63 velocity=80 time=0
EXTRACT: note_on channel=15 note=63 velocity=95 time=0
EXTRACT: note_off channel=2 note=39 velocity=80 time=0
EXTRACT: note_on channel=2 note=39 velocity=95 time=0
EXTRACT: note_off channel=9 note=51 velocity=80 time=0
EXTRACT: note_on channel=9 note=40 velocity=95 time=0
EXTRACT: note_on channel=9 note=51 velocity=63 time=0
EXTRACT: note_on channel=9 note=49 velocity=63 time=0
EXTRACT: note_off channel=13 note=63 velocity=80 time=0.2142855
EXTRACT: note_on channel=13 note=63 velocity=95 time=0
EXTRACT: note_off channel=15 note=63 velocity=80 time=0
EXTRACT: note_on channel=15 note=63 velocity=95 time=0
EXTRACT: note_off channel=2 note=39 velocity=80 time=0
EXTRACT: note_on channel=2 note=39 velocity=95 time=0
EXTRACT: note_off channel=9 note=40 velocity=80 time=0
EXTRACT: note_off channel=9 note=51 velocity=80 time=0
EXTRACT: note_off channel=9 note=49 velocity=80 time=0
EXTRACT: note_on channel=9 note=51 velocity=63 time=0
EXTRACT: note_off channel=13 note=63 velocity=80 time=0.2142855
EXTRACT: note_on channel=13 note=63 velocity=95 time=0
EXTRACT: note_off channel=15 note=63 velocity=80 time=0
EXTRACT: note_on channel=15 note=63 velocity=95 time=0
EXTRACT: note_off channel=2 note=39 velocity=80 time=0
EXTRACT: note_on channel=2 note=39 velocity=95 time=0
EXTRACT: note_off channel=9 note=51 velocity=80 time=0
EXTRACT: note_on channel=9 note=51 velocity=63 time=0
EXTRACT: note_off channel=13 note=63 velocity=80 time=0.2142855
EXTRACT: note_on channel=13 note=63 velocity=95 time=0
EXTRACT: note_off channel=15 note=63 velocity=80 time=0
EXTRACT: note_on channel=15 note=63 velocity=95 time=0
EXTRACT: note_off channel=2 note=39 velocity=80 time=0
EXTRACT: note_on channel=2 note=39 velocity=95 time=0
EXTRACT: note_off channel=9 note=51 velocity=80 time=0
EXTRACT: note_on channel=9 note=40 velocity=95 time=0
EXTRACT: note_on channel=9 note=51 velocity=63 time=0
EXTRACT: note_on channel=9 note=49 velocity=63 time=0
EXTRACT: note_off channel=13 note=63 velocity=80 time=0.2142855
EXTRACT: note_on channel=13 note=63 velocity=95 time=0
EXTRACT: note_off channel=15 note=63 velocity=80 time=0
EXTRACT: note_on channel=15 note=63 velocity=95 time=0
EXTRACT: note_off channel=2 note=39 velocity=80 time=0
EXTRACT: note_on channel=2 note=39 velocity=95 time=0
EXTRACT: note_off channel=9 note=40 velocity=80 time=0
EXTRACT: note_off channel=9 note=51 velocity=80 time=0
EXTRACT: note_off channel=9 note=49 velocity=80 time=0
EXTRACT: note_on channel=9 note=51 velocity=63 time=0
EXTRACT: note_off channel=13 note=63 velocity=80 time=0.2142855
EXTRACT: note_on channel=14 note=63 velocity=95 time=0
EXTRACT: note_off channel=15 note=63 velocity=80 time=0
EXTRACT: note_on channel=15 note=63 velocity=95 time=0
EXTRACT: note_off channel=2 note=39 velocity=80 time=0
EXTRACT: note_on channel=2 note=39 velocity=95 time=0
EXTRACT: note_off channel=9 note=51 velocity=80 time=0
EXTRACT: note_on channel=9 note=40 velocity=95 time=0
EXTRACT: note_on channel=9 note=51 velocity=63 time=0
EXTRACT: note_on channel=9 note=49 velocity=63 time=0
EXTRACT: pitchwheel channel=14 pitch=640 time=0.10714275
EXTRACT: pitchwheel channel=15 pitch=640 time=0
EXTRACT: pitchwheel channel=14 pitch=1408 time=0.017857125
EXTRACT: pitchwheel channel=15 pitch=1408 time=0
EXTRACT: pitchwheel channel=14 pitch=2048 time=0.017857125
EXTRACT: pitchwheel channel=15 pitch=2048 time=0
EXTRACT: pitchwheel channel=14 pitch=2688 time=0.017857125
EXTRACT: pitchwheel channel=15 pitch=2688 time=0
EXTRACT: pitchwheel channel=14 pitch=3456 time=0.017857125
EXTRACT: pitchwheel channel=15 pitch=3456 time=0
EXTRACT: pitchwheel channel=14 pitch=4096 time=0.017857125
EXTRACT: pitchwheel channel=15 pitch=4096 time=0
EXTRACT: note_off channel=14 note=63 velocity=80 time=0.017857125
EXTRACT: pitchwheel channel=14 pitch=0 time=0
EXTRACT: note_on channel=13 note=70 velocity=86 time=0
EXTRACT: note_off channel=15 note=63 velocity=80 time=0
EXTRACT: pitchwheel channel=15 pitch=0 time=0
EXTRACT: note_on channel=15 note=70 velocity=86 time=0
EXTRACT: note_off channel=2 note=39 velocity=80 time=0
EXTRACT: note_on channel=2 note=39 velocity=95 time=0
EXTRACT: note_off channel=9 note=40 velocity=80 time=0
EXTRACT: note_off channel=9 note=51 velocity=80 time=0
EXTRACT: note_off channel=9 note=49 velocity=80 time=0
EXTRACT: note_on channel=9 note=40 velocity=95 time=0
EXTRACT: note_on channel=9 note=51 velocity=63 time=0
EXTRACT: note_on channel=9 note=49 velocity=63 time=0
EXTRACT: note_off channel=13 note=70 velocity=80 time=0.2142855
EXTRACT: note_on channel=13 note=70 velocity=95 time=0
EXTRACT: note_off channel=15 note=70 velocity=80 time=0
EXTRACT: note_on channel=15 note=70 velocity=95 time=0
EXTRACT: note_off channel=2 note=39 velocity=80 time=0
EXTRACT: note_on channel=2 note=39 velocity=95 time=0
EXTRACT: note_off channel=9 note=40 velocity=80 time=0
EXTRACT: note_off channel=9 note=51 velocity=80 time=0
EXTRACT: note_off channel=9 note=49 velocity=80 time=0
EXTRACT: note_on channel=9 note=51 velocity=63 time=0
EXTRACT: note_off channel=13 note=70 velocity=80 time=0.2142855
EXTRACT: note_on channel=13 note=70 velocity=95 time=0
EXTRACT: note_off channel=15 note=70 velocity=80 time=0
EXTRACT: note_on channel=15 note=70 velocity=95 time=0
EXTRACT: note_off channel=2 note=39 velocity=80 time=0
EXTRACT: note_on channel=2 note=39 velocity=95 time=0
EXTRACT: note_off channel=9 note=51 velocity=80 time=0
EXTRACT: note_on channel=9 note=51 velocity=63 time=0
EXTRACT: note_off channel=13 note=70 velocity=80 time=0.2142855
EXTRACT: note_on channel=14 note=70 velocity=95 time=0
EXTRACT: note_off channel=15 note=70 velocity=80 time=0
EXTRACT: note_on channel=15 note=70 velocity=95 time=0
EXTRACT: note_off channel=2 note=39 velocity=80 time=0
EXTRACT: note_on channel=2 note=39 velocity=95 time=0
EXTRACT: note_off channel=9 note=51 velocity=80 time=0
EXTRACT: note_on channel=9 note=51 velocity=63 time=0
EXTRACT: pitchwheel channel=14 pitch=-640 time=0.10714275
EXTRACT: pitchwheel channel=15 pitch=-640 time=0
EXTRACT: pitchwheel channel=14 pitch=-1408 time=0.017857125
EXTRACT: pitchwheel channel=15 pitch=-1408 time=0
EXTRACT: pitchwheel channel=14 pitch=-2048 time=0.017857125
EXTRACT: pitchwheel channel=15 pitch=-2048 time=0
EXTRACT: pitchwheel channel=14 pitch=-2688 time=0.017857125
EXTRACT: pitchwheel channel=15 pitch=-2688 time=0
EXTRACT: pitchwheel channel=14 pitch=-3456 time=0.017857125
EXTRACT: pitchwheel channel=15 pitch=-3456 time=0
EXTRACT: pitchwheel channel=14 pitch=-4096 time=0.017857125
EXTRACT: pitchwheel channel=15 pitch=-4096 time=0
EXTRACT: note_off channel=0 note=67 velocity=80 time=0.017857125
EXTRACT: note_off channel=0 note=63 velocity=80 time=0
EXTRACT: note_off channel=0 note=58 velocity=80 time=0
EXTRACT: note_off channel=0 note=55 velocity=80 time=0
EXTRACT: note_off channel=0 note=51 velocity=80 time=0
EXTRACT: note_on channel=0 note=70 velocity=95 time=0
EXTRACT: note_on channel=0 note=62 velocity=95 time=0
EXTRACT: note_on channel=0 note=58 velocity=95 time=0
EXTRACT: note_on channel=0 note=53 velocity=95 time=0
EXTRACT: note_on channel=0 note=50 velocity=95 time=0
EXTRACT: note_on channel=0 note=46 velocity=95 time=0
EXTRACT: note_off channel=8 note=67 velocity=80 time=0
EXTRACT: note_off channel=8 note=63 velocity=80 time=0
EXTRACT: note_off channel=8 note=58 velocity=80 time=0
EXTRACT: note_off channel=8 note=55 velocity=80 time=0
EXTRACT: note_off channel=8 note=51 velocity=80 time=0
EXTRACT: note_on channel=8 note=70 velocity=95 time=0
EXTRACT: note_on channel=8 note=62 velocity=95 time=0
EXTRACT: note_on channel=8 note=58 velocity=95 time=0
EXTRACT: note_on channel=8 note=53 velocity=95 time=0
EXTRACT: note_on channel=8 note=50 velocity=95 time=0
EXTRACT: note_on channel=8 note=46 velocity=95 time=0
EXTRACT: note_off channel=14 note=70 velocity=80 time=0
EXTRACT: pitchwheel channel=14 pitch=0 time=0
EXTRACT: note_on channel=13 note=63 velocity=86 time=0
EXTRACT: note_off channel=15 note=70 velocity=80 time=0
EXTRACT: pitchwheel channel=15 pitch=0 time=0
EXTRACT: note_on channel=15 note=63 velocity=86 time=0
EXTRACT: note_off channel=2 note=39 velocity=80 time=0
EXTRACT: note_on channel=2 note=34 velocity=95 time=0
EXTRACT: note_off channel=9 note=51 velocity=80 time=0
EXTRACT: note_on channel=9 note=40 velocity=95 time=0
EXTRACT: note_on channel=9 note=51 velocity=63 time=0
EXTRACT: note_on channel=9 note=49 velocity=63 time=0
EXTRACT: note_off channel=13 note=63 velocity=80 time=0.2142855
EXTRACT: note_on channel=13 note=63 velocity=95 time=0
EXTRACT: note_off channel=15 note=63 velocity=80 time=0
EXTRACT: note_on channel=15 note=63 velocity=95 time=0
EXTRACT: note_off channel=2 note=34 velocity=80 time=0
EXTRACT: note_on channel=2 note=34 velocity=95 time=0
EXTRACT: note_off channel=9 note=40 velocity=80 time=0
EXTRACT: note_off channel=9 note=51 velocity=80 time=0
EXTRACT: note_off channel=9 note=49 velocity=80 time=0
EXTRACT: note_on channel=9 note=51 velocity=63 time=0
EXTRACT: note_off channel=13 note=63 velocity=80 time=0.2142855
EXTRACT: note_on channel=14 note=63 velocity=95 time=0
EXTRACT: note_off channel=15 note=63 velocity=80 time=0
EXTRACT: note_on channel=15 note=63 velocity=95 time=0
EXTRACT: note_off channel=2 note=34 velocity=80 time=0
EXTRACT: note_on channel=2 note=34 velocity=95 time=0
EXTRACT: note_off channel=9 note=51 velocity=80 time=0
EXTRACT: note_on channel=9 note=51 velocity=63 time=0
EXTRACT: pitchwheel channel=14 pitch=-640 time=0.1714284
EXTRACT: pitchwheel channel=15 pitch=-640 time=0
EXTRACT: note_off channel=14 note=63 velocity=80 time=0.0428571
EXTRACT: pitchwheel channel=14 pitch=0 time=0
EXTRACT: note_on channel=13 note=62 velocity=86 time=0
EXTRACT: note_off channel=15 note=63 velocity=80 time=0
EXTRACT: pitchwheel channel=15 pitch=0 time=0
EXTRACT: note_on channel=15 note=62 velocity=86 time=0
EXTRACT: note_off channel=2 note=34 velocity=80 time=0
EXTRACT: note_on channel=2 note=34 velocity=95 time=0
EXTRACT: note_off channel=9 note=51 velocity=80 time=0
EXTRACT: note_on channel=9 note=40 velocity=95 time=0
EXTRACT: note_on channel=9 note=51 velocity=63 time=0
EXTRACT: note_on channel=9 note=49 velocity=63 time=0
EXTRACT: note_off channel=13 note=62 velocity=80 time=0.2142855
EXTRACT: note_on channel=13 note=62 velocity=95 time=0
EXTRACT: note_off channel=15 note=62 velocity=80 time=0
EXTRACT: note_on channel=15 note=62 velocity=95 time=0
EXTRACT: note_off channel=2 note=34 velocity=80 time=0
EXTRACT: note_on channel=2 note=34 velocity=95 time=0
EXTRACT: note_off channel=9 note=40 velocity=80 time=0
EXTRACT: note_off channel=9 note=51 velocity=80 time=0
EXTRACT: note_off channel=9 note=49 velocity=80 time=0
EXTRACT: note_on channel=9 note=40 velocity=95 time=0
EXTRACT: note_on channel=9 note=51 velocity=63 time=0
EXTRACT: note_on channel=9 note=49 velocity=63 time=0
EXTRACT: note_off channel=13 note=62 velocity=80 time=0.2142855
EXTRACT: note_on channel=13 note=62 velocity=95 time=0
EXTRACT: note_off channel=15 note=62 velocity=80 time=0
EXTRACT: note_on channel=15 note=62 velocity=95 time=0
EXTRACT: note_off channel=2 note=34 velocity=80 time=0
EXTRACT: note_on channel=2 note=34 velocity=95 time=0
EXTRACT: note_off channel=9 note=40 velocity=80 time=0
EXTRACT: note_off channel=9 note=51 velocity=80 time=0
EXTRACT: note_off channel=9 note=49 velocity=80 time=0
EXTRACT: note_on channel=9 note=51 velocity=63 time=0
EXTRACT: note_off channel=13 note=62 velocity=80 time=0.2142855
EXTRACT: note_on channel=13 note=62 velocity=95 time=0
EXTRACT: note_off channel=15 note=62 velocity=80 time=0
EXTRACT: note_on channel=15 note=62 velocity=95 time=0
EXTRACT: note_off channel=2 note=34 velocity=80 time=0
EXTRACT: note_on channel=2 note=34 velocity=95 time=0
EXTRACT: note_off channel=9 note=51 velocity=80 time=0
EXTRACT: note_on channel=9 note=40 velocity=95 time=0
EXTRACT: note_on channel=9 note=51 velocity=63 time=0
EXTRACT: note_on channel=9 note=49 velocity=63 time=0
EXTRACT: note_off channel=13 note=62 velocity=80 time=0.2142855
EXTRACT: note_on channel=13 note=62 velocity=95 time=0
EXTRACT: note_off channel=15 note=62 velocity=80 time=0
EXTRACT: note_on channel=15 note=62 velocity=95 time=0
EXTRACT: note_off channel=2 note=34 velocity=80 time=0
EXTRACT: note_on channel=2 note=34 velocity=95 time=0
EXTRACT: note_off channel=9 note=40 velocity=80 time=0
EXTRACT: note_off channel=9 note=51 velocity=80 time=0
EXTRACT: note_off channel=9 note=49 velocity=80 time=0
EXTRACT: note_on channel=9 note=51 velocity=63 time=0
EXTRACT: note_off channel=13 note=62 velocity=80 time=0.2142855
EXTRACT: note_on channel=13 note=62 velocity=95 time=0
EXTRACT: note_off channel=15 note=62 velocity=80 time=0
EXTRACT: note_on channel=15 note=62 velocity=95 time=0
EXTRACT: note_off channel=2 note=34 velocity=80 time=0
EXTRACT: note_on channel=2 note=34 velocity=95 time=0
EXTRACT: note_off channel=9 note=51 velocity=80 time=0
EXTRACT: note_on channel=9 note=51 velocity=63 time=0
EXTRACT: note_off channel=13 note=62 velocity=80 time=0.2142855
EXTRACT: note_on channel=13 note=62 velocity=95 time=0
EXTRACT: note_off channel=15 note=62 velocity=80 time=0
EXTRACT: note_on channel=15 note=62 velocity=95 time=0
EXTRACT: note_off channel=2 note=34 velocity=80 time=0
EXTRACT: note_on channel=2 note=34 velocity=95 time=0
EXTRACT: note_off channel=9 note=51 velocity=80 time=0
EXTRACT: note_on channel=9 note=40 velocity=95 time=0
EXTRACT: note_on channel=9 note=51 velocity=63 time=0
EXTRACT: note_on channel=9 note=49 velocity=63 time=0
EXTRACT: note_off channel=13 note=62 velocity=80 time=0.2142855
EXTRACT: note_on channel=13 note=62 velocity=95 time=0
EXTRACT: note_off channel=15 note=62 velocity=80 time=0
EXTRACT: note_on channel=15 note=62 velocity=95 time=0
EXTRACT: note_off channel=2 note=34 velocity=80 time=0
EXTRACT: note_on channel=2 note=34 velocity=95 time=0
EXTRACT: note_off channel=9 note=40 velocity=80 time=0
EXTRACT: note_off channel=9 note=51 velocity=80 time=0
EXTRACT: note_off channel=9 note=49 velocity=80 time=0
EXTRACT: note_on channel=9 note=51 velocity=63 time=0
EXTRACT: note_off channel=13 note=62 velocity=80 time=0.2142855
EXTRACT: note_on channel=13 note=62 velocity=95 time=0
EXTRACT: note_off channel=15 note=62 velocity=80 time=0
EXTRACT: note_on channel=15 note=62 velocity=95 time=0
EXTRACT: note_off channel=2 note=34 velocity=80 time=0
EXTRACT: note_on channel=2 note=34 velocity=95 time=0
EXTRACT: note_off channel=9 note=51 velocity=80 time=0
EXTRACT: note_on channel=9 note=40 velocity=95 time=0
EXTRACT: note_on channel=9 note=51 velocity=63 time=0
EXTRACT: note_on channel=9 note=49 velocity=63 time=0
EXTRACT: note_off channel=13 note=62 velocity=80 time=0.2142855
EXTRACT: note_on channel=13 note=62 velocity=95 time=0
EXTRACT: note_off channel=15 note=62 velocity=80 time=0
EXTRACT: note_on channel=15 note=62 velocity=95 time=0
EXTRACT: note_off channel=2 note=34 velocity=80 time=0
EXTRACT: note_on channel=2 note=34 velocity=95 time=0
EXTRACT: note_off channel=9 note=40 velocity=80 time=0
EXTRACT: note_off channel=9 note=51 velocity=80 time=0
EXTRACT: note_off channel=9 note=49 velocity=80 time=0
EXTRACT: note_on channel=9 note=40 velocity=95 time=0
EXTRACT: note_on channel=9 note=51 velocity=63 time=0
EXTRACT: note_on channel=9 note=49 velocity=63 time=0
EXTRACT: note_off channel=13 note=62 velocity=80 time=0.2142855
EXTRACT: note_on channel=13 note=62 velocity=95 time=0
EXTRACT: note_off channel=15 note=62 velocity=80 time=0
EXTRACT: note_on channel=15 note=62 velocity=95 time=0
EXTRACT: note_off channel=2 note=34 velocity=80 time=0
EXTRACT: note_on channel=2 note=34 velocity=95 time=0
EXTRACT: note_off channel=9 note=40 velocity=80 time=0
EXTRACT: note_off channel=9 note=51 velocity=80 time=0
EXTRACT: note_off channel=9 note=49 velocity=80 time=0
EXTRACT: note_on channel=9 note=51 velocity=63 time=0
EXTRACT: note_off channel=13 note=62 velocity=80 time=0.2142855
EXTRACT: note_on channel=13 note=62 velocity=95 time=0
EXTRACT: note_off channel=15 note=62 velocity=80 time=0
EXTRACT: note_on channel=15 note=62 velocity=95 time=0
EXTRACT: note_off channel=2 note=34 velocity=80 time=0
EXTRACT: note_on channel=2 note=34 velocity=95 time=0
EXTRACT: note_off channel=9 note=51 velocity=80 time=0
EXTRACT: note_on channel=9 note=51 velocity=63 time=0
EXTRACT: note_off channel=13 note=62 velocity=80 time=0.2142855
EXTRACT: note_on channel=14 note=62 velocity=95 time=0
EXTRACT: note_off channel=15 note=62 velocity=80 time=0
EXTRACT: note_on channel=15 note=62 velocity=95 time=0
EXTRACT: note_off channel=2 note=34 velocity=80 time=0
EXTRACT: note_on channel=2 note=34 velocity=95 time=0
EXTRACT: note_off channel=9 note=51 velocity=80 time=0
EXTRACT: note_on channel=9 note=51 velocity=63 time=0
EXTRACT: pitchwheel channel=14 pitch=640 time=0.1714284
EXTRACT: pitchwheel channel=15 pitch=640 time=0
EXTRACT: note_off channel=0 note=70 velocity=80 time=0.0428571
EXTRACT: note_off channel=0 note=62 velocity=80 time=0
EXTRACT: note_off channel=0 note=58 velocity=80 time=0
EXTRACT: note_off channel=0 note=53 velocity=80 time=0
EXTRACT: note_off channel=0 note=50 velocity=80 time=0
EXTRACT: note_off channel=0 note=46 velocity=80 time=0
EXTRACT: note_on channel=0 note=67 velocity=95 time=0
EXTRACT: note_on channel=0 note=63 velocity=95 time=0
EXTRACT: note_on channel=0 note=58 velocity=95 time=0
EXTRACT: note_on channel=0 note=55 velocity=95 time=0
EXTRACT: note_on channel=0 note=51 velocity=95 time=0
EXTRACT: note_off channel=8 note=70 velocity=80 time=0
EXTRACT: note_off channel=8 note=62 velocity=80 time=0
EXTRACT: note_off channel=8 note=58 velocity=80 time=0
EXTRACT: note_off channel=8 note=53 velocity=80 time=0
EXTRACT: note_off channel=8 note=50 velocity=80 time=0
EXTRACT: note_off channel=8 note=46 velocity=80 time=0
EXTRACT: note_on channel=8 note=67 velocity=95 time=0
EXTRACT: note_on channel=8 note=63 velocity=95 time=0
EXTRACT: note_on channel=8 note=58 velocity=95 time=0
EXTRACT: note_on channel=8 note=55 velocity=95 time=0
EXTRACT: note_on channel=8 note=51 velocity=95 time=0
EXTRACT: note_off channel=14 note=62 velocity=80 time=0
EXTRACT: pitchwheel channel=14 pitch=0 time=0
EXTRACT: note_on channel=13 note=63 velocity=86 time=0
EXTRACT: note_off channel=15 note=62 velocity=80 time=0
EXTRACT: pitchwheel channel=15 pitch=0 time=0
EXTRACT: note_on channel=15 note=63 velocity=86 time=0
EXTRACT: note_off channel=2 note=34 velocity=80 time=0
EXTRACT: note_on channel=2 note=39 velocity=95 time=0
EXTRACT: note_off channel=9 note=51 velocity=80 time=0
EXTRACT: note_on channel=9 note=40 velocity=95 time=0
EXTRACT: note_on channel=9 note=51 velocity=63 time=0
EXTRACT: note_on channel=9 note=49 velocity=63 time=0
EXTRACT: note_off channel=13 note=63 velocity=80 time=0.2142855
EXTRACT: note_on channel=13 note=63 velocity=95 time=0
EXTRACT: note_off channel=15 note=63 velocity=80 time=0
EXTRACT: note_on channel=15 note=63 velocity=95 time=0
EXTRACT: note_off channel=2 note=39 velocity=80 time=0
EXTRACT: note_on channel=2 note=39 velocity=95 time=0
EXTRACT: note_off channel=9 note=40 velocity=80 time=0
EXTRACT: note_off channel=9 note=51 velocity=80 time=0
EXTRACT: note_off channel=9 note=49 velocity=80 time=0
EXTRACT: note_on channel=9 note=51 velocity=63 time=0
EXTRACT: note_off channel=13 note=63 velocity=80 time=0.2142855
EXTRACT: note_on channel=13 note=63 velocity=95 time=0
EXTRACT: note_off channel=15 note=63 velocity=80 time=0
EXTRACT: note_on channel=15 note=63 velocity=95 time=0
EXTRACT: note_off channel=2 note=39 velocity=80 time=0
EXTRACT: note_on channel=2 note=39 velocity=95 time=0
EXTRACT: note_off channel=9 note=51 velocity=80 time=0
EXTRACT: note_on channel=9 note=51 velocity=63 time=0
EXTRACT: note_off channel=13 note=63 velocity=80 time=0.2142855
EXTRACT: note_on channel=13 note=63 velocity=95 time=0
EXTRACT: note_off channel=15 note=63 velocity=80 time=0
EXTRACT: note_on channel=15 note=63 velocity=95 time=0
EXTRACT: note_off channel=2 note=39 velocity=80 time=0
EXTRACT: note_on channel=2 note=39 velocity=95 time=0
EXTRACT: note_off channel=9 note=51 velocity=80 time=0
EXTRACT: note_on channel=9 note=40 velocity=95 time=0
EXTRACT: note_on channel=9 note=51 velocity=63 time=0
EXTRACT: note_on channel=9 note=49 velocity=63 time=0
EXTRACT: note_off channel=13 note=63 velocity=80 time=0.2142855
EXTRACT: note_on channel=13 note=63 velocity=95 time=0
EXTRACT: note_off channel=15 note=63 velocity=80 time=0
EXTRACT: note_on channel=15 note=63 velocity=95 time=0
EXTRACT: note_off channel=2 note=39 velocity=80 time=0
EXTRACT: note_on channel=2 note=39 velocity=95 time=0
EXTRACT: note_off channel=9 note=40 velocity=80 time=0
EXTRACT: note_off channel=9 note=51 velocity=80 time=0
EXTRACT: note_off channel=9 note=49 velocity=80 time=0
EXTRACT: note_on channel=9 note=40 velocity=95 time=0
EXTRACT: note_on channel=9 note=51 velocity=63 time=0
EXTRACT: note_on channel=9 note=49 velocity=63 time=0
EXTRACT: note_off channel=13 note=63 velocity=80 time=0.2142855
EXTRACT: note_on channel=13 note=63 velocity=95 time=0
EXTRACT: note_off channel=15 note=63 velocity=80 time=0
EXTRACT: note_on channel=15 note=63 velocity=95 time=0
EXTRACT: note_off channel=2 note=39 velocity=80 time=0
EXTRACT: note_on channel=2 note=39 velocity=95 time=0
EXTRACT: note_off channel=9 note=40 velocity=80 time=0
EXTRACT: note_off channel=9 note=51 velocity=80 time=0
EXTRACT: note_off channel=9 note=49 velocity=80 time=0
EXTRACT: note_on channel=9 note=51 velocity=63 time=0
EXTRACT: note_off channel=13 note=63 velocity=80 time=0.2142855
EXTRACT: note_on channel=13 note=63 velocity=95 time=0
EXTRACT: note_off channel=15 note=63 velocity=80 time=0
EXTRACT: note_on channel=15 note=63 velocity=95 time=0
EXTRACT: note_off channel=2 note=39 velocity=80 time=0
EXTRACT: note_on channel=2 note=39 velocity=95 time=0
EXTRACT: note_off channel=9 note=51 velocity=80 time=0
EXTRACT: note_on channel=9 note=40 velocity=95 time=0
EXTRACT: note_on channel=9 note=51 velocity=63 time=0
EXTRACT: note_on channel=9 note=49 velocity=63 time=0
EXTRACT: note_off channel=13 note=63 velocity=80 time=0.2142855
EXTRACT: note_on channel=13 note=63 velocity=95 time=0
EXTRACT: note_off channel=15 note=63 velocity=80 time=0
EXTRACT: note_on channel=15 note=63 velocity=95 time=0
EXTRACT: note_off channel=2 note=39 velocity=80 time=0
EXTRACT: note_on channel=2 note=39 velocity=95 time=0
EXTRACT: note_off channel=9 note=40 velocity=80 time=0
EXTRACT: note_off channel=9 note=51 velocity=80 time=0
EXTRACT: note_off channel=9 note=49 velocity=80 time=0
EXTRACT: note_on channel=9 note=51 velocity=63 time=0
EXTRACT: note_off channel=13 note=63 velocity=80 time=0.2142855
EXTRACT: note_on channel=13 note=63 velocity=95 time=0
EXTRACT: note_off channel=15 note=63 velocity=80 time=0
EXTRACT: note_on channel=15 note=63 velocity=95 time=0
EXTRACT: note_off channel=2 note=39 velocity=80 time=0
EXTRACT: note_on channel=2 note=39 velocity=95 time=0
EXTRACT: note_off channel=9 note=51 velocity=80 time=0
EXTRACT: note_on channel=9 note=51 velocity=63 time=0
EXTRACT: note_off channel=13 note=63 velocity=80 time=0.2142855
EXTRACT: note_on channel=13 note=63 velocity=95 time=0
EXTRACT: note_off channel=15 note=63 velocity=80 time=0
EXTRACT: note_on channel=15 note=63 velocity=95 time=0
EXTRACT: note_off channel=2 note=39 velocity=80 time=0
EXTRACT: note_on channel=2 note=39 velocity=95 time=0
EXTRACT: note_off channel=9 note=51 velocity=80 time=0
EXTRACT: note_on channel=9 note=40 velocity=95 time=0
EXTRACT: note_on channel=9 note=51 velocity=63 time=0
EXTRACT: note_on channel=9 note=49 velocity=63 time=0
EXTRACT: note_off channel=13 note=63 velocity=80 time=0.2142855
EXTRACT: note_on channel=13 note=63 velocity=95 time=0
EXTRACT: note_off channel=15 note=63 velocity=80 time=0
EXTRACT: note_on channel=15 note=63 velocity=95 time=0
EXTRACT: note_off channel=2 note=39 velocity=80 time=0
EXTRACT: note_on channel=2 note=39 velocity=95 time=0
EXTRACT: note_off channel=9 note=40 velocity=80 time=0
EXTRACT: note_off channel=9 note=51 velocity=80 time=0
EXTRACT: note_off channel=9 note=49 velocity=80 time=0
EXTRACT: note_on channel=9 note=51 velocity=63 time=0
EXTRACT: note_off channel=13 note=63 velocity=80 time=0.2142855
EXTRACT: note_on channel=14 note=63 velocity=95 time=0
EXTRACT: note_off channel=15 note=63 velocity=80 time=0
EXTRACT: note_on channel=15 note=63 velocity=95 time=0
EXTRACT: note_off channel=2 note=39 velocity=80 time=0
EXTRACT: note_on channel=2 note=39 velocity=95 time=0
EXTRACT: note_off channel=9 note=51 velocity=80 time=0
EXTRACT: note_on channel=9 note=40 velocity=95 time=0
EXTRACT: note_on channel=9 note=51 velocity=63 time=0
EXTRACT: note_on channel=9 note=49 velocity=63 time=0
EXTRACT: pitchwheel channel=14 pitch=640 time=0.10714275
EXTRACT: pitchwheel channel=15 pitch=640 time=0
EXTRACT: pitchwheel channel=14 pitch=1408 time=0.017857125
EXTRACT: pitchwheel channel=15 pitch=1408 time=0
EXTRACT: pitchwheel channel=14 pitch=2048 time=0.017857125
EXTRACT: pitchwheel channel=15 pitch=2048 time=0
EXTRACT: pitchwheel channel=14 pitch=2688 time=0.017857125
EXTRACT: pitchwheel channel=15 pitch=2688 time=0
EXTRACT: pitchwheel channel=14 pitch=3456 time=0.017857125
EXTRACT: pitchwheel channel=15 pitch=3456 time=0
EXTRACT: pitchwheel channel=14 pitch=4096 time=0.017857125
EXTRACT: pitchwheel channel=15 pitch=4096 time=0
EXTRACT: note_off channel=14 note=63 velocity=80 time=0.017857125
EXTRACT: pitchwheel channel=14 pitch=0 time=0
EXTRACT: note_on channel=13 note=70 velocity=86 time=0
EXTRACT: note_off channel=15 note=63 velocity=80 time=0
EXTRACT: pitchwheel channel=15 pitch=0 time=0
EXTRACT: note_on channel=15 note=70 velocity=86 time=0
EXTRACT: note_off channel=2 note=39 velocity=80 time=0
EXTRACT: note_on channel=2 note=39 velocity=95 time=0
EXTRACT: note_off channel=9 note=40 velocity=80 time=0
EXTRACT: note_off channel=9 note=51 velocity=80 time=0
EXTRACT: note_off channel=9 note=49 velocity=80 time=0
EXTRACT: note_on channel=9 note=40 velocity=95 time=0
EXTRACT: note_on channel=9 note=51 velocity=63 time=0
EXTRACT: note_on channel=9 note=49 velocity=63 time=0
EXTRACT: note_off channel=13 note=70 velocity=80 time=0.2142855
EXTRACT: note_on channel=13 note=70 velocity=95 time=0
EXTRACT: note_off channel=15 note=70 velocity=80 time=0
EXTRACT: note_on channel=15 note=70 velocity=95 time=0
EXTRACT: note_off channel=2 note=39 velocity=80 time=0
EXTRACT: note_on channel=2 note=39 velocity=95 time=0
EXTRACT: note_off channel=9 note=40 velocity=80 time=0
EXTRACT: note_off channel=9 note=51 velocity=80 time=0
EXTRACT: note_off channel=9 note=49 velocity=80 time=0
EXTRACT: note_on channel=9 note=51 velocity=63 time=0
EXTRACT: note_off channel=13 note=70 velocity=80 time=0.2142855
EXTRACT: note_on channel=13 note=70 velocity=95 time=0
EXTRACT: note_off channel=15 note=70 velocity=80 time=0
EXTRACT: note_on channel=15 note=70 velocity=95 time=0
EXTRACT: note_off channel=2 note=39 velocity=80 time=0
EXTRACT: note_on channel=2 note=39 velocity=95 time=0
EXTRACT: note_off channel=9 note=51 velocity=80 time=0
EXTRACT: note_on channel=9 note=51 velocity=63 time=0
EXTRACT: note_off channel=13 note=70 velocity=80 time=0.2142855
EXTRACT: note_on channel=14 note=70 velocity=95 time=0
EXTRACT: note_off channel=15 note=70 velocity=80 time=0
EXTRACT: note_on channel=15 note=70 velocity=95 time=0
EXTRACT: note_off channel=2 note=39 velocity=80 time=0
EXTRACT: note_on channel=2 note=39 velocity=95 time=0
EXTRACT: note_off channel=9 note=51 velocity=80 time=0
EXTRACT: note_on channel=9 note=51 velocity=63 time=0
EXTRACT: pitchwheel channel=14 pitch=-640 time=0.10714275
EXTRACT: pitchwheel channel=15 pitch=-640 time=0
EXTRACT: pitchwheel channel=14 pitch=-1408 time=0.017857125
EXTRACT: pitchwheel channel=15 pitch=-1408 time=0
EXTRACT: pitchwheel channel=14 pitch=-2048 time=0.017857125
EXTRACT: pitchwheel channel=15 pitch=-2048 time=0
EXTRACT: pitchwheel channel=14 pitch=-2688 time=0.017857125
EXTRACT: pitchwheel channel=15 pitch=-2688 time=0
EXTRACT: pitchwheel channel=14 pitch=-3456 time=0.017857125
EXTRACT: pitchwheel channel=15 pitch=-3456 time=0
EXTRACT: pitchwheel channel=14 pitch=-4096 time=0.017857125
EXTRACT: pitchwheel channel=15 pitch=-4096 time=0
EXTRACT: note_off channel=0 note=67 velocity=80 time=0.017857125
EXTRACT: note_off channel=0 note=63 velocity=80 time=0
EXTRACT: note_off channel=0 note=58 velocity=80 time=0
EXTRACT: note_off channel=0 note=55 velocity=80 time=0
EXTRACT: note_off channel=0 note=51 velocity=80 time=0
EXTRACT: note_on channel=0 note=67 velocity=95 time=0
EXTRACT: note_on channel=0 note=63 velocity=95 time=0
EXTRACT: note_on channel=0 note=60 velocity=95 time=0
EXTRACT: note_on channel=0 note=56 velocity=95 time=0
EXTRACT: note_on channel=0 note=51 velocity=95 time=0
EXTRACT: note_off channel=8 note=67 velocity=80 time=0
EXTRACT: note_off channel=8 note=63 velocity=80 time=0
EXTRACT: note_off channel=8 note=58 velocity=80 time=0
EXTRACT: note_off channel=8 note=55 velocity=80 time=0
EXTRACT: note_off channel=8 note=51 velocity=80 time=0
EXTRACT: note_on channel=8 note=67 velocity=95 time=0
EXTRACT: note_on channel=8 note=63 velocity=95 time=0
EXTRACT: note_on channel=8 note=60 velocity=95 time=0
EXTRACT: note_on channel=8 note=56 velocity=95 time=0
EXTRACT: note_on channel=8 note=51 velocity=95 time=0
EXTRACT: note_on channel=8 note=44 velocity=95 time=0
EXTRACT: note_off channel=14 note=70 velocity=80 time=0
EXTRACT: pitchwheel channel=14 pitch=0 time=0
EXTRACT: note_on channel=13 note=63 velocity=86 time=0
EXTRACT: note_off channel=15 note=70 velocity=80 time=0
EXTRACT: pitchwheel channel=15 pitch=0 time=0
EXTRACT: note_on channel=15 note=63 velocity=86 time=0
EXTRACT: note_off channel=2 note=39 velocity=80 time=0
EXTRACT: note_on channel=2 note=44 velocity=95 time=0
EXTRACT: note_off channel=9 note=51 velocity=80 time=0
EXTRACT: note_on channel=9 note=40 velocity=95 time=0
EXTRACT: note_on channel=9 note=51 velocity=63 time=0
EXTRACT: note_on channel=9 note=49 velocity=63 time=0
EXTRACT: note_off channel=13 note=63 velocity=80 time=0.2142855
EXTRACT: note_on channel=13 note=63 velocity=95 time=0
EXTRACT: note_off channel=15 note=63 velocity=80 time=0
EXTRACT: note_on channel=15 note=63 velocity=95 time=0
EXTRACT: note_off channel=2 note=44 velocity=80 time=0
EXTRACT: note_on channel=2 note=44 velocity=95 time=0
EXTRACT: note_off channel=9 note=40 velocity=80 time=0
EXTRACT: note_off channel=9 note=51 velocity=80 time=0
EXTRACT: note_off channel=9 note=49 velocity=80 time=0
EXTRACT: note_on channel=9 note=51 velocity=63 time=0
EXTRACT: note_off channel=13 note=63 velocity=80 time=0.2142855
EXTRACT: note_on channel=13 note=63 velocity=95 time=0
EXTRACT: note_off channel=15 note=63 velocity=80 time=0
EXTRACT: note_on channel=15 note=63 velocity=95 time=0
EXTRACT: note_off channel=2 note=44 velocity=80 time=0
EXTRACT: note_on channel=2 note=44 velocity=95 time=0
EXTRACT: note_off channel=9 note=51 velocity=80 time=0
EXTRACT: note_on channel=9 note=51 velocity=63 time=0
EXTRACT: note_off channel=13 note=63 velocity=80 time=0.2142855
EXTRACT: note_on channel=13 note=63 velocity=95 time=0
EXTRACT: note_off channel=15 note=63 velocity=80 time=0
EXTRACT: note_on channel=15 note=63 velocity=95 time=0
EXTRACT: note_off channel=2 note=44 velocity=80 time=0
EXTRACT: note_on channel=2 note=44 velocity=95 time=0
EXTRACT: note_off channel=9 note=51 velocity=80 time=0
EXTRACT: note_on channel=9 note=40 velocity=95 time=0
EXTRACT: note_on channel=9 note=51 velocity=63 time=0
EXTRACT: note_on channel=9 note=49 velocity=63 time=0
EXTRACT: note_off channel=13 note=63 velocity=80 time=0.2142855
EXTRACT: note_on channel=13 note=63 velocity=95 time=0
EXTRACT: note_off channel=15 note=63 velocity=80 time=0
EXTRACT: note_on channel=15 note=63 velocity=95 time=0
EXTRACT: note_off channel=2 note=44 velocity=80 time=0
EXTRACT: note_on channel=2 note=44 velocity=95 time=0
EXTRACT: note_off channel=9 note=40 velocity=80 time=0
EXTRACT: note_off channel=9 note=51 velocity=80 time=0
EXTRACT: note_off channel=9 note=49 velocity=80 time=0
EXTRACT: note_on channel=9 note=40 velocity=95 time=0
EXTRACT: note_on channel=9 note=51 velocity=63 time=0
EXTRACT: note_on channel=9 note=49 velocity=63 time=0
EXTRACT: note_off channel=13 note=63 velocity=80 time=0.2142855
EXTRACT: note_on channel=13 note=63 velocity=95 time=0
EXTRACT: note_off channel=15 note=63 velocity=80 time=0
EXTRACT: note_on channel=15 note=63 velocity=95 time=0
EXTRACT: note_off channel=2 note=44 velocity=80 time=0
EXTRACT: note_on channel=2 note=44 velocity=95 time=0
EXTRACT: note_off channel=9 note=40 velocity=80 time=0
EXTRACT: note_off channel=9 note=51 velocity=80 time=0
EXTRACT: note_off channel=9 note=49 velocity=80 time=0
EXTRACT: note_on channel=9 note=51 velocity=63 time=0
EXTRACT: note_off channel=13 note=63 velocity=80 time=0.2142855
EXTRACT: note_on channel=13 note=63 velocity=95 time=0
EXTRACT: note_off channel=15 note=63 velocity=80 time=0
EXTRACT: note_on channel=15 note=63 velocity=95 time=0
EXTRACT: note_off channel=2 note=44 velocity=80 time=0
EXTRACT: note_on channel=2 note=44 velocity=95 time=0
EXTRACT: note_off channel=9 note=51 velocity=80 time=0
EXTRACT: note_on channel=9 note=40 velocity=95 time=0
EXTRACT: note_on channel=9 note=51 velocity=63 time=0
EXTRACT: note_on channel=9 note=49 velocity=63 time=0
EXTRACT: note_off channel=13 note=63 velocity=80 time=0.2142855
EXTRACT: note_on channel=13 note=63 velocity=95 time=0
EXTRACT: note_off channel=15 note=63 velocity=80 time=0
EXTRACT: note_on channel=15 note=63 velocity=95 time=0
EXTRACT: note_off channel=2 note=44 velocity=80 time=0
EXTRACT: note_on channel=2 note=44 velocity=95 time=0
EXTRACT: note_off channel=9 note=40 velocity=80 time=0
EXTRACT: note_off channel=9 note=51 velocity=80 time=0
EXTRACT: note_off channel=9 note=49 velocity=80 time=0
EXTRACT: note_on channel=9 note=51 velocity=63 time=0
EXTRACT: note_off channel=13 note=63 velocity=80 time=0.2142855
EXTRACT: note_on channel=13 note=63 velocity=95 time=0
EXTRACT: note_off channel=15 note=63 velocity=80 time=0
EXTRACT: note_on channel=15 note=63 velocity=95 time=0
EXTRACT: note_off channel=2 note=44 velocity=80 time=0
EXTRACT: note_on channel=2 note=44 velocity=95 time=0
EXTRACT: note_off channel=9 note=51 velocity=80 time=0
EXTRACT: note_on channel=9 note=51 velocity=63 time=0
EXTRACT: note_off channel=13 note=63 velocity=80 time=0.2142855
EXTRACT: note_on channel=13 note=63 velocity=95 time=0
EXTRACT: note_off channel=15 note=63 velocity=80 time=0
EXTRACT: note_on channel=15 note=63 velocity=95 time=0
EXTRACT: note_off channel=2 note=44 velocity=80 time=0
EXTRACT: note_on channel=2 note=44 velocity=95 time=0
EXTRACT: note_off channel=9 note=51 velocity=80 time=0
EXTRACT: note_on channel=9 note=40 velocity=95 time=0
EXTRACT: note_on channel=9 note=51 velocity=63 time=0
EXTRACT: note_on channel=9 note=49 velocity=63 time=0
EXTRACT: note_off channel=13 note=63 velocity=80 time=0.2142855
EXTRACT: note_on channel=13 note=63 velocity=95 time=0
EXTRACT: note_off channel=15 note=63 velocity=80 time=0
EXTRACT: note_on channel=15 note=63 velocity=95 time=0
EXTRACT: note_off channel=2 note=44 velocity=80 time=0
EXTRACT: note_on channel=2 note=44 velocity=95 time=0
EXTRACT: note_off channel=9 note=40 velocity=80 time=0
EXTRACT: note_off channel=9 note=51 velocity=80 time=0
EXTRACT: note_off channel=9 note=49 velocity=80 time=0
EXTRACT: note_on channel=9 note=51 velocity=63 time=0
EXTRACT: note_off channel=13 note=63 velocity=80 time=0.2142855
EXTRACT: note_on channel=14 note=63 velocity=95 time=0
EXTRACT: note_off channel=15 note=63 velocity=80 time=0
EXTRACT: note_on channel=15 note=63 velocity=95 time=0
EXTRACT: note_off channel=2 note=44 velocity=80 time=0
EXTRACT: note_on channel=2 note=44 velocity=95 time=0
EXTRACT: note_off channel=9 note=51 velocity=80 time=0
EXTRACT: note_on channel=9 note=40 velocity=95 time=0
EXTRACT: note_on channel=9 note=51 velocity=63 time=0
EXTRACT: note_on channel=9 note=49 velocity=63 time=0
EXTRACT: pitchwheel channel=14 pitch=640 time=0.10714275
EXTRACT: pitchwheel channel=15 pitch=640 time=0
EXTRACT: pitchwheel channel=14 pitch=1408 time=0.017857125
EXTRACT: pitchwheel channel=15 pitch=1408 time=0
EXTRACT: pitchwheel channel=14 pitch=2048 time=0.017857125
EXTRACT: pitchwheel channel=15 pitch=2048 time=0
EXTRACT: pitchwheel channel=14 pitch=2688 time=0.017857125
EXTRACT: pitchwheel channel=15 pitch=2688 time=0
EXTRACT: pitchwheel channel=14 pitch=3456 time=0.017857125
EXTRACT: pitchwheel channel=15 pitch=3456 time=0
EXTRACT: pitchwheel channel=14 pitch=4096 time=0.017857125
EXTRACT: pitchwheel channel=15 pitch=4096 time=0
EXTRACT: note_off channel=14 note=63 velocity=80 time=0.017857125
EXTRACT: pitchwheel channel=14 pitch=0 time=0
EXTRACT: note_on channel=13 note=70 velocity=86 time=0
EXTRACT: note_off channel=15 note=63 velocity=80 time=0
EXTRACT: pitchwheel channel=15 pitch=0 time=0
EXTRACT: note_on channel=15 note=70 velocity=86 time=0
EXTRACT: note_off channel=2 note=44 velocity=80 time=0
EXTRACT: note_on channel=2 note=44 velocity=95 time=0
EXTRACT: note_off channel=9 note=40 velocity=80 time=0
EXTRACT: note_off channel=9 note=51 velocity=80 time=0
EXTRACT: note_off channel=9 note=49 velocity=80 time=0
EXTRACT: note_on channel=9 note=40 velocity=95 time=0
EXTRACT: note_on channel=9 note=51 velocity=63 time=0
EXTRACT: note_on channel=9 note=49 velocity=63 time=0
EXTRACT: note_off channel=13 note=70 velocity=80 time=0.2142855
EXTRACT: note_on channel=13 note=70 velocity=95 time=0
EXTRACT: note_off channel=15 note=70 velocity=80 time=0
EXTRACT: note_on channel=15 note=70 velocity=95 time=0
EXTRACT: note_off channel=2 note=44 velocity=80 time=0
EXTRACT: note_on channel=2 note=44 velocity=95 time=0
EXTRACT: note_off channel=9 note=40 velocity=80 time=0
EXTRACT: note_off channel=9 note=51 velocity=80 time=0
EXTRACT: note_off channel=9 note=49 velocity=80 time=0
EXTRACT: note_on channel=9 note=51 velocity=63 time=0
EXTRACT: note_off channel=13 note=70 velocity=80 time=0.2142855
EXTRACT: note_on channel=13 note=70 velocity=95 time=0
EXTRACT: note_off channel=15 note=70 velocity=80 time=0
EXTRACT: note_on channel=15 note=70 velocity=95 time=0
EXTRACT: note_off channel=2 note=44 velocity=80 time=0
EXTRACT: note_on channel=2 note=44 velocity=95 time=0
EXTRACT: note_off channel=9 note=51 velocity=80 time=0
EXTRACT: note_on channel=9 note=51 velocity=63 time=0
EXTRACT: note_off channel=13 note=70 velocity=80 time=0.2142855
EXTRACT: note_on channel=14 note=70 velocity=95 time=0
EXTRACT: note_off channel=15 note=70 velocity=80 time=0
EXTRACT: note_on channel=15 note=70 velocity=95 time=0
EXTRACT: note_off channel=2 note=44 velocity=80 time=0
EXTRACT: note_on channel=2 note=44 velocity=95 time=0
EXTRACT: note_off channel=9 note=51 velocity=80 time=0
EXTRACT: note_on channel=9 note=51 velocity=63 time=0
EXTRACT: pitchwheel channel=14 pitch=-640 time=0.10714275
EXTRACT: pitchwheel channel=15 pitch=-640 time=0
EXTRACT: pitchwheel channel=14 pitch=-1408 time=0.017857125
EXTRACT: pitchwheel channel=15 pitch=-1408 time=0
EXTRACT: pitchwheel channel=14 pitch=-2048 time=0.017857125
EXTRACT: pitchwheel channel=15 pitch=-2048 time=0
EXTRACT: pitchwheel channel=14 pitch=-2688 time=0.017857125
EXTRACT: pitchwheel channel=15 pitch=-2688 time=0
EXTRACT: pitchwheel channel=14 pitch=-3456 time=0.017857125
EXTRACT: pitchwheel channel=15 pitch=-3456 time=0
EXTRACT: pitchwheel channel=14 pitch=-4096 time=0.017857125
EXTRACT: pitchwheel channel=15 pitch=-4096 time=0
EXTRACT: note_off channel=0 note=67 velocity=80 time=0.017857125
EXTRACT: note_off channel=0 note=63 velocity=80 time=0
EXTRACT: note_off channel=0 note=60 velocity=80 time=0
EXTRACT: note_off channel=0 note=56 velocity=80 time=0
EXTRACT: note_off channel=0 note=51 velocity=80 time=0
EXTRACT: note_on channel=0 note=67 velocity=95 time=0
EXTRACT: note_on channel=0 note=63 velocity=95 time=0
EXTRACT: note_on channel=0 note=58 velocity=95 time=0
EXTRACT: note_on channel=0 note=55 velocity=95 time=0
EXTRACT: note_on channel=0 note=51 velocity=95 time=0
EXTRACT: note_off channel=8 note=67 velocity=80 time=0
EXTRACT: note_off channel=8 note=63 velocity=80 time=0
EXTRACT: note_off channel=8 note=60 velocity=80 time=0
EXTRACT: note_off channel=8 note=56 velocity=80 time=0
EXTRACT: note_off channel=8 note=51 velocity=80 time=0
EXTRACT: note_off channel=8 note=44 velocity=80 time=0
EXTRACT: note_on channel=8 note=67 velocity=95 time=0
EXTRACT: note_on channel=8 note=63 velocity=95 time=0
EXTRACT: note_on channel=8 note=58 velocity=95 time=0
EXTRACT: note_on channel=8 note=55 velocity=95 time=0
EXTRACT: note_on channel=8 note=51 velocity=95 time=0
EXTRACT: note_off channel=14 note=70 velocity=80 time=0
EXTRACT: pitchwheel channel=14 pitch=0 time=0
EXTRACT: note_on channel=13 note=63 velocity=86 time=0
EXTRACT: note_off channel=15 note=70 velocity=80 time=0
EXTRACT: pitchwheel channel=15 pitch=0 time=0
EXTRACT: note_on channel=15 note=63 velocity=86 time=0
EXTRACT: note_off channel=2 note=44 velocity=80 time=0
EXTRACT: note_on channel=2 note=39 velocity=95 time=0
EXTRACT: note_off channel=9 note=51 velocity=80 time=0
EXTRACT: note_on channel=9 note=40 velocity=95 time=0
EXTRACT: note_on channel=9 note=51 velocity=63 time=0
EXTRACT: note_on channel=9 note=49 velocity=63 time=0
EXTRACT: note_off channel=13 note=63 velocity=80 time=0.2142855
EXTRACT: note_on channel=13 note=63 velocity=95 time=0
EXTRACT: note_off channel=15 note=63 velocity=80 time=0
EXTRACT: note_on channel=15 note=63 velocity=95 time=0
EXTRACT: note_off channel=2 note=39 velocity=80 time=0
EXTRACT: note_on channel=2 note=39 velocity=95 time=0
EXTRACT: note_off channel=9 note=40 velocity=80 time=0
EXTRACT: note_off channel=9 note=51 velocity=80 time=0
EXTRACT: note_off channel=9 note=49 velocity=80 time=0
EXTRACT: note_on channel=9 note=51 velocity=63 time=0
EXTRACT: note_off channel=13 note=63 velocity=80 time=0.2142855
EXTRACT: note_on channel=13 note=63 velocity=95 time=0
EXTRACT: note_off channel=15 note=63 velocity=80 time=0
EXTRACT: note_on channel=15 note=63 velocity=95 time=0
EXTRACT: note_off channel=2 note=39 velocity=80 time=0
EXTRACT: note_on channel=2 note=39 velocity=95 time=0
EXTRACT: note_off channel=9 note=51 velocity=80 time=0
EXTRACT: note_on channel=9 note=51 velocity=63 time=0
EXTRACT: note_off channel=13 note=63 velocity=80 time=0.2142855
EXTRACT: note_on channel=13 note=63 velocity=95 time=0
EXTRACT: note_off channel=15 note=63 velocity=80 time=0
EXTRACT: note_on channel=15 note=63 velocity=95 time=0
EXTRACT: note_off channel=2 note=39 velocity=80 time=0
EXTRACT: note_on channel=2 note=39 velocity=95 time=0
EXTRACT: note_off channel=9 note=51 velocity=80 time=0
EXTRACT: note_on channel=9 note=40 velocity=95 time=0
EXTRACT: note_on channel=9 note=51 velocity=63 time=0
EXTRACT: note_on channel=9 note=49 velocity=63 time=0
EXTRACT: note_off channel=13 note=63 velocity=80 time=0.2142855
EXTRACT: note_on channel=13 note=63 velocity=95 time=0
EXTRACT: note_off channel=15 note=63 velocity=80 time=0
EXTRACT: note_on channel=15 note=63 velocity=95 time=0
EXTRACT: note_off channel=2 note=39 velocity=80 time=0
EXTRACT: note_on channel=2 note=39 velocity=95 time=0
EXTRACT: note_off channel=9 note=40 velocity=80 time=0
EXTRACT: note_off channel=9 note=51 velocity=80 time=0
EXTRACT: note_off channel=9 note=49 velocity=80 time=0
EXTRACT: note_on channel=9 note=40 velocity=95 time=0
EXTRACT: note_on channel=9 note=51 velocity=63 time=0
EXTRACT: note_on channel=9 note=49 velocity=63 time=0
EXTRACT: note_off channel=13 note=63 velocity=80 time=0.2142855
EXTRACT: note_on channel=13 note=63 velocity=95 time=0
EXTRACT: note_off channel=15 note=63 velocity=80 time=0
EXTRACT: note_on channel=15 note=63 velocity=95 time=0
EXTRACT: note_off channel=2 note=39 velocity=80 time=0
EXTRACT: note_on channel=2 note=39 velocity=95 time=0
EXTRACT: note_off channel=9 note=40 velocity=80 time=0
EXTRACT: note_off channel=9 note=51 velocity=80 time=0
EXTRACT: note_off channel=9 note=49 velocity=80 time=0
EXTRACT: note_on channel=9 note=51 velocity=63 time=0
EXTRACT: note_off channel=13 note=63 velocity=80 time=0.2142855
EXTRACT: note_on channel=13 note=63 velocity=95 time=0
EXTRACT: note_off channel=15 note=63 velocity=80 time=0
EXTRACT: note_on channel=15 note=63 velocity=95 time=0
EXTRACT: note_off channel=2 note=39 velocity=80 time=0
EXTRACT: note_on channel=2 note=39 velocity=95 time=0
EXTRACT: note_off channel=9 note=51 velocity=80 time=0
EXTRACT: note_on channel=9 note=40 velocity=95 time=0
EXTRACT: note_on channel=9 note=51 velocity=63 time=0
EXTRACT: note_on channel=9 note=49 velocity=63 time=0
EXTRACT: note_off channel=13 note=63 velocity=80 time=0.2142855
EXTRACT: note_on channel=13 note=63 velocity=95 time=0
EXTRACT: note_off channel=15 note=63 velocity=80 time=0
EXTRACT: note_on channel=15 note=63 velocity=95 time=0
EXTRACT: note_off channel=2 note=39 velocity=80 time=0
EXTRACT: note_on channel=2 note=39 velocity=95 time=0
EXTRACT: note_off channel=9 note=40 velocity=80 time=0
EXTRACT: note_off channel=9 note=51 velocity=80 time=0
EXTRACT: note_off channel=9 note=49 velocity=80 time=0
EXTRACT: note_on channel=9 note=51 velocity=63 time=0
EXTRACT: note_off channel=13 note=63 velocity=80 time=0.2142855
EXTRACT: note_on channel=13 note=63 velocity=95 time=0
EXTRACT: note_off channel=15 note=63 velocity=80 time=0
EXTRACT: note_on channel=15 note=63 velocity=95 time=0
EXTRACT: note_off channel=2 note=39 velocity=80 time=0
EXTRACT: note_on channel=2 note=39 velocity=95 time=0
EXTRACT: note_off channel=9 note=51 velocity=80 time=0
EXTRACT: note_on channel=9 note=51 velocity=63 time=0
EXTRACT: note_off channel=13 note=63 velocity=80 time=0.2142855
EXTRACT: note_on channel=13 note=63 velocity=95 time=0
EXTRACT: note_off channel=15 note=63 velocity=80 time=0
EXTRACT: note_on channel=15 note=63 velocity=95 time=0
EXTRACT: note_off channel=2 note=39 velocity=80 time=0
EXTRACT: note_on channel=2 note=39 velocity=95 time=0
EXTRACT: note_off channel=9 note=51 velocity=80 time=0
EXTRACT: note_on channel=9 note=40 velocity=95 time=0
EXTRACT: note_on channel=9 note=51 velocity=63 time=0
EXTRACT: note_on channel=9 note=49 velocity=63 time=0
EXTRACT: note_off channel=13 note=63 velocity=80 time=0.2142855
EXTRACT: note_on channel=13 note=63 velocity=95 time=0
EXTRACT: note_off channel=15 note=63 velocity=80 time=0
EXTRACT: note_on channel=15 note=63 velocity=95 time=0
EXTRACT: note_off channel=2 note=39 velocity=80 time=0
EXTRACT: note_on channel=2 note=39 velocity=95 time=0
EXTRACT: note_off channel=9 note=40 velocity=80 time=0
EXTRACT: note_off channel=9 note=51 velocity=80 time=0
EXTRACT: note_off channel=9 note=49 velocity=80 time=0
EXTRACT: note_on channel=9 note=51 velocity=63 time=0
EXTRACT: note_off channel=13 note=63 velocity=80 time=0.2142855
EXTRACT: note_on channel=14 note=63 velocity=95 time=0
EXTRACT: note_off channel=15 note=63 velocity=80 time=0
EXTRACT: note_on channel=15 note=63 velocity=95 time=0
EXTRACT: note_off channel=2 note=39 velocity=80 time=0
EXTRACT: note_on channel=2 note=39 velocity=95 time=0
EXTRACT: note_off channel=9 note=51 velocity=80 time=0
EXTRACT: note_on channel=9 note=40 velocity=95 time=0
EXTRACT: note_on channel=9 note=51 velocity=63 time=0
EXTRACT: note_on channel=9 note=49 velocity=63 time=0
EXTRACT: pitchwheel channel=14 pitch=640 time=0.10714275
EXTRACT: pitchwheel channel=15 pitch=640 time=0
EXTRACT: pitchwheel channel=14 pitch=1408 time=0.017857125
EXTRACT: pitchwheel channel=15 pitch=1408 time=0
EXTRACT: pitchwheel channel=14 pitch=2048 time=0.017857125
EXTRACT: pitchwheel channel=15 pitch=2048 time=0
EXTRACT: pitchwheel channel=14 pitch=2688 time=0.017857125
EXTRACT: pitchwheel channel=15 pitch=2688 time=0
EXTRACT: pitchwheel channel=14 pitch=3456 time=0.017857125
EXTRACT: pitchwheel channel=15 pitch=3456 time=0
EXTRACT: pitchwheel channel=14 pitch=4096 time=0.017857125
EXTRACT: pitchwheel channel=15 pitch=4096 time=0
EXTRACT: note_off channel=14 note=63 velocity=80 time=0.017857125
EXTRACT: pitchwheel channel=14 pitch=0 time=0
EXTRACT: note_on channel=13 note=70 velocity=86 time=0
EXTRACT: note_off channel=15 note=63 velocity=80 time=0
EXTRACT: pitchwheel channel=15 pitch=0 time=0
EXTRACT: note_on channel=15 note=70 velocity=86 time=0
EXTRACT: note_off channel=2 note=39 velocity=80 time=0
EXTRACT: note_on channel=2 note=39 velocity=95 time=0
EXTRACT: note_off channel=9 note=40 velocity=80 time=0
EXTRACT: note_off channel=9 note=51 velocity=80 time=0
EXTRACT: note_off channel=9 note=49 velocity=80 time=0
EXTRACT: note_on channel=9 note=40 velocity=95 time=0
EXTRACT: note_on channel=9 note=51 velocity=63 time=0
EXTRACT: note_on channel=9 note=49 velocity=63 time=0
EXTRACT: note_off channel=13 note=70 velocity=80 time=0.2142855
EXTRACT: note_on channel=13 note=70 velocity=95 time=0
EXTRACT: note_off channel=15 note=70 velocity=80 time=0
EXTRACT: note_on channel=15 note=70 velocity=95 time=0
EXTRACT: note_off channel=2 note=39 velocity=80 time=0
EXTRACT: note_on channel=2 note=39 velocity=95 time=0
EXTRACT: note_off channel=9 note=40 velocity=80 time=0
EXTRACT: note_off channel=9 note=51 velocity=80 time=0
EXTRACT: note_off channel=9 note=49 velocity=80 time=0
EXTRACT: note_on channel=9 note=51 velocity=63 time=0
EXTRACT: note_off channel=13 note=70 velocity=80 time=0.2142855
EXTRACT: note_on channel=13 note=70 velocity=95 time=0
EXTRACT: note_off channel=15 note=70 velocity=80 time=0
EXTRACT: note_on channel=15 note=70 velocity=95 time=0
EXTRACT: note_off channel=2 note=39 velocity=80 time=0
EXTRACT: note_on channel=2 note=39 velocity=95 time=0
EXTRACT: note_off channel=9 note=51 velocity=80 time=0
EXTRACT: note_on channel=9 note=51 velocity=63 time=0
EXTRACT: note_off channel=13 note=70 velocity=80 time=0.2142855
EXTRACT: note_on channel=14 note=70 velocity=95 time=0
EXTRACT: note_off channel=15 note=70 velocity=80 time=0
EXTRACT: note_on channel=15 note=70 velocity=95 time=0
EXTRACT: note_off channel=2 note=39 velocity=80 time=0
EXTRACT: note_on channel=2 note=39 velocity=95 time=0
EXTRACT: note_off channel=9 note=51 velocity=80 time=0
EXTRACT: note_on channel=9 note=51 velocity=63 time=0
EXTRACT: pitchwheel channel=14 pitch=-640 time=0.10714275
EXTRACT: pitchwheel channel=15 pitch=-640 time=0
EXTRACT: pitchwheel channel=14 pitch=-1408 time=0.017857125
EXTRACT: pitchwheel channel=15 pitch=-1408 time=0
EXTRACT: pitchwheel channel=14 pitch=-2048 time=0.017857125
EXTRACT: pitchwheel channel=15 pitch=-2048 time=0
EXTRACT: pitchwheel channel=14 pitch=-2688 time=0.017857125
EXTRACT: pitchwheel channel=15 pitch=-2688 time=0
EXTRACT: pitchwheel channel=14 pitch=-3456 time=0.017857125
EXTRACT: pitchwheel channel=15 pitch=-3456 time=0
EXTRACT: pitchwheel channel=14 pitch=-4096 time=0.017857125
EXTRACT: pitchwheel channel=15 pitch=-4096 time=0
EXTRACT: note_off channel=0 note=67 velocity=80 time=0.017857125
EXTRACT: note_off channel=0 note=63 velocity=80 time=0
EXTRACT: note_off channel=0 note=58 velocity=80 time=0
EXTRACT: note_off channel=0 note=55 velocity=80 time=0
EXTRACT: note_off channel=0 note=51 velocity=80 time=0
EXTRACT: note_on channel=0 note=70 velocity=95 time=0
EXTRACT: note_on channel=0 note=62 velocity=95 time=0
EXTRACT: note_on channel=0 note=58 velocity=95 time=0
EXTRACT: note_on channel=0 note=53 velocity=95 time=0
EXTRACT: note_on channel=0 note=50 velocity=95 time=0
EXTRACT: note_on channel=0 note=46 velocity=95 time=0
EXTRACT: note_off channel=8 note=67 velocity=80 time=0
EXTRACT: note_off channel=8 note=63 velocity=80 time=0
EXTRACT: note_off channel=8 note=58 velocity=80 time=0
EXTRACT: note_off channel=8 note=55 velocity=80 time=0
EXTRACT: note_off channel=8 note=51 velocity=80 time=0
EXTRACT: note_on channel=8 note=70 velocity=95 time=0
EXTRACT: note_on channel=8 note=62 velocity=95 time=0
EXTRACT: note_on channel=8 note=58 velocity=95 time=0
EXTRACT: note_on channel=8 note=53 velocity=95 time=0
EXTRACT: note_on channel=8 note=50 velocity=95 time=0
EXTRACT: note_on channel=8 note=46 velocity=95 time=0
EXTRACT: note_off channel=14 note=70 velocity=80 time=0
EXTRACT: pitchwheel channel=14 pitch=0 time=0
EXTRACT: note_on channel=13 note=63 velocity=86 time=0
EXTRACT: note_off channel=15 note=70 velocity=80 time=0
EXTRACT: pitchwheel channel=15 pitch=0 time=0
EXTRACT: note_on channel=15 note=63 velocity=86 time=0
EXTRACT: note_off channel=2 note=39 velocity=80 time=0
EXTRACT: note_on channel=2 note=46 velocity=95 time=0
EXTRACT: note_off channel=9 note=51 velocity=80 time=0
EXTRACT: note_on channel=9 note=40 velocity=95 time=0
EXTRACT: note_on channel=9 note=51 velocity=63 time=0
EXTRACT: note_on channel=9 note=49 velocity=63 time=0
EXTRACT: note_off channel=13 note=63 velocity=80 time=0.2142855
EXTRACT: note_on channel=13 note=63 velocity=95 time=0
EXTRACT: note_off channel=15 note=63 velocity=80 time=0
EXTRACT: note_on channel=15 note=63 velocity=95 time=0
EXTRACT: note_off channel=2 note=46 velocity=80 time=0
EXTRACT: note_on channel=2 note=46 velocity=95 time=0
EXTRACT: note_off channel=9 note=40 velocity=80 time=0
EXTRACT: note_off channel=9 note=51 velocity=80 time=0
EXTRACT: note_off channel=9 note=49 velocity=80 time=0
EXTRACT: note_on channel=9 note=51 velocity=63 time=0
EXTRACT: note_off channel=13 note=63 velocity=80 time=0.2142855
EXTRACT: note_on channel=14 note=63 velocity=95 time=0
EXTRACT: note_off channel=15 note=63 velocity=80 time=0
EXTRACT: note_on channel=15 note=63 velocity=95 time=0
EXTRACT: note_off channel=2 note=46 velocity=80 time=0
EXTRACT: note_on channel=2 note=46 velocity=95 time=0
EXTRACT: note_off channel=9 note=51 velocity=80 time=0
EXTRACT: note_on channel=9 note=51 velocity=63 time=0
EXTRACT: pitchwheel channel=14 pitch=-640 time=0.1714284
EXTRACT: pitchwheel channel=15 pitch=-640 time=0
EXTRACT: note_off channel=14 note=63 velocity=80 time=0.0428571
EXTRACT: pitchwheel channel=14 pitch=0 time=0
EXTRACT: note_on channel=13 note=62 velocity=86 time=0
EXTRACT: note_off channel=15 note=63 velocity=80 time=0
EXTRACT: pitchwheel channel=15 pitch=0 time=0
EXTRACT: note_on channel=15 note=62 velocity=86 time=0
EXTRACT: note_off channel=2 note=46 velocity=80 time=0
EXTRACT: note_on channel=2 note=46 velocity=95 time=0
EXTRACT: note_off channel=9 note=51 velocity=80 time=0
EXTRACT: note_on channel=9 note=40 velocity=95 time=0
EXTRACT: note_on channel=9 note=51 velocity=63 time=0
EXTRACT: note_on channel=9 note=49 velocity=63 time=0
EXTRACT: note_off channel=13 note=62 velocity=80 time=0.2142855
EXTRACT: note_on channel=13 note=62 velocity=95 time=0
EXTRACT: note_off channel=15 note=62 velocity=80 time=0
EXTRACT: note_on channel=15 note=62 velocity=95 time=0
EXTRACT: note_off channel=2 note=46 velocity=80 time=0
EXTRACT: note_on channel=2 note=46 velocity=95 time=0
EXTRACT: note_off channel=9 note=40 velocity=80 time=0
EXTRACT: note_off channel=9 note=51 velocity=80 time=0
EXTRACT: note_off channel=9 note=49 velocity=80 time=0
EXTRACT: note_on channel=9 note=40 velocity=95 time=0
EXTRACT: note_on channel=9 note=51 velocity=63 time=0
EXTRACT: note_on channel=9 note=49 velocity=63 time=0
EXTRACT: note_off channel=13 note=62 velocity=80 time=0.2142855
EXTRACT: note_on channel=13 note=62 velocity=95 time=0
EXTRACT: note_off channel=15 note=62 velocity=80 time=0
EXTRACT: note_on channel=15 note=62 velocity=95 time=0
EXTRACT: note_off channel=2 note=46 velocity=80 time=0
EXTRACT: note_on channel=2 note=46 velocity=95 time=0
EXTRACT: note_off channel=9 note=40 velocity=80 time=0
EXTRACT: note_off channel=9 note=51 velocity=80 time=0
EXTRACT: note_off channel=9 note=49 velocity=80 time=0
EXTRACT: note_on channel=9 note=51 velocity=63 time=0
EXTRACT: note_off channel=13 note=62 velocity=80 time=0.2142855
EXTRACT: note_on channel=13 note=62 velocity=95 time=0
EXTRACT: note_off channel=15 note=62 velocity=80 time=0
EXTRACT: note_on channel=15 note=62 velocity=95 time=0
EXTRACT: note_off channel=2 note=46 velocity=80 time=0
EXTRACT: note_on channel=2 note=46 velocity=95 time=0
EXTRACT: note_off channel=9 note=51 velocity=80 time=0
EXTRACT: note_on channel=9 note=40 velocity=95 time=0
EXTRACT: note_on channel=9 note=51 velocity=63 time=0
EXTRACT: note_on channel=9 note=49 velocity=63 time=0
EXTRACT: note_off channel=13 note=62 velocity=80 time=0.2142855
EXTRACT: note_on channel=13 note=62 velocity=95 time=0
EXTRACT: note_off channel=15 note=62 velocity=80 time=0
EXTRACT: note_on channel=15 note=62 velocity=95 time=0
EXTRACT: note_off channel=2 note=46 velocity=80 time=0
EXTRACT: note_on channel=2 note=46 velocity=95 time=0
EXTRACT: note_off channel=9 note=40 velocity=80 time=0
EXTRACT: note_off channel=9 note=51 velocity=80 time=0
EXTRACT: note_off channel=9 note=49 velocity=80 time=0
EXTRACT: note_on channel=9 note=51 velocity=63 time=0
EXTRACT: note_off channel=13 note=62 velocity=80 time=0.2142855
EXTRACT: note_on channel=13 note=62 velocity=95 time=0
EXTRACT: note_off channel=15 note=62 velocity=80 time=0
EXTRACT: note_on channel=15 note=62 velocity=95 time=0
EXTRACT: note_off channel=2 note=46 velocity=80 time=0
EXTRACT: note_on channel=2 note=46 velocity=95 time=0
EXTRACT: note_off channel=9 note=51 velocity=80 time=0
EXTRACT: note_on channel=9 note=51 velocity=63 time=0
EXTRACT: note_off channel=13 note=62 velocity=80 time=0.2142855
EXTRACT: note_on channel=13 note=62 velocity=95 time=0
EXTRACT: note_off channel=15 note=62 velocity=80 time=0
EXTRACT: note_on channel=15 note=62 velocity=95 time=0
EXTRACT: note_off channel=2 note=46 velocity=80 time=0
EXTRACT: note_on channel=2 note=46 velocity=95 time=0
EXTRACT: note_off channel=9 note=51 velocity=80 time=0
EXTRACT: note_on channel=9 note=40 velocity=95 time=0
EXTRACT: note_on channel=9 note=51 velocity=63 time=0
EXTRACT: note_on channel=9 note=49 velocity=63 time=0
EXTRACT: note_off channel=13 note=62 velocity=80 time=0.2142855
EXTRACT: note_on channel=13 note=62 velocity=95 time=0
EXTRACT: note_off channel=15 note=62 velocity=80 time=0
EXTRACT: note_on channel=15 note=62 velocity=95 time=0
EXTRACT: note_off channel=2 note=46 velocity=80 time=0
EXTRACT: note_on channel=2 note=46 velocity=95 time=0
EXTRACT: note_off channel=9 note=40 velocity=80 time=0
EXTRACT: note_off channel=9 note=51 velocity=80 time=0
EXTRACT: note_off channel=9 note=49 velocity=80 time=0
EXTRACT: note_on channel=9 note=51 velocity=63 time=0
EXTRACT: note_off channel=13 note=62 velocity=80 time=0.2142855
EXTRACT: note_on channel=13 note=62 velocity=95 time=0
EXTRACT: note_off channel=15 note=62 velocity=80 time=0
EXTRACT: note_on channel=15 note=62 velocity=95 time=0
EXTRACT: note_off channel=2 note=46 velocity=80 time=0
EXTRACT: note_on channel=2 note=46 velocity=95 time=0
EXTRACT: note_off channel=9 note=51 velocity=80 time=0
EXTRACT: note_on channel=9 note=40 velocity=95 time=0
EXTRACT: note_on channel=9 note=51 velocity=63 time=0
EXTRACT: note_on channel=9 note=49 velocity=63 time=0
EXTRACT: note_off channel=13 note=62 velocity=80 time=0.2142855
EXTRACT: note_on channel=13 note=62 velocity=95 time=0
EXTRACT: note_off channel=15 note=62 velocity=80 time=0
EXTRACT: note_on channel=15 note=62 velocity=95 time=0
EXTRACT: note_off channel=2 note=46 velocity=80 time=0
EXTRACT: note_on channel=2 note=46 velocity=95 time=0
EXTRACT: note_off channel=9 note=40 velocity=80 time=0
EXTRACT: note_off channel=9 note=51 velocity=80 time=0
EXTRACT: note_off channel=9 note=49 velocity=80 time=0
EXTRACT: note_on channel=9 note=40 velocity=95 time=0
EXTRACT: note_on channel=9 note=51 velocity=63 time=0
EXTRACT: note_on channel=9 note=49 velocity=63 time=0
EXTRACT: note_off channel=13 note=62 velocity=80 time=0.2142855
EXTRACT: note_on channel=13 note=62 velocity=95 time=0
EXTRACT: note_off channel=15 note=62 velocity=80 time=0
EXTRACT: note_on channel=15 note=62 velocity=95 time=0
EXTRACT: note_off channel=2 note=46 velocity=80 time=0
EXTRACT: note_on channel=2 note=46 velocity=95 time=0
EXTRACT: note_off channel=9 note=40 velocity=80 time=0
EXTRACT: note_off channel=9 note=51 velocity=80 time=0
EXTRACT: note_off channel=9 note=49 velocity=80 time=0
EXTRACT: note_on channel=9 note=51 velocity=63 time=0
EXTRACT: note_off channel=13 note=62 velocity=80 time=0.2142855
EXTRACT: note_on channel=13 note=62 velocity=95 time=0
EXTRACT: note_off channel=15 note=62 velocity=80 time=0
EXTRACT: note_on channel=15 note=62 velocity=95 time=0
EXTRACT: note_off channel=2 note=46 velocity=80 time=0
EXTRACT: note_on channel=2 note=46 velocity=95 time=0
EXTRACT: note_off channel=9 note=51 velocity=80 time=0
EXTRACT: note_on channel=9 note=45 velocity=95 time=0
EXTRACT: note_on channel=9 note=51 velocity=63 time=0
EXTRACT: note_off channel=9 note=45 velocity=80 time=0.10714275
EXTRACT: note_off channel=9 note=51 velocity=80 time=0
EXTRACT: note_on channel=9 note=45 velocity=95 time=0
EXTRACT: note_off channel=13 note=62 velocity=80 time=0.10714275
EXTRACT: note_on channel=14 note=62 velocity=95 time=0
EXTRACT: note_off channel=15 note=62 velocity=80 time=0
EXTRACT: note_on channel=15 note=62 velocity=95 time=0
EXTRACT: note_off channel=2 note=46 velocity=80 time=0
EXTRACT: note_on channel=2 note=46 velocity=95 time=0
EXTRACT: note_off channel=9 note=45 velocity=80 time=0
EXTRACT: note_on channel=9 note=43 velocity=95 time=0
EXTRACT: note_on channel=9 note=51 velocity=63 time=0
EXTRACT: note_off channel=9 note=43 velocity=80 time=0.10714275
EXTRACT: note_off channel=9 note=51 velocity=80 time=0
EXTRACT: note_on channel=9 note=43 velocity=95 time=0
EXTRACT: pitchwheel channel=14 pitch=640 time=0.06428565
EXTRACT: pitchwheel channel=15 pitch=640 time=0
EXTRACT: note_off channel=0 note=70 velocity=80 time=0.0428571
EXTRACT: note_off channel=0 note=62 velocity=80 time=0
EXTRACT: note_off channel=0 note=58 velocity=80 time=0
EXTRACT: note_off channel=0 note=53 velocity=80 time=0
EXTRACT: note_off channel=0 note=50 velocity=80 time=0
EXTRACT: note_off channel=0 note=46 velocity=80 time=0
EXTRACT: note_on channel=0 note=67 velocity=95 time=0
EXTRACT: note_on channel=0 note=63 velocity=95 time=0
EXTRACT: note_on channel=0 note=58 velocity=95 time=0
EXTRACT: note_on channel=0 note=55 velocity=95 time=0
EXTRACT: note_on channel=0 note=51 velocity=95 time=0
EXTRACT: program_change channel=4 program=52 time=0
EXTRACT: program_change channel=5 program=52 time=0
EXTRACT: control_change channel=4 control=7 value=96 time=0
EXTRACT: control_change channel=5 control=7 value=96 time=0
EXTRACT: control_change channel=4 control=10 value=0 time=0
EXTRACT: control_change channel=5 control=10 value=0 time=0
EXTRACT: note_off channel=8 note=70 velocity=80 time=0
EXTRACT: note_off channel=8 note=62 velocity=80 time=0
EXTRACT: note_off channel=8 note=58 velocity=80 time=0
EXTRACT: note_off channel=8 note=53 velocity=80 time=0
EXTRACT: note_off channel=8 note=50 velocity=80 time=0
EXTRACT: note_off channel=8 note=46 velocity=80 time=0
EXTRACT: note_on channel=8 note=67 velocity=95 time=0
EXTRACT: note_on channel=8 note=63 velocity=95 time=0
EXTRACT: note_on channel=8 note=58 velocity=95 time=0
EXTRACT: note_on channel=8 note=55 velocity=95 time=0
EXTRACT: note_on channel=8 note=51 velocity=95 time=0
EXTRACT: program_change channel=11 program=91 time=0
EXTRACT: program_change channel=12 program=91 time=0
EXTRACT: control_change channel=11 control=7 value=96 time=0
EXTRACT: control_change channel=12 control=7 value=96 time=0
EXTRACT: control_change channel=11 control=10 value=127 time=0
EXTRACT: control_change channel=12 control=10 value=127 time=0
EXTRACT: note_off channel=14 note=62 velocity=80 time=0
EXTRACT: pitchwheel channel=14 pitch=0 time=0
EXTRACT: note_on channel=13 note=63 velocity=86 time=0
EXTRACT: note_off channel=15 note=62 velocity=80 time=0
EXTRACT: pitchwheel channel=15 pitch=0 time=0
EXTRACT: note_on channel=15 note=63 velocity=86 time=0
EXTRACT: note_off channel=2 note=46 velocity=80 time=0
EXTRACT: note_on channel=2 note=39 velocity=95 time=0
EXTRACT: note_off channel=9 note=43 velocity=80 time=0
EXTRACT: note_on channel=9 note=40 velocity=95 time=0
EXTRACT: note_on channel=9 note=51 velocity=63 time=0
EXTRACT: note_on channel=9 note=57 velocity=95 time=0
EXTRACT: note_off channel=13 note=63 velocity=80 time=0.2142855
EXTRACT: note_on channel=13 note=63 velocity=95 time=0
EXTRACT: note_off channel=15 note=63 velocity=80 time=0
EXTRACT: note_on channel=15 note=63 velocity=95 time=0
EXTRACT: note_off channel=2 note=39 velocity=80 time=0
EXTRACT: note_on channel=2 note=39 velocity=95 time=0
EXTRACT: note_off channel=9 note=40 velocity=80 time=0
EXTRACT: note_off channel=9 note=51 velocity=80 time=0
EXTRACT: note_off channel=9 note=57 velocity=80 time=0
EXTRACT: note_on channel=9 note=51 velocity=63 time=0
EXTRACT: note_off channel=13 note=63 velocity=80 time=0.2142855
EXTRACT: note_on channel=13 note=63 velocity=95 time=0
EXTRACT: note_off channel=15 note=63 velocity=80 time=0
EXTRACT: note_on channel=15 note=63 velocity=95 time=0
EXTRACT: note_off channel=2 note=39 velocity=80 time=0
EXTRACT: note_on channel=2 note=39 velocity=95 time=0
EXTRACT: note_off channel=9 note=51 velocity=80 time=0
EXTRACT: note_on channel=9 note=51 velocity=63 time=0
EXTRACT: note_off channel=13 note=63 velocity=80 time=0.2142855
EXTRACT: note_on channel=13 note=63 velocity=95 time=0
EXTRACT: note_off channel=15 note=63 velocity=80 time=0
EXTRACT: note_on channel=15 note=63 velocity=95 time=0
EXTRACT: note_off channel=2 note=39 velocity=80 time=0
EXTRACT: note_on channel=2 note=39 velocity=95 time=0
EXTRACT: note_off channel=9 note=51 velocity=80 time=0
EXTRACT: note_on channel=9 note=40 velocity=95 time=0
EXTRACT: note_on channel=9 note=51 velocity=63 time=0
EXTRACT: note_on channel=9 note=49 velocity=63 time=0
EXTRACT: note_off channel=13 note=63 velocity=80 time=0.2142855
EXTRACT: note_on channel=13 note=63 velocity=95 time=0
EXTRACT: note_off channel=15 note=63 velocity=80 time=0
EXTRACT: note_on channel=15 note=63 velocity=95 time=0
EXTRACT: note_off channel=2 note=39 velocity=80 time=0
EXTRACT: note_on channel=2 note=39 velocity=95 time=0
EXTRACT: note_off channel=9 note=40 velocity=80 time=0
EXTRACT: note_off channel=9 note=51 velocity=80 time=0
EXTRACT: note_off channel=9 note=49 velocity=80 time=0
EXTRACT: note_on channel=9 note=40 velocity=95 time=0
EXTRACT: note_on channel=9 note=51 velocity=63 time=0
EXTRACT: note_on channel=9 note=49 velocity=63 time=0
EXTRACT: note_off channel=13 note=63 velocity=80 time=0.2142855
EXTRACT: note_on channel=13 note=63 velocity=95 time=0
EXTRACT: note_off channel=15 note=63 velocity=80 time=0
EXTRACT: note_on channel=15 note=63 velocity=95 time=0
EXTRACT: note_off channel=2 note=39 velocity=80 time=0
EXTRACT: note_on channel=2 note=39 velocity=95 time=0
EXTRACT: note_off channel=9 note=40 velocity=80 time=0
EXTRACT: note_off channel=9 note=51 velocity=80 time=0
EXTRACT: note_off channel=9 note=49 velocity=80 time=0
EXTRACT: note_on channel=9 note=51 velocity=63 time=0
EXTRACT: note_off channel=13 note=63 velocity=80 time=0.2142855
EXTRACT: note_on channel=13 note=63 velocity=95 time=0
EXTRACT: note_off channel=15 note=63 velocity=80 time=0
EXTRACT: note_on channel=15 note=63 velocity=95 time=0
EXTRACT: note_off channel=2 note=39 velocity=80 time=0
EXTRACT: note_on channel=2 note=39 velocity=95 time=0
EXTRACT: note_off channel=9 note=51 velocity=80 time=0
EXTRACT: note_on channel=9 note=40 velocity=95 time=0
EXTRACT: note_on channel=9 note=51 velocity=63 time=0
EXTRACT: note_on channel=9 note=49 velocity=63 time=0
EXTRACT: note_off channel=13 note=63 velocity=80 time=0.2142855
EXTRACT: note_on channel=13 note=63 velocity=95 time=0
EXTRACT: note_off channel=15 note=63 velocity=80 time=0
EXTRACT: note_on channel=15 note=63 velocity=95 time=0
EXTRACT: note_off channel=2 note=39 velocity=80 time=0
EXTRACT: note_on channel=2 note=39 velocity=95 time=0
EXTRACT: note_off channel=9 note=40 velocity=80 time=0
EXTRACT: note_off channel=9 note=51 velocity=80 time=0
EXTRACT: note_off channel=9 note=49 velocity=80 time=0
EXTRACT: note_on channel=9 note=51 velocity=63 time=0
EXTRACT: note_on channel=6 note=75 velocity=95 time=0.2142855
EXTRACT: note_on channel=4 note=63 velocity=95 time=0
EXTRACT: note_on channel=11 note=63 velocity=95 time=0
EXTRACT: note_off channel=13 note=63 velocity=80 time=0
EXTRACT: note_on channel=13 note=63 velocity=95 time=0
EXTRACT: note_off channel=15 note=63 velocity=80 time=0
EXTRACT: note_on channel=15 note=63 velocity=95 time=0
EXTRACT: note_off channel=2 note=39 velocity=80 time=0
EXTRACT: note_on channel=2 note=39 velocity=95 time=0
EXTRACT: note_off channel=9 note=51 velocity=80 time=0
EXTRACT: note_on channel=9 note=51 velocity=63 time=0
EXTRACT: note_off channel=13 note=63 velocity=80 time=0.2142855
EXTRACT: note_on channel=13 note=63 velocity=95 time=0
EXTRACT: note_off channel=15 note=63 velocity=80 time=0
EXTRACT: note_on channel=15 note=63 velocity=95 time=0
EXTRACT: note_off channel=2 note=39 velocity=80 time=0
EXTRACT: note_on channel=2 note=39 velocity=95 time=0
EXTRACT: note_off channel=9 note=51 velocity=80 time=0
EXTRACT: note_on channel=9 note=40 velocity=95 time=0
EXTRACT: note_on channel=9 note=51 velocity=63 time=0
EXTRACT: note_on channel=9 note=49 velocity=63 time=0
EXTRACT: note_off channel=13 note=63 velocity=80 time=0.2142855
EXTRACT: note_on channel=13 note=63 velocity=95 time=0
EXTRACT: note_off channel=15 note=63 velocity=80 time=0
EXTRACT: note_on channel=15 note=63 velocity=95 time=0
EXTRACT: note_off channel=2 note=39 velocity=80 time=0
EXTRACT: note_on channel=2 note=39 velocity=95 time=0
EXTRACT: note_off channel=9 note=40 velocity=80 time=0
EXTRACT: note_off channel=9 note=51 velocity=80 time=0
EXTRACT: note_off channel=9 note=49 velocity=80 time=0
EXTRACT: note_on channel=9 note=51 velocity=63 time=0
EXTRACT: note_off channel=6 note=75 velocity=80 time=0.2142855
EXTRACT: note_on channel=6 note=79 velocity=95 time=0
EXTRACT: note_off channel=4 note=63 velocity=80 time=0
EXTRACT: note_on channel=4 note=67 velocity=95 time=0
EXTRACT: note_off channel=11 note=63 velocity=80 time=0
EXTRACT: note_on channel=11 note=67 velocity=95 time=0
EXTRACT: note_off channel=13 note=63 velocity=80 time=0
EXTRACT: note_on channel=14 note=63 velocity=95 time=0
EXTRACT: note_off channel=15 note=63 velocity=80 time=0
EXTRACT: note_on channel=15 note=63 velocity=95 time=0
EXTRACT: note_off channel=2 note=39 velocity=80 time=0
EXTRACT: note_on channel=2 note=39 velocity=95 time=0
EXTRACT: note_off channel=9 note=51 velocity=80 time=0
EXTRACT: note_on channel=9 note=40 velocity=95 time=0
EXTRACT: note_on channel=9 note=51 velocity=63 time=0
EXTRACT: note_on channel=9 note=49 velocity=63 time=0
EXTRACT: pitchwheel channel=14 pitch=640 time=0.10714275
EXTRACT: pitchwheel channel=15 pitch=640 time=0
EXTRACT: pitchwheel channel=14 pitch=1408 time=0.017857125
EXTRACT: pitchwheel channel=15 pitch=1408 time=0
EXTRACT: pitchwheel channel=14 pitch=2048 time=0.017857125
EXTRACT: pitchwheel channel=15 pitch=2048 time=0
EXTRACT: pitchwheel channel=14 pitch=2688 time=0.017857125
EXTRACT: pitchwheel channel=15 pitch=2688 time=0
EXTRACT: pitchwheel channel=14 pitch=3456 time=0.017857125
EXTRACT: pitchwheel channel=15 pitch=3456 time=0
EXTRACT: pitchwheel channel=14 pitch=4096 time=0.017857125
EXTRACT: pitchwheel channel=15 pitch=4096 time=0
EXTRACT: note_off channel=14 note=63 velocity=80 time=0.017857125
EXTRACT: pitchwheel channel=14 pitch=0 time=0
EXTRACT: note_on channel=13 note=70 velocity=86 time=0
EXTRACT: note_off channel=15 note=63 velocity=80 time=0
EXTRACT: pitchwheel channel=15 pitch=0 time=0
EXTRACT: note_on channel=15 note=70 velocity=86 time=0
EXTRACT: note_off channel=2 note=39 velocity=80 time=0
EXTRACT: note_on channel=2 note=39 velocity=95 time=0
EXTRACT: note_off channel=9 note=40 velocity=80 time=0
EXTRACT: note_off channel=9 note=51 velocity=80 time=0
EXTRACT: note_off channel=9 note=49 velocity=80 time=0
EXTRACT: note_on channel=9 note=40 velocity=95 time=0
EXTRACT: note_on channel=9 note=51 velocity=63 time=0
EXTRACT: note_on channel=9 note=49 velocity=63 time=0
EXTRACT: note_off channel=13 note=70 velocity=80 time=0.2142855
EXTRACT: note_on channel=13 note=70 velocity=95 time=0
EXTRACT: note_off channel=15 note=70 velocity=80 time=0
EXTRACT: note_on channel=15 note=70 velocity=95 time=0
EXTRACT: note_off channel=2 note=39 velocity=80 time=0
EXTRACT: note_on channel=2 note=39 velocity=95 time=0
EXTRACT: note_off channel=9 note=40 velocity=80 time=0
EXTRACT: note_off channel=9 note=51 velocity=80 time=0
EXTRACT: note_off channel=9 note=49 velocity=80 time=0
EXTRACT: note_on channel=9 note=51 velocity=63 time=0
EXTRACT: note_off channel=13 note=70 velocity=80 time=0.2142855
EXTRACT: note_on channel=13 note=70 velocity=95 time=0
EXTRACT: note_off channel=15 note=70 velocity=80 time=0
EXTRACT: note_on channel=15 note=70 velocity=95 time=0
EXTRACT: note_off channel=2 note=39 velocity=80 time=0
EXTRACT: note_on channel=2 note=39 velocity=95 time=0
EXTRACT: note_off channel=9 note=51 velocity=80 time=0
EXTRACT: note_on channel=9 note=51 velocity=63 time=0
EXTRACT: note_off channel=13 note=70 velocity=80 time=0.2142855
EXTRACT: note_on channel=14 note=70 velocity=95 time=0
EXTRACT: note_off channel=15 note=70 velocity=80 time=0
EXTRACT: note_on channel=15 note=70 velocity=95 time=0
EXTRACT: note_off channel=2 note=39 velocity=80 time=0
EXTRACT: note_on channel=2 note=39 velocity=95 time=0
EXTRACT: note_off channel=9 note=51 velocity=80 time=0
EXTRACT: note_on channel=9 note=51 velocity=63 time=0
EXTRACT: pitchwheel channel=14 pitch=-640 time=0.10714275
EXTRACT: pitchwheel channel=15 pitch=-640 time=0
EXTRACT: pitchwheel channel=14 pitch=-1408 time=0.017857125
EXTRACT: pitchwheel channel=15 pitch=-1408 time=0
EXTRACT: pitchwheel channel=14 pitch=-2048 time=0.017857125
EXTRACT: pitchwheel channel=15 pitch=-2048 time=0
EXTRACT: pitchwheel channel=14 pitch=-2688 time=0.017857125
EXTRACT: pitchwheel channel=15 pitch=-2688 time=0
EXTRACT: pitchwheel channel=14 pitch=-3456 time=0.017857125
EXTRACT: pitchwheel channel=15 pitch=-3456 time=0
EXTRACT: pitchwheel channel=14 pitch=-4096 time=0.017857125
EXTRACT: pitchwheel channel=15 pitch=-4096 time=0
EXTRACT: note_off channel=6 note=79 velocity=80 time=0.017857125
EXTRACT: note_off channel=0 note=67 velocity=80 time=0
EXTRACT: note_off channel=0 note=63 velocity=80 time=0
EXTRACT: note_off channel=0 note=58 velocity=80 time=0
EXTRACT: note_off channel=0 note=55 velocity=80 time=0
EXTRACT: note_off channel=0 note=51 velocity=80 time=0
EXTRACT: note_on channel=0 note=67 velocity=95 time=0
EXTRACT: note_on channel=0 note=63 velocity=95 time=0
EXTRACT: note_on channel=0 note=60 velocity=95 time=0
EXTRACT: note_on channel=0 note=56 velocity=95 time=0
EXTRACT: note_on channel=0 note=51 velocity=95 time=0
EXTRACT: note_off channel=4 note=67 velocity=80 time=0
EXTRACT: note_off channel=8 note=67 velocity=80 time=0
EXTRACT: note_off channel=8 note=63 velocity=80 time=0
EXTRACT: note_off channel=8 note=58 velocity=80 time=0
EXTRACT: note_off channel=8 note=55 velocity=80 time=0
EXTRACT: note_off channel=8 note=51 velocity=80 time=0
EXTRACT: note_on channel=8 note=67 velocity=95 time=0
EXTRACT: note_on channel=8 note=63 velocity=95 time=0
EXTRACT: note_on channel=8 note=60 velocity=95 time=0
EXTRACT: note_on channel=8 note=56 velocity=95 time=0
EXTRACT: note_on channel=8 note=51 velocity=95 time=0
EXTRACT: note_on channel=8 note=44 velocity=95 time=0
EXTRACT: note_off channel=11 note=67 velocity=80 time=0
EXTRACT: note_off channel=14 note=70 velocity=80 time=0
EXTRACT: pitchwheel channel=14 pitch=0 time=0
EXTRACT: note_on channel=13 note=63 velocity=86 time=0
EXTRACT: note_off channel=15 note=70 velocity=80 time=0
EXTRACT: pitchwheel channel=15 pitch=0 time=0
EXTRACT: note_on channel=15 note=63 velocity=86 time=0
EXTRACT: note_off channel=2 note=39 velocity=80 time=0
EXTRACT: note_on channel=2 note=44 velocity=95 time=0
EXTRACT: note_off channel=9 note=51 velocity=80 time=0
EXTRACT: note_on channel=9 note=40 velocity=95 time=0
EXTRACT: note_on channel=9 note=51 velocity=63 time=0
EXTRACT: note_on channel=9 note=49 velocity=63 time=0
EXTRACT: note_off channel=13 note=63 velocity=80 time=0.2142855
EXTRACT: note_on channel=13 note=63 velocity=95 time=0
EXTRACT: note_off channel=15 note=63 velocity=80 time=0
EXTRACT: note_on channel=15 note=63 velocity=95 time=0
EXTRACT: note_off channel=2 note=44 velocity=80 time=0
EXTRACT: note_on channel=2 note=44 velocity=95 time=0
EXTRACT: note_off channel=9 note=40 velocity=80 time=0
EXTRACT: note_off channel=9 note=51 velocity=80 time=0
EXTRACT: note_off channel=9 note=49 velocity=80 time=0
EXTRACT: note_on channel=9 note=51 velocity=63 time=0
EXTRACT: note_off channel=13 note=63 velocity=80 time=0.2142855
EXTRACT: note_on channel=13 note=63 velocity=95 time=0
EXTRACT: note_off channel=15 note=63 velocity=80 time=0
EXTRACT: note_on channel=15 note=63 velocity=95 time=0
EXTRACT: note_off channel=2 note=44 velocity=80 time=0
EXTRACT: note_on channel=2 note=44 velocity=95 time=0
EXTRACT: note_off channel=9 note=51 velocity=80 time=0
EXTRACT: note_on channel=9 note=51 velocity=63 time=0
EXTRACT: note_off channel=13 note=63 velocity=80 time=0.2142855
EXTRACT: note_on channel=13 note=63 velocity=95 time=0
EXTRACT: note_off channel=15 note=63 velocity=80 time=0
EXTRACT: note_on channel=15 note=63 velocity=95 time=0
EXTRACT: note_off channel=2 note=44 velocity=80 time=0
EXTRACT: note_on channel=2 note=44 velocity=95 time=0
EXTRACT: note_off channel=9 note=51 velocity=80 time=0
EXTRACT: note_on channel=9 note=40 velocity=95 time=0
EXTRACT: note_on channel=9 note=51 velocity=63 time=0
EXTRACT: note_on channel=9 note=49 velocity=63 time=0
EXTRACT: note_off channel=13 note=63 velocity=80 time=0.2142855
EXTRACT: note_on channel=13 note=63 velocity=95 time=0
EXTRACT: note_off channel=15 note=63 velocity=80 time=0
EXTRACT: note_on channel=15 note=63 velocity=95 time=0
EXTRACT: note_off channel=2 note=44 velocity=80 time=0
EXTRACT: note_on channel=2 note=44 velocity=95 time=0
EXTRACT: note_off channel=9 note=40 velocity=80 time=0
EXTRACT: note_off channel=9 note=51 velocity=80 time=0
EXTRACT: note_off channel=9 note=49 velocity=80 time=0
EXTRACT: note_on channel=9 note=40 velocity=95 time=0
EXTRACT: note_on channel=9 note=51 velocity=63 time=0
EXTRACT: note_on channel=9 note=49 velocity=63 time=0
EXTRACT: note_on channel=6 note=75 velocity=95 time=0.2142855
EXTRACT: note_on channel=4 note=63 velocity=95 time=0
EXTRACT: note_on channel=11 note=63 velocity=95 time=0
EXTRACT: note_off channel=13 note=63 velocity=80 time=0
EXTRACT: note_on channel=13 note=63 velocity=95 time=0
EXTRACT: note_off channel=15 note=63 velocity=80 time=0
EXTRACT: note_on channel=15 note=63 velocity=95 time=0
EXTRACT: note_off channel=2 note=44 velocity=80 time=0
EXTRACT: note_on channel=2 note=44 velocity=95 time=0
EXTRACT: note_off channel=9 note=40 velocity=80 time=0
EXTRACT: note_off channel=9 note=51 velocity=80 time=0
EXTRACT: note_off channel=9 note=49 velocity=80 time=0
EXTRACT: note_on channel=9 note=51 velocity=63 time=0
EXTRACT: note_off channel=6 note=75 velocity=80 time=0.2142855
EXTRACT: note_on channel=6 note=75 velocity=95 time=0
EXTRACT: note_off channel=4 note=63 velocity=80 time=0
EXTRACT: note_on channel=4 note=63 velocity=95 time=0
EXTRACT: note_off channel=11 note=63 velocity=80 time=0
EXTRACT: note_on channel=11 note=63 velocity=95 time=0
EXTRACT: note_off channel=13 note=63 velocity=80 time=0
EXTRACT: note_on channel=13 note=63 velocity=95 time=0
EXTRACT: note_off channel=15 note=63 velocity=80 time=0
EXTRACT: note_on channel=15 note=63 velocity=95 time=0
EXTRACT: note_off channel=2 note=44 velocity=80 time=0
EXTRACT: note_on channel=2 note=44 velocity=95 time=0
EXTRACT: note_off channel=9 note=51 velocity=80 time=0
EXTRACT: note_on channel=9 note=40 velocity=95 time=0
EXTRACT: note_on channel=9 note=51 velocity=63 time=0
EXTRACT: note_on channel=9 note=49 velocity=63 time=0
EXTRACT: note_off channel=13 note=63 velocity=80 time=0.2142855
EXTRACT: note_on channel=13 note=63 velocity=95 time=0
EXTRACT: note_off channel=15 note=63 velocity=80 time=0
EXTRACT: note_on channel=15 note=63 velocity=95 time=0
EXTRACT: note_off channel=2 note=44 velocity=80 time=0
EXTRACT: note_on channel=2 note=44 velocity=95 time=0
EXTRACT: note_off channel=9 note=40 velocity=80 time=0
EXTRACT: note_off channel=9 note=51 velocity=80 time=0
EXTRACT: note_off channel=9 note=49 velocity=80 time=0
EXTRACT: note_on channel=9 note=51 velocity=63 time=0
EXTRACT: note_off channel=6 note=75 velocity=80 time=0.2142855
EXTRACT: note_on channel=6 note=80 velocity=95 time=0
EXTRACT: note_off channel=4 note=63 velocity=80 time=0
EXTRACT: note_on channel=4 note=68 velocity=95 time=0
EXTRACT: note_off channel=11 note=63 velocity=80 time=0
EXTRACT: note_on channel=11 note=68 velocity=95 time=0
EXTRACT: note_off channel=13 note=63 velocity=80 time=0
EXTRACT: note_on channel=13 note=63 velocity=95 time=0
EXTRACT: note_off channel=15 note=63 velocity=80 time=0
EXTRACT: note_on channel=15 note=63 velocity=95 time=0
EXTRACT: note_off channel=2 note=44 velocity=80 time=0
EXTRACT: note_on channel=2 note=44 velocity=95 time=0
EXTRACT: note_off channel=9 note=51 velocity=80 time=0
EXTRACT: note_on channel=9 note=51 velocity=63 time=0
EXTRACT: note_off channel=13 note=63 velocity=80 time=0.2142855
EXTRACT: note_on channel=13 note=63 velocity=95 time=0
EXTRACT: note_off channel=15 note=63 velocity=80 time=0
EXTRACT: note_on channel=15 note=63 velocity=95 time=0
EXTRACT: note_off channel=2 note=44 velocity=80 time=0
EXTRACT: note_on channel=2 note=44 velocity=95 time=0
EXTRACT: note_off channel=9 note=51 velocity=80 time=0
EXTRACT: note_on channel=9 note=40 velocity=95 time=0
EXTRACT: note_on channel=9 note=51 velocity=63 time=0
EXTRACT: note_on channel=9 note=49 velocity=63 time=0
EXTRACT: note_off channel=13 note=63 velocity=80 time=0.2142855
EXTRACT: note_on channel=13 note=63 velocity=95 time=0
EXTRACT: note_off channel=15 note=63 velocity=80 time=0
EXTRACT: note_on channel=15 note=63 velocity=95 time=0
EXTRACT: note_off channel=2 note=44 velocity=80 time=0
EXTRACT: note_on channel=2 note=44 velocity=95 time=0
EXTRACT: note_off channel=9 note=40 velocity=80 time=0
EXTRACT: note_off channel=9 note=51 velocity=80 time=0
EXTRACT: note_off channel=9 note=49 velocity=80 time=0
EXTRACT: note_on channel=9 note=51 velocity=63 time=0
EXTRACT: note_off channel=6 note=80 velocity=80 time=0.2142855
EXTRACT: note_on channel=6 note=79 velocity=95 time=0
EXTRACT: note_off channel=4 note=68 velocity=80 time=0
EXTRACT: note_on channel=4 note=67 velocity=95 time=0
EXTRACT: note_off channel=11 note=68 velocity=80 time=0
EXTRACT: note_on channel=11 note=67 velocity=95 time=0
EXTRACT: note_off channel=13 note=63 velocity=80 time=0
EXTRACT: note_on channel=14 note=63 velocity=95 time=0
EXTRACT: note_off channel=15 note=63 velocity=80 time=0
EXTRACT: note_on channel=15 note=63 velocity=95 time=0
EXTRACT: note_off channel=2 note=44 velocity=80 time=0
EXTRACT: note_on channel=2 note=44 velocity=95 time=0
EXTRACT: note_off channel=9 note=51 velocity=80 time=0
EXTRACT: note_on channel=9 note=40 velocity=95 time=0
EXTRACT: note_on channel=9 note=51 velocity=63 time=0
EXTRACT: note_on channel=9 note=49 velocity=63 time=0
EXTRACT: pitchwheel channel=14 pitch=640 time=0.10714275
EXTRACT: pitchwheel channel=15 pitch=640 time=0
EXTRACT: pitchwheel channel=14 pitch=1408 time=0.017857125
EXTRACT: pitchwheel channel=15 pitch=1408 time=0
EXTRACT: pitchwheel channel=14 pitch=2048 time=0.017857125
EXTRACT: pitchwheel channel=15 pitch=2048 time=0
EXTRACT: pitchwheel channel=14 pitch=2688 time=0.017857125
EXTRACT: pitchwheel channel=15 pitch=2688 time=0
EXTRACT: pitchwheel channel=14 pitch=3456 time=0.017857125
EXTRACT: pitchwheel channel=15 pitch=3456 time=0
EXTRACT: pitchwheel channel=14 pitch=4096 time=0.017857125
EXTRACT: pitchwheel channel=15 pitch=4096 time=0
EXTRACT: note_off channel=14 note=63 velocity=80 time=0.017857125
EXTRACT: pitchwheel channel=14 pitch=0 time=0
EXTRACT: note_on channel=13 note=70 velocity=86 time=0
EXTRACT: note_off channel=15 note=63 velocity=80 time=0
EXTRACT: pitchwheel channel=15 pitch=0 time=0
EXTRACT: note_on channel=15 note=70 velocity=86 time=0
EXTRACT: note_off channel=2 note=44 velocity=80 time=0
EXTRACT: note_on channel=2 note=44 velocity=95 time=0
EXTRACT: note_off channel=9 note=40 velocity=80 time=0
EXTRACT: note_off channel=9 note=51 velocity=80 time=0
EXTRACT: note_off channel=9 note=49 velocity=80 time=0
EXTRACT: note_on channel=9 note=40 velocity=95 time=0
EXTRACT: note_on channel=9 note=51 velocity=63 time=0
EXTRACT: note_on channel=9 note=49 velocity=63 time=0
EXTRACT: note_off channel=13 note=70 velocity=80 time=0.2142855
EXTRACT: note_on channel=13 note=70 velocity=95 time=0
EXTRACT: note_off channel=15 note=70 velocity=80 time=0
EXTRACT: note_on channel=15 note=70 velocity=95 time=0
EXTRACT: note_off channel=2 note=44 velocity=80 time=0
EXTRACT: note_on channel=2 note=44 velocity=95 time=0
EXTRACT: note_off channel=9 note=40 velocity=80 time=0
EXTRACT: note_off channel=9 note=51 velocity=80 time=0
EXTRACT: note_off channel=9 note=49 velocity=80 time=0
EXTRACT: note_on channel=9 note=51 velocity=63 time=0
EXTRACT: note_off channel=13 note=70 velocity=80 time=0.2142855
EXTRACT: note_on channel=13 note=70 velocity=95 time=0
EXTRACT: note_off channel=15 note=70 velocity=80 time=0
EXTRACT: note_on channel=15 note=70 velocity=95 time=0
EXTRACT: note_off channel=2 note=44 velocity=80 time=0
EXTRACT: note_on channel=2 note=44 velocity=95 time=0
EXTRACT: note_off channel=9 note=51 velocity=80 time=0
EXTRACT: note_on channel=9 note=51 velocity=63 time=0
EXTRACT: note_off channel=13 note=70 velocity=80 time=0.2142855
EXTRACT: note_on channel=14 note=70 velocity=95 time=0
EXTRACT: note_off channel=15 note=70 velocity=80 time=0
EXTRACT: note_on channel=15 note=70 velocity=95 time=0
EXTRACT: note_off channel=2 note=44 velocity=80 time=0
EXTRACT: note_on channel=2 note=44 velocity=95 time=0
EXTRACT: note_off channel=9 note=51 velocity=80 time=0
EXTRACT: note_on channel=9 note=51 velocity=63 time=0
EXTRACT: pitchwheel channel=14 pitch=-640 time=0.10714275
EXTRACT: pitchwheel channel=15 pitch=-640 time=0
EXTRACT: pitchwheel channel=14 pitch=-1408 time=0.017857125
EXTRACT: pitchwheel channel=15 pitch=-1408 time=0
EXTRACT: pitchwheel channel=14 pitch=-2048 time=0.017857125
EXTRACT: pitchwheel channel=15 pitch=-2048 time=0
EXTRACT: pitchwheel channel=14 pitch=-2688 time=0.017857125
EXTRACT: pitchwheel channel=15 pitch=-2688 time=0
EXTRACT: pitchwheel channel=14 pitch=-3456 time=0.017857125
EXTRACT: pitchwheel channel=15 pitch=-3456 time=0
EXTRACT: pitchwheel channel=14 pitch=-4096 time=0.017857125
EXTRACT: pitchwheel channel=15 pitch=-4096 time=0
EXTRACT: note_off channel=6 note=79 velocity=80 time=0.017857125
EXTRACT: note_off channel=0 note=67 velocity=80 time=0
EXTRACT: note_off channel=0 note=63 velocity=80 time=0
EXTRACT: note_off channel=0 note=60 velocity=80 time=0
EXTRACT: note_off channel=0 note=56 velocity=80 time=0
EXTRACT: note_off channel=0 note=51 velocity=80 time=0
EXTRACT: note_on channel=0 note=67 velocity=95 time=0
EXTRACT: note_on channel=0 note=63 velocity=95 time=0
EXTRACT: note_on channel=0 note=58 velocity=95 time=0
EXTRACT: note_on channel=0 note=55 velocity=95 time=0
EXTRACT: note_on channel=0 note=51 velocity=95 time=0
EXTRACT: note_off channel=4 note=67 velocity=80 time=0
EXTRACT: note_off channel=8 note=67 velocity=80 time=0
EXTRACT: note_off channel=8 note=63 velocity=80 time=0
EXTRACT: note_off channel=8 note=60 velocity=80 time=0
EXTRACT: note_off channel=8 note=56 velocity=80 time=0
EXTRACT: note_off channel=8 note=51 velocity=80 time=0
EXTRACT: note_off channel=8 note=44 velocity=80 time=0
EXTRACT: note_on channel=8 note=67 velocity=95 time=0
EXTRACT: note_on channel=8 note=63 velocity=95 time=0
EXTRACT: note_on channel=8 note=58 velocity=95 time=0
EXTRACT: note_on channel=8 note=55 velocity=95 time=0
EXTRACT: note_on channel=8 note=51 velocity=95 time=0
EXTRACT: note_off channel=11 note=67 velocity=80 time=0
EXTRACT: note_off channel=14 note=70 velocity=80 time=0
EXTRACT: pitchwheel channel=14 pitch=0 time=0
EXTRACT: note_on channel=13 note=63 velocity=86 time=0
EXTRACT: note_off channel=15 note=70 velocity=80 time=0
EXTRACT: pitchwheel channel=15 pitch=0 time=0
EXTRACT: note_on channel=15 note=63 velocity=86 time=0
EXTRACT: note_off channel=2 note=44 velocity=80 time=0
EXTRACT: note_on channel=2 note=39 velocity=95 time=0
EXTRACT: note_off channel=9 note=51 velocity=80 time=0
EXTRACT: note_on channel=9 note=40 velocity=95 time=0
EXTRACT: note_on channel=9 note=51 velocity=63 time=0
EXTRACT: note_on channel=9 note=49 velocity=63 time=0
EXTRACT: note_off channel=13 note=63 velocity=80 time=0.2142855
EXTRACT: note_on channel=13 note=63 velocity=95 time=0
EXTRACT: note_off channel=15 note=63 velocity=80 time=0
EXTRACT: note_on channel=15 note=63 velocity=95 time=0
EXTRACT: note_off channel=2 note=39 velocity=80 time=0
EXTRACT: note_on channel=2 note=39 velocity=95 time=0
EXTRACT: note_off channel=9 note=40 velocity=80 time=0
EXTRACT: note_off channel=9 note=51 velocity=80 time=0
EXTRACT: note_off channel=9 note=49 velocity=80 time=0
EXTRACT: note_on channel=9 note=51 velocity=63 time=0
EXTRACT: note_off channel=13 note=63 velocity=80 time=0.2142855
EXTRACT: note_on channel=13 note=63 velocity=95 time=0
EXTRACT: note_off channel=15 note=63 velocity=80 time=0
EXTRACT: note_on channel=15 note=63 velocity=95 time=0
EXTRACT: note_off channel=2 note=39 velocity=80 time=0
EXTRACT: note_on channel=2 note=39 velocity=95 time=0
EXTRACT: note_off channel=9 note=51 velocity=80 time=0
EXTRACT: note_on channel=9 note=51 velocity=63 time=0
EXTRACT: note_off channel=13 note=63 velocity=80 time=0.2142855
EXTRACT: note_on channel=13 note=63 velocity=95 time=0
EXTRACT: note_off channel=15 note=63 velocity=80 time=0
EXTRACT: note_on channel=15 note=63 velocity=95 time=0
EXTRACT: note_off channel=2 note=39 velocity=80 time=0
EXTRACT: note_on channel=2 note=39 velocity=95 time=0
EXTRACT: note_off channel=9 note=51 velocity=80 time=0
EXTRACT: note_on channel=9 note=40 velocity=95 time=0
EXTRACT: note_on channel=9 note=51 velocity=63 time=0
EXTRACT: note_on channel=9 note=49 velocity=63 time=0
EXTRACT: note_on channel=6 note=75 velocity=95 time=0.2142855
EXTRACT: note_on channel=4 note=63 velocity=95 time=0
EXTRACT: note_on channel=11 note=63 velocity=95 time=0
EXTRACT: note_off channel=13 note=63 velocity=80 time=0
EXTRACT: note_on channel=13 note=63 velocity=95 time=0
EXTRACT: note_off channel=15 note=63 velocity=80 time=0
EXTRACT: note_on channel=15 note=63 velocity=95 time=0
EXTRACT: note_off channel=2 note=39 velocity=80 time=0
EXTRACT: note_on channel=2 note=39 velocity=95 time=0
EXTRACT: note_off channel=9 note=40 velocity=80 time=0
EXTRACT: note_off channel=9 note=51 velocity=80 time=0
EXTRACT: note_off channel=9 note=49 velocity=80 time=0
EXTRACT: note_on channel=9 note=40 velocity=95 time=0
EXTRACT: note_on channel=9 note=51 velocity=63 time=0
EXTRACT: note_on channel=9 note=49 velocity=63 time=0
EXTRACT: note_off channel=13 note=63 velocity=80 time=0.2142855
EXTRACT: note_on channel=13 note=63 velocity=95 time=0
EXTRACT: note_off channel=15 note=63 velocity=80 time=0
EXTRACT: note_on channel=15 note=63 velocity=95 time=0
EXTRACT: note_off channel=2 note=39 velocity=80 time=0
EXTRACT: note_on channel=2 note=39 velocity=95 time=0
EXTRACT: note_off channel=9 note=40 velocity=80 time=0
EXTRACT: note_off channel=9 note=51 velocity=80 time=0
EXTRACT: note_off channel=9 note=49 velocity=80 time=0
EXTRACT: note_on channel=9 note=51 velocity=63 time=0
EXTRACT: note_off channel=6 note=75 velocity=80 time=0.2142855
EXTRACT: note_on channel=6 note=75 velocity=95 time=0
EXTRACT: note_off channel=4 note=63 velocity=80 time=0
EXTRACT: note_on channel=4 note=63 velocity=95 time=0
EXTRACT: note_off channel=11 note=63 velocity=80 time=0
EXTRACT: note_on channel=11 note=63 velocity=95 time=0
EXTRACT: note_off channel=13 note=63 velocity=80 time=0
EXTRACT: note_on channel=13 note=63 velocity=95 time=0
EXTRACT: note_off channel=15 note=63 velocity=80 time=0
EXTRACT: note_on channel=15 note=63 velocity=95 time=0
EXTRACT: note_off channel=2 note=39 velocity=80 time=0
EXTRACT: note_on channel=2 note=39 velocity=95 time=0
EXTRACT: note_off channel=9 note=51 velocity=80 time=0
EXTRACT: note_on channel=9 note=40 velocity=95 time=0
EXTRACT: note_on channel=9 note=51 velocity=63 time=0
EXTRACT: note_on channel=9 note=49 velocity=63 time=0
EXTRACT: note_off channel=13 note=63 velocity=80 time=0.2142855
EXTRACT: note_on channel=13 note=63 velocity=95 time=0
EXTRACT: note_off channel=15 note=63 velocity=80 time=0
EXTRACT: note_on channel=15 note=63 velocity=95 time=0
EXTRACT: note_off channel=2 note=39 velocity=80 time=0
EXTRACT: note_on channel=2 note=39 velocity=95 time=0
EXTRACT: note_off channel=9 note=40 velocity=80 time=0
EXTRACT: note_off channel=9 note=51 velocity=80 time=0
EXTRACT: note_off channel=9 note=49 velocity=80 time=0
EXTRACT: note_on channel=9 note=51 velocity=63 time=0
EXTRACT: note_off channel=6 note=75 velocity=80 time=0.2142855
EXTRACT: note_on channel=6 note=75 velocity=95 time=0
EXTRACT: note_off channel=4 note=63 velocity=80 time=0
EXTRACT: note_on channel=4 note=63 velocity=95 time=0
EXTRACT: note_off channel=11 note=63 velocity=80 time=0
EXTRACT: note_on channel=11 note=63 velocity=95 time=0
EXTRACT: note_off channel=13 note=63 velocity=80 time=0
EXTRACT: note_on channel=13 note=63 velocity=95 time=0
EXTRACT: note_off channel=15 note=63 velocity=80 time=0
EXTRACT: note_on channel=15 note=63 velocity=95 time=0
EXTRACT: note_off channel=2 note=39 velocity=80 time=0
EXTRACT: note_on channel=2 note=39 velocity=95 time=0
EXTRACT: note_off channel=9 note=51 velocity=80 time=0
EXTRACT: note_on channel=9 note=51 velocity=63 time=0
EXTRACT: note_off channel=13 note=63 velocity=80 time=0.2142855
EXTRACT: note_on channel=13 note=63 velocity=95 time=0
EXTRACT: note_off channel=15 note=63 velocity=80 time=0
EXTRACT: note_on channel=15 note=63 velocity=95 time=0
EXTRACT: note_off channel=2 note=39 velocity=80 time=0
EXTRACT: note_on channel=2 note=39 velocity=95 time=0
EXTRACT: note_off channel=9 note=51 velocity=80 time=0
EXTRACT: note_on channel=9 note=40 velocity=95 time=0
EXTRACT: note_on channel=9 note=51 velocity=63 time=0
EXTRACT: note_on channel=9 note=49 velocity=63 time=0
EXTRACT: note_off channel=13 note=63 velocity=80 time=0.2142855
EXTRACT: note_on channel=13 note=63 velocity=95 time=0
EXTRACT: note_off channel=15 note=63 velocity=80 time=0
EXTRACT: note_on channel=15 note=63 velocity=95 time=0
EXTRACT: note_off channel=2 note=39 velocity=80 time=0
EXTRACT: note_on channel=2 note=39 velocity=95 time=0
EXTRACT: note_off channel=9 note=40 velocity=80 time=0
EXTRACT: note_off channel=9 note=51 velocity=80 time=0
EXTRACT: note_off channel=9 note=49 velocity=80 time=0
EXTRACT: note_on channel=9 note=51 velocity=63 time=0
EXTRACT: note_off channel=6 note=75 velocity=80 time=0.2142855
EXTRACT: note_on channel=6 note=75 velocity=95 time=0
EXTRACT: note_off channel=4 note=63 velocity=80 time=0
EXTRACT: note_on channel=4 note=63 velocity=95 time=0
EXTRACT: note_off channel=11 note=63 velocity=80 time=0
EXTRACT: note_on channel=11 note=63 velocity=95 time=0
EXTRACT: note_off channel=13 note=63 velocity=80 time=0
EXTRACT: note_on channel=14 note=63 velocity=95 time=0
EXTRACT: note_off channel=15 note=63 velocity=80 time=0
EXTRACT: note_on channel=15 note=63 velocity=95 time=0
EXTRACT: note_off channel=2 note=39 velocity=80 time=0
EXTRACT: note_on channel=2 note=39 velocity=95 time=0
EXTRACT: note_off channel=9 note=51 velocity=80 time=0
EXTRACT: note_on channel=9 note=40 velocity=95 time=0
EXTRACT: note_on channel=9 note=51 velocity=63 time=0
EXTRACT: note_on channel=9 note=49 velocity=63 time=0
EXTRACT: pitchwheel channel=14 pitch=640 time=0.10714275
EXTRACT: pitchwheel channel=15 pitch=640 time=0
EXTRACT: pitchwheel channel=14 pitch=1408 time=0.017857125
EXTRACT: pitchwheel channel=15 pitch=1408 time=0
EXTRACT: pitchwheel channel=14 pitch=2048 time=0.017857125
EXTRACT: pitchwheel channel=15 pitch=2048 time=0
EXTRACT: pitchwheel channel=14 pitch=2688 time=0.017857125
EXTRACT: pitchwheel channel=15 pitch=2688 time=0
EXTRACT: pitchwheel channel=14 pitch=3456 time=0.017857125
EXTRACT: pitchwheel channel=15 pitch=3456 time=0
EXTRACT: pitchwheel channel=14 pitch=4096 time=0.017857125
EXTRACT: pitchwheel channel=15 pitch=4096 time=0
EXTRACT: note_off channel=14 note=63 velocity=80 time=0.017857125
EXTRACT: pitchwheel channel=14 pitch=0 time=0
EXTRACT: note_on channel=13 note=70 velocity=86 time=0
EXTRACT: note_off channel=15 note=63 velocity=80 time=0
EXTRACT: pitchwheel channel=15 pitch=0 time=0
EXTRACT: note_on channel=15 note=70 velocity=86 time=0
EXTRACT: note_off channel=2 note=39 velocity=80 time=0
EXTRACT: note_on channel=2 note=39 velocity=95 time=0
EXTRACT: note_off channel=9 note=40 velocity=80 time=0
EXTRACT: note_off channel=9 note=51 velocity=80 time=0
EXTRACT: note_off channel=9 note=49 velocity=80 time=0
EXTRACT: note_on channel=9 note=40 velocity=95 time=0
EXTRACT: note_on channel=9 note=51 velocity=63 time=0
EXTRACT: note_on channel=9 note=49 velocity=63 time=0
EXTRACT: note_off channel=6 note=75 velocity=80 time=0.2142855
EXTRACT: note_on channel=6 note=75 velocity=95 time=0
EXTRACT: note_off channel=4 note=63 velocity=80 time=0
EXTRACT: note_on channel=4 note=63 velocity=95 time=0
EXTRACT: note_off channel=11 note=63 velocity=80 time=0
EXTRACT: note_on channel=11 note=63 velocity=95 time=0
EXTRACT: note_off channel=13 note=70 velocity=80 time=0
EXTRACT: note_on channel=13 note=70 velocity=95 time=0
EXTRACT: note_off channel=15 note=70 velocity=80 time=0
EXTRACT: note_on channel=15 note=70 velocity=95 time=0
EXTRACT: note_off channel=2 note=39 velocity=80 time=0
EXTRACT: note_on channel=2 note=39 velocity=95 time=0
EXTRACT: note_off channel=9 note=40 velocity=80 time=0
EXTRACT: note_off channel=9 note=51 velocity=80 time=0
EXTRACT: note_off channel=9 note=49 velocity=80 time=0
EXTRACT: note_on channel=9 note=51 velocity=63 time=0
EXTRACT: note_off channel=13 note=70 velocity=80 time=0.2142855
EXTRACT: note_on channel=13 note=70 velocity=95 time=0
EXTRACT: note_off channel=15 note=70 velocity=80 time=0
EXTRACT: note_on channel=15 note=70 velocity=95 time=0
EXTRACT: note_off channel=2 note=39 velocity=80 time=0
EXTRACT: note_on channel=2 note=39 velocity=95 time=0
EXTRACT: note_off channel=9 note=51 velocity=80 time=0
EXTRACT: note_on channel=9 note=51 velocity=63 time=0
EXTRACT: note_off channel=13 note=70 velocity=80 time=0.2142855
EXTRACT: note_on channel=14 note=70 velocity=95 time=0
EXTRACT: note_off channel=15 note=70 velocity=80 time=0
EXTRACT: note_on channel=15 note=70 velocity=95 time=0
EXTRACT: note_off channel=2 note=39 velocity=80 time=0
EXTRACT: note_on channel=2 note=39 velocity=95 time=0
EXTRACT: note_off channel=9 note=51 velocity=80 time=0
EXTRACT: note_on channel=9 note=51 velocity=63 time=0
EXTRACT: pitchwheel channel=14 pitch=-640 time=0.10714275
EXTRACT: pitchwheel channel=15 pitch=-640 time=0
EXTRACT: pitchwheel channel=14 pitch=-1408 time=0.017857125
EXTRACT: pitchwheel channel=15 pitch=-1408 time=0
EXTRACT: pitchwheel channel=14 pitch=-2048 time=0.017857125
EXTRACT: pitchwheel channel=15 pitch=-2048 time=0
EXTRACT: pitchwheel channel=14 pitch=-2688 time=0.017857125
EXTRACT: pitchwheel channel=15 pitch=-2688 time=0
EXTRACT: pitchwheel channel=14 pitch=-3456 time=0.017857125
EXTRACT: pitchwheel channel=15 pitch=-3456 time=0
EXTRACT: pitchwheel channel=14 pitch=-4096 time=0.017857125
EXTRACT: pitchwheel channel=15 pitch=-4096 time=0
EXTRACT: note_off channel=6 note=75 velocity=80 time=0.017857125
EXTRACT: note_on channel=6 note=74 velocity=95 time=0
EXTRACT: note_off channel=0 note=67 velocity=80 time=0
EXTRACT: note_off channel=0 note=63 velocity=80 time=0
EXTRACT: note_off channel=0 note=58 velocity=80 time=0
EXTRACT: note_off channel=0 note=55 velocity=80 time=0
EXTRACT: note_off channel=0 note=51 velocity=80 time=0
EXTRACT: note_on channel=0 note=70 velocity=95 time=0
EXTRACT: note_on channel=0 note=62 velocity=95 time=0
EXTRACT: note_on channel=0 note=58 velocity=95 time=0
EXTRACT: note_on channel=0 note=53 velocity=95 time=0
EXTRACT: note_on channel=0 note=50 velocity=95 time=0
EXTRACT: note_on channel=0 note=46 velocity=95 time=0
EXTRACT: note_off channel=4 note=63 velocity=80 time=0
EXTRACT: note_on channel=4 note=62 velocity=95 time=0
EXTRACT: note_off channel=8 note=67 velocity=80 time=0
EXTRACT: note_off channel=8 note=63 velocity=80 time=0
EXTRACT: note_off channel=8 note=58 velocity=80 time=0
EXTRACT: note_off channel=8 note=55 velocity=80 time=0
EXTRACT: note_off channel=8 note=51 velocity=80 time=0
EXTRACT: note_on channel=8 note=70 velocity=95 time=0
EXTRACT: note_on channel=8 note=62 velocity=95 time=0
EXTRACT: note_on channel=8 note=58 velocity=95 time=0
EXTRACT: note_on channel=8 note=53 velocity=95 time=0
EXTRACT: note_on channel=8 note=50 velocity=95 time=0
EXTRACT: note_on channel=8 note=46 velocity=95 time=0
EXTRACT: note_off channel=11 note=63 velocity=80 time=0
EXTRACT: note_on channel=11 note=62 velocity=95 time=0
EXTRACT: note_off channel=14 note=70 velocity=80 time=0
EXTRACT: pitchwheel channel=14 pitch=0 time=0
EXTRACT: note_on channel=13 note=63 velocity=86 time=0
EXTRACT: note_off channel=15 note=70 velocity=80 time=0
EXTRACT: pitchwheel channel=15 pitch=0 time=0
EXTRACT: note_on channel=15 note=63 velocity=86 time=0
EXTRACT: note_off channel=2 note=39 velocity=80 time=0
EXTRACT: note_on channel=2 note=34 velocity=95 time=0
EXTRACT: note_off channel=9 note=51 velocity=80 time=0
EXTRACT: note_on channel=9 note=40 velocity=95 time=0
EXTRACT: note_on channel=9 note=51 velocity=63 time=0
EXTRACT: note_on channel=9 note=49 velocity=63 time=0
EXTRACT: note_off channel=13 note=63 velocity=80 time=0.2142855
EXTRACT: note_on channel=13 note=63 velocity=95 time=0
EXTRACT: note_off channel=15 note=63 velocity=80 time=0
EXTRACT: note_on channel=15 note=63 velocity=95 time=0
EXTRACT: note_off channel=2 note=34 velocity=80 time=0
EXTRACT: note_on channel=2 note=34 velocity=95 time=0
EXTRACT: note_off channel=9 note=40 velocity=80 time=0
EXTRACT: note_off channel=9 note=51 velocity=80 time=0
EXTRACT: note_off channel=9 note=49 velocity=80 time=0
EXTRACT: note_on channel=9 note=51 velocity=63 time=0
EXTRACT: note_off channel=13 note=63 velocity=80 time=0.2142855
EXTRACT: note_on channel=14 note=63 velocity=95 time=0
EXTRACT: note_off channel=15 note=63 velocity=80 time=0
EXTRACT: note_on channel=15 note=63 velocity=95 time=0
EXTRACT: note_off channel=2 note=34 velocity=80 time=0
EXTRACT: note_on channel=2 note=34 velocity=95 time=0
EXTRACT: note_off channel=9 note=51 velocity=80 time=0
EXTRACT: note_on channel=9 note=51 velocity=63 time=0
EXTRACT: pitchwheel channel=14 pitch=-640 time=0.1714284
EXTRACT: pitchwheel channel=15 pitch=-640 time=0
EXTRACT: note_off channel=6 note=74 velocity=80 time=0.0428571
EXTRACT: note_on channel=6 note=74 velocity=95 time=0
EXTRACT: note_off channel=4 note=62 velocity=80 time=0
EXTRACT: note_on channel=4 note=62 velocity=95 time=0
EXTRACT: note_off channel=11 note=62 velocity=80 time=0
EXTRACT: note_on channel=11 note=62 velocity=95 time=0
EXTRACT: note_off channel=14 note=63 velocity=80 time=0
EXTRACT: pitchwheel channel=14 pitch=0 time=0
EXTRACT: note_on channel=13 note=62 velocity=86 time=0
EXTRACT: note_off channel=15 note=63 velocity=80 time=0
EXTRACT: pitchwheel channel=15 pitch=0 time=0
EXTRACT: note_on channel=15 note=62 velocity=86 time=0
EXTRACT: note_off channel=2 note=34 velocity=80 time=0
EXTRACT: note_on channel=2 note=34 velocity=95 time=0
EXTRACT: note_off channel=9 note=51 velocity=80 time=0
EXTRACT: note_on channel=9 note=40 velocity=95 time=0
EXTRACT: note_on channel=9 note=51 velocity=63 time=0
EXTRACT: note_on channel=9 note=49 velocity=63 time=0
EXTRACT: note_off channel=6 note=74 velocity=80 time=0.2142855
EXTRACT: note_on channel=6 note=74 velocity=95 time=0
EXTRACT: note_off channel=4 note=62 velocity=80 time=0
EXTRACT: note_on channel=4 note=62 velocity=95 time=0
EXTRACT: note_off channel=11 note=62 velocity=80 time=0
EXTRACT: note_on channel=11 note=62 velocity=95 time=0
EXTRACT: note_off channel=13 note=62 velocity=80 time=0
EXTRACT: note_on channel=13 note=62 velocity=95 time=0
EXTRACT: note_off channel=15 note=62 velocity=80 time=0
EXTRACT: note_on channel=15 note=62 velocity=95 time=0
EXTRACT: note_off channel=2 note=34 velocity=80 time=0
EXTRACT: note_on channel=2 note=34 velocity=95 time=0
EXTRACT: note_off channel=9 note=40 velocity=80 time=0
EXTRACT: note_off channel=9 note=51 velocity=80 time=0
EXTRACT: note_off channel=9 note=49 velocity=80 time=0
EXTRACT: note_on channel=9 note=40 velocity=95 time=0
EXTRACT: note_on channel=9 note=51 velocity=63 time=0
EXTRACT: note_on channel=9 note=49 velocity=63 time=0
EXTRACT: note_off channel=13 note=62 velocity=80 time=0.2142855
EXTRACT: note_on channel=13 note=62 velocity=95 time=0
EXTRACT: note_off channel=15 note=62 velocity=80 time=0
EXTRACT: note_on channel=15 note=62 velocity=95 time=0
EXTRACT: note_off channel=2 note=34 velocity=80 time=0
EXTRACT: note_on channel=2 note=34 velocity=95 time=0
EXTRACT: note_off channel=9 note=40 velocity=80 time=0
EXTRACT: note_off channel=9 note=51 velocity=80 time=0
EXTRACT: note_off channel=9 note=49 velocity=80 time=0
EXTRACT: note_on channel=9 note=51 velocity=63 time=0
EXTRACT: note_off channel=13 note=62 velocity=80 time=0.2142855
EXTRACT: note_on channel=13 note=62 velocity=95 time=0
EXTRACT: note_off channel=15 note=62 velocity=80 time=0
EXTRACT: note_on channel=15 note=62 velocity=95 time=0
EXTRACT: note_off channel=2 note=34 velocity=80 time=0
EXTRACT: note_on channel=2 note=34 velocity=95 time=0
EXTRACT: note_off channel=9 note=51 velocity=80 time=0
EXTRACT: note_on channel=9 note=40 velocity=95 time=0
EXTRACT: note_on channel=9 note=51 velocity=63 time=0
EXTRACT: note_on channel=9 note=49 velocity=63 time=0
EXTRACT: note_off channel=13 note=62 velocity=80 time=0.2142855
EXTRACT: note_on channel=13 note=62 velocity=95 time=0
EXTRACT: note_off channel=15 note=62 velocity=80 time=0
EXTRACT: note_on channel=15 note=62 velocity=95 time=0
EXTRACT: note_off channel=2 note=34 velocity=80 time=0
EXTRACT: note_on channel=2 note=34 velocity=95 time=0
EXTRACT: note_off channel=9 note=40 velocity=80 time=0
EXTRACT: note_off channel=9 note=51 velocity=80 time=0
EXTRACT: note_off channel=9 note=49 velocity=80 time=0
EXTRACT: note_on channel=9 note=51 velocity=63 time=0
EXTRACT: note_off channel=6 note=74 velocity=80 time=0.2142855
EXTRACT: note_on channel=6 note=74 velocity=95 time=0
EXTRACT: note_off channel=4 note=62 velocity=80 time=0
EXTRACT: note_on channel=4 note=62 velocity=95 time=0
EXTRACT: note_off channel=11 note=62 velocity=80 time=0
EXTRACT: note_on channel=11 note=62 velocity=95 time=0
EXTRACT: note_off channel=13 note=62 velocity=80 time=0
EXTRACT: note_on channel=13 note=62 velocity=95 time=0
EXTRACT: note_off channel=15 note=62 velocity=80 time=0
EXTRACT: note_on channel=15 note=62 velocity=95 time=0
EXTRACT: note_off channel=2 note=34 velocity=80 time=0
EXTRACT: note_on channel=2 note=34 velocity=95 time=0
EXTRACT: note_off channel=9 note=51 velocity=80 time=0
EXTRACT: note_on channel=9 note=51 velocity=63 time=0
EXTRACT: note_off channel=13 note=62 velocity=80 time=0.2142855
EXTRACT: note_on channel=13 note=62 velocity=95 time=0
EXTRACT: note_off channel=15 note=62 velocity=80 time=0
EXTRACT: note_on channel=15 note=62 velocity=95 time=0
EXTRACT: note_off channel=2 note=34 velocity=80 time=0
EXTRACT: note_on channel=2 note=34 velocity=95 time=0
EXTRACT: note_off channel=9 note=51 velocity=80 time=0
EXTRACT: note_on channel=9 note=40 velocity=95 time=0
EXTRACT: note_on channel=9 note=51 velocity=63 time=0
EXTRACT: note_on channel=9 note=49 velocity=63 time=0
EXTRACT: note_off channel=13 note=62 velocity=80 time=0.2142855
EXTRACT: note_on channel=13 note=62 velocity=95 time=0
EXTRACT: note_off channel=15 note=62 velocity=80 time=0
EXTRACT: note_on channel=15 note=62 velocity=95 time=0
EXTRACT: note_off channel=2 note=34 velocity=80 time=0
EXTRACT: note_on channel=2 note=34 velocity=95 time=0
EXTRACT: note_off channel=9 note=40 velocity=80 time=0
EXTRACT: note_off channel=9 note=51 velocity=80 time=0
EXTRACT: note_off channel=9 note=49 velocity=80 time=0
EXTRACT: note_on channel=9 note=51 velocity=63 time=0
EXTRACT: note_off channel=6 note=74 velocity=80 time=0.2142855
EXTRACT: note_on channel=6 note=74 velocity=95 time=0
EXTRACT: note_off channel=4 note=62 velocity=80 time=0
EXTRACT: note_on channel=4 note=62 velocity=95 time=0
EXTRACT: note_off channel=11 note=62 velocity=80 time=0
EXTRACT: note_on channel=11 note=62 velocity=95 time=0
EXTRACT: note_off channel=13 note=62 velocity=80 time=0
EXTRACT: note_on channel=13 note=62 velocity=95 time=0
EXTRACT: note_off channel=15 note=62 velocity=80 time=0
EXTRACT: note_on channel=15 note=62 velocity=95 time=0
EXTRACT: note_off channel=2 note=34 velocity=80 time=0
EXTRACT: note_on channel=2 note=34 velocity=95 time=0
EXTRACT: note_off channel=9 note=51 velocity=80 time=0
EXTRACT: note_on channel=9 note=40 velocity=95 time=0
EXTRACT: note_on channel=9 note=51 velocity=63 time=0
EXTRACT: note_on channel=9 note=49 velocity=63 time=0
EXTRACT: note_off channel=13 note=62 velocity=80 time=0.2142855
EXTRACT: note_on channel=13 note=62 velocity=95 time=0
EXTRACT: note_off channel=15 note=62 velocity=80 time=0
EXTRACT: note_on channel=15 note=62 velocity=95 time=0
EXTRACT: note_off channel=2 note=34 velocity=80 time=0
EXTRACT: note_on channel=2 note=34 velocity=95 time=0
EXTRACT: note_off channel=9 note=40 velocity=80 time=0
EXTRACT: note_off channel=9 note=51 velocity=80 time=0
EXTRACT: note_off channel=9 note=49 velocity=80 time=0
EXTRACT: note_on channel=9 note=40 velocity=95 time=0
EXTRACT: note_on channel=9 note=51 velocity=63 time=0
EXTRACT: note_on channel=9 note=49 velocity=63 time=0
EXTRACT: note_off channel=13 note=62 velocity=80 time=0.2142855
EXTRACT: note_on channel=13 note=62 velocity=95 time=0
EXTRACT: note_off channel=15 note=62 velocity=80 time=0
EXTRACT: note_on channel=15 note=62 velocity=95 time=0
EXTRACT: note_off channel=2 note=34 velocity=80 time=0
EXTRACT: note_on channel=2 note=34 velocity=95 time=0
EXTRACT: note_off channel=9 note=40 velocity=80 time=0
EXTRACT: note_off channel=9 note=51 velocity=80 time=0
EXTRACT: note_off channel=9 note=49 velocity=80 time=0
EXTRACT: note_on channel=9 note=51 velocity=63 time=0
EXTRACT: note_off channel=13 note=62 velocity=80 time=0.2142855
EXTRACT: note_on channel=13 note=62 velocity=95 time=0
EXTRACT: note_off channel=15 note=62 velocity=80 time=0
EXTRACT: note_on channel=15 note=62 velocity=95 time=0
EXTRACT: note_off channel=2 note=34 velocity=80 time=0
EXTRACT: note_on channel=2 note=34 velocity=95 time=0
EXTRACT: note_off channel=9 note=51 velocity=80 time=0
EXTRACT: note_on channel=9 note=40 velocity=95 time=0
EXTRACT: note_on channel=9 note=51 velocity=63 time=0
EXTRACT: note_off channel=9 note=40 velocity=80 time=0.10714275
EXTRACT: note_on channel=9 note=40 velocity=76 time=0
EXTRACT: note_off channel=13 note=62 velocity=80 time=0.10714275
EXTRACT: note_on channel=14 note=62 velocity=95 time=0
EXTRACT: note_off channel=15 note=62 velocity=80 time=0
EXTRACT: note_on channel=15 note=62 velocity=95 time=0
EXTRACT: note_off channel=2 note=34 velocity=80 time=0
EXTRACT: note_on channel=2 note=34 velocity=95 time=0
EXTRACT: note_off channel=9 note=40 velocity=80 time=0
EXTRACT: note_off channel=9 note=40 velocity=80 time=0
EXTRACT: note_off channel=9 note=51 velocity=80 time=0
EXTRACT: note_on channel=9 note=40 velocity=95 time=0
EXTRACT: note_on channel=9 note=51 velocity=63 time=0
EXTRACT: pitchwheel channel=14 pitch=640 time=0.1714284
EXTRACT: pitchwheel channel=15 pitch=640 time=0
EXTRACT: note_off channel=6 note=74 velocity=80 time=0.0428571
EXTRACT: note_off channel=0 note=70 velocity=80 time=0
EXTRACT: note_off channel=0 note=62 velocity=80 time=0
EXTRACT: note_off channel=0 note=58 velocity=80 time=0
EXTRACT: note_off channel=0 note=53 velocity=80 time=0
EXTRACT: note_off channel=0 note=50 velocity=80 time=0
EXTRACT: note_off channel=0 note=46 velocity=80 time=0
EXTRACT: note_on channel=0 note=67 velocity=95 time=0
EXTRACT: note_on channel=0 note=63 velocity=95 time=0
EXTRACT: note_on channel=0 note=58 velocity=95 time=0
EXTRACT: note_on channel=0 note=55 velocity=95 time=0
EXTRACT: note_on channel=0 note=51 velocity=95 time=0
EXTRACT: note_off channel=4 note=62 velocity=80 time=0
EXTRACT: note_off channel=8 note=70 velocity=80 time=0
EXTRACT: note_off channel=8 note=62 velocity=80 time=0
EXTRACT: note_off channel=8 note=58 velocity=80 time=0
EXTRACT: note_off channel=8 note=53 velocity=80 time=0
EXTRACT: note_off channel=8 note=50 velocity=80 time=0
EXTRACT: note_off channel=8 note=46 velocity=80 time=0
EXTRACT: note_on channel=8 note=67 velocity=95 time=0
EXTRACT: note_on channel=8 note=63 velocity=95 time=0
EXTRACT: note_on channel=8 note=58 velocity=95 time=0
EXTRACT: note_on channel=8 note=55 velocity=95 time=0
EXTRACT: note_on channel=8 note=51 velocity=95 time=0
EXTRACT: note_off channel=11 note=62 velocity=80 time=0
EXTRACT: note_off channel=14 note=62 velocity=80 time=0
EXTRACT: pitchwheel channel=14 pitch=0 time=0
EXTRACT: note_on channel=13 note=63 velocity=86 time=0
EXTRACT: note_off channel=15 note=62 velocity=80 time=0
EXTRACT: pitchwheel channel=15 pitch=0 time=0
EXTRACT: note_on channel=15 note=63 velocity=86 time=0
EXTRACT: note_off channel=2 note=34 velocity=80 time=0
EXTRACT: note_on channel=2 note=39 velocity=95 time=0
EXTRACT: note_off channel=9 note=40 velocity=80 time=0
EXTRACT: note_off channel=9 note=51 velocity=80 time=0
EXTRACT: note_on channel=9 note=40 velocity=95 time=0
EXTRACT: note_on channel=9 note=51 velocity=63 time=0
EXTRACT: note_on channel=9 note=49 velocity=95 time=0
EXTRACT: note_off channel=13 note=63 velocity=80 time=0.2142855
EXTRACT: note_on channel=13 note=63 velocity=95 time=0
EXTRACT: note_off channel=15 note=63 velocity=80 time=0
EXTRACT: note_on channel=15 note=63 velocity=95 time=0
EXTRACT: note_off channel=2 note=39 velocity=80 time=0
EXTRACT: note_on channel=2 note=39 velocity=95 time=0
EXTRACT: note_off channel=9 note=40 velocity=80 time=0
EXTRACT: note_off channel=9 note=51 velocity=80 time=0
EXTRACT: note_off channel=9 note=49 velocity=80 time=0
EXTRACT: note_on channel=9 note=51 velocity=63 time=0
EXTRACT: note_off channel=13 note=63 velocity=80 time=0.2142855
EXTRACT: note_on channel=13 note=63 velocity=95 time=0
EXTRACT: note_off channel=15 note=63 velocity=80 time=0
EXTRACT: note_on channel=15 note=63 velocity=95 time=0
EXTRACT: note_off channel=2 note=39 velocity=80 time=0
EXTRACT: note_on channel=2 note=39 velocity=95 time=0
EXTRACT: note_off channel=9 note=51 velocity=80 time=0
EXTRACT: note_on channel=9 note=51 velocity=63 time=0
EXTRACT: note_off channel=13 note=63 velocity=80 time=0.2142855
EXTRACT: note_on channel=13 note=63 velocity=95 time=0
EXTRACT: note_off channel=15 note=63 velocity=80 time=0
EXTRACT: note_on channel=15 note=63 velocity=95 time=0
EXTRACT: note_off channel=2 note=39 velocity=80 time=0
EXTRACT: note_on channel=2 note=39 velocity=95 time=0
EXTRACT: note_off channel=9 note=51 velocity=80 time=0
EXTRACT: note_on channel=9 note=40 velocity=95 time=0
EXTRACT: note_on channel=9 note=51 velocity=63 time=0
EXTRACT: note_on channel=9 note=49 velocity=63 time=0
EXTRACT: note_off channel=13 note=63 velocity=80 time=0.2142855
EXTRACT: note_on channel=13 note=63 velocity=95 time=0
EXTRACT: note_off channel=15 note=63 velocity=80 time=0
EXTRACT: note_on channel=15 note=63 velocity=95 time=0
EXTRACT: note_off channel=2 note=39 velocity=80 time=0
EXTRACT: note_on channel=2 note=39 velocity=95 time=0
EXTRACT: note_off channel=9 note=40 velocity=80 time=0
EXTRACT: note_off channel=9 note=51 velocity=80 time=0
EXTRACT: note_off channel=9 note=49 velocity=80 time=0
EXTRACT: note_on channel=9 note=40 velocity=95 time=0
EXTRACT: note_on channel=9 note=51 velocity=63 time=0
EXTRACT: note_on channel=9 note=49 velocity=63 time=0
EXTRACT: note_off channel=13 note=63 velocity=80 time=0.2142855
EXTRACT: note_on channel=13 note=63 velocity=95 time=0
EXTRACT: note_off channel=15 note=63 velocity=80 time=0
EXTRACT: note_on channel=15 note=63 velocity=95 time=0
EXTRACT: note_off channel=2 note=39 velocity=80 time=0
EXTRACT: note_on channel=2 note=39 velocity=95 time=0
EXTRACT: note_off channel=9 note=40 velocity=80 time=0
EXTRACT: note_off channel=9 note=51 velocity=80 time=0
EXTRACT: note_off channel=9 note=49 velocity=80 time=0
EXTRACT: note_on channel=9 note=51 velocity=63 time=0
EXTRACT: note_off channel=13 note=63 velocity=80 time=0.2142855
EXTRACT: note_on channel=13 note=63 velocity=95 time=0
EXTRACT: note_off channel=15 note=63 velocity=80 time=0
EXTRACT: note_on channel=15 note=63 velocity=95 time=0
EXTRACT: note_off channel=2 note=39 velocity=80 time=0
EXTRACT: note_on channel=2 note=39 velocity=95 time=0
EXTRACT: note_off channel=9 note=51 velocity=80 time=0
EXTRACT: note_on channel=9 note=40 velocity=95 time=0
EXTRACT: note_on channel=9 note=51 velocity=63 time=0
EXTRACT: note_on channel=9 note=49 velocity=63 time=0
EXTRACT: note_off channel=13 note=63 velocity=80 time=0.2142855
EXTRACT: note_on channel=13 note=63 velocity=95 time=0
EXTRACT: note_off channel=15 note=63 velocity=80 time=0
EXTRACT: note_on channel=15 note=63 velocity=95 time=0
EXTRACT: note_off channel=2 note=39 velocity=80 time=0
EXTRACT: note_on channel=2 note=39 velocity=95 time=0
EXTRACT: note_off channel=9 note=40 velocity=80 time=0
EXTRACT: note_off channel=9 note=51 velocity=80 time=0
EXTRACT: note_off channel=9 note=49 velocity=80 time=0
EXTRACT: note_on channel=9 note=51 velocity=63 time=0
EXTRACT: note_on channel=6 note=75 velocity=95 time=0.2142855
EXTRACT: note_on channel=4 note=63 velocity=95 time=0
EXTRACT: note_on channel=11 note=63 velocity=95 time=0
EXTRACT: note_off channel=13 note=63 velocity=80 time=0
EXTRACT: note_on channel=13 note=63 velocity=95 time=0
EXTRACT: note_off channel=15 note=63 velocity=80 time=0
EXTRACT: note_on channel=15 note=63 velocity=95 time=0
EXTRACT: note_off channel=2 note=39 velocity=80 time=0
EXTRACT: note_on channel=2 note=39 velocity=95 time=0
EXTRACT: note_off channel=9 note=51 velocity=80 time=0
EXTRACT: note_on channel=9 note=51 velocity=63 time=0
EXTRACT: note_off channel=13 note=63 velocity=80 time=0.2142855
EXTRACT: note_on channel=13 note=63 velocity=95 time=0
EXTRACT: note_off channel=15 note=63 velocity=80 time=0
EXTRACT: note_on channel=15 note=63 velocity=95 time=0
EXTRACT: note_off channel=2 note=39 velocity=80 time=0
EXTRACT: note_on channel=2 note=39 velocity=95 time=0
EXTRACT: note_off channel=9 note=51 velocity=80 time=0
EXTRACT: note_on channel=9 note=40 velocity=95 time=0
EXTRACT: note_on channel=9 note=51 velocity=63 time=0
EXTRACT: note_on channel=9 note=49 velocity=63 time=0
EXTRACT: note_off channel=13 note=63 velocity=80 time=0.2142855
EXTRACT: note_on channel=13 note=63 velocity=95 time=0
EXTRACT: note_off channel=15 note=63 velocity=80 time=0
EXTRACT: note_on channel=15 note=63 velocity=95 time=0
EXTRACT: note_off channel=2 note=39 velocity=80 time=0
EXTRACT: note_on channel=2 note=39 velocity=95 time=0
EXTRACT: note_off channel=9 note=40 velocity=80 time=0
EXTRACT: note_off channel=9 note=51 velocity=80 time=0
EXTRACT: note_off channel=9 note=49 velocity=80 time=0
EXTRACT: note_on channel=9 note=51 velocity=63 time=0
EXTRACT: note_off channel=6 note=75 velocity=80 time=0.2142855
EXTRACT: note_on channel=6 note=79 velocity=95 time=0
EXTRACT: note_off channel=4 note=63 velocity=80 time=0
EXTRACT: note_on channel=4 note=67 velocity=95 time=0
EXTRACT: note_off channel=11 note=63 velocity=80 time=0
EXTRACT: note_on channel=11 note=67 velocity=95 time=0
EXTRACT: note_off channel=13 note=63 velocity=80 time=0
EXTRACT: note_on channel=14 note=63 velocity=95 time=0
EXTRACT: note_off channel=15 note=63 velocity=80 time=0
EXTRACT: note_on channel=15 note=63 velocity=95 time=0
EXTRACT: note_off channel=2 note=39 velocity=80 time=0
EXTRACT: note_on channel=2 note=39 velocity=95 time=0
EXTRACT: note_off channel=9 note=51 velocity=80 time=0
EXTRACT: note_on channel=9 note=40 velocity=95 time=0
EXTRACT: note_on channel=9 note=51 velocity=63 time=0
EXTRACT: note_on channel=9 note=49 velocity=63 time=0
EXTRACT: pitchwheel channel=14 pitch=640 time=0.10714275
EXTRACT: pitchwheel channel=15 pitch=640 time=0
EXTRACT: pitchwheel channel=14 pitch=1408 time=0.017857125
EXTRACT: pitchwheel channel=15 pitch=1408 time=0
EXTRACT: pitchwheel channel=14 pitch=2048 time=0.017857125
EXTRACT: pitchwheel channel=15 pitch=2048 time=0
EXTRACT: pitchwheel channel=14 pitch=2688 time=0.017857125
EXTRACT: pitchwheel channel=15 pitch=2688 time=0
EXTRACT: pitchwheel channel=14 pitch=3456 time=0.017857125
EXTRACT: pitchwheel channel=15 pitch=3456 time=0
EXTRACT: pitchwheel channel=14 pitch=4096 time=0.017857125
EXTRACT: pitchwheel channel=15 pitch=4096 time=0
EXTRACT: note_off channel=14 note=63 velocity=80 time=0.017857125
EXTRACT: pitchwheel channel=14 pitch=0 time=0
EXTRACT: note_on channel=13 note=70 velocity=86 time=0
EXTRACT: note_off channel=15 note=63 velocity=80 time=0
EXTRACT: pitchwheel channel=15 pitch=0 time=0
EXTRACT: note_on channel=15 note=70 velocity=86 time=0
EXTRACT: note_off channel=2 note=39 velocity=80 time=0
EXTRACT: note_on channel=2 note=39 velocity=95 time=0
EXTRACT: note_off channel=9 note=40 velocity=80 time=0
EXTRACT: note_off channel=9 note=51 velocity=80 time=0
EXTRACT: note_off channel=9 note=49 velocity=80 time=0
EXTRACT: note_on channel=9 note=40 velocity=95 time=0
EXTRACT: note_on channel=9 note=51 velocity=63 time=0
EXTRACT: note_on channel=9 note=49 velocity=63 time=0
EXTRACT: note_off channel=13 note=70 velocity=80 time=0.2142855
EXTRACT: note_on channel=13 note=70 velocity=95 time=0
EXTRACT: note_off channel=15 note=70 velocity=80 time=0
EXTRACT: note_on channel=15 note=70 velocity=95 time=0
EXTRACT: note_off channel=2 note=39 velocity=80 time=0
EXTRACT: note_on channel=2 note=39 velocity=95 time=0
EXTRACT: note_off channel=9 note=40 velocity=80 time=0
EXTRACT: note_off channel=9 note=51 velocity=80 time=0
EXTRACT: note_off channel=9 note=49 velocity=80 time=0
EXTRACT: note_on channel=9 note=51 velocity=63 time=0
EXTRACT: note_off channel=13 note=70 velocity=80 time=0.2142855
EXTRACT: note_on channel=13 note=70 velocity=95 time=0
EXTRACT: note_off channel=15 note=70 velocity=80 time=0
EXTRACT: note_on channel=15 note=70 velocity=95 time=0
EXTRACT: note_off channel=2 note=39 velocity=80 time=0
EXTRACT: note_on channel=2 note=39 velocity=95 time=0
EXTRACT: note_off channel=9 note=51 velocity=80 time=0
EXTRACT: note_on channel=9 note=51 velocity=63 time=0
EXTRACT: note_off channel=13 note=70 velocity=80 time=0.2142855
EXTRACT: note_on channel=14 note=70 velocity=95 time=0
EXTRACT: note_off channel=15 note=70 velocity=80 time=0
EXTRACT: note_on channel=15 note=70 velocity=95 time=0
EXTRACT: note_off channel=2 note=39 velocity=80 time=0
EXTRACT: note_on channel=2 note=39 velocity=95 time=0
EXTRACT: note_off channel=9 note=51 velocity=80 time=0
EXTRACT: note_on channel=9 note=51 velocity=63 time=0
EXTRACT: pitchwheel channel=14 pitch=-640 time=0.10714275
EXTRACT: pitchwheel channel=15 pitch=-640 time=0
EXTRACT: pitchwheel channel=14 pitch=-1408 time=0.017857125
EXTRACT: pitchwheel channel=15 pitch=-1408 time=0
EXTRACT: pitchwheel channel=14 pitch=-2048 time=0.017857125
EXTRACT: pitchwheel channel=15 pitch=-2048 time=0
EXTRACT: pitchwheel channel=14 pitch=-2688 time=0.017857125
EXTRACT: pitchwheel channel=15 pitch=-2688 time=0
EXTRACT: pitchwheel channel=14 pitch=-3456 time=0.017857125
EXTRACT: pitchwheel channel=15 pitch=-3456 time=0
EXTRACT: pitchwheel channel=14 pitch=-4096 time=0.017857125
EXTRACT: pitchwheel channel=15 pitch=-4096 time=0
EXTRACT: note_off channel=6 note=79 velocity=80 time=0.017857125
EXTRACT: note_off channel=0 note=67 velocity=80 time=0
EXTRACT: note_off channel=0 note=63 velocity=80 time=0
EXTRACT: note_off channel=0 note=58 velocity=80 time=0
EXTRACT: note_off channel=0 note=55 velocity=80 time=0
EXTRACT: note_off channel=0 note=51 velocity=80 time=0
EXTRACT: note_on channel=0 note=67 velocity=95 time=0
EXTRACT: note_on channel=0 note=63 velocity=95 time=0
EXTRACT: note_on channel=0 note=60 velocity=95 time=0
EXTRACT: note_on channel=0 note=56 velocity=95 time=0
EXTRACT: note_on channel=0 note=51 velocity=95 time=0
EXTRACT: note_off channel=4 note=67 velocity=80 time=0
EXTRACT: note_off channel=8 note=67 velocity=80 time=0
EXTRACT: note_off channel=8 note=63 velocity=80 time=0
EXTRACT: note_off channel=8 note=58 velocity=80 time=0
EXTRACT: note_off channel=8 note=55 velocity=80 time=0
EXTRACT: note_off channel=8 note=51 velocity=80 time=0
EXTRACT: note_on channel=8 note=67 velocity=95 time=0
EXTRACT: note_on channel=8 note=63 velocity=95 time=0
EXTRACT: note_on channel=8 note=60 velocity=95 time=0
EXTRACT: note_on channel=8 note=56 velocity=95 time=0
EXTRACT: note_on channel=8 note=51 velocity=95 time=0
EXTRACT: note_on channel=8 note=44 velocity=95 time=0
EXTRACT: note_off channel=11 note=67 velocity=80 time=0
EXTRACT: note_off channel=14 note=70 velocity=80 time=0
EXTRACT: pitchwheel channel=14 pitch=0 time=0
EXTRACT: note_on channel=13 note=63 velocity=86 time=0
EXTRACT: note_off channel=15 note=70 velocity=80 time=0
EXTRACT: pitchwheel channel=15 pitch=0 time=0
EXTRACT: note_on channel=15 note=63 velocity=86 time=0
EXTRACT: note_off channel=2 note=39 velocity=80 time=0
EXTRACT: note_on channel=2 note=44 velocity=95 time=0
EXTRACT: note_off channel=9 note=51 velocity=80 time=0
EXTRACT: note_on channel=9 note=40 velocity=95 time=0
EXTRACT: note_on channel=9 note=51 velocity=63 time=0
EXTRACT: note_on channel=9 note=49 velocity=63 time=0
EXTRACT: note_off channel=13 note=63 velocity=80 time=0.2142855
EXTRACT: note_on channel=13 note=63 velocity=95 time=0
EXTRACT: note_off channel=15 note=63 velocity=80 time=0
EXTRACT: note_on channel=15 note=63 velocity=95 time=0
EXTRACT: note_off channel=2 note=44 velocity=80 time=0
EXTRACT: note_on channel=2 note=44 velocity=95 time=0
EXTRACT: note_off channel=9 note=40 velocity=80 time=0
EXTRACT: note_off channel=9 note=51 velocity=80 time=0
EXTRACT: note_off channel=9 note=49 velocity=80 time=0
EXTRACT: note_on channel=9 note=51 velocity=63 time=0
EXTRACT: note_off channel=13 note=63 velocity=80 time=0.2142855
EXTRACT: note_on channel=13 note=63 velocity=95 time=0
EXTRACT: note_off channel=15 note=63 velocity=80 time=0
EXTRACT: note_on channel=15 note=63 velocity=95 time=0
EXTRACT: note_off channel=2 note=44 velocity=80 time=0
EXTRACT: note_on channel=2 note=44 velocity=95 time=0
EXTRACT: note_off channel=9 note=51 velocity=80 time=0
EXTRACT: note_on channel=9 note=51 velocity=63 time=0
EXTRACT: note_off channel=13 note=63 velocity=80 time=0.2142855
EXTRACT: note_on channel=13 note=63 velocity=95 time=0
EXTRACT: note_off channel=15 note=63 velocity=80 time=0
EXTRACT: note_on channel=15 note=63 velocity=95 time=0
EXTRACT: note_off channel=2 note=44 velocity=80 time=0
EXTRACT: note_on channel=2 note=44 velocity=95 time=0
EXTRACT: note_off channel=9 note=51 velocity=80 time=0
EXTRACT: note_on channel=9 note=40 velocity=95 time=0
EXTRACT: note_on channel=9 note=51 velocity=63 time=0
EXTRACT: note_on channel=9 note=49 velocity=63 time=0
EXTRACT: note_off channel=13 note=63 velocity=80 time=0.2142855
EXTRACT: note_on channel=13 note=63 velocity=95 time=0
EXTRACT: note_off channel=15 note=63 velocity=80 time=0
EXTRACT: note_on channel=15 note=63 velocity=95 time=0
EXTRACT: note_off channel=2 note=44 velocity=80 time=0
EXTRACT: note_on channel=2 note=44 velocity=95 time=0
EXTRACT: note_off channel=9 note=40 velocity=80 time=0
EXTRACT: note_off channel=9 note=51 velocity=80 time=0
EXTRACT: note_off channel=9 note=49 velocity=80 time=0
EXTRACT: note_on channel=9 note=40 velocity=95 time=0
EXTRACT: note_on channel=9 note=51 velocity=63 time=0
EXTRACT: note_on channel=9 note=49 velocity=63 time=0
EXTRACT: note_on channel=6 note=75 velocity=95 time=0.2142855
EXTRACT: note_on channel=4 note=63 velocity=95 time=0
EXTRACT: note_on channel=11 note=63 velocity=95 time=0
EXTRACT: note_off channel=13 note=63 velocity=80 time=0
EXTRACT: note_on channel=13 note=63 velocity=95 time=0
EXTRACT: note_off channel=15 note=63 velocity=80 time=0
EXTRACT: note_on channel=15 note=63 velocity=95 time=0
EXTRACT: note_off channel=2 note=44 velocity=80 time=0
EXTRACT: note_on channel=2 note=44 velocity=95 time=0
EXTRACT: note_off channel=9 note=40 velocity=80 time=0
EXTRACT: note_off channel=9 note=51 velocity=80 time=0
EXTRACT: note_off channel=9 note=49 velocity=80 time=0
EXTRACT: note_on channel=9 note=51 velocity=63 time=0
EXTRACT: note_off channel=6 note=75 velocity=80 time=0.2142855
EXTRACT: note_on channel=6 note=75 velocity=95 time=0
EXTRACT: note_off channel=4 note=63 velocity=80 time=0
EXTRACT: note_on channel=4 note=63 velocity=95 time=0
EXTRACT: note_off channel=11 note=63 velocity=80 time=0
EXTRACT: note_on channel=11 note=63 velocity=95 time=0
EXTRACT: note_off channel=13 note=63 velocity=80 time=0
EXTRACT: note_on channel=13 note=63 velocity=95 time=0
EXTRACT: note_off channel=15 note=63 velocity=80 time=0
EXTRACT: note_on channel=15 note=63 velocity=95 time=0
EXTRACT: note_off channel=2 note=44 velocity=80 time=0
EXTRACT: note_on channel=2 note=44 velocity=95 time=0
EXTRACT: note_off channel=9 note=51 velocity=80 time=0
EXTRACT: note_on channel=9 note=40 velocity=95 time=0
EXTRACT: note_on channel=9 note=51 velocity=63 time=0
EXTRACT: note_on channel=9 note=49 velocity=63 time=0
EXTRACT: note_off channel=13 note=63 velocity=80 time=0.2142855
EXTRACT: note_on channel=13 note=63 velocity=95 time=0
EXTRACT: note_off channel=15 note=63 velocity=80 time=0
EXTRACT: note_on channel=15 note=63 velocity=95 time=0
EXTRACT: note_off channel=2 note=44 velocity=80 time=0
EXTRACT: note_on channel=2 note=44 velocity=95 time=0
EXTRACT: note_off channel=9 note=40 velocity=80 time=0
EXTRACT: note_off channel=9 note=51 velocity=80 time=0
EXTRACT: note_off channel=9 note=49 velocity=80 time=0
EXTRACT: note_on channel=9 note=51 velocity=63 time=0
EXTRACT: note_off channel=6 note=75 velocity=80 time=0.2142855
EXTRACT: note_on channel=6 note=84 velocity=95 time=0
EXTRACT: note_off channel=4 note=63 velocity=80 time=0
EXTRACT: note_on channel=4 note=72 velocity=95 time=0
EXTRACT: note_off channel=11 note=63 velocity=80 time=0
EXTRACT: note_on channel=11 note=72 velocity=95 time=0
EXTRACT: note_off channel=13 note=63 velocity=80 time=0
EXTRACT: note_on channel=13 note=63 velocity=95 time=0
EXTRACT: note_off channel=15 note=63 velocity=80 time=0
EXTRACT: note_on channel=15 note=63 velocity=95 time=0
EXTRACT: note_off channel=2 note=44 velocity=80 time=0
EXTRACT: note_on channel=2 note=44 velocity=95 time=0
EXTRACT: note_off channel=9 note=51 velocity=80 time=0
EXTRACT: note_on channel=9 note=51 velocity=63 time=0
EXTRACT: note_off channel=13 note=63 velocity=80 time=0.2142855
EXTRACT: note_on channel=13 note=63 velocity=95 time=0
EXTRACT: note_off channel=15 note=63 velocity=80 time=0
EXTRACT: note_on channel=15 note=63 velocity=95 time=0
EXTRACT: note_off channel=2 note=44 velocity=80 time=0
EXTRACT: note_on channel=2 note=44 velocity=95 time=0
EXTRACT: note_off channel=9 note=51 velocity=80 time=0
EXTRACT: note_on channel=9 note=40 velocity=95 time=0
EXTRACT: note_on channel=9 note=51 velocity=63 time=0
EXTRACT: note_on channel=9 note=49 velocity=63 time=0
EXTRACT: note_off channel=13 note=63 velocity=80 time=0.2142855
EXTRACT: note_on channel=13 note=63 velocity=95 time=0
EXTRACT: note_off channel=15 note=63 velocity=80 time=0
EXTRACT: note_on channel=15 note=63 velocity=95 time=0
EXTRACT: note_off channel=2 note=44 velocity=80 time=0
EXTRACT: note_on channel=2 note=44 velocity=95 time=0
EXTRACT: note_off channel=9 note=40 velocity=80 time=0
EXTRACT: note_off channel=9 note=51 velocity=80 time=0
EXTRACT: note_off channel=9 note=49 velocity=80 time=0
EXTRACT: note_on channel=9 note=51 velocity=63 time=0
EXTRACT: note_off channel=6 note=84 velocity=80 time=0.2142855
EXTRACT: note_on channel=6 note=82 velocity=95 time=0
EXTRACT: note_off channel=4 note=72 velocity=80 time=0
EXTRACT: note_on channel=4 note=70 velocity=95 time=0
EXTRACT: note_off channel=11 note=72 velocity=80 time=0
EXTRACT: note_on channel=11 note=70 velocity=95 time=0
EXTRACT: note_off channel=13 note=63 velocity=80 time=0
EXTRACT: note_on channel=14 note=63 velocity=95 time=0
EXTRACT: note_off channel=15 note=63 velocity=80 time=0
EXTRACT: note_on channel=15 note=63 velocity=95 time=0
EXTRACT: note_off channel=2 note=44 velocity=80 time=0
EXTRACT: note_on channel=2 note=44 velocity=95 time=0
EXTRACT: note_off channel=9 note=51 velocity=80 time=0
EXTRACT: note_on channel=9 note=40 velocity=95 time=0
EXTRACT: note_on channel=9 note=51 velocity=63 time=0
EXTRACT: note_on channel=9 note=49 velocity=63 time=0
EXTRACT: pitchwheel channel=14 pitch=640 time=0.10714275
EXTRACT: pitchwheel channel=15 pitch=640 time=0
EXTRACT: pitchwheel channel=14 pitch=1408 time=0.017857125
EXTRACT: pitchwheel channel=15 pitch=1408 time=0
EXTRACT: pitchwheel channel=14 pitch=2048 time=0.017857125
EXTRACT: pitchwheel channel=15 pitch=2048 time=0
EXTRACT: pitchwheel channel=14 pitch=2688 time=0.017857125
EXTRACT: pitchwheel channel=15 pitch=2688 time=0
EXTRACT: pitchwheel channel=14 pitch=3456 time=0.017857125
EXTRACT: pitchwheel channel=15 pitch=3456 time=0
EXTRACT: pitchwheel channel=14 pitch=4096 time=0.017857125
EXTRACT: pitchwheel channel=15 pitch=4096 time=0
EXTRACT: note_off channel=14 note=63 velocity=80 time=0.017857125
EXTRACT: pitchwheel channel=14 pitch=0 time=0
EXTRACT: note_on channel=13 note=70 velocity=86 time=0
EXTRACT: note_off channel=15 note=63 velocity=80 time=0
EXTRACT: pitchwheel channel=15 pitch=0 time=0
EXTRACT: note_on channel=15 note=70 velocity=86 time=0
EXTRACT: note_off channel=2 note=44 velocity=80 time=0
EXTRACT: note_on channel=2 note=44 velocity=95 time=0
EXTRACT: note_off channel=9 note=40 velocity=80 time=0
EXTRACT: note_off channel=9 note=51 velocity=80 time=0
EXTRACT: note_off channel=9 note=49 velocity=80 time=0
EXTRACT: note_on channel=9 note=40 velocity=95 time=0
EXTRACT: note_on channel=9 note=51 velocity=63 time=0
EXTRACT: note_on channel=9 note=49 velocity=63 time=0
EXTRACT: note_off channel=13 note=70 velocity=80 time=0.2142855
EXTRACT: note_on channel=13 note=70 velocity=95 time=0
EXTRACT: note_off channel=15 note=70 velocity=80 time=0
EXTRACT: note_on channel=15 note=70 velocity=95 time=0
EXTRACT: note_off channel=2 note=44 velocity=80 time=0
EXTRACT: note_on channel=2 note=44 velocity=95 time=0
EXTRACT: note_off channel=9 note=40 velocity=80 time=0
EXTRACT: note_off channel=9 note=51 velocity=80 time=0
EXTRACT: note_off channel=9 note=49 velocity=80 time=0
EXTRACT: note_on channel=9 note=51 velocity=63 time=0
EXTRACT: note_off channel=13 note=70 velocity=80 time=0.2142855
EXTRACT: note_on channel=13 note=70 velocity=95 time=0
EXTRACT: note_off channel=15 note=70 velocity=80 time=0
EXTRACT: note_on channel=15 note=70 velocity=95 time=0
EXTRACT: note_off channel=2 note=44 velocity=80 time=0
EXTRACT: note_on channel=2 note=44 velocity=95 time=0
EXTRACT: note_off channel=9 note=51 velocity=80 time=0
EXTRACT: note_on channel=9 note=51 velocity=63 time=0
EXTRACT: note_off channel=6 note=82 velocity=80 time=0.2142855
EXTRACT: note_on channel=6 note=75 velocity=95 time=0
EXTRACT: note_off channel=4 note=70 velocity=80 time=0
EXTRACT: note_on channel=4 note=63 velocity=95 time=0
EXTRACT: note_off channel=11 note=70 velocity=80 time=0
EXTRACT: note_on channel=11 note=63 velocity=95 time=0
EXTRACT: note_off channel=13 note=70 velocity=80 time=0
EXTRACT: note_on channel=14 note=70 velocity=95 time=0
EXTRACT: note_off channel=15 note=70 velocity=80 time=0
EXTRACT: note_on channel=15 note=70 velocity=95 time=0
EXTRACT: note_off channel=2 note=44 velocity=80 time=0
EXTRACT: note_on channel=2 note=44 velocity=95 time=0
EXTRACT: note_off channel=9 note=51 velocity=80 time=0
EXTRACT: note_on channel=9 note=51 velocity=63 time=0
EXTRACT: pitchwheel channel=14 pitch=-640 time=0.10714275
EXTRACT: pitchwheel channel=15 pitch=-640 time=0
EXTRACT: pitchwheel channel=14 pitch=-1408 time=0.017857125
EXTRACT: pitchwheel channel=15 pitch=-1408 time=0
EXTRACT: pitchwheel channel=14 pitch=-2048 time=0.017857125
EXTRACT: pitchwheel channel=15 pitch=-2048 time=0
EXTRACT: pitchwheel channel=14 pitch=-2688 time=0.017857125
EXTRACT: pitchwheel channel=15 pitch=-2688 time=0
EXTRACT: pitchwheel channel=14 pitch=-3456 time=0.017857125
EXTRACT: pitchwheel channel=15 pitch=-3456 time=0
EXTRACT: pitchwheel channel=14 pitch=-4096 time=0.017857125
EXTRACT: pitchwheel channel=15 pitch=-4096 time=0
EXTRACT: note_off channel=6 note=75 velocity=80 time=0.017857125
EXTRACT: note_on channel=6 note=82 velocity=95 time=0
EXTRACT: note_off channel=0 note=67 velocity=80 time=0
EXTRACT: note_off channel=0 note=63 velocity=80 time=0
EXTRACT: note_off channel=0 note=60 velocity=80 time=0
EXTRACT: note_off channel=0 note=56 velocity=80 time=0
EXTRACT: note_off channel=0 note=51 velocity=80 time=0
EXTRACT: note_on channel=0 note=67 velocity=95 time=0
EXTRACT: note_on channel=0 note=63 velocity=95 time=0
EXTRACT: note_on channel=0 note=58 velocity=95 time=0
EXTRACT: note_on channel=0 note=55 velocity=95 time=0
EXTRACT: note_on channel=0 note=51 velocity=95 time=0
EXTRACT: note_off channel=4 note=63 velocity=80 time=0
EXTRACT: note_on channel=4 note=70 velocity=95 time=0
EXTRACT: note_off channel=8 note=67 velocity=80 time=0
EXTRACT: note_off channel=8 note=63 velocity=80 time=0
EXTRACT: note_off channel=8 note=60 velocity=80 time=0
EXTRACT: note_off channel=8 note=56 velocity=80 time=0
EXTRACT: note_off channel=8 note=51 velocity=80 time=0
EXTRACT: note_off channel=8 note=44 velocity=80 time=0
EXTRACT: note_on channel=8 note=67 velocity=95 time=0
EXTRACT: note_on channel=8 note=63 velocity=95 time=0
EXTRACT: note_on channel=8 note=58 velocity=95 time=0
EXTRACT: note_on channel=8 note=55 velocity=95 time=0
EXTRACT: note_on channel=8 note=51 velocity=95 time=0
EXTRACT: note_off channel=11 note=63 velocity=80 time=0
EXTRACT: note_on channel=11 note=70 velocity=95 time=0
EXTRACT: note_off channel=14 note=70 velocity=80 time=0
EXTRACT: pitchwheel channel=14 pitch=0 time=0
EXTRACT: note_on channel=13 note=63 velocity=86 time=0
EXTRACT: note_off channel=15 note=70 velocity=80 time=0
EXTRACT: pitchwheel channel=15 pitch=0 time=0
EXTRACT: note_on channel=15 note=63 velocity=86 time=0
EXTRACT: note_off channel=2 note=44 velocity=80 time=0
EXTRACT: note_on channel=2 note=39 velocity=95 time=0
EXTRACT: note_off channel=9 note=51 velocity=80 time=0
EXTRACT: note_on channel=9 note=40 velocity=95 time=0
EXTRACT: note_on channel=9 note=51 velocity=63 time=0
EXTRACT: note_on channel=9 note=49 velocity=63 time=0
EXTRACT: note_off channel=13 note=63 velocity=80 time=0.2142855
EXTRACT: note_on channel=13 note=63 velocity=95 time=0
EXTRACT: note_off channel=15 note=63 velocity=80 time=0
EXTRACT: note_on channel=15 note=63 velocity=95 time=0
EXTRACT: note_off channel=2 note=39 velocity=80 time=0
EXTRACT: note_on channel=2 note=39 velocity=95 time=0
EXTRACT: note_off channel=9 note=40 velocity=80 time=0
EXTRACT: note_off channel=9 note=51 velocity=80 time=0
EXTRACT: note_off channel=9 note=49 velocity=80 time=0
EXTRACT: note_on channel=9 note=51 velocity=63 time=0
EXTRACT: note_off channel=13 note=63 velocity=80 time=0.2142855
EXTRACT: note_on channel=13 note=63 velocity=95 time=0
EXTRACT: note_off channel=15 note=63 velocity=80 time=0
EXTRACT: note_on channel=15 note=63 velocity=95 time=0
EXTRACT: note_off channel=2 note=39 velocity=80 time=0
EXTRACT: note_on channel=2 note=39 velocity=95 time=0
EXTRACT: note_off channel=9 note=51 velocity=80 time=0
EXTRACT: note_on channel=9 note=51 velocity=63 time=0
EXTRACT: note_off channel=6 note=82 velocity=80 time=0.2142855
EXTRACT: note_on channel=6 note=80 velocity=95 time=0
EXTRACT: note_off channel=4 note=70 velocity=80 time=0
EXTRACT: note_on channel=4 note=68 velocity=95 time=0
EXTRACT: note_off channel=11 note=70 velocity=80 time=0
EXTRACT: note_on channel=11 note=68 velocity=95 time=0
EXTRACT: note_off channel=13 note=63 velocity=80 time=0
EXTRACT: note_on channel=13 note=63 velocity=95 time=0
EXTRACT: note_off channel=15 note=63 velocity=80 time=0
EXTRACT: note_on channel=15 note=63 velocity=95 time=0
EXTRACT: note_off channel=2 note=39 velocity=80 time=0
EXTRACT: note_on channel=2 note=39 velocity=95 time=0
EXTRACT: note_off channel=9 note=51 velocity=80 time=0
EXTRACT: note_on channel=9 note=40 velocity=95 time=0
EXTRACT: note_on channel=9 note=51 velocity=63 time=0
EXTRACT: note_on channel=9 note=49 velocity=63 time=0
EXTRACT: note_off channel=6 note=80 velocity=80 time=0.2142855
EXTRACT: note_on channel=6 note=79 velocity=95 time=0
EXTRACT: note_off channel=4 note=68 velocity=80 time=0
EXTRACT: note_on channel=4 note=67 velocity=95 time=0
EXTRACT: note_off channel=11 note=68 velocity=80 time=0
EXTRACT: note_on channel=11 note=67 velocity=95 time=0
EXTRACT: note_off channel=13 note=63 velocity=80 time=0
EXTRACT: note_on channel=13 note=63 velocity=95 time=0
EXTRACT: note_off channel=15 note=63 velocity=80 time=0
EXTRACT: note_on channel=15 note=63 velocity=95 time=0
EXTRACT: note_off channel=2 note=39 velocity=80 time=0
EXTRACT: note_on channel=2 note=39 velocity=95 time=0
EXTRACT: note_off channel=9 note=40 velocity=80 time=0
EXTRACT: note_off channel=9 note=51 velocity=80 time=0
EXTRACT: note_off channel=9 note=49 velocity=80 time=0
EXTRACT: note_on channel=9 note=40 velocity=95 time=0
EXTRACT: note_on channel=9 note=51 velocity=63 time=0
EXTRACT: note_on channel=9 note=49 velocity=63 time=0
EXTRACT: note_off channel=13 note=63 velocity=80 time=0.2142855
EXTRACT: note_on channel=13 note=63 velocity=95 time=0
EXTRACT: note_off channel=15 note=63 velocity=80 time=0
EXTRACT: note_on channel=15 note=63 velocity=95 time=0
EXTRACT: note_off channel=2 note=39 velocity=80 time=0
EXTRACT: note_on channel=2 note=39 velocity=95 time=0
EXTRACT: note_off channel=9 note=40 velocity=80 time=0
EXTRACT: note_off channel=9 note=51 velocity=80 time=0
EXTRACT: note_off channel=9 note=49 velocity=80 time=0
EXTRACT: note_on channel=9 note=51 velocity=63 time=0
EXTRACT: note_off channel=13 note=63 velocity=80 time=0.2142855
EXTRACT: note_on channel=13 note=63 velocity=95 time=0
EXTRACT: note_off channel=15 note=63 velocity=80 time=0
EXTRACT: note_on channel=15 note=63 velocity=95 time=0
EXTRACT: note_off channel=2 note=39 velocity=80 time=0
EXTRACT: note_on channel=2 note=39 velocity=95 time=0
EXTRACT: note_off channel=9 note=51 velocity=80 time=0
EXTRACT: note_on channel=9 note=40 velocity=95 time=0
EXTRACT: note_on channel=9 note=51 velocity=63 time=0
EXTRACT: note_on channel=9 note=49 velocity=63 time=0
EXTRACT: note_off channel=6 note=79 velocity=80 time=0.2142855
EXTRACT: note_on channel=6 note=79 velocity=95 time=0
EXTRACT: note_off channel=4 note=67 velocity=80 time=0
EXTRACT: note_on channel=4 note=67 velocity=95 time=0
EXTRACT: note_off channel=11 note=67 velocity=80 time=0
EXTRACT: note_on channel=11 note=67 velocity=95 time=0
EXTRACT: note_off channel=13 note=63 velocity=80 time=0
EXTRACT: note_on channel=13 note=63 velocity=95 time=0
EXTRACT: note_off channel=15 note=63 velocity=80 time=0
EXTRACT: note_on channel=15 note=63 velocity=95 time=0
EXTRACT: note_off channel=2 note=39 velocity=80 time=0
EXTRACT: note_on channel=2 note=39 velocity=95 time=0
EXTRACT: note_off channel=9 note=40 velocity=80 time=0
EXTRACT: note_off channel=9 note=51 velocity=80 time=0
EXTRACT: note_off channel=9 note=49 velocity=80 time=0
EXTRACT: note_on channel=9 note=51 velocity=63 time=0
EXTRACT: note_off channel=13 note=63 velocity=80 time=0.2142855
EXTRACT: note_on channel=13 note=63 velocity=95 time=0
EXTRACT: note_off channel=15 note=63 velocity=80 time=0
EXTRACT: note_on channel=15 note=63 velocity=95 time=0
EXTRACT: note_off channel=2 note=39 velocity=80 time=0
EXTRACT: note_on channel=2 note=39 velocity=95 time=0
EXTRACT: note_off channel=9 note=51 velocity=80 time=0
EXTRACT: note_on channel=9 note=51 velocity=63 time=0
EXTRACT: note_off channel=13 note=63 velocity=80 time=0.2142855
EXTRACT: note_on channel=13 note=63 velocity=95 time=0
EXTRACT: note_off channel=15 note=63 velocity=80 time=0
EXTRACT: note_on channel=15 note=63 velocity=95 time=0
EXTRACT: note_off channel=2 note=39 velocity=80 time=0
EXTRACT: note_on channel=2 note=39 velocity=95 time=0
EXTRACT: note_off channel=9 note=51 velocity=80 time=0
EXTRACT: note_on channel=9 note=40 velocity=95 time=0
EXTRACT: note_on channel=9 note=51 velocity=63 time=0
EXTRACT: note_on channel=9 note=49 velocity=63 time=0
EXTRACT: note_off channel=13 note=63 velocity=80 time=0.2142855
EXTRACT: note_on channel=13 note=63 velocity=95 time=0
EXTRACT: note_off channel=15 note=63 velocity=80 time=0
EXTRACT: note_on channel=15 note=63 velocity=95 time=0
EXTRACT: note_off channel=2 note=39 velocity=80 time=0
EXTRACT: note_on channel=2 note=39 velocity=95 time=0
EXTRACT: note_off channel=9 note=40 velocity=80 time=0
EXTRACT: note_off channel=9 note=51 velocity=80 time=0
EXTRACT: note_off channel=9 note=49 velocity=80 time=0
EXTRACT: note_on channel=9 note=51 velocity=63 time=0
EXTRACT: note_off channel=6 note=79 velocity=80 time=0.2142855
EXTRACT: note_on channel=6 note=75 velocity=95 time=0
EXTRACT: note_off channel=4 note=67 velocity=80 time=0
EXTRACT: note_on channel=4 note=63 velocity=95 time=0
EXTRACT: note_off channel=11 note=67 velocity=80 time=0
EXTRACT: note_on channel=11 note=63 velocity=95 time=0
EXTRACT: note_off channel=13 note=63 velocity=80 time=0
EXTRACT: note_on channel=14 note=63 velocity=95 time=0
EXTRACT: note_off channel=15 note=63 velocity=80 time=0
EXTRACT: note_on channel=15 note=63 velocity=95 time=0
EXTRACT: note_off channel=2 note=39 velocity=80 time=0
EXTRACT: note_on channel=2 note=39 velocity=95 time=0
EXTRACT: note_off channel=9 note=51 velocity=80 time=0
EXTRACT: note_on channel=9 note=40 velocity=95 time=0
EXTRACT: note_on channel=9 note=51 velocity=63 time=0
EXTRACT: note_on channel=9 note=49 velocity=63 time=0
EXTRACT: pitchwheel channel=14 pitch=640 time=0.10714275
EXTRACT: pitchwheel channel=15 pitch=640 time=0
EXTRACT: pitchwheel channel=14 pitch=1408 time=0.017857125
EXTRACT: pitchwheel channel=15 pitch=1408 time=0
EXTRACT: pitchwheel channel=14 pitch=2048 time=0.017857125
EXTRACT: pitchwheel channel=15 pitch=2048 time=0
EXTRACT: pitchwheel channel=14 pitch=2688 time=0.017857125
EXTRACT: pitchwheel channel=15 pitch=2688 time=0
EXTRACT: pitchwheel channel=14 pitch=3456 time=0.017857125
EXTRACT: pitchwheel channel=15 pitch=3456 time=0
EXTRACT: pitchwheel channel=14 pitch=4096 time=0.017857125
EXTRACT: pitchwheel channel=15 pitch=4096 time=0
EXTRACT: note_off channel=14 note=63 velocity=80 time=0.017857125
EXTRACT: pitchwheel channel=14 pitch=0 time=0
EXTRACT: note_on channel=13 note=70 velocity=86 time=0
EXTRACT: note_off channel=15 note=63 velocity=80 time=0
EXTRACT: pitchwheel channel=15 pitch=0 time=0
EXTRACT: note_on channel=15 note=70 velocity=86 time=0
EXTRACT: note_off channel=2 note=39 velocity=80 time=0
EXTRACT: note_on channel=2 note=39 velocity=95 time=0
EXTRACT: note_off channel=9 note=40 velocity=80 time=0
EXTRACT: note_off channel=9 note=51 velocity=80 time=0
EXTRACT: note_off channel=9 note=49 velocity=80 time=0
EXTRACT: note_on channel=9 note=40 velocity=95 time=0
EXTRACT: note_on channel=9 note=51 velocity=63 time=0
EXTRACT: note_on channel=9 note=49 velocity=63 time=0
EXTRACT: note_off channel=13 note=70 velocity=80 time=0.2142855
EXTRACT: note_on channel=13 note=70 velocity=95 time=0
EXTRACT: note_off channel=15 note=70 velocity=80 time=0
EXTRACT: note_on channel=15 note=70 velocity=95 time=0
EXTRACT: note_off channel=2 note=39 velocity=80 time=0
EXTRACT: note_on channel=2 note=39 velocity=95 time=0
EXTRACT: note_off channel=9 note=40 velocity=80 time=0
EXTRACT: note_off channel=9 note=51 velocity=80 time=0
EXTRACT: note_off channel=9 note=49 velocity=80 time=0
EXTRACT: note_on channel=9 note=51 velocity=63 time=0
EXTRACT: note_off channel=6 note=75 velocity=80 time=0.2142855
EXTRACT: note_on channel=6 note=74 velocity=95 time=0
EXTRACT: note_off channel=4 note=63 velocity=80 time=0
EXTRACT: note_on channel=4 note=62 velocity=95 time=0
EXTRACT: note_off channel=11 note=63 velocity=80 time=0
EXTRACT: note_on channel=11 note=62 velocity=95 time=0
EXTRACT: note_off channel=13 note=70 velocity=80 time=0
EXTRACT: note_on channel=13 note=70 velocity=95 time=0
EXTRACT: note_off channel=15 note=70 velocity=80 time=0
EXTRACT: note_on channel=15 note=70 velocity=95 time=0
EXTRACT: note_off channel=2 note=39 velocity=80 time=0
EXTRACT: note_on channel=2 note=39 velocity=95 time=0
EXTRACT: note_off channel=9 note=51 velocity=80 time=0
EXTRACT: note_on channel=9 note=51 velocity=63 time=0
EXTRACT: note_off channel=13 note=70 velocity=80 time=0.2142855
EXTRACT: note_on channel=14 note=70 velocity=95 time=0
EXTRACT: note_off channel=15 note=70 velocity=80 time=0
EXTRACT: note_on channel=15 note=70 velocity=95 time=0
EXTRACT: note_off channel=2 note=39 velocity=80 time=0
EXTRACT: note_on channel=2 note=39 velocity=95 time=0
EXTRACT: note_off channel=9 note=51 velocity=80 time=0
EXTRACT: note_on channel=9 note=51 velocity=63 time=0
EXTRACT: pitchwheel channel=14 pitch=-640 time=0.10714275
EXTRACT: pitchwheel channel=15 pitch=-640 time=0
EXTRACT: pitchwheel channel=14 pitch=-1408 time=0.017857125
EXTRACT: pitchwheel channel=15 pitch=-1408 time=0
EXTRACT: pitchwheel channel=14 pitch=-2048 time=0.017857125
EXTRACT: pitchwheel channel=15 pitch=-2048 time=0
EXTRACT: pitchwheel channel=14 pitch=-2688 time=0.017857125
EXTRACT: pitchwheel channel=15 pitch=-2688 time=0
EXTRACT: pitchwheel channel=14 pitch=-3456 time=0.017857125
EXTRACT: pitchwheel channel=15 pitch=-3456 time=0
EXTRACT: pitchwheel channel=14 pitch=-4096 time=0.017857125
EXTRACT: pitchwheel channel=15 pitch=-4096 time=0
EXTRACT: note_off channel=0 note=67 velocity=80 time=0.017857125
EXTRACT: note_off channel=0 note=63 velocity=80 time=0
EXTRACT: note_off channel=0 note=58 velocity=80 time=0
EXTRACT: note_off channel=0 note=55 velocity=80 time=0
EXTRACT: note_off channel=0 note=51 velocity=80 time=0
EXTRACT: note_on channel=0 note=70 velocity=95 time=0
EXTRACT: note_on channel=0 note=62 velocity=95 time=0
EXTRACT: note_on channel=0 note=58 velocity=95 time=0
EXTRACT: note_on channel=0 note=53 velocity=95 time=0
EXTRACT: note_on channel=0 note=50 velocity=95 time=0
EXTRACT: note_on channel=0 note=46 velocity=95 time=0
EXTRACT: note_off channel=8 note=67 velocity=80 time=0
EXTRACT: note_off channel=8 note=63 velocity=80 time=0
EXTRACT: note_off channel=8 note=58 velocity=80 time=0
EXTRACT: note_off channel=8 note=55 velocity=80 time=0
EXTRACT: note_off channel=8 note=51 velocity=80 time=0
EXTRACT: note_on channel=8 note=70 velocity=95 time=0
EXTRACT: note_on channel=8 note=62 velocity=95 time=0
EXTRACT: note_on channel=8 note=58 velocity=95 time=0
EXTRACT: note_on channel=8 note=53 velocity=95 time=0
EXTRACT: note_on channel=8 note=50 velocity=95 time=0
EXTRACT: note_on channel=8 note=46 velocity=95 time=0
EXTRACT: note_off channel=14 note=70 velocity=80 time=0
EXTRACT: pitchwheel channel=14 pitch=0 time=0
EXTRACT: note_on channel=13 note=63 velocity=86 time=0
EXTRACT: note_off channel=15 note=70 velocity=80 time=0
EXTRACT: pitchwheel channel=15 pitch=0 time=0
EXTRACT: note_on channel=15 note=63 velocity=86 time=0
EXTRACT: note_off channel=2 note=39 velocity=80 time=0
EXTRACT: note_on channel=2 note=34 velocity=95 time=0
EXTRACT: note_off channel=9 note=51 velocity=80 time=0
EXTRACT: note_on channel=9 note=40 velocity=95 time=0
EXTRACT: note_on channel=9 note=51 velocity=63 time=0
EXTRACT: note_on channel=9 note=49 velocity=63 time=0
EXTRACT: note_off channel=13 note=63 velocity=80 time=0.2142855
EXTRACT: note_on channel=13 note=63 velocity=95 time=0
EXTRACT: note_off channel=15 note=63 velocity=80 time=0
EXTRACT: note_on channel=15 note=63 velocity=95 time=0
EXTRACT: note_off channel=2 note=34 velocity=80 time=0
EXTRACT: note_on channel=2 note=34 velocity=95 time=0
EXTRACT: note_off channel=9 note=40 velocity=80 time=0
EXTRACT: note_off channel=9 note=51 velocity=80 time=0
EXTRACT: note_off channel=9 note=49 velocity=80 time=0
EXTRACT: note_on channel=9 note=51 velocity=63 time=0
EXTRACT: note_off channel=13 note=63 velocity=80 time=0.2142855
EXTRACT: note_on channel=14 note=63 velocity=95 time=0
EXTRACT: note_off channel=15 note=63 velocity=80 time=0
EXTRACT: note_on channel=15 note=63 velocity=95 time=0
EXTRACT: note_off channel=2 note=34 velocity=80 time=0
EXTRACT: note_on channel=2 note=34 velocity=95 time=0
EXTRACT: note_off channel=9 note=51 velocity=80 time=0
EXTRACT: note_on channel=9 note=51 velocity=63 time=0
EXTRACT: pitchwheel channel=14 pitch=-640 time=0.1714284
EXTRACT: pitchwheel channel=15 pitch=-640 time=0
EXTRACT: note_off channel=14 note=63 velocity=80 time=0.0428571
EXTRACT: pitchwheel channel=14 pitch=0 time=0
EXTRACT: note_on channel=13 note=62 velocity=86 time=0
EXTRACT: note_off channel=15 note=63 velocity=80 time=0
EXTRACT: pitchwheel channel=15 pitch=0 time=0
EXTRACT: note_on channel=15 note=62 velocity=86 time=0
EXTRACT: note_off channel=2 note=34 velocity=80 time=0
EXTRACT: note_on channel=2 note=34 velocity=95 time=0
EXTRACT: note_off channel=9 note=51 velocity=80 time=0
EXTRACT: note_on channel=9 note=40 velocity=95 time=0
EXTRACT: note_on channel=9 note=51 velocity=63 time=0
EXTRACT: note_on channel=9 note=49 velocity=63 time=0
EXTRACT: note_off channel=6 note=74 velocity=80 time=0.2142855
EXTRACT: note_off channel=4 note=62 velocity=80 time=0
EXTRACT: note_off channel=11 note=62 velocity=80 time=0
EXTRACT: note_off channel=13 note=62 velocity=80 time=0
EXTRACT: note_on channel=13 note=62 velocity=95 time=0
EXTRACT: note_off channel=15 note=62 velocity=80 time=0
EXTRACT: note_on channel=15 note=62 velocity=95 time=0
EXTRACT: note_off channel=2 note=34 velocity=80 time=0
EXTRACT: note_on channel=2 note=34 velocity=95 time=0
EXTRACT: note_off channel=9 note=40 velocity=80 time=0
EXTRACT: note_off channel=9 note=51 velocity=80 time=0
EXTRACT: note_off channel=9 note=49 velocity=80 time=0
EXTRACT: note_on channel=9 note=40 velocity=95 time=0
EXTRACT: note_on channel=9 note=51 velocity=63 time=0
EXTRACT: note_on channel=9 note=49 velocity=63 time=0
EXTRACT: note_off channel=13 note=62 velocity=80 time=0.2142855
EXTRACT: note_on channel=13 note=62 velocity=95 time=0
EXTRACT: note_off channel=15 note=62 velocity=80 time=0
EXTRACT: note_on channel=15 note=62 velocity=95 time=0
EXTRACT: note_off channel=2 note=34 velocity=80 time=0
EXTRACT: note_on channel=2 note=34 velocity=95 time=0
EXTRACT: note_off channel=9 note=40 velocity=80 time=0
EXTRACT: note_off channel=9 note=51 velocity=80 time=0
EXTRACT: note_off channel=9 note=49 velocity=80 time=0
EXTRACT: note_on channel=9 note=51 velocity=63 time=0
EXTRACT: note_off channel=13 note=62 velocity=80 time=0.2142855
EXTRACT: note_on channel=13 note=62 velocity=95 time=0
EXTRACT: note_off channel=15 note=62 velocity=80 time=0
EXTRACT: note_on channel=15 note=62 velocity=95 time=0
EXTRACT: note_off channel=2 note=34 velocity=80 time=0
EXTRACT: note_on channel=2 note=34 velocity=95 time=0
EXTRACT: note_off channel=9 note=51 velocity=80 time=0
EXTRACT: note_on channel=9 note=40 velocity=95 time=0
EXTRACT: note_on channel=9 note=51 velocity=63 time=0
EXTRACT: note_on channel=9 note=49 velocity=63 time=0
EXTRACT: note_off channel=13 note=62 velocity=80 time=0.2142855
EXTRACT: note_on channel=13 note=62 velocity=95 time=0
EXTRACT: note_off channel=15 note=62 velocity=80 time=0
EXTRACT: note_on channel=15 note=62 velocity=95 time=0
EXTRACT: note_off channel=2 note=34 velocity=80 time=0
EXTRACT: note_on channel=2 note=34 velocity=95 time=0
EXTRACT: note_off channel=9 note=40 velocity=80 time=0
EXTRACT: note_off channel=9 note=51 velocity=80 time=0
EXTRACT: note_off channel=9 note=49 velocity=80 time=0
EXTRACT: note_on channel=9 note=51 velocity=63 time=0
EXTRACT: note_off channel=13 note=62 velocity=80 time=0.2142855
EXTRACT: note_on channel=13 note=62 velocity=95 time=0
EXTRACT: note_off channel=15 note=62 velocity=80 time=0
EXTRACT: note_on channel=15 note=62 velocity=95 time=0
EXTRACT: note_off channel=2 note=34 velocity=80 time=0
EXTRACT: note_on channel=2 note=34 velocity=95 time=0
EXTRACT: note_off channel=9 note=51 velocity=80 time=0
EXTRACT: note_on channel=9 note=51 velocity=63 time=0
EXTRACT: note_off channel=13 note=62 velocity=80 time=0.2142855
EXTRACT: note_on channel=13 note=62 velocity=95 time=0
EXTRACT: note_off channel=15 note=62 velocity=80 time=0
EXTRACT: note_on channel=15 note=62 velocity=95 time=0
EXTRACT: note_off channel=2 note=34 velocity=80 time=0
EXTRACT: note_on channel=2 note=34 velocity=95 time=0
EXTRACT: note_off channel=9 note=51 velocity=80 time=0
EXTRACT: note_on channel=9 note=40 velocity=95 time=0
EXTRACT: note_on channel=9 note=51 velocity=63 time=0
EXTRACT: note_on channel=9 note=49 velocity=63 time=0
EXTRACT: note_off channel=13 note=62 velocity=80 time=0.2142855
EXTRACT: note_on channel=13 note=62 velocity=95 time=0
EXTRACT: note_off channel=15 note=62 velocity=80 time=0
EXTRACT: note_on channel=15 note=62 velocity=95 time=0
EXTRACT: note_off channel=2 note=34 velocity=80 time=0
EXTRACT: note_on channel=2 note=34 velocity=95 time=0
EXTRACT: note_off channel=9 note=40 velocity=80 time=0
EXTRACT: note_off channel=9 note=51 velocity=80 time=0
EXTRACT: note_off channel=9 note=49 velocity=80 time=0
EXTRACT: note_on channel=9 note=51 velocity=63 time=0
EXTRACT: note_off channel=13 note=62 velocity=80 time=0.2142855
EXTRACT: note_on channel=13 note=62 velocity=95 time=0
EXTRACT: note_off channel=15 note=62 velocity=80 time=0
EXTRACT: note_on channel=15 note=62 velocity=95 time=0
EXTRACT: note_off channel=2 note=34 velocity=80 time=0
EXTRACT: note_on channel=2 note=34 velocity=95 time=0
EXTRACT: note_off channel=9 note=51 velocity=80 time=0
EXTRACT: note_on channel=9 note=40 velocity=95 time=0
EXTRACT: note_on channel=9 note=51 velocity=63 time=0
EXTRACT: note_on channel=9 note=49 velocity=63 time=0
EXTRACT: note_off channel=13 note=62 velocity=80 time=0.2142855
EXTRACT: note_on channel=13 note=62 velocity=95 time=0
EXTRACT: note_off channel=15 note=62 velocity=80 time=0
EXTRACT: note_on channel=15 note=62 velocity=95 time=0
EXTRACT: note_off channel=2 note=34 velocity=80 time=0
EXTRACT: note_on channel=2 note=34 velocity=95 time=0
EXTRACT: note_off channel=9 note=40 velocity=80 time=0
EXTRACT: note_off channel=9 note=51 velocity=80 time=0
EXTRACT: note_off channel=9 note=49 velocity=80 time=0
EXTRACT: note_on channel=9 note=40 velocity=95 time=0
EXTRACT: note_on channel=9 note=51 velocity=63 time=0
EXTRACT: note_on channel=9 note=49 velocity=63 time=0
EXTRACT: note_off channel=13 note=62 velocity=80 time=0.2142855
EXTRACT: note_on channel=13 note=62 velocity=95 time=0
EXTRACT: note_off channel=15 note=62 velocity=80 time=0
EXTRACT: note_on channel=15 note=62 velocity=95 time=0
EXTRACT: note_off channel=2 note=34 velocity=80 time=0
EXTRACT: note_on channel=2 note=34 velocity=95 time=0
EXTRACT: note_off channel=9 note=40 velocity=80 time=0
EXTRACT: note_off channel=9 note=51 velocity=80 time=0
EXTRACT: note_off channel=9 note=49 velocity=80 time=0
EXTRACT: note_on channel=9 note=51 velocity=63 time=0
EXTRACT: note_off channel=13 note=62 velocity=80 time=0.2142855
EXTRACT: note_on channel=13 note=62 velocity=95 time=0
EXTRACT: note_off channel=15 note=62 velocity=80 time=0
EXTRACT: note_on channel=15 note=62 velocity=95 time=0
EXTRACT: note_off channel=2 note=34 velocity=80 time=0
EXTRACT: note_on channel=2 note=34 velocity=95 time=0
EXTRACT: note_off channel=9 note=51 velocity=80 time=0
EXTRACT: note_on channel=9 note=45 velocity=95 time=0
EXTRACT: note_on channel=9 note=51 velocity=63 time=0
EXTRACT: note_off channel=9 note=45 velocity=80 time=0.10714275
EXTRACT: note_off channel=9 note=51 velocity=80 time=0
EXTRACT: note_on channel=9 note=45 velocity=95 time=0
EXTRACT: note_off channel=13 note=62 velocity=80 time=0.10714275
EXTRACT: note_on channel=14 note=62 velocity=95 time=0
EXTRACT: note_off channel=15 note=62 velocity=80 time=0
EXTRACT: note_on channel=15 note=62 velocity=95 time=0
EXTRACT: note_off channel=2 note=34 velocity=80 time=0
EXTRACT: note_on channel=2 note=34 velocity=95 time=0
EXTRACT: note_off channel=9 note=45 velocity=80 time=0
EXTRACT: note_on channel=9 note=43 velocity=95 time=0
EXTRACT: note_on channel=9 note=51 velocity=63 time=0
EXTRACT: note_off channel=9 note=43 velocity=80 time=0.10714275
EXTRACT: note_off channel=9 note=51 velocity=80 time=0
EXTRACT: note_on channel=9 note=43 velocity=95 time=0
EXTRACT: pitchwheel channel=14 pitch=640 time=0.06428565
EXTRACT: pitchwheel channel=15 pitch=640 time=0
EXTRACT: note_off channel=0 note=70 velocity=80 time=0.0428571
EXTRACT: note_off channel=0 note=62 velocity=80 time=0
EXTRACT: note_off channel=0 note=58 velocity=80 time=0
EXTRACT: note_off channel=0 note=53 velocity=80 time=0
EXTRACT: note_off channel=0 note=50 velocity=80 time=0
EXTRACT: note_off channel=0 note=46 velocity=80 time=0
EXTRACT: note_on channel=0 note=67 velocity=95 time=0
EXTRACT: note_on channel=0 note=63 velocity=95 time=0
EXTRACT: note_on channel=0 note=58 velocity=95 time=0
EXTRACT: note_on channel=0 note=55 velocity=95 time=0
EXTRACT: note_on channel=0 note=51 velocity=95 time=0
EXTRACT: note_off channel=8 note=70 velocity=80 time=0
EXTRACT: note_off channel=8 note=62 velocity=80 time=0
EXTRACT: note_off channel=8 note=58 velocity=80 time=0
EXTRACT: note_off channel=8 note=53 velocity=80 time=0
EXTRACT: note_off channel=8 note=50 velocity=80 time=0
EXTRACT: note_off channel=8 note=46 velocity=80 time=0
EXTRACT: note_on channel=8 note=67 velocity=95 time=0
EXTRACT: note_on channel=8 note=63 velocity=95 time=0
EXTRACT: note_on channel=8 note=58 velocity=95 time=0
EXTRACT: note_on channel=8 note=55 velocity=95 time=0
EXTRACT: note_on channel=8 note=51 velocity=95 time=0
EXTRACT: note_off channel=14 note=62 velocity=80 time=0
EXTRACT: pitchwheel channel=14 pitch=0 time=0
EXTRACT: note_on channel=13 note=63 velocity=86 time=0
EXTRACT: note_off channel=15 note=62 velocity=80 time=0
EXTRACT: pitchwheel channel=15 pitch=0 time=0
EXTRACT: note_on channel=15 note=63 velocity=86 time=0
EXTRACT: note_off channel=2 note=34 velocity=80 time=0
EXTRACT: note_on channel=2 note=39 velocity=95 time=0
EXTRACT: note_off channel=9 note=43 velocity=80 time=0
EXTRACT: note_on channel=9 note=40 velocity=95 time=0
EXTRACT: note_on channel=9 note=51 velocity=63 time=0
EXTRACT: note_on channel=9 note=57 velocity=95 time=0
EXTRACT: note_off channel=13 note=63 velocity=80 time=0.2142855
EXTRACT: note_on channel=13 note=63 velocity=95 time=0
EXTRACT: note_off channel=15 note=63 velocity=80 time=0
EXTRACT: note_on channel=15 note=63 velocity=95 time=0
EXTRACT: note_off channel=2 note=39 velocity=80 time=0
EXTRACT: note_on channel=2 note=39 velocity=95 time=0
EXTRACT: note_off channel=9 note=40 velocity=80 time=0
EXTRACT: note_off channel=9 note=51 velocity=80 time=0
EXTRACT: note_off channel=9 note=57 velocity=80 time=0
EXTRACT: note_on channel=9 note=51 velocity=63 time=0
EXTRACT: note_off channel=13 note=63 velocity=80 time=0.2142855
EXTRACT: note_on channel=13 note=63 velocity=95 time=0
EXTRACT: note_off channel=15 note=63 velocity=80 time=0
EXTRACT: note_on channel=15 note=63 velocity=95 time=0
EXTRACT: note_off channel=2 note=39 velocity=80 time=0
EXTRACT: note_on channel=2 note=39 velocity=95 time=0
EXTRACT: note_off channel=9 note=51 velocity=80 time=0
EXTRACT: note_on channel=9 note=51 velocity=63 time=0
EXTRACT: note_off channel=13 note=63 velocity=80 time=0.2142855
EXTRACT: note_on channel=13 note=63 velocity=95 time=0
EXTRACT: note_off channel=15 note=63 velocity=80 time=0
EXTRACT: note_on channel=15 note=63 velocity=95 time=0
EXTRACT: note_off channel=2 note=39 velocity=80 time=0
EXTRACT: note_on channel=2 note=39 velocity=95 time=0
EXTRACT: note_off channel=9 note=51 velocity=80 time=0
EXTRACT: note_on channel=9 note=40 velocity=95 time=0
EXTRACT: note_on channel=9 note=51 velocity=63 time=0
EXTRACT: note_on channel=9 note=49 velocity=63 time=0
EXTRACT: note_off channel=13 note=63 velocity=80 time=0.2142855
EXTRACT: note_on channel=13 note=63 velocity=95 time=0
EXTRACT: note_off channel=15 note=63 velocity=80 time=0
EXTRACT: note_on channel=15 note=63 velocity=95 time=0
EXTRACT: note_off channel=2 note=39 velocity=80 time=0
EXTRACT: note_on channel=2 note=39 velocity=95 time=0
EXTRACT: note_off channel=9 note=40 velocity=80 time=0
EXTRACT: note_off channel=9 note=51 velocity=80 time=0
EXTRACT: note_off channel=9 note=49 velocity=80 time=0
EXTRACT: note_on channel=9 note=40 velocity=95 time=0
EXTRACT: note_on channel=9 note=51 velocity=63 time=0
EXTRACT: note_on channel=9 note=49 velocity=63 time=0
EXTRACT: note_off channel=13 note=63 velocity=80 time=0.2142855
EXTRACT: note_on channel=13 note=63 velocity=95 time=0
EXTRACT: note_off channel=15 note=63 velocity=80 time=0
EXTRACT: note_on channel=15 note=63 velocity=95 time=0
EXTRACT: note_off channel=2 note=39 velocity=80 time=0
EXTRACT: note_on channel=2 note=39 velocity=95 time=0
EXTRACT: note_off channel=9 note=40 velocity=80 time=0
EXTRACT: note_off channel=9 note=51 velocity=80 time=0
EXTRACT: note_off channel=9 note=49 velocity=80 time=0
EXTRACT: note_on channel=9 note=51 velocity=63 time=0
EXTRACT: note_off channel=13 note=63 velocity=80 time=0.2142855
EXTRACT: note_on channel=13 note=63 velocity=95 time=0
EXTRACT: note_off channel=15 note=63 velocity=80 time=0
EXTRACT: note_on channel=15 note=63 velocity=95 time=0
EXTRACT: note_off channel=2 note=39 velocity=80 time=0
EXTRACT: note_on channel=2 note=39 velocity=95 time=0
EXTRACT: note_off channel=9 note=51 velocity=80 time=0
EXTRACT: note_on channel=9 note=40 velocity=95 time=0
EXTRACT: note_on channel=9 note=51 velocity=63 time=0
EXTRACT: note_on channel=9 note=49 velocity=63 time=0
EXTRACT: note_off channel=13 note=63 velocity=80 time=0.2142855
EXTRACT: note_on channel=13 note=63 velocity=95 time=0
EXTRACT: note_off channel=15 note=63 velocity=80 time=0
EXTRACT: note_on channel=15 note=63 velocity=95 time=0
EXTRACT: note_off channel=2 note=39 velocity=80 time=0
EXTRACT: note_on channel=2 note=39 velocity=95 time=0
EXTRACT: note_off channel=9 note=40 velocity=80 time=0
EXTRACT: note_off channel=9 note=51 velocity=80 time=0
EXTRACT: note_off channel=9 note=49 velocity=80 time=0
EXTRACT: note_on channel=9 note=51 velocity=63 time=0
EXTRACT: note_on channel=6 note=75 velocity=95 time=0.2142855
EXTRACT: note_on channel=4 note=63 velocity=95 time=0
EXTRACT: note_on channel=11 note=63 velocity=95 time=0
EXTRACT: note_off channel=13 note=63 velocity=80 time=0
EXTRACT: note_on channel=13 note=63 velocity=95 time=0
EXTRACT: note_off channel=15 note=63 velocity=80 time=0
EXTRACT: note_on channel=15 note=63 velocity=95 time=0
EXTRACT: note_off channel=2 note=39 velocity=80 time=0
EXTRACT: note_on channel=2 note=39 velocity=95 time=0
EXTRACT: note_off channel=9 note=51 velocity=80 time=0
EXTRACT: note_on channel=9 note=51 velocity=63 time=0
EXTRACT: note_off channel=13 note=63 velocity=80 time=0.2142855
EXTRACT: note_on channel=13 note=63 velocity=95 time=0
EXTRACT: note_off channel=15 note=63 velocity=80 time=0
EXTRACT: note_on channel=15 note=63 velocity=95 time=0
EXTRACT: note_off channel=2 note=39 velocity=80 time=0
EXTRACT: note_on channel=2 note=39 velocity=95 time=0
EXTRACT: note_off channel=9 note=51 velocity=80 time=0
EXTRACT: note_on channel=9 note=40 velocity=95 time=0
EXTRACT: note_on channel=9 note=51 velocity=63 time=0
EXTRACT: note_on channel=9 note=49 velocity=63 time=0
EXTRACT: note_off channel=13 note=63 velocity=80 time=0.2142855
EXTRACT: note_on channel=13 note=63 velocity=95 time=0
EXTRACT: note_off channel=15 note=63 velocity=80 time=0
EXTRACT: note_on channel=15 note=63 velocity=95 time=0
EXTRACT: note_off channel=2 note=39 velocity=80 time=0
EXTRACT: note_on channel=2 note=39 velocity=95 time=0
EXTRACT: note_off channel=9 note=40 velocity=80 time=0
EXTRACT: note_off channel=9 note=51 velocity=80 time=0
EXTRACT: note_off channel=9 note=49 velocity=80 time=0
EXTRACT: note_on channel=9 note=51 velocity=63 time=0
EXTRACT: note_off channel=6 note=75 velocity=80 time=0.2142855
EXTRACT: note_on channel=6 note=79 velocity=95 time=0
EXTRACT: note_off channel=4 note=63 velocity=80 time=0
EXTRACT: note_on channel=4 note=67 velocity=95 time=0
EXTRACT: note_off channel=11 note=63 velocity=80 time=0
EXTRACT: note_on channel=11 note=67 velocity=95 time=0
EXTRACT: note_off channel=13 note=63 velocity=80 time=0
EXTRACT: note_on channel=14 note=63 velocity=95 time=0
EXTRACT: note_off channel=15 note=63 velocity=80 time=0
EXTRACT: note_on channel=15 note=63 velocity=95 time=0
EXTRACT: note_off channel=2 note=39 velocity=80 time=0
EXTRACT: note_on channel=2 note=39 velocity=95 time=0
EXTRACT: note_off channel=9 note=51 velocity=80 time=0
EXTRACT: note_on channel=9 note=40 velocity=95 time=0
EXTRACT: note_on channel=9 note=51 velocity=63 time=0
EXTRACT: note_on channel=9 note=49 velocity=63 time=0
EXTRACT: pitchwheel channel=14 pitch=640 time=0.10714275
EXTRACT: pitchwheel channel=15 pitch=640 time=0
EXTRACT: pitchwheel channel=14 pitch=1408 time=0.017857125
EXTRACT: pitchwheel channel=15 pitch=1408 time=0
EXTRACT: pitchwheel channel=14 pitch=2048 time=0.017857125
EXTRACT: pitchwheel channel=15 pitch=2048 time=0
EXTRACT: pitchwheel channel=14 pitch=2688 time=0.017857125
EXTRACT: pitchwheel channel=15 pitch=2688 time=0
EXTRACT: pitchwheel channel=14 pitch=3456 time=0.017857125
EXTRACT: pitchwheel channel=15 pitch=3456 time=0
EXTRACT: pitchwheel channel=14 pitch=4096 time=0.017857125
EXTRACT: pitchwheel channel=15 pitch=4096 time=0
EXTRACT: note_off channel=14 note=63 velocity=80 time=0.017857125
EXTRACT: pitchwheel channel=14 pitch=0 time=0
EXTRACT: note_on channel=13 note=70 velocity=86 time=0
EXTRACT: note_off channel=15 note=63 velocity=80 time=0
EXTRACT: pitchwheel channel=15 pitch=0 time=0
EXTRACT: note_on channel=15 note=70 velocity=86 time=0
EXTRACT: note_off channel=2 note=39 velocity=80 time=0
EXTRACT: note_on channel=2 note=39 velocity=95 time=0
EXTRACT: note_off channel=9 note=40 velocity=80 time=0
EXTRACT: note_off channel=9 note=51 velocity=80 time=0
EXTRACT: note_off channel=9 note=49 velocity=80 time=0
EXTRACT: note_on channel=9 note=40 velocity=95 time=0
EXTRACT: note_on channel=9 note=51 velocity=63 time=0
EXTRACT: note_on channel=9 note=49 velocity=63 time=0
EXTRACT: note_off channel=13 note=70 velocity=80 time=0.2142855
EXTRACT: note_on channel=13 note=70 velocity=95 time=0
EXTRACT: note_off channel=15 note=70 velocity=80 time=0
EXTRACT: note_on channel=15 note=70 velocity=95 time=0
EXTRACT: note_off channel=2 note=39 velocity=80 time=0
EXTRACT: note_on channel=2 note=39 velocity=95 time=0
EXTRACT: note_off channel=9 note=40 velocity=80 time=0
EXTRACT: note_off channel=9 note=51 velocity=80 time=0
EXTRACT: note_off channel=9 note=49 velocity=80 time=0
EXTRACT: note_on channel=9 note=51 velocity=63 time=0
EXTRACT: note_off channel=13 note=70 velocity=80 time=0.2142855
EXTRACT: note_on channel=13 note=70 velocity=95 time=0
EXTRACT: note_off channel=15 note=70 velocity=80 time=0
EXTRACT: note_on channel=15 note=70 velocity=95 time=0
EXTRACT: note_off channel=2 note=39 velocity=80 time=0
EXTRACT: note_on channel=2 note=39 velocity=95 time=0
EXTRACT: note_off channel=9 note=51 velocity=80 time=0
EXTRACT: note_on channel=9 note=51 velocity=63 time=0
EXTRACT: note_off channel=13 note=70 velocity=80 time=0.2142855
EXTRACT: note_on channel=14 note=70 velocity=95 time=0
EXTRACT: note_off channel=15 note=70 velocity=80 time=0
EXTRACT: note_on channel=15 note=70 velocity=95 time=0
EXTRACT: note_off channel=2 note=39 velocity=80 time=0
EXTRACT: note_on channel=2 note=39 velocity=95 time=0
EXTRACT: note_off channel=9 note=51 velocity=80 time=0
EXTRACT: note_on channel=9 note=51 velocity=63 time=0
EXTRACT: pitchwheel channel=14 pitch=-640 time=0.10714275
EXTRACT: pitchwheel channel=15 pitch=-640 time=0
EXTRACT: pitchwheel channel=14 pitch=-1408 time=0.017857125
EXTRACT: pitchwheel channel=15 pitch=-1408 time=0
EXTRACT: pitchwheel channel=14 pitch=-2048 time=0.017857125
EXTRACT: pitchwheel channel=15 pitch=-2048 time=0
EXTRACT: pitchwheel channel=14 pitch=-2688 time=0.017857125
EXTRACT: pitchwheel channel=15 pitch=-2688 time=0
EXTRACT: pitchwheel channel=14 pitch=-3456 time=0.017857125
EXTRACT: pitchwheel channel=15 pitch=-3456 time=0
EXTRACT: pitchwheel channel=14 pitch=-4096 time=0.017857125
EXTRACT: pitchwheel channel=15 pitch=-4096 time=0
EXTRACT: note_off channel=6 note=79 velocity=80 time=0.017857125
EXTRACT: note_off channel=0 note=67 velocity=80 time=0
EXTRACT: note_off channel=0 note=63 velocity=80 time=0
EXTRACT: note_off channel=0 note=58 velocity=80 time=0
EXTRACT: note_off channel=0 note=55 velocity=80 time=0
EXTRACT: note_off channel=0 note=51 velocity=80 time=0
EXTRACT: note_on channel=0 note=67 velocity=95 time=0
EXTRACT: note_on channel=0 note=63 velocity=95 time=0
EXTRACT: note_on channel=0 note=60 velocity=95 time=0
EXTRACT: note_on channel=0 note=56 velocity=95 time=0
EXTRACT: note_on channel=0 note=51 velocity=95 time=0
EXTRACT: note_off channel=4 note=67 velocity=80 time=0
EXTRACT: note_off channel=8 note=67 velocity=80 time=0
EXTRACT: note_off channel=8 note=63 velocity=80 time=0
EXTRACT: note_off channel=8 note=58 velocity=80 time=0
EXTRACT: note_off channel=8 note=55 velocity=80 time=0
EXTRACT: note_off channel=8 note=51 velocity=80 time=0
EXTRACT: note_on channel=8 note=67 velocity=95 time=0
EXTRACT: note_on channel=8 note=63 velocity=95 time=0
EXTRACT: note_on channel=8 note=60 velocity=95 time=0
EXTRACT: note_on channel=8 note=56 velocity=95 time=0
EXTRACT: note_on channel=8 note=51 velocity=95 time=0
EXTRACT: note_on channel=8 note=44 velocity=95 time=0
EXTRACT: note_off channel=11 note=67 velocity=80 time=0
EXTRACT: note_off channel=14 note=70 velocity=80 time=0
EXTRACT: pitchwheel channel=14 pitch=0 time=0
EXTRACT: note_on channel=13 note=63 velocity=86 time=0
EXTRACT: note_off channel=15 note=70 velocity=80 time=0
EXTRACT: pitchwheel channel=15 pitch=0 time=0
EXTRACT: note_on channel=15 note=63 velocity=86 time=0
EXTRACT: note_off channel=2 note=39 velocity=80 time=0
EXTRACT: note_on channel=2 note=44 velocity=95 time=0
EXTRACT: note_off channel=9 note=51 velocity=80 time=0
EXTRACT: note_on channel=9 note=40 velocity=95 time=0
EXTRACT: note_on channel=9 note=51 velocity=63 time=0
EXTRACT: note_on channel=9 note=49 velocity=63 time=0
EXTRACT: note_off channel=13 note=63 velocity=80 time=0.2142855
EXTRACT: note_on channel=13 note=63 velocity=95 time=0
EXTRACT: note_off channel=15 note=63 velocity=80 time=0
EXTRACT: note_on channel=15 note=63 velocity=95 time=0
EXTRACT: note_off channel=2 note=44 velocity=80 time=0
EXTRACT: note_on channel=2 note=44 velocity=95 time=0
EXTRACT: note_off channel=9 note=40 velocity=80 time=0
EXTRACT: note_off channel=9 note=51 velocity=80 time=0
EXTRACT: note_off channel=9 note=49 velocity=80 time=0
EXTRACT: note_on channel=9 note=51 velocity=63 time=0
EXTRACT: note_off channel=13 note=63 velocity=80 time=0.2142855
EXTRACT: note_on channel=13 note=63 velocity=95 time=0
EXTRACT: note_off channel=15 note=63 velocity=80 time=0
EXTRACT: note_on channel=15 note=63 velocity=95 time=0
EXTRACT: note_off channel=2 note=44 velocity=80 time=0
EXTRACT: note_on channel=2 note=44 velocity=95 time=0
EXTRACT: note_off channel=9 note=51 velocity=80 time=0
EXTRACT: note_on channel=9 note=51 velocity=63 time=0
EXTRACT: note_off channel=13 note=63 velocity=80 time=0.2142855
EXTRACT: note_on channel=13 note=63 velocity=95 time=0
EXTRACT: note_off channel=15 note=63 velocity=80 time=0
EXTRACT: note_on channel=15 note=63 velocity=95 time=0
EXTRACT: note_off channel=2 note=44 velocity=80 time=0
EXTRACT: note_on channel=2 note=44 velocity=95 time=0
EXTRACT: note_off channel=9 note=51 velocity=80 time=0
EXTRACT: note_on channel=9 note=40 velocity=95 time=0
EXTRACT: note_on channel=9 note=51 velocity=63 time=0
EXTRACT: note_on channel=9 note=49 velocity=63 time=0
EXTRACT: note_off channel=13 note=63 velocity=80 time=0.2142855
EXTRACT: note_on channel=13 note=63 velocity=95 time=0
EXTRACT: note_off channel=15 note=63 velocity=80 time=0
EXTRACT: note_on channel=15 note=63 velocity=95 time=0
EXTRACT: note_off channel=2 note=44 velocity=80 time=0
EXTRACT: note_on channel=2 note=44 velocity=95 time=0
EXTRACT: note_off channel=9 note=40 velocity=80 time=0
EXTRACT: note_off channel=9 note=51 velocity=80 time=0
EXTRACT: note_off channel=9 note=49 velocity=80 time=0
EXTRACT: note_on channel=9 note=40 velocity=95 time=0
EXTRACT: note_on channel=9 note=51 velocity=63 time=0
EXTRACT: note_on channel=9 note=49 velocity=63 time=0
EXTRACT: note_on channel=6 note=75 velocity=95 time=0.2142855
EXTRACT: note_on channel=4 note=63 velocity=95 time=0
EXTRACT: note_on channel=11 note=63 velocity=95 time=0
EXTRACT: note_off channel=13 note=63 velocity=80 time=0
EXTRACT: note_on channel=13 note=63 velocity=95 time=0
EXTRACT: note_off channel=15 note=63 velocity=80 time=0
EXTRACT: note_on channel=15 note=63 velocity=95 time=0
EXTRACT: note_off channel=2 note=44 velocity=80 time=0
EXTRACT: note_on channel=2 note=44 velocity=95 time=0
EXTRACT: note_off channel=9 note=40 velocity=80 time=0
EXTRACT: note_off channel=9 note=51 velocity=80 time=0
EXTRACT: note_off channel=9 note=49 velocity=80 time=0
EXTRACT: note_on channel=9 note=51 velocity=63 time=0
EXTRACT: note_off channel=6 note=75 velocity=80 time=0.2142855
EXTRACT: note_on channel=6 note=75 velocity=95 time=0
EXTRACT: note_off channel=4 note=63 velocity=80 time=0
EXTRACT: note_on channel=4 note=63 velocity=95 time=0
EXTRACT: note_off channel=11 note=63 velocity=80 time=0
EXTRACT: note_on channel=11 note=63 velocity=95 time=0
EXTRACT: note_off channel=13 note=63 velocity=80 time=0
EXTRACT: note_on channel=13 note=63 velocity=95 time=0
EXTRACT: note_off channel=15 note=63 velocity=80 time=0
EXTRACT: note_on channel=15 note=63 velocity=95 time=0
EXTRACT: note_off channel=2 note=44 velocity=80 time=0
EXTRACT: note_on channel=2 note=44 velocity=95 time=0
EXTRACT: note_off channel=9 note=51 velocity=80 time=0
EXTRACT: note_on channel=9 note=40 velocity=95 time=0
EXTRACT: note_on channel=9 note=51 velocity=63 time=0
EXTRACT: note_on channel=9 note=49 velocity=63 time=0
EXTRACT: note_off channel=13 note=63 velocity=80 time=0.2142855
EXTRACT: note_on channel=13 note=63 velocity=95 time=0
EXTRACT: note_off channel=15 note=63 velocity=80 time=0
EXTRACT: note_on channel=15 note=63 velocity=95 time=0
EXTRACT: note_off channel=2 note=44 velocity=80 time=0
EXTRACT: note_on channel=2 note=44 velocity=95 time=0
EXTRACT: note_off channel=9 note=40 velocity=80 time=0
EXTRACT: note_off channel=9 note=51 velocity=80 time=0
EXTRACT: note_off channel=9 note=49 velocity=80 time=0
EXTRACT: note_on channel=9 note=51 velocity=63 time=0
EXTRACT: note_off channel=6 note=75 velocity=80 time=0.2142855
EXTRACT: note_on channel=6 note=80 velocity=95 time=0
EXTRACT: note_off channel=4 note=63 velocity=80 time=0
EXTRACT: note_on channel=4 note=68 velocity=95 time=0
EXTRACT: note_off channel=11 note=63 velocity=80 time=0
EXTRACT: note_on channel=11 note=68 velocity=95 time=0
EXTRACT: note_off channel=13 note=63 velocity=80 time=0
EXTRACT: note_on channel=13 note=63 velocity=95 time=0
EXTRACT: note_off channel=15 note=63 velocity=80 time=0
EXTRACT: note_on channel=15 note=63 velocity=95 time=0
EXTRACT: note_off channel=2 note=44 velocity=80 time=0
EXTRACT: note_on channel=2 note=44 velocity=95 time=0
EXTRACT: note_off channel=9 note=51 velocity=80 time=0
EXTRACT: note_on channel=9 note=51 velocity=63 time=0
EXTRACT: note_off channel=13 note=63 velocity=80 time=0.2142855
EXTRACT: note_on channel=13 note=63 velocity=95 time=0
EXTRACT: note_off channel=15 note=63 velocity=80 time=0
EXTRACT: note_on channel=15 note=63 velocity=95 time=0
EXTRACT: note_off channel=2 note=44 velocity=80 time=0
EXTRACT: note_on channel=2 note=44 velocity=95 time=0
EXTRACT: note_off channel=9 note=51 velocity=80 time=0
EXTRACT: note_on channel=9 note=40 velocity=95 time=0
EXTRACT: note_on channel=9 note=51 velocity=63 time=0
EXTRACT: note_on channel=9 note=49 velocity=63 time=0
EXTRACT: note_off channel=13 note=63 velocity=80 time=0.2142855
EXTRACT: note_on channel=13 note=63 velocity=95 time=0
EXTRACT: note_off channel=15 note=63 velocity=80 time=0
EXTRACT: note_on channel=15 note=63 velocity=95 time=0
EXTRACT: note_off channel=2 note=44 velocity=80 time=0
EXTRACT: note_on channel=2 note=44 velocity=95 time=0
EXTRACT: note_off channel=9 note=40 velocity=80 time=0
EXTRACT: note_off channel=9 note=51 velocity=80 time=0
EXTRACT: note_off channel=9 note=49 velocity=80 time=0
EXTRACT: note_on channel=9 note=51 velocity=63 time=0
EXTRACT: note_off channel=6 note=80 velocity=80 time=0.2142855
EXTRACT: note_on channel=6 note=79 velocity=95 time=0
EXTRACT: note_off channel=4 note=68 velocity=80 time=0
EXTRACT: note_on channel=4 note=67 velocity=95 time=0
EXTRACT: note_off channel=11 note=68 velocity=80 time=0
EXTRACT: note_on channel=11 note=67 velocity=95 time=0
EXTRACT: note_off channel=13 note=63 velocity=80 time=0
EXTRACT: note_on channel=14 note=63 velocity=95 time=0
EXTRACT: note_off channel=15 note=63 velocity=80 time=0
EXTRACT: note_on channel=15 note=63 velocity=95 time=0
EXTRACT: note_off channel=2 note=44 velocity=80 time=0
EXTRACT: note_on channel=2 note=44 velocity=95 time=0
EXTRACT: note_off channel=9 note=51 velocity=80 time=0
EXTRACT: note_on channel=9 note=40 velocity=95 time=0
EXTRACT: note_on channel=9 note=51 velocity=63 time=0
EXTRACT: note_on channel=9 note=49 velocity=63 time=0
EXTRACT: pitchwheel channel=14 pitch=640 time=0.10714275
EXTRACT: pitchwheel channel=15 pitch=640 time=0
EXTRACT: pitchwheel channel=14 pitch=1408 time=0.017857125
EXTRACT: pitchwheel channel=15 pitch=1408 time=0
EXTRACT: pitchwheel channel=14 pitch=2048 time=0.017857125
EXTRACT: pitchwheel channel=15 pitch=2048 time=0
EXTRACT: pitchwheel channel=14 pitch=2688 time=0.017857125
EXTRACT: pitchwheel channel=15 pitch=2688 time=0
EXTRACT: pitchwheel channel=14 pitch=3456 time=0.017857125
EXTRACT: pitchwheel channel=15 pitch=3456 time=0
EXTRACT: pitchwheel channel=14 pitch=4096 time=0.017857125
EXTRACT: pitchwheel channel=15 pitch=4096 time=0
EXTRACT: note_off channel=14 note=63 velocity=80 time=0.017857125
EXTRACT: pitchwheel channel=14 pitch=0 time=0
EXTRACT: note_on channel=13 note=70 velocity=86 time=0
EXTRACT: note_off channel=15 note=63 velocity=80 time=0
EXTRACT: pitchwheel channel=15 pitch=0 time=0
EXTRACT: note_on channel=15 note=70 velocity=86 time=0
EXTRACT: note_off channel=2 note=44 velocity=80 time=0
EXTRACT: note_on channel=2 note=44 velocity=95 time=0
EXTRACT: note_off channel=9 note=40 velocity=80 time=0
EXTRACT: note_off channel=9 note=51 velocity=80 time=0
EXTRACT: note_off channel=9 note=49 velocity=80 time=0
EXTRACT: note_on channel=9 note=40 velocity=95 time=0
EXTRACT: note_on channel=9 note=51 velocity=63 time=0
EXTRACT: note_on channel=9 note=49 velocity=63 time=0
EXTRACT: note_off channel=13 note=70 velocity=80 time=0.2142855
EXTRACT: note_on channel=13 note=70 velocity=95 time=0
EXTRACT: note_off channel=15 note=70 velocity=80 time=0
EXTRACT: note_on channel=15 note=70 velocity=95 time=0
EXTRACT: note_off channel=2 note=44 velocity=80 time=0
EXTRACT: note_on channel=2 note=44 velocity=95 time=0
EXTRACT: note_off channel=9 note=40 velocity=80 time=0
EXTRACT: note_off channel=9 note=51 velocity=80 time=0
EXTRACT: note_off channel=9 note=49 velocity=80 time=0
EXTRACT: note_on channel=9 note=51 velocity=63 time=0
EXTRACT: note_off channel=13 note=70 velocity=80 time=0.2142855
EXTRACT: note_on channel=13 note=70 velocity=95 time=0
EXTRACT: note_off channel=15 note=70 velocity=80 time=0
EXTRACT: note_on channel=15 note=70 velocity=95 time=0
EXTRACT: note_off channel=2 note=44 velocity=80 time=0
EXTRACT: note_on channel=2 note=44 velocity=95 time=0
EXTRACT: note_off channel=9 note=51 velocity=80 time=0
EXTRACT: note_on channel=9 note=51 velocity=63 time=0
EXTRACT: note_off channel=13 note=70 velocity=80 time=0.2142855
EXTRACT: note_on channel=14 note=70 velocity=95 time=0
EXTRACT: note_off channel=15 note=70 velocity=80 time=0
EXTRACT: note_on channel=15 note=70 velocity=95 time=0
EXTRACT: note_off channel=2 note=44 velocity=80 time=0
EXTRACT: note_on channel=2 note=44 velocity=95 time=0
EXTRACT: note_off channel=9 note=51 velocity=80 time=0
EXTRACT: note_on channel=9 note=51 velocity=63 time=0
EXTRACT: pitchwheel channel=14 pitch=-640 time=0.10714275
EXTRACT: pitchwheel channel=15 pitch=-640 time=0
EXTRACT: pitchwheel channel=14 pitch=-1408 time=0.017857125
EXTRACT: pitchwheel channel=15 pitch=-1408 time=0
EXTRACT: pitchwheel channel=14 pitch=-2048 time=0.017857125
EXTRACT: pitchwheel channel=15 pitch=-2048 time=0
EXTRACT: pitchwheel channel=14 pitch=-2688 time=0.017857125
EXTRACT: pitchwheel channel=15 pitch=-2688 time=0
EXTRACT: pitchwheel channel=14 pitch=-3456 time=0.017857125
EXTRACT: pitchwheel channel=15 pitch=-3456 time=0
EXTRACT: pitchwheel channel=14 pitch=-4096 time=0.017857125
EXTRACT: pitchwheel channel=15 pitch=-4096 time=0
EXTRACT: note_off channel=6 note=79 velocity=80 time=0.017857125
EXTRACT: note_off channel=0 note=67 velocity=80 time=0
EXTRACT: note_off channel=0 note=63 velocity=80 time=0
EXTRACT: note_off channel=0 note=60 velocity=80 time=0
EXTRACT: note_off channel=0 note=56 velocity=80 time=0
EXTRACT: note_off channel=0 note=51 velocity=80 time=0
EXTRACT: note_on channel=0 note=67 velocity=95 time=0
EXTRACT: note_on channel=0 note=63 velocity=95 time=0
EXTRACT: note_on channel=0 note=58 velocity=95 time=0
EXTRACT: note_on channel=0 note=55 velocity=95 time=0
EXTRACT: note_on channel=0 note=51 velocity=95 time=0
EXTRACT: note_off channel=4 note=67 velocity=80 time=0
EXTRACT: note_off channel=8 note=67 velocity=80 time=0
EXTRACT: note_off channel=8 note=63 velocity=80 time=0
EXTRACT: note_off channel=8 note=60 velocity=80 time=0
EXTRACT: note_off channel=8 note=56 velocity=80 time=0
EXTRACT: note_off channel=8 note=51 velocity=80 time=0
EXTRACT: note_off channel=8 note=44 velocity=80 time=0
EXTRACT: note_on channel=8 note=67 velocity=95 time=0
EXTRACT: note_on channel=8 note=63 velocity=95 time=0
EXTRACT: note_on channel=8 note=58 velocity=95 time=0
EXTRACT: note_on channel=8 note=55 velocity=95 time=0
EXTRACT: note_on channel=8 note=51 velocity=95 time=0
EXTRACT: note_off channel=11 note=67 velocity=80 time=0
EXTRACT: note_off channel=14 note=70 velocity=80 time=0
EXTRACT: pitchwheel channel=14 pitch=0 time=0
EXTRACT: note_on channel=13 note=63 velocity=86 time=0
EXTRACT: note_off channel=15 note=70 velocity=80 time=0
EXTRACT: pitchwheel channel=15 pitch=0 time=0
EXTRACT: note_on channel=15 note=63 velocity=86 time=0
EXTRACT: note_off channel=2 note=44 velocity=80 time=0
EXTRACT: note_on channel=2 note=39 velocity=95 time=0
EXTRACT: note_off channel=9 note=51 velocity=80 time=0
EXTRACT: note_on channel=9 note=40 velocity=95 time=0
EXTRACT: note_on channel=9 note=51 velocity=63 time=0
EXTRACT: note_on channel=9 note=49 velocity=63 time=0
EXTRACT: note_off channel=13 note=63 velocity=80 time=0.2142855
EXTRACT: note_on channel=13 note=63 velocity=95 time=0
EXTRACT: note_off channel=15 note=63 velocity=80 time=0
EXTRACT: note_on channel=15 note=63 velocity=95 time=0
EXTRACT: note_off channel=2 note=39 velocity=80 time=0
EXTRACT: note_on channel=2 note=39 velocity=95 time=0
EXTRACT: note_off channel=9 note=40 velocity=80 time=0
EXTRACT: note_off channel=9 note=51 velocity=80 time=0
EXTRACT: note_off channel=9 note=49 velocity=80 time=0
EXTRACT: note_on channel=9 note=51 velocity=63 time=0
EXTRACT: note_off channel=13 note=63 velocity=80 time=0.2142855
EXTRACT: note_on channel=13 note=63 velocity=95 time=0
EXTRACT: note_off channel=15 note=63 velocity=80 time=0
EXTRACT: note_on channel=15 note=63 velocity=95 time=0
EXTRACT: note_off channel=2 note=39 velocity=80 time=0
EXTRACT: note_on channel=2 note=39 velocity=95 time=0
EXTRACT: note_off channel=9 note=51 velocity=80 time=0
EXTRACT: note_on channel=9 note=51 velocity=63 time=0
EXTRACT: note_off channel=13 note=63 velocity=80 time=0.2142855
EXTRACT: note_on channel=13 note=63 velocity=95 time=0
EXTRACT: note_off channel=15 note=63 velocity=80 time=0
EXTRACT: note_on channel=15 note=63 velocity=95 time=0
EXTRACT: note_off channel=2 note=39 velocity=80 time=0
EXTRACT: note_on channel=2 note=39 velocity=95 time=0
EXTRACT: note_off channel=9 note=51 velocity=80 time=0
EXTRACT: note_on channel=9 note=40 velocity=95 time=0
EXTRACT: note_on channel=9 note=51 velocity=63 time=0
EXTRACT: note_on channel=9 note=49 velocity=63 time=0
EXTRACT: note_on channel=6 note=75 velocity=95 time=0.2142855
EXTRACT: note_on channel=4 note=63 velocity=95 time=0
EXTRACT: note_on channel=11 note=63 velocity=95 time=0
EXTRACT: note_off channel=13 note=63 velocity=80 time=0
EXTRACT: note_on channel=13 note=63 velocity=95 time=0
EXTRACT: note_off channel=15 note=63 velocity=80 time=0
EXTRACT: note_on channel=15 note=63 velocity=95 time=0
EXTRACT: note_off channel=2 note=39 velocity=80 time=0
EXTRACT: note_on channel=2 note=39 velocity=95 time=0
EXTRACT: note_off channel=9 note=40 velocity=80 time=0
EXTRACT: note_off channel=9 note=51 velocity=80 time=0
EXTRACT: note_off channel=9 note=49 velocity=80 time=0
EXTRACT: note_on channel=9 note=40 velocity=95 time=0
EXTRACT: note_on channel=9 note=51 velocity=63 time=0
EXTRACT: note_on channel=9 note=49 velocity=63 time=0
EXTRACT: note_off channel=13 note=63 velocity=80 time=0.2142855
EXTRACT: note_on channel=13 note=63 velocity=95 time=0
EXTRACT: note_off channel=15 note=63 velocity=80 time=0
EXTRACT: note_on channel=15 note=63 velocity=95 time=0
EXTRACT: note_off channel=2 note=39 velocity=80 time=0
EXTRACT: note_on channel=2 note=39 velocity=95 time=0
EXTRACT: note_off channel=9 note=40 velocity=80 time=0
EXTRACT: note_off channel=9 note=51 velocity=80 time=0
EXTRACT: note_off channel=9 note=49 velocity=80 time=0
EXTRACT: note_on channel=9 note=51 velocity=63 time=0
EXTRACT: note_off channel=6 note=75 velocity=80 time=0.2142855
EXTRACT: note_on channel=6 note=75 velocity=95 time=0
EXTRACT: note_off channel=4 note=63 velocity=80 time=0
EXTRACT: note_on channel=4 note=63 velocity=95 time=0
EXTRACT: note_off channel=11 note=63 velocity=80 time=0
EXTRACT: note_on channel=11 note=63 velocity=95 time=0
EXTRACT: note_off channel=13 note=63 velocity=80 time=0
EXTRACT: note_on channel=13 note=63 velocity=95 time=0
EXTRACT: note_off channel=15 note=63 velocity=80 time=0
EXTRACT: note_on channel=15 note=63 velocity=95 time=0
EXTRACT: note_off channel=2 note=39 velocity=80 time=0
EXTRACT: note_on channel=2 note=39 velocity=95 time=0
EXTRACT: note_off channel=9 note=51 velocity=80 time=0
EXTRACT: note_on channel=9 note=40 velocity=95 time=0
EXTRACT: note_on channel=9 note=51 velocity=63 time=0
EXTRACT: note_on channel=9 note=49 velocity=63 time=0
EXTRACT: note_off channel=13 note=63 velocity=80 time=0.2142855
EXTRACT: note_on channel=13 note=63 velocity=95 time=0
EXTRACT: note_off channel=15 note=63 velocity=80 time=0
EXTRACT: note_on channel=15 note=63 velocity=95 time=0
EXTRACT: note_off channel=2 note=39 velocity=80 time=0
EXTRACT: note_on channel=2 note=39 velocity=95 time=0
EXTRACT: note_off channel=9 note=40 velocity=80 time=0
EXTRACT: note_off channel=9 note=51 velocity=80 time=0
EXTRACT: note_off channel=9 note=49 velocity=80 time=0
EXTRACT: note_on channel=9 note=51 velocity=63 time=0
EXTRACT: note_off channel=6 note=75 velocity=80 time=0.2142855
EXTRACT: note_on channel=6 note=75 velocity=95 time=0
EXTRACT: note_off channel=4 note=63 velocity=80 time=0
EXTRACT: note_on channel=4 note=63 velocity=95 time=0
EXTRACT: note_off channel=11 note=63 velocity=80 time=0
EXTRACT: note_on channel=11 note=63 velocity=95 time=0
EXTRACT: note_off channel=13 note=63 velocity=80 time=0
EXTRACT: note_on channel=13 note=63 velocity=95 time=0
EXTRACT: note_off channel=15 note=63 velocity=80 time=0
EXTRACT: note_on channel=15 note=63 velocity=95 time=0
EXTRACT: note_off channel=2 note=39 velocity=80 time=0
EXTRACT: note_on channel=2 note=39 velocity=95 time=0
EXTRACT: note_off channel=9 note=51 velocity=80 time=0
EXTRACT: note_on channel=9 note=51 velocity=63 time=0
EXTRACT: note_off channel=13 note=63 velocity=80 time=0.2142855
EXTRACT: note_on channel=13 note=63 velocity=95 time=0
EXTRACT: note_off channel=15 note=63 velocity=80 time=0
EXTRACT: note_on channel=15 note=63 velocity=95 time=0
EXTRACT: note_off channel=2 note=39 velocity=80 time=0
EXTRACT: note_on channel=2 note=39 velocity=95 time=0
EXTRACT: note_off channel=9 note=51 velocity=80 time=0
EXTRACT: note_on channel=9 note=40 velocity=95 time=0
EXTRACT: note_on channel=9 note=51 velocity=63 time=0
EXTRACT: note_on channel=9 note=49 velocity=63 time=0
EXTRACT: note_off channel=13 note=63 velocity=80 time=0.2142855
EXTRACT: note_on channel=13 note=63 velocity=95 time=0
EXTRACT: note_off channel=15 note=63 velocity=80 time=0
EXTRACT: note_on channel=15 note=63 velocity=95 time=0
EXTRACT: note_off channel=2 note=39 velocity=80 time=0
EXTRACT: note_on channel=2 note=39 velocity=95 time=0
EXTRACT: note_off channel=9 note=40 velocity=80 time=0
EXTRACT: note_off channel=9 note=51 velocity=80 time=0
EXTRACT: note_off channel=9 note=49 velocity=80 time=0
EXTRACT: note_on channel=9 note=51 velocity=63 time=0
EXTRACT: note_off channel=6 note=75 velocity=80 time=0.2142855
EXTRACT: note_on channel=6 note=75 velocity=95 time=0
EXTRACT: note_off channel=4 note=63 velocity=80 time=0
EXTRACT: note_on channel=4 note=63 velocity=95 time=0
EXTRACT: note_off channel=11 note=63 velocity=80 time=0
EXTRACT: note_on channel=11 note=63 velocity=95 time=0
EXTRACT: note_off channel=13 note=63 velocity=80 time=0
EXTRACT: note_on channel=14 note=63 velocity=95 time=0
EXTRACT: note_off channel=15 note=63 velocity=80 time=0
EXTRACT: note_on channel=15 note=63 velocity=95 time=0
EXTRACT: note_off channel=2 note=39 velocity=80 time=0
EXTRACT: note_on channel=2 note=39 velocity=95 time=0
EXTRACT: note_off channel=9 note=51 velocity=80 time=0
EXTRACT: note_on channel=9 note=40 velocity=95 time=0
EXTRACT: note_on channel=9 note=51 velocity=63 time=0
EXTRACT: note_on channel=9 note=49 velocity=63 time=0
EXTRACT: pitchwheel channel=14 pitch=640 time=0.10714275
EXTRACT: pitchwheel channel=15 pitch=640 time=0
EXTRACT: pitchwheel channel=14 pitch=1408 time=0.017857125
EXTRACT: pitchwheel channel=15 pitch=1408 time=0
EXTRACT: pitchwheel channel=14 pitch=2048 time=0.017857125
EXTRACT: pitchwheel channel=15 pitch=2048 time=0
EXTRACT: pitchwheel channel=14 pitch=2688 time=0.017857125
EXTRACT: pitchwheel channel=15 pitch=2688 time=0
EXTRACT: pitchwheel channel=14 pitch=3456 time=0.017857125
EXTRACT: pitchwheel channel=15 pitch=3456 time=0
EXTRACT: pitchwheel channel=14 pitch=4096 time=0.017857125
EXTRACT: pitchwheel channel=15 pitch=4096 time=0
EXTRACT: note_off channel=14 note=63 velocity=80 time=0.017857125
EXTRACT: pitchwheel channel=14 pitch=0 time=0
EXTRACT: note_on channel=13 note=70 velocity=86 time=0
EXTRACT: note_off channel=15 note=63 velocity=80 time=0
EXTRACT: pitchwheel channel=15 pitch=0 time=0
EXTRACT: note_on channel=15 note=70 velocity=86 time=0
EXTRACT: note_off channel=2 note=39 velocity=80 time=0
EXTRACT: note_on channel=2 note=39 velocity=95 time=0
EXTRACT: note_off channel=9 note=40 velocity=80 time=0
EXTRACT: note_off channel=9 note=51 velocity=80 time=0
EXTRACT: note_off channel=9 note=49 velocity=80 time=0
EXTRACT: note_on channel=9 note=40 velocity=95 time=0
EXTRACT: note_on channel=9 note=51 velocity=63 time=0
EXTRACT: note_on channel=9 note=49 velocity=63 time=0
EXTRACT: note_off channel=6 note=75 velocity=80 time=0.2142855
EXTRACT: note_on channel=6 note=75 velocity=95 time=0
EXTRACT: note_off channel=4 note=63 velocity=80 time=0
EXTRACT: note_on channel=4 note=63 velocity=95 time=0
EXTRACT: note_off channel=11 note=63 velocity=80 time=0
EXTRACT: note_on channel=11 note=63 velocity=95 time=0
EXTRACT: note_off channel=13 note=70 velocity=80 time=0
EXTRACT: note_on channel=13 note=70 velocity=95 time=0
EXTRACT: note_off channel=15 note=70 velocity=80 time=0
EXTRACT: note_on channel=15 note=70 velocity=95 time=0
EXTRACT: note_off channel=2 note=39 velocity=80 time=0
EXTRACT: note_on channel=2 note=39 velocity=95 time=0
EXTRACT: note_off channel=9 note=40 velocity=80 time=0
EXTRACT: note_off channel=9 note=51 velocity=80 time=0
EXTRACT: note_off channel=9 note=49 velocity=80 time=0
EXTRACT: note_on channel=9 note=51 velocity=63 time=0
EXTRACT: note_off channel=13 note=70 velocity=80 time=0.2142855
EXTRACT: note_on channel=13 note=70 velocity=95 time=0
EXTRACT: note_off channel=15 note=70 velocity=80 time=0
EXTRACT: note_on channel=15 note=70 velocity=95 time=0
EXTRACT: note_off channel=2 note=39 velocity=80 time=0
EXTRACT: note_on channel=2 note=39 velocity=95 time=0
EXTRACT: note_off channel=9 note=51 velocity=80 time=0
EXTRACT: note_on channel=9 note=51 velocity=63 time=0
EXTRACT: note_off channel=13 note=70 velocity=80 time=0.2142855
EXTRACT: note_on channel=14 note=70 velocity=95 time=0
EXTRACT: note_off channel=15 note=70 velocity=80 time=0
EXTRACT: note_on channel=15 note=70 velocity=95 time=0
EXTRACT: note_off channel=2 note=39 velocity=80 time=0
EXTRACT: note_on channel=2 note=39 velocity=95 time=0
EXTRACT: note_off channel=9 note=51 velocity=80 time=0
EXTRACT: note_on channel=9 note=51 velocity=63 time=0
EXTRACT: pitchwheel channel=14 pitch=-640 time=0.10714275
EXTRACT: pitchwheel channel=15 pitch=-640 time=0
EXTRACT: pitchwheel channel=14 pitch=-1408 time=0.017857125
EXTRACT: pitchwheel channel=15 pitch=-1408 time=0
EXTRACT: pitchwheel channel=14 pitch=-2048 time=0.017857125
EXTRACT: pitchwheel channel=15 pitch=-2048 time=0
EXTRACT: pitchwheel channel=14 pitch=-2688 time=0.017857125
EXTRACT: pitchwheel channel=15 pitch=-2688 time=0
EXTRACT: pitchwheel channel=14 pitch=-3456 time=0.017857125
EXTRACT: pitchwheel channel=15 pitch=-3456 time=0
EXTRACT: pitchwheel channel=14 pitch=-4096 time=0.017857125
EXTRACT: pitchwheel channel=15 pitch=-4096 time=0
EXTRACT: note_off channel=6 note=75 velocity=80 time=0.017857125
EXTRACT: note_on channel=6 note=74 velocity=95 time=0
EXTRACT: note_off channel=0 note=67 velocity=80 time=0
EXTRACT: note_off channel=0 note=63 velocity=80 time=0
EXTRACT: note_off channel=0 note=58 velocity=80 time=0
EXTRACT: note_off channel=0 note=55 velocity=80 time=0
EXTRACT: note_off channel=0 note=51 velocity=80 time=0
EXTRACT: note_on channel=0 note=70 velocity=95 time=0
EXTRACT: note_on channel=0 note=62 velocity=95 time=0
EXTRACT: note_on channel=0 note=58 velocity=95 time=0
EXTRACT: note_on channel=0 note=53 velocity=95 time=0
EXTRACT: note_on channel=0 note=50 velocity=95 time=0
EXTRACT: note_on channel=0 note=46 velocity=95 time=0
EXTRACT: note_off channel=4 note=63 velocity=80 time=0
EXTRACT: note_on channel=4 note=62 velocity=95 time=0
EXTRACT: note_off channel=8 note=67 velocity=80 time=0
EXTRACT: note_off channel=8 note=63 velocity=80 time=0
EXTRACT: note_off channel=8 note=58 velocity=80 time=0
EXTRACT: note_off channel=8 note=55 velocity=80 time=0
EXTRACT: note_off channel=8 note=51 velocity=80 time=0
EXTRACT: note_on channel=8 note=70 velocity=95 time=0
EXTRACT: note_on channel=8 note=62 velocity=95 time=0
EXTRACT: note_on channel=8 note=58 velocity=95 time=0
EXTRACT: note_on channel=8 note=53 velocity=95 time=0
EXTRACT: note_on channel=8 note=50 velocity=95 time=0
EXTRACT: note_on channel=8 note=46 velocity=95 time=0
EXTRACT: note_off channel=11 note=63 velocity=80 time=0
EXTRACT: note_on channel=11 note=62 velocity=95 time=0
EXTRACT: note_off channel=14 note=70 velocity=80 time=0
EXTRACT: pitchwheel channel=14 pitch=0 time=0
EXTRACT: note_on channel=13 note=63 velocity=86 time=0
EXTRACT: note_off channel=15 note=70 velocity=80 time=0
EXTRACT: pitchwheel channel=15 pitch=0 time=0
EXTRACT: note_on channel=15 note=63 velocity=86 time=0
EXTRACT: note_off channel=2 note=39 velocity=80 time=0
EXTRACT: note_on channel=2 note=34 velocity=95 time=0
EXTRACT: note_off channel=9 note=51 velocity=80 time=0
EXTRACT: note_on channel=9 note=40 velocity=95 time=0
EXTRACT: note_on channel=9 note=51 velocity=63 time=0
EXTRACT: note_on channel=9 note=49 velocity=63 time=0
EXTRACT: note_off channel=13 note=63 velocity=80 time=0.2142855
EXTRACT: note_on channel=13 note=63 velocity=95 time=0
EXTRACT: note_off channel=15 note=63 velocity=80 time=0
EXTRACT: note_on channel=15 note=63 velocity=95 time=0
EXTRACT: note_off channel=2 note=34 velocity=80 time=0
EXTRACT: note_on channel=2 note=34 velocity=95 time=0
EXTRACT: note_off channel=9 note=40 velocity=80 time=0
EXTRACT: note_off channel=9 note=51 velocity=80 time=0
EXTRACT: note_off channel=9 note=49 velocity=80 time=0
EXTRACT: note_on channel=9 note=51 velocity=63 time=0
EXTRACT: note_off channel=13 note=63 velocity=80 time=0.2142855
EXTRACT: note_on channel=14 note=63 velocity=95 time=0
EXTRACT: note_off channel=15 note=63 velocity=80 time=0
EXTRACT: note_on channel=15 note=63 velocity=95 time=0
EXTRACT: note_off channel=2 note=34 velocity=80 time=0
EXTRACT: note_on channel=2 note=34 velocity=95 time=0
EXTRACT: note_off channel=9 note=51 velocity=80 time=0
EXTRACT: note_on channel=9 note=51 velocity=63 time=0
EXTRACT: pitchwheel channel=14 pitch=-640 time=0.1714284
EXTRACT: pitchwheel channel=15 pitch=-640 time=0
EXTRACT: note_off channel=6 note=74 velocity=80 time=0.0428571
EXTRACT: note_on channel=6 note=74 velocity=95 time=0
EXTRACT: note_off channel=4 note=62 velocity=80 time=0
EXTRACT: note_on channel=4 note=62 velocity=95 time=0
EXTRACT: note_off channel=11 note=62 velocity=80 time=0
EXTRACT: note_on channel=11 note=62 velocity=95 time=0
EXTRACT: note_off channel=14 note=63 velocity=80 time=0
EXTRACT: pitchwheel channel=14 pitch=0 time=0
EXTRACT: note_on channel=13 note=62 velocity=86 time=0
EXTRACT: note_off channel=15 note=63 velocity=80 time=0
EXTRACT: pitchwheel channel=15 pitch=0 time=0
EXTRACT: note_on channel=15 note=62 velocity=86 time=0
EXTRACT: note_off channel=2 note=34 velocity=80 time=0
EXTRACT: note_on channel=2 note=34 velocity=95 time=0
EXTRACT: note_off channel=9 note=51 velocity=80 time=0
EXTRACT: note_on channel=9 note=40 velocity=95 time=0
EXTRACT: note_on channel=9 note=51 velocity=63 time=0
EXTRACT: note_on channel=9 note=49 velocity=63 time=0
EXTRACT: note_off channel=6 note=74 velocity=80 time=0.2142855
EXTRACT: note_on channel=6 note=74 velocity=95 time=0
EXTRACT: note_off channel=4 note=62 velocity=80 time=0
EXTRACT: note_on channel=4 note=62 velocity=95 time=0
EXTRACT: note_off channel=11 note=62 velocity=80 time=0
EXTRACT: note_on channel=11 note=62 velocity=95 time=0
EXTRACT: note_off channel=13 note=62 velocity=80 time=0
EXTRACT: note_on channel=13 note=62 velocity=95 time=0
EXTRACT: note_off channel=15 note=62 velocity=80 time=0
EXTRACT: note_on channel=15 note=62 velocity=95 time=0
EXTRACT: note_off channel=2 note=34 velocity=80 time=0
EXTRACT: note_on channel=2 note=34 velocity=95 time=0
EXTRACT: note_off channel=9 note=40 velocity=80 time=0
EXTRACT: note_off channel=9 note=51 velocity=80 time=0
EXTRACT: note_off channel=9 note=49 velocity=80 time=0
EXTRACT: note_on channel=9 note=40 velocity=95 time=0
EXTRACT: note_on channel=9 note=51 velocity=63 time=0
EXTRACT: note_on channel=9 note=49 velocity=63 time=0
EXTRACT: note_off channel=13 note=62 velocity=80 time=0.2142855
EXTRACT: note_on channel=13 note=62 velocity=95 time=0
EXTRACT: note_off channel=15 note=62 velocity=80 time=0
EXTRACT: note_on channel=15 note=62 velocity=95 time=0
EXTRACT: note_off channel=2 note=34 velocity=80 time=0
EXTRACT: note_on channel=2 note=34 velocity=95 time=0
EXTRACT: note_off channel=9 note=40 velocity=80 time=0
EXTRACT: note_off channel=9 note=51 velocity=80 time=0
EXTRACT: note_off channel=9 note=49 velocity=80 time=0
EXTRACT: note_on channel=9 note=51 velocity=63 time=0
EXTRACT: note_off channel=6 note=74 velocity=80 time=0.2142855
EXTRACT: note_on channel=6 note=74 velocity=95 time=0
EXTRACT: note_off channel=13 note=62 velocity=80 time=0
EXTRACT: note_on channel=13 note=62 velocity=95 time=0
EXTRACT: note_off channel=15 note=62 velocity=80 time=0
EXTRACT: note_on channel=15 note=62 velocity=95 time=0
EXTRACT: note_off channel=2 note=34 velocity=80 time=0
EXTRACT: note_on channel=2 note=34 velocity=95 time=0
EXTRACT: note_off channel=9 note=51 velocity=80 time=0
EXTRACT: note_on channel=9 note=40 velocity=95 time=0
EXTRACT: note_on channel=9 note=51 velocity=63 time=0
EXTRACT: note_on channel=9 note=49 velocity=63 time=0
EXTRACT: note_off channel=13 note=62 velocity=80 time=0.2142855
EXTRACT: note_on channel=13 note=62 velocity=95 time=0
EXTRACT: note_off channel=15 note=62 velocity=80 time=0
EXTRACT: note_on channel=15 note=62 velocity=95 time=0
EXTRACT: note_off channel=2 note=34 velocity=80 time=0
EXTRACT: note_on channel=2 note=34 velocity=95 time=0
EXTRACT: note_off channel=9 note=40 velocity=80 time=0
EXTRACT: note_off channel=9 note=51 velocity=80 time=0
EXTRACT: note_off channel=9 note=49 velocity=80 time=0
EXTRACT: note_on channel=9 note=51 velocity=63 time=0
EXTRACT: note_off channel=6 note=74 velocity=80 time=0.2142855
EXTRACT: note_on channel=6 note=74 velocity=95 time=0
EXTRACT: note_off channel=4 note=62 velocity=80 time=0
EXTRACT: note_on channel=4 note=62 velocity=95 time=0
EXTRACT: note_off channel=11 note=62 velocity=80 time=0
EXTRACT: note_on channel=11 note=62 velocity=95 time=0
EXTRACT: note_off channel=13 note=62 velocity=80 time=0
EXTRACT: note_on channel=13 note=62 velocity=95 time=0
EXTRACT: note_off channel=15 note=62 velocity=80 time=0
EXTRACT: note_on channel=15 note=62 velocity=95 time=0
EXTRACT: note_off channel=2 note=34 velocity=80 time=0
EXTRACT: note_on channel=2 note=34 velocity=95 time=0
EXTRACT: note_off channel=9 note=51 velocity=80 time=0
EXTRACT: note_on channel=9 note=51 velocity=63 time=0
EXTRACT: note_off channel=13 note=62 velocity=80 time=0.2142855
EXTRACT: note_on channel=13 note=62 velocity=95 time=0
EXTRACT: note_off channel=15 note=62 velocity=80 time=0
EXTRACT: note_on channel=15 note=62 velocity=95 time=0
EXTRACT: note_off channel=2 note=34 velocity=80 time=0
EXTRACT: note_on channel=2 note=34 velocity=95 time=0
EXTRACT: note_off channel=9 note=51 velocity=80 time=0
EXTRACT: note_on channel=9 note=40 velocity=95 time=0
EXTRACT: note_on channel=9 note=51 velocity=63 time=0
EXTRACT: note_on channel=9 note=49 velocity=63 time=0
EXTRACT: note_off channel=13 note=62 velocity=80 time=0.2142855
EXTRACT: note_on channel=13 note=62 velocity=95 time=0
EXTRACT: note_off channel=15 note=62 velocity=80 time=0
EXTRACT: note_on channel=15 note=62 velocity=95 time=0
EXTRACT: note_off channel=2 note=34 velocity=80 time=0
EXTRACT: note_on channel=2 note=34 velocity=95 time=0
EXTRACT: note_off channel=9 note=40 velocity=80 time=0
EXTRACT: note_off channel=9 note=51 velocity=80 time=0
EXTRACT: note_off channel=9 note=49 velocity=80 time=0
EXTRACT: note_on channel=9 note=51 velocity=63 time=0
EXTRACT: note_off channel=6 note=74 velocity=80 time=0.2142855
EXTRACT: note_on channel=6 note=74 velocity=95 time=0
EXTRACT: note_off channel=4 note=62 velocity=80 time=0
EXTRACT: note_on channel=4 note=62 velocity=95 time=0
EXTRACT: note_off channel=11 note=62 velocity=80 time=0
EXTRACT: note_on channel=11 note=62 velocity=95 time=0
EXTRACT: note_off channel=13 note=62 velocity=80 time=0
EXTRACT: note_on channel=13 note=62 velocity=95 time=0
EXTRACT: note_off channel=15 note=62 velocity=80 time=0
EXTRACT: note_on channel=15 note=62 velocity=95 time=0
EXTRACT: note_off channel=2 note=34 velocity=80 time=0
EXTRACT: note_on channel=2 note=34 velocity=95 time=0
EXTRACT: note_off channel=9 note=51 velocity=80 time=0
EXTRACT: note_on channel=9 note=40 velocity=95 time=0
EXTRACT: note_on channel=9 note=51 velocity=63 time=0
EXTRACT: note_on channel=9 note=49 velocity=63 time=0
EXTRACT: note_off channel=13 note=62 velocity=80 time=0.2142855
EXTRACT: note_on channel=13 note=62 velocity=95 time=0
EXTRACT: note_off channel=15 note=62 velocity=80 time=0
EXTRACT: note_on channel=15 note=62 velocity=95 time=0
EXTRACT: note_off channel=2 note=34 velocity=80 time=0
EXTRACT: note_on channel=2 note=34 velocity=95 time=0
EXTRACT: note_off channel=9 note=40 velocity=80 time=0
EXTRACT: note_off channel=9 note=51 velocity=80 time=0
EXTRACT: note_off channel=9 note=49 velocity=80 time=0
EXTRACT: note_on channel=9 note=40 velocity=95 time=0
EXTRACT: note_on channel=9 note=51 velocity=63 time=0
EXTRACT: note_on channel=9 note=49 velocity=63 time=0
EXTRACT: note_off channel=13 note=62 velocity=80 time=0.2142855
EXTRACT: note_on channel=13 note=62 velocity=95 time=0
EXTRACT: note_off channel=15 note=62 velocity=80 time=0
EXTRACT: note_on channel=15 note=62 velocity=95 time=0
EXTRACT: note_off channel=2 note=34 velocity=80 time=0
EXTRACT: note_on channel=2 note=34 velocity=95 time=0
EXTRACT: note_off channel=9 note=40 velocity=80 time=0
EXTRACT: note_off channel=9 note=51 velocity=80 time=0
EXTRACT: note_off channel=9 note=49 velocity=80 time=0
EXTRACT: note_on channel=9 note=51 velocity=63 time=0
EXTRACT: note_off channel=13 note=62 velocity=80 time=0.2142855
EXTRACT: note_on channel=13 note=62 velocity=95 time=0
EXTRACT: note_off channel=15 note=62 velocity=80 time=0
EXTRACT: note_on channel=15 note=62 velocity=95 time=0
EXTRACT: note_off channel=2 note=34 velocity=80 time=0
EXTRACT: note_on channel=2 note=34 velocity=95 time=0
EXTRACT: note_off channel=9 note=51 velocity=80 time=0
EXTRACT: note_on channel=9 note=40 velocity=95 time=0
EXTRACT: note_on channel=9 note=51 velocity=63 time=0
EXTRACT: note_off channel=9 note=40 velocity=80 time=0.10714275
EXTRACT: note_on channel=9 note=40 velocity=76 time=0
EXTRACT: note_off channel=13 note=62 velocity=80 time=0.10714275
EXTRACT: note_on channel=14 note=62 velocity=95 time=0
EXTRACT: note_off channel=15 note=62 velocity=80 time=0
EXTRACT: note_on channel=15 note=62 velocity=95 time=0
EXTRACT: note_off channel=2 note=34 velocity=80 time=0
EXTRACT: note_on channel=2 note=34 velocity=95 time=0
EXTRACT: note_off channel=9 note=40 velocity=80 time=0
EXTRACT: note_off channel=9 note=40 velocity=80 time=0
EXTRACT: note_off channel=9 note=51 velocity=80 time=0
EXTRACT: note_on channel=9 note=40 velocity=95 time=0
EXTRACT: note_on channel=9 note=51 velocity=63 time=0
EXTRACT: pitchwheel channel=14 pitch=640 time=0.1714284
EXTRACT: pitchwheel channel=15 pitch=640 time=0
EXTRACT: note_off channel=6 note=74 velocity=80 time=0.0428571
EXTRACT: note_off channel=0 note=70 velocity=80 time=0
EXTRACT: note_off channel=0 note=62 velocity=80 time=0
EXTRACT: note_off channel=0 note=58 velocity=80 time=0
EXTRACT: note_off channel=0 note=53 velocity=80 time=0
EXTRACT: note_off channel=0 note=50 velocity=80 time=0
EXTRACT: note_off channel=0 note=46 velocity=80 time=0
EXTRACT: note_on channel=0 note=67 velocity=95 time=0
EXTRACT: note_on channel=0 note=63 velocity=95 time=0
EXTRACT: note_on channel=0 note=58 velocity=95 time=0
EXTRACT: note_on channel=0 note=55 velocity=95 time=0
EXTRACT: note_on channel=0 note=51 velocity=95 time=0
EXTRACT: note_off channel=4 note=62 velocity=80 time=0
EXTRACT: note_off channel=8 note=70 velocity=80 time=0
EXTRACT: note_off channel=8 note=62 velocity=80 time=0
EXTRACT: note_off channel=8 note=58 velocity=80 time=0
EXTRACT: note_off channel=8 note=53 velocity=80 time=0
EXTRACT: note_off channel=8 note=50 velocity=80 time=0
EXTRACT: note_off channel=8 note=46 velocity=80 time=0
EXTRACT: note_on channel=8 note=67 velocity=95 time=0
EXTRACT: note_on channel=8 note=63 velocity=95 time=0
EXTRACT: note_on channel=8 note=58 velocity=95 time=0
EXTRACT: note_on channel=8 note=55 velocity=95 time=0
EXTRACT: note_on channel=8 note=51 velocity=95 time=0
EXTRACT: note_off channel=11 note=62 velocity=80 time=0
EXTRACT: note_off channel=14 note=62 velocity=80 time=0
EXTRACT: pitchwheel channel=14 pitch=0 time=0
EXTRACT: note_on channel=13 note=63 velocity=86 time=0
EXTRACT: note_off channel=15 note=62 velocity=80 time=0
EXTRACT: pitchwheel channel=15 pitch=0 time=0
EXTRACT: note_on channel=15 note=63 velocity=86 time=0
EXTRACT: note_off channel=2 note=34 velocity=80 time=0
EXTRACT: note_on channel=2 note=39 velocity=95 time=0
EXTRACT: note_off channel=9 note=40 velocity=80 time=0
EXTRACT: note_off channel=9 note=51 velocity=80 time=0
EXTRACT: note_on channel=9 note=40 velocity=95 time=0
EXTRACT: note_on channel=9 note=51 velocity=63 time=0
EXTRACT: note_on channel=9 note=49 velocity=95 time=0
EXTRACT: note_off channel=13 note=63 velocity=80 time=0.2142855
EXTRACT: note_on channel=13 note=63 velocity=95 time=0
EXTRACT: note_off channel=15 note=63 velocity=80 time=0
EXTRACT: note_on channel=15 note=63 velocity=95 time=0
EXTRACT: note_off channel=2 note=39 velocity=80 time=0
EXTRACT: note_on channel=2 note=39 velocity=95 time=0
EXTRACT: note_off channel=9 note=40 velocity=80 time=0
EXTRACT: note_off channel=9 note=51 velocity=80 time=0
EXTRACT: note_off channel=9 note=49 velocity=80 time=0
EXTRACT: note_on channel=9 note=51 velocity=63 time=0
EXTRACT: note_off channel=13 note=63 velocity=80 time=0.2142855
EXTRACT: note_on channel=13 note=63 velocity=95 time=0
EXTRACT: note_off channel=15 note=63 velocity=80 time=0
EXTRACT: note_on channel=15 note=63 velocity=95 time=0
EXTRACT: note_off channel=2 note=39 velocity=80 time=0
EXTRACT: note_on channel=2 note=39 velocity=95 time=0
EXTRACT: note_off channel=9 note=51 velocity=80 time=0
EXTRACT: note_on channel=9 note=51 velocity=63 time=0
EXTRACT: note_off channel=13 note=63 velocity=80 time=0.2142855
EXTRACT: note_on channel=13 note=63 velocity=95 time=0
EXTRACT: note_off channel=15 note=63 velocity=80 time=0
EXTRACT: note_on channel=15 note=63 velocity=95 time=0
EXTRACT: note_off channel=2 note=39 velocity=80 time=0
EXTRACT: note_on channel=2 note=39 velocity=95 time=0
EXTRACT: note_off channel=9 note=51 velocity=80 time=0
EXTRACT: note_on channel=9 note=40 velocity=95 time=0
EXTRACT: note_on channel=9 note=51 velocity=63 time=0
EXTRACT: note_on channel=9 note=49 velocity=63 time=0
EXTRACT: note_off channel=13 note=63 velocity=80 time=0.2142855
EXTRACT: note_on channel=13 note=63 velocity=95 time=0
EXTRACT: note_off channel=15 note=63 velocity=80 time=0
EXTRACT: note_on channel=15 note=63 velocity=95 time=0
EXTRACT: note_off channel=2 note=39 velocity=80 time=0
EXTRACT: note_on channel=2 note=39 velocity=95 time=0
EXTRACT: note_off channel=9 note=40 velocity=80 time=0
EXTRACT: note_off channel=9 note=51 velocity=80 time=0
EXTRACT: note_off channel=9 note=49 velocity=80 time=0
EXTRACT: note_on channel=9 note=40 velocity=95 time=0
EXTRACT: note_on channel=9 note=51 velocity=63 time=0
EXTRACT: note_on channel=9 note=49 velocity=63 time=0
EXTRACT: note_off channel=13 note=63 velocity=80 time=0.2142855
EXTRACT: note_on channel=13 note=63 velocity=95 time=0
EXTRACT: note_off channel=15 note=63 velocity=80 time=0
EXTRACT: note_on channel=15 note=63 velocity=95 time=0
EXTRACT: note_off channel=2 note=39 velocity=80 time=0
EXTRACT: note_on channel=2 note=39 velocity=95 time=0
EXTRACT: note_off channel=9 note=40 velocity=80 time=0
EXTRACT: note_off channel=9 note=51 velocity=80 time=0
EXTRACT: note_off channel=9 note=49 velocity=80 time=0
EXTRACT: note_on channel=9 note=51 velocity=63 time=0
EXTRACT: note_off channel=13 note=63 velocity=80 time=0.2142855
EXTRACT: note_on channel=13 note=63 velocity=95 time=0
EXTRACT: note_off channel=15 note=63 velocity=80 time=0
EXTRACT: note_on channel=15 note=63 velocity=95 time=0
EXTRACT: note_off channel=2 note=39 velocity=80 time=0
EXTRACT: note_on channel=2 note=39 velocity=95 time=0
EXTRACT: note_off channel=9 note=51 velocity=80 time=0
EXTRACT: note_on channel=9 note=40 velocity=95 time=0
EXTRACT: note_on channel=9 note=51 velocity=63 time=0
EXTRACT: note_on channel=9 note=49 velocity=63 time=0
EXTRACT: note_off channel=13 note=63 velocity=80 time=0.2142855
EXTRACT: note_on channel=13 note=63 velocity=95 time=0
EXTRACT: note_off channel=15 note=63 velocity=80 time=0
EXTRACT: note_on channel=15 note=63 velocity=95 time=0
EXTRACT: note_off channel=2 note=39 velocity=80 time=0
EXTRACT: note_on channel=2 note=39 velocity=95 time=0
EXTRACT: note_off channel=9 note=40 velocity=80 time=0
EXTRACT: note_off channel=9 note=51 velocity=80 time=0
EXTRACT: note_off channel=9 note=49 velocity=80 time=0
EXTRACT: note_on channel=9 note=51 velocity=63 time=0
EXTRACT: note_on channel=6 note=75 velocity=95 time=0.2142855
EXTRACT: note_on channel=4 note=63 velocity=95 time=0
EXTRACT: note_on channel=11 note=63 velocity=95 time=0
EXTRACT: note_off channel=13 note=63 velocity=80 time=0
EXTRACT: note_on channel=13 note=63 velocity=95 time=0
EXTRACT: note_off channel=15 note=63 velocity=80 time=0
EXTRACT: note_on channel=15 note=63 velocity=95 time=0
EXTRACT: note_off channel=2 note=39 velocity=80 time=0
EXTRACT: note_on channel=2 note=39 velocity=95 time=0
EXTRACT: note_off channel=9 note=51 velocity=80 time=0
EXTRACT: note_on channel=9 note=51 velocity=63 time=0
EXTRACT: note_off channel=13 note=63 velocity=80 time=0.2142855
EXTRACT: note_on channel=13 note=63 velocity=95 time=0
EXTRACT: note_off channel=15 note=63 velocity=80 time=0
EXTRACT: note_on channel=15 note=63 velocity=95 time=0
EXTRACT: note_off channel=2 note=39 velocity=80 time=0
EXTRACT: note_on channel=2 note=39 velocity=95 time=0
EXTRACT: note_off channel=9 note=51 velocity=80 time=0
EXTRACT: note_on channel=9 note=40 velocity=95 time=0
EXTRACT: note_on channel=9 note=51 velocity=63 time=0
EXTRACT: note_on channel=9 note=49 velocity=63 time=0
EXTRACT: note_off channel=13 note=63 velocity=80 time=0.2142855
EXTRACT: note_on channel=13 note=63 velocity=95 time=0
EXTRACT: note_off channel=15 note=63 velocity=80 time=0
EXTRACT: note_on channel=15 note=63 velocity=95 time=0
EXTRACT: note_off channel=2 note=39 velocity=80 time=0
EXTRACT: note_on channel=2 note=39 velocity=95 time=0
EXTRACT: note_off channel=9 note=40 velocity=80 time=0
EXTRACT: note_off channel=9 note=51 velocity=80 time=0
EXTRACT: note_off channel=9 note=49 velocity=80 time=0
EXTRACT: note_on channel=9 note=51 velocity=63 time=0
EXTRACT: note_off channel=6 note=75 velocity=80 time=0.2142855
EXTRACT: note_on channel=6 note=79 velocity=95 time=0
EXTRACT: note_off channel=4 note=63 velocity=80 time=0
EXTRACT: note_on channel=4 note=67 velocity=95 time=0
EXTRACT: note_off channel=11 note=63 velocity=80 time=0
EXTRACT: note_on channel=11 note=67 velocity=95 time=0
EXTRACT: note_off channel=13 note=63 velocity=80 time=0
EXTRACT: note_on channel=14 note=63 velocity=95 time=0
EXTRACT: note_off channel=15 note=63 velocity=80 time=0
EXTRACT: note_on channel=15 note=63 velocity=95 time=0
EXTRACT: note_off channel=2 note=39 velocity=80 time=0
EXTRACT: note_on channel=2 note=39 velocity=95 time=0
EXTRACT: note_off channel=9 note=51 velocity=80 time=0
EXTRACT: note_on channel=9 note=40 velocity=95 time=0
EXTRACT: note_on channel=9 note=51 velocity=63 time=0
EXTRACT: note_on channel=9 note=49 velocity=63 time=0
EXTRACT: pitchwheel channel=14 pitch=640 time=0.10714275
EXTRACT: pitchwheel channel=15 pitch=640 time=0
EXTRACT: pitchwheel channel=14 pitch=1408 time=0.017857125
EXTRACT: pitchwheel channel=15 pitch=1408 time=0
EXTRACT: pitchwheel channel=14 pitch=2048 time=0.017857125
EXTRACT: pitchwheel channel=15 pitch=2048 time=0
EXTRACT: pitchwheel channel=14 pitch=2688 time=0.017857125
EXTRACT: pitchwheel channel=15 pitch=2688 time=0
EXTRACT: pitchwheel channel=14 pitch=3456 time=0.017857125
EXTRACT: pitchwheel channel=15 pitch=3456 time=0
EXTRACT: pitchwheel channel=14 pitch=4096 time=0.017857125
EXTRACT: pitchwheel channel=15 pitch=4096 time=0
EXTRACT: note_off channel=14 note=63 velocity=80 time=0.017857125
EXTRACT: pitchwheel channel=14 pitch=0 time=0
EXTRACT: note_on channel=13 note=70 velocity=86 time=0
EXTRACT: note_off channel=15 note=63 velocity=80 time=0
EXTRACT: pitchwheel channel=15 pitch=0 time=0
EXTRACT: note_on channel=15 note=70 velocity=86 time=0
EXTRACT: note_off channel=2 note=39 velocity=80 time=0
EXTRACT: note_on channel=2 note=39 velocity=95 time=0
EXTRACT: note_off channel=9 note=40 velocity=80 time=0
EXTRACT: note_off channel=9 note=51 velocity=80 time=0
EXTRACT: note_off channel=9 note=49 velocity=80 time=0
EXTRACT: note_on channel=9 note=40 velocity=95 time=0
EXTRACT: note_on channel=9 note=51 velocity=63 time=0
EXTRACT: note_on channel=9 note=49 velocity=63 time=0
EXTRACT: note_off channel=13 note=70 velocity=80 time=0.2142855
EXTRACT: note_on channel=13 note=70 velocity=95 time=0
EXTRACT: note_off channel=15 note=70 velocity=80 time=0
EXTRACT: note_on channel=15 note=70 velocity=95 time=0
EXTRACT: note_off channel=2 note=39 velocity=80 time=0
EXTRACT: note_on channel=2 note=39 velocity=95 time=0
EXTRACT: note_off channel=9 note=40 velocity=80 time=0
EXTRACT: note_off channel=9 note=51 velocity=80 time=0
EXTRACT: note_off channel=9 note=49 velocity=80 time=0
EXTRACT: note_on channel=9 note=51 velocity=63 time=0
EXTRACT: note_off channel=13 note=70 velocity=80 time=0.2142855
EXTRACT: note_on channel=13 note=70 velocity=95 time=0
EXTRACT: note_off channel=15 note=70 velocity=80 time=0
EXTRACT: note_on channel=15 note=70 velocity=95 time=0
EXTRACT: note_off channel=2 note=39 velocity=80 time=0
EXTRACT: note_on channel=2 note=39 velocity=95 time=0
EXTRACT: note_off channel=9 note=51 velocity=80 time=0
EXTRACT: note_on channel=9 note=51 velocity=63 time=0
EXTRACT: note_off channel=13 note=70 velocity=80 time=0.2142855
EXTRACT: note_on channel=14 note=70 velocity=95 time=0
EXTRACT: note_off channel=15 note=70 velocity=80 time=0
EXTRACT: note_on channel=15 note=70 velocity=95 time=0
EXTRACT: note_off channel=2 note=39 velocity=80 time=0
EXTRACT: note_on channel=2 note=39 velocity=95 time=0
EXTRACT: note_off channel=9 note=51 velocity=80 time=0
EXTRACT: note_on channel=9 note=51 velocity=63 time=0
EXTRACT: pitchwheel channel=14 pitch=-640 time=0.10714275
EXTRACT: pitchwheel channel=15 pitch=-640 time=0
EXTRACT: pitchwheel channel=14 pitch=-1408 time=0.017857125
EXTRACT: pitchwheel channel=15 pitch=-1408 time=0
EXTRACT: pitchwheel channel=14 pitch=-2048 time=0.017857125
EXTRACT: pitchwheel channel=15 pitch=-2048 time=0
EXTRACT: pitchwheel channel=14 pitch=-2688 time=0.017857125
EXTRACT: pitchwheel channel=15 pitch=-2688 time=0
EXTRACT: pitchwheel channel=14 pitch=-3456 time=0.017857125
EXTRACT: pitchwheel channel=15 pitch=-3456 time=0
EXTRACT: pitchwheel channel=14 pitch=-4096 time=0.017857125
EXTRACT: pitchwheel channel=15 pitch=-4096 time=0
EXTRACT: note_off channel=6 note=79 velocity=80 time=0.017857125
EXTRACT: note_off channel=0 note=67 velocity=80 time=0
EXTRACT: note_off channel=0 note=63 velocity=80 time=0
EXTRACT: note_off channel=0 note=58 velocity=80 time=0
EXTRACT: note_off channel=0 note=55 velocity=80 time=0
EXTRACT: note_off channel=0 note=51 velocity=80 time=0
EXTRACT: note_on channel=0 note=67 velocity=95 time=0
EXTRACT: note_on channel=0 note=63 velocity=95 time=0
EXTRACT: note_on channel=0 note=60 velocity=95 time=0
EXTRACT: note_on channel=0 note=56 velocity=95 time=0
EXTRACT: note_on channel=0 note=51 velocity=95 time=0
EXTRACT: note_off channel=4 note=67 velocity=80 time=0
EXTRACT: note_off channel=8 note=67 velocity=80 time=0
EXTRACT: note_off channel=8 note=63 velocity=80 time=0
EXTRACT: note_off channel=8 note=58 velocity=80 time=0
EXTRACT: note_off channel=8 note=55 velocity=80 time=0
EXTRACT: note_off channel=8 note=51 velocity=80 time=0
EXTRACT: note_on channel=8 note=67 velocity=95 time=0
EXTRACT: note_on channel=8 note=63 velocity=95 time=0
EXTRACT: note_on channel=8 note=60 velocity=95 time=0
EXTRACT: note_on channel=8 note=56 velocity=95 time=0
EXTRACT: note_on channel=8 note=51 velocity=95 time=0
EXTRACT: note_on channel=8 note=44 velocity=95 time=0
EXTRACT: note_off channel=11 note=67 velocity=80 time=0
EXTRACT: note_off channel=14 note=70 velocity=80 time=0
EXTRACT: pitchwheel channel=14 pitch=0 time=0
EXTRACT: note_on channel=13 note=63 velocity=86 time=0
EXTRACT: note_off channel=15 note=70 velocity=80 time=0
EXTRACT: pitchwheel channel=15 pitch=0 time=0
EXTRACT: note_on channel=15 note=63 velocity=86 time=0
EXTRACT: note_off channel=2 note=39 velocity=80 time=0
EXTRACT: note_on channel=2 note=44 velocity=95 time=0
EXTRACT: note_off channel=9 note=51 velocity=80 time=0
EXTRACT: note_on channel=9 note=40 velocity=95 time=0
EXTRACT: note_on channel=9 note=51 velocity=63 time=0
EXTRACT: note_on channel=9 note=49 velocity=63 time=0
EXTRACT: note_off channel=13 note=63 velocity=80 time=0.2142855
EXTRACT: note_on channel=13 note=63 velocity=95 time=0
EXTRACT: note_off channel=15 note=63 velocity=80 time=0
EXTRACT: note_on channel=15 note=63 velocity=95 time=0
EXTRACT: note_off channel=2 note=44 velocity=80 time=0
EXTRACT: note_on channel=2 note=44 velocity=95 time=0
EXTRACT: note_off channel=9 note=40 velocity=80 time=0
EXTRACT: note_off channel=9 note=51 velocity=80 time=0
EXTRACT: note_off channel=9 note=49 velocity=80 time=0
EXTRACT: note_on channel=9 note=51 velocity=63 time=0
EXTRACT: note_off channel=13 note=63 velocity=80 time=0.2142855
EXTRACT: note_on channel=13 note=63 velocity=95 time=0
EXTRACT: note_off channel=15 note=63 velocity=80 time=0
EXTRACT: note_on channel=15 note=63 velocity=95 time=0
EXTRACT: note_off channel=2 note=44 velocity=80 time=0
EXTRACT: note_on channel=2 note=44 velocity=95 time=0
EXTRACT: note_off channel=9 note=51 velocity=80 time=0
EXTRACT: note_on channel=9 note=51 velocity=63 time=0
EXTRACT: note_off channel=13 note=63 velocity=80 time=0.2142855
EXTRACT: note_on channel=13 note=63 velocity=95 time=0
EXTRACT: note_off channel=15 note=63 velocity=80 time=0
EXTRACT: note_on channel=15 note=63 velocity=95 time=0
EXTRACT: note_off channel=2 note=44 velocity=80 time=0
EXTRACT: note_on channel=2 note=44 velocity=95 time=0
EXTRACT: note_off channel=9 note=51 velocity=80 time=0
EXTRACT: note_on channel=9 note=40 velocity=95 time=0
EXTRACT: note_on channel=9 note=51 velocity=63 time=0
EXTRACT: note_on channel=9 note=49 velocity=63 time=0
EXTRACT: note_off channel=13 note=63 velocity=80 time=0.2142855
EXTRACT: note_on channel=13 note=63 velocity=95 time=0
EXTRACT: note_off channel=15 note=63 velocity=80 time=0
EXTRACT: note_on channel=15 note=63 velocity=95 time=0
EXTRACT: note_off channel=2 note=44 velocity=80 time=0
EXTRACT: note_on channel=2 note=44 velocity=95 time=0
EXTRACT: note_off channel=9 note=40 velocity=80 time=0
EXTRACT: note_off channel=9 note=51 velocity=80 time=0
EXTRACT: note_off channel=9 note=49 velocity=80 time=0
EXTRACT: note_on channel=9 note=40 velocity=95 time=0
EXTRACT: note_on channel=9 note=51 velocity=63 time=0
EXTRACT: note_on channel=9 note=49 velocity=63 time=0
EXTRACT: note_on channel=6 note=75 velocity=95 time=0.2142855
EXTRACT: note_on channel=4 note=63 velocity=95 time=0
EXTRACT: note_on channel=11 note=63 velocity=95 time=0
EXTRACT: note_off channel=13 note=63 velocity=80 time=0
EXTRACT: note_on channel=13 note=63 velocity=95 time=0
EXTRACT: note_off channel=15 note=63 velocity=80 time=0
EXTRACT: note_on channel=15 note=63 velocity=95 time=0
EXTRACT: note_off channel=2 note=44 velocity=80 time=0
EXTRACT: note_on channel=2 note=44 velocity=95 time=0
EXTRACT: note_off channel=9 note=40 velocity=80 time=0
EXTRACT: note_off channel=9 note=51 velocity=80 time=0
EXTRACT: note_off channel=9 note=49 velocity=80 time=0
EXTRACT: note_on channel=9 note=51 velocity=63 time=0
EXTRACT: note_off channel=6 note=75 velocity=80 time=0.2142855
EXTRACT: note_on channel=6 note=75 velocity=95 time=0
EXTRACT: note_off channel=4 note=63 velocity=80 time=0
EXTRACT: note_on channel=4 note=63 velocity=95 time=0
EXTRACT: note_off channel=11 note=63 velocity=80 time=0
EXTRACT: note_on channel=11 note=63 velocity=95 time=0
EXTRACT: note_off channel=13 note=63 velocity=80 time=0
EXTRACT: note_on channel=13 note=63 velocity=95 time=0
EXTRACT: note_off channel=15 note=63 velocity=80 time=0
EXTRACT: note_on channel=15 note=63 velocity=95 time=0
EXTRACT: note_off channel=2 note=44 velocity=80 time=0
EXTRACT: note_on channel=2 note=44 velocity=95 time=0
EXTRACT: note_off channel=9 note=51 velocity=80 time=0
EXTRACT: note_on channel=9 note=40 velocity=95 time=0
EXTRACT: note_on channel=9 note=51 velocity=63 time=0
EXTRACT: note_on channel=9 note=49 velocity=63 time=0
EXTRACT: note_off channel=13 note=63 velocity=80 time=0.2142855
EXTRACT: note_on channel=13 note=63 velocity=95 time=0
EXTRACT: note_off channel=15 note=63 velocity=80 time=0
EXTRACT: note_on channel=15 note=63 velocity=95 time=0
EXTRACT: note_off channel=2 note=44 velocity=80 time=0
EXTRACT: note_on channel=2 note=44 velocity=95 time=0
EXTRACT: note_off channel=9 note=40 velocity=80 time=0
EXTRACT: note_off channel=9 note=51 velocity=80 time=0
EXTRACT: note_off channel=9 note=49 velocity=80 time=0
EXTRACT: note_on channel=9 note=51 velocity=63 time=0
EXTRACT: note_off channel=6 note=75 velocity=80 time=0.2142855
EXTRACT: note_on channel=6 note=84 velocity=95 time=0
EXTRACT: note_off channel=4 note=63 velocity=80 time=0
EXTRACT: note_on channel=4 note=72 velocity=95 time=0
EXTRACT: note_off channel=11 note=63 velocity=80 time=0
EXTRACT: note_on channel=11 note=72 velocity=95 time=0
EXTRACT: note_off channel=13 note=63 velocity=80 time=0
EXTRACT: note_on channel=13 note=63 velocity=95 time=0
EXTRACT: note_off channel=15 note=63 velocity=80 time=0
EXTRACT: note_on channel=15 note=63 velocity=95 time=0
EXTRACT: note_off channel=2 note=44 velocity=80 time=0
EXTRACT: note_on channel=2 note=44 velocity=95 time=0
EXTRACT: note_off channel=9 note=51 velocity=80 time=0
EXTRACT: note_on channel=9 note=51 velocity=63 time=0
EXTRACT: note_off channel=13 note=63 velocity=80 time=0.2142855
EXTRACT: note_on channel=13 note=63 velocity=95 time=0
EXTRACT: note_off channel=15 note=63 velocity=80 time=0
EXTRACT: note_on channel=15 note=63 velocity=95 time=0
EXTRACT: note_off channel=2 note=44 velocity=80 time=0
EXTRACT: note_on channel=2 note=44 velocity=95 time=0
EXTRACT: note_off channel=9 note=51 velocity=80 time=0
EXTRACT: note_on channel=9 note=40 velocity=95 time=0
EXTRACT: note_on channel=9 note=51 velocity=63 time=0
EXTRACT: note_on channel=9 note=49 velocity=63 time=0
EXTRACT: note_off channel=13 note=63 velocity=80 time=0.2142855
EXTRACT: note_on channel=13 note=63 velocity=95 time=0
EXTRACT: note_off channel=15 note=63 velocity=80 time=0
EXTRACT: note_on channel=15 note=63 velocity=95 time=0
EXTRACT: note_off channel=2 note=44 velocity=80 time=0
EXTRACT: note_on channel=2 note=44 velocity=95 time=0
EXTRACT: note_off channel=9 note=40 velocity=80 time=0
EXTRACT: note_off channel=9 note=51 velocity=80 time=0
EXTRACT: note_off channel=9 note=49 velocity=80 time=0
EXTRACT: note_on channel=9 note=51 velocity=63 time=0
EXTRACT: note_off channel=6 note=84 velocity=80 time=0.2142855
EXTRACT: note_on channel=6 note=82 velocity=95 time=0
EXTRACT: note_off channel=4 note=72 velocity=80 time=0
EXTRACT: note_on channel=4 note=70 velocity=95 time=0
EXTRACT: note_off channel=11 note=72 velocity=80 time=0
EXTRACT: note_on channel=11 note=70 velocity=95 time=0
EXTRACT: note_off channel=13 note=63 velocity=80 time=0
EXTRACT: note_on channel=14 note=63 velocity=95 time=0
EXTRACT: note_off channel=15 note=63 velocity=80 time=0
EXTRACT: note_on channel=15 note=63 velocity=95 time=0
EXTRACT: note_off channel=2 note=44 velocity=80 time=0
EXTRACT: note_on channel=2 note=44 velocity=95 time=0
EXTRACT: note_off channel=9 note=51 velocity=80 time=0
EXTRACT: note_on channel=9 note=40 velocity=95 time=0
EXTRACT: note_on channel=9 note=51 velocity=63 time=0
EXTRACT: note_on channel=9 note=49 velocity=63 time=0
EXTRACT: pitchwheel channel=14 pitch=640 time=0.10714275
EXTRACT: pitchwheel channel=15 pitch=640 time=0
EXTRACT: pitchwheel channel=14 pitch=1408 time=0.017857125
EXTRACT: pitchwheel channel=15 pitch=1408 time=0
EXTRACT: pitchwheel channel=14 pitch=2048 time=0.017857125
EXTRACT: pitchwheel channel=15 pitch=2048 time=0
EXTRACT: pitchwheel channel=14 pitch=2688 time=0.017857125
EXTRACT: pitchwheel channel=15 pitch=2688 time=0
EXTRACT: pitchwheel channel=14 pitch=3456 time=0.017857125
EXTRACT: pitchwheel channel=15 pitch=3456 time=0
EXTRACT: pitchwheel channel=14 pitch=4096 time=0.017857125
EXTRACT: pitchwheel channel=15 pitch=4096 time=0
EXTRACT: note_off channel=14 note=63 velocity=80 time=0.017857125
EXTRACT: pitchwheel channel=14 pitch=0 time=0
EXTRACT: note_on channel=13 note=70 velocity=86 time=0
EXTRACT: note_off channel=15 note=63 velocity=80 time=0
EXTRACT: pitchwheel channel=15 pitch=0 time=0
EXTRACT: note_on channel=15 note=70 velocity=86 time=0
EXTRACT: note_off channel=2 note=44 velocity=80 time=0
EXTRACT: note_on channel=2 note=44 velocity=95 time=0
EXTRACT: note_off channel=9 note=40 velocity=80 time=0
EXTRACT: note_off channel=9 note=51 velocity=80 time=0
EXTRACT: note_off channel=9 note=49 velocity=80 time=0
EXTRACT: note_on channel=9 note=40 velocity=95 time=0
EXTRACT: note_on channel=9 note=51 velocity=63 time=0
EXTRACT: note_on channel=9 note=49 velocity=63 time=0
EXTRACT: note_off channel=13 note=70 velocity=80 time=0.2142855
EXTRACT: note_on channel=13 note=70 velocity=95 time=0
EXTRACT: note_off channel=15 note=70 velocity=80 time=0
EXTRACT: note_on channel=15 note=70 velocity=95 time=0
EXTRACT: note_off channel=2 note=44 velocity=80 time=0
EXTRACT: note_on channel=2 note=44 velocity=95 time=0
EXTRACT: note_off channel=9 note=40 velocity=80 time=0
EXTRACT: note_off channel=9 note=51 velocity=80 time=0
EXTRACT: note_off channel=9 note=49 velocity=80 time=0
EXTRACT: note_on channel=9 note=51 velocity=63 time=0
EXTRACT: note_off channel=13 note=70 velocity=80 time=0.2142855
EXTRACT: note_on channel=13 note=70 velocity=95 time=0
EXTRACT: note_off channel=15 note=70 velocity=80 time=0
EXTRACT: note_on channel=15 note=70 velocity=95 time=0
EXTRACT: note_off channel=2 note=44 velocity=80 time=0
EXTRACT: note_on channel=2 note=44 velocity=95 time=0
EXTRACT: note_off channel=9 note=51 velocity=80 time=0
EXTRACT: note_on channel=9 note=51 velocity=63 time=0
EXTRACT: note_off channel=6 note=82 velocity=80 time=0.2142855
EXTRACT: note_on channel=6 note=75 velocity=95 time=0
EXTRACT: note_off channel=4 note=70 velocity=80 time=0
EXTRACT: note_on channel=4 note=63 velocity=95 time=0
EXTRACT: note_off channel=11 note=70 velocity=80 time=0
EXTRACT: note_on channel=11 note=63 velocity=95 time=0
EXTRACT: note_off channel=13 note=70 velocity=80 time=0
EXTRACT: note_on channel=14 note=70 velocity=95 time=0
EXTRACT: note_off channel=15 note=70 velocity=80 time=0
EXTRACT: note_on channel=15 note=70 velocity=95 time=0
EXTRACT: note_off channel=2 note=44 velocity=80 time=0
EXTRACT: note_on channel=2 note=44 velocity=95 time=0
EXTRACT: note_off channel=9 note=51 velocity=80 time=0
EXTRACT: note_on channel=9 note=51 velocity=63 time=0
EXTRACT: pitchwheel channel=14 pitch=-640 time=0.10714275
EXTRACT: pitchwheel channel=15 pitch=-640 time=0
EXTRACT: pitchwheel channel=14 pitch=-1408 time=0.017857125
EXTRACT: pitchwheel channel=15 pitch=-1408 time=0
EXTRACT: pitchwheel channel=14 pitch=-2048 time=0.017857125
EXTRACT: pitchwheel channel=15 pitch=-2048 time=0
EXTRACT: pitchwheel channel=14 pitch=-2688 time=0.017857125
EXTRACT: pitchwheel channel=15 pitch=-2688 time=0
EXTRACT: pitchwheel channel=14 pitch=-3456 time=0.017857125
EXTRACT: pitchwheel channel=15 pitch=-3456 time=0
EXTRACT: pitchwheel channel=14 pitch=-4096 time=0.017857125
EXTRACT: pitchwheel channel=15 pitch=-4096 time=0
EXTRACT: note_off channel=6 note=75 velocity=80 time=0.017857125
EXTRACT: note_on channel=6 note=82 velocity=95 time=0
EXTRACT: note_off channel=0 note=67 velocity=80 time=0
EXTRACT: note_off channel=0 note=63 velocity=80 time=0
EXTRACT: note_off channel=0 note=60 velocity=80 time=0
EXTRACT: note_off channel=0 note=56 velocity=80 time=0
EXTRACT: note_off channel=0 note=51 velocity=80 time=0
EXTRACT: note_on channel=0 note=67 velocity=95 time=0
EXTRACT: note_on channel=0 note=63 velocity=95 time=0
EXTRACT: note_on channel=0 note=58 velocity=95 time=0
EXTRACT: note_on channel=0 note=55 velocity=95 time=0
EXTRACT: note_on channel=0 note=51 velocity=95 time=0
EXTRACT: note_off channel=4 note=63 velocity=80 time=0
EXTRACT: note_on channel=4 note=70 velocity=95 time=0
EXTRACT: note_off channel=8 note=67 velocity=80 time=0
EXTRACT: note_off channel=8 note=63 velocity=80 time=0
EXTRACT: note_off channel=8 note=60 velocity=80 time=0
EXTRACT: note_off channel=8 note=56 velocity=80 time=0
EXTRACT: note_off channel=8 note=51 velocity=80 time=0
EXTRACT: note_off channel=8 note=44 velocity=80 time=0
EXTRACT: note_on channel=8 note=67 velocity=95 time=0
EXTRACT: note_on channel=8 note=63 velocity=95 time=0
EXTRACT: note_on channel=8 note=58 velocity=95 time=0
EXTRACT: note_on channel=8 note=55 velocity=95 time=0
EXTRACT: note_on channel=8 note=51 velocity=95 time=0
EXTRACT: note_off channel=11 note=63 velocity=80 time=0
EXTRACT: note_on channel=11 note=70 velocity=95 time=0
EXTRACT: note_off channel=14 note=70 velocity=80 time=0
EXTRACT: pitchwheel channel=14 pitch=0 time=0
EXTRACT: note_on channel=13 note=63 velocity=86 time=0
EXTRACT: note_off channel=15 note=70 velocity=80 time=0
EXTRACT: pitchwheel channel=15 pitch=0 time=0
EXTRACT: note_on channel=15 note=63 velocity=86 time=0
EXTRACT: note_off channel=2 note=44 velocity=80 time=0
EXTRACT: note_on channel=2 note=39 velocity=95 time=0
EXTRACT: note_off channel=9 note=51 velocity=80 time=0
EXTRACT: note_on channel=9 note=40 velocity=95 time=0
EXTRACT: note_on channel=9 note=51 velocity=63 time=0
EXTRACT: note_on channel=9 note=49 velocity=63 time=0
EXTRACT: note_off channel=13 note=63 velocity=80 time=0.2142855
EXTRACT: note_on channel=13 note=63 velocity=95 time=0
EXTRACT: note_off channel=15 note=63 velocity=80 time=0
EXTRACT: note_on channel=15 note=63 velocity=95 time=0
EXTRACT: note_off channel=2 note=39 velocity=80 time=0
EXTRACT: note_on channel=2 note=39 velocity=95 time=0
EXTRACT: note_off channel=9 note=40 velocity=80 time=0
EXTRACT: note_off channel=9 note=51 velocity=80 time=0
EXTRACT: note_off channel=9 note=49 velocity=80 time=0
EXTRACT: note_on channel=9 note=51 velocity=63 time=0
EXTRACT: note_off channel=13 note=63 velocity=80 time=0.2142855
EXTRACT: note_on channel=13 note=63 velocity=95 time=0
EXTRACT: note_off channel=15 note=63 velocity=80 time=0
EXTRACT: note_on channel=15 note=63 velocity=95 time=0
EXTRACT: note_off channel=2 note=39 velocity=80 time=0
EXTRACT: note_on channel=2 note=39 velocity=95 time=0
EXTRACT: note_off channel=9 note=51 velocity=80 time=0
EXTRACT: note_on channel=9 note=51 velocity=63 time=0
EXTRACT: note_off channel=6 note=82 velocity=80 time=0.2142855
EXTRACT: note_on channel=6 note=80 velocity=95 time=0
EXTRACT: note_off channel=4 note=70 velocity=80 time=0
EXTRACT: note_on channel=4 note=68 velocity=95 time=0
EXTRACT: note_off channel=11 note=70 velocity=80 time=0
EXTRACT: note_on channel=11 note=68 velocity=95 time=0
EXTRACT: note_off channel=13 note=63 velocity=80 time=0
EXTRACT: note_on channel=13 note=63 velocity=95 time=0
EXTRACT: note_off channel=15 note=63 velocity=80 time=0
EXTRACT: note_on channel=15 note=63 velocity=95 time=0
EXTRACT: note_off channel=2 note=39 velocity=80 time=0
EXTRACT: note_on channel=2 note=39 velocity=95 time=0
EXTRACT: note_off channel=9 note=51 velocity=80 time=0
EXTRACT: note_on channel=9 note=40 velocity=95 time=0
EXTRACT: note_on channel=9 note=51 velocity=63 time=0
EXTRACT: note_on channel=9 note=49 velocity=63 time=0
EXTRACT: note_off channel=6 note=80 velocity=80 time=0.2142855
EXTRACT: note_on channel=6 note=79 velocity=95 time=0
EXTRACT: note_off channel=4 note=68 velocity=80 time=0
EXTRACT: note_on channel=4 note=67 velocity=95 time=0
EXTRACT: note_off channel=11 note=68 velocity=80 time=0
EXTRACT: note_on channel=11 note=67 velocity=95 time=0
EXTRACT: note_off channel=13 note=63 velocity=80 time=0
EXTRACT: note_on channel=13 note=63 velocity=95 time=0
EXTRACT: note_off channel=15 note=63 velocity=80 time=0
EXTRACT: note_on channel=15 note=63 velocity=95 time=0
EXTRACT: note_off channel=2 note=39 velocity=80 time=0
EXTRACT: note_on channel=2 note=39 velocity=95 time=0
EXTRACT: note_off channel=9 note=40 velocity=80 time=0
EXTRACT: note_off channel=9 note=51 velocity=80 time=0
EXTRACT: note_off channel=9 note=49 velocity=80 time=0
EXTRACT: note_on channel=9 note=40 velocity=95 time=0
EXTRACT: note_on channel=9 note=51 velocity=63 time=0
EXTRACT: note_on channel=9 note=49 velocity=63 time=0
EXTRACT: note_off channel=13 note=63 velocity=80 time=0.2142855
EXTRACT: note_on channel=13 note=63 velocity=95 time=0
EXTRACT: note_off channel=15 note=63 velocity=80 time=0
EXTRACT: note_on channel=15 note=63 velocity=95 time=0
EXTRACT: note_off channel=2 note=39 velocity=80 time=0
EXTRACT: note_on channel=2 note=39 velocity=95 time=0
EXTRACT: note_off channel=9 note=40 velocity=80 time=0
EXTRACT: note_off channel=9 note=51 velocity=80 time=0
EXTRACT: note_off channel=9 note=49 velocity=80 time=0
EXTRACT: note_on channel=9 note=51 velocity=63 time=0
EXTRACT: note_off channel=13 note=63 velocity=80 time=0.2142855
EXTRACT: note_on channel=13 note=63 velocity=95 time=0
EXTRACT: note_off channel=15 note=63 velocity=80 time=0
EXTRACT: note_on channel=15 note=63 velocity=95 time=0
EXTRACT: note_off channel=2 note=39 velocity=80 time=0
EXTRACT: note_on channel=2 note=39 velocity=95 time=0
EXTRACT: note_off channel=9 note=51 velocity=80 time=0
EXTRACT: note_on channel=9 note=40 velocity=95 time=0
EXTRACT: note_on channel=9 note=51 velocity=63 time=0
EXTRACT: note_on channel=9 note=49 velocity=63 time=0
EXTRACT: note_off channel=6 note=79 velocity=80 time=0.2142855
EXTRACT: note_on channel=6 note=79 velocity=95 time=0
EXTRACT: note_off channel=4 note=67 velocity=80 time=0
EXTRACT: note_on channel=4 note=67 velocity=95 time=0
EXTRACT: note_off channel=11 note=67 velocity=80 time=0
EXTRACT: note_on channel=11 note=67 velocity=95 time=0
EXTRACT: note_off channel=13 note=63 velocity=80 time=0
EXTRACT: note_on channel=13 note=63 velocity=95 time=0
EXTRACT: note_off channel=15 note=63 velocity=80 time=0
EXTRACT: note_on channel=15 note=63 velocity=95 time=0
EXTRACT: note_off channel=2 note=39 velocity=80 time=0
EXTRACT: note_on channel=2 note=39 velocity=95 time=0
EXTRACT: note_off channel=9 note=40 velocity=80 time=0
EXTRACT: note_off channel=9 note=51 velocity=80 time=0
EXTRACT: note_off channel=9 note=49 velocity=80 time=0
EXTRACT: note_on channel=9 note=51 velocity=63 time=0
EXTRACT: note_off channel=13 note=63 velocity=80 time=0.2142855
EXTRACT: note_on channel=13 note=63 velocity=95 time=0
EXTRACT: note_off channel=15 note=63 velocity=80 time=0
EXTRACT: note_on channel=15 note=63 velocity=95 time=0
EXTRACT: note_off channel=2 note=39 velocity=80 time=0
EXTRACT: note_on channel=2 note=39 velocity=95 time=0
EXTRACT: note_off channel=9 note=51 velocity=80 time=0
EXTRACT: note_on channel=9 note=51 velocity=63 time=0
EXTRACT: note_off channel=13 note=63 velocity=80 time=0.2142855
EXTRACT: note_on channel=13 note=63 velocity=95 time=0
EXTRACT: note_off channel=15 note=63 velocity=80 time=0
EXTRACT: note_on channel=15 note=63 velocity=95 time=0
EXTRACT: note_off channel=2 note=39 velocity=80 time=0
EXTRACT: note_on channel=2 note=39 velocity=95 time=0
EXTRACT: note_off channel=9 note=51 velocity=80 time=0
EXTRACT: note_on channel=9 note=40 velocity=95 time=0
EXTRACT: note_on channel=9 note=51 velocity=63 time=0
EXTRACT: note_on channel=9 note=49 velocity=63 time=0
EXTRACT: note_off channel=13 note=63 velocity=80 time=0.2142855
EXTRACT: note_on channel=13 note=63 velocity=95 time=0
EXTRACT: note_off channel=15 note=63 velocity=80 time=0
EXTRACT: note_on channel=15 note=63 velocity=95 time=0
EXTRACT: note_off channel=2 note=39 velocity=80 time=0
EXTRACT: note_on channel=2 note=39 velocity=95 time=0
EXTRACT: note_off channel=9 note=40 velocity=80 time=0
EXTRACT: note_off channel=9 note=51 velocity=80 time=0
EXTRACT: note_off channel=9 note=49 velocity=80 time=0
EXTRACT: note_on channel=9 note=51 velocity=63 time=0
EXTRACT: note_off channel=6 note=79 velocity=80 time=0.2142855
EXTRACT: note_on channel=6 note=75 velocity=95 time=0
EXTRACT: note_off channel=4 note=67 velocity=80 time=0
EXTRACT: note_on channel=4 note=63 velocity=95 time=0
EXTRACT: note_off channel=11 note=67 velocity=80 time=0
EXTRACT: note_on channel=11 note=63 velocity=95 time=0
EXTRACT: note_off channel=13 note=63 velocity=80 time=0
EXTRACT: note_on channel=14 note=63 velocity=95 time=0
EXTRACT: note_off channel=15 note=63 velocity=80 time=0
EXTRACT: note_on channel=15 note=63 velocity=95 time=0
EXTRACT: note_off channel=2 note=39 velocity=80 time=0
EXTRACT: note_on channel=2 note=39 velocity=95 time=0
EXTRACT: note_off channel=9 note=51 velocity=80 time=0
EXTRACT: note_on channel=9 note=40 velocity=95 time=0
EXTRACT: note_on channel=9 note=51 velocity=63 time=0
EXTRACT: note_on channel=9 note=49 velocity=63 time=0
EXTRACT: pitchwheel channel=14 pitch=640 time=0.10714275
EXTRACT: pitchwheel channel=15 pitch=640 time=0
EXTRACT: pitchwheel channel=14 pitch=1408 time=0.017857125
EXTRACT: pitchwheel channel=15 pitch=1408 time=0
EXTRACT: pitchwheel channel=14 pitch=2048 time=0.017857125
EXTRACT: pitchwheel channel=15 pitch=2048 time=0
EXTRACT: pitchwheel channel=14 pitch=2688 time=0.017857125
EXTRACT: pitchwheel channel=15 pitch=2688 time=0
EXTRACT: pitchwheel channel=14 pitch=3456 time=0.017857125
EXTRACT: pitchwheel channel=15 pitch=3456 time=0
EXTRACT: pitchwheel channel=14 pitch=4096 time=0.017857125
EXTRACT: pitchwheel channel=15 pitch=4096 time=0
EXTRACT: note_off channel=14 note=63 velocity=80 time=0.017857125
EXTRACT: pitchwheel channel=14 pitch=0 time=0
EXTRACT: note_on channel=13 note=70 velocity=86 time=0
EXTRACT: note_off channel=15 note=63 velocity=80 time=0
EXTRACT: pitchwheel channel=15 pitch=0 time=0
EXTRACT: note_on channel=15 note=70 velocity=86 time=0
EXTRACT: note_off channel=2 note=39 velocity=80 time=0
EXTRACT: note_on channel=2 note=39 velocity=95 time=0
EXTRACT: note_off channel=9 note=40 velocity=80 time=0
EXTRACT: note_off channel=9 note=51 velocity=80 time=0
EXTRACT: note_off channel=9 note=49 velocity=80 time=0
EXTRACT: note_on channel=9 note=40 velocity=95 time=0
EXTRACT: note_on channel=9 note=51 velocity=63 time=0
EXTRACT: note_on channel=9 note=49 velocity=63 time=0
EXTRACT: note_off channel=13 note=70 velocity=80 time=0.2142855
EXTRACT: note_on channel=13 note=70 velocity=95 time=0
EXTRACT: note_off channel=15 note=70 velocity=80 time=0
EXTRACT: note_on channel=15 note=70 velocity=95 time=0
EXTRACT: note_off channel=2 note=39 velocity=80 time=0
EXTRACT: note_on channel=2 note=39 velocity=95 time=0
EXTRACT: note_off channel=9 note=40 velocity=80 time=0
EXTRACT: note_off channel=9 note=51 velocity=80 time=0
EXTRACT: note_off channel=9 note=49 velocity=80 time=0
EXTRACT: note_on channel=9 note=51 velocity=63 time=0
EXTRACT: note_off channel=6 note=75 velocity=80 time=0.2142855
EXTRACT: note_on channel=6 note=74 velocity=95 time=0
EXTRACT: note_off channel=4 note=63 velocity=80 time=0
EXTRACT: note_on channel=4 note=62 velocity=95 time=0
EXTRACT: note_off channel=11 note=63 velocity=80 time=0
EXTRACT: note_on channel=11 note=62 velocity=95 time=0
EXTRACT: note_off channel=13 note=70 velocity=80 time=0
EXTRACT: note_on channel=13 note=70 velocity=95 time=0
EXTRACT: note_off channel=15 note=70 velocity=80 time=0
EXTRACT: note_on channel=15 note=70 velocity=95 time=0
EXTRACT: note_off channel=2 note=39 velocity=80 time=0
EXTRACT: note_on channel=2 note=39 velocity=95 time=0
EXTRACT: note_off channel=9 note=51 velocity=80 time=0
EXTRACT: note_on channel=9 note=51 velocity=63 time=0
EXTRACT: note_off channel=13 note=70 velocity=80 time=0.2142855
EXTRACT: note_on channel=14 note=70 velocity=95 time=0
EXTRACT: note_off channel=15 note=70 velocity=80 time=0
EXTRACT: note_on channel=15 note=70 velocity=95 time=0
EXTRACT: note_off channel=2 note=39 velocity=80 time=0
EXTRACT: note_on channel=2 note=39 velocity=95 time=0
EXTRACT: note_off channel=9 note=51 velocity=80 time=0
EXTRACT: note_on channel=9 note=51 velocity=63 time=0
EXTRACT: pitchwheel channel=14 pitch=-640 time=0.10714275
EXTRACT: pitchwheel channel=15 pitch=-640 time=0
EXTRACT: pitchwheel channel=14 pitch=-1408 time=0.017857125
EXTRACT: pitchwheel channel=15 pitch=-1408 time=0
EXTRACT: pitchwheel channel=14 pitch=-2048 time=0.017857125
EXTRACT: pitchwheel channel=15 pitch=-2048 time=0
EXTRACT: pitchwheel channel=14 pitch=-2688 time=0.017857125
EXTRACT: pitchwheel channel=15 pitch=-2688 time=0
EXTRACT: pitchwheel channel=14 pitch=-3456 time=0.017857125
EXTRACT: pitchwheel channel=15 pitch=-3456 time=0
EXTRACT: pitchwheel channel=14 pitch=-4096 time=0.017857125
EXTRACT: pitchwheel channel=15 pitch=-4096 time=0
EXTRACT: note_off channel=0 note=67 velocity=80 time=0.017857125
EXTRACT: note_off channel=0 note=63 velocity=80 time=0
EXTRACT: note_off channel=0 note=58 velocity=80 time=0
EXTRACT: note_off channel=0 note=55 velocity=80 time=0
EXTRACT: note_off channel=0 note=51 velocity=80 time=0
EXTRACT: note_on channel=0 note=70 velocity=95 time=0
EXTRACT: note_on channel=0 note=62 velocity=95 time=0
EXTRACT: note_on channel=0 note=58 velocity=95 time=0
EXTRACT: note_on channel=0 note=53 velocity=95 time=0
EXTRACT: note_on channel=0 note=50 velocity=95 time=0
EXTRACT: note_on channel=0 note=46 velocity=95 time=0
EXTRACT: note_off channel=8 note=67 velocity=80 time=0
EXTRACT: note_off channel=8 note=63 velocity=80 time=0
EXTRACT: note_off channel=8 note=58 velocity=80 time=0
EXTRACT: note_off channel=8 note=55 velocity=80 time=0
EXTRACT: note_off channel=8 note=51 velocity=80 time=0
EXTRACT: note_on channel=8 note=70 velocity=95 time=0
EXTRACT: note_on channel=8 note=62 velocity=95 time=0
EXTRACT: note_on channel=8 note=58 velocity=95 time=0
EXTRACT: note_on channel=8 note=53 velocity=95 time=0
EXTRACT: note_on channel=8 note=50 velocity=95 time=0
EXTRACT: note_on channel=8 note=46 velocity=95 time=0
EXTRACT: note_off channel=14 note=70 velocity=80 time=0
EXTRACT: pitchwheel channel=14 pitch=0 time=0
EXTRACT: note_on channel=13 note=63 velocity=86 time=0
EXTRACT: note_off channel=15 note=70 velocity=80 time=0
EXTRACT: pitchwheel channel=15 pitch=0 time=0
EXTRACT: note_on channel=15 note=63 velocity=86 time=0
EXTRACT: note_off channel=2 note=39 velocity=80 time=0
EXTRACT: note_on channel=2 note=34 velocity=95 time=0
EXTRACT: note_off channel=9 note=51 velocity=80 time=0
EXTRACT: note_on channel=9 note=40 velocity=95 time=0
EXTRACT: note_on channel=9 note=51 velocity=63 time=0
EXTRACT: note_on channel=9 note=49 velocity=63 time=0
EXTRACT: note_off channel=13 note=63 velocity=80 time=0.2142855
EXTRACT: note_on channel=13 note=63 velocity=95 time=0
EXTRACT: note_off channel=15 note=63 velocity=80 time=0
EXTRACT: note_on channel=15 note=63 velocity=95 time=0
EXTRACT: note_off channel=2 note=34 velocity=80 time=0
EXTRACT: note_on channel=2 note=34 velocity=95 time=0
EXTRACT: note_off channel=9 note=40 velocity=80 time=0
EXTRACT: note_off channel=9 note=51 velocity=80 time=0
EXTRACT: note_off channel=9 note=49 velocity=80 time=0
EXTRACT: note_on channel=9 note=51 velocity=63 time=0
EXTRACT: note_off channel=13 note=63 velocity=80 time=0.2142855
EXTRACT: note_on channel=14 note=63 velocity=95 time=0
EXTRACT: note_off channel=15 note=63 velocity=80 time=0
EXTRACT: note_on channel=15 note=63 velocity=95 time=0
EXTRACT: note_off channel=2 note=34 velocity=80 time=0
EXTRACT: note_on channel=2 note=34 velocity=95 time=0
EXTRACT: note_off channel=9 note=51 velocity=80 time=0
EXTRACT: note_on channel=9 note=51 velocity=63 time=0
EXTRACT: pitchwheel channel=14 pitch=-640 time=0.1714284
EXTRACT: pitchwheel channel=15 pitch=-640 time=0
EXTRACT: note_off channel=14 note=63 velocity=80 time=0.0428571
EXTRACT: pitchwheel channel=14 pitch=0 time=0
EXTRACT: note_on channel=13 note=62 velocity=86 time=0
EXTRACT: note_off channel=15 note=63 velocity=80 time=0
EXTRACT: pitchwheel channel=15 pitch=0 time=0
EXTRACT: note_on channel=15 note=62 velocity=86 time=0
EXTRACT: note_off channel=2 note=34 velocity=80 time=0
EXTRACT: note_on channel=2 note=34 velocity=95 time=0
EXTRACT: note_off channel=9 note=51 velocity=80 time=0
EXTRACT: note_on channel=9 note=40 velocity=95 time=0
EXTRACT: note_on channel=9 note=51 velocity=63 time=0
EXTRACT: note_on channel=9 note=49 velocity=63 time=0
EXTRACT: note_off channel=6 note=74 velocity=80 time=0.2142855
EXTRACT: note_off channel=4 note=62 velocity=80 time=0
EXTRACT: note_off channel=11 note=62 velocity=80 time=0
EXTRACT: note_off channel=13 note=62 velocity=80 time=0
EXTRACT: note_on channel=13 note=62 velocity=95 time=0
EXTRACT: note_off channel=15 note=62 velocity=80 time=0
EXTRACT: note_on channel=15 note=62 velocity=95 time=0
EXTRACT: note_off channel=2 note=34 velocity=80 time=0
EXTRACT: note_on channel=2 note=34 velocity=95 time=0
EXTRACT: note_off channel=9 note=40 velocity=80 time=0
EXTRACT: note_off channel=9 note=51 velocity=80 time=0
EXTRACT: note_off channel=9 note=49 velocity=80 time=0
EXTRACT: note_on channel=9 note=40 velocity=95 time=0
EXTRACT: note_on channel=9 note=51 velocity=63 time=0
EXTRACT: note_on channel=9 note=49 velocity=63 time=0
EXTRACT: note_off channel=13 note=62 velocity=80 time=0.2142855
EXTRACT: note_on channel=13 note=62 velocity=95 time=0
EXTRACT: note_off channel=15 note=62 velocity=80 time=0
EXTRACT: note_on channel=15 note=62 velocity=95 time=0
EXTRACT: note_off channel=2 note=34 velocity=80 time=0
EXTRACT: note_on channel=2 note=34 velocity=95 time=0
EXTRACT: note_off channel=9 note=40 velocity=80 time=0
EXTRACT: note_off channel=9 note=51 velocity=80 time=0
EXTRACT: note_off channel=9 note=49 velocity=80 time=0
EXTRACT: note_on channel=9 note=51 velocity=63 time=0
EXTRACT: note_off channel=13 note=62 velocity=80 time=0.2142855
EXTRACT: note_on channel=13 note=62 velocity=95 time=0
EXTRACT: note_off channel=15 note=62 velocity=80 time=0
EXTRACT: note_on channel=15 note=62 velocity=95 time=0
EXTRACT: note_off channel=2 note=34 velocity=80 time=0
EXTRACT: note_on channel=2 note=34 velocity=95 time=0
EXTRACT: note_off channel=9 note=51 velocity=80 time=0
EXTRACT: note_on channel=9 note=40 velocity=95 time=0
EXTRACT: note_on channel=9 note=51 velocity=63 time=0
EXTRACT: note_on channel=9 note=49 velocity=63 time=0
EXTRACT: note_off channel=13 note=62 velocity=80 time=0.2142855
EXTRACT: note_on channel=13 note=62 velocity=95 time=0
EXTRACT: note_off channel=15 note=62 velocity=80 time=0
EXTRACT: note_on channel=15 note=62 velocity=95 time=0
EXTRACT: note_off channel=2 note=34 velocity=80 time=0
EXTRACT: note_on channel=2 note=34 velocity=95 time=0
EXTRACT: note_off channel=9 note=40 velocity=80 time=0
EXTRACT: note_off channel=9 note=51 velocity=80 time=0
EXTRACT: note_off channel=9 note=49 velocity=80 time=0
EXTRACT: note_on channel=9 note=51 velocity=63 time=0
EXTRACT: note_off channel=13 note=62 velocity=80 time=0.2142855
EXTRACT: note_on channel=13 note=62 velocity=95 time=0
EXTRACT: note_off channel=15 note=62 velocity=80 time=0
EXTRACT: note_on channel=15 note=62 velocity=95 time=0
EXTRACT: note_off channel=2 note=34 velocity=80 time=0
EXTRACT: note_on channel=2 note=34 velocity=95 time=0
EXTRACT: note_off channel=9 note=51 velocity=80 time=0
EXTRACT: note_on channel=9 note=51 velocity=63 time=0
EXTRACT: note_off channel=13 note=62 velocity=80 time=0.2142855
EXTRACT: note_on channel=13 note=62 velocity=95 time=0
EXTRACT: note_off channel=15 note=62 velocity=80 time=0
EXTRACT: note_on channel=15 note=62 velocity=95 time=0
EXTRACT: note_off channel=2 note=34 velocity=80 time=0
EXTRACT: note_on channel=2 note=34 velocity=95 time=0
EXTRACT: note_off channel=9 note=51 velocity=80 time=0
EXTRACT: note_on channel=9 note=40 velocity=95 time=0
EXTRACT: note_on channel=9 note=51 velocity=63 time=0
EXTRACT: note_on channel=9 note=49 velocity=63 time=0
EXTRACT: note_off channel=13 note=62 velocity=80 time=0.2142855
EXTRACT: note_on channel=13 note=62 velocity=95 time=0
EXTRACT: note_off channel=15 note=62 velocity=80 time=0
EXTRACT: note_on channel=15 note=62 velocity=95 time=0
EXTRACT: note_off channel=2 note=34 velocity=80 time=0
EXTRACT: note_on channel=2 note=34 velocity=95 time=0
EXTRACT: note_off channel=9 note=40 velocity=80 time=0
EXTRACT: note_off channel=9 note=51 velocity=80 time=0
EXTRACT: note_off channel=9 note=49 velocity=80 time=0
EXTRACT: note_on channel=9 note=51 velocity=63 time=0
EXTRACT: note_off channel=13 note=62 velocity=80 time=0.2142855
EXTRACT: note_on channel=13 note=62 velocity=95 time=0
EXTRACT: note_off channel=15 note=62 velocity=80 time=0
EXTRACT: note_on channel=15 note=62 velocity=95 time=0
EXTRACT: note_off channel=2 note=34 velocity=80 time=0
EXTRACT: note_on channel=2 note=34 velocity=95 time=0
EXTRACT: note_off channel=9 note=51 velocity=80 time=0
EXTRACT: note_on channel=9 note=40 velocity=95 time=0
EXTRACT: note_on channel=9 note=51 velocity=63 time=0
EXTRACT: note_on channel=9 note=49 velocity=63 time=0
EXTRACT: note_off channel=13 note=62 velocity=80 time=0.2142855
EXTRACT: note_on channel=13 note=62 velocity=95 time=0
EXTRACT: note_off channel=15 note=62 velocity=80 time=0
EXTRACT: note_on channel=15 note=62 velocity=95 time=0
EXTRACT: note_off channel=2 note=34 velocity=80 time=0
EXTRACT: note_on channel=2 note=34 velocity=95 time=0
EXTRACT: note_off channel=9 note=40 velocity=80 time=0
EXTRACT: note_off channel=9 note=51 velocity=80 time=0
EXTRACT: note_off channel=9 note=49 velocity=80 time=0
EXTRACT: note_on channel=9 note=40 velocity=95 time=0
EXTRACT: note_on channel=9 note=51 velocity=63 time=0
EXTRACT: note_on channel=9 note=49 velocity=63 time=0
EXTRACT: note_off channel=13 note=62 velocity=80 time=0.2142855
EXTRACT: note_on channel=13 note=62 velocity=95 time=0
EXTRACT: note_off channel=15 note=62 velocity=80 time=0
EXTRACT: note_on channel=15 note=62 velocity=95 time=0
EXTRACT: note_off channel=2 note=34 velocity=80 time=0
EXTRACT: note_on channel=2 note=34 velocity=95 time=0
EXTRACT: note_off channel=9 note=40 velocity=80 time=0
EXTRACT: note_off channel=9 note=51 velocity=80 time=0
EXTRACT: note_off channel=9 note=49 velocity=80 time=0
EXTRACT: note_on channel=9 note=51 velocity=63 time=0
EXTRACT: note_off channel=13 note=62 velocity=80 time=0.2142855
EXTRACT: note_on channel=13 note=62 velocity=95 time=0
EXTRACT: note_off channel=15 note=62 velocity=80 time=0
EXTRACT: note_on channel=15 note=62 velocity=95 time=0
EXTRACT: note_off channel=2 note=34 velocity=80 time=0
EXTRACT: note_on channel=2 note=34 velocity=95 time=0
EXTRACT: note_off channel=9 note=51 velocity=80 time=0
EXTRACT: note_on channel=9 note=45 velocity=95 time=0
EXTRACT: note_on channel=9 note=51 velocity=63 time=0
EXTRACT: note_off channel=9 note=45 velocity=80 time=0.10714275
EXTRACT: note_off channel=9 note=51 velocity=80 time=0
EXTRACT: note_on channel=9 note=45 velocity=95 time=0
EXTRACT: note_off channel=13 note=62 velocity=80 time=0.10714275
EXTRACT: note_on channel=14 note=62 velocity=95 time=0
EXTRACT: note_off channel=15 note=62 velocity=80 time=0
EXTRACT: note_on channel=15 note=62 velocity=95 time=0
EXTRACT: note_off channel=2 note=34 velocity=80 time=0
EXTRACT: note_on channel=2 note=34 velocity=95 time=0
EXTRACT: note_off channel=9 note=45 velocity=80 time=0
EXTRACT: note_on channel=9 note=43 velocity=95 time=0
EXTRACT: note_on channel=9 note=51 velocity=63 time=0
EXTRACT: pitchwheel channel=15 pitch=-640 time=0.10714275
EXTRACT: note_off channel=9 note=43 velocity=80 time=0
EXTRACT: note_off channel=9 note=51 velocity=80 time=0
EXTRACT: note_on channel=9 note=43 velocity=95 time=0
EXTRACT: pitchwheel channel=15 pitch=-1408 time=0.053571375
EXTRACT: pitchwheel channel=14 pitch=640 time=0.010714275
EXTRACT: note_off channel=0 note=70 velocity=80 time=0.0428571
EXTRACT: note_off channel=0 note=62 velocity=80 time=0
EXTRACT: note_off channel=0 note=58 velocity=80 time=0
EXTRACT: note_off channel=0 note=53 velocity=80 time=0
EXTRACT: note_off channel=0 note=50 velocity=80 time=0
EXTRACT: note_off channel=0 note=46 velocity=80 time=0
EXTRACT: note_off channel=8 note=70 velocity=80 time=0
EXTRACT: note_off channel=8 note=62 velocity=80 time=0
EXTRACT: note_off channel=8 note=58 velocity=80 time=0
EXTRACT: note_off channel=8 note=53 velocity=80 time=0
EXTRACT: note_off channel=8 note=50 velocity=80 time=0
EXTRACT: note_off channel=8 note=46 velocity=80 time=0
EXTRACT: program_change channel=8 program=0 time=0
EXTRACT: program_change channel=10 program=0 time=0
EXTRACT: control_change channel=8 control=7 value=104 time=0
EXTRACT: control_change channel=10 control=7 value=104 time=0
EXTRACT: control_change channel=8 control=10 value=64 time=0
EXTRACT: control_change channel=10 control=10 value=64 time=0
EXTRACT: note_on channel=8 note=68 velocity=95 time=0
EXTRACT: note_on channel=8 note=63 velocity=95 time=0
EXTRACT: note_on channel=8 note=60 velocity=95 time=0
EXTRACT: note_on channel=8 note=56 velocity=95 time=0
EXTRACT: note_on channel=8 note=51 velocity=95 time=0
EXTRACT: note_on channel=8 note=44 velocity=95 time=0
EXTRACT: note_off channel=14 note=62 velocity=80 time=0
EXTRACT: pitchwheel channel=14 pitch=0 time=0
EXTRACT: note_off channel=15 note=62 velocity=80 time=0
EXTRACT: pitchwheel channel=15 pitch=0 time=0
EXTRACT: note_off channel=2 note=34 velocity=80 time=0
EXTRACT: note_off channel=9 note=43 velocity=80 time=0
EXTRACT: note_on channel=9 note=36 velocity=95 time=0
EXTRACT: note_on channel=9 note=49 velocity=95 time=0
EXTRACT: control_change channel=6 control=7 value=72 time=1.714284
EXTRACT: control_change channel=7 control=7 value=72 time=0
EXTRACT: note_on channel=6 note=68 velocity=95 time=0
EXTRACT: note_off channel=9 note=36 velocity=80 time=0
EXTRACT: note_off channel=9 note=49 velocity=80 time=0
EXTRACT: note_off channel=6 note=68 velocity=80 time=0.857142
EXTRACT: note_on channel=6 note=67 velocity=95 time=0
EXTRACT: note_off channel=8 note=68 velocity=80 time=0
EXTRACT: note_off channel=8 note=63 velocity=80 time=0
EXTRACT: note_off channel=8 note=60 velocity=80 time=0
EXTRACT: note_off channel=8 note=56 velocity=80 time=0
EXTRACT: note_off channel=8 note=51 velocity=80 time=0
EXTRACT: note_off channel=8 note=44 velocity=80 time=0
EXTRACT: note_on channel=8 note=67 velocity=95 time=0
EXTRACT: note_on channel=8 note=63 velocity=95 time=0
EXTRACT: note_on channel=8 note=58 velocity=95 time=0
EXTRACT: note_on channel=8 note=55 velocity=95 time=0
EXTRACT: note_on channel=8 note=51 velocity=95 time=0
EXTRACT: note_off channel=6 note=67 velocity=80 time=0.857142
EXTRACT: note_on channel=7 note=65 velocity=95 time=0
EXTRACT: note_off channel=8 note=67 velocity=80 time=0
EXTRACT: note_off channel=8 note=63 velocity=80 time=0
EXTRACT: note_off channel=8 note=58 velocity=80 time=0
EXTRACT: note_off channel=8 note=55 velocity=80 time=0
EXTRACT: note_off channel=8 note=51 velocity=80 time=0
EXTRACT: note_on channel=8 note=70 velocity=95 time=0
EXTRACT: note_on channel=8 note=65 velocity=95 time=0
EXTRACT: note_on channel=8 note=58 velocity=95 time=0
EXTRACT: note_on channel=8 note=53 velocity=95 time=0
EXTRACT: note_on channel=8 note=50 velocity=95 time=0
EXTRACT: note_on channel=8 note=46 velocity=95 time=0
EXTRACT: pitchwheel channel=7 pitch=-640 time=0.2142855
EXTRACT: pitchwheel channel=7 pitch=-1408 time=0.2142855
EXTRACT: pitchwheel channel=7 pitch=-2048 time=0.3428568
EXTRACT: pitchwheel channel=7 pitch=-2048 time=0.0857142
EXTRACT: note_off channel=7 note=65 velocity=80 time=0.428571
EXTRACT: pitchwheel channel=7 pitch=0 time=0
EXTRACT: pitchwheel channel=7 pitch=0 time=0
EXTRACT: note_on channel=6 note=60 velocity=86 time=0
EXTRACT: note_off channel=6 note=60 velocity=80 time=0.428571
EXTRACT: note_on channel=6 note=62 velocity=95 time=0
EXTRACT: note_off channel=8 note=70 velocity=80 time=0
EXTRACT: note_off channel=8 note=65 velocity=80 time=0
EXTRACT: note_off channel=8 note=58 velocity=80 time=0
EXTRACT: note_off channel=8 note=53 velocity=80 time=0
EXTRACT: note_off channel=8 note=50 velocity=80 time=0
EXTRACT: note_off channel=8 note=46 velocity=80 time=0
EXTRACT: note_on channel=8 note=70 velocity=95 time=0
EXTRACT: note_on channel=8 note=62 velocity=95 time=0
EXTRACT: note_on channel=8 note=58 velocity=95 time=0
EXTRACT: note_on channel=8 note=53 velocity=95 time=0
EXTRACT: note_on channel=8 note=50 velocity=95 time=0
EXTRACT: note_on channel=8 note=46 velocity=95 time=0
EXTRACT: note_off channel=6 note=62 velocity=80 time=0.857142
EXTRACT: note_on channel=6 note=63 velocity=95 time=0
EXTRACT: note_off channel=6 note=63 velocity=80 time=0.428571
EXTRACT: note_on channel=6 note=65 velocity=95 time=0
EXTRACT: note_off channel=8 note=70 velocity=80 time=0.428571
EXTRACT: note_off channel=8 note=62 velocity=80 time=0
EXTRACT: note_off channel=8 note=58 velocity=80 time=0
EXTRACT: note_off channel=8 note=53 velocity=80 time=0
EXTRACT: note_off channel=8 note=50 velocity=80 time=0
EXTRACT: note_off channel=8 note=46 velocity=80 time=0
EXTRACT: note_on channel=8 note=68 velocity=95 time=0
EXTRACT: note_on channel=8 note=63 velocity=95 time=0
EXTRACT: note_on channel=8 note=60 velocity=95 time=0
EXTRACT: note_on channel=8 note=56 velocity=95 time=0
EXTRACT: note_on channel=8 note=51 velocity=95 time=0
EXTRACT: note_on channel=8 note=44 velocity=95 time=0
EXTRACT: note_off channel=6 note=65 velocity=80 time=1.714284
EXTRACT: note_on channel=6 note=68 velocity=95 time=0
EXTRACT: note_off channel=6 note=68 velocity=80 time=0.857142
EXTRACT: note_on channel=6 note=67 velocity=95 time=0
EXTRACT: note_off channel=8 note=68 velocity=80 time=0
EXTRACT: note_off channel=8 note=63 velocity=80 time=0
EXTRACT: note_off channel=8 note=60 velocity=80 time=0
EXTRACT: note_off channel=8 note=56 velocity=80 time=0
EXTRACT: note_off channel=8 note=51 velocity=80 time=0
EXTRACT: note_off channel=8 note=44 velocity=80 time=0
EXTRACT: note_on channel=8 note=67 velocity=95 time=0
EXTRACT: note_on channel=8 note=63 velocity=95 time=0
EXTRACT: note_on channel=8 note=58 velocity=95 time=0
EXTRACT: note_on channel=8 note=55 velocity=95 time=0
EXTRACT: note_on channel=8 note=51 velocity=95 time=0
EXTRACT: note_off channel=6 note=67 velocity=80 time=0.857142
EXTRACT: note_on channel=7 note=65 velocity=95 time=0
EXTRACT: note_off channel=8 note=67 velocity=80 time=0
EXTRACT: note_off channel=8 note=63 velocity=80 time=0
EXTRACT: note_off channel=8 note=58 velocity=80 time=0
EXTRACT: note_off channel=8 note=55 velocity=80 time=0
EXTRACT: note_off channel=8 note=51 velocity=80 time=0
EXTRACT: note_on channel=8 note=70 velocity=95 time=0
EXTRACT: note_on channel=8 note=65 velocity=95 time=0
EXTRACT: note_on channel=8 note=58 velocity=95 time=0
EXTRACT: note_on channel=8 note=53 velocity=95 time=0
EXTRACT: note_on channel=8 note=50 velocity=95 time=0
EXTRACT: note_on channel=8 note=46 velocity=95 time=0
EXTRACT: pitchwheel channel=7 pitch=-640 time=0.2142855
EXTRACT: pitchwheel channel=7 pitch=-1408 time=0.2142855
EXTRACT: pitchwheel channel=7 pitch=-2048 time=0.3428568
EXTRACT: pitchwheel channel=7 pitch=-2048 time=0.0857142
EXTRACT: note_off channel=7 note=65 velocity=80 time=0.428571
EXTRACT: pitchwheel channel=7 pitch=0 time=0
EXTRACT: pitchwheel channel=7 pitch=0 time=0
EXTRACT: note_on channel=6 note=60 velocity=86 time=0
EXTRACT: note_off channel=6 note=60 velocity=80 time=0.428571
EXTRACT: note_on channel=6 note=62 velocity=95 time=0
EXTRACT: note_off channel=8 note=70 velocity=80 time=0
EXTRACT: note_off channel=8 note=65 velocity=80 time=0
EXTRACT: note_off channel=8 note=58 velocity=80 time=0
EXTRACT: note_off channel=8 note=53 velocity=80 time=0
EXTRACT: note_off channel=8 note=50 velocity=80 time=0
EXTRACT: note_off channel=8 note=46 velocity=80 time=0
EXTRACT: note_on channel=8 note=70 velocity=95 time=0
EXTRACT: note_on channel=8 note=62 velocity=95 time=0
EXTRACT: note_on channel=8 note=58 velocity=95 time=0
EXTRACT: note_on channel=8 note=53 velocity=95 time=0
EXTRACT: note_on channel=8 note=50 velocity=95 time=0
EXTRACT: note_on channel=8 note=46 velocity=95 time=0
EXTRACT: note_off channel=6 note=62 velocity=80 time=0.857142
EXTRACT: note_on channel=6 note=63 velocity=95 time=0
EXTRACT: note_off channel=6 note=63 velocity=80 time=0.428571
EXTRACT: note_on channel=6 note=65 velocity=95 time=0
EXTRACT: note_off channel=8 note=70 velocity=80 time=0.428571
EXTRACT: note_off channel=8 note=62 velocity=80 time=0
EXTRACT: note_off channel=8 note=58 velocity=80 time=0
EXTRACT: note_off channel=8 note=53 velocity=80 time=0
EXTRACT: note_off channel=8 note=50 velocity=80 time=0
EXTRACT: note_off channel=8 note=46 velocity=80 time=0
EXTRACT: note_on channel=8 note=68 velocity=95 time=0
EXTRACT: note_on channel=8 note=63 velocity=95 time=0
EXTRACT: note_on channel=8 note=60 velocity=95 time=0
EXTRACT: note_on channel=8 note=56 velocity=95 time=0
EXTRACT: note_on channel=8 note=51 velocity=95 time=0
EXTRACT: note_on channel=8 note=44 velocity=95 time=0
EXTRACT: note_off channel=6 note=65 velocity=80 time=0
EXTRACT: note_on channel=6 note=65 velocity=95 time=0
EXTRACT: note_off channel=6 note=65 velocity=80 time=0
EXTRACT: note_on channel=6 note=68 velocity=95 time=0
EXTRACT: note_off channel=6 note=68 velocity=80 time=0
EXTRACT: note_on channel=6 note=67 velocity=95 time=0
EXTRACT: note_off channel=8 note=68 velocity=80 time=0
EXTRACT: note_off channel=8 note=63 velocity=80 time=0
EXTRACT: note_off channel=8 note=60 velocity=80 time=0
EXTRACT: note_off channel=8 note=56 velocity=80 time=0
EXTRACT: note_off channel=8 note=51 velocity=80 time=0
EXTRACT: note_off channel=8 note=44 velocity=80 time=0
EXTRACT: note_on channel=8 note=67 velocity=95 time=0
EXTRACT: note_on channel=8 note=63 velocity=95 time=0
EXTRACT: note_on channel=8 note=58 velocity=95 time=0
EXTRACT: note_on channel=8 note=55 velocity=95 time=0
EXTRACT: note_on channel=8 note=51 velocity=95 time=0
EXTRACT: note_off channel=6 note=67 velocity=80 time=0
EXTRACT: note_on channel=6 note=65 velocity=95 time=0
EXTRACT: note_off channel=8 note=67 velocity=80 time=0
EXTRACT: note_off channel=8 note=63 velocity=80 time=0
EXTRACT: note_off channel=8 note=58 velocity=80 time=0
EXTRACT: note_off channel=8 note=55 velocity=80 time=0
EXTRACT: note_off channel=8 note=51 velocity=80 time=0
EXTRACT: note_on channel=8 note=70 velocity=95 time=0
EXTRACT: note_on channel=8 note=65 velocity=95 time=0
EXTRACT: note_on channel=8 note=58 velocity=95 time=0
EXTRACT: note_on channel=8 note=53 velocity=95 time=0
EXTRACT: note_on channel=8 note=50 velocity=95 time=0
EXTRACT: note_on channel=8 note=46 velocity=95 time=0
EXTRACT: note_off channel=6 note=65 velocity=80 time=2.22222
EXTRACT: note_on channel=6 note=63 velocity=95 time=0
EXTRACT: note_off channel=6 note=63 velocity=80 time=0.444444
EXTRACT: note_on channel=6 note=65 velocity=86 time=0
EXTRACT: note_off channel=8 note=70 velocity=80 time=0
EXTRACT: note_off channel=8 note=65 velocity=80 time=0
EXTRACT: note_off channel=8 note=58 velocity=80 time=0
EXTRACT: note_off channel=8 note=53 velocity=80 time=0
EXTRACT: note_off channel=8 note=50 velocity=80 time=0
EXTRACT: note_off channel=8 note=46 velocity=80 time=0
EXTRACT: note_on channel=8 note=70 velocity=95 time=0
EXTRACT: note_on channel=8 note=62 velocity=95 time=0
EXTRACT: note_on channel=8 note=58 velocity=95 time=0
EXTRACT: note_on channel=8 note=53 velocity=95 time=0
EXTRACT: note_on channel=8 note=50 velocity=95 time=0
EXTRACT: note_off channel=6 note=65 velocity=80 time=0.111111
EXTRACT: note_on channel=6 note=63 velocity=95 time=0.333333
EXTRACT: note_off channel=8 note=70 velocity=80 time=0.444444
EXTRACT: note_off channel=8 note=62 velocity=80 time=0
EXTRACT: note_off channel=8 note=58 velocity=80 time=0
EXTRACT: note_off channel=8 note=53 velocity=80 time=0
EXTRACT: note_off channel=8 note=50 velocity=80 time=0
EXTRACT: note_on channel=8 note=67 velocity=95 time=0
EXTRACT: note_on channel=8 note=63 velocity=95 time=0
EXTRACT: note_on channel=8 note=58 velocity=95 time=0
EXTRACT: note_on channel=8 note=55 velocity=95 time=0
EXTRACT: note_on channel=8 note=51 velocity=95 time=0
EXTRACT: note_on channel=8 note=46 velocity=95 time=0
EXTRACT: note_off channel=6 note=63 velocity=80 time=2.666664
EXTRACT: note_off channel=8 note=67 velocity=80 time=4.44444
EXTRACT: note_off channel=8 note=63 velocity=80 time=0
EXTRACT: note_off channel=8 note=58 velocity=80 time=0
EXTRACT: note_off channel=8 note=55 velocity=80 time=0
EXTRACT: note_off channel=8 note=51 velocity=80 time=0
EXTRACT: note_off channel=8 note=46 velocity=80 time=0
