EXTRACT: program_change channel=0 program=65 time=0
EXTRACT: control_change channel=0 control=100 value=0 time=0
EXTRACT: control_change channel=0 control=101 value=0 time=0
EXTRACT: control_change channel=0 control=6 value=12 time=0
EXTRACT: pitchwheel channel=0 pitch=0 time=0
EXTRACT: control_change channel=0 control=7 value=112 time=0
EXTRACT: control_change channel=0 control=93 value=0 time=0
EXTRACT: control_change channel=0 control=91 value=0 time=0
EXTRACT: control_change channel=0 control=92 value=0 time=0
EXTRACT: control_change channel=0 control=95 value=0 time=0
EXTRACT: program_change channel=6 program=66 time=0
EXTRACT: control_change channel=6 control=100 value=0 time=0
EXTRACT: control_change channel=6 control=101 value=0 time=0
EXTRACT: control_change channel=6 control=6 value=12 time=0
EXTRACT: pitchwheel channel=6 pitch=0 time=0
EXTRACT: control_change channel=6 control=7 value=72 time=0
EXTRACT: control_change channel=6 control=93 value=0 time=0
EXTRACT: control_change channel=6 control=91 value=0 time=0
EXTRACT: control_change channel=6 control=92 value=0 time=0
EXTRACT: control_change channel=6 control=95 value=0 time=0
EXTRACT: program_change channel=10 program=65 time=0
EXTRACT: control_change channel=10 control=100 value=0 time=0
EXTRACT: control_change channel=10 control=101 value=0 time=0
EXTRACT: control_change channel=10 control=6 value=12 time=0
EXTRACT: pitchwheel channel=10 pitch=0 time=0
EXTRACT: control_change channel=10 control=7 value=96 time=0
EXTRACT: control_change channel=10 control=93 value=0 time=0
EXTRACT: control_change channel=10 control=91 value=0 time=0
EXTRACT: control_change channel=10 control=92 value=0 time=0
EXTRACT: control_change channel=10 control=95 value=0 time=0
EXTRACT: program_change channel=10 program=65 time=0
EXTRACT: control_change channel=10 control=100 value=0 time=0
EXTRACT: control_change channel=10 control=101 value=0 time=0
EXTRACT: control_change channel=10 control=6 value=12 time=0
EXTRACT: pitchwheel channel=10 pitch=0 time=0
EXTRACT: control_change channel=10 control=7 value=96 time=0
EXTRACT: control_change channel=10 control=93 value=0 time=0
EXTRACT: control_change channel=10 control=91 value=0 time=0
EXTRACT: control_change channel=10 control=92 value=0 time=0
EXTRACT: control_change channel=10 control=95 value=0 time=0
EXTRACT: program_change channel=1 program=27 time=0
EXTRACT: control_change channel=1 control=100 value=0 time=0
EXTRACT: control_change channel=1 control=101 value=0 time=0
EXTRACT: control_change channel=1 control=6 value=12 time=0
EXTRACT: pitchwheel channel=1 pitch=0 time=0
EXTRACT: control_change channel=1 control=7 value=64 time=0
EXTRACT: control_change channel=1 control=93 value=0 time=0
EXTRACT: control_change channel=1 control=91 value=0 time=0
EXTRACT: control_change channel=1 control=92 value=0 time=0
EXTRACT: control_change channel=1 control=95 value=0 time=0
EXTRACT: note_on channel=1 note=48 velocity=95 time=0
EXTRACT: program_change channel=2 program=26 time=0
EXTRACT: control_change channel=2 control=100 value=0 time=0
EXTRACT: control_change channel=2 control=101 value=0 time=0
EXTRACT: control_change channel=2 control=6 value=12 time=0
EXTRACT: pitchwheel channel=2 pitch=0 time=0
EXTRACT: control_change channel=2 control=7 value=80 time=0
EXTRACT: control_change channel=2 control=93 value=0 time=0
EXTRACT: control_change channel=2 control=91 value=0 time=0
EXTRACT: control_change channel=2 control=92 value=0 time=0
EXTRACT: control_change channel=2 control=95 value=0 time=0
EXTRACT: program_change channel=3 program=28 time=0
EXTRACT: control_change channel=3 control=100 value=0 time=0
EXTRACT: control_change channel=3 control=101 value=0 time=0
EXTRACT: control_change channel=3 control=6 value=12 time=0
EXTRACT: pitchwheel channel=3 pitch=0 time=0
EXTRACT: control_change channel=3 control=7 value=88 time=0
EXTRACT: control_change channel=3 control=93 value=0 time=0
EXTRACT: control_change channel=3 control=91 value=0 time=0
EXTRACT: control_change channel=3 control=92 value=0 time=0
EXTRACT: control_change channel=3 control=95 value=0 time=0
EXTRACT: note_on channel=3 note=48 velocity=95 time=0
EXTRACT: program_change channel=4 program=29 time=0
EXTRACT: control_change channel=4 control=100 value=0 time=0
EXTRACT: control_change channel=4 control=101 value=0 time=0
EXTRACT: control_change channel=4 control=6 value=12 time=0
EXTRACT: pitchwheel channel=4 pitch=0 time=0
EXTRACT: control_change channel=4 control=7 value=64 time=0
EXTRACT: control_change channel=4 control=93 value=0 time=0
EXTRACT: control_change channel=4 control=91 value=0 time=0
EXTRACT: control_change channel=4 control=92 value=0 time=0
EXTRACT: control_change channel=4 control=95 value=0 time=0
EXTRACT: program_change channel=5 program=30 time=0
EXTRACT: control_change channel=5 control=100 value=0 time=0
EXTRACT: control_change channel=5 control=101 value=0 time=0
EXTRACT: control_change channel=5 control=6 value=12 time=0
EXTRACT: pitchwheel channel=5 pitch=0 time=0
EXTRACT: control_change channel=5 control=7 value=64 time=0
EXTRACT: control_change channel=5 control=93 value=0 time=0
EXTRACT: control_change channel=5 control=91 value=0 time=0
EXTRACT: control_change channel=5 control=92 value=0 time=0
EXTRACT: control_change channel=5 control=95 value=0 time=0
EXTRACT: program_change channel=7 program=30 time=0
EXTRACT: control_change channel=7 control=100 value=0 time=0
EXTRACT: control_change channel=7 control=101 value=0 time=0
EXTRACT: control_change channel=7 control=6 value=12 time=0
EXTRACT: pitchwheel channel=7 pitch=0 time=0
EXTRACT: control_change channel=7 control=7 value=48 time=0
EXTRACT: control_change channel=7 control=93 value=0 time=0
EXTRACT: control_change channel=7 control=91 value=0 time=0
EXTRACT: control_change channel=7 control=92 value=0 time=0
EXTRACT: control_change channel=7 control=95 value=0 time=0
EXTRACT: program_change channel=8 program=48 time=0
EXTRACT: control_change channel=8 control=100 value=0 time=0
EXTRACT: control_change channel=8 control=101 value=0 time=0
EXTRACT: control_change channel=8 control=6 value=12 time=0
EXTRACT: pitchwheel channel=8 pitch=0 time=0
EXTRACT: control_change channel=8 control=7 value=72 time=0
EXTRACT: control_change channel=8 control=93 value=0 time=0
EXTRACT: control_change channel=8 control=91 value=0 time=0
EXTRACT: control_change channel=8 control=92 value=0 time=0
EXTRACT: control_change channel=8 control=95 value=0 time=0
EXTRACT: program_change channel=9 program=0 time=0
EXTRACT: control_change channel=9 control=100 value=0 time=0
EXTRACT: control_change channel=9 control=101 value=0 time=0
EXTRACT: control_change channel=9 control=6 value=12 time=0
EXTRACT: pitchwheel channel=9 pitch=0 time=0
EXTRACT: control_change channel=9 control=7 value=104 time=0
EXTRACT: control_change channel=9 control=93 value=0 time=0
EXTRACT: control_change channel=9 control=91 value=0 time=0
EXTRACT: control_change channel=9 control=92 value=0 time=0
EXTRACT: control_change channel=9 control=95 value=0 time=0
EXTRACT: note_on channel=9 note=42 velocity=95 time=0
EXTRACT: note_on channel=9 note=36 velocity=95 time=0
EXTRACT: program_change channel=12 program=33 time=0
EXTRACT: control_change channel=12 control=7 value=127 time=0
EXTRACT: note_on channel=12 note=48 velocity=75 time=0
EXTRACT: note_off channel=9 note=42 velocity=80 time=0.2941175
EXTRACT: note_off channel=9 note=36 velocity=80 time=0
EXTRACT: note_on channel=9 note=42 velocity=95 time=0
EXTRACT: note_off channel=1 note=48 velocity=80 time=0.2941175
EXTRACT: note_on channel=1 note=63 velocity=95 time=0
EXTRACT: note_on channel=1 note=60 velocity=95 time=0
EXTRACT: note_on channel=1 note=48 velocity=95 time=0
EXTRACT: note_off channel=3 note=48 velocity=80 time=0
EXTRACT: note_on channel=3 note=63 velocity=95 time=0
EXTRACT: note_on channel=3 note=60 velocity=95 time=0
EXTRACT: note_on channel=3 note=48 velocity=95 time=0
EXTRACT: note_off channel=9 note=42 velocity=80 time=0
EXTRACT: note_on channel=9 note=42 velocity=95 time=0
EXTRACT: note_on channel=9 note=37 velocity=95 time=0
EXTRACT: note_on channel=12 note=48 velocity=0 time=0.1960783333333333
EXTRACT: note_off channel=1 note=63 velocity=80 time=0.09803916666666665
EXTRACT: note_off channel=1 note=60 velocity=80 time=0
EXTRACT: note_off channel=1 note=48 velocity=80 time=0
EXTRACT: note_on channel=1 note=63 velocity=95 time=0
EXTRACT: note_on channel=1 note=60 velocity=95 time=0
EXTRACT: note_on channel=1 note=48 velocity=95 time=0
EXTRACT: note_off channel=3 note=63 velocity=80 time=0
EXTRACT: note_off channel=3 note=60 velocity=80 time=0
EXTRACT: note_off channel=3 note=48 velocity=80 time=0
EXTRACT: note_on channel=3 note=63 velocity=95 time=0
EXTRACT: note_on channel=3 note=60 velocity=95 time=0
EXTRACT: note_on channel=3 note=48 velocity=95 time=0
EXTRACT: note_off channel=9 note=42 velocity=80 time=0
EXTRACT: note_off channel=9 note=37 velocity=80 time=0
EXTRACT: note_on channel=9 note=42 velocity=95 time=0
EXTRACT: note_on channel=9 note=36 velocity=95 time=0
EXTRACT: note_on channel=12 note=48 velocity=75 time=0
EXTRACT: note_on channel=12 note=48 velocity=0 time=0.2867645625
EXTRACT: note_off channel=1 note=63 velocity=80 time=0.007352937499999999
EXTRACT: note_off channel=1 note=60 velocity=80 time=0
EXTRACT: note_off channel=1 note=48 velocity=80 time=0
EXTRACT: note_on channel=1 note=63 velocity=95 time=0
EXTRACT: note_on channel=1 note=58 velocity=95 time=0
EXTRACT: note_on channel=1 note=48 velocity=95 time=0
EXTRACT: note_off channel=3 note=63 velocity=80 time=0
EXTRACT: note_off channel=3 note=60 velocity=80 time=0
EXTRACT: note_off channel=3 note=48 velocity=80 time=0
EXTRACT: note_on channel=3 note=63 velocity=95 time=0
EXTRACT: note_on channel=3 note=58 velocity=95 time=0
EXTRACT: note_on channel=3 note=48 velocity=95 time=0
EXTRACT: note_off channel=9 note=42 velocity=80 time=0
EXTRACT: note_off channel=9 note=36 velocity=80 time=0
EXTRACT: note_on channel=9 note=42 velocity=95 time=0
EXTRACT: note_on channel=9 note=36 velocity=95 time=0
EXTRACT: note_on channel=12 note=48 velocity=75 time=0
EXTRACT: note_on channel=12 note=48 velocity=0 time=0.2867645625
EXTRACT: note_off channel=1 note=63 velocity=80 time=0.007352937499999999
EXTRACT: note_off channel=1 note=58 velocity=80 time=0
EXTRACT: note_off channel=1 note=48 velocity=80 time=0
EXTRACT: note_on channel=1 note=63 velocity=95 time=0
EXTRACT: note_on channel=1 note=58 velocity=95 time=0
EXTRACT: note_on channel=1 note=48 velocity=95 time=0
EXTRACT: note_off channel=3 note=63 velocity=80 time=0
EXTRACT: note_off channel=3 note=58 velocity=80 time=0
EXTRACT: note_off channel=3 note=48 velocity=80 time=0
EXTRACT: note_on channel=3 note=63 velocity=95 time=0
EXTRACT: note_on channel=3 note=58 velocity=95 time=0
EXTRACT: note_on channel=3 note=48 velocity=95 time=0
EXTRACT: note_off channel=9 note=42 velocity=80 time=0
EXTRACT: note_off channel=9 note=36 velocity=80 time=0
EXTRACT: note_on channel=9 note=42 velocity=95 time=0
EXTRACT: note_on channel=9 note=36 velocity=95 time=0
EXTRACT: note_on channel=12 note=48 velocity=75 time=0
EXTRACT: note_on channel=1 note=53 velocity=95 time=0.14705875
EXTRACT: pitchwheel channel=1 pitch=2048 time=0
EXTRACT: note_on channel=3 note=53 velocity=95 time=0
EXTRACT: pitchwheel channel=3 pitch=2048 time=0
EXTRACT: pitchwheel channel=1 pitch=1408 time=0.049019583333333325
EXTRACT: pitchwheel channel=3 pitch=1408 time=0
EXTRACT: pitchwheel channel=1 pitch=640 time=0.049019583333333325
EXTRACT: pitchwheel channel=3 pitch=640 time=0
EXTRACT: note_on channel=12 note=48 velocity=0 time=0.04166664583333333
EXTRACT: note_off channel=1 note=63 velocity=80 time=0.007352937499999999
EXTRACT: note_off channel=1 note=58 velocity=80 time=0
EXTRACT: note_off channel=1 note=48 velocity=80 time=0
EXTRACT: pitchwheel channel=1 pitch=0 time=0
EXTRACT: note_off channel=3 note=63 velocity=80 time=0
EXTRACT: note_off channel=3 note=58 velocity=80 time=0
EXTRACT: note_off channel=3 note=48 velocity=80 time=0
EXTRACT: pitchwheel channel=3 pitch=0 time=0
EXTRACT: note_off channel=9 note=42 velocity=80 time=0
EXTRACT: note_off channel=9 note=36 velocity=80 time=0
EXTRACT: note_on channel=9 note=42 velocity=95 time=0
EXTRACT: note_on channel=9 note=37 velocity=95 time=0
EXTRACT: note_on channel=1 note=46 velocity=95 time=0.2941175
EXTRACT: note_on channel=3 note=46 velocity=95 time=0
EXTRACT: note_off channel=9 note=42 velocity=80 time=0
EXTRACT: note_off channel=9 note=37 velocity=80 time=0
EXTRACT: note_on channel=9 note=42 velocity=95 time=0
EXTRACT: note_on channel=12 note=46 velocity=75 time=0
EXTRACT: note_off channel=1 note=53 velocity=80 time=0.2941175
EXTRACT: note_on channel=1 note=53 velocity=95 time=0
EXTRACT: note_off channel=3 note=53 velocity=80 time=0
EXTRACT: note_on channel=3 note=53 velocity=95 time=0
EXTRACT: note_off channel=9 note=42 velocity=80 time=0
EXTRACT: note_on channel=9 note=42 velocity=95 time=0
EXTRACT: note_on channel=1 note=62 velocity=95 time=0.2941175
EXTRACT: note_on channel=1 note=56 velocity=95 time=0
EXTRACT: note_on channel=3 note=62 velocity=95 time=0
EXTRACT: note_on channel=3 note=56 velocity=95 time=0
EXTRACT: note_off channel=9 note=42 velocity=80 time=0
EXTRACT: note_on channel=9 note=42 velocity=95 time=0
EXTRACT: note_on channel=9 note=36 velocity=95 time=0
EXTRACT: note_off channel=1 note=46 velocity=80 time=0.2941175
EXTRACT: note_off channel=1 note=53 velocity=80 time=0
EXTRACT: note_off channel=1 note=62 velocity=80 time=0
EXTRACT: note_off channel=1 note=56 velocity=80 time=0
EXTRACT: note_off channel=3 note=46 velocity=80 time=0
EXTRACT: note_off channel=3 note=53 velocity=80 time=0
EXTRACT: note_off channel=3 note=62 velocity=80 time=0
EXTRACT: note_off channel=3 note=56 velocity=80 time=0
EXTRACT: note_off channel=9 note=42 velocity=80 time=0
EXTRACT: note_off channel=9 note=36 velocity=80 time=0
EXTRACT: note_on channel=9 note=42 velocity=95 time=0
EXTRACT: note_on channel=9 note=37 velocity=95 time=0
EXTRACT: note_on channel=12 note=46 velocity=0 time=0.1960783333333333
EXTRACT: note_on channel=1 note=62 velocity=95 time=0.09803916666666665
EXTRACT: note_on channel=1 note=56 velocity=95 time=0
EXTRACT: note_on channel=1 note=46 velocity=95 time=0
EXTRACT: note_on channel=3 note=62 velocity=95 time=0
EXTRACT: note_on channel=3 note=56 velocity=95 time=0
EXTRACT: note_on channel=3 note=46 velocity=95 time=0
EXTRACT: note_off channel=9 note=42 velocity=80 time=0
EXTRACT: note_off channel=9 note=37 velocity=80 time=0
EXTRACT: note_on channel=9 note=42 velocity=95 time=0
EXTRACT: note_on channel=9 note=36 velocity=95 time=0
EXTRACT: note_on channel=12 note=46 velocity=75 time=0
EXTRACT: note_off channel=9 note=42 velocity=80 time=0.2941175
EXTRACT: note_off channel=9 note=36 velocity=80 time=0
EXTRACT: note_on channel=9 note=42 velocity=95 time=0
EXTRACT: note_off channel=1 note=62 velocity=80 time=0.2941175
EXTRACT: note_off channel=1 note=56 velocity=80 time=0
EXTRACT: note_on channel=1 note=56 velocity=95 time=0
EXTRACT: note_off channel=3 note=62 velocity=80 time=0
EXTRACT: note_off channel=3 note=56 velocity=80 time=0
EXTRACT: note_on channel=3 note=56 velocity=95 time=0
EXTRACT: note_off channel=9 note=42 velocity=80 time=0
EXTRACT: note_on channel=9 note=42 velocity=95 time=0
EXTRACT: note_on channel=9 note=36 velocity=95 time=0
EXTRACT: note_on channel=1 note=53 velocity=95 time=0.2941175
EXTRACT: note_on channel=3 note=53 velocity=95 time=0
EXTRACT: note_off channel=9 note=42 velocity=80 time=0
EXTRACT: note_off channel=9 note=36 velocity=80 time=0
EXTRACT: note_on channel=9 note=42 velocity=95 time=0
EXTRACT: note_on channel=9 note=37 velocity=95 time=0
EXTRACT: note_on channel=1 note=62 velocity=95 time=0.2941175
EXTRACT: note_on channel=3 note=62 velocity=95 time=0
EXTRACT: note_off channel=9 note=42 velocity=80 time=0
EXTRACT: note_off channel=9 note=37 velocity=80 time=0
EXTRACT: note_on channel=9 note=42 velocity=95 time=0
EXTRACT: note_off channel=1 note=46 velocity=80 time=0.14705875
EXTRACT: note_off channel=1 note=53 velocity=80 time=0
EXTRACT: note_on channel=1 note=55 velocity=95 time=0
EXTRACT: pitchwheel channel=1 pitch=-2048 time=0
EXTRACT: note_on channel=1 note=48 velocity=95 time=0
EXTRACT: pitchwheel channel=1 pitch=-2048 time=0
EXTRACT: note_off channel=3 note=46 velocity=80 time=0
EXTRACT: note_off channel=3 note=53 velocity=80 time=0
EXTRACT: note_on channel=3 note=55 velocity=95 time=0
EXTRACT: pitchwheel channel=3 pitch=-2048 time=0
EXTRACT: note_on channel=3 note=48 velocity=95 time=0
EXTRACT: pitchwheel channel=3 pitch=-2048 time=0
EXTRACT: note_on channel=12 note=46 velocity=0 time=0
EXTRACT: pitchwheel channel=1 pitch=-1408 time=0.049019583333333325
EXTRACT: pitchwheel channel=1 pitch=-1408 time=0
EXTRACT: pitchwheel channel=3 pitch=-1408 time=0
EXTRACT: pitchwheel channel=3 pitch=-1408 time=0
EXTRACT: pitchwheel channel=1 pitch=-640 time=0.049019583333333325
EXTRACT: pitchwheel channel=1 pitch=-640 time=0
EXTRACT: pitchwheel channel=3 pitch=-640 time=0
EXTRACT: pitchwheel channel=3 pitch=-640 time=0
EXTRACT: pitchwheel channel=1 pitch=0 time=0.049019583333333325
EXTRACT: pitchwheel channel=1 pitch=0 time=0
EXTRACT: pitchwheel channel=3 pitch=0 time=0
EXTRACT: pitchwheel channel=3 pitch=0 time=0
EXTRACT: note_off channel=9 note=42 velocity=80 time=0
EXTRACT: note_on channel=9 note=42 velocity=95 time=0
EXTRACT: note_on channel=9 note=36 velocity=95 time=0
EXTRACT: note_on channel=12 note=48 velocity=75 time=0
EXTRACT: note_on channel=1 note=67 velocity=95 time=0.2941175
EXTRACT: note_on channel=3 note=67 velocity=95 time=0
EXTRACT: note_off channel=9 note=42 velocity=80 time=0
EXTRACT: note_off channel=9 note=36 velocity=80 time=0
EXTRACT: note_on channel=9 note=42 velocity=95 time=0
EXTRACT: note_off channel=1 note=56 velocity=80 time=0.2941175
EXTRACT: note_off channel=1 note=62 velocity=80 time=0
EXTRACT: note_off channel=1 note=48 velocity=80 time=0
EXTRACT: note_on channel=1 note=63 velocity=95 time=0
EXTRACT: note_on channel=1 note=60 velocity=95 time=0
EXTRACT: note_on channel=1 note=48 velocity=95 time=0
EXTRACT: note_off channel=3 note=56 velocity=80 time=0
EXTRACT: note_off channel=3 note=62 velocity=80 time=0
EXTRACT: note_off channel=3 note=48 velocity=80 time=0
EXTRACT: note_on channel=3 note=63 velocity=95 time=0
EXTRACT: note_on channel=3 note=60 velocity=95 time=0
EXTRACT: note_on channel=3 note=48 velocity=95 time=0
EXTRACT: note_off channel=9 note=42 velocity=80 time=0
EXTRACT: note_on channel=9 note=42 velocity=95 time=0
EXTRACT: note_on channel=9 note=37 velocity=95 time=0
EXTRACT: note_on channel=12 note=48 velocity=0 time=0.1960783333333333
EXTRACT: note_off channel=1 note=63 velocity=80 time=0.09803916666666665
EXTRACT: note_off channel=1 note=60 velocity=80 time=0
EXTRACT: note_off channel=1 note=48 velocity=80 time=0
EXTRACT: note_on channel=1 note=63 velocity=95 time=0
EXTRACT: note_on channel=1 note=60 velocity=95 time=0
EXTRACT: note_on channel=1 note=48 velocity=95 time=0
EXTRACT: note_off channel=3 note=63 velocity=80 time=0
EXTRACT: note_off channel=3 note=60 velocity=80 time=0
EXTRACT: note_off channel=3 note=48 velocity=80 time=0
EXTRACT: note_on channel=3 note=63 velocity=95 time=0
EXTRACT: note_on channel=3 note=60 velocity=95 time=0
EXTRACT: note_on channel=3 note=48 velocity=95 time=0
EXTRACT: note_off channel=9 note=42 velocity=80 time=0
EXTRACT: note_off channel=9 note=37 velocity=80 time=0
EXTRACT: note_on channel=9 note=42 velocity=95 time=0
EXTRACT: note_on channel=9 note=36 velocity=95 time=0
EXTRACT: note_on channel=12 note=48 velocity=75 time=0
EXTRACT: note_on channel=12 note=48 velocity=0 time=0.2867645625
EXTRACT: note_off channel=1 note=63 velocity=80 time=0.007352937499999999
EXTRACT: note_off channel=1 note=60 velocity=80 time=0
EXTRACT: note_off channel=1 note=48 velocity=80 time=0
EXTRACT: note_on channel=1 note=63 velocity=95 time=0
EXTRACT: note_on channel=1 note=60 velocity=95 time=0
EXTRACT: note_on channel=1 note=48 velocity=95 time=0
EXTRACT: note_off channel=3 note=63 velocity=80 time=0
EXTRACT: note_off channel=3 note=60 velocity=80 time=0
EXTRACT: note_off channel=3 note=48 velocity=80 time=0
EXTRACT: note_on channel=3 note=63 velocity=95 time=0
EXTRACT: note_on channel=3 note=60 velocity=95 time=0
EXTRACT: note_on channel=3 note=48 velocity=95 time=0
EXTRACT: note_off channel=9 note=42 velocity=80 time=0
EXTRACT: note_off channel=9 note=36 velocity=80 time=0
EXTRACT: note_on channel=9 note=42 velocity=95 time=0
EXTRACT: note_on channel=9 note=36 velocity=95 time=0
EXTRACT: note_on channel=12 note=48 velocity=75 time=0
EXTRACT: note_on channel=12 note=48 velocity=0 time=0.2867645625
EXTRACT: note_off channel=1 note=63 velocity=80 time=0.007352937499999999
EXTRACT: note_off channel=1 note=60 velocity=80 time=0
EXTRACT: note_off channel=1 note=48 velocity=80 time=0
EXTRACT: note_on channel=1 note=63 velocity=95 time=0
EXTRACT: note_on channel=1 note=60 velocity=95 time=0
EXTRACT: note_on channel=1 note=48 velocity=95 time=0
EXTRACT: note_off channel=3 note=63 velocity=80 time=0
EXTRACT: note_off channel=3 note=60 velocity=80 time=0
EXTRACT: note_off channel=3 note=48 velocity=80 time=0
EXTRACT: note_on channel=3 note=63 velocity=95 time=0
EXTRACT: note_on channel=3 note=60 velocity=95 time=0
EXTRACT: note_on channel=3 note=48 velocity=95 time=0
EXTRACT: note_off channel=9 note=42 velocity=80 time=0
EXTRACT: note_off channel=9 note=36 velocity=80 time=0
EXTRACT: note_on channel=9 note=42 velocity=95 time=0
EXTRACT: note_on channel=9 note=36 velocity=95 time=0
EXTRACT: note_on channel=12 note=48 velocity=75 time=0
EXTRACT: note_off channel=1 note=55 velocity=80 time=0.14705875
EXTRACT: note_on channel=1 note=53 velocity=95 time=0
EXTRACT: pitchwheel channel=1 pitch=2048 time=0
EXTRACT: note_off channel=3 note=55 velocity=80 time=0
EXTRACT: note_on channel=3 note=53 velocity=95 time=0
EXTRACT: pitchwheel channel=3 pitch=2048 time=0
EXTRACT: pitchwheel channel=1 pitch=1408 time=0.049019583333333325
EXTRACT: pitchwheel channel=3 pitch=1408 time=0
EXTRACT: pitchwheel channel=1 pitch=640 time=0.049019583333333325
EXTRACT: pitchwheel channel=3 pitch=640 time=0
EXTRACT: note_on channel=12 note=48 velocity=0 time=0.04166664583333333
EXTRACT: note_off channel=1 note=63 velocity=80 time=0.007352937499999999
EXTRACT: note_off channel=1 note=60 velocity=80 time=0
EXTRACT: note_off channel=1 note=48 velocity=80 time=0
EXTRACT: pitchwheel channel=1 pitch=0 time=0
EXTRACT: note_off channel=3 note=63 velocity=80 time=0
EXTRACT: note_off channel=3 note=60 velocity=80 time=0
EXTRACT: note_off channel=3 note=48 velocity=80 time=0
EXTRACT: pitchwheel channel=3 pitch=0 time=0
EXTRACT: note_off channel=9 note=42 velocity=80 time=0
EXTRACT: note_off channel=9 note=36 velocity=80 time=0
EXTRACT: note_on channel=9 note=42 velocity=95 time=0
EXTRACT: note_on channel=9 note=37 velocity=95 time=0
EXTRACT: note_on channel=1 note=46 velocity=95 time=0.2941175
EXTRACT: note_on channel=3 note=46 velocity=95 time=0
EXTRACT: note_off channel=9 note=42 velocity=80 time=0
EXTRACT: note_off channel=9 note=37 velocity=80 time=0
EXTRACT: note_on channel=9 note=42 velocity=95 time=0
EXTRACT: note_on channel=12 note=46 velocity=75 time=0
EXTRACT: note_off channel=1 note=53 velocity=80 time=0.2941175
EXTRACT: note_on channel=1 note=53 velocity=95 time=0
EXTRACT: note_off channel=3 note=53 velocity=80 time=0
EXTRACT: note_on channel=3 note=53 velocity=95 time=0
EXTRACT: note_off channel=9 note=42 velocity=80 time=0
EXTRACT: note_on channel=9 note=42 velocity=95 time=0
EXTRACT: note_off channel=1 note=67 velocity=80 time=0.2941175
EXTRACT: note_on channel=1 note=62 velocity=95 time=0
EXTRACT: note_on channel=1 note=56 velocity=95 time=0
EXTRACT: note_off channel=3 note=67 velocity=80 time=0
EXTRACT: note_on channel=3 note=62 velocity=95 time=0
EXTRACT: note_on channel=3 note=56 velocity=95 time=0
EXTRACT: note_off channel=9 note=42 velocity=80 time=0
EXTRACT: note_on channel=9 note=42 velocity=95 time=0
EXTRACT: note_on channel=9 note=36 velocity=95 time=0
EXTRACT: note_off channel=1 note=46 velocity=80 time=0.2941175
EXTRACT: note_off channel=1 note=53 velocity=80 time=0
EXTRACT: note_off channel=1 note=62 velocity=80 time=0
EXTRACT: note_off channel=1 note=56 velocity=80 time=0
EXTRACT: note_off channel=3 note=46 velocity=80 time=0
EXTRACT: note_off channel=3 note=53 velocity=80 time=0
EXTRACT: note_off channel=3 note=62 velocity=80 time=0
EXTRACT: note_off channel=3 note=56 velocity=80 time=0
EXTRACT: note_off channel=9 note=42 velocity=80 time=0
EXTRACT: note_off channel=9 note=36 velocity=80 time=0
EXTRACT: note_on channel=9 note=42 velocity=95 time=0
EXTRACT: note_on channel=9 note=37 velocity=95 time=0
EXTRACT: note_on channel=12 note=46 velocity=0 time=0.1960783333333333
EXTRACT: note_on channel=1 note=62 velocity=95 time=0.09803916666666665
EXTRACT: note_on channel=1 note=56 velocity=95 time=0
EXTRACT: note_on channel=1 note=46 velocity=95 time=0
EXTRACT: note_on channel=3 note=62 velocity=95 time=0
EXTRACT: note_on channel=3 note=56 velocity=95 time=0
EXTRACT: note_on channel=3 note=46 velocity=95 time=0
EXTRACT: note_off channel=9 note=42 velocity=80 time=0
EXTRACT: note_off channel=9 note=37 velocity=80 time=0
EXTRACT: note_on channel=9 note=42 velocity=95 time=0
EXTRACT: note_on channel=9 note=36 velocity=95 time=0
EXTRACT: note_on channel=12 note=46 velocity=75 time=0
EXTRACT: note_off channel=9 note=42 velocity=80 time=0.2941175
EXTRACT: note_off channel=9 note=36 velocity=80 time=0
EXTRACT: note_on channel=9 note=42 velocity=95 time=0
EXTRACT: note_off channel=1 note=56 velocity=80 time=0.2941175
EXTRACT: note_on channel=1 note=56 velocity=95 time=0
EXTRACT: note_off channel=3 note=56 velocity=80 time=0
EXTRACT: note_on channel=3 note=56 velocity=95 time=0
EXTRACT: note_off channel=9 note=42 velocity=80 time=0
EXTRACT: note_on channel=9 note=42 velocity=95 time=0
EXTRACT: note_on channel=9 note=36 velocity=95 time=0
EXTRACT: note_on channel=1 note=53 velocity=95 time=0.2941175
EXTRACT: note_on channel=3 note=53 velocity=95 time=0
EXTRACT: note_off channel=9 note=42 velocity=80 time=0
EXTRACT: note_off channel=9 note=36 velocity=80 time=0
EXTRACT: note_on channel=9 note=42 velocity=95 time=0
EXTRACT: note_on channel=9 note=37 velocity=95 time=0
EXTRACT: note_off channel=1 note=62 velocity=80 time=0.2941175
EXTRACT: note_on channel=1 note=62 velocity=95 time=0
EXTRACT: note_off channel=3 note=62 velocity=80 time=0
EXTRACT: note_on channel=3 note=62 velocity=95 time=0
EXTRACT: note_off channel=9 note=42 velocity=80 time=0
EXTRACT: note_off channel=9 note=37 velocity=80 time=0
EXTRACT: note_on channel=9 note=42 velocity=95 time=0
EXTRACT: note_on channel=12 note=46 velocity=0 time=0.14705875
EXTRACT: note_off channel=1 note=46 velocity=80 time=0.14705875
EXTRACT: note_on channel=1 note=48 velocity=95 time=0
EXTRACT: note_off channel=3 note=46 velocity=80 time=0
EXTRACT: note_on channel=3 note=48 velocity=95 time=0
EXTRACT: note_off channel=9 note=42 velocity=80 time=0
EXTRACT: note_on channel=9 note=42 velocity=95 time=0
EXTRACT: note_on channel=9 note=36 velocity=95 time=0
EXTRACT: note_on channel=12 note=48 velocity=75 time=0
EXTRACT: note_off channel=9 note=42 velocity=80 time=0.2941175
EXTRACT: note_off channel=9 note=36 velocity=80 time=0
EXTRACT: note_on channel=9 note=42 velocity=95 time=0
EXTRACT: note_on channel=0 note=63 velocity=95 time=0.2941175
EXTRACT: note_off channel=1 note=56 velocity=80 time=0
EXTRACT: note_off channel=1 note=62 velocity=80 time=0
EXTRACT: note_off channel=1 note=48 velocity=80 time=0
EXTRACT: note_on channel=1 note=63 velocity=95 time=0
EXTRACT: note_on channel=1 note=60 velocity=95 time=0
EXTRACT: note_on channel=1 note=48 velocity=95 time=0
EXTRACT: note_off channel=3 note=56 velocity=80 time=0
EXTRACT: note_off channel=3 note=62 velocity=80 time=0
EXTRACT: note_off channel=3 note=48 velocity=80 time=0
EXTRACT: note_on channel=3 note=63 velocity=95 time=0
EXTRACT: note_on channel=3 note=60 velocity=95 time=0
EXTRACT: note_on channel=3 note=48 velocity=95 time=0
EXTRACT: note_off channel=9 note=42 velocity=80 time=0
EXTRACT: note_on channel=9 note=42 velocity=95 time=0
EXTRACT: note_on channel=9 note=37 velocity=95 time=0
EXTRACT: note_on channel=12 note=48 velocity=0 time=0.1960783333333333
EXTRACT: note_off channel=0 note=63 velocity=80 time=0.09803916666666665
EXTRACT: note_on channel=0 note=63 velocity=95 time=0
EXTRACT: note_off channel=1 note=63 velocity=80 time=0
EXTRACT: note_off channel=1 note=60 velocity=80 time=0
EXTRACT: note_off channel=1 note=48 velocity=80 time=0
EXTRACT: note_on channel=1 note=63 velocity=95 time=0
EXTRACT: note_on channel=1 note=60 velocity=95 time=0
EXTRACT: note_on channel=1 note=48 velocity=95 time=0
EXTRACT: note_off channel=3 note=63 velocity=80 time=0
EXTRACT: note_off channel=3 note=60 velocity=80 time=0
EXTRACT: note_off channel=3 note=48 velocity=80 time=0
EXTRACT: note_on channel=3 note=63 velocity=95 time=0
EXTRACT: note_on channel=3 note=60 velocity=95 time=0
EXTRACT: note_on channel=3 note=48 velocity=95 time=0
EXTRACT: note_off channel=9 note=42 velocity=80 time=0
EXTRACT: note_off channel=9 note=37 velocity=80 time=0
EXTRACT: note_on channel=9 note=42 velocity=95 time=0
EXTRACT: note_on channel=9 note=36 velocity=95 time=0
EXTRACT: note_on channel=12 note=48 velocity=75 time=0
EXTRACT: note_on channel=12 note=48 velocity=0 time=0.2867645625
EXTRACT: note_off channel=0 note=63 velocity=80 time=0.007352937499999999
EXTRACT: note_on channel=0 note=63 velocity=95 time=0
EXTRACT: note_off channel=1 note=63 velocity=80 time=0
EXTRACT: note_off channel=1 note=60 velocity=80 time=0
EXTRACT: note_off channel=1 note=48 velocity=80 time=0
EXTRACT: note_on channel=1 note=63 velocity=95 time=0
EXTRACT: note_on channel=1 note=58 velocity=95 time=0
EXTRACT: note_on channel=1 note=48 velocity=95 time=0
EXTRACT: note_off channel=3 note=63 velocity=80 time=0
EXTRACT: note_off channel=3 note=60 velocity=80 time=0
EXTRACT: note_off channel=3 note=48 velocity=80 time=0
EXTRACT: note_on channel=3 note=63 velocity=95 time=0
EXTRACT: note_on channel=3 note=58 velocity=95 time=0
EXTRACT: note_on channel=3 note=48 velocity=95 time=0
EXTRACT: note_off channel=9 note=42 velocity=80 time=0
EXTRACT: note_off channel=9 note=36 velocity=80 time=0
EXTRACT: note_on channel=9 note=42 velocity=95 time=0
EXTRACT: note_on channel=9 note=36 velocity=95 time=0
EXTRACT: note_on channel=12 note=48 velocity=75 time=0
EXTRACT: note_on channel=12 note=48 velocity=0 time=0.2867645625
EXTRACT: note_off channel=0 note=63 velocity=80 time=0.007352937499999999
EXTRACT: note_on channel=0 note=63 velocity=95 time=0
EXTRACT: note_off channel=1 note=63 velocity=80 time=0
EXTRACT: note_off channel=1 note=58 velocity=80 time=0
EXTRACT: note_off channel=1 note=48 velocity=80 time=0
EXTRACT: note_on channel=1 note=63 velocity=95 time=0
EXTRACT: note_on channel=1 note=58 velocity=95 time=0
EXTRACT: note_on channel=1 note=48 velocity=95 time=0
EXTRACT: note_off channel=3 note=63 velocity=80 time=0
EXTRACT: note_off channel=3 note=58 velocity=80 time=0
EXTRACT: note_off channel=3 note=48 velocity=80 time=0
EXTRACT: note_on channel=3 note=63 velocity=95 time=0
EXTRACT: note_on channel=3 note=58 velocity=95 time=0
EXTRACT: note_on channel=3 note=48 velocity=95 time=0
EXTRACT: note_off channel=9 note=42 velocity=80 time=0
EXTRACT: note_off channel=9 note=36 velocity=80 time=0
EXTRACT: note_on channel=9 note=42 velocity=95 time=0
EXTRACT: note_on channel=9 note=36 velocity=95 time=0
EXTRACT: note_on channel=12 note=48 velocity=75 time=0
EXTRACT: note_off channel=1 note=53 velocity=80 time=0.14705875
EXTRACT: note_on channel=1 note=53 velocity=95 time=0
EXTRACT: pitchwheel channel=1 pitch=2048 time=0
EXTRACT: note_off channel=3 note=53 velocity=80 time=0
EXTRACT: note_on channel=3 note=53 velocity=95 time=0
EXTRACT: pitchwheel channel=3 pitch=2048 time=0
EXTRACT: pitchwheel channel=1 pitch=1408 time=0.049019583333333325
EXTRACT: pitchwheel channel=3 pitch=1408 time=0
EXTRACT: pitchwheel channel=1 pitch=640 time=0.049019583333333325
EXTRACT: pitchwheel channel=3 pitch=640 time=0
EXTRACT: note_on channel=12 note=48 velocity=0 time=0.04166664583333333
EXTRACT: note_off channel=1 note=63 velocity=80 time=0.007352937499999999
EXTRACT: note_off channel=1 note=58 velocity=80 time=0
EXTRACT: note_off channel=1 note=48 velocity=80 time=0
EXTRACT: pitchwheel channel=1 pitch=0 time=0
EXTRACT: note_off channel=3 note=63 velocity=80 time=0
EXTRACT: note_off channel=3 note=58 velocity=80 time=0
EXTRACT: note_off channel=3 note=48 velocity=80 time=0
EXTRACT: pitchwheel channel=3 pitch=0 time=0
EXTRACT: note_off channel=9 note=42 velocity=80 time=0
EXTRACT: note_off channel=9 note=36 velocity=80 time=0
EXTRACT: note_on channel=9 note=42 velocity=95 time=0
EXTRACT: note_on channel=9 note=37 velocity=95 time=0
EXTRACT: note_off channel=0 note=63 velocity=80 time=0.2941175
EXTRACT: note_on channel=0 note=65 velocity=95 time=0
EXTRACT: note_on channel=1 note=46 velocity=95 time=0
EXTRACT: note_on channel=3 note=46 velocity=95 time=0
EXTRACT: note_off channel=9 note=42 velocity=80 time=0
EXTRACT: note_off channel=9 note=37 velocity=80 time=0
EXTRACT: note_on channel=9 note=42 velocity=95 time=0
EXTRACT: note_on channel=12 note=46 velocity=75 time=0
EXTRACT: note_off channel=0 note=65 velocity=80 time=0.2941175
EXTRACT: note_on channel=0 note=62 velocity=95 time=0
EXTRACT: note_off channel=1 note=53 velocity=80 time=0
EXTRACT: note_on channel=1 note=53 velocity=95 time=0
EXTRACT: note_off channel=3 note=53 velocity=80 time=0
EXTRACT: note_on channel=3 note=53 velocity=95 time=0
EXTRACT: note_off channel=9 note=42 velocity=80 time=0
EXTRACT: note_on channel=9 note=42 velocity=95 time=0
EXTRACT: note_off channel=0 note=62 velocity=80 time=0.2941175
EXTRACT: note_on channel=0 note=62 velocity=95 time=0
EXTRACT: note_on channel=1 note=62 velocity=95 time=0
EXTRACT: note_on channel=1 note=56 velocity=95 time=0
EXTRACT: note_on channel=3 note=62 velocity=95 time=0
EXTRACT: note_on channel=3 note=56 velocity=95 time=0
EXTRACT: note_off channel=9 note=42 velocity=80 time=0
EXTRACT: note_on channel=9 note=42 velocity=95 time=0
EXTRACT: note_on channel=9 note=36 velocity=95 time=0
EXTRACT: note_off channel=0 note=62 velocity=80 time=0.2941175
EXTRACT: note_off channel=1 note=46 velocity=80 time=0
EXTRACT: note_off channel=1 note=53 velocity=80 time=0
EXTRACT: note_off channel=1 note=62 velocity=80 time=0
EXTRACT: note_off channel=1 note=56 velocity=80 time=0
EXTRACT: note_off channel=3 note=46 velocity=80 time=0
EXTRACT: note_off channel=3 note=53 velocity=80 time=0
EXTRACT: note_off channel=3 note=62 velocity=80 time=0
EXTRACT: note_off channel=3 note=56 velocity=80 time=0
EXTRACT: note_off channel=9 note=42 velocity=80 time=0
EXTRACT: note_off channel=9 note=36 velocity=80 time=0
EXTRACT: note_on channel=9 note=42 velocity=95 time=0
EXTRACT: note_on channel=9 note=37 velocity=95 time=0
EXTRACT: note_on channel=12 note=46 velocity=0 time=0.1960783333333333
EXTRACT: note_on channel=0 note=60 velocity=95 time=0.09803916666666665
EXTRACT: note_on channel=1 note=62 velocity=95 time=0
EXTRACT: note_on channel=1 note=56 velocity=95 time=0
EXTRACT: note_on channel=1 note=46 velocity=95 time=0
EXTRACT: note_on channel=3 note=62 velocity=95 time=0
EXTRACT: note_on channel=3 note=56 velocity=95 time=0
EXTRACT: note_on channel=3 note=46 velocity=95 time=0
EXTRACT: note_off channel=9 note=42 velocity=80 time=0
EXTRACT: note_off channel=9 note=37 velocity=80 time=0
EXTRACT: note_on channel=9 note=42 velocity=95 time=0
EXTRACT: note_on channel=9 note=36 velocity=95 time=0
EXTRACT: note_on channel=12 note=46 velocity=75 time=0
EXTRACT: note_off channel=0 note=60 velocity=80 time=0.2941175
EXTRACT: note_on channel=0 note=58 velocity=95 time=0
EXTRACT: note_off channel=9 note=42 velocity=80 time=0
EXTRACT: note_off channel=9 note=36 velocity=80 time=0
EXTRACT: note_on channel=9 note=42 velocity=95 time=0
EXTRACT: note_off channel=0 note=58 velocity=80 time=0.2941175
EXTRACT: note_on channel=0 note=58 velocity=95 time=0
EXTRACT: note_off channel=1 note=62 velocity=80 time=0
EXTRACT: note_off channel=1 note=56 velocity=80 time=0
EXTRACT: note_on channel=1 note=56 velocity=95 time=0
EXTRACT: note_off channel=3 note=62 velocity=80 time=0
EXTRACT: note_off channel=3 note=56 velocity=80 time=0
EXTRACT: note_on channel=3 note=56 velocity=95 time=0
EXTRACT: note_off channel=9 note=42 velocity=80 time=0
EXTRACT: note_on channel=9 note=42 velocity=95 time=0
EXTRACT: note_on channel=9 note=36 velocity=95 time=0
EXTRACT: note_off channel=0 note=58 velocity=80 time=0.2941175
EXTRACT: note_on channel=0 note=56 velocity=86 time=0
EXTRACT: note_on channel=1 note=53 velocity=95 time=0
EXTRACT: note_on channel=3 note=53 velocity=95 time=0
EXTRACT: note_off channel=9 note=42 velocity=80 time=0
EXTRACT: note_off channel=9 note=36 velocity=80 time=0
EXTRACT: note_on channel=9 note=42 velocity=95 time=0
EXTRACT: note_on channel=9 note=37 velocity=95 time=0
EXTRACT: note_off channel=0 note=56 velocity=80 time=0.2941175
EXTRACT: note_on channel=0 note=56 velocity=95 time=0
EXTRACT: note_on channel=1 note=62 velocity=95 time=0
EXTRACT: note_on channel=3 note=62 velocity=95 time=0
EXTRACT: note_off channel=9 note=42 velocity=80 time=0
EXTRACT: note_off channel=9 note=37 velocity=80 time=0
EXTRACT: note_on channel=9 note=42 velocity=95 time=0
EXTRACT: note_off channel=1 note=46 velocity=80 time=0.14705875
EXTRACT: note_off channel=1 note=53 velocity=80 time=0
EXTRACT: note_on channel=1 note=55 velocity=95 time=0
EXTRACT: pitchwheel channel=1 pitch=-2048 time=0
EXTRACT: note_on channel=1 note=48 velocity=95 time=0
EXTRACT: pitchwheel channel=1 pitch=-2048 time=0
EXTRACT: note_off channel=3 note=46 velocity=80 time=0
EXTRACT: note_off channel=3 note=53 velocity=80 time=0
EXTRACT: note_on channel=3 note=55 velocity=95 time=0
EXTRACT: pitchwheel channel=3 pitch=-2048 time=0
EXTRACT: note_on channel=3 note=48 velocity=95 time=0
EXTRACT: pitchwheel channel=3 pitch=-2048 time=0
EXTRACT: note_on channel=12 note=46 velocity=0 time=0
EXTRACT: pitchwheel channel=1 pitch=-1408 time=0.049019583333333325
EXTRACT: pitchwheel channel=1 pitch=-1408 time=0
EXTRACT: pitchwheel channel=3 pitch=-1408 time=0
EXTRACT: pitchwheel channel=3 pitch=-1408 time=0
EXTRACT: pitchwheel channel=1 pitch=-640 time=0.049019583333333325
EXTRACT: pitchwheel channel=1 pitch=-640 time=0
EXTRACT: pitchwheel channel=3 pitch=-640 time=0
EXTRACT: pitchwheel channel=3 pitch=-640 time=0
EXTRACT: note_off channel=0 note=56 velocity=80 time=0.049019583333333325
EXTRACT: note_on channel=0 note=55 velocity=86 time=0
EXTRACT: pitchwheel channel=1 pitch=0 time=0
EXTRACT: pitchwheel channel=1 pitch=0 time=0
EXTRACT: pitchwheel channel=3 pitch=0 time=0
EXTRACT: pitchwheel channel=3 pitch=0 time=0
EXTRACT: note_off channel=9 note=42 velocity=80 time=0
EXTRACT: note_on channel=9 note=42 velocity=95 time=0
EXTRACT: note_on channel=9 note=36 velocity=95 time=0
EXTRACT: note_on channel=12 note=48 velocity=75 time=0
EXTRACT: note_off channel=0 note=55 velocity=80 time=0.2941175
EXTRACT: note_on channel=1 note=67 velocity=95 time=0
EXTRACT: note_on channel=3 note=67 velocity=95 time=0
EXTRACT: note_off channel=9 note=42 velocity=80 time=0
EXTRACT: note_off channel=9 note=36 velocity=80 time=0
EXTRACT: note_on channel=9 note=42 velocity=95 time=0
EXTRACT: note_on channel=0 note=61 velocity=95 time=0.22058812499999997
EXTRACT: note_off channel=0 note=61 velocity=80 time=0.07107839583333332
EXTRACT: note_on channel=0 note=63 velocity=86 time=0.0024509791666666664
EXTRACT: note_off channel=1 note=56 velocity=80 time=0
EXTRACT: note_off channel=1 note=62 velocity=80 time=0
EXTRACT: note_off channel=1 note=48 velocity=80 time=0
EXTRACT: note_on channel=1 note=63 velocity=95 time=0
EXTRACT: note_on channel=1 note=60 velocity=95 time=0
EXTRACT: note_on channel=1 note=48 velocity=95 time=0
EXTRACT: note_off channel=3 note=56 velocity=80 time=0
EXTRACT: note_off channel=3 note=62 velocity=80 time=0
EXTRACT: note_off channel=3 note=48 velocity=80 time=0
EXTRACT: note_on channel=3 note=63 velocity=95 time=0
EXTRACT: note_on channel=3 note=60 velocity=95 time=0
EXTRACT: note_on channel=3 note=48 velocity=95 time=0
EXTRACT: note_off channel=9 note=42 velocity=80 time=0
EXTRACT: note_on channel=9 note=42 velocity=95 time=0
EXTRACT: note_on channel=9 note=37 velocity=95 time=0
EXTRACT: note_on channel=12 note=48 velocity=0 time=0.1960783333333333
EXTRACT: note_off channel=0 note=63 velocity=80 time=0.09803916666666665
EXTRACT: note_on channel=0 note=63 velocity=95 time=0
EXTRACT: note_off channel=1 note=63 velocity=80 time=0
EXTRACT: note_off channel=1 note=60 velocity=80 time=0
EXTRACT: note_off channel=1 note=48 velocity=80 time=0
EXTRACT: note_on channel=1 note=63 velocity=95 time=0
EXTRACT: note_on channel=1 note=60 velocity=95 time=0
EXTRACT: note_on channel=1 note=48 velocity=95 time=0
EXTRACT: note_off channel=3 note=63 velocity=80 time=0
EXTRACT: note_off channel=3 note=60 velocity=80 time=0
EXTRACT: note_off channel=3 note=48 velocity=80 time=0
EXTRACT: note_on channel=3 note=63 velocity=95 time=0
EXTRACT: note_on channel=3 note=60 velocity=95 time=0
EXTRACT: note_on channel=3 note=48 velocity=95 time=0
EXTRACT: note_off channel=9 note=42 velocity=80 time=0
EXTRACT: note_off channel=9 note=37 velocity=80 time=0
EXTRACT: note_on channel=9 note=42 velocity=95 time=0
EXTRACT: note_on channel=9 note=36 velocity=95 time=0
EXTRACT: note_on channel=12 note=48 velocity=75 time=0
EXTRACT: note_on channel=12 note=48 velocity=0 time=0.2867645625
EXTRACT: note_off channel=0 note=63 velocity=80 time=0.007352937499999999
EXTRACT: note_on channel=0 note=63 velocity=95 time=0
EXTRACT: note_off channel=1 note=63 velocity=80 time=0
EXTRACT: note_off channel=1 note=60 velocity=80 time=0
EXTRACT: note_off channel=1 note=48 velocity=80 time=0
EXTRACT: note_on channel=1 note=63 velocity=95 time=0
EXTRACT: note_on channel=1 note=60 velocity=95 time=0
EXTRACT: note_on channel=1 note=48 velocity=95 time=0
EXTRACT: note_off channel=3 note=63 velocity=80 time=0
EXTRACT: note_off channel=3 note=60 velocity=80 time=0
EXTRACT: note_off channel=3 note=48 velocity=80 time=0
EXTRACT: note_on channel=3 note=63 velocity=95 time=0
EXTRACT: note_on channel=3 note=60 velocity=95 time=0
EXTRACT: note_on channel=3 note=48 velocity=95 time=0
EXTRACT: note_off channel=9 note=42 velocity=80 time=0
EXTRACT: note_off channel=9 note=36 velocity=80 time=0
EXTRACT: note_on channel=9 note=42 velocity=95 time=0
EXTRACT: note_on channel=9 note=36 velocity=95 time=0
EXTRACT: note_on channel=12 note=48 velocity=75 time=0
EXTRACT: note_on channel=12 note=48 velocity=0 time=0.2867645625
EXTRACT: note_off channel=0 note=63 velocity=80 time=0.007352937499999999
EXTRACT: note_on channel=0 note=63 velocity=95 time=0
EXTRACT: note_off channel=1 note=63 velocity=80 time=0
EXTRACT: note_off channel=1 note=60 velocity=80 time=0
EXTRACT: note_off channel=1 note=48 velocity=80 time=0
EXTRACT: note_on channel=1 note=63 velocity=95 time=0
EXTRACT: note_on channel=1 note=60 velocity=95 time=0
EXTRACT: note_on channel=1 note=48 velocity=95 time=0
EXTRACT: note_off channel=3 note=63 velocity=80 time=0
EXTRACT: note_off channel=3 note=60 velocity=80 time=0
EXTRACT: note_off channel=3 note=48 velocity=80 time=0
EXTRACT: note_on channel=3 note=63 velocity=95 time=0
EXTRACT: note_on channel=3 note=60 velocity=95 time=0
EXTRACT: note_on channel=3 note=48 velocity=95 time=0
EXTRACT: note_off channel=9 note=42 velocity=80 time=0
EXTRACT: note_off channel=9 note=36 velocity=80 time=0
EXTRACT: note_on channel=9 note=42 velocity=95 time=0
EXTRACT: note_on channel=9 note=36 velocity=95 time=0
EXTRACT: note_on channel=12 note=48 velocity=75 time=0
EXTRACT: note_off channel=1 note=55 velocity=80 time=0.14705875
EXTRACT: note_on channel=1 note=53 velocity=95 time=0
EXTRACT: pitchwheel channel=1 pitch=2048 time=0
EXTRACT: note_off channel=3 note=55 velocity=80 time=0
EXTRACT: note_on channel=3 note=53 velocity=95 time=0
EXTRACT: pitchwheel channel=3 pitch=2048 time=0
EXTRACT: pitchwheel channel=1 pitch=1408 time=0.049019583333333325
EXTRACT: pitchwheel channel=3 pitch=1408 time=0
EXTRACT: pitchwheel channel=1 pitch=640 time=0.049019583333333325
EXTRACT: pitchwheel channel=3 pitch=640 time=0
EXTRACT: note_on channel=12 note=48 velocity=0 time=0.04166664583333333
EXTRACT: note_off channel=1 note=63 velocity=80 time=0.007352937499999999
EXTRACT: note_off channel=1 note=60 velocity=80 time=0
EXTRACT: note_off channel=1 note=48 velocity=80 time=0
EXTRACT: pitchwheel channel=1 pitch=0 time=0
EXTRACT: note_off channel=3 note=63 velocity=80 time=0
EXTRACT: note_off channel=3 note=60 velocity=80 time=0
EXTRACT: note_off channel=3 note=48 velocity=80 time=0
EXTRACT: pitchwheel channel=3 pitch=0 time=0
EXTRACT: note_off channel=9 note=42 velocity=80 time=0
EXTRACT: note_off channel=9 note=36 velocity=80 time=0
EXTRACT: note_on channel=9 note=42 velocity=95 time=0
EXTRACT: note_on channel=9 note=37 velocity=95 time=0
EXTRACT: note_off channel=0 note=63 velocity=80 time=0.2941175
EXTRACT: note_on channel=0 note=65 velocity=86 time=0
EXTRACT: note_on channel=1 note=46 velocity=95 time=0
EXTRACT: note_on channel=3 note=46 velocity=95 time=0
EXTRACT: note_off channel=9 note=42 velocity=80 time=0
EXTRACT: note_off channel=9 note=37 velocity=80 time=0
EXTRACT: note_on channel=9 note=42 velocity=95 time=0
EXTRACT: note_on channel=12 note=46 velocity=75 time=0
EXTRACT: note_off channel=1 note=53 velocity=80 time=0.2941175
EXTRACT: note_on channel=1 note=53 velocity=95 time=0
EXTRACT: note_off channel=3 note=53 velocity=80 time=0
EXTRACT: note_on channel=3 note=53 velocity=95 time=0
EXTRACT: note_off channel=9 note=42 velocity=80 time=0
EXTRACT: note_on channel=9 note=42 velocity=95 time=0
EXTRACT: note_off channel=0 note=65 velocity=80 time=0.2941175
EXTRACT: note_on channel=0 note=62 velocity=95 time=0
EXTRACT: note_off channel=1 note=67 velocity=80 time=0
EXTRACT: note_on channel=1 note=62 velocity=95 time=0
EXTRACT: note_on channel=1 note=56 velocity=95 time=0
EXTRACT: note_off channel=3 note=67 velocity=80 time=0
EXTRACT: note_on channel=3 note=62 velocity=95 time=0
EXTRACT: note_on channel=3 note=56 velocity=95 time=0
EXTRACT: note_off channel=9 note=42 velocity=80 time=0
EXTRACT: note_on channel=9 note=42 velocity=95 time=0
EXTRACT: note_on channel=9 note=36 velocity=95 time=0
EXTRACT: note_off channel=1 note=46 velocity=80 time=0.2941175
EXTRACT: note_off channel=1 note=53 velocity=80 time=0
EXTRACT: note_off channel=1 note=62 velocity=80 time=0
EXTRACT: note_off channel=1 note=56 velocity=80 time=0
EXTRACT: note_off channel=3 note=46 velocity=80 time=0
EXTRACT: note_off channel=3 note=53 velocity=80 time=0
EXTRACT: note_off channel=3 note=62 velocity=80 time=0
EXTRACT: note_off channel=3 note=56 velocity=80 time=0
EXTRACT: note_off channel=9 note=42 velocity=80 time=0
EXTRACT: note_off channel=9 note=36 velocity=80 time=0
EXTRACT: note_on channel=9 note=42 velocity=95 time=0
EXTRACT: note_on channel=9 note=37 velocity=95 time=0
EXTRACT: note_on channel=12 note=46 velocity=0 time=0.1960783333333333
EXTRACT: note_off channel=0 note=62 velocity=80 time=0.09803916666666665
EXTRACT: note_on channel=0 note=60 velocity=95 time=0
EXTRACT: note_on channel=1 note=62 velocity=95 time=0
EXTRACT: note_on channel=1 note=56 velocity=95 time=0
EXTRACT: note_on channel=1 note=46 velocity=95 time=0
EXTRACT: note_on channel=3 note=62 velocity=95 time=0
EXTRACT: note_on channel=3 note=56 velocity=95 time=0
EXTRACT: note_on channel=3 note=46 velocity=95 time=0
EXTRACT: note_off channel=9 note=42 velocity=80 time=0
EXTRACT: note_off channel=9 note=37 velocity=80 time=0
EXTRACT: note_on channel=9 note=42 velocity=95 time=0
EXTRACT: note_on channel=9 note=36 velocity=95 time=0
EXTRACT: note_on channel=12 note=46 velocity=75 time=0
EXTRACT: note_off channel=9 note=42 velocity=80 time=0.2941175
EXTRACT: note_off channel=9 note=36 velocity=80 time=0
EXTRACT: note_on channel=9 note=42 velocity=95 time=0
EXTRACT: note_off channel=1 note=56 velocity=80 time=0.2941175
EXTRACT: note_on channel=1 note=56 velocity=95 time=0
EXTRACT: note_off channel=3 note=56 velocity=80 time=0
EXTRACT: note_on channel=3 note=56 velocity=95 time=0
EXTRACT: note_off channel=9 note=42 velocity=80 time=0
EXTRACT: note_on channel=9 note=42 velocity=95 time=0
EXTRACT: note_on channel=9 note=36 velocity=95 time=0
EXTRACT: note_on channel=1 note=53 velocity=95 time=0.2941175
EXTRACT: note_on channel=3 note=53 velocity=95 time=0
EXTRACT: note_off channel=9 note=42 velocity=80 time=0
EXTRACT: note_off channel=9 note=36 velocity=80 time=0
EXTRACT: note_on channel=9 note=42 velocity=95 time=0
EXTRACT: note_on channel=9 note=37 velocity=95 time=0
EXTRACT: note_off channel=0 note=60 velocity=80 time=0.2941175
EXTRACT: note_off channel=1 note=62 velocity=80 time=0
EXTRACT: note_on channel=1 note=62 velocity=95 time=0
EXTRACT: note_off channel=3 note=62 velocity=80 time=0
EXTRACT: note_on channel=3 note=62 velocity=95 time=0
EXTRACT: note_off channel=9 note=42 velocity=80 time=0
EXTRACT: note_off channel=9 note=37 velocity=80 time=0
EXTRACT: note_on channel=9 note=42 velocity=95 time=0
EXTRACT: note_on channel=12 note=46 velocity=0 time=0.14705875
EXTRACT: note_off channel=1 note=46 velocity=80 time=0.14705875
EXTRACT: note_on channel=1 note=48 velocity=95 time=0
EXTRACT: note_off channel=3 note=46 velocity=80 time=0
EXTRACT: note_on channel=3 note=48 velocity=95 time=0
EXTRACT: note_off channel=9 note=42 velocity=80 time=0
EXTRACT: note_on channel=9 note=42 velocity=95 time=0
EXTRACT: note_on channel=9 note=36 velocity=95 time=0
EXTRACT: note_on channel=12 note=36 velocity=75 time=0
EXTRACT: note_off channel=9 note=42 velocity=80 time=0.2941175
EXTRACT: note_off channel=9 note=36 velocity=80 time=0
EXTRACT: note_on channel=9 note=42 velocity=95 time=0
EXTRACT: note_on channel=12 note=36 velocity=0 time=0.1960783333333333
EXTRACT: note_on channel=0 note=61 velocity=95 time=0.024509791666666662
EXTRACT: note_off channel=0 note=61 velocity=80 time=0.07107839583333332
EXTRACT: note_on channel=0 note=63 velocity=95 time=0.0024509791666666664
EXTRACT: note_off channel=1 note=56 velocity=80 time=0
EXTRACT: note_off channel=1 note=62 velocity=80 time=0
EXTRACT: note_off channel=1 note=48 velocity=80 time=0
EXTRACT: note_on channel=1 note=63 velocity=95 time=0
EXTRACT: note_on channel=1 note=60 velocity=95 time=0
EXTRACT: note_on channel=1 note=48 velocity=95 time=0
EXTRACT: note_off channel=3 note=56 velocity=80 time=0
EXTRACT: note_off channel=3 note=62 velocity=80 time=0
EXTRACT: note_off channel=3 note=48 velocity=80 time=0
EXTRACT: note_on channel=3 note=63 velocity=95 time=0
EXTRACT: note_on channel=3 note=60 velocity=95 time=0
EXTRACT: note_on channel=3 note=48 velocity=95 time=0
EXTRACT: note_off channel=9 note=42 velocity=80 time=0
EXTRACT: note_on channel=9 note=42 velocity=95 time=0
EXTRACT: note_on channel=9 note=37 velocity=95 time=0
EXTRACT: note_on channel=12 note=41 velocity=75 time=0
EXTRACT: note_on channel=12 note=41 velocity=0 time=0.2867645625
EXTRACT: note_off channel=0 note=63 velocity=80 time=0.007352937499999999
EXTRACT: note_on channel=0 note=63 velocity=95 time=0
EXTRACT: note_off channel=1 note=63 velocity=80 time=0
EXTRACT: note_off channel=1 note=60 velocity=80 time=0
EXTRACT: note_off channel=1 note=48 velocity=80 time=0
EXTRACT: note_on channel=1 note=63 velocity=95 time=0
EXTRACT: note_on channel=1 note=60 velocity=95 time=0
EXTRACT: note_on channel=1 note=48 velocity=95 time=0
EXTRACT: note_off channel=3 note=63 velocity=80 time=0
EXTRACT: note_off channel=3 note=60 velocity=80 time=0
EXTRACT: note_off channel=3 note=48 velocity=80 time=0
EXTRACT: note_on channel=3 note=63 velocity=95 time=0
EXTRACT: note_on channel=3 note=60 velocity=95 time=0
EXTRACT: note_on channel=3 note=48 velocity=95 time=0
EXTRACT: note_off channel=9 note=42 velocity=80 time=0
EXTRACT: note_off channel=9 note=37 velocity=80 time=0
EXTRACT: note_on channel=9 note=42 velocity=95 time=0
EXTRACT: note_on channel=9 note=36 velocity=95 time=0
EXTRACT: note_on channel=12 note=43 velocity=75 time=0
EXTRACT: note_on channel=12 note=43 velocity=0 time=0.2867645625
EXTRACT: note_off channel=0 note=63 velocity=80 time=0.007352937499999999
EXTRACT: note_on channel=0 note=63 velocity=95 time=0
EXTRACT: note_off channel=1 note=63 velocity=80 time=0
EXTRACT: note_off channel=1 note=60 velocity=80 time=0
EXTRACT: note_off channel=1 note=48 velocity=80 time=0
EXTRACT: note_on channel=1 note=63 velocity=95 time=0
EXTRACT: note_on channel=1 note=58 velocity=95 time=0
EXTRACT: note_on channel=1 note=48 velocity=95 time=0
EXTRACT: note_off channel=3 note=63 velocity=80 time=0
EXTRACT: note_off channel=3 note=60 velocity=80 time=0
EXTRACT: note_off channel=3 note=48 velocity=80 time=0
EXTRACT: note_on channel=3 note=63 velocity=95 time=0
EXTRACT: note_on channel=3 note=58 velocity=95 time=0
EXTRACT: note_on channel=3 note=48 velocity=95 time=0
EXTRACT: note_off channel=9 note=42 velocity=80 time=0
EXTRACT: note_off channel=9 note=36 velocity=80 time=0
EXTRACT: note_on channel=9 note=42 velocity=95 time=0
EXTRACT: note_on channel=9 note=36 velocity=95 time=0
EXTRACT: note_on channel=12 note=48 velocity=75 time=0
EXTRACT: note_on channel=12 note=48 velocity=0 time=0.2867645625
EXTRACT: note_off channel=0 note=63 velocity=80 time=0.007352937499999999
EXTRACT: note_on channel=0 note=63 velocity=95 time=0
EXTRACT: note_off channel=1 note=63 velocity=80 time=0
EXTRACT: note_off channel=1 note=58 velocity=80 time=0
EXTRACT: note_off channel=1 note=48 velocity=80 time=0
EXTRACT: note_on channel=1 note=63 velocity=95 time=0
EXTRACT: note_on channel=1 note=58 velocity=95 time=0
EXTRACT: note_on channel=1 note=48 velocity=95 time=0
EXTRACT: note_off channel=3 note=63 velocity=80 time=0
EXTRACT: note_off channel=3 note=58 velocity=80 time=0
EXTRACT: note_off channel=3 note=48 velocity=80 time=0
EXTRACT: note_on channel=3 note=63 velocity=95 time=0
EXTRACT: note_on channel=3 note=58 velocity=95 time=0
EXTRACT: note_on channel=3 note=48 velocity=95 time=0
EXTRACT: note_off channel=9 note=42 velocity=80 time=0
EXTRACT: note_off channel=9 note=36 velocity=80 time=0
EXTRACT: note_on channel=9 note=42 velocity=95 time=0
EXTRACT: note_on channel=9 note=36 velocity=95 time=0
EXTRACT: note_on channel=12 note=48 velocity=75 time=0
EXTRACT: note_off channel=1 note=53 velocity=80 time=0.14705875
EXTRACT: note_on channel=1 note=53 velocity=95 time=0
EXTRACT: pitchwheel channel=1 pitch=2048 time=0
EXTRACT: note_off channel=3 note=53 velocity=80 time=0
EXTRACT: note_on channel=3 note=53 velocity=95 time=0
EXTRACT: pitchwheel channel=3 pitch=2048 time=0
EXTRACT: pitchwheel channel=1 pitch=1408 time=0.049019583333333325
EXTRACT: pitchwheel channel=3 pitch=1408 time=0
EXTRACT: pitchwheel channel=1 pitch=640 time=0.049019583333333325
EXTRACT: pitchwheel channel=3 pitch=640 time=0
EXTRACT: note_on channel=12 note=48 velocity=0 time=0.04166664583333333
EXTRACT: note_off channel=1 note=63 velocity=80 time=0.007352937499999999
EXTRACT: note_off channel=1 note=58 velocity=80 time=0
EXTRACT: note_off channel=1 note=48 velocity=80 time=0
EXTRACT: pitchwheel channel=1 pitch=0 time=0
EXTRACT: note_off channel=3 note=63 velocity=80 time=0
EXTRACT: note_off channel=3 note=58 velocity=80 time=0
EXTRACT: note_off channel=3 note=48 velocity=80 time=0
EXTRACT: pitchwheel channel=3 pitch=0 time=0
EXTRACT: note_off channel=9 note=42 velocity=80 time=0
EXTRACT: note_off channel=9 note=36 velocity=80 time=0
EXTRACT: note_on channel=9 note=42 velocity=95 time=0
EXTRACT: note_on channel=9 note=37 velocity=95 time=0
EXTRACT: note_off channel=0 note=63 velocity=80 time=0.2941175
EXTRACT: note_on channel=0 note=65 velocity=95 time=0
EXTRACT: note_on channel=1 note=46 velocity=95 time=0
EXTRACT: note_on channel=3 note=46 velocity=95 time=0
EXTRACT: note_off channel=9 note=42 velocity=80 time=0
EXTRACT: note_off channel=9 note=37 velocity=80 time=0
EXTRACT: note_on channel=9 note=42 velocity=95 time=0
EXTRACT: note_on channel=12 note=46 velocity=75 time=0
EXTRACT: note_off channel=0 note=65 velocity=80 time=0.2941175
EXTRACT: note_on channel=0 note=62 velocity=95 time=0
EXTRACT: note_off channel=1 note=53 velocity=80 time=0
EXTRACT: note_on channel=1 note=53 velocity=95 time=0
EXTRACT: note_off channel=3 note=53 velocity=80 time=0
EXTRACT: note_on channel=3 note=53 velocity=95 time=0
EXTRACT: note_off channel=9 note=42 velocity=80 time=0
EXTRACT: note_on channel=9 note=42 velocity=95 time=0
EXTRACT: note_on channel=12 note=46 velocity=0 time=0.2867645625
EXTRACT: note_off channel=0 note=62 velocity=80 time=0.007352937499999999
EXTRACT: note_on channel=0 note=62 velocity=95 time=0
EXTRACT: note_on channel=1 note=62 velocity=95 time=0
EXTRACT: note_on channel=1 note=56 velocity=95 time=0
EXTRACT: note_on channel=3 note=62 velocity=95 time=0
EXTRACT: note_on channel=3 note=56 velocity=95 time=0
EXTRACT: note_off channel=9 note=42 velocity=80 time=0
EXTRACT: note_on channel=9 note=42 velocity=95 time=0
EXTRACT: note_on channel=9 note=36 velocity=95 time=0
EXTRACT: note_on channel=12 note=41 velocity=75 time=0
EXTRACT: note_off channel=0 note=62 velocity=80 time=0.2941175
EXTRACT: note_off channel=1 note=46 velocity=80 time=0
EXTRACT: note_off channel=1 note=53 velocity=80 time=0
EXTRACT: note_off channel=1 note=62 velocity=80 time=0
EXTRACT: note_off channel=1 note=56 velocity=80 time=0
EXTRACT: note_off channel=3 note=46 velocity=80 time=0
EXTRACT: note_off channel=3 note=53 velocity=80 time=0
EXTRACT: note_off channel=3 note=62 velocity=80 time=0
EXTRACT: note_off channel=3 note=56 velocity=80 time=0
EXTRACT: note_off channel=9 note=42 velocity=80 time=0
EXTRACT: note_off channel=9 note=36 velocity=80 time=0
EXTRACT: note_on channel=9 note=42 velocity=95 time=0
EXTRACT: note_on channel=9 note=37 velocity=95 time=0
EXTRACT: note_on channel=12 note=41 velocity=0 time=0.1960783333333333
EXTRACT: note_on channel=0 note=60 velocity=95 time=0.09803916666666665
EXTRACT: note_on channel=1 note=62 velocity=95 time=0
EXTRACT: note_on channel=1 note=56 velocity=95 time=0
EXTRACT: note_on channel=1 note=46 velocity=95 time=0
EXTRACT: note_on channel=3 note=62 velocity=95 time=0
EXTRACT: note_on channel=3 note=56 velocity=95 time=0
EXTRACT: note_on channel=3 note=46 velocity=95 time=0
EXTRACT: note_off channel=9 note=42 velocity=80 time=0
EXTRACT: note_off channel=9 note=37 velocity=80 time=0
EXTRACT: note_on channel=9 note=42 velocity=95 time=0
EXTRACT: note_on channel=9 note=36 velocity=95 time=0
EXTRACT: note_on channel=12 note=34 velocity=75 time=0
EXTRACT: note_off channel=0 note=60 velocity=80 time=0.2941175
EXTRACT: note_on channel=0 note=58 velocity=95 time=0
EXTRACT: note_off channel=9 note=42 velocity=80 time=0
EXTRACT: note_off channel=9 note=36 velocity=80 time=0
EXTRACT: note_on channel=9 note=42 velocity=95 time=0
EXTRACT: note_on channel=12 note=34 velocity=0 time=0.2867645625
EXTRACT: note_off channel=0 note=58 velocity=80 time=0.007352937499999999
EXTRACT: note_on channel=0 note=58 velocity=95 time=0
EXTRACT: note_off channel=1 note=62 velocity=80 time=0
EXTRACT: note_off channel=1 note=56 velocity=80 time=0
EXTRACT: note_on channel=1 note=56 velocity=95 time=0
EXTRACT: note_off channel=3 note=62 velocity=80 time=0
EXTRACT: note_off channel=3 note=56 velocity=80 time=0
EXTRACT: note_on channel=3 note=56 velocity=95 time=0
EXTRACT: note_off channel=9 note=42 velocity=80 time=0
EXTRACT: note_on channel=9 note=42 velocity=95 time=0
EXTRACT: note_on channel=9 note=36 velocity=95 time=0
EXTRACT: note_on channel=12 note=34 velocity=75 time=0
EXTRACT: note_on channel=1 note=53 velocity=95 time=0.2941175
EXTRACT: note_on channel=3 note=53 velocity=95 time=0
EXTRACT: note_off channel=9 note=42 velocity=80 time=0
EXTRACT: note_off channel=9 note=36 velocity=80 time=0
EXTRACT: note_on channel=9 note=42 velocity=95 time=0
EXTRACT: note_on channel=9 note=37 velocity=95 time=0
EXTRACT: note_on channel=12 note=34 velocity=0 time=0.1960783333333333
EXTRACT: note_off channel=0 note=58 velocity=80 time=0.09803916666666665
EXTRACT: note_on channel=0 note=56 velocity=95 time=0
EXTRACT: note_on channel=1 note=62 velocity=95 time=0
EXTRACT: note_on channel=3 note=62 velocity=95 time=0
EXTRACT: note_off channel=9 note=42 velocity=80 time=0
EXTRACT: note_off channel=9 note=37 velocity=80 time=0
EXTRACT: note_on channel=9 note=42 velocity=95 time=0
EXTRACT: note_on channel=12 note=34 velocity=75 time=0
EXTRACT: note_off channel=1 note=46 velocity=80 time=0.14705875
EXTRACT: note_off channel=1 note=53 velocity=80 time=0
EXTRACT: note_on channel=1 note=55 velocity=95 time=0
EXTRACT: pitchwheel channel=1 pitch=-2048 time=0
EXTRACT: note_on channel=1 note=48 velocity=95 time=0
EXTRACT: pitchwheel channel=1 pitch=-2048 time=0
EXTRACT: note_off channel=3 note=46 velocity=80 time=0
EXTRACT: note_off channel=3 note=53 velocity=80 time=0
EXTRACT: note_on channel=3 note=55 velocity=95 time=0
EXTRACT: pitchwheel channel=3 pitch=-2048 time=0
EXTRACT: note_on channel=3 note=48 velocity=95 time=0
EXTRACT: pitchwheel channel=3 pitch=-2048 time=0
EXTRACT: pitchwheel channel=1 pitch=-1408 time=0.049019583333333325
EXTRACT: pitchwheel channel=1 pitch=-1408 time=0
EXTRACT: pitchwheel channel=3 pitch=-1408 time=0
EXTRACT: pitchwheel channel=3 pitch=-1408 time=0
EXTRACT: pitchwheel channel=1 pitch=-640 time=0.049019583333333325
EXTRACT: pitchwheel channel=1 pitch=-640 time=0
EXTRACT: pitchwheel channel=3 pitch=-640 time=0
EXTRACT: pitchwheel channel=3 pitch=-640 time=0
EXTRACT: note_on channel=12 note=34 velocity=0 time=0.04166664583333333
EXTRACT: note_off channel=0 note=56 velocity=80 time=0.007352937499999999
EXTRACT: pitchwheel channel=1 pitch=0 time=0
EXTRACT: pitchwheel channel=1 pitch=0 time=0
EXTRACT: pitchwheel channel=3 pitch=0 time=0
EXTRACT: pitchwheel channel=3 pitch=0 time=0
EXTRACT: note_off channel=9 note=42 velocity=80 time=0
EXTRACT: note_on channel=9 note=42 velocity=95 time=0
EXTRACT: note_on channel=9 note=36 velocity=95 time=0
EXTRACT: note_on channel=12 note=36 velocity=75 time=0
EXTRACT: note_on channel=0 note=63 velocity=86 time=0.2941175
EXTRACT: note_on channel=1 note=67 velocity=95 time=0
EXTRACT: note_on channel=3 note=67 velocity=95 time=0
EXTRACT: note_off channel=9 note=42 velocity=80 time=0
EXTRACT: note_off channel=9 note=36 velocity=80 time=0
EXTRACT: note_on channel=9 note=42 velocity=95 time=0
EXTRACT: note_on channel=12 note=36 velocity=0 time=0.1960783333333333
EXTRACT: note_off channel=0 note=63 velocity=80 time=0.09803916666666665
EXTRACT: note_on channel=0 note=63 velocity=95 time=0
EXTRACT: note_off channel=1 note=56 velocity=80 time=0
EXTRACT: note_off channel=1 note=62 velocity=80 time=0
EXTRACT: note_off channel=1 note=48 velocity=80 time=0
EXTRACT: note_on channel=1 note=63 velocity=95 time=0
EXTRACT: note_on channel=1 note=60 velocity=95 time=0
EXTRACT: note_on channel=1 note=48 velocity=95 time=0
EXTRACT: note_off channel=3 note=56 velocity=80 time=0
EXTRACT: note_off channel=3 note=62 velocity=80 time=0
EXTRACT: note_off channel=3 note=48 velocity=80 time=0
EXTRACT: note_on channel=3 note=63 velocity=95 time=0
EXTRACT: note_on channel=3 note=60 velocity=95 time=0
EXTRACT: note_on channel=3 note=48 velocity=95 time=0
EXTRACT: note_off channel=9 note=42 velocity=80 time=0
EXTRACT: note_on channel=9 note=42 velocity=95 time=0
EXTRACT: note_on channel=9 note=37 velocity=95 time=0
EXTRACT: note_on channel=12 note=41 velocity=75 time=0
EXTRACT: note_on channel=12 note=41 velocity=0 time=0.2867645625
EXTRACT: note_off channel=0 note=63 velocity=80 time=0.007352937499999999
EXTRACT: note_on channel=0 note=63 velocity=95 time=0
EXTRACT: note_off channel=1 note=63 velocity=80 time=0
EXTRACT: note_off channel=1 note=60 velocity=80 time=0
EXTRACT: note_off channel=1 note=48 velocity=80 time=0
EXTRACT: note_on channel=1 note=63 velocity=95 time=0
EXTRACT: note_on channel=1 note=60 velocity=95 time=0
EXTRACT: note_on channel=1 note=48 velocity=95 time=0
EXTRACT: note_off channel=3 note=63 velocity=80 time=0
EXTRACT: note_off channel=3 note=60 velocity=80 time=0
EXTRACT: note_off channel=3 note=48 velocity=80 time=0
EXTRACT: note_on channel=3 note=63 velocity=95 time=0
EXTRACT: note_on channel=3 note=60 velocity=95 time=0
EXTRACT: note_on channel=3 note=48 velocity=95 time=0
EXTRACT: note_off channel=9 note=42 velocity=80 time=0
EXTRACT: note_off channel=9 note=37 velocity=80 time=0
EXTRACT: note_on channel=9 note=42 velocity=95 time=0
EXTRACT: note_on channel=9 note=36 velocity=95 time=0
EXTRACT: note_on channel=12 note=43 velocity=75 time=0
EXTRACT: note_on channel=12 note=43 velocity=0 time=0.2867645625
EXTRACT: note_off channel=0 note=63 velocity=80 time=0.007352937499999999
EXTRACT: note_on channel=0 note=63 velocity=95 time=0
EXTRACT: note_off channel=1 note=63 velocity=80 time=0
EXTRACT: note_off channel=1 note=60 velocity=80 time=0
EXTRACT: note_off channel=1 note=48 velocity=80 time=0
EXTRACT: note_on channel=1 note=63 velocity=95 time=0
EXTRACT: note_on channel=1 note=60 velocity=95 time=0
EXTRACT: note_on channel=1 note=48 velocity=95 time=0
EXTRACT: note_off channel=3 note=63 velocity=80 time=0
EXTRACT: note_off channel=3 note=60 velocity=80 time=0
EXTRACT: note_off channel=3 note=48 velocity=80 time=0
EXTRACT: note_on channel=3 note=63 velocity=95 time=0
EXTRACT: note_on channel=3 note=60 velocity=95 time=0
EXTRACT: note_on channel=3 note=48 velocity=95 time=0
EXTRACT: note_off channel=9 note=42 velocity=80 time=0
EXTRACT: note_off channel=9 note=36 velocity=80 time=0
EXTRACT: note_on channel=9 note=42 velocity=95 time=0
EXTRACT: note_on channel=9 note=36 velocity=95 time=0
EXTRACT: note_on channel=12 note=48 velocity=75 time=0
EXTRACT: note_on channel=12 note=48 velocity=0 time=0.2867645625
EXTRACT: note_off channel=1 note=63 velocity=80 time=0.007352937499999999
EXTRACT: note_off channel=1 note=60 velocity=80 time=0
EXTRACT: note_off channel=1 note=48 velocity=80 time=0
EXTRACT: note_on channel=1 note=63 velocity=95 time=0
EXTRACT: note_on channel=1 note=60 velocity=95 time=0
EXTRACT: note_on channel=1 note=48 velocity=95 time=0
EXTRACT: note_off channel=3 note=63 velocity=80 time=0
EXTRACT: note_off channel=3 note=60 velocity=80 time=0
EXTRACT: note_off channel=3 note=48 velocity=80 time=0
EXTRACT: note_on channel=3 note=63 velocity=95 time=0
EXTRACT: note_on channel=3 note=60 velocity=95 time=0
EXTRACT: note_on channel=3 note=48 velocity=95 time=0
EXTRACT: note_off channel=9 note=42 velocity=80 time=0
EXTRACT: note_off channel=9 note=36 velocity=80 time=0
EXTRACT: note_on channel=9 note=42 velocity=95 time=0
EXTRACT: note_on channel=9 note=36 velocity=95 time=0
EXTRACT: note_on channel=12 note=48 velocity=75 time=0
EXTRACT: note_off channel=1 note=55 velocity=80 time=0.14705875
EXTRACT: note_on channel=1 note=53 velocity=95 time=0
EXTRACT: pitchwheel channel=1 pitch=2048 time=0
EXTRACT: note_off channel=3 note=55 velocity=80 time=0
EXTRACT: note_on channel=3 note=53 velocity=95 time=0
EXTRACT: pitchwheel channel=3 pitch=2048 time=0
EXTRACT: pitchwheel channel=1 pitch=1408 time=0.049019583333333325
EXTRACT: pitchwheel channel=3 pitch=1408 time=0
EXTRACT: pitchwheel channel=1 pitch=640 time=0.049019583333333325
EXTRACT: pitchwheel channel=3 pitch=640 time=0
EXTRACT: note_on channel=12 note=48 velocity=0 time=0.04166664583333333
EXTRACT: note_off channel=0 note=63 velocity=80 time=0.007352937499999999
EXTRACT: note_on channel=0 note=63 velocity=95 time=0
EXTRACT: note_off channel=1 note=63 velocity=80 time=0
EXTRACT: note_off channel=1 note=60 velocity=80 time=0
EXTRACT: note_off channel=1 note=48 velocity=80 time=0
EXTRACT: pitchwheel channel=1 pitch=0 time=0
EXTRACT: note_off channel=3 note=63 velocity=80 time=0
EXTRACT: note_off channel=3 note=60 velocity=80 time=0
EXTRACT: note_off channel=3 note=48 velocity=80 time=0
EXTRACT: pitchwheel channel=3 pitch=0 time=0
EXTRACT: note_off channel=9 note=42 velocity=80 time=0
EXTRACT: note_off channel=9 note=36 velocity=80 time=0
EXTRACT: note_on channel=9 note=42 velocity=95 time=0
EXTRACT: note_on channel=9 note=37 velocity=95 time=0
EXTRACT: note_off channel=0 note=63 velocity=80 time=0.2941175
EXTRACT: note_on channel=0 note=65 velocity=86 time=0
EXTRACT: note_on channel=1 note=46 velocity=95 time=0
EXTRACT: note_on channel=3 note=46 velocity=95 time=0
EXTRACT: note_off channel=9 note=42 velocity=80 time=0
EXTRACT: note_off channel=9 note=37 velocity=80 time=0
EXTRACT: note_on channel=9 note=42 velocity=95 time=0
EXTRACT: note_on channel=12 note=46 velocity=75 time=0
EXTRACT: note_off channel=0 note=65 velocity=80 time=0.2941175
EXTRACT: note_on channel=0 note=62 velocity=95 time=0
EXTRACT: note_off channel=1 note=53 velocity=80 time=0
EXTRACT: note_on channel=1 note=53 velocity=95 time=0
EXTRACT: note_off channel=3 note=53 velocity=80 time=0
EXTRACT: note_on channel=3 note=53 velocity=95 time=0
EXTRACT: note_off channel=9 note=42 velocity=80 time=0
EXTRACT: note_on channel=9 note=42 velocity=95 time=0
EXTRACT: note_on channel=12 note=46 velocity=0 time=0.2867645625
EXTRACT: note_off channel=0 note=62 velocity=80 time=0.007352937499999999
EXTRACT: note_on channel=0 note=62 velocity=95 time=0
EXTRACT: note_off channel=1 note=67 velocity=80 time=0
EXTRACT: note_on channel=1 note=62 velocity=95 time=0
EXTRACT: note_on channel=1 note=56 velocity=95 time=0
EXTRACT: note_off channel=3 note=67 velocity=80 time=0
EXTRACT: note_on channel=3 note=62 velocity=95 time=0
EXTRACT: note_on channel=3 note=56 velocity=95 time=0
EXTRACT: note_off channel=9 note=42 velocity=80 time=0
EXTRACT: note_on channel=9 note=42 velocity=95 time=0
EXTRACT: note_on channel=9 note=36 velocity=95 time=0
EXTRACT: note_on channel=12 note=41 velocity=75 time=0
EXTRACT: note_off channel=0 note=62 velocity=80 time=0.2941175
EXTRACT: note_off channel=1 note=46 velocity=80 time=0
EXTRACT: note_off channel=1 note=53 velocity=80 time=0
EXTRACT: note_off channel=1 note=62 velocity=80 time=0
EXTRACT: note_off channel=1 note=56 velocity=80 time=0
EXTRACT: note_off channel=3 note=46 velocity=80 time=0
EXTRACT: note_off channel=3 note=53 velocity=80 time=0
EXTRACT: note_off channel=3 note=62 velocity=80 time=0
EXTRACT: note_off channel=3 note=56 velocity=80 time=0
EXTRACT: note_off channel=9 note=42 velocity=80 time=0
EXTRACT: note_off channel=9 note=36 velocity=80 time=0
EXTRACT: note_on channel=9 note=42 velocity=95 time=0
EXTRACT: note_on channel=9 note=37 velocity=95 time=0
EXTRACT: note_on channel=12 note=41 velocity=0 time=0.1960783333333333
EXTRACT: note_on channel=0 note=60 velocity=95 time=0.09803916666666665
EXTRACT: note_on channel=1 note=62 velocity=95 time=0
EXTRACT: note_on channel=1 note=56 velocity=95 time=0
EXTRACT: note_on channel=1 note=46 velocity=95 time=0
EXTRACT: note_on channel=3 note=62 velocity=95 time=0
EXTRACT: note_on channel=3 note=56 velocity=95 time=0
EXTRACT: note_on channel=3 note=46 velocity=95 time=0
EXTRACT: note_off channel=9 note=42 velocity=80 time=0
EXTRACT: note_off channel=9 note=37 velocity=80 time=0
EXTRACT: note_on channel=9 note=42 velocity=95 time=0
EXTRACT: note_on channel=9 note=36 velocity=95 time=0
EXTRACT: note_on channel=12 note=34 velocity=75 time=0
EXTRACT: note_off channel=9 note=42 velocity=80 time=0.2941175
EXTRACT: note_off channel=9 note=36 velocity=80 time=0
EXTRACT: note_on channel=9 note=42 velocity=95 time=0
EXTRACT: note_on channel=12 note=34 velocity=0 time=0.2867645625
EXTRACT: note_off channel=1 note=56 velocity=80 time=0.007352937499999999
EXTRACT: note_on channel=1 note=56 velocity=95 time=0
EXTRACT: note_off channel=3 note=56 velocity=80 time=0
EXTRACT: note_on channel=3 note=56 velocity=95 time=0
EXTRACT: note_off channel=9 note=42 velocity=80 time=0
EXTRACT: note_on channel=9 note=42 velocity=95 time=0
EXTRACT: note_on channel=9 note=36 velocity=95 time=0
EXTRACT: note_on channel=12 note=34 velocity=75 time=0
EXTRACT: note_on channel=1 note=53 velocity=95 time=0.2941175
EXTRACT: note_on channel=3 note=53 velocity=95 time=0
EXTRACT: note_off channel=9 note=42 velocity=80 time=0
EXTRACT: note_off channel=9 note=36 velocity=80 time=0
EXTRACT: note_on channel=9 note=42 velocity=95 time=0
EXTRACT: note_on channel=9 note=37 velocity=95 time=0
EXTRACT: note_on channel=12 note=34 velocity=0 time=0.1960783333333333
EXTRACT: note_off channel=0 note=60 velocity=80 time=0.09803916666666665
EXTRACT: note_off channel=1 note=62 velocity=80 time=0
EXTRACT: note_on channel=1 note=62 velocity=95 time=0
EXTRACT: note_off channel=3 note=62 velocity=80 time=0
EXTRACT: note_on channel=3 note=62 velocity=95 time=0
EXTRACT: note_off channel=9 note=42 velocity=80 time=0
EXTRACT: note_off channel=9 note=37 velocity=80 time=0
EXTRACT: note_on channel=9 note=42 velocity=95 time=0
EXTRACT: note_on channel=12 note=34 velocity=75 time=0
EXTRACT: note_on channel=12 note=34 velocity=0 time=0.2867645625
EXTRACT: note_off channel=1 note=46 velocity=80 time=0.007352937499999999
EXTRACT: note_on channel=1 note=48 velocity=95 time=0
EXTRACT: note_on channel=2 note=65 velocity=95 time=0
EXTRACT: note_off channel=3 note=46 velocity=80 time=0
EXTRACT: note_on channel=3 note=48 velocity=95 time=0
EXTRACT: note_off channel=9 note=42 velocity=80 time=0
EXTRACT: note_on channel=9 note=42 velocity=95 time=0
EXTRACT: note_on channel=9 note=36 velocity=95 time=0
EXTRACT: note_on channel=12 note=36 velocity=75 time=0
EXTRACT: note_off channel=2 note=65 velocity=80 time=0.2941175
EXTRACT: note_on channel=2 note=67 velocity=95 time=0
EXTRACT: note_off channel=9 note=42 velocity=80 time=0
EXTRACT: note_off channel=9 note=36 velocity=80 time=0
EXTRACT: note_on channel=9 note=42 velocity=95 time=0
EXTRACT: note_on channel=12 note=36 velocity=0 time=0.1960783333333333
EXTRACT: note_off channel=1 note=56 velocity=80 time=0.09803916666666665
EXTRACT: note_off channel=1 note=62 velocity=80 time=0
EXTRACT: note_off channel=1 note=48 velocity=80 time=0
EXTRACT: note_on channel=1 note=63 velocity=95 time=0
EXTRACT: note_on channel=1 note=60 velocity=95 time=0
EXTRACT: note_on channel=1 note=48 velocity=95 time=0
EXTRACT: note_off channel=2 note=67 velocity=80 time=0
EXTRACT: note_on channel=2 note=65 velocity=95 time=0
EXTRACT: note_off channel=3 note=56 velocity=80 time=0
EXTRACT: note_off channel=3 note=62 velocity=80 time=0
EXTRACT: note_off channel=3 note=48 velocity=80 time=0
EXTRACT: note_on channel=3 note=63 velocity=95 time=0
EXTRACT: note_on channel=3 note=60 velocity=95 time=0
EXTRACT: note_on channel=3 note=48 velocity=95 time=0
EXTRACT: note_off channel=9 note=42 velocity=80 time=0
EXTRACT: note_on channel=9 note=42 velocity=95 time=0
EXTRACT: note_on channel=9 note=37 velocity=95 time=0
EXTRACT: note_on channel=12 note=41 velocity=75 time=0
EXTRACT: note_on channel=12 note=41 velocity=0 time=0.2867645625
EXTRACT: note_on channel=0 note=62 velocity=95 time=0.007352937499999999
EXTRACT: note_off channel=1 note=63 velocity=80 time=0
EXTRACT: note_off channel=1 note=60 velocity=80 time=0
EXTRACT: note_off channel=1 note=48 velocity=80 time=0
EXTRACT: note_on channel=1 note=63 velocity=95 time=0
EXTRACT: note_on channel=1 note=60 velocity=95 time=0
EXTRACT: note_on channel=1 note=48 velocity=95 time=0
EXTRACT: note_on channel=2 note=62 velocity=95 time=0
EXTRACT: note_off channel=3 note=63 velocity=80 time=0
EXTRACT: note_off channel=3 note=60 velocity=80 time=0
EXTRACT: note_off channel=3 note=48 velocity=80 time=0
EXTRACT: note_on channel=3 note=63 velocity=95 time=0
EXTRACT: note_on channel=3 note=60 velocity=95 time=0
EXTRACT: note_on channel=3 note=48 velocity=95 time=0
EXTRACT: note_off channel=9 note=42 velocity=80 time=0
EXTRACT: note_off channel=9 note=37 velocity=80 time=0
EXTRACT: note_on channel=9 note=42 velocity=95 time=0
EXTRACT: note_on channel=9 note=36 velocity=95 time=0
EXTRACT: note_on channel=12 note=43 velocity=75 time=0
EXTRACT: note_on channel=12 note=43 velocity=0 time=0.2867645625
EXTRACT: note_off channel=0 note=62 velocity=80 time=0.007352937499999999
EXTRACT: note_on channel=0 note=63 velocity=95 time=0
EXTRACT: note_off channel=1 note=63 velocity=80 time=0
EXTRACT: note_off channel=1 note=60 velocity=80 time=0
EXTRACT: note_off channel=1 note=48 velocity=80 time=0
EXTRACT: note_on channel=1 note=63 velocity=95 time=0
EXTRACT: note_on channel=1 note=58 velocity=95 time=0
EXTRACT: note_on channel=1 note=48 velocity=95 time=0
EXTRACT: note_off channel=2 note=62 velocity=80 time=0
EXTRACT: note_on channel=2 note=63 velocity=95 time=0
EXTRACT: note_off channel=3 note=63 velocity=80 time=0
EXTRACT: note_off channel=3 note=60 velocity=80 time=0
EXTRACT: note_off channel=3 note=48 velocity=80 time=0
EXTRACT: note_on channel=3 note=63 velocity=95 time=0
EXTRACT: note_on channel=3 note=58 velocity=95 time=0
EXTRACT: note_on channel=3 note=48 velocity=95 time=0
EXTRACT: note_off channel=9 note=42 velocity=80 time=0
EXTRACT: note_off channel=9 note=36 velocity=80 time=0
EXTRACT: note_on channel=9 note=42 velocity=95 time=0
EXTRACT: note_on channel=9 note=36 velocity=95 time=0
EXTRACT: note_on channel=12 note=48 velocity=75 time=0
EXTRACT: note_on channel=12 note=48 velocity=0 time=0.2867645625
EXTRACT: note_off channel=0 note=63 velocity=80 time=0.007352937499999999
EXTRACT: note_on channel=0 note=63 velocity=95 time=0
EXTRACT: note_off channel=1 note=63 velocity=80 time=0
EXTRACT: note_off channel=1 note=58 velocity=80 time=0
EXTRACT: note_off channel=1 note=48 velocity=80 time=0
EXTRACT: note_on channel=1 note=63 velocity=95 time=0
EXTRACT: note_on channel=1 note=58 velocity=95 time=0
EXTRACT: note_on channel=1 note=48 velocity=95 time=0
EXTRACT: note_off channel=2 note=65 velocity=80 time=0
EXTRACT: note_on channel=2 note=65 velocity=95 time=0
EXTRACT: note_off channel=3 note=63 velocity=80 time=0
EXTRACT: note_off channel=3 note=58 velocity=80 time=0
EXTRACT: note_off channel=3 note=48 velocity=80 time=0
EXTRACT: note_on channel=3 note=63 velocity=95 time=0
EXTRACT: note_on channel=3 note=58 velocity=95 time=0
EXTRACT: note_on channel=3 note=48 velocity=95 time=0
EXTRACT: note_off channel=9 note=42 velocity=80 time=0
EXTRACT: note_off channel=9 note=36 velocity=80 time=0
EXTRACT: note_on channel=9 note=42 velocity=95 time=0
EXTRACT: note_on channel=9 note=36 velocity=95 time=0
EXTRACT: note_on channel=12 note=48 velocity=75 time=0
EXTRACT: note_off channel=1 note=53 velocity=80 time=0.14705875
EXTRACT: note_on channel=1 note=53 velocity=95 time=0
EXTRACT: pitchwheel channel=1 pitch=2048 time=0
EXTRACT: note_off channel=3 note=53 velocity=80 time=0
EXTRACT: note_on channel=3 note=53 velocity=95 time=0
EXTRACT: pitchwheel channel=3 pitch=2048 time=0
EXTRACT: pitchwheel channel=1 pitch=1408 time=0.049019583333333325
EXTRACT: pitchwheel channel=3 pitch=1408 time=0
EXTRACT: pitchwheel channel=1 pitch=640 time=0.049019583333333325
EXTRACT: pitchwheel channel=3 pitch=640 time=0
EXTRACT: note_on channel=12 note=48 velocity=0 time=0.04166664583333333
EXTRACT: note_off channel=1 note=63 velocity=80 time=0.007352937499999999
EXTRACT: note_off channel=1 note=58 velocity=80 time=0
EXTRACT: note_off channel=1 note=48 velocity=80 time=0
EXTRACT: pitchwheel channel=1 pitch=0 time=0
EXTRACT: note_off channel=3 note=63 velocity=80 time=0
EXTRACT: note_off channel=3 note=58 velocity=80 time=0
EXTRACT: note_off channel=3 note=48 velocity=80 time=0
EXTRACT: pitchwheel channel=3 pitch=0 time=0
EXTRACT: note_off channel=9 note=42 velocity=80 time=0
EXTRACT: note_off channel=9 note=36 velocity=80 time=0
EXTRACT: note_on channel=9 note=42 velocity=95 time=0
EXTRACT: note_on channel=9 note=37 velocity=95 time=0
EXTRACT: note_off channel=0 note=63 velocity=80 time=0.2941175
EXTRACT: note_on channel=0 note=65 velocity=86 time=0
EXTRACT: note_on channel=1 note=46 velocity=95 time=0
EXTRACT: note_off channel=2 note=65 velocity=80 time=0
EXTRACT: note_on channel=2 note=65 velocity=95 time=0
EXTRACT: note_on channel=3 note=46 velocity=95 time=0
EXTRACT: note_off channel=9 note=42 velocity=80 time=0
EXTRACT: note_off channel=9 note=37 velocity=80 time=0
EXTRACT: note_on channel=9 note=42 velocity=95 time=0
EXTRACT: note_on channel=9 note=36 velocity=95 time=0
EXTRACT: note_on channel=12 note=46 velocity=75 time=0
EXTRACT: note_off channel=1 note=53 velocity=80 time=0.2941175
EXTRACT: note_on channel=1 note=53 velocity=95 time=0
EXTRACT: note_off channel=3 note=53 velocity=80 time=0
EXTRACT: note_on channel=3 note=53 velocity=95 time=0
EXTRACT: note_off channel=9 note=42 velocity=80 time=0
EXTRACT: note_off channel=9 note=36 velocity=80 time=0
EXTRACT: note_on channel=9 note=42 velocity=95 time=0
EXTRACT: note_on channel=12 note=46 velocity=0 time=0.2867645625
EXTRACT: note_off channel=0 note=65 velocity=80 time=0.007352937499999999
EXTRACT: note_on channel=0 note=63 velocity=95 time=0
EXTRACT: note_on channel=1 note=62 velocity=95 time=0
EXTRACT: note_on channel=1 note=56 velocity=95 time=0
EXTRACT: note_off channel=2 note=65 velocity=80 time=0
EXTRACT: note_on channel=2 note=65 velocity=95 time=0
EXTRACT: note_on channel=3 note=62 velocity=95 time=0
EXTRACT: note_on channel=3 note=56 velocity=95 time=0
EXTRACT: note_off channel=9 note=42 velocity=80 time=0
EXTRACT: note_on channel=9 note=42 velocity=95 time=0
EXTRACT: note_on channel=9 note=36 velocity=95 time=0
EXTRACT: note_on channel=12 note=41 velocity=75 time=0
EXTRACT: note_off channel=0 note=63 velocity=80 time=0.2941175
EXTRACT: note_off channel=1 note=46 velocity=80 time=0
EXTRACT: note_off channel=1 note=53 velocity=80 time=0
EXTRACT: note_off channel=1 note=62 velocity=80 time=0
EXTRACT: note_off channel=1 note=56 velocity=80 time=0
EXTRACT: note_off channel=2 note=63 velocity=80 time=0
EXTRACT: note_on channel=2 note=63 velocity=95 time=0
EXTRACT: note_off channel=3 note=46 velocity=80 time=0
EXTRACT: note_off channel=3 note=53 velocity=80 time=0
EXTRACT: note_off channel=3 note=62 velocity=80 time=0
EXTRACT: note_off channel=3 note=56 velocity=80 time=0
EXTRACT: note_off channel=9 note=42 velocity=80 time=0
EXTRACT: note_off channel=9 note=36 velocity=80 time=0
EXTRACT: note_on channel=9 note=42 velocity=95 time=0
EXTRACT: note_on channel=9 note=37 velocity=95 time=0
EXTRACT: note_on channel=12 note=41 velocity=0 time=0.1960783333333333
EXTRACT: note_on channel=0 note=65 velocity=95 time=0.09803916666666665
EXTRACT: note_on channel=1 note=62 velocity=95 time=0
EXTRACT: note_on channel=1 note=56 velocity=95 time=0
EXTRACT: note_on channel=1 note=46 velocity=95 time=0
EXTRACT: note_off channel=2 note=63 velocity=80 time=0
EXTRACT: note_on channel=2 note=62 velocity=95 time=0
EXTRACT: note_on channel=3 note=62 velocity=95 time=0
EXTRACT: note_on channel=3 note=56 velocity=95 time=0
EXTRACT: note_on channel=3 note=46 velocity=95 time=0
EXTRACT: note_off channel=9 note=42 velocity=80 time=0
EXTRACT: note_off channel=9 note=37 velocity=80 time=0
EXTRACT: note_on channel=9 note=42 velocity=95 time=0
EXTRACT: note_on channel=9 note=36 velocity=95 time=0
EXTRACT: note_on channel=12 note=34 velocity=75 time=0
EXTRACT: note_off channel=9 note=42 velocity=80 time=0.2941175
EXTRACT: note_off channel=9 note=36 velocity=80 time=0
EXTRACT: note_on channel=9 note=42 velocity=95 time=0
EXTRACT: note_on channel=12 note=34 velocity=0 time=0.2867645625
EXTRACT: note_off channel=0 note=65 velocity=80 time=0.007352937499999999
EXTRACT: note_on channel=0 note=63 velocity=95 time=0
EXTRACT: note_off channel=1 note=62 velocity=80 time=0
EXTRACT: note_off channel=1 note=56 velocity=80 time=0
EXTRACT: note_on channel=1 note=56 velocity=95 time=0
EXTRACT: note_off channel=2 note=65 velocity=80 time=0
EXTRACT: note_on channel=2 note=65 velocity=95 time=0
EXTRACT: note_off channel=3 note=62 velocity=80 time=0
EXTRACT: note_off channel=3 note=56 velocity=80 time=0
EXTRACT: note_on channel=3 note=56 velocity=95 time=0
EXTRACT: note_off channel=9 note=42 velocity=80 time=0
EXTRACT: note_on channel=9 note=42 velocity=95 time=0
EXTRACT: note_on channel=9 note=36 velocity=95 time=0
EXTRACT: note_on channel=12 note=34 velocity=75 time=0
EXTRACT: note_on channel=1 note=53 velocity=95 time=0.2941175
EXTRACT: note_off channel=2 note=62 velocity=80 time=0
EXTRACT: note_on channel=2 note=62 velocity=95 time=0
EXTRACT: note_on channel=3 note=53 velocity=95 time=0
EXTRACT: note_off channel=9 note=42 velocity=80 time=0
EXTRACT: note_off channel=9 note=36 velocity=80 time=0
EXTRACT: note_on channel=9 note=42 velocity=95 time=0
EXTRACT: note_on channel=9 note=37 velocity=95 time=0
EXTRACT: note_on channel=12 note=34 velocity=0 time=0.1960783333333333
EXTRACT: note_on channel=0 note=66 velocity=95 time=0.024509791666666662
EXTRACT: note_off channel=0 note=66 velocity=80 time=0.07107839583333332
EXTRACT: note_off channel=0 note=63 velocity=80 time=0.0024509791666666664
EXTRACT: note_on channel=0 note=65 velocity=95 time=0
EXTRACT: note_on channel=1 note=62 velocity=95 time=0
EXTRACT: note_off channel=2 note=65 velocity=80 time=0
EXTRACT: note_on channel=2 note=65 velocity=95 time=0
EXTRACT: note_on channel=3 note=62 velocity=95 time=0
EXTRACT: note_off channel=9 note=42 velocity=80 time=0
EXTRACT: note_off channel=9 note=37 velocity=80 time=0
EXTRACT: note_on channel=9 note=42 velocity=95 time=0
EXTRACT: note_on channel=9 note=36 velocity=95 time=0
EXTRACT: note_on channel=12 note=34 velocity=75 time=0
EXTRACT: note_off channel=1 note=46 velocity=80 time=0.14705875
EXTRACT: note_off channel=1 note=53 velocity=80 time=0
EXTRACT: note_on channel=1 note=55 velocity=95 time=0
EXTRACT: pitchwheel channel=1 pitch=-2048 time=0
EXTRACT: note_on channel=1 note=48 velocity=95 time=0
EXTRACT: pitchwheel channel=1 pitch=-2048 time=0
EXTRACT: note_off channel=3 note=46 velocity=80 time=0
EXTRACT: note_off channel=3 note=53 velocity=80 time=0
EXTRACT: note_on channel=3 note=55 velocity=95 time=0
EXTRACT: pitchwheel channel=3 pitch=-2048 time=0
EXTRACT: note_on channel=3 note=48 velocity=95 time=0
EXTRACT: pitchwheel channel=3 pitch=-2048 time=0
EXTRACT: pitchwheel channel=1 pitch=-1408 time=0.049019583333333325
EXTRACT: pitchwheel channel=1 pitch=-1408 time=0
EXTRACT: pitchwheel channel=3 pitch=-1408 time=0
EXTRACT: pitchwheel channel=3 pitch=-1408 time=0
EXTRACT: pitchwheel channel=1 pitch=-640 time=0.049019583333333325
EXTRACT: pitchwheel channel=1 pitch=-640 time=0
EXTRACT: pitchwheel channel=3 pitch=-640 time=0
EXTRACT: pitchwheel channel=3 pitch=-640 time=0
EXTRACT: note_on channel=12 note=34 velocity=0 time=0.04166664583333333
EXTRACT: pitchwheel channel=1 pitch=0 time=0.007352937499999999
EXTRACT: pitchwheel channel=1 pitch=0 time=0
EXTRACT: note_off channel=2 note=65 velocity=80 time=0
EXTRACT: note_on channel=2 note=65 velocity=95 time=0
EXTRACT: pitchwheel channel=3 pitch=0 time=0
EXTRACT: pitchwheel channel=3 pitch=0 time=0
EXTRACT: note_off channel=9 note=42 velocity=80 time=0
EXTRACT: note_off channel=9 note=36 velocity=80 time=0
EXTRACT: note_on channel=9 note=42 velocity=95 time=0
EXTRACT: note_on channel=12 note=36 velocity=75 time=0
EXTRACT: note_off channel=0 note=65 velocity=80 time=0.2941175
EXTRACT: note_on channel=0 note=63 velocity=95 time=0
EXTRACT: note_on channel=1 note=67 velocity=95 time=0
EXTRACT: note_off channel=2 note=65 velocity=80 time=0
EXTRACT: note_on channel=2 note=67 velocity=95 time=0
EXTRACT: note_on channel=3 note=67 velocity=95 time=0
EXTRACT: note_off channel=9 note=42 velocity=80 time=0
EXTRACT: note_on channel=9 note=42 velocity=95 time=0
EXTRACT: note_on channel=9 note=36 velocity=95 time=0
EXTRACT: note_on channel=12 note=36 velocity=0 time=0.1960783333333333
EXTRACT: note_off channel=0 note=63 velocity=80 time=0.09803916666666665
EXTRACT: note_off channel=1 note=56 velocity=80 time=0
EXTRACT: note_off channel=1 note=62 velocity=80 time=0
EXTRACT: note_off channel=1 note=48 velocity=80 time=0
EXTRACT: note_on channel=1 note=63 velocity=95 time=0
EXTRACT: note_on channel=1 note=60 velocity=95 time=0
EXTRACT: note_on channel=1 note=48 velocity=95 time=0
EXTRACT: note_off channel=2 note=67 velocity=80 time=0
EXTRACT: note_on channel=2 note=65 velocity=95 time=0
EXTRACT: note_off channel=3 note=56 velocity=80 time=0
EXTRACT: note_off channel=3 note=62 velocity=80 time=0
EXTRACT: note_off channel=3 note=48 velocity=80 time=0
EXTRACT: note_on channel=3 note=63 velocity=95 time=0
EXTRACT: note_on channel=3 note=60 velocity=95 time=0
EXTRACT: note_on channel=3 note=48 velocity=95 time=0
EXTRACT: note_off channel=9 note=42 velocity=80 time=0
EXTRACT: note_off channel=9 note=36 velocity=80 time=0
EXTRACT: note_on channel=9 note=42 velocity=95 time=0
EXTRACT: note_on channel=9 note=37 velocity=95 time=0
EXTRACT: note_on channel=12 note=41 velocity=75 time=0
EXTRACT: note_on channel=0 note=60 velocity=95 time=0.22058812499999997
EXTRACT: note_on channel=12 note=41 velocity=0 time=0.06617643749999999
EXTRACT: note_off channel=0 note=60 velocity=80 time=0.004901958333333333
EXTRACT: note_on channel=0 note=63 velocity=95 time=0.0024509791666666664
EXTRACT: note_off channel=1 note=63 velocity=80 time=0
EXTRACT: note_off channel=1 note=60 velocity=80 time=0
EXTRACT: note_off channel=1 note=48 velocity=80 time=0
EXTRACT: note_on channel=1 note=63 velocity=95 time=0
EXTRACT: note_on channel=1 note=60 velocity=95 time=0
EXTRACT: note_on channel=1 note=48 velocity=95 time=0
EXTRACT: note_off channel=2 note=62 velocity=80 time=0
EXTRACT: note_on channel=2 note=62 velocity=95 time=0
EXTRACT: note_off channel=3 note=63 velocity=80 time=0
EXTRACT: note_off channel=3 note=60 velocity=80 time=0
EXTRACT: note_off channel=3 note=48 velocity=80 time=0
EXTRACT: note_on channel=3 note=63 velocity=95 time=0
EXTRACT: note_on channel=3 note=60 velocity=95 time=0
EXTRACT: note_on channel=3 note=48 velocity=95 time=0
EXTRACT: note_off channel=9 note=42 velocity=80 time=0
EXTRACT: note_off channel=9 note=37 velocity=80 time=0
EXTRACT: note_on channel=9 note=42 velocity=95 time=0
EXTRACT: note_on channel=9 note=36 velocity=95 time=0
EXTRACT: note_on channel=12 note=43 velocity=75 time=0
EXTRACT: note_on channel=12 note=43 velocity=0 time=0.2867645625
EXTRACT: note_off channel=1 note=63 velocity=80 time=0.007352937499999999
EXTRACT: note_off channel=1 note=60 velocity=80 time=0
EXTRACT: note_off channel=1 note=48 velocity=80 time=0
EXTRACT: note_on channel=1 note=63 velocity=95 time=0
EXTRACT: note_on channel=1 note=60 velocity=95 time=0
EXTRACT: note_on channel=1 note=48 velocity=95 time=0
EXTRACT: note_off channel=2 note=62 velocity=80 time=0
EXTRACT: note_on channel=2 note=63 velocity=95 time=0
EXTRACT: note_off channel=3 note=63 velocity=80 time=0
EXTRACT: note_off channel=3 note=60 velocity=80 time=0
EXTRACT: note_off channel=3 note=48 velocity=80 time=0
EXTRACT: note_on channel=3 note=63 velocity=95 time=0
EXTRACT: note_on channel=3 note=60 velocity=95 time=0
EXTRACT: note_on channel=3 note=48 velocity=95 time=0
EXTRACT: note_off channel=9 note=42 velocity=80 time=0
EXTRACT: note_off channel=9 note=36 velocity=80 time=0
EXTRACT: note_on channel=9 note=42 velocity=95 time=0
EXTRACT: note_on channel=12 note=48 velocity=75 time=0
EXTRACT: note_on channel=0 note=64 velocity=95 time=0.22058812499999997
EXTRACT: note_on channel=12 note=48 velocity=0 time=0.06617643749999999
EXTRACT: note_off channel=0 note=64 velocity=80 time=0.004901958333333333
EXTRACT: note_off channel=0 note=63 velocity=80 time=0.0024509791666666664
EXTRACT: note_on channel=0 note=65 velocity=95 time=0
EXTRACT: note_off channel=1 note=63 velocity=80 time=0
EXTRACT: note_off channel=1 note=60 velocity=80 time=0
EXTRACT: note_off channel=1 note=48 velocity=80 time=0
EXTRACT: note_on channel=1 note=63 velocity=95 time=0
EXTRACT: note_on channel=1 note=60 velocity=95 time=0
EXTRACT: note_on channel=1 note=48 velocity=95 time=0
EXTRACT: note_off channel=2 note=65 velocity=80 time=0
EXTRACT: note_on channel=2 note=65 velocity=95 time=0
EXTRACT: note_off channel=3 note=63 velocity=80 time=0
EXTRACT: note_off channel=3 note=60 velocity=80 time=0
EXTRACT: note_off channel=3 note=48 velocity=80 time=0
EXTRACT: note_on channel=3 note=63 velocity=95 time=0
EXTRACT: note_on channel=3 note=60 velocity=95 time=0
EXTRACT: note_on channel=3 note=48 velocity=95 time=0
EXTRACT: note_off channel=9 note=42 velocity=80 time=0
EXTRACT: note_on channel=9 note=42 velocity=95 time=0
EXTRACT: note_on channel=9 note=36 velocity=95 time=0
EXTRACT: note_on channel=12 note=48 velocity=75 time=0
EXTRACT: note_off channel=1 note=55 velocity=80 time=0.14705875
EXTRACT: note_on channel=1 note=53 velocity=95 time=0
EXTRACT: pitchwheel channel=1 pitch=2048 time=0
EXTRACT: note_off channel=3 note=55 velocity=80 time=0
EXTRACT: note_on channel=3 note=53 velocity=95 time=0
EXTRACT: pitchwheel channel=3 pitch=2048 time=0
EXTRACT: pitchwheel channel=1 pitch=1408 time=0.049019583333333325
EXTRACT: pitchwheel channel=3 pitch=1408 time=0
EXTRACT: pitchwheel channel=1 pitch=640 time=0.049019583333333325
EXTRACT: pitchwheel channel=3 pitch=640 time=0
EXTRACT: note_on channel=12 note=48 velocity=0 time=0.04166664583333333
EXTRACT: note_off channel=1 note=63 velocity=80 time=0.007352937499999999
EXTRACT: note_off channel=1 note=60 velocity=80 time=0
EXTRACT: note_off channel=1 note=48 velocity=80 time=0
EXTRACT: pitchwheel channel=1 pitch=0 time=0
EXTRACT: note_off channel=2 note=63 velocity=80 time=0
EXTRACT: note_on channel=2 note=63 velocity=95 time=0
EXTRACT: note_off channel=3 note=63 velocity=80 time=0
EXTRACT: note_off channel=3 note=60 velocity=80 time=0
EXTRACT: note_off channel=3 note=48 velocity=80 time=0
EXTRACT: pitchwheel channel=3 pitch=0 time=0
EXTRACT: note_off channel=9 note=42 velocity=80 time=0
EXTRACT: note_off channel=9 note=36 velocity=80 time=0
EXTRACT: note_on channel=9 note=42 velocity=95 time=0
EXTRACT: note_on channel=9 note=37 velocity=95 time=0
EXTRACT: note_off channel=0 note=65 velocity=80 time=0.2941175
EXTRACT: note_on channel=0 note=65 velocity=95 time=0
EXTRACT: note_on channel=1 note=46 velocity=95 time=0
EXTRACT: note_off channel=2 note=65 velocity=80 time=0
EXTRACT: note_on channel=2 note=65 velocity=95 time=0
EXTRACT: note_on channel=3 note=46 velocity=95 time=0
EXTRACT: note_off channel=9 note=42 velocity=80 time=0
EXTRACT: note_off channel=9 note=37 velocity=80 time=0
EXTRACT: note_on channel=9 note=42 velocity=95 time=0
EXTRACT: note_on channel=9 note=36 velocity=95 time=0
EXTRACT: note_on channel=12 note=46 velocity=75 time=0
EXTRACT: note_off channel=1 note=53 velocity=80 time=0.2941175
EXTRACT: note_on channel=1 note=53 velocity=95 time=0
EXTRACT: note_off channel=2 note=63 velocity=80 time=0
EXTRACT: note_on channel=2 note=63 velocity=95 time=0
EXTRACT: note_off channel=3 note=53 velocity=80 time=0
EXTRACT: note_on channel=3 note=53 velocity=95 time=0
EXTRACT: note_off channel=9 note=42 velocity=80 time=0
EXTRACT: note_off channel=9 note=36 velocity=80 time=0
EXTRACT: note_on channel=9 note=42 velocity=95 time=0
EXTRACT: note_on channel=12 note=46 velocity=0 time=0.2867645625
EXTRACT: note_off channel=0 note=65 velocity=80 time=0.007352937499999999
EXTRACT: note_on channel=0 note=67 velocity=95 time=0
EXTRACT: note_off channel=1 note=67 velocity=80 time=0
EXTRACT: note_on channel=1 note=62 velocity=95 time=0
EXTRACT: note_on channel=1 note=56 velocity=95 time=0
EXTRACT: note_off channel=2 note=65 velocity=80 time=0
EXTRACT: note_on channel=2 note=65 velocity=95 time=0
EXTRACT: note_off channel=3 note=67 velocity=80 time=0
EXTRACT: note_on channel=3 note=62 velocity=95 time=0
EXTRACT: note_on channel=3 note=56 velocity=95 time=0
EXTRACT: note_off channel=9 note=42 velocity=80 time=0
EXTRACT: note_on channel=9 note=42 velocity=95 time=0
EXTRACT: note_on channel=9 note=36 velocity=95 time=0
EXTRACT: note_on channel=12 note=41 velocity=75 time=0
EXTRACT: pitchwheel channel=0 pitch=-640 time=0.2941175
EXTRACT: note_off channel=1 note=46 velocity=80 time=0
EXTRACT: note_off channel=1 note=53 velocity=80 time=0
EXTRACT: note_off channel=1 note=62 velocity=80 time=0
EXTRACT: note_off channel=1 note=56 velocity=80 time=0
EXTRACT: note_off channel=2 note=63 velocity=80 time=0
EXTRACT: note_on channel=2 note=63 velocity=95 time=0
EXTRACT: note_off channel=3 note=46 velocity=80 time=0
EXTRACT: note_off channel=3 note=53 velocity=80 time=0
EXTRACT: note_off channel=3 note=62 velocity=80 time=0
EXTRACT: note_off channel=3 note=56 velocity=80 time=0
EXTRACT: note_off channel=9 note=42 velocity=80 time=0
EXTRACT: note_off channel=9 note=36 velocity=80 time=0
EXTRACT: note_on channel=9 note=42 velocity=95 time=0
EXTRACT: note_on channel=9 note=37 velocity=95 time=0
EXTRACT: pitchwheel channel=0 pitch=-1408 time=0.09803916666666665
EXTRACT: pitchwheel channel=0 pitch=-2048 time=0.09803916666666665
EXTRACT: note_on channel=12 note=41 velocity=0 time=0
EXTRACT: note_off channel=0 note=67 velocity=80 time=0.09803916666666665
EXTRACT: pitchwheel channel=0 pitch=0 time=0
EXTRACT: note_on channel=1 note=62 velocity=95 time=0
EXTRACT: note_on channel=1 note=56 velocity=95 time=0
EXTRACT: note_on channel=1 note=46 velocity=95 time=0
EXTRACT: note_off channel=2 note=63 velocity=80 time=0
EXTRACT: note_on channel=2 note=62 velocity=95 time=0
EXTRACT: note_on channel=3 note=62 velocity=95 time=0
EXTRACT: note_on channel=3 note=56 velocity=95 time=0
EXTRACT: note_on channel=3 note=46 velocity=95 time=0
EXTRACT: note_off channel=9 note=42 velocity=80 time=0
EXTRACT: note_off channel=9 note=37 velocity=80 time=0
EXTRACT: note_on channel=9 note=42 velocity=95 time=0
EXTRACT: note_on channel=9 note=36 velocity=95 time=0
EXTRACT: note_on channel=12 note=34 velocity=75 time=0
EXTRACT: note_off channel=2 note=62 velocity=80 time=0.2941175
EXTRACT: note_on channel=2 note=62 velocity=95 time=0
EXTRACT: note_off channel=9 note=42 velocity=80 time=0
EXTRACT: note_off channel=9 note=36 velocity=80 time=0
EXTRACT: note_on channel=9 note=42 velocity=95 time=0
EXTRACT: note_on channel=12 note=34 velocity=0 time=0.2867645625
EXTRACT: note_off channel=1 note=56 velocity=80 time=0.007352937499999999
EXTRACT: note_on channel=1 note=56 velocity=95 time=0
EXTRACT: note_off channel=2 note=65 velocity=80 time=0
EXTRACT: note_on channel=2 note=65 velocity=95 time=0
EXTRACT: note_off channel=3 note=56 velocity=80 time=0
EXTRACT: note_on channel=3 note=56 velocity=95 time=0
EXTRACT: note_off channel=9 note=42 velocity=80 time=0
EXTRACT: note_on channel=9 note=42 velocity=95 time=0
EXTRACT: note_on channel=9 note=36 velocity=95 time=0
EXTRACT: note_on channel=12 note=34 velocity=75 time=0
EXTRACT: note_on channel=1 note=53 velocity=95 time=0.2941175
EXTRACT: note_off channel=2 note=62 velocity=80 time=0
EXTRACT: note_on channel=2 note=62 velocity=95 time=0
EXTRACT: note_on channel=3 note=53 velocity=95 time=0
EXTRACT: note_off channel=9 note=42 velocity=80 time=0
EXTRACT: note_off channel=9 note=36 velocity=80 time=0
EXTRACT: note_on channel=9 note=42 velocity=95 time=0
EXTRACT: note_on channel=9 note=37 velocity=95 time=0
EXTRACT: note_on channel=12 note=34 velocity=0 time=0.1960783333333333
EXTRACT: note_off channel=1 note=62 velocity=80 time=0.09803916666666665
EXTRACT: note_on channel=1 note=62 velocity=95 time=0
EXTRACT: note_off channel=2 note=65 velocity=80 time=0
EXTRACT: note_on channel=2 note=65 velocity=95 time=0
EXTRACT: note_off channel=3 note=62 velocity=80 time=0
EXTRACT: note_on channel=3 note=62 velocity=95 time=0
EXTRACT: note_off channel=9 note=42 velocity=80 time=0
EXTRACT: note_off channel=9 note=37 velocity=80 time=0
EXTRACT: note_on channel=9 note=42 velocity=95 time=0
EXTRACT: note_on channel=12 note=34 velocity=75 time=0
EXTRACT: note_on channel=12 note=34 velocity=0 time=0.2867645625
EXTRACT: note_off channel=1 note=46 velocity=80 time=0.007352937499999999
EXTRACT: note_on channel=1 note=48 velocity=95 time=0
EXTRACT: note_off channel=3 note=46 velocity=80 time=0
EXTRACT: note_on channel=3 note=48 velocity=95 time=0
EXTRACT: note_off channel=9 note=42 velocity=80 time=0
EXTRACT: note_on channel=9 note=42 velocity=95 time=0
EXTRACT: note_on channel=9 note=36 velocity=95 time=0
EXTRACT: note_on channel=12 note=36 velocity=75 time=0
EXTRACT: note_off channel=2 note=65 velocity=80 time=0.2941175
EXTRACT: note_on channel=2 note=67 velocity=95 time=0
EXTRACT: note_off channel=9 note=42 velocity=80 time=0
EXTRACT: note_off channel=9 note=36 velocity=80 time=0
EXTRACT: note_on channel=9 note=42 velocity=95 time=0
EXTRACT: note_on channel=12 note=36 velocity=0 time=0.1960783333333333
EXTRACT: note_off channel=1 note=56 velocity=80 time=0.09803916666666665
EXTRACT: note_off channel=1 note=62 velocity=80 time=0
EXTRACT: note_off channel=1 note=48 velocity=80 time=0
EXTRACT: note_on channel=1 note=63 velocity=95 time=0
EXTRACT: note_on channel=1 note=60 velocity=95 time=0
EXTRACT: note_on channel=1 note=48 velocity=95 time=0
EXTRACT: note_off channel=2 note=67 velocity=80 time=0
EXTRACT: note_on channel=2 note=65 velocity=95 time=0
EXTRACT: note_off channel=3 note=56 velocity=80 time=0
EXTRACT: note_off channel=3 note=62 velocity=80 time=0
EXTRACT: note_off channel=3 note=48 velocity=80 time=0
EXTRACT: note_on channel=3 note=63 velocity=95 time=0
EXTRACT: note_on channel=3 note=60 velocity=95 time=0
EXTRACT: note_on channel=3 note=48 velocity=95 time=0
EXTRACT: note_off channel=9 note=42 velocity=80 time=0
EXTRACT: note_on channel=9 note=42 velocity=95 time=0
EXTRACT: note_on channel=9 note=37 velocity=95 time=0
EXTRACT: note_on channel=12 note=41 velocity=75 time=0
EXTRACT: note_on channel=12 note=41 velocity=0 time=0.2867645625
EXTRACT: note_on channel=0 note=62 velocity=95 time=0.007352937499999999
EXTRACT: note_off channel=1 note=63 velocity=80 time=0
EXTRACT: note_off channel=1 note=60 velocity=80 time=0
EXTRACT: note_off channel=1 note=48 velocity=80 time=0
EXTRACT: note_on channel=1 note=63 velocity=95 time=0
EXTRACT: note_on channel=1 note=60 velocity=95 time=0
EXTRACT: note_on channel=1 note=48 velocity=95 time=0
EXTRACT: note_off channel=2 note=62 velocity=80 time=0
EXTRACT: note_on channel=2 note=62 velocity=95 time=0
EXTRACT: note_off channel=3 note=63 velocity=80 time=0
EXTRACT: note_off channel=3 note=60 velocity=80 time=0
EXTRACT: note_off channel=3 note=48 velocity=80 time=0
EXTRACT: note_on channel=3 note=63 velocity=95 time=0
EXTRACT: note_on channel=3 note=60 velocity=95 time=0
EXTRACT: note_on channel=3 note=48 velocity=95 time=0
EXTRACT: note_off channel=9 note=42 velocity=80 time=0
EXTRACT: note_off channel=9 note=37 velocity=80 time=0
EXTRACT: note_on channel=9 note=42 velocity=95 time=0
EXTRACT: note_on channel=9 note=36 velocity=95 time=0
EXTRACT: note_on channel=12 note=43 velocity=75 time=0
EXTRACT: note_on channel=12 note=43 velocity=0 time=0.2867645625
EXTRACT: note_off channel=0 note=62 velocity=80 time=0.007352937499999999
EXTRACT: note_on channel=0 note=63 velocity=95 time=0
EXTRACT: note_off channel=1 note=63 velocity=80 time=0
EXTRACT: note_off channel=1 note=60 velocity=80 time=0
EXTRACT: note_off channel=1 note=48 velocity=80 time=0
EXTRACT: note_on channel=1 note=63 velocity=95 time=0
EXTRACT: note_on channel=1 note=58 velocity=95 time=0
EXTRACT: note_on channel=1 note=48 velocity=95 time=0
EXTRACT: note_off channel=2 note=62 velocity=80 time=0
EXTRACT: note_on channel=2 note=63 velocity=95 time=0
EXTRACT: note_off channel=3 note=63 velocity=80 time=0
EXTRACT: note_off channel=3 note=60 velocity=80 time=0
EXTRACT: note_off channel=3 note=48 velocity=80 time=0
EXTRACT: note_on channel=3 note=63 velocity=95 time=0
EXTRACT: note_on channel=3 note=58 velocity=95 time=0
EXTRACT: note_on channel=3 note=48 velocity=95 time=0
EXTRACT: note_off channel=9 note=42 velocity=80 time=0
EXTRACT: note_off channel=9 note=36 velocity=80 time=0
EXTRACT: note_on channel=9 note=42 velocity=95 time=0
EXTRACT: note_on channel=9 note=36 velocity=95 time=0
EXTRACT: note_on channel=12 note=48 velocity=75 time=0
EXTRACT: note_on channel=12 note=48 velocity=0 time=0.2867645625
EXTRACT: note_off channel=0 note=63 velocity=80 time=0.007352937499999999
EXTRACT: note_on channel=0 note=63 velocity=95 time=0
EXTRACT: note_off channel=1 note=63 velocity=80 time=0
EXTRACT: note_off channel=1 note=58 velocity=80 time=0
EXTRACT: note_off channel=1 note=48 velocity=80 time=0
EXTRACT: note_on channel=1 note=63 velocity=95 time=0
EXTRACT: note_on channel=1 note=58 velocity=95 time=0
EXTRACT: note_on channel=1 note=48 velocity=95 time=0
EXTRACT: note_off channel=2 note=65 velocity=80 time=0
EXTRACT: note_on channel=2 note=65 velocity=95 time=0
EXTRACT: note_off channel=3 note=63 velocity=80 time=0
EXTRACT: note_off channel=3 note=58 velocity=80 time=0
EXTRACT: note_off channel=3 note=48 velocity=80 time=0
EXTRACT: note_on channel=3 note=63 velocity=95 time=0
EXTRACT: note_on channel=3 note=58 velocity=95 time=0
EXTRACT: note_on channel=3 note=48 velocity=95 time=0
EXTRACT: note_off channel=9 note=42 velocity=80 time=0
EXTRACT: note_off channel=9 note=36 velocity=80 time=0
EXTRACT: note_on channel=9 note=42 velocity=95 time=0
EXTRACT: note_on channel=9 note=36 velocity=95 time=0
EXTRACT: note_on channel=12 note=48 velocity=75 time=0
EXTRACT: note_off channel=1 note=53 velocity=80 time=0.14705875
EXTRACT: note_on channel=1 note=53 velocity=95 time=0
EXTRACT: pitchwheel channel=1 pitch=2048 time=0
EXTRACT: note_off channel=3 note=53 velocity=80 time=0
EXTRACT: note_on channel=3 note=53 velocity=95 time=0
EXTRACT: pitchwheel channel=3 pitch=2048 time=0
EXTRACT: pitchwheel channel=1 pitch=1408 time=0.049019583333333325
EXTRACT: pitchwheel channel=3 pitch=1408 time=0
EXTRACT: pitchwheel channel=1 pitch=640 time=0.049019583333333325
EXTRACT: pitchwheel channel=3 pitch=640 time=0
EXTRACT: note_on channel=12 note=48 velocity=0 time=0.04166664583333333
EXTRACT: note_off channel=1 note=63 velocity=80 time=0.007352937499999999
EXTRACT: note_off channel=1 note=58 velocity=80 time=0
EXTRACT: note_off channel=1 note=48 velocity=80 time=0
EXTRACT: pitchwheel channel=1 pitch=0 time=0
EXTRACT: note_off channel=2 note=63 velocity=80 time=0
EXTRACT: note_on channel=2 note=63 velocity=95 time=0
EXTRACT: note_off channel=3 note=63 velocity=80 time=0
EXTRACT: note_off channel=3 note=58 velocity=80 time=0
EXTRACT: note_off channel=3 note=48 velocity=80 time=0
EXTRACT: pitchwheel channel=3 pitch=0 time=0
EXTRACT: note_off channel=9 note=42 velocity=80 time=0
EXTRACT: note_off channel=9 note=36 velocity=80 time=0
EXTRACT: note_on channel=9 note=42 velocity=95 time=0
EXTRACT: note_on channel=9 note=37 velocity=95 time=0
EXTRACT: note_off channel=0 note=63 velocity=80 time=0.2941175
EXTRACT: note_on channel=0 note=66 velocity=95 time=0
EXTRACT: note_on channel=1 note=46 velocity=95 time=0
EXTRACT: note_off channel=2 note=65 velocity=80 time=0
EXTRACT: note_on channel=2 note=65 velocity=95 time=0
EXTRACT: note_on channel=3 note=46 velocity=95 time=0
EXTRACT: note_off channel=9 note=42 velocity=80 time=0
EXTRACT: note_off channel=9 note=37 velocity=80 time=0
EXTRACT: note_on channel=9 note=42 velocity=95 time=0
EXTRACT: note_on channel=9 note=36 velocity=95 time=0
EXTRACT: note_on channel=12 note=46 velocity=75 time=0
EXTRACT: note_off channel=0 note=66 velocity=80 time=0.2941175
EXTRACT: note_on channel=0 note=65 velocity=86 time=0
EXTRACT: note_off channel=1 note=53 velocity=80 time=0
EXTRACT: note_on channel=1 note=53 velocity=95 time=0
EXTRACT: note_off channel=2 note=63 velocity=80 time=0
EXTRACT: note_on channel=2 note=63 velocity=95 time=0
EXTRACT: note_off channel=3 note=53 velocity=80 time=0
EXTRACT: note_on channel=3 note=53 velocity=95 time=0
EXTRACT: note_off channel=9 note=42 velocity=80 time=0
EXTRACT: note_off channel=9 note=36 velocity=80 time=0
EXTRACT: note_on channel=9 note=42 velocity=95 time=0
EXTRACT: note_on channel=12 note=46 velocity=0 time=0.2867645625
EXTRACT: note_off channel=0 note=65 velocity=80 time=0.007352937499999999
EXTRACT: note_on channel=0 note=63 velocity=95 time=0
EXTRACT: note_on channel=1 note=62 velocity=95 time=0
EXTRACT: note_on channel=1 note=56 velocity=95 time=0
EXTRACT: note_off channel=2 note=65 velocity=80 time=0
EXTRACT: note_on channel=2 note=65 velocity=95 time=0
EXTRACT: note_on channel=3 note=62 velocity=95 time=0
EXTRACT: note_on channel=3 note=56 velocity=95 time=0
EXTRACT: note_off channel=9 note=42 velocity=80 time=0
EXTRACT: note_on channel=9 note=42 velocity=95 time=0
EXTRACT: note_on channel=9 note=36 velocity=95 time=0
EXTRACT: note_on channel=12 note=41 velocity=75 time=0
EXTRACT: note_off channel=0 note=63 velocity=80 time=0.2941175
EXTRACT: note_on channel=0 note=63 velocity=95 time=0
EXTRACT: note_off channel=1 note=46 velocity=80 time=0
EXTRACT: note_off channel=1 note=53 velocity=80 time=0
EXTRACT: note_off channel=1 note=62 velocity=80 time=0
EXTRACT: note_off channel=1 note=56 velocity=80 time=0
EXTRACT: note_off channel=2 note=63 velocity=80 time=0
EXTRACT: note_on channel=2 note=63 velocity=95 time=0
EXTRACT: note_off channel=3 note=46 velocity=80 time=0
EXTRACT: note_off channel=3 note=53 velocity=80 time=0
EXTRACT: note_off channel=3 note=62 velocity=80 time=0
EXTRACT: note_off channel=3 note=56 velocity=80 time=0
EXTRACT: note_off channel=9 note=42 velocity=80 time=0
EXTRACT: note_off channel=9 note=36 velocity=80 time=0
EXTRACT: note_on channel=9 note=42 velocity=95 time=0
EXTRACT: note_on channel=9 note=37 velocity=95 time=0
EXTRACT: note_on channel=12 note=41 velocity=0 time=0.1960783333333333
EXTRACT: note_off channel=0 note=63 velocity=80 time=0.09803916666666665
EXTRACT: note_on channel=0 note=66 velocity=95 time=0
EXTRACT: note_on channel=1 note=62 velocity=95 time=0
EXTRACT: note_on channel=1 note=56 velocity=95 time=0
EXTRACT: note_on channel=1 note=46 velocity=95 time=0
EXTRACT: note_off channel=2 note=63 velocity=80 time=0
EXTRACT: note_on channel=2 note=62 velocity=95 time=0
EXTRACT: note_on channel=3 note=62 velocity=95 time=0
EXTRACT: note_on channel=3 note=56 velocity=95 time=0
EXTRACT: note_on channel=3 note=46 velocity=95 time=0
EXTRACT: note_off channel=9 note=42 velocity=80 time=0
EXTRACT: note_off channel=9 note=37 velocity=80 time=0
EXTRACT: note_on channel=9 note=42 velocity=95 time=0
EXTRACT: note_on channel=9 note=36 velocity=95 time=0
EXTRACT: note_on channel=12 note=34 velocity=75 time=0
EXTRACT: note_off channel=0 note=66 velocity=80 time=0.2941175
EXTRACT: note_on channel=0 note=65 velocity=86 time=0
EXTRACT: note_off channel=2 note=62 velocity=80 time=0
EXTRACT: note_on channel=2 note=62 velocity=95 time=0
EXTRACT: note_off channel=9 note=42 velocity=80 time=0
EXTRACT: note_off channel=9 note=36 velocity=80 time=0
EXTRACT: note_on channel=9 note=42 velocity=95 time=0
EXTRACT: note_on channel=12 note=34 velocity=0 time=0.2867645625
EXTRACT: note_off channel=0 note=65 velocity=80 time=0.007352937499999999
EXTRACT: note_on channel=0 note=63 velocity=95 time=0
EXTRACT: note_off channel=1 note=62 velocity=80 time=0
EXTRACT: note_off channel=1 note=56 velocity=80 time=0
EXTRACT: note_on channel=1 note=56 velocity=95 time=0
EXTRACT: note_off channel=2 note=65 velocity=80 time=0
EXTRACT: note_on channel=2 note=65 velocity=95 time=0
EXTRACT: note_off channel=3 note=62 velocity=80 time=0
EXTRACT: note_off channel=3 note=56 velocity=80 time=0
EXTRACT: note_on channel=3 note=56 velocity=95 time=0
EXTRACT: note_off channel=9 note=42 velocity=80 time=0
EXTRACT: note_on channel=9 note=42 velocity=95 time=0
EXTRACT: note_on channel=9 note=36 velocity=95 time=0
EXTRACT: note_on channel=12 note=34 velocity=75 time=0
EXTRACT: note_off channel=0 note=63 velocity=80 time=0.2941175
EXTRACT: note_on channel=1 note=53 velocity=95 time=0
EXTRACT: note_off channel=2 note=62 velocity=80 time=0
EXTRACT: note_on channel=2 note=62 velocity=95 time=0
EXTRACT: note_on channel=3 note=53 velocity=95 time=0
EXTRACT: note_off channel=9 note=42 velocity=80 time=0
EXTRACT: note_off channel=9 note=36 velocity=80 time=0
EXTRACT: note_on channel=9 note=42 velocity=95 time=0
EXTRACT: note_on channel=9 note=37 velocity=95 time=0
EXTRACT: note_on channel=12 note=34 velocity=0 time=0.1960783333333333
EXTRACT: note_on channel=0 note=66 velocity=95 time=0.09803916666666665
EXTRACT: note_on channel=1 note=62 velocity=95 time=0
EXTRACT: note_off channel=2 note=65 velocity=80 time=0
EXTRACT: note_on channel=2 note=65 velocity=95 time=0
EXTRACT: note_on channel=3 note=62 velocity=95 time=0
EXTRACT: note_off channel=9 note=42 velocity=80 time=0
EXTRACT: note_off channel=9 note=37 velocity=80 time=0
EXTRACT: note_on channel=9 note=42 velocity=95 time=0
EXTRACT: note_on channel=9 note=36 velocity=95 time=0
EXTRACT: note_on channel=12 note=34 velocity=75 time=0
EXTRACT: note_off channel=1 note=46 velocity=80 time=0.14705875
EXTRACT: note_off channel=1 note=53 velocity=80 time=0
EXTRACT: note_on channel=1 note=55 velocity=95 time=0
EXTRACT: pitchwheel channel=1 pitch=-2048 time=0
EXTRACT: note_on channel=1 note=48 velocity=95 time=0
EXTRACT: pitchwheel channel=1 pitch=-2048 time=0
EXTRACT: note_off channel=3 note=46 velocity=80 time=0
EXTRACT: note_off channel=3 note=53 velocity=80 time=0
EXTRACT: note_on channel=3 note=55 velocity=95 time=0
EXTRACT: pitchwheel channel=3 pitch=-2048 time=0
EXTRACT: note_on channel=3 note=48 velocity=95 time=0
EXTRACT: pitchwheel channel=3 pitch=-2048 time=0
EXTRACT: pitchwheel channel=1 pitch=-1408 time=0.049019583333333325
EXTRACT: pitchwheel channel=1 pitch=-1408 time=0
EXTRACT: pitchwheel channel=3 pitch=-1408 time=0
EXTRACT: pitchwheel channel=3 pitch=-1408 time=0
EXTRACT: pitchwheel channel=1 pitch=-640 time=0.049019583333333325
EXTRACT: pitchwheel channel=1 pitch=-640 time=0
EXTRACT: pitchwheel channel=3 pitch=-640 time=0
EXTRACT: pitchwheel channel=3 pitch=-640 time=0
EXTRACT: note_on channel=12 note=34 velocity=0 time=0.04166664583333333
EXTRACT: note_off channel=0 note=66 velocity=80 time=0.007352937499999999
EXTRACT: note_on channel=0 note=65 velocity=86 time=0
EXTRACT: pitchwheel channel=1 pitch=0 time=0
EXTRACT: pitchwheel channel=1 pitch=0 time=0
EXTRACT: note_off channel=2 note=65 velocity=80 time=0
EXTRACT: note_on channel=2 note=65 velocity=95 time=0
EXTRACT: pitchwheel channel=3 pitch=0 time=0
EXTRACT: pitchwheel channel=3 pitch=0 time=0
EXTRACT: note_off channel=9 note=42 velocity=80 time=0
EXTRACT: note_off channel=9 note=36 velocity=80 time=0
EXTRACT: note_on channel=9 note=42 velocity=95 time=0
EXTRACT: note_on channel=12 note=36 velocity=75 time=0
EXTRACT: note_off channel=0 note=65 velocity=80 time=0.2941175
EXTRACT: note_on channel=0 note=63 velocity=95 time=0
EXTRACT: note_on channel=1 note=67 velocity=95 time=0
EXTRACT: note_off channel=2 note=65 velocity=80 time=0
EXTRACT: note_on channel=2 note=67 velocity=95 time=0
EXTRACT: note_on channel=3 note=67 velocity=95 time=0
EXTRACT: note_off channel=9 note=42 velocity=80 time=0
EXTRACT: note_on channel=9 note=42 velocity=95 time=0
EXTRACT: note_on channel=9 note=36 velocity=95 time=0
EXTRACT: note_on channel=12 note=36 velocity=0 time=0.1960783333333333
EXTRACT: note_off channel=0 note=63 velocity=80 time=0.09803916666666665
EXTRACT: note_off channel=1 note=56 velocity=80 time=0
EXTRACT: note_off channel=1 note=62 velocity=80 time=0
EXTRACT: note_off channel=1 note=48 velocity=80 time=0
EXTRACT: note_on channel=1 note=63 velocity=95 time=0
EXTRACT: note_on channel=1 note=60 velocity=95 time=0
EXTRACT: note_on channel=1 note=48 velocity=95 time=0
EXTRACT: note_off channel=2 note=67 velocity=80 time=0
EXTRACT: note_on channel=2 note=65 velocity=95 time=0
EXTRACT: note_off channel=3 note=56 velocity=80 time=0
EXTRACT: note_off channel=3 note=62 velocity=80 time=0
EXTRACT: note_off channel=3 note=48 velocity=80 time=0
EXTRACT: note_on channel=3 note=63 velocity=95 time=0
EXTRACT: note_on channel=3 note=60 velocity=95 time=0
EXTRACT: note_on channel=3 note=48 velocity=95 time=0
EXTRACT: note_off channel=9 note=42 velocity=80 time=0
EXTRACT: note_off channel=9 note=36 velocity=80 time=0
EXTRACT: note_on channel=9 note=42 velocity=95 time=0
EXTRACT: note_on channel=9 note=37 velocity=95 time=0
EXTRACT: note_on channel=12 note=41 velocity=75 time=0
EXTRACT: note_on channel=0 note=60 velocity=95 time=0.22058812499999997
EXTRACT: note_on channel=12 note=41 velocity=0 time=0.06617643749999999
EXTRACT: note_off channel=0 note=60 velocity=80 time=0.004901958333333333
EXTRACT: note_on channel=0 note=63 velocity=95 time=0.0024509791666666664
EXTRACT: note_off channel=1 note=63 velocity=80 time=0
EXTRACT: note_off channel=1 note=60 velocity=80 time=0
EXTRACT: note_off channel=1 note=48 velocity=80 time=0
EXTRACT: note_on channel=1 note=63 velocity=95 time=0
EXTRACT: note_on channel=1 note=60 velocity=95 time=0
EXTRACT: note_on channel=1 note=48 velocity=95 time=0
EXTRACT: note_off channel=2 note=62 velocity=80 time=0
EXTRACT: note_on channel=2 note=62 velocity=95 time=0
EXTRACT: note_off channel=3 note=63 velocity=80 time=0
EXTRACT: note_off channel=3 note=60 velocity=80 time=0
EXTRACT: note_off channel=3 note=48 velocity=80 time=0
EXTRACT: note_on channel=3 note=63 velocity=95 time=0
EXTRACT: note_on channel=3 note=60 velocity=95 time=0
EXTRACT: note_on channel=3 note=48 velocity=95 time=0
EXTRACT: note_off channel=9 note=42 velocity=80 time=0
EXTRACT: note_off channel=9 note=37 velocity=80 time=0
EXTRACT: note_on channel=9 note=42 velocity=95 time=0
EXTRACT: note_on channel=9 note=36 velocity=95 time=0
EXTRACT: note_on channel=12 note=43 velocity=75 time=0
EXTRACT: note_on channel=12 note=43 velocity=0 time=0.2867645625
EXTRACT: note_off channel=1 note=63 velocity=80 time=0.007352937499999999
EXTRACT: note_off channel=1 note=60 velocity=80 time=0
EXTRACT: note_off channel=1 note=48 velocity=80 time=0
EXTRACT: note_on channel=1 note=63 velocity=95 time=0
EXTRACT: note_on channel=1 note=60 velocity=95 time=0
EXTRACT: note_on channel=1 note=48 velocity=95 time=0
EXTRACT: note_off channel=2 note=62 velocity=80 time=0
EXTRACT: note_on channel=2 note=63 velocity=95 time=0
EXTRACT: note_off channel=3 note=63 velocity=80 time=0
EXTRACT: note_off channel=3 note=60 velocity=80 time=0
EXTRACT: note_off channel=3 note=48 velocity=80 time=0
EXTRACT: note_on channel=3 note=63 velocity=95 time=0
EXTRACT: note_on channel=3 note=60 velocity=95 time=0
EXTRACT: note_on channel=3 note=48 velocity=95 time=0
EXTRACT: note_off channel=9 note=42 velocity=80 time=0
EXTRACT: note_off channel=9 note=36 velocity=80 time=0
EXTRACT: note_on channel=9 note=42 velocity=95 time=0
EXTRACT: note_on channel=12 note=48 velocity=75 time=0
EXTRACT: note_on channel=0 note=64 velocity=95 time=0.22058812499999997
EXTRACT: note_on channel=12 note=48 velocity=0 time=0.06617643749999999
EXTRACT: note_off channel=0 note=64 velocity=80 time=0.004901958333333333
EXTRACT: note_off channel=0 note=63 velocity=80 time=0.0024509791666666664
EXTRACT: note_on channel=0 note=65 velocity=95 time=0
EXTRACT: note_off channel=1 note=63 velocity=80 time=0
EXTRACT: note_off channel=1 note=60 velocity=80 time=0
EXTRACT: note_off channel=1 note=48 velocity=80 time=0
EXTRACT: note_on channel=1 note=63 velocity=95 time=0
EXTRACT: note_on channel=1 note=60 velocity=95 time=0
EXTRACT: note_on channel=1 note=48 velocity=95 time=0
EXTRACT: note_off channel=2 note=65 velocity=80 time=0
EXTRACT: note_on channel=2 note=65 velocity=95 time=0
EXTRACT: note_off channel=3 note=63 velocity=80 time=0
EXTRACT: note_off channel=3 note=60 velocity=80 time=0
EXTRACT: note_off channel=3 note=48 velocity=80 time=0
EXTRACT: note_on channel=3 note=63 velocity=95 time=0
EXTRACT: note_on channel=3 note=60 velocity=95 time=0
EXTRACT: note_on channel=3 note=48 velocity=95 time=0
EXTRACT: note_off channel=9 note=42 velocity=80 time=0
EXTRACT: note_on channel=9 note=42 velocity=95 time=0
EXTRACT: note_on channel=9 note=36 velocity=95 time=0
EXTRACT: note_on channel=12 note=48 velocity=75 time=0
EXTRACT: note_off channel=1 note=55 velocity=80 time=0.14705875
EXTRACT: note_on channel=1 note=53 velocity=95 time=0
EXTRACT: pitchwheel channel=1 pitch=2048 time=0
EXTRACT: note_off channel=3 note=55 velocity=80 time=0
EXTRACT: note_on channel=3 note=53 velocity=95 time=0
EXTRACT: pitchwheel channel=3 pitch=2048 time=0
EXTRACT: pitchwheel channel=1 pitch=1408 time=0.049019583333333325
EXTRACT: pitchwheel channel=3 pitch=1408 time=0
EXTRACT: pitchwheel channel=1 pitch=640 time=0.049019583333333325
EXTRACT: pitchwheel channel=3 pitch=640 time=0
EXTRACT: note_on channel=12 note=48 velocity=0 time=0.04166664583333333
EXTRACT: note_off channel=1 note=63 velocity=80 time=0.007352937499999999
EXTRACT: note_off channel=1 note=60 velocity=80 time=0
EXTRACT: note_off channel=1 note=48 velocity=80 time=0
EXTRACT: pitchwheel channel=1 pitch=0 time=0
EXTRACT: note_off channel=2 note=63 velocity=80 time=0
EXTRACT: note_on channel=2 note=63 velocity=95 time=0
EXTRACT: note_off channel=3 note=63 velocity=80 time=0
EXTRACT: note_off channel=3 note=60 velocity=80 time=0
EXTRACT: note_off channel=3 note=48 velocity=80 time=0
EXTRACT: pitchwheel channel=3 pitch=0 time=0
EXTRACT: note_off channel=9 note=42 velocity=80 time=0
EXTRACT: note_off channel=9 note=36 velocity=80 time=0
EXTRACT: note_on channel=9 note=42 velocity=95 time=0
EXTRACT: note_on channel=9 note=37 velocity=95 time=0
EXTRACT: note_off channel=0 note=65 velocity=80 time=0.2941175
EXTRACT: note_on channel=0 note=65 velocity=95 time=0
EXTRACT: note_on channel=1 note=46 velocity=95 time=0
EXTRACT: note_off channel=2 note=65 velocity=80 time=0
EXTRACT: note_on channel=2 note=65 velocity=95 time=0
EXTRACT: note_on channel=3 note=46 velocity=95 time=0
EXTRACT: note_off channel=9 note=42 velocity=80 time=0
EXTRACT: note_off channel=9 note=37 velocity=80 time=0
EXTRACT: note_on channel=9 note=42 velocity=95 time=0
EXTRACT: note_on channel=9 note=36 velocity=95 time=0
EXTRACT: note_on channel=12 note=46 velocity=75 time=0
EXTRACT: note_off channel=1 note=53 velocity=80 time=0.2941175
EXTRACT: note_on channel=1 note=53 velocity=95 time=0
EXTRACT: note_off channel=2 note=63 velocity=80 time=0
EXTRACT: note_on channel=2 note=63 velocity=95 time=0
EXTRACT: note_off channel=3 note=53 velocity=80 time=0
EXTRACT: note_on channel=3 note=53 velocity=95 time=0
EXTRACT: note_off channel=9 note=42 velocity=80 time=0
EXTRACT: note_off channel=9 note=36 velocity=80 time=0
EXTRACT: note_on channel=9 note=42 velocity=95 time=0
EXTRACT: note_on channel=12 note=46 velocity=0 time=0.2867645625
EXTRACT: note_off channel=0 note=65 velocity=80 time=0.007352937499999999
EXTRACT: note_on channel=0 note=67 velocity=95 time=0
EXTRACT: note_off channel=1 note=67 velocity=80 time=0
EXTRACT: note_on channel=1 note=62 velocity=95 time=0
EXTRACT: note_on channel=1 note=56 velocity=95 time=0
EXTRACT: note_off channel=2 note=65 velocity=80 time=0
EXTRACT: note_on channel=2 note=65 velocity=95 time=0
EXTRACT: note_off channel=3 note=67 velocity=80 time=0
EXTRACT: note_on channel=3 note=62 velocity=95 time=0
EXTRACT: note_on channel=3 note=56 velocity=95 time=0
EXTRACT: note_off channel=9 note=42 velocity=80 time=0
EXTRACT: note_on channel=9 note=42 velocity=95 time=0
EXTRACT: note_on channel=9 note=36 velocity=95 time=0
EXTRACT: note_on channel=12 note=41 velocity=75 time=0
EXTRACT: note_off channel=1 note=46 velocity=80 time=0.2941175
EXTRACT: note_off channel=1 note=53 velocity=80 time=0
EXTRACT: note_off channel=1 note=62 velocity=80 time=0
EXTRACT: note_off channel=1 note=56 velocity=80 time=0
EXTRACT: note_off channel=2 note=63 velocity=80 time=0
EXTRACT: note_on channel=2 note=63 velocity=95 time=0
EXTRACT: note_off channel=3 note=46 velocity=80 time=0
EXTRACT: note_off channel=3 note=53 velocity=80 time=0
EXTRACT: note_off channel=3 note=62 velocity=80 time=0
EXTRACT: note_off channel=3 note=56 velocity=80 time=0
EXTRACT: note_off channel=9 note=42 velocity=80 time=0
EXTRACT: note_off channel=9 note=36 velocity=80 time=0
EXTRACT: note_on channel=9 note=42 velocity=95 time=0
EXTRACT: note_on channel=9 note=37 velocity=95 time=0
EXTRACT: note_on channel=12 note=41 velocity=0 time=0.1960783333333333
EXTRACT: note_off channel=0 note=67 velocity=80 time=0.09803916666666665
EXTRACT: note_on channel=0 note=65 velocity=95 time=0
EXTRACT: note_on channel=1 note=62 velocity=95 time=0
EXTRACT: note_on channel=1 note=56 velocity=95 time=0
EXTRACT: note_on channel=1 note=46 velocity=95 time=0
EXTRACT: note_off channel=2 note=63 velocity=80 time=0
EXTRACT: note_on channel=2 note=62 velocity=95 time=0
EXTRACT: note_on channel=3 note=62 velocity=95 time=0
EXTRACT: note_on channel=3 note=56 velocity=95 time=0
EXTRACT: note_on channel=3 note=46 velocity=95 time=0
EXTRACT: note_off channel=9 note=42 velocity=80 time=0
EXTRACT: note_off channel=9 note=37 velocity=80 time=0
EXTRACT: note_on channel=9 note=42 velocity=95 time=0
EXTRACT: note_on channel=9 note=36 velocity=79 time=0
EXTRACT: note_on channel=9 note=38 velocity=63 time=0
EXTRACT: note_on channel=12 note=34 velocity=75 time=0
EXTRACT: note_off channel=0 note=65 velocity=80 time=0.2941175
EXTRACT: note_off channel=9 note=42 velocity=80 time=0
EXTRACT: note_off channel=9 note=36 velocity=80 time=0
EXTRACT: note_off channel=9 note=38 velocity=80 time=0
EXTRACT: note_on channel=9 note=42 velocity=95 time=0
EXTRACT: note_on channel=9 note=36 velocity=79 time=0
EXTRACT: note_on channel=9 note=38 velocity=79 time=0
EXTRACT: note_on channel=12 note=34 velocity=0 time=0.2867645625
EXTRACT: note_off channel=1 note=56 velocity=80 time=0.007352937499999999
EXTRACT: note_on channel=1 note=56 velocity=95 time=0
EXTRACT: note_off channel=2 note=65 velocity=80 time=0
EXTRACT: note_on channel=2 note=65 velocity=95 time=0
EXTRACT: note_off channel=3 note=56 velocity=80 time=0
EXTRACT: note_on channel=3 note=56 velocity=95 time=0
EXTRACT: note_off channel=9 note=42 velocity=80 time=0
EXTRACT: note_off channel=9 note=36 velocity=80 time=0
EXTRACT: note_off channel=9 note=38 velocity=80 time=0
EXTRACT: note_on channel=9 note=42 velocity=95 time=0
EXTRACT: note_on channel=9 note=36 velocity=95 time=0
EXTRACT: note_on channel=9 note=38 velocity=79 time=0
EXTRACT: note_on channel=12 note=34 velocity=75 time=0
EXTRACT: note_on channel=1 note=53 velocity=95 time=0.2941175
EXTRACT: note_on channel=3 note=53 velocity=95 time=0
EXTRACT: note_off channel=9 note=42 velocity=80 time=0
EXTRACT: note_off channel=9 note=36 velocity=80 time=0
EXTRACT: note_off channel=9 note=38 velocity=80 time=0
EXTRACT: note_on channel=9 note=57 velocity=127 time=0
EXTRACT: note_on channel=9 note=36 velocity=111 time=0
EXTRACT: note_on channel=9 note=38 velocity=95 time=0
EXTRACT: note_on channel=12 note=34 velocity=0 time=0.1960783333333333
EXTRACT: note_off channel=1 note=62 velocity=80 time=0.09803916666666665
EXTRACT: note_on channel=1 note=62 velocity=95 time=0
EXTRACT: note_off channel=2 note=62 velocity=80 time=0
EXTRACT: note_on channel=2 note=62 velocity=95 time=0
EXTRACT: note_off channel=3 note=62 velocity=80 time=0
EXTRACT: note_on channel=3 note=62 velocity=95 time=0
EXTRACT: note_off channel=9 note=57 velocity=80 time=0
EXTRACT: note_off channel=9 note=36 velocity=80 time=0
EXTRACT: note_off channel=9 note=38 velocity=80 time=0
EXTRACT: note_on channel=9 note=36 velocity=95 time=0
EXTRACT: note_on channel=12 note=34 velocity=75 time=0
EXTRACT: note_on channel=12 note=34 velocity=0 time=0.2867645625
EXTRACT: note_off channel=2 note=65 velocity=80 time=0.007352937499999999
EXTRACT: note_on channel=2 note=63 velocity=86 time=0
EXTRACT: note_on channel=4 note=63 velocity=95 time=0
EXTRACT: note_on channel=5 note=58 velocity=95 time=0
EXTRACT: note_off channel=9 note=36 velocity=80 time=0
EXTRACT: note_on channel=9 note=49 velocity=127 time=0
EXTRACT: note_on channel=9 note=36 velocity=95 time=0
EXTRACT: note_on channel=12 note=39 velocity=75 time=0
EXTRACT: note_off channel=2 note=63 velocity=80 time=0.14705875
EXTRACT: note_off channel=1 note=46 velocity=80 time=0.14705875
EXTRACT: note_off channel=1 note=56 velocity=80 time=0
EXTRACT: note_off channel=1 note=53 velocity=80 time=0
EXTRACT: note_off channel=1 note=62 velocity=80 time=0
EXTRACT: note_off channel=2 note=62 velocity=80 time=0
EXTRACT: note_on channel=2 note=58 velocity=86 time=0
EXTRACT: note_off channel=3 note=46 velocity=80 time=0
EXTRACT: note_off channel=3 note=56 velocity=80 time=0
EXTRACT: note_off channel=3 note=53 velocity=80 time=0
EXTRACT: note_off channel=3 note=62 velocity=80 time=0
EXTRACT: note_off channel=4 note=63 velocity=80 time=0
EXTRACT: note_on channel=4 note=63 velocity=95 time=0
EXTRACT: note_on channel=5 note=63 velocity=95 time=0
EXTRACT: note_off channel=9 note=49 velocity=80 time=0
EXTRACT: note_off channel=9 note=36 velocity=80 time=0
EXTRACT: note_on channel=9 note=42 velocity=95 time=0
EXTRACT: note_on channel=9 note=53 velocity=63 time=0
EXTRACT: note_off channel=2 note=58 velocity=80 time=0.14705875
EXTRACT: note_on channel=12 note=39 velocity=0 time=0.049019583333333325
EXTRACT: note_on channel=0 note=63 velocity=95 time=0.09803916666666665
EXTRACT: note_on channel=2 note=58 velocity=86 time=0
EXTRACT: note_on channel=4 note=70 velocity=95 time=0
EXTRACT: note_off channel=5 note=58 velocity=80 time=0
EXTRACT: note_on channel=5 note=58 velocity=95 time=0
EXTRACT: note_off channel=9 note=42 velocity=80 time=0
EXTRACT: note_off channel=9 note=53 velocity=80 time=0
EXTRACT: note_on channel=9 note=42 velocity=79 time=0
EXTRACT: note_on channel=9 note=38 velocity=95 time=0
EXTRACT: note_on channel=9 note=53 velocity=63 time=0
EXTRACT: note_on channel=12 note=39 velocity=75 time=0
EXTRACT: note_off channel=2 note=58 velocity=80 time=0.14705875
EXTRACT: note_off channel=0 note=63 velocity=80 time=0.14705875
EXTRACT: note_on channel=0 note=63 velocity=95 time=0
EXTRACT: note_on channel=2 note=63 velocity=86 time=0
EXTRACT: note_off channel=4 note=63 velocity=80 time=0
EXTRACT: note_on channel=4 note=63 velocity=95 time=0
EXTRACT: note_on channel=5 note=65 velocity=95 time=0
EXTRACT: note_off channel=9 note=42 velocity=80 time=0
EXTRACT: note_off channel=9 note=38 velocity=80 time=0
EXTRACT: note_off channel=9 note=53 velocity=80 time=0
EXTRACT: note_on channel=9 note=42 velocity=79 time=0
EXTRACT: note_on channel=9 note=53 velocity=63 time=0
EXTRACT: note_off channel=2 note=63 velocity=80 time=0.14705875
EXTRACT: note_on channel=12 note=39 velocity=0 time=0.049019583333333325
EXTRACT: note_off channel=0 note=63 velocity=80 time=0.09803916666666665
EXTRACT: note_on channel=0 note=63 velocity=95 time=0
EXTRACT: note_on channel=2 note=58 velocity=86 time=0
EXTRACT: note_off channel=4 note=63 velocity=80 time=0
EXTRACT: note_on channel=4 note=63 velocity=95 time=0
EXTRACT: note_off channel=9 note=42 velocity=80 time=0
EXTRACT: note_off channel=9 note=53 velocity=80 time=0
EXTRACT: note_on channel=9 note=42 velocity=79 time=0
EXTRACT: note_on channel=9 note=36 velocity=95 time=0
EXTRACT: note_on channel=9 note=53 velocity=63 time=0
EXTRACT: note_on channel=12 note=39 velocity=75 time=0
EXTRACT: note_off channel=2 note=58 velocity=80 time=0.14705875
EXTRACT: note_on channel=2 note=58 velocity=86 time=0.14705875
EXTRACT: note_off channel=4 note=70 velocity=80 time=0
EXTRACT: note_on channel=4 note=70 velocity=95 time=0
EXTRACT: note_off channel=9 note=42 velocity=80 time=0
EXTRACT: note_off channel=9 note=36 velocity=80 time=0
EXTRACT: note_off channel=9 note=53 velocity=80 time=0
EXTRACT: note_on channel=9 note=42 velocity=79 time=0
EXTRACT: note_on channel=9 note=36 velocity=95 time=0
EXTRACT: note_on channel=9 note=53 velocity=63 time=0
EXTRACT: note_off channel=2 note=58 velocity=80 time=0.14705875
EXTRACT: note_on channel=12 note=39 velocity=0 time=0.049019583333333325
EXTRACT: note_off channel=0 note=63 velocity=80 time=0.09803916666666665
EXTRACT: note_on channel=0 note=63 velocity=95 time=0
EXTRACT: note_on channel=2 note=63 velocity=86 time=0
EXTRACT: note_off channel=4 note=63 velocity=80 time=0
EXTRACT: note_on channel=4 note=63 velocity=95 time=0
EXTRACT: note_off channel=9 note=42 velocity=80 time=0
EXTRACT: note_off channel=9 note=36 velocity=80 time=0
EXTRACT: note_off channel=9 note=53 velocity=80 time=0
EXTRACT: note_on channel=9 note=42 velocity=79 time=0
EXTRACT: note_on channel=9 note=38 velocity=95 time=0
EXTRACT: note_on channel=9 note=53 velocity=63 time=0
EXTRACT: note_on channel=12 note=39 velocity=75 time=0
EXTRACT: note_off channel=2 note=63 velocity=80 time=0.14705875
EXTRACT: note_off channel=0 note=63 velocity=80 time=0.14705875
EXTRACT: note_on channel=0 note=63 velocity=95 time=0
EXTRACT: note_on channel=2 note=58 velocity=86 time=0
EXTRACT: note_off channel=4 note=70 velocity=80 time=0
EXTRACT: note_on channel=4 note=70 velocity=95 time=0
EXTRACT: note_off channel=9 note=42 velocity=80 time=0
EXTRACT: note_off channel=9 note=38 velocity=80 time=0
EXTRACT: note_off channel=9 note=53 velocity=80 time=0
EXTRACT: note_on channel=9 note=42 velocity=79 time=0
EXTRACT: note_on channel=9 note=53 velocity=63 time=0
EXTRACT: note_off channel=2 note=58 velocity=80 time=0.14705875
EXTRACT: note_on channel=12 note=39 velocity=0 time=0.049019583333333325
EXTRACT: note_off channel=0 note=63 velocity=80 time=0.09803916666666665
EXTRACT: note_on channel=0 note=62 velocity=95 time=0
EXTRACT: note_on channel=2 note=63 velocity=86 time=0
EXTRACT: note_off channel=4 note=63 velocity=80 time=0
EXTRACT: note_on channel=4 note=63 velocity=95 time=0
EXTRACT: note_off channel=9 note=42 velocity=80 time=0
EXTRACT: note_off channel=9 note=53 velocity=80 time=0
EXTRACT: note_on channel=9 note=42 velocity=95 time=0
EXTRACT: note_on channel=9 note=36 velocity=95 time=0
EXTRACT: note_on channel=12 note=34 velocity=75 time=0
EXTRACT: note_off channel=2 note=63 velocity=80 time=0.14705875
EXTRACT: note_off channel=0 note=62 velocity=80 time=0.14705875
EXTRACT: note_on channel=0 note=63 velocity=95 time=0
EXTRACT: note_on channel=2 note=58 velocity=86 time=0
EXTRACT: note_off channel=4 note=63 velocity=80 time=0
EXTRACT: note_on channel=4 note=63 velocity=95 time=0
EXTRACT: note_off channel=5 note=63 velocity=80 time=0
EXTRACT: note_on channel=5 note=62 velocity=95 time=0
EXTRACT: note_off channel=9 note=42 velocity=80 time=0
EXTRACT: note_off channel=9 note=36 velocity=80 time=0
EXTRACT: note_on channel=9 note=42 velocity=95 time=0
EXTRACT: note_on channel=9 note=53 velocity=63 time=0
EXTRACT: note_off channel=2 note=58 velocity=80 time=0.14705875
EXTRACT: note_on channel=12 note=34 velocity=0 time=0.049019583333333325
EXTRACT: note_off channel=0 note=63 velocity=80 time=0.09803916666666665
EXTRACT: note_on channel=0 note=63 velocity=95 time=0
EXTRACT: note_on channel=2 note=58 velocity=86 time=0
EXTRACT: note_off channel=4 note=70 velocity=80 time=0
EXTRACT: note_on channel=4 note=70 velocity=95 time=0
EXTRACT: note_off channel=5 note=58 velocity=80 time=0
EXTRACT: note_on channel=5 note=58 velocity=95 time=0
EXTRACT: note_off channel=9 note=42 velocity=80 time=0
EXTRACT: note_off channel=9 note=53 velocity=80 time=0
EXTRACT: note_on channel=9 note=42 velocity=95 time=0
EXTRACT: note_on channel=9 note=38 velocity=95 time=0
EXTRACT: note_on channel=9 note=53 velocity=63 time=0
EXTRACT: note_on channel=12 note=34 velocity=75 time=0
EXTRACT: note_off channel=2 note=58 velocity=80 time=0.14705875
EXTRACT: note_off channel=0 note=63 velocity=80 time=0.14705875
EXTRACT: note_on channel=0 note=63 velocity=95 time=0
EXTRACT: note_on channel=2 note=62 velocity=86 time=0
EXTRACT: note_off channel=4 note=63 velocity=80 time=0
EXTRACT: note_on channel=4 note=63 velocity=95 time=0
EXTRACT: note_off channel=5 note=65 velocity=80 time=0
EXTRACT: note_on channel=5 note=65 velocity=95 time=0
EXTRACT: note_off channel=9 note=42 velocity=80 time=0
EXTRACT: note_off channel=9 note=38 velocity=80 time=0
EXTRACT: note_off channel=9 note=53 velocity=80 time=0
EXTRACT: note_on channel=9 note=42 velocity=95 time=0
EXTRACT: note_on channel=9 note=53 velocity=63 time=0
EXTRACT: note_off channel=2 note=62 velocity=80 time=0.14705875
EXTRACT: note_on channel=12 note=34 velocity=0 time=0.049019583333333325
EXTRACT: note_on channel=2 note=58 velocity=86 time=0.09803916666666665
EXTRACT: note_off channel=4 note=63 velocity=80 time=0
EXTRACT: note_on channel=4 note=63 velocity=95 time=0
EXTRACT: note_off channel=9 note=42 velocity=80 time=0
EXTRACT: note_off channel=9 note=53 velocity=80 time=0
EXTRACT: note_on channel=9 note=42 velocity=95 time=0
EXTRACT: note_on channel=9 note=36 velocity=95 time=0
EXTRACT: note_on channel=9 note=53 velocity=63 time=0
EXTRACT: note_on channel=12 note=34 velocity=75 time=0
EXTRACT: note_off channel=2 note=58 velocity=80 time=0.14705875
EXTRACT: note_on channel=2 note=58 velocity=86 time=0.14705875
EXTRACT: note_off channel=4 note=70 velocity=80 time=0
EXTRACT: note_on channel=4 note=70 velocity=95 time=0
EXTRACT: note_off channel=9 note=42 velocity=80 time=0
EXTRACT: note_off channel=9 note=36 velocity=80 time=0
EXTRACT: note_off channel=9 note=53 velocity=80 time=0
EXTRACT: note_on channel=9 note=42 velocity=95 time=0
EXTRACT: note_on channel=9 note=36 velocity=95 time=0
EXTRACT: note_on channel=9 note=53 velocity=63 time=0
EXTRACT: note_off channel=2 note=58 velocity=80 time=0.14705875
EXTRACT: note_on channel=12 note=34 velocity=0 time=0.049019583333333325
EXTRACT: note_off channel=0 note=63 velocity=80 time=0.09803916666666665
EXTRACT: note_on channel=2 note=62 velocity=86 time=0
EXTRACT: note_off channel=4 note=63 velocity=80 time=0
EXTRACT: note_on channel=4 note=63 velocity=95 time=0
EXTRACT: note_off channel=9 note=42 velocity=80 time=0
EXTRACT: note_off channel=9 note=36 velocity=80 time=0
EXTRACT: note_off channel=9 note=53 velocity=80 time=0
EXTRACT: note_on channel=9 note=42 velocity=95 time=0
EXTRACT: note_on channel=9 note=38 velocity=95 time=0
EXTRACT: note_on channel=9 note=53 velocity=63 time=0
EXTRACT: note_on channel=12 note=34 velocity=75 time=0
EXTRACT: note_off channel=2 note=62 velocity=80 time=0.14705875
EXTRACT: note_on channel=2 note=58 velocity=86 time=0.14705875
EXTRACT: note_off channel=4 note=70 velocity=80 time=0
EXTRACT: note_on channel=4 note=70 velocity=95 time=0
EXTRACT: note_off channel=9 note=42 velocity=80 time=0
EXTRACT: note_off channel=9 note=38 velocity=80 time=0
EXTRACT: note_off channel=9 note=53 velocity=80 time=0
EXTRACT: note_on channel=9 note=42 velocity=95 time=0
EXTRACT: note_on channel=9 note=53 velocity=63 time=0
EXTRACT: note_off channel=2 note=58 velocity=80 time=0.14705875
EXTRACT: note_on channel=12 note=34 velocity=0 time=0.049019583333333325
EXTRACT: note_on channel=2 note=63 velocity=86 time=0.09803916666666665
EXTRACT: note_off channel=4 note=63 velocity=80 time=0
EXTRACT: note_on channel=4 note=63 velocity=95 time=0
EXTRACT: note_off channel=9 note=42 velocity=80 time=0
EXTRACT: note_off channel=9 note=53 velocity=80 time=0
EXTRACT: note_on channel=9 note=42 velocity=95 time=0
EXTRACT: note_on channel=9 note=36 velocity=95 time=0
EXTRACT: note_on channel=12 note=36 velocity=75 time=0
EXTRACT: note_off channel=2 note=63 velocity=80 time=0.14705875
EXTRACT: note_on channel=0 note=63 velocity=95 time=0.14705875
EXTRACT: note_on channel=2 note=58 velocity=86 time=0
EXTRACT: note_off channel=4 note=63 velocity=80 time=0
EXTRACT: note_on channel=4 note=63 velocity=95 time=0
EXTRACT: note_off channel=5 note=62 velocity=80 time=0
EXTRACT: note_on channel=5 note=63 velocity=95 time=0
EXTRACT: note_off channel=9 note=42 velocity=80 time=0
EXTRACT: note_off channel=9 note=36 velocity=80 time=0
EXTRACT: note_on channel=9 note=42 velocity=95 time=0
EXTRACT: note_on channel=9 note=53 velocity=63 time=0
EXTRACT: note_off channel=2 note=58 velocity=80 time=0.14705875
EXTRACT: note_on channel=12 note=36 velocity=0 time=0.049019583333333325
EXTRACT: note_off channel=0 note=63 velocity=80 time=0.09803916666666665
EXTRACT: note_on channel=0 note=63 velocity=95 time=0
EXTRACT: note_on channel=2 note=58 velocity=86 time=0
EXTRACT: note_off channel=4 note=70 velocity=80 time=0
EXTRACT: note_on channel=4 note=70 velocity=95 time=0
EXTRACT: note_off channel=5 note=58 velocity=80 time=0
EXTRACT: note_on channel=5 note=58 velocity=95 time=0
EXTRACT: note_off channel=9 note=42 velocity=80 time=0
EXTRACT: note_off channel=9 note=53 velocity=80 time=0
EXTRACT: note_on channel=9 note=42 velocity=95 time=0
EXTRACT: note_on channel=9 note=38 velocity=95 time=0
EXTRACT: note_on channel=9 note=53 velocity=63 time=0
EXTRACT: note_on channel=12 note=36 velocity=75 time=0
EXTRACT: note_off channel=2 note=58 velocity=80 time=0.14705875
EXTRACT: note_off channel=0 note=63 velocity=80 time=0.14705875
EXTRACT: note_on channel=0 note=63 velocity=95 time=0
EXTRACT: note_on channel=2 note=63 velocity=86 time=0
EXTRACT: note_off channel=4 note=63 velocity=80 time=0
EXTRACT: note_on channel=4 note=63 velocity=95 time=0
EXTRACT: note_off channel=5 note=65 velocity=80 time=0
EXTRACT: note_on channel=5 note=65 velocity=95 time=0
EXTRACT: note_off channel=9 note=42 velocity=80 time=0
EXTRACT: note_off channel=9 note=38 velocity=80 time=0
EXTRACT: note_off channel=9 note=53 velocity=80 time=0
EXTRACT: note_on channel=9 note=42 velocity=95 time=0
EXTRACT: note_on channel=9 note=53 velocity=63 time=0
EXTRACT: note_off channel=2 note=63 velocity=80 time=0.14705875
EXTRACT: note_on channel=12 note=36 velocity=0 time=0.049019583333333325
EXTRACT: note_off channel=0 note=63 velocity=80 time=0.09803916666666665
EXTRACT: note_on channel=0 note=63 velocity=95 time=0
EXTRACT: note_on channel=2 note=58 velocity=86 time=0
EXTRACT: note_off channel=4 note=63 velocity=80 time=0
EXTRACT: note_on channel=4 note=63 velocity=95 time=0
EXTRACT: note_off channel=9 note=42 velocity=80 time=0
EXTRACT: note_off channel=9 note=53 velocity=80 time=0
EXTRACT: note_on channel=9 note=42 velocity=95 time=0
EXTRACT: note_on channel=9 note=36 velocity=95 time=0
EXTRACT: note_on channel=9 note=53 velocity=63 time=0
EXTRACT: note_on channel=12 note=36 velocity=75 time=0
EXTRACT: note_off channel=2 note=58 velocity=80 time=0.14705875
EXTRACT: note_off channel=0 note=63 velocity=80 time=0.14705875
EXTRACT: note_on channel=0 note=63 velocity=95 time=0
EXTRACT: note_on channel=2 note=58 velocity=86 time=0
EXTRACT: note_off channel=4 note=70 velocity=80 time=0
EXTRACT: note_on channel=4 note=70 velocity=95 time=0
EXTRACT: note_off channel=9 note=42 velocity=80 time=0
EXTRACT: note_off channel=9 note=36 velocity=80 time=0
EXTRACT: note_off channel=9 note=53 velocity=80 time=0
EXTRACT: note_on channel=9 note=42 velocity=95 time=0
EXTRACT: note_on channel=9 note=36 velocity=95 time=0
EXTRACT: note_on channel=9 note=53 velocity=63 time=0
EXTRACT: note_off channel=2 note=58 velocity=80 time=0.14705875
EXTRACT: note_on channel=12 note=36 velocity=0 time=0.049019583333333325
EXTRACT: note_off channel=0 note=63 velocity=80 time=0.09803916666666665
EXTRACT: note_on channel=0 note=63 velocity=95 time=0
EXTRACT: note_on channel=2 note=63 velocity=86 time=0
EXTRACT: note_off channel=4 note=63 velocity=80 time=0
EXTRACT: note_on channel=4 note=63 velocity=95 time=0
EXTRACT: note_off channel=9 note=42 velocity=80 time=0
EXTRACT: note_off channel=9 note=36 velocity=80 time=0
EXTRACT: note_off channel=9 note=53 velocity=80 time=0
EXTRACT: note_on channel=9 note=42 velocity=95 time=0
EXTRACT: note_on channel=9 note=38 velocity=95 time=0
EXTRACT: note_on channel=9 note=53 velocity=63 time=0
EXTRACT: note_on channel=12 note=36 velocity=75 time=0
EXTRACT: note_off channel=2 note=63 velocity=80 time=0.14705875
EXTRACT: note_off channel=0 note=63 velocity=80 time=0.14705875
EXTRACT: note_on channel=0 note=63 velocity=95 time=0
EXTRACT: note_on channel=2 note=58 velocity=86 time=0
EXTRACT: note_off channel=4 note=70 velocity=80 time=0
EXTRACT: note_on channel=4 note=70 velocity=95 time=0
EXTRACT: note_off channel=9 note=42 velocity=80 time=0
EXTRACT: note_off channel=9 note=38 velocity=80 time=0
EXTRACT: note_off channel=9 note=53 velocity=80 time=0
EXTRACT: note_on channel=9 note=42 velocity=95 time=0
EXTRACT: note_on channel=9 note=53 velocity=63 time=0
EXTRACT: note_off channel=2 note=58 velocity=80 time=0.14705875
EXTRACT: note_on channel=12 note=36 velocity=0 time=0.049019583333333325
EXTRACT: note_off channel=0 note=63 velocity=80 time=0.09803916666666665
EXTRACT: note_on channel=0 note=62 velocity=95 time=0
EXTRACT: note_on channel=6 note=62 velocity=95 time=0
EXTRACT: note_on channel=2 note=63 velocity=86 time=0
EXTRACT: note_off channel=4 note=63 velocity=80 time=0
EXTRACT: note_on channel=4 note=63 velocity=95 time=0
EXTRACT: note_off channel=9 note=42 velocity=80 time=0
EXTRACT: note_off channel=9 note=53 velocity=80 time=0
EXTRACT: note_on channel=9 note=42 velocity=95 time=0
EXTRACT: note_on channel=9 note=36 velocity=95 time=0
EXTRACT: note_on channel=12 note=34 velocity=75 time=0
EXTRACT: note_off channel=2 note=63 velocity=80 time=0.14705875
EXTRACT: note_off channel=0 note=62 velocity=80 time=0.14705875
EXTRACT: note_on channel=0 note=63 velocity=95 time=0
EXTRACT: note_off channel=6 note=62 velocity=80 time=0
EXTRACT: note_on channel=6 note=63 velocity=95 time=0
EXTRACT: note_on channel=2 note=58 velocity=86 time=0
EXTRACT: note_off channel=4 note=63 velocity=80 time=0
EXTRACT: note_on channel=4 note=63 velocity=95 time=0
EXTRACT: note_off channel=5 note=63 velocity=80 time=0
EXTRACT: note_on channel=5 note=63 velocity=95 time=0
EXTRACT: note_off channel=9 note=42 velocity=80 time=0
EXTRACT: note_off channel=9 note=36 velocity=80 time=0
EXTRACT: note_on channel=9 note=42 velocity=95 time=0
EXTRACT: note_on channel=9 note=53 velocity=63 time=0
EXTRACT: note_off channel=2 note=58 velocity=80 time=0.14705875
EXTRACT: note_on channel=12 note=34 velocity=0 time=0.049019583333333325
EXTRACT: note_on channel=2 note=58 velocity=86 time=0.09803916666666665
EXTRACT: note_off channel=4 note=70 velocity=80 time=0
EXTRACT: note_on channel=4 note=70 velocity=95 time=0
EXTRACT: note_off channel=5 note=58 velocity=80 time=0
EXTRACT: note_on channel=5 note=58 velocity=95 time=0
EXTRACT: note_off channel=9 note=42 velocity=80 time=0
EXTRACT: note_off channel=9 note=53 velocity=80 time=0
EXTRACT: note_on channel=9 note=42 velocity=95 time=0
EXTRACT: note_on channel=9 note=38 velocity=95 time=0
EXTRACT: note_on channel=9 note=53 velocity=63 time=0
EXTRACT: note_on channel=12 note=34 velocity=75 time=0
EXTRACT: note_off channel=2 note=58 velocity=80 time=0.14705875
EXTRACT: note_on channel=0 note=64 velocity=95 time=0.073529375
EXTRACT: note_on channel=6 note=64 velocity=95 time=0
EXTRACT: note_off channel=0 note=64 velocity=80 time=0.07107839583333332
EXTRACT: note_off channel=6 note=64 velocity=80 time=0
EXTRACT: note_off channel=0 note=63 velocity=80 time=0.0024509791666666664
EXTRACT: note_on channel=0 note=65 velocity=95 time=0
EXTRACT: note_off channel=6 note=63 velocity=80 time=0
EXTRACT: note_on channel=6 note=65 velocity=95 time=0
EXTRACT: note_on channel=2 note=62 velocity=86 time=0
EXTRACT: note_off channel=4 note=63 velocity=80 time=0
EXTRACT: note_on channel=4 note=63 velocity=95 time=0
EXTRACT: note_off channel=5 note=65 velocity=80 time=0
EXTRACT: note_on channel=5 note=70 velocity=95 time=0
EXTRACT: note_off channel=9 note=42 velocity=80 time=0
EXTRACT: note_off channel=9 note=38 velocity=80 time=0
EXTRACT: note_off channel=9 note=53 velocity=80 time=0
EXTRACT: note_on channel=9 note=42 velocity=95 time=0
EXTRACT: note_on channel=9 note=53 velocity=63 time=0
EXTRACT: note_off channel=2 note=62 velocity=80 time=0.14705875
EXTRACT: note_on channel=12 note=34 velocity=0 time=0.049019583333333325
EXTRACT: note_on channel=2 note=58 velocity=86 time=0.09803916666666665
EXTRACT: note_off channel=4 note=63 velocity=80 time=0
EXTRACT: note_on channel=4 note=63 velocity=95 time=0
EXTRACT: note_off channel=9 note=42 velocity=80 time=0
EXTRACT: note_off channel=9 note=53 velocity=80 time=0
EXTRACT: note_on channel=9 note=42 velocity=95 time=0
EXTRACT: note_on channel=9 note=36 velocity=95 time=0
EXTRACT: note_on channel=9 note=53 velocity=63 time=0
EXTRACT: note_on channel=12 note=34 velocity=75 time=0
EXTRACT: note_off channel=2 note=58 velocity=80 time=0.14705875
EXTRACT: note_on channel=2 note=58 velocity=86 time=0.14705875
EXTRACT: note_off channel=4 note=70 velocity=80 time=0
EXTRACT: note_on channel=4 note=70 velocity=95 time=0
EXTRACT: note_off channel=9 note=42 velocity=80 time=0
EXTRACT: note_off channel=9 note=36 velocity=80 time=0
EXTRACT: note_off channel=9 note=53 velocity=80 time=0
EXTRACT: note_on channel=9 note=42 velocity=95 time=0
EXTRACT: note_on channel=9 note=36 velocity=95 time=0
EXTRACT: note_on channel=9 note=53 velocity=63 time=0
EXTRACT: note_off channel=2 note=58 velocity=80 time=0.14705875
EXTRACT: note_on channel=12 note=34 velocity=0 time=0.049019583333333325
EXTRACT: note_on channel=2 note=62 velocity=86 time=0.09803916666666665
EXTRACT: note_off channel=4 note=63 velocity=80 time=0
EXTRACT: note_on channel=4 note=63 velocity=95 time=0
EXTRACT: note_off channel=9 note=42 velocity=80 time=0
EXTRACT: note_off channel=9 note=36 velocity=80 time=0
EXTRACT: note_off channel=9 note=53 velocity=80 time=0
EXTRACT: note_on channel=9 note=42 velocity=95 time=0
EXTRACT: note_on channel=9 note=38 velocity=95 time=0
EXTRACT: note_on channel=9 note=53 velocity=63 time=0
EXTRACT: note_on channel=12 note=34 velocity=75 time=0
EXTRACT: note_off channel=2 note=62 velocity=80 time=0.14705875
EXTRACT: note_on channel=12 note=34 velocity=0 time=0.1397058125
EXTRACT: note_off channel=0 note=65 velocity=80 time=0.007352937499999999
EXTRACT: note_off channel=6 note=65 velocity=80 time=0
EXTRACT: note_on channel=2 note=58 velocity=86 time=0
EXTRACT: note_off channel=4 note=70 velocity=80 time=0
EXTRACT: note_on channel=4 note=70 velocity=95 time=0
EXTRACT: note_off channel=9 note=42 velocity=80 time=0
EXTRACT: note_off channel=9 note=38 velocity=80 time=0
EXTRACT: note_off channel=9 note=53 velocity=80 time=0
EXTRACT: note_on channel=9 note=42 velocity=95 time=0
EXTRACT: note_on channel=9 note=53 velocity=63 time=0
EXTRACT: note_on channel=12 note=36 velocity=75 time=0
EXTRACT: note_off channel=2 note=58 velocity=80 time=0.14705875
EXTRACT: note_on channel=12 note=36 velocity=0 time=0.1397058125
EXTRACT: note_on channel=2 note=63 velocity=86 time=0.007352937499999999
EXTRACT: note_off channel=4 note=63 velocity=80 time=0
EXTRACT: note_on channel=4 note=63 velocity=95 time=0
EXTRACT: note_off channel=9 note=42 velocity=80 time=0
EXTRACT: note_off channel=9 note=53 velocity=80 time=0
EXTRACT: note_on channel=9 note=57 velocity=95 time=0
EXTRACT: note_on channel=9 note=36 velocity=95 time=0
EXTRACT: note_on channel=12 note=39 velocity=75 time=0
EXTRACT: note_off channel=2 note=63 velocity=80 time=0.14705875
EXTRACT: note_on channel=0 note=63 velocity=95 time=0.14705875
EXTRACT: note_on channel=2 note=58 velocity=86 time=0
EXTRACT: note_off channel=4 note=63 velocity=80 time=0
EXTRACT: note_on channel=4 note=63 velocity=95 time=0
EXTRACT: note_off channel=5 note=63 velocity=80 time=0
EXTRACT: note_on channel=5 note=63 velocity=95 time=0
EXTRACT: note_off channel=9 note=57 velocity=80 time=0
EXTRACT: note_off channel=9 note=36 velocity=80 time=0
EXTRACT: note_on channel=9 note=42 velocity=95 time=0
EXTRACT: note_on channel=9 note=53 velocity=63 time=0
EXTRACT: note_off channel=2 note=58 velocity=80 time=0.14705875
EXTRACT: note_on channel=12 note=39 velocity=0 time=0.049019583333333325
EXTRACT: note_off channel=0 note=63 velocity=80 time=0.09803916666666665
EXTRACT: note_on channel=0 note=63 velocity=95 time=0
EXTRACT: note_on channel=2 note=58 velocity=86 time=0
EXTRACT: note_off channel=4 note=70 velocity=80 time=0
EXTRACT: note_on channel=4 note=70 velocity=95 time=0
EXTRACT: note_off channel=5 note=58 velocity=80 time=0
EXTRACT: note_on channel=5 note=58 velocity=95 time=0
EXTRACT: note_off channel=9 note=42 velocity=80 time=0
EXTRACT: note_off channel=9 note=53 velocity=80 time=0
EXTRACT: note_on channel=9 note=42 velocity=79 time=0
EXTRACT: note_on channel=9 note=38 velocity=95 time=0
EXTRACT: note_on channel=9 note=53 velocity=63 time=0
EXTRACT: note_on channel=12 note=39 velocity=75 time=0
EXTRACT: note_off channel=2 note=58 velocity=80 time=0.14705875
EXTRACT: note_off channel=0 note=63 velocity=80 time=0.14705875
EXTRACT: note_on channel=0 note=63 velocity=95 time=0
EXTRACT: note_on channel=2 note=63 velocity=86 time=0
EXTRACT: note_off channel=4 note=63 velocity=80 time=0
EXTRACT: note_on channel=4 note=63 velocity=95 time=0
EXTRACT: note_off channel=5 note=70 velocity=80 time=0
EXTRACT: note_on channel=5 note=65 velocity=95 time=0
EXTRACT: note_off channel=9 note=42 velocity=80 time=0
EXTRACT: note_off channel=9 note=38 velocity=80 time=0
EXTRACT: note_off channel=9 note=53 velocity=80 time=0
EXTRACT: note_on channel=9 note=42 velocity=79 time=0
EXTRACT: note_on channel=9 note=53 velocity=63 time=0
EXTRACT: note_off channel=2 note=63 velocity=80 time=0.14705875
EXTRACT: note_on channel=12 note=39 velocity=0 time=0.049019583333333325
EXTRACT: note_off channel=0 note=63 velocity=80 time=0.09803916666666665
EXTRACT: note_on channel=0 note=63 velocity=95 time=0
EXTRACT: note_on channel=2 note=58 velocity=86 time=0
EXTRACT: note_off channel=4 note=63 velocity=80 time=0
EXTRACT: note_on channel=4 note=63 velocity=95 time=0
EXTRACT: note_off channel=9 note=42 velocity=80 time=0
EXTRACT: note_off channel=9 note=53 velocity=80 time=0
EXTRACT: note_on channel=9 note=42 velocity=79 time=0
EXTRACT: note_on channel=9 note=36 velocity=95 time=0
EXTRACT: note_on channel=9 note=53 velocity=63 time=0
EXTRACT: note_on channel=12 note=39 velocity=75 time=0
EXTRACT: note_off channel=2 note=58 velocity=80 time=0.14705875
EXTRACT: note_on channel=2 note=58 velocity=86 time=0.14705875
EXTRACT: note_off channel=4 note=70 velocity=80 time=0
EXTRACT: note_on channel=4 note=70 velocity=95 time=0
EXTRACT: note_off channel=9 note=42 velocity=80 time=0
EXTRACT: note_off channel=9 note=36 velocity=80 time=0
EXTRACT: note_off channel=9 note=53 velocity=80 time=0
EXTRACT: note_on channel=9 note=42 velocity=79 time=0
EXTRACT: note_on channel=9 note=36 velocity=95 time=0
EXTRACT: note_on channel=9 note=53 velocity=63 time=0
EXTRACT: note_off channel=2 note=58 velocity=80 time=0.14705875
EXTRACT: note_on channel=12 note=39 velocity=0 time=0.049019583333333325
EXTRACT: note_off channel=0 note=63 velocity=80 time=0.09803916666666665
EXTRACT: note_on channel=0 note=63 velocity=95 time=0
EXTRACT: note_on channel=2 note=63 velocity=86 time=0
EXTRACT: note_off channel=4 note=63 velocity=80 time=0
EXTRACT: note_on channel=4 note=63 velocity=95 time=0
EXTRACT: note_off channel=9 note=42 velocity=80 time=0
EXTRACT: note_off channel=9 note=36 velocity=80 time=0
EXTRACT: note_off channel=9 note=53 velocity=80 time=0
EXTRACT: note_on channel=9 note=42 velocity=79 time=0
EXTRACT: note_on channel=9 note=38 velocity=95 time=0
EXTRACT: note_on channel=9 note=53 velocity=63 time=0
EXTRACT: note_on channel=12 note=39 velocity=75 time=0
EXTRACT: note_off channel=2 note=63 velocity=80 time=0.14705875
EXTRACT: note_on channel=12 note=39 velocity=0 time=0.1397058125
EXTRACT: note_off channel=0 note=63 velocity=80 time=0.007352937499999999
EXTRACT: note_on channel=0 note=63 velocity=95 time=0
EXTRACT: note_on channel=2 note=58 velocity=86 time=0
EXTRACT: note_off channel=4 note=70 velocity=80 time=0
EXTRACT: note_on channel=4 note=70 velocity=95 time=0
EXTRACT: note_off channel=9 note=42 velocity=80 time=0
EXTRACT: note_off channel=9 note=38 velocity=80 time=0
EXTRACT: note_off channel=9 note=53 velocity=80 time=0
EXTRACT: note_on channel=9 note=42 velocity=79 time=0
EXTRACT: note_on channel=9 note=53 velocity=63 time=0
EXTRACT: note_on channel=12 note=39 velocity=75 time=0
EXTRACT: note_off channel=2 note=58 velocity=80 time=0.14705875
EXTRACT: note_on channel=12 note=39 velocity=0 time=0.1397058125
EXTRACT: note_off channel=0 note=63 velocity=80 time=0.007352937499999999
EXTRACT: note_on channel=0 note=62 velocity=95 time=0
EXTRACT: note_on channel=2 note=63 velocity=86 time=0
EXTRACT: note_off channel=4 note=63 velocity=80 time=0
EXTRACT: note_on channel=4 note=63 velocity=95 time=0
EXTRACT: note_off channel=9 note=42 velocity=80 time=0
EXTRACT: note_off channel=9 note=53 velocity=80 time=0
EXTRACT: note_on channel=9 note=42 velocity=95 time=0
EXTRACT: note_on channel=9 note=36 velocity=95 time=0
EXTRACT: note_on channel=12 note=34 velocity=75 time=0
EXTRACT: note_off channel=2 note=63 velocity=80 time=0.14705875
EXTRACT: note_off channel=0 note=62 velocity=80 time=0.14705875
EXTRACT: note_on channel=0 note=63 velocity=95 time=0
EXTRACT: note_on channel=2 note=58 velocity=86 time=0
EXTRACT: note_off channel=4 note=63 velocity=80 time=0
EXTRACT: note_on channel=4 note=63 velocity=95 time=0
EXTRACT: note_off channel=5 note=63 velocity=80 time=0
EXTRACT: note_on channel=5 note=62 velocity=95 time=0
EXTRACT: note_off channel=9 note=42 velocity=80 time=0
EXTRACT: note_off channel=9 note=36 velocity=80 time=0
EXTRACT: note_on channel=9 note=42 velocity=95 time=0
EXTRACT: note_on channel=9 note=53 velocity=63 time=0
EXTRACT: note_off channel=2 note=58 velocity=80 time=0.14705875
EXTRACT: note_on channel=12 note=34 velocity=0 time=0.049019583333333325
EXTRACT: note_on channel=2 note=58 velocity=86 time=0.09803916666666665
EXTRACT: note_off channel=4 note=70 velocity=80 time=0
EXTRACT: note_on channel=4 note=70 velocity=95 time=0
EXTRACT: note_off channel=5 note=58 velocity=80 time=0
EXTRACT: note_on channel=5 note=58 velocity=95 time=0
EXTRACT: note_off channel=9 note=42 velocity=80 time=0
EXTRACT: note_off channel=9 note=53 velocity=80 time=0
EXTRACT: note_on channel=9 note=42 velocity=95 time=0
EXTRACT: note_on channel=9 note=38 velocity=95 time=0
EXTRACT: note_on channel=9 note=53 velocity=63 time=0
EXTRACT: note_on channel=12 note=34 velocity=75 time=0
EXTRACT: note_off channel=2 note=58 velocity=80 time=0.14705875
EXTRACT: note_off channel=0 note=63 velocity=80 time=0.14705875
EXTRACT: note_on channel=0 note=63 velocity=95 time=0
EXTRACT: note_on channel=2 note=62 velocity=86 time=0
EXTRACT: note_off channel=4 note=63 velocity=80 time=0
EXTRACT: note_on channel=4 note=63 velocity=95 time=0
EXTRACT: note_off channel=5 note=65 velocity=80 time=0
EXTRACT: note_on channel=5 note=65 velocity=95 time=0
EXTRACT: note_off channel=9 note=42 velocity=80 time=0
EXTRACT: note_off channel=9 note=38 velocity=80 time=0
EXTRACT: note_off channel=9 note=53 velocity=80 time=0
EXTRACT: note_on channel=9 note=42 velocity=95 time=0
EXTRACT: note_on channel=9 note=53 velocity=63 time=0
EXTRACT: note_off channel=2 note=62 velocity=80 time=0.14705875
EXTRACT: note_on channel=12 note=34 velocity=0 time=0.049019583333333325
EXTRACT: note_on channel=2 note=58 velocity=86 time=0.09803916666666665
EXTRACT: note_off channel=4 note=63 velocity=80 time=0
EXTRACT: note_on channel=4 note=63 velocity=95 time=0
EXTRACT: note_off channel=9 note=42 velocity=80 time=0
EXTRACT: note_off channel=9 note=53 velocity=80 time=0
EXTRACT: note_on channel=9 note=42 velocity=95 time=0
EXTRACT: note_on channel=9 note=36 velocity=95 time=0
EXTRACT: note_on channel=9 note=53 velocity=63 time=0
EXTRACT: note_on channel=12 note=34 velocity=75 time=0
EXTRACT: note_off channel=2 note=58 velocity=80 time=0.14705875
EXTRACT: note_off channel=0 note=63 velocity=80 time=0.14705875
EXTRACT: note_on channel=0 note=60 velocity=86 time=0
EXTRACT: note_on channel=2 note=58 velocity=86 time=0
EXTRACT: note_off channel=4 note=70 velocity=80 time=0
EXTRACT: note_on channel=4 note=70 velocity=95 time=0
EXTRACT: note_off channel=9 note=42 velocity=80 time=0
EXTRACT: note_off channel=9 note=36 velocity=80 time=0
EXTRACT: note_off channel=9 note=53 velocity=80 time=0
EXTRACT: note_on channel=9 note=42 velocity=95 time=0
EXTRACT: note_on channel=9 note=36 velocity=95 time=0
EXTRACT: note_on channel=9 note=53 velocity=63 time=0
EXTRACT: note_off channel=2 note=58 velocity=80 time=0.14705875
EXTRACT: note_on channel=12 note=34 velocity=0 time=0.049019583333333325
EXTRACT: note_off channel=0 note=60 velocity=80 time=0.09803916666666665
EXTRACT: note_on channel=2 note=62 velocity=86 time=0
EXTRACT: note_off channel=4 note=63 velocity=80 time=0
EXTRACT: note_on channel=4 note=63 velocity=95 time=0
EXTRACT: note_off channel=9 note=42 velocity=80 time=0
EXTRACT: note_off channel=9 note=36 velocity=80 time=0
EXTRACT: note_off channel=9 note=53 velocity=80 time=0
EXTRACT: note_on channel=9 note=42 velocity=95 time=0
EXTRACT: note_on channel=9 note=38 velocity=95 time=0
EXTRACT: note_on channel=9 note=53 velocity=63 time=0
EXTRACT: note_on channel=12 note=34 velocity=75 time=0
EXTRACT: note_off channel=2 note=62 velocity=80 time=0.14705875
EXTRACT: note_on channel=12 note=34 velocity=0 time=0.1397058125
EXTRACT: note_on channel=2 note=58 velocity=86 time=0.007352937499999999
EXTRACT: note_off channel=4 note=70 velocity=80 time=0
EXTRACT: note_on channel=4 note=70 velocity=95 time=0
EXTRACT: note_off channel=9 note=42 velocity=80 time=0
EXTRACT: note_off channel=9 note=38 velocity=80 time=0
EXTRACT: note_off channel=9 note=53 velocity=80 time=0
EXTRACT: note_on channel=9 note=42 velocity=95 time=0
EXTRACT: note_on channel=9 note=53 velocity=63 time=0
EXTRACT: note_on channel=12 note=34 velocity=75 time=0
EXTRACT: note_off channel=2 note=58 velocity=80 time=0.14705875
EXTRACT: note_on channel=12 note=34 velocity=0 time=0.1397058125
EXTRACT: note_on channel=2 note=63 velocity=86 time=0.007352937499999999
EXTRACT: note_off channel=4 note=63 velocity=80 time=0
EXTRACT: note_on channel=4 note=63 velocity=95 time=0
EXTRACT: note_off channel=5 note=62 velocity=80 time=0
EXTRACT: note_off channel=5 note=58 velocity=80 time=0
EXTRACT: note_off channel=5 note=65 velocity=80 time=0
EXTRACT: note_off channel=9 note=42 velocity=80 time=0
EXTRACT: note_off channel=9 note=53 velocity=80 time=0
EXTRACT: note_on channel=9 note=42 velocity=95 time=0
EXTRACT: note_on channel=9 note=36 velocity=95 time=0
EXTRACT: note_on channel=12 note=36 velocity=75 time=0
EXTRACT: note_off channel=2 note=63 velocity=80 time=0.14705875
EXTRACT: note_on channel=2 note=58 velocity=86 time=0.14705875
EXTRACT: note_off channel=4 note=63 velocity=80 time=0
EXTRACT: note_on channel=4 note=63 velocity=95 time=0
EXTRACT: note_on channel=5 note=63 velocity=95 time=0
EXTRACT: note_off channel=9 note=42 velocity=80 time=0
EXTRACT: note_off channel=9 note=36 velocity=80 time=0
EXTRACT: note_on channel=9 note=42 velocity=95 time=0
EXTRACT: note_on channel=9 note=53 velocity=63 time=0
EXTRACT: note_off channel=2 note=58 velocity=80 time=0.14705875
EXTRACT: note_on channel=12 note=36 velocity=0 time=0.049019583333333325
EXTRACT: note_on channel=0 note=62 velocity=95 time=0.09803916666666665
EXTRACT: note_on channel=2 note=58 velocity=86 time=0
EXTRACT: note_off channel=4 note=70 velocity=80 time=0
EXTRACT: note_on channel=4 note=70 velocity=95 time=0
EXTRACT: note_on channel=5 note=58 velocity=95 time=0
EXTRACT: note_off channel=9 note=42 velocity=80 time=0
EXTRACT: note_off channel=9 note=53 velocity=80 time=0
EXTRACT: note_on channel=9 note=42 velocity=95 time=0
EXTRACT: note_on channel=9 note=38 velocity=95 time=0
EXTRACT: note_on channel=9 note=53 velocity=63 time=0
EXTRACT: note_on channel=12 note=36 velocity=75 time=0
EXTRACT: note_off channel=2 note=58 velocity=80 time=0.14705875
EXTRACT: note_off channel=0 note=62 velocity=80 time=0.14705875
EXTRACT: note_on channel=0 note=63 velocity=95 time=0
EXTRACT: note_on channel=2 note=63 velocity=86 time=0
EXTRACT: note_off channel=4 note=63 velocity=80 time=0
EXTRACT: note_on channel=4 note=63 velocity=95 time=0
EXTRACT: note_on channel=5 note=67 velocity=95 time=0
EXTRACT: note_off channel=9 note=42 velocity=80 time=0
EXTRACT: note_off channel=9 note=38 velocity=80 time=0
EXTRACT: note_off channel=9 note=53 velocity=80 time=0
EXTRACT: note_on channel=9 note=42 velocity=95 time=0
EXTRACT: note_on channel=9 note=53 velocity=63 time=0
EXTRACT: note_off channel=2 note=63 velocity=80 time=0.14705875
EXTRACT: note_on channel=12 note=36 velocity=0 time=0.049019583333333325
EXTRACT: note_off channel=0 note=63 velocity=80 time=0.09803916666666665
EXTRACT: note_on channel=0 note=63 velocity=95 time=0
EXTRACT: note_on channel=2 note=58 velocity=86 time=0
EXTRACT: note_off channel=4 note=63 velocity=80 time=0
EXTRACT: note_on channel=4 note=63 velocity=95 time=0
EXTRACT: note_off channel=9 note=42 velocity=80 time=0
EXTRACT: note_off channel=9 note=53 velocity=80 time=0
EXTRACT: note_on channel=9 note=42 velocity=95 time=0
EXTRACT: note_on channel=9 note=36 velocity=95 time=0
EXTRACT: note_on channel=9 note=53 velocity=63 time=0
EXTRACT: note_on channel=12 note=36 velocity=75 time=0
EXTRACT: note_off channel=2 note=58 velocity=80 time=0.14705875
EXTRACT: note_off channel=0 note=63 velocity=80 time=0.14705875
EXTRACT: note_on channel=0 note=63 velocity=95 time=0
EXTRACT: note_on channel=2 note=58 velocity=86 time=0
EXTRACT: note_off channel=4 note=70 velocity=80 time=0
EXTRACT: note_on channel=4 note=70 velocity=95 time=0
EXTRACT: note_off channel=9 note=42 velocity=80 time=0
EXTRACT: note_off channel=9 note=36 velocity=80 time=0
EXTRACT: note_off channel=9 note=53 velocity=80 time=0
EXTRACT: note_on channel=9 note=42 velocity=95 time=0
EXTRACT: note_on channel=9 note=36 velocity=95 time=0
EXTRACT: note_on channel=9 note=53 velocity=63 time=0
EXTRACT: note_off channel=2 note=58 velocity=80 time=0.14705875
EXTRACT: note_on channel=12 note=36 velocity=0 time=0.049019583333333325
EXTRACT: note_off channel=0 note=63 velocity=80 time=0.09803916666666665
EXTRACT: note_on channel=0 note=63 velocity=95 time=0
EXTRACT: note_on channel=2 note=63 velocity=86 time=0
EXTRACT: note_off channel=4 note=63 velocity=80 time=0
EXTRACT: note_on channel=4 note=63 velocity=95 time=0
EXTRACT: note_off channel=9 note=42 velocity=80 time=0
EXTRACT: note_off channel=9 note=36 velocity=80 time=0
EXTRACT: note_off channel=9 note=53 velocity=80 time=0
EXTRACT: note_on channel=9 note=42 velocity=95 time=0
EXTRACT: note_on channel=9 note=38 velocity=95 time=0
EXTRACT: note_on channel=9 note=53 velocity=63 time=0
EXTRACT: note_on channel=12 note=36 velocity=75 time=0
EXTRACT: note_off channel=2 note=63 velocity=80 time=0.14705875
EXTRACT: note_on channel=12 note=36 velocity=0 time=0.1397058125
EXTRACT: note_off channel=0 note=63 velocity=80 time=0.007352937499999999
EXTRACT: note_on channel=0 note=58 velocity=95 time=0
EXTRACT: note_on channel=2 note=58 velocity=86 time=0
EXTRACT: note_off channel=4 note=70 velocity=80 time=0
EXTRACT: note_on channel=4 note=70 velocity=95 time=0
EXTRACT: note_off channel=9 note=42 velocity=80 time=0
EXTRACT: note_off channel=9 note=38 velocity=80 time=0
EXTRACT: note_off channel=9 note=53 velocity=80 time=0
EXTRACT: note_on channel=9 note=42 velocity=95 time=0
EXTRACT: note_on channel=9 note=53 velocity=63 time=0
EXTRACT: note_on channel=12 note=36 velocity=75 time=0
EXTRACT: note_off channel=2 note=58 velocity=80 time=0.14705875
EXTRACT: note_on channel=12 note=36 velocity=0 time=0.1397058125
EXTRACT: note_off channel=0 note=58 velocity=80 time=0.007352937499999999
EXTRACT: note_on channel=0 note=62 velocity=95 time=0
EXTRACT: note_on channel=2 note=63 velocity=86 time=0
EXTRACT: note_off channel=4 note=63 velocity=80 time=0
EXTRACT: note_on channel=4 note=63 velocity=95 time=0
EXTRACT: note_off channel=9 note=42 velocity=80 time=0
EXTRACT: note_off channel=9 note=53 velocity=80 time=0
EXTRACT: note_on channel=9 note=42 velocity=95 time=0
EXTRACT: note_on channel=9 note=36 velocity=95 time=0
EXTRACT: note_on channel=12 note=32 velocity=75 time=0
EXTRACT: note_off channel=2 note=63 velocity=80 time=0.14705875
EXTRACT: note_off channel=0 note=62 velocity=80 time=0.14705875
EXTRACT: note_on channel=0 note=63 velocity=95 time=0
EXTRACT: note_on channel=2 note=58 velocity=86 time=0
EXTRACT: note_off channel=4 note=63 velocity=80 time=0
EXTRACT: note_on channel=4 note=63 velocity=95 time=0
EXTRACT: note_off channel=5 note=63 velocity=80 time=0
EXTRACT: note_on channel=5 note=63 velocity=95 time=0
EXTRACT: note_off channel=9 note=42 velocity=80 time=0
EXTRACT: note_off channel=9 note=36 velocity=80 time=0
EXTRACT: note_on channel=9 note=42 velocity=95 time=0
EXTRACT: note_on channel=9 note=53 velocity=63 time=0
EXTRACT: note_off channel=2 note=58 velocity=80 time=0.14705875
EXTRACT: note_on channel=12 note=32 velocity=0 time=0.049019583333333325
EXTRACT: note_on channel=2 note=58 velocity=86 time=0.09803916666666665
EXTRACT: note_off channel=4 note=70 velocity=80 time=0
EXTRACT: note_on channel=4 note=70 velocity=95 time=0
EXTRACT: note_off channel=5 note=58 velocity=80 time=0
EXTRACT: note_on channel=5 note=60 velocity=95 time=0
EXTRACT: note_off channel=9 note=42 velocity=80 time=0
EXTRACT: note_off channel=9 note=53 velocity=80 time=0
EXTRACT: note_on channel=9 note=42 velocity=95 time=0
EXTRACT: note_on channel=9 note=38 velocity=95 time=0
EXTRACT: note_on channel=9 note=53 velocity=63 time=0
EXTRACT: note_on channel=12 note=32 velocity=75 time=0
EXTRACT: note_off channel=2 note=58 velocity=80 time=0.14705875
EXTRACT: note_off channel=0 note=63 velocity=80 time=0.14705875
EXTRACT: note_on channel=0 note=63 velocity=95 time=0
EXTRACT: note_on channel=2 note=63 velocity=86 time=0
EXTRACT: note_off channel=4 note=63 velocity=80 time=0
EXTRACT: note_on channel=4 note=63 velocity=95 time=0
EXTRACT: note_off channel=5 note=67 velocity=80 time=0
EXTRACT: note_on channel=5 note=68 velocity=95 time=0
EXTRACT: note_off channel=9 note=42 velocity=80 time=0
EXTRACT: note_off channel=9 note=38 velocity=80 time=0
EXTRACT: note_off channel=9 note=53 velocity=80 time=0
EXTRACT: note_on channel=9 note=42 velocity=95 time=0
EXTRACT: note_on channel=9 note=36 velocity=95 time=0
EXTRACT: note_on channel=9 note=53 velocity=63 time=0
EXTRACT: note_off channel=2 note=63 velocity=80 time=0.14705875
EXTRACT: note_on channel=12 note=32 velocity=0 time=0.049019583333333325
EXTRACT: note_off channel=0 note=63 velocity=80 time=0.09803916666666665
EXTRACT: note_on channel=2 note=58 velocity=86 time=0
EXTRACT: note_off channel=4 note=63 velocity=80 time=0
EXTRACT: note_on channel=4 note=63 velocity=95 time=0
EXTRACT: note_off channel=9 note=42 velocity=80 time=0
EXTRACT: note_off channel=9 note=36 velocity=80 time=0
EXTRACT: note_off channel=9 note=53 velocity=80 time=0
EXTRACT: note_on channel=9 note=42 velocity=95 time=0
EXTRACT: note_on channel=9 note=36 velocity=79 time=0
EXTRACT: note_on channel=9 note=38 velocity=79 time=0
EXTRACT: note_on channel=9 note=53 velocity=63 time=0
EXTRACT: note_on channel=12 note=32 velocity=75 time=0
EXTRACT: note_off channel=2 note=58 velocity=80 time=0.14705875
EXTRACT: note_on channel=0 note=63 velocity=95 time=0.14705875
EXTRACT: note_on channel=2 note=58 velocity=86 time=0
EXTRACT: note_off channel=4 note=70 velocity=80 time=0
EXTRACT: note_on channel=4 note=70 velocity=95 time=0
EXTRACT: note_off channel=9 note=42 velocity=80 time=0
EXTRACT: note_off channel=9 note=36 velocity=80 time=0
EXTRACT: note_off channel=9 note=38 velocity=80 time=0
EXTRACT: note_off channel=9 note=53 velocity=80 time=0
EXTRACT: note_on channel=9 note=42 velocity=95 time=0
EXTRACT: note_on channel=9 note=36 velocity=95 time=0
EXTRACT: note_on channel=9 note=38 velocity=79 time=0
EXTRACT: note_on channel=9 note=53 velocity=95 time=0
EXTRACT: note_off channel=2 note=58 velocity=80 time=0.14705875
EXTRACT: note_on channel=12 note=32 velocity=0 time=0.049019583333333325
EXTRACT: note_off channel=0 note=63 velocity=80 time=0.09803916666666665
EXTRACT: note_on channel=0 note=63 velocity=95 time=0
EXTRACT: note_on channel=2 note=63 velocity=86 time=0
EXTRACT: note_off channel=4 note=63 velocity=80 time=0
EXTRACT: note_on channel=4 note=63 velocity=95 time=0
EXTRACT: note_off channel=9 note=42 velocity=80 time=0
EXTRACT: note_off channel=9 note=36 velocity=80 time=0
EXTRACT: note_off channel=9 note=38 velocity=80 time=0
EXTRACT: note_off channel=9 note=53 velocity=80 time=0
EXTRACT: note_on channel=9 note=57 velocity=127 time=0
EXTRACT: note_on channel=9 note=36 velocity=95 time=0
EXTRACT: note_on channel=9 note=38 velocity=95 time=0
EXTRACT: note_on channel=9 note=53 velocity=63 time=0
EXTRACT: note_on channel=12 note=32 velocity=75 time=0
EXTRACT: note_off channel=2 note=63 velocity=80 time=0.14705875
EXTRACT: note_on channel=0 note=68 velocity=95 time=0.073529375
EXTRACT: note_on channel=12 note=32 velocity=0 time=0.06617643749999999
EXTRACT: note_off channel=0 note=68 velocity=80 time=0.004901958333333333
EXTRACT: note_off channel=0 note=63 velocity=80 time=0.0024509791666666664
EXTRACT: note_on channel=0 note=70 velocity=95 time=0
EXTRACT: note_on channel=2 note=58 velocity=86 time=0
EXTRACT: note_off channel=4 note=70 velocity=80 time=0
EXTRACT: note_on channel=4 note=70 velocity=95 time=0
EXTRACT: note_off channel=9 note=57 velocity=80 time=0
EXTRACT: note_off channel=9 note=36 velocity=80 time=0
EXTRACT: note_off channel=9 note=38 velocity=80 time=0
EXTRACT: note_off channel=9 note=53 velocity=80 time=0
EXTRACT: note_on channel=9 note=36 velocity=95 time=0
EXTRACT: note_on channel=12 note=32 velocity=75 time=0
EXTRACT: note_off channel=2 note=58 velocity=80 time=0.14705875
EXTRACT: note_on channel=12 note=32 velocity=0 time=0.1397058125
EXTRACT: note_on channel=2 note=63 velocity=86 time=0.007352937499999999
EXTRACT: note_off channel=4 note=63 velocity=80 time=0
EXTRACT: note_on channel=4 note=63 velocity=95 time=0
EXTRACT: note_off channel=5 note=63 velocity=80 time=0
EXTRACT: note_off channel=5 note=60 velocity=80 time=0
EXTRACT: note_off channel=5 note=68 velocity=80 time=0
EXTRACT: note_off channel=9 note=36 velocity=80 time=0
EXTRACT: note_on channel=9 note=49 velocity=127 time=0
EXTRACT: note_on channel=9 note=36 velocity=95 time=0
EXTRACT: note_on channel=12 note=39 velocity=75 time=0
EXTRACT: note_off channel=2 note=63 velocity=80 time=0.14705875
EXTRACT: note_on channel=2 note=58 velocity=86 time=0.14705875
EXTRACT: note_off channel=4 note=63 velocity=80 time=0
EXTRACT: note_on channel=4 note=63 velocity=95 time=0
EXTRACT: note_on channel=5 note=63 velocity=95 time=0
EXTRACT: note_off channel=9 note=49 velocity=80 time=0
EXTRACT: note_off channel=9 note=36 velocity=80 time=0
EXTRACT: note_on channel=9 note=42 velocity=95 time=0
EXTRACT: note_on channel=9 note=53 velocity=63 time=0
EXTRACT: note_off channel=2 note=58 velocity=80 time=0.14705875
EXTRACT: note_on channel=12 note=39 velocity=0 time=0.049019583333333325
EXTRACT: note_on channel=2 note=58 velocity=86 time=0.09803916666666665
EXTRACT: note_off channel=4 note=70 velocity=80 time=0
EXTRACT: note_on channel=4 note=70 velocity=95 time=0
EXTRACT: note_on channel=5 note=58 velocity=95 time=0
EXTRACT: note_off channel=9 note=42 velocity=80 time=0
EXTRACT: note_off channel=9 note=53 velocity=80 time=0
EXTRACT: note_on channel=9 note=42 velocity=79 time=0
EXTRACT: note_on channel=9 note=38 velocity=95 time=0
EXTRACT: note_on channel=9 note=53 velocity=63 time=0
EXTRACT: note_on channel=12 note=39 velocity=75 time=0
EXTRACT: note_off channel=2 note=58 velocity=80 time=0.14705875
EXTRACT: note_on channel=12 note=39 velocity=0 time=0.1397058125
EXTRACT: note_on channel=2 note=63 velocity=86 time=0.007352937499999999
EXTRACT: note_off channel=4 note=63 velocity=80 time=0
EXTRACT: note_on channel=4 note=63 velocity=95 time=0
EXTRACT: note_on channel=5 note=65 velocity=95 time=0
EXTRACT: note_off channel=9 note=42 velocity=80 time=0
EXTRACT: note_off channel=9 note=38 velocity=80 time=0
EXTRACT: note_off channel=9 note=53 velocity=80 time=0
EXTRACT: note_on channel=9 note=42 velocity=79 time=0
EXTRACT: note_on channel=9 note=53 velocity=63 time=0
EXTRACT: note_on channel=12 note=39 velocity=75 time=0
EXTRACT: note_off channel=2 note=63 velocity=80 time=0.14705875
EXTRACT: note_on channel=12 note=39 velocity=0 time=0.1397058125
EXTRACT: note_on channel=2 note=58 velocity=86 time=0.007352937499999999
EXTRACT: note_off channel=4 note=63 velocity=80 time=0
EXTRACT: note_on channel=4 note=63 velocity=95 time=0
EXTRACT: note_off channel=9 note=42 velocity=80 time=0
EXTRACT: note_off channel=9 note=53 velocity=80 time=0
EXTRACT: note_on channel=9 note=42 velocity=79 time=0
EXTRACT: note_on channel=9 note=36 velocity=95 time=0
EXTRACT: note_on channel=9 note=53 velocity=63 time=0
EXTRACT: note_on channel=12 note=39 velocity=75 time=0
EXTRACT: note_off channel=2 note=58 velocity=80 time=0.14705875
EXTRACT: note_on channel=12 note=39 velocity=0 time=0.1397058125
EXTRACT: note_on channel=2 note=58 velocity=86 time=0.007352937499999999
EXTRACT: note_off channel=4 note=70 velocity=80 time=0
EXTRACT: note_on channel=4 note=70 velocity=95 time=0
EXTRACT: note_off channel=9 note=42 velocity=80 time=0
EXTRACT: note_off channel=9 note=36 velocity=80 time=0
EXTRACT: note_off channel=9 note=53 velocity=80 time=0
EXTRACT: note_on channel=9 note=42 velocity=79 time=0
EXTRACT: note_on channel=9 note=36 velocity=95 time=0
EXTRACT: note_on channel=9 note=53 velocity=63 time=0
EXTRACT: note_on channel=12 note=39 velocity=75 time=0
EXTRACT: note_off channel=2 note=58 velocity=80 time=0.14705875
EXTRACT: note_on channel=12 note=39 velocity=0 time=0.1397058125
EXTRACT: note_off channel=0 note=70 velocity=80 time=0.007352937499999999
EXTRACT: note_on channel=0 note=67 velocity=95 time=0
EXTRACT: note_on channel=2 note=63 velocity=86 time=0
EXTRACT: note_off channel=4 note=63 velocity=80 time=0
EXTRACT: note_on channel=4 note=63 velocity=95 time=0
EXTRACT: note_off channel=9 note=42 velocity=80 time=0
EXTRACT: note_off channel=9 note=36 velocity=80 time=0
EXTRACT: note_off channel=9 note=53 velocity=80 time=0
EXTRACT: note_on channel=9 note=42 velocity=79 time=0
EXTRACT: note_on channel=9 note=38 velocity=95 time=0
EXTRACT: note_on channel=9 note=53 velocity=63 time=0
EXTRACT: note_on channel=12 note=39 velocity=75 time=0
EXTRACT: note_off channel=2 note=63 velocity=80 time=0.14705875
EXTRACT: note_on channel=12 note=39 velocity=0 time=0.1397058125
EXTRACT: note_off channel=0 note=67 velocity=80 time=0.007352937499999999
EXTRACT: note_on channel=0 note=67 velocity=95 time=0
EXTRACT: note_on channel=2 note=58 velocity=86 time=0
EXTRACT: note_off channel=4 note=70 velocity=80 time=0
EXTRACT: note_on channel=4 note=70 velocity=95 time=0
EXTRACT: note_off channel=9 note=42 velocity=80 time=0
EXTRACT: note_off channel=9 note=38 velocity=80 time=0
EXTRACT: note_off channel=9 note=53 velocity=80 time=0
EXTRACT: note_on channel=9 note=42 velocity=79 time=0
EXTRACT: note_on channel=9 note=53 velocity=63 time=0
EXTRACT: note_on channel=12 note=39 velocity=75 time=0
EXTRACT: note_off channel=2 note=58 velocity=80 time=0.14705875
EXTRACT: note_on channel=12 note=39 velocity=0 time=0.1397058125
EXTRACT: note_on channel=2 note=62 velocity=86 time=0.007352937499999999
EXTRACT: note_off channel=4 note=63 velocity=80 time=0
EXTRACT: note_on channel=4 note=63 velocity=95 time=0
EXTRACT: note_off channel=9 note=42 velocity=80 time=0
EXTRACT: note_off channel=9 note=53 velocity=80 time=0
EXTRACT: note_on channel=9 note=42 velocity=95 time=0
EXTRACT: note_on channel=9 note=36 velocity=95 time=0
EXTRACT: note_on channel=12 note=34 velocity=75 time=0
EXTRACT: note_off channel=2 note=62 velocity=80 time=0.14705875
EXTRACT: note_on channel=2 note=58 velocity=86 time=0.14705875
EXTRACT: note_off channel=4 note=63 velocity=80 time=0
EXTRACT: note_on channel=4 note=63 velocity=95 time=0
EXTRACT: note_off channel=5 note=63 velocity=80 time=0
EXTRACT: note_on channel=5 note=62 velocity=95 time=0
EXTRACT: note_off channel=9 note=42 velocity=80 time=0
EXTRACT: note_off channel=9 note=36 velocity=80 time=0
EXTRACT: note_on channel=9 note=42 velocity=95 time=0
EXTRACT: note_on channel=9 note=53 velocity=63 time=0
EXTRACT: note_off channel=2 note=58 velocity=80 time=0.14705875
EXTRACT: note_on channel=12 note=34 velocity=0 time=0.049019583333333325
EXTRACT: note_on channel=2 note=58 velocity=86 time=0.09803916666666665
EXTRACT: note_off channel=4 note=70 velocity=80 time=0
EXTRACT: note_on channel=4 note=70 velocity=95 time=0
EXTRACT: note_off channel=5 note=58 velocity=80 time=0
EXTRACT: note_on channel=5 note=58 velocity=95 time=0
EXTRACT: note_off channel=9 note=42 velocity=80 time=0
EXTRACT: note_off channel=9 note=53 velocity=80 time=0
EXTRACT: note_on channel=9 note=42 velocity=95 time=0
EXTRACT: note_on channel=9 note=38 velocity=95 time=0
EXTRACT: note_on channel=9 note=53 velocity=63 time=0
EXTRACT: note_on channel=12 note=34 velocity=75 time=0
EXTRACT: note_off channel=2 note=58 velocity=80 time=0.14705875
EXTRACT: note_on channel=12 note=34 velocity=0 time=0.1397058125
EXTRACT: note_on channel=2 note=63 velocity=86 time=0.007352937499999999
EXTRACT: note_off channel=4 note=63 velocity=80 time=0
EXTRACT: note_on channel=4 note=63 velocity=95 time=0
EXTRACT: note_off channel=5 note=65 velocity=80 time=0
EXTRACT: note_on channel=5 note=65 velocity=95 time=0
EXTRACT: note_off channel=9 note=42 velocity=80 time=0
EXTRACT: note_off channel=9 note=38 velocity=80 time=0
EXTRACT: note_off channel=9 note=53 velocity=80 time=0
EXTRACT: note_on channel=9 note=42 velocity=95 time=0
EXTRACT: note_on channel=9 note=53 velocity=63 time=0
EXTRACT: note_on channel=12 note=34 velocity=75 time=0
EXTRACT: note_off channel=2 note=63 velocity=80 time=0.14705875
EXTRACT: note_on channel=12 note=34 velocity=0 time=0.1397058125
EXTRACT: note_off channel=0 note=67 velocity=80 time=0.007352937499999999
EXTRACT: note_on channel=2 note=58 velocity=86 time=0
EXTRACT: note_off channel=4 note=63 velocity=80 time=0
EXTRACT: note_on channel=4 note=63 velocity=95 time=0
EXTRACT: note_off channel=9 note=42 velocity=80 time=0
EXTRACT: note_off channel=9 note=53 velocity=80 time=0
EXTRACT: note_on channel=9 note=42 velocity=95 time=0
EXTRACT: note_on channel=9 note=36 velocity=95 time=0
EXTRACT: note_on channel=9 note=53 velocity=63 time=0
EXTRACT: note_on channel=12 note=34 velocity=75 time=0
EXTRACT: note_off channel=2 note=58 velocity=80 time=0.14705875
EXTRACT: note_on channel=12 note=34 velocity=0 time=0.1397058125
EXTRACT: note_on channel=0 note=63 velocity=95 time=0.007352937499999999
EXTRACT: note_on channel=2 note=58 velocity=86 time=0
EXTRACT: note_off channel=4 note=70 velocity=80 time=0
EXTRACT: note_on channel=4 note=70 velocity=95 time=0
EXTRACT: note_off channel=9 note=42 velocity=80 time=0
EXTRACT: note_off channel=9 note=36 velocity=80 time=0
EXTRACT: note_off channel=9 note=53 velocity=80 time=0
EXTRACT: note_on channel=9 note=42 velocity=95 time=0
EXTRACT: note_on channel=9 note=36 velocity=95 time=0
EXTRACT: note_on channel=9 note=53 velocity=63 time=0
EXTRACT: note_on channel=12 note=34 velocity=75 time=0
EXTRACT: note_off channel=2 note=58 velocity=80 time=0.14705875
EXTRACT: note_on channel=12 note=34 velocity=0 time=0.1397058125
EXTRACT: note_off channel=0 note=63 velocity=80 time=0.007352937499999999
EXTRACT: note_on channel=0 note=63 velocity=95 time=0
EXTRACT: note_on channel=2 note=62 velocity=86 time=0
EXTRACT: note_off channel=4 note=63 velocity=80 time=0
EXTRACT: note_on channel=4 note=63 velocity=95 time=0
EXTRACT: note_off channel=9 note=42 velocity=80 time=0
EXTRACT: note_off channel=9 note=36 velocity=80 time=0
EXTRACT: note_off channel=9 note=53 velocity=80 time=0
EXTRACT: note_on channel=9 note=42 velocity=95 time=0
EXTRACT: note_on channel=9 note=38 velocity=95 time=0
EXTRACT: note_on channel=9 note=53 velocity=63 time=0
EXTRACT: note_on channel=12 note=34 velocity=75 time=0
EXTRACT: note_off channel=2 note=62 velocity=80 time=0.14705875
EXTRACT: note_on channel=0 note=68 velocity=95 time=0.073529375
EXTRACT: note_on channel=12 note=34 velocity=0 time=0.06617643749999999
EXTRACT: note_off channel=0 note=68 velocity=80 time=0.004901958333333333
EXTRACT: note_off channel=0 note=63 velocity=80 time=0.0024509791666666664
EXTRACT: note_on channel=0 note=70 velocity=95 time=0
EXTRACT: note_on channel=2 note=58 velocity=86 time=0
EXTRACT: note_off channel=4 note=70 velocity=80 time=0
EXTRACT: note_on channel=4 note=70 velocity=95 time=0
EXTRACT: note_off channel=9 note=42 velocity=80 time=0
EXTRACT: note_off channel=9 note=38 velocity=80 time=0
EXTRACT: note_off channel=9 note=53 velocity=80 time=0
EXTRACT: note_on channel=9 note=42 velocity=95 time=0
EXTRACT: note_on channel=9 note=53 velocity=63 time=0
EXTRACT: note_on channel=12 note=34 velocity=75 time=0
EXTRACT: note_off channel=2 note=58 velocity=80 time=0.14705875
EXTRACT: note_on channel=12 note=34 velocity=0 time=0.1397058125
EXTRACT: note_on channel=2 note=63 velocity=86 time=0.007352937499999999
EXTRACT: note_off channel=4 note=63 velocity=80 time=0
EXTRACT: note_on channel=4 note=63 velocity=95 time=0
EXTRACT: note_off channel=5 note=62 velocity=80 time=0
EXTRACT: note_off channel=5 note=58 velocity=80 time=0
EXTRACT: note_off channel=5 note=65 velocity=80 time=0
EXTRACT: note_off channel=9 note=42 velocity=80 time=0
EXTRACT: note_off channel=9 note=53 velocity=80 time=0
EXTRACT: note_on channel=9 note=42 velocity=95 time=0
EXTRACT: note_on channel=9 note=36 velocity=95 time=0
EXTRACT: note_on channel=12 note=36 velocity=75 time=0
EXTRACT: note_off channel=2 note=63 velocity=80 time=0.14705875
EXTRACT: note_on channel=2 note=58 velocity=86 time=0.14705875
EXTRACT: note_off channel=4 note=63 velocity=80 time=0
EXTRACT: note_on channel=4 note=63 velocity=95 time=0
EXTRACT: note_on channel=5 note=63 velocity=95 time=0
EXTRACT: note_off channel=9 note=42 velocity=80 time=0
EXTRACT: note_off channel=9 note=36 velocity=80 time=0
EXTRACT: note_on channel=9 note=42 velocity=95 time=0
EXTRACT: note_on channel=9 note=53 velocity=63 time=0
EXTRACT: note_off channel=2 note=58 velocity=80 time=0.14705875
EXTRACT: note_on channel=12 note=36 velocity=0 time=0.049019583333333325
EXTRACT: note_on channel=2 note=58 velocity=86 time=0.09803916666666665
EXTRACT: note_off channel=4 note=70 velocity=80 time=0
EXTRACT: note_on channel=4 note=70 velocity=95 time=0
EXTRACT: note_off channel=5 note=63 velocity=80 time=0
EXTRACT: note_on channel=5 note=58 velocity=95 time=0
EXTRACT: note_off channel=9 note=42 velocity=80 time=0
EXTRACT: note_off channel=9 note=53 velocity=80 time=0
EXTRACT: note_on channel=9 note=42 velocity=95 time=0
EXTRACT: note_on channel=9 note=38 velocity=95 time=0
EXTRACT: note_on channel=9 note=53 velocity=63 time=0
EXTRACT: note_on channel=12 note=36 velocity=75 time=0
EXTRACT: note_off channel=2 note=58 velocity=80 time=0.14705875
EXTRACT: note_on channel=12 note=36 velocity=0 time=0.1397058125
EXTRACT: note_on channel=2 note=63 velocity=86 time=0.007352937499999999
EXTRACT: note_off channel=4 note=63 velocity=80 time=0
EXTRACT: note_on channel=4 note=63 velocity=95 time=0
EXTRACT: note_off channel=5 note=58 velocity=80 time=0
EXTRACT: note_on channel=5 note=67 velocity=95 time=0
EXTRACT: note_off channel=9 note=42 velocity=80 time=0
EXTRACT: note_off channel=9 note=38 velocity=80 time=0
EXTRACT: note_off channel=9 note=53 velocity=80 time=0
EXTRACT: note_on channel=9 note=42 velocity=95 time=0
EXTRACT: note_on channel=9 note=53 velocity=63 time=0
EXTRACT: note_on channel=12 note=36 velocity=75 time=0
EXTRACT: note_off channel=2 note=63 velocity=80 time=0.14705875
EXTRACT: note_on channel=12 note=36 velocity=0 time=0.1397058125
EXTRACT: note_on channel=2 note=58 velocity=86 time=0.007352937499999999
EXTRACT: note_off channel=4 note=63 velocity=80 time=0
EXTRACT: note_on channel=4 note=63 velocity=95 time=0
EXTRACT: note_off channel=9 note=42 velocity=80 time=0
EXTRACT: note_off channel=9 note=53 velocity=80 time=0
EXTRACT: note_on channel=9 note=42 velocity=95 time=0
EXTRACT: note_on channel=9 note=36 velocity=95 time=0
EXTRACT: note_on channel=9 note=53 velocity=63 time=0
EXTRACT: note_on channel=12 note=36 velocity=75 time=0
EXTRACT: note_off channel=2 note=58 velocity=80 time=0.14705875
EXTRACT: note_on channel=12 note=36 velocity=0 time=0.1397058125
EXTRACT: note_off channel=0 note=70 velocity=80 time=0.007352937499999999
EXTRACT: note_on channel=2 note=58 velocity=86 time=0
EXTRACT: note_off channel=4 note=70 velocity=80 time=0
EXTRACT: note_on channel=4 note=70 velocity=95 time=0
EXTRACT: note_off channel=9 note=42 velocity=80 time=0
EXTRACT: note_off channel=9 note=36 velocity=80 time=0
EXTRACT: note_off channel=9 note=53 velocity=80 time=0
EXTRACT: note_on channel=9 note=42 velocity=95 time=0
EXTRACT: note_on channel=9 note=36 velocity=95 time=0
EXTRACT: note_on channel=9 note=53 velocity=63 time=0
EXTRACT: note_on channel=12 note=36 velocity=75 time=0
EXTRACT: note_off channel=2 note=58 velocity=80 time=0.14705875
EXTRACT: note_on channel=12 note=36 velocity=0 time=0.1397058125
EXTRACT: note_on channel=0 note=67 velocity=95 time=0.007352937499999999
EXTRACT: note_on channel=2 note=63 velocity=86 time=0
EXTRACT: note_off channel=4 note=63 velocity=80 time=0
EXTRACT: note_on channel=4 note=63 velocity=95 time=0
EXTRACT: note_off channel=9 note=42 velocity=80 time=0
EXTRACT: note_off channel=9 note=36 velocity=80 time=0
EXTRACT: note_off channel=9 note=53 velocity=80 time=0
EXTRACT: note_on channel=9 note=42 velocity=95 time=0
EXTRACT: note_on channel=9 note=38 velocity=95 time=0
EXTRACT: note_on channel=9 note=53 velocity=63 time=0
EXTRACT: note_on channel=12 note=36 velocity=75 time=0
EXTRACT: note_off channel=2 note=63 velocity=80 time=0.14705875
EXTRACT: note_on channel=12 note=36 velocity=0 time=0.1397058125
EXTRACT: note_off channel=0 note=67 velocity=80 time=0.007352937499999999
EXTRACT: note_on channel=0 note=67 velocity=95 time=0
EXTRACT: note_on channel=2 note=58 velocity=86 time=0
EXTRACT: note_off channel=4 note=70 velocity=80 time=0
EXTRACT: note_on channel=4 note=70 velocity=95 time=0
EXTRACT: note_off channel=9 note=42 velocity=80 time=0
EXTRACT: note_off channel=9 note=38 velocity=80 time=0
EXTRACT: note_off channel=9 note=53 velocity=80 time=0
EXTRACT: note_on channel=9 note=42 velocity=95 time=0
EXTRACT: note_on channel=9 note=53 velocity=63 time=0
EXTRACT: note_on channel=12 note=36 velocity=75 time=0
EXTRACT: note_off channel=2 note=58 velocity=80 time=0.14705875
EXTRACT: note_on channel=12 note=36 velocity=0 time=0.1397058125
EXTRACT: note_on channel=2 note=63 velocity=86 time=0.007352937499999999
EXTRACT: note_off channel=4 note=63 velocity=80 time=0
EXTRACT: note_on channel=4 note=63 velocity=95 time=0
EXTRACT: note_off channel=9 note=42 velocity=80 time=0
EXTRACT: note_off channel=9 note=53 velocity=80 time=0
EXTRACT: note_on channel=9 note=42 velocity=95 time=0
EXTRACT: note_on channel=9 note=36 velocity=95 time=0
EXTRACT: note_on channel=12 note=32 velocity=75 time=0
EXTRACT: note_off channel=2 note=63 velocity=80 time=0.14705875
EXTRACT: note_off channel=0 note=67 velocity=80 time=0.14705875
EXTRACT: note_on channel=0 note=65 velocity=95 time=0
EXTRACT: note_on channel=2 note=60 velocity=86 time=0
EXTRACT: note_off channel=4 note=63 velocity=80 time=0
EXTRACT: note_on channel=4 note=63 velocity=95 time=0
EXTRACT: note_off channel=5 note=67 velocity=80 time=0
EXTRACT: note_on channel=5 note=63 velocity=95 time=0
EXTRACT: note_off channel=9 note=42 velocity=80 time=0
EXTRACT: note_off channel=9 note=36 velocity=80 time=0
EXTRACT: note_on channel=9 note=42 velocity=95 time=0
EXTRACT: note_on channel=9 note=53 velocity=63 time=0
EXTRACT: note_off channel=2 note=60 velocity=80 time=0.14705875
EXTRACT: note_on channel=12 note=32 velocity=0 time=0.049019583333333325
EXTRACT: note_on channel=2 note=60 velocity=86 time=0.09803916666666665
EXTRACT: note_off channel=4 note=70 velocity=80 time=0
EXTRACT: note_on channel=4 note=70 velocity=95 time=0
EXTRACT: note_on channel=5 note=60 velocity=95 time=0
EXTRACT: note_off channel=9 note=42 velocity=80 time=0
EXTRACT: note_off channel=9 note=53 velocity=80 time=0
EXTRACT: note_on channel=9 note=42 velocity=95 time=0
EXTRACT: note_on channel=9 note=38 velocity=95 time=0
EXTRACT: note_on channel=9 note=53 velocity=63 time=0
EXTRACT: note_on channel=12 note=32 velocity=75 time=0
EXTRACT: note_off channel=2 note=60 velocity=80 time=0.14705875
EXTRACT: note_on channel=12 note=32 velocity=0 time=0.1397058125
EXTRACT: note_off channel=0 note=65 velocity=80 time=0.007352937499999999
EXTRACT: note_on channel=0 note=63 velocity=95 time=0
EXTRACT: note_on channel=2 note=63 velocity=86 time=0
EXTRACT: note_off channel=4 note=63 velocity=80 time=0
EXTRACT: note_on channel=4 note=63 velocity=95 time=0
EXTRACT: note_on channel=5 note=68 velocity=95 time=0
EXTRACT: note_off channel=9 note=42 velocity=80 time=0
EXTRACT: note_off channel=9 note=38 velocity=80 time=0
EXTRACT: note_off channel=9 note=53 velocity=80 time=0
EXTRACT: note_on channel=9 note=42 velocity=95 time=0
EXTRACT: note_on channel=9 note=53 velocity=63 time=0
EXTRACT: note_on channel=12 note=32 velocity=75 time=0
EXTRACT: note_off channel=2 note=63 velocity=80 time=0.14705875
EXTRACT: note_on channel=12 note=32 velocity=0 time=0.1397058125
EXTRACT: note_on channel=2 note=60 velocity=86 time=0.007352937499999999
EXTRACT: note_off channel=4 note=63 velocity=80 time=0
EXTRACT: note_on channel=4 note=63 velocity=95 time=0
EXTRACT: note_off channel=9 note=42 velocity=80 time=0
EXTRACT: note_off channel=9 note=53 velocity=80 time=0
EXTRACT: note_on channel=9 note=42 velocity=95 time=0
EXTRACT: note_on channel=9 note=36 velocity=95 time=0
EXTRACT: note_on channel=9 note=53 velocity=63 time=0
EXTRACT: note_on channel=12 note=32 velocity=75 time=0
EXTRACT: note_off channel=2 note=60 velocity=80 time=0.14705875
EXTRACT: note_on channel=0 note=64 velocity=95 time=0.073529375
EXTRACT: note_on channel=12 note=32 velocity=0 time=0.06617643749999999
EXTRACT: note_off channel=0 note=64 velocity=80 time=0.004901958333333333
EXTRACT: note_off channel=0 note=63 velocity=80 time=0.0024509791666666664
EXTRACT: note_on channel=0 note=65 velocity=95 time=0
EXTRACT: note_on channel=2 note=60 velocity=86 time=0
EXTRACT: note_off channel=4 note=70 velocity=80 time=0
EXTRACT: note_on channel=4 note=70 velocity=95 time=0
EXTRACT: note_off channel=9 note=42 velocity=80 time=0
EXTRACT: note_off channel=9 note=36 velocity=80 time=0
EXTRACT: note_off channel=9 note=53 velocity=80 time=0
EXTRACT: note_on channel=9 note=42 velocity=95 time=0
EXTRACT: note_on channel=9 note=36 velocity=95 time=0
EXTRACT: note_on channel=9 note=53 velocity=63 time=0
EXTRACT: note_on channel=12 note=32 velocity=75 time=0
EXTRACT: note_off channel=2 note=60 velocity=80 time=0.14705875
EXTRACT: note_on channel=12 note=32 velocity=0 time=0.1397058125
EXTRACT: note_on channel=2 note=63 velocity=86 time=0.007352937499999999
EXTRACT: note_off channel=4 note=63 velocity=80 time=0
EXTRACT: note_on channel=4 note=63 velocity=95 time=0
EXTRACT: note_off channel=9 note=42 velocity=80 time=0
EXTRACT: note_off channel=9 note=36 velocity=80 time=0
EXTRACT: note_off channel=9 note=53 velocity=80 time=0
EXTRACT: note_on channel=9 note=42 velocity=95 time=0
EXTRACT: note_on channel=9 note=38 velocity=95 time=0
EXTRACT: note_on channel=9 note=53 velocity=63 time=0
EXTRACT: note_on channel=12 note=32 velocity=75 time=0
EXTRACT: note_off channel=2 note=63 velocity=80 time=0.14705875
EXTRACT: note_on channel=12 note=32 velocity=0 time=0.1397058125
EXTRACT: note_on channel=2 note=60 velocity=86 time=0.007352937499999999
EXTRACT: note_off channel=4 note=70 velocity=80 time=0
EXTRACT: note_on channel=4 note=70 velocity=95 time=0
EXTRACT: note_off channel=9 note=42 velocity=80 time=0
EXTRACT: note_off channel=9 note=38 velocity=80 time=0
EXTRACT: note_off channel=9 note=53 velocity=80 time=0
EXTRACT: note_on channel=9 note=42 velocity=95 time=0
EXTRACT: note_on channel=9 note=53 velocity=63 time=0
EXTRACT: note_on channel=12 note=32 velocity=75 time=0
EXTRACT: note_off channel=2 note=60 velocity=80 time=0.14705875
EXTRACT: note_on channel=12 note=32 velocity=0 time=0.1397058125
EXTRACT: note_on channel=2 note=63 velocity=95 time=0.007352937499999999
EXTRACT: note_off channel=4 note=63 velocity=80 time=0
EXTRACT: note_on channel=4 note=63 velocity=95 time=0
EXTRACT: note_off channel=9 note=42 velocity=80 time=0
EXTRACT: note_off channel=9 note=53 velocity=80 time=0
EXTRACT: note_on channel=9 note=57 velocity=95 time=0
EXTRACT: note_on channel=9 note=36 velocity=95 time=0
EXTRACT: note_on channel=12 note=32 velocity=75 time=0
EXTRACT: note_off channel=4 note=70 velocity=80 time=0.2941175
EXTRACT: note_off channel=4 note=63 velocity=80 time=0
EXTRACT: note_on channel=4 note=70 velocity=95 time=0
EXTRACT: note_off channel=9 note=57 velocity=80 time=0
EXTRACT: note_off channel=9 note=36 velocity=80 time=0
EXTRACT: note_on channel=9 note=42 velocity=95 time=0
EXTRACT: note_on channel=9 note=36 velocity=95 time=0
EXTRACT: note_off channel=9 note=42 velocity=80 time=0.2941175
EXTRACT: note_off channel=9 note=36 velocity=80 time=0
EXTRACT: note_on channel=9 note=42 velocity=79 time=0
EXTRACT: note_on channel=9 note=38 velocity=95 time=0
EXTRACT: note_off channel=9 note=42 velocity=80 time=0.2941175
EXTRACT: note_off channel=9 note=38 velocity=80 time=0
EXTRACT: note_on channel=9 note=42 velocity=79 time=0
EXTRACT: note_off channel=0 note=65 velocity=80 time=0.2941175
EXTRACT: note_off channel=9 note=42 velocity=80 time=0
EXTRACT: note_on channel=9 note=42 velocity=79 time=0
EXTRACT: note_on channel=9 note=36 velocity=95 time=0
EXTRACT: note_off channel=9 note=42 velocity=80 time=0.2941175
EXTRACT: note_off channel=9 note=36 velocity=80 time=0
EXTRACT: note_on channel=9 note=42 velocity=79 time=0
EXTRACT: note_on channel=9 note=36 velocity=95 time=0
EXTRACT: note_off channel=9 note=42 velocity=80 time=0.2941175
EXTRACT: note_off channel=9 note=36 velocity=80 time=0
EXTRACT: note_on channel=9 note=42 velocity=79 time=0
EXTRACT: note_on channel=9 note=38 velocity=95 time=0
EXTRACT: note_off channel=9 note=42 velocity=80 time=0.2941175
EXTRACT: note_off channel=9 note=38 velocity=80 time=0
EXTRACT: note_on channel=9 note=42 velocity=79 time=0
EXTRACT: note_on channel=12 note=32 velocity=0 time=0.14705875
EXTRACT: note_on channel=1 note=48 velocity=95 time=0.14705875
EXTRACT: note_off channel=2 note=63 velocity=80 time=0
EXTRACT: note_on channel=2 note=65 velocity=95 time=0
EXTRACT: note_on channel=3 note=48 velocity=95 time=0
EXTRACT: note_off channel=4 note=70 velocity=80 time=0
EXTRACT: note_off channel=5 note=63 velocity=80 time=0
EXTRACT: note_off channel=5 note=60 velocity=80 time=0
EXTRACT: note_off channel=5 note=68 velocity=80 time=0
EXTRACT: note_off channel=9 note=42 velocity=80 time=0
EXTRACT: note_on channel=9 note=42 velocity=95 time=0
EXTRACT: note_on channel=9 note=36 velocity=95 time=0
EXTRACT: note_on channel=12 note=48 velocity=75 time=0
EXTRACT: note_on channel=0 note=63 velocity=95 time=0.2941175
EXTRACT: note_off channel=2 note=65 velocity=80 time=0
EXTRACT: note_on channel=2 note=67 velocity=95 time=0
EXTRACT: note_off channel=9 note=42 velocity=80 time=0
EXTRACT: note_off channel=9 note=36 velocity=80 time=0
EXTRACT: note_on channel=9 note=42 velocity=95 time=0
EXTRACT: note_off channel=0 note=63 velocity=80 time=0.2941175
EXTRACT: note_on channel=0 note=63 velocity=95 time=0
EXTRACT: note_off channel=1 note=48 velocity=80 time=0
EXTRACT: note_on channel=1 note=63 velocity=95 time=0
EXTRACT: note_on channel=1 note=60 velocity=95 time=0
EXTRACT: note_on channel=1 note=48 velocity=95 time=0
EXTRACT: note_off channel=2 note=67 velocity=80 time=0
EXTRACT: note_on channel=2 note=65 velocity=95 time=0
EXTRACT: note_off channel=3 note=48 velocity=80 time=0
EXTRACT: note_on channel=3 note=63 velocity=95 time=0
EXTRACT: note_on channel=3 note=60 velocity=95 time=0
EXTRACT: note_on channel=3 note=48 velocity=95 time=0
EXTRACT: note_off channel=9 note=42 velocity=80 time=0
EXTRACT: note_on channel=9 note=42 velocity=95 time=0
EXTRACT: note_on channel=9 note=37 velocity=95 time=0
EXTRACT: note_on channel=12 note=48 velocity=0 time=0.1960783333333333
EXTRACT: note_off channel=0 note=63 velocity=80 time=0.09803916666666665
EXTRACT: note_on channel=0 note=63 velocity=95 time=0
EXTRACT: note_off channel=1 note=63 velocity=80 time=0
EXTRACT: note_off channel=1 note=60 velocity=80 time=0
EXTRACT: note_off channel=1 note=48 velocity=80 time=0
EXTRACT: note_on channel=1 note=63 velocity=95 time=0
EXTRACT: note_on channel=1 note=60 velocity=95 time=0
EXTRACT: note_on channel=1 note=48 velocity=95 time=0
EXTRACT: note_on channel=2 note=62 velocity=95 time=0
EXTRACT: note_off channel=3 note=63 velocity=80 time=0
EXTRACT: note_off channel=3 note=60 velocity=80 time=0
EXTRACT: note_off channel=3 note=48 velocity=80 time=0
EXTRACT: note_on channel=3 note=63 velocity=95 time=0
EXTRACT: note_on channel=3 note=60 velocity=95 time=0
EXTRACT: note_on channel=3 note=48 velocity=95 time=0
EXTRACT: note_off channel=9 note=42 velocity=80 time=0
EXTRACT: note_off channel=9 note=37 velocity=80 time=0
EXTRACT: note_on channel=9 note=42 velocity=95 time=0
EXTRACT: note_on channel=9 note=36 velocity=95 time=0
EXTRACT: note_on channel=12 note=48 velocity=75 time=0
EXTRACT: note_on channel=12 note=48 velocity=0 time=0.2867645625
EXTRACT: note_off channel=0 note=63 velocity=80 time=0.007352937499999999
EXTRACT: note_on channel=0 note=63 velocity=95 time=0
EXTRACT: note_off channel=1 note=63 velocity=80 time=0
EXTRACT: note_off channel=1 note=60 velocity=80 time=0
EXTRACT: note_off channel=1 note=48 velocity=80 time=0
EXTRACT: note_on channel=1 note=63 velocity=95 time=0
EXTRACT: note_on channel=1 note=58 velocity=95 time=0
EXTRACT: note_on channel=1 note=48 velocity=95 time=0
EXTRACT: note_off channel=2 note=62 velocity=80 time=0
EXTRACT: note_on channel=2 note=63 velocity=95 time=0
EXTRACT: note_off channel=3 note=63 velocity=80 time=0
EXTRACT: note_off channel=3 note=60 velocity=80 time=0
EXTRACT: note_off channel=3 note=48 velocity=80 time=0
EXTRACT: note_on channel=3 note=63 velocity=95 time=0
EXTRACT: note_on channel=3 note=58 velocity=95 time=0
EXTRACT: note_on channel=3 note=48 velocity=95 time=0
EXTRACT: note_off channel=9 note=42 velocity=80 time=0
EXTRACT: note_off channel=9 note=36 velocity=80 time=0
EXTRACT: note_on channel=9 note=42 velocity=95 time=0
EXTRACT: note_on channel=9 note=36 velocity=95 time=0
EXTRACT: note_on channel=12 note=48 velocity=75 time=0
EXTRACT: note_on channel=12 note=48 velocity=0 time=0.2867645625
EXTRACT: note_off channel=0 note=63 velocity=80 time=0.007352937499999999
EXTRACT: note_on channel=0 note=63 velocity=95 time=0
EXTRACT: note_off channel=1 note=63 velocity=80 time=0
EXTRACT: note_off channel=1 note=58 velocity=80 time=0
EXTRACT: note_off channel=1 note=48 velocity=80 time=0
EXTRACT: note_on channel=1 note=63 velocity=95 time=0
EXTRACT: note_on channel=1 note=58 velocity=95 time=0
EXTRACT: note_on channel=1 note=48 velocity=95 time=0
EXTRACT: note_off channel=2 note=65 velocity=80 time=0
EXTRACT: note_on channel=2 note=65 velocity=95 time=0
EXTRACT: note_off channel=3 note=63 velocity=80 time=0
EXTRACT: note_off channel=3 note=58 velocity=80 time=0
EXTRACT: note_off channel=3 note=48 velocity=80 time=0
EXTRACT: note_on channel=3 note=63 velocity=95 time=0
EXTRACT: note_on channel=3 note=58 velocity=95 time=0
EXTRACT: note_on channel=3 note=48 velocity=95 time=0
EXTRACT: note_off channel=9 note=42 velocity=80 time=0
EXTRACT: note_off channel=9 note=36 velocity=80 time=0
EXTRACT: note_on channel=9 note=42 velocity=95 time=0
EXTRACT: note_on channel=9 note=36 velocity=95 time=0
EXTRACT: note_on channel=12 note=48 velocity=75 time=0
EXTRACT: note_on channel=1 note=53 velocity=95 time=0.14705875
EXTRACT: pitchwheel channel=1 pitch=2048 time=0
EXTRACT: note_on channel=3 note=53 velocity=95 time=0
EXTRACT: pitchwheel channel=3 pitch=2048 time=0
EXTRACT: pitchwheel channel=1 pitch=1408 time=0.049019583333333325
EXTRACT: pitchwheel channel=3 pitch=1408 time=0
EXTRACT: pitchwheel channel=1 pitch=640 time=0.049019583333333325
EXTRACT: pitchwheel channel=3 pitch=640 time=0
EXTRACT: note_on channel=12 note=48 velocity=0 time=0.04166664583333333
EXTRACT: note_off channel=1 note=63 velocity=80 time=0.007352937499999999
EXTRACT: note_off channel=1 note=58 velocity=80 time=0
EXTRACT: note_off channel=1 note=48 velocity=80 time=0
EXTRACT: pitchwheel channel=1 pitch=0 time=0
EXTRACT: note_off channel=3 note=63 velocity=80 time=0
EXTRACT: note_off channel=3 note=58 velocity=80 time=0
EXTRACT: note_off channel=3 note=48 velocity=80 time=0
EXTRACT: pitchwheel channel=3 pitch=0 time=0
EXTRACT: note_off channel=9 note=42 velocity=80 time=0
EXTRACT: note_off channel=9 note=36 velocity=80 time=0
EXTRACT: note_on channel=9 note=42 velocity=95 time=0
EXTRACT: note_on channel=9 note=37 velocity=95 time=0
EXTRACT: note_off channel=0 note=63 velocity=80 time=0.2941175
EXTRACT: note_on channel=0 note=65 velocity=95 time=0
EXTRACT: note_on channel=1 note=46 velocity=95 time=0
EXTRACT: note_off channel=2 note=65 velocity=80 time=0
EXTRACT: note_on channel=2 note=65 velocity=95 time=0
EXTRACT: note_on channel=3 note=46 velocity=95 time=0
EXTRACT: note_off channel=9 note=42 velocity=80 time=0
EXTRACT: note_off channel=9 note=37 velocity=80 time=0
EXTRACT: note_on channel=9 note=42 velocity=95 time=0
EXTRACT: note_on channel=12 note=46 velocity=75 time=0
EXTRACT: note_off channel=0 note=65 velocity=80 time=0.2941175
EXTRACT: note_on channel=0 note=62 velocity=95 time=0
EXTRACT: note_off channel=1 note=53 velocity=80 time=0
EXTRACT: note_on channel=1 note=53 velocity=95 time=0
EXTRACT: note_off channel=3 note=53 velocity=80 time=0
EXTRACT: note_on channel=3 note=53 velocity=95 time=0
EXTRACT: note_off channel=9 note=42 velocity=80 time=0
EXTRACT: note_on channel=9 note=42 velocity=95 time=0
EXTRACT: note_off channel=0 note=62 velocity=80 time=0.2941175
EXTRACT: note_on channel=0 note=62 velocity=95 time=0
EXTRACT: note_on channel=1 note=62 velocity=95 time=0
EXTRACT: note_on channel=1 note=56 velocity=95 time=0
EXTRACT: note_off channel=2 note=65 velocity=80 time=0
EXTRACT: note_on channel=2 note=65 velocity=95 time=0
EXTRACT: note_on channel=3 note=62 velocity=95 time=0
EXTRACT: note_on channel=3 note=56 velocity=95 time=0
EXTRACT: note_off channel=9 note=42 velocity=80 time=0
EXTRACT: note_on channel=9 note=42 velocity=95 time=0
EXTRACT: note_on channel=9 note=36 velocity=95 time=0
EXTRACT: note_off channel=0 note=62 velocity=80 time=0.2941175
EXTRACT: note_on channel=0 note=60 velocity=95 time=0
EXTRACT: note_off channel=1 note=46 velocity=80 time=0
EXTRACT: note_off channel=1 note=53 velocity=80 time=0
EXTRACT: note_off channel=1 note=62 velocity=80 time=0
EXTRACT: note_off channel=1 note=56 velocity=80 time=0
EXTRACT: note_off channel=2 note=63 velocity=80 time=0
EXTRACT: note_on channel=2 note=63 velocity=95 time=0
EXTRACT: note_off channel=3 note=46 velocity=80 time=0
EXTRACT: note_off channel=3 note=53 velocity=80 time=0
EXTRACT: note_off channel=3 note=62 velocity=80 time=0
EXTRACT: note_off channel=3 note=56 velocity=80 time=0
EXTRACT: note_off channel=9 note=42 velocity=80 time=0
EXTRACT: note_off channel=9 note=36 velocity=80 time=0
EXTRACT: note_on channel=9 note=42 velocity=95 time=0
EXTRACT: note_on channel=9 note=37 velocity=95 time=0
EXTRACT: note_on channel=12 note=46 velocity=0 time=0.1960783333333333
EXTRACT: note_off channel=0 note=60 velocity=80 time=0.09803916666666665
EXTRACT: note_on channel=0 note=60 velocity=95 time=0
EXTRACT: note_on channel=1 note=62 velocity=95 time=0
EXTRACT: note_on channel=1 note=56 velocity=95 time=0
EXTRACT: note_on channel=1 note=46 velocity=95 time=0
EXTRACT: note_off channel=2 note=63 velocity=80 time=0
EXTRACT: note_on channel=2 note=62 velocity=95 time=0
EXTRACT: note_on channel=3 note=62 velocity=95 time=0
EXTRACT: note_on channel=3 note=56 velocity=95 time=0
EXTRACT: note_on channel=3 note=46 velocity=95 time=0
EXTRACT: note_off channel=9 note=42 velocity=80 time=0
EXTRACT: note_off channel=9 note=37 velocity=80 time=0
EXTRACT: note_on channel=9 note=42 velocity=95 time=0
EXTRACT: note_on channel=9 note=36 velocity=95 time=0
EXTRACT: note_on channel=12 note=46 velocity=75 time=0
EXTRACT: note_off channel=0 note=60 velocity=80 time=0.2941175
EXTRACT: note_on channel=0 note=58 velocity=95 time=0
EXTRACT: note_off channel=9 note=42 velocity=80 time=0
EXTRACT: note_off channel=9 note=36 velocity=80 time=0
EXTRACT: note_on channel=9 note=42 velocity=95 time=0
EXTRACT: note_off channel=0 note=58 velocity=80 time=0.2941175
EXTRACT: note_on channel=0 note=58 velocity=95 time=0
EXTRACT: note_off channel=1 note=62 velocity=80 time=0
EXTRACT: note_off channel=1 note=56 velocity=80 time=0
EXTRACT: note_on channel=1 note=56 velocity=95 time=0
EXTRACT: note_off channel=2 note=65 velocity=80 time=0
EXTRACT: note_on channel=2 note=65 velocity=95 time=0
EXTRACT: note_off channel=3 note=62 velocity=80 time=0
EXTRACT: note_off channel=3 note=56 velocity=80 time=0
EXTRACT: note_on channel=3 note=56 velocity=95 time=0
EXTRACT: note_off channel=9 note=42 velocity=80 time=0
EXTRACT: note_on channel=9 note=42 velocity=95 time=0
EXTRACT: note_on channel=9 note=36 velocity=95 time=0
EXTRACT: note_on channel=1 note=53 velocity=95 time=0.2941175
EXTRACT: note_off channel=2 note=62 velocity=80 time=0
EXTRACT: note_on channel=2 note=62 velocity=95 time=0
EXTRACT: note_on channel=3 note=53 velocity=95 time=0
EXTRACT: note_off channel=9 note=42 velocity=80 time=0
EXTRACT: note_off channel=9 note=36 velocity=80 time=0
EXTRACT: note_on channel=9 note=42 velocity=95 time=0
EXTRACT: note_on channel=9 note=37 velocity=95 time=0
EXTRACT: note_off channel=0 note=58 velocity=80 time=0.2941175
EXTRACT: note_on channel=0 note=56 velocity=95 time=0
EXTRACT: note_on channel=1 note=62 velocity=95 time=0
EXTRACT: note_off channel=2 note=65 velocity=80 time=0
EXTRACT: note_on channel=2 note=65 velocity=95 time=0
EXTRACT: note_on channel=3 note=62 velocity=95 time=0
EXTRACT: note_off channel=9 note=42 velocity=80 time=0
EXTRACT: note_off channel=9 note=37 velocity=80 time=0
EXTRACT: note_on channel=9 note=42 velocity=95 time=0
EXTRACT: note_off channel=1 note=46 velocity=80 time=0.14705875
EXTRACT: note_off channel=1 note=53 velocity=80 time=0
EXTRACT: note_on channel=1 note=55 velocity=95 time=0
EXTRACT: pitchwheel channel=1 pitch=-2048 time=0
EXTRACT: note_on channel=1 note=48 velocity=95 time=0
EXTRACT: pitchwheel channel=1 pitch=-2048 time=0
EXTRACT: note_off channel=3 note=46 velocity=80 time=0
EXTRACT: note_off channel=3 note=53 velocity=80 time=0
EXTRACT: note_on channel=3 note=55 velocity=95 time=0
EXTRACT: pitchwheel channel=3 pitch=-2048 time=0
EXTRACT: note_on channel=3 note=48 velocity=95 time=0
EXTRACT: pitchwheel channel=3 pitch=-2048 time=0
EXTRACT: note_on channel=12 note=46 velocity=0 time=0
EXTRACT: pitchwheel channel=1 pitch=-1408 time=0.049019583333333325
EXTRACT: pitchwheel channel=1 pitch=-1408 time=0
EXTRACT: pitchwheel channel=3 pitch=-1408 time=0
EXTRACT: pitchwheel channel=3 pitch=-1408 time=0
EXTRACT: pitchwheel channel=1 pitch=-640 time=0.049019583333333325
EXTRACT: pitchwheel channel=1 pitch=-640 time=0
EXTRACT: pitchwheel channel=3 pitch=-640 time=0
EXTRACT: pitchwheel channel=3 pitch=-640 time=0
EXTRACT: note_off channel=0 note=56 velocity=80 time=0.049019583333333325
EXTRACT: pitchwheel channel=1 pitch=0 time=0
EXTRACT: pitchwheel channel=1 pitch=0 time=0
EXTRACT: note_off channel=2 note=65 velocity=80 time=0
EXTRACT: note_on channel=2 note=65 velocity=95 time=0
EXTRACT: pitchwheel channel=3 pitch=0 time=0
EXTRACT: pitchwheel channel=3 pitch=0 time=0
EXTRACT: note_off channel=9 note=42 velocity=80 time=0
EXTRACT: note_on channel=9 note=42 velocity=95 time=0
EXTRACT: note_on channel=9 note=36 velocity=95 time=0
EXTRACT: note_on channel=12 note=48 velocity=75 time=0
EXTRACT: note_on channel=1 note=67 velocity=95 time=0.2941175
EXTRACT: note_off channel=2 note=65 velocity=80 time=0
EXTRACT: note_on channel=2 note=67 velocity=95 time=0
EXTRACT: note_on channel=3 note=67 velocity=95 time=0
EXTRACT: note_off channel=9 note=42 velocity=80 time=0
EXTRACT: note_off channel=9 note=36 velocity=80 time=0
EXTRACT: note_on channel=9 note=42 velocity=95 time=0
EXTRACT: note_on channel=0 note=63 velocity=95 time=0.2941175
EXTRACT: note_off channel=1 note=56 velocity=80 time=0
EXTRACT: note_off channel=1 note=62 velocity=80 time=0
EXTRACT: note_off channel=1 note=48 velocity=80 time=0
EXTRACT: note_on channel=1 note=63 velocity=95 time=0
EXTRACT: note_on channel=1 note=60 velocity=95 time=0
EXTRACT: note_on channel=1 note=48 velocity=95 time=0
EXTRACT: note_off channel=2 note=67 velocity=80 time=0
EXTRACT: note_on channel=2 note=65 velocity=95 time=0
EXTRACT: note_off channel=3 note=56 velocity=80 time=0
EXTRACT: note_off channel=3 note=62 velocity=80 time=0
EXTRACT: note_off channel=3 note=48 velocity=80 time=0
EXTRACT: note_on channel=3 note=63 velocity=95 time=0
EXTRACT: note_on channel=3 note=60 velocity=95 time=0
EXTRACT: note_on channel=3 note=48 velocity=95 time=0
EXTRACT: note_off channel=9 note=42 velocity=80 time=0
EXTRACT: note_on channel=9 note=42 velocity=95 time=0
EXTRACT: note_on channel=9 note=37 velocity=95 time=0
EXTRACT: note_on channel=12 note=48 velocity=0 time=0.1960783333333333
EXTRACT: note_off channel=0 note=63 velocity=80 time=0.09803916666666665
EXTRACT: note_on channel=0 note=62 velocity=95 time=0
EXTRACT: note_off channel=1 note=63 velocity=80 time=0
EXTRACT: note_off channel=1 note=60 velocity=80 time=0
EXTRACT: note_off channel=1 note=48 velocity=80 time=0
EXTRACT: note_on channel=1 note=63 velocity=95 time=0
EXTRACT: note_on channel=1 note=60 velocity=95 time=0
EXTRACT: note_on channel=1 note=48 velocity=95 time=0
EXTRACT: note_off channel=2 note=62 velocity=80 time=0
EXTRACT: note_on channel=2 note=62 velocity=95 time=0
EXTRACT: note_off channel=3 note=63 velocity=80 time=0
EXTRACT: note_off channel=3 note=60 velocity=80 time=0
EXTRACT: note_off channel=3 note=48 velocity=80 time=0
EXTRACT: note_on channel=3 note=63 velocity=95 time=0
EXTRACT: note_on channel=3 note=60 velocity=95 time=0
EXTRACT: note_on channel=3 note=48 velocity=95 time=0
EXTRACT: note_off channel=9 note=42 velocity=80 time=0
EXTRACT: note_off channel=9 note=37 velocity=80 time=0
EXTRACT: note_on channel=9 note=42 velocity=95 time=0
EXTRACT: note_on channel=9 note=36 velocity=95 time=0
EXTRACT: note_on channel=12 note=48 velocity=75 time=0
EXTRACT: note_on channel=12 note=48 velocity=0 time=0.2867645625
EXTRACT: note_off channel=0 note=62 velocity=80 time=0.007352937499999999
EXTRACT: note_on channel=0 note=63 velocity=95 time=0
EXTRACT: note_off channel=1 note=63 velocity=80 time=0
EXTRACT: note_off channel=1 note=60 velocity=80 time=0
EXTRACT: note_off channel=1 note=48 velocity=80 time=0
EXTRACT: note_on channel=1 note=63 velocity=95 time=0
EXTRACT: note_on channel=1 note=60 velocity=95 time=0
EXTRACT: note_on channel=1 note=48 velocity=95 time=0
EXTRACT: note_off channel=2 note=62 velocity=80 time=0
EXTRACT: note_on channel=2 note=63 velocity=95 time=0
EXTRACT: note_off channel=3 note=63 velocity=80 time=0
EXTRACT: note_off channel=3 note=60 velocity=80 time=0
EXTRACT: note_off channel=3 note=48 velocity=80 time=0
EXTRACT: note_on channel=3 note=63 velocity=95 time=0
EXTRACT: note_on channel=3 note=60 velocity=95 time=0
EXTRACT: note_on channel=3 note=48 velocity=95 time=0
EXTRACT: note_off channel=9 note=42 velocity=80 time=0
EXTRACT: note_off channel=9 note=36 velocity=80 time=0
EXTRACT: note_on channel=9 note=42 velocity=95 time=0
EXTRACT: note_on channel=9 note=36 velocity=95 time=0
EXTRACT: note_on channel=12 note=48 velocity=75 time=0
EXTRACT: note_on channel=12 note=48 velocity=0 time=0.2867645625
EXTRACT: note_off channel=0 note=63 velocity=80 time=0.007352937499999999
EXTRACT: note_on channel=0 note=62 velocity=95 time=0
EXTRACT: note_off channel=1 note=63 velocity=80 time=0
EXTRACT: note_off channel=1 note=60 velocity=80 time=0
EXTRACT: note_off channel=1 note=48 velocity=80 time=0
EXTRACT: note_on channel=1 note=63 velocity=95 time=0
EXTRACT: note_on channel=1 note=60 velocity=95 time=0
EXTRACT: note_on channel=1 note=48 velocity=95 time=0
EXTRACT: note_off channel=2 note=65 velocity=80 time=0
EXTRACT: note_on channel=2 note=65 velocity=95 time=0
EXTRACT: note_off channel=3 note=63 velocity=80 time=0
EXTRACT: note_off channel=3 note=60 velocity=80 time=0
EXTRACT: note_off channel=3 note=48 velocity=80 time=0
EXTRACT: note_on channel=3 note=63 velocity=95 time=0
EXTRACT: note_on channel=3 note=60 velocity=95 time=0
EXTRACT: note_on channel=3 note=48 velocity=95 time=0
EXTRACT: note_off channel=9 note=42 velocity=80 time=0
EXTRACT: note_off channel=9 note=36 velocity=80 time=0
EXTRACT: note_on channel=9 note=42 velocity=95 time=0
EXTRACT: note_on channel=9 note=36 velocity=95 time=0
EXTRACT: note_on channel=12 note=48 velocity=75 time=0
EXTRACT: note_off channel=1 note=55 velocity=80 time=0.14705875
EXTRACT: note_on channel=1 note=53 velocity=95 time=0
EXTRACT: pitchwheel channel=1 pitch=2048 time=0
EXTRACT: note_off channel=3 note=55 velocity=80 time=0
EXTRACT: note_on channel=3 note=53 velocity=95 time=0
EXTRACT: pitchwheel channel=3 pitch=2048 time=0
EXTRACT: pitchwheel channel=1 pitch=1408 time=0.049019583333333325
EXTRACT: pitchwheel channel=3 pitch=1408 time=0
EXTRACT: pitchwheel channel=1 pitch=640 time=0.049019583333333325
EXTRACT: pitchwheel channel=3 pitch=640 time=0
EXTRACT: note_on channel=12 note=48 velocity=0 time=0.04166664583333333
EXTRACT: note_off channel=0 note=62 velocity=80 time=0.007352937499999999
EXTRACT: note_on channel=0 note=63 velocity=95 time=0
EXTRACT: note_off channel=1 note=63 velocity=80 time=0
EXTRACT: note_off channel=1 note=60 velocity=80 time=0
EXTRACT: note_off channel=1 note=48 velocity=80 time=0
EXTRACT: pitchwheel channel=1 pitch=0 time=0
EXTRACT: note_off channel=2 note=63 velocity=80 time=0
EXTRACT: note_on channel=2 note=63 velocity=95 time=0
EXTRACT: note_off channel=3 note=63 velocity=80 time=0
EXTRACT: note_off channel=3 note=60 velocity=80 time=0
EXTRACT: note_off channel=3 note=48 velocity=80 time=0
EXTRACT: pitchwheel channel=3 pitch=0 time=0
EXTRACT: note_off channel=9 note=42 velocity=80 time=0
EXTRACT: note_off channel=9 note=36 velocity=80 time=0
EXTRACT: note_on channel=9 note=42 velocity=95 time=0
EXTRACT: note_on channel=9 note=37 velocity=95 time=0
EXTRACT: note_off channel=0 note=63 velocity=80 time=0.2941175
EXTRACT: note_on channel=0 note=65 velocity=95 time=0
EXTRACT: note_on channel=1 note=46 velocity=95 time=0
EXTRACT: note_off channel=2 note=65 velocity=80 time=0
EXTRACT: note_on channel=2 note=65 velocity=95 time=0
EXTRACT: note_on channel=3 note=46 velocity=95 time=0
EXTRACT: note_off channel=9 note=42 velocity=80 time=0
EXTRACT: note_off channel=9 note=37 velocity=80 time=0
EXTRACT: note_on channel=9 note=42 velocity=95 time=0
EXTRACT: note_on channel=12 note=46 velocity=75 time=0
EXTRACT: note_off channel=0 note=65 velocity=80 time=0.14705875
EXTRACT: note_on channel=0 note=65 velocity=95 time=0
EXTRACT: note_off channel=1 note=53 velocity=80 time=0.14705875
EXTRACT: note_on channel=1 note=53 velocity=95 time=0
EXTRACT: note_off channel=2 note=63 velocity=80 time=0
EXTRACT: note_on channel=2 note=63 velocity=95 time=0
EXTRACT: note_off channel=3 note=53 velocity=80 time=0
EXTRACT: note_on channel=3 note=53 velocity=95 time=0
EXTRACT: note_off channel=9 note=42 velocity=80 time=0
EXTRACT: note_on channel=9 note=42 velocity=95 time=0
EXTRACT: note_on channel=0 note=60 velocity=95 time=0.073529375
EXTRACT: note_off channel=0 note=60 velocity=80 time=0.07107839583333332
EXTRACT: note_off channel=0 note=65 velocity=80 time=0.0024509791666666664
EXTRACT: note_on channel=0 note=62 velocity=95 time=0
EXTRACT: note_off channel=1 note=67 velocity=80 time=0.14705875
EXTRACT: note_on channel=1 note=62 velocity=95 time=0
EXTRACT: note_on channel=1 note=56 velocity=95 time=0
EXTRACT: note_off channel=2 note=65 velocity=80 time=0
EXTRACT: note_on channel=2 note=65 velocity=95 time=0
EXTRACT: note_off channel=3 note=67 velocity=80 time=0
EXTRACT: note_on channel=3 note=62 velocity=95 time=0
EXTRACT: note_on channel=3 note=56 velocity=95 time=0
EXTRACT: note_off channel=9 note=42 velocity=80 time=0
EXTRACT: note_on channel=9 note=42 velocity=95 time=0
EXTRACT: note_on channel=9 note=36 velocity=95 time=0
EXTRACT: note_off channel=1 note=46 velocity=80 time=0.2941175
EXTRACT: note_off channel=1 note=53 velocity=80 time=0
EXTRACT: note_off channel=1 note=62 velocity=80 time=0
EXTRACT: note_off channel=1 note=56 velocity=80 time=0
EXTRACT: note_off channel=2 note=63 velocity=80 time=0
EXTRACT: note_on channel=2 note=63 velocity=95 time=0
EXTRACT: note_off channel=3 note=46 velocity=80 time=0
EXTRACT: note_off channel=3 note=53 velocity=80 time=0
EXTRACT: note_off channel=3 note=62 velocity=80 time=0
EXTRACT: note_off channel=3 note=56 velocity=80 time=0
EXTRACT: note_off channel=9 note=42 velocity=80 time=0
EXTRACT: note_off channel=9 note=36 velocity=80 time=0
EXTRACT: note_on channel=9 note=42 velocity=95 time=0
EXTRACT: note_on channel=9 note=37 velocity=95 time=0
EXTRACT: note_on channel=12 note=46 velocity=0 time=0.1960783333333333
EXTRACT: note_on channel=1 note=62 velocity=95 time=0.09803916666666665
EXTRACT: note_on channel=1 note=56 velocity=95 time=0
EXTRACT: note_on channel=1 note=46 velocity=95 time=0
EXTRACT: note_off channel=2 note=63 velocity=80 time=0
EXTRACT: note_on channel=2 note=62 velocity=95 time=0
EXTRACT: note_on channel=3 note=62 velocity=95 time=0
EXTRACT: note_on channel=3 note=56 velocity=95 time=0
EXTRACT: note_on channel=3 note=46 velocity=95 time=0
EXTRACT: note_off channel=9 note=42 velocity=80 time=0
EXTRACT: note_off channel=9 note=37 velocity=80 time=0
EXTRACT: note_on channel=9 note=42 velocity=95 time=0
EXTRACT: note_on channel=9 note=36 velocity=95 time=0
EXTRACT: note_on channel=12 note=46 velocity=75 time=0
EXTRACT: note_off channel=0 note=62 velocity=80 time=0.2941175
EXTRACT: note_off channel=2 note=62 velocity=80 time=0
EXTRACT: note_on channel=2 note=62 velocity=95 time=0
EXTRACT: note_off channel=9 note=42 velocity=80 time=0
EXTRACT: note_off channel=9 note=36 velocity=80 time=0
EXTRACT: note_on channel=9 note=42 velocity=95 time=0
EXTRACT: note_off channel=1 note=56 velocity=80 time=0.2941175
EXTRACT: note_on channel=1 note=56 velocity=95 time=0
EXTRACT: note_off channel=2 note=65 velocity=80 time=0
EXTRACT: note_on channel=2 note=65 velocity=95 time=0
EXTRACT: note_off channel=3 note=56 velocity=80 time=0
EXTRACT: note_on channel=3 note=56 velocity=95 time=0
EXTRACT: note_off channel=9 note=42 velocity=80 time=0
EXTRACT: note_on channel=9 note=42 velocity=95 time=0
EXTRACT: note_on channel=9 note=36 velocity=95 time=0
EXTRACT: note_on channel=1 note=53 velocity=95 time=0.2941175
EXTRACT: note_off channel=2 note=62 velocity=80 time=0
EXTRACT: note_on channel=2 note=62 velocity=95 time=0
EXTRACT: note_on channel=3 note=53 velocity=95 time=0
EXTRACT: note_off channel=9 note=42 velocity=80 time=0
EXTRACT: note_off channel=9 note=36 velocity=80 time=0
EXTRACT: note_on channel=9 note=42 velocity=95 time=0
EXTRACT: note_on channel=9 note=37 velocity=95 time=0
EXTRACT: note_off channel=1 note=62 velocity=80 time=0.2941175
EXTRACT: note_on channel=1 note=62 velocity=95 time=0
EXTRACT: note_off channel=2 note=65 velocity=80 time=0
EXTRACT: note_on channel=2 note=65 velocity=95 time=0
EXTRACT: note_off channel=3 note=62 velocity=80 time=0
EXTRACT: note_on channel=3 note=62 velocity=95 time=0
EXTRACT: note_off channel=9 note=42 velocity=80 time=0
EXTRACT: note_off channel=9 note=37 velocity=80 time=0
EXTRACT: note_on channel=9 note=42 velocity=95 time=0
EXTRACT: note_on channel=12 note=46 velocity=0 time=0.14705875
EXTRACT: note_off channel=1 note=46 velocity=80 time=0.14705875
EXTRACT: note_on channel=1 note=48 velocity=95 time=0
EXTRACT: note_off channel=2 note=65 velocity=80 time=0
EXTRACT: note_on channel=2 note=65 velocity=95 time=0
EXTRACT: note_off channel=3 note=46 velocity=80 time=0
EXTRACT: note_on channel=3 note=48 velocity=95 time=0
EXTRACT: note_off channel=9 note=42 velocity=80 time=0
EXTRACT: note_on channel=9 note=42 velocity=95 time=0
EXTRACT: note_on channel=9 note=36 velocity=95 time=0
EXTRACT: note_on channel=12 note=36 velocity=75 time=0
EXTRACT: note_on channel=0 note=55 velocity=95 time=0.2941175
EXTRACT: note_off channel=2 note=65 velocity=80 time=0
EXTRACT: note_on channel=2 note=67 velocity=95 time=0
EXTRACT: note_off channel=9 note=42 velocity=80 time=0
EXTRACT: note_off channel=9 note=36 velocity=80 time=0
EXTRACT: note_on channel=9 note=42 velocity=95 time=0
EXTRACT: note_on channel=12 note=36 velocity=0 time=0.1960783333333333
EXTRACT: note_off channel=0 note=55 velocity=80 time=0.09803916666666665
EXTRACT: note_on channel=0 note=63 velocity=95 time=0
EXTRACT: note_off channel=1 note=56 velocity=80 time=0
EXTRACT: note_off channel=1 note=62 velocity=80 time=0
EXTRACT: note_off channel=1 note=48 velocity=80 time=0
EXTRACT: note_on channel=1 note=63 velocity=95 time=0
EXTRACT: note_on channel=1 note=60 velocity=95 time=0
EXTRACT: note_on channel=1 note=48 velocity=95 time=0
EXTRACT: note_off channel=2 note=67 velocity=80 time=0
EXTRACT: note_on channel=2 note=65 velocity=95 time=0
EXTRACT: note_off channel=3 note=56 velocity=80 time=0
EXTRACT: note_off channel=3 note=62 velocity=80 time=0
EXTRACT: note_off channel=3 note=48 velocity=80 time=0
EXTRACT: note_on channel=3 note=63 velocity=95 time=0
EXTRACT: note_on channel=3 note=60 velocity=95 time=0
EXTRACT: note_on channel=3 note=48 velocity=95 time=0
EXTRACT: note_off channel=9 note=42 velocity=80 time=0
EXTRACT: note_on channel=9 note=42 velocity=95 time=0
EXTRACT: note_on channel=9 note=37 velocity=95 time=0
EXTRACT: note_on channel=12 note=41 velocity=75 time=0
EXTRACT: note_on channel=12 note=41 velocity=0 time=0.2867645625
EXTRACT: note_off channel=0 note=63 velocity=80 time=0.007352937499999999
EXTRACT: note_on channel=0 note=63 velocity=95 time=0
EXTRACT: note_off channel=1 note=63 velocity=80 time=0
EXTRACT: note_off channel=1 note=60 velocity=80 time=0
EXTRACT: note_off channel=1 note=48 velocity=80 time=0
EXTRACT: note_on channel=1 note=63 velocity=95 time=0
EXTRACT: note_on channel=1 note=60 velocity=95 time=0
EXTRACT: note_on channel=1 note=48 velocity=95 time=0
EXTRACT: note_off channel=2 note=62 velocity=80 time=0
EXTRACT: note_on channel=2 note=62 velocity=95 time=0
EXTRACT: note_off channel=3 note=63 velocity=80 time=0
EXTRACT: note_off channel=3 note=60 velocity=80 time=0
EXTRACT: note_off channel=3 note=48 velocity=80 time=0
EXTRACT: note_on channel=3 note=63 velocity=95 time=0
EXTRACT: note_on channel=3 note=60 velocity=95 time=0
EXTRACT: note_on channel=3 note=48 velocity=95 time=0
EXTRACT: note_off channel=9 note=42 velocity=80 time=0
EXTRACT: note_off channel=9 note=37 velocity=80 time=0
EXTRACT: note_on channel=9 note=42 velocity=95 time=0
EXTRACT: note_on channel=9 note=36 velocity=95 time=0
EXTRACT: note_on channel=12 note=43 velocity=75 time=0
EXTRACT: note_on channel=12 note=43 velocity=0 time=0.2867645625
EXTRACT: note_off channel=0 note=63 velocity=80 time=0.007352937499999999
EXTRACT: note_on channel=0 note=63 velocity=95 time=0
EXTRACT: note_off channel=1 note=63 velocity=80 time=0
EXTRACT: note_off channel=1 note=60 velocity=80 time=0
EXTRACT: note_off channel=1 note=48 velocity=80 time=0
EXTRACT: note_on channel=1 note=63 velocity=95 time=0
EXTRACT: note_on channel=1 note=58 velocity=95 time=0
EXTRACT: note_on channel=1 note=48 velocity=95 time=0
EXTRACT: note_off channel=2 note=62 velocity=80 time=0
EXTRACT: note_on channel=2 note=63 velocity=95 time=0
EXTRACT: note_off channel=3 note=63 velocity=80 time=0
EXTRACT: note_off channel=3 note=60 velocity=80 time=0
EXTRACT: note_off channel=3 note=48 velocity=80 time=0
EXTRACT: note_on channel=3 note=63 velocity=95 time=0
EXTRACT: note_on channel=3 note=58 velocity=95 time=0
EXTRACT: note_on channel=3 note=48 velocity=95 time=0
EXTRACT: note_off channel=9 note=42 velocity=80 time=0
EXTRACT: note_off channel=9 note=36 velocity=80 time=0
EXTRACT: note_on channel=9 note=42 velocity=95 time=0
EXTRACT: note_on channel=9 note=36 velocity=95 time=0
EXTRACT: note_on channel=12 note=48 velocity=75 time=0
EXTRACT: note_on channel=12 note=48 velocity=0 time=0.2867645625
EXTRACT: note_off channel=0 note=63 velocity=80 time=0.007352937499999999
EXTRACT: note_on channel=0 note=63 velocity=95 time=0
EXTRACT: note_off channel=1 note=63 velocity=80 time=0
EXTRACT: note_off channel=1 note=58 velocity=80 time=0
EXTRACT: note_off channel=1 note=48 velocity=80 time=0
EXTRACT: note_on channel=1 note=63 velocity=95 time=0
EXTRACT: note_on channel=1 note=58 velocity=95 time=0
EXTRACT: note_on channel=1 note=48 velocity=95 time=0
EXTRACT: note_off channel=2 note=65 velocity=80 time=0
EXTRACT: note_on channel=2 note=65 velocity=95 time=0
EXTRACT: note_off channel=3 note=63 velocity=80 time=0
EXTRACT: note_off channel=3 note=58 velocity=80 time=0
EXTRACT: note_off channel=3 note=48 velocity=80 time=0
EXTRACT: note_on channel=3 note=63 velocity=95 time=0
EXTRACT: note_on channel=3 note=58 velocity=95 time=0
EXTRACT: note_on channel=3 note=48 velocity=95 time=0
EXTRACT: note_off channel=9 note=42 velocity=80 time=0
EXTRACT: note_off channel=9 note=36 velocity=80 time=0
EXTRACT: note_on channel=9 note=42 velocity=95 time=0
EXTRACT: note_on channel=9 note=36 velocity=95 time=0
EXTRACT: note_on channel=12 note=48 velocity=75 time=0
EXTRACT: note_off channel=1 note=53 velocity=80 time=0.14705875
EXTRACT: note_on channel=1 note=53 velocity=95 time=0
EXTRACT: pitchwheel channel=1 pitch=2048 time=0
EXTRACT: note_off channel=3 note=53 velocity=80 time=0
EXTRACT: note_on channel=3 note=53 velocity=95 time=0
EXTRACT: pitchwheel channel=3 pitch=2048 time=0
EXTRACT: pitchwheel channel=1 pitch=1408 time=0.049019583333333325
EXTRACT: pitchwheel channel=3 pitch=1408 time=0
EXTRACT: pitchwheel channel=1 pitch=640 time=0.049019583333333325
EXTRACT: pitchwheel channel=3 pitch=640 time=0
EXTRACT: note_on channel=12 note=48 velocity=0 time=0.04166664583333333
EXTRACT: note_off channel=1 note=63 velocity=80 time=0.007352937499999999
EXTRACT: note_off channel=1 note=58 velocity=80 time=0
EXTRACT: note_off channel=1 note=48 velocity=80 time=0
EXTRACT: pitchwheel channel=1 pitch=0 time=0
EXTRACT: note_off channel=2 note=63 velocity=80 time=0
EXTRACT: note_on channel=2 note=63 velocity=95 time=0
EXTRACT: note_off channel=3 note=63 velocity=80 time=0
EXTRACT: note_off channel=3 note=58 velocity=80 time=0
EXTRACT: note_off channel=3 note=48 velocity=80 time=0
EXTRACT: pitchwheel channel=3 pitch=0 time=0
EXTRACT: note_off channel=9 note=42 velocity=80 time=0
EXTRACT: note_off channel=9 note=36 velocity=80 time=0
EXTRACT: note_on channel=9 note=42 velocity=95 time=0
EXTRACT: note_on channel=9 note=37 velocity=95 time=0
EXTRACT: note_off channel=0 note=63 velocity=80 time=0.2941175
EXTRACT: note_on channel=0 note=65 velocity=95 time=0
EXTRACT: note_on channel=1 note=46 velocity=95 time=0
EXTRACT: note_off channel=2 note=65 velocity=80 time=0
EXTRACT: note_on channel=2 note=65 velocity=95 time=0
EXTRACT: note_on channel=3 note=46 velocity=95 time=0
EXTRACT: note_off channel=9 note=42 velocity=80 time=0
EXTRACT: note_off channel=9 note=37 velocity=80 time=0
EXTRACT: note_on channel=9 note=42 velocity=95 time=0
EXTRACT: note_on channel=12 note=46 velocity=75 time=0
EXTRACT: note_off channel=1 note=53 velocity=80 time=0.2941175
EXTRACT: note_on channel=1 note=53 velocity=95 time=0
EXTRACT: note_off channel=2 note=63 velocity=80 time=0
EXTRACT: note_on channel=2 note=63 velocity=95 time=0
EXTRACT: note_off channel=3 note=53 velocity=80 time=0
EXTRACT: note_on channel=3 note=53 velocity=95 time=0
EXTRACT: note_off channel=9 note=42 velocity=80 time=0
EXTRACT: note_on channel=9 note=42 velocity=95 time=0
EXTRACT: note_on channel=12 note=46 velocity=0 time=0.2867645625
EXTRACT: note_off channel=0 note=65 velocity=80 time=0.007352937499999999
EXTRACT: note_on channel=0 note=62 velocity=95 time=0
EXTRACT: note_on channel=1 note=62 velocity=95 time=0
EXTRACT: note_on channel=1 note=56 velocity=95 time=0
EXTRACT: note_off channel=2 note=65 velocity=80 time=0
EXTRACT: note_on channel=2 note=65 velocity=95 time=0
EXTRACT: note_on channel=3 note=62 velocity=95 time=0
EXTRACT: note_on channel=3 note=56 velocity=95 time=0
EXTRACT: note_off channel=9 note=42 velocity=80 time=0
EXTRACT: note_on channel=9 note=42 velocity=95 time=0
EXTRACT: note_on channel=9 note=36 velocity=95 time=0
EXTRACT: note_on channel=12 note=41 velocity=75 time=0
EXTRACT: note_off channel=0 note=62 velocity=80 time=0.2941175
EXTRACT: note_on channel=0 note=60 velocity=95 time=0
EXTRACT: note_off channel=1 note=46 velocity=80 time=0
EXTRACT: note_off channel=1 note=53 velocity=80 time=0
EXTRACT: note_off channel=1 note=62 velocity=80 time=0
EXTRACT: note_off channel=1 note=56 velocity=80 time=0
EXTRACT: note_off channel=2 note=63 velocity=80 time=0
EXTRACT: note_on channel=2 note=63 velocity=95 time=0
EXTRACT: note_off channel=3 note=46 velocity=80 time=0
EXTRACT: note_off channel=3 note=53 velocity=80 time=0
EXTRACT: note_off channel=3 note=62 velocity=80 time=0
EXTRACT: note_off channel=3 note=56 velocity=80 time=0
EXTRACT: note_off channel=9 note=42 velocity=80 time=0
EXTRACT: note_off channel=9 note=36 velocity=80 time=0
EXTRACT: note_on channel=9 note=42 velocity=95 time=0
EXTRACT: note_on channel=9 note=37 velocity=95 time=0
EXTRACT: note_on channel=12 note=41 velocity=0 time=0.1960783333333333
EXTRACT: note_off channel=0 note=60 velocity=80 time=0.09803916666666665
EXTRACT: note_on channel=0 note=60 velocity=95 time=0
EXTRACT: note_on channel=1 note=62 velocity=95 time=0
EXTRACT: note_on channel=1 note=56 velocity=95 time=0
EXTRACT: note_on channel=1 note=46 velocity=95 time=0
EXTRACT: note_off channel=2 note=63 velocity=80 time=0
EXTRACT: note_on channel=2 note=62 velocity=95 time=0
EXTRACT: note_on channel=3 note=62 velocity=95 time=0
EXTRACT: note_on channel=3 note=56 velocity=95 time=0
EXTRACT: note_on channel=3 note=46 velocity=95 time=0
EXTRACT: note_off channel=9 note=42 velocity=80 time=0
EXTRACT: note_off channel=9 note=37 velocity=80 time=0
EXTRACT: note_on channel=9 note=42 velocity=95 time=0
EXTRACT: note_on channel=9 note=36 velocity=95 time=0
EXTRACT: note_on channel=12 note=34 velocity=75 time=0
EXTRACT: note_off channel=0 note=60 velocity=80 time=0.2941175
EXTRACT: note_on channel=0 note=58 velocity=95 time=0
EXTRACT: note_off channel=9 note=42 velocity=80 time=0
EXTRACT: note_off channel=9 note=36 velocity=80 time=0
EXTRACT: note_on channel=9 note=42 velocity=95 time=0
EXTRACT: note_on channel=12 note=34 velocity=0 time=0.2867645625
EXTRACT: note_off channel=0 note=58 velocity=80 time=0.007352937499999999
EXTRACT: note_on channel=0 note=58 velocity=95 time=0
EXTRACT: note_off channel=1 note=62 velocity=80 time=0
EXTRACT: note_off channel=1 note=56 velocity=80 time=0
EXTRACT: note_on channel=1 note=56 velocity=95 time=0
EXTRACT: note_off channel=2 note=65 velocity=80 time=0
EXTRACT: note_on channel=2 note=65 velocity=95 time=0
EXTRACT: note_off channel=3 note=62 velocity=80 time=0
EXTRACT: note_off channel=3 note=56 velocity=80 time=0
EXTRACT: note_on channel=3 note=56 velocity=95 time=0
EXTRACT: note_off channel=9 note=42 velocity=80 time=0
EXTRACT: note_on channel=9 note=42 velocity=95 time=0
EXTRACT: note_on channel=9 note=36 velocity=95 time=0
EXTRACT: note_on channel=12 note=34 velocity=75 time=0
EXTRACT: note_on channel=1 note=53 velocity=95 time=0.2941175
EXTRACT: note_on channel=3 note=53 velocity=95 time=0
EXTRACT: note_off channel=9 note=42 velocity=80 time=0
EXTRACT: note_off channel=9 note=36 velocity=80 time=0
EXTRACT: note_on channel=9 note=42 velocity=95 time=0
EXTRACT: note_on channel=9 note=37 velocity=95 time=0
EXTRACT: note_on channel=12 note=34 velocity=0 time=0.1960783333333333
EXTRACT: note_off channel=0 note=58 velocity=80 time=0.09803916666666665
EXTRACT: note_on channel=0 note=60 velocity=95 time=0
EXTRACT: note_on channel=1 note=62 velocity=95 time=0
EXTRACT: note_off channel=2 note=65 velocity=80 time=0
EXTRACT: note_on channel=2 note=65 velocity=95 time=0
EXTRACT: note_on channel=3 note=62 velocity=95 time=0
EXTRACT: note_off channel=9 note=42 velocity=80 time=0
EXTRACT: note_off channel=9 note=37 velocity=80 time=0
EXTRACT: note_on channel=9 note=42 velocity=95 time=0
EXTRACT: note_on channel=12 note=34 velocity=75 time=0
EXTRACT: note_off channel=1 note=46 velocity=80 time=0.14705875
EXTRACT: note_off channel=1 note=53 velocity=80 time=0
EXTRACT: note_on channel=1 note=55 velocity=95 time=0
EXTRACT: pitchwheel channel=1 pitch=-2048 time=0
EXTRACT: note_on channel=1 note=48 velocity=95 time=0
EXTRACT: pitchwheel channel=1 pitch=-2048 time=0
EXTRACT: note_off channel=3 note=46 velocity=80 time=0
EXTRACT: note_off channel=3 note=53 velocity=80 time=0
EXTRACT: note_on channel=3 note=55 velocity=95 time=0
EXTRACT: pitchwheel channel=3 pitch=-2048 time=0
EXTRACT: note_on channel=3 note=48 velocity=95 time=0
EXTRACT: pitchwheel channel=3 pitch=-2048 time=0
EXTRACT: pitchwheel channel=1 pitch=-1408 time=0.049019583333333325
EXTRACT: pitchwheel channel=1 pitch=-1408 time=0
EXTRACT: pitchwheel channel=3 pitch=-1408 time=0
EXTRACT: pitchwheel channel=3 pitch=-1408 time=0
EXTRACT: pitchwheel channel=1 pitch=-640 time=0.049019583333333325
EXTRACT: pitchwheel channel=1 pitch=-640 time=0
EXTRACT: pitchwheel channel=3 pitch=-640 time=0
EXTRACT: pitchwheel channel=3 pitch=-640 time=0
EXTRACT: note_on channel=12 note=34 velocity=0 time=0.04166664583333333
EXTRACT: note_off channel=0 note=60 velocity=80 time=0.007352937499999999
EXTRACT: note_on channel=0 note=58 velocity=95 time=0
EXTRACT: pitchwheel channel=1 pitch=0 time=0
EXTRACT: pitchwheel channel=1 pitch=0 time=0
EXTRACT: pitchwheel channel=3 pitch=0 time=0
EXTRACT: pitchwheel channel=3 pitch=0 time=0
EXTRACT: note_off channel=9 note=42 velocity=80 time=0
EXTRACT: note_on channel=9 note=42 velocity=95 time=0
EXTRACT: note_on channel=9 note=36 velocity=95 time=0
EXTRACT: note_on channel=12 note=36 velocity=75 time=0
EXTRACT: note_off channel=0 note=58 velocity=80 time=0.2941175
EXTRACT: note_on channel=1 note=67 velocity=95 time=0
EXTRACT: note_off channel=2 note=65 velocity=80 time=0
EXTRACT: note_on channel=2 note=67 velocity=95 time=0
EXTRACT: note_on channel=3 note=67 velocity=95 time=0
EXTRACT: note_off channel=9 note=42 velocity=80 time=0
EXTRACT: note_off channel=9 note=36 velocity=80 time=0
EXTRACT: note_on channel=9 note=42 velocity=95 time=0
EXTRACT: note_on channel=12 note=36 velocity=0 time=0.1960783333333333
EXTRACT: note_on channel=0 note=63 velocity=95 time=0.09803916666666665
EXTRACT: note_off channel=1 note=56 velocity=80 time=0
EXTRACT: note_off channel=1 note=62 velocity=80 time=0
EXTRACT: note_off channel=1 note=48 velocity=80 time=0
EXTRACT: note_on channel=1 note=63 velocity=95 time=0
EXTRACT: note_on channel=1 note=60 velocity=95 time=0
EXTRACT: note_on channel=1 note=48 velocity=95 time=0
EXTRACT: note_off channel=2 note=67 velocity=80 time=0
EXTRACT: note_on channel=2 note=65 velocity=95 time=0
EXTRACT: note_off channel=3 note=56 velocity=80 time=0
EXTRACT: note_off channel=3 note=62 velocity=80 time=0
EXTRACT: note_off channel=3 note=48 velocity=80 time=0
EXTRACT: note_on channel=3 note=63 velocity=95 time=0
EXTRACT: note_on channel=3 note=60 velocity=95 time=0
EXTRACT: note_on channel=3 note=48 velocity=95 time=0
EXTRACT: note_off channel=9 note=42 velocity=80 time=0
EXTRACT: note_on channel=9 note=42 velocity=95 time=0
EXTRACT: note_on channel=9 note=37 velocity=95 time=0
EXTRACT: note_on channel=12 note=41 velocity=75 time=0
EXTRACT: note_on channel=12 note=41 velocity=0 time=0.2867645625
EXTRACT: note_off channel=0 note=63 velocity=80 time=0.007352937499999999
EXTRACT: note_on channel=0 note=62 velocity=95 time=0
EXTRACT: note_off channel=1 note=63 velocity=80 time=0
EXTRACT: note_off channel=1 note=60 velocity=80 time=0
EXTRACT: note_off channel=1 note=48 velocity=80 time=0
EXTRACT: note_on channel=1 note=63 velocity=95 time=0
EXTRACT: note_on channel=1 note=60 velocity=95 time=0
EXTRACT: note_on channel=1 note=48 velocity=95 time=0
EXTRACT: note_off channel=2 note=62 velocity=80 time=0
EXTRACT: note_on channel=2 note=62 velocity=95 time=0
EXTRACT: note_off channel=3 note=63 velocity=80 time=0
EXTRACT: note_off channel=3 note=60 velocity=80 time=0
EXTRACT: note_off channel=3 note=48 velocity=80 time=0
EXTRACT: note_on channel=3 note=63 velocity=95 time=0
EXTRACT: note_on channel=3 note=60 velocity=95 time=0
EXTRACT: note_on channel=3 note=48 velocity=95 time=0
EXTRACT: note_off channel=9 note=42 velocity=80 time=0
EXTRACT: note_off channel=9 note=37 velocity=80 time=0
EXTRACT: note_on channel=9 note=42 velocity=95 time=0
EXTRACT: note_on channel=9 note=36 velocity=95 time=0
EXTRACT: note_on channel=12 note=43 velocity=75 time=0
EXTRACT: note_on channel=12 note=43 velocity=0 time=0.2867645625
EXTRACT: note_off channel=0 note=62 velocity=80 time=0.007352937499999999
EXTRACT: note_on channel=0 note=63 velocity=95 time=0
EXTRACT: note_off channel=1 note=63 velocity=80 time=0
EXTRACT: note_off channel=1 note=60 velocity=80 time=0
EXTRACT: note_off channel=1 note=48 velocity=80 time=0
EXTRACT: note_on channel=1 note=63 velocity=95 time=0
EXTRACT: note_on channel=1 note=60 velocity=95 time=0
EXTRACT: note_on channel=1 note=48 velocity=95 time=0
EXTRACT: note_off channel=2 note=62 velocity=80 time=0
EXTRACT: note_on channel=2 note=63 velocity=95 time=0
EXTRACT: note_off channel=3 note=63 velocity=80 time=0
EXTRACT: note_off channel=3 note=60 velocity=80 time=0
EXTRACT: note_off channel=3 note=48 velocity=80 time=0
EXTRACT: note_on channel=3 note=63 velocity=95 time=0
EXTRACT: note_on channel=3 note=60 velocity=95 time=0
EXTRACT: note_on channel=3 note=48 velocity=95 time=0
EXTRACT: note_off channel=9 note=42 velocity=80 time=0
EXTRACT: note_off channel=9 note=36 velocity=80 time=0
EXTRACT: note_on channel=9 note=42 velocity=95 time=0
EXTRACT: note_on channel=9 note=36 velocity=95 time=0
EXTRACT: note_on channel=12 note=48 velocity=75 time=0
EXTRACT: note_on channel=12 note=48 velocity=0 time=0.2867645625
EXTRACT: note_off channel=0 note=63 velocity=80 time=0.007352937499999999
EXTRACT: note_on channel=0 note=60 velocity=95 time=0
EXTRACT: note_off channel=1 note=63 velocity=80 time=0
EXTRACT: note_off channel=1 note=60 velocity=80 time=0
EXTRACT: note_off channel=1 note=48 velocity=80 time=0
EXTRACT: note_on channel=1 note=63 velocity=95 time=0
EXTRACT: note_on channel=1 note=60 velocity=95 time=0
EXTRACT: note_on channel=1 note=48 velocity=95 time=0
EXTRACT: note_off channel=2 note=65 velocity=80 time=0
EXTRACT: note_on channel=2 note=65 velocity=95 time=0
EXTRACT: note_off channel=3 note=63 velocity=80 time=0
EXTRACT: note_off channel=3 note=60 velocity=80 time=0
EXTRACT: note_off channel=3 note=48 velocity=80 time=0
EXTRACT: note_on channel=3 note=63 velocity=95 time=0
EXTRACT: note_on channel=3 note=60 velocity=95 time=0
EXTRACT: note_on channel=3 note=48 velocity=95 time=0
EXTRACT: note_off channel=9 note=42 velocity=80 time=0
EXTRACT: note_off channel=9 note=36 velocity=80 time=0
EXTRACT: note_on channel=9 note=42 velocity=95 time=0
EXTRACT: note_on channel=9 note=36 velocity=95 time=0
EXTRACT: note_on channel=12 note=48 velocity=75 time=0
EXTRACT: note_off channel=1 note=55 velocity=80 time=0.14705875
EXTRACT: note_on channel=1 note=53 velocity=95 time=0
EXTRACT: pitchwheel channel=1 pitch=2048 time=0
EXTRACT: note_off channel=3 note=55 velocity=80 time=0
EXTRACT: note_on channel=3 note=53 velocity=95 time=0
EXTRACT: pitchwheel channel=3 pitch=2048 time=0
EXTRACT: pitchwheel channel=1 pitch=1408 time=0.049019583333333325
EXTRACT: pitchwheel channel=3 pitch=1408 time=0
EXTRACT: pitchwheel channel=1 pitch=640 time=0.049019583333333325
EXTRACT: pitchwheel channel=3 pitch=640 time=0
EXTRACT: note_on channel=12 note=48 velocity=0 time=0.04166664583333333
EXTRACT: note_off channel=0 note=60 velocity=80 time=0.007352937499999999
EXTRACT: note_off channel=1 note=63 velocity=80 time=0
EXTRACT: note_off channel=1 note=60 velocity=80 time=0
EXTRACT: note_off channel=1 note=48 velocity=80 time=0
EXTRACT: pitchwheel channel=1 pitch=0 time=0
EXTRACT: note_off channel=2 note=63 velocity=80 time=0
EXTRACT: note_on channel=2 note=63 velocity=95 time=0
EXTRACT: note_off channel=3 note=63 velocity=80 time=0
EXTRACT: note_off channel=3 note=60 velocity=80 time=0
EXTRACT: note_off channel=3 note=48 velocity=80 time=0
EXTRACT: pitchwheel channel=3 pitch=0 time=0
EXTRACT: note_off channel=9 note=42 velocity=80 time=0
EXTRACT: note_off channel=9 note=36 velocity=80 time=0
EXTRACT: note_on channel=9 note=42 velocity=95 time=0
EXTRACT: note_on channel=9 note=37 velocity=95 time=0
EXTRACT: note_on channel=0 note=67 velocity=95 time=0.1960783333333333
EXTRACT: note_on channel=1 note=46 velocity=95 time=0.09803916666666665
EXTRACT: note_off channel=2 note=65 velocity=80 time=0
EXTRACT: note_on channel=2 note=65 velocity=95 time=0
EXTRACT: note_on channel=3 note=46 velocity=95 time=0
EXTRACT: note_off channel=9 note=42 velocity=80 time=0
EXTRACT: note_off channel=9 note=37 velocity=80 time=0
EXTRACT: note_on channel=9 note=42 velocity=95 time=0
EXTRACT: note_on channel=12 note=46 velocity=75 time=0
EXTRACT: note_off channel=0 note=67 velocity=80 time=0.09803916666666665
EXTRACT: note_on channel=0 note=65 velocity=95 time=0
EXTRACT: note_on channel=0 note=64 velocity=95 time=0.12254895833333332
EXTRACT: note_off channel=0 note=64 velocity=80 time=0.07107839583333332
EXTRACT: note_off channel=0 note=65 velocity=80 time=0.0024509791666666664
EXTRACT: note_on channel=0 note=65 velocity=95 time=0
EXTRACT: note_off channel=1 note=53 velocity=80 time=0
EXTRACT: note_on channel=1 note=53 velocity=95 time=0
EXTRACT: note_off channel=2 note=63 velocity=80 time=0
EXTRACT: note_on channel=2 note=63 velocity=95 time=0
EXTRACT: note_off channel=3 note=53 velocity=80 time=0
EXTRACT: note_on channel=3 note=53 velocity=95 time=0
EXTRACT: note_off channel=9 note=42 velocity=80 time=0
EXTRACT: note_on channel=9 note=42 velocity=95 time=0
EXTRACT: note_on channel=12 note=46 velocity=0 time=0.2867645625
EXTRACT: note_off channel=1 note=67 velocity=80 time=0.007352937499999999
EXTRACT: note_on channel=1 note=62 velocity=95 time=0
EXTRACT: note_on channel=1 note=56 velocity=95 time=0
EXTRACT: note_off channel=2 note=65 velocity=80 time=0
EXTRACT: note_on channel=2 note=65 velocity=95 time=0
EXTRACT: note_off channel=3 note=67 velocity=80 time=0
EXTRACT: note_on channel=3 note=62 velocity=95 time=0
EXTRACT: note_on channel=3 note=56 velocity=95 time=0
EXTRACT: note_off channel=9 note=42 velocity=80 time=0
EXTRACT: note_on channel=9 note=42 velocity=95 time=0
EXTRACT: note_on channel=9 note=36 velocity=95 time=0
EXTRACT: note_on channel=12 note=41 velocity=75 time=0
EXTRACT: note_off channel=0 note=65 velocity=80 time=0.2941175
EXTRACT: note_off channel=1 note=46 velocity=80 time=0
EXTRACT: note_off channel=1 note=53 velocity=80 time=0
EXTRACT: note_off channel=1 note=62 velocity=80 time=0
EXTRACT: note_off channel=1 note=56 velocity=80 time=0
EXTRACT: note_off channel=2 note=63 velocity=80 time=0
EXTRACT: note_on channel=2 note=63 velocity=95 time=0
EXTRACT: note_off channel=3 note=46 velocity=80 time=0
EXTRACT: note_off channel=3 note=53 velocity=80 time=0
EXTRACT: note_off channel=3 note=62 velocity=80 time=0
EXTRACT: note_off channel=3 note=56 velocity=80 time=0
EXTRACT: note_off channel=9 note=42 velocity=80 time=0
EXTRACT: note_off channel=9 note=36 velocity=80 time=0
EXTRACT: note_on channel=9 note=42 velocity=95 time=0
EXTRACT: note_on channel=9 note=37 velocity=95 time=0
EXTRACT: note_on channel=12 note=41 velocity=0 time=0.1960783333333333
EXTRACT: note_on channel=1 note=62 velocity=95 time=0.09803916666666665
EXTRACT: note_on channel=1 note=56 velocity=95 time=0
EXTRACT: note_on channel=1 note=46 velocity=95 time=0
EXTRACT: note_off channel=2 note=63 velocity=80 time=0
EXTRACT: note_on channel=2 note=62 velocity=95 time=0
EXTRACT: note_on channel=3 note=62 velocity=95 time=0
EXTRACT: note_on channel=3 note=56 velocity=95 time=0
EXTRACT: note_on channel=3 note=46 velocity=95 time=0
EXTRACT: note_off channel=9 note=42 velocity=80 time=0
EXTRACT: note_off channel=9 note=37 velocity=80 time=0
EXTRACT: note_on channel=9 note=42 velocity=95 time=0
EXTRACT: note_on channel=9 note=36 velocity=95 time=0
EXTRACT: note_on channel=12 note=34 velocity=75 time=0
EXTRACT: note_off channel=2 note=62 velocity=80 time=0.2941175
EXTRACT: note_on channel=2 note=62 velocity=95 time=0
EXTRACT: note_off channel=9 note=42 velocity=80 time=0
EXTRACT: note_off channel=9 note=36 velocity=80 time=0
EXTRACT: note_on channel=9 note=42 velocity=95 time=0
EXTRACT: note_on channel=12 note=34 velocity=0 time=0.2867645625
EXTRACT: note_off channel=1 note=56 velocity=80 time=0.007352937499999999
EXTRACT: note_on channel=1 note=56 velocity=95 time=0
EXTRACT: note_off channel=2 note=65 velocity=80 time=0
EXTRACT: note_on channel=2 note=65 velocity=95 time=0
EXTRACT: note_off channel=3 note=56 velocity=80 time=0
EXTRACT: note_on channel=3 note=56 velocity=95 time=0
EXTRACT: note_off channel=9 note=42 velocity=80 time=0
EXTRACT: note_on channel=9 note=42 velocity=95 time=0
EXTRACT: note_on channel=9 note=36 velocity=95 time=0
EXTRACT: note_on channel=12 note=34 velocity=75 time=0
EXTRACT: note_on channel=1 note=53 velocity=95 time=0.2941175
EXTRACT: note_off channel=2 note=62 velocity=80 time=0
EXTRACT: note_on channel=2 note=62 velocity=95 time=0
EXTRACT: note_on channel=3 note=53 velocity=95 time=0
EXTRACT: note_off channel=9 note=42 velocity=80 time=0
EXTRACT: note_off channel=9 note=36 velocity=80 time=0
EXTRACT: note_on channel=9 note=42 velocity=95 time=0
EXTRACT: note_on channel=9 note=37 velocity=95 time=0
EXTRACT: note_on channel=12 note=34 velocity=0 time=0.1960783333333333
EXTRACT: note_off channel=1 note=62 velocity=80 time=0.09803916666666665
EXTRACT: note_on channel=1 note=62 velocity=95 time=0
EXTRACT: note_off channel=2 note=65 velocity=80 time=0
EXTRACT: note_on channel=2 note=65 velocity=95 time=0
EXTRACT: note_off channel=3 note=62 velocity=80 time=0
EXTRACT: note_on channel=3 note=62 velocity=95 time=0
EXTRACT: note_off channel=9 note=42 velocity=80 time=0
EXTRACT: note_off channel=9 note=37 velocity=80 time=0
EXTRACT: note_on channel=9 note=42 velocity=95 time=0
EXTRACT: note_on channel=12 note=34 velocity=75 time=0
EXTRACT: note_on channel=12 note=34 velocity=0 time=0.2867645625
EXTRACT: note_off channel=1 note=46 velocity=80 time=0.007352937499999999
EXTRACT: note_on channel=1 note=48 velocity=95 time=0
EXTRACT: note_off channel=2 note=65 velocity=80 time=0
EXTRACT: note_on channel=2 note=65 velocity=95 time=0
EXTRACT: note_off channel=3 note=46 velocity=80 time=0
EXTRACT: note_on channel=3 note=48 velocity=95 time=0
EXTRACT: note_off channel=9 note=42 velocity=80 time=0
EXTRACT: note_on channel=9 note=57 velocity=79 time=0
EXTRACT: note_on channel=9 note=36 velocity=95 time=0
EXTRACT: note_on channel=12 note=36 velocity=75 time=0
EXTRACT: note_off channel=2 note=65 velocity=80 time=0.2941175
EXTRACT: note_on channel=2 note=67 velocity=95 time=0
EXTRACT: note_off channel=9 note=57 velocity=80 time=0
EXTRACT: note_off channel=9 note=36 velocity=80 time=0
EXTRACT: note_on channel=9 note=42 velocity=95 time=0
EXTRACT: note_on channel=12 note=36 velocity=0 time=0.1960783333333333
EXTRACT: note_off channel=1 note=56 velocity=80 time=0.09803916666666665
EXTRACT: note_off channel=1 note=62 velocity=80 time=0
EXTRACT: note_off channel=1 note=48 velocity=80 time=0
EXTRACT: note_on channel=1 note=63 velocity=95 time=0
EXTRACT: note_on channel=1 note=60 velocity=95 time=0
EXTRACT: note_on channel=1 note=48 velocity=95 time=0
EXTRACT: note_off channel=2 note=67 velocity=80 time=0
EXTRACT: note_on channel=2 note=65 velocity=95 time=0
EXTRACT: note_off channel=3 note=56 velocity=80 time=0
EXTRACT: note_off channel=3 note=62 velocity=80 time=0
EXTRACT: note_off channel=3 note=48 velocity=80 time=0
EXTRACT: note_on channel=3 note=63 velocity=95 time=0
EXTRACT: note_on channel=3 note=60 velocity=95 time=0
EXTRACT: note_on channel=3 note=48 velocity=95 time=0
EXTRACT: note_off channel=9 note=42 velocity=80 time=0
EXTRACT: note_on channel=9 note=42 velocity=95 time=0
EXTRACT: note_on channel=9 note=40 velocity=95 time=0
EXTRACT: note_on channel=12 note=41 velocity=75 time=0
EXTRACT: note_on channel=12 note=41 velocity=0 time=0.2867645625
EXTRACT: note_on channel=0 note=62 velocity=95 time=0.007352937499999999
EXTRACT: note_off channel=1 note=63 velocity=80 time=0
EXTRACT: note_off channel=1 note=60 velocity=80 time=0
EXTRACT: note_off channel=1 note=48 velocity=80 time=0
EXTRACT: note_on channel=1 note=63 velocity=95 time=0
EXTRACT: note_on channel=1 note=60 velocity=95 time=0
EXTRACT: note_on channel=1 note=48 velocity=95 time=0
EXTRACT: note_off channel=2 note=62 velocity=80 time=0
EXTRACT: note_on channel=2 note=62 velocity=95 time=0
EXTRACT: note_off channel=3 note=63 velocity=80 time=0
EXTRACT: note_off channel=3 note=60 velocity=80 time=0
EXTRACT: note_off channel=3 note=48 velocity=80 time=0
EXTRACT: note_on channel=3 note=63 velocity=95 time=0
EXTRACT: note_on channel=3 note=60 velocity=95 time=0
EXTRACT: note_on channel=3 note=48 velocity=95 time=0
EXTRACT: note_off channel=9 note=42 velocity=80 time=0
EXTRACT: note_off channel=9 note=40 velocity=80 time=0
EXTRACT: note_on channel=9 note=42 velocity=95 time=0
EXTRACT: note_on channel=9 note=36 velocity=95 time=0
EXTRACT: note_on channel=12 note=43 velocity=75 time=0
EXTRACT: note_on channel=12 note=43 velocity=0 time=0.2867645625
EXTRACT: note_off channel=0 note=62 velocity=80 time=0.007352937499999999
EXTRACT: note_on channel=0 note=63 velocity=95 time=0
EXTRACT: note_off channel=1 note=63 velocity=80 time=0
EXTRACT: note_off channel=1 note=60 velocity=80 time=0
EXTRACT: note_off channel=1 note=48 velocity=80 time=0
EXTRACT: note_on channel=1 note=63 velocity=95 time=0
EXTRACT: note_on channel=1 note=58 velocity=95 time=0
EXTRACT: note_on channel=1 note=48 velocity=95 time=0
EXTRACT: note_off channel=2 note=62 velocity=80 time=0
EXTRACT: note_on channel=2 note=63 velocity=95 time=0
EXTRACT: note_off channel=3 note=63 velocity=80 time=0
EXTRACT: note_off channel=3 note=60 velocity=80 time=0
EXTRACT: note_off channel=3 note=48 velocity=80 time=0
EXTRACT: note_on channel=3 note=63 velocity=95 time=0
EXTRACT: note_on channel=3 note=58 velocity=95 time=0
EXTRACT: note_on channel=3 note=48 velocity=95 time=0
EXTRACT: note_off channel=9 note=42 velocity=80 time=0
EXTRACT: note_off channel=9 note=36 velocity=80 time=0
EXTRACT: note_on channel=9 note=42 velocity=95 time=0
EXTRACT: note_on channel=9 note=36 velocity=95 time=0
EXTRACT: note_on channel=12 note=48 velocity=75 time=0
EXTRACT: note_on channel=12 note=48 velocity=0 time=0.2867645625
EXTRACT: note_off channel=0 note=63 velocity=80 time=0.007352937499999999
EXTRACT: note_on channel=0 note=63 velocity=95 time=0
EXTRACT: note_off channel=1 note=63 velocity=80 time=0
EXTRACT: note_off channel=1 note=58 velocity=80 time=0
EXTRACT: note_off channel=1 note=48 velocity=80 time=0
EXTRACT: note_on channel=1 note=63 velocity=95 time=0
EXTRACT: note_on channel=1 note=58 velocity=95 time=0
EXTRACT: note_on channel=1 note=48 velocity=95 time=0
EXTRACT: note_off channel=2 note=65 velocity=80 time=0
EXTRACT: note_on channel=2 note=65 velocity=95 time=0
EXTRACT: note_off channel=3 note=63 velocity=80 time=0
EXTRACT: note_off channel=3 note=58 velocity=80 time=0
EXTRACT: note_off channel=3 note=48 velocity=80 time=0
EXTRACT: note_on channel=3 note=63 velocity=95 time=0
EXTRACT: note_on channel=3 note=58 velocity=95 time=0
EXTRACT: note_on channel=3 note=48 velocity=95 time=0
EXTRACT: note_off channel=9 note=42 velocity=80 time=0
EXTRACT: note_off channel=9 note=36 velocity=80 time=0
EXTRACT: note_on channel=9 note=42 velocity=95 time=0
EXTRACT: note_on channel=9 note=36 velocity=95 time=0
EXTRACT: note_on channel=12 note=48 velocity=75 time=0
EXTRACT: note_off channel=1 note=53 velocity=80 time=0.14705875
EXTRACT: note_on channel=1 note=53 velocity=95 time=0
EXTRACT: pitchwheel channel=1 pitch=2048 time=0
EXTRACT: note_off channel=3 note=53 velocity=80 time=0
EXTRACT: note_on channel=3 note=53 velocity=95 time=0
EXTRACT: pitchwheel channel=3 pitch=2048 time=0
EXTRACT: pitchwheel channel=1 pitch=1408 time=0.049019583333333325
EXTRACT: pitchwheel channel=3 pitch=1408 time=0
EXTRACT: pitchwheel channel=1 pitch=640 time=0.049019583333333325
EXTRACT: pitchwheel channel=3 pitch=640 time=0
EXTRACT: note_on channel=12 note=48 velocity=0 time=0.04166664583333333
EXTRACT: note_off channel=0 note=63 velocity=80 time=0.007352937499999999
EXTRACT: note_on channel=0 note=63 velocity=95 time=0
EXTRACT: note_off channel=1 note=63 velocity=80 time=0
EXTRACT: note_off channel=1 note=58 velocity=80 time=0
EXTRACT: note_off channel=1 note=48 velocity=80 time=0
EXTRACT: pitchwheel channel=1 pitch=0 time=0
EXTRACT: note_off channel=3 note=63 velocity=80 time=0
EXTRACT: note_off channel=3 note=58 velocity=80 time=0
EXTRACT: note_off channel=3 note=48 velocity=80 time=0
EXTRACT: pitchwheel channel=3 pitch=0 time=0
EXTRACT: note_off channel=9 note=42 velocity=80 time=0
EXTRACT: note_off channel=9 note=36 velocity=80 time=0
EXTRACT: note_on channel=9 note=42 velocity=95 time=0
EXTRACT: note_on channel=9 note=40 velocity=95 time=0
EXTRACT: note_off channel=0 note=63 velocity=80 time=0.2941175
EXTRACT: note_on channel=0 note=65 velocity=95 time=0
EXTRACT: note_on channel=1 note=46 velocity=95 time=0
EXTRACT: note_off channel=2 note=65 velocity=80 time=0
EXTRACT: note_on channel=2 note=65 velocity=95 time=0
EXTRACT: note_on channel=3 note=46 velocity=95 time=0
EXTRACT: note_off channel=9 note=42 velocity=80 time=0
EXTRACT: note_off channel=9 note=40 velocity=80 time=0
EXTRACT: note_on channel=9 note=42 velocity=95 time=0
EXTRACT: note_on channel=9 note=36 velocity=95 time=0
EXTRACT: note_on channel=12 note=46 velocity=75 time=0
EXTRACT: note_off channel=1 note=53 velocity=80 time=0.2941175
EXTRACT: note_on channel=1 note=53 velocity=95 time=0
EXTRACT: note_off channel=3 note=53 velocity=80 time=0
EXTRACT: note_on channel=3 note=53 velocity=95 time=0
EXTRACT: note_off channel=9 note=42 velocity=80 time=0
EXTRACT: note_off channel=9 note=36 velocity=80 time=0
EXTRACT: note_on channel=9 note=42 velocity=95 time=0
EXTRACT: note_on channel=12 note=46 velocity=0 time=0.2867645625
EXTRACT: note_off channel=0 note=65 velocity=80 time=0.007352937499999999
EXTRACT: note_on channel=0 note=63 velocity=95 time=0
EXTRACT: note_on channel=1 note=62 velocity=95 time=0
EXTRACT: note_on channel=1 note=56 velocity=95 time=0
EXTRACT: note_off channel=2 note=65 velocity=80 time=0
EXTRACT: note_on channel=2 note=65 velocity=95 time=0
EXTRACT: note_on channel=3 note=62 velocity=95 time=0
EXTRACT: note_on channel=3 note=56 velocity=95 time=0
EXTRACT: note_off channel=9 note=42 velocity=80 time=0
EXTRACT: note_on channel=9 note=42 velocity=95 time=0
EXTRACT: note_on channel=9 note=36 velocity=95 time=0
EXTRACT: note_on channel=12 note=41 velocity=75 time=0
EXTRACT: note_off channel=0 note=63 velocity=80 time=0.2941175
EXTRACT: note_on channel=0 note=63 velocity=95 time=0
EXTRACT: note_off channel=1 note=46 velocity=80 time=0
EXTRACT: note_off channel=1 note=53 velocity=80 time=0
EXTRACT: note_off channel=1 note=62 velocity=80 time=0
EXTRACT: note_off channel=1 note=56 velocity=80 time=0
EXTRACT: note_off channel=2 note=63 velocity=80 time=0
EXTRACT: note_on channel=2 note=63 velocity=95 time=0
EXTRACT: note_off channel=3 note=46 velocity=80 time=0
EXTRACT: note_off channel=3 note=53 velocity=80 time=0
EXTRACT: note_off channel=3 note=62 velocity=80 time=0
EXTRACT: note_off channel=3 note=56 velocity=80 time=0
EXTRACT: note_off channel=9 note=42 velocity=80 time=0
EXTRACT: note_off channel=9 note=36 velocity=80 time=0
EXTRACT: note_on channel=9 note=42 velocity=95 time=0
EXTRACT: note_on channel=9 note=40 velocity=95 time=0
EXTRACT: note_on channel=12 note=41 velocity=0 time=0.1960783333333333
EXTRACT: note_off channel=0 note=63 velocity=80 time=0.09803916666666665
EXTRACT: note_on channel=0 note=66 velocity=95 time=0
EXTRACT: note_on channel=1 note=62 velocity=95 time=0
EXTRACT: note_on channel=1 note=56 velocity=95 time=0
EXTRACT: note_on channel=1 note=46 velocity=95 time=0
EXTRACT: note_off channel=2 note=63 velocity=80 time=0
EXTRACT: note_on channel=2 note=62 velocity=95 time=0
EXTRACT: note_on channel=3 note=62 velocity=95 time=0
EXTRACT: note_on channel=3 note=56 velocity=95 time=0
EXTRACT: note_on channel=3 note=46 velocity=95 time=0
EXTRACT: note_off channel=9 note=42 velocity=80 time=0
EXTRACT: note_off channel=9 note=40 velocity=80 time=0
EXTRACT: note_on channel=9 note=42 velocity=95 time=0
EXTRACT: note_on channel=9 note=36 velocity=95 time=0
EXTRACT: note_on channel=12 note=34 velocity=75 time=0
EXTRACT: note_off channel=0 note=66 velocity=80 time=0.14705875
EXTRACT: note_on channel=0 note=65 velocity=95 time=0
EXTRACT: note_on channel=0 note=64 velocity=95 time=0.073529375
EXTRACT: note_off channel=0 note=64 velocity=80 time=0.07107839583333332
EXTRACT: note_off channel=0 note=65 velocity=80 time=0.0024509791666666664
EXTRACT: note_on channel=0 note=65 velocity=95 time=0
EXTRACT: note_off channel=9 note=42 velocity=80 time=0
EXTRACT: note_off channel=9 note=36 velocity=80 time=0
EXTRACT: note_on channel=9 note=42 velocity=95 time=0
EXTRACT: note_on channel=12 note=34 velocity=0 time=0.2867645625
EXTRACT: note_off channel=1 note=62 velocity=80 time=0.007352937499999999
EXTRACT: note_off channel=1 note=56 velocity=80 time=0
EXTRACT: note_on channel=1 note=56 velocity=95 time=0
EXTRACT: note_off channel=2 note=65 velocity=80 time=0
EXTRACT: note_on channel=2 note=65 velocity=95 time=0
EXTRACT: note_off channel=3 note=62 velocity=80 time=0
EXTRACT: note_off channel=3 note=56 velocity=80 time=0
EXTRACT: note_on channel=3 note=56 velocity=95 time=0
EXTRACT: note_off channel=9 note=42 velocity=80 time=0
EXTRACT: note_on channel=9 note=42 velocity=95 time=0
EXTRACT: note_on channel=9 note=36 velocity=95 time=0
EXTRACT: note_on channel=12 note=34 velocity=75 time=0
EXTRACT: note_off channel=0 note=65 velocity=80 time=0.2941175
EXTRACT: note_on channel=0 note=63 velocity=95 time=0
EXTRACT: note_on channel=1 note=53 velocity=95 time=0
EXTRACT: note_off channel=2 note=62 velocity=80 time=0
EXTRACT: note_on channel=2 note=62 velocity=95 time=0
EXTRACT: note_on channel=3 note=53 velocity=95 time=0
EXTRACT: note_off channel=9 note=42 velocity=80 time=0
EXTRACT: note_off channel=9 note=36 velocity=80 time=0
EXTRACT: note_on channel=9 note=42 velocity=95 time=0
EXTRACT: note_on channel=9 note=40 velocity=95 time=0
EXTRACT: note_on channel=12 note=34 velocity=0 time=0.1960783333333333
EXTRACT: note_off channel=0 note=63 velocity=80 time=0.09803916666666665
EXTRACT: note_on channel=0 note=66 velocity=95 time=0
EXTRACT: note_on channel=1 note=62 velocity=95 time=0
EXTRACT: note_off channel=2 note=65 velocity=80 time=0
EXTRACT: note_on channel=2 note=65 velocity=95 time=0
EXTRACT: note_on channel=3 note=62 velocity=95 time=0
EXTRACT: note_off channel=9 note=42 velocity=80 time=0
EXTRACT: note_off channel=9 note=40 velocity=80 time=0
EXTRACT: note_on channel=9 note=42 velocity=95 time=0
EXTRACT: note_on channel=9 note=36 velocity=95 time=0
EXTRACT: note_on channel=12 note=34 velocity=75 time=0
EXTRACT: note_off channel=1 note=46 velocity=80 time=0.14705875
EXTRACT: note_off channel=1 note=53 velocity=80 time=0
EXTRACT: note_on channel=1 note=55 velocity=95 time=0
EXTRACT: pitchwheel channel=1 pitch=-2048 time=0
EXTRACT: note_on channel=1 note=48 velocity=95 time=0
EXTRACT: pitchwheel channel=1 pitch=-2048 time=0
EXTRACT: note_off channel=3 note=46 velocity=80 time=0
EXTRACT: note_off channel=3 note=53 velocity=80 time=0
EXTRACT: note_on channel=3 note=55 velocity=95 time=0
EXTRACT: pitchwheel channel=3 pitch=-2048 time=0
EXTRACT: note_on channel=3 note=48 velocity=95 time=0
EXTRACT: pitchwheel channel=3 pitch=-2048 time=0
EXTRACT: pitchwheel channel=1 pitch=-1408 time=0.049019583333333325
EXTRACT: pitchwheel channel=1 pitch=-1408 time=0
EXTRACT: pitchwheel channel=3 pitch=-1408 time=0
EXTRACT: pitchwheel channel=3 pitch=-1408 time=0
EXTRACT: pitchwheel channel=1 pitch=-640 time=0.049019583333333325
EXTRACT: pitchwheel channel=1 pitch=-640 time=0
EXTRACT: pitchwheel channel=3 pitch=-640 time=0
EXTRACT: pitchwheel channel=3 pitch=-640 time=0
EXTRACT: note_on channel=12 note=34 velocity=0 time=0.04166664583333333
EXTRACT: note_off channel=0 note=66 velocity=80 time=0.007352937499999999
EXTRACT: note_on channel=0 note=65 velocity=95 time=0
EXTRACT: pitchwheel channel=1 pitch=0 time=0
EXTRACT: pitchwheel channel=1 pitch=0 time=0
EXTRACT: note_off channel=2 note=65 velocity=80 time=0
EXTRACT: note_on channel=2 note=65 velocity=95 time=0
EXTRACT: pitchwheel channel=3 pitch=0 time=0
EXTRACT: pitchwheel channel=3 pitch=0 time=0
EXTRACT: note_off channel=9 note=42 velocity=80 time=0
EXTRACT: note_off channel=9 note=36 velocity=80 time=0
EXTRACT: note_on channel=9 note=42 velocity=95 time=0
EXTRACT: note_on channel=9 note=36 velocity=95 time=0
EXTRACT: note_on channel=12 note=36 velocity=75 time=0
EXTRACT: note_off channel=0 note=65 velocity=80 time=0.14705875
EXTRACT: note_on channel=0 note=63 velocity=95 time=0
EXTRACT: note_off channel=0 note=63 velocity=80 time=0.14705875
EXTRACT: note_on channel=0 note=65 velocity=95 time=0
EXTRACT: note_on channel=1 note=67 velocity=95 time=0
EXTRACT: note_off channel=2 note=65 velocity=80 time=0
EXTRACT: note_on channel=2 note=67 velocity=95 time=0
EXTRACT: note_on channel=3 note=67 velocity=95 time=0
EXTRACT: note_off channel=9 note=42 velocity=80 time=0
EXTRACT: note_off channel=9 note=36 velocity=80 time=0
EXTRACT: note_on channel=9 note=42 velocity=95 time=0
EXTRACT: note_on channel=12 note=36 velocity=0 time=0.1960783333333333
EXTRACT: note_off channel=0 note=65 velocity=80 time=0.09803916666666665
EXTRACT: note_on channel=0 note=63 velocity=95 time=0
EXTRACT: note_off channel=1 note=56 velocity=80 time=0
EXTRACT: note_off channel=1 note=62 velocity=80 time=0
EXTRACT: note_off channel=1 note=48 velocity=80 time=0
EXTRACT: note_on channel=1 note=63 velocity=95 time=0
EXTRACT: note_on channel=1 note=60 velocity=95 time=0
EXTRACT: note_on channel=1 note=48 velocity=95 time=0
EXTRACT: note_off channel=2 note=67 velocity=80 time=0
EXTRACT: note_on channel=2 note=65 velocity=95 time=0
EXTRACT: note_off channel=3 note=56 velocity=80 time=0
EXTRACT: note_off channel=3 note=62 velocity=80 time=0
EXTRACT: note_off channel=3 note=48 velocity=80 time=0
EXTRACT: note_on channel=3 note=63 velocity=95 time=0
EXTRACT: note_on channel=3 note=60 velocity=95 time=0
EXTRACT: note_on channel=3 note=48 velocity=95 time=0
EXTRACT: note_off channel=9 note=42 velocity=80 time=0
EXTRACT: note_on channel=9 note=42 velocity=95 time=0
EXTRACT: note_on channel=9 note=40 velocity=95 time=0
EXTRACT: note_on channel=12 note=41 velocity=75 time=0
EXTRACT: note_on channel=12 note=41 velocity=0 time=0.2867645625
EXTRACT: note_off channel=0 note=63 velocity=80 time=0.007352937499999999
EXTRACT: note_on channel=0 note=63 velocity=95 time=0
EXTRACT: note_off channel=1 note=63 velocity=80 time=0
EXTRACT: note_off channel=1 note=60 velocity=80 time=0
EXTRACT: note_off channel=1 note=48 velocity=80 time=0
EXTRACT: note_on channel=1 note=63 velocity=95 time=0
EXTRACT: note_on channel=1 note=60 velocity=95 time=0
EXTRACT: note_on channel=1 note=48 velocity=95 time=0
EXTRACT: note_off channel=2 note=62 velocity=80 time=0
EXTRACT: note_on channel=2 note=62 velocity=95 time=0
EXTRACT: note_off channel=3 note=63 velocity=80 time=0
EXTRACT: note_off channel=3 note=60 velocity=80 time=0
EXTRACT: note_off channel=3 note=48 velocity=80 time=0
EXTRACT: note_on channel=3 note=63 velocity=95 time=0
EXTRACT: note_on channel=3 note=60 velocity=95 time=0
EXTRACT: note_on channel=3 note=48 velocity=95 time=0
EXTRACT: note_off channel=9 note=42 velocity=80 time=0
EXTRACT: note_off channel=9 note=40 velocity=80 time=0
EXTRACT: note_on channel=9 note=42 velocity=95 time=0
EXTRACT: note_on channel=9 note=36 velocity=95 time=0
EXTRACT: note_on channel=12 note=43 velocity=75 time=0
EXTRACT: pitchwheel channel=0 pitch=-640 time=0.14705875
EXTRACT: pitchwheel channel=0 pitch=-1408 time=0.073529375
EXTRACT: note_on channel=12 note=43 velocity=0 time=0.06617643749999999
EXTRACT: note_off channel=0 note=63 velocity=80 time=0.007352937499999999
EXTRACT: pitchwheel channel=0 pitch=0 time=0
EXTRACT: note_on channel=0 note=60 velocity=86 time=0
EXTRACT: note_off channel=1 note=63 velocity=80 time=0
EXTRACT: note_off channel=1 note=60 velocity=80 time=0
EXTRACT: note_off channel=1 note=48 velocity=80 time=0
EXTRACT: note_on channel=1 note=63 velocity=95 time=0
EXTRACT: note_on channel=1 note=60 velocity=95 time=0
EXTRACT: note_on channel=1 note=48 velocity=95 time=0
EXTRACT: note_off channel=2 note=62 velocity=80 time=0
EXTRACT: note_on channel=2 note=63 velocity=95 time=0
EXTRACT: note_off channel=3 note=63 velocity=80 time=0
EXTRACT: note_off channel=3 note=60 velocity=80 time=0
EXTRACT: note_off channel=3 note=48 velocity=80 time=0
EXTRACT: note_on channel=3 note=63 velocity=95 time=0
EXTRACT: note_on channel=3 note=60 velocity=95 time=0
EXTRACT: note_on channel=3 note=48 velocity=95 time=0
EXTRACT: note_off channel=9 note=42 velocity=80 time=0
EXTRACT: note_off channel=9 note=36 velocity=80 time=0
EXTRACT: note_on channel=9 note=42 velocity=95 time=0
EXTRACT: note_on channel=9 note=36 velocity=95 time=0
EXTRACT: note_on channel=12 note=48 velocity=75 time=0
EXTRACT: note_on channel=12 note=48 velocity=0 time=0.2867645625
EXTRACT: note_off channel=0 note=60 velocity=80 time=0.007352937499999999
EXTRACT: note_on channel=0 note=63 velocity=95 time=0
EXTRACT: note_off channel=1 note=63 velocity=80 time=0
EXTRACT: note_off channel=1 note=60 velocity=80 time=0
EXTRACT: note_off channel=1 note=48 velocity=80 time=0
EXTRACT: note_on channel=1 note=63 velocity=95 time=0
EXTRACT: note_on channel=1 note=60 velocity=95 time=0
EXTRACT: note_on channel=1 note=48 velocity=95 time=0
EXTRACT: note_off channel=2 note=65 velocity=80 time=0
EXTRACT: note_on channel=2 note=65 velocity=95 time=0
EXTRACT: note_off channel=3 note=63 velocity=80 time=0
EXTRACT: note_off channel=3 note=60 velocity=80 time=0
EXTRACT: note_off channel=3 note=48 velocity=80 time=0
EXTRACT: note_on channel=3 note=63 velocity=95 time=0
EXTRACT: note_on channel=3 note=60 velocity=95 time=0
EXTRACT: note_on channel=3 note=48 velocity=95 time=0
EXTRACT: note_off channel=9 note=42 velocity=80 time=0
EXTRACT: note_off channel=9 note=36 velocity=80 time=0
EXTRACT: note_on channel=9 note=42 velocity=95 time=0
EXTRACT: note_on channel=9 note=36 velocity=95 time=0
EXTRACT: note_on channel=12 note=48 velocity=75 time=0
EXTRACT: note_off channel=1 note=55 velocity=80 time=0.14705875
EXTRACT: note_on channel=1 note=53 velocity=95 time=0
EXTRACT: pitchwheel channel=1 pitch=2048 time=0
EXTRACT: note_off channel=3 note=55 velocity=80 time=0
EXTRACT: note_on channel=3 note=53 velocity=95 time=0
EXTRACT: pitchwheel channel=3 pitch=2048 time=0
EXTRACT: pitchwheel channel=1 pitch=1408 time=0.049019583333333325
EXTRACT: pitchwheel channel=3 pitch=1408 time=0
EXTRACT: pitchwheel channel=1 pitch=640 time=0.049019583333333325
EXTRACT: pitchwheel channel=3 pitch=640 time=0
EXTRACT: note_on channel=12 note=48 velocity=0 time=0.04166664583333333
EXTRACT: note_off channel=0 note=63 velocity=80 time=0.007352937499999999
EXTRACT: note_on channel=0 note=65 velocity=95 time=0
EXTRACT: note_off channel=1 note=63 velocity=80 time=0
EXTRACT: note_off channel=1 note=60 velocity=80 time=0
EXTRACT: note_off channel=1 note=48 velocity=80 time=0
EXTRACT: pitchwheel channel=1 pitch=0 time=0
EXTRACT: note_off channel=2 note=63 velocity=80 time=0
EXTRACT: note_on channel=2 note=63 velocity=95 time=0
EXTRACT: note_off channel=3 note=63 velocity=80 time=0
EXTRACT: note_off channel=3 note=60 velocity=80 time=0
EXTRACT: note_off channel=3 note=48 velocity=80 time=0
EXTRACT: pitchwheel channel=3 pitch=0 time=0
EXTRACT: note_off channel=9 note=42 velocity=80 time=0
EXTRACT: note_off channel=9 note=36 velocity=80 time=0
EXTRACT: note_on channel=9 note=42 velocity=95 time=0
EXTRACT: note_on channel=9 note=40 velocity=95 time=0
EXTRACT: note_off channel=0 note=65 velocity=80 time=0.2941175
EXTRACT: note_on channel=0 note=65 velocity=95 time=0
EXTRACT: note_on channel=1 note=46 velocity=95 time=0
EXTRACT: note_off channel=2 note=65 velocity=80 time=0
EXTRACT: note_on channel=2 note=65 velocity=95 time=0
EXTRACT: note_on channel=3 note=46 velocity=95 time=0
EXTRACT: note_off channel=9 note=42 velocity=80 time=0
EXTRACT: note_off channel=9 note=40 velocity=80 time=0
EXTRACT: note_on channel=9 note=42 velocity=95 time=0
EXTRACT: note_on channel=9 note=36 velocity=95 time=0
EXTRACT: note_on channel=12 note=46 velocity=75 time=0
EXTRACT: note_off channel=0 note=65 velocity=80 time=0.2941175
EXTRACT: note_on channel=0 note=67 velocity=95 time=0
EXTRACT: note_off channel=1 note=53 velocity=80 time=0
EXTRACT: note_on channel=1 note=53 velocity=95 time=0
EXTRACT: note_off channel=2 note=63 velocity=80 time=0
EXTRACT: note_on channel=2 note=63 velocity=95 time=0
EXTRACT: note_off channel=3 note=53 velocity=80 time=0
EXTRACT: note_on channel=3 note=53 velocity=95 time=0
EXTRACT: note_off channel=9 note=42 velocity=80 time=0
EXTRACT: note_off channel=9 note=36 velocity=80 time=0
EXTRACT: note_on channel=9 note=42 velocity=95 time=0
EXTRACT: note_on channel=12 note=46 velocity=0 time=0.2867645625
EXTRACT: note_off channel=0 note=67 velocity=80 time=0.007352937499999999
EXTRACT: note_on channel=0 note=65 velocity=95 time=0
EXTRACT: note_off channel=1 note=67 velocity=80 time=0
EXTRACT: note_on channel=1 note=62 velocity=95 time=0
EXTRACT: note_on channel=1 note=56 velocity=95 time=0
EXTRACT: note_off channel=2 note=65 velocity=80 time=0
EXTRACT: note_on channel=2 note=65 velocity=95 time=0
EXTRACT: note_off channel=3 note=67 velocity=80 time=0
EXTRACT: note_on channel=3 note=62 velocity=95 time=0
EXTRACT: note_on channel=3 note=56 velocity=95 time=0
EXTRACT: note_off channel=9 note=42 velocity=80 time=0
EXTRACT: note_on channel=9 note=42 velocity=95 time=0
EXTRACT: note_on channel=9 note=36 velocity=95 time=0
EXTRACT: note_on channel=12 note=41 velocity=75 time=0
EXTRACT: note_off channel=0 note=65 velocity=80 time=0.2941175
EXTRACT: note_off channel=1 note=46 velocity=80 time=0
EXTRACT: note_off channel=1 note=53 velocity=80 time=0
EXTRACT: note_off channel=1 note=62 velocity=80 time=0
EXTRACT: note_off channel=1 note=56 velocity=80 time=0
EXTRACT: note_off channel=2 note=63 velocity=80 time=0
EXTRACT: note_on channel=2 note=63 velocity=95 time=0
EXTRACT: note_off channel=3 note=46 velocity=80 time=0
EXTRACT: note_off channel=3 note=53 velocity=80 time=0
EXTRACT: note_off channel=3 note=62 velocity=80 time=0
EXTRACT: note_off channel=3 note=56 velocity=80 time=0
EXTRACT: note_off channel=9 note=42 velocity=80 time=0
EXTRACT: note_off channel=9 note=36 velocity=80 time=0
EXTRACT: note_on channel=9 note=42 velocity=95 time=0
EXTRACT: note_on channel=9 note=40 velocity=95 time=0
EXTRACT: note_on channel=12 note=41 velocity=0 time=0.1960783333333333
EXTRACT: note_on channel=1 note=62 velocity=95 time=0.09803916666666665
EXTRACT: note_on channel=1 note=56 velocity=95 time=0
EXTRACT: note_on channel=1 note=46 velocity=95 time=0
EXTRACT: note_off channel=2 note=63 velocity=80 time=0
EXTRACT: note_on channel=2 note=62 velocity=95 time=0
EXTRACT: note_on channel=3 note=62 velocity=95 time=0
EXTRACT: note_on channel=3 note=56 velocity=95 time=0
EXTRACT: note_on channel=3 note=46 velocity=95 time=0
EXTRACT: note_off channel=9 note=42 velocity=80 time=0
EXTRACT: note_off channel=9 note=40 velocity=80 time=0
EXTRACT: note_on channel=9 note=42 velocity=95 time=0
EXTRACT: note_on channel=9 note=36 velocity=95 time=0
EXTRACT: note_on channel=12 note=34 velocity=75 time=0
EXTRACT: note_off channel=2 note=62 velocity=80 time=0.2941175
EXTRACT: note_on channel=2 note=62 velocity=95 time=0
EXTRACT: note_off channel=9 note=42 velocity=80 time=0
EXTRACT: note_off channel=9 note=36 velocity=80 time=0
EXTRACT: note_on channel=9 note=42 velocity=95 time=0
EXTRACT: note_on channel=0 note=63 velocity=95 time=0.22058812499999997
EXTRACT: note_on channel=12 note=34 velocity=0 time=0.06617643749999999
EXTRACT: note_off channel=0 note=63 velocity=80 time=0.004901958333333333
EXTRACT: note_on channel=0 note=62 velocity=95 time=0.0024509791666666664
EXTRACT: note_off channel=1 note=56 velocity=80 time=0
EXTRACT: note_on channel=1 note=56 velocity=95 time=0
EXTRACT: note_off channel=2 note=65 velocity=80 time=0
EXTRACT: note_on channel=2 note=65 velocity=95 time=0
EXTRACT: note_off channel=3 note=56 velocity=80 time=0
EXTRACT: note_on channel=3 note=56 velocity=95 time=0
EXTRACT: note_off channel=9 note=42 velocity=80 time=0
EXTRACT: note_on channel=9 note=42 velocity=95 time=0
EXTRACT: note_on channel=9 note=36 velocity=95 time=0
EXTRACT: note_on channel=12 note=34 velocity=75 time=0
EXTRACT: note_on channel=1 note=53 velocity=95 time=0.2941175
EXTRACT: note_off channel=2 note=62 velocity=80 time=0
EXTRACT: note_on channel=2 note=62 velocity=95 time=0
EXTRACT: note_on channel=3 note=53 velocity=95 time=0
EXTRACT: note_off channel=9 note=42 velocity=80 time=0
EXTRACT: note_off channel=9 note=36 velocity=80 time=0
EXTRACT: note_on channel=9 note=42 velocity=95 time=0
EXTRACT: note_on channel=9 note=40 velocity=95 time=0
EXTRACT: note_on channel=12 note=34 velocity=0 time=0.1960783333333333
EXTRACT: note_off channel=1 note=62 velocity=80 time=0.09803916666666665
EXTRACT: note_on channel=1 note=62 velocity=95 time=0
EXTRACT: note_off channel=2 note=65 velocity=80 time=0
EXTRACT: note_on channel=2 note=65 velocity=95 time=0
EXTRACT: note_off channel=3 note=62 velocity=80 time=0
EXTRACT: note_on channel=3 note=62 velocity=95 time=0
EXTRACT: note_off channel=9 note=42 velocity=80 time=0
EXTRACT: note_off channel=9 note=40 velocity=80 time=0
EXTRACT: note_on channel=9 note=42 velocity=95 time=0
EXTRACT: note_on channel=9 note=36 velocity=95 time=0
EXTRACT: note_on channel=12 note=34 velocity=75 time=0
EXTRACT: note_on channel=12 note=34 velocity=0 time=0.2867645625
EXTRACT: note_off channel=0 note=62 velocity=80 time=0.007352937499999999
EXTRACT: note_off channel=1 note=46 velocity=80 time=0
EXTRACT: note_on channel=1 note=48 velocity=95 time=0
EXTRACT: note_off channel=3 note=46 velocity=80 time=0
EXTRACT: note_on channel=3 note=48 velocity=95 time=0
EXTRACT: note_off channel=9 note=42 velocity=80 time=0
EXTRACT: note_off channel=9 note=36 velocity=80 time=0
EXTRACT: note_on channel=9 note=42 velocity=95 time=0
EXTRACT: note_on channel=9 note=36 velocity=95 time=0
EXTRACT: note_on channel=12 note=36 velocity=75 time=0
EXTRACT: note_on channel=0 note=63 velocity=95 time=0.2941175
EXTRACT: note_off channel=2 note=65 velocity=80 time=0
EXTRACT: note_on channel=2 note=67 velocity=95 time=0
EXTRACT: note_off channel=9 note=42 velocity=80 time=0
EXTRACT: note_off channel=9 note=36 velocity=80 time=0
EXTRACT: note_on channel=9 note=42 velocity=95 time=0
EXTRACT: note_on channel=12 note=36 velocity=0 time=0.1960783333333333
EXTRACT: note_off channel=0 note=63 velocity=80 time=0.09803916666666665
EXTRACT: note_on channel=0 note=63 velocity=95 time=0
EXTRACT: note_off channel=1 note=56 velocity=80 time=0
EXTRACT: note_off channel=1 note=62 velocity=80 time=0
EXTRACT: note_off channel=1 note=48 velocity=80 time=0
EXTRACT: note_on channel=1 note=63 velocity=95 time=0
EXTRACT: note_on channel=1 note=60 velocity=95 time=0
EXTRACT: note_on channel=1 note=48 velocity=95 time=0
EXTRACT: note_off channel=2 note=67 velocity=80 time=0
EXTRACT: note_on channel=2 note=65 velocity=95 time=0
EXTRACT: note_off channel=3 note=56 velocity=80 time=0
EXTRACT: note_off channel=3 note=62 velocity=80 time=0
EXTRACT: note_off channel=3 note=48 velocity=80 time=0
EXTRACT: note_on channel=3 note=63 velocity=95 time=0
EXTRACT: note_on channel=3 note=60 velocity=95 time=0
EXTRACT: note_on channel=3 note=48 velocity=95 time=0
EXTRACT: note_off channel=9 note=42 velocity=80 time=0
EXTRACT: note_on channel=9 note=42 velocity=95 time=0
EXTRACT: note_on channel=9 note=40 velocity=95 time=0
EXTRACT: note_on channel=12 note=41 velocity=75 time=0
EXTRACT: note_on channel=12 note=41 velocity=0 time=0.2867645625
EXTRACT: note_off channel=0 note=63 velocity=80 time=0.007352937499999999
EXTRACT: note_on channel=0 note=62 velocity=95 time=0
EXTRACT: note_off channel=1 note=63 velocity=80 time=0
EXTRACT: note_off channel=1 note=60 velocity=80 time=0
EXTRACT: note_off channel=1 note=48 velocity=80 time=0
EXTRACT: note_on channel=1 note=63 velocity=95 time=0
EXTRACT: note_on channel=1 note=60 velocity=95 time=0
EXTRACT: note_on channel=1 note=48 velocity=95 time=0
EXTRACT: note_off channel=2 note=62 velocity=80 time=0
EXTRACT: note_on channel=2 note=62 velocity=95 time=0
EXTRACT: note_off channel=3 note=63 velocity=80 time=0
EXTRACT: note_off channel=3 note=60 velocity=80 time=0
EXTRACT: note_off channel=3 note=48 velocity=80 time=0
EXTRACT: note_on channel=3 note=63 velocity=95 time=0
EXTRACT: note_on channel=3 note=60 velocity=95 time=0
EXTRACT: note_on channel=3 note=48 velocity=95 time=0
EXTRACT: note_off channel=9 note=42 velocity=80 time=0
EXTRACT: note_off channel=9 note=40 velocity=80 time=0
EXTRACT: note_on channel=9 note=42 velocity=95 time=0
EXTRACT: note_on channel=9 note=36 velocity=95 time=0
EXTRACT: note_on channel=12 note=43 velocity=75 time=0
EXTRACT: note_on channel=12 note=43 velocity=0 time=0.2867645625
EXTRACT: note_off channel=0 note=62 velocity=80 time=0.007352937499999999
EXTRACT: note_on channel=0 note=63 velocity=95 time=0
EXTRACT: note_off channel=1 note=63 velocity=80 time=0
EXTRACT: note_off channel=1 note=60 velocity=80 time=0
EXTRACT: note_off channel=1 note=48 velocity=80 time=0
EXTRACT: note_on channel=1 note=63 velocity=95 time=0
EXTRACT: note_on channel=1 note=58 velocity=95 time=0
EXTRACT: note_on channel=1 note=48 velocity=95 time=0
EXTRACT: note_off channel=2 note=62 velocity=80 time=0
EXTRACT: note_on channel=2 note=63 velocity=95 time=0
EXTRACT: note_off channel=3 note=63 velocity=80 time=0
EXTRACT: note_off channel=3 note=60 velocity=80 time=0
EXTRACT: note_off channel=3 note=48 velocity=80 time=0
EXTRACT: note_on channel=3 note=63 velocity=95 time=0
EXTRACT: note_on channel=3 note=58 velocity=95 time=0
EXTRACT: note_on channel=3 note=48 velocity=95 time=0
EXTRACT: note_off channel=9 note=42 velocity=80 time=0
EXTRACT: note_off channel=9 note=36 velocity=80 time=0
EXTRACT: note_on channel=9 note=42 velocity=95 time=0
EXTRACT: note_on channel=9 note=36 velocity=95 time=0
EXTRACT: note_on channel=12 note=48 velocity=75 time=0
EXTRACT: note_on channel=12 note=48 velocity=0 time=0.2867645625
EXTRACT: note_off channel=0 note=63 velocity=80 time=0.007352937499999999
EXTRACT: note_on channel=0 note=63 velocity=95 time=0
EXTRACT: note_off channel=1 note=63 velocity=80 time=0
EXTRACT: note_off channel=1 note=58 velocity=80 time=0
EXTRACT: note_off channel=1 note=48 velocity=80 time=0
EXTRACT: note_on channel=1 note=63 velocity=95 time=0
EXTRACT: note_on channel=1 note=58 velocity=95 time=0
EXTRACT: note_on channel=1 note=48 velocity=95 time=0
EXTRACT: note_off channel=2 note=65 velocity=80 time=0
EXTRACT: note_on channel=2 note=65 velocity=95 time=0
EXTRACT: note_off channel=3 note=63 velocity=80 time=0
EXTRACT: note_off channel=3 note=58 velocity=80 time=0
EXTRACT: note_off channel=3 note=48 velocity=80 time=0
EXTRACT: note_on channel=3 note=63 velocity=95 time=0
EXTRACT: note_on channel=3 note=58 velocity=95 time=0
EXTRACT: note_on channel=3 note=48 velocity=95 time=0
EXTRACT: note_off channel=9 note=42 velocity=80 time=0
EXTRACT: note_off channel=9 note=36 velocity=80 time=0
EXTRACT: note_on channel=9 note=42 velocity=95 time=0
EXTRACT: note_on channel=9 note=36 velocity=95 time=0
EXTRACT: note_on channel=12 note=48 velocity=75 time=0
EXTRACT: note_off channel=1 note=53 velocity=80 time=0.14705875
EXTRACT: note_on channel=1 note=53 velocity=95 time=0
EXTRACT: pitchwheel channel=1 pitch=2048 time=0
EXTRACT: note_off channel=3 note=53 velocity=80 time=0
EXTRACT: note_on channel=3 note=53 velocity=95 time=0
EXTRACT: pitchwheel channel=3 pitch=2048 time=0
EXTRACT: pitchwheel channel=1 pitch=1408 time=0.049019583333333325
EXTRACT: pitchwheel channel=3 pitch=1408 time=0
EXTRACT: pitchwheel channel=1 pitch=640 time=0.049019583333333325
EXTRACT: pitchwheel channel=3 pitch=640 time=0
EXTRACT: note_on channel=12 note=48 velocity=0 time=0.04166664583333333
EXTRACT: note_off channel=0 note=63 velocity=80 time=0.007352937499999999
EXTRACT: note_on channel=0 note=63 velocity=95 time=0
EXTRACT: note_off channel=1 note=63 velocity=80 time=0
EXTRACT: note_off channel=1 note=58 velocity=80 time=0
EXTRACT: note_off channel=1 note=48 velocity=80 time=0
EXTRACT: pitchwheel channel=1 pitch=0 time=0
EXTRACT: note_off channel=2 note=63 velocity=80 time=0
EXTRACT: note_on channel=2 note=63 velocity=95 time=0
EXTRACT: note_off channel=3 note=63 velocity=80 time=0
EXTRACT: note_off channel=3 note=58 velocity=80 time=0
EXTRACT: note_off channel=3 note=48 velocity=80 time=0
EXTRACT: pitchwheel channel=3 pitch=0 time=0
EXTRACT: note_off channel=9 note=42 velocity=80 time=0
EXTRACT: note_off channel=9 note=36 velocity=80 time=0
EXTRACT: note_on channel=9 note=42 velocity=95 time=0
EXTRACT: note_on channel=9 note=40 velocity=95 time=0
EXTRACT: note_off channel=0 note=63 velocity=80 time=0.2941175
EXTRACT: note_on channel=0 note=66 velocity=95 time=0
EXTRACT: note_on channel=1 note=46 velocity=95 time=0
EXTRACT: note_off channel=2 note=65 velocity=80 time=0
EXTRACT: note_on channel=2 note=65 velocity=95 time=0
EXTRACT: note_on channel=3 note=46 velocity=95 time=0
EXTRACT: note_off channel=9 note=42 velocity=80 time=0
EXTRACT: note_off channel=9 note=40 velocity=80 time=0
EXTRACT: note_on channel=9 note=42 velocity=95 time=0
EXTRACT: note_on channel=9 note=36 velocity=95 time=0
EXTRACT: note_on channel=12 note=46 velocity=75 time=0
EXTRACT: note_off channel=0 note=66 velocity=80 time=0.2941175
EXTRACT: note_on channel=0 note=65 velocity=95 time=0
EXTRACT: note_off channel=1 note=53 velocity=80 time=0
EXTRACT: note_on channel=1 note=53 velocity=95 time=0
EXTRACT: note_off channel=2 note=63 velocity=80 time=0
EXTRACT: note_on channel=2 note=63 velocity=95 time=0
EXTRACT: note_off channel=3 note=53 velocity=80 time=0
EXTRACT: note_on channel=3 note=53 velocity=95 time=0
EXTRACT: note_off channel=9 note=42 velocity=80 time=0
EXTRACT: note_off channel=9 note=36 velocity=80 time=0
EXTRACT: note_on channel=9 note=42 velocity=95 time=0
EXTRACT: note_on channel=12 note=46 velocity=0 time=0.2867645625
EXTRACT: note_off channel=0 note=65 velocity=80 time=0.007352937499999999
EXTRACT: note_on channel=0 note=63 velocity=95 time=0
EXTRACT: note_on channel=1 note=62 velocity=95 time=0
EXTRACT: note_on channel=1 note=56 velocity=95 time=0
EXTRACT: note_off channel=2 note=65 velocity=80 time=0
EXTRACT: note_on channel=2 note=65 velocity=95 time=0
EXTRACT: note_on channel=3 note=62 velocity=95 time=0
EXTRACT: note_on channel=3 note=56 velocity=95 time=0
EXTRACT: note_off channel=9 note=42 velocity=80 time=0
EXTRACT: note_on channel=9 note=42 velocity=95 time=0
EXTRACT: note_on channel=9 note=36 velocity=95 time=0
EXTRACT: note_on channel=12 note=41 velocity=75 time=0
EXTRACT: note_off channel=0 note=63 velocity=80 time=0.2941175
EXTRACT: note_on channel=0 note=63 velocity=95 time=0
EXTRACT: note_off channel=1 note=46 velocity=80 time=0
EXTRACT: note_off channel=1 note=53 velocity=80 time=0
EXTRACT: note_off channel=1 note=62 velocity=80 time=0
EXTRACT: note_off channel=1 note=56 velocity=80 time=0
EXTRACT: note_off channel=2 note=63 velocity=80 time=0
EXTRACT: note_on channel=2 note=63 velocity=95 time=0
EXTRACT: note_off channel=3 note=46 velocity=80 time=0
EXTRACT: note_off channel=3 note=53 velocity=80 time=0
EXTRACT: note_off channel=3 note=62 velocity=80 time=0
EXTRACT: note_off channel=3 note=56 velocity=80 time=0
EXTRACT: note_off channel=9 note=42 velocity=80 time=0
EXTRACT: note_off channel=9 note=36 velocity=80 time=0
EXTRACT: note_on channel=9 note=42 velocity=95 time=0
EXTRACT: note_on channel=9 note=40 velocity=95 time=0
EXTRACT: note_on channel=12 note=41 velocity=0 time=0.1960783333333333
EXTRACT: note_off channel=0 note=63 velocity=80 time=0.09803916666666665
EXTRACT: note_on channel=0 note=66 velocity=95 time=0
EXTRACT: note_on channel=1 note=62 velocity=95 time=0
EXTRACT: note_on channel=1 note=56 velocity=95 time=0
EXTRACT: note_on channel=1 note=46 velocity=95 time=0
EXTRACT: note_off channel=2 note=63 velocity=80 time=0
EXTRACT: note_on channel=2 note=62 velocity=95 time=0
EXTRACT: note_on channel=3 note=62 velocity=95 time=0
EXTRACT: note_on channel=3 note=56 velocity=95 time=0
EXTRACT: note_on channel=3 note=46 velocity=95 time=0
EXTRACT: note_off channel=9 note=42 velocity=80 time=0
EXTRACT: note_off channel=9 note=40 velocity=80 time=0
EXTRACT: note_on channel=9 note=42 velocity=95 time=0
EXTRACT: note_on channel=9 note=36 velocity=95 time=0
EXTRACT: note_on channel=12 note=34 velocity=75 time=0
EXTRACT: note_off channel=0 note=66 velocity=80 time=0.2941175
EXTRACT: note_on channel=0 note=65 velocity=95 time=0
EXTRACT: note_off channel=2 note=62 velocity=80 time=0
EXTRACT: note_on channel=2 note=62 velocity=95 time=0
EXTRACT: note_off channel=9 note=42 velocity=80 time=0
EXTRACT: note_off channel=9 note=36 velocity=80 time=0
EXTRACT: note_on channel=9 note=42 velocity=95 time=0
EXTRACT: note_on channel=12 note=34 velocity=0 time=0.2867645625
EXTRACT: note_off channel=0 note=65 velocity=80 time=0.007352937499999999
EXTRACT: note_on channel=0 note=63 velocity=95 time=0
EXTRACT: note_off channel=1 note=62 velocity=80 time=0
EXTRACT: note_off channel=1 note=56 velocity=80 time=0
EXTRACT: note_on channel=1 note=56 velocity=95 time=0
EXTRACT: note_off channel=2 note=65 velocity=80 time=0
EXTRACT: note_on channel=2 note=65 velocity=95 time=0
EXTRACT: note_off channel=3 note=62 velocity=80 time=0
EXTRACT: note_off channel=3 note=56 velocity=80 time=0
EXTRACT: note_on channel=3 note=56 velocity=95 time=0
EXTRACT: note_off channel=9 note=42 velocity=80 time=0
EXTRACT: note_on channel=9 note=42 velocity=95 time=0
EXTRACT: note_on channel=9 note=36 velocity=95 time=0
EXTRACT: note_on channel=12 note=34 velocity=75 time=0
EXTRACT: note_off channel=0 note=63 velocity=80 time=0.2941175
EXTRACT: note_on channel=0 note=63 velocity=95 time=0
EXTRACT: note_on channel=1 note=53 velocity=95 time=0
EXTRACT: note_off channel=2 note=62 velocity=80 time=0
EXTRACT: note_on channel=2 note=62 velocity=95 time=0
EXTRACT: note_on channel=3 note=53 velocity=95 time=0
EXTRACT: note_off channel=9 note=42 velocity=80 time=0
EXTRACT: note_off channel=9 note=36 velocity=80 time=0
EXTRACT: note_on channel=9 note=42 velocity=95 time=0
EXTRACT: note_on channel=9 note=40 velocity=95 time=0
EXTRACT: note_on channel=12 note=34 velocity=0 time=0.1960783333333333
EXTRACT: note_off channel=0 note=63 velocity=80 time=0.09803916666666665
EXTRACT: note_on channel=0 note=66 velocity=95 time=0
EXTRACT: note_on channel=1 note=62 velocity=95 time=0
EXTRACT: note_off channel=2 note=65 velocity=80 time=0
EXTRACT: note_on channel=2 note=65 velocity=95 time=0
EXTRACT: note_on channel=3 note=62 velocity=95 time=0
EXTRACT: note_off channel=9 note=42 velocity=80 time=0
EXTRACT: note_off channel=9 note=40 velocity=80 time=0
EXTRACT: note_on channel=9 note=42 velocity=95 time=0
EXTRACT: note_on channel=9 note=36 velocity=95 time=0
EXTRACT: note_on channel=12 note=34 velocity=75 time=0
EXTRACT: note_off channel=1 note=46 velocity=80 time=0.14705875
EXTRACT: note_off channel=1 note=53 velocity=80 time=0
EXTRACT: note_on channel=1 note=55 velocity=95 time=0
EXTRACT: pitchwheel channel=1 pitch=-2048 time=0
EXTRACT: note_on channel=1 note=48 velocity=95 time=0
EXTRACT: pitchwheel channel=1 pitch=-2048 time=0
EXTRACT: note_off channel=3 note=46 velocity=80 time=0
EXTRACT: note_off channel=3 note=53 velocity=80 time=0
EXTRACT: note_on channel=3 note=55 velocity=95 time=0
EXTRACT: pitchwheel channel=3 pitch=-2048 time=0
EXTRACT: note_on channel=3 note=48 velocity=95 time=0
EXTRACT: pitchwheel channel=3 pitch=-2048 time=0
EXTRACT: pitchwheel channel=1 pitch=-1408 time=0.049019583333333325
EXTRACT: pitchwheel channel=1 pitch=-1408 time=0
EXTRACT: pitchwheel channel=3 pitch=-1408 time=0
EXTRACT: pitchwheel channel=3 pitch=-1408 time=0
EXTRACT: pitchwheel channel=1 pitch=-640 time=0.049019583333333325
EXTRACT: pitchwheel channel=1 pitch=-640 time=0
EXTRACT: pitchwheel channel=3 pitch=-640 time=0
EXTRACT: pitchwheel channel=3 pitch=-640 time=0
EXTRACT: note_on channel=12 note=34 velocity=0 time=0.04166664583333333
EXTRACT: note_off channel=0 note=66 velocity=80 time=0.007352937499999999
EXTRACT: note_on channel=0 note=65 velocity=95 time=0
EXTRACT: pitchwheel channel=1 pitch=0 time=0
EXTRACT: pitchwheel channel=1 pitch=0 time=0
EXTRACT: note_off channel=2 note=65 velocity=80 time=0
EXTRACT: note_on channel=2 note=65 velocity=95 time=0
EXTRACT: pitchwheel channel=3 pitch=0 time=0
EXTRACT: pitchwheel channel=3 pitch=0 time=0
EXTRACT: note_off channel=9 note=42 velocity=80 time=0
EXTRACT: note_off channel=9 note=36 velocity=80 time=0
EXTRACT: note_on channel=9 note=42 velocity=95 time=0
EXTRACT: note_on channel=9 note=36 velocity=95 time=0
EXTRACT: note_on channel=12 note=36 velocity=75 time=0
EXTRACT: note_off channel=0 note=65 velocity=80 time=0.2941175
EXTRACT: note_on channel=0 note=63 velocity=95 time=0
EXTRACT: note_on channel=1 note=67 velocity=95 time=0
EXTRACT: note_off channel=2 note=65 velocity=80 time=0
EXTRACT: note_on channel=2 note=67 velocity=95 time=0
EXTRACT: note_on channel=3 note=67 velocity=95 time=0
EXTRACT: note_off channel=9 note=42 velocity=80 time=0
EXTRACT: note_off channel=9 note=36 velocity=80 time=0
EXTRACT: note_on channel=9 note=42 velocity=95 time=0
EXTRACT: note_on channel=12 note=36 velocity=0 time=0.1960783333333333
EXTRACT: note_off channel=0 note=63 velocity=80 time=0.09803916666666665
EXTRACT: note_on channel=0 note=63 velocity=95 time=0
EXTRACT: note_off channel=1 note=56 velocity=80 time=0
EXTRACT: note_off channel=1 note=62 velocity=80 time=0
EXTRACT: note_off channel=1 note=48 velocity=80 time=0
EXTRACT: note_on channel=1 note=63 velocity=95 time=0
EXTRACT: note_on channel=1 note=60 velocity=95 time=0
EXTRACT: note_on channel=1 note=48 velocity=95 time=0
EXTRACT: note_off channel=2 note=67 velocity=80 time=0
EXTRACT: note_on channel=2 note=65 velocity=95 time=0
EXTRACT: note_off channel=3 note=56 velocity=80 time=0
EXTRACT: note_off channel=3 note=62 velocity=80 time=0
EXTRACT: note_off channel=3 note=48 velocity=80 time=0
EXTRACT: note_on channel=3 note=63 velocity=95 time=0
EXTRACT: note_on channel=3 note=60 velocity=95 time=0
EXTRACT: note_on channel=3 note=48 velocity=95 time=0
EXTRACT: note_off channel=9 note=42 velocity=80 time=0
EXTRACT: note_on channel=9 note=42 velocity=95 time=0
EXTRACT: note_on channel=9 note=40 velocity=95 time=0
EXTRACT: note_on channel=12 note=41 velocity=75 time=0
EXTRACT: note_on channel=0 note=61 velocity=95 time=0.22058812499999997
EXTRACT: note_on channel=12 note=41 velocity=0 time=0.06617643749999999
EXTRACT: note_off channel=0 note=61 velocity=80 time=0.004901958333333333
EXTRACT: note_off channel=0 note=63 velocity=80 time=0.0024509791666666664
EXTRACT: note_on channel=0 note=63 velocity=95 time=0
EXTRACT: note_off channel=1 note=63 velocity=80 time=0
EXTRACT: note_off channel=1 note=60 velocity=80 time=0
EXTRACT: note_off channel=1 note=48 velocity=80 time=0
EXTRACT: note_on channel=1 note=63 velocity=95 time=0
EXTRACT: note_on channel=1 note=60 velocity=95 time=0
EXTRACT: note_on channel=1 note=48 velocity=95 time=0
EXTRACT: note_off channel=2 note=62 velocity=80 time=0
EXTRACT: note_on channel=2 note=62 velocity=95 time=0
EXTRACT: note_off channel=3 note=63 velocity=80 time=0
EXTRACT: note_off channel=3 note=60 velocity=80 time=0
EXTRACT: note_off channel=3 note=48 velocity=80 time=0
EXTRACT: note_on channel=3 note=63 velocity=95 time=0
EXTRACT: note_on channel=3 note=60 velocity=95 time=0
EXTRACT: note_on channel=3 note=48 velocity=95 time=0
EXTRACT: note_off channel=9 note=42 velocity=80 time=0
EXTRACT: note_off channel=9 note=40 velocity=80 time=0
EXTRACT: note_on channel=9 note=42 velocity=95 time=0
EXTRACT: note_on channel=9 note=36 velocity=95 time=0
EXTRACT: note_on channel=12 note=43 velocity=75 time=0
EXTRACT: note_on channel=12 note=43 velocity=0 time=0.2867645625
EXTRACT: note_off channel=0 note=63 velocity=80 time=0.007352937499999999
EXTRACT: note_off channel=1 note=63 velocity=80 time=0
EXTRACT: note_off channel=1 note=60 velocity=80 time=0
EXTRACT: note_off channel=1 note=48 velocity=80 time=0
EXTRACT: note_on channel=1 note=63 velocity=95 time=0
EXTRACT: note_on channel=1 note=60 velocity=95 time=0
EXTRACT: note_on channel=1 note=48 velocity=95 time=0
EXTRACT: note_off channel=2 note=62 velocity=80 time=0
EXTRACT: note_on channel=2 note=63 velocity=95 time=0
EXTRACT: note_off channel=3 note=63 velocity=80 time=0
EXTRACT: note_off channel=3 note=60 velocity=80 time=0
EXTRACT: note_off channel=3 note=48 velocity=80 time=0
EXTRACT: note_on channel=3 note=63 velocity=95 time=0
EXTRACT: note_on channel=3 note=60 velocity=95 time=0
EXTRACT: note_on channel=3 note=48 velocity=95 time=0
EXTRACT: note_off channel=9 note=42 velocity=80 time=0
EXTRACT: note_off channel=9 note=36 velocity=80 time=0
EXTRACT: note_on channel=9 note=42 velocity=95 time=0
EXTRACT: note_on channel=9 note=36 velocity=95 time=0
EXTRACT: note_on channel=12 note=48 velocity=75 time=0
EXTRACT: note_on channel=0 note=64 velocity=95 time=0.22058812499999997
EXTRACT: note_on channel=12 note=48 velocity=0 time=0.06617643749999999
EXTRACT: note_off channel=0 note=64 velocity=80 time=0.004901958333333333
EXTRACT: note_on channel=0 note=65 velocity=95 time=0.0024509791666666664
EXTRACT: note_off channel=1 note=63 velocity=80 time=0
EXTRACT: note_off channel=1 note=60 velocity=80 time=0
EXTRACT: note_off channel=1 note=48 velocity=80 time=0
EXTRACT: note_on channel=1 note=63 velocity=95 time=0
EXTRACT: note_on channel=1 note=60 velocity=95 time=0
EXTRACT: note_on channel=1 note=48 velocity=95 time=0
EXTRACT: note_off channel=2 note=65 velocity=80 time=0
EXTRACT: note_on channel=2 note=65 velocity=95 time=0
EXTRACT: note_off channel=3 note=63 velocity=80 time=0
EXTRACT: note_off channel=3 note=60 velocity=80 time=0
EXTRACT: note_off channel=3 note=48 velocity=80 time=0
EXTRACT: note_on channel=3 note=63 velocity=95 time=0
EXTRACT: note_on channel=3 note=60 velocity=95 time=0
EXTRACT: note_on channel=3 note=48 velocity=95 time=0
EXTRACT: note_off channel=9 note=42 velocity=80 time=0
EXTRACT: note_off channel=9 note=36 velocity=80 time=0
EXTRACT: note_on channel=9 note=42 velocity=95 time=0
EXTRACT: note_on channel=9 note=36 velocity=95 time=0
EXTRACT: note_on channel=12 note=48 velocity=75 time=0
EXTRACT: note_off channel=1 note=55 velocity=80 time=0.14705875
EXTRACT: note_on channel=1 note=53 velocity=95 time=0
EXTRACT: pitchwheel channel=1 pitch=2048 time=0
EXTRACT: note_off channel=3 note=55 velocity=80 time=0
EXTRACT: note_on channel=3 note=53 velocity=95 time=0
EXTRACT: pitchwheel channel=3 pitch=2048 time=0
EXTRACT: pitchwheel channel=1 pitch=1408 time=0.049019583333333325
EXTRACT: pitchwheel channel=3 pitch=1408 time=0
EXTRACT: pitchwheel channel=1 pitch=640 time=0.049019583333333325
EXTRACT: pitchwheel channel=3 pitch=640 time=0
EXTRACT: note_on channel=12 note=48 velocity=0 time=0.04166664583333333
EXTRACT: note_off channel=1 note=63 velocity=80 time=0.007352937499999999
EXTRACT: note_off channel=1 note=60 velocity=80 time=0
EXTRACT: note_off channel=1 note=48 velocity=80 time=0
EXTRACT: pitchwheel channel=1 pitch=0 time=0
EXTRACT: note_off channel=2 note=63 velocity=80 time=0
EXTRACT: note_on channel=2 note=63 velocity=95 time=0
EXTRACT: note_off channel=3 note=63 velocity=80 time=0
EXTRACT: note_off channel=3 note=60 velocity=80 time=0
EXTRACT: note_off channel=3 note=48 velocity=80 time=0
EXTRACT: pitchwheel channel=3 pitch=0 time=0
EXTRACT: note_off channel=9 note=42 velocity=80 time=0
EXTRACT: note_off channel=9 note=36 velocity=80 time=0
EXTRACT: note_on channel=9 note=42 velocity=95 time=0
EXTRACT: note_on channel=9 note=40 velocity=95 time=0
EXTRACT: note_off channel=0 note=65 velocity=80 time=0.2941175
EXTRACT: note_on channel=0 note=65 velocity=95 time=0
EXTRACT: note_on channel=1 note=46 velocity=95 time=0
EXTRACT: note_off channel=2 note=65 velocity=80 time=0
EXTRACT: note_on channel=2 note=65 velocity=95 time=0
EXTRACT: note_on channel=3 note=46 velocity=95 time=0
EXTRACT: note_off channel=9 note=42 velocity=80 time=0
EXTRACT: note_off channel=9 note=40 velocity=80 time=0
EXTRACT: note_on channel=9 note=42 velocity=95 time=0
EXTRACT: note_on channel=9 note=36 velocity=95 time=0
EXTRACT: note_on channel=12 note=46 velocity=75 time=0
EXTRACT: note_off channel=1 note=53 velocity=80 time=0.2941175
EXTRACT: note_on channel=1 note=53 velocity=95 time=0
EXTRACT: note_off channel=2 note=63 velocity=80 time=0
EXTRACT: note_on channel=2 note=63 velocity=95 time=0
EXTRACT: note_off channel=3 note=53 velocity=80 time=0
EXTRACT: note_on channel=3 note=53 velocity=95 time=0
EXTRACT: note_off channel=9 note=42 velocity=80 time=0
EXTRACT: note_off channel=9 note=36 velocity=80 time=0
EXTRACT: note_on channel=9 note=42 velocity=95 time=0
EXTRACT: note_on channel=12 note=46 velocity=0 time=0.2867645625
EXTRACT: note_off channel=0 note=65 velocity=80 time=0.007352937499999999
EXTRACT: note_on channel=0 note=67 velocity=95 time=0
EXTRACT: note_off channel=1 note=67 velocity=80 time=0
EXTRACT: note_on channel=1 note=62 velocity=95 time=0
EXTRACT: note_on channel=1 note=56 velocity=95 time=0
EXTRACT: note_off channel=2 note=65 velocity=80 time=0
EXTRACT: note_on channel=2 note=65 velocity=95 time=0
EXTRACT: note_off channel=3 note=67 velocity=80 time=0
EXTRACT: note_on channel=3 note=62 velocity=95 time=0
EXTRACT: note_on channel=3 note=56 velocity=95 time=0
EXTRACT: note_off channel=9 note=42 velocity=80 time=0
EXTRACT: note_on channel=9 note=42 velocity=95 time=0
EXTRACT: note_on channel=9 note=36 velocity=95 time=0
EXTRACT: note_on channel=12 note=41 velocity=75 time=0
EXTRACT: note_off channel=0 note=67 velocity=80 time=0.2941175
EXTRACT: note_on channel=0 note=65 velocity=95 time=0
EXTRACT: note_off channel=1 note=46 velocity=80 time=0
EXTRACT: note_off channel=1 note=53 velocity=80 time=0
EXTRACT: note_off channel=1 note=62 velocity=80 time=0
EXTRACT: note_off channel=1 note=56 velocity=80 time=0
EXTRACT: note_off channel=2 note=63 velocity=80 time=0
EXTRACT: note_on channel=2 note=63 velocity=95 time=0
EXTRACT: note_off channel=3 note=46 velocity=80 time=0
EXTRACT: note_off channel=3 note=53 velocity=80 time=0
EXTRACT: note_off channel=3 note=62 velocity=80 time=0
EXTRACT: note_off channel=3 note=56 velocity=80 time=0
EXTRACT: note_off channel=9 note=42 velocity=80 time=0
EXTRACT: note_off channel=9 note=36 velocity=80 time=0
EXTRACT: note_on channel=9 note=42 velocity=95 time=0
EXTRACT: note_on channel=9 note=40 velocity=95 time=0
EXTRACT: note_on channel=12 note=41 velocity=0 time=0.1960783333333333
EXTRACT: note_off channel=0 note=65 velocity=80 time=0.09803916666666665
EXTRACT: note_on channel=0 note=67 velocity=95 time=0
EXTRACT: note_on channel=1 note=62 velocity=95 time=0
EXTRACT: note_on channel=1 note=56 velocity=95 time=0
EXTRACT: note_on channel=1 note=46 velocity=95 time=0
EXTRACT: note_off channel=2 note=63 velocity=80 time=0
EXTRACT: note_on channel=2 note=62 velocity=95 time=0
EXTRACT: note_on channel=3 note=62 velocity=95 time=0
EXTRACT: note_on channel=3 note=56 velocity=95 time=0
EXTRACT: note_on channel=3 note=46 velocity=95 time=0
EXTRACT: note_off channel=9 note=42 velocity=80 time=0
EXTRACT: note_off channel=9 note=40 velocity=80 time=0
EXTRACT: note_on channel=9 note=42 velocity=95 time=0
EXTRACT: note_on channel=9 note=36 velocity=79 time=0
EXTRACT: note_on channel=9 note=38 velocity=63 time=0
EXTRACT: note_on channel=12 note=34 velocity=75 time=0
EXTRACT: note_off channel=9 note=42 velocity=80 time=0.2941175
EXTRACT: note_off channel=9 note=36 velocity=80 time=0
EXTRACT: note_off channel=9 note=38 velocity=80 time=0
EXTRACT: note_on channel=9 note=42 velocity=95 time=0
EXTRACT: note_on channel=9 note=36 velocity=79 time=0
EXTRACT: note_on channel=9 note=38 velocity=79 time=0
EXTRACT: note_on channel=12 note=34 velocity=0 time=0.2867645625
EXTRACT: note_off channel=0 note=67 velocity=80 time=0.007352937499999999
EXTRACT: note_on channel=0 note=63 velocity=95 time=0
EXTRACT: note_off channel=1 note=56 velocity=80 time=0
EXTRACT: note_on channel=1 note=56 velocity=95 time=0
EXTRACT: note_off channel=2 note=65 velocity=80 time=0
EXTRACT: note_on channel=2 note=65 velocity=95 time=0
EXTRACT: note_off channel=3 note=56 velocity=80 time=0
EXTRACT: note_on channel=3 note=56 velocity=95 time=0
EXTRACT: note_off channel=9 note=42 velocity=80 time=0
EXTRACT: note_off channel=9 note=36 velocity=80 time=0
EXTRACT: note_off channel=9 note=38 velocity=80 time=0
EXTRACT: note_on channel=9 note=42 velocity=95 time=0
EXTRACT: note_on channel=9 note=36 velocity=95 time=0
EXTRACT: note_on channel=9 note=38 velocity=79 time=0
EXTRACT: note_on channel=12 note=34 velocity=75 time=0
EXTRACT: pitchwheel channel=0 pitch=-640 time=0.2941175
EXTRACT: note_on channel=1 note=53 velocity=95 time=0
EXTRACT: note_on channel=3 note=53 velocity=95 time=0
EXTRACT: note_off channel=9 note=42 velocity=80 time=0
EXTRACT: note_off channel=9 note=36 velocity=80 time=0
EXTRACT: note_off channel=9 note=38 velocity=80 time=0
EXTRACT: note_on channel=9 note=57 velocity=127 time=0
EXTRACT: note_on channel=9 note=36 velocity=111 time=0
EXTRACT: note_on channel=9 note=38 velocity=95 time=0
EXTRACT: pitchwheel channel=0 pitch=-1408 time=0.09803916666666665
EXTRACT: pitchwheel channel=0 pitch=-2048 time=0.09803916666666665
EXTRACT: note_on channel=12 note=34 velocity=0 time=0
EXTRACT: note_off channel=0 note=63 velocity=80 time=0.09803916666666665
EXTRACT: pitchwheel channel=0 pitch=0 time=0
EXTRACT: note_off channel=1 note=62 velocity=80 time=0
EXTRACT: note_on channel=1 note=62 velocity=95 time=0
EXTRACT: note_off channel=2 note=62 velocity=80 time=0
EXTRACT: note_on channel=2 note=62 velocity=95 time=0
EXTRACT: note_off channel=3 note=62 velocity=80 time=0
EXTRACT: note_on channel=3 note=62 velocity=95 time=0
EXTRACT: note_off channel=9 note=57 velocity=80 time=0
EXTRACT: note_off channel=9 note=36 velocity=80 time=0
EXTRACT: note_off channel=9 note=38 velocity=80 time=0
EXTRACT: note_on channel=9 note=36 velocity=95 time=0
EXTRACT: note_on channel=12 note=34 velocity=75 time=0
EXTRACT: note_on channel=12 note=34 velocity=0 time=0.2867645625
EXTRACT: note_off channel=2 note=65 velocity=80 time=0.007352937499999999
EXTRACT: note_on channel=2 note=63 velocity=86 time=0
EXTRACT: note_on channel=4 note=63 velocity=95 time=0
EXTRACT: note_on channel=5 note=58 velocity=95 time=0
EXTRACT: note_on channel=7 note=65 velocity=95 time=0
EXTRACT: note_on channel=7 note=62 velocity=95 time=0
EXTRACT: note_on channel=7 note=56 velocity=95 time=0
EXTRACT: note_off channel=9 note=36 velocity=80 time=0
EXTRACT: note_on channel=9 note=49 velocity=127 time=0
EXTRACT: note_on channel=9 note=36 velocity=95 time=0
EXTRACT: note_on channel=12 note=39 velocity=75 time=0
EXTRACT: note_off channel=2 note=63 velocity=80 time=0.14705875
EXTRACT: note_off channel=1 note=46 velocity=80 time=0.14705875
EXTRACT: note_off channel=1 note=56 velocity=80 time=0
EXTRACT: note_off channel=1 note=53 velocity=80 time=0
EXTRACT: note_off channel=1 note=62 velocity=80 time=0
EXTRACT: note_off channel=2 note=62 velocity=80 time=0
EXTRACT: note_on channel=2 note=58 velocity=86 time=0
EXTRACT: note_off channel=3 note=46 velocity=80 time=0
EXTRACT: note_off channel=3 note=56 velocity=80 time=0
EXTRACT: note_off channel=3 note=53 velocity=80 time=0
EXTRACT: note_off channel=3 note=62 velocity=80 time=0
EXTRACT: note_off channel=4 note=63 velocity=80 time=0
EXTRACT: note_on channel=4 note=63 velocity=95 time=0
EXTRACT: note_on channel=5 note=63 velocity=95 time=0
EXTRACT: note_off channel=7 note=65 velocity=80 time=0
EXTRACT: note_off channel=7 note=62 velocity=80 time=0
EXTRACT: note_off channel=7 note=56 velocity=80 time=0
EXTRACT: note_on channel=7 note=65 velocity=95 time=0
EXTRACT: note_on channel=7 note=62 velocity=95 time=0
EXTRACT: note_on channel=7 note=56 velocity=95 time=0
EXTRACT: note_off channel=9 note=49 velocity=80 time=0
EXTRACT: note_off channel=9 note=36 velocity=80 time=0
EXTRACT: note_on channel=9 note=42 velocity=95 time=0
EXTRACT: note_on channel=9 note=53 velocity=63 time=0
EXTRACT: note_off channel=2 note=58 velocity=80 time=0.14705875
EXTRACT: note_on channel=12 note=39 velocity=0 time=0.049019583333333325
EXTRACT: note_on channel=0 note=63 velocity=95 time=0.09803916666666665
EXTRACT: note_on channel=2 note=58 velocity=86 time=0
EXTRACT: note_on channel=4 note=70 velocity=95 time=0
EXTRACT: note_off channel=5 note=58 velocity=80 time=0
EXTRACT: note_on channel=5 note=58 velocity=95 time=0
EXTRACT: note_off channel=7 note=65 velocity=80 time=0
EXTRACT: note_off channel=7 note=62 velocity=80 time=0
EXTRACT: note_off channel=7 note=56 velocity=80 time=0
EXTRACT: note_on channel=7 note=65 velocity=95 time=0
EXTRACT: note_on channel=7 note=62 velocity=95 time=0
EXTRACT: note_on channel=7 note=56 velocity=95 time=0
EXTRACT: note_off channel=9 note=42 velocity=80 time=0
EXTRACT: note_off channel=9 note=53 velocity=80 time=0
EXTRACT: note_on channel=9 note=42 velocity=79 time=0
EXTRACT: note_on channel=9 note=38 velocity=95 time=0
EXTRACT: note_on channel=9 note=53 velocity=63 time=0
EXTRACT: note_on channel=12 note=39 velocity=75 time=0
EXTRACT: note_off channel=2 note=58 velocity=80 time=0.14705875
EXTRACT: note_off channel=0 note=63 velocity=80 time=0.14705875
EXTRACT: note_on channel=0 note=63 velocity=95 time=0
EXTRACT: note_on channel=2 note=63 velocity=86 time=0
EXTRACT: note_off channel=4 note=63 velocity=80 time=0
EXTRACT: note_on channel=4 note=63 velocity=95 time=0
EXTRACT: note_on channel=5 note=65 velocity=95 time=0
EXTRACT: note_off channel=7 note=65 velocity=80 time=0
EXTRACT: note_off channel=7 note=62 velocity=80 time=0
EXTRACT: note_off channel=7 note=56 velocity=80 time=0
EXTRACT: note_on channel=7 note=65 velocity=95 time=0
EXTRACT: note_on channel=7 note=62 velocity=95 time=0
EXTRACT: note_on channel=7 note=56 velocity=95 time=0
EXTRACT: note_off channel=9 note=42 velocity=80 time=0
EXTRACT: note_off channel=9 note=38 velocity=80 time=0
EXTRACT: note_off channel=9 note=53 velocity=80 time=0
EXTRACT: note_on channel=9 note=42 velocity=79 time=0
EXTRACT: note_on channel=9 note=53 velocity=63 time=0
EXTRACT: note_off channel=2 note=63 velocity=80 time=0.14705875
EXTRACT: note_on channel=12 note=39 velocity=0 time=0.049019583333333325
EXTRACT: note_off channel=0 note=63 velocity=80 time=0.09803916666666665
EXTRACT: note_on channel=0 note=63 velocity=95 time=0
EXTRACT: note_on channel=2 note=58 velocity=86 time=0
EXTRACT: note_off channel=4 note=63 velocity=80 time=0
EXTRACT: note_on channel=4 note=63 velocity=95 time=0
EXTRACT: note_off channel=7 note=65 velocity=80 time=0
EXTRACT: note_off channel=7 note=62 velocity=80 time=0
EXTRACT: note_off channel=7 note=56 velocity=80 time=0
EXTRACT: note_on channel=7 note=65 velocity=95 time=0
EXTRACT: note_on channel=7 note=62 velocity=95 time=0
EXTRACT: note_on channel=7 note=56 velocity=95 time=0
EXTRACT: note_off channel=9 note=42 velocity=80 time=0
EXTRACT: note_off channel=9 note=53 velocity=80 time=0
EXTRACT: note_on channel=9 note=42 velocity=79 time=0
EXTRACT: note_on channel=9 note=36 velocity=95 time=0
EXTRACT: note_on channel=9 note=53 velocity=63 time=0
EXTRACT: note_on channel=12 note=39 velocity=75 time=0
EXTRACT: note_off channel=2 note=58 velocity=80 time=0.14705875
EXTRACT: note_on channel=2 note=58 velocity=86 time=0.14705875
EXTRACT: note_off channel=4 note=70 velocity=80 time=0
EXTRACT: note_on channel=4 note=70 velocity=95 time=0
EXTRACT: note_off channel=7 note=65 velocity=80 time=0
EXTRACT: note_off channel=7 note=62 velocity=80 time=0
EXTRACT: note_off channel=7 note=56 velocity=80 time=0
EXTRACT: note_on channel=7 note=65 velocity=95 time=0
EXTRACT: note_on channel=7 note=62 velocity=95 time=0
EXTRACT: note_on channel=7 note=56 velocity=95 time=0
EXTRACT: note_off channel=9 note=42 velocity=80 time=0
EXTRACT: note_off channel=9 note=36 velocity=80 time=0
EXTRACT: note_off channel=9 note=53 velocity=80 time=0
EXTRACT: note_on channel=9 note=42 velocity=79 time=0
EXTRACT: note_on channel=9 note=36 velocity=95 time=0
EXTRACT: note_on channel=9 note=53 velocity=63 time=0
EXTRACT: note_off channel=2 note=58 velocity=80 time=0.14705875
EXTRACT: note_on channel=12 note=39 velocity=0 time=0.049019583333333325
EXTRACT: note_off channel=0 note=63 velocity=80 time=0.09803916666666665
EXTRACT: note_on channel=0 note=63 velocity=95 time=0
EXTRACT: note_on channel=2 note=63 velocity=86 time=0
EXTRACT: note_off channel=4 note=63 velocity=80 time=0
EXTRACT: note_on channel=4 note=63 velocity=95 time=0
EXTRACT: note_off channel=7 note=65 velocity=80 time=0
EXTRACT: note_off channel=7 note=62 velocity=80 time=0
EXTRACT: note_off channel=7 note=56 velocity=80 time=0
EXTRACT: note_on channel=7 note=65 velocity=95 time=0
EXTRACT: note_on channel=7 note=62 velocity=95 time=0
EXTRACT: note_on channel=7 note=56 velocity=95 time=0
EXTRACT: note_off channel=9 note=42 velocity=80 time=0
EXTRACT: note_off channel=9 note=36 velocity=80 time=0
EXTRACT: note_off channel=9 note=53 velocity=80 time=0
EXTRACT: note_on channel=9 note=42 velocity=79 time=0
EXTRACT: note_on channel=9 note=38 velocity=95 time=0
EXTRACT: note_on channel=9 note=53 velocity=63 time=0
EXTRACT: note_on channel=12 note=39 velocity=75 time=0
EXTRACT: note_off channel=2 note=63 velocity=80 time=0.14705875
EXTRACT: note_off channel=0 note=63 velocity=80 time=0.14705875
EXTRACT: note_on channel=0 note=63 velocity=95 time=0
EXTRACT: note_on channel=2 note=58 velocity=86 time=0
EXTRACT: note_off channel=4 note=70 velocity=80 time=0
EXTRACT: note_on channel=4 note=70 velocity=95 time=0
EXTRACT: note_off channel=7 note=65 velocity=80 time=0
EXTRACT: note_off channel=7 note=62 velocity=80 time=0
EXTRACT: note_off channel=7 note=56 velocity=80 time=0
EXTRACT: note_on channel=7 note=65 velocity=95 time=0
EXTRACT: note_on channel=7 note=62 velocity=95 time=0
EXTRACT: note_on channel=7 note=56 velocity=95 time=0
EXTRACT: note_off channel=9 note=42 velocity=80 time=0
EXTRACT: note_off channel=9 note=38 velocity=80 time=0
EXTRACT: note_off channel=9 note=53 velocity=80 time=0
EXTRACT: note_on channel=9 note=42 velocity=79 time=0
EXTRACT: note_on channel=9 note=53 velocity=63 time=0
EXTRACT: note_off channel=2 note=58 velocity=80 time=0.14705875
EXTRACT: note_on channel=12 note=39 velocity=0 time=0.049019583333333325
EXTRACT: note_off channel=0 note=63 velocity=80 time=0.09803916666666665
EXTRACT: note_on channel=0 note=62 velocity=95 time=0
EXTRACT: note_on channel=2 note=63 velocity=86 time=0
EXTRACT: note_off channel=4 note=63 velocity=80 time=0
EXTRACT: note_on channel=4 note=63 velocity=95 time=0
EXTRACT: note_off channel=7 note=65 velocity=80 time=0
EXTRACT: note_off channel=7 note=62 velocity=80 time=0
EXTRACT: note_off channel=7 note=56 velocity=80 time=0
EXTRACT: note_on channel=7 note=62 velocity=95 time=0
EXTRACT: note_on channel=7 note=56 velocity=95 time=0
EXTRACT: note_on channel=7 note=63 velocity=95 time=0
EXTRACT: note_off channel=9 note=42 velocity=80 time=0
EXTRACT: note_off channel=9 note=53 velocity=80 time=0
EXTRACT: note_on channel=9 note=42 velocity=95 time=0
EXTRACT: note_on channel=9 note=36 velocity=95 time=0
EXTRACT: note_on channel=12 note=34 velocity=75 time=0
EXTRACT: note_off channel=2 note=63 velocity=80 time=0.14705875
EXTRACT: note_off channel=0 note=62 velocity=80 time=0.14705875
EXTRACT: note_on channel=0 note=63 velocity=95 time=0
EXTRACT: note_on channel=2 note=58 velocity=86 time=0
EXTRACT: note_off channel=4 note=63 velocity=80 time=0
EXTRACT: note_on channel=4 note=63 velocity=95 time=0
EXTRACT: note_off channel=5 note=63 velocity=80 time=0
EXTRACT: note_on channel=5 note=62 velocity=95 time=0
EXTRACT: note_off channel=7 note=62 velocity=80 time=0
EXTRACT: note_off channel=7 note=56 velocity=80 time=0
EXTRACT: note_off channel=7 note=63 velocity=80 time=0
EXTRACT: note_on channel=7 note=62 velocity=95 time=0
EXTRACT: note_on channel=7 note=56 velocity=95 time=0
EXTRACT: note_on channel=7 note=63 velocity=95 time=0
EXTRACT: note_off channel=9 note=42 velocity=80 time=0
EXTRACT: note_off channel=9 note=36 velocity=80 time=0
EXTRACT: note_on channel=9 note=42 velocity=95 time=0
EXTRACT: note_on channel=9 note=53 velocity=63 time=0
EXTRACT: note_off channel=2 note=58 velocity=80 time=0.14705875
EXTRACT: note_on channel=12 note=34 velocity=0 time=0.049019583333333325
EXTRACT: note_off channel=0 note=63 velocity=80 time=0.09803916666666665
EXTRACT: note_on channel=0 note=63 velocity=95 time=0
EXTRACT: note_on channel=2 note=58 velocity=86 time=0
EXTRACT: note_off channel=4 note=70 velocity=80 time=0
EXTRACT: note_on channel=4 note=70 velocity=95 time=0
EXTRACT: note_off channel=5 note=58 velocity=80 time=0
EXTRACT: note_on channel=5 note=58 velocity=95 time=0
EXTRACT: note_off channel=7 note=62 velocity=80 time=0
EXTRACT: note_off channel=7 note=56 velocity=80 time=0
EXTRACT: note_off channel=7 note=63 velocity=80 time=0
EXTRACT: note_on channel=7 note=62 velocity=95 time=0
EXTRACT: note_on channel=7 note=56 velocity=95 time=0
EXTRACT: note_on channel=7 note=63 velocity=95 time=0
EXTRACT: note_off channel=9 note=42 velocity=80 time=0
EXTRACT: note_off channel=9 note=53 velocity=80 time=0
EXTRACT: note_on channel=9 note=42 velocity=95 time=0
EXTRACT: note_on channel=9 note=38 velocity=95 time=0
EXTRACT: note_on channel=9 note=53 velocity=63 time=0
EXTRACT: note_on channel=12 note=34 velocity=75 time=0
EXTRACT: note_off channel=2 note=58 velocity=80 time=0.14705875
EXTRACT: note_off channel=0 note=63 velocity=80 time=0.14705875
EXTRACT: note_on channel=0 note=63 velocity=95 time=0
EXTRACT: note_on channel=2 note=62 velocity=86 time=0
EXTRACT: note_off channel=4 note=63 velocity=80 time=0
EXTRACT: note_on channel=4 note=63 velocity=95 time=0
EXTRACT: note_off channel=5 note=65 velocity=80 time=0
EXTRACT: note_on channel=5 note=65 velocity=95 time=0
EXTRACT: note_off channel=7 note=62 velocity=80 time=0
EXTRACT: note_off channel=7 note=56 velocity=80 time=0
EXTRACT: note_off channel=7 note=63 velocity=80 time=0
EXTRACT: note_on channel=7 note=62 velocity=95 time=0
EXTRACT: note_on channel=7 note=56 velocity=95 time=0
EXTRACT: note_on channel=7 note=63 velocity=95 time=0
EXTRACT: note_off channel=9 note=42 velocity=80 time=0
EXTRACT: note_off channel=9 note=38 velocity=80 time=0
EXTRACT: note_off channel=9 note=53 velocity=80 time=0
EXTRACT: note_on channel=9 note=42 velocity=95 time=0
EXTRACT: note_on channel=9 note=53 velocity=63 time=0
EXTRACT: note_off channel=2 note=62 velocity=80 time=0.14705875
EXTRACT: note_on channel=12 note=34 velocity=0 time=0.049019583333333325
EXTRACT: note_on channel=2 note=58 velocity=86 time=0.09803916666666665
EXTRACT: note_off channel=4 note=63 velocity=80 time=0
EXTRACT: note_on channel=4 note=63 velocity=95 time=0
EXTRACT: note_off channel=7 note=62 velocity=80 time=0
EXTRACT: note_off channel=7 note=56 velocity=80 time=0
EXTRACT: note_off channel=7 note=63 velocity=80 time=0
EXTRACT: note_on channel=7 note=62 velocity=95 time=0
EXTRACT: note_on channel=7 note=56 velocity=95 time=0
EXTRACT: note_on channel=7 note=63 velocity=95 time=0
EXTRACT: note_off channel=9 note=42 velocity=80 time=0
EXTRACT: note_off channel=9 note=53 velocity=80 time=0
EXTRACT: note_on channel=9 note=42 velocity=95 time=0
EXTRACT: note_on channel=9 note=36 velocity=95 time=0
EXTRACT: note_on channel=9 note=53 velocity=63 time=0
EXTRACT: note_on channel=12 note=34 velocity=75 time=0
EXTRACT: note_off channel=2 note=58 velocity=80 time=0.14705875
EXTRACT: note_on channel=2 note=58 velocity=86 time=0.14705875
EXTRACT: note_off channel=4 note=70 velocity=80 time=0
EXTRACT: note_on channel=4 note=70 velocity=95 time=0
EXTRACT: note_off channel=7 note=62 velocity=80 time=0
EXTRACT: note_off channel=7 note=56 velocity=80 time=0
EXTRACT: note_off channel=7 note=63 velocity=80 time=0
EXTRACT: note_on channel=7 note=62 velocity=95 time=0
EXTRACT: note_on channel=7 note=56 velocity=95 time=0
EXTRACT: note_on channel=7 note=63 velocity=95 time=0
EXTRACT: note_off channel=9 note=42 velocity=80 time=0
EXTRACT: note_off channel=9 note=36 velocity=80 time=0
EXTRACT: note_off channel=9 note=53 velocity=80 time=0
EXTRACT: note_on channel=9 note=42 velocity=95 time=0
EXTRACT: note_on channel=9 note=36 velocity=95 time=0
EXTRACT: note_on channel=9 note=53 velocity=63 time=0
EXTRACT: note_off channel=2 note=58 velocity=80 time=0.14705875
EXTRACT: note_on channel=12 note=34 velocity=0 time=0.049019583333333325
EXTRACT: note_off channel=0 note=63 velocity=80 time=0.09803916666666665
EXTRACT: note_on channel=2 note=62 velocity=86 time=0
EXTRACT: note_off channel=4 note=63 velocity=80 time=0
EXTRACT: note_on channel=4 note=63 velocity=95 time=0
EXTRACT: note_off channel=7 note=62 velocity=80 time=0
EXTRACT: note_off channel=7 note=56 velocity=80 time=0
EXTRACT: note_off channel=7 note=63 velocity=80 time=0
EXTRACT: note_on channel=7 note=62 velocity=95 time=0
EXTRACT: note_on channel=7 note=56 velocity=95 time=0
EXTRACT: note_on channel=7 note=63 velocity=95 time=0
EXTRACT: note_off channel=9 note=42 velocity=80 time=0
EXTRACT: note_off channel=9 note=36 velocity=80 time=0
EXTRACT: note_off channel=9 note=53 velocity=80 time=0
EXTRACT: note_on channel=9 note=42 velocity=95 time=0
EXTRACT: note_on channel=9 note=38 velocity=95 time=0
EXTRACT: note_on channel=9 note=53 velocity=63 time=0
EXTRACT: note_on channel=12 note=34 velocity=75 time=0
EXTRACT: note_off channel=2 note=62 velocity=80 time=0.14705875
EXTRACT: note_on channel=2 note=58 velocity=86 time=0.14705875
EXTRACT: note_off channel=4 note=70 velocity=80 time=0
EXTRACT: note_on channel=4 note=70 velocity=95 time=0
EXTRACT: note_off channel=7 note=62 velocity=80 time=0
EXTRACT: note_off channel=7 note=56 velocity=80 time=0
EXTRACT: note_off channel=7 note=63 velocity=80 time=0
EXTRACT: note_on channel=7 note=62 velocity=95 time=0
EXTRACT: note_on channel=7 note=56 velocity=95 time=0
EXTRACT: note_on channel=7 note=63 velocity=95 time=0
EXTRACT: note_off channel=9 note=42 velocity=80 time=0
EXTRACT: note_off channel=9 note=38 velocity=80 time=0
EXTRACT: note_off channel=9 note=53 velocity=80 time=0
EXTRACT: note_on channel=9 note=42 velocity=95 time=0
EXTRACT: note_on channel=9 note=53 velocity=63 time=0
EXTRACT: note_off channel=2 note=58 velocity=80 time=0.14705875
EXTRACT: note_on channel=12 note=34 velocity=0 time=0.049019583333333325
EXTRACT: note_on channel=2 note=63 velocity=86 time=0.09803916666666665
EXTRACT: note_off channel=4 note=63 velocity=80 time=0
EXTRACT: note_on channel=4 note=63 velocity=95 time=0
EXTRACT: note_off channel=7 note=62 velocity=80 time=0
EXTRACT: note_off channel=7 note=56 velocity=80 time=0
EXTRACT: note_off channel=7 note=63 velocity=80 time=0
EXTRACT: note_on channel=7 note=67 velocity=95 time=0
EXTRACT: note_on channel=7 note=62 velocity=95 time=0
EXTRACT: note_on channel=7 note=56 velocity=95 time=0
EXTRACT: note_off channel=9 note=42 velocity=80 time=0
EXTRACT: note_off channel=9 note=53 velocity=80 time=0
EXTRACT: note_on channel=9 note=42 velocity=95 time=0
EXTRACT: note_on channel=9 note=36 velocity=95 time=0
EXTRACT: note_on channel=12 note=36 velocity=75 time=0
EXTRACT: note_off channel=2 note=63 velocity=80 time=0.14705875
EXTRACT: note_on channel=0 note=63 velocity=95 time=0.14705875
EXTRACT: note_on channel=2 note=58 velocity=86 time=0
EXTRACT: note_off channel=4 note=63 velocity=80 time=0
EXTRACT: note_on channel=4 note=63 velocity=95 time=0
EXTRACT: note_off channel=5 note=62 velocity=80 time=0
EXTRACT: note_on channel=5 note=63 velocity=95 time=0
EXTRACT: note_off channel=7 note=67 velocity=80 time=0
EXTRACT: note_off channel=7 note=62 velocity=80 time=0
EXTRACT: note_off channel=7 note=56 velocity=80 time=0
EXTRACT: note_on channel=7 note=67 velocity=95 time=0
EXTRACT: note_on channel=7 note=62 velocity=95 time=0
EXTRACT: note_on channel=7 note=56 velocity=95 time=0
EXTRACT: note_off channel=9 note=42 velocity=80 time=0
EXTRACT: note_off channel=9 note=36 velocity=80 time=0
EXTRACT: note_on channel=9 note=42 velocity=95 time=0
EXTRACT: note_on channel=9 note=53 velocity=63 time=0
EXTRACT: note_off channel=2 note=58 velocity=80 time=0.14705875
EXTRACT: note_on channel=12 note=36 velocity=0 time=0.049019583333333325
EXTRACT: note_off channel=0 note=63 velocity=80 time=0.09803916666666665
EXTRACT: note_on channel=0 note=63 velocity=95 time=0
EXTRACT: note_on channel=2 note=58 velocity=86 time=0
EXTRACT: note_off channel=4 note=70 velocity=80 time=0
EXTRACT: note_on channel=4 note=70 velocity=95 time=0
EXTRACT: note_off channel=5 note=58 velocity=80 time=0
EXTRACT: note_on channel=5 note=58 velocity=95 time=0
EXTRACT: note_off channel=7 note=67 velocity=80 time=0
EXTRACT: note_off channel=7 note=62 velocity=80 time=0
EXTRACT: note_off channel=7 note=56 velocity=80 time=0
EXTRACT: note_on channel=7 note=67 velocity=95 time=0
EXTRACT: note_on channel=7 note=62 velocity=95 time=0
EXTRACT: note_on channel=7 note=56 velocity=95 time=0
EXTRACT: note_off channel=9 note=42 velocity=80 time=0
EXTRACT: note_off channel=9 note=53 velocity=80 time=0
EXTRACT: note_on channel=9 note=42 velocity=95 time=0
EXTRACT: note_on channel=9 note=38 velocity=95 time=0
EXTRACT: note_on channel=9 note=53 velocity=63 time=0
EXTRACT: note_on channel=12 note=36 velocity=75 time=0
EXTRACT: note_off channel=2 note=58 velocity=80 time=0.14705875
EXTRACT: note_off channel=0 note=63 velocity=80 time=0.14705875
EXTRACT: note_on channel=0 note=63 velocity=95 time=0
EXTRACT: note_on channel=2 note=63 velocity=86 time=0
EXTRACT: note_off channel=4 note=63 velocity=80 time=0
EXTRACT: note_on channel=4 note=63 velocity=95 time=0
EXTRACT: note_off channel=5 note=65 velocity=80 time=0
EXTRACT: note_on channel=5 note=65 velocity=95 time=0
EXTRACT: note_off channel=7 note=67 velocity=80 time=0
EXTRACT: note_off channel=7 note=62 velocity=80 time=0
EXTRACT: note_off channel=7 note=56 velocity=80 time=0
EXTRACT: note_on channel=7 note=67 velocity=95 time=0
EXTRACT: note_on channel=7 note=62 velocity=95 time=0
EXTRACT: note_on channel=7 note=56 velocity=95 time=0
EXTRACT: note_off channel=9 note=42 velocity=80 time=0
EXTRACT: note_off channel=9 note=38 velocity=80 time=0
EXTRACT: note_off channel=9 note=53 velocity=80 time=0
EXTRACT: note_on channel=9 note=42 velocity=95 time=0
EXTRACT: note_on channel=9 note=53 velocity=63 time=0
EXTRACT: note_off channel=2 note=63 velocity=80 time=0.14705875
EXTRACT: note_on channel=12 note=36 velocity=0 time=0.049019583333333325
EXTRACT: note_off channel=0 note=63 velocity=80 time=0.09803916666666665
EXTRACT: note_on channel=0 note=63 velocity=95 time=0
EXTRACT: note_on channel=2 note=58 velocity=86 time=0
EXTRACT: note_off channel=4 note=63 velocity=80 time=0
EXTRACT: note_on channel=4 note=63 velocity=95 time=0
EXTRACT: note_off channel=7 note=67 velocity=80 time=0
EXTRACT: note_off channel=7 note=62 velocity=80 time=0
EXTRACT: note_off channel=7 note=56 velocity=80 time=0
EXTRACT: note_on channel=7 note=67 velocity=95 time=0
EXTRACT: note_on channel=7 note=62 velocity=95 time=0
EXTRACT: note_on channel=7 note=56 velocity=95 time=0
EXTRACT: note_off channel=9 note=42 velocity=80 time=0
EXTRACT: note_off channel=9 note=53 velocity=80 time=0
EXTRACT: note_on channel=9 note=42 velocity=95 time=0
EXTRACT: note_on channel=9 note=36 velocity=95 time=0
EXTRACT: note_on channel=9 note=53 velocity=63 time=0
EXTRACT: note_on channel=12 note=36 velocity=75 time=0
EXTRACT: note_off channel=2 note=58 velocity=80 time=0.14705875
EXTRACT: note_off channel=0 note=63 velocity=80 time=0.14705875
EXTRACT: note_on channel=0 note=63 velocity=95 time=0
EXTRACT: note_on channel=2 note=58 velocity=86 time=0
EXTRACT: note_off channel=4 note=70 velocity=80 time=0
EXTRACT: note_on channel=4 note=70 velocity=95 time=0
EXTRACT: note_off channel=7 note=67 velocity=80 time=0
EXTRACT: note_off channel=7 note=62 velocity=80 time=0
EXTRACT: note_off channel=7 note=56 velocity=80 time=0
EXTRACT: note_on channel=7 note=67 velocity=95 time=0
EXTRACT: note_on channel=7 note=62 velocity=95 time=0
EXTRACT: note_on channel=7 note=56 velocity=95 time=0
EXTRACT: note_off channel=9 note=42 velocity=80 time=0
EXTRACT: note_off channel=9 note=36 velocity=80 time=0
EXTRACT: note_off channel=9 note=53 velocity=80 time=0
EXTRACT: note_on channel=9 note=42 velocity=95 time=0
EXTRACT: note_on channel=9 note=36 velocity=95 time=0
EXTRACT: note_on channel=9 note=53 velocity=63 time=0
EXTRACT: note_off channel=2 note=58 velocity=80 time=0.14705875
EXTRACT: note_on channel=12 note=36 velocity=0 time=0.049019583333333325
EXTRACT: note_off channel=0 note=63 velocity=80 time=0.09803916666666665
EXTRACT: note_on channel=0 note=63 velocity=95 time=0
EXTRACT: note_on channel=2 note=63 velocity=86 time=0
EXTRACT: note_off channel=4 note=63 velocity=80 time=0
EXTRACT: note_on channel=4 note=63 velocity=95 time=0
EXTRACT: note_off channel=7 note=67 velocity=80 time=0
EXTRACT: note_off channel=7 note=62 velocity=80 time=0
EXTRACT: note_off channel=7 note=56 velocity=80 time=0
EXTRACT: note_on channel=7 note=67 velocity=95 time=0
EXTRACT: note_on channel=7 note=62 velocity=95 time=0
EXTRACT: note_on channel=7 note=56 velocity=95 time=0
EXTRACT: note_off channel=9 note=42 velocity=80 time=0
EXTRACT: note_off channel=9 note=36 velocity=80 time=0
EXTRACT: note_off channel=9 note=53 velocity=80 time=0
EXTRACT: note_on channel=9 note=42 velocity=95 time=0
EXTRACT: note_on channel=9 note=38 velocity=95 time=0
EXTRACT: note_on channel=9 note=53 velocity=63 time=0
EXTRACT: note_on channel=12 note=36 velocity=75 time=0
EXTRACT: note_off channel=2 note=63 velocity=80 time=0.14705875
EXTRACT: note_off channel=0 note=63 velocity=80 time=0.14705875
EXTRACT: note_on channel=0 note=63 velocity=95 time=0
EXTRACT: note_on channel=2 note=58 velocity=86 time=0
EXTRACT: note_off channel=4 note=70 velocity=80 time=0
EXTRACT: note_on channel=4 note=70 velocity=95 time=0
EXTRACT: note_off channel=7 note=67 velocity=80 time=0
EXTRACT: note_off channel=7 note=62 velocity=80 time=0
EXTRACT: note_off channel=7 note=56 velocity=80 time=0
EXTRACT: note_on channel=7 note=67 velocity=95 time=0
EXTRACT: note_on channel=7 note=62 velocity=95 time=0
EXTRACT: note_on channel=7 note=56 velocity=95 time=0
EXTRACT: note_off channel=9 note=42 velocity=80 time=0
EXTRACT: note_off channel=9 note=38 velocity=80 time=0
EXTRACT: note_off channel=9 note=53 velocity=80 time=0
EXTRACT: note_on channel=9 note=42 velocity=95 time=0
EXTRACT: note_on channel=9 note=53 velocity=63 time=0
EXTRACT: note_off channel=2 note=58 velocity=80 time=0.14705875
EXTRACT: note_on channel=12 note=36 velocity=0 time=0.049019583333333325
EXTRACT: note_off channel=0 note=63 velocity=80 time=0.09803916666666665
EXTRACT: note_on channel=0 note=62 velocity=95 time=0
EXTRACT: note_on channel=2 note=63 velocity=86 time=0
EXTRACT: note_off channel=4 note=63 velocity=80 time=0
EXTRACT: note_on channel=4 note=63 velocity=95 time=0
EXTRACT: note_off channel=7 note=67 velocity=80 time=0
EXTRACT: note_off channel=7 note=62 velocity=80 time=0
EXTRACT: note_off channel=7 note=56 velocity=80 time=0
EXTRACT: note_on channel=7 note=62 velocity=95 time=0
EXTRACT: note_on channel=7 note=56 velocity=95 time=0
EXTRACT: note_on channel=7 note=63 velocity=95 time=0
EXTRACT: note_off channel=9 note=42 velocity=80 time=0
EXTRACT: note_off channel=9 note=53 velocity=80 time=0
EXTRACT: note_on channel=9 note=42 velocity=95 time=0
EXTRACT: note_on channel=9 note=36 velocity=95 time=0
EXTRACT: note_on channel=12 note=34 velocity=75 time=0
EXTRACT: note_off channel=2 note=63 velocity=80 time=0.14705875
EXTRACT: note_on channel=2 note=58 velocity=86 time=0.14705875
EXTRACT: note_off channel=4 note=63 velocity=80 time=0
EXTRACT: note_on channel=4 note=63 velocity=95 time=0
EXTRACT: note_off channel=5 note=63 velocity=80 time=0
EXTRACT: note_on channel=5 note=63 velocity=95 time=0
EXTRACT: note_off channel=7 note=62 velocity=80 time=0
EXTRACT: note_off channel=7 note=56 velocity=80 time=0
EXTRACT: note_off channel=7 note=63 velocity=80 time=0
EXTRACT: note_on channel=7 note=62 velocity=95 time=0
EXTRACT: note_on channel=7 note=56 velocity=95 time=0
EXTRACT: note_on channel=7 note=63 velocity=95 time=0
EXTRACT: note_off channel=9 note=42 velocity=80 time=0
EXTRACT: note_off channel=9 note=36 velocity=80 time=0
EXTRACT: note_on channel=9 note=42 velocity=95 time=0
EXTRACT: note_on channel=9 note=53 velocity=63 time=0
EXTRACT: note_off channel=0 note=62 velocity=80 time=0.14705875
EXTRACT: note_on channel=0 note=63 velocity=95 time=0
EXTRACT: note_off channel=2 note=58 velocity=80 time=0
EXTRACT: note_on channel=12 note=34 velocity=0 time=0.049019583333333325
EXTRACT: note_on channel=2 note=58 velocity=86 time=0.09803916666666665
EXTRACT: note_off channel=4 note=70 velocity=80 time=0
EXTRACT: note_on channel=4 note=70 velocity=95 time=0
EXTRACT: note_off channel=5 note=58 velocity=80 time=0
EXTRACT: note_on channel=5 note=58 velocity=95 time=0
EXTRACT: note_off channel=7 note=62 velocity=80 time=0
EXTRACT: note_off channel=7 note=56 velocity=80 time=0
EXTRACT: note_off channel=7 note=63 velocity=80 time=0
EXTRACT: note_on channel=7 note=62 velocity=95 time=0
EXTRACT: note_on channel=7 note=56 velocity=95 time=0
EXTRACT: note_on channel=7 note=63 velocity=95 time=0
EXTRACT: note_off channel=9 note=42 velocity=80 time=0
EXTRACT: note_off channel=9 note=53 velocity=80 time=0
EXTRACT: note_on channel=9 note=42 velocity=95 time=0
EXTRACT: note_on channel=9 note=38 velocity=95 time=0
EXTRACT: note_on channel=9 note=53 velocity=63 time=0
EXTRACT: note_on channel=12 note=34 velocity=75 time=0
EXTRACT: note_off channel=2 note=58 velocity=80 time=0.14705875
EXTRACT: note_on channel=0 note=64 velocity=95 time=0.073529375
EXTRACT: note_off channel=0 note=64 velocity=80 time=0.07107839583333332
EXTRACT: note_off channel=0 note=63 velocity=80 time=0.0024509791666666664
EXTRACT: note_on channel=0 note=65 velocity=95 time=0
EXTRACT: note_on channel=2 note=62 velocity=86 time=0
EXTRACT: note_off channel=4 note=63 velocity=80 time=0
EXTRACT: note_on channel=4 note=63 velocity=95 time=0
EXTRACT: note_off channel=5 note=65 velocity=80 time=0
EXTRACT: note_on channel=5 note=70 velocity=95 time=0
EXTRACT: note_off channel=7 note=62 velocity=80 time=0
EXTRACT: note_off channel=7 note=56 velocity=80 time=0
EXTRACT: note_off channel=7 note=63 velocity=80 time=0
EXTRACT: note_on channel=7 note=62 velocity=95 time=0
EXTRACT: note_on channel=7 note=56 velocity=95 time=0
EXTRACT: note_on channel=7 note=63 velocity=95 time=0
EXTRACT: note_off channel=9 note=42 velocity=80 time=0
EXTRACT: note_off channel=9 note=38 velocity=80 time=0
EXTRACT: note_off channel=9 note=53 velocity=80 time=0
EXTRACT: note_on channel=9 note=42 velocity=95 time=0
EXTRACT: note_on channel=9 note=53 velocity=63 time=0
EXTRACT: note_off channel=2 note=62 velocity=80 time=0.14705875
EXTRACT: note_on channel=12 note=34 velocity=0 time=0.049019583333333325
EXTRACT: note_on channel=2 note=58 velocity=86 time=0.09803916666666665
EXTRACT: note_off channel=4 note=63 velocity=80 time=0
EXTRACT: note_on channel=4 note=63 velocity=95 time=0
EXTRACT: note_off channel=7 note=62 velocity=80 time=0
EXTRACT: note_off channel=7 note=56 velocity=80 time=0
EXTRACT: note_off channel=7 note=63 velocity=80 time=0
EXTRACT: note_on channel=7 note=62 velocity=95 time=0
EXTRACT: note_on channel=7 note=56 velocity=95 time=0
EXTRACT: note_on channel=7 note=63 velocity=95 time=0
EXTRACT: note_off channel=9 note=42 velocity=80 time=0
EXTRACT: note_off channel=9 note=53 velocity=80 time=0
EXTRACT: note_on channel=9 note=42 velocity=95 time=0
EXTRACT: note_on channel=9 note=36 velocity=95 time=0
EXTRACT: note_on channel=9 note=53 velocity=63 time=0
EXTRACT: note_on channel=12 note=34 velocity=75 time=0
EXTRACT: note_off channel=2 note=58 velocity=80 time=0.14705875
EXTRACT: note_off channel=0 note=65 velocity=80 time=0.14705875
EXTRACT: note_on channel=2 note=58 velocity=86 time=0
EXTRACT: note_off channel=4 note=70 velocity=80 time=0
EXTRACT: note_on channel=4 note=70 velocity=95 time=0
EXTRACT: note_off channel=7 note=62 velocity=80 time=0
EXTRACT: note_off channel=7 note=56 velocity=80 time=0
EXTRACT: note_off channel=7 note=63 velocity=80 time=0
EXTRACT: note_on channel=7 note=62 velocity=95 time=0
EXTRACT: note_on channel=7 note=56 velocity=95 time=0
EXTRACT: note_on channel=7 note=63 velocity=95 time=0
EXTRACT: note_off channel=9 note=42 velocity=80 time=0
EXTRACT: note_off channel=9 note=36 velocity=80 time=0
EXTRACT: note_off channel=9 note=53 velocity=80 time=0
EXTRACT: note_on channel=9 note=42 velocity=95 time=0
EXTRACT: note_on channel=9 note=36 velocity=95 time=0
EXTRACT: note_on channel=9 note=53 velocity=63 time=0
EXTRACT: note_off channel=2 note=58 velocity=80 time=0.14705875
EXTRACT: note_on channel=12 note=34 velocity=0 time=0.049019583333333325
EXTRACT: note_on channel=2 note=62 velocity=86 time=0.09803916666666665
EXTRACT: note_off channel=4 note=63 velocity=80 time=0
EXTRACT: note_on channel=4 note=63 velocity=95 time=0
EXTRACT: note_off channel=7 note=62 velocity=80 time=0
EXTRACT: note_off channel=7 note=56 velocity=80 time=0
EXTRACT: note_off channel=7 note=63 velocity=80 time=0
EXTRACT: note_on channel=7 note=62 velocity=95 time=0
EXTRACT: note_on channel=7 note=56 velocity=95 time=0
EXTRACT: note_on channel=7 note=63 velocity=95 time=0
EXTRACT: note_off channel=9 note=42 velocity=80 time=0
EXTRACT: note_off channel=9 note=36 velocity=80 time=0
EXTRACT: note_off channel=9 note=53 velocity=80 time=0
EXTRACT: note_on channel=9 note=42 velocity=95 time=0
EXTRACT: note_on channel=9 note=38 velocity=95 time=0
EXTRACT: note_on channel=9 note=53 velocity=63 time=0
EXTRACT: note_on channel=12 note=34 velocity=75 time=0
EXTRACT: note_off channel=2 note=62 velocity=80 time=0.14705875
EXTRACT: note_on channel=12 note=34 velocity=0 time=0.1397058125
EXTRACT: note_on channel=2 note=58 velocity=86 time=0.007352937499999999
EXTRACT: note_off channel=4 note=70 velocity=80 time=0
EXTRACT: note_on channel=4 note=70 velocity=95 time=0
EXTRACT: note_off channel=7 note=62 velocity=80 time=0
EXTRACT: note_off channel=7 note=56 velocity=80 time=0
EXTRACT: note_off channel=7 note=63 velocity=80 time=0
EXTRACT: note_on channel=7 note=62 velocity=95 time=0
EXTRACT: note_on channel=7 note=56 velocity=95 time=0
EXTRACT: note_on channel=7 note=63 velocity=95 time=0
EXTRACT: note_off channel=9 note=42 velocity=80 time=0
EXTRACT: note_off channel=9 note=38 velocity=80 time=0
EXTRACT: note_off channel=9 note=53 velocity=80 time=0
EXTRACT: note_on channel=9 note=42 velocity=95 time=0
EXTRACT: note_on channel=9 note=53 velocity=63 time=0
EXTRACT: note_on channel=12 note=36 velocity=75 time=0
EXTRACT: note_off channel=2 note=58 velocity=80 time=0.14705875
EXTRACT: note_on channel=12 note=36 velocity=0 time=0.1397058125
EXTRACT: note_on channel=2 note=63 velocity=86 time=0.007352937499999999
EXTRACT: note_off channel=4 note=63 velocity=80 time=0
EXTRACT: note_on channel=4 note=63 velocity=95 time=0
EXTRACT: note_off channel=7 note=62 velocity=80 time=0
EXTRACT: note_off channel=7 note=56 velocity=80 time=0
EXTRACT: note_off channel=7 note=63 velocity=80 time=0
EXTRACT: note_on channel=7 note=65 velocity=95 time=0
EXTRACT: note_on channel=7 note=62 velocity=95 time=0
EXTRACT: note_on channel=7 note=56 velocity=95 time=0
EXTRACT: note_off channel=9 note=42 velocity=80 time=0
EXTRACT: note_off channel=9 note=53 velocity=80 time=0
EXTRACT: note_on channel=9 note=57 velocity=95 time=0
EXTRACT: note_on channel=9 note=36 velocity=95 time=0
EXTRACT: note_on channel=12 note=39 velocity=75 time=0
EXTRACT: note_off channel=2 note=63 velocity=80 time=0.14705875
EXTRACT: note_on channel=0 note=63 velocity=95 time=0.14705875
EXTRACT: note_on channel=2 note=58 velocity=86 time=0
EXTRACT: note_off channel=4 note=63 velocity=80 time=0
EXTRACT: note_on channel=4 note=63 velocity=95 time=0
EXTRACT: note_off channel=5 note=63 velocity=80 time=0
EXTRACT: note_on channel=5 note=63 velocity=95 time=0
EXTRACT: note_off channel=7 note=65 velocity=80 time=0
EXTRACT: note_off channel=7 note=62 velocity=80 time=0
EXTRACT: note_off channel=7 note=56 velocity=80 time=0
EXTRACT: note_on channel=7 note=65 velocity=95 time=0
EXTRACT: note_on channel=7 note=62 velocity=95 time=0
EXTRACT: note_on channel=7 note=56 velocity=95 time=0
EXTRACT: note_off channel=9 note=57 velocity=80 time=0
EXTRACT: note_off channel=9 note=36 velocity=80 time=0
EXTRACT: note_on channel=9 note=42 velocity=95 time=0
EXTRACT: note_on channel=9 note=53 velocity=63 time=0
EXTRACT: note_off channel=2 note=58 velocity=80 time=0.14705875
EXTRACT: note_on channel=12 note=39 velocity=0 time=0.049019583333333325
EXTRACT: note_off channel=0 note=63 velocity=80 time=0.09803916666666665
EXTRACT: note_on channel=0 note=63 velocity=95 time=0
EXTRACT: note_on channel=2 note=58 velocity=86 time=0
EXTRACT: note_off channel=4 note=70 velocity=80 time=0
EXTRACT: note_on channel=4 note=70 velocity=95 time=0
EXTRACT: note_off channel=5 note=58 velocity=80 time=0
EXTRACT: note_on channel=5 note=58 velocity=95 time=0
EXTRACT: note_off channel=7 note=65 velocity=80 time=0
EXTRACT: note_off channel=7 note=62 velocity=80 time=0
EXTRACT: note_off channel=7 note=56 velocity=80 time=0
EXTRACT: note_on channel=7 note=65 velocity=95 time=0
EXTRACT: note_on channel=7 note=62 velocity=95 time=0
EXTRACT: note_on channel=7 note=56 velocity=95 time=0
EXTRACT: note_off channel=9 note=42 velocity=80 time=0
EXTRACT: note_off channel=9 note=53 velocity=80 time=0
EXTRACT: note_on channel=9 note=42 velocity=79 time=0
EXTRACT: note_on channel=9 note=38 velocity=95 time=0
EXTRACT: note_on channel=9 note=53 velocity=63 time=0
EXTRACT: note_on channel=12 note=39 velocity=75 time=0
EXTRACT: note_off channel=2 note=58 velocity=80 time=0.14705875
EXTRACT: note_off channel=0 note=63 velocity=80 time=0.14705875
EXTRACT: note_on channel=0 note=63 velocity=95 time=0
EXTRACT: note_on channel=2 note=63 velocity=86 time=0
EXTRACT: note_off channel=4 note=63 velocity=80 time=0
EXTRACT: note_on channel=4 note=63 velocity=95 time=0
EXTRACT: note_off channel=5 note=70 velocity=80 time=0
EXTRACT: note_on channel=5 note=65 velocity=95 time=0
EXTRACT: note_off channel=7 note=65 velocity=80 time=0
EXTRACT: note_off channel=7 note=62 velocity=80 time=0
EXTRACT: note_off channel=7 note=56 velocity=80 time=0
EXTRACT: note_on channel=7 note=65 velocity=95 time=0
EXTRACT: note_on channel=7 note=62 velocity=95 time=0
EXTRACT: note_on channel=7 note=56 velocity=95 time=0
EXTRACT: note_off channel=9 note=42 velocity=80 time=0
EXTRACT: note_off channel=9 note=38 velocity=80 time=0
EXTRACT: note_off channel=9 note=53 velocity=80 time=0
EXTRACT: note_on channel=9 note=42 velocity=79 time=0
EXTRACT: note_on channel=9 note=53 velocity=63 time=0
EXTRACT: note_off channel=2 note=63 velocity=80 time=0.14705875
EXTRACT: note_on channel=12 note=39 velocity=0 time=0.049019583333333325
EXTRACT: note_off channel=0 note=63 velocity=80 time=0.09803916666666665
EXTRACT: note_on channel=0 note=63 velocity=95 time=0
EXTRACT: note_on channel=2 note=58 velocity=86 time=0
EXTRACT: note_off channel=4 note=63 velocity=80 time=0
EXTRACT: note_on channel=4 note=63 velocity=95 time=0
EXTRACT: note_off channel=7 note=65 velocity=80 time=0
EXTRACT: note_off channel=7 note=62 velocity=80 time=0
EXTRACT: note_off channel=7 note=56 velocity=80 time=0
EXTRACT: note_on channel=7 note=65 velocity=95 time=0
EXTRACT: note_on channel=7 note=62 velocity=95 time=0
EXTRACT: note_on channel=7 note=56 velocity=95 time=0
EXTRACT: note_off channel=9 note=42 velocity=80 time=0
EXTRACT: note_off channel=9 note=53 velocity=80 time=0
EXTRACT: note_on channel=9 note=42 velocity=79 time=0
EXTRACT: note_on channel=9 note=36 velocity=95 time=0
EXTRACT: note_on channel=9 note=53 velocity=63 time=0
EXTRACT: note_on channel=12 note=39 velocity=75 time=0
EXTRACT: note_off channel=2 note=58 velocity=80 time=0.14705875
EXTRACT: note_on channel=2 note=58 velocity=86 time=0.14705875
EXTRACT: note_off channel=4 note=70 velocity=80 time=0
EXTRACT: note_on channel=4 note=70 velocity=95 time=0
EXTRACT: note_off channel=7 note=65 velocity=80 time=0
EXTRACT: note_off channel=7 note=62 velocity=80 time=0
EXTRACT: note_off channel=7 note=56 velocity=80 time=0
EXTRACT: note_on channel=7 note=65 velocity=95 time=0
EXTRACT: note_on channel=7 note=62 velocity=95 time=0
EXTRACT: note_on channel=7 note=56 velocity=95 time=0
EXTRACT: note_off channel=9 note=42 velocity=80 time=0
EXTRACT: note_off channel=9 note=36 velocity=80 time=0
EXTRACT: note_off channel=9 note=53 velocity=80 time=0
EXTRACT: note_on channel=9 note=42 velocity=79 time=0
EXTRACT: note_on channel=9 note=36 velocity=95 time=0
EXTRACT: note_on channel=9 note=53 velocity=63 time=0
EXTRACT: note_off channel=2 note=58 velocity=80 time=0.14705875
EXTRACT: note_on channel=12 note=39 velocity=0 time=0.049019583333333325
EXTRACT: note_off channel=0 note=63 velocity=80 time=0.09803916666666665
EXTRACT: note_on channel=0 note=63 velocity=95 time=0
EXTRACT: note_on channel=2 note=63 velocity=86 time=0
EXTRACT: note_off channel=4 note=63 velocity=80 time=0
EXTRACT: note_on channel=4 note=63 velocity=95 time=0
EXTRACT: note_off channel=7 note=65 velocity=80 time=0
EXTRACT: note_off channel=7 note=62 velocity=80 time=0
EXTRACT: note_off channel=7 note=56 velocity=80 time=0
EXTRACT: note_on channel=7 note=65 velocity=95 time=0
EXTRACT: note_on channel=7 note=62 velocity=95 time=0
EXTRACT: note_on channel=7 note=56 velocity=95 time=0
EXTRACT: note_off channel=9 note=42 velocity=80 time=0
EXTRACT: note_off channel=9 note=36 velocity=80 time=0
EXTRACT: note_off channel=9 note=53 velocity=80 time=0
EXTRACT: note_on channel=9 note=42 velocity=79 time=0
EXTRACT: note_on channel=9 note=38 velocity=95 time=0
EXTRACT: note_on channel=9 note=53 velocity=63 time=0
EXTRACT: note_on channel=12 note=39 velocity=75 time=0
EXTRACT: note_off channel=2 note=63 velocity=80 time=0.14705875
EXTRACT: note_on channel=12 note=39 velocity=0 time=0.1397058125
EXTRACT: note_off channel=0 note=63 velocity=80 time=0.007352937499999999
EXTRACT: note_on channel=0 note=63 velocity=95 time=0
EXTRACT: note_on channel=2 note=58 velocity=86 time=0
EXTRACT: note_off channel=4 note=70 velocity=80 time=0
EXTRACT: note_on channel=4 note=70 velocity=95 time=0
EXTRACT: note_off channel=7 note=65 velocity=80 time=0
EXTRACT: note_off channel=7 note=62 velocity=80 time=0
EXTRACT: note_off channel=7 note=56 velocity=80 time=0
EXTRACT: note_on channel=7 note=65 velocity=95 time=0
EXTRACT: note_on channel=7 note=62 velocity=95 time=0
EXTRACT: note_on channel=7 note=56 velocity=95 time=0
EXTRACT: note_off channel=9 note=42 velocity=80 time=0
EXTRACT: note_off channel=9 note=38 velocity=80 time=0
EXTRACT: note_off channel=9 note=53 velocity=80 time=0
EXTRACT: note_on channel=9 note=42 velocity=79 time=0
EXTRACT: note_on channel=9 note=53 velocity=63 time=0
EXTRACT: note_on channel=12 note=39 velocity=75 time=0
EXTRACT: note_off channel=2 note=58 velocity=80 time=0.14705875
EXTRACT: note_on channel=12 note=39 velocity=0 time=0.1397058125
EXTRACT: note_off channel=0 note=63 velocity=80 time=0.007352937499999999
EXTRACT: note_on channel=0 note=62 velocity=95 time=0
EXTRACT: note_on channel=2 note=63 velocity=86 time=0
EXTRACT: note_off channel=4 note=63 velocity=80 time=0
EXTRACT: note_on channel=4 note=63 velocity=95 time=0
EXTRACT: note_off channel=7 note=65 velocity=80 time=0
EXTRACT: note_off channel=7 note=62 velocity=80 time=0
EXTRACT: note_off channel=7 note=56 velocity=80 time=0
EXTRACT: note_on channel=7 note=62 velocity=95 time=0
EXTRACT: note_on channel=7 note=56 velocity=95 time=0
EXTRACT: note_on channel=7 note=63 velocity=95 time=0
EXTRACT: note_off channel=9 note=42 velocity=80 time=0
EXTRACT: note_off channel=9 note=53 velocity=80 time=0
EXTRACT: note_on channel=9 note=42 velocity=95 time=0
EXTRACT: note_on channel=9 note=36 velocity=95 time=0
EXTRACT: note_on channel=12 note=34 velocity=75 time=0
EXTRACT: note_off channel=2 note=63 velocity=80 time=0.14705875
EXTRACT: note_off channel=0 note=62 velocity=80 time=0.14705875
EXTRACT: note_on channel=0 note=63 velocity=95 time=0
EXTRACT: note_on channel=2 note=58 velocity=86 time=0
EXTRACT: note_off channel=4 note=63 velocity=80 time=0
EXTRACT: note_on channel=4 note=63 velocity=95 time=0
EXTRACT: note_off channel=5 note=63 velocity=80 time=0
EXTRACT: note_on channel=5 note=62 velocity=95 time=0
EXTRACT: note_off channel=7 note=62 velocity=80 time=0
EXTRACT: note_off channel=7 note=56 velocity=80 time=0
EXTRACT: note_off channel=7 note=63 velocity=80 time=0
EXTRACT: note_on channel=7 note=62 velocity=95 time=0
EXTRACT: note_on channel=7 note=56 velocity=95 time=0
EXTRACT: note_on channel=7 note=63 velocity=95 time=0
EXTRACT: note_off channel=9 note=42 velocity=80 time=0
EXTRACT: note_off channel=9 note=36 velocity=80 time=0
EXTRACT: note_on channel=9 note=42 velocity=95 time=0
EXTRACT: note_on channel=9 note=53 velocity=63 time=0
EXTRACT: note_off channel=2 note=58 velocity=80 time=0.14705875
EXTRACT: note_on channel=12 note=34 velocity=0 time=0.049019583333333325
EXTRACT: note_on channel=2 note=58 velocity=86 time=0.09803916666666665
EXTRACT: note_off channel=4 note=70 velocity=80 time=0
EXTRACT: note_on channel=4 note=70 velocity=95 time=0
EXTRACT: note_off channel=5 note=58 velocity=80 time=0
EXTRACT: note_on channel=5 note=58 velocity=95 time=0
EXTRACT: note_off channel=7 note=62 velocity=80 time=0
EXTRACT: note_off channel=7 note=56 velocity=80 time=0
EXTRACT: note_off channel=7 note=63 velocity=80 time=0
EXTRACT: note_on channel=7 note=62 velocity=95 time=0
EXTRACT: note_on channel=7 note=56 velocity=95 time=0
EXTRACT: note_on channel=7 note=63 velocity=95 time=0
EXTRACT: note_off channel=9 note=42 velocity=80 time=0
EXTRACT: note_off channel=9 note=53 velocity=80 time=0
EXTRACT: note_on channel=9 note=42 velocity=95 time=0
EXTRACT: note_on channel=9 note=38 velocity=95 time=0
EXTRACT: note_on channel=9 note=53 velocity=63 time=0
EXTRACT: note_on channel=12 note=34 velocity=75 time=0
EXTRACT: note_off channel=2 note=58 velocity=80 time=0.14705875
EXTRACT: note_off channel=0 note=63 velocity=80 time=0.14705875
EXTRACT: note_on channel=0 note=63 velocity=95 time=0
EXTRACT: note_on channel=2 note=62 velocity=86 time=0
EXTRACT: note_off channel=4 note=63 velocity=80 time=0
EXTRACT: note_on channel=4 note=63 velocity=95 time=0
EXTRACT: note_off channel=5 note=65 velocity=80 time=0
EXTRACT: note_on channel=5 note=65 velocity=95 time=0
EXTRACT: note_off channel=7 note=62 velocity=80 time=0
EXTRACT: note_off channel=7 note=56 velocity=80 time=0
EXTRACT: note_off channel=7 note=63 velocity=80 time=0
EXTRACT: note_on channel=7 note=62 velocity=95 time=0
EXTRACT: note_on channel=7 note=56 velocity=95 time=0
EXTRACT: note_on channel=7 note=63 velocity=95 time=0
EXTRACT: note_off channel=9 note=42 velocity=80 time=0
EXTRACT: note_off channel=9 note=38 velocity=80 time=0
EXTRACT: note_off channel=9 note=53 velocity=80 time=0
EXTRACT: note_on channel=9 note=42 velocity=95 time=0
EXTRACT: note_on channel=9 note=53 velocity=63 time=0
EXTRACT: note_off channel=2 note=62 velocity=80 time=0.14705875
EXTRACT: note_on channel=12 note=34 velocity=0 time=0.049019583333333325
EXTRACT: note_on channel=2 note=58 velocity=86 time=0.09803916666666665
EXTRACT: note_off channel=4 note=63 velocity=80 time=0
EXTRACT: note_on channel=4 note=63 velocity=95 time=0
EXTRACT: note_off channel=7 note=62 velocity=80 time=0
EXTRACT: note_off channel=7 note=56 velocity=80 time=0
EXTRACT: note_off channel=7 note=63 velocity=80 time=0
EXTRACT: note_on channel=7 note=62 velocity=95 time=0
EXTRACT: note_on channel=7 note=56 velocity=95 time=0
EXTRACT: note_on channel=7 note=63 velocity=95 time=0
EXTRACT: note_off channel=9 note=42 velocity=80 time=0
EXTRACT: note_off channel=9 note=53 velocity=80 time=0
EXTRACT: note_on channel=9 note=42 velocity=95 time=0
EXTRACT: note_on channel=9 note=36 velocity=95 time=0
EXTRACT: note_on channel=9 note=53 velocity=63 time=0
EXTRACT: note_on channel=12 note=34 velocity=75 time=0
EXTRACT: note_off channel=2 note=58 velocity=80 time=0.14705875
EXTRACT: note_off channel=0 note=63 velocity=80 time=0.14705875
EXTRACT: note_on channel=0 note=60 velocity=95 time=0
EXTRACT: note_on channel=2 note=58 velocity=86 time=0
EXTRACT: note_off channel=4 note=70 velocity=80 time=0
EXTRACT: note_on channel=4 note=70 velocity=95 time=0
EXTRACT: note_off channel=7 note=62 velocity=80 time=0
EXTRACT: note_off channel=7 note=56 velocity=80 time=0
EXTRACT: note_off channel=7 note=63 velocity=80 time=0
EXTRACT: note_on channel=7 note=62 velocity=95 time=0
EXTRACT: note_on channel=7 note=56 velocity=95 time=0
EXTRACT: note_on channel=7 note=63 velocity=95 time=0
EXTRACT: note_off channel=9 note=42 velocity=80 time=0
EXTRACT: note_off channel=9 note=36 velocity=80 time=0
EXTRACT: note_off channel=9 note=53 velocity=80 time=0
EXTRACT: note_on channel=9 note=42 velocity=95 time=0
EXTRACT: note_on channel=9 note=36 velocity=95 time=0
EXTRACT: note_on channel=9 note=53 velocity=63 time=0
EXTRACT: note_off channel=2 note=58 velocity=80 time=0.14705875
EXTRACT: note_on channel=12 note=34 velocity=0 time=0.049019583333333325
EXTRACT: note_off channel=0 note=60 velocity=80 time=0.09803916666666665
EXTRACT: note_on channel=2 note=62 velocity=86 time=0
EXTRACT: note_off channel=4 note=63 velocity=80 time=0
EXTRACT: note_on channel=4 note=63 velocity=95 time=0
EXTRACT: note_off channel=7 note=62 velocity=80 time=0
EXTRACT: note_off channel=7 note=56 velocity=80 time=0
EXTRACT: note_off channel=7 note=63 velocity=80 time=0
EXTRACT: note_on channel=7 note=62 velocity=95 time=0
EXTRACT: note_on channel=7 note=56 velocity=95 time=0
EXTRACT: note_on channel=7 note=63 velocity=95 time=0
EXTRACT: note_off channel=9 note=42 velocity=80 time=0
EXTRACT: note_off channel=9 note=36 velocity=80 time=0
EXTRACT: note_off channel=9 note=53 velocity=80 time=0
EXTRACT: note_on channel=9 note=42 velocity=95 time=0
EXTRACT: note_on channel=9 note=38 velocity=95 time=0
EXTRACT: note_on channel=9 note=53 velocity=63 time=0
EXTRACT: note_on channel=12 note=34 velocity=75 time=0
EXTRACT: note_off channel=2 note=62 velocity=80 time=0.14705875
EXTRACT: note_on channel=12 note=34 velocity=0 time=0.1397058125
EXTRACT: note_on channel=2 note=58 velocity=86 time=0.007352937499999999
EXTRACT: note_off channel=4 note=70 velocity=80 time=0
EXTRACT: note_on channel=4 note=70 velocity=95 time=0
EXTRACT: note_off channel=7 note=62 velocity=80 time=0
EXTRACT: note_off channel=7 note=56 velocity=80 time=0
EXTRACT: note_off channel=7 note=63 velocity=80 time=0
EXTRACT: note_on channel=7 note=62 velocity=95 time=0
EXTRACT: note_on channel=7 note=56 velocity=95 time=0
EXTRACT: note_on channel=7 note=63 velocity=95 time=0
EXTRACT: note_off channel=9 note=42 velocity=80 time=0
EXTRACT: note_off channel=9 note=38 velocity=80 time=0
EXTRACT: note_off channel=9 note=53 velocity=80 time=0
EXTRACT: note_on channel=9 note=42 velocity=95 time=0
EXTRACT: note_on channel=9 note=53 velocity=63 time=0
EXTRACT: note_on channel=12 note=34 velocity=75 time=0
EXTRACT: note_off channel=2 note=58 velocity=80 time=0.14705875
EXTRACT: note_on channel=12 note=34 velocity=0 time=0.1397058125
EXTRACT: note_on channel=2 note=63 velocity=86 time=0.007352937499999999
EXTRACT: note_off channel=4 note=63 velocity=80 time=0
EXTRACT: note_on channel=4 note=63 velocity=95 time=0
EXTRACT: note_off channel=5 note=62 velocity=80 time=0
EXTRACT: note_off channel=5 note=58 velocity=80 time=0
EXTRACT: note_off channel=5 note=65 velocity=80 time=0
EXTRACT: note_off channel=7 note=62 velocity=80 time=0
EXTRACT: note_off channel=7 note=56 velocity=80 time=0
EXTRACT: note_off channel=7 note=63 velocity=80 time=0
EXTRACT: note_on channel=7 note=67 velocity=95 time=0
EXTRACT: note_on channel=7 note=62 velocity=95 time=0
EXTRACT: note_on channel=7 note=56 velocity=95 time=0
EXTRACT: note_off channel=9 note=42 velocity=80 time=0
EXTRACT: note_off channel=9 note=53 velocity=80 time=0
EXTRACT: note_on channel=9 note=42 velocity=95 time=0
EXTRACT: note_on channel=9 note=36 velocity=95 time=0
EXTRACT: note_on channel=12 note=36 velocity=75 time=0
EXTRACT: note_off channel=2 note=63 velocity=80 time=0.14705875
EXTRACT: note_on channel=2 note=58 velocity=86 time=0.14705875
EXTRACT: note_off channel=4 note=63 velocity=80 time=0
EXTRACT: note_on channel=4 note=63 velocity=95 time=0
EXTRACT: note_on channel=5 note=63 velocity=95 time=0
EXTRACT: note_off channel=7 note=67 velocity=80 time=0
EXTRACT: note_off channel=7 note=62 velocity=80 time=0
EXTRACT: note_off channel=7 note=56 velocity=80 time=0
EXTRACT: note_on channel=7 note=67 velocity=95 time=0
EXTRACT: note_on channel=7 note=62 velocity=95 time=0
EXTRACT: note_on channel=7 note=56 velocity=95 time=0
EXTRACT: note_off channel=9 note=42 velocity=80 time=0
EXTRACT: note_off channel=9 note=36 velocity=80 time=0
EXTRACT: note_on channel=9 note=42 velocity=95 time=0
EXTRACT: note_on channel=9 note=53 velocity=63 time=0
EXTRACT: note_off channel=2 note=58 velocity=80 time=0.14705875
EXTRACT: note_on channel=12 note=36 velocity=0 time=0.049019583333333325
EXTRACT: note_on channel=0 note=62 velocity=95 time=0.09803916666666665
EXTRACT: note_on channel=2 note=58 velocity=86 time=0
EXTRACT: note_off channel=4 note=70 velocity=80 time=0
EXTRACT: note_on channel=4 note=70 velocity=95 time=0
EXTRACT: note_on channel=5 note=58 velocity=95 time=0
EXTRACT: note_off channel=7 note=67 velocity=80 time=0
EXTRACT: note_off channel=7 note=62 velocity=80 time=0
EXTRACT: note_off channel=7 note=56 velocity=80 time=0
EXTRACT: note_on channel=7 note=67 velocity=95 time=0
EXTRACT: note_on channel=7 note=62 velocity=95 time=0
EXTRACT: note_on channel=7 note=56 velocity=95 time=0
EXTRACT: note_off channel=9 note=42 velocity=80 time=0
EXTRACT: note_off channel=9 note=53 velocity=80 time=0
EXTRACT: note_on channel=9 note=42 velocity=95 time=0
EXTRACT: note_on channel=9 note=38 velocity=95 time=0
EXTRACT: note_on channel=9 note=53 velocity=63 time=0
EXTRACT: note_on channel=12 note=36 velocity=75 time=0
EXTRACT: note_off channel=2 note=58 velocity=80 time=0.14705875
EXTRACT: note_off channel=0 note=62 velocity=80 time=0.14705875
EXTRACT: note_on channel=0 note=63 velocity=95 time=0
EXTRACT: note_on channel=2 note=63 velocity=86 time=0
EXTRACT: note_off channel=4 note=63 velocity=80 time=0
EXTRACT: note_on channel=4 note=63 velocity=95 time=0
EXTRACT: note_on channel=5 note=67 velocity=95 time=0
EXTRACT: note_off channel=7 note=67 velocity=80 time=0
EXTRACT: note_off channel=7 note=62 velocity=80 time=0
EXTRACT: note_off channel=7 note=56 velocity=80 time=0
EXTRACT: note_on channel=7 note=67 velocity=95 time=0
EXTRACT: note_on channel=7 note=62 velocity=95 time=0
EXTRACT: note_on channel=7 note=56 velocity=95 time=0
EXTRACT: note_off channel=9 note=42 velocity=80 time=0
EXTRACT: note_off channel=9 note=38 velocity=80 time=0
EXTRACT: note_off channel=9 note=53 velocity=80 time=0
EXTRACT: note_on channel=9 note=42 velocity=95 time=0
EXTRACT: note_on channel=9 note=53 velocity=63 time=0
EXTRACT: note_off channel=2 note=63 velocity=80 time=0.14705875
EXTRACT: note_on channel=12 note=36 velocity=0 time=0.049019583333333325
EXTRACT: note_off channel=0 note=63 velocity=80 time=0.09803916666666665
EXTRACT: note_on channel=0 note=63 velocity=95 time=0
EXTRACT: note_on channel=2 note=58 velocity=86 time=0
EXTRACT: note_off channel=4 note=63 velocity=80 time=0
EXTRACT: note_on channel=4 note=63 velocity=95 time=0
EXTRACT: note_off channel=7 note=67 velocity=80 time=0
EXTRACT: note_off channel=7 note=62 velocity=80 time=0
EXTRACT: note_off channel=7 note=56 velocity=80 time=0
EXTRACT: note_on channel=7 note=67 velocity=95 time=0
EXTRACT: note_on channel=7 note=62 velocity=95 time=0
EXTRACT: note_on channel=7 note=56 velocity=95 time=0
EXTRACT: note_off channel=9 note=42 velocity=80 time=0
EXTRACT: note_off channel=9 note=53 velocity=80 time=0
EXTRACT: note_on channel=9 note=42 velocity=95 time=0
EXTRACT: note_on channel=9 note=36 velocity=95 time=0
EXTRACT: note_on channel=9 note=53 velocity=63 time=0
EXTRACT: note_on channel=12 note=36 velocity=75 time=0
EXTRACT: note_off channel=2 note=58 velocity=80 time=0.14705875
EXTRACT: note_off channel=0 note=63 velocity=80 time=0.14705875
EXTRACT: note_on channel=0 note=63 velocity=95 time=0
EXTRACT: note_on channel=2 note=58 velocity=86 time=0
EXTRACT: note_off channel=4 note=70 velocity=80 time=0
EXTRACT: note_on channel=4 note=70 velocity=95 time=0
EXTRACT: note_off channel=7 note=67 velocity=80 time=0
EXTRACT: note_off channel=7 note=62 velocity=80 time=0
EXTRACT: note_off channel=7 note=56 velocity=80 time=0
EXTRACT: note_on channel=7 note=67 velocity=95 time=0
EXTRACT: note_on channel=7 note=62 velocity=95 time=0
EXTRACT: note_on channel=7 note=56 velocity=95 time=0
EXTRACT: note_off channel=9 note=42 velocity=80 time=0
EXTRACT: note_off channel=9 note=36 velocity=80 time=0
EXTRACT: note_off channel=9 note=53 velocity=80 time=0
EXTRACT: note_on channel=9 note=42 velocity=95 time=0
EXTRACT: note_on channel=9 note=36 velocity=95 time=0
EXTRACT: note_on channel=9 note=53 velocity=63 time=0
EXTRACT: note_off channel=2 note=58 velocity=80 time=0.14705875
EXTRACT: note_on channel=12 note=36 velocity=0 time=0.049019583333333325
EXTRACT: note_off channel=0 note=63 velocity=80 time=0.09803916666666665
EXTRACT: note_on channel=0 note=63 velocity=95 time=0
EXTRACT: note_on channel=2 note=63 velocity=86 time=0
EXTRACT: note_off channel=4 note=63 velocity=80 time=0
EXTRACT: note_on channel=4 note=63 velocity=95 time=0
EXTRACT: note_off channel=7 note=67 velocity=80 time=0
EXTRACT: note_off channel=7 note=62 velocity=80 time=0
EXTRACT: note_off channel=7 note=56 velocity=80 time=0
EXTRACT: note_on channel=7 note=67 velocity=95 time=0
EXTRACT: note_on channel=7 note=62 velocity=95 time=0
EXTRACT: note_on channel=7 note=56 velocity=95 time=0
EXTRACT: note_off channel=9 note=42 velocity=80 time=0
EXTRACT: note_off channel=9 note=36 velocity=80 time=0
EXTRACT: note_off channel=9 note=53 velocity=80 time=0
EXTRACT: note_on channel=9 note=42 velocity=95 time=0
EXTRACT: note_on channel=9 note=38 velocity=95 time=0
EXTRACT: note_on channel=9 note=53 velocity=63 time=0
EXTRACT: note_on channel=12 note=36 velocity=75 time=0
EXTRACT: note_off channel=2 note=63 velocity=80 time=0.14705875
EXTRACT: note_on channel=12 note=36 velocity=0 time=0.1397058125
EXTRACT: note_off channel=0 note=63 velocity=80 time=0.007352937499999999
EXTRACT: note_on channel=0 note=58 velocity=95 time=0
EXTRACT: note_on channel=2 note=58 velocity=86 time=0
EXTRACT: note_off channel=4 note=70 velocity=80 time=0
EXTRACT: note_on channel=4 note=70 velocity=95 time=0
EXTRACT: note_off channel=7 note=67 velocity=80 time=0
EXTRACT: note_off channel=7 note=62 velocity=80 time=0
EXTRACT: note_off channel=7 note=56 velocity=80 time=0
EXTRACT: note_on channel=7 note=67 velocity=95 time=0
EXTRACT: note_on channel=7 note=62 velocity=95 time=0
EXTRACT: note_on channel=7 note=56 velocity=95 time=0
EXTRACT: note_off channel=9 note=42 velocity=80 time=0
EXTRACT: note_off channel=9 note=38 velocity=80 time=0
EXTRACT: note_off channel=9 note=53 velocity=80 time=0
EXTRACT: note_on channel=9 note=42 velocity=95 time=0
EXTRACT: note_on channel=9 note=53 velocity=63 time=0
EXTRACT: note_on channel=12 note=36 velocity=75 time=0
EXTRACT: note_off channel=2 note=58 velocity=80 time=0.14705875
EXTRACT: note_on channel=12 note=36 velocity=0 time=0.1397058125
EXTRACT: note_off channel=0 note=58 velocity=80 time=0.007352937499999999
EXTRACT: note_on channel=0 note=62 velocity=95 time=0
EXTRACT: note_on channel=2 note=63 velocity=86 time=0
EXTRACT: note_off channel=4 note=63 velocity=80 time=0
EXTRACT: note_on channel=4 note=63 velocity=95 time=0
EXTRACT: note_off channel=7 note=67 velocity=80 time=0
EXTRACT: note_off channel=7 note=62 velocity=80 time=0
EXTRACT: note_off channel=7 note=56 velocity=80 time=0
EXTRACT: note_on channel=7 note=67 velocity=95 time=0
EXTRACT: note_on channel=7 note=62 velocity=95 time=0
EXTRACT: note_on channel=7 note=55 velocity=95 time=0
EXTRACT: note_off channel=9 note=42 velocity=80 time=0
EXTRACT: note_off channel=9 note=53 velocity=80 time=0
EXTRACT: note_on channel=9 note=42 velocity=95 time=0
EXTRACT: note_on channel=9 note=36 velocity=95 time=0
EXTRACT: note_on channel=12 note=32 velocity=75 time=0
EXTRACT: note_off channel=2 note=63 velocity=80 time=0.14705875
EXTRACT: note_off channel=0 note=62 velocity=80 time=0.14705875
EXTRACT: note_on channel=0 note=63 velocity=95 time=0
EXTRACT: note_on channel=2 note=58 velocity=86 time=0
EXTRACT: note_off channel=4 note=63 velocity=80 time=0
EXTRACT: note_on channel=4 note=63 velocity=95 time=0
EXTRACT: note_off channel=5 note=63 velocity=80 time=0
EXTRACT: note_on channel=5 note=63 velocity=95 time=0
EXTRACT: note_off channel=7 note=67 velocity=80 time=0
EXTRACT: note_off channel=7 note=62 velocity=80 time=0
EXTRACT: note_off channel=7 note=55 velocity=80 time=0
EXTRACT: note_on channel=7 note=67 velocity=95 time=0
EXTRACT: note_on channel=7 note=62 velocity=95 time=0
EXTRACT: note_on channel=7 note=55 velocity=95 time=0
EXTRACT: note_off channel=9 note=42 velocity=80 time=0
EXTRACT: note_off channel=9 note=36 velocity=80 time=0
EXTRACT: note_on channel=9 note=42 velocity=95 time=0
EXTRACT: note_on channel=9 note=53 velocity=63 time=0
EXTRACT: note_off channel=2 note=58 velocity=80 time=0.14705875
EXTRACT: note_on channel=12 note=32 velocity=0 time=0.049019583333333325
EXTRACT: note_on channel=2 note=58 velocity=86 time=0.09803916666666665
EXTRACT: note_off channel=4 note=70 velocity=80 time=0
EXTRACT: note_on channel=4 note=70 velocity=95 time=0
EXTRACT: note_off channel=5 note=58 velocity=80 time=0
EXTRACT: note_on channel=5 note=60 velocity=95 time=0
EXTRACT: note_off channel=7 note=67 velocity=80 time=0
EXTRACT: note_off channel=7 note=62 velocity=80 time=0
EXTRACT: note_off channel=7 note=55 velocity=80 time=0
EXTRACT: note_on channel=7 note=67 velocity=95 time=0
EXTRACT: note_on channel=7 note=62 velocity=95 time=0
EXTRACT: note_on channel=7 note=55 velocity=95 time=0
EXTRACT: note_off channel=9 note=42 velocity=80 time=0
EXTRACT: note_off channel=9 note=53 velocity=80 time=0
EXTRACT: note_on channel=9 note=42 velocity=95 time=0
EXTRACT: note_on channel=9 note=38 velocity=95 time=0
EXTRACT: note_on channel=9 note=53 velocity=63 time=0
EXTRACT: note_on channel=12 note=32 velocity=75 time=0
EXTRACT: note_off channel=2 note=58 velocity=80 time=0.14705875
EXTRACT: note_off channel=0 note=63 velocity=80 time=0.14705875
EXTRACT: note_on channel=0 note=63 velocity=95 time=0
EXTRACT: note_on channel=2 note=63 velocity=86 time=0
EXTRACT: note_off channel=4 note=63 velocity=80 time=0
EXTRACT: note_on channel=4 note=63 velocity=95 time=0
EXTRACT: note_off channel=5 note=67 velocity=80 time=0
EXTRACT: note_on channel=5 note=68 velocity=95 time=0
EXTRACT: note_off channel=7 note=67 velocity=80 time=0
EXTRACT: note_off channel=7 note=62 velocity=80 time=0
EXTRACT: note_off channel=7 note=55 velocity=80 time=0
EXTRACT: note_on channel=7 note=67 velocity=95 time=0
EXTRACT: note_on channel=7 note=62 velocity=95 time=0
EXTRACT: note_on channel=7 note=55 velocity=95 time=0
EXTRACT: note_off channel=9 note=42 velocity=80 time=0
EXTRACT: note_off channel=9 note=38 velocity=80 time=0
EXTRACT: note_off channel=9 note=53 velocity=80 time=0
EXTRACT: note_on channel=9 note=42 velocity=95 time=0
EXTRACT: note_on channel=9 note=36 velocity=95 time=0
EXTRACT: note_on channel=9 note=53 velocity=63 time=0
EXTRACT: note_off channel=2 note=63 velocity=80 time=0.14705875
EXTRACT: note_on channel=12 note=32 velocity=0 time=0.049019583333333325
EXTRACT: note_off channel=0 note=63 velocity=80 time=0.09803916666666665
EXTRACT: note_on channel=2 note=58 velocity=86 time=0
EXTRACT: note_off channel=4 note=63 velocity=80 time=0
EXTRACT: note_on channel=4 note=63 velocity=95 time=0
EXTRACT: note_off channel=7 note=67 velocity=80 time=0
EXTRACT: note_off channel=7 note=62 velocity=80 time=0
EXTRACT: note_off channel=7 note=55 velocity=80 time=0
EXTRACT: note_on channel=7 note=67 velocity=95 time=0
EXTRACT: note_on channel=7 note=62 velocity=95 time=0
EXTRACT: note_on channel=7 note=55 velocity=95 time=0
EXTRACT: note_off channel=9 note=42 velocity=80 time=0
EXTRACT: note_off channel=9 note=36 velocity=80 time=0
EXTRACT: note_off channel=9 note=53 velocity=80 time=0
EXTRACT: note_on channel=9 note=42 velocity=95 time=0
EXTRACT: note_on channel=9 note=36 velocity=79 time=0
EXTRACT: note_on channel=9 note=38 velocity=79 time=0
EXTRACT: note_on channel=9 note=53 velocity=63 time=0
EXTRACT: note_on channel=12 note=32 velocity=75 time=0
EXTRACT: note_off channel=2 note=58 velocity=80 time=0.14705875
EXTRACT: note_on channel=0 note=62 velocity=95 time=0.14705875
EXTRACT: note_on channel=6 note=56 velocity=95 time=0
EXTRACT: note_on channel=2 note=58 velocity=86 time=0
EXTRACT: note_off channel=4 note=70 velocity=80 time=0
EXTRACT: note_on channel=4 note=70 velocity=95 time=0
EXTRACT: note_off channel=7 note=67 velocity=80 time=0
EXTRACT: note_off channel=7 note=62 velocity=80 time=0
EXTRACT: note_off channel=7 note=55 velocity=80 time=0
EXTRACT: note_on channel=7 note=67 velocity=95 time=0
EXTRACT: note_on channel=7 note=62 velocity=95 time=0
EXTRACT: note_on channel=7 note=55 velocity=95 time=0
EXTRACT: note_off channel=9 note=42 velocity=80 time=0
EXTRACT: note_off channel=9 note=36 velocity=80 time=0
EXTRACT: note_off channel=9 note=38 velocity=80 time=0
EXTRACT: note_off channel=9 note=53 velocity=80 time=0
EXTRACT: note_on channel=9 note=42 velocity=95 time=0
EXTRACT: note_on channel=9 note=36 velocity=95 time=0
EXTRACT: note_on channel=9 note=38 velocity=79 time=0
EXTRACT: note_on channel=9 note=53 velocity=95 time=0
EXTRACT: note_off channel=2 note=58 velocity=80 time=0.14705875
EXTRACT: note_on channel=12 note=32 velocity=0 time=0.049019583333333325
EXTRACT: note_off channel=0 note=62 velocity=80 time=0.09803916666666665
EXTRACT: note_on channel=0 note=63 velocity=95 time=0
EXTRACT: note_off channel=6 note=56 velocity=80 time=0
EXTRACT: note_on channel=6 note=56 velocity=95 time=0
EXTRACT: note_on channel=2 note=63 velocity=86 time=0
EXTRACT: note_off channel=4 note=63 velocity=80 time=0
EXTRACT: note_on channel=4 note=63 velocity=95 time=0
EXTRACT: note_off channel=7 note=67 velocity=80 time=0
EXTRACT: note_off channel=7 note=62 velocity=80 time=0
EXTRACT: note_off channel=7 note=55 velocity=80 time=0
EXTRACT: note_on channel=7 note=67 velocity=95 time=0
EXTRACT: note_on channel=7 note=62 velocity=95 time=0
EXTRACT: note_on channel=7 note=55 velocity=95 time=0
EXTRACT: note_off channel=9 note=42 velocity=80 time=0
EXTRACT: note_off channel=9 note=36 velocity=80 time=0
EXTRACT: note_off channel=9 note=38 velocity=80 time=0
EXTRACT: note_off channel=9 note=53 velocity=80 time=0
EXTRACT: note_on channel=9 note=57 velocity=127 time=0
EXTRACT: note_on channel=9 note=36 velocity=95 time=0
EXTRACT: note_on channel=9 note=38 velocity=95 time=0
EXTRACT: note_on channel=9 note=53 velocity=63 time=0
EXTRACT: note_on channel=12 note=32 velocity=75 time=0
EXTRACT: note_off channel=2 note=63 velocity=80 time=0.14705875
EXTRACT: note_on channel=0 note=68 velocity=95 time=0.073529375
EXTRACT: note_on channel=12 note=32 velocity=0 time=0.06617643749999999
EXTRACT: note_off channel=0 note=68 velocity=80 time=0.004901958333333333
EXTRACT: note_off channel=0 note=63 velocity=80 time=0.0024509791666666664
EXTRACT: note_on channel=0 note=70 velocity=95 time=0
EXTRACT: note_off channel=6 note=56 velocity=80 time=0
EXTRACT: note_on channel=6 note=63 velocity=95 time=0
EXTRACT: note_on channel=2 note=58 velocity=86 time=0
EXTRACT: note_off channel=4 note=70 velocity=80 time=0
EXTRACT: note_on channel=4 note=70 velocity=95 time=0
EXTRACT: note_off channel=7 note=67 velocity=80 time=0
EXTRACT: note_off channel=7 note=62 velocity=80 time=0
EXTRACT: note_off channel=7 note=55 velocity=80 time=0
EXTRACT: note_on channel=7 note=67 velocity=95 time=0
EXTRACT: note_on channel=7 note=62 velocity=95 time=0
EXTRACT: note_on channel=7 note=55 velocity=95 time=0
EXTRACT: note_off channel=9 note=57 velocity=80 time=0
EXTRACT: note_off channel=9 note=36 velocity=80 time=0
EXTRACT: note_off channel=9 note=38 velocity=80 time=0
EXTRACT: note_off channel=9 note=53 velocity=80 time=0
EXTRACT: note_on channel=9 note=36 velocity=95 time=0
EXTRACT: note_on channel=12 note=32 velocity=75 time=0
EXTRACT: note_off channel=2 note=58 velocity=80 time=0.14705875
EXTRACT: note_on channel=12 note=32 velocity=0 time=0.1397058125
EXTRACT: note_on channel=2 note=63 velocity=86 time=0.007352937499999999
EXTRACT: note_off channel=4 note=63 velocity=80 time=0
EXTRACT: note_on channel=4 note=63 velocity=95 time=0
EXTRACT: note_off channel=5 note=63 velocity=80 time=0
EXTRACT: note_off channel=5 note=60 velocity=80 time=0
EXTRACT: note_off channel=5 note=68 velocity=80 time=0
EXTRACT: note_off channel=7 note=67 velocity=80 time=0
EXTRACT: note_off channel=7 note=62 velocity=80 time=0
EXTRACT: note_off channel=7 note=55 velocity=80 time=0
EXTRACT: note_on channel=7 note=65 velocity=95 time=0
EXTRACT: note_on channel=7 note=62 velocity=95 time=0
EXTRACT: note_on channel=7 note=56 velocity=95 time=0
EXTRACT: note_off channel=9 note=36 velocity=80 time=0
EXTRACT: note_on channel=9 note=49 velocity=127 time=0
EXTRACT: note_on channel=9 note=36 velocity=95 time=0
EXTRACT: note_on channel=12 note=39 velocity=75 time=0
EXTRACT: note_off channel=2 note=63 velocity=80 time=0.14705875
EXTRACT: note_on channel=2 note=58 velocity=86 time=0.14705875
EXTRACT: note_off channel=4 note=63 velocity=80 time=0
EXTRACT: note_on channel=4 note=63 velocity=95 time=0
EXTRACT: note_on channel=5 note=63 velocity=95 time=0
EXTRACT: note_off channel=7 note=65 velocity=80 time=0
EXTRACT: note_off channel=7 note=62 velocity=80 time=0
EXTRACT: note_off channel=7 note=56 velocity=80 time=0
EXTRACT: note_on channel=7 note=65 velocity=95 time=0
EXTRACT: note_on channel=7 note=62 velocity=95 time=0
EXTRACT: note_on channel=7 note=56 velocity=95 time=0
EXTRACT: note_off channel=9 note=49 velocity=80 time=0
EXTRACT: note_off channel=9 note=36 velocity=80 time=0
EXTRACT: note_on channel=9 note=42 velocity=95 time=0
EXTRACT: note_on channel=9 note=53 velocity=63 time=0
EXTRACT: note_off channel=2 note=58 velocity=80 time=0.14705875
EXTRACT: note_on channel=12 note=39 velocity=0 time=0.049019583333333325
EXTRACT: note_on channel=2 note=58 velocity=86 time=0.09803916666666665
EXTRACT: note_off channel=4 note=70 velocity=80 time=0
EXTRACT: note_on channel=4 note=70 velocity=95 time=0
EXTRACT: note_off channel=5 note=63 velocity=80 time=0
EXTRACT: note_on channel=5 note=58 velocity=95 time=0
EXTRACT: note_off channel=7 note=65 velocity=80 time=0
EXTRACT: note_off channel=7 note=62 velocity=80 time=0
EXTRACT: note_off channel=7 note=56 velocity=80 time=0
EXTRACT: note_on channel=7 note=65 velocity=95 time=0
EXTRACT: note_on channel=7 note=62 velocity=95 time=0
EXTRACT: note_on channel=7 note=56 velocity=95 time=0
EXTRACT: note_off channel=9 note=42 velocity=80 time=0
EXTRACT: note_off channel=9 note=53 velocity=80 time=0
EXTRACT: note_on channel=9 note=42 velocity=79 time=0
EXTRACT: note_on channel=9 note=38 velocity=95 time=0
EXTRACT: note_on channel=9 note=53 velocity=63 time=0
EXTRACT: note_on channel=12 note=39 velocity=75 time=0
EXTRACT: note_off channel=2 note=58 velocity=80 time=0.14705875
EXTRACT: note_on channel=12 note=39 velocity=0 time=0.1397058125
EXTRACT: note_on channel=2 note=63 velocity=86 time=0.007352937499999999
EXTRACT: note_off channel=4 note=63 velocity=80 time=0
EXTRACT: note_on channel=4 note=63 velocity=95 time=0
EXTRACT: note_off channel=5 note=58 velocity=80 time=0
EXTRACT: note_on channel=5 note=65 velocity=95 time=0
EXTRACT: note_off channel=7 note=65 velocity=80 time=0
EXTRACT: note_off channel=7 note=62 velocity=80 time=0
EXTRACT: note_off channel=7 note=56 velocity=80 time=0
EXTRACT: note_on channel=7 note=65 velocity=95 time=0
EXTRACT: note_on channel=7 note=62 velocity=95 time=0
EXTRACT: note_on channel=7 note=56 velocity=95 time=0
EXTRACT: note_off channel=9 note=42 velocity=80 time=0
EXTRACT: note_off channel=9 note=38 velocity=80 time=0
EXTRACT: note_off channel=9 note=53 velocity=80 time=0
EXTRACT: note_on channel=9 note=42 velocity=79 time=0
EXTRACT: note_on channel=9 note=53 velocity=63 time=0
EXTRACT: note_on channel=12 note=39 velocity=75 time=0
EXTRACT: note_off channel=2 note=63 velocity=80 time=0.14705875
EXTRACT: note_on channel=12 note=39 velocity=0 time=0.1397058125
EXTRACT: note_on channel=2 note=58 velocity=86 time=0.007352937499999999
EXTRACT: note_off channel=4 note=63 velocity=80 time=0
EXTRACT: note_on channel=4 note=63 velocity=95 time=0
EXTRACT: note_off channel=7 note=65 velocity=80 time=0
EXTRACT: note_off channel=7 note=62 velocity=80 time=0
EXTRACT: note_off channel=7 note=56 velocity=80 time=0
EXTRACT: note_on channel=7 note=65 velocity=95 time=0
EXTRACT: note_on channel=7 note=62 velocity=95 time=0
EXTRACT: note_on channel=7 note=56 velocity=95 time=0
EXTRACT: note_off channel=9 note=42 velocity=80 time=0
EXTRACT: note_off channel=9 note=53 velocity=80 time=0
EXTRACT: note_on channel=9 note=42 velocity=79 time=0
EXTRACT: note_on channel=9 note=36 velocity=95 time=0
EXTRACT: note_on channel=9 note=53 velocity=63 time=0
EXTRACT: note_on channel=12 note=39 velocity=75 time=0
EXTRACT: note_off channel=2 note=58 velocity=80 time=0.14705875
EXTRACT: note_on channel=12 note=39 velocity=0 time=0.1397058125
EXTRACT: note_on channel=2 note=58 velocity=86 time=0.007352937499999999
EXTRACT: note_off channel=4 note=70 velocity=80 time=0
EXTRACT: note_on channel=4 note=70 velocity=95 time=0
EXTRACT: note_off channel=7 note=65 velocity=80 time=0
EXTRACT: note_off channel=7 note=62 velocity=80 time=0
EXTRACT: note_off channel=7 note=56 velocity=80 time=0
EXTRACT: note_on channel=7 note=65 velocity=95 time=0
EXTRACT: note_on channel=7 note=62 velocity=95 time=0
EXTRACT: note_on channel=7 note=56 velocity=95 time=0
EXTRACT: note_off channel=9 note=42 velocity=80 time=0
EXTRACT: note_off channel=9 note=36 velocity=80 time=0
EXTRACT: note_off channel=9 note=53 velocity=80 time=0
EXTRACT: note_on channel=9 note=42 velocity=79 time=0
EXTRACT: note_on channel=9 note=36 velocity=95 time=0
EXTRACT: note_on channel=9 note=53 velocity=63 time=0
EXTRACT: note_on channel=12 note=39 velocity=75 time=0
EXTRACT: note_off channel=2 note=58 velocity=80 time=0.14705875
EXTRACT: note_on channel=12 note=39 velocity=0 time=0.1397058125
EXTRACT: note_off channel=0 note=70 velocity=80 time=0.007352937499999999
EXTRACT: note_on channel=0 note=67 velocity=95 time=0
EXTRACT: note_off channel=6 note=63 velocity=80 time=0
EXTRACT: note_on channel=6 note=58 velocity=95 time=0
EXTRACT: note_on channel=2 note=63 velocity=86 time=0
EXTRACT: note_off channel=4 note=63 velocity=80 time=0
EXTRACT: note_on channel=4 note=63 velocity=95 time=0
EXTRACT: note_off channel=7 note=65 velocity=80 time=0
EXTRACT: note_off channel=7 note=62 velocity=80 time=0
EXTRACT: note_off channel=7 note=56 velocity=80 time=0
EXTRACT: note_on channel=7 note=65 velocity=95 time=0
EXTRACT: note_on channel=7 note=62 velocity=95 time=0
EXTRACT: note_on channel=7 note=56 velocity=95 time=0
EXTRACT: note_off channel=9 note=42 velocity=80 time=0
EXTRACT: note_off channel=9 note=36 velocity=80 time=0
EXTRACT: note_off channel=9 note=53 velocity=80 time=0
EXTRACT: note_on channel=9 note=42 velocity=79 time=0
EXTRACT: note_on channel=9 note=38 velocity=95 time=0
EXTRACT: note_on channel=9 note=53 velocity=63 time=0
EXTRACT: note_on channel=12 note=39 velocity=75 time=0
EXTRACT: note_off channel=2 note=63 velocity=80 time=0.14705875
EXTRACT: note_on channel=12 note=39 velocity=0 time=0.1397058125
EXTRACT: note_off channel=0 note=67 velocity=80 time=0.007352937499999999
EXTRACT: note_on channel=0 note=67 velocity=95 time=0
EXTRACT: note_off channel=6 note=58 velocity=80 time=0
EXTRACT: note_on channel=6 note=58 velocity=95 time=0
EXTRACT: note_on channel=2 note=58 velocity=86 time=0
EXTRACT: note_off channel=4 note=70 velocity=80 time=0
EXTRACT: note_on channel=4 note=70 velocity=95 time=0
EXTRACT: note_off channel=7 note=65 velocity=80 time=0
EXTRACT: note_off channel=7 note=62 velocity=80 time=0
EXTRACT: note_off channel=7 note=56 velocity=80 time=0
EXTRACT: note_on channel=7 note=65 velocity=95 time=0
EXTRACT: note_on channel=7 note=62 velocity=95 time=0
EXTRACT: note_on channel=7 note=56 velocity=95 time=0
EXTRACT: note_off channel=9 note=42 velocity=80 time=0
EXTRACT: note_off channel=9 note=38 velocity=80 time=0
EXTRACT: note_off channel=9 note=53 velocity=80 time=0
EXTRACT: note_on channel=9 note=42 velocity=79 time=0
EXTRACT: note_on channel=9 note=53 velocity=63 time=0
EXTRACT: note_on channel=12 note=39 velocity=75 time=0
EXTRACT: note_off channel=2 note=58 velocity=80 time=0.14705875
EXTRACT: note_on channel=12 note=39 velocity=0 time=0.1397058125
EXTRACT: note_on channel=2 note=62 velocity=86 time=0.007352937499999999
EXTRACT: note_off channel=4 note=63 velocity=80 time=0
EXTRACT: note_on channel=4 note=63 velocity=95 time=0
EXTRACT: note_off channel=7 note=65 velocity=80 time=0
EXTRACT: note_off channel=7 note=62 velocity=80 time=0
EXTRACT: note_off channel=7 note=56 velocity=80 time=0
EXTRACT: note_on channel=7 note=62 velocity=95 time=0
EXTRACT: note_on channel=7 note=56 velocity=95 time=0
EXTRACT: note_on channel=7 note=63 velocity=95 time=0
EXTRACT: note_off channel=9 note=42 velocity=80 time=0
EXTRACT: note_off channel=9 note=53 velocity=80 time=0
EXTRACT: note_on channel=9 note=42 velocity=95 time=0
EXTRACT: note_on channel=9 note=36 velocity=95 time=0
EXTRACT: note_on channel=12 note=34 velocity=75 time=0
EXTRACT: note_off channel=2 note=62 velocity=80 time=0.14705875
EXTRACT: note_on channel=2 note=58 velocity=86 time=0.14705875
EXTRACT: note_off channel=4 note=63 velocity=80 time=0
EXTRACT: note_on channel=4 note=63 velocity=95 time=0
EXTRACT: note_off channel=5 note=65 velocity=80 time=0
EXTRACT: note_on channel=5 note=62 velocity=95 time=0
EXTRACT: note_off channel=7 note=62 velocity=80 time=0
EXTRACT: note_off channel=7 note=56 velocity=80 time=0
EXTRACT: note_off channel=7 note=63 velocity=80 time=0
EXTRACT: note_on channel=7 note=62 velocity=95 time=0
EXTRACT: note_on channel=7 note=56 velocity=95 time=0
EXTRACT: note_on channel=7 note=63 velocity=95 time=0
EXTRACT: note_off channel=9 note=42 velocity=80 time=0
EXTRACT: note_off channel=9 note=36 velocity=80 time=0
EXTRACT: note_on channel=9 note=42 velocity=95 time=0
EXTRACT: note_on channel=9 note=53 velocity=63 time=0
EXTRACT: note_off channel=2 note=58 velocity=80 time=0.14705875
EXTRACT: note_on channel=12 note=34 velocity=0 time=0.049019583333333325
EXTRACT: note_on channel=2 note=58 velocity=86 time=0.09803916666666665
EXTRACT: note_off channel=4 note=70 velocity=80 time=0
EXTRACT: note_on channel=4 note=70 velocity=95 time=0
EXTRACT: note_off channel=5 note=62 velocity=80 time=0
EXTRACT: note_on channel=5 note=58 velocity=95 time=0
EXTRACT: note_off channel=7 note=62 velocity=80 time=0
EXTRACT: note_off channel=7 note=56 velocity=80 time=0
EXTRACT: note_off channel=7 note=63 velocity=80 time=0
EXTRACT: note_on channel=7 note=62 velocity=95 time=0
EXTRACT: note_on channel=7 note=56 velocity=95 time=0
EXTRACT: note_on channel=7 note=63 velocity=95 time=0
EXTRACT: note_off channel=9 note=42 velocity=80 time=0
EXTRACT: note_off channel=9 note=53 velocity=80 time=0
EXTRACT: note_on channel=9 note=42 velocity=95 time=0
EXTRACT: note_on channel=9 note=38 velocity=95 time=0
EXTRACT: note_on channel=9 note=53 velocity=63 time=0
EXTRACT: note_on channel=12 note=34 velocity=75 time=0
EXTRACT: note_off channel=2 note=58 velocity=80 time=0.14705875
EXTRACT: note_on channel=12 note=34 velocity=0 time=0.1397058125
EXTRACT: note_on channel=2 note=63 velocity=86 time=0.007352937499999999
EXTRACT: note_off channel=4 note=63 velocity=80 time=0
EXTRACT: note_on channel=4 note=63 velocity=95 time=0
EXTRACT: note_off channel=5 note=58 velocity=80 time=0
EXTRACT: note_on channel=5 note=65 velocity=95 time=0
EXTRACT: note_off channel=7 note=62 velocity=80 time=0
EXTRACT: note_off channel=7 note=56 velocity=80 time=0
EXTRACT: note_off channel=7 note=63 velocity=80 time=0
EXTRACT: note_on channel=7 note=62 velocity=95 time=0
EXTRACT: note_on channel=7 note=56 velocity=95 time=0
EXTRACT: note_on channel=7 note=63 velocity=95 time=0
EXTRACT: note_off channel=9 note=42 velocity=80 time=0
EXTRACT: note_off channel=9 note=38 velocity=80 time=0
EXTRACT: note_off channel=9 note=53 velocity=80 time=0
EXTRACT: note_on channel=9 note=42 velocity=95 time=0
EXTRACT: note_on channel=9 note=53 velocity=63 time=0
EXTRACT: note_on channel=12 note=34 velocity=75 time=0
EXTRACT: note_off channel=2 note=63 velocity=80 time=0.14705875
EXTRACT: note_on channel=12 note=34 velocity=0 time=0.1397058125
EXTRACT: note_off channel=0 note=67 velocity=80 time=0.007352937499999999
EXTRACT: note_off channel=6 note=58 velocity=80 time=0
EXTRACT: note_on channel=2 note=58 velocity=86 time=0
EXTRACT: note_off channel=4 note=63 velocity=80 time=0
EXTRACT: note_on channel=4 note=63 velocity=95 time=0
EXTRACT: note_off channel=7 note=62 velocity=80 time=0
EXTRACT: note_off channel=7 note=56 velocity=80 time=0
EXTRACT: note_off channel=7 note=63 velocity=80 time=0
EXTRACT: note_on channel=7 note=62 velocity=95 time=0
EXTRACT: note_on channel=7 note=56 velocity=95 time=0
EXTRACT: note_on channel=7 note=63 velocity=95 time=0
EXTRACT: note_off channel=9 note=42 velocity=80 time=0
EXTRACT: note_off channel=9 note=53 velocity=80 time=0
EXTRACT: note_on channel=9 note=42 velocity=95 time=0
EXTRACT: note_on channel=9 note=36 velocity=95 time=0
EXTRACT: note_on channel=9 note=53 velocity=63 time=0
EXTRACT: note_on channel=12 note=34 velocity=75 time=0
EXTRACT: note_off channel=2 note=58 velocity=80 time=0.14705875
EXTRACT: note_on channel=12 note=34 velocity=0 time=0.1397058125
EXTRACT: note_on channel=0 note=62 velocity=95 time=0.007352937499999999
EXTRACT: note_on channel=2 note=58 velocity=86 time=0
EXTRACT: note_off channel=4 note=70 velocity=80 time=0
EXTRACT: note_on channel=4 note=70 velocity=95 time=0
EXTRACT: note_off channel=7 note=62 velocity=80 time=0
EXTRACT: note_off channel=7 note=56 velocity=80 time=0
EXTRACT: note_off channel=7 note=63 velocity=80 time=0
EXTRACT: note_on channel=7 note=62 velocity=95 time=0
EXTRACT: note_on channel=7 note=56 velocity=95 time=0
EXTRACT: note_on channel=7 note=63 velocity=95 time=0
EXTRACT: note_off channel=9 note=42 velocity=80 time=0
EXTRACT: note_off channel=9 note=36 velocity=80 time=0
EXTRACT: note_off channel=9 note=53 velocity=80 time=0
EXTRACT: note_on channel=9 note=42 velocity=95 time=0
EXTRACT: note_on channel=9 note=36 velocity=95 time=0
EXTRACT: note_on channel=9 note=53 velocity=63 time=0
EXTRACT: note_on channel=12 note=34 velocity=75 time=0
EXTRACT: note_off channel=2 note=58 velocity=80 time=0.14705875
EXTRACT: note_on channel=12 note=34 velocity=0 time=0.1397058125
EXTRACT: note_off channel=0 note=62 velocity=80 time=0.007352937499999999
EXTRACT: note_on channel=0 note=63 velocity=95 time=0
EXTRACT: note_on channel=6 note=58 velocity=95 time=0
EXTRACT: note_on channel=2 note=62 velocity=86 time=0
EXTRACT: note_off channel=4 note=63 velocity=80 time=0
EXTRACT: note_on channel=4 note=63 velocity=95 time=0
EXTRACT: note_off channel=7 note=62 velocity=80 time=0
EXTRACT: note_off channel=7 note=56 velocity=80 time=0
EXTRACT: note_off channel=7 note=63 velocity=80 time=0
EXTRACT: note_on channel=7 note=62 velocity=95 time=0
EXTRACT: note_on channel=7 note=56 velocity=95 time=0
EXTRACT: note_on channel=7 note=63 velocity=95 time=0
EXTRACT: note_off channel=9 note=42 velocity=80 time=0
EXTRACT: note_off channel=9 note=36 velocity=80 time=0
EXTRACT: note_off channel=9 note=53 velocity=80 time=0
EXTRACT: note_on channel=9 note=42 velocity=95 time=0
EXTRACT: note_on channel=9 note=38 velocity=95 time=0
EXTRACT: note_on channel=9 note=53 velocity=63 time=0
EXTRACT: note_on channel=12 note=34 velocity=75 time=0
EXTRACT: note_off channel=2 note=62 velocity=80 time=0.14705875
EXTRACT: note_on channel=0 note=68 velocity=95 time=0.073529375
EXTRACT: note_on channel=12 note=34 velocity=0 time=0.06617643749999999
EXTRACT: note_off channel=0 note=68 velocity=80 time=0.004901958333333333
EXTRACT: note_off channel=0 note=63 velocity=80 time=0.0024509791666666664
EXTRACT: note_on channel=0 note=70 velocity=95 time=0
EXTRACT: note_off channel=6 note=58 velocity=80 time=0
EXTRACT: note_on channel=6 note=63 velocity=95 time=0
EXTRACT: note_on channel=2 note=58 velocity=86 time=0
EXTRACT: note_off channel=4 note=70 velocity=80 time=0
EXTRACT: note_on channel=4 note=70 velocity=95 time=0
EXTRACT: note_off channel=7 note=62 velocity=80 time=0
EXTRACT: note_off channel=7 note=56 velocity=80 time=0
EXTRACT: note_off channel=7 note=63 velocity=80 time=0
EXTRACT: note_on channel=7 note=62 velocity=95 time=0
EXTRACT: note_on channel=7 note=56 velocity=95 time=0
EXTRACT: note_on channel=7 note=63 velocity=95 time=0
EXTRACT: note_off channel=9 note=42 velocity=80 time=0
EXTRACT: note_off channel=9 note=38 velocity=80 time=0
EXTRACT: note_off channel=9 note=53 velocity=80 time=0
EXTRACT: note_on channel=9 note=42 velocity=95 time=0
EXTRACT: note_on channel=9 note=53 velocity=63 time=0
EXTRACT: note_on channel=12 note=34 velocity=75 time=0
EXTRACT: note_off channel=2 note=58 velocity=80 time=0.14705875
EXTRACT: note_on channel=12 note=34 velocity=0 time=0.1397058125
EXTRACT: note_on channel=2 note=63 velocity=86 time=0.007352937499999999
EXTRACT: note_off channel=4 note=63 velocity=80 time=0
EXTRACT: note_on channel=4 note=63 velocity=95 time=0
EXTRACT: note_off channel=5 note=65 velocity=80 time=0
EXTRACT: note_off channel=7 note=62 velocity=80 time=0
EXTRACT: note_off channel=7 note=56 velocity=80 time=0
EXTRACT: note_off channel=7 note=63 velocity=80 time=0
EXTRACT: note_on channel=7 note=67 velocity=95 time=0
EXTRACT: note_on channel=7 note=62 velocity=95 time=0
EXTRACT: note_on channel=7 note=56 velocity=95 time=0
EXTRACT: note_off channel=9 note=42 velocity=80 time=0
EXTRACT: note_off channel=9 note=53 velocity=80 time=0
EXTRACT: note_on channel=9 note=42 velocity=95 time=0
EXTRACT: note_on channel=9 note=36 velocity=95 time=0
EXTRACT: note_on channel=12 note=36 velocity=75 time=0
EXTRACT: note_off channel=2 note=63 velocity=80 time=0.14705875
EXTRACT: note_on channel=2 note=58 velocity=86 time=0.14705875
EXTRACT: note_off channel=4 note=63 velocity=80 time=0
EXTRACT: note_on channel=4 note=63 velocity=95 time=0
EXTRACT: note_on channel=5 note=63 velocity=95 time=0
EXTRACT: note_off channel=7 note=67 velocity=80 time=0
EXTRACT: note_off channel=7 note=62 velocity=80 time=0
EXTRACT: note_off channel=7 note=56 velocity=80 time=0
EXTRACT: note_on channel=7 note=67 velocity=95 time=0
EXTRACT: note_on channel=7 note=62 velocity=95 time=0
EXTRACT: note_on channel=7 note=56 velocity=95 time=0
EXTRACT: note_off channel=9 note=42 velocity=80 time=0
EXTRACT: note_off channel=9 note=36 velocity=80 time=0
EXTRACT: note_on channel=9 note=42 velocity=95 time=0
EXTRACT: note_on channel=9 note=53 velocity=63 time=0
EXTRACT: note_off channel=2 note=58 velocity=80 time=0.14705875
EXTRACT: note_on channel=12 note=36 velocity=0 time=0.049019583333333325
EXTRACT: note_on channel=2 note=58 velocity=86 time=0.09803916666666665
EXTRACT: note_off channel=4 note=70 velocity=80 time=0
EXTRACT: note_on channel=4 note=70 velocity=95 time=0
EXTRACT: note_off channel=5 note=63 velocity=80 time=0
EXTRACT: note_on channel=5 note=58 velocity=95 time=0
EXTRACT: note_off channel=7 note=67 velocity=80 time=0
EXTRACT: note_off channel=7 note=62 velocity=80 time=0
EXTRACT: note_off channel=7 note=56 velocity=80 time=0
EXTRACT: note_on channel=7 note=67 velocity=95 time=0
EXTRACT: note_on channel=7 note=62 velocity=95 time=0
EXTRACT: note_on channel=7 note=56 velocity=95 time=0
EXTRACT: note_off channel=9 note=42 velocity=80 time=0
EXTRACT: note_off channel=9 note=53 velocity=80 time=0
EXTRACT: note_on channel=9 note=42 velocity=95 time=0
EXTRACT: note_on channel=9 note=38 velocity=95 time=0
EXTRACT: note_on channel=9 note=53 velocity=63 time=0
EXTRACT: note_on channel=12 note=36 velocity=75 time=0
EXTRACT: note_off channel=2 note=58 velocity=80 time=0.14705875
EXTRACT: note_on channel=12 note=36 velocity=0 time=0.1397058125
EXTRACT: note_on channel=2 note=63 velocity=86 time=0.007352937499999999
EXTRACT: note_off channel=4 note=63 velocity=80 time=0
EXTRACT: note_on channel=4 note=63 velocity=95 time=0
EXTRACT: note_off channel=5 note=58 velocity=80 time=0
EXTRACT: note_on channel=5 note=67 velocity=95 time=0
EXTRACT: note_off channel=7 note=67 velocity=80 time=0
EXTRACT: note_off channel=7 note=62 velocity=80 time=0
EXTRACT: note_off channel=7 note=56 velocity=80 time=0
EXTRACT: note_on channel=7 note=67 velocity=95 time=0
EXTRACT: note_on channel=7 note=62 velocity=95 time=0
EXTRACT: note_on channel=7 note=56 velocity=95 time=0
EXTRACT: note_off channel=9 note=42 velocity=80 time=0
EXTRACT: note_off channel=9 note=38 velocity=80 time=0
EXTRACT: note_off channel=9 note=53 velocity=80 time=0
EXTRACT: note_on channel=9 note=42 velocity=95 time=0
EXTRACT: note_on channel=9 note=53 velocity=63 time=0
EXTRACT: note_on channel=12 note=36 velocity=75 time=0
EXTRACT: note_off channel=2 note=63 velocity=80 time=0.14705875
EXTRACT: note_on channel=12 note=36 velocity=0 time=0.1397058125
EXTRACT: note_on channel=2 note=58 velocity=86 time=0.007352937499999999
EXTRACT: note_off channel=4 note=63 velocity=80 time=0
EXTRACT: note_on channel=4 note=63 velocity=95 time=0
EXTRACT: note_off channel=7 note=67 velocity=80 time=0
EXTRACT: note_off channel=7 note=62 velocity=80 time=0
EXTRACT: note_off channel=7 note=56 velocity=80 time=0
EXTRACT: note_on channel=7 note=67 velocity=95 time=0
EXTRACT: note_on channel=7 note=62 velocity=95 time=0
EXTRACT: note_on channel=7 note=56 velocity=95 time=0
EXTRACT: note_off channel=9 note=42 velocity=80 time=0
EXTRACT: note_off channel=9 note=53 velocity=80 time=0
EXTRACT: note_on channel=9 note=42 velocity=95 time=0
EXTRACT: note_on channel=9 note=36 velocity=95 time=0
EXTRACT: note_on channel=9 note=53 velocity=63 time=0
EXTRACT: note_on channel=12 note=36 velocity=75 time=0
EXTRACT: note_off channel=2 note=58 velocity=80 time=0.14705875
EXTRACT: note_on channel=12 note=36 velocity=0 time=0.1397058125
EXTRACT: note_on channel=2 note=58 velocity=86 time=0.007352937499999999
EXTRACT: note_off channel=4 note=70 velocity=80 time=0
EXTRACT: note_on channel=4 note=70 velocity=95 time=0
EXTRACT: note_off channel=7 note=67 velocity=80 time=0
EXTRACT: note_off channel=7 note=62 velocity=80 time=0
EXTRACT: note_off channel=7 note=56 velocity=80 time=0
EXTRACT: note_on channel=7 note=67 velocity=95 time=0
EXTRACT: note_on channel=7 note=62 velocity=95 time=0
EXTRACT: note_on channel=7 note=56 velocity=95 time=0
EXTRACT: note_off channel=9 note=42 velocity=80 time=0
EXTRACT: note_off channel=9 note=36 velocity=80 time=0
EXTRACT: note_off channel=9 note=53 velocity=80 time=0
EXTRACT: note_on channel=9 note=42 velocity=95 time=0
EXTRACT: note_on channel=9 note=36 velocity=95 time=0
EXTRACT: note_on channel=9 note=53 velocity=63 time=0
EXTRACT: note_on channel=12 note=36 velocity=75 time=0
EXTRACT: note_off channel=2 note=58 velocity=80 time=0.14705875
EXTRACT: note_on channel=12 note=36 velocity=0 time=0.1397058125
EXTRACT: note_off channel=0 note=70 velocity=80 time=0.007352937499999999
EXTRACT: note_on channel=0 note=67 velocity=95 time=0
EXTRACT: note_off channel=6 note=63 velocity=80 time=0
EXTRACT: note_on channel=6 note=60 velocity=95 time=0
EXTRACT: note_on channel=2 note=63 velocity=86 time=0
EXTRACT: note_off channel=4 note=63 velocity=80 time=0
EXTRACT: note_on channel=4 note=63 velocity=95 time=0
EXTRACT: note_off channel=7 note=67 velocity=80 time=0
EXTRACT: note_off channel=7 note=62 velocity=80 time=0
EXTRACT: note_off channel=7 note=56 velocity=80 time=0
EXTRACT: note_on channel=7 note=67 velocity=95 time=0
EXTRACT: note_on channel=7 note=62 velocity=95 time=0
EXTRACT: note_on channel=7 note=56 velocity=95 time=0
EXTRACT: note_off channel=9 note=42 velocity=80 time=0
EXTRACT: note_off channel=9 note=36 velocity=80 time=0
EXTRACT: note_off channel=9 note=53 velocity=80 time=0
EXTRACT: note_on channel=9 note=42 velocity=95 time=0
EXTRACT: note_on channel=9 note=38 velocity=95 time=0
EXTRACT: note_on channel=9 note=53 velocity=63 time=0
EXTRACT: note_on channel=12 note=36 velocity=75 time=0
EXTRACT: note_off channel=2 note=63 velocity=80 time=0.14705875
EXTRACT: note_on channel=12 note=36 velocity=0 time=0.1397058125
EXTRACT: note_off channel=0 note=67 velocity=80 time=0.007352937499999999
EXTRACT: note_on channel=0 note=67 velocity=95 time=0
EXTRACT: note_off channel=6 note=60 velocity=80 time=0
EXTRACT: note_on channel=6 note=60 velocity=95 time=0
EXTRACT: note_on channel=2 note=58 velocity=86 time=0
EXTRACT: note_off channel=4 note=70 velocity=80 time=0
EXTRACT: note_on channel=4 note=70 velocity=95 time=0
EXTRACT: note_off channel=7 note=67 velocity=80 time=0
EXTRACT: note_off channel=7 note=62 velocity=80 time=0
EXTRACT: note_off channel=7 note=56 velocity=80 time=0
EXTRACT: note_on channel=7 note=67 velocity=95 time=0
EXTRACT: note_on channel=7 note=62 velocity=95 time=0
EXTRACT: note_on channel=7 note=56 velocity=95 time=0
EXTRACT: note_off channel=9 note=42 velocity=80 time=0
EXTRACT: note_off channel=9 note=38 velocity=80 time=0
EXTRACT: note_off channel=9 note=53 velocity=80 time=0
EXTRACT: note_on channel=9 note=42 velocity=95 time=0
EXTRACT: note_on channel=9 note=53 velocity=63 time=0
EXTRACT: note_on channel=12 note=36 velocity=75 time=0
EXTRACT: note_off channel=2 note=58 velocity=80 time=0.14705875
EXTRACT: note_on channel=12 note=36 velocity=0 time=0.1397058125
EXTRACT: note_on channel=2 note=63 velocity=86 time=0.007352937499999999
EXTRACT: note_off channel=4 note=63 velocity=80 time=0
EXTRACT: note_on channel=4 note=63 velocity=95 time=0
EXTRACT: note_off channel=7 note=67 velocity=80 time=0
EXTRACT: note_off channel=7 note=62 velocity=80 time=0
EXTRACT: note_off channel=7 note=56 velocity=80 time=0
EXTRACT: note_on channel=7 note=67 velocity=95 time=0
EXTRACT: note_on channel=7 note=62 velocity=95 time=0
EXTRACT: note_on channel=7 note=55 velocity=95 time=0
EXTRACT: note_off channel=9 note=42 velocity=80 time=0
EXTRACT: note_off channel=9 note=53 velocity=80 time=0
EXTRACT: note_on channel=9 note=42 velocity=95 time=0
EXTRACT: note_on channel=9 note=36 velocity=95 time=0
EXTRACT: note_on channel=12 note=32 velocity=75 time=0
EXTRACT: note_off channel=2 note=63 velocity=80 time=0.14705875
EXTRACT: note_off channel=0 note=67 velocity=80 time=0.14705875
EXTRACT: note_on channel=0 note=65 velocity=95 time=0
EXTRACT: note_off channel=6 note=60 velocity=80 time=0
EXTRACT: note_on channel=6 note=58 velocity=95 time=0
EXTRACT: note_on channel=2 note=60 velocity=86 time=0
EXTRACT: note_off channel=4 note=63 velocity=80 time=0
EXTRACT: note_on channel=4 note=63 velocity=95 time=0
EXTRACT: note_off channel=5 note=67 velocity=80 time=0
EXTRACT: note_on channel=5 note=63 velocity=95 time=0
EXTRACT: note_off channel=7 note=67 velocity=80 time=0
EXTRACT: note_off channel=7 note=62 velocity=80 time=0
EXTRACT: note_off channel=7 note=55 velocity=80 time=0
EXTRACT: note_on channel=7 note=67 velocity=95 time=0
EXTRACT: note_on channel=7 note=62 velocity=95 time=0
EXTRACT: note_on channel=7 note=55 velocity=95 time=0
EXTRACT: note_off channel=9 note=42 velocity=80 time=0
EXTRACT: note_off channel=9 note=36 velocity=80 time=0
EXTRACT: note_on channel=9 note=42 velocity=95 time=0
EXTRACT: note_on channel=9 note=53 velocity=63 time=0
EXTRACT: note_off channel=2 note=60 velocity=80 time=0.14705875
EXTRACT: note_on channel=12 note=32 velocity=0 time=0.049019583333333325
EXTRACT: note_on channel=2 note=60 velocity=86 time=0.09803916666666665
EXTRACT: note_off channel=4 note=70 velocity=80 time=0
EXTRACT: note_on channel=4 note=70 velocity=95 time=0
EXTRACT: note_off channel=5 note=63 velocity=80 time=0
EXTRACT: note_on channel=5 note=60 velocity=95 time=0
EXTRACT: note_off channel=7 note=67 velocity=80 time=0
EXTRACT: note_off channel=7 note=62 velocity=80 time=0
EXTRACT: note_off channel=7 note=55 velocity=80 time=0
EXTRACT: note_on channel=7 note=67 velocity=95 time=0
EXTRACT: note_on channel=7 note=62 velocity=95 time=0
EXTRACT: note_on channel=7 note=55 velocity=95 time=0
EXTRACT: note_off channel=9 note=42 velocity=80 time=0
EXTRACT: note_off channel=9 note=53 velocity=80 time=0
EXTRACT: note_on channel=9 note=42 velocity=95 time=0
EXTRACT: note_on channel=9 note=38 velocity=95 time=0
EXTRACT: note_on channel=9 note=53 velocity=63 time=0
EXTRACT: note_on channel=12 note=32 velocity=75 time=0
EXTRACT: note_off channel=2 note=60 velocity=80 time=0.14705875
EXTRACT: note_on channel=12 note=32 velocity=0 time=0.1397058125
EXTRACT: note_off channel=0 note=65 velocity=80 time=0.007352937499999999
EXTRACT: note_on channel=0 note=63 velocity=95 time=0
EXTRACT: note_on channel=2 note=63 velocity=86 time=0
EXTRACT: note_off channel=4 note=63 velocity=80 time=0
EXTRACT: note_on channel=4 note=63 velocity=95 time=0
EXTRACT: note_off channel=5 note=60 velocity=80 time=0
EXTRACT: note_on channel=5 note=68 velocity=95 time=0
EXTRACT: note_off channel=7 note=67 velocity=80 time=0
EXTRACT: note_off channel=7 note=62 velocity=80 time=0
EXTRACT: note_off channel=7 note=55 velocity=80 time=0
EXTRACT: note_on channel=7 note=67 velocity=95 time=0
EXTRACT: note_on channel=7 note=62 velocity=95 time=0
EXTRACT: note_on channel=7 note=55 velocity=95 time=0
EXTRACT: note_off channel=9 note=42 velocity=80 time=0
EXTRACT: note_off channel=9 note=38 velocity=80 time=0
EXTRACT: note_off channel=9 note=53 velocity=80 time=0
EXTRACT: note_on channel=9 note=42 velocity=95 time=0
EXTRACT: note_on channel=9 note=53 velocity=63 time=0
EXTRACT: note_on channel=12 note=32 velocity=75 time=0
EXTRACT: note_off channel=2 note=63 velocity=80 time=0.14705875
EXTRACT: note_on channel=12 note=32 velocity=0 time=0.1397058125
EXTRACT: note_on channel=2 note=60 velocity=86 time=0.007352937499999999
EXTRACT: note_off channel=4 note=63 velocity=80 time=0
EXTRACT: note_on channel=4 note=63 velocity=95 time=0
EXTRACT: note_off channel=7 note=67 velocity=80 time=0
EXTRACT: note_off channel=7 note=62 velocity=80 time=0
EXTRACT: note_off channel=7 note=55 velocity=80 time=0
EXTRACT: note_on channel=7 note=67 velocity=95 time=0
EXTRACT: note_on channel=7 note=62 velocity=95 time=0
EXTRACT: note_on channel=7 note=55 velocity=95 time=0
EXTRACT: note_off channel=9 note=42 velocity=80 time=0
EXTRACT: note_off channel=9 note=53 velocity=80 time=0
EXTRACT: note_on channel=9 note=42 velocity=95 time=0
EXTRACT: note_on channel=9 note=36 velocity=95 time=0
EXTRACT: note_on channel=9 note=53 velocity=63 time=0
EXTRACT: note_on channel=12 note=32 velocity=75 time=0
EXTRACT: note_off channel=2 note=60 velocity=80 time=0.14705875
EXTRACT: note_on channel=12 note=32 velocity=0 time=0.1397058125
EXTRACT: note_off channel=0 note=63 velocity=80 time=0.007352937499999999
EXTRACT: note_on channel=0 note=63 velocity=95 time=0
EXTRACT: note_off channel=6 note=58 velocity=80 time=0
EXTRACT: note_on channel=2 note=60 velocity=86 time=0
EXTRACT: note_off channel=4 note=70 velocity=80 time=0
EXTRACT: note_on channel=4 note=70 velocity=95 time=0
EXTRACT: note_off channel=7 note=67 velocity=80 time=0
EXTRACT: note_off channel=7 note=62 velocity=80 time=0
EXTRACT: note_off channel=7 note=55 velocity=80 time=0
EXTRACT: note_on channel=7 note=67 velocity=95 time=0
EXTRACT: note_on channel=7 note=62 velocity=95 time=0
EXTRACT: note_on channel=7 note=55 velocity=95 time=0
EXTRACT: note_off channel=9 note=42 velocity=80 time=0
EXTRACT: note_off channel=9 note=36 velocity=80 time=0
EXTRACT: note_off channel=9 note=53 velocity=80 time=0
EXTRACT: note_on channel=9 note=42 velocity=95 time=0
EXTRACT: note_on channel=9 note=36 velocity=95 time=0
EXTRACT: note_on channel=9 note=53 velocity=63 time=0
EXTRACT: note_on channel=12 note=32 velocity=75 time=0
EXTRACT: note_off channel=2 note=60 velocity=80 time=0.14705875
EXTRACT: note_on channel=12 note=32 velocity=0 time=0.1397058125
EXTRACT: note_off channel=0 note=63 velocity=80 time=0.007352937499999999
EXTRACT: note_on channel=0 note=63 velocity=95 time=0
EXTRACT: note_on channel=6 note=63 velocity=95 time=0
EXTRACT: note_on channel=6 note=58 velocity=95 time=0
EXTRACT: note_on channel=2 note=63 velocity=86 time=0
EXTRACT: note_off channel=4 note=63 velocity=80 time=0
EXTRACT: note_on channel=4 note=63 velocity=95 time=0
EXTRACT: note_off channel=7 note=67 velocity=80 time=0
EXTRACT: note_off channel=7 note=62 velocity=80 time=0
EXTRACT: note_off channel=7 note=55 velocity=80 time=0
EXTRACT: note_on channel=7 note=67 velocity=95 time=0
EXTRACT: note_on channel=7 note=62 velocity=95 time=0
EXTRACT: note_on channel=7 note=55 velocity=95 time=0
EXTRACT: note_off channel=9 note=42 velocity=80 time=0
EXTRACT: note_off channel=9 note=36 velocity=80 time=0
EXTRACT: note_off channel=9 note=53 velocity=80 time=0
EXTRACT: note_on channel=9 note=42 velocity=95 time=0
EXTRACT: note_on channel=9 note=38 velocity=95 time=0
EXTRACT: note_on channel=9 note=53 velocity=63 time=0
EXTRACT: note_on channel=12 note=32 velocity=75 time=0
EXTRACT: note_off channel=2 note=63 velocity=80 time=0.14705875
EXTRACT: note_on channel=0 note=68 velocity=95 time=0.073529375
EXTRACT: note_on channel=12 note=32 velocity=0 time=0.06617643749999999
EXTRACT: note_off channel=0 note=68 velocity=80 time=0.004901958333333333
EXTRACT: note_off channel=0 note=63 velocity=80 time=0.0024509791666666664
EXTRACT: note_on channel=0 note=70 velocity=95 time=0
EXTRACT: note_off channel=6 note=63 velocity=80 time=0
EXTRACT: note_off channel=6 note=58 velocity=80 time=0
EXTRACT: note_on channel=6 note=67 velocity=95 time=0
EXTRACT: note_on channel=6 note=63 velocity=95 time=0
EXTRACT: note_on channel=2 note=60 velocity=86 time=0
EXTRACT: note_off channel=4 note=70 velocity=80 time=0
EXTRACT: note_on channel=4 note=70 velocity=95 time=0
EXTRACT: note_off channel=7 note=67 velocity=80 time=0
EXTRACT: note_off channel=7 note=62 velocity=80 time=0
EXTRACT: note_off channel=7 note=55 velocity=80 time=0
EXTRACT: note_on channel=7 note=67 velocity=95 time=0
EXTRACT: note_on channel=7 note=62 velocity=95 time=0
EXTRACT: note_on channel=7 note=55 velocity=95 time=0
EXTRACT: note_off channel=9 note=42 velocity=80 time=0
EXTRACT: note_off channel=9 note=38 velocity=80 time=0
EXTRACT: note_off channel=9 note=53 velocity=80 time=0
EXTRACT: note_on channel=9 note=42 velocity=95 time=0
EXTRACT: note_on channel=9 note=53 velocity=63 time=0
EXTRACT: note_on channel=12 note=32 velocity=75 time=0
EXTRACT: note_off channel=2 note=60 velocity=80 time=0.14705875
EXTRACT: note_on channel=12 note=32 velocity=0 time=0.1397058125
EXTRACT: note_on channel=2 note=63 velocity=86 time=0.007352937499999999
EXTRACT: note_off channel=4 note=63 velocity=80 time=0
EXTRACT: note_on channel=4 note=63 velocity=95 time=0
EXTRACT: note_off channel=5 note=68 velocity=80 time=0
EXTRACT: note_off channel=7 note=67 velocity=80 time=0
EXTRACT: note_off channel=7 note=62 velocity=80 time=0
EXTRACT: note_off channel=7 note=55 velocity=80 time=0
EXTRACT: note_on channel=7 note=65 velocity=95 time=0
EXTRACT: note_on channel=7 note=62 velocity=95 time=0
EXTRACT: note_on channel=7 note=56 velocity=95 time=0
EXTRACT: note_off channel=9 note=42 velocity=80 time=0
EXTRACT: note_off channel=9 note=53 velocity=80 time=0
EXTRACT: note_on channel=9 note=49 velocity=127 time=0
EXTRACT: note_on channel=9 note=36 velocity=95 time=0
EXTRACT: note_on channel=12 note=39 velocity=75 time=0
EXTRACT: note_off channel=2 note=63 velocity=80 time=0.14705875
EXTRACT: note_on channel=2 note=58 velocity=86 time=0.14705875
EXTRACT: note_off channel=4 note=63 velocity=80 time=0
EXTRACT: note_on channel=4 note=63 velocity=95 time=0
EXTRACT: note_on channel=5 note=63 velocity=95 time=0
EXTRACT: note_off channel=7 note=65 velocity=80 time=0
EXTRACT: note_off channel=7 note=62 velocity=80 time=0
EXTRACT: note_off channel=7 note=56 velocity=80 time=0
EXTRACT: note_on channel=7 note=65 velocity=95 time=0
EXTRACT: note_on channel=7 note=62 velocity=95 time=0
EXTRACT: note_on channel=7 note=56 velocity=95 time=0
EXTRACT: note_off channel=9 note=49 velocity=80 time=0
EXTRACT: note_off channel=9 note=36 velocity=80 time=0
EXTRACT: note_on channel=9 note=42 velocity=95 time=0
EXTRACT: note_on channel=9 note=53 velocity=63 time=0
EXTRACT: note_off channel=2 note=58 velocity=80 time=0.14705875
EXTRACT: note_on channel=12 note=39 velocity=0 time=0.049019583333333325
EXTRACT: note_on channel=2 note=58 velocity=86 time=0.09803916666666665
EXTRACT: note_off channel=4 note=70 velocity=80 time=0
EXTRACT: note_on channel=4 note=70 velocity=95 time=0
EXTRACT: note_off channel=5 note=63 velocity=80 time=0
EXTRACT: note_on channel=5 note=58 velocity=95 time=0
EXTRACT: note_off channel=7 note=65 velocity=80 time=0
EXTRACT: note_off channel=7 note=62 velocity=80 time=0
EXTRACT: note_off channel=7 note=56 velocity=80 time=0
EXTRACT: note_on channel=7 note=65 velocity=95 time=0
EXTRACT: note_on channel=7 note=62 velocity=95 time=0
EXTRACT: note_on channel=7 note=56 velocity=95 time=0
EXTRACT: note_off channel=9 note=42 velocity=80 time=0
EXTRACT: note_off channel=9 note=53 velocity=80 time=0
EXTRACT: note_on channel=9 note=42 velocity=79 time=0
EXTRACT: note_on channel=9 note=38 velocity=95 time=0
EXTRACT: note_on channel=9 note=53 velocity=63 time=0
EXTRACT: note_on channel=12 note=39 velocity=75 time=0
EXTRACT: note_off channel=2 note=58 velocity=80 time=0.14705875
EXTRACT: note_on channel=12 note=39 velocity=0 time=0.1397058125
EXTRACT: note_on channel=2 note=63 velocity=86 time=0.007352937499999999
EXTRACT: note_off channel=4 note=63 velocity=80 time=0
EXTRACT: note_on channel=4 note=63 velocity=95 time=0
EXTRACT: note_off channel=5 note=58 velocity=80 time=0
EXTRACT: note_on channel=5 note=65 velocity=95 time=0
EXTRACT: note_off channel=7 note=65 velocity=80 time=0
EXTRACT: note_off channel=7 note=62 velocity=80 time=0
EXTRACT: note_off channel=7 note=56 velocity=80 time=0
EXTRACT: note_on channel=7 note=65 velocity=95 time=0
EXTRACT: note_on channel=7 note=62 velocity=95 time=0
EXTRACT: note_on channel=7 note=56 velocity=95 time=0
EXTRACT: note_off channel=9 note=42 velocity=80 time=0
EXTRACT: note_off channel=9 note=38 velocity=80 time=0
EXTRACT: note_off channel=9 note=53 velocity=80 time=0
EXTRACT: note_on channel=9 note=42 velocity=79 time=0
EXTRACT: note_on channel=9 note=53 velocity=63 time=0
EXTRACT: note_on channel=12 note=39 velocity=75 time=0
EXTRACT: note_off channel=2 note=63 velocity=80 time=0.14705875
EXTRACT: note_on channel=12 note=39 velocity=0 time=0.1397058125
EXTRACT: note_on channel=2 note=58 velocity=86 time=0.007352937499999999
EXTRACT: note_off channel=4 note=63 velocity=80 time=0
EXTRACT: note_on channel=4 note=63 velocity=95 time=0
EXTRACT: note_off channel=7 note=65 velocity=80 time=0
EXTRACT: note_off channel=7 note=62 velocity=80 time=0
EXTRACT: note_off channel=7 note=56 velocity=80 time=0
EXTRACT: note_on channel=7 note=65 velocity=95 time=0
EXTRACT: note_on channel=7 note=62 velocity=95 time=0
EXTRACT: note_on channel=7 note=56 velocity=95 time=0
EXTRACT: note_off channel=9 note=42 velocity=80 time=0
EXTRACT: note_off channel=9 note=53 velocity=80 time=0
EXTRACT: note_on channel=9 note=42 velocity=79 time=0
EXTRACT: note_on channel=9 note=36 velocity=95 time=0
EXTRACT: note_on channel=9 note=53 velocity=63 time=0
EXTRACT: note_on channel=12 note=39 velocity=75 time=0
EXTRACT: note_off channel=2 note=58 velocity=80 time=0.14705875
EXTRACT: note_on channel=12 note=39 velocity=0 time=0.1397058125
EXTRACT: note_on channel=2 note=58 velocity=86 time=0.007352937499999999
EXTRACT: note_off channel=4 note=70 velocity=80 time=0
EXTRACT: note_on channel=4 note=70 velocity=95 time=0
EXTRACT: note_off channel=7 note=65 velocity=80 time=0
EXTRACT: note_off channel=7 note=62 velocity=80 time=0
EXTRACT: note_off channel=7 note=56 velocity=80 time=0
EXTRACT: note_on channel=7 note=65 velocity=95 time=0
EXTRACT: note_on channel=7 note=62 velocity=95 time=0
EXTRACT: note_on channel=7 note=56 velocity=95 time=0
EXTRACT: note_off channel=9 note=42 velocity=80 time=0
EXTRACT: note_off channel=9 note=36 velocity=80 time=0
EXTRACT: note_off channel=9 note=53 velocity=80 time=0
EXTRACT: note_on channel=9 note=42 velocity=79 time=0
EXTRACT: note_on channel=9 note=36 velocity=95 time=0
EXTRACT: note_on channel=9 note=53 velocity=63 time=0
EXTRACT: note_on channel=12 note=39 velocity=75 time=0
EXTRACT: note_off channel=2 note=58 velocity=80 time=0.14705875
EXTRACT: note_on channel=12 note=39 velocity=0 time=0.1397058125
EXTRACT: note_off channel=0 note=70 velocity=80 time=0.007352937499999999
EXTRACT: note_on channel=0 note=67 velocity=95 time=0
EXTRACT: note_off channel=6 note=67 velocity=80 time=0
EXTRACT: note_off channel=6 note=63 velocity=80 time=0
EXTRACT: note_on channel=6 note=63 velocity=95 time=0
EXTRACT: note_on channel=6 note=58 velocity=95 time=0
EXTRACT: note_on channel=2 note=63 velocity=86 time=0
EXTRACT: note_off channel=4 note=63 velocity=80 time=0
EXTRACT: note_on channel=4 note=63 velocity=95 time=0
EXTRACT: note_off channel=7 note=65 velocity=80 time=0
EXTRACT: note_off channel=7 note=62 velocity=80 time=0
EXTRACT: note_off channel=7 note=56 velocity=80 time=0
EXTRACT: note_on channel=7 note=65 velocity=95 time=0
EXTRACT: note_on channel=7 note=62 velocity=95 time=0
EXTRACT: note_on channel=7 note=56 velocity=95 time=0
EXTRACT: note_off channel=9 note=42 velocity=80 time=0
EXTRACT: note_off channel=9 note=36 velocity=80 time=0
EXTRACT: note_off channel=9 note=53 velocity=80 time=0
EXTRACT: note_on channel=9 note=42 velocity=79 time=0
EXTRACT: note_on channel=9 note=38 velocity=95 time=0
EXTRACT: note_on channel=9 note=53 velocity=63 time=0
EXTRACT: note_on channel=12 note=39 velocity=75 time=0
EXTRACT: note_off channel=2 note=63 velocity=80 time=0.14705875
EXTRACT: note_on channel=12 note=39 velocity=0 time=0.1397058125
EXTRACT: note_off channel=0 note=67 velocity=80 time=0.007352937499999999
EXTRACT: note_on channel=0 note=67 velocity=95 time=0
EXTRACT: note_off channel=6 note=63 velocity=80 time=0
EXTRACT: note_off channel=6 note=58 velocity=80 time=0
EXTRACT: note_on channel=6 note=63 velocity=95 time=0
EXTRACT: note_on channel=6 note=58 velocity=95 time=0
EXTRACT: note_on channel=2 note=58 velocity=86 time=0
EXTRACT: note_off channel=4 note=70 velocity=80 time=0
EXTRACT: note_on channel=4 note=70 velocity=95 time=0
EXTRACT: note_off channel=7 note=65 velocity=80 time=0
EXTRACT: note_off channel=7 note=62 velocity=80 time=0
EXTRACT: note_off channel=7 note=56 velocity=80 time=0
EXTRACT: note_on channel=7 note=65 velocity=95 time=0
EXTRACT: note_on channel=7 note=62 velocity=95 time=0
EXTRACT: note_on channel=7 note=56 velocity=95 time=0
EXTRACT: note_off channel=9 note=42 velocity=80 time=0
EXTRACT: note_off channel=9 note=38 velocity=80 time=0
EXTRACT: note_off channel=9 note=53 velocity=80 time=0
EXTRACT: note_on channel=9 note=42 velocity=79 time=0
EXTRACT: note_on channel=9 note=53 velocity=63 time=0
EXTRACT: note_on channel=12 note=39 velocity=75 time=0
EXTRACT: note_off channel=2 note=58 velocity=80 time=0.14705875
EXTRACT: note_on channel=12 note=39 velocity=0 time=0.1397058125
EXTRACT: note_on channel=2 note=62 velocity=86 time=0.007352937499999999
EXTRACT: note_off channel=4 note=63 velocity=80 time=0
EXTRACT: note_on channel=4 note=63 velocity=95 time=0
EXTRACT: note_off channel=7 note=65 velocity=80 time=0
EXTRACT: note_off channel=7 note=62 velocity=80 time=0
EXTRACT: note_off channel=7 note=56 velocity=80 time=0
EXTRACT: note_on channel=7 note=62 velocity=95 time=0
EXTRACT: note_on channel=7 note=56 velocity=95 time=0
EXTRACT: note_on channel=7 note=63 velocity=95 time=0
EXTRACT: note_off channel=9 note=42 velocity=80 time=0
EXTRACT: note_off channel=9 note=53 velocity=80 time=0
EXTRACT: note_on channel=9 note=42 velocity=95 time=0
EXTRACT: note_on channel=9 note=36 velocity=95 time=0
EXTRACT: note_on channel=12 note=34 velocity=75 time=0
EXTRACT: note_off channel=2 note=62 velocity=80 time=0.14705875
EXTRACT: note_on channel=2 note=58 velocity=86 time=0.14705875
EXTRACT: note_off channel=4 note=63 velocity=80 time=0
EXTRACT: note_on channel=4 note=63 velocity=95 time=0
EXTRACT: note_off channel=5 note=65 velocity=80 time=0
EXTRACT: note_on channel=5 note=62 velocity=95 time=0
EXTRACT: note_off channel=7 note=62 velocity=80 time=0
EXTRACT: note_off channel=7 note=56 velocity=80 time=0
EXTRACT: note_off channel=7 note=63 velocity=80 time=0
EXTRACT: note_on channel=7 note=62 velocity=95 time=0
EXTRACT: note_on channel=7 note=56 velocity=95 time=0
EXTRACT: note_on channel=7 note=63 velocity=95 time=0
EXTRACT: note_off channel=9 note=42 velocity=80 time=0
EXTRACT: note_off channel=9 note=36 velocity=80 time=0
EXTRACT: note_on channel=9 note=42 velocity=95 time=0
EXTRACT: note_on channel=9 note=53 velocity=63 time=0
EXTRACT: note_off channel=2 note=58 velocity=80 time=0.14705875
EXTRACT: note_on channel=12 note=34 velocity=0 time=0.049019583333333325
EXTRACT: note_on channel=2 note=58 velocity=86 time=0.09803916666666665
EXTRACT: note_off channel=4 note=70 velocity=80 time=0
EXTRACT: note_on channel=4 note=70 velocity=95 time=0
EXTRACT: note_off channel=5 note=62 velocity=80 time=0
EXTRACT: note_on channel=5 note=58 velocity=95 time=0
EXTRACT: note_off channel=7 note=62 velocity=80 time=0
EXTRACT: note_off channel=7 note=56 velocity=80 time=0
EXTRACT: note_off channel=7 note=63 velocity=80 time=0
EXTRACT: note_on channel=7 note=62 velocity=95 time=0
EXTRACT: note_on channel=7 note=56 velocity=95 time=0
EXTRACT: note_on channel=7 note=63 velocity=95 time=0
EXTRACT: note_off channel=9 note=42 velocity=80 time=0
EXTRACT: note_off channel=9 note=53 velocity=80 time=0
EXTRACT: note_on channel=9 note=42 velocity=95 time=0
EXTRACT: note_on channel=9 note=38 velocity=95 time=0
EXTRACT: note_on channel=9 note=53 velocity=63 time=0
EXTRACT: note_on channel=12 note=34 velocity=75 time=0
EXTRACT: note_off channel=2 note=58 velocity=80 time=0.14705875
EXTRACT: note_on channel=12 note=34 velocity=0 time=0.1397058125
EXTRACT: note_on channel=2 note=63 velocity=86 time=0.007352937499999999
EXTRACT: note_off channel=4 note=63 velocity=80 time=0
EXTRACT: note_on channel=4 note=63 velocity=95 time=0
EXTRACT: note_off channel=5 note=58 velocity=80 time=0
EXTRACT: note_on channel=5 note=65 velocity=95 time=0
EXTRACT: note_off channel=7 note=62 velocity=80 time=0
EXTRACT: note_off channel=7 note=56 velocity=80 time=0
EXTRACT: note_off channel=7 note=63 velocity=80 time=0
EXTRACT: note_on channel=7 note=62 velocity=95 time=0
EXTRACT: note_on channel=7 note=56 velocity=95 time=0
EXTRACT: note_on channel=7 note=63 velocity=95 time=0
EXTRACT: note_off channel=9 note=42 velocity=80 time=0
EXTRACT: note_off channel=9 note=38 velocity=80 time=0
EXTRACT: note_off channel=9 note=53 velocity=80 time=0
EXTRACT: note_on channel=9 note=42 velocity=95 time=0
EXTRACT: note_on channel=9 note=53 velocity=63 time=0
EXTRACT: note_on channel=12 note=34 velocity=75 time=0
EXTRACT: note_off channel=2 note=63 velocity=80 time=0.14705875
EXTRACT: note_on channel=12 note=34 velocity=0 time=0.1397058125
EXTRACT: note_off channel=0 note=67 velocity=80 time=0.007352937499999999
EXTRACT: note_off channel=6 note=63 velocity=80 time=0
EXTRACT: note_off channel=6 note=58 velocity=80 time=0
EXTRACT: note_on channel=2 note=58 velocity=86 time=0
EXTRACT: note_off channel=4 note=63 velocity=80 time=0
EXTRACT: note_on channel=4 note=63 velocity=95 time=0
EXTRACT: note_off channel=7 note=62 velocity=80 time=0
EXTRACT: note_off channel=7 note=56 velocity=80 time=0
EXTRACT: note_off channel=7 note=63 velocity=80 time=0
EXTRACT: note_on channel=7 note=62 velocity=95 time=0
EXTRACT: note_on channel=7 note=56 velocity=95 time=0
EXTRACT: note_on channel=7 note=63 velocity=95 time=0
EXTRACT: note_off channel=9 note=42 velocity=80 time=0
EXTRACT: note_off channel=9 note=53 velocity=80 time=0
EXTRACT: note_on channel=9 note=42 velocity=95 time=0
EXTRACT: note_on channel=9 note=36 velocity=95 time=0
EXTRACT: note_on channel=9 note=53 velocity=63 time=0
EXTRACT: note_on channel=12 note=34 velocity=75 time=0
EXTRACT: note_off channel=2 note=58 velocity=80 time=0.14705875
EXTRACT: note_on channel=12 note=34 velocity=0 time=0.1397058125
EXTRACT: note_on channel=0 note=62 velocity=95 time=0.007352937499999999
EXTRACT: note_on channel=2 note=58 velocity=86 time=0
EXTRACT: note_off channel=4 note=70 velocity=80 time=0
EXTRACT: note_on channel=4 note=70 velocity=95 time=0
EXTRACT: note_off channel=7 note=62 velocity=80 time=0
EXTRACT: note_off channel=7 note=56 velocity=80 time=0
EXTRACT: note_off channel=7 note=63 velocity=80 time=0
EXTRACT: note_on channel=7 note=62 velocity=95 time=0
EXTRACT: note_on channel=7 note=56 velocity=95 time=0
EXTRACT: note_on channel=7 note=63 velocity=95 time=0
EXTRACT: note_off channel=9 note=42 velocity=80 time=0
EXTRACT: note_off channel=9 note=36 velocity=80 time=0
EXTRACT: note_off channel=9 note=53 velocity=80 time=0
EXTRACT: note_on channel=9 note=42 velocity=95 time=0
EXTRACT: note_on channel=9 note=36 velocity=95 time=0
EXTRACT: note_on channel=9 note=53 velocity=63 time=0
EXTRACT: note_on channel=12 note=34 velocity=75 time=0
EXTRACT: note_off channel=2 note=58 velocity=80 time=0.14705875
EXTRACT: note_on channel=12 note=34 velocity=0 time=0.1397058125
EXTRACT: note_off channel=0 note=62 velocity=80 time=0.007352937499999999
EXTRACT: note_on channel=0 note=63 velocity=95 time=0
EXTRACT: note_on channel=6 note=63 velocity=95 time=0
EXTRACT: note_on channel=6 note=58 velocity=95 time=0
EXTRACT: note_on channel=2 note=62 velocity=86 time=0
EXTRACT: note_off channel=4 note=63 velocity=80 time=0
EXTRACT: note_on channel=4 note=63 velocity=95 time=0
EXTRACT: note_off channel=7 note=62 velocity=80 time=0
EXTRACT: note_off channel=7 note=56 velocity=80 time=0
EXTRACT: note_off channel=7 note=63 velocity=80 time=0
EXTRACT: note_on channel=7 note=62 velocity=95 time=0
EXTRACT: note_on channel=7 note=56 velocity=95 time=0
EXTRACT: note_on channel=7 note=63 velocity=95 time=0
EXTRACT: note_off channel=9 note=42 velocity=80 time=0
EXTRACT: note_off channel=9 note=36 velocity=80 time=0
EXTRACT: note_off channel=9 note=53 velocity=80 time=0
EXTRACT: note_on channel=9 note=42 velocity=95 time=0
EXTRACT: note_on channel=9 note=38 velocity=95 time=0
EXTRACT: note_on channel=9 note=53 velocity=63 time=0
EXTRACT: note_on channel=12 note=34 velocity=75 time=0
EXTRACT: note_off channel=2 note=62 velocity=80 time=0.14705875
EXTRACT: note_on channel=0 note=68 velocity=95 time=0.073529375
EXTRACT: note_on channel=12 note=34 velocity=0 time=0.06617643749999999
EXTRACT: note_off channel=0 note=68 velocity=80 time=0.004901958333333333
EXTRACT: note_off channel=0 note=63 velocity=80 time=0.0024509791666666664
EXTRACT: note_on channel=0 note=70 velocity=95 time=0
EXTRACT: note_off channel=6 note=63 velocity=80 time=0
EXTRACT: note_off channel=6 note=58 velocity=80 time=0
EXTRACT: note_on channel=6 note=67 velocity=95 time=0
EXTRACT: note_on channel=6 note=63 velocity=95 time=0
EXTRACT: note_on channel=2 note=58 velocity=86 time=0
EXTRACT: note_off channel=4 note=70 velocity=80 time=0
EXTRACT: note_on channel=4 note=70 velocity=95 time=0
EXTRACT: note_off channel=7 note=62 velocity=80 time=0
EXTRACT: note_off channel=7 note=56 velocity=80 time=0
EXTRACT: note_off channel=7 note=63 velocity=80 time=0
EXTRACT: note_on channel=7 note=62 velocity=95 time=0
EXTRACT: note_on channel=7 note=56 velocity=95 time=0
EXTRACT: note_on channel=7 note=63 velocity=95 time=0
EXTRACT: note_off channel=9 note=42 velocity=80 time=0
EXTRACT: note_off channel=9 note=38 velocity=80 time=0
EXTRACT: note_off channel=9 note=53 velocity=80 time=0
EXTRACT: note_on channel=9 note=42 velocity=95 time=0
EXTRACT: note_on channel=9 note=53 velocity=63 time=0
EXTRACT: note_on channel=12 note=34 velocity=75 time=0
EXTRACT: note_off channel=2 note=58 velocity=80 time=0.14705875
EXTRACT: note_on channel=12 note=34 velocity=0 time=0.1397058125
EXTRACT: note_on channel=2 note=63 velocity=86 time=0.007352937499999999
EXTRACT: note_off channel=4 note=63 velocity=80 time=0
EXTRACT: note_on channel=4 note=63 velocity=95 time=0
EXTRACT: note_off channel=5 note=65 velocity=80 time=0
EXTRACT: note_off channel=7 note=62 velocity=80 time=0
EXTRACT: note_off channel=7 note=56 velocity=80 time=0
EXTRACT: note_off channel=7 note=63 velocity=80 time=0
EXTRACT: note_on channel=7 note=67 velocity=95 time=0
EXTRACT: note_on channel=7 note=62 velocity=95 time=0
EXTRACT: note_on channel=7 note=56 velocity=95 time=0
EXTRACT: note_off channel=9 note=42 velocity=80 time=0
EXTRACT: note_off channel=9 note=53 velocity=80 time=0
EXTRACT: note_on channel=9 note=42 velocity=95 time=0
EXTRACT: note_on channel=9 note=36 velocity=95 time=0
EXTRACT: note_on channel=12 note=36 velocity=75 time=0
EXTRACT: note_off channel=2 note=63 velocity=80 time=0.14705875
EXTRACT: note_on channel=2 note=58 velocity=86 time=0.14705875
EXTRACT: note_off channel=4 note=63 velocity=80 time=0
EXTRACT: note_on channel=4 note=63 velocity=95 time=0
EXTRACT: note_on channel=5 note=63 velocity=95 time=0
EXTRACT: note_off channel=7 note=67 velocity=80 time=0
EXTRACT: note_off channel=7 note=62 velocity=80 time=0
EXTRACT: note_off channel=7 note=56 velocity=80 time=0
EXTRACT: note_on channel=7 note=67 velocity=95 time=0
EXTRACT: note_on channel=7 note=62 velocity=95 time=0
EXTRACT: note_on channel=7 note=56 velocity=95 time=0
EXTRACT: note_off channel=9 note=42 velocity=80 time=0
EXTRACT: note_off channel=9 note=36 velocity=80 time=0
EXTRACT: note_on channel=9 note=42 velocity=95 time=0
EXTRACT: note_on channel=9 note=53 velocity=63 time=0
EXTRACT: note_off channel=2 note=58 velocity=80 time=0.14705875
EXTRACT: note_on channel=12 note=36 velocity=0 time=0.049019583333333325
EXTRACT: note_on channel=2 note=58 velocity=86 time=0.09803916666666665
EXTRACT: note_off channel=4 note=70 velocity=80 time=0
EXTRACT: note_on channel=4 note=70 velocity=95 time=0
EXTRACT: note_off channel=5 note=63 velocity=80 time=0
EXTRACT: note_on channel=5 note=58 velocity=95 time=0
EXTRACT: note_off channel=7 note=67 velocity=80 time=0
EXTRACT: note_off channel=7 note=62 velocity=80 time=0
EXTRACT: note_off channel=7 note=56 velocity=80 time=0
EXTRACT: note_on channel=7 note=67 velocity=95 time=0
EXTRACT: note_on channel=7 note=62 velocity=95 time=0
EXTRACT: note_on channel=7 note=56 velocity=95 time=0
EXTRACT: note_off channel=9 note=42 velocity=80 time=0
EXTRACT: note_off channel=9 note=53 velocity=80 time=0
EXTRACT: note_on channel=9 note=42 velocity=95 time=0
EXTRACT: note_on channel=9 note=38 velocity=95 time=0
EXTRACT: note_on channel=9 note=53 velocity=63 time=0
EXTRACT: note_on channel=12 note=36 velocity=75 time=0
EXTRACT: note_off channel=2 note=58 velocity=80 time=0.14705875
EXTRACT: note_on channel=12 note=36 velocity=0 time=0.1397058125
EXTRACT: note_on channel=2 note=63 velocity=86 time=0.007352937499999999
EXTRACT: note_off channel=4 note=63 velocity=80 time=0
EXTRACT: note_on channel=4 note=63 velocity=95 time=0
EXTRACT: note_off channel=5 note=58 velocity=80 time=0
EXTRACT: note_on channel=5 note=67 velocity=95 time=0
EXTRACT: note_off channel=7 note=67 velocity=80 time=0
EXTRACT: note_off channel=7 note=62 velocity=80 time=0
EXTRACT: note_off channel=7 note=56 velocity=80 time=0
EXTRACT: note_on channel=7 note=67 velocity=95 time=0
EXTRACT: note_on channel=7 note=62 velocity=95 time=0
EXTRACT: note_on channel=7 note=56 velocity=95 time=0
EXTRACT: note_off channel=9 note=42 velocity=80 time=0
EXTRACT: note_off channel=9 note=38 velocity=80 time=0
EXTRACT: note_off channel=9 note=53 velocity=80 time=0
EXTRACT: note_on channel=9 note=42 velocity=95 time=0
EXTRACT: note_on channel=9 note=53 velocity=63 time=0
EXTRACT: note_on channel=12 note=36 velocity=75 time=0
EXTRACT: note_off channel=2 note=63 velocity=80 time=0.14705875
EXTRACT: note_on channel=12 note=36 velocity=0 time=0.1397058125
EXTRACT: note_on channel=2 note=58 velocity=86 time=0.007352937499999999
EXTRACT: note_off channel=4 note=63 velocity=80 time=0
EXTRACT: note_on channel=4 note=63 velocity=95 time=0
EXTRACT: note_off channel=7 note=67 velocity=80 time=0
EXTRACT: note_off channel=7 note=62 velocity=80 time=0
EXTRACT: note_off channel=7 note=56 velocity=80 time=0
EXTRACT: note_on channel=7 note=67 velocity=95 time=0
EXTRACT: note_on channel=7 note=62 velocity=95 time=0
EXTRACT: note_on channel=7 note=56 velocity=95 time=0
EXTRACT: note_off channel=9 note=42 velocity=80 time=0
EXTRACT: note_off channel=9 note=53 velocity=80 time=0
EXTRACT: note_on channel=9 note=42 velocity=95 time=0
EXTRACT: note_on channel=9 note=36 velocity=95 time=0
EXTRACT: note_on channel=9 note=53 velocity=63 time=0
EXTRACT: note_on channel=12 note=36 velocity=75 time=0
EXTRACT: note_off channel=2 note=58 velocity=80 time=0.14705875
EXTRACT: note_on channel=12 note=36 velocity=0 time=0.1397058125
EXTRACT: note_on channel=2 note=58 velocity=86 time=0.007352937499999999
EXTRACT: note_off channel=4 note=70 velocity=80 time=0
EXTRACT: note_on channel=4 note=70 velocity=95 time=0
EXTRACT: note_off channel=7 note=67 velocity=80 time=0
EXTRACT: note_off channel=7 note=62 velocity=80 time=0
EXTRACT: note_off channel=7 note=56 velocity=80 time=0
EXTRACT: note_on channel=7 note=67 velocity=95 time=0
EXTRACT: note_on channel=7 note=62 velocity=95 time=0
EXTRACT: note_on channel=7 note=56 velocity=95 time=0
EXTRACT: note_off channel=9 note=42 velocity=80 time=0
EXTRACT: note_off channel=9 note=36 velocity=80 time=0
EXTRACT: note_off channel=9 note=53 velocity=80 time=0
EXTRACT: note_on channel=9 note=42 velocity=95 time=0
EXTRACT: note_on channel=9 note=36 velocity=95 time=0
EXTRACT: note_on channel=9 note=53 velocity=63 time=0
EXTRACT: note_on channel=12 note=36 velocity=75 time=0
EXTRACT: note_off channel=2 note=58 velocity=80 time=0.14705875
EXTRACT: note_on channel=12 note=36 velocity=0 time=0.1397058125
EXTRACT: note_off channel=0 note=70 velocity=80 time=0.007352937499999999
EXTRACT: note_on channel=0 note=67 velocity=95 time=0
EXTRACT: note_off channel=6 note=67 velocity=80 time=0
EXTRACT: note_off channel=6 note=63 velocity=80 time=0
EXTRACT: note_on channel=6 note=63 velocity=95 time=0
EXTRACT: note_on channel=6 note=60 velocity=95 time=0
EXTRACT: note_on channel=2 note=63 velocity=86 time=0
EXTRACT: note_off channel=4 note=63 velocity=80 time=0
EXTRACT: note_on channel=4 note=63 velocity=95 time=0
EXTRACT: note_off channel=7 note=67 velocity=80 time=0
EXTRACT: note_off channel=7 note=62 velocity=80 time=0
EXTRACT: note_off channel=7 note=56 velocity=80 time=0
EXTRACT: note_on channel=7 note=67 velocity=95 time=0
EXTRACT: note_on channel=7 note=62 velocity=95 time=0
EXTRACT: note_on channel=7 note=56 velocity=95 time=0
EXTRACT: note_off channel=9 note=42 velocity=80 time=0
EXTRACT: note_off channel=9 note=36 velocity=80 time=0
EXTRACT: note_off channel=9 note=53 velocity=80 time=0
EXTRACT: note_on channel=9 note=42 velocity=95 time=0
EXTRACT: note_on channel=9 note=38 velocity=95 time=0
EXTRACT: note_on channel=9 note=53 velocity=63 time=0
EXTRACT: note_on channel=12 note=36 velocity=75 time=0
EXTRACT: note_off channel=2 note=63 velocity=80 time=0.14705875
EXTRACT: note_on channel=12 note=36 velocity=0 time=0.1397058125
EXTRACT: note_off channel=0 note=67 velocity=80 time=0.007352937499999999
EXTRACT: note_on channel=0 note=67 velocity=95 time=0
EXTRACT: note_off channel=6 note=63 velocity=80 time=0
EXTRACT: note_off channel=6 note=60 velocity=80 time=0
EXTRACT: note_on channel=6 note=63 velocity=95 time=0
EXTRACT: note_on channel=6 note=60 velocity=95 time=0
EXTRACT: note_on channel=2 note=58 velocity=86 time=0
EXTRACT: note_off channel=4 note=70 velocity=80 time=0
EXTRACT: note_on channel=4 note=70 velocity=95 time=0
EXTRACT: note_off channel=7 note=67 velocity=80 time=0
EXTRACT: note_off channel=7 note=62 velocity=80 time=0
EXTRACT: note_off channel=7 note=56 velocity=80 time=0
EXTRACT: note_on channel=7 note=67 velocity=95 time=0
EXTRACT: note_on channel=7 note=62 velocity=95 time=0
EXTRACT: note_on channel=7 note=56 velocity=95 time=0
EXTRACT: note_off channel=9 note=42 velocity=80 time=0
EXTRACT: note_off channel=9 note=38 velocity=80 time=0
EXTRACT: note_off channel=9 note=53 velocity=80 time=0
EXTRACT: note_on channel=9 note=42 velocity=95 time=0
EXTRACT: note_on channel=9 note=53 velocity=63 time=0
EXTRACT: note_on channel=12 note=36 velocity=75 time=0
EXTRACT: note_off channel=2 note=58 velocity=80 time=0.14705875
EXTRACT: note_on channel=12 note=36 velocity=0 time=0.1397058125
EXTRACT: note_on channel=2 note=63 velocity=86 time=0.007352937499999999
EXTRACT: note_off channel=4 note=63 velocity=80 time=0
EXTRACT: note_on channel=4 note=63 velocity=95 time=0
EXTRACT: note_off channel=7 note=67 velocity=80 time=0
EXTRACT: note_off channel=7 note=62 velocity=80 time=0
EXTRACT: note_off channel=7 note=56 velocity=80 time=0
EXTRACT: note_on channel=7 note=67 velocity=95 time=0
EXTRACT: note_on channel=7 note=62 velocity=95 time=0
EXTRACT: note_on channel=7 note=55 velocity=95 time=0
EXTRACT: note_off channel=9 note=42 velocity=80 time=0
EXTRACT: note_off channel=9 note=53 velocity=80 time=0
EXTRACT: note_on channel=9 note=42 velocity=95 time=0
EXTRACT: note_on channel=9 note=36 velocity=95 time=0
EXTRACT: note_on channel=12 note=32 velocity=75 time=0
EXTRACT: note_off channel=2 note=63 velocity=80 time=0.14705875
EXTRACT: note_off channel=0 note=67 velocity=80 time=0.14705875
EXTRACT: note_on channel=0 note=65 velocity=95 time=0
EXTRACT: note_off channel=6 note=63 velocity=80 time=0
EXTRACT: note_off channel=6 note=60 velocity=80 time=0
EXTRACT: note_on channel=6 note=62 velocity=95 time=0
EXTRACT: note_on channel=6 note=58 velocity=95 time=0
EXTRACT: note_on channel=2 note=60 velocity=86 time=0
EXTRACT: note_off channel=4 note=63 velocity=80 time=0
EXTRACT: note_on channel=4 note=63 velocity=95 time=0
EXTRACT: note_off channel=5 note=67 velocity=80 time=0
EXTRACT: note_on channel=5 note=63 velocity=95 time=0
EXTRACT: note_off channel=7 note=67 velocity=80 time=0
EXTRACT: note_off channel=7 note=62 velocity=80 time=0
EXTRACT: note_off channel=7 note=55 velocity=80 time=0
EXTRACT: note_on channel=7 note=67 velocity=95 time=0
EXTRACT: note_on channel=7 note=62 velocity=95 time=0
EXTRACT: note_on channel=7 note=55 velocity=95 time=0
EXTRACT: note_off channel=9 note=42 velocity=80 time=0
EXTRACT: note_off channel=9 note=36 velocity=80 time=0
EXTRACT: note_on channel=9 note=42 velocity=95 time=0
EXTRACT: note_on channel=9 note=53 velocity=63 time=0
EXTRACT: note_off channel=2 note=60 velocity=80 time=0.14705875
EXTRACT: note_on channel=12 note=32 velocity=0 time=0.049019583333333325
EXTRACT: note_on channel=2 note=60 velocity=86 time=0.09803916666666665
EXTRACT: note_off channel=4 note=70 velocity=80 time=0
EXTRACT: note_on channel=4 note=70 velocity=95 time=0
EXTRACT: note_off channel=5 note=63 velocity=80 time=0
EXTRACT: note_on channel=5 note=60 velocity=95 time=0
EXTRACT: note_off channel=7 note=67 velocity=80 time=0
EXTRACT: note_off channel=7 note=62 velocity=80 time=0
EXTRACT: note_off channel=7 note=55 velocity=80 time=0
EXTRACT: note_on channel=7 note=67 velocity=95 time=0
EXTRACT: note_on channel=7 note=62 velocity=95 time=0
EXTRACT: note_on channel=7 note=55 velocity=95 time=0
EXTRACT: note_off channel=9 note=42 velocity=80 time=0
EXTRACT: note_off channel=9 note=53 velocity=80 time=0
EXTRACT: note_on channel=9 note=42 velocity=95 time=0
EXTRACT: note_on channel=9 note=38 velocity=95 time=0
EXTRACT: note_on channel=9 note=53 velocity=63 time=0
EXTRACT: note_on channel=12 note=32 velocity=75 time=0
EXTRACT: note_off channel=2 note=60 velocity=80 time=0.14705875
EXTRACT: note_on channel=12 note=32 velocity=0 time=0.1397058125
EXTRACT: note_off channel=0 note=65 velocity=80 time=0.007352937499999999
EXTRACT: note_on channel=0 note=63 velocity=95 time=0
EXTRACT: note_off channel=6 note=62 velocity=80 time=0
EXTRACT: note_off channel=6 note=58 velocity=80 time=0
EXTRACT: note_on channel=6 note=60 velocity=95 time=0
EXTRACT: note_on channel=6 note=56 velocity=95 time=0
EXTRACT: note_on channel=2 note=63 velocity=86 time=0
EXTRACT: note_off channel=4 note=63 velocity=80 time=0
EXTRACT: note_on channel=4 note=63 velocity=95 time=0
EXTRACT: note_off channel=5 note=60 velocity=80 time=0
EXTRACT: note_on channel=5 note=68 velocity=95 time=0
EXTRACT: note_off channel=7 note=67 velocity=80 time=0
EXTRACT: note_off channel=7 note=62 velocity=80 time=0
EXTRACT: note_off channel=7 note=55 velocity=80 time=0
EXTRACT: note_on channel=7 note=67 velocity=95 time=0
EXTRACT: note_on channel=7 note=62 velocity=95 time=0
EXTRACT: note_on channel=7 note=55 velocity=95 time=0
EXTRACT: note_off channel=9 note=42 velocity=80 time=0
EXTRACT: note_off channel=9 note=38 velocity=80 time=0
EXTRACT: note_off channel=9 note=53 velocity=80 time=0
EXTRACT: note_on channel=9 note=42 velocity=95 time=0
EXTRACT: note_on channel=9 note=53 velocity=63 time=0
EXTRACT: note_on channel=12 note=32 velocity=75 time=0
EXTRACT: note_off channel=2 note=63 velocity=80 time=0.14705875
EXTRACT: note_on channel=12 note=32 velocity=0 time=0.1397058125
EXTRACT: note_on channel=2 note=60 velocity=86 time=0.007352937499999999
EXTRACT: note_off channel=4 note=63 velocity=80 time=0
EXTRACT: note_on channel=4 note=63 velocity=95 time=0
EXTRACT: note_off channel=7 note=67 velocity=80 time=0
EXTRACT: note_off channel=7 note=62 velocity=80 time=0
EXTRACT: note_off channel=7 note=55 velocity=80 time=0
EXTRACT: note_on channel=7 note=67 velocity=95 time=0
EXTRACT: note_on channel=7 note=62 velocity=95 time=0
EXTRACT: note_on channel=7 note=55 velocity=95 time=0
EXTRACT: note_off channel=9 note=42 velocity=80 time=0
EXTRACT: note_off channel=9 note=53 velocity=80 time=0
EXTRACT: note_on channel=9 note=42 velocity=95 time=0
EXTRACT: note_on channel=9 note=36 velocity=95 time=0
EXTRACT: note_on channel=9 note=53 velocity=63 time=0
EXTRACT: note_on channel=12 note=32 velocity=75 time=0
EXTRACT: note_off channel=2 note=60 velocity=80 time=0.14705875
EXTRACT: note_on channel=0 note=64 velocity=95 time=0.073529375
EXTRACT: note_on channel=12 note=32 velocity=0 time=0.06617643749999999
EXTRACT: note_off channel=0 note=64 velocity=80 time=0.004901958333333333
EXTRACT: note_off channel=0 note=63 velocity=80 time=0.0024509791666666664
EXTRACT: note_on channel=0 note=65 velocity=95 time=0
EXTRACT: note_off channel=6 note=60 velocity=80 time=0
EXTRACT: note_on channel=6 note=62 velocity=95 time=0
EXTRACT: note_on channel=2 note=60 velocity=86 time=0
EXTRACT: note_off channel=4 note=70 velocity=80 time=0
EXTRACT: note_on channel=4 note=70 velocity=95 time=0
EXTRACT: note_off channel=7 note=67 velocity=80 time=0
EXTRACT: note_off channel=7 note=62 velocity=80 time=0
EXTRACT: note_off channel=7 note=55 velocity=80 time=0
EXTRACT: note_on channel=7 note=67 velocity=95 time=0
EXTRACT: note_on channel=7 note=62 velocity=95 time=0
EXTRACT: note_on channel=7 note=55 velocity=95 time=0
EXTRACT: note_off channel=9 note=42 velocity=80 time=0
EXTRACT: note_off channel=9 note=36 velocity=80 time=0
EXTRACT: note_off channel=9 note=53 velocity=80 time=0
EXTRACT: note_on channel=9 note=42 velocity=95 time=0
EXTRACT: note_on channel=9 note=36 velocity=95 time=0
EXTRACT: note_on channel=9 note=53 velocity=63 time=0
EXTRACT: note_on channel=12 note=32 velocity=75 time=0
EXTRACT: note_off channel=2 note=60 velocity=80 time=0.14705875
EXTRACT: note_on channel=12 note=32 velocity=0 time=0.1397058125
EXTRACT: note_on channel=2 note=63 velocity=86 time=0.007352937499999999
EXTRACT: note_off channel=4 note=63 velocity=80 time=0
EXTRACT: note_on channel=4 note=63 velocity=95 time=0
EXTRACT: note_off channel=7 note=67 velocity=80 time=0
EXTRACT: note_off channel=7 note=62 velocity=80 time=0
EXTRACT: note_off channel=7 note=55 velocity=80 time=0
EXTRACT: note_on channel=7 note=67 velocity=95 time=0
EXTRACT: note_on channel=7 note=62 velocity=95 time=0
EXTRACT: note_on channel=7 note=55 velocity=95 time=0
EXTRACT: note_off channel=9 note=42 velocity=80 time=0
EXTRACT: note_off channel=9 note=36 velocity=80 time=0
EXTRACT: note_off channel=9 note=53 velocity=80 time=0
EXTRACT: note_on channel=9 note=42 velocity=95 time=0
EXTRACT: note_on channel=9 note=38 velocity=95 time=0
EXTRACT: note_on channel=9 note=53 velocity=63 time=0
EXTRACT: note_on channel=12 note=32 velocity=75 time=0
EXTRACT: note_off channel=2 note=63 velocity=80 time=0.14705875
EXTRACT: note_on channel=12 note=32 velocity=0 time=0.1397058125
EXTRACT: note_on channel=2 note=60 velocity=86 time=0.007352937499999999
EXTRACT: note_off channel=4 note=70 velocity=80 time=0
EXTRACT: note_on channel=4 note=70 velocity=95 time=0
EXTRACT: note_off channel=7 note=67 velocity=80 time=0
EXTRACT: note_off channel=7 note=62 velocity=80 time=0
EXTRACT: note_off channel=7 note=55 velocity=80 time=0
EXTRACT: note_on channel=7 note=67 velocity=95 time=0
EXTRACT: note_on channel=7 note=62 velocity=95 time=0
EXTRACT: note_on channel=7 note=55 velocity=95 time=0
EXTRACT: note_off channel=9 note=42 velocity=80 time=0
EXTRACT: note_off channel=9 note=38 velocity=80 time=0
EXTRACT: note_off channel=9 note=53 velocity=80 time=0
EXTRACT: note_on channel=9 note=42 velocity=95 time=0
EXTRACT: note_on channel=9 note=53 velocity=63 time=0
EXTRACT: note_on channel=12 note=32 velocity=75 time=0
EXTRACT: note_off channel=2 note=60 velocity=80 time=0.14705875
EXTRACT: note_on channel=12 note=32 velocity=0 time=0.1397058125
EXTRACT: note_on channel=2 note=60 velocity=95 time=0.007352937499999999
EXTRACT: note_on channel=3 note=60 velocity=95 time=0
EXTRACT: note_on channel=3 note=55 velocity=95 time=0
EXTRACT: note_on channel=3 note=51 velocity=95 time=0
EXTRACT: note_off channel=5 note=68 velocity=80 time=0
EXTRACT: note_on channel=5 note=67 velocity=95 time=0
EXTRACT: note_on channel=5 note=63 velocity=95 time=0
EXTRACT: note_on channel=5 note=60 velocity=95 time=0
EXTRACT: note_off channel=7 note=67 velocity=80 time=0
EXTRACT: note_off channel=7 note=62 velocity=80 time=0
EXTRACT: note_off channel=7 note=55 velocity=80 time=0
EXTRACT: note_on channel=8 note=63 velocity=95 time=0
EXTRACT: note_on channel=8 note=60 velocity=95 time=0
EXTRACT: note_off channel=9 note=42 velocity=80 time=0
EXTRACT: note_off channel=9 note=53 velocity=80 time=0
EXTRACT: note_on channel=9 note=49 velocity=95 time=0
EXTRACT: note_on channel=9 note=36 velocity=95 time=0
EXTRACT: note_on channel=12 note=36 velocity=75 time=0
EXTRACT: note_off channel=9 note=49 velocity=80 time=0.2941175
EXTRACT: note_off channel=9 note=36 velocity=80 time=0
EXTRACT: note_on channel=9 note=42 velocity=95 time=0
EXTRACT: note_on channel=9 note=53 velocity=63 time=0
EXTRACT: note_on channel=12 note=36 velocity=0 time=0.1960783333333333
EXTRACT: note_off channel=3 note=60 velocity=80 time=0.09803916666666665
EXTRACT: note_off channel=3 note=55 velocity=80 time=0
EXTRACT: note_off channel=3 note=51 velocity=80 time=0
EXTRACT: note_on channel=3 note=60 velocity=95 time=0
EXTRACT: note_on channel=3 note=55 velocity=95 time=0
EXTRACT: note_on channel=3 note=51 velocity=95 time=0
EXTRACT: note_off channel=9 note=42 velocity=80 time=0
EXTRACT: note_off channel=9 note=53 velocity=80 time=0
EXTRACT: note_on channel=9 note=42 velocity=79 time=0
EXTRACT: note_on channel=9 note=38 velocity=95 time=0
EXTRACT: note_on channel=9 note=53 velocity=63 time=0
EXTRACT: note_on channel=12 note=41 velocity=75 time=0
EXTRACT: note_on channel=12 note=41 velocity=0 time=0.2867645625
EXTRACT: note_off channel=0 note=65 velocity=80 time=0.007352937499999999
EXTRACT: note_on channel=0 note=62 velocity=95 time=0
EXTRACT: note_off channel=6 note=56 velocity=80 time=0
EXTRACT: note_off channel=6 note=62 velocity=80 time=0
EXTRACT: note_off channel=3 note=60 velocity=80 time=0
EXTRACT: note_off channel=3 note=55 velocity=80 time=0
EXTRACT: note_off channel=3 note=51 velocity=80 time=0
EXTRACT: note_on channel=3 note=60 velocity=95 time=0
EXTRACT: note_on channel=3 note=55 velocity=95 time=0
EXTRACT: note_on channel=3 note=51 velocity=95 time=0
EXTRACT: note_off channel=9 note=42 velocity=80 time=0
EXTRACT: note_off channel=9 note=38 velocity=80 time=0
EXTRACT: note_off channel=9 note=53 velocity=80 time=0
EXTRACT: note_on channel=9 note=42 velocity=79 time=0
EXTRACT: note_on channel=9 note=53 velocity=63 time=0
EXTRACT: note_on channel=12 note=43 velocity=75 time=0
EXTRACT: note_on channel=12 note=43 velocity=0 time=0.2867645625
EXTRACT: note_off channel=0 note=62 velocity=80 time=0.007352937499999999
EXTRACT: note_on channel=0 note=62 velocity=95 time=0
EXTRACT: note_off channel=9 note=42 velocity=80 time=0
EXTRACT: note_off channel=9 note=53 velocity=80 time=0
EXTRACT: note_on channel=9 note=42 velocity=79 time=0
EXTRACT: note_on channel=9 note=36 velocity=95 time=0
EXTRACT: note_on channel=9 note=53 velocity=63 time=0
EXTRACT: note_on channel=12 note=48 velocity=75 time=0
EXTRACT: note_on channel=12 note=48 velocity=0 time=0.2867645625
EXTRACT: note_off channel=0 note=62 velocity=80 time=0.007352937499999999
EXTRACT: note_on channel=0 note=62 velocity=95 time=0
EXTRACT: note_off channel=3 note=60 velocity=80 time=0
EXTRACT: note_off channel=3 note=55 velocity=80 time=0
EXTRACT: note_off channel=3 note=51 velocity=80 time=0
EXTRACT: note_on channel=3 note=60 velocity=95 time=0
EXTRACT: note_on channel=3 note=55 velocity=95 time=0
EXTRACT: note_on channel=3 note=51 velocity=95 time=0
EXTRACT: note_off channel=9 note=42 velocity=80 time=0
EXTRACT: note_off channel=9 note=36 velocity=80 time=0
EXTRACT: note_off channel=9 note=53 velocity=80 time=0
EXTRACT: note_on channel=9 note=42 velocity=79 time=0
EXTRACT: note_on channel=9 note=36 velocity=95 time=0
EXTRACT: note_on channel=9 note=53 velocity=63 time=0
EXTRACT: note_on channel=12 note=48 velocity=75 time=0
EXTRACT: note_on channel=12 note=48 velocity=0 time=0.2867645625
EXTRACT: note_off channel=0 note=62 velocity=80 time=0.007352937499999999
EXTRACT: note_on channel=0 note=62 velocity=95 time=0
EXTRACT: note_off channel=9 note=42 velocity=80 time=0
EXTRACT: note_off channel=9 note=36 velocity=80 time=0
EXTRACT: note_off channel=9 note=53 velocity=80 time=0
EXTRACT: note_on channel=9 note=42 velocity=79 time=0
EXTRACT: note_on channel=9 note=38 velocity=95 time=0
EXTRACT: note_on channel=9 note=53 velocity=63 time=0
EXTRACT: note_off channel=0 note=62 velocity=80 time=0.2941175
EXTRACT: note_on channel=0 note=62 velocity=95 time=0
EXTRACT: note_off channel=9 note=42 velocity=80 time=0
EXTRACT: note_off channel=9 note=38 velocity=80 time=0
EXTRACT: note_off channel=9 note=53 velocity=80 time=0
EXTRACT: note_on channel=9 note=42 velocity=79 time=0
EXTRACT: note_on channel=9 note=53 velocity=63 time=0
EXTRACT: note_on channel=12 note=46 velocity=75 time=0
EXTRACT: note_off channel=2 note=60 velocity=80 time=0.2941175
EXTRACT: note_off channel=3 note=60 velocity=80 time=0
EXTRACT: note_off channel=3 note=55 velocity=80 time=0
EXTRACT: note_off channel=3 note=51 velocity=80 time=0
EXTRACT: note_on channel=3 note=58 velocity=95 time=0
EXTRACT: note_on channel=3 note=53 velocity=95 time=0
EXTRACT: note_on channel=3 note=50 velocity=95 time=0
EXTRACT: note_off channel=4 note=63 velocity=80 time=0
EXTRACT: note_off channel=4 note=70 velocity=80 time=0
EXTRACT: note_off channel=5 note=67 velocity=80 time=0
EXTRACT: note_off channel=5 note=63 velocity=80 time=0
EXTRACT: note_off channel=5 note=60 velocity=80 time=0
EXTRACT: note_off channel=8 note=63 velocity=80 time=0
EXTRACT: note_off channel=8 note=60 velocity=80 time=0
EXTRACT: note_on channel=8 note=65 velocity=95 time=0
EXTRACT: note_on channel=8 note=62 velocity=95 time=0
EXTRACT: note_on channel=8 note=58 velocity=95 time=0
EXTRACT: note_off channel=9 note=42 velocity=80 time=0
EXTRACT: note_off channel=9 note=53 velocity=80 time=0
EXTRACT: note_on channel=9 note=42 velocity=95 time=0
EXTRACT: note_on channel=9 note=36 velocity=95 time=0
EXTRACT: note_on channel=12 note=46 velocity=0 time=0.2867645625
EXTRACT: note_off channel=9 note=42 velocity=80 time=0.007352937499999999
EXTRACT: note_off channel=9 note=36 velocity=80 time=0
EXTRACT: note_on channel=9 note=42 velocity=95 time=0
EXTRACT: note_on channel=9 note=53 velocity=63 time=0
EXTRACT: note_on channel=12 note=43 velocity=75 time=0
EXTRACT: note_off channel=0 note=62 velocity=80 time=0.2941175
EXTRACT: note_off channel=9 note=42 velocity=80 time=0
EXTRACT: note_off channel=9 note=53 velocity=80 time=0
EXTRACT: note_on channel=9 note=42 velocity=95 time=0
EXTRACT: note_on channel=9 note=38 velocity=95 time=0
EXTRACT: note_on channel=9 note=53 velocity=63 time=0
EXTRACT: note_on channel=12 note=43 velocity=0 time=0.1960783333333333
EXTRACT: note_on channel=0 note=62 velocity=95 time=0.09803916666666665
EXTRACT: note_off channel=3 note=58 velocity=80 time=0
EXTRACT: note_off channel=3 note=53 velocity=80 time=0
EXTRACT: note_off channel=3 note=50 velocity=80 time=0
EXTRACT: note_on channel=3 note=50 velocity=95 time=0
EXTRACT: note_on channel=3 note=53 velocity=95 time=0
EXTRACT: note_off channel=9 note=42 velocity=80 time=0
EXTRACT: note_off channel=9 note=38 velocity=80 time=0
EXTRACT: note_off channel=9 note=53 velocity=80 time=0
EXTRACT: note_on channel=9 note=42 velocity=95 time=0
EXTRACT: note_on channel=9 note=53 velocity=63 time=0
EXTRACT: note_on channel=12 note=34 velocity=75 time=0
EXTRACT: note_off channel=0 note=62 velocity=80 time=0.2941175
EXTRACT: note_on channel=0 note=62 velocity=95 time=0
EXTRACT: note_off channel=9 note=42 velocity=80 time=0
EXTRACT: note_off channel=9 note=53 velocity=80 time=0
EXTRACT: note_on channel=9 note=42 velocity=95 time=0
EXTRACT: note_on channel=9 note=36 velocity=95 time=0
EXTRACT: note_on channel=9 note=53 velocity=63 time=0
EXTRACT: note_on channel=12 note=34 velocity=0 time=0.2867645625
EXTRACT: note_off channel=0 note=62 velocity=80 time=0.007352937499999999
EXTRACT: note_on channel=0 note=62 velocity=95 time=0
EXTRACT: note_off channel=9 note=42 velocity=80 time=0
EXTRACT: note_off channel=9 note=36 velocity=80 time=0
EXTRACT: note_off channel=9 note=53 velocity=80 time=0
EXTRACT: note_on channel=9 note=42 velocity=95 time=0
EXTRACT: note_on channel=9 note=36 velocity=95 time=0
EXTRACT: note_on channel=9 note=53 velocity=63 time=0
EXTRACT: note_on channel=12 note=34 velocity=75 time=0
EXTRACT: note_off channel=0 note=62 velocity=80 time=0.2941175
EXTRACT: note_on channel=0 note=62 velocity=95 time=0
EXTRACT: note_off channel=3 note=50 velocity=80 time=0
EXTRACT: note_off channel=3 note=53 velocity=80 time=0
EXTRACT: note_on channel=3 note=50 velocity=95 time=0
EXTRACT: note_on channel=3 note=53 velocity=95 time=0
EXTRACT: note_off channel=9 note=42 velocity=80 time=0
EXTRACT: note_off channel=9 note=36 velocity=80 time=0
EXTRACT: note_off channel=9 note=53 velocity=80 time=0
EXTRACT: note_on channel=9 note=42 velocity=95 time=0
EXTRACT: note_on channel=9 note=38 velocity=95 time=0
EXTRACT: note_on channel=9 note=53 velocity=63 time=0
EXTRACT: note_on channel=12 note=34 velocity=0 time=0.1960783333333333
EXTRACT: note_off channel=0 note=62 velocity=80 time=0.09803916666666665
EXTRACT: note_on channel=0 note=63 velocity=95 time=0
EXTRACT: note_off channel=9 note=42 velocity=80 time=0
EXTRACT: note_off channel=9 note=38 velocity=80 time=0
EXTRACT: note_off channel=9 note=53 velocity=80 time=0
EXTRACT: note_on channel=9 note=42 velocity=95 time=0
EXTRACT: note_on channel=9 note=53 velocity=63 time=0
EXTRACT: note_on channel=12 note=34 velocity=75 time=0
EXTRACT: note_on channel=12 note=34 velocity=0 time=0.2867645625
EXTRACT: note_off channel=3 note=50 velocity=80 time=0.007352937499999999
EXTRACT: note_off channel=3 note=53 velocity=80 time=0
EXTRACT: note_on channel=3 note=55 velocity=95 time=0
EXTRACT: note_on channel=3 note=51 velocity=95 time=0
EXTRACT: note_on channel=3 note=58 velocity=95 time=0
EXTRACT: note_off channel=8 note=65 velocity=80 time=0
EXTRACT: note_off channel=8 note=62 velocity=80 time=0
EXTRACT: note_off channel=8 note=58 velocity=80 time=0
EXTRACT: note_on channel=8 note=67 velocity=95 time=0
EXTRACT: note_on channel=8 note=63 velocity=95 time=0
EXTRACT: note_on channel=8 note=60 velocity=95 time=0
EXTRACT: note_off channel=9 note=42 velocity=80 time=0
EXTRACT: note_off channel=9 note=53 velocity=80 time=0
EXTRACT: note_on channel=9 note=49 velocity=95 time=0
EXTRACT: note_on channel=9 note=36 velocity=95 time=0
EXTRACT: note_on channel=12 note=36 velocity=75 time=0
EXTRACT: note_off channel=9 note=49 velocity=80 time=0.2941175
EXTRACT: note_off channel=9 note=36 velocity=80 time=0
EXTRACT: note_on channel=9 note=42 velocity=95 time=0
EXTRACT: note_on channel=9 note=53 velocity=63 time=0
EXTRACT: note_on channel=12 note=36 velocity=0 time=0.1960783333333333
EXTRACT: note_off channel=0 note=63 velocity=80 time=0.09803916666666665
EXTRACT: note_off channel=9 note=42 velocity=80 time=0
EXTRACT: note_off channel=9 note=53 velocity=80 time=0
EXTRACT: note_on channel=9 note=42 velocity=79 time=0
EXTRACT: note_on channel=9 note=38 velocity=95 time=0
EXTRACT: note_on channel=9 note=53 velocity=63 time=0
EXTRACT: note_on channel=12 note=41 velocity=75 time=0
EXTRACT: note_on channel=0 note=61 velocity=95 time=0.22058812499999997
EXTRACT: note_on channel=12 note=41 velocity=0 time=0.06617643749999999
EXTRACT: note_off channel=0 note=61 velocity=80 time=0.004901958333333333
EXTRACT: note_on channel=0 note=63 velocity=95 time=0.0024509791666666664
EXTRACT: note_on channel=2 note=60 velocity=95 time=0
EXTRACT: note_off channel=3 note=55 velocity=80 time=0
EXTRACT: note_off channel=3 note=51 velocity=80 time=0
EXTRACT: note_off channel=3 note=58 velocity=80 time=0
EXTRACT: note_on channel=3 note=55 velocity=95 time=0
EXTRACT: note_on channel=3 note=51 velocity=95 time=0
EXTRACT: note_off channel=9 note=42 velocity=80 time=0
EXTRACT: note_off channel=9 note=38 velocity=80 time=0
EXTRACT: note_off channel=9 note=53 velocity=80 time=0
EXTRACT: note_on channel=9 note=42 velocity=79 time=0
EXTRACT: note_on channel=9 note=53 velocity=63 time=0
EXTRACT: note_on channel=12 note=43 velocity=75 time=0
EXTRACT: note_on channel=12 note=43 velocity=0 time=0.2867645625
EXTRACT: note_off channel=0 note=63 velocity=80 time=0.007352937499999999
EXTRACT: note_on channel=0 note=63 velocity=95 time=0
EXTRACT: note_off channel=9 note=42 velocity=80 time=0
EXTRACT: note_off channel=9 note=53 velocity=80 time=0
EXTRACT: note_on channel=9 note=42 velocity=79 time=0
EXTRACT: note_on channel=9 note=36 velocity=95 time=0
EXTRACT: note_on channel=9 note=53 velocity=63 time=0
EXTRACT: note_on channel=12 note=48 velocity=75 time=0
EXTRACT: note_on channel=12 note=48 velocity=0 time=0.2867645625
EXTRACT: note_off channel=0 note=63 velocity=80 time=0.007352937499999999
EXTRACT: note_on channel=0 note=63 velocity=95 time=0
EXTRACT: note_off channel=2 note=60 velocity=80 time=0
EXTRACT: note_on channel=2 note=60 velocity=95 time=0
EXTRACT: note_off channel=9 note=42 velocity=80 time=0
EXTRACT: note_off channel=9 note=36 velocity=80 time=0
EXTRACT: note_off channel=9 note=53 velocity=80 time=0
EXTRACT: note_on channel=9 note=42 velocity=79 time=0
EXTRACT: note_on channel=9 note=36 velocity=95 time=0
EXTRACT: note_on channel=9 note=53 velocity=63 time=0
EXTRACT: note_on channel=12 note=48 velocity=75 time=0
EXTRACT: note_on channel=12 note=48 velocity=0 time=0.2867645625
EXTRACT: note_off channel=0 note=63 velocity=80 time=0.007352937499999999
EXTRACT: note_on channel=0 note=63 velocity=95 time=0
EXTRACT: note_off channel=2 note=60 velocity=80 time=0
EXTRACT: note_on channel=2 note=55 velocity=95 time=0
EXTRACT: note_off channel=9 note=42 velocity=80 time=0
EXTRACT: note_off channel=9 note=36 velocity=80 time=0
EXTRACT: note_off channel=9 note=53 velocity=80 time=0
EXTRACT: note_on channel=9 note=42 velocity=79 time=0
EXTRACT: note_on channel=9 note=38 velocity=95 time=0
EXTRACT: note_on channel=9 note=53 velocity=63 time=0
EXTRACT: note_off channel=0 note=63 velocity=80 time=0.2941175
EXTRACT: note_on channel=0 note=63 velocity=95 time=0
EXTRACT: note_off channel=9 note=42 velocity=80 time=0
EXTRACT: note_off channel=9 note=38 velocity=80 time=0
EXTRACT: note_off channel=9 note=53 velocity=80 time=0
EXTRACT: note_on channel=9 note=42 velocity=79 time=0
EXTRACT: note_on channel=9 note=53 velocity=63 time=0
EXTRACT: note_on channel=12 note=46 velocity=75 time=0
EXTRACT: note_off channel=2 note=55 velocity=80 time=0.2941175
EXTRACT: note_off channel=3 note=55 velocity=80 time=0
EXTRACT: note_off channel=3 note=51 velocity=80 time=0
EXTRACT: note_on channel=3 note=58 velocity=95 time=0
EXTRACT: note_on channel=3 note=53 velocity=95 time=0
EXTRACT: note_on channel=3 note=50 velocity=95 time=0
EXTRACT: note_off channel=8 note=67 velocity=80 time=0
EXTRACT: note_off channel=8 note=63 velocity=80 time=0
EXTRACT: note_off channel=8 note=60 velocity=80 time=0
EXTRACT: note_on channel=8 note=68 velocity=95 time=0
EXTRACT: note_on channel=8 note=62 velocity=95 time=0
EXTRACT: note_on channel=8 note=58 velocity=95 time=0
EXTRACT: note_off channel=9 note=42 velocity=80 time=0
EXTRACT: note_off channel=9 note=53 velocity=80 time=0
EXTRACT: note_on channel=9 note=42 velocity=95 time=0
EXTRACT: note_on channel=9 note=36 velocity=95 time=0
EXTRACT: note_on channel=12 note=46 velocity=0 time=0.2867645625
EXTRACT: note_off channel=0 note=63 velocity=80 time=0.007352937499999999
EXTRACT: note_on channel=0 note=58 velocity=95 time=0
EXTRACT: note_off channel=9 note=42 velocity=80 time=0
EXTRACT: note_off channel=9 note=36 velocity=80 time=0
EXTRACT: note_on channel=9 note=42 velocity=95 time=0
EXTRACT: note_on channel=9 note=53 velocity=63 time=0
EXTRACT: note_on channel=12 note=41 velocity=75 time=0
EXTRACT: note_off channel=0 note=58 velocity=80 time=0.2941175
EXTRACT: note_on channel=0 note=58 velocity=95 time=0
EXTRACT: note_off channel=9 note=42 velocity=80 time=0
EXTRACT: note_off channel=9 note=53 velocity=80 time=0
EXTRACT: note_on channel=9 note=42 velocity=95 time=0
EXTRACT: note_on channel=9 note=38 velocity=95 time=0
EXTRACT: note_on channel=9 note=53 velocity=63 time=0
EXTRACT: note_on channel=12 note=41 velocity=0 time=0.1960783333333333
EXTRACT: note_off channel=0 note=58 velocity=80 time=0.09803916666666665
EXTRACT: note_on channel=0 note=63 velocity=95 time=0
EXTRACT: note_on channel=2 note=60 velocity=95 time=0
EXTRACT: note_off channel=3 note=58 velocity=80 time=0
EXTRACT: note_off channel=3 note=53 velocity=80 time=0
EXTRACT: note_off channel=3 note=50 velocity=80 time=0
EXTRACT: note_on channel=3 note=50 velocity=95 time=0
EXTRACT: note_on channel=3 note=53 velocity=95 time=0
EXTRACT: note_off channel=9 note=42 velocity=80 time=0
EXTRACT: note_off channel=9 note=38 velocity=80 time=0
EXTRACT: note_off channel=9 note=53 velocity=80 time=0
EXTRACT: note_on channel=9 note=42 velocity=95 time=0
EXTRACT: note_on channel=9 note=53 velocity=63 time=0
EXTRACT: note_on channel=12 note=34 velocity=75 time=0
EXTRACT: note_off channel=0 note=63 velocity=80 time=0.2941175
EXTRACT: note_on channel=0 note=63 velocity=95 time=0
EXTRACT: note_off channel=9 note=42 velocity=80 time=0
EXTRACT: note_off channel=9 note=53 velocity=80 time=0
EXTRACT: note_on channel=9 note=42 velocity=95 time=0
EXTRACT: note_on channel=9 note=36 velocity=95 time=0
EXTRACT: note_on channel=9 note=53 velocity=63 time=0
EXTRACT: note_on channel=12 note=34 velocity=0 time=0.2867645625
EXTRACT: note_off channel=0 note=63 velocity=80 time=0.007352937499999999
EXTRACT: note_on channel=0 note=58 velocity=95 time=0
EXTRACT: note_off channel=2 note=60 velocity=80 time=0
EXTRACT: note_on channel=2 note=62 velocity=95 time=0
EXTRACT: note_off channel=9 note=42 velocity=80 time=0
EXTRACT: note_off channel=9 note=36 velocity=80 time=0
EXTRACT: note_off channel=9 note=53 velocity=80 time=0
EXTRACT: note_on channel=9 note=42 velocity=95 time=0
EXTRACT: note_on channel=9 note=36 velocity=95 time=0
EXTRACT: note_on channel=9 note=53 velocity=63 time=0
EXTRACT: note_on channel=12 note=34 velocity=75 time=0
EXTRACT: note_on channel=0 note=59 velocity=95 time=0.22058812499999997
EXTRACT: note_off channel=0 note=59 velocity=80 time=0.07107839583333332
EXTRACT: note_off channel=0 note=58 velocity=80 time=0.0024509791666666664
EXTRACT: note_on channel=0 note=60 velocity=95 time=0
EXTRACT: note_off channel=9 note=42 velocity=80 time=0
EXTRACT: note_off channel=9 note=36 velocity=80 time=0
EXTRACT: note_off channel=9 note=53 velocity=80 time=0
EXTRACT: note_on channel=9 note=42 velocity=95 time=0
EXTRACT: note_on channel=9 note=38 velocity=95 time=0
EXTRACT: note_on channel=9 note=53 velocity=63 time=0
EXTRACT: note_on channel=12 note=34 velocity=0 time=0.1960783333333333
EXTRACT: note_off channel=9 note=42 velocity=80 time=0.09803916666666665
EXTRACT: note_off channel=9 note=38 velocity=80 time=0
EXTRACT: note_off channel=9 note=53 velocity=80 time=0
EXTRACT: note_on channel=9 note=42 velocity=95 time=0
EXTRACT: note_on channel=9 note=53 velocity=63 time=0
EXTRACT: note_on channel=12 note=34 velocity=75 time=0
EXTRACT: note_on channel=12 note=34 velocity=0 time=0.2867645625
EXTRACT: note_off channel=2 note=62 velocity=80 time=0.007352937499999999
EXTRACT: note_off channel=3 note=50 velocity=80 time=0
EXTRACT: note_off channel=3 note=53 velocity=80 time=0
EXTRACT: note_on channel=3 note=60 velocity=95 time=0
EXTRACT: note_on channel=3 note=55 velocity=95 time=0
EXTRACT: note_on channel=3 note=63 velocity=95 time=0
EXTRACT: note_off channel=8 note=68 velocity=80 time=0
EXTRACT: note_off channel=8 note=62 velocity=80 time=0
EXTRACT: note_off channel=8 note=58 velocity=80 time=0
EXTRACT: note_on channel=8 note=70 velocity=95 time=0
EXTRACT: note_on channel=8 note=63 velocity=95 time=0
EXTRACT: note_on channel=8 note=60 velocity=95 time=0
EXTRACT: note_off channel=9 note=42 velocity=80 time=0
EXTRACT: note_off channel=9 note=53 velocity=80 time=0
EXTRACT: note_on channel=9 note=49 velocity=95 time=0
EXTRACT: note_on channel=9 note=36 velocity=95 time=0
EXTRACT: note_on channel=12 note=36 velocity=75 time=0
EXTRACT: note_off channel=9 note=49 velocity=80 time=0.2941175
EXTRACT: note_off channel=9 note=36 velocity=80 time=0
EXTRACT: note_on channel=9 note=42 velocity=95 time=0
EXTRACT: note_on channel=9 note=53 velocity=63 time=0
EXTRACT: note_on channel=12 note=36 velocity=0 time=0.1960783333333333
EXTRACT: note_off channel=0 note=60 velocity=80 time=0.09803916666666665
EXTRACT: note_off channel=9 note=42 velocity=80 time=0
EXTRACT: note_off channel=9 note=53 velocity=80 time=0
EXTRACT: note_on channel=9 note=42 velocity=79 time=0
EXTRACT: note_on channel=9 note=38 velocity=95 time=0
EXTRACT: note_on channel=9 note=53 velocity=63 time=0
EXTRACT: note_on channel=12 note=41 velocity=75 time=0
EXTRACT: note_on channel=0 note=60 velocity=95 time=0.22058812499999997
EXTRACT: note_on channel=12 note=41 velocity=0 time=0.06617643749999999
EXTRACT: note_off channel=0 note=60 velocity=80 time=0.004901958333333333
EXTRACT: note_on channel=0 note=62 velocity=95 time=0.0024509791666666664
EXTRACT: note_off channel=3 note=60 velocity=80 time=0
EXTRACT: note_off channel=3 note=55 velocity=80 time=0
EXTRACT: note_off channel=3 note=63 velocity=80 time=0
EXTRACT: note_on channel=3 note=62 velocity=95 time=0
EXTRACT: note_off channel=9 note=42 velocity=80 time=0
EXTRACT: note_off channel=9 note=38 velocity=80 time=0
EXTRACT: note_off channel=9 note=53 velocity=80 time=0
EXTRACT: note_on channel=9 note=42 velocity=79 time=0
EXTRACT: note_on channel=9 note=53 velocity=63 time=0
EXTRACT: note_on channel=12 note=43 velocity=75 time=0
EXTRACT: note_on channel=12 note=43 velocity=0 time=0.2867645625
EXTRACT: note_off channel=0 note=62 velocity=80 time=0.007352937499999999
EXTRACT: note_on channel=0 note=62 velocity=95 time=0
EXTRACT: note_off channel=9 note=42 velocity=80 time=0
EXTRACT: note_off channel=9 note=53 velocity=80 time=0
EXTRACT: note_on channel=9 note=42 velocity=79 time=0
EXTRACT: note_on channel=9 note=36 velocity=95 time=0
EXTRACT: note_on channel=9 note=53 velocity=63 time=0
EXTRACT: note_on channel=12 note=48 velocity=75 time=0
EXTRACT: note_on channel=12 note=48 velocity=0 time=0.2867645625
EXTRACT: note_off channel=0 note=62 velocity=80 time=0.007352937499999999
EXTRACT: note_on channel=0 note=62 velocity=95 time=0
EXTRACT: note_off channel=3 note=62 velocity=80 time=0
EXTRACT: note_on channel=3 note=60 velocity=95 time=0
EXTRACT: note_off channel=9 note=42 velocity=80 time=0
EXTRACT: note_off channel=9 note=36 velocity=80 time=0
EXTRACT: note_off channel=9 note=53 velocity=80 time=0
EXTRACT: note_on channel=9 note=42 velocity=79 time=0
EXTRACT: note_on channel=9 note=36 velocity=95 time=0
EXTRACT: note_on channel=9 note=53 velocity=63 time=0
EXTRACT: note_on channel=12 note=48 velocity=75 time=0
EXTRACT: note_on channel=12 note=48 velocity=0 time=0.2867645625
EXTRACT: note_off channel=0 note=62 velocity=80 time=0.007352937499999999
EXTRACT: note_on channel=0 note=62 velocity=95 time=0
EXTRACT: note_off channel=3 note=60 velocity=80 time=0
EXTRACT: note_on channel=3 note=60 velocity=95 time=0
EXTRACT: note_on channel=3 note=55 velocity=95 time=0
EXTRACT: note_on channel=3 note=51 velocity=95 time=0
EXTRACT: note_off channel=9 note=42 velocity=80 time=0
EXTRACT: note_off channel=9 note=36 velocity=80 time=0
EXTRACT: note_off channel=9 note=53 velocity=80 time=0
EXTRACT: note_on channel=9 note=42 velocity=79 time=0
EXTRACT: note_on channel=9 note=38 velocity=95 time=0
EXTRACT: note_on channel=9 note=53 velocity=63 time=0
EXTRACT: note_off channel=0 note=62 velocity=80 time=0.2941175
EXTRACT: note_on channel=0 note=62 velocity=95 time=0
EXTRACT: note_off channel=9 note=42 velocity=80 time=0
EXTRACT: note_off channel=9 note=38 velocity=80 time=0
EXTRACT: note_off channel=9 note=53 velocity=80 time=0
EXTRACT: note_on channel=9 note=42 velocity=79 time=0
EXTRACT: note_on channel=9 note=53 velocity=63 time=0
EXTRACT: note_on channel=12 note=46 velocity=75 time=0
EXTRACT: note_off channel=3 note=60 velocity=80 time=0.2941175
EXTRACT: note_off channel=3 note=55 velocity=80 time=0
EXTRACT: note_off channel=3 note=51 velocity=80 time=0
EXTRACT: note_on channel=3 note=65 velocity=95 time=0
EXTRACT: note_on channel=3 note=62 velocity=95 time=0
EXTRACT: note_on channel=3 note=58 velocity=95 time=0
EXTRACT: note_on channel=3 note=53 velocity=95 time=0
EXTRACT: note_off channel=8 note=70 velocity=80 time=0
EXTRACT: note_off channel=8 note=63 velocity=80 time=0
EXTRACT: note_off channel=8 note=60 velocity=80 time=0
EXTRACT: note_on channel=8 note=74 velocity=95 time=0
EXTRACT: note_on channel=8 note=68 velocity=95 time=0
EXTRACT: note_on channel=8 note=65 velocity=95 time=0
EXTRACT: note_on channel=8 note=58 velocity=95 time=0
EXTRACT: note_off channel=9 note=42 velocity=80 time=0
EXTRACT: note_off channel=9 note=53 velocity=80 time=0
EXTRACT: note_on channel=9 note=42 velocity=95 time=0
EXTRACT: note_on channel=9 note=36 velocity=95 time=0
EXTRACT: note_on channel=12 note=46 velocity=0 time=0.2867645625
EXTRACT: note_off channel=9 note=42 velocity=80 time=0.007352937499999999
EXTRACT: note_off channel=9 note=36 velocity=80 time=0
EXTRACT: note_on channel=9 note=42 velocity=95 time=0
EXTRACT: note_on channel=9 note=53 velocity=63 time=0
EXTRACT: note_on channel=12 note=41 velocity=75 time=0
EXTRACT: note_off channel=0 note=62 velocity=80 time=0.2941175
EXTRACT: note_on channel=0 note=63 velocity=95 time=0
EXTRACT: note_off channel=9 note=42 velocity=80 time=0
EXTRACT: note_off channel=9 note=53 velocity=80 time=0
EXTRACT: note_on channel=9 note=42 velocity=95 time=0
EXTRACT: note_on channel=9 note=38 velocity=95 time=0
EXTRACT: note_on channel=9 note=53 velocity=63 time=0
EXTRACT: note_on channel=12 note=41 velocity=0 time=0.1960783333333333
EXTRACT: note_off channel=0 note=63 velocity=80 time=0.09803916666666665
EXTRACT: note_on channel=0 note=62 velocity=95 time=0
EXTRACT: note_on channel=2 note=62 velocity=95 time=0
EXTRACT: note_off channel=3 note=65 velocity=80 time=0
EXTRACT: note_off channel=3 note=62 velocity=80 time=0
EXTRACT: note_off channel=3 note=58 velocity=80 time=0
EXTRACT: note_off channel=3 note=53 velocity=80 time=0
EXTRACT: note_on channel=3 note=55 velocity=95 time=0
EXTRACT: note_off channel=9 note=42 velocity=80 time=0
EXTRACT: note_off channel=9 note=38 velocity=80 time=0
EXTRACT: note_off channel=9 note=53 velocity=80 time=0
EXTRACT: note_on channel=9 note=42 velocity=95 time=0
EXTRACT: note_on channel=9 note=53 velocity=63 time=0
EXTRACT: note_on channel=12 note=34 velocity=75 time=0
EXTRACT: note_off channel=0 note=62 velocity=80 time=0.2941175
EXTRACT: note_on channel=0 note=62 velocity=95 time=0
EXTRACT: note_off channel=9 note=42 velocity=80 time=0
EXTRACT: note_off channel=9 note=53 velocity=80 time=0
EXTRACT: note_on channel=9 note=42 velocity=95 time=0
EXTRACT: note_on channel=9 note=36 velocity=95 time=0
EXTRACT: note_on channel=9 note=53 velocity=63 time=0
EXTRACT: note_on channel=12 note=34 velocity=0 time=0.2867645625
EXTRACT: note_off channel=0 note=62 velocity=80 time=0.007352937499999999
EXTRACT: note_on channel=0 note=62 velocity=95 time=0
EXTRACT: note_off channel=2 note=62 velocity=80 time=0
EXTRACT: note_on channel=2 note=58 velocity=95 time=0
EXTRACT: note_off channel=9 note=42 velocity=80 time=0
EXTRACT: note_off channel=9 note=36 velocity=80 time=0
EXTRACT: note_off channel=9 note=53 velocity=80 time=0
EXTRACT: note_on channel=9 note=42 velocity=95 time=0
EXTRACT: note_on channel=9 note=36 velocity=95 time=0
EXTRACT: note_on channel=9 note=53 velocity=63 time=0
EXTRACT: note_on channel=12 note=34 velocity=75 time=0
EXTRACT: note_off channel=0 note=62 velocity=80 time=0.2941175
EXTRACT: note_on channel=0 note=62 velocity=95 time=0
EXTRACT: note_off channel=9 note=42 velocity=80 time=0
EXTRACT: note_off channel=9 note=36 velocity=80 time=0
EXTRACT: note_off channel=9 note=53 velocity=80 time=0
EXTRACT: note_on channel=9 note=42 velocity=95 time=0
EXTRACT: note_on channel=9 note=38 velocity=95 time=0
EXTRACT: note_on channel=9 note=53 velocity=63 time=0
EXTRACT: note_on channel=12 note=34 velocity=0 time=0.1960783333333333
EXTRACT: note_off channel=0 note=62 velocity=80 time=0.09803916666666665
EXTRACT: note_on channel=0 note=63 velocity=95 time=0
EXTRACT: note_off channel=9 note=42 velocity=80 time=0
EXTRACT: note_off channel=9 note=38 velocity=80 time=0
EXTRACT: note_off channel=9 note=53 velocity=80 time=0
EXTRACT: note_on channel=9 note=42 velocity=95 time=0
EXTRACT: note_on channel=9 note=53 velocity=63 time=0
EXTRACT: note_on channel=12 note=34 velocity=75 time=0
EXTRACT: note_on channel=12 note=34 velocity=0 time=0.2867645625
EXTRACT: note_off channel=0 note=63 velocity=80 time=0.007352937499999999
EXTRACT: note_on channel=0 note=60 velocity=95 time=0
EXTRACT: note_off channel=2 note=58 velocity=80 time=0
EXTRACT: note_off channel=3 note=55 velocity=80 time=0
EXTRACT: note_on channel=3 note=67 velocity=95 time=0
EXTRACT: note_on channel=3 note=60 velocity=95 time=0
EXTRACT: note_on channel=3 note=55 velocity=95 time=0
EXTRACT: note_on channel=3 note=63 velocity=95 time=0
EXTRACT: note_off channel=8 note=74 velocity=80 time=0
EXTRACT: note_off channel=8 note=68 velocity=80 time=0
EXTRACT: note_off channel=8 note=65 velocity=80 time=0
EXTRACT: note_off channel=8 note=58 velocity=80 time=0
EXTRACT: note_on channel=8 note=72 velocity=95 time=0
EXTRACT: note_on channel=8 note=67 velocity=95 time=0
EXTRACT: note_on channel=8 note=63 velocity=95 time=0
EXTRACT: note_on channel=8 note=60 velocity=95 time=0
EXTRACT: note_off channel=9 note=42 velocity=80 time=0
EXTRACT: note_off channel=9 note=53 velocity=80 time=0
EXTRACT: note_on channel=9 note=42 velocity=95 time=0
EXTRACT: note_on channel=9 note=36 velocity=95 time=0
EXTRACT: note_on channel=12 note=36 velocity=75 time=0
EXTRACT: note_on channel=0 note=65 velocity=95 time=0.22058812499999997
EXTRACT: note_off channel=0 note=65 velocity=80 time=0.07107839583333332
EXTRACT: note_off channel=0 note=60 velocity=80 time=0.0024509791666666664
EXTRACT: note_on channel=0 note=67 velocity=95 time=0
EXTRACT: note_off channel=9 note=42 velocity=80 time=0
EXTRACT: note_off channel=9 note=36 velocity=80 time=0
EXTRACT: note_on channel=9 note=42 velocity=95 time=0
EXTRACT: note_on channel=9 note=53 velocity=63 time=0
EXTRACT: note_on channel=12 note=36 velocity=0 time=0.1960783333333333
EXTRACT: note_off channel=0 note=67 velocity=80 time=0.09803916666666665
EXTRACT: note_on channel=0 note=67 velocity=95 time=0
EXTRACT: note_off channel=9 note=42 velocity=80 time=0
EXTRACT: note_off channel=9 note=53 velocity=80 time=0
EXTRACT: note_on channel=9 note=42 velocity=95 time=0
EXTRACT: note_on channel=9 note=38 velocity=95 time=0
EXTRACT: note_on channel=9 note=53 velocity=63 time=0
EXTRACT: note_on channel=12 note=41 velocity=75 time=0
EXTRACT: note_on channel=12 note=41 velocity=0 time=0.2867645625
EXTRACT: note_off channel=0 note=67 velocity=80 time=0.007352937499999999
EXTRACT: note_on channel=0 note=67 velocity=95 time=0
EXTRACT: note_off channel=3 note=67 velocity=80 time=0
EXTRACT: note_off channel=3 note=60 velocity=80 time=0
EXTRACT: note_off channel=3 note=55 velocity=80 time=0
EXTRACT: note_off channel=3 note=63 velocity=80 time=0
EXTRACT: note_on channel=3 note=65 velocity=95 time=0
EXTRACT: note_on channel=3 note=60 velocity=95 time=0
EXTRACT: note_on channel=3 note=55 velocity=95 time=0
EXTRACT: note_off channel=9 note=42 velocity=80 time=0
EXTRACT: note_off channel=9 note=38 velocity=80 time=0
EXTRACT: note_off channel=9 note=53 velocity=80 time=0
EXTRACT: note_on channel=9 note=42 velocity=95 time=0
EXTRACT: note_on channel=9 note=53 velocity=63 time=0
EXTRACT: note_on channel=12 note=43 velocity=75 time=0
EXTRACT: note_on channel=12 note=43 velocity=0 time=0.2867645625
EXTRACT: note_off channel=0 note=67 velocity=80 time=0.007352937499999999
EXTRACT: note_on channel=0 note=67 velocity=95 time=0
EXTRACT: note_off channel=9 note=42 velocity=80 time=0
EXTRACT: note_off channel=9 note=53 velocity=80 time=0
EXTRACT: note_on channel=9 note=42 velocity=95 time=0
EXTRACT: note_on channel=9 note=36 velocity=95 time=0
EXTRACT: note_on channel=9 note=53 velocity=63 time=0
EXTRACT: note_on channel=12 note=48 velocity=75 time=0
EXTRACT: note_on channel=12 note=48 velocity=0 time=0.2867645625
EXTRACT: note_off channel=0 note=67 velocity=80 time=0.007352937499999999
EXTRACT: note_on channel=0 note=63 velocity=95 time=0
EXTRACT: note_off channel=3 note=65 velocity=80 time=0
EXTRACT: note_off channel=3 note=60 velocity=80 time=0
EXTRACT: note_off channel=3 note=55 velocity=80 time=0
EXTRACT: note_on channel=3 note=63 velocity=95 time=0
EXTRACT: note_off channel=9 note=42 velocity=80 time=0
EXTRACT: note_off channel=9 note=36 velocity=80 time=0
EXTRACT: note_off channel=9 note=53 velocity=80 time=0
EXTRACT: note_on channel=9 note=42 velocity=95 time=0
EXTRACT: note_on channel=9 note=36 velocity=95 time=0
EXTRACT: note_on channel=9 note=53 velocity=63 time=0
EXTRACT: note_on channel=12 note=48 velocity=75 time=0
EXTRACT: note_on channel=12 note=48 velocity=0 time=0.2867645625
EXTRACT: note_off channel=0 note=63 velocity=80 time=0.007352937499999999
EXTRACT: note_off channel=3 note=63 velocity=80 time=0
EXTRACT: note_on channel=3 note=63 velocity=95 time=0
EXTRACT: note_on channel=3 note=60 velocity=95 time=0
EXTRACT: note_on channel=3 note=55 velocity=95 time=0
EXTRACT: note_off channel=9 note=42 velocity=80 time=0
EXTRACT: note_off channel=9 note=36 velocity=80 time=0
EXTRACT: note_off channel=9 note=53 velocity=80 time=0
EXTRACT: note_on channel=9 note=42 velocity=95 time=0
EXTRACT: note_on channel=9 note=38 velocity=95 time=0
EXTRACT: note_on channel=9 note=53 velocity=63 time=0
EXTRACT: note_on channel=0 note=65 velocity=95 time=0.22058812499999997
EXTRACT: note_off channel=0 note=65 velocity=80 time=0.07107839583333332
EXTRACT: note_on channel=0 note=67 velocity=95 time=0.0024509791666666664
EXTRACT: note_off channel=9 note=42 velocity=80 time=0
EXTRACT: note_off channel=9 note=38 velocity=80 time=0
EXTRACT: note_off channel=9 note=53 velocity=80 time=0
EXTRACT: note_on channel=9 note=42 velocity=95 time=0
EXTRACT: note_on channel=9 note=53 velocity=63 time=0
EXTRACT: note_on channel=12 note=46 velocity=75 time=0
EXTRACT: note_off channel=0 note=67 velocity=80 time=0.2941175
EXTRACT: note_on channel=0 note=63 velocity=95 time=0
EXTRACT: note_off channel=3 note=63 velocity=80 time=0
EXTRACT: note_off channel=3 note=60 velocity=80 time=0
EXTRACT: note_off channel=3 note=55 velocity=80 time=0
EXTRACT: note_on channel=3 note=53 velocity=95 time=0
EXTRACT: note_on channel=3 note=62 velocity=95 time=0
EXTRACT: note_on channel=3 note=58 velocity=95 time=0
EXTRACT: note_off channel=8 note=72 velocity=80 time=0
EXTRACT: note_off channel=8 note=67 velocity=80 time=0
EXTRACT: note_off channel=8 note=63 velocity=80 time=0
EXTRACT: note_off channel=8 note=60 velocity=80 time=0
EXTRACT: note_on channel=8 note=74 velocity=95 time=0
EXTRACT: note_on channel=8 note=68 velocity=95 time=0
EXTRACT: note_on channel=8 note=65 velocity=95 time=0
EXTRACT: note_on channel=8 note=58 velocity=95 time=0
EXTRACT: note_off channel=9 note=42 velocity=80 time=0
EXTRACT: note_off channel=9 note=53 velocity=80 time=0
EXTRACT: note_on channel=9 note=42 velocity=95 time=0
EXTRACT: note_on channel=9 note=36 velocity=95 time=0
EXTRACT: note_on channel=12 note=46 velocity=0 time=0.2867645625
EXTRACT: note_off channel=0 note=63 velocity=80 time=0.007352937499999999
EXTRACT: note_on channel=0 note=63 velocity=95 time=0
EXTRACT: note_off channel=9 note=42 velocity=80 time=0
EXTRACT: note_off channel=9 note=36 velocity=80 time=0
EXTRACT: note_on channel=9 note=42 velocity=95 time=0
EXTRACT: note_on channel=9 note=53 velocity=63 time=0
EXTRACT: note_on channel=12 note=41 velocity=75 time=0
EXTRACT: note_off channel=0 note=63 velocity=80 time=0.2941175
EXTRACT: note_on channel=0 note=60 velocity=95 time=0
EXTRACT: note_off channel=9 note=42 velocity=80 time=0
EXTRACT: note_off channel=9 note=53 velocity=80 time=0
EXTRACT: note_on channel=9 note=42 velocity=95 time=0
EXTRACT: note_on channel=9 note=38 velocity=95 time=0
EXTRACT: note_on channel=9 note=53 velocity=63 time=0
EXTRACT: note_on channel=12 note=41 velocity=0 time=0.1960783333333333
EXTRACT: note_off channel=0 note=60 velocity=80 time=0.09803916666666665
EXTRACT: note_on channel=0 note=63 velocity=95 time=0
EXTRACT: note_on channel=2 note=65 velocity=95 time=0
EXTRACT: note_off channel=3 note=53 velocity=80 time=0
EXTRACT: note_off channel=3 note=62 velocity=80 time=0
EXTRACT: note_off channel=3 note=58 velocity=80 time=0
EXTRACT: note_on channel=3 note=58 velocity=95 time=0
EXTRACT: note_on channel=3 note=53 velocity=95 time=0
EXTRACT: note_off channel=9 note=42 velocity=80 time=0
EXTRACT: note_off channel=9 note=38 velocity=80 time=0
EXTRACT: note_off channel=9 note=53 velocity=80 time=0
EXTRACT: note_on channel=9 note=42 velocity=95 time=0
EXTRACT: note_on channel=9 note=53 velocity=63 time=0
EXTRACT: note_on channel=12 note=34 velocity=75 time=0
EXTRACT: note_off channel=9 note=42 velocity=80 time=0.2941175
EXTRACT: note_off channel=9 note=53 velocity=80 time=0
EXTRACT: note_on channel=9 note=42 velocity=95 time=0
EXTRACT: note_on channel=9 note=36 velocity=95 time=0
EXTRACT: note_on channel=9 note=53 velocity=63 time=0
EXTRACT: note_on channel=0 note=64 velocity=95 time=0.22058812499999997
EXTRACT: note_on channel=12 note=34 velocity=0 time=0.06617643749999999
EXTRACT: note_off channel=0 note=64 velocity=80 time=0.004901958333333333
EXTRACT: note_off channel=0 note=63 velocity=80 time=0.0024509791666666664
EXTRACT: note_on channel=0 note=65 velocity=95 time=0
EXTRACT: note_off channel=2 note=65 velocity=80 time=0
EXTRACT: note_on channel=2 note=62 velocity=95 time=0
EXTRACT: note_off channel=9 note=42 velocity=80 time=0
EXTRACT: note_off channel=9 note=36 velocity=80 time=0
EXTRACT: note_off channel=9 note=53 velocity=80 time=0
EXTRACT: note_on channel=9 note=42 velocity=95 time=0
EXTRACT: note_on channel=9 note=36 velocity=95 time=0
EXTRACT: note_on channel=9 note=53 velocity=63 time=0
EXTRACT: note_on channel=12 note=34 velocity=75 time=0
EXTRACT: note_off channel=9 note=42 velocity=80 time=0.2941175
EXTRACT: note_off channel=9 note=36 velocity=80 time=0
EXTRACT: note_off channel=9 note=53 velocity=80 time=0
EXTRACT: note_on channel=9 note=42 velocity=95 time=0
EXTRACT: note_on channel=9 note=38 velocity=95 time=0
EXTRACT: note_on channel=9 note=53 velocity=63 time=0
EXTRACT: note_on channel=12 note=34 velocity=0 time=0.1960783333333333
EXTRACT: note_off channel=9 note=42 velocity=80 time=0.09803916666666665
EXTRACT: note_off channel=9 note=38 velocity=80 time=0
EXTRACT: note_off channel=9 note=53 velocity=80 time=0
EXTRACT: note_on channel=9 note=42 velocity=95 time=0
EXTRACT: note_on channel=9 note=53 velocity=63 time=0
EXTRACT: note_on channel=12 note=34 velocity=75 time=0
EXTRACT: note_on channel=12 note=34 velocity=0 time=0.2867645625
EXTRACT: note_off channel=0 note=65 velocity=80 time=0.007352937499999999
EXTRACT: note_off channel=2 note=62 velocity=80 time=0
EXTRACT: note_off channel=3 note=58 velocity=80 time=0
EXTRACT: note_off channel=3 note=53 velocity=80 time=0
EXTRACT: note_on channel=3 note=60 velocity=95 time=0
EXTRACT: note_on channel=3 note=56 velocity=95 time=0
EXTRACT: note_on channel=3 note=51 velocity=95 time=0
EXTRACT: note_off channel=8 note=74 velocity=80 time=0
EXTRACT: note_off channel=8 note=68 velocity=80 time=0
EXTRACT: note_off channel=8 note=65 velocity=80 time=0
EXTRACT: note_off channel=8 note=58 velocity=80 time=0
EXTRACT: note_off channel=9 note=42 velocity=80 time=0
EXTRACT: note_off channel=9 note=53 velocity=80 time=0
EXTRACT: note_on channel=9 note=49 velocity=127 time=0
EXTRACT: note_on channel=9 note=36 velocity=95 time=0
EXTRACT: note_on channel=12 note=32 velocity=75 time=0
EXTRACT: note_on channel=0 note=63 velocity=95 time=0.2941175
EXTRACT: note_off channel=9 note=49 velocity=80 time=0
EXTRACT: note_off channel=9 note=36 velocity=80 time=0
EXTRACT: note_on channel=9 note=42 velocity=95 time=0
EXTRACT: note_off channel=9 note=42 velocity=80 time=0.2941175
EXTRACT: note_on channel=9 note=42 velocity=95 time=0
EXTRACT: note_on channel=9 note=37 velocity=95 time=0
EXTRACT: note_off channel=9 note=42 velocity=80 time=0.2941175
EXTRACT: note_off channel=9 note=37 velocity=80 time=0
EXTRACT: note_on channel=9 note=42 velocity=95 time=0
EXTRACT: note_on channel=9 note=36 velocity=95 time=0
EXTRACT: note_off channel=9 note=42 velocity=80 time=0.2941175
EXTRACT: note_off channel=9 note=36 velocity=80 time=0
EXTRACT: note_on channel=9 note=42 velocity=95 time=0
EXTRACT: note_on channel=9 note=36 velocity=95 time=0
EXTRACT: note_off channel=9 note=42 velocity=80 time=0.2941175
EXTRACT: note_off channel=9 note=36 velocity=80 time=0
EXTRACT: note_on channel=9 note=42 velocity=95 time=0
EXTRACT: note_on channel=9 note=36 velocity=95 time=0
EXTRACT: note_off channel=0 note=63 velocity=80 time=0.2941175
EXTRACT: note_off channel=9 note=42 velocity=80 time=0
EXTRACT: note_off channel=9 note=36 velocity=80 time=0
EXTRACT: note_on channel=9 note=42 velocity=95 time=0
EXTRACT: note_on channel=9 note=37 velocity=95 time=0
EXTRACT: note_off channel=9 note=42 velocity=80 time=0.2941175
EXTRACT: note_off channel=9 note=37 velocity=80 time=0
EXTRACT: note_on channel=9 note=42 velocity=95 time=0
EXTRACT: note_off channel=3 note=60 velocity=80 time=0.2941175
EXTRACT: note_off channel=3 note=56 velocity=80 time=0
EXTRACT: note_off channel=3 note=51 velocity=80 time=0
EXTRACT: note_on channel=3 note=56 velocity=95 time=0
EXTRACT: note_on channel=3 note=51 velocity=95 time=0
EXTRACT: note_off channel=9 note=42 velocity=80 time=0
EXTRACT: note_on channel=9 note=42 velocity=95 time=0
EXTRACT: note_on channel=12 note=56 velocity=75 time=0
EXTRACT: note_off channel=9 note=42 velocity=80 time=0.2941175
EXTRACT: note_on channel=9 note=42 velocity=95 time=0
EXTRACT: note_on channel=9 note=36 velocity=95 time=0
EXTRACT: note_off channel=9 note=42 velocity=80 time=0.2941175
EXTRACT: note_off channel=9 note=36 velocity=80 time=0
EXTRACT: note_on channel=9 note=42 velocity=95 time=0
EXTRACT: note_on channel=9 note=37 velocity=95 time=0
EXTRACT: note_on channel=12 note=56 velocity=0 time=0.1960783333333333
EXTRACT: note_on channel=0 note=61 velocity=95 time=0.024509791666666662
EXTRACT: note_off channel=0 note=61 velocity=80 time=0.07107839583333332
EXTRACT: note_on channel=0 note=63 velocity=95 time=0.0024509791666666664
EXTRACT: note_off channel=9 note=42 velocity=80 time=0
EXTRACT: note_off channel=9 note=37 velocity=80 time=0
EXTRACT: note_on channel=9 note=42 velocity=95 time=0
EXTRACT: note_on channel=9 note=36 velocity=95 time=0
EXTRACT: note_on channel=12 note=55 velocity=75 time=0
EXTRACT: note_off channel=9 note=42 velocity=80 time=0.2941175
EXTRACT: note_off channel=9 note=36 velocity=80 time=0
EXTRACT: note_on channel=9 note=42 velocity=95 time=0
EXTRACT: note_off channel=0 note=63 velocity=80 time=0.14705875
EXTRACT: note_on channel=0 note=62 velocity=95 time=0
EXTRACT: note_off channel=9 note=42 velocity=80 time=0.14705875
EXTRACT: note_on channel=9 note=42 velocity=95 time=0
EXTRACT: note_on channel=9 note=36 velocity=95 time=0
EXTRACT: note_off channel=0 note=62 velocity=80 time=0.14705875
EXTRACT: note_on channel=0 note=60 velocity=95 time=0
EXTRACT: note_on channel=12 note=55 velocity=0 time=0.049019583333333325
EXTRACT: note_off channel=0 note=60 velocity=80 time=0.09803916666666665
EXTRACT: note_on channel=0 note=58 velocity=95 time=0
EXTRACT: note_off channel=9 note=42 velocity=80 time=0
EXTRACT: note_off channel=9 note=36 velocity=80 time=0
EXTRACT: note_on channel=9 note=42 velocity=95 time=0
EXTRACT: note_on channel=9 note=37 velocity=95 time=0
EXTRACT: note_on channel=12 note=53 velocity=75 time=0
EXTRACT: note_off channel=9 note=42 velocity=80 time=0.2941175
EXTRACT: note_off channel=9 note=37 velocity=80 time=0
EXTRACT: note_on channel=9 note=42 velocity=95 time=0
EXTRACT: note_on channel=12 note=32 velocity=0 time=0.14705875
EXTRACT: note_on channel=12 note=53 velocity=0 time=0.049019583333333325
EXTRACT: note_off channel=0 note=58 velocity=80 time=0.09803916666666665
EXTRACT: note_on channel=1 note=48 velocity=95 time=0
EXTRACT: note_off channel=3 note=56 velocity=80 time=0
EXTRACT: note_off channel=3 note=51 velocity=80 time=0
EXTRACT: note_on channel=3 note=48 velocity=95 time=0
EXTRACT: note_off channel=9 note=42 velocity=80 time=0
EXTRACT: note_on channel=9 note=42 velocity=95 time=0
EXTRACT: note_on channel=9 note=36 velocity=95 time=0
EXTRACT: note_on channel=12 note=48 velocity=75 time=0
EXTRACT: note_on channel=0 note=61 velocity=95 time=0.22058812499999997
EXTRACT: note_off channel=0 note=61 velocity=80 time=0.07107839583333332
EXTRACT: note_on channel=0 note=63 velocity=95 time=0.0024509791666666664
EXTRACT: note_off channel=9 note=42 velocity=80 time=0
EXTRACT: note_off channel=9 note=36 velocity=80 time=0
EXTRACT: note_on channel=9 note=42 velocity=95 time=0
EXTRACT: note_off channel=0 note=63 velocity=80 time=0.2941175
EXTRACT: note_on channel=0 note=63 velocity=95 time=0
EXTRACT: note_off channel=1 note=48 velocity=80 time=0
EXTRACT: note_on channel=1 note=63 velocity=95 time=0
EXTRACT: note_on channel=1 note=60 velocity=95 time=0
EXTRACT: note_on channel=1 note=48 velocity=95 time=0
EXTRACT: note_off channel=3 note=48 velocity=80 time=0
EXTRACT: note_on channel=3 note=63 velocity=95 time=0
EXTRACT: note_on channel=3 note=60 velocity=95 time=0
EXTRACT: note_on channel=3 note=48 velocity=95 time=0
EXTRACT: note_off channel=9 note=42 velocity=80 time=0
EXTRACT: note_on channel=9 note=42 velocity=95 time=0
EXTRACT: note_on channel=9 note=37 velocity=95 time=0
EXTRACT: note_on channel=12 note=48 velocity=0 time=0.1960783333333333
EXTRACT: note_off channel=0 note=63 velocity=80 time=0.09803916666666665
EXTRACT: note_on channel=0 note=63 velocity=95 time=0
EXTRACT: note_off channel=1 note=63 velocity=80 time=0
EXTRACT: note_off channel=1 note=60 velocity=80 time=0
EXTRACT: note_off channel=1 note=48 velocity=80 time=0
EXTRACT: note_on channel=1 note=63 velocity=95 time=0
EXTRACT: note_on channel=1 note=60 velocity=95 time=0
EXTRACT: note_on channel=1 note=48 velocity=95 time=0
EXTRACT: note_off channel=3 note=63 velocity=80 time=0
EXTRACT: note_off channel=3 note=60 velocity=80 time=0
EXTRACT: note_off channel=3 note=48 velocity=80 time=0
EXTRACT: note_on channel=3 note=63 velocity=95 time=0
EXTRACT: note_on channel=3 note=60 velocity=95 time=0
EXTRACT: note_on channel=3 note=48 velocity=95 time=0
EXTRACT: note_off channel=9 note=42 velocity=80 time=0
EXTRACT: note_off channel=9 note=37 velocity=80 time=0
EXTRACT: note_on channel=9 note=42 velocity=95 time=0
EXTRACT: note_on channel=9 note=36 velocity=95 time=0
EXTRACT: note_on channel=12 note=48 velocity=75 time=0
EXTRACT: note_on channel=12 note=48 velocity=0 time=0.2867645625
EXTRACT: note_off channel=0 note=63 velocity=80 time=0.007352937499999999
EXTRACT: note_on channel=0 note=63 velocity=95 time=0
EXTRACT: note_off channel=1 note=63 velocity=80 time=0
EXTRACT: note_off channel=1 note=60 velocity=80 time=0
EXTRACT: note_off channel=1 note=48 velocity=80 time=0
EXTRACT: note_on channel=1 note=63 velocity=95 time=0
EXTRACT: note_on channel=1 note=58 velocity=95 time=0
EXTRACT: note_on channel=1 note=48 velocity=95 time=0
EXTRACT: note_off channel=3 note=63 velocity=80 time=0
EXTRACT: note_off channel=3 note=60 velocity=80 time=0
EXTRACT: note_off channel=3 note=48 velocity=80 time=0
EXTRACT: note_on channel=3 note=63 velocity=95 time=0
EXTRACT: note_on channel=3 note=58 velocity=95 time=0
EXTRACT: note_on channel=3 note=48 velocity=95 time=0
EXTRACT: note_off channel=9 note=42 velocity=80 time=0
EXTRACT: note_off channel=9 note=36 velocity=80 time=0
EXTRACT: note_on channel=9 note=42 velocity=95 time=0
EXTRACT: note_on channel=9 note=36 velocity=95 time=0
EXTRACT: note_on channel=12 note=48 velocity=75 time=0
EXTRACT: note_on channel=12 note=48 velocity=0 time=0.2867645625
EXTRACT: note_off channel=0 note=63 velocity=80 time=0.007352937499999999
EXTRACT: note_on channel=0 note=63 velocity=95 time=0
EXTRACT: note_off channel=1 note=63 velocity=80 time=0
EXTRACT: note_off channel=1 note=58 velocity=80 time=0
EXTRACT: note_off channel=1 note=48 velocity=80 time=0
EXTRACT: note_on channel=1 note=63 velocity=95 time=0
EXTRACT: note_on channel=1 note=58 velocity=95 time=0
EXTRACT: note_on channel=1 note=48 velocity=95 time=0
EXTRACT: note_off channel=3 note=63 velocity=80 time=0
EXTRACT: note_off channel=3 note=58 velocity=80 time=0
EXTRACT: note_off channel=3 note=48 velocity=80 time=0
EXTRACT: note_on channel=3 note=63 velocity=95 time=0
EXTRACT: note_on channel=3 note=58 velocity=95 time=0
EXTRACT: note_on channel=3 note=48 velocity=95 time=0
EXTRACT: note_off channel=9 note=42 velocity=80 time=0
EXTRACT: note_off channel=9 note=36 velocity=80 time=0
EXTRACT: note_on channel=9 note=42 velocity=95 time=0
EXTRACT: note_on channel=9 note=36 velocity=95 time=0
EXTRACT: note_on channel=12 note=48 velocity=75 time=0
EXTRACT: note_on channel=1 note=53 velocity=95 time=0.14705875
EXTRACT: pitchwheel channel=1 pitch=2048 time=0
EXTRACT: note_on channel=3 note=53 velocity=95 time=0
EXTRACT: pitchwheel channel=3 pitch=2048 time=0
EXTRACT: pitchwheel channel=1 pitch=1408 time=0.049019583333333325
EXTRACT: pitchwheel channel=3 pitch=1408 time=0
EXTRACT: pitchwheel channel=1 pitch=640 time=0.049019583333333325
EXTRACT: pitchwheel channel=3 pitch=640 time=0
EXTRACT: note_on channel=12 note=48 velocity=0 time=0.04166664583333333
EXTRACT: note_off channel=1 note=63 velocity=80 time=0.007352937499999999
EXTRACT: note_off channel=1 note=58 velocity=80 time=0
EXTRACT: note_off channel=1 note=48 velocity=80 time=0
EXTRACT: pitchwheel channel=1 pitch=0 time=0
EXTRACT: note_off channel=3 note=63 velocity=80 time=0
EXTRACT: note_off channel=3 note=58 velocity=80 time=0
EXTRACT: note_off channel=3 note=48 velocity=80 time=0
EXTRACT: pitchwheel channel=3 pitch=0 time=0
EXTRACT: note_off channel=9 note=42 velocity=80 time=0
EXTRACT: note_off channel=9 note=36 velocity=80 time=0
EXTRACT: note_on channel=9 note=42 velocity=95 time=0
EXTRACT: note_on channel=9 note=37 velocity=95 time=0
EXTRACT: note_off channel=0 note=63 velocity=80 time=0.2941175
EXTRACT: note_on channel=0 note=65 velocity=95 time=0
EXTRACT: note_on channel=1 note=46 velocity=95 time=0
EXTRACT: note_on channel=3 note=46 velocity=95 time=0
EXTRACT: note_off channel=9 note=42 velocity=80 time=0
EXTRACT: note_off channel=9 note=37 velocity=80 time=0
EXTRACT: note_on channel=9 note=42 velocity=95 time=0
EXTRACT: note_on channel=12 note=46 velocity=75 time=0
EXTRACT: note_off channel=0 note=65 velocity=80 time=0.2941175
EXTRACT: note_on channel=0 note=62 velocity=95 time=0
EXTRACT: note_off channel=1 note=53 velocity=80 time=0
EXTRACT: note_on channel=1 note=53 velocity=95 time=0
EXTRACT: note_off channel=3 note=53 velocity=80 time=0
EXTRACT: note_on channel=3 note=53 velocity=95 time=0
EXTRACT: note_off channel=9 note=42 velocity=80 time=0
EXTRACT: note_on channel=9 note=42 velocity=95 time=0
EXTRACT: note_off channel=0 note=62 velocity=80 time=0.2941175
EXTRACT: note_on channel=0 note=62 velocity=95 time=0
EXTRACT: note_on channel=1 note=62 velocity=95 time=0
EXTRACT: note_on channel=1 note=56 velocity=95 time=0
EXTRACT: note_on channel=3 note=62 velocity=95 time=0
EXTRACT: note_on channel=3 note=56 velocity=95 time=0
EXTRACT: note_off channel=9 note=42 velocity=80 time=0
EXTRACT: note_on channel=9 note=42 velocity=95 time=0
EXTRACT: note_on channel=9 note=36 velocity=95 time=0
EXTRACT: note_off channel=0 note=62 velocity=80 time=0.2941175
EXTRACT: note_on channel=0 note=60 velocity=95 time=0
EXTRACT: note_off channel=1 note=46 velocity=80 time=0
EXTRACT: note_off channel=1 note=53 velocity=80 time=0
EXTRACT: note_off channel=1 note=62 velocity=80 time=0
EXTRACT: note_off channel=1 note=56 velocity=80 time=0
EXTRACT: note_off channel=3 note=46 velocity=80 time=0
EXTRACT: note_off channel=3 note=53 velocity=80 time=0
EXTRACT: note_off channel=3 note=62 velocity=80 time=0
EXTRACT: note_off channel=3 note=56 velocity=80 time=0
EXTRACT: note_off channel=9 note=42 velocity=80 time=0
EXTRACT: note_off channel=9 note=36 velocity=80 time=0
EXTRACT: note_on channel=9 note=42 velocity=95 time=0
EXTRACT: note_on channel=9 note=37 velocity=95 time=0
EXTRACT: note_on channel=12 note=46 velocity=0 time=0.1960783333333333
EXTRACT: note_off channel=0 note=60 velocity=80 time=0.09803916666666665
EXTRACT: note_on channel=0 note=60 velocity=95 time=0
EXTRACT: note_on channel=1 note=62 velocity=95 time=0
EXTRACT: note_on channel=1 note=56 velocity=95 time=0
EXTRACT: note_on channel=1 note=46 velocity=95 time=0
EXTRACT: note_on channel=3 note=62 velocity=95 time=0
EXTRACT: note_on channel=3 note=56 velocity=95 time=0
EXTRACT: note_on channel=3 note=46 velocity=95 time=0
EXTRACT: note_off channel=9 note=42 velocity=80 time=0
EXTRACT: note_off channel=9 note=37 velocity=80 time=0
EXTRACT: note_on channel=9 note=42 velocity=95 time=0
EXTRACT: note_on channel=9 note=36 velocity=95 time=0
EXTRACT: note_on channel=12 note=46 velocity=75 time=0
EXTRACT: note_off channel=0 note=60 velocity=80 time=0.2941175
EXTRACT: note_on channel=0 note=58 velocity=95 time=0
EXTRACT: note_off channel=9 note=42 velocity=80 time=0
EXTRACT: note_off channel=9 note=36 velocity=80 time=0
EXTRACT: note_on channel=9 note=42 velocity=95 time=0
EXTRACT: note_off channel=0 note=58 velocity=80 time=0.2941175
EXTRACT: note_on channel=0 note=58 velocity=95 time=0
EXTRACT: note_off channel=1 note=56 velocity=80 time=0
EXTRACT: note_on channel=1 note=56 velocity=95 time=0
EXTRACT: note_off channel=3 note=56 velocity=80 time=0
EXTRACT: note_on channel=3 note=56 velocity=95 time=0
EXTRACT: note_off channel=9 note=42 velocity=80 time=0
EXTRACT: note_on channel=9 note=42 velocity=95 time=0
EXTRACT: note_on channel=9 note=36 velocity=95 time=0
EXTRACT: note_off channel=0 note=58 velocity=80 time=0.2941175
EXTRACT: note_on channel=0 note=56 velocity=95 time=0
EXTRACT: note_on channel=1 note=53 velocity=95 time=0
EXTRACT: note_on channel=3 note=53 velocity=95 time=0
EXTRACT: note_off channel=9 note=42 velocity=80 time=0
EXTRACT: note_off channel=9 note=36 velocity=80 time=0
EXTRACT: note_on channel=9 note=42 velocity=95 time=0
EXTRACT: note_on channel=9 note=37 velocity=95 time=0
EXTRACT: note_off channel=0 note=56 velocity=80 time=0.2941175
EXTRACT: note_on channel=0 note=56 velocity=95 time=0
EXTRACT: note_off channel=1 note=62 velocity=80 time=0
EXTRACT: note_on channel=1 note=62 velocity=95 time=0
EXTRACT: note_off channel=3 note=62 velocity=80 time=0
EXTRACT: note_on channel=3 note=62 velocity=95 time=0
EXTRACT: note_off channel=9 note=42 velocity=80 time=0
EXTRACT: note_off channel=9 note=37 velocity=80 time=0
EXTRACT: note_on channel=9 note=42 velocity=95 time=0
EXTRACT: note_off channel=1 note=46 velocity=80 time=0.14705875
EXTRACT: note_off channel=1 note=53 velocity=80 time=0
EXTRACT: note_on channel=1 note=55 velocity=95 time=0
EXTRACT: pitchwheel channel=1 pitch=-2048 time=0
EXTRACT: note_on channel=1 note=48 velocity=95 time=0
EXTRACT: pitchwheel channel=1 pitch=-2048 time=0
EXTRACT: note_off channel=3 note=46 velocity=80 time=0
EXTRACT: note_off channel=3 note=53 velocity=80 time=0
EXTRACT: note_on channel=3 note=55 velocity=95 time=0
EXTRACT: pitchwheel channel=3 pitch=-2048 time=0
EXTRACT: note_on channel=3 note=48 velocity=95 time=0
EXTRACT: pitchwheel channel=3 pitch=-2048 time=0
EXTRACT: note_on channel=12 note=46 velocity=0 time=0
EXTRACT: pitchwheel channel=1 pitch=-1408 time=0.049019583333333325
EXTRACT: pitchwheel channel=1 pitch=-1408 time=0
EXTRACT: pitchwheel channel=3 pitch=-1408 time=0
EXTRACT: pitchwheel channel=3 pitch=-1408 time=0
EXTRACT: pitchwheel channel=1 pitch=-640 time=0.049019583333333325
EXTRACT: pitchwheel channel=1 pitch=-640 time=0
EXTRACT: pitchwheel channel=3 pitch=-640 time=0
EXTRACT: pitchwheel channel=3 pitch=-640 time=0
EXTRACT: note_off channel=0 note=56 velocity=80 time=0.049019583333333325
EXTRACT: pitchwheel channel=1 pitch=0 time=0
EXTRACT: pitchwheel channel=1 pitch=0 time=0
EXTRACT: pitchwheel channel=3 pitch=0 time=0
EXTRACT: pitchwheel channel=3 pitch=0 time=0
EXTRACT: note_off channel=9 note=42 velocity=80 time=0
EXTRACT: note_on channel=9 note=42 velocity=95 time=0
EXTRACT: note_on channel=9 note=36 velocity=95 time=0
EXTRACT: note_on channel=12 note=48 velocity=75 time=0
EXTRACT: note_on channel=1 note=67 velocity=95 time=0.2941175
EXTRACT: note_on channel=3 note=67 velocity=95 time=0
EXTRACT: note_off channel=9 note=42 velocity=80 time=0
EXTRACT: note_off channel=9 note=36 velocity=80 time=0
EXTRACT: note_on channel=9 note=42 velocity=95 time=0
EXTRACT: note_on channel=0 note=63 velocity=95 time=0.2941175
EXTRACT: note_off channel=1 note=56 velocity=80 time=0
EXTRACT: note_off channel=1 note=62 velocity=80 time=0
EXTRACT: note_off channel=1 note=48 velocity=80 time=0
EXTRACT: note_on channel=1 note=63 velocity=95 time=0
EXTRACT: note_on channel=1 note=60 velocity=95 time=0
EXTRACT: note_on channel=1 note=48 velocity=95 time=0
EXTRACT: note_off channel=3 note=56 velocity=80 time=0
EXTRACT: note_off channel=3 note=62 velocity=80 time=0
EXTRACT: note_off channel=3 note=48 velocity=80 time=0
EXTRACT: note_on channel=3 note=63 velocity=95 time=0
EXTRACT: note_on channel=3 note=60 velocity=95 time=0
EXTRACT: note_on channel=3 note=48 velocity=95 time=0
EXTRACT: note_off channel=9 note=42 velocity=80 time=0
EXTRACT: note_on channel=9 note=42 velocity=95 time=0
EXTRACT: note_on channel=9 note=37 velocity=95 time=0
EXTRACT: note_on channel=12 note=48 velocity=0 time=0.1960783333333333
EXTRACT: note_off channel=0 note=63 velocity=80 time=0.09803916666666665
EXTRACT: note_on channel=0 note=62 velocity=95 time=0
EXTRACT: note_off channel=1 note=63 velocity=80 time=0
EXTRACT: note_off channel=1 note=60 velocity=80 time=0
EXTRACT: note_off channel=1 note=48 velocity=80 time=0
EXTRACT: note_on channel=1 note=63 velocity=95 time=0
EXTRACT: note_on channel=1 note=60 velocity=95 time=0
EXTRACT: note_on channel=1 note=48 velocity=95 time=0
EXTRACT: note_off channel=3 note=63 velocity=80 time=0
EXTRACT: note_off channel=3 note=60 velocity=80 time=0
EXTRACT: note_off channel=3 note=48 velocity=80 time=0
EXTRACT: note_on channel=3 note=63 velocity=95 time=0
EXTRACT: note_on channel=3 note=60 velocity=95 time=0
EXTRACT: note_on channel=3 note=48 velocity=95 time=0
EXTRACT: note_off channel=9 note=42 velocity=80 time=0
EXTRACT: note_off channel=9 note=37 velocity=80 time=0
EXTRACT: note_on channel=9 note=42 velocity=95 time=0
EXTRACT: note_on channel=9 note=36 velocity=95 time=0
EXTRACT: note_on channel=12 note=48 velocity=75 time=0
EXTRACT: note_on channel=12 note=48 velocity=0 time=0.2867645625
EXTRACT: note_off channel=0 note=62 velocity=80 time=0.007352937499999999
EXTRACT: note_on channel=0 note=63 velocity=95 time=0
EXTRACT: note_off channel=1 note=63 velocity=80 time=0
EXTRACT: note_off channel=1 note=60 velocity=80 time=0
EXTRACT: note_off channel=1 note=48 velocity=80 time=0
EXTRACT: note_on channel=1 note=63 velocity=95 time=0
EXTRACT: note_on channel=1 note=60 velocity=95 time=0
EXTRACT: note_on channel=1 note=48 velocity=95 time=0
EXTRACT: note_off channel=3 note=63 velocity=80 time=0
EXTRACT: note_off channel=3 note=60 velocity=80 time=0
EXTRACT: note_off channel=3 note=48 velocity=80 time=0
EXTRACT: note_on channel=3 note=63 velocity=95 time=0
EXTRACT: note_on channel=3 note=60 velocity=95 time=0
EXTRACT: note_on channel=3 note=48 velocity=95 time=0
EXTRACT: note_off channel=9 note=42 velocity=80 time=0
EXTRACT: note_off channel=9 note=36 velocity=80 time=0
EXTRACT: note_on channel=9 note=42 velocity=95 time=0
EXTRACT: note_on channel=9 note=36 velocity=95 time=0
EXTRACT: note_on channel=12 note=48 velocity=75 time=0
EXTRACT: note_on channel=12 note=48 velocity=0 time=0.2867645625
EXTRACT: note_off channel=0 note=63 velocity=80 time=0.007352937499999999
EXTRACT: note_on channel=0 note=62 velocity=95 time=0
EXTRACT: note_off channel=1 note=63 velocity=80 time=0
EXTRACT: note_off channel=1 note=60 velocity=80 time=0
EXTRACT: note_off channel=1 note=48 velocity=80 time=0
EXTRACT: note_on channel=1 note=63 velocity=95 time=0
EXTRACT: note_on channel=1 note=60 velocity=95 time=0
EXTRACT: note_on channel=1 note=48 velocity=95 time=0
EXTRACT: note_off channel=3 note=63 velocity=80 time=0
EXTRACT: note_off channel=3 note=60 velocity=80 time=0
EXTRACT: note_off channel=3 note=48 velocity=80 time=0
EXTRACT: note_on channel=3 note=63 velocity=95 time=0
EXTRACT: note_on channel=3 note=60 velocity=95 time=0
EXTRACT: note_on channel=3 note=48 velocity=95 time=0
EXTRACT: note_off channel=9 note=42 velocity=80 time=0
EXTRACT: note_off channel=9 note=36 velocity=80 time=0
EXTRACT: note_on channel=9 note=42 velocity=95 time=0
EXTRACT: note_on channel=9 note=36 velocity=95 time=0
EXTRACT: note_on channel=12 note=48 velocity=75 time=0
EXTRACT: note_on channel=12 note=48 velocity=0 time=0.2867645625
EXTRACT: note_off channel=0 note=62 velocity=80 time=0.007352937499999999
EXTRACT: note_on channel=0 note=63 velocity=95 time=0
EXTRACT: note_off channel=1 note=55 velocity=80 time=0
EXTRACT: note_off channel=1 note=67 velocity=80 time=0
EXTRACT: note_off channel=1 note=63 velocity=80 time=0
EXTRACT: note_off channel=1 note=60 velocity=80 time=0
EXTRACT: note_off channel=1 note=48 velocity=80 time=0
EXTRACT: note_off channel=3 note=55 velocity=80 time=0
EXTRACT: note_off channel=3 note=67 velocity=80 time=0
EXTRACT: note_off channel=3 note=63 velocity=80 time=0
EXTRACT: note_off channel=3 note=60 velocity=80 time=0
EXTRACT: note_off channel=3 note=48 velocity=80 time=0
EXTRACT: note_off channel=9 note=42 velocity=80 time=0
EXTRACT: note_off channel=9 note=36 velocity=80 time=0
EXTRACT: note_on channel=9 note=42 velocity=95 time=0
EXTRACT: note_on channel=9 note=36 velocity=95 time=0
EXTRACT: note_on channel=9 note=37 velocity=95 time=0
EXTRACT: note_off channel=0 note=63 velocity=80 time=0.2941175
EXTRACT: note_on channel=0 note=65 velocity=95 time=0
EXTRACT: note_on channel=1 note=62 velocity=95 time=0
EXTRACT: note_on channel=1 note=56 velocity=95 time=0
EXTRACT: note_on channel=1 note=46 velocity=95 time=0
EXTRACT: note_on channel=3 note=62 velocity=95 time=0
EXTRACT: note_on channel=3 note=56 velocity=95 time=0
EXTRACT: note_on channel=3 note=46 velocity=95 time=0
EXTRACT: note_off channel=9 note=42 velocity=80 time=0
EXTRACT: note_off channel=9 note=36 velocity=80 time=0
EXTRACT: note_off channel=9 note=37 velocity=80 time=0
EXTRACT: note_on channel=9 note=42 velocity=95 time=0
EXTRACT: note_on channel=12 note=46 velocity=75 time=0
EXTRACT: note_off channel=0 note=65 velocity=80 time=0.14705875
EXTRACT: note_on channel=0 note=65 velocity=95 time=0
EXTRACT: note_off channel=9 note=42 velocity=80 time=0.14705875
EXTRACT: note_on channel=0 note=60 velocity=95 time=0.073529375
EXTRACT: note_off channel=0 note=60 velocity=80 time=0.07107839583333332
EXTRACT: note_off channel=0 note=65 velocity=80 time=0.0024509791666666664
EXTRACT: note_on channel=0 note=62 velocity=95 time=0
EXTRACT: note_off channel=0 note=62 velocity=80 time=1.6176462499999997
EXTRACT: note_on channel=12 note=46 velocity=0 time=0.44117624999999994
EXTRACT: note_off channel=1 note=62 velocity=80 time=0.14705875
EXTRACT: note_off channel=1 note=56 velocity=80 time=0
EXTRACT: note_off channel=1 note=46 velocity=80 time=0
EXTRACT: note_on channel=2 note=63 velocity=86 time=0
EXTRACT: note_off channel=3 note=62 velocity=80 time=0
EXTRACT: note_off channel=3 note=56 velocity=80 time=0
EXTRACT: note_off channel=3 note=46 velocity=80 time=0
EXTRACT: note_on channel=4 note=63 velocity=95 time=0
EXTRACT: note_on channel=5 note=58 velocity=95 time=0
EXTRACT: note_on channel=9 note=49 velocity=127 time=0
EXTRACT: note_on channel=9 note=36 velocity=127 time=0
EXTRACT: note_on channel=12 note=39 velocity=75 time=0
EXTRACT: note_off channel=2 note=63 velocity=80 time=0.14705875
EXTRACT: note_on channel=2 note=58 velocity=86 time=0.14705875
EXTRACT: note_off channel=4 note=63 velocity=80 time=0
EXTRACT: note_on channel=4 note=63 velocity=95 time=0
EXTRACT: note_on channel=5 note=63 velocity=95 time=0
EXTRACT: note_off channel=9 note=49 velocity=80 time=0
EXTRACT: note_off channel=9 note=36 velocity=80 time=0
EXTRACT: note_on channel=9 note=42 velocity=95 time=0
EXTRACT: note_on channel=9 note=53 velocity=63 time=0
EXTRACT: note_off channel=2 note=58 velocity=80 time=0.14705875
EXTRACT: note_on channel=12 note=39 velocity=0 time=0.049019583333333325
EXTRACT: note_on channel=0 note=63 velocity=95 time=0.09803916666666665
EXTRACT: note_on channel=2 note=58 velocity=86 time=0
EXTRACT: note_on channel=4 note=70 velocity=95 time=0
EXTRACT: note_off channel=5 note=58 velocity=80 time=0
EXTRACT: note_on channel=5 note=58 velocity=95 time=0
EXTRACT: note_off channel=9 note=42 velocity=80 time=0
EXTRACT: note_off channel=9 note=53 velocity=80 time=0
EXTRACT: note_on channel=9 note=42 velocity=79 time=0
EXTRACT: note_on channel=9 note=38 velocity=95 time=0
EXTRACT: note_on channel=9 note=53 velocity=63 time=0
EXTRACT: note_on channel=12 note=39 velocity=75 time=0
EXTRACT: note_off channel=2 note=58 velocity=80 time=0.14705875
EXTRACT: note_off channel=0 note=63 velocity=80 time=0.14705875
EXTRACT: note_on channel=0 note=63 velocity=95 time=0
EXTRACT: note_on channel=2 note=63 velocity=86 time=0
EXTRACT: note_off channel=4 note=63 velocity=80 time=0
EXTRACT: note_on channel=4 note=63 velocity=95 time=0
EXTRACT: note_on channel=5 note=65 velocity=95 time=0
EXTRACT: note_off channel=9 note=42 velocity=80 time=0
EXTRACT: note_off channel=9 note=38 velocity=80 time=0
EXTRACT: note_off channel=9 note=53 velocity=80 time=0
EXTRACT: note_on channel=9 note=42 velocity=79 time=0
EXTRACT: note_on channel=9 note=53 velocity=63 time=0
EXTRACT: note_off channel=2 note=63 velocity=80 time=0.14705875
EXTRACT: note_on channel=12 note=39 velocity=0 time=0.049019583333333325
EXTRACT: note_off channel=0 note=63 velocity=80 time=0.09803916666666665
EXTRACT: note_on channel=0 note=63 velocity=95 time=0
EXTRACT: note_on channel=2 note=58 velocity=86 time=0
EXTRACT: note_off channel=4 note=63 velocity=80 time=0
EXTRACT: note_on channel=4 note=63 velocity=95 time=0
EXTRACT: note_off channel=9 note=42 velocity=80 time=0
EXTRACT: note_off channel=9 note=53 velocity=80 time=0
EXTRACT: note_on channel=9 note=42 velocity=79 time=0
EXTRACT: note_on channel=9 note=36 velocity=95 time=0
EXTRACT: note_on channel=9 note=53 velocity=63 time=0
EXTRACT: note_on channel=12 note=39 velocity=75 time=0
EXTRACT: note_off channel=2 note=58 velocity=80 time=0.14705875
EXTRACT: note_on channel=2 note=58 velocity=86 time=0.14705875
EXTRACT: note_off channel=4 note=70 velocity=80 time=0
EXTRACT: note_on channel=4 note=70 velocity=95 time=0
EXTRACT: note_off channel=9 note=42 velocity=80 time=0
EXTRACT: note_off channel=9 note=36 velocity=80 time=0
EXTRACT: note_off channel=9 note=53 velocity=80 time=0
EXTRACT: note_on channel=9 note=42 velocity=79 time=0
EXTRACT: note_on channel=9 note=36 velocity=95 time=0
EXTRACT: note_on channel=9 note=53 velocity=63 time=0
EXTRACT: note_off channel=2 note=58 velocity=80 time=0.14705875
EXTRACT: note_on channel=12 note=39 velocity=0 time=0.049019583333333325
EXTRACT: note_off channel=0 note=63 velocity=80 time=0.09803916666666665
EXTRACT: note_on channel=0 note=63 velocity=95 time=0
EXTRACT: note_on channel=2 note=63 velocity=86 time=0
EXTRACT: note_off channel=4 note=63 velocity=80 time=0
EXTRACT: note_on channel=4 note=63 velocity=95 time=0
EXTRACT: note_off channel=9 note=42 velocity=80 time=0
EXTRACT: note_off channel=9 note=36 velocity=80 time=0
EXTRACT: note_off channel=9 note=53 velocity=80 time=0
EXTRACT: note_on channel=9 note=42 velocity=79 time=0
EXTRACT: note_on channel=9 note=38 velocity=95 time=0
EXTRACT: note_on channel=9 note=53 velocity=63 time=0
EXTRACT: note_on channel=12 note=39 velocity=75 time=0
EXTRACT: note_off channel=2 note=63 velocity=80 time=0.14705875
EXTRACT: note_off channel=0 note=63 velocity=80 time=0.14705875
EXTRACT: note_on channel=0 note=63 velocity=95 time=0
EXTRACT: note_on channel=2 note=58 velocity=86 time=0
EXTRACT: note_off channel=4 note=70 velocity=80 time=0
EXTRACT: note_on channel=4 note=70 velocity=95 time=0
EXTRACT: note_off channel=9 note=42 velocity=80 time=0
EXTRACT: note_off channel=9 note=38 velocity=80 time=0
EXTRACT: note_off channel=9 note=53 velocity=80 time=0
EXTRACT: note_on channel=9 note=42 velocity=79 time=0
EXTRACT: note_on channel=9 note=53 velocity=63 time=0
EXTRACT: note_off channel=2 note=58 velocity=80 time=0.14705875
EXTRACT: note_on channel=12 note=39 velocity=0 time=0.049019583333333325
EXTRACT: note_off channel=0 note=63 velocity=80 time=0.09803916666666665
EXTRACT: note_on channel=0 note=62 velocity=95 time=0
EXTRACT: note_on channel=2 note=63 velocity=86 time=0
EXTRACT: note_off channel=4 note=63 velocity=80 time=0
EXTRACT: note_on channel=4 note=63 velocity=95 time=0
EXTRACT: note_off channel=9 note=42 velocity=80 time=0
EXTRACT: note_off channel=9 note=53 velocity=80 time=0
EXTRACT: note_on channel=9 note=42 velocity=95 time=0
EXTRACT: note_on channel=9 note=36 velocity=95 time=0
EXTRACT: note_on channel=12 note=34 velocity=75 time=0
EXTRACT: note_off channel=2 note=63 velocity=80 time=0.14705875
EXTRACT: note_off channel=0 note=62 velocity=80 time=0.14705875
EXTRACT: note_on channel=0 note=63 velocity=95 time=0
EXTRACT: note_on channel=2 note=58 velocity=86 time=0
EXTRACT: note_off channel=4 note=63 velocity=80 time=0
EXTRACT: note_on channel=4 note=63 velocity=95 time=0
EXTRACT: note_off channel=5 note=63 velocity=80 time=0
EXTRACT: note_on channel=5 note=62 velocity=95 time=0
EXTRACT: note_off channel=9 note=42 velocity=80 time=0
EXTRACT: note_off channel=9 note=36 velocity=80 time=0
EXTRACT: note_on channel=9 note=42 velocity=95 time=0
EXTRACT: note_on channel=9 note=53 velocity=63 time=0
EXTRACT: note_off channel=2 note=58 velocity=80 time=0.14705875
EXTRACT: note_on channel=12 note=34 velocity=0 time=0.049019583333333325
EXTRACT: note_off channel=0 note=63 velocity=80 time=0.09803916666666665
EXTRACT: note_on channel=0 note=63 velocity=95 time=0
EXTRACT: note_on channel=2 note=58 velocity=86 time=0
EXTRACT: note_off channel=4 note=70 velocity=80 time=0
EXTRACT: note_on channel=4 note=70 velocity=95 time=0
EXTRACT: note_off channel=5 note=58 velocity=80 time=0
EXTRACT: note_on channel=5 note=58 velocity=95 time=0
EXTRACT: note_off channel=9 note=42 velocity=80 time=0
EXTRACT: note_off channel=9 note=53 velocity=80 time=0
EXTRACT: note_on channel=9 note=42 velocity=95 time=0
EXTRACT: note_on channel=9 note=38 velocity=95 time=0
EXTRACT: note_on channel=9 note=53 velocity=63 time=0
EXTRACT: note_on channel=12 note=34 velocity=75 time=0
EXTRACT: note_off channel=2 note=58 velocity=80 time=0.14705875
EXTRACT: note_off channel=0 note=63 velocity=80 time=0.14705875
EXTRACT: note_on channel=0 note=63 velocity=95 time=0
EXTRACT: note_on channel=2 note=62 velocity=86 time=0
EXTRACT: note_off channel=4 note=63 velocity=80 time=0
EXTRACT: note_on channel=4 note=63 velocity=95 time=0
EXTRACT: note_off channel=5 note=65 velocity=80 time=0
EXTRACT: note_on channel=5 note=65 velocity=95 time=0
EXTRACT: note_off channel=9 note=42 velocity=80 time=0
EXTRACT: note_off channel=9 note=38 velocity=80 time=0
EXTRACT: note_off channel=9 note=53 velocity=80 time=0
EXTRACT: note_on channel=9 note=42 velocity=95 time=0
EXTRACT: note_on channel=9 note=53 velocity=63 time=0
EXTRACT: note_off channel=2 note=62 velocity=80 time=0.14705875
EXTRACT: note_on channel=12 note=34 velocity=0 time=0.049019583333333325
EXTRACT: note_on channel=2 note=58 velocity=86 time=0.09803916666666665
EXTRACT: note_off channel=4 note=63 velocity=80 time=0
EXTRACT: note_on channel=4 note=63 velocity=95 time=0
EXTRACT: note_off channel=9 note=42 velocity=80 time=0
EXTRACT: note_off channel=9 note=53 velocity=80 time=0
EXTRACT: note_on channel=9 note=42 velocity=95 time=0
EXTRACT: note_on channel=9 note=36 velocity=95 time=0
EXTRACT: note_on channel=9 note=53 velocity=63 time=0
EXTRACT: note_on channel=12 note=34 velocity=75 time=0
EXTRACT: note_off channel=2 note=58 velocity=80 time=0.14705875
EXTRACT: note_on channel=2 note=58 velocity=86 time=0.14705875
EXTRACT: note_off channel=4 note=70 velocity=80 time=0
EXTRACT: note_on channel=4 note=70 velocity=95 time=0
EXTRACT: note_off channel=9 note=42 velocity=80 time=0
EXTRACT: note_off channel=9 note=36 velocity=80 time=0
EXTRACT: note_off channel=9 note=53 velocity=80 time=0
EXTRACT: note_on channel=9 note=42 velocity=95 time=0
EXTRACT: note_on channel=9 note=36 velocity=95 time=0
EXTRACT: note_on channel=9 note=53 velocity=63 time=0
EXTRACT: note_off channel=2 note=58 velocity=80 time=0.14705875
EXTRACT: note_on channel=12 note=34 velocity=0 time=0.049019583333333325
EXTRACT: note_off channel=0 note=63 velocity=80 time=0.09803916666666665
EXTRACT: note_on channel=2 note=62 velocity=86 time=0
EXTRACT: note_off channel=4 note=63 velocity=80 time=0
EXTRACT: note_on channel=4 note=63 velocity=95 time=0
EXTRACT: note_off channel=9 note=42 velocity=80 time=0
EXTRACT: note_off channel=9 note=36 velocity=80 time=0
EXTRACT: note_off channel=9 note=53 velocity=80 time=0
EXTRACT: note_on channel=9 note=42 velocity=95 time=0
EXTRACT: note_on channel=9 note=38 velocity=95 time=0
EXTRACT: note_on channel=9 note=53 velocity=63 time=0
EXTRACT: note_on channel=12 note=34 velocity=75 time=0
EXTRACT: note_off channel=2 note=62 velocity=80 time=0.14705875
EXTRACT: note_on channel=2 note=58 velocity=86 time=0.14705875
EXTRACT: note_off channel=4 note=70 velocity=80 time=0
EXTRACT: note_on channel=4 note=70 velocity=95 time=0
EXTRACT: note_off channel=9 note=42 velocity=80 time=0
EXTRACT: note_off channel=9 note=38 velocity=80 time=0
EXTRACT: note_off channel=9 note=53 velocity=80 time=0
EXTRACT: note_on channel=9 note=42 velocity=95 time=0
EXTRACT: note_on channel=9 note=53 velocity=63 time=0
EXTRACT: note_off channel=2 note=58 velocity=80 time=0.14705875
EXTRACT: note_on channel=12 note=34 velocity=0 time=0.049019583333333325
EXTRACT: note_on channel=2 note=63 velocity=86 time=0.09803916666666665
EXTRACT: note_off channel=4 note=63 velocity=80 time=0
EXTRACT: note_on channel=4 note=63 velocity=95 time=0
EXTRACT: note_off channel=9 note=42 velocity=80 time=0
EXTRACT: note_off channel=9 note=53 velocity=80 time=0
EXTRACT: note_on channel=9 note=42 velocity=95 time=0
EXTRACT: note_on channel=9 note=36 velocity=95 time=0
EXTRACT: note_on channel=12 note=36 velocity=75 time=0
EXTRACT: note_off channel=2 note=63 velocity=80 time=0.14705875
EXTRACT: note_on channel=0 note=63 velocity=95 time=0.14705875
EXTRACT: note_on channel=2 note=58 velocity=86 time=0
EXTRACT: note_off channel=4 note=63 velocity=80 time=0
EXTRACT: note_on channel=4 note=63 velocity=95 time=0
EXTRACT: note_off channel=5 note=62 velocity=80 time=0
EXTRACT: note_on channel=5 note=63 velocity=95 time=0
EXTRACT: note_off channel=9 note=42 velocity=80 time=0
EXTRACT: note_off channel=9 note=36 velocity=80 time=0
EXTRACT: note_on channel=9 note=42 velocity=95 time=0
EXTRACT: note_on channel=9 note=53 velocity=63 time=0
EXTRACT: note_off channel=2 note=58 velocity=80 time=0.14705875
EXTRACT: note_on channel=12 note=36 velocity=0 time=0.049019583333333325
EXTRACT: note_off channel=0 note=63 velocity=80 time=0.09803916666666665
EXTRACT: note_on channel=0 note=63 velocity=95 time=0
EXTRACT: note_on channel=2 note=58 velocity=86 time=0
EXTRACT: note_off channel=4 note=70 velocity=80 time=0
EXTRACT: note_on channel=4 note=70 velocity=95 time=0
EXTRACT: note_off channel=5 note=58 velocity=80 time=0
EXTRACT: note_on channel=5 note=58 velocity=95 time=0
EXTRACT: note_off channel=9 note=42 velocity=80 time=0
EXTRACT: note_off channel=9 note=53 velocity=80 time=0
EXTRACT: note_on channel=9 note=42 velocity=95 time=0
EXTRACT: note_on channel=9 note=38 velocity=95 time=0
EXTRACT: note_on channel=9 note=53 velocity=63 time=0
EXTRACT: note_on channel=12 note=36 velocity=75 time=0
EXTRACT: note_off channel=2 note=58 velocity=80 time=0.14705875
EXTRACT: note_off channel=0 note=63 velocity=80 time=0.14705875
EXTRACT: note_on channel=0 note=63 velocity=95 time=0
EXTRACT: note_on channel=2 note=63 velocity=86 time=0
EXTRACT: note_off channel=4 note=63 velocity=80 time=0
EXTRACT: note_on channel=4 note=63 velocity=95 time=0
EXTRACT: note_off channel=5 note=65 velocity=80 time=0
EXTRACT: note_on channel=5 note=65 velocity=95 time=0
EXTRACT: note_off channel=9 note=42 velocity=80 time=0
EXTRACT: note_off channel=9 note=38 velocity=80 time=0
EXTRACT: note_off channel=9 note=53 velocity=80 time=0
EXTRACT: note_on channel=9 note=42 velocity=95 time=0
EXTRACT: note_on channel=9 note=53 velocity=63 time=0
EXTRACT: note_off channel=2 note=63 velocity=80 time=0.14705875
EXTRACT: note_on channel=12 note=36 velocity=0 time=0.049019583333333325
EXTRACT: note_off channel=0 note=63 velocity=80 time=0.09803916666666665
EXTRACT: note_on channel=0 note=63 velocity=95 time=0
EXTRACT: note_on channel=2 note=58 velocity=86 time=0
EXTRACT: note_off channel=4 note=63 velocity=80 time=0
EXTRACT: note_on channel=4 note=63 velocity=95 time=0
EXTRACT: note_off channel=9 note=42 velocity=80 time=0
EXTRACT: note_off channel=9 note=53 velocity=80 time=0
EXTRACT: note_on channel=9 note=42 velocity=95 time=0
EXTRACT: note_on channel=9 note=36 velocity=95 time=0
EXTRACT: note_on channel=9 note=53 velocity=63 time=0
EXTRACT: note_on channel=12 note=36 velocity=75 time=0
EXTRACT: note_off channel=2 note=58 velocity=80 time=0.14705875
EXTRACT: note_off channel=0 note=63 velocity=80 time=0.14705875
EXTRACT: note_on channel=0 note=63 velocity=95 time=0
EXTRACT: note_on channel=2 note=58 velocity=86 time=0
EXTRACT: note_off channel=4 note=70 velocity=80 time=0
EXTRACT: note_on channel=4 note=70 velocity=95 time=0
EXTRACT: note_off channel=9 note=42 velocity=80 time=0
EXTRACT: note_off channel=9 note=36 velocity=80 time=0
EXTRACT: note_off channel=9 note=53 velocity=80 time=0
EXTRACT: note_on channel=9 note=42 velocity=95 time=0
EXTRACT: note_on channel=9 note=36 velocity=95 time=0
EXTRACT: note_on channel=9 note=53 velocity=63 time=0
EXTRACT: note_off channel=2 note=58 velocity=80 time=0.14705875
EXTRACT: note_on channel=12 note=36 velocity=0 time=0.049019583333333325
EXTRACT: note_off channel=0 note=63 velocity=80 time=0.09803916666666665
EXTRACT: note_on channel=0 note=63 velocity=95 time=0
EXTRACT: note_on channel=2 note=63 velocity=86 time=0
EXTRACT: note_off channel=4 note=63 velocity=80 time=0
EXTRACT: note_on channel=4 note=63 velocity=95 time=0
EXTRACT: note_off channel=9 note=42 velocity=80 time=0
EXTRACT: note_off channel=9 note=36 velocity=80 time=0
EXTRACT: note_off channel=9 note=53 velocity=80 time=0
EXTRACT: note_on channel=9 note=42 velocity=95 time=0
EXTRACT: note_on channel=9 note=38 velocity=95 time=0
EXTRACT: note_on channel=9 note=53 velocity=63 time=0
EXTRACT: note_on channel=12 note=36 velocity=75 time=0
EXTRACT: note_off channel=2 note=63 velocity=80 time=0.14705875
EXTRACT: note_off channel=0 note=63 velocity=80 time=0.14705875
EXTRACT: note_on channel=0 note=63 velocity=95 time=0
EXTRACT: note_on channel=2 note=58 velocity=86 time=0
EXTRACT: note_off channel=4 note=70 velocity=80 time=0
EXTRACT: note_on channel=4 note=70 velocity=95 time=0
EXTRACT: note_off channel=9 note=42 velocity=80 time=0
EXTRACT: note_off channel=9 note=38 velocity=80 time=0
EXTRACT: note_off channel=9 note=53 velocity=80 time=0
EXTRACT: note_on channel=9 note=42 velocity=95 time=0
EXTRACT: note_on channel=9 note=53 velocity=63 time=0
EXTRACT: note_off channel=2 note=58 velocity=80 time=0.14705875
EXTRACT: note_on channel=12 note=36 velocity=0 time=0.049019583333333325
EXTRACT: note_off channel=0 note=63 velocity=80 time=0.09803916666666665
EXTRACT: note_on channel=0 note=62 velocity=95 time=0
EXTRACT: note_on channel=2 note=63 velocity=86 time=0
EXTRACT: note_off channel=4 note=63 velocity=80 time=0
EXTRACT: note_on channel=4 note=63 velocity=95 time=0
EXTRACT: note_off channel=9 note=42 velocity=80 time=0
EXTRACT: note_off channel=9 note=53 velocity=80 time=0
EXTRACT: note_on channel=9 note=42 velocity=95 time=0
EXTRACT: note_on channel=9 note=36 velocity=95 time=0
EXTRACT: note_on channel=12 note=34 velocity=75 time=0
EXTRACT: note_off channel=2 note=63 velocity=80 time=0.14705875
EXTRACT: note_on channel=2 note=58 velocity=86 time=0.14705875
EXTRACT: note_off channel=4 note=63 velocity=80 time=0
EXTRACT: note_on channel=4 note=63 velocity=95 time=0
EXTRACT: note_off channel=5 note=63 velocity=80 time=0
EXTRACT: note_on channel=5 note=63 velocity=95 time=0
EXTRACT: note_off channel=9 note=42 velocity=80 time=0
EXTRACT: note_off channel=9 note=36 velocity=80 time=0
EXTRACT: note_on channel=9 note=42 velocity=95 time=0
EXTRACT: note_on channel=9 note=53 velocity=63 time=0
EXTRACT: note_off channel=0 note=62 velocity=80 time=0.14705875
EXTRACT: note_on channel=0 note=63 velocity=95 time=0
EXTRACT: note_off channel=2 note=58 velocity=80 time=0
EXTRACT: note_on channel=12 note=34 velocity=0 time=0.049019583333333325
EXTRACT: note_on channel=2 note=58 velocity=86 time=0.09803916666666665
EXTRACT: note_off channel=4 note=70 velocity=80 time=0
EXTRACT: note_on channel=4 note=70 velocity=95 time=0
EXTRACT: note_off channel=5 note=58 velocity=80 time=0
EXTRACT: note_on channel=5 note=58 velocity=95 time=0
EXTRACT: note_off channel=9 note=42 velocity=80 time=0
EXTRACT: note_off channel=9 note=53 velocity=80 time=0
EXTRACT: note_on channel=9 note=42 velocity=95 time=0
EXTRACT: note_on channel=9 note=38 velocity=95 time=0
EXTRACT: note_on channel=9 note=53 velocity=63 time=0
EXTRACT: note_on channel=12 note=34 velocity=75 time=0
EXTRACT: note_off channel=2 note=58 velocity=80 time=0.14705875
EXTRACT: note_on channel=0 note=64 velocity=95 time=0.073529375
EXTRACT: note_off channel=0 note=64 velocity=80 time=0.07107839583333332
EXTRACT: note_off channel=0 note=63 velocity=80 time=0.0024509791666666664
EXTRACT: note_on channel=0 note=65 velocity=95 time=0
EXTRACT: note_on channel=2 note=62 velocity=86 time=0
EXTRACT: note_off channel=4 note=63 velocity=80 time=0
EXTRACT: note_on channel=4 note=63 velocity=95 time=0
EXTRACT: note_off channel=5 note=65 velocity=80 time=0
EXTRACT: note_on channel=5 note=70 velocity=95 time=0
EXTRACT: note_off channel=9 note=42 velocity=80 time=0
EXTRACT: note_off channel=9 note=38 velocity=80 time=0
EXTRACT: note_off channel=9 note=53 velocity=80 time=0
EXTRACT: note_on channel=9 note=42 velocity=95 time=0
EXTRACT: note_on channel=9 note=53 velocity=63 time=0
EXTRACT: note_off channel=2 note=62 velocity=80 time=0.14705875
EXTRACT: note_on channel=12 note=34 velocity=0 time=0.049019583333333325
EXTRACT: note_on channel=2 note=58 velocity=86 time=0.09803916666666665
EXTRACT: note_off channel=4 note=63 velocity=80 time=0
EXTRACT: note_on channel=4 note=63 velocity=95 time=0
EXTRACT: note_off channel=9 note=42 velocity=80 time=0
EXTRACT: note_off channel=9 note=53 velocity=80 time=0
EXTRACT: note_on channel=9 note=42 velocity=95 time=0
EXTRACT: note_on channel=9 note=36 velocity=95 time=0
EXTRACT: note_on channel=9 note=53 velocity=63 time=0
EXTRACT: note_on channel=12 note=34 velocity=75 time=0
EXTRACT: note_off channel=2 note=58 velocity=80 time=0.14705875
EXTRACT: note_off channel=0 note=65 velocity=80 time=0.14705875
EXTRACT: note_on channel=0 note=63 velocity=95 time=0
EXTRACT: note_on channel=2 note=58 velocity=86 time=0
EXTRACT: note_off channel=4 note=70 velocity=80 time=0
EXTRACT: note_on channel=4 note=70 velocity=95 time=0
EXTRACT: note_off channel=9 note=42 velocity=80 time=0
EXTRACT: note_off channel=9 note=36 velocity=80 time=0
EXTRACT: note_off channel=9 note=53 velocity=80 time=0
EXTRACT: note_on channel=9 note=42 velocity=95 time=0
EXTRACT: note_on channel=9 note=36 velocity=95 time=0
EXTRACT: note_on channel=9 note=53 velocity=63 time=0
EXTRACT: note_off channel=2 note=58 velocity=80 time=0.14705875
EXTRACT: note_on channel=12 note=34 velocity=0 time=0.049019583333333325
EXTRACT: note_on channel=2 note=62 velocity=86 time=0.09803916666666665
EXTRACT: note_off channel=4 note=63 velocity=80 time=0
EXTRACT: note_on channel=4 note=63 velocity=95 time=0
EXTRACT: note_off channel=9 note=42 velocity=80 time=0
EXTRACT: note_off channel=9 note=36 velocity=80 time=0
EXTRACT: note_off channel=9 note=53 velocity=80 time=0
EXTRACT: note_on channel=9 note=42 velocity=95 time=0
EXTRACT: note_on channel=9 note=38 velocity=95 time=0
EXTRACT: note_on channel=9 note=53 velocity=63 time=0
EXTRACT: note_on channel=12 note=34 velocity=75 time=0
EXTRACT: note_off channel=0 note=63 velocity=80 time=0.14705875
EXTRACT: note_on channel=0 note=60 velocity=95 time=0
EXTRACT: note_off channel=2 note=62 velocity=80 time=0
EXTRACT: note_on channel=12 note=34 velocity=0 time=0.1397058125
EXTRACT: note_off channel=0 note=60 velocity=80 time=0.007352937499999999
EXTRACT: note_on channel=2 note=58 velocity=86 time=0
EXTRACT: note_off channel=4 note=70 velocity=80 time=0
EXTRACT: note_on channel=4 note=70 velocity=95 time=0
EXTRACT: note_off channel=9 note=42 velocity=80 time=0
EXTRACT: note_off channel=9 note=38 velocity=80 time=0
EXTRACT: note_off channel=9 note=53 velocity=80 time=0
EXTRACT: note_on channel=9 note=42 velocity=95 time=0
EXTRACT: note_on channel=9 note=53 velocity=63 time=0
EXTRACT: note_on channel=12 note=36 velocity=75 time=0
EXTRACT: note_off channel=2 note=58 velocity=80 time=0.14705875
EXTRACT: note_on channel=12 note=36 velocity=0 time=0.1397058125
EXTRACT: note_on channel=2 note=63 velocity=86 time=0.007352937499999999
EXTRACT: note_off channel=4 note=63 velocity=80 time=0
EXTRACT: note_on channel=4 note=63 velocity=95 time=0
EXTRACT: note_off channel=9 note=42 velocity=80 time=0
EXTRACT: note_off channel=9 note=53 velocity=80 time=0
EXTRACT: note_on channel=9 note=57 velocity=95 time=0
EXTRACT: note_on channel=9 note=36 velocity=95 time=0
EXTRACT: note_on channel=12 note=39 velocity=75 time=0
EXTRACT: note_off channel=2 note=63 velocity=80 time=0.14705875
EXTRACT: note_on channel=0 note=63 velocity=95 time=0.14705875
EXTRACT: note_on channel=2 note=58 velocity=86 time=0
EXTRACT: note_off channel=4 note=63 velocity=80 time=0
EXTRACT: note_on channel=4 note=63 velocity=95 time=0
EXTRACT: note_off channel=5 note=63 velocity=80 time=0
EXTRACT: note_on channel=5 note=63 velocity=95 time=0
EXTRACT: note_off channel=9 note=57 velocity=80 time=0
EXTRACT: note_off channel=9 note=36 velocity=80 time=0
EXTRACT: note_on channel=9 note=42 velocity=95 time=0
EXTRACT: note_on channel=9 note=53 velocity=63 time=0
EXTRACT: note_off channel=2 note=58 velocity=80 time=0.14705875
EXTRACT: note_on channel=12 note=39 velocity=0 time=0.049019583333333325
EXTRACT: note_off channel=0 note=63 velocity=80 time=0.09803916666666665
EXTRACT: note_on channel=0 note=63 velocity=95 time=0
EXTRACT: note_on channel=2 note=58 velocity=86 time=0
EXTRACT: note_off channel=4 note=70 velocity=80 time=0
EXTRACT: note_on channel=4 note=70 velocity=95 time=0
EXTRACT: note_off channel=5 note=58 velocity=80 time=0
EXTRACT: note_on channel=5 note=58 velocity=95 time=0
EXTRACT: note_off channel=9 note=42 velocity=80 time=0
EXTRACT: note_off channel=9 note=53 velocity=80 time=0
EXTRACT: note_on channel=9 note=42 velocity=79 time=0
EXTRACT: note_on channel=9 note=38 velocity=95 time=0
EXTRACT: note_on channel=9 note=53 velocity=63 time=0
EXTRACT: note_on channel=12 note=39 velocity=75 time=0
EXTRACT: note_off channel=2 note=58 velocity=80 time=0.14705875
EXTRACT: note_off channel=0 note=63 velocity=80 time=0.14705875
EXTRACT: note_on channel=0 note=63 velocity=95 time=0
EXTRACT: note_on channel=2 note=63 velocity=86 time=0
EXTRACT: note_off channel=4 note=63 velocity=80 time=0
EXTRACT: note_on channel=4 note=63 velocity=95 time=0
EXTRACT: note_off channel=5 note=70 velocity=80 time=0
EXTRACT: note_on channel=5 note=65 velocity=95 time=0
EXTRACT: note_off channel=9 note=42 velocity=80 time=0
EXTRACT: note_off channel=9 note=38 velocity=80 time=0
EXTRACT: note_off channel=9 note=53 velocity=80 time=0
EXTRACT: note_on channel=9 note=42 velocity=79 time=0
EXTRACT: note_on channel=9 note=53 velocity=63 time=0
EXTRACT: note_off channel=2 note=63 velocity=80 time=0.14705875
EXTRACT: note_on channel=12 note=39 velocity=0 time=0.049019583333333325
EXTRACT: note_off channel=0 note=63 velocity=80 time=0.09803916666666665
EXTRACT: note_on channel=0 note=63 velocity=95 time=0
EXTRACT: note_on channel=2 note=58 velocity=86 time=0
EXTRACT: note_off channel=4 note=63 velocity=80 time=0
EXTRACT: note_on channel=4 note=63 velocity=95 time=0
EXTRACT: note_off channel=9 note=42 velocity=80 time=0
EXTRACT: note_off channel=9 note=53 velocity=80 time=0
EXTRACT: note_on channel=9 note=42 velocity=79 time=0
EXTRACT: note_on channel=9 note=36 velocity=95 time=0
EXTRACT: note_on channel=9 note=53 velocity=63 time=0
EXTRACT: note_on channel=12 note=39 velocity=75 time=0
EXTRACT: note_off channel=2 note=58 velocity=80 time=0.14705875
EXTRACT: pitchwheel channel=0 pitch=-640 time=0.14705875
EXTRACT: note_on channel=2 note=58 velocity=86 time=0
EXTRACT: note_off channel=4 note=70 velocity=80 time=0
EXTRACT: note_on channel=4 note=70 velocity=95 time=0
EXTRACT: note_off channel=9 note=42 velocity=80 time=0
EXTRACT: note_off channel=9 note=36 velocity=80 time=0
EXTRACT: note_off channel=9 note=53 velocity=80 time=0
EXTRACT: note_on channel=9 note=42 velocity=79 time=0
EXTRACT: note_on channel=9 note=36 velocity=95 time=0
EXTRACT: note_on channel=9 note=53 velocity=63 time=0
EXTRACT: pitchwheel channel=0 pitch=-1408 time=0.09803916666666665
EXTRACT: note_off channel=2 note=58 velocity=80 time=0.049019583333333325
EXTRACT: pitchwheel channel=0 pitch=-2048 time=0.049019583333333325
EXTRACT: note_on channel=12 note=39 velocity=0 time=0
EXTRACT: note_off channel=0 note=63 velocity=80 time=0.09803916666666665
EXTRACT: pitchwheel channel=0 pitch=0 time=0
EXTRACT: note_on channel=0 note=58 velocity=95 time=0
EXTRACT: note_on channel=2 note=63 velocity=86 time=0
EXTRACT: note_off channel=4 note=63 velocity=80 time=0
EXTRACT: note_on channel=4 note=63 velocity=95 time=0
EXTRACT: note_off channel=9 note=42 velocity=80 time=0
EXTRACT: note_off channel=9 note=36 velocity=80 time=0
EXTRACT: note_off channel=9 note=53 velocity=80 time=0
EXTRACT: note_on channel=9 note=42 velocity=79 time=0
EXTRACT: note_on channel=9 note=38 velocity=95 time=0
EXTRACT: note_on channel=9 note=53 velocity=63 time=0
EXTRACT: note_on channel=12 note=39 velocity=75 time=0
EXTRACT: note_off channel=2 note=63 velocity=80 time=0.14705875
EXTRACT: note_on channel=12 note=39 velocity=0 time=0.1397058125
EXTRACT: note_off channel=0 note=58 velocity=80 time=0.007352937499999999
EXTRACT: note_on channel=0 note=58 velocity=95 time=0
EXTRACT: note_on channel=2 note=58 velocity=86 time=0
EXTRACT: note_off channel=4 note=70 velocity=80 time=0
EXTRACT: note_on channel=4 note=70 velocity=95 time=0
EXTRACT: note_off channel=9 note=42 velocity=80 time=0
EXTRACT: note_off channel=9 note=38 velocity=80 time=0
EXTRACT: note_off channel=9 note=53 velocity=80 time=0
EXTRACT: note_on channel=9 note=42 velocity=79 time=0
EXTRACT: note_on channel=9 note=53 velocity=63 time=0
EXTRACT: note_on channel=12 note=39 velocity=75 time=0
EXTRACT: note_off channel=2 note=58 velocity=80 time=0.14705875
EXTRACT: note_on channel=12 note=39 velocity=0 time=0.1397058125
EXTRACT: note_off channel=0 note=58 velocity=80 time=0.007352937499999999
EXTRACT: note_on channel=0 note=62 velocity=95 time=0
EXTRACT: note_on channel=2 note=63 velocity=86 time=0
EXTRACT: note_off channel=4 note=63 velocity=80 time=0
EXTRACT: note_on channel=4 note=63 velocity=95 time=0
EXTRACT: note_off channel=9 note=42 velocity=80 time=0
EXTRACT: note_off channel=9 note=53 velocity=80 time=0
EXTRACT: note_on channel=9 note=42 velocity=95 time=0
EXTRACT: note_on channel=9 note=36 velocity=95 time=0
EXTRACT: note_on channel=12 note=34 velocity=75 time=0
EXTRACT: note_off channel=2 note=63 velocity=80 time=0.14705875
EXTRACT: note_off channel=0 note=62 velocity=80 time=0.14705875
EXTRACT: note_on channel=0 note=63 velocity=95 time=0
EXTRACT: note_on channel=2 note=58 velocity=86 time=0
EXTRACT: note_off channel=4 note=63 velocity=80 time=0
EXTRACT: note_on channel=4 note=63 velocity=95 time=0
EXTRACT: note_off channel=5 note=63 velocity=80 time=0
EXTRACT: note_on channel=5 note=62 velocity=95 time=0
EXTRACT: note_off channel=9 note=42 velocity=80 time=0
EXTRACT: note_off channel=9 note=36 velocity=80 time=0
EXTRACT: note_on channel=9 note=42 velocity=95 time=0
EXTRACT: note_on channel=9 note=53 velocity=63 time=0
EXTRACT: note_off channel=2 note=58 velocity=80 time=0.14705875
EXTRACT: note_on channel=12 note=34 velocity=0 time=0.049019583333333325
EXTRACT: note_on channel=2 note=58 velocity=86 time=0.09803916666666665
EXTRACT: note_off channel=4 note=70 velocity=80 time=0
EXTRACT: note_on channel=4 note=70 velocity=95 time=0
EXTRACT: note_off channel=5 note=58 velocity=80 time=0
EXTRACT: note_on channel=5 note=58 velocity=95 time=0
EXTRACT: note_off channel=9 note=42 velocity=80 time=0
EXTRACT: note_off channel=9 note=53 velocity=80 time=0
EXTRACT: note_on channel=9 note=42 velocity=95 time=0
EXTRACT: note_on channel=9 note=38 velocity=95 time=0
EXTRACT: note_on channel=9 note=53 velocity=63 time=0
EXTRACT: note_on channel=12 note=34 velocity=75 time=0
EXTRACT: note_off channel=2 note=58 velocity=80 time=0.14705875
EXTRACT: note_off channel=0 note=63 velocity=80 time=0.14705875
EXTRACT: note_on channel=0 note=63 velocity=95 time=0
EXTRACT: note_on channel=2 note=62 velocity=86 time=0
EXTRACT: note_off channel=4 note=63 velocity=80 time=0
EXTRACT: note_on channel=4 note=63 velocity=95 time=0
EXTRACT: note_off channel=5 note=65 velocity=80 time=0
EXTRACT: note_on channel=5 note=65 velocity=95 time=0
EXTRACT: note_off channel=9 note=42 velocity=80 time=0
EXTRACT: note_off channel=9 note=38 velocity=80 time=0
EXTRACT: note_off channel=9 note=53 velocity=80 time=0
EXTRACT: note_on channel=9 note=42 velocity=95 time=0
EXTRACT: note_on channel=9 note=53 velocity=63 time=0
EXTRACT: note_off channel=2 note=62 velocity=80 time=0.14705875
EXTRACT: note_on channel=12 note=34 velocity=0 time=0.049019583333333325
EXTRACT: note_on channel=2 note=58 velocity=86 time=0.09803916666666665
EXTRACT: note_off channel=4 note=63 velocity=80 time=0
EXTRACT: note_on channel=4 note=63 velocity=95 time=0
EXTRACT: note_off channel=9 note=42 velocity=80 time=0
EXTRACT: note_off channel=9 note=53 velocity=80 time=0
EXTRACT: note_on channel=9 note=42 velocity=95 time=0
EXTRACT: note_on channel=9 note=36 velocity=95 time=0
EXTRACT: note_on channel=9 note=53 velocity=63 time=0
EXTRACT: note_on channel=12 note=34 velocity=75 time=0
EXTRACT: note_off channel=2 note=58 velocity=80 time=0.14705875
EXTRACT: note_off channel=0 note=63 velocity=80 time=0.14705875
EXTRACT: note_on channel=0 note=60 velocity=95 time=0
EXTRACT: note_on channel=2 note=58 velocity=86 time=0
EXTRACT: note_off channel=4 note=70 velocity=80 time=0
EXTRACT: note_on channel=4 note=70 velocity=95 time=0
EXTRACT: note_off channel=9 note=42 velocity=80 time=0
EXTRACT: note_off channel=9 note=36 velocity=80 time=0
EXTRACT: note_off channel=9 note=53 velocity=80 time=0
EXTRACT: note_on channel=9 note=42 velocity=95 time=0
EXTRACT: note_on channel=9 note=36 velocity=95 time=0
EXTRACT: note_on channel=9 note=53 velocity=63 time=0
EXTRACT: note_off channel=2 note=58 velocity=80 time=0.14705875
EXTRACT: note_on channel=12 note=34 velocity=0 time=0.049019583333333325
EXTRACT: note_off channel=0 note=60 velocity=80 time=0.09803916666666665
EXTRACT: note_on channel=2 note=62 velocity=86 time=0
EXTRACT: note_off channel=4 note=63 velocity=80 time=0
EXTRACT: note_on channel=4 note=63 velocity=95 time=0
EXTRACT: note_off channel=9 note=42 velocity=80 time=0
EXTRACT: note_off channel=9 note=36 velocity=80 time=0
EXTRACT: note_off channel=9 note=53 velocity=80 time=0
EXTRACT: note_on channel=9 note=42 velocity=95 time=0
EXTRACT: note_on channel=9 note=38 velocity=95 time=0
EXTRACT: note_on channel=9 note=53 velocity=63 time=0
EXTRACT: note_on channel=12 note=34 velocity=75 time=0
EXTRACT: note_off channel=2 note=62 velocity=80 time=0.14705875
EXTRACT: note_on channel=12 note=34 velocity=0 time=0.1397058125
EXTRACT: note_on channel=2 note=58 velocity=86 time=0.007352937499999999
EXTRACT: note_off channel=4 note=70 velocity=80 time=0
EXTRACT: note_on channel=4 note=70 velocity=95 time=0
EXTRACT: note_off channel=9 note=42 velocity=80 time=0
EXTRACT: note_off channel=9 note=38 velocity=80 time=0
EXTRACT: note_off channel=9 note=53 velocity=80 time=0
EXTRACT: note_on channel=9 note=42 velocity=95 time=0
EXTRACT: note_on channel=9 note=53 velocity=63 time=0
EXTRACT: note_on channel=12 note=34 velocity=75 time=0
EXTRACT: note_off channel=2 note=58 velocity=80 time=0.14705875
EXTRACT: note_on channel=12 note=34 velocity=0 time=0.1397058125
EXTRACT: note_on channel=2 note=63 velocity=86 time=0.007352937499999999
EXTRACT: note_off channel=4 note=63 velocity=80 time=0
EXTRACT: note_on channel=4 note=63 velocity=95 time=0
EXTRACT: note_off channel=5 note=62 velocity=80 time=0
EXTRACT: note_off channel=5 note=58 velocity=80 time=0
EXTRACT: note_off channel=5 note=65 velocity=80 time=0
EXTRACT: note_off channel=9 note=42 velocity=80 time=0
EXTRACT: note_off channel=9 note=53 velocity=80 time=0
EXTRACT: note_on channel=9 note=42 velocity=95 time=0
EXTRACT: note_on channel=9 note=36 velocity=95 time=0
EXTRACT: note_on channel=12 note=36 velocity=75 time=0
EXTRACT: note_off channel=2 note=63 velocity=80 time=0.14705875
EXTRACT: note_on channel=2 note=58 velocity=86 time=0.14705875
EXTRACT: note_off channel=4 note=63 velocity=80 time=0
EXTRACT: note_on channel=4 note=63 velocity=95 time=0
EXTRACT: note_on channel=5 note=63 velocity=95 time=0
EXTRACT: note_off channel=9 note=42 velocity=80 time=0
EXTRACT: note_off channel=9 note=36 velocity=80 time=0
EXTRACT: note_on channel=9 note=42 velocity=95 time=0
EXTRACT: note_on channel=9 note=53 velocity=63 time=0
EXTRACT: note_off channel=2 note=58 velocity=80 time=0.14705875
EXTRACT: note_on channel=12 note=36 velocity=0 time=0.049019583333333325
EXTRACT: note_on channel=0 note=62 velocity=95 time=0.09803916666666665
EXTRACT: note_on channel=2 note=58 velocity=86 time=0
EXTRACT: note_off channel=4 note=70 velocity=80 time=0
EXTRACT: note_on channel=4 note=70 velocity=95 time=0
EXTRACT: note_on channel=5 note=58 velocity=95 time=0
EXTRACT: note_off channel=9 note=42 velocity=80 time=0
EXTRACT: note_off channel=9 note=53 velocity=80 time=0
EXTRACT: note_on channel=9 note=42 velocity=95 time=0
EXTRACT: note_on channel=9 note=38 velocity=95 time=0
EXTRACT: note_on channel=9 note=53 velocity=63 time=0
EXTRACT: note_on channel=12 note=36 velocity=75 time=0
EXTRACT: note_off channel=2 note=58 velocity=80 time=0.14705875
EXTRACT: note_off channel=0 note=62 velocity=80 time=0.14705875
EXTRACT: note_on channel=0 note=63 velocity=95 time=0
EXTRACT: note_on channel=2 note=63 velocity=86 time=0
EXTRACT: note_off channel=4 note=63 velocity=80 time=0
EXTRACT: note_on channel=4 note=63 velocity=95 time=0
EXTRACT: note_on channel=5 note=67 velocity=95 time=0
EXTRACT: note_off channel=9 note=42 velocity=80 time=0
EXTRACT: note_off channel=9 note=38 velocity=80 time=0
EXTRACT: note_off channel=9 note=53 velocity=80 time=0
EXTRACT: note_on channel=9 note=42 velocity=95 time=0
EXTRACT: note_on channel=9 note=53 velocity=63 time=0
EXTRACT: note_off channel=2 note=63 velocity=80 time=0.14705875
EXTRACT: note_on channel=12 note=36 velocity=0 time=0.049019583333333325
EXTRACT: note_off channel=0 note=63 velocity=80 time=0.09803916666666665
EXTRACT: note_on channel=0 note=63 velocity=95 time=0
EXTRACT: note_on channel=2 note=58 velocity=86 time=0
EXTRACT: note_off channel=4 note=63 velocity=80 time=0
EXTRACT: note_on channel=4 note=63 velocity=95 time=0
EXTRACT: note_off channel=9 note=42 velocity=80 time=0
EXTRACT: note_off channel=9 note=53 velocity=80 time=0
EXTRACT: note_on channel=9 note=42 velocity=95 time=0
EXTRACT: note_on channel=9 note=36 velocity=95 time=0
EXTRACT: note_on channel=9 note=53 velocity=63 time=0
EXTRACT: note_on channel=12 note=36 velocity=75 time=0
EXTRACT: note_off channel=2 note=58 velocity=80 time=0.14705875
EXTRACT: note_off channel=0 note=63 velocity=80 time=0.14705875
EXTRACT: note_on channel=0 note=63 velocity=95 time=0
EXTRACT: note_on channel=2 note=58 velocity=86 time=0
EXTRACT: note_off channel=4 note=70 velocity=80 time=0
EXTRACT: note_on channel=4 note=70 velocity=95 time=0
EXTRACT: note_off channel=9 note=42 velocity=80 time=0
EXTRACT: note_off channel=9 note=36 velocity=80 time=0
EXTRACT: note_off channel=9 note=53 velocity=80 time=0
EXTRACT: note_on channel=9 note=42 velocity=95 time=0
EXTRACT: note_on channel=9 note=36 velocity=95 time=0
EXTRACT: note_on channel=9 note=53 velocity=63 time=0
EXTRACT: note_off channel=2 note=58 velocity=80 time=0.14705875
EXTRACT: note_on channel=12 note=36 velocity=0 time=0.049019583333333325
EXTRACT: note_off channel=0 note=63 velocity=80 time=0.09803916666666665
EXTRACT: note_on channel=0 note=63 velocity=95 time=0
EXTRACT: note_on channel=2 note=63 velocity=86 time=0
EXTRACT: note_off channel=4 note=63 velocity=80 time=0
EXTRACT: note_on channel=4 note=63 velocity=95 time=0
EXTRACT: note_off channel=9 note=42 velocity=80 time=0
EXTRACT: note_off channel=9 note=36 velocity=80 time=0
EXTRACT: note_off channel=9 note=53 velocity=80 time=0
EXTRACT: note_on channel=9 note=42 velocity=95 time=0
EXTRACT: note_on channel=9 note=38 velocity=95 time=0
EXTRACT: note_on channel=9 note=53 velocity=63 time=0
EXTRACT: note_on channel=12 note=36 velocity=75 time=0
EXTRACT: note_off channel=2 note=63 velocity=80 time=0.14705875
EXTRACT: note_on channel=12 note=36 velocity=0 time=0.1397058125
EXTRACT: note_off channel=0 note=63 velocity=80 time=0.007352937499999999
EXTRACT: note_on channel=0 note=58 velocity=95 time=0
EXTRACT: note_on channel=2 note=58 velocity=86 time=0
EXTRACT: note_off channel=4 note=70 velocity=80 time=0
EXTRACT: note_on channel=4 note=70 velocity=95 time=0
EXTRACT: note_off channel=9 note=42 velocity=80 time=0
EXTRACT: note_off channel=9 note=38 velocity=80 time=0
EXTRACT: note_off channel=9 note=53 velocity=80 time=0
EXTRACT: note_on channel=9 note=42 velocity=95 time=0
EXTRACT: note_on channel=9 note=53 velocity=63 time=0
EXTRACT: note_on channel=12 note=36 velocity=75 time=0
EXTRACT: note_off channel=2 note=58 velocity=80 time=0.14705875
EXTRACT: note_on channel=12 note=36 velocity=0 time=0.1397058125
EXTRACT: note_off channel=0 note=58 velocity=80 time=0.007352937499999999
EXTRACT: note_on channel=0 note=62 velocity=95 time=0
EXTRACT: note_on channel=2 note=63 velocity=86 time=0
EXTRACT: note_off channel=4 note=63 velocity=80 time=0
EXTRACT: note_on channel=4 note=63 velocity=95 time=0
EXTRACT: note_off channel=9 note=42 velocity=80 time=0
EXTRACT: note_off channel=9 note=53 velocity=80 time=0
EXTRACT: note_on channel=9 note=42 velocity=95 time=0
EXTRACT: note_on channel=9 note=36 velocity=95 time=0
EXTRACT: note_on channel=12 note=32 velocity=75 time=0
EXTRACT: note_off channel=2 note=63 velocity=80 time=0.14705875
EXTRACT: note_off channel=0 note=62 velocity=80 time=0.14705875
EXTRACT: note_on channel=0 note=63 velocity=95 time=0
EXTRACT: note_on channel=2 note=58 velocity=86 time=0
EXTRACT: note_off channel=4 note=63 velocity=80 time=0
EXTRACT: note_on channel=4 note=63 velocity=95 time=0
EXTRACT: note_off channel=5 note=63 velocity=80 time=0
EXTRACT: note_on channel=5 note=63 velocity=95 time=0
EXTRACT: note_off channel=9 note=42 velocity=80 time=0
EXTRACT: note_off channel=9 note=36 velocity=80 time=0
EXTRACT: note_on channel=9 note=42 velocity=95 time=0
EXTRACT: note_on channel=9 note=53 velocity=63 time=0
EXTRACT: note_off channel=2 note=58 velocity=80 time=0.14705875
EXTRACT: note_on channel=12 note=32 velocity=0 time=0.049019583333333325
EXTRACT: note_on channel=2 note=58 velocity=86 time=0.09803916666666665
EXTRACT: note_off channel=4 note=70 velocity=80 time=0
EXTRACT: note_on channel=4 note=70 velocity=95 time=0
EXTRACT: note_off channel=5 note=58 velocity=80 time=0
EXTRACT: note_on channel=5 note=60 velocity=95 time=0
EXTRACT: note_off channel=9 note=42 velocity=80 time=0
EXTRACT: note_off channel=9 note=53 velocity=80 time=0
EXTRACT: note_on channel=9 note=42 velocity=95 time=0
EXTRACT: note_on channel=9 note=38 velocity=95 time=0
EXTRACT: note_on channel=9 note=53 velocity=63 time=0
EXTRACT: note_on channel=12 note=32 velocity=75 time=0
EXTRACT: note_off channel=2 note=58 velocity=80 time=0.14705875
EXTRACT: note_off channel=0 note=63 velocity=80 time=0.14705875
EXTRACT: note_on channel=0 note=63 velocity=95 time=0
EXTRACT: note_on channel=2 note=63 velocity=86 time=0
EXTRACT: note_off channel=4 note=63 velocity=80 time=0
EXTRACT: note_on channel=4 note=63 velocity=95 time=0
EXTRACT: note_off channel=5 note=67 velocity=80 time=0
EXTRACT: note_on channel=5 note=68 velocity=95 time=0
EXTRACT: note_off channel=9 note=42 velocity=80 time=0
EXTRACT: note_off channel=9 note=38 velocity=80 time=0
EXTRACT: note_off channel=9 note=53 velocity=80 time=0
EXTRACT: note_on channel=9 note=42 velocity=95 time=0
EXTRACT: note_on channel=9 note=36 velocity=95 time=0
EXTRACT: note_on channel=9 note=53 velocity=63 time=0
EXTRACT: note_off channel=2 note=63 velocity=80 time=0.14705875
EXTRACT: note_on channel=12 note=32 velocity=0 time=0.049019583333333325
EXTRACT: note_off channel=0 note=63 velocity=80 time=0.09803916666666665
EXTRACT: note_on channel=2 note=58 velocity=86 time=0
EXTRACT: note_off channel=4 note=63 velocity=80 time=0
EXTRACT: note_on channel=4 note=63 velocity=95 time=0
EXTRACT: note_off channel=9 note=42 velocity=80 time=0
EXTRACT: note_off channel=9 note=36 velocity=80 time=0
EXTRACT: note_off channel=9 note=53 velocity=80 time=0
EXTRACT: note_on channel=9 note=42 velocity=95 time=0
EXTRACT: note_on channel=9 note=36 velocity=79 time=0
EXTRACT: note_on channel=9 note=38 velocity=79 time=0
EXTRACT: note_on channel=9 note=53 velocity=63 time=0
EXTRACT: note_on channel=12 note=32 velocity=75 time=0
EXTRACT: note_off channel=2 note=58 velocity=80 time=0.14705875
EXTRACT: note_on channel=0 note=62 velocity=95 time=0.14705875
EXTRACT: note_on channel=6 note=56 velocity=95 time=0
EXTRACT: note_on channel=2 note=58 velocity=86 time=0
EXTRACT: note_off channel=4 note=70 velocity=80 time=0
EXTRACT: note_on channel=4 note=70 velocity=95 time=0
EXTRACT: note_off channel=9 note=42 velocity=80 time=0
EXTRACT: note_off channel=9 note=36 velocity=80 time=0
EXTRACT: note_off channel=9 note=38 velocity=80 time=0
EXTRACT: note_off channel=9 note=53 velocity=80 time=0
EXTRACT: note_on channel=9 note=42 velocity=95 time=0
EXTRACT: note_on channel=9 note=36 velocity=95 time=0
EXTRACT: note_on channel=9 note=38 velocity=79 time=0
EXTRACT: note_on channel=9 note=53 velocity=95 time=0
EXTRACT: note_off channel=2 note=58 velocity=80 time=0.14705875
EXTRACT: note_on channel=12 note=32 velocity=0 time=0.049019583333333325
EXTRACT: note_off channel=0 note=62 velocity=80 time=0.09803916666666665
EXTRACT: note_on channel=0 note=63 velocity=95 time=0
EXTRACT: note_off channel=6 note=56 velocity=80 time=0
EXTRACT: note_on channel=6 note=56 velocity=95 time=0
EXTRACT: note_on channel=2 note=63 velocity=86 time=0
EXTRACT: note_off channel=4 note=63 velocity=80 time=0
EXTRACT: note_on channel=4 note=63 velocity=95 time=0
EXTRACT: note_off channel=9 note=42 velocity=80 time=0
EXTRACT: note_off channel=9 note=36 velocity=80 time=0
EXTRACT: note_off channel=9 note=38 velocity=80 time=0
EXTRACT: note_off channel=9 note=53 velocity=80 time=0
EXTRACT: note_on channel=9 note=57 velocity=127 time=0
EXTRACT: note_on channel=9 note=36 velocity=95 time=0
EXTRACT: note_on channel=9 note=38 velocity=95 time=0
EXTRACT: note_on channel=9 note=53 velocity=63 time=0
EXTRACT: note_on channel=12 note=32 velocity=75 time=0
EXTRACT: note_off channel=2 note=63 velocity=80 time=0.14705875
EXTRACT: note_on channel=0 note=68 velocity=95 time=0.073529375
EXTRACT: note_on channel=12 note=32 velocity=0 time=0.06617643749999999
EXTRACT: note_off channel=0 note=68 velocity=80 time=0.004901958333333333
EXTRACT: note_off channel=0 note=63 velocity=80 time=0.0024509791666666664
EXTRACT: note_on channel=0 note=70 velocity=95 time=0
EXTRACT: note_off channel=6 note=56 velocity=80 time=0
EXTRACT: note_on channel=6 note=63 velocity=95 time=0
EXTRACT: note_on channel=2 note=58 velocity=86 time=0
EXTRACT: note_off channel=4 note=70 velocity=80 time=0
EXTRACT: note_on channel=4 note=70 velocity=95 time=0
EXTRACT: note_off channel=9 note=57 velocity=80 time=0
EXTRACT: note_off channel=9 note=36 velocity=80 time=0
EXTRACT: note_off channel=9 note=38 velocity=80 time=0
EXTRACT: note_off channel=9 note=53 velocity=80 time=0
EXTRACT: note_on channel=9 note=36 velocity=95 time=0
EXTRACT: note_on channel=12 note=32 velocity=75 time=0
EXTRACT: note_off channel=2 note=58 velocity=80 time=0.14705875
EXTRACT: note_on channel=12 note=32 velocity=0 time=0.1397058125
EXTRACT: note_on channel=2 note=63 velocity=86 time=0.007352937499999999
EXTRACT: note_off channel=4 note=63 velocity=80 time=0
EXTRACT: note_on channel=4 note=63 velocity=95 time=0
EXTRACT: note_off channel=5 note=63 velocity=80 time=0
EXTRACT: note_off channel=5 note=60 velocity=80 time=0
EXTRACT: note_off channel=5 note=68 velocity=80 time=0
EXTRACT: note_off channel=9 note=36 velocity=80 time=0
EXTRACT: note_on channel=9 note=49 velocity=127 time=0
EXTRACT: note_on channel=9 note=36 velocity=95 time=0
EXTRACT: note_on channel=12 note=39 velocity=75 time=0
EXTRACT: note_off channel=2 note=63 velocity=80 time=0.14705875
EXTRACT: note_on channel=2 note=58 velocity=86 time=0.14705875
EXTRACT: note_off channel=4 note=63 velocity=80 time=0
EXTRACT: note_on channel=4 note=63 velocity=95 time=0
EXTRACT: note_on channel=5 note=63 velocity=95 time=0
EXTRACT: note_off channel=9 note=49 velocity=80 time=0
EXTRACT: note_off channel=9 note=36 velocity=80 time=0
EXTRACT: note_on channel=9 note=42 velocity=95 time=0
EXTRACT: note_on channel=9 note=53 velocity=63 time=0
EXTRACT: note_off channel=2 note=58 velocity=80 time=0.14705875
EXTRACT: note_on channel=12 note=39 velocity=0 time=0.049019583333333325
EXTRACT: note_on channel=2 note=58 velocity=86 time=0.09803916666666665
EXTRACT: note_off channel=4 note=70 velocity=80 time=0
EXTRACT: note_on channel=4 note=70 velocity=95 time=0
EXTRACT: note_off channel=5 note=63 velocity=80 time=0
EXTRACT: note_on channel=5 note=58 velocity=95 time=0
EXTRACT: note_off channel=9 note=42 velocity=80 time=0
EXTRACT: note_off channel=9 note=53 velocity=80 time=0
EXTRACT: note_on channel=9 note=42 velocity=79 time=0
EXTRACT: note_on channel=9 note=38 velocity=95 time=0
EXTRACT: note_on channel=9 note=53 velocity=63 time=0
EXTRACT: note_on channel=12 note=39 velocity=75 time=0
EXTRACT: note_off channel=2 note=58 velocity=80 time=0.14705875
EXTRACT: note_on channel=12 note=39 velocity=0 time=0.1397058125
EXTRACT: note_on channel=2 note=63 velocity=86 time=0.007352937499999999
EXTRACT: note_off channel=4 note=63 velocity=80 time=0
EXTRACT: note_on channel=4 note=63 velocity=95 time=0
EXTRACT: note_off channel=5 note=58 velocity=80 time=0
EXTRACT: note_on channel=5 note=65 velocity=95 time=0
EXTRACT: note_off channel=9 note=42 velocity=80 time=0
EXTRACT: note_off channel=9 note=38 velocity=80 time=0
EXTRACT: note_off channel=9 note=53 velocity=80 time=0
EXTRACT: note_on channel=9 note=42 velocity=79 time=0
EXTRACT: note_on channel=9 note=53 velocity=63 time=0
EXTRACT: note_on channel=12 note=39 velocity=75 time=0
EXTRACT: note_off channel=2 note=63 velocity=80 time=0.14705875
EXTRACT: note_on channel=12 note=39 velocity=0 time=0.1397058125
EXTRACT: note_on channel=2 note=58 velocity=86 time=0.007352937499999999
EXTRACT: note_off channel=4 note=63 velocity=80 time=0
EXTRACT: note_on channel=4 note=63 velocity=95 time=0
EXTRACT: note_off channel=9 note=42 velocity=80 time=0
EXTRACT: note_off channel=9 note=53 velocity=80 time=0
EXTRACT: note_on channel=9 note=42 velocity=79 time=0
EXTRACT: note_on channel=9 note=36 velocity=95 time=0
EXTRACT: note_on channel=9 note=53 velocity=63 time=0
EXTRACT: note_on channel=12 note=39 velocity=75 time=0
EXTRACT: note_off channel=2 note=58 velocity=80 time=0.14705875
EXTRACT: note_on channel=12 note=39 velocity=0 time=0.1397058125
EXTRACT: note_on channel=2 note=58 velocity=86 time=0.007352937499999999
EXTRACT: note_off channel=4 note=70 velocity=80 time=0
EXTRACT: note_on channel=4 note=70 velocity=95 time=0
EXTRACT: note_off channel=9 note=42 velocity=80 time=0
EXTRACT: note_off channel=9 note=36 velocity=80 time=0
EXTRACT: note_off channel=9 note=53 velocity=80 time=0
EXTRACT: note_on channel=9 note=42 velocity=79 time=0
EXTRACT: note_on channel=9 note=36 velocity=95 time=0
EXTRACT: note_on channel=9 note=53 velocity=63 time=0
EXTRACT: note_on channel=12 note=39 velocity=75 time=0
EXTRACT: note_off channel=2 note=58 velocity=80 time=0.14705875
EXTRACT: note_on channel=12 note=39 velocity=0 time=0.1397058125
EXTRACT: note_off channel=0 note=70 velocity=80 time=0.007352937499999999
EXTRACT: note_on channel=0 note=67 velocity=95 time=0
EXTRACT: note_off channel=6 note=63 velocity=80 time=0
EXTRACT: note_on channel=6 note=58 velocity=95 time=0
EXTRACT: note_on channel=2 note=63 velocity=86 time=0
EXTRACT: note_off channel=4 note=63 velocity=80 time=0
EXTRACT: note_on channel=4 note=63 velocity=95 time=0
EXTRACT: note_off channel=9 note=42 velocity=80 time=0
EXTRACT: note_off channel=9 note=36 velocity=80 time=0
EXTRACT: note_off channel=9 note=53 velocity=80 time=0
EXTRACT: note_on channel=9 note=42 velocity=79 time=0
EXTRACT: note_on channel=9 note=38 velocity=95 time=0
EXTRACT: note_on channel=9 note=53 velocity=63 time=0
EXTRACT: note_on channel=12 note=39 velocity=75 time=0
EXTRACT: note_off channel=2 note=63 velocity=80 time=0.14705875
EXTRACT: note_on channel=12 note=39 velocity=0 time=0.1397058125
EXTRACT: note_off channel=0 note=67 velocity=80 time=0.007352937499999999
EXTRACT: note_on channel=0 note=67 velocity=95 time=0
EXTRACT: note_off channel=6 note=58 velocity=80 time=0
EXTRACT: note_on channel=6 note=58 velocity=95 time=0
EXTRACT: note_on channel=2 note=58 velocity=86 time=0
EXTRACT: note_off channel=4 note=70 velocity=80 time=0
EXTRACT: note_on channel=4 note=70 velocity=95 time=0
EXTRACT: note_off channel=9 note=42 velocity=80 time=0
EXTRACT: note_off channel=9 note=38 velocity=80 time=0
EXTRACT: note_off channel=9 note=53 velocity=80 time=0
EXTRACT: note_on channel=9 note=42 velocity=79 time=0
EXTRACT: note_on channel=9 note=53 velocity=63 time=0
EXTRACT: note_on channel=12 note=39 velocity=75 time=0
EXTRACT: note_off channel=2 note=58 velocity=80 time=0.14705875
EXTRACT: note_on channel=12 note=39 velocity=0 time=0.1397058125
EXTRACT: note_on channel=2 note=62 velocity=86 time=0.007352937499999999
EXTRACT: note_off channel=4 note=63 velocity=80 time=0
EXTRACT: note_on channel=4 note=63 velocity=95 time=0
EXTRACT: note_off channel=9 note=42 velocity=80 time=0
EXTRACT: note_off channel=9 note=53 velocity=80 time=0
EXTRACT: note_on channel=9 note=42 velocity=95 time=0
EXTRACT: note_on channel=9 note=36 velocity=95 time=0
EXTRACT: note_on channel=12 note=34 velocity=75 time=0
EXTRACT: note_off channel=2 note=62 velocity=80 time=0.14705875
EXTRACT: note_on channel=2 note=58 velocity=86 time=0.14705875
EXTRACT: note_off channel=4 note=63 velocity=80 time=0
EXTRACT: note_on channel=4 note=63 velocity=95 time=0
EXTRACT: note_off channel=5 note=65 velocity=80 time=0
EXTRACT: note_on channel=5 note=62 velocity=95 time=0
EXTRACT: note_off channel=9 note=42 velocity=80 time=0
EXTRACT: note_off channel=9 note=36 velocity=80 time=0
EXTRACT: note_on channel=9 note=42 velocity=95 time=0
EXTRACT: note_on channel=9 note=53 velocity=63 time=0
EXTRACT: note_off channel=2 note=58 velocity=80 time=0.14705875
EXTRACT: note_on channel=12 note=34 velocity=0 time=0.049019583333333325
EXTRACT: note_on channel=2 note=58 velocity=86 time=0.09803916666666665
EXTRACT: note_off channel=4 note=70 velocity=80 time=0
EXTRACT: note_on channel=4 note=70 velocity=95 time=0
EXTRACT: note_off channel=5 note=62 velocity=80 time=0
EXTRACT: note_on channel=5 note=58 velocity=95 time=0
EXTRACT: note_off channel=9 note=42 velocity=80 time=0
EXTRACT: note_off channel=9 note=53 velocity=80 time=0
EXTRACT: note_on channel=9 note=42 velocity=95 time=0
EXTRACT: note_on channel=9 note=38 velocity=95 time=0
EXTRACT: note_on channel=9 note=53 velocity=63 time=0
EXTRACT: note_on channel=12 note=34 velocity=75 time=0
EXTRACT: note_off channel=2 note=58 velocity=80 time=0.14705875
EXTRACT: note_on channel=12 note=34 velocity=0 time=0.1397058125
EXTRACT: note_on channel=2 note=63 velocity=86 time=0.007352937499999999
EXTRACT: note_off channel=4 note=63 velocity=80 time=0
EXTRACT: note_on channel=4 note=63 velocity=95 time=0
EXTRACT: note_off channel=5 note=58 velocity=80 time=0
EXTRACT: note_on channel=5 note=65 velocity=95 time=0
EXTRACT: note_off channel=9 note=42 velocity=80 time=0
EXTRACT: note_off channel=9 note=38 velocity=80 time=0
EXTRACT: note_off channel=9 note=53 velocity=80 time=0
EXTRACT: note_on channel=9 note=42 velocity=95 time=0
EXTRACT: note_on channel=9 note=53 velocity=63 time=0
EXTRACT: note_on channel=12 note=34 velocity=75 time=0
EXTRACT: note_off channel=2 note=63 velocity=80 time=0.14705875
EXTRACT: note_on channel=12 note=34 velocity=0 time=0.1397058125
EXTRACT: note_off channel=0 note=67 velocity=80 time=0.007352937499999999
EXTRACT: note_off channel=6 note=58 velocity=80 time=0
EXTRACT: note_on channel=2 note=58 velocity=86 time=0
EXTRACT: note_off channel=4 note=63 velocity=80 time=0
EXTRACT: note_on channel=4 note=63 velocity=95 time=0
EXTRACT: note_off channel=9 note=42 velocity=80 time=0
EXTRACT: note_off channel=9 note=53 velocity=80 time=0
EXTRACT: note_on channel=9 note=42 velocity=95 time=0
EXTRACT: note_on channel=9 note=36 velocity=95 time=0
EXTRACT: note_on channel=9 note=53 velocity=63 time=0
EXTRACT: note_on channel=12 note=34 velocity=75 time=0
EXTRACT: note_off channel=2 note=58 velocity=80 time=0.14705875
EXTRACT: note_on channel=12 note=34 velocity=0 time=0.1397058125
EXTRACT: note_on channel=0 note=62 velocity=95 time=0.007352937499999999
EXTRACT: note_on channel=2 note=58 velocity=86 time=0
EXTRACT: note_off channel=4 note=70 velocity=80 time=0
EXTRACT: note_on channel=4 note=70 velocity=95 time=0
EXTRACT: note_off channel=9 note=42 velocity=80 time=0
EXTRACT: note_off channel=9 note=36 velocity=80 time=0
EXTRACT: note_off channel=9 note=53 velocity=80 time=0
EXTRACT: note_on channel=9 note=42 velocity=95 time=0
EXTRACT: note_on channel=9 note=36 velocity=95 time=0
EXTRACT: note_on channel=9 note=53 velocity=63 time=0
EXTRACT: note_on channel=12 note=34 velocity=75 time=0
EXTRACT: note_off channel=2 note=58 velocity=80 time=0.14705875
EXTRACT: note_on channel=12 note=34 velocity=0 time=0.1397058125
EXTRACT: note_off channel=0 note=62 velocity=80 time=0.007352937499999999
EXTRACT: note_on channel=0 note=63 velocity=95 time=0
EXTRACT: note_on channel=6 note=58 velocity=95 time=0
EXTRACT: note_on channel=2 note=62 velocity=86 time=0
EXTRACT: note_off channel=4 note=63 velocity=80 time=0
EXTRACT: note_on channel=4 note=63 velocity=95 time=0
EXTRACT: note_off channel=9 note=42 velocity=80 time=0
EXTRACT: note_off channel=9 note=36 velocity=80 time=0
EXTRACT: note_off channel=9 note=53 velocity=80 time=0
EXTRACT: note_on channel=9 note=42 velocity=95 time=0
EXTRACT: note_on channel=9 note=38 velocity=95 time=0
EXTRACT: note_on channel=9 note=53 velocity=63 time=0
EXTRACT: note_on channel=12 note=34 velocity=75 time=0
EXTRACT: note_off channel=2 note=62 velocity=80 time=0.14705875
EXTRACT: note_on channel=0 note=68 velocity=95 time=0.073529375
EXTRACT: note_on channel=12 note=34 velocity=0 time=0.06617643749999999
EXTRACT: note_off channel=0 note=68 velocity=80 time=0.004901958333333333
EXTRACT: note_off channel=0 note=63 velocity=80 time=0.0024509791666666664
EXTRACT: note_on channel=0 note=70 velocity=95 time=0
EXTRACT: note_off channel=6 note=58 velocity=80 time=0
EXTRACT: note_on channel=6 note=63 velocity=95 time=0
EXTRACT: note_on channel=2 note=58 velocity=86 time=0
EXTRACT: note_off channel=4 note=70 velocity=80 time=0
EXTRACT: note_on channel=4 note=70 velocity=95 time=0
EXTRACT: note_off channel=9 note=42 velocity=80 time=0
EXTRACT: note_off channel=9 note=38 velocity=80 time=0
EXTRACT: note_off channel=9 note=53 velocity=80 time=0
EXTRACT: note_on channel=9 note=42 velocity=95 time=0
EXTRACT: note_on channel=9 note=53 velocity=63 time=0
EXTRACT: note_on channel=12 note=34 velocity=75 time=0
EXTRACT: note_off channel=2 note=58 velocity=80 time=0.14705875
EXTRACT: note_on channel=12 note=34 velocity=0 time=0.1397058125
EXTRACT: note_on channel=2 note=63 velocity=86 time=0.007352937499999999
EXTRACT: note_off channel=4 note=63 velocity=80 time=0
EXTRACT: note_on channel=4 note=63 velocity=95 time=0
EXTRACT: note_off channel=5 note=65 velocity=80 time=0
EXTRACT: note_off channel=9 note=42 velocity=80 time=0
EXTRACT: note_off channel=9 note=53 velocity=80 time=0
EXTRACT: note_on channel=9 note=42 velocity=95 time=0
EXTRACT: note_on channel=9 note=36 velocity=95 time=0
EXTRACT: note_on channel=12 note=36 velocity=75 time=0
EXTRACT: note_off channel=2 note=63 velocity=80 time=0.14705875
EXTRACT: note_on channel=2 note=58 velocity=86 time=0.14705875
EXTRACT: note_off channel=4 note=63 velocity=80 time=0
EXTRACT: note_on channel=4 note=63 velocity=95 time=0
EXTRACT: note_on channel=5 note=63 velocity=95 time=0
EXTRACT: note_off channel=9 note=42 velocity=80 time=0
EXTRACT: note_off channel=9 note=36 velocity=80 time=0
EXTRACT: note_on channel=9 note=42 velocity=95 time=0
EXTRACT: note_on channel=9 note=53 velocity=63 time=0
EXTRACT: note_off channel=2 note=58 velocity=80 time=0.14705875
EXTRACT: note_on channel=12 note=36 velocity=0 time=0.049019583333333325
EXTRACT: note_on channel=2 note=58 velocity=86 time=0.09803916666666665
EXTRACT: note_off channel=4 note=70 velocity=80 time=0
EXTRACT: note_on channel=4 note=70 velocity=95 time=0
EXTRACT: note_off channel=5 note=63 velocity=80 time=0
EXTRACT: note_on channel=5 note=58 velocity=95 time=0
EXTRACT: note_off channel=9 note=42 velocity=80 time=0
EXTRACT: note_off channel=9 note=53 velocity=80 time=0
EXTRACT: note_on channel=9 note=42 velocity=95 time=0
EXTRACT: note_on channel=9 note=38 velocity=95 time=0
EXTRACT: note_on channel=9 note=53 velocity=63 time=0
EXTRACT: note_on channel=12 note=36 velocity=75 time=0
EXTRACT: note_off channel=2 note=58 velocity=80 time=0.14705875
EXTRACT: note_on channel=12 note=36 velocity=0 time=0.1397058125
EXTRACT: note_on channel=2 note=63 velocity=86 time=0.007352937499999999
EXTRACT: note_off channel=4 note=63 velocity=80 time=0
EXTRACT: note_on channel=4 note=63 velocity=95 time=0
EXTRACT: note_off channel=5 note=58 velocity=80 time=0
EXTRACT: note_on channel=5 note=67 velocity=95 time=0
EXTRACT: note_off channel=9 note=42 velocity=80 time=0
EXTRACT: note_off channel=9 note=38 velocity=80 time=0
EXTRACT: note_off channel=9 note=53 velocity=80 time=0
EXTRACT: note_on channel=9 note=42 velocity=95 time=0
EXTRACT: note_on channel=9 note=53 velocity=63 time=0
EXTRACT: note_on channel=12 note=36 velocity=75 time=0
EXTRACT: note_off channel=2 note=63 velocity=80 time=0.14705875
EXTRACT: note_on channel=12 note=36 velocity=0 time=0.1397058125
EXTRACT: note_on channel=2 note=58 velocity=86 time=0.007352937499999999
EXTRACT: note_off channel=4 note=63 velocity=80 time=0
EXTRACT: note_on channel=4 note=63 velocity=95 time=0
EXTRACT: note_off channel=9 note=42 velocity=80 time=0
EXTRACT: note_off channel=9 note=53 velocity=80 time=0
EXTRACT: note_on channel=9 note=42 velocity=95 time=0
EXTRACT: note_on channel=9 note=36 velocity=95 time=0
EXTRACT: note_on channel=9 note=53 velocity=63 time=0
EXTRACT: note_on channel=12 note=36 velocity=75 time=0
EXTRACT: note_off channel=2 note=58 velocity=80 time=0.14705875
EXTRACT: note_on channel=12 note=36 velocity=0 time=0.1397058125
EXTRACT: note_on channel=2 note=58 velocity=86 time=0.007352937499999999
EXTRACT: note_off channel=4 note=70 velocity=80 time=0
EXTRACT: note_on channel=4 note=70 velocity=95 time=0
EXTRACT: note_off channel=9 note=42 velocity=80 time=0
EXTRACT: note_off channel=9 note=36 velocity=80 time=0
EXTRACT: note_off channel=9 note=53 velocity=80 time=0
EXTRACT: note_on channel=9 note=42 velocity=95 time=0
EXTRACT: note_on channel=9 note=36 velocity=95 time=0
EXTRACT: note_on channel=9 note=53 velocity=63 time=0
EXTRACT: note_on channel=12 note=36 velocity=75 time=0
EXTRACT: note_off channel=2 note=58 velocity=80 time=0.14705875
EXTRACT: note_on channel=12 note=36 velocity=0 time=0.1397058125
EXTRACT: note_off channel=0 note=70 velocity=80 time=0.007352937499999999
EXTRACT: note_on channel=0 note=67 velocity=95 time=0
EXTRACT: note_off channel=6 note=63 velocity=80 time=0
EXTRACT: note_on channel=6 note=60 velocity=95 time=0
EXTRACT: note_on channel=2 note=63 velocity=86 time=0
EXTRACT: note_off channel=4 note=63 velocity=80 time=0
EXTRACT: note_on channel=4 note=63 velocity=95 time=0
EXTRACT: note_off channel=9 note=42 velocity=80 time=0
EXTRACT: note_off channel=9 note=36 velocity=80 time=0
EXTRACT: note_off channel=9 note=53 velocity=80 time=0
EXTRACT: note_on channel=9 note=42 velocity=95 time=0
EXTRACT: note_on channel=9 note=38 velocity=95 time=0
EXTRACT: note_on channel=9 note=53 velocity=63 time=0
EXTRACT: note_on channel=12 note=36 velocity=75 time=0
EXTRACT: note_off channel=2 note=63 velocity=80 time=0.14705875
EXTRACT: note_on channel=12 note=36 velocity=0 time=0.1397058125
EXTRACT: note_off channel=0 note=67 velocity=80 time=0.007352937499999999
EXTRACT: note_on channel=0 note=67 velocity=95 time=0
EXTRACT: note_off channel=6 note=60 velocity=80 time=0
EXTRACT: note_on channel=6 note=60 velocity=95 time=0
EXTRACT: note_on channel=2 note=58 velocity=86 time=0
EXTRACT: note_off channel=4 note=70 velocity=80 time=0
EXTRACT: note_on channel=4 note=70 velocity=95 time=0
EXTRACT: note_off channel=9 note=42 velocity=80 time=0
EXTRACT: note_off channel=9 note=38 velocity=80 time=0
EXTRACT: note_off channel=9 note=53 velocity=80 time=0
EXTRACT: note_on channel=9 note=42 velocity=95 time=0
EXTRACT: note_on channel=9 note=53 velocity=63 time=0
EXTRACT: note_on channel=12 note=36 velocity=75 time=0
EXTRACT: note_off channel=2 note=58 velocity=80 time=0.14705875
EXTRACT: note_on channel=12 note=36 velocity=0 time=0.1397058125
EXTRACT: note_on channel=2 note=63 velocity=86 time=0.007352937499999999
EXTRACT: note_off channel=4 note=63 velocity=80 time=0
EXTRACT: note_on channel=4 note=63 velocity=95 time=0
EXTRACT: note_off channel=9 note=42 velocity=80 time=0
EXTRACT: note_off channel=9 note=53 velocity=80 time=0
EXTRACT: note_on channel=9 note=42 velocity=95 time=0
EXTRACT: note_on channel=9 note=36 velocity=95 time=0
EXTRACT: note_on channel=12 note=32 velocity=75 time=0
EXTRACT: note_off channel=2 note=63 velocity=80 time=0.14705875
EXTRACT: note_off channel=0 note=67 velocity=80 time=0.14705875
EXTRACT: note_on channel=0 note=65 velocity=95 time=0
EXTRACT: note_off channel=6 note=60 velocity=80 time=0
EXTRACT: note_on channel=6 note=58 velocity=95 time=0
EXTRACT: note_on channel=2 note=60 velocity=86 time=0
EXTRACT: note_off channel=4 note=63 velocity=80 time=0
EXTRACT: note_on channel=4 note=63 velocity=95 time=0
EXTRACT: note_off channel=5 note=67 velocity=80 time=0
EXTRACT: note_on channel=5 note=63 velocity=95 time=0
EXTRACT: note_off channel=9 note=42 velocity=80 time=0
EXTRACT: note_off channel=9 note=36 velocity=80 time=0
EXTRACT: note_on channel=9 note=42 velocity=95 time=0
EXTRACT: note_on channel=9 note=53 velocity=63 time=0
EXTRACT: note_off channel=2 note=60 velocity=80 time=0.14705875
EXTRACT: note_on channel=12 note=32 velocity=0 time=0.049019583333333325
EXTRACT: note_on channel=2 note=60 velocity=86 time=0.09803916666666665
EXTRACT: note_off channel=4 note=70 velocity=80 time=0
EXTRACT: note_on channel=4 note=70 velocity=95 time=0
EXTRACT: note_off channel=5 note=63 velocity=80 time=0
EXTRACT: note_on channel=5 note=60 velocity=95 time=0
EXTRACT: note_off channel=9 note=42 velocity=80 time=0
EXTRACT: note_off channel=9 note=53 velocity=80 time=0
EXTRACT: note_on channel=9 note=42 velocity=95 time=0
EXTRACT: note_on channel=9 note=38 velocity=95 time=0
EXTRACT: note_on channel=9 note=53 velocity=63 time=0
EXTRACT: note_on channel=12 note=32 velocity=75 time=0
EXTRACT: note_off channel=2 note=60 velocity=80 time=0.14705875
EXTRACT: note_on channel=12 note=32 velocity=0 time=0.1397058125
EXTRACT: note_off channel=0 note=65 velocity=80 time=0.007352937499999999
EXTRACT: note_on channel=0 note=63 velocity=95 time=0
EXTRACT: note_on channel=2 note=63 velocity=86 time=0
EXTRACT: note_off channel=4 note=63 velocity=80 time=0
EXTRACT: note_on channel=4 note=63 velocity=95 time=0
EXTRACT: note_off channel=5 note=60 velocity=80 time=0
EXTRACT: note_on channel=5 note=68 velocity=95 time=0
EXTRACT: note_off channel=9 note=42 velocity=80 time=0
EXTRACT: note_off channel=9 note=38 velocity=80 time=0
EXTRACT: note_off channel=9 note=53 velocity=80 time=0
EXTRACT: note_on channel=9 note=42 velocity=95 time=0
EXTRACT: note_on channel=9 note=36 velocity=95 time=0
EXTRACT: note_on channel=9 note=53 velocity=63 time=0
EXTRACT: note_on channel=12 note=32 velocity=75 time=0
EXTRACT: note_off channel=2 note=63 velocity=80 time=0.14705875
EXTRACT: note_on channel=12 note=32 velocity=0 time=0.1397058125
EXTRACT: note_on channel=2 note=60 velocity=86 time=0.007352937499999999
EXTRACT: note_off channel=4 note=63 velocity=80 time=0
EXTRACT: note_on channel=4 note=63 velocity=95 time=0
EXTRACT: note_off channel=9 note=42 velocity=80 time=0
EXTRACT: note_off channel=9 note=36 velocity=80 time=0
EXTRACT: note_off channel=9 note=53 velocity=80 time=0
EXTRACT: note_on channel=9 note=42 velocity=95 time=0
EXTRACT: note_on channel=9 note=36 velocity=79 time=0
EXTRACT: note_on channel=9 note=38 velocity=79 time=0
EXTRACT: note_on channel=9 note=53 velocity=63 time=0
EXTRACT: note_on channel=12 note=32 velocity=75 time=0
EXTRACT: note_off channel=2 note=60 velocity=80 time=0.14705875
EXTRACT: note_on channel=12 note=32 velocity=0 time=0.1397058125
EXTRACT: note_off channel=0 note=63 velocity=80 time=0.007352937499999999
EXTRACT: note_on channel=0 note=63 velocity=95 time=0
EXTRACT: note_off channel=6 note=58 velocity=80 time=0
EXTRACT: note_on channel=2 note=60 velocity=86 time=0
EXTRACT: note_off channel=4 note=70 velocity=80 time=0
EXTRACT: note_on channel=4 note=70 velocity=95 time=0
EXTRACT: note_off channel=9 note=42 velocity=80 time=0
EXTRACT: note_off channel=9 note=36 velocity=80 time=0
EXTRACT: note_off channel=9 note=38 velocity=80 time=0
EXTRACT: note_off channel=9 note=53 velocity=80 time=0
EXTRACT: note_on channel=9 note=42 velocity=95 time=0
EXTRACT: note_on channel=9 note=36 velocity=95 time=0
EXTRACT: note_on channel=9 note=38 velocity=79 time=0
EXTRACT: note_on channel=9 note=53 velocity=95 time=0
EXTRACT: note_on channel=12 note=32 velocity=75 time=0
EXTRACT: note_off channel=2 note=60 velocity=80 time=0.14705875
EXTRACT: note_on channel=12 note=32 velocity=0 time=0.1397058125
EXTRACT: note_off channel=0 note=63 velocity=80 time=0.007352937499999999
EXTRACT: note_on channel=0 note=63 velocity=95 time=0
EXTRACT: note_on channel=6 note=63 velocity=95 time=0
EXTRACT: note_on channel=6 note=58 velocity=95 time=0
EXTRACT: note_on channel=2 note=63 velocity=86 time=0
EXTRACT: note_off channel=4 note=63 velocity=80 time=0
EXTRACT: note_on channel=4 note=63 velocity=95 time=0
EXTRACT: note_off channel=9 note=42 velocity=80 time=0
EXTRACT: note_off channel=9 note=36 velocity=80 time=0
EXTRACT: note_off channel=9 note=38 velocity=80 time=0
EXTRACT: note_off channel=9 note=53 velocity=80 time=0
EXTRACT: note_on channel=9 note=57 velocity=127 time=0
EXTRACT: note_on channel=9 note=36 velocity=95 time=0
EXTRACT: note_on channel=9 note=38 velocity=95 time=0
EXTRACT: note_on channel=9 note=53 velocity=63 time=0
EXTRACT: note_on channel=12 note=32 velocity=75 time=0
EXTRACT: note_off channel=2 note=63 velocity=80 time=0.14705875
EXTRACT: note_on channel=12 note=32 velocity=0 time=0.1397058125
EXTRACT: note_off channel=0 note=63 velocity=80 time=0.007352937499999999
EXTRACT: note_on channel=0 note=70 velocity=95 time=0
EXTRACT: note_off channel=6 note=63 velocity=80 time=0
EXTRACT: note_off channel=6 note=58 velocity=80 time=0
EXTRACT: note_on channel=6 note=67 velocity=95 time=0
EXTRACT: note_on channel=6 note=63 velocity=95 time=0
EXTRACT: note_on channel=2 note=60 velocity=86 time=0
EXTRACT: note_off channel=4 note=70 velocity=80 time=0
EXTRACT: note_on channel=4 note=70 velocity=95 time=0
EXTRACT: note_off channel=9 note=57 velocity=80 time=0
EXTRACT: note_off channel=9 note=36 velocity=80 time=0
EXTRACT: note_off channel=9 note=38 velocity=80 time=0
EXTRACT: note_off channel=9 note=53 velocity=80 time=0
EXTRACT: note_on channel=9 note=36 velocity=95 time=0
EXTRACT: note_on channel=12 note=32 velocity=75 time=0
EXTRACT: note_off channel=2 note=60 velocity=80 time=0.14705875
EXTRACT: note_on channel=10 note=65 velocity=95 time=0.073529375
EXTRACT: note_on channel=12 note=32 velocity=0 time=0.06617643749999999
EXTRACT: note_off channel=10 note=65 velocity=80 time=0.004901958333333333
EXTRACT: note_on channel=10 note=67 velocity=95 time=0.0024509791666666664
EXTRACT: note_on channel=2 note=63 velocity=86 time=0
EXTRACT: note_off channel=4 note=63 velocity=80 time=0
EXTRACT: note_on channel=4 note=63 velocity=95 time=0
EXTRACT: note_off channel=5 note=68 velocity=80 time=0
EXTRACT: note_off channel=9 note=36 velocity=80 time=0
EXTRACT: note_on channel=9 note=49 velocity=127 time=0
EXTRACT: note_on channel=9 note=36 velocity=95 time=0
EXTRACT: note_on channel=12 note=39 velocity=75 time=0
EXTRACT: note_off channel=2 note=63 velocity=80 time=0.14705875
EXTRACT: note_on channel=2 note=58 velocity=86 time=0.14705875
EXTRACT: note_off channel=4 note=63 velocity=80 time=0
EXTRACT: note_on channel=4 note=63 velocity=95 time=0
EXTRACT: note_on channel=5 note=63 velocity=95 time=0
EXTRACT: note_off channel=9 note=49 velocity=80 time=0
EXTRACT: note_off channel=9 note=36 velocity=80 time=0
EXTRACT: note_on channel=9 note=42 velocity=95 time=0
EXTRACT: note_on channel=9 note=53 velocity=63 time=0
EXTRACT: note_off channel=2 note=58 velocity=80 time=0.14705875
EXTRACT: note_on channel=12 note=39 velocity=0 time=0.049019583333333325
EXTRACT: note_on channel=2 note=58 velocity=86 time=0.09803916666666665
EXTRACT: note_off channel=4 note=70 velocity=80 time=0
EXTRACT: note_on channel=4 note=70 velocity=95 time=0
EXTRACT: note_off channel=5 note=63 velocity=80 time=0
EXTRACT: note_on channel=5 note=58 velocity=95 time=0
EXTRACT: note_off channel=9 note=42 velocity=80 time=0
EXTRACT: note_off channel=9 note=53 velocity=80 time=0
EXTRACT: note_on channel=9 note=42 velocity=79 time=0
EXTRACT: note_on channel=9 note=38 velocity=95 time=0
EXTRACT: note_on channel=9 note=53 velocity=63 time=0
EXTRACT: note_on channel=12 note=39 velocity=75 time=0
EXTRACT: note_off channel=2 note=58 velocity=80 time=0.14705875
EXTRACT: note_on channel=12 note=39 velocity=0 time=0.1397058125
EXTRACT: note_on channel=2 note=63 velocity=86 time=0.007352937499999999
EXTRACT: note_off channel=4 note=63 velocity=80 time=0
EXTRACT: note_on channel=4 note=63 velocity=95 time=0
EXTRACT: note_off channel=5 note=58 velocity=80 time=0
EXTRACT: note_on channel=5 note=65 velocity=95 time=0
EXTRACT: note_off channel=9 note=42 velocity=80 time=0
EXTRACT: note_off channel=9 note=38 velocity=80 time=0
EXTRACT: note_off channel=9 note=53 velocity=80 time=0
EXTRACT: note_on channel=9 note=42 velocity=79 time=0
EXTRACT: note_on channel=9 note=53 velocity=63 time=0
EXTRACT: note_on channel=12 note=39 velocity=75 time=0
EXTRACT: note_off channel=2 note=63 velocity=80 time=0.14705875
EXTRACT: note_on channel=12 note=39 velocity=0 time=0.1397058125
EXTRACT: note_off channel=10 note=67 velocity=80 time=0.007352937499999999
EXTRACT: note_on channel=10 note=63 velocity=95 time=0
EXTRACT: note_on channel=2 note=58 velocity=86 time=0
EXTRACT: note_off channel=4 note=63 velocity=80 time=0
EXTRACT: note_on channel=4 note=63 velocity=95 time=0
EXTRACT: note_off channel=9 note=42 velocity=80 time=0
EXTRACT: note_off channel=9 note=53 velocity=80 time=0
EXTRACT: note_on channel=9 note=42 velocity=79 time=0
EXTRACT: note_on channel=9 note=36 velocity=95 time=0
EXTRACT: note_on channel=9 note=53 velocity=63 time=0
EXTRACT: note_on channel=12 note=39 velocity=75 time=0
EXTRACT: note_off channel=2 note=58 velocity=80 time=0.14705875
EXTRACT: note_on channel=12 note=39 velocity=0 time=0.1397058125
EXTRACT: note_on channel=2 note=58 velocity=86 time=0.007352937499999999
EXTRACT: note_off channel=4 note=70 velocity=80 time=0
EXTRACT: note_on channel=4 note=70 velocity=95 time=0
EXTRACT: note_off channel=9 note=42 velocity=80 time=0
EXTRACT: note_off channel=9 note=36 velocity=80 time=0
EXTRACT: note_off channel=9 note=53 velocity=80 time=0
EXTRACT: note_on channel=9 note=42 velocity=79 time=0
EXTRACT: note_on channel=9 note=36 velocity=95 time=0
EXTRACT: note_on channel=9 note=53 velocity=63 time=0
EXTRACT: note_on channel=12 note=39 velocity=75 time=0
EXTRACT: note_off channel=2 note=58 velocity=80 time=0.14705875
EXTRACT: note_on channel=12 note=39 velocity=0 time=0.1397058125
EXTRACT: note_off channel=0 note=70 velocity=80 time=0.007352937499999999
EXTRACT: note_on channel=0 note=67 velocity=95 time=0
EXTRACT: note_off channel=6 note=67 velocity=80 time=0
EXTRACT: note_off channel=6 note=63 velocity=80 time=0
EXTRACT: note_on channel=6 note=63 velocity=95 time=0
EXTRACT: note_on channel=6 note=58 velocity=95 time=0
EXTRACT: note_on channel=2 note=63 velocity=86 time=0
EXTRACT: note_off channel=4 note=63 velocity=80 time=0
EXTRACT: note_on channel=4 note=63 velocity=95 time=0
EXTRACT: note_off channel=9 note=42 velocity=80 time=0
EXTRACT: note_off channel=9 note=36 velocity=80 time=0
EXTRACT: note_off channel=9 note=53 velocity=80 time=0
EXTRACT: note_on channel=9 note=42 velocity=79 time=0
EXTRACT: note_on channel=9 note=38 velocity=95 time=0
EXTRACT: note_on channel=9 note=53 velocity=63 time=0
EXTRACT: note_on channel=12 note=39 velocity=75 time=0
EXTRACT: note_off channel=2 note=63 velocity=80 time=0.14705875
EXTRACT: note_on channel=12 note=39 velocity=0 time=0.1397058125
EXTRACT: note_off channel=0 note=67 velocity=80 time=0.007352937499999999
EXTRACT: note_on channel=0 note=67 velocity=95 time=0
EXTRACT: note_off channel=6 note=63 velocity=80 time=0
EXTRACT: note_off channel=6 note=58 velocity=80 time=0
EXTRACT: note_on channel=6 note=63 velocity=95 time=0
EXTRACT: note_on channel=6 note=58 velocity=95 time=0
EXTRACT: note_on channel=2 note=58 velocity=86 time=0
EXTRACT: note_off channel=4 note=70 velocity=80 time=0
EXTRACT: note_on channel=4 note=70 velocity=95 time=0
EXTRACT: note_off channel=9 note=42 velocity=80 time=0
EXTRACT: note_off channel=9 note=38 velocity=80 time=0
EXTRACT: note_off channel=9 note=53 velocity=80 time=0
EXTRACT: note_on channel=9 note=42 velocity=79 time=0
EXTRACT: note_on channel=9 note=53 velocity=63 time=0
EXTRACT: note_on channel=12 note=39 velocity=75 time=0
EXTRACT: note_off channel=2 note=58 velocity=80 time=0.14705875
EXTRACT: note_on channel=12 note=39 velocity=0 time=0.1397058125
EXTRACT: note_off channel=10 note=63 velocity=80 time=0.007352937499999999
EXTRACT: note_on channel=10 note=58 velocity=95 time=0
EXTRACT: note_on channel=2 note=62 velocity=86 time=0
EXTRACT: note_off channel=4 note=63 velocity=80 time=0
EXTRACT: note_on channel=4 note=63 velocity=95 time=0
EXTRACT: note_off channel=9 note=42 velocity=80 time=0
EXTRACT: note_off channel=9 note=53 velocity=80 time=0
EXTRACT: note_on channel=9 note=42 velocity=95 time=0
EXTRACT: note_on channel=9 note=36 velocity=95 time=0
EXTRACT: note_on channel=12 note=34 velocity=75 time=0
EXTRACT: note_off channel=2 note=62 velocity=80 time=0.14705875
EXTRACT: note_on channel=2 note=58 velocity=86 time=0.14705875
EXTRACT: note_off channel=4 note=63 velocity=80 time=0
EXTRACT: note_on channel=4 note=63 velocity=95 time=0
EXTRACT: note_off channel=5 note=65 velocity=80 time=0
EXTRACT: note_on channel=5 note=62 velocity=95 time=0
EXTRACT: note_off channel=9 note=42 velocity=80 time=0
EXTRACT: note_off channel=9 note=36 velocity=80 time=0
EXTRACT: note_on channel=9 note=42 velocity=95 time=0
EXTRACT: note_on channel=9 note=53 velocity=63 time=0
EXTRACT: note_off channel=2 note=58 velocity=80 time=0.14705875
EXTRACT: note_on channel=12 note=34 velocity=0 time=0.049019583333333325
EXTRACT: note_on channel=2 note=58 velocity=86 time=0.09803916666666665
EXTRACT: note_off channel=4 note=70 velocity=80 time=0
EXTRACT: note_on channel=4 note=70 velocity=95 time=0
EXTRACT: note_off channel=5 note=62 velocity=80 time=0
EXTRACT: note_on channel=5 note=58 velocity=95 time=0
EXTRACT: note_off channel=9 note=42 velocity=80 time=0
EXTRACT: note_off channel=9 note=53 velocity=80 time=0
EXTRACT: note_on channel=9 note=42 velocity=95 time=0
EXTRACT: note_on channel=9 note=38 velocity=95 time=0
EXTRACT: note_on channel=9 note=53 velocity=63 time=0
EXTRACT: note_on channel=12 note=34 velocity=75 time=0
EXTRACT: note_off channel=2 note=58 velocity=80 time=0.14705875
EXTRACT: note_on channel=12 note=34 velocity=0 time=0.1397058125
EXTRACT: note_on channel=2 note=63 velocity=86 time=0.007352937499999999
EXTRACT: note_off channel=4 note=63 velocity=80 time=0
EXTRACT: note_on channel=4 note=63 velocity=95 time=0
EXTRACT: note_off channel=5 note=58 velocity=80 time=0
EXTRACT: note_on channel=5 note=65 velocity=95 time=0
EXTRACT: note_off channel=9 note=42 velocity=80 time=0
EXTRACT: note_off channel=9 note=38 velocity=80 time=0
EXTRACT: note_off channel=9 note=53 velocity=80 time=0
EXTRACT: note_on channel=9 note=42 velocity=95 time=0
EXTRACT: note_on channel=9 note=53 velocity=63 time=0
EXTRACT: note_on channel=12 note=34 velocity=75 time=0
EXTRACT: note_off channel=2 note=63 velocity=80 time=0.14705875
EXTRACT: note_on channel=10 note=64 velocity=95 time=0.073529375
EXTRACT: note_on channel=12 note=34 velocity=0 time=0.06617643749999999
EXTRACT: note_off channel=10 note=64 velocity=80 time=0.004901958333333333
EXTRACT: note_off channel=0 note=67 velocity=80 time=0.0024509791666666664
EXTRACT: note_off channel=6 note=63 velocity=80 time=0
EXTRACT: note_off channel=6 note=58 velocity=80 time=0
EXTRACT: note_off channel=10 note=58 velocity=80 time=0
EXTRACT: note_on channel=10 note=65 velocity=95 time=0
EXTRACT: note_on channel=2 note=58 velocity=86 time=0
EXTRACT: note_off channel=4 note=63 velocity=80 time=0
EXTRACT: note_on channel=4 note=63 velocity=95 time=0
EXTRACT: note_off channel=9 note=42 velocity=80 time=0
EXTRACT: note_off channel=9 note=53 velocity=80 time=0
EXTRACT: note_on channel=9 note=42 velocity=95 time=0
EXTRACT: note_on channel=9 note=36 velocity=95 time=0
EXTRACT: note_on channel=9 note=53 velocity=63 time=0
EXTRACT: note_on channel=12 note=34 velocity=75 time=0
EXTRACT: note_off channel=2 note=58 velocity=80 time=0.14705875
EXTRACT: note_on channel=12 note=34 velocity=0 time=0.1397058125
EXTRACT: note_on channel=0 note=62 velocity=95 time=0.007352937499999999
EXTRACT: note_on channel=2 note=58 velocity=86 time=0
EXTRACT: note_off channel=4 note=70 velocity=80 time=0
EXTRACT: note_on channel=4 note=70 velocity=95 time=0
EXTRACT: note_off channel=9 note=42 velocity=80 time=0
EXTRACT: note_off channel=9 note=36 velocity=80 time=0
EXTRACT: note_off channel=9 note=53 velocity=80 time=0
EXTRACT: note_on channel=9 note=42 velocity=95 time=0
EXTRACT: note_on channel=9 note=36 velocity=95 time=0
EXTRACT: note_on channel=9 note=53 velocity=63 time=0
EXTRACT: note_on channel=12 note=34 velocity=75 time=0
EXTRACT: note_off channel=2 note=58 velocity=80 time=0.14705875
EXTRACT: note_on channel=12 note=34 velocity=0 time=0.1397058125
EXTRACT: note_off channel=0 note=62 velocity=80 time=0.007352937499999999
EXTRACT: note_on channel=0 note=63 velocity=95 time=0
EXTRACT: note_on channel=6 note=63 velocity=95 time=0
EXTRACT: note_on channel=6 note=58 velocity=95 time=0
EXTRACT: note_on channel=2 note=62 velocity=86 time=0
EXTRACT: note_off channel=4 note=63 velocity=80 time=0
EXTRACT: note_on channel=4 note=63 velocity=95 time=0
EXTRACT: note_off channel=9 note=42 velocity=80 time=0
EXTRACT: note_off channel=9 note=36 velocity=80 time=0
EXTRACT: note_off channel=9 note=53 velocity=80 time=0
EXTRACT: note_on channel=9 note=42 velocity=95 time=0
EXTRACT: note_on channel=9 note=38 velocity=95 time=0
EXTRACT: note_on channel=9 note=53 velocity=63 time=0
EXTRACT: note_on channel=12 note=34 velocity=75 time=0
EXTRACT: note_off channel=2 note=62 velocity=80 time=0.14705875
EXTRACT: note_on channel=0 note=68 velocity=95 time=0.073529375
EXTRACT: note_on channel=12 note=34 velocity=0 time=0.06617643749999999
EXTRACT: note_off channel=0 note=68 velocity=80 time=0.004901958333333333
EXTRACT: note_off channel=0 note=63 velocity=80 time=0.0024509791666666664
EXTRACT: note_on channel=0 note=70 velocity=95 time=0
EXTRACT: note_off channel=6 note=63 velocity=80 time=0
EXTRACT: note_off channel=6 note=58 velocity=80 time=0
EXTRACT: note_on channel=6 note=67 velocity=95 time=0
EXTRACT: note_on channel=6 note=63 velocity=95 time=0
EXTRACT: note_on channel=2 note=58 velocity=86 time=0
EXTRACT: note_off channel=4 note=70 velocity=80 time=0
EXTRACT: note_on channel=4 note=70 velocity=95 time=0
EXTRACT: note_off channel=9 note=42 velocity=80 time=0
EXTRACT: note_off channel=9 note=38 velocity=80 time=0
EXTRACT: note_off channel=9 note=53 velocity=80 time=0
EXTRACT: note_on channel=9 note=42 velocity=95 time=0
EXTRACT: note_on channel=9 note=53 velocity=63 time=0
EXTRACT: note_on channel=12 note=34 velocity=75 time=0
EXTRACT: note_off channel=2 note=58 velocity=80 time=0.14705875
EXTRACT: note_on channel=12 note=34 velocity=0 time=0.1397058125
EXTRACT: note_off channel=10 note=65 velocity=80 time=0.007352937499999999
EXTRACT: note_on channel=10 note=63 velocity=95 time=0
EXTRACT: note_on channel=2 note=63 velocity=86 time=0
EXTRACT: note_off channel=4 note=63 velocity=80 time=0
EXTRACT: note_on channel=4 note=63 velocity=95 time=0
EXTRACT: note_off channel=5 note=65 velocity=80 time=0
EXTRACT: note_off channel=9 note=42 velocity=80 time=0
EXTRACT: note_off channel=9 note=53 velocity=80 time=0
EXTRACT: note_on channel=9 note=42 velocity=95 time=0
EXTRACT: note_on channel=9 note=36 velocity=95 time=0
EXTRACT: note_on channel=12 note=36 velocity=75 time=0
EXTRACT: note_off channel=2 note=63 velocity=80 time=0.14705875
EXTRACT: note_on channel=2 note=58 velocity=86 time=0.14705875
EXTRACT: note_off channel=4 note=63 velocity=80 time=0
EXTRACT: note_on channel=4 note=63 velocity=95 time=0
EXTRACT: note_on channel=5 note=63 velocity=95 time=0
EXTRACT: note_off channel=9 note=42 velocity=80 time=0
EXTRACT: note_off channel=9 note=36 velocity=80 time=0
EXTRACT: note_on channel=9 note=42 velocity=95 time=0
EXTRACT: note_on channel=9 note=53 velocity=63 time=0
EXTRACT: note_off channel=2 note=58 velocity=80 time=0.14705875
EXTRACT: note_on channel=12 note=36 velocity=0 time=0.049019583333333325
EXTRACT: note_on channel=2 note=58 velocity=86 time=0.09803916666666665
EXTRACT: note_off channel=4 note=70 velocity=80 time=0
EXTRACT: note_on channel=4 note=70 velocity=95 time=0
EXTRACT: note_off channel=5 note=63 velocity=80 time=0
EXTRACT: note_on channel=5 note=58 velocity=95 time=0
EXTRACT: note_off channel=9 note=42 velocity=80 time=0
EXTRACT: note_off channel=9 note=53 velocity=80 time=0
EXTRACT: note_on channel=9 note=42 velocity=95 time=0
EXTRACT: note_on channel=9 note=38 velocity=95 time=0
EXTRACT: note_on channel=9 note=53 velocity=63 time=0
EXTRACT: note_on channel=12 note=36 velocity=75 time=0
EXTRACT: note_off channel=2 note=58 velocity=80 time=0.14705875
EXTRACT: note_on channel=12 note=36 velocity=0 time=0.1397058125
EXTRACT: note_on channel=2 note=63 velocity=86 time=0.007352937499999999
EXTRACT: note_off channel=4 note=63 velocity=80 time=0
EXTRACT: note_on channel=4 note=63 velocity=95 time=0
EXTRACT: note_off channel=5 note=58 velocity=80 time=0
EXTRACT: note_on channel=5 note=67 velocity=95 time=0
EXTRACT: note_off channel=9 note=42 velocity=80 time=0
EXTRACT: note_off channel=9 note=38 velocity=80 time=0
EXTRACT: note_off channel=9 note=53 velocity=80 time=0
EXTRACT: note_on channel=9 note=42 velocity=95 time=0
EXTRACT: note_on channel=9 note=53 velocity=63 time=0
EXTRACT: note_on channel=12 note=36 velocity=75 time=0
EXTRACT: note_off channel=2 note=63 velocity=80 time=0.14705875
EXTRACT: note_on channel=12 note=36 velocity=0 time=0.1397058125
EXTRACT: note_off channel=10 note=63 velocity=80 time=0.007352937499999999
EXTRACT: note_on channel=10 note=62 velocity=95 time=0
EXTRACT: note_on channel=2 note=58 velocity=86 time=0
EXTRACT: note_off channel=4 note=63 velocity=80 time=0
EXTRACT: note_on channel=4 note=63 velocity=95 time=0
EXTRACT: note_off channel=9 note=42 velocity=80 time=0
EXTRACT: note_off channel=9 note=53 velocity=80 time=0
EXTRACT: note_on channel=9 note=42 velocity=95 time=0
EXTRACT: note_on channel=9 note=36 velocity=95 time=0
EXTRACT: note_on channel=9 note=53 velocity=63 time=0
EXTRACT: note_on channel=12 note=36 velocity=75 time=0
EXTRACT: note_off channel=2 note=58 velocity=80 time=0.14705875
EXTRACT: note_on channel=12 note=36 velocity=0 time=0.1397058125
EXTRACT: note_on channel=2 note=58 velocity=86 time=0.007352937499999999
EXTRACT: note_off channel=4 note=70 velocity=80 time=0
EXTRACT: note_on channel=4 note=70 velocity=95 time=0
EXTRACT: note_off channel=9 note=42 velocity=80 time=0
EXTRACT: note_off channel=9 note=36 velocity=80 time=0
EXTRACT: note_off channel=9 note=53 velocity=80 time=0
EXTRACT: note_on channel=9 note=42 velocity=95 time=0
EXTRACT: note_on channel=9 note=36 velocity=95 time=0
EXTRACT: note_on channel=9 note=53 velocity=63 time=0
EXTRACT: note_on channel=12 note=36 velocity=75 time=0
EXTRACT: note_off channel=2 note=58 velocity=80 time=0.14705875
EXTRACT: note_on channel=12 note=36 velocity=0 time=0.1397058125
EXTRACT: note_off channel=0 note=70 velocity=80 time=0.007352937499999999
EXTRACT: note_on channel=0 note=67 velocity=95 time=0
EXTRACT: note_off channel=6 note=67 velocity=80 time=0
EXTRACT: note_off channel=6 note=63 velocity=80 time=0
EXTRACT: note_on channel=6 note=63 velocity=95 time=0
EXTRACT: note_on channel=6 note=60 velocity=95 time=0
EXTRACT: note_on channel=2 note=63 velocity=86 time=0
EXTRACT: note_off channel=4 note=63 velocity=80 time=0
EXTRACT: note_on channel=4 note=63 velocity=95 time=0
EXTRACT: note_off channel=9 note=42 velocity=80 time=0
EXTRACT: note_off channel=9 note=36 velocity=80 time=0
EXTRACT: note_off channel=9 note=53 velocity=80 time=0
EXTRACT: note_on channel=9 note=42 velocity=95 time=0
EXTRACT: note_on channel=9 note=38 velocity=95 time=0
EXTRACT: note_on channel=9 note=53 velocity=63 time=0
EXTRACT: note_on channel=12 note=36 velocity=75 time=0
EXTRACT: note_off channel=2 note=63 velocity=80 time=0.14705875
EXTRACT: note_on channel=12 note=36 velocity=0 time=0.1397058125
EXTRACT: note_off channel=0 note=67 velocity=80 time=0.007352937499999999
EXTRACT: note_on channel=0 note=67 velocity=95 time=0
EXTRACT: note_off channel=6 note=63 velocity=80 time=0
EXTRACT: note_off channel=6 note=60 velocity=80 time=0
EXTRACT: note_on channel=6 note=63 velocity=95 time=0
EXTRACT: note_on channel=6 note=60 velocity=95 time=0
EXTRACT: note_on channel=2 note=58 velocity=86 time=0
EXTRACT: note_off channel=4 note=70 velocity=80 time=0
EXTRACT: note_on channel=4 note=70 velocity=95 time=0
EXTRACT: note_off channel=9 note=42 velocity=80 time=0
EXTRACT: note_off channel=9 note=38 velocity=80 time=0
EXTRACT: note_off channel=9 note=53 velocity=80 time=0
EXTRACT: note_on channel=9 note=42 velocity=95 time=0
EXTRACT: note_on channel=9 note=53 velocity=63 time=0
EXTRACT: note_on channel=12 note=36 velocity=75 time=0
EXTRACT: note_off channel=2 note=58 velocity=80 time=0.14705875
EXTRACT: note_on channel=12 note=36 velocity=0 time=0.1397058125
EXTRACT: note_off channel=10 note=62 velocity=80 time=0.007352937499999999
EXTRACT: note_on channel=10 note=58 velocity=95 time=0
EXTRACT: note_on channel=2 note=63 velocity=86 time=0
EXTRACT: note_off channel=4 note=63 velocity=80 time=0
EXTRACT: note_on channel=4 note=63 velocity=95 time=0
EXTRACT: note_off channel=9 note=42 velocity=80 time=0
EXTRACT: note_off channel=9 note=53 velocity=80 time=0
EXTRACT: note_on channel=9 note=42 velocity=95 time=0
EXTRACT: note_on channel=9 note=36 velocity=95 time=0
EXTRACT: note_on channel=12 note=32 velocity=75 time=0
EXTRACT: note_off channel=2 note=63 velocity=80 time=0.14705875
EXTRACT: note_off channel=0 note=67 velocity=80 time=0.14705875
EXTRACT: note_on channel=0 note=65 velocity=95 time=0
EXTRACT: note_off channel=6 note=63 velocity=80 time=0
EXTRACT: note_off channel=6 note=60 velocity=80 time=0
EXTRACT: note_on channel=6 note=62 velocity=95 time=0
EXTRACT: note_on channel=6 note=58 velocity=95 time=0
EXTRACT: note_on channel=2 note=60 velocity=86 time=0
EXTRACT: note_off channel=4 note=63 velocity=80 time=0
EXTRACT: note_on channel=4 note=63 velocity=95 time=0
EXTRACT: note_off channel=5 note=67 velocity=80 time=0
EXTRACT: note_on channel=5 note=63 velocity=95 time=0
EXTRACT: note_off channel=9 note=42 velocity=80 time=0
EXTRACT: note_off channel=9 note=36 velocity=80 time=0
EXTRACT: note_on channel=9 note=42 velocity=95 time=0
EXTRACT: note_on channel=9 note=53 velocity=63 time=0
EXTRACT: note_off channel=2 note=60 velocity=80 time=0.14705875
EXTRACT: note_on channel=12 note=32 velocity=0 time=0.049019583333333325
EXTRACT: note_on channel=2 note=60 velocity=86 time=0.09803916666666665
EXTRACT: note_off channel=4 note=70 velocity=80 time=0
EXTRACT: note_on channel=4 note=70 velocity=95 time=0
EXTRACT: note_off channel=5 note=63 velocity=80 time=0
EXTRACT: note_on channel=5 note=60 velocity=95 time=0
EXTRACT: note_off channel=9 note=42 velocity=80 time=0
EXTRACT: note_off channel=9 note=53 velocity=80 time=0
EXTRACT: note_on channel=9 note=42 velocity=95 time=0
EXTRACT: note_on channel=9 note=38 velocity=95 time=0
EXTRACT: note_on channel=9 note=53 velocity=63 time=0
EXTRACT: note_on channel=12 note=32 velocity=75 time=0
EXTRACT: note_off channel=2 note=60 velocity=80 time=0.14705875
EXTRACT: note_on channel=12 note=32 velocity=0 time=0.1397058125
EXTRACT: note_off channel=0 note=65 velocity=80 time=0.007352937499999999
EXTRACT: note_on channel=0 note=63 velocity=95 time=0
EXTRACT: note_off channel=6 note=62 velocity=80 time=0
EXTRACT: note_off channel=6 note=58 velocity=80 time=0
EXTRACT: note_on channel=6 note=60 velocity=95 time=0
EXTRACT: note_on channel=6 note=56 velocity=95 time=0
EXTRACT: note_on channel=2 note=63 velocity=86 time=0
EXTRACT: note_off channel=4 note=63 velocity=80 time=0
EXTRACT: note_on channel=4 note=63 velocity=95 time=0
EXTRACT: note_off channel=5 note=60 velocity=80 time=0
EXTRACT: note_on channel=5 note=68 velocity=95 time=0
EXTRACT: note_off channel=9 note=42 velocity=80 time=0
EXTRACT: note_off channel=9 note=38 velocity=80 time=0
EXTRACT: note_off channel=9 note=53 velocity=80 time=0
EXTRACT: note_on channel=9 note=42 velocity=95 time=0
EXTRACT: note_on channel=9 note=36 velocity=95 time=0
EXTRACT: note_on channel=9 note=53 velocity=63 time=0
EXTRACT: note_on channel=12 note=32 velocity=75 time=0
EXTRACT: note_off channel=2 note=63 velocity=80 time=0.14705875
EXTRACT: note_on channel=10 note=64 velocity=95 time=0.073529375
EXTRACT: note_on channel=12 note=32 velocity=0 time=0.06617643749999999
EXTRACT: note_off channel=10 note=64 velocity=80 time=0.004901958333333333
EXTRACT: note_off channel=10 note=58 velocity=80 time=0.0024509791666666664
EXTRACT: note_on channel=10 note=65 velocity=95 time=0
EXTRACT: note_on channel=2 note=60 velocity=86 time=0
EXTRACT: note_off channel=4 note=63 velocity=80 time=0
EXTRACT: note_on channel=4 note=63 velocity=95 time=0
EXTRACT: note_off channel=9 note=42 velocity=80 time=0
EXTRACT: note_off channel=9 note=36 velocity=80 time=0
EXTRACT: note_off channel=9 note=53 velocity=80 time=0
EXTRACT: note_on channel=9 note=42 velocity=95 time=0
EXTRACT: note_on channel=9 note=36 velocity=79 time=0
EXTRACT: note_on channel=9 note=38 velocity=79 time=0
EXTRACT: note_on channel=9 note=53 velocity=63 time=0
EXTRACT: note_on channel=12 note=32 velocity=75 time=0
EXTRACT: note_off channel=2 note=60 velocity=80 time=0.14705875
EXTRACT: note_on channel=0 note=64 velocity=95 time=0.073529375
EXTRACT: note_on channel=12 note=32 velocity=0 time=0.06617643749999999
EXTRACT: note_off channel=0 note=64 velocity=80 time=0.004901958333333333
EXTRACT: note_off channel=0 note=63 velocity=80 time=0.0024509791666666664
EXTRACT: note_on channel=0 note=65 velocity=95 time=0
EXTRACT: note_off channel=6 note=60 velocity=80 time=0
EXTRACT: note_on channel=6 note=62 velocity=95 time=0
EXTRACT: note_on channel=2 note=60 velocity=86 time=0
EXTRACT: note_off channel=4 note=70 velocity=80 time=0
EXTRACT: note_on channel=4 note=70 velocity=95 time=0
EXTRACT: note_off channel=9 note=42 velocity=80 time=0
EXTRACT: note_off channel=9 note=36 velocity=80 time=0
EXTRACT: note_off channel=9 note=38 velocity=80 time=0
EXTRACT: note_off channel=9 note=53 velocity=80 time=0
EXTRACT: note_on channel=9 note=42 velocity=95 time=0
EXTRACT: note_on channel=9 note=36 velocity=95 time=0
EXTRACT: note_on channel=9 note=38 velocity=79 time=0
EXTRACT: note_on channel=9 note=53 velocity=95 time=0
EXTRACT: note_on channel=12 note=32 velocity=75 time=0
EXTRACT: note_off channel=2 note=60 velocity=80 time=0.14705875
EXTRACT: note_on channel=12 note=32 velocity=0 time=0.1397058125
EXTRACT: note_on channel=2 note=63 velocity=86 time=0.007352937499999999
EXTRACT: note_off channel=4 note=63 velocity=80 time=0
EXTRACT: note_on channel=4 note=63 velocity=95 time=0
EXTRACT: note_off channel=9 note=42 velocity=80 time=0
EXTRACT: note_off channel=9 note=36 velocity=80 time=0
EXTRACT: note_off channel=9 note=38 velocity=80 time=0
EXTRACT: note_off channel=9 note=53 velocity=80 time=0
EXTRACT: note_on channel=9 note=57 velocity=127 time=0
EXTRACT: note_on channel=9 note=36 velocity=95 time=0
EXTRACT: note_on channel=9 note=38 velocity=95 time=0
EXTRACT: note_on channel=9 note=53 velocity=63 time=0
EXTRACT: note_on channel=12 note=32 velocity=75 time=0
EXTRACT: note_off channel=2 note=63 velocity=80 time=0.14705875
EXTRACT: note_on channel=12 note=32 velocity=0 time=0.1397058125
EXTRACT: note_on channel=2 note=60 velocity=86 time=0.007352937499999999
EXTRACT: note_off channel=4 note=70 velocity=80 time=0
EXTRACT: note_on channel=4 note=70 velocity=95 time=0
EXTRACT: note_off channel=9 note=57 velocity=80 time=0
EXTRACT: note_off channel=9 note=36 velocity=80 time=0
EXTRACT: note_off channel=9 note=38 velocity=80 time=0
EXTRACT: note_off channel=9 note=53 velocity=80 time=0
EXTRACT: note_on channel=9 note=36 velocity=95 time=0
EXTRACT: note_on channel=12 note=32 velocity=75 time=0
EXTRACT: note_off channel=2 note=60 velocity=80 time=0.14705875
EXTRACT: note_on channel=10 note=65 velocity=95 time=0.073529375
EXTRACT: note_on channel=12 note=32 velocity=0 time=0.06617643749999999
EXTRACT: note_off channel=10 note=65 velocity=80 time=0.004901958333333333
EXTRACT: note_off channel=6 note=56 velocity=80 time=0.0024509791666666664
EXTRACT: note_off channel=6 note=62 velocity=80 time=0
EXTRACT: note_off channel=10 note=65 velocity=80 time=0
EXTRACT: note_on channel=10 note=63 velocity=95 time=0
EXTRACT: note_on channel=10 note=67 velocity=95 time=0
EXTRACT: note_on channel=1 note=75 velocity=95 time=0
EXTRACT: note_on channel=2 note=63 velocity=86 time=0
EXTRACT: note_on channel=3 note=75 velocity=95 time=0
EXTRACT: note_off channel=4 note=63 velocity=80 time=0
EXTRACT: note_on channel=4 note=63 velocity=95 time=0
EXTRACT: note_off channel=5 note=68 velocity=80 time=0
EXTRACT: note_off channel=9 note=36 velocity=80 time=0
EXTRACT: note_on channel=9 note=49 velocity=127 time=0
EXTRACT: note_on channel=9 note=36 velocity=95 time=0
EXTRACT: note_on channel=12 note=39 velocity=75 time=0
EXTRACT: pitchwheel channel=1 pitch=0 time=0.09803916666666665
EXTRACT: pitchwheel channel=3 pitch=0 time=0
EXTRACT: note_off channel=2 note=63 velocity=80 time=0.049019583333333325
EXTRACT: pitchwheel channel=1 pitch=256 time=0.049019583333333325
EXTRACT: pitchwheel channel=3 pitch=256 time=0
EXTRACT: pitchwheel channel=1 pitch=0 time=0.09803916666666665
EXTRACT: note_on channel=2 note=58 velocity=86 time=0
EXTRACT: pitchwheel channel=3 pitch=0 time=0
EXTRACT: note_off channel=4 note=63 velocity=80 time=0
EXTRACT: note_on channel=4 note=63 velocity=95 time=0
EXTRACT: note_on channel=5 note=63 velocity=95 time=0
EXTRACT: note_off channel=9 note=49 velocity=80 time=0
EXTRACT: note_off channel=9 note=36 velocity=80 time=0
EXTRACT: note_on channel=9 note=42 velocity=95 time=0
EXTRACT: note_on channel=9 note=53 velocity=63 time=0
EXTRACT: pitchwheel channel=1 pitch=256 time=0.09803916666666665
EXTRACT: pitchwheel channel=3 pitch=256 time=0
EXTRACT: note_off channel=2 note=58 velocity=80 time=0.049019583333333325
EXTRACT: pitchwheel channel=1 pitch=0 time=0.049019583333333325
EXTRACT: pitchwheel channel=3 pitch=0 time=0
EXTRACT: note_on channel=12 note=39 velocity=0 time=0
EXTRACT: pitchwheel channel=1 pitch=256 time=0.09803916666666665
EXTRACT: note_on channel=2 note=58 velocity=86 time=0
EXTRACT: pitchwheel channel=3 pitch=256 time=0
EXTRACT: note_off channel=4 note=70 velocity=80 time=0
EXTRACT: note_on channel=4 note=70 velocity=95 time=0
EXTRACT: note_off channel=5 note=63 velocity=80 time=0
EXTRACT: note_on channel=5 note=58 velocity=95 time=0
EXTRACT: note_off channel=9 note=42 velocity=80 time=0
EXTRACT: note_off channel=9 note=53 velocity=80 time=0
EXTRACT: note_on channel=9 note=42 velocity=79 time=0
EXTRACT: note_on channel=9 note=38 velocity=95 time=0
EXTRACT: note_on channel=9 note=53 velocity=63 time=0
EXTRACT: note_on channel=12 note=39 velocity=75 time=0
EXTRACT: pitchwheel channel=1 pitch=0 time=0.09803916666666665
EXTRACT: pitchwheel channel=3 pitch=0 time=0
EXTRACT: note_off channel=2 note=58 velocity=80 time=0.049019583333333325
EXTRACT: pitchwheel channel=1 pitch=256 time=0.049019583333333325
EXTRACT: pitchwheel channel=3 pitch=256 time=0
EXTRACT: note_on channel=12 note=39 velocity=0 time=0.09068622916666666
EXTRACT: pitchwheel channel=1 pitch=0 time=0.007352937499999999
EXTRACT: note_on channel=2 note=63 velocity=86 time=0
EXTRACT: pitchwheel channel=3 pitch=0 time=0
EXTRACT: note_off channel=4 note=63 velocity=80 time=0
EXTRACT: note_on channel=4 note=63 velocity=95 time=0
EXTRACT: note_off channel=5 note=58 velocity=80 time=0
EXTRACT: note_on channel=5 note=65 velocity=95 time=0
EXTRACT: note_off channel=9 note=42 velocity=80 time=0
EXTRACT: note_off channel=9 note=38 velocity=80 time=0
EXTRACT: note_off channel=9 note=53 velocity=80 time=0
EXTRACT: note_on channel=9 note=42 velocity=79 time=0
EXTRACT: note_on channel=9 note=53 velocity=63 time=0
EXTRACT: note_on channel=12 note=39 velocity=75 time=0
EXTRACT: pitchwheel channel=1 pitch=256 time=0.09803916666666665
EXTRACT: pitchwheel channel=3 pitch=256 time=0
EXTRACT: note_off channel=2 note=63 velocity=80 time=0.049019583333333325
EXTRACT: pitchwheel channel=1 pitch=0 time=0.049019583333333325
EXTRACT: pitchwheel channel=3 pitch=0 time=0
EXTRACT: note_on channel=12 note=39 velocity=0 time=0.09068622916666666
EXTRACT: note_off channel=10 note=67 velocity=80 time=0.007352937499999999
EXTRACT: note_on channel=10 note=63 velocity=95 time=0
EXTRACT: pitchwheel channel=1 pitch=256 time=0
EXTRACT: note_on channel=2 note=58 velocity=86 time=0
EXTRACT: pitchwheel channel=3 pitch=256 time=0
EXTRACT: note_off channel=4 note=63 velocity=80 time=0
EXTRACT: note_on channel=4 note=63 velocity=95 time=0
EXTRACT: note_off channel=9 note=42 velocity=80 time=0
EXTRACT: note_off channel=9 note=53 velocity=80 time=0
EXTRACT: note_on channel=9 note=42 velocity=79 time=0
EXTRACT: note_on channel=9 note=36 velocity=95 time=0
EXTRACT: note_on channel=9 note=53 velocity=63 time=0
EXTRACT: note_on channel=12 note=39 velocity=75 time=0
EXTRACT: pitchwheel channel=1 pitch=0 time=0.09803916666666665
EXTRACT: pitchwheel channel=3 pitch=0 time=0
EXTRACT: note_off channel=2 note=58 velocity=80 time=0.049019583333333325
EXTRACT: pitchwheel channel=1 pitch=256 time=0.049019583333333325
EXTRACT: pitchwheel channel=3 pitch=256 time=0
EXTRACT: note_on channel=12 note=39 velocity=0 time=0.09068622916666666
EXTRACT: pitchwheel channel=1 pitch=0 time=0.007352937499999999
EXTRACT: note_on channel=2 note=58 velocity=86 time=0
EXTRACT: pitchwheel channel=3 pitch=0 time=0
EXTRACT: note_off channel=4 note=70 velocity=80 time=0
EXTRACT: note_on channel=4 note=70 velocity=95 time=0
EXTRACT: note_off channel=9 note=42 velocity=80 time=0
EXTRACT: note_off channel=9 note=36 velocity=80 time=0
EXTRACT: note_off channel=9 note=53 velocity=80 time=0
EXTRACT: note_on channel=9 note=42 velocity=79 time=0
EXTRACT: note_on channel=9 note=36 velocity=95 time=0
EXTRACT: note_on channel=9 note=53 velocity=63 time=0
EXTRACT: note_on channel=12 note=39 velocity=75 time=0
EXTRACT: pitchwheel channel=1 pitch=256 time=0.09803916666666665
EXTRACT: pitchwheel channel=3 pitch=256 time=0
EXTRACT: note_off channel=2 note=58 velocity=80 time=0.049019583333333325
EXTRACT: pitchwheel channel=1 pitch=0 time=0.049019583333333325
EXTRACT: pitchwheel channel=3 pitch=0 time=0
EXTRACT: note_on channel=12 note=39 velocity=0 time=0.09068622916666666
EXTRACT: pitchwheel channel=1 pitch=256 time=0.007352937499999999
EXTRACT: note_on channel=2 note=63 velocity=86 time=0
EXTRACT: pitchwheel channel=3 pitch=256 time=0
EXTRACT: note_off channel=4 note=63 velocity=80 time=0
EXTRACT: note_on channel=4 note=63 velocity=95 time=0
EXTRACT: note_off channel=9 note=42 velocity=80 time=0
EXTRACT: note_off channel=9 note=36 velocity=80 time=0
EXTRACT: note_off channel=9 note=53 velocity=80 time=0
EXTRACT: note_on channel=9 note=42 velocity=79 time=0
EXTRACT: note_on channel=9 note=38 velocity=95 time=0
EXTRACT: note_on channel=9 note=53 velocity=63 time=0
EXTRACT: note_on channel=12 note=39 velocity=75 time=0
EXTRACT: pitchwheel channel=1 pitch=0 time=0.09803916666666665
EXTRACT: pitchwheel channel=3 pitch=0 time=0
EXTRACT: note_off channel=2 note=63 velocity=80 time=0.049019583333333325
EXTRACT: pitchwheel channel=1 pitch=256 time=0.049019583333333325
EXTRACT: pitchwheel channel=3 pitch=256 time=0
EXTRACT: note_on channel=12 note=39 velocity=0 time=0.09068622916666666
EXTRACT: pitchwheel channel=1 pitch=0 time=0.007352937499999999
EXTRACT: note_on channel=2 note=58 velocity=86 time=0
EXTRACT: pitchwheel channel=3 pitch=0 time=0
EXTRACT: note_off channel=4 note=70 velocity=80 time=0
EXTRACT: note_on channel=4 note=70 velocity=95 time=0
EXTRACT: note_off channel=9 note=42 velocity=80 time=0
EXTRACT: note_off channel=9 note=38 velocity=80 time=0
EXTRACT: note_off channel=9 note=53 velocity=80 time=0
EXTRACT: note_on channel=9 note=42 velocity=79 time=0
EXTRACT: note_on channel=9 note=53 velocity=63 time=0
EXTRACT: note_on channel=12 note=39 velocity=75 time=0
EXTRACT: pitchwheel channel=1 pitch=256 time=0.09803916666666665
EXTRACT: pitchwheel channel=3 pitch=256 time=0
EXTRACT: note_off channel=2 note=58 velocity=80 time=0.049019583333333325
EXTRACT: pitchwheel channel=1 pitch=0 time=0.049019583333333325
EXTRACT: pitchwheel channel=3 pitch=0 time=0
EXTRACT: note_on channel=1 note=75 velocity=95 time=0.024509791666666662
EXTRACT: note_on channel=3 note=75 velocity=95 time=0
EXTRACT: note_on channel=12 note=39 velocity=0 time=0.06617643749999999
EXTRACT: note_off channel=1 note=75 velocity=80 time=0.004901958333333333
EXTRACT: note_off channel=3 note=75 velocity=80 time=0
EXTRACT: note_off channel=0 note=65 velocity=80 time=0.0024509791666666664
EXTRACT: note_off channel=10 note=63 velocity=80 time=0
EXTRACT: note_off channel=10 note=63 velocity=80 time=0
EXTRACT: note_on channel=10 note=58 velocity=95 time=0
EXTRACT: note_off channel=1 note=75 velocity=80 time=0
EXTRACT: pitchwheel channel=1 pitch=256 time=0
EXTRACT: pitchwheel channel=1 pitch=0 time=0
EXTRACT: note_on channel=1 note=77 velocity=95 time=0
EXTRACT: note_on channel=2 note=62 velocity=86 time=0
EXTRACT: note_off channel=3 note=75 velocity=80 time=0
EXTRACT: pitchwheel channel=3 pitch=256 time=0
EXTRACT: pitchwheel channel=3 pitch=0 time=0
EXTRACT: note_on channel=3 note=77 velocity=95 time=0
EXTRACT: note_off channel=4 note=63 velocity=80 time=0
EXTRACT: note_on channel=4 note=63 velocity=95 time=0
EXTRACT: note_off channel=9 note=42 velocity=80 time=0
EXTRACT: note_off channel=9 note=53 velocity=80 time=0
EXTRACT: note_on channel=9 note=42 velocity=95 time=0
EXTRACT: note_on channel=9 note=36 velocity=95 time=0
EXTRACT: note_on channel=12 note=34 velocity=75 time=0
EXTRACT: pitchwheel channel=1 pitch=0 time=0.09803916666666665
EXTRACT: pitchwheel channel=3 pitch=0 time=0
EXTRACT: note_off channel=2 note=62 velocity=80 time=0.049019583333333325
EXTRACT: pitchwheel channel=1 pitch=256 time=0.049019583333333325
EXTRACT: pitchwheel channel=3 pitch=256 time=0
EXTRACT: note_on channel=12 note=34 velocity=0 time=0.09068622916666666
EXTRACT: pitchwheel channel=1 pitch=0 time=0.007352937499999999
EXTRACT: note_on channel=2 note=58 velocity=86 time=0
EXTRACT: pitchwheel channel=3 pitch=0 time=0
EXTRACT: note_off channel=4 note=63 velocity=80 time=0
EXTRACT: note_on channel=4 note=63 velocity=95 time=0
EXTRACT: note_off channel=5 note=65 velocity=80 time=0
EXTRACT: note_on channel=5 note=62 velocity=95 time=0
EXTRACT: note_off channel=9 note=42 velocity=80 time=0
EXTRACT: note_off channel=9 note=36 velocity=80 time=0
EXTRACT: note_on channel=9 note=42 velocity=95 time=0
EXTRACT: note_on channel=9 note=53 velocity=63 time=0
EXTRACT: note_on channel=12 note=34 velocity=75 time=0
EXTRACT: pitchwheel channel=1 pitch=256 time=0.09803916666666665
EXTRACT: pitchwheel channel=3 pitch=256 time=0
EXTRACT: note_off channel=2 note=58 velocity=80 time=0.049019583333333325
EXTRACT: pitchwheel channel=1 pitch=0 time=0.049019583333333325
EXTRACT: pitchwheel channel=3 pitch=0 time=0
EXTRACT: note_on channel=12 note=34 velocity=0 time=0.09068622916666666
EXTRACT: pitchwheel channel=1 pitch=256 time=0.007352937499999999
EXTRACT: note_on channel=2 note=58 velocity=86 time=0
EXTRACT: pitchwheel channel=3 pitch=256 time=0
EXTRACT: note_off channel=4 note=70 velocity=80 time=0
EXTRACT: note_on channel=4 note=70 velocity=95 time=0
EXTRACT: note_off channel=5 note=62 velocity=80 time=0
EXTRACT: note_on channel=5 note=58 velocity=95 time=0
EXTRACT: note_off channel=9 note=42 velocity=80 time=0
EXTRACT: note_off channel=9 note=53 velocity=80 time=0
EXTRACT: note_on channel=9 note=42 velocity=95 time=0
EXTRACT: note_on channel=9 note=38 velocity=95 time=0
EXTRACT: note_on channel=9 note=53 velocity=63 time=0
EXTRACT: note_on channel=12 note=34 velocity=75 time=0
EXTRACT: pitchwheel channel=1 pitch=0 time=0.09803916666666665
EXTRACT: pitchwheel channel=3 pitch=0 time=0
EXTRACT: note_off channel=2 note=58 velocity=80 time=0.049019583333333325
EXTRACT: pitchwheel channel=1 pitch=256 time=0.049019583333333325
EXTRACT: pitchwheel channel=3 pitch=256 time=0
EXTRACT: note_on channel=0 note=60 velocity=95 time=0.024509791666666662
EXTRACT: note_on channel=12 note=34 velocity=0 time=0.06617643749999999
EXTRACT: note_off channel=0 note=60 velocity=80 time=0.004901958333333333
EXTRACT: note_on channel=0 note=62 velocity=95 time=0.0024509791666666664
EXTRACT: pitchwheel channel=1 pitch=0 time=0
EXTRACT: note_on channel=2 note=63 velocity=86 time=0
EXTRACT: pitchwheel channel=3 pitch=0 time=0
EXTRACT: note_off channel=4 note=63 velocity=80 time=0
EXTRACT: note_on channel=4 note=63 velocity=95 time=0
EXTRACT: note_off channel=5 note=58 velocity=80 time=0
EXTRACT: note_on channel=5 note=65 velocity=95 time=0
EXTRACT: note_off channel=9 note=42 velocity=80 time=0
EXTRACT: note_off channel=9 note=38 velocity=80 time=0
EXTRACT: note_off channel=9 note=53 velocity=80 time=0
EXTRACT: note_on channel=9 note=42 velocity=95 time=0
EXTRACT: note_on channel=9 note=53 velocity=63 time=0
EXTRACT: note_on channel=12 note=34 velocity=75 time=0
EXTRACT: pitchwheel channel=1 pitch=256 time=0.09803916666666665
EXTRACT: pitchwheel channel=3 pitch=256 time=0
EXTRACT: note_off channel=2 note=63 velocity=80 time=0.049019583333333325
EXTRACT: pitchwheel channel=1 pitch=0 time=0.049019583333333325
EXTRACT: pitchwheel channel=3 pitch=0 time=0
EXTRACT: note_on channel=10 note=64 velocity=95 time=0.024509791666666662
EXTRACT: note_on channel=12 note=34 velocity=0 time=0.06617643749999999
EXTRACT: note_off channel=10 note=64 velocity=80 time=0.004901958333333333
EXTRACT: note_on channel=6 note=65 velocity=95 time=0.0024509791666666664
EXTRACT: note_on channel=6 note=62 velocity=95 time=0
EXTRACT: note_off channel=10 note=58 velocity=80 time=0
EXTRACT: note_on channel=10 note=65 velocity=95 time=0
EXTRACT: pitchwheel channel=1 pitch=256 time=0
EXTRACT: note_on channel=2 note=58 velocity=86 time=0
EXTRACT: pitchwheel channel=3 pitch=256 time=0
EXTRACT: note_off channel=4 note=63 velocity=80 time=0
EXTRACT: note_on channel=4 note=63 velocity=95 time=0
EXTRACT: note_off channel=9 note=42 velocity=80 time=0
EXTRACT: note_off channel=9 note=53 velocity=80 time=0
EXTRACT: note_on channel=9 note=42 velocity=95 time=0
EXTRACT: note_on channel=9 note=36 velocity=95 time=0
EXTRACT: note_on channel=9 note=53 velocity=63 time=0
EXTRACT: note_on channel=12 note=34 velocity=75 time=0
EXTRACT: pitchwheel channel=1 pitch=0 time=0.09803916666666665
EXTRACT: pitchwheel channel=3 pitch=0 time=0
EXTRACT: note_off channel=2 note=58 velocity=80 time=0.049019583333333325
EXTRACT: pitchwheel channel=1 pitch=256 time=0.049019583333333325
EXTRACT: pitchwheel channel=3 pitch=256 time=0
EXTRACT: note_on channel=12 note=34 velocity=0 time=0.09068622916666666
EXTRACT: pitchwheel channel=1 pitch=0 time=0.007352937499999999
EXTRACT: note_on channel=2 note=58 velocity=86 time=0
EXTRACT: pitchwheel channel=3 pitch=0 time=0
EXTRACT: note_off channel=4 note=70 velocity=80 time=0
EXTRACT: note_on channel=4 note=70 velocity=95 time=0
EXTRACT: note_off channel=9 note=42 velocity=80 time=0
EXTRACT: note_off channel=9 note=36 velocity=80 time=0
EXTRACT: note_off channel=9 note=53 velocity=80 time=0
EXTRACT: note_on channel=9 note=42 velocity=95 time=0
EXTRACT: note_on channel=9 note=36 velocity=95 time=0
EXTRACT: note_on channel=9 note=53 velocity=63 time=0
EXTRACT: note_on channel=12 note=34 velocity=75 time=0
EXTRACT: pitchwheel channel=1 pitch=256 time=0.09803916666666665
EXTRACT: pitchwheel channel=3 pitch=256 time=0
EXTRACT: note_off channel=2 note=58 velocity=80 time=0.049019583333333325
EXTRACT: pitchwheel channel=1 pitch=0 time=0.049019583333333325
EXTRACT: pitchwheel channel=3 pitch=0 time=0
EXTRACT: note_on channel=12 note=34 velocity=0 time=0.09068622916666666
EXTRACT: pitchwheel channel=1 pitch=256 time=0.007352937499999999
EXTRACT: note_on channel=2 note=62 velocity=86 time=0
EXTRACT: pitchwheel channel=3 pitch=256 time=0
EXTRACT: note_off channel=4 note=63 velocity=80 time=0
EXTRACT: note_on channel=4 note=63 velocity=95 time=0
EXTRACT: note_off channel=9 note=42 velocity=80 time=0
EXTRACT: note_off channel=9 note=36 velocity=80 time=0
EXTRACT: note_off channel=9 note=53 velocity=80 time=0
EXTRACT: note_on channel=9 note=42 velocity=95 time=0
EXTRACT: note_on channel=9 note=38 velocity=95 time=0
EXTRACT: note_on channel=9 note=53 velocity=63 time=0
EXTRACT: note_on channel=12 note=34 velocity=75 time=0
EXTRACT: pitchwheel channel=1 pitch=0 time=0.09803916666666665
EXTRACT: pitchwheel channel=3 pitch=0 time=0
EXTRACT: note_off channel=2 note=62 velocity=80 time=0.049019583333333325
EXTRACT: pitchwheel channel=1 pitch=256 time=0.049019583333333325
EXTRACT: pitchwheel channel=3 pitch=256 time=0
EXTRACT: note_on channel=12 note=34 velocity=0 time=0.09068622916666666
EXTRACT: note_off channel=0 note=62 velocity=80 time=0.007352937499999999
EXTRACT: note_on channel=0 note=63 velocity=95 time=0
EXTRACT: note_off channel=1 note=77 velocity=80 time=0
EXTRACT: pitchwheel channel=1 pitch=0 time=0
EXTRACT: pitchwheel channel=1 pitch=0 time=0
EXTRACT: note_on channel=1 note=75 velocity=95 time=0
EXTRACT: note_on channel=2 note=58 velocity=86 time=0
EXTRACT: note_off channel=3 note=77 velocity=80 time=0
EXTRACT: pitchwheel channel=3 pitch=0 time=0
EXTRACT: pitchwheel channel=3 pitch=0 time=0
EXTRACT: note_on channel=3 note=75 velocity=95 time=0
EXTRACT: note_off channel=4 note=70 velocity=80 time=0
EXTRACT: note_on channel=4 note=70 velocity=95 time=0
EXTRACT: note_off channel=9 note=42 velocity=80 time=0
EXTRACT: note_off channel=9 note=38 velocity=80 time=0
EXTRACT: note_off channel=9 note=53 velocity=80 time=0
EXTRACT: note_on channel=9 note=42 velocity=95 time=0
EXTRACT: note_on channel=9 note=53 velocity=63 time=0
EXTRACT: note_on channel=12 note=34 velocity=75 time=0
EXTRACT: note_off channel=2 note=58 velocity=80 time=0.14705875
EXTRACT: note_on channel=1 note=70 velocity=95 time=0.073529375
EXTRACT: note_on channel=3 note=70 velocity=95 time=0
EXTRACT: note_on channel=12 note=34 velocity=0 time=0.06617643749999999
EXTRACT: note_off channel=1 note=70 velocity=80 time=0.004901958333333333
EXTRACT: note_off channel=3 note=70 velocity=80 time=0
EXTRACT: note_off channel=6 note=62 velocity=80 time=0.0024509791666666664
EXTRACT: note_on channel=6 note=63 velocity=95 time=0
EXTRACT: note_off channel=10 note=65 velocity=80 time=0
EXTRACT: note_on channel=10 note=63 velocity=95 time=0
EXTRACT: note_off channel=1 note=75 velocity=80 time=0
EXTRACT: note_on channel=1 note=72 velocity=95 time=0
EXTRACT: note_on channel=2 note=63 velocity=86 time=0
EXTRACT: note_off channel=3 note=75 velocity=80 time=0
EXTRACT: note_on channel=3 note=72 velocity=95 time=0
EXTRACT: note_off channel=4 note=63 velocity=80 time=0
EXTRACT: note_on channel=4 note=63 velocity=95 time=0
EXTRACT: note_off channel=5 note=65 velocity=80 time=0
EXTRACT: note_off channel=9 note=42 velocity=80 time=0
EXTRACT: note_off channel=9 note=53 velocity=80 time=0
EXTRACT: note_on channel=9 note=42 velocity=95 time=0
EXTRACT: note_on channel=9 note=36 velocity=95 time=0
EXTRACT: note_on channel=12 note=36 velocity=75 time=0
EXTRACT: pitchwheel channel=1 pitch=0 time=0.09803916666666665
EXTRACT: pitchwheel channel=3 pitch=0 time=0
EXTRACT: note_off channel=2 note=63 velocity=80 time=0.049019583333333325
EXTRACT: pitchwheel channel=1 pitch=256 time=0.049019583333333325
EXTRACT: pitchwheel channel=3 pitch=256 time=0
EXTRACT: note_on channel=12 note=36 velocity=0 time=0.09068622916666666
EXTRACT: note_off channel=0 note=63 velocity=80 time=0.007352937499999999
EXTRACT: note_on channel=0 note=60 velocity=95 time=0
EXTRACT: pitchwheel channel=1 pitch=0 time=0
EXTRACT: note_on channel=2 note=58 velocity=86 time=0
EXTRACT: pitchwheel channel=3 pitch=0 time=0
EXTRACT: note_off channel=4 note=63 velocity=80 time=0
EXTRACT: note_on channel=4 note=63 velocity=95 time=0
EXTRACT: note_on channel=5 note=63 velocity=95 time=0
EXTRACT: note_off channel=9 note=42 velocity=80 time=0
EXTRACT: note_off channel=9 note=36 velocity=80 time=0
EXTRACT: note_on channel=9 note=42 velocity=95 time=0
EXTRACT: note_on channel=9 note=53 velocity=63 time=0
EXTRACT: note_on channel=12 note=36 velocity=75 time=0
EXTRACT: pitchwheel channel=1 pitch=256 time=0.09803916666666665
EXTRACT: pitchwheel channel=3 pitch=256 time=0
EXTRACT: note_off channel=2 note=58 velocity=80 time=0.049019583333333325
EXTRACT: pitchwheel channel=1 pitch=0 time=0.049019583333333325
EXTRACT: pitchwheel channel=3 pitch=0 time=0
EXTRACT: note_on channel=12 note=36 velocity=0 time=0.09068622916666666
EXTRACT: pitchwheel channel=1 pitch=256 time=0.007352937499999999
EXTRACT: note_on channel=2 note=58 velocity=86 time=0
EXTRACT: pitchwheel channel=3 pitch=256 time=0
EXTRACT: note_off channel=4 note=70 velocity=80 time=0
EXTRACT: note_on channel=4 note=70 velocity=95 time=0
EXTRACT: note_off channel=5 note=63 velocity=80 time=0
EXTRACT: note_on channel=5 note=58 velocity=95 time=0
EXTRACT: note_off channel=9 note=42 velocity=80 time=0
EXTRACT: note_off channel=9 note=53 velocity=80 time=0
EXTRACT: note_on channel=9 note=42 velocity=95 time=0
EXTRACT: note_on channel=9 note=38 velocity=95 time=0
EXTRACT: note_on channel=9 note=53 velocity=63 time=0
EXTRACT: note_on channel=12 note=36 velocity=75 time=0
EXTRACT: pitchwheel channel=1 pitch=0 time=0.09803916666666665
EXTRACT: pitchwheel channel=3 pitch=0 time=0
EXTRACT: note_off channel=2 note=58 velocity=80 time=0.049019583333333325
EXTRACT: pitchwheel channel=1 pitch=256 time=0.049019583333333325
EXTRACT: pitchwheel channel=3 pitch=256 time=0
EXTRACT: note_on channel=12 note=36 velocity=0 time=0.09068622916666666
EXTRACT: note_off channel=0 note=60 velocity=80 time=0.007352937499999999
EXTRACT: pitchwheel channel=1 pitch=0 time=0
EXTRACT: note_on channel=2 note=63 velocity=86 time=0
EXTRACT: pitchwheel channel=3 pitch=0 time=0
EXTRACT: note_off channel=4 note=63 velocity=80 time=0
EXTRACT: note_on channel=4 note=63 velocity=95 time=0
EXTRACT: note_off channel=5 note=58 velocity=80 time=0
EXTRACT: note_on channel=5 note=67 velocity=95 time=0
EXTRACT: note_off channel=9 note=42 velocity=80 time=0
EXTRACT: note_off channel=9 note=38 velocity=80 time=0
EXTRACT: note_off channel=9 note=53 velocity=80 time=0
EXTRACT: note_on channel=9 note=42 velocity=95 time=0
EXTRACT: note_on channel=9 note=53 velocity=63 time=0
EXTRACT: note_on channel=12 note=36 velocity=75 time=0
EXTRACT: pitchwheel channel=1 pitch=256 time=0.09803916666666665
EXTRACT: pitchwheel channel=3 pitch=256 time=0
EXTRACT: note_off channel=2 note=63 velocity=80 time=0.049019583333333325
EXTRACT: pitchwheel channel=1 pitch=0 time=0.049019583333333325
EXTRACT: pitchwheel channel=3 pitch=0 time=0
EXTRACT: note_on channel=12 note=36 velocity=0 time=0.09068622916666666
EXTRACT: note_off channel=10 note=63 velocity=80 time=0.007352937499999999
EXTRACT: note_on channel=10 note=62 velocity=95 time=0
EXTRACT: pitchwheel channel=1 pitch=256 time=0
EXTRACT: note_on channel=2 note=58 velocity=86 time=0
EXTRACT: pitchwheel channel=3 pitch=256 time=0
EXTRACT: note_off channel=4 note=63 velocity=80 time=0
EXTRACT: note_on channel=4 note=63 velocity=95 time=0
EXTRACT: note_off channel=9 note=42 velocity=80 time=0
EXTRACT: note_off channel=9 note=53 velocity=80 time=0
EXTRACT: note_on channel=9 note=42 velocity=95 time=0
EXTRACT: note_on channel=9 note=36 velocity=95 time=0
EXTRACT: note_on channel=9 note=53 velocity=63 time=0
EXTRACT: note_on channel=12 note=36 velocity=75 time=0
EXTRACT: pitchwheel channel=1 pitch=0 time=0.09803916666666665
EXTRACT: pitchwheel channel=3 pitch=0 time=0
EXTRACT: note_off channel=2 note=58 velocity=80 time=0.049019583333333325
EXTRACT: pitchwheel channel=1 pitch=256 time=0.049019583333333325
EXTRACT: pitchwheel channel=3 pitch=256 time=0
EXTRACT: note_on channel=12 note=36 velocity=0 time=0.09068622916666666
EXTRACT: pitchwheel channel=1 pitch=0 time=0.007352937499999999
EXTRACT: note_on channel=2 note=58 velocity=86 time=0
EXTRACT: pitchwheel channel=3 pitch=0 time=0
EXTRACT: note_off channel=4 note=70 velocity=80 time=0
EXTRACT: note_on channel=4 note=70 velocity=95 time=0
EXTRACT: note_off channel=9 note=42 velocity=80 time=0
EXTRACT: note_off channel=9 note=36 velocity=80 time=0
EXTRACT: note_off channel=9 note=53 velocity=80 time=0
EXTRACT: note_on channel=9 note=42 velocity=95 time=0
EXTRACT: note_on channel=9 note=36 velocity=95 time=0
EXTRACT: note_on channel=9 note=53 velocity=63 time=0
EXTRACT: note_on channel=12 note=36 velocity=75 time=0
EXTRACT: pitchwheel channel=1 pitch=256 time=0.09803916666666665
EXTRACT: pitchwheel channel=3 pitch=256 time=0
EXTRACT: note_off channel=2 note=58 velocity=80 time=0.049019583333333325
EXTRACT: pitchwheel channel=1 pitch=0 time=0.049019583333333325
EXTRACT: pitchwheel channel=3 pitch=0 time=0
EXTRACT: note_on channel=12 note=36 velocity=0 time=0.09068622916666666
EXTRACT: note_off channel=6 note=65 velocity=80 time=0.007352937499999999
EXTRACT: note_off channel=6 note=63 velocity=80 time=0
EXTRACT: pitchwheel channel=1 pitch=256 time=0
EXTRACT: note_on channel=2 note=63 velocity=86 time=0
EXTRACT: pitchwheel channel=3 pitch=256 time=0
EXTRACT: note_off channel=4 note=63 velocity=80 time=0
EXTRACT: note_on channel=4 note=63 velocity=95 time=0
EXTRACT: note_off channel=9 note=42 velocity=80 time=0
EXTRACT: note_off channel=9 note=36 velocity=80 time=0
EXTRACT: note_off channel=9 note=53 velocity=80 time=0
EXTRACT: note_on channel=9 note=42 velocity=95 time=0
EXTRACT: note_on channel=9 note=38 velocity=95 time=0
EXTRACT: note_on channel=9 note=53 velocity=63 time=0
EXTRACT: note_on channel=12 note=36 velocity=75 time=0
EXTRACT: pitchwheel channel=1 pitch=0 time=0.09803916666666665
EXTRACT: pitchwheel channel=3 pitch=0 time=0
EXTRACT: note_off channel=2 note=63 velocity=80 time=0.049019583333333325
EXTRACT: pitchwheel channel=1 pitch=256 time=0.049019583333333325
EXTRACT: pitchwheel channel=3 pitch=256 time=0
EXTRACT: note_on channel=12 note=36 velocity=0 time=0.09068622916666666
EXTRACT: note_on channel=0 note=66 velocity=95 time=0.007352937499999999
EXTRACT: note_off channel=1 note=72 velocity=80 time=0
EXTRACT: pitchwheel channel=1 pitch=0 time=0
EXTRACT: pitchwheel channel=1 pitch=0 time=0
EXTRACT: note_on channel=1 note=70 velocity=95 time=0
EXTRACT: note_on channel=2 note=58 velocity=86 time=0
EXTRACT: note_off channel=3 note=72 velocity=80 time=0
EXTRACT: pitchwheel channel=3 pitch=0 time=0
EXTRACT: pitchwheel channel=3 pitch=0 time=0
EXTRACT: note_on channel=3 note=70 velocity=95 time=0
EXTRACT: note_off channel=4 note=70 velocity=80 time=0
EXTRACT: note_on channel=4 note=70 velocity=95 time=0
EXTRACT: note_off channel=9 note=42 velocity=80 time=0
EXTRACT: note_off channel=9 note=38 velocity=80 time=0
EXTRACT: note_off channel=9 note=53 velocity=80 time=0
EXTRACT: note_on channel=9 note=42 velocity=95 time=0
EXTRACT: note_on channel=9 note=53 velocity=63 time=0
EXTRACT: note_on channel=12 note=36 velocity=75 time=0
EXTRACT: pitchwheel channel=1 pitch=0 time=0.09803916666666665
EXTRACT: pitchwheel channel=3 pitch=0 time=0
EXTRACT: note_off channel=2 note=58 velocity=80 time=0.049019583333333325
EXTRACT: pitchwheel channel=1 pitch=256 time=0.049019583333333325
EXTRACT: pitchwheel channel=3 pitch=256 time=0
EXTRACT: note_on channel=12 note=36 velocity=0 time=0.09068622916666666
EXTRACT: note_off channel=0 note=66 velocity=80 time=0.007352937499999999
EXTRACT: note_on channel=0 note=65 velocity=95 time=0
EXTRACT: note_off channel=10 note=62 velocity=80 time=0
EXTRACT: note_on channel=10 note=58 velocity=95 time=0
EXTRACT: pitchwheel channel=1 pitch=0 time=0
EXTRACT: note_on channel=2 note=63 velocity=86 time=0
EXTRACT: pitchwheel channel=3 pitch=0 time=0
EXTRACT: note_off channel=4 note=63 velocity=80 time=0
EXTRACT: note_on channel=4 note=63 velocity=95 time=0
EXTRACT: note_off channel=9 note=42 velocity=80 time=0
EXTRACT: note_off channel=9 note=53 velocity=80 time=0
EXTRACT: note_on channel=9 note=42 velocity=95 time=0
EXTRACT: note_on channel=9 note=36 velocity=95 time=0
EXTRACT: note_on channel=12 note=34 velocity=75 time=0
EXTRACT: pitchwheel channel=1 pitch=256 time=0.09803916666666665
EXTRACT: pitchwheel channel=3 pitch=256 time=0
EXTRACT: note_off channel=2 note=63 velocity=80 time=0.049019583333333325
EXTRACT: pitchwheel channel=1 pitch=0 time=0.049019583333333325
EXTRACT: pitchwheel channel=3 pitch=0 time=0
EXTRACT: note_on channel=12 note=34 velocity=0 time=0.09068622916666666
EXTRACT: note_off channel=0 note=65 velocity=80 time=0.007352937499999999
EXTRACT: note_on channel=0 note=63 velocity=95 time=0
EXTRACT: pitchwheel channel=1 pitch=256 time=0
EXTRACT: note_on channel=2 note=60 velocity=86 time=0
EXTRACT: pitchwheel channel=3 pitch=256 time=0
EXTRACT: note_off channel=4 note=63 velocity=80 time=0
EXTRACT: note_on channel=4 note=63 velocity=95 time=0
EXTRACT: note_off channel=5 note=67 velocity=80 time=0
EXTRACT: note_on channel=5 note=63 velocity=95 time=0
EXTRACT: note_off channel=9 note=42 velocity=80 time=0
EXTRACT: note_off channel=9 note=36 velocity=80 time=0
EXTRACT: note_on channel=9 note=42 velocity=95 time=0
EXTRACT: note_on channel=9 note=53 velocity=63 time=0
EXTRACT: note_on channel=12 note=34 velocity=75 time=0
EXTRACT: pitchwheel channel=1 pitch=0 time=0.09803916666666665
EXTRACT: pitchwheel channel=3 pitch=0 time=0
EXTRACT: note_off channel=2 note=60 velocity=80 time=0.049019583333333325
EXTRACT: pitchwheel channel=1 pitch=256 time=0.049019583333333325
EXTRACT: pitchwheel channel=3 pitch=256 time=0
EXTRACT: note_on channel=12 note=34 velocity=0 time=0.09068622916666666
EXTRACT: pitchwheel channel=1 pitch=0 time=0.007352937499999999
EXTRACT: note_on channel=2 note=60 velocity=86 time=0
EXTRACT: pitchwheel channel=3 pitch=0 time=0
EXTRACT: note_off channel=4 note=70 velocity=80 time=0
EXTRACT: note_on channel=4 note=70 velocity=95 time=0
EXTRACT: note_off channel=5 note=63 velocity=80 time=0
EXTRACT: note_on channel=5 note=60 velocity=95 time=0
EXTRACT: note_off channel=9 note=42 velocity=80 time=0
EXTRACT: note_off channel=9 note=53 velocity=80 time=0
EXTRACT: note_on channel=9 note=42 velocity=95 time=0
EXTRACT: note_on channel=9 note=38 velocity=95 time=0
EXTRACT: note_on channel=9 note=53 velocity=63 time=0
EXTRACT: note_on channel=12 note=34 velocity=75 time=0
EXTRACT: pitchwheel channel=1 pitch=256 time=0.09803916666666665
EXTRACT: pitchwheel channel=3 pitch=256 time=0
EXTRACT: note_off channel=2 note=60 velocity=80 time=0.049019583333333325
EXTRACT: pitchwheel channel=1 pitch=0 time=0.049019583333333325
EXTRACT: pitchwheel channel=3 pitch=0 time=0
EXTRACT: note_on channel=12 note=34 velocity=0 time=0.09068622916666666
EXTRACT: note_off channel=0 note=63 velocity=80 time=0.007352937499999999
EXTRACT: note_on channel=0 note=66 velocity=95 time=0
EXTRACT: pitchwheel channel=1 pitch=256 time=0
EXTRACT: note_on channel=2 note=63 velocity=86 time=0
EXTRACT: pitchwheel channel=3 pitch=256 time=0
EXTRACT: note_off channel=4 note=63 velocity=80 time=0
EXTRACT: note_on channel=4 note=63 velocity=95 time=0
EXTRACT: note_off channel=5 note=60 velocity=80 time=0
EXTRACT: note_on channel=5 note=68 velocity=95 time=0
EXTRACT: note_off channel=9 note=42 velocity=80 time=0
EXTRACT: note_off channel=9 note=38 velocity=80 time=0
EXTRACT: note_off channel=9 note=53 velocity=80 time=0
EXTRACT: note_on channel=9 note=42 velocity=95 time=0
EXTRACT: note_on channel=9 note=36 velocity=95 time=0
EXTRACT: note_on channel=9 note=53 velocity=63 time=0
EXTRACT: note_on channel=12 note=34 velocity=75 time=0
EXTRACT: pitchwheel channel=1 pitch=0 time=0.09803916666666665
EXTRACT: pitchwheel channel=3 pitch=0 time=0
EXTRACT: note_off channel=2 note=63 velocity=80 time=0.049019583333333325
EXTRACT: pitchwheel channel=1 pitch=256 time=0.049019583333333325
EXTRACT: pitchwheel channel=3 pitch=256 time=0
EXTRACT: note_on channel=10 note=64 velocity=95 time=0.024509791666666662
EXTRACT: note_on channel=12 note=34 velocity=0 time=0.06617643749999999
EXTRACT: note_off channel=10 note=64 velocity=80 time=0.004901958333333333
EXTRACT: note_off channel=0 note=66 velocity=80 time=0.0024509791666666664
EXTRACT: note_on channel=0 note=65 velocity=95 time=0
EXTRACT: note_off channel=10 note=58 velocity=80 time=0
EXTRACT: note_on channel=10 note=65 velocity=95 time=0
EXTRACT: pitchwheel channel=1 pitch=0 time=0
EXTRACT: note_on channel=2 note=60 velocity=86 time=0
EXTRACT: pitchwheel channel=3 pitch=0 time=0
EXTRACT: note_off channel=4 note=63 velocity=80 time=0
EXTRACT: note_on channel=4 note=63 velocity=95 time=0
EXTRACT: note_off channel=9 note=42 velocity=80 time=0
EXTRACT: note_off channel=9 note=36 velocity=80 time=0
EXTRACT: note_off channel=9 note=53 velocity=80 time=0
EXTRACT: note_on channel=9 note=42 velocity=95 time=0
EXTRACT: note_on channel=9 note=36 velocity=79 time=0
EXTRACT: note_on channel=9 note=38 velocity=79 time=0
EXTRACT: note_on channel=9 note=53 velocity=63 time=0
EXTRACT: note_on channel=12 note=34 velocity=75 time=0
EXTRACT: pitchwheel channel=1 pitch=256 time=0.09803916666666665
EXTRACT: pitchwheel channel=3 pitch=256 time=0
EXTRACT: note_off channel=2 note=60 velocity=80 time=0.049019583333333325
EXTRACT: pitchwheel channel=1 pitch=0 time=0.049019583333333325
EXTRACT: pitchwheel channel=3 pitch=0 time=0
EXTRACT: note_on channel=12 note=34 velocity=0 time=0.09068622916666666
EXTRACT: note_off channel=0 note=65 velocity=80 time=0.007352937499999999
EXTRACT: note_on channel=0 note=63 velocity=95 time=0
EXTRACT: pitchwheel channel=1 pitch=256 time=0
EXTRACT: note_on channel=2 note=60 velocity=86 time=0
EXTRACT: pitchwheel channel=3 pitch=256 time=0
EXTRACT: note_off channel=4 note=70 velocity=80 time=0
EXTRACT: note_on channel=4 note=70 velocity=95 time=0
EXTRACT: note_off channel=9 note=42 velocity=80 time=0
EXTRACT: note_off channel=9 note=36 velocity=80 time=0
EXTRACT: note_off channel=9 note=38 velocity=80 time=0
EXTRACT: note_off channel=9 note=53 velocity=80 time=0
EXTRACT: note_on channel=9 note=42 velocity=95 time=0
EXTRACT: note_on channel=9 note=36 velocity=95 time=0
EXTRACT: note_on channel=9 note=38 velocity=79 time=0
EXTRACT: note_on channel=9 note=53 velocity=95 time=0
EXTRACT: note_on channel=12 note=34 velocity=75 time=0
EXTRACT: pitchwheel channel=1 pitch=0 time=0.09803916666666665
EXTRACT: pitchwheel channel=3 pitch=0 time=0
EXTRACT: note_off channel=2 note=60 velocity=80 time=0.049019583333333325
EXTRACT: pitchwheel channel=1 pitch=256 time=0.049019583333333325
EXTRACT: pitchwheel channel=3 pitch=256 time=0
EXTRACT: note_on channel=12 note=34 velocity=0 time=0.09068622916666666
EXTRACT: pitchwheel channel=1 pitch=0 time=0.007352937499999999
EXTRACT: note_on channel=2 note=63 velocity=86 time=0
EXTRACT: pitchwheel channel=3 pitch=0 time=0
EXTRACT: note_off channel=4 note=63 velocity=80 time=0
EXTRACT: note_on channel=4 note=63 velocity=95 time=0
EXTRACT: note_off channel=9 note=42 velocity=80 time=0
EXTRACT: note_off channel=9 note=36 velocity=80 time=0
EXTRACT: note_off channel=9 note=38 velocity=80 time=0
EXTRACT: note_off channel=9 note=53 velocity=80 time=0
EXTRACT: note_on channel=9 note=57 velocity=127 time=0
EXTRACT: note_on channel=9 note=36 velocity=95 time=0
EXTRACT: note_on channel=9 note=38 velocity=95 time=0
EXTRACT: note_on channel=9 note=53 velocity=63 time=0
EXTRACT: note_on channel=12 note=34 velocity=75 time=0
EXTRACT: pitchwheel channel=1 pitch=256 time=0.09803916666666665
EXTRACT: pitchwheel channel=3 pitch=256 time=0
EXTRACT: note_off channel=2 note=63 velocity=80 time=0.049019583333333325
EXTRACT: pitchwheel channel=1 pitch=0 time=0.049019583333333325
EXTRACT: pitchwheel channel=3 pitch=0 time=0
EXTRACT: note_on channel=6 note=68 velocity=95 time=0.024509791666666662
EXTRACT: note_on channel=12 note=34 velocity=0 time=0.06617643749999999
EXTRACT: note_off channel=6 note=68 velocity=80 time=0.004901958333333333
EXTRACT: note_on channel=6 note=70 velocity=95 time=0.0024509791666666664
EXTRACT: note_off channel=1 note=70 velocity=80 time=0
EXTRACT: pitchwheel channel=1 pitch=256 time=0
EXTRACT: pitchwheel channel=1 pitch=0 time=0
EXTRACT: note_on channel=1 note=75 velocity=95 time=0
EXTRACT: note_on channel=2 note=60 velocity=86 time=0
EXTRACT: note_off channel=3 note=70 velocity=80 time=0
EXTRACT: pitchwheel channel=3 pitch=256 time=0
EXTRACT: pitchwheel channel=3 pitch=0 time=0
EXTRACT: note_on channel=3 note=75 velocity=95 time=0
EXTRACT: note_off channel=4 note=70 velocity=80 time=0
EXTRACT: note_on channel=4 note=70 velocity=95 time=0
EXTRACT: note_off channel=9 note=57 velocity=80 time=0
EXTRACT: note_off channel=9 note=36 velocity=80 time=0
EXTRACT: note_off channel=9 note=38 velocity=80 time=0
EXTRACT: note_off channel=9 note=53 velocity=80 time=0
EXTRACT: note_on channel=9 note=36 velocity=95 time=0
EXTRACT: note_on channel=12 note=34 velocity=75 time=0
EXTRACT: pitchwheel channel=1 pitch=640 time=0.14705875
EXTRACT: note_off channel=2 note=60 velocity=80 time=0
EXTRACT: pitchwheel channel=3 pitch=640 time=0
EXTRACT: pitchwheel channel=1 pitch=1408 time=0.049019583333333325
EXTRACT: pitchwheel channel=3 pitch=1408 time=0
EXTRACT: note_on channel=10 note=65 velocity=95 time=0.024509791666666662
EXTRACT: pitchwheel channel=1 pitch=2048 time=0.024509791666666662
EXTRACT: pitchwheel channel=3 pitch=2048 time=0
EXTRACT: note_on channel=12 note=34 velocity=0 time=0.04166664583333333
EXTRACT: note_off channel=10 note=65 velocity=80 time=0.004901958333333333
EXTRACT: note_off channel=0 note=63 velocity=80 time=0.0024509791666666664
EXTRACT: note_on channel=10 note=67 velocity=95 time=0
EXTRACT: note_off channel=10 note=65 velocity=80 time=0
EXTRACT: note_on channel=10 note=63 velocity=95 time=0
EXTRACT: pitchwheel channel=1 pitch=2688 time=0
EXTRACT: note_on channel=2 note=63 velocity=86 time=0
EXTRACT: pitchwheel channel=3 pitch=2688 time=0
EXTRACT: note_off channel=4 note=63 velocity=80 time=0
EXTRACT: note_on channel=4 note=63 velocity=95 time=0
EXTRACT: note_off channel=5 note=68 velocity=80 time=0
EXTRACT: note_off channel=9 note=36 velocity=80 time=0
EXTRACT: note_on channel=9 note=49 velocity=127 time=0
EXTRACT: note_on channel=9 note=36 velocity=95 time=0
EXTRACT: note_on channel=12 note=39 velocity=75 time=0
EXTRACT: pitchwheel channel=1 pitch=2688 time=0.09803916666666665
EXTRACT: pitchwheel channel=3 pitch=2688 time=0
EXTRACT: note_off channel=2 note=63 velocity=80 time=0.049019583333333325
EXTRACT: pitchwheel channel=1 pitch=2944 time=0.049019583333333325
EXTRACT: pitchwheel channel=3 pitch=2944 time=0
EXTRACT: pitchwheel channel=1 pitch=2688 time=0.09803916666666665
EXTRACT: note_on channel=2 note=58 velocity=86 time=0
EXTRACT: pitchwheel channel=3 pitch=2688 time=0
EXTRACT: note_off channel=4 note=63 velocity=80 time=0
EXTRACT: note_on channel=4 note=63 velocity=95 time=0
EXTRACT: note_on channel=5 note=63 velocity=95 time=0
EXTRACT: note_off channel=9 note=49 velocity=80 time=0
EXTRACT: note_off channel=9 note=36 velocity=80 time=0
EXTRACT: note_on channel=9 note=42 velocity=95 time=0
EXTRACT: note_on channel=9 note=53 velocity=63 time=0
EXTRACT: pitchwheel channel=1 pitch=2944 time=0.09803916666666665
EXTRACT: pitchwheel channel=3 pitch=2944 time=0
EXTRACT: note_off channel=2 note=58 velocity=80 time=0.049019583333333325
EXTRACT: pitchwheel channel=1 pitch=2688 time=0.049019583333333325
EXTRACT: pitchwheel channel=3 pitch=2688 time=0
EXTRACT: note_on channel=12 note=39 velocity=0 time=0
EXTRACT: note_on channel=0 note=63 velocity=95 time=0.09803916666666665
EXTRACT: pitchwheel channel=1 pitch=2944 time=0
EXTRACT: note_on channel=2 note=58 velocity=86 time=0
EXTRACT: pitchwheel channel=3 pitch=2944 time=0
EXTRACT: note_off channel=4 note=70 velocity=80 time=0
EXTRACT: note_on channel=4 note=70 velocity=95 time=0
EXTRACT: note_off channel=5 note=63 velocity=80 time=0
EXTRACT: note_on channel=5 note=58 velocity=95 time=0
EXTRACT: note_off channel=9 note=42 velocity=80 time=0
EXTRACT: note_off channel=9 note=53 velocity=80 time=0
EXTRACT: note_on channel=9 note=42 velocity=79 time=0
EXTRACT: note_on channel=9 note=38 velocity=95 time=0
EXTRACT: note_on channel=9 note=53 velocity=63 time=0
EXTRACT: note_on channel=12 note=39 velocity=75 time=0
EXTRACT: pitchwheel channel=1 pitch=2688 time=0.09803916666666665
EXTRACT: pitchwheel channel=3 pitch=2688 time=0
EXTRACT: note_off channel=2 note=58 velocity=80 time=0.049019583333333325
EXTRACT: pitchwheel channel=1 pitch=2944 time=0.049019583333333325
EXTRACT: pitchwheel channel=3 pitch=2944 time=0
EXTRACT: note_on channel=12 note=39 velocity=0 time=0.09068622916666666
EXTRACT: note_off channel=0 note=63 velocity=80 time=0.007352937499999999
EXTRACT: note_on channel=0 note=63 velocity=95 time=0
EXTRACT: pitchwheel channel=1 pitch=2688 time=0
EXTRACT: note_on channel=2 note=63 velocity=86 time=0
EXTRACT: pitchwheel channel=3 pitch=2688 time=0
EXTRACT: note_off channel=4 note=63 velocity=80 time=0
EXTRACT: note_on channel=4 note=63 velocity=95 time=0
EXTRACT: note_off channel=5 note=58 velocity=80 time=0
EXTRACT: note_on channel=5 note=65 velocity=95 time=0
EXTRACT: note_off channel=9 note=42 velocity=80 time=0
EXTRACT: note_off channel=9 note=38 velocity=80 time=0
EXTRACT: note_off channel=9 note=53 velocity=80 time=0
EXTRACT: note_on channel=9 note=42 velocity=79 time=0
EXTRACT: note_on channel=9 note=53 velocity=63 time=0
EXTRACT: note_on channel=12 note=39 velocity=75 time=0
EXTRACT: pitchwheel channel=1 pitch=2944 time=0.09803916666666665
EXTRACT: pitchwheel channel=3 pitch=2944 time=0
EXTRACT: note_off channel=2 note=63 velocity=80 time=0.049019583333333325
EXTRACT: pitchwheel channel=1 pitch=2688 time=0.049019583333333325
EXTRACT: pitchwheel channel=3 pitch=2688 time=0
EXTRACT: note_on channel=12 note=39 velocity=0 time=0.09068622916666666
EXTRACT: note_off channel=0 note=63 velocity=80 time=0.007352937499999999
EXTRACT: note_on channel=0 note=63 velocity=95 time=0
EXTRACT: note_off channel=10 note=67 velocity=80 time=0
EXTRACT: note_on channel=10 note=63 velocity=95 time=0
EXTRACT: pitchwheel channel=1 pitch=2944 time=0
EXTRACT: note_on channel=2 note=58 velocity=86 time=0
EXTRACT: pitchwheel channel=3 pitch=2944 time=0
EXTRACT: note_off channel=4 note=63 velocity=80 time=0
EXTRACT: note_on channel=4 note=63 velocity=95 time=0
EXTRACT: note_off channel=9 note=42 velocity=80 time=0
EXTRACT: note_off channel=9 note=53 velocity=80 time=0
EXTRACT: note_on channel=9 note=42 velocity=79 time=0
EXTRACT: note_on channel=9 note=36 velocity=95 time=0
EXTRACT: note_on channel=9 note=53 velocity=63 time=0
EXTRACT: note_on channel=12 note=39 velocity=75 time=0
EXTRACT: pitchwheel channel=1 pitch=2688 time=0.09803916666666665
EXTRACT: pitchwheel channel=3 pitch=2688 time=0
EXTRACT: note_off channel=2 note=58 velocity=80 time=0.049019583333333325
EXTRACT: pitchwheel channel=1 pitch=2944 time=0.049019583333333325
EXTRACT: pitchwheel channel=3 pitch=2944 time=0
EXTRACT: note_on channel=12 note=39 velocity=0 time=0.09068622916666666
EXTRACT: pitchwheel channel=1 pitch=2688 time=0.007352937499999999
EXTRACT: note_on channel=2 note=58 velocity=86 time=0
EXTRACT: pitchwheel channel=3 pitch=2688 time=0
EXTRACT: note_off channel=4 note=70 velocity=80 time=0
EXTRACT: note_on channel=4 note=70 velocity=95 time=0
EXTRACT: note_off channel=9 note=42 velocity=80 time=0
EXTRACT: note_off channel=9 note=36 velocity=80 time=0
EXTRACT: note_off channel=9 note=53 velocity=80 time=0
EXTRACT: note_on channel=9 note=42 velocity=79 time=0
EXTRACT: note_on channel=9 note=36 velocity=95 time=0
EXTRACT: note_on channel=9 note=53 velocity=63 time=0
EXTRACT: note_on channel=12 note=39 velocity=75 time=0
EXTRACT: pitchwheel channel=1 pitch=2944 time=0.09803916666666665
EXTRACT: pitchwheel channel=3 pitch=2944 time=0
EXTRACT: note_off channel=2 note=58 velocity=80 time=0.049019583333333325
EXTRACT: pitchwheel channel=1 pitch=2688 time=0.049019583333333325
EXTRACT: pitchwheel channel=3 pitch=2688 time=0
EXTRACT: note_on channel=12 note=39 velocity=0 time=0.09068622916666666
EXTRACT: note_off channel=0 note=63 velocity=80 time=0.007352937499999999
EXTRACT: note_on channel=0 note=63 velocity=95 time=0
EXTRACT: pitchwheel channel=1 pitch=2944 time=0
EXTRACT: note_on channel=2 note=63 velocity=86 time=0
EXTRACT: pitchwheel channel=3 pitch=2944 time=0
EXTRACT: note_off channel=4 note=63 velocity=80 time=0
EXTRACT: note_on channel=4 note=63 velocity=95 time=0
EXTRACT: note_off channel=9 note=42 velocity=80 time=0
EXTRACT: note_off channel=9 note=36 velocity=80 time=0
EXTRACT: note_off channel=9 note=53 velocity=80 time=0
EXTRACT: note_on channel=9 note=42 velocity=79 time=0
EXTRACT: note_on channel=9 note=38 velocity=95 time=0
EXTRACT: note_on channel=9 note=53 velocity=63 time=0
EXTRACT: note_on channel=12 note=39 velocity=75 time=0
EXTRACT: pitchwheel channel=1 pitch=2688 time=0.09803916666666665
EXTRACT: pitchwheel channel=3 pitch=2688 time=0
EXTRACT: note_off channel=2 note=63 velocity=80 time=0.049019583333333325
EXTRACT: pitchwheel channel=1 pitch=2944 time=0.049019583333333325
EXTRACT: pitchwheel channel=3 pitch=2944 time=0
EXTRACT: note_on channel=12 note=39 velocity=0 time=0.09068622916666666
EXTRACT: note_off channel=0 note=63 velocity=80 time=0.007352937499999999
EXTRACT: note_on channel=0 note=63 velocity=95 time=0
EXTRACT: note_off channel=1 note=75 velocity=80 time=0
EXTRACT: pitchwheel channel=1 pitch=0 time=0
EXTRACT: pitchwheel channel=1 pitch=2688 time=0
EXTRACT: pitchwheel channel=1 pitch=0 time=0
EXTRACT: note_on channel=1 note=75 velocity=86 time=0
EXTRACT: note_on channel=2 note=58 velocity=86 time=0
EXTRACT: note_off channel=3 note=75 velocity=80 time=0
EXTRACT: pitchwheel channel=3 pitch=0 time=0
EXTRACT: pitchwheel channel=3 pitch=2688 time=0
EXTRACT: pitchwheel channel=3 pitch=0 time=0
EXTRACT: note_on channel=3 note=75 velocity=86 time=0
EXTRACT: note_off channel=4 note=70 velocity=80 time=0
EXTRACT: note_on channel=4 note=70 velocity=95 time=0
EXTRACT: note_off channel=9 note=42 velocity=80 time=0
EXTRACT: note_off channel=9 note=38 velocity=80 time=0
EXTRACT: note_off channel=9 note=53 velocity=80 time=0
EXTRACT: note_on channel=9 note=42 velocity=79 time=0
EXTRACT: note_on channel=9 note=53 velocity=63 time=0
EXTRACT: note_on channel=12 note=39 velocity=75 time=0
EXTRACT: pitchwheel channel=1 pitch=640 time=0.14705875
EXTRACT: note_off channel=2 note=58 velocity=80 time=0
EXTRACT: pitchwheel channel=3 pitch=640 time=0
EXTRACT: pitchwheel channel=1 pitch=1408 time=0.0367646875
EXTRACT: pitchwheel channel=3 pitch=1408 time=0
EXTRACT: pitchwheel channel=1 pitch=2048 time=0.0367646875
EXTRACT: pitchwheel channel=3 pitch=2048 time=0
EXTRACT: pitchwheel channel=1 pitch=2688 time=0.0367646875
EXTRACT: pitchwheel channel=3 pitch=2688 time=0
EXTRACT: note_on channel=12 note=39 velocity=0 time=0.029411749999999997
EXTRACT: note_off channel=0 note=63 velocity=80 time=0.007352937499999999
EXTRACT: note_on channel=0 note=62 velocity=95 time=0
EXTRACT: note_off channel=10 note=63 velocity=80 time=0
EXTRACT: note_on channel=10 note=58 velocity=95 time=0
EXTRACT: note_off channel=10 note=63 velocity=80 time=0
EXTRACT: pitchwheel channel=1 pitch=3456 time=0
EXTRACT: note_on channel=2 note=62 velocity=86 time=0
EXTRACT: pitchwheel channel=3 pitch=3456 time=0
EXTRACT: note_off channel=4 note=63 velocity=80 time=0
EXTRACT: note_on channel=4 note=63 velocity=95 time=0
EXTRACT: note_off channel=9 note=42 velocity=80 time=0
EXTRACT: note_off channel=9 note=53 velocity=80 time=0
EXTRACT: note_on channel=9 note=42 velocity=95 time=0
EXTRACT: note_on channel=9 note=36 velocity=95 time=0
EXTRACT: note_on channel=12 note=34 velocity=75 time=0
EXTRACT: pitchwheel channel=1 pitch=3456 time=0.09803916666666665
EXTRACT: pitchwheel channel=3 pitch=3456 time=0
EXTRACT: note_off channel=2 note=62 velocity=80 time=0.049019583333333325
EXTRACT: pitchwheel channel=1 pitch=3712 time=0.049019583333333325
EXTRACT: pitchwheel channel=3 pitch=3712 time=0
EXTRACT: note_off channel=0 note=62 velocity=80 time=0.09803916666666665
EXTRACT: note_on channel=0 note=63 velocity=95 time=0
EXTRACT: note_off channel=6 note=70 velocity=80 time=0
EXTRACT: pitchwheel channel=1 pitch=3456 time=0
EXTRACT: note_on channel=2 note=58 velocity=86 time=0
EXTRACT: pitchwheel channel=3 pitch=3456 time=0
EXTRACT: note_off channel=4 note=63 velocity=80 time=0
EXTRACT: note_on channel=4 note=63 velocity=95 time=0
EXTRACT: note_off channel=5 note=65 velocity=80 time=0
EXTRACT: note_on channel=5 note=62 velocity=95 time=0
EXTRACT: note_off channel=9 note=42 velocity=80 time=0
EXTRACT: note_off channel=9 note=36 velocity=80 time=0
EXTRACT: note_on channel=9 note=42 velocity=95 time=0
EXTRACT: note_on channel=9 note=53 velocity=63 time=0
EXTRACT: pitchwheel channel=1 pitch=3712 time=0.09803916666666665
EXTRACT: pitchwheel channel=3 pitch=3712 time=0
EXTRACT: note_off channel=2 note=58 velocity=80 time=0.049019583333333325
EXTRACT: pitchwheel channel=1 pitch=3456 time=0.049019583333333325
EXTRACT: pitchwheel channel=3 pitch=3456 time=0
EXTRACT: note_on channel=12 note=34 velocity=0 time=0
EXTRACT: note_off channel=0 note=63 velocity=80 time=0.09803916666666665
EXTRACT: note_on channel=0 note=63 velocity=95 time=0
EXTRACT: pitchwheel channel=1 pitch=3712 time=0
EXTRACT: note_on channel=2 note=58 velocity=86 time=0
EXTRACT: pitchwheel channel=3 pitch=3712 time=0
EXTRACT: note_off channel=4 note=70 velocity=80 time=0
EXTRACT: note_on channel=4 note=70 velocity=95 time=0
EXTRACT: note_off channel=5 note=62 velocity=80 time=0
EXTRACT: note_on channel=5 note=58 velocity=95 time=0
EXTRACT: note_off channel=9 note=42 velocity=80 time=0
EXTRACT: note_off channel=9 note=53 velocity=80 time=0
EXTRACT: note_on channel=9 note=42 velocity=95 time=0
EXTRACT: note_on channel=9 note=38 velocity=95 time=0
EXTRACT: note_on channel=9 note=53 velocity=63 time=0
EXTRACT: note_on channel=12 note=34 velocity=75 time=0
EXTRACT: pitchwheel channel=1 pitch=3456 time=0.09803916666666665
EXTRACT: pitchwheel channel=3 pitch=3456 time=0
EXTRACT: note_off channel=2 note=58 velocity=80 time=0.049019583333333325
EXTRACT: pitchwheel channel=1 pitch=3712 time=0.049019583333333325
EXTRACT: pitchwheel channel=3 pitch=3712 time=0
EXTRACT: note_on channel=6 note=68 velocity=95 time=0.024509791666666662
EXTRACT: note_on channel=12 note=34 velocity=0 time=0.06617643749999999
EXTRACT: note_off channel=6 note=68 velocity=80 time=0.004901958333333333
EXTRACT: note_off channel=0 note=63 velocity=80 time=0.0024509791666666664
EXTRACT: note_on channel=0 note=63 velocity=95 time=0
EXTRACT: note_on channel=6 note=70 velocity=95 time=0
EXTRACT: pitchwheel channel=1 pitch=3456 time=0
EXTRACT: note_on channel=2 note=63 velocity=86 time=0
EXTRACT: pitchwheel channel=3 pitch=3456 time=0
EXTRACT: note_off channel=4 note=63 velocity=80 time=0
EXTRACT: note_on channel=4 note=63 velocity=95 time=0
EXTRACT: note_off channel=5 note=58 velocity=80 time=0
EXTRACT: note_on channel=5 note=65 velocity=95 time=0
EXTRACT: note_off channel=9 note=42 velocity=80 time=0
EXTRACT: note_off channel=9 note=38 velocity=80 time=0
EXTRACT: note_off channel=9 note=53 velocity=80 time=0
EXTRACT: note_on channel=9 note=42 velocity=95 time=0
EXTRACT: note_on channel=9 note=53 velocity=63 time=0
EXTRACT: note_on channel=12 note=34 velocity=75 time=0
EXTRACT: pitchwheel channel=1 pitch=3712 time=0.09803916666666665
EXTRACT: pitchwheel channel=3 pitch=3712 time=0
EXTRACT: note_off channel=2 note=63 velocity=80 time=0.049019583333333325
EXTRACT: pitchwheel channel=1 pitch=3456 time=0.049019583333333325
EXTRACT: pitchwheel channel=3 pitch=3456 time=0
EXTRACT: note_on channel=10 note=64 velocity=95 time=0.024509791666666662
EXTRACT: note_on channel=12 note=34 velocity=0 time=0.06617643749999999
EXTRACT: note_off channel=10 note=64 velocity=80 time=0.004901958333333333
EXTRACT: note_off channel=6 note=70 velocity=80 time=0.0024509791666666664
EXTRACT: note_on channel=6 note=70 velocity=95 time=0
EXTRACT: note_off channel=10 note=58 velocity=80 time=0
EXTRACT: note_on channel=10 note=65 velocity=95 time=0
EXTRACT: pitchwheel channel=1 pitch=3712 time=0
EXTRACT: note_on channel=2 note=58 velocity=86 time=0
EXTRACT: pitchwheel channel=3 pitch=3712 time=0
EXTRACT: note_off channel=4 note=63 velocity=80 time=0
EXTRACT: note_on channel=4 note=63 velocity=95 time=0
EXTRACT: note_off channel=9 note=42 velocity=80 time=0
EXTRACT: note_off channel=9 note=53 velocity=80 time=0
EXTRACT: note_on channel=9 note=42 velocity=95 time=0
EXTRACT: note_on channel=9 note=36 velocity=95 time=0
EXTRACT: note_on channel=9 note=53 velocity=63 time=0
EXTRACT: note_on channel=12 note=34 velocity=75 time=0
EXTRACT: pitchwheel channel=1 pitch=3456 time=0.09803916666666665
EXTRACT: pitchwheel channel=3 pitch=3456 time=0
EXTRACT: note_off channel=2 note=58 velocity=80 time=0.049019583333333325
EXTRACT: pitchwheel channel=1 pitch=3712 time=0.049019583333333325
EXTRACT: pitchwheel channel=3 pitch=3712 time=0
EXTRACT: note_on channel=12 note=34 velocity=0 time=0.09068622916666666
EXTRACT: note_off channel=6 note=70 velocity=80 time=0.007352937499999999
EXTRACT: note_on channel=6 note=68 velocity=95 time=0
EXTRACT: pitchwheel channel=1 pitch=3456 time=0
EXTRACT: note_on channel=2 note=58 velocity=86 time=0
EXTRACT: pitchwheel channel=3 pitch=3456 time=0
EXTRACT: note_off channel=4 note=70 velocity=80 time=0
EXTRACT: note_on channel=4 note=70 velocity=95 time=0
EXTRACT: note_off channel=9 note=42 velocity=80 time=0
EXTRACT: note_off channel=9 note=36 velocity=80 time=0
EXTRACT: note_off channel=9 note=53 velocity=80 time=0
EXTRACT: note_on channel=9 note=42 velocity=95 time=0
EXTRACT: note_on channel=9 note=36 velocity=95 time=0
EXTRACT: note_on channel=9 note=53 velocity=63 time=0
EXTRACT: note_on channel=12 note=34 velocity=75 time=0
EXTRACT: pitchwheel channel=1 pitch=3712 time=0.09803916666666665
EXTRACT: pitchwheel channel=3 pitch=3712 time=0
EXTRACT: note_off channel=2 note=58 velocity=80 time=0.049019583333333325
EXTRACT: pitchwheel channel=1 pitch=3456 time=0.049019583333333325
EXTRACT: pitchwheel channel=3 pitch=3456 time=0
EXTRACT: note_on channel=12 note=34 velocity=0 time=0.09068622916666666
EXTRACT: note_off channel=0 note=63 velocity=80 time=0.007352937499999999
EXTRACT: pitchwheel channel=1 pitch=3712 time=0
EXTRACT: note_on channel=2 note=62 velocity=86 time=0
EXTRACT: pitchwheel channel=3 pitch=3712 time=0
EXTRACT: note_off channel=4 note=63 velocity=80 time=0
EXTRACT: note_on channel=4 note=63 velocity=95 time=0
EXTRACT: note_off channel=9 note=42 velocity=80 time=0
EXTRACT: note_off channel=9 note=36 velocity=80 time=0
EXTRACT: note_off channel=9 note=53 velocity=80 time=0
EXTRACT: note_on channel=9 note=42 velocity=95 time=0
EXTRACT: note_on channel=9 note=38 velocity=95 time=0
EXTRACT: note_on channel=9 note=53 velocity=63 time=0
EXTRACT: note_on channel=12 note=34 velocity=75 time=0
EXTRACT: pitchwheel channel=1 pitch=3456 time=0.09803916666666665
EXTRACT: pitchwheel channel=3 pitch=3456 time=0
EXTRACT: note_off channel=2 note=62 velocity=80 time=0.049019583333333325
EXTRACT: pitchwheel channel=1 pitch=3712 time=0.049019583333333325
EXTRACT: pitchwheel channel=3 pitch=3712 time=0
EXTRACT: note_on channel=1 note=80 velocity=95 time=0.024509791666666662
EXTRACT: note_on channel=3 note=80 velocity=95 time=0
EXTRACT: note_on channel=12 note=34 velocity=0 time=0.06617643749999999
EXTRACT: note_off channel=1 note=80 velocity=80 time=0.004901958333333333
EXTRACT: note_off channel=3 note=80 velocity=80 time=0
EXTRACT: note_off channel=6 note=68 velocity=80 time=0.0024509791666666664
EXTRACT: note_on channel=6 note=67 velocity=95 time=0
EXTRACT: note_off channel=1 note=75 velocity=80 time=0
EXTRACT: pitchwheel channel=1 pitch=0 time=0
EXTRACT: pitchwheel channel=1 pitch=3456 time=0
EXTRACT: pitchwheel channel=1 pitch=0 time=0
EXTRACT: note_on channel=1 note=82 velocity=86 time=0
EXTRACT: note_on channel=2 note=58 velocity=86 time=0
EXTRACT: note_off channel=3 note=75 velocity=80 time=0
EXTRACT: pitchwheel channel=3 pitch=0 time=0
EXTRACT: pitchwheel channel=3 pitch=3456 time=0
EXTRACT: pitchwheel channel=3 pitch=0 time=0
EXTRACT: note_on channel=3 note=82 velocity=86 time=0
EXTRACT: note_off channel=4 note=70 velocity=80 time=0
EXTRACT: note_on channel=4 note=70 velocity=95 time=0
EXTRACT: note_off channel=9 note=42 velocity=80 time=0
EXTRACT: note_off channel=9 note=38 velocity=80 time=0
EXTRACT: note_off channel=9 note=53 velocity=80 time=0
EXTRACT: note_on channel=9 note=42 velocity=95 time=0
EXTRACT: note_on channel=9 note=53 velocity=63 time=0
EXTRACT: note_on channel=12 note=34 velocity=75 time=0
EXTRACT: pitchwheel channel=1 pitch=0 time=0.09803916666666665
EXTRACT: pitchwheel channel=3 pitch=0 time=0
EXTRACT: note_off channel=6 note=67 velocity=80 time=0.049019583333333325
EXTRACT: note_on channel=6 note=68 velocity=95 time=0
EXTRACT: note_off channel=2 note=58 velocity=80 time=0
EXTRACT: pitchwheel channel=1 pitch=256 time=0.049019583333333325
EXTRACT: pitchwheel channel=3 pitch=256 time=0
EXTRACT: note_on channel=12 note=34 velocity=0 time=0.09068622916666666
EXTRACT: note_off channel=6 note=68 velocity=80 time=0.007352937499999999
EXTRACT: note_on channel=6 note=67 velocity=95 time=0
EXTRACT: note_off channel=10 note=65 velocity=80 time=0
EXTRACT: note_on channel=10 note=63 velocity=95 time=0
EXTRACT: pitchwheel channel=1 pitch=0 time=0
EXTRACT: note_on channel=2 note=63 velocity=86 time=0
EXTRACT: pitchwheel channel=3 pitch=0 time=0
EXTRACT: note_off channel=4 note=63 velocity=80 time=0
EXTRACT: note_on channel=4 note=63 velocity=95 time=0
EXTRACT: note_off channel=5 note=65 velocity=80 time=0
EXTRACT: note_off channel=9 note=42 velocity=80 time=0
EXTRACT: note_off channel=9 note=53 velocity=80 time=0
EXTRACT: note_on channel=9 note=42 velocity=95 time=0
EXTRACT: note_on channel=9 note=36 velocity=95 time=0
EXTRACT: note_on channel=12 note=36 velocity=75 time=0
EXTRACT: pitchwheel channel=1 pitch=256 time=0.09803916666666665
EXTRACT: pitchwheel channel=3 pitch=256 time=0
EXTRACT: note_off channel=2 note=63 velocity=80 time=0.049019583333333325
EXTRACT: pitchwheel channel=1 pitch=0 time=0.049019583333333325
EXTRACT: pitchwheel channel=3 pitch=0 time=0
EXTRACT: note_on channel=0 note=63 velocity=95 time=0.09803916666666665
EXTRACT: pitchwheel channel=1 pitch=256 time=0
EXTRACT: note_on channel=2 note=58 velocity=86 time=0
EXTRACT: pitchwheel channel=3 pitch=256 time=0
EXTRACT: note_off channel=4 note=63 velocity=80 time=0
EXTRACT: note_on channel=4 note=63 velocity=95 time=0
EXTRACT: note_on channel=5 note=63 velocity=95 time=0
EXTRACT: note_off channel=9 note=42 velocity=80 time=0
EXTRACT: note_off channel=9 note=36 velocity=80 time=0
EXTRACT: note_on channel=9 note=42 velocity=95 time=0
EXTRACT: note_on channel=9 note=53 velocity=63 time=0
EXTRACT: pitchwheel channel=1 pitch=0 time=0.09803916666666665
EXTRACT: pitchwheel channel=3 pitch=0 time=0
EXTRACT: note_off channel=2 note=58 velocity=80 time=0.049019583333333325
EXTRACT: pitchwheel channel=1 pitch=256 time=0.049019583333333325
EXTRACT: pitchwheel channel=3 pitch=256 time=0
EXTRACT: note_on channel=12 note=36 velocity=0 time=0
EXTRACT: note_off channel=0 note=63 velocity=80 time=0.09803916666666665
EXTRACT: note_on channel=0 note=63 velocity=95 time=0
EXTRACT: pitchwheel channel=1 pitch=0 time=0
EXTRACT: note_on channel=2 note=58 velocity=86 time=0
EXTRACT: pitchwheel channel=3 pitch=0 time=0
EXTRACT: note_off channel=4 note=70 velocity=80 time=0
EXTRACT: note_on channel=4 note=70 velocity=95 time=0
EXTRACT: note_off channel=5 note=63 velocity=80 time=0
EXTRACT: note_on channel=5 note=58 velocity=95 time=0
EXTRACT: note_off channel=9 note=42 velocity=80 time=0
EXTRACT: note_off channel=9 note=53 velocity=80 time=0
EXTRACT: note_on channel=9 note=42 velocity=95 time=0
EXTRACT: note_on channel=9 note=38 velocity=95 time=0
EXTRACT: note_on channel=9 note=53 velocity=63 time=0
EXTRACT: note_on channel=12 note=36 velocity=75 time=0
EXTRACT: pitchwheel channel=1 pitch=256 time=0.09803916666666665
EXTRACT: pitchwheel channel=3 pitch=256 time=0
EXTRACT: note_off channel=2 note=58 velocity=80 time=0.049019583333333325
EXTRACT: pitchwheel channel=1 pitch=0 time=0.049019583333333325
EXTRACT: pitchwheel channel=3 pitch=0 time=0
EXTRACT: note_on channel=12 note=36 velocity=0 time=0.09068622916666666
EXTRACT: note_off channel=0 note=63 velocity=80 time=0.007352937499999999
EXTRACT: note_on channel=0 note=63 velocity=95 time=0
EXTRACT: pitchwheel channel=1 pitch=256 time=0
EXTRACT: note_on channel=2 note=63 velocity=86 time=0
EXTRACT: pitchwheel channel=3 pitch=256 time=0
EXTRACT: note_off channel=4 note=63 velocity=80 time=0
EXTRACT: note_on channel=4 note=63 velocity=95 time=0
EXTRACT: note_off channel=5 note=58 velocity=80 time=0
EXTRACT: note_on channel=5 note=67 velocity=95 time=0
EXTRACT: note_off channel=9 note=42 velocity=80 time=0
EXTRACT: note_off channel=9 note=38 velocity=80 time=0
EXTRACT: note_off channel=9 note=53 velocity=80 time=0
EXTRACT: note_on channel=9 note=42 velocity=95 time=0
EXTRACT: note_on channel=9 note=53 velocity=63 time=0
EXTRACT: note_on channel=12 note=36 velocity=75 time=0
EXTRACT: pitchwheel channel=1 pitch=0 time=0.09803916666666665
EXTRACT: pitchwheel channel=3 pitch=0 time=0
EXTRACT: note_off channel=2 note=63 velocity=80 time=0.049019583333333325
EXTRACT: pitchwheel channel=1 pitch=256 time=0.049019583333333325
EXTRACT: pitchwheel channel=3 pitch=256 time=0
EXTRACT: note_on channel=12 note=36 velocity=0 time=0.09068622916666666
EXTRACT: note_off channel=0 note=63 velocity=80 time=0.007352937499999999
EXTRACT: note_on channel=0 note=63 velocity=95 time=0
EXTRACT: note_off channel=10 note=63 velocity=80 time=0
EXTRACT: note_on channel=10 note=62 velocity=95 time=0
EXTRACT: pitchwheel channel=1 pitch=0 time=0
EXTRACT: note_on channel=2 note=58 velocity=86 time=0
EXTRACT: pitchwheel channel=3 pitch=0 time=0
EXTRACT: note_off channel=4 note=63 velocity=80 time=0
EXTRACT: note_on channel=4 note=63 velocity=95 time=0
EXTRACT: note_off channel=9 note=42 velocity=80 time=0
EXTRACT: note_off channel=9 note=53 velocity=80 time=0
EXTRACT: note_on channel=9 note=42 velocity=95 time=0
EXTRACT: note_on channel=9 note=36 velocity=95 time=0
EXTRACT: note_on channel=9 note=53 velocity=63 time=0
EXTRACT: note_on channel=12 note=36 velocity=75 time=0
EXTRACT: pitchwheel channel=1 pitch=256 time=0.09803916666666665
EXTRACT: pitchwheel channel=3 pitch=256 time=0
EXTRACT: note_off channel=2 note=58 velocity=80 time=0.049019583333333325
EXTRACT: pitchwheel channel=1 pitch=0 time=0.049019583333333325
EXTRACT: pitchwheel channel=3 pitch=0 time=0
EXTRACT: note_on channel=12 note=36 velocity=0 time=0.09068622916666666
EXTRACT: note_off channel=0 note=63 velocity=80 time=0.007352937499999999
EXTRACT: note_on channel=0 note=63 velocity=95 time=0
EXTRACT: pitchwheel channel=1 pitch=256 time=0
EXTRACT: note_on channel=2 note=58 velocity=86 time=0
EXTRACT: pitchwheel channel=3 pitch=256 time=0
EXTRACT: note_off channel=4 note=70 velocity=80 time=0
EXTRACT: note_on channel=4 note=70 velocity=95 time=0
EXTRACT: note_off channel=9 note=42 velocity=80 time=0
EXTRACT: note_off channel=9 note=36 velocity=80 time=0
EXTRACT: note_off channel=9 note=53 velocity=80 time=0
EXTRACT: note_on channel=9 note=42 velocity=95 time=0
EXTRACT: note_on channel=9 note=36 velocity=95 time=0
EXTRACT: note_on channel=9 note=53 velocity=63 time=0
EXTRACT: note_on channel=12 note=39 velocity=75 time=0
EXTRACT: pitchwheel channel=1 pitch=0 time=0.09803916666666665
EXTRACT: pitchwheel channel=3 pitch=0 time=0
EXTRACT: note_off channel=2 note=58 velocity=80 time=0.049019583333333325
EXTRACT: pitchwheel channel=1 pitch=256 time=0.049019583333333325
EXTRACT: pitchwheel channel=3 pitch=256 time=0
EXTRACT: note_on channel=12 note=39 velocity=0 time=0.09068622916666666
EXTRACT: note_off channel=0 note=63 velocity=80 time=0.007352937499999999
EXTRACT: note_on channel=0 note=63 velocity=95 time=0
EXTRACT: note_off channel=6 note=67 velocity=80 time=0
EXTRACT: pitchwheel channel=1 pitch=0 time=0
EXTRACT: note_on channel=2 note=63 velocity=86 time=0
EXTRACT: pitchwheel channel=3 pitch=0 time=0
EXTRACT: note_off channel=4 note=63 velocity=80 time=0
EXTRACT: note_on channel=4 note=63 velocity=95 time=0
EXTRACT: note_off channel=9 note=42 velocity=80 time=0
EXTRACT: note_off channel=9 note=36 velocity=80 time=0
EXTRACT: note_off channel=9 note=53 velocity=80 time=0
EXTRACT: note_on channel=9 note=42 velocity=95 time=0
EXTRACT: note_on channel=9 note=38 velocity=95 time=0
EXTRACT: note_on channel=9 note=53 velocity=63 time=0
EXTRACT: note_on channel=12 note=38 velocity=75 time=0
EXTRACT: pitchwheel channel=1 pitch=256 time=0.09803916666666665
EXTRACT: pitchwheel channel=3 pitch=256 time=0
EXTRACT: note_off channel=2 note=63 velocity=80 time=0.049019583333333325
EXTRACT: pitchwheel channel=1 pitch=0 time=0.049019583333333325
EXTRACT: pitchwheel channel=3 pitch=0 time=0
EXTRACT: note_on channel=1 note=77 velocity=95 time=0.024509791666666662
EXTRACT: note_on channel=3 note=77 velocity=95 time=0
EXTRACT: note_on channel=12 note=38 velocity=0 time=0.06617643749999999
EXTRACT: note_off channel=1 note=77 velocity=80 time=0.004901958333333333
EXTRACT: note_off channel=3 note=77 velocity=80 time=0
EXTRACT: note_off channel=0 note=63 velocity=80 time=0.0024509791666666664
EXTRACT: note_on channel=0 note=63 velocity=95 time=0
EXTRACT: note_off channel=1 note=82 velocity=80 time=0
EXTRACT: pitchwheel channel=1 pitch=256 time=0
EXTRACT: pitchwheel channel=1 pitch=0 time=0
EXTRACT: note_on channel=1 note=80 velocity=95 time=0
EXTRACT: note_on channel=2 note=58 velocity=86 time=0
EXTRACT: note_off channel=3 note=82 velocity=80 time=0
EXTRACT: pitchwheel channel=3 pitch=256 time=0
EXTRACT: pitchwheel channel=3 pitch=0 time=0
EXTRACT: note_on channel=3 note=80 velocity=95 time=0
EXTRACT: note_off channel=4 note=70 velocity=80 time=0
EXTRACT: note_on channel=4 note=70 velocity=95 time=0
EXTRACT: note_off channel=9 note=42 velocity=80 time=0
EXTRACT: note_off channel=9 note=38 velocity=80 time=0
EXTRACT: note_off channel=9 note=53 velocity=80 time=0
EXTRACT: note_on channel=9 note=42 velocity=95 time=0
EXTRACT: note_on channel=9 note=53 velocity=63 time=0
EXTRACT: note_on channel=12 note=36 velocity=75 time=0
EXTRACT: pitchwheel channel=1 pitch=0 time=0.09803916666666665
EXTRACT: pitchwheel channel=3 pitch=0 time=0
EXTRACT: note_off channel=2 note=58 velocity=80 time=0.049019583333333325
EXTRACT: pitchwheel channel=1 pitch=256 time=0.049019583333333325
EXTRACT: pitchwheel channel=3 pitch=256 time=0
EXTRACT: note_on channel=12 note=36 velocity=0 time=0.09068622916666666
EXTRACT: note_off channel=0 note=63 velocity=80 time=0.007352937499999999
EXTRACT: note_on channel=0 note=62 velocity=95 time=0
EXTRACT: note_off channel=10 note=62 velocity=80 time=0
EXTRACT: note_on channel=10 note=58 velocity=95 time=0
EXTRACT: pitchwheel channel=1 pitch=0 time=0
EXTRACT: note_on channel=2 note=63 velocity=86 time=0
EXTRACT: pitchwheel channel=3 pitch=0 time=0
EXTRACT: note_off channel=4 note=63 velocity=80 time=0
EXTRACT: note_on channel=4 note=63 velocity=95 time=0
EXTRACT: note_off channel=9 note=42 velocity=80 time=0
EXTRACT: note_off channel=9 note=53 velocity=80 time=0
EXTRACT: note_on channel=9 note=42 velocity=95 time=0
EXTRACT: note_on channel=9 note=36 velocity=95 time=0
EXTRACT: note_on channel=12 note=32 velocity=75 time=0
EXTRACT: pitchwheel channel=1 pitch=256 time=0.09803916666666665
EXTRACT: pitchwheel channel=3 pitch=256 time=0
EXTRACT: note_off channel=2 note=63 velocity=80 time=0.049019583333333325
EXTRACT: pitchwheel channel=1 pitch=0 time=0.049019583333333325
EXTRACT: pitchwheel channel=3 pitch=0 time=0
EXTRACT: pitchwheel channel=1 pitch=256 time=0.09803916666666665
EXTRACT: note_on channel=2 note=60 velocity=86 time=0
EXTRACT: pitchwheel channel=3 pitch=256 time=0
EXTRACT: note_off channel=4 note=63 velocity=80 time=0
EXTRACT: note_on channel=4 note=63 velocity=95 time=0
EXTRACT: note_off channel=5 note=67 velocity=80 time=0
EXTRACT: note_on channel=5 note=63 velocity=95 time=0
EXTRACT: note_off channel=9 note=42 velocity=80 time=0
EXTRACT: note_off channel=9 note=36 velocity=80 time=0
EXTRACT: note_on channel=9 note=42 velocity=95 time=0
EXTRACT: note_on channel=9 note=53 velocity=63 time=0
EXTRACT: pitchwheel channel=1 pitch=0 time=0.09803916666666665
EXTRACT: pitchwheel channel=3 pitch=0 time=0
EXTRACT: note_off channel=0 note=62 velocity=80 time=0.049019583333333325
EXTRACT: note_on channel=0 note=63 velocity=95 time=0
EXTRACT: note_off channel=2 note=60 velocity=80 time=0
EXTRACT: pitchwheel channel=1 pitch=256 time=0.049019583333333325
EXTRACT: pitchwheel channel=3 pitch=256 time=0
EXTRACT: note_on channel=12 note=32 velocity=0 time=0
EXTRACT: pitchwheel channel=1 pitch=0 time=0.09803916666666665
EXTRACT: note_on channel=2 note=60 velocity=86 time=0
EXTRACT: pitchwheel channel=3 pitch=0 time=0
EXTRACT: note_off channel=4 note=70 velocity=80 time=0
EXTRACT: note_on channel=4 note=70 velocity=95 time=0
EXTRACT: note_off channel=5 note=63 velocity=80 time=0
EXTRACT: note_on channel=5 note=60 velocity=95 time=0
EXTRACT: note_off channel=9 note=42 velocity=80 time=0
EXTRACT: note_off channel=9 note=53 velocity=80 time=0
EXTRACT: note_on channel=9 note=42 velocity=95 time=0
EXTRACT: note_on channel=9 note=38 velocity=95 time=0
EXTRACT: note_on channel=9 note=53 velocity=63 time=0
EXTRACT: note_on channel=12 note=32 velocity=75 time=0
EXTRACT: pitchwheel channel=1 pitch=256 time=0.09803916666666665
EXTRACT: pitchwheel channel=3 pitch=256 time=0
EXTRACT: note_off channel=2 note=60 velocity=80 time=0.049019583333333325
EXTRACT: pitchwheel channel=1 pitch=0 time=0.049019583333333325
EXTRACT: pitchwheel channel=3 pitch=0 time=0
EXTRACT: note_on channel=0 note=64 velocity=95 time=0.024509791666666662
EXTRACT: note_on channel=12 note=32 velocity=0 time=0.06617643749999999
EXTRACT: note_off channel=0 note=64 velocity=80 time=0.004901958333333333
EXTRACT: note_off channel=0 note=63 velocity=80 time=0.0024509791666666664
EXTRACT: note_on channel=0 note=65 velocity=95 time=0
EXTRACT: pitchwheel channel=1 pitch=256 time=0
EXTRACT: note_on channel=2 note=63 velocity=86 time=0
EXTRACT: pitchwheel channel=3 pitch=256 time=0
EXTRACT: note_off channel=4 note=63 velocity=80 time=0
EXTRACT: note_on channel=4 note=63 velocity=95 time=0
EXTRACT: note_off channel=5 note=60 velocity=80 time=0
EXTRACT: note_on channel=5 note=68 velocity=95 time=0
EXTRACT: note_off channel=9 note=42 velocity=80 time=0
EXTRACT: note_off channel=9 note=38 velocity=80 time=0
EXTRACT: note_off channel=9 note=53 velocity=80 time=0
EXTRACT: note_on channel=9 note=42 velocity=95 time=0
EXTRACT: note_on channel=9 note=53 velocity=63 time=0
EXTRACT: note_on channel=12 note=32 velocity=75 time=0
EXTRACT: pitchwheel channel=1 pitch=0 time=0.09803916666666665
EXTRACT: pitchwheel channel=3 pitch=0 time=0
EXTRACT: note_off channel=2 note=63 velocity=80 time=0.049019583333333325
EXTRACT: pitchwheel channel=1 pitch=256 time=0.049019583333333325
EXTRACT: pitchwheel channel=3 pitch=256 time=0
EXTRACT: note_on channel=10 note=64 velocity=95 time=0.024509791666666662
EXTRACT: note_on channel=12 note=32 velocity=0 time=0.06617643749999999
EXTRACT: note_off channel=10 note=64 velocity=80 time=0.004901958333333333
EXTRACT: note_off channel=10 note=58 velocity=80 time=0.0024509791666666664
EXTRACT: note_on channel=10 note=65 velocity=95 time=0
EXTRACT: pitchwheel channel=1 pitch=0 time=0
EXTRACT: note_on channel=2 note=60 velocity=86 time=0
EXTRACT: pitchwheel channel=3 pitch=0 time=0
EXTRACT: note_off channel=4 note=63 velocity=80 time=0
EXTRACT: note_on channel=4 note=63 velocity=95 time=0
EXTRACT: note_off channel=9 note=42 velocity=80 time=0
EXTRACT: note_off channel=9 note=53 velocity=80 time=0
EXTRACT: note_on channel=9 note=42 velocity=95 time=0
EXTRACT: note_on channel=9 note=36 velocity=95 time=0
EXTRACT: note_on channel=9 note=53 velocity=63 time=0
EXTRACT: note_on channel=12 note=32 velocity=75 time=0
EXTRACT: pitchwheel channel=1 pitch=256 time=0.09803916666666665
EXTRACT: pitchwheel channel=3 pitch=256 time=0
EXTRACT: note_off channel=2 note=60 velocity=80 time=0.049019583333333325
EXTRACT: pitchwheel channel=1 pitch=0 time=0.049019583333333325
EXTRACT: pitchwheel channel=3 pitch=0 time=0
EXTRACT: note_on channel=12 note=32 velocity=0 time=0.09068622916666666
EXTRACT: pitchwheel channel=1 pitch=256 time=0.007352937499999999
EXTRACT: note_on channel=2 note=60 velocity=86 time=0
EXTRACT: pitchwheel channel=3 pitch=256 time=0
EXTRACT: note_off channel=4 note=70 velocity=80 time=0
EXTRACT: note_on channel=4 note=70 velocity=95 time=0
EXTRACT: note_off channel=9 note=42 velocity=80 time=0
EXTRACT: note_off channel=9 note=36 velocity=80 time=0
EXTRACT: note_off channel=9 note=53 velocity=80 time=0
EXTRACT: note_on channel=9 note=42 velocity=95 time=0
EXTRACT: note_on channel=9 note=36 velocity=95 time=0
EXTRACT: note_on channel=9 note=53 velocity=63 time=0
EXTRACT: note_on channel=12 note=32 velocity=75 time=0
EXTRACT: pitchwheel channel=1 pitch=0 time=0.09803916666666665
EXTRACT: pitchwheel channel=3 pitch=0 time=0
EXTRACT: note_off channel=2 note=60 velocity=80 time=0.049019583333333325
EXTRACT: pitchwheel channel=1 pitch=256 time=0.049019583333333325
EXTRACT: pitchwheel channel=3 pitch=256 time=0
EXTRACT: note_on channel=12 note=32 velocity=0 time=0.09068622916666666
EXTRACT: pitchwheel channel=1 pitch=0 time=0.007352937499999999
EXTRACT: note_on channel=2 note=63 velocity=86 time=0
EXTRACT: pitchwheel channel=3 pitch=0 time=0
EXTRACT: note_off channel=4 note=63 velocity=80 time=0
EXTRACT: note_on channel=4 note=63 velocity=95 time=0
EXTRACT: note_off channel=9 note=42 velocity=80 time=0
EXTRACT: note_off channel=9 note=36 velocity=80 time=0
EXTRACT: note_off channel=9 note=53 velocity=80 time=0
EXTRACT: note_on channel=9 note=42 velocity=95 time=0
EXTRACT: note_on channel=9 note=38 velocity=95 time=0
EXTRACT: note_on channel=9 note=53 velocity=63 time=0
EXTRACT: note_on channel=12 note=32 velocity=75 time=0
EXTRACT: pitchwheel channel=1 pitch=256 time=0.09803916666666665
EXTRACT: pitchwheel channel=3 pitch=256 time=0
EXTRACT: note_off channel=2 note=63 velocity=80 time=0.049019583333333325
EXTRACT: pitchwheel channel=1 pitch=0 time=0.049019583333333325
EXTRACT: pitchwheel channel=3 pitch=0 time=0
EXTRACT: note_on channel=12 note=32 velocity=0 time=0.09068622916666666
EXTRACT: note_off channel=1 note=80 velocity=80 time=0.007352937499999999
EXTRACT: pitchwheel channel=1 pitch=256 time=0
EXTRACT: pitchwheel channel=1 pitch=0 time=0
EXTRACT: note_on channel=1 note=74 velocity=95 time=0
EXTRACT: note_on channel=2 note=60 velocity=86 time=0
EXTRACT: note_off channel=3 note=80 velocity=80 time=0
EXTRACT: pitchwheel channel=3 pitch=256 time=0
EXTRACT: pitchwheel channel=3 pitch=0 time=0
EXTRACT: note_on channel=3 note=74 velocity=95 time=0
EXTRACT: note_off channel=4 note=70 velocity=80 time=0
EXTRACT: note_on channel=4 note=70 velocity=95 time=0
EXTRACT: note_off channel=9 note=42 velocity=80 time=0
EXTRACT: note_off channel=9 note=38 velocity=80 time=0
EXTRACT: note_off channel=9 note=53 velocity=80 time=0
EXTRACT: note_on channel=9 note=42 velocity=95 time=0
EXTRACT: note_on channel=9 note=36 velocity=95 time=0
EXTRACT: note_on channel=9 note=53 velocity=63 time=0
EXTRACT: note_on channel=12 note=32 velocity=75 time=0
EXTRACT: note_off channel=1 note=74 velocity=80 time=0.14705875
EXTRACT: note_on channel=1 note=80 velocity=95 time=0
EXTRACT: note_off channel=2 note=60 velocity=80 time=0
EXTRACT: note_off channel=3 note=74 velocity=80 time=0
EXTRACT: note_on channel=3 note=80 velocity=95 time=0
EXTRACT: note_on channel=10 note=65 velocity=95 time=0.073529375
EXTRACT: note_on channel=12 note=32 velocity=0 time=0.06617643749999999
EXTRACT: note_off channel=10 note=65 velocity=80 time=0.004901958333333333
EXTRACT: note_off channel=0 note=65 velocity=80 time=0.0024509791666666664
EXTRACT: note_off channel=10 note=65 velocity=80 time=0
EXTRACT: note_on channel=10 note=63 velocity=95 time=0
EXTRACT: note_on channel=10 note=67 velocity=95 time=0
EXTRACT: note_off channel=1 note=80 velocity=80 time=0
EXTRACT: note_on channel=1 note=80 velocity=95 time=0
EXTRACT: note_on channel=2 note=60 velocity=95 time=0
EXTRACT: note_off channel=3 note=80 velocity=80 time=0
EXTRACT: note_on channel=3 note=80 velocity=95 time=0
EXTRACT: note_off channel=4 note=70 velocity=80 time=0
EXTRACT: note_on channel=4 note=70 velocity=95 time=0
EXTRACT: note_off channel=5 note=68 velocity=80 time=0
EXTRACT: note_off channel=9 note=42 velocity=80 time=0
EXTRACT: note_off channel=9 note=36 velocity=80 time=0
EXTRACT: note_off channel=9 note=53 velocity=80 time=0
EXTRACT: note_on channel=9 note=49 velocity=95 time=0
EXTRACT: note_on channel=9 note=36 velocity=95 time=0
EXTRACT: note_on channel=12 note=32 velocity=75 time=0
EXTRACT: note_on channel=12 note=44 velocity=75 time=0
EXTRACT: note_on channel=5 note=63 velocity=95 time=0.2941175
EXTRACT: note_off channel=9 note=49 velocity=80 time=0.2941175
EXTRACT: note_off channel=9 note=36 velocity=80 time=0
EXTRACT: note_off channel=5 note=63 velocity=80 time=0.2941175
EXTRACT: note_on channel=5 note=65 velocity=95 time=0
EXTRACT: note_off channel=10 note=67 velocity=80 time=0.2941175
EXTRACT: note_on channel=10 note=63 velocity=95 time=0
EXTRACT: note_off channel=10 note=63 velocity=80 time=1.17647
EXTRACT: note_off channel=10 note=63 velocity=80 time=0
EXTRACT: note_on channel=10 note=58 velocity=95 time=0
EXTRACT: note_off channel=2 note=60 velocity=80 time=0
EXTRACT: note_off channel=4 note=63 velocity=80 time=0
EXTRACT: note_off channel=4 note=70 velocity=80 time=0
EXTRACT: note_off channel=5 note=65 velocity=80 time=0.2941175
EXTRACT: note_on channel=5 note=62 velocity=95 time=0
EXTRACT: note_off channel=5 note=62 velocity=80 time=0.588235
EXTRACT: note_on channel=5 note=65 velocity=95 time=0
EXTRACT: note_on channel=10 note=64 velocity=95 time=0.22058812499999997
EXTRACT: note_off channel=10 note=64 velocity=80 time=0.07107839583333332
EXTRACT: note_off channel=10 note=58 velocity=80 time=0.0024509791666666664
EXTRACT: note_on channel=10 note=65 velocity=95 time=0
EXTRACT: note_off channel=5 note=65 velocity=80 time=0.2941175
EXTRACT: note_on channel=5 note=62 velocity=95 time=0
EXTRACT: note_off channel=5 note=62 velocity=80 time=0.588235
EXTRACT: note_on channel=5 note=65 velocity=95 time=0
EXTRACT: note_on channel=12 note=32 velocity=0 time=0.14705875
EXTRACT: note_on channel=12 note=44 velocity=0 time=0
EXTRACT: note_on channel=5 note=58 velocity=95 time=0.073529375
EXTRACT: note_off channel=5 note=58 velocity=80 time=0.07107839583333332
EXTRACT: note_on channel=10 note=63 velocity=95 time=0.0024509791666666664
EXTRACT: note_off channel=10 note=65 velocity=80 time=0
EXTRACT: note_on channel=10 note=63 velocity=95 time=0
EXTRACT: note_off channel=1 note=80 velocity=80 time=0
EXTRACT: note_off channel=3 note=80 velocity=80 time=0
EXTRACT: note_off channel=5 note=65 velocity=80 time=0
EXTRACT: note_on channel=5 note=60 velocity=95 time=0
EXTRACT: note_on channel=12 note=32 velocity=75 time=0
EXTRACT: note_on channel=12 note=44 velocity=75 time=0
EXTRACT: note_off channel=5 note=60 velocity=80 time=0.2941175
EXTRACT: note_on channel=5 note=63 velocity=95 time=0
EXTRACT: note_off channel=5 note=63 velocity=80 time=0.2941175
EXTRACT: note_on channel=5 note=60 velocity=95 time=0
EXTRACT: note_off channel=5 note=60 velocity=80 time=0.2941175
EXTRACT: note_on channel=5 note=67 velocity=95 time=0
EXTRACT: note_off channel=10 note=63 velocity=80 time=0.2941175
EXTRACT: note_on channel=10 note=62 velocity=95 time=0
EXTRACT: note_off channel=5 note=67 velocity=80 time=0.8823524999999999
EXTRACT: note_on channel=5 note=63 velocity=95 time=0
EXTRACT: note_off channel=10 note=63 velocity=80 time=0.2941175
EXTRACT: note_off channel=10 note=62 velocity=80 time=0
EXTRACT: note_on channel=10 note=58 velocity=95 time=0
EXTRACT: note_off channel=5 note=63 velocity=80 time=0
EXTRACT: note_on channel=5 note=60 velocity=95 time=0
EXTRACT: note_off channel=5 note=60 velocity=80 time=0.2941175
EXTRACT: note_on channel=5 note=63 velocity=95 time=0
EXTRACT: note_off channel=5 note=63 velocity=80 time=0.2941175
EXTRACT: note_on channel=5 note=60 velocity=95 time=0
EXTRACT: note_off channel=5 note=60 velocity=80 time=0.2941175
EXTRACT: note_on channel=5 note=68 velocity=95 time=0
EXTRACT: note_on channel=10 note=64 velocity=95 time=0.22058812499999997
EXTRACT: note_off channel=10 note=64 velocity=80 time=0.07107839583333332
EXTRACT: note_off channel=10 note=58 velocity=80 time=0.0024509791666666664
EXTRACT: note_on channel=10 note=65 velocity=95 time=0
EXTRACT: note_off channel=5 note=68 velocity=80 time=0.2941175
EXTRACT: note_on channel=5 note=63 velocity=95 time=0
EXTRACT: note_off channel=5 note=63 velocity=80 time=0.2941175
EXTRACT: note_on channel=5 note=60 velocity=95 time=0
EXTRACT: note_off channel=10 note=65 velocity=80 time=0.588235
EXTRACT: note_on channel=10 note=63 velocity=95 time=0
EXTRACT: note_on channel=12 note=32 velocity=0 time=2.2058812499999996
EXTRACT: note_on channel=12 note=44 velocity=0 time=0
EXTRACT: note_off channel=10 note=63 velocity=80 time=0.14705875
EXTRACT: note_off channel=5 note=60 velocity=80 time=0
