EXTRACT: control_change channel=1 control=0 value=0 time=0.875
EXTRACT: control_change channel=1 control=32 value=0 time=0.0078125
EXTRACT: program_change channel=1 program=35 time=0.0078125
EXTRACT: control_change channel=1 control=11 value=127 time=0.0078125
EXTRACT: control_change channel=1 control=10 value=64 time=0
EXTRACT: control_change channel=1 control=7 value=127 time=0
EXTRACT: control_change channel=1 control=91 value=0 time=0.0078125
EXTRACT: control_change channel=1 control=93 value=5 time=0
EXTRACT: control_change channel=2 control=0 value=0 time=0.0078125
EXTRACT: control_change channel=2 control=32 value=0 time=0.0078125
EXTRACT: program_change channel=2 program=26 time=0.0078125
EXTRACT: control_change channel=2 control=11 value=127 time=0.0078125
EXTRACT: control_change channel=2 control=10 value=34 time=0
EXTRACT: control_change channel=2 control=7 value=100 time=0
EXTRACT: control_change channel=2 control=91 value=70 time=0.0078125
EXTRACT: control_change channel=2 control=93 value=30 time=0
EXTRACT: control_change channel=3 control=0 value=0 time=0.0078125
EXTRACT: control_change channel=3 control=32 value=0 time=0.0078125
EXTRACT: program_change channel=3 program=75 time=0.0078125
EXTRACT: control_change channel=3 control=11 value=126 time=0.0078125
EXTRACT: control_change channel=3 control=10 value=64 time=0
EXTRACT: control_change channel=3 control=7 value=126 time=0
EXTRACT: control_change channel=3 control=91 value=50 time=0.0078125
EXTRACT: control_change channel=3 control=93 value=0 time=0
EXTRACT: control_change channel=4 control=0 value=0 time=0.0078125
EXTRACT: control_change channel=4 control=32 value=0 time=0.0078125
EXTRACT: control_change channel=4 control=0 value=0 time=0.0078125
EXTRACT: program_change channel=4 program=52 time=0
EXTRACT: control_change channel=4 control=11 value=126 time=0.0078125
EXTRACT: control_change channel=4 control=10 value=64 time=0
EXTRACT: control_change channel=4 control=7 value=115 time=0
EXTRACT: control_change channel=4 control=93 value=0 time=0.0078125
EXTRACT: control_change channel=4 control=91 value=40 time=0
EXTRACT: control_change channel=4 control=17 value=8 time=0.0078125
EXTRACT: control_change channel=4 control=16 value=0 time=0.0078125
EXTRACT: control_change channel=6 control=0 value=0 time=0.03125
EXTRACT: control_change channel=7 control=0 value=0 time=0
EXTRACT: control_change channel=6 control=32 value=0 time=0.0078125
EXTRACT: control_change channel=7 control=32 value=0 time=0
EXTRACT: program_change channel=6 program=48 time=0.0078125
EXTRACT: program_change channel=7 program=48 time=0
EXTRACT: control_change channel=6 control=11 value=126 time=0.0078125
EXTRACT: control_change channel=6 control=10 value=54 time=0
EXTRACT: control_change channel=6 control=7 value=126 time=0
EXTRACT: control_change channel=7 control=11 value=126 time=0
EXTRACT: control_change channel=7 control=10 value=64 time=0
EXTRACT: control_change channel=7 control=7 value=126 time=0
EXTRACT: control_change channel=6 control=91 value=90 time=0.0078125
EXTRACT: control_change channel=6 control=93 value=30 time=0
EXTRACT: control_change channel=7 control=91 value=90 time=0
EXTRACT: control_change channel=7 control=93 value=50 time=0
EXTRACT: control_change channel=1 control=99 value=1 time=0.0546875
EXTRACT: program_change channel=9 program=0 time=0.046875
EXTRACT: control_change channel=1 control=98 value=32 time=0.0078125
EXTRACT: control_change channel=9 control=11 value=126 time=0
EXTRACT: control_change channel=9 control=10 value=64 time=0
EXTRACT: control_change channel=9 control=7 value=127 time=0
EXTRACT: control_change channel=1 control=6 value=55 time=0.0078125
EXTRACT: control_change channel=9 control=93 value=15 time=0
EXTRACT: control_change channel=9 control=91 value=39 time=0
EXTRACT: control_change channel=1 control=98 value=33 time=0.0078125
EXTRACT: control_change channel=10 control=0 value=0 time=0
EXTRACT: control_change channel=1 control=6 value=55 time=0.0078125
EXTRACT: control_change channel=10 control=32 value=0 time=0
EXTRACT: program_change channel=10 program=4 time=0.0078125
EXTRACT: control_change channel=10 control=11 value=126 time=0.0078125
EXTRACT: control_change channel=10 control=10 value=74 time=0
EXTRACT: control_change channel=10 control=7 value=127 time=0
EXTRACT: control_change channel=10 control=91 value=90 time=0.0078125
EXTRACT: control_change channel=10 control=93 value=50 time=0
EXTRACT: control_change channel=11 control=0 value=0 time=0.0078125
EXTRACT: control_change channel=11 control=32 value=0 time=0.0078125
EXTRACT: program_change channel=11 program=25 time=0.0078125
EXTRACT: control_change channel=11 control=11 value=126 time=0.0078125
EXTRACT: control_change channel=11 control=10 value=94 time=0
EXTRACT: control_change channel=11 control=7 value=54 time=0
EXTRACT: control_change channel=11 control=91 value=50 time=0.0078125
EXTRACT: control_change channel=11 control=93 value=5 time=0
EXTRACT: control_change channel=14 control=0 value=0 time=0.0859375
EXTRACT: control_change channel=14 control=32 value=0 time=0.0078125
EXTRACT: program_change channel=14 program=18 time=0.0078125
EXTRACT: control_change channel=14 control=11 value=127 time=0.0078125
EXTRACT: control_change channel=14 control=10 value=64 time=0
EXTRACT: control_change channel=14 control=7 value=127 time=0
EXTRACT: control_change channel=14 control=91 value=80 time=0.0078125
EXTRACT: control_change channel=14 control=93 value=40 time=0
EXTRACT: control_change channel=2 control=99 value=1 time=0.2671875
EXTRACT: control_change channel=2 control=98 value=99 time=0.0078125
EXTRACT: control_change channel=2 control=6 value=64 time=0.0078125
EXTRACT: control_change channel=2 control=98 value=100 time=0.0078125
EXTRACT: control_change channel=2 control=6 value=64 time=0.0078125
EXTRACT: control_change channel=2 control=98 value=102 time=0.0078125
EXTRACT: control_change channel=2 control=6 value=64 time=0.0078125
EXTRACT: control_change channel=2 control=98 value=32 time=0.0078125
EXTRACT: control_change channel=2 control=6 value=64 time=0.0078125
EXTRACT: control_change channel=2 control=98 value=33 time=0.0078125
EXTRACT: control_change channel=2 control=6 value=64 time=0.0078125
EXTRACT: control_change channel=6 control=99 value=1 time=0.265625
EXTRACT: control_change channel=7 control=99 value=1 time=0
EXTRACT: control_change channel=6 control=98 value=99 time=0.0078125
EXTRACT: control_change channel=7 control=98 value=99 time=0
EXTRACT: control_change channel=6 control=6 value=64 time=0.0078125
EXTRACT: control_change channel=7 control=6 value=64 time=0
EXTRACT: control_change channel=6 control=98 value=100 time=0.0078125
EXTRACT: control_change channel=7 control=98 value=100 time=0
EXTRACT: control_change channel=6 control=6 value=64 time=0.0078125
EXTRACT: control_change channel=7 control=6 value=64 time=0
EXTRACT: control_change channel=6 control=98 value=102 time=0.0078125
EXTRACT: control_change channel=7 control=98 value=102 time=0
EXTRACT: control_change channel=6 control=6 value=64 time=0.0078125
EXTRACT: control_change channel=7 control=6 value=64 time=0
EXTRACT: control_change channel=6 control=98 value=32 time=0.0078125
EXTRACT: control_change channel=7 control=98 value=32 time=0
EXTRACT: control_change channel=6 control=6 value=64 time=0.0078125
EXTRACT: control_change channel=7 control=6 value=64 time=0
EXTRACT: control_change channel=6 control=98 value=33 time=0.0078125
EXTRACT: control_change channel=7 control=98 value=33 time=0
EXTRACT: control_change channel=6 control=6 value=64 time=0.0078125
EXTRACT: control_change channel=7 control=6 value=64 time=0
EXTRACT: control_change channel=10 control=99 value=1 time=0.1796875
EXTRACT: control_change channel=10 control=98 value=99 time=0.0078125
EXTRACT: control_change channel=10 control=6 value=64 time=0.0078125
EXTRACT: control_change channel=10 control=98 value=100 time=0.0078125
EXTRACT: control_change channel=10 control=6 value=64 time=0.0078125
EXTRACT: control_change channel=10 control=98 value=102 time=0.0078125
EXTRACT: control_change channel=10 control=6 value=64 time=0.0078125
EXTRACT: control_change channel=10 control=98 value=32 time=0.0078125
EXTRACT: control_change channel=10 control=6 value=64 time=0.0078125
EXTRACT: control_change channel=10 control=98 value=33 time=0.0078125
EXTRACT: control_change channel=10 control=6 value=64 time=0.0078125
EXTRACT: control_change channel=11 control=99 value=1 time=0.0078125
EXTRACT: control_change channel=11 control=98 value=99 time=0.0078125
EXTRACT: control_change channel=11 control=6 value=64 time=0.0078125
EXTRACT: control_change channel=11 control=98 value=100 time=0.0078125
EXTRACT: control_change channel=11 control=6 value=64 time=0.0078125
EXTRACT: control_change channel=11 control=98 value=102 time=0.0078125
EXTRACT: control_change channel=11 control=6 value=64 time=0.0078125
EXTRACT: control_change channel=11 control=98 value=32 time=0.0078125
EXTRACT: control_change channel=11 control=6 value=64 time=0.0078125
EXTRACT: control_change channel=11 control=98 value=33 time=0.0078125
EXTRACT: control_change channel=11 control=6 value=64 time=0.0078125
EXTRACT: control_change channel=14 control=99 value=1 time=0.1796875
EXTRACT: control_change channel=14 control=98 value=99 time=0.0078125
EXTRACT: control_change channel=14 control=6 value=64 time=0.0078125
EXTRACT: control_change channel=14 control=98 value=100 time=0.0078125
EXTRACT: control_change channel=14 control=6 value=64 time=0.0078125
EXTRACT: control_change channel=14 control=98 value=102 time=0.0078125
EXTRACT: control_change channel=14 control=6 value=64 time=0.0078125
EXTRACT: control_change channel=14 control=98 value=32 time=0.0078125
EXTRACT: control_change channel=14 control=6 value=64 time=0.0078125
EXTRACT: control_change channel=14 control=98 value=33 time=0.0078125
EXTRACT: control_change channel=14 control=6 value=64 time=0.0078125
EXTRACT: note_on channel=2 note=48 velocity=73 time=0.265625
EXTRACT: note_on channel=10 note=48 velocity=60 time=0
EXTRACT: note_on channel=10 note=55 velocity=63 time=0
EXTRACT: note_on channel=10 note=63 velocity=81 time=0
EXTRACT: note_on channel=11 note=55 velocity=104 time=0
EXTRACT: note_on channel=11 note=60 velocity=104 time=0.009375000000000001
EXTRACT: note_on channel=11 note=63 velocity=104 time=0.009375000000000001
EXTRACT: note_off channel=11 note=55 velocity=64 time=0.721875
EXTRACT: note_off channel=11 note=60 velocity=64 time=0.009375000000000001
EXTRACT: note_on channel=2 note=55 velocity=77 time=0
EXTRACT: note_on channel=11 note=55 velocity=96 time=0
EXTRACT: note_off channel=11 note=63 velocity=64 time=0.009375000000000001
EXTRACT: note_on channel=11 note=60 velocity=96 time=0
EXTRACT: note_on channel=11 note=63 velocity=96 time=0.009375000000000001
EXTRACT: note_off channel=11 note=55 velocity=64 time=0.534375
EXTRACT: note_off channel=11 note=60 velocity=64 time=0.009375000000000001
EXTRACT: note_on channel=11 note=55 velocity=88 time=0
EXTRACT: note_off channel=11 note=63 velocity=64 time=0.009375000000000001
EXTRACT: note_on channel=11 note=60 velocity=88 time=0
EXTRACT: note_on channel=11 note=63 velocity=89 time=0.009375000000000001
EXTRACT: note_off channel=11 note=55 velocity=64 time=0.15937500000000002
EXTRACT: note_off channel=11 note=60 velocity=64 time=0.009375000000000001
EXTRACT: note_on channel=2 note=63 velocity=77 time=0
EXTRACT: note_on channel=11 note=55 velocity=106 time=0
EXTRACT: note_off channel=11 note=63 velocity=64 time=0.009375000000000001
EXTRACT: note_on channel=11 note=60 velocity=106 time=0
EXTRACT: note_on channel=11 note=63 velocity=106 time=0.009375000000000001
EXTRACT: note_off channel=11 note=55 velocity=64 time=0.34687500000000004
EXTRACT: note_off channel=11 note=60 velocity=64 time=0.009375000000000001
EXTRACT: note_on channel=11 note=55 velocity=90 time=0
EXTRACT: note_off channel=11 note=63 velocity=64 time=0.009375000000000001
EXTRACT: note_on channel=11 note=60 velocity=91 time=0
EXTRACT: note_on channel=11 note=63 velocity=90 time=0.009375000000000001
EXTRACT: note_off channel=11 note=55 velocity=64 time=0.34687500000000004
EXTRACT: note_off channel=11 note=60 velocity=64 time=0.009375000000000001
EXTRACT: note_on channel=2 note=60 velocity=53 time=0
EXTRACT: note_on channel=11 note=55 velocity=99 time=0
EXTRACT: note_off channel=11 note=63 velocity=64 time=0.009375000000000001
EXTRACT: note_on channel=11 note=60 velocity=99 time=0
EXTRACT: note_on channel=11 note=63 velocity=98 time=0.009375000000000001
EXTRACT: note_off channel=10 note=55 velocity=64 time=0.49843750000000003
EXTRACT: note_off channel=11 note=63 velocity=64 time=0.060937500000000006
EXTRACT: note_off channel=2 note=48 velocity=64 time=0
EXTRACT: note_off channel=2 note=60 velocity=64 time=0
EXTRACT: note_off channel=11 note=55 velocity=64 time=0.0171875
EXTRACT: note_off channel=11 note=60 velocity=64 time=0.003125
EXTRACT: note_off channel=2 note=63 velocity=64 time=0.004687500000000001
EXTRACT: note_off channel=2 note=55 velocity=64 time=0.004687500000000001
EXTRACT: note_on channel=2 note=46 velocity=72 time=0.015625
EXTRACT: note_on channel=10 note=46 velocity=70 time=0
EXTRACT: note_on channel=10 note=55 velocity=67 time=0
EXTRACT: note_on channel=10 note=62 velocity=79 time=0
EXTRACT: note_on channel=11 note=53 velocity=105 time=0
EXTRACT: note_off channel=10 note=48 velocity=64 time=0.0015625
EXTRACT: note_on channel=11 note=58 velocity=105 time=0.0078125
EXTRACT: note_on channel=11 note=62 velocity=104 time=0.009375000000000001
EXTRACT: note_off channel=10 note=63 velocity=64 time=0.0171875
EXTRACT: note_off channel=11 note=53 velocity=64 time=0.7046875
EXTRACT: note_off channel=11 note=58 velocity=64 time=0.009375000000000001
EXTRACT: note_on channel=2 note=55 velocity=76 time=0
EXTRACT: note_on channel=11 note=53 velocity=97 time=0
EXTRACT: note_off channel=11 note=62 velocity=64 time=0.009375000000000001
EXTRACT: note_on channel=11 note=58 velocity=97 time=0
EXTRACT: note_on channel=11 note=62 velocity=96 time=0.009375000000000001
EXTRACT: note_off channel=11 note=53 velocity=64 time=0.534375
EXTRACT: note_on channel=11 note=53 velocity=88 time=0.009375000000000001
EXTRACT: note_off channel=11 note=58 velocity=64 time=0
EXTRACT: note_off channel=11 note=62 velocity=64 time=0.009375000000000001
EXTRACT: note_on channel=11 note=58 velocity=89 time=0
EXTRACT: note_on channel=11 note=62 velocity=89 time=0.009375000000000001
EXTRACT: note_off channel=11 note=53 velocity=64 time=0.046875
EXTRACT: note_on channel=2 note=62 velocity=76 time=0.009375000000000001
EXTRACT: note_on channel=11 note=53 velocity=107 time=0
EXTRACT: note_off channel=11 note=58 velocity=64 time=0
EXTRACT: note_off channel=11 note=62 velocity=64 time=0.009375000000000001
EXTRACT: note_on channel=11 note=58 velocity=107 time=0
EXTRACT: note_on channel=11 note=62 velocity=106 time=0.009375000000000001
EXTRACT: note_off channel=11 note=53 velocity=64 time=0.34687500000000004
EXTRACT: note_on channel=11 note=53 velocity=90 time=0.009375000000000001
EXTRACT: note_off channel=11 note=58 velocity=64 time=0
EXTRACT: note_off channel=11 note=62 velocity=64 time=0.009375000000000001
EXTRACT: note_on channel=11 note=58 velocity=90 time=0
EXTRACT: note_on channel=11 note=62 velocity=91 time=0.009375000000000001
EXTRACT: note_off channel=11 note=53 velocity=64 time=0.34687500000000004
EXTRACT: note_off channel=11 note=58 velocity=64 time=0.009375000000000001
EXTRACT: note_off channel=11 note=62 velocity=64 time=0.009375000000000001
EXTRACT: note_on channel=11 note=58 velocity=111 time=0
EXTRACT: note_on channel=11 note=62 velocity=110 time=0.009375000000000001
EXTRACT: note_on channel=11 note=65 velocity=126 time=0
EXTRACT: note_on channel=3 note=70 velocity=92 time=0.3359375
EXTRACT: note_off channel=3 note=70 velocity=64 time=0.24375000000000002
EXTRACT: note_off channel=10 note=46 velocity=64 time=0.07968750000000001
EXTRACT: note_off channel=2 note=46 velocity=64 time=0.00625
EXTRACT: note_off channel=10 note=62 velocity=64 time=0
EXTRACT: note_off channel=11 note=65 velocity=64 time=0
EXTRACT: note_off channel=11 note=58 velocity=64 time=0.0203125
EXTRACT: note_off channel=2 note=62 velocity=64 time=0.004687500000000001
EXTRACT: note_off channel=2 note=55 velocity=64 time=0.004687500000000001
EXTRACT: note_off channel=11 note=62 velocity=64 time=0.00625
EXTRACT: note_on channel=2 note=48 velocity=81 time=0.009375000000000001
EXTRACT: note_on channel=3 note=70 velocity=92 time=0
EXTRACT: note_on channel=10 note=48 velocity=69 time=0
EXTRACT: note_on channel=10 note=55 velocity=71 time=0
EXTRACT: note_on channel=10 note=63 velocity=86 time=0
EXTRACT: note_on channel=11 note=55 velocity=110 time=0
EXTRACT: note_on channel=11 note=60 velocity=110 time=0.009375000000000001
EXTRACT: note_off channel=10 note=55 velocity=64 time=0.004687500000000001
EXTRACT: note_on channel=11 note=63 velocity=110 time=0.004687500000000001
EXTRACT: note_off channel=3 note=70 velocity=64 time=0.2578125
EXTRACT: note_on channel=3 note=70 velocity=91 time=0.1046875
EXTRACT: note_off channel=3 note=70 velocity=64 time=0.2734375
EXTRACT: note_off channel=11 note=55 velocity=64 time=0.0734375
EXTRACT: note_on channel=2 note=55 velocity=83 time=0.009375000000000001
EXTRACT: note_on channel=11 note=55 velocity=102 time=0
EXTRACT: note_off channel=11 note=60 velocity=64 time=0
EXTRACT: note_off channel=11 note=63 velocity=64 time=0.009375000000000001
EXTRACT: note_on channel=11 note=60 velocity=103 time=0
EXTRACT: note_on channel=11 note=63 velocity=103 time=0.009375000000000001
EXTRACT: note_on channel=3 note=70 velocity=91 time=0.0015625
EXTRACT: note_off channel=3 note=70 velocity=64 time=0.2609375
EXTRACT: note_on channel=3 note=70 velocity=93 time=0.09843750000000001
EXTRACT: note_off channel=11 note=55 velocity=64 time=0.15937500000000002
EXTRACT: note_on channel=11 note=55 velocity=96 time=0.009375000000000001
EXTRACT: note_off channel=11 note=60 velocity=64 time=0
EXTRACT: note_off channel=11 note=63 velocity=64 time=0.009375000000000001
EXTRACT: note_on channel=11 note=60 velocity=97 time=0
EXTRACT: note_on channel=11 note=63 velocity=96 time=0.009375000000000001
EXTRACT: note_off channel=11 note=55 velocity=64 time=0.15937500000000002
EXTRACT: note_on channel=2 note=63 velocity=82 time=0.009375000000000001
EXTRACT: note_on channel=11 note=55 velocity=115 time=0
EXTRACT: note_off channel=11 note=60 velocity=64 time=0
EXTRACT: note_off channel=11 note=63 velocity=64 time=0.009375000000000001
EXTRACT: note_on channel=11 note=60 velocity=114 time=0
EXTRACT: note_on channel=11 note=63 velocity=114 time=0.009375000000000001
EXTRACT: note_off channel=3 note=70 velocity=64 time=0.1875
EXTRACT: note_off channel=11 note=55 velocity=64 time=0.15937500000000002
EXTRACT: note_on channel=11 note=55 velocity=99 time=0.009375000000000001
EXTRACT: note_off channel=11 note=60 velocity=64 time=0
EXTRACT: note_off channel=11 note=63 velocity=64 time=0.009375000000000001
EXTRACT: note_on channel=11 note=60 velocity=98 time=0
EXTRACT: note_on channel=11 note=63 velocity=98 time=0.009375000000000001
EXTRACT: note_off channel=11 note=55 velocity=64 time=0.19687500000000002
EXTRACT: note_on channel=2 note=60 velocity=60 time=0.009375000000000001
EXTRACT: note_on channel=11 note=55 velocity=104 time=0
EXTRACT: note_off channel=11 note=60 velocity=64 time=0
EXTRACT: note_off channel=11 note=63 velocity=64 time=0.009375000000000001
EXTRACT: note_on channel=11 note=60 velocity=104 time=0
EXTRACT: note_on channel=11 note=63 velocity=105 time=0.009375000000000001
EXTRACT: note_on channel=3 note=70 velocity=91 time=0.010937500000000001
EXTRACT: note_off channel=10 note=55 velocity=64 time=0.16875
EXTRACT: note_off channel=2 note=48 velocity=64 time=0.1875
EXTRACT: note_off channel=2 note=60 velocity=64 time=0
EXTRACT: note_off channel=11 note=63 velocity=64 time=0
EXTRACT: note_off channel=11 note=55 velocity=64 time=0.009375000000000001
EXTRACT: note_off channel=3 note=70 velocity=64 time=0.0015625
EXTRACT: note_off channel=11 note=60 velocity=64 time=0.0015625
EXTRACT: note_off channel=2 note=63 velocity=64 time=0.004687500000000001
EXTRACT: note_off channel=2 note=55 velocity=64 time=0.004687500000000001
EXTRACT: note_on channel=3 note=77 velocity=92 time=0.0125
EXTRACT: note_on channel=2 note=46 velocity=80 time=0.003125
EXTRACT: note_on channel=10 note=46 velocity=76 time=0
EXTRACT: note_on channel=10 note=55 velocity=73 time=0
EXTRACT: note_on channel=10 note=62 velocity=85 time=0
EXTRACT: note_on channel=11 note=55 velocity=111 time=0
EXTRACT: note_off channel=10 note=48 velocity=64 time=0.0015625
EXTRACT: note_on channel=11 note=58 velocity=110 time=0.0078125
EXTRACT: note_on channel=11 note=62 velocity=110 time=0.009375000000000001
EXTRACT: note_off channel=10 note=63 velocity=64 time=0.0171875
EXTRACT: note_on channel=3 note=75 velocity=90 time=0.045312500000000006
EXTRACT: note_off channel=3 note=77 velocity=64 time=0.0015625
EXTRACT: note_off channel=3 note=75 velocity=64 time=0.35000000000000003
EXTRACT: note_on channel=3 note=74 velocity=88 time=0.015625
EXTRACT: note_off channel=11 note=55 velocity=64 time=0.009375000000000001
EXTRACT: note_off channel=11 note=58 velocity=64 time=0.009375000000000001
EXTRACT: note_on channel=2 note=55 velocity=82 time=0
EXTRACT: note_on channel=11 note=55 velocity=102 time=0
EXTRACT: note_on channel=11 note=58 velocity=102 time=0.009375000000000001
EXTRACT: note_off channel=11 note=62 velocity=64 time=0
EXTRACT: note_on channel=11 note=62 velocity=102 time=0.009375000000000001
EXTRACT: note_on channel=3 note=75 velocity=89 time=0.026562500000000003
EXTRACT: note_off channel=3 note=74 velocity=64 time=0.018750000000000003
EXTRACT: note_off channel=11 note=55 velocity=64 time=0.18906250000000002
EXTRACT: note_off channel=11 note=58 velocity=64 time=0.009375000000000001
EXTRACT: note_on channel=11 note=55 velocity=96 time=0
EXTRACT: note_off channel=11 note=62 velocity=64 time=0.009375000000000001
EXTRACT: note_on channel=11 note=58 velocity=96 time=0
EXTRACT: note_on channel=11 note=62 velocity=96 time=0.009375000000000001
EXTRACT: note_on channel=3 note=74 velocity=93 time=0.051562500000000004
EXTRACT: note_off channel=3 note=75 velocity=64 time=0.004687500000000001
EXTRACT: note_off channel=11 note=55 velocity=64 time=0.009375000000000001
EXTRACT: note_off channel=11 note=58 velocity=64 time=0.009375000000000001
EXTRACT: note_on channel=2 note=62 velocity=82 time=0
EXTRACT: note_on channel=11 note=55 velocity=114 time=0
EXTRACT: note_on channel=11 note=58 velocity=115 time=0.009375000000000001
EXTRACT: note_off channel=11 note=62 velocity=64 time=0
EXTRACT: note_on channel=11 note=62 velocity=114 time=0.009375000000000001
EXTRACT: note_off channel=3 note=74 velocity=64 time=0.009375000000000001
EXTRACT: note_on channel=3 note=72 velocity=92 time=0.015625
EXTRACT: note_off channel=11 note=55 velocity=64 time=0.003125
EXTRACT: note_off channel=11 note=58 velocity=64 time=0.009375000000000001
EXTRACT: note_on channel=11 note=55 velocity=98 time=0
EXTRACT: note_on channel=11 note=58 velocity=98 time=0.009375000000000001
EXTRACT: note_off channel=11 note=62 velocity=64 time=0
EXTRACT: note_on channel=11 note=62 velocity=98 time=0.009375000000000001
EXTRACT: note_off channel=11 note=55 velocity=64 time=0.12187500000000001
EXTRACT: note_off channel=11 note=58 velocity=64 time=0.009375000000000001
EXTRACT: note_on channel=11 note=55 velocity=105 time=0
EXTRACT: note_on channel=11 note=58 velocity=104 time=0.003125
EXTRACT: note_off channel=11 note=62 velocity=64 time=0
EXTRACT: note_on channel=3 note=70 velocity=90 time=0.0015625
EXTRACT: note_off channel=3 note=72 velocity=64 time=0.0015625
EXTRACT: note_on channel=11 note=62 velocity=105 time=0.00625
EXTRACT: note_off channel=3 note=70 velocity=64 time=0.3484375
EXTRACT: note_on channel=3 note=72 velocity=90 time=0.009375000000000001
EXTRACT: note_off channel=3 note=72 velocity=64 time=0.26875
EXTRACT: note_off channel=11 note=55 velocity=64 time=0.03125
EXTRACT: note_off channel=10 note=46 velocity=64 time=0.0125
EXTRACT: note_off channel=2 note=46 velocity=64 time=0.00625
EXTRACT: note_off channel=10 note=62 velocity=64 time=0
EXTRACT: note_off channel=11 note=58 velocity=64 time=0.0203125
EXTRACT: note_off channel=2 note=62 velocity=64 time=0.004687500000000001
EXTRACT: note_off channel=2 note=55 velocity=64 time=0.004687500000000001
EXTRACT: note_off channel=11 note=62 velocity=64 time=0.00625
EXTRACT: note_on channel=2 note=44 velocity=80 time=0.009375000000000001
EXTRACT: note_on channel=10 note=41 velocity=68 time=0
EXTRACT: note_on channel=10 note=44 velocity=69 time=0
EXTRACT: note_on channel=10 note=56 velocity=70 time=0
EXTRACT: note_on channel=10 note=60 velocity=87 time=0
EXTRACT: note_on channel=11 note=53 velocity=111 time=0
EXTRACT: note_on channel=3 note=67 velocity=92 time=0.0078125
EXTRACT: note_on channel=11 note=56 velocity=110 time=0
EXTRACT: note_off channel=10 note=55 velocity=64 time=0.004687500000000001
EXTRACT: note_on channel=11 note=60 velocity=111 time=0.004687500000000001
EXTRACT: note_off channel=3 note=67 velocity=64 time=0.2828125
EXTRACT: note_on channel=3 note=67 velocity=90 time=0.08281250000000001
EXTRACT: note_off channel=3 note=67 velocity=64 time=0.3015625
EXTRACT: note_off channel=11 note=53 velocity=64 time=0.0546875
EXTRACT: note_off channel=11 note=56 velocity=64 time=0.009375000000000001
EXTRACT: note_on channel=2 note=53 velocity=83 time=0
EXTRACT: note_on channel=11 note=53 velocity=103 time=0
EXTRACT: note_on channel=11 note=56 velocity=102 time=0.009375000000000001
EXTRACT: note_off channel=11 note=60 velocity=64 time=0
EXTRACT: note_on channel=3 note=67 velocity=92 time=0.0078125
EXTRACT: note_on channel=11 note=60 velocity=103 time=0.0015625
EXTRACT: note_off channel=3 note=67 velocity=64 time=0.27187500000000003
EXTRACT: note_on channel=3 note=67 velocity=89 time=0.0859375
EXTRACT: note_off channel=11 note=53 velocity=64 time=0.1609375
EXTRACT: note_off channel=11 note=56 velocity=64 time=0.009375000000000001
EXTRACT: note_on channel=11 note=53 velocity=97 time=0
EXTRACT: note_on channel=11 note=56 velocity=96 time=0.009375000000000001
EXTRACT: note_off channel=11 note=60 velocity=64 time=0
EXTRACT: note_on channel=11 note=60 velocity=96 time=0.009375000000000001
EXTRACT: note_off channel=11 note=53 velocity=64 time=0.15937500000000002
EXTRACT: note_off channel=11 note=56 velocity=64 time=0.009375000000000001
EXTRACT: note_on channel=2 note=60 velocity=83 time=0
EXTRACT: note_on channel=11 note=53 velocity=115 time=0
EXTRACT: note_on channel=11 note=56 velocity=115 time=0.009375000000000001
EXTRACT: note_off channel=11 note=60 velocity=64 time=0
EXTRACT: note_on channel=11 note=60 velocity=115 time=0.009375000000000001
EXTRACT: note_off channel=3 note=67 velocity=64 time=0.22031250000000002
EXTRACT: note_off channel=11 note=53 velocity=64 time=0.1265625
EXTRACT: note_off channel=11 note=56 velocity=64 time=0.009375000000000001
EXTRACT: note_on channel=11 note=53 velocity=99 time=0
EXTRACT: note_on channel=11 note=56 velocity=98 time=0.009375000000000001
EXTRACT: note_off channel=11 note=60 velocity=64 time=0
EXTRACT: note_on channel=11 note=60 velocity=98 time=0.009375000000000001
EXTRACT: note_off channel=11 note=53 velocity=64 time=0.34687500000000004
EXTRACT: note_off channel=11 note=56 velocity=64 time=0.009375000000000001
EXTRACT: note_on channel=11 note=53 velocity=104 time=0
EXTRACT: note_on channel=11 note=56 velocity=105 time=0.009375000000000001
EXTRACT: note_off channel=11 note=60 velocity=64 time=0
EXTRACT: note_on channel=11 note=60 velocity=105 time=0.009375000000000001
EXTRACT: note_on channel=3 note=67 velocity=89 time=0.3328125
EXTRACT: note_off channel=10 note=56 velocity=64 time=0.16562500000000002
EXTRACT: note_off channel=2 note=44 velocity=64 time=0.1875
EXTRACT: note_off channel=11 note=60 velocity=64 time=0
EXTRACT: note_off channel=11 note=53 velocity=64 time=0.0171875
EXTRACT: note_off channel=11 note=56 velocity=64 time=0.003125
EXTRACT: note_off channel=2 note=60 velocity=64 time=0.004687500000000001
EXTRACT: note_off channel=2 note=53 velocity=64 time=0.004687500000000001
EXTRACT: note_on channel=3 note=68 velocity=88 time=0.00625
EXTRACT: note_off channel=3 note=67 velocity=64 time=0.0015625
EXTRACT: note_on channel=2 note=43 velocity=80 time=0.0078125
EXTRACT: note_on channel=10 note=43 velocity=77 time=0
EXTRACT: note_on channel=10 note=53 velocity=72 time=0
EXTRACT: note_on channel=10 note=59 velocity=85 time=0
EXTRACT: note_on channel=11 note=53 velocity=110 time=0
EXTRACT: note_off channel=10 note=41 velocity=64 time=0.0015625
EXTRACT: note_off channel=10 note=44 velocity=64 time=0
EXTRACT: note_on channel=11 note=55 velocity=110 time=0.0078125
EXTRACT: note_on channel=11 note=59 velocity=110 time=0.009375000000000001
EXTRACT: note_off channel=10 note=60 velocity=64 time=0.0171875
EXTRACT: note_off channel=3 note=68 velocity=64 time=0.3296875
EXTRACT: note_on channel=3 note=67 velocity=89 time=0.0125
EXTRACT: note_off channel=11 note=53 velocity=64 time=0.36250000000000004
EXTRACT: note_off channel=11 note=55 velocity=64 time=0.009375000000000001
EXTRACT: note_on channel=2 note=53 velocity=83 time=0
EXTRACT: note_on channel=11 note=53 velocity=102 time=0
EXTRACT: note_off channel=3 note=67 velocity=64 time=0.009375000000000001
EXTRACT: note_on channel=11 note=55 velocity=102 time=0
EXTRACT: note_off channel=11 note=59 velocity=64 time=0
EXTRACT: note_on channel=3 note=68 velocity=90 time=0.0015625
EXTRACT: note_on channel=11 note=59 velocity=102 time=0.0078125
EXTRACT: note_on channel=3 note=67 velocity=93 time=0.35781250000000003
EXTRACT: note_off channel=3 note=68 velocity=64 time=0.0140625
EXTRACT: note_off channel=11 note=53 velocity=64 time=0.1625
EXTRACT: note_off channel=11 note=55 velocity=64 time=0.009375000000000001
EXTRACT: note_on channel=11 note=53 velocity=97 time=0
EXTRACT: note_on channel=11 note=55 velocity=97 time=0.009375000000000001
EXTRACT: note_off channel=11 note=59 velocity=64 time=0
EXTRACT: note_on channel=11 note=59 velocity=96 time=0.009375000000000001
EXTRACT: note_off channel=11 note=53 velocity=64 time=0.15937500000000002
EXTRACT: note_off channel=11 note=55 velocity=64 time=0.009375000000000001
EXTRACT: note_on channel=2 note=59 velocity=82 time=0
EXTRACT: note_on channel=11 note=53 velocity=115 time=0
EXTRACT: note_on channel=11 note=55 velocity=114 time=0.009375000000000001
EXTRACT: note_off channel=11 note=59 velocity=64 time=0
EXTRACT: note_on channel=11 note=59 velocity=115 time=0.009375000000000001
EXTRACT: note_on channel=3 note=68 velocity=88 time=0.009375000000000001
EXTRACT: note_off channel=3 note=67 velocity=64 time=0.010937500000000001
EXTRACT: note_off channel=11 note=53 velocity=64 time=0.32656250000000003
EXTRACT: note_off channel=11 note=55 velocity=64 time=0.009375000000000001
EXTRACT: note_on channel=11 note=53 velocity=98 time=0
EXTRACT: note_on channel=3 note=67 velocity=88 time=0.00625
EXTRACT: note_on channel=11 note=55 velocity=98 time=0.003125
EXTRACT: note_off channel=11 note=59 velocity=64 time=0
EXTRACT: note_on channel=11 note=59 velocity=99 time=0.009375000000000001
EXTRACT: note_off channel=3 note=68 velocity=64 time=0.0015625
EXTRACT: note_off channel=3 note=67 velocity=64 time=0.0421875
EXTRACT: note_off channel=11 note=53 velocity=64 time=0.07968750000000001
EXTRACT: note_off channel=11 note=55 velocity=64 time=0.009375000000000001
EXTRACT: note_on channel=11 note=53 velocity=94 time=0
EXTRACT: note_on channel=3 note=67 velocity=91 time=0.004687500000000001
EXTRACT: note_on channel=11 note=55 velocity=94 time=0.004687500000000001
EXTRACT: note_off channel=11 note=59 velocity=64 time=0
EXTRACT: note_on channel=11 note=59 velocity=94 time=0.009375000000000001
EXTRACT: note_on channel=3 note=72 velocity=88 time=0.3328125
EXTRACT: note_off channel=10 note=43 velocity=64 time=0.0171875
EXTRACT: note_off channel=11 note=53 velocity=64 time=0
EXTRACT: note_off channel=3 note=67 velocity=64 time=0.0015625
EXTRACT: note_on channel=10 note=43 velocity=76 time=0.004687500000000001
EXTRACT: note_on channel=11 note=53 velocity=86 time=0
EXTRACT: note_off channel=11 note=55 velocity=64 time=0.003125
EXTRACT: note_on channel=11 note=55 velocity=87 time=0.00625
EXTRACT: note_off channel=11 note=59 velocity=64 time=0.003125
EXTRACT: note_on channel=11 note=59 velocity=87 time=0.00625
EXTRACT: note_off channel=3 note=72 velocity=64 time=0.24531250000000002
EXTRACT: note_off channel=11 note=53 velocity=64 time=0.046875
EXTRACT: note_off channel=10 note=43 velocity=64 time=0.0125
EXTRACT: note_off channel=2 note=43 velocity=64 time=0.00625
EXTRACT: note_off channel=10 note=59 velocity=64 time=0
EXTRACT: note_off channel=11 note=55 velocity=64 time=0.0203125
EXTRACT: note_off channel=2 note=59 velocity=64 time=0.004687500000000001
EXTRACT: note_on channel=3 note=72 velocity=90 time=0.0015625
EXTRACT: note_off channel=2 note=53 velocity=64 time=0.003125
EXTRACT: note_off channel=11 note=59 velocity=64 time=0.00625
EXTRACT: note_off channel=10 note=53 velocity=64 time=0.003125
EXTRACT: note_on channel=2 note=51 velocity=81 time=0.00625
EXTRACT: note_on channel=10 note=41 velocity=68 time=0
EXTRACT: note_on channel=10 note=44 velocity=68 time=0
EXTRACT: note_on channel=10 note=56 velocity=70 time=0
EXTRACT: note_on channel=10 note=60 velocity=86 time=0
EXTRACT: note_on channel=11 note=53 velocity=110 time=0
EXTRACT: note_on channel=11 note=56 velocity=110 time=0.009375000000000001
EXTRACT: note_on channel=11 note=60 velocity=110 time=0.009375000000000001
EXTRACT: note_off channel=3 note=72 velocity=64 time=0.5703125
EXTRACT: note_off channel=11 note=53 velocity=64 time=0.15156250000000002
EXTRACT: note_off channel=11 note=56 velocity=64 time=0.009375000000000001
EXTRACT: note_on channel=2 note=53 velocity=82 time=0
EXTRACT: note_on channel=11 note=53 velocity=102 time=0
EXTRACT: note_on channel=11 note=56 velocity=102 time=0.009375000000000001
EXTRACT: note_off channel=11 note=60 velocity=64 time=0
EXTRACT: note_on channel=11 note=60 velocity=102 time=0.009375000000000001
EXTRACT: note_off channel=11 note=53 velocity=64 time=0.384375
EXTRACT: note_off channel=11 note=56 velocity=64 time=0.009375000000000001
EXTRACT: note_on channel=11 note=53 velocity=96 time=0
EXTRACT: note_on channel=11 note=56 velocity=96 time=0.009375000000000001
EXTRACT: note_off channel=11 note=60 velocity=64 time=0
EXTRACT: note_on channel=11 note=60 velocity=96 time=0.009375000000000001
EXTRACT: note_on channel=3 note=75 velocity=92 time=0.13593750000000002
EXTRACT: note_off channel=11 note=53 velocity=64 time=0.0234375
EXTRACT: note_off channel=11 note=56 velocity=64 time=0.009375000000000001
EXTRACT: note_on channel=2 note=60 velocity=82 time=0
EXTRACT: note_on channel=11 note=53 velocity=115 time=0
EXTRACT: note_on channel=11 note=56 velocity=114 time=0.009375000000000001
EXTRACT: note_off channel=11 note=60 velocity=64 time=0
EXTRACT: note_on channel=11 note=60 velocity=114 time=0.009375000000000001
EXTRACT: note_off channel=3 note=75 velocity=64 time=0.225
EXTRACT: note_on channel=3 note=77 velocity=88 time=0.0015625
EXTRACT: note_off channel=11 note=53 velocity=64 time=0.1203125
EXTRACT: note_off channel=11 note=56 velocity=64 time=0.009375000000000001
EXTRACT: note_on channel=11 note=53 velocity=98 time=0
EXTRACT: note_on channel=11 note=56 velocity=98 time=0.009375000000000001
EXTRACT: note_off channel=11 note=60 velocity=64 time=0
EXTRACT: note_on channel=11 note=60 velocity=99 time=0.009375000000000001
EXTRACT: note_on channel=3 note=74 velocity=93 time=0.1046875
EXTRACT: note_off channel=3 note=77 velocity=64 time=0.009375000000000001
EXTRACT: note_off channel=11 note=53 velocity=64 time=0.2328125
EXTRACT: note_on channel=3 note=75 velocity=89 time=0.0078125
EXTRACT: note_off channel=11 note=56 velocity=64 time=0.0015625
EXTRACT: note_on channel=11 note=53 velocity=104 time=0
EXTRACT: note_off channel=3 note=74 velocity=64 time=0.003125
EXTRACT: note_on channel=11 note=56 velocity=105 time=0.00625
EXTRACT: note_off channel=11 note=60 velocity=64 time=0
EXTRACT: note_on channel=11 note=60 velocity=105 time=0.009375000000000001
EXTRACT: note_on channel=3 note=72 velocity=90 time=0.26406250000000003
EXTRACT: note_off channel=3 note=75 velocity=64 time=0.015625
EXTRACT: note_off channel=10 note=56 velocity=64 time=0.21875
EXTRACT: note_off channel=3 note=72 velocity=64 time=0.015625
EXTRACT: note_on channel=3 note=74 velocity=90 time=0.004687500000000001
EXTRACT: note_off channel=2 note=51 velocity=64 time=0.16718750000000002
EXTRACT: note_off channel=11 note=60 velocity=64 time=0
EXTRACT: note_off channel=11 note=53 velocity=64 time=0.0171875
EXTRACT: note_off channel=11 note=56 velocity=64 time=0.003125
EXTRACT: note_off channel=2 note=60 velocity=64 time=0.004687500000000001
EXTRACT: note_off channel=2 note=53 velocity=64 time=0.004687500000000001
EXTRACT: note_on channel=2 note=46 velocity=81 time=0.015625
EXTRACT: note_on channel=10 note=46 velocity=77 time=0
EXTRACT: note_on channel=10 note=55 velocity=72 time=0
EXTRACT: note_on channel=10 note=62 velocity=85 time=0
EXTRACT: note_on channel=11 note=55 velocity=110 time=0
EXTRACT: note_off channel=10 note=41 velocity=64 time=0.0015625
EXTRACT: note_off channel=10 note=44 velocity=64 time=0
EXTRACT: note_on channel=11 note=58 velocity=111 time=0.0078125
EXTRACT: note_on channel=11 note=62 velocity=111 time=0.009375000000000001
EXTRACT: note_off channel=3 note=74 velocity=64 time=0.010937500000000001
EXTRACT: note_off channel=10 note=60 velocity=64 time=0.00625
EXTRACT: note_on channel=3 note=70 velocity=92 time=0.003125
EXTRACT: note_off channel=11 note=55 velocity=64 time=0.7015625000000001
EXTRACT: note_off channel=11 note=58 velocity=64 time=0.009375000000000001
EXTRACT: note_on channel=2 note=55 velocity=70 time=0
EXTRACT: note_on channel=11 note=55 velocity=102 time=0
EXTRACT: note_off channel=11 note=62 velocity=64 time=0.009375000000000001
EXTRACT: note_on channel=11 note=58 velocity=103 time=0
EXTRACT: note_on channel=11 note=62 velocity=103 time=0.009375000000000001
EXTRACT: note_off channel=3 note=70 velocity=64 time=0.009375000000000001
EXTRACT: note_off channel=11 note=55 velocity=64 time=0.215625
EXTRACT: note_off channel=11 note=58 velocity=64 time=0.009375000000000001
EXTRACT: note_on channel=11 note=55 velocity=96 time=0
EXTRACT: note_off channel=11 note=62 velocity=64 time=0.009375000000000001
EXTRACT: note_on channel=11 note=58 velocity=96 time=0
EXTRACT: note_on channel=11 note=62 velocity=97 time=0.009375000000000001
EXTRACT: note_on channel=3 note=79 velocity=90 time=0.1484375
EXTRACT: note_off channel=11 note=55 velocity=64 time=0.010937500000000001
EXTRACT: note_off channel=10 note=55 velocity=64 time=0.003125
EXTRACT: note_off channel=2 note=55 velocity=64 time=0
EXTRACT: note_off channel=11 note=58 velocity=64 time=0.00625
EXTRACT: note_on channel=2 note=56 velocity=70 time=0
EXTRACT: note_on channel=2 note=62 velocity=74 time=0
EXTRACT: note_on channel=10 note=56 velocity=72 time=0
EXTRACT: note_on channel=11 note=56 velocity=115 time=0
EXTRACT: note_off channel=11 note=62 velocity=64 time=0.009375000000000001
EXTRACT: note_on channel=11 note=58 velocity=115 time=0
EXTRACT: note_on channel=11 note=62 velocity=115 time=0.009375000000000001
EXTRACT: note_off channel=11 note=56 velocity=64 time=0.34687500000000004
EXTRACT: note_off channel=11 note=58 velocity=64 time=0.009375000000000001
EXTRACT: note_on channel=11 note=56 velocity=98 time=0
EXTRACT: note_off channel=11 note=62 velocity=64 time=0.009375000000000001
EXTRACT: note_on channel=11 note=58 velocity=98 time=0
EXTRACT: note_on channel=11 note=62 velocity=98 time=0.009375000000000001
EXTRACT: note_off channel=11 note=56 velocity=64 time=0.34687500000000004
EXTRACT: note_off channel=10 note=46 velocity=64 time=0.003125
EXTRACT: note_off channel=10 note=62 velocity=64 time=0
EXTRACT: note_off channel=10 note=56 velocity=64 time=0
EXTRACT: note_off channel=11 note=58 velocity=64 time=0.00625
EXTRACT: note_on channel=10 note=46 velocity=77 time=0
EXTRACT: note_on channel=10 note=56 velocity=72 time=0
EXTRACT: note_on channel=10 note=62 velocity=85 time=0
EXTRACT: note_on channel=11 note=56 velocity=105 time=0
EXTRACT: note_off channel=11 note=62 velocity=64 time=0.009375000000000001
EXTRACT: note_on channel=11 note=58 velocity=105 time=0
EXTRACT: note_on channel=11 note=62 velocity=104 time=0.009375000000000001
EXTRACT: note_on channel=3 note=70 velocity=92 time=0.32343750000000004
EXTRACT: note_off channel=3 note=79 velocity=64 time=0.025
EXTRACT: note_off channel=11 note=56 velocity=64 time=0.31875000000000003
EXTRACT: note_off channel=10 note=46 velocity=64 time=0.0125
EXTRACT: note_off channel=2 note=46 velocity=64 time=0.00625
EXTRACT: note_off channel=10 note=62 velocity=64 time=0
EXTRACT: note_on channel=3 note=75 velocity=90 time=0.018750000000000003
EXTRACT: note_off channel=11 note=58 velocity=64 time=0.0015625
EXTRACT: note_off channel=3 note=70 velocity=64 time=0.003125
EXTRACT: note_off channel=2 note=62 velocity=64 time=0.0015625
EXTRACT: note_off channel=2 note=56 velocity=64 time=0.004687500000000001
EXTRACT: note_off channel=11 note=62 velocity=64 time=0.00625
EXTRACT: note_on channel=2 note=51 velocity=80 time=0
EXTRACT: note_on channel=10 note=51 velocity=68 time=0.009375000000000001
EXTRACT: note_on channel=10 note=55 velocity=68 time=0
EXTRACT: note_on channel=10 note=58 velocity=70 time=0
EXTRACT: note_on channel=10 note=63 velocity=75 time=0
EXTRACT: note_on channel=11 note=55 velocity=110 time=0
EXTRACT: note_on channel=11 note=58 velocity=110 time=0.009375000000000001
EXTRACT: note_off channel=10 note=56 velocity=64 time=0.004687500000000001
EXTRACT: note_on channel=11 note=63 velocity=110 time=0.004687500000000001
EXTRACT: note_on channel=2 note=58 velocity=71 time=0.35625
EXTRACT: control_change channel=14 control=11 value=0 time=0.20625000000000002
EXTRACT: control_change channel=14 control=11 value=1 time=0.08125
EXTRACT: control_change channel=14 control=11 value=2 time=0.0140625
EXTRACT: control_change channel=14 control=11 value=3 time=0.026562500000000003
EXTRACT: control_change channel=14 control=11 value=4 time=0.028125
EXTRACT: note_off channel=11 note=55 velocity=64 time=0.009375000000000001
EXTRACT: note_off channel=11 note=58 velocity=64 time=0.009375000000000001
EXTRACT: note_on channel=2 note=67 velocity=75 time=0
EXTRACT: note_on channel=11 note=55 velocity=102 time=0
EXTRACT: control_change channel=14 control=11 value=5 time=0.0078125
EXTRACT: note_off channel=11 note=63 velocity=64 time=0.0015625
EXTRACT: note_on channel=11 note=58 velocity=102 time=0
EXTRACT: note_on channel=11 note=63 velocity=103 time=0.009375000000000001
EXTRACT: control_change channel=14 control=11 value=6 time=0.003125
EXTRACT: control_change channel=14 control=11 value=7 time=0.026562500000000003
EXTRACT: control_change channel=14 control=11 value=8 time=0.026562500000000003
EXTRACT: control_change channel=14 control=11 value=9 time=0.028125
EXTRACT: control_change channel=14 control=11 value=10 time=0.040625
EXTRACT: control_change channel=14 control=11 value=11 time=0.026562500000000003
EXTRACT: note_on channel=14 note=82 velocity=56 time=0.0171875
EXTRACT: control_change channel=14 control=11 value=12 time=0.010937500000000001
EXTRACT: control_change channel=14 control=11 value=13 time=0.0125
EXTRACT: control_change channel=14 control=11 value=14 time=0.028125
EXTRACT: control_change channel=14 control=11 value=15 time=0.026562500000000003
EXTRACT: control_change channel=14 control=11 value=16 time=0.026562500000000003
EXTRACT: control_change channel=14 control=11 value=17 time=0.0140625
EXTRACT: control_change channel=14 control=11 value=18 time=0.026562500000000003
EXTRACT: control_change channel=14 control=11 value=19 time=0.0546875
EXTRACT: control_change channel=14 control=11 value=20 time=0.0140625
EXTRACT: control_change channel=14 control=11 value=21 time=0.026562500000000003
EXTRACT: control_change channel=14 control=11 value=22 time=0.028125
EXTRACT: control_change channel=14 control=11 value=23 time=0.026562500000000003
EXTRACT: control_change channel=14 control=11 value=24 time=0.0140625
EXTRACT: control_change channel=14 control=11 value=25 time=0.026562500000000003
EXTRACT: control_change channel=14 control=11 value=26 time=0.026562500000000003
EXTRACT: note_off channel=11 note=55 velocity=64 time=0.003125
EXTRACT: note_off channel=11 note=58 velocity=64 time=0.009375000000000001
EXTRACT: note_on channel=11 note=55 velocity=97 time=0
EXTRACT: note_off channel=11 note=63 velocity=64 time=0.009375000000000001
EXTRACT: note_on channel=11 note=58 velocity=96 time=0
EXTRACT: control_change channel=14 control=11 value=27 time=0.00625
EXTRACT: note_on channel=11 note=63 velocity=97 time=0.003125
EXTRACT: control_change channel=14 control=11 value=28 time=0.037500000000000006
EXTRACT: control_change channel=14 control=11 value=29 time=0.026562500000000003
EXTRACT: control_change channel=14 control=11 value=30 time=0.028125
EXTRACT: control_change channel=14 control=11 value=31 time=0.0125
EXTRACT: control_change channel=14 control=11 value=31 time=0.028125
EXTRACT: note_off channel=2 note=58 velocity=64 time=0.0203125
EXTRACT: note_off channel=11 note=55 velocity=64 time=0.00625
EXTRACT: control_change channel=14 control=11 value=32 time=0
EXTRACT: note_off channel=10 note=51 velocity=64 time=0.003125
EXTRACT: note_off channel=10 note=55 velocity=64 time=0
EXTRACT: note_off channel=10 note=58 velocity=64 time=0
EXTRACT: note_off channel=10 note=63 velocity=64 time=0
EXTRACT: note_off channel=2 note=67 velocity=64 time=0
EXTRACT: note_off channel=2 note=51 velocity=64 time=0
EXTRACT: note_off channel=11 note=58 velocity=64 time=0.00625
EXTRACT: note_on channel=2 note=48 velocity=80 time=0
EXTRACT: note_on channel=10 note=48 velocity=69 time=0
EXTRACT: note_on channel=10 note=55 velocity=69 time=0
EXTRACT: note_on channel=10 note=58 velocity=70 time=0
EXTRACT: note_on channel=10 note=63 velocity=74 time=0
EXTRACT: note_on channel=10 note=70 velocity=58 time=0
EXTRACT: note_on channel=11 note=55 velocity=114 time=0
EXTRACT: note_off channel=11 note=63 velocity=64 time=0.009375000000000001
EXTRACT: note_on channel=11 note=58 velocity=115 time=0
EXTRACT: control_change channel=14 control=11 value=34 time=0.0078125
EXTRACT: note_on channel=11 note=63 velocity=114 time=0.0015625
EXTRACT: control_change channel=14 control=11 value=35 time=0.0125
EXTRACT: control_change channel=14 control=11 value=36 time=0.026562500000000003
EXTRACT: control_change channel=14 control=11 value=37 time=0.0546875
EXTRACT: control_change channel=14 control=11 value=38 time=0.0140625
EXTRACT: control_change channel=14 control=11 value=38 time=0.026562500000000003
EXTRACT: control_change channel=14 control=11 value=41 time=0.028125
EXTRACT: control_change channel=14 control=11 value=40 time=0.026562500000000003
EXTRACT: control_change channel=14 control=11 value=42 time=0.0140625
EXTRACT: control_change channel=14 control=11 value=42 time=0.026562500000000003
EXTRACT: control_change channel=14 control=11 value=44 time=0.026562500000000003
EXTRACT: control_change channel=14 control=11 value=45 time=0.028125
EXTRACT: control_change channel=14 control=11 value=47 time=0.040625
EXTRACT: note_off channel=11 note=55 velocity=64 time=0.009375000000000001
EXTRACT: control_change channel=14 control=11 value=46 time=0.004687500000000001
EXTRACT: note_off channel=11 note=58 velocity=64 time=0.004687500000000001
EXTRACT: note_on channel=10 note=72 velocity=54 time=0
EXTRACT: note_on channel=11 note=55 velocity=98 time=0
EXTRACT: note_off channel=11 note=63 velocity=64 time=0.009375000000000001
EXTRACT: note_on channel=2 note=58 velocity=70 time=0
EXTRACT: note_on channel=11 note=58 velocity=99 time=0
EXTRACT: note_on channel=11 note=63 velocity=98 time=0.009375000000000001
EXTRACT: control_change channel=14 control=11 value=48 time=0.004687500000000001
EXTRACT: control_change channel=14 control=11 value=48 time=0.0125
EXTRACT: control_change channel=14 control=11 value=50 time=0.028125
EXTRACT: control_change channel=14 control=11 value=50 time=0.026562500000000003
EXTRACT: control_change channel=14 control=11 value=52 time=0.026562500000000003
EXTRACT: control_change channel=14 control=11 value=52 time=0.0140625
EXTRACT: control_change channel=14 control=11 value=54 time=0.026562500000000003
EXTRACT: control_change channel=14 control=11 value=54 time=0.0546875
EXTRACT: control_change channel=14 control=11 value=57 time=0.0140625
EXTRACT: control_change channel=14 control=11 value=56 time=0.026562500000000003
EXTRACT: control_change channel=14 control=11 value=58 time=0.028125
EXTRACT: control_change channel=14 control=11 value=58 time=0.026562500000000003
EXTRACT: control_change channel=14 control=11 value=60 time=0.0140625
EXTRACT: control_change channel=14 control=11 value=61 time=0.026562500000000003
EXTRACT: note_off channel=11 note=55 velocity=64 time=0.0171875
EXTRACT: note_off channel=11 note=58 velocity=64 time=0.009375000000000001
EXTRACT: note_on channel=10 note=75 velocity=58 time=0
EXTRACT: note_on channel=11 note=67 velocity=114 time=0
EXTRACT: control_change channel=14 control=11 value=62 time=0
EXTRACT: note_off channel=11 note=63 velocity=64 time=0.009375000000000001
EXTRACT: note_on channel=2 note=63 velocity=74 time=0
EXTRACT: note_on channel=11 note=58 velocity=114 time=0
EXTRACT: note_on channel=11 note=63 velocity=114 time=0.009375000000000001
EXTRACT: control_change channel=14 control=11 value=63 time=0.009375000000000001
EXTRACT: control_change channel=14 control=11 value=65 time=0.040625
EXTRACT: control_change channel=14 control=11 value=64 time=0.026562500000000003
EXTRACT: control_change channel=14 control=11 value=67 time=0.028125
EXTRACT: control_change channel=14 control=11 value=67 time=0.0125
EXTRACT: control_change channel=14 control=11 value=68 time=0.028125
EXTRACT: control_change channel=14 control=11 value=69 time=0.026562500000000003
EXTRACT: control_change channel=14 control=11 value=71 time=0.026562500000000003
EXTRACT: control_change channel=14 control=11 value=70 time=0.0140625
EXTRACT: control_change channel=14 control=11 value=72 time=0.028125
EXTRACT: control_change channel=14 control=11 value=73 time=0.053125000000000006
EXTRACT: control_change channel=14 control=11 value=75 time=0.0140625
EXTRACT: control_change channel=14 control=11 value=75 time=0.026562500000000003
EXTRACT: control_change channel=14 control=11 value=77 time=0.028125
EXTRACT: control_change channel=14 control=11 value=76 time=0.026562500000000003
EXTRACT: control_change channel=14 control=11 value=78 time=0.0140625
EXTRACT: control_change channel=14 control=11 value=78 time=0.026562500000000003
EXTRACT: control_change channel=14 control=11 value=81 time=0.028125
EXTRACT: control_change channel=14 control=11 value=81 time=0.026562500000000003
EXTRACT: control_change channel=14 control=11 value=82 time=0.040625
EXTRACT: control_change channel=14 control=11 value=82 time=0.026562500000000003
EXTRACT: control_change channel=14 control=11 value=84 time=0.028125
EXTRACT: control_change channel=14 control=11 value=84 time=0.0125
EXTRACT: control_change channel=14 control=11 value=86 time=0.028125
EXTRACT: control_change channel=14 control=11 value=86 time=0.026562500000000003
EXTRACT: control_change channel=14 control=11 value=89 time=0.028125
EXTRACT: note_off channel=11 note=63 velocity=64 time=0.010937500000000001
EXTRACT: control_change channel=14 control=11 value=89 time=0.0015625
EXTRACT: note_off channel=3 note=75 velocity=64 time=0.0140625
EXTRACT: note_off channel=11 note=67 velocity=64 time=0.0015625
EXTRACT: note_off channel=11 note=58 velocity=64 time=0.003125
EXTRACT: note_on channel=3 note=79 velocity=90 time=0.003125
EXTRACT: control_change channel=14 control=11 value=90 time=0.00625
EXTRACT: note_off channel=10 note=75 velocity=64 time=0.004687500000000001
EXTRACT: note_off channel=2 note=58 velocity=64 time=0.004687500000000001
EXTRACT: note_off channel=10 note=48 velocity=64 time=0
EXTRACT: note_off channel=10 note=55 velocity=64 time=0
EXTRACT: note_off channel=10 note=58 velocity=64 time=0
EXTRACT: note_off channel=10 note=63 velocity=64 time=0
EXTRACT: note_on channel=10 note=43 velocity=68 time=0
EXTRACT: note_on channel=10 note=55 velocity=68 time=0
EXTRACT: note_on channel=10 note=58 velocity=70 time=0
EXTRACT: note_on channel=10 note=62 velocity=74 time=0
EXTRACT: note_on channel=10 note=74 velocity=62 time=0
EXTRACT: note_on channel=11 note=55 velocity=111 time=0
EXTRACT: note_off channel=2 note=63 velocity=64 time=0.003125
EXTRACT: note_off channel=2 note=48 velocity=64 time=0
EXTRACT: note_on channel=2 note=43 velocity=80 time=0.00625
EXTRACT: note_on channel=11 note=58 velocity=111 time=0
EXTRACT: note_on channel=11 note=62 velocity=110 time=0.009375000000000001
EXTRACT: note_off channel=10 note=72 velocity=64 time=0.00625
EXTRACT: control_change channel=14 control=11 value=91 time=0.0125
EXTRACT: control_change channel=14 control=11 value=92 time=0.0140625
EXTRACT: control_change channel=14 control=11 value=93 time=0.026562500000000003
EXTRACT: control_change channel=14 control=11 value=94 time=0.028125
EXTRACT: control_change channel=14 control=11 value=94 time=0.026562500000000003
EXTRACT: control_change channel=14 control=11 value=97 time=0.0140625
EXTRACT: control_change channel=14 control=11 value=96 time=0.026562500000000003
EXTRACT: control_change channel=14 control=11 value=98 time=0.028125
EXTRACT: control_change channel=14 control=11 value=98 time=0.026562500000000003
EXTRACT: control_change channel=14 control=11 value=100 time=0.040625
EXTRACT: control_change channel=14 control=11 value=101 time=0.026562500000000003
EXTRACT: control_change channel=14 control=11 value=103 time=0.028125
EXTRACT: control_change channel=14 control=11 value=102 time=0.0125
EXTRACT: control_change channel=14 control=11 value=104 time=0.028125
EXTRACT: control_change channel=14 control=11 value=104 time=0.026562500000000003
EXTRACT: note_on channel=2 note=58 velocity=70 time=0.004687500000000001
EXTRACT: control_change channel=14 control=11 value=106 time=0.0234375
EXTRACT: control_change channel=14 control=11 value=106 time=0.0125
EXTRACT: control_change channel=14 control=11 value=108 time=0.028125
EXTRACT: control_change channel=14 control=11 value=108 time=0.053125000000000006
EXTRACT: control_change channel=14 control=11 value=110 time=0.0140625
EXTRACT: control_change channel=14 control=11 value=110 time=0.026562500000000003
EXTRACT: control_change channel=14 control=11 value=113 time=0.028125
EXTRACT: note_off channel=3 note=79 velocity=64 time=0.021875000000000002
EXTRACT: control_change channel=14 control=11 value=112 time=0.004687500000000001
EXTRACT: control_change channel=14 control=11 value=114 time=0.0140625
EXTRACT: control_change channel=14 control=11 value=114 time=0.026562500000000003
EXTRACT: control_change channel=14 control=11 value=116 time=0.028125
EXTRACT: control_change channel=14 control=11 value=117 time=0.026562500000000003
EXTRACT: note_off channel=11 note=55 velocity=64 time=0.037500000000000006
EXTRACT: control_change channel=14 control=11 value=118 time=0.003125
EXTRACT: note_off channel=11 note=58 velocity=64 time=0.00625
EXTRACT: note_on channel=11 note=55 velocity=102 time=0
EXTRACT: note_off channel=11 note=62 velocity=64 time=0.009375000000000001
EXTRACT: note_on channel=11 note=58 velocity=102 time=0
EXTRACT: note_on channel=11 note=62 velocity=102 time=0.009375000000000001
EXTRACT: note_on channel=2 note=67 velocity=74 time=0.0015625
EXTRACT: control_change channel=14 control=11 value=119 time=0
EXTRACT: control_change channel=14 control=11 value=121 time=0.028125
EXTRACT: control_change channel=14 control=11 value=120 time=0.0125
EXTRACT: control_change channel=14 control=11 value=123 time=0.028125
EXTRACT: control_change channel=14 control=11 value=123 time=0.026562500000000003
EXTRACT: control_change channel=14 control=11 value=124 time=0.028125
EXTRACT: control_change channel=14 control=11 value=125 time=0.0125
EXTRACT: control_change channel=14 control=11 value=127 time=0.028125
EXTRACT: control_change channel=14 control=11 value=126 time=0.026562500000000003
EXTRACT: note_on channel=3 note=67 velocity=92 time=0.14375000000000002
EXTRACT: note_off channel=11 note=55 velocity=64 time=0.19843750000000002
EXTRACT: note_off channel=11 note=58 velocity=64 time=0.009375000000000001
EXTRACT: note_on channel=11 note=55 velocity=96 time=0
EXTRACT: note_off channel=11 note=62 velocity=64 time=0.009375000000000001
EXTRACT: note_on channel=11 note=58 velocity=96 time=0
EXTRACT: note_on channel=11 note=62 velocity=96 time=0.009375000000000001
EXTRACT: note_off channel=3 note=67 velocity=64 time=0.037500000000000006
EXTRACT: note_off channel=10 note=70 velocity=64 time=0.10625000000000001
EXTRACT: note_off channel=10 note=58 velocity=64 time=0.010937500000000001
EXTRACT: note_off channel=10 note=74 velocity=64 time=0.004687500000000001
EXTRACT: note_off channel=11 note=55 velocity=64 time=0
EXTRACT: note_off channel=14 note=82 velocity=64 time=0.003125
EXTRACT: note_off channel=10 note=43 velocity=64 time=0
EXTRACT: note_off channel=10 note=55 velocity=64 time=0
EXTRACT: note_off channel=11 note=58 velocity=64 time=0.00625
EXTRACT: note_on channel=1 note=39 velocity=99 time=0
EXTRACT: note_on channel=3 note=70 velocity=92 time=0
EXTRACT: note_on channel=9 note=35 velocity=108 time=0
EXTRACT: note_on channel=9 note=42 velocity=72 time=0
EXTRACT: note_on channel=10 note=51 velocity=78 time=0
EXTRACT: note_on channel=10 note=58 velocity=88 time=0
EXTRACT: note_on channel=10 note=63 velocity=81 time=0
EXTRACT: note_on channel=10 note=67 velocity=98 time=0
EXTRACT: note_on channel=11 note=55 velocity=120 time=0
EXTRACT: note_off channel=2 note=58 velocity=64 time=0.003125
EXTRACT: note_off channel=11 note=62 velocity=64 time=0.00625
EXTRACT: note_on channel=11 note=58 velocity=120 time=0
EXTRACT: note_off channel=2 note=43 velocity=64 time=0.004687500000000001
EXTRACT: note_off channel=2 note=67 velocity=64 time=0
EXTRACT: note_on channel=11 note=63 velocity=121 time=0.004687500000000001
EXTRACT: note_off channel=10 note=62 velocity=64 time=0.009375000000000001
EXTRACT: note_off channel=9 note=35 velocity=64 time=0.053125000000000006
EXTRACT: note_off channel=9 note=42 velocity=64 time=0.07187500000000001
EXTRACT: control_change channel=10 control=64 value=127 time=0.0328125
EXTRACT: note_off channel=3 note=70 velocity=64 time=0.09062500000000001
EXTRACT: note_off channel=10 note=58 velocity=64 time=0.0703125
EXTRACT: note_on channel=9 note=42 velocity=49 time=0.028125
EXTRACT: note_on channel=3 note=70 velocity=91 time=0.00625
EXTRACT: note_off channel=1 note=39 velocity=64 time=0.09843750000000001
EXTRACT: note_off channel=9 note=42 velocity=64 time=0.009375000000000001
EXTRACT: note_on channel=1 note=39 velocity=98 time=0.1125
EXTRACT: note_off channel=3 note=70 velocity=64 time=0.065625
EXTRACT: note_off channel=11 note=55 velocity=64 time=0.0734375
EXTRACT: note_off channel=11 note=58 velocity=64 time=0.009375000000000001
EXTRACT: note_on channel=9 note=38 velocity=108 time=0
EXTRACT: note_on channel=9 note=42 velocity=80 time=0
EXTRACT: note_on channel=10 note=58 velocity=76 time=0
EXTRACT: note_on channel=11 note=55 velocity=112 time=0
EXTRACT: note_off channel=11 note=63 velocity=64 time=0.009375000000000001
EXTRACT: note_on channel=11 note=58 velocity=112 time=0
EXTRACT: note_on channel=11 note=63 velocity=112 time=0.009375000000000001
EXTRACT: note_on channel=3 note=70 velocity=90 time=0.0015625
EXTRACT: note_off channel=1 note=39 velocity=64 time=0.0015625
EXTRACT: note_off channel=10 note=51 velocity=64 time=0.09531250000000001
EXTRACT: note_off channel=9 note=38 velocity=64 time=0.015625
EXTRACT: note_off channel=9 note=42 velocity=64 time=0.0078125
EXTRACT: note_on channel=1 note=36 velocity=98 time=0.1046875
EXTRACT: note_off channel=3 note=70 velocity=64 time=0.035937500000000004
EXTRACT: note_off channel=1 note=36 velocity=64 time=0.0328125
EXTRACT: note_on channel=1 note=39 velocity=98 time=0.029687500000000002
EXTRACT: note_off channel=10 note=63 velocity=64 time=0.0234375
EXTRACT: note_off channel=10 note=67 velocity=64 time=0.0015625
EXTRACT: note_off channel=10 note=58 velocity=64 time=0.00625
EXTRACT: note_on channel=9 note=42 velocity=50 time=0
EXTRACT: note_on channel=10 note=51 velocity=78 time=0
EXTRACT: note_on channel=3 note=70 velocity=92 time=0.004687500000000001
EXTRACT: note_off channel=9 note=42 velocity=64 time=0.1015625
EXTRACT: note_off channel=1 note=39 velocity=64 time=0.053125000000000006
EXTRACT: note_off channel=11 note=55 velocity=64 time=0.018750000000000003
EXTRACT: note_off channel=11 note=58 velocity=64 time=0.009375000000000001
EXTRACT: note_on channel=11 note=55 velocity=104 time=0
EXTRACT: note_off channel=11 note=63 velocity=64 time=0.009375000000000001
EXTRACT: note_on channel=11 note=58 velocity=105 time=0
EXTRACT: note_on channel=11 note=63 velocity=104 time=0.009375000000000001
EXTRACT: note_on channel=9 note=38 velocity=34 time=0.010937500000000001
EXTRACT: note_on channel=1 note=36 velocity=96 time=0.003125
EXTRACT: note_off channel=9 note=38 velocity=64 time=0.010937500000000001
EXTRACT: note_on channel=9 note=38 velocity=31 time=0.025
EXTRACT: note_off channel=9 note=38 velocity=64 time=0.0125
EXTRACT: note_on channel=9 note=38 velocity=33 time=0.028125
EXTRACT: note_off channel=1 note=36 velocity=64 time=0.0015625
EXTRACT: note_off channel=9 note=38 velocity=64 time=0.010937500000000001
EXTRACT: note_on channel=9 note=38 velocity=38 time=0.021875000000000002
EXTRACT: note_off channel=9 note=38 velocity=64 time=0.0125
EXTRACT: note_on channel=1 note=39 velocity=101 time=0.003125
EXTRACT: note_off channel=11 note=55 velocity=64 time=0.018750000000000003
EXTRACT: note_off channel=11 note=58 velocity=64 time=0.009375000000000001
EXTRACT: note_on channel=2 note=63 velocity=78 time=0
EXTRACT: note_on channel=9 note=35 velocity=109 time=0
EXTRACT: note_on channel=9 note=42 velocity=79 time=0
EXTRACT: note_on channel=10 note=58 velocity=68 time=0
EXTRACT: note_on channel=10 note=63 velocity=76 time=0
EXTRACT: note_on channel=10 note=67 velocity=81 time=0
EXTRACT: note_on channel=11 note=55 velocity=123 time=0
EXTRACT: note_off channel=11 note=63 velocity=64 time=0.009375000000000001
EXTRACT: note_on channel=11 note=58 velocity=123 time=0
EXTRACT: note_on channel=11 note=63 velocity=122 time=0.009375000000000001
EXTRACT: note_off channel=9 note=35 velocity=64 time=0.09375
EXTRACT: note_off channel=9 note=42 velocity=64 time=0.0125
EXTRACT: note_off channel=1 note=39 velocity=64 time=0.07500000000000001
EXTRACT: note_off channel=3 note=70 velocity=64 time=0.00625
EXTRACT: note_off channel=10 note=58 velocity=64 time=0.037500000000000006
EXTRACT: note_off channel=11 note=55 velocity=64 time=0.12187500000000001
EXTRACT: note_on channel=1 note=39 velocity=98 time=0.0015625
EXTRACT: note_off channel=11 note=58 velocity=64 time=0.0078125
EXTRACT: note_on channel=9 note=35 velocity=108 time=0
EXTRACT: note_on channel=9 note=42 velocity=51 time=0
EXTRACT: note_on channel=11 note=55 velocity=107 time=0
EXTRACT: note_off channel=11 note=63 velocity=64 time=0.009375000000000001
EXTRACT: note_on channel=11 note=58 velocity=107 time=0
EXTRACT: note_on channel=11 note=63 velocity=106 time=0.009375000000000001
EXTRACT: note_off channel=9 note=42 velocity=64 time=0.084375
EXTRACT: note_off channel=9 note=35 velocity=64 time=0.018750000000000003
EXTRACT: note_off channel=10 note=51 velocity=64 time=0.15156250000000002
EXTRACT: note_off channel=11 note=55 velocity=64 time=0.045312500000000006
EXTRACT: note_off channel=11 note=58 velocity=64 time=0.009375000000000001
EXTRACT: note_on channel=2 note=67 velocity=78 time=0
EXTRACT: note_on channel=9 note=38 velocity=109 time=0
EXTRACT: note_on channel=9 note=42 velocity=84 time=0
EXTRACT: note_on channel=10 note=58 velocity=89 time=0
EXTRACT: note_on channel=11 note=55 velocity=115 time=0
EXTRACT: note_off channel=11 note=63 velocity=64 time=0.009375000000000001
EXTRACT: note_on channel=11 note=58 velocity=115 time=0
EXTRACT: note_off channel=2 note=63 velocity=64 time=0.003125
EXTRACT: note_on channel=11 note=63 velocity=114 time=0.00625
EXTRACT: note_off channel=1 note=39 velocity=64 time=0.035937500000000004
EXTRACT: note_off channel=9 note=38 velocity=64 time=0.06875
EXTRACT: note_off channel=9 note=42 velocity=64 time=0.0140625
EXTRACT: note_off channel=10 note=67 velocity=64 time=0.0671875
EXTRACT: note_off channel=10 note=63 velocity=64 time=0.00625
EXTRACT: note_off channel=10 note=58 velocity=64 time=0.021875000000000002
EXTRACT: note_on channel=3 note=70 velocity=90 time=0.115625
EXTRACT: note_on channel=9 note=42 velocity=47 time=0.026562500000000003
EXTRACT: note_off channel=9 note=42 velocity=64 time=0.1203125
EXTRACT: note_off channel=11 note=63 velocity=64 time=0.209375
EXTRACT: note_off channel=11 note=55 velocity=64 time=0.0171875
EXTRACT: note_off channel=3 note=70 velocity=64 time=0.0015625
EXTRACT: note_off channel=11 note=58 velocity=64 time=0.0015625
EXTRACT: note_on channel=3 note=77 velocity=92 time=0.021875000000000002
EXTRACT: note_on channel=1 note=38 velocity=99 time=0.003125
EXTRACT: note_on channel=9 note=35 velocity=109 time=0
EXTRACT: note_on channel=9 note=42 velocity=72 time=0
EXTRACT: note_on channel=10 note=50 velocity=93 time=0
EXTRACT: note_on channel=10 note=58 velocity=75 time=0
EXTRACT: note_on channel=10 note=62 velocity=92 time=0
EXTRACT: note_on channel=10 note=67 velocity=93 time=0
EXTRACT: note_on channel=11 note=55 velocity=120 time=0
EXTRACT: control_change channel=10 control=64 value=0 time=0.004687500000000001
EXTRACT: note_on channel=11 note=58 velocity=121 time=0.004687500000000001
EXTRACT: note_on channel=11 note=62 velocity=121 time=0.009375000000000001
EXTRACT: note_off channel=2 note=67 velocity=64 time=0.0203125
EXTRACT: note_off channel=9 note=35 velocity=64 time=0.0421875
EXTRACT: note_off channel=9 note=42 velocity=64 time=0.07187500000000001
EXTRACT: control_change channel=10 control=64 value=127 time=0.0484375
EXTRACT: note_on channel=3 note=75 velocity=91 time=0.1625
EXTRACT: note_off channel=3 note=77 velocity=64 time=0.0015625
EXTRACT: note_on channel=2 note=58 velocity=78 time=0.009375000000000001
EXTRACT: note_on channel=9 note=42 velocity=48 time=0
EXTRACT: note_off channel=10 note=58 velocity=64 time=0.025
EXTRACT: note_off channel=1 note=38 velocity=64 time=0.07968750000000001
EXTRACT: note_off channel=9 note=42 velocity=64 time=0.009375000000000001
EXTRACT: note_on channel=1 note=38 velocity=95 time=0.1125
EXTRACT: note_off channel=3 note=75 velocity=64 time=0.11406250000000001
EXTRACT: note_on channel=3 note=74 velocity=88 time=0.015625
EXTRACT: note_off channel=11 note=55 velocity=64 time=0.009375000000000001
EXTRACT: note_off channel=11 note=58 velocity=64 time=0.009375000000000001
EXTRACT: note_on channel=2 note=67 velocity=81 time=0
EXTRACT: note_on channel=9 note=38 velocity=109 time=0
EXTRACT: note_on channel=9 note=42 velocity=81 time=0
EXTRACT: note_on channel=10 note=58 velocity=70 time=0
EXTRACT: note_on channel=11 note=55 velocity=113 time=0
EXTRACT: note_off channel=11 note=62 velocity=64 time=0.009375000000000001
EXTRACT: note_on channel=11 note=58 velocity=113 time=0
EXTRACT: note_on channel=11 note=62 velocity=112 time=0.009375000000000001
EXTRACT: note_off channel=1 note=38 velocity=64 time=0.003125
EXTRACT: note_off channel=10 note=50 velocity=64 time=0.0703125
EXTRACT: note_off channel=9 note=38 velocity=64 time=0.040625
EXTRACT: note_off channel=9 note=42 velocity=64 time=0.0078125
EXTRACT: control_change channel=2 control=64 value=127 time=0.05625
EXTRACT: note_on channel=1 note=36 velocity=96 time=0.0484375
EXTRACT: note_off channel=2 note=58 velocity=64 time=0.037500000000000006
EXTRACT: note_off channel=1 note=36 velocity=64 time=0.03125
EXTRACT: note_off channel=10 note=67 velocity=64 time=0.0203125
EXTRACT: note_on channel=1 note=39 velocity=97 time=0.009375000000000001
EXTRACT: note_on channel=3 note=75 velocity=89 time=0.0015625
EXTRACT: note_off channel=3 note=74 velocity=64 time=0.018750000000000003
EXTRACT: note_on channel=2 note=58 velocity=78 time=0.010937500000000001
EXTRACT: note_on channel=9 note=42 velocity=51 time=0
EXTRACT: note_on channel=10 note=50 velocity=79 time=0
EXTRACT: note_off channel=9 note=42 velocity=64 time=0.10625000000000001
EXTRACT: note_off channel=1 note=39 velocity=64 time=0.053125000000000006
EXTRACT: note_off channel=11 note=55 velocity=64 time=0.018750000000000003
EXTRACT: note_off channel=11 note=58 velocity=64 time=0.009375000000000001
EXTRACT: note_on channel=11 note=55 velocity=104 time=0
EXTRACT: note_off channel=11 note=62 velocity=64 time=0.009375000000000001
EXTRACT: note_on channel=11 note=58 velocity=104 time=0
EXTRACT: note_on channel=11 note=62 velocity=105 time=0.009375000000000001
EXTRACT: note_on channel=9 note=38 velocity=35 time=0.010937500000000001
EXTRACT: note_on channel=1 note=36 velocity=97 time=0.003125
EXTRACT: note_off channel=9 note=38 velocity=64 time=0.010937500000000001
EXTRACT: note_on channel=9 note=38 velocity=31 time=0.025
EXTRACT: note_off channel=9 note=38 velocity=64 time=0.0125
EXTRACT: note_on channel=9 note=38 velocity=32 time=0.028125
EXTRACT: note_off channel=1 note=36 velocity=64 time=0.0015625
EXTRACT: note_off channel=9 note=38 velocity=64 time=0.010937500000000001
EXTRACT: note_off channel=2 note=67 velocity=64 time=0.021875000000000002
EXTRACT: note_on channel=9 note=38 velocity=38 time=0
EXTRACT: note_off channel=9 note=38 velocity=64 time=0.0125
EXTRACT: note_on channel=1 note=38 velocity=96 time=0.003125
EXTRACT: note_on channel=3 note=74 velocity=93 time=0.004687500000000001
EXTRACT: note_off channel=3 note=75 velocity=64 time=0.004687500000000001
EXTRACT: note_off channel=11 note=55 velocity=64 time=0.009375000000000001
EXTRACT: note_off channel=11 note=58 velocity=64 time=0.009375000000000001
EXTRACT: note_on channel=2 note=62 velocity=78 time=0
EXTRACT: note_on channel=9 note=35 velocity=108 time=0
EXTRACT: note_on channel=9 note=42 velocity=79 time=0
EXTRACT: note_on channel=10 note=67 velocity=89 time=0
EXTRACT: note_on channel=11 note=55 velocity=123 time=0
EXTRACT: note_off channel=11 note=62 velocity=64 time=0.009375000000000001
EXTRACT: note_on channel=11 note=58 velocity=122 time=0
EXTRACT: note_on channel=11 note=62 velocity=122 time=0.009375000000000001
EXTRACT: control_change channel=2 control=64 value=0 time=0.08281250000000001
EXTRACT: note_off channel=9 note=35 velocity=64 time=0.010937500000000001
EXTRACT: note_off channel=9 note=42 velocity=64 time=0.0125
EXTRACT: note_off channel=10 note=58 velocity=64 time=0.0203125
EXTRACT: note_off channel=1 note=38 velocity=64 time=0.0125
EXTRACT: note_off channel=3 note=74 velocity=64 time=0.146875
EXTRACT: note_on channel=3 note=72 velocity=92 time=0.015625
EXTRACT: control_change channel=2 control=64 value=127 time=0.0015625
EXTRACT: note_off channel=11 note=55 velocity=64 time=0.0015625
EXTRACT: note_on channel=1 note=38 velocity=99 time=0.0015625
EXTRACT: note_off channel=11 note=58 velocity=64 time=0.0078125
EXTRACT: note_on channel=9 note=35 velocity=109 time=0
EXTRACT: note_on channel=9 note=42 velocity=50 time=0
EXTRACT: note_on channel=11 note=55 velocity=106 time=0
EXTRACT: note_off channel=11 note=62 velocity=64 time=0.009375000000000001
EXTRACT: note_on channel=11 note=58 velocity=106 time=0
EXTRACT: note_on channel=11 note=62 velocity=106 time=0.009375000000000001
EXTRACT: note_off channel=9 note=42 velocity=64 time=0.084375
EXTRACT: note_off channel=9 note=35 velocity=64 time=0.018750000000000003
EXTRACT: control_change channel=2 control=64 value=0 time=0.19375
EXTRACT: note_off channel=11 note=55 velocity=64 time=0.05
EXTRACT: note_off channel=11 note=58 velocity=64 time=0.009375000000000001
EXTRACT: note_on channel=2 note=67 velocity=76 time=0
EXTRACT: note_on channel=9 note=38 velocity=108 time=0
EXTRACT: note_on channel=9 note=42 velocity=84 time=0
EXTRACT: note_on channel=10 note=58 velocity=78 time=0
EXTRACT: note_on channel=11 note=55 velocity=114 time=0
EXTRACT: note_off channel=11 note=62 velocity=64 time=0.009375000000000001
EXTRACT: note_on channel=11 note=58 velocity=115 time=0
EXTRACT: note_on channel=3 note=70 velocity=91 time=0.0015625
EXTRACT: note_off channel=3 note=72 velocity=64 time=0.0015625
EXTRACT: note_on channel=11 note=62 velocity=115 time=0.00625
EXTRACT: note_off channel=1 note=38 velocity=64 time=0.035937500000000004
EXTRACT: note_off channel=10 note=50 velocity=64 time=0.021875000000000002
EXTRACT: note_off channel=9 note=38 velocity=64 time=0.046875
EXTRACT: note_off channel=10 note=67 velocity=64 time=0.004687500000000001
EXTRACT: note_off channel=9 note=42 velocity=64 time=0.009375000000000001
EXTRACT: note_off channel=10 note=62 velocity=64 time=0.046875
EXTRACT: note_off channel=10 note=58 velocity=64 time=0.025
EXTRACT: note_off channel=3 note=70 velocity=64 time=0.15781250000000002
EXTRACT: note_on channel=9 note=42 velocity=46 time=0.0078125
EXTRACT: note_on channel=3 note=72 velocity=91 time=0.0015625
EXTRACT: note_off channel=9 note=42 velocity=64 time=0.11875000000000001
EXTRACT: note_off channel=3 note=72 velocity=64 time=0.15937500000000002
EXTRACT: note_off channel=11 note=55 velocity=64 time=0.03125
EXTRACT: control_change channel=10 control=64 value=0 time=0.0203125
EXTRACT: note_off channel=11 note=58 velocity=64 time=0.018750000000000003
EXTRACT: note_off channel=2 note=67 velocity=64 time=0.004687500000000001
EXTRACT: note_off channel=11 note=62 velocity=64 time=0.010937500000000001
EXTRACT: note_off channel=2 note=62 velocity=64 time=0.0015625
EXTRACT: note_on channel=1 note=36 velocity=99 time=0.0078125
EXTRACT: note_on channel=9 note=35 velocity=108 time=0
EXTRACT: note_on channel=9 note=42 velocity=72 time=0
EXTRACT: note_on channel=10 note=48 velocity=81 time=0
EXTRACT: note_on channel=10 note=55 velocity=103 time=0
EXTRACT: note_on channel=10 note=58 velocity=78 time=0
EXTRACT: note_on channel=10 note=63 velocity=79 time=0
EXTRACT: note_on channel=11 note=63 velocity=120 time=0
EXTRACT: note_on channel=3 note=67 velocity=92 time=0.009375000000000001
EXTRACT: note_on channel=11 note=55 velocity=121 time=0
EXTRACT: note_off channel=2 note=58 velocity=64 time=0.0015625
EXTRACT: note_on channel=11 note=60 velocity=120 time=0.0078125
EXTRACT: note_off channel=9 note=35 velocity=64 time=0.0625
EXTRACT: control_change channel=10 control=64 value=127 time=0.0703125
EXTRACT: note_off channel=9 note=42 velocity=64 time=0.0015625
EXTRACT: note_off channel=3 note=67 velocity=64 time=0.1484375
EXTRACT: note_on channel=2 note=60 velocity=82 time=0.0734375
EXTRACT: note_on channel=9 note=42 velocity=49 time=0
EXTRACT: note_on channel=3 note=67 velocity=91 time=0.009375000000000001
EXTRACT: note_off channel=1 note=36 velocity=64 time=0.09531250000000001
EXTRACT: note_off channel=10 note=55 velocity=64 time=0.0015625
EXTRACT: note_off channel=9 note=42 velocity=64 time=0.0078125
EXTRACT: note_on channel=1 note=36 velocity=96 time=0.1125
EXTRACT: note_off channel=10 note=58 velocity=64 time=0.040625
EXTRACT: note_off channel=3 note=67 velocity=64 time=0.043750000000000004
EXTRACT: note_off channel=10 note=63 velocity=64 time=0.034375
EXTRACT: note_off channel=11 note=63 velocity=64 time=0.0203125
EXTRACT: note_off channel=11 note=55 velocity=64 time=0.009375000000000001
EXTRACT: note_on channel=2 note=67 velocity=85 time=0
EXTRACT: note_on channel=9 note=38 velocity=108 time=0
EXTRACT: note_on channel=9 note=42 velocity=81 time=0
EXTRACT: note_on channel=11 note=63 velocity=113 time=0
EXTRACT: note_off channel=11 note=60 velocity=64 time=0.009375000000000001
EXTRACT: note_on channel=11 note=55 velocity=112 time=0
EXTRACT: note_on channel=3 note=67 velocity=93 time=0.0078125
EXTRACT: note_on channel=11 note=60 velocity=112 time=0.0015625
EXTRACT: note_off channel=1 note=36 velocity=64 time=0.003125
EXTRACT: note_off channel=10 note=48 velocity=64 time=0.0578125
EXTRACT: note_off channel=9 note=38 velocity=64 time=0.053125000000000006
EXTRACT: control_change channel=2 control=64 value=127 time=0.004687500000000001
EXTRACT: note_off channel=9 note=42 velocity=64 time=0.003125
EXTRACT: note_off channel=2 note=60 velocity=64 time=0.0765625
EXTRACT: note_on channel=1 note=34 velocity=96 time=0.028125
EXTRACT: note_off channel=3 note=67 velocity=64 time=0.045312500000000006
EXTRACT: note_off channel=1 note=34 velocity=64 time=0.0234375
EXTRACT: note_on channel=1 note=36 velocity=97 time=0.029687500000000002
EXTRACT: note_on channel=2 note=60 velocity=78 time=0.03125
EXTRACT: note_on channel=9 note=42 velocity=51 time=0
EXTRACT: note_on channel=10 note=48 velocity=79 time=0
EXTRACT: note_on channel=3 note=67 velocity=88 time=0.0015625
EXTRACT: note_off channel=9 note=42 velocity=64 time=0.1046875
EXTRACT: note_off channel=1 note=36 velocity=64 time=0.053125000000000006
EXTRACT: note_off channel=11 note=63 velocity=64 time=0.018750000000000003
EXTRACT: note_off channel=11 note=55 velocity=64 time=0.009375000000000001
EXTRACT: note_on channel=11 note=63 velocity=105 time=0
EXTRACT: note_off channel=11 note=60 velocity=64 time=0.009375000000000001
EXTRACT: note_on channel=11 note=55 velocity=104 time=0
EXTRACT: note_on channel=11 note=60 velocity=104 time=0.009375000000000001
EXTRACT: note_on channel=9 note=38 velocity=34 time=0.010937500000000001
EXTRACT: note_on channel=1 note=34 velocity=97 time=0.003125
EXTRACT: note_off channel=9 note=38 velocity=64 time=0.010937500000000001
EXTRACT: note_on channel=9 note=38 velocity=30 time=0.025
EXTRACT: note_off channel=9 note=38 velocity=64 time=0.0125
EXTRACT: note_on channel=9 note=38 velocity=32 time=0.028125
EXTRACT: note_off channel=1 note=34 velocity=64 time=0.0015625
EXTRACT: note_off channel=9 note=38 velocity=64 time=0.010937500000000001
EXTRACT: note_on channel=9 note=38 velocity=39 time=0.021875000000000002
EXTRACT: note_off channel=9 note=38 velocity=64 time=0.0125
EXTRACT: note_on channel=1 note=36 velocity=97 time=0.003125
EXTRACT: note_off channel=11 note=63 velocity=64 time=0.018750000000000003
EXTRACT: note_off channel=11 note=55 velocity=64 time=0.009375000000000001
EXTRACT: note_on channel=2 note=63 velocity=81 time=0
EXTRACT: note_on channel=9 note=35 velocity=108 time=0
EXTRACT: note_on channel=9 note=42 velocity=78 time=0
EXTRACT: note_on channel=10 note=60 velocity=98 time=0
EXTRACT: note_on channel=10 note=63 velocity=78 time=0
EXTRACT: note_on channel=10 note=67 velocity=92 time=0
EXTRACT: note_on channel=11 note=63 velocity=122 time=0
EXTRACT: note_off channel=11 note=60 velocity=64 time=0.009375000000000001
EXTRACT: note_on channel=11 note=55 velocity=122 time=0
EXTRACT: note_on channel=11 note=60 velocity=123 time=0.009375000000000001
EXTRACT: control_change channel=2 control=64 value=0 time=0.025
EXTRACT: note_off channel=2 note=67 velocity=64 time=0.0546875
EXTRACT: note_off channel=9 note=35 velocity=64 time=0.0140625
EXTRACT: note_off channel=9 note=42 velocity=64 time=0.0125
EXTRACT: note_off channel=1 note=36 velocity=64 time=0.06875
EXTRACT: note_off channel=10 note=60 velocity=64 time=0.025
EXTRACT: note_off channel=2 note=60 velocity=64 time=0.004687500000000001
EXTRACT: note_off channel=3 note=67 velocity=64 time=0.009375000000000001
EXTRACT: control_change channel=2 control=64 value=127 time=0
EXTRACT: note_off channel=11 note=63 velocity=64 time=0.1265625
EXTRACT: note_on channel=1 note=36 velocity=97 time=0.0015625
EXTRACT: note_off channel=11 note=55 velocity=64 time=0.0078125
EXTRACT: note_on channel=2 note=60 velocity=79 time=0
EXTRACT: note_on channel=3 note=67 velocity=88 time=0
EXTRACT: note_on channel=9 note=35 velocity=108 time=0
EXTRACT: note_on channel=9 note=42 velocity=51 time=0
EXTRACT: note_on channel=11 note=63 velocity=107 time=0
EXTRACT: note_off channel=11 note=60 velocity=64 time=0.009375000000000001
EXTRACT: note_on channel=11 note=55 velocity=106 time=0
EXTRACT: note_on channel=11 note=60 velocity=106 time=0.009375000000000001
EXTRACT: note_off channel=9 note=42 velocity=64 time=0.084375
EXTRACT: note_off channel=9 note=35 velocity=64 time=0.018750000000000003
EXTRACT: note_off channel=10 note=48 velocity=64 time=0.11406250000000001
EXTRACT: note_off channel=3 note=67 velocity=64 time=0.08125
EXTRACT: note_off channel=11 note=63 velocity=64 time=0.0484375
EXTRACT: note_off channel=11 note=55 velocity=64 time=0.009375000000000001
EXTRACT: note_on channel=2 note=67 velocity=82 time=0
EXTRACT: note_on channel=3 note=67 velocity=89 time=0
EXTRACT: note_on channel=9 note=38 velocity=108 time=0
EXTRACT: note_on channel=9 note=42 velocity=84 time=0
EXTRACT: note_on channel=10 note=60 velocity=83 time=0
EXTRACT: note_on channel=11 note=63 velocity=114 time=0
EXTRACT: note_off channel=11 note=60 velocity=64 time=0.009375000000000001
EXTRACT: note_on channel=11 note=55 velocity=114 time=0
EXTRACT: control_change channel=2 control=64 value=0 time=0.004687500000000001
EXTRACT: note_on channel=11 note=60 velocity=114 time=0.004687500000000001
EXTRACT: note_off channel=1 note=36 velocity=64 time=0.035937500000000004
EXTRACT: note_off channel=10 note=67 velocity=64 time=0.0421875
EXTRACT: note_off channel=10 note=63 velocity=64 time=0.003125
EXTRACT: note_off channel=9 note=38 velocity=64 time=0.0234375
EXTRACT: note_off channel=9 note=42 velocity=64 time=0.0140625
EXTRACT: note_off channel=10 note=60 velocity=64 time=0.0234375
EXTRACT: note_off channel=2 note=60 velocity=64 time=0.029687500000000002
EXTRACT: control_change channel=2 control=64 value=127 time=0.0203125
EXTRACT: note_off channel=3 note=67 velocity=64 time=0.10625000000000001
EXTRACT: note_on channel=2 note=60 velocity=83 time=0.0578125
EXTRACT: note_on channel=3 note=67 velocity=89 time=0
EXTRACT: note_on channel=9 note=42 velocity=46 time=0
EXTRACT: note_on channel=10 note=48 velocity=71 time=0
EXTRACT: control_change channel=2 control=64 value=0 time=0.034375
EXTRACT: note_off channel=10 note=48 velocity=64 time=0.0734375
EXTRACT: note_off channel=9 note=42 velocity=64 time=0.0125
EXTRACT: note_off channel=11 note=60 velocity=64 time=0.209375
EXTRACT: note_off channel=11 note=63 velocity=64 time=0.0171875
EXTRACT: control_change channel=10 control=64 value=0 time=0.0015625
EXTRACT: note_off channel=11 note=55 velocity=64 time=0.0015625
EXTRACT: note_off channel=3 note=67 velocity=64 time=0.003125
EXTRACT: note_off channel=2 note=60 velocity=64 time=0.00625
EXTRACT: note_off channel=2 note=67 velocity=64 time=0.010937500000000001
EXTRACT: note_on channel=1 note=35 velocity=98 time=0.004687500000000001
EXTRACT: note_on channel=3 note=68 velocity=89 time=0
EXTRACT: note_on channel=9 note=35 velocity=109 time=0
EXTRACT: note_on channel=9 note=42 velocity=73 time=0
EXTRACT: note_on channel=10 note=47 velocity=88 time=0
EXTRACT: note_on channel=10 note=59 velocity=78 time=0
EXTRACT: note_on channel=10 note=65 velocity=90 time=0
EXTRACT: note_on channel=10 note=67 velocity=84 time=0
EXTRACT: note_on channel=11 note=53 velocity=120 time=0
EXTRACT: note_on channel=11 note=55 velocity=120 time=0.009375000000000001
EXTRACT: note_off channel=2 note=63 velocity=64 time=0.009375000000000001
EXTRACT: note_on channel=11 note=59 velocity=120 time=0
EXTRACT: note_off channel=9 note=35 velocity=64 time=0.0625
EXTRACT: note_off channel=9 note=42 velocity=64 time=0.07187500000000001
EXTRACT: control_change channel=10 control=64 value=127 time=0.015625
EXTRACT: note_off channel=3 note=68 velocity=64 time=0.20468750000000002
EXTRACT: note_on channel=2 note=59 velocity=77 time=0.0015625
EXTRACT: note_on channel=9 note=42 velocity=48 time=0
EXTRACT: note_on channel=3 note=67 velocity=89 time=0.003125
EXTRACT: note_off channel=1 note=35 velocity=64 time=0.1015625
EXTRACT: note_off channel=9 note=42 velocity=64 time=0.009375000000000001
EXTRACT: note_on channel=1 note=35 velocity=98 time=0.1125
EXTRACT: note_off channel=10 note=59 velocity=64 time=0.004687500000000001
EXTRACT: note_off channel=11 note=53 velocity=64 time=0.10312500000000001
EXTRACT: note_off channel=11 note=55 velocity=64 time=0.009375000000000001
EXTRACT: note_on channel=2 note=67 velocity=78 time=0
EXTRACT: note_on channel=9 note=38 velocity=108 time=0
EXTRACT: note_on channel=9 note=42 velocity=80 time=0
EXTRACT: note_on channel=10 note=59 velocity=78 time=0
EXTRACT: note_on channel=11 note=53 velocity=112 time=0
EXTRACT: note_off channel=11 note=59 velocity=64 time=0.009375000000000001
EXTRACT: note_off channel=3 note=67 velocity=64 time=0
EXTRACT: note_on channel=11 note=55 velocity=113 time=0
EXTRACT: note_on channel=3 note=68 velocity=90 time=0.0015625
EXTRACT: note_on channel=11 note=59 velocity=112 time=0.0078125
EXTRACT: note_off channel=1 note=35 velocity=64 time=0.003125
EXTRACT: note_off channel=9 note=38 velocity=64 time=0.11093750000000001
EXTRACT: note_off channel=9 note=42 velocity=64 time=0.0078125
EXTRACT: note_off channel=2 note=59 velocity=64 time=0.037500000000000006
EXTRACT: note_on channel=1 note=35 velocity=98 time=0.1875
EXTRACT: note_on channel=2 note=59 velocity=79 time=0.009375000000000001
EXTRACT: note_on channel=9 note=42 velocity=50 time=0
EXTRACT: note_on channel=3 note=67 velocity=92 time=0.0015625
EXTRACT: note_off channel=3 note=68 velocity=64 time=0.0140625
EXTRACT: note_off channel=9 note=42 velocity=64 time=0.09062500000000001
EXTRACT: note_off channel=1 note=35 velocity=64 time=0.009375000000000001
EXTRACT: note_off channel=11 note=53 velocity=64 time=0.0625
EXTRACT: note_off channel=11 note=55 velocity=64 time=0.009375000000000001
EXTRACT: note_on channel=11 note=53 velocity=104 time=0
EXTRACT: note_off channel=11 note=59 velocity=64 time=0.009375000000000001
EXTRACT: note_on channel=11 note=55 velocity=104 time=0
EXTRACT: note_on channel=11 note=59 velocity=104 time=0.009375000000000001
EXTRACT: note_on channel=9 note=38 velocity=34 time=0.010937500000000001
EXTRACT: note_off channel=9 note=38 velocity=64 time=0.0140625
EXTRACT: note_on channel=9 note=38 velocity=30 time=0.025
EXTRACT: note_off channel=9 note=38 velocity=64 time=0.0125
EXTRACT: note_on channel=9 note=38 velocity=32 time=0.028125
EXTRACT: note_off channel=9 note=38 velocity=64 time=0.0125
EXTRACT: note_on channel=9 note=38 velocity=38 time=0.021875000000000002
EXTRACT: note_off channel=9 note=38 velocity=64 time=0.0125
EXTRACT: note_on channel=1 note=32 velocity=101 time=0.00625
EXTRACT: note_off channel=11 note=53 velocity=64 time=0.015625
EXTRACT: note_off channel=10 note=65 velocity=64 time=0.003125
EXTRACT: note_off channel=11 note=55 velocity=64 time=0.00625
EXTRACT: note_on channel=2 note=63 velocity=75 time=0
EXTRACT: note_on channel=9 note=35 velocity=108 time=0
EXTRACT: note_on channel=9 note=42 velocity=78 time=0
EXTRACT: note_on channel=10 note=63 velocity=94 time=0
EXTRACT: note_on channel=11 note=53 velocity=123 time=0
EXTRACT: note_off channel=11 note=59 velocity=64 time=0.009375000000000001
EXTRACT: note_on channel=11 note=55 velocity=122 time=0
EXTRACT: note_on channel=11 note=59 velocity=123 time=0.009375000000000001
EXTRACT: note_on channel=3 note=68 velocity=88 time=0.009375000000000001
EXTRACT: note_off channel=3 note=67 velocity=64 time=0.010937500000000001
EXTRACT: control_change channel=10 control=64 value=0 time=0.00625
EXTRACT: note_off channel=1 note=32 velocity=64 time=0.05625
EXTRACT: note_off channel=9 note=35 velocity=64 time=0.010937500000000001
EXTRACT: note_off channel=9 note=42 velocity=64 time=0.0125
EXTRACT: control_change channel=10 control=64 value=127 time=0.053125000000000006
EXTRACT: note_off channel=10 note=63 velocity=64 time=0.1703125
EXTRACT: note_on channel=1 note=31 velocity=101 time=0.0015625
EXTRACT: note_off channel=11 note=53 velocity=64 time=0.015625
EXTRACT: note_off channel=11 note=55 velocity=64 time=0.009375000000000001
EXTRACT: note_on channel=2 note=62 velocity=78 time=0
EXTRACT: note_on channel=9 note=35 velocity=108 time=0
EXTRACT: note_on channel=9 note=42 velocity=51 time=0
EXTRACT: note_on channel=10 note=62 velocity=107 time=0
EXTRACT: note_on channel=11 note=53 velocity=107 time=0
EXTRACT: note_on channel=3 note=67 velocity=89 time=0.00625
EXTRACT: note_off channel=11 note=59 velocity=64 time=0.003125
EXTRACT: note_on channel=11 note=55 velocity=106 time=0
EXTRACT: note_off channel=2 note=63 velocity=64 time=0.004687500000000001
EXTRACT: note_on channel=11 note=59 velocity=107 time=0.004687500000000001
EXTRACT: note_off channel=3 note=68 velocity=64 time=0.0015625
EXTRACT: note_off channel=9 note=42 velocity=64 time=0.08281250000000001
EXTRACT: note_off channel=9 note=35 velocity=64 time=0.018750000000000003
EXTRACT: note_off channel=2 note=59 velocity=64 time=0.028125
EXTRACT: note_off channel=3 note=67 velocity=64 time=0.13593750000000002
EXTRACT: note_off channel=11 note=53 velocity=64 time=0.07968750000000001
EXTRACT: note_off channel=10 note=62 velocity=64 time=0.0078125
EXTRACT: note_off channel=11 note=55 velocity=64 time=0.0015625
EXTRACT: note_on channel=2 note=59 velocity=82 time=0
EXTRACT: note_on channel=9 note=38 velocity=108 time=0
EXTRACT: note_on channel=9 note=42 velocity=84 time=0
EXTRACT: note_on channel=11 note=53 velocity=103 time=0
EXTRACT: note_on channel=3 note=67 velocity=91 time=0.004687500000000001
EXTRACT: note_off channel=11 note=59 velocity=64 time=0.004687500000000001
EXTRACT: note_on channel=11 note=55 velocity=102 time=0
EXTRACT: note_on channel=11 note=59 velocity=103 time=0.009375000000000001
EXTRACT: note_off channel=10 note=67 velocity=64 time=0.009375000000000001
EXTRACT: note_off channel=10 note=59 velocity=64 time=0.0234375
EXTRACT: note_off channel=10 note=47 velocity=64 time=0.0625
EXTRACT: note_off channel=1 note=31 velocity=64 time=0.009375000000000001
EXTRACT: note_off channel=9 note=38 velocity=64 time=0
EXTRACT: note_off channel=9 note=42 velocity=64 time=0.0140625
EXTRACT: note_on channel=3 note=72 velocity=88 time=0.21406250000000002
EXTRACT: note_on channel=1 note=31 velocity=100 time=0.0140625
EXTRACT: note_off channel=11 note=53 velocity=64 time=0.003125
EXTRACT: note_off channel=3 note=67 velocity=64 time=0.0015625
EXTRACT: note_on channel=2 note=55 velocity=79 time=0.004687500000000001
EXTRACT: note_on channel=9 note=46 velocity=86 time=0
EXTRACT: note_on channel=11 note=53 velocity=97 time=0
EXTRACT: note_off channel=11 note=55 velocity=64 time=0.003125
EXTRACT: note_on channel=11 note=55 velocity=96 time=0.00625
EXTRACT: note_off channel=11 note=59 velocity=64 time=0.003125
EXTRACT: note_on channel=11 note=59 velocity=96 time=0.00625
EXTRACT: note_off channel=2 note=62 velocity=64 time=0.037500000000000006
EXTRACT: note_off channel=9 note=46 velocity=64 time=0.06406250000000001
EXTRACT: note_off channel=2 note=67 velocity=64 time=0.0140625
EXTRACT: note_off channel=3 note=72 velocity=64 time=0.1296875
EXTRACT: note_off channel=11 note=53 velocity=64 time=0.046875
EXTRACT: note_off channel=1 note=31 velocity=64 time=0.00625
EXTRACT: note_off channel=2 note=55 velocity=64 time=0.0125
EXTRACT: note_off channel=2 note=59 velocity=64 time=0.0125
EXTRACT: note_off channel=11 note=55 velocity=64 time=0.0078125
EXTRACT: note_on channel=3 note=72 velocity=90 time=0.00625
EXTRACT: control_change channel=10 control=64 value=0 time=0.00625
EXTRACT: note_off channel=11 note=59 velocity=64 time=0.003125
EXTRACT: note_on channel=1 note=32 velocity=98 time=0.009375000000000001
EXTRACT: note_on channel=9 note=35 velocity=109 time=0
EXTRACT: note_on channel=9 note=42 velocity=72 time=0
EXTRACT: note_on channel=10 note=44 velocity=86 time=0
EXTRACT: note_on channel=10 note=56 velocity=89 time=0
EXTRACT: note_on channel=10 note=60 velocity=108 time=0
EXTRACT: note_on channel=10 note=63 velocity=77 time=0
EXTRACT: note_on channel=11 note=51 velocity=121 time=0
EXTRACT: note_on channel=11 note=56 velocity=121 time=0.009375000000000001
EXTRACT: note_on channel=11 note=60 velocity=121 time=0.009375000000000001
EXTRACT: note_off channel=9 note=35 velocity=64 time=0.0625
EXTRACT: control_change channel=10 control=64 value=127 time=0.0390625
EXTRACT: note_off channel=9 note=42 velocity=64 time=0.0328125
EXTRACT: note_on channel=2 note=60 velocity=85 time=0.22187500000000002
EXTRACT: note_on channel=9 note=42 velocity=49 time=0
EXTRACT: note_off channel=1 note=32 velocity=64 time=0.1046875
EXTRACT: note_off channel=9 note=42 velocity=64 time=0.009375000000000001
EXTRACT: note_off channel=3 note=72 velocity=64 time=0.1
EXTRACT: note_on channel=1 note=32 velocity=94 time=0.0125
EXTRACT: note_off channel=11 note=51 velocity=64 time=0.1390625
EXTRACT: note_off channel=11 note=56 velocity=64 time=0.009375000000000001
EXTRACT: note_on channel=2 note=67 velocity=85 time=0
EXTRACT: note_on channel=9 note=38 velocity=109 time=0
EXTRACT: note_on channel=9 note=42 velocity=80 time=0
EXTRACT: note_on channel=10 note=67 velocity=81 time=0
EXTRACT: note_on channel=11 note=51 velocity=113 time=0
EXTRACT: note_off channel=11 note=60 velocity=64 time=0.009375000000000001
EXTRACT: note_on channel=11 note=56 velocity=112 time=0
EXTRACT: note_on channel=11 note=60 velocity=112 time=0.009375000000000001
EXTRACT: note_off channel=1 note=32 velocity=64 time=0.003125
EXTRACT: note_off channel=9 note=38 velocity=64 time=0.11093750000000001
EXTRACT: note_off channel=9 note=42 velocity=64 time=0.0078125
EXTRACT: note_off channel=2 note=60 velocity=64 time=0.040625
EXTRACT: note_off channel=10 note=63 velocity=64 time=0.05625
EXTRACT: note_on channel=1 note=27 velocity=96 time=0.0078125
EXTRACT: note_on channel=1 note=32 velocity=96 time=0.0625
EXTRACT: note_off channel=1 note=27 velocity=64 time=0.009375000000000001
EXTRACT: note_on channel=2 note=60 velocity=75 time=0.021875000000000002
EXTRACT: note_on channel=9 note=42 velocity=51 time=0
EXTRACT: note_on channel=10 note=65 velocity=96 time=0
EXTRACT: note_off channel=10 note=67 velocity=64 time=0.025
EXTRACT: note_off channel=9 note=42 velocity=64 time=0.08125
EXTRACT: note_off channel=1 note=32 velocity=64 time=0.053125000000000006
EXTRACT: note_off channel=11 note=51 velocity=64 time=0.018750000000000003
EXTRACT: note_off channel=11 note=56 velocity=64 time=0.009375000000000001
EXTRACT: note_on channel=11 note=51 velocity=104 time=0
EXTRACT: note_off channel=11 note=60 velocity=64 time=0.009375000000000001
EXTRACT: note_on channel=11 note=56 velocity=105 time=0
EXTRACT: note_on channel=11 note=60 velocity=105 time=0.009375000000000001
EXTRACT: note_on channel=9 note=38 velocity=35 time=0.010937500000000001
EXTRACT: note_on channel=1 note=27 velocity=96 time=0.003125
EXTRACT: note_off channel=9 note=38 velocity=64 time=0.010937500000000001
EXTRACT: note_on channel=9 note=38 velocity=30 time=0.025
EXTRACT: note_off channel=9 note=38 velocity=64 time=0.0125
EXTRACT: note_on channel=9 note=38 velocity=32 time=0.028125
EXTRACT: note_off channel=9 note=38 velocity=64 time=0.0125
EXTRACT: note_on channel=9 note=38 velocity=38 time=0.021875000000000002
EXTRACT: note_off channel=1 note=27 velocity=64 time=0.00625
EXTRACT: note_off channel=2 note=67 velocity=64 time=0.0015625
EXTRACT: note_on channel=3 note=75 velocity=92 time=0.003125
EXTRACT: note_off channel=9 note=38 velocity=64 time=0.0015625
EXTRACT: note_on channel=1 note=32 velocity=97 time=0.003125
EXTRACT: note_off channel=11 note=51 velocity=64 time=0.018750000000000003
EXTRACT: note_off channel=11 note=56 velocity=64 time=0.009375000000000001
EXTRACT: note_on channel=2 note=65 velocity=74 time=0
EXTRACT: note_on channel=9 note=35 velocity=109 time=0
EXTRACT: note_on channel=9 note=42 velocity=79 time=0
EXTRACT: note_on channel=11 note=53 velocity=122 time=0
EXTRACT: note_off channel=11 note=60 velocity=64 time=0.009375000000000001
EXTRACT: note_on channel=11 note=56 velocity=122 time=0
EXTRACT: note_on channel=11 note=60 velocity=122 time=0.009375000000000001
EXTRACT: note_off channel=9 note=35 velocity=64 time=0.09375
EXTRACT: note_off channel=9 note=42 velocity=64 time=0.0125
EXTRACT: note_off channel=1 note=32 velocity=64 time=0.07500000000000001
EXTRACT: note_off channel=3 note=75 velocity=64 time=0.043750000000000004
EXTRACT: note_on channel=3 note=77 velocity=88 time=0.0015625
EXTRACT: note_off channel=10 note=56 velocity=64 time=0.0125
EXTRACT: note_off channel=11 note=53 velocity=64 time=0.1078125
EXTRACT: note_on channel=1 note=32 velocity=99 time=0.0015625
EXTRACT: note_off channel=11 note=56 velocity=64 time=0.0078125
EXTRACT: note_on channel=9 note=35 velocity=108 time=0
EXTRACT: note_on channel=9 note=42 velocity=50 time=0
EXTRACT: note_on channel=10 note=56 velocity=90 time=0
EXTRACT: note_on channel=11 note=53 velocity=106 time=0
EXTRACT: note_off channel=11 note=60 velocity=64 time=0.009375000000000001
EXTRACT: note_on channel=11 note=56 velocity=106 time=0
EXTRACT: note_on channel=11 note=60 velocity=106 time=0.009375000000000001
EXTRACT: note_off channel=9 note=42 velocity=64 time=0.084375
EXTRACT: note_off channel=9 note=35 velocity=64 time=0.018750000000000003
EXTRACT: note_on channel=3 note=74 velocity=92 time=0.0015625
EXTRACT: note_off channel=3 note=77 velocity=64 time=0.009375000000000001
EXTRACT: note_off channel=10 note=56 velocity=64 time=0.0765625
EXTRACT: note_off channel=10 note=60 velocity=64 time=0.0203125
EXTRACT: note_off channel=2 note=65 velocity=64 time=0.11093750000000001
EXTRACT: note_off channel=11 note=53 velocity=64 time=0.025
EXTRACT: note_on channel=3 note=75 velocity=88 time=0.0078125
EXTRACT: note_off channel=11 note=56 velocity=64 time=0.0015625
EXTRACT: note_on channel=2 note=67 velocity=78 time=0
EXTRACT: note_on channel=9 note=38 velocity=109 time=0
EXTRACT: note_on channel=9 note=42 velocity=85 time=0
EXTRACT: note_on channel=10 note=60 velocity=95 time=0
EXTRACT: note_on channel=11 note=53 velocity=115 time=0
EXTRACT: note_off channel=3 note=74 velocity=64 time=0.003125
EXTRACT: note_off channel=11 note=60 velocity=64 time=0.00625
EXTRACT: note_on channel=11 note=56 velocity=115 time=0
EXTRACT: note_on channel=11 note=60 velocity=114 time=0.009375000000000001
EXTRACT: note_off channel=10 note=60 velocity=64 time=0.029687500000000002
EXTRACT: note_off channel=1 note=32 velocity=64 time=0.00625
EXTRACT: note_off channel=10 note=65 velocity=64 time=0.035937500000000004
EXTRACT: note_off channel=10 note=44 velocity=64 time=0.0015625
EXTRACT: note_off channel=9 note=38 velocity=64 time=0.03125
EXTRACT: note_off channel=9 note=42 velocity=64 time=0.0140625
EXTRACT: note_off channel=2 note=60 velocity=64 time=0.0171875
EXTRACT: note_on channel=3 note=72 velocity=91 time=0.12812500000000002
EXTRACT: note_off channel=3 note=75 velocity=64 time=0.015625
EXTRACT: note_on channel=2 note=60 velocity=82 time=0.0765625
EXTRACT: note_on channel=9 note=42 velocity=47 time=0
EXTRACT: note_off channel=9 note=42 velocity=64 time=0.1203125
EXTRACT: note_off channel=3 note=72 velocity=64 time=0.037500000000000006
EXTRACT: note_on channel=3 note=74 velocity=91 time=0.004687500000000001
EXTRACT: note_off channel=2 note=60 velocity=64 time=0.09062500000000001
EXTRACT: note_off channel=2 note=67 velocity=64 time=0.0140625
EXTRACT: note_off channel=11 note=60 velocity=64 time=0.0625
EXTRACT: note_off channel=11 note=53 velocity=64 time=0.0171875
EXTRACT: note_off channel=11 note=56 velocity=64 time=0.003125
EXTRACT: note_on channel=1 note=34 velocity=98 time=0.025
EXTRACT: note_on channel=9 note=35 velocity=109 time=0
EXTRACT: note_on channel=9 note=42 velocity=72 time=0
EXTRACT: note_on channel=10 note=46 velocity=92 time=0
EXTRACT: note_on channel=10 note=58 velocity=74 time=0
EXTRACT: note_on channel=10 note=62 velocity=98 time=0
EXTRACT: note_on channel=10 note=67 velocity=92 time=0
EXTRACT: note_on channel=11 note=55 velocity=121 time=0
EXTRACT: control_change channel=10 control=64 value=0 time=0.004687500000000001
EXTRACT: note_on channel=11 note=58 velocity=120 time=0.004687500000000001
EXTRACT: note_on channel=11 note=62 velocity=121 time=0.009375000000000001
EXTRACT: note_off channel=3 note=74 velocity=64 time=0.010937500000000001
EXTRACT: note_on channel=3 note=70 velocity=92 time=0.009375000000000001
EXTRACT: note_off channel=9 note=35 velocity=64 time=0.0421875
EXTRACT: control_change channel=10 control=64 value=127 time=0.0546875
EXTRACT: note_off channel=9 note=42 velocity=64 time=0.0171875
EXTRACT: note_off channel=10 note=58 velocity=64 time=0.109375
EXTRACT: note_on channel=2 note=60 velocity=83 time=0.1125
EXTRACT: note_on channel=9 note=42 velocity=48 time=0
EXTRACT: note_off channel=1 note=34 velocity=64 time=0.1046875
EXTRACT: note_off channel=9 note=42 velocity=64 time=0.009375000000000001
EXTRACT: note_on channel=1 note=34 velocity=97 time=0.1125
EXTRACT: note_off channel=10 note=46 velocity=64 time=0.0390625
EXTRACT: note_off channel=10 note=62 velocity=64 time=0.059375000000000004
EXTRACT: note_off channel=10 note=67 velocity=64 time=0.040625
EXTRACT: note_off channel=11 note=55 velocity=64 time=0
EXTRACT: note_off channel=11 note=58 velocity=64 time=0.009375000000000001
EXTRACT: note_on channel=2 note=67 velocity=77 time=0
EXTRACT: note_on channel=9 note=38 velocity=109 time=0
EXTRACT: note_on channel=9 note=42 velocity=80 time=0
EXTRACT: note_on channel=10 note=58 velocity=81 time=0
EXTRACT: note_on channel=11 note=55 velocity=112 time=0
EXTRACT: note_off channel=11 note=62 velocity=64 time=0.009375000000000001
EXTRACT: note_on channel=11 note=58 velocity=112 time=0
EXTRACT: note_on channel=11 note=62 velocity=113 time=0.009375000000000001
EXTRACT: note_off channel=1 note=34 velocity=64 time=0.003125
EXTRACT: note_off channel=3 note=70 velocity=64 time=0.00625
EXTRACT: note_off channel=10 note=58 velocity=64 time=0.021875000000000002
EXTRACT: note_off channel=9 note=38 velocity=64 time=0.08281250000000001
EXTRACT: note_off channel=9 note=42 velocity=64 time=0.0078125
EXTRACT: note_off channel=2 note=60 velocity=64 time=0.026562500000000003
EXTRACT: note_on channel=1 note=31 velocity=96 time=0.078125
EXTRACT: note_off channel=1 note=31 velocity=64 time=0.07968750000000001
EXTRACT: note_on channel=1 note=34 velocity=97 time=0.018750000000000003
EXTRACT: note_on channel=2 note=60 velocity=80 time=0.03125
EXTRACT: note_on channel=9 note=42 velocity=69 time=0
EXTRACT: note_on channel=10 note=46 velocity=97 time=0
EXTRACT: note_off channel=9 note=42 velocity=64 time=0.10625000000000001
EXTRACT: note_off channel=1 note=34 velocity=64 time=0.053125000000000006
EXTRACT: note_off channel=11 note=55 velocity=64 time=0.018750000000000003
EXTRACT: note_off channel=11 note=58 velocity=64 time=0.009375000000000001
EXTRACT: note_on channel=11 note=55 velocity=104 time=0
EXTRACT: note_off channel=11 note=62 velocity=64 time=0.009375000000000001
EXTRACT: note_on channel=11 note=58 velocity=104 time=0
EXTRACT: note_on channel=11 note=62 velocity=104 time=0.009375000000000001
EXTRACT: note_on channel=1 note=31 velocity=96 time=0.0140625
EXTRACT: note_off channel=1 note=31 velocity=64 time=0.0890625
EXTRACT: note_off channel=2 note=67 velocity=64 time=0.0328125
EXTRACT: note_on channel=1 note=34 velocity=96 time=0.004687500000000001
EXTRACT: note_on channel=3 note=79 velocity=91 time=0.0078125
EXTRACT: note_off channel=11 note=55 velocity=64 time=0.010937500000000001
EXTRACT: note_off channel=11 note=58 velocity=64 time=0.009375000000000001
EXTRACT: note_on channel=2 note=65 velocity=82 time=0
EXTRACT: note_on channel=9 note=35 velocity=108 time=0
EXTRACT: note_on channel=9 note=42 velocity=78 time=0
EXTRACT: note_on channel=10 note=74 velocity=48 time=0
EXTRACT: note_on channel=10 note=77 velocity=54 time=0
EXTRACT: note_on channel=10 note=82 velocity=56 time=0
EXTRACT: note_on channel=11 note=56 velocity=122 time=0
EXTRACT: note_off channel=11 note=62 velocity=64 time=0.009375000000000001
EXTRACT: note_on channel=11 note=58 velocity=123 time=0
EXTRACT: note_on channel=11 note=62 velocity=123 time=0.009375000000000001
EXTRACT: note_off channel=9 note=35 velocity=64 time=0.09375
EXTRACT: note_off channel=9 note=42 velocity=64 time=0.0125
EXTRACT: note_off channel=1 note=34 velocity=64 time=0.07500000000000001
EXTRACT: note_off channel=2 note=60 velocity=64 time=0.021875000000000002
EXTRACT: note_on channel=9 note=38 velocity=108 time=0.0125
EXTRACT: note_off channel=9 note=38 velocity=64 time=0.1234375
EXTRACT: note_off channel=11 note=56 velocity=64 time=0.0078125
EXTRACT: note_on channel=1 note=34 velocity=97 time=0.0015625
EXTRACT: note_off channel=11 note=58 velocity=64 time=0.0078125
EXTRACT: note_on channel=2 note=60 velocity=82 time=0
EXTRACT: note_on channel=11 note=56 velocity=106 time=0
EXTRACT: note_off channel=11 note=62 velocity=64 time=0.009375000000000001
EXTRACT: note_on channel=11 note=58 velocity=106 time=0
EXTRACT: note_on channel=11 note=62 velocity=106 time=0.009375000000000001
EXTRACT: note_on channel=9 note=38 velocity=108 time=0.16875
EXTRACT: note_off channel=9 note=38 velocity=64 time=0.1234375
EXTRACT: note_on channel=1 note=29 velocity=98 time=0.0234375
EXTRACT: note_off channel=3 note=79 velocity=64 time=0.0078125
EXTRACT: note_on channel=3 note=80 velocity=90 time=0.00625
EXTRACT: note_off channel=2 note=65 velocity=64 time=0.010937500000000001
EXTRACT: note_off channel=11 note=56 velocity=64 time=0.00625
EXTRACT: note_off channel=11 note=58 velocity=64 time=0.009375000000000001
EXTRACT: note_on channel=2 note=67 velocity=78 time=0
EXTRACT: note_on channel=9 note=38 velocity=108 time=0
EXTRACT: note_on channel=11 note=56 velocity=114 time=0
EXTRACT: note_off channel=11 note=62 velocity=64 time=0.009375000000000001
EXTRACT: note_on channel=11 note=58 velocity=114 time=0
EXTRACT: note_on channel=11 note=62 velocity=114 time=0.009375000000000001
EXTRACT: note_off channel=1 note=34 velocity=64 time=0.035937500000000004
EXTRACT: note_off channel=1 note=29 velocity=64 time=0.0421875
EXTRACT: note_off channel=9 note=38 velocity=64 time=0.026562500000000003
EXTRACT: note_off channel=2 note=60 velocity=64 time=0.0015625
EXTRACT: note_on channel=1 note=31 velocity=98 time=0.035937500000000004
EXTRACT: note_on channel=9 note=38 velocity=108 time=0.026562500000000003
EXTRACT: note_on channel=6 note=72 velocity=86 time=0.03125
EXTRACT: note_off channel=1 note=31 velocity=64 time=0.0546875
EXTRACT: note_on channel=6 note=74 velocity=89 time=0.0203125
EXTRACT: note_off channel=9 note=38 velocity=64 time=0.0171875
EXTRACT: note_off channel=6 note=72 velocity=64 time=0.0078125
EXTRACT: note_on channel=1 note=29 velocity=106 time=0.0140625
EXTRACT: note_on channel=6 note=75 velocity=89 time=0.0203125
EXTRACT: note_on channel=2 note=60 velocity=80 time=0.021875000000000002
EXTRACT: note_on channel=9 note=43 velocity=89 time=0
EXTRACT: note_off channel=6 note=74 velocity=64 time=0.0015625
EXTRACT: note_off channel=6 note=75 velocity=64 time=0.07500000000000001
EXTRACT: note_on channel=6 note=77 velocity=93 time=0.004687500000000001
EXTRACT: note_off channel=9 note=43 velocity=64 time=0.018750000000000003
EXTRACT: note_off channel=1 note=29 velocity=64 time=0.018750000000000003
EXTRACT: control_change channel=10 control=64 value=0 time=0.015625
EXTRACT: note_on channel=1 note=27 velocity=120 time=0.018750000000000003
EXTRACT: note_off channel=6 note=77 velocity=64 time=0.015625
EXTRACT: note_on channel=6 note=79 velocity=95 time=0.0203125
EXTRACT: note_off channel=2 note=67 velocity=64 time=0.043750000000000004
EXTRACT: note_on channel=6 note=80 velocity=96 time=0.028125
EXTRACT: note_off channel=2 note=60 velocity=64 time=0.0015625
EXTRACT: note_off channel=1 note=27 velocity=64 time=0.00625
EXTRACT: note_off channel=6 note=79 velocity=64 time=0
EXTRACT: note_off channel=3 note=80 velocity=64 time=0.03125
EXTRACT: note_off channel=11 note=56 velocity=64 time=0
EXTRACT: note_off channel=10 note=82 velocity=64 time=0.0140625
EXTRACT: note_off channel=11 note=58 velocity=64 time=0.025
EXTRACT: note_off channel=10 note=74 velocity=64 time=0.003125
EXTRACT: note_off channel=10 note=77 velocity=64 time=0.010937500000000001
EXTRACT: note_off channel=11 note=62 velocity=64 time=0.0015625
EXTRACT: note_off channel=10 note=46 velocity=64 time=0.004687500000000001
EXTRACT: note_on channel=1 note=32 velocity=103 time=0.004687500000000001
EXTRACT: note_on channel=3 note=82 velocity=89 time=0
EXTRACT: note_on channel=6 note=82 velocity=58 time=0
EXTRACT: note_on channel=7 note=56 velocity=58 time=0
EXTRACT: note_on channel=7 note=60 velocity=59 time=0
EXTRACT: note_on channel=7 note=63 velocity=59 time=0
EXTRACT: note_on channel=7 note=67 velocity=58 time=0
EXTRACT: note_on channel=9 note=35 velocity=119 time=0
EXTRACT: note_on channel=9 note=51 velocity=82 time=0
EXTRACT: note_on channel=9 note=57 velocity=83 time=0
EXTRACT: note_on channel=10 note=56 velocity=54 time=0
EXTRACT: note_on channel=10 note=60 velocity=78 time=0
EXTRACT: note_on channel=10 note=63 velocity=54 time=0
EXTRACT: note_on channel=10 note=67 velocity=82 time=0
EXTRACT: note_on channel=14 note=82 velocity=75 time=0
EXTRACT: note_off channel=6 note=80 velocity=64 time=0.0015625
EXTRACT: note_off channel=9 note=35 velocity=64 time=0.07968750000000001
EXTRACT: note_off channel=9 note=51 velocity=64 time=0.07187500000000001
EXTRACT: note_off channel=9 note=57 velocity=64 time=0
EXTRACT: note_off channel=3 note=82 velocity=64 time=0.0890625
EXTRACT: note_on channel=2 note=60 velocity=78 time=0.1328125
EXTRACT: note_on channel=3 note=82 velocity=88 time=0
EXTRACT: note_on channel=9 note=51 velocity=68 time=0
EXTRACT: note_off channel=9 note=51 velocity=64 time=0.11406250000000001
EXTRACT: note_off channel=1 note=32 velocity=64 time=0.1296875
EXTRACT: note_off channel=3 note=82 velocity=64 time=0.043750000000000004
EXTRACT: note_on channel=1 note=32 velocity=103 time=0.08750000000000001
EXTRACT: note_on channel=2 note=67 velocity=81 time=0
EXTRACT: note_on channel=3 note=82 velocity=88 time=0
EXTRACT: note_on channel=6 note=72 velocity=58 time=0
EXTRACT: note_on channel=9 note=38 velocity=103 time=0
EXTRACT: note_on channel=9 note=51 velocity=90 time=0
EXTRACT: control_change channel=10 control=64 value=127 time=0.010937500000000001
EXTRACT: note_off channel=9 note=38 velocity=64 time=0.12187500000000001
EXTRACT: note_off channel=9 note=51 velocity=64 time=0.0078125
EXTRACT: note_off channel=10 note=60 velocity=64 time=0.060937500000000006
EXTRACT: note_off channel=10 note=56 velocity=64 time=0.0078125
EXTRACT: note_off channel=10 note=67 velocity=64 time=0.003125
EXTRACT: note_off channel=10 note=63 velocity=64 time=0.004687500000000001
EXTRACT: note_off channel=2 note=60 velocity=64 time=0.065625
EXTRACT: note_off channel=3 note=82 velocity=64 time=0.003125
EXTRACT: note_on channel=2 note=60 velocity=79 time=0.0890625
EXTRACT: note_on channel=3 note=82 velocity=93 time=0
EXTRACT: note_on channel=9 note=51 velocity=66 time=0
EXTRACT: note_off channel=9 note=51 velocity=64 time=0.10625000000000001
EXTRACT: note_off channel=1 note=32 velocity=64 time=0.1375
EXTRACT: note_off channel=2 note=67 velocity=64 time=0.08750000000000001
EXTRACT: control_change channel=10 control=64 value=0 time=0.026562500000000003
EXTRACT: note_off channel=7 note=56 velocity=64 time=0.0078125
EXTRACT: note_off channel=7 note=60 velocity=64 time=0
EXTRACT: note_off channel=7 note=63 velocity=64 time=0
EXTRACT: note_off channel=7 note=67 velocity=64 time=0
EXTRACT: note_off channel=6 note=72 velocity=64 time=0.003125
EXTRACT: note_on channel=1 note=31 velocity=102 time=0.00625
EXTRACT: note_on channel=2 note=62 velocity=78 time=0
EXTRACT: note_on channel=6 note=74 velocity=59 time=0
EXTRACT: note_on channel=7 note=55 velocity=58 time=0
EXTRACT: note_on channel=7 note=58 velocity=59 time=0
EXTRACT: note_on channel=7 note=62 velocity=59 time=0
EXTRACT: note_on channel=7 note=65 velocity=59 time=0
EXTRACT: note_on channel=9 note=35 velocity=119 time=0
EXTRACT: note_on channel=9 note=51 velocity=78 time=0
EXTRACT: note_on channel=10 note=55 velocity=76 time=0
EXTRACT: note_on channel=10 note=58 velocity=68 time=0
EXTRACT: note_on channel=10 note=62 velocity=82 time=0
EXTRACT: note_on channel=10 note=65 velocity=81 time=0
EXTRACT: note_off channel=9 note=35 velocity=64 time=0.1125
EXTRACT: note_off channel=3 note=82 velocity=64 time=0.010937500000000001
EXTRACT: note_off channel=9 note=51 velocity=64 time=0.0015625
EXTRACT: control_change channel=10 control=64 value=127 time=0.028125
EXTRACT: note_off channel=10 note=65 velocity=64 time=0.12812500000000002
EXTRACT: note_off channel=10 note=55 velocity=64 time=0.035937500000000004
EXTRACT: note_off channel=10 note=58 velocity=64 time=0.0078125
EXTRACT: note_off channel=10 note=62 velocity=64 time=0.004687500000000001
EXTRACT: note_on channel=3 note=82 velocity=92 time=0.0203125
EXTRACT: note_on channel=9 note=51 velocity=70 time=0
EXTRACT: note_off channel=9 note=51 velocity=64 time=0.10312500000000001
EXTRACT: note_off channel=1 note=31 velocity=64 time=0.140625
EXTRACT: note_off channel=3 note=82 velocity=64 time=0.10625000000000001
EXTRACT: note_off channel=7 note=55 velocity=64 time=0.015625
EXTRACT: note_off channel=7 note=58 velocity=64 time=0
EXTRACT: note_off channel=7 note=62 velocity=64 time=0
EXTRACT: note_off channel=7 note=65 velocity=64 time=0
EXTRACT: note_off channel=6 note=74 velocity=64 time=0.003125
EXTRACT: note_on channel=1 note=36 velocity=102 time=0.00625
EXTRACT: note_on channel=2 note=63 velocity=77 time=0
EXTRACT: note_on channel=3 note=79 velocity=88 time=0
EXTRACT: note_on channel=6 note=75 velocity=59 time=0
EXTRACT: note_on channel=7 note=55 velocity=58 time=0
EXTRACT: note_on channel=7 note=60 velocity=59 time=0
EXTRACT: note_on channel=7 note=63 velocity=58 time=0
EXTRACT: note_on channel=9 note=38 velocity=102 time=0
EXTRACT: note_on channel=9 note=51 velocity=94 time=0
EXTRACT: note_on channel=10 note=55 velocity=76 time=0
EXTRACT: note_on channel=10 note=60 velocity=74 time=0
EXTRACT: note_on channel=10 note=63 velocity=74 time=0
EXTRACT: control_change channel=10 control=64 value=0 time=0.021875000000000002
EXTRACT: note_off channel=9 note=38 velocity=64 time=0.1015625
EXTRACT: note_off channel=9 note=51 velocity=64 time=0.0140625
EXTRACT: control_change channel=10 control=64 value=127 time=0.07968750000000001
EXTRACT: note_off channel=10 note=55 velocity=64 time=0.08125
EXTRACT: note_off channel=10 note=60 velocity=64 time=0.0015625
EXTRACT: note_off channel=10 note=63 velocity=64 time=0.015625
EXTRACT: note_off channel=3 note=79 velocity=64 time=0.043750000000000004
EXTRACT: note_on channel=3 note=82 velocity=92 time=0.015625
EXTRACT: note_on channel=9 note=51 velocity=73 time=0
EXTRACT: note_off channel=9 note=51 velocity=64 time=0.1203125
EXTRACT: note_off channel=1 note=36 velocity=64 time=0.1234375
EXTRACT: note_off channel=2 note=63 velocity=64 time=0.11093750000000001
EXTRACT: note_off channel=7 note=55 velocity=64 time=0.010937500000000001
EXTRACT: note_off channel=7 note=60 velocity=64 time=0
EXTRACT: note_off channel=7 note=63 velocity=64 time=0
EXTRACT: note_off channel=2 note=62 velocity=64 time=0.0015625
EXTRACT: note_off channel=6 note=75 velocity=64 time=0.0015625
EXTRACT: note_on channel=1 note=29 velocity=102 time=0.00625
EXTRACT: note_on channel=3 note=79 velocity=90 time=0
EXTRACT: note_on channel=6 note=72 velocity=58 time=0
EXTRACT: note_on channel=7 note=53 velocity=58 time=0
EXTRACT: note_on channel=7 note=56 velocity=59 time=0
EXTRACT: note_on channel=7 note=60 velocity=59 time=0
EXTRACT: note_on channel=7 note=63 velocity=58 time=0
EXTRACT: note_on channel=9 note=35 velocity=118 time=0
EXTRACT: note_on channel=9 note=51 velocity=83 time=0
EXTRACT: note_on channel=10 note=53 velocity=67 time=0
EXTRACT: note_on channel=10 note=56 velocity=69 time=0
EXTRACT: note_on channel=10 note=60 velocity=78 time=0
EXTRACT: note_on channel=10 note=63 velocity=67 time=0
EXTRACT: note_off channel=3 note=82 velocity=64 time=0.0078125
EXTRACT: note_off channel=2 note=60 velocity=64 time=0.003125
EXTRACT: control_change channel=10 control=64 value=0 time=0.045312500000000006
EXTRACT: note_off channel=9 note=35 velocity=64 time=0.025
EXTRACT: note_off channel=9 note=51 velocity=64 time=0.07187500000000001
EXTRACT: note_off channel=3 note=79 velocity=64 time=0.1953125
EXTRACT: note_on channel=2 note=60 velocity=82 time=0.026562500000000003
EXTRACT: note_on channel=3 note=82 velocity=89 time=0
EXTRACT: note_on channel=9 note=51 velocity=68 time=0
EXTRACT: note_off channel=9 note=51 velocity=64 time=0.11406250000000001
EXTRACT: note_off channel=3 note=82 velocity=64 time=0.2578125
EXTRACT: note_on channel=2 note=67 velocity=85 time=0.003125
EXTRACT: note_on channel=3 note=79 velocity=91 time=0
EXTRACT: note_on channel=9 note=38 velocity=102 time=0
EXTRACT: note_on channel=9 note=51 velocity=90 time=0
EXTRACT: control_change channel=10 control=64 value=127 time=0.09375
EXTRACT: note_off channel=9 note=38 velocity=64 time=0.0390625
EXTRACT: note_off channel=9 note=51 velocity=64 time=0.0078125
EXTRACT: control_change channel=2 control=64 value=127 time=0.05625
EXTRACT: note_off channel=2 note=60 velocity=64 time=0.0203125
EXTRACT: note_off channel=10 note=53 velocity=64 time=0.021875000000000002
EXTRACT: note_off channel=10 note=56 velocity=64 time=0.029687500000000002
EXTRACT: note_off channel=10 note=60 velocity=64 time=0.0234375
EXTRACT: note_off channel=10 note=63 velocity=64 time=0.0015625
EXTRACT: note_off channel=3 note=79 velocity=64 time=0.0703125
EXTRACT: note_on channel=2 note=60 velocity=78 time=0.010937500000000001
EXTRACT: note_on channel=3 note=82 velocity=88 time=0
EXTRACT: note_on channel=9 note=51 velocity=66 time=0
EXTRACT: note_off channel=9 note=51 velocity=64 time=0.10625000000000001
EXTRACT: note_off channel=1 note=29 velocity=64 time=0.1375
EXTRACT: note_off channel=3 note=82 velocity=64 time=0.11406250000000001
EXTRACT: note_off channel=7 note=53 velocity=64 time=0.0078125
EXTRACT: note_off channel=7 note=56 velocity=64 time=0
EXTRACT: note_off channel=7 note=60 velocity=64 time=0
EXTRACT: note_off channel=7 note=63 velocity=64 time=0
EXTRACT: note_on channel=1 note=32 velocity=102 time=0.009375000000000001
EXTRACT: note_on channel=2 note=63 velocity=80 time=0
EXTRACT: note_on channel=3 note=79 velocity=92 time=0
EXTRACT: note_on channel=7 note=56 velocity=58 time=0
EXTRACT: note_on channel=7 note=60 velocity=58 time=0
EXTRACT: note_on channel=7 note=63 velocity=58 time=0
EXTRACT: note_on channel=9 note=35 velocity=118 time=0
EXTRACT: note_on channel=9 note=51 velocity=78 time=0
EXTRACT: note_on channel=10 note=56 velocity=59 time=0
EXTRACT: note_on channel=10 note=60 velocity=80 time=0
EXTRACT: note_on channel=10 note=63 velocity=61 time=0
EXTRACT: control_change channel=10 control=64 value=0 time=0
EXTRACT: note_off channel=2 note=67 velocity=64 time=0.09843750000000001
EXTRACT: control_change channel=2 control=64 value=0 time=0.003125
EXTRACT: note_off channel=9 note=35 velocity=64 time=0.010937500000000001
EXTRACT: note_off channel=9 note=51 velocity=64 time=0.0125
EXTRACT: note_off channel=2 note=60 velocity=64 time=0.1046875
EXTRACT: note_off channel=3 note=79 velocity=64 time=0.1203125
EXTRACT: control_change channel=2 control=64 value=127 time=0.0140625
EXTRACT: note_on channel=2 note=60 velocity=79 time=0.010937500000000001
EXTRACT: note_on channel=3 note=75 velocity=90 time=0
EXTRACT: note_on channel=9 note=35 velocity=118 time=0
EXTRACT: note_on channel=9 note=51 velocity=70 time=0
EXTRACT: note_off channel=9 note=51 velocity=64 time=0.10312500000000001
EXTRACT: note_off channel=9 note=35 velocity=64 time=0.009375000000000001
EXTRACT: control_change channel=2 control=64 value=0 time=0.203125
EXTRACT: note_on channel=2 note=67 velocity=82 time=0.059375000000000004
EXTRACT: note_on channel=9 note=38 velocity=102 time=0
EXTRACT: note_on channel=9 note=51 velocity=95 time=0
EXTRACT: note_off channel=9 note=38 velocity=64 time=0.1234375
EXTRACT: note_off channel=9 note=51 velocity=64 time=0.0140625
EXTRACT: note_off channel=2 note=60 velocity=64 time=0.053125000000000006
EXTRACT: note_on channel=2 note=60 velocity=82 time=0.184375
EXTRACT: note_on channel=9 note=51 velocity=72 time=0
EXTRACT: note_off channel=3 note=75 velocity=64 time=0.07968750000000001
EXTRACT: note_off channel=9 note=51 velocity=64 time=0.040625
EXTRACT: note_off channel=1 note=32 velocity=64 time=0.09375
EXTRACT: note_off channel=2 note=60 velocity=64 time=0.115625
EXTRACT: note_off channel=6 note=82 velocity=64 time=0.009375000000000001
EXTRACT: note_off channel=6 note=72 velocity=64 time=0
EXTRACT: note_off channel=2 note=67 velocity=64 time=0.0015625
EXTRACT: note_on channel=1 note=32 velocity=102 time=0.004687500000000001
EXTRACT: note_on channel=3 note=79 velocity=92 time=0
EXTRACT: note_on channel=6 note=77 velocity=58 time=0
EXTRACT: note_on channel=7 note=56 velocity=59 time=0
EXTRACT: note_on channel=7 note=58 velocity=59 time=0
EXTRACT: note_on channel=7 note=62 velocity=58 time=0
EXTRACT: note_on channel=7 note=65 velocity=58 time=0
EXTRACT: note_on channel=9 note=35 velocity=118 time=0
EXTRACT: note_on channel=9 note=51 velocity=82 time=0
EXTRACT: note_on channel=10 note=56 velocity=58 time=0
EXTRACT: note_on channel=10 note=58 velocity=75 time=0
EXTRACT: note_on channel=10 note=62 velocity=83 time=0
EXTRACT: note_on channel=10 note=65 velocity=72 time=0
EXTRACT: note_off channel=7 note=63 velocity=64 time=0.0015625
EXTRACT: note_off channel=10 note=63 velocity=64 time=0
EXTRACT: note_off channel=7 note=56 velocity=64 time=0.0015625
EXTRACT: note_off channel=10 note=56 velocity=64 time=0
EXTRACT: note_off channel=7 note=60 velocity=64 time=0.00625
EXTRACT: note_off channel=10 note=60 velocity=64 time=0
EXTRACT: note_off channel=2 note=63 velocity=64 time=0.009375000000000001
EXTRACT: note_off channel=9 note=35 velocity=64 time=0.0625
EXTRACT: note_off channel=9 note=51 velocity=64 time=0.07187500000000001
EXTRACT: note_off channel=3 note=79 velocity=64 time=0.18281250000000002
EXTRACT: note_on channel=2 note=58 velocity=76 time=0.0390625
EXTRACT: note_on channel=3 note=80 velocity=88 time=0
EXTRACT: note_on channel=9 note=51 velocity=69 time=0
EXTRACT: control_change channel=10 control=64 value=127 time=0.0859375
EXTRACT: note_off channel=9 note=51 velocity=64 time=0.028125
EXTRACT: note_off channel=1 note=32 velocity=64 time=0.20625000000000002
EXTRACT: note_off channel=3 note=80 velocity=64 time=0.0390625
EXTRACT: note_on channel=1 note=32 velocity=102 time=0.015625
EXTRACT: note_on channel=2 note=65 velocity=78 time=0
EXTRACT: note_on channel=3 note=79 velocity=90 time=0
EXTRACT: note_on channel=9 note=38 velocity=102 time=0
EXTRACT: note_on channel=9 note=51 velocity=91 time=0
EXTRACT: note_off channel=10 note=56 velocity=64 time=0.0734375
EXTRACT: note_off channel=9 note=38 velocity=64 time=0.059375000000000004
EXTRACT: control_change channel=2 control=64 value=127 time=0.004687500000000001
EXTRACT: note_off channel=9 note=51 velocity=64 time=0.003125
EXTRACT: note_off channel=2 note=58 velocity=64 time=0.037500000000000006
EXTRACT: note_off channel=7 note=56 velocity=64 time=0.1875
EXTRACT: note_on channel=2 note=58 velocity=79 time=0.009375000000000001
EXTRACT: note_on channel=3 note=80 velocity=92 time=0
EXTRACT: note_on channel=7 note=56 velocity=58 time=0
EXTRACT: note_on channel=9 note=51 velocity=67 time=0
EXTRACT: note_on channel=10 note=56 velocity=62 time=0
EXTRACT: note_off channel=3 note=79 velocity=64 time=0.015625
EXTRACT: note_off channel=10 note=58 velocity=64 time=0.015625
EXTRACT: note_off channel=10 note=56 velocity=64 time=0.0140625
EXTRACT: note_off channel=10 note=65 velocity=64 time=0.0078125
EXTRACT: note_off channel=10 note=62 velocity=64 time=0.00625
EXTRACT: note_off channel=1 note=32 velocity=64 time=0.040625
EXTRACT: note_off channel=9 note=51 velocity=64 time=0.00625
EXTRACT: note_off channel=7 note=58 velocity=64 time=0.240625
EXTRACT: note_off channel=7 note=56 velocity=64 time=0.018750000000000003
EXTRACT: note_off channel=6 note=77 velocity=64 time=0.003125
EXTRACT: note_off channel=7 note=65 velocity=64 time=0
EXTRACT: note_on channel=1 note=31 velocity=102 time=0.00625
EXTRACT: note_on channel=2 note=62 velocity=75 time=0
EXTRACT: note_on channel=3 note=82 velocity=90 time=0
EXTRACT: note_on channel=6 note=70 velocity=58 time=0
EXTRACT: note_on channel=7 note=55 velocity=59 time=0
EXTRACT: note_on channel=7 note=58 velocity=58 time=0
EXTRACT: note_on channel=7 note=62 velocity=58 time=0
EXTRACT: note_on channel=7 note=65 velocity=59 time=0
EXTRACT: note_on channel=9 note=35 velocity=119 time=0
EXTRACT: note_on channel=9 note=51 velocity=78 time=0
EXTRACT: note_on channel=10 note=55 velocity=81 time=0
EXTRACT: note_on channel=10 note=58 velocity=73 time=0
EXTRACT: note_on channel=10 note=62 velocity=81 time=0
EXTRACT: note_on channel=10 note=65 velocity=73 time=0
EXTRACT: control_change channel=10 control=64 value=0 time=0.0078125
EXTRACT: note_off channel=3 note=80 velocity=64 time=0.003125
EXTRACT: control_change channel=2 control=64 value=0 time=0.0328125
EXTRACT: note_off channel=9 note=35 velocity=64 time=0.06875
EXTRACT: note_off channel=9 note=51 velocity=64 time=0.0125
EXTRACT: control_change channel=2 control=64 value=127 time=0.11406250000000001
EXTRACT: control_change channel=10 control=64 value=127 time=0.03125
EXTRACT: note_on channel=2 note=58 velocity=78 time=0.1046875
EXTRACT: note_on channel=9 note=51 velocity=71 time=0
EXTRACT: note_off channel=2 note=62 velocity=64 time=0.0140625
EXTRACT: note_off channel=10 note=65 velocity=64 time=0.0390625
EXTRACT: note_off channel=9 note=51 velocity=64 time=0.05
EXTRACT: note_off channel=10 note=62 velocity=64 time=0.015625
EXTRACT: note_off channel=10 note=58 velocity=64 time=0.015625
EXTRACT: note_off channel=10 note=55 velocity=64 time=0.004687500000000001
EXTRACT: note_off channel=2 note=58 velocity=64 time=0.010937500000000001
EXTRACT: note_off channel=14 note=82 velocity=64 time=0.21875
EXTRACT: note_on channel=2 note=55 velocity=82 time=0.00625
EXTRACT: note_on channel=3 note=75 velocity=88 time=0
EXTRACT: note_on channel=9 note=38 velocity=103 time=0
EXTRACT: note_on channel=9 note=51 velocity=94 time=0
EXTRACT: note_on channel=14 note=79 velocity=74 time=0
EXTRACT: note_off channel=3 note=82 velocity=64 time=0.0140625
EXTRACT: control_change channel=2 control=64 value=0 time=0
EXTRACT: note_off channel=9 note=38 velocity=64 time=0.109375
EXTRACT: note_off channel=9 note=51 velocity=64 time=0.0140625
EXTRACT: control_change channel=2 control=64 value=127 time=0.0734375
EXTRACT: note_off channel=3 note=75 velocity=64 time=0.14375000000000002
EXTRACT: note_on channel=3 note=77 velocity=91 time=0.0203125
EXTRACT: note_on channel=9 note=51 velocity=73 time=0
EXTRACT: control_change channel=2 control=64 value=0 time=0.034375
EXTRACT: note_off channel=2 note=58 velocity=64 time=0.021875000000000002
EXTRACT: note_off channel=9 note=51 velocity=64 time=0.06406250000000001
EXTRACT: note_off channel=2 note=65 velocity=64 time=0.0140625
EXTRACT: note_off channel=1 note=31 velocity=64 time=0.109375
EXTRACT: note_off channel=2 note=55 velocity=64 time=0.09843750000000001
EXTRACT: note_off channel=7 note=62 velocity=64 time=0.0234375
EXTRACT: note_off channel=7 note=55 velocity=64 time=0
EXTRACT: note_off channel=7 note=58 velocity=64 time=0
EXTRACT: note_off channel=7 note=65 velocity=64 time=0
EXTRACT: note_off channel=6 note=70 velocity=64 time=0.003125
EXTRACT: note_off channel=14 note=79 velocity=64 time=0
EXTRACT: note_on channel=1 note=31 velocity=102 time=0
EXTRACT: note_on channel=6 note=71 velocity=58 time=0
EXTRACT: note_on channel=7 note=53 velocity=58 time=0
EXTRACT: note_on channel=7 note=55 velocity=58 time=0
EXTRACT: note_on channel=7 note=59 velocity=58 time=0
EXTRACT: note_on channel=7 note=62 velocity=59 time=0
EXTRACT: note_on channel=9 note=35 velocity=118 time=0
EXTRACT: note_on channel=9 note=51 velocity=82 time=0
EXTRACT: note_on channel=10 note=53 velocity=76 time=0
EXTRACT: note_on channel=10 note=55 velocity=80 time=0
EXTRACT: note_on channel=10 note=59 velocity=75 time=0
EXTRACT: note_on channel=10 note=62 velocity=80 time=0
EXTRACT: control_change channel=10 control=64 value=0 time=0.0171875
EXTRACT: note_on channel=14 note=91 velocity=71 time=0.00625
EXTRACT: note_off channel=9 note=35 velocity=64 time=0.0578125
EXTRACT: note_off channel=9 note=51 velocity=64 time=0.07187500000000001
EXTRACT: note_on channel=2 note=59 velocity=84 time=0.22187500000000002
EXTRACT: note_on channel=9 note=51 velocity=69 time=0
EXTRACT: note_off channel=9 note=51 velocity=64 time=0.11406250000000001
EXTRACT: note_on channel=9 note=38 velocity=81 time=0.10625000000000001
EXTRACT: note_off channel=9 note=38 velocity=64 time=0.07968750000000001
EXTRACT: note_off channel=1 note=31 velocity=64 time=0.0328125
EXTRACT: note_on channel=1 note=43 velocity=102 time=0.0421875
EXTRACT: note_on channel=2 note=67 velocity=84 time=0
EXTRACT: note_on channel=9 note=38 velocity=103 time=0
EXTRACT: note_off channel=9 note=38 velocity=64 time=0.11406250000000001
EXTRACT: note_off channel=2 note=59 velocity=64 time=0.0484375
EXTRACT: note_on channel=9 note=38 velocity=105 time=0.0421875
EXTRACT: note_off channel=9 note=38 velocity=64 time=0.0578125
EXTRACT: note_off channel=3 note=77 velocity=64 time=0.0703125
EXTRACT: note_on channel=3 note=75 velocity=90 time=0.00625
EXTRACT: note_on channel=2 note=59 velocity=74 time=0.0171875
EXTRACT: note_on channel=9 note=38 velocity=104 time=0
EXTRACT: note_off channel=9 note=38 velocity=64 time=0.05625
EXTRACT: note_off channel=1 note=43 velocity=64 time=0.20625000000000002
EXTRACT: note_off channel=3 note=75 velocity=64 time=0.0390625
EXTRACT: note_off channel=2 note=67 velocity=64 time=0.037500000000000006
EXTRACT: note_off channel=10 note=53 velocity=64 time=0.018750000000000003
EXTRACT: note_off channel=10 note=55 velocity=64 time=0.0015625
EXTRACT: note_off channel=7 note=53 velocity=64 time=0.00625
EXTRACT: note_off channel=7 note=55 velocity=64 time=0
EXTRACT: note_off channel=7 note=59 velocity=64 time=0
EXTRACT: note_off channel=6 note=71 velocity=64 time=0.003125
EXTRACT: note_off channel=10 note=59 velocity=64 time=0
EXTRACT: note_off channel=14 note=91 velocity=64 time=0
EXTRACT: note_off channel=2 note=59 velocity=64 time=0
EXTRACT: note_on channel=1 note=32 velocity=103 time=0
EXTRACT: note_on channel=3 note=82 velocity=88 time=0
EXTRACT: note_on channel=6 note=82 velocity=58 time=0
EXTRACT: note_on channel=7 note=56 velocity=58 time=0
EXTRACT: note_on channel=7 note=60 velocity=58 time=0
EXTRACT: note_on channel=7 note=63 velocity=59 time=0
EXTRACT: note_on channel=7 note=67 velocity=59 time=0
EXTRACT: note_on channel=9 note=35 velocity=119 time=0
EXTRACT: note_on channel=9 note=51 velocity=78 time=0
EXTRACT: note_on channel=9 note=57 velocity=82 time=0
EXTRACT: note_on channel=10 note=56 velocity=54 time=0
EXTRACT: note_on channel=10 note=60 velocity=79 time=0
EXTRACT: note_on channel=10 note=63 velocity=54 time=0
EXTRACT: note_on channel=10 note=67 velocity=82 time=0
EXTRACT: note_on channel=14 note=82 velocity=75 time=0
EXTRACT: note_off channel=7 note=62 velocity=64 time=0.003125
EXTRACT: note_off channel=10 note=62 velocity=64 time=0
EXTRACT: note_off channel=9 note=35 velocity=64 time=0.109375
EXTRACT: note_off channel=9 note=51 velocity=64 time=0.0125
EXTRACT: note_off channel=9 note=57 velocity=64 time=0.028125
EXTRACT: note_off channel=3 note=82 velocity=64 time=0.0890625
EXTRACT: note_on channel=2 note=60 velocity=78 time=0.1328125
EXTRACT: note_on channel=3 note=82 velocity=88 time=0
EXTRACT: note_on channel=9 note=51 velocity=71 time=0
EXTRACT: note_off channel=9 note=51 velocity=64 time=0.10312500000000001
EXTRACT: note_off channel=3 note=82 velocity=64 time=0.184375
EXTRACT: note_off channel=6 note=82 velocity=64 time=0.08125
EXTRACT: note_on channel=2 note=67 velocity=80 time=0.00625
EXTRACT: note_on channel=3 note=82 velocity=88 time=0
EXTRACT: note_on channel=6 note=72 velocity=58 time=0
EXTRACT: note_on channel=9 note=38 velocity=102 time=0
EXTRACT: note_on channel=9 note=51 velocity=94 time=0
EXTRACT: control_change channel=10 control=64 value=127 time=0.010937500000000001
EXTRACT: note_off channel=9 note=38 velocity=64 time=0.1125
EXTRACT: note_off channel=9 note=51 velocity=64 time=0.0140625
EXTRACT: note_off channel=10 note=60 velocity=64 time=0.06406250000000001
EXTRACT: note_off channel=10 note=56 velocity=64 time=0.0078125
EXTRACT: note_off channel=10 note=67 velocity=64 time=0.003125
EXTRACT: note_off channel=10 note=63 velocity=64 time=0.004687500000000001
EXTRACT: note_off channel=2 note=60 velocity=64 time=0.065625
EXTRACT: note_off channel=3 note=82 velocity=64 time=0.003125
EXTRACT: note_on channel=2 note=60 velocity=78 time=0.0890625
EXTRACT: note_on channel=3 note=82 velocity=93 time=0
EXTRACT: note_on channel=9 note=51 velocity=72 time=0
EXTRACT: note_off channel=9 note=51 velocity=64 time=0.1203125
EXTRACT: note_off channel=1 note=32 velocity=64 time=0.1234375
EXTRACT: note_off channel=2 note=67 velocity=64 time=0.08750000000000001
EXTRACT: note_off channel=3 note=82 velocity=64 time=0.018750000000000003
EXTRACT: control_change channel=10 control=64 value=0 time=0.0078125
EXTRACT: note_off channel=7 note=56 velocity=64 time=0.0078125
EXTRACT: note_off channel=7 note=60 velocity=64 time=0
EXTRACT: note_off channel=7 note=63 velocity=64 time=0
EXTRACT: note_off channel=7 note=67 velocity=64 time=0
EXTRACT: note_off channel=6 note=72 velocity=64 time=0.003125
EXTRACT: note_on channel=3 note=79 velocity=92 time=0.0015625
EXTRACT: note_on channel=1 note=31 velocity=102 time=0.004687500000000001
EXTRACT: note_on channel=2 note=62 velocity=78 time=0
EXTRACT: note_on channel=6 note=74 velocity=59 time=0
EXTRACT: note_on channel=7 note=55 velocity=58 time=0
EXTRACT: note_on channel=7 note=58 velocity=58 time=0
EXTRACT: note_on channel=7 note=62 velocity=58 time=0
EXTRACT: note_on channel=7 note=65 velocity=58 time=0
EXTRACT: note_on channel=9 note=35 velocity=118 time=0
EXTRACT: note_on channel=9 note=51 velocity=82 time=0
EXTRACT: note_on channel=10 note=55 velocity=76 time=0
EXTRACT: note_on channel=10 note=58 velocity=68 time=0
EXTRACT: note_on channel=10 note=62 velocity=82 time=0
EXTRACT: note_on channel=10 note=65 velocity=81 time=0
EXTRACT: note_off channel=9 note=35 velocity=64 time=0.08125
EXTRACT: note_off channel=9 note=51 velocity=64 time=0.07187500000000001
EXTRACT: control_change channel=10 control=64 value=127 time=0.025
EXTRACT: note_off channel=10 note=65 velocity=64 time=0.12812500000000002
EXTRACT: note_off channel=10 note=55 velocity=64 time=0.035937500000000004
EXTRACT: note_off channel=3 note=79 velocity=64 time=0.003125
EXTRACT: note_off channel=10 note=58 velocity=64 time=0.004687500000000001
EXTRACT: note_off channel=10 note=62 velocity=64 time=0.004687500000000001
EXTRACT: note_on channel=9 note=51 velocity=68 time=0.0203125
EXTRACT: note_off channel=9 note=51 velocity=64 time=0.0203125
EXTRACT: note_off channel=1 note=31 velocity=64 time=0.1296875
EXTRACT: note_off channel=7 note=55 velocity=64 time=0.12187500000000001
EXTRACT: note_off channel=7 note=58 velocity=64 time=0
EXTRACT: note_off channel=7 note=62 velocity=64 time=0
EXTRACT: note_off channel=7 note=65 velocity=64 time=0
EXTRACT: note_off channel=6 note=74 velocity=64 time=0.003125
EXTRACT: note_on channel=1 note=36 velocity=102 time=0.00625
EXTRACT: note_on channel=2 note=63 velocity=77 time=0
EXTRACT: note_on channel=3 note=75 velocity=89 time=0
EXTRACT: note_on channel=6 note=75 velocity=59 time=0
EXTRACT: note_on channel=7 note=55 velocity=58 time=0
EXTRACT: note_on channel=7 note=60 velocity=58 time=0
EXTRACT: note_on channel=7 note=63 velocity=58 time=0
EXTRACT: note_on channel=9 note=38 velocity=103 time=0
EXTRACT: note_on channel=9 note=51 velocity=91 time=0
EXTRACT: note_on channel=10 note=55 velocity=76 time=0
EXTRACT: note_on channel=10 note=60 velocity=75 time=0
EXTRACT: note_on channel=10 note=63 velocity=75 time=0
EXTRACT: control_change channel=10 control=64 value=0 time=0.021875000000000002
EXTRACT: note_off channel=9 note=38 velocity=64 time=0.11093750000000001
EXTRACT: note_off channel=9 note=51 velocity=64 time=0.0078125
EXTRACT: control_change channel=10 control=64 value=127 time=0.0765625
EXTRACT: note_off channel=3 note=75 velocity=64 time=0.07968750000000001
EXTRACT: note_off channel=10 note=55 velocity=64 time=0.0015625
EXTRACT: note_off channel=10 note=60 velocity=64 time=0.0015625
EXTRACT: note_off channel=10 note=63 velocity=64 time=0.015625
EXTRACT: note_on channel=3 note=75 velocity=93 time=0.059375000000000004
EXTRACT: note_on channel=9 note=51 velocity=66 time=0
EXTRACT: note_off channel=9 note=51 velocity=64 time=0.10625000000000001
EXTRACT: note_off channel=1 note=36 velocity=64 time=0.23593750000000002
EXTRACT: note_off channel=2 note=63 velocity=64 time=0.0125
EXTRACT: note_off channel=7 note=55 velocity=64 time=0.010937500000000001
EXTRACT: note_off channel=7 note=60 velocity=64 time=0
EXTRACT: note_off channel=7 note=63 velocity=64 time=0
EXTRACT: note_off channel=2 note=62 velocity=64 time=0.0015625
EXTRACT: note_off channel=6 note=75 velocity=64 time=0.0015625
EXTRACT: note_on channel=1 note=29 velocity=102 time=0.00625
EXTRACT: note_on channel=3 note=82 velocity=90 time=0
EXTRACT: note_on channel=6 note=72 velocity=58 time=0
EXTRACT: note_on channel=7 note=53 velocity=58 time=0
EXTRACT: note_on channel=7 note=56 velocity=58 time=0
EXTRACT: note_on channel=7 note=60 velocity=58 time=0
EXTRACT: note_on channel=7 note=63 velocity=59 time=0
EXTRACT: note_on channel=9 note=35 velocity=118 time=0
EXTRACT: note_on channel=9 note=51 velocity=79 time=0
EXTRACT: note_on channel=10 note=53 velocity=67 time=0
EXTRACT: note_on channel=10 note=56 velocity=68 time=0
EXTRACT: note_on channel=10 note=60 velocity=78 time=0
EXTRACT: note_on channel=10 note=63 velocity=66 time=0
EXTRACT: note_off channel=3 note=75 velocity=64 time=0.0078125
EXTRACT: note_off channel=2 note=60 velocity=64 time=0.003125
EXTRACT: control_change channel=10 control=64 value=0 time=0.045312500000000006
EXTRACT: note_off channel=9 note=35 velocity=64 time=0.05625
EXTRACT: note_off channel=9 note=51 velocity=64 time=0.0125
EXTRACT: note_off channel=3 note=82 velocity=64 time=0.2234375
EXTRACT: note_on channel=2 note=60 velocity=82 time=0.026562500000000003
EXTRACT: note_on channel=3 note=82 velocity=89 time=0
EXTRACT: note_on channel=9 note=51 velocity=71 time=0
EXTRACT: note_off channel=9 note=51 velocity=64 time=0.10312500000000001
EXTRACT: note_off channel=3 note=82 velocity=64 time=0.2078125
EXTRACT: note_on channel=2 note=67 velocity=84 time=0.06406250000000001
EXTRACT: note_on channel=3 note=82 velocity=91 time=0
EXTRACT: note_on channel=9 note=38 velocity=102 time=0
EXTRACT: note_on channel=9 note=51 velocity=94 time=0
EXTRACT: control_change channel=10 control=64 value=127 time=0.09375
EXTRACT: note_off channel=9 note=38 velocity=64 time=0.029687500000000002
EXTRACT: note_off channel=9 note=51 velocity=64 time=0.0140625
EXTRACT: note_off channel=2 note=60 velocity=64 time=0.07968750000000001
EXTRACT: note_off channel=10 note=53 velocity=64 time=0.021875000000000002
EXTRACT: note_off channel=10 note=56 velocity=64 time=0.029687500000000002
EXTRACT: note_off channel=10 note=60 velocity=64 time=0.0234375
EXTRACT: note_off channel=10 note=63 velocity=64 time=0.0015625
EXTRACT: note_off channel=3 note=82 velocity=64 time=0.0703125
EXTRACT: note_on channel=2 note=60 velocity=78 time=0.010937500000000001
EXTRACT: note_on channel=3 note=84 velocity=88 time=0
EXTRACT: note_on channel=9 note=51 velocity=73 time=0
EXTRACT: note_off channel=9 note=51 velocity=64 time=0.1203125
EXTRACT: note_off channel=1 note=29 velocity=64 time=0.146875
EXTRACT: note_off channel=3 note=84 velocity=64 time=0.09062500000000001
EXTRACT: note_off channel=7 note=53 velocity=64 time=0.0078125
EXTRACT: note_off channel=7 note=56 velocity=64 time=0
EXTRACT: note_off channel=7 note=60 velocity=64 time=0
EXTRACT: note_off channel=7 note=63 velocity=64 time=0
EXTRACT: note_on channel=1 note=32 velocity=102 time=0.009375000000000001
EXTRACT: note_on channel=2 note=63 velocity=80 time=0
EXTRACT: note_on channel=3 note=79 velocity=93 time=0
EXTRACT: note_on channel=7 note=56 velocity=58 time=0
EXTRACT: note_on channel=7 note=60 velocity=58 time=0
EXTRACT: note_on channel=7 note=63 velocity=58 time=0
EXTRACT: note_on channel=9 note=35 velocity=118 time=0
EXTRACT: note_on channel=9 note=51 velocity=82 time=0
EXTRACT: note_on channel=10 note=56 velocity=58 time=0
EXTRACT: note_on channel=10 note=60 velocity=81 time=0
EXTRACT: note_on channel=10 note=63 velocity=60 time=0
EXTRACT: control_change channel=10 control=64 value=0 time=0
EXTRACT: note_off channel=9 note=35 velocity=64 time=0.08125
EXTRACT: note_off channel=2 note=67 velocity=64 time=0.0171875
EXTRACT: note_off channel=9 note=51 velocity=64 time=0.0546875
EXTRACT: note_off channel=2 note=60 velocity=64 time=0.0765625
EXTRACT: note_off channel=3 note=79 velocity=64 time=0.1203125
EXTRACT: note_on channel=2 note=60 velocity=79 time=0.025
EXTRACT: note_on channel=9 note=35 velocity=118 time=0
EXTRACT: note_on channel=9 note=51 velocity=68 time=0
EXTRACT: note_off channel=9 note=35 velocity=64 time=0.043750000000000004
EXTRACT: note_off channel=9 note=51 velocity=64 time=0.0328125
EXTRACT: note_on channel=2 note=67 velocity=82 time=0.2609375
EXTRACT: note_on channel=9 note=38 velocity=103 time=0
EXTRACT: note_on channel=9 note=51 velocity=91 time=0
EXTRACT: note_on channel=3 note=79 velocity=89 time=0.0171875
EXTRACT: note_off channel=9 note=38 velocity=64 time=0.115625
EXTRACT: note_off channel=9 note=51 velocity=64 time=0.0078125
EXTRACT: note_off channel=2 note=60 velocity=64 time=0.05
EXTRACT: note_on channel=2 note=60 velocity=83 time=0.184375
EXTRACT: note_on channel=9 note=51 velocity=66 time=0
EXTRACT: note_off channel=3 note=79 velocity=64 time=0.003125
EXTRACT: note_on channel=3 note=80 velocity=92 time=0
EXTRACT: note_off channel=9 note=51 velocity=64 time=0.10312500000000001
EXTRACT: note_off channel=1 note=32 velocity=64 time=0.22187500000000002
EXTRACT: note_off channel=10 note=56 velocity=64 time=0
EXTRACT: note_off channel=2 note=60 velocity=64 time=0.03125
EXTRACT: note_off channel=7 note=56 velocity=64 time=0.00625
EXTRACT: note_off channel=6 note=72 velocity=64 time=0.003125
EXTRACT: note_off channel=2 note=67 velocity=64 time=0.0015625
EXTRACT: note_on channel=1 note=32 velocity=103 time=0.004687500000000001
EXTRACT: note_on channel=3 note=79 velocity=92 time=0
EXTRACT: note_on channel=6 note=70 velocity=59 time=0
EXTRACT: note_on channel=7 note=56 velocity=59 time=0
EXTRACT: note_on channel=7 note=58 velocity=58 time=0
EXTRACT: note_on channel=7 note=62 velocity=59 time=0
EXTRACT: note_on channel=7 note=65 velocity=59 time=0
EXTRACT: note_on channel=9 note=35 velocity=118 time=0
EXTRACT: note_on channel=9 note=51 velocity=78 time=0
EXTRACT: note_on channel=10 note=56 velocity=58 time=0
EXTRACT: note_on channel=10 note=58 velocity=75 time=0
EXTRACT: note_on channel=10 note=62 velocity=83 time=0
EXTRACT: note_on channel=10 note=65 velocity=72 time=0
EXTRACT: note_off channel=7 note=63 velocity=64 time=0.0015625
EXTRACT: note_off channel=10 note=63 velocity=64 time=0
EXTRACT: note_off channel=7 note=60 velocity=64 time=0.0078125
EXTRACT: note_off channel=10 note=60 velocity=64 time=0
EXTRACT: note_off channel=3 note=80 velocity=64 time=0.0015625
EXTRACT: note_off channel=2 note=63 velocity=64 time=0.0078125
EXTRACT: note_off channel=9 note=35 velocity=64 time=0.09375
EXTRACT: note_off channel=9 note=51 velocity=64 time=0.0125
EXTRACT: note_on channel=2 note=58 velocity=77 time=0.25
EXTRACT: note_on channel=9 note=51 velocity=70 time=0
EXTRACT: control_change channel=10 control=64 value=127 time=0.0859375
EXTRACT: note_off channel=9 note=51 velocity=64 time=0.0171875
EXTRACT: note_on channel=3 note=75 velocity=91 time=0.265625
EXTRACT: note_off channel=3 note=79 velocity=64 time=0.00625
EXTRACT: note_on channel=2 note=65 velocity=78 time=0
EXTRACT: note_on channel=9 note=38 velocity=102 time=0
EXTRACT: note_on channel=9 note=51 velocity=94 time=0
EXTRACT: note_off channel=10 note=56 velocity=64 time=0.0734375
EXTRACT: note_off channel=9 note=38 velocity=64 time=0.05
EXTRACT: note_off channel=9 note=51 velocity=64 time=0.0140625
EXTRACT: note_off channel=2 note=58 velocity=64 time=0.040625
EXTRACT: note_off channel=3 note=75 velocity=64 time=0.18281250000000002
EXTRACT: note_off channel=7 note=56 velocity=64 time=0.004687500000000001
EXTRACT: note_on channel=3 note=77 velocity=89 time=0.0078125
EXTRACT: note_on channel=2 note=58 velocity=79 time=0.0015625
EXTRACT: note_on channel=7 note=56 velocity=58 time=0
EXTRACT: note_on channel=9 note=51 velocity=72 time=0
EXTRACT: note_on channel=10 note=56 velocity=62 time=0
EXTRACT: note_off channel=10 note=58 velocity=64 time=0.03125
EXTRACT: note_off channel=10 note=56 velocity=64 time=0.0140625
EXTRACT: note_off channel=10 note=65 velocity=64 time=0.0078125
EXTRACT: note_off channel=10 note=62 velocity=64 time=0.00625
EXTRACT: note_off channel=9 note=51 velocity=64 time=0.060937500000000006
EXTRACT: note_off channel=1 note=32 velocity=64 time=0.1234375
EXTRACT: note_off channel=7 note=56 velocity=64 time=0.12187500000000001
EXTRACT: note_off channel=14 note=82 velocity=64 time=0.003125
EXTRACT: note_off channel=6 note=70 velocity=64 time=0
EXTRACT: note_off channel=7 note=58 velocity=64 time=0
EXTRACT: note_on channel=1 note=31 velocity=102 time=0.00625
EXTRACT: note_on channel=2 note=62 velocity=75 time=0
EXTRACT: note_on channel=6 note=91 velocity=58 time=0
EXTRACT: note_on channel=7 note=55 velocity=59 time=0
EXTRACT: note_on channel=7 note=59 velocity=58 time=0
EXTRACT: note_on channel=7 note=62 velocity=59 time=0
EXTRACT: note_on channel=7 note=65 velocity=59 time=0
EXTRACT: note_on channel=9 note=35 velocity=118 time=0
EXTRACT: note_on channel=9 note=51 velocity=82 time=0
EXTRACT: note_on channel=10 note=55 velocity=80 time=0
EXTRACT: note_on channel=10 note=59 velocity=72 time=0
EXTRACT: note_on channel=10 note=62 velocity=80 time=0
EXTRACT: note_on channel=10 note=65 velocity=72 time=0
EXTRACT: note_on channel=14 note=83 velocity=74 time=0
EXTRACT: control_change channel=10 control=64 value=0 time=0.0078125
EXTRACT: note_off channel=7 note=65 velocity=64 time=0.0078125
EXTRACT: note_off channel=7 note=62 velocity=64 time=0.0078125
EXTRACT: note_off channel=9 note=35 velocity=64 time=0.0578125
EXTRACT: note_off channel=9 note=51 velocity=64 time=0.07187500000000001
EXTRACT: note_on channel=9 note=38 velocity=81 time=0.08125
EXTRACT: control_change channel=10 control=64 value=127 time=0.035937500000000004
EXTRACT: note_off channel=1 note=31 velocity=64 time=0.034375
EXTRACT: note_off channel=9 note=38 velocity=64 time=0.009375000000000001
EXTRACT: note_off channel=2 note=58 velocity=64 time=0.0546875
EXTRACT: note_on channel=1 note=31 velocity=103 time=0.00625
EXTRACT: note_on channel=2 note=59 velocity=78 time=0
EXTRACT: note_off channel=2 note=62 velocity=64 time=0.0140625
EXTRACT: note_off channel=10 note=65 velocity=64 time=0.0390625
EXTRACT: note_off channel=10 note=62 velocity=64 time=0.065625
EXTRACT: note_off channel=10 note=59 velocity=64 time=0.015625
EXTRACT: note_off channel=10 note=55 velocity=64 time=0.004687500000000001
EXTRACT: note_on channel=9 note=38 velocity=104 time=0.09531250000000001
EXTRACT: note_off channel=9 note=38 velocity=64 time=0.05625
EXTRACT: note_off channel=1 note=31 velocity=64 time=0.0140625
EXTRACT: note_off channel=6 note=91 velocity=64 time=0.06406250000000001
EXTRACT: note_off channel=14 note=83 velocity=64 time=0
EXTRACT: note_on channel=1 note=31 velocity=103 time=0.00625
EXTRACT: note_on channel=2 note=55 velocity=83 time=0
EXTRACT: note_on channel=6 note=79 velocity=59 time=0
EXTRACT: note_on channel=9 note=38 velocity=104 time=0
EXTRACT: note_on channel=14 note=79 velocity=75 time=0
EXTRACT: note_off channel=9 note=38 velocity=64 time=0.05625
EXTRACT: note_off channel=3 note=77 velocity=64 time=0.0078125
EXTRACT: note_on channel=9 note=38 velocity=102 time=0.029687500000000002
EXTRACT: note_off channel=9 note=38 velocity=64 time=0.1328125
EXTRACT: note_off channel=2 note=59 velocity=64 time=0.11093750000000001
EXTRACT: note_on channel=6 note=77 velocity=54 time=0.06875
EXTRACT: note_off channel=2 note=65 velocity=64 time=0.009375000000000001
EXTRACT: note_on channel=6 note=75 velocity=56 time=0.0484375
EXTRACT: note_off channel=6 note=77 velocity=64 time=0.0421875
EXTRACT: note_on channel=6 note=74 velocity=65 time=0.07500000000000001
EXTRACT: note_off channel=6 note=75 velocity=64 time=0.003125
EXTRACT: note_off channel=1 note=31 velocity=64 time=0.0390625
EXTRACT: note_off channel=2 note=55 velocity=64 time=0
EXTRACT: note_off channel=7 note=62 velocity=64 time=0.0234375
EXTRACT: note_off channel=7 note=65 velocity=64 time=0
EXTRACT: note_off channel=7 note=55 velocity=64 time=0
EXTRACT: note_off channel=7 note=59 velocity=64 time=0
EXTRACT: note_off channel=6 note=79 velocity=64 time=0.003125
EXTRACT: note_off channel=14 note=79 velocity=64 time=0
EXTRACT: note_on channel=1 note=32 velocity=102 time=0.00625
EXTRACT: note_on channel=3 note=82 velocity=89 time=0
EXTRACT: note_on channel=6 note=72 velocity=58 time=0
EXTRACT: note_on channel=7 note=56 velocity=58 time=0
EXTRACT: note_on channel=7 note=60 velocity=58 time=0
EXTRACT: note_on channel=7 note=63 velocity=59 time=0
EXTRACT: note_on channel=7 note=67 velocity=59 time=0
EXTRACT: note_on channel=9 note=35 velocity=119 time=0
EXTRACT: note_on channel=9 note=51 velocity=78 time=0
EXTRACT: note_on channel=9 note=57 velocity=82 time=0
EXTRACT: note_on channel=10 note=56 velocity=54 time=0
EXTRACT: note_on channel=10 note=60 velocity=78 time=0
EXTRACT: note_on channel=10 note=63 velocity=54 time=0
EXTRACT: note_on channel=10 note=67 velocity=82 time=0
EXTRACT: note_on channel=14 note=82 velocity=75 time=0
EXTRACT: note_off channel=6 note=74 velocity=64 time=0.009375000000000001
EXTRACT: note_off channel=9 note=35 velocity=64 time=0.10312500000000001
EXTRACT: note_off channel=9 note=51 velocity=64 time=0.0125
EXTRACT: note_off channel=9 note=57 velocity=64 time=0.028125
EXTRACT: note_off channel=3 note=82 velocity=64 time=0.0890625
EXTRACT: note_on channel=2 note=60 velocity=79 time=0.1328125
EXTRACT: note_on channel=3 note=82 velocity=89 time=0
EXTRACT: note_on channel=9 note=51 velocity=71 time=0
EXTRACT: note_off channel=9 note=51 velocity=64 time=0.10312500000000001
EXTRACT: note_off channel=1 note=32 velocity=64 time=0.140625
EXTRACT: note_off channel=3 note=82 velocity=64 time=0.043750000000000004
EXTRACT: note_on channel=1 note=44 velocity=103 time=0.08750000000000001
EXTRACT: note_on channel=2 note=67 velocity=80 time=0
EXTRACT: note_on channel=3 note=82 velocity=88 time=0
EXTRACT: note_on channel=9 note=38 velocity=92 time=0
EXTRACT: note_on channel=9 note=51 velocity=95 time=0
EXTRACT: control_change channel=10 control=64 value=127 time=0.010937500000000001
EXTRACT: note_off channel=9 note=38 velocity=64 time=0.1125
EXTRACT: note_off channel=9 note=51 velocity=64 time=0.0140625
EXTRACT: note_off channel=10 note=60 velocity=64 time=0.06406250000000001
EXTRACT: note_off channel=10 note=56 velocity=64 time=0.0078125
EXTRACT: note_off channel=10 note=67 velocity=64 time=0.003125
EXTRACT: note_off channel=10 note=63 velocity=64 time=0.004687500000000001
EXTRACT: note_off channel=2 note=60 velocity=64 time=0.065625
EXTRACT: note_off channel=3 note=82 velocity=64 time=0.003125
EXTRACT: note_on channel=2 note=60 velocity=78 time=0.0890625
EXTRACT: note_on channel=3 note=82 velocity=92 time=0
EXTRACT: note_on channel=9 note=51 velocity=73 time=0
EXTRACT: note_off channel=9 note=51 velocity=64 time=0.1203125
EXTRACT: note_off channel=1 note=44 velocity=64 time=0.1234375
EXTRACT: note_off channel=2 note=67 velocity=64 time=0.08750000000000001
EXTRACT: control_change channel=10 control=64 value=0 time=0.026562500000000003
EXTRACT: note_off channel=7 note=56 velocity=64 time=0.0078125
EXTRACT: note_off channel=7 note=60 velocity=64 time=0
EXTRACT: note_off channel=7 note=63 velocity=64 time=0
EXTRACT: note_off channel=7 note=67 velocity=64 time=0
EXTRACT: note_off channel=6 note=72 velocity=64 time=0.003125
EXTRACT: note_on channel=1 note=31 velocity=103 time=0.00625
EXTRACT: note_on channel=2 note=62 velocity=79 time=0
EXTRACT: note_on channel=6 note=74 velocity=58 time=0
EXTRACT: note_on channel=7 note=55 velocity=58 time=0
EXTRACT: note_on channel=7 note=58 velocity=59 time=0
EXTRACT: note_on channel=7 note=62 velocity=59 time=0
EXTRACT: note_on channel=7 note=65 velocity=59 time=0
EXTRACT: note_on channel=9 note=35 velocity=118 time=0
EXTRACT: note_on channel=9 note=51 velocity=83 time=0
EXTRACT: note_on channel=10 note=55 velocity=76 time=0
EXTRACT: note_on channel=10 note=58 velocity=69 time=0
EXTRACT: note_on channel=10 note=62 velocity=82 time=0
EXTRACT: note_on channel=10 note=65 velocity=80 time=0
EXTRACT: note_off channel=9 note=35 velocity=64 time=0.08125
EXTRACT: note_off channel=3 note=82 velocity=64 time=0.0421875
EXTRACT: note_off channel=9 note=51 velocity=64 time=0.029687500000000002
EXTRACT: control_change channel=10 control=64 value=127 time=0.009375000000000001
EXTRACT: note_off channel=10 note=65 velocity=64 time=0.12812500000000002
EXTRACT: note_off channel=10 note=55 velocity=64 time=0.035937500000000004
EXTRACT: note_off channel=10 note=58 velocity=64 time=0.0078125
EXTRACT: note_off channel=10 note=62 velocity=64 time=0.004687500000000001
EXTRACT: note_on channel=3 note=82 velocity=92 time=0.0203125
EXTRACT: note_on channel=9 note=35 velocity=119 time=0
EXTRACT: note_on channel=9 note=51 velocity=69 time=0
EXTRACT: note_off channel=9 note=35 velocity=64 time=0.08125
EXTRACT: note_off channel=9 note=51 velocity=64 time=0.0328125
EXTRACT: note_off channel=1 note=31 velocity=64 time=0.1296875
EXTRACT: note_off channel=3 note=82 velocity=64 time=0.10625000000000001
EXTRACT: note_off channel=7 note=55 velocity=64 time=0.015625
EXTRACT: note_off channel=7 note=58 velocity=64 time=0
EXTRACT: note_off channel=7 note=62 velocity=64 time=0
EXTRACT: note_off channel=7 note=65 velocity=64 time=0
EXTRACT: note_off channel=6 note=74 velocity=64 time=0.003125
EXTRACT: note_on channel=1 note=36 velocity=102 time=0.00625
EXTRACT: note_on channel=2 note=63 velocity=77 time=0
EXTRACT: note_on channel=3 note=79 velocity=89 time=0
EXTRACT: note_on channel=6 note=75 velocity=58 time=0
EXTRACT: note_on channel=7 note=55 velocity=58 time=0
EXTRACT: note_on channel=7 note=60 velocity=58 time=0
EXTRACT: note_on channel=7 note=63 velocity=59 time=0
EXTRACT: note_on channel=9 note=38 velocity=92 time=0
EXTRACT: note_on channel=9 note=51 velocity=90 time=0
EXTRACT: note_on channel=10 note=55 velocity=76 time=0
EXTRACT: note_on channel=10 note=60 velocity=74 time=0
EXTRACT: note_on channel=10 note=63 velocity=75 time=0
EXTRACT: control_change channel=10 control=64 value=0 time=0.021875000000000002
EXTRACT: note_off channel=9 note=38 velocity=64 time=0.11093750000000001
EXTRACT: note_off channel=9 note=51 velocity=64 time=0.0078125
EXTRACT: control_change channel=10 control=64 value=127 time=0.0765625
EXTRACT: note_off channel=10 note=55 velocity=64 time=0.08125
EXTRACT: note_off channel=10 note=60 velocity=64 time=0.0015625
EXTRACT: note_off channel=10 note=63 velocity=64 time=0.015625
EXTRACT: note_off channel=3 note=79 velocity=64 time=0.043750000000000004
EXTRACT: note_on channel=3 note=82 velocity=93 time=0.015625
EXTRACT: note_on channel=9 note=51 velocity=67 time=0
EXTRACT: note_off channel=9 note=51 velocity=64 time=0.10625000000000001
EXTRACT: note_off channel=1 note=36 velocity=64 time=0.1375
EXTRACT: note_off channel=2 note=63 velocity=64 time=0.11093750000000001
EXTRACT: note_off channel=7 note=55 velocity=64 time=0.010937500000000001
EXTRACT: note_off channel=7 note=60 velocity=64 time=0
EXTRACT: note_off channel=7 note=63 velocity=64 time=0
EXTRACT: note_off channel=2 note=62 velocity=64 time=0.0015625
EXTRACT: note_on channel=1 note=29 velocity=103 time=0.0078125
EXTRACT: note_on channel=3 note=79 velocity=90 time=0
EXTRACT: note_on channel=7 note=53 velocity=58 time=0
EXTRACT: note_on channel=7 note=56 velocity=58 time=0
EXTRACT: note_on channel=7 note=60 velocity=59 time=0
EXTRACT: note_on channel=7 note=63 velocity=58 time=0
EXTRACT: note_on channel=9 note=35 velocity=119 time=0
EXTRACT: note_on channel=9 note=51 velocity=79 time=0
EXTRACT: note_on channel=10 note=53 velocity=67 time=0
EXTRACT: note_on channel=10 note=56 velocity=69 time=0
EXTRACT: note_on channel=10 note=60 velocity=78 time=0
EXTRACT: note_on channel=10 note=63 velocity=67 time=0
EXTRACT: note_off channel=3 note=82 velocity=64 time=0.0078125
EXTRACT: note_off channel=2 note=60 velocity=64 time=0.003125
EXTRACT: control_change channel=10 control=64 value=0 time=0.045312500000000006
EXTRACT: note_off channel=9 note=35 velocity=64 time=0.05625
EXTRACT: note_off channel=9 note=51 velocity=64 time=0.0125
EXTRACT: note_off channel=3 note=79 velocity=64 time=0.2234375
EXTRACT: note_on channel=2 note=60 velocity=83 time=0.026562500000000003
EXTRACT: note_on channel=3 note=82 velocity=88 time=0
EXTRACT: note_on channel=9 note=51 velocity=71 time=0
EXTRACT: note_off channel=9 note=51 velocity=64 time=0.10312500000000001
EXTRACT: note_off channel=3 note=82 velocity=64 time=0.26875
EXTRACT: note_on channel=2 note=67 velocity=85 time=0.003125
EXTRACT: note_on channel=3 note=79 velocity=90 time=0
EXTRACT: note_on channel=9 note=38 velocity=92 time=0
EXTRACT: note_on channel=9 note=51 velocity=94 time=0
EXTRACT: control_change channel=10 control=64 value=127 time=0.09375
EXTRACT: note_off channel=9 note=38 velocity=64 time=0.029687500000000002
EXTRACT: note_off channel=9 note=51 velocity=64 time=0.0140625
EXTRACT: note_off channel=2 note=60 velocity=64 time=0.07968750000000001
EXTRACT: note_off channel=10 note=53 velocity=64 time=0.021875000000000002
EXTRACT: note_off channel=10 note=56 velocity=64 time=0.029687500000000002
EXTRACT: note_off channel=10 note=60 velocity=64 time=0.0234375
EXTRACT: note_off channel=10 note=63 velocity=64 time=0.0015625
EXTRACT: note_off channel=3 note=79 velocity=64 time=0.0703125
EXTRACT: note_on channel=2 note=60 velocity=78 time=0.010937500000000001
EXTRACT: note_on channel=3 note=82 velocity=88 time=0
EXTRACT: note_on channel=9 note=51 velocity=72 time=0
EXTRACT: control_change channel=14 control=11 value=126 time=0.06875
EXTRACT: control_change channel=14 control=11 value=125 time=0.037500000000000006
EXTRACT: note_off channel=9 note=51 velocity=64 time=0.0140625
EXTRACT: control_change channel=14 control=11 value=125 time=0.040625
EXTRACT: control_change channel=14 control=11 value=123 time=0.037500000000000006
EXTRACT: control_change channel=14 control=11 value=123 time=0.037500000000000006
EXTRACT: control_change channel=14 control=11 value=120 time=0.037500000000000006
EXTRACT: note_off channel=1 note=29 velocity=64 time=0.0203125
EXTRACT: control_change channel=14 control=11 value=120 time=0.015625
EXTRACT: note_off channel=3 note=82 velocity=64 time=0.0484375
EXTRACT: control_change channel=14 control=11 value=118 time=0.00625
EXTRACT: note_off channel=7 note=53 velocity=64 time=0.0015625
EXTRACT: note_off channel=7 note=56 velocity=64 time=0
EXTRACT: note_off channel=7 note=60 velocity=64 time=0
EXTRACT: note_off channel=7 note=63 velocity=64 time=0
EXTRACT: note_off channel=6 note=75 velocity=64 time=0.003125
EXTRACT: note_on channel=1 note=32 velocity=103 time=0.00625
EXTRACT: note_on channel=2 note=63 velocity=80 time=0
EXTRACT: note_on channel=3 note=79 velocity=92 time=0
EXTRACT: note_on channel=6 note=77 velocity=50 time=0
EXTRACT: note_on channel=7 note=56 velocity=58 time=0
EXTRACT: note_on channel=7 note=60 velocity=58 time=0
EXTRACT: note_on channel=7 note=63 velocity=58 time=0
EXTRACT: note_on channel=9 note=35 velocity=119 time=0
EXTRACT: note_on channel=9 note=46 velocity=83 time=0
EXTRACT: note_on channel=10 note=56 velocity=59 time=0
EXTRACT: note_on channel=10 note=60 velocity=81 time=0
EXTRACT: note_on channel=10 note=63 velocity=60 time=0
EXTRACT: control_change channel=10 control=64 value=0 time=0
EXTRACT: control_change channel=14 control=11 value=119 time=0.045312500000000006
EXTRACT: note_off channel=9 note=35 velocity=64 time=0.035937500000000004
EXTRACT: note_off channel=2 note=67 velocity=64 time=0.0171875
EXTRACT: control_change channel=14 control=11 value=117 time=0.0015625
EXTRACT: note_off channel=9 note=46 velocity=64 time=0.053125000000000006
EXTRACT: control_change channel=14 control=11 value=116 time=0.003125
EXTRACT: control_change channel=14 control=11 value=114 time=0.05625
EXTRACT: note_off channel=2 note=60 velocity=64 time=0.0171875
EXTRACT: note_off channel=1 note=32 velocity=64 time=0.0140625
EXTRACT: control_change channel=14 control=11 value=114 time=0.00625
EXTRACT: control_change channel=14 control=11 value=112 time=0.034375
EXTRACT: control_change channel=14 control=11 value=112 time=0.018750000000000003
EXTRACT: note_off channel=3 note=79 velocity=64 time=0.046875
EXTRACT: control_change channel=14 control=11 value=110 time=0.009375000000000001
EXTRACT: note_on channel=1 note=32 velocity=102 time=0.015625
EXTRACT: note_on channel=2 note=60 velocity=78 time=0
EXTRACT: note_on channel=3 note=75 velocity=90 time=0
EXTRACT: note_on channel=9 note=35 velocity=118 time=0
EXTRACT: note_on channel=9 note=44 velocity=82 time=0
EXTRACT: note_on channel=9 note=51 velocity=68 time=0
EXTRACT: control_change channel=14 control=11 value=111 time=0.0390625
EXTRACT: control_change channel=14 control=11 value=109 time=0.037500000000000006
EXTRACT: note_off channel=9 note=35 velocity=64 time=0.004687500000000001
EXTRACT: note_off channel=9 note=51 velocity=64 time=0.0328125
EXTRACT: control_change channel=14 control=11 value=108 time=0
EXTRACT: note_off channel=9 note=44 velocity=64 time=0.0390625
EXTRACT: control_change channel=14 control=11 value=107 time=0.0140625
EXTRACT: control_change channel=14 control=11 value=106 time=0.05625
EXTRACT: control_change channel=14 control=11 value=105 time=0.037500000000000006
EXTRACT: control_change channel=14 control=11 value=104 time=0.035937500000000004
EXTRACT: control_change channel=14 control=11 value=102 time=0.0390625
EXTRACT: note_off channel=6 note=77 velocity=64 time=0.0328125
EXTRACT: control_change channel=14 control=11 value=103 time=0.0015625
EXTRACT: note_on channel=2 note=67 velocity=83 time=0.004687500000000001
EXTRACT: note_on channel=6 note=72 velocity=43 time=0
EXTRACT: note_on channel=9 note=38 velocity=92 time=0
EXTRACT: note_on channel=9 note=51 velocity=90 time=0
EXTRACT: control_change channel=14 control=11 value=100 time=0.0328125
EXTRACT: control_change channel=14 control=11 value=100 time=0.018750000000000003
EXTRACT: control_change channel=14 control=11 value=98 time=0.035937500000000004
EXTRACT: control_change channel=14 control=11 value=98 time=0.018750000000000003
EXTRACT: control_change channel=14 control=11 value=97 time=0.018750000000000003
EXTRACT: note_off channel=9 note=38 velocity=64 time=0.0078125
EXTRACT: note_off channel=9 note=51 velocity=64 time=0.0078125
EXTRACT: control_change channel=14 control=11 value=97 time=0.0203125
EXTRACT: control_change channel=14 control=11 value=94 time=0.018750000000000003
EXTRACT: note_off channel=2 note=60 velocity=64 time=0.010937500000000001
EXTRACT: control_change channel=14 control=11 value=94 time=0.025
EXTRACT: control_change channel=14 control=11 value=92 time=0.037500000000000006
EXTRACT: control_change channel=14 control=11 value=92 time=0.018750000000000003
EXTRACT: control_change channel=14 control=11 value=90 time=0.037500000000000006
EXTRACT: control_change channel=14 control=11 value=90 time=0.018750000000000003
EXTRACT: control_change channel=14 control=11 value=88 time=0.037500000000000006
EXTRACT: note_on channel=2 note=60 velocity=83 time=0.009375000000000001
EXTRACT: note_on channel=9 note=53 velocity=70 time=0
EXTRACT: control_change channel=14 control=11 value=88 time=0.028125
EXTRACT: control_change channel=14 control=11 value=86 time=0.0171875
EXTRACT: note_off channel=3 note=75 velocity=64 time=0.034375
EXTRACT: control_change channel=14 control=11 value=87 time=0.0015625
EXTRACT: control_change channel=14 control=11 value=84 time=0.018750000000000003
EXTRACT: note_off channel=9 note=53 velocity=64 time=0.00625
EXTRACT: control_change channel=14 control=11 value=82 time=0.00625
EXTRACT: control_change channel=14 control=11 value=82 time=0.018750000000000003
EXTRACT: control_change channel=14 control=11 value=80 time=0.018750000000000003
EXTRACT: control_change channel=14 control=11 value=81 time=0.0171875
EXTRACT: control_change channel=14 control=11 value=78 time=0.018750000000000003
EXTRACT: control_change channel=14 control=11 value=79 time=0.0171875
EXTRACT: control_change channel=14 control=11 value=77 time=0.0390625
EXTRACT: control_change channel=14 control=11 value=76 time=0.0171875
EXTRACT: control_change channel=14 control=11 value=75 time=0.018750000000000003
EXTRACT: control_change channel=14 control=11 value=75 time=0.018750000000000003
EXTRACT: control_change channel=14 control=11 value=72 time=0.018750000000000003
EXTRACT: note_off channel=7 note=56 velocity=64 time=0.00625
EXTRACT: note_off channel=10 note=56 velocity=64 time=0
EXTRACT: note_off channel=1 note=32 velocity=64 time=0.0125
EXTRACT: control_change channel=14 control=11 value=73 time=0
EXTRACT: note_off channel=2 note=60 velocity=64 time=0.018750000000000003
EXTRACT: control_change channel=14 control=11 value=71 time=0
EXTRACT: note_off channel=14 note=82 velocity=64 time=0.009375000000000001
EXTRACT: note_off channel=6 note=72 velocity=64 time=0
EXTRACT: note_off channel=2 note=67 velocity=64 time=0.0015625
EXTRACT: note_on channel=1 note=32 velocity=102 time=0.004687500000000001
EXTRACT: note_on channel=6 note=82 velocity=45 time=0
EXTRACT: note_on channel=7 note=53 velocity=49 time=0
EXTRACT: note_on channel=7 note=58 velocity=49 time=0
EXTRACT: note_on channel=7 note=62 velocity=48 time=0
EXTRACT: note_on channel=9 note=35 velocity=109 time=0
EXTRACT: note_on channel=9 note=42 velocity=69 time=0
EXTRACT: note_on channel=10 note=58 velocity=62 time=0
EXTRACT: note_on channel=10 note=62 velocity=84 time=0
EXTRACT: note_on channel=10 note=65 velocity=69 time=0
EXTRACT: note_off channel=7 note=63 velocity=64 time=0.0015625
EXTRACT: note_off channel=10 note=63 velocity=64 time=0
EXTRACT: control_change channel=14 control=11 value=68 time=0.0015625
EXTRACT: note_off channel=7 note=60 velocity=64 time=0.00625
EXTRACT: note_off channel=10 note=60 velocity=64 time=0
EXTRACT: note_on channel=3 note=79 velocity=91 time=0.003125
EXTRACT: note_off channel=2 note=63 velocity=64 time=0.00625
EXTRACT: control_change channel=14 control=11 value=68 time=0
EXTRACT: control_change channel=14 control=11 value=67 time=0.018750000000000003
EXTRACT: control_change channel=14 control=11 value=67 time=0.0203125
EXTRACT: control_change channel=14 control=11 value=65 time=0.018750000000000003
EXTRACT: note_off channel=9 note=35 velocity=64 time=0.004687500000000001
EXTRACT: control_change channel=14 control=11 value=63 time=0.0140625
EXTRACT: control_change channel=14 control=11 value=62 time=0.037500000000000006
EXTRACT: control_change channel=14 control=11 value=60 time=0.0171875
EXTRACT: note_off channel=9 note=42 velocity=64 time=0.003125
EXTRACT: control_change channel=14 control=11 value=62 time=0.1078125
EXTRACT: control_change channel=14 control=11 value=63 time=0.0171875
EXTRACT: control_change channel=14 control=11 value=65 time=0.018750000000000003
EXTRACT: control_change channel=14 control=11 value=66 time=0.018750000000000003
EXTRACT: control_change channel=14 control=11 value=66 time=0.0171875
EXTRACT: control_change channel=14 control=11 value=68 time=0.018750000000000003
EXTRACT: control_change channel=14 control=11 value=72 time=0.018750000000000003
EXTRACT: note_off channel=3 note=79 velocity=64 time=0.003125
EXTRACT: note_on channel=9 note=42 velocity=42 time=0.0015625
EXTRACT: note_on channel=3 note=77 velocity=91 time=0.0078125
EXTRACT: control_change channel=14 control=11 value=74 time=0.00625
EXTRACT: control_change channel=14 control=11 value=76 time=0.0171875
EXTRACT: control_change channel=14 control=11 value=79 time=0.018750000000000003
EXTRACT: control_change channel=14 control=11 value=81 time=0.018750000000000003
EXTRACT: control_change channel=14 control=11 value=82 time=0.0171875
EXTRACT: control_change channel=14 control=11 value=87 time=0.018750000000000003
EXTRACT: note_off channel=9 note=42 velocity=64 time=0.009375000000000001
EXTRACT: control_change channel=14 control=11 value=88 time=0.009375000000000001
EXTRACT: control_change channel=14 control=11 value=91 time=0.018750000000000003
EXTRACT: control_change channel=6 control=11 value=126 time=0.003125
EXTRACT: control_change channel=10 control=64 value=127 time=0.0125
EXTRACT: control_change channel=14 control=11 value=92 time=0.0015625
EXTRACT: control_change channel=14 control=11 value=94 time=0.018750000000000003
EXTRACT: note_on channel=3 note=75 velocity=92 time=0.009375000000000001
EXTRACT: control_change channel=14 control=11 value=99 time=0.009375000000000001
EXTRACT: control_change channel=6 control=11 value=124 time=0.0015625
EXTRACT: control_change channel=14 control=11 value=102 time=0.015625
EXTRACT: control_change channel=14 control=11 value=104 time=0.018750000000000003
EXTRACT: note_off channel=3 note=77 velocity=64 time=0.004687500000000001
EXTRACT: control_change channel=14 control=11 value=108 time=0.0140625
EXTRACT: control_change channel=14 control=11 value=112 time=0.0203125
EXTRACT: control_change channel=14 control=11 value=117 time=0.018750000000000003
EXTRACT: control_change channel=14 control=11 value=121 time=0.015625
EXTRACT: control_change channel=14 control=11 value=122 time=0.0203125
EXTRACT: control_change channel=14 control=11 value=124 time=0.018750000000000003
EXTRACT: control_change channel=14 control=11 value=126 time=0.0171875
EXTRACT: note_on channel=3 note=74 velocity=93 time=0.0078125
EXTRACT: note_off channel=3 note=75 velocity=64 time=0.004687500000000001
EXTRACT: note_on channel=9 note=37 velocity=92 time=0
EXTRACT: note_on channel=9 note=42 velocity=75 time=0
EXTRACT: note_off channel=10 note=58 velocity=64 time=0.003125
EXTRACT: control_change channel=14 control=11 value=126 time=0.003125
EXTRACT: control_change channel=6 control=11 value=124 time=0.021875000000000002
EXTRACT: control_change channel=6 control=11 value=122 time=0.0734375
EXTRACT: note_off channel=9 note=37 velocity=64 time=0.03125
EXTRACT: note_off channel=9 note=42 velocity=64 time=0.0078125
EXTRACT: control_change channel=6 control=11 value=123 time=0.015625
EXTRACT: control_change channel=6 control=11 value=121 time=0.07500000000000001
EXTRACT: note_on channel=3 note=75 velocity=92 time=0.1203125
EXTRACT: note_on channel=9 note=42 velocity=45 time=0.0234375
EXTRACT: note_on channel=10 note=58 velocity=53 time=0
EXTRACT: control_change channel=6 control=11 value=120 time=0.004687500000000001
EXTRACT: note_off channel=3 note=74 velocity=64 time=0.010937500000000001
EXTRACT: note_off channel=10 note=62 velocity=64 time=0.051562500000000004
EXTRACT: note_off channel=10 note=65 velocity=64 time=0.0015625
EXTRACT: control_change channel=6 control=11 value=119 time=0.026562500000000003
EXTRACT: note_off channel=9 note=42 velocity=64 time=0.010937500000000001
EXTRACT: note_off channel=10 note=58 velocity=64 time=0.05625
EXTRACT: control_change channel=6 control=11 value=118 time=0.043750000000000004
EXTRACT: control_change channel=6 control=11 value=117 time=0.09375
EXTRACT: note_off channel=7 note=62 velocity=64 time=0.046875
EXTRACT: note_off channel=3 note=75 velocity=64 time=0.0125
EXTRACT: note_on channel=3 note=72 velocity=89 time=0.0015625
EXTRACT: note_on channel=7 note=60 velocity=49 time=0.0140625
EXTRACT: note_on channel=9 note=35 velocity=108 time=0
EXTRACT: note_on channel=9 note=42 velocity=72 time=0
EXTRACT: control_change channel=6 control=11 value=116 time=0.051562500000000004
EXTRACT: note_off channel=9 note=35 velocity=64 time=0.060937500000000006
EXTRACT: note_off channel=9 note=42 velocity=64 time=0.0125
EXTRACT: control_change channel=6 control=11 value=114 time=0.0015625
EXTRACT: control_change channel=6 control=11 value=115 time=0.12812500000000002
EXTRACT: note_on channel=3 note=70 velocity=92 time=0.1015625
EXTRACT: control_change channel=6 control=11 value=112 time=0.009375000000000001
EXTRACT: note_off channel=3 note=72 velocity=64 time=0.0078125
EXTRACT: note_on channel=9 note=35 velocity=109 time=0.0015625
EXTRACT: note_on channel=9 note=42 velocity=46 time=0
EXTRACT: note_on channel=10 note=70 velocity=67 time=0
EXTRACT: control_change channel=6 control=11 value=112 time=0.029687500000000002
EXTRACT: note_off channel=9 note=42 velocity=64 time=0.0734375
EXTRACT: control_change channel=6 control=11 value=110 time=0
EXTRACT: note_off channel=9 note=35 velocity=64 time=0.009375000000000001
EXTRACT: note_off channel=10 note=70 velocity=64 time=0
EXTRACT: control_change channel=6 control=11 value=110 time=0.043750000000000004
EXTRACT: control_change channel=6 control=11 value=109 time=0.1125
EXTRACT: note_on channel=7 note=62 velocity=48 time=0.10625000000000001
EXTRACT: note_on channel=9 note=37 velocity=92 time=0
EXTRACT: note_on channel=9 note=42 velocity=78 time=0
EXTRACT: control_change channel=6 control=11 value=109 time=0.0203125
EXTRACT: note_off channel=7 note=60 velocity=64 time=0.0578125
EXTRACT: note_off channel=9 note=37 velocity=64 time=0.045312500000000006
EXTRACT: control_change channel=6 control=11 value=106 time=0.0078125
EXTRACT: note_off channel=9 note=42 velocity=64 time=0.00625
EXTRACT: control_change channel=6 control=11 value=106 time=0.12187500000000001
EXTRACT: control_change channel=6 control=11 value=104 time=0.0921875
EXTRACT: note_on channel=9 note=42 velocity=42 time=0.0234375
EXTRACT: control_change channel=6 control=11 value=104 time=0.05
EXTRACT: note_off channel=3 note=70 velocity=64 time=0.053125000000000006
EXTRACT: control_change channel=6 control=11 value=102 time=0.0015625
EXTRACT: note_off channel=9 note=42 velocity=64 time=0.015625
EXTRACT: control_change channel=6 control=11 value=102 time=0.0578125
EXTRACT: control_change channel=6 control=11 value=100 time=0.0734375
EXTRACT: control_change channel=6 control=11 value=100 time=0.0734375
EXTRACT: note_on channel=3 note=79 velocity=90 time=0.040625
EXTRACT: note_off channel=1 note=32 velocity=64 time=0.003125
EXTRACT: note_on channel=1 note=31 velocity=103 time=0.00625
EXTRACT: note_on channel=7 note=55 velocity=49 time=0
EXTRACT: note_on channel=9 note=35 velocity=109 time=0
EXTRACT: note_on channel=9 note=42 velocity=69 time=0
EXTRACT: note_on channel=10 note=55 velocity=68 time=0
EXTRACT: note_on channel=10 note=58 velocity=68 time=0
EXTRACT: note_on channel=10 note=62 velocity=69 time=0
EXTRACT: note_on channel=10 note=65 velocity=69 time=0
EXTRACT: control_change channel=6 control=11 value=98 time=0.025
EXTRACT: control_change channel=6 control=11 value=99 time=0.037500000000000006
EXTRACT: note_off channel=7 note=53 velocity=64 time=0.0015625
EXTRACT: note_off channel=9 note=35 velocity=64 time=0.0171875
EXTRACT: control_change channel=6 control=11 value=96 time=0.034375
EXTRACT: note_off channel=9 note=42 velocity=64 time=0.037500000000000006
EXTRACT: control_change channel=6 control=11 value=96 time=0.0546875
EXTRACT: control_change channel=10 control=64 value=0 time=0.0140625
EXTRACT: note_off channel=3 note=79 velocity=64 time=0.051562500000000004
EXTRACT: control_change channel=6 control=11 value=94 time=0.0078125
EXTRACT: control_change channel=6 control=11 value=94 time=0.0921875
EXTRACT: note_on channel=9 note=42 velocity=42 time=0.0015625
EXTRACT: note_on channel=3 note=79 velocity=89 time=0.004687500000000001
EXTRACT: control_change channel=6 control=11 value=93 time=0.0671875
EXTRACT: control_change channel=10 control=64 value=127 time=0.037500000000000006
EXTRACT: note_off channel=9 note=42 velocity=64 time=0.004687500000000001
EXTRACT: control_change channel=6 control=11 value=92 time=0.0125
EXTRACT: control_change channel=6 control=11 value=91 time=0.0734375
EXTRACT: control_change channel=6 control=11 value=91 time=0.0734375
EXTRACT: note_off channel=3 note=79 velocity=64 time=0.08125
EXTRACT: note_on channel=3 note=77 velocity=88 time=0.009375000000000001
EXTRACT: control_change channel=6 control=11 value=88 time=0.0015625
EXTRACT: note_on channel=9 note=37 velocity=92 time=0.009375000000000001
EXTRACT: note_on channel=9 note=42 velocity=74 time=0
EXTRACT: control_change channel=6 control=11 value=89 time=0.06406250000000001
EXTRACT: note_off channel=10 note=55 velocity=64 time=0.0078125
EXTRACT: note_off channel=10 note=58 velocity=64 time=0.026562500000000003
EXTRACT: note_off channel=10 note=62 velocity=64 time=0.0140625
EXTRACT: note_off channel=10 note=65 velocity=64 time=0.0125
EXTRACT: note_off channel=9 note=37 velocity=64 time=0.0078125
EXTRACT: control_change channel=6 control=11 value=87 time=0.004687500000000001
EXTRACT: note_off channel=9 note=42 velocity=64 time=0.003125
EXTRACT: control_change channel=6 control=11 value=86 time=0.0703125
EXTRACT: control_change channel=6 control=11 value=85 time=0.0734375
EXTRACT: control_change channel=6 control=11 value=85 time=0.037500000000000006
EXTRACT: note_on channel=9 note=42 velocity=44 time=0.053125000000000006
EXTRACT: control_change channel=6 control=11 value=82 time=0.037500000000000006
EXTRACT: control_change channel=6 control=11 value=82 time=0.0546875
EXTRACT: note_off channel=9 note=42 velocity=64 time=0.0140625
EXTRACT: control_change channel=6 control=11 value=81 time=0.060937500000000006
EXTRACT: control_change channel=6 control=11 value=81 time=0.0546875
EXTRACT: control_change channel=6 control=11 value=79 time=0.0921875
EXTRACT: note_off channel=7 note=62 velocity=64 time=0.0234375
EXTRACT: note_on channel=7 note=60 velocity=48 time=0.037500000000000006
EXTRACT: note_on channel=9 note=35 velocity=108 time=0
EXTRACT: note_on channel=9 note=42 velocity=72 time=0
EXTRACT: control_change channel=6 control=11 value=79 time=0.0125
EXTRACT: control_change channel=6 control=11 value=76 time=0.053125000000000006
EXTRACT: control_change channel=6 control=11 value=76 time=0.0390625
EXTRACT: note_off channel=9 note=35 velocity=64 time=0.0078125
EXTRACT: note_off channel=9 note=42 velocity=64 time=0.0125
EXTRACT: control_change channel=6 control=11 value=74 time=0.034375
EXTRACT: control_change channel=6 control=11 value=75 time=0.035937500000000004
EXTRACT: control_change channel=6 control=11 value=73 time=0.037500000000000006
EXTRACT: control_change channel=6 control=11 value=72 time=0.035937500000000004
EXTRACT: control_change channel=6 control=11 value=70 time=0.037500000000000006
EXTRACT: control_change channel=6 control=11 value=70 time=0.015625
EXTRACT: control_change channel=6 control=11 value=68 time=0.0390625
EXTRACT: note_on channel=9 note=35 velocity=108 time=0.0140625
EXTRACT: note_on channel=9 note=42 velocity=46 time=0
EXTRACT: note_on channel=10 note=70 velocity=52 time=0
EXTRACT: control_change channel=6 control=11 value=68 time=0.021875000000000002
EXTRACT: control_change channel=6 control=11 value=66 time=0.05625
EXTRACT: note_off channel=9 note=42 velocity=64 time=0.025
EXTRACT: note_off channel=10 note=70 velocity=64 time=0.004687500000000001
EXTRACT: note_off channel=9 note=35 velocity=64 time=0.004687500000000001
EXTRACT: control_change channel=6 control=11 value=67 time=0.0203125
EXTRACT: control_change channel=6 control=11 value=65 time=0.053125000000000006
EXTRACT: control_change channel=6 control=11 value=64 time=0.0578125
EXTRACT: control_change channel=6 control=11 value=63 time=0.0546875
EXTRACT: control_change channel=6 control=11 value=62 time=0.053125000000000006
EXTRACT: note_on channel=7 note=62 velocity=46 time=0.0234375
EXTRACT: note_on channel=9 note=37 velocity=93 time=0
EXTRACT: note_on channel=9 note=42 velocity=78 time=0
EXTRACT: note_off channel=7 note=60 velocity=64 time=0.009375000000000001
EXTRACT: control_change channel=6 control=11 value=61 time=0.0234375
EXTRACT: control_change channel=6 control=11 value=60 time=0.053125000000000006
EXTRACT: note_off channel=9 note=37 velocity=64 time=0.037500000000000006
EXTRACT: control_change channel=6 control=11 value=58 time=0.0015625
EXTRACT: note_off channel=9 note=42 velocity=64 time=0.0125
EXTRACT: control_change channel=6 control=11 value=59 time=0.059375000000000004
EXTRACT: control_change channel=6 control=11 value=56 time=0.0546875
EXTRACT: control_change channel=6 control=11 value=56 time=0.09375
EXTRACT: note_on channel=9 note=42 velocity=42 time=0.029687500000000002
EXTRACT: control_change channel=6 control=11 value=54 time=0.0078125
EXTRACT: control_change channel=6 control=11 value=54 time=0.053125000000000006
EXTRACT: control_change channel=6 control=11 value=53 time=0.05625
EXTRACT: note_off channel=9 note=42 velocity=64 time=0.003125
EXTRACT: control_change channel=6 control=11 value=53 time=0.0703125
EXTRACT: control_change channel=6 control=11 value=50 time=0.09062500000000001
EXTRACT: note_off channel=3 note=77 velocity=64 time=0.05
EXTRACT: control_change channel=10 control=64 value=0 time=0.018750000000000003
EXTRACT: note_off channel=7 note=55 velocity=64 time=0.0015625
EXTRACT: note_on channel=3 note=79 velocity=90 time=0.00625
EXTRACT: note_off channel=6 note=82 velocity=64 time=0.004687500000000001
EXTRACT: note_off channel=1 note=31 velocity=64 time=0
EXTRACT: note_on channel=1 note=39 velocity=99 time=0.00625
EXTRACT: note_on channel=7 note=67 velocity=47 time=0
EXTRACT: note_on channel=9 note=35 velocity=108 time=0
EXTRACT: note_on channel=9 note=42 velocity=52 time=0
EXTRACT: note_on channel=10 note=51 velocity=78 time=0
EXTRACT: note_on channel=10 note=58 velocity=66 time=0
EXTRACT: note_on channel=10 note=62 velocity=87 time=0
EXTRACT: note_on channel=10 note=67 velocity=83 time=0
EXTRACT: note_on channel=11 note=55 velocity=120 time=0
EXTRACT: note_on channel=11 note=58 velocity=120 time=0.009375000000000001
EXTRACT: note_on channel=11 note=63 velocity=120 time=0.009375000000000001
EXTRACT: note_off channel=9 note=35 velocity=64 time=0.0625
EXTRACT: note_off channel=9 note=42 velocity=64 time=0.07187500000000001
EXTRACT: note_on channel=2 note=58 velocity=62 time=0.22187500000000002
EXTRACT: note_on channel=9 note=42 velocity=29 time=0
EXTRACT: control_change channel=6 control=11 value=124 time=0.0671875
EXTRACT: control_change channel=6 control=11 value=126 time=0.018750000000000003
EXTRACT: note_off channel=9 note=42 velocity=64 time=0.028125
EXTRACT: control_change channel=6 control=11 value=126 time=0.009375000000000001
EXTRACT: note_off channel=11 note=55 velocity=64 time=0.2421875
EXTRACT: note_off channel=11 note=58 velocity=64 time=0.009375000000000001
EXTRACT: note_on channel=2 note=67 velocity=64 time=0
EXTRACT: note_on channel=9 note=38 velocity=109 time=0
EXTRACT: note_on channel=9 note=42 velocity=60 time=0
EXTRACT: note_on channel=10 note=63 velocity=78 time=0
EXTRACT: note_on channel=11 note=55 velocity=113 time=0
EXTRACT: note_off channel=11 note=63 velocity=64 time=0.009375000000000001
EXTRACT: note_on channel=11 note=58 velocity=112 time=0
EXTRACT: note_on channel=11 note=63 velocity=112 time=0.009375000000000001
EXTRACT: note_off channel=10 note=62 velocity=64 time=0.0140625
EXTRACT: note_off channel=9 note=38 velocity=64 time=0.1
EXTRACT: note_off channel=9 note=42 velocity=64 time=0.0078125
EXTRACT: note_off channel=2 note=58 velocity=64 time=0.037500000000000006
EXTRACT: control_change channel=10 control=64 value=127 time=0.1859375
EXTRACT: note_on channel=2 note=58 velocity=64 time=0.010937500000000001
EXTRACT: note_on channel=9 note=42 velocity=30 time=0
EXTRACT: note_off channel=10 note=67 velocity=64 time=0.084375
EXTRACT: note_off channel=9 note=42 velocity=64 time=0.021875000000000002
EXTRACT: note_off channel=11 note=55 velocity=64 time=0.07187500000000001
EXTRACT: note_off channel=11 note=58 velocity=64 time=0.009375000000000001
EXTRACT: note_on channel=11 note=55 velocity=104 time=0
EXTRACT: note_off channel=11 note=63 velocity=64 time=0.009375000000000001
EXTRACT: note_on channel=11 note=58 velocity=104 time=0
EXTRACT: note_on channel=11 note=63 velocity=105 time=0.009375000000000001
EXTRACT: note_off channel=11 note=55 velocity=64 time=0.15937500000000002
EXTRACT: note_off channel=11 note=58 velocity=64 time=0.009375000000000001
EXTRACT: note_on channel=2 note=65 velocity=62 time=0
EXTRACT: note_on channel=7 note=63 velocity=44 time=0
EXTRACT: note_on channel=7 note=65 velocity=44 time=0
EXTRACT: note_on channel=9 note=35 velocity=109 time=0
EXTRACT: note_on channel=9 note=42 velocity=58 time=0
EXTRACT: note_on channel=10 note=67 velocity=82 time=0
EXTRACT: note_on channel=11 note=55 velocity=122 time=0
EXTRACT: note_off channel=11 note=63 velocity=64 time=0.009375000000000001
EXTRACT: note_on channel=11 note=58 velocity=123 time=0
EXTRACT: note_on channel=11 note=63 velocity=123 time=0.009375000000000001
EXTRACT: note_off channel=7 note=62 velocity=64 time=0.004687500000000001
EXTRACT: note_off channel=7 note=67 velocity=64 time=0.037500000000000006
EXTRACT: note_off channel=9 note=35 velocity=64 time=0.037500000000000006
EXTRACT: note_off channel=9 note=42 velocity=64 time=0.0125
EXTRACT: note_off channel=10 note=58 velocity=64 time=0.1453125
EXTRACT: note_off channel=11 note=55 velocity=64 time=0.09531250000000001
EXTRACT: note_off channel=11 note=58 velocity=64 time=0.009375000000000001
EXTRACT: note_on channel=2 note=63 velocity=66 time=0
EXTRACT: note_on channel=9 note=42 velocity=30 time=0
EXTRACT: note_on channel=11 note=55 velocity=106 time=0
EXTRACT: note_off channel=11 note=63 velocity=64 time=0.009375000000000001
EXTRACT: note_on channel=11 note=58 velocity=107 time=0
EXTRACT: note_off channel=2 note=65 velocity=64 time=0.004687500000000001
EXTRACT: note_on channel=11 note=63 velocity=107 time=0.004687500000000001
EXTRACT: note_off channel=3 note=79 velocity=64 time=0.00625
EXTRACT: note_off channel=9 note=42 velocity=64 time=0.078125
EXTRACT: note_off channel=2 note=58 velocity=64 time=0.046875
EXTRACT: note_off channel=11 note=55 velocity=64 time=0.215625
EXTRACT: note_off channel=11 note=58 velocity=64 time=0.009375000000000001
EXTRACT: note_on channel=2 note=58 velocity=68 time=0
EXTRACT: note_on channel=7 note=67 velocity=44 time=0
EXTRACT: note_on channel=9 note=38 velocity=108 time=0
EXTRACT: note_on channel=9 note=42 velocity=65 time=0
EXTRACT: note_on channel=10 note=58 velocity=80 time=0
EXTRACT: note_on channel=11 note=55 velocity=102 time=0
EXTRACT: note_off channel=11 note=63 velocity=64 time=0.009375000000000001
EXTRACT: note_on channel=11 note=58 velocity=103 time=0
EXTRACT: note_on channel=11 note=63 velocity=103 time=0.009375000000000001
EXTRACT: note_off channel=7 note=65 velocity=64 time=0.0484375
EXTRACT: note_off channel=10 note=51 velocity=64 time=0.004687500000000001
EXTRACT: note_off channel=9 note=38 velocity=64 time=0.051562500000000004
EXTRACT: note_off channel=9 note=42 velocity=64 time=0.0140625
EXTRACT: note_off channel=10 note=58 velocity=64 time=0.05
EXTRACT: note_off channel=10 note=63 velocity=64 time=0.025
EXTRACT: note_off channel=10 note=67 velocity=64 time=0.026562500000000003
EXTRACT: note_off channel=11 note=55 velocity=64 time=0.1296875
EXTRACT: note_on channel=2 note=55 velocity=65 time=0.00625
EXTRACT: note_on channel=9 note=46 velocity=69 time=0
EXTRACT: note_on channel=11 note=55 velocity=96 time=0
EXTRACT: note_off channel=11 note=58 velocity=64 time=0.003125
EXTRACT: note_on channel=11 note=58 velocity=96 time=0.00625
EXTRACT: note_off channel=11 note=63 velocity=64 time=0.003125
EXTRACT: note_on channel=3 note=70 velocity=88 time=0
EXTRACT: note_on channel=11 note=63 velocity=97 time=0.00625
EXTRACT: note_off channel=2 note=63 velocity=64 time=0.037500000000000006
EXTRACT: note_off channel=9 note=46 velocity=64 time=0.06406250000000001
EXTRACT: note_off channel=2 note=67 velocity=64 time=0.0140625
EXTRACT: note_off channel=3 note=70 velocity=64 time=0.15625
EXTRACT: note_off channel=11 note=55 velocity=64 time=0.0203125
EXTRACT: note_off channel=2 note=55 velocity=64 time=0.018750000000000003
EXTRACT: note_off channel=2 note=58 velocity=64 time=0.0125
EXTRACT: note_off channel=11 note=58 velocity=64 time=0.0078125
EXTRACT: note_off channel=11 note=63 velocity=64 time=0.015625
EXTRACT: note_off channel=1 note=39 velocity=64 time=0.003125
EXTRACT: note_on channel=1 note=36 velocity=99 time=0.00625
EXTRACT: note_on channel=7 note=48 velocity=44 time=0
EXTRACT: note_on channel=9 note=35 velocity=109 time=0
EXTRACT: note_on channel=9 note=42 velocity=72 time=0
EXTRACT: note_on channel=10 note=48 velocity=74 time=0
EXTRACT: note_on channel=10 note=58 velocity=81 time=0
EXTRACT: note_on channel=10 note=63 velocity=82 time=0
EXTRACT: note_on channel=10 note=67 velocity=85 time=0
EXTRACT: note_on channel=11 note=55 velocity=121 time=0
EXTRACT: note_on channel=11 note=58 velocity=121 time=0.009375000000000001
EXTRACT: note_on channel=3 note=70 velocity=90 time=0.004687500000000001
EXTRACT: control_change channel=10 control=64 value=0 time=0.0015625
EXTRACT: note_on channel=11 note=63 velocity=121 time=0.003125
EXTRACT: note_off channel=9 note=35 velocity=64 time=0.0625
EXTRACT: note_off channel=9 note=42 velocity=64 time=0.07187500000000001
EXTRACT: note_off channel=3 note=70 velocity=64 time=0.16718750000000002
EXTRACT: note_on channel=2 note=60 velocity=71 time=0.0546875
EXTRACT: note_on channel=9 note=42 velocity=49 time=0
EXTRACT: note_on channel=3 note=70 velocity=93 time=0.037500000000000006
EXTRACT: note_off channel=9 note=42 velocity=64 time=0.0765625
EXTRACT: note_off channel=3 note=70 velocity=64 time=0.209375
EXTRACT: control_change channel=10 control=64 value=127 time=0.0390625
EXTRACT: note_off channel=11 note=55 velocity=64 time=0.003125
EXTRACT: note_off channel=11 note=58 velocity=64 time=0.009375000000000001
EXTRACT: note_on channel=2 note=67 velocity=70 time=0
EXTRACT: note_on channel=9 note=38 velocity=109 time=0
EXTRACT: note_on channel=9 note=42 velocity=80 time=0
EXTRACT: note_on channel=11 note=55 velocity=112 time=0
EXTRACT: note_off channel=11 note=63 velocity=64 time=0.009375000000000001
EXTRACT: note_on channel=11 note=58 velocity=112 time=0
EXTRACT: note_on channel=11 note=63 velocity=112 time=0.009375000000000001
EXTRACT: note_on channel=3 note=70 velocity=89 time=0.0140625
EXTRACT: note_off channel=10 note=67 velocity=64 time=0.07968750000000001
EXTRACT: note_off channel=9 note=38 velocity=64 time=0.0203125
EXTRACT: note_off channel=9 note=42 velocity=64 time=0.0078125
EXTRACT: note_off channel=2 note=60 velocity=64 time=0.040625
EXTRACT: note_off channel=3 note=70 velocity=64 time=0.15781250000000002
EXTRACT: note_on channel=2 note=60 velocity=61 time=0.035937500000000004
EXTRACT: note_on channel=9 note=42 velocity=50 time=0
EXTRACT: note_on channel=10 note=67 velocity=81 time=0
EXTRACT: note_on channel=3 note=70 velocity=88 time=0.028125
EXTRACT: note_off channel=1 note=36 velocity=64 time=0.05625
EXTRACT: note_off channel=9 note=42 velocity=64 time=0.021875000000000002
EXTRACT: note_off channel=11 note=55 velocity=64 time=0.07187500000000001
EXTRACT: note_off channel=11 note=58 velocity=64 time=0.009375000000000001
EXTRACT: note_on channel=11 note=55 velocity=105 time=0
EXTRACT: note_off channel=10 note=58 velocity=64 time=0.00625
EXTRACT: note_off channel=11 note=63 velocity=64 time=0.003125
EXTRACT: note_on channel=11 note=58 velocity=105 time=0
EXTRACT: note_on channel=11 note=63 velocity=104 time=0.009375000000000001
EXTRACT: note_on channel=1 note=36 velocity=99 time=0.028125
EXTRACT: note_on channel=9 note=35 velocity=93 time=0
EXTRACT: note_off channel=1 note=36 velocity=64 time=0.084375
EXTRACT: note_off channel=2 note=67 velocity=64 time=0.0203125
EXTRACT: note_off channel=9 note=35 velocity=64 time=0.0078125
EXTRACT: note_off channel=11 note=55 velocity=64 time=0.018750000000000003
EXTRACT: note_off channel=11 note=58 velocity=64 time=0.009375000000000001
EXTRACT: note_on channel=1 note=36 velocity=98 time=0
EXTRACT: note_on channel=2 note=65 velocity=60 time=0
EXTRACT: note_on channel=9 note=35 velocity=109 time=0
EXTRACT: note_on channel=9 note=42 velocity=79 time=0
EXTRACT: note_on channel=11 note=55 velocity=122 time=0
EXTRACT: note_off channel=11 note=63 velocity=64 time=0.009375000000000001
EXTRACT: note_on channel=11 note=58 velocity=122 time=0
EXTRACT: note_on channel=11 note=63 velocity=122 time=0.009375000000000001
EXTRACT: note_off channel=9 note=35 velocity=64 time=0.09375
EXTRACT: note_off channel=9 note=42 velocity=64 time=0.0125
EXTRACT: note_off channel=1 note=36 velocity=64 time=0.146875
EXTRACT: note_off channel=11 note=55 velocity=64 time=0.09375
EXTRACT: note_off channel=11 note=58 velocity=64 time=0.009375000000000001
EXTRACT: note_on channel=1 note=36 velocity=98 time=0
EXTRACT: note_on channel=9 note=35 velocity=109 time=0
EXTRACT: note_on channel=9 note=42 velocity=50 time=0
EXTRACT: note_on channel=11 note=55 velocity=106 time=0
EXTRACT: note_off channel=11 note=63 velocity=64 time=0.009375000000000001
EXTRACT: note_on channel=11 note=58 velocity=106 time=0
EXTRACT: note_on channel=11 note=63 velocity=107 time=0.009375000000000001
EXTRACT: note_off channel=9 note=42 velocity=64 time=0.084375
EXTRACT: note_off channel=9 note=35 velocity=64 time=0.018750000000000003
EXTRACT: note_off channel=2 note=65 velocity=64 time=0.096875
EXTRACT: note_off channel=11 note=55 velocity=64 time=0.025
EXTRACT: note_off channel=11 note=58 velocity=64 time=0.009375000000000001
EXTRACT: note_on channel=2 note=67 velocity=65 time=0
EXTRACT: note_on channel=9 note=38 velocity=108 time=0
EXTRACT: note_on channel=9 note=42 velocity=84 time=0
EXTRACT: note_on channel=10 note=58 velocity=82 time=0
EXTRACT: note_on channel=11 note=55 velocity=115 time=0
EXTRACT: note_off channel=11 note=63 velocity=64 time=0.009375000000000001
EXTRACT: note_on channel=11 note=58 velocity=114 time=0
EXTRACT: note_off channel=3 note=70 velocity=64 time=0.0078125
EXTRACT: note_on channel=11 note=63 velocity=115 time=0.0015625
EXTRACT: note_off channel=10 note=48 velocity=64 time=0.084375
EXTRACT: note_off channel=9 note=38 velocity=64 time=0.0203125
EXTRACT: note_off channel=10 note=58 velocity=64 time=0.0015625
EXTRACT: note_off channel=10 note=63 velocity=64 time=0.0078125
EXTRACT: note_off channel=9 note=42 velocity=64 time=0.004687500000000001
EXTRACT: note_off channel=2 note=60 velocity=64 time=0.0171875
EXTRACT: note_off channel=10 note=67 velocity=64 time=0.046875
EXTRACT: note_off channel=1 note=36 velocity=64 time=0.0703125
EXTRACT: note_on channel=2 note=60 velocity=68 time=0.10312500000000001
EXTRACT: note_on channel=9 note=42 velocity=47 time=0
EXTRACT: note_on channel=3 note=70 velocity=90 time=0.015625
EXTRACT: note_off channel=9 note=42 velocity=64 time=0.1046875
EXTRACT: note_off channel=2 note=60 velocity=64 time=0.1328125
EXTRACT: note_off channel=2 note=67 velocity=64 time=0.0140625
EXTRACT: note_off channel=11 note=63 velocity=64 time=0.0625
EXTRACT: control_change channel=10 control=64 value=0 time=0.0125
EXTRACT: note_off channel=11 note=55 velocity=64 time=0.004687500000000001
EXTRACT: note_off channel=11 note=58 velocity=64 time=0.003125
EXTRACT: note_off channel=7 note=63 velocity=64 time=0.018750000000000003
EXTRACT: note_off channel=7 note=48 velocity=64 time=0
EXTRACT: note_on channel=1 note=34 velocity=98 time=0.00625
EXTRACT: note_on channel=7 note=46 velocity=45 time=0
EXTRACT: note_on channel=7 note=62 velocity=45 time=0
EXTRACT: note_on channel=9 note=35 velocity=109 time=0
EXTRACT: note_on channel=9 note=42 velocity=72 time=0
EXTRACT: note_on channel=10 note=46 velocity=82 time=0
EXTRACT: note_on channel=10 note=55 velocity=87 time=0
EXTRACT: note_on channel=10 note=62 velocity=94 time=0
EXTRACT: note_on channel=10 note=67 velocity=89 time=0
EXTRACT: note_on channel=11 note=55 velocity=120 time=0
EXTRACT: note_on channel=11 note=58 velocity=121 time=0.009375000000000001
EXTRACT: note_off channel=3 note=70 velocity=64 time=0.003125
EXTRACT: note_on channel=3 note=77 velocity=90 time=0.004687500000000001
EXTRACT: note_on channel=11 note=62 velocity=120 time=0.0015625
EXTRACT: note_off channel=9 note=35 velocity=64 time=0.0625
EXTRACT: note_off channel=9 note=42 velocity=64 time=0.07187500000000001
EXTRACT: note_on channel=2 note=58 velocity=68 time=0.22187500000000002
EXTRACT: note_on channel=9 note=42 velocity=48 time=0
EXTRACT: note_on channel=3 note=75 velocity=92 time=0.015625
EXTRACT: note_off channel=3 note=77 velocity=64 time=0.0125
EXTRACT: note_off channel=9 note=42 velocity=64 time=0.0859375
EXTRACT: control_change channel=10 control=64 value=127 time=0.0015625
EXTRACT: note_off channel=11 note=55 velocity=64 time=0.25
EXTRACT: note_off channel=11 note=58 velocity=64 time=0.009375000000000001
EXTRACT: note_on channel=2 note=67 velocity=63 time=0
EXTRACT: note_on channel=9 note=38 velocity=108 time=0
EXTRACT: note_on channel=9 note=42 velocity=80 time=0
EXTRACT: note_on channel=11 note=55 velocity=112 time=0
EXTRACT: note_off channel=11 note=62 velocity=64 time=0.009375000000000001
EXTRACT: note_on channel=11 note=58 velocity=113 time=0
EXTRACT: note_on channel=3 note=74 velocity=92 time=0.00625
EXTRACT: note_off channel=3 note=75 velocity=64 time=0.0015625
EXTRACT: note_on channel=11 note=62 velocity=112 time=0.0015625
EXTRACT: note_off channel=9 note=38 velocity=64 time=0.11406250000000001
EXTRACT: note_off channel=9 note=42 velocity=64 time=0.0078125
EXTRACT: note_off channel=10 note=55 velocity=64 time=0.0078125
EXTRACT: note_off channel=2 note=58 velocity=64 time=0.018750000000000003
EXTRACT: note_off channel=1 note=34 velocity=64 time=0.0140625
EXTRACT: note_on channel=1 note=31 velocity=99 time=0.053125000000000006
EXTRACT: note_off channel=1 note=31 velocity=64 time=0.134375
EXTRACT: note_on channel=1 note=34 velocity=99 time=0.00625
EXTRACT: note_on channel=2 note=58 velocity=66 time=0
EXTRACT: note_on channel=9 note=42 velocity=50 time=0
EXTRACT: note_on channel=10 note=55 velocity=82 time=0
EXTRACT: note_off channel=10 note=67 velocity=64 time=0.003125
EXTRACT: note_on channel=3 note=75 velocity=90 time=0.009375000000000001
EXTRACT: note_off channel=3 note=74 velocity=64 time=0.029687500000000002
EXTRACT: note_off channel=10 note=62 velocity=64 time=0.0078125
EXTRACT: note_off channel=9 note=42 velocity=64 time=0.05625
EXTRACT: note_off channel=1 note=34 velocity=64 time=0.025
EXTRACT: note_off channel=11 note=55 velocity=64 time=0.046875
EXTRACT: note_off channel=11 note=58 velocity=64 time=0.009375000000000001
EXTRACT: note_on channel=11 note=55 velocity=104 time=0
EXTRACT: note_off channel=11 note=62 velocity=64 time=0.009375000000000001
EXTRACT: note_on channel=11 note=58 velocity=104 time=0
EXTRACT: note_on channel=11 note=62 velocity=104 time=0.009375000000000001
EXTRACT: note_on channel=1 note=31 velocity=98 time=0.028125
EXTRACT: note_off channel=1 note=31 velocity=64 time=0.084375
EXTRACT: note_off channel=2 note=67 velocity=64 time=0.0234375
EXTRACT: note_off channel=11 note=55 velocity=64 time=0.0234375
EXTRACT: note_off channel=11 note=58 velocity=64 time=0.009375000000000001
EXTRACT: note_on channel=1 note=34 velocity=98 time=0
EXTRACT: note_on channel=2 note=65 velocity=68 time=0
EXTRACT: note_on channel=9 note=35 velocity=108 time=0
EXTRACT: note_on channel=9 note=42 velocity=79 time=0
EXTRACT: note_on channel=11 note=56 velocity=123 time=0
EXTRACT: note_on channel=3 note=74 velocity=90 time=0.003125
EXTRACT: note_off channel=11 note=62 velocity=64 time=0.00625
EXTRACT: note_on channel=11 note=58 velocity=123 time=0
EXTRACT: note_on channel=11 note=62 velocity=122 time=0.009375000000000001
EXTRACT: note_off channel=3 note=75 velocity=64 time=0.0171875
EXTRACT: note_off channel=9 note=35 velocity=64 time=0.0765625
EXTRACT: note_off channel=9 note=42 velocity=64 time=0.0125
EXTRACT: note_off channel=10 note=55 velocity=64 time=0.03125
EXTRACT: note_off channel=2 note=58 velocity=64 time=0.065625
EXTRACT: note_off channel=1 note=34 velocity=64 time=0.05
EXTRACT: note_off channel=11 note=56 velocity=64 time=0.09375
EXTRACT: note_off channel=11 note=58 velocity=64 time=0.009375000000000001
EXTRACT: note_on channel=1 note=34 velocity=98 time=0
EXTRACT: note_on channel=2 note=58 velocity=68 time=0
EXTRACT: note_on channel=9 note=35 velocity=109 time=0
EXTRACT: note_on channel=9 note=42 velocity=50 time=0
EXTRACT: note_on channel=10 note=62 velocity=94 time=0
EXTRACT: note_on channel=11 note=56 velocity=106 time=0
EXTRACT: note_off channel=11 note=62 velocity=64 time=0.009375000000000001
EXTRACT: note_on channel=11 note=58 velocity=106 time=0
EXTRACT: note_on channel=11 note=62 velocity=106 time=0.009375000000000001
EXTRACT: note_on channel=3 note=72 velocity=88 time=0.0078125
EXTRACT: note_off channel=3 note=74 velocity=64 time=0.004687500000000001
EXTRACT: note_off channel=9 note=42 velocity=64 time=0.07187500000000001
EXTRACT: note_off channel=9 note=35 velocity=64 time=0.018750000000000003
EXTRACT: note_off channel=10 note=62 velocity=64 time=0.021875000000000002
EXTRACT: note_off channel=10 note=46 velocity=64 time=0.025
EXTRACT: note_off channel=2 note=65 velocity=64 time=0.109375
EXTRACT: note_off channel=11 note=56 velocity=64 time=0.00625
EXTRACT: note_off channel=11 note=58 velocity=64 time=0.009375000000000001
EXTRACT: note_on channel=2 note=67 velocity=64 time=0
EXTRACT: note_on channel=9 note=38 velocity=108 time=0
EXTRACT: note_on channel=9 note=42 velocity=85 time=0
EXTRACT: note_on channel=11 note=56 velocity=114 time=0
EXTRACT: note_off channel=11 note=62 velocity=64 time=0.009375000000000001
EXTRACT: note_on channel=11 note=58 velocity=114 time=0
EXTRACT: note_on channel=3 note=70 velocity=90 time=0.003125
EXTRACT: note_on channel=11 note=62 velocity=114 time=0.00625
EXTRACT: note_off channel=3 note=72 velocity=64 time=0.015625
EXTRACT: note_off channel=9 note=38 velocity=64 time=0.0890625
EXTRACT: note_off channel=2 note=58 velocity=64 time=0.0015625
EXTRACT: note_off channel=9 note=42 velocity=64 time=0.0125
EXTRACT: note_off channel=1 note=34 velocity=64 time=0.134375
EXTRACT: note_on channel=2 note=58 velocity=67 time=0.10312500000000001
EXTRACT: note_on channel=9 note=46 velocity=67 time=0
EXTRACT: note_on channel=3 note=72 velocity=89 time=0.026562500000000003
EXTRACT: note_off channel=3 note=70 velocity=64 time=0.009375000000000001
EXTRACT: note_off channel=9 note=46 velocity=64 time=0.084375
EXTRACT: note_off channel=2 note=67 velocity=64 time=0.1234375
EXTRACT: note_off channel=2 note=58 velocity=64 time=0.029687500000000002
EXTRACT: note_off channel=11 note=56 velocity=64 time=0.037500000000000006
EXTRACT: note_off channel=11 note=58 velocity=64 time=0.0390625
EXTRACT: note_off channel=11 note=62 velocity=64 time=0.015625
EXTRACT: note_off channel=7 note=58 velocity=64 time=0.003125
EXTRACT: note_off channel=7 note=67 velocity=64 time=0
EXTRACT: note_off channel=7 note=46 velocity=64 time=0
EXTRACT: note_off channel=7 note=62 velocity=64 time=0
EXTRACT: note_on channel=1 note=32 velocity=98 time=0.00625
EXTRACT: note_on channel=7 note=44 velocity=44 time=0
EXTRACT: note_on channel=7 note=60 velocity=48 time=0
EXTRACT: note_on channel=7 note=63 velocity=44 time=0
EXTRACT: note_on channel=7 note=67 velocity=44 time=0
EXTRACT: note_on channel=9 note=35 velocity=108 time=0
EXTRACT: note_on channel=9 note=42 velocity=72 time=0
EXTRACT: note_on channel=10 note=44 velocity=85 time=0
EXTRACT: note_on channel=10 note=56 velocity=75 time=0
EXTRACT: note_on channel=10 note=60 velocity=82 time=0
EXTRACT: note_on channel=10 note=67 velocity=84 time=0
EXTRACT: note_on channel=11 note=55 velocity=120 time=0
EXTRACT: note_off channel=3 note=72 velocity=64 time=0.003125
EXTRACT: note_on channel=11 note=60 velocity=120 time=0.00625
EXTRACT: note_on channel=11 note=63 velocity=121 time=0.009375000000000001
EXTRACT: note_on channel=3 note=67 velocity=92 time=0.00625
EXTRACT: control_change channel=10 control=64 value=0 time=0.0203125
EXTRACT: note_off channel=9 note=35 velocity=64 time=0.035937500000000004
EXTRACT: note_off channel=9 note=42 velocity=64 time=0.07187500000000001
EXTRACT: control_change channel=10 control=64 value=127 time=0.09062500000000001
EXTRACT: note_off channel=3 note=67 velocity=64 time=0.05625
EXTRACT: note_on channel=2 note=60 velocity=69 time=0.07500000000000001
EXTRACT: note_on channel=9 note=42 velocity=49 time=0
EXTRACT: note_on channel=3 note=67 velocity=90 time=0.0140625
EXTRACT: note_off channel=9 note=42 velocity=64 time=0.1
EXTRACT: note_off channel=11 note=55 velocity=64 time=0.2515625
EXTRACT: note_off channel=11 note=60 velocity=64 time=0.009375000000000001
EXTRACT: note_on channel=2 note=67 velocity=68 time=0
EXTRACT: note_on channel=9 note=38 velocity=108 time=0
EXTRACT: note_on channel=9 note=42 velocity=80 time=0
EXTRACT: note_on channel=10 note=65 velocity=86 time=0
EXTRACT: note_on channel=11 note=55 velocity=112 time=0
EXTRACT: note_on channel=3 note=65 velocity=92 time=0.003125
EXTRACT: note_off channel=11 note=63 velocity=64 time=0.00625
EXTRACT: note_on channel=11 note=60 velocity=112 time=0
EXTRACT: note_on channel=11 note=63 velocity=112 time=0.009375000000000001
EXTRACT: note_off channel=3 note=67 velocity=64 time=0.0203125
EXTRACT: note_off channel=10 note=67 velocity=64 time=0.0015625
EXTRACT: note_off channel=9 note=38 velocity=64 time=0.0921875
EXTRACT: note_off channel=9 note=42 velocity=64 time=0.0078125
EXTRACT: note_off channel=1 note=32 velocity=64 time=0.040625
EXTRACT: note_off channel=2 note=60 velocity=64 time=0
EXTRACT: note_off channel=10 note=56 velocity=64 time=0.178125
EXTRACT: note_off channel=3 note=65 velocity=64 time=0.010937500000000001
EXTRACT: note_on channel=1 note=32 velocity=98 time=0.004687500000000001
EXTRACT: note_on channel=2 note=60 velocity=74 time=0
EXTRACT: note_on channel=3 note=67 velocity=92 time=0
EXTRACT: note_on channel=9 note=42 velocity=50 time=0
EXTRACT: note_off channel=9 note=42 velocity=64 time=0.10625000000000001
EXTRACT: note_off channel=1 note=32 velocity=64 time=0.025
EXTRACT: note_off channel=11 note=55 velocity=64 time=0.046875
EXTRACT: note_off channel=11 note=60 velocity=64 time=0.009375000000000001
EXTRACT: note_on channel=11 note=55 velocity=104 time=0
EXTRACT: note_off channel=11 note=63 velocity=64 time=0.009375000000000001
EXTRACT: note_on channel=11 note=60 velocity=105 time=0
EXTRACT: note_on channel=11 note=63 velocity=104 time=0.009375000000000001
EXTRACT: note_on channel=9 note=35 velocity=92 time=0.028125
EXTRACT: note_off channel=10 note=60 velocity=64 time=0.010937500000000001
EXTRACT: note_off channel=2 note=67 velocity=64 time=0.09375
EXTRACT: note_off channel=9 note=35 velocity=64 time=0.0078125
EXTRACT: note_off channel=11 note=55 velocity=64 time=0.018750000000000003
EXTRACT: note_off channel=11 note=60 velocity=64 time=0.009375000000000001
EXTRACT: note_on channel=1 note=32 velocity=98 time=0
EXTRACT: note_on channel=2 note=65 velocity=74 time=0
EXTRACT: note_on channel=9 note=35 velocity=109 time=0
EXTRACT: note_on channel=9 note=42 velocity=79 time=0
EXTRACT: note_on channel=10 note=60 velocity=54 time=0
EXTRACT: note_on channel=11 note=55 velocity=123 time=0
EXTRACT: note_off channel=11 note=63 velocity=64 time=0.009375000000000001
EXTRACT: note_on channel=11 note=60 velocity=123 time=0
EXTRACT: note_on channel=11 note=63 velocity=122 time=0.009375000000000001
EXTRACT: note_off channel=9 note=35 velocity=64 time=0.09375
EXTRACT: note_off channel=9 note=42 velocity=64 time=0.0125
EXTRACT: note_off channel=1 note=32 velocity=64 time=0.146875
EXTRACT: note_off channel=11 note=55 velocity=64 time=0.09375
EXTRACT: note_off channel=11 note=60 velocity=64 time=0.009375000000000001
EXTRACT: note_on channel=1 note=32 velocity=99 time=0
EXTRACT: note_on channel=9 note=35 velocity=108 time=0
EXTRACT: note_on channel=9 note=42 velocity=50 time=0
EXTRACT: note_on channel=10 note=56 velocity=70 time=0
EXTRACT: note_on channel=11 note=55 velocity=107 time=0
EXTRACT: note_off channel=11 note=63 velocity=64 time=0.009375000000000001
EXTRACT: note_on channel=11 note=60 velocity=107 time=0
EXTRACT: note_on channel=11 note=63 velocity=106 time=0.009375000000000001
EXTRACT: note_off channel=9 note=42 velocity=64 time=0.009375000000000001
EXTRACT: note_off channel=9 note=35 velocity=64 time=0.018750000000000003
EXTRACT: note_off channel=3 note=67 velocity=64 time=0.15000000000000002
EXTRACT: note_off channel=2 note=65 velocity=64 time=0.06875
EXTRACT: note_off channel=11 note=55 velocity=64 time=0.025
EXTRACT: note_off channel=11 note=60 velocity=64 time=0.009375000000000001
EXTRACT: note_on channel=2 note=67 velocity=78 time=0
EXTRACT: note_on channel=9 note=38 velocity=108 time=0
EXTRACT: note_on channel=9 note=42 velocity=84 time=0
EXTRACT: note_on channel=10 note=67 velocity=80 time=0
EXTRACT: note_on channel=11 note=55 velocity=103 time=0
EXTRACT: note_on channel=3 note=67 velocity=93 time=0.0078125
EXTRACT: note_off channel=11 note=63 velocity=64 time=0.0015625
EXTRACT: note_on channel=11 note=60 velocity=103 time=0
EXTRACT: note_on channel=11 note=63 velocity=102 time=0.009375000000000001
EXTRACT: control_change channel=10 control=64 value=0 time=0.00625
EXTRACT: note_off channel=9 note=38 velocity=64 time=0.09843750000000001
EXTRACT: note_off channel=9 note=42 velocity=64 time=0.0140625
EXTRACT: note_off channel=2 note=60 velocity=64 time=0.0171875
EXTRACT: note_off channel=1 note=32 velocity=64 time=0.1171875
EXTRACT: note_off channel=3 note=67 velocity=64 time=0
EXTRACT: note_off channel=11 note=55 velocity=64 time=0.096875
EXTRACT: note_on channel=2 note=60 velocity=82 time=0.00625
EXTRACT: note_on channel=9 note=42 velocity=70 time=0
EXTRACT: note_on channel=11 note=55 velocity=96 time=0
EXTRACT: note_off channel=11 note=60 velocity=64 time=0.003125
EXTRACT: note_on channel=11 note=60 velocity=97 time=0.00625
EXTRACT: note_on channel=3 note=67 velocity=90 time=0.0015625
EXTRACT: note_off channel=11 note=63 velocity=64 time=0.0015625
EXTRACT: note_on channel=11 note=63 velocity=97 time=0.00625
EXTRACT: note_off channel=9 note=42 velocity=64 time=0.1015625
EXTRACT: note_off channel=10 note=67 velocity=64 time=0.12812500000000002
EXTRACT: note_off channel=2 note=60 velocity=64 time=0.004687500000000001
EXTRACT: note_off channel=10 note=60 velocity=64 time=0.00625
EXTRACT: note_off channel=10 note=44 velocity=64 time=0.004687500000000001
EXTRACT: note_off channel=2 note=67 velocity=64 time=0.003125
EXTRACT: note_off channel=10 note=65 velocity=64 time=0.0078125
EXTRACT: note_off channel=10 note=56 velocity=64 time=0.028125
EXTRACT: note_off channel=11 note=55 velocity=64 time=0.0078125
EXTRACT: note_off channel=11 note=60 velocity=64 time=0.0390625
EXTRACT: note_off channel=11 note=63 velocity=64 time=0.015625
EXTRACT: note_off channel=7 note=44 velocity=64 time=0.003125
EXTRACT: note_off channel=7 note=60 velocity=64 time=0
EXTRACT: note_off channel=7 note=63 velocity=64 time=0
EXTRACT: note_off channel=7 note=67 velocity=64 time=0
EXTRACT: note_off channel=3 note=67 velocity=64 time=0.003125
EXTRACT: note_on channel=1 note=31 velocity=99 time=0.003125
EXTRACT: note_on channel=7 note=43 velocity=44 time=0
EXTRACT: note_on channel=7 note=50 velocity=48 time=0
EXTRACT: note_on channel=7 note=63 velocity=44 time=0
EXTRACT: note_on channel=7 note=67 velocity=44 time=0
EXTRACT: note_on channel=7 note=71 velocity=44 time=0
EXTRACT: note_on channel=9 note=35 velocity=108 time=0
EXTRACT: note_on channel=9 note=42 velocity=72 time=0
EXTRACT: note_on channel=10 note=43 velocity=88 time=0
EXTRACT: note_on channel=10 note=59 velocity=78 time=0
EXTRACT: note_on channel=10 note=65 velocity=90 time=0
EXTRACT: note_on channel=10 note=67 velocity=84 time=0
EXTRACT: note_on channel=11 note=53 velocity=121 time=0
EXTRACT: note_on channel=3 note=68 velocity=89 time=0.004687500000000001
EXTRACT: note_on channel=11 note=55 velocity=121 time=0.004687500000000001
EXTRACT: note_on channel=11 note=59 velocity=120 time=0.009375000000000001
EXTRACT: note_off channel=9 note=35 velocity=64 time=0.0625
EXTRACT: note_off channel=9 note=42 velocity=64 time=0.07187500000000001
EXTRACT: control_change channel=10 control=64 value=127 time=0.015625
EXTRACT: note_off channel=3 note=68 velocity=64 time=0.1953125
EXTRACT: note_on channel=2 note=59 velocity=76 time=0.010937500000000001
EXTRACT: note_on channel=9 note=42 velocity=48 time=0
EXTRACT: note_off channel=1 note=31 velocity=64 time=0.1046875
EXTRACT: note_off channel=9 note=42 velocity=64 time=0.009375000000000001
EXTRACT: note_on channel=1 note=31 velocity=98 time=0.1125
EXTRACT: note_on channel=3 note=67 velocity=89 time=0
EXTRACT: note_off channel=10 note=59 velocity=64 time=0.004687500000000001
EXTRACT: note_off channel=11 note=53 velocity=64 time=0.134375
EXTRACT: note_off channel=11 note=55 velocity=64 time=0.009375000000000001
EXTRACT: note_on channel=2 note=67 velocity=78 time=0
EXTRACT: note_on channel=9 note=38 velocity=108 time=0
EXTRACT: note_on channel=9 note=42 velocity=81 time=0
EXTRACT: note_on channel=10 note=59 velocity=78 time=0
EXTRACT: note_on channel=11 note=53 velocity=112 time=0
EXTRACT: note_on channel=3 note=68 velocity=92 time=0.003125
EXTRACT: note_off channel=11 note=59 velocity=64 time=0.00625
EXTRACT: note_on channel=11 note=55 velocity=112 time=0
EXTRACT: note_off channel=3 note=67 velocity=64 time=0.0015625
EXTRACT: note_on channel=11 note=59 velocity=113 time=0.0078125
EXTRACT: note_off channel=1 note=31 velocity=64 time=0.003125
EXTRACT: note_off channel=9 note=38 velocity=64 time=0.11093750000000001
EXTRACT: note_off channel=9 note=42 velocity=64 time=0.0078125
EXTRACT: note_off channel=2 note=59 velocity=64 time=0.037500000000000006
EXTRACT: note_on channel=1 note=29 velocity=99 time=0.009375000000000001
EXTRACT: note_off channel=1 note=29 velocity=64 time=0.125
EXTRACT: note_on channel=1 note=31 velocity=98 time=0.053125000000000006
EXTRACT: note_on channel=2 note=59 velocity=78 time=0.009375000000000001
EXTRACT: note_on channel=9 note=42 velocity=50 time=0
EXTRACT: note_off channel=9 note=42 velocity=64 time=0.10625000000000001
EXTRACT: note_off channel=1 note=31 velocity=64 time=0.009375000000000001
EXTRACT: note_off channel=11 note=53 velocity=64 time=0.0625
EXTRACT: note_off channel=11 note=55 velocity=64 time=0.009375000000000001
EXTRACT: note_on channel=11 note=53 velocity=105 time=0
EXTRACT: note_off channel=11 note=59 velocity=64 time=0.009375000000000001
EXTRACT: note_on channel=11 note=55 velocity=104 time=0
EXTRACT: note_on channel=11 note=59 velocity=104 time=0.009375000000000001
EXTRACT: note_on channel=3 note=67 velocity=91 time=0.00625
EXTRACT: note_off channel=3 note=68 velocity=64 time=0.0015625
EXTRACT: note_on channel=1 note=32 velocity=101 time=0.13593750000000002
EXTRACT: note_off channel=11 note=53 velocity=64 time=0.015625
EXTRACT: note_off channel=10 note=65 velocity=64 time=0.003125
EXTRACT: note_off channel=11 note=55 velocity=64 time=0.00625
EXTRACT: note_on channel=2 note=63 velocity=74 time=0
EXTRACT: note_on channel=9 note=35 velocity=108 time=0
EXTRACT: note_on channel=9 note=42 velocity=78 time=0
EXTRACT: note_on channel=10 note=63 velocity=95 time=0
EXTRACT: note_on channel=11 note=53 velocity=122 time=0
EXTRACT: note_off channel=11 note=59 velocity=64 time=0.009375000000000001
EXTRACT: note_on channel=11 note=55 velocity=122 time=0
EXTRACT: note_on channel=3 note=68 velocity=93 time=0.003125
EXTRACT: note_off channel=3 note=67 velocity=64 time=0.0015625
EXTRACT: note_on channel=11 note=59 velocity=122 time=0.004687500000000001
EXTRACT: control_change channel=10 control=64 value=0 time=0.026562500000000003
EXTRACT: note_off channel=1 note=32 velocity=64 time=0.05625
EXTRACT: note_off channel=9 note=35 velocity=64 time=0.010937500000000001
EXTRACT: note_off channel=9 note=42 velocity=64 time=0.0125
EXTRACT: control_change channel=10 control=64 value=127 time=0.053125000000000006
EXTRACT: note_off channel=10 note=63 velocity=64 time=0.1703125
EXTRACT: note_on channel=1 note=31 velocity=100 time=0.0015625
EXTRACT: note_off channel=11 note=53 velocity=64 time=0.015625
EXTRACT: note_off channel=7 note=50 velocity=64 time=0.003125
EXTRACT: note_off channel=3 note=68 velocity=64 time=0
EXTRACT: note_off channel=11 note=55 velocity=64 time=0.00625
EXTRACT: note_on channel=2 note=62 velocity=79 time=0
EXTRACT: note_on channel=3 note=67 velocity=90 time=0
EXTRACT: note_on channel=7 note=51 velocity=49 time=0
EXTRACT: note_on channel=9 note=35 velocity=108 time=0
EXTRACT: note_on channel=9 note=42 velocity=51 time=0
EXTRACT: note_on channel=10 note=62 velocity=106 time=0
EXTRACT: note_on channel=11 note=53 velocity=106 time=0
EXTRACT: note_off channel=11 note=59 velocity=64 time=0.009375000000000001
EXTRACT: note_on channel=11 note=55 velocity=107 time=0
EXTRACT: note_off channel=2 note=63 velocity=64 time=0.004687500000000001
EXTRACT: note_on channel=11 note=59 velocity=107 time=0.004687500000000001
EXTRACT: note_off channel=9 note=42 velocity=64 time=0.084375
EXTRACT: note_off channel=9 note=35 velocity=64 time=0.018750000000000003
EXTRACT: note_off channel=2 note=59 velocity=64 time=0.028125
EXTRACT: note_on channel=9 note=35 velocity=88 time=0.084375
EXTRACT: note_off channel=3 note=67 velocity=64 time=0.046875
EXTRACT: note_off channel=9 note=35 velocity=64 time=0.07500000000000001
EXTRACT: note_off channel=11 note=53 velocity=64 time=0.009375000000000001
EXTRACT: note_off channel=7 note=51 velocity=64 time=0.003125
EXTRACT: note_off channel=10 note=62 velocity=64 time=0.004687500000000001
EXTRACT: note_off channel=11 note=55 velocity=64 time=0.0015625
EXTRACT: note_on channel=2 note=59 velocity=82 time=0
EXTRACT: note_on channel=7 note=53 velocity=48 time=0
EXTRACT: note_on channel=9 note=38 velocity=109 time=0
EXTRACT: note_on channel=9 note=42 velocity=85 time=0
EXTRACT: note_on channel=11 note=53 velocity=102 time=0
EXTRACT: note_off channel=11 note=59 velocity=64 time=0.009375000000000001
EXTRACT: note_on channel=11 note=55 velocity=103 time=0
EXTRACT: note_on channel=11 note=59 velocity=102 time=0.009375000000000001
EXTRACT: note_on channel=3 note=67 velocity=93 time=0.004687500000000001
EXTRACT: note_off channel=10 note=67 velocity=64 time=0.004687500000000001
EXTRACT: note_off channel=10 note=59 velocity=64 time=0.0234375
EXTRACT: note_off channel=10 note=43 velocity=64 time=0.0625
EXTRACT: note_off channel=9 note=38 velocity=64 time=0.009375000000000001
EXTRACT: note_off channel=9 note=42 velocity=64 time=0.0140625
EXTRACT: note_off channel=1 note=31 velocity=64 time=0.20625000000000002
EXTRACT: note_off channel=7 note=53 velocity=64 time=0.025
EXTRACT: note_off channel=11 note=53 velocity=64 time=0
EXTRACT: note_on channel=2 note=55 velocity=78 time=0.00625
EXTRACT: note_on channel=7 note=55 velocity=48 time=0
EXTRACT: note_on channel=9 note=42 velocity=46 time=0
EXTRACT: note_on channel=11 note=53 velocity=97 time=0
EXTRACT: note_off channel=11 note=55 velocity=64 time=0.003125
EXTRACT: note_on channel=11 note=55 velocity=96 time=0.00625
EXTRACT: note_on channel=3 note=72 velocity=89 time=0.0015625
EXTRACT: note_off channel=11 note=59 velocity=64 time=0.0015625
EXTRACT: note_on channel=11 note=59 velocity=96 time=0.00625
EXTRACT: note_off channel=3 note=67 velocity=64 time=0.003125
EXTRACT: note_off channel=2 note=62 velocity=64 time=0.034375
EXTRACT: note_off channel=9 note=42 velocity=64 time=0.06406250000000001
EXTRACT: note_off channel=2 note=67 velocity=64 time=0.0140625
EXTRACT: note_off channel=3 note=72 velocity=64 time=0.1625
EXTRACT: note_off channel=11 note=53 velocity=64 time=0.0140625
EXTRACT: note_off channel=2 note=55 velocity=64 time=0.018750000000000003
EXTRACT: note_off channel=2 note=59 velocity=64 time=0.0125
EXTRACT: note_off channel=11 note=55 velocity=64 time=0.0078125
EXTRACT: control_change channel=10 control=64 value=0 time=0.0125
EXTRACT: note_off channel=11 note=59 velocity=64 time=0.003125
EXTRACT: note_off channel=7 note=43 velocity=64 time=0.003125
EXTRACT: note_off channel=7 note=67 velocity=64 time=0
EXTRACT: note_off channel=7 note=71 velocity=64 time=0
EXTRACT: note_off channel=7 note=55 velocity=64 time=0
EXTRACT: note_on channel=1 note=32 velocity=98 time=0.00625
EXTRACT: note_on channel=7 note=44 velocity=45 time=0
EXTRACT: note_on channel=7 note=51 velocity=48 time=0
EXTRACT: note_on channel=7 note=68 velocity=44 time=0
EXTRACT: note_on channel=7 note=72 velocity=44 time=0
EXTRACT: note_on channel=9 note=35 velocity=109 time=0
EXTRACT: note_on channel=9 note=42 velocity=73 time=0
EXTRACT: note_on channel=10 note=44 velocity=86 time=0
EXTRACT: note_on channel=10 note=56 velocity=88 time=0
EXTRACT: note_on channel=10 note=60 velocity=109 time=0
EXTRACT: note_on channel=10 note=63 velocity=76 time=0
EXTRACT: note_on channel=11 note=51 velocity=121 time=0
EXTRACT: note_on channel=11 note=56 velocity=120 time=0.009375000000000001
EXTRACT: note_on channel=11 note=60 velocity=120 time=0.009375000000000001
EXTRACT: note_on channel=3 note=72 velocity=88 time=0.015625
EXTRACT: note_off channel=9 note=35 velocity=64 time=0.046875
EXTRACT: control_change channel=10 control=64 value=127 time=0.0390625
EXTRACT: note_off channel=9 note=42 velocity=64 time=0.0328125
EXTRACT: note_on channel=2 note=60 velocity=84 time=0.22187500000000002
EXTRACT: note_on channel=9 note=42 velocity=48 time=0
EXTRACT: note_off channel=9 note=42 velocity=64 time=0.11406250000000001
EXTRACT: note_off channel=11 note=51 velocity=64 time=0.2515625
EXTRACT: note_on channel=2 note=67 velocity=84 time=0.009375000000000001
EXTRACT: note_on channel=9 note=38 velocity=109 time=0
EXTRACT: note_on channel=9 note=42 velocity=81 time=0
EXTRACT: note_on channel=10 note=67 velocity=80 time=0
EXTRACT: note_on channel=11 note=51 velocity=112 time=0
EXTRACT: note_off channel=11 note=56 velocity=64 time=0
EXTRACT: note_off channel=11 note=60 velocity=64 time=0.009375000000000001
EXTRACT: note_on channel=11 note=56 velocity=112 time=0
EXTRACT: note_on channel=11 note=60 velocity=113 time=0.009375000000000001
EXTRACT: note_off channel=3 note=72 velocity=64 time=0.0734375
EXTRACT: note_off channel=9 note=38 velocity=64 time=0.040625
EXTRACT: note_off channel=9 note=42 velocity=64 time=0.0078125
EXTRACT: note_off channel=1 note=32 velocity=64 time=0.0125
EXTRACT: note_off channel=2 note=60 velocity=64 time=0
EXTRACT: note_off channel=10 note=63 velocity=64 time=0.05625
EXTRACT: note_on channel=2 note=60 velocity=75 time=0.1375
EXTRACT: note_on channel=9 note=42 velocity=50 time=0
EXTRACT: note_on channel=10 note=65 velocity=97 time=0
EXTRACT: note_off channel=10 note=67 velocity=64 time=0.025
EXTRACT: note_off channel=9 note=42 velocity=64 time=0.08125
EXTRACT: note_off channel=11 note=51 velocity=64 time=0.07187500000000001
EXTRACT: note_on channel=11 note=51 velocity=105 time=0.009375000000000001
EXTRACT: note_off channel=11 note=56 velocity=64 time=0
EXTRACT: note_off channel=11 note=60 velocity=64 time=0.009375000000000001
EXTRACT: note_on channel=11 note=56 velocity=104 time=0
EXTRACT: note_on channel=11 note=60 velocity=104 time=0.009375000000000001
EXTRACT: note_off channel=2 note=67 velocity=64 time=0.1328125
EXTRACT: note_on channel=1 note=32 velocity=97 time=0.0078125
EXTRACT: note_off channel=11 note=51 velocity=64 time=0.018750000000000003
EXTRACT: note_on channel=2 note=65 velocity=74 time=0.009375000000000001
EXTRACT: note_on channel=9 note=35 velocity=109 time=0
EXTRACT: note_on channel=9 note=42 velocity=78 time=0
EXTRACT: note_on channel=11 note=53 velocity=122 time=0
EXTRACT: note_off channel=11 note=56 velocity=64 time=0
EXTRACT: note_off channel=11 note=60 velocity=64 time=0.009375000000000001
EXTRACT: note_on channel=3 note=75 velocity=90 time=0
EXTRACT: note_on channel=11 note=56 velocity=122 time=0
EXTRACT: note_on channel=11 note=60 velocity=122 time=0.009375000000000001
EXTRACT: note_off channel=9 note=35 velocity=64 time=0.09375
EXTRACT: note_off channel=9 note=42 velocity=64 time=0.0125
EXTRACT: note_off channel=1 note=32 velocity=64 time=0.07500000000000001
EXTRACT: note_off channel=10 note=56 velocity=64 time=0.0578125
EXTRACT: note_off channel=3 note=75 velocity=64 time=0.037500000000000006
EXTRACT: note_on channel=3 note=77 velocity=91 time=0.0078125
EXTRACT: note_off channel=11 note=53 velocity=64 time=0.0625
EXTRACT: note_on channel=1 note=32 velocity=98 time=0.0015625
EXTRACT: note_on channel=9 note=35 velocity=109 time=0.0078125
EXTRACT: note_on channel=9 note=42 velocity=51 time=0
EXTRACT: note_on channel=10 note=56 velocity=91 time=0
EXTRACT: note_on channel=11 note=53 velocity=106 time=0
EXTRACT: note_off channel=11 note=56 velocity=64 time=0
EXTRACT: note_off channel=11 note=60 velocity=64 time=0.009375000000000001
EXTRACT: note_on channel=11 note=56 velocity=106 time=0
EXTRACT: note_on channel=11 note=60 velocity=106 time=0.009375000000000001
EXTRACT: note_off channel=9 note=42 velocity=64 time=0.084375
EXTRACT: note_off channel=9 note=35 velocity=64 time=0.018750000000000003
EXTRACT: note_on channel=3 note=74 velocity=91 time=0.07187500000000001
EXTRACT: note_off channel=3 note=77 velocity=64 time=0.0078125
EXTRACT: note_off channel=10 note=56 velocity=64 time=0.0078125
EXTRACT: note_off channel=10 note=60 velocity=64 time=0.0203125
EXTRACT: note_off channel=2 note=65 velocity=64 time=0.11093750000000001
EXTRACT: note_off channel=11 note=53 velocity=64 time=0.025
EXTRACT: note_on channel=2 note=67 velocity=79 time=0.009375000000000001
EXTRACT: note_on channel=9 note=38 velocity=109 time=0
EXTRACT: note_on channel=9 note=42 velocity=84 time=0
EXTRACT: note_on channel=10 note=60 velocity=94 time=0
EXTRACT: note_on channel=11 note=53 velocity=114 time=0
EXTRACT: note_off channel=11 note=56 velocity=64 time=0
EXTRACT: note_off channel=11 note=60 velocity=64 time=0.009375000000000001
EXTRACT: note_on channel=11 note=56 velocity=115 time=0
EXTRACT: note_on channel=11 note=60 velocity=114 time=0.009375000000000001
EXTRACT: note_off channel=10 note=60 velocity=64 time=0.029687500000000002
EXTRACT: note_on channel=3 note=75 velocity=91 time=0.015625
EXTRACT: note_off channel=3 note=74 velocity=64 time=0.00625
EXTRACT: note_off channel=10 note=65 velocity=64 time=0.0203125
EXTRACT: note_off channel=10 note=44 velocity=64 time=0.0015625
EXTRACT: note_off channel=9 note=38 velocity=64 time=0.03125
EXTRACT: note_off channel=9 note=42 velocity=64 time=0.0140625
EXTRACT: note_off channel=2 note=60 velocity=64 time=0.0171875
EXTRACT: note_off channel=3 note=75 velocity=64 time=0.1546875
EXTRACT: note_on channel=3 note=72 velocity=93 time=0.0171875
EXTRACT: note_on channel=2 note=60 velocity=83 time=0.0484375
EXTRACT: note_on channel=9 note=42 velocity=46 time=0
EXTRACT: note_off channel=9 note=42 velocity=64 time=0.1203125
EXTRACT: note_off channel=1 note=32 velocity=64 time=0.053125000000000006
EXTRACT: note_off channel=3 note=72 velocity=64 time=0.0328125
EXTRACT: note_on channel=3 note=74 velocity=90 time=0.010937500000000001
EXTRACT: note_off channel=2 note=60 velocity=64 time=0.035937500000000004
EXTRACT: note_off channel=2 note=67 velocity=64 time=0.0140625
EXTRACT: note_off channel=11 note=60 velocity=64 time=0.0625
EXTRACT: note_off channel=11 note=53 velocity=64 time=0.0171875
EXTRACT: note_off channel=11 note=56 velocity=64 time=0.003125
EXTRACT: note_off channel=7 note=63 velocity=64 time=0.018750000000000003
EXTRACT: note_off channel=7 note=44 velocity=64 time=0
EXTRACT: note_off channel=7 note=51 velocity=64 time=0
EXTRACT: note_off channel=7 note=68 velocity=64 time=0
EXTRACT: note_off channel=7 note=72 velocity=64 time=0
EXTRACT: note_on channel=1 note=34 velocity=98 time=0.00625
EXTRACT: note_on channel=7 note=46 velocity=53 time=0
EXTRACT: note_on channel=7 note=58 velocity=53 time=0
EXTRACT: note_on channel=7 note=60 velocity=57 time=0
EXTRACT: note_on channel=7 note=62 velocity=55 time=0
EXTRACT: note_on channel=7 note=67 velocity=52 time=0
EXTRACT: note_on channel=9 note=35 velocity=108 time=0
EXTRACT: note_on channel=9 note=42 velocity=73 time=0
EXTRACT: note_on channel=10 note=46 velocity=92 time=0
EXTRACT: note_on channel=10 note=58 velocity=75 time=0
EXTRACT: note_on channel=10 note=62 velocity=99 time=0
EXTRACT: note_on channel=10 note=67 velocity=93 time=0
EXTRACT: note_on channel=11 note=55 velocity=120 time=0
EXTRACT: control_change channel=10 control=64 value=0 time=0.004687500000000001
EXTRACT: note_on channel=11 note=58 velocity=120 time=0.004687500000000001
EXTRACT: note_on channel=11 note=62 velocity=120 time=0.009375000000000001
EXTRACT: note_off channel=9 note=35 velocity=64 time=0.0625
EXTRACT: control_change channel=10 control=64 value=127 time=0.0546875
EXTRACT: note_off channel=3 note=74 velocity=64 time=0.010937500000000001
EXTRACT: note_off channel=9 note=42 velocity=64 time=0.00625
EXTRACT: note_off channel=10 note=58 velocity=64 time=0.109375
EXTRACT: note_on channel=3 note=74 velocity=92 time=0.053125000000000006
EXTRACT: note_on channel=2 note=60 velocity=82 time=0.059375000000000004
EXTRACT: note_on channel=9 note=42 velocity=49 time=0
EXTRACT: note_off channel=1 note=34 velocity=64 time=0.1046875
EXTRACT: note_off channel=9 note=42 velocity=64 time=0.009375000000000001
EXTRACT: note_on channel=1 note=34 velocity=96 time=0.1125
EXTRACT: note_off channel=10 note=46 velocity=64 time=0.0390625
EXTRACT: note_off channel=10 note=62 velocity=64 time=0.059375000000000004
EXTRACT: note_off channel=10 note=67 velocity=64 time=0.040625
EXTRACT: note_off channel=11 note=55 velocity=64 time=0
EXTRACT: note_off channel=7 note=60 velocity=64 time=0.003125
EXTRACT: note_on channel=2 note=67 velocity=77 time=0.00625
EXTRACT: note_on channel=7 note=55 velocity=64 time=0
EXTRACT: note_on channel=9 note=38 velocity=108 time=0
EXTRACT: note_on channel=9 note=42 velocity=80 time=0
EXTRACT: note_on channel=10 note=58 velocity=81 time=0
EXTRACT: note_on channel=11 note=55 velocity=113 time=0
EXTRACT: note_off channel=11 note=58 velocity=64 time=0
EXTRACT: note_off channel=11 note=62 velocity=64 time=0.009375000000000001
EXTRACT: note_on channel=11 note=58 velocity=112 time=0
EXTRACT: note_on channel=11 note=62 velocity=113 time=0.009375000000000001
EXTRACT: note_off channel=1 note=34 velocity=64 time=0.003125
EXTRACT: note_off channel=10 note=58 velocity=64 time=0.028125
EXTRACT: note_off channel=9 note=38 velocity=64 time=0.08281250000000001
EXTRACT: note_off channel=9 note=42 velocity=64 time=0.0078125
EXTRACT: note_off channel=2 note=60 velocity=64 time=0.0171875
EXTRACT: note_on channel=1 note=31 velocity=96 time=0.078125
EXTRACT: note_off channel=1 note=31 velocity=64 time=0.07968750000000001
EXTRACT: note_on channel=1 note=34 velocity=97 time=0.018750000000000003
EXTRACT: note_off channel=7 note=55 velocity=64 time=0.025
EXTRACT: note_on channel=2 note=60 velocity=81 time=0.00625
EXTRACT: note_on channel=7 note=56 velocity=67 time=0
EXTRACT: note_on channel=9 note=42 velocity=68 time=0
EXTRACT: note_on channel=10 note=46 velocity=96 time=0
EXTRACT: note_off channel=9 note=42 velocity=64 time=0.10625000000000001
EXTRACT: note_off channel=1 note=34 velocity=64 time=0.053125000000000006
EXTRACT: note_off channel=11 note=55 velocity=64 time=0.018750000000000003
EXTRACT: note_on channel=11 note=55 velocity=105 time=0.009375000000000001
EXTRACT: note_off channel=11 note=58 velocity=64 time=0
EXTRACT: note_off channel=11 note=62 velocity=64 time=0.009375000000000001
EXTRACT: note_on channel=11 note=58 velocity=104 time=0
EXTRACT: note_on channel=11 note=62 velocity=105 time=0.009375000000000001
EXTRACT: note_on channel=1 note=31 velocity=97 time=0.0140625
EXTRACT: note_off channel=1 note=31 velocity=64 time=0.0890625
EXTRACT: note_off channel=3 note=74 velocity=64 time=0.0015625
EXTRACT: note_off channel=2 note=67 velocity=64 time=0.03125
EXTRACT: note_on channel=1 note=34 velocity=96 time=0.004687500000000001
EXTRACT: note_off channel=11 note=55 velocity=64 time=0.018750000000000003
EXTRACT: note_off channel=7 note=58 velocity=64 time=0.003125
EXTRACT: note_off channel=7 note=56 velocity=64 time=0
EXTRACT: note_on channel=3 note=79 velocity=92 time=0.0015625
EXTRACT: note_on channel=2 note=65 velocity=82 time=0.004687500000000001
EXTRACT: note_on channel=7 note=58 velocity=67 time=0
EXTRACT: note_on channel=9 note=35 velocity=108 time=0
EXTRACT: note_on channel=9 note=42 velocity=78 time=0
EXTRACT: note_on channel=10 note=74 velocity=49 time=0
EXTRACT: note_on channel=10 note=77 velocity=55 time=0
EXTRACT: note_on channel=10 note=82 velocity=56 time=0
EXTRACT: note_on channel=11 note=56 velocity=123 time=0
EXTRACT: note_off channel=11 note=58 velocity=64 time=0
EXTRACT: note_off channel=11 note=62 velocity=64 time=0.009375000000000001
EXTRACT: note_on channel=11 note=58 velocity=122 time=0
EXTRACT: note_on channel=11 note=62 velocity=123 time=0.009375000000000001
EXTRACT: note_off channel=9 note=35 velocity=64 time=0.09375
EXTRACT: note_off channel=9 note=42 velocity=64 time=0.0125
EXTRACT: note_off channel=1 note=34 velocity=64 time=0.07500000000000001
EXTRACT: note_off channel=2 note=60 velocity=64 time=0.021875000000000002
EXTRACT: note_on channel=9 note=38 velocity=108 time=0.0125
EXTRACT: note_off channel=9 note=38 velocity=64 time=0.1234375
EXTRACT: note_off channel=11 note=56 velocity=64 time=0.0078125
EXTRACT: note_on channel=1 note=34 velocity=96 time=0.0015625
EXTRACT: note_on channel=2 note=60 velocity=83 time=0.0078125
EXTRACT: note_on channel=11 note=56 velocity=107 time=0
EXTRACT: note_off channel=11 note=58 velocity=64 time=0
EXTRACT: note_off channel=11 note=62 velocity=64 time=0.009375000000000001
EXTRACT: note_on channel=11 note=58 velocity=106 time=0
EXTRACT: note_on channel=11 note=62 velocity=106 time=0.009375000000000001
EXTRACT: note_off channel=3 note=79 velocity=64 time=0.14375000000000002
EXTRACT: note_on channel=9 note=38 velocity=109 time=0.025
EXTRACT: note_off channel=9 note=38 velocity=64 time=0.1234375
EXTRACT: note_on channel=1 note=29 velocity=98 time=0.0234375
EXTRACT: note_off channel=2 note=65 velocity=64 time=0.025
EXTRACT: note_off channel=11 note=56 velocity=64 time=0.00625
EXTRACT: note_on channel=2 note=67 velocity=79 time=0.009375000000000001
EXTRACT: note_on channel=9 note=38 velocity=109 time=0
EXTRACT: note_on channel=11 note=56 velocity=115 time=0
EXTRACT: note_off channel=11 note=58 velocity=64 time=0
EXTRACT: note_off channel=11 note=62 velocity=64 time=0.009375000000000001
EXTRACT: note_on channel=11 note=58 velocity=115 time=0
EXTRACT: note_on channel=3 note=80 velocity=93 time=0.003125
EXTRACT: note_on channel=11 note=62 velocity=115 time=0.00625
EXTRACT: note_off channel=1 note=34 velocity=64 time=0.035937500000000004
EXTRACT: note_off channel=1 note=29 velocity=64 time=0.0421875
EXTRACT: note_off channel=9 note=38 velocity=64 time=0.026562500000000003
EXTRACT: note_off channel=2 note=60 velocity=64 time=0.0015625
EXTRACT: note_on channel=1 note=31 velocity=98 time=0.035937500000000004
EXTRACT: note_on channel=9 note=38 velocity=108 time=0.026562500000000003
EXTRACT: note_on channel=6 note=72 velocity=82 time=0.03125
EXTRACT: note_off channel=1 note=31 velocity=64 time=0.0546875
EXTRACT: note_on channel=6 note=74 velocity=84 time=0.0203125
EXTRACT: note_off channel=9 note=38 velocity=64 time=0.0171875
EXTRACT: note_off channel=6 note=72 velocity=64 time=0.0078125
EXTRACT: note_on channel=1 note=29 velocity=106 time=0.0140625
EXTRACT: note_on channel=6 note=75 velocity=84 time=0.0203125
EXTRACT: note_on channel=2 note=60 velocity=80 time=0.021875000000000002
EXTRACT: note_on channel=9 note=43 velocity=89 time=0
EXTRACT: note_off channel=6 note=74 velocity=64 time=0.0015625
EXTRACT: note_off channel=6 note=75 velocity=64 time=0.07500000000000001
EXTRACT: note_on channel=6 note=77 velocity=88 time=0.004687500000000001
EXTRACT: note_off channel=9 note=43 velocity=64 time=0.018750000000000003
EXTRACT: note_off channel=1 note=29 velocity=64 time=0.018750000000000003
EXTRACT: control_change channel=10 control=64 value=0 time=0.015625
EXTRACT: note_on channel=1 note=27 velocity=120 time=0.018750000000000003
EXTRACT: note_off channel=6 note=77 velocity=64 time=0.026562500000000003
EXTRACT: note_off channel=3 note=80 velocity=64 time=0.0125
EXTRACT: note_on channel=6 note=79 velocity=90 time=0.0078125
EXTRACT: note_off channel=2 note=67 velocity=64 time=0.043750000000000004
EXTRACT: note_on channel=6 note=80 velocity=92 time=0.028125
EXTRACT: note_off channel=2 note=60 velocity=64 time=0.0015625
EXTRACT: note_off channel=1 note=27 velocity=64 time=0.00625
EXTRACT: note_off channel=6 note=79 velocity=64 time=0
EXTRACT: note_off channel=11 note=56 velocity=64 time=0.03125
EXTRACT: note_off channel=10 note=82 velocity=64 time=0.0140625
EXTRACT: note_off channel=11 note=58 velocity=64 time=0.025
EXTRACT: note_off channel=10 note=74 velocity=64 time=0.003125
EXTRACT: note_off channel=7 note=67 velocity=64 time=0.00625
EXTRACT: note_off channel=7 note=58 velocity=64 time=0
EXTRACT: note_off channel=7 note=62 velocity=64 time=0.0015625
EXTRACT: note_off channel=10 note=77 velocity=64 time=0.003125
EXTRACT: note_off channel=11 note=62 velocity=64 time=0.0015625
EXTRACT: note_off channel=7 note=46 velocity=64 time=0.003125
EXTRACT: note_off channel=10 note=46 velocity=64 time=0.0015625
EXTRACT: note_on channel=1 note=32 velocity=102 time=0.004687500000000001
EXTRACT: note_on channel=3 note=82 velocity=89 time=0
EXTRACT: note_on channel=6 note=82 velocity=62 time=0
EXTRACT: note_on channel=7 note=56 velocity=58 time=0
EXTRACT: note_on channel=7 note=60 velocity=59 time=0
EXTRACT: note_on channel=7 note=63 velocity=58 time=0
EXTRACT: note_on channel=7 note=67 velocity=59 time=0
EXTRACT: note_on channel=9 note=35 velocity=118 time=0
EXTRACT: note_on channel=9 note=51 velocity=82 time=0
EXTRACT: note_on channel=9 note=57 velocity=83 time=0
EXTRACT: note_on channel=10 note=56 velocity=54 time=0
EXTRACT: note_on channel=10 note=60 velocity=78 time=0
EXTRACT: note_on channel=10 note=63 velocity=55 time=0
EXTRACT: note_on channel=10 note=67 velocity=83 time=0
EXTRACT: note_on channel=14 note=82 velocity=74 time=0
EXTRACT: note_off channel=6 note=80 velocity=64 time=0.0015625
EXTRACT: note_off channel=9 note=35 velocity=64 time=0.07968750000000001
EXTRACT: note_off channel=9 note=51 velocity=64 time=0.07187500000000001
EXTRACT: note_off channel=9 note=57 velocity=64 time=0
EXTRACT: note_off channel=3 note=82 velocity=64 time=0.0890625
EXTRACT: note_on channel=2 note=60 velocity=78 time=0.1328125
EXTRACT: note_on channel=3 note=82 velocity=88 time=0
EXTRACT: note_on channel=9 note=51 velocity=68 time=0
EXTRACT: note_off channel=9 note=51 velocity=64 time=0.11406250000000001
EXTRACT: note_off channel=1 note=32 velocity=64 time=0.1296875
EXTRACT: note_off channel=3 note=82 velocity=64 time=0.043750000000000004
EXTRACT: note_on channel=1 note=32 velocity=102 time=0.08750000000000001
EXTRACT: note_on channel=2 note=67 velocity=81 time=0
EXTRACT: note_on channel=3 note=82 velocity=88 time=0
EXTRACT: note_on channel=6 note=72 velocity=58 time=0
EXTRACT: note_on channel=9 note=38 velocity=103 time=0
EXTRACT: note_on channel=9 note=51 velocity=90 time=0
EXTRACT: control_change channel=10 control=64 value=127 time=0.010937500000000001
EXTRACT: note_off channel=9 note=38 velocity=64 time=0.12187500000000001
EXTRACT: note_off channel=9 note=51 velocity=64 time=0.0078125
EXTRACT: note_off channel=10 note=60 velocity=64 time=0.060937500000000006
EXTRACT: note_off channel=10 note=56 velocity=64 time=0.0078125
EXTRACT: note_off channel=10 note=67 velocity=64 time=0.003125
EXTRACT: note_off channel=10 note=63 velocity=64 time=0.004687500000000001
EXTRACT: note_off channel=2 note=60 velocity=64 time=0.065625
EXTRACT: note_off channel=3 note=82 velocity=64 time=0.003125
EXTRACT: note_on channel=2 note=60 velocity=79 time=0.0890625
EXTRACT: note_on channel=3 note=82 velocity=92 time=0
EXTRACT: note_on channel=9 note=51 velocity=66 time=0
EXTRACT: note_off channel=9 note=51 velocity=64 time=0.10625000000000001
EXTRACT: note_off channel=1 note=32 velocity=64 time=0.1375
EXTRACT: note_off channel=2 note=67 velocity=64 time=0.08750000000000001
EXTRACT: control_change channel=10 control=64 value=0 time=0.026562500000000003
EXTRACT: note_off channel=7 note=56 velocity=64 time=0.0078125
EXTRACT: note_off channel=7 note=60 velocity=64 time=0
EXTRACT: note_off channel=7 note=63 velocity=64 time=0
EXTRACT: note_off channel=7 note=67 velocity=64 time=0
EXTRACT: note_off channel=6 note=72 velocity=64 time=0.003125
EXTRACT: note_on channel=1 note=31 velocity=102 time=0.00625
EXTRACT: note_on channel=2 note=62 velocity=79 time=0
EXTRACT: note_on channel=6 note=74 velocity=58 time=0
EXTRACT: note_on channel=7 note=55 velocity=59 time=0
EXTRACT: note_on channel=7 note=58 velocity=59 time=0
EXTRACT: note_on channel=7 note=62 velocity=58 time=0
EXTRACT: note_on channel=7 note=65 velocity=58 time=0
EXTRACT: note_on channel=9 note=35 velocity=118 time=0
EXTRACT: note_on channel=9 note=51 velocity=78 time=0
EXTRACT: note_on channel=10 note=55 velocity=77 time=0
EXTRACT: note_on channel=10 note=58 velocity=68 time=0
EXTRACT: note_on channel=10 note=62 velocity=82 time=0
EXTRACT: note_on channel=10 note=65 velocity=81 time=0
EXTRACT: note_off channel=9 note=35 velocity=64 time=0.1125
EXTRACT: note_off channel=3 note=82 velocity=64 time=0.010937500000000001
EXTRACT: note_off channel=9 note=51 velocity=64 time=0.0015625
EXTRACT: control_change channel=10 control=64 value=127 time=0.053125000000000006
EXTRACT: note_off channel=10 note=65 velocity=64 time=0.12812500000000002
EXTRACT: note_off channel=10 note=55 velocity=64 time=0.035937500000000004
EXTRACT: note_off channel=10 note=58 velocity=64 time=0.0078125
EXTRACT: note_off channel=10 note=62 velocity=64 time=0.004687500000000001
EXTRACT: note_on channel=3 note=82 velocity=92 time=0.0203125
EXTRACT: note_on channel=9 note=51 velocity=71 time=0
EXTRACT: note_off channel=9 note=51 velocity=64 time=0.10312500000000001
EXTRACT: note_off channel=1 note=31 velocity=64 time=0.140625
EXTRACT: note_off channel=3 note=82 velocity=64 time=0.10625000000000001
EXTRACT: note_off channel=7 note=55 velocity=64 time=0.015625
EXTRACT: note_off channel=7 note=58 velocity=64 time=0
EXTRACT: note_off channel=7 note=62 velocity=64 time=0
EXTRACT: note_off channel=7 note=65 velocity=64 time=0
EXTRACT: note_off channel=6 note=74 velocity=64 time=0.003125
EXTRACT: note_on channel=1 note=36 velocity=103 time=0.00625
EXTRACT: note_on channel=2 note=63 velocity=77 time=0
EXTRACT: note_on channel=3 note=79 velocity=88 time=0
EXTRACT: note_on channel=6 note=75 velocity=59 time=0
EXTRACT: note_on channel=7 note=55 velocity=59 time=0
EXTRACT: note_on channel=7 note=60 velocity=58 time=0
EXTRACT: note_on channel=7 note=63 velocity=59 time=0
EXTRACT: note_on channel=9 note=38 velocity=102 time=0
EXTRACT: note_on channel=9 note=51 velocity=95 time=0
EXTRACT: note_on channel=10 note=55 velocity=76 time=0
EXTRACT: note_on channel=10 note=60 velocity=74 time=0
EXTRACT: note_on channel=10 note=63 velocity=74 time=0
EXTRACT: control_change channel=10 control=64 value=0 time=0.021875000000000002
EXTRACT: note_off channel=9 note=38 velocity=64 time=0.1015625
EXTRACT: note_off channel=9 note=51 velocity=64 time=0.0140625
EXTRACT: control_change channel=10 control=64 value=127 time=0.07968750000000001
EXTRACT: note_off channel=10 note=55 velocity=64 time=0.08125
EXTRACT: note_off channel=10 note=60 velocity=64 time=0.0015625
EXTRACT: note_off channel=10 note=63 velocity=64 time=0.015625
EXTRACT: note_off channel=3 note=79 velocity=64 time=0.043750000000000004
EXTRACT: note_on channel=3 note=82 velocity=92 time=0.015625
EXTRACT: note_on channel=9 note=51 velocity=72 time=0
EXTRACT: note_off channel=9 note=51 velocity=64 time=0.1203125
EXTRACT: note_off channel=1 note=36 velocity=64 time=0.1234375
EXTRACT: note_off channel=2 note=63 velocity=64 time=0.11093750000000001
EXTRACT: note_off channel=7 note=55 velocity=64 time=0.010937500000000001
EXTRACT: note_off channel=7 note=60 velocity=64 time=0
EXTRACT: note_off channel=7 note=63 velocity=64 time=0
EXTRACT: note_off channel=2 note=62 velocity=64 time=0.0015625
EXTRACT: note_off channel=6 note=75 velocity=64 time=0.0015625
EXTRACT: note_on channel=1 note=29 velocity=102 time=0.00625
EXTRACT: note_on channel=3 note=79 velocity=91 time=0
EXTRACT: note_on channel=6 note=72 velocity=58 time=0
EXTRACT: note_on channel=7 note=53 velocity=58 time=0
EXTRACT: note_on channel=7 note=56 velocity=58 time=0
EXTRACT: note_on channel=7 note=60 velocity=58 time=0
EXTRACT: note_on channel=7 note=63 velocity=58 time=0
EXTRACT: note_on channel=9 note=35 velocity=118 time=0
EXTRACT: note_on channel=9 note=51 velocity=82 time=0
EXTRACT: note_on channel=10 note=53 velocity=67 time=0
EXTRACT: note_on channel=10 note=56 velocity=69 time=0
EXTRACT: note_on channel=10 note=60 velocity=78 time=0
EXTRACT: note_on channel=10 note=63 velocity=66 time=0
EXTRACT: note_off channel=3 note=82 velocity=64 time=0.0078125
EXTRACT: note_off channel=2 note=60 velocity=64 time=0.003125
EXTRACT: control_change channel=10 control=64 value=0 time=0.045312500000000006
EXTRACT: note_off channel=9 note=35 velocity=64 time=0.025
EXTRACT: note_off channel=9 note=51 velocity=64 time=0.07187500000000001
EXTRACT: note_off channel=3 note=79 velocity=64 time=0.1953125
EXTRACT: note_on channel=2 note=60 velocity=82 time=0.026562500000000003
EXTRACT: note_on channel=3 note=82 velocity=89 time=0
EXTRACT: note_on channel=9 note=51 velocity=68 time=0
EXTRACT: note_off channel=9 note=51 velocity=64 time=0.11406250000000001
EXTRACT: note_off channel=3 note=82 velocity=64 time=0.2578125
EXTRACT: note_on channel=2 note=67 velocity=84 time=0.003125
EXTRACT: note_on channel=3 note=79 velocity=90 time=0
EXTRACT: note_on channel=9 note=38 velocity=102 time=0
EXTRACT: note_on channel=9 note=51 velocity=90 time=0
EXTRACT: control_change channel=10 control=64 value=127 time=0.09375
EXTRACT: note_off channel=9 note=38 velocity=64 time=0.0390625
EXTRACT: note_off channel=9 note=51 velocity=64 time=0.0078125
EXTRACT: control_change channel=2 control=64 value=127 time=0.05625
EXTRACT: note_off channel=2 note=60 velocity=64 time=0.0203125
EXTRACT: note_off channel=10 note=53 velocity=64 time=0.021875000000000002
EXTRACT: note_off channel=10 note=56 velocity=64 time=0.029687500000000002
EXTRACT: note_off channel=10 note=60 velocity=64 time=0.0234375
EXTRACT: note_off channel=10 note=63 velocity=64 time=0.0015625
EXTRACT: note_off channel=3 note=79 velocity=64 time=0.0703125
EXTRACT: note_on channel=2 note=60 velocity=78 time=0.010937500000000001
EXTRACT: note_on channel=3 note=82 velocity=89 time=0
EXTRACT: note_on channel=9 note=51 velocity=66 time=0
EXTRACT: note_off channel=9 note=51 velocity=64 time=0.10625000000000001
EXTRACT: note_off channel=1 note=29 velocity=64 time=0.1375
EXTRACT: note_off channel=3 note=82 velocity=64 time=0.11406250000000001
EXTRACT: note_off channel=7 note=53 velocity=64 time=0.0078125
EXTRACT: note_off channel=7 note=56 velocity=64 time=0
EXTRACT: note_off channel=7 note=60 velocity=64 time=0
EXTRACT: note_off channel=7 note=63 velocity=64 time=0
EXTRACT: note_on channel=1 note=32 velocity=102 time=0.009375000000000001
EXTRACT: note_on channel=2 note=63 velocity=81 time=0
EXTRACT: note_on channel=3 note=79 velocity=92 time=0
EXTRACT: note_on channel=7 note=56 velocity=58 time=0
EXTRACT: note_on channel=7 note=60 velocity=59 time=0
EXTRACT: note_on channel=7 note=63 velocity=58 time=0
EXTRACT: note_on channel=9 note=35 velocity=119 time=0
EXTRACT: note_on channel=9 note=51 velocity=78 time=0
EXTRACT: note_on channel=10 note=56 velocity=58 time=0
EXTRACT: note_on channel=10 note=60 velocity=81 time=0
EXTRACT: note_on channel=10 note=63 velocity=60 time=0
EXTRACT: control_change channel=10 control=64 value=0 time=0
EXTRACT: note_off channel=2 note=67 velocity=64 time=0.09843750000000001
EXTRACT: control_change channel=2 control=64 value=0 time=0.003125
EXTRACT: note_off channel=9 note=35 velocity=64 time=0.010937500000000001
EXTRACT: note_off channel=9 note=51 velocity=64 time=0.0125
EXTRACT: note_off channel=2 note=60 velocity=64 time=0.1046875
EXTRACT: note_off channel=3 note=79 velocity=64 time=0.1203125
EXTRACT: control_change channel=2 control=64 value=127 time=0.0140625
EXTRACT: note_on channel=2 note=60 velocity=79 time=0.010937500000000001
EXTRACT: note_on channel=3 note=75 velocity=91 time=0
EXTRACT: note_on channel=9 note=35 velocity=118 time=0
EXTRACT: note_on channel=9 note=51 velocity=70 time=0
EXTRACT: note_off channel=9 note=51 velocity=64 time=0.10312500000000001
EXTRACT: note_off channel=9 note=35 velocity=64 time=0.009375000000000001
EXTRACT: control_change channel=2 control=64 value=0 time=0.203125
EXTRACT: note_on channel=2 note=67 velocity=82 time=0.059375000000000004
EXTRACT: note_on channel=9 note=38 velocity=102 time=0
EXTRACT: note_on channel=9 note=51 velocity=94 time=0
EXTRACT: note_off channel=9 note=38 velocity=64 time=0.1234375
EXTRACT: note_off channel=9 note=51 velocity=64 time=0.0140625
EXTRACT: note_off channel=2 note=60 velocity=64 time=0.053125000000000006
EXTRACT: note_on channel=2 note=60 velocity=82 time=0.184375
EXTRACT: note_on channel=9 note=51 velocity=73 time=0
EXTRACT: note_off channel=3 note=75 velocity=64 time=0.07968750000000001
EXTRACT: note_off channel=9 note=51 velocity=64 time=0.040625
EXTRACT: note_off channel=1 note=32 velocity=64 time=0.09375
EXTRACT: note_off channel=2 note=60 velocity=64 time=0.115625
EXTRACT: note_off channel=6 note=82 velocity=64 time=0.009375000000000001
EXTRACT: note_off channel=6 note=72 velocity=64 time=0
EXTRACT: note_off channel=2 note=67 velocity=64 time=0.0015625
EXTRACT: note_on channel=1 note=32 velocity=102 time=0.004687500000000001
EXTRACT: note_on channel=3 note=79 velocity=92 time=0
EXTRACT: note_on channel=6 note=77 velocity=58 time=0
EXTRACT: note_on channel=7 note=56 velocity=58 time=0
EXTRACT: note_on channel=7 note=58 velocity=59 time=0
EXTRACT: note_on channel=7 note=62 velocity=58 time=0
EXTRACT: note_on channel=7 note=65 velocity=59 time=0
EXTRACT: note_on channel=9 note=35 velocity=119 time=0
EXTRACT: note_on channel=9 note=51 velocity=82 time=0
EXTRACT: note_on channel=10 note=56 velocity=58 time=0
EXTRACT: note_on channel=10 note=58 velocity=75 time=0
EXTRACT: note_on channel=10 note=62 velocity=83 time=0
EXTRACT: note_on channel=10 note=65 velocity=72 time=0
EXTRACT: note_off channel=7 note=63 velocity=64 time=0.0015625
EXTRACT: note_off channel=10 note=63 velocity=64 time=0
EXTRACT: note_off channel=7 note=56 velocity=64 time=0.0015625
EXTRACT: note_off channel=10 note=56 velocity=64 time=0
EXTRACT: note_off channel=7 note=60 velocity=64 time=0.00625
EXTRACT: note_off channel=10 note=60 velocity=64 time=0
EXTRACT: note_off channel=2 note=63 velocity=64 time=0.009375000000000001
EXTRACT: note_off channel=9 note=35 velocity=64 time=0.0625
EXTRACT: note_off channel=9 note=51 velocity=64 time=0.07187500000000001
EXTRACT: note_off channel=3 note=79 velocity=64 time=0.18281250000000002
EXTRACT: note_on channel=2 note=58 velocity=76 time=0.0390625
EXTRACT: note_on channel=3 note=80 velocity=88 time=0
EXTRACT: note_on channel=9 note=51 velocity=69 time=0
EXTRACT: control_change channel=10 control=64 value=127 time=0.0859375
EXTRACT: note_off channel=9 note=51 velocity=64 time=0.028125
EXTRACT: note_off channel=1 note=32 velocity=64 time=0.20625000000000002
EXTRACT: note_off channel=3 note=80 velocity=64 time=0.0390625
EXTRACT: note_on channel=1 note=32 velocity=102 time=0.015625
EXTRACT: note_on channel=2 note=65 velocity=78 time=0
EXTRACT: note_on channel=3 note=79 velocity=91 time=0
EXTRACT: note_on channel=9 note=38 velocity=103 time=0
EXTRACT: note_on channel=9 note=51 velocity=90 time=0
EXTRACT: note_off channel=10 note=56 velocity=64 time=0.0734375
EXTRACT: note_off channel=9 note=38 velocity=64 time=0.059375000000000004
EXTRACT: control_change channel=2 control=64 value=127 time=0.004687500000000001
EXTRACT: note_off channel=9 note=51 velocity=64 time=0.003125
EXTRACT: note_off channel=2 note=58 velocity=64 time=0.037500000000000006
EXTRACT: note_off channel=7 note=56 velocity=64 time=0.1875
EXTRACT: note_on channel=2 note=58 velocity=78 time=0.009375000000000001
EXTRACT: note_on channel=3 note=80 velocity=92 time=0
EXTRACT: note_on channel=7 note=56 velocity=59 time=0
EXTRACT: note_on channel=9 note=51 velocity=67 time=0
EXTRACT: note_on channel=10 note=56 velocity=62 time=0
EXTRACT: note_off channel=3 note=79 velocity=64 time=0.015625
EXTRACT: note_off channel=10 note=58 velocity=64 time=0.015625
EXTRACT: note_off channel=10 note=56 velocity=64 time=0.0140625
EXTRACT: note_off channel=10 note=65 velocity=64 time=0.0078125
EXTRACT: note_off channel=10 note=62 velocity=64 time=0.00625
EXTRACT: note_off channel=1 note=32 velocity=64 time=0.040625
EXTRACT: note_off channel=9 note=51 velocity=64 time=0.00625
EXTRACT: note_off channel=7 note=58 velocity=64 time=0.240625
EXTRACT: note_off channel=7 note=56 velocity=64 time=0.018750000000000003
EXTRACT: note_off channel=6 note=77 velocity=64 time=0.003125
EXTRACT: note_off channel=7 note=65 velocity=64 time=0
EXTRACT: note_on channel=1 note=31 velocity=103 time=0.00625
EXTRACT: note_on channel=2 note=62 velocity=74 time=0
EXTRACT: note_on channel=3 note=82 velocity=90 time=0
EXTRACT: note_on channel=6 note=70 velocity=58 time=0
EXTRACT: note_on channel=7 note=55 velocity=58 time=0
EXTRACT: note_on channel=7 note=58 velocity=59 time=0
EXTRACT: note_on channel=7 note=62 velocity=58 time=0
EXTRACT: note_on channel=7 note=65 velocity=58 time=0
EXTRACT: note_on channel=9 note=35 velocity=119 time=0
EXTRACT: note_on channel=9 note=51 velocity=78 time=0
EXTRACT: note_on channel=10 note=55 velocity=80 time=0
EXTRACT: note_on channel=10 note=58 velocity=72 time=0
EXTRACT: note_on channel=10 note=62 velocity=81 time=0
EXTRACT: note_on channel=10 note=65 velocity=72 time=0
EXTRACT: control_change channel=10 control=64 value=0 time=0.0078125
EXTRACT: note_off channel=3 note=80 velocity=64 time=0.003125
EXTRACT: control_change channel=2 control=64 value=0 time=0.0328125
EXTRACT: note_off channel=9 note=35 velocity=64 time=0.06875
EXTRACT: note_off channel=9 note=51 velocity=64 time=0.0125
EXTRACT: control_change channel=2 control=64 value=127 time=0.11406250000000001
EXTRACT: control_change channel=10 control=64 value=127 time=0.03125
EXTRACT: note_on channel=2 note=58 velocity=79 time=0.1046875
EXTRACT: note_on channel=9 note=51 velocity=71 time=0
EXTRACT: note_off channel=2 note=62 velocity=64 time=0.0140625
EXTRACT: note_off channel=10 note=65 velocity=64 time=0.0390625
EXTRACT: note_off channel=9 note=51 velocity=64 time=0.05
EXTRACT: note_off channel=10 note=62 velocity=64 time=0.015625
EXTRACT: note_off channel=10 note=58 velocity=64 time=0.015625
EXTRACT: note_off channel=10 note=55 velocity=64 time=0.004687500000000001
EXTRACT: note_off channel=2 note=58 velocity=64 time=0.010937500000000001
EXTRACT: note_off channel=14 note=82 velocity=64 time=0.21875
EXTRACT: note_on channel=2 note=55 velocity=83 time=0.00625
EXTRACT: note_on channel=3 note=75 velocity=88 time=0
EXTRACT: note_on channel=9 note=38 velocity=102 time=0
EXTRACT: note_on channel=9 note=51 velocity=94 time=0
EXTRACT: note_on channel=14 note=79 velocity=75 time=0
EXTRACT: note_off channel=3 note=82 velocity=64 time=0.0140625
EXTRACT: control_change channel=2 control=64 value=0 time=0
EXTRACT: note_off channel=9 note=38 velocity=64 time=0.109375
EXTRACT: note_off channel=9 note=51 velocity=64 time=0.0140625
EXTRACT: control_change channel=2 control=64 value=127 time=0.0734375
EXTRACT: note_off channel=3 note=75 velocity=64 time=0.14375000000000002
EXTRACT: note_off channel=6 note=70 velocity=64 time=0.0140625
EXTRACT: note_on channel=3 note=77 velocity=90 time=0.00625
EXTRACT: note_on channel=6 note=71 velocity=58 time=0
EXTRACT: note_on channel=9 note=51 velocity=73 time=0
EXTRACT: control_change channel=2 control=64 value=0 time=0.034375
EXTRACT: note_off channel=2 note=58 velocity=64 time=0.021875000000000002
EXTRACT: note_off channel=9 note=51 velocity=64 time=0.06406250000000001
EXTRACT: note_off channel=2 note=65 velocity=64 time=0.0140625
EXTRACT: note_off channel=1 note=31 velocity=64 time=0.109375
EXTRACT: note_off channel=2 note=55 velocity=64 time=0.09843750000000001
EXTRACT: note_off channel=7 note=62 velocity=64 time=0.0234375
EXTRACT: note_off channel=7 note=55 velocity=64 time=0
EXTRACT: note_off channel=7 note=58 velocity=64 time=0
EXTRACT: note_off channel=7 note=65 velocity=64 time=0
EXTRACT: note_off channel=14 note=79 velocity=64 time=0.003125
EXTRACT: note_on channel=1 note=31 velocity=102 time=0
EXTRACT: note_on channel=7 note=53 velocity=58 time=0
EXTRACT: note_on channel=7 note=55 velocity=59 time=0
EXTRACT: note_on channel=7 note=59 velocity=58 time=0
EXTRACT: note_on channel=7 note=62 velocity=58 time=0
EXTRACT: note_on channel=9 note=35 velocity=119 time=0
EXTRACT: note_on channel=9 note=51 velocity=83 time=0
EXTRACT: note_on channel=10 note=53 velocity=77 time=0
EXTRACT: note_on channel=10 note=55 velocity=80 time=0
EXTRACT: note_on channel=10 note=59 velocity=74 time=0
EXTRACT: note_on channel=10 note=62 velocity=80 time=0
EXTRACT: control_change channel=10 control=64 value=0 time=0.0171875
EXTRACT: note_on channel=14 note=91 velocity=71 time=0.00625
EXTRACT: note_off channel=9 note=35 velocity=64 time=0.0578125
EXTRACT: note_off channel=9 note=51 velocity=64 time=0.07187500000000001
EXTRACT: note_on channel=2 note=59 velocity=84 time=0.22187500000000002
EXTRACT: note_on channel=9 note=51 velocity=69 time=0
EXTRACT: note_off channel=9 note=51 velocity=64 time=0.11406250000000001
EXTRACT: note_on channel=9 note=38 velocity=80 time=0.10625000000000001
EXTRACT: note_off channel=9 note=38 velocity=64 time=0.07500000000000001
EXTRACT: note_off channel=1 note=31 velocity=64 time=0.0328125
EXTRACT: note_on channel=1 note=43 velocity=103 time=0.0421875
EXTRACT: note_on channel=2 note=67 velocity=85 time=0
EXTRACT: note_on channel=9 note=38 velocity=102 time=0
EXTRACT: note_off channel=9 note=38 velocity=64 time=0.1328125
EXTRACT: note_off channel=2 note=59 velocity=64 time=0.0484375
EXTRACT: note_on channel=9 note=38 velocity=104 time=0.0421875
EXTRACT: note_off channel=9 note=38 velocity=64 time=0.0578125
EXTRACT: note_off channel=3 note=77 velocity=64 time=0.0703125
EXTRACT: note_on channel=3 note=75 velocity=91 time=0.00625
EXTRACT: note_on channel=2 note=59 velocity=74 time=0.0171875
EXTRACT: note_on channel=9 note=38 velocity=105 time=0
EXTRACT: note_off channel=9 note=38 velocity=64 time=0.05625
EXTRACT: note_off channel=1 note=43 velocity=64 time=0.20625000000000002
EXTRACT: note_off channel=3 note=75 velocity=64 time=0.0390625
EXTRACT: note_off channel=2 note=67 velocity=64 time=0.037500000000000006
EXTRACT: note_off channel=10 note=53 velocity=64 time=0.018750000000000003
EXTRACT: note_off channel=10 note=55 velocity=64 time=0.0015625
EXTRACT: note_off channel=7 note=53 velocity=64 time=0.00625
EXTRACT: note_off channel=7 note=55 velocity=64 time=0
EXTRACT: note_off channel=7 note=59 velocity=64 time=0
EXTRACT: note_off channel=6 note=71 velocity=64 time=0.003125
EXTRACT: note_off channel=10 note=59 velocity=64 time=0
EXTRACT: note_off channel=14 note=91 velocity=64 time=0
EXTRACT: note_off channel=2 note=59 velocity=64 time=0
EXTRACT: note_on channel=1 note=32 velocity=103 time=0
EXTRACT: note_on channel=3 note=82 velocity=89 time=0
EXTRACT: note_on channel=6 note=82 velocity=59 time=0
EXTRACT: note_on channel=7 note=56 velocity=58 time=0
EXTRACT: note_on channel=7 note=60 velocity=58 time=0
EXTRACT: note_on channel=7 note=63 velocity=58 time=0
EXTRACT: note_on channel=7 note=67 velocity=59 time=0
EXTRACT: note_on channel=9 note=35 velocity=118 time=0
EXTRACT: note_on channel=9 note=51 velocity=79 time=0
EXTRACT: note_on channel=9 note=57 velocity=82 time=0
EXTRACT: note_on channel=10 note=56 velocity=54 time=0
EXTRACT: note_on channel=10 note=60 velocity=78 time=0
EXTRACT: note_on channel=10 note=63 velocity=54 time=0
EXTRACT: note_on channel=10 note=67 velocity=82 time=0
EXTRACT: note_on channel=14 note=82 velocity=74 time=0
EXTRACT: note_off channel=7 note=62 velocity=64 time=0.003125
EXTRACT: note_off channel=10 note=62 velocity=64 time=0
EXTRACT: note_off channel=9 note=35 velocity=64 time=0.109375
EXTRACT: note_off channel=9 note=51 velocity=64 time=0.0125
EXTRACT: note_off channel=9 note=57 velocity=64 time=0.028125
EXTRACT: note_off channel=3 note=82 velocity=64 time=0.0890625
EXTRACT: note_on channel=2 note=60 velocity=79 time=0.1328125
EXTRACT: note_on channel=3 note=82 velocity=88 time=0
EXTRACT: note_on channel=9 note=51 velocity=70 time=0
EXTRACT: note_off channel=9 note=51 velocity=64 time=0.10312500000000001
EXTRACT: note_off channel=3 note=82 velocity=64 time=0.184375
EXTRACT: note_on channel=2 note=67 velocity=80 time=0.08750000000000001
EXTRACT: note_on channel=3 note=82 velocity=88 time=0
EXTRACT: note_on channel=6 note=72 velocity=58 time=0
EXTRACT: note_on channel=9 note=38 velocity=102 time=0
EXTRACT: note_on channel=9 note=51 velocity=94 time=0
EXTRACT: control_change channel=10 control=64 value=127 time=0.010937500000000001
EXTRACT: note_off channel=9 note=38 velocity=64 time=0.1125
EXTRACT: note_off channel=9 note=51 velocity=64 time=0.0140625
EXTRACT: note_off channel=10 note=60 velocity=64 time=0.06406250000000001
EXTRACT: note_off channel=10 note=56 velocity=64 time=0.0078125
EXTRACT: note_off channel=10 note=67 velocity=64 time=0.003125
EXTRACT: note_off channel=10 note=63 velocity=64 time=0.004687500000000001
EXTRACT: note_off channel=2 note=60 velocity=64 time=0.065625
EXTRACT: note_off channel=3 note=82 velocity=64 time=0.003125
EXTRACT: note_on channel=2 note=60 velocity=78 time=0.0890625
EXTRACT: note_on channel=3 note=82 velocity=92 time=0
EXTRACT: note_on channel=9 note=51 velocity=72 time=0
EXTRACT: note_off channel=9 note=51 velocity=64 time=0.1203125
EXTRACT: note_off channel=1 note=32 velocity=64 time=0.1234375
EXTRACT: note_off channel=2 note=67 velocity=64 time=0.08750000000000001
EXTRACT: note_off channel=3 note=82 velocity=64 time=0.018750000000000003
EXTRACT: control_change channel=10 control=64 value=0 time=0.0078125
EXTRACT: note_off channel=7 note=56 velocity=64 time=0.0078125
EXTRACT: note_off channel=7 note=60 velocity=64 time=0
EXTRACT: note_off channel=7 note=63 velocity=64 time=0
EXTRACT: note_off channel=7 note=67 velocity=64 time=0
EXTRACT: note_off channel=6 note=72 velocity=64 time=0.003125
EXTRACT: note_on channel=3 note=79 velocity=92 time=0.0015625
EXTRACT: note_on channel=1 note=31 velocity=102 time=0.004687500000000001
EXTRACT: note_on channel=2 note=62 velocity=79 time=0
EXTRACT: note_on channel=6 note=74 velocity=59 time=0
EXTRACT: note_on channel=7 note=55 velocity=58 time=0
EXTRACT: note_on channel=7 note=58 velocity=58 time=0
EXTRACT: note_on channel=7 note=62 velocity=58 time=0
EXTRACT: note_on channel=7 note=65 velocity=58 time=0
EXTRACT: note_on channel=9 note=35 velocity=119 time=0
EXTRACT: note_on channel=9 note=51 velocity=83 time=0
EXTRACT: note_on channel=10 note=55 velocity=76 time=0
EXTRACT: note_on channel=10 note=58 velocity=68 time=0
EXTRACT: note_on channel=10 note=62 velocity=82 time=0
EXTRACT: note_on channel=10 note=65 velocity=81 time=0
EXTRACT: note_off channel=9 note=35 velocity=64 time=0.08125
EXTRACT: note_off channel=9 note=51 velocity=64 time=0.07187500000000001
EXTRACT: control_change channel=10 control=64 value=127 time=0.025
EXTRACT: note_off channel=10 note=65 velocity=64 time=0.12812500000000002
EXTRACT: note_off channel=10 note=55 velocity=64 time=0.035937500000000004
EXTRACT: note_off channel=3 note=79 velocity=64 time=0.003125
EXTRACT: note_off channel=10 note=58 velocity=64 time=0.004687500000000001
EXTRACT: note_off channel=10 note=62 velocity=64 time=0.004687500000000001
EXTRACT: note_on channel=9 note=51 velocity=68 time=0.0203125
EXTRACT: note_off channel=9 note=51 velocity=64 time=0.09531250000000001
EXTRACT: note_off channel=1 note=31 velocity=64 time=0.1296875
EXTRACT: note_off channel=7 note=55 velocity=64 time=0.12187500000000001
EXTRACT: note_off channel=7 note=58 velocity=64 time=0
EXTRACT: note_off channel=7 note=62 velocity=64 time=0
EXTRACT: note_off channel=7 note=65 velocity=64 time=0
EXTRACT: note_off channel=6 note=74 velocity=64 time=0.003125
EXTRACT: note_on channel=1 note=36 velocity=103 time=0.00625
EXTRACT: note_on channel=2 note=63 velocity=76 time=0
EXTRACT: note_on channel=3 note=75 velocity=88 time=0
EXTRACT: note_on channel=6 note=75 velocity=59 time=0
EXTRACT: note_on channel=7 note=55 velocity=59 time=0
EXTRACT: note_on channel=7 note=60 velocity=58 time=0
EXTRACT: note_on channel=7 note=63 velocity=58 time=0
EXTRACT: note_on channel=9 note=38 velocity=103 time=0
EXTRACT: note_on channel=9 note=51 velocity=90 time=0
EXTRACT: note_on channel=10 note=55 velocity=76 time=0
EXTRACT: note_on channel=10 note=60 velocity=74 time=0
EXTRACT: note_on channel=10 note=63 velocity=74 time=0
EXTRACT: control_change channel=10 control=64 value=0 time=0.021875000000000002
EXTRACT: note_off channel=9 note=38 velocity=64 time=0.11093750000000001
EXTRACT: note_off channel=9 note=51 velocity=64 time=0.0078125
EXTRACT: control_change channel=10 control=64 value=127 time=0.0765625
EXTRACT: note_off channel=3 note=75 velocity=64 time=0.07968750000000001
EXTRACT: note_off channel=10 note=55 velocity=64 time=0.0015625
EXTRACT: note_off channel=10 note=60 velocity=64 time=0.0015625
EXTRACT: note_off channel=10 note=63 velocity=64 time=0.015625
EXTRACT: note_on channel=3 note=75 velocity=92 time=0.059375000000000004
EXTRACT: note_on channel=9 note=51 velocity=67 time=0
EXTRACT: note_off channel=9 note=51 velocity=64 time=0.10625000000000001
EXTRACT: note_off channel=1 note=36 velocity=64 time=0.23593750000000002
EXTRACT: note_off channel=2 note=63 velocity=64 time=0.0125
EXTRACT: note_off channel=7 note=55 velocity=64 time=0.010937500000000001
EXTRACT: note_off channel=7 note=60 velocity=64 time=0
EXTRACT: note_off channel=7 note=63 velocity=64 time=0
EXTRACT: note_off channel=2 note=62 velocity=64 time=0.0015625
EXTRACT: note_off channel=6 note=75 velocity=64 time=0.0015625
EXTRACT: note_on channel=1 note=29 velocity=103 time=0.00625
EXTRACT: note_on channel=3 note=82 velocity=90 time=0
EXTRACT: note_on channel=6 note=72 velocity=58 time=0
EXTRACT: note_on channel=7 note=53 velocity=58 time=0
EXTRACT: note_on channel=7 note=56 velocity=58 time=0
EXTRACT: note_on channel=7 note=60 velocity=58 time=0
EXTRACT: note_on channel=7 note=63 velocity=58 time=0
EXTRACT: note_on channel=9 note=35 velocity=118 time=0
EXTRACT: note_on channel=9 note=51 velocity=78 time=0
EXTRACT: note_on channel=10 note=53 velocity=67 time=0
EXTRACT: note_on channel=10 note=56 velocity=68 time=0
EXTRACT: note_on channel=10 note=60 velocity=79 time=0
EXTRACT: note_on channel=10 note=63 velocity=67 time=0
EXTRACT: note_off channel=3 note=75 velocity=64 time=0.0078125
EXTRACT: note_off channel=2 note=60 velocity=64 time=0.003125
EXTRACT: control_change channel=10 control=64 value=0 time=0.045312500000000006
EXTRACT: note_off channel=9 note=35 velocity=64 time=0.05625
EXTRACT: note_off channel=9 note=51 velocity=64 time=0.0125
EXTRACT: note_off channel=3 note=82 velocity=64 time=0.2234375
EXTRACT: note_on channel=2 note=60 velocity=82 time=0.026562500000000003
EXTRACT: note_on channel=3 note=82 velocity=88 time=0
EXTRACT: note_on channel=9 note=51 velocity=71 time=0
EXTRACT: note_off channel=9 note=51 velocity=64 time=0.10312500000000001
EXTRACT: note_off channel=3 note=82 velocity=64 time=0.2078125
EXTRACT: note_on channel=2 note=67 velocity=84 time=0.06406250000000001
EXTRACT: note_on channel=3 note=82 velocity=90 time=0
EXTRACT: note_on channel=9 note=38 velocity=102 time=0
EXTRACT: note_on channel=9 note=51 velocity=94 time=0
EXTRACT: control_change channel=10 control=64 value=127 time=0.09375
EXTRACT: note_off channel=9 note=38 velocity=64 time=0.029687500000000002
EXTRACT: note_off channel=9 note=51 velocity=64 time=0.0140625
EXTRACT: note_off channel=2 note=60 velocity=64 time=0.07968750000000001
EXTRACT: note_off channel=10 note=53 velocity=64 time=0.021875000000000002
EXTRACT: note_off channel=10 note=56 velocity=64 time=0.029687500000000002
EXTRACT: note_off channel=10 note=60 velocity=64 time=0.0234375
EXTRACT: note_off channel=10 note=63 velocity=64 time=0.0015625
EXTRACT: note_off channel=3 note=82 velocity=64 time=0.0703125
EXTRACT: note_on channel=2 note=60 velocity=78 time=0.010937500000000001
EXTRACT: note_on channel=3 note=84 velocity=89 time=0
EXTRACT: note_on channel=9 note=51 velocity=72 time=0
EXTRACT: note_off channel=9 note=51 velocity=64 time=0.1203125
EXTRACT: note_off channel=1 note=29 velocity=64 time=0.146875
EXTRACT: note_off channel=3 note=84 velocity=64 time=0.09062500000000001
EXTRACT: note_off channel=7 note=53 velocity=64 time=0.0078125
EXTRACT: note_off channel=7 note=56 velocity=64 time=0
EXTRACT: note_off channel=7 note=60 velocity=64 time=0
EXTRACT: note_off channel=7 note=63 velocity=64 time=0
EXTRACT: note_on channel=1 note=32 velocity=102 time=0.009375000000000001
EXTRACT: note_on channel=2 note=63 velocity=81 time=0
EXTRACT: note_on channel=3 note=79 velocity=92 time=0
EXTRACT: note_on channel=7 note=56 velocity=59 time=0
EXTRACT: note_on channel=7 note=60 velocity=58 time=0
EXTRACT: note_on channel=7 note=63 velocity=59 time=0
EXTRACT: note_on channel=9 note=35 velocity=119 time=0
EXTRACT: note_on channel=9 note=51 velocity=82 time=0
EXTRACT: note_on channel=10 note=56 velocity=59 time=0
EXTRACT: note_on channel=10 note=60 velocity=81 time=0
EXTRACT: note_on channel=10 note=63 velocity=60 time=0
EXTRACT: control_change channel=10 control=64 value=0 time=0
EXTRACT: note_off channel=9 note=35 velocity=64 time=0.08125
EXTRACT: note_off channel=2 note=67 velocity=64 time=0.0171875
EXTRACT: note_off channel=9 note=51 velocity=64 time=0.0546875
EXTRACT: note_off channel=2 note=60 velocity=64 time=0.0765625
EXTRACT: note_off channel=3 note=79 velocity=64 time=0.1203125
EXTRACT: note_on channel=2 note=60 velocity=79 time=0.025
EXTRACT: note_on channel=9 note=35 velocity=119 time=0
EXTRACT: note_on channel=9 note=51 velocity=68 time=0
EXTRACT: note_off channel=9 note=35 velocity=64 time=0.08125
EXTRACT: note_off channel=9 note=51 velocity=64 time=0.0203125
EXTRACT: note_on channel=2 note=67 velocity=82 time=0.2609375
EXTRACT: note_on channel=9 note=38 velocity=102 time=0
EXTRACT: note_on channel=9 note=51 velocity=90 time=0
EXTRACT: note_on channel=3 note=79 velocity=88 time=0.0171875
EXTRACT: note_off channel=9 note=38 velocity=64 time=0.115625
EXTRACT: note_off channel=9 note=51 velocity=64 time=0.0078125
EXTRACT: note_off channel=2 note=60 velocity=64 time=0.05
EXTRACT: note_on channel=2 note=60 velocity=82 time=0.184375
EXTRACT: note_on channel=9 note=51 velocity=66 time=0
EXTRACT: note_off channel=3 note=79 velocity=64 time=0.003125
EXTRACT: note_on channel=3 note=80 velocity=92 time=0
EXTRACT: note_off channel=9 note=51 velocity=64 time=0.10312500000000001
EXTRACT: note_off channel=1 note=32 velocity=64 time=0.22187500000000002
EXTRACT: note_off channel=10 note=56 velocity=64 time=0
EXTRACT: note_off channel=2 note=60 velocity=64 time=0.03125
EXTRACT: note_off channel=7 note=56 velocity=64 time=0.00625
EXTRACT: note_off channel=6 note=82 velocity=64 time=0.003125
EXTRACT: note_off channel=6 note=72 velocity=64 time=0
EXTRACT: note_off channel=2 note=67 velocity=64 time=0.0015625
EXTRACT: note_on channel=1 note=32 velocity=103 time=0.004687500000000001
EXTRACT: note_on channel=3 note=79 velocity=92 time=0
EXTRACT: note_on channel=6 note=70 velocity=59 time=0
EXTRACT: note_on channel=7 note=56 velocity=59 time=0
EXTRACT: note_on channel=7 note=58 velocity=59 time=0
EXTRACT: note_on channel=7 note=62 velocity=59 time=0
EXTRACT: note_on channel=7 note=65 velocity=58 time=0
EXTRACT: note_on channel=9 note=35 velocity=118 time=0
EXTRACT: note_on channel=9 note=51 velocity=78 time=0
EXTRACT: note_on channel=10 note=56 velocity=58 time=0
EXTRACT: note_on channel=10 note=58 velocity=75 time=0
EXTRACT: note_on channel=10 note=62 velocity=82 time=0
EXTRACT: note_on channel=10 note=65 velocity=73 time=0
EXTRACT: note_off channel=7 note=63 velocity=64 time=0.0015625
EXTRACT: note_off channel=10 note=63 velocity=64 time=0
EXTRACT: note_off channel=7 note=60 velocity=64 time=0.0078125
EXTRACT: note_off channel=10 note=60 velocity=64 time=0
EXTRACT: note_off channel=3 note=80 velocity=64 time=0.0015625
EXTRACT: note_off channel=2 note=63 velocity=64 time=0.0078125
EXTRACT: note_off channel=9 note=35 velocity=64 time=0.09375
EXTRACT: note_off channel=9 note=51 velocity=64 time=0.0125
EXTRACT: note_on channel=2 note=58 velocity=76 time=0.25
EXTRACT: note_on channel=9 note=51 velocity=70 time=0
EXTRACT: control_change channel=10 control=64 value=127 time=0.0859375
EXTRACT: note_off channel=9 note=51 velocity=64 time=0.0171875
EXTRACT: note_on channel=3 note=75 velocity=91 time=0.265625
EXTRACT: note_off channel=3 note=79 velocity=64 time=0.00625
EXTRACT: note_on channel=2 note=65 velocity=78 time=0
EXTRACT: note_on channel=9 note=38 velocity=102 time=0
EXTRACT: note_on channel=9 note=51 velocity=94 time=0
EXTRACT: note_off channel=10 note=56 velocity=64 time=0.0734375
EXTRACT: note_off channel=9 note=38 velocity=64 time=0.05
EXTRACT: note_off channel=9 note=51 velocity=64 time=0.0140625
EXTRACT: note_off channel=2 note=58 velocity=64 time=0.040625
EXTRACT: note_off channel=3 note=75 velocity=64 time=0.18281250000000002
EXTRACT: note_off channel=7 note=56 velocity=64 time=0.004687500000000001
EXTRACT: note_on channel=3 note=77 velocity=88 time=0.0078125
EXTRACT: note_on channel=2 note=58 velocity=78 time=0.0015625
EXTRACT: note_on channel=7 note=56 velocity=58 time=0
EXTRACT: note_on channel=9 note=51 velocity=73 time=0
EXTRACT: note_on channel=10 note=56 velocity=62 time=0
EXTRACT: note_off channel=10 note=58 velocity=64 time=0.03125
EXTRACT: note_off channel=10 note=56 velocity=64 time=0.0140625
EXTRACT: note_off channel=10 note=65 velocity=64 time=0.0078125
EXTRACT: note_off channel=10 note=62 velocity=64 time=0.00625
EXTRACT: note_off channel=9 note=51 velocity=64 time=0.060937500000000006
EXTRACT: note_off channel=1 note=32 velocity=64 time=0.1234375
EXTRACT: note_off channel=7 note=56 velocity=64 time=0.12187500000000001
EXTRACT: note_off channel=14 note=82 velocity=64 time=0.003125
EXTRACT: note_off channel=6 note=70 velocity=64 time=0
EXTRACT: note_off channel=7 note=58 velocity=64 time=0
EXTRACT: note_on channel=1 note=31 velocity=103 time=0.00625
EXTRACT: note_on channel=2 note=62 velocity=74 time=0
EXTRACT: note_on channel=6 note=91 velocity=59 time=0
EXTRACT: note_on channel=7 note=55 velocity=58 time=0
EXTRACT: note_on channel=7 note=59 velocity=58 time=0
EXTRACT: note_on channel=7 note=62 velocity=59 time=0
EXTRACT: note_on channel=7 note=65 velocity=59 time=0
EXTRACT: note_on channel=9 note=35 velocity=118 time=0
EXTRACT: note_on channel=9 note=51 velocity=82 time=0
EXTRACT: note_on channel=10 note=55 velocity=81 time=0
EXTRACT: note_on channel=10 note=59 velocity=73 time=0
EXTRACT: note_on channel=10 note=62 velocity=81 time=0
EXTRACT: note_on channel=10 note=65 velocity=73 time=0
EXTRACT: note_on channel=14 note=83 velocity=74 time=0
EXTRACT: control_change channel=10 control=64 value=0 time=0.0078125
EXTRACT: note_off channel=7 note=65 velocity=64 time=0.0078125
EXTRACT: note_off channel=7 note=62 velocity=64 time=0.0078125
EXTRACT: note_off channel=9 note=35 velocity=64 time=0.0578125
EXTRACT: note_off channel=9 note=51 velocity=64 time=0.07187500000000001
EXTRACT: note_on channel=9 note=38 velocity=80 time=0.08125
EXTRACT: control_change channel=10 control=64 value=127 time=0.035937500000000004
EXTRACT: note_off channel=1 note=31 velocity=64 time=0.034375
EXTRACT: note_off channel=9 note=38 velocity=64 time=0.009375000000000001
EXTRACT: note_off channel=2 note=58 velocity=64 time=0.0546875
EXTRACT: note_on channel=1 note=31 velocity=102 time=0.00625
EXTRACT: note_on channel=2 note=59 velocity=78 time=0
EXTRACT: note_off channel=2 note=62 velocity=64 time=0.0140625
EXTRACT: note_off channel=10 note=65 velocity=64 time=0.0390625
EXTRACT: note_off channel=10 note=62 velocity=64 time=0.065625
EXTRACT: note_off channel=10 note=59 velocity=64 time=0.015625
EXTRACT: note_off channel=10 note=55 velocity=64 time=0.004687500000000001
EXTRACT: note_on channel=9 note=38 velocity=104 time=0.09531250000000001
EXTRACT: note_off channel=9 note=38 velocity=64 time=0.05625
EXTRACT: note_off channel=1 note=31 velocity=64 time=0.0140625
EXTRACT: note_off channel=6 note=91 velocity=64 time=0.06406250000000001
EXTRACT: note_off channel=14 note=83 velocity=64 time=0
EXTRACT: note_on channel=1 note=31 velocity=102 time=0.00625
EXTRACT: note_on channel=2 note=55 velocity=82 time=0
EXTRACT: note_on channel=6 note=79 velocity=58 time=0
EXTRACT: note_on channel=9 note=38 velocity=105 time=0
EXTRACT: note_on channel=14 note=79 velocity=75 time=0
EXTRACT: note_off channel=9 note=38 velocity=64 time=0.05625
EXTRACT: note_off channel=3 note=77 velocity=64 time=0.1015625
EXTRACT: note_on channel=9 note=38 velocity=102 time=0.029687500000000002
EXTRACT: note_off channel=9 note=38 velocity=64 time=0.1328125
EXTRACT: note_off channel=2 note=59 velocity=64 time=0.11093750000000001
EXTRACT: note_on channel=6 note=77 velocity=55 time=0.06875
EXTRACT: note_off channel=2 note=65 velocity=64 time=0.009375000000000001
EXTRACT: note_on channel=6 note=75 velocity=57 time=0.0484375
EXTRACT: note_off channel=6 note=77 velocity=64 time=0.0421875
EXTRACT: note_on channel=6 note=74 velocity=64 time=0.07500000000000001
EXTRACT: note_off channel=6 note=75 velocity=64 time=0.003125
EXTRACT: note_off channel=1 note=31 velocity=64 time=0.0390625
EXTRACT: note_off channel=2 note=55 velocity=64 time=0
EXTRACT: note_off channel=7 note=62 velocity=64 time=0.0234375
EXTRACT: note_off channel=7 note=65 velocity=64 time=0
EXTRACT: note_off channel=7 note=55 velocity=64 time=0
EXTRACT: note_off channel=7 note=59 velocity=64 time=0
EXTRACT: note_off channel=14 note=79 velocity=64 time=0.003125
EXTRACT: note_on channel=1 note=32 velocity=103 time=0.00625
EXTRACT: note_on channel=3 note=82 velocity=89 time=0
EXTRACT: note_on channel=6 note=72 velocity=58 time=0
EXTRACT: note_on channel=7 note=56 velocity=59 time=0
EXTRACT: note_on channel=7 note=60 velocity=59 time=0
EXTRACT: note_on channel=7 note=63 velocity=59 time=0
EXTRACT: note_on channel=7 note=67 velocity=59 time=0
EXTRACT: note_on channel=9 note=35 velocity=119 time=0
EXTRACT: note_on channel=9 note=51 velocity=78 time=0
EXTRACT: note_on channel=9 note=57 velocity=83 time=0
EXTRACT: note_on channel=10 note=56 velocity=54 time=0
EXTRACT: note_on channel=10 note=60 velocity=79 time=0
EXTRACT: note_on channel=10 note=63 velocity=54 time=0
EXTRACT: note_on channel=10 note=67 velocity=82 time=0
EXTRACT: note_on channel=14 note=82 velocity=75 time=0
EXTRACT: note_off channel=6 note=74 velocity=64 time=0.009375000000000001
EXTRACT: note_off channel=9 note=35 velocity=64 time=0.10312500000000001
EXTRACT: note_off channel=9 note=51 velocity=64 time=0.0125
EXTRACT: note_off channel=9 note=57 velocity=64 time=0.028125
EXTRACT: note_off channel=3 note=82 velocity=64 time=0.0890625
EXTRACT: note_on channel=2 note=60 velocity=78 time=0.1328125
EXTRACT: note_on channel=3 note=82 velocity=89 time=0
EXTRACT: note_on channel=9 note=51 velocity=71 time=0
EXTRACT: note_off channel=9 note=51 velocity=64 time=0.10312500000000001
EXTRACT: note_off channel=1 note=32 velocity=64 time=0.140625
EXTRACT: note_off channel=3 note=82 velocity=64 time=0.043750000000000004
EXTRACT: note_on channel=1 note=44 velocity=103 time=0.08750000000000001
EXTRACT: note_on channel=2 note=67 velocity=81 time=0
EXTRACT: note_on channel=3 note=82 velocity=88 time=0
EXTRACT: note_on channel=9 note=38 velocity=93 time=0
EXTRACT: note_on channel=9 note=51 velocity=94 time=0
EXTRACT: control_change channel=10 control=64 value=127 time=0.010937500000000001
EXTRACT: note_off channel=9 note=38 velocity=64 time=0.1125
EXTRACT: note_off channel=9 note=51 velocity=64 time=0.0140625
EXTRACT: note_off channel=10 note=60 velocity=64 time=0.06406250000000001
EXTRACT: note_off channel=10 note=56 velocity=64 time=0.0078125
EXTRACT: note_off channel=10 note=67 velocity=64 time=0.003125
EXTRACT: note_off channel=10 note=63 velocity=64 time=0.004687500000000001
EXTRACT: note_off channel=2 note=60 velocity=64 time=0.065625
EXTRACT: note_off channel=3 note=82 velocity=64 time=0.003125
EXTRACT: note_on channel=2 note=60 velocity=78 time=0.0890625
EXTRACT: note_on channel=3 note=82 velocity=93 time=0
EXTRACT: note_on channel=9 note=51 velocity=73 time=0
EXTRACT: note_off channel=9 note=51 velocity=64 time=0.1203125
EXTRACT: note_off channel=1 note=44 velocity=64 time=0.1234375
EXTRACT: note_off channel=2 note=67 velocity=64 time=0.08750000000000001
EXTRACT: control_change channel=10 control=64 value=0 time=0.026562500000000003
EXTRACT: note_off channel=7 note=56 velocity=64 time=0.0078125
EXTRACT: note_off channel=7 note=60 velocity=64 time=0
EXTRACT: note_off channel=7 note=63 velocity=64 time=0
EXTRACT: note_off channel=7 note=67 velocity=64 time=0
EXTRACT: note_off channel=6 note=79 velocity=64 time=0.003125
EXTRACT: note_off channel=6 note=72 velocity=64 time=0
EXTRACT: note_on channel=1 note=31 velocity=103 time=0.00625
EXTRACT: note_on channel=2 note=62 velocity=78 time=0
EXTRACT: note_on channel=6 note=74 velocity=59 time=0
EXTRACT: note_on channel=6 note=80 velocity=59 time=0
EXTRACT: note_on channel=7 note=55 velocity=58 time=0
EXTRACT: note_on channel=7 note=58 velocity=58 time=0
EXTRACT: note_on channel=7 note=62 velocity=58 time=0
EXTRACT: note_on channel=7 note=65 velocity=59 time=0
EXTRACT: note_on channel=9 note=35 velocity=119 time=0
EXTRACT: note_on channel=9 note=51 velocity=82 time=0
EXTRACT: note_on channel=10 note=55 velocity=76 time=0
EXTRACT: note_on channel=10 note=58 velocity=68 time=0
EXTRACT: note_on channel=10 note=62 velocity=82 time=0
EXTRACT: note_on channel=10 note=65 velocity=81 time=0
EXTRACT: note_off channel=9 note=35 velocity=64 time=0.08125
EXTRACT: note_off channel=3 note=82 velocity=64 time=0.0421875
EXTRACT: note_off channel=9 note=51 velocity=64 time=0.029687500000000002
EXTRACT: control_change channel=10 control=64 value=127 time=0.009375000000000001
EXTRACT: note_off channel=10 note=65 velocity=64 time=0.12812500000000002
EXTRACT: note_off channel=10 note=55 velocity=64 time=0.035937500000000004
EXTRACT: note_off channel=10 note=58 velocity=64 time=0.0078125
EXTRACT: note_off channel=10 note=62 velocity=64 time=0.004687500000000001
EXTRACT: note_on channel=3 note=82 velocity=93 time=0.0203125
EXTRACT: note_on channel=9 note=35 velocity=118 time=0
EXTRACT: note_on channel=9 note=51 velocity=69 time=0
EXTRACT: note_off channel=9 note=35 velocity=64 time=0.08125
EXTRACT: note_off channel=9 note=51 velocity=64 time=0.0328125
EXTRACT: note_off channel=1 note=31 velocity=64 time=0.1296875
EXTRACT: note_off channel=3 note=82 velocity=64 time=0.10625000000000001
EXTRACT: note_off channel=7 note=55 velocity=64 time=0.015625
EXTRACT: note_off channel=7 note=58 velocity=64 time=0
EXTRACT: note_off channel=7 note=62 velocity=64 time=0
EXTRACT: note_off channel=7 note=65 velocity=64 time=0
EXTRACT: note_off channel=6 note=74 velocity=64 time=0.003125
EXTRACT: note_off channel=6 note=80 velocity=64 time=0
EXTRACT: note_on channel=1 note=36 velocity=103 time=0.00625
EXTRACT: note_on channel=2 note=63 velocity=76 time=0
EXTRACT: note_on channel=3 note=79 velocity=88 time=0
EXTRACT: note_on channel=6 note=75 velocity=59 time=0
EXTRACT: note_on channel=6 note=82 velocity=59 time=0
EXTRACT: note_on channel=7 note=55 velocity=58 time=0
EXTRACT: note_on channel=7 note=60 velocity=58 time=0
EXTRACT: note_on channel=7 note=63 velocity=59 time=0
EXTRACT: note_on channel=9 note=38 velocity=93 time=0
EXTRACT: note_on channel=9 note=51 velocity=91 time=0
EXTRACT: note_on channel=10 note=55 velocity=76 time=0
EXTRACT: note_on channel=10 note=60 velocity=74 time=0
EXTRACT: note_on channel=10 note=63 velocity=74 time=0
EXTRACT: control_change channel=10 control=64 value=0 time=0.021875000000000002
EXTRACT: note_off channel=9 note=38 velocity=64 time=0.11093750000000001
EXTRACT: note_off channel=9 note=51 velocity=64 time=0.0078125
EXTRACT: control_change channel=10 control=64 value=127 time=0.0765625
EXTRACT: note_off channel=10 note=55 velocity=64 time=0.08125
EXTRACT: note_off channel=10 note=60 velocity=64 time=0.0015625
EXTRACT: note_off channel=10 note=63 velocity=64 time=0.015625
EXTRACT: note_off channel=3 note=79 velocity=64 time=0.043750000000000004
EXTRACT: note_on channel=3 note=82 velocity=93 time=0.015625
EXTRACT: note_on channel=9 note=51 velocity=67 time=0
EXTRACT: note_off channel=9 note=51 velocity=64 time=0.10625000000000001
EXTRACT: note_off channel=1 note=36 velocity=64 time=0.1375
EXTRACT: note_off channel=2 note=63 velocity=64 time=0.11093750000000001
EXTRACT: note_off channel=7 note=55 velocity=64 time=0.010937500000000001
EXTRACT: note_off channel=7 note=60 velocity=64 time=0
EXTRACT: note_off channel=7 note=63 velocity=64 time=0
EXTRACT: note_off channel=2 note=62 velocity=64 time=0.0015625
EXTRACT: note_off channel=6 note=75 velocity=64 time=0.0015625
EXTRACT: note_off channel=6 note=82 velocity=64 time=0
EXTRACT: note_on channel=1 note=29 velocity=102 time=0.00625
EXTRACT: note_on channel=3 note=79 velocity=91 time=0
EXTRACT: note_on channel=6 note=72 velocity=58 time=0
EXTRACT: note_on channel=6 note=79 velocity=58 time=0
EXTRACT: note_on channel=7 note=53 velocity=58 time=0
EXTRACT: note_on channel=7 note=56 velocity=58 time=0
EXTRACT: note_on channel=7 note=60 velocity=58 time=0
EXTRACT: note_on channel=7 note=63 velocity=58 time=0
EXTRACT: note_on channel=9 note=35 velocity=118 time=0
EXTRACT: note_on channel=9 note=51 velocity=78 time=0
EXTRACT: note_on channel=10 note=53 velocity=67 time=0
EXTRACT: note_on channel=10 note=56 velocity=69 time=0
EXTRACT: note_on channel=10 note=60 velocity=79 time=0
EXTRACT: note_on channel=10 note=63 velocity=66 time=0
EXTRACT: note_off channel=3 note=82 velocity=64 time=0.0078125
EXTRACT: note_off channel=2 note=60 velocity=64 time=0.003125
EXTRACT: control_change channel=10 control=64 value=0 time=0.045312500000000006
EXTRACT: note_off channel=9 note=35 velocity=64 time=0.05625
EXTRACT: note_off channel=9 note=51 velocity=64 time=0.0125
EXTRACT: note_off channel=3 note=79 velocity=64 time=0.2234375
EXTRACT: note_on channel=2 note=60 velocity=82 time=0.026562500000000003
EXTRACT: note_on channel=3 note=82 velocity=88 time=0
EXTRACT: note_on channel=9 note=51 velocity=70 time=0
EXTRACT: note_off channel=9 note=51 velocity=64 time=0.10312500000000001
EXTRACT: note_off channel=3 note=82 velocity=64 time=0.26875
EXTRACT: note_on channel=2 note=67 velocity=85 time=0.003125
EXTRACT: note_on channel=3 note=79 velocity=90 time=0
EXTRACT: note_on channel=9 note=38 velocity=93 time=0
EXTRACT: note_on channel=9 note=51 velocity=95 time=0
EXTRACT: control_change channel=10 control=64 value=127 time=0.09375
EXTRACT: note_off channel=9 note=38 velocity=64 time=0.029687500000000002
EXTRACT: note_off channel=9 note=51 velocity=64 time=0.0140625
EXTRACT: note_off channel=2 note=60 velocity=64 time=0.07968750000000001
EXTRACT: note_off channel=10 note=53 velocity=64 time=0.021875000000000002
EXTRACT: note_off channel=10 note=56 velocity=64 time=0.029687500000000002
EXTRACT: note_off channel=10 note=60 velocity=64 time=0.0234375
EXTRACT: note_off channel=10 note=63 velocity=64 time=0.0015625
EXTRACT: note_off channel=3 note=79 velocity=64 time=0.0703125
EXTRACT: note_on channel=2 note=60 velocity=78 time=0.010937500000000001
EXTRACT: note_on channel=3 note=82 velocity=89 time=0
EXTRACT: note_on channel=9 note=51 velocity=72 time=0
EXTRACT: control_change channel=14 control=11 value=126 time=0.06875
EXTRACT: control_change channel=14 control=11 value=124 time=0.037500000000000006
EXTRACT: note_off channel=9 note=51 velocity=64 time=0.0140625
EXTRACT: control_change channel=14 control=11 value=124 time=0.040625
EXTRACT: control_change channel=14 control=11 value=122 time=0.037500000000000006
EXTRACT: control_change channel=14 control=11 value=122 time=0.037500000000000006
EXTRACT: control_change channel=14 control=11 value=121 time=0.037500000000000006
EXTRACT: note_off channel=1 note=29 velocity=64 time=0.0203125
EXTRACT: control_change channel=14 control=11 value=120 time=0.015625
EXTRACT: note_off channel=3 note=82 velocity=64 time=0.0484375
EXTRACT: control_change channel=14 control=11 value=118 time=0.00625
EXTRACT: note_off channel=7 note=53 velocity=64 time=0.0015625
EXTRACT: note_off channel=7 note=56 velocity=64 time=0
EXTRACT: note_off channel=7 note=60 velocity=64 time=0
EXTRACT: note_off channel=7 note=63 velocity=64 time=0
EXTRACT: note_off channel=6 note=79 velocity=64 time=0.003125
EXTRACT: note_on channel=1 note=32 velocity=102 time=0.00625
EXTRACT: note_on channel=2 note=63 velocity=81 time=0
EXTRACT: note_on channel=3 note=79 velocity=93 time=0
EXTRACT: note_on channel=6 note=75 velocity=58 time=0
EXTRACT: note_on channel=7 note=56 velocity=59 time=0
EXTRACT: note_on channel=7 note=60 velocity=59 time=0
EXTRACT: note_on channel=7 note=63 velocity=58 time=0
EXTRACT: note_on channel=9 note=35 velocity=118 time=0
EXTRACT: note_on channel=9 note=46 velocity=82 time=0
EXTRACT: note_on channel=10 note=56 velocity=59 time=0
EXTRACT: note_on channel=10 note=60 velocity=80 time=0
EXTRACT: note_on channel=10 note=63 velocity=60 time=0
EXTRACT: control_change channel=10 control=64 value=0 time=0
EXTRACT: control_change channel=14 control=11 value=118 time=0.045312500000000006
EXTRACT: note_off channel=9 note=35 velocity=64 time=0.035937500000000004
EXTRACT: note_off channel=2 note=67 velocity=64 time=0.0171875
EXTRACT: control_change channel=14 control=11 value=116 time=0.0015625
EXTRACT: note_off channel=9 note=46 velocity=64 time=0.053125000000000006
EXTRACT: control_change channel=14 control=11 value=117 time=0.003125
EXTRACT: control_change channel=14 control=11 value=114 time=0.05625
EXTRACT: note_off channel=2 note=60 velocity=64 time=0.0171875
EXTRACT: note_off channel=1 note=32 velocity=64 time=0.0140625
EXTRACT: control_change channel=14 control=11 value=115 time=0.00625
EXTRACT: control_change channel=14 control=11 value=113 time=0.034375
EXTRACT: control_change channel=14 control=11 value=112 time=0.018750000000000003
EXTRACT: note_off channel=3 note=79 velocity=64 time=0.046875
EXTRACT: control_change channel=14 control=11 value=111 time=0.009375000000000001
EXTRACT: note_on channel=1 note=32 velocity=102 time=0.015625
EXTRACT: note_on channel=2 note=60 velocity=79 time=0
EXTRACT: note_on channel=3 note=75 velocity=91 time=0
EXTRACT: note_on channel=9 note=35 velocity=118 time=0
EXTRACT: note_on channel=9 note=44 velocity=82 time=0
EXTRACT: note_on channel=9 note=51 velocity=68 time=0
EXTRACT: control_change channel=14 control=11 value=111 time=0.0390625
EXTRACT: control_change channel=14 control=11 value=108 time=0.037500000000000006
EXTRACT: note_off channel=9 note=35 velocity=64 time=0.004687500000000001
EXTRACT: note_off channel=9 note=51 velocity=64 time=0.0328125
EXTRACT: control_change channel=14 control=11 value=109 time=0
EXTRACT: note_off channel=9 note=44 velocity=64 time=0.0390625
EXTRACT: control_change channel=14 control=11 value=107 time=0.0140625
EXTRACT: control_change channel=14 control=11 value=106 time=0.05625
EXTRACT: control_change channel=14 control=11 value=104 time=0.037500000000000006
EXTRACT: control_change channel=14 control=11 value=105 time=0.035937500000000004
EXTRACT: control_change channel=14 control=11 value=103 time=0.0390625
EXTRACT: control_change channel=14 control=11 value=103 time=0.034375
EXTRACT: note_on channel=2 note=67 velocity=82 time=0.004687500000000001
EXTRACT: note_on channel=9 note=38 velocity=93 time=0
EXTRACT: note_on channel=9 note=51 velocity=91 time=0
EXTRACT: control_change channel=14 control=11 value=101 time=0.0328125
EXTRACT: control_change channel=14 control=11 value=100 time=0.018750000000000003
EXTRACT: control_change channel=14 control=11 value=98 time=0.035937500000000004
EXTRACT: control_change channel=14 control=11 value=98 time=0.018750000000000003
EXTRACT: control_change channel=14 control=11 value=97 time=0.018750000000000003
EXTRACT: note_off channel=9 note=38 velocity=64 time=0.0078125
EXTRACT: note_off channel=9 note=51 velocity=64 time=0.0078125
EXTRACT: control_change channel=14 control=11 value=97 time=0.0203125
EXTRACT: control_change channel=14 control=11 value=94 time=0.018750000000000003
EXTRACT: note_off channel=2 note=60 velocity=64 time=0.010937500000000001
EXTRACT: control_change channel=14 control=11 value=94 time=0.025
EXTRACT: control_change channel=14 control=11 value=92 time=0.037500000000000006
EXTRACT: control_change channel=14 control=11 value=92 time=0.018750000000000003
EXTRACT: control_change channel=14 control=11 value=90 time=0.037500000000000006
EXTRACT: control_change channel=14 control=11 value=90 time=0.018750000000000003
EXTRACT: control_change channel=14 control=11 value=89 time=0.037500000000000006
EXTRACT: note_on channel=2 note=60 velocity=83 time=0.009375000000000001
EXTRACT: note_on channel=9 note=53 velocity=70 time=0
EXTRACT: control_change channel=14 control=11 value=89 time=0.028125
EXTRACT: control_change channel=14 control=11 value=86 time=0.0171875
EXTRACT: note_off channel=3 note=75 velocity=64 time=0.034375
EXTRACT: control_change channel=14 control=11 value=87 time=0.0015625
EXTRACT: control_change channel=14 control=11 value=84 time=0.018750000000000003
EXTRACT: note_off channel=9 note=53 velocity=64 time=0.00625
EXTRACT: control_change channel=14 control=11 value=83 time=0.0125
EXTRACT: control_change channel=14 control=11 value=82 time=0.00625
EXTRACT: control_change channel=14 control=11 value=80 time=0.018750000000000003
EXTRACT: control_change channel=14 control=11 value=81 time=0.0171875
EXTRACT: control_change channel=14 control=11 value=78 time=0.018750000000000003
EXTRACT: control_change channel=14 control=11 value=78 time=0.0171875
EXTRACT: control_change channel=14 control=11 value=76 time=0.0390625
EXTRACT: control_change channel=14 control=11 value=76 time=0.0171875
EXTRACT: control_change channel=14 control=11 value=75 time=0.018750000000000003
EXTRACT: control_change channel=14 control=11 value=75 time=0.018750000000000003
EXTRACT: control_change channel=14 control=11 value=72 time=0.018750000000000003
EXTRACT: note_off channel=7 note=56 velocity=64 time=0.00625
EXTRACT: note_off channel=10 note=56 velocity=64 time=0
EXTRACT: note_off channel=1 note=32 velocity=64 time=0.0125
EXTRACT: control_change channel=14 control=11 value=72 time=0
EXTRACT: note_off channel=2 note=60 velocity=64 time=0.018750000000000003
EXTRACT: control_change channel=14 control=11 value=70 time=0
EXTRACT: note_off channel=14 note=82 velocity=64 time=0.009375000000000001
EXTRACT: note_off channel=6 note=72 velocity=64 time=0
EXTRACT: note_off channel=6 note=75 velocity=64 time=0
EXTRACT: note_off channel=2 note=67 velocity=64 time=0.0015625
EXTRACT: note_on channel=1 note=32 velocity=103 time=0.004687500000000001
EXTRACT: note_on channel=6 note=82 velocity=45 time=0
EXTRACT: note_on channel=7 note=53 velocity=49 time=0
EXTRACT: note_on channel=7 note=58 velocity=49 time=0
EXTRACT: note_on channel=7 note=62 velocity=48 time=0
EXTRACT: note_on channel=9 note=35 velocity=108 time=0
EXTRACT: note_on channel=9 note=51 velocity=69 time=0
EXTRACT: note_on channel=10 note=58 velocity=62 time=0
EXTRACT: note_on channel=10 note=62 velocity=85 time=0
EXTRACT: note_on channel=10 note=65 velocity=68 time=0
EXTRACT: note_off channel=7 note=63 velocity=64 time=0.0015625
EXTRACT: note_off channel=10 note=63 velocity=64 time=0
EXTRACT: control_change channel=14 control=11 value=68 time=0.0015625
EXTRACT: note_off channel=7 note=60 velocity=64 time=0.00625
EXTRACT: note_off channel=10 note=60 velocity=64 time=0
EXTRACT: note_on channel=3 note=79 velocity=91 time=0.003125
EXTRACT: note_off channel=2 note=63 velocity=64 time=0.00625
EXTRACT: control_change channel=14 control=11 value=68 time=0
EXTRACT: control_change channel=14 control=11 value=66 time=0.018750000000000003
EXTRACT: control_change channel=14 control=11 value=66 time=0.0203125
EXTRACT: control_change channel=14 control=11 value=64 time=0.018750000000000003
EXTRACT: note_off channel=9 note=35 velocity=64 time=0.004687500000000001
EXTRACT: control_change channel=14 control=11 value=62 time=0.0140625
EXTRACT: control_change channel=14 control=11 value=63 time=0.037500000000000006
EXTRACT: control_change channel=14 control=11 value=60 time=0.0171875
EXTRACT: note_off channel=9 note=51 velocity=64 time=0.003125
EXTRACT: control_change channel=14 control=11 value=62 time=0.1078125
EXTRACT: control_change channel=14 control=11 value=62 time=0.0171875
EXTRACT: control_change channel=14 control=11 value=64 time=0.018750000000000003
EXTRACT: control_change channel=14 control=11 value=67 time=0.018750000000000003
EXTRACT: control_change channel=14 control=11 value=66 time=0.0171875
EXTRACT: control_change channel=14 control=11 value=69 time=0.018750000000000003
EXTRACT: control_change channel=14 control=11 value=73 time=0.018750000000000003
EXTRACT: note_off channel=3 note=79 velocity=64 time=0.003125
EXTRACT: note_on channel=9 note=51 velocity=43 time=0.0015625
EXTRACT: note_on channel=3 note=77 velocity=90 time=0.0078125
EXTRACT: control_change channel=14 control=11 value=74 time=0.00625
EXTRACT: control_change channel=14 control=11 value=77 time=0.0171875
EXTRACT: control_change channel=14 control=11 value=79 time=0.018750000000000003
EXTRACT: control_change channel=14 control=11 value=80 time=0.018750000000000003
EXTRACT: control_change channel=14 control=11 value=83 time=0.0171875
EXTRACT: control_change channel=14 control=11 value=87 time=0.018750000000000003
EXTRACT: note_off channel=9 note=51 velocity=64 time=0.009375000000000001
EXTRACT: control_change channel=14 control=11 value=88 time=0.009375000000000001
EXTRACT: control_change channel=14 control=11 value=90 time=0.018750000000000003
EXTRACT: control_change channel=6 control=11 value=126 time=0.003125
EXTRACT: control_change channel=10 control=64 value=127 time=0.0125
EXTRACT: control_change channel=14 control=11 value=93 time=0.0015625
EXTRACT: control_change channel=14 control=11 value=95 time=0.018750000000000003
EXTRACT: note_on channel=3 note=75 velocity=92 time=0.009375000000000001
EXTRACT: control_change channel=14 control=11 value=99 time=0.009375000000000001
EXTRACT: control_change channel=6 control=11 value=124 time=0.0015625
EXTRACT: control_change channel=14 control=11 value=103 time=0.015625
EXTRACT: control_change channel=14 control=11 value=104 time=0.018750000000000003
EXTRACT: note_off channel=3 note=77 velocity=64 time=0.004687500000000001
EXTRACT: control_change channel=14 control=11 value=108 time=0.0140625
EXTRACT: control_change channel=14 control=11 value=112 time=0.0203125
EXTRACT: control_change channel=14 control=11 value=117 time=0.018750000000000003
EXTRACT: control_change channel=14 control=11 value=121 time=0.015625
EXTRACT: control_change channel=14 control=11 value=122 time=0.0203125
EXTRACT: control_change channel=14 control=11 value=124 time=0.018750000000000003
EXTRACT: control_change channel=14 control=11 value=126 time=0.0171875
EXTRACT: note_on channel=3 note=74 velocity=92 time=0.0078125
EXTRACT: note_off channel=3 note=75 velocity=64 time=0.004687500000000001
EXTRACT: note_on channel=9 note=37 velocity=102 time=0
EXTRACT: note_on channel=9 note=51 velocity=74 time=0
EXTRACT: note_off channel=10 note=58 velocity=64 time=0.003125
EXTRACT: control_change channel=14 control=11 value=126 time=0.003125
EXTRACT: control_change channel=6 control=11 value=124 time=0.021875000000000002
EXTRACT: control_change channel=6 control=11 value=122 time=0.0734375
EXTRACT: note_off channel=9 note=37 velocity=64 time=0.03125
EXTRACT: note_off channel=9 note=51 velocity=64 time=0.0078125
EXTRACT: control_change channel=6 control=11 value=122 time=0.015625
EXTRACT: control_change channel=6 control=11 value=121 time=0.07500000000000001
EXTRACT: note_on channel=3 note=75 velocity=93 time=0.1203125
EXTRACT: note_on channel=9 note=51 velocity=45 time=0.0234375
EXTRACT: note_on channel=10 note=58 velocity=52 time=0
EXTRACT: control_change channel=6 control=11 value=120 time=0
EXTRACT: control_change channel=6 control=11 value=120 time=0.004687500000000001
EXTRACT: note_off channel=3 note=74 velocity=64 time=0.010937500000000001
EXTRACT: note_off channel=10 note=62 velocity=64 time=0.051562500000000004
EXTRACT: note_off channel=10 note=65 velocity=64 time=0.0015625
EXTRACT: control_change channel=6 control=11 value=120 time=0.026562500000000003
EXTRACT: note_off channel=9 note=51 velocity=64 time=0.010937500000000001
EXTRACT: note_off channel=10 note=58 velocity=64 time=0.05625
EXTRACT: control_change channel=6 control=11 value=118 time=0.009375000000000001
EXTRACT: control_change channel=7 control=11 value=126 time=0
EXTRACT: control_change channel=6 control=11 value=119 time=0.015625
EXTRACT: control_change channel=6 control=11 value=118 time=0.018750000000000003
EXTRACT: control_change channel=6 control=11 value=119 time=0.0203125
EXTRACT: control_change channel=7 control=11 value=124 time=0
EXTRACT: control_change channel=6 control=11 value=117 time=0.037500000000000006
EXTRACT: control_change channel=7 control=11 value=124 time=0
EXTRACT: control_change channel=6 control=11 value=116 time=0.035937500000000004
EXTRACT: control_change channel=6 control=11 value=117 time=0.0015625
EXTRACT: control_change channel=7 control=11 value=122 time=0
EXTRACT: note_off channel=7 note=62 velocity=64 time=0.045312500000000006
EXTRACT: control_change channel=6 control=11 value=117 time=0.010937500000000001
EXTRACT: control_change channel=7 control=11 value=123 time=0
EXTRACT: note_off channel=3 note=75 velocity=64 time=0.0015625
EXTRACT: note_on channel=3 note=72 velocity=89 time=0.0015625
EXTRACT: note_on channel=7 note=60 velocity=48 time=0.0140625
EXTRACT: note_on channel=9 note=35 velocity=108 time=0
EXTRACT: note_on channel=9 note=51 velocity=72 time=0
EXTRACT: control_change channel=6 control=11 value=116 time=0
EXTRACT: control_change channel=6 control=11 value=117 time=0.018750000000000003
EXTRACT: control_change channel=7 control=11 value=120 time=0
EXTRACT: control_change channel=6 control=11 value=115 time=0.0328125
EXTRACT: control_change channel=6 control=11 value=114 time=0.021875000000000002
EXTRACT: control_change channel=7 control=11 value=120 time=0
EXTRACT: note_off channel=9 note=35 velocity=64 time=0.0390625
EXTRACT: note_off channel=9 note=51 velocity=64 time=0.0125
EXTRACT: control_change channel=6 control=11 value=114 time=0.0015625
EXTRACT: control_change channel=6 control=11 value=115 time=0.0015625
EXTRACT: control_change channel=7 control=11 value=118 time=0
EXTRACT: control_change channel=6 control=11 value=113 time=0.059375000000000004
EXTRACT: control_change channel=6 control=11 value=113 time=0.015625
EXTRACT: control_change channel=7 control=11 value=118 time=0
EXTRACT: control_change channel=6 control=11 value=113 time=0.037500000000000006
EXTRACT: control_change channel=7 control=11 value=117 time=0
EXTRACT: control_change channel=6 control=11 value=112 time=0.0140625
EXTRACT: control_change channel=6 control=11 value=110 time=0.021875000000000002
EXTRACT: control_change channel=7 control=11 value=116 time=0
EXTRACT: control_change channel=6 control=11 value=110 time=0.0390625
EXTRACT: control_change channel=7 control=11 value=115 time=0
EXTRACT: control_change channel=6 control=11 value=111 time=0.034375
EXTRACT: control_change channel=7 control=11 value=115 time=0
EXTRACT: note_on channel=3 note=70 velocity=92 time=0.00625
EXTRACT: control_change channel=6 control=11 value=111 time=0.009375000000000001
EXTRACT: note_off channel=3 note=72 velocity=64 time=0.0078125
EXTRACT: note_on channel=9 note=35 velocity=108 time=0.0015625
EXTRACT: note_on channel=9 note=51 velocity=46 time=0
EXTRACT: note_on channel=10 note=70 velocity=66 time=0
EXTRACT: control_change channel=6 control=11 value=108 time=0
EXTRACT: control_change channel=6 control=11 value=108 time=0.010937500000000001
EXTRACT: control_change channel=7 control=11 value=112 time=0
EXTRACT: control_change channel=6 control=11 value=108 time=0.018750000000000003
EXTRACT: control_change channel=6 control=11 value=108 time=0.0015625
EXTRACT: control_change channel=7 control=11 value=113 time=0
EXTRACT: control_change channel=6 control=11 value=108 time=0.035937500000000004
EXTRACT: control_change channel=7 control=11 value=111 time=0
EXTRACT: note_off channel=9 note=51 velocity=64 time=0.035937500000000004
EXTRACT: control_change channel=6 control=11 value=108 time=0
EXTRACT: note_off channel=9 note=35 velocity=64 time=0.009375000000000001
EXTRACT: note_off channel=10 note=70 velocity=64 time=0
EXTRACT: control_change channel=6 control=11 value=109 time=0.0125
EXTRACT: control_change channel=7 control=11 value=110 time=0
EXTRACT: control_change channel=6 control=11 value=109 time=0.03125
EXTRACT: control_change channel=6 control=11 value=106 time=0.0203125
EXTRACT: control_change channel=7 control=11 value=109 time=0
EXTRACT: control_change channel=6 control=11 value=107 time=0.010937500000000001
EXTRACT: control_change channel=6 control=11 value=106 time=0.045312500000000006
EXTRACT: control_change channel=7 control=11 value=109 time=0
EXTRACT: control_change channel=6 control=11 value=107 time=0.035937500000000004
EXTRACT: control_change channel=6 control=11 value=104 time=0.0203125
EXTRACT: control_change channel=7 control=11 value=106 time=0
EXTRACT: control_change channel=6 control=11 value=104 time=0.037500000000000006
EXTRACT: control_change channel=7 control=11 value=106 time=0
EXTRACT: note_on channel=7 note=62 velocity=48 time=0.0484375
EXTRACT: note_on channel=9 note=37 velocity=103 time=0
EXTRACT: note_on channel=9 note=51 velocity=79 time=0
EXTRACT: control_change channel=6 control=11 value=105 time=0
EXTRACT: control_change channel=6 control=11 value=104 time=0.0078125
EXTRACT: control_change channel=7 control=11 value=105 time=0
EXTRACT: control_change channel=6 control=11 value=104 time=0.0125
EXTRACT: control_change channel=6 control=11 value=102 time=0.021875000000000002
EXTRACT: control_change channel=7 control=11 value=105 time=0
EXTRACT: note_off channel=7 note=60 velocity=64 time=0.035937500000000004
EXTRACT: control_change channel=6 control=11 value=102 time=0.018750000000000003
EXTRACT: control_change channel=7 control=11 value=103 time=0
EXTRACT: note_off channel=9 note=37 velocity=64 time=0.026562500000000003
EXTRACT: control_change channel=6 control=11 value=103 time=0.0078125
EXTRACT: control_change channel=6 control=11 value=103 time=0.004687500000000001
EXTRACT: control_change channel=7 control=11 value=103 time=0
EXTRACT: note_off channel=9 note=51 velocity=64 time=0.0015625
EXTRACT: control_change channel=6 control=11 value=100 time=0.05
EXTRACT: control_change channel=6 control=11 value=100 time=0.003125
EXTRACT: control_change channel=7 control=11 value=100 time=0
EXTRACT: control_change channel=6 control=11 value=100 time=0.037500000000000006
EXTRACT: control_change channel=7 control=11 value=100 time=0
EXTRACT: control_change channel=6 control=11 value=98 time=0.03125
EXTRACT: control_change channel=6 control=11 value=98 time=0.025
EXTRACT: control_change channel=7 control=11 value=98 time=0
EXTRACT: control_change channel=6 control=11 value=98 time=0.015625
EXTRACT: control_change channel=7 control=11 value=99 time=0
EXTRACT: control_change channel=6 control=11 value=98 time=0.051562500000000004
EXTRACT: control_change channel=6 control=11 value=98 time=0.004687500000000001
EXTRACT: control_change channel=7 control=11 value=97 time=0
EXTRACT: note_on channel=9 note=51 velocity=42 time=0.018750000000000003
EXTRACT: control_change channel=6 control=11 value=98 time=0
EXTRACT: control_change channel=6 control=11 value=99 time=0.018750000000000003
EXTRACT: control_change channel=7 control=11 value=96 time=0
EXTRACT: control_change channel=6 control=11 value=98 time=0.03125
EXTRACT: control_change channel=6 control=11 value=96 time=0.00625
EXTRACT: control_change channel=7 control=11 value=94 time=0
EXTRACT: control_change channel=6 control=11 value=96 time=0.037500000000000006
EXTRACT: control_change channel=7 control=11 value=94 time=0
EXTRACT: note_off channel=3 note=70 velocity=64 time=0.009375000000000001
EXTRACT: control_change channel=6 control=11 value=96 time=0.0015625
EXTRACT: note_off channel=9 note=51 velocity=64 time=0.015625
EXTRACT: control_change channel=6 control=11 value=97 time=0.026562500000000003
EXTRACT: control_change channel=7 control=11 value=92 time=0
EXTRACT: control_change channel=6 control=11 value=94 time=0.03125
EXTRACT: control_change channel=6 control=11 value=95 time=0.009375000000000001
EXTRACT: control_change channel=6 control=11 value=95 time=0.015625
EXTRACT: control_change channel=7 control=11 value=92 time=0
EXTRACT: control_change channel=6 control=11 value=94 time=0.0484375
EXTRACT: control_change channel=6 control=11 value=95 time=0.00625
EXTRACT: control_change channel=7 control=11 value=90 time=0
EXTRACT: control_change channel=6 control=11 value=93 time=0.05625
EXTRACT: control_change channel=7 control=11 value=91 time=0
EXTRACT: control_change channel=6 control=11 value=92 time=0.010937500000000001
EXTRACT: note_on channel=3 note=79 velocity=90 time=0.040625
EXTRACT: note_off channel=1 note=32 velocity=64 time=0.003125
EXTRACT: control_change channel=6 control=11 value=93 time=0
EXTRACT: control_change channel=7 control=11 value=89 time=0
EXTRACT: note_on channel=1 note=31 velocity=103 time=0.00625
EXTRACT: note_on channel=7 note=55 velocity=49 time=0
EXTRACT: note_on channel=9 note=35 velocity=108 time=0
EXTRACT: note_on channel=9 note=51 velocity=68 time=0
EXTRACT: note_on channel=10 note=55 velocity=68 time=0
EXTRACT: note_on channel=10 note=58 velocity=69 time=0
EXTRACT: note_on channel=10 note=62 velocity=69 time=0
EXTRACT: note_on channel=10 note=65 velocity=68 time=0
EXTRACT: control_change channel=6 control=11 value=93 time=0
EXTRACT: control_change channel=6 control=11 value=90 time=0.025
EXTRACT: control_change channel=6 control=11 value=90 time=0.0234375
EXTRACT: control_change channel=7 control=11 value=88 time=0
EXTRACT: control_change channel=6 control=11 value=91 time=0.0140625
EXTRACT: note_off channel=7 note=53 velocity=64 time=0.0015625
EXTRACT: note_off channel=9 note=35 velocity=64 time=0.0171875
EXTRACT: control_change channel=6 control=11 value=91 time=0.003125
EXTRACT: control_change channel=7 control=11 value=87 time=0
EXTRACT: control_change channel=6 control=11 value=91 time=0.03125
EXTRACT: control_change channel=6 control=11 value=91 time=0.0078125
EXTRACT: control_change channel=7 control=11 value=86 time=0
EXTRACT: note_off channel=9 note=51 velocity=64 time=0.029687500000000002
EXTRACT: control_change channel=6 control=11 value=90 time=0.00625
EXTRACT: control_change channel=7 control=11 value=85 time=0
EXTRACT: control_change channel=6 control=11 value=90 time=0.018750000000000003
EXTRACT: control_change channel=7 control=11 value=84 time=0
EXTRACT: control_change channel=6 control=11 value=90 time=0.009375000000000001
EXTRACT: control_change channel=6 control=11 value=89 time=0.0203125
EXTRACT: control_change channel=6 control=11 value=89 time=0.0078125
EXTRACT: control_change channel=7 control=11 value=82 time=0
EXTRACT: control_change channel=10 control=64 value=0 time=0.00625
EXTRACT: control_change channel=6 control=11 value=88 time=0.028125
EXTRACT: control_change channel=7 control=11 value=83 time=0
EXTRACT: note_off channel=3 note=79 velocity=64 time=0.0234375
EXTRACT: control_change channel=6 control=11 value=88 time=0.0078125
EXTRACT: control_change channel=6 control=11 value=88 time=0.004687500000000001
EXTRACT: control_change channel=7 control=11 value=80 time=0
EXTRACT: control_change channel=6 control=11 value=88 time=0.018750000000000003
EXTRACT: control_change channel=7 control=11 value=80 time=0
EXTRACT: control_change channel=6 control=11 value=86 time=0.0390625
EXTRACT: control_change channel=7 control=11 value=78 time=0
EXTRACT: control_change channel=6 control=11 value=86 time=0.029687500000000002
EXTRACT: note_on channel=9 note=51 velocity=42 time=0.0015625
EXTRACT: control_change channel=6 control=11 value=87 time=0
EXTRACT: note_on channel=3 note=79 velocity=88 time=0.004687500000000001
EXTRACT: control_change channel=6 control=11 value=87 time=0
EXTRACT: control_change channel=7 control=11 value=78 time=0
EXTRACT: control_change channel=6 control=11 value=86 time=0.035937500000000004
EXTRACT: control_change channel=7 control=11 value=77 time=0
EXTRACT: control_change channel=6 control=11 value=85 time=0.03125
EXTRACT: control_change channel=6 control=11 value=84 time=0.00625
EXTRACT: control_change channel=7 control=11 value=77 time=0
EXTRACT: control_change channel=10 control=64 value=127 time=0.03125
EXTRACT: note_off channel=9 note=51 velocity=64 time=0.004687500000000001
EXTRACT: control_change channel=6 control=11 value=85 time=0
EXTRACT: control_change channel=7 control=11 value=74 time=0
EXTRACT: control_change channel=6 control=11 value=84 time=0.0125
EXTRACT: control_change channel=6 control=11 value=84 time=0.025
EXTRACT: control_change channel=7 control=11 value=74 time=0
EXTRACT: control_change channel=6 control=11 value=83 time=0.035937500000000004
EXTRACT: control_change channel=6 control=11 value=82 time=0.0015625
EXTRACT: control_change channel=7 control=11 value=72 time=0
EXTRACT: control_change channel=6 control=11 value=82 time=0.010937500000000001
EXTRACT: control_change channel=6 control=11 value=82 time=0.025
EXTRACT: control_change channel=7 control=11 value=72 time=0
EXTRACT: control_change channel=6 control=11 value=82 time=0.037500000000000006
EXTRACT: control_change channel=7 control=11 value=70 time=0
EXTRACT: control_change channel=6 control=11 value=83 time=0.010937500000000001
EXTRACT: control_change channel=6 control=11 value=83 time=0.00625
EXTRACT: control_change channel=7 control=11 value=70 time=0
EXTRACT: control_change channel=6 control=11 value=80 time=0.037500000000000006
EXTRACT: control_change channel=7 control=11 value=68 time=0
EXTRACT: control_change channel=6 control=11 value=80 time=0.034375
EXTRACT: control_change channel=7 control=11 value=68 time=0
EXTRACT: note_off channel=3 note=79 velocity=64 time=0.003125
EXTRACT: note_on channel=3 note=77 velocity=88 time=0.009375000000000001
EXTRACT: control_change channel=6 control=11 value=80 time=0.0015625
EXTRACT: note_on channel=9 note=37 velocity=102 time=0.009375000000000001
EXTRACT: note_on channel=9 note=51 velocity=74 time=0
EXTRACT: control_change channel=6 control=11 value=80 time=0
EXTRACT: control_change channel=6 control=11 value=80 time=0.015625
EXTRACT: control_change channel=7 control=11 value=66 time=0
EXTRACT: control_change channel=6 control=11 value=80 time=0.035937500000000004
EXTRACT: control_change channel=7 control=11 value=67 time=0
EXTRACT: control_change channel=6 control=11 value=80 time=0.0125
EXTRACT: note_off channel=10 note=55 velocity=64 time=0.0078125
EXTRACT: note_off channel=10 note=58 velocity=64 time=0.026562500000000003
EXTRACT: note_off channel=10 note=62 velocity=64 time=0.0140625
EXTRACT: note_off channel=10 note=65 velocity=64 time=0.0125
EXTRACT: control_change channel=6 control=11 value=78 time=0
EXTRACT: control_change channel=7 control=11 value=64 time=0
EXTRACT: note_off channel=9 note=37 velocity=64 time=0.0078125
EXTRACT: control_change channel=6 control=11 value=78 time=0.004687500000000001
EXTRACT: note_off channel=9 note=51 velocity=64 time=0.003125
EXTRACT: control_change channel=6 control=11 value=79 time=0.046875
EXTRACT: control_change channel=6 control=11 value=76 time=0.010937500000000001
EXTRACT: control_change channel=7 control=11 value=64 time=0
EXTRACT: control_change channel=6 control=11 value=76 time=0.0125
EXTRACT: control_change channel=6 control=11 value=76 time=0.043750000000000004
EXTRACT: control_change channel=7 control=11 value=62 time=0
EXTRACT: control_change channel=6 control=11 value=76 time=0.029687500000000002
EXTRACT: control_change channel=6 control=11 value=75 time=0.037500000000000006
EXTRACT: control_change channel=6 control=11 value=74 time=0.003125
EXTRACT: control_change channel=7 control=11 value=62 time=0
EXTRACT: note_on channel=9 note=51 velocity=44 time=0.05
EXTRACT: control_change channel=6 control=11 value=75 time=0
EXTRACT: control_change channel=6 control=11 value=75 time=0.037500000000000006
EXTRACT: control_change channel=6 control=11 value=74 time=0.004687500000000001
EXTRACT: control_change channel=7 control=11 value=61 time=0
EXTRACT: control_change channel=6 control=11 value=73 time=0.05
EXTRACT: control_change channel=6 control=11 value=73 time=0.004687500000000001
EXTRACT: control_change channel=7 control=11 value=60 time=0
EXTRACT: note_off channel=9 note=51 velocity=64 time=0.009375000000000001
EXTRACT: control_change channel=6 control=11 value=72 time=0.060937500000000006
EXTRACT: control_change channel=6 control=11 value=73 time=0.0203125
EXTRACT: control_change channel=6 control=11 value=73 time=0.0015625
EXTRACT: control_change channel=7 control=11 value=59 time=0
EXTRACT: control_change channel=6 control=11 value=70 time=0.0328125
EXTRACT: control_change channel=6 control=11 value=70 time=0.059375000000000004
EXTRACT: control_change channel=7 control=11 value=59 time=0
EXTRACT: control_change channel=6 control=11 value=71 time=0.0328125
EXTRACT: note_off channel=7 note=62 velocity=64 time=0.0234375
EXTRACT: note_on channel=7 note=60 velocity=48 time=0.037500000000000006
EXTRACT: note_on channel=9 note=35 velocity=108 time=0
EXTRACT: note_on channel=9 note=51 velocity=72 time=0
EXTRACT: control_change channel=6 control=11 value=69 time=0
EXTRACT: control_change channel=6 control=11 value=69 time=0.0125
EXTRACT: control_change channel=6 control=11 value=69 time=0.053125000000000006
EXTRACT: control_change channel=6 control=11 value=66 time=0.0390625
EXTRACT: note_off channel=9 note=35 velocity=64 time=0.0078125
EXTRACT: note_off channel=9 note=51 velocity=64 time=0.0125
EXTRACT: control_change channel=6 control=11 value=66 time=0.034375
EXTRACT: control_change channel=6 control=11 value=66 time=0.028125
EXTRACT: control_change channel=6 control=11 value=65 time=0.0078125
EXTRACT: control_change channel=6 control=11 value=65 time=0.037500000000000006
EXTRACT: control_change channel=6 control=11 value=64 time=0.035937500000000004
EXTRACT: control_change channel=6 control=11 value=64 time=0.025
EXTRACT: control_change channel=7 control=11 value=56 time=0
EXTRACT: control_change channel=6 control=11 value=64 time=0.0125
EXTRACT: control_change channel=6 control=11 value=62 time=0.015625
EXTRACT: control_change channel=6 control=11 value=62 time=0.0390625
EXTRACT: note_on channel=9 note=35 velocity=108 time=0.0140625
EXTRACT: note_on channel=9 note=51 velocity=47 time=0
EXTRACT: note_on channel=10 note=70 velocity=52 time=0
EXTRACT: control_change channel=6 control=11 value=62 time=0
EXTRACT: control_change channel=6 control=11 value=63 time=0.021875000000000002
EXTRACT: control_change channel=6 control=11 value=63 time=0.025
EXTRACT: control_change channel=7 control=11 value=57 time=0
EXTRACT: control_change channel=6 control=11 value=62 time=0.03125
EXTRACT: note_off channel=9 note=51 velocity=64 time=0.025
EXTRACT: control_change channel=6 control=11 value=63 time=0
EXTRACT: control_change channel=7 control=11 value=55 time=0
EXTRACT: note_off channel=10 note=70 velocity=64 time=0.004687500000000001
EXTRACT: note_off channel=9 note=35 velocity=64 time=0.004687500000000001
EXTRACT: control_change channel=6 control=11 value=60 time=0.0203125
EXTRACT: control_change channel=6 control=11 value=61 time=0.053125000000000006
EXTRACT: control_change channel=6 control=11 value=60 time=0.0015625
EXTRACT: control_change channel=6 control=11 value=58 time=0.05625
EXTRACT: control_change channel=6 control=11 value=59 time=0.0546875
EXTRACT: control_change channel=6 control=11 value=58 time=0.00625
EXTRACT: control_change channel=7 control=11 value=54 time=0
EXTRACT: control_change channel=6 control=11 value=56 time=0.046875
EXTRACT: note_on channel=7 note=62 velocity=46 time=0.0234375
EXTRACT: note_on channel=9 note=37 velocity=102 time=0
EXTRACT: note_on channel=9 note=51 velocity=78 time=0
EXTRACT: control_change channel=6 control=11 value=56 time=0
EXTRACT: note_off channel=7 note=60 velocity=64 time=0.009375000000000001
EXTRACT: control_change channel=6 control=11 value=56 time=0.0125
EXTRACT: control_change channel=7 control=11 value=53 time=0
EXTRACT: control_change channel=6 control=11 value=57 time=0.010937500000000001
EXTRACT: control_change channel=6 control=11 value=55 time=0.045312500000000006
EXTRACT: control_change channel=7 control=11 value=53 time=0
EXTRACT: control_change channel=6 control=11 value=54 time=0.0078125
EXTRACT: note_off channel=9 note=37 velocity=64 time=0.037500000000000006
EXTRACT: control_change channel=6 control=11 value=54 time=0.0015625
EXTRACT: note_off channel=9 note=51 velocity=64 time=0.0125
EXTRACT: control_change channel=6 control=11 value=54 time=0.0125
EXTRACT: control_change channel=7 control=11 value=50 time=0
EXTRACT: control_change channel=6 control=11 value=54 time=0.037500000000000006
EXTRACT: control_change channel=6 control=11 value=54 time=0.009375000000000001
EXTRACT: control_change channel=6 control=11 value=54 time=0.028125
EXTRACT: control_change channel=7 control=11 value=50 time=0
EXTRACT: control_change channel=6 control=11 value=52 time=0.026562500000000003
EXTRACT: control_change channel=6 control=11 value=52 time=0.084375
EXTRACT: control_change channel=7 control=11 value=49 time=0
EXTRACT: control_change channel=6 control=11 value=52 time=0.009375000000000001
EXTRACT: note_on channel=9 note=51 velocity=42 time=0.029687500000000002
EXTRACT: control_change channel=6 control=11 value=51 time=0
EXTRACT: control_change channel=6 control=11 value=50 time=0.0078125
EXTRACT: control_change channel=6 control=11 value=50 time=0.028125
EXTRACT: control_change channel=7 control=11 value=49 time=0
EXTRACT: control_change channel=6 control=11 value=50 time=0.025
EXTRACT: control_change channel=6 control=11 value=50 time=0.029687500000000002
EXTRACT: control_change channel=7 control=11 value=47 time=0
EXTRACT: control_change channel=6 control=11 value=49 time=0.026562500000000003
EXTRACT: note_off channel=9 note=51 velocity=64 time=0.003125
EXTRACT: control_change channel=6 control=11 value=48 time=0.025
EXTRACT: control_change channel=7 control=11 value=47 time=0
EXTRACT: control_change channel=6 control=11 value=49 time=0.0421875
EXTRACT: control_change channel=6 control=11 value=49 time=0.003125
EXTRACT: control_change channel=6 control=11 value=46 time=0.065625
EXTRACT: control_change channel=7 control=11 value=44 time=0
EXTRACT: control_change channel=6 control=11 value=47 time=0.025
EXTRACT: note_off channel=3 note=77 velocity=64 time=0.05
EXTRACT: control_change channel=10 control=64 value=0 time=0.010937500000000001
EXTRACT: note_off channel=7 note=55 velocity=64 time=0.0015625
EXTRACT: note_on channel=3 note=79 velocity=90 time=0.0125
EXTRACT: note_off channel=6 note=82 velocity=64 time=0.004687500000000001
EXTRACT: note_off channel=7 note=58 velocity=64 time=0
EXTRACT: note_off channel=1 note=31 velocity=64 time=0
EXTRACT: note_off channel=7 note=62 velocity=64 time=0
EXTRACT: note_on channel=1 note=39 velocity=102 time=0.00625
EXTRACT: note_on channel=9 note=35 velocity=109 time=0
EXTRACT: note_on channel=9 note=51 velocity=68 time=0
EXTRACT: note_on channel=10 note=39 velocity=68 time=0
EXTRACT: note_on channel=10 note=51 velocity=52 time=0
EXTRACT: control_change channel=6 control=11 value=45 time=0
EXTRACT: note_on channel=10 note=58 velocity=70 time=0.004687500000000001
EXTRACT: note_on channel=10 note=55 velocity=70 time=0.009375000000000001
EXTRACT: note_on channel=10 note=63 velocity=60 time=0
EXTRACT: note_off channel=9 note=35 velocity=64 time=0.0671875
EXTRACT: control_change channel=6 control=11 value=44 time=0.0015625
EXTRACT: control_change channel=7 control=11 value=46 time=0
EXTRACT: control_change channel=6 control=11 value=43 time=0.05625
EXTRACT: control_change channel=7 control=11 value=46 time=0
EXTRACT: note_off channel=9 note=51 velocity=64 time=0.0140625
EXTRACT: control_change channel=6 control=11 value=43 time=0.021875000000000002
EXTRACT: control_change channel=7 control=11 value=49 time=0
EXTRACT: control_change channel=6 control=11 value=48 time=0.037500000000000006
EXTRACT: control_change channel=7 control=11 value=49 time=0
EXTRACT: control_change channel=6 control=11 value=50 time=0.035937500000000004
EXTRACT: control_change channel=7 control=11 value=50 time=0
EXTRACT: control_change channel=6 control=11 value=51 time=0.0390625
EXTRACT: control_change channel=7 control=11 value=50 time=0
EXTRACT: control_change channel=6 control=11 value=53 time=0.034375
EXTRACT: control_change channel=7 control=11 value=52 time=0
EXTRACT: control_change channel=6 control=11 value=53 time=0.037500000000000006
EXTRACT: control_change channel=7 control=11 value=52 time=0
EXTRACT: note_on channel=9 note=51 velocity=43 time=0.015625
EXTRACT: control_change channel=10 control=64 value=127 time=0.004687500000000001
EXTRACT: control_change channel=6 control=11 value=55 time=0.015625
EXTRACT: control_change channel=7 control=11 value=54 time=0
EXTRACT: control_change channel=6 control=11 value=54 time=0.018750000000000003
EXTRACT: control_change channel=7 control=11 value=54 time=0
EXTRACT: control_change channel=6 control=11 value=56 time=0.018750000000000003
EXTRACT: control_change channel=7 control=11 value=57 time=0
EXTRACT: control_change channel=6 control=11 value=58 time=0.0171875
EXTRACT: control_change channel=7 control=11 value=59 time=0
EXTRACT: control_change channel=6 control=11 value=59 time=0.018750000000000003
EXTRACT: control_change channel=7 control=11 value=58 time=0
EXTRACT: control_change channel=6 control=11 value=61 time=0.018750000000000003
EXTRACT: control_change channel=7 control=11 value=61 time=0
EXTRACT: note_off channel=9 note=51 velocity=64 time=0.0015625
EXTRACT: note_off channel=10 note=51 velocity=64 time=0.00625
EXTRACT: control_change channel=6 control=11 value=62 time=0.0125
EXTRACT: control_change channel=7 control=11 value=62 time=0
EXTRACT: control_change channel=6 control=11 value=64 time=0.015625
EXTRACT: control_change channel=7 control=11 value=65 time=0
EXTRACT: control_change channel=6 control=11 value=66 time=0.018750000000000003
EXTRACT: control_change channel=7 control=11 value=66 time=0
EXTRACT: control_change channel=6 control=11 value=68 time=0.0203125
EXTRACT: control_change channel=7 control=11 value=68 time=0
EXTRACT: control_change channel=6 control=11 value=70 time=0.0171875
EXTRACT: control_change channel=7 control=11 value=71 time=0
EXTRACT: control_change channel=6 control=11 value=74 time=0.018750000000000003
EXTRACT: control_change channel=7 control=11 value=74 time=0
EXTRACT: control_change channel=6 control=11 value=77 time=0.018750000000000003
EXTRACT: control_change channel=7 control=11 value=76 time=0
EXTRACT: control_change channel=6 control=11 value=81 time=0.018750000000000003
EXTRACT: control_change channel=7 control=11 value=80 time=0
EXTRACT: control_change channel=6 control=11 value=84 time=0.015625
EXTRACT: control_change channel=7 control=11 value=84 time=0
EXTRACT: control_change channel=6 control=11 value=89 time=0.018750000000000003
EXTRACT: control_change channel=7 control=11 value=89 time=0
EXTRACT: control_change channel=6 control=11 value=92 time=0.0203125
EXTRACT: control_change channel=7 control=11 value=93 time=0
EXTRACT: control_change channel=6 control=11 value=97 time=0.0171875
EXTRACT: control_change channel=7 control=11 value=96 time=0
EXTRACT: control_change channel=6 control=11 value=100 time=0.018750000000000003
EXTRACT: control_change channel=7 control=11 value=100 time=0
EXTRACT: note_on channel=10 note=51 velocity=60 time=0.010937500000000001
EXTRACT: control_change channel=6 control=11 value=104 time=0.0078125
EXTRACT: control_change channel=7 control=11 value=104 time=0
EXTRACT: note_on channel=9 note=37 velocity=102 time=0.004687500000000001
EXTRACT: note_on channel=9 note=51 velocity=75 time=0
EXTRACT: control_change channel=6 control=11 value=109 time=0.0140625
EXTRACT: control_change channel=7 control=11 value=108 time=0
EXTRACT: control_change channel=6 control=11 value=112 time=0.015625
EXTRACT: control_change channel=7 control=11 value=112 time=0
EXTRACT: control_change channel=6 control=11 value=116 time=0.0203125
EXTRACT: control_change channel=7 control=11 value=116 time=0
EXTRACT: control_change channel=6 control=11 value=120 time=0.018750000000000003
EXTRACT: control_change channel=7 control=11 value=120 time=0
EXTRACT: control_change channel=6 control=11 value=122 time=0.0171875
EXTRACT: control_change channel=7 control=11 value=122 time=0
EXTRACT: control_change channel=6 control=11 value=125 time=0.018750000000000003
EXTRACT: control_change channel=7 control=11 value=124 time=0
EXTRACT: control_change channel=6 control=11 value=127 time=0.018750000000000003
EXTRACT: control_change channel=7 control=11 value=127 time=0
EXTRACT: note_off channel=9 note=37 velocity=64 time=0.009375000000000001
EXTRACT: note_off channel=9 note=51 velocity=64 time=0.0078125
EXTRACT: control_change channel=6 control=11 value=126 time=0.003125
EXTRACT: control_change channel=7 control=11 value=126 time=0
EXTRACT: note_off channel=10 note=55 velocity=64 time=0.17343750000000002
EXTRACT: note_on channel=9 note=51 velocity=45 time=0.0578125
EXTRACT: note_off channel=9 note=51 velocity=64 time=0.10625000000000001
EXTRACT: note_on channel=9 note=35 velocity=108 time=0.26875
EXTRACT: note_on channel=9 note=51 velocity=73 time=0
EXTRACT: note_on channel=10 note=55 velocity=54 time=0.0328125
EXTRACT: note_off channel=9 note=35 velocity=64 time=0.07968750000000001
EXTRACT: note_off channel=9 note=51 velocity=64 time=0.0125
EXTRACT: note_on channel=9 note=51 velocity=47 time=0.25
EXTRACT: note_off channel=10 note=58 velocity=64 time=0.018750000000000003
EXTRACT: note_off channel=3 note=79 velocity=64 time=0.00625
EXTRACT: note_off channel=9 note=51 velocity=64 time=0.078125
EXTRACT: note_on channel=10 note=58 velocity=71 time=0.24375000000000002
EXTRACT: note_on channel=9 note=45 velocity=85 time=0.028125
EXTRACT: control_change channel=10 control=64 value=0 time=0.034375
EXTRACT: note_off channel=9 note=45 velocity=64 time=0.0890625
EXTRACT: program_change channel=10 program=5 time=0.41250000000000003
EXTRACT: note_off channel=10 note=63 velocity=64 time=0.2078125
EXTRACT: note_off channel=1 note=39 velocity=64 time=0
EXTRACT: note_off channel=10 note=39 velocity=64 time=0
EXTRACT: note_off channel=10 note=51 velocity=64 time=0
EXTRACT: note_off channel=10 note=58 velocity=64 time=0
EXTRACT: note_off channel=10 note=55 velocity=64 time=0
EXTRACT: note_on channel=10 note=44 velocity=74 time=0.00625
EXTRACT: note_on channel=10 note=56 velocity=56 time=0
EXTRACT: note_on channel=10 note=60 velocity=78 time=0
EXTRACT: note_on channel=10 note=63 velocity=54 time=0
EXTRACT: note_on channel=11 note=56 velocity=111 time=0
EXTRACT: note_on channel=11 note=60 velocity=110 time=0.009375000000000001
EXTRACT: note_on channel=11 note=63 velocity=110 time=0.009375000000000001
EXTRACT: note_on channel=3 note=75 velocity=90 time=0.004687500000000001
EXTRACT: control_change channel=10 control=64 value=127 time=0.24375000000000002
EXTRACT: note_off channel=3 note=75 velocity=64 time=0.05
EXTRACT: note_on channel=3 note=75 velocity=91 time=0.0859375
EXTRACT: note_off channel=10 note=60 velocity=64 time=0.096875
EXTRACT: note_off channel=3 note=75 velocity=64 time=0.18906250000000002
EXTRACT: note_off channel=11 note=56 velocity=64 time=0.051562500000000004
EXTRACT: note_on channel=10 note=60 velocity=79 time=0.009375000000000001
EXTRACT: note_on channel=11 note=56 velocity=102 time=0
EXTRACT: note_off channel=11 note=60 velocity=64 time=0
EXTRACT: note_off channel=11 note=63 velocity=64 time=0.009375000000000001
EXTRACT: note_on channel=11 note=60 velocity=103 time=0
EXTRACT: note_on channel=3 note=75 velocity=89 time=0.0078125
EXTRACT: note_on channel=11 note=63 velocity=103 time=0.0015625
EXTRACT: note_off channel=3 note=75 velocity=64 time=0.34218750000000003
EXTRACT: note_off channel=10 note=56 velocity=64 time=0.05
EXTRACT: note_on channel=3 note=75 velocity=92 time=0.018750000000000003
EXTRACT: note_off channel=11 note=56 velocity=64 time=0.1234375
EXTRACT: note_on channel=10 note=56 velocity=48 time=0.009375000000000001
EXTRACT: note_on channel=11 note=56 velocity=96 time=0
EXTRACT: note_off channel=11 note=60 velocity=64 time=0
EXTRACT: note_off channel=11 note=63 velocity=64 time=0.009375000000000001
EXTRACT: note_on channel=11 note=60 velocity=96 time=0
EXTRACT: note_on channel=11 note=63 velocity=96 time=0.009375000000000001
EXTRACT: note_off channel=11 note=56 velocity=64 time=0.15937500000000002
EXTRACT: note_on channel=11 note=56 velocity=114 time=0.009375000000000001
EXTRACT: note_off channel=11 note=60 velocity=64 time=0
EXTRACT: note_off channel=11 note=63 velocity=64 time=0.009375000000000001
EXTRACT: note_on channel=11 note=60 velocity=114 time=0
EXTRACT: note_on channel=11 note=63 velocity=114 time=0.009375000000000001
EXTRACT: note_off channel=10 note=63 velocity=64 time=0.035937500000000004
EXTRACT: note_off channel=3 note=75 velocity=64 time=0.15937500000000002
EXTRACT: note_off channel=11 note=56 velocity=64 time=0.07500000000000001
EXTRACT: note_on channel=10 note=63 velocity=85 time=0.009375000000000001
EXTRACT: note_on channel=11 note=56 velocity=99 time=0
EXTRACT: note_off channel=11 note=60 velocity=64 time=0
EXTRACT: note_off channel=11 note=63 velocity=64 time=0.009375000000000001
EXTRACT: note_on channel=11 note=60 velocity=99 time=0
EXTRACT: note_on channel=11 note=63 velocity=98 time=0.009375000000000001
EXTRACT: note_on channel=3 note=79 velocity=91 time=0.021875000000000002
EXTRACT: note_off channel=10 note=44 velocity=64 time=0.1
EXTRACT: note_off channel=10 note=56 velocity=64 time=0.1296875
EXTRACT: note_off channel=11 note=56 velocity=64 time=0.09531250000000001
EXTRACT: note_on channel=10 note=44 velocity=53 time=0.009375000000000001
EXTRACT: note_on channel=11 note=56 velocity=105 time=0
EXTRACT: note_off channel=11 note=60 velocity=64 time=0
EXTRACT: note_off channel=11 note=63 velocity=64 time=0.009375000000000001
EXTRACT: note_on channel=11 note=60 velocity=104 time=0
EXTRACT: note_on channel=11 note=63 velocity=105 time=0.009375000000000001
EXTRACT: control_change channel=10 control=64 value=0 time=0.1640625
EXTRACT: note_on channel=10 note=56 velocity=70 time=0.004687500000000001
EXTRACT: note_off channel=3 note=79 velocity=64 time=0.028125
EXTRACT: note_on channel=3 note=77 velocity=90 time=0.025
EXTRACT: note_on channel=3 note=75 velocity=89 time=0.15000000000000002
EXTRACT: note_off channel=3 note=77 velocity=64 time=0.015625
EXTRACT: note_off channel=11 note=63 velocity=64 time=0.2984375
EXTRACT: note_off channel=10 note=44 velocity=64 time=0.0140625
EXTRACT: note_off channel=11 note=56 velocity=64 time=0.003125
EXTRACT: note_off channel=11 note=60 velocity=64 time=0.003125
EXTRACT: note_off channel=10 note=56 velocity=64 time=0.0015625
EXTRACT: note_off channel=10 note=63 velocity=64 time=0.009375000000000001
EXTRACT: note_off channel=10 note=60 velocity=64 time=0.0015625
EXTRACT: note_on channel=10 note=43 velocity=59 time=0.0125
EXTRACT: note_on channel=10 note=55 velocity=64 time=0
EXTRACT: note_on channel=10 note=58 velocity=59 time=0
EXTRACT: note_on channel=10 note=62 velocity=75 time=0
EXTRACT: note_on channel=11 note=55 velocity=110 time=0
EXTRACT: note_off channel=3 note=75 velocity=64 time=0.0015625
EXTRACT: note_on channel=11 note=58 velocity=110 time=0.0078125
EXTRACT: note_on channel=11 note=62 velocity=111 time=0.009375000000000001
EXTRACT: note_on channel=3 note=74 velocity=88 time=0.010937500000000001
EXTRACT: note_off channel=3 note=74 velocity=64 time=0.3453125
EXTRACT: note_on channel=3 note=72 velocity=92 time=0.06875
EXTRACT: control_change channel=10 control=64 value=127 time=0.046875
EXTRACT: note_off channel=11 note=55 velocity=64 time=0.25
EXTRACT: note_on channel=10 note=67 velocity=87 time=0.009375000000000001
EXTRACT: note_on channel=11 note=55 velocity=102 time=0
EXTRACT: note_off channel=11 note=58 velocity=64 time=0
EXTRACT: note_off channel=11 note=62 velocity=64 time=0.009375000000000001
EXTRACT: note_on channel=11 note=58 velocity=102 time=0
EXTRACT: note_off channel=3 note=72 velocity=64 time=0.0078125
EXTRACT: note_on channel=11 note=62 velocity=102 time=0.0015625
EXTRACT: note_on channel=3 note=74 velocity=91 time=0.0015625
EXTRACT: note_off channel=3 note=74 velocity=64 time=0.36250000000000004
EXTRACT: note_on channel=3 note=72 velocity=92 time=0.0171875
EXTRACT: note_off channel=10 note=67 velocity=64 time=0.045312500000000006
EXTRACT: note_off channel=11 note=55 velocity=64 time=0.1078125
EXTRACT: note_on channel=11 note=55 velocity=96 time=0.009375000000000001
EXTRACT: note_off channel=11 note=58 velocity=64 time=0
EXTRACT: note_off channel=11 note=62 velocity=64 time=0.009375000000000001
EXTRACT: note_on channel=11 note=58 velocity=97 time=0
EXTRACT: note_on channel=11 note=62 velocity=97 time=0.009375000000000001
EXTRACT: note_off channel=11 note=55 velocity=64 time=0.15937500000000002
EXTRACT: note_on channel=10 note=65 velocity=80 time=0.009375000000000001
EXTRACT: note_on channel=11 note=55 velocity=114 time=0
EXTRACT: note_off channel=11 note=58 velocity=64 time=0
EXTRACT: note_off channel=11 note=62 velocity=64 time=0.009375000000000001
EXTRACT: note_on channel=11 note=58 velocity=114 time=0
EXTRACT: note_off channel=3 note=72 velocity=64 time=0.0078125
EXTRACT: note_on channel=11 note=62 velocity=114 time=0.0015625
EXTRACT: note_on channel=3 note=74 velocity=88 time=0.003125
EXTRACT: note_off channel=10 note=43 velocity=64 time=0.240625
EXTRACT: note_off channel=11 note=55 velocity=64 time=0.10312500000000001
EXTRACT: note_off channel=10 note=55 velocity=64 time=0.00625
EXTRACT: note_off channel=3 note=74 velocity=64 time=0.0015625
EXTRACT: note_on channel=10 note=43 velocity=34 time=0.0015625
EXTRACT: note_on channel=11 note=55 velocity=98 time=0
EXTRACT: note_off channel=11 note=58 velocity=64 time=0
EXTRACT: note_off channel=11 note=62 velocity=64 time=0.009375000000000001
EXTRACT: note_on channel=11 note=58 velocity=98 time=0
EXTRACT: note_on channel=3 note=72 velocity=90 time=0.00625
EXTRACT: note_on channel=11 note=62 velocity=98 time=0.003125
EXTRACT: control_change channel=10 control=64 value=0 time=0.0421875
EXTRACT: note_off channel=11 note=55 velocity=64 time=0.045312500000000006
EXTRACT: note_on channel=10 note=55 velocity=89 time=0.009375000000000001
EXTRACT: note_on channel=11 note=55 velocity=104 time=0
EXTRACT: note_off channel=11 note=58 velocity=64 time=0
EXTRACT: note_off channel=11 note=62 velocity=64 time=0.009375000000000001
EXTRACT: note_on channel=11 note=58 velocity=104 time=0
EXTRACT: note_on channel=3 note=70 velocity=92 time=0.00625
EXTRACT: note_on channel=11 note=62 velocity=104 time=0.003125
EXTRACT: note_off channel=3 note=72 velocity=64 time=0.0015625
EXTRACT: note_on channel=3 note=72 velocity=91 time=0.35468750000000004
EXTRACT: note_off channel=3 note=70 velocity=64 time=0.003125
EXTRACT: note_off channel=3 note=72 velocity=64 time=0.2171875
EXTRACT: note_off channel=10 note=62 velocity=64 time=0.010937500000000001
EXTRACT: note_off channel=10 note=58 velocity=64 time=0.00625
EXTRACT: note_off channel=10 note=65 velocity=64 time=0.00625
EXTRACT: note_off channel=11 note=55 velocity=64 time=0.025
EXTRACT: note_off channel=10 note=43 velocity=64 time=0.0015625
EXTRACT: note_off channel=10 note=55 velocity=64 time=0.009375000000000001
EXTRACT: note_off channel=11 note=58 velocity=64 time=0.028125
EXTRACT: note_off channel=11 note=62 velocity=64 time=0.015625
EXTRACT: note_on channel=10 note=41 velocity=84 time=0.009375000000000001
EXTRACT: note_on channel=10 note=51 velocity=69 time=0
EXTRACT: note_on channel=10 note=56 velocity=71 time=0
EXTRACT: note_on channel=10 note=60 velocity=79 time=0
EXTRACT: note_on channel=11 note=53 velocity=111 time=0
EXTRACT: note_on channel=3 note=72 velocity=93 time=0.0015625
EXTRACT: note_on channel=11 note=56 velocity=110 time=0.0015625
EXTRACT: note_on channel=11 note=60 velocity=110 time=0.009375000000000001
EXTRACT: control_change channel=10 control=64 value=127 time=0.246875
EXTRACT: note_off channel=10 note=51 velocity=64 time=0.1921875
EXTRACT: note_off channel=3 note=72 velocity=64 time=0.2421875
EXTRACT: note_off channel=11 note=53 velocity=64 time=0.040625
EXTRACT: note_off channel=10 note=41 velocity=64 time=0.0015625
EXTRACT: note_on channel=10 note=51 velocity=50 time=0.0078125
EXTRACT: note_on channel=11 note=53 velocity=102 time=0
EXTRACT: note_off channel=11 note=56 velocity=64 time=0
EXTRACT: note_off channel=11 note=60 velocity=64 time=0.009375000000000001
EXTRACT: note_on channel=11 note=56 velocity=102 time=0
EXTRACT: note_on channel=11 note=60 velocity=103 time=0.009375000000000001
EXTRACT: note_off channel=10 note=56 velocity=64 time=0.328125
EXTRACT: note_on channel=3 note=70 velocity=90 time=0.015625
EXTRACT: note_off channel=10 note=51 velocity=64 time=0.0078125
EXTRACT: note_on channel=10 note=41 velocity=58 time=0.004687500000000001
EXTRACT: note_off channel=10 note=60 velocity=64 time=0.003125
EXTRACT: note_off channel=11 note=53 velocity=64 time=0.1421875
EXTRACT: note_on channel=11 note=53 velocity=96 time=0.009375000000000001
EXTRACT: note_off channel=11 note=56 velocity=64 time=0
EXTRACT: note_off channel=11 note=60 velocity=64 time=0.009375000000000001
EXTRACT: note_on channel=11 note=56 velocity=97 time=0
EXTRACT: note_on channel=11 note=60 velocity=97 time=0.009375000000000001
EXTRACT: note_off channel=11 note=53 velocity=64 time=0.15937500000000002
EXTRACT: note_on channel=11 note=53 velocity=114 time=0.009375000000000001
EXTRACT: note_off channel=11 note=56 velocity=64 time=0
EXTRACT: note_off channel=11 note=60 velocity=64 time=0.009375000000000001
EXTRACT: note_on channel=11 note=56 velocity=115 time=0
EXTRACT: note_on channel=11 note=60 velocity=115 time=0.009375000000000001
EXTRACT: note_off channel=3 note=70 velocity=64 time=0.0203125
EXTRACT: note_on channel=3 note=72 velocity=90 time=0.0078125
EXTRACT: note_off channel=10 note=41 velocity=64 time=0.10312500000000001
EXTRACT: note_off channel=11 note=53 velocity=64 time=0.2078125
EXTRACT: note_on channel=10 note=41 velocity=53 time=0.009375000000000001
EXTRACT: note_on channel=10 note=70 velocity=81 time=0
EXTRACT: note_on channel=11 note=53 velocity=98 time=0
EXTRACT: note_off channel=11 note=56 velocity=64 time=0
EXTRACT: note_off channel=11 note=60 velocity=64 time=0.009375000000000001
EXTRACT: note_on channel=11 note=56 velocity=99 time=0
EXTRACT: note_on channel=11 note=60 velocity=99 time=0.009375000000000001
EXTRACT: note_off channel=11 note=53 velocity=64 time=0.34687500000000004
EXTRACT: note_on channel=10 note=60 velocity=62 time=0.009375000000000001
EXTRACT: note_on channel=11 note=53 velocity=104 time=0
EXTRACT: note_off channel=11 note=56 velocity=64 time=0
EXTRACT: note_off channel=11 note=60 velocity=64 time=0.009375000000000001
EXTRACT: note_on channel=11 note=56 velocity=104 time=0
EXTRACT: note_on channel=11 note=60 velocity=105 time=0.009375000000000001
EXTRACT: note_on channel=10 note=65 velocity=80 time=0.16875
EXTRACT: note_on channel=3 note=63 velocity=88 time=0.178125
EXTRACT: control_change channel=10 control=64 value=0 time=0.010937500000000001
EXTRACT: note_off channel=3 note=72 velocity=64 time=0.043750000000000004
EXTRACT: note_off channel=10 note=41 velocity=64 time=0.21406250000000002
EXTRACT: note_off channel=10 note=60 velocity=64 time=0.028125
EXTRACT: note_off channel=10 note=65 velocity=64 time=0.021875000000000002
EXTRACT: note_off channel=11 note=60 velocity=64 time=0.003125
EXTRACT: note_off channel=11 note=53 velocity=64 time=0.0171875
EXTRACT: note_off channel=11 note=56 velocity=64 time=0.003125
EXTRACT: note_off channel=10 note=70 velocity=64 time=0.0125
EXTRACT: note_off channel=3 note=63 velocity=64 time=0.0015625
EXTRACT: note_on channel=3 note=67 velocity=90 time=0.010937500000000001
EXTRACT: note_on channel=10 note=46 velocity=84 time=0
EXTRACT: note_on channel=10 note=56 velocity=68 time=0
EXTRACT: note_on channel=10 note=60 velocity=86 time=0
EXTRACT: note_on channel=10 note=62 velocity=84 time=0
EXTRACT: note_on channel=10 note=65 velocity=85 time=0
EXTRACT: note_on channel=11 note=53 velocity=111 time=0
EXTRACT: note_on channel=11 note=58 velocity=111 time=0.009375000000000001
EXTRACT: note_on channel=11 note=62 velocity=111 time=0.009375000000000001
EXTRACT: control_change channel=10 control=64 value=127 time=0.0625
EXTRACT: note_off channel=10 note=46 velocity=64 time=0.225
EXTRACT: note_off channel=10 note=56 velocity=64 time=0.0421875
EXTRACT: note_on channel=10 note=46 velocity=37 time=0.026562500000000003
EXTRACT: note_off channel=3 note=67 velocity=64 time=0.034375
EXTRACT: note_on channel=3 note=70 velocity=90 time=0.003125
EXTRACT: note_on channel=10 note=56 velocity=72 time=0.09531250000000001
EXTRACT: note_off channel=10 note=46 velocity=64 time=0.034375
EXTRACT: note_off channel=11 note=53 velocity=64 time=0.14375000000000002
EXTRACT: note_on channel=10 note=46 velocity=53 time=0.009375000000000001
EXTRACT: note_on channel=11 note=53 velocity=102 time=0
EXTRACT: note_off channel=11 note=58 velocity=64 time=0
EXTRACT: note_off channel=11 note=62 velocity=64 time=0.009375000000000001
EXTRACT: note_on channel=11 note=58 velocity=102 time=0
EXTRACT: note_on channel=11 note=62 velocity=102 time=0.009375000000000001
EXTRACT: note_off channel=10 note=65 velocity=64 time=0.0390625
EXTRACT: note_off channel=10 note=56 velocity=64 time=0.11406250000000001
EXTRACT: note_off channel=10 note=60 velocity=64 time=0.060937500000000006
EXTRACT: note_off channel=10 note=62 velocity=64 time=0.037500000000000006
EXTRACT: note_on channel=10 note=65 velocity=62 time=0.1046875
EXTRACT: note_off channel=10 note=65 velocity=64 time=0.15781250000000002
EXTRACT: note_off channel=11 note=53 velocity=64 time=0.0203125
EXTRACT: note_on channel=11 note=53 velocity=97 time=0.009375000000000001
EXTRACT: note_off channel=11 note=58 velocity=64 time=0
EXTRACT: note_off channel=11 note=62 velocity=64 time=0.009375000000000001
EXTRACT: note_on channel=11 note=58 velocity=97 time=0
EXTRACT: note_on channel=11 note=62 velocity=96 time=0.009375000000000001
EXTRACT: note_off channel=3 note=70 velocity=64 time=0.11875000000000001
EXTRACT: note_off channel=11 note=53 velocity=64 time=0.040625
EXTRACT: note_on channel=10 note=65 velocity=103 time=0.009375000000000001
EXTRACT: note_on channel=11 note=53 velocity=114 time=0
EXTRACT: note_off channel=11 note=58 velocity=64 time=0
EXTRACT: note_off channel=11 note=62 velocity=64 time=0.009375000000000001
EXTRACT: note_on channel=11 note=58 velocity=114 time=0
EXTRACT: note_on channel=11 note=62 velocity=114 time=0.009375000000000001
EXTRACT: note_off channel=10 note=65 velocity=64 time=0.1015625
EXTRACT: note_off channel=11 note=53 velocity=64 time=0.15937500000000002
EXTRACT: note_on channel=10 note=67 velocity=72 time=0.009375000000000001
EXTRACT: note_on channel=11 note=53 velocity=98 time=0
EXTRACT: note_off channel=11 note=58 velocity=64 time=0
EXTRACT: note_off channel=11 note=62 velocity=64 time=0.009375000000000001
EXTRACT: note_on channel=11 note=58 velocity=98 time=0
EXTRACT: note_on channel=11 note=62 velocity=99 time=0.009375000000000001
EXTRACT: note_on channel=3 note=79 velocity=92 time=0.0171875
EXTRACT: note_off channel=11 note=53 velocity=64 time=0.2546875
EXTRACT: note_on channel=10 note=70 velocity=108 time=0.009375000000000001
EXTRACT: note_on channel=11 note=53 velocity=95 time=0
EXTRACT: note_off channel=11 note=58 velocity=64 time=0
EXTRACT: note_off channel=11 note=62 velocity=64 time=0.009375000000000001
EXTRACT: note_on channel=11 note=58 velocity=94 time=0
EXTRACT: note_on channel=11 note=62 velocity=95 time=0.009375000000000001
EXTRACT: note_off channel=3 note=79 velocity=64 time=0.1453125
EXTRACT: note_on channel=3 note=79 velocity=90 time=0.115625
EXTRACT: note_off channel=11 note=53 velocity=64 time=0.065625
EXTRACT: note_on channel=11 note=53 velocity=86 time=0.00625
EXTRACT: note_off channel=11 note=58 velocity=64 time=0.003125
EXTRACT: note_on channel=11 note=58 velocity=87 time=0.00625
EXTRACT: note_off channel=11 note=62 velocity=64 time=0.003125
EXTRACT: note_on channel=11 note=62 velocity=86 time=0.00625
EXTRACT: control_change channel=10 control=64 value=0 time=0.1265625
EXTRACT: note_off channel=3 note=79 velocity=64 time=0.00625
EXTRACT: note_on channel=3 note=80 velocity=88 time=0.0015625
EXTRACT: note_off channel=10 note=70 velocity=64 time=0.035937500000000004
EXTRACT: note_off channel=10 note=67 velocity=64 time=0.003125
EXTRACT: note_off channel=10 note=46 velocity=64 time=0.0078125
EXTRACT: note_off channel=11 note=53 velocity=64 time=0.040625
EXTRACT: note_off channel=11 note=58 velocity=64 time=0.0390625
EXTRACT: note_off channel=11 note=62 velocity=64 time=0.015625
EXTRACT: note_on channel=9 note=35 velocity=108 time=0.009375000000000001
EXTRACT: note_on channel=9 note=42 velocity=52 time=0
EXTRACT: note_on channel=10 note=44 velocity=84 time=0
EXTRACT: note_on channel=10 note=56 velocity=80 time=0
EXTRACT: note_on channel=10 note=60 velocity=77 time=0
EXTRACT: note_on channel=10 note=63 velocity=72 time=0
EXTRACT: note_on channel=11 note=56 velocity=110 time=0
EXTRACT: note_on channel=11 note=60 velocity=111 time=0.009375000000000001
EXTRACT: note_on channel=11 note=63 velocity=110 time=0.009375000000000001
EXTRACT: note_off channel=3 note=80 velocity=64 time=0.03125
EXTRACT: note_on channel=3 note=79 velocity=92 time=0.004687500000000001
EXTRACT: note_off channel=9 note=35 velocity=64 time=0.018750000000000003
EXTRACT: control_change channel=10 control=64 value=127 time=0.045312500000000006
EXTRACT: note_off channel=9 note=42 velocity=64 time=0.026562500000000003
EXTRACT: note_off channel=10 note=56 velocity=64 time=0.026562500000000003
EXTRACT: note_on channel=3 note=75 velocity=91 time=0.1078125
EXTRACT: note_off channel=3 note=79 velocity=64 time=0.0078125
EXTRACT: note_on channel=9 note=42 velocity=29 time=0.0671875
EXTRACT: note_on channel=10 note=56 velocity=66 time=0
EXTRACT: note_off channel=3 note=75 velocity=64 time=0.096875
EXTRACT: note_off channel=9 note=42 velocity=64 time=0.0171875
EXTRACT: note_on channel=3 note=75 velocity=88 time=0.08125
EXTRACT: note_off channel=11 note=56 velocity=64 time=0.1703125
EXTRACT: note_on channel=9 note=38 velocity=109 time=0.009375000000000001
EXTRACT: note_on channel=9 note=42 velocity=61 time=0
EXTRACT: note_on channel=10 note=58 velocity=79 time=0
EXTRACT: note_on channel=11 note=56 velocity=102 time=0
EXTRACT: note_off channel=11 note=60 velocity=64 time=0
EXTRACT: note_off channel=11 note=63 velocity=64 time=0.009375000000000001
EXTRACT: note_on channel=11 note=60 velocity=102 time=0
EXTRACT: note_on channel=11 note=63 velocity=102 time=0.009375000000000001
EXTRACT: note_off channel=10 note=44 velocity=64 time=0.018750000000000003
EXTRACT: note_off channel=10 note=60 velocity=64 time=0.003125
EXTRACT: note_off channel=10 note=58 velocity=64 time=0.0484375
EXTRACT: note_off channel=10 note=63 velocity=64 time=0.040625
EXTRACT: note_off channel=9 note=38 velocity=64 time=0.003125
EXTRACT: note_off channel=9 note=42 velocity=64 time=0.0078125
EXTRACT: note_off channel=10 note=56 velocity=64 time=0.026562500000000003
EXTRACT: note_on channel=9 note=42 velocity=31 time=0.2078125
EXTRACT: note_on channel=10 note=44 velocity=70 time=0
EXTRACT: note_on channel=10 note=56 velocity=69 time=0
EXTRACT: note_on channel=10 note=60 velocity=80 time=0
EXTRACT: note_off channel=9 note=42 velocity=64 time=0.10625000000000001
EXTRACT: note_off channel=10 note=56 velocity=64 time=0.0078125
EXTRACT: note_off channel=11 note=56 velocity=64 time=0.06406250000000001
EXTRACT: note_on channel=11 note=56 velocity=97 time=0.009375000000000001
EXTRACT: note_off channel=11 note=60 velocity=64 time=0
EXTRACT: note_off channel=11 note=63 velocity=64 time=0.009375000000000001
EXTRACT: note_on channel=11 note=60 velocity=97 time=0
EXTRACT: note_on channel=11 note=63 velocity=96 time=0.009375000000000001
EXTRACT: note_off channel=10 note=60 velocity=64 time=0.09531250000000001
EXTRACT: note_off channel=3 note=75 velocity=64 time=0.009375000000000001
EXTRACT: note_off channel=11 note=56 velocity=64 time=0.0171875
EXTRACT: note_on channel=9 note=35 velocity=109 time=0.009375000000000001
EXTRACT: note_on channel=9 note=42 velocity=59 time=0
EXTRACT: note_on channel=11 note=56 velocity=114 time=0
EXTRACT: note_off channel=11 note=60 velocity=64 time=0
EXTRACT: note_off channel=11 note=63 velocity=64 time=0.009375000000000001
EXTRACT: note_on channel=11 note=60 velocity=114 time=0
EXTRACT: note_on channel=11 note=63 velocity=114 time=0.009375000000000001
EXTRACT: note_on channel=3 note=79 velocity=88 time=0.025
EXTRACT: note_off channel=9 note=35 velocity=64 time=0.06875
EXTRACT: note_off channel=9 note=42 velocity=64 time=0.0125
EXTRACT: note_off channel=3 note=79 velocity=64 time=0.19375
EXTRACT: note_on channel=9 note=35 velocity=108 time=0.034375
EXTRACT: note_off channel=11 note=56 velocity=64 time=0.0125
EXTRACT: note_on channel=9 note=42 velocity=30 time=0.009375000000000001
EXTRACT: note_on channel=10 note=56 velocity=84 time=0
EXTRACT: note_on channel=10 note=63 velocity=108 time=0
EXTRACT: note_on channel=11 note=56 velocity=98 time=0
EXTRACT: note_off channel=11 note=60 velocity=64 time=0
EXTRACT: note_off channel=11 note=63 velocity=64 time=0.009375000000000001
EXTRACT: note_on channel=11 note=60 velocity=98 time=0
EXTRACT: note_on channel=11 note=63 velocity=98 time=0.009375000000000001
EXTRACT: note_on channel=3 note=79 velocity=92 time=0.010937500000000001
EXTRACT: note_off channel=10 note=56 velocity=64 time=0.037500000000000006
EXTRACT: note_off channel=9 note=35 velocity=64 time=0.021875000000000002
EXTRACT: note_off channel=9 note=42 velocity=64 time=0.0140625
EXTRACT: note_off channel=10 note=63 velocity=64 time=0.0625
EXTRACT: note_off channel=10 note=44 velocity=64 time=0.1375
EXTRACT: note_off channel=3 note=79 velocity=64 time=0.0015625
EXTRACT: note_off channel=11 note=56 velocity=64 time=0.060937500000000006
EXTRACT: note_on channel=9 note=38 velocity=108 time=0.009375000000000001
EXTRACT: note_on channel=9 note=42 velocity=64 time=0
EXTRACT: note_on channel=10 note=56 velocity=78 time=0
EXTRACT: note_on channel=11 note=56 velocity=104 time=0
EXTRACT: note_off channel=11 note=60 velocity=64 time=0
EXTRACT: note_off channel=11 note=63 velocity=64 time=0.009375000000000001
EXTRACT: note_on channel=11 note=60 velocity=104 time=0
EXTRACT: note_on channel=11 note=63 velocity=105 time=0.009375000000000001
EXTRACT: note_on channel=3 note=79 velocity=90 time=0.0015625
EXTRACT: note_off channel=10 note=56 velocity=64 time=0.0578125
EXTRACT: note_off channel=9 note=38 velocity=64 time=0.045312500000000006
EXTRACT: note_off channel=9 note=42 velocity=64 time=0.0140625
EXTRACT: note_off channel=3 note=79 velocity=64 time=0.0625
EXTRACT: note_on channel=3 note=79 velocity=91 time=0.09375
EXTRACT: note_on channel=9 note=42 velocity=69 time=0.08125
EXTRACT: note_on channel=10 note=44 velocity=62 time=0
EXTRACT: note_off channel=9 note=42 velocity=64 time=0.1203125
EXTRACT: note_off channel=3 note=79 velocity=64 time=0.009375000000000001
EXTRACT: note_on channel=3 note=80 velocity=92 time=0.0078125
EXTRACT: note_off channel=10 note=44 velocity=64 time=0.0125
EXTRACT: control_change channel=10 control=64 value=0 time=0.171875
EXTRACT: note_off channel=11 note=63 velocity=64 time=0.0078125
EXTRACT: note_off channel=11 note=56 velocity=64 time=0.0171875
EXTRACT: note_off channel=11 note=60 velocity=64 time=0.003125
EXTRACT: note_on channel=9 note=35 velocity=109 time=0.025
EXTRACT: note_on channel=9 note=42 velocity=72 time=0
EXTRACT: note_on channel=10 note=43 velocity=82 time=0
EXTRACT: note_on channel=10 note=53 velocity=74 time=0
EXTRACT: note_on channel=10 note=59 velocity=76 time=0
EXTRACT: note_on channel=10 note=62 velocity=77 time=0
EXTRACT: note_on channel=11 note=55 velocity=110 time=0
EXTRACT: note_on channel=11 note=59 velocity=110 time=0.009375000000000001
EXTRACT: note_on channel=11 note=62 velocity=110 time=0.009375000000000001
EXTRACT: note_on channel=3 note=79 velocity=89 time=0.029687500000000002
EXTRACT: note_off channel=3 note=80 velocity=64 time=0.00625
EXTRACT: note_off channel=9 note=35 velocity=64 time=0.026562500000000003
EXTRACT: note_off channel=9 note=42 velocity=64 time=0.07187500000000001
EXTRACT: control_change channel=10 control=64 value=127 time=0.05625
EXTRACT: note_off channel=10 note=53 velocity=64 time=0.040625
EXTRACT: note_on channel=3 note=75 velocity=91 time=0.043750000000000004
EXTRACT: note_off channel=3 note=79 velocity=64 time=0.010937500000000001
EXTRACT: note_on channel=9 note=42 velocity=48 time=0.0703125
EXTRACT: note_off channel=9 note=42 velocity=64 time=0.11406250000000001
EXTRACT: note_off channel=3 note=75 velocity=64 time=0.053125000000000006
EXTRACT: note_on channel=3 note=77 velocity=92 time=0.0328125
EXTRACT: note_off channel=10 note=62 velocity=64 time=0.1421875
EXTRACT: note_off channel=10 note=43 velocity=64 time=0.009375000000000001
EXTRACT: note_off channel=11 note=55 velocity=64 time=0.0140625
EXTRACT: note_on channel=9 note=38 velocity=108 time=0.009375000000000001
EXTRACT: note_on channel=9 note=42 velocity=80 time=0
EXTRACT: note_on channel=10 note=53 velocity=62 time=0
EXTRACT: note_on channel=11 note=55 velocity=102 time=0
EXTRACT: note_off channel=11 note=59 velocity=64 time=0
EXTRACT: note_off channel=11 note=62 velocity=64 time=0.009375000000000001
EXTRACT: note_on channel=11 note=59 velocity=103 time=0
EXTRACT: note_on channel=11 note=62 velocity=102 time=0.009375000000000001
EXTRACT: note_off channel=10 note=59 velocity=64 time=0.0015625
EXTRACT: note_off channel=10 note=53 velocity=64 time=0.11093750000000001
EXTRACT: note_off channel=9 note=38 velocity=64 time=0.0015625
EXTRACT: note_off channel=9 note=42 velocity=64 time=0.0078125
EXTRACT: note_on channel=9 note=42 velocity=50 time=0.234375
EXTRACT: note_on channel=10 note=62 velocity=114 time=0
EXTRACT: note_off channel=9 note=42 velocity=64 time=0.10625000000000001
EXTRACT: note_off channel=11 note=55 velocity=64 time=0.07187500000000001
EXTRACT: note_on channel=11 note=55 velocity=97 time=0.009375000000000001
EXTRACT: note_off channel=11 note=59 velocity=64 time=0
EXTRACT: note_off channel=11 note=62 velocity=64 time=0.009375000000000001
EXTRACT: note_on channel=11 note=59 velocity=97 time=0
EXTRACT: note_on channel=11 note=62 velocity=96 time=0.009375000000000001
EXTRACT: note_on channel=9 note=35 velocity=92 time=0.028125
EXTRACT: note_off channel=9 note=35 velocity=64 time=0.084375
EXTRACT: note_off channel=11 note=55 velocity=64 time=0.018750000000000003
EXTRACT: note_on channel=9 note=35 velocity=109 time=0.009375000000000001
EXTRACT: note_on channel=9 note=42 velocity=79 time=0
EXTRACT: note_on channel=10 note=53 velocity=62 time=0
EXTRACT: note_on channel=11 note=55 velocity=115 time=0
EXTRACT: note_off channel=11 note=59 velocity=64 time=0
EXTRACT: note_off channel=11 note=62 velocity=64 time=0.009375000000000001
EXTRACT: note_on channel=11 note=59 velocity=115 time=0
EXTRACT: note_on channel=11 note=62 velocity=114 time=0.009375000000000001
EXTRACT: note_off channel=9 note=35 velocity=64 time=0.09375
EXTRACT: note_off channel=3 note=77 velocity=64 time=0.0125
EXTRACT: note_off channel=9 note=42 velocity=64 time=0
EXTRACT: note_off channel=10 note=62 velocity=64 time=0.051562500000000004
EXTRACT: note_on channel=3 note=75 velocity=91 time=0.0421875
EXTRACT: note_off channel=11 note=55 velocity=64 time=0.146875
EXTRACT: note_off channel=3 note=75 velocity=64 time=0.003125
EXTRACT: note_on channel=9 note=35 velocity=109 time=0.00625
EXTRACT: note_on channel=9 note=42 velocity=50 time=0
EXTRACT: note_on channel=10 note=59 velocity=102 time=0
EXTRACT: note_on channel=11 note=55 velocity=99 time=0
EXTRACT: note_off channel=11 note=59 velocity=64 time=0
EXTRACT: note_off channel=11 note=62 velocity=64 time=0.009375000000000001
EXTRACT: note_on channel=11 note=59 velocity=99 time=0
EXTRACT: note_on channel=11 note=62 velocity=98 time=0.009375000000000001
EXTRACT: note_on channel=3 note=77 velocity=93 time=0.010937500000000001
EXTRACT: note_off channel=10 note=53 velocity=64 time=0.010937500000000001
EXTRACT: note_off channel=9 note=42 velocity=64 time=0.060937500000000006
EXTRACT: note_off channel=9 note=35 velocity=64 time=0.018750000000000003
EXTRACT: note_on channel=3 note=75 velocity=90 time=0.065625
EXTRACT: note_off channel=3 note=77 velocity=64 time=0.0125
EXTRACT: note_off channel=11 note=55 velocity=64 time=0.1484375
EXTRACT: note_on channel=9 note=38 velocity=109 time=0.009375000000000001
EXTRACT: note_on channel=9 note=42 velocity=84 time=0
EXTRACT: note_on channel=10 note=53 velocity=75 time=0
EXTRACT: note_on channel=11 note=55 velocity=104 time=0
EXTRACT: note_off channel=11 note=59 velocity=64 time=0
EXTRACT: note_off channel=3 note=75 velocity=64 time=0.0015625
EXTRACT: note_off channel=11 note=62 velocity=64 time=0.0078125
EXTRACT: note_on channel=11 note=59 velocity=105 time=0
EXTRACT: note_on channel=11 note=62 velocity=105 time=0.009375000000000001
EXTRACT: note_on channel=3 note=79 velocity=91 time=0.0125
EXTRACT: note_off channel=10 note=59 velocity=64 time=0.0140625
EXTRACT: note_off channel=10 note=53 velocity=64 time=0.040625
EXTRACT: note_off channel=9 note=38 velocity=64 time=0.037500000000000006
EXTRACT: note_off channel=9 note=42 velocity=64 time=0.0140625
EXTRACT: note_on channel=9 note=42 velocity=46 time=0.23750000000000002
EXTRACT: note_on channel=10 note=43 velocity=66 time=0
EXTRACT: note_off channel=9 note=42 velocity=64 time=0.1203125
EXTRACT: note_off channel=10 note=43 velocity=64 time=0.021875000000000002
EXTRACT: note_off channel=3 note=79 velocity=64 time=0.15000000000000002
EXTRACT: note_on channel=3 note=75 velocity=93 time=0.009375000000000001
EXTRACT: note_off channel=11 note=55 velocity=64 time=0.009375000000000001
EXTRACT: note_off channel=11 note=59 velocity=64 time=0.037500000000000006
EXTRACT: note_off channel=11 note=62 velocity=64 time=0.015625
EXTRACT: note_on channel=9 note=35 velocity=108 time=0.009375000000000001
EXTRACT: note_on channel=9 note=42 velocity=73 time=0
EXTRACT: note_on channel=10 note=41 velocity=80 time=0
EXTRACT: note_on channel=10 note=53 velocity=61 time=0
EXTRACT: note_on channel=10 note=57 velocity=79 time=0
EXTRACT: note_on channel=10 note=60 velocity=83 time=0
EXTRACT: note_on channel=10 note=63 velocity=65 time=0
EXTRACT: note_on channel=11 note=51 velocity=111 time=0
EXTRACT: note_on channel=11 note=57 velocity=111 time=0.009375000000000001
EXTRACT: note_on channel=11 note=60 velocity=110 time=0.009375000000000001
EXTRACT: control_change channel=10 control=64 value=0 time=0.009375000000000001
EXTRACT: note_off channel=9 note=35 velocity=64 time=0.053125000000000006
EXTRACT: note_off channel=3 note=75 velocity=64 time=0.051562500000000004
EXTRACT: note_off channel=9 note=42 velocity=64 time=0.0203125
EXTRACT: note_on channel=3 note=75 velocity=92 time=0.09531250000000001
EXTRACT: control_change channel=10 control=64 value=127 time=0.025
EXTRACT: note_off channel=10 note=53 velocity=64 time=0.046875
EXTRACT: note_on channel=9 note=42 velocity=48 time=0.0390625
EXTRACT: note_off channel=9 note=42 velocity=64 time=0.11406250000000001
EXTRACT: note_off channel=10 note=57 velocity=64 time=0.16875
EXTRACT: note_off channel=11 note=51 velocity=64 time=0.08281250000000001
EXTRACT: note_on channel=9 note=38 velocity=108 time=0.009375000000000001
EXTRACT: note_on channel=9 note=42 velocity=80 time=0
EXTRACT: note_on channel=10 note=53 velocity=74 time=0
EXTRACT: note_on channel=11 note=51 velocity=102 time=0
EXTRACT: note_off channel=11 note=57 velocity=64 time=0
EXTRACT: note_off channel=10 note=41 velocity=64 time=0.004687500000000001
EXTRACT: note_off channel=11 note=60 velocity=64 time=0.004687500000000001
EXTRACT: note_on channel=11 note=57 velocity=102 time=0
EXTRACT: note_on channel=11 note=60 velocity=103 time=0.009375000000000001
EXTRACT: note_off channel=10 note=63 velocity=64 time=0.034375
EXTRACT: note_off channel=10 note=60 velocity=64 time=0.0078125
EXTRACT: note_off channel=9 note=38 velocity=64 time=0.07187500000000001
EXTRACT: note_off channel=9 note=42 velocity=64 time=0.0078125
EXTRACT: note_on channel=9 note=42 velocity=50 time=0.234375
EXTRACT: note_on channel=10 note=57 velocity=87 time=0
EXTRACT: note_off channel=10 note=53 velocity=64 time=0.09375
EXTRACT: note_off channel=9 note=42 velocity=64 time=0.0125
EXTRACT: note_off channel=3 note=75 velocity=64 time=0.0078125
EXTRACT: note_off channel=11 note=51 velocity=64 time=0.0390625
EXTRACT: note_on channel=11 note=51 velocity=97 time=0.009375000000000001
EXTRACT: note_off channel=11 note=57 velocity=64 time=0
EXTRACT: note_off channel=11 note=60 velocity=64 time=0.009375000000000001
EXTRACT: note_on channel=11 note=57 velocity=96 time=0
EXTRACT: note_on channel=11 note=60 velocity=96 time=0.009375000000000001
EXTRACT: note_on channel=9 note=35 velocity=93 time=0.028125
EXTRACT: note_off channel=10 note=57 velocity=64 time=0.09062500000000001
EXTRACT: note_off channel=9 note=35 velocity=64 time=0.021875000000000002
EXTRACT: note_off channel=11 note=51 velocity=64 time=0.018750000000000003
EXTRACT: note_on channel=9 note=35 velocity=109 time=0.009375000000000001
EXTRACT: note_on channel=9 note=42 velocity=78 time=0
EXTRACT: note_on channel=10 note=41 velocity=57 time=0
EXTRACT: note_on channel=11 note=51 velocity=114 time=0
EXTRACT: note_off channel=11 note=57 velocity=64 time=0
EXTRACT: note_off channel=11 note=60 velocity=64 time=0.009375000000000001
EXTRACT: note_on channel=11 note=57 velocity=114 time=0
EXTRACT: note_on channel=11 note=60 velocity=114 time=0.009375000000000001
EXTRACT: note_off channel=9 note=35 velocity=64 time=0.09375
EXTRACT: note_off channel=9 note=42 velocity=64 time=0.0125
EXTRACT: note_on channel=3 note=79 velocity=88 time=0.23750000000000002
EXTRACT: note_off channel=11 note=51 velocity=64 time=0.003125
EXTRACT: note_on channel=9 note=35 velocity=108 time=0.009375000000000001
EXTRACT: note_on channel=9 note=42 velocity=50 time=0
EXTRACT: note_on channel=10 note=53 velocity=80 time=0
EXTRACT: note_on channel=11 note=51 velocity=98 time=0
EXTRACT: note_off channel=11 note=57 velocity=64 time=0
EXTRACT: note_off channel=11 note=60 velocity=64 time=0.009375000000000001
EXTRACT: note_on channel=11 note=57 velocity=99 time=0
EXTRACT: note_on channel=11 note=60 velocity=99 time=0.009375000000000001
EXTRACT: note_off channel=10 note=41 velocity=64 time=0.0015625
EXTRACT: note_off channel=3 note=79 velocity=64 time=0.059375000000000004
EXTRACT: note_off channel=9 note=42 velocity=64 time=0.0234375
EXTRACT: note_off channel=9 note=35 velocity=64 time=0.018750000000000003
EXTRACT: note_on channel=3 note=79 velocity=93 time=0.06406250000000001
EXTRACT: note_off channel=11 note=51 velocity=64 time=0.1796875
EXTRACT: note_on channel=9 note=38 velocity=108 time=0.009375000000000001
EXTRACT: note_on channel=9 note=42 velocity=84 time=0
EXTRACT: note_on channel=10 note=41 velocity=68 time=0
EXTRACT: note_on channel=11 note=51 velocity=104 time=0
EXTRACT: note_off channel=11 note=57 velocity=64 time=0
EXTRACT: note_off channel=11 note=60 velocity=64 time=0.009375000000000001
EXTRACT: note_on channel=11 note=57 velocity=105 time=0
EXTRACT: note_on channel=11 note=60 velocity=104 time=0.009375000000000001
EXTRACT: note_off channel=10 note=53 velocity=64 time=0.015625
EXTRACT: note_off channel=9 note=38 velocity=64 time=0.0890625
EXTRACT: note_off channel=9 note=42 velocity=64 time=0.0140625
EXTRACT: note_off channel=10 note=41 velocity=64 time=0.209375
EXTRACT: note_on channel=9 note=42 velocity=66 time=0.028125
EXTRACT: note_off channel=9 note=42 velocity=64 time=0.1203125
EXTRACT: note_off channel=11 note=60 velocity=64 time=0.209375
EXTRACT: note_off channel=11 note=51 velocity=64 time=0.0171875
EXTRACT: note_off channel=11 note=57 velocity=64 time=0.003125
EXTRACT: note_on channel=9 note=35 velocity=108 time=0.025
EXTRACT: note_on channel=9 note=42 velocity=72 time=0
EXTRACT: note_on channel=10 note=46 velocity=69 time=0
EXTRACT: note_on channel=10 note=56 velocity=85 time=0
EXTRACT: note_on channel=10 note=63 velocity=85 time=0
EXTRACT: note_on channel=11 note=58 velocity=111 time=0
EXTRACT: note_on channel=11 note=60 velocity=110 time=0.009375000000000001
EXTRACT: note_on channel=11 note=63 velocity=110 time=0.009375000000000001
EXTRACT: control_change channel=10 control=64 value=0 time=0.025
EXTRACT: note_off channel=9 note=35 velocity=64 time=0.037500000000000006
EXTRACT: note_off channel=9 note=42 velocity=64 time=0.07187500000000001
EXTRACT: control_change channel=10 control=64 value=127 time=0.0203125
EXTRACT: note_off channel=10 note=56 velocity=64 time=0.0625
EXTRACT: note_off channel=10 note=63 velocity=64 time=0.0921875
EXTRACT: note_on channel=9 note=42 velocity=48 time=0.046875
EXTRACT: note_on channel=10 note=56 velocity=67 time=0
EXTRACT: note_on channel=3 note=75 velocity=89 time=0.0171875
EXTRACT: note_off channel=3 note=79 velocity=64 time=0.0125
EXTRACT: note_off channel=9 note=42 velocity=64 time=0.084375
EXTRACT: note_off channel=3 note=75 velocity=64 time=0.10312500000000001
EXTRACT: note_on channel=3 note=77 velocity=93 time=0.018750000000000003
EXTRACT: note_off channel=10 note=56 velocity=64 time=0.0421875
EXTRACT: note_off channel=11 note=58 velocity=64 time=0.08750000000000001
EXTRACT: note_on channel=9 note=38 velocity=109 time=0.009375000000000001
EXTRACT: note_on channel=9 note=42 velocity=80 time=0
EXTRACT: note_on channel=10 note=60 velocity=70 time=0
EXTRACT: note_on channel=11 note=58 velocity=103 time=0
EXTRACT: note_off channel=11 note=60 velocity=64 time=0
EXTRACT: note_off channel=11 note=63 velocity=64 time=0.009375000000000001
EXTRACT: note_on channel=11 note=60 velocity=102 time=0
EXTRACT: note_on channel=11 note=63 velocity=102 time=0.009375000000000001
EXTRACT: note_off channel=10 note=60 velocity=64 time=0.0625
EXTRACT: note_off channel=10 note=46 velocity=64 time=0.003125
EXTRACT: note_off channel=9 note=38 velocity=64 time=0.0484375
EXTRACT: note_off channel=9 note=42 velocity=64 time=0.0078125
EXTRACT: note_on channel=9 note=42 velocity=50 time=0.234375
EXTRACT: note_on channel=10 note=46 velocity=82 time=0
EXTRACT: note_on channel=10 note=56 velocity=72 time=0
EXTRACT: note_on channel=10 note=58 velocity=77 time=0
EXTRACT: note_on channel=10 note=63 velocity=79 time=0
EXTRACT: note_off channel=9 note=42 velocity=64 time=0.10625000000000001
EXTRACT: note_off channel=10 note=63 velocity=64 time=0.021875000000000002
EXTRACT: note_off channel=10 note=56 velocity=64 time=0.003125
EXTRACT: note_off channel=10 note=58 velocity=64 time=0.004687500000000001
EXTRACT: note_off channel=11 note=58 velocity=64 time=0.0421875
EXTRACT: note_on channel=11 note=58 velocity=96 time=0.009375000000000001
EXTRACT: note_off channel=11 note=60 velocity=64 time=0
EXTRACT: note_off channel=11 note=63 velocity=64 time=0.009375000000000001
EXTRACT: note_on channel=11 note=60 velocity=96 time=0
EXTRACT: note_on channel=11 note=63 velocity=97 time=0.009375000000000001
EXTRACT: note_off channel=11 note=58 velocity=64 time=0.10312500000000001
EXTRACT: note_on channel=9 note=35 velocity=108 time=0.009375000000000001
EXTRACT: note_on channel=9 note=42 velocity=78 time=0
EXTRACT: note_on channel=10 note=60 velocity=80 time=0
EXTRACT: note_on channel=11 note=58 velocity=115 time=0
EXTRACT: note_off channel=11 note=60 velocity=64 time=0
EXTRACT: note_off channel=11 note=63 velocity=64 time=0.009375000000000001
EXTRACT: note_on channel=11 note=60 velocity=114 time=0
EXTRACT: note_on channel=11 note=63 velocity=114 time=0.009375000000000001
EXTRACT: note_off channel=10 note=60 velocity=64 time=0.084375
EXTRACT: note_off channel=9 note=35 velocity=64 time=0.009375000000000001
EXTRACT: note_off channel=9 note=42 velocity=64 time=0.0125
EXTRACT: note_off channel=3 note=77 velocity=64 time=0.13593750000000002
EXTRACT: note_off channel=11 note=58 velocity=64 time=0.1046875
EXTRACT: note_on channel=9 note=35 velocity=108 time=0.009375000000000001
EXTRACT: note_on channel=9 note=42 velocity=51 time=0
EXTRACT: note_on channel=10 note=56 velocity=84 time=0
EXTRACT: note_on channel=10 note=60 velocity=78 time=0
EXTRACT: note_on channel=10 note=63 velocity=86 time=0
EXTRACT: note_on channel=11 note=58 velocity=98 time=0
EXTRACT: note_off channel=11 note=60 velocity=64 time=0
EXTRACT: note_on channel=3 note=79 velocity=91 time=0.0015625
EXTRACT: note_off channel=11 note=63 velocity=64 time=0.0078125
EXTRACT: note_on channel=11 note=60 velocity=98 time=0
EXTRACT: note_on channel=11 note=63 velocity=98 time=0.009375000000000001
EXTRACT: note_off channel=10 note=46 velocity=64 time=0.08281250000000001
EXTRACT: note_off channel=9 note=42 velocity=64 time=0.0015625
EXTRACT: note_off channel=9 note=35 velocity=64 time=0.018750000000000003
EXTRACT: note_off channel=3 note=79 velocity=64 time=0.07500000000000001
EXTRACT: note_off channel=11 note=58 velocity=64 time=0.16875
EXTRACT: note_on channel=9 note=38 velocity=109 time=0.009375000000000001
EXTRACT: note_on channel=9 note=42 velocity=85 time=0
EXTRACT: note_on channel=10 note=46 velocity=86 time=0
EXTRACT: note_on channel=11 note=58 velocity=94 time=0
EXTRACT: note_off channel=11 note=60 velocity=64 time=0
EXTRACT: note_off channel=11 note=63 velocity=64 time=0.009375000000000001
EXTRACT: note_on channel=11 note=60 velocity=94 time=0
EXTRACT: note_on channel=3 note=79 velocity=92 time=0.004687500000000001
EXTRACT: note_on channel=11 note=63 velocity=94 time=0.004687500000000001
EXTRACT: note_off channel=10 note=56 velocity=64 time=0.0484375
EXTRACT: note_off channel=9 note=38 velocity=64 time=0.05625
EXTRACT: note_off channel=9 note=42 velocity=64 time=0.0140625
EXTRACT: note_on channel=6 note=72 velocity=83 time=0.08125
EXTRACT: note_on channel=6 note=74 velocity=84 time=0.07500000000000001
EXTRACT: note_off channel=6 note=72 velocity=64 time=0.025
EXTRACT: note_on channel=6 note=75 velocity=84 time=0.034375
EXTRACT: note_off channel=11 note=58 velocity=64 time=0.015625
EXTRACT: note_on channel=9 note=42 velocity=70 time=0.00625
EXTRACT: note_on channel=10 note=56 velocity=68 time=0
EXTRACT: note_on channel=11 note=58 velocity=86 time=0
EXTRACT: note_off channel=6 note=74 velocity=64 time=0.0015625
EXTRACT: note_off channel=11 note=60 velocity=64 time=0.0015625
EXTRACT: note_on channel=11 note=60 velocity=87 time=0.00625
EXTRACT: note_off channel=11 note=63 velocity=64 time=0.003125
EXTRACT: note_on channel=11 note=63 velocity=86 time=0.00625
EXTRACT: note_off channel=3 note=79 velocity=64 time=0.015625
EXTRACT: note_on channel=3 note=80 velocity=90 time=0.0015625
EXTRACT: control_change channel=10 control=64 value=0 time=0.00625
EXTRACT: note_off channel=6 note=75 velocity=64 time=0.034375
EXTRACT: note_on channel=6 note=77 velocity=88 time=0.004687500000000001
EXTRACT: note_off channel=9 note=42 velocity=64 time=0.0390625
EXTRACT: note_off channel=6 note=77 velocity=64 time=0.059375000000000004
EXTRACT: program_change channel=10 program=4 time=0.009375000000000001
EXTRACT: note_on channel=6 note=79 velocity=90 time=0.010937500000000001
EXTRACT: note_on channel=6 note=80 velocity=92 time=0.07187500000000001
EXTRACT: note_off channel=6 note=79 velocity=64 time=0.0078125
EXTRACT: note_off channel=11 note=58 velocity=64 time=0.03125
EXTRACT: note_off channel=10 note=60 velocity=64 time=0.0171875
EXTRACT: note_off channel=3 note=80 velocity=64 time=0.0125
EXTRACT: note_off channel=11 note=60 velocity=64 time=0.009375000000000001
EXTRACT: note_off channel=10 note=56 velocity=64 time=0.0015625
EXTRACT: note_off channel=10 note=63 velocity=64 time=0.0015625
EXTRACT: note_off channel=10 note=46 velocity=64 time=0
EXTRACT: note_off channel=11 note=63 velocity=64 time=0.0125
EXTRACT: note_on channel=1 note=32 velocity=102 time=0.009375000000000001
EXTRACT: note_on channel=6 note=82 velocity=62 time=0
EXTRACT: note_on channel=6 note=94 velocity=63 time=0
EXTRACT: note_on channel=7 note=56 velocity=59 time=0
EXTRACT: note_on channel=7 note=60 velocity=59 time=0
EXTRACT: note_on channel=7 note=63 velocity=58 time=0
EXTRACT: note_on channel=7 note=67 velocity=58 time=0
EXTRACT: note_on channel=9 note=35 velocity=118 time=0
EXTRACT: note_on channel=9 note=51 velocity=83 time=0
EXTRACT: note_on channel=9 note=57 velocity=83 time=0
EXTRACT: note_on channel=10 note=56 velocity=55 time=0
EXTRACT: note_on channel=10 note=60 velocity=79 time=0
EXTRACT: note_on channel=10 note=63 velocity=54 time=0
EXTRACT: note_on channel=10 note=67 velocity=83 time=0
EXTRACT: note_on channel=14 note=84 velocity=75 time=0
EXTRACT: note_off channel=6 note=80 velocity=64 time=0.0015625
EXTRACT: note_on channel=3 note=82 velocity=88 time=0.004687500000000001
EXTRACT: note_off channel=9 note=35 velocity=64 time=0.07500000000000001
EXTRACT: note_off channel=9 note=51 velocity=64 time=0.07187500000000001
EXTRACT: note_off channel=9 note=57 velocity=64 time=0
EXTRACT: note_off channel=3 note=82 velocity=64 time=0.18125000000000002
EXTRACT: note_on channel=2 note=60 velocity=79 time=0.040625
EXTRACT: note_off channel=1 note=32 velocity=64 time=0.24375000000000002
EXTRACT: note_on channel=1 note=32 velocity=102 time=0.13125
EXTRACT: note_on channel=2 note=67 velocity=80 time=0
EXTRACT: control_change channel=10 control=64 value=127 time=0.010937500000000001
EXTRACT: note_on channel=3 note=79 velocity=93 time=0.0078125
EXTRACT: note_off channel=10 note=60 velocity=64 time=0.18281250000000002
EXTRACT: note_off channel=10 note=56 velocity=64 time=0.0078125
EXTRACT: note_off channel=10 note=67 velocity=64 time=0.003125
EXTRACT: note_off channel=10 note=63 velocity=64 time=0.004687500000000001
EXTRACT: note_off channel=2 note=60 velocity=64 time=0.065625
EXTRACT: note_on channel=3 note=75 velocity=91 time=0.078125
EXTRACT: note_off channel=3 note=79 velocity=64 time=0.010937500000000001
EXTRACT: note_on channel=2 note=60 velocity=79 time=0.003125
EXTRACT: note_on channel=9 note=51 velocity=69 time=0
EXTRACT: note_off channel=9 note=51 velocity=64 time=0.11406250000000001
EXTRACT: note_off channel=1 note=32 velocity=64 time=0.1296875
EXTRACT: note_off channel=2 note=67 velocity=64 time=0.08750000000000001
EXTRACT: control_change channel=10 control=64 value=0 time=0.026562500000000003
EXTRACT: note_off channel=3 note=75 velocity=64 time=0
EXTRACT: note_off channel=7 note=56 velocity=64 time=0.0078125
EXTRACT: note_off channel=7 note=60 velocity=64 time=0
EXTRACT: note_off channel=7 note=63 velocity=64 time=0
EXTRACT: note_off channel=7 note=67 velocity=64 time=0
EXTRACT: note_off channel=14 note=84 velocity=64 time=0.003125
EXTRACT: note_on channel=1 note=31 velocity=102 time=0.00625
EXTRACT: note_on channel=2 note=65 velocity=79 time=0
EXTRACT: note_on channel=7 note=55 velocity=58 time=0
EXTRACT: note_on channel=7 note=58 velocity=58 time=0
EXTRACT: note_on channel=7 note=62 velocity=58 time=0
EXTRACT: note_on channel=7 note=65 velocity=58 time=0
EXTRACT: note_on channel=9 note=35 velocity=119 time=0
EXTRACT: note_on channel=10 note=55 velocity=76 time=0
EXTRACT: note_on channel=10 note=58 velocity=68 time=0
EXTRACT: note_on channel=10 note=62 velocity=83 time=0
EXTRACT: note_on channel=10 note=65 velocity=80 time=0
EXTRACT: note_on channel=14 note=86 velocity=75 time=0
EXTRACT: note_off channel=9 note=35 velocity=64 time=0.1125
EXTRACT: control_change channel=10 control=64 value=127 time=0.065625
EXTRACT: note_off channel=10 note=65 velocity=64 time=0.12812500000000002
EXTRACT: note_off channel=10 note=55 velocity=64 time=0.035937500000000004
EXTRACT: note_off channel=10 note=58 velocity=64 time=0.0078125
EXTRACT: note_off channel=10 note=62 velocity=64 time=0.004687500000000001
EXTRACT: note_off channel=1 note=31 velocity=64 time=0.26406250000000003
EXTRACT: note_on channel=3 note=79 velocity=90 time=0.1203125
EXTRACT: note_off channel=7 note=55 velocity=64 time=0.0015625
EXTRACT: note_off channel=7 note=58 velocity=64 time=0
EXTRACT: note_off channel=7 note=62 velocity=64 time=0
EXTRACT: note_off channel=7 note=65 velocity=64 time=0
EXTRACT: note_off channel=14 note=86 velocity=64 time=0.003125
EXTRACT: note_on channel=1 note=36 velocity=102 time=0.00625
EXTRACT: note_on channel=2 note=67 velocity=76 time=0
EXTRACT: note_on channel=7 note=55 velocity=58 time=0
EXTRACT: note_on channel=7 note=60 velocity=58 time=0
EXTRACT: note_on channel=7 note=63 velocity=58 time=0
EXTRACT: note_on channel=10 note=55 velocity=77 time=0
EXTRACT: note_on channel=10 note=60 velocity=74 time=0
EXTRACT: note_on channel=10 note=63 velocity=74 time=0
EXTRACT: note_on channel=14 note=87 velocity=74 time=0
EXTRACT: control_change channel=10 control=64 value=0 time=0.021875000000000002
EXTRACT: control_change channel=10 control=64 value=127 time=0.1953125
EXTRACT: note_off channel=10 note=55 velocity=64 time=0.08125
EXTRACT: note_off channel=10 note=60 velocity=64 time=0.0015625
EXTRACT: note_off channel=10 note=63 velocity=64 time=0.015625
EXTRACT: note_on channel=3 note=75 velocity=90 time=0.026562500000000003
EXTRACT: note_off channel=3 note=79 velocity=64 time=0.00625
EXTRACT: note_off channel=1 note=36 velocity=64 time=0.2703125
EXTRACT: note_off channel=3 note=75 velocity=64 time=0.010937500000000001
EXTRACT: note_off channel=2 note=67 velocity=64 time=0.1
EXTRACT: note_off channel=7 note=55 velocity=64 time=0.010937500000000001
EXTRACT: note_off channel=7 note=60 velocity=64 time=0
EXTRACT: note_off channel=7 note=63 velocity=64 time=0
EXTRACT: note_off channel=2 note=65 velocity=64 time=0.0015625
EXTRACT: note_on channel=1 note=29 velocity=102 time=0.0078125
EXTRACT: note_on channel=7 note=53 velocity=58 time=0
EXTRACT: note_on channel=7 note=56 velocity=59 time=0
EXTRACT: note_on channel=7 note=60 velocity=58 time=0
EXTRACT: note_on channel=7 note=63 velocity=58 time=0
EXTRACT: note_on channel=9 note=35 velocity=118 time=0
EXTRACT: note_on channel=9 note=51 velocity=82 time=0
EXTRACT: note_on channel=10 note=53 velocity=66 time=0
EXTRACT: note_on channel=10 note=56 velocity=69 time=0
EXTRACT: note_on channel=10 note=60 velocity=79 time=0
EXTRACT: note_on channel=10 note=63 velocity=66 time=0
EXTRACT: note_off channel=2 note=60 velocity=64 time=0.010937500000000001
EXTRACT: control_change channel=10 control=64 value=0 time=0.045312500000000006
EXTRACT: note_off channel=9 note=35 velocity=64 time=0.025
EXTRACT: note_off channel=9 note=51 velocity=64 time=0.07187500000000001
EXTRACT: note_on channel=2 note=60 velocity=82 time=0.22187500000000002
EXTRACT: note_on channel=3 note=79 velocity=92 time=0.37031250000000004
EXTRACT: note_on channel=2 note=68 velocity=85 time=0.004687500000000001
EXTRACT: control_change channel=10 control=64 value=127 time=0.09375
EXTRACT: control_change channel=2 control=64 value=127 time=0.10312500000000001
EXTRACT: note_off channel=2 note=60 velocity=64 time=0.0203125
EXTRACT: note_off channel=10 note=53 velocity=64 time=0.021875000000000002
EXTRACT: note_off channel=10 note=56 velocity=64 time=0.029687500000000002
EXTRACT: note_off channel=10 note=60 velocity=64 time=0.0234375
EXTRACT: note_off channel=10 note=63 velocity=64 time=0.0015625
EXTRACT: note_on channel=3 note=75 velocity=90 time=0.040625
EXTRACT: note_off channel=3 note=79 velocity=64 time=0.0015625
EXTRACT: note_on channel=2 note=60 velocity=79 time=0.0390625
EXTRACT: note_off channel=1 note=29 velocity=64 time=0.24375000000000002
EXTRACT: note_off channel=3 note=75 velocity=64 time=0.06406250000000001
EXTRACT: note_off channel=7 note=53 velocity=64 time=0.0578125
EXTRACT: note_off channel=7 note=56 velocity=64 time=0
EXTRACT: note_off channel=7 note=60 velocity=64 time=0
EXTRACT: note_off channel=7 note=63 velocity=64 time=0
EXTRACT: note_off channel=6 note=82 velocity=64 time=0.003125
EXTRACT: note_off channel=6 note=94 velocity=64 time=0
EXTRACT: note_on channel=1 note=32 velocity=103 time=0.00625
EXTRACT: note_on channel=6 note=80 velocity=62 time=0
EXTRACT: note_on channel=6 note=92 velocity=63 time=0
EXTRACT: note_on channel=7 note=56 velocity=58 time=0
EXTRACT: note_on channel=7 note=60 velocity=58 time=0
EXTRACT: note_on channel=7 note=63 velocity=58 time=0
EXTRACT: note_on channel=9 note=35 velocity=119 time=0
EXTRACT: note_on channel=9 note=51 velocity=79 time=0
EXTRACT: note_on channel=10 note=56 velocity=58 time=0
EXTRACT: note_on channel=10 note=60 velocity=80 time=0
EXTRACT: note_on channel=10 note=63 velocity=60 time=0
EXTRACT: control_change channel=10 control=64 value=0 time=0
EXTRACT: note_off channel=2 note=68 velocity=64 time=0.09843750000000001
EXTRACT: control_change channel=2 control=64 value=0 time=0.003125
EXTRACT: note_off channel=9 note=35 velocity=64 time=0.010937500000000001
EXTRACT: note_off channel=9 note=51 velocity=64 time=0.0125
EXTRACT: note_off channel=2 note=60 velocity=64 time=0.1046875
EXTRACT: control_change channel=2 control=64 value=127 time=0.134375
EXTRACT: note_on channel=2 note=60 velocity=79 time=0.010937500000000001
EXTRACT: control_change channel=2 control=64 value=0 time=0.1875
EXTRACT: note_on channel=2 note=63 velocity=83 time=0.059375000000000004
EXTRACT: note_on channel=3 note=79 velocity=92 time=0
EXTRACT: note_off channel=2 note=60 velocity=64 time=0.19062500000000002
EXTRACT: note_off channel=3 note=79 velocity=64 time=0.17500000000000002
EXTRACT: note_on channel=2 note=60 velocity=82 time=0.009375000000000001
EXTRACT: note_on channel=3 note=80 velocity=90 time=0
EXTRACT: note_off channel=3 note=80 velocity=64 time=0.34687500000000004
EXTRACT: note_off channel=2 note=60 velocity=64 time=0.0125
EXTRACT: note_off channel=14 note=87 velocity=64 time=0.009375000000000001
EXTRACT: note_off channel=1 note=32 velocity=64 time=0
EXTRACT: note_off channel=6 note=80 velocity=64 time=0
EXTRACT: note_off channel=6 note=92 velocity=64 time=0
EXTRACT: note_off channel=2 note=63 velocity=64 time=0.0015625
EXTRACT: note_on channel=1 note=31 velocity=103 time=0.004687500000000001
EXTRACT: note_on channel=3 note=82 velocity=93 time=0
EXTRACT: note_on channel=6 note=77 velocity=58 time=0
EXTRACT: note_on channel=6 note=89 velocity=63 time=0
EXTRACT: note_on channel=7 note=55 velocity=59 time=0
EXTRACT: note_on channel=7 note=58 velocity=59 time=0
EXTRACT: note_on channel=7 note=62 velocity=59 time=0
EXTRACT: note_on channel=7 note=65 velocity=58 time=0
EXTRACT: note_on channel=9 note=35 velocity=119 time=0
EXTRACT: note_on channel=9 note=51 velocity=83 time=0
EXTRACT: note_on channel=10 note=55 velocity=76 time=0
EXTRACT: note_on channel=10 note=58 velocity=68 time=0
EXTRACT: note_on channel=10 note=62 velocity=82 time=0
EXTRACT: note_on channel=10 note=65 velocity=80 time=0
EXTRACT: note_on channel=14 note=89 velocity=74 time=0
EXTRACT: note_off channel=7 note=63 velocity=64 time=0.0015625
EXTRACT: note_off channel=10 note=63 velocity=64 time=0
EXTRACT: note_off channel=7 note=56 velocity=64 time=0.0015625
EXTRACT: note_off channel=10 note=56 velocity=64 time=0
EXTRACT: note_off channel=7 note=60 velocity=64 time=0.00625
EXTRACT: note_off channel=10 note=60 velocity=64 time=0
EXTRACT: note_off channel=9 note=35 velocity=64 time=0.07187500000000001
EXTRACT: note_off channel=9 note=51 velocity=64 time=0.07187500000000001
EXTRACT: note_on channel=2 note=62 velocity=76 time=0.22187500000000002
EXTRACT: control_change channel=10 control=64 value=127 time=0.0859375
EXTRACT: note_off channel=3 note=82 velocity=64 time=0.0171875
EXTRACT: note_on channel=2 note=70 velocity=78 time=0.27187500000000003
EXTRACT: note_on channel=3 note=79 velocity=91 time=0.003125
EXTRACT: control_change channel=2 control=64 value=127 time=0.134375
EXTRACT: note_off channel=2 note=62 velocity=64 time=0.040625
EXTRACT: note_on channel=3 note=75 velocity=92 time=0.1875
EXTRACT: note_off channel=3 note=79 velocity=64 time=0.004687500000000001
EXTRACT: note_on channel=2 note=65 velocity=79 time=0.004687500000000001
EXTRACT: note_off channel=1 note=31 velocity=64 time=0.18125000000000002
EXTRACT: note_off channel=10 note=65 velocity=64 time=0.09843750000000001
EXTRACT: note_off channel=10 note=55 velocity=64 time=0.035937500000000004
EXTRACT: note_off channel=10 note=58 velocity=64 time=0.009375000000000001
EXTRACT: note_off channel=10 note=62 velocity=64 time=0.004687500000000001
EXTRACT: note_off channel=6 note=77 velocity=64 time=0.0390625
EXTRACT: note_off channel=6 note=89 velocity=64 time=0
EXTRACT: note_off channel=7 note=55 velocity=64 time=0
EXTRACT: note_off channel=7 note=58 velocity=64 time=0
EXTRACT: note_off channel=7 note=62 velocity=64 time=0
EXTRACT: note_off channel=7 note=65 velocity=64 time=0
EXTRACT: note_off channel=14 note=89 velocity=64 time=0
EXTRACT: note_off channel=2 note=65 velocity=64 time=0
EXTRACT: note_on channel=1 note=36 velocity=102 time=0.00625
EXTRACT: note_on channel=2 note=67 velocity=75 time=0
EXTRACT: note_on channel=6 note=82 velocity=59 time=0
EXTRACT: note_on channel=6 note=94 velocity=62 time=0
EXTRACT: note_on channel=7 note=55 velocity=58 time=0
EXTRACT: note_on channel=7 note=60 velocity=59 time=0
EXTRACT: note_on channel=7 note=63 velocity=59 time=0
EXTRACT: note_on channel=9 note=35 velocity=118 time=0
EXTRACT: note_on channel=9 note=51 velocity=78 time=0
EXTRACT: note_on channel=10 note=55 velocity=76 time=0
EXTRACT: note_on channel=10 note=60 velocity=74 time=0
EXTRACT: note_on channel=10 note=63 velocity=75 time=0
EXTRACT: note_on channel=14 note=87 velocity=74 time=0
EXTRACT: control_change channel=10 control=64 value=0 time=0.0078125
EXTRACT: note_off channel=3 note=75 velocity=64 time=0.025
EXTRACT: control_change channel=2 control=64 value=0 time=0.010937500000000001
EXTRACT: note_off channel=9 note=35 velocity=64 time=0.06875
EXTRACT: note_off channel=9 note=51 velocity=64 time=0.0125
EXTRACT: control_change channel=2 control=64 value=127 time=0.11406250000000001
EXTRACT: control_change channel=10 control=64 value=127 time=0.03125
EXTRACT: note_on channel=2 note=60 velocity=78 time=0.1046875
EXTRACT: pitchwheel channel=1 pitch=-256 time=0.0078125
EXTRACT: pitchwheel channel=1 pitch=-768 time=0.018750000000000003
EXTRACT: pitchwheel channel=1 pitch=-1536 time=0.0171875
EXTRACT: pitchwheel channel=1 pitch=-2304 time=0.018750000000000003
EXTRACT: pitchwheel channel=1 pitch=-2944 time=0.018750000000000003
EXTRACT: pitchwheel channel=1 pitch=-4224 time=0.0171875
EXTRACT: pitchwheel channel=1 pitch=-5248 time=0.0203125
EXTRACT: pitchwheel channel=1 pitch=-6144 time=0.018750000000000003
EXTRACT: pitchwheel channel=1 pitch=-6912 time=0.018750000000000003
EXTRACT: pitchwheel channel=1 pitch=-7296 time=0.018750000000000003
EXTRACT: note_off channel=2 note=67 velocity=64 time=0.00625
EXTRACT: pitchwheel channel=1 pitch=-7680 time=0.010937500000000001
EXTRACT: pitchwheel channel=1 pitch=-7808 time=0.0171875
EXTRACT: pitchwheel channel=1 pitch=-7680 time=0.018750000000000003
EXTRACT: pitchwheel channel=1 pitch=-7168 time=0.018750000000000003
EXTRACT: note_off channel=1 note=36 velocity=64 time=0.0125
EXTRACT: pitchwheel channel=1 pitch=-6272 time=0.00625
EXTRACT: pitchwheel channel=1 pitch=-4480 time=0.018750000000000003
EXTRACT: pitchwheel channel=1 pitch=-2560 time=0.018750000000000003
EXTRACT: pitchwheel channel=1 pitch=-1024 time=0.018750000000000003
EXTRACT: pitchwheel channel=1 pitch=0 time=0.018750000000000003
EXTRACT: note_on channel=1 note=36 velocity=103 time=0.034375
EXTRACT: note_on channel=2 note=67 velocity=74 time=0
EXTRACT: control_change channel=2 control=64 value=0 time=0.0140625
EXTRACT: note_on channel=3 note=79 velocity=91 time=0.00625
EXTRACT: note_off channel=2 note=60 velocity=64 time=0.1609375
EXTRACT: control_change channel=2 control=64 value=127 time=0.029687500000000002
EXTRACT: pitchwheel channel=1 pitch=-256 time=0.0671875
EXTRACT: pitchwheel channel=1 pitch=-384 time=0.0203125
EXTRACT: pitchwheel channel=1 pitch=-1024 time=0.018750000000000003
EXTRACT: pitchwheel channel=1 pitch=-1408 time=0.018750000000000003
EXTRACT: pitchwheel channel=1 pitch=-1664 time=0.015625
EXTRACT: pitchwheel channel=1 pitch=-2304 time=0.018750000000000003
EXTRACT: note_on channel=2 note=60 velocity=78 time=0.004687500000000001
EXTRACT: note_off channel=3 note=79 velocity=64 time=0.004687500000000001
EXTRACT: note_on channel=3 note=75 velocity=92 time=0.00625
EXTRACT: note_off channel=2 note=67 velocity=64 time=0.003125
EXTRACT: pitchwheel channel=1 pitch=-2688 time=0
EXTRACT: pitchwheel channel=1 pitch=-2944 time=0.0203125
EXTRACT: control_change channel=2 control=64 value=0 time=0
EXTRACT: pitchwheel channel=1 pitch=-3584 time=0.0171875
EXTRACT: pitchwheel channel=1 pitch=-3712 time=0.018750000000000003
EXTRACT: pitchwheel channel=1 pitch=-4224 time=0.018750000000000003
EXTRACT: pitchwheel channel=1 pitch=-4608 time=0.0203125
EXTRACT: pitchwheel channel=1 pitch=-4992 time=0.018750000000000003
EXTRACT: note_off channel=2 note=70 velocity=64 time=0.00625
EXTRACT: pitchwheel channel=1 pitch=-5376 time=0.010937500000000001
EXTRACT: pitchwheel channel=1 pitch=-5888 time=0.018750000000000003
EXTRACT: pitchwheel channel=1 pitch=-6144 time=0.015625
EXTRACT: pitchwheel channel=1 pitch=-6528 time=0.0203125
EXTRACT: pitchwheel channel=1 pitch=-6656 time=0.018750000000000003
EXTRACT: pitchwheel channel=1 pitch=-6784 time=0.018750000000000003
EXTRACT: pitchwheel channel=1 pitch=-6912 time=0.018750000000000003
EXTRACT: note_off channel=1 note=36 velocity=64 time=0.003125
EXTRACT: pitchwheel channel=1 pitch=-6784 time=0.0140625
EXTRACT: pitchwheel channel=1 pitch=-6016 time=0.018750000000000003
EXTRACT: pitchwheel channel=1 pitch=-4480 time=0.018750000000000003
EXTRACT: pitchwheel channel=1 pitch=-2688 time=0.0203125
EXTRACT: pitchwheel channel=1 pitch=-1024 time=0.015625
EXTRACT: note_off channel=10 note=55 velocity=64 time=0.0078125
EXTRACT: note_off channel=10 note=60 velocity=64 time=0
EXTRACT: note_off channel=3 note=75 velocity=64 time=0.010937500000000001
EXTRACT: pitchwheel channel=1 pitch=0 time=0
EXTRACT: note_off channel=7 note=55 velocity=64 time=0.003125
EXTRACT: note_off channel=7 note=60 velocity=64 time=0
EXTRACT: note_off channel=7 note=63 velocity=64 time=0
EXTRACT: note_off channel=2 note=60 velocity=64 time=0
EXTRACT: note_off channel=10 note=63 velocity=64 time=0.003125
EXTRACT: note_on channel=1 note=29 velocity=102 time=0.003125
EXTRACT: note_on channel=7 note=53 velocity=59 time=0
EXTRACT: note_on channel=7 note=56 velocity=59 time=0
EXTRACT: note_on channel=7 note=60 velocity=58 time=0
EXTRACT: note_on channel=7 note=63 velocity=58 time=0
EXTRACT: note_on channel=9 note=35 velocity=119 time=0
EXTRACT: note_on channel=9 note=51 velocity=82 time=0
EXTRACT: note_on channel=10 note=53 velocity=66 time=0
EXTRACT: note_on channel=10 note=56 velocity=68 time=0
EXTRACT: note_on channel=10 note=60 velocity=78 time=0
EXTRACT: note_on channel=10 note=63 velocity=66 time=0
EXTRACT: control_change channel=10 control=64 value=0 time=0.0171875
EXTRACT: note_off channel=9 note=35 velocity=64 time=0.06406250000000001
EXTRACT: note_off channel=9 note=51 velocity=64 time=0.07187500000000001
EXTRACT: note_on channel=2 note=60 velocity=82 time=0.22187500000000002
EXTRACT: note_on channel=2 note=68 velocity=84 time=0.375
EXTRACT: note_on channel=3 note=79 velocity=91 time=0.026562500000000003
EXTRACT: note_on channel=3 note=75 velocity=92 time=0.15625
EXTRACT: note_off channel=3 note=79 velocity=64 time=0.021875000000000002
EXTRACT: note_off channel=2 note=60 velocity=64 time=0.0125
EXTRACT: note_off channel=3 note=75 velocity=64 time=0.146875
EXTRACT: note_on channel=2 note=60 velocity=78 time=0.010937500000000001
EXTRACT: note_on channel=3 note=77 velocity=90 time=0.025
EXTRACT: note_off channel=10 note=60 velocity=64 time=0.265625
EXTRACT: note_off channel=10 note=63 velocity=64 time=0.0015625
EXTRACT: note_off channel=10 note=53 velocity=64 time=0.0203125
EXTRACT: note_off channel=10 note=56 velocity=64 time=0.03125
EXTRACT: note_off channel=7 note=53 velocity=64 time=0.021875000000000002
EXTRACT: note_off channel=7 note=56 velocity=64 time=0
EXTRACT: note_off channel=7 note=60 velocity=64 time=0
EXTRACT: note_off channel=7 note=63 velocity=64 time=0
EXTRACT: note_off channel=6 note=82 velocity=64 time=0.003125
EXTRACT: note_off channel=6 note=94 velocity=64 time=0
EXTRACT: note_off channel=1 note=29 velocity=64 time=0
EXTRACT: note_on channel=1 note=32 velocity=103 time=0.00625
EXTRACT: note_on channel=6 note=80 velocity=58 time=0
EXTRACT: note_on channel=6 note=92 velocity=63 time=0
EXTRACT: note_on channel=7 note=56 velocity=59 time=0
EXTRACT: note_on channel=7 note=60 velocity=58 time=0
EXTRACT: note_on channel=7 note=63 velocity=59 time=0
EXTRACT: note_on channel=9 note=35 velocity=119 time=0
EXTRACT: note_on channel=9 note=51 velocity=78 time=0
EXTRACT: note_on channel=10 note=56 velocity=59 time=0
EXTRACT: note_on channel=10 note=60 velocity=80 time=0
EXTRACT: note_on channel=10 note=63 velocity=61 time=0
EXTRACT: note_off channel=2 note=68 velocity=64 time=0.09843750000000001
EXTRACT: note_off channel=9 note=35 velocity=64 time=0.0140625
EXTRACT: note_off channel=9 note=51 velocity=64 time=0.0125
EXTRACT: note_off channel=2 note=60 velocity=64 time=0.1046875
EXTRACT: note_on channel=2 note=60 velocity=79 time=0.1453125
EXTRACT: note_on channel=2 note=63 velocity=83 time=0.375
EXTRACT: control_change channel=10 control=64 value=127 time=0.010937500000000001
EXTRACT: note_off channel=2 note=60 velocity=64 time=0.1796875
EXTRACT: note_on channel=2 note=60 velocity=82 time=0.18125000000000002
EXTRACT: note_off channel=3 note=77 velocity=64 time=0.09531250000000001
EXTRACT: control_change channel=10 control=64 value=0 time=0.2625
EXTRACT: note_off channel=2 note=60 velocity=64 time=0.0015625
EXTRACT: note_on channel=3 note=79 velocity=91 time=0.004687500000000001
EXTRACT: note_off channel=2 note=63 velocity=64 time=0.00625
EXTRACT: control_change channel=10 control=64 value=127 time=0.18281250000000002
EXTRACT: note_on channel=2 note=60 velocity=77 time=0.19687500000000002
EXTRACT: note_on channel=2 note=68 velocity=78 time=0.375
EXTRACT: control_change channel=10 control=64 value=0 time=0.021875000000000002
EXTRACT: note_off channel=2 note=60 velocity=64 time=0.15625
EXTRACT: control_change channel=10 control=64 value=127 time=0.0390625
EXTRACT: note_on channel=2 note=60 velocity=79 time=0.15781250000000002
EXTRACT: note_off channel=10 note=63 velocity=64 time=0.33125000000000004
EXTRACT: note_off channel=10 note=56 velocity=64 time=0.0015625
EXTRACT: note_off channel=10 note=60 velocity=64 time=0.004687500000000001
EXTRACT: note_off channel=7 note=63 velocity=64 time=0.029687500000000002
EXTRACT: note_off channel=14 note=87 velocity=64 time=0.0015625
EXTRACT: note_off channel=1 note=32 velocity=64 time=0
EXTRACT: note_off channel=6 note=80 velocity=64 time=0
EXTRACT: note_off channel=6 note=92 velocity=64 time=0
EXTRACT: note_off channel=7 note=56 velocity=64 time=0
EXTRACT: note_off channel=7 note=60 velocity=64 time=0.004687500000000001
EXTRACT: note_on channel=1 note=34 velocity=102 time=0.0015625
EXTRACT: note_on channel=6 note=77 velocity=58 time=0
EXTRACT: note_on channel=6 note=89 velocity=62 time=0
EXTRACT: note_on channel=7 note=58 velocity=58 time=0
EXTRACT: note_on channel=7 note=62 velocity=59 time=0
EXTRACT: note_on channel=7 note=65 velocity=59 time=0
EXTRACT: note_on channel=9 note=47 velocity=86 time=0
EXTRACT: note_on channel=10 note=58 velocity=69 time=0
EXTRACT: note_on channel=10 note=62 velocity=82 time=0
EXTRACT: note_on channel=10 note=65 velocity=81 time=0
EXTRACT: note_on channel=14 note=89 velocity=75 time=0
EXTRACT: note_off channel=3 note=79 velocity=64 time=0.018750000000000003
EXTRACT: note_on channel=3 note=80 velocity=92 time=0.0140625
EXTRACT: control_change channel=10 control=64 value=0 time=0.0234375
EXTRACT: note_off channel=9 note=47 velocity=64 time=0.043750000000000004
EXTRACT: note_off channel=2 note=60 velocity=64 time=0.08125
EXTRACT: note_on channel=9 note=40 velocity=80 time=0.00625
EXTRACT: note_off channel=9 note=40 velocity=64 time=0.07187500000000001
EXTRACT: note_on channel=2 note=62 velocity=78 time=0.115625
EXTRACT: note_on channel=9 note=45 velocity=76 time=0.1875
EXTRACT: note_off channel=9 note=45 velocity=64 time=0.065625
EXTRACT: note_on channel=2 note=65 velocity=78 time=0.12187500000000001
EXTRACT: note_on channel=9 note=45 velocity=86 time=0
EXTRACT: control_change channel=10 control=64 value=127 time=0.09375
EXTRACT: note_off channel=9 note=45 velocity=64 time=0.0625
EXTRACT: note_off channel=2 note=62 velocity=64 time=0.025
EXTRACT: note_on channel=9 note=40 velocity=76 time=0.00625
EXTRACT: note_on channel=6 note=72 velocity=82 time=0.03125
EXTRACT: note_off channel=9 note=40 velocity=64 time=0.043750000000000004
EXTRACT: note_on channel=6 note=74 velocity=84 time=0.03125
EXTRACT: note_off channel=6 note=72 velocity=64 time=0.025
EXTRACT: note_on channel=6 note=75 velocity=85 time=0.034375
EXTRACT: note_off channel=2 note=65 velocity=64 time=0.015625
EXTRACT: note_on channel=2 note=65 velocity=79 time=0.00625
EXTRACT: note_on channel=9 note=43 velocity=83 time=0
EXTRACT: note_off channel=6 note=74 velocity=64 time=0.0015625
EXTRACT: note_off channel=6 note=75 velocity=64 time=0.07500000000000001
EXTRACT: note_on channel=6 note=77 velocity=89 time=0.004687500000000001
EXTRACT: note_off channel=9 note=43 velocity=64 time=0.00625
EXTRACT: note_off channel=2 note=68 velocity=64 time=0.046875
EXTRACT: note_off channel=6 note=77 velocity=64 time=0.045312500000000006
EXTRACT: note_on channel=9 note=43 velocity=109 time=0.0078125
EXTRACT: note_on channel=6 note=79 velocity=90 time=0.0125
EXTRACT: note_on channel=6 note=80 velocity=92 time=0.07187500000000001
EXTRACT: note_off channel=10 note=65 velocity=64 time=0.0078125
EXTRACT: note_off channel=6 note=79 velocity=64 time=0
EXTRACT: note_off channel=9 note=43 velocity=64 time=0.003125
EXTRACT: note_off channel=10 note=58 velocity=64 time=0.0421875
EXTRACT: note_off channel=10 note=62 velocity=64 time=0.004687500000000001
EXTRACT: note_off channel=3 note=80 velocity=64 time=0.029687500000000002
EXTRACT: note_off channel=1 note=34 velocity=64 time=0.009375000000000001
EXTRACT: note_off channel=6 note=77 velocity=64 time=0
EXTRACT: note_off channel=6 note=89 velocity=64 time=0
EXTRACT: note_off channel=7 note=58 velocity=64 time=0
EXTRACT: note_off channel=7 note=62 velocity=64 time=0
EXTRACT: note_off channel=7 note=65 velocity=64 time=0
EXTRACT: note_off channel=14 note=89 velocity=64 time=0
EXTRACT: note_off channel=2 note=65 velocity=64 time=0
EXTRACT: note_on channel=1 note=32 velocity=102 time=0.00625
EXTRACT: note_on channel=3 note=82 velocity=88 time=0
EXTRACT: note_on channel=4 note=65 velocity=9 time=0
EXTRACT: note_on channel=6 note=82 velocity=62 time=0
EXTRACT: note_on channel=7 note=56 velocity=59 time=0
EXTRACT: note_on channel=7 note=60 velocity=59 time=0
EXTRACT: note_on channel=7 note=63 velocity=58 time=0
EXTRACT: note_on channel=7 note=67 velocity=58 time=0
EXTRACT: note_on channel=9 note=35 velocity=118 time=0
EXTRACT: note_on channel=9 note=51 velocity=83 time=0
EXTRACT: note_on channel=9 note=57 velocity=82 time=0
EXTRACT: note_on channel=10 note=56 velocity=54 time=0
EXTRACT: note_on channel=10 note=60 velocity=79 time=0
EXTRACT: note_on channel=10 note=63 velocity=55 time=0
EXTRACT: note_on channel=10 note=67 velocity=83 time=0
EXTRACT: note_on channel=14 note=82 velocity=75 time=0
EXTRACT: control_change channel=10 control=64 value=0 time=0
EXTRACT: note_off channel=6 note=80 velocity=64 time=0.0015625
EXTRACT: note_off channel=9 note=35 velocity=64 time=0.07968750000000001
EXTRACT: note_off channel=9 note=51 velocity=64 time=0.07187500000000001
EXTRACT: note_off channel=9 note=57 velocity=64 time=0
EXTRACT: note_off channel=3 note=82 velocity=64 time=0.0890625
EXTRACT: note_off channel=4 note=65 velocity=64 time=0.1234375
EXTRACT: note_on channel=2 note=60 velocity=78 time=0.009375000000000001
EXTRACT: note_on channel=3 note=82 velocity=88 time=0
EXTRACT: note_on channel=4 note=65 velocity=9 time=0
EXTRACT: note_on channel=9 note=51 velocity=69 time=0
EXTRACT: note_off channel=9 note=51 velocity=64 time=0.11406250000000001
EXTRACT: note_off channel=1 note=32 velocity=64 time=0.1296875
EXTRACT: note_off channel=3 note=82 velocity=64 time=0.043750000000000004
EXTRACT: note_off channel=4 note=65 velocity=64 time=0.078125
EXTRACT: note_on channel=1 note=32 velocity=103 time=0.009375000000000001
EXTRACT: note_on channel=2 note=67 velocity=80 time=0
EXTRACT: note_on channel=3 note=82 velocity=88 time=0
EXTRACT: note_on channel=4 note=65 velocity=9 time=0
EXTRACT: note_on channel=6 note=72 velocity=58 time=0
EXTRACT: note_on channel=9 note=38 velocity=102 time=0
EXTRACT: note_on channel=9 note=51 velocity=90 time=0
EXTRACT: control_change channel=10 control=64 value=127 time=0.010937500000000001
EXTRACT: note_off channel=9 note=38 velocity=64 time=0.12187500000000001
EXTRACT: note_off channel=9 note=51 velocity=64 time=0.0078125
EXTRACT: note_off channel=10 note=60 velocity=64 time=0.060937500000000006
EXTRACT: note_off channel=10 note=56 velocity=64 time=0.0078125
EXTRACT: note_off channel=10 note=67 velocity=64 time=0.003125
EXTRACT: note_off channel=10 note=63 velocity=64 time=0.004687500000000001
EXTRACT: note_off channel=2 note=60 velocity=64 time=0.065625
EXTRACT: note_off channel=3 note=82 velocity=64 time=0.003125
EXTRACT: note_off channel=4 note=65 velocity=64 time=0.07968750000000001
EXTRACT: note_on channel=2 note=60 velocity=78 time=0.009375000000000001
EXTRACT: note_on channel=3 note=82 velocity=93 time=0
EXTRACT: note_on channel=4 note=65 velocity=9 time=0
EXTRACT: note_on channel=9 note=51 velocity=67 time=0
EXTRACT: note_off channel=9 note=51 velocity=64 time=0.10625000000000001
EXTRACT: note_off channel=1 note=32 velocity=64 time=0.1375
EXTRACT: note_off channel=2 note=67 velocity=64 time=0.08750000000000001
EXTRACT: control_change channel=10 control=64 value=0 time=0.026562500000000003
EXTRACT: note_off channel=7 note=56 velocity=64 time=0.0078125
EXTRACT: note_off channel=7 note=60 velocity=64 time=0
EXTRACT: note_off channel=7 note=63 velocity=64 time=0
EXTRACT: note_off channel=7 note=67 velocity=64 time=0
EXTRACT: note_off channel=6 note=72 velocity=64 time=0.003125
EXTRACT: note_on channel=1 note=31 velocity=102 time=0.00625
EXTRACT: note_on channel=2 note=62 velocity=78 time=0
EXTRACT: note_on channel=6 note=74 velocity=58 time=0
EXTRACT: note_on channel=7 note=55 velocity=58 time=0
EXTRACT: note_on channel=7 note=58 velocity=58 time=0
EXTRACT: note_on channel=7 note=62 velocity=58 time=0
EXTRACT: note_on channel=7 note=65 velocity=58 time=0
EXTRACT: note_on channel=9 note=35 velocity=118 time=0
EXTRACT: note_on channel=9 note=51 velocity=78 time=0
EXTRACT: note_on channel=10 note=55 velocity=77 time=0
EXTRACT: note_on channel=10 note=58 velocity=69 time=0
EXTRACT: note_on channel=10 note=62 velocity=82 time=0
EXTRACT: note_on channel=10 note=65 velocity=80 time=0
EXTRACT: note_off channel=9 note=35 velocity=64 time=0.037500000000000006
EXTRACT: note_off channel=3 note=82 velocity=64 time=0.010937500000000001
EXTRACT: note_off channel=9 note=51 velocity=64 time=0.0015625
EXTRACT: control_change channel=10 control=64 value=127 time=0.053125000000000006
EXTRACT: note_off channel=10 note=65 velocity=64 time=0.12812500000000002
EXTRACT: note_off channel=10 note=55 velocity=64 time=0.035937500000000004
EXTRACT: note_off channel=10 note=58 velocity=64 time=0.0078125
EXTRACT: note_off channel=10 note=62 velocity=64 time=0.004687500000000001
EXTRACT: note_on channel=3 note=82 velocity=93 time=0.0203125
EXTRACT: note_on channel=9 note=51 velocity=70 time=0
EXTRACT: note_off channel=9 note=51 velocity=64 time=0.10312500000000001
EXTRACT: note_off channel=1 note=31 velocity=64 time=0.140625
EXTRACT: note_off channel=3 note=82 velocity=64 time=0.10625000000000001
EXTRACT: note_off channel=7 note=55 velocity=64 time=0.015625
EXTRACT: note_off channel=7 note=58 velocity=64 time=0
EXTRACT: note_off channel=7 note=62 velocity=64 time=0
EXTRACT: note_off channel=7 note=65 velocity=64 time=0
EXTRACT: note_off channel=6 note=74 velocity=64 time=0.003125
EXTRACT: note_on channel=1 note=36 velocity=102 time=0.00625
EXTRACT: note_on channel=2 note=63 velocity=77 time=0
EXTRACT: note_on channel=3 note=79 velocity=88 time=0
EXTRACT: note_on channel=6 note=75 velocity=58 time=0
EXTRACT: note_on channel=7 note=55 velocity=58 time=0
EXTRACT: note_on channel=7 note=60 velocity=58 time=0
EXTRACT: note_on channel=7 note=63 velocity=59 time=0
EXTRACT: note_on channel=9 note=38 velocity=103 time=0
EXTRACT: note_on channel=9 note=51 velocity=94 time=0
EXTRACT: note_on channel=10 note=55 velocity=77 time=0
EXTRACT: note_on channel=10 note=60 velocity=75 time=0
EXTRACT: note_on channel=10 note=63 velocity=74 time=0
EXTRACT: control_change channel=10 control=64 value=0 time=0.021875000000000002
EXTRACT: note_off channel=9 note=38 velocity=64 time=0.1015625
EXTRACT: note_off channel=9 note=51 velocity=64 time=0.0140625
EXTRACT: control_change channel=10 control=64 value=127 time=0.07968750000000001
EXTRACT: note_off channel=10 note=55 velocity=64 time=0.08125
EXTRACT: note_off channel=10 note=60 velocity=64 time=0.0015625
EXTRACT: note_off channel=10 note=63 velocity=64 time=0.015625
EXTRACT: note_off channel=3 note=79 velocity=64 time=0.043750000000000004
EXTRACT: note_on channel=3 note=82 velocity=92 time=0.015625
EXTRACT: note_on channel=9 note=51 velocity=73 time=0
EXTRACT: note_off channel=9 note=51 velocity=64 time=0.1203125
EXTRACT: note_off channel=1 note=36 velocity=64 time=0.1234375
EXTRACT: note_off channel=2 note=63 velocity=64 time=0.11093750000000001
EXTRACT: note_off channel=4 note=65 velocity=64 time=0.010937500000000001
EXTRACT: note_off channel=7 note=55 velocity=64 time=0
EXTRACT: note_off channel=7 note=60 velocity=64 time=0
EXTRACT: note_off channel=7 note=63 velocity=64 time=0
EXTRACT: note_off channel=2 note=62 velocity=64 time=0.0015625
EXTRACT: note_off channel=6 note=75 velocity=64 time=0.0015625
EXTRACT: note_on channel=1 note=29 velocity=102 time=0.00625
EXTRACT: note_on channel=3 note=79 velocity=90 time=0
EXTRACT: note_on channel=6 note=72 velocity=58 time=0
EXTRACT: note_on channel=7 note=53 velocity=59 time=0
EXTRACT: note_on channel=7 note=56 velocity=58 time=0
EXTRACT: note_on channel=7 note=60 velocity=59 time=0
EXTRACT: note_on channel=7 note=63 velocity=58 time=0
EXTRACT: note_on channel=9 note=35 velocity=118 time=0
EXTRACT: note_on channel=9 note=51 velocity=82 time=0
EXTRACT: note_on channel=10 note=53 velocity=67 time=0
EXTRACT: note_on channel=10 note=56 velocity=68 time=0
EXTRACT: note_on channel=10 note=60 velocity=78 time=0
EXTRACT: note_on channel=10 note=63 velocity=67 time=0
EXTRACT: note_off channel=3 note=82 velocity=64 time=0.0078125
EXTRACT: note_off channel=2 note=60 velocity=64 time=0.003125
EXTRACT: control_change channel=10 control=64 value=0 time=0.045312500000000006
EXTRACT: note_off channel=9 note=35 velocity=64 time=0.025
EXTRACT: note_off channel=9 note=51 velocity=64 time=0.07187500000000001
EXTRACT: note_off channel=3 note=79 velocity=64 time=0.1953125
EXTRACT: note_on channel=2 note=60 velocity=83 time=0.026562500000000003
EXTRACT: note_on channel=3 note=82 velocity=88 time=0
EXTRACT: note_on channel=9 note=51 velocity=68 time=0
EXTRACT: note_off channel=9 note=51 velocity=64 time=0.11406250000000001
EXTRACT: note_off channel=3 note=82 velocity=64 time=0.2578125
EXTRACT: note_on channel=2 note=67 velocity=84 time=0.003125
EXTRACT: note_on channel=3 note=79 velocity=90 time=0
EXTRACT: note_on channel=9 note=38 velocity=102 time=0
EXTRACT: note_on channel=9 note=51 velocity=90 time=0
EXTRACT: control_change channel=10 control=64 value=127 time=0.09375
EXTRACT: note_off channel=9 note=38 velocity=64 time=0.0390625
EXTRACT: note_off channel=9 note=51 velocity=64 time=0.0078125
EXTRACT: control_change channel=2 control=64 value=127 time=0.05625
EXTRACT: note_off channel=2 note=60 velocity=64 time=0.0203125
EXTRACT: note_off channel=10 note=53 velocity=64 time=0.021875000000000002
EXTRACT: note_off channel=10 note=56 velocity=64 time=0.029687500000000002
EXTRACT: note_off channel=10 note=60 velocity=64 time=0.0234375
EXTRACT: note_off channel=10 note=63 velocity=64 time=0.0015625
EXTRACT: note_off channel=3 note=79 velocity=64 time=0.0703125
EXTRACT: note_on channel=2 note=60 velocity=78 time=0.010937500000000001
EXTRACT: note_on channel=3 note=82 velocity=88 time=0
EXTRACT: note_on channel=9 note=51 velocity=66 time=0
EXTRACT: note_off channel=9 note=51 velocity=64 time=0.10625000000000001
EXTRACT: note_off channel=1 note=29 velocity=64 time=0.1375
EXTRACT: note_off channel=3 note=82 velocity=64 time=0.11406250000000001
EXTRACT: note_off channel=7 note=53 velocity=64 time=0.0078125
EXTRACT: note_off channel=7 note=56 velocity=64 time=0
EXTRACT: note_off channel=7 note=60 velocity=64 time=0
EXTRACT: note_off channel=7 note=63 velocity=64 time=0
EXTRACT: note_on channel=1 note=32 velocity=102 time=0.009375000000000001
EXTRACT: note_on channel=2 note=63 velocity=80 time=0
EXTRACT: note_on channel=3 note=79 velocity=92 time=0
EXTRACT: note_on channel=7 note=56 velocity=59 time=0
EXTRACT: note_on channel=7 note=60 velocity=58 time=0
EXTRACT: note_on channel=7 note=63 velocity=58 time=0
EXTRACT: note_on channel=9 note=35 velocity=118 time=0
EXTRACT: note_on channel=9 note=51 velocity=78 time=0
EXTRACT: note_on channel=10 note=56 velocity=58 time=0
EXTRACT: note_on channel=10 note=60 velocity=80 time=0
EXTRACT: note_on channel=10 note=63 velocity=60 time=0
EXTRACT: control_change channel=10 control=64 value=0 time=0
EXTRACT: note_off channel=2 note=67 velocity=64 time=0.09843750000000001
EXTRACT: control_change channel=2 control=64 value=0 time=0.003125
EXTRACT: note_off channel=9 note=35 velocity=64 time=0.010937500000000001
EXTRACT: note_off channel=9 note=51 velocity=64 time=0.0125
EXTRACT: note_off channel=2 note=60 velocity=64 time=0.1046875
EXTRACT: note_off channel=3 note=79 velocity=64 time=0.1203125
EXTRACT: control_change channel=2 control=64 value=127 time=0.0140625
EXTRACT: note_on channel=2 note=60 velocity=78 time=0.010937500000000001
EXTRACT: note_on channel=3 note=75 velocity=90 time=0
EXTRACT: note_on channel=9 note=35 velocity=119 time=0
EXTRACT: note_on channel=9 note=51 velocity=70 time=0
EXTRACT: note_off channel=9 note=51 velocity=64 time=0.10312500000000001
EXTRACT: note_off channel=9 note=35 velocity=64 time=0.009375000000000001
EXTRACT: control_change channel=2 control=64 value=0 time=0.203125
EXTRACT: note_on channel=2 note=67 velocity=82 time=0.059375000000000004
EXTRACT: note_on channel=9 note=38 velocity=102 time=0
EXTRACT: note_on channel=9 note=51 velocity=94 time=0
EXTRACT: note_off channel=9 note=38 velocity=64 time=0.1234375
EXTRACT: note_off channel=9 note=51 velocity=64 time=0.0140625
EXTRACT: note_off channel=2 note=60 velocity=64 time=0.053125000000000006
EXTRACT: note_on channel=2 note=60 velocity=82 time=0.184375
EXTRACT: note_on channel=9 note=51 velocity=72 time=0
EXTRACT: note_off channel=3 note=75 velocity=64 time=0.07968750000000001
EXTRACT: note_off channel=9 note=51 velocity=64 time=0.0078125
EXTRACT: note_off channel=1 note=32 velocity=64 time=0.1234375
EXTRACT: note_off channel=2 note=60 velocity=64 time=0.115625
EXTRACT: note_off channel=6 note=82 velocity=64 time=0.009375000000000001
EXTRACT: note_off channel=6 note=72 velocity=64 time=0
EXTRACT: note_off channel=2 note=67 velocity=64 time=0.0015625
EXTRACT: note_on channel=1 note=32 velocity=103 time=0.004687500000000001
EXTRACT: note_on channel=3 note=79 velocity=92 time=0
EXTRACT: note_on channel=6 note=77 velocity=58 time=0
EXTRACT: note_on channel=7 note=56 velocity=59 time=0
EXTRACT: note_on channel=7 note=58 velocity=58 time=0
EXTRACT: note_on channel=7 note=62 velocity=58 time=0
EXTRACT: note_on channel=7 note=65 velocity=58 time=0
EXTRACT: note_on channel=9 note=35 velocity=119 time=0
EXTRACT: note_on channel=9 note=51 velocity=82 time=0
EXTRACT: note_on channel=10 note=56 velocity=58 time=0
EXTRACT: note_on channel=10 note=58 velocity=74 time=0
EXTRACT: note_on channel=10 note=62 velocity=83 time=0
EXTRACT: note_on channel=10 note=65 velocity=72 time=0
EXTRACT: note_off channel=7 note=63 velocity=64 time=0.0015625
EXTRACT: note_off channel=10 note=63 velocity=64 time=0
EXTRACT: note_off channel=7 note=56 velocity=64 time=0.0015625
EXTRACT: note_off channel=10 note=56 velocity=64 time=0
EXTRACT: note_off channel=7 note=60 velocity=64 time=0.00625
EXTRACT: note_off channel=10 note=60 velocity=64 time=0
EXTRACT: note_off channel=2 note=63 velocity=64 time=0.009375000000000001
EXTRACT: note_off channel=9 note=35 velocity=64 time=0.0625
EXTRACT: note_off channel=9 note=51 velocity=64 time=0.07187500000000001
EXTRACT: note_off channel=3 note=79 velocity=64 time=0.18281250000000002
EXTRACT: note_on channel=2 note=58 velocity=76 time=0.0390625
EXTRACT: note_on channel=3 note=80 velocity=89 time=0
EXTRACT: note_on channel=9 note=51 velocity=68 time=0
EXTRACT: control_change channel=10 control=64 value=127 time=0.0859375
EXTRACT: note_off channel=9 note=51 velocity=64 time=0.028125
EXTRACT: note_off channel=1 note=32 velocity=64 time=0.20625000000000002
EXTRACT: note_off channel=3 note=80 velocity=64 time=0.0390625
EXTRACT: note_on channel=1 note=32 velocity=103 time=0.015625
EXTRACT: note_on channel=2 note=65 velocity=78 time=0
EXTRACT: note_on channel=3 note=79 velocity=90 time=0
EXTRACT: note_on channel=9 note=38 velocity=103 time=0
EXTRACT: note_on channel=9 note=51 velocity=91 time=0
EXTRACT: note_off channel=10 note=56 velocity=64 time=0.0734375
EXTRACT: note_off channel=9 note=38 velocity=64 time=0.059375000000000004
EXTRACT: control_change channel=2 control=64 value=127 time=0.004687500000000001
EXTRACT: note_off channel=9 note=51 velocity=64 time=0.003125
EXTRACT: note_off channel=2 note=58 velocity=64 time=0.037500000000000006
EXTRACT: note_off channel=7 note=56 velocity=64 time=0.1875
EXTRACT: note_on channel=2 note=58 velocity=78 time=0.009375000000000001
EXTRACT: note_on channel=3 note=80 velocity=92 time=0
EXTRACT: note_on channel=7 note=56 velocity=58 time=0
EXTRACT: note_on channel=9 note=51 velocity=66 time=0
EXTRACT: note_on channel=10 note=56 velocity=63 time=0
EXTRACT: note_off channel=3 note=79 velocity=64 time=0.015625
EXTRACT: note_off channel=10 note=58 velocity=64 time=0.015625
EXTRACT: note_off channel=10 note=56 velocity=64 time=0.0140625
EXTRACT: note_off channel=10 note=65 velocity=64 time=0.0078125
EXTRACT: note_off channel=10 note=62 velocity=64 time=0.00625
EXTRACT: note_off channel=1 note=32 velocity=64 time=0.040625
EXTRACT: note_off channel=9 note=51 velocity=64 time=0.00625
EXTRACT: note_off channel=7 note=58 velocity=64 time=0.240625
EXTRACT: note_off channel=7 note=56 velocity=64 time=0.018750000000000003
EXTRACT: note_off channel=6 note=77 velocity=64 time=0.003125
EXTRACT: note_off channel=7 note=65 velocity=64 time=0
EXTRACT: note_on channel=1 note=31 velocity=102 time=0.00625
EXTRACT: note_on channel=2 note=62 velocity=75 time=0
EXTRACT: note_on channel=3 note=82 velocity=90 time=0
EXTRACT: note_on channel=6 note=70 velocity=58 time=0
EXTRACT: note_on channel=7 note=55 velocity=59 time=0
EXTRACT: note_on channel=7 note=58 velocity=59 time=0
EXTRACT: note_on channel=7 note=62 velocity=58 time=0
EXTRACT: note_on channel=7 note=65 velocity=58 time=0
EXTRACT: note_on channel=9 note=35 velocity=119 time=0
EXTRACT: note_on channel=9 note=51 velocity=79 time=0
EXTRACT: note_on channel=10 note=55 velocity=81 time=0
EXTRACT: note_on channel=10 note=58 velocity=72 time=0
EXTRACT: note_on channel=10 note=62 velocity=81 time=0
EXTRACT: note_on channel=10 note=65 velocity=72 time=0
EXTRACT: control_change channel=10 control=64 value=0 time=0.0078125
EXTRACT: note_off channel=3 note=80 velocity=64 time=0.003125
EXTRACT: control_change channel=2 control=64 value=0 time=0.0328125
EXTRACT: note_off channel=9 note=35 velocity=64 time=0.06875
EXTRACT: note_off channel=9 note=51 velocity=64 time=0.0125
EXTRACT: control_change channel=2 control=64 value=127 time=0.11406250000000001
EXTRACT: control_change channel=10 control=64 value=127 time=0.03125
EXTRACT: note_on channel=2 note=58 velocity=78 time=0.1046875
EXTRACT: note_on channel=9 note=51 velocity=70 time=0
EXTRACT: note_off channel=2 note=62 velocity=64 time=0.0140625
EXTRACT: note_off channel=10 note=65 velocity=64 time=0.0390625
EXTRACT: note_off channel=9 note=51 velocity=64 time=0.05
EXTRACT: note_off channel=10 note=62 velocity=64 time=0.015625
EXTRACT: note_off channel=10 note=58 velocity=64 time=0.015625
EXTRACT: note_off channel=10 note=55 velocity=64 time=0.004687500000000001
EXTRACT: note_off channel=2 note=58 velocity=64 time=0.010937500000000001
EXTRACT: note_off channel=14 note=82 velocity=64 time=0.21875
EXTRACT: note_on channel=2 note=55 velocity=82 time=0.00625
EXTRACT: note_on channel=3 note=75 velocity=88 time=0
EXTRACT: note_on channel=9 note=38 velocity=103 time=0
EXTRACT: note_on channel=9 note=51 velocity=95 time=0
EXTRACT: note_on channel=14 note=79 velocity=74 time=0
EXTRACT: note_off channel=3 note=82 velocity=64 time=0.0140625
EXTRACT: control_change channel=2 control=64 value=0 time=0
EXTRACT: note_off channel=9 note=38 velocity=64 time=0.109375
EXTRACT: note_off channel=9 note=51 velocity=64 time=0.0140625
EXTRACT: control_change channel=2 control=64 value=127 time=0.0734375
EXTRACT: note_off channel=3 note=75 velocity=64 time=0.14375000000000002
EXTRACT: note_off channel=6 note=70 velocity=64 time=0.0140625
EXTRACT: note_on channel=3 note=77 velocity=91 time=0.00625
EXTRACT: note_on channel=6 note=71 velocity=59 time=0
EXTRACT: note_on channel=9 note=51 velocity=72 time=0
EXTRACT: control_change channel=2 control=64 value=0 time=0.034375
EXTRACT: note_off channel=2 note=58 velocity=64 time=0.021875000000000002
EXTRACT: note_off channel=9 note=51 velocity=64 time=0.06406250000000001
EXTRACT: note_off channel=2 note=65 velocity=64 time=0.0140625
EXTRACT: note_off channel=1 note=31 velocity=64 time=0.109375
EXTRACT: note_off channel=2 note=55 velocity=64 time=0.09843750000000001
EXTRACT: note_off channel=7 note=62 velocity=64 time=0.0234375
EXTRACT: note_off channel=7 note=55 velocity=64 time=0
EXTRACT: note_off channel=7 note=58 velocity=64 time=0
EXTRACT: note_off channel=7 note=65 velocity=64 time=0
EXTRACT: note_off channel=14 note=79 velocity=64 time=0.003125
EXTRACT: note_on channel=1 note=31 velocity=102 time=0
EXTRACT: note_on channel=7 note=53 velocity=58 time=0
EXTRACT: note_on channel=7 note=55 velocity=58 time=0
EXTRACT: note_on channel=7 note=59 velocity=58 time=0
EXTRACT: note_on channel=7 note=62 velocity=58 time=0
EXTRACT: note_on channel=9 note=35 velocity=118 time=0
EXTRACT: note_on channel=9 note=51 velocity=83 time=0
EXTRACT: note_on channel=10 note=53 velocity=77 time=0
EXTRACT: note_on channel=10 note=55 velocity=80 time=0
EXTRACT: note_on channel=10 note=59 velocity=74 time=0
EXTRACT: note_on channel=10 note=62 velocity=80 time=0
EXTRACT: control_change channel=10 control=64 value=0 time=0.0171875
EXTRACT: note_on channel=14 note=91 velocity=70 time=0.00625
EXTRACT: note_off channel=9 note=35 velocity=64 time=0.0578125
EXTRACT: note_off channel=9 note=51 velocity=64 time=0.07187500000000001
EXTRACT: note_on channel=2 note=59 velocity=84 time=0.22187500000000002
EXTRACT: note_on channel=9 note=51 velocity=69 time=0
EXTRACT: note_off channel=9 note=51 velocity=64 time=0.11406250000000001
EXTRACT: note_on channel=9 note=38 velocity=81 time=0.10625000000000001
EXTRACT: note_off channel=9 note=38 velocity=64 time=0.07968750000000001
EXTRACT: note_off channel=1 note=31 velocity=64 time=0.0328125
EXTRACT: note_on channel=1 note=43 velocity=102 time=0.0421875
EXTRACT: note_on channel=2 note=67 velocity=84 time=0
EXTRACT: note_on channel=9 note=38 velocity=103 time=0
EXTRACT: note_off channel=9 note=38 velocity=64 time=0.0578125
EXTRACT: note_off channel=2 note=59 velocity=64 time=0.0484375
EXTRACT: note_on channel=9 note=38 velocity=104 time=0.0421875
EXTRACT: note_off channel=9 note=38 velocity=64 time=0.0578125
EXTRACT: note_off channel=3 note=77 velocity=64 time=0.0703125
EXTRACT: note_on channel=3 note=75 velocity=90 time=0.00625
EXTRACT: note_on channel=2 note=59 velocity=75 time=0.0171875
EXTRACT: note_on channel=9 note=38 velocity=104 time=0
EXTRACT: note_off channel=9 note=38 velocity=64 time=0.05625
EXTRACT: note_off channel=1 note=43 velocity=64 time=0.20625000000000002
EXTRACT: note_off channel=3 note=75 velocity=64 time=0.0390625
EXTRACT: note_off channel=2 note=67 velocity=64 time=0.037500000000000006
EXTRACT: note_off channel=10 note=53 velocity=64 time=0.018750000000000003
EXTRACT: note_off channel=10 note=55 velocity=64 time=0.0015625
EXTRACT: note_off channel=7 note=53 velocity=64 time=0.00625
EXTRACT: note_off channel=7 note=55 velocity=64 time=0
EXTRACT: note_off channel=7 note=59 velocity=64 time=0
EXTRACT: note_off channel=6 note=71 velocity=64 time=0.003125
EXTRACT: note_off channel=10 note=59 velocity=64 time=0
EXTRACT: note_off channel=14 note=91 velocity=64 time=0
EXTRACT: note_off channel=2 note=59 velocity=64 time=0
EXTRACT: note_on channel=1 note=32 velocity=102 time=0
EXTRACT: note_on channel=3 note=82 velocity=89 time=0
EXTRACT: note_on channel=4 note=65 velocity=9 time=0
EXTRACT: note_on channel=6 note=82 velocity=58 time=0
EXTRACT: note_on channel=7 note=56 velocity=58 time=0
EXTRACT: note_on channel=7 note=60 velocity=59 time=0
EXTRACT: note_on channel=7 note=63 velocity=58 time=0
EXTRACT: note_on channel=7 note=67 velocity=58 time=0
EXTRACT: note_on channel=9 note=35 velocity=119 time=0
EXTRACT: note_on channel=9 note=51 velocity=78 time=0
EXTRACT: note_on channel=9 note=57 velocity=83 time=0
EXTRACT: note_on channel=10 note=56 velocity=55 time=0
EXTRACT: note_on channel=10 note=60 velocity=78 time=0
EXTRACT: note_on channel=10 note=63 velocity=54 time=0
EXTRACT: note_on channel=10 note=67 velocity=82 time=0
EXTRACT: note_on channel=14 note=82 velocity=74 time=0
EXTRACT: note_off channel=7 note=62 velocity=64 time=0.003125
EXTRACT: note_off channel=10 note=62 velocity=64 time=0
EXTRACT: note_off channel=9 note=35 velocity=64 time=0.109375
EXTRACT: note_off channel=9 note=51 velocity=64 time=0.0125
EXTRACT: note_off channel=9 note=57 velocity=64 time=0.028125
EXTRACT: note_off channel=3 note=82 velocity=64 time=0.0890625
EXTRACT: note_off channel=4 note=65 velocity=64 time=0.1234375
EXTRACT: note_on channel=2 note=60 velocity=78 time=0.009375000000000001
EXTRACT: note_on channel=3 note=82 velocity=89 time=0
EXTRACT: note_on channel=4 note=65 velocity=9 time=0
EXTRACT: note_on channel=9 note=51 velocity=70 time=0
EXTRACT: note_off channel=9 note=51 velocity=64 time=0.10312500000000001
EXTRACT: note_off channel=3 note=82 velocity=64 time=0.184375
EXTRACT: note_off channel=4 note=65 velocity=64 time=0.078125
EXTRACT: note_on channel=2 note=67 velocity=81 time=0.009375000000000001
EXTRACT: note_on channel=3 note=82 velocity=88 time=0
EXTRACT: note_on channel=4 note=65 velocity=9 time=0
EXTRACT: note_on channel=6 note=72 velocity=58 time=0
EXTRACT: note_on channel=9 note=38 velocity=102 time=0
EXTRACT: note_on channel=9 note=51 velocity=94 time=0
EXTRACT: control_change channel=10 control=64 value=127 time=0.010937500000000001
EXTRACT: note_off channel=9 note=38 velocity=64 time=0.1125
EXTRACT: note_off channel=9 note=51 velocity=64 time=0.0140625
EXTRACT: note_off channel=10 note=60 velocity=64 time=0.06406250000000001
EXTRACT: note_off channel=10 note=56 velocity=64 time=0.0078125
EXTRACT: note_off channel=10 note=67 velocity=64 time=0.003125
EXTRACT: note_off channel=10 note=63 velocity=64 time=0.004687500000000001
EXTRACT: note_off channel=2 note=60 velocity=64 time=0.065625
EXTRACT: note_off channel=3 note=82 velocity=64 time=0.003125
EXTRACT: note_off channel=4 note=65 velocity=64 time=0.07968750000000001
EXTRACT: note_on channel=2 note=60 velocity=79 time=0.009375000000000001
EXTRACT: note_on channel=3 note=82 velocity=93 time=0
EXTRACT: note_on channel=4 note=67 velocity=9 time=0
EXTRACT: note_on channel=9 note=51 velocity=72 time=0
EXTRACT: note_off channel=9 note=51 velocity=64 time=0.1203125
EXTRACT: note_off channel=1 note=32 velocity=64 time=0.1234375
EXTRACT: note_off channel=2 note=67 velocity=64 time=0.08750000000000001
EXTRACT: note_off channel=3 note=82 velocity=64 time=0.018750000000000003
EXTRACT: control_change channel=10 control=64 value=0 time=0.0078125
EXTRACT: note_off channel=7 note=56 velocity=64 time=0.0078125
EXTRACT: note_off channel=7 note=60 velocity=64 time=0
EXTRACT: note_off channel=7 note=63 velocity=64 time=0
EXTRACT: note_off channel=7 note=67 velocity=64 time=0
EXTRACT: note_off channel=4 note=67 velocity=64 time=0
EXTRACT: note_off channel=6 note=72 velocity=64 time=0.003125
EXTRACT: note_on channel=3 note=79 velocity=93 time=0.0015625
EXTRACT: note_on channel=1 note=31 velocity=102 time=0.004687500000000001
EXTRACT: note_on channel=2 note=62 velocity=78 time=0
EXTRACT: note_on channel=4 note=62 velocity=9 time=0
EXTRACT: note_on channel=6 note=74 velocity=58 time=0
EXTRACT: note_on channel=7 note=55 velocity=58 time=0
EXTRACT: note_on channel=7 note=58 velocity=58 time=0
EXTRACT: note_on channel=7 note=62 velocity=58 time=0
EXTRACT: note_on channel=7 note=65 velocity=58 time=0
EXTRACT: note_on channel=9 note=35 velocity=118 time=0
EXTRACT: note_on channel=9 note=51 velocity=82 time=0
EXTRACT: note_on channel=10 note=55 velocity=76 time=0
EXTRACT: note_on channel=10 note=58 velocity=68 time=0
EXTRACT: note_on channel=10 note=62 velocity=82 time=0
EXTRACT: note_on channel=10 note=65 velocity=81 time=0
EXTRACT: note_off channel=9 note=35 velocity=64 time=0.08125
EXTRACT: note_off channel=9 note=51 velocity=64 time=0.07187500000000001
EXTRACT: control_change channel=10 control=64 value=127 time=0.025
EXTRACT: note_off channel=10 note=65 velocity=64 time=0.12812500000000002
EXTRACT: note_off channel=10 note=55 velocity=64 time=0.035937500000000004
EXTRACT: note_off channel=3 note=79 velocity=64 time=0.003125
EXTRACT: note_off channel=10 note=58 velocity=64 time=0.004687500000000001
EXTRACT: note_off channel=10 note=62 velocity=64 time=0.004687500000000001
EXTRACT: note_on channel=9 note=51 velocity=69 time=0.018750000000000003
EXTRACT: note_off channel=9 note=51 velocity=64 time=0.11406250000000001
EXTRACT: note_off channel=1 note=31 velocity=64 time=0.1296875
EXTRACT: note_off channel=4 note=62 velocity=64 time=0.12187500000000001
EXTRACT: note_off channel=7 note=55 velocity=64 time=0
EXTRACT: note_off channel=7 note=58 velocity=64 time=0
EXTRACT: note_off channel=7 note=62 velocity=64 time=0
EXTRACT: note_off channel=7 note=65 velocity=64 time=0
EXTRACT: note_off channel=6 note=74 velocity=64 time=0.003125
EXTRACT: note_on channel=1 note=36 velocity=102 time=0.00625
EXTRACT: note_on channel=2 note=63 velocity=77 time=0
EXTRACT: note_on channel=3 note=75 velocity=88 time=0
EXTRACT: note_on channel=4 note=63 velocity=9 time=0
EXTRACT: note_on channel=6 note=75 velocity=58 time=0
EXTRACT: note_on channel=7 note=55 velocity=59 time=0
EXTRACT: note_on channel=7 note=60 velocity=58 time=0
EXTRACT: note_on channel=7 note=63 velocity=59 time=0
EXTRACT: note_on channel=9 note=38 velocity=102 time=0
EXTRACT: note_on channel=9 note=51 velocity=91 time=0
EXTRACT: note_on channel=10 note=55 velocity=76 time=0
EXTRACT: note_on channel=10 note=60 velocity=74 time=0
EXTRACT: note_on channel=10 note=63 velocity=74 time=0
EXTRACT: control_change channel=10 control=64 value=0 time=0.021875000000000002
EXTRACT: note_off channel=9 note=38 velocity=64 time=0.11093750000000001
EXTRACT: note_off channel=9 note=51 velocity=64 time=0.0078125
EXTRACT: control_change channel=10 control=64 value=127 time=0.0765625
EXTRACT: note_off channel=3 note=75 velocity=64 time=0.07968750000000001
EXTRACT: note_off channel=10 note=55 velocity=64 time=0.0015625
EXTRACT: note_off channel=10 note=60 velocity=64 time=0.0015625
EXTRACT: note_off channel=10 note=63 velocity=64 time=0.015625
EXTRACT: note_off channel=4 note=63 velocity=64 time=0.05
EXTRACT: note_on channel=3 note=75 velocity=93 time=0.009375000000000001
EXTRACT: note_on channel=4 note=63 velocity=9 time=0
EXTRACT: note_on channel=9 note=51 velocity=67 time=0
EXTRACT: note_off channel=9 note=51 velocity=64 time=0.10625000000000001
EXTRACT: note_off channel=1 note=36 velocity=64 time=0.23593750000000002
EXTRACT: note_off channel=2 note=63 velocity=64 time=0.0125
EXTRACT: note_off channel=7 note=55 velocity=64 time=0.010937500000000001
EXTRACT: note_off channel=7 note=60 velocity=64 time=0
EXTRACT: note_off channel=7 note=63 velocity=64 time=0
EXTRACT: note_off channel=2 note=62 velocity=64 time=0.0015625
EXTRACT: note_off channel=6 note=75 velocity=64 time=0.0015625
EXTRACT: note_on channel=1 note=29 velocity=102 time=0.00625
EXTRACT: note_on channel=3 note=82 velocity=91 time=0
EXTRACT: note_on channel=4 note=65 velocity=9 time=0
EXTRACT: note_on channel=6 note=72 velocity=59 time=0
EXTRACT: note_on channel=7 note=53 velocity=59 time=0
EXTRACT: note_on channel=7 note=56 velocity=59 time=0
EXTRACT: note_on channel=7 note=60 velocity=59 time=0
EXTRACT: note_on channel=7 note=63 velocity=58 time=0
EXTRACT: note_on channel=9 note=35 velocity=119 time=0
EXTRACT: note_on channel=9 note=51 velocity=78 time=0
EXTRACT: note_on channel=10 note=53 velocity=66 time=0
EXTRACT: note_on channel=10 note=56 velocity=68 time=0
EXTRACT: note_on channel=10 note=60 velocity=78 time=0
EXTRACT: note_on channel=10 note=63 velocity=67 time=0
EXTRACT: note_off channel=3 note=75 velocity=64 time=0.0078125
EXTRACT: note_off channel=4 note=63 velocity=64 time=0
EXTRACT: note_off channel=2 note=60 velocity=64 time=0.003125
EXTRACT: control_change channel=10 control=64 value=0 time=0.045312500000000006
EXTRACT: note_off channel=9 note=35 velocity=64 time=0.05625
EXTRACT: note_off channel=9 note=51 velocity=64 time=0.0125
EXTRACT: note_off channel=3 note=82 velocity=64 time=0.2234375
EXTRACT: note_off channel=4 note=65 velocity=64 time=0.0171875
EXTRACT: note_on channel=2 note=60 velocity=83 time=0.009375000000000001
EXTRACT: note_on channel=3 note=82 velocity=88 time=0
EXTRACT: note_on channel=4 note=65 velocity=9 time=0
EXTRACT: note_on channel=9 note=51 velocity=70 time=0
EXTRACT: note_off channel=9 note=51 velocity=64 time=0.10312500000000001
EXTRACT: note_off channel=3 note=82 velocity=64 time=0.2078125
EXTRACT: note_off channel=4 note=65 velocity=64 time=0.0546875
EXTRACT: note_on channel=2 note=67 velocity=84 time=0.009375000000000001
EXTRACT: note_on channel=3 note=82 velocity=90 time=0
EXTRACT: note_on channel=4 note=65 velocity=9 time=0
EXTRACT: note_on channel=9 note=38 velocity=102 time=0
EXTRACT: note_on channel=9 note=51 velocity=95 time=0
EXTRACT: control_change channel=10 control=64 value=127 time=0.09375
EXTRACT: note_off channel=9 note=38 velocity=64 time=0.029687500000000002
EXTRACT: note_off channel=9 note=51 velocity=64 time=0.0140625
EXTRACT: note_off channel=2 note=60 velocity=64 time=0.07968750000000001
EXTRACT: note_off channel=10 note=53 velocity=64 time=0.021875000000000002
EXTRACT: note_off channel=10 note=56 velocity=64 time=0.029687500000000002
EXTRACT: note_off channel=10 note=60 velocity=64 time=0.0234375
EXTRACT: note_off channel=10 note=63 velocity=64 time=0.0015625
EXTRACT: note_off channel=3 note=82 velocity=64 time=0.0703125
EXTRACT: note_off channel=4 note=65 velocity=64 time=0.0015625
EXTRACT: note_on channel=2 note=60 velocity=79 time=0.009375000000000001
EXTRACT: note_on channel=3 note=84 velocity=89 time=0
EXTRACT: note_on channel=4 note=67 velocity=9 time=0
EXTRACT: note_on channel=9 note=51 velocity=72 time=0
EXTRACT: note_off channel=9 note=51 velocity=64 time=0.1203125
EXTRACT: note_off channel=1 note=29 velocity=64 time=0.146875
EXTRACT: note_off channel=3 note=84 velocity=64 time=0.09062500000000001
EXTRACT: note_off channel=7 note=53 velocity=64 time=0.0078125
EXTRACT: note_off channel=7 note=56 velocity=64 time=0
EXTRACT: note_off channel=7 note=60 velocity=64 time=0
EXTRACT: note_off channel=7 note=63 velocity=64 time=0
EXTRACT: note_off channel=4 note=67 velocity=64 time=0
EXTRACT: note_on channel=1 note=32 velocity=102 time=0.009375000000000001
EXTRACT: note_on channel=2 note=63 velocity=81 time=0
EXTRACT: note_on channel=3 note=79 velocity=93 time=0
EXTRACT: note_on channel=4 note=63 velocity=9 time=0
EXTRACT: note_on channel=7 note=56 velocity=59 time=0
EXTRACT: note_on channel=7 note=60 velocity=58 time=0
EXTRACT: note_on channel=7 note=63 velocity=59 time=0
EXTRACT: note_on channel=9 note=35 velocity=118 time=0
EXTRACT: note_on channel=9 note=51 velocity=82 time=0
EXTRACT: note_on channel=10 note=56 velocity=58 time=0
EXTRACT: note_on channel=10 note=60 velocity=80 time=0
EXTRACT: note_on channel=10 note=63 velocity=60 time=0
EXTRACT: control_change channel=10 control=64 value=0 time=0
EXTRACT: note_off channel=9 note=35 velocity=64 time=0.08125
EXTRACT: note_off channel=2 note=67 velocity=64 time=0.0171875
EXTRACT: note_off channel=9 note=51 velocity=64 time=0.0546875
EXTRACT: note_off channel=2 note=60 velocity=64 time=0.0765625
EXTRACT: note_off channel=3 note=79 velocity=64 time=0.1203125
EXTRACT: note_on channel=2 note=60 velocity=78 time=0.025
EXTRACT: note_on channel=9 note=35 velocity=119 time=0
EXTRACT: note_on channel=9 note=51 velocity=68 time=0
EXTRACT: note_off channel=9 note=35 velocity=64 time=0.043750000000000004
EXTRACT: note_off channel=9 note=51 velocity=64 time=0.0328125
EXTRACT: note_on channel=2 note=67 velocity=82 time=0.2609375
EXTRACT: note_on channel=9 note=38 velocity=102 time=0
EXTRACT: note_on channel=9 note=51 velocity=91 time=0
EXTRACT: note_on channel=3 note=79 velocity=89 time=0.0171875
EXTRACT: note_off channel=9 note=38 velocity=64 time=0.115625
EXTRACT: note_off channel=9 note=51 velocity=64 time=0.0078125
EXTRACT: note_off channel=2 note=60 velocity=64 time=0.05
EXTRACT: note_on channel=2 note=60 velocity=83 time=0.184375
EXTRACT: note_on channel=9 note=51 velocity=66 time=0
EXTRACT: note_off channel=3 note=79 velocity=64 time=0.003125
EXTRACT: note_on channel=3 note=80 velocity=93 time=0
EXTRACT: note_off channel=9 note=51 velocity=64 time=0.10312500000000001
EXTRACT: note_off channel=1 note=32 velocity=64 time=0.22187500000000002
EXTRACT: note_off channel=10 note=56 velocity=64 time=0
EXTRACT: note_off channel=2 note=60 velocity=64 time=0.03125
EXTRACT: note_off channel=7 note=56 velocity=64 time=0.00625
EXTRACT: note_off channel=6 note=82 velocity=64 time=0.003125
EXTRACT: note_off channel=6 note=72 velocity=64 time=0
EXTRACT: note_off channel=4 note=63 velocity=64 time=0.0015625
EXTRACT: note_off channel=2 note=67 velocity=64 time=0
EXTRACT: note_on channel=1 note=32 velocity=102 time=0.004687500000000001
EXTRACT: note_on channel=3 note=79 velocity=92 time=0
EXTRACT: note_on channel=6 note=70 velocity=58 time=0
EXTRACT: note_on channel=7 note=56 velocity=58 time=0
EXTRACT: note_on channel=7 note=58 velocity=58 time=0
EXTRACT: note_on channel=7 note=62 velocity=59 time=0
EXTRACT: note_on channel=7 note=65 velocity=59 time=0
EXTRACT: note_on channel=9 note=35 velocity=118 time=0
EXTRACT: note_on channel=9 note=51 velocity=78 time=0
EXTRACT: note_on channel=10 note=56 velocity=59 time=0
EXTRACT: note_on channel=10 note=58 velocity=74 time=0
EXTRACT: note_on channel=10 note=62 velocity=82 time=0
EXTRACT: note_on channel=10 note=65 velocity=73 time=0
EXTRACT: note_off channel=7 note=63 velocity=64 time=0.0015625
EXTRACT: note_off channel=10 note=63 velocity=64 time=0
EXTRACT: note_off channel=7 note=60 velocity=64 time=0.0078125
EXTRACT: note_off channel=10 note=60 velocity=64 time=0
EXTRACT: note_off channel=3 note=80 velocity=64 time=0.0015625
EXTRACT: note_off channel=2 note=63 velocity=64 time=0.0078125
EXTRACT: note_off channel=9 note=35 velocity=64 time=0.09375
EXTRACT: note_off channel=9 note=51 velocity=64 time=0.0125
EXTRACT: note_on channel=2 note=58 velocity=77 time=0.25
EXTRACT: note_on channel=9 note=51 velocity=70 time=0
EXTRACT: control_change channel=10 control=64 value=127 time=0.0859375
EXTRACT: note_off channel=9 note=51 velocity=64 time=0.0171875
EXTRACT: note_on channel=3 note=75 velocity=90 time=0.265625
EXTRACT: note_off channel=3 note=79 velocity=64 time=0.00625
EXTRACT: note_on channel=2 note=65 velocity=79 time=0
EXTRACT: note_on channel=9 note=38 velocity=102 time=0
EXTRACT: note_on channel=9 note=51 velocity=94 time=0
EXTRACT: note_off channel=10 note=56 velocity=64 time=0.0734375
EXTRACT: note_off channel=9 note=38 velocity=64 time=0.05
EXTRACT: note_off channel=9 note=51 velocity=64 time=0.0140625
EXTRACT: note_off channel=2 note=58 velocity=64 time=0.040625
EXTRACT: note_off channel=3 note=75 velocity=64 time=0.18281250000000002
EXTRACT: note_off channel=7 note=56 velocity=64 time=0.004687500000000001
EXTRACT: note_on channel=3 note=77 velocity=88 time=0.0078125
EXTRACT: note_on channel=2 note=58 velocity=79 time=0.0015625
EXTRACT: note_on channel=7 note=56 velocity=59 time=0
EXTRACT: note_on channel=9 note=51 velocity=72 time=0
EXTRACT: note_on channel=10 note=56 velocity=63 time=0
EXTRACT: note_off channel=10 note=58 velocity=64 time=0.03125
EXTRACT: note_off channel=10 note=56 velocity=64 time=0.0140625
EXTRACT: note_off channel=10 note=65 velocity=64 time=0.0078125
EXTRACT: note_off channel=10 note=62 velocity=64 time=0.00625
EXTRACT: note_off channel=9 note=51 velocity=64 time=0.060937500000000006
EXTRACT: note_off channel=1 note=32 velocity=64 time=0.1234375
EXTRACT: note_off channel=7 note=56 velocity=64 time=0.12187500000000001
EXTRACT: note_off channel=14 note=82 velocity=64 time=0.003125
EXTRACT: note_off channel=6 note=70 velocity=64 time=0
EXTRACT: note_off channel=7 note=58 velocity=64 time=0
EXTRACT: note_on channel=1 note=31 velocity=103 time=0.00625
EXTRACT: note_on channel=2 note=62 velocity=74 time=0
EXTRACT: note_on channel=6 note=91 velocity=59 time=0
EXTRACT: note_on channel=7 note=55 velocity=59 time=0
EXTRACT: note_on channel=7 note=59 velocity=58 time=0
EXTRACT: note_on channel=7 note=62 velocity=58 time=0
EXTRACT: note_on channel=7 note=65 velocity=58 time=0
EXTRACT: note_on channel=9 note=35 velocity=119 time=0
EXTRACT: note_on channel=9 note=51 velocity=82 time=0
EXTRACT: note_on channel=10 note=55 velocity=81 time=0
EXTRACT: note_on channel=10 note=59 velocity=72 time=0
EXTRACT: note_on channel=10 note=62 velocity=81 time=0
EXTRACT: note_on channel=10 note=65 velocity=72 time=0
EXTRACT: note_on channel=14 note=83 velocity=74 time=0
EXTRACT: control_change channel=10 control=64 value=0 time=0.0078125
EXTRACT: note_off channel=7 note=65 velocity=64 time=0.0078125
EXTRACT: note_off channel=7 note=62 velocity=64 time=0.0078125
EXTRACT: note_off channel=9 note=35 velocity=64 time=0.0578125
EXTRACT: note_off channel=9 note=51 velocity=64 time=0.07187500000000001
EXTRACT: note_on channel=9 note=38 velocity=80 time=0.08125
EXTRACT: control_change channel=10 control=64 value=127 time=0.035937500000000004
EXTRACT: note_off channel=1 note=31 velocity=64 time=0.034375
EXTRACT: note_off channel=9 note=38 velocity=64 time=0.009375000000000001
EXTRACT: note_off channel=2 note=58 velocity=64 time=0.0546875
EXTRACT: note_on channel=1 note=31 velocity=102 time=0.00625
EXTRACT: note_on channel=2 note=59 velocity=78 time=0
EXTRACT: note_off channel=2 note=62 velocity=64 time=0.0140625
EXTRACT: note_off channel=10 note=65 velocity=64 time=0.0390625
EXTRACT: note_off channel=10 note=62 velocity=64 time=0.065625
EXTRACT: note_off channel=10 note=59 velocity=64 time=0.015625
EXTRACT: note_off channel=10 note=55 velocity=64 time=0.004687500000000001
EXTRACT: note_on channel=9 note=38 velocity=104 time=0.09531250000000001
EXTRACT: note_off channel=9 note=38 velocity=64 time=0.05625
EXTRACT: note_off channel=1 note=31 velocity=64 time=0.0140625
EXTRACT: note_off channel=6 note=91 velocity=64 time=0.06406250000000001
EXTRACT: note_off channel=14 note=83 velocity=64 time=0
EXTRACT: note_on channel=1 note=31 velocity=102 time=0.00625
EXTRACT: note_on channel=2 note=55 velocity=82 time=0
EXTRACT: note_on channel=6 note=79 velocity=59 time=0
EXTRACT: note_on channel=9 note=38 velocity=104 time=0
EXTRACT: note_on channel=14 note=79 velocity=74 time=0
EXTRACT: note_off channel=9 note=38 velocity=64 time=0.05625
EXTRACT: note_off channel=3 note=77 velocity=64 time=0.1015625
EXTRACT: note_on channel=9 note=38 velocity=102 time=0.029687500000000002
EXTRACT: note_off channel=9 note=38 velocity=64 time=0.1328125
EXTRACT: note_off channel=2 note=59 velocity=64 time=0.09375
EXTRACT: note_on channel=6 note=77 velocity=54 time=0.06875
EXTRACT: note_off channel=2 note=65 velocity=64 time=0.009375000000000001
EXTRACT: note_on channel=6 note=75 velocity=57 time=0.0484375
EXTRACT: note_off channel=6 note=77 velocity=64 time=0.0421875
EXTRACT: note_on channel=6 note=74 velocity=65 time=0.07500000000000001
EXTRACT: note_off channel=6 note=75 velocity=64 time=0.003125
EXTRACT: note_off channel=1 note=31 velocity=64 time=0.0390625
EXTRACT: note_off channel=2 note=55 velocity=64 time=0
EXTRACT: note_off channel=7 note=62 velocity=64 time=0.0234375
EXTRACT: note_off channel=7 note=65 velocity=64 time=0
EXTRACT: note_off channel=7 note=55 velocity=64 time=0
EXTRACT: note_off channel=7 note=59 velocity=64 time=0
EXTRACT: note_off channel=14 note=79 velocity=64 time=0.003125
EXTRACT: note_on channel=1 note=32 velocity=102 time=0.00625
EXTRACT: note_on channel=3 note=82 velocity=89 time=0
EXTRACT: note_on channel=4 note=65 velocity=9 time=0
EXTRACT: note_on channel=6 note=72 velocity=58 time=0
EXTRACT: note_on channel=7 note=56 velocity=58 time=0
EXTRACT: note_on channel=7 note=60 velocity=58 time=0
EXTRACT: note_on channel=7 note=63 velocity=59 time=0
EXTRACT: note_on channel=7 note=67 velocity=59 time=0
EXTRACT: note_on channel=9 note=35 velocity=119 time=0
EXTRACT: note_on channel=9 note=51 velocity=79 time=0
EXTRACT: note_on channel=9 note=57 velocity=82 time=0
EXTRACT: note_on channel=10 note=56 velocity=54 time=0
EXTRACT: note_on channel=10 note=60 velocity=78 time=0
EXTRACT: note_on channel=10 note=63 velocity=55 time=0
EXTRACT: note_on channel=10 note=67 velocity=83 time=0
EXTRACT: note_on channel=14 note=82 velocity=74 time=0
EXTRACT: note_off channel=6 note=74 velocity=64 time=0.009375000000000001
EXTRACT: note_off channel=9 note=35 velocity=64 time=0.10312500000000001
EXTRACT: note_off channel=9 note=51 velocity=64 time=0.0125
EXTRACT: note_off channel=9 note=57 velocity=64 time=0.028125
EXTRACT: note_off channel=3 note=82 velocity=64 time=0.0890625
EXTRACT: note_off channel=4 note=65 velocity=64 time=0.1234375
EXTRACT: note_on channel=2 note=60 velocity=79 time=0.009375000000000001
EXTRACT: note_on channel=3 note=82 velocity=89 time=0
EXTRACT: note_on channel=4 note=65 velocity=9 time=0
EXTRACT: note_on channel=9 note=51 velocity=71 time=0
EXTRACT: note_off channel=9 note=51 velocity=64 time=0.10312500000000001
EXTRACT: note_off channel=1 note=32 velocity=64 time=0.140625
EXTRACT: note_off channel=3 note=82 velocity=64 time=0.043750000000000004
EXTRACT: note_off channel=4 note=65 velocity=64 time=0.078125
EXTRACT: note_on channel=1 note=44 velocity=102 time=0.009375000000000001
EXTRACT: note_on channel=2 note=67 velocity=81 time=0
EXTRACT: note_on channel=3 note=82 velocity=88 time=0
EXTRACT: note_on channel=4 note=65 velocity=9 time=0
EXTRACT: note_on channel=9 note=38 velocity=93 time=0
EXTRACT: note_on channel=9 note=51 velocity=94 time=0
EXTRACT: control_change channel=10 control=64 value=127 time=0.010937500000000001
EXTRACT: note_off channel=9 note=38 velocity=64 time=0.1125
EXTRACT: note_off channel=9 note=51 velocity=64 time=0.0140625
EXTRACT: note_off channel=10 note=60 velocity=64 time=0.06406250000000001
EXTRACT: note_off channel=10 note=56 velocity=64 time=0.0078125
EXTRACT: note_off channel=10 note=67 velocity=64 time=0.003125
EXTRACT: note_off channel=10 note=63 velocity=64 time=0.004687500000000001
EXTRACT: note_off channel=2 note=60 velocity=64 time=0.065625
EXTRACT: note_off channel=3 note=82 velocity=64 time=0.003125
EXTRACT: note_off channel=4 note=65 velocity=64 time=0.07968750000000001
EXTRACT: note_on channel=2 note=60 velocity=78 time=0.009375000000000001
EXTRACT: note_on channel=3 note=82 velocity=92 time=0
EXTRACT: note_on channel=4 note=65 velocity=9 time=0
EXTRACT: note_on channel=9 note=51 velocity=73 time=0
EXTRACT: note_off channel=9 note=51 velocity=64 time=0.1203125
EXTRACT: note_off channel=1 note=44 velocity=64 time=0.1234375
EXTRACT: note_off channel=2 note=67 velocity=64 time=0.08750000000000001
EXTRACT: control_change channel=10 control=64 value=0 time=0.026562500000000003
EXTRACT: note_off channel=7 note=56 velocity=64 time=0.0078125
EXTRACT: note_off channel=7 note=60 velocity=64 time=0
EXTRACT: note_off channel=7 note=63 velocity=64 time=0
EXTRACT: note_off channel=7 note=67 velocity=64 time=0
EXTRACT: note_off channel=6 note=79 velocity=64 time=0.003125
EXTRACT: note_off channel=6 note=72 velocity=64 time=0
EXTRACT: note_on channel=1 note=31 velocity=103 time=0.00625
EXTRACT: note_on channel=2 note=62 velocity=78 time=0
EXTRACT: note_on channel=6 note=74 velocity=59 time=0
EXTRACT: note_on channel=6 note=80 velocity=59 time=0
EXTRACT: note_on channel=7 note=55 velocity=58 time=0
EXTRACT: note_on channel=7 note=58 velocity=58 time=0
EXTRACT: note_on channel=7 note=62 velocity=58 time=0
EXTRACT: note_on channel=7 note=65 velocity=58 time=0
EXTRACT: note_on channel=9 note=35 velocity=119 time=0
EXTRACT: note_on channel=9 note=51 velocity=82 time=0
EXTRACT: note_on channel=10 note=55 velocity=77 time=0
EXTRACT: note_on channel=10 note=58 velocity=69 time=0
EXTRACT: note_on channel=10 note=62 velocity=83 time=0
EXTRACT: note_on channel=10 note=65 velocity=81 time=0
EXTRACT: note_off channel=9 note=35 velocity=64 time=0.08125
EXTRACT: note_off channel=3 note=82 velocity=64 time=0.0421875
EXTRACT: note_off channel=4 note=65 velocity=64 time=0
EXTRACT: note_off channel=9 note=51 velocity=64 time=0.003125
EXTRACT: control_change channel=10 control=64 value=127 time=0.025
EXTRACT: note_off channel=10 note=65 velocity=64 time=0.12812500000000002
EXTRACT: note_off channel=10 note=55 velocity=64 time=0.035937500000000004
EXTRACT: note_off channel=10 note=58 velocity=64 time=0.0078125
EXTRACT: note_off channel=10 note=62 velocity=64 time=0.004687500000000001
EXTRACT: note_on channel=3 note=82 velocity=92 time=0.0203125
EXTRACT: note_on channel=9 note=35 velocity=119 time=0
EXTRACT: note_on channel=9 note=51 velocity=68 time=0
EXTRACT: note_off channel=9 note=35 velocity=64 time=0.08125
EXTRACT: note_off channel=9 note=51 velocity=64 time=0.0328125
EXTRACT: note_off channel=1 note=31 velocity=64 time=0.1296875
EXTRACT: note_off channel=3 note=82 velocity=64 time=0.10625000000000001
EXTRACT: note_off channel=7 note=55 velocity=64 time=0.015625
EXTRACT: note_off channel=7 note=58 velocity=64 time=0
EXTRACT: note_off channel=7 note=62 velocity=64 time=0
EXTRACT: note_off channel=7 note=65 velocity=64 time=0
EXTRACT: note_off channel=6 note=74 velocity=64 time=0.003125
EXTRACT: note_off channel=6 note=80 velocity=64 time=0
EXTRACT: note_on channel=1 note=36 velocity=102 time=0.00625
EXTRACT: note_on channel=2 note=63 velocity=76 time=0
EXTRACT: note_on channel=3 note=79 velocity=88 time=0
EXTRACT: note_on channel=6 note=75 velocity=58 time=0
EXTRACT: note_on channel=6 note=82 velocity=58 time=0
EXTRACT: note_on channel=7 note=55 velocity=58 time=0
EXTRACT: note_on channel=7 note=60 velocity=59 time=0
EXTRACT: note_on channel=7 note=63 velocity=59 time=0
EXTRACT: note_on channel=9 note=38 velocity=92 time=0
EXTRACT: note_on channel=9 note=51 velocity=91 time=0
EXTRACT: note_on channel=10 note=55 velocity=76 time=0
EXTRACT: note_on channel=10 note=60 velocity=74 time=0
EXTRACT: note_on channel=10 note=63 velocity=74 time=0
EXTRACT: control_change channel=10 control=64 value=0 time=0.021875000000000002
EXTRACT: note_off channel=9 note=38 velocity=64 time=0.11093750000000001
EXTRACT: note_off channel=9 note=51 velocity=64 time=0.0078125
EXTRACT: control_change channel=10 control=64 value=127 time=0.0765625
EXTRACT: note_off channel=10 note=55 velocity=64 time=0.08125
EXTRACT: note_off channel=10 note=60 velocity=64 time=0.0015625
EXTRACT: note_off channel=10 note=63 velocity=64 time=0.015625
EXTRACT: note_off channel=3 note=79 velocity=64 time=0.043750000000000004
EXTRACT: note_on channel=3 note=82 velocity=92 time=0.015625
EXTRACT: note_on channel=9 note=51 velocity=67 time=0
EXTRACT: note_off channel=9 note=51 velocity=64 time=0.10625000000000001
EXTRACT: note_off channel=1 note=36 velocity=64 time=0.1375
EXTRACT: note_off channel=2 note=63 velocity=64 time=0.11093750000000001
EXTRACT: note_off channel=7 note=55 velocity=64 time=0.010937500000000001
EXTRACT: note_off channel=7 note=60 velocity=64 time=0
EXTRACT: note_off channel=7 note=63 velocity=64 time=0
EXTRACT: note_off channel=2 note=62 velocity=64 time=0.0015625
EXTRACT: note_off channel=6 note=75 velocity=64 time=0.0015625
EXTRACT: note_off channel=6 note=82 velocity=64 time=0
EXTRACT: note_on channel=1 note=29 velocity=103 time=0.00625
EXTRACT: note_on channel=3 note=79 velocity=90 time=0
EXTRACT: note_on channel=6 note=79 velocity=59 time=0
EXTRACT: note_on channel=6 note=86 velocity=59 time=0
EXTRACT: note_on channel=7 note=53 velocity=59 time=0
EXTRACT: note_on channel=7 note=56 velocity=59 time=0
EXTRACT: note_on channel=7 note=60 velocity=58 time=0
EXTRACT: note_on channel=7 note=63 velocity=58 time=0
EXTRACT: note_on channel=9 note=35 velocity=119 time=0
EXTRACT: note_on channel=9 note=51 velocity=79 time=0
EXTRACT: note_on channel=10 note=53 velocity=66 time=0
EXTRACT: note_on channel=10 note=56 velocity=69 time=0
EXTRACT: note_on channel=10 note=60 velocity=79 time=0
EXTRACT: note_on channel=10 note=63 velocity=66 time=0
EXTRACT: note_off channel=3 note=82 velocity=64 time=0.0078125
EXTRACT: note_off channel=2 note=60 velocity=64 time=0.003125
EXTRACT: control_change channel=10 control=64 value=0 time=0.045312500000000006
EXTRACT: note_off channel=9 note=35 velocity=64 time=0.05625
EXTRACT: note_off channel=9 note=51 velocity=64 time=0.0125
EXTRACT: note_off channel=3 note=79 velocity=64 time=0.2234375
EXTRACT: note_on channel=2 note=60 velocity=82 time=0.026562500000000003
EXTRACT: note_on channel=3 note=82 velocity=89 time=0
EXTRACT: note_on channel=9 note=51 velocity=70 time=0
EXTRACT: note_off channel=9 note=51 velocity=64 time=0.10312500000000001
EXTRACT: note_off channel=3 note=82 velocity=64 time=0.26875
EXTRACT: note_on channel=2 note=67 velocity=84 time=0.003125
EXTRACT: note_on channel=3 note=79 velocity=91 time=0
EXTRACT: note_on channel=9 note=38 velocity=92 time=0
EXTRACT: note_on channel=9 note=51 velocity=94 time=0
EXTRACT: control_change channel=10 control=64 value=127 time=0.09375
EXTRACT: note_off channel=9 note=38 velocity=64 time=0.029687500000000002
EXTRACT: note_off channel=9 note=51 velocity=64 time=0.0140625
EXTRACT: note_off channel=2 note=60 velocity=64 time=0.07968750000000001
EXTRACT: note_off channel=10 note=53 velocity=64 time=0.021875000000000002
EXTRACT: note_off channel=10 note=56 velocity=64 time=0.029687500000000002
EXTRACT: note_off channel=10 note=60 velocity=64 time=0.0234375
EXTRACT: note_off channel=10 note=63 velocity=64 time=0.0015625
EXTRACT: note_off channel=3 note=79 velocity=64 time=0.0703125
EXTRACT: note_on channel=2 note=60 velocity=78 time=0.010937500000000001
EXTRACT: note_on channel=3 note=82 velocity=88 time=0
EXTRACT: note_on channel=9 note=51 velocity=73 time=0
EXTRACT: control_change channel=14 control=11 value=126 time=0.06875
EXTRACT: control_change channel=14 control=11 value=124 time=0.037500000000000006
EXTRACT: note_off channel=9 note=51 velocity=64 time=0.0140625
EXTRACT: control_change channel=14 control=11 value=125 time=0.040625
EXTRACT: control_change channel=14 control=11 value=123 time=0.037500000000000006
EXTRACT: control_change channel=14 control=11 value=122 time=0.037500000000000006
EXTRACT: control_change channel=14 control=11 value=121 time=0.037500000000000006
EXTRACT: note_off channel=1 note=29 velocity=64 time=0.0203125
EXTRACT: control_change channel=14 control=11 value=120 time=0.015625
EXTRACT: note_off channel=3 note=82 velocity=64 time=0.0484375
EXTRACT: control_change channel=14 control=11 value=119 time=0.00625
EXTRACT: note_off channel=7 note=53 velocity=64 time=0.0015625
EXTRACT: note_off channel=7 note=56 velocity=64 time=0
EXTRACT: note_off channel=7 note=60 velocity=64 time=0
EXTRACT: note_off channel=7 note=63 velocity=64 time=0
EXTRACT: note_off channel=6 note=86 velocity=64 time=0.003125
EXTRACT: note_on channel=1 note=32 velocity=103 time=0.00625
EXTRACT: note_on channel=2 note=63 velocity=81 time=0
EXTRACT: note_on channel=3 note=79 velocity=93 time=0
EXTRACT: note_on channel=6 note=87 velocity=59 time=0
EXTRACT: note_on channel=7 note=56 velocity=58 time=0
EXTRACT: note_on channel=7 note=60 velocity=59 time=0
EXTRACT: note_on channel=7 note=63 velocity=58 time=0
EXTRACT: note_on channel=9 note=35 velocity=119 time=0
EXTRACT: note_on channel=9 note=46 velocity=82 time=0
EXTRACT: note_on channel=10 note=56 velocity=58 time=0
EXTRACT: note_on channel=10 note=60 velocity=80 time=0
EXTRACT: note_on channel=10 note=63 velocity=60 time=0
EXTRACT: control_change channel=10 control=64 value=0 time=0
EXTRACT: control_change channel=14 control=11 value=118 time=0.045312500000000006
EXTRACT: note_off channel=9 note=35 velocity=64 time=0.035937500000000004
EXTRACT: note_off channel=2 note=67 velocity=64 time=0.0171875
EXTRACT: control_change channel=14 control=11 value=116 time=0.0015625
EXTRACT: note_off channel=9 note=46 velocity=64 time=0.053125000000000006
EXTRACT: control_change channel=14 control=11 value=117 time=0.003125
EXTRACT: control_change channel=14 control=11 value=114 time=0.05625
EXTRACT: note_off channel=2 note=60 velocity=64 time=0.0171875
EXTRACT: note_off channel=1 note=32 velocity=64 time=0.0140625
EXTRACT: control_change channel=14 control=11 value=114 time=0.00625
EXTRACT: control_change channel=14 control=11 value=112 time=0.034375
EXTRACT: control_change channel=14 control=11 value=112 time=0.018750000000000003
EXTRACT: note_off channel=3 note=79 velocity=64 time=0.046875
EXTRACT: control_change channel=14 control=11 value=111 time=0.009375000000000001
EXTRACT: note_on channel=1 note=32 velocity=102 time=0.015625
EXTRACT: note_on channel=2 note=60 velocity=79 time=0
EXTRACT: note_on channel=3 note=75 velocity=90 time=0
EXTRACT: note_on channel=9 note=35 velocity=118 time=0
EXTRACT: note_on channel=9 note=44 velocity=82 time=0
EXTRACT: note_on channel=9 note=51 velocity=68 time=0
EXTRACT: control_change channel=14 control=11 value=111 time=0.0390625
EXTRACT: control_change channel=14 control=11 value=108 time=0.037500000000000006
EXTRACT: note_off channel=9 note=35 velocity=64 time=0.004687500000000001
EXTRACT: note_off channel=9 note=51 velocity=64 time=0.0328125
EXTRACT: control_change channel=14 control=11 value=108 time=0
EXTRACT: note_off channel=9 note=44 velocity=64 time=0.0390625
EXTRACT: control_change channel=14 control=11 value=106 time=0.0140625
EXTRACT: control_change channel=14 control=11 value=106 time=0.05625
EXTRACT: control_change channel=14 control=11 value=104 time=0.037500000000000006
EXTRACT: control_change channel=14 control=11 value=104 time=0.035937500000000004
EXTRACT: control_change channel=14 control=11 value=102 time=0.0390625
EXTRACT: control_change channel=14 control=11 value=102 time=0.034375
EXTRACT: note_on channel=2 note=67 velocity=82 time=0.004687500000000001
EXTRACT: note_on channel=9 note=38 velocity=92 time=0
EXTRACT: note_on channel=9 note=51 velocity=90 time=0
EXTRACT: control_change channel=14 control=11 value=100 time=0.0328125
EXTRACT: control_change channel=14 control=11 value=101 time=0.018750000000000003
EXTRACT: control_change channel=14 control=11 value=98 time=0.035937500000000004
EXTRACT: control_change channel=14 control=11 value=98 time=0.018750000000000003
EXTRACT: control_change channel=14 control=11 value=96 time=0.018750000000000003
EXTRACT: note_off channel=9 note=38 velocity=64 time=0.0078125
EXTRACT: note_off channel=9 note=51 velocity=64 time=0.0078125
EXTRACT: control_change channel=14 control=11 value=96 time=0.0203125
EXTRACT: control_change channel=14 control=11 value=95 time=0.018750000000000003
EXTRACT: note_off channel=2 note=60 velocity=64 time=0.010937500000000001
EXTRACT: control_change channel=14 control=11 value=94 time=0.025
EXTRACT: control_change channel=14 control=11 value=93 time=0.037500000000000006
EXTRACT: control_change channel=14 control=11 value=93 time=0.018750000000000003
EXTRACT: control_change channel=14 control=11 value=90 time=0.037500000000000006
EXTRACT: control_change channel=14 control=11 value=91 time=0.018750000000000003
EXTRACT: control_change channel=14 control=11 value=89 time=0.037500000000000006
EXTRACT: note_on channel=2 note=60 velocity=83 time=0.009375000000000001
EXTRACT: note_on channel=9 note=53 velocity=71 time=0
EXTRACT: control_change channel=14 control=11 value=88 time=0.028125
EXTRACT: control_change channel=14 control=11 value=87 time=0.0171875
EXTRACT: note_off channel=3 note=75 velocity=64 time=0.034375
EXTRACT: control_change channel=14 control=11 value=87 time=0.0015625
EXTRACT: control_change channel=14 control=11 value=84 time=0.018750000000000003
EXTRACT: note_off channel=9 note=53 velocity=64 time=0.00625
EXTRACT: control_change channel=14 control=11 value=82 time=0.0125
EXTRACT: control_change channel=14 control=11 value=83 time=0.018750000000000003
EXTRACT: control_change channel=14 control=11 value=81 time=0.018750000000000003
EXTRACT: control_change channel=14 control=11 value=81 time=0.004687500000000001
EXTRACT: control_change channel=14 control=11 value=79 time=0.018750000000000003
EXTRACT: control_change channel=14 control=11 value=78 time=0.0171875
EXTRACT: control_change channel=14 control=11 value=76 time=0.0390625
EXTRACT: control_change channel=14 control=11 value=76 time=0.0171875
EXTRACT: control_change channel=14 control=11 value=75 time=0.018750000000000003
EXTRACT: control_change channel=14 control=11 value=75 time=0.018750000000000003
EXTRACT: control_change channel=14 control=11 value=72 time=0.018750000000000003
EXTRACT: note_off channel=7 note=56 velocity=64 time=0.00625
EXTRACT: note_off channel=10 note=56 velocity=64 time=0
EXTRACT: note_off channel=1 note=32 velocity=64 time=0.0125
EXTRACT: control_change channel=14 control=11 value=72 time=0
EXTRACT: note_off channel=2 note=60 velocity=64 time=0.018750000000000003
EXTRACT: control_change channel=14 control=11 value=70 time=0
EXTRACT: note_off channel=14 note=82 velocity=64 time=0.009375000000000001
EXTRACT: note_off channel=6 note=79 velocity=64 time=0
EXTRACT: note_off channel=6 note=87 velocity=64 time=0
EXTRACT: note_off channel=2 note=67 velocity=64 time=0.0015625
EXTRACT: note_on channel=1 note=32 velocity=103 time=0.004687500000000001
EXTRACT: note_on channel=6 note=77 velocity=44 time=0
EXTRACT: note_on channel=6 note=86 velocity=45 time=0
EXTRACT: note_on channel=7 note=53 velocity=48 time=0
EXTRACT: note_on channel=7 note=58 velocity=48 time=0
EXTRACT: note_on channel=7 note=62 velocity=48 time=0
EXTRACT: note_on channel=9 note=35 velocity=108 time=0
EXTRACT: note_on channel=9 note=51 velocity=69 time=0
EXTRACT: note_on channel=10 note=58 velocity=62 time=0
EXTRACT: note_on channel=10 note=62 velocity=85 time=0
EXTRACT: note_on channel=10 note=65 velocity=69 time=0
EXTRACT: note_off channel=7 note=63 velocity=64 time=0.0015625
EXTRACT: note_off channel=10 note=63 velocity=64 time=0
EXTRACT: control_change channel=14 control=11 value=68 time=0.0015625
EXTRACT: note_off channel=7 note=60 velocity=64 time=0.00625
EXTRACT: note_off channel=10 note=60 velocity=64 time=0
EXTRACT: note_on channel=3 note=79 velocity=91 time=0.003125
EXTRACT: note_off channel=2 note=63 velocity=64 time=0.00625
EXTRACT: control_change channel=14 control=11 value=68 time=0
EXTRACT: control_change channel=14 control=11 value=66 time=0.018750000000000003
EXTRACT: control_change channel=14 control=11 value=67 time=0.0203125
EXTRACT: control_change channel=14 control=11 value=65 time=0.018750000000000003
EXTRACT: note_off channel=9 note=35 velocity=64 time=0.004687500000000001
EXTRACT: control_change channel=14 control=11 value=62 time=0.0140625
EXTRACT: control_change channel=14 control=11 value=63 time=0.037500000000000006
EXTRACT: control_change channel=14 control=11 value=60 time=0.0171875
EXTRACT: note_off channel=9 note=51 velocity=64 time=0.003125
EXTRACT: control_change channel=14 control=11 value=63 time=0.1078125
EXTRACT: control_change channel=14 control=11 value=62 time=0.0171875
EXTRACT: control_change channel=14 control=11 value=64 time=0.018750000000000003
EXTRACT: control_change channel=14 control=11 value=67 time=0.018750000000000003
EXTRACT: control_change channel=14 control=11 value=66 time=0.0171875
EXTRACT: control_change channel=14 control=11 value=68 time=0.018750000000000003
EXTRACT: control_change channel=14 control=11 value=72 time=0.018750000000000003
EXTRACT: note_off channel=3 note=79 velocity=64 time=0.003125
EXTRACT: note_on channel=9 note=51 velocity=43 time=0.0015625
EXTRACT: note_on channel=3 note=77 velocity=90 time=0.0078125
EXTRACT: control_change channel=14 control=11 value=74 time=0.00625
EXTRACT: control_change channel=14 control=11 value=77 time=0.0171875
EXTRACT: control_change channel=14 control=11 value=79 time=0.018750000000000003
EXTRACT: control_change channel=14 control=11 value=80 time=0.018750000000000003
EXTRACT: control_change channel=14 control=11 value=82 time=0.0171875
EXTRACT: control_change channel=14 control=11 value=86 time=0.018750000000000003
EXTRACT: note_off channel=9 note=51 velocity=64 time=0.009375000000000001
EXTRACT: control_change channel=14 control=11 value=88 time=0.009375000000000001
EXTRACT: control_change channel=14 control=11 value=90 time=0.018750000000000003
EXTRACT: control_change channel=6 control=11 value=126 time=0.003125
EXTRACT: control_change channel=10 control=64 value=127 time=0.0125
EXTRACT: control_change channel=14 control=11 value=92 time=0.0015625
EXTRACT: control_change channel=14 control=11 value=94 time=0.018750000000000003
EXTRACT: note_on channel=3 note=75 velocity=92 time=0.009375000000000001
EXTRACT: control_change channel=14 control=11 value=98 time=0.009375000000000001
EXTRACT: control_change channel=6 control=11 value=124 time=0.0015625
EXTRACT: control_change channel=14 control=11 value=102 time=0.015625
EXTRACT: control_change channel=14 control=11 value=105 time=0.018750000000000003
EXTRACT: note_off channel=3 note=77 velocity=64 time=0.004687500000000001
EXTRACT: control_change channel=14 control=11 value=108 time=0.0140625
EXTRACT: control_change channel=14 control=11 value=112 time=0.0203125
EXTRACT: control_change channel=14 control=11 value=116 time=0.018750000000000003
EXTRACT: control_change channel=14 control=11 value=120 time=0.015625
EXTRACT: control_change channel=14 control=11 value=123 time=0.0203125
EXTRACT: control_change channel=14 control=11 value=124 time=0.018750000000000003
EXTRACT: control_change channel=14 control=11 value=127 time=0.0171875
EXTRACT: note_on channel=3 note=74 velocity=93 time=0.0078125
EXTRACT: note_off channel=3 note=75 velocity=64 time=0.004687500000000001
EXTRACT: note_on channel=9 note=37 velocity=103 time=0
EXTRACT: note_on channel=9 note=51 velocity=74 time=0
EXTRACT: note_off channel=10 note=58 velocity=64 time=0.003125
EXTRACT: control_change channel=14 control=11 value=127 time=0.003125
EXTRACT: control_change channel=6 control=11 value=124 time=0.021875000000000002
EXTRACT: control_change channel=6 control=11 value=122 time=0.0734375
EXTRACT: note_off channel=9 note=37 velocity=64 time=0.03125
EXTRACT: note_off channel=9 note=51 velocity=64 time=0.0078125
EXTRACT: control_change channel=6 control=11 value=122 time=0.015625
EXTRACT: control_change channel=6 control=11 value=120 time=0.07500000000000001
EXTRACT: note_on channel=3 note=75 velocity=92 time=0.1203125
EXTRACT: note_on channel=9 note=51 velocity=44 time=0.0234375
EXTRACT: note_on channel=10 note=58 velocity=52 time=0
EXTRACT: control_change channel=6 control=11 value=122 time=0
EXTRACT: control_change channel=6 control=11 value=122 time=0.004687500000000001
EXTRACT: note_off channel=3 note=74 velocity=64 time=0.010937500000000001
EXTRACT: note_off channel=10 note=62 velocity=64 time=0.051562500000000004
EXTRACT: note_off channel=10 note=65 velocity=64 time=0.0015625
EXTRACT: control_change channel=6 control=11 value=121 time=0.026562500000000003
EXTRACT: note_off channel=9 note=51 velocity=64 time=0.010937500000000001
EXTRACT: note_off channel=10 note=58 velocity=64 time=0.05625
EXTRACT: control_change channel=6 control=11 value=120 time=0.009375000000000001
EXTRACT: control_change channel=7 control=11 value=126 time=0
EXTRACT: control_change channel=6 control=11 value=118 time=0.015625
EXTRACT: control_change channel=6 control=11 value=118 time=0.018750000000000003
EXTRACT: control_change channel=6 control=11 value=118 time=0.0203125
EXTRACT: control_change channel=7 control=11 value=124 time=0
EXTRACT: control_change channel=6 control=11 value=119 time=0.037500000000000006
EXTRACT: control_change channel=7 control=11 value=124 time=0
EXTRACT: control_change channel=6 control=11 value=116 time=0.035937500000000004
EXTRACT: control_change channel=6 control=11 value=117 time=0.0015625
EXTRACT: control_change channel=7 control=11 value=123 time=0
EXTRACT: note_off channel=7 note=62 velocity=64 time=0.045312500000000006
EXTRACT: control_change channel=6 control=11 value=117 time=0.010937500000000001
EXTRACT: control_change channel=7 control=11 value=122 time=0
EXTRACT: note_off channel=3 note=75 velocity=64 time=0.0015625
EXTRACT: note_on channel=3 note=72 velocity=88 time=0.0015625
EXTRACT: note_off channel=6 note=86 velocity=64 time=0.0078125
EXTRACT: note_on channel=6 note=82 velocity=44 time=0.00625
EXTRACT: note_on channel=7 note=60 velocity=49 time=0
EXTRACT: note_on channel=9 note=35 velocity=109 time=0
EXTRACT: note_on channel=9 note=51 velocity=72 time=0
EXTRACT: control_change channel=6 control=11 value=116 time=0
EXTRACT: control_change channel=6 control=11 value=117 time=0.018750000000000003
EXTRACT: control_change channel=7 control=11 value=121 time=0
EXTRACT: control_change channel=6 control=11 value=117 time=0.0328125
EXTRACT: control_change channel=6 control=11 value=116 time=0.021875000000000002
EXTRACT: control_change channel=7 control=11 value=121 time=0
EXTRACT: note_off channel=9 note=35 velocity=64 time=0.0390625
EXTRACT: note_off channel=9 note=51 velocity=64 time=0.0125
EXTRACT: control_change channel=6 control=11 value=115 time=0.0015625
EXTRACT: control_change channel=6 control=11 value=115 time=0.0015625
EXTRACT: control_change channel=7 control=11 value=118 time=0
EXTRACT: control_change channel=6 control=11 value=114 time=0.059375000000000004
EXTRACT: control_change channel=6 control=11 value=114 time=0.015625
EXTRACT: control_change channel=7 control=11 value=119 time=0
EXTRACT: control_change channel=6 control=11 value=113 time=0.037500000000000006
EXTRACT: control_change channel=7 control=11 value=117 time=0
EXTRACT: control_change channel=6 control=11 value=113 time=0.0140625
EXTRACT: control_change channel=6 control=11 value=113 time=0.021875000000000002
EXTRACT: control_change channel=7 control=11 value=116 time=0
EXTRACT: control_change channel=6 control=11 value=113 time=0.0390625
EXTRACT: control_change channel=7 control=11 value=115 time=0
EXTRACT: control_change channel=6 control=11 value=110 time=0.034375
EXTRACT: control_change channel=7 control=11 value=115 time=0
EXTRACT: note_on channel=3 note=70 velocity=92 time=0.00625
EXTRACT: control_change channel=6 control=11 value=110 time=0.009375000000000001
EXTRACT: note_off channel=3 note=72 velocity=64 time=0.0078125
EXTRACT: note_on channel=9 note=35 velocity=108 time=0.0015625
EXTRACT: note_on channel=9 note=51 velocity=46 time=0
EXTRACT: note_on channel=10 note=70 velocity=67 time=0
EXTRACT: control_change channel=6 control=11 value=110 time=0
EXTRACT: control_change channel=6 control=11 value=111 time=0.010937500000000001
EXTRACT: control_change channel=7 control=11 value=112 time=0
EXTRACT: control_change channel=6 control=11 value=111 time=0.018750000000000003
EXTRACT: control_change channel=6 control=11 value=110 time=0.0015625
EXTRACT: control_change channel=7 control=11 value=112 time=0
EXTRACT: control_change channel=6 control=11 value=110 time=0.035937500000000004
EXTRACT: control_change channel=7 control=11 value=111 time=0
EXTRACT: note_off channel=9 note=51 velocity=64 time=0.035937500000000004
EXTRACT: control_change channel=6 control=11 value=108 time=0
EXTRACT: note_off channel=9 note=35 velocity=64 time=0.009375000000000001
EXTRACT: note_off channel=10 note=70 velocity=64 time=0
EXTRACT: control_change channel=6 control=11 value=108 time=0.0125
EXTRACT: control_change channel=7 control=11 value=111 time=0
EXTRACT: control_change channel=6 control=11 value=108 time=0.03125
EXTRACT: control_change channel=6 control=11 value=108 time=0.0203125
EXTRACT: control_change channel=7 control=11 value=109 time=0
EXTRACT: control_change channel=6 control=11 value=109 time=0.010937500000000001
EXTRACT: control_change channel=6 control=11 value=109 time=0.045312500000000006
EXTRACT: control_change channel=7 control=11 value=109 time=0
EXTRACT: control_change channel=6 control=11 value=106 time=0.035937500000000004
EXTRACT: control_change channel=6 control=11 value=107 time=0.0203125
EXTRACT: control_change channel=7 control=11 value=106 time=0
EXTRACT: control_change channel=6 control=11 value=106 time=0.037500000000000006
EXTRACT: control_change channel=7 control=11 value=106 time=0
EXTRACT: note_on channel=7 note=62 velocity=49 time=0.0484375
EXTRACT: note_on channel=9 note=37 velocity=102 time=0
EXTRACT: note_on channel=9 note=51 velocity=78 time=0
EXTRACT: control_change channel=6 control=11 value=105 time=0
EXTRACT: control_change channel=6 control=11 value=104 time=0.0078125
EXTRACT: control_change channel=7 control=11 value=104 time=0
EXTRACT: control_change channel=6 control=11 value=104 time=0.0125
EXTRACT: control_change channel=6 control=11 value=105 time=0.021875000000000002
EXTRACT: control_change channel=7 control=11 value=105 time=0
EXTRACT: note_off channel=7 note=60 velocity=64 time=0.035937500000000004
EXTRACT: control_change channel=6 control=11 value=104 time=0.018750000000000003
EXTRACT: control_change channel=7 control=11 value=103 time=0
EXTRACT: note_off channel=9 note=37 velocity=64 time=0.026562500000000003
EXTRACT: control_change channel=6 control=11 value=102 time=0.0078125
EXTRACT: control_change channel=6 control=11 value=102 time=0.004687500000000001
EXTRACT: control_change channel=7 control=11 value=102 time=0
EXTRACT: note_off channel=9 note=51 velocity=64 time=0.0015625
EXTRACT: control_change channel=6 control=11 value=102 time=0.05
EXTRACT: control_change channel=6 control=11 value=103 time=0.003125
EXTRACT: control_change channel=7 control=11 value=100 time=0
EXTRACT: control_change channel=6 control=11 value=103 time=0.037500000000000006
EXTRACT: control_change channel=7 control=11 value=100 time=0
EXTRACT: control_change channel=6 control=11 value=100 time=0.03125
EXTRACT: control_change channel=6 control=11 value=100 time=0.025
EXTRACT: control_change channel=7 control=11 value=98 time=0
EXTRACT: control_change channel=6 control=11 value=100 time=0.015625
EXTRACT: control_change channel=7 control=11 value=98 time=0
EXTRACT: control_change channel=6 control=11 value=98 time=0.051562500000000004
EXTRACT: control_change channel=6 control=11 value=98 time=0.004687500000000001
EXTRACT: control_change channel=7 control=11 value=96 time=0
EXTRACT: note_on channel=9 note=51 velocity=43 time=0.018750000000000003
EXTRACT: control_change channel=6 control=11 value=98 time=0
EXTRACT: control_change channel=6 control=11 value=98 time=0.018750000000000003
EXTRACT: control_change channel=7 control=11 value=97 time=0
EXTRACT: control_change channel=6 control=11 value=98 time=0.03125
EXTRACT: control_change channel=6 control=11 value=98 time=0.00625
EXTRACT: control_change channel=7 control=11 value=95 time=0
EXTRACT: control_change channel=6 control=11 value=99 time=0.037500000000000006
EXTRACT: control_change channel=7 control=11 value=94 time=0
EXTRACT: note_off channel=3 note=70 velocity=64 time=0.009375000000000001
EXTRACT: control_change channel=6 control=11 value=98 time=0.0015625
EXTRACT: note_off channel=9 note=51 velocity=64 time=0.015625
EXTRACT: control_change channel=6 control=11 value=98 time=0.026562500000000003
EXTRACT: control_change channel=7 control=11 value=93 time=0
EXTRACT: control_change channel=6 control=11 value=96 time=0.03125
EXTRACT: control_change channel=6 control=11 value=96 time=0.009375000000000001
EXTRACT: control_change channel=6 control=11 value=97 time=0.015625
EXTRACT: control_change channel=7 control=11 value=92 time=0
EXTRACT: control_change channel=6 control=11 value=96 time=0.0484375
EXTRACT: control_change channel=6 control=11 value=97 time=0.00625
EXTRACT: control_change channel=7 control=11 value=91 time=0
EXTRACT: control_change channel=6 control=11 value=95 time=0.05625
EXTRACT: control_change channel=7 control=11 value=90 time=0
EXTRACT: control_change channel=6 control=11 value=94 time=0.010937500000000001
EXTRACT: note_on channel=3 note=79 velocity=90 time=0.040625
EXTRACT: note_off channel=1 note=32 velocity=64 time=0.003125
EXTRACT: control_change channel=6 control=11 value=95 time=0
EXTRACT: control_change channel=7 control=11 value=88 time=0
EXTRACT: note_on channel=1 note=31 velocity=103 time=0.00625
EXTRACT: note_on channel=7 note=55 velocity=48 time=0
EXTRACT: note_on channel=9 note=35 velocity=108 time=0
EXTRACT: note_on channel=9 note=51 velocity=69 time=0
EXTRACT: note_on channel=10 note=55 velocity=68 time=0
EXTRACT: note_on channel=10 note=58 velocity=68 time=0
EXTRACT: note_on channel=10 note=62 velocity=68 time=0
EXTRACT: note_on channel=10 note=65 velocity=69 time=0
EXTRACT: control_change channel=6 control=11 value=95 time=0
EXTRACT: control_change channel=6 control=11 value=92 time=0.025
EXTRACT: control_change channel=6 control=11 value=93 time=0.0234375
EXTRACT: control_change channel=7 control=11 value=89 time=0
EXTRACT: control_change channel=6 control=11 value=93 time=0.0140625
EXTRACT: note_off channel=7 note=53 velocity=64 time=0.0015625
EXTRACT: note_off channel=9 note=35 velocity=64 time=0.0171875
EXTRACT: control_change channel=6 control=11 value=92 time=0.003125
EXTRACT: control_change channel=7 control=11 value=86 time=0
EXTRACT: control_change channel=6 control=11 value=92 time=0.03125
EXTRACT: control_change channel=6 control=11 value=93 time=0.0078125
EXTRACT: control_change channel=7 control=11 value=86 time=0
EXTRACT: note_off channel=9 note=51 velocity=64 time=0.029687500000000002
EXTRACT: control_change channel=6 control=11 value=91 time=0.00625
EXTRACT: control_change channel=7 control=11 value=84 time=0
EXTRACT: control_change channel=6 control=11 value=91 time=0.018750000000000003
EXTRACT: control_change channel=7 control=11 value=84 time=0
EXTRACT: control_change channel=6 control=11 value=91 time=0.009375000000000001
EXTRACT: control_change channel=6 control=11 value=90 time=0.0203125
EXTRACT: control_change channel=6 control=11 value=90 time=0.0078125
EXTRACT: control_change channel=7 control=11 value=83 time=0
EXTRACT: control_change channel=10 control=64 value=0 time=0.00625
EXTRACT: control_change channel=6 control=11 value=90 time=0.028125
EXTRACT: control_change channel=7 control=11 value=83 time=0
EXTRACT: note_off channel=3 note=79 velocity=64 time=0.0234375
EXTRACT: control_change channel=6 control=11 value=91 time=0.0078125
EXTRACT: control_change channel=6 control=11 value=91 time=0.004687500000000001
EXTRACT: control_change channel=7 control=11 value=80 time=0
EXTRACT: control_change channel=6 control=11 value=88 time=0.018750000000000003
EXTRACT: control_change channel=7 control=11 value=80 time=0
EXTRACT: control_change channel=6 control=11 value=88 time=0.0390625
EXTRACT: control_change channel=7 control=11 value=78 time=0
EXTRACT: control_change channel=6 control=11 value=88 time=0.029687500000000002
EXTRACT: note_on channel=9 note=51 velocity=42 time=0.0015625
EXTRACT: control_change channel=6 control=11 value=88 time=0
EXTRACT: note_on channel=3 note=79 velocity=89 time=0.004687500000000001
EXTRACT: control_change channel=6 control=11 value=88 time=0
EXTRACT: control_change channel=7 control=11 value=78 time=0
EXTRACT: control_change channel=6 control=11 value=88 time=0.035937500000000004
EXTRACT: control_change channel=7 control=11 value=76 time=0
EXTRACT: control_change channel=6 control=11 value=87 time=0.03125
EXTRACT: control_change channel=6 control=11 value=87 time=0.00625
EXTRACT: control_change channel=7 control=11 value=76 time=0
EXTRACT: control_change channel=10 control=64 value=127 time=0.03125
EXTRACT: note_off channel=9 note=51 velocity=64 time=0.004687500000000001
EXTRACT: control_change channel=6 control=11 value=86 time=0
EXTRACT: control_change channel=7 control=11 value=74 time=0
EXTRACT: control_change channel=6 control=11 value=87 time=0.0125
EXTRACT: control_change channel=6 control=11 value=86 time=0.025
EXTRACT: control_change channel=7 control=11 value=74 time=0
EXTRACT: control_change channel=6 control=11 value=85 time=0.035937500000000004
EXTRACT: control_change channel=6 control=11 value=84 time=0.0015625
EXTRACT: control_change channel=7 control=11 value=72 time=0
EXTRACT: control_change channel=6 control=11 value=84 time=0.010937500000000001
EXTRACT: control_change channel=6 control=11 value=85 time=0.025
EXTRACT: control_change channel=7 control=11 value=73 time=0
EXTRACT: control_change channel=6 control=11 value=84 time=0.037500000000000006
EXTRACT: control_change channel=7 control=11 value=70 time=0
EXTRACT: control_change channel=6 control=11 value=84 time=0.010937500000000001
EXTRACT: control_change channel=6 control=11 value=84 time=0.00625
EXTRACT: control_change channel=7 control=11 value=70 time=0
EXTRACT: control_change channel=6 control=11 value=82 time=0.037500000000000006
EXTRACT: control_change channel=7 control=11 value=68 time=0
EXTRACT: control_change channel=6 control=11 value=83 time=0.034375
EXTRACT: control_change channel=7 control=11 value=68 time=0
EXTRACT: note_off channel=3 note=79 velocity=64 time=0.003125
EXTRACT: note_on channel=3 note=77 velocity=89 time=0.009375000000000001
EXTRACT: control_change channel=6 control=11 value=83 time=0.0015625
EXTRACT: note_on channel=9 note=37 velocity=102 time=0.009375000000000001
EXTRACT: note_on channel=9 note=51 velocity=74 time=0
EXTRACT: control_change channel=6 control=11 value=82 time=0
EXTRACT: control_change channel=6 control=11 value=82 time=0.015625
EXTRACT: control_change channel=7 control=11 value=67 time=0
EXTRACT: control_change channel=6 control=11 value=80 time=0.035937500000000004
EXTRACT: control_change channel=7 control=11 value=66 time=0
EXTRACT: control_change channel=6 control=11 value=80 time=0.0125
EXTRACT: note_off channel=10 note=55 velocity=64 time=0.0078125
EXTRACT: note_off channel=10 note=58 velocity=64 time=0.026562500000000003
EXTRACT: note_off channel=10 note=62 velocity=64 time=0.0140625
EXTRACT: note_off channel=10 note=65 velocity=64 time=0.0125
EXTRACT: control_change channel=6 control=11 value=80 time=0
EXTRACT: control_change channel=7 control=11 value=65 time=0
EXTRACT: note_off channel=9 note=37 velocity=64 time=0.0078125
EXTRACT: control_change channel=6 control=11 value=80 time=0.004687500000000001
EXTRACT: note_off channel=9 note=51 velocity=64 time=0.003125
EXTRACT: control_change channel=6 control=11 value=80 time=0.046875
EXTRACT: control_change channel=6 control=11 value=80 time=0.010937500000000001
EXTRACT: control_change channel=7 control=11 value=65 time=0
EXTRACT: control_change channel=6 control=11 value=78 time=0.0125
EXTRACT: control_change channel=6 control=11 value=79 time=0.043750000000000004
EXTRACT: control_change channel=7 control=11 value=62 time=0
EXTRACT: control_change channel=6 control=11 value=78 time=0.029687500000000002
EXTRACT: control_change channel=6 control=11 value=76 time=0.037500000000000006
EXTRACT: control_change channel=6 control=11 value=76 time=0.003125
EXTRACT: control_change channel=7 control=11 value=63 time=0
EXTRACT: note_on channel=9 note=51 velocity=44 time=0.05
EXTRACT: control_change channel=6 control=11 value=76 time=0
EXTRACT: control_change channel=6 control=11 value=77 time=0.037500000000000006
EXTRACT: control_change channel=6 control=11 value=76 time=0.004687500000000001
EXTRACT: control_change channel=7 control=11 value=61 time=0
EXTRACT: control_change channel=6 control=11 value=75 time=0.05
EXTRACT: control_change channel=6 control=11 value=75 time=0.004687500000000001
EXTRACT: control_change channel=7 control=11 value=60 time=0
EXTRACT: note_off channel=9 note=51 velocity=64 time=0.009375000000000001
EXTRACT: control_change channel=6 control=11 value=74 time=0.060937500000000006
EXTRACT: control_change channel=6 control=11 value=73 time=0.0203125
EXTRACT: control_change channel=6 control=11 value=73 time=0.0015625
EXTRACT: control_change channel=7 control=11 value=59 time=0
EXTRACT: control_change channel=6 control=11 value=72 time=0.0328125
EXTRACT: control_change channel=6 control=11 value=73 time=0.059375000000000004
EXTRACT: control_change channel=7 control=11 value=59 time=0
EXTRACT: control_change channel=6 control=11 value=73 time=0.0328125
EXTRACT: note_off channel=7 note=62 velocity=64 time=0.0234375
EXTRACT: note_on channel=7 note=60 velocity=48 time=0.037500000000000006
EXTRACT: note_on channel=9 note=35 velocity=108 time=0
EXTRACT: note_on channel=9 note=51 velocity=72 time=0
EXTRACT: control_change channel=6 control=11 value=70 time=0
EXTRACT: control_change channel=6 control=11 value=70 time=0.0125
EXTRACT: control_change channel=6 control=11 value=71 time=0.053125000000000006
EXTRACT: control_change channel=6 control=11 value=69 time=0.0390625
EXTRACT: note_off channel=9 note=35 velocity=64 time=0.0078125
EXTRACT: note_off channel=9 note=51 velocity=64 time=0.0125
EXTRACT: control_change channel=6 control=11 value=69 time=0.034375
EXTRACT: control_change channel=6 control=11 value=69 time=0.028125
EXTRACT: control_change channel=6 control=11 value=68 time=0.0078125
EXTRACT: control_change channel=6 control=11 value=66 time=0.037500000000000006
EXTRACT: control_change channel=6 control=11 value=66 time=0.035937500000000004
EXTRACT: control_change channel=6 control=11 value=67 time=0.025
EXTRACT: control_change channel=7 control=11 value=56 time=0
EXTRACT: control_change channel=6 control=11 value=67 time=0.0125
EXTRACT: control_change channel=6 control=11 value=66 time=0.015625
EXTRACT: control_change channel=6 control=11 value=64 time=0.0390625
EXTRACT: note_on channel=9 note=35 velocity=108 time=0.0140625
EXTRACT: note_on channel=9 note=51 velocity=46 time=0
EXTRACT: note_on channel=10 note=70 velocity=53 time=0
EXTRACT: control_change channel=6 control=11 value=64 time=0
EXTRACT: control_change channel=6 control=11 value=64 time=0.021875000000000002
EXTRACT: control_change channel=6 control=11 value=64 time=0.025
EXTRACT: control_change channel=7 control=11 value=56 time=0
EXTRACT: control_change channel=6 control=11 value=62 time=0.03125
EXTRACT: note_off channel=9 note=51 velocity=64 time=0.025
EXTRACT: control_change channel=6 control=11 value=63 time=0
EXTRACT: control_change channel=7 control=11 value=55 time=0
EXTRACT: note_off channel=10 note=70 velocity=64 time=0.004687500000000001
EXTRACT: note_off channel=9 note=35 velocity=64 time=0.004687500000000001
EXTRACT: control_change channel=6 control=11 value=63 time=0.0203125
EXTRACT: control_change channel=6 control=11 value=62 time=0.053125000000000006
EXTRACT: control_change channel=6 control=11 value=63 time=0.0015625
EXTRACT: control_change channel=6 control=11 value=62 time=0.05625
EXTRACT: control_change channel=6 control=11 value=61 time=0.0546875
EXTRACT: control_change channel=6 control=11 value=60 time=0.00625
EXTRACT: control_change channel=7 control=11 value=55 time=0
EXTRACT: control_change channel=6 control=11 value=60 time=0.046875
EXTRACT: note_on channel=7 note=62 velocity=46 time=0.0234375
EXTRACT: note_on channel=9 note=37 velocity=102 time=0
EXTRACT: note_on channel=9 note=51 velocity=79 time=0
EXTRACT: control_change channel=6 control=11 value=59 time=0
EXTRACT: note_off channel=7 note=60 velocity=64 time=0.009375000000000001
EXTRACT: control_change channel=6 control=11 value=58 time=0.0125
EXTRACT: control_change channel=7 control=11 value=53 time=0
EXTRACT: control_change channel=6 control=11 value=58 time=0.010937500000000001
EXTRACT: control_change channel=6 control=11 value=58 time=0.045312500000000006
EXTRACT: control_change channel=7 control=11 value=53 time=0
EXTRACT: control_change channel=6 control=11 value=58 time=0.0078125
EXTRACT: note_off channel=9 note=37 velocity=64 time=0.037500000000000006
EXTRACT: control_change channel=6 control=11 value=57 time=0.0015625
EXTRACT: note_off channel=9 note=51 velocity=64 time=0.0125
EXTRACT: control_change channel=6 control=11 value=57 time=0.0125
EXTRACT: control_change channel=7 control=11 value=50 time=0
EXTRACT: control_change channel=6 control=11 value=56 time=0.037500000000000006
EXTRACT: control_change channel=6 control=11 value=56 time=0.009375000000000001
EXTRACT: control_change channel=6 control=11 value=56 time=0.028125
EXTRACT: control_change channel=7 control=11 value=50 time=0
EXTRACT: control_change channel=6 control=11 value=54 time=0.026562500000000003
EXTRACT: control_change channel=6 control=11 value=54 time=0.084375
EXTRACT: control_change channel=7 control=11 value=48 time=0
EXTRACT: control_change channel=6 control=11 value=54 time=0.009375000000000001
EXTRACT: note_on channel=9 note=51 velocity=42 time=0.029687500000000002
EXTRACT: control_change channel=6 control=11 value=54 time=0
EXTRACT: control_change channel=6 control=11 value=54 time=0.0078125
EXTRACT: control_change channel=6 control=11 value=52 time=0.028125
EXTRACT: control_change channel=7 control=11 value=49 time=0
EXTRACT: control_change channel=6 control=11 value=53 time=0.025
EXTRACT: control_change channel=6 control=11 value=52 time=0.029687500000000002
EXTRACT: control_change channel=7 control=11 value=47 time=0
EXTRACT: control_change channel=6 control=11 value=52 time=0.026562500000000003
EXTRACT: note_off channel=9 note=51 velocity=64 time=0.003125
EXTRACT: control_change channel=6 control=11 value=52 time=0.025
EXTRACT: control_change channel=7 control=11 value=46 time=0
EXTRACT: control_change channel=6 control=11 value=50 time=0.0421875
EXTRACT: control_change channel=6 control=11 value=51 time=0.003125
EXTRACT: control_change channel=6 control=11 value=50 time=0.065625
EXTRACT: control_change channel=7 control=11 value=44 time=0
EXTRACT: control_change channel=6 control=11 value=49 time=0.025
EXTRACT: note_off channel=3 note=77 velocity=64 time=0.05
EXTRACT: control_change channel=10 control=64 value=0 time=0.004687500000000001
EXTRACT: note_off channel=7 note=55 velocity=64 time=0.0015625
EXTRACT: note_on channel=3 note=79 velocity=90 time=0.0125
EXTRACT: note_off channel=6 note=77 velocity=64 time=0.004687500000000001
EXTRACT: note_off channel=7 note=58 velocity=64 time=0
EXTRACT: note_off channel=6 note=82 velocity=64 time=0
EXTRACT: note_off channel=1 note=31 velocity=64 time=0
EXTRACT: note_off channel=7 note=62 velocity=64 time=0
EXTRACT: note_on channel=1 note=39 velocity=102 time=0.00625
EXTRACT: note_on channel=6 note=58 velocity=39 time=0
EXTRACT: note_on channel=6 note=63 velocity=42 time=0
EXTRACT: note_on channel=6 note=67 velocity=51 time=0
EXTRACT: note_on channel=9 note=35 velocity=108 time=0
EXTRACT: note_on channel=9 note=51 velocity=68 time=0
EXTRACT: note_on channel=10 note=39 velocity=64 time=0
EXTRACT: note_on channel=10 note=51 velocity=48 time=0
EXTRACT: control_change channel=6 control=11 value=51 time=0
EXTRACT: note_on channel=10 note=58 velocity=64 time=0.004687500000000001
EXTRACT: note_on channel=10 note=55 velocity=66 time=0.009375000000000001
EXTRACT: note_on channel=10 note=63 velocity=55 time=0
EXTRACT: note_off channel=9 note=35 velocity=64 time=0.0671875
EXTRACT: control_change channel=6 control=11 value=52 time=0.0015625
EXTRACT: control_change channel=7 control=11 value=46 time=0
EXTRACT: control_change channel=6 control=11 value=53 time=0.05625
EXTRACT: control_change channel=7 control=11 value=46 time=0
EXTRACT: note_off channel=9 note=51 velocity=64 time=0.0140625
EXTRACT: control_change channel=6 control=11 value=55 time=0.021875000000000002
EXTRACT: control_change channel=7 control=11 value=48 time=0
EXTRACT: control_change channel=6 control=11 value=54 time=0.0125
EXTRACT: control_change channel=6 control=11 value=55 time=0.025
EXTRACT: control_change channel=7 control=11 value=48 time=0
EXTRACT: control_change channel=6 control=11 value=55 time=0.035937500000000004
EXTRACT: control_change channel=7 control=11 value=51 time=0
EXTRACT: control_change channel=6 control=11 value=56 time=0.0390625
EXTRACT: control_change channel=7 control=11 value=51 time=0
EXTRACT: control_change channel=6 control=11 value=56 time=0.034375
EXTRACT: control_change channel=7 control=11 value=52 time=0
EXTRACT: control_change channel=6 control=11 value=59 time=0.037500000000000006
EXTRACT: control_change channel=7 control=11 value=53 time=0
EXTRACT: control_change channel=6 control=11 value=59 time=0.015625
EXTRACT: control_change channel=10 control=64 value=127 time=0.004687500000000001
EXTRACT: control_change channel=6 control=11 value=59 time=0.015625
EXTRACT: control_change channel=7 control=11 value=54 time=0
EXTRACT: control_change channel=6 control=11 value=59 time=0.018750000000000003
EXTRACT: control_change channel=7 control=11 value=55 time=0
EXTRACT: control_change channel=6 control=11 value=60 time=0.018750000000000003
EXTRACT: control_change channel=7 control=11 value=56 time=0
EXTRACT: control_change channel=6 control=11 value=60 time=0.0171875
EXTRACT: control_change channel=7 control=11 value=58 time=0
EXTRACT: control_change channel=6 control=11 value=60 time=0.018750000000000003
EXTRACT: control_change channel=7 control=11 value=59 time=0
EXTRACT: control_change channel=6 control=11 value=61 time=0.018750000000000003
EXTRACT: control_change channel=7 control=11 value=60 time=0
EXTRACT: control_change channel=6 control=11 value=63 time=0.0203125
EXTRACT: control_change channel=7 control=11 value=62 time=0
EXTRACT: control_change channel=6 control=11 value=62 time=0.015625
EXTRACT: control_change channel=7 control=11 value=64 time=0
EXTRACT: control_change channel=6 control=11 value=62 time=0.018750000000000003
EXTRACT: control_change channel=7 control=11 value=66 time=0
EXTRACT: control_change channel=6 control=11 value=62 time=0.0203125
EXTRACT: control_change channel=6 control=11 value=62 time=0
EXTRACT: control_change channel=7 control=11 value=69 time=0
EXTRACT: control_change channel=6 control=11 value=62 time=0.0171875
EXTRACT: control_change channel=7 control=11 value=71 time=0
EXTRACT: control_change channel=6 control=11 value=62 time=0.018750000000000003
EXTRACT: control_change channel=7 control=11 value=74 time=0
EXTRACT: control_change channel=6 control=11 value=63 time=0.018750000000000003
EXTRACT: control_change channel=7 control=11 value=76 time=0
EXTRACT: control_change channel=6 control=11 value=65 time=0.018750000000000003
EXTRACT: control_change channel=7 control=11 value=80 time=0
EXTRACT: control_change channel=6 control=11 value=64 time=0.015625
EXTRACT: control_change channel=7 control=11 value=84 time=0
EXTRACT: control_change channel=6 control=11 value=65 time=0.018750000000000003
EXTRACT: control_change channel=7 control=11 value=88 time=0
EXTRACT: control_change channel=6 control=11 value=64 time=0.0203125
EXTRACT: control_change channel=7 control=11 value=92 time=0
EXTRACT: control_change channel=6 control=11 value=67 time=0.0171875
EXTRACT: control_change channel=7 control=11 value=96 time=0
EXTRACT: control_change channel=6 control=11 value=66 time=0.018750000000000003
EXTRACT: control_change channel=7 control=11 value=100 time=0
EXTRACT: control_change channel=6 control=11 value=66 time=0.018750000000000003
EXTRACT: control_change channel=7 control=11 value=104 time=0
EXTRACT: control_change channel=6 control=11 value=67 time=0.004687500000000001
EXTRACT: control_change channel=6 control=11 value=66 time=0.0140625
EXTRACT: control_change channel=7 control=11 value=109 time=0
EXTRACT: control_change channel=6 control=11 value=68 time=0.015625
EXTRACT: control_change channel=7 control=11 value=112 time=0
EXTRACT: control_change channel=6 control=11 value=68 time=0.0203125
EXTRACT: control_change channel=7 control=11 value=116 time=0
EXTRACT: control_change channel=6 control=11 value=68 time=0.018750000000000003
EXTRACT: control_change channel=7 control=11 value=120 time=0
EXTRACT: control_change channel=1 control=11 value=126 time=0.0078125
EXTRACT: control_change channel=6 control=11 value=69 time=0.009375000000000001
EXTRACT: control_change channel=7 control=11 value=122 time=0
EXTRACT: control_change channel=6 control=11 value=71 time=0.018750000000000003
EXTRACT: control_change channel=7 control=11 value=125 time=0
EXTRACT: control_change channel=1 control=11 value=124 time=0.0078125
EXTRACT: control_change channel=6 control=11 value=70 time=0.010937500000000001
EXTRACT: control_change channel=7 control=11 value=126 time=0
EXTRACT: control_change channel=6 control=11 value=70 time=0.0203125
EXTRACT: control_change channel=7 control=11 value=127 time=0
EXTRACT: control_change channel=1 control=11 value=125 time=0.00625
EXTRACT: control_change channel=1 control=11 value=123 time=0.037500000000000006
EXTRACT: control_change channel=6 control=11 value=72 time=0
EXTRACT: control_change channel=1 control=11 value=123 time=0.037500000000000006
EXTRACT: control_change channel=1 control=11 value=121 time=0.037500000000000006
EXTRACT: control_change channel=1 control=11 value=120 time=0.034375
EXTRACT: control_change channel=1 control=11 value=118 time=0.037500000000000006
EXTRACT: control_change channel=1 control=11 value=118 time=0.037500000000000006
EXTRACT: control_change channel=1 control=11 value=117 time=0.037500000000000006
EXTRACT: control_change channel=1 control=11 value=117 time=0.037500000000000006
EXTRACT: control_change channel=1 control=11 value=114 time=0.035937500000000004
EXTRACT: control_change channel=1 control=11 value=114 time=0.037500000000000006
EXTRACT: control_change channel=1 control=11 value=112 time=0.035937500000000004
EXTRACT: control_change channel=1 control=11 value=112 time=0.018750000000000003
EXTRACT: control_change channel=1 control=11 value=110 time=0.037500000000000006
EXTRACT: control_change channel=1 control=11 value=110 time=0.037500000000000006
EXTRACT: control_change channel=1 control=11 value=109 time=0.037500000000000006
EXTRACT: control_change channel=1 control=11 value=109 time=0.034375
EXTRACT: control_change channel=1 control=11 value=106 time=0.037500000000000006
EXTRACT: control_change channel=1 control=11 value=107 time=0.035937500000000004
EXTRACT: control_change channel=1 control=11 value=104 time=0.037500000000000006
EXTRACT: control_change channel=1 control=11 value=105 time=0.037500000000000006
EXTRACT: control_change channel=1 control=11 value=102 time=0.037500000000000006
EXTRACT: control_change channel=6 control=11 value=70 time=0.029687500000000002
EXTRACT: control_change channel=1 control=11 value=102 time=0.0421875
EXTRACT: control_change channel=1 control=11 value=101 time=0.1125
EXTRACT: control_change channel=6 control=11 value=68 time=0.0328125
EXTRACT: control_change channel=1 control=11 value=100 time=0.040625
EXTRACT: control_change channel=6 control=11 value=66 time=0.03125
EXTRACT: control_change channel=1 control=11 value=98 time=0.1484375
EXTRACT: control_change channel=1 control=11 value=98 time=0.037500000000000006
EXTRACT: control_change channel=6 control=11 value=64 time=0.0015625
EXTRACT: control_change channel=10 control=64 value=0 time=0.034375
EXTRACT: control_change channel=1 control=11 value=96 time=0.0015625
EXTRACT: control_change channel=1 control=11 value=97 time=0.034375
EXTRACT: control_change channel=1 control=11 value=95 time=0.0921875
EXTRACT: control_change channel=6 control=11 value=62 time=0.025
EXTRACT: note_off channel=3 note=79 velocity=64 time=0.146875
EXTRACT: control_change channel=1 control=11 value=94 time=0.03125
EXTRACT: control_change channel=6 control=11 value=60 time=0.009375000000000001
EXTRACT: control_change channel=1 control=11 value=92 time=0.065625
EXTRACT: control_change channel=1 control=11 value=92 time=0.0734375
EXTRACT: program_change channel=10 program=5 time=0.021875000000000002
EXTRACT: control_change channel=6 control=11 value=59 time=0.026562500000000003
EXTRACT: control_change channel=1 control=11 value=90 time=0.045312500000000006
EXTRACT: control_change channel=6 control=11 value=54 time=0.1421875
EXTRACT: control_change channel=1 control=11 value=90 time=0.021875000000000002
EXTRACT: control_change channel=1 control=11 value=88 time=0.11093750000000001
EXTRACT: control_change channel=6 control=11 value=54 time=0.0546875
EXTRACT: control_change channel=1 control=11 value=88 time=0.0171875
EXTRACT: control_change channel=1 control=11 value=86 time=0.09375
EXTRACT: control_change channel=1 control=11 value=86 time=0.07500000000000001
EXTRACT: control_change channel=6 control=11 value=52 time=0.0015625
EXTRACT: control_change channel=1 control=11 value=85 time=0.0546875
EXTRACT: control_change channel=1 control=11 value=84 time=0.015625
EXTRACT: control_change channel=1 control=11 value=82 time=0.05625
EXTRACT: control_change channel=1 control=11 value=82 time=0.05625
EXTRACT: control_change channel=6 control=11 value=50 time=0.004687500000000001
EXTRACT: control_change channel=1 control=11 value=80 time=0.03125
EXTRACT: control_change channel=1 control=11 value=81 time=0.05625
EXTRACT: control_change channel=1 control=11 value=78 time=0.035937500000000004
EXTRACT: control_change channel=1 control=11 value=79 time=0.035937500000000004
EXTRACT: control_change channel=6 control=11 value=47 time=0.028125
EXTRACT: control_change channel=1 control=11 value=77 time=0.0078125
EXTRACT: control_change channel=1 control=11 value=76 time=0.07500000000000001
EXTRACT: control_change channel=1 control=11 value=75 time=0.0734375
EXTRACT: control_change channel=6 control=11 value=44 time=0.03125
EXTRACT: control_change channel=1 control=11 value=75 time=0.040625
EXTRACT: control_change channel=1 control=11 value=72 time=0.0734375
EXTRACT: control_change channel=6 control=11 value=45 time=0.0734375
EXTRACT: control_change channel=1 control=11 value=73 time=0.0015625
EXTRACT: control_change channel=1 control=11 value=71 time=0.1453125
EXTRACT: control_change channel=6 control=11 value=41 time=0.040625
EXTRACT: control_change channel=1 control=11 value=70 time=0.0171875
EXTRACT: control_change channel=1 control=11 value=68 time=0.109375
EXTRACT: control_change channel=6 control=11 value=38 time=0.060937500000000006
EXTRACT: control_change channel=1 control=11 value=69 time=0.029687500000000002
EXTRACT: control_change channel=1 control=11 value=67 time=0.0734375
EXTRACT: control_change channel=1 control=11 value=67 time=0.0546875
EXTRACT: control_change channel=6 control=11 value=37 time=0.029687500000000002
EXTRACT: control_change channel=1 control=11 value=65 time=0.043750000000000004
EXTRACT: control_change channel=1 control=11 value=64 time=0.05625
EXTRACT: control_change channel=1 control=11 value=62 time=0.035937500000000004
EXTRACT: control_change channel=1 control=11 value=62 time=0.0390625
EXTRACT: control_change channel=6 control=11 value=37 time=0.0125
EXTRACT: control_change channel=1 control=11 value=61 time=0.059375000000000004
EXTRACT: control_change channel=1 control=11 value=61 time=0.0546875
EXTRACT: control_change channel=1 control=11 value=58 time=0.0546875
EXTRACT: control_change channel=6 control=11 value=32 time=0.018750000000000003
EXTRACT: control_change channel=1 control=11 value=58 time=0.0546875
EXTRACT: control_change channel=1 control=11 value=56 time=0.0921875
EXTRACT: control_change channel=6 control=11 value=31 time=0.040625
EXTRACT: control_change channel=1 control=11 value=56 time=0.0328125
EXTRACT: control_change channel=1 control=11 value=54 time=0.035937500000000004
EXTRACT: control_change channel=1 control=11 value=54 time=0.05625
EXTRACT: control_change channel=1 control=11 value=53 time=0.0546875
EXTRACT: control_change channel=6 control=11 value=29 time=0.0078125
EXTRACT: control_change channel=1 control=11 value=53 time=0.046875
EXTRACT: control_change channel=1 control=11 value=50 time=0.037500000000000006
EXTRACT: control_change channel=1 control=11 value=51 time=0.0546875
EXTRACT: control_change channel=1 control=11 value=48 time=0.035937500000000004
EXTRACT: control_change channel=6 control=11 value=27 time=0.0125
EXTRACT: control_change channel=1 control=11 value=49 time=0.025
EXTRACT: control_change channel=1 control=11 value=46 time=0.0390625
EXTRACT: control_change channel=1 control=11 value=46 time=0.034375
EXTRACT: control_change channel=1 control=11 value=45 time=0.035937500000000004
EXTRACT: control_change channel=1 control=11 value=44 time=0.037500000000000006
EXTRACT: control_change channel=6 control=11 value=25 time=0.015625
EXTRACT: control_change channel=1 control=11 value=42 time=0.0203125
EXTRACT: control_change channel=1 control=11 value=42 time=0.037500000000000006
EXTRACT: control_change channel=1 control=11 value=40 time=0.018750000000000003
EXTRACT: control_change channel=1 control=11 value=41 time=0.035937500000000004
EXTRACT: control_change channel=1 control=11 value=39 time=0.0203125
EXTRACT: control_change channel=1 control=11 value=38 time=0.034375
EXTRACT: control_change channel=1 control=11 value=36 time=0.0203125
EXTRACT: control_change channel=6 control=11 value=23 time=0
EXTRACT: control_change channel=1 control=11 value=36 time=0.034375
EXTRACT: control_change channel=1 control=11 value=34 time=0.018750000000000003
EXTRACT: control_change channel=1 control=11 value=34 time=0.037500000000000006
EXTRACT: control_change channel=1 control=11 value=32 time=0.0171875
EXTRACT: control_change channel=1 control=11 value=31 time=0.0390625
EXTRACT: control_change channel=1 control=11 value=31 time=0.015625
EXTRACT: control_change channel=1 control=11 value=30 time=0.0203125
EXTRACT: control_change channel=6 control=11 value=21 time=0.004687500000000001
EXTRACT: control_change channel=1 control=11 value=29 time=0.0328125
EXTRACT: control_change channel=1 control=11 value=28 time=0.018750000000000003
EXTRACT: control_change channel=1 control=11 value=27 time=0.0171875
EXTRACT: control_change channel=1 control=11 value=26 time=0.018750000000000003
EXTRACT: control_change channel=1 control=11 value=25 time=0.018750000000000003
EXTRACT: control_change channel=1 control=11 value=24 time=0.0171875
EXTRACT: control_change channel=1 control=11 value=23 time=0.018750000000000003
EXTRACT: control_change channel=1 control=11 value=22 time=0.018750000000000003
EXTRACT: control_change channel=6 control=11 value=18 time=0.026562500000000003
EXTRACT: control_change channel=1 control=11 value=21 time=0.0078125
EXTRACT: control_change channel=1 control=11 value=20 time=0.0203125
EXTRACT: control_change channel=1 control=11 value=19 time=0.018750000000000003
EXTRACT: control_change channel=1 control=11 value=18 time=0.0171875
EXTRACT: control_change channel=1 control=11 value=17 time=0.018750000000000003
EXTRACT: control_change channel=1 control=11 value=16 time=0.0203125
EXTRACT: control_change channel=1 control=11 value=15 time=0.018750000000000003
EXTRACT: control_change channel=1 control=11 value=13 time=0.035937500000000004
EXTRACT: control_change channel=6 control=11 value=17 time=0.029687500000000002
EXTRACT: control_change channel=1 control=11 value=12 time=0.0078125
EXTRACT: control_change channel=1 control=11 value=11 time=0.015625
EXTRACT: control_change channel=1 control=11 value=10 time=0.018750000000000003
EXTRACT: control_change channel=1 control=11 value=9 time=0.018750000000000003
EXTRACT: control_change channel=1 control=11 value=8 time=0.035937500000000004
EXTRACT: control_change channel=1 control=11 value=7 time=0.018750000000000003
EXTRACT: control_change channel=1 control=11 value=6 time=0.018750000000000003
EXTRACT: control_change channel=1 control=11 value=5 time=0.0171875
EXTRACT: control_change channel=1 control=11 value=4 time=0.018750000000000003
EXTRACT: control_change channel=6 control=11 value=15 time=0.0171875
EXTRACT: control_change channel=1 control=11 value=3 time=0.0015625
EXTRACT: control_change channel=1 control=11 value=2 time=0.0203125
EXTRACT: control_change channel=1 control=11 value=1 time=0.015625
EXTRACT: control_change channel=1 control=11 value=0 time=0.0203125
EXTRACT: control_change channel=6 control=11 value=12 time=0.1296875
EXTRACT: control_change channel=6 control=11 value=10 time=0.1875
EXTRACT: control_change channel=6 control=11 value=9 time=0.1875
EXTRACT: control_change channel=6 control=11 value=7 time=0.1875
EXTRACT: control_change channel=6 control=11 value=4 time=0.1875
EXTRACT: note_off channel=1 note=39 velocity=64 time=0.18125000000000002
EXTRACT: control_change channel=6 control=11 value=2 time=0.00625
EXTRACT: note_off channel=6 note=67 velocity=64 time=0.153125
EXTRACT: note_off channel=6 note=58 velocity=64 time=0.018750000000000003
EXTRACT: control_change channel=6 control=11 value=0 time=0.015625
EXTRACT: note_off channel=6 note=63 velocity=64 time=0.010937500000000001
EXTRACT: note_off channel=10 note=39 velocity=64 time=0.7328125000000001
EXTRACT: note_off channel=10 note=51 velocity=64 time=0
EXTRACT: note_off channel=10 note=63 velocity=64 time=0
EXTRACT: note_off channel=10 note=58 velocity=64 time=0.004687500000000001
EXTRACT: note_off channel=10 note=55 velocity=64 time=0.009375000000000001
EXTRACT: note_off channel=7 note=62 velocity=64 time=1.7046875000000001
EXTRACT: note_off channel=7 note=62 velocity=64 time=0
EXTRACT: note_off channel=7 note=62 velocity=64 time=0
