EXTRACT: sysex data=(126,127,9,1) time=0
EXTRACT: sysex data=(65,16,66,18,64,0,127,0,65) time=0.0010416666666666667
EXTRACT: control_change channel=0 control=11 value=127 time=0.3022931
EXTRACT: control_change channel=0 control=71 value=64 time=0.0017373166666666666
EXTRACT: control_change channel=0 control=72 value=64 time=0.0017373166666666666
EXTRACT: control_change channel=0 control=73 value=64 time=0.0017373166666666666
EXTRACT: control_change channel=0 control=74 value=64 time=0.0017373166666666666
EXTRACT: control_change channel=1 control=11 value=127 time=0.0208478
EXTRACT: control_change channel=1 control=71 value=64 time=0.0017373166666666666
EXTRACT: control_change channel=1 control=72 value=64 time=0.0017373166666666666
EXTRACT: control_change channel=1 control=73 value=64 time=0.0017373166666666666
EXTRACT: control_change channel=1 control=74 value=64 time=0.0017373166666666666
EXTRACT: control_change channel=2 control=11 value=127 time=0.0208478
EXTRACT: control_change channel=2 control=71 value=64 time=0.0017373166666666666
EXTRACT: control_change channel=2 control=72 value=64 time=0.0017373166666666666
EXTRACT: control_change channel=2 control=73 value=64 time=0.0017373166666666666
EXTRACT: control_change channel=2 control=74 value=64 time=0.0017373166666666666
EXTRACT: control_change channel=3 control=11 value=127 time=0.0208478
EXTRACT: control_change channel=3 control=71 value=64 time=0.0017373166666666666
EXTRACT: control_change channel=3 control=72 value=64 time=0.0017373166666666666
EXTRACT: control_change channel=3 control=73 value=64 time=0.0017373166666666666
EXTRACT: control_change channel=3 control=74 value=64 time=0.0017373166666666666
EXTRACT: control_change channel=4 control=11 value=127 time=0.0208478
EXTRACT: control_change channel=4 control=71 value=64 time=0.0017373166666666666
EXTRACT: control_change channel=4 control=72 value=64 time=0.0017373166666666666
EXTRACT: control_change channel=4 control=73 value=64 time=0.0017373166666666666
EXTRACT: control_change channel=4 control=74 value=64 time=0.0017373166666666666
EXTRACT: control_change channel=5 control=72 value=64 time=0.017373166666666665
EXTRACT: control_change channel=5 control=71 value=64 time=0
EXTRACT: control_change channel=5 control=11 value=127 time=0.006949266666666666
EXTRACT: control_change channel=5 control=73 value=64 time=0.0104239
EXTRACT: control_change channel=5 control=74 value=64 time=0.0017373166666666666
EXTRACT: control_change channel=6 control=11 value=127 time=0.012161216666666665
EXTRACT: control_change channel=6 control=71 value=64 time=0.0017373166666666666
EXTRACT: control_change channel=6 control=72 value=64 time=0.0017373166666666666
EXTRACT: control_change channel=6 control=73 value=64 time=0.0017373166666666666
EXTRACT: control_change channel=6 control=74 value=64 time=0.0017373166666666666
EXTRACT: control_change channel=7 control=11 value=127 time=0.0208478
EXTRACT: control_change channel=7 control=71 value=64 time=0.0017373166666666666
EXTRACT: control_change channel=7 control=72 value=64 time=0.0017373166666666666
EXTRACT: control_change channel=7 control=73 value=64 time=0.0017373166666666666
EXTRACT: control_change channel=7 control=74 value=64 time=0.0017373166666666666
EXTRACT: control_change channel=9 control=11 value=127 time=0.04864486666666666
EXTRACT: control_change channel=9 control=71 value=64 time=0.0017373166666666666
EXTRACT: control_change channel=9 control=72 value=64 time=0.0017373166666666666
EXTRACT: control_change channel=9 control=73 value=64 time=0.0017373166666666666
EXTRACT: control_change channel=8 control=71 value=64 time=0.0017373166666666666
EXTRACT: control_change channel=9 control=74 value=64 time=0
EXTRACT: control_change channel=8 control=11 value=127 time=0.006949266666666666
EXTRACT: control_change channel=8 control=74 value=64 time=0
EXTRACT: control_change channel=8 control=73 value=64 time=0.0017373166666666666
EXTRACT: control_change channel=8 control=72 value=64 time=0.003474633333333333
EXTRACT: control_change channel=10 control=11 value=127 time=0.008686583333333333
EXTRACT: control_change channel=10 control=71 value=64 time=0.0017373166666666666
EXTRACT: control_change channel=10 control=72 value=64 time=0.0017373166666666666
EXTRACT: control_change channel=10 control=74 value=64 time=0.003474633333333333
EXTRACT: control_change channel=11 control=11 value=127 time=0.0208478
EXTRACT: control_change channel=11 control=71 value=64 time=0.0017373166666666666
EXTRACT: control_change channel=11 control=72 value=64 time=0.0017373166666666666
EXTRACT: control_change channel=11 control=73 value=64 time=0.0017373166666666666
EXTRACT: control_change channel=11 control=74 value=64 time=0.0017373166666666666
EXTRACT: control_change channel=12 control=11 value=127 time=0.0208478
EXTRACT: control_change channel=12 control=71 value=64 time=0.0017373166666666666
EXTRACT: control_change channel=12 control=72 value=64 time=0.0017373166666666666
EXTRACT: control_change channel=12 control=73 value=64 time=0.0017373166666666666
EXTRACT: control_change channel=12 control=74 value=64 time=0.0017373166666666666
EXTRACT: control_change channel=10 control=73 value=107 time=0.003474633333333333
EXTRACT: control_change channel=13 control=11 value=127 time=0.017373166666666665
EXTRACT: control_change channel=13 control=71 value=64 time=0.0017373166666666666
EXTRACT: control_change channel=13 control=72 value=64 time=0.0017373166666666666
EXTRACT: control_change channel=13 control=73 value=64 time=0.0017373166666666666
EXTRACT: control_change channel=13 control=74 value=64 time=0.0017373166666666666
EXTRACT: control_change channel=14 control=11 value=127 time=0.0208478
EXTRACT: control_change channel=14 control=71 value=64 time=0.0017373166666666666
EXTRACT: control_change channel=14 control=72 value=64 time=0.0017373166666666666
EXTRACT: control_change channel=14 control=73 value=64 time=0.0017373166666666666
EXTRACT: control_change channel=14 control=74 value=64 time=0.0017373166666666666
EXTRACT: control_change channel=0 control=94 value=0 time=0.01563585
EXTRACT: control_change channel=0 control=101 value=0 time=0
EXTRACT: control_change channel=0 control=100 value=0 time=0.0017373166666666666
EXTRACT: control_change channel=0 control=6 value=2 time=0.0017373166666666666
EXTRACT: control_change channel=0 control=38 value=0 time=0.0017373166666666666
EXTRACT: control_change channel=15 control=11 value=127 time=0
EXTRACT: control_change channel=15 control=71 value=64 time=0.0017373166666666666
EXTRACT: control_change channel=15 control=72 value=64 time=0.0017373166666666666
EXTRACT: pitchwheel channel=0 pitch=0 time=0.0017373166666666666
EXTRACT: control_change channel=15 control=73 value=64 time=0
EXTRACT: control_change channel=0 control=1 value=0 time=0.0017373166666666666
EXTRACT: control_change channel=15 control=74 value=64 time=0
EXTRACT: control_change channel=1 control=94 value=0 time=0.01563585
EXTRACT: control_change channel=1 control=101 value=0 time=0
EXTRACT: control_change channel=1 control=100 value=0 time=0.0017373166666666666
EXTRACT: control_change channel=1 control=6 value=2 time=0.0017373166666666666
EXTRACT: control_change channel=1 control=38 value=0 time=0.0017373166666666666
EXTRACT: pitchwheel channel=1 pitch=0 time=0.00521195
EXTRACT: control_change channel=1 control=1 value=0 time=0.0017373166666666666
EXTRACT: control_change channel=2 control=94 value=0 time=0.01563585
EXTRACT: control_change channel=2 control=101 value=0 time=0
EXTRACT: control_change channel=2 control=100 value=0 time=0.0017373166666666666
EXTRACT: control_change channel=2 control=6 value=2 time=0.0017373166666666666
EXTRACT: control_change channel=2 control=38 value=0 time=0.0017373166666666666
EXTRACT: pitchwheel channel=2 pitch=0 time=0.00521195
EXTRACT: control_change channel=2 control=1 value=0 time=0.0017373166666666666
EXTRACT: control_change channel=3 control=94 value=0 time=0.01563585
EXTRACT: control_change channel=3 control=101 value=0 time=0
EXTRACT: control_change channel=3 control=100 value=0 time=0.0017373166666666666
EXTRACT: control_change channel=3 control=6 value=2 time=0.0017373166666666666
EXTRACT: control_change channel=3 control=38 value=0 time=0.0017373166666666666
EXTRACT: pitchwheel channel=3 pitch=0 time=0.00521195
EXTRACT: control_change channel=3 control=1 value=0 time=0.0017373166666666666
EXTRACT: control_change channel=0 control=0 value=0 time=0.003474633333333333
EXTRACT: control_change channel=0 control=32 value=0 time=0.0017373166666666666
EXTRACT: program_change channel=0 program=0 time=0
EXTRACT: control_change channel=0 control=7 value=100 time=0.0017373166666666666
EXTRACT: control_change channel=0 control=10 value=64 time=0
EXTRACT: control_change channel=0 control=91 value=0 time=0
EXTRACT: control_change channel=0 control=93 value=0 time=0
EXTRACT: program_change channel=1 program=33 time=0.003474633333333333
EXTRACT: control_change channel=1 control=7 value=100 time=0
EXTRACT: control_change channel=1 control=10 value=64 time=0
EXTRACT: control_change channel=1 control=91 value=0 time=0
EXTRACT: control_change channel=1 control=93 value=0 time=0
EXTRACT: control_change channel=2 control=0 value=0 time=0.0017373166666666666
EXTRACT: control_change channel=2 control=32 value=0 time=0.0017373166666666666
EXTRACT: program_change channel=2 program=0 time=0
EXTRACT: control_change channel=2 control=7 value=83 time=0.0017373166666666666
EXTRACT: control_change channel=2 control=10 value=64 time=0
EXTRACT: control_change channel=2 control=91 value=41 time=0
EXTRACT: control_change channel=2 control=93 value=22 time=0
EXTRACT: control_change channel=4 control=94 value=0 time=0
EXTRACT: program_change channel=3 program=65 time=0.003474633333333333
EXTRACT: control_change channel=3 control=7 value=127 time=0
EXTRACT: control_change channel=3 control=10 value=68 time=0
EXTRACT: control_change channel=3 control=91 value=56 time=0
EXTRACT: control_change channel=3 control=93 value=15 time=0
EXTRACT: control_change channel=4 control=101 value=0 time=0
EXTRACT: control_change channel=4 control=100 value=0 time=0.0017373166666666666
EXTRACT: control_change channel=4 control=6 value=2 time=0.0017373166666666666
EXTRACT: control_change channel=4 control=38 value=0 time=0.0017373166666666666
EXTRACT: program_change channel=4 program=52 time=0
EXTRACT: control_change channel=4 control=7 value=100 time=0
EXTRACT: control_change channel=4 control=10 value=58 time=0
EXTRACT: control_change channel=4 control=91 value=52 time=0
EXTRACT: control_change channel=4 control=93 value=23 time=0
EXTRACT: pitchwheel channel=4 pitch=0 time=0.0017373166666666666
EXTRACT: program_change channel=5 program=25 time=0.0017373166666666666
EXTRACT: control_change channel=4 control=1 value=0 time=0
EXTRACT: control_change channel=5 control=7 value=91 time=0
EXTRACT: control_change channel=5 control=10 value=127 time=0
EXTRACT: control_change channel=5 control=91 value=55 time=0
EXTRACT: control_change channel=5 control=93 value=0 time=0
EXTRACT: program_change channel=6 program=120 time=0.003474633333333333
EXTRACT: control_change channel=6 control=7 value=88 time=0.0017373166666666666
EXTRACT: control_change channel=6 control=10 value=0 time=0
EXTRACT: control_change channel=6 control=91 value=72 time=0
EXTRACT: control_change channel=6 control=93 value=21 time=0
EXTRACT: program_change channel=7 program=120 time=0.003474633333333333
EXTRACT: control_change channel=7 control=7 value=88 time=0
EXTRACT: control_change channel=7 control=10 value=127 time=0
EXTRACT: control_change channel=7 control=91 value=76 time=0
EXTRACT: control_change channel=7 control=93 value=20 time=0
EXTRACT: program_change channel=8 program=25 time=0.003474633333333333
EXTRACT: control_change channel=8 control=7 value=90 time=0.0017373166666666666
EXTRACT: control_change channel=8 control=10 value=0 time=0
EXTRACT: control_change channel=8 control=91 value=58 time=0
EXTRACT: control_change channel=8 control=93 value=30 time=0
EXTRACT: program_change channel=9 program=0 time=0.003474633333333333
EXTRACT: control_change channel=9 control=7 value=101 time=0
EXTRACT: control_change channel=9 control=10 value=64 time=0
EXTRACT: control_change channel=9 control=91 value=55 time=0
EXTRACT: control_change channel=9 control=93 value=20 time=0
EXTRACT: program_change channel=10 program=94 time=0.003474633333333333
EXTRACT: control_change channel=10 control=7 value=46 time=0.0017373166666666666
EXTRACT: control_change channel=10 control=10 value=64 time=0
EXTRACT: control_change channel=10 control=91 value=55 time=0
EXTRACT: control_change channel=10 control=93 value=20 time=0
EXTRACT: control_change channel=5 control=101 value=0 time=0
EXTRACT: control_change channel=5 control=100 value=0 time=0.0017373166666666666
EXTRACT: control_change channel=5 control=6 value=2 time=0.0017373166666666666
EXTRACT: control_change channel=5 control=38 value=0 time=0.0017373166666666666
EXTRACT: control_change channel=5 control=94 value=0 time=0
EXTRACT: program_change channel=11 program=25 time=0
EXTRACT: control_change channel=11 control=7 value=100 time=0
EXTRACT: control_change channel=11 control=10 value=64 time=0
EXTRACT: control_change channel=11 control=91 value=55 time=0
EXTRACT: control_change channel=11 control=93 value=20 time=0
EXTRACT: pitchwheel channel=5 pitch=0 time=0
EXTRACT: control_change channel=5 control=1 value=0 time=0.0017373166666666666
EXTRACT: program_change channel=12 program=26 time=0
EXTRACT: control_change channel=12 control=7 value=100 time=0.0017373166666666666
EXTRACT: control_change channel=12 control=10 value=105 time=0
EXTRACT: control_change channel=12 control=91 value=55 time=0
EXTRACT: control_change channel=12 control=93 value=20 time=0
EXTRACT: program_change channel=13 program=78 time=0.003474633333333333
EXTRACT: control_change channel=13 control=7 value=100 time=0
EXTRACT: control_change channel=13 control=10 value=64 time=0
EXTRACT: control_change channel=13 control=91 value=55 time=0
EXTRACT: control_change channel=13 control=93 value=20 time=0
EXTRACT: program_change channel=14 program=119 time=0.003474633333333333
EXTRACT: control_change channel=14 control=7 value=100 time=0.0017373166666666666
EXTRACT: control_change channel=14 control=10 value=64 time=0
EXTRACT: control_change channel=14 control=91 value=0 time=0
EXTRACT: control_change channel=14 control=93 value=0 time=0
EXTRACT: control_change channel=15 control=0 value=0 time=0.0017373166666666666
EXTRACT: control_change channel=15 control=32 value=0 time=0
EXTRACT: program_change channel=15 program=0 time=0.0017373166666666666
EXTRACT: control_change channel=6 control=94 value=0 time=0
EXTRACT: control_change channel=15 control=7 value=0 time=0
EXTRACT: control_change channel=15 control=10 value=64 time=0
EXTRACT: control_change channel=15 control=91 value=0 time=0
EXTRACT: control_change channel=15 control=93 value=0 time=0
EXTRACT: control_change channel=6 control=101 value=0 time=0
EXTRACT: control_change channel=6 control=100 value=0 time=0.0017373166666666666
EXTRACT: control_change channel=6 control=6 value=2 time=0.0017373166666666666
EXTRACT: control_change channel=6 control=38 value=0 time=0.0017373166666666666
EXTRACT: pitchwheel channel=6 pitch=0 time=0.00521195
EXTRACT: control_change channel=6 control=1 value=0 time=0.0017373166666666666
EXTRACT: control_change channel=7 control=94 value=0 time=0.01563585
EXTRACT: control_change channel=7 control=101 value=0 time=0
EXTRACT: control_change channel=7 control=100 value=0 time=0.0017373166666666666
EXTRACT: control_change channel=7 control=6 value=2 time=0.0017373166666666666
EXTRACT: control_change channel=7 control=38 value=0 time=0.0017373166666666666
EXTRACT: pitchwheel channel=7 pitch=0 time=0.00521195
EXTRACT: control_change channel=7 control=1 value=0 time=0.0017373166666666666
EXTRACT: control_change channel=9 control=94 value=0 time=0.04343291666666666
EXTRACT: pitchwheel channel=9 pitch=0 time=0.0017373166666666666
EXTRACT: control_change channel=9 control=1 value=0 time=0.0017373166666666666
EXTRACT: control_change channel=8 control=94 value=0 time=0.00521195
EXTRACT: control_change channel=8 control=101 value=0 time=0
EXTRACT: control_change channel=8 control=100 value=0 time=0.0017373166666666666
EXTRACT: control_change channel=8 control=6 value=2 time=0.0017373166666666666
EXTRACT: control_change channel=8 control=38 value=0 time=0.0017373166666666666
EXTRACT: pitchwheel channel=8 pitch=0 time=0.003474633333333333
EXTRACT: control_change channel=8 control=1 value=0 time=0.008686583333333333
EXTRACT: control_change channel=10 control=94 value=0 time=0.0017373166666666666
EXTRACT: control_change channel=10 control=101 value=0 time=0
EXTRACT: control_change channel=10 control=100 value=0 time=0.0017373166666666666
EXTRACT: control_change channel=10 control=6 value=2 time=0.0017373166666666666
EXTRACT: control_change channel=10 control=38 value=0 time=0.0017373166666666666
EXTRACT: pitchwheel channel=10 pitch=0 time=0.00521195
EXTRACT: control_change channel=10 control=1 value=0 time=0.0017373166666666666
EXTRACT: control_change channel=11 control=94 value=0 time=0.01563585
EXTRACT: control_change channel=11 control=101 value=0 time=0
EXTRACT: control_change channel=11 control=100 value=0 time=0.0017373166666666666
EXTRACT: control_change channel=11 control=6 value=2 time=0.0017373166666666666
EXTRACT: control_change channel=11 control=38 value=0 time=0.0017373166666666666
EXTRACT: pitchwheel channel=11 pitch=0 time=0.00521195
EXTRACT: control_change channel=11 control=1 value=0 time=0.0017373166666666666
EXTRACT: control_change channel=12 control=94 value=0 time=0.01563585
EXTRACT: control_change channel=12 control=101 value=0 time=0
EXTRACT: control_change channel=12 control=100 value=0 time=0.0017373166666666666
EXTRACT: control_change channel=12 control=6 value=2 time=0.0017373166666666666
EXTRACT: control_change channel=12 control=38 value=0 time=0.0017373166666666666
EXTRACT: pitchwheel channel=12 pitch=0 time=0.00521195
EXTRACT: control_change channel=12 control=1 value=0 time=0.0017373166666666666
EXTRACT: control_change channel=13 control=94 value=0 time=0.01563585
EXTRACT: control_change channel=13 control=101 value=0 time=0
EXTRACT: control_change channel=13 control=100 value=0 time=0.0017373166666666666
EXTRACT: control_change channel=13 control=6 value=2 time=0.0017373166666666666
EXTRACT: control_change channel=13 control=38 value=0 time=0.0017373166666666666
EXTRACT: pitchwheel channel=13 pitch=0 time=0.00521195
EXTRACT: control_change channel=13 control=1 value=0 time=0.0017373166666666666
EXTRACT: control_change channel=14 control=94 value=0 time=0.01563585
EXTRACT: control_change channel=14 control=101 value=0 time=0
EXTRACT: control_change channel=14 control=100 value=0 time=0.0017373166666666666
EXTRACT: control_change channel=14 control=6 value=2 time=0.0017373166666666666
EXTRACT: control_change channel=14 control=38 value=0 time=0.0017373166666666666
EXTRACT: pitchwheel channel=14 pitch=0 time=0.00521195
EXTRACT: control_change channel=14 control=1 value=0 time=0.0017373166666666666
EXTRACT: control_change channel=15 control=94 value=0 time=0.01563585
EXTRACT: control_change channel=15 control=101 value=0 time=0
EXTRACT: control_change channel=15 control=100 value=0 time=0.0017373166666666666
EXTRACT: control_change channel=15 control=6 value=2 time=0.0017373166666666666
EXTRACT: control_change channel=15 control=38 value=0 time=0.0017373166666666666
EXTRACT: pitchwheel channel=15 pitch=0 time=0.00521195
EXTRACT: control_change channel=15 control=1 value=0 time=0.0017373166666666666
EXTRACT: note_on channel=5 note=64 velocity=62 time=2.1716458333333333
EXTRACT: note_on channel=5 note=52 velocity=79 time=0
EXTRACT: note_on channel=9 note=36 velocity=119 time=0.0017373166666666666
EXTRACT: note_on channel=15 note=64 velocity=1 time=0
EXTRACT: note_on channel=15 note=60 velocity=1 time=0
EXTRACT: note_on channel=15 note=67 velocity=1 time=0
EXTRACT: note_on channel=5 note=60 velocity=77 time=0.006949266666666666
EXTRACT: note_on channel=5 note=48 velocity=84 time=0
EXTRACT: note_on channel=5 note=55 velocity=68 time=0.0017373166666666666
EXTRACT: note_on channel=8 note=48 velocity=84 time=0.01911048333333333
EXTRACT: note_on channel=8 note=60 velocity=77 time=0.003474633333333333
EXTRACT: note_on channel=8 note=52 velocity=79 time=0.006949266666666666
EXTRACT: note_on channel=8 note=55 velocity=68 time=0.003474633333333333
EXTRACT: note_on channel=8 note=64 velocity=62 time=0.0017373166666666666
EXTRACT: note_on channel=9 note=36 velocity=0 time=0.027797066666666665
EXTRACT: note_on channel=3 note=55 velocity=67 time=0.2067406833333333
EXTRACT: note_on channel=3 note=55 velocity=0 time=0.1146629
EXTRACT: note_on channel=3 note=55 velocity=77 time=0.16330776666666666
EXTRACT: note_on channel=3 note=55 velocity=0 time=0.104239
EXTRACT: note_on channel=5 note=52 velocity=0 time=0.07644193333333332
EXTRACT: note_on channel=8 note=52 velocity=0 time=0.03995828333333333
EXTRACT: note_on channel=5 note=48 velocity=0 time=0.01911048333333333
EXTRACT: note_on channel=8 note=48 velocity=0 time=0.0208478
EXTRACT: note_on channel=3 note=55 velocity=84 time=0.017373166666666665
EXTRACT: note_on channel=6 note=52 velocity=105 time=0
EXTRACT: note_on channel=6 note=48 velocity=109 time=0
EXTRACT: note_on channel=6 note=55 velocity=94 time=0
EXTRACT: note_on channel=9 note=42 velocity=119 time=0
EXTRACT: note_on channel=9 note=28 velocity=89 time=0
EXTRACT: note_on channel=5 note=48 velocity=79 time=0.006949266666666666
EXTRACT: note_on channel=8 note=48 velocity=79 time=0.027797066666666665
EXTRACT: note_on channel=7 note=52 velocity=105 time=0.008686583333333333
EXTRACT: note_on channel=7 note=48 velocity=109 time=0
EXTRACT: note_on channel=7 note=55 velocity=94 time=0
EXTRACT: note_on channel=6 note=52 velocity=0 time=0.003474633333333333
EXTRACT: note_on channel=6 note=55 velocity=0 time=0.003474633333333333
EXTRACT: note_on channel=6 note=48 velocity=0 time=0
EXTRACT: note_on channel=9 note=28 velocity=0 time=0.008686583333333333
EXTRACT: note_on channel=9 note=42 velocity=0 time=0.008686583333333333
EXTRACT: note_on channel=5 note=48 velocity=0 time=0.006949266666666666
EXTRACT: note_on channel=7 note=52 velocity=0 time=0.01563585
EXTRACT: note_on channel=7 note=48 velocity=0 time=0.003474633333333333
EXTRACT: note_on channel=7 note=55 velocity=0 time=0
EXTRACT: note_on channel=8 note=48 velocity=0 time=0.008686583333333333
EXTRACT: note_on channel=3 note=55 velocity=0 time=0.03300901666666666
EXTRACT: note_on channel=3 note=57 velocity=64 time=0.14245996666666666
EXTRACT: note_on channel=5 note=48 velocity=94 time=0
EXTRACT: note_on channel=8 note=48 velocity=94 time=0.03648365
EXTRACT: note_on channel=3 note=57 velocity=0 time=0.09034046666666666
EXTRACT: note_on channel=5 note=55 velocity=0 time=0.07817924999999999
EXTRACT: note_on channel=5 note=64 velocity=0 time=0.02605975
EXTRACT: note_on channel=8 note=55 velocity=0 time=0.006949266666666666
EXTRACT: note_on channel=5 note=48 velocity=0 time=0.0017373166666666666
EXTRACT: note_on channel=5 note=60 velocity=0 time=0.02432243333333333
EXTRACT: note_on channel=5 note=60 velocity=84 time=0.008686583333333333
EXTRACT: note_on channel=8 note=64 velocity=0 time=0.003474633333333333
EXTRACT: note_on channel=8 note=48 velocity=0 time=0
EXTRACT: note_on channel=3 note=60 velocity=77 time=0.0017373166666666666
EXTRACT: note_on channel=5 note=65 velocity=84 time=0.0017373166666666666
EXTRACT: note_on channel=5 note=53 velocity=93 time=0.006949266666666666
EXTRACT: note_on channel=8 note=60 velocity=0 time=0.0017373166666666666
EXTRACT: note_on channel=8 note=53 velocity=93 time=0.017373166666666665
EXTRACT: note_on channel=8 note=60 velocity=84 time=0.013898533333333333
EXTRACT: note_on channel=8 note=65 velocity=84 time=0.0017373166666666666
EXTRACT: note_on channel=3 note=60 velocity=0 time=0.0521195
EXTRACT: note_on channel=5 note=53 velocity=0 time=0.02605975
EXTRACT: note_on channel=8 note=53 velocity=0 time=0.01911048333333333
EXTRACT: note_on channel=5 note=60 velocity=0 time=0.013898533333333333
EXTRACT: note_on channel=5 note=65 velocity=0 time=0.01911048333333333
EXTRACT: note_on channel=8 note=60 velocity=0 time=0.027797066666666665
EXTRACT: note_on channel=8 note=65 velocity=0 time=0.013898533333333333
EXTRACT: note_on channel=5 note=60 velocity=79 time=0.05559413333333333
EXTRACT: note_on channel=5 note=48 velocity=89 time=0.0017373166666666666
EXTRACT: note_on channel=3 note=60 velocity=89 time=0.00521195
EXTRACT: note_on channel=5 note=64 velocity=67 time=0
EXTRACT: note_on channel=9 note=36 velocity=119 time=0
EXTRACT: note_on channel=5 note=55 velocity=64 time=0.006949266666666666
EXTRACT: note_on channel=8 note=48 velocity=89 time=0.02432243333333333
EXTRACT: note_on channel=8 note=55 velocity=64 time=0.0017373166666666666
EXTRACT: note_on channel=8 note=64 velocity=67 time=0.008686583333333333
EXTRACT: note_on channel=8 note=60 velocity=79 time=0.0017373166666666666
EXTRACT: note_on channel=9 note=36 velocity=0 time=0.03474633333333333
EXTRACT: note_on channel=3 note=60 velocity=0 time=0.48644866666666664
EXTRACT: note_on channel=3 note=57 velocity=76 time=0.2692840833333333
EXTRACT: note_on channel=6 note=52 velocity=91 time=0
EXTRACT: note_on channel=6 note=55 velocity=79 time=0
EXTRACT: note_on channel=6 note=48 velocity=93 time=0
EXTRACT: note_on channel=9 note=42 velocity=122 time=0
EXTRACT: note_on channel=9 note=28 velocity=89 time=0
EXTRACT: note_on channel=6 note=48 velocity=0 time=0.0416956
EXTRACT: note_on channel=7 note=52 velocity=91 time=0.0017373166666666666
EXTRACT: note_on channel=7 note=55 velocity=79 time=0
EXTRACT: note_on channel=7 note=48 velocity=93 time=0
EXTRACT: note_on channel=9 note=28 velocity=0 time=0.0104239
EXTRACT: note_on channel=6 note=52 velocity=0 time=0
EXTRACT: note_on channel=6 note=55 velocity=0 time=0.008686583333333333
EXTRACT: note_on channel=9 note=42 velocity=0 time=0.00521195
EXTRACT: note_on channel=7 note=48 velocity=0 time=0.017373166666666665
EXTRACT: note_on channel=7 note=52 velocity=0 time=0.012161216666666665
EXTRACT: note_on channel=7 note=55 velocity=0 time=0.008686583333333333
EXTRACT: note_on channel=5 note=48 velocity=0 time=0.15635849999999998
EXTRACT: note_on channel=5 note=50 velocity=69 time=0.013898533333333333
EXTRACT: note_on channel=8 note=48 velocity=0 time=0.022585116666666665
EXTRACT: note_on channel=8 note=50 velocity=69 time=0.012161216666666665
EXTRACT: note_on channel=3 note=57 velocity=0 time=0.013898533333333333
EXTRACT: note_on channel=5 note=50 velocity=0 time=0.06775534999999999
EXTRACT: note_on channel=8 note=50 velocity=0 time=0.03474633333333333
EXTRACT: note_on channel=5 note=51 velocity=79 time=0.12334948333333333
EXTRACT: note_on channel=8 note=51 velocity=79 time=0.0416956
EXTRACT: note_on channel=5 note=51 velocity=0 time=0.07817924999999999
EXTRACT: note_on channel=5 note=55 velocity=0 time=0.03995828333333333
EXTRACT: note_on channel=8 note=51 velocity=0 time=0.0017373166666666666
EXTRACT: note_on channel=8 note=55 velocity=0 time=0.02432243333333333
EXTRACT: note_on channel=5 note=60 velocity=0 time=0.02953438333333333
EXTRACT: note_on channel=5 note=64 velocity=0 time=0.0104239
EXTRACT: note_on channel=8 note=60 velocity=0 time=0.03995828333333333
EXTRACT: note_on channel=8 note=64 velocity=0 time=0.0017373166666666666
EXTRACT: note_on channel=5 note=67 velocity=68 time=0.0104239
EXTRACT: note_on channel=15 note=60 velocity=0 time=0.00521195
EXTRACT: note_on channel=15 note=67 velocity=0 time=0
EXTRACT: note_on channel=15 note=64 velocity=0 time=0
EXTRACT: note_on channel=9 note=36 velocity=119 time=0
EXTRACT: note_on channel=15 note=55 velocity=1 time=0
EXTRACT: note_on channel=15 note=59 velocity=1 time=0
EXTRACT: note_on channel=15 note=52 velocity=1 time=0
EXTRACT: note_on channel=5 note=52 velocity=67 time=0.003474633333333333
EXTRACT: note_on channel=5 note=59 velocity=61 time=0.003474633333333333
EXTRACT: note_on channel=5 note=64 velocity=69 time=0
EXTRACT: note_on channel=8 note=67 velocity=68 time=0.027797066666666665
EXTRACT: note_on channel=8 note=52 velocity=67 time=0
EXTRACT: note_on channel=8 note=59 velocity=61 time=0.003474633333333333
EXTRACT: note_on channel=8 note=64 velocity=69 time=0
EXTRACT: note_on channel=9 note=36 velocity=0 time=0.03300901666666666
EXTRACT: note_on channel=3 note=55 velocity=114 time=0.48471135
EXTRACT: note_on channel=3 note=55 velocity=0 time=0.04690755
EXTRACT: note_on channel=3 note=55 velocity=77 time=0.23106311666666665
EXTRACT: note_on channel=6 note=52 velocity=105 time=0
EXTRACT: note_on channel=6 note=48 velocity=109 time=0
EXTRACT: note_on channel=6 note=55 velocity=94 time=0
EXTRACT: note_on channel=9 note=42 velocity=119 time=0
EXTRACT: note_on channel=9 note=28 velocity=89 time=0
EXTRACT: note_on channel=7 note=52 velocity=105 time=0.04343291666666666
EXTRACT: note_on channel=7 note=48 velocity=109 time=0
EXTRACT: note_on channel=7 note=55 velocity=94 time=0
EXTRACT: note_on channel=6 note=52 velocity=0 time=0.003474633333333333
EXTRACT: note_on channel=6 note=55 velocity=0 time=0.003474633333333333
EXTRACT: note_on channel=6 note=48 velocity=0 time=0
EXTRACT: note_on channel=9 note=28 velocity=0 time=0.008686583333333333
EXTRACT: note_on channel=9 note=42 velocity=0 time=0.008686583333333333
EXTRACT: note_on channel=7 note=52 velocity=0 time=0.022585116666666665
EXTRACT: note_on channel=7 note=55 velocity=0 time=0.003474633333333333
EXTRACT: note_on channel=7 note=48 velocity=0 time=0
EXTRACT: note_on channel=3 note=55 velocity=0 time=0.07817924999999999
EXTRACT: note_on channel=3 note=57 velocity=69 time=0.10597631666666667
EXTRACT: note_on channel=3 note=57 velocity=0 time=0.10076436666666666
EXTRACT: note_on channel=5 note=52 velocity=0 time=0.003474633333333333
EXTRACT: note_on channel=8 note=52 velocity=0 time=0.0312717
EXTRACT: note_on channel=3 note=60 velocity=76 time=0.14245996666666666
EXTRACT: note_on channel=5 note=47 velocity=75 time=0
EXTRACT: note_on channel=8 note=47 velocity=75 time=0.03648365
EXTRACT: note_on channel=5 note=67 velocity=0 time=0.00521195
EXTRACT: note_on channel=8 note=67 velocity=0 time=0.03995828333333333
EXTRACT: note_on channel=3 note=60 velocity=0 time=0.012161216666666665
EXTRACT: note_on channel=5 note=64 velocity=0 time=0.008686583333333333
EXTRACT: note_on channel=5 note=59 velocity=0 time=0
EXTRACT: note_on channel=5 note=47 velocity=0 time=0.01563585
EXTRACT: note_on channel=8 note=59 velocity=0 time=0.01563585
EXTRACT: note_on channel=8 note=64 velocity=0 time=0
EXTRACT: note_on channel=8 note=47 velocity=0 time=0.0208478
EXTRACT: note_on channel=5 note=64 velocity=50 time=0.11640021666666665
EXTRACT: note_on channel=5 note=67 velocity=61 time=0.0017373166666666666
EXTRACT: note_on channel=5 note=59 velocity=59 time=0.0017373166666666666
EXTRACT: note_on channel=3 note=62 velocity=84 time=0.003474633333333333
EXTRACT: note_on channel=5 note=52 velocity=75 time=0
EXTRACT: note_on channel=9 note=36 velocity=119 time=0
EXTRACT: note_on channel=8 note=52 velocity=75 time=0.02953438333333333
EXTRACT: note_on channel=8 note=67 velocity=61 time=0.00521195
EXTRACT: note_on channel=8 note=64 velocity=50 time=0.006949266666666666
EXTRACT: note_on channel=8 note=59 velocity=59 time=0
EXTRACT: note_on channel=9 note=36 velocity=0 time=0.03648365
EXTRACT: pitchwheel channel=3 pitch=-2243 time=0.24148701666666667
EXTRACT: pitchwheel channel=3 pitch=-4830 time=0.01563585
EXTRACT: pitchwheel channel=3 pitch=-7245 time=0.01563585
EXTRACT: pitchwheel channel=3 pitch=-8192 time=0.01563585
EXTRACT: pitchwheel channel=3 pitch=-5952 time=0.19284215
EXTRACT: pitchwheel channel=3 pitch=-1725 time=0.01563585
EXTRACT: pitchwheel channel=3 pitch=0 time=0.01563585
EXTRACT: note_on channel=6 note=52 velocity=91 time=0.24322433333333332
EXTRACT: note_on channel=6 note=55 velocity=79 time=0
EXTRACT: note_on channel=6 note=48 velocity=93 time=0
EXTRACT: note_on channel=9 note=42 velocity=122 time=0
EXTRACT: note_on channel=9 note=28 velocity=89 time=0
EXTRACT: note_on channel=6 note=48 velocity=0 time=0.0416956
EXTRACT: note_on channel=7 note=52 velocity=91 time=0.0017373166666666666
EXTRACT: note_on channel=7 note=55 velocity=79 time=0
EXTRACT: note_on channel=7 note=48 velocity=93 time=0
EXTRACT: note_on channel=9 note=28 velocity=0 time=0.0104239
EXTRACT: note_on channel=6 note=52 velocity=0 time=0
EXTRACT: note_on channel=6 note=55 velocity=0 time=0.008686583333333333
EXTRACT: note_on channel=9 note=42 velocity=0 time=0.00521195
EXTRACT: note_on channel=7 note=48 velocity=0 time=0.017373166666666665
EXTRACT: note_on channel=7 note=52 velocity=0 time=0.012161216666666665
EXTRACT: note_on channel=7 note=55 velocity=0 time=0.008686583333333333
EXTRACT: note_on channel=5 note=52 velocity=0 time=0.09902704999999999
EXTRACT: note_on channel=3 note=62 velocity=0 time=0.01563585
EXTRACT: note_on channel=8 note=52 velocity=0 time=0.013898533333333333
EXTRACT: note_on channel=3 note=64 velocity=94 time=0.04343291666666666
EXTRACT: note_on channel=5 note=48 velocity=105 time=0.003474633333333333
EXTRACT: note_on channel=8 note=48 velocity=105 time=0.02953438333333333
EXTRACT: note_on channel=5 note=59 velocity=0 time=0.03474633333333333
EXTRACT: note_on channel=8 note=59 velocity=0 time=0.04517023333333333
EXTRACT: note_on channel=5 note=48 velocity=0 time=0.008686583333333333
EXTRACT: note_on channel=8 note=48 velocity=0 time=0.02953438333333333
EXTRACT: note_on channel=5 note=64 velocity=0 time=0.03474633333333333
EXTRACT: note_on channel=8 note=64 velocity=0 time=0.04864486666666666
EXTRACT: note_on channel=3 note=64 velocity=0 time=0.00521195
EXTRACT: note_on channel=5 note=47 velocity=79 time=0.03474633333333333
EXTRACT: note_on channel=5 note=67 velocity=0 time=0.03300901666666666
EXTRACT: note_on channel=8 note=47 velocity=79 time=0.00521195
EXTRACT: note_on channel=8 note=67 velocity=0 time=0.03474633333333333
EXTRACT: note_on channel=5 note=47 velocity=0 time=0.03822096666666666
EXTRACT: note_on channel=8 note=47 velocity=0 time=0.03822096666666666
EXTRACT: note_on channel=5 note=64 velocity=68 time=0.13029875
EXTRACT: note_on channel=15 note=59 velocity=0 time=0.0017373166666666666
EXTRACT: note_on channel=15 note=55 velocity=0 time=0
EXTRACT: note_on channel=15 note=52 velocity=0 time=0
EXTRACT: note_on channel=9 note=36 velocity=119 time=0
EXTRACT: note_on channel=15 note=64 velocity=1 time=0
EXTRACT: note_on channel=15 note=57 velocity=1 time=0
EXTRACT: note_on channel=15 note=60 velocity=1 time=0
EXTRACT: note_on channel=5 note=60 velocity=82 time=0.00521195
EXTRACT: note_on channel=5 note=52 velocity=85 time=0
EXTRACT: note_on channel=5 note=57 velocity=52 time=0.0017373166666666666
EXTRACT: note_on channel=5 note=45 velocity=75 time=0
EXTRACT: note_on channel=8 note=60 velocity=82 time=0.022585116666666665
EXTRACT: note_on channel=8 note=64 velocity=68 time=0.003474633333333333
EXTRACT: note_on channel=8 note=57 velocity=52 time=0.003474633333333333
EXTRACT: note_on channel=8 note=52 velocity=85 time=0.0017373166666666666
EXTRACT: note_on channel=8 note=45 velocity=75 time=0
EXTRACT: note_on channel=9 note=36 velocity=0 time=0.03300901666666666
EXTRACT: note_on channel=3 note=64 velocity=48 time=0.48471135
EXTRACT: note_on channel=3 note=64 velocity=0 time=0.10597631666666667
EXTRACT: note_on channel=3 note=64 velocity=62 time=0.17199435
EXTRACT: note_on channel=6 note=52 velocity=105 time=0
EXTRACT: note_on channel=6 note=48 velocity=109 time=0
EXTRACT: note_on channel=6 note=55 velocity=94 time=0
EXTRACT: note_on channel=9 note=42 velocity=119 time=0
EXTRACT: note_on channel=9 note=28 velocity=89 time=0
EXTRACT: note_on channel=7 note=52 velocity=105 time=0.04343291666666666
EXTRACT: note_on channel=7 note=48 velocity=109 time=0
EXTRACT: note_on channel=7 note=55 velocity=94 time=0
EXTRACT: note_on channel=6 note=52 velocity=0 time=0.003474633333333333
EXTRACT: note_on channel=6 note=55 velocity=0 time=0.003474633333333333
EXTRACT: note_on channel=6 note=48 velocity=0 time=0
EXTRACT: note_on channel=9 note=28 velocity=0 time=0.008686583333333333
EXTRACT: note_on channel=9 note=42 velocity=0 time=0.008686583333333333
EXTRACT: note_on channel=7 note=52 velocity=0 time=0.022585116666666665
EXTRACT: note_on channel=7 note=48 velocity=0 time=0.003474633333333333
EXTRACT: note_on channel=7 note=55 velocity=0 time=0
EXTRACT: note_on channel=3 note=64 velocity=0 time=0.02953438333333333
EXTRACT: note_on channel=3 note=62 velocity=65 time=0.15462118333333333
EXTRACT: note_on channel=3 note=62 velocity=0 time=0.09728973333333332
EXTRACT: note_on channel=5 note=45 velocity=0 time=0.05038218333333333
EXTRACT: note_on channel=8 note=45 velocity=0 time=0.0312717
EXTRACT: note_on channel=5 note=52 velocity=0 time=0.006949266666666666
EXTRACT: note_on channel=8 note=52 velocity=0 time=0.03300901666666666
EXTRACT: note_on channel=5 note=64 velocity=0 time=0.05038218333333333
EXTRACT: note_on channel=3 note=62 velocity=70 time=0.008686583333333333
EXTRACT: note_on channel=5 note=52 velocity=81 time=0.00521195
EXTRACT: note_on channel=8 note=64 velocity=0 time=0.0208478
EXTRACT: note_on channel=5 note=60 velocity=0 time=0.003474633333333333
EXTRACT: note_on channel=5 note=57 velocity=0 time=0.006949266666666666
EXTRACT: note_on channel=8 note=52 velocity=81 time=0.0017373166666666666
EXTRACT: note_on channel=8 note=60 velocity=0 time=0.01563585
EXTRACT: note_on channel=8 note=57 velocity=0 time=0.012161216666666665
EXTRACT: note_on channel=3 note=62 velocity=0 time=0.0416956
EXTRACT: note_on channel=5 note=52 velocity=0 time=0.07991656666666666
EXTRACT: note_on channel=8 note=52 velocity=0 time=0.03300901666666666
EXTRACT: note_on channel=3 note=62 velocity=69 time=0.05733145
EXTRACT: note_on channel=9 note=36 velocity=119 time=0
EXTRACT: note_on channel=5 note=60 velocity=79 time=0.00521195
EXTRACT: note_on channel=5 note=57 velocity=55 time=0.003474633333333333
EXTRACT: note_on channel=5 note=64 velocity=76 time=0
EXTRACT: note_on channel=5 note=69 velocity=85 time=0
EXTRACT: note_on channel=8 note=64 velocity=76 time=0.01911048333333333
EXTRACT: note_on channel=8 note=60 velocity=79 time=0.0017373166666666666
EXTRACT: note_on channel=8 note=57 velocity=55 time=0.00521195
EXTRACT: note_on channel=8 note=69 velocity=85 time=0.0017373166666666666
EXTRACT: note_on channel=9 note=36 velocity=0 time=0.0416956
EXTRACT: note_on channel=3 note=62 velocity=0 time=0.0208478
EXTRACT: note_on channel=3 note=60 velocity=70 time=0.17894361666666667
EXTRACT: note_on channel=3 note=60 velocity=0 time=0.10597631666666667
EXTRACT: note_on channel=3 note=60 velocity=69 time=0.17199435
EXTRACT: note_on channel=3 note=60 velocity=0 time=0.07991656666666666
EXTRACT: note_on channel=5 note=60 velocity=0 time=0.11813753333333332
EXTRACT: note_on channel=8 note=60 velocity=0 time=0.02432243333333333
EXTRACT: note_on channel=5 note=69 velocity=0 time=0.00521195
EXTRACT: note_on channel=5 note=64 velocity=0 time=0
EXTRACT: note_on channel=5 note=57 velocity=0 time=0.008686583333333333
EXTRACT: note_on channel=8 note=64 velocity=0 time=0.0104239
EXTRACT: note_on channel=8 note=69 velocity=0 time=0.008686583333333333
EXTRACT: note_on channel=8 note=57 velocity=0 time=0.006949266666666666
EXTRACT: note_on channel=5 note=60 velocity=72 time=0.008686583333333333
EXTRACT: note_on channel=3 note=60 velocity=70 time=0.006949266666666666
EXTRACT: note_on channel=6 note=52 velocity=91 time=0
EXTRACT: note_on channel=6 note=55 velocity=79 time=0
EXTRACT: note_on channel=6 note=48 velocity=93 time=0
EXTRACT: note_on channel=9 note=42 velocity=122 time=0
EXTRACT: note_on channel=9 note=28 velocity=89 time=0
EXTRACT: note_on channel=5 note=69 velocity=73 time=0.006949266666666666
EXTRACT: note_on channel=5 note=55 velocity=75 time=0
EXTRACT: note_on channel=5 note=64 velocity=73 time=0.0017373166666666666
EXTRACT: note_on channel=8 note=69 velocity=73 time=0.01911048333333333
EXTRACT: note_on channel=8 note=64 velocity=73 time=0
EXTRACT: note_on channel=8 note=55 velocity=75 time=0.0017373166666666666
EXTRACT: note_on channel=6 note=48 velocity=0 time=0.012161216666666665
EXTRACT: note_on channel=7 note=52 velocity=91 time=0.0017373166666666666
EXTRACT: note_on channel=7 note=55 velocity=79 time=0
EXTRACT: note_on channel=7 note=48 velocity=93 time=0
EXTRACT: note_on channel=8 note=60 velocity=72 time=0
EXTRACT: note_on channel=9 note=28 velocity=0 time=0.0104239
EXTRACT: note_on channel=6 note=52 velocity=0 time=0
EXTRACT: note_on channel=6 note=55 velocity=0 time=0.008686583333333333
EXTRACT: note_on channel=9 note=42 velocity=0 time=0.00521195
EXTRACT: note_on channel=7 note=48 velocity=0 time=0.017373166666666665
EXTRACT: note_on channel=7 note=52 velocity=0 time=0.012161216666666665
EXTRACT: note_on channel=3 note=60 velocity=0 time=0.003474633333333333
EXTRACT: note_on channel=7 note=55 velocity=0 time=0.00521195
EXTRACT: note_on channel=3 note=62 velocity=70 time=0.17199435
EXTRACT: note_on channel=3 note=62 velocity=0 time=0.18415556666666666
EXTRACT: note_on channel=3 note=62 velocity=87 time=0.0938151
EXTRACT: note_on channel=3 note=62 velocity=0 time=0.17894361666666667
EXTRACT: note_on channel=5 note=55 velocity=0 time=0.0833912
EXTRACT: note_on channel=5 note=53 velocity=94 time=0.013898533333333333
EXTRACT: note_on channel=15 note=64 velocity=0 time=0.0017373166666666666
EXTRACT: note_on channel=5 note=60 velocity=0 time=0
EXTRACT: note_on channel=15 note=57 velocity=0 time=0
EXTRACT: note_on channel=15 note=60 velocity=0 time=0
EXTRACT: note_on channel=3 note=65 velocity=76 time=0
EXTRACT: note_on channel=4 note=69 velocity=69 time=0
EXTRACT: note_on channel=4 note=65 velocity=45 time=0
EXTRACT: note_on channel=9 note=36 velocity=119 time=0
EXTRACT: note_on channel=15 note=69 velocity=1 time=0
EXTRACT: note_on channel=15 note=65 velocity=1 time=0
EXTRACT: note_on channel=15 note=72 velocity=1 time=0
EXTRACT: note_on channel=8 note=55 velocity=0 time=0.006949266666666666
EXTRACT: note_on channel=8 note=53 velocity=94 time=0.0208478
EXTRACT: note_on channel=5 note=64 velocity=0 time=0.003474633333333333
EXTRACT: note_on channel=5 note=69 velocity=0 time=0.013898533333333333
EXTRACT: note_on channel=8 note=64 velocity=0 time=0.00521195
EXTRACT: note_on channel=8 note=60 velocity=0 time=0
EXTRACT: note_on channel=8 note=69 velocity=0 time=0.01563585
EXTRACT: note_on channel=9 note=36 velocity=0 time=0.00521195
EXTRACT: note_on channel=5 note=57 velocity=73 time=0.19979141666666667
EXTRACT: note_on channel=8 note=57 velocity=73 time=0.03822096666666666
EXTRACT: note_on channel=3 note=65 velocity=0 time=0.04690755
EXTRACT: note_on channel=4 note=65 velocity=0 time=0.0208478
EXTRACT: note_on channel=4 note=69 velocity=0 time=0.012161216666666665
EXTRACT: note_on channel=5 note=60 velocity=87 time=0.15983313333333332
EXTRACT: note_on channel=3 note=65 velocity=70 time=0.006949266666666666
EXTRACT: note_on channel=4 note=69 velocity=34 time=0
EXTRACT: note_on channel=4 note=65 velocity=28 time=0
EXTRACT: note_on channel=8 note=60 velocity=87 time=0.03995828333333333
EXTRACT: note_on channel=4 note=69 velocity=0 time=0.08686583333333332
EXTRACT: note_on channel=4 note=65 velocity=0 time=0.00521195
EXTRACT: note_on channel=3 note=65 velocity=0 time=0.008686583333333333
EXTRACT: note_on channel=15 note=72 velocity=0 time=0.13724801666666667
EXTRACT: note_on channel=15 note=65 velocity=0 time=0
EXTRACT: note_on channel=15 note=69 velocity=0 time=0
EXTRACT: note_on channel=3 note=64 velocity=61 time=0
EXTRACT: note_on channel=4 note=67 velocity=55 time=0
EXTRACT: note_on channel=4 note=64 velocity=42 time=0
EXTRACT: note_on channel=5 note=52 velocity=93 time=0
EXTRACT: note_on channel=6 note=52 velocity=105 time=0
EXTRACT: note_on channel=6 note=48 velocity=109 time=0
EXTRACT: note_on channel=6 note=55 velocity=94 time=0
EXTRACT: note_on channel=9 note=42 velocity=119 time=0
EXTRACT: note_on channel=9 note=28 velocity=89 time=0
EXTRACT: note_on channel=15 note=67 velocity=1 time=0
EXTRACT: note_on channel=15 note=71 velocity=1 time=0
EXTRACT: note_on channel=15 note=64 velocity=1 time=0
EXTRACT: note_on channel=5 note=53 velocity=0 time=0.03822096666666666
EXTRACT: note_on channel=8 note=52 velocity=93 time=0.0017373166666666666
EXTRACT: note_on channel=7 note=52 velocity=105 time=0.003474633333333333
EXTRACT: note_on channel=7 note=48 velocity=109 time=0
EXTRACT: note_on channel=7 note=55 velocity=94 time=0
EXTRACT: note_on channel=6 note=52 velocity=0 time=0.003474633333333333
EXTRACT: note_on channel=6 note=55 velocity=0 time=0.003474633333333333
EXTRACT: note_on channel=6 note=48 velocity=0 time=0
EXTRACT: note_on channel=9 note=28 velocity=0 time=0.008686583333333333
EXTRACT: note_on channel=8 note=53 velocity=0 time=0.008686583333333333
EXTRACT: note_on channel=9 note=42 velocity=0 time=0
EXTRACT: note_on channel=7 note=52 velocity=0 time=0.022585116666666665
EXTRACT: note_on channel=7 note=55 velocity=0 time=0.003474633333333333
EXTRACT: note_on channel=7 note=48 velocity=0 time=0
EXTRACT: note_on channel=5 note=57 velocity=0 time=0.15114655
EXTRACT: note_on channel=5 note=55 velocity=84 time=0.02605975
EXTRACT: note_on channel=3 note=64 velocity=0 time=0.008686583333333333
EXTRACT: note_on channel=8 note=57 velocity=0 time=0.003474633333333333
EXTRACT: note_on channel=4 note=64 velocity=0 time=0.01911048333333333
EXTRACT: note_on channel=4 note=67 velocity=0 time=0.003474633333333333
EXTRACT: note_on channel=8 note=55 velocity=84 time=0.013898533333333333
EXTRACT: note_on channel=5 note=60 velocity=0 time=0.13203606666666665
EXTRACT: note_on channel=8 note=60 velocity=0 time=0.04690755
EXTRACT: note_on channel=3 note=62 velocity=91 time=0.05733145
EXTRACT: note_on channel=4 note=64 velocity=45 time=0
EXTRACT: note_on channel=4 note=67 velocity=68 time=0
EXTRACT: note_on channel=5 note=60 velocity=79 time=0.008686583333333333
EXTRACT: note_on channel=8 note=60 velocity=79 time=0.03300901666666666
EXTRACT: note_on channel=3 note=62 velocity=0 time=0.006949266666666666
EXTRACT: note_on channel=4 note=67 velocity=0 time=0.05038218333333333
EXTRACT: note_on channel=4 note=64 velocity=0 time=0.013898533333333333
EXTRACT: note_on channel=15 note=64 velocity=0 time=0.16504508333333331
EXTRACT: note_on channel=15 note=67 velocity=0 time=0
EXTRACT: note_on channel=15 note=71 velocity=0 time=0
EXTRACT: note_on channel=3 note=62 velocity=65 time=0
EXTRACT: note_on channel=4 note=65 velocity=56 time=0
EXTRACT: note_on channel=4 note=62 velocity=53 time=0
EXTRACT: note_on channel=9 note=36 velocity=119 time=0
EXTRACT: note_on channel=15 note=65 velocity=1 time=0
EXTRACT: note_on channel=15 note=62 velocity=1 time=0
EXTRACT: note_on channel=15 note=69 velocity=1 time=0
EXTRACT: note_on channel=5 note=50 velocity=96 time=0.008686583333333333
EXTRACT: note_on channel=8 note=50 velocity=96 time=0.01911048333333333
EXTRACT: note_on channel=5 note=52 velocity=0 time=0.027797066666666665
EXTRACT: note_on channel=9 note=36 velocity=0 time=0.022585116666666665
EXTRACT: note_on channel=8 note=52 velocity=0 time=0.017373166666666665
EXTRACT: note_on channel=5 note=55 velocity=0 time=0.02953438333333333
EXTRACT: note_on channel=8 note=55 velocity=0 time=0.04864486666666666
EXTRACT: note_on channel=5 note=57 velocity=73 time=0.11292558333333333
EXTRACT: note_on channel=8 note=57 velocity=73 time=0.0312717
EXTRACT: note_on channel=5 note=60 velocity=0 time=0.08860314999999999
EXTRACT: note_on channel=8 note=60 velocity=0 time=0.03300901666666666
EXTRACT: note_on channel=4 note=62 velocity=0 time=0.11292558333333333
EXTRACT: note_on channel=5 note=60 velocity=79 time=0.0017373166666666666
EXTRACT: note_on channel=3 note=62 velocity=0 time=0.006949266666666666
EXTRACT: note_on channel=4 note=65 velocity=0 time=0.022585116666666665
EXTRACT: note_on channel=8 note=60 velocity=79 time=0.006949266666666666
EXTRACT: note_on channel=5 note=50 velocity=0 time=0.17894361666666667
EXTRACT: note_on channel=8 note=50 velocity=0 time=0.01911048333333333
EXTRACT: note_on channel=15 note=62 velocity=0 time=0.04517023333333333
EXTRACT: note_on channel=15 note=65 velocity=0 time=0
EXTRACT: note_on channel=15 note=69 velocity=0 time=0
EXTRACT: note_on channel=3 note=60 velocity=87 time=0
EXTRACT: note_on channel=4 note=65 velocity=38 time=0
EXTRACT: note_on channel=4 note=60 velocity=76 time=0
EXTRACT: note_on channel=6 note=52 velocity=91 time=0
EXTRACT: note_on channel=6 note=55 velocity=79 time=0
EXTRACT: note_on channel=6 note=48 velocity=93 time=0
EXTRACT: note_on channel=9 note=42 velocity=122 time=0
EXTRACT: note_on channel=9 note=28 velocity=89 time=0
EXTRACT: note_on channel=15 note=67 velocity=1 time=0
EXTRACT: note_on channel=15 note=71 velocity=1 time=0
EXTRACT: note_on channel=15 note=74 velocity=1 time=0
EXTRACT: note_on channel=5 note=65 velocity=84 time=0.0017373166666666666
EXTRACT: note_on channel=5 note=50 velocity=67 time=0.006949266666666666
EXTRACT: note_on channel=5 note=55 velocity=82 time=0
EXTRACT: note_on channel=6 note=48 velocity=0 time=0.03300901666666666
EXTRACT: note_on channel=8 note=65 velocity=84 time=0
EXTRACT: note_on channel=7 note=52 velocity=91 time=0.0017373166666666666
EXTRACT: note_on channel=7 note=55 velocity=79 time=0
EXTRACT: note_on channel=7 note=48 velocity=93 time=0
EXTRACT: note_on channel=8 note=50 velocity=67 time=0
EXTRACT: note_on channel=8 note=55 velocity=82 time=0
EXTRACT: note_on channel=6 note=52 velocity=0 time=0.0104239
EXTRACT: note_on channel=9 note=28 velocity=0 time=0
EXTRACT: note_on channel=6 note=55 velocity=0 time=0.008686583333333333
EXTRACT: note_on channel=9 note=42 velocity=0 time=0.00521195
EXTRACT: note_on channel=7 note=48 velocity=0 time=0.017373166666666665
EXTRACT: note_on channel=7 note=52 velocity=0 time=0.012161216666666665
EXTRACT: note_on channel=5 note=57 velocity=0 time=0.006949266666666666
EXTRACT: note_on channel=7 note=55 velocity=0 time=0.0017373166666666666
EXTRACT: note_on channel=8 note=57 velocity=0 time=0.02953438333333333
EXTRACT: note_on channel=5 note=62 velocity=77 time=0.14767191666666665
EXTRACT: note_on channel=8 note=62 velocity=77 time=0.027797066666666665
EXTRACT: note_on channel=5 note=65 velocity=0 time=0.02605975
EXTRACT: note_on channel=5 note=60 velocity=0 time=0.022585116666666665
EXTRACT: note_on channel=8 note=65 velocity=0 time=0.017373166666666665
EXTRACT: note_on channel=8 note=60 velocity=0 time=0.01911048333333333
EXTRACT: note_on channel=3 note=60 velocity=0 time=0.00521195
EXTRACT: note_on channel=4 note=60 velocity=0 time=0.10771363333333332
EXTRACT: note_on channel=4 note=65 velocity=0 time=0.0017373166666666666
EXTRACT: note_on channel=5 note=65 velocity=63 time=0.03822096666666666
EXTRACT: note_on channel=3 note=57 velocity=91 time=0.006949266666666666
EXTRACT: note_on channel=8 note=65 velocity=63 time=0.03822096666666666
EXTRACT: note_on channel=3 note=57 velocity=0 time=0.006949266666666666
EXTRACT: note_on channel=5 note=50 velocity=0 time=0.19110483333333333
EXTRACT: note_on channel=8 note=50 velocity=0 time=0.03474633333333333
EXTRACT: note_on channel=5 note=55 velocity=0 time=0.0017373166666666666
EXTRACT: note_on channel=5 note=48 velocity=84 time=0.0017373166666666666
EXTRACT: note_on channel=15 note=67 velocity=0 time=0.003474633333333333
EXTRACT: note_on channel=15 note=74 velocity=0 time=0
EXTRACT: note_on channel=5 note=62 velocity=0 time=0
EXTRACT: note_on channel=15 note=71 velocity=0 time=0
EXTRACT: note_on channel=3 note=62 velocity=93 time=0
EXTRACT: note_on channel=9 note=36 velocity=119 time=0
EXTRACT: note_on channel=15 note=64 velocity=1 time=0
EXTRACT: note_on channel=15 note=60 velocity=1 time=0
EXTRACT: note_on channel=15 note=67 velocity=1 time=0
EXTRACT: note_on channel=5 note=64 velocity=62 time=0.003474633333333333
EXTRACT: note_on channel=5 note=52 velocity=79 time=0
EXTRACT: note_on channel=5 note=55 velocity=68 time=0.0017373166666666666
EXTRACT: note_on channel=5 note=60 velocity=77 time=0.003474633333333333
EXTRACT: note_on channel=8 note=62 velocity=0 time=0.01911048333333333
EXTRACT: note_on channel=5 note=65 velocity=0 time=0
EXTRACT: note_on channel=8 note=64 velocity=62 time=0
EXTRACT: note_on channel=8 note=52 velocity=79 time=0
EXTRACT: note_on channel=8 note=55 velocity=0 time=0.0017373166666666666
EXTRACT: note_on channel=8 note=55 velocity=68 time=0.0017373166666666666
EXTRACT: note_on channel=8 note=48 velocity=84 time=0.008686583333333333
EXTRACT: note_on channel=8 note=60 velocity=77 time=0.0017373166666666666
EXTRACT: note_on channel=9 note=36 velocity=0 time=0.02953438333333333
EXTRACT: note_on channel=8 note=65 velocity=0 time=0.0017373166666666666
EXTRACT: note_on channel=3 note=62 velocity=0 time=0.04690755
EXTRACT: note_on channel=3 note=64 velocity=85 time=0.15809581666666667
EXTRACT: note_on channel=3 note=64 velocity=0 time=0.07991656666666666
EXTRACT: note_on channel=3 note=62 velocity=94 time=0.19805409999999998
EXTRACT: note_on channel=3 note=62 velocity=0 time=0.07470461666666667
EXTRACT: note_on channel=5 note=52 velocity=0 time=0.11118826666666666
EXTRACT: note_on channel=8 note=52 velocity=0 time=0.02432243333333333
EXTRACT: note_on channel=5 note=48 velocity=0 time=0.01911048333333333
EXTRACT: note_on channel=8 note=48 velocity=0 time=0.04343291666666666
EXTRACT: note_on channel=5 note=48 velocity=79 time=0.003474633333333333
EXTRACT: note_on channel=3 note=64 velocity=93 time=0.0017373166666666666
EXTRACT: note_on channel=6 note=52 velocity=105 time=0
EXTRACT: note_on channel=6 note=48 velocity=109 time=0
EXTRACT: note_on channel=6 note=55 velocity=94 time=0
EXTRACT: note_on channel=9 note=42 velocity=119 time=0
EXTRACT: note_on channel=9 note=28 velocity=89 time=0
EXTRACT: note_on channel=8 note=48 velocity=79 time=0.0416956
EXTRACT: note_on channel=7 note=52 velocity=105 time=0.0017373166666666666
EXTRACT: note_on channel=7 note=48 velocity=109 time=0
EXTRACT: note_on channel=7 note=55 velocity=94 time=0
EXTRACT: note_on channel=6 note=52 velocity=0 time=0.003474633333333333
EXTRACT: note_on channel=6 note=55 velocity=0 time=0.003474633333333333
EXTRACT: note_on channel=6 note=48 velocity=0 time=0
EXTRACT: note_on channel=9 note=28 velocity=0 time=0.008686583333333333
EXTRACT: note_on channel=5 note=48 velocity=0 time=0.006949266666666666
EXTRACT: note_on channel=9 note=42 velocity=0 time=0.0017373166666666666
EXTRACT: note_on channel=7 note=52 velocity=0 time=0.022585116666666665
EXTRACT: note_on channel=7 note=48 velocity=0 time=0.003474633333333333
EXTRACT: note_on channel=7 note=55 velocity=0 time=0
EXTRACT: note_on channel=8 note=48 velocity=0 time=0.01563585
EXTRACT: note_on channel=5 note=48 velocity=94 time=0.17025703333333334
EXTRACT: note_on channel=8 note=48 velocity=94 time=0.02605975
EXTRACT: note_on channel=3 note=64 velocity=0 time=0.0833912
EXTRACT: note_on channel=5 note=55 velocity=0 time=0.09034046666666666
EXTRACT: note_on channel=8 note=55 velocity=0 time=0.02605975
EXTRACT: note_on channel=5 note=64 velocity=0 time=0.008686583333333333
EXTRACT: note_on channel=5 note=48 velocity=0 time=0.00521195
EXTRACT: note_on channel=8 note=64 velocity=0 time=0.01911048333333333
EXTRACT: note_on channel=5 note=60 velocity=0 time=0.00521195
EXTRACT: note_on channel=8 note=48 velocity=0 time=0.0017373166666666666
EXTRACT: note_on channel=5 note=60 velocity=84 time=0.008686583333333333
EXTRACT: note_on channel=5 note=53 velocity=93 time=0.008686583333333333
EXTRACT: note_on channel=5 note=65 velocity=84 time=0.0017373166666666666
EXTRACT: note_on channel=8 note=60 velocity=0 time=0.012161216666666665
EXTRACT: note_on channel=8 note=60 velocity=84 time=0.006949266666666666
EXTRACT: note_on channel=8 note=53 velocity=93 time=0.0017373166666666666
EXTRACT: note_on channel=8 note=65 velocity=84 time=0.013898533333333333
EXTRACT: note_on channel=5 note=53 velocity=0 time=0.07644193333333332
EXTRACT: note_on channel=3 note=62 velocity=107 time=0.01911048333333333
EXTRACT: note_on channel=8 note=53 velocity=0 time=0.003474633333333333
EXTRACT: note_on channel=5 note=60 velocity=0 time=0.01563585
EXTRACT: note_on channel=3 note=62 velocity=0 time=0.01911048333333333
EXTRACT: note_on channel=5 note=65 velocity=0 time=0.003474633333333333
EXTRACT: note_on channel=8 note=60 velocity=0 time=0.006949266666666666
EXTRACT: note_on channel=8 note=65 velocity=0 time=0.027797066666666665
EXTRACT: note_on channel=5 note=55 velocity=64 time=0.05906876666666666
EXTRACT: note_on channel=3 note=62 velocity=62 time=0.003474633333333333
EXTRACT: note_on channel=5 note=64 velocity=67 time=0
EXTRACT: note_on channel=9 note=36 velocity=119 time=0
EXTRACT: note_on channel=5 note=60 velocity=79 time=0.00521195
EXTRACT: note_on channel=5 note=48 velocity=89 time=0.003474633333333333
EXTRACT: note_on channel=8 note=64 velocity=67 time=0.01911048333333333
EXTRACT: note_on channel=8 note=60 velocity=79 time=0.0017373166666666666
EXTRACT: note_on channel=8 note=55 velocity=64 time=0.008686583333333333
EXTRACT: note_on channel=8 note=48 velocity=89 time=0.003474633333333333
EXTRACT: note_on channel=9 note=36 velocity=0 time=0.03648365
EXTRACT: note_on channel=3 note=62 velocity=0 time=0.10076436666666666
EXTRACT: note_on channel=3 note=64 velocity=69 time=0.09902704999999999
EXTRACT: note_on channel=3 note=64 velocity=0 time=0.10076436666666666
EXTRACT: note_on channel=3 note=62 velocity=63 time=0.17720629999999998
EXTRACT: note_on channel=3 note=62 velocity=0 time=0.11292558333333333
EXTRACT: note_on channel=3 note=67 velocity=85 time=0.16504508333333331
EXTRACT: note_on channel=6 note=52 velocity=91 time=0
EXTRACT: note_on channel=6 note=55 velocity=79 time=0
EXTRACT: note_on channel=6 note=48 velocity=93 time=0
EXTRACT: note_on channel=9 note=42 velocity=122 time=0
EXTRACT: note_on channel=9 note=28 velocity=89 time=0
EXTRACT: note_on channel=6 note=48 velocity=0 time=0.0416956
EXTRACT: note_on channel=7 note=52 velocity=91 time=0.0017373166666666666
EXTRACT: note_on channel=7 note=55 velocity=79 time=0
EXTRACT: note_on channel=7 note=48 velocity=93 time=0
EXTRACT: note_on channel=9 note=28 velocity=0 time=0.0104239
EXTRACT: note_on channel=6 note=52 velocity=0 time=0
EXTRACT: note_on channel=6 note=55 velocity=0 time=0.008686583333333333
EXTRACT: note_on channel=9 note=42 velocity=0 time=0.00521195
EXTRACT: note_on channel=7 note=48 velocity=0 time=0.017373166666666665
EXTRACT: note_on channel=7 note=52 velocity=0 time=0.012161216666666665
EXTRACT: note_on channel=7 note=55 velocity=0 time=0.008686583333333333
EXTRACT: note_on channel=5 note=50 velocity=69 time=0.1667824
EXTRACT: note_on channel=5 note=48 velocity=0 time=0.003474633333333333
EXTRACT: note_on channel=8 note=48 velocity=0 time=0.03300901666666666
EXTRACT: note_on channel=8 note=50 velocity=69 time=0.008686583333333333
EXTRACT: note_on channel=5 note=50 velocity=0 time=0.07122998333333333
EXTRACT: note_on channel=8 note=50 velocity=0 time=0.04517023333333333
EXTRACT: note_on channel=3 note=67 velocity=0 time=0.0104239
EXTRACT: note_on channel=5 note=51 velocity=79 time=0.1146629
EXTRACT: note_on channel=8 note=51 velocity=79 time=0.02432243333333333
EXTRACT: note_on channel=5 note=51 velocity=0 time=0.09555241666666667
EXTRACT: note_on channel=3 note=62 velocity=82 time=0.01563585
EXTRACT: note_on channel=5 note=55 velocity=0 time=0.00521195
EXTRACT: note_on channel=8 note=51 velocity=0 time=0.003474633333333333
EXTRACT: note_on channel=3 note=62 velocity=0 time=0.02432243333333333
EXTRACT: note_on channel=8 note=55 velocity=0 time=0.013898533333333333
EXTRACT: note_on channel=5 note=64 velocity=0 time=0.03474633333333333
EXTRACT: note_on channel=5 note=60 velocity=0 time=0.0017373166666666666
EXTRACT: note_on channel=8 note=60 velocity=0 time=0.02432243333333333
EXTRACT: note_on channel=8 note=64 velocity=0 time=0.0017373166666666666
EXTRACT: note_on channel=5 note=52 velocity=67 time=0.02432243333333333
EXTRACT: note_on channel=5 note=59 velocity=61 time=0.003474633333333333
EXTRACT: note_on channel=15 note=64 velocity=0 time=0.0017373166666666666
EXTRACT: note_on channel=15 note=67 velocity=0 time=0
EXTRACT: note_on channel=15 note=60 velocity=0 time=0
EXTRACT: note_on channel=3 note=62 velocity=89 time=0
EXTRACT: note_on channel=9 note=36 velocity=119 time=0
EXTRACT: note_on channel=15 note=55 velocity=1 time=0
EXTRACT: note_on channel=15 note=59 velocity=1 time=0
EXTRACT: note_on channel=15 note=52 velocity=1 time=0
EXTRACT: note_on channel=5 note=67 velocity=68 time=0.0017373166666666666
EXTRACT: note_on channel=5 note=64 velocity=69 time=0.00521195
EXTRACT: note_on channel=8 note=52 velocity=67 time=0.02605975
EXTRACT: note_on channel=8 note=64 velocity=69 time=0.006949266666666666
EXTRACT: note_on channel=8 note=59 velocity=61 time=0
EXTRACT: note_on channel=8 note=67 velocity=68 time=0.003474633333333333
EXTRACT: note_on channel=9 note=36 velocity=0 time=0.027797066666666665
EXTRACT: note_on channel=3 note=62 velocity=0 time=0.05385681666666666
EXTRACT: note_on channel=3 note=64 velocity=79 time=0.15288386666666665
EXTRACT: note_on channel=3 note=64 velocity=0 time=0.09555241666666667
EXTRACT: note_on channel=3 note=62 velocity=82 time=0.18241824999999998
EXTRACT: note_on channel=3 note=62 velocity=0 time=0.09207778333333333
EXTRACT: note_on channel=3 note=64 velocity=81 time=0.18589288333333331
EXTRACT: note_on channel=6 note=52 velocity=105 time=0
EXTRACT: note_on channel=6 note=48 velocity=109 time=0
EXTRACT: note_on channel=6 note=55 velocity=94 time=0
EXTRACT: note_on channel=9 note=42 velocity=119 time=0
EXTRACT: note_on channel=9 note=28 velocity=89 time=0
EXTRACT: note_on channel=7 note=52 velocity=105 time=0.04343291666666666
EXTRACT: note_on channel=7 note=48 velocity=109 time=0
EXTRACT: note_on channel=7 note=55 velocity=94 time=0
EXTRACT: note_on channel=6 note=52 velocity=0 time=0.003474633333333333
EXTRACT: note_on channel=6 note=55 velocity=0 time=0.003474633333333333
EXTRACT: note_on channel=6 note=48 velocity=0 time=0
EXTRACT: note_on channel=9 note=28 velocity=0 time=0.008686583333333333
EXTRACT: note_on channel=9 note=42 velocity=0 time=0.008686583333333333
EXTRACT: note_on channel=7 note=52 velocity=0 time=0.022585116666666665
EXTRACT: note_on channel=7 note=55 velocity=0 time=0.003474633333333333
EXTRACT: note_on channel=7 note=48 velocity=0 time=0
EXTRACT: note_on channel=5 note=52 velocity=0 time=0.2797079833333333
EXTRACT: note_on channel=8 note=52 velocity=0 time=0.03822096666666666
EXTRACT: note_on channel=3 note=64 velocity=0 time=0.05038218333333333
EXTRACT: note_on channel=5 note=47 velocity=75 time=0.09207778333333333
EXTRACT: note_on channel=8 note=47 velocity=75 time=0.02953438333333333
EXTRACT: note_on channel=5 note=67 velocity=0 time=0.0208478
EXTRACT: note_on channel=8 note=67 velocity=0 time=0.0416956
EXTRACT: note_on channel=5 note=59 velocity=0 time=0.003474633333333333
EXTRACT: note_on channel=5 note=64 velocity=0 time=0.008686583333333333
EXTRACT: note_on channel=5 note=47 velocity=0 time=0.013898533333333333
EXTRACT: note_on channel=8 note=59 velocity=0 time=0.01911048333333333
EXTRACT: note_on channel=8 note=64 velocity=0 time=0
EXTRACT: note_on channel=3 note=62 velocity=84 time=0.00521195
EXTRACT: note_on channel=8 note=47 velocity=0 time=0.00521195
EXTRACT: note_on channel=3 note=62 velocity=0 time=0.03995828333333333
EXTRACT: note_on channel=5 note=67 velocity=61 time=0.09034046666666666
EXTRACT: note_on channel=3 note=62 velocity=105 time=0.0017373166666666666
EXTRACT: note_on channel=9 note=36 velocity=119 time=0
EXTRACT: note_on channel=5 note=59 velocity=59 time=0.0017373166666666666
EXTRACT: note_on channel=5 note=64 velocity=50 time=0.003474633333333333
EXTRACT: note_on channel=5 note=52 velocity=75 time=0.003474633333333333
EXTRACT: note_on channel=8 note=67 velocity=61 time=0.0208478
EXTRACT: note_on channel=8 note=64 velocity=50 time=0.008686583333333333
EXTRACT: note_on channel=8 note=52 velocity=75 time=0.0017373166666666666
EXTRACT: note_on channel=8 note=59 velocity=59 time=0
EXTRACT: note_on channel=9 note=36 velocity=0 time=0.03822096666666666
EXTRACT: note_on channel=3 note=62 velocity=0 time=0.10597631666666667
EXTRACT: note_on channel=3 note=64 velocity=84 time=0.0938151
EXTRACT: note_on channel=3 note=64 velocity=0 time=0.14419728333333331
EXTRACT: note_on channel=3 note=62 velocity=101 time=0.13377338333333333
EXTRACT: note_on channel=3 note=62 velocity=0 time=0.08165388333333333
EXTRACT: note_on channel=3 note=67 velocity=84 time=0.19631678333333333
EXTRACT: note_on channel=6 note=52 velocity=91 time=0
EXTRACT: note_on channel=6 note=55 velocity=79 time=0
EXTRACT: note_on channel=6 note=48 velocity=93 time=0
EXTRACT: note_on channel=9 note=42 velocity=122 time=0
EXTRACT: note_on channel=9 note=28 velocity=89 time=0
EXTRACT: note_on channel=6 note=48 velocity=0 time=0.0416956
EXTRACT: note_on channel=7 note=52 velocity=91 time=0.0017373166666666666
EXTRACT: note_on channel=7 note=55 velocity=79 time=0
EXTRACT: note_on channel=7 note=48 velocity=93 time=0
EXTRACT: note_on channel=9 note=28 velocity=0 time=0.0104239
EXTRACT: note_on channel=6 note=52 velocity=0 time=0
EXTRACT: note_on channel=6 note=55 velocity=0 time=0.008686583333333333
EXTRACT: note_on channel=9 note=42 velocity=0 time=0.00521195
EXTRACT: note_on channel=7 note=48 velocity=0 time=0.017373166666666665
EXTRACT: note_on channel=7 note=52 velocity=0 time=0.012161216666666665
EXTRACT: note_on channel=7 note=55 velocity=0 time=0.008686583333333333
EXTRACT: note_on channel=5 note=52 velocity=0 time=0.10771363333333332
EXTRACT: note_on channel=8 note=52 velocity=0 time=0.0312717
EXTRACT: pitchwheel channel=3 pitch=1207 time=0.01911048333333333
EXTRACT: pitchwheel channel=3 pitch=4485 time=0.017373166666666665
EXTRACT: note_on channel=5 note=48 velocity=105 time=0.0017373166666666666
EXTRACT: pitchwheel channel=3 pitch=7245 time=0.013898533333333333
EXTRACT: pitchwheel channel=3 pitch=8191 time=0.01563585
EXTRACT: note_on channel=8 note=48 velocity=105 time=0.008686583333333333
EXTRACT: note_on channel=5 note=59 velocity=0 time=0.02953438333333333
EXTRACT: note_on channel=8 note=59 velocity=0 time=0.03822096666666666
EXTRACT: note_on channel=5 note=48 velocity=0 time=0.012161216666666665
EXTRACT: note_on channel=8 note=48 velocity=0 time=0.03822096666666666
EXTRACT: note_on channel=5 note=64 velocity=0 time=0.03648365
EXTRACT: note_on channel=8 note=64 velocity=0 time=0.03300901666666666
EXTRACT: note_on channel=5 note=47 velocity=79 time=0.03995828333333333
EXTRACT: pitchwheel channel=3 pitch=5606 time=0.00521195
EXTRACT: pitchwheel channel=3 pitch=2673 time=0.01563585
EXTRACT: pitchwheel channel=3 pitch=0 time=0.01563585
EXTRACT: note_on channel=5 note=67 velocity=0 time=0.003474633333333333
EXTRACT: note_on channel=8 note=47 velocity=79 time=0.006949266666666666
EXTRACT: note_on channel=8 note=67 velocity=0 time=0.02432243333333333
EXTRACT: note_on channel=5 note=47 velocity=0 time=0.03995828333333333
EXTRACT: note_on channel=8 note=47 velocity=0 time=0.04690755
EXTRACT: note_on channel=5 note=45 velocity=91 time=0.11987484999999999
EXTRACT: note_on channel=15 note=59 velocity=0 time=0.006949266666666666
EXTRACT: note_on channel=15 note=52 velocity=0 time=0
EXTRACT: note_on channel=15 note=55 velocity=0 time=0
EXTRACT: note_on channel=9 note=36 velocity=119 time=0
EXTRACT: note_on channel=15 note=64 velocity=1 time=0
EXTRACT: note_on channel=15 note=57 velocity=1 time=0
EXTRACT: note_on channel=15 note=60 velocity=1 time=0
EXTRACT: note_on channel=5 note=52 velocity=98 time=0.006949266666666666
EXTRACT: note_on channel=8 note=45 velocity=91 time=0.0208478
EXTRACT: note_on channel=8 note=52 velocity=98 time=0.003474633333333333
EXTRACT: note_on channel=9 note=36 velocity=0 time=0.03995828333333333
EXTRACT: note_on channel=5 note=60 velocity=89 time=0.20500336666666666
EXTRACT: note_on channel=8 note=60 velocity=89 time=0.03474633333333333
EXTRACT: pitchwheel channel=3 pitch=776 time=0.03300901666666666
EXTRACT: pitchwheel channel=3 pitch=3795 time=0.01563585
EXTRACT: pitchwheel channel=3 pitch=7417 time=0.017373166666666665
EXTRACT: pitchwheel channel=3 pitch=8191 time=0.013898533333333333
EXTRACT: note_on channel=5 note=64 velocity=72 time=0.16157045
EXTRACT: note_on channel=8 note=64 velocity=72 time=0.04690755
EXTRACT: pitchwheel channel=3 pitch=948 time=0.14419728333333331
EXTRACT: pitchwheel channel=3 pitch=-2847 time=0.017373166666666665
EXTRACT: pitchwheel channel=3 pitch=1121 time=0.01563585
EXTRACT: pitchwheel channel=3 pitch=0 time=0.01563585
EXTRACT: note_on channel=3 note=67 velocity=0 time=0.0104239
EXTRACT: note_on channel=5 note=69 velocity=84 time=0.02953438333333333
EXTRACT: note_on channel=6 note=52 velocity=105 time=0.0017373166666666666
EXTRACT: note_on channel=6 note=48 velocity=109 time=0
EXTRACT: note_on channel=6 note=55 velocity=94 time=0
EXTRACT: note_on channel=9 note=42 velocity=119 time=0
EXTRACT: note_on channel=9 note=28 velocity=89 time=0
EXTRACT: note_on channel=8 note=69 velocity=84 time=0.03995828333333333
EXTRACT: note_on channel=7 note=52 velocity=105 time=0.003474633333333333
EXTRACT: note_on channel=7 note=48 velocity=109 time=0
EXTRACT: note_on channel=7 note=55 velocity=94 time=0
EXTRACT: note_on channel=6 note=52 velocity=0 time=0.003474633333333333
EXTRACT: note_on channel=6 note=55 velocity=0 time=0.003474633333333333
EXTRACT: note_on channel=6 note=48 velocity=0 time=0
EXTRACT: note_on channel=9 note=28 velocity=0 time=0.008686583333333333
EXTRACT: note_on channel=9 note=42 velocity=0 time=0.008686583333333333
EXTRACT: note_on channel=7 note=52 velocity=0 time=0.022585116666666665
EXTRACT: note_on channel=7 note=55 velocity=0 time=0.003474633333333333
EXTRACT: note_on channel=7 note=48 velocity=0 time=0
EXTRACT: note_on channel=5 note=64 velocity=0 time=0.08165388333333333
EXTRACT: note_on channel=8 note=64 velocity=0 time=0.04690755
EXTRACT: note_on channel=5 note=64 velocity=72 time=0.05038218333333333
EXTRACT: note_on channel=8 note=64 velocity=72 time=0.03474633333333333
EXTRACT: note_on channel=5 note=45 velocity=0 time=0.18068093333333332
EXTRACT: note_on channel=5 note=60 velocity=0 time=0.02605975
EXTRACT: note_on channel=8 note=45 velocity=0 time=0.008686583333333333
EXTRACT: note_on channel=8 note=60 velocity=0 time=0.02605975
EXTRACT: note_on channel=5 note=45 velocity=93 time=0.0017373166666666666
EXTRACT: note_on channel=5 note=60 velocity=68 time=0.012161216666666665
EXTRACT: note_on channel=8 note=45 velocity=93 time=0.02605975
EXTRACT: note_on channel=8 note=60 velocity=68 time=0.00521195
EXTRACT: note_on channel=5 note=45 velocity=0 time=0.04864486666666666
EXTRACT: note_on channel=8 note=45 velocity=0 time=0.03822096666666666
EXTRACT: note_on channel=5 note=69 velocity=0 time=0.06428071666666667
EXTRACT: note_on channel=8 note=69 velocity=0 time=0.0416956
EXTRACT: note_on channel=5 note=45 velocity=87 time=0.0416956
EXTRACT: note_on channel=9 note=36 velocity=119 time=0.00521195
EXTRACT: note_on channel=5 note=69 velocity=84 time=0.003474633333333333
EXTRACT: note_on channel=8 note=69 velocity=84 time=0.03474633333333333
EXTRACT: note_on channel=8 note=45 velocity=87 time=0.003474633333333333
EXTRACT: note_on channel=9 note=36 velocity=0 time=0.03648365
EXTRACT: note_on channel=5 note=64 velocity=0 time=0.0833912
EXTRACT: note_on channel=8 note=64 velocity=0 time=0.03474633333333333
EXTRACT: note_on channel=5 note=64 velocity=69 time=0.0833912
EXTRACT: note_on channel=8 note=64 velocity=69 time=0.03822096666666666
EXTRACT: note_on channel=5 note=60 velocity=0 time=0.17025703333333334
EXTRACT: note_on channel=8 note=60 velocity=0 time=0.0312717
EXTRACT: note_on channel=5 note=60 velocity=65 time=0.02953438333333333
EXTRACT: note_on channel=3 note=64 velocity=73 time=0.006949266666666666
EXTRACT: note_on channel=8 note=60 velocity=65 time=0.03474633333333333
EXTRACT: note_on channel=5 note=69 velocity=0 time=0.15983313333333332
EXTRACT: note_on channel=8 note=69 velocity=0 time=0.03474633333333333
EXTRACT: note_on channel=5 note=69 velocity=76 time=0.04864486666666666
EXTRACT: note_on channel=6 note=52 velocity=91 time=0
EXTRACT: note_on channel=6 note=55 velocity=79 time=0
EXTRACT: note_on channel=6 note=48 velocity=93 time=0
EXTRACT: note_on channel=9 note=42 velocity=122 time=0
EXTRACT: note_on channel=9 note=28 velocity=89 time=0
EXTRACT: note_on channel=8 note=69 velocity=76 time=0.0312717
EXTRACT: note_on channel=6 note=48 velocity=0 time=0.0104239
EXTRACT: note_on channel=7 note=52 velocity=91 time=0.0017373166666666666
EXTRACT: note_on channel=7 note=55 velocity=79 time=0
EXTRACT: note_on channel=7 note=48 velocity=93 time=0
EXTRACT: note_on channel=9 note=28 velocity=0 time=0.0104239
EXTRACT: note_on channel=6 note=52 velocity=0 time=0
EXTRACT: note_on channel=6 note=55 velocity=0 time=0.008686583333333333
EXTRACT: note_on channel=9 note=42 velocity=0 time=0.00521195
EXTRACT: note_on channel=7 note=48 velocity=0 time=0.017373166666666665
EXTRACT: note_on channel=7 note=52 velocity=0 time=0.012161216666666665
EXTRACT: note_on channel=7 note=55 velocity=0 time=0.008686583333333333
EXTRACT: note_on channel=3 note=64 velocity=0 time=0.09207778333333333
EXTRACT: note_on channel=5 note=64 velocity=0 time=0.0312717
EXTRACT: note_on channel=8 note=64 velocity=0 time=0.03822096666666666
EXTRACT: note_on channel=5 note=64 velocity=76 time=0.008686583333333333
EXTRACT: note_on channel=3 note=64 velocity=68 time=0.0017373166666666666
EXTRACT: note_on channel=8 note=64 velocity=76 time=0.03995828333333333
EXTRACT: note_on channel=3 note=64 velocity=0 time=0.06428071666666667
EXTRACT: note_on channel=5 note=60 velocity=0 time=0.09207778333333333
EXTRACT: note_on channel=8 note=60 velocity=0 time=0.0416956
EXTRACT: note_on channel=5 note=60 velocity=76 time=0.03822096666666666
EXTRACT: note_on channel=3 note=64 velocity=51 time=0.0017373166666666666
EXTRACT: note_on channel=8 note=60 velocity=76 time=0.04343291666666666
EXTRACT: note_on channel=3 note=64 velocity=0 time=0.02432243333333333
EXTRACT: note_on channel=5 note=60 velocity=0 time=0.11118826666666666
EXTRACT: note_on channel=5 note=64 velocity=0 time=0.022585116666666665
EXTRACT: note_on channel=8 note=60 velocity=0 time=0.022585116666666665
EXTRACT: note_on channel=5 note=69 velocity=0 time=0.003474633333333333
EXTRACT: note_on channel=8 note=64 velocity=0 time=0.01563585
EXTRACT: note_on channel=5 note=52 velocity=0 time=0.00521195
EXTRACT: note_on channel=8 note=69 velocity=0 time=0.0104239
EXTRACT: note_on channel=8 note=52 velocity=0 time=0.013898533333333333
EXTRACT: note_on channel=15 note=57 velocity=0 time=0.00521195
EXTRACT: note_on channel=15 note=60 velocity=0 time=0
EXTRACT: note_on channel=15 note=64 velocity=0 time=0
EXTRACT: note_on channel=3 note=62 velocity=76 time=0
EXTRACT: note_on channel=5 note=65 velocity=81 time=0
EXTRACT: note_on channel=9 note=36 velocity=119 time=0
EXTRACT: note_on channel=15 note=69 velocity=1 time=0
EXTRACT: note_on channel=15 note=65 velocity=1 time=0
EXTRACT: note_on channel=15 note=72 velocity=1 time=0
EXTRACT: note_on channel=5 note=53 velocity=94 time=0.006949266666666666
EXTRACT: note_on channel=5 note=45 velocity=0 time=0.012161216666666665
EXTRACT: note_on channel=8 note=65 velocity=81 time=0.013898533333333333
EXTRACT: note_on channel=8 note=53 velocity=94 time=0.0104239
EXTRACT: note_on channel=8 note=45 velocity=0 time=0.022585116666666665
EXTRACT: note_on channel=9 note=36 velocity=0 time=0.00521195
EXTRACT: note_on channel=3 note=62 velocity=0 time=0.10945094999999999
EXTRACT: note_on channel=5 note=57 velocity=73 time=0.09034046666666666
EXTRACT: note_on channel=3 note=64 velocity=89 time=0.006949266666666666
EXTRACT: note_on channel=8 note=57 velocity=73 time=0.0416956
EXTRACT: note_on channel=3 note=64 velocity=0 time=0.15635849999999998
EXTRACT: note_on channel=5 note=60 velocity=87 time=0.07644193333333332
EXTRACT: note_on channel=3 note=60 velocity=64 time=0.003474633333333333
EXTRACT: note_on channel=8 note=60 velocity=87 time=0.03474633333333333
EXTRACT: note_on channel=3 note=60 velocity=0 time=0.14072265
EXTRACT: note_on channel=5 note=65 velocity=0 time=0.05733145
EXTRACT: note_on channel=8 note=65 velocity=0 time=0.03300901666666666
EXTRACT: note_on channel=5 note=64 velocity=64 time=0.006949266666666666
EXTRACT: note_on channel=5 note=52 velocity=93 time=0.0017373166666666666
EXTRACT: note_on channel=15 note=72 velocity=0 time=0.003474633333333333
EXTRACT: note_on channel=15 note=69 velocity=0 time=0
EXTRACT: note_on channel=15 note=65 velocity=0 time=0
EXTRACT: note_on channel=3 note=62 velocity=67 time=0
EXTRACT: note_on channel=6 note=52 velocity=105 time=0
EXTRACT: note_on channel=6 note=48 velocity=109 time=0
EXTRACT: note_on channel=6 note=55 velocity=94 time=0
EXTRACT: note_on channel=9 note=36 velocity=119 time=0
EXTRACT: note_on channel=15 note=67 velocity=1 time=0
EXTRACT: note_on channel=15 note=71 velocity=1 time=0
EXTRACT: note_on channel=15 note=64 velocity=1 time=0
EXTRACT: note_on channel=8 note=64 velocity=64 time=0.02953438333333333
EXTRACT: note_on channel=8 note=52 velocity=93 time=0.012161216666666665
EXTRACT: note_on channel=7 note=52 velocity=105 time=0.0017373166666666666
EXTRACT: note_on channel=7 note=48 velocity=109 time=0
EXTRACT: note_on channel=7 note=55 velocity=94 time=0
EXTRACT: note_on channel=6 note=52 velocity=0 time=0.003474633333333333
EXTRACT: note_on channel=5 note=53 velocity=0 time=0
EXTRACT: note_on channel=6 note=48 velocity=0 time=0.003474633333333333
EXTRACT: note_on channel=6 note=55 velocity=0 time=0
EXTRACT: note_on channel=9 note=36 velocity=0 time=0.0208478
EXTRACT: note_on channel=8 note=53 velocity=0 time=0.012161216666666665
EXTRACT: note_on channel=7 note=52 velocity=0 time=0.006949266666666666
EXTRACT: note_on channel=7 note=48 velocity=0 time=0.003474633333333333
EXTRACT: note_on channel=7 note=55 velocity=0 time=0
EXTRACT: note_on channel=3 note=62 velocity=0 time=0.05733145
EXTRACT: note_on channel=5 note=57 velocity=0 time=0.0938151
EXTRACT: note_on channel=5 note=55 velocity=84 time=0.027797066666666665
EXTRACT: note_on channel=3 note=60 velocity=76 time=0.00521195
EXTRACT: note_on channel=8 note=57 velocity=0 time=0.01563585
EXTRACT: note_on channel=8 note=55 velocity=84 time=0.027797066666666665
EXTRACT: note_on channel=5 note=60 velocity=0 time=0.13377338333333333
EXTRACT: note_on channel=8 note=60 velocity=0 time=0.03822096666666666
EXTRACT: note_on channel=5 note=60 velocity=79 time=0.06428071666666667
EXTRACT: note_on channel=8 note=60 velocity=79 time=0.03300901666666666
EXTRACT: note_on channel=3 note=60 velocity=0 time=0.13203606666666665
EXTRACT: note_on channel=5 note=64 velocity=0 time=0.09555241666666667
EXTRACT: control_change channel=10 control=11 value=9 time=0.006949266666666666
EXTRACT: control_change channel=10 control=11 value=9 time=0.0017373166666666666
EXTRACT: control_change channel=10 control=11 value=10 time=0
EXTRACT: note_on channel=5 note=62 velocity=93 time=0.0017373166666666666
EXTRACT: control_change channel=10 control=11 value=11 time=0
EXTRACT: control_change channel=10 control=11 value=12 time=0
EXTRACT: control_change channel=10 control=11 value=13 time=0.0017373166666666666
EXTRACT: control_change channel=10 control=11 value=14 time=0
EXTRACT: note_on channel=5 note=50 velocity=96 time=0.0017373166666666666
EXTRACT: control_change channel=10 control=11 value=14 time=0
EXTRACT: control_change channel=10 control=11 value=15 time=0
EXTRACT: note_on channel=15 note=67 velocity=0 time=0.0017373166666666666
EXTRACT: note_on channel=15 note=64 velocity=0 time=0
EXTRACT: note_on channel=15 note=71 velocity=0 time=0
EXTRACT: note_on channel=9 note=36 velocity=119 time=0
EXTRACT: control_change channel=10 control=11 value=16 time=0
EXTRACT: control_change channel=10 control=11 value=17 time=0
EXTRACT: note_on channel=10 note=72 velocity=65 time=0
EXTRACT: note_on channel=10 note=69 velocity=77 time=0
EXTRACT: note_on channel=10 note=65 velocity=61 time=0
EXTRACT: note_on channel=15 note=65 velocity=1 time=0
EXTRACT: note_on channel=15 note=62 velocity=1 time=0
EXTRACT: note_on channel=15 note=69 velocity=1 time=0
EXTRACT: control_change channel=10 control=11 value=18 time=0.0017373166666666666
EXTRACT: control_change channel=10 control=11 value=19 time=0
EXTRACT: control_change channel=10 control=11 value=19 time=0.00521195
EXTRACT: control_change channel=10 control=11 value=20 time=0.003474633333333333
EXTRACT: control_change channel=10 control=11 value=21 time=0.00521195
EXTRACT: note_on channel=8 note=64 velocity=0 time=0.003474633333333333
EXTRACT: control_change channel=10 control=11 value=22 time=0
EXTRACT: control_change channel=10 control=11 value=23 time=0.00521195
EXTRACT: note_on channel=8 note=50 velocity=96 time=0.003474633333333333
EXTRACT: control_change channel=10 control=11 value=24 time=0
EXTRACT: note_on channel=8 note=62 velocity=93 time=0.00521195
EXTRACT: control_change channel=10 control=11 value=25 time=0
EXTRACT: control_change channel=10 control=11 value=26 time=0.003474633333333333
EXTRACT: control_change channel=10 control=11 value=27 time=0.00521195
EXTRACT: control_change channel=10 control=11 value=28 time=0.003474633333333333
EXTRACT: control_change channel=10 control=11 value=29 time=0.00521195
EXTRACT: note_on channel=5 note=52 velocity=0 time=0.0017373166666666666
EXTRACT: control_change channel=10 control=11 value=29 time=0.0017373166666666666
EXTRACT: control_change channel=10 control=11 value=30 time=0.00521195
EXTRACT: control_change channel=10 control=11 value=31 time=0.003474633333333333
EXTRACT: control_change channel=10 control=11 value=31 time=0.008686583333333333
EXTRACT: note_on channel=9 note=36 velocity=0 time=0.006949266666666666
EXTRACT: control_change channel=10 control=11 value=32 time=0
EXTRACT: control_change channel=10 control=11 value=33 time=0.008686583333333333
EXTRACT: control_change channel=10 control=11 value=33 time=0.006949266666666666
EXTRACT: note_on channel=8 note=52 velocity=0 time=0.003474633333333333
EXTRACT: control_change channel=10 control=11 value=34 time=0.003474633333333333
EXTRACT: control_change channel=10 control=11 value=35 time=0.006949266666666666
EXTRACT: control_change channel=10 control=11 value=36 time=0.006949266666666666
EXTRACT: control_change channel=10 control=11 value=37 time=0.006949266666666666
EXTRACT: note_on channel=5 note=55 velocity=0 time=0.00521195
EXTRACT: control_change channel=10 control=11 value=38 time=0.0017373166666666666
EXTRACT: control_change channel=10 control=11 value=39 time=0.006949266666666666
EXTRACT: control_change channel=10 control=11 value=40 time=0.006949266666666666
EXTRACT: control_change channel=10 control=11 value=41 time=0.00521195
EXTRACT: control_change channel=10 control=11 value=42 time=0.006949266666666666
EXTRACT: control_change channel=10 control=11 value=42 time=0.00521195
EXTRACT: control_change channel=10 control=11 value=43 time=0.00521195
EXTRACT: control_change channel=10 control=11 value=44 time=0.00521195
EXTRACT: note_on channel=8 note=55 velocity=0 time=0.00521195
EXTRACT: control_change channel=10 control=11 value=45 time=0
EXTRACT: control_change channel=10 control=11 value=46 time=0.00521195
EXTRACT: control_change channel=10 control=11 value=47 time=0.00521195
EXTRACT: control_change channel=10 control=11 value=48 time=0.00521195
EXTRACT: control_change channel=10 control=11 value=49 time=0.00521195
EXTRACT: control_change channel=10 control=11 value=50 time=0.00521195
EXTRACT: control_change channel=10 control=11 value=51 time=0.00521195
EXTRACT: control_change channel=10 control=11 value=51 time=0.003474633333333333
EXTRACT: control_change channel=10 control=11 value=52 time=0.00521195
EXTRACT: control_change channel=10 control=11 value=53 time=0.003474633333333333
EXTRACT: control_change channel=10 control=11 value=54 time=0.00521195
EXTRACT: control_change channel=10 control=11 value=55 time=0.003474633333333333
EXTRACT: control_change channel=10 control=11 value=56 time=0.00521195
EXTRACT: control_change channel=10 control=11 value=57 time=0.003474633333333333
EXTRACT: control_change channel=10 control=11 value=58 time=0.00521195
EXTRACT: control_change channel=10 control=11 value=58 time=0.0017373166666666666
EXTRACT: control_change channel=10 control=11 value=59 time=0.003474633333333333
EXTRACT: control_change channel=10 control=11 value=60 time=0.0017373166666666666
EXTRACT: control_change channel=10 control=11 value=61 time=0.003474633333333333
EXTRACT: control_change channel=10 control=11 value=61 time=0.0017373166666666666
EXTRACT: control_change channel=10 control=11 value=62 time=0.003474633333333333
EXTRACT: control_change channel=10 control=11 value=63 time=0.0017373166666666666
EXTRACT: control_change channel=10 control=11 value=64 time=0.003474633333333333
EXTRACT: control_change channel=10 control=11 value=65 time=0.0017373166666666666
EXTRACT: control_change channel=10 control=11 value=65 time=0.003474633333333333
EXTRACT: control_change channel=10 control=11 value=66 time=0.0017373166666666666
EXTRACT: note_on channel=5 note=57 velocity=73 time=0.003474633333333333
EXTRACT: control_change channel=10 control=11 value=67 time=0
EXTRACT: control_change channel=10 control=11 value=68 time=0.0017373166666666666
EXTRACT: control_change channel=10 control=11 value=68 time=0.003474633333333333
EXTRACT: control_change channel=10 control=11 value=69 time=0.0017373166666666666
EXTRACT: control_change channel=10 control=11 value=69 time=0.003474633333333333
EXTRACT: control_change channel=10 control=11 value=70 time=0.003474633333333333
EXTRACT: control_change channel=10 control=11 value=71 time=0.003474633333333333
EXTRACT: control_change channel=10 control=11 value=72 time=0.003474633333333333
EXTRACT: control_change channel=10 control=11 value=73 time=0.003474633333333333
EXTRACT: control_change channel=10 control=11 value=74 time=0.003474633333333333
EXTRACT: control_change channel=10 control=11 value=75 time=0.003474633333333333
EXTRACT: control_change channel=10 control=11 value=76 time=0.003474633333333333
EXTRACT: control_change channel=10 control=11 value=77 time=0.003474633333333333
EXTRACT: control_change channel=10 control=11 value=78 time=0.003474633333333333
EXTRACT: note_on channel=8 note=57 velocity=73 time=0.003474633333333333
EXTRACT: control_change channel=10 control=11 value=78 time=0.0017373166666666666
EXTRACT: control_change channel=10 control=11 value=79 time=0.003474633333333333
EXTRACT: control_change channel=10 control=11 value=80 time=0.00521195
EXTRACT: control_change channel=10 control=11 value=81 time=0.003474633333333333
EXTRACT: control_change channel=10 control=11 value=82 time=0.00521195
EXTRACT: control_change channel=10 control=11 value=83 time=0.003474633333333333
EXTRACT: control_change channel=10 control=11 value=83 time=0.00521195
EXTRACT: control_change channel=10 control=11 value=84 time=0.003474633333333333
EXTRACT: control_change channel=10 control=11 value=85 time=0.00521195
EXTRACT: control_change channel=10 control=11 value=86 time=0.003474633333333333
EXTRACT: control_change channel=10 control=11 value=87 time=0.00521195
EXTRACT: control_change channel=10 control=11 value=88 time=0.003474633333333333
EXTRACT: control_change channel=10 control=11 value=89 time=0.00521195
EXTRACT: control_change channel=10 control=11 value=90 time=0.003474633333333333
EXTRACT: control_change channel=10 control=11 value=90 time=0.00521195
EXTRACT: control_change channel=10 control=11 value=91 time=0.003474633333333333
EXTRACT: control_change channel=10 control=11 value=92 time=0.00521195
EXTRACT: control_change channel=10 control=11 value=92 time=0.003474633333333333
EXTRACT: control_change channel=10 control=11 value=93 time=0.003474633333333333
EXTRACT: note_on channel=5 note=60 velocity=0 time=0.003474633333333333
EXTRACT: control_change channel=10 control=11 value=94 time=0
EXTRACT: control_change channel=10 control=11 value=95 time=0.003474633333333333
EXTRACT: control_change channel=10 control=11 value=96 time=0.003474633333333333
EXTRACT: control_change channel=10 control=11 value=97 time=0.003474633333333333
EXTRACT: control_change channel=10 control=11 value=97 time=0.003474633333333333
EXTRACT: control_change channel=10 control=11 value=98 time=0.003474633333333333
EXTRACT: control_change channel=10 control=11 value=99 time=0.003474633333333333
EXTRACT: control_change channel=10 control=11 value=100 time=0.003474633333333333
EXTRACT: control_change channel=10 control=11 value=101 time=0.003474633333333333
EXTRACT: control_change channel=10 control=11 value=102 time=0.003474633333333333
EXTRACT: note_on channel=8 note=60 velocity=0 time=0.0017373166666666666
EXTRACT: control_change channel=10 control=11 value=102 time=0.0017373166666666666
EXTRACT: control_change channel=10 control=11 value=103 time=0.003474633333333333
EXTRACT: control_change channel=10 control=11 value=104 time=0.003474633333333333
EXTRACT: control_change channel=10 control=11 value=105 time=0.003474633333333333
EXTRACT: control_change channel=10 control=11 value=106 time=0.003474633333333333
EXTRACT: control_change channel=10 control=11 value=106 time=0.003474633333333333
EXTRACT: control_change channel=10 control=11 value=107 time=0.003474633333333333
EXTRACT: control_change channel=10 control=11 value=108 time=0.003474633333333333
EXTRACT: control_change channel=10 control=11 value=109 time=0.003474633333333333
EXTRACT: control_change channel=10 control=11 value=110 time=0.003474633333333333
EXTRACT: control_change channel=10 control=11 value=110 time=0.003474633333333333
EXTRACT: control_change channel=10 control=11 value=111 time=0.003474633333333333
EXTRACT: control_change channel=10 control=11 value=112 time=0.003474633333333333
EXTRACT: control_change channel=10 control=11 value=113 time=0.003474633333333333
EXTRACT: control_change channel=10 control=11 value=114 time=0.003474633333333333
EXTRACT: control_change channel=10 control=11 value=114 time=0.003474633333333333
EXTRACT: control_change channel=10 control=11 value=115 time=0.003474633333333333
EXTRACT: control_change channel=10 control=11 value=116 time=0.003474633333333333
EXTRACT: control_change channel=10 control=11 value=117 time=0.003474633333333333
EXTRACT: control_change channel=10 control=11 value=118 time=0.008686583333333333
EXTRACT: control_change channel=10 control=11 value=119 time=0.008686583333333333
EXTRACT: control_change channel=10 control=11 value=120 time=0.008686583333333333
EXTRACT: control_change channel=10 control=11 value=121 time=0.008686583333333333
EXTRACT: control_change channel=10 control=11 value=122 time=0.008686583333333333
EXTRACT: control_change channel=10 control=11 value=123 time=0.008686583333333333
EXTRACT: note_on channel=3 note=67 velocity=98 time=0.006949266666666666
EXTRACT: note_on channel=5 note=60 velocity=79 time=0
EXTRACT: control_change channel=10 control=11 value=124 time=0.0017373166666666666
EXTRACT: control_change channel=10 control=11 value=125 time=0.008686583333333333
EXTRACT: control_change channel=10 control=11 value=126 time=0.008686583333333333
EXTRACT: note_on channel=8 note=60 velocity=79 time=0.01563585
EXTRACT: control_change channel=10 control=11 value=127 time=0.06601803333333332
EXTRACT: note_on channel=5 note=50 velocity=0 time=0.10250168333333333
EXTRACT: note_on channel=8 note=50 velocity=0 time=0.02953438333333333
EXTRACT: note_on channel=5 note=65 velocity=84 time=0.0416956
EXTRACT: note_on channel=15 note=65 velocity=0 time=0.003474633333333333
EXTRACT: note_on channel=15 note=69 velocity=0 time=0
EXTRACT: note_on channel=15 note=62 velocity=0 time=0
EXTRACT: note_on channel=6 note=52 velocity=91 time=0
EXTRACT: note_on channel=6 note=55 velocity=79 time=0
EXTRACT: note_on channel=6 note=48 velocity=93 time=0
EXTRACT: note_on channel=9 note=38 velocity=112 time=0
EXTRACT: note_on channel=14 note=62 velocity=93 time=0
EXTRACT: note_on channel=15 note=67 velocity=1 time=0
EXTRACT: note_on channel=15 note=71 velocity=1 time=0
EXTRACT: note_on channel=15 note=74 velocity=1 time=0
EXTRACT: note_on channel=5 note=50 velocity=67 time=0.0017373166666666666
EXTRACT: note_on channel=5 note=55 velocity=82 time=0.0017373166666666666
EXTRACT: note_on channel=5 note=62 velocity=0 time=0.027797066666666665
EXTRACT: note_on channel=8 note=65 velocity=84 time=0
EXTRACT: note_on channel=8 note=50 velocity=67 time=0
EXTRACT: note_on channel=8 note=55 velocity=82 time=0.003474633333333333
EXTRACT: note_on channel=6 note=48 velocity=0 time=0.006949266666666666
EXTRACT: note_on channel=7 note=52 velocity=91 time=0.0017373166666666666
EXTRACT: note_on channel=7 note=55 velocity=79 time=0
EXTRACT: note_on channel=7 note=48 velocity=93 time=0
EXTRACT: note_on channel=6 note=52 velocity=0 time=0.0104239
EXTRACT: note_on channel=6 note=55 velocity=0 time=0.008686583333333333
EXTRACT: note_on channel=9 note=38 velocity=0 time=0.0017373166666666666
EXTRACT: note_on channel=8 note=62 velocity=0 time=0.00521195
EXTRACT: note_on channel=7 note=48 velocity=0 time=0.01563585
EXTRACT: note_on channel=5 note=57 velocity=0 time=0.00521195
EXTRACT: note_on channel=7 note=52 velocity=0 time=0.006949266666666666
EXTRACT: note_on channel=7 note=55 velocity=0 time=0.008686583333333333
EXTRACT: note_on channel=8 note=57 velocity=0 time=0.02953438333333333
EXTRACT: note_on channel=3 note=67 velocity=0 time=0.0625434
EXTRACT: note_on channel=3 note=69 velocity=101 time=0.07991656666666666
EXTRACT: note_on channel=9 note=45 velocity=116 time=0
EXTRACT: note_on channel=5 note=62 velocity=77 time=0.003474633333333333
EXTRACT: note_on channel=8 note=62 velocity=77 time=0.0312717
EXTRACT: note_on channel=5 note=65 velocity=0 time=0.01911048333333333
EXTRACT: note_on channel=5 note=60 velocity=0 time=0.02953438333333333
EXTRACT: note_on channel=9 note=45 velocity=0 time=0.0017373166666666666
EXTRACT: note_on channel=8 note=65 velocity=0 time=0.003474633333333333
EXTRACT: note_on channel=8 note=60 velocity=0 time=0.02953438333333333
EXTRACT: note_on channel=3 note=69 velocity=0 time=0.022585116666666665
EXTRACT: note_on channel=3 note=72 velocity=105 time=0.13724801666666667
EXTRACT: note_on channel=9 note=43 velocity=116 time=0
EXTRACT: note_on channel=5 note=65 velocity=63 time=0.0017373166666666666
EXTRACT: note_on channel=8 note=65 velocity=63 time=0.02605975
EXTRACT: note_on channel=9 note=43 velocity=0 time=0.03822096666666666
EXTRACT: note_on channel=3 note=72 velocity=0 time=0.03474633333333333
EXTRACT: note_on channel=3 note=69 velocity=101 time=0.0416956
EXTRACT: note_on channel=5 note=50 velocity=0 time=0.08686583333333332
EXTRACT: note_on channel=8 note=50 velocity=0 time=0.02953438333333333
EXTRACT: note_on channel=5 note=55 velocity=0 time=0.008686583333333333
EXTRACT: note_on channel=5 note=62 velocity=0 time=0.008686583333333333
EXTRACT: note_on channel=15 note=67 velocity=0 time=0.0017373166666666666
EXTRACT: note_on channel=15 note=71 velocity=0 time=0
EXTRACT: note_on channel=15 note=74 velocity=0 time=0
EXTRACT: note_on channel=1 note=36 velocity=114 time=0
EXTRACT: note_on channel=2 note=48 velocity=72 time=0
EXTRACT: note_on channel=2 note=55 velocity=64 time=0
EXTRACT: note_on channel=2 note=60 velocity=77 time=0
EXTRACT: note_on channel=2 note=64 velocity=65 time=0
EXTRACT: note_on channel=3 note=72 velocity=107 time=0
EXTRACT: note_on channel=4 note=67 velocity=96 time=0
EXTRACT: note_on channel=4 note=72 velocity=96 time=0
EXTRACT: note_on channel=4 note=64 velocity=73 time=0
EXTRACT: note_on channel=9 note=36 velocity=119 time=0
EXTRACT: note_on channel=9 note=57 velocity=119 time=0
EXTRACT: note_on channel=15 note=64 velocity=1 time=0
EXTRACT: note_on channel=15 note=60 velocity=1 time=0
EXTRACT: note_on channel=15 note=67 velocity=1 time=0
EXTRACT: note_on channel=5 note=64 velocity=62 time=0.0017373166666666666
EXTRACT: note_on channel=5 note=52 velocity=79 time=0.0017373166666666666
EXTRACT: note_on channel=5 note=60 velocity=77 time=0.0017373166666666666
EXTRACT: note_on channel=5 note=48 velocity=84 time=0.0017373166666666666
EXTRACT: note_on channel=3 note=69 velocity=0 time=0.0017373166666666666
EXTRACT: note_on channel=10 note=65 velocity=0 time=0
EXTRACT: note_on channel=5 note=55 velocity=68 time=0
EXTRACT: note_on channel=8 note=55 velocity=0 time=0.012161216666666665
EXTRACT: note_on channel=10 note=69 velocity=0 time=0.003474633333333333
EXTRACT: note_on channel=8 note=62 velocity=0 time=0.00521195
EXTRACT: note_on channel=10 note=72 velocity=0 time=0.0017373166666666666
EXTRACT: note_on channel=8 note=52 velocity=79 time=0
EXTRACT: note_on channel=8 note=64 velocity=62 time=0.003474633333333333
EXTRACT: note_on channel=5 note=65 velocity=0 time=0.0017373166666666666
EXTRACT: note_on channel=8 note=55 velocity=68 time=0.003474633333333333
EXTRACT: note_on channel=8 note=60 velocity=77 time=0.0017373166666666666
EXTRACT: note_on channel=8 note=48 velocity=84 time=0
EXTRACT: note_on channel=8 note=65 velocity=0 time=0.0208478
EXTRACT: note_on channel=9 note=57 velocity=0 time=0
EXTRACT: note_on channel=9 note=36 velocity=0 time=0.006949266666666666
EXTRACT: note_on channel=14 note=62 velocity=0 time=0.03474633333333333
EXTRACT: note_on channel=4 note=64 velocity=0 time=0.5958996166666667
EXTRACT: note_on channel=3 note=72 velocity=0 time=0.0104239
EXTRACT: note_on channel=4 note=67 velocity=0 time=0.00521195
EXTRACT: note_on channel=4 note=72 velocity=0 time=0
EXTRACT: note_on channel=5 note=52 velocity=0 time=0.02605975
EXTRACT: note_on channel=8 note=52 velocity=0 time=0.027797066666666665
EXTRACT: note_on channel=5 note=48 velocity=0 time=0.02605975
EXTRACT: note_on channel=8 note=48 velocity=0 time=0.03474633333333333
EXTRACT: note_on channel=3 note=67 velocity=112 time=0.003474633333333333
EXTRACT: note_on channel=4 note=67 velocity=69 time=0
EXTRACT: note_on channel=4 note=60 velocity=67 time=0
EXTRACT: note_on channel=4 note=64 velocity=59 time=0
EXTRACT: note_on channel=6 note=52 velocity=105 time=0
EXTRACT: note_on channel=6 note=48 velocity=109 time=0
EXTRACT: note_on channel=6 note=55 velocity=94 time=0
EXTRACT: note_on channel=9 note=42 velocity=122 time=0
EXTRACT: note_on channel=9 note=54 velocity=124 time=0
EXTRACT: note_on channel=9 note=28 velocity=89 time=0
EXTRACT: note_on channel=5 note=48 velocity=79 time=0.008686583333333333
EXTRACT: note_on channel=8 note=48 velocity=79 time=0.027797066666666665
EXTRACT: note_on channel=7 note=52 velocity=105 time=0.006949266666666666
EXTRACT: note_on channel=7 note=48 velocity=109 time=0
EXTRACT: note_on channel=7 note=55 velocity=94 time=0
EXTRACT: note_on channel=6 note=52 velocity=0 time=0.003474633333333333
EXTRACT: note_on channel=6 note=55 velocity=0 time=0.003474633333333333
EXTRACT: note_on channel=6 note=48 velocity=0 time=0
EXTRACT: note_on channel=9 note=42 velocity=0 time=0.00521195
EXTRACT: note_on channel=9 note=54 velocity=0 time=0.01911048333333333
EXTRACT: note_on channel=5 note=48 velocity=0 time=0.0017373166666666666
EXTRACT: note_on channel=9 note=28 velocity=0 time=0.006949266666666666
EXTRACT: note_on channel=7 note=52 velocity=0 time=0.006949266666666666
EXTRACT: note_on channel=7 note=55 velocity=0 time=0.003474633333333333
EXTRACT: note_on channel=7 note=48 velocity=0 time=0
EXTRACT: note_on channel=8 note=48 velocity=0 time=0.0104239
EXTRACT: note_on channel=5 note=48 velocity=94 time=0.17894361666666667
EXTRACT: note_on channel=8 note=48 velocity=94 time=0.02953438333333333
EXTRACT: note_on channel=1 note=36 velocity=0 time=0.00521195
EXTRACT: note_on channel=3 note=67 velocity=0 time=0.13203606666666665
EXTRACT: note_on channel=5 note=55 velocity=0 time=0.03300901666666666
EXTRACT: note_on channel=4 note=60 velocity=0 time=0.003474633333333333
EXTRACT: note_on channel=4 note=64 velocity=0 time=0
EXTRACT: note_on channel=4 note=67 velocity=0 time=0.0104239
EXTRACT: note_on channel=5 note=64 velocity=0 time=0.01563585
EXTRACT: note_on channel=8 note=55 velocity=0 time=0.0017373166666666666
EXTRACT: note_on channel=5 note=48 velocity=0 time=0.008686583333333333
EXTRACT: note_on channel=5 note=60 velocity=0 time=0.017373166666666665
EXTRACT: note_on channel=8 note=64 velocity=0 time=0.00521195
EXTRACT: note_on channel=8 note=48 velocity=0 time=0.006949266666666666
EXTRACT: note_on channel=5 note=60 velocity=84 time=0.0017373166666666666
EXTRACT: note_on channel=1 note=31 velocity=124 time=0.0017373166666666666
EXTRACT: note_on channel=9 note=36 velocity=119 time=0
EXTRACT: note_on channel=5 note=53 velocity=93 time=0.00521195
EXTRACT: note_on channel=5 note=65 velocity=84 time=0.003474633333333333
EXTRACT: note_on channel=8 note=60 velocity=0 time=0.012161216666666665
EXTRACT: note_on channel=8 note=53 velocity=93 time=0.0104239
EXTRACT: note_on channel=8 note=60 velocity=84 time=0.003474633333333333
EXTRACT: note_on channel=8 note=65 velocity=84 time=0.006949266666666666
EXTRACT: note_on channel=9 note=36 velocity=0 time=0.02432243333333333
EXTRACT: note_on channel=5 note=60 velocity=0 time=0.09207778333333333
EXTRACT: note_on channel=5 note=65 velocity=0 time=0.022585116666666665
EXTRACT: note_on channel=8 note=60 velocity=0 time=0.013898533333333333
EXTRACT: note_on channel=8 note=65 velocity=0 time=0.01911048333333333
EXTRACT: note_on channel=5 note=53 velocity=0 time=0.01563585
EXTRACT: note_on channel=1 note=31 velocity=0 time=0.01911048333333333
EXTRACT: note_on channel=8 note=53 velocity=0 time=0.006949266666666666
EXTRACT: note_on channel=1 note=36 velocity=112 time=0.022585116666666665
EXTRACT: note_on channel=5 note=60 velocity=79 time=0
EXTRACT: note_on channel=9 note=36 velocity=124 time=0
EXTRACT: note_on channel=5 note=55 velocity=64 time=0.0017373166666666666
EXTRACT: note_on channel=5 note=48 velocity=89 time=0
EXTRACT: note_on channel=5 note=64 velocity=67 time=0.003474633333333333
EXTRACT: note_on channel=8 note=64 velocity=67 time=0.022585116666666665
EXTRACT: note_on channel=8 note=48 velocity=89 time=0.0017373166666666666
EXTRACT: note_on channel=8 note=60 velocity=79 time=0.003474633333333333
EXTRACT: note_on channel=8 note=55 velocity=64 time=0
EXTRACT: note_on channel=9 note=36 velocity=0 time=0.03300901666666666
EXTRACT: note_on channel=3 note=64 velocity=96 time=0.48992329999999995
EXTRACT: note_on channel=3 note=64 velocity=0 time=0.09034046666666666
EXTRACT: note_on channel=2 note=55 velocity=0 time=0.1459346
EXTRACT: note_on channel=2 note=48 velocity=0 time=0.03300901666666666
EXTRACT: note_on channel=3 note=67 velocity=89 time=0.008686583333333333
EXTRACT: note_on channel=6 note=52 velocity=91 time=0
EXTRACT: note_on channel=6 note=55 velocity=79 time=0
EXTRACT: note_on channel=6 note=48 velocity=93 time=0
EXTRACT: note_on channel=9 note=42 velocity=124 time=0
EXTRACT: note_on channel=9 note=54 velocity=127 time=0
EXTRACT: note_on channel=9 note=28 velocity=89 time=0
EXTRACT: note_on channel=6 note=48 velocity=0 time=0.0416956
EXTRACT: note_on channel=7 note=52 velocity=91 time=0.0017373166666666666
EXTRACT: note_on channel=7 note=55 velocity=79 time=0
EXTRACT: note_on channel=7 note=48 velocity=93 time=0
EXTRACT: note_on channel=6 note=52 velocity=0 time=0.0104239
EXTRACT: note_on channel=6 note=55 velocity=0 time=0.008686583333333333
EXTRACT: note_on channel=9 note=42 velocity=0 time=0.0017373166666666666
EXTRACT: note_on channel=9 note=28 velocity=0 time=0.006949266666666666
EXTRACT: note_on channel=9 note=54 velocity=0 time=0.006949266666666666
EXTRACT: note_on channel=7 note=48 velocity=0 time=0.006949266666666666
EXTRACT: note_on channel=7 note=52 velocity=0 time=0.012161216666666665
EXTRACT: note_on channel=3 note=67 velocity=0 time=0.006949266666666666
EXTRACT: note_on channel=7 note=55 velocity=0 time=0.0017373166666666666
EXTRACT: note_on channel=1 note=36 velocity=0 time=0.01563585
EXTRACT: note_on channel=2 note=64 velocity=0 time=0.05906876666666666
EXTRACT: note_on channel=2 note=60 velocity=0 time=0.04343291666666666
EXTRACT: note_on channel=5 note=48 velocity=0 time=0.04517023333333333
EXTRACT: note_on channel=1 note=38 velocity=96 time=0.008686583333333333
EXTRACT: note_on channel=3 note=71 velocity=85 time=0
EXTRACT: note_on channel=5 note=50 velocity=69 time=0.006949266666666666
EXTRACT: note_on channel=8 note=48 velocity=0 time=0.012161216666666665
EXTRACT: note_on channel=8 note=50 velocity=69 time=0.01563585
EXTRACT: note_on channel=3 note=71 velocity=0 time=0.07817924999999999
EXTRACT: note_on channel=1 note=38 velocity=0 time=0.00521195
EXTRACT: note_on channel=5 note=50 velocity=0 time=0.00521195
EXTRACT: note_on channel=8 note=50 velocity=0 time=0.027797066666666665
EXTRACT: note_on channel=1 note=39 velocity=101 time=0.12682411666666665
EXTRACT: note_on channel=3 note=72 velocity=105 time=0
EXTRACT: note_on channel=5 note=51 velocity=79 time=0.006949266666666666
EXTRACT: note_on channel=8 note=51 velocity=79 time=0.02605975
EXTRACT: note_on channel=3 note=72 velocity=0 time=0.05559413333333333
EXTRACT: note_on channel=5 note=51 velocity=0 time=0.03822096666666666
EXTRACT: note_on channel=1 note=39 velocity=0 time=0.01563585
EXTRACT: note_on channel=5 note=55 velocity=0 time=0.006949266666666666
EXTRACT: note_on channel=8 note=51 velocity=0 time=0.003474633333333333
EXTRACT: note_on channel=8 note=55 velocity=0 time=0.027797066666666665
EXTRACT: note_on channel=5 note=60 velocity=0 time=0.03648365
EXTRACT: note_on channel=5 note=64 velocity=0 time=0.008686583333333333
EXTRACT: note_on channel=8 note=64 velocity=0 time=0.022585116666666665
EXTRACT: note_on channel=8 note=60 velocity=0 time=0.0017373166666666666
EXTRACT: note_on channel=5 note=59 velocity=61 time=0.02432243333333333
EXTRACT: note_on channel=5 note=64 velocity=69 time=0
EXTRACT: note_on channel=15 note=67 velocity=0 time=0.003474633333333333
EXTRACT: note_on channel=15 note=60 velocity=0 time=0
EXTRACT: note_on channel=15 note=64 velocity=0 time=0
EXTRACT: note_on channel=1 note=40 velocity=91 time=0
EXTRACT: note_on channel=2 note=55 velocity=63 time=0
EXTRACT: note_on channel=2 note=52 velocity=58 time=0
EXTRACT: note_on channel=2 note=40 velocity=52 time=0
EXTRACT: note_on channel=2 note=59 velocity=67 time=0
EXTRACT: note_on channel=3 note=71 velocity=112 time=0
EXTRACT: note_on channel=4 note=67 velocity=77 time=0
EXTRACT: note_on channel=4 note=62 velocity=44 time=0
EXTRACT: note_on channel=5 note=52 velocity=67 time=0
EXTRACT: note_on channel=9 note=36 velocity=119 time=0
EXTRACT: note_on channel=15 note=55 velocity=1 time=0
EXTRACT: note_on channel=15 note=59 velocity=1 time=0
EXTRACT: note_on channel=15 note=52 velocity=1 time=0
EXTRACT: note_on channel=5 note=67 velocity=68 time=0.006949266666666666
EXTRACT: note_on channel=8 note=59 velocity=61 time=0.02953438333333333
EXTRACT: note_on channel=8 note=64 velocity=69 time=0.003474633333333333
EXTRACT: note_on channel=8 note=67 velocity=68 time=0
EXTRACT: note_on channel=8 note=52 velocity=67 time=0
EXTRACT: note_on channel=9 note=36 velocity=0 time=0.02953438333333333
EXTRACT: control_change channel=5 control=64 value=127 time=0.208478
EXTRACT: control_change channel=8 control=64 value=127 time=0.03822096666666666
EXTRACT: note_on channel=4 note=62 velocity=0 time=0.24148701666666667
EXTRACT: note_on channel=4 note=67 velocity=0 time=0.02605975
EXTRACT: note_on channel=3 note=71 velocity=0 time=0.00521195
EXTRACT: note_on channel=3 note=71 velocity=109 time=0.24496164999999998
EXTRACT: note_on channel=4 note=67 velocity=61 time=0
EXTRACT: note_on channel=4 note=62 velocity=68 time=0
EXTRACT: note_on channel=6 note=52 velocity=105 time=0
EXTRACT: note_on channel=6 note=48 velocity=109 time=0
EXTRACT: note_on channel=6 note=55 velocity=94 time=0
EXTRACT: note_on channel=9 note=42 velocity=122 time=0
EXTRACT: note_on channel=9 note=54 velocity=124 time=0
EXTRACT: note_on channel=9 note=28 velocity=89 time=0
EXTRACT: note_on channel=7 note=52 velocity=105 time=0.04343291666666666
EXTRACT: note_on channel=7 note=48 velocity=109 time=0
EXTRACT: note_on channel=7 note=55 velocity=94 time=0
EXTRACT: note_on channel=6 note=52 velocity=0 time=0.003474633333333333
EXTRACT: note_on channel=6 note=55 velocity=0 time=0.003474633333333333
EXTRACT: note_on channel=6 note=48 velocity=0 time=0
EXTRACT: note_on channel=9 note=42 velocity=0 time=0.00521195
EXTRACT: note_on channel=9 note=54 velocity=0 time=0.01911048333333333
EXTRACT: note_on channel=9 note=28 velocity=0 time=0.008686583333333333
EXTRACT: note_on channel=7 note=52 velocity=0 time=0.006949266666666666
EXTRACT: note_on channel=7 note=48 velocity=0 time=0.003474633333333333
EXTRACT: note_on channel=7 note=55 velocity=0 time=0
EXTRACT: note_on channel=3 note=71 velocity=0 time=0.09555241666666667
EXTRACT: note_on channel=1 note=40 velocity=0 time=0.09207778333333333
EXTRACT: note_on channel=5 note=52 velocity=0 time=0.09728973333333332
EXTRACT: note_on channel=4 note=67 velocity=0 time=0.0017373166666666666
EXTRACT: note_on channel=8 note=52 velocity=0 time=0.03822096666666666
EXTRACT: note_on channel=5 note=47 velocity=75 time=0.13029875
EXTRACT: note_on channel=4 note=62 velocity=0 time=0.003474633333333333
EXTRACT: note_on channel=1 note=35 velocity=114 time=0.003474633333333333
EXTRACT: note_on channel=9 note=36 velocity=119 time=0
EXTRACT: note_on channel=8 note=47 velocity=75 time=0.0312717
EXTRACT: note_on channel=5 note=67 velocity=0 time=0.022585116666666665
EXTRACT: note_on channel=9 note=36 velocity=0 time=0.012161216666666665
EXTRACT: note_on channel=8 note=67 velocity=0 time=0.0208478
EXTRACT: note_on channel=5 note=64 velocity=0 time=0.00521195
EXTRACT: note_on channel=5 note=59 velocity=0 time=0
EXTRACT: note_on channel=1 note=35 velocity=0 time=0.017373166666666665
EXTRACT: note_on channel=5 note=47 velocity=0 time=0.0017373166666666666
EXTRACT: note_on channel=8 note=59 velocity=0 time=0.0208478
EXTRACT: note_on channel=8 note=64 velocity=0 time=0.003474633333333333
EXTRACT: note_on channel=8 note=47 velocity=0 time=0.013898533333333333
EXTRACT: note_on channel=1 note=40 velocity=105 time=0.12856143333333334
EXTRACT: note_on channel=9 note=36 velocity=124 time=0
EXTRACT: note_on channel=5 note=52 velocity=75 time=0.0017373166666666666
EXTRACT: note_on channel=5 note=67 velocity=61 time=0.0017373166666666666
EXTRACT: note_on channel=5 note=64 velocity=50 time=0.003474633333333333
EXTRACT: note_on channel=5 note=59 velocity=59 time=0
EXTRACT: note_on channel=8 note=64 velocity=50 time=0.0312717
EXTRACT: note_on channel=8 note=67 velocity=61 time=0.0017373166666666666
EXTRACT: note_on channel=8 note=52 velocity=75 time=0.0017373166666666666
EXTRACT: note_on channel=8 note=59 velocity=59 time=0.0017373166666666666
EXTRACT: note_on channel=9 note=36 velocity=0 time=0.022585116666666665
EXTRACT: note_on channel=3 note=67 velocity=79 time=0.7678939666666666
EXTRACT: note_on channel=6 note=52 velocity=91 time=0
EXTRACT: note_on channel=6 note=55 velocity=79 time=0
EXTRACT: note_on channel=6 note=48 velocity=93 time=0
EXTRACT: note_on channel=9 note=42 velocity=124 time=0
EXTRACT: note_on channel=9 note=54 velocity=127 time=0
EXTRACT: note_on channel=9 note=28 velocity=89 time=0
EXTRACT: note_on channel=6 note=48 velocity=0 time=0.0416956
EXTRACT: note_on channel=7 note=52 velocity=91 time=0.0017373166666666666
EXTRACT: note_on channel=7 note=55 velocity=79 time=0
EXTRACT: note_on channel=7 note=48 velocity=93 time=0
EXTRACT: note_on channel=6 note=52 velocity=0 time=0.0104239
EXTRACT: note_on channel=6 note=55 velocity=0 time=0.008686583333333333
EXTRACT: note_on channel=9 note=42 velocity=0 time=0.0017373166666666666
EXTRACT: note_on channel=9 note=28 velocity=0 time=0.006949266666666666
EXTRACT: note_on channel=9 note=54 velocity=0 time=0.006949266666666666
EXTRACT: note_on channel=7 note=48 velocity=0 time=0.006949266666666666
EXTRACT: note_on channel=7 note=52 velocity=0 time=0.012161216666666665
EXTRACT: note_on channel=7 note=55 velocity=0 time=0.008686583333333333
EXTRACT: note_on channel=3 note=67 velocity=0 time=0.02432243333333333
EXTRACT: note_on channel=1 note=40 velocity=0 time=0.03648365
EXTRACT: note_on channel=5 note=52 velocity=0 time=0.03995828333333333
EXTRACT: note_on channel=8 note=52 velocity=0 time=0.03995828333333333
EXTRACT: control_change channel=5 control=64 value=0 time=0.012161216666666665
EXTRACT: note_on channel=1 note=36 velocity=101 time=0.01911048333333333
EXTRACT: note_on channel=3 note=69 velocity=89 time=0
EXTRACT: note_on channel=9 note=36 velocity=116 time=0
EXTRACT: note_on channel=5 note=48 velocity=105 time=0.008686583333333333
EXTRACT: control_change channel=8 control=64 value=0 time=0.00521195
EXTRACT: note_on channel=8 note=48 velocity=105 time=0.02432243333333333
EXTRACT: note_on channel=9 note=36 velocity=0 time=0.017373166666666665
EXTRACT: note_on channel=5 note=59 velocity=0 time=0.022585116666666665
EXTRACT: note_on channel=1 note=36 velocity=0 time=0.00521195
EXTRACT: note_on channel=2 note=55 velocity=0 time=0.01911048333333333
EXTRACT: note_on channel=3 note=69 velocity=0 time=0.00521195
EXTRACT: note_on channel=2 note=59 velocity=0 time=0.00521195
EXTRACT: note_on channel=8 note=59 velocity=0 time=0.0017373166666666666
EXTRACT: note_on channel=5 note=48 velocity=0 time=0.012161216666666665
EXTRACT: note_on channel=2 note=52 velocity=0 time=0.003474633333333333
EXTRACT: note_on channel=2 note=40 velocity=0 time=0.00521195
EXTRACT: note_on channel=8 note=48 velocity=0 time=0.0208478
EXTRACT: note_on channel=5 note=64 velocity=0 time=0.04343291666666666
EXTRACT: note_on channel=8 note=64 velocity=0 time=0.0312717
EXTRACT: note_on channel=5 note=47 velocity=79 time=0.04517023333333333
EXTRACT: note_on channel=1 note=35 velocity=101 time=0.0017373166666666666
EXTRACT: note_on channel=3 note=67 velocity=82 time=0
EXTRACT: note_on channel=9 note=36 velocity=124 time=0
EXTRACT: note_on channel=8 note=47 velocity=79 time=0.02953438333333333
EXTRACT: note_on channel=5 note=67 velocity=0 time=0.008686583333333333
EXTRACT: note_on channel=9 note=36 velocity=0 time=0.022585116666666665
EXTRACT: note_on channel=8 note=67 velocity=0 time=0.013898533333333333
EXTRACT: note_on channel=1 note=35 velocity=0 time=0.006949266666666666
EXTRACT: note_on channel=3 note=67 velocity=0 time=0.01563585
EXTRACT: note_on channel=5 note=47 velocity=0 time=0.012161216666666665
EXTRACT: note_on channel=8 note=47 velocity=0 time=0.0312717
EXTRACT: note_on channel=5 note=64 velocity=85 time=0.13029875
EXTRACT: note_on channel=15 note=55 velocity=0 time=0.006949266666666666
EXTRACT: note_on channel=15 note=52 velocity=0 time=0
EXTRACT: note_on channel=15 note=59 velocity=0 time=0
EXTRACT: note_on channel=1 note=33 velocity=107 time=0
EXTRACT: note_on channel=2 note=45 velocity=45 time=0
EXTRACT: note_on channel=2 note=52 velocity=50 time=0
EXTRACT: note_on channel=2 note=57 velocity=42 time=0
EXTRACT: note_on channel=2 note=60 velocity=82 time=0
EXTRACT: note_on channel=2 note=64 velocity=46 time=0
EXTRACT: note_on channel=3 note=69 velocity=103 time=0
EXTRACT: note_on channel=4 note=72 velocity=51 time=0
EXTRACT: note_on channel=4 note=64 velocity=42 time=0
EXTRACT: note_on channel=4 note=69 velocity=77 time=0
EXTRACT: note_on channel=9 note=36 velocity=119 time=0
EXTRACT: note_on channel=15 note=64 velocity=1 time=0
EXTRACT: note_on channel=15 note=57 velocity=1 time=0
EXTRACT: note_on channel=15 note=60 velocity=1 time=0
EXTRACT: note_on channel=5 note=45 velocity=94 time=0.006949266666666666
EXTRACT: note_on channel=8 note=45 velocity=94 time=0.03474633333333333
EXTRACT: note_on channel=8 note=64 velocity=85 time=0.0017373166666666666
EXTRACT: control_change channel=5 control=64 value=127 time=0.013898533333333333
EXTRACT: note_on channel=9 note=36 velocity=0 time=0.012161216666666665
EXTRACT: control_change channel=8 control=64 value=127 time=0.0104239
EXTRACT: note_on channel=5 note=52 velocity=81 time=0.47949939999999996
EXTRACT: note_on channel=3 note=69 velocity=0 time=0.017373166666666665
EXTRACT: note_on channel=8 note=52 velocity=81 time=0.006949266666666666
EXTRACT: note_on channel=4 note=69 velocity=0 time=0.02432243333333333
EXTRACT: note_on channel=4 note=64 velocity=0 time=0.0208478
EXTRACT: note_on channel=4 note=72 velocity=0 time=0.0017373166666666666
EXTRACT: note_on channel=3 note=69 velocity=103 time=0.20326604999999998
EXTRACT: note_on channel=4 note=72 velocity=65 time=0
EXTRACT: note_on channel=4 note=69 velocity=76 time=0
EXTRACT: note_on channel=4 note=64 velocity=35 time=0
EXTRACT: note_on channel=6 note=52 velocity=105 time=0
EXTRACT: note_on channel=6 note=48 velocity=109 time=0
EXTRACT: note_on channel=6 note=55 velocity=94 time=0
EXTRACT: note_on channel=9 note=42 velocity=122 time=0
EXTRACT: note_on channel=9 note=54 velocity=124 time=0
EXTRACT: note_on channel=9 note=28 velocity=89 time=0
EXTRACT: note_on channel=5 note=60 velocity=94 time=0.003474633333333333
EXTRACT: note_on channel=8 note=60 velocity=94 time=0.03474633333333333
EXTRACT: note_on channel=7 note=52 velocity=105 time=0.00521195
EXTRACT: note_on channel=7 note=48 velocity=109 time=0
EXTRACT: note_on channel=7 note=55 velocity=94 time=0
EXTRACT: note_on channel=6 note=52 velocity=0 time=0.003474633333333333
EXTRACT: note_on channel=6 note=55 velocity=0 time=0.003474633333333333
EXTRACT: note_on channel=6 note=48 velocity=0 time=0
EXTRACT: note_on channel=9 note=42 velocity=0 time=0.00521195
EXTRACT: note_on channel=9 note=54 velocity=0 time=0.01911048333333333
EXTRACT: note_on channel=9 note=28 velocity=0 time=0.008686583333333333
EXTRACT: note_on channel=7 note=52 velocity=0 time=0.006949266666666666
EXTRACT: note_on channel=7 note=48 velocity=0 time=0.003474633333333333
EXTRACT: note_on channel=7 note=55 velocity=0 time=0
EXTRACT: note_on channel=1 note=33 velocity=0 time=0.15288386666666665
EXTRACT: note_on channel=3 note=69 velocity=0 time=0.1876302
EXTRACT: note_on channel=4 note=64 velocity=0 time=0.03474633333333333
EXTRACT: note_on channel=4 note=69 velocity=0 time=0
EXTRACT: note_on channel=4 note=72 velocity=0 time=0.03822096666666666
EXTRACT: note_on channel=1 note=28 velocity=112 time=0.04864486666666666
EXTRACT: note_on channel=5 note=64 velocity=0 time=0.0017373166666666666
EXTRACT: note_on channel=5 note=57 velocity=58 time=0
EXTRACT: note_on channel=8 note=57 velocity=58 time=0.03648365
EXTRACT: note_on channel=8 note=64 velocity=0 time=0.013898533333333333
EXTRACT: note_on channel=1 note=28 velocity=0 time=0.04517023333333333
EXTRACT: note_on channel=5 note=45 velocity=0 time=0.04690755
EXTRACT: note_on channel=8 note=45 velocity=0 time=0.03474633333333333
EXTRACT: note_on channel=5 note=64 velocity=94 time=0.09207778333333333
EXTRACT: note_on channel=1 note=33 velocity=114 time=0.006949266666666666
EXTRACT: note_on channel=9 note=36 velocity=124 time=0
EXTRACT: note_on channel=5 note=45 velocity=93 time=0.0017373166666666666
EXTRACT: note_on channel=5 note=60 velocity=0 time=0.027797066666666665
EXTRACT: note_on channel=8 note=45 velocity=93 time=0.008686583333333333
EXTRACT: note_on channel=8 note=64 velocity=94 time=0.00521195
EXTRACT: note_on channel=8 note=60 velocity=0 time=0.0208478
EXTRACT: note_on channel=9 note=36 velocity=0 time=0.0017373166666666666
EXTRACT: note_on channel=5 note=57 velocity=0 time=0.03474633333333333
EXTRACT: note_on channel=5 note=52 velocity=0 time=0.017373166666666665
EXTRACT: note_on channel=8 note=57 velocity=0 time=0.01911048333333333
EXTRACT: note_on channel=8 note=52 velocity=0 time=0.00521195
EXTRACT: note_on channel=3 note=69 velocity=91 time=0.12682411666666665
EXTRACT: note_on channel=3 note=69 velocity=0 time=0.07817924999999999
EXTRACT: note_on channel=3 note=69 velocity=89 time=0.208478
EXTRACT: note_on channel=5 note=57 velocity=77 time=0.003474633333333333
EXTRACT: note_on channel=8 note=57 velocity=77 time=0.03995828333333333
EXTRACT: note_on channel=3 note=69 velocity=0 time=0.027797066666666665
EXTRACT: note_on channel=2 note=52 velocity=0 time=0.027797066666666665
EXTRACT: note_on channel=2 note=45 velocity=0 time=0.0208478
EXTRACT: note_on channel=2 note=64 velocity=0 time=0.08860314999999999
EXTRACT: control_change channel=5 control=64 value=0 time=0.008686583333333333
EXTRACT: note_on channel=2 note=60 velocity=0 time=0.022585116666666665
EXTRACT: control_change channel=8 control=64 value=0 time=0.0017373166666666666
EXTRACT: note_on channel=5 note=45 velocity=0 time=0.006949266666666666
EXTRACT: note_on channel=2 note=57 velocity=0 time=0.017373166666666665
EXTRACT: note_on channel=5 note=60 velocity=101 time=0.008686583333333333
EXTRACT: note_on channel=1 note=31 velocity=107 time=0.003474633333333333
EXTRACT: note_on channel=2 note=43 velocity=91 time=0
EXTRACT: note_on channel=3 note=69 velocity=94 time=0
EXTRACT: note_on channel=5 note=43 velocity=81 time=0
EXTRACT: note_on channel=6 note=52 velocity=91 time=0
EXTRACT: note_on channel=6 note=55 velocity=79 time=0
EXTRACT: note_on channel=6 note=48 velocity=93 time=0
EXTRACT: note_on channel=9 note=42 velocity=124 time=0
EXTRACT: note_on channel=9 note=54 velocity=127 time=0
EXTRACT: note_on channel=9 note=28 velocity=89 time=0
EXTRACT: note_on channel=8 note=45 velocity=0 time=0.006949266666666666
EXTRACT: note_on channel=1 note=33 velocity=0 time=0.006949266666666666
EXTRACT: note_on channel=8 note=60 velocity=101 time=0.0208478
EXTRACT: note_on channel=6 note=48 velocity=0 time=0.006949266666666666
EXTRACT: note_on channel=8 note=43 velocity=81 time=0
EXTRACT: note_on channel=7 note=52 velocity=91 time=0.0017373166666666666
EXTRACT: note_on channel=7 note=55 velocity=79 time=0
EXTRACT: note_on channel=7 note=48 velocity=93 time=0
EXTRACT: note_on channel=6 note=52 velocity=0 time=0.0104239
EXTRACT: note_on channel=6 note=55 velocity=0 time=0.008686583333333333
EXTRACT: note_on channel=9 note=42 velocity=0 time=0.0017373166666666666
EXTRACT: note_on channel=9 note=28 velocity=0 time=0.006949266666666666
EXTRACT: note_on channel=5 note=57 velocity=0 time=0.00521195
EXTRACT: note_on channel=9 note=54 velocity=0 time=0.0017373166666666666
EXTRACT: note_on channel=7 note=48 velocity=0 time=0.006949266666666666
EXTRACT: note_on channel=7 note=52 velocity=0 time=0.012161216666666665
EXTRACT: note_on channel=3 note=69 velocity=0 time=0
EXTRACT: note_on channel=7 note=55 velocity=0 time=0.008686583333333333
EXTRACT: control_change channel=5 control=64 value=125 time=0
EXTRACT: note_on channel=8 note=57 velocity=0 time=0.0104239
EXTRACT: control_change channel=8 control=64 value=125 time=0.012161216666666665
EXTRACT: note_on channel=5 note=64 velocity=0 time=0.003474633333333333
EXTRACT: note_on channel=8 note=64 velocity=0 time=0.05038218333333333
EXTRACT: note_on channel=3 note=67 velocity=94 time=0.09555241666666667
EXTRACT: note_on channel=3 note=67 velocity=0 time=0.10945094999999999
EXTRACT: note_on channel=3 note=64 velocity=81 time=0.16851971666666665
EXTRACT: note_on channel=4 note=60 velocity=56 time=0
EXTRACT: note_on channel=4 note=64 velocity=89 time=0
EXTRACT: note_on channel=5 note=57 velocity=67 time=0.003474633333333333
EXTRACT: note_on channel=8 note=57 velocity=67 time=0.02605975
EXTRACT: note_on channel=3 note=64 velocity=0 time=0.05906876666666666
EXTRACT: note_on channel=5 note=60 velocity=0 time=0.017373166666666665
EXTRACT: note_on channel=8 note=60 velocity=0 time=0.03822096666666666
EXTRACT: note_on channel=2 note=43 velocity=0 time=0.0312717
EXTRACT: control_change channel=5 control=64 value=0 time=0.0208478
EXTRACT: note_on channel=5 note=43 velocity=0 time=0.0017373166666666666
EXTRACT: note_on channel=4 note=60 velocity=0 time=0.012161216666666665
EXTRACT: control_change channel=8 control=64 value=0 time=0.013898533333333333
EXTRACT: note_on channel=4 note=64 velocity=0 time=0.00521195
EXTRACT: note_on channel=8 note=43 velocity=0 time=0.0104239
EXTRACT: note_on channel=5 note=41 velocity=91 time=0.03474633333333333
EXTRACT: note_on channel=15 note=60 velocity=0 time=0.003474633333333333
EXTRACT: note_on channel=15 note=64 velocity=0 time=0
EXTRACT: note_on channel=15 note=57 velocity=0 time=0
EXTRACT: note_on channel=1 note=29 velocity=89 time=0
EXTRACT: note_on channel=2 note=57 velocity=62 time=0
EXTRACT: note_on channel=2 note=60 velocity=77 time=0
EXTRACT: note_on channel=2 note=53 velocity=98 time=0
EXTRACT: note_on channel=2 note=41 velocity=81 time=0
EXTRACT: note_on channel=3 note=65 velocity=96 time=0
EXTRACT: note_on channel=4 note=65 velocity=85 time=0
EXTRACT: note_on channel=4 note=62 velocity=75 time=0
EXTRACT: note_on channel=9 note=36 velocity=119 time=0
EXTRACT: note_on channel=15 note=53 velocity=1 time=0
EXTRACT: note_on channel=15 note=57 velocity=1 time=0
EXTRACT: note_on channel=15 note=60 velocity=1 time=0
EXTRACT: note_on channel=1 note=31 velocity=0 time=0.003474633333333333
EXTRACT: note_on channel=5 note=53 velocity=105 time=0
EXTRACT: note_on channel=5 note=57 velocity=0 time=0.00521195
EXTRACT: control_change channel=5 control=64 value=127 time=0.012161216666666665
EXTRACT: note_on channel=8 note=53 velocity=105 time=0.0104239
EXTRACT: note_on channel=8 note=57 velocity=0 time=0.003474633333333333
EXTRACT: note_on channel=8 note=41 velocity=91 time=0.0017373166666666666
EXTRACT: control_change channel=8 control=64 value=127 time=0.01911048333333333
EXTRACT: note_on channel=9 note=36 velocity=0 time=0.013898533333333333
EXTRACT: note_on channel=5 note=57 velocity=76 time=0.20152873333333332
EXTRACT: note_on channel=8 note=57 velocity=76 time=0.05038218333333333
EXTRACT: note_on channel=4 note=65 velocity=0 time=0.20152873333333332
EXTRACT: note_on channel=3 note=65 velocity=0 time=0.017373166666666665
EXTRACT: note_on channel=4 note=62 velocity=0 time=0.0017373166666666666
EXTRACT: note_on channel=3 note=64 velocity=81 time=0.013898533333333333
EXTRACT: note_on channel=4 note=64 velocity=68 time=0
EXTRACT: note_on channel=4 note=60 velocity=61 time=0
EXTRACT: note_on channel=5 note=60 velocity=96 time=0.0017373166666666666
EXTRACT: note_on channel=8 note=60 velocity=96 time=0.03474633333333333
EXTRACT: note_on channel=1 note=29 velocity=0 time=0.11118826666666666
EXTRACT: note_on channel=5 note=53 velocity=0 time=0.022585116666666665
EXTRACT: note_on channel=5 note=57 velocity=0 time=0.02605975
EXTRACT: note_on channel=8 note=53 velocity=0 time=0.0017373166666666666
EXTRACT: note_on channel=3 note=64 velocity=0 time=0.017373166666666665
EXTRACT: note_on channel=5 note=60 velocity=0 time=0.0208478
EXTRACT: note_on channel=8 note=57 velocity=0 time=0.0104239
EXTRACT: note_on channel=4 note=60 velocity=0 time=0.017373166666666665
EXTRACT: note_on channel=8 note=60 velocity=0 time=0.006949266666666666
EXTRACT: note_on channel=1 note=29 velocity=103 time=0.006949266666666666
EXTRACT: note_on channel=3 note=65 velocity=94 time=0
EXTRACT: note_on channel=4 note=65 velocity=87 time=0
EXTRACT: note_on channel=4 note=62 velocity=77 time=0
EXTRACT: note_on channel=6 note=52 velocity=105 time=0
EXTRACT: note_on channel=6 note=48 velocity=109 time=0
EXTRACT: note_on channel=6 note=55 velocity=94 time=0
EXTRACT: note_on channel=9 note=42 velocity=122 time=0
EXTRACT: note_on channel=9 note=54 velocity=124 time=0
EXTRACT: note_on channel=9 note=28 velocity=89 time=0
EXTRACT: note_on channel=5 note=53 velocity=101 time=0.0017373166666666666
EXTRACT: note_on channel=4 note=64 velocity=0 time=0.0104239
EXTRACT: note_on channel=8 note=53 velocity=101 time=0.0208478
EXTRACT: note_on channel=7 note=52 velocity=105 time=0.0104239
EXTRACT: note_on channel=7 note=48 velocity=109 time=0
EXTRACT: note_on channel=7 note=55 velocity=94 time=0
EXTRACT: note_on channel=6 note=52 velocity=0 time=0.003474633333333333
EXTRACT: note_on channel=6 note=55 velocity=0 time=0.003474633333333333
EXTRACT: note_on channel=6 note=48 velocity=0 time=0
EXTRACT: note_on channel=9 note=42 velocity=0 time=0.00521195
EXTRACT: note_on channel=9 note=54 velocity=0 time=0.01911048333333333
EXTRACT: note_on channel=9 note=28 velocity=0 time=0.008686583333333333
EXTRACT: note_on channel=7 note=52 velocity=0 time=0.006949266666666666
EXTRACT: note_on channel=7 note=48 velocity=0 time=0.003474633333333333
EXTRACT: note_on channel=7 note=55 velocity=0 time=0
EXTRACT: note_on channel=5 note=57 velocity=76 time=0.18068093333333332
EXTRACT: note_on channel=8 note=57 velocity=76 time=0.04517023333333333
EXTRACT: note_on channel=4 note=65 velocity=0 time=0.18936751666666665
EXTRACT: note_on channel=4 note=62 velocity=0 time=0.02605975
EXTRACT: note_on channel=3 note=65 velocity=0 time=0.008686583333333333
EXTRACT: note_on channel=3 note=64 velocity=82 time=0.012161216666666665
EXTRACT: note_on channel=4 note=64 velocity=75 time=0
EXTRACT: note_on channel=4 note=60 velocity=68 time=0
EXTRACT: note_on channel=5 note=60 velocity=89 time=0
EXTRACT: note_on channel=8 note=60 velocity=89 time=0.0416956
EXTRACT: note_on channel=5 note=57 velocity=0 time=0.008686583333333333
EXTRACT: note_on channel=8 note=57 velocity=0 time=0.04517023333333333
EXTRACT: note_on channel=1 note=29 velocity=0 time=0.02605975
EXTRACT: note_on channel=5 note=53 velocity=0 time=0.0208478
EXTRACT: note_on channel=5 note=60 velocity=0 time=0.02605975
EXTRACT: note_on channel=8 note=53 velocity=0 time=0.00521195
EXTRACT: note_on channel=4 note=60 velocity=0 time=0.03300901666666666
EXTRACT: note_on channel=8 note=60 velocity=0 time=0.003474633333333333
EXTRACT: note_on channel=4 note=64 velocity=0 time=0.0208478
EXTRACT: note_on channel=3 note=64 velocity=0 time=0.03300901666666666
EXTRACT: note_on channel=1 note=29 velocity=107 time=0.013898533333333333
EXTRACT: note_on channel=3 note=67 velocity=98 time=0
EXTRACT: note_on channel=4 note=64 velocity=51 time=0
EXTRACT: note_on channel=4 note=67 velocity=64 time=0
EXTRACT: note_on channel=5 note=53 velocity=89 time=0
EXTRACT: note_on channel=9 note=36 velocity=124 time=0
EXTRACT: note_on channel=8 note=53 velocity=89 time=0.0416956
EXTRACT: note_on channel=9 note=36 velocity=0 time=0.02432243333333333
EXTRACT: note_on channel=5 note=57 velocity=79 time=0.22063921666666667
EXTRACT: note_on channel=8 note=57 velocity=79 time=0.02432243333333333
EXTRACT: pitchwheel channel=3 pitch=-1984 time=0.0833912
EXTRACT: pitchwheel channel=3 pitch=-2847 time=0.01563585
EXTRACT: pitchwheel channel=3 pitch=-777 time=0.017373166666666665
EXTRACT: pitchwheel channel=3 pitch=-1553 time=0.01563585
EXTRACT: pitchwheel channel=3 pitch=-2674 time=0.01563585
EXTRACT: pitchwheel channel=3 pitch=-6900 time=0
EXTRACT: pitchwheel channel=3 pitch=-4054 time=0.012161216666666665
EXTRACT: pitchwheel channel=3 pitch=-8108 time=0.003474633333333333
EXTRACT: pitchwheel channel=3 pitch=-5693 time=0.012161216666666665
EXTRACT: pitchwheel channel=3 pitch=-7418 time=0.01563585
EXTRACT: pitchwheel channel=3 pitch=-8192 time=0.01563585
EXTRACT: note_on channel=5 note=60 velocity=91 time=0.04690755
EXTRACT: pitchwheel channel=3 pitch=1466 time=0.017373166666666665
EXTRACT: note_on channel=4 note=64 velocity=0 time=0.003474633333333333
EXTRACT: pitchwheel channel=3 pitch=0 time=0.0017373166666666666
EXTRACT: note_on channel=8 note=60 velocity=91 time=0
EXTRACT: pitchwheel channel=3 pitch=0 time=0.0104239
EXTRACT: note_on channel=3 note=67 velocity=0 time=0.03648365
EXTRACT: note_on channel=4 note=67 velocity=0 time=0.003474633333333333
EXTRACT: note_on channel=3 note=67 velocity=91 time=0.05559413333333333
EXTRACT: note_on channel=1 note=29 velocity=0 time=0.006949266666666666
EXTRACT: note_on channel=3 note=67 velocity=0 time=0.04690755
EXTRACT: note_on channel=1 note=29 velocity=101 time=0.08686583333333332
EXTRACT: note_on channel=3 note=67 velocity=93 time=0
EXTRACT: note_on channel=6 note=52 velocity=91 time=0
EXTRACT: note_on channel=6 note=55 velocity=79 time=0
EXTRACT: note_on channel=6 note=48 velocity=93 time=0
EXTRACT: note_on channel=9 note=42 velocity=124 time=0
EXTRACT: note_on channel=9 note=54 velocity=127 time=0
EXTRACT: note_on channel=9 note=28 velocity=89 time=0
EXTRACT: note_on channel=5 note=64 velocity=91 time=0.006949266666666666
EXTRACT: note_on channel=6 note=48 velocity=0 time=0.03474633333333333
EXTRACT: note_on channel=8 note=64 velocity=91 time=0
EXTRACT: note_on channel=7 note=52 velocity=91 time=0.0017373166666666666
EXTRACT: note_on channel=7 note=55 velocity=79 time=0
EXTRACT: note_on channel=7 note=48 velocity=93 time=0
EXTRACT: note_on channel=6 note=52 velocity=0 time=0.0104239
EXTRACT: note_on channel=5 note=57 velocity=0 time=0.00521195
EXTRACT: note_on channel=6 note=55 velocity=0 time=0.003474633333333333
EXTRACT: note_on channel=9 note=42 velocity=0 time=0.0017373166666666666
EXTRACT: note_on channel=9 note=28 velocity=0 time=0.006949266666666666
EXTRACT: note_on channel=9 note=54 velocity=0 time=0.006949266666666666
EXTRACT: note_on channel=5 note=60 velocity=0 time=0.0017373166666666666
EXTRACT: note_on channel=8 note=57 velocity=0 time=0.003474633333333333
EXTRACT: note_on channel=7 note=48 velocity=0 time=0.0017373166666666666
EXTRACT: note_on channel=7 note=52 velocity=0 time=0.012161216666666665
EXTRACT: note_on channel=8 note=60 velocity=0 time=0.00521195
EXTRACT: note_on channel=7 note=55 velocity=0 time=0.003474633333333333
EXTRACT: note_on channel=3 note=67 velocity=0 time=0.09555241666666667
EXTRACT: note_on channel=1 note=29 velocity=0 time=0.07122998333333333
EXTRACT: note_on channel=1 note=31 velocity=101 time=0.00521195
EXTRACT: note_on channel=3 note=69 velocity=96 time=0
EXTRACT: note_on channel=9 note=36 velocity=116 time=0
EXTRACT: note_on channel=5 note=60 velocity=98 time=0.003474633333333333
EXTRACT: note_on channel=5 note=64 velocity=0 time=0.0208478
EXTRACT: note_on channel=8 note=60 velocity=98 time=0.003474633333333333
EXTRACT: note_on channel=9 note=36 velocity=0 time=0.027797066666666665
EXTRACT: note_on channel=8 note=64 velocity=0 time=0.003474633333333333
EXTRACT: note_on channel=3 note=69 velocity=0 time=0.08860314999999999
EXTRACT: note_on channel=2 note=60 velocity=0 time=0.013898533333333333
EXTRACT: note_on channel=2 note=57 velocity=0 time=0.01911048333333333
EXTRACT: note_on channel=2 note=53 velocity=0 time=0.05385681666666666
EXTRACT: note_on channel=1 note=31 velocity=0 time=0.0208478
EXTRACT: note_on channel=2 note=41 velocity=0 time=0.0104239
EXTRACT: note_on channel=1 note=33 velocity=112 time=0.012161216666666665
EXTRACT: note_on channel=3 note=72 velocity=94 time=0
EXTRACT: note_on channel=5 note=57 velocity=79 time=0
EXTRACT: note_on channel=9 note=36 velocity=124 time=0
EXTRACT: note_on channel=5 note=60 velocity=0 time=0.02432243333333333
EXTRACT: note_on channel=8 note=57 velocity=79 time=0.006949266666666666
EXTRACT: note_on channel=8 note=60 velocity=0 time=0.017373166666666665
EXTRACT: note_on channel=9 note=36 velocity=0 time=0.012161216666666665
EXTRACT: note_on channel=3 note=72 velocity=0 time=0.08512851666666667
EXTRACT: control_change channel=5 control=64 value=0 time=0.0104239
EXTRACT: control_change channel=8 control=64 value=0 time=0.03822096666666666
EXTRACT: note_on channel=1 note=33 velocity=0 time=0.0416956
EXTRACT: note_on channel=5 note=57 velocity=0 time=0.008686583333333333
EXTRACT: note_on channel=5 note=41 velocity=0 time=0.013898533333333333
EXTRACT: note_on channel=5 note=55 velocity=68 time=0.013898533333333333
EXTRACT: note_on channel=5 note=64 velocity=62 time=0
EXTRACT: note_on channel=8 note=57 velocity=0 time=0.003474633333333333
EXTRACT: note_on channel=5 note=52 velocity=79 time=0
EXTRACT: note_on channel=15 note=60 velocity=0 time=0.0017373166666666666
EXTRACT: note_on channel=15 note=53 velocity=0 time=0
EXTRACT: note_on channel=15 note=57 velocity=0 time=0
EXTRACT: note_on channel=1 note=36 velocity=105 time=0
EXTRACT: note_on channel=2 note=48 velocity=72 time=0
EXTRACT: note_on channel=2 note=55 velocity=64 time=0
EXTRACT: note_on channel=2 note=60 velocity=77 time=0
EXTRACT: note_on channel=2 note=64 velocity=65 time=0
EXTRACT: note_on channel=3 note=72 velocity=109 time=0
EXTRACT: note_on channel=4 note=64 velocity=84 time=0
EXTRACT: note_on channel=4 note=67 velocity=81 time=0
EXTRACT: note_on channel=5 note=60 velocity=77 time=0
EXTRACT: note_on channel=9 note=36 velocity=119 time=0
EXTRACT: note_on channel=15 note=64 velocity=1 time=0
EXTRACT: note_on channel=15 note=60 velocity=1 time=0
EXTRACT: note_on channel=15 note=67 velocity=1 time=0
EXTRACT: note_on channel=5 note=48 velocity=84 time=0.0017373166666666666
EXTRACT: note_on channel=5 note=53 velocity=0 time=0.00521195
EXTRACT: note_on channel=8 note=41 velocity=0 time=0.013898533333333333
EXTRACT: note_on channel=8 note=64 velocity=62 time=0.006949266666666666
EXTRACT: note_on channel=8 note=60 velocity=77 time=0.003474633333333333
EXTRACT: note_on channel=8 note=48 velocity=84 time=0
EXTRACT: note_on channel=8 note=55 velocity=68 time=0.006949266666666666
EXTRACT: note_on channel=8 note=52 velocity=79 time=0.0017373166666666666
EXTRACT: note_on channel=8 note=53 velocity=0 time=0.008686583333333333
EXTRACT: note_on channel=9 note=36 velocity=0 time=0.0208478
EXTRACT: note_on channel=4 note=64 velocity=0 time=0.5924249833333333
EXTRACT: note_on channel=4 note=67 velocity=0 time=0.013898533333333333
EXTRACT: note_on channel=5 note=52 velocity=0 time=0.06080608333333333
EXTRACT: note_on channel=8 note=52 velocity=0 time=0.0416956
EXTRACT: note_on channel=5 note=48 velocity=0 time=0.012161216666666665
EXTRACT: note_on channel=3 note=72 velocity=0 time=0.0017373166666666666
EXTRACT: note_on channel=8 note=48 velocity=0 time=0.027797066666666665
EXTRACT: note_on channel=3 note=67 velocity=112 time=0.013898533333333333
EXTRACT: note_on channel=4 note=60 velocity=89 time=0
EXTRACT: note_on channel=4 note=64 velocity=87 time=0
EXTRACT: note_on channel=5 note=48 velocity=79 time=0
EXTRACT: note_on channel=6 note=52 velocity=105 time=0
EXTRACT: note_on channel=6 note=48 velocity=109 time=0
EXTRACT: note_on channel=6 note=55 velocity=94 time=0
EXTRACT: note_on channel=9 note=42 velocity=122 time=0
EXTRACT: note_on channel=9 note=54 velocity=124 time=0
EXTRACT: note_on channel=9 note=28 velocity=89 time=0
EXTRACT: note_on channel=7 note=52 velocity=105 time=0.04343291666666666
EXTRACT: note_on channel=7 note=48 velocity=109 time=0
EXTRACT: note_on channel=7 note=55 velocity=94 time=0
EXTRACT: note_on channel=8 note=48 velocity=79 time=0
EXTRACT: note_on channel=6 note=52 velocity=0 time=0.003474633333333333
EXTRACT: note_on channel=6 note=55 velocity=0 time=0.003474633333333333
EXTRACT: note_on channel=6 note=48 velocity=0 time=0
EXTRACT: note_on channel=9 note=42 velocity=0 time=0.00521195
EXTRACT: note_on channel=5 note=48 velocity=0 time=0.012161216666666665
EXTRACT: note_on channel=9 note=54 velocity=0 time=0.006949266666666666
EXTRACT: note_on channel=9 note=28 velocity=0 time=0.008686583333333333
EXTRACT: note_on channel=7 note=52 velocity=0 time=0.006949266666666666
EXTRACT: note_on channel=7 note=48 velocity=0 time=0.003474633333333333
EXTRACT: note_on channel=7 note=55 velocity=0 time=0
EXTRACT: note_on channel=8 note=48 velocity=0 time=0.017373166666666665
EXTRACT: note_on channel=1 note=36 velocity=0 time=0.14245996666666666
EXTRACT: pitchwheel channel=3 pitch=-1294 time=0.006949266666666666
EXTRACT: note_on channel=5 note=48 velocity=94 time=0.012161216666666665
EXTRACT: pitchwheel channel=3 pitch=-3882 time=0.003474633333333333
EXTRACT: note_on channel=3 note=67 velocity=0 time=0.013898533333333333
EXTRACT: pitchwheel channel=3 pitch=-6469 time=0.0017373166666666666
EXTRACT: pitchwheel channel=3 pitch=-6900 time=0.01563585
EXTRACT: note_on channel=8 note=48 velocity=94 time=0.003474633333333333
EXTRACT: pitchwheel channel=3 pitch=-2847 time=0.012161216666666665
EXTRACT: pitchwheel channel=3 pitch=1293 time=0.017373166666666665
EXTRACT: pitchwheel channel=3 pitch=0 time=0.01563585
EXTRACT: note_on channel=4 note=64 velocity=0 time=0.06949266666666666
EXTRACT: note_on channel=4 note=60 velocity=0 time=0.03648365
EXTRACT: note_on channel=5 note=55 velocity=0 time=0.006949266666666666
EXTRACT: note_on channel=5 note=64 velocity=0 time=0.03648365
EXTRACT: note_on channel=5 note=48 velocity=0 time=0.006949266666666666
EXTRACT: note_on channel=8 note=55 velocity=0 time=0
EXTRACT: note_on channel=5 note=60 velocity=0 time=0.022585116666666665
EXTRACT: note_on channel=8 note=64 velocity=0 time=0.003474633333333333
EXTRACT: note_on channel=8 note=48 velocity=0 time=0.012161216666666665
EXTRACT: note_on channel=5 note=65 velocity=84 time=0.0017373166666666666
EXTRACT: note_on channel=5 note=60 velocity=84 time=0.0017373166666666666
EXTRACT: note_on channel=1 note=31 velocity=103 time=0.0017373166666666666
EXTRACT: note_on channel=9 note=36 velocity=119 time=0
EXTRACT: note_on channel=5 note=53 velocity=93 time=0.003474633333333333
EXTRACT: note_on channel=8 note=60 velocity=0 time=0.006949266666666666
EXTRACT: note_on channel=8 note=60 velocity=84 time=0.022585116666666665
EXTRACT: note_on channel=8 note=65 velocity=84 time=0
EXTRACT: note_on channel=8 note=53 velocity=93 time=0.0104239
EXTRACT: note_on channel=9 note=36 velocity=0 time=0.022585116666666665
EXTRACT: note_on channel=5 note=53 velocity=0 time=0.05038218333333333
EXTRACT: note_on channel=1 note=31 velocity=0 time=0.013898533333333333
EXTRACT: note_on channel=8 note=53 velocity=0 time=0.02605975
EXTRACT: note_on channel=5 note=60 velocity=0 time=0.0017373166666666666
EXTRACT: note_on channel=5 note=65 velocity=0 time=0.0104239
EXTRACT: note_on channel=8 note=60 velocity=0 time=0.02432243333333333
EXTRACT: note_on channel=8 note=65 velocity=0 time=0.012161216666666665
EXTRACT: note_on channel=1 note=36 velocity=112 time=0.0729673
EXTRACT: note_on channel=9 note=36 velocity=124 time=0
EXTRACT: note_on channel=5 note=60 velocity=79 time=0.0017373166666666666
EXTRACT: note_on channel=5 note=64 velocity=67 time=0
EXTRACT: note_on channel=5 note=48 velocity=89 time=0
EXTRACT: note_on channel=5 note=55 velocity=64 time=0.003474633333333333
EXTRACT: note_on channel=8 note=55 velocity=64 time=0.02432243333333333
EXTRACT: note_on channel=8 note=60 velocity=79 time=0.006949266666666666
EXTRACT: note_on channel=8 note=64 velocity=67 time=0.0017373166666666666
EXTRACT: note_on channel=8 note=48 velocity=89 time=0.00521195
EXTRACT: note_on channel=9 note=36 velocity=0 time=0.022585116666666665
EXTRACT: note_on channel=3 note=64 velocity=62 time=0.19457946666666665
EXTRACT: note_on channel=3 note=64 velocity=0 time=0.09902704999999999
EXTRACT: note_on channel=3 note=64 velocity=72 time=0.14419728333333331
EXTRACT: note_on channel=3 note=64 velocity=0 time=0.10945094999999999
EXTRACT: note_on channel=2 note=55 velocity=0 time=0.17894361666666667
EXTRACT: note_on channel=3 note=67 velocity=82 time=0.012161216666666665
EXTRACT: note_on channel=2 note=48 velocity=0 time=0.0208478
EXTRACT: note_on channel=6 note=52 velocity=91 time=0.008686583333333333
EXTRACT: note_on channel=6 note=55 velocity=79 time=0
EXTRACT: note_on channel=6 note=48 velocity=93 time=0
EXTRACT: note_on channel=9 note=42 velocity=124 time=0
EXTRACT: note_on channel=9 note=54 velocity=127 time=0
EXTRACT: note_on channel=9 note=28 velocity=89 time=0
EXTRACT: note_on channel=1 note=36 velocity=0 time=0.03995828333333333
EXTRACT: note_on channel=6 note=48 velocity=0 time=0.0017373166666666666
EXTRACT: note_on channel=7 note=52 velocity=91 time=0.0017373166666666666
EXTRACT: note_on channel=7 note=55 velocity=79 time=0
EXTRACT: note_on channel=7 note=48 velocity=93 time=0
EXTRACT: note_on channel=6 note=52 velocity=0 time=0.0104239
EXTRACT: note_on channel=6 note=55 velocity=0 time=0.008686583333333333
EXTRACT: note_on channel=9 note=42 velocity=0 time=0.0017373166666666666
EXTRACT: note_on channel=9 note=28 velocity=0 time=0.006949266666666666
EXTRACT: note_on channel=9 note=54 velocity=0 time=0.006949266666666666
EXTRACT: note_on channel=7 note=48 velocity=0 time=0.006949266666666666
EXTRACT: note_on channel=7 note=52 velocity=0 time=0.012161216666666665
EXTRACT: note_on channel=3 note=67 velocity=0 time=0.006949266666666666
EXTRACT: note_on channel=7 note=55 velocity=0 time=0.0017373166666666666
EXTRACT: note_on channel=2 note=64 velocity=0 time=0.07470461666666667
EXTRACT: note_on channel=2 note=60 velocity=0 time=0.04343291666666666
EXTRACT: note_on channel=3 note=69 velocity=101 time=0
EXTRACT: note_on channel=5 note=48 velocity=0 time=0.04517023333333333
EXTRACT: note_on channel=1 note=38 velocity=112 time=0.008686583333333333
EXTRACT: note_on channel=5 note=50 velocity=69 time=0
EXTRACT: note_on channel=8 note=50 velocity=69 time=0.0312717
EXTRACT: note_on channel=8 note=48 velocity=0 time=0.0017373166666666666
EXTRACT: note_on channel=3 note=69 velocity=0 time=0.012161216666666665
EXTRACT: note_on channel=1 note=38 velocity=0 time=0.05559413333333333
EXTRACT: note_on channel=5 note=50 velocity=0 time=0.01563585
EXTRACT: note_on channel=8 note=50 velocity=0 time=0.0312717
EXTRACT: note_on channel=3 note=72 velocity=85 time=0.09555241666666667
EXTRACT: note_on channel=1 note=39 velocity=116 time=0.03474633333333333
EXTRACT: note_on channel=5 note=51 velocity=79 time=0.003474633333333333
EXTRACT: note_on channel=8 note=51 velocity=79 time=0.03300901666666666
EXTRACT: note_on channel=1 note=39 velocity=0 time=0.05733145
EXTRACT: note_on channel=5 note=51 velocity=0 time=0.02953438333333333
EXTRACT: note_on channel=3 note=72 velocity=0 time=0.003474633333333333
EXTRACT: note_on channel=5 note=55 velocity=0 time=0.02605975
EXTRACT: note_on channel=8 note=51 velocity=0 time=0.003474633333333333
EXTRACT: note_on channel=8 note=55 velocity=0 time=0.0208478
EXTRACT: note_on channel=5 note=60 velocity=0 time=0.0416956
EXTRACT: note_on channel=5 note=64 velocity=0 time=0.003474633333333333
EXTRACT: note_on channel=8 note=60 velocity=0 time=0.0312717
EXTRACT: note_on channel=8 note=64 velocity=0 time=0.00521195
EXTRACT: note_on channel=3 note=71 velocity=107 time=0.013898533333333333
EXTRACT: note_on channel=5 note=52 velocity=85 time=0
EXTRACT: note_on channel=15 note=67 velocity=0 time=0.00521195
EXTRACT: note_on channel=15 note=64 velocity=0 time=0
EXTRACT: note_on channel=15 note=60 velocity=0 time=0
EXTRACT: note_on channel=3 note=71 velocity=0 time=0.7505208
EXTRACT: note_on channel=5 note=52 velocity=0 time=0.7435715333333333
MUSIC03 - Meghan Trainor - Like I_m Gonna Lose You ft. John Legend.mid
INTERVALS03 - Meghan Trainor - Like I_m Gonna Lose You ft. John Legend.mid
unison0
2m0
2M0
3m0
3M0
4m0
4M0
5m0
5M0
6m0
7m0
7M0
