EXTRACT: sysex data=(126,127,9,1) time=0.10135124999999999
EXTRACT: sysex data=(65,16,66,18,64,0,127,0,65) time=0
EXTRACT: sysex data=(65,16,66,18,64,1,48,5,10) time=0.03378375
EXTRACT: control_change channel=0 control=7 value=100 time=0.7770262499999999
EXTRACT: control_change channel=0 control=10 value=64 time=0.00675675
EXTRACT: control_change channel=0 control=0 value=0 time=0
EXTRACT: control_change channel=0 control=32 value=0 time=0.003378375
EXTRACT: program_change channel=0 program=48 time=0.003378375
EXTRACT: control_change channel=0 control=91 value=50 time=0.00675675
EXTRACT: control_change channel=0 control=72 value=60 time=0.003378375
EXTRACT: control_change channel=0 control=93 value=25 time=0.003378375
EXTRACT: control_change channel=0 control=73 value=60 time=0.003378375
EXTRACT: control_change channel=1 control=7 value=120 time=0.003378375
EXTRACT: control_change channel=1 control=10 value=64 time=0.00675675
EXTRACT: control_change channel=1 control=0 value=0 time=0
EXTRACT: control_change channel=1 control=32 value=0 time=0.003378375
EXTRACT: program_change channel=1 program=33 time=0.003378375
EXTRACT: control_change channel=1 control=91 value=0 time=0.00675675
EXTRACT: control_change channel=1 control=93 value=0 time=0.00675675
EXTRACT: control_change channel=2 control=7 value=75 time=0.00675675
EXTRACT: control_change channel=2 control=10 value=64 time=0.00675675
EXTRACT: control_change channel=2 control=0 value=0 time=0
EXTRACT: control_change channel=2 control=32 value=0 time=0.003378375
EXTRACT: program_change channel=2 program=51 time=0.003378375
EXTRACT: control_change channel=2 control=91 value=45 time=0.00675675
EXTRACT: control_change channel=2 control=93 value=35 time=0.00675675
EXTRACT: control_change channel=3 control=7 value=115 time=0.00675675
EXTRACT: control_change channel=3 control=10 value=64 time=0.00675675
EXTRACT: control_change channel=3 control=0 value=0 time=0
EXTRACT: control_change channel=3 control=32 value=0 time=0.003378375
EXTRACT: program_change channel=3 program=26 time=0.003378375
EXTRACT: control_change channel=3 control=91 value=45 time=0.00675675
EXTRACT: control_change channel=3 control=93 value=0 time=0.00675675
EXTRACT: control_change channel=4 control=7 value=115 time=0.00675675
EXTRACT: control_change channel=4 control=10 value=64 time=0.00675675
EXTRACT: control_change channel=4 control=0 value=0 time=0
EXTRACT: control_change channel=4 control=32 value=0 time=0.003378375
EXTRACT: program_change channel=4 program=52 time=0.003378375
EXTRACT: control_change channel=4 control=91 value=45 time=0.00675675
EXTRACT: control_change channel=4 control=93 value=0 time=0.00675675
EXTRACT: control_change channel=5 control=7 value=100 time=0.00675675
EXTRACT: control_change channel=5 control=10 value=84 time=0.00675675
EXTRACT: control_change channel=5 control=0 value=0 time=0
EXTRACT: control_change channel=5 control=32 value=0 time=0.003378375
EXTRACT: program_change channel=5 program=27 time=0.003378375
EXTRACT: control_change channel=5 control=91 value=60 time=0.00675675
EXTRACT: control_change channel=5 control=93 value=25 time=0.00675675
EXTRACT: control_change channel=6 control=7 value=100 time=0.00675675
EXTRACT: control_change channel=6 control=10 value=60 time=0.00675675
EXTRACT: control_change channel=6 control=0 value=0 time=0
EXTRACT: control_change channel=6 control=32 value=0 time=0.003378375
EXTRACT: program_change channel=6 program=30 time=0.003378375
EXTRACT: control_change channel=6 control=91 value=40 time=0.00675675
EXTRACT: control_change channel=6 control=93 value=0 time=0.00675675
EXTRACT: control_change channel=7 control=7 value=110 time=0.00675675
EXTRACT: control_change channel=7 control=10 value=54 time=0.00675675
EXTRACT: control_change channel=7 control=0 value=0 time=0
EXTRACT: control_change channel=7 control=32 value=0 time=0.003378375
EXTRACT: program_change channel=7 program=42 time=0.003378375
EXTRACT: control_change channel=7 control=91 value=45 time=0.00675675
EXTRACT: control_change channel=7 control=93 value=10 time=0.00675675
EXTRACT: control_change channel=8 control=7 value=105 time=0.00675675
EXTRACT: control_change channel=8 control=10 value=48 time=0.00675675
EXTRACT: control_change channel=8 control=0 value=0 time=0
EXTRACT: control_change channel=8 control=32 value=0 time=0.003378375
EXTRACT: program_change channel=8 program=42 time=0.003378375
EXTRACT: control_change channel=8 control=91 value=65 time=0.00675675
EXTRACT: control_change channel=8 control=93 value=0 time=0.00675675
EXTRACT: control_change channel=9 control=7 value=120 time=0.00675675
EXTRACT: control_change channel=9 control=10 value=64 time=0.00675675
EXTRACT: control_change channel=9 control=0 value=0 time=0
EXTRACT: control_change channel=9 control=32 value=0 time=0.003378375
EXTRACT: program_change channel=9 program=0 time=0.003378375
EXTRACT: control_change channel=9 control=91 value=50 time=0.00675675
EXTRACT: control_change channel=9 control=93 value=0 time=0.00675675
EXTRACT: control_change channel=10 control=7 value=95 time=0.00675675
EXTRACT: control_change channel=10 control=10 value=64 time=0.00675675
EXTRACT: control_change channel=10 control=0 value=0 time=0
EXTRACT: control_change channel=10 control=32 value=0 time=0.003378375
EXTRACT: program_change channel=10 program=116 time=0.003378375
EXTRACT: control_change channel=10 control=91 value=60 time=0.00675675
EXTRACT: control_change channel=10 control=93 value=0 time=0.00675675
EXTRACT: control_change channel=10 control=72 value=50 time=0.003378375
EXTRACT: control_change channel=11 control=7 value=75 time=0.003378375
EXTRACT: control_change channel=11 control=10 value=64 time=0.00675675
EXTRACT: control_change channel=11 control=0 value=0 time=0
EXTRACT: control_change channel=11 control=32 value=0 time=0.003378375
EXTRACT: program_change channel=11 program=16 time=0.003378375
EXTRACT: control_change channel=11 control=91 value=60 time=0.00675675
EXTRACT: control_change channel=11 control=93 value=30 time=0.00675675
EXTRACT: control_change channel=12 control=7 value=110 time=0.00675675
EXTRACT: control_change channel=12 control=10 value=44 time=0.00675675
EXTRACT: control_change channel=12 control=0 value=0 time=0
EXTRACT: control_change channel=12 control=32 value=0 time=0.003378375
EXTRACT: program_change channel=12 program=118 time=0.003378375
EXTRACT: control_change channel=12 control=91 value=60 time=0.00675675
EXTRACT: control_change channel=12 control=93 value=0 time=0.00675675
EXTRACT: control_change channel=13 control=7 value=110 time=0.00675675
EXTRACT: control_change channel=13 control=10 value=64 time=0.00675675
EXTRACT: control_change channel=13 control=0 value=0 time=0
EXTRACT: control_change channel=13 control=32 value=0 time=0.003378375
EXTRACT: program_change channel=13 program=119 time=0.003378375
EXTRACT: control_change channel=13 control=91 value=100 time=0.00675675
EXTRACT: control_change channel=13 control=93 value=0 time=0.00675675
EXTRACT: control_change channel=15 control=121 value=0 time=0.00675675
EXTRACT: pitchwheel channel=15 pitch=0 time=0.00675675
EXTRACT: control_change channel=15 control=11 value=127 time=0.00675675
EXTRACT: control_change channel=15 control=91 value=0 time=0.00675675
EXTRACT: control_change channel=15 control=93 value=0 time=0.00675675
EXTRACT: program_change channel=15 program=0 time=0.00675675
EXTRACT: control_change channel=15 control=94 value=0 time=0.00675675
EXTRACT: note_on channel=9 note=42 velocity=84 time=0.19594575
EXTRACT: note_on channel=9 note=42 velocity=0 time=0.043918874999999996
EXTRACT: note_on channel=9 note=42 velocity=64 time=0.361486125
EXTRACT: note_on channel=9 note=42 velocity=0 time=0.043918874999999996
EXTRACT: note_on channel=9 note=42 velocity=64 time=0.361486125
EXTRACT: note_on channel=9 note=42 velocity=0 time=0.043918874999999996
EXTRACT: note_on channel=9 note=42 velocity=64 time=0.361486125
EXTRACT: note_on channel=9 note=42 velocity=0 time=0.043918874999999996
EXTRACT: note_on channel=7 note=50 velocity=104 time=0.361486125
EXTRACT: note_on channel=8 note=38 velocity=79 time=0
EXTRACT: note_on channel=7 note=50 velocity=0 time=0.19594575
EXTRACT: note_on channel=7 note=54 velocity=93 time=0.00675675
EXTRACT: note_on channel=7 note=54 velocity=0 time=0.19594575
EXTRACT: note_on channel=8 note=38 velocity=0 time=0
EXTRACT: note_on channel=7 note=57 velocity=89 time=0.00675675
EXTRACT: note_on channel=7 note=57 velocity=0 time=0.19594575
EXTRACT: note_on channel=7 note=54 velocity=77 time=0.00675675
EXTRACT: note_on channel=7 note=54 velocity=0 time=0.19594575
EXTRACT: note_on channel=7 note=57 velocity=98 time=0.00675675
EXTRACT: note_on channel=7 note=57 velocity=0 time=0.19594575
EXTRACT: note_on channel=7 note=54 velocity=98 time=0.00675675
EXTRACT: note_on channel=7 note=54 velocity=0 time=0.19594575
EXTRACT: note_on channel=7 note=50 velocity=101 time=0.00675675
EXTRACT: note_on channel=7 note=50 velocity=0 time=0.19594575
EXTRACT: note_on channel=7 note=54 velocity=95 time=0.00675675
EXTRACT: note_on channel=7 note=54 velocity=0 time=0.19594575
EXTRACT: note_on channel=7 note=50 velocity=104 time=0.00675675
EXTRACT: note_on channel=7 note=50 velocity=0 time=0.19594575
EXTRACT: note_on channel=7 note=54 velocity=86 time=0.00675675
EXTRACT: note_on channel=7 note=54 velocity=0 time=0.19594575
EXTRACT: note_on channel=7 note=57 velocity=101 time=0.00675675
EXTRACT: note_on channel=7 note=57 velocity=0 time=0.19594575
EXTRACT: note_on channel=7 note=54 velocity=98 time=0.00675675
EXTRACT: note_on channel=7 note=54 velocity=0 time=0.19594575
EXTRACT: note_on channel=7 note=57 velocity=101 time=0.00675675
EXTRACT: note_on channel=7 note=57 velocity=0 time=0.19594575
EXTRACT: note_on channel=7 note=54 velocity=93 time=0.00675675
EXTRACT: note_on channel=7 note=54 velocity=0 time=0.19594575
EXTRACT: note_on channel=7 note=50 velocity=90 time=0.00675675
EXTRACT: note_on channel=7 note=50 velocity=0 time=0.19594575
EXTRACT: note_on channel=7 note=54 velocity=90 time=0.00675675
EXTRACT: note_on channel=7 note=54 velocity=0 time=0.19594575
EXTRACT: note_on channel=7 note=49 velocity=104 time=0.00675675
EXTRACT: note_on channel=8 note=37 velocity=79 time=0
EXTRACT: note_on channel=7 note=49 velocity=0 time=0.19594575
EXTRACT: note_on channel=7 note=54 velocity=93 time=0.00675675
EXTRACT: note_on channel=7 note=54 velocity=0 time=0.19594575
EXTRACT: note_on channel=8 note=37 velocity=0 time=0
EXTRACT: note_on channel=7 note=57 velocity=89 time=0.00675675
EXTRACT: note_on channel=7 note=57 velocity=0 time=0.19594575
EXTRACT: note_on channel=7 note=54 velocity=77 time=0.00675675
EXTRACT: note_on channel=7 note=54 velocity=0 time=0.19594575
EXTRACT: note_on channel=7 note=57 velocity=98 time=0.00675675
EXTRACT: note_on channel=7 note=57 velocity=0 time=0.19594575
EXTRACT: note_on channel=7 note=54 velocity=98 time=0.00675675
EXTRACT: note_on channel=7 note=54 velocity=0 time=0.19594575
EXTRACT: note_on channel=7 note=49 velocity=101 time=0.00675675
EXTRACT: note_on channel=7 note=49 velocity=0 time=0.19594575
EXTRACT: note_on channel=7 note=54 velocity=95 time=0.00675675
EXTRACT: note_on channel=7 note=54 velocity=0 time=0.19594575
EXTRACT: note_on channel=7 note=49 velocity=104 time=0.00675675
EXTRACT: note_on channel=7 note=49 velocity=0 time=0.19594575
EXTRACT: note_on channel=7 note=54 velocity=86 time=0.00675675
EXTRACT: note_on channel=7 note=54 velocity=0 time=0.19594575
EXTRACT: note_on channel=7 note=57 velocity=101 time=0.00675675
EXTRACT: note_on channel=7 note=57 velocity=0 time=0.19594575
EXTRACT: note_on channel=7 note=54 velocity=98 time=0.00675675
EXTRACT: note_on channel=7 note=54 velocity=0 time=0.19594575
EXTRACT: note_on channel=7 note=57 velocity=101 time=0.00675675
EXTRACT: note_on channel=7 note=57 velocity=0 time=0.19594575
EXTRACT: note_on channel=7 note=54 velocity=93 time=0.00675675
EXTRACT: note_on channel=7 note=54 velocity=0 time=0.19594575
EXTRACT: note_on channel=7 note=49 velocity=90 time=0.00675675
EXTRACT: note_on channel=7 note=49 velocity=0 time=0.19594575
EXTRACT: note_on channel=7 note=54 velocity=90 time=0.00675675
EXTRACT: note_on channel=7 note=54 velocity=0 time=0.19594575
EXTRACT: note_on channel=7 note=47 velocity=104 time=0.00675675
EXTRACT: note_on channel=8 note=35 velocity=82 time=0
EXTRACT: note_on channel=7 note=47 velocity=0 time=0.19594575
EXTRACT: note_on channel=7 note=54 velocity=93 time=0.00675675
EXTRACT: note_on channel=7 note=54 velocity=0 time=0.19594575
EXTRACT: note_on channel=8 note=35 velocity=0 time=0
EXTRACT: note_on channel=7 note=59 velocity=89 time=0.00675675
EXTRACT: note_on channel=7 note=59 velocity=0 time=0.19594575
EXTRACT: note_on channel=7 note=54 velocity=77 time=0.00675675
EXTRACT: note_on channel=7 note=54 velocity=0 time=0.19594575
EXTRACT: note_on channel=7 note=59 velocity=98 time=0.00675675
EXTRACT: note_on channel=7 note=59 velocity=0 time=0.19594575
EXTRACT: note_on channel=7 note=54 velocity=98 time=0.00675675
EXTRACT: note_on channel=7 note=54 velocity=0 time=0.19594575
EXTRACT: note_on channel=7 note=47 velocity=101 time=0.00675675
EXTRACT: note_on channel=7 note=47 velocity=0 time=0.19594575
EXTRACT: note_on channel=7 note=54 velocity=95 time=0.00675675
EXTRACT: note_on channel=7 note=54 velocity=0 time=0.19594575
EXTRACT: note_on channel=7 note=47 velocity=104 time=0.00675675
EXTRACT: note_on channel=7 note=47 velocity=0 time=0.19594575
EXTRACT: note_on channel=7 note=54 velocity=86 time=0.00675675
EXTRACT: note_on channel=7 note=54 velocity=0 time=0.19594575
EXTRACT: note_on channel=7 note=59 velocity=101 time=0.00675675
EXTRACT: note_on channel=7 note=59 velocity=0 time=0.19594575
EXTRACT: note_on channel=7 note=54 velocity=98 time=0.00675675
EXTRACT: note_on channel=7 note=54 velocity=0 time=0.19594575
EXTRACT: note_on channel=7 note=59 velocity=101 time=0.00675675
EXTRACT: note_on channel=7 note=59 velocity=0 time=0.19594575
EXTRACT: note_on channel=7 note=54 velocity=93 time=0.00675675
EXTRACT: note_on channel=7 note=54 velocity=0 time=0.19594575
EXTRACT: note_on channel=7 note=47 velocity=90 time=0.00675675
EXTRACT: note_on channel=7 note=47 velocity=0 time=0.19594575
EXTRACT: note_on channel=7 note=54 velocity=90 time=0.00675675
EXTRACT: note_on channel=7 note=54 velocity=0 time=0.19594575
EXTRACT: note_on channel=7 note=47 velocity=104 time=0.00675675
EXTRACT: note_on channel=8 note=31 velocity=81 time=0
EXTRACT: note_on channel=7 note=47 velocity=0 time=0.19594575
EXTRACT: note_on channel=7 note=50 velocity=93 time=0.00675675
EXTRACT: note_on channel=7 note=50 velocity=0 time=0.19594575
EXTRACT: note_on channel=8 note=31 velocity=0 time=0
EXTRACT: note_on channel=7 note=59 velocity=89 time=0.00675675
EXTRACT: note_on channel=7 note=59 velocity=0 time=0.19594575
EXTRACT: note_on channel=7 note=50 velocity=77 time=0.00675675
EXTRACT: note_on channel=7 note=50 velocity=0 time=0.19594575
EXTRACT: note_on channel=7 note=59 velocity=98 time=0.00675675
EXTRACT: note_on channel=7 note=59 velocity=0 time=0.19594575
EXTRACT: note_on channel=7 note=50 velocity=98 time=0.00675675
EXTRACT: note_on channel=7 note=50 velocity=0 time=0.19594575
EXTRACT: note_on channel=7 note=47 velocity=78 time=0.00675675
EXTRACT: note_on channel=7 note=47 velocity=0 time=0.19594575
EXTRACT: note_on channel=7 note=50 velocity=63 time=0.00675675
EXTRACT: note_on channel=7 note=50 velocity=0 time=0.19594575
EXTRACT: note_on channel=7 note=47 velocity=76 time=0.00675675
EXTRACT: note_on channel=7 note=47 velocity=0 time=0.19594575
EXTRACT: note_on channel=7 note=50 velocity=86 time=0.00675675
EXTRACT: note_on channel=7 note=50 velocity=0 time=0.19594575
EXTRACT: note_on channel=7 note=55 velocity=88 time=0.00675675
EXTRACT: note_on channel=7 note=55 velocity=0 time=0.19594575
EXTRACT: note_on channel=3 note=57 velocity=92 time=0.00675675
EXTRACT: note_on channel=7 note=50 velocity=88 time=0
EXTRACT: note_on channel=3 note=57 velocity=0 time=0.11824312499999999
EXTRACT: note_on channel=7 note=50 velocity=0 time=0.077702625
EXTRACT: note_on channel=3 note=57 velocity=83 time=0.00675675
EXTRACT: note_on channel=7 note=55 velocity=81 time=0
EXTRACT: note_on channel=3 note=57 velocity=0 time=0.1486485
EXTRACT: note_on channel=7 note=55 velocity=0 time=0.04729725
EXTRACT: note_on channel=3 note=57 velocity=72 time=0.00675675
EXTRACT: note_on channel=7 note=50 velocity=73 time=0
EXTRACT: note_on channel=3 note=57 velocity=0 time=0.131756625
EXTRACT: note_on channel=7 note=50 velocity=0 time=0.064189125
EXTRACT: note_on channel=3 note=57 velocity=87 time=0.00675675
EXTRACT: note_on channel=7 note=55 velocity=73 time=0
EXTRACT: note_on channel=3 note=57 velocity=0 time=0.124999875
EXTRACT: note_on channel=7 note=55 velocity=0 time=0.07094587499999999
EXTRACT: note_on channel=3 note=57 velocity=85 time=0.00675675
EXTRACT: note_on channel=7 note=50 velocity=71 time=0
EXTRACT: note_on channel=3 note=57 velocity=0 time=0.10472962499999999
EXTRACT: note_on channel=7 note=50 velocity=0 time=0.091216125
EXTRACT: note_on channel=3 note=57 velocity=95 time=0.00675675
EXTRACT: note_on channel=7 note=50 velocity=104 time=0
EXTRACT: note_on channel=8 note=38 velocity=79 time=0
EXTRACT: note_on channel=7 note=50 velocity=0 time=0.19594575
EXTRACT: note_on channel=7 note=54 velocity=93 time=0.00675675
EXTRACT: note_on channel=3 note=57 velocity=0 time=0.172297125
EXTRACT: note_on channel=7 note=54 velocity=0 time=0.023648625
EXTRACT: note_on channel=8 note=38 velocity=0 time=0
EXTRACT: note_on channel=3 note=54 velocity=87 time=0.00675675
EXTRACT: note_on channel=7 note=57 velocity=89 time=0
EXTRACT: note_on channel=7 note=57 velocity=0 time=0.19594575
EXTRACT: note_on channel=7 note=54 velocity=77 time=0.00675675
EXTRACT: note_on channel=7 note=54 velocity=0 time=0.19594575
EXTRACT: note_on channel=7 note=57 velocity=98 time=0.00675675
EXTRACT: note_on channel=7 note=57 velocity=0 time=0.19594575
EXTRACT: note_on channel=7 note=54 velocity=98 time=0.00675675
EXTRACT: note_on channel=3 note=54 velocity=0 time=0.18581062499999998
EXTRACT: note_on channel=7 note=54 velocity=0 time=0.010135125
EXTRACT: note_on channel=7 note=50 velocity=101 time=0.00675675
EXTRACT: note_on channel=7 note=50 velocity=0 time=0.19594575
EXTRACT: note_on channel=7 note=54 velocity=95 time=0.00675675
EXTRACT: note_on channel=7 note=54 velocity=0 time=0.19594575
EXTRACT: note_on channel=7 note=50 velocity=104 time=0.00675675
EXTRACT: note_on channel=7 note=50 velocity=0 time=0.19594575
EXTRACT: note_on channel=7 note=54 velocity=86 time=0.00675675
EXTRACT: note_on channel=7 note=54 velocity=0 time=0.19594575
EXTRACT: note_on channel=7 note=57 velocity=101 time=0.00675675
EXTRACT: note_on channel=7 note=57 velocity=0 time=0.19594575
EXTRACT: note_on channel=7 note=54 velocity=98 time=0.00675675
EXTRACT: note_on channel=7 note=54 velocity=0 time=0.19594575
EXTRACT: note_on channel=3 note=57 velocity=98 time=0.00675675
EXTRACT: note_on channel=7 note=57 velocity=101 time=0
EXTRACT: note_on channel=3 note=57 velocity=0 time=0.12837825
EXTRACT: note_on channel=7 note=57 velocity=0 time=0.0675675
EXTRACT: note_on channel=3 note=57 velocity=73 time=0.00675675
EXTRACT: note_on channel=7 note=54 velocity=93 time=0
EXTRACT: note_on channel=3 note=57 velocity=0 time=0.124999875
EXTRACT: note_on channel=7 note=54 velocity=0 time=0.07094587499999999
EXTRACT: note_on channel=3 note=57 velocity=79 time=0.00675675
EXTRACT: note_on channel=7 note=50 velocity=90 time=0
EXTRACT: note_on channel=3 note=57 velocity=0 time=0.1216215
EXTRACT: note_on channel=7 note=50 velocity=0 time=0.07432425
EXTRACT: note_on channel=3 note=57 velocity=85 time=0.00675675
EXTRACT: note_on channel=7 note=54 velocity=90 time=0
EXTRACT: note_on channel=3 note=57 velocity=0 time=0.10472962499999999
EXTRACT: note_on channel=7 note=54 velocity=0 time=0.091216125
EXTRACT: note_on channel=3 note=57 velocity=104 time=0.00675675
EXTRACT: note_on channel=7 note=49 velocity=104 time=0
EXTRACT: note_on channel=8 note=37 velocity=79 time=0
EXTRACT: note_on channel=7 note=49 velocity=0 time=0.19594575
EXTRACT: note_on channel=7 note=54 velocity=93 time=0.00675675
EXTRACT: note_on channel=3 note=57 velocity=0 time=0.091216125
EXTRACT: note_on channel=7 note=54 velocity=0 time=0.10472962499999999
EXTRACT: note_on channel=8 note=37 velocity=0 time=0
EXTRACT: note_on channel=3 note=54 velocity=106 time=0.00675675
EXTRACT: note_on channel=7 note=57 velocity=89 time=0
EXTRACT: note_on channel=7 note=57 velocity=0 time=0.19594575
EXTRACT: note_on channel=3 note=54 velocity=0 time=0
EXTRACT: note_on channel=3 note=52 velocity=72 time=0.00675675
EXTRACT: note_on channel=7 note=54 velocity=77 time=0
EXTRACT: note_on channel=3 note=52 velocity=0 time=0.14189174999999998
EXTRACT: note_on channel=7 note=54 velocity=0 time=0.054054
EXTRACT: note_on channel=3 note=54 velocity=109 time=0.00675675
EXTRACT: note_on channel=7 note=57 velocity=98 time=0
EXTRACT: note_on channel=7 note=57 velocity=0 time=0.19594575
EXTRACT: note_on channel=7 note=54 velocity=98 time=0.00675675
EXTRACT: note_on channel=7 note=54 velocity=0 time=0.19594575
EXTRACT: note_on channel=7 note=49 velocity=101 time=0.00675675
EXTRACT: note_on channel=7 note=49 velocity=0 time=0.19594575
EXTRACT: note_on channel=7 note=54 velocity=95 time=0.00675675
EXTRACT: note_on channel=7 note=54 velocity=0 time=0.19594575
EXTRACT: note_on channel=7 note=49 velocity=104 time=0.00675675
EXTRACT: note_on channel=7 note=49 velocity=0 time=0.19594575
EXTRACT: note_on channel=7 note=54 velocity=86 time=0.00675675
EXTRACT: note_on channel=7 note=54 velocity=0 time=0.19594575
EXTRACT: note_on channel=3 note=54 velocity=0 time=0
EXTRACT: note_on channel=7 note=57 velocity=101 time=0.00675675
EXTRACT: note_on channel=7 note=57 velocity=0 time=0.19594575
EXTRACT: note_on channel=3 note=57 velocity=87 time=0.00675675
EXTRACT: note_on channel=7 note=54 velocity=98 time=0
EXTRACT: note_on channel=3 note=57 velocity=0 time=0.10135124999999999
EXTRACT: note_on channel=7 note=54 velocity=0 time=0.0945945
EXTRACT: note_on channel=3 note=57 velocity=85 time=0.00675675
EXTRACT: note_on channel=7 note=57 velocity=101 time=0
EXTRACT: note_on channel=3 note=57 velocity=0 time=0.1216215
EXTRACT: note_on channel=7 note=57 velocity=0 time=0.07432425
EXTRACT: note_on channel=3 note=57 velocity=79 time=0.00675675
EXTRACT: note_on channel=7 note=54 velocity=93 time=0
EXTRACT: note_on channel=3 note=57 velocity=0 time=0.108108
EXTRACT: note_on channel=7 note=54 velocity=0 time=0.08783774999999999
EXTRACT: note_on channel=3 note=57 velocity=87 time=0.00675675
EXTRACT: note_on channel=7 note=49 velocity=90 time=0
EXTRACT: note_on channel=3 note=57 velocity=0 time=0.11486475
EXTRACT: note_on channel=7 note=49 velocity=0 time=0.081081
EXTRACT: note_on channel=3 note=57 velocity=87 time=0.00675675
EXTRACT: note_on channel=7 note=54 velocity=90 time=0
EXTRACT: note_on channel=3 note=57 velocity=0 time=0.097972875
EXTRACT: note_on channel=7 note=54 velocity=0 time=0.097972875
EXTRACT: note_on channel=3 note=57 velocity=101 time=0.00675675
EXTRACT: note_on channel=7 note=47 velocity=104 time=0
EXTRACT: note_on channel=8 note=35 velocity=82 time=0
EXTRACT: note_on channel=7 note=47 velocity=0 time=0.19594575
EXTRACT: note_on channel=7 note=54 velocity=93 time=0.00675675
EXTRACT: note_on channel=3 note=57 velocity=0 time=0.15878362499999998
EXTRACT: note_on channel=7 note=54 velocity=0 time=0.037162125
EXTRACT: note_on channel=8 note=35 velocity=0 time=0
EXTRACT: note_on channel=3 note=54 velocity=92 time=0.00675675
EXTRACT: note_on channel=7 note=59 velocity=89 time=0
EXTRACT: note_on channel=7 note=59 velocity=0 time=0.19594575
EXTRACT: note_on channel=7 note=54 velocity=77 time=0.00675675
EXTRACT: note_on channel=7 note=54 velocity=0 time=0.19594575
EXTRACT: note_on channel=7 note=59 velocity=98 time=0.00675675
EXTRACT: note_on channel=7 note=59 velocity=0 time=0.19594575
EXTRACT: note_on channel=7 note=54 velocity=98 time=0.00675675
EXTRACT: note_on channel=7 note=54 velocity=0 time=0.19594575
EXTRACT: note_on channel=7 note=47 velocity=101 time=0.00675675
EXTRACT: note_on channel=3 note=54 velocity=0 time=0.091216125
EXTRACT: note_on channel=7 note=47 velocity=0 time=0.10472962499999999
EXTRACT: note_on channel=7 note=54 velocity=95 time=0.00675675
EXTRACT: note_on channel=7 note=54 velocity=0 time=0.19594575
EXTRACT: note_on channel=7 note=47 velocity=104 time=0.00675675
EXTRACT: note_on channel=7 note=47 velocity=0 time=0.19594575
EXTRACT: note_on channel=7 note=54 velocity=86 time=0.00675675
EXTRACT: note_on channel=7 note=54 velocity=0 time=0.19594575
EXTRACT: note_on channel=7 note=59 velocity=101 time=0.00675675
EXTRACT: note_on channel=7 note=59 velocity=0 time=0.19594575
EXTRACT: note_on channel=3 note=57 velocity=109 time=0.00675675
EXTRACT: note_on channel=7 note=54 velocity=98 time=0
EXTRACT: note_on channel=3 note=57 velocity=0 time=0.12837825
EXTRACT: note_on channel=7 note=54 velocity=0 time=0.0675675
EXTRACT: note_on channel=3 note=57 velocity=81 time=0.00675675
EXTRACT: note_on channel=7 note=59 velocity=101 time=0
EXTRACT: note_on channel=3 note=57 velocity=0 time=0.124999875
EXTRACT: note_on channel=7 note=59 velocity=0 time=0.07094587499999999
EXTRACT: note_on channel=3 note=57 velocity=72 time=0.00675675
EXTRACT: note_on channel=7 note=54 velocity=93 time=0
EXTRACT: note_on channel=3 note=57 velocity=0 time=0.111486375
EXTRACT: note_on channel=7 note=54 velocity=0 time=0.084459375
EXTRACT: note_on channel=3 note=57 velocity=85 time=0.00675675
EXTRACT: note_on channel=7 note=47 velocity=90 time=0
EXTRACT: note_on channel=3 note=57 velocity=0 time=0.12837825
EXTRACT: note_on channel=7 note=47 velocity=0 time=0.0675675
EXTRACT: note_on channel=3 note=57 velocity=56 time=0.00675675
EXTRACT: note_on channel=7 note=54 velocity=90 time=0
EXTRACT: note_on channel=3 note=57 velocity=0 time=0.091216125
EXTRACT: note_on channel=7 note=54 velocity=0 time=0.10472962499999999
EXTRACT: note_on channel=3 note=57 velocity=101 time=0.00675675
EXTRACT: note_on channel=7 note=47 velocity=104 time=0
EXTRACT: note_on channel=8 note=31 velocity=81 time=0
EXTRACT: note_on channel=7 note=47 velocity=0 time=0.19594575
EXTRACT: note_on channel=7 note=50 velocity=93 time=0.00675675
EXTRACT: note_on channel=3 note=57 velocity=0 time=0.108108
EXTRACT: note_on channel=7 note=50 velocity=0 time=0.08783774999999999
EXTRACT: note_on channel=8 note=31 velocity=0 time=0
EXTRACT: note_on channel=3 note=50 velocity=101 time=0.00675675
EXTRACT: note_on channel=7 note=59 velocity=89 time=0
EXTRACT: note_on channel=7 note=59 velocity=0 time=0.19594575
EXTRACT: note_on channel=7 note=50 velocity=77 time=0.00675675
EXTRACT: note_on channel=3 note=50 velocity=0 time=0.07432425
EXTRACT: note_on channel=7 note=50 velocity=0 time=0.1216215
EXTRACT: note_on channel=3 note=50 velocity=109 time=0.00675675
EXTRACT: note_on channel=7 note=59 velocity=98 time=0
EXTRACT: note_on channel=7 note=59 velocity=0 time=0.19594575
EXTRACT: note_on channel=3 note=50 velocity=0 time=0
EXTRACT: note_on channel=3 note=47 velocity=85 time=0.00675675
EXTRACT: note_on channel=7 note=50 velocity=98 time=0
EXTRACT: note_on channel=7 note=50 velocity=0 time=0.19594575
EXTRACT: note_on channel=7 note=47 velocity=78 time=0.00675675
EXTRACT: note_on channel=7 note=47 velocity=0 time=0.19594575
EXTRACT: note_on channel=7 note=50 velocity=63 time=0.00675675
EXTRACT: note_on channel=7 note=50 velocity=0 time=0.19594575
EXTRACT: note_on channel=7 note=47 velocity=76 time=0.00675675
EXTRACT: note_on channel=3 note=47 velocity=0 time=0.172297125
EXTRACT: note_on channel=7 note=47 velocity=0 time=0.023648625
EXTRACT: note_on channel=7 note=50 velocity=86 time=0.00675675
EXTRACT: note_on channel=7 note=50 velocity=0 time=0.19594575
EXTRACT: note_on channel=7 note=55 velocity=88 time=0.00675675
EXTRACT: note_on channel=7 note=55 velocity=0 time=0.19594575
EXTRACT: note_on channel=7 note=50 velocity=88 time=0.00675675
EXTRACT: note_on channel=7 note=50 velocity=0 time=0.19594575
EXTRACT: note_on channel=7 note=55 velocity=81 time=0.00675675
EXTRACT: note_on channel=7 note=55 velocity=0 time=0.19594575
EXTRACT: note_on channel=3 note=57 velocity=104 time=0.00675675
EXTRACT: note_on channel=7 note=50 velocity=73 time=0
EXTRACT: note_on channel=3 note=57 velocity=0 time=0.097972875
EXTRACT: note_on channel=7 note=50 velocity=0 time=0.097972875
EXTRACT: note_on channel=3 note=57 velocity=87 time=0.00675675
EXTRACT: note_on channel=7 note=55 velocity=73 time=0
EXTRACT: note_on channel=3 note=57 velocity=0 time=0.15540525
EXTRACT: note_on channel=7 note=55 velocity=0 time=0.0405405
EXTRACT: note_on channel=3 note=59 velocity=95 time=0.00675675
EXTRACT: note_on channel=7 note=50 velocity=71 time=0
EXTRACT: note_on channel=3 note=59 velocity=0 time=0.11824312499999999
EXTRACT: note_on channel=7 note=50 velocity=0 time=0.077702625
EXTRACT: note_on channel=3 note=62 velocity=106 time=0.00675675
EXTRACT: note_on channel=7 note=50 velocity=104 time=0
EXTRACT: note_on channel=8 note=38 velocity=79 time=0
EXTRACT: note_on channel=7 note=50 velocity=0 time=0.19594575
EXTRACT: note_on channel=7 note=54 velocity=93 time=0.00675675
EXTRACT: note_on channel=3 note=62 velocity=0 time=0.0675675
EXTRACT: note_on channel=7 note=54 velocity=0 time=0.12837825
EXTRACT: note_on channel=8 note=38 velocity=0 time=0
EXTRACT: note_on channel=3 note=64 velocity=109 time=0.00675675
EXTRACT: note_on channel=7 note=57 velocity=89 time=0
EXTRACT: note_on channel=7 note=57 velocity=0 time=0.19594575
EXTRACT: note_on channel=7 note=54 velocity=77 time=0.00675675
EXTRACT: note_on channel=3 note=64 velocity=0 time=0.0945945
EXTRACT: note_on channel=7 note=54 velocity=0 time=0.10135124999999999
EXTRACT: note_on channel=3 note=61 velocity=106 time=0.00675675
EXTRACT: note_on channel=7 note=57 velocity=98 time=0
EXTRACT: note_on channel=7 note=57 velocity=0 time=0.19594575
EXTRACT: note_on channel=7 note=54 velocity=98 time=0.00675675
EXTRACT: note_on channel=3 note=61 velocity=0 time=0.084459375
EXTRACT: note_on channel=7 note=54 velocity=0 time=0.111486375
EXTRACT: note_on channel=3 note=62 velocity=106 time=0.00675675
EXTRACT: note_on channel=7 note=50 velocity=101 time=0
EXTRACT: note_on channel=7 note=50 velocity=0 time=0.19594575
EXTRACT: note_on channel=7 note=54 velocity=95 time=0.00675675
EXTRACT: note_on channel=7 note=54 velocity=0 time=0.19594575
EXTRACT: note_on channel=7 note=50 velocity=104 time=0.00675675
EXTRACT: note_on channel=7 note=50 velocity=0 time=0.19594575
EXTRACT: note_on channel=7 note=54 velocity=86 time=0.00675675
EXTRACT: note_on channel=3 note=62 velocity=0 time=0.17567549999999998
EXTRACT: note_on channel=7 note=54 velocity=0 time=0.02027025
EXTRACT: note_on channel=7 note=57 velocity=101 time=0.00675675
EXTRACT: note_on channel=7 note=57 velocity=0 time=0.19594575
EXTRACT: note_on channel=7 note=54 velocity=98 time=0.00675675
EXTRACT: note_on channel=7 note=54 velocity=0 time=0.19594575
EXTRACT: note_on channel=7 note=57 velocity=101 time=0.00675675
EXTRACT: note_on channel=7 note=57 velocity=0 time=0.19594575
EXTRACT: note_on channel=3 note=57 velocity=101 time=0.00675675
EXTRACT: note_on channel=7 note=54 velocity=93 time=0
EXTRACT: note_on channel=3 note=57 velocity=0 time=0.10472962499999999
EXTRACT: note_on channel=7 note=54 velocity=0 time=0.091216125
EXTRACT: note_on channel=3 note=57 velocity=87 time=0.00675675
EXTRACT: note_on channel=7 note=50 velocity=90 time=0
EXTRACT: note_on channel=3 note=57 velocity=0 time=0.1216215
EXTRACT: note_on channel=7 note=50 velocity=0 time=0.07432425
EXTRACT: note_on channel=3 note=57 velocity=83 time=0.00675675
EXTRACT: note_on channel=7 note=54 velocity=90 time=0
EXTRACT: note_on channel=3 note=57 velocity=0 time=0.131756625
EXTRACT: note_on channel=7 note=54 velocity=0 time=0.064189125
EXTRACT: note_on channel=3 note=61 velocity=101 time=0.00675675
EXTRACT: note_on channel=7 note=49 velocity=104 time=0
EXTRACT: note_on channel=8 note=37 velocity=79 time=0
EXTRACT: note_on channel=7 note=49 velocity=0 time=0.19594575
EXTRACT: note_on channel=7 note=54 velocity=93 time=0.00675675
EXTRACT: note_on channel=3 note=61 velocity=0 time=0.057432375
EXTRACT: note_on channel=7 note=54 velocity=0 time=0.138513375
EXTRACT: note_on channel=8 note=37 velocity=0 time=0
EXTRACT: note_on channel=3 note=61 velocity=89 time=0.00675675
EXTRACT: note_on channel=7 note=57 velocity=89 time=0
EXTRACT: note_on channel=7 note=57 velocity=0 time=0.19594575
EXTRACT: note_on channel=7 note=54 velocity=77 time=0.00675675
EXTRACT: note_on channel=3 note=61 velocity=0 time=0.054054
EXTRACT: note_on channel=7 note=54 velocity=0 time=0.14189174999999998
EXTRACT: note_on channel=3 note=61 velocity=89 time=0.00675675
EXTRACT: note_on channel=7 note=57 velocity=98 time=0
EXTRACT: note_on channel=7 note=57 velocity=0 time=0.19594575
EXTRACT: note_on channel=7 note=54 velocity=98 time=0.00675675
EXTRACT: note_on channel=3 note=61 velocity=0 time=0.016891875
EXTRACT: note_on channel=7 note=54 velocity=0 time=0.179053875
EXTRACT: note_on channel=3 note=61 velocity=106 time=0.00675675
EXTRACT: note_on channel=7 note=49 velocity=101 time=0
EXTRACT: note_on channel=7 note=49 velocity=0 time=0.19594575
EXTRACT: note_on channel=7 note=54 velocity=95 time=0.00675675
EXTRACT: note_on channel=7 note=54 velocity=0 time=0.19594575
EXTRACT: note_on channel=7 note=49 velocity=104 time=0.00675675
EXTRACT: note_on channel=7 note=49 velocity=0 time=0.19594575
EXTRACT: note_on channel=7 note=54 velocity=86 time=0.00675675
EXTRACT: note_on channel=7 note=54 velocity=0 time=0.19594575
EXTRACT: note_on channel=7 note=57 velocity=101 time=0.00675675
EXTRACT: note_on channel=3 note=61 velocity=0 time=0.030405375
EXTRACT: note_on channel=7 note=57 velocity=0 time=0.165540375
EXTRACT: note_on channel=7 note=54 velocity=98 time=0.00675675
EXTRACT: note_on channel=7 note=54 velocity=0 time=0.19594575
EXTRACT: note_on channel=7 note=57 velocity=101 time=0.00675675
EXTRACT: note_on channel=7 note=57 velocity=0 time=0.19594575
EXTRACT: note_on channel=3 note=59 velocity=101 time=0.00675675
EXTRACT: note_on channel=7 note=54 velocity=93 time=0
EXTRACT: note_on channel=3 note=59 velocity=0 time=0.097972875
EXTRACT: note_on channel=7 note=54 velocity=0 time=0.097972875
EXTRACT: note_on channel=3 note=59 velocity=87 time=0.00675675
EXTRACT: note_on channel=7 note=49 velocity=90 time=0
EXTRACT: note_on channel=3 note=59 velocity=0 time=0.11824312499999999
EXTRACT: note_on channel=7 note=49 velocity=0 time=0.077702625
EXTRACT: note_on channel=3 note=61 velocity=85 time=0.00675675
EXTRACT: note_on channel=7 note=54 velocity=90 time=0
EXTRACT: note_on channel=3 note=61 velocity=0 time=0.14189174999999998
EXTRACT: note_on channel=7 note=54 velocity=0 time=0.054054
EXTRACT: note_on channel=3 note=62 velocity=109 time=0.00675675
EXTRACT: note_on channel=7 note=47 velocity=104 time=0
EXTRACT: note_on channel=8 note=35 velocity=82 time=0
EXTRACT: note_on channel=7 note=47 velocity=0 time=0.19594575
EXTRACT: note_on channel=7 note=54 velocity=93 time=0.00675675
EXTRACT: note_on channel=3 note=62 velocity=0 time=0.0945945
EXTRACT: note_on channel=7 note=54 velocity=0 time=0.10135124999999999
EXTRACT: note_on channel=8 note=35 velocity=0 time=0
EXTRACT: note_on channel=3 note=59 velocity=104 time=0.00675675
EXTRACT: note_on channel=7 note=59 velocity=89 time=0
EXTRACT: note_on channel=7 note=59 velocity=0 time=0.19594575
EXTRACT: note_on channel=7 note=54 velocity=77 time=0.00675675
EXTRACT: note_on channel=3 note=59 velocity=0 time=0.0405405
EXTRACT: note_on channel=7 note=54 velocity=0 time=0.15540525
EXTRACT: note_on channel=3 note=59 velocity=109 time=0.00675675
EXTRACT: note_on channel=7 note=59 velocity=98 time=0
EXTRACT: note_on channel=7 note=59 velocity=0 time=0.19594575
EXTRACT: note_on channel=7 note=54 velocity=98 time=0.00675675
EXTRACT: note_on channel=3 note=59 velocity=0 time=0.06081075
EXTRACT: note_on channel=7 note=54 velocity=0 time=0.135135
EXTRACT: note_on channel=3 note=59 velocity=92 time=0.00675675
EXTRACT: note_on channel=7 note=47 velocity=101 time=0
EXTRACT: note_on channel=7 note=47 velocity=0 time=0.19594575
EXTRACT: note_on channel=7 note=54 velocity=95 time=0.00675675
EXTRACT: note_on channel=3 note=59 velocity=0 time=0.050675624999999995
EXTRACT: note_on channel=7 note=54 velocity=0 time=0.145270125
EXTRACT: note_on channel=3 note=59 velocity=101 time=0.00675675
EXTRACT: note_on channel=7 note=47 velocity=104 time=0
EXTRACT: note_on channel=7 note=47 velocity=0 time=0.19594575
EXTRACT: note_on channel=7 note=54 velocity=86 time=0.00675675
EXTRACT: note_on channel=7 note=54 velocity=0 time=0.19594575
EXTRACT: note_on channel=7 note=59 velocity=101 time=0.00675675
EXTRACT: note_on channel=7 note=59 velocity=0 time=0.19594575
EXTRACT: note_on channel=7 note=54 velocity=98 time=0.00675675
EXTRACT: note_on channel=3 note=59 velocity=0 time=0.07094587499999999
EXTRACT: note_on channel=7 note=54 velocity=0 time=0.124999875
EXTRACT: note_on channel=3 note=59 velocity=106 time=0.00675675
EXTRACT: note_on channel=7 note=59 velocity=101 time=0
EXTRACT: note_on channel=3 note=59 velocity=0 time=0.131756625
EXTRACT: note_on channel=7 note=59 velocity=0 time=0.064189125
EXTRACT: note_on channel=3 note=61 velocity=87 time=0.00675675
EXTRACT: note_on channel=7 note=54 velocity=93 time=0
EXTRACT: note_on channel=3 note=61 velocity=0 time=0.1216215
EXTRACT: note_on channel=7 note=54 velocity=0 time=0.07432425
EXTRACT: note_on channel=3 note=59 velocity=95 time=0.00675675
EXTRACT: note_on channel=7 note=47 velocity=90 time=0
EXTRACT: note_on channel=3 note=59 velocity=0 time=0.15878362499999998
EXTRACT: note_on channel=7 note=47 velocity=0 time=0.037162125
EXTRACT: note_on channel=3 note=61 velocity=98 time=0.00675675
EXTRACT: note_on channel=7 note=54 velocity=90 time=0
EXTRACT: note_on channel=3 note=61 velocity=0 time=0.131756625
EXTRACT: note_on channel=7 note=54 velocity=0 time=0.064189125
EXTRACT: note_on channel=3 note=62 velocity=109 time=0.00675675
EXTRACT: note_on channel=7 note=47 velocity=104 time=0
EXTRACT: note_on channel=8 note=31 velocity=81 time=0
EXTRACT: note_on channel=7 note=47 velocity=0 time=0.19594575
EXTRACT: note_on channel=7 note=50 velocity=93 time=0.00675675
EXTRACT: note_on channel=3 note=62 velocity=0 time=0.054054
EXTRACT: note_on channel=7 note=50 velocity=0 time=0.14189174999999998
EXTRACT: note_on channel=8 note=31 velocity=0 time=0
EXTRACT: note_on channel=3 note=59 velocity=109 time=0.00675675
EXTRACT: note_on channel=7 note=59 velocity=89 time=0
EXTRACT: note_on channel=7 note=59 velocity=0 time=0.19594575
EXTRACT: note_on channel=7 note=50 velocity=77 time=0.00675675
EXTRACT: note_on channel=3 note=59 velocity=0 time=0.03378375
EXTRACT: note_on channel=7 note=50 velocity=0 time=0.162162
EXTRACT: note_on channel=3 note=59 velocity=106 time=0.00675675
EXTRACT: note_on channel=7 note=59 velocity=98 time=0
EXTRACT: note_on channel=3 note=59 velocity=0 time=0.162162
EXTRACT: note_on channel=7 note=59 velocity=0 time=0.03378375
EXTRACT: note_on channel=3 note=61 velocity=101 time=0.00675675
EXTRACT: note_on channel=7 note=50 velocity=98 time=0
EXTRACT: note_on channel=3 note=61 velocity=0 time=0.11486475
EXTRACT: note_on channel=7 note=50 velocity=0 time=0.081081
EXTRACT: note_on channel=3 note=59 velocity=104 time=0.00675675
EXTRACT: note_on channel=7 note=47 velocity=78 time=0
EXTRACT: note_on channel=3 note=59 velocity=0 time=0.138513375
EXTRACT: note_on channel=7 note=47 velocity=0 time=0.057432375
EXTRACT: note_on channel=3 note=61 velocity=104 time=0.00675675
EXTRACT: note_on channel=7 note=50 velocity=63 time=0
EXTRACT: note_on channel=3 note=61 velocity=0 time=0.138513375
EXTRACT: note_on channel=7 note=50 velocity=0 time=0.057432375
EXTRACT: note_on channel=3 note=62 velocity=106 time=0.00675675
EXTRACT: note_on channel=7 note=47 velocity=76 time=0
EXTRACT: note_on channel=7 note=47 velocity=0 time=0.19594575
EXTRACT: note_on channel=7 note=50 velocity=86 time=0.00675675
EXTRACT: note_on channel=3 note=62 velocity=0 time=0.050675624999999995
EXTRACT: note_on channel=7 note=50 velocity=0 time=0.145270125
EXTRACT: note_on channel=3 note=59 velocity=109 time=0.00675675
EXTRACT: note_on channel=7 note=55 velocity=88 time=0
EXTRACT: note_on channel=7 note=55 velocity=0 time=0.19594575
EXTRACT: note_on channel=3 note=59 velocity=0 time=0.00675675
EXTRACT: note_on channel=7 note=50 velocity=88 time=0
EXTRACT: note_on channel=7 note=50 velocity=0 time=0.19594575
EXTRACT: note_on channel=3 note=62 velocity=112 time=0.00675675
EXTRACT: note_on channel=3 note=62 velocity=0 time=0.145270125
EXTRACT: note_on channel=3 note=64 velocity=112 time=0.057432375
EXTRACT: note_on channel=3 note=64 velocity=0 time=0.11486475
EXTRACT: note_on channel=3 note=62 velocity=118 time=0.08783774999999999
EXTRACT: note_on channel=3 note=62 velocity=0 time=0.145270125
EXTRACT: note_on channel=3 note=64 velocity=109 time=0.057432375
EXTRACT: note_on channel=3 note=64 velocity=0 time=0.10135124999999999
EXTRACT: note_on channel=1 note=38 velocity=121 time=0.10135124999999999
EXTRACT: note_on channel=2 note=57 velocity=102 time=0
EXTRACT: note_on channel=2 note=62 velocity=102 time=0
EXTRACT: note_on channel=2 note=66 velocity=102 time=0
EXTRACT: note_on channel=3 note=66 velocity=121 time=0
EXTRACT: note_on channel=5 note=50 velocity=100 time=0
EXTRACT: note_on channel=5 note=54 velocity=100 time=0
EXTRACT: note_on channel=5 note=57 velocity=100 time=0
EXTRACT: note_on channel=5 note=62 velocity=100 time=0
EXTRACT: note_on channel=6 note=45 velocity=99 time=0
EXTRACT: note_on channel=6 note=50 velocity=99 time=0
EXTRACT: note_on channel=7 note=50 velocity=104 time=0
EXTRACT: note_on channel=8 note=38 velocity=79 time=0
EXTRACT: note_on channel=9 note=26 velocity=50 time=0
EXTRACT: note_on channel=9 note=32 velocity=50 time=0
EXTRACT: note_on channel=9 note=36 velocity=120 time=0
EXTRACT: note_on channel=9 note=42 velocity=80 time=0
EXTRACT: note_on channel=9 note=49 velocity=110 time=0
EXTRACT: note_on channel=10 note=52 velocity=120 time=0
EXTRACT: note_on channel=11 note=81 velocity=102 time=0
EXTRACT: note_on channel=11 note=86 velocity=102 time=0
EXTRACT: note_on channel=11 note=90 velocity=102 time=0
EXTRACT: note_on channel=10 note=57 velocity=120 time=0.037162125
EXTRACT: note_on channel=10 note=52 velocity=0 time=0.00675675
EXTRACT: note_on channel=9 note=49 velocity=0 time=0
EXTRACT: note_on channel=9 note=42 velocity=0 time=0
EXTRACT: note_on channel=9 note=36 velocity=0 time=0
EXTRACT: note_on channel=9 note=32 velocity=0 time=0
EXTRACT: note_on channel=9 note=26 velocity=0 time=0
EXTRACT: note_on channel=10 note=57 velocity=0 time=0.037162125
EXTRACT: note_on channel=7 note=50 velocity=0 time=0.11486475
EXTRACT: note_on channel=7 note=54 velocity=93 time=0.00675675
EXTRACT: note_on channel=9 note=26 velocity=30 time=0
EXTRACT: note_on channel=9 note=32 velocity=30 time=0
EXTRACT: note_on channel=9 note=32 velocity=0 time=0.043918874999999996
EXTRACT: note_on channel=9 note=26 velocity=0 time=0
EXTRACT: note_on channel=3 note=66 velocity=0 time=0.050675624999999995
EXTRACT: note_on channel=7 note=54 velocity=0 time=0.10135124999999999
EXTRACT: note_on channel=8 note=38 velocity=0 time=0
EXTRACT: note_on channel=3 note=69 velocity=121 time=0.00675675
EXTRACT: note_on channel=7 note=57 velocity=89 time=0
EXTRACT: note_on channel=9 note=26 velocity=50 time=0
EXTRACT: note_on channel=9 note=32 velocity=50 time=0
EXTRACT: note_on channel=9 note=42 velocity=70 time=0
EXTRACT: note_on channel=9 note=42 velocity=0 time=0.043918874999999996
EXTRACT: note_on channel=9 note=32 velocity=0 time=0
EXTRACT: note_on channel=9 note=26 velocity=0 time=0
EXTRACT: note_on channel=7 note=57 velocity=0 time=0.152026875
EXTRACT: note_on channel=7 note=54 velocity=77 time=0.00675675
EXTRACT: note_on channel=9 note=26 velocity=30 time=0
EXTRACT: note_on channel=9 note=32 velocity=30 time=0
EXTRACT: note_on channel=9 note=32 velocity=0 time=0.043918874999999996
EXTRACT: note_on channel=9 note=26 velocity=0 time=0
EXTRACT: note_on channel=3 note=69 velocity=0 time=0.0135135
EXTRACT: note_on channel=7 note=54 velocity=0 time=0.138513375
EXTRACT: note_on channel=3 note=66 velocity=121 time=0.00675675
EXTRACT: note_on channel=7 note=57 velocity=98 time=0
EXTRACT: note_on channel=9 note=26 velocity=50 time=0
EXTRACT: note_on channel=9 note=32 velocity=50 time=0
EXTRACT: note_on channel=9 note=38 velocity=120 time=0
EXTRACT: note_on channel=9 note=42 velocity=80 time=0
EXTRACT: note_on channel=9 note=42 velocity=0 time=0.043918874999999996
EXTRACT: note_on channel=9 note=38 velocity=0 time=0
EXTRACT: note_on channel=9 note=32 velocity=0 time=0
EXTRACT: note_on channel=9 note=26 velocity=0 time=0
EXTRACT: note_on channel=7 note=57 velocity=0 time=0.152026875
EXTRACT: note_on channel=7 note=54 velocity=98 time=0.00675675
EXTRACT: note_on channel=9 note=26 velocity=30 time=0
EXTRACT: note_on channel=9 note=32 velocity=30 time=0
EXTRACT: note_on channel=9 note=32 velocity=0 time=0.043918874999999996
EXTRACT: note_on channel=9 note=26 velocity=0 time=0
EXTRACT: note_on channel=7 note=54 velocity=0 time=0.152026875
EXTRACT: note_on channel=7 note=50 velocity=101 time=0.00675675
EXTRACT: note_on channel=9 note=26 velocity=50 time=0
EXTRACT: note_on channel=9 note=32 velocity=50 time=0
EXTRACT: note_on channel=9 note=42 velocity=70 time=0
EXTRACT: note_on channel=9 note=42 velocity=0 time=0.043918874999999996
EXTRACT: note_on channel=9 note=32 velocity=0 time=0
EXTRACT: note_on channel=9 note=26 velocity=0 time=0
EXTRACT: note_on channel=7 note=50 velocity=0 time=0.152026875
EXTRACT: note_on channel=1 note=38 velocity=0 time=0
EXTRACT: note_on channel=1 note=38 velocity=121 time=0.00675675
EXTRACT: note_on channel=7 note=54 velocity=95 time=0
EXTRACT: note_on channel=9 note=26 velocity=30 time=0
EXTRACT: note_on channel=9 note=32 velocity=30 time=0
EXTRACT: note_on channel=9 note=36 velocity=120 time=0
EXTRACT: note_on channel=10 note=52 velocity=120 time=0
EXTRACT: note_on channel=10 note=57 velocity=120 time=0.03378375
EXTRACT: note_on channel=10 note=52 velocity=0 time=0.010135125
EXTRACT: note_on channel=9 note=36 velocity=0 time=0
EXTRACT: note_on channel=9 note=32 velocity=0 time=0
EXTRACT: note_on channel=9 note=26 velocity=0 time=0
EXTRACT: note_on channel=10 note=57 velocity=0 time=0.03378375
EXTRACT: note_on channel=7 note=54 velocity=0 time=0.11824312499999999
EXTRACT: note_on channel=7 note=50 velocity=104 time=0.00675675
EXTRACT: note_on channel=9 note=26 velocity=50 time=0
EXTRACT: note_on channel=9 note=32 velocity=50 time=0
EXTRACT: note_on channel=9 note=42 velocity=80 time=0
EXTRACT: note_on channel=9 note=42 velocity=0 time=0.043918874999999996
EXTRACT: note_on channel=9 note=32 velocity=0 time=0
EXTRACT: note_on channel=9 note=26 velocity=0 time=0
EXTRACT: note_on channel=7 note=50 velocity=0 time=0.152026875
EXTRACT: note_on channel=1 note=38 velocity=0 time=0
EXTRACT: note_on channel=1 note=38 velocity=121 time=0.00675675
EXTRACT: note_on channel=7 note=54 velocity=86 time=0
EXTRACT: note_on channel=9 note=26 velocity=30 time=0
EXTRACT: note_on channel=9 note=32 velocity=30 time=0
EXTRACT: note_on channel=9 note=36 velocity=120 time=0
EXTRACT: note_on channel=10 note=52 velocity=120 time=0
EXTRACT: note_on channel=3 note=66 velocity=0 time=0.003378375
EXTRACT: note_on channel=10 note=57 velocity=120 time=0.030405375
EXTRACT: note_on channel=9 note=26 velocity=0 time=0.010135125
EXTRACT: note_on channel=10 note=52 velocity=0 time=0
EXTRACT: note_on channel=9 note=36 velocity=0 time=0
EXTRACT: note_on channel=9 note=32 velocity=0 time=0
EXTRACT: note_on channel=10 note=57 velocity=0 time=0.03378375
EXTRACT: note_on channel=7 note=54 velocity=0 time=0.11824312499999999
EXTRACT: note_on channel=1 note=38 velocity=0 time=0
EXTRACT: note_on channel=1 note=38 velocity=121 time=0.00675675
EXTRACT: note_on channel=7 note=57 velocity=101 time=0
EXTRACT: note_on channel=9 note=26 velocity=50 time=0
EXTRACT: note_on channel=9 note=32 velocity=50 time=0
EXTRACT: note_on channel=9 note=36 velocity=120 time=0
EXTRACT: note_on channel=9 note=42 velocity=70 time=0
EXTRACT: note_on channel=10 note=52 velocity=120 time=0
EXTRACT: note_on channel=10 note=57 velocity=120 time=0.03378375
EXTRACT: note_on channel=10 note=52 velocity=0 time=0.010135125
EXTRACT: note_on channel=9 note=42 velocity=0 time=0
EXTRACT: note_on channel=9 note=36 velocity=0 time=0
EXTRACT: note_on channel=9 note=32 velocity=0 time=0
EXTRACT: note_on channel=9 note=26 velocity=0 time=0
EXTRACT: note_on channel=10 note=57 velocity=0 time=0.03378375
EXTRACT: note_on channel=7 note=57 velocity=0 time=0.11824312499999999
EXTRACT: note_on channel=7 note=54 velocity=98 time=0.00675675
EXTRACT: note_on channel=9 note=26 velocity=30 time=0
EXTRACT: note_on channel=9 note=32 velocity=30 time=0
EXTRACT: note_on channel=9 note=32 velocity=0 time=0.043918874999999996
EXTRACT: note_on channel=9 note=26 velocity=0 time=0
EXTRACT: note_on channel=7 note=54 velocity=0 time=0.152026875
EXTRACT: note_on channel=3 note=62 velocity=109 time=0.00675675
EXTRACT: note_on channel=7 note=57 velocity=101 time=0
EXTRACT: note_on channel=9 note=26 velocity=50 time=0
EXTRACT: note_on channel=9 note=32 velocity=50 time=0
EXTRACT: note_on channel=9 note=38 velocity=120 time=0
EXTRACT: note_on channel=9 note=42 velocity=80 time=0
EXTRACT: note_on channel=9 note=42 velocity=0 time=0.043918874999999996
EXTRACT: note_on channel=9 note=38 velocity=0 time=0
EXTRACT: note_on channel=9 note=32 velocity=0 time=0
EXTRACT: note_on channel=9 note=26 velocity=0 time=0
EXTRACT: note_on channel=3 note=62 velocity=0 time=0.043918874999999996
EXTRACT: note_on channel=7 note=57 velocity=0 time=0.108108
EXTRACT: note_on channel=3 note=62 velocity=101 time=0.00675675
EXTRACT: note_on channel=7 note=54 velocity=93 time=0
EXTRACT: note_on channel=9 note=26 velocity=30 time=0
EXTRACT: note_on channel=9 note=32 velocity=30 time=0
EXTRACT: note_on channel=9 note=32 velocity=0 time=0.043918874999999996
EXTRACT: note_on channel=9 note=26 velocity=0 time=0
EXTRACT: note_on channel=3 note=62 velocity=0 time=0.050675624999999995
EXTRACT: note_on channel=7 note=54 velocity=0 time=0.10135124999999999
EXTRACT: note_on channel=3 note=62 velocity=104 time=0.00675675
EXTRACT: note_on channel=7 note=50 velocity=90 time=0
EXTRACT: note_on channel=9 note=26 velocity=50 time=0
EXTRACT: note_on channel=9 note=32 velocity=50 time=0
EXTRACT: note_on channel=9 note=42 velocity=70 time=0
EXTRACT: note_on channel=9 note=42 velocity=0 time=0.043918874999999996
EXTRACT: note_on channel=9 note=32 velocity=0 time=0
EXTRACT: note_on channel=9 note=26 velocity=0 time=0
EXTRACT: note_on channel=3 note=62 velocity=0 time=0.10472962499999999
EXTRACT: note_on channel=7 note=50 velocity=0 time=0.04729725
EXTRACT: note_on channel=3 note=64 velocity=104 time=0.00675675
EXTRACT: note_on channel=7 note=54 velocity=90 time=0
EXTRACT: note_on channel=9 note=26 velocity=30 time=0
EXTRACT: note_on channel=9 note=32 velocity=30 time=0
EXTRACT: note_on channel=9 note=32 velocity=0 time=0.043918874999999996
EXTRACT: note_on channel=9 note=26 velocity=0 time=0
EXTRACT: note_on channel=3 note=64 velocity=0 time=0.077702625
EXTRACT: note_on channel=5 note=54 velocity=0 time=0.07432425
EXTRACT: note_on channel=1 note=38 velocity=0 time=0
EXTRACT: note_on channel=2 note=57 velocity=0 time=0
EXTRACT: note_on channel=2 note=62 velocity=0 time=0
EXTRACT: note_on channel=11 note=90 velocity=0 time=0
EXTRACT: note_on channel=6 note=45 velocity=0 time=0
EXTRACT: note_on channel=2 note=66 velocity=0 time=0
EXTRACT: note_on channel=11 note=81 velocity=0 time=0
EXTRACT: note_on channel=5 note=62 velocity=0 time=0
EXTRACT: note_on channel=11 note=86 velocity=0 time=0
EXTRACT: note_on channel=6 note=50 velocity=0 time=0
EXTRACT: note_on channel=5 note=57 velocity=0 time=0
EXTRACT: note_on channel=7 note=54 velocity=0 time=0
EXTRACT: note_on channel=5 note=50 velocity=0 time=0
EXTRACT: note_on channel=1 note=37 velocity=120 time=0.00675675
EXTRACT: note_on channel=2 note=57 velocity=100 time=0
EXTRACT: note_on channel=2 note=61 velocity=100 time=0
EXTRACT: note_on channel=2 note=66 velocity=100 time=0
EXTRACT: note_on channel=3 note=66 velocity=118 time=0
EXTRACT: note_on channel=5 note=49 velocity=99 time=0
EXTRACT: note_on channel=5 note=54 velocity=99 time=0
EXTRACT: note_on channel=5 note=57 velocity=99 time=0
EXTRACT: note_on channel=5 note=61 velocity=99 time=0
EXTRACT: note_on channel=6 note=42 velocity=101 time=0
EXTRACT: note_on channel=6 note=49 velocity=101 time=0
EXTRACT: note_on channel=7 note=49 velocity=104 time=0
EXTRACT: note_on channel=8 note=37 velocity=79 time=0
EXTRACT: note_on channel=9 note=26 velocity=50 time=0
EXTRACT: note_on channel=9 note=32 velocity=50 time=0
EXTRACT: note_on channel=9 note=36 velocity=120 time=0
EXTRACT: note_on channel=9 note=42 velocity=80 time=0
EXTRACT: note_on channel=10 note=52 velocity=120 time=0
EXTRACT: note_on channel=11 note=81 velocity=100 time=0
EXTRACT: note_on channel=11 note=85 velocity=100 time=0
EXTRACT: note_on channel=11 note=90 velocity=100 time=0
EXTRACT: note_on channel=10 note=57 velocity=120 time=0.03378375
EXTRACT: note_on channel=10 note=52 velocity=0 time=0.010135125
EXTRACT: note_on channel=9 note=42 velocity=0 time=0
EXTRACT: note_on channel=9 note=36 velocity=0 time=0
EXTRACT: note_on channel=9 note=32 velocity=0 time=0
EXTRACT: note_on channel=9 note=26 velocity=0 time=0
EXTRACT: note_on channel=10 note=57 velocity=0 time=0.03378375
EXTRACT: note_on channel=7 note=49 velocity=0 time=0.11824312499999999
EXTRACT: note_on channel=7 note=54 velocity=93 time=0.00675675
EXTRACT: note_on channel=9 note=26 velocity=30 time=0
EXTRACT: note_on channel=9 note=32 velocity=30 time=0
EXTRACT: note_on channel=9 note=32 velocity=0 time=0.043918874999999996
EXTRACT: note_on channel=9 note=26 velocity=0 time=0
EXTRACT: note_on channel=3 note=66 velocity=0 time=0.0405405
EXTRACT: note_on channel=7 note=54 velocity=0 time=0.111486375
EXTRACT: note_on channel=8 note=37 velocity=0 time=0
EXTRACT: note_on channel=3 note=69 velocity=118 time=0.00675675
EXTRACT: note_on channel=7 note=57 velocity=89 time=0
EXTRACT: note_on channel=9 note=26 velocity=50 time=0
EXTRACT: note_on channel=9 note=32 velocity=50 time=0
EXTRACT: note_on channel=9 note=42 velocity=70 time=0
EXTRACT: note_on channel=9 note=42 velocity=0 time=0.043918874999999996
EXTRACT: note_on channel=9 note=32 velocity=0 time=0
EXTRACT: note_on channel=9 note=26 velocity=0 time=0
EXTRACT: note_on channel=7 note=57 velocity=0 time=0.152026875
EXTRACT: note_on channel=7 note=54 velocity=77 time=0.00675675
EXTRACT: note_on channel=9 note=26 velocity=30 time=0
EXTRACT: note_on channel=9 note=32 velocity=30 time=0
EXTRACT: note_on channel=9 note=32 velocity=0 time=0.043918874999999996
EXTRACT: note_on channel=9 note=26 velocity=0 time=0
EXTRACT: note_on channel=3 note=69 velocity=0 time=0.030405375
EXTRACT: note_on channel=7 note=54 velocity=0 time=0.1216215
EXTRACT: note_on channel=3 note=66 velocity=121 time=0.00675675
EXTRACT: note_on channel=7 note=57 velocity=98 time=0
EXTRACT: note_on channel=9 note=26 velocity=50 time=0
EXTRACT: note_on channel=9 note=32 velocity=50 time=0
EXTRACT: note_on channel=9 note=38 velocity=120 time=0
EXTRACT: note_on channel=9 note=42 velocity=80 time=0
EXTRACT: note_on channel=9 note=42 velocity=0 time=0.043918874999999996
EXTRACT: note_on channel=9 note=38 velocity=0 time=0
EXTRACT: note_on channel=9 note=32 velocity=0 time=0
EXTRACT: note_on channel=9 note=26 velocity=0 time=0
EXTRACT: note_on channel=7 note=57 velocity=0 time=0.152026875
EXTRACT: note_on channel=7 note=54 velocity=98 time=0.00675675
EXTRACT: note_on channel=9 note=26 velocity=30 time=0
EXTRACT: note_on channel=9 note=32 velocity=30 time=0
EXTRACT: note_on channel=9 note=32 velocity=0 time=0.043918874999999996
EXTRACT: note_on channel=9 note=26 velocity=0 time=0
EXTRACT: note_on channel=7 note=54 velocity=0 time=0.152026875
EXTRACT: note_on channel=7 note=49 velocity=101 time=0.00675675
EXTRACT: note_on channel=9 note=26 velocity=50 time=0
EXTRACT: note_on channel=9 note=32 velocity=50 time=0
EXTRACT: note_on channel=9 note=42 velocity=70 time=0
EXTRACT: note_on channel=9 note=42 velocity=0 time=0.043918874999999996
EXTRACT: note_on channel=9 note=32 velocity=0 time=0
EXTRACT: note_on channel=9 note=26 velocity=0 time=0
EXTRACT: note_on channel=7 note=49 velocity=0 time=0.152026875
EXTRACT: note_on channel=1 note=37 velocity=0 time=0
EXTRACT: note_on channel=1 note=37 velocity=120 time=0.00675675
EXTRACT: note_on channel=7 note=54 velocity=95 time=0
EXTRACT: note_on channel=9 note=26 velocity=30 time=0
EXTRACT: note_on channel=9 note=32 velocity=30 time=0
EXTRACT: note_on channel=9 note=36 velocity=120 time=0
EXTRACT: note_on channel=10 note=52 velocity=120 time=0
EXTRACT: note_on channel=10 note=57 velocity=120 time=0.03378375
EXTRACT: note_on channel=10 note=52 velocity=0 time=0.010135125
EXTRACT: note_on channel=9 note=36 velocity=0 time=0
EXTRACT: note_on channel=9 note=32 velocity=0 time=0
EXTRACT: note_on channel=9 note=26 velocity=0 time=0
EXTRACT: note_on channel=10 note=57 velocity=0 time=0.03378375
EXTRACT: note_on channel=7 note=54 velocity=0 time=0.11824312499999999
EXTRACT: note_on channel=7 note=49 velocity=104 time=0.00675675
EXTRACT: note_on channel=9 note=26 velocity=50 time=0
EXTRACT: note_on channel=9 note=32 velocity=50 time=0
EXTRACT: note_on channel=9 note=42 velocity=80 time=0
EXTRACT: note_on channel=9 note=42 velocity=0 time=0.043918874999999996
EXTRACT: note_on channel=9 note=32 velocity=0 time=0
EXTRACT: note_on channel=9 note=26 velocity=0 time=0
EXTRACT: note_on channel=3 note=66 velocity=0 time=0.14189174999999998
EXTRACT: note_on channel=7 note=49 velocity=0 time=0.010135125
EXTRACT: note_on channel=1 note=37 velocity=0 time=0
EXTRACT: note_on channel=1 note=37 velocity=120 time=0.00675675
EXTRACT: note_on channel=7 note=54 velocity=86 time=0
EXTRACT: note_on channel=9 note=26 velocity=30 time=0
EXTRACT: note_on channel=9 note=32 velocity=30 time=0
EXTRACT: note_on channel=9 note=36 velocity=120 time=0
EXTRACT: note_on channel=10 note=52 velocity=120 time=0
EXTRACT: note_on channel=10 note=57 velocity=120 time=0.03378375
EXTRACT: note_on channel=10 note=52 velocity=0 time=0.010135125
EXTRACT: note_on channel=9 note=36 velocity=0 time=0
EXTRACT: note_on channel=9 note=32 velocity=0 time=0
EXTRACT: note_on channel=9 note=26 velocity=0 time=0
EXTRACT: note_on channel=10 note=57 velocity=0 time=0.03378375
EXTRACT: note_on channel=7 note=54 velocity=0 time=0.11824312499999999
EXTRACT: note_on channel=1 note=37 velocity=0 time=0
EXTRACT: note_on channel=1 note=37 velocity=120 time=0.00675675
EXTRACT: note_on channel=7 note=57 velocity=101 time=0
EXTRACT: note_on channel=9 note=26 velocity=50 time=0
EXTRACT: note_on channel=9 note=32 velocity=50 time=0
EXTRACT: note_on channel=9 note=36 velocity=120 time=0
EXTRACT: note_on channel=9 note=42 velocity=70 time=0
EXTRACT: note_on channel=10 note=52 velocity=120 time=0
EXTRACT: note_on channel=10 note=57 velocity=120 time=0.03378375
EXTRACT: note_on channel=10 note=52 velocity=0 time=0.010135125
EXTRACT: note_on channel=9 note=42 velocity=0 time=0
EXTRACT: note_on channel=9 note=36 velocity=0 time=0
EXTRACT: note_on channel=9 note=32 velocity=0 time=0
EXTRACT: note_on channel=9 note=26 velocity=0 time=0
EXTRACT: note_on channel=10 note=57 velocity=0 time=0.03378375
EXTRACT: note_on channel=7 note=57 velocity=0 time=0.11824312499999999
EXTRACT: note_on channel=7 note=54 velocity=98 time=0.00675675
EXTRACT: note_on channel=9 note=26 velocity=30 time=0
EXTRACT: note_on channel=9 note=32 velocity=30 time=0
EXTRACT: note_on channel=9 note=32 velocity=0 time=0.043918874999999996
EXTRACT: note_on channel=9 note=26 velocity=0 time=0
EXTRACT: note_on channel=7 note=54 velocity=0 time=0.152026875
EXTRACT: note_on channel=3 note=62 velocity=109 time=0.00675675
EXTRACT: note_on channel=7 note=57 velocity=101 time=0
EXTRACT: note_on channel=9 note=26 velocity=50 time=0
EXTRACT: note_on channel=9 note=32 velocity=50 time=0
EXTRACT: note_on channel=9 note=38 velocity=120 time=0
EXTRACT: note_on channel=9 note=42 velocity=80 time=0
EXTRACT: note_on channel=9 note=42 velocity=0 time=0.043918874999999996
EXTRACT: note_on channel=9 note=38 velocity=0 time=0
EXTRACT: note_on channel=9 note=32 velocity=0 time=0
EXTRACT: note_on channel=9 note=26 velocity=0 time=0
EXTRACT: note_on channel=3 note=62 velocity=0 time=0.043918874999999996
EXTRACT: note_on channel=7 note=57 velocity=0 time=0.108108
EXTRACT: note_on channel=3 note=62 velocity=101 time=0.00675675
EXTRACT: note_on channel=7 note=54 velocity=93 time=0
EXTRACT: note_on channel=9 note=26 velocity=30 time=0
EXTRACT: note_on channel=9 note=32 velocity=30 time=0
EXTRACT: note_on channel=9 note=32 velocity=0 time=0.043918874999999996
EXTRACT: note_on channel=9 note=26 velocity=0 time=0
EXTRACT: note_on channel=3 note=62 velocity=0 time=0.050675624999999995
EXTRACT: note_on channel=7 note=54 velocity=0 time=0.10135124999999999
EXTRACT: note_on channel=3 note=62 velocity=104 time=0.00675675
EXTRACT: note_on channel=7 note=49 velocity=90 time=0
EXTRACT: note_on channel=9 note=26 velocity=50 time=0
EXTRACT: note_on channel=9 note=32 velocity=50 time=0
EXTRACT: note_on channel=9 note=36 velocity=114 time=0
EXTRACT: note_on channel=9 note=42 velocity=70 time=0
EXTRACT: note_on channel=10 note=52 velocity=114 time=0
EXTRACT: note_on channel=10 note=57 velocity=114 time=0.03378375
EXTRACT: note_on channel=10 note=52 velocity=0 time=0.010135125
EXTRACT: note_on channel=9 note=42 velocity=0 time=0
EXTRACT: note_on channel=9 note=32 velocity=0 time=0
EXTRACT: note_on channel=9 note=26 velocity=0 time=0
EXTRACT: note_on channel=9 note=36 velocity=0 time=0
EXTRACT: note_on channel=10 note=57 velocity=0 time=0.03378375
EXTRACT: note_on channel=3 note=62 velocity=0 time=0.07094587499999999
EXTRACT: note_on channel=7 note=49 velocity=0 time=0.04729725
EXTRACT: note_on channel=3 note=64 velocity=104 time=0.00675675
EXTRACT: note_on channel=7 note=54 velocity=90 time=0
EXTRACT: note_on channel=9 note=26 velocity=30 time=0
EXTRACT: note_on channel=9 note=32 velocity=30 time=0
EXTRACT: note_on channel=9 note=36 velocity=114 time=0
EXTRACT: note_on channel=10 note=52 velocity=114 time=0
EXTRACT: note_on channel=10 note=57 velocity=114 time=0.03378375
EXTRACT: note_on channel=10 note=52 velocity=0 time=0.010135125
EXTRACT: note_on channel=9 note=36 velocity=0 time=0
EXTRACT: note_on channel=9 note=32 velocity=0 time=0
EXTRACT: note_on channel=9 note=26 velocity=0 time=0
EXTRACT: note_on channel=10 note=57 velocity=0 time=0.03378375
EXTRACT: note_on channel=3 note=64 velocity=0 time=0.043918874999999996
EXTRACT: note_on channel=2 note=57 velocity=0 time=0.07432425
EXTRACT: note_on channel=1 note=37 velocity=0 time=0
EXTRACT: note_on channel=5 note=61 velocity=0 time=0
EXTRACT: note_on channel=2 note=61 velocity=0 time=0
EXTRACT: note_on channel=11 note=90 velocity=0 time=0
EXTRACT: note_on channel=2 note=66 velocity=0 time=0
EXTRACT: note_on channel=6 note=49 velocity=0 time=0
EXTRACT: note_on channel=11 note=85 velocity=0 time=0
EXTRACT: note_on channel=5 note=54 velocity=0 time=0
EXTRACT: note_on channel=11 note=81 velocity=0 time=0
EXTRACT: note_on channel=6 note=42 velocity=0 time=0
EXTRACT: note_on channel=5 note=57 velocity=0 time=0
EXTRACT: note_on channel=7 note=54 velocity=0 time=0
EXTRACT: note_on channel=5 note=49 velocity=0 time=0
EXTRACT: note_on channel=1 note=35 velocity=120 time=0.00675675
EXTRACT: note_on channel=2 note=59 velocity=102 time=0
EXTRACT: note_on channel=2 note=62 velocity=102 time=0
EXTRACT: note_on channel=2 note=66 velocity=102 time=0
EXTRACT: note_on channel=3 note=66 velocity=118 time=0
EXTRACT: note_on channel=5 note=47 velocity=99 time=0
EXTRACT: note_on channel=5 note=54 velocity=99 time=0
EXTRACT: note_on channel=5 note=59 velocity=99 time=0
EXTRACT: note_on channel=5 note=62 velocity=99 time=0
EXTRACT: note_on channel=6 note=47 velocity=98 time=0
EXTRACT: note_on channel=6 note=54 velocity=98 time=0
EXTRACT: note_on channel=7 note=47 velocity=104 time=0
EXTRACT: note_on channel=8 note=35 velocity=82 time=0
EXTRACT: note_on channel=9 note=26 velocity=50 time=0
EXTRACT: note_on channel=9 note=32 velocity=50 time=0
EXTRACT: note_on channel=9 note=36 velocity=120 time=0
EXTRACT: note_on channel=9 note=42 velocity=80 time=0
EXTRACT: note_on channel=10 note=52 velocity=120 time=0
EXTRACT: note_on channel=11 note=83 velocity=102 time=0
EXTRACT: note_on channel=11 note=86 velocity=102 time=0
EXTRACT: note_on channel=11 note=90 velocity=102 time=0
EXTRACT: note_on channel=10 note=57 velocity=120 time=0.037162125
EXTRACT: note_on channel=10 note=52 velocity=0 time=0.00675675
EXTRACT: note_on channel=9 note=42 velocity=0 time=0
EXTRACT: note_on channel=9 note=36 velocity=0 time=0
EXTRACT: note_on channel=9 note=32 velocity=0 time=0
EXTRACT: note_on channel=9 note=26 velocity=0 time=0
EXTRACT: note_on channel=10 note=57 velocity=0 time=0.037162125
EXTRACT: note_on channel=7 note=47 velocity=0 time=0.11486475
EXTRACT: note_on channel=7 note=54 velocity=93 time=0.00675675
EXTRACT: note_on channel=9 note=26 velocity=30 time=0
EXTRACT: note_on channel=9 note=32 velocity=30 time=0
EXTRACT: note_on channel=9 note=32 velocity=0 time=0.043918874999999996
EXTRACT: note_on channel=9 note=26 velocity=0 time=0
EXTRACT: note_on channel=3 note=66 velocity=0 time=0.0405405
EXTRACT: note_on channel=7 note=54 velocity=0 time=0.111486375
EXTRACT: note_on channel=8 note=35 velocity=0 time=0
EXTRACT: note_on channel=3 note=69 velocity=118 time=0.00675675
EXTRACT: note_on channel=7 note=59 velocity=89 time=0
EXTRACT: note_on channel=9 note=26 velocity=50 time=0
EXTRACT: note_on channel=9 note=32 velocity=50 time=0
EXTRACT: note_on channel=9 note=42 velocity=70 time=0
EXTRACT: note_on channel=9 note=42 velocity=0 time=0.043918874999999996
EXTRACT: note_on channel=9 note=32 velocity=0 time=0
EXTRACT: note_on channel=9 note=26 velocity=0 time=0
EXTRACT: note_on channel=7 note=59 velocity=0 time=0.152026875
EXTRACT: note_on channel=7 note=54 velocity=77 time=0.00675675
EXTRACT: note_on channel=9 note=26 velocity=30 time=0
EXTRACT: note_on channel=9 note=32 velocity=30 time=0
EXTRACT: note_on channel=9 note=32 velocity=0 time=0.043918874999999996
EXTRACT: note_on channel=9 note=26 velocity=0 time=0
EXTRACT: note_on channel=3 note=69 velocity=0 time=0.030405375
EXTRACT: note_on channel=7 note=54 velocity=0 time=0.1216215
EXTRACT: note_on channel=3 note=66 velocity=121 time=0.00675675
EXTRACT: note_on channel=7 note=59 velocity=98 time=0
EXTRACT: note_on channel=9 note=26 velocity=50 time=0
EXTRACT: note_on channel=9 note=32 velocity=50 time=0
EXTRACT: note_on channel=9 note=38 velocity=120 time=0
EXTRACT: note_on channel=9 note=42 velocity=80 time=0
EXTRACT: note_on channel=9 note=42 velocity=0 time=0.043918874999999996
EXTRACT: note_on channel=9 note=38 velocity=0 time=0
EXTRACT: note_on channel=9 note=32 velocity=0 time=0
EXTRACT: note_on channel=9 note=26 velocity=0 time=0
EXTRACT: note_on channel=7 note=59 velocity=0 time=0.152026875
EXTRACT: note_on channel=7 note=54 velocity=98 time=0.00675675
EXTRACT: note_on channel=9 note=26 velocity=30 time=0
EXTRACT: note_on channel=9 note=32 velocity=30 time=0
EXTRACT: note_on channel=9 note=32 velocity=0 time=0.043918874999999996
EXTRACT: note_on channel=9 note=26 velocity=0 time=0
EXTRACT: note_on channel=7 note=54 velocity=0 time=0.152026875
EXTRACT: note_on channel=7 note=47 velocity=101 time=0.00675675
EXTRACT: note_on channel=9 note=26 velocity=50 time=0
EXTRACT: note_on channel=9 note=32 velocity=50 time=0
EXTRACT: note_on channel=9 note=42 velocity=70 time=0
EXTRACT: note_on channel=9 note=42 velocity=0 time=0.043918874999999996
EXTRACT: note_on channel=9 note=32 velocity=0 time=0
EXTRACT: note_on channel=9 note=26 velocity=0 time=0
EXTRACT: note_on channel=7 note=47 velocity=0 time=0.152026875
EXTRACT: note_on channel=1 note=35 velocity=0 time=0
EXTRACT: note_on channel=1 note=35 velocity=120 time=0.00675675
EXTRACT: note_on channel=7 note=54 velocity=95 time=0
EXTRACT: note_on channel=9 note=26 velocity=30 time=0
EXTRACT: note_on channel=9 note=32 velocity=30 time=0
EXTRACT: note_on channel=9 note=36 velocity=120 time=0
EXTRACT: note_on channel=10 note=52 velocity=120 time=0
EXTRACT: note_on channel=10 note=57 velocity=120 time=0.03378375
EXTRACT: note_on channel=10 note=52 velocity=0 time=0.010135125
EXTRACT: note_on channel=9 note=36 velocity=0 time=0
EXTRACT: note_on channel=9 note=32 velocity=0 time=0
EXTRACT: note_on channel=9 note=26 velocity=0 time=0
EXTRACT: note_on channel=10 note=57 velocity=0 time=0.03378375
EXTRACT: note_on channel=7 note=54 velocity=0 time=0.11824312499999999
EXTRACT: note_on channel=7 note=47 velocity=104 time=0.00675675
EXTRACT: note_on channel=9 note=26 velocity=50 time=0
EXTRACT: note_on channel=9 note=32 velocity=50 time=0
EXTRACT: note_on channel=9 note=42 velocity=80 time=0
EXTRACT: note_on channel=9 note=42 velocity=0 time=0.043918874999999996
EXTRACT: note_on channel=9 note=32 velocity=0 time=0
EXTRACT: note_on channel=9 note=26 velocity=0 time=0
EXTRACT: note_on channel=3 note=66 velocity=0 time=0.14189174999999998
EXTRACT: note_on channel=7 note=47 velocity=0 time=0.010135125
EXTRACT: note_on channel=1 note=35 velocity=0 time=0
EXTRACT: note_on channel=1 note=35 velocity=120 time=0.00675675
EXTRACT: note_on channel=3 note=62 velocity=104 time=0
EXTRACT: note_on channel=7 note=54 velocity=86 time=0
EXTRACT: note_on channel=9 note=26 velocity=30 time=0
EXTRACT: note_on channel=9 note=32 velocity=30 time=0
EXTRACT: note_on channel=9 note=36 velocity=120 time=0
EXTRACT: note_on channel=10 note=52 velocity=120 time=0
EXTRACT: note_on channel=10 note=57 velocity=120 time=0.03378375
EXTRACT: note_on channel=10 note=52 velocity=0 time=0.010135125
EXTRACT: note_on channel=9 note=36 velocity=0 time=0
EXTRACT: note_on channel=9 note=32 velocity=0 time=0
EXTRACT: note_on channel=9 note=26 velocity=0 time=0
EXTRACT: note_on channel=10 note=57 velocity=0 time=0.03378375
EXTRACT: note_on channel=3 note=62 velocity=0 time=0.10135124999999999
EXTRACT: note_on channel=7 note=54 velocity=0 time=0.016891875
EXTRACT: note_on channel=1 note=35 velocity=0 time=0
EXTRACT: note_on channel=1 note=35 velocity=120 time=0.00675675
EXTRACT: note_on channel=3 note=62 velocity=118 time=0
EXTRACT: note_on channel=7 note=59 velocity=101 time=0
EXTRACT: note_on channel=9 note=26 velocity=50 time=0
EXTRACT: note_on channel=9 note=32 velocity=50 time=0
EXTRACT: note_on channel=9 note=36 velocity=120 time=0
EXTRACT: note_on channel=9 note=42 velocity=70 time=0
EXTRACT: note_on channel=10 note=52 velocity=120 time=0
EXTRACT: note_on channel=10 note=57 velocity=120 time=0.03378375
EXTRACT: note_on channel=10 note=52 velocity=0 time=0.010135125
EXTRACT: note_on channel=9 note=42 velocity=0 time=0
EXTRACT: note_on channel=9 note=32 velocity=0 time=0
EXTRACT: note_on channel=9 note=26 velocity=0 time=0
EXTRACT: note_on channel=9 note=36 velocity=0 time=0
EXTRACT: note_on channel=10 note=57 velocity=0 time=0.03378375
EXTRACT: note_on channel=7 note=59 velocity=0 time=0.11824312499999999
EXTRACT: note_on channel=7 note=54 velocity=98 time=0.00675675
EXTRACT: note_on channel=9 note=26 velocity=30 time=0
EXTRACT: note_on channel=9 note=32 velocity=30 time=0
EXTRACT: note_on channel=9 note=32 velocity=0 time=0.043918874999999996
EXTRACT: note_on channel=9 note=26 velocity=0 time=0
EXTRACT: note_on channel=3 note=62 velocity=0 time=0.0135135
EXTRACT: note_on channel=7 note=54 velocity=0 time=0.138513375
EXTRACT: note_on channel=3 note=62 velocity=112 time=0.00675675
EXTRACT: note_on channel=7 note=59 velocity=101 time=0
EXTRACT: note_on channel=9 note=26 velocity=50 time=0
EXTRACT: note_on channel=9 note=32 velocity=50 time=0
EXTRACT: note_on channel=9 note=38 velocity=120 time=0
EXTRACT: note_on channel=9 note=42 velocity=80 time=0
EXTRACT: note_on channel=9 note=42 velocity=0 time=0.043918874999999996
EXTRACT: note_on channel=9 note=38 velocity=0 time=0
EXTRACT: note_on channel=9 note=32 velocity=0 time=0
EXTRACT: note_on channel=9 note=26 velocity=0 time=0
EXTRACT: note_on channel=3 note=62 velocity=0 time=0.0945945
EXTRACT: note_on channel=7 note=59 velocity=0 time=0.057432375
EXTRACT: note_on channel=3 note=62 velocity=98 time=0.00675675
EXTRACT: note_on channel=7 note=54 velocity=93 time=0
EXTRACT: note_on channel=9 note=26 velocity=30 time=0
EXTRACT: note_on channel=9 note=32 velocity=30 time=0
EXTRACT: note_on channel=9 note=32 velocity=0 time=0.043918874999999996
EXTRACT: note_on channel=9 note=26 velocity=0 time=0
EXTRACT: note_on channel=3 note=62 velocity=0 time=0.043918874999999996
EXTRACT: note_on channel=7 note=54 velocity=0 time=0.108108
EXTRACT: note_on channel=3 note=62 velocity=115 time=0.00675675
EXTRACT: note_on channel=7 note=47 velocity=90 time=0
EXTRACT: note_on channel=9 note=26 velocity=50 time=0
EXTRACT: note_on channel=9 note=32 velocity=50 time=0
EXTRACT: note_on channel=9 note=42 velocity=70 time=0
EXTRACT: note_on channel=9 note=42 velocity=0 time=0.043918874999999996
EXTRACT: note_on channel=9 note=32 velocity=0 time=0
EXTRACT: note_on channel=9 note=26 velocity=0 time=0
EXTRACT: note_on channel=7 note=47 velocity=0 time=0.152026875
EXTRACT: note_on channel=3 note=62 velocity=0 time=0
EXTRACT: note_on channel=7 note=54 velocity=90 time=0.00675675
EXTRACT: note_on channel=9 note=26 velocity=30 time=0
EXTRACT: note_on channel=9 note=32 velocity=30 time=0
EXTRACT: note_on channel=9 note=32 velocity=0 time=0.043918874999999996
EXTRACT: note_on channel=9 note=26 velocity=0 time=0
EXTRACT: note_on channel=1 note=35 velocity=0 time=0.152026875
EXTRACT: note_on channel=5 note=54 velocity=0 time=0
EXTRACT: note_on channel=5 note=62 velocity=0 time=0
EXTRACT: note_on channel=2 note=62 velocity=0 time=0
EXTRACT: note_on channel=11 note=90 velocity=0 time=0
EXTRACT: note_on channel=11 note=86 velocity=0 time=0
EXTRACT: note_on channel=6 note=47 velocity=0 time=0
EXTRACT: note_on channel=6 note=54 velocity=0 time=0
EXTRACT: note_on channel=2 note=59 velocity=0 time=0
EXTRACT: note_on channel=11 note=83 velocity=0 time=0
EXTRACT: note_on channel=2 note=66 velocity=0 time=0
EXTRACT: note_on channel=5 note=59 velocity=0 time=0
EXTRACT: note_on channel=7 note=54 velocity=0 time=0
EXTRACT: note_on channel=5 note=47 velocity=0 time=0
EXTRACT: note_on channel=1 note=31 velocity=118 time=0.00675675
EXTRACT: note_on channel=2 note=59 velocity=101 time=0
EXTRACT: note_on channel=2 note=62 velocity=101 time=0
EXTRACT: note_on channel=2 note=67 velocity=101 time=0
EXTRACT: note_on channel=3 note=67 velocity=121 time=0
EXTRACT: note_on channel=4 note=55 velocity=121 time=0
EXTRACT: note_on channel=4 note=59 velocity=121 time=0
EXTRACT: note_on channel=4 note=67 velocity=121 time=0
EXTRACT: note_on channel=5 note=43 velocity=101 time=0
EXTRACT: note_on channel=5 note=55 velocity=101 time=0
EXTRACT: note_on channel=5 note=59 velocity=101 time=0
EXTRACT: note_on channel=5 note=62 velocity=101 time=0
EXTRACT: note_on channel=6 note=43 velocity=99 time=0
EXTRACT: note_on channel=6 note=50 velocity=99 time=0
EXTRACT: note_on channel=7 note=47 velocity=104 time=0
EXTRACT: note_on channel=8 note=31 velocity=81 time=0
EXTRACT: note_on channel=9 note=26 velocity=50 time=0
EXTRACT: note_on channel=9 note=32 velocity=50 time=0
EXTRACT: note_on channel=9 note=36 velocity=120 time=0
EXTRACT: note_on channel=9 note=42 velocity=80 time=0
EXTRACT: note_on channel=10 note=52 velocity=120 time=0
EXTRACT: note_on channel=11 note=83 velocity=101 time=0
EXTRACT: note_on channel=11 note=86 velocity=101 time=0
EXTRACT: note_on channel=11 note=91 velocity=101 time=0
EXTRACT: note_on channel=15 note=55 velocity=1 time=0
EXTRACT: note_on channel=15 note=67 velocity=1 time=0
EXTRACT: note_on channel=15 note=59 velocity=1 time=0
EXTRACT: note_on channel=10 note=57 velocity=120 time=0.03378375
EXTRACT: note_on channel=10 note=52 velocity=0 time=0.010135125
EXTRACT: note_on channel=9 note=42 velocity=0 time=0
EXTRACT: note_on channel=9 note=26 velocity=0 time=0
EXTRACT: note_on channel=9 note=36 velocity=0 time=0
EXTRACT: note_on channel=9 note=32 velocity=0 time=0
EXTRACT: note_on channel=10 note=57 velocity=0 time=0.03378375
EXTRACT: note_on channel=7 note=47 velocity=0 time=0.11824312499999999
EXTRACT: note_on channel=7 note=50 velocity=93 time=0.00675675
EXTRACT: note_on channel=9 note=26 velocity=30 time=0
EXTRACT: note_on channel=9 note=32 velocity=30 time=0
EXTRACT: note_on channel=9 note=32 velocity=0 time=0.043918874999999996
EXTRACT: note_on channel=9 note=26 velocity=0 time=0
EXTRACT: note_on channel=7 note=50 velocity=0 time=0.152026875
EXTRACT: note_on channel=8 note=31 velocity=0 time=0
EXTRACT: note_on channel=7 note=59 velocity=89 time=0.00675675
EXTRACT: note_on channel=9 note=26 velocity=50 time=0
EXTRACT: note_on channel=9 note=32 velocity=50 time=0
EXTRACT: note_on channel=9 note=42 velocity=70 time=0
EXTRACT: note_on channel=9 note=42 velocity=0 time=0.043918874999999996
EXTRACT: note_on channel=9 note=26 velocity=0 time=0
EXTRACT: note_on channel=9 note=32 velocity=0 time=0
EXTRACT: note_on channel=7 note=59 velocity=0 time=0.152026875
EXTRACT: note_on channel=7 note=50 velocity=77 time=0.00675675
EXTRACT: note_on channel=9 note=26 velocity=30 time=0
EXTRACT: note_on channel=9 note=32 velocity=30 time=0
EXTRACT: note_on channel=9 note=32 velocity=0 time=0.043918874999999996
EXTRACT: note_on channel=9 note=26 velocity=0 time=0
EXTRACT: note_on channel=4 note=67 velocity=0 time=0.027027
EXTRACT: note_on channel=4 note=59 velocity=0 time=0
EXTRACT: note_on channel=15 note=67 velocity=0 time=0
EXTRACT: note_on channel=15 note=55 velocity=0 time=0
EXTRACT: note_on channel=15 note=59 velocity=0 time=0
EXTRACT: note_on channel=4 note=55 velocity=0 time=0
EXTRACT: note_on channel=3 note=67 velocity=0 time=0
EXTRACT: note_on channel=7 note=50 velocity=0 time=0.124999875
EXTRACT: note_on channel=3 note=66 velocity=121 time=0.00675675
EXTRACT: note_on channel=4 note=54 velocity=121 time=0
EXTRACT: note_on channel=4 note=57 velocity=121 time=0
EXTRACT: note_on channel=4 note=66 velocity=121 time=0
EXTRACT: note_on channel=7 note=59 velocity=98 time=0
EXTRACT: note_on channel=9 note=26 velocity=50 time=0
EXTRACT: note_on channel=9 note=32 velocity=50 time=0
EXTRACT: note_on channel=9 note=38 velocity=120 time=0
EXTRACT: note_on channel=9 note=42 velocity=80 time=0
EXTRACT: note_on channel=15 note=57 velocity=1 time=0
EXTRACT: note_on channel=15 note=66 velocity=1 time=0
EXTRACT: note_on channel=15 note=54 velocity=1 time=0
EXTRACT: note_on channel=9 note=42 velocity=0 time=0.043918874999999996
EXTRACT: note_on channel=9 note=38 velocity=0 time=0
EXTRACT: note_on channel=9 note=32 velocity=0 time=0
EXTRACT: note_on channel=9 note=26 velocity=0 time=0
EXTRACT: note_on channel=7 note=59 velocity=0 time=0.152026875
EXTRACT: note_on channel=7 note=50 velocity=98 time=0.00675675
EXTRACT: note_on channel=9 note=26 velocity=30 time=0
EXTRACT: note_on channel=9 note=32 velocity=30 time=0
EXTRACT: note_on channel=9 note=32 velocity=0 time=0.043918874999999996
EXTRACT: note_on channel=9 note=26 velocity=0 time=0
EXTRACT: note_on channel=7 note=50 velocity=0 time=0.152026875
EXTRACT: note_on channel=7 note=47 velocity=78 time=0.00675675
EXTRACT: note_on channel=9 note=26 velocity=50 time=0
EXTRACT: note_on channel=9 note=32 velocity=50 time=0
EXTRACT: note_on channel=9 note=42 velocity=70 time=0
EXTRACT: note_on channel=9 note=42 velocity=0 time=0.043918874999999996
EXTRACT: note_on channel=9 note=26 velocity=0 time=0
EXTRACT: note_on channel=9 note=32 velocity=0 time=0
EXTRACT: note_on channel=7 note=47 velocity=0 time=0.152026875
EXTRACT: note_on channel=1 note=31 velocity=0 time=0
EXTRACT: note_on channel=1 note=31 velocity=118 time=0.00675675
EXTRACT: note_on channel=7 note=50 velocity=63 time=0
EXTRACT: note_on channel=9 note=26 velocity=30 time=0
EXTRACT: note_on channel=9 note=32 velocity=30 time=0
EXTRACT: note_on channel=9 note=36 velocity=120 time=0
EXTRACT: note_on channel=10 note=52 velocity=120 time=0
EXTRACT: note_on channel=4 note=66 velocity=0 time=0.00675675
EXTRACT: note_on channel=15 note=57 velocity=0 time=0
EXTRACT: note_on channel=4 note=54 velocity=0 time=0
EXTRACT: note_on channel=4 note=57 velocity=0 time=0
EXTRACT: note_on channel=15 note=54 velocity=0 time=0
EXTRACT: note_on channel=15 note=66 velocity=0 time=0
EXTRACT: note_on channel=3 note=66 velocity=0 time=0
EXTRACT: note_on channel=10 note=57 velocity=120 time=0.027027
EXTRACT: note_on channel=9 note=36 velocity=0 time=0.010135125
EXTRACT: note_on channel=10 note=52 velocity=0 time=0
EXTRACT: note_on channel=9 note=32 velocity=0 time=0
EXTRACT: note_on channel=9 note=26 velocity=0 time=0
EXTRACT: note_on channel=10 note=57 velocity=0 time=0.03378375
EXTRACT: note_on channel=7 note=50 velocity=0 time=0.11824312499999999
EXTRACT: note_on channel=3 note=64 velocity=121 time=0.00675675
EXTRACT: note_on channel=4 note=52 velocity=121 time=0
EXTRACT: note_on channel=4 note=55 velocity=121 time=0
EXTRACT: note_on channel=4 note=64 velocity=121 time=0
EXTRACT: note_on channel=7 note=47 velocity=76 time=0
EXTRACT: note_on channel=9 note=26 velocity=50 time=0
EXTRACT: note_on channel=9 note=32 velocity=50 time=0
EXTRACT: note_on channel=9 note=42 velocity=80 time=0
EXTRACT: note_on channel=15 note=52 velocity=1 time=0
EXTRACT: note_on channel=15 note=64 velocity=1 time=0
EXTRACT: note_on channel=15 note=55 velocity=1 time=0
EXTRACT: note_on channel=9 note=42 velocity=0 time=0.043918874999999996
EXTRACT: note_on channel=9 note=32 velocity=0 time=0
EXTRACT: note_on channel=9 note=26 velocity=0 time=0
EXTRACT: note_on channel=1 note=31 velocity=0 time=0.152026875
EXTRACT: note_on channel=7 note=47 velocity=0 time=0
EXTRACT: note_on channel=1 note=31 velocity=118 time=0.00675675
EXTRACT: note_on channel=7 note=50 velocity=86 time=0
EXTRACT: note_on channel=9 note=26 velocity=30 time=0
EXTRACT: note_on channel=9 note=32 velocity=30 time=0
EXTRACT: note_on channel=9 note=36 velocity=120 time=0
EXTRACT: note_on channel=10 note=52 velocity=120 time=0
EXTRACT: note_on channel=10 note=57 velocity=120 time=0.03378375
EXTRACT: note_on channel=10 note=52 velocity=0 time=0.010135125
EXTRACT: note_on channel=9 note=26 velocity=0 time=0
EXTRACT: note_on channel=9 note=36 velocity=0 time=0
EXTRACT: note_on channel=9 note=32 velocity=0 time=0
EXTRACT: note_on channel=10 note=57 velocity=0 time=0.03378375
EXTRACT: note_on channel=4 note=55 velocity=0 time=0.0135135
EXTRACT: note_on channel=15 note=52 velocity=0 time=0
EXTRACT: note_on channel=4 note=64 velocity=0 time=0
EXTRACT: note_on channel=15 note=64 velocity=0 time=0
EXTRACT: note_on channel=15 note=55 velocity=0 time=0
EXTRACT: note_on channel=4 note=52 velocity=0 time=0
EXTRACT: note_on channel=3 note=64 velocity=0 time=0
EXTRACT: note_on channel=1 note=31 velocity=0 time=0.10472962499999999
EXTRACT: note_on channel=7 note=50 velocity=0 time=0
EXTRACT: note_on channel=1 note=31 velocity=118 time=0.00675675
EXTRACT: note_on channel=3 note=62 velocity=118 time=0
EXTRACT: note_on channel=4 note=50 velocity=118 time=0
EXTRACT: note_on channel=4 note=54 velocity=118 time=0
EXTRACT: note_on channel=4 note=62 velocity=118 time=0
EXTRACT: note_on channel=7 note=55 velocity=88 time=0
EXTRACT: note_on channel=9 note=26 velocity=50 time=0
EXTRACT: note_on channel=9 note=32 velocity=50 time=0
EXTRACT: note_on channel=9 note=36 velocity=120 time=0
EXTRACT: note_on channel=9 note=42 velocity=70 time=0
EXTRACT: note_on channel=10 note=52 velocity=120 time=0
EXTRACT: note_on channel=15 note=50 velocity=1 time=0
EXTRACT: note_on channel=15 note=54 velocity=1 time=0
EXTRACT: note_on channel=15 note=62 velocity=1 time=0
EXTRACT: note_on channel=10 note=57 velocity=120 time=0.03378375
EXTRACT: note_on channel=10 note=52 velocity=0 time=0.010135125
EXTRACT: note_on channel=9 note=42 velocity=0 time=0
EXTRACT: note_on channel=9 note=36 velocity=0 time=0
EXTRACT: note_on channel=9 note=32 velocity=0 time=0
EXTRACT: note_on channel=9 note=26 velocity=0 time=0
EXTRACT: note_on channel=10 note=57 velocity=0 time=0.03378375
EXTRACT: note_on channel=7 note=55 velocity=0 time=0.11824312499999999
EXTRACT: note_on channel=7 note=50 velocity=88 time=0.00675675
EXTRACT: note_on channel=9 note=26 velocity=30 time=0
EXTRACT: note_on channel=9 note=32 velocity=30 time=0
EXTRACT: note_on channel=9 note=32 velocity=0 time=0.043918874999999996
EXTRACT: note_on channel=9 note=26 velocity=0 time=0
EXTRACT: note_on channel=15 note=50 velocity=0 time=0.010135125
EXTRACT: note_on channel=4 note=50 velocity=0 time=0
EXTRACT: note_on channel=4 note=62 velocity=0 time=0
EXTRACT: note_on channel=4 note=54 velocity=0 time=0
EXTRACT: note_on channel=15 note=62 velocity=0 time=0
EXTRACT: note_on channel=3 note=62 velocity=0 time=0
EXTRACT: note_on channel=15 note=54 velocity=0 time=0
EXTRACT: note_on channel=7 note=50 velocity=0 time=0.14189174999999998
EXTRACT: note_on channel=3 note=62 velocity=121 time=0.00675675
EXTRACT: note_on channel=4 note=50 velocity=121 time=0
EXTRACT: note_on channel=4 note=54 velocity=121 time=0
EXTRACT: note_on channel=4 note=62 velocity=121 time=0
EXTRACT: note_on channel=7 note=55 velocity=81 time=0
EXTRACT: note_on channel=9 note=26 velocity=50 time=0
EXTRACT: note_on channel=9 note=32 velocity=50 time=0
EXTRACT: note_on channel=9 note=38 velocity=120 time=0
EXTRACT: note_on channel=9 note=42 velocity=80 time=0
EXTRACT: note_on channel=15 note=50 velocity=1 time=0
EXTRACT: note_on channel=15 note=54 velocity=1 time=0
EXTRACT: note_on channel=15 note=62 velocity=1 time=0
EXTRACT: note_on channel=9 note=42 velocity=0 time=0.043918874999999996
EXTRACT: note_on channel=9 note=38 velocity=0 time=0
EXTRACT: note_on channel=9 note=32 velocity=0 time=0
EXTRACT: note_on channel=9 note=26 velocity=0 time=0
EXTRACT: note_on channel=7 note=55 velocity=0 time=0.152026875
EXTRACT: note_on channel=7 note=50 velocity=73 time=0.00675675
EXTRACT: note_on channel=9 note=26 velocity=30 time=0
EXTRACT: note_on channel=9 note=32 velocity=30 time=0
EXTRACT: note_on channel=9 note=32 velocity=0 time=0.043918874999999996
EXTRACT: note_on channel=9 note=26 velocity=0 time=0
EXTRACT: note_on channel=15 note=50 velocity=0 time=0.10472962499999999
EXTRACT: note_on channel=4 note=50 velocity=0 time=0
EXTRACT: note_on channel=4 note=62 velocity=0 time=0
EXTRACT: note_on channel=4 note=54 velocity=0 time=0
EXTRACT: note_on channel=15 note=62 velocity=0 time=0
EXTRACT: note_on channel=15 note=54 velocity=0 time=0
EXTRACT: note_on channel=3 note=62 velocity=0 time=0
EXTRACT: note_on channel=7 note=50 velocity=0 time=0.04729725
EXTRACT: note_on channel=3 note=59 velocity=118 time=0.00675675
EXTRACT: note_on channel=4 note=47 velocity=118 time=0
EXTRACT: note_on channel=4 note=52 velocity=118 time=0
EXTRACT: note_on channel=4 note=59 velocity=118 time=0
EXTRACT: note_on channel=7 note=55 velocity=73 time=0
EXTRACT: note_on channel=9 note=26 velocity=50 time=0
EXTRACT: note_on channel=9 note=32 velocity=50 time=0
EXTRACT: note_on channel=9 note=36 velocity=114 time=0
EXTRACT: note_on channel=9 note=42 velocity=70 time=0
EXTRACT: note_on channel=10 note=52 velocity=114 time=0
EXTRACT: note_on channel=15 note=47 velocity=1 time=0
EXTRACT: note_on channel=15 note=59 velocity=1 time=0
EXTRACT: note_on channel=15 note=52 velocity=1 time=0
EXTRACT: note_on channel=10 note=57 velocity=114 time=0.03378375
EXTRACT: note_on channel=10 note=52 velocity=0 time=0.010135125
EXTRACT: note_on channel=9 note=42 velocity=0 time=0
EXTRACT: note_on channel=9 note=36 velocity=0 time=0
EXTRACT: note_on channel=9 note=32 velocity=0 time=0
EXTRACT: note_on channel=9 note=26 velocity=0 time=0
EXTRACT: note_on channel=10 note=57 velocity=0 time=0.03378375
EXTRACT: note_on channel=7 note=55 velocity=0 time=0.11824312499999999
EXTRACT: note_on channel=7 note=50 velocity=71 time=0.00675675
EXTRACT: note_on channel=9 note=26 velocity=30 time=0
EXTRACT: note_on channel=9 note=32 velocity=30 time=0
EXTRACT: note_on channel=9 note=36 velocity=114 time=0
EXTRACT: note_on channel=9 note=57 velocity=110 time=0
EXTRACT: note_on channel=10 note=52 velocity=114 time=0
EXTRACT: note_on channel=10 note=57 velocity=114 time=0.03378375
EXTRACT: note_on channel=10 note=52 velocity=0 time=0.010135125
EXTRACT: note_on channel=9 note=26 velocity=0 time=0
EXTRACT: note_on channel=9 note=57 velocity=0 time=0
EXTRACT: note_on channel=9 note=36 velocity=0 time=0
EXTRACT: note_on channel=9 note=32 velocity=0 time=0
EXTRACT: note_on channel=10 note=57 velocity=0 time=0.03378375
EXTRACT: note_on channel=5 note=59 velocity=0 time=0.11824312499999999
EXTRACT: note_on channel=2 note=67 velocity=0 time=0
EXTRACT: note_on channel=5 note=62 velocity=0 time=0
EXTRACT: note_on channel=4 note=47 velocity=0 time=0
EXTRACT: note_on channel=11 note=86 velocity=0 time=0
EXTRACT: note_on channel=2 note=62 velocity=0 time=0
EXTRACT: note_on channel=5 note=55 velocity=0 time=0
EXTRACT: note_on channel=5 note=43 velocity=0 time=0
EXTRACT: note_on channel=6 note=43 velocity=0 time=0
EXTRACT: note_on channel=15 note=59 velocity=0 time=0
EXTRACT: note_on channel=15 note=47 velocity=0 time=0
EXTRACT: note_on channel=6 note=50 velocity=0 time=0
EXTRACT: note_on channel=11 note=83 velocity=0 time=0
EXTRACT: note_on channel=4 note=52 velocity=0 time=0
EXTRACT: note_on channel=2 note=59 velocity=0 time=0
EXTRACT: note_on channel=1 note=31 velocity=0 time=0
EXTRACT: note_on channel=15 note=52 velocity=0 time=0
EXTRACT: note_on channel=7 note=50 velocity=0 time=0
EXTRACT: note_on channel=4 note=59 velocity=0 time=0
EXTRACT: note_on channel=3 note=59 velocity=0 time=0
EXTRACT: note_on channel=11 note=91 velocity=0 time=0
EXTRACT: note_on channel=1 note=38 velocity=121 time=0.00675675
EXTRACT: note_on channel=2 note=57 velocity=102 time=0
EXTRACT: note_on channel=2 note=62 velocity=102 time=0
EXTRACT: note_on channel=2 note=66 velocity=102 time=0
EXTRACT: note_on channel=3 note=57 velocity=106 time=0
EXTRACT: note_on channel=4 note=45 velocity=118 time=0
EXTRACT: note_on channel=4 note=50 velocity=118 time=0
EXTRACT: note_on channel=4 note=57 velocity=118 time=0
EXTRACT: note_on channel=5 note=50 velocity=100 time=0
EXTRACT: note_on channel=5 note=54 velocity=100 time=0
EXTRACT: note_on channel=5 note=57 velocity=100 time=0
EXTRACT: note_on channel=5 note=62 velocity=100 time=0
EXTRACT: note_on channel=6 note=45 velocity=99 time=0
EXTRACT: note_on channel=6 note=50 velocity=99 time=0
EXTRACT: note_on channel=7 note=50 velocity=104 time=0
EXTRACT: note_on channel=8 note=38 velocity=79 time=0
EXTRACT: note_on channel=9 note=26 velocity=50 time=0
EXTRACT: note_on channel=9 note=32 velocity=50 time=0
EXTRACT: note_on channel=9 note=36 velocity=120 time=0
EXTRACT: note_on channel=9 note=42 velocity=80 time=0
EXTRACT: note_on channel=10 note=52 velocity=120 time=0
EXTRACT: note_on channel=11 note=81 velocity=102 time=0
EXTRACT: note_on channel=11 note=86 velocity=102 time=0
EXTRACT: note_on channel=11 note=90 velocity=102 time=0
EXTRACT: note_on channel=15 note=45 velocity=1 time=0
EXTRACT: note_on channel=15 note=50 velocity=1 time=0
EXTRACT: note_on channel=15 note=57 velocity=1 time=0
EXTRACT: note_on channel=10 note=57 velocity=120 time=0.037162125
EXTRACT: note_on channel=10 note=52 velocity=0 time=0.00675675
EXTRACT: note_on channel=9 note=42 velocity=0 time=0
EXTRACT: note_on channel=9 note=26 velocity=0 time=0
EXTRACT: note_on channel=9 note=36 velocity=0 time=0
EXTRACT: note_on channel=9 note=32 velocity=0 time=0
EXTRACT: note_on channel=10 note=57 velocity=0 time=0.037162125
EXTRACT: note_on channel=7 note=50 velocity=0 time=0.11486475
EXTRACT: note_on channel=7 note=54 velocity=93 time=0.00675675
EXTRACT: note_on channel=9 note=26 velocity=30 time=0
EXTRACT: note_on channel=9 note=32 velocity=30 time=0
EXTRACT: note_on channel=9 note=32 velocity=0 time=0.043918874999999996
EXTRACT: note_on channel=9 note=26 velocity=0 time=0
EXTRACT: note_on channel=3 note=57 velocity=0 time=0.050675624999999995
EXTRACT: note_on channel=15 note=45 velocity=0 time=0.10135124999999999
EXTRACT: note_on channel=8 note=38 velocity=0 time=0
EXTRACT: note_on channel=7 note=54 velocity=0 time=0
EXTRACT: note_on channel=4 note=57 velocity=0 time=0
EXTRACT: note_on channel=15 note=57 velocity=0 time=0
EXTRACT: note_on channel=15 note=50 velocity=0 time=0
EXTRACT: note_on channel=4 note=50 velocity=0 time=0
EXTRACT: note_on channel=4 note=45 velocity=0 time=0
EXTRACT: note_on channel=3 note=69 velocity=118 time=0.00675675
EXTRACT: note_on channel=7 note=57 velocity=89 time=0
EXTRACT: note_on channel=9 note=26 velocity=50 time=0
EXTRACT: note_on channel=9 note=32 velocity=50 time=0
EXTRACT: note_on channel=9 note=42 velocity=70 time=0
EXTRACT: note_on channel=9 note=42 velocity=0 time=0.043918874999999996
EXTRACT: note_on channel=9 note=32 velocity=0 time=0
EXTRACT: note_on channel=9 note=26 velocity=0 time=0
EXTRACT: note_on channel=7 note=57 velocity=0 time=0.152026875
EXTRACT: note_on channel=7 note=54 velocity=77 time=0.00675675
EXTRACT: note_on channel=9 note=26 velocity=30 time=0
EXTRACT: note_on channel=9 note=32 velocity=30 time=0
EXTRACT: note_on channel=3 note=69 velocity=0 time=0.010135125
EXTRACT: note_on channel=9 note=32 velocity=0 time=0.03378375
EXTRACT: note_on channel=9 note=26 velocity=0 time=0
EXTRACT: note_on channel=7 note=54 velocity=0 time=0.152026875
EXTRACT: note_on channel=3 note=66 velocity=112 time=0.00675675
EXTRACT: note_on channel=7 note=57 velocity=98 time=0
EXTRACT: note_on channel=9 note=26 velocity=50 time=0
EXTRACT: note_on channel=9 note=32 velocity=50 time=0
EXTRACT: note_on channel=9 note=38 velocity=120 time=0
EXTRACT: note_on channel=9 note=42 velocity=80 time=0
EXTRACT: note_on channel=9 note=42 velocity=0 time=0.043918874999999996
EXTRACT: note_on channel=9 note=38 velocity=0 time=0
EXTRACT: note_on channel=9 note=32 velocity=0 time=0
EXTRACT: note_on channel=9 note=26 velocity=0 time=0
EXTRACT: note_on channel=7 note=57 velocity=0 time=0.152026875
EXTRACT: note_on channel=7 note=54 velocity=98 time=0.00675675
EXTRACT: note_on channel=9 note=26 velocity=30 time=0
EXTRACT: note_on channel=9 note=32 velocity=30 time=0
EXTRACT: note_on channel=9 note=32 velocity=0 time=0.043918874999999996
EXTRACT: note_on channel=9 note=26 velocity=0 time=0
EXTRACT: note_on channel=7 note=54 velocity=0 time=0.152026875
EXTRACT: note_on channel=7 note=50 velocity=101 time=0.00675675
EXTRACT: note_on channel=9 note=26 velocity=50 time=0
EXTRACT: note_on channel=9 note=32 velocity=50 time=0
EXTRACT: note_on channel=9 note=42 velocity=70 time=0
EXTRACT: note_on channel=9 note=42 velocity=0 time=0.043918874999999996
EXTRACT: note_on channel=9 note=32 velocity=0 time=0
EXTRACT: note_on channel=9 note=26 velocity=0 time=0
EXTRACT: note_on channel=7 note=50 velocity=0 time=0.152026875
EXTRACT: note_on channel=1 note=38 velocity=0 time=0
EXTRACT: note_on channel=1 note=38 velocity=121 time=0.00675675
EXTRACT: note_on channel=7 note=54 velocity=95 time=0
EXTRACT: note_on channel=9 note=26 velocity=30 time=0
EXTRACT: note_on channel=9 note=32 velocity=30 time=0
EXTRACT: note_on channel=9 note=36 velocity=120 time=0
EXTRACT: note_on channel=10 note=52 velocity=120 time=0
EXTRACT: note_on channel=10 note=57 velocity=120 time=0.03378375
EXTRACT: note_on channel=10 note=52 velocity=0 time=0.010135125
EXTRACT: note_on channel=9 note=36 velocity=0 time=0
EXTRACT: note_on channel=9 note=32 velocity=0 time=0
EXTRACT: note_on channel=9 note=26 velocity=0 time=0
EXTRACT: note_on channel=10 note=57 velocity=0 time=0.03378375
EXTRACT: note_on channel=3 note=66 velocity=0 time=0.054054
EXTRACT: note_on channel=7 note=54 velocity=0 time=0.064189125
EXTRACT: note_on channel=7 note=50 velocity=104 time=0.00675675
EXTRACT: note_on channel=9 note=26 velocity=50 time=0
EXTRACT: note_on channel=9 note=32 velocity=50 time=0
EXTRACT: note_on channel=9 note=42 velocity=80 time=0
EXTRACT: note_on channel=9 note=42 velocity=0 time=0.043918874999999996
EXTRACT: note_on channel=9 note=32 velocity=0 time=0
EXTRACT: note_on channel=9 note=26 velocity=0 time=0
EXTRACT: note_on channel=7 note=50 velocity=0 time=0.152026875
EXTRACT: note_on channel=1 note=38 velocity=0 time=0
EXTRACT: note_on channel=1 note=38 velocity=121 time=0.00675675
EXTRACT: note_on channel=7 note=54 velocity=86 time=0
EXTRACT: note_on channel=9 note=26 velocity=30 time=0
EXTRACT: note_on channel=9 note=32 velocity=30 time=0
EXTRACT: note_on channel=9 note=36 velocity=120 time=0
EXTRACT: note_on channel=10 note=52 velocity=120 time=0
EXTRACT: note_on channel=10 note=57 velocity=120 time=0.03378375
EXTRACT: note_on channel=10 note=52 velocity=0 time=0.010135125
EXTRACT: note_on channel=9 note=36 velocity=0 time=0
EXTRACT: note_on channel=9 note=32 velocity=0 time=0
EXTRACT: note_on channel=9 note=26 velocity=0 time=0
EXTRACT: note_on channel=10 note=57 velocity=0 time=0.03378375
EXTRACT: note_on channel=7 note=54 velocity=0 time=0.11824312499999999
EXTRACT: note_on channel=1 note=38 velocity=0 time=0
EXTRACT: note_on channel=1 note=38 velocity=121 time=0.00675675
EXTRACT: note_on channel=7 note=57 velocity=101 time=0
EXTRACT: note_on channel=9 note=26 velocity=50 time=0
EXTRACT: note_on channel=9 note=32 velocity=50 time=0
EXTRACT: note_on channel=9 note=36 velocity=120 time=0
EXTRACT: note_on channel=9 note=42 velocity=70 time=0
EXTRACT: note_on channel=10 note=52 velocity=120 time=0
EXTRACT: note_on channel=10 note=57 velocity=120 time=0.03378375
EXTRACT: note_on channel=10 note=52 velocity=0 time=0.010135125
EXTRACT: note_on channel=9 note=42 velocity=0 time=0
EXTRACT: note_on channel=9 note=36 velocity=0 time=0
EXTRACT: note_on channel=9 note=32 velocity=0 time=0
EXTRACT: note_on channel=9 note=26 velocity=0 time=0
EXTRACT: note_on channel=10 note=57 velocity=0 time=0.03378375
EXTRACT: note_on channel=7 note=57 velocity=0 time=0.11824312499999999
EXTRACT: note_on channel=3 note=62 velocity=109 time=0.00675675
EXTRACT: note_on channel=7 note=54 velocity=98 time=0
EXTRACT: note_on channel=9 note=26 velocity=30 time=0
EXTRACT: note_on channel=9 note=32 velocity=30 time=0
EXTRACT: note_on channel=9 note=32 velocity=0 time=0.043918874999999996
EXTRACT: note_on channel=9 note=26 velocity=0 time=0
EXTRACT: note_on channel=3 note=62 velocity=0 time=0.043918874999999996
EXTRACT: note_on channel=7 note=54 velocity=0 time=0.108108
EXTRACT: note_on channel=3 note=62 velocity=112 time=0.00675675
EXTRACT: note_on channel=7 note=57 velocity=101 time=0
EXTRACT: note_on channel=9 note=26 velocity=50 time=0
EXTRACT: note_on channel=9 note=32 velocity=50 time=0
EXTRACT: note_on channel=9 note=38 velocity=120 time=0
EXTRACT: note_on channel=9 note=42 velocity=80 time=0
EXTRACT: note_on channel=9 note=42 velocity=0 time=0.043918874999999996
EXTRACT: note_on channel=9 note=38 velocity=0 time=0
EXTRACT: note_on channel=9 note=32 velocity=0 time=0
EXTRACT: note_on channel=9 note=26 velocity=0 time=0
EXTRACT: note_on channel=3 note=62 velocity=0 time=0.081081
EXTRACT: note_on channel=7 note=57 velocity=0 time=0.07094587499999999
EXTRACT: note_on channel=3 note=62 velocity=106 time=0.00675675
EXTRACT: note_on channel=7 note=54 velocity=93 time=0
EXTRACT: note_on channel=9 note=26 velocity=30 time=0
EXTRACT: note_on channel=9 note=32 velocity=30 time=0
EXTRACT: note_on channel=9 note=32 velocity=0 time=0.043918874999999996
EXTRACT: note_on channel=9 note=26 velocity=0 time=0
EXTRACT: note_on channel=3 note=62 velocity=0 time=0.054054
EXTRACT: note_on channel=7 note=54 velocity=0 time=0.097972875
EXTRACT: note_on channel=3 note=62 velocity=104 time=0.00675675
EXTRACT: note_on channel=7 note=50 velocity=90 time=0
EXTRACT: note_on channel=9 note=26 velocity=50 time=0
EXTRACT: note_on channel=9 note=32 velocity=50 time=0
EXTRACT: note_on channel=9 note=42 velocity=70 time=0
EXTRACT: note_on channel=9 note=42 velocity=0 time=0.043918874999999996
EXTRACT: note_on channel=9 note=32 velocity=0 time=0
EXTRACT: note_on channel=9 note=26 velocity=0 time=0
EXTRACT: note_on channel=3 note=62 velocity=0 time=0.050675624999999995
EXTRACT: note_on channel=7 note=50 velocity=0 time=0.10135124999999999
EXTRACT: note_on channel=3 note=62 velocity=106 time=0.00675675
EXTRACT: note_on channel=7 note=54 velocity=90 time=0
EXTRACT: note_on channel=9 note=26 velocity=30 time=0
EXTRACT: note_on channel=9 note=32 velocity=30 time=0
EXTRACT: note_on channel=9 note=32 velocity=0 time=0.043918874999999996
EXTRACT: note_on channel=9 note=26 velocity=0 time=0
EXTRACT: note_on channel=3 note=62 velocity=0 time=0.097972875
EXTRACT: note_on channel=5 note=50 velocity=0 time=0.054054
EXTRACT: note_on channel=1 note=38 velocity=0 time=0
EXTRACT: note_on channel=6 note=45 velocity=0 time=0
EXTRACT: note_on channel=11 note=90 velocity=0 time=0
EXTRACT: note_on channel=5 note=57 velocity=0 time=0
EXTRACT: note_on channel=11 note=81 velocity=0 time=0
EXTRACT: note_on channel=2 note=66 velocity=0 time=0
EXTRACT: note_on channel=11 note=86 velocity=0 time=0
EXTRACT: note_on channel=5 note=54 velocity=0 time=0
EXTRACT: note_on channel=2 note=57 velocity=0 time=0
EXTRACT: note_on channel=6 note=50 velocity=0 time=0
EXTRACT: note_on channel=5 note=62 velocity=0 time=0
EXTRACT: note_on channel=7 note=54 velocity=0 time=0
EXTRACT: note_on channel=2 note=62 velocity=0 time=0
EXTRACT: note_on channel=1 note=37 velocity=120 time=0.00675675
EXTRACT: note_on channel=2 note=57 velocity=100 time=0
EXTRACT: note_on channel=2 note=61 velocity=100 time=0
EXTRACT: note_on channel=2 note=66 velocity=100 time=0
EXTRACT: note_on channel=3 note=66 velocity=118 time=0
EXTRACT: note_on channel=5 note=49 velocity=99 time=0
EXTRACT: note_on channel=5 note=54 velocity=99 time=0
EXTRACT: note_on channel=5 note=57 velocity=99 time=0
EXTRACT: note_on channel=5 note=61 velocity=99 time=0
EXTRACT: note_on channel=6 note=42 velocity=101 time=0
EXTRACT: note_on channel=6 note=49 velocity=101 time=0
EXTRACT: note_on channel=7 note=49 velocity=104 time=0
EXTRACT: note_on channel=8 note=37 velocity=79 time=0
EXTRACT: note_on channel=9 note=26 velocity=50 time=0
EXTRACT: note_on channel=9 note=32 velocity=50 time=0
EXTRACT: note_on channel=9 note=36 velocity=120 time=0
EXTRACT: note_on channel=9 note=42 velocity=80 time=0
EXTRACT: note_on channel=10 note=52 velocity=120 time=0
EXTRACT: note_on channel=11 note=81 velocity=100 time=0
EXTRACT: note_on channel=11 note=85 velocity=100 time=0
EXTRACT: note_on channel=11 note=90 velocity=100 time=0
EXTRACT: note_on channel=10 note=57 velocity=120 time=0.03378375
EXTRACT: note_on channel=10 note=52 velocity=0 time=0.010135125
EXTRACT: note_on channel=9 note=42 velocity=0 time=0
EXTRACT: note_on channel=9 note=36 velocity=0 time=0
EXTRACT: note_on channel=9 note=32 velocity=0 time=0
EXTRACT: note_on channel=9 note=26 velocity=0 time=0
EXTRACT: note_on channel=10 note=57 velocity=0 time=0.03378375
EXTRACT: note_on channel=7 note=49 velocity=0 time=0.11824312499999999
EXTRACT: note_on channel=7 note=54 velocity=93 time=0.00675675
EXTRACT: note_on channel=9 note=26 velocity=30 time=0
EXTRACT: note_on channel=9 note=32 velocity=30 time=0
EXTRACT: note_on channel=9 note=32 velocity=0 time=0.043918874999999996
EXTRACT: note_on channel=9 note=26 velocity=0 time=0
EXTRACT: note_on channel=3 note=66 velocity=0 time=0.064189125
EXTRACT: note_on channel=7 note=54 velocity=0 time=0.08783774999999999
EXTRACT: note_on channel=8 note=37 velocity=0 time=0
EXTRACT: note_on channel=3 note=69 velocity=118 time=0.00675675
EXTRACT: note_on channel=7 note=57 velocity=89 time=0
EXTRACT: note_on channel=9 note=26 velocity=50 time=0
EXTRACT: note_on channel=9 note=32 velocity=50 time=0
EXTRACT: note_on channel=9 note=42 velocity=70 time=0
EXTRACT: note_on channel=9 note=42 velocity=0 time=0.043918874999999996
EXTRACT: note_on channel=9 note=32 velocity=0 time=0
EXTRACT: note_on channel=9 note=26 velocity=0 time=0
EXTRACT: note_on channel=7 note=57 velocity=0 time=0.152026875
EXTRACT: note_on channel=3 note=69 velocity=0 time=0.003378375
EXTRACT: note_on channel=7 note=54 velocity=77 time=0.003378375
EXTRACT: note_on channel=9 note=26 velocity=30 time=0
EXTRACT: note_on channel=9 note=32 velocity=30 time=0
EXTRACT: note_on channel=9 note=32 velocity=0 time=0.043918874999999996
EXTRACT: note_on channel=9 note=26 velocity=0 time=0
EXTRACT: note_on channel=7 note=54 velocity=0 time=0.152026875
EXTRACT: note_on channel=3 note=66 velocity=115 time=0.00675675
EXTRACT: note_on channel=7 note=57 velocity=98 time=0
EXTRACT: note_on channel=9 note=26 velocity=50 time=0
EXTRACT: note_on channel=9 note=32 velocity=50 time=0
EXTRACT: note_on channel=9 note=38 velocity=120 time=0
EXTRACT: note_on channel=9 note=42 velocity=80 time=0
EXTRACT: note_on channel=9 note=42 velocity=0 time=0.043918874999999996
EXTRACT: note_on channel=9 note=38 velocity=0 time=0
EXTRACT: note_on channel=9 note=32 velocity=0 time=0
EXTRACT: note_on channel=9 note=26 velocity=0 time=0
EXTRACT: note_on channel=7 note=57 velocity=0 time=0.152026875
EXTRACT: note_on channel=7 note=54 velocity=98 time=0.00675675
EXTRACT: note_on channel=9 note=26 velocity=30 time=0
EXTRACT: note_on channel=9 note=32 velocity=30 time=0
EXTRACT: note_on channel=9 note=32 velocity=0 time=0.043918874999999996
EXTRACT: note_on channel=9 note=26 velocity=0 time=0
EXTRACT: note_on channel=7 note=54 velocity=0 time=0.152026875
EXTRACT: note_on channel=7 note=49 velocity=101 time=0.00675675
EXTRACT: note_on channel=9 note=26 velocity=50 time=0
EXTRACT: note_on channel=9 note=32 velocity=50 time=0
EXTRACT: note_on channel=9 note=42 velocity=70 time=0
EXTRACT: note_on channel=9 note=42 velocity=0 time=0.043918874999999996
EXTRACT: note_on channel=9 note=32 velocity=0 time=0
EXTRACT: note_on channel=9 note=26 velocity=0 time=0
EXTRACT: note_on channel=7 note=49 velocity=0 time=0.152026875
EXTRACT: note_on channel=1 note=37 velocity=0 time=0
EXTRACT: note_on channel=1 note=37 velocity=120 time=0.00675675
EXTRACT: note_on channel=7 note=54 velocity=95 time=0
EXTRACT: note_on channel=9 note=26 velocity=30 time=0
EXTRACT: note_on channel=9 note=32 velocity=30 time=0
EXTRACT: note_on channel=9 note=36 velocity=120 time=0
EXTRACT: note_on channel=10 note=52 velocity=120 time=0
EXTRACT: note_on channel=10 note=57 velocity=120 time=0.03378375
EXTRACT: note_on channel=10 note=52 velocity=0 time=0.010135125
EXTRACT: note_on channel=9 note=36 velocity=0 time=0
EXTRACT: note_on channel=9 note=32 velocity=0 time=0
EXTRACT: note_on channel=9 note=26 velocity=0 time=0
EXTRACT: note_on channel=10 note=57 velocity=0 time=0.03378375
EXTRACT: note_on channel=7 note=54 velocity=0 time=0.11824312499999999
EXTRACT: note_on channel=3 note=66 velocity=0 time=0
EXTRACT: note_on channel=7 note=49 velocity=104 time=0.00675675
EXTRACT: note_on channel=9 note=26 velocity=50 time=0
EXTRACT: note_on channel=9 note=32 velocity=50 time=0
EXTRACT: note_on channel=9 note=42 velocity=80 time=0
EXTRACT: note_on channel=9 note=42 velocity=0 time=0.043918874999999996
EXTRACT: note_on channel=9 note=32 velocity=0 time=0
EXTRACT: note_on channel=9 note=26 velocity=0 time=0
EXTRACT: note_on channel=7 note=49 velocity=0 time=0.152026875
EXTRACT: note_on channel=1 note=37 velocity=0 time=0
EXTRACT: note_on channel=1 note=37 velocity=120 time=0.00675675
EXTRACT: note_on channel=3 note=62 velocity=121 time=0
EXTRACT: note_on channel=7 note=54 velocity=86 time=0
EXTRACT: note_on channel=9 note=26 velocity=30 time=0
EXTRACT: note_on channel=9 note=32 velocity=30 time=0
EXTRACT: note_on channel=9 note=36 velocity=120 time=0
EXTRACT: note_on channel=10 note=52 velocity=120 time=0
EXTRACT: note_on channel=10 note=57 velocity=120 time=0.03378375
EXTRACT: note_on channel=10 note=52 velocity=0 time=0.010135125
EXTRACT: note_on channel=9 note=36 velocity=0 time=0
EXTRACT: note_on channel=9 note=32 velocity=0 time=0
EXTRACT: note_on channel=9 note=26 velocity=0 time=0
EXTRACT: note_on channel=10 note=57 velocity=0 time=0.03378375
EXTRACT: note_on channel=3 note=62 velocity=0 time=0.00675675
EXTRACT: note_on channel=7 note=54 velocity=0 time=0.111486375
EXTRACT: note_on channel=1 note=37 velocity=0 time=0
EXTRACT: note_on channel=1 note=37 velocity=120 time=0.00675675
EXTRACT: note_on channel=3 note=62 velocity=106 time=0
EXTRACT: note_on channel=7 note=57 velocity=101 time=0
EXTRACT: note_on channel=9 note=26 velocity=50 time=0
EXTRACT: note_on channel=9 note=32 velocity=50 time=0
EXTRACT: note_on channel=9 note=36 velocity=120 time=0
EXTRACT: note_on channel=9 note=42 velocity=70 time=0
EXTRACT: note_on channel=10 note=52 velocity=120 time=0
EXTRACT: note_on channel=10 note=57 velocity=120 time=0.03378375
EXTRACT: note_on channel=10 note=52 velocity=0 time=0.010135125
EXTRACT: note_on channel=9 note=42 velocity=0 time=0
EXTRACT: note_on channel=9 note=32 velocity=0 time=0
EXTRACT: note_on channel=9 note=26 velocity=0 time=0
EXTRACT: note_on channel=9 note=36 velocity=0 time=0
EXTRACT: note_on channel=10 note=57 velocity=0 time=0.03378375
EXTRACT: note_on channel=3 note=62 velocity=0 time=0.043918874999999996
EXTRACT: note_on channel=7 note=57 velocity=0 time=0.07432425
EXTRACT: note_on channel=3 note=62 velocity=101 time=0.00675675
EXTRACT: note_on channel=7 note=54 velocity=98 time=0
EXTRACT: note_on channel=9 note=26 velocity=30 time=0
EXTRACT: note_on channel=9 note=32 velocity=30 time=0
EXTRACT: note_on channel=9 note=32 velocity=0 time=0.043918874999999996
EXTRACT: note_on channel=9 note=26 velocity=0 time=0
EXTRACT: note_on channel=3 note=62 velocity=0 time=0.050675624999999995
EXTRACT: note_on channel=7 note=54 velocity=0 time=0.10135124999999999
EXTRACT: note_on channel=3 note=62 velocity=112 time=0.00675675
EXTRACT: note_on channel=7 note=57 velocity=101 time=0
EXTRACT: note_on channel=9 note=26 velocity=50 time=0
EXTRACT: note_on channel=9 note=32 velocity=50 time=0
EXTRACT: note_on channel=9 note=38 velocity=120 time=0
EXTRACT: note_on channel=9 note=42 velocity=80 time=0
EXTRACT: note_on channel=9 note=42 velocity=0 time=0.043918874999999996
EXTRACT: note_on channel=9 note=38 velocity=0 time=0
EXTRACT: note_on channel=9 note=32 velocity=0 time=0
EXTRACT: note_on channel=9 note=26 velocity=0 time=0
EXTRACT: note_on channel=3 note=62 velocity=0 time=0.084459375
EXTRACT: note_on channel=7 note=57 velocity=0 time=0.0675675
EXTRACT: note_on channel=3 note=62 velocity=85 time=0.00675675
EXTRACT: note_on channel=7 note=54 velocity=93 time=0
EXTRACT: note_on channel=9 note=26 velocity=30 time=0
EXTRACT: note_on channel=9 note=32 velocity=30 time=0
EXTRACT: note_on channel=9 note=32 velocity=0 time=0.043918874999999996
EXTRACT: note_on channel=9 note=26 velocity=0 time=0
EXTRACT: note_on channel=3 note=62 velocity=0 time=0.050675624999999995
EXTRACT: note_on channel=7 note=54 velocity=0 time=0.10135124999999999
EXTRACT: note_on channel=3 note=62 velocity=98 time=0.00675675
EXTRACT: note_on channel=7 note=49 velocity=90 time=0
EXTRACT: note_on channel=9 note=26 velocity=50 time=0
EXTRACT: note_on channel=9 note=32 velocity=50 time=0
EXTRACT: note_on channel=9 note=36 velocity=114 time=0
EXTRACT: note_on channel=9 note=42 velocity=70 time=0
EXTRACT: note_on channel=10 note=52 velocity=114 time=0
EXTRACT: note_on channel=10 note=57 velocity=114 time=0.03378375
EXTRACT: note_on channel=10 note=52 velocity=0 time=0.010135125
EXTRACT: note_on channel=9 note=42 velocity=0 time=0
EXTRACT: note_on channel=9 note=32 velocity=0 time=0
EXTRACT: note_on channel=9 note=26 velocity=0 time=0
EXTRACT: note_on channel=9 note=36 velocity=0 time=0
EXTRACT: note_on channel=10 note=57 velocity=0 time=0.03378375
EXTRACT: note_on channel=3 note=62 velocity=0 time=0.027027
EXTRACT: note_on channel=7 note=49 velocity=0 time=0.091216125
EXTRACT: note_on channel=3 note=62 velocity=104 time=0.00675675
EXTRACT: note_on channel=7 note=54 velocity=90 time=0
EXTRACT: note_on channel=9 note=26 velocity=30 time=0
EXTRACT: note_on channel=9 note=32 velocity=30 time=0
EXTRACT: note_on channel=9 note=36 velocity=114 time=0
EXTRACT: note_on channel=10 note=52 velocity=114 time=0
EXTRACT: note_on channel=10 note=57 velocity=114 time=0.03378375
EXTRACT: note_on channel=10 note=52 velocity=0 time=0.010135125
EXTRACT: note_on channel=9 note=36 velocity=0 time=0
EXTRACT: note_on channel=9 note=32 velocity=0 time=0
EXTRACT: note_on channel=9 note=26 velocity=0 time=0
EXTRACT: note_on channel=10 note=57 velocity=0 time=0.03378375
EXTRACT: note_on channel=3 note=62 velocity=0 time=0.054054
EXTRACT: note_on channel=2 note=57 velocity=0 time=0.064189125
EXTRACT: note_on channel=1 note=37 velocity=0 time=0
EXTRACT: note_on channel=5 note=61 velocity=0 time=0
EXTRACT: note_on channel=2 note=61 velocity=0 time=0
EXTRACT: note_on channel=11 note=90 velocity=0 time=0
EXTRACT: note_on channel=6 note=42 velocity=0 time=0
EXTRACT: note_on channel=2 note=66 velocity=0 time=0
EXTRACT: note_on channel=6 note=49 velocity=0 time=0
EXTRACT: note_on channel=5 note=54 velocity=0 time=0
EXTRACT: note_on channel=11 note=81 velocity=0 time=0
EXTRACT: note_on channel=11 note=85 velocity=0 time=0
EXTRACT: note_on channel=5 note=57 velocity=0 time=0
EXTRACT: note_on channel=7 note=54 velocity=0 time=0
EXTRACT: note_on channel=5 note=49 velocity=0 time=0
EXTRACT: note_on channel=1 note=35 velocity=120 time=0.00675675
EXTRACT: note_on channel=2 note=59 velocity=102 time=0
EXTRACT: note_on channel=2 note=62 velocity=102 time=0
EXTRACT: note_on channel=2 note=66 velocity=102 time=0
EXTRACT: note_on channel=3 note=66 velocity=115 time=0
EXTRACT: note_on channel=5 note=47 velocity=99 time=0
EXTRACT: note_on channel=5 note=54 velocity=99 time=0
EXTRACT: note_on channel=5 note=59 velocity=99 time=0
EXTRACT: note_on channel=5 note=62 velocity=99 time=0
EXTRACT: note_on channel=6 note=47 velocity=98 time=0
EXTRACT: note_on channel=6 note=54 velocity=98 time=0
EXTRACT: note_on channel=7 note=47 velocity=104 time=0
EXTRACT: note_on channel=8 note=35 velocity=82 time=0
EXTRACT: note_on channel=9 note=26 velocity=50 time=0
EXTRACT: note_on channel=9 note=32 velocity=50 time=0
EXTRACT: note_on channel=9 note=36 velocity=120 time=0
EXTRACT: note_on channel=9 note=42 velocity=80 time=0
EXTRACT: note_on channel=10 note=52 velocity=120 time=0
EXTRACT: note_on channel=11 note=83 velocity=102 time=0
EXTRACT: note_on channel=11 note=86 velocity=102 time=0
EXTRACT: note_on channel=11 note=90 velocity=102 time=0
EXTRACT: note_on channel=10 note=57 velocity=120 time=0.037162125
EXTRACT: note_on channel=10 note=52 velocity=0 time=0.00675675
EXTRACT: note_on channel=9 note=42 velocity=0 time=0
EXTRACT: note_on channel=9 note=36 velocity=0 time=0
EXTRACT: note_on channel=9 note=32 velocity=0 time=0
EXTRACT: note_on channel=9 note=26 velocity=0 time=0
EXTRACT: note_on channel=10 note=57 velocity=0 time=0.037162125
EXTRACT: note_on channel=7 note=47 velocity=0 time=0.11486475
EXTRACT: note_on channel=7 note=54 velocity=93 time=0.00675675
EXTRACT: note_on channel=9 note=26 velocity=30 time=0
EXTRACT: note_on channel=9 note=32 velocity=30 time=0
EXTRACT: note_on channel=9 note=32 velocity=0 time=0.043918874999999996
EXTRACT: note_on channel=9 note=26 velocity=0 time=0
EXTRACT: note_on channel=3 note=66 velocity=0 time=0.077702625
EXTRACT: note_on channel=7 note=54 velocity=0 time=0.07432425
EXTRACT: note_on channel=8 note=35 velocity=0 time=0
EXTRACT: note_on channel=3 note=69 velocity=106 time=0.00675675
EXTRACT: note_on channel=7 note=59 velocity=89 time=0
EXTRACT: note_on channel=9 note=26 velocity=50 time=0
EXTRACT: note_on channel=9 note=32 velocity=50 time=0
EXTRACT: note_on channel=9 note=42 velocity=70 time=0
EXTRACT: note_on channel=9 note=42 velocity=0 time=0.043918874999999996
EXTRACT: note_on channel=9 note=32 velocity=0 time=0
EXTRACT: note_on channel=9 note=26 velocity=0 time=0
EXTRACT: note_on channel=7 note=59 velocity=0 time=0.152026875
EXTRACT: note_on channel=7 note=54 velocity=77 time=0.00675675
EXTRACT: note_on channel=9 note=26 velocity=30 time=0
EXTRACT: note_on channel=9 note=32 velocity=30 time=0
EXTRACT: note_on channel=9 note=32 velocity=0 time=0.043918874999999996
EXTRACT: note_on channel=9 note=26 velocity=0 time=0
EXTRACT: note_on channel=3 note=69 velocity=0 time=0.027027
EXTRACT: note_on channel=7 note=54 velocity=0 time=0.124999875
EXTRACT: note_on channel=3 note=66 velocity=115 time=0.00675675
EXTRACT: note_on channel=7 note=59 velocity=98 time=0
EXTRACT: note_on channel=9 note=26 velocity=50 time=0
EXTRACT: note_on channel=9 note=32 velocity=50 time=0
EXTRACT: note_on channel=9 note=38 velocity=120 time=0
EXTRACT: note_on channel=9 note=42 velocity=80 time=0
EXTRACT: note_on channel=9 note=42 velocity=0 time=0.043918874999999996
EXTRACT: note_on channel=9 note=38 velocity=0 time=0
EXTRACT: note_on channel=9 note=32 velocity=0 time=0
EXTRACT: note_on channel=9 note=26 velocity=0 time=0
EXTRACT: note_on channel=7 note=59 velocity=0 time=0.152026875
EXTRACT: note_on channel=7 note=54 velocity=98 time=0.00675675
EXTRACT: note_on channel=9 note=26 velocity=30 time=0
EXTRACT: note_on channel=9 note=32 velocity=30 time=0
EXTRACT: note_on channel=9 note=32 velocity=0 time=0.043918874999999996
EXTRACT: note_on channel=9 note=26 velocity=0 time=0
EXTRACT: note_on channel=7 note=54 velocity=0 time=0.152026875
EXTRACT: note_on channel=7 note=47 velocity=101 time=0.00675675
EXTRACT: note_on channel=9 note=26 velocity=50 time=0
EXTRACT: note_on channel=9 note=32 velocity=50 time=0
EXTRACT: note_on channel=9 note=42 velocity=70 time=0
EXTRACT: note_on channel=9 note=42 velocity=0 time=0.043918874999999996
EXTRACT: note_on channel=9 note=32 velocity=0 time=0
EXTRACT: note_on channel=9 note=26 velocity=0 time=0
EXTRACT: note_on channel=7 note=47 velocity=0 time=0.152026875
EXTRACT: note_on channel=1 note=35 velocity=0 time=0
EXTRACT: note_on channel=1 note=35 velocity=120 time=0.00675675
EXTRACT: note_on channel=7 note=54 velocity=95 time=0
EXTRACT: note_on channel=9 note=26 velocity=30 time=0
EXTRACT: note_on channel=9 note=32 velocity=30 time=0
EXTRACT: note_on channel=9 note=36 velocity=120 time=0
EXTRACT: note_on channel=10 note=52 velocity=120 time=0
EXTRACT: note_on channel=10 note=57 velocity=120 time=0.03378375
EXTRACT: note_on channel=10 note=52 velocity=0 time=0.010135125
EXTRACT: note_on channel=9 note=36 velocity=0 time=0
EXTRACT: note_on channel=9 note=32 velocity=0 time=0
EXTRACT: note_on channel=9 note=26 velocity=0 time=0
EXTRACT: note_on channel=10 note=57 velocity=0 time=0.03378375
EXTRACT: note_on channel=7 note=54 velocity=0 time=0.11824312499999999
EXTRACT: note_on channel=7 note=47 velocity=104 time=0.00675675
EXTRACT: note_on channel=9 note=26 velocity=50 time=0
EXTRACT: note_on channel=9 note=32 velocity=50 time=0
EXTRACT: note_on channel=9 note=42 velocity=80 time=0
EXTRACT: note_on channel=3 note=66 velocity=0 time=0.03378375
EXTRACT: note_on channel=9 note=42 velocity=0 time=0.010135125
EXTRACT: note_on channel=9 note=32 velocity=0 time=0
EXTRACT: note_on channel=9 note=26 velocity=0 time=0
EXTRACT: note_on channel=7 note=47 velocity=0 time=0.152026875
EXTRACT: note_on channel=1 note=35 velocity=0 time=0
EXTRACT: note_on channel=1 note=35 velocity=120 time=0.00675675
EXTRACT: note_on channel=7 note=54 velocity=86 time=0
EXTRACT: note_on channel=9 note=26 velocity=30 time=0
EXTRACT: note_on channel=9 note=32 velocity=30 time=0
EXTRACT: note_on channel=9 note=36 velocity=120 time=0
EXTRACT: note_on channel=10 note=52 velocity=120 time=0
EXTRACT: note_on channel=10 note=57 velocity=120 time=0.03378375
EXTRACT: note_on channel=10 note=52 velocity=0 time=0.010135125
EXTRACT: note_on channel=9 note=36 velocity=0 time=0
EXTRACT: note_on channel=9 note=32 velocity=0 time=0
EXTRACT: note_on channel=9 note=26 velocity=0 time=0
EXTRACT: note_on channel=10 note=57 velocity=0 time=0.03378375
EXTRACT: note_on channel=7 note=54 velocity=0 time=0.11824312499999999
EXTRACT: note_on channel=1 note=35 velocity=0 time=0
EXTRACT: note_on channel=1 note=35 velocity=120 time=0.00675675
EXTRACT: note_on channel=3 note=62 velocity=115 time=0
EXTRACT: note_on channel=7 note=59 velocity=101 time=0
EXTRACT: note_on channel=9 note=26 velocity=50 time=0
EXTRACT: note_on channel=9 note=32 velocity=50 time=0
EXTRACT: note_on channel=9 note=36 velocity=120 time=0
EXTRACT: note_on channel=9 note=42 velocity=70 time=0
EXTRACT: note_on channel=10 note=52 velocity=120 time=0
EXTRACT: note_on channel=10 note=57 velocity=120 time=0.03378375
EXTRACT: note_on channel=10 note=52 velocity=0 time=0.010135125
EXTRACT: note_on channel=9 note=42 velocity=0 time=0
EXTRACT: note_on channel=9 note=32 velocity=0 time=0
EXTRACT: note_on channel=9 note=26 velocity=0 time=0
EXTRACT: note_on channel=9 note=36 velocity=0 time=0
EXTRACT: note_on channel=10 note=57 velocity=0 time=0.03378375
EXTRACT: note_on channel=7 note=59 velocity=0 time=0.11824312499999999
EXTRACT: note_on channel=7 note=54 velocity=98 time=0.00675675
EXTRACT: note_on channel=9 note=26 velocity=30 time=0
EXTRACT: note_on channel=9 note=32 velocity=30 time=0
EXTRACT: note_on channel=9 note=32 velocity=0 time=0.043918874999999996
EXTRACT: note_on channel=9 note=26 velocity=0 time=0
EXTRACT: note_on channel=3 note=62 velocity=0 time=0
EXTRACT: note_on channel=7 note=54 velocity=0 time=0.152026875
EXTRACT: note_on channel=3 note=62 velocity=112 time=0.00675675
EXTRACT: note_on channel=7 note=59 velocity=101 time=0
EXTRACT: note_on channel=9 note=26 velocity=50 time=0
EXTRACT: note_on channel=9 note=32 velocity=50 time=0
EXTRACT: note_on channel=9 note=38 velocity=120 time=0
EXTRACT: note_on channel=9 note=42 velocity=80 time=0
EXTRACT: note_on channel=9 note=42 velocity=0 time=0.043918874999999996
EXTRACT: note_on channel=9 note=38 velocity=0 time=0
EXTRACT: note_on channel=9 note=32 velocity=0 time=0
EXTRACT: note_on channel=9 note=26 velocity=0 time=0
EXTRACT: note_on channel=3 note=62 velocity=0 time=0.10472962499999999
EXTRACT: note_on channel=7 note=59 velocity=0 time=0.04729725
EXTRACT: note_on channel=3 note=62 velocity=104 time=0.00675675
EXTRACT: note_on channel=7 note=54 velocity=93 time=0
EXTRACT: note_on channel=9 note=26 velocity=30 time=0
EXTRACT: note_on channel=9 note=32 velocity=30 time=0
EXTRACT: note_on channel=9 note=32 velocity=0 time=0.043918874999999996
EXTRACT: note_on channel=9 note=26 velocity=0 time=0
EXTRACT: note_on channel=3 note=62 velocity=0 time=0.07094587499999999
EXTRACT: note_on channel=7 note=54 velocity=0 time=0.081081
EXTRACT: note_on channel=3 note=62 velocity=112 time=0.00675675
EXTRACT: note_on channel=7 note=47 velocity=90 time=0
EXTRACT: note_on channel=9 note=26 velocity=50 time=0
EXTRACT: note_on channel=9 note=32 velocity=50 time=0
EXTRACT: note_on channel=9 note=42 velocity=70 time=0
EXTRACT: note_on channel=9 note=42 velocity=0 time=0.043918874999999996
EXTRACT: note_on channel=9 note=32 velocity=0 time=0
EXTRACT: note_on channel=9 note=26 velocity=0 time=0
EXTRACT: note_on channel=7 note=47 velocity=0 time=0.152026875
EXTRACT: note_on channel=7 note=54 velocity=90 time=0.00675675
EXTRACT: note_on channel=9 note=26 velocity=30 time=0
EXTRACT: note_on channel=9 note=32 velocity=30 time=0
EXTRACT: note_on channel=9 note=32 velocity=0 time=0.043918874999999996
EXTRACT: note_on channel=9 note=26 velocity=0 time=0
EXTRACT: note_on channel=3 note=62 velocity=0 time=0.010135125
EXTRACT: note_on channel=5 note=54 velocity=0 time=0.14189174999999998
EXTRACT: note_on channel=2 note=59 velocity=0 time=0
EXTRACT: note_on channel=5 note=62 velocity=0 time=0
EXTRACT: note_on channel=2 note=62 velocity=0 time=0
EXTRACT: note_on channel=11 note=90 velocity=0 time=0
EXTRACT: note_on channel=6 note=47 velocity=0 time=0
EXTRACT: note_on channel=2 note=66 velocity=0 time=0
EXTRACT: note_on channel=5 note=59 velocity=0 time=0
EXTRACT: note_on channel=1 note=35 velocity=0 time=0
EXTRACT: note_on channel=11 note=83 velocity=0 time=0
EXTRACT: note_on channel=11 note=86 velocity=0 time=0
EXTRACT: note_on channel=6 note=54 velocity=0 time=0
EXTRACT: note_on channel=7 note=54 velocity=0 time=0
EXTRACT: note_on channel=5 note=47 velocity=0 time=0
EXTRACT: note_on channel=1 note=31 velocity=118 time=0.00675675
EXTRACT: note_on channel=2 note=59 velocity=101 time=0
EXTRACT: note_on channel=2 note=62 velocity=101 time=0
EXTRACT: note_on channel=2 note=67 velocity=101 time=0
EXTRACT: note_on channel=3 note=67 velocity=121 time=0
EXTRACT: note_on channel=4 note=55 velocity=121 time=0
EXTRACT: note_on channel=4 note=59 velocity=121 time=0
EXTRACT: note_on channel=4 note=67 velocity=121 time=0
EXTRACT: note_on channel=5 note=43 velocity=101 time=0
EXTRACT: note_on channel=5 note=55 velocity=101 time=0
EXTRACT: note_on channel=5 note=59 velocity=101 time=0
EXTRACT: note_on channel=5 note=62 velocity=101 time=0
EXTRACT: note_on channel=6 note=43 velocity=99 time=0
EXTRACT: note_on channel=6 note=50 velocity=99 time=0
EXTRACT: note_on channel=7 note=47 velocity=104 time=0
EXTRACT: note_on channel=8 note=31 velocity=81 time=0
EXTRACT: note_on channel=9 note=26 velocity=50 time=0
EXTRACT: note_on channel=9 note=32 velocity=50 time=0
EXTRACT: note_on channel=9 note=36 velocity=120 time=0
EXTRACT: note_on channel=9 note=42 velocity=80 time=0
EXTRACT: note_on channel=10 note=52 velocity=120 time=0
EXTRACT: note_on channel=11 note=83 velocity=101 time=0
EXTRACT: note_on channel=11 note=86 velocity=101 time=0
EXTRACT: note_on channel=11 note=91 velocity=101 time=0
EXTRACT: note_on channel=15 note=55 velocity=1 time=0
EXTRACT: note_on channel=15 note=59 velocity=1 time=0
EXTRACT: note_on channel=15 note=67 velocity=1 time=0
EXTRACT: note_on channel=10 note=57 velocity=120 time=0.03378375
EXTRACT: note_on channel=10 note=52 velocity=0 time=0.010135125
EXTRACT: note_on channel=9 note=42 velocity=0 time=0
EXTRACT: note_on channel=9 note=26 velocity=0 time=0
EXTRACT: note_on channel=9 note=36 velocity=0 time=0
EXTRACT: note_on channel=9 note=32 velocity=0 time=0
EXTRACT: note_on channel=10 note=57 velocity=0 time=0.03378375
EXTRACT: note_on channel=7 note=47 velocity=0 time=0.11824312499999999
EXTRACT: note_on channel=7 note=50 velocity=93 time=0.00675675
EXTRACT: note_on channel=9 note=26 velocity=30 time=0
EXTRACT: note_on channel=9 note=32 velocity=30 time=0
EXTRACT: note_on channel=9 note=32 velocity=0 time=0.043918874999999996
EXTRACT: note_on channel=9 note=26 velocity=0 time=0
EXTRACT: note_on channel=7 note=50 velocity=0 time=0.152026875
EXTRACT: note_on channel=8 note=31 velocity=0 time=0
EXTRACT: note_on channel=7 note=59 velocity=89 time=0.00675675
EXTRACT: note_on channel=9 note=26 velocity=50 time=0
EXTRACT: note_on channel=9 note=32 velocity=50 time=0
EXTRACT: note_on channel=9 note=42 velocity=70 time=0
EXTRACT: note_on channel=9 note=42 velocity=0 time=0.043918874999999996
EXTRACT: note_on channel=9 note=26 velocity=0 time=0
EXTRACT: note_on channel=9 note=32 velocity=0 time=0
EXTRACT: note_on channel=7 note=59 velocity=0 time=0.152026875
EXTRACT: note_on channel=7 note=50 velocity=77 time=0.00675675
EXTRACT: note_on channel=9 note=26 velocity=30 time=0
EXTRACT: note_on channel=9 note=32 velocity=30 time=0
EXTRACT: note_on channel=9 note=32 velocity=0 time=0.043918874999999996
EXTRACT: note_on channel=9 note=26 velocity=0 time=0
EXTRACT: note_on channel=4 note=67 velocity=0 time=0.027027
EXTRACT: note_on channel=4 note=59 velocity=0 time=0
EXTRACT: note_on channel=15 note=59 velocity=0 time=0
EXTRACT: note_on channel=15 note=55 velocity=0 time=0
EXTRACT: note_on channel=15 note=67 velocity=0 time=0
EXTRACT: note_on channel=4 note=55 velocity=0 time=0
EXTRACT: note_on channel=3 note=67 velocity=0 time=0
EXTRACT: note_on channel=7 note=50 velocity=0 time=0.124999875
EXTRACT: note_on channel=3 note=66 velocity=121 time=0.00675675
EXTRACT: note_on channel=4 note=54 velocity=121 time=0
EXTRACT: note_on channel=4 note=57 velocity=121 time=0
EXTRACT: note_on channel=4 note=66 velocity=121 time=0
EXTRACT: note_on channel=7 note=59 velocity=98 time=0
EXTRACT: note_on channel=9 note=26 velocity=50 time=0
EXTRACT: note_on channel=9 note=32 velocity=50 time=0
EXTRACT: note_on channel=9 note=38 velocity=120 time=0
EXTRACT: note_on channel=9 note=42 velocity=80 time=0
EXTRACT: note_on channel=15 note=57 velocity=1 time=0
EXTRACT: note_on channel=15 note=54 velocity=1 time=0
EXTRACT: note_on channel=15 note=66 velocity=1 time=0
EXTRACT: note_on channel=9 note=42 velocity=0 time=0.043918874999999996
EXTRACT: note_on channel=9 note=38 velocity=0 time=0
EXTRACT: note_on channel=9 note=32 velocity=0 time=0
EXTRACT: note_on channel=9 note=26 velocity=0 time=0
EXTRACT: note_on channel=7 note=59 velocity=0 time=0.152026875
EXTRACT: note_on channel=7 note=50 velocity=98 time=0.00675675
EXTRACT: note_on channel=9 note=26 velocity=30 time=0
EXTRACT: note_on channel=9 note=32 velocity=30 time=0
EXTRACT: note_on channel=9 note=32 velocity=0 time=0.043918874999999996
EXTRACT: note_on channel=9 note=26 velocity=0 time=0
EXTRACT: note_on channel=7 note=50 velocity=0 time=0.152026875
EXTRACT: note_on channel=7 note=47 velocity=78 time=0.00675675
EXTRACT: note_on channel=9 note=26 velocity=50 time=0
EXTRACT: note_on channel=9 note=32 velocity=50 time=0
EXTRACT: note_on channel=9 note=42 velocity=70 time=0
EXTRACT: note_on channel=9 note=42 velocity=0 time=0.043918874999999996
EXTRACT: note_on channel=9 note=26 velocity=0 time=0
EXTRACT: note_on channel=9 note=32 velocity=0 time=0
EXTRACT: note_on channel=7 note=47 velocity=0 time=0.152026875
EXTRACT: note_on channel=1 note=31 velocity=0 time=0
EXTRACT: note_on channel=1 note=31 velocity=118 time=0.00675675
EXTRACT: note_on channel=7 note=50 velocity=63 time=0
EXTRACT: note_on channel=9 note=26 velocity=30 time=0
EXTRACT: note_on channel=9 note=32 velocity=30 time=0
EXTRACT: note_on channel=9 note=36 velocity=120 time=0
EXTRACT: note_on channel=10 note=52 velocity=120 time=0
EXTRACT: note_on channel=4 note=66 velocity=0 time=0.00675675
EXTRACT: note_on channel=15 note=57 velocity=0 time=0
EXTRACT: note_on channel=4 note=54 velocity=0 time=0
EXTRACT: note_on channel=4 note=57 velocity=0 time=0
EXTRACT: note_on channel=15 note=66 velocity=0 time=0
EXTRACT: note_on channel=15 note=54 velocity=0 time=0
EXTRACT: note_on channel=3 note=66 velocity=0 time=0
EXTRACT: note_on channel=10 note=57 velocity=120 time=0.027027
EXTRACT: note_on channel=9 note=36 velocity=0 time=0.010135125
EXTRACT: note_on channel=10 note=52 velocity=0 time=0
EXTRACT: note_on channel=9 note=32 velocity=0 time=0
EXTRACT: note_on channel=9 note=26 velocity=0 time=0
EXTRACT: note_on channel=10 note=57 velocity=0 time=0.03378375
EXTRACT: note_on channel=7 note=50 velocity=0 time=0.11824312499999999
EXTRACT: note_on channel=3 note=64 velocity=121 time=0.00675675
EXTRACT: note_on channel=4 note=52 velocity=121 time=0
EXTRACT: note_on channel=4 note=55 velocity=121 time=0
EXTRACT: note_on channel=4 note=64 velocity=121 time=0
EXTRACT: note_on channel=7 note=47 velocity=76 time=0
EXTRACT: note_on channel=9 note=26 velocity=50 time=0
EXTRACT: note_on channel=9 note=32 velocity=50 time=0
EXTRACT: note_on channel=9 note=42 velocity=80 time=0
EXTRACT: note_on channel=15 note=64 velocity=1 time=0
EXTRACT: note_on channel=15 note=52 velocity=1 time=0
EXTRACT: note_on channel=15 note=55 velocity=1 time=0
EXTRACT: note_on channel=9 note=42 velocity=0 time=0.043918874999999996
EXTRACT: note_on channel=9 note=32 velocity=0 time=0
EXTRACT: note_on channel=9 note=26 velocity=0 time=0
EXTRACT: note_on channel=1 note=31 velocity=0 time=0.152026875
EXTRACT: note_on channel=7 note=47 velocity=0 time=0
EXTRACT: note_on channel=1 note=31 velocity=118 time=0.00675675
EXTRACT: note_on channel=7 note=50 velocity=86 time=0
EXTRACT: note_on channel=9 note=26 velocity=30 time=0
EXTRACT: note_on channel=9 note=32 velocity=30 time=0
EXTRACT: note_on channel=9 note=36 velocity=120 time=0
EXTRACT: note_on channel=9 note=38 velocity=120 time=0
EXTRACT: note_on channel=10 note=52 velocity=120 time=0
EXTRACT: note_on channel=10 note=57 velocity=120 time=0.03378375
EXTRACT: note_on channel=10 note=52 velocity=0 time=0.010135125
EXTRACT: note_on channel=9 note=26 velocity=0 time=0
EXTRACT: note_on channel=9 note=38 velocity=0 time=0
EXTRACT: note_on channel=9 note=36 velocity=0 time=0
EXTRACT: note_on channel=9 note=32 velocity=0 time=0
EXTRACT: note_on channel=10 note=57 velocity=0 time=0.03378375
EXTRACT: note_on channel=15 note=52 velocity=0 time=0.0135135
EXTRACT: note_on channel=4 note=55 velocity=0 time=0
EXTRACT: note_on channel=15 note=64 velocity=0 time=0
EXTRACT: note_on channel=4 note=64 velocity=0 time=0
EXTRACT: note_on channel=4 note=52 velocity=0 time=0
EXTRACT: note_on channel=15 note=55 velocity=0 time=0
EXTRACT: note_on channel=3 note=64 velocity=0 time=0
EXTRACT: note_on channel=7 note=50 velocity=0 time=0.10472962499999999
EXTRACT: note_on channel=1 note=31 velocity=0 time=0
EXTRACT: note_on channel=1 note=31 velocity=118 time=0.00675675
EXTRACT: note_on channel=3 note=62 velocity=118 time=0
EXTRACT: note_on channel=4 note=50 velocity=118 time=0
EXTRACT: note_on channel=4 note=54 velocity=118 time=0
EXTRACT: note_on channel=4 note=62 velocity=118 time=0
EXTRACT: note_on channel=7 note=55 velocity=88 time=0
EXTRACT: note_on channel=9 note=26 velocity=50 time=0
EXTRACT: note_on channel=9 note=32 velocity=50 time=0
EXTRACT: note_on channel=9 note=36 velocity=120 time=0
EXTRACT: note_on channel=9 note=42 velocity=70 time=0
EXTRACT: note_on channel=10 note=52 velocity=120 time=0
EXTRACT: note_on channel=15 note=54 velocity=1 time=0
EXTRACT: note_on channel=15 note=62 velocity=1 time=0
EXTRACT: note_on channel=15 note=50 velocity=1 time=0
EXTRACT: note_on channel=10 note=57 velocity=120 time=0.03378375
EXTRACT: note_on channel=10 note=52 velocity=0 time=0.010135125
EXTRACT: note_on channel=9 note=42 velocity=0 time=0
EXTRACT: note_on channel=9 note=36 velocity=0 time=0
EXTRACT: note_on channel=9 note=32 velocity=0 time=0
EXTRACT: note_on channel=9 note=26 velocity=0 time=0
EXTRACT: note_on channel=10 note=57 velocity=0 time=0.03378375
EXTRACT: note_on channel=7 note=55 velocity=0 time=0.11824312499999999
EXTRACT: note_on channel=7 note=50 velocity=88 time=0.00675675
EXTRACT: note_on channel=9 note=26 velocity=30 time=0
EXTRACT: note_on channel=9 note=32 velocity=30 time=0
EXTRACT: note_on channel=9 note=32 velocity=0 time=0.043918874999999996
EXTRACT: note_on channel=9 note=26 velocity=0 time=0
EXTRACT: note_on channel=15 note=54 velocity=0 time=0.010135125
EXTRACT: note_on channel=4 note=50 velocity=0 time=0
EXTRACT: note_on channel=4 note=62 velocity=0 time=0
EXTRACT: note_on channel=4 note=54 velocity=0 time=0
EXTRACT: note_on channel=15 note=50 velocity=0 time=0
EXTRACT: note_on channel=3 note=62 velocity=0 time=0
EXTRACT: note_on channel=15 note=62 velocity=0 time=0
EXTRACT: note_on channel=7 note=50 velocity=0 time=0.14189174999999998
EXTRACT: note_on channel=3 note=62 velocity=121 time=0.00675675
EXTRACT: note_on channel=4 note=50 velocity=121 time=0
EXTRACT: note_on channel=4 note=54 velocity=121 time=0
EXTRACT: note_on channel=4 note=62 velocity=121 time=0
EXTRACT: note_on channel=7 note=55 velocity=81 time=0
EXTRACT: note_on channel=9 note=26 velocity=50 time=0
EXTRACT: note_on channel=9 note=32 velocity=50 time=0
EXTRACT: note_on channel=9 note=38 velocity=120 time=0
EXTRACT: note_on channel=9 note=42 velocity=80 time=0
EXTRACT: note_on channel=15 note=50 velocity=1 time=0
EXTRACT: note_on channel=15 note=62 velocity=1 time=0
EXTRACT: note_on channel=15 note=54 velocity=1 time=0
EXTRACT: note_on channel=9 note=42 velocity=0 time=0.043918874999999996
EXTRACT: note_on channel=9 note=38 velocity=0 time=0
EXTRACT: note_on channel=9 note=32 velocity=0 time=0
EXTRACT: note_on channel=9 note=26 velocity=0 time=0
EXTRACT: note_on channel=7 note=55 velocity=0 time=0.152026875
EXTRACT: note_on channel=7 note=50 velocity=73 time=0.00675675
EXTRACT: note_on channel=9 note=26 velocity=30 time=0
EXTRACT: note_on channel=9 note=32 velocity=30 time=0
EXTRACT: note_on channel=9 note=32 velocity=0 time=0.043918874999999996
EXTRACT: note_on channel=9 note=26 velocity=0 time=0
EXTRACT: note_on channel=15 note=50 velocity=0 time=0.10472962499999999
EXTRACT: note_on channel=4 note=50 velocity=0 time=0
EXTRACT: note_on channel=4 note=62 velocity=0 time=0
EXTRACT: note_on channel=4 note=54 velocity=0 time=0
EXTRACT: note_on channel=15 note=54 velocity=0 time=0
EXTRACT: note_on channel=15 note=62 velocity=0 time=0
EXTRACT: note_on channel=3 note=62 velocity=0 time=0
EXTRACT: note_on channel=7 note=50 velocity=0 time=0.04729725
EXTRACT: note_on channel=3 note=59 velocity=118 time=0.00675675
EXTRACT: note_on channel=4 note=47 velocity=118 time=0
EXTRACT: note_on channel=4 note=52 velocity=118 time=0
EXTRACT: note_on channel=4 note=59 velocity=118 time=0
EXTRACT: note_on channel=7 note=55 velocity=73 time=0
EXTRACT: note_on channel=9 note=26 velocity=50 time=0
EXTRACT: note_on channel=9 note=32 velocity=50 time=0
EXTRACT: note_on channel=9 note=36 velocity=114 time=0
EXTRACT: note_on channel=9 note=42 velocity=70 time=0
EXTRACT: note_on channel=10 note=52 velocity=114 time=0
EXTRACT: note_on channel=15 note=47 velocity=1 time=0
EXTRACT: note_on channel=15 note=52 velocity=1 time=0
EXTRACT: note_on channel=15 note=59 velocity=1 time=0
EXTRACT: note_on channel=10 note=57 velocity=114 time=0.03378375
EXTRACT: note_on channel=10 note=52 velocity=0 time=0.010135125
EXTRACT: note_on channel=9 note=42 velocity=0 time=0
EXTRACT: note_on channel=9 note=36 velocity=0 time=0
EXTRACT: note_on channel=9 note=32 velocity=0 time=0
EXTRACT: note_on channel=9 note=26 velocity=0 time=0
EXTRACT: note_on channel=10 note=57 velocity=0 time=0.03378375
EXTRACT: note_on channel=7 note=55 velocity=0 time=0.11824312499999999
EXTRACT: note_on channel=7 note=50 velocity=71 time=0.00675675
EXTRACT: note_on channel=9 note=26 velocity=30 time=0
EXTRACT: note_on channel=9 note=32 velocity=30 time=0
EXTRACT: note_on channel=9 note=36 velocity=114 time=0
EXTRACT: note_on channel=10 note=52 velocity=114 time=0
EXTRACT: note_on channel=10 note=57 velocity=114 time=0.03378375
EXTRACT: note_on channel=10 note=52 velocity=0 time=0.010135125
EXTRACT: note_on channel=9 note=26 velocity=0 time=0
EXTRACT: note_on channel=9 note=36 velocity=0 time=0
EXTRACT: note_on channel=9 note=32 velocity=0 time=0
EXTRACT: note_on channel=10 note=57 velocity=0 time=0.03378375
EXTRACT: note_on channel=5 note=59 velocity=0 time=0.11824312499999999
EXTRACT: note_on channel=2 note=67 velocity=0 time=0
EXTRACT: note_on channel=5 note=62 velocity=0 time=0
EXTRACT: note_on channel=4 note=47 velocity=0 time=0
EXTRACT: note_on channel=5 note=55 velocity=0 time=0
EXTRACT: note_on channel=11 note=86 velocity=0 time=0
EXTRACT: note_on channel=2 note=62 velocity=0 time=0
EXTRACT: note_on channel=5 note=43 velocity=0 time=0
EXTRACT: note_on channel=6 note=43 velocity=0 time=0
EXTRACT: note_on channel=15 note=59 velocity=0 time=0
EXTRACT: note_on channel=15 note=47 velocity=0 time=0
EXTRACT: note_on channel=6 note=50 velocity=0 time=0
EXTRACT: note_on channel=11 note=83 velocity=0 time=0
EXTRACT: note_on channel=4 note=52 velocity=0 time=0
EXTRACT: note_on channel=2 note=59 velocity=0 time=0
EXTRACT: note_on channel=1 note=31 velocity=0 time=0
EXTRACT: note_on channel=3 note=59 velocity=0 time=0
EXTRACT: note_on channel=7 note=50 velocity=0 time=0
EXTRACT: note_on channel=4 note=59 velocity=0 time=0
EXTRACT: note_on channel=11 note=91 velocity=0 time=0
EXTRACT: note_on channel=15 note=52 velocity=0 time=0
EXTRACT: note_on channel=3 note=57 velocity=118 time=0.00675675
EXTRACT: note_on channel=4 note=45 velocity=118 time=0
EXTRACT: note_on channel=4 note=50 velocity=118 time=0
EXTRACT: note_on channel=4 note=57 velocity=118 time=0
EXTRACT: note_on channel=7 note=50 velocity=104 time=0
EXTRACT: note_on channel=8 note=38 velocity=79 time=0
EXTRACT: note_on channel=9 note=26 velocity=50 time=0
EXTRACT: note_on channel=9 note=32 velocity=50 time=0
EXTRACT: note_on channel=9 note=36 velocity=120 time=0
EXTRACT: note_on channel=9 note=42 velocity=80 time=0
EXTRACT: note_on channel=10 note=52 velocity=120 time=0
EXTRACT: note_on channel=15 note=45 velocity=1 time=0
EXTRACT: note_on channel=15 note=50 velocity=1 time=0
EXTRACT: note_on channel=15 note=57 velocity=1 time=0
EXTRACT: note_on channel=10 note=57 velocity=120 time=0.037162125
EXTRACT: note_on channel=10 note=52 velocity=0 time=0.00675675
EXTRACT: note_on channel=9 note=42 velocity=0 time=0
EXTRACT: note_on channel=9 note=26 velocity=0 time=0
EXTRACT: note_on channel=9 note=36 velocity=0 time=0
EXTRACT: note_on channel=9 note=32 velocity=0 time=0
EXTRACT: note_on channel=10 note=57 velocity=0 time=0.037162125
EXTRACT: note_on channel=7 note=50 velocity=0 time=0.11486475
EXTRACT: note_on channel=7 note=54 velocity=93 time=0.00675675
EXTRACT: note_on channel=9 note=26 velocity=30 time=0
EXTRACT: note_on channel=9 note=32 velocity=30 time=0
EXTRACT: note_on channel=9 note=32 velocity=0 time=0.043918874999999996
EXTRACT: note_on channel=9 note=26 velocity=0 time=0
EXTRACT: note_on channel=15 note=45 velocity=0 time=0.152026875
EXTRACT: note_on channel=15 note=57 velocity=0 time=0
EXTRACT: note_on channel=3 note=57 velocity=0 time=0
EXTRACT: note_on channel=8 note=38 velocity=0 time=0
EXTRACT: note_on channel=15 note=50 velocity=0 time=0
EXTRACT: note_on channel=7 note=54 velocity=0 time=0
EXTRACT: note_on channel=4 note=45 velocity=0 time=0
EXTRACT: note_on channel=4 note=50 velocity=0 time=0
EXTRACT: note_on channel=4 note=57 velocity=0 time=0
EXTRACT: note_on channel=3 note=62 velocity=115 time=0.00675675
EXTRACT: note_on channel=7 note=57 velocity=89 time=0
EXTRACT: note_on channel=9 note=26 velocity=50 time=0
EXTRACT: note_on channel=9 note=32 velocity=50 time=0
EXTRACT: note_on channel=9 note=42 velocity=70 time=0
EXTRACT: note_on channel=9 note=42 velocity=0 time=0.043918874999999996
EXTRACT: note_on channel=9 note=26 velocity=0 time=0
EXTRACT: note_on channel=9 note=32 velocity=0 time=0
EXTRACT: note_on channel=3 note=62 velocity=0 time=0.145270125
EXTRACT: note_on channel=7 note=57 velocity=0 time=0.00675675
EXTRACT: note_on channel=7 note=54 velocity=77 time=0.00675675
EXTRACT: note_on channel=9 note=26 velocity=30 time=0
EXTRACT: note_on channel=9 note=32 velocity=30 time=0
EXTRACT: note_on channel=9 note=32 velocity=0 time=0.043918874999999996
EXTRACT: note_on channel=9 note=26 velocity=0 time=0
EXTRACT: note_on channel=7 note=54 velocity=0 time=0.152026875
EXTRACT: note_on channel=3 note=62 velocity=121 time=0.00675675
EXTRACT: note_on channel=7 note=57 velocity=98 time=0
EXTRACT: note_on channel=9 note=26 velocity=50 time=0
EXTRACT: note_on channel=9 note=32 velocity=50 time=0
EXTRACT: note_on channel=9 note=38 velocity=120 time=0
EXTRACT: note_on channel=9 note=42 velocity=80 time=0
EXTRACT: note_on channel=9 note=42 velocity=0 time=0.043918874999999996
EXTRACT: note_on channel=9 note=32 velocity=0 time=0
EXTRACT: note_on channel=9 note=26 velocity=0 time=0
EXTRACT: note_on channel=9 note=38 velocity=0 time=0
EXTRACT: note_on channel=7 note=57 velocity=0 time=0.152026875
EXTRACT: note_on channel=7 note=54 velocity=98 time=0.00675675
EXTRACT: note_on channel=9 note=26 velocity=30 time=0
EXTRACT: note_on channel=9 note=32 velocity=30 time=0
EXTRACT: note_on channel=9 note=32 velocity=0 time=0.043918874999999996
EXTRACT: note_on channel=9 note=26 velocity=0 time=0
EXTRACT: note_on channel=7 note=54 velocity=0 time=0.152026875
EXTRACT: note_on channel=7 note=50 velocity=101 time=0.00675675
EXTRACT: note_on channel=9 note=26 velocity=50 time=0
EXTRACT: note_on channel=9 note=32 velocity=50 time=0
EXTRACT: note_on channel=9 note=42 velocity=70 time=0
EXTRACT: note_on channel=9 note=42 velocity=0 time=0.043918874999999996
EXTRACT: note_on channel=9 note=26 velocity=0 time=0
EXTRACT: note_on channel=9 note=32 velocity=0 time=0
EXTRACT: note_on channel=7 note=50 velocity=0 time=0.152026875
EXTRACT: note_on channel=7 note=54 velocity=95 time=0.00675675
EXTRACT: note_on channel=9 note=26 velocity=30 time=0
EXTRACT: note_on channel=9 note=32 velocity=30 time=0
EXTRACT: note_on channel=9 note=36 velocity=120 time=0
EXTRACT: note_on channel=10 note=52 velocity=120 time=0
EXTRACT: note_on channel=10 note=57 velocity=120 time=0.03378375
EXTRACT: note_on channel=10 note=52 velocity=0 time=0.010135125
EXTRACT: note_on channel=9 note=32 velocity=0 time=0
EXTRACT: note_on channel=9 note=26 velocity=0 time=0
EXTRACT: note_on channel=9 note=36 velocity=0 time=0
EXTRACT: note_on channel=10 note=57 velocity=0 time=0.03378375
EXTRACT: note_on channel=7 note=54 velocity=0 time=0.11824312499999999
EXTRACT: note_on channel=7 note=50 velocity=104 time=0.00675675
EXTRACT: note_on channel=9 note=26 velocity=50 time=0
EXTRACT: note_on channel=9 note=32 velocity=50 time=0
EXTRACT: note_on channel=9 note=42 velocity=80 time=0
EXTRACT: note_on channel=9 note=42 velocity=0 time=0.043918874999999996
EXTRACT: note_on channel=9 note=26 velocity=0 time=0
EXTRACT: note_on channel=9 note=32 velocity=0 time=0
EXTRACT: note_on channel=7 note=50 velocity=0 time=0.152026875
EXTRACT: note_on channel=7 note=54 velocity=86 time=0.00675675
EXTRACT: note_on channel=9 note=26 velocity=30 time=0
EXTRACT: note_on channel=9 note=32 velocity=30 time=0
EXTRACT: note_on channel=9 note=36 velocity=120 time=0
EXTRACT: note_on channel=10 note=52 velocity=120 time=0
EXTRACT: note_on channel=10 note=57 velocity=120 time=0.03378375
EXTRACT: note_on channel=10 note=52 velocity=0 time=0.010135125
EXTRACT: note_on channel=9 note=32 velocity=0 time=0
EXTRACT: note_on channel=9 note=26 velocity=0 time=0
EXTRACT: note_on channel=9 note=36 velocity=0 time=0
EXTRACT: note_on channel=10 note=57 velocity=0 time=0.03378375
EXTRACT: note_on channel=3 note=62 velocity=0 time=0.037162125
EXTRACT: note_on channel=7 note=54 velocity=0 time=0.081081
EXTRACT: note_on channel=7 note=57 velocity=101 time=0.00675675
EXTRACT: note_on channel=9 note=26 velocity=50 time=0
EXTRACT: note_on channel=9 note=32 velocity=50 time=0
EXTRACT: note_on channel=9 note=36 velocity=120 time=0
EXTRACT: note_on channel=9 note=42 velocity=70 time=0
EXTRACT: note_on channel=10 note=52 velocity=120 time=0
EXTRACT: note_on channel=10 note=57 velocity=120 time=0.03378375
EXTRACT: note_on channel=10 note=52 velocity=0 time=0.010135125
EXTRACT: note_on channel=9 note=36 velocity=0 time=0
EXTRACT: note_on channel=9 note=26 velocity=0 time=0
EXTRACT: note_on channel=9 note=32 velocity=0 time=0
EXTRACT: note_on channel=9 note=42 velocity=0 time=0
EXTRACT: note_on channel=10 note=57 velocity=0 time=0.03378375
EXTRACT: note_on channel=7 note=57 velocity=0 time=0.11824312499999999
EXTRACT: note_on channel=3 note=62 velocity=109 time=0.00675675
EXTRACT: note_on channel=7 note=54 velocity=98 time=0
EXTRACT: note_on channel=9 note=26 velocity=30 time=0
EXTRACT: note_on channel=9 note=32 velocity=30 time=0
EXTRACT: note_on channel=9 note=32 velocity=0 time=0.043918874999999996
EXTRACT: note_on channel=9 note=26 velocity=0 time=0
EXTRACT: note_on channel=3 note=62 velocity=0 time=0.124999875
EXTRACT: note_on channel=7 note=54 velocity=0 time=0.027027
EXTRACT: note_on channel=3 note=62 velocity=106 time=0.00675675
EXTRACT: note_on channel=7 note=57 velocity=101 time=0
EXTRACT: note_on channel=9 note=26 velocity=50 time=0
EXTRACT: note_on channel=9 note=32 velocity=50 time=0
EXTRACT: note_on channel=9 note=38 velocity=120 time=0
EXTRACT: note_on channel=9 note=42 velocity=80 time=0
EXTRACT: note_on channel=9 note=42 velocity=0 time=0.043918874999999996
EXTRACT: note_on channel=9 note=32 velocity=0 time=0
EXTRACT: note_on channel=9 note=26 velocity=0 time=0
EXTRACT: note_on channel=9 note=38 velocity=0 time=0
EXTRACT: note_on channel=3 note=62 velocity=0 time=0.091216125
EXTRACT: note_on channel=7 note=57 velocity=0 time=0.06081075
EXTRACT: note_on channel=3 note=62 velocity=112 time=0.00675675
EXTRACT: note_on channel=7 note=54 velocity=93 time=0
EXTRACT: note_on channel=9 note=26 velocity=30 time=0
EXTRACT: note_on channel=9 note=32 velocity=30 time=0
EXTRACT: note_on channel=9 note=32 velocity=0 time=0.043918874999999996
EXTRACT: note_on channel=9 note=26 velocity=0 time=0
EXTRACT: note_on channel=3 note=62 velocity=0 time=0.111486375
EXTRACT: note_on channel=7 note=54 velocity=0 time=0.0405405
EXTRACT: note_on channel=3 note=62 velocity=104 time=0.00675675
EXTRACT: note_on channel=7 note=50 velocity=90 time=0
EXTRACT: note_on channel=9 note=26 velocity=50 time=0
EXTRACT: note_on channel=9 note=32 velocity=50 time=0
EXTRACT: note_on channel=9 note=42 velocity=70 time=0
EXTRACT: note_on channel=9 note=42 velocity=0 time=0.043918874999999996
EXTRACT: note_on channel=9 note=26 velocity=0 time=0
EXTRACT: note_on channel=9 note=32 velocity=0 time=0
EXTRACT: note_on channel=3 note=62 velocity=0 time=0.077702625
EXTRACT: note_on channel=7 note=50 velocity=0 time=0.07432425
EXTRACT: note_on channel=3 note=62 velocity=77 time=0.00675675
EXTRACT: note_on channel=7 note=54 velocity=90 time=0
EXTRACT: note_on channel=9 note=26 velocity=30 time=0
EXTRACT: note_on channel=9 note=32 velocity=30 time=0
EXTRACT: note_on channel=9 note=32 velocity=0 time=0.043918874999999996
EXTRACT: note_on channel=9 note=26 velocity=0 time=0
EXTRACT: note_on channel=3 note=62 velocity=0 time=0.07094587499999999
EXTRACT: note_on channel=7 note=54 velocity=0 time=0.081081
EXTRACT: note_on channel=3 note=61 velocity=109 time=0.00675675
EXTRACT: note_on channel=7 note=49 velocity=104 time=0
EXTRACT: note_on channel=8 note=37 velocity=79 time=0
EXTRACT: note_on channel=9 note=26 velocity=50 time=0
EXTRACT: note_on channel=9 note=32 velocity=50 time=0
EXTRACT: note_on channel=9 note=36 velocity=120 time=0
EXTRACT: note_on channel=9 note=42 velocity=80 time=0
EXTRACT: note_on channel=10 note=52 velocity=120 time=0
EXTRACT: note_on channel=10 note=57 velocity=120 time=0.03378375
EXTRACT: note_on channel=10 note=52 velocity=0 time=0.010135125
EXTRACT: note_on channel=9 note=42 velocity=0 time=0
EXTRACT: note_on channel=9 note=26 velocity=0 time=0
EXTRACT: note_on channel=9 note=32 velocity=0 time=0
EXTRACT: note_on channel=9 note=36 velocity=0 time=0
EXTRACT: note_on channel=10 note=57 velocity=0 time=0.03378375
EXTRACT: note_on channel=7 note=49 velocity=0 time=0.11824312499999999
EXTRACT: note_on channel=7 note=54 velocity=93 time=0.00675675
EXTRACT: note_on channel=9 note=26 velocity=30 time=0
EXTRACT: note_on channel=9 note=32 velocity=30 time=0
EXTRACT: note_on channel=3 note=61 velocity=0 time=0.010135125
EXTRACT: note_on channel=9 note=26 velocity=0 time=0.03378375
EXTRACT: note_on channel=9 note=32 velocity=0 time=0
EXTRACT: note_on channel=7 note=54 velocity=0 time=0.152026875
EXTRACT: note_on channel=8 note=37 velocity=0 time=0
EXTRACT: note_on channel=3 note=61 velocity=118 time=0.00675675
EXTRACT: note_on channel=7 note=57 velocity=89 time=0
EXTRACT: note_on channel=9 note=26 velocity=50 time=0
EXTRACT: note_on channel=9 note=32 velocity=50 time=0
EXTRACT: note_on channel=9 note=42 velocity=70 time=0
EXTRACT: note_on channel=9 note=42 velocity=0 time=0.043918874999999996
EXTRACT: note_on channel=9 note=26 velocity=0 time=0
EXTRACT: note_on channel=9 note=32 velocity=0 time=0
EXTRACT: note_on channel=3 note=61 velocity=0 time=0.145270125
EXTRACT: note_on channel=7 note=57 velocity=0 time=0.00675675
EXTRACT: note_on channel=7 note=54 velocity=77 time=0.00675675
EXTRACT: note_on channel=9 note=26 velocity=30 time=0
EXTRACT: note_on channel=9 note=32 velocity=30 time=0
EXTRACT: note_on channel=9 note=32 velocity=0 time=0.043918874999999996
EXTRACT: note_on channel=9 note=26 velocity=0 time=0
EXTRACT: note_on channel=7 note=54 velocity=0 time=0.152026875
EXTRACT: note_on channel=3 note=61 velocity=112 time=0.00675675
EXTRACT: note_on channel=7 note=57 velocity=98 time=0
EXTRACT: note_on channel=9 note=26 velocity=50 time=0
EXTRACT: note_on channel=9 note=32 velocity=50 time=0
EXTRACT: note_on channel=9 note=38 velocity=120 time=0
EXTRACT: note_on channel=9 note=42 velocity=80 time=0
EXTRACT: note_on channel=9 note=42 velocity=0 time=0.043918874999999996
EXTRACT: note_on channel=9 note=32 velocity=0 time=0
EXTRACT: note_on channel=9 note=26 velocity=0 time=0
EXTRACT: note_on channel=9 note=38 velocity=0 time=0
EXTRACT: note_on channel=7 note=57 velocity=0 time=0.152026875
EXTRACT: note_on channel=7 note=54 velocity=98 time=0.00675675
EXTRACT: note_on channel=9 note=26 velocity=30 time=0
EXTRACT: note_on channel=9 note=32 velocity=30 time=0
EXTRACT: note_on channel=9 note=32 velocity=0 time=0.043918874999999996
EXTRACT: note_on channel=9 note=26 velocity=0 time=0
EXTRACT: note_on channel=7 note=54 velocity=0 time=0.152026875
EXTRACT: note_on channel=7 note=49 velocity=101 time=0.00675675
EXTRACT: note_on channel=9 note=26 velocity=50 time=0
EXTRACT: note_on channel=9 note=32 velocity=50 time=0
EXTRACT: note_on channel=9 note=42 velocity=70 time=0
EXTRACT: note_on channel=9 note=42 velocity=0 time=0.043918874999999996
EXTRACT: note_on channel=9 note=26 velocity=0 time=0
EXTRACT: note_on channel=9 note=32 velocity=0 time=0
EXTRACT: note_on channel=7 note=49 velocity=0 time=0.152026875
EXTRACT: note_on channel=7 note=54 velocity=95 time=0.00675675
EXTRACT: note_on channel=9 note=26 velocity=30 time=0
EXTRACT: note_on channel=9 note=32 velocity=30 time=0
EXTRACT: note_on channel=9 note=36 velocity=120 time=0
EXTRACT: note_on channel=10 note=52 velocity=120 time=0
EXTRACT: note_on channel=10 note=57 velocity=120 time=0.03378375
EXTRACT: note_on channel=10 note=52 velocity=0 time=0.010135125
EXTRACT: note_on channel=9 note=32 velocity=0 time=0
EXTRACT: note_on channel=9 note=26 velocity=0 time=0
EXTRACT: note_on channel=9 note=36 velocity=0 time=0
EXTRACT: note_on channel=3 note=61 velocity=0 time=0.02027025
EXTRACT: note_on channel=10 note=57 velocity=0 time=0.0135135
EXTRACT: note_on channel=7 note=54 velocity=0 time=0.11824312499999999
EXTRACT: note_on channel=7 note=49 velocity=104 time=0.00675675
EXTRACT: note_on channel=9 note=26 velocity=50 time=0
EXTRACT: note_on channel=9 note=32 velocity=50 time=0
EXTRACT: note_on channel=9 note=42 velocity=80 time=0
EXTRACT: note_on channel=9 note=42 velocity=0 time=0.043918874999999996
EXTRACT: note_on channel=9 note=32 velocity=0 time=0
EXTRACT: note_on channel=9 note=26 velocity=0 time=0
EXTRACT: note_on channel=7 note=49 velocity=0 time=0.152026875
EXTRACT: note_on channel=7 note=54 velocity=86 time=0.00675675
EXTRACT: note_on channel=9 note=26 velocity=30 time=0
EXTRACT: note_on channel=9 note=32 velocity=30 time=0
EXTRACT: note_on channel=9 note=36 velocity=120 time=0
EXTRACT: note_on channel=10 note=52 velocity=120 time=0
EXTRACT: note_on channel=10 note=57 velocity=120 time=0.03378375
EXTRACT: note_on channel=10 note=52 velocity=0 time=0.010135125
EXTRACT: note_on channel=9 note=36 velocity=0 time=0
EXTRACT: note_on channel=9 note=32 velocity=0 time=0
EXTRACT: note_on channel=9 note=26 velocity=0 time=0
EXTRACT: note_on channel=10 note=57 velocity=0 time=0.03378375
EXTRACT: note_on channel=7 note=54 velocity=0 time=0.11824312499999999
EXTRACT: note_on channel=7 note=57 velocity=101 time=0.00675675
EXTRACT: note_on channel=9 note=26 velocity=50 time=0
EXTRACT: note_on channel=9 note=32 velocity=50 time=0
EXTRACT: note_on channel=9 note=36 velocity=120 time=0
EXTRACT: note_on channel=9 note=42 velocity=70 time=0
EXTRACT: note_on channel=10 note=52 velocity=120 time=0
EXTRACT: note_on channel=10 note=57 velocity=120 time=0.03378375
EXTRACT: note_on channel=10 note=52 velocity=0 time=0.010135125
EXTRACT: note_on channel=9 note=36 velocity=0 time=0
EXTRACT: note_on channel=9 note=26 velocity=0 time=0
EXTRACT: note_on channel=9 note=32 velocity=0 time=0
EXTRACT: note_on channel=9 note=42 velocity=0 time=0
EXTRACT: note_on channel=10 note=57 velocity=0 time=0.03378375
EXTRACT: note_on channel=7 note=57 velocity=0 time=0.11824312499999999
EXTRACT: note_on channel=3 note=61 velocity=106 time=0.00675675
EXTRACT: note_on channel=7 note=54 velocity=98 time=0
EXTRACT: note_on channel=9 note=26 velocity=30 time=0
EXTRACT: note_on channel=9 note=32 velocity=30 time=0
EXTRACT: note_on channel=9 note=32 velocity=0 time=0.043918874999999996
EXTRACT: note_on channel=9 note=26 velocity=0 time=0
EXTRACT: note_on channel=3 note=61 velocity=0 time=0.04729725
EXTRACT: note_on channel=7 note=54 velocity=0 time=0.10472962499999999
EXTRACT: note_on channel=3 note=61 velocity=109 time=0.00675675
EXTRACT: note_on channel=7 note=57 velocity=101 time=0
EXTRACT: note_on channel=9 note=26 velocity=50 time=0
EXTRACT: note_on channel=9 note=32 velocity=50 time=0
EXTRACT: note_on channel=9 note=38 velocity=120 time=0
EXTRACT: note_on channel=9 note=42 velocity=80 time=0
EXTRACT: note_on channel=9 note=42 velocity=0 time=0.043918874999999996
EXTRACT: note_on channel=9 note=32 velocity=0 time=0
EXTRACT: note_on channel=9 note=26 velocity=0 time=0
EXTRACT: note_on channel=9 note=38 velocity=0 time=0
EXTRACT: note_on channel=3 note=61 velocity=0 time=0.07432425
EXTRACT: note_on channel=7 note=57 velocity=0 time=0.077702625
EXTRACT: note_on channel=3 note=61 velocity=89 time=0.00675675
EXTRACT: note_on channel=7 note=54 velocity=93 time=0
EXTRACT: note_on channel=9 note=26 velocity=30 time=0
EXTRACT: note_on channel=9 note=32 velocity=30 time=0
EXTRACT: note_on channel=9 note=32 velocity=0 time=0.043918874999999996
EXTRACT: note_on channel=9 note=26 velocity=0 time=0
EXTRACT: note_on channel=3 note=61 velocity=0 time=0.057432375
EXTRACT: note_on channel=7 note=54 velocity=0 time=0.0945945
EXTRACT: note_on channel=3 note=61 velocity=98 time=0.00675675
EXTRACT: note_on channel=7 note=49 velocity=90 time=0
EXTRACT: note_on channel=9 note=26 velocity=50 time=0
EXTRACT: note_on channel=9 note=32 velocity=50 time=0
EXTRACT: note_on channel=9 note=36 velocity=114 time=0
EXTRACT: note_on channel=9 note=42 velocity=70 time=0
EXTRACT: note_on channel=10 note=52 velocity=114 time=0
EXTRACT: note_on channel=10 note=57 velocity=114 time=0.03378375
EXTRACT: note_on channel=10 note=52 velocity=0 time=0.010135125
EXTRACT: note_on channel=9 note=32 velocity=0 time=0
EXTRACT: note_on channel=9 note=36 velocity=0 time=0
EXTRACT: note_on channel=9 note=26 velocity=0 time=0
EXTRACT: note_on channel=9 note=42 velocity=0 time=0
EXTRACT: note_on channel=10 note=57 velocity=0 time=0.03378375
EXTRACT: note_on channel=3 note=61 velocity=0 time=0.016891875
EXTRACT: note_on channel=7 note=49 velocity=0 time=0.10135124999999999
EXTRACT: note_on channel=3 note=61 velocity=104 time=0.00675675
EXTRACT: note_on channel=7 note=54 velocity=90 time=0
EXTRACT: note_on channel=9 note=26 velocity=30 time=0
EXTRACT: note_on channel=9 note=32 velocity=30 time=0
EXTRACT: note_on channel=9 note=36 velocity=114 time=0
EXTRACT: note_on channel=10 note=52 velocity=114 time=0
EXTRACT: note_on channel=10 note=57 velocity=114 time=0.03378375
EXTRACT: note_on channel=10 note=52 velocity=0 time=0.010135125
EXTRACT: note_on channel=9 note=32 velocity=0 time=0
EXTRACT: note_on channel=9 note=26 velocity=0 time=0
EXTRACT: note_on channel=9 note=36 velocity=0 time=0
EXTRACT: note_on channel=10 note=57 velocity=0 time=0.03378375
EXTRACT: note_on channel=3 note=61 velocity=0 time=0.043918874999999996
EXTRACT: note_on channel=7 note=54 velocity=0 time=0.07432425
EXTRACT: note_on channel=3 note=59 velocity=112 time=0.00675675
EXTRACT: note_on channel=7 note=47 velocity=104 time=0
EXTRACT: note_on channel=8 note=35 velocity=82 time=0
EXTRACT: note_on channel=9 note=26 velocity=50 time=0
EXTRACT: note_on channel=9 note=32 velocity=50 time=0
EXTRACT: note_on channel=9 note=36 velocity=120 time=0
EXTRACT: note_on channel=9 note=42 velocity=80 time=0
EXTRACT: note_on channel=10 note=52 velocity=120 time=0
EXTRACT: note_on channel=10 note=57 velocity=120 time=0.037162125
EXTRACT: note_on channel=10 note=52 velocity=0 time=0.00675675
EXTRACT: note_on channel=9 note=42 velocity=0 time=0
EXTRACT: note_on channel=9 note=26 velocity=0 time=0
EXTRACT: note_on channel=9 note=32 velocity=0 time=0
EXTRACT: note_on channel=9 note=36 velocity=0 time=0
EXTRACT: note_on channel=10 note=57 velocity=0 time=0.037162125
EXTRACT: note_on channel=7 note=47 velocity=0 time=0.11486475
EXTRACT: note_on channel=7 note=50 velocity=93 time=0.00675675
EXTRACT: note_on channel=9 note=26 velocity=30 time=0
EXTRACT: note_on channel=9 note=32 velocity=30 time=0
EXTRACT: note_on channel=3 note=59 velocity=0 time=0.037162125
EXTRACT: note_on channel=9 note=26 velocity=0 time=0.00675675
EXTRACT: note_on channel=9 note=32 velocity=0 time=0
EXTRACT: note_on channel=7 note=50 velocity=0 time=0.152026875
EXTRACT: note_on channel=8 note=35 velocity=0 time=0
EXTRACT: note_on channel=3 note=59 velocity=109 time=0.00675675
EXTRACT: note_on channel=7 note=54 velocity=89 time=0
EXTRACT: note_on channel=9 note=26 velocity=50 time=0
EXTRACT: note_on channel=9 note=32 velocity=50 time=0
EXTRACT: note_on channel=9 note=42 velocity=70 time=0
EXTRACT: note_on channel=9 note=42 velocity=0 time=0.043918874999999996
EXTRACT: note_on channel=9 note=26 velocity=0 time=0
EXTRACT: note_on channel=9 note=32 velocity=0 time=0
EXTRACT: note_on channel=3 note=59 velocity=0 time=0.145270125
EXTRACT: note_on channel=7 note=54 velocity=0 time=0.00675675
EXTRACT: note_on channel=7 note=52 velocity=77 time=0.00675675
EXTRACT: note_on channel=9 note=26 velocity=30 time=0
EXTRACT: note_on channel=9 note=32 velocity=30 time=0
EXTRACT: note_on channel=9 note=32 velocity=0 time=0.043918874999999996
EXTRACT: note_on channel=9 note=26 velocity=0 time=0
EXTRACT: note_on channel=7 note=52 velocity=0 time=0.152026875
EXTRACT: note_on channel=3 note=59 velocity=112 time=0.00675675
EXTRACT: note_on channel=7 note=54 velocity=98 time=0
EXTRACT: note_on channel=9 note=26 velocity=50 time=0
EXTRACT: note_on channel=9 note=32 velocity=50 time=0
EXTRACT: note_on channel=9 note=38 velocity=120 time=0
EXTRACT: note_on channel=9 note=42 velocity=80 time=0
EXTRACT: note_on channel=9 note=42 velocity=0 time=0.043918874999999996
EXTRACT: note_on channel=9 note=32 velocity=0 time=0
EXTRACT: note_on channel=9 note=26 velocity=0 time=0
EXTRACT: note_on channel=9 note=38 velocity=0 time=0
EXTRACT: note_on channel=7 note=54 velocity=0 time=0.152026875
EXTRACT: note_on channel=7 note=50 velocity=98 time=0.00675675
EXTRACT: note_on channel=9 note=26 velocity=30 time=0
EXTRACT: note_on channel=9 note=32 velocity=30 time=0
EXTRACT: note_on channel=9 note=32 velocity=0 time=0.043918874999999996
EXTRACT: note_on channel=9 note=26 velocity=0 time=0
EXTRACT: note_on channel=7 note=50 velocity=0 time=0.152026875
EXTRACT: note_on channel=7 note=47 velocity=101 time=0.00675675
EXTRACT: note_on channel=9 note=26 velocity=50 time=0
EXTRACT: note_on channel=9 note=32 velocity=50 time=0
EXTRACT: note_on channel=9 note=42 velocity=70 time=0
EXTRACT: note_on channel=9 note=42 velocity=0 time=0.043918874999999996
EXTRACT: note_on channel=9 note=26 velocity=0 time=0
EXTRACT: note_on channel=9 note=32 velocity=0 time=0
EXTRACT: note_on channel=7 note=47 velocity=0 time=0.152026875
EXTRACT: note_on channel=7 note=50 velocity=95 time=0.00675675
EXTRACT: note_on channel=9 note=26 velocity=30 time=0
EXTRACT: note_on channel=9 note=32 velocity=30 time=0
EXTRACT: note_on channel=9 note=36 velocity=120 time=0
EXTRACT: note_on channel=10 note=52 velocity=120 time=0
EXTRACT: note_on channel=10 note=57 velocity=120 time=0.03378375
EXTRACT: note_on channel=10 note=52 velocity=0 time=0.010135125
EXTRACT: note_on channel=9 note=32 velocity=0 time=0
EXTRACT: note_on channel=9 note=26 velocity=0 time=0
EXTRACT: note_on channel=9 note=36 velocity=0 time=0
EXTRACT: note_on channel=10 note=57 velocity=0 time=0.03378375
EXTRACT: note_on channel=3 note=59 velocity=0 time=0.023648625
EXTRACT: note_on channel=7 note=50 velocity=0 time=0.0945945
EXTRACT: note_on channel=7 note=47 velocity=104 time=0.00675675
EXTRACT: note_on channel=9 note=26 velocity=50 time=0
EXTRACT: note_on channel=9 note=32 velocity=50 time=0
EXTRACT: note_on channel=9 note=42 velocity=80 time=0
EXTRACT: note_on channel=9 note=42 velocity=0 time=0.043918874999999996
EXTRACT: note_on channel=9 note=32 velocity=0 time=0
EXTRACT: note_on channel=9 note=26 velocity=0 time=0
EXTRACT: note_on channel=7 note=47 velocity=0 time=0.152026875
EXTRACT: note_on channel=7 note=54 velocity=86 time=0.00675675
EXTRACT: note_on channel=9 note=26 velocity=30 time=0
EXTRACT: note_on channel=9 note=32 velocity=30 time=0
EXTRACT: note_on channel=9 note=36 velocity=120 time=0
EXTRACT: note_on channel=10 note=52 velocity=120 time=0
EXTRACT: note_on channel=10 note=57 velocity=120 time=0.03378375
EXTRACT: note_on channel=10 note=52 velocity=0 time=0.010135125
EXTRACT: note_on channel=9 note=36 velocity=0 time=0
EXTRACT: note_on channel=9 note=32 velocity=0 time=0
EXTRACT: note_on channel=9 note=26 velocity=0 time=0
EXTRACT: note_on channel=10 note=57 velocity=0 time=0.03378375
EXTRACT: note_on channel=7 note=54 velocity=0 time=0.11824312499999999
EXTRACT: note_on channel=7 note=62 velocity=101 time=0.00675675
EXTRACT: note_on channel=9 note=26 velocity=50 time=0
EXTRACT: note_on channel=9 note=32 velocity=50 time=0
EXTRACT: note_on channel=9 note=36 velocity=120 time=0
EXTRACT: note_on channel=9 note=42 velocity=70 time=0
EXTRACT: note_on channel=10 note=52 velocity=120 time=0
EXTRACT: note_on channel=10 note=57 velocity=120 time=0.03378375
EXTRACT: note_on channel=10 note=52 velocity=0 time=0.010135125
EXTRACT: note_on channel=9 note=36 velocity=0 time=0
EXTRACT: note_on channel=9 note=26 velocity=0 time=0
EXTRACT: note_on channel=9 note=32 velocity=0 time=0
EXTRACT: note_on channel=9 note=42 velocity=0 time=0
EXTRACT: note_on channel=10 note=57 velocity=0 time=0.03378375
EXTRACT: note_on channel=7 note=62 velocity=0 time=0.11824312499999999
EXTRACT: note_on channel=3 note=59 velocity=106 time=0.00675675
EXTRACT: note_on channel=7 note=61 velocity=98 time=0
EXTRACT: note_on channel=9 note=26 velocity=30 time=0
EXTRACT: note_on channel=9 note=32 velocity=30 time=0
EXTRACT: note_on channel=9 note=32 velocity=0 time=0.043918874999999996
EXTRACT: note_on channel=9 note=26 velocity=0 time=0
EXTRACT: note_on channel=3 note=59 velocity=0 time=0.043918874999999996
EXTRACT: note_on channel=7 note=61 velocity=0 time=0.108108
EXTRACT: note_on channel=3 note=59 velocity=112 time=0.00675675
EXTRACT: note_on channel=7 note=62 velocity=101 time=0
EXTRACT: note_on channel=9 note=26 velocity=50 time=0
EXTRACT: note_on channel=9 note=32 velocity=50 time=0
EXTRACT: note_on channel=9 note=38 velocity=120 time=0
EXTRACT: note_on channel=9 note=42 velocity=80 time=0
EXTRACT: note_on channel=9 note=42 velocity=0 time=0.043918874999999996
EXTRACT: note_on channel=9 note=32 velocity=0 time=0
EXTRACT: note_on channel=9 note=26 velocity=0 time=0
EXTRACT: note_on channel=9 note=38 velocity=0 time=0
EXTRACT: note_on channel=3 note=59 velocity=0 time=0.050675624999999995
EXTRACT: note_on channel=7 note=62 velocity=0 time=0.10135124999999999
EXTRACT: note_on channel=3 note=62 velocity=112 time=0.00675675
EXTRACT: note_on channel=7 note=54 velocity=93 time=0
EXTRACT: note_on channel=9 note=26 velocity=30 time=0
EXTRACT: note_on channel=9 note=32 velocity=30 time=0
EXTRACT: note_on channel=9 note=32 velocity=0 time=0.043918874999999996
EXTRACT: note_on channel=9 note=26 velocity=0 time=0
EXTRACT: note_on channel=3 note=62 velocity=0 time=0.0945945
EXTRACT: note_on channel=7 note=54 velocity=0 time=0.057432375
EXTRACT: note_on channel=3 note=62 velocity=118 time=0.00675675
EXTRACT: note_on channel=7 note=59 velocity=90 time=0
EXTRACT: note_on channel=9 note=26 velocity=50 time=0
EXTRACT: note_on channel=9 note=32 velocity=50 time=0
EXTRACT: note_on channel=9 note=42 velocity=70 time=0
EXTRACT: note_on channel=9 note=42 velocity=0 time=0.043918874999999996
EXTRACT: note_on channel=9 note=26 velocity=0 time=0
EXTRACT: note_on channel=9 note=32 velocity=0 time=0
EXTRACT: note_on channel=3 note=62 velocity=0 time=0.050675624999999995
EXTRACT: note_on channel=7 note=59 velocity=0 time=0.10135124999999999
EXTRACT: note_on channel=3 note=59 velocity=121 time=0.00675675
EXTRACT: note_on channel=7 note=54 velocity=90 time=0
EXTRACT: note_on channel=9 note=26 velocity=30 time=0
EXTRACT: note_on channel=9 note=32 velocity=30 time=0
EXTRACT: note_on channel=9 note=32 velocity=0 time=0.043918874999999996
EXTRACT: note_on channel=9 note=26 velocity=0 time=0
EXTRACT: note_on channel=3 note=59 velocity=0 time=0.050675624999999995
EXTRACT: note_on channel=7 note=54 velocity=0 time=0.10135124999999999
EXTRACT: note_on channel=3 note=59 velocity=112 time=0.00675675
EXTRACT: note_on channel=7 note=47 velocity=104 time=0
EXTRACT: note_on channel=8 note=31 velocity=81 time=0
EXTRACT: note_on channel=9 note=26 velocity=50 time=0
EXTRACT: note_on channel=9 note=32 velocity=50 time=0
EXTRACT: note_on channel=9 note=36 velocity=120 time=0
EXTRACT: note_on channel=9 note=42 velocity=80 time=0
EXTRACT: note_on channel=10 note=52 velocity=120 time=0
EXTRACT: note_on channel=10 note=57 velocity=120 time=0.03378375
EXTRACT: note_on channel=10 note=52 velocity=0 time=0.010135125
EXTRACT: note_on channel=9 note=42 velocity=0 time=0
EXTRACT: note_on channel=9 note=26 velocity=0 time=0
EXTRACT: note_on channel=9 note=32 velocity=0 time=0
EXTRACT: note_on channel=9 note=36 velocity=0 time=0
EXTRACT: note_on channel=10 note=57 velocity=0 time=0.03378375
EXTRACT: note_on channel=7 note=47 velocity=0 time=0.11824312499999999
EXTRACT: note_on channel=7 note=50 velocity=93 time=0.00675675
EXTRACT: note_on channel=9 note=26 velocity=30 time=0
EXTRACT: note_on channel=9 note=32 velocity=30 time=0
EXTRACT: note_on channel=3 note=59 velocity=0 time=0.037162125
EXTRACT: note_on channel=9 note=26 velocity=0 time=0.00675675
EXTRACT: note_on channel=9 note=32 velocity=0 time=0
EXTRACT: note_on channel=7 note=50 velocity=0 time=0.152026875
EXTRACT: note_on channel=8 note=31 velocity=0 time=0
EXTRACT: note_on channel=3 note=59 velocity=118 time=0.00675675
EXTRACT: note_on channel=7 note=59 velocity=89 time=0
EXTRACT: note_on channel=9 note=26 velocity=50 time=0
EXTRACT: note_on channel=9 note=32 velocity=50 time=0
EXTRACT: note_on channel=9 note=42 velocity=70 time=0
EXTRACT: note_on channel=9 note=42 velocity=0 time=0.043918874999999996
EXTRACT: note_on channel=9 note=26 velocity=0 time=0
EXTRACT: note_on channel=9 note=32 velocity=0 time=0
EXTRACT: note_on channel=7 note=59 velocity=0 time=0.152026875
EXTRACT: note_on channel=7 note=57 velocity=77 time=0.00675675
EXTRACT: note_on channel=9 note=26 velocity=30 time=0
EXTRACT: note_on channel=9 note=32 velocity=30 time=0
EXTRACT: note_on channel=3 note=59 velocity=0 time=0.0135135
EXTRACT: note_on channel=9 note=32 velocity=0 time=0.030405375
EXTRACT: note_on channel=9 note=26 velocity=0 time=0
EXTRACT: note_on channel=7 note=57 velocity=0 time=0.152026875
EXTRACT: note_on channel=3 note=59 velocity=115 time=0.00675675
EXTRACT: note_on channel=7 note=59 velocity=98 time=0
EXTRACT: note_on channel=9 note=26 velocity=50 time=0
EXTRACT: note_on channel=9 note=32 velocity=50 time=0
EXTRACT: note_on channel=9 note=38 velocity=120 time=0
EXTRACT: note_on channel=9 note=42 velocity=80 time=0
EXTRACT: note_on channel=9 note=42 velocity=0 time=0.043918874999999996
EXTRACT: note_on channel=9 note=32 velocity=0 time=0
EXTRACT: note_on channel=9 note=26 velocity=0 time=0
EXTRACT: note_on channel=9 note=38 velocity=0 time=0
EXTRACT: note_on channel=7 note=59 velocity=0 time=0.152026875
EXTRACT: note_on channel=7 note=55 velocity=98 time=0.00675675
EXTRACT: note_on channel=9 note=26 velocity=30 time=0
EXTRACT: note_on channel=9 note=32 velocity=30 time=0
EXTRACT: note_on channel=9 note=32 velocity=0 time=0.043918874999999996
EXTRACT: note_on channel=9 note=26 velocity=0 time=0
EXTRACT: note_on channel=7 note=55 velocity=0 time=0.152026875
EXTRACT: note_on channel=7 note=47 velocity=78 time=0.00675675
EXTRACT: note_on channel=9 note=26 velocity=50 time=0
EXTRACT: note_on channel=9 note=32 velocity=50 time=0
EXTRACT: note_on channel=9 note=42 velocity=70 time=0
EXTRACT: note_on channel=9 note=42 velocity=0 time=0.043918874999999996
EXTRACT: note_on channel=9 note=26 velocity=0 time=0
EXTRACT: note_on channel=9 note=32 velocity=0 time=0
EXTRACT: note_on channel=7 note=47 velocity=0 time=0.152026875
EXTRACT: note_on channel=7 note=50 velocity=63 time=0.00675675
EXTRACT: note_on channel=9 note=26 velocity=30 time=0
EXTRACT: note_on channel=9 note=32 velocity=30 time=0
EXTRACT: note_on channel=9 note=36 velocity=120 time=0
EXTRACT: note_on channel=10 note=52 velocity=120 time=0
EXTRACT: note_on channel=3 note=59 velocity=0 time=0.00675675
EXTRACT: note_on channel=10 note=57 velocity=120 time=0.027027
EXTRACT: note_on channel=9 note=26 velocity=0 time=0.010135125
EXTRACT: note_on channel=9 note=36 velocity=0 time=0
EXTRACT: note_on channel=9 note=32 velocity=0 time=0
EXTRACT: note_on channel=10 note=52 velocity=0 time=0
EXTRACT: note_on channel=10 note=57 velocity=0 time=0.03378375
EXTRACT: note_on channel=7 note=50 velocity=0 time=0.11824312499999999
EXTRACT: note_on channel=7 note=47 velocity=76 time=0.00675675
EXTRACT: note_on channel=9 note=26 velocity=50 time=0
EXTRACT: note_on channel=9 note=32 velocity=50 time=0
EXTRACT: note_on channel=9 note=42 velocity=80 time=0
EXTRACT: note_on channel=9 note=42 velocity=0 time=0.043918874999999996
EXTRACT: note_on channel=9 note=32 velocity=0 time=0
EXTRACT: note_on channel=9 note=26 velocity=0 time=0
EXTRACT: note_on channel=7 note=47 velocity=0 time=0.152026875
EXTRACT: note_on channel=7 note=50 velocity=86 time=0.00675675
EXTRACT: note_on channel=9 note=26 velocity=30 time=0
EXTRACT: note_on channel=9 note=32 velocity=30 time=0
EXTRACT: note_on channel=9 note=36 velocity=120 time=0
EXTRACT: note_on channel=10 note=52 velocity=120 time=0
EXTRACT: note_on channel=10 note=57 velocity=120 time=0.03378375
EXTRACT: note_on channel=10 note=52 velocity=0 time=0.010135125
EXTRACT: note_on channel=9 note=36 velocity=0 time=0
EXTRACT: note_on channel=9 note=32 velocity=0 time=0
EXTRACT: note_on channel=9 note=26 velocity=0 time=0
EXTRACT: note_on channel=10 note=57 velocity=0 time=0.03378375
EXTRACT: note_on channel=7 note=50 velocity=0 time=0.11824312499999999
EXTRACT: note_on channel=7 note=59 velocity=88 time=0.00675675
EXTRACT: note_on channel=9 note=26 velocity=50 time=0
EXTRACT: note_on channel=9 note=32 velocity=50 time=0
EXTRACT: note_on channel=9 note=36 velocity=120 time=0
EXTRACT: note_on channel=9 note=42 velocity=70 time=0
EXTRACT: note_on channel=10 note=52 velocity=120 time=0
EXTRACT: note_on channel=10 note=57 velocity=120 time=0.03378375
EXTRACT: note_on channel=10 note=52 velocity=0 time=0.010135125
EXTRACT: note_on channel=9 note=36 velocity=0 time=0
EXTRACT: note_on channel=9 note=26 velocity=0 time=0
EXTRACT: note_on channel=9 note=32 velocity=0 time=0
EXTRACT: note_on channel=9 note=42 velocity=0 time=0
EXTRACT: note_on channel=10 note=57 velocity=0 time=0.03378375
EXTRACT: note_on channel=7 note=59 velocity=0 time=0.11824312499999999
EXTRACT: note_on channel=7 note=57 velocity=88 time=0.00675675
EXTRACT: note_on channel=9 note=26 velocity=30 time=0
EXTRACT: note_on channel=9 note=32 velocity=30 time=0
EXTRACT: note_on channel=9 note=32 velocity=0 time=0.043918874999999996
EXTRACT: note_on channel=9 note=26 velocity=0 time=0
EXTRACT: note_on channel=7 note=57 velocity=0 time=0.152026875
EXTRACT: note_on channel=7 note=59 velocity=81 time=0.00675675
EXTRACT: note_on channel=9 note=26 velocity=50 time=0
EXTRACT: note_on channel=9 note=32 velocity=50 time=0
EXTRACT: note_on channel=9 note=38 velocity=120 time=0
EXTRACT: note_on channel=9 note=42 velocity=80 time=0
EXTRACT: note_on channel=9 note=42 velocity=0 time=0.043918874999999996
EXTRACT: note_on channel=9 note=32 velocity=0 time=0
EXTRACT: note_on channel=9 note=38 velocity=0 time=0
EXTRACT: note_on channel=9 note=26 velocity=0 time=0
EXTRACT: note_on channel=7 note=59 velocity=0 time=0.152026875
EXTRACT: note_on channel=3 note=62 velocity=109 time=0.00675675
EXTRACT: note_on channel=7 note=55 velocity=73 time=0
EXTRACT: note_on channel=9 note=26 velocity=30 time=0
EXTRACT: note_on channel=9 note=32 velocity=30 time=0
EXTRACT: note_on channel=9 note=32 velocity=0 time=0.043918874999999996
EXTRACT: note_on channel=9 note=26 velocity=0 time=0
EXTRACT: note_on channel=3 note=62 velocity=0 time=0.054054
EXTRACT: note_on channel=7 note=55 velocity=0 time=0.097972875
EXTRACT: note_on channel=3 note=62 velocity=95 time=0.00675675
EXTRACT: note_on channel=7 note=50 velocity=73 time=0
EXTRACT: note_on channel=9 note=26 velocity=50 time=0
EXTRACT: note_on channel=9 note=32 velocity=50 time=0
EXTRACT: note_on channel=9 note=36 velocity=114 time=0
EXTRACT: note_on channel=9 note=42 velocity=70 time=0
EXTRACT: note_on channel=10 note=52 velocity=114 time=0
EXTRACT: note_on channel=10 note=57 velocity=114 time=0.03378375
EXTRACT: note_on channel=10 note=52 velocity=0 time=0.010135125
EXTRACT: note_on channel=9 note=32 velocity=0 time=0
EXTRACT: note_on channel=9 note=36 velocity=0 time=0
EXTRACT: note_on channel=9 note=26 velocity=0 time=0
EXTRACT: note_on channel=9 note=42 velocity=0 time=0
EXTRACT: note_on channel=10 note=57 velocity=0 time=0.03378375
EXTRACT: note_on channel=3 note=62 velocity=0 time=0.030405375
EXTRACT: note_on channel=7 note=50 velocity=0 time=0.08783774999999999
EXTRACT: note_on channel=3 note=62 velocity=104 time=0.00675675
EXTRACT: note_on channel=7 note=55 velocity=71 time=0
EXTRACT: note_on channel=9 note=26 velocity=30 time=0
EXTRACT: note_on channel=9 note=32 velocity=30 time=0
EXTRACT: note_on channel=9 note=36 velocity=114 time=0
EXTRACT: note_on channel=9 note=38 velocity=120 time=0
EXTRACT: note_on channel=10 note=52 velocity=114 time=0
EXTRACT: note_on channel=10 note=57 velocity=114 time=0.03378375
EXTRACT: note_on channel=10 note=52 velocity=0 time=0.010135125
EXTRACT: note_on channel=9 note=32 velocity=0 time=0
EXTRACT: note_on channel=9 note=36 velocity=0 time=0
EXTRACT: note_on channel=9 note=26 velocity=0 time=0
EXTRACT: note_on channel=9 note=38 velocity=0 time=0
EXTRACT: note_on channel=10 note=57 velocity=0 time=0.03378375
EXTRACT: note_on channel=3 note=62 velocity=0 time=0.016891875
EXTRACT: note_on channel=7 note=55 velocity=0 time=0.10135124999999999
EXTRACT: note_on channel=0 note=74 velocity=112 time=0.00675675
EXTRACT: note_on channel=2 note=57 velocity=102 time=0
EXTRACT: note_on channel=2 note=62 velocity=102 time=0
EXTRACT: note_on channel=2 note=66 velocity=102 time=0
EXTRACT: note_on channel=3 note=62 velocity=112 time=0
EXTRACT: note_on channel=7 note=50 velocity=104 time=0
EXTRACT: note_on channel=8 note=38 velocity=79 time=0
EXTRACT: note_on channel=9 note=26 velocity=50 time=0
EXTRACT: note_on channel=9 note=32 velocity=50 time=0
EXTRACT: note_on channel=9 note=36 velocity=120 time=0
EXTRACT: note_on channel=9 note=42 velocity=80 time=0
EXTRACT: note_on channel=10 note=52 velocity=120 time=0
EXTRACT: note_on channel=10 note=57 velocity=120 time=0.037162125
EXTRACT: note_on channel=10 note=52 velocity=0 time=0.00675675
EXTRACT: note_on channel=9 note=36 velocity=0 time=0
EXTRACT: note_on channel=9 note=32 velocity=0 time=0
EXTRACT: note_on channel=9 note=26 velocity=0 time=0
EXTRACT: note_on channel=9 note=42 velocity=0 time=0
EXTRACT: note_on channel=10 note=57 velocity=0 time=0.037162125
EXTRACT: note_on channel=0 note=74 velocity=0 time=0.0135135
EXTRACT: note_on channel=3 note=62 velocity=0 time=0.016891875
EXTRACT: note_on channel=7 note=50 velocity=0 time=0.084459375
EXTRACT: note_on channel=0 note=78 velocity=115 time=0.00675675
EXTRACT: note_on channel=3 note=62 velocity=92 time=0
EXTRACT: note_on channel=7 note=54 velocity=93 time=0
EXTRACT: note_on channel=9 note=26 velocity=30 time=0
EXTRACT: note_on channel=9 note=32 velocity=30 time=0
EXTRACT: note_on channel=9 note=32 velocity=0 time=0.043918874999999996
EXTRACT: note_on channel=9 note=26 velocity=0 time=0
EXTRACT: note_on channel=0 note=78 velocity=0 time=0.050675624999999995
EXTRACT: note_on channel=3 note=62 velocity=0 time=0.00675675
EXTRACT: note_on channel=8 note=38 velocity=0 time=0.0945945
EXTRACT: note_on channel=7 note=54 velocity=0 time=0
EXTRACT: note_on channel=0 note=81 velocity=118 time=0.00675675
EXTRACT: note_on channel=3 note=62 velocity=104 time=0
EXTRACT: note_on channel=7 note=57 velocity=89 time=0
EXTRACT: note_on channel=9 note=26 velocity=50 time=0
EXTRACT: note_on channel=9 note=32 velocity=50 time=0
EXTRACT: note_on channel=9 note=42 velocity=70 time=0
EXTRACT: note_on channel=9 note=42 velocity=0 time=0.043918874999999996
EXTRACT: note_on channel=9 note=32 velocity=0 time=0
EXTRACT: note_on channel=9 note=26 velocity=0 time=0
EXTRACT: note_on channel=0 note=81 velocity=0 time=0.050675624999999995
EXTRACT: note_on channel=3 note=62 velocity=0 time=0.00675675
EXTRACT: note_on channel=7 note=57 velocity=0 time=0.0945945
EXTRACT: note_on channel=0 note=78 velocity=118 time=0.00675675
EXTRACT: note_on channel=3 note=62 velocity=104 time=0
EXTRACT: note_on channel=7 note=54 velocity=77 time=0
EXTRACT: note_on channel=9 note=26 velocity=30 time=0
EXTRACT: note_on channel=9 note=32 velocity=30 time=0
EXTRACT: note_on channel=9 note=32 velocity=0 time=0.043918874999999996
EXTRACT: note_on channel=9 note=26 velocity=0 time=0
EXTRACT: note_on channel=0 note=78 velocity=0 time=0.050675624999999995
EXTRACT: note_on channel=3 note=62 velocity=0 time=0.00675675
EXTRACT: note_on channel=7 note=54 velocity=0 time=0.0945945
EXTRACT: note_on channel=0 note=81 velocity=113 time=0.00675675
EXTRACT: note_on channel=3 note=62 velocity=104 time=0
EXTRACT: note_on channel=7 note=57 velocity=98 time=0
EXTRACT: note_on channel=9 note=26 velocity=50 time=0
EXTRACT: note_on channel=9 note=32 velocity=50 time=0
EXTRACT: note_on channel=9 note=38 velocity=120 time=0
EXTRACT: note_on channel=9 note=42 velocity=80 time=0
EXTRACT: note_on channel=9 note=42 velocity=0 time=0.043918874999999996
EXTRACT: note_on channel=9 note=38 velocity=0 time=0
EXTRACT: note_on channel=9 note=26 velocity=0 time=0
EXTRACT: note_on channel=9 note=32 velocity=0 time=0
EXTRACT: note_on channel=0 note=81 velocity=0 time=0.050675624999999995
EXTRACT: note_on channel=3 note=62 velocity=0 time=0.00675675
EXTRACT: note_on channel=7 note=57 velocity=0 time=0.0945945
EXTRACT: note_on channel=0 note=78 velocity=113 time=0.00675675
EXTRACT: note_on channel=3 note=62 velocity=101 time=0
EXTRACT: note_on channel=7 note=54 velocity=98 time=0
EXTRACT: note_on channel=9 note=26 velocity=30 time=0
EXTRACT: note_on channel=9 note=32 velocity=30 time=0
EXTRACT: note_on channel=9 note=32 velocity=0 time=0.043918874999999996
EXTRACT: note_on channel=9 note=26 velocity=0 time=0
EXTRACT: note_on channel=0 note=78 velocity=0 time=0.050675624999999995
EXTRACT: note_on channel=3 note=62 velocity=0 time=0.0135135
EXTRACT: note_on channel=7 note=54 velocity=0 time=0.08783774999999999
EXTRACT: note_on channel=0 note=74 velocity=109 time=0.00675675
EXTRACT: note_on channel=3 note=62 velocity=98 time=0
EXTRACT: note_on channel=7 note=50 velocity=101 time=0
EXTRACT: note_on channel=9 note=26 velocity=50 time=0
EXTRACT: note_on channel=9 note=32 velocity=50 time=0
EXTRACT: note_on channel=9 note=42 velocity=70 time=0
EXTRACT: note_on channel=9 note=42 velocity=0 time=0.043918874999999996
EXTRACT: note_on channel=9 note=32 velocity=0 time=0
EXTRACT: note_on channel=9 note=26 velocity=0 time=0
EXTRACT: note_on channel=0 note=74 velocity=0 time=0.050675624999999995
EXTRACT: note_on channel=3 note=62 velocity=0 time=0.010135125
EXTRACT: note_on channel=7 note=50 velocity=0 time=0.091216125
EXTRACT: note_on channel=0 note=78 velocity=110 time=0.00675675
EXTRACT: note_on channel=3 note=62 velocity=106 time=0
EXTRACT: note_on channel=7 note=54 velocity=95 time=0
EXTRACT: note_on channel=9 note=26 velocity=30 time=0
EXTRACT: note_on channel=9 note=32 velocity=30 time=0
EXTRACT: note_on channel=9 note=36 velocity=120 time=0
EXTRACT: note_on channel=10 note=52 velocity=120 time=0
EXTRACT: note_on channel=10 note=57 velocity=120 time=0.03378375
EXTRACT: note_on channel=10 note=52 velocity=0 time=0.010135125
EXTRACT: note_on channel=9 note=36 velocity=0 time=0
EXTRACT: note_on channel=9 note=26 velocity=0 time=0
EXTRACT: note_on channel=9 note=32 velocity=0 time=0
EXTRACT: note_on channel=10 note=57 velocity=0 time=0.03378375
EXTRACT: note_on channel=0 note=78 velocity=0 time=0.016891875
EXTRACT: note_on channel=3 note=62 velocity=0 time=0.02027025
EXTRACT: note_on channel=7 note=54 velocity=0 time=0.081081
EXTRACT: note_on channel=0 note=74 velocity=113 time=0.00675675
EXTRACT: note_on channel=3 note=62 velocity=106 time=0
EXTRACT: note_on channel=7 note=50 velocity=104 time=0
EXTRACT: note_on channel=9 note=26 velocity=50 time=0
EXTRACT: note_on channel=9 note=32 velocity=50 time=0
EXTRACT: note_on channel=9 note=42 velocity=80 time=0
EXTRACT: note_on channel=9 note=42 velocity=0 time=0.043918874999999996
EXTRACT: note_on channel=9 note=32 velocity=0 time=0
EXTRACT: note_on channel=9 note=26 velocity=0 time=0
EXTRACT: note_on channel=0 note=74 velocity=0 time=0.050675624999999995
EXTRACT: note_on channel=3 note=62 velocity=0 time=0.02027025
EXTRACT: note_on channel=7 note=50 velocity=0 time=0.081081
EXTRACT: note_on channel=0 note=78 velocity=114 time=0.00675675
EXTRACT: note_on channel=3 note=62 velocity=106 time=0
EXTRACT: note_on channel=7 note=54 velocity=86 time=0
EXTRACT: note_on channel=9 note=26 velocity=30 time=0
EXTRACT: note_on channel=9 note=32 velocity=30 time=0
EXTRACT: note_on channel=9 note=36 velocity=120 time=0
EXTRACT: note_on channel=10 note=52 velocity=120 time=0
EXTRACT: note_on channel=10 note=57 velocity=120 time=0.03378375
EXTRACT: note_on channel=10 note=52 velocity=0 time=0.010135125
EXTRACT: note_on channel=9 note=36 velocity=0 time=0
EXTRACT: note_on channel=9 note=26 velocity=0 time=0
EXTRACT: note_on channel=9 note=32 velocity=0 time=0
EXTRACT: note_on channel=10 note=57 velocity=0 time=0.03378375
EXTRACT: note_on channel=0 note=78 velocity=0 time=0.016891875
EXTRACT: note_on channel=3 note=62 velocity=0 time=0.02027025
EXTRACT: note_on channel=7 note=54 velocity=0 time=0.081081
EXTRACT: note_on channel=0 note=81 velocity=111 time=0.00675675
EXTRACT: note_on channel=3 note=62 velocity=106 time=0
EXTRACT: note_on channel=7 note=57 velocity=101 time=0
EXTRACT: note_on channel=9 note=26 velocity=50 time=0
EXTRACT: note_on channel=9 note=32 velocity=50 time=0
EXTRACT: note_on channel=9 note=36 velocity=120 time=0
EXTRACT: note_on channel=9 note=42 velocity=70 time=0
EXTRACT: note_on channel=10 note=52 velocity=120 time=0
EXTRACT: note_on channel=10 note=57 velocity=120 time=0.03378375
EXTRACT: note_on channel=10 note=52 velocity=0 time=0.010135125
EXTRACT: note_on channel=9 note=42 velocity=0 time=0
EXTRACT: note_on channel=9 note=32 velocity=0 time=0
EXTRACT: note_on channel=9 note=26 velocity=0 time=0
EXTRACT: note_on channel=9 note=36 velocity=0 time=0
EXTRACT: note_on channel=10 note=57 velocity=0 time=0.03378375
EXTRACT: note_on channel=0 note=81 velocity=0 time=0.016891875
EXTRACT: note_on channel=3 note=62 velocity=0 time=0.02027025
EXTRACT: note_on channel=7 note=57 velocity=0 time=0.081081
EXTRACT: note_on channel=0 note=78 velocity=112 time=0.00675675
EXTRACT: note_on channel=3 note=62 velocity=106 time=0
EXTRACT: note_on channel=7 note=54 velocity=98 time=0
EXTRACT: note_on channel=9 note=26 velocity=30 time=0
EXTRACT: note_on channel=9 note=32 velocity=30 time=0
EXTRACT: note_on channel=9 note=32 velocity=0 time=0.043918874999999996
EXTRACT: note_on channel=9 note=26 velocity=0 time=0
EXTRACT: note_on channel=0 note=78 velocity=0 time=0.050675624999999995
EXTRACT: note_on channel=3 note=62 velocity=0 time=0.02027025
EXTRACT: note_on channel=7 note=54 velocity=0 time=0.081081
EXTRACT: note_on channel=0 note=81 velocity=113 time=0.00675675
EXTRACT: note_on channel=3 note=61 velocity=106 time=0
EXTRACT: note_on channel=7 note=57 velocity=101 time=0
EXTRACT: note_on channel=9 note=26 velocity=50 time=0
EXTRACT: note_on channel=9 note=32 velocity=50 time=0
EXTRACT: note_on channel=9 note=38 velocity=120 time=0
EXTRACT: note_on channel=9 note=42 velocity=80 time=0
EXTRACT: note_on channel=9 note=42 velocity=0 time=0.043918874999999996
EXTRACT: note_on channel=9 note=38 velocity=0 time=0
EXTRACT: note_on channel=9 note=26 velocity=0 time=0
EXTRACT: note_on channel=9 note=32 velocity=0 time=0
EXTRACT: note_on channel=0 note=81 velocity=0 time=0.050675624999999995
EXTRACT: note_on channel=3 note=61 velocity=0 time=0.02027025
EXTRACT: note_on channel=7 note=57 velocity=0 time=0.081081
EXTRACT: note_on channel=0 note=78 velocity=115 time=0.00675675
EXTRACT: note_on channel=3 note=62 velocity=106 time=0
EXTRACT: note_on channel=7 note=54 velocity=93 time=0
EXTRACT: note_on channel=9 note=26 velocity=30 time=0
EXTRACT: note_on channel=9 note=32 velocity=30 time=0
EXTRACT: note_on channel=9 note=32 velocity=0 time=0.043918874999999996
EXTRACT: note_on channel=9 note=26 velocity=0 time=0
EXTRACT: note_on channel=0 note=78 velocity=0 time=0.050675624999999995
EXTRACT: note_on channel=3 note=62 velocity=0 time=0.02027025
EXTRACT: note_on channel=7 note=54 velocity=0 time=0.081081
EXTRACT: note_on channel=0 note=74 velocity=115 time=0.00675675
EXTRACT: note_on channel=3 note=61 velocity=106 time=0
EXTRACT: note_on channel=7 note=50 velocity=90 time=0
EXTRACT: note_on channel=9 note=26 velocity=50 time=0
EXTRACT: note_on channel=9 note=32 velocity=50 time=0
EXTRACT: note_on channel=9 note=42 velocity=70 time=0
EXTRACT: note_on channel=9 note=42 velocity=0 time=0.043918874999999996
EXTRACT: note_on channel=9 note=32 velocity=0 time=0
EXTRACT: note_on channel=9 note=26 velocity=0 time=0
EXTRACT: note_on channel=0 note=74 velocity=0 time=0.050675624999999995
EXTRACT: note_on channel=3 note=61 velocity=0 time=0.02027025
EXTRACT: note_on channel=7 note=50 velocity=0 time=0.081081
EXTRACT: note_on channel=0 note=78 velocity=115 time=0.00675675
EXTRACT: note_on channel=3 note=62 velocity=106 time=0
EXTRACT: note_on channel=7 note=54 velocity=90 time=0
EXTRACT: note_on channel=9 note=26 velocity=30 time=0
EXTRACT: note_on channel=9 note=32 velocity=30 time=0
EXTRACT: note_on channel=9 note=32 velocity=0 time=0.043918874999999996
EXTRACT: note_on channel=9 note=26 velocity=0 time=0
EXTRACT: note_on channel=0 note=78 velocity=0 time=0.050675624999999995
EXTRACT: note_on channel=3 note=62 velocity=0 time=0.02027025
EXTRACT: note_on channel=2 note=57 velocity=0 time=0.081081
EXTRACT: note_on channel=2 note=66 velocity=0 time=0
EXTRACT: note_on channel=7 note=54 velocity=0 time=0
EXTRACT: note_on channel=2 note=62 velocity=0 time=0
EXTRACT: note_on channel=0 note=73 velocity=112 time=0.00675675
EXTRACT: note_on channel=2 note=57 velocity=100 time=0
EXTRACT: note_on channel=2 note=61 velocity=100 time=0
EXTRACT: note_on channel=2 note=66 velocity=100 time=0
EXTRACT: note_on channel=3 note=62 velocity=121 time=0
EXTRACT: note_on channel=7 note=49 velocity=104 time=0
EXTRACT: note_on channel=8 note=37 velocity=79 time=0
EXTRACT: note_on channel=9 note=26 velocity=50 time=0
EXTRACT: note_on channel=9 note=32 velocity=50 time=0
EXTRACT: note_on channel=9 note=36 velocity=120 time=0
EXTRACT: note_on channel=9 note=42 velocity=80 time=0
EXTRACT: note_on channel=10 note=52 velocity=120 time=0
EXTRACT: note_on channel=10 note=57 velocity=120 time=0.03378375
EXTRACT: note_on channel=10 note=52 velocity=0 time=0.010135125
EXTRACT: note_on channel=9 note=36 velocity=0 time=0
EXTRACT: note_on channel=9 note=32 velocity=0 time=0
EXTRACT: note_on channel=9 note=26 velocity=0 time=0
EXTRACT: note_on channel=9 note=42 velocity=0 time=0
EXTRACT: note_on channel=10 note=57 velocity=0 time=0.03378375
EXTRACT: note_on channel=0 note=73 velocity=0 time=0.016891875
EXTRACT: note_on channel=3 note=62 velocity=0 time=0.003378375
EXTRACT: note_on channel=7 note=49 velocity=0 time=0.097972875
EXTRACT: note_on channel=0 note=78 velocity=115 time=0.00675675
EXTRACT: note_on channel=3 note=62 velocity=89 time=0
EXTRACT: note_on channel=7 note=54 velocity=93 time=0
EXTRACT: note_on channel=9 note=26 velocity=30 time=0
EXTRACT: note_on channel=9 note=32 velocity=30 time=0
EXTRACT: note_on channel=9 note=32 velocity=0 time=0.043918874999999996
EXTRACT: note_on channel=9 note=26 velocity=0 time=0
EXTRACT: note_on channel=0 note=78 velocity=0 time=0.050675624999999995
EXTRACT: note_on channel=3 note=62 velocity=0 time=0.0135135
EXTRACT: note_on channel=8 note=37 velocity=0 time=0.08783774999999999
EXTRACT: note_on channel=7 note=54 velocity=0 time=0
EXTRACT: note_on channel=0 note=81 velocity=118 time=0.00675675
EXTRACT: note_on channel=3 note=62 velocity=104 time=0
EXTRACT: note_on channel=7 note=57 velocity=89 time=0
EXTRACT: note_on channel=9 note=26 velocity=50 time=0
EXTRACT: note_on channel=9 note=32 velocity=50 time=0
EXTRACT: note_on channel=9 note=42 velocity=70 time=0
EXTRACT: note_on channel=9 note=42 velocity=0 time=0.043918874999999996
EXTRACT: note_on channel=9 note=32 velocity=0 time=0
EXTRACT: note_on channel=9 note=26 velocity=0 time=0
EXTRACT: note_on channel=0 note=81 velocity=0 time=0.050675624999999995
EXTRACT: note_on channel=3 note=62 velocity=0 time=0.010135125
EXTRACT: note_on channel=7 note=57 velocity=0 time=0.091216125
EXTRACT: note_on channel=0 note=78 velocity=118 time=0.00675675
EXTRACT: note_on channel=3 note=62 velocity=101 time=0
EXTRACT: note_on channel=7 note=54 velocity=77 time=0
EXTRACT: note_on channel=9 note=26 velocity=30 time=0
EXTRACT: note_on channel=9 note=32 velocity=30 time=0
EXTRACT: note_on channel=9 note=32 velocity=0 time=0.043918874999999996
EXTRACT: note_on channel=9 note=26 velocity=0 time=0
EXTRACT: note_on channel=3 note=62 velocity=0 time=0.0405405
EXTRACT: note_on channel=0 note=78 velocity=0 time=0.010135125
EXTRACT: note_on channel=7 note=54 velocity=0 time=0.10135124999999999
EXTRACT: note_on channel=0 note=81 velocity=113 time=0.00675675
EXTRACT: note_on channel=3 note=62 velocity=115 time=0
EXTRACT: note_on channel=7 note=57 velocity=98 time=0
EXTRACT: note_on channel=9 note=26 velocity=50 time=0
EXTRACT: note_on channel=9 note=32 velocity=50 time=0
EXTRACT: note_on channel=9 note=38 velocity=120 time=0
EXTRACT: note_on channel=9 note=42 velocity=80 time=0
EXTRACT: note_on channel=9 note=42 velocity=0 time=0.043918874999999996
EXTRACT: note_on channel=9 note=38 velocity=0 time=0
EXTRACT: note_on channel=9 note=26 velocity=0 time=0
EXTRACT: note_on channel=9 note=32 velocity=0 time=0
EXTRACT: note_on channel=0 note=81 velocity=0 time=0.050675624999999995
EXTRACT: note_on channel=3 note=62 velocity=0 time=0.02027025
EXTRACT: note_on channel=7 note=57 velocity=0 time=0.081081
EXTRACT: note_on channel=0 note=78 velocity=113 time=0.00675675
EXTRACT: note_on channel=3 note=62 velocity=95 time=0
EXTRACT: note_on channel=7 note=54 velocity=98 time=0
EXTRACT: note_on channel=9 note=26 velocity=30 time=0
EXTRACT: note_on channel=9 note=32 velocity=30 time=0
EXTRACT: note_on channel=9 note=32 velocity=0 time=0.043918874999999996
EXTRACT: note_on channel=9 note=26 velocity=0 time=0
EXTRACT: note_on channel=0 note=78 velocity=0 time=0.050675624999999995
EXTRACT: note_on channel=3 note=62 velocity=0 time=0
EXTRACT: note_on channel=7 note=54 velocity=0 time=0.10135124999999999
EXTRACT: note_on channel=0 note=73 velocity=109 time=0.00675675
EXTRACT: note_on channel=3 note=62 velocity=106 time=0
EXTRACT: note_on channel=7 note=49 velocity=101 time=0
EXTRACT: note_on channel=9 note=26 velocity=50 time=0
EXTRACT: note_on channel=9 note=32 velocity=50 time=0
EXTRACT: note_on channel=9 note=42 velocity=70 time=0
EXTRACT: note_on channel=9 note=42 velocity=0 time=0.043918874999999996
EXTRACT: note_on channel=9 note=32 velocity=0 time=0
EXTRACT: note_on channel=9 note=26 velocity=0 time=0
EXTRACT: note_on channel=3 note=62 velocity=0 time=0.043918874999999996
EXTRACT: note_on channel=0 note=73 velocity=0 time=0.00675675
EXTRACT: note_on channel=7 note=49 velocity=0 time=0.10135124999999999
EXTRACT: note_on channel=0 note=78 velocity=110 time=0.00675675
EXTRACT: note_on channel=3 note=62 velocity=115 time=0
EXTRACT: note_on channel=7 note=54 velocity=95 time=0
EXTRACT: note_on channel=9 note=26 velocity=30 time=0
EXTRACT: note_on channel=9 note=32 velocity=30 time=0
EXTRACT: note_on channel=9 note=36 velocity=120 time=0
EXTRACT: note_on channel=10 note=52 velocity=120 time=0
EXTRACT: note_on channel=10 note=57 velocity=120 time=0.03378375
EXTRACT: note_on channel=10 note=52 velocity=0 time=0.010135125
EXTRACT: note_on channel=9 note=36 velocity=0 time=0
EXTRACT: note_on channel=9 note=26 velocity=0 time=0
EXTRACT: note_on channel=9 note=32 velocity=0 time=0
EXTRACT: note_on channel=10 note=57 velocity=0 time=0.03378375
EXTRACT: note_on channel=0 note=78 velocity=0 time=0.016891875
EXTRACT: note_on channel=7 note=54 velocity=0 time=0.10135124999999999
EXTRACT: note_on channel=0 note=73 velocity=113 time=0.00675675
EXTRACT: note_on channel=7 note=49 velocity=104 time=0
EXTRACT: note_on channel=9 note=26 velocity=50 time=0
EXTRACT: note_on channel=9 note=32 velocity=50 time=0
EXTRACT: note_on channel=9 note=42 velocity=80 time=0
EXTRACT: note_on channel=9 note=42 velocity=0 time=0.043918874999999996
EXTRACT: note_on channel=9 note=32 velocity=0 time=0
EXTRACT: note_on channel=9 note=26 velocity=0 time=0
EXTRACT: note_on channel=3 note=62 velocity=0 time=0.00675675
EXTRACT: note_on channel=0 note=73 velocity=0 time=0.043918874999999996
EXTRACT: note_on channel=7 note=49 velocity=0 time=0.10135124999999999
EXTRACT: note_on channel=0 note=78 velocity=114 time=0.00675675
EXTRACT: note_on channel=3 note=62 velocity=109 time=0
EXTRACT: note_on channel=7 note=54 velocity=86 time=0
EXTRACT: note_on channel=9 note=26 velocity=30 time=0
EXTRACT: note_on channel=9 note=32 velocity=30 time=0
EXTRACT: note_on channel=9 note=36 velocity=120 time=0
EXTRACT: note_on channel=10 note=52 velocity=120 time=0
EXTRACT: note_on channel=10 note=57 velocity=120 time=0.03378375
EXTRACT: note_on channel=10 note=52 velocity=0 time=0.010135125
EXTRACT: note_on channel=9 note=36 velocity=0 time=0
EXTRACT: note_on channel=9 note=26 velocity=0 time=0
EXTRACT: note_on channel=9 note=32 velocity=0 time=0
EXTRACT: note_on channel=10 note=57 velocity=0 time=0.03378375
EXTRACT: note_on channel=3 note=62 velocity=0 time=0
EXTRACT: note_on channel=0 note=78 velocity=0 time=0.016891875
EXTRACT: note_on channel=7 note=54 velocity=0 time=0.10135124999999999
EXTRACT: note_on channel=0 note=81 velocity=111 time=0.00675675
EXTRACT: note_on channel=3 note=62 velocity=106 time=0
EXTRACT: note_on channel=7 note=57 velocity=101 time=0
EXTRACT: note_on channel=9 note=26 velocity=50 time=0
EXTRACT: note_on channel=9 note=32 velocity=50 time=0
EXTRACT: note_on channel=9 note=36 velocity=120 time=0
EXTRACT: note_on channel=9 note=42 velocity=70 time=0
EXTRACT: note_on channel=10 note=52 velocity=120 time=0
EXTRACT: note_on channel=10 note=57 velocity=120 time=0.03378375
EXTRACT: note_on channel=10 note=52 velocity=0 time=0.010135125
EXTRACT: note_on channel=9 note=42 velocity=0 time=0
EXTRACT: note_on channel=9 note=32 velocity=0 time=0
EXTRACT: note_on channel=9 note=26 velocity=0 time=0
EXTRACT: note_on channel=9 note=36 velocity=0 time=0
EXTRACT: note_on channel=10 note=57 velocity=0 time=0.03378375
EXTRACT: note_on channel=3 note=62 velocity=0 time=0.010135125
EXTRACT: note_on channel=0 note=81 velocity=0 time=0.00675675
EXTRACT: note_on channel=7 note=57 velocity=0 time=0.10135124999999999
EXTRACT: note_on channel=0 note=78 velocity=112 time=0.00675675
EXTRACT: note_on channel=3 note=62 velocity=104 time=0
EXTRACT: note_on channel=7 note=54 velocity=98 time=0
EXTRACT: note_on channel=9 note=26 velocity=30 time=0
EXTRACT: note_on channel=9 note=32 velocity=30 time=0
EXTRACT: note_on channel=9 note=32 velocity=0 time=0.043918874999999996
EXTRACT: note_on channel=9 note=26 velocity=0 time=0
EXTRACT: note_on channel=3 note=62 velocity=0 time=0.03378375
EXTRACT: note_on channel=0 note=78 velocity=0 time=0.016891875
EXTRACT: note_on channel=7 note=54 velocity=0 time=0.10135124999999999
EXTRACT: note_on channel=0 note=81 velocity=113 time=0.00675675
EXTRACT: note_on channel=3 note=62 velocity=121 time=0
EXTRACT: note_on channel=7 note=57 velocity=101 time=0
EXTRACT: note_on channel=9 note=26 velocity=50 time=0
EXTRACT: note_on channel=9 note=32 velocity=50 time=0
EXTRACT: note_on channel=9 note=38 velocity=120 time=0
EXTRACT: note_on channel=9 note=42 velocity=80 time=0
EXTRACT: note_on channel=9 note=42 velocity=0 time=0.043918874999999996
EXTRACT: note_on channel=9 note=38 velocity=0 time=0
EXTRACT: note_on channel=9 note=26 velocity=0 time=0
EXTRACT: note_on channel=9 note=32 velocity=0 time=0
EXTRACT: note_on channel=0 note=81 velocity=0 time=0.050675624999999995
EXTRACT: note_on channel=3 note=62 velocity=0 time=0.030405375
EXTRACT: note_on channel=7 note=57 velocity=0 time=0.07094587499999999
EXTRACT: note_on channel=0 note=78 velocity=115 time=0.00675675
EXTRACT: note_on channel=7 note=54 velocity=93 time=0
EXTRACT: note_on channel=9 note=26 velocity=30 time=0
EXTRACT: note_on channel=9 note=32 velocity=30 time=0
EXTRACT: note_on channel=9 note=32 velocity=0 time=0.043918874999999996
EXTRACT: note_on channel=9 note=26 velocity=0 time=0
EXTRACT: note_on channel=0 note=78 velocity=0 time=0.050675624999999995
EXTRACT: note_on channel=7 note=54 velocity=0 time=0.10135124999999999
EXTRACT: note_on channel=0 note=73 velocity=115 time=0.00675675
EXTRACT: note_on channel=3 note=62 velocity=112 time=0
EXTRACT: note_on channel=7 note=49 velocity=90 time=0
EXTRACT: note_on channel=9 note=26 velocity=50 time=0
EXTRACT: note_on channel=9 note=32 velocity=50 time=0
EXTRACT: note_on channel=9 note=36 velocity=114 time=0
EXTRACT: note_on channel=9 note=42 velocity=70 time=0
EXTRACT: note_on channel=10 note=52 velocity=114 time=0
EXTRACT: note_on channel=10 note=57 velocity=114 time=0.03378375
EXTRACT: note_on channel=10 note=52 velocity=0 time=0.010135125
EXTRACT: note_on channel=9 note=42 velocity=0 time=0
EXTRACT: note_on channel=9 note=32 velocity=0 time=0
EXTRACT: note_on channel=9 note=26 velocity=0 time=0
EXTRACT: note_on channel=9 note=36 velocity=0 time=0
EXTRACT: note_on channel=10 note=57 velocity=0 time=0.03378375
EXTRACT: note_on channel=3 note=62 velocity=0 time=0.0135135
EXTRACT: note_on channel=0 note=73 velocity=0 time=0.003378375
EXTRACT: note_on channel=7 note=49 velocity=0 time=0.10135124999999999
EXTRACT: note_on channel=0 note=78 velocity=115 time=0.00675675
EXTRACT: note_on channel=3 note=62 velocity=112 time=0
EXTRACT: note_on channel=7 note=54 velocity=90 time=0
EXTRACT: note_on channel=9 note=26 velocity=30 time=0
EXTRACT: note_on channel=9 note=32 velocity=30 time=0
EXTRACT: note_on channel=9 note=36 velocity=114 time=0
EXTRACT: note_on channel=10 note=52 velocity=114 time=0
EXTRACT: note_on channel=10 note=57 velocity=114 time=0.03378375
EXTRACT: note_on channel=10 note=52 velocity=0 time=0.010135125
EXTRACT: note_on channel=9 note=36 velocity=0 time=0
EXTRACT: note_on channel=9 note=26 velocity=0 time=0
EXTRACT: note_on channel=9 note=32 velocity=0 time=0
EXTRACT: note_on channel=10 note=57 velocity=0 time=0.03378375
EXTRACT: note_on channel=3 note=62 velocity=0 time=0.0135135
EXTRACT: note_on channel=0 note=78 velocity=0 time=0.003378375
EXTRACT: note_on channel=2 note=57 velocity=0 time=0.10135124999999999
EXTRACT: note_on channel=2 note=61 velocity=0 time=0
EXTRACT: note_on channel=7 note=54 velocity=0 time=0
EXTRACT: note_on channel=2 note=66 velocity=0 time=0
EXTRACT: note_on channel=0 note=71 velocity=112 time=0.00675675
EXTRACT: note_on channel=2 note=59 velocity=102 time=0
EXTRACT: note_on channel=2 note=62 velocity=102 time=0
EXTRACT: note_on channel=2 note=66 velocity=102 time=0
EXTRACT: note_on channel=2 note=69 velocity=70 time=0
EXTRACT: note_on channel=3 note=62 velocity=115 time=0
EXTRACT: note_on channel=7 note=47 velocity=104 time=0
EXTRACT: note_on channel=8 note=35 velocity=82 time=0
EXTRACT: note_on channel=9 note=26 velocity=50 time=0
EXTRACT: note_on channel=9 note=32 velocity=50 time=0
EXTRACT: note_on channel=9 note=36 velocity=120 time=0
EXTRACT: note_on channel=9 note=42 velocity=80 time=0
EXTRACT: note_on channel=10 note=52 velocity=120 time=0
EXTRACT: note_on channel=10 note=57 velocity=120 time=0.037162125
EXTRACT: note_on channel=10 note=52 velocity=0 time=0.00675675
EXTRACT: note_on channel=9 note=32 velocity=0 time=0
EXTRACT: note_on channel=9 note=26 velocity=0 time=0
EXTRACT: note_on channel=9 note=42 velocity=0 time=0
EXTRACT: note_on channel=9 note=36 velocity=0 time=0
EXTRACT: note_on channel=10 note=57 velocity=0 time=0.037162125
EXTRACT: note_on channel=0 note=71 velocity=0 time=0.0135135
EXTRACT: note_on channel=7 note=47 velocity=0 time=0.10135124999999999
EXTRACT: note_on channel=0 note=78 velocity=115 time=0.00675675
EXTRACT: note_on channel=7 note=50 velocity=93 time=0
EXTRACT: note_on channel=9 note=26 velocity=30 time=0
EXTRACT: note_on channel=9 note=32 velocity=30 time=0
EXTRACT: note_on channel=9 note=32 velocity=0 time=0.043918874999999996
EXTRACT: note_on channel=9 note=26 velocity=0 time=0
EXTRACT: note_on channel=3 note=62 velocity=0 time=0.0135135
EXTRACT: note_on channel=0 note=78 velocity=0 time=0.037162125
EXTRACT: note_on channel=8 note=35 velocity=0 time=0.10135124999999999
EXTRACT: note_on channel=7 note=50 velocity=0 time=0
EXTRACT: note_on channel=0 note=83 velocity=118 time=0.00675675
EXTRACT: note_on channel=3 note=64 velocity=101 time=0
EXTRACT: note_on channel=7 note=54 velocity=89 time=0
EXTRACT: note_on channel=9 note=26 velocity=50 time=0
EXTRACT: note_on channel=9 note=32 velocity=50 time=0
EXTRACT: note_on channel=9 note=42 velocity=70 time=0
EXTRACT: note_on channel=9 note=42 velocity=0 time=0.043918874999999996
EXTRACT: note_on channel=9 note=32 velocity=0 time=0
EXTRACT: note_on channel=9 note=26 velocity=0 time=0
EXTRACT: note_on channel=0 note=83 velocity=0 time=0.050675624999999995
EXTRACT: note_on channel=3 note=64 velocity=0 time=0.10135124999999999
EXTRACT: note_on channel=7 note=54 velocity=0 time=0
EXTRACT: note_on channel=0 note=78 velocity=118 time=0.00675675
EXTRACT: note_on channel=7 note=52 velocity=77 time=0
EXTRACT: note_on channel=9 note=26 velocity=30 time=0
EXTRACT: note_on channel=9 note=32 velocity=30 time=0
EXTRACT: note_on channel=9 note=32 velocity=0 time=0.043918874999999996
EXTRACT: note_on channel=9 note=26 velocity=0 time=0
EXTRACT: note_on channel=0 note=78 velocity=0 time=0.050675624999999995
EXTRACT: note_on channel=7 note=52 velocity=0 time=0.10135124999999999
EXTRACT: note_on channel=0 note=83 velocity=113 time=0.00675675
EXTRACT: note_on channel=3 note=59 velocity=121 time=0
EXTRACT: note_on channel=7 note=54 velocity=98 time=0
EXTRACT: note_on channel=9 note=26 velocity=50 time=0
EXTRACT: note_on channel=9 note=32 velocity=50 time=0
EXTRACT: note_on channel=9 note=38 velocity=120 time=0
EXTRACT: note_on channel=9 note=42 velocity=80 time=0
EXTRACT: note_on channel=9 note=42 velocity=0 time=0.043918874999999996
EXTRACT: note_on channel=9 note=26 velocity=0 time=0
EXTRACT: note_on channel=9 note=38 velocity=0 time=0
EXTRACT: note_on channel=9 note=32 velocity=0 time=0
EXTRACT: note_on channel=0 note=83 velocity=0 time=0.050675624999999995
EXTRACT: note_on channel=7 note=54 velocity=0 time=0.10135124999999999
EXTRACT: note_on channel=0 note=78 velocity=113 time=0.00675675
EXTRACT: note_on channel=7 note=50 velocity=98 time=0
EXTRACT: note_on channel=9 note=26 velocity=30 time=0
EXTRACT: note_on channel=9 note=32 velocity=30 time=0
EXTRACT: note_on channel=9 note=32 velocity=0 time=0.043918874999999996
EXTRACT: note_on channel=9 note=26 velocity=0 time=0
EXTRACT: note_on channel=0 note=78 velocity=0 time=0.050675624999999995
EXTRACT: note_on channel=7 note=50 velocity=0 time=0.10135124999999999
EXTRACT: note_on channel=0 note=71 velocity=109 time=0.00675675
EXTRACT: note_on channel=7 note=47 velocity=101 time=0
EXTRACT: note_on channel=9 note=26 velocity=50 time=0
EXTRACT: note_on channel=9 note=32 velocity=50 time=0
EXTRACT: note_on channel=9 note=42 velocity=70 time=0
EXTRACT: note_on channel=9 note=42 velocity=0 time=0.043918874999999996
EXTRACT: note_on channel=9 note=32 velocity=0 time=0
EXTRACT: note_on channel=9 note=26 velocity=0 time=0
EXTRACT: note_on channel=0 note=71 velocity=0 time=0.050675624999999995
EXTRACT: note_on channel=7 note=47 velocity=0 time=0.10135124999999999
EXTRACT: note_on channel=0 note=78 velocity=110 time=0.00675675
EXTRACT: note_on channel=7 note=50 velocity=95 time=0
EXTRACT: note_on channel=9 note=26 velocity=30 time=0
EXTRACT: note_on channel=9 note=32 velocity=30 time=0
EXTRACT: note_on channel=9 note=36 velocity=120 time=0
EXTRACT: note_on channel=10 note=52 velocity=120 time=0
EXTRACT: note_on channel=10 note=57 velocity=120 time=0.03378375
EXTRACT: note_on channel=10 note=52 velocity=0 time=0.010135125
EXTRACT: note_on channel=9 note=36 velocity=0 time=0
EXTRACT: note_on channel=9 note=26 velocity=0 time=0
EXTRACT: note_on channel=3 note=59 velocity=0 time=0
EXTRACT: note_on channel=9 note=32 velocity=0 time=0
EXTRACT: note_on channel=10 note=57 velocity=0 time=0.03378375
EXTRACT: note_on channel=0 note=78 velocity=0 time=0.016891875
EXTRACT: note_on channel=7 note=50 velocity=0 time=0.10135124999999999
EXTRACT: note_on channel=0 note=71 velocity=113 time=0.00675675
EXTRACT: note_on channel=7 note=47 velocity=104 time=0
EXTRACT: note_on channel=9 note=26 velocity=50 time=0
EXTRACT: note_on channel=9 note=32 velocity=50 time=0
EXTRACT: note_on channel=9 note=42 velocity=80 time=0
EXTRACT: note_on channel=9 note=42 velocity=0 time=0.043918874999999996
EXTRACT: note_on channel=9 note=32 velocity=0 time=0
EXTRACT: note_on channel=9 note=26 velocity=0 time=0
EXTRACT: note_on channel=0 note=71 velocity=0 time=0.050675624999999995
EXTRACT: note_on channel=7 note=47 velocity=0 time=0.10135124999999999
EXTRACT: note_on channel=0 note=78 velocity=114 time=0.00675675
EXTRACT: note_on channel=7 note=54 velocity=86 time=0
EXTRACT: note_on channel=9 note=26 velocity=30 time=0
EXTRACT: note_on channel=9 note=32 velocity=30 time=0
EXTRACT: note_on channel=9 note=36 velocity=120 time=0
EXTRACT: note_on channel=10 note=52 velocity=120 time=0
EXTRACT: note_on channel=10 note=57 velocity=120 time=0.03378375
EXTRACT: note_on channel=10 note=52 velocity=0 time=0.010135125
EXTRACT: note_on channel=9 note=36 velocity=0 time=0
EXTRACT: note_on channel=9 note=26 velocity=0 time=0
EXTRACT: note_on channel=9 note=32 velocity=0 time=0
EXTRACT: note_on channel=10 note=57 velocity=0 time=0.03378375
EXTRACT: note_on channel=0 note=78 velocity=0 time=0.016891875
EXTRACT: note_on channel=7 note=54 velocity=0 time=0.10135124999999999
EXTRACT: note_on channel=0 note=83 velocity=111 time=0.00675675
EXTRACT: note_on channel=7 note=62 velocity=101 time=0
EXTRACT: note_on channel=9 note=26 velocity=50 time=0
EXTRACT: note_on channel=9 note=32 velocity=50 time=0
EXTRACT: note_on channel=9 note=36 velocity=120 time=0
EXTRACT: note_on channel=9 note=42 velocity=70 time=0
EXTRACT: note_on channel=10 note=52 velocity=120 time=0
EXTRACT: note_on channel=10 note=57 velocity=120 time=0.03378375
EXTRACT: note_on channel=10 note=52 velocity=0 time=0.010135125
EXTRACT: note_on channel=9 note=42 velocity=0 time=0
EXTRACT: note_on channel=9 note=32 velocity=0 time=0
EXTRACT: note_on channel=9 note=26 velocity=0 time=0
EXTRACT: note_on channel=9 note=36 velocity=0 time=0
EXTRACT: note_on channel=10 note=57 velocity=0 time=0.03378375
EXTRACT: note_on channel=0 note=83 velocity=0 time=0.016891875
EXTRACT: note_on channel=7 note=62 velocity=0 time=0.10135124999999999
EXTRACT: note_on channel=0 note=78 velocity=112 time=0.00675675
EXTRACT: note_on channel=7 note=61 velocity=98 time=0
EXTRACT: note_on channel=9 note=26 velocity=30 time=0
EXTRACT: note_on channel=9 note=32 velocity=30 time=0
EXTRACT: note_on channel=9 note=32 velocity=0 time=0.043918874999999996
EXTRACT: note_on channel=9 note=26 velocity=0 time=0
EXTRACT: note_on channel=0 note=78 velocity=0 time=0.050675624999999995
EXTRACT: note_on channel=7 note=61 velocity=0 time=0.10135124999999999
EXTRACT: note_on channel=0 note=83 velocity=113 time=0.00675675
EXTRACT: note_on channel=3 note=62 velocity=112 time=0
EXTRACT: note_on channel=7 note=62 velocity=101 time=0
EXTRACT: note_on channel=9 note=26 velocity=50 time=0
EXTRACT: note_on channel=9 note=32 velocity=50 time=0
EXTRACT: note_on channel=9 note=38 velocity=120 time=0
EXTRACT: note_on channel=9 note=42 velocity=80 time=0
EXTRACT: note_on channel=9 note=42 velocity=0 time=0.043918874999999996
EXTRACT: note_on channel=9 note=26 velocity=0 time=0
EXTRACT: note_on channel=9 note=38 velocity=0 time=0
EXTRACT: note_on channel=9 note=32 velocity=0 time=0
EXTRACT: note_on channel=0 note=83 velocity=0 time=0.050675624999999995
EXTRACT: note_on channel=3 note=62 velocity=0 time=0.064189125
EXTRACT: note_on channel=7 note=62 velocity=0 time=0.037162125
EXTRACT: note_on channel=0 note=78 velocity=115 time=0.00675675
EXTRACT: note_on channel=3 note=59 velocity=95 time=0
EXTRACT: note_on channel=7 note=54 velocity=93 time=0
EXTRACT: note_on channel=9 note=26 velocity=30 time=0
EXTRACT: note_on channel=9 note=32 velocity=30 time=0
EXTRACT: note_on channel=9 note=32 velocity=0 time=0.043918874999999996
EXTRACT: note_on channel=9 note=26 velocity=0 time=0
EXTRACT: note_on channel=0 note=78 velocity=0 time=0.050675624999999995
EXTRACT: note_on channel=3 note=59 velocity=0 time=0.064189125
EXTRACT: note_on channel=7 note=54 velocity=0 time=0.037162125
EXTRACT: note_on channel=0 note=71 velocity=115 time=0.00675675
EXTRACT: note_on channel=3 note=62 velocity=112 time=0
EXTRACT: note_on channel=7 note=59 velocity=90 time=0
EXTRACT: note_on channel=9 note=26 velocity=50 time=0
EXTRACT: note_on channel=9 note=32 velocity=50 time=0
EXTRACT: note_on channel=9 note=42 velocity=70 time=0
EXTRACT: note_on channel=9 note=42 velocity=0 time=0.043918874999999996
EXTRACT: note_on channel=9 note=32 velocity=0 time=0
EXTRACT: note_on channel=9 note=26 velocity=0 time=0
EXTRACT: note_on channel=0 note=71 velocity=0 time=0.050675624999999995
EXTRACT: note_on channel=3 note=62 velocity=0 time=0.043918874999999996
EXTRACT: note_on channel=7 note=59 velocity=0 time=0.057432375
EXTRACT: note_on channel=0 note=78 velocity=115 time=0.00675675
EXTRACT: note_on channel=3 note=59 velocity=95 time=0
EXTRACT: note_on channel=7 note=54 velocity=90 time=0
EXTRACT: note_on channel=9 note=26 velocity=30 time=0
EXTRACT: note_on channel=9 note=32 velocity=30 time=0
EXTRACT: note_on channel=9 note=32 velocity=0 time=0.043918874999999996
EXTRACT: note_on channel=9 note=26 velocity=0 time=0
EXTRACT: note_on channel=0 note=78 velocity=0 time=0.050675624999999995
EXTRACT: note_on channel=3 note=59 velocity=0 time=0.054054
EXTRACT: note_on channel=2 note=62 velocity=0 time=0.04729725
EXTRACT: note_on channel=2 note=66 velocity=0 time=0
EXTRACT: note_on channel=2 note=59 velocity=0 time=0
EXTRACT: note_on channel=7 note=54 velocity=0 time=0
EXTRACT: note_on channel=2 note=69 velocity=0 time=0
EXTRACT: note_on channel=0 note=67 velocity=112 time=0.00675675
EXTRACT: note_on channel=2 note=59 velocity=101 time=0
EXTRACT: note_on channel=2 note=62 velocity=101 time=0
EXTRACT: note_on channel=2 note=67 velocity=101 time=0
EXTRACT: note_on channel=2 note=69 velocity=101 time=0
EXTRACT: note_on channel=3 note=62 velocity=112 time=0
EXTRACT: note_on channel=7 note=47 velocity=104 time=0
EXTRACT: note_on channel=8 note=31 velocity=81 time=0
EXTRACT: note_on channel=9 note=36 velocity=120 time=0
EXTRACT: note_on channel=9 note=36 velocity=0 time=0.043918874999999996
EXTRACT: note_on channel=0 note=67 velocity=0 time=0.050675624999999995
EXTRACT: note_on channel=7 note=47 velocity=0 time=0.10135124999999999
EXTRACT: note_on channel=0 note=74 velocity=115 time=0.00675675
EXTRACT: note_on channel=7 note=50 velocity=93 time=0
EXTRACT: note_on channel=3 note=62 velocity=0 time=0.081081
EXTRACT: note_on channel=0 note=74 velocity=0 time=0.0135135
EXTRACT: note_on channel=7 note=50 velocity=0 time=0.10135124999999999
EXTRACT: note_on channel=8 note=31 velocity=0 time=0
EXTRACT: note_on channel=0 note=79 velocity=118 time=0.00675675
EXTRACT: note_on channel=3 note=64 velocity=112 time=0
EXTRACT: note_on channel=7 note=59 velocity=89 time=0
EXTRACT: note_on channel=0 note=79 velocity=0 time=0.0945945
EXTRACT: note_on channel=7 note=59 velocity=0 time=0.10135124999999999
EXTRACT: note_on channel=0 note=74 velocity=118 time=0.00675675
EXTRACT: note_on channel=7 note=57 velocity=77 time=0
EXTRACT: note_on channel=3 note=64 velocity=0 time=0.037162125
EXTRACT: note_on channel=0 note=74 velocity=0 time=0.057432375
EXTRACT: note_on channel=7 note=57 velocity=0 time=0.10135124999999999
EXTRACT: note_on channel=0 note=79 velocity=113 time=0.00675675
EXTRACT: note_on channel=3 note=59 velocity=115 time=0
EXTRACT: note_on channel=7 note=59 velocity=98 time=0
EXTRACT: note_on channel=9 note=38 velocity=120 time=0
EXTRACT: note_on channel=9 note=38 velocity=0 time=0.043918874999999996
EXTRACT: note_on channel=0 note=79 velocity=0 time=0.050675624999999995
EXTRACT: note_on channel=7 note=59 velocity=0 time=0.10135124999999999
EXTRACT: note_on channel=0 note=74 velocity=113 time=0.00675675
EXTRACT: note_on channel=7 note=55 velocity=98 time=0
EXTRACT: note_on channel=0 note=74 velocity=0 time=0.0945945
EXTRACT: note_on channel=7 note=55 velocity=0 time=0.10135124999999999
EXTRACT: note_on channel=0 note=67 velocity=109 time=0.00675675
EXTRACT: note_on channel=7 note=47 velocity=78 time=0
EXTRACT: note_on channel=0 note=67 velocity=0 time=0.0945945
EXTRACT: note_on channel=7 note=47 velocity=0 time=0.10135124999999999
EXTRACT: note_on channel=0 note=74 velocity=110 time=0.00675675
EXTRACT: note_on channel=7 note=50 velocity=63 time=0
EXTRACT: note_on channel=9 note=36 velocity=120 time=0
EXTRACT: note_on channel=9 note=36 velocity=0 time=0.043918874999999996
EXTRACT: note_on channel=0 note=74 velocity=0 time=0.050675624999999995
EXTRACT: note_on channel=3 note=59 velocity=0 time=0.10135124999999999
EXTRACT: note_on channel=7 note=50 velocity=0 time=0
EXTRACT: note_on channel=0 note=67 velocity=113 time=0.00675675
EXTRACT: note_on channel=3 note=57 velocity=98 time=0
EXTRACT: note_on channel=6 note=55 velocity=61 time=0
EXTRACT: note_on channel=6 note=62 velocity=61 time=0
EXTRACT: note_on channel=7 note=47 velocity=76 time=0
EXTRACT: note_on channel=6 note=62 velocity=0 time=0.06081075
EXTRACT: note_on channel=6 note=55 velocity=0 time=0
EXTRACT: note_on channel=6 note=55 velocity=65 time=0.00675675
EXTRACT: note_on channel=6 note=62 velocity=65 time=0
EXTRACT: note_on channel=0 note=67 velocity=0 time=0.027027
EXTRACT: note_on channel=6 note=62 velocity=0 time=0.03378375
EXTRACT: note_on channel=6 note=55 velocity=0 time=0
EXTRACT: note_on channel=6 note=55 velocity=68 time=0.00675675
EXTRACT: note_on channel=6 note=62 velocity=68 time=0
EXTRACT: note_on channel=6 note=62 velocity=0 time=0.06081075
EXTRACT: note_on channel=6 note=55 velocity=0 time=0
EXTRACT: note_on channel=7 note=47 velocity=0 time=0
EXTRACT: note_on channel=0 note=74 velocity=114 time=0.00675675
EXTRACT: note_on channel=6 note=55 velocity=71 time=0
EXTRACT: note_on channel=6 note=62 velocity=71 time=0
EXTRACT: note_on channel=7 note=50 velocity=86 time=0
EXTRACT: note_on channel=9 note=36 velocity=120 time=0
EXTRACT: note_on channel=9 note=36 velocity=0 time=0.043918874999999996
EXTRACT: note_on channel=6 note=62 velocity=0 time=0.016891875
EXTRACT: note_on channel=6 note=55 velocity=0 time=0
EXTRACT: note_on channel=6 note=55 velocity=74 time=0.00675675
EXTRACT: note_on channel=6 note=62 velocity=74 time=0
EXTRACT: note_on channel=3 note=57 velocity=0 time=0.016891875
EXTRACT: note_on channel=0 note=74 velocity=0 time=0.010135125
EXTRACT: note_on channel=6 note=62 velocity=0 time=0.03378375
EXTRACT: note_on channel=6 note=55 velocity=0 time=0
EXTRACT: note_on channel=6 note=55 velocity=77 time=0.00675675
EXTRACT: note_on channel=6 note=62 velocity=77 time=0
EXTRACT: note_on channel=6 note=62 velocity=0 time=0.06081075
EXTRACT: note_on channel=7 note=50 velocity=0 time=0
EXTRACT: note_on channel=6 note=55 velocity=0 time=0
EXTRACT: note_on channel=0 note=79 velocity=111 time=0.00675675
EXTRACT: note_on channel=3 note=57 velocity=104 time=0
EXTRACT: note_on channel=6 note=55 velocity=79 time=0
EXTRACT: note_on channel=6 note=62 velocity=79 time=0
EXTRACT: note_on channel=7 note=59 velocity=88 time=0
EXTRACT: note_on channel=9 note=36 velocity=120 time=0
EXTRACT: note_on channel=13 note=62 velocity=118 time=0
EXTRACT: note_on channel=9 note=36 velocity=0 time=0.043918874999999996
EXTRACT: note_on channel=6 note=62 velocity=0 time=0.016891875
EXTRACT: note_on channel=6 note=55 velocity=0 time=0
EXTRACT: note_on channel=6 note=55 velocity=82 time=0.00675675
EXTRACT: note_on channel=6 note=62 velocity=82 time=0
EXTRACT: note_on channel=0 note=79 velocity=0 time=0.027027
EXTRACT: note_on channel=6 note=62 velocity=0 time=0.03378375
EXTRACT: note_on channel=6 note=55 velocity=0 time=0
EXTRACT: note_on channel=6 note=55 velocity=83 time=0.00675675
EXTRACT: note_on channel=6 note=62 velocity=83 time=0
EXTRACT: note_on channel=6 note=62 velocity=0 time=0.06081075
EXTRACT: note_on channel=6 note=55 velocity=0 time=0
EXTRACT: note_on channel=7 note=59 velocity=0 time=0
EXTRACT: note_on channel=0 note=74 velocity=112 time=0.00675675
EXTRACT: note_on channel=6 note=55 velocity=85 time=0
EXTRACT: note_on channel=6 note=62 velocity=85 time=0
EXTRACT: note_on channel=7 note=57 velocity=88 time=0
EXTRACT: note_on channel=3 note=57 velocity=0 time=0.04729725
EXTRACT: note_on channel=6 note=62 velocity=0 time=0.0135135
EXTRACT: note_on channel=6 note=55 velocity=0 time=0
EXTRACT: note_on channel=6 note=55 velocity=86 time=0.00675675
EXTRACT: note_on channel=6 note=62 velocity=86 time=0
EXTRACT: note_on channel=0 note=74 velocity=0 time=0.027027
EXTRACT: note_on channel=6 note=62 velocity=0 time=0.03378375
EXTRACT: note_on channel=6 note=55 velocity=0 time=0
EXTRACT: note_on channel=6 note=55 velocity=88 time=0.00675675
EXTRACT: note_on channel=6 note=62 velocity=88 time=0
EXTRACT: note_on channel=6 note=62 velocity=0 time=0.06081075
EXTRACT: note_on channel=6 note=55 velocity=0 time=0
EXTRACT: note_on channel=7 note=57 velocity=0 time=0
EXTRACT: note_on channel=0 note=79 velocity=113 time=0.00675675
EXTRACT: note_on channel=3 note=62 velocity=118 time=0
EXTRACT: note_on channel=6 note=55 velocity=89 time=0
EXTRACT: note_on channel=6 note=62 velocity=89 time=0
EXTRACT: note_on channel=7 note=59 velocity=81 time=0
EXTRACT: note_on channel=9 note=41 velocity=110 time=0
EXTRACT: note_on channel=9 note=43 velocity=110 time=0
EXTRACT: note_on channel=10 note=52 velocity=114 time=0
EXTRACT: note_on channel=10 note=57 velocity=114 time=0.03378375
EXTRACT: note_on channel=10 note=52 velocity=0 time=0.010135125
EXTRACT: note_on channel=9 note=43 velocity=0 time=0
EXTRACT: note_on channel=9 note=41 velocity=0 time=0
EXTRACT: note_on channel=6 note=62 velocity=0 time=0.016891875
EXTRACT: note_on channel=6 note=55 velocity=0 time=0
EXTRACT: note_on channel=6 note=55 velocity=90 time=0.00675675
EXTRACT: note_on channel=6 note=62 velocity=90 time=0
EXTRACT: note_on channel=10 note=57 velocity=0 time=0.010135125
EXTRACT: note_on channel=0 note=79 velocity=0 time=0.016891875
EXTRACT: note_on channel=6 note=55 velocity=0 time=0.03378375
EXTRACT: note_on channel=6 note=62 velocity=0 time=0
EXTRACT: note_on channel=6 note=55 velocity=92 time=0.00675675
EXTRACT: note_on channel=6 note=62 velocity=92 time=0
EXTRACT: note_on channel=3 note=62 velocity=0 time=0.010135125
EXTRACT: note_on channel=7 note=59 velocity=0 time=0.050675624999999995
EXTRACT: note_on channel=6 note=62 velocity=0 time=0
EXTRACT: note_on channel=6 note=55 velocity=0 time=0
EXTRACT: note_on channel=0 note=74 velocity=115 time=0.00675675
EXTRACT: note_on channel=3 note=64 velocity=101 time=0
EXTRACT: note_on channel=6 note=55 velocity=93 time=0
EXTRACT: note_on channel=6 note=62 velocity=93 time=0
EXTRACT: note_on channel=7 note=55 velocity=73 time=0
EXTRACT: note_on channel=9 note=41 velocity=110 time=0
EXTRACT: note_on channel=9 note=43 velocity=110 time=0
EXTRACT: note_on channel=10 note=52 velocity=114 time=0
EXTRACT: note_on channel=10 note=57 velocity=114 time=0.03378375
EXTRACT: note_on channel=10 note=52 velocity=0 time=0.010135125
EXTRACT: note_on channel=9 note=43 velocity=0 time=0
EXTRACT: note_on channel=9 note=41 velocity=0 time=0
EXTRACT: note_on channel=6 note=62 velocity=0 time=0.016891875
EXTRACT: note_on channel=6 note=55 velocity=0 time=0
EXTRACT: note_on channel=6 note=55 velocity=94 time=0.00675675
EXTRACT: note_on channel=6 note=62 velocity=94 time=0
EXTRACT: note_on channel=10 note=57 velocity=0 time=0.010135125
EXTRACT: note_on channel=0 note=74 velocity=0 time=0.016891875
EXTRACT: note_on channel=3 note=64 velocity=0 time=0.003378375
EXTRACT: note_on channel=6 note=55 velocity=0 time=0.030405375
EXTRACT: note_on channel=6 note=62 velocity=0 time=0
EXTRACT: note_on channel=6 note=55 velocity=94 time=0.00675675
EXTRACT: note_on channel=6 note=62 velocity=94 time=0
EXTRACT: note_on channel=6 note=62 velocity=0 time=0.06081075
EXTRACT: note_on channel=6 note=55 velocity=0 time=0
EXTRACT: note_on channel=7 note=55 velocity=0 time=0
EXTRACT: note_on channel=0 note=67 velocity=115 time=0.00675675
EXTRACT: note_on channel=3 note=62 velocity=121 time=0
EXTRACT: note_on channel=6 note=55 velocity=95 time=0
EXTRACT: note_on channel=6 note=62 velocity=95 time=0
EXTRACT: note_on channel=7 note=50 velocity=73 time=0
EXTRACT: note_on channel=9 note=41 velocity=110 time=0
EXTRACT: note_on channel=9 note=43 velocity=110 time=0
EXTRACT: note_on channel=10 note=52 velocity=114 time=0
EXTRACT: note_on channel=10 note=57 velocity=114 time=0.03378375
EXTRACT: note_on channel=10 note=52 velocity=0 time=0.010135125
EXTRACT: note_on channel=9 note=43 velocity=0 time=0
EXTRACT: note_on channel=9 note=41 velocity=0 time=0
EXTRACT: note_on channel=6 note=62 velocity=0 time=0.016891875
EXTRACT: note_on channel=6 note=55 velocity=0 time=0
EXTRACT: note_on channel=6 note=55 velocity=95 time=0.00675675
EXTRACT: note_on channel=6 note=62 velocity=95 time=0
EXTRACT: note_on channel=10 note=57 velocity=0 time=0.010135125
EXTRACT: note_on channel=0 note=67 velocity=0 time=0.016891875
EXTRACT: note_on channel=6 note=55 velocity=0 time=0.03378375
EXTRACT: note_on channel=6 note=62 velocity=0 time=0
EXTRACT: note_on channel=6 note=55 velocity=96 time=0.00675675
EXTRACT: note_on channel=6 note=62 velocity=96 time=0
EXTRACT: note_on channel=3 note=62 velocity=0 time=0.003378375
EXTRACT: note_on channel=7 note=50 velocity=0 time=0.057432375
EXTRACT: note_on channel=6 note=62 velocity=0 time=0
EXTRACT: note_on channel=6 note=55 velocity=0 time=0
EXTRACT: note_on channel=0 note=74 velocity=115 time=0.00675675
EXTRACT: note_on channel=3 note=64 velocity=121 time=0
EXTRACT: note_on channel=6 note=55 velocity=97 time=0
EXTRACT: note_on channel=6 note=62 velocity=97 time=0
EXTRACT: note_on channel=7 note=55 velocity=71 time=0
EXTRACT: note_on channel=9 note=41 velocity=110 time=0
EXTRACT: note_on channel=9 note=43 velocity=110 time=0
EXTRACT: note_on channel=10 note=52 velocity=114 time=0
EXTRACT: note_on channel=10 note=57 velocity=114 time=0.03378375
EXTRACT: note_on channel=10 note=52 velocity=0 time=0.010135125
EXTRACT: note_on channel=9 note=43 velocity=0 time=0
EXTRACT: note_on channel=9 note=41 velocity=0 time=0
EXTRACT: note_on channel=6 note=62 velocity=0 time=0.016891875
EXTRACT: note_on channel=6 note=55 velocity=0 time=0
EXTRACT: note_on channel=6 note=55 velocity=98 time=0.00675675
EXTRACT: note_on channel=6 note=62 velocity=98 time=0
EXTRACT: note_on channel=10 note=57 velocity=0 time=0.010135125
EXTRACT: note_on channel=0 note=74 velocity=0 time=0.016891875
EXTRACT: note_on channel=6 note=55 velocity=0 time=0.03378375
EXTRACT: note_on channel=6 note=62 velocity=0 time=0
EXTRACT: note_on channel=6 note=55 velocity=98 time=0.00675675
EXTRACT: note_on channel=6 note=62 velocity=98 time=0
EXTRACT: note_on channel=3 note=64 velocity=0 time=0.043918874999999996
EXTRACT: note_on channel=13 note=62 velocity=0 time=0.016891875
EXTRACT: note_on channel=7 note=55 velocity=0 time=0
EXTRACT: note_on channel=2 note=69 velocity=0 time=0
EXTRACT: note_on channel=2 note=62 velocity=0 time=0
EXTRACT: note_on channel=2 note=67 velocity=0 time=0
EXTRACT: note_on channel=6 note=55 velocity=0 time=0
EXTRACT: note_on channel=2 note=59 velocity=0 time=0
EXTRACT: note_on channel=6 note=62 velocity=0 time=0
EXTRACT: note_on channel=0 note=74 velocity=112 time=0.00675675
EXTRACT: note_on channel=1 note=38 velocity=121 time=0
EXTRACT: note_on channel=2 note=57 velocity=102 time=0
EXTRACT: note_on channel=2 note=62 velocity=102 time=0
EXTRACT: note_on channel=2 note=66 velocity=102 time=0
EXTRACT: note_on channel=3 note=66 velocity=121 time=0
EXTRACT: note_on channel=5 note=50 velocity=100 time=0
EXTRACT: note_on channel=5 note=54 velocity=100 time=0
EXTRACT: note_on channel=5 note=57 velocity=100 time=0
EXTRACT: note_on channel=5 note=62 velocity=100 time=0
EXTRACT: note_on channel=6 note=45 velocity=99 time=0
EXTRACT: note_on channel=6 note=50 velocity=99 time=0
EXTRACT: note_on channel=7 note=50 velocity=104 time=0
EXTRACT: note_on channel=8 note=38 velocity=79 time=0
EXTRACT: note_on channel=9 note=26 velocity=50 time=0
EXTRACT: note_on channel=9 note=32 velocity=50 time=0
EXTRACT: note_on channel=9 note=36 velocity=120 time=0
EXTRACT: note_on channel=9 note=42 velocity=80 time=0
EXTRACT: note_on channel=9 note=49 velocity=110 time=0
EXTRACT: note_on channel=10 note=52 velocity=120 time=0
EXTRACT: note_on channel=11 note=81 velocity=102 time=0
EXTRACT: note_on channel=11 note=86 velocity=102 time=0
EXTRACT: note_on channel=11 note=90 velocity=102 time=0
EXTRACT: note_on channel=10 note=57 velocity=120 time=0.037162125
EXTRACT: note_on channel=10 note=52 velocity=0 time=0.00675675
EXTRACT: note_on channel=9 note=49 velocity=0 time=0
EXTRACT: note_on channel=9 note=36 velocity=0 time=0
EXTRACT: note_on channel=9 note=32 velocity=0 time=0
EXTRACT: note_on channel=9 note=26 velocity=0 time=0
EXTRACT: note_on channel=9 note=42 velocity=0 time=0
EXTRACT: note_on channel=10 note=57 velocity=0 time=0.037162125
EXTRACT: note_on channel=0 note=74 velocity=0 time=0.0135135
EXTRACT: note_on channel=7 note=50 velocity=0 time=0.10135124999999999
EXTRACT: note_on channel=0 note=78 velocity=115 time=0.00675675
EXTRACT: note_on channel=7 note=54 velocity=93 time=0
EXTRACT: note_on channel=9 note=26 velocity=30 time=0
EXTRACT: note_on channel=9 note=32 velocity=30 time=0
EXTRACT: note_on channel=9 note=32 velocity=0 time=0.043918874999999996
EXTRACT: note_on channel=9 note=26 velocity=0 time=0
EXTRACT: note_on channel=0 note=78 velocity=0 time=0.050675624999999995
EXTRACT: note_on channel=3 note=66 velocity=0 time=0
EXTRACT: note_on channel=7 note=54 velocity=0 time=0.10135124999999999
EXTRACT: note_on channel=8 note=38 velocity=0 time=0
EXTRACT: note_on channel=0 note=81 velocity=118 time=0.00675675
EXTRACT: note_on channel=3 note=69 velocity=121 time=0
EXTRACT: note_on channel=7 note=57 velocity=89 time=0
EXTRACT: note_on channel=9 note=26 velocity=50 time=0
EXTRACT: note_on channel=9 note=32 velocity=50 time=0
EXTRACT: note_on channel=9 note=42 velocity=70 time=0
EXTRACT: note_on channel=9 note=42 velocity=0 time=0.043918874999999996
EXTRACT: note_on channel=9 note=32 velocity=0 time=0
EXTRACT: note_on channel=9 note=26 velocity=0 time=0
EXTRACT: note_on channel=0 note=81 velocity=0 time=0.050675624999999995
EXTRACT: note_on channel=7 note=57 velocity=0 time=0.10135124999999999
EXTRACT: note_on channel=0 note=78 velocity=118 time=0.00675675
EXTRACT: note_on channel=7 note=54 velocity=77 time=0
EXTRACT: note_on channel=9 note=26 velocity=30 time=0
EXTRACT: note_on channel=9 note=32 velocity=30 time=0
EXTRACT: note_on channel=9 note=32 velocity=0 time=0.043918874999999996
EXTRACT: note_on channel=9 note=26 velocity=0 time=0
EXTRACT: note_on channel=3 note=69 velocity=0 time=0.0135135
EXTRACT: note_on channel=0 note=78 velocity=0 time=0.037162125
EXTRACT: note_on channel=7 note=54 velocity=0 time=0.10135124999999999
EXTRACT: note_on channel=0 note=81 velocity=113 time=0.00675675
EXTRACT: note_on channel=3 note=66 velocity=121 time=0
EXTRACT: note_on channel=7 note=57 velocity=98 time=0
EXTRACT: note_on channel=9 note=26 velocity=50 time=0
EXTRACT: note_on channel=9 note=32 velocity=50 time=0
EXTRACT: note_on channel=9 note=38 velocity=120 time=0
EXTRACT: note_on channel=9 note=42 velocity=80 time=0
EXTRACT: note_on channel=9 note=42 velocity=0 time=0.043918874999999996
EXTRACT: note_on channel=9 note=38 velocity=0 time=0
EXTRACT: note_on channel=9 note=26 velocity=0 time=0
EXTRACT: note_on channel=9 note=32 velocity=0 time=0
EXTRACT: note_on channel=0 note=81 velocity=0 time=0.050675624999999995
EXTRACT: note_on channel=7 note=57 velocity=0 time=0.10135124999999999
EXTRACT: note_on channel=0 note=78 velocity=113 time=0.00675675
EXTRACT: note_on channel=7 note=54 velocity=98 time=0
EXTRACT: note_on channel=9 note=26 velocity=30 time=0
EXTRACT: note_on channel=9 note=32 velocity=30 time=0
EXTRACT: note_on channel=9 note=32 velocity=0 time=0.043918874999999996
EXTRACT: note_on channel=9 note=26 velocity=0 time=0
EXTRACT: note_on channel=0 note=78 velocity=0 time=0.050675624999999995
EXTRACT: note_on channel=7 note=54 velocity=0 time=0.10135124999999999
EXTRACT: note_on channel=0 note=74 velocity=109 time=0.00675675
EXTRACT: note_on channel=7 note=50 velocity=101 time=0
EXTRACT: note_on channel=9 note=26 velocity=50 time=0
EXTRACT: note_on channel=9 note=32 velocity=50 time=0
EXTRACT: note_on channel=9 note=42 velocity=70 time=0
EXTRACT: note_on channel=9 note=42 velocity=0 time=0.043918874999999996
EXTRACT: note_on channel=9 note=32 velocity=0 time=0
EXTRACT: note_on channel=9 note=26 velocity=0 time=0
EXTRACT: note_on channel=0 note=74 velocity=0 time=0.050675624999999995
EXTRACT: note_on channel=7 note=50 velocity=0 time=0.10135124999999999
EXTRACT: note_on channel=1 note=38 velocity=0 time=0
EXTRACT: note_on channel=0 note=78 velocity=110 time=0.00675675
EXTRACT: note_on channel=1 note=38 velocity=121 time=0
EXTRACT: note_on channel=7 note=54 velocity=95 time=0
EXTRACT: note_on channel=9 note=26 velocity=30 time=0
EXTRACT: note_on channel=9 note=32 velocity=30 time=0
EXTRACT: note_on channel=9 note=36 velocity=120 time=0
EXTRACT: note_on channel=10 note=52 velocity=120 time=0
EXTRACT: note_on channel=10 note=57 velocity=120 time=0.03378375
EXTRACT: note_on channel=10 note=52 velocity=0 time=0.010135125
EXTRACT: note_on channel=9 note=36 velocity=0 time=0
EXTRACT: note_on channel=9 note=26 velocity=0 time=0
EXTRACT: note_on channel=9 note=32 velocity=0 time=0
EXTRACT: note_on channel=10 note=57 velocity=0 time=0.03378375
EXTRACT: note_on channel=0 note=78 velocity=0 time=0.016891875
EXTRACT: note_on channel=7 note=54 velocity=0 time=0.10135124999999999
EXTRACT: note_on channel=0 note=74 velocity=113 time=0.00675675
EXTRACT: note_on channel=7 note=50 velocity=104 time=0
EXTRACT: note_on channel=9 note=26 velocity=50 time=0
EXTRACT: note_on channel=9 note=32 velocity=50 time=0
EXTRACT: note_on channel=9 note=42 velocity=80 time=0
EXTRACT: note_on channel=9 note=42 velocity=0 time=0.043918874999999996
EXTRACT: note_on channel=9 note=32 velocity=0 time=0
EXTRACT: note_on channel=9 note=26 velocity=0 time=0
EXTRACT: note_on channel=0 note=74 velocity=0 time=0.050675624999999995
EXTRACT: note_on channel=7 note=50 velocity=0 time=0.10135124999999999
EXTRACT: note_on channel=1 note=38 velocity=0 time=0
EXTRACT: note_on channel=0 note=78 velocity=114 time=0.00675675
EXTRACT: note_on channel=1 note=38 velocity=121 time=0
EXTRACT: note_on channel=7 note=54 velocity=86 time=0
EXTRACT: note_on channel=9 note=26 velocity=30 time=0
EXTRACT: note_on channel=9 note=32 velocity=30 time=0
EXTRACT: note_on channel=9 note=36 velocity=120 time=0
EXTRACT: note_on channel=10 note=52 velocity=120 time=0
EXTRACT: note_on channel=3 note=66 velocity=0 time=0.003378375
EXTRACT: note_on channel=10 note=57 velocity=120 time=0.030405375
EXTRACT: note_on channel=10 note=52 velocity=0 time=0.010135125
EXTRACT: note_on channel=9 note=32 velocity=0 time=0
EXTRACT: note_on channel=9 note=26 velocity=0 time=0
EXTRACT: note_on channel=9 note=36 velocity=0 time=0
EXTRACT: note_on channel=10 note=57 velocity=0 time=0.03378375
EXTRACT: note_on channel=0 note=78 velocity=0 time=0.016891875
EXTRACT: note_on channel=7 note=54 velocity=0 time=0.10135124999999999
EXTRACT: note_on channel=1 note=38 velocity=0 time=0
EXTRACT: note_on channel=0 note=81 velocity=111 time=0.00675675
EXTRACT: note_on channel=1 note=38 velocity=121 time=0
EXTRACT: note_on channel=7 note=57 velocity=101 time=0
EXTRACT: note_on channel=9 note=26 velocity=50 time=0
EXTRACT: note_on channel=9 note=32 velocity=50 time=0
EXTRACT: note_on channel=9 note=36 velocity=120 time=0
EXTRACT: note_on channel=9 note=42 velocity=70 time=0
EXTRACT: note_on channel=10 note=52 velocity=120 time=0
EXTRACT: note_on channel=10 note=57 velocity=120 time=0.03378375
EXTRACT: note_on channel=10 note=52 velocity=0 time=0.010135125
EXTRACT: note_on channel=9 note=42 velocity=0 time=0
EXTRACT: note_on channel=9 note=32 velocity=0 time=0
EXTRACT: note_on channel=9 note=26 velocity=0 time=0
EXTRACT: note_on channel=9 note=36 velocity=0 time=0
EXTRACT: note_on channel=10 note=57 velocity=0 time=0.03378375
EXTRACT: note_on channel=0 note=81 velocity=0 time=0.016891875
EXTRACT: note_on channel=7 note=57 velocity=0 time=0.10135124999999999
EXTRACT: note_on channel=0 note=78 velocity=112 time=0.00675675
EXTRACT: note_on channel=7 note=54 velocity=98 time=0
EXTRACT: note_on channel=9 note=26 velocity=30 time=0
EXTRACT: note_on channel=9 note=32 velocity=30 time=0
EXTRACT: note_on channel=9 note=32 velocity=0 time=0.043918874999999996
EXTRACT: note_on channel=9 note=26 velocity=0 time=0
EXTRACT: note_on channel=0 note=78 velocity=0 time=0.050675624999999995
EXTRACT: note_on channel=7 note=54 velocity=0 time=0.10135124999999999
EXTRACT: note_on channel=0 note=81 velocity=113 time=0.00675675
EXTRACT: note_on channel=3 note=62 velocity=109 time=0
EXTRACT: note_on channel=7 note=57 velocity=101 time=0
EXTRACT: note_on channel=9 note=26 velocity=50 time=0
EXTRACT: note_on channel=9 note=32 velocity=50 time=0
EXTRACT: note_on channel=9 note=38 velocity=120 time=0
EXTRACT: note_on channel=9 note=42 velocity=80 time=0
EXTRACT: note_on channel=9 note=42 velocity=0 time=0.043918874999999996
EXTRACT: note_on channel=9 note=38 velocity=0 time=0
EXTRACT: note_on channel=9 note=26 velocity=0 time=0
EXTRACT: note_on channel=9 note=32 velocity=0 time=0
EXTRACT: note_on channel=3 note=62 velocity=0 time=0.043918874999999996
EXTRACT: note_on channel=0 note=81 velocity=0 time=0.00675675
EXTRACT: note_on channel=7 note=57 velocity=0 time=0.10135124999999999
EXTRACT: note_on channel=0 note=78 velocity=115 time=0.00675675
EXTRACT: note_on channel=3 note=62 velocity=101 time=0
EXTRACT: note_on channel=7 note=54 velocity=93 time=0
EXTRACT: note_on channel=9 note=26 velocity=30 time=0
EXTRACT: note_on channel=9 note=32 velocity=30 time=0
EXTRACT: note_on channel=9 note=32 velocity=0 time=0.043918874999999996
EXTRACT: note_on channel=9 note=26 velocity=0 time=0
EXTRACT: note_on channel=3 note=62 velocity=0 time=0.050675624999999995
EXTRACT: note_on channel=0 note=78 velocity=0 time=0
EXTRACT: note_on channel=7 note=54 velocity=0 time=0.10135124999999999
EXTRACT: note_on channel=0 note=74 velocity=115 time=0.00675675
EXTRACT: note_on channel=3 note=62 velocity=104 time=0
EXTRACT: note_on channel=7 note=50 velocity=90 time=0
EXTRACT: note_on channel=9 note=26 velocity=50 time=0
EXTRACT: note_on channel=9 note=32 velocity=50 time=0
EXTRACT: note_on channel=9 note=42 velocity=70 time=0
EXTRACT: note_on channel=9 note=42 velocity=0 time=0.043918874999999996
EXTRACT: note_on channel=9 note=32 velocity=0 time=0
EXTRACT: note_on channel=9 note=26 velocity=0 time=0
EXTRACT: note_on channel=0 note=74 velocity=0 time=0.050675624999999995
EXTRACT: note_on channel=3 note=62 velocity=0 time=0.054054
EXTRACT: note_on channel=7 note=50 velocity=0 time=0.04729725
EXTRACT: note_on channel=0 note=78 velocity=115 time=0.00675675
EXTRACT: note_on channel=3 note=64 velocity=104 time=0
EXTRACT: note_on channel=7 note=54 velocity=90 time=0
EXTRACT: note_on channel=9 note=26 velocity=30 time=0
EXTRACT: note_on channel=9 note=32 velocity=30 time=0
EXTRACT: note_on channel=9 note=32 velocity=0 time=0.043918874999999996
EXTRACT: note_on channel=9 note=26 velocity=0 time=0
EXTRACT: note_on channel=0 note=78 velocity=0 time=0.050675624999999995
EXTRACT: note_on channel=3 note=64 velocity=0 time=0.027027
EXTRACT: note_on channel=6 note=50 velocity=0 time=0.07432425
EXTRACT: note_on channel=1 note=38 velocity=0 time=0
EXTRACT: note_on channel=5 note=57 velocity=0 time=0
EXTRACT: note_on channel=2 note=57 velocity=0 time=0
EXTRACT: note_on channel=11 note=90 velocity=0 time=0
EXTRACT: note_on channel=11 note=81 velocity=0 time=0
EXTRACT: note_on channel=7 note=54 velocity=0 time=0
EXTRACT: note_on channel=2 note=62 velocity=0 time=0
EXTRACT: note_on channel=5 note=54 velocity=0 time=0
EXTRACT: note_on channel=5 note=50 velocity=0 time=0
EXTRACT: note_on channel=11 note=86 velocity=0 time=0
EXTRACT: note_on channel=6 note=45 velocity=0 time=0
EXTRACT: note_on channel=2 note=66 velocity=0 time=0
EXTRACT: note_on channel=5 note=62 velocity=0 time=0
EXTRACT: note_on channel=0 note=73 velocity=112 time=0.00675675
EXTRACT: note_on channel=1 note=37 velocity=120 time=0
EXTRACT: note_on channel=2 note=57 velocity=100 time=0
EXTRACT: note_on channel=2 note=61 velocity=100 time=0
EXTRACT: note_on channel=2 note=66 velocity=100 time=0
EXTRACT: note_on channel=3 note=66 velocity=118 time=0
EXTRACT: note_on channel=5 note=49 velocity=99 time=0
EXTRACT: note_on channel=5 note=54 velocity=99 time=0
EXTRACT: note_on channel=5 note=57 velocity=99 time=0
EXTRACT: note_on channel=5 note=61 velocity=99 time=0
EXTRACT: note_on channel=6 note=42 velocity=101 time=0
EXTRACT: note_on channel=6 note=49 velocity=101 time=0
EXTRACT: note_on channel=7 note=49 velocity=104 time=0
EXTRACT: note_on channel=8 note=37 velocity=79 time=0
EXTRACT: note_on channel=9 note=26 velocity=50 time=0
EXTRACT: note_on channel=9 note=32 velocity=50 time=0
EXTRACT: note_on channel=9 note=36 velocity=120 time=0
EXTRACT: note_on channel=9 note=42 velocity=80 time=0
EXTRACT: note_on channel=10 note=52 velocity=120 time=0
EXTRACT: note_on channel=11 note=81 velocity=100 time=0
EXTRACT: note_on channel=11 note=85 velocity=100 time=0
EXTRACT: note_on channel=11 note=90 velocity=100 time=0
EXTRACT: note_on channel=10 note=57 velocity=120 time=0.03378375
EXTRACT: note_on channel=10 note=52 velocity=0 time=0.010135125
EXTRACT: note_on channel=9 note=42 velocity=0 time=0
EXTRACT: note_on channel=9 note=36 velocity=0 time=0
EXTRACT: note_on channel=9 note=32 velocity=0 time=0
EXTRACT: note_on channel=9 note=26 velocity=0 time=0
EXTRACT: note_on channel=10 note=57 velocity=0 time=0.03378375
EXTRACT: note_on channel=0 note=73 velocity=0 time=0.016891875
EXTRACT: note_on channel=7 note=49 velocity=0 time=0.10135124999999999
EXTRACT: note_on channel=0 note=78 velocity=115 time=0.00675675
EXTRACT: note_on channel=7 note=54 velocity=93 time=0
EXTRACT: note_on channel=9 note=26 velocity=30 time=0
EXTRACT: note_on channel=9 note=32 velocity=30 time=0
EXTRACT: note_on channel=9 note=32 velocity=0 time=0.043918874999999996
EXTRACT: note_on channel=9 note=26 velocity=0 time=0
EXTRACT: note_on channel=3 note=66 velocity=0 time=0.0405405
EXTRACT: note_on channel=0 note=78 velocity=0 time=0.010135125
EXTRACT: note_on channel=7 note=54 velocity=0 time=0.10135124999999999
EXTRACT: note_on channel=8 note=37 velocity=0 time=0
EXTRACT: note_on channel=0 note=81 velocity=118 time=0.00675675
EXTRACT: note_on channel=3 note=69 velocity=118 time=0
EXTRACT: note_on channel=7 note=57 velocity=89 time=0
EXTRACT: note_on channel=9 note=26 velocity=50 time=0
EXTRACT: note_on channel=9 note=32 velocity=50 time=0
EXTRACT: note_on channel=9 note=42 velocity=70 time=0
EXTRACT: note_on channel=9 note=42 velocity=0 time=0.043918874999999996
EXTRACT: note_on channel=9 note=32 velocity=0 time=0
EXTRACT: note_on channel=9 note=26 velocity=0 time=0
EXTRACT: note_on channel=0 note=81 velocity=0 time=0.050675624999999995
EXTRACT: note_on channel=7 note=57 velocity=0 time=0.10135124999999999
EXTRACT: note_on channel=0 note=78 velocity=118 time=0.00675675
EXTRACT: note_on channel=7 note=54 velocity=77 time=0
EXTRACT: note_on channel=9 note=26 velocity=30 time=0
EXTRACT: note_on channel=9 note=32 velocity=30 time=0
EXTRACT: note_on channel=9 note=32 velocity=0 time=0.043918874999999996
EXTRACT: note_on channel=9 note=26 velocity=0 time=0
EXTRACT: note_on channel=3 note=69 velocity=0 time=0.030405375
EXTRACT: note_on channel=0 note=78 velocity=0 time=0.02027025
EXTRACT: note_on channel=7 note=54 velocity=0 time=0.10135124999999999
EXTRACT: note_on channel=0 note=81 velocity=113 time=0.00675675
EXTRACT: note_on channel=3 note=66 velocity=121 time=0
EXTRACT: note_on channel=7 note=57 velocity=98 time=0
EXTRACT: note_on channel=9 note=26 velocity=50 time=0
EXTRACT: note_on channel=9 note=32 velocity=50 time=0
EXTRACT: note_on channel=9 note=38 velocity=120 time=0
EXTRACT: note_on channel=9 note=42 velocity=80 time=0
EXTRACT: note_on channel=9 note=42 velocity=0 time=0.043918874999999996
EXTRACT: note_on channel=9 note=38 velocity=0 time=0
EXTRACT: note_on channel=9 note=26 velocity=0 time=0
EXTRACT: note_on channel=9 note=32 velocity=0 time=0
EXTRACT: note_on channel=0 note=81 velocity=0 time=0.050675624999999995
EXTRACT: note_on channel=7 note=57 velocity=0 time=0.10135124999999999
EXTRACT: note_on channel=0 note=78 velocity=113 time=0.00675675
EXTRACT: note_on channel=7 note=54 velocity=98 time=0
EXTRACT: note_on channel=9 note=26 velocity=30 time=0
EXTRACT: note_on channel=9 note=32 velocity=30 time=0
EXTRACT: note_on channel=9 note=32 velocity=0 time=0.043918874999999996
EXTRACT: note_on channel=9 note=26 velocity=0 time=0
EXTRACT: note_on channel=0 note=78 velocity=0 time=0.050675624999999995
EXTRACT: note_on channel=7 note=54 velocity=0 time=0.10135124999999999
EXTRACT: note_on channel=0 note=73 velocity=109 time=0.00675675
EXTRACT: note_on channel=7 note=49 velocity=101 time=0
EXTRACT: note_on channel=9 note=26 velocity=50 time=0
EXTRACT: note_on channel=9 note=32 velocity=50 time=0
EXTRACT: note_on channel=9 note=42 velocity=70 time=0
EXTRACT: note_on channel=9 note=42 velocity=0 time=0.043918874999999996
EXTRACT: note_on channel=9 note=32 velocity=0 time=0
EXTRACT: note_on channel=9 note=26 velocity=0 time=0
EXTRACT: note_on channel=0 note=73 velocity=0 time=0.050675624999999995
EXTRACT: note_on channel=7 note=49 velocity=0 time=0.10135124999999999
EXTRACT: note_on channel=1 note=37 velocity=0 time=0
EXTRACT: note_on channel=0 note=78 velocity=110 time=0.00675675
EXTRACT: note_on channel=1 note=37 velocity=120 time=0
EXTRACT: note_on channel=7 note=54 velocity=95 time=0
EXTRACT: note_on channel=9 note=26 velocity=30 time=0
EXTRACT: note_on channel=9 note=32 velocity=30 time=0
EXTRACT: note_on channel=9 note=36 velocity=120 time=0
EXTRACT: note_on channel=10 note=52 velocity=120 time=0
EXTRACT: note_on channel=10 note=57 velocity=120 time=0.03378375
EXTRACT: note_on channel=10 note=52 velocity=0 time=0.010135125
EXTRACT: note_on channel=9 note=36 velocity=0 time=0
EXTRACT: note_on channel=9 note=26 velocity=0 time=0
EXTRACT: note_on channel=9 note=32 velocity=0 time=0
EXTRACT: note_on channel=10 note=57 velocity=0 time=0.03378375
EXTRACT: note_on channel=0 note=78 velocity=0 time=0.016891875
EXTRACT: note_on channel=7 note=54 velocity=0 time=0.10135124999999999
EXTRACT: note_on channel=0 note=73 velocity=113 time=0.00675675
EXTRACT: note_on channel=7 note=49 velocity=104 time=0
EXTRACT: note_on channel=9 note=26 velocity=50 time=0
EXTRACT: note_on channel=9 note=32 velocity=50 time=0
EXTRACT: note_on channel=9 note=42 velocity=80 time=0
EXTRACT: note_on channel=9 note=42 velocity=0 time=0.043918874999999996
EXTRACT: note_on channel=9 note=32 velocity=0 time=0
EXTRACT: note_on channel=9 note=26 velocity=0 time=0
EXTRACT: note_on channel=0 note=73 velocity=0 time=0.050675624999999995
EXTRACT: note_on channel=3 note=66 velocity=0 time=0.091216125
EXTRACT: note_on channel=7 note=49 velocity=0 time=0.010135125
EXTRACT: note_on channel=1 note=37 velocity=0 time=0
EXTRACT: note_on channel=0 note=78 velocity=114 time=0.00675675
EXTRACT: note_on channel=1 note=37 velocity=120 time=0
EXTRACT: note_on channel=7 note=54 velocity=86 time=0
EXTRACT: note_on channel=9 note=26 velocity=30 time=0
EXTRACT: note_on channel=9 note=32 velocity=30 time=0
EXTRACT: note_on channel=9 note=36 velocity=120 time=0
EXTRACT: note_on channel=10 note=52 velocity=120 time=0
EXTRACT: note_on channel=10 note=57 velocity=120 time=0.03378375
EXTRACT: note_on channel=10 note=52 velocity=0 time=0.010135125
EXTRACT: note_on channel=9 note=36 velocity=0 time=0
EXTRACT: note_on channel=9 note=32 velocity=0 time=0
EXTRACT: note_on channel=9 note=26 velocity=0 time=0
EXTRACT: note_on channel=10 note=57 velocity=0 time=0.03378375
EXTRACT: note_on channel=0 note=78 velocity=0 time=0.016891875
EXTRACT: note_on channel=7 note=54 velocity=0 time=0.10135124999999999
EXTRACT: note_on channel=1 note=37 velocity=0 time=0
EXTRACT: note_on channel=0 note=81 velocity=111 time=0.00675675
EXTRACT: note_on channel=1 note=37 velocity=120 time=0
EXTRACT: note_on channel=7 note=57 velocity=101 time=0
EXTRACT: note_on channel=9 note=26 velocity=50 time=0
EXTRACT: note_on channel=9 note=32 velocity=50 time=0
EXTRACT: note_on channel=9 note=36 velocity=120 time=0
EXTRACT: note_on channel=9 note=42 velocity=70 time=0
EXTRACT: note_on channel=10 note=52 velocity=120 time=0
EXTRACT: note_on channel=10 note=57 velocity=120 time=0.03378375
EXTRACT: note_on channel=10 note=52 velocity=0 time=0.010135125
EXTRACT: note_on channel=9 note=42 velocity=0 time=0
EXTRACT: note_on channel=9 note=32 velocity=0 time=0
EXTRACT: note_on channel=9 note=26 velocity=0 time=0
EXTRACT: note_on channel=9 note=36 velocity=0 time=0
EXTRACT: note_on channel=10 note=57 velocity=0 time=0.03378375
EXTRACT: note_on channel=0 note=81 velocity=0 time=0.016891875
EXTRACT: note_on channel=7 note=57 velocity=0 time=0.10135124999999999
EXTRACT: note_on channel=0 note=78 velocity=112 time=0.00675675
EXTRACT: note_on channel=7 note=54 velocity=98 time=0
EXTRACT: note_on channel=9 note=26 velocity=30 time=0
EXTRACT: note_on channel=9 note=32 velocity=30 time=0
EXTRACT: note_on channel=9 note=32 velocity=0 time=0.043918874999999996
EXTRACT: note_on channel=9 note=26 velocity=0 time=0
EXTRACT: note_on channel=0 note=78 velocity=0 time=0.050675624999999995
EXTRACT: note_on channel=7 note=54 velocity=0 time=0.10135124999999999
EXTRACT: note_on channel=0 note=81 velocity=113 time=0.00675675
EXTRACT: note_on channel=3 note=62 velocity=109 time=0
EXTRACT: note_on channel=7 note=57 velocity=101 time=0
EXTRACT: note_on channel=9 note=26 velocity=50 time=0
EXTRACT: note_on channel=9 note=32 velocity=50 time=0
EXTRACT: note_on channel=9 note=38 velocity=120 time=0
EXTRACT: note_on channel=9 note=42 velocity=80 time=0
EXTRACT: note_on channel=9 note=42 velocity=0 time=0.043918874999999996
EXTRACT: note_on channel=9 note=38 velocity=0 time=0
EXTRACT: note_on channel=9 note=26 velocity=0 time=0
EXTRACT: note_on channel=9 note=32 velocity=0 time=0
EXTRACT: note_on channel=3 note=62 velocity=0 time=0.043918874999999996
EXTRACT: note_on channel=0 note=81 velocity=0 time=0.00675675
EXTRACT: note_on channel=7 note=57 velocity=0 time=0.10135124999999999
EXTRACT: note_on channel=0 note=78 velocity=115 time=0.00675675
EXTRACT: note_on channel=3 note=62 velocity=101 time=0
EXTRACT: note_on channel=7 note=54 velocity=93 time=0
EXTRACT: note_on channel=9 note=26 velocity=30 time=0
EXTRACT: note_on channel=9 note=32 velocity=30 time=0
EXTRACT: note_on channel=9 note=32 velocity=0 time=0.043918874999999996
EXTRACT: note_on channel=9 note=26 velocity=0 time=0
EXTRACT: note_on channel=3 note=62 velocity=0 time=0.050675624999999995
EXTRACT: note_on channel=0 note=78 velocity=0 time=0
EXTRACT: note_on channel=7 note=54 velocity=0 time=0.10135124999999999
EXTRACT: note_on channel=0 note=73 velocity=115 time=0.00675675
EXTRACT: note_on channel=3 note=62 velocity=104 time=0
EXTRACT: note_on channel=7 note=49 velocity=90 time=0
EXTRACT: note_on channel=9 note=26 velocity=50 time=0
EXTRACT: note_on channel=9 note=32 velocity=50 time=0
EXTRACT: note_on channel=9 note=36 velocity=114 time=0
EXTRACT: note_on channel=9 note=42 velocity=70 time=0
EXTRACT: note_on channel=10 note=52 velocity=114 time=0
EXTRACT: note_on channel=10 note=57 velocity=114 time=0.03378375
EXTRACT: note_on channel=10 note=52 velocity=0 time=0.010135125
EXTRACT: note_on channel=9 note=42 velocity=0 time=0
EXTRACT: note_on channel=9 note=26 velocity=0 time=0
EXTRACT: note_on channel=9 note=36 velocity=0 time=0
EXTRACT: note_on channel=9 note=32 velocity=0 time=0
EXTRACT: note_on channel=10 note=57 velocity=0 time=0.03378375
EXTRACT: note_on channel=0 note=73 velocity=0 time=0.016891875
EXTRACT: note_on channel=3 note=62 velocity=0 time=0.054054
EXTRACT: note_on channel=7 note=49 velocity=0 time=0.04729725
EXTRACT: note_on channel=0 note=78 velocity=115 time=0.00675675
EXTRACT: note_on channel=3 note=64 velocity=104 time=0
EXTRACT: note_on channel=7 note=54 velocity=90 time=0
EXTRACT: note_on channel=9 note=26 velocity=30 time=0
EXTRACT: note_on channel=9 note=32 velocity=30 time=0
EXTRACT: note_on channel=9 note=36 velocity=114 time=0
EXTRACT: note_on channel=10 note=52 velocity=114 time=0
EXTRACT: note_on channel=10 note=57 velocity=114 time=0.03378375
EXTRACT: note_on channel=10 note=52 velocity=0 time=0.010135125
EXTRACT: note_on channel=9 note=36 velocity=0 time=0
EXTRACT: note_on channel=9 note=26 velocity=0 time=0
EXTRACT: note_on channel=9 note=32 velocity=0 time=0
EXTRACT: note_on channel=10 note=57 velocity=0 time=0.03378375
EXTRACT: note_on channel=0 note=78 velocity=0 time=0.016891875
EXTRACT: note_on channel=3 note=64 velocity=0 time=0.027027
EXTRACT: note_on channel=5 note=57 velocity=0 time=0.07432425
EXTRACT: note_on channel=1 note=37 velocity=0 time=0
EXTRACT: note_on channel=2 note=61 velocity=0 time=0
EXTRACT: note_on channel=2 note=57 velocity=0 time=0
EXTRACT: note_on channel=2 note=66 velocity=0 time=0
EXTRACT: note_on channel=5 note=61 velocity=0 time=0
EXTRACT: note_on channel=11 note=90 velocity=0 time=0
EXTRACT: note_on channel=5 note=54 velocity=0 time=0
EXTRACT: note_on channel=6 note=49 velocity=0 time=0
EXTRACT: note_on channel=11 note=85 velocity=0 time=0
EXTRACT: note_on channel=7 note=54 velocity=0 time=0
EXTRACT: note_on channel=11 note=81 velocity=0 time=0
EXTRACT: note_on channel=5 note=49 velocity=0 time=0
EXTRACT: note_on channel=6 note=42 velocity=0 time=0
EXTRACT: note_on channel=0 note=71 velocity=112 time=0.00675675
EXTRACT: note_on channel=1 note=35 velocity=120 time=0
EXTRACT: note_on channel=2 note=59 velocity=102 time=0
EXTRACT: note_on channel=2 note=62 velocity=102 time=0
EXTRACT: note_on channel=2 note=66 velocity=102 time=0
EXTRACT: note_on channel=3 note=66 velocity=118 time=0
EXTRACT: note_on channel=5 note=47 velocity=99 time=0
EXTRACT: note_on channel=5 note=54 velocity=99 time=0
EXTRACT: note_on channel=5 note=59 velocity=99 time=0
EXTRACT: note_on channel=5 note=62 velocity=99 time=0
EXTRACT: note_on channel=6 note=47 velocity=98 time=0
EXTRACT: note_on channel=6 note=54 velocity=98 time=0
EXTRACT: note_on channel=7 note=47 velocity=104 time=0
EXTRACT: note_on channel=8 note=35 velocity=82 time=0
EXTRACT: note_on channel=9 note=26 velocity=50 time=0
EXTRACT: note_on channel=9 note=32 velocity=50 time=0
EXTRACT: note_on channel=9 note=36 velocity=120 time=0
EXTRACT: note_on channel=9 note=42 velocity=80 time=0
EXTRACT: note_on channel=10 note=52 velocity=120 time=0
EXTRACT: note_on channel=11 note=83 velocity=102 time=0
EXTRACT: note_on channel=11 note=86 velocity=102 time=0
EXTRACT: note_on channel=11 note=90 velocity=102 time=0
EXTRACT: note_on channel=10 note=57 velocity=120 time=0.037162125
EXTRACT: note_on channel=10 note=52 velocity=0 time=0.00675675
EXTRACT: note_on channel=9 note=42 velocity=0 time=0
EXTRACT: note_on channel=9 note=36 velocity=0 time=0
EXTRACT: note_on channel=9 note=32 velocity=0 time=0
EXTRACT: note_on channel=9 note=26 velocity=0 time=0
EXTRACT: note_on channel=10 note=57 velocity=0 time=0.037162125
EXTRACT: note_on channel=0 note=71 velocity=0 time=0.0135135
EXTRACT: note_on channel=7 note=47 velocity=0 time=0.10135124999999999
EXTRACT: note_on channel=0 note=78 velocity=115 time=0.00675675
EXTRACT: note_on channel=7 note=54 velocity=93 time=0
EXTRACT: note_on channel=9 note=26 velocity=30 time=0
EXTRACT: note_on channel=9 note=32 velocity=30 time=0
EXTRACT: note_on channel=9 note=32 velocity=0 time=0.043918874999999996
EXTRACT: note_on channel=9 note=26 velocity=0 time=0
EXTRACT: note_on channel=3 note=66 velocity=0 time=0.0405405
EXTRACT: note_on channel=0 note=78 velocity=0 time=0.010135125
EXTRACT: note_on channel=7 note=54 velocity=0 time=0.10135124999999999
EXTRACT: note_on channel=8 note=35 velocity=0 time=0
EXTRACT: note_on channel=0 note=83 velocity=118 time=0.00675675
EXTRACT: note_on channel=3 note=69 velocity=118 time=0
EXTRACT: note_on channel=7 note=59 velocity=89 time=0
EXTRACT: note_on channel=9 note=26 velocity=50 time=0
EXTRACT: note_on channel=9 note=32 velocity=50 time=0
EXTRACT: note_on channel=9 note=42 velocity=70 time=0
EXTRACT: note_on channel=9 note=42 velocity=0 time=0.043918874999999996
EXTRACT: note_on channel=9 note=32 velocity=0 time=0
EXTRACT: note_on channel=9 note=26 velocity=0 time=0
EXTRACT: note_on channel=0 note=83 velocity=0 time=0.050675624999999995
EXTRACT: note_on channel=7 note=59 velocity=0 time=0.10135124999999999
EXTRACT: note_on channel=0 note=78 velocity=118 time=0.00675675
EXTRACT: note_on channel=7 note=54 velocity=77 time=0
EXTRACT: note_on channel=9 note=26 velocity=30 time=0
EXTRACT: note_on channel=9 note=32 velocity=30 time=0
EXTRACT: note_on channel=9 note=32 velocity=0 time=0.043918874999999996
EXTRACT: note_on channel=9 note=26 velocity=0 time=0
EXTRACT: note_on channel=3 note=69 velocity=0 time=0.030405375
EXTRACT: note_on channel=0 note=78 velocity=0 time=0.02027025
EXTRACT: note_on channel=7 note=54 velocity=0 time=0.10135124999999999
EXTRACT: note_on channel=0 note=83 velocity=113 time=0.00675675
EXTRACT: note_on channel=3 note=66 velocity=121 time=0
EXTRACT: note_on channel=7 note=59 velocity=98 time=0
EXTRACT: note_on channel=9 note=26 velocity=50 time=0
EXTRACT: note_on channel=9 note=32 velocity=50 time=0
EXTRACT: note_on channel=9 note=38 velocity=120 time=0
EXTRACT: note_on channel=9 note=42 velocity=80 time=0
EXTRACT: note_on channel=9 note=42 velocity=0 time=0.043918874999999996
EXTRACT: note_on channel=9 note=38 velocity=0 time=0
EXTRACT: note_on channel=9 note=26 velocity=0 time=0
EXTRACT: note_on channel=9 note=32 velocity=0 time=0
EXTRACT: note_on channel=0 note=83 velocity=0 time=0.050675624999999995
EXTRACT: note_on channel=7 note=59 velocity=0 time=0.10135124999999999
EXTRACT: note_on channel=0 note=78 velocity=113 time=0.00675675
EXTRACT: note_on channel=7 note=54 velocity=98 time=0
EXTRACT: note_on channel=9 note=26 velocity=30 time=0
EXTRACT: note_on channel=9 note=32 velocity=30 time=0
EXTRACT: note_on channel=9 note=32 velocity=0 time=0.043918874999999996
EXTRACT: note_on channel=9 note=26 velocity=0 time=0
EXTRACT: note_on channel=0 note=78 velocity=0 time=0.050675624999999995
EXTRACT: note_on channel=7 note=54 velocity=0 time=0.10135124999999999
EXTRACT: note_on channel=0 note=71 velocity=109 time=0.00675675
EXTRACT: note_on channel=7 note=47 velocity=101 time=0
EXTRACT: note_on channel=9 note=26 velocity=50 time=0
EXTRACT: note_on channel=9 note=32 velocity=50 time=0
EXTRACT: note_on channel=9 note=42 velocity=70 time=0
EXTRACT: note_on channel=9 note=42 velocity=0 time=0.043918874999999996
EXTRACT: note_on channel=9 note=32 velocity=0 time=0
EXTRACT: note_on channel=9 note=26 velocity=0 time=0
EXTRACT: note_on channel=0 note=71 velocity=0 time=0.050675624999999995
EXTRACT: note_on channel=7 note=47 velocity=0 time=0.10135124999999999
EXTRACT: note_on channel=1 note=35 velocity=0 time=0
EXTRACT: note_on channel=0 note=78 velocity=110 time=0.00675675
EXTRACT: note_on channel=1 note=35 velocity=120 time=0
EXTRACT: note_on channel=7 note=54 velocity=95 time=0
EXTRACT: note_on channel=9 note=26 velocity=30 time=0
EXTRACT: note_on channel=9 note=32 velocity=30 time=0
EXTRACT: note_on channel=9 note=36 velocity=120 time=0
EXTRACT: note_on channel=10 note=52 velocity=120 time=0
EXTRACT: note_on channel=10 note=57 velocity=120 time=0.03378375
EXTRACT: note_on channel=10 note=52 velocity=0 time=0.010135125
EXTRACT: note_on channel=9 note=36 velocity=0 time=0
EXTRACT: note_on channel=9 note=26 velocity=0 time=0
EXTRACT: note_on channel=9 note=32 velocity=0 time=0
EXTRACT: note_on channel=10 note=57 velocity=0 time=0.03378375
EXTRACT: note_on channel=0 note=78 velocity=0 time=0.016891875
EXTRACT: note_on channel=7 note=54 velocity=0 time=0.10135124999999999
EXTRACT: note_on channel=0 note=71 velocity=113 time=0.00675675
EXTRACT: note_on channel=7 note=47 velocity=104 time=0
EXTRACT: note_on channel=9 note=26 velocity=50 time=0
EXTRACT: note_on channel=9 note=32 velocity=50 time=0
EXTRACT: note_on channel=9 note=42 velocity=80 time=0
EXTRACT: note_on channel=9 note=42 velocity=0 time=0.043918874999999996
EXTRACT: note_on channel=9 note=32 velocity=0 time=0
EXTRACT: note_on channel=9 note=26 velocity=0 time=0
EXTRACT: note_on channel=0 note=71 velocity=0 time=0.050675624999999995
EXTRACT: note_on channel=3 note=66 velocity=0 time=0.091216125
EXTRACT: note_on channel=7 note=47 velocity=0 time=0.010135125
EXTRACT: note_on channel=1 note=35 velocity=0 time=0
EXTRACT: note_on channel=0 note=78 velocity=114 time=0.00675675
EXTRACT: note_on channel=1 note=35 velocity=120 time=0
EXTRACT: note_on channel=3 note=62 velocity=104 time=0
EXTRACT: note_on channel=7 note=54 velocity=86 time=0
EXTRACT: note_on channel=9 note=26 velocity=30 time=0
EXTRACT: note_on channel=9 note=32 velocity=30 time=0
EXTRACT: note_on channel=9 note=36 velocity=120 time=0
EXTRACT: note_on channel=10 note=52 velocity=120 time=0
EXTRACT: note_on channel=10 note=57 velocity=120 time=0.03378375
EXTRACT: note_on channel=10 note=52 velocity=0 time=0.010135125
EXTRACT: note_on channel=9 note=36 velocity=0 time=0
EXTRACT: note_on channel=9 note=26 velocity=0 time=0
EXTRACT: note_on channel=9 note=32 velocity=0 time=0
EXTRACT: note_on channel=10 note=57 velocity=0 time=0.03378375
EXTRACT: note_on channel=0 note=78 velocity=0 time=0.016891875
EXTRACT: note_on channel=3 note=62 velocity=0 time=0.084459375
EXTRACT: note_on channel=7 note=54 velocity=0 time=0.016891875
EXTRACT: note_on channel=1 note=35 velocity=0 time=0
EXTRACT: note_on channel=0 note=83 velocity=111 time=0.00675675
EXTRACT: note_on channel=1 note=35 velocity=120 time=0
EXTRACT: note_on channel=3 note=62 velocity=118 time=0
EXTRACT: note_on channel=7 note=59 velocity=101 time=0
EXTRACT: note_on channel=9 note=26 velocity=50 time=0
EXTRACT: note_on channel=9 note=32 velocity=50 time=0
EXTRACT: note_on channel=9 note=36 velocity=120 time=0
EXTRACT: note_on channel=9 note=42 velocity=70 time=0
EXTRACT: note_on channel=10 note=52 velocity=120 time=0
EXTRACT: note_on channel=10 note=57 velocity=120 time=0.03378375
EXTRACT: note_on channel=10 note=52 velocity=0 time=0.010135125
EXTRACT: note_on channel=9 note=42 velocity=0 time=0
EXTRACT: note_on channel=9 note=26 velocity=0 time=0
EXTRACT: note_on channel=9 note=36 velocity=0 time=0
EXTRACT: note_on channel=9 note=32 velocity=0 time=0
EXTRACT: note_on channel=10 note=57 velocity=0 time=0.03378375
EXTRACT: note_on channel=0 note=83 velocity=0 time=0.016891875
EXTRACT: note_on channel=7 note=59 velocity=0 time=0.10135124999999999
EXTRACT: note_on channel=0 note=78 velocity=112 time=0.00675675
EXTRACT: note_on channel=7 note=54 velocity=98 time=0
EXTRACT: note_on channel=9 note=26 velocity=30 time=0
EXTRACT: note_on channel=9 note=32 velocity=30 time=0
EXTRACT: note_on channel=9 note=32 velocity=0 time=0.043918874999999996
EXTRACT: note_on channel=9 note=26 velocity=0 time=0
EXTRACT: note_on channel=3 note=62 velocity=0 time=0.0135135
EXTRACT: note_on channel=0 note=78 velocity=0 time=0.037162125
EXTRACT: note_on channel=7 note=54 velocity=0 time=0.10135124999999999
EXTRACT: note_on channel=0 note=83 velocity=113 time=0.00675675
EXTRACT: note_on channel=3 note=62 velocity=112 time=0
EXTRACT: note_on channel=7 note=59 velocity=101 time=0
EXTRACT: note_on channel=9 note=26 velocity=50 time=0
EXTRACT: note_on channel=9 note=32 velocity=50 time=0
EXTRACT: note_on channel=9 note=38 velocity=120 time=0
EXTRACT: note_on channel=9 note=42 velocity=80 time=0
EXTRACT: note_on channel=9 note=42 velocity=0 time=0.043918874999999996
EXTRACT: note_on channel=9 note=38 velocity=0 time=0
EXTRACT: note_on channel=9 note=26 velocity=0 time=0
EXTRACT: note_on channel=9 note=32 velocity=0 time=0
EXTRACT: note_on channel=0 note=83 velocity=0 time=0.050675624999999995
EXTRACT: note_on channel=3 note=62 velocity=0 time=0.043918874999999996
EXTRACT: note_on channel=7 note=59 velocity=0 time=0.057432375
EXTRACT: note_on channel=0 note=78 velocity=115 time=0.00675675
EXTRACT: note_on channel=3 note=62 velocity=98 time=0
EXTRACT: note_on channel=7 note=54 velocity=93 time=0
EXTRACT: note_on channel=9 note=26 velocity=30 time=0
EXTRACT: note_on channel=9 note=32 velocity=30 time=0
EXTRACT: note_on channel=9 note=32 velocity=0 time=0.043918874999999996
EXTRACT: note_on channel=9 note=26 velocity=0 time=0
EXTRACT: note_on channel=3 note=62 velocity=0 time=0.043918874999999996
EXTRACT: note_on channel=0 note=78 velocity=0 time=0.00675675
EXTRACT: note_on channel=7 note=54 velocity=0 time=0.10135124999999999
EXTRACT: note_on channel=0 note=71 velocity=115 time=0.00675675
EXTRACT: note_on channel=3 note=62 velocity=115 time=0
EXTRACT: note_on channel=7 note=47 velocity=90 time=0
EXTRACT: note_on channel=9 note=26 velocity=50 time=0
EXTRACT: note_on channel=9 note=32 velocity=50 time=0
EXTRACT: note_on channel=9 note=42 velocity=70 time=0
EXTRACT: note_on channel=9 note=42 velocity=0 time=0.043918874999999996
EXTRACT: note_on channel=9 note=32 velocity=0 time=0
EXTRACT: note_on channel=9 note=26 velocity=0 time=0
EXTRACT: note_on channel=0 note=71 velocity=0 time=0.050675624999999995
EXTRACT: note_on channel=7 note=47 velocity=0 time=0.10135124999999999
EXTRACT: note_on channel=3 note=62 velocity=0 time=0
EXTRACT: note_on channel=0 note=78 velocity=115 time=0.00675675
EXTRACT: note_on channel=7 note=54 velocity=90 time=0
EXTRACT: note_on channel=9 note=26 velocity=30 time=0
EXTRACT: note_on channel=9 note=32 velocity=30 time=0
EXTRACT: note_on channel=9 note=32 velocity=0 time=0.043918874999999996
EXTRACT: note_on channel=9 note=26 velocity=0 time=0
EXTRACT: note_on channel=0 note=78 velocity=0 time=0.050675624999999995
EXTRACT: note_on channel=1 note=35 velocity=0 time=0.10135124999999999
EXTRACT: note_on channel=5 note=54 velocity=0 time=0
EXTRACT: note_on channel=2 note=62 velocity=0 time=0
EXTRACT: note_on channel=2 note=59 velocity=0 time=0
EXTRACT: note_on channel=2 note=66 velocity=0 time=0
EXTRACT: note_on channel=11 note=90 velocity=0 time=0
EXTRACT: note_on channel=5 note=62 velocity=0 time=0
EXTRACT: note_on channel=6 note=54 velocity=0 time=0
EXTRACT: note_on channel=5 note=59 velocity=0 time=0
EXTRACT: note_on channel=11 note=86 velocity=0 time=0
EXTRACT: note_on channel=11 note=83 velocity=0 time=0
EXTRACT: note_on channel=6 note=47 velocity=0 time=0
EXTRACT: note_on channel=7 note=54 velocity=0 time=0
EXTRACT: note_on channel=5 note=47 velocity=0 time=0
EXTRACT: note_on channel=0 note=67 velocity=112 time=0.00675675
EXTRACT: note_on channel=1 note=31 velocity=118 time=0
EXTRACT: note_on channel=2 note=59 velocity=101 time=0
EXTRACT: note_on channel=2 note=62 velocity=101 time=0
EXTRACT: note_on channel=2 note=67 velocity=101 time=0
EXTRACT: note_on channel=3 note=67 velocity=121 time=0
EXTRACT: note_on channel=4 note=55 velocity=121 time=0
EXTRACT: note_on channel=4 note=59 velocity=121 time=0
EXTRACT: note_on channel=4 note=67 velocity=121 time=0
EXTRACT: note_on channel=5 note=43 velocity=101 time=0
EXTRACT: note_on channel=5 note=55 velocity=101 time=0
EXTRACT: note_on channel=5 note=59 velocity=101 time=0
EXTRACT: note_on channel=5 note=62 velocity=101 time=0
EXTRACT: note_on channel=6 note=43 velocity=99 time=0
EXTRACT: note_on channel=6 note=50 velocity=99 time=0
EXTRACT: note_on channel=7 note=47 velocity=104 time=0
EXTRACT: note_on channel=8 note=31 velocity=81 time=0
EXTRACT: note_on channel=9 note=26 velocity=50 time=0
EXTRACT: note_on channel=9 note=32 velocity=50 time=0
EXTRACT: note_on channel=9 note=36 velocity=120 time=0
EXTRACT: note_on channel=9 note=42 velocity=80 time=0
EXTRACT: note_on channel=10 note=52 velocity=120 time=0
EXTRACT: note_on channel=11 note=83 velocity=101 time=0
EXTRACT: note_on channel=11 note=86 velocity=101 time=0
EXTRACT: note_on channel=11 note=91 velocity=101 time=0
EXTRACT: note_on channel=15 note=55 velocity=1 time=0
EXTRACT: note_on channel=15 note=67 velocity=1 time=0
EXTRACT: note_on channel=15 note=59 velocity=1 time=0
EXTRACT: note_on channel=10 note=57 velocity=120 time=0.03378375
EXTRACT: note_on channel=10 note=52 velocity=0 time=0.010135125
EXTRACT: note_on channel=9 note=42 velocity=0 time=0
EXTRACT: note_on channel=9 note=36 velocity=0 time=0
EXTRACT: note_on channel=9 note=26 velocity=0 time=0
EXTRACT: note_on channel=9 note=32 velocity=0 time=0
EXTRACT: note_on channel=10 note=57 velocity=0 time=0.03378375
EXTRACT: note_on channel=0 note=67 velocity=0 time=0.016891875
EXTRACT: note_on channel=7 note=47 velocity=0 time=0.10135124999999999
EXTRACT: note_on channel=0 note=74 velocity=115 time=0.00675675
EXTRACT: note_on channel=7 note=50 velocity=93 time=0
EXTRACT: note_on channel=9 note=26 velocity=30 time=0
EXTRACT: note_on channel=9 note=32 velocity=30 time=0
EXTRACT: note_on channel=9 note=32 velocity=0 time=0.043918874999999996
EXTRACT: note_on channel=9 note=26 velocity=0 time=0
EXTRACT: note_on channel=0 note=74 velocity=0 time=0.050675624999999995
EXTRACT: note_on channel=7 note=50 velocity=0 time=0.10135124999999999
EXTRACT: note_on channel=8 note=31 velocity=0 time=0
EXTRACT: note_on channel=0 note=79 velocity=118 time=0.00675675
EXTRACT: note_on channel=7 note=59 velocity=89 time=0
EXTRACT: note_on channel=9 note=26 velocity=50 time=0
EXTRACT: note_on channel=9 note=32 velocity=50 time=0
EXTRACT: note_on channel=9 note=42 velocity=70 time=0
EXTRACT: note_on channel=9 note=42 velocity=0 time=0.043918874999999996
EXTRACT: note_on channel=9 note=32 velocity=0 time=0
EXTRACT: note_on channel=9 note=26 velocity=0 time=0
EXTRACT: note_on channel=0 note=79 velocity=0 time=0.050675624999999995
EXTRACT: note_on channel=7 note=59 velocity=0 time=0.10135124999999999
EXTRACT: note_on channel=0 note=74 velocity=118 time=0.00675675
EXTRACT: note_on channel=7 note=50 velocity=77 time=0
EXTRACT: note_on channel=9 note=26 velocity=30 time=0
EXTRACT: note_on channel=9 note=32 velocity=30 time=0
EXTRACT: note_on channel=9 note=32 velocity=0 time=0.043918874999999996
EXTRACT: note_on channel=9 note=26 velocity=0 time=0
EXTRACT: note_on channel=3 note=67 velocity=0 time=0.027027
EXTRACT: note_on channel=4 note=67 velocity=0 time=0
EXTRACT: note_on channel=4 note=59 velocity=0 time=0
EXTRACT: note_on channel=15 note=55 velocity=0 time=0
EXTRACT: note_on channel=4 note=55 velocity=0 time=0
EXTRACT: note_on channel=15 note=59 velocity=0 time=0
EXTRACT: note_on channel=15 note=67 velocity=0 time=0
EXTRACT: note_on channel=0 note=74 velocity=0 time=0.023648625
EXTRACT: note_on channel=7 note=50 velocity=0 time=0.10135124999999999
EXTRACT: note_on channel=0 note=79 velocity=113 time=0.00675675
EXTRACT: note_on channel=3 note=66 velocity=121 time=0
EXTRACT: note_on channel=4 note=54 velocity=121 time=0
EXTRACT: note_on channel=4 note=57 velocity=121 time=0
EXTRACT: note_on channel=4 note=66 velocity=121 time=0
EXTRACT: note_on channel=7 note=59 velocity=98 time=0
EXTRACT: note_on channel=9 note=26 velocity=50 time=0
EXTRACT: note_on channel=9 note=32 velocity=50 time=0
EXTRACT: note_on channel=9 note=38 velocity=120 time=0
EXTRACT: note_on channel=9 note=42 velocity=80 time=0
EXTRACT: note_on channel=15 note=54 velocity=1 time=0
EXTRACT: note_on channel=15 note=57 velocity=1 time=0
EXTRACT: note_on channel=15 note=66 velocity=1 time=0
EXTRACT: note_on channel=9 note=42 velocity=0 time=0.043918874999999996
EXTRACT: note_on channel=9 note=38 velocity=0 time=0
EXTRACT: note_on channel=9 note=32 velocity=0 time=0
EXTRACT: note_on channel=9 note=26 velocity=0 time=0
EXTRACT: note_on channel=0 note=79 velocity=0 time=0.050675624999999995
EXTRACT: note_on channel=7 note=59 velocity=0 time=0.10135124999999999
EXTRACT: note_on channel=0 note=74 velocity=113 time=0.00675675
EXTRACT: note_on channel=7 note=50 velocity=98 time=0
EXTRACT: note_on channel=9 note=26 velocity=30 time=0
EXTRACT: note_on channel=9 note=32 velocity=30 time=0
EXTRACT: note_on channel=9 note=32 velocity=0 time=0.043918874999999996
EXTRACT: note_on channel=9 note=26 velocity=0 time=0
EXTRACT: note_on channel=0 note=74 velocity=0 time=0.050675624999999995
EXTRACT: note_on channel=7 note=50 velocity=0 time=0.10135124999999999
EXTRACT: note_on channel=0 note=67 velocity=109 time=0.00675675
EXTRACT: note_on channel=7 note=47 velocity=78 time=0
EXTRACT: note_on channel=9 note=26 velocity=50 time=0
EXTRACT: note_on channel=9 note=32 velocity=50 time=0
EXTRACT: note_on channel=9 note=36 velocity=120 time=0
EXTRACT: note_on channel=9 note=42 velocity=70 time=0
EXTRACT: note_on channel=9 note=42 velocity=0 time=0.043918874999999996
EXTRACT: note_on channel=9 note=36 velocity=0 time=0
EXTRACT: note_on channel=9 note=32 velocity=0 time=0
EXTRACT: note_on channel=9 note=26 velocity=0 time=0
EXTRACT: note_on channel=0 note=67 velocity=0 time=0.050675624999999995
EXTRACT: note_on channel=7 note=47 velocity=0 time=0.10135124999999999
EXTRACT: note_on channel=1 note=31 velocity=0 time=0
EXTRACT: note_on channel=0 note=74 velocity=110 time=0.00675675
EXTRACT: note_on channel=1 note=31 velocity=118 time=0
EXTRACT: note_on channel=7 note=50 velocity=63 time=0
EXTRACT: note_on channel=9 note=26 velocity=30 time=0
EXTRACT: note_on channel=9 note=32 velocity=30 time=0
EXTRACT: note_on channel=9 note=36 velocity=120 time=0
EXTRACT: note_on channel=10 note=52 velocity=120 time=0
EXTRACT: note_on channel=4 note=54 velocity=0 time=0.00675675
EXTRACT: note_on channel=4 note=66 velocity=0 time=0
EXTRACT: note_on channel=4 note=57 velocity=0 time=0
EXTRACT: note_on channel=15 note=54 velocity=0 time=0
EXTRACT: note_on channel=15 note=66 velocity=0 time=0
EXTRACT: note_on channel=15 note=57 velocity=0 time=0
EXTRACT: note_on channel=3 note=66 velocity=0 time=0
EXTRACT: note_on channel=10 note=57 velocity=120 time=0.027027
EXTRACT: note_on channel=9 note=32 velocity=0 time=0.010135125
EXTRACT: note_on channel=10 note=52 velocity=0 time=0
EXTRACT: note_on channel=9 note=26 velocity=0 time=0
EXTRACT: note_on channel=9 note=36 velocity=0 time=0
EXTRACT: note_on channel=10 note=57 velocity=0 time=0.03378375
EXTRACT: note_on channel=0 note=74 velocity=0 time=0.016891875
EXTRACT: note_on channel=7 note=50 velocity=0 time=0.10135124999999999
EXTRACT: note_on channel=0 note=67 velocity=113 time=0.00675675
EXTRACT: note_on channel=3 note=64 velocity=121 time=0
EXTRACT: note_on channel=4 note=52 velocity=121 time=0
EXTRACT: note_on channel=4 note=55 velocity=121 time=0
EXTRACT: note_on channel=4 note=64 velocity=121 time=0
EXTRACT: note_on channel=7 note=47 velocity=76 time=0
EXTRACT: note_on channel=9 note=26 velocity=50 time=0
EXTRACT: note_on channel=9 note=32 velocity=50 time=0
EXTRACT: note_on channel=9 note=41 velocity=120 time=0
EXTRACT: note_on channel=9 note=42 velocity=80 time=0
EXTRACT: note_on channel=9 note=43 velocity=120 time=0
EXTRACT: note_on channel=15 note=52 velocity=1 time=0
EXTRACT: note_on channel=15 note=55 velocity=1 time=0
EXTRACT: note_on channel=15 note=64 velocity=1 time=0
EXTRACT: note_on channel=9 note=43 velocity=0 time=0.043918874999999996
EXTRACT: note_on channel=9 note=41 velocity=0 time=0
EXTRACT: note_on channel=9 note=32 velocity=0 time=0
EXTRACT: note_on channel=9 note=26 velocity=0 time=0
EXTRACT: note_on channel=9 note=42 velocity=0 time=0
EXTRACT: note_on channel=0 note=67 velocity=0 time=0.050675624999999995
EXTRACT: note_on channel=7 note=47 velocity=0 time=0.10135124999999999
EXTRACT: note_on channel=1 note=31 velocity=0 time=0
EXTRACT: note_on channel=0 note=74 velocity=114 time=0.00675675
EXTRACT: note_on channel=1 note=31 velocity=118 time=0
EXTRACT: note_on channel=7 note=50 velocity=86 time=0
EXTRACT: note_on channel=9 note=26 velocity=30 time=0
EXTRACT: note_on channel=9 note=32 velocity=30 time=0
EXTRACT: note_on channel=9 note=36 velocity=120 time=0
EXTRACT: note_on channel=9 note=38 velocity=120 time=0
EXTRACT: note_on channel=10 note=52 velocity=120 time=0
EXTRACT: note_on channel=10 note=57 velocity=120 time=0.03378375
EXTRACT: note_on channel=10 note=52 velocity=0 time=0.010135125
EXTRACT: note_on channel=9 note=38 velocity=0 time=0
EXTRACT: note_on channel=9 note=36 velocity=0 time=0
EXTRACT: note_on channel=9 note=32 velocity=0 time=0
EXTRACT: note_on channel=9 note=26 velocity=0 time=0
EXTRACT: note_on channel=10 note=57 velocity=0 time=0.03378375
EXTRACT: note_on channel=4 note=64 velocity=0 time=0.0135135
EXTRACT: note_on channel=4 note=52 velocity=0 time=0
EXTRACT: note_on channel=4 note=55 velocity=0 time=0
EXTRACT: note_on channel=15 note=55 velocity=0 time=0
EXTRACT: note_on channel=15 note=52 velocity=0 time=0
EXTRACT: note_on channel=15 note=64 velocity=0 time=0
EXTRACT: note_on channel=3 note=64 velocity=0 time=0
EXTRACT: note_on channel=0 note=74 velocity=0 time=0.003378375
EXTRACT: note_on channel=7 note=50 velocity=0 time=0.10135124999999999
EXTRACT: note_on channel=1 note=31 velocity=0 time=0
EXTRACT: note_on channel=0 note=79 velocity=111 time=0.00675675
EXTRACT: note_on channel=1 note=31 velocity=118 time=0
EXTRACT: note_on channel=3 note=62 velocity=118 time=0
EXTRACT: note_on channel=4 note=50 velocity=118 time=0
EXTRACT: note_on channel=4 note=54 velocity=118 time=0
EXTRACT: note_on channel=4 note=62 velocity=118 time=0
EXTRACT: note_on channel=7 note=55 velocity=88 time=0
EXTRACT: note_on channel=9 note=26 velocity=50 time=0
EXTRACT: note_on channel=9 note=32 velocity=50 time=0
EXTRACT: note_on channel=9 note=36 velocity=120 time=0
EXTRACT: note_on channel=9 note=41 velocity=120 time=0
EXTRACT: note_on channel=9 note=42 velocity=70 time=0
EXTRACT: note_on channel=9 note=43 velocity=120 time=0
EXTRACT: note_on channel=10 note=52 velocity=120 time=0
EXTRACT: note_on channel=15 note=50 velocity=1 time=0
EXTRACT: note_on channel=15 note=54 velocity=1 time=0
EXTRACT: note_on channel=15 note=62 velocity=1 time=0
EXTRACT: note_on channel=10 note=57 velocity=120 time=0.03378375
EXTRACT: note_on channel=10 note=52 velocity=0 time=0.010135125
EXTRACT: note_on channel=9 note=36 velocity=0 time=0
EXTRACT: note_on channel=9 note=32 velocity=0 time=0
EXTRACT: note_on channel=9 note=26 velocity=0 time=0
EXTRACT: note_on channel=9 note=43 velocity=0 time=0
EXTRACT: note_on channel=9 note=42 velocity=0 time=0
EXTRACT: note_on channel=9 note=41 velocity=0 time=0
EXTRACT: note_on channel=10 note=57 velocity=0 time=0.03378375
EXTRACT: note_on channel=0 note=79 velocity=0 time=0.016891875
EXTRACT: note_on channel=7 note=55 velocity=0 time=0.10135124999999999
EXTRACT: note_on channel=0 note=74 velocity=112 time=0.00675675
EXTRACT: note_on channel=7 note=50 velocity=88 time=0
EXTRACT: note_on channel=9 note=26 velocity=30 time=0
EXTRACT: note_on channel=9 note=32 velocity=30 time=0
EXTRACT: note_on channel=9 note=32 velocity=0 time=0.043918874999999996
EXTRACT: note_on channel=9 note=26 velocity=0 time=0
EXTRACT: note_on channel=4 note=62 velocity=0 time=0.010135125
EXTRACT: note_on channel=4 note=50 velocity=0 time=0
EXTRACT: note_on channel=4 note=54 velocity=0 time=0
EXTRACT: note_on channel=3 note=62 velocity=0 time=0
EXTRACT: note_on channel=15 note=50 velocity=0 time=0
EXTRACT: note_on channel=15 note=54 velocity=0 time=0
EXTRACT: note_on channel=15 note=62 velocity=0 time=0
EXTRACT: note_on channel=0 note=74 velocity=0 time=0.0405405
EXTRACT: note_on channel=7 note=50 velocity=0 time=0.10135124999999999
EXTRACT: note_on channel=0 note=79 velocity=113 time=0.00675675
EXTRACT: note_on channel=3 note=62 velocity=121 time=0
EXTRACT: note_on channel=4 note=50 velocity=121 time=0
EXTRACT: note_on channel=4 note=54 velocity=121 time=0
EXTRACT: note_on channel=4 note=62 velocity=121 time=0
EXTRACT: note_on channel=7 note=55 velocity=81 time=0
EXTRACT: note_on channel=9 note=26 velocity=50 time=0
EXTRACT: note_on channel=9 note=32 velocity=50 time=0
EXTRACT: note_on channel=9 note=38 velocity=120 time=0
EXTRACT: note_on channel=9 note=42 velocity=80 time=0
EXTRACT: note_on channel=15 note=62 velocity=1 time=0
EXTRACT: note_on channel=15 note=54 velocity=1 time=0
EXTRACT: note_on channel=15 note=50 velocity=1 time=0
EXTRACT: note_on channel=9 note=42 velocity=0 time=0.043918874999999996
EXTRACT: note_on channel=9 note=38 velocity=0 time=0
EXTRACT: note_on channel=9 note=32 velocity=0 time=0
EXTRACT: note_on channel=9 note=26 velocity=0 time=0
EXTRACT: note_on channel=0 note=79 velocity=0 time=0.050675624999999995
EXTRACT: note_on channel=7 note=55 velocity=0 time=0.10135124999999999
EXTRACT: note_on channel=0 note=74 velocity=115 time=0.00675675
EXTRACT: note_on channel=7 note=50 velocity=73 time=0
EXTRACT: note_on channel=9 note=26 velocity=30 time=0
EXTRACT: note_on channel=9 note=32 velocity=30 time=0
EXTRACT: note_on channel=9 note=32 velocity=0 time=0.043918874999999996
EXTRACT: note_on channel=9 note=26 velocity=0 time=0
EXTRACT: note_on channel=0 note=74 velocity=0 time=0.050675624999999995
EXTRACT: note_on channel=4 note=50 velocity=0 time=0.054054
EXTRACT: note_on channel=4 note=62 velocity=0 time=0
EXTRACT: note_on channel=4 note=54 velocity=0 time=0
EXTRACT: note_on channel=3 note=62 velocity=0 time=0
EXTRACT: note_on channel=15 note=50 velocity=0 time=0
EXTRACT: note_on channel=15 note=54 velocity=0 time=0
EXTRACT: note_on channel=15 note=62 velocity=0 time=0
EXTRACT: note_on channel=7 note=50 velocity=0 time=0.04729725
EXTRACT: note_on channel=0 note=67 velocity=115 time=0.00675675
EXTRACT: note_on channel=3 note=59 velocity=118 time=0
EXTRACT: note_on channel=4 note=47 velocity=118 time=0
EXTRACT: note_on channel=4 note=52 velocity=118 time=0
EXTRACT: note_on channel=4 note=59 velocity=118 time=0
EXTRACT: note_on channel=7 note=55 velocity=73 time=0
EXTRACT: note_on channel=9 note=26 velocity=50 time=0
EXTRACT: note_on channel=9 note=32 velocity=50 time=0
EXTRACT: note_on channel=9 note=36 velocity=114 time=0
EXTRACT: note_on channel=9 note=41 velocity=120 time=0
EXTRACT: note_on channel=9 note=42 velocity=70 time=0
EXTRACT: note_on channel=9 note=43 velocity=120 time=0
EXTRACT: note_on channel=10 note=52 velocity=114 time=0
EXTRACT: note_on channel=15 note=52 velocity=1 time=0
EXTRACT: note_on channel=15 note=59 velocity=1 time=0
EXTRACT: note_on channel=15 note=47 velocity=1 time=0
EXTRACT: note_on channel=10 note=57 velocity=114 time=0.03378375
EXTRACT: note_on channel=10 note=52 velocity=0 time=0.010135125
EXTRACT: note_on channel=9 note=36 velocity=0 time=0
EXTRACT: note_on channel=9 note=32 velocity=0 time=0
EXTRACT: note_on channel=9 note=26 velocity=0 time=0
EXTRACT: note_on channel=9 note=43 velocity=0 time=0
EXTRACT: note_on channel=9 note=42 velocity=0 time=0
EXTRACT: note_on channel=9 note=41 velocity=0 time=0
EXTRACT: note_on channel=10 note=57 velocity=0 time=0.03378375
EXTRACT: note_on channel=0 note=67 velocity=0 time=0.016891875
EXTRACT: note_on channel=7 note=55 velocity=0 time=0.10135124999999999
EXTRACT: note_on channel=0 note=74 velocity=115 time=0.00675675
EXTRACT: note_on channel=7 note=50 velocity=71 time=0
EXTRACT: note_on channel=9 note=26 velocity=30 time=0
EXTRACT: note_on channel=9 note=32 velocity=30 time=0
EXTRACT: note_on channel=9 note=36 velocity=114 time=0
EXTRACT: note_on channel=9 note=38 velocity=120 time=0
EXTRACT: note_on channel=9 note=57 velocity=110 time=0
EXTRACT: note_on channel=10 note=52 velocity=114 time=0
EXTRACT: note_on channel=10 note=57 velocity=114 time=0.03378375
EXTRACT: note_on channel=10 note=52 velocity=0 time=0.010135125
EXTRACT: note_on channel=9 note=57 velocity=0 time=0
EXTRACT: note_on channel=9 note=36 velocity=0 time=0
EXTRACT: note_on channel=9 note=32 velocity=0 time=0
EXTRACT: note_on channel=9 note=26 velocity=0 time=0
EXTRACT: note_on channel=9 note=38 velocity=0 time=0
EXTRACT: note_on channel=10 note=57 velocity=0 time=0.03378375
EXTRACT: note_on channel=0 note=74 velocity=0 time=0.016891875
EXTRACT: note_on channel=5 note=55 velocity=0 time=0.10135124999999999
EXTRACT: note_on channel=5 note=62 velocity=0 time=0
EXTRACT: note_on channel=6 note=43 velocity=0 time=0
EXTRACT: note_on channel=4 note=47 velocity=0 time=0
EXTRACT: note_on channel=11 note=86 velocity=0 time=0
EXTRACT: note_on channel=11 note=91 velocity=0 time=0
EXTRACT: note_on channel=2 note=62 velocity=0 time=0
EXTRACT: note_on channel=15 note=47 velocity=0 time=0
EXTRACT: note_on channel=15 note=52 velocity=0 time=0
EXTRACT: note_on channel=15 note=59 velocity=0 time=0
EXTRACT: note_on channel=1 note=31 velocity=0 time=0
EXTRACT: note_on channel=2 note=67 velocity=0 time=0
EXTRACT: note_on channel=6 note=50 velocity=0 time=0
EXTRACT: note_on channel=4 note=52 velocity=0 time=0
EXTRACT: note_on channel=5 note=59 velocity=0 time=0
EXTRACT: note_on channel=2 note=59 velocity=0 time=0
EXTRACT: note_on channel=5 note=43 velocity=0 time=0
EXTRACT: note_on channel=7 note=50 velocity=0 time=0
EXTRACT: note_on channel=4 note=59 velocity=0 time=0
EXTRACT: note_on channel=3 note=59 velocity=0 time=0
EXTRACT: note_on channel=11 note=83 velocity=0 time=0
EXTRACT: note_on channel=0 note=74 velocity=112 time=0.00675675
EXTRACT: note_on channel=1 note=38 velocity=121 time=0
EXTRACT: note_on channel=2 note=57 velocity=102 time=0
EXTRACT: note_on channel=2 note=62 velocity=102 time=0
EXTRACT: note_on channel=2 note=66 velocity=102 time=0
EXTRACT: note_on channel=3 note=57 velocity=106 time=0
EXTRACT: note_on channel=4 note=45 velocity=118 time=0
EXTRACT: note_on channel=4 note=50 velocity=118 time=0
EXTRACT: note_on channel=4 note=57 velocity=118 time=0
EXTRACT: note_on channel=5 note=50 velocity=100 time=0
EXTRACT: note_on channel=5 note=54 velocity=100 time=0
EXTRACT: note_on channel=5 note=57 velocity=100 time=0
EXTRACT: note_on channel=5 note=62 velocity=100 time=0
EXTRACT: note_on channel=6 note=45 velocity=99 time=0
EXTRACT: note_on channel=6 note=50 velocity=99 time=0
EXTRACT: note_on channel=7 note=50 velocity=104 time=0
EXTRACT: note_on channel=8 note=38 velocity=79 time=0
EXTRACT: note_on channel=9 note=26 velocity=50 time=0
EXTRACT: note_on channel=9 note=32 velocity=50 time=0
EXTRACT: note_on channel=9 note=36 velocity=120 time=0
EXTRACT: note_on channel=9 note=42 velocity=80 time=0
EXTRACT: note_on channel=10 note=52 velocity=120 time=0
EXTRACT: note_on channel=11 note=81 velocity=102 time=0
EXTRACT: note_on channel=11 note=86 velocity=102 time=0
EXTRACT: note_on channel=11 note=90 velocity=102 time=0
EXTRACT: note_on channel=15 note=45 velocity=1 time=0
EXTRACT: note_on channel=15 note=50 velocity=1 time=0
EXTRACT: note_on channel=15 note=57 velocity=1 time=0
EXTRACT: note_on channel=10 note=57 velocity=120 time=0.037162125
EXTRACT: note_on channel=10 note=52 velocity=0 time=0.00675675
EXTRACT: note_on channel=9 note=42 velocity=0 time=0
EXTRACT: note_on channel=9 note=36 velocity=0 time=0
EXTRACT: note_on channel=9 note=26 velocity=0 time=0
EXTRACT: note_on channel=9 note=32 velocity=0 time=0
EXTRACT: note_on channel=10 note=57 velocity=0 time=0.037162125
EXTRACT: note_on channel=0 note=74 velocity=0 time=0.0135135
EXTRACT: note_on channel=7 note=50 velocity=0 time=0.10135124999999999
EXTRACT: note_on channel=0 note=78 velocity=115 time=0.00675675
EXTRACT: note_on channel=7 note=54 velocity=93 time=0
EXTRACT: note_on channel=9 note=26 velocity=30 time=0
EXTRACT: note_on channel=9 note=32 velocity=30 time=0
EXTRACT: note_on channel=9 note=32 velocity=0 time=0.043918874999999996
EXTRACT: note_on channel=9 note=26 velocity=0 time=0
EXTRACT: note_on channel=3 note=57 velocity=0 time=0.050675624999999995
EXTRACT: note_on channel=0 note=78 velocity=0 time=0
EXTRACT: note_on channel=4 note=50 velocity=0 time=0.10135124999999999
EXTRACT: note_on channel=8 note=38 velocity=0 time=0
EXTRACT: note_on channel=7 note=54 velocity=0 time=0
EXTRACT: note_on channel=4 note=57 velocity=0 time=0
EXTRACT: note_on channel=4 note=45 velocity=0 time=0
EXTRACT: note_on channel=15 note=45 velocity=0 time=0
EXTRACT: note_on channel=15 note=50 velocity=0 time=0
EXTRACT: note_on channel=15 note=57 velocity=0 time=0
EXTRACT: note_on channel=0 note=81 velocity=118 time=0.00675675
EXTRACT: note_on channel=3 note=69 velocity=118 time=0
EXTRACT: note_on channel=7 note=57 velocity=89 time=0
EXTRACT: note_on channel=9 note=26 velocity=50 time=0
EXTRACT: note_on channel=9 note=32 velocity=50 time=0
EXTRACT: note_on channel=9 note=42 velocity=70 time=0
EXTRACT: note_on channel=9 note=42 velocity=0 time=0.043918874999999996
EXTRACT: note_on channel=9 note=32 velocity=0 time=0
EXTRACT: note_on channel=9 note=26 velocity=0 time=0
EXTRACT: note_on channel=0 note=81 velocity=0 time=0.050675624999999995
EXTRACT: note_on channel=7 note=57 velocity=0 time=0.10135124999999999
EXTRACT: note_on channel=0 note=78 velocity=118 time=0.00675675
EXTRACT: note_on channel=7 note=54 velocity=77 time=0
EXTRACT: note_on channel=9 note=26 velocity=30 time=0
EXTRACT: note_on channel=9 note=32 velocity=30 time=0
EXTRACT: note_on channel=3 note=69 velocity=0 time=0.010135125
EXTRACT: note_on channel=9 note=32 velocity=0 time=0.03378375
EXTRACT: note_on channel=9 note=26 velocity=0 time=0
EXTRACT: note_on channel=0 note=78 velocity=0 time=0.050675624999999995
EXTRACT: note_on channel=7 note=54 velocity=0 time=0.10135124999999999
EXTRACT: note_on channel=0 note=81 velocity=113 time=0.00675675
EXTRACT: note_on channel=3 note=66 velocity=112 time=0
EXTRACT: note_on channel=7 note=57 velocity=98 time=0
EXTRACT: note_on channel=9 note=26 velocity=50 time=0
EXTRACT: note_on channel=9 note=32 velocity=50 time=0
EXTRACT: note_on channel=9 note=38 velocity=120 time=0
EXTRACT: note_on channel=9 note=42 velocity=80 time=0
EXTRACT: note_on channel=9 note=42 velocity=0 time=0.043918874999999996
EXTRACT: note_on channel=9 note=38 velocity=0 time=0
EXTRACT: note_on channel=9 note=26 velocity=0 time=0
EXTRACT: note_on channel=9 note=32 velocity=0 time=0
EXTRACT: note_on channel=0 note=81 velocity=0 time=0.050675624999999995
EXTRACT: note_on channel=7 note=57 velocity=0 time=0.10135124999999999
EXTRACT: note_on channel=0 note=78 velocity=113 time=0.00675675
EXTRACT: note_on channel=7 note=54 velocity=98 time=0
EXTRACT: note_on channel=9 note=26 velocity=30 time=0
EXTRACT: note_on channel=9 note=32 velocity=30 time=0
EXTRACT: note_on channel=9 note=32 velocity=0 time=0.043918874999999996
EXTRACT: note_on channel=9 note=26 velocity=0 time=0
EXTRACT: note_on channel=0 note=78 velocity=0 time=0.050675624999999995
EXTRACT: note_on channel=7 note=54 velocity=0 time=0.10135124999999999
EXTRACT: note_on channel=0 note=74 velocity=109 time=0.00675675
EXTRACT: note_on channel=7 note=50 velocity=101 time=0
EXTRACT: note_on channel=9 note=26 velocity=50 time=0
EXTRACT: note_on channel=9 note=32 velocity=50 time=0
EXTRACT: note_on channel=9 note=42 velocity=70 time=0
EXTRACT: note_on channel=9 note=42 velocity=0 time=0.043918874999999996
EXTRACT: note_on channel=9 note=32 velocity=0 time=0
EXTRACT: note_on channel=9 note=26 velocity=0 time=0
EXTRACT: note_on channel=0 note=74 velocity=0 time=0.050675624999999995
EXTRACT: note_on channel=7 note=50 velocity=0 time=0.10135124999999999
EXTRACT: note_on channel=1 note=38 velocity=0 time=0
EXTRACT: note_on channel=0 note=78 velocity=110 time=0.00675675
EXTRACT: note_on channel=1 note=38 velocity=121 time=0
EXTRACT: note_on channel=7 note=54 velocity=95 time=0
EXTRACT: note_on channel=9 note=26 velocity=30 time=0
EXTRACT: note_on channel=9 note=32 velocity=30 time=0
EXTRACT: note_on channel=9 note=36 velocity=120 time=0
EXTRACT: note_on channel=10 note=52 velocity=120 time=0
EXTRACT: note_on channel=10 note=57 velocity=120 time=0.03378375
EXTRACT: note_on channel=10 note=52 velocity=0 time=0.010135125
EXTRACT: note_on channel=9 note=36 velocity=0 time=0
EXTRACT: note_on channel=9 note=26 velocity=0 time=0
EXTRACT: note_on channel=9 note=32 velocity=0 time=0
EXTRACT: note_on channel=10 note=57 velocity=0 time=0.03378375
EXTRACT: note_on channel=0 note=78 velocity=0 time=0.016891875
EXTRACT: note_on channel=3 note=66 velocity=0 time=0.037162125
EXTRACT: note_on channel=7 note=54 velocity=0 time=0.064189125
EXTRACT: note_on channel=0 note=74 velocity=113 time=0.00675675
EXTRACT: note_on channel=7 note=50 velocity=104 time=0
EXTRACT: note_on channel=9 note=26 velocity=50 time=0
EXTRACT: note_on channel=9 note=32 velocity=50 time=0
EXTRACT: note_on channel=9 note=42 velocity=80 time=0
EXTRACT: note_on channel=9 note=42 velocity=0 time=0.043918874999999996
EXTRACT: note_on channel=9 note=32 velocity=0 time=0
EXTRACT: note_on channel=9 note=26 velocity=0 time=0
EXTRACT: note_on channel=0 note=74 velocity=0 time=0.050675624999999995
EXTRACT: note_on channel=7 note=50 velocity=0 time=0.10135124999999999
EXTRACT: note_on channel=1 note=38 velocity=0 time=0
EXTRACT: note_on channel=0 note=78 velocity=114 time=0.00675675
EXTRACT: note_on channel=1 note=38 velocity=121 time=0
EXTRACT: note_on channel=7 note=54 velocity=86 time=0
EXTRACT: note_on channel=9 note=26 velocity=30 time=0
EXTRACT: note_on channel=9 note=32 velocity=30 time=0
EXTRACT: note_on channel=9 note=36 velocity=120 time=0
EXTRACT: note_on channel=10 note=52 velocity=120 time=0
EXTRACT: note_on channel=10 note=57 velocity=120 time=0.03378375
EXTRACT: note_on channel=10 note=52 velocity=0 time=0.010135125
EXTRACT: note_on channel=9 note=36 velocity=0 time=0
EXTRACT: note_on channel=9 note=32 velocity=0 time=0
EXTRACT: note_on channel=9 note=26 velocity=0 time=0
EXTRACT: note_on channel=10 note=57 velocity=0 time=0.03378375
EXTRACT: note_on channel=0 note=78 velocity=0 time=0.016891875
EXTRACT: note_on channel=7 note=54 velocity=0 time=0.10135124999999999
EXTRACT: note_on channel=1 note=38 velocity=0 time=0
EXTRACT: note_on channel=0 note=81 velocity=111 time=0.00675675
EXTRACT: note_on channel=1 note=38 velocity=121 time=0
EXTRACT: note_on channel=7 note=57 velocity=101 time=0
EXTRACT: note_on channel=9 note=26 velocity=50 time=0
EXTRACT: note_on channel=9 note=32 velocity=50 time=0
EXTRACT: note_on channel=9 note=36 velocity=120 time=0
EXTRACT: note_on channel=9 note=42 velocity=70 time=0
EXTRACT: note_on channel=10 note=52 velocity=120 time=0
EXTRACT: note_on channel=10 note=57 velocity=120 time=0.03378375
EXTRACT: note_on channel=10 note=52 velocity=0 time=0.010135125
EXTRACT: note_on channel=9 note=42 velocity=0 time=0
EXTRACT: note_on channel=9 note=32 velocity=0 time=0
EXTRACT: note_on channel=9 note=26 velocity=0 time=0
EXTRACT: note_on channel=9 note=36 velocity=0 time=0
EXTRACT: note_on channel=10 note=57 velocity=0 time=0.03378375
EXTRACT: note_on channel=0 note=81 velocity=0 time=0.016891875
EXTRACT: note_on channel=7 note=57 velocity=0 time=0.10135124999999999
EXTRACT: note_on channel=0 note=78 velocity=112 time=0.00675675
EXTRACT: note_on channel=3 note=62 velocity=109 time=0
EXTRACT: note_on channel=7 note=54 velocity=98 time=0
EXTRACT: note_on channel=9 note=26 velocity=30 time=0
EXTRACT: note_on channel=9 note=32 velocity=30 time=0
EXTRACT: note_on channel=9 note=32 velocity=0 time=0.043918874999999996
EXTRACT: note_on channel=9 note=26 velocity=0 time=0
EXTRACT: note_on channel=3 note=62 velocity=0 time=0.043918874999999996
EXTRACT: note_on channel=0 note=78 velocity=0 time=0.00675675
EXTRACT: note_on channel=7 note=54 velocity=0 time=0.10135124999999999
EXTRACT: note_on channel=0 note=81 velocity=113 time=0.00675675
EXTRACT: note_on channel=3 note=62 velocity=112 time=0
EXTRACT: note_on channel=7 note=57 velocity=101 time=0
EXTRACT: note_on channel=9 note=26 velocity=50 time=0
EXTRACT: note_on channel=9 note=32 velocity=50 time=0
EXTRACT: note_on channel=9 note=38 velocity=120 time=0
EXTRACT: note_on channel=9 note=42 velocity=80 time=0
EXTRACT: note_on channel=9 note=42 velocity=0 time=0.043918874999999996
EXTRACT: note_on channel=9 note=38 velocity=0 time=0
EXTRACT: note_on channel=9 note=26 velocity=0 time=0
EXTRACT: note_on channel=9 note=32 velocity=0 time=0
EXTRACT: note_on channel=0 note=81 velocity=0 time=0.050675624999999995
EXTRACT: note_on channel=3 note=62 velocity=0 time=0.030405375
EXTRACT: note_on channel=7 note=57 velocity=0 time=0.07094587499999999
EXTRACT: note_on channel=0 note=78 velocity=115 time=0.00675675
EXTRACT: note_on channel=3 note=62 velocity=106 time=0
EXTRACT: note_on channel=7 note=54 velocity=93 time=0
EXTRACT: note_on channel=9 note=26 velocity=30 time=0
EXTRACT: note_on channel=9 note=32 velocity=30 time=0
EXTRACT: note_on channel=9 note=32 velocity=0 time=0.043918874999999996
EXTRACT: note_on channel=9 note=26 velocity=0 time=0
EXTRACT: note_on channel=0 note=78 velocity=0 time=0.050675624999999995
EXTRACT: note_on channel=3 note=62 velocity=0 time=0.003378375
EXTRACT: note_on channel=7 note=54 velocity=0 time=0.097972875
EXTRACT: note_on channel=0 note=74 velocity=115 time=0.00675675
EXTRACT: note_on channel=3 note=62 velocity=104 time=0
EXTRACT: note_on channel=7 note=50 velocity=90 time=0
EXTRACT: note_on channel=9 note=26 velocity=50 time=0
EXTRACT: note_on channel=9 note=32 velocity=50 time=0
EXTRACT: note_on channel=9 note=42 velocity=70 time=0
EXTRACT: note_on channel=9 note=42 velocity=0 time=0.043918874999999996
EXTRACT: note_on channel=9 note=32 velocity=0 time=0
EXTRACT: note_on channel=9 note=26 velocity=0 time=0
EXTRACT: note_on channel=3 note=62 velocity=0 time=0.050675624999999995
EXTRACT: note_on channel=0 note=74 velocity=0 time=0
EXTRACT: note_on channel=7 note=50 velocity=0 time=0.10135124999999999
EXTRACT: note_on channel=0 note=78 velocity=115 time=0.00675675
EXTRACT: note_on channel=3 note=62 velocity=106 time=0
EXTRACT: note_on channel=7 note=54 velocity=90 time=0
EXTRACT: note_on channel=9 note=26 velocity=30 time=0
EXTRACT: note_on channel=9 note=32 velocity=30 time=0
EXTRACT: note_on channel=9 note=32 velocity=0 time=0.043918874999999996
EXTRACT: note_on channel=9 note=26 velocity=0 time=0
EXTRACT: note_on channel=0 note=78 velocity=0 time=0.050675624999999995
EXTRACT: note_on channel=3 note=62 velocity=0 time=0.04729725
EXTRACT: note_on channel=5 note=62 velocity=0 time=0.054054
EXTRACT: note_on channel=1 note=38 velocity=0 time=0
EXTRACT: note_on channel=6 note=50 velocity=0 time=0
EXTRACT: note_on channel=11 note=86 velocity=0 time=0
EXTRACT: note_on channel=5 note=54 velocity=0 time=0
EXTRACT: note_on channel=2 note=66 velocity=0 time=0
EXTRACT: note_on channel=7 note=54 velocity=0 time=0
EXTRACT: note_on channel=2 note=57 velocity=0 time=0
EXTRACT: note_on channel=5 note=50 velocity=0 time=0
EXTRACT: note_on channel=2 note=62 velocity=0 time=0
EXTRACT: note_on channel=6 note=45 velocity=0 time=0
EXTRACT: note_on channel=11 note=90 velocity=0 time=0
EXTRACT: note_on channel=11 note=81 velocity=0 time=0
EXTRACT: note_on channel=5 note=57 velocity=0 time=0
EXTRACT: note_on channel=0 note=73 velocity=112 time=0.00675675
EXTRACT: note_on channel=1 note=37 velocity=120 time=0
EXTRACT: note_on channel=2 note=57 velocity=100 time=0
EXTRACT: note_on channel=2 note=61 velocity=100 time=0
EXTRACT: note_on channel=2 note=66 velocity=100 time=0
EXTRACT: note_on channel=3 note=66 velocity=118 time=0
EXTRACT: note_on channel=5 note=49 velocity=99 time=0
EXTRACT: note_on channel=5 note=54 velocity=99 time=0
EXTRACT: note_on channel=5 note=57 velocity=99 time=0
EXTRACT: note_on channel=5 note=61 velocity=99 time=0
EXTRACT: note_on channel=6 note=42 velocity=101 time=0
EXTRACT: note_on channel=6 note=49 velocity=101 time=0
EXTRACT: note_on channel=7 note=49 velocity=104 time=0
EXTRACT: note_on channel=8 note=37 velocity=79 time=0
EXTRACT: note_on channel=9 note=26 velocity=50 time=0
EXTRACT: note_on channel=9 note=32 velocity=50 time=0
EXTRACT: note_on channel=9 note=36 velocity=120 time=0
EXTRACT: note_on channel=9 note=42 velocity=80 time=0
EXTRACT: note_on channel=10 note=52 velocity=120 time=0
EXTRACT: note_on channel=11 note=81 velocity=100 time=0
EXTRACT: note_on channel=11 note=85 velocity=100 time=0
EXTRACT: note_on channel=11 note=90 velocity=100 time=0
EXTRACT: note_on channel=10 note=57 velocity=120 time=0.03378375
EXTRACT: note_on channel=10 note=52 velocity=0 time=0.010135125
EXTRACT: note_on channel=9 note=42 velocity=0 time=0
EXTRACT: note_on channel=9 note=36 velocity=0 time=0
EXTRACT: note_on channel=9 note=32 velocity=0 time=0
EXTRACT: note_on channel=9 note=26 velocity=0 time=0
EXTRACT: note_on channel=10 note=57 velocity=0 time=0.03378375
EXTRACT: note_on channel=0 note=73 velocity=0 time=0.016891875
EXTRACT: note_on channel=7 note=49 velocity=0 time=0.10135124999999999
EXTRACT: note_on channel=0 note=78 velocity=115 time=0.00675675
EXTRACT: note_on channel=7 note=54 velocity=93 time=0
EXTRACT: note_on channel=9 note=26 velocity=30 time=0
EXTRACT: note_on channel=9 note=32 velocity=30 time=0
EXTRACT: note_on channel=9 note=32 velocity=0 time=0.043918874999999996
EXTRACT: note_on channel=9 note=26 velocity=0 time=0
EXTRACT: note_on channel=0 note=78 velocity=0 time=0.050675624999999995
EXTRACT: note_on channel=3 note=66 velocity=0 time=0.0135135
EXTRACT: note_on channel=7 note=54 velocity=0 time=0.08783774999999999
EXTRACT: note_on channel=8 note=37 velocity=0 time=0
EXTRACT: note_on channel=0 note=81 velocity=118 time=0.00675675
EXTRACT: note_on channel=3 note=69 velocity=118 time=0
EXTRACT: note_on channel=7 note=57 velocity=89 time=0
EXTRACT: note_on channel=9 note=26 velocity=50 time=0
EXTRACT: note_on channel=9 note=32 velocity=50 time=0
EXTRACT: note_on channel=9 note=42 velocity=70 time=0
EXTRACT: note_on channel=9 note=42 velocity=0 time=0.043918874999999996
EXTRACT: note_on channel=9 note=32 velocity=0 time=0
EXTRACT: note_on channel=9 note=26 velocity=0 time=0
EXTRACT: note_on channel=0 note=81 velocity=0 time=0.050675624999999995
EXTRACT: note_on channel=7 note=57 velocity=0 time=0.10135124999999999
EXTRACT: note_on channel=3 note=69 velocity=0 time=0.003378375
EXTRACT: note_on channel=0 note=78 velocity=118 time=0.003378375
EXTRACT: note_on channel=7 note=54 velocity=77 time=0
EXTRACT: note_on channel=9 note=26 velocity=30 time=0
EXTRACT: note_on channel=9 note=32 velocity=30 time=0
EXTRACT: note_on channel=9 note=32 velocity=0 time=0.043918874999999996
EXTRACT: note_on channel=9 note=26 velocity=0 time=0
EXTRACT: note_on channel=0 note=78 velocity=0 time=0.050675624999999995
EXTRACT: note_on channel=7 note=54 velocity=0 time=0.10135124999999999
EXTRACT: note_on channel=0 note=81 velocity=113 time=0.00675675
EXTRACT: note_on channel=3 note=66 velocity=115 time=0
EXTRACT: note_on channel=7 note=57 velocity=98 time=0
EXTRACT: note_on channel=9 note=26 velocity=50 time=0
EXTRACT: note_on channel=9 note=32 velocity=50 time=0
EXTRACT: note_on channel=9 note=38 velocity=120 time=0
EXTRACT: note_on channel=9 note=42 velocity=80 time=0
EXTRACT: note_on channel=9 note=42 velocity=0 time=0.043918874999999996
EXTRACT: note_on channel=9 note=38 velocity=0 time=0
EXTRACT: note_on channel=9 note=26 velocity=0 time=0
EXTRACT: note_on channel=9 note=32 velocity=0 time=0
EXTRACT: note_on channel=0 note=81 velocity=0 time=0.050675624999999995
EXTRACT: note_on channel=7 note=57 velocity=0 time=0.10135124999999999
EXTRACT: note_on channel=0 note=78 velocity=113 time=0.00675675
EXTRACT: note_on channel=7 note=54 velocity=98 time=0
EXTRACT: note_on channel=9 note=26 velocity=30 time=0
EXTRACT: note_on channel=9 note=32 velocity=30 time=0
EXTRACT: note_on channel=9 note=32 velocity=0 time=0.043918874999999996
EXTRACT: note_on channel=9 note=26 velocity=0 time=0
EXTRACT: note_on channel=0 note=78 velocity=0 time=0.050675624999999995
EXTRACT: note_on channel=7 note=54 velocity=0 time=0.10135124999999999
EXTRACT: note_on channel=0 note=73 velocity=109 time=0.00675675
EXTRACT: note_on channel=7 note=49 velocity=101 time=0
EXTRACT: note_on channel=9 note=26 velocity=50 time=0
EXTRACT: note_on channel=9 note=32 velocity=50 time=0
EXTRACT: note_on channel=9 note=42 velocity=70 time=0
EXTRACT: note_on channel=9 note=42 velocity=0 time=0.043918874999999996
EXTRACT: note_on channel=9 note=32 velocity=0 time=0
EXTRACT: note_on channel=9 note=26 velocity=0 time=0
EXTRACT: note_on channel=0 note=73 velocity=0 time=0.050675624999999995
EXTRACT: note_on channel=7 note=49 velocity=0 time=0.10135124999999999
EXTRACT: note_on channel=1 note=37 velocity=0 time=0
EXTRACT: note_on channel=0 note=78 velocity=110 time=0.00675675
EXTRACT: note_on channel=1 note=37 velocity=120 time=0
EXTRACT: note_on channel=7 note=54 velocity=95 time=0
EXTRACT: note_on channel=9 note=26 velocity=30 time=0
EXTRACT: note_on channel=9 note=32 velocity=30 time=0
EXTRACT: note_on channel=9 note=36 velocity=120 time=0
EXTRACT: note_on channel=10 note=52 velocity=120 time=0
EXTRACT: note_on channel=10 note=57 velocity=120 time=0.03378375
EXTRACT: note_on channel=10 note=52 velocity=0 time=0.010135125
EXTRACT: note_on channel=9 note=36 velocity=0 time=0
EXTRACT: note_on channel=9 note=26 velocity=0 time=0
EXTRACT: note_on channel=9 note=32 velocity=0 time=0
EXTRACT: note_on channel=10 note=57 velocity=0 time=0.03378375
EXTRACT: note_on channel=0 note=78 velocity=0 time=0.016891875
EXTRACT: note_on channel=7 note=54 velocity=0 time=0.10135124999999999
EXTRACT: note_on channel=3 note=66 velocity=0 time=0
EXTRACT: note_on channel=0 note=73 velocity=113 time=0.00675675
EXTRACT: note_on channel=7 note=49 velocity=104 time=0
EXTRACT: note_on channel=9 note=26 velocity=50 time=0
EXTRACT: note_on channel=9 note=32 velocity=50 time=0
EXTRACT: note_on channel=9 note=42 velocity=80 time=0
EXTRACT: note_on channel=9 note=42 velocity=0 time=0.043918874999999996
EXTRACT: note_on channel=9 note=32 velocity=0 time=0
EXTRACT: note_on channel=9 note=26 velocity=0 time=0
EXTRACT: note_on channel=0 note=73 velocity=0 time=0.050675624999999995
EXTRACT: note_on channel=7 note=49 velocity=0 time=0.10135124999999999
EXTRACT: note_on channel=1 note=37 velocity=0 time=0
EXTRACT: note_on channel=0 note=78 velocity=114 time=0.00675675
EXTRACT: note_on channel=1 note=37 velocity=120 time=0
EXTRACT: note_on channel=3 note=62 velocity=121 time=0
EXTRACT: note_on channel=7 note=54 velocity=86 time=0
EXTRACT: note_on channel=9 note=26 velocity=30 time=0
EXTRACT: note_on channel=9 note=32 velocity=30 time=0
EXTRACT: note_on channel=9 note=36 velocity=120 time=0
EXTRACT: note_on channel=10 note=52 velocity=120 time=0
EXTRACT: note_on channel=10 note=57 velocity=120 time=0.03378375
EXTRACT: note_on channel=10 note=52 velocity=0 time=0.010135125
EXTRACT: note_on channel=9 note=36 velocity=0 time=0
EXTRACT: note_on channel=9 note=26 velocity=0 time=0
EXTRACT: note_on channel=9 note=32 velocity=0 time=0
EXTRACT: note_on channel=10 note=57 velocity=0 time=0.03378375
EXTRACT: note_on channel=3 note=62 velocity=0 time=0.00675675
EXTRACT: note_on channel=0 note=78 velocity=0 time=0.010135125
EXTRACT: note_on channel=7 note=54 velocity=0 time=0.10135124999999999
EXTRACT: note_on channel=1 note=37 velocity=0 time=0
EXTRACT: note_on channel=0 note=81 velocity=111 time=0.00675675
EXTRACT: note_on channel=1 note=37 velocity=120 time=0
EXTRACT: note_on channel=3 note=62 velocity=106 time=0
EXTRACT: note_on channel=7 note=57 velocity=101 time=0
EXTRACT: note_on channel=9 note=26 velocity=50 time=0
EXTRACT: note_on channel=9 note=32 velocity=50 time=0
EXTRACT: note_on channel=9 note=36 velocity=120 time=0
EXTRACT: note_on channel=9 note=42 velocity=70 time=0
EXTRACT: note_on channel=10 note=52 velocity=120 time=0
EXTRACT: note_on channel=10 note=57 velocity=120 time=0.03378375
EXTRACT: note_on channel=10 note=52 velocity=0 time=0.010135125
EXTRACT: note_on channel=9 note=42 velocity=0 time=0
EXTRACT: note_on channel=9 note=26 velocity=0 time=0
EXTRACT: note_on channel=9 note=36 velocity=0 time=0
EXTRACT: note_on channel=9 note=32 velocity=0 time=0
EXTRACT: note_on channel=10 note=57 velocity=0 time=0.03378375
EXTRACT: note_on channel=0 note=81 velocity=0 time=0.016891875
EXTRACT: note_on channel=3 note=62 velocity=0 time=0.027027
EXTRACT: note_on channel=7 note=57 velocity=0 time=0.07432425
EXTRACT: note_on channel=0 note=78 velocity=112 time=0.00675675
EXTRACT: note_on channel=3 note=62 velocity=101 time=0
EXTRACT: note_on channel=7 note=54 velocity=98 time=0
EXTRACT: note_on channel=9 note=26 velocity=30 time=0
EXTRACT: note_on channel=9 note=32 velocity=30 time=0
EXTRACT: note_on channel=9 note=32 velocity=0 time=0.043918874999999996
EXTRACT: note_on channel=9 note=26 velocity=0 time=0
EXTRACT: note_on channel=3 note=62 velocity=0 time=0.050675624999999995
EXTRACT: note_on channel=0 note=78 velocity=0 time=0
EXTRACT: note_on channel=7 note=54 velocity=0 time=0.10135124999999999
EXTRACT: note_on channel=0 note=81 velocity=113 time=0.00675675
EXTRACT: note_on channel=3 note=62 velocity=112 time=0
EXTRACT: note_on channel=7 note=57 velocity=101 time=0
EXTRACT: note_on channel=9 note=26 velocity=50 time=0
EXTRACT: note_on channel=9 note=32 velocity=50 time=0
EXTRACT: note_on channel=9 note=38 velocity=120 time=0
EXTRACT: note_on channel=9 note=42 velocity=80 time=0
EXTRACT: note_on channel=9 note=42 velocity=0 time=0.043918874999999996
EXTRACT: note_on channel=9 note=38 velocity=0 time=0
EXTRACT: note_on channel=9 note=26 velocity=0 time=0
EXTRACT: note_on channel=9 note=32 velocity=0 time=0
EXTRACT: note_on channel=0 note=81 velocity=0 time=0.050675624999999995
EXTRACT: note_on channel=3 note=62 velocity=0 time=0.03378375
EXTRACT: note_on channel=7 note=57 velocity=0 time=0.0675675
EXTRACT: note_on channel=0 note=78 velocity=115 time=0.00675675
EXTRACT: note_on channel=3 note=62 velocity=85 time=0
EXTRACT: note_on channel=7 note=54 velocity=93 time=0
EXTRACT: note_on channel=9 note=26 velocity=30 time=0
EXTRACT: note_on channel=9 note=32 velocity=30 time=0
EXTRACT: note_on channel=9 note=32 velocity=0 time=0.043918874999999996
EXTRACT: note_on channel=9 note=26 velocity=0 time=0
EXTRACT: note_on channel=3 note=62 velocity=0 time=0.050675624999999995
EXTRACT: note_on channel=0 note=78 velocity=0 time=0
EXTRACT: note_on channel=7 note=54 velocity=0 time=0.10135124999999999
EXTRACT: note_on channel=0 note=73 velocity=115 time=0.00675675
EXTRACT: note_on channel=3 note=62 velocity=98 time=0
EXTRACT: note_on channel=7 note=49 velocity=90 time=0
EXTRACT: note_on channel=9 note=26 velocity=50 time=0
EXTRACT: note_on channel=9 note=32 velocity=50 time=0
EXTRACT: note_on channel=9 note=36 velocity=114 time=0
EXTRACT: note_on channel=9 note=42 velocity=70 time=0
EXTRACT: note_on channel=10 note=52 velocity=114 time=0
EXTRACT: note_on channel=10 note=57 velocity=114 time=0.03378375
EXTRACT: note_on channel=10 note=52 velocity=0 time=0.010135125
EXTRACT: note_on channel=9 note=42 velocity=0 time=0
EXTRACT: note_on channel=9 note=26 velocity=0 time=0
EXTRACT: note_on channel=9 note=36 velocity=0 time=0
EXTRACT: note_on channel=9 note=32 velocity=0 time=0
EXTRACT: note_on channel=10 note=57 velocity=0 time=0.03378375
EXTRACT: note_on channel=0 note=73 velocity=0 time=0.016891875
EXTRACT: note_on channel=3 note=62 velocity=0 time=0.010135125
EXTRACT: note_on channel=7 note=49 velocity=0 time=0.091216125
EXTRACT: note_on channel=0 note=78 velocity=115 time=0.00675675
EXTRACT: note_on channel=3 note=62 velocity=104 time=0
EXTRACT: note_on channel=7 note=54 velocity=90 time=0
EXTRACT: note_on channel=9 note=26 velocity=30 time=0
EXTRACT: note_on channel=9 note=32 velocity=30 time=0
EXTRACT: note_on channel=9 note=36 velocity=114 time=0
EXTRACT: note_on channel=10 note=52 velocity=114 time=0
EXTRACT: note_on channel=10 note=57 velocity=114 time=0.03378375
EXTRACT: note_on channel=10 note=52 velocity=0 time=0.010135125
EXTRACT: note_on channel=9 note=36 velocity=0 time=0
EXTRACT: note_on channel=9 note=26 velocity=0 time=0
EXTRACT: note_on channel=9 note=32 velocity=0 time=0
EXTRACT: note_on channel=10 note=57 velocity=0 time=0.03378375
EXTRACT: note_on channel=0 note=78 velocity=0 time=0.016891875
EXTRACT: note_on channel=3 note=62 velocity=0 time=0.037162125
EXTRACT: note_on channel=6 note=49 velocity=0 time=0.064189125
EXTRACT: note_on channel=1 note=37 velocity=0 time=0
EXTRACT: note_on channel=2 note=61 velocity=0 time=0
EXTRACT: note_on channel=2 note=57 velocity=0 time=0
EXTRACT: note_on channel=11 note=90 velocity=0 time=0
EXTRACT: note_on channel=11 note=81 velocity=0 time=0
EXTRACT: note_on channel=2 note=66 velocity=0 time=0
EXTRACT: note_on channel=11 note=85 velocity=0 time=0
EXTRACT: note_on channel=5 note=49 velocity=0 time=0
EXTRACT: note_on channel=5 note=54 velocity=0 time=0
EXTRACT: note_on channel=7 note=54 velocity=0 time=0
EXTRACT: note_on channel=5 note=61 velocity=0 time=0
EXTRACT: note_on channel=5 note=57 velocity=0 time=0
EXTRACT: note_on channel=6 note=42 velocity=0 time=0
EXTRACT: note_on channel=0 note=71 velocity=112 time=0.00675675
EXTRACT: note_on channel=1 note=35 velocity=120 time=0
EXTRACT: note_on channel=2 note=59 velocity=102 time=0
EXTRACT: note_on channel=2 note=62 velocity=102 time=0
EXTRACT: note_on channel=2 note=66 velocity=102 time=0
EXTRACT: note_on channel=3 note=66 velocity=115 time=0
EXTRACT: note_on channel=5 note=47 velocity=99 time=0
EXTRACT: note_on channel=5 note=54 velocity=99 time=0
EXTRACT: note_on channel=5 note=59 velocity=99 time=0
EXTRACT: note_on channel=5 note=62 velocity=99 time=0
EXTRACT: note_on channel=6 note=47 velocity=98 time=0
EXTRACT: note_on channel=6 note=54 velocity=98 time=0
EXTRACT: note_on channel=7 note=47 velocity=104 time=0
EXTRACT: note_on channel=8 note=35 velocity=82 time=0
EXTRACT: note_on channel=9 note=26 velocity=50 time=0
EXTRACT: note_on channel=9 note=32 velocity=50 time=0
EXTRACT: note_on channel=9 note=36 velocity=120 time=0
EXTRACT: note_on channel=9 note=42 velocity=80 time=0
EXTRACT: note_on channel=10 note=52 velocity=120 time=0
EXTRACT: note_on channel=11 note=83 velocity=102 time=0
EXTRACT: note_on channel=11 note=86 velocity=102 time=0
EXTRACT: note_on channel=11 note=90 velocity=102 time=0
EXTRACT: note_on channel=10 note=57 velocity=120 time=0.037162125
EXTRACT: note_on channel=10 note=52 velocity=0 time=0.00675675
EXTRACT: note_on channel=9 note=42 velocity=0 time=0
EXTRACT: note_on channel=9 note=36 velocity=0 time=0
EXTRACT: note_on channel=9 note=32 velocity=0 time=0
EXTRACT: note_on channel=9 note=26 velocity=0 time=0
EXTRACT: note_on channel=10 note=57 velocity=0 time=0.037162125
EXTRACT: note_on channel=0 note=71 velocity=0 time=0.0135135
EXTRACT: note_on channel=7 note=47 velocity=0 time=0.10135124999999999
EXTRACT: note_on channel=0 note=78 velocity=115 time=0.00675675
EXTRACT: note_on channel=7 note=54 velocity=93 time=0
EXTRACT: note_on channel=9 note=26 velocity=30 time=0
EXTRACT: note_on channel=9 note=32 velocity=30 time=0
EXTRACT: note_on channel=9 note=32 velocity=0 time=0.043918874999999996
EXTRACT: note_on channel=9 note=26 velocity=0 time=0
EXTRACT: note_on channel=0 note=78 velocity=0 time=0.050675624999999995
EXTRACT: note_on channel=3 note=66 velocity=0 time=0.027027
EXTRACT: note_on channel=7 note=54 velocity=0 time=0.07432425
EXTRACT: note_on channel=8 note=35 velocity=0 time=0
EXTRACT: note_on channel=0 note=83 velocity=118 time=0.00675675
EXTRACT: note_on channel=3 note=69 velocity=106 time=0
EXTRACT: note_on channel=7 note=59 velocity=89 time=0
EXTRACT: note_on channel=9 note=26 velocity=50 time=0
EXTRACT: note_on channel=9 note=32 velocity=50 time=0
EXTRACT: note_on channel=9 note=42 velocity=70 time=0
EXTRACT: note_on channel=9 note=42 velocity=0 time=0.043918874999999996
EXTRACT: note_on channel=9 note=32 velocity=0 time=0
EXTRACT: note_on channel=9 note=26 velocity=0 time=0
EXTRACT: note_on channel=0 note=83 velocity=0 time=0.050675624999999995
EXTRACT: note_on channel=7 note=59 velocity=0 time=0.10135124999999999
EXTRACT: note_on channel=0 note=78 velocity=118 time=0.00675675
EXTRACT: note_on channel=7 note=54 velocity=77 time=0
EXTRACT: note_on channel=9 note=26 velocity=30 time=0
EXTRACT: note_on channel=9 note=32 velocity=30 time=0
EXTRACT: note_on channel=9 note=32 velocity=0 time=0.043918874999999996
EXTRACT: note_on channel=9 note=26 velocity=0 time=0
EXTRACT: note_on channel=3 note=69 velocity=0 time=0.027027
EXTRACT: note_on channel=0 note=78 velocity=0 time=0.023648625
EXTRACT: note_on channel=7 note=54 velocity=0 time=0.10135124999999999
EXTRACT: note_on channel=0 note=83 velocity=113 time=0.00675675
EXTRACT: note_on channel=3 note=66 velocity=115 time=0
EXTRACT: note_on channel=7 note=59 velocity=98 time=0
EXTRACT: note_on channel=9 note=26 velocity=50 time=0
EXTRACT: note_on channel=9 note=32 velocity=50 time=0
EXTRACT: note_on channel=9 note=38 velocity=120 time=0
EXTRACT: note_on channel=9 note=42 velocity=80 time=0
EXTRACT: note_on channel=9 note=42 velocity=0 time=0.043918874999999996
EXTRACT: note_on channel=9 note=38 velocity=0 time=0
EXTRACT: note_on channel=9 note=26 velocity=0 time=0
EXTRACT: note_on channel=9 note=32 velocity=0 time=0
EXTRACT: note_on channel=0 note=83 velocity=0 time=0.050675624999999995
EXTRACT: note_on channel=7 note=59 velocity=0 time=0.10135124999999999
EXTRACT: note_on channel=0 note=78 velocity=113 time=0.00675675
EXTRACT: note_on channel=7 note=54 velocity=98 time=0
EXTRACT: note_on channel=9 note=26 velocity=30 time=0
EXTRACT: note_on channel=9 note=32 velocity=30 time=0
EXTRACT: note_on channel=9 note=32 velocity=0 time=0.043918874999999996
EXTRACT: note_on channel=9 note=26 velocity=0 time=0
EXTRACT: note_on channel=0 note=78 velocity=0 time=0.050675624999999995
EXTRACT: note_on channel=7 note=54 velocity=0 time=0.10135124999999999
EXTRACT: note_on channel=0 note=71 velocity=109 time=0.00675675
EXTRACT: note_on channel=7 note=47 velocity=101 time=0
EXTRACT: note_on channel=9 note=26 velocity=50 time=0
EXTRACT: note_on channel=9 note=32 velocity=50 time=0
EXTRACT: note_on channel=9 note=42 velocity=70 time=0
EXTRACT: note_on channel=9 note=42 velocity=0 time=0.043918874999999996
EXTRACT: note_on channel=9 note=32 velocity=0 time=0
EXTRACT: note_on channel=9 note=26 velocity=0 time=0
EXTRACT: note_on channel=0 note=71 velocity=0 time=0.050675624999999995
EXTRACT: note_on channel=7 note=47 velocity=0 time=0.10135124999999999
EXTRACT: note_on channel=1 note=35 velocity=0 time=0
EXTRACT: note_on channel=0 note=78 velocity=110 time=0.00675675
EXTRACT: note_on channel=1 note=35 velocity=120 time=0
EXTRACT: note_on channel=7 note=54 velocity=95 time=0
EXTRACT: note_on channel=9 note=26 velocity=30 time=0
EXTRACT: note_on channel=9 note=32 velocity=30 time=0
EXTRACT: note_on channel=9 note=36 velocity=120 time=0
EXTRACT: note_on channel=10 note=52 velocity=120 time=0
EXTRACT: note_on channel=10 note=57 velocity=120 time=0.03378375
EXTRACT: note_on channel=10 note=52 velocity=0 time=0.010135125
EXTRACT: note_on channel=9 note=36 velocity=0 time=0
EXTRACT: note_on channel=9 note=26 velocity=0 time=0
EXTRACT: note_on channel=9 note=32 velocity=0 time=0
EXTRACT: note_on channel=10 note=57 velocity=0 time=0.03378375
EXTRACT: note_on channel=0 note=78 velocity=0 time=0.016891875
EXTRACT: note_on channel=7 note=54 velocity=0 time=0.10135124999999999
EXTRACT: note_on channel=0 note=71 velocity=113 time=0.00675675
EXTRACT: note_on channel=7 note=47 velocity=104 time=0
EXTRACT: note_on channel=9 note=26 velocity=50 time=0
EXTRACT: note_on channel=9 note=32 velocity=50 time=0
EXTRACT: note_on channel=9 note=42 velocity=80 time=0
EXTRACT: note_on channel=3 note=66 velocity=0 time=0.03378375
EXTRACT: note_on channel=9 note=42 velocity=0 time=0.010135125
EXTRACT: note_on channel=9 note=32 velocity=0 time=0
EXTRACT: note_on channel=9 note=26 velocity=0 time=0
EXTRACT: note_on channel=0 note=71 velocity=0 time=0.050675624999999995
EXTRACT: note_on channel=7 note=47 velocity=0 time=0.10135124999999999
EXTRACT: note_on channel=1 note=35 velocity=0 time=0
EXTRACT: note_on channel=0 note=78 velocity=114 time=0.00675675
EXTRACT: note_on channel=1 note=35 velocity=120 time=0
EXTRACT: note_on channel=7 note=54 velocity=86 time=0
EXTRACT: note_on channel=9 note=26 velocity=30 time=0
EXTRACT: note_on channel=9 note=32 velocity=30 time=0
EXTRACT: note_on channel=9 note=36 velocity=120 time=0
EXTRACT: note_on channel=10 note=52 velocity=120 time=0
EXTRACT: note_on channel=10 note=57 velocity=120 time=0.03378375
EXTRACT: note_on channel=10 note=52 velocity=0 time=0.010135125
EXTRACT: note_on channel=9 note=36 velocity=0 time=0
EXTRACT: note_on channel=9 note=32 velocity=0 time=0
EXTRACT: note_on channel=9 note=26 velocity=0 time=0
EXTRACT: note_on channel=10 note=57 velocity=0 time=0.03378375
EXTRACT: note_on channel=0 note=78 velocity=0 time=0.016891875
EXTRACT: note_on channel=7 note=54 velocity=0 time=0.10135124999999999
EXTRACT: note_on channel=1 note=35 velocity=0 time=0
EXTRACT: note_on channel=0 note=83 velocity=111 time=0.00675675
EXTRACT: note_on channel=1 note=35 velocity=120 time=0
EXTRACT: note_on channel=3 note=62 velocity=115 time=0
EXTRACT: note_on channel=7 note=59 velocity=101 time=0
EXTRACT: note_on channel=9 note=26 velocity=50 time=0
EXTRACT: note_on channel=9 note=32 velocity=50 time=0
EXTRACT: note_on channel=9 note=36 velocity=120 time=0
EXTRACT: note_on channel=9 note=42 velocity=70 time=0
EXTRACT: note_on channel=10 note=52 velocity=120 time=0
EXTRACT: note_on channel=10 note=57 velocity=120 time=0.03378375
EXTRACT: note_on channel=10 note=52 velocity=0 time=0.010135125
EXTRACT: note_on channel=9 note=42 velocity=0 time=0
EXTRACT: note_on channel=9 note=26 velocity=0 time=0
EXTRACT: note_on channel=9 note=36 velocity=0 time=0
EXTRACT: note_on channel=9 note=32 velocity=0 time=0
EXTRACT: note_on channel=10 note=57 velocity=0 time=0.03378375
EXTRACT: note_on channel=0 note=83 velocity=0 time=0.016891875
EXTRACT: note_on channel=7 note=59 velocity=0 time=0.10135124999999999
EXTRACT: note_on channel=0 note=78 velocity=112 time=0.00675675
EXTRACT: note_on channel=7 note=54 velocity=98 time=0
EXTRACT: note_on channel=9 note=26 velocity=30 time=0
EXTRACT: note_on channel=9 note=32 velocity=30 time=0
EXTRACT: note_on channel=9 note=32 velocity=0 time=0.043918874999999996
EXTRACT: note_on channel=9 note=26 velocity=0 time=0
EXTRACT: note_on channel=3 note=62 velocity=0 time=0
EXTRACT: note_on channel=0 note=78 velocity=0 time=0.050675624999999995
EXTRACT: note_on channel=7 note=54 velocity=0 time=0.10135124999999999
EXTRACT: note_on channel=0 note=83 velocity=113 time=0.00675675
EXTRACT: note_on channel=3 note=62 velocity=112 time=0
EXTRACT: note_on channel=7 note=59 velocity=101 time=0
EXTRACT: note_on channel=9 note=26 velocity=50 time=0
EXTRACT: note_on channel=9 note=32 velocity=50 time=0
EXTRACT: note_on channel=9 note=38 velocity=120 time=0
EXTRACT: note_on channel=9 note=42 velocity=80 time=0
EXTRACT: note_on channel=9 note=42 velocity=0 time=0.043918874999999996
EXTRACT: note_on channel=9 note=38 velocity=0 time=0
EXTRACT: note_on channel=9 note=26 velocity=0 time=0
EXTRACT: note_on channel=9 note=32 velocity=0 time=0
EXTRACT: note_on channel=0 note=83 velocity=0 time=0.050675624999999995
EXTRACT: note_on channel=3 note=62 velocity=0 time=0.054054
EXTRACT: note_on channel=7 note=59 velocity=0 time=0.04729725
EXTRACT: note_on channel=0 note=78 velocity=115 time=0.00675675
EXTRACT: note_on channel=3 note=62 velocity=104 time=0
EXTRACT: note_on channel=7 note=54 velocity=93 time=0
EXTRACT: note_on channel=9 note=26 velocity=30 time=0
EXTRACT: note_on channel=9 note=32 velocity=30 time=0
EXTRACT: note_on channel=9 note=32 velocity=0 time=0.043918874999999996
EXTRACT: note_on channel=9 note=26 velocity=0 time=0
EXTRACT: note_on channel=0 note=78 velocity=0 time=0.050675624999999995
EXTRACT: note_on channel=3 note=62 velocity=0 time=0.02027025
EXTRACT: note_on channel=7 note=54 velocity=0 time=0.081081
EXTRACT: note_on channel=0 note=71 velocity=115 time=0.00675675
EXTRACT: note_on channel=3 note=62 velocity=112 time=0
EXTRACT: note_on channel=7 note=47 velocity=90 time=0
EXTRACT: note_on channel=9 note=26 velocity=50 time=0
EXTRACT: note_on channel=9 note=32 velocity=50 time=0
EXTRACT: note_on channel=9 note=42 velocity=70 time=0
EXTRACT: note_on channel=9 note=42 velocity=0 time=0.043918874999999996
EXTRACT: note_on channel=9 note=32 velocity=0 time=0
EXTRACT: note_on channel=9 note=26 velocity=0 time=0
EXTRACT: note_on channel=0 note=71 velocity=0 time=0.050675624999999995
EXTRACT: note_on channel=7 note=47 velocity=0 time=0.10135124999999999
EXTRACT: note_on channel=0 note=78 velocity=115 time=0.00675675
EXTRACT: note_on channel=7 note=54 velocity=90 time=0
EXTRACT: note_on channel=9 note=26 velocity=30 time=0
EXTRACT: note_on channel=9 note=32 velocity=30 time=0
EXTRACT: note_on channel=9 note=32 velocity=0 time=0.043918874999999996
EXTRACT: note_on channel=9 note=26 velocity=0 time=0
EXTRACT: note_on channel=3 note=62 velocity=0 time=0.010135125
EXTRACT: note_on channel=0 note=78 velocity=0 time=0.0405405
EXTRACT: note_on channel=6 note=54 velocity=0 time=0.10135124999999999
EXTRACT: note_on channel=5 note=59 velocity=0 time=0
EXTRACT: note_on channel=2 note=62 velocity=0 time=0
EXTRACT: note_on channel=2 note=59 velocity=0 time=0
EXTRACT: note_on channel=11 note=83 velocity=0 time=0
EXTRACT: note_on channel=11 note=90 velocity=0 time=0
EXTRACT: note_on channel=7 note=54 velocity=0 time=0
EXTRACT: note_on channel=5 note=54 velocity=0 time=0
EXTRACT: note_on channel=1 note=35 velocity=0 time=0
EXTRACT: note_on channel=11 note=86 velocity=0 time=0
EXTRACT: note_on channel=5 note=62 velocity=0 time=0
EXTRACT: note_on channel=2 note=66 velocity=0 time=0
EXTRACT: note_on channel=5 note=47 velocity=0 time=0
EXTRACT: note_on channel=6 note=47 velocity=0 time=0
EXTRACT: note_on channel=0 note=67 velocity=112 time=0.00675675
EXTRACT: note_on channel=1 note=31 velocity=118 time=0
EXTRACT: note_on channel=2 note=59 velocity=101 time=0
EXTRACT: note_on channel=2 note=62 velocity=101 time=0
EXTRACT: note_on channel=2 note=67 velocity=101 time=0
EXTRACT: note_on channel=3 note=67 velocity=121 time=0
EXTRACT: note_on channel=4 note=55 velocity=121 time=0
EXTRACT: note_on channel=4 note=59 velocity=121 time=0
EXTRACT: note_on channel=4 note=67 velocity=121 time=0
EXTRACT: note_on channel=5 note=43 velocity=101 time=0
EXTRACT: note_on channel=5 note=55 velocity=101 time=0
EXTRACT: note_on channel=5 note=59 velocity=101 time=0
EXTRACT: note_on channel=5 note=62 velocity=101 time=0
EXTRACT: note_on channel=6 note=43 velocity=99 time=0
EXTRACT: note_on channel=6 note=50 velocity=99 time=0
EXTRACT: note_on channel=7 note=47 velocity=104 time=0
EXTRACT: note_on channel=8 note=31 velocity=81 time=0
EXTRACT: note_on channel=9 note=26 velocity=50 time=0
EXTRACT: note_on channel=9 note=32 velocity=50 time=0
EXTRACT: note_on channel=9 note=36 velocity=120 time=0
EXTRACT: note_on channel=9 note=42 velocity=80 time=0
EXTRACT: note_on channel=10 note=52 velocity=120 time=0
EXTRACT: note_on channel=11 note=83 velocity=101 time=0
EXTRACT: note_on channel=11 note=86 velocity=101 time=0
EXTRACT: note_on channel=11 note=91 velocity=101 time=0
EXTRACT: note_on channel=15 note=55 velocity=1 time=0
EXTRACT: note_on channel=15 note=59 velocity=1 time=0
EXTRACT: note_on channel=15 note=67 velocity=1 time=0
EXTRACT: note_on channel=10 note=57 velocity=120 time=0.03378375
EXTRACT: note_on channel=10 note=52 velocity=0 time=0.010135125
EXTRACT: note_on channel=9 note=42 velocity=0 time=0
EXTRACT: note_on channel=9 note=36 velocity=0 time=0
EXTRACT: note_on channel=9 note=26 velocity=0 time=0
EXTRACT: note_on channel=9 note=32 velocity=0 time=0
EXTRACT: note_on channel=10 note=57 velocity=0 time=0.03378375
EXTRACT: note_on channel=0 note=67 velocity=0 time=0.016891875
EXTRACT: note_on channel=7 note=47 velocity=0 time=0.10135124999999999
EXTRACT: note_on channel=0 note=74 velocity=115 time=0.00675675
EXTRACT: note_on channel=7 note=50 velocity=93 time=0
EXTRACT: note_on channel=9 note=26 velocity=30 time=0
EXTRACT: note_on channel=9 note=32 velocity=30 time=0
EXTRACT: note_on channel=9 note=32 velocity=0 time=0.043918874999999996
EXTRACT: note_on channel=9 note=26 velocity=0 time=0
EXTRACT: note_on channel=0 note=74 velocity=0 time=0.050675624999999995
EXTRACT: note_on channel=7 note=50 velocity=0 time=0.10135124999999999
EXTRACT: note_on channel=8 note=31 velocity=0 time=0
EXTRACT: note_on channel=0 note=79 velocity=118 time=0.00675675
EXTRACT: note_on channel=7 note=59 velocity=89 time=0
EXTRACT: note_on channel=9 note=26 velocity=50 time=0
EXTRACT: note_on channel=9 note=32 velocity=50 time=0
EXTRACT: note_on channel=9 note=42 velocity=70 time=0
EXTRACT: note_on channel=9 note=42 velocity=0 time=0.043918874999999996
EXTRACT: note_on channel=9 note=32 velocity=0 time=0
EXTRACT: note_on channel=9 note=26 velocity=0 time=0
EXTRACT: note_on channel=0 note=79 velocity=0 time=0.050675624999999995
EXTRACT: note_on channel=7 note=59 velocity=0 time=0.10135124999999999
EXTRACT: note_on channel=0 note=74 velocity=118 time=0.00675675
EXTRACT: note_on channel=7 note=50 velocity=77 time=0
EXTRACT: note_on channel=9 note=26 velocity=30 time=0
EXTRACT: note_on channel=9 note=32 velocity=30 time=0
EXTRACT: note_on channel=9 note=32 velocity=0 time=0.043918874999999996
EXTRACT: note_on channel=9 note=26 velocity=0 time=0
EXTRACT: note_on channel=3 note=67 velocity=0 time=0.027027
EXTRACT: note_on channel=4 note=67 velocity=0 time=0
EXTRACT: note_on channel=4 note=59 velocity=0 time=0
EXTRACT: note_on channel=15 note=55 velocity=0 time=0
EXTRACT: note_on channel=4 note=55 velocity=0 time=0
EXTRACT: note_on channel=15 note=67 velocity=0 time=0
EXTRACT: note_on channel=15 note=59 velocity=0 time=0
EXTRACT: note_on channel=0 note=74 velocity=0 time=0.023648625
EXTRACT: note_on channel=7 note=50 velocity=0 time=0.10135124999999999
EXTRACT: note_on channel=0 note=79 velocity=113 time=0.00675675
EXTRACT: note_on channel=3 note=66 velocity=121 time=0
EXTRACT: note_on channel=4 note=54 velocity=121 time=0
EXTRACT: note_on channel=4 note=57 velocity=121 time=0
EXTRACT: note_on channel=4 note=66 velocity=121 time=0
EXTRACT: note_on channel=7 note=59 velocity=98 time=0
EXTRACT: note_on channel=9 note=26 velocity=50 time=0
EXTRACT: note_on channel=9 note=32 velocity=50 time=0
EXTRACT: note_on channel=9 note=38 velocity=120 time=0
EXTRACT: note_on channel=9 note=42 velocity=80 time=0
EXTRACT: note_on channel=15 note=54 velocity=1 time=0
EXTRACT: note_on channel=15 note=57 velocity=1 time=0
EXTRACT: note_on channel=15 note=66 velocity=1 time=0
EXTRACT: note_on channel=9 note=42 velocity=0 time=0.043918874999999996
EXTRACT: note_on channel=9 note=38 velocity=0 time=0
EXTRACT: note_on channel=9 note=32 velocity=0 time=0
EXTRACT: note_on channel=9 note=26 velocity=0 time=0
EXTRACT: note_on channel=0 note=79 velocity=0 time=0.050675624999999995
EXTRACT: note_on channel=7 note=59 velocity=0 time=0.10135124999999999
EXTRACT: note_on channel=0 note=74 velocity=113 time=0.00675675
EXTRACT: note_on channel=7 note=50 velocity=98 time=0
EXTRACT: note_on channel=9 note=26 velocity=30 time=0
EXTRACT: note_on channel=9 note=32 velocity=30 time=0
EXTRACT: note_on channel=9 note=32 velocity=0 time=0.043918874999999996
EXTRACT: note_on channel=9 note=26 velocity=0 time=0
EXTRACT: note_on channel=0 note=74 velocity=0 time=0.050675624999999995
EXTRACT: note_on channel=7 note=50 velocity=0 time=0.10135124999999999
EXTRACT: note_on channel=0 note=67 velocity=109 time=0.00675675
EXTRACT: note_on channel=7 note=47 velocity=78 time=0
EXTRACT: note_on channel=9 note=26 velocity=50 time=0
EXTRACT: note_on channel=9 note=32 velocity=50 time=0
EXTRACT: note_on channel=9 note=42 velocity=70 time=0
EXTRACT: note_on channel=9 note=42 velocity=0 time=0.043918874999999996
EXTRACT: note_on channel=9 note=32 velocity=0 time=0
EXTRACT: note_on channel=9 note=26 velocity=0 time=0
EXTRACT: note_on channel=0 note=67 velocity=0 time=0.050675624999999995
EXTRACT: note_on channel=7 note=47 velocity=0 time=0.10135124999999999
EXTRACT: note_on channel=1 note=31 velocity=0 time=0
EXTRACT: note_on channel=0 note=74 velocity=110 time=0.00675675
EXTRACT: note_on channel=1 note=31 velocity=118 time=0
EXTRACT: note_on channel=7 note=50 velocity=63 time=0
EXTRACT: note_on channel=9 note=26 velocity=30 time=0
EXTRACT: note_on channel=9 note=32 velocity=30 time=0
EXTRACT: note_on channel=9 note=36 velocity=120 time=0
EXTRACT: note_on channel=10 note=52 velocity=120 time=0
EXTRACT: note_on channel=4 note=54 velocity=0 time=0.00675675
EXTRACT: note_on channel=4 note=66 velocity=0 time=0
EXTRACT: note_on channel=4 note=57 velocity=0 time=0
EXTRACT: note_on channel=15 note=54 velocity=0 time=0
EXTRACT: note_on channel=15 note=66 velocity=0 time=0
EXTRACT: note_on channel=15 note=57 velocity=0 time=0
EXTRACT: note_on channel=3 note=66 velocity=0 time=0
EXTRACT: note_on channel=10 note=57 velocity=120 time=0.027027
EXTRACT: note_on channel=9 note=32 velocity=0 time=0.010135125
EXTRACT: note_on channel=10 note=52 velocity=0 time=0
EXTRACT: note_on channel=9 note=26 velocity=0 time=0
EXTRACT: note_on channel=9 note=36 velocity=0 time=0
EXTRACT: note_on channel=10 note=57 velocity=0 time=0.03378375
EXTRACT: note_on channel=0 note=74 velocity=0 time=0.016891875
EXTRACT: note_on channel=7 note=50 velocity=0 time=0.10135124999999999
EXTRACT: note_on channel=0 note=67 velocity=113 time=0.00675675
EXTRACT: note_on channel=3 note=64 velocity=121 time=0
EXTRACT: note_on channel=4 note=52 velocity=121 time=0
EXTRACT: note_on channel=4 note=55 velocity=121 time=0
EXTRACT: note_on channel=4 note=64 velocity=121 time=0
EXTRACT: note_on channel=7 note=47 velocity=76 time=0
EXTRACT: note_on channel=9 note=26 velocity=50 time=0
EXTRACT: note_on channel=9 note=32 velocity=50 time=0
EXTRACT: note_on channel=9 note=42 velocity=80 time=0
EXTRACT: note_on channel=15 note=52 velocity=1 time=0
EXTRACT: note_on channel=15 note=55 velocity=1 time=0
EXTRACT: note_on channel=15 note=64 velocity=1 time=0
EXTRACT: note_on channel=9 note=42 velocity=0 time=0.043918874999999996
EXTRACT: note_on channel=9 note=32 velocity=0 time=0
EXTRACT: note_on channel=9 note=26 velocity=0 time=0
EXTRACT: note_on channel=0 note=67 velocity=0 time=0.050675624999999995
EXTRACT: note_on channel=7 note=47 velocity=0 time=0.10135124999999999
EXTRACT: note_on channel=1 note=31 velocity=0 time=0
EXTRACT: note_on channel=0 note=74 velocity=114 time=0.00675675
EXTRACT: note_on channel=1 note=31 velocity=118 time=0
EXTRACT: note_on channel=7 note=50 velocity=86 time=0
EXTRACT: note_on channel=9 note=26 velocity=30 time=0
EXTRACT: note_on channel=9 note=32 velocity=30 time=0
EXTRACT: note_on channel=9 note=36 velocity=120 time=0
EXTRACT: note_on channel=9 note=38 velocity=120 time=0
EXTRACT: note_on channel=10 note=52 velocity=120 time=0
EXTRACT: note_on channel=10 note=57 velocity=120 time=0.03378375
EXTRACT: note_on channel=10 note=52 velocity=0 time=0.010135125
EXTRACT: note_on channel=9 note=38 velocity=0 time=0
EXTRACT: note_on channel=9 note=36 velocity=0 time=0
EXTRACT: note_on channel=9 note=32 velocity=0 time=0
EXTRACT: note_on channel=9 note=26 velocity=0 time=0
EXTRACT: note_on channel=10 note=57 velocity=0 time=0.03378375
EXTRACT: note_on channel=4 note=64 velocity=0 time=0.0135135
EXTRACT: note_on channel=4 note=52 velocity=0 time=0
EXTRACT: note_on channel=4 note=55 velocity=0 time=0
EXTRACT: note_on channel=15 note=52 velocity=0 time=0
EXTRACT: note_on channel=15 note=64 velocity=0 time=0
EXTRACT: note_on channel=15 note=55 velocity=0 time=0
EXTRACT: note_on channel=3 note=64 velocity=0 time=0
EXTRACT: note_on channel=0 note=74 velocity=0 time=0.003378375
EXTRACT: note_on channel=7 note=50 velocity=0 time=0.10135124999999999
EXTRACT: note_on channel=1 note=31 velocity=0 time=0
EXTRACT: note_on channel=0 note=79 velocity=111 time=0.00675675
EXTRACT: note_on channel=1 note=31 velocity=118 time=0
EXTRACT: note_on channel=3 note=62 velocity=118 time=0
EXTRACT: note_on channel=4 note=50 velocity=118 time=0
EXTRACT: note_on channel=4 note=54 velocity=118 time=0
EXTRACT: note_on channel=4 note=62 velocity=118 time=0
EXTRACT: note_on channel=7 note=55 velocity=88 time=0
EXTRACT: note_on channel=9 note=26 velocity=50 time=0
EXTRACT: note_on channel=9 note=32 velocity=50 time=0
EXTRACT: note_on channel=9 note=36 velocity=120 time=0
EXTRACT: note_on channel=9 note=42 velocity=70 time=0
EXTRACT: note_on channel=10 note=52 velocity=120 time=0
EXTRACT: note_on channel=15 note=54 velocity=1 time=0
EXTRACT: note_on channel=15 note=62 velocity=1 time=0
EXTRACT: note_on channel=15 note=50 velocity=1 time=0
EXTRACT: note_on channel=10 note=57 velocity=120 time=0.03378375
EXTRACT: note_on channel=10 note=52 velocity=0 time=0.010135125
EXTRACT: note_on channel=9 note=36 velocity=0 time=0
EXTRACT: note_on channel=9 note=32 velocity=0 time=0
EXTRACT: note_on channel=9 note=26 velocity=0 time=0
EXTRACT: note_on channel=9 note=42 velocity=0 time=0
EXTRACT: note_on channel=10 note=57 velocity=0 time=0.03378375
EXTRACT: note_on channel=0 note=79 velocity=0 time=0.016891875
EXTRACT: note_on channel=7 note=55 velocity=0 time=0.10135124999999999
EXTRACT: note_on channel=0 note=74 velocity=112 time=0.00675675
EXTRACT: note_on channel=7 note=50 velocity=88 time=0
EXTRACT: note_on channel=9 note=26 velocity=30 time=0
EXTRACT: note_on channel=9 note=32 velocity=30 time=0
EXTRACT: note_on channel=9 note=32 velocity=0 time=0.043918874999999996
EXTRACT: note_on channel=9 note=26 velocity=0 time=0
EXTRACT: note_on channel=4 note=62 velocity=0 time=0.010135125
EXTRACT: note_on channel=4 note=50 velocity=0 time=0
EXTRACT: note_on channel=4 note=54 velocity=0 time=0
EXTRACT: note_on channel=15 note=54 velocity=0 time=0
EXTRACT: note_on channel=15 note=50 velocity=0 time=0
EXTRACT: note_on channel=3 note=62 velocity=0 time=0
EXTRACT: note_on channel=15 note=62 velocity=0 time=0
EXTRACT: note_on channel=0 note=74 velocity=0 time=0.0405405
EXTRACT: note_on channel=7 note=50 velocity=0 time=0.10135124999999999
EXTRACT: note_on channel=0 note=79 velocity=113 time=0.00675675
EXTRACT: note_on channel=3 note=62 velocity=121 time=0
EXTRACT: note_on channel=4 note=50 velocity=121 time=0
EXTRACT: note_on channel=4 note=54 velocity=121 time=0
EXTRACT: note_on channel=4 note=62 velocity=121 time=0
EXTRACT: note_on channel=7 note=55 velocity=81 time=0
EXTRACT: note_on channel=9 note=26 velocity=50 time=0
EXTRACT: note_on channel=9 note=32 velocity=50 time=0
EXTRACT: note_on channel=9 note=38 velocity=120 time=0
EXTRACT: note_on channel=9 note=42 velocity=80 time=0
EXTRACT: note_on channel=15 note=54 velocity=1 time=0
EXTRACT: note_on channel=15 note=62 velocity=1 time=0
EXTRACT: note_on channel=15 note=50 velocity=1 time=0
EXTRACT: note_on channel=9 note=42 velocity=0 time=0.043918874999999996
EXTRACT: note_on channel=9 note=38 velocity=0 time=0
EXTRACT: note_on channel=9 note=32 velocity=0 time=0
EXTRACT: note_on channel=9 note=26 velocity=0 time=0
EXTRACT: note_on channel=0 note=79 velocity=0 time=0.050675624999999995
EXTRACT: note_on channel=7 note=55 velocity=0 time=0.10135124999999999
EXTRACT: note_on channel=0 note=74 velocity=115 time=0.00675675
EXTRACT: note_on channel=7 note=50 velocity=73 time=0
EXTRACT: note_on channel=9 note=26 velocity=30 time=0
EXTRACT: note_on channel=9 note=32 velocity=30 time=0
EXTRACT: note_on channel=9 note=32 velocity=0 time=0.043918874999999996
EXTRACT: note_on channel=9 note=26 velocity=0 time=0
EXTRACT: note_on channel=0 note=74 velocity=0 time=0.050675624999999995
EXTRACT: note_on channel=4 note=50 velocity=0 time=0.054054
EXTRACT: note_on channel=4 note=62 velocity=0 time=0
EXTRACT: note_on channel=4 note=54 velocity=0 time=0
EXTRACT: note_on channel=3 note=62 velocity=0 time=0
EXTRACT: note_on channel=15 note=50 velocity=0 time=0
EXTRACT: note_on channel=15 note=62 velocity=0 time=0
EXTRACT: note_on channel=15 note=54 velocity=0 time=0
EXTRACT: note_on channel=7 note=50 velocity=0 time=0.04729725
EXTRACT: note_on channel=0 note=67 velocity=115 time=0.00675675
EXTRACT: note_on channel=3 note=59 velocity=118 time=0
EXTRACT: note_on channel=4 note=47 velocity=118 time=0
EXTRACT: note_on channel=4 note=52 velocity=118 time=0
EXTRACT: note_on channel=4 note=59 velocity=118 time=0
EXTRACT: note_on channel=7 note=55 velocity=73 time=0
EXTRACT: note_on channel=9 note=26 velocity=50 time=0
EXTRACT: note_on channel=9 note=32 velocity=50 time=0
EXTRACT: note_on channel=9 note=36 velocity=114 time=0
EXTRACT: note_on channel=9 note=42 velocity=70 time=0
EXTRACT: note_on channel=10 note=52 velocity=114 time=0
EXTRACT: note_on channel=15 note=59 velocity=1 time=0
EXTRACT: note_on channel=15 note=47 velocity=1 time=0
EXTRACT: note_on channel=15 note=52 velocity=1 time=0
EXTRACT: note_on channel=10 note=57 velocity=114 time=0.03378375
EXTRACT: note_on channel=10 note=52 velocity=0 time=0.010135125
EXTRACT: note_on channel=9 note=36 velocity=0 time=0
EXTRACT: note_on channel=9 note=32 velocity=0 time=0
EXTRACT: note_on channel=9 note=26 velocity=0 time=0
EXTRACT: note_on channel=9 note=42 velocity=0 time=0
EXTRACT: note_on channel=10 note=57 velocity=0 time=0.03378375
EXTRACT: note_on channel=0 note=67 velocity=0 time=0.016891875
EXTRACT: note_on channel=7 note=55 velocity=0 time=0.10135124999999999
EXTRACT: note_on channel=0 note=74 velocity=115 time=0.00675675
EXTRACT: note_on channel=7 note=50 velocity=71 time=0
EXTRACT: note_on channel=9 note=26 velocity=30 time=0
EXTRACT: note_on channel=9 note=32 velocity=30 time=0
EXTRACT: note_on channel=9 note=36 velocity=114 time=0
EXTRACT: note_on channel=10 note=52 velocity=114 time=0
EXTRACT: note_on channel=10 note=57 velocity=114 time=0.03378375
EXTRACT: note_on channel=10 note=52 velocity=0 time=0.010135125
EXTRACT: note_on channel=9 note=36 velocity=0 time=0
EXTRACT: note_on channel=9 note=32 velocity=0 time=0
EXTRACT: note_on channel=9 note=26 velocity=0 time=0
EXTRACT: note_on channel=10 note=57 velocity=0 time=0.03378375
EXTRACT: note_on channel=0 note=74 velocity=0 time=0.016891875
EXTRACT: note_on channel=15 note=59 velocity=0 time=0.10135124999999999
EXTRACT: note_on channel=2 note=59 velocity=0 time=0
EXTRACT: note_on channel=11 note=83 velocity=0 time=0
EXTRACT: note_on channel=4 note=47 velocity=0 time=0
EXTRACT: note_on channel=6 note=43 velocity=0 time=0
EXTRACT: note_on channel=2 note=67 velocity=0 time=0
EXTRACT: note_on channel=11 note=91 velocity=0 time=0
EXTRACT: note_on channel=2 note=62 velocity=0 time=0
EXTRACT: note_on channel=5 note=62 velocity=0 time=0
EXTRACT: note_on channel=15 note=47 velocity=0 time=0
EXTRACT: note_on channel=11 note=86 velocity=0 time=0
EXTRACT: note_on channel=6 note=50 velocity=0 time=0
EXTRACT: note_on channel=1 note=31 velocity=0 time=0
EXTRACT: note_on channel=4 note=52 velocity=0 time=0
EXTRACT: note_on channel=5 note=59 velocity=0 time=0
EXTRACT: note_on channel=5 note=43 velocity=0 time=0
EXTRACT: note_on channel=15 note=52 velocity=0 time=0
EXTRACT: note_on channel=7 note=50 velocity=0 time=0
EXTRACT: note_on channel=4 note=59 velocity=0 time=0
EXTRACT: note_on channel=3 note=59 velocity=0 time=0
EXTRACT: note_on channel=5 note=55 velocity=0 time=0
EXTRACT: note_on channel=0 note=74 velocity=112 time=0.00675675
EXTRACT: note_on channel=2 note=62 velocity=78 time=0
EXTRACT: note_on channel=2 note=66 velocity=78 time=0
EXTRACT: note_on channel=3 note=57 velocity=118 time=0
EXTRACT: note_on channel=4 note=45 velocity=118 time=0
EXTRACT: note_on channel=4 note=50 velocity=118 time=0
EXTRACT: note_on channel=4 note=57 velocity=118 time=0
EXTRACT: note_on channel=7 note=62 velocity=112 time=0
EXTRACT: note_on channel=9 note=26 velocity=50 time=0
EXTRACT: note_on channel=9 note=32 velocity=50 time=0
EXTRACT: note_on channel=9 note=36 velocity=120 time=0
EXTRACT: note_on channel=9 note=42 velocity=80 time=0
EXTRACT: note_on channel=10 note=52 velocity=120 time=0
EXTRACT: note_on channel=15 note=57 velocity=1 time=0
EXTRACT: note_on channel=15 note=45 velocity=1 time=0
EXTRACT: note_on channel=15 note=50 velocity=1 time=0
EXTRACT: note_on channel=10 note=57 velocity=120 time=0.037162125
EXTRACT: note_on channel=10 note=52 velocity=0 time=0.00675675
EXTRACT: note_on channel=9 note=32 velocity=0 time=0
EXTRACT: note_on channel=9 note=26 velocity=0 time=0
EXTRACT: note_on channel=9 note=42 velocity=0 time=0
EXTRACT: note_on channel=9 note=36 velocity=0 time=0
EXTRACT: note_on channel=10 note=57 velocity=0 time=0.037162125
EXTRACT: note_on channel=0 note=74 velocity=0 time=0.0135135
EXTRACT: note_on channel=7 note=62 velocity=0 time=0
EXTRACT: note_on channel=0 note=78 velocity=115 time=0.108108
EXTRACT: note_on channel=7 note=66 velocity=115 time=0
EXTRACT: note_on channel=9 note=26 velocity=30 time=0
EXTRACT: note_on channel=9 note=32 velocity=30 time=0
EXTRACT: note_on channel=9 note=32 velocity=0 time=0.043918874999999996
EXTRACT: note_on channel=9 note=26 velocity=0 time=0
EXTRACT: note_on channel=0 note=78 velocity=0 time=0.050675624999999995
EXTRACT: note_on channel=7 note=66 velocity=0 time=0
EXTRACT: note_on channel=3 note=57 velocity=0 time=0.10135124999999999
EXTRACT: note_on channel=15 note=57 velocity=0 time=0
EXTRACT: note_on channel=4 note=45 velocity=0 time=0
EXTRACT: note_on channel=15 note=45 velocity=0 time=0
EXTRACT: note_on channel=4 note=50 velocity=0 time=0
EXTRACT: note_on channel=15 note=50 velocity=0 time=0
EXTRACT: note_on channel=4 note=57 velocity=0 time=0
EXTRACT: note_on channel=0 note=81 velocity=118 time=0.00675675
EXTRACT: note_on channel=7 note=69 velocity=118 time=0
EXTRACT: note_on channel=9 note=26 velocity=50 time=0
EXTRACT: note_on channel=9 note=32 velocity=50 time=0
EXTRACT: note_on channel=9 note=42 velocity=70 time=0
EXTRACT: note_on channel=9 note=42 velocity=0 time=0.043918874999999996
EXTRACT: note_on channel=9 note=26 velocity=0 time=0
EXTRACT: note_on channel=9 note=32 velocity=0 time=0
EXTRACT: note_on channel=0 note=81 velocity=0 time=0.050675624999999995
EXTRACT: note_on channel=7 note=69 velocity=0 time=0
EXTRACT: note_on channel=0 note=78 velocity=118 time=0.108108
EXTRACT: note_on channel=7 note=66 velocity=118 time=0
EXTRACT: note_on channel=9 note=26 velocity=30 time=0
EXTRACT: note_on channel=9 note=32 velocity=30 time=0
EXTRACT: note_on channel=9 note=32 velocity=0 time=0.043918874999999996
EXTRACT: note_on channel=9 note=26 velocity=0 time=0
EXTRACT: note_on channel=0 note=78 velocity=0 time=0.050675624999999995
EXTRACT: note_on channel=7 note=66 velocity=0 time=0
EXTRACT: note_on channel=0 note=81 velocity=113 time=0.108108
EXTRACT: note_on channel=7 note=69 velocity=113 time=0
EXTRACT: note_on channel=9 note=26 velocity=50 time=0
EXTRACT: note_on channel=9 note=32 velocity=50 time=0
EXTRACT: note_on channel=9 note=38 velocity=120 time=0
EXTRACT: note_on channel=9 note=42 velocity=80 time=0
EXTRACT: note_on channel=9 note=42 velocity=0 time=0.043918874999999996
EXTRACT: note_on channel=9 note=38 velocity=0 time=0
EXTRACT: note_on channel=9 note=26 velocity=0 time=0
EXTRACT: note_on channel=9 note=32 velocity=0 time=0
EXTRACT: note_on channel=0 note=81 velocity=0 time=0.050675624999999995
EXTRACT: note_on channel=7 note=69 velocity=0 time=0
EXTRACT: note_on channel=0 note=78 velocity=113 time=0.108108
EXTRACT: note_on channel=7 note=66 velocity=113 time=0
EXTRACT: note_on channel=9 note=26 velocity=30 time=0
EXTRACT: note_on channel=9 note=32 velocity=30 time=0
EXTRACT: note_on channel=9 note=32 velocity=0 time=0.043918874999999996
EXTRACT: note_on channel=9 note=26 velocity=0 time=0
EXTRACT: note_on channel=0 note=78 velocity=0 time=0.050675624999999995
EXTRACT: note_on channel=7 note=66 velocity=0 time=0
EXTRACT: note_on channel=0 note=74 velocity=109 time=0.108108
EXTRACT: note_on channel=7 note=62 velocity=109 time=0
EXTRACT: note_on channel=9 note=26 velocity=50 time=0
EXTRACT: note_on channel=9 note=32 velocity=50 time=0
EXTRACT: note_on channel=9 note=42 velocity=70 time=0
EXTRACT: note_on channel=9 note=42 velocity=0 time=0.043918874999999996
EXTRACT: note_on channel=9 note=26 velocity=0 time=0
EXTRACT: note_on channel=9 note=32 velocity=0 time=0
EXTRACT: note_on channel=0 note=74 velocity=0 time=0.050675624999999995
EXTRACT: note_on channel=7 note=62 velocity=0 time=0
EXTRACT: note_on channel=0 note=78 velocity=110 time=0.108108
EXTRACT: note_on channel=7 note=66 velocity=110 time=0
EXTRACT: note_on channel=9 note=26 velocity=30 time=0
EXTRACT: note_on channel=9 note=32 velocity=30 time=0
EXTRACT: note_on channel=9 note=36 velocity=120 time=0
EXTRACT: note_on channel=10 note=52 velocity=120 time=0
EXTRACT: note_on channel=10 note=57 velocity=120 time=0.03378375
EXTRACT: note_on channel=10 note=52 velocity=0 time=0.010135125
EXTRACT: note_on channel=9 note=36 velocity=0 time=0
EXTRACT: note_on channel=9 note=32 velocity=0 time=0
EXTRACT: note_on channel=9 note=26 velocity=0 time=0
EXTRACT: note_on channel=10 note=57 velocity=0 time=0.03378375
EXTRACT: note_on channel=0 note=78 velocity=0 time=0.016891875
EXTRACT: note_on channel=7 note=66 velocity=0 time=0
EXTRACT: note_on channel=0 note=74 velocity=113 time=0.108108
EXTRACT: note_on channel=7 note=62 velocity=113 time=0
EXTRACT: note_on channel=9 note=26 velocity=50 time=0
EXTRACT: note_on channel=9 note=32 velocity=50 time=0
EXTRACT: note_on channel=9 note=42 velocity=80 time=0
EXTRACT: note_on channel=9 note=42 velocity=0 time=0.043918874999999996
EXTRACT: note_on channel=9 note=26 velocity=0 time=0
EXTRACT: note_on channel=9 note=32 velocity=0 time=0
EXTRACT: note_on channel=0 note=74 velocity=0 time=0.050675624999999995
EXTRACT: note_on channel=7 note=62 velocity=0 time=0
EXTRACT: note_on channel=0 note=78 velocity=114 time=0.108108
EXTRACT: note_on channel=7 note=66 velocity=114 time=0
EXTRACT: note_on channel=9 note=26 velocity=30 time=0
EXTRACT: note_on channel=9 note=32 velocity=30 time=0
EXTRACT: note_on channel=9 note=36 velocity=120 time=0
EXTRACT: note_on channel=10 note=52 velocity=120 time=0
EXTRACT: note_on channel=10 note=57 velocity=120 time=0.03378375
EXTRACT: note_on channel=10 note=52 velocity=0 time=0.010135125
EXTRACT: note_on channel=9 note=36 velocity=0 time=0
EXTRACT: note_on channel=9 note=32 velocity=0 time=0
EXTRACT: note_on channel=9 note=26 velocity=0 time=0
EXTRACT: note_on channel=10 note=57 velocity=0 time=0.03378375
EXTRACT: note_on channel=0 note=78 velocity=0 time=0.016891875
EXTRACT: note_on channel=7 note=66 velocity=0 time=0
EXTRACT: note_on channel=0 note=81 velocity=111 time=0.108108
EXTRACT: note_on channel=7 note=69 velocity=111 time=0
EXTRACT: note_on channel=9 note=26 velocity=50 time=0
EXTRACT: note_on channel=9 note=32 velocity=50 time=0
EXTRACT: note_on channel=9 note=36 velocity=120 time=0
EXTRACT: note_on channel=9 note=42 velocity=70 time=0
EXTRACT: note_on channel=10 note=52 velocity=120 time=0
EXTRACT: note_on channel=10 note=57 velocity=120 time=0.03378375
EXTRACT: note_on channel=10 note=52 velocity=0 time=0.010135125
EXTRACT: note_on channel=9 note=42 velocity=0 time=0
EXTRACT: note_on channel=9 note=36 velocity=0 time=0
EXTRACT: note_on channel=9 note=32 velocity=0 time=0
EXTRACT: note_on channel=9 note=26 velocity=0 time=0
EXTRACT: note_on channel=10 note=57 velocity=0 time=0.03378375
EXTRACT: note_on channel=7 note=69 velocity=0 time=0.016891875
EXTRACT: note_on channel=0 note=81 velocity=0 time=0
EXTRACT: note_on channel=0 note=78 velocity=112 time=0.108108
EXTRACT: note_on channel=7 note=66 velocity=112 time=0
EXTRACT: note_on channel=9 note=26 velocity=30 time=0
EXTRACT: note_on channel=9 note=32 velocity=30 time=0
EXTRACT: note_on channel=9 note=32 velocity=0 time=0.043918874999999996
EXTRACT: note_on channel=9 note=26 velocity=0 time=0
EXTRACT: note_on channel=0 note=78 velocity=0 time=0.050675624999999995
EXTRACT: note_on channel=7 note=66 velocity=0 time=0
EXTRACT: note_on channel=0 note=81 velocity=113 time=0.108108
EXTRACT: note_on channel=7 note=69 velocity=113 time=0
EXTRACT: note_on channel=9 note=26 velocity=50 time=0
EXTRACT: note_on channel=9 note=32 velocity=50 time=0
EXTRACT: note_on channel=9 note=38 velocity=120 time=0
EXTRACT: note_on channel=9 note=42 velocity=80 time=0
EXTRACT: note_on channel=9 note=42 velocity=0 time=0.043918874999999996
EXTRACT: note_on channel=9 note=38 velocity=0 time=0
EXTRACT: note_on channel=9 note=26 velocity=0 time=0
EXTRACT: note_on channel=9 note=32 velocity=0 time=0
EXTRACT: note_on channel=0 note=81 velocity=0 time=0.050675624999999995
EXTRACT: note_on channel=7 note=69 velocity=0 time=0
EXTRACT: note_on channel=9 note=26 velocity=30 time=0.108108
EXTRACT: note_on channel=9 note=32 velocity=30 time=0
EXTRACT: note_on channel=9 note=32 velocity=0 time=0.043918874999999996
EXTRACT: note_on channel=9 note=26 velocity=0 time=0
EXTRACT: note_on channel=9 note=26 velocity=50 time=0.15878362499999998
EXTRACT: note_on channel=9 note=32 velocity=50 time=0
EXTRACT: note_on channel=9 note=42 velocity=70 time=0
EXTRACT: note_on channel=9 note=42 velocity=0 time=0.043918874999999996
EXTRACT: note_on channel=9 note=26 velocity=0 time=0
EXTRACT: note_on channel=9 note=32 velocity=0 time=0
EXTRACT: note_on channel=9 note=26 velocity=30 time=0.15878362499999998
EXTRACT: note_on channel=9 note=32 velocity=30 time=0
EXTRACT: note_on channel=12 note=67 velocity=100 time=0
EXTRACT: note_on channel=9 note=32 velocity=0 time=0.043918874999999996
EXTRACT: note_on channel=9 note=26 velocity=0 time=0
EXTRACT: note_on channel=12 note=65 velocity=100 time=0.023648625
EXTRACT: note_on channel=12 note=67 velocity=0 time=0.027027
EXTRACT: note_on channel=12 note=63 velocity=100 time=0.0405405
EXTRACT: note_on channel=12 note=65 velocity=0 time=0.027027
EXTRACT: note_on channel=2 note=66 velocity=0 time=0.03378375
EXTRACT: note_on channel=2 note=62 velocity=0 time=0
EXTRACT: note_on channel=0 note=73 velocity=112 time=0.00675675
EXTRACT: note_on channel=2 note=61 velocity=79 time=0
EXTRACT: note_on channel=2 note=64 velocity=79 time=0
EXTRACT: note_on channel=7 note=61 velocity=112 time=0
EXTRACT: note_on channel=9 note=26 velocity=50 time=0
EXTRACT: note_on channel=9 note=32 velocity=50 time=0
EXTRACT: note_on channel=9 note=36 velocity=120 time=0
EXTRACT: note_on channel=9 note=42 velocity=80 time=0
EXTRACT: note_on channel=10 note=52 velocity=120 time=0
EXTRACT: note_on channel=12 note=61 velocity=114 time=0
EXTRACT: note_on channel=12 note=63 velocity=0 time=0.027027
EXTRACT: note_on channel=10 note=57 velocity=120 time=0.00675675
EXTRACT: note_on channel=10 note=52 velocity=0 time=0.010135125
EXTRACT: note_on channel=9 note=36 velocity=0 time=0
EXTRACT: note_on channel=9 note=42 velocity=0 time=0
EXTRACT: note_on channel=9 note=32 velocity=0 time=0
EXTRACT: note_on channel=9 note=26 velocity=0 time=0
EXTRACT: note_on channel=10 note=57 velocity=0 time=0.03378375
EXTRACT: note_on channel=12 note=61 velocity=0 time=0.016891875
EXTRACT: note_on channel=0 note=73 velocity=0 time=0
EXTRACT: note_on channel=7 note=61 velocity=0 time=0
EXTRACT: note_on channel=0 note=78 velocity=115 time=0.108108
EXTRACT: note_on channel=7 note=66 velocity=115 time=0
EXTRACT: note_on channel=9 note=26 velocity=30 time=0
EXTRACT: note_on channel=9 note=32 velocity=30 time=0
EXTRACT: note_on channel=9 note=32 velocity=0 time=0.043918874999999996
EXTRACT: note_on channel=9 note=26 velocity=0 time=0
EXTRACT: note_on channel=0 note=78 velocity=0 time=0.050675624999999995
EXTRACT: note_on channel=7 note=66 velocity=0 time=0
EXTRACT: note_on channel=0 note=81 velocity=118 time=0.108108
EXTRACT: note_on channel=7 note=69 velocity=118 time=0
EXTRACT: note_on channel=9 note=26 velocity=50 time=0
EXTRACT: note_on channel=9 note=32 velocity=50 time=0
EXTRACT: note_on channel=9 note=42 velocity=70 time=0
EXTRACT: note_on channel=9 note=42 velocity=0 time=0.043918874999999996
EXTRACT: note_on channel=9 note=26 velocity=0 time=0
EXTRACT: note_on channel=9 note=32 velocity=0 time=0
EXTRACT: note_on channel=0 note=81 velocity=0 time=0.050675624999999995
EXTRACT: note_on channel=7 note=69 velocity=0 time=0
EXTRACT: note_on channel=0 note=78 velocity=118 time=0.108108
EXTRACT: note_on channel=7 note=66 velocity=118 time=0
EXTRACT: note_on channel=9 note=26 velocity=30 time=0
EXTRACT: note_on channel=9 note=32 velocity=30 time=0
EXTRACT: note_on channel=9 note=32 velocity=0 time=0.043918874999999996
EXTRACT: note_on channel=9 note=26 velocity=0 time=0
EXTRACT: note_on channel=0 note=78 velocity=0 time=0.050675624999999995
EXTRACT: note_on channel=7 note=66 velocity=0 time=0
EXTRACT: note_on channel=0 note=81 velocity=113 time=0.108108
EXTRACT: note_on channel=7 note=69 velocity=113 time=0
EXTRACT: note_on channel=9 note=26 velocity=50 time=0
EXTRACT: note_on channel=9 note=32 velocity=50 time=0
EXTRACT: note_on channel=9 note=38 velocity=120 time=0
EXTRACT: note_on channel=9 note=42 velocity=80 time=0
EXTRACT: note_on channel=9 note=42 velocity=0 time=0.043918874999999996
EXTRACT: note_on channel=9 note=38 velocity=0 time=0
EXTRACT: note_on channel=9 note=26 velocity=0 time=0
EXTRACT: note_on channel=9 note=32 velocity=0 time=0
EXTRACT: note_on channel=0 note=81 velocity=0 time=0.050675624999999995
EXTRACT: note_on channel=7 note=69 velocity=0 time=0
EXTRACT: note_on channel=0 note=78 velocity=113 time=0.108108
EXTRACT: note_on channel=7 note=66 velocity=113 time=0
EXTRACT: note_on channel=9 note=26 velocity=30 time=0
EXTRACT: note_on channel=9 note=32 velocity=30 time=0
EXTRACT: note_on channel=9 note=32 velocity=0 time=0.043918874999999996
EXTRACT: note_on channel=9 note=26 velocity=0 time=0
EXTRACT: note_on channel=0 note=78 velocity=0 time=0.050675624999999995
EXTRACT: note_on channel=7 note=66 velocity=0 time=0
EXTRACT: note_on channel=0 note=73 velocity=109 time=0.108108
EXTRACT: note_on channel=7 note=61 velocity=109 time=0
EXTRACT: note_on channel=9 note=26 velocity=50 time=0
EXTRACT: note_on channel=9 note=32 velocity=50 time=0
EXTRACT: note_on channel=9 note=42 velocity=70 time=0
EXTRACT: note_on channel=9 note=42 velocity=0 time=0.043918874999999996
EXTRACT: note_on channel=9 note=26 velocity=0 time=0
EXTRACT: note_on channel=9 note=32 velocity=0 time=0
EXTRACT: note_on channel=0 note=73 velocity=0 time=0.050675624999999995
EXTRACT: note_on channel=7 note=61 velocity=0 time=0
EXTRACT: note_on channel=0 note=78 velocity=110 time=0.108108
EXTRACT: note_on channel=7 note=66 velocity=110 time=0
EXTRACT: note_on channel=9 note=26 velocity=30 time=0
EXTRACT: note_on channel=9 note=32 velocity=30 time=0
EXTRACT: note_on channel=9 note=36 velocity=120 time=0
EXTRACT: note_on channel=10 note=52 velocity=120 time=0
EXTRACT: note_on channel=10 note=57 velocity=120 time=0.03378375
EXTRACT: note_on channel=10 note=52 velocity=0 time=0.010135125
EXTRACT: note_on channel=9 note=36 velocity=0 time=0
EXTRACT: note_on channel=9 note=32 velocity=0 time=0
EXTRACT: note_on channel=9 note=26 velocity=0 time=0
EXTRACT: note_on channel=10 note=57 velocity=0 time=0.03378375
EXTRACT: note_on channel=0 note=78 velocity=0 time=0.016891875
EXTRACT: note_on channel=7 note=66 velocity=0 time=0
EXTRACT: note_on channel=0 note=73 velocity=113 time=0.108108
EXTRACT: note_on channel=7 note=61 velocity=113 time=0
EXTRACT: note_on channel=9 note=26 velocity=50 time=0
EXTRACT: note_on channel=9 note=32 velocity=50 time=0
EXTRACT: note_on channel=9 note=42 velocity=80 time=0
EXTRACT: note_on channel=9 note=42 velocity=0 time=0.043918874999999996
EXTRACT: note_on channel=9 note=26 velocity=0 time=0
EXTRACT: note_on channel=9 note=32 velocity=0 time=0
EXTRACT: note_on channel=0 note=73 velocity=0 time=0.050675624999999995
EXTRACT: note_on channel=7 note=61 velocity=0 time=0
EXTRACT: note_on channel=0 note=78 velocity=114 time=0.108108
EXTRACT: note_on channel=7 note=66 velocity=114 time=0
EXTRACT: note_on channel=9 note=26 velocity=30 time=0
EXTRACT: note_on channel=9 note=32 velocity=30 time=0
EXTRACT: note_on channel=9 note=36 velocity=120 time=0
EXTRACT: note_on channel=10 note=52 velocity=120 time=0
EXTRACT: note_on channel=10 note=57 velocity=120 time=0.03378375
EXTRACT: note_on channel=10 note=52 velocity=0 time=0.010135125
EXTRACT: note_on channel=9 note=36 velocity=0 time=0
EXTRACT: note_on channel=9 note=32 velocity=0 time=0
EXTRACT: note_on channel=9 note=26 velocity=0 time=0
EXTRACT: note_on channel=10 note=57 velocity=0 time=0.03378375
EXTRACT: note_on channel=0 note=78 velocity=0 time=0.016891875
EXTRACT: note_on channel=7 note=66 velocity=0 time=0
EXTRACT: note_on channel=0 note=81 velocity=111 time=0.108108
EXTRACT: note_on channel=7 note=69 velocity=111 time=0
EXTRACT: note_on channel=9 note=26 velocity=50 time=0
EXTRACT: note_on channel=9 note=32 velocity=50 time=0
EXTRACT: note_on channel=9 note=36 velocity=120 time=0
EXTRACT: note_on channel=9 note=42 velocity=70 time=0
EXTRACT: note_on channel=10 note=52 velocity=120 time=0
EXTRACT: note_on channel=10 note=57 velocity=120 time=0.03378375
EXTRACT: note_on channel=10 note=52 velocity=0 time=0.010135125
EXTRACT: note_on channel=9 note=42 velocity=0 time=0
EXTRACT: note_on channel=9 note=36 velocity=0 time=0
EXTRACT: note_on channel=9 note=32 velocity=0 time=0
EXTRACT: note_on channel=9 note=26 velocity=0 time=0
EXTRACT: note_on channel=10 note=57 velocity=0 time=0.03378375
EXTRACT: note_on channel=7 note=69 velocity=0 time=0.016891875
EXTRACT: note_on channel=0 note=81 velocity=0 time=0
EXTRACT: note_on channel=0 note=78 velocity=112 time=0.108108
EXTRACT: note_on channel=7 note=66 velocity=112 time=0
EXTRACT: note_on channel=9 note=26 velocity=30 time=0
EXTRACT: note_on channel=9 note=32 velocity=30 time=0
EXTRACT: note_on channel=9 note=32 velocity=0 time=0.043918874999999996
EXTRACT: note_on channel=9 note=26 velocity=0 time=0
EXTRACT: note_on channel=0 note=78 velocity=0 time=0.050675624999999995
EXTRACT: note_on channel=7 note=66 velocity=0 time=0
EXTRACT: note_on channel=0 note=81 velocity=113 time=0.108108
EXTRACT: note_on channel=7 note=69 velocity=113 time=0
EXTRACT: note_on channel=9 note=26 velocity=50 time=0
EXTRACT: note_on channel=9 note=32 velocity=50 time=0
EXTRACT: note_on channel=9 note=38 velocity=120 time=0
EXTRACT: note_on channel=9 note=42 velocity=80 time=0
EXTRACT: note_on channel=9 note=42 velocity=0 time=0.043918874999999996
EXTRACT: note_on channel=9 note=38 velocity=0 time=0
EXTRACT: note_on channel=9 note=26 velocity=0 time=0
EXTRACT: note_on channel=9 note=32 velocity=0 time=0
EXTRACT: note_on channel=0 note=81 velocity=0 time=0.050675624999999995
EXTRACT: note_on channel=7 note=69 velocity=0 time=0
EXTRACT: note_on channel=9 note=26 velocity=30 time=0.108108
EXTRACT: note_on channel=9 note=32 velocity=30 time=0
EXTRACT: note_on channel=9 note=32 velocity=0 time=0.043918874999999996
EXTRACT: note_on channel=9 note=26 velocity=0 time=0
EXTRACT: note_on channel=9 note=26 velocity=50 time=0.15878362499999998
EXTRACT: note_on channel=9 note=32 velocity=50 time=0
EXTRACT: note_on channel=9 note=36 velocity=114 time=0
EXTRACT: note_on channel=9 note=42 velocity=70 time=0
EXTRACT: note_on channel=10 note=52 velocity=114 time=0
EXTRACT: note_on channel=10 note=57 velocity=114 time=0.03378375
EXTRACT: note_on channel=10 note=52 velocity=0 time=0.010135125
EXTRACT: note_on channel=9 note=32 velocity=0 time=0
EXTRACT: note_on channel=9 note=36 velocity=0 time=0
EXTRACT: note_on channel=9 note=26 velocity=0 time=0
EXTRACT: note_on channel=9 note=42 velocity=0 time=0
EXTRACT: note_on channel=10 note=57 velocity=0 time=0.03378375
EXTRACT: note_on channel=9 note=26 velocity=30 time=0.124999875
EXTRACT: note_on channel=9 note=32 velocity=30 time=0
EXTRACT: note_on channel=9 note=36 velocity=114 time=0
EXTRACT: note_on channel=10 note=52 velocity=114 time=0
EXTRACT: note_on channel=10 note=57 velocity=114 time=0.03378375
EXTRACT: note_on channel=10 note=52 velocity=0 time=0.010135125
EXTRACT: note_on channel=9 note=32 velocity=0 time=0
EXTRACT: note_on channel=9 note=26 velocity=0 time=0
EXTRACT: note_on channel=9 note=36 velocity=0 time=0
EXTRACT: note_on channel=10 note=57 velocity=0 time=0.03378375
EXTRACT: note_on channel=2 note=64 velocity=0 time=0.11824312499999999
EXTRACT: note_on channel=2 note=61 velocity=0 time=0
EXTRACT: note_on channel=0 note=71 velocity=112 time=0.00675675
EXTRACT: note_on channel=2 note=59 velocity=76 time=0
EXTRACT: note_on channel=2 note=62 velocity=76 time=0
EXTRACT: note_on channel=7 note=59 velocity=112 time=0
EXTRACT: note_on channel=9 note=26 velocity=50 time=0
EXTRACT: note_on channel=9 note=32 velocity=50 time=0
EXTRACT: note_on channel=9 note=36 velocity=120 time=0
EXTRACT: note_on channel=9 note=42 velocity=80 time=0
EXTRACT: note_on channel=10 note=52 velocity=120 time=0
EXTRACT: note_on channel=10 note=57 velocity=120 time=0.037162125
EXTRACT: note_on channel=10 note=52 velocity=0 time=0.00675675
EXTRACT: note_on channel=9 note=42 velocity=0 time=0
EXTRACT: note_on channel=9 note=36 velocity=0 time=0
EXTRACT: note_on channel=9 note=32 velocity=0 time=0
EXTRACT: note_on channel=9 note=26 velocity=0 time=0
EXTRACT: note_on channel=10 note=57 velocity=0 time=0.037162125
EXTRACT: note_on channel=7 note=59 velocity=0 time=0.0135135
EXTRACT: note_on channel=0 note=71 velocity=0 time=0
EXTRACT: note_on channel=0 note=78 velocity=115 time=0.108108
EXTRACT: note_on channel=7 note=66 velocity=115 time=0
EXTRACT: note_on channel=9 note=26 velocity=30 time=0
EXTRACT: note_on channel=9 note=32 velocity=30 time=0
EXTRACT: note_on channel=9 note=32 velocity=0 time=0.043918874999999996
EXTRACT: note_on channel=9 note=26 velocity=0 time=0
EXTRACT: note_on channel=0 note=78 velocity=0 time=0.050675624999999995
EXTRACT: note_on channel=7 note=66 velocity=0 time=0
EXTRACT: note_on channel=0 note=83 velocity=118 time=0.108108
EXTRACT: note_on channel=7 note=71 velocity=118 time=0
EXTRACT: note_on channel=9 note=26 velocity=50 time=0
EXTRACT: note_on channel=9 note=32 velocity=50 time=0
EXTRACT: note_on channel=9 note=42 velocity=70 time=0
EXTRACT: note_on channel=9 note=42 velocity=0 time=0.043918874999999996
EXTRACT: note_on channel=9 note=26 velocity=0 time=0
EXTRACT: note_on channel=9 note=32 velocity=0 time=0
EXTRACT: note_on channel=0 note=83 velocity=0 time=0.050675624999999995
EXTRACT: note_on channel=7 note=71 velocity=0 time=0
EXTRACT: note_on channel=0 note=78 velocity=118 time=0.108108
EXTRACT: note_on channel=7 note=66 velocity=118 time=0
EXTRACT: note_on channel=9 note=26 velocity=30 time=0
EXTRACT: note_on channel=9 note=32 velocity=30 time=0
EXTRACT: note_on channel=9 note=32 velocity=0 time=0.043918874999999996
EXTRACT: note_on channel=9 note=26 velocity=0 time=0
EXTRACT: note_on channel=0 note=78 velocity=0 time=0.050675624999999995
EXTRACT: note_on channel=7 note=66 velocity=0 time=0
EXTRACT: note_on channel=0 note=83 velocity=113 time=0.108108
EXTRACT: note_on channel=7 note=71 velocity=113 time=0
EXTRACT: note_on channel=9 note=26 velocity=50 time=0
EXTRACT: note_on channel=9 note=32 velocity=50 time=0
EXTRACT: note_on channel=9 note=38 velocity=120 time=0
EXTRACT: note_on channel=9 note=42 velocity=80 time=0
EXTRACT: note_on channel=9 note=42 velocity=0 time=0.043918874999999996
EXTRACT: note_on channel=9 note=38 velocity=0 time=0
EXTRACT: note_on channel=9 note=26 velocity=0 time=0
EXTRACT: note_on channel=9 note=32 velocity=0 time=0
EXTRACT: note_on channel=0 note=83 velocity=0 time=0.050675624999999995
EXTRACT: note_on channel=7 note=71 velocity=0 time=0
EXTRACT: note_on channel=0 note=78 velocity=113 time=0.108108
EXTRACT: note_on channel=7 note=66 velocity=113 time=0
EXTRACT: note_on channel=9 note=26 velocity=30 time=0
EXTRACT: note_on channel=9 note=32 velocity=30 time=0
EXTRACT: note_on channel=9 note=32 velocity=0 time=0.043918874999999996
EXTRACT: note_on channel=9 note=26 velocity=0 time=0
EXTRACT: note_on channel=0 note=78 velocity=0 time=0.050675624999999995
EXTRACT: note_on channel=7 note=66 velocity=0 time=0
EXTRACT: note_on channel=0 note=71 velocity=109 time=0.108108
EXTRACT: note_on channel=7 note=59 velocity=109 time=0
EXTRACT: note_on channel=9 note=26 velocity=50 time=0
EXTRACT: note_on channel=9 note=32 velocity=50 time=0
EXTRACT: note_on channel=9 note=42 velocity=70 time=0
EXTRACT: note_on channel=9 note=42 velocity=0 time=0.043918874999999996
EXTRACT: note_on channel=9 note=26 velocity=0 time=0
EXTRACT: note_on channel=9 note=32 velocity=0 time=0
EXTRACT: note_on channel=0 note=71 velocity=0 time=0.050675624999999995
EXTRACT: note_on channel=7 note=59 velocity=0 time=0
EXTRACT: note_on channel=0 note=78 velocity=110 time=0.108108
EXTRACT: note_on channel=7 note=66 velocity=110 time=0
EXTRACT: note_on channel=9 note=26 velocity=30 time=0
EXTRACT: note_on channel=9 note=32 velocity=30 time=0
EXTRACT: note_on channel=9 note=36 velocity=120 time=0
EXTRACT: note_on channel=10 note=52 velocity=120 time=0
EXTRACT: note_on channel=10 note=57 velocity=120 time=0.03378375
EXTRACT: note_on channel=10 note=52 velocity=0 time=0.010135125
EXTRACT: note_on channel=9 note=36 velocity=0 time=0
EXTRACT: note_on channel=9 note=32 velocity=0 time=0
EXTRACT: note_on channel=9 note=26 velocity=0 time=0
EXTRACT: note_on channel=10 note=57 velocity=0 time=0.03378375
EXTRACT: note_on channel=0 note=78 velocity=0 time=0.016891875
EXTRACT: note_on channel=7 note=66 velocity=0 time=0
EXTRACT: note_on channel=0 note=71 velocity=113 time=0.108108
EXTRACT: note_on channel=7 note=59 velocity=113 time=0
EXTRACT: note_on channel=9 note=26 velocity=50 time=0
EXTRACT: note_on channel=9 note=32 velocity=50 time=0
EXTRACT: note_on channel=9 note=42 velocity=80 time=0
EXTRACT: note_on channel=9 note=42 velocity=0 time=0.043918874999999996
EXTRACT: note_on channel=9 note=26 velocity=0 time=0
EXTRACT: note_on channel=9 note=32 velocity=0 time=0
EXTRACT: note_on channel=0 note=71 velocity=0 time=0.050675624999999995
EXTRACT: note_on channel=7 note=59 velocity=0 time=0
EXTRACT: note_on channel=0 note=78 velocity=114 time=0.108108
EXTRACT: note_on channel=7 note=66 velocity=114 time=0
EXTRACT: note_on channel=9 note=26 velocity=30 time=0
EXTRACT: note_on channel=9 note=32 velocity=30 time=0
EXTRACT: note_on channel=9 note=36 velocity=120 time=0
EXTRACT: note_on channel=10 note=52 velocity=120 time=0
EXTRACT: note_on channel=10 note=57 velocity=120 time=0.03378375
EXTRACT: note_on channel=10 note=52 velocity=0 time=0.010135125
EXTRACT: note_on channel=9 note=36 velocity=0 time=0
EXTRACT: note_on channel=9 note=32 velocity=0 time=0
EXTRACT: note_on channel=9 note=26 velocity=0 time=0
EXTRACT: note_on channel=10 note=57 velocity=0 time=0.03378375
EXTRACT: note_on channel=0 note=78 velocity=0 time=0.016891875
EXTRACT: note_on channel=7 note=66 velocity=0 time=0
EXTRACT: note_on channel=0 note=83 velocity=111 time=0.108108
EXTRACT: note_on channel=7 note=71 velocity=111 time=0
EXTRACT: note_on channel=9 note=26 velocity=50 time=0
EXTRACT: note_on channel=9 note=32 velocity=50 time=0
EXTRACT: note_on channel=9 note=36 velocity=120 time=0
EXTRACT: note_on channel=9 note=42 velocity=70 time=0
EXTRACT: note_on channel=10 note=52 velocity=120 time=0
EXTRACT: note_on channel=10 note=57 velocity=120 time=0.03378375
EXTRACT: note_on channel=10 note=52 velocity=0 time=0.010135125
EXTRACT: note_on channel=9 note=42 velocity=0 time=0
EXTRACT: note_on channel=9 note=36 velocity=0 time=0
EXTRACT: note_on channel=9 note=32 velocity=0 time=0
EXTRACT: note_on channel=9 note=26 velocity=0 time=0
EXTRACT: note_on channel=10 note=57 velocity=0 time=0.03378375
EXTRACT: note_on channel=7 note=71 velocity=0 time=0.016891875
EXTRACT: note_on channel=0 note=83 velocity=0 time=0
EXTRACT: note_on channel=0 note=78 velocity=112 time=0.108108
EXTRACT: note_on channel=7 note=66 velocity=112 time=0
EXTRACT: note_on channel=9 note=26 velocity=30 time=0
EXTRACT: note_on channel=9 note=32 velocity=30 time=0
EXTRACT: note_on channel=9 note=32 velocity=0 time=0.043918874999999996
EXTRACT: note_on channel=9 note=26 velocity=0 time=0
EXTRACT: note_on channel=0 note=78 velocity=0 time=0.050675624999999995
EXTRACT: note_on channel=7 note=66 velocity=0 time=0
EXTRACT: note_on channel=0 note=83 velocity=113 time=0.108108
EXTRACT: note_on channel=7 note=71 velocity=113 time=0
EXTRACT: note_on channel=9 note=26 velocity=50 time=0
EXTRACT: note_on channel=9 note=32 velocity=50 time=0
EXTRACT: note_on channel=9 note=38 velocity=120 time=0
EXTRACT: note_on channel=9 note=42 velocity=80 time=0
EXTRACT: note_on channel=9 note=42 velocity=0 time=0.043918874999999996
EXTRACT: note_on channel=9 note=38 velocity=0 time=0
EXTRACT: note_on channel=9 note=26 velocity=0 time=0
EXTRACT: note_on channel=9 note=32 velocity=0 time=0
EXTRACT: note_on channel=0 note=83 velocity=0 time=0.050675624999999995
EXTRACT: note_on channel=7 note=71 velocity=0 time=0
EXTRACT: note_on channel=9 note=26 velocity=30 time=0.108108
EXTRACT: note_on channel=9 note=32 velocity=30 time=0
EXTRACT: note_on channel=9 note=32 velocity=0 time=0.043918874999999996
EXTRACT: note_on channel=9 note=26 velocity=0 time=0
EXTRACT: note_on channel=9 note=26 velocity=50 time=0.15878362499999998
EXTRACT: note_on channel=9 note=32 velocity=50 time=0
EXTRACT: note_on channel=9 note=42 velocity=70 time=0
EXTRACT: note_on channel=9 note=42 velocity=0 time=0.043918874999999996
EXTRACT: note_on channel=9 note=26 velocity=0 time=0
EXTRACT: note_on channel=9 note=32 velocity=0 time=0
EXTRACT: note_on channel=9 note=26 velocity=30 time=0.15878362499999998
EXTRACT: note_on channel=9 note=32 velocity=30 time=0
EXTRACT: note_on channel=12 note=56 velocity=100 time=0
EXTRACT: note_on channel=9 note=32 velocity=0 time=0.043918874999999996
EXTRACT: note_on channel=9 note=26 velocity=0 time=0
EXTRACT: note_on channel=12 note=55 velocity=100 time=0.023648625
EXTRACT: note_on channel=12 note=56 velocity=0 time=0.027027
EXTRACT: note_on channel=12 note=53 velocity=100 time=0.0405405
EXTRACT: note_on channel=12 note=55 velocity=0 time=0.027027
EXTRACT: note_on channel=2 note=59 velocity=0 time=0.03378375
EXTRACT: note_on channel=2 note=62 velocity=0 time=0
EXTRACT: note_on channel=0 note=67 velocity=112 time=0.00675675
EXTRACT: note_on channel=2 note=59 velocity=78 time=0
EXTRACT: note_on channel=2 note=62 velocity=78 time=0
EXTRACT: note_on channel=7 note=55 velocity=112 time=0
EXTRACT: note_on channel=9 note=26 velocity=50 time=0
EXTRACT: note_on channel=9 note=32 velocity=50 time=0
EXTRACT: note_on channel=9 note=36 velocity=120 time=0
EXTRACT: note_on channel=9 note=42 velocity=80 time=0
EXTRACT: note_on channel=10 note=52 velocity=120 time=0
EXTRACT: note_on channel=12 note=50 velocity=114 time=0
EXTRACT: note_on channel=12 note=53 velocity=0 time=0.027027
EXTRACT: note_on channel=10 note=57 velocity=120 time=0.00675675
EXTRACT: note_on channel=10 note=52 velocity=0 time=0.010135125
EXTRACT: note_on channel=9 note=36 velocity=0 time=0
EXTRACT: note_on channel=9 note=42 velocity=0 time=0
EXTRACT: note_on channel=9 note=32 velocity=0 time=0
EXTRACT: note_on channel=9 note=26 velocity=0 time=0
EXTRACT: note_on channel=10 note=57 velocity=0 time=0.03378375
EXTRACT: note_on channel=7 note=55 velocity=0 time=0.016891875
EXTRACT: note_on channel=0 note=67 velocity=0 time=0
EXTRACT: note_on channel=12 note=50 velocity=0 time=0.03378375
EXTRACT: note_on channel=0 note=74 velocity=115 time=0.07432425
EXTRACT: note_on channel=7 note=62 velocity=115 time=0
EXTRACT: note_on channel=9 note=26 velocity=30 time=0
EXTRACT: note_on channel=9 note=32 velocity=30 time=0
EXTRACT: note_on channel=9 note=32 velocity=0 time=0.043918874999999996
EXTRACT: note_on channel=9 note=26 velocity=0 time=0
EXTRACT: note_on channel=0 note=74 velocity=0 time=0.050675624999999995
EXTRACT: note_on channel=7 note=62 velocity=0 time=0
EXTRACT: note_on channel=0 note=79 velocity=118 time=0.108108
EXTRACT: note_on channel=7 note=67 velocity=118 time=0
EXTRACT: note_on channel=9 note=26 velocity=50 time=0
EXTRACT: note_on channel=9 note=32 velocity=50 time=0
EXTRACT: note_on channel=9 note=42 velocity=70 time=0
EXTRACT: note_on channel=9 note=42 velocity=0 time=0.043918874999999996
EXTRACT: note_on channel=9 note=26 velocity=0 time=0
EXTRACT: note_on channel=9 note=32 velocity=0 time=0
EXTRACT: note_on channel=0 note=79 velocity=0 time=0.050675624999999995
EXTRACT: note_on channel=7 note=67 velocity=0 time=0
EXTRACT: note_on channel=0 note=74 velocity=118 time=0.108108
EXTRACT: note_on channel=7 note=62 velocity=118 time=0
EXTRACT: note_on channel=9 note=26 velocity=30 time=0
EXTRACT: note_on channel=9 note=32 velocity=30 time=0
EXTRACT: note_on channel=9 note=32 velocity=0 time=0.043918874999999996
EXTRACT: note_on channel=9 note=26 velocity=0 time=0
EXTRACT: note_on channel=0 note=74 velocity=0 time=0.050675624999999995
EXTRACT: note_on channel=7 note=62 velocity=0 time=0
EXTRACT: note_on channel=0 note=79 velocity=113 time=0.108108
EXTRACT: note_on channel=7 note=67 velocity=113 time=0
EXTRACT: note_on channel=9 note=26 velocity=50 time=0
EXTRACT: note_on channel=9 note=32 velocity=50 time=0
EXTRACT: note_on channel=9 note=38 velocity=120 time=0
EXTRACT: note_on channel=9 note=42 velocity=80 time=0
EXTRACT: note_on channel=9 note=42 velocity=0 time=0.043918874999999996
EXTRACT: note_on channel=9 note=38 velocity=0 time=0
EXTRACT: note_on channel=9 note=26 velocity=0 time=0
EXTRACT: note_on channel=9 note=32 velocity=0 time=0
EXTRACT: note_on channel=0 note=79 velocity=0 time=0.050675624999999995
EXTRACT: note_on channel=7 note=67 velocity=0 time=0
EXTRACT: note_on channel=0 note=74 velocity=113 time=0.108108
EXTRACT: note_on channel=7 note=62 velocity=113 time=0
EXTRACT: note_on channel=9 note=26 velocity=30 time=0
EXTRACT: note_on channel=9 note=32 velocity=30 time=0
EXTRACT: note_on channel=9 note=32 velocity=0 time=0.043918874999999996
EXTRACT: note_on channel=9 note=26 velocity=0 time=0
EXTRACT: note_on channel=0 note=74 velocity=0 time=0.050675624999999995
EXTRACT: note_on channel=7 note=62 velocity=0 time=0
EXTRACT: note_on channel=0 note=67 velocity=109 time=0.108108
EXTRACT: note_on channel=7 note=55 velocity=109 time=0
EXTRACT: note_on channel=9 note=26 velocity=50 time=0
EXTRACT: note_on channel=9 note=32 velocity=50 time=0
EXTRACT: note_on channel=9 note=36 velocity=120 time=0
EXTRACT: note_on channel=9 note=42 velocity=70 time=0
EXTRACT: note_on channel=9 note=42 velocity=0 time=0.043918874999999996
EXTRACT: note_on channel=9 note=36 velocity=0 time=0
EXTRACT: note_on channel=9 note=26 velocity=0 time=0
EXTRACT: note_on channel=9 note=32 velocity=0 time=0
EXTRACT: note_on channel=0 note=67 velocity=0 time=0.050675624999999995
EXTRACT: note_on channel=7 note=55 velocity=0 time=0
EXTRACT: note_on channel=0 note=74 velocity=110 time=0.108108
EXTRACT: note_on channel=7 note=62 velocity=110 time=0
EXTRACT: note_on channel=9 note=26 velocity=30 time=0
EXTRACT: note_on channel=9 note=32 velocity=30 time=0
EXTRACT: note_on channel=9 note=36 velocity=120 time=0
EXTRACT: note_on channel=10 note=52 velocity=120 time=0
EXTRACT: note_on channel=10 note=57 velocity=120 time=0.03378375
EXTRACT: note_on channel=10 note=52 velocity=0 time=0.010135125
EXTRACT: note_on channel=9 note=36 velocity=0 time=0
EXTRACT: note_on channel=9 note=32 velocity=0 time=0
EXTRACT: note_on channel=9 note=26 velocity=0 time=0
EXTRACT: note_on channel=10 note=57 velocity=0 time=0.03378375
EXTRACT: note_on channel=0 note=74 velocity=0 time=0.016891875
EXTRACT: note_on channel=7 note=62 velocity=0 time=0
EXTRACT: note_on channel=0 note=67 velocity=113 time=0.108108
EXTRACT: note_on channel=7 note=55 velocity=113 time=0
EXTRACT: note_on channel=9 note=26 velocity=50 time=0
EXTRACT: note_on channel=9 note=32 velocity=50 time=0
EXTRACT: note_on channel=9 note=42 velocity=80 time=0
EXTRACT: note_on channel=9 note=42 velocity=0 time=0.043918874999999996
EXTRACT: note_on channel=9 note=26 velocity=0 time=0
EXTRACT: note_on channel=9 note=32 velocity=0 time=0
EXTRACT: note_on channel=0 note=67 velocity=0 time=0.050675624999999995
EXTRACT: note_on channel=7 note=55 velocity=0 time=0
EXTRACT: note_on channel=0 note=74 velocity=114 time=0.108108
EXTRACT: note_on channel=7 note=62 velocity=114 time=0
EXTRACT: note_on channel=9 note=26 velocity=30 time=0
EXTRACT: note_on channel=9 note=32 velocity=30 time=0
EXTRACT: note_on channel=9 note=36 velocity=120 time=0
EXTRACT: note_on channel=9 note=38 velocity=120 time=0
EXTRACT: note_on channel=10 note=52 velocity=120 time=0
EXTRACT: note_on channel=10 note=57 velocity=120 time=0.03378375
EXTRACT: note_on channel=10 note=52 velocity=0 time=0.010135125
EXTRACT: note_on channel=9 note=38 velocity=0 time=0
EXTRACT: note_on channel=9 note=36 velocity=0 time=0
EXTRACT: note_on channel=9 note=32 velocity=0 time=0
EXTRACT: note_on channel=9 note=26 velocity=0 time=0
EXTRACT: note_on channel=10 note=57 velocity=0 time=0.03378375
EXTRACT: note_on channel=7 note=62 velocity=0 time=0.016891875
EXTRACT: note_on channel=0 note=74 velocity=0 time=0
EXTRACT: note_on channel=0 note=79 velocity=111 time=0.108108
EXTRACT: note_on channel=7 note=67 velocity=111 time=0
EXTRACT: note_on channel=9 note=26 velocity=50 time=0
EXTRACT: note_on channel=9 note=32 velocity=50 time=0
EXTRACT: note_on channel=9 note=36 velocity=120 time=0
EXTRACT: note_on channel=9 note=42 velocity=70 time=0
EXTRACT: note_on channel=10 note=52 velocity=120 time=0
EXTRACT: note_on channel=10 note=57 velocity=120 time=0.03378375
EXTRACT: note_on channel=10 note=52 velocity=0 time=0.010135125
EXTRACT: note_on channel=9 note=42 velocity=0 time=0
EXTRACT: note_on channel=9 note=36 velocity=0 time=0
EXTRACT: note_on channel=9 note=32 velocity=0 time=0
EXTRACT: note_on channel=9 note=26 velocity=0 time=0
EXTRACT: note_on channel=10 note=57 velocity=0 time=0.03378375
EXTRACT: note_on channel=7 note=67 velocity=0 time=0.016891875
EXTRACT: note_on channel=0 note=79 velocity=0 time=0
EXTRACT: note_on channel=0 note=74 velocity=112 time=0.108108
EXTRACT: note_on channel=7 note=62 velocity=112 time=0
EXTRACT: note_on channel=9 note=26 velocity=30 time=0
EXTRACT: note_on channel=9 note=32 velocity=30 time=0
EXTRACT: note_on channel=9 note=32 velocity=0 time=0.043918874999999996
EXTRACT: note_on channel=9 note=26 velocity=0 time=0
EXTRACT: note_on channel=0 note=74 velocity=0 time=0.050675624999999995
EXTRACT: note_on channel=7 note=62 velocity=0 time=0
EXTRACT: note_on channel=0 note=79 velocity=113 time=0.108108
EXTRACT: note_on channel=7 note=67 velocity=113 time=0
EXTRACT: note_on channel=9 note=26 velocity=50 time=0
EXTRACT: note_on channel=9 note=32 velocity=50 time=0
EXTRACT: note_on channel=9 note=38 velocity=120 time=0
EXTRACT: note_on channel=9 note=42 velocity=80 time=0
EXTRACT: note_on channel=9 note=42 velocity=0 time=0.043918874999999996
EXTRACT: note_on channel=9 note=38 velocity=0 time=0
EXTRACT: note_on channel=9 note=26 velocity=0 time=0
EXTRACT: note_on channel=9 note=32 velocity=0 time=0
EXTRACT: note_on channel=0 note=79 velocity=0 time=0.050675624999999995
EXTRACT: note_on channel=7 note=67 velocity=0 time=0
EXTRACT: note_on channel=9 note=26 velocity=30 time=0.108108
EXTRACT: note_on channel=9 note=32 velocity=30 time=0
EXTRACT: note_on channel=9 note=32 velocity=0 time=0.043918874999999996
EXTRACT: note_on channel=9 note=26 velocity=0 time=0
EXTRACT: note_on channel=9 note=26 velocity=50 time=0.15878362499999998
EXTRACT: note_on channel=9 note=32 velocity=50 time=0
EXTRACT: note_on channel=9 note=36 velocity=114 time=0
EXTRACT: note_on channel=9 note=38 velocity=120 time=0
EXTRACT: note_on channel=9 note=42 velocity=70 time=0
EXTRACT: note_on channel=10 note=52 velocity=114 time=0
EXTRACT: note_on channel=10 note=57 velocity=114 time=0.03378375
EXTRACT: note_on channel=10 note=52 velocity=0 time=0.010135125
EXTRACT: note_on channel=9 note=42 velocity=0 time=0
EXTRACT: note_on channel=9 note=32 velocity=0 time=0
EXTRACT: note_on channel=9 note=36 velocity=0 time=0
EXTRACT: note_on channel=9 note=26 velocity=0 time=0
EXTRACT: note_on channel=9 note=38 velocity=0 time=0
EXTRACT: note_on channel=10 note=57 velocity=0 time=0.03378375
EXTRACT: note_on channel=9 note=26 velocity=30 time=0.124999875
EXTRACT: note_on channel=9 note=32 velocity=30 time=0
EXTRACT: note_on channel=9 note=36 velocity=114 time=0
EXTRACT: note_on channel=9 note=38 velocity=120 time=0
EXTRACT: note_on channel=10 note=52 velocity=114 time=0
EXTRACT: note_on channel=10 note=57 velocity=114 time=0.03378375
EXTRACT: note_on channel=10 note=52 velocity=0 time=0.010135125
EXTRACT: note_on channel=9 note=32 velocity=0 time=0
EXTRACT: note_on channel=9 note=36 velocity=0 time=0
EXTRACT: note_on channel=9 note=26 velocity=0 time=0
EXTRACT: note_on channel=9 note=38 velocity=0 time=0
EXTRACT: note_on channel=10 note=57 velocity=0 time=0.03378375
EXTRACT: note_on channel=2 note=59 velocity=0 time=0.11824312499999999
EXTRACT: note_on channel=2 note=62 velocity=0 time=0
EXTRACT: note_on channel=2 note=62 velocity=78 time=0.00675675
EXTRACT: note_on channel=2 note=66 velocity=78 time=0
EXTRACT: note_on channel=7 note=50 velocity=104 time=0
EXTRACT: note_on channel=8 note=38 velocity=79 time=0
EXTRACT: note_on channel=9 note=26 velocity=50 time=0
EXTRACT: note_on channel=9 note=32 velocity=50 time=0
EXTRACT: note_on channel=9 note=36 velocity=120 time=0
EXTRACT: note_on channel=9 note=42 velocity=80 time=0
EXTRACT: note_on channel=10 note=52 velocity=120 time=0
EXTRACT: note_on channel=10 note=57 velocity=120 time=0.037162125
EXTRACT: note_on channel=10 note=52 velocity=0 time=0.00675675
EXTRACT: note_on channel=9 note=42 velocity=0 time=0
EXTRACT: note_on channel=9 note=36 velocity=0 time=0
EXTRACT: note_on channel=9 note=32 velocity=0 time=0
EXTRACT: note_on channel=9 note=26 velocity=0 time=0
EXTRACT: note_on channel=10 note=57 velocity=0 time=0.037162125
EXTRACT: note_on channel=7 note=50 velocity=0 time=0.11486475
EXTRACT: note_on channel=7 note=54 velocity=93 time=0.00675675
EXTRACT: note_on channel=9 note=26 velocity=30 time=0
EXTRACT: note_on channel=9 note=32 velocity=30 time=0
EXTRACT: note_on channel=9 note=32 velocity=0 time=0.043918874999999996
EXTRACT: note_on channel=9 note=26 velocity=0 time=0
EXTRACT: note_on channel=8 note=38 velocity=0 time=0.152026875
EXTRACT: note_on channel=7 note=54 velocity=0 time=0
EXTRACT: note_on channel=7 note=57 velocity=89 time=0.00675675
EXTRACT: note_on channel=9 note=26 velocity=50 time=0
EXTRACT: note_on channel=9 note=32 velocity=50 time=0
EXTRACT: note_on channel=9 note=42 velocity=70 time=0
EXTRACT: note_on channel=9 note=42 velocity=0 time=0.043918874999999996
EXTRACT: note_on channel=9 note=26 velocity=0 time=0
EXTRACT: note_on channel=9 note=32 velocity=0 time=0
EXTRACT: note_on channel=7 note=57 velocity=0 time=0.152026875
EXTRACT: note_on channel=7 note=54 velocity=77 time=0.00675675
EXTRACT: note_on channel=9 note=26 velocity=30 time=0
EXTRACT: note_on channel=9 note=32 velocity=30 time=0
EXTRACT: note_on channel=9 note=32 velocity=0 time=0.043918874999999996
EXTRACT: note_on channel=9 note=26 velocity=0 time=0
EXTRACT: note_on channel=7 note=54 velocity=0 time=0.152026875
EXTRACT: note_on channel=3 note=62 velocity=121 time=0.00675675
EXTRACT: note_on channel=7 note=57 velocity=98 time=0
EXTRACT: note_on channel=9 note=26 velocity=50 time=0
EXTRACT: note_on channel=9 note=32 velocity=50 time=0
EXTRACT: note_on channel=9 note=38 velocity=120 time=0
EXTRACT: note_on channel=9 note=42 velocity=80 time=0
EXTRACT: note_on channel=9 note=42 velocity=0 time=0.043918874999999996
EXTRACT: note_on channel=9 note=38 velocity=0 time=0
EXTRACT: note_on channel=9 note=26 velocity=0 time=0
EXTRACT: note_on channel=9 note=32 velocity=0 time=0
EXTRACT: note_on channel=3 note=62 velocity=0 time=0.145270125
EXTRACT: note_on channel=7 note=57 velocity=0 time=0.00675675
EXTRACT: note_on channel=7 note=54 velocity=98 time=0.00675675
EXTRACT: note_on channel=9 note=26 velocity=30 time=0
EXTRACT: note_on channel=9 note=32 velocity=30 time=0
EXTRACT: note_on channel=9 note=32 velocity=0 time=0.043918874999999996
EXTRACT: note_on channel=9 note=26 velocity=0 time=0
EXTRACT: note_on channel=7 note=54 velocity=0 time=0.152026875
EXTRACT: note_on channel=3 note=62 velocity=112 time=0.00675675
EXTRACT: note_on channel=7 note=50 velocity=101 time=0
EXTRACT: note_on channel=9 note=26 velocity=50 time=0
EXTRACT: note_on channel=9 note=32 velocity=50 time=0
EXTRACT: note_on channel=9 note=42 velocity=70 time=0
EXTRACT: note_on channel=9 note=42 velocity=0 time=0.043918874999999996
EXTRACT: note_on channel=9 note=26 velocity=0 time=0
EXTRACT: note_on channel=9 note=32 velocity=0 time=0
EXTRACT: note_on channel=7 note=50 velocity=0 time=0.152026875
EXTRACT: note_on channel=7 note=54 velocity=95 time=0.00675675
EXTRACT: note_on channel=9 note=26 velocity=30 time=0
EXTRACT: note_on channel=9 note=32 velocity=30 time=0
EXTRACT: note_on channel=9 note=36 velocity=120 time=0
EXTRACT: note_on channel=10 note=52 velocity=120 time=0
EXTRACT: note_on channel=10 note=57 velocity=120 time=0.03378375
EXTRACT: note_on channel=10 note=52 velocity=0 time=0.010135125
EXTRACT: note_on channel=9 note=36 velocity=0 time=0
EXTRACT: note_on channel=9 note=32 velocity=0 time=0
EXTRACT: note_on channel=9 note=26 velocity=0 time=0
EXTRACT: note_on channel=10 note=57 velocity=0 time=0.03378375
EXTRACT: note_on channel=3 note=62 velocity=0 time=0.023648625
EXTRACT: note_on channel=7 note=54 velocity=0 time=0.0945945
EXTRACT: note_on channel=3 note=62 velocity=112 time=0.00675675
EXTRACT: note_on channel=7 note=50 velocity=104 time=0
EXTRACT: note_on channel=9 note=26 velocity=50 time=0
EXTRACT: note_on channel=9 note=32 velocity=50 time=0
EXTRACT: note_on channel=9 note=42 velocity=80 time=0
EXTRACT: note_on channel=9 note=42 velocity=0 time=0.043918874999999996
EXTRACT: note_on channel=9 note=26 velocity=0 time=0
EXTRACT: note_on channel=9 note=32 velocity=0 time=0
EXTRACT: note_on channel=7 note=50 velocity=0 time=0.152026875
EXTRACT: note_on channel=7 note=54 velocity=86 time=0.00675675
EXTRACT: note_on channel=9 note=26 velocity=30 time=0
EXTRACT: note_on channel=9 note=32 velocity=30 time=0
EXTRACT: note_on channel=9 note=36 velocity=120 time=0
EXTRACT: note_on channel=10 note=52 velocity=120 time=0
EXTRACT: note_on channel=10 note=57 velocity=120 time=0.03378375
EXTRACT: note_on channel=10 note=52 velocity=0 time=0.010135125
EXTRACT: note_on channel=9 note=36 velocity=0 time=0
EXTRACT: note_on channel=9 note=32 velocity=0 time=0
EXTRACT: note_on channel=9 note=26 velocity=0 time=0
EXTRACT: note_on channel=3 note=62 velocity=0 time=0.030405375
EXTRACT: note_on channel=10 note=57 velocity=0 time=0.003378375
EXTRACT: note_on channel=7 note=54 velocity=0 time=0.11824312499999999
EXTRACT: note_on channel=3 note=62 velocity=115 time=0.00675675
EXTRACT: note_on channel=7 note=57 velocity=101 time=0
EXTRACT: note_on channel=9 note=26 velocity=50 time=0
EXTRACT: note_on channel=9 note=32 velocity=50 time=0
EXTRACT: note_on channel=9 note=36 velocity=120 time=0
EXTRACT: note_on channel=9 note=42 velocity=70 time=0
EXTRACT: note_on channel=10 note=52 velocity=120 time=0
EXTRACT: note_on channel=10 note=57 velocity=120 time=0.03378375
EXTRACT: note_on channel=10 note=52 velocity=0 time=0.010135125
EXTRACT: note_on channel=9 note=42 velocity=0 time=0
EXTRACT: note_on channel=9 note=36 velocity=0 time=0
EXTRACT: note_on channel=9 note=32 velocity=0 time=0
EXTRACT: note_on channel=9 note=26 velocity=0 time=0
EXTRACT: note_on channel=10 note=57 velocity=0 time=0.03378375
EXTRACT: note_on channel=7 note=57 velocity=0 time=0.11824312499999999
EXTRACT: note_on channel=7 note=54 velocity=98 time=0.00675675
EXTRACT: note_on channel=9 note=26 velocity=30 time=0
EXTRACT: note_on channel=9 note=32 velocity=30 time=0
EXTRACT: note_on channel=3 note=62 velocity=0 time=0.023648625
EXTRACT: note_on channel=9 note=26 velocity=0 time=0.02027025
EXTRACT: note_on channel=9 note=32 velocity=0 time=0
EXTRACT: note_on channel=7 note=54 velocity=0 time=0.152026875
EXTRACT: note_on channel=3 note=62 velocity=112 time=0.00675675
EXTRACT: note_on channel=4 note=66 velocity=100 time=0
EXTRACT: note_on channel=7 note=57 velocity=101 time=0
EXTRACT: note_on channel=9 note=26 velocity=50 time=0
EXTRACT: note_on channel=9 note=32 velocity=50 time=0
EXTRACT: note_on channel=9 note=38 velocity=120 time=0
EXTRACT: note_on channel=9 note=42 velocity=80 time=0
EXTRACT: note_on channel=15 note=66 velocity=1 time=0
EXTRACT: note_on channel=9 note=42 velocity=0 time=0.043918874999999996
EXTRACT: note_on channel=9 note=38 velocity=0 time=0
EXTRACT: note_on channel=9 note=32 velocity=0 time=0
EXTRACT: note_on channel=9 note=26 velocity=0 time=0
EXTRACT: note_on channel=3 note=62 velocity=0 time=0.131756625
EXTRACT: note_on channel=15 note=66 velocity=0 time=0
EXTRACT: note_on channel=4 note=66 velocity=0 time=0
EXTRACT: note_on channel=7 note=57 velocity=0 time=0.02027025
EXTRACT: note_on channel=7 note=54 velocity=93 time=0.00675675
EXTRACT: note_on channel=9 note=26 velocity=30 time=0
EXTRACT: note_on channel=9 note=32 velocity=30 time=0
EXTRACT: note_on channel=9 note=32 velocity=0 time=0.043918874999999996
EXTRACT: note_on channel=9 note=26 velocity=0 time=0
EXTRACT: note_on channel=7 note=54 velocity=0 time=0.152026875
EXTRACT: note_on channel=3 note=62 velocity=115 time=0.00675675
EXTRACT: note_on channel=4 note=66 velocity=98 time=0
EXTRACT: note_on channel=7 note=50 velocity=90 time=0
EXTRACT: note_on channel=9 note=26 velocity=50 time=0
EXTRACT: note_on channel=9 note=32 velocity=50 time=0
EXTRACT: note_on channel=9 note=42 velocity=70 time=0
EXTRACT: note_on channel=15 note=66 velocity=1 time=0
EXTRACT: note_on channel=9 note=42 velocity=0 time=0.043918874999999996
EXTRACT: note_on channel=9 note=32 velocity=0 time=0
EXTRACT: note_on channel=9 note=26 velocity=0 time=0
EXTRACT: note_on channel=7 note=50 velocity=0 time=0.152026875
EXTRACT: note_on channel=7 note=54 velocity=90 time=0.00675675
EXTRACT: note_on channel=9 note=26 velocity=30 time=0
EXTRACT: note_on channel=9 note=32 velocity=30 time=0
EXTRACT: note_on channel=12 note=67 velocity=100 time=0
EXTRACT: note_on channel=4 note=66 velocity=0 time=0.03378375
EXTRACT: note_on channel=15 note=66 velocity=0 time=0
EXTRACT: note_on channel=3 note=62 velocity=0 time=0
EXTRACT: note_on channel=9 note=32 velocity=0 time=0.010135125
EXTRACT: note_on channel=9 note=26 velocity=0 time=0
EXTRACT: note_on channel=12 note=65 velocity=100 time=0.023648625
EXTRACT: note_on channel=12 note=67 velocity=0 time=0.027027
EXTRACT: note_on channel=12 note=63 velocity=100 time=0.0405405
EXTRACT: note_on channel=12 note=65 velocity=0 time=0.027027
EXTRACT: note_on channel=7 note=54 velocity=0 time=0.03378375
EXTRACT: note_on channel=2 note=62 velocity=0 time=0
EXTRACT: note_on channel=2 note=66 velocity=0 time=0
EXTRACT: note_on channel=2 note=61 velocity=79 time=0.00675675
EXTRACT: note_on channel=2 note=64 velocity=79 time=0
EXTRACT: note_on channel=3 note=64 velocity=118 time=0
EXTRACT: note_on channel=4 note=69 velocity=98 time=0
EXTRACT: note_on channel=7 note=49 velocity=104 time=0
EXTRACT: note_on channel=8 note=37 velocity=79 time=0
EXTRACT: note_on channel=9 note=26 velocity=50 time=0
EXTRACT: note_on channel=9 note=32 velocity=50 time=0
EXTRACT: note_on channel=9 note=36 velocity=120 time=0
EXTRACT: note_on channel=9 note=42 velocity=80 time=0
EXTRACT: note_on channel=10 note=52 velocity=120 time=0
EXTRACT: note_on channel=12 note=61 velocity=114 time=0
EXTRACT: note_on channel=15 note=69 velocity=1 time=0
EXTRACT: note_on channel=12 note=63 velocity=0 time=0.027027
EXTRACT: note_on channel=10 note=57 velocity=120 time=0.00675675
EXTRACT: note_on channel=9 note=42 velocity=0 time=0.010135125
EXTRACT: note_on channel=9 note=26 velocity=0 time=0
EXTRACT: note_on channel=9 note=36 velocity=0 time=0
EXTRACT: note_on channel=9 note=32 velocity=0 time=0
EXTRACT: note_on channel=10 note=52 velocity=0 time=0
EXTRACT: note_on channel=10 note=57 velocity=0 time=0.03378375
EXTRACT: note_on channel=12 note=61 velocity=0 time=0.016891875
EXTRACT: note_on channel=7 note=49 velocity=0 time=0.10135124999999999
EXTRACT: note_on channel=7 note=54 velocity=93 time=0.00675675
EXTRACT: note_on channel=9 note=26 velocity=30 time=0
EXTRACT: note_on channel=9 note=32 velocity=30 time=0
EXTRACT: note_on channel=9 note=32 velocity=0 time=0.043918874999999996
EXTRACT: note_on channel=9 note=26 velocity=0 time=0
EXTRACT: note_on channel=7 note=54 velocity=0 time=0.152026875
EXTRACT: note_on channel=8 note=37 velocity=0 time=0
EXTRACT: note_on channel=7 note=57 velocity=89 time=0.00675675
EXTRACT: note_on channel=9 note=26 velocity=50 time=0
EXTRACT: note_on channel=9 note=32 velocity=50 time=0
EXTRACT: note_on channel=9 note=42 velocity=70 time=0
EXTRACT: note_on channel=9 note=42 velocity=0 time=0.043918874999999996
EXTRACT: note_on channel=9 note=32 velocity=0 time=0
EXTRACT: note_on channel=9 note=26 velocity=0 time=0
EXTRACT: note_on channel=4 note=69 velocity=0 time=0.0135135
EXTRACT: note_on channel=15 note=69 velocity=0 time=0
EXTRACT: note_on channel=3 note=64 velocity=0 time=0
EXTRACT: note_on channel=7 note=57 velocity=0 time=0.138513375
EXTRACT: note_on channel=7 note=54 velocity=77 time=0.00675675
EXTRACT: note_on channel=9 note=26 velocity=30 time=0
EXTRACT: note_on channel=9 note=32 velocity=30 time=0
EXTRACT: note_on channel=9 note=32 velocity=0 time=0.043918874999999996
EXTRACT: note_on channel=9 note=26 velocity=0 time=0
EXTRACT: note_on channel=7 note=54 velocity=0 time=0.152026875
EXTRACT: note_on channel=3 note=61 velocity=115 time=0.00675675
EXTRACT: note_on channel=7 note=57 velocity=98 time=0
EXTRACT: note_on channel=9 note=26 velocity=50 time=0
EXTRACT: note_on channel=9 note=32 velocity=50 time=0
EXTRACT: note_on channel=9 note=38 velocity=120 time=0
EXTRACT: note_on channel=9 note=42 velocity=80 time=0
EXTRACT: note_on channel=9 note=42 velocity=0 time=0.043918874999999996
EXTRACT: note_on channel=9 note=38 velocity=0 time=0
EXTRACT: note_on channel=9 note=26 velocity=0 time=0
EXTRACT: note_on channel=9 note=32 velocity=0 time=0
EXTRACT: note_on channel=7 note=57 velocity=0 time=0.152026875
EXTRACT: note_on channel=3 note=61 velocity=0 time=0.003378375
EXTRACT: note_on channel=7 note=54 velocity=98 time=0.003378375
EXTRACT: note_on channel=9 note=26 velocity=30 time=0
EXTRACT: note_on channel=9 note=32 velocity=30 time=0
EXTRACT: note_on channel=9 note=32 velocity=0 time=0.043918874999999996
EXTRACT: note_on channel=9 note=26 velocity=0 time=0
EXTRACT: note_on channel=7 note=54 velocity=0 time=0.152026875
EXTRACT: note_on channel=3 note=61 velocity=115 time=0.00675675
EXTRACT: note_on channel=7 note=49 velocity=101 time=0
EXTRACT: note_on channel=9 note=26 velocity=50 time=0
EXTRACT: note_on channel=9 note=32 velocity=50 time=0
EXTRACT: note_on channel=9 note=42 velocity=70 time=0
EXTRACT: note_on channel=9 note=42 velocity=0 time=0.043918874999999996
EXTRACT: note_on channel=9 note=26 velocity=0 time=0
EXTRACT: note_on channel=9 note=32 velocity=0 time=0
EXTRACT: note_on channel=7 note=49 velocity=0 time=0.152026875
EXTRACT: note_on channel=7 note=54 velocity=95 time=0.00675675
EXTRACT: note_on channel=9 note=26 velocity=30 time=0
EXTRACT: note_on channel=9 note=32 velocity=30 time=0
EXTRACT: note_on channel=9 note=36 velocity=120 time=0
EXTRACT: note_on channel=10 note=52 velocity=120 time=0
EXTRACT: note_on channel=3 note=61 velocity=0 time=0.030405375
EXTRACT: note_on channel=10 note=57 velocity=120 time=0.003378375
EXTRACT: note_on channel=10 note=52 velocity=0 time=0.010135125
EXTRACT: note_on channel=9 note=26 velocity=0 time=0
EXTRACT: note_on channel=9 note=32 velocity=0 time=0
EXTRACT: note_on channel=9 note=36 velocity=0 time=0
EXTRACT: note_on channel=10 note=57 velocity=0 time=0.03378375
EXTRACT: note_on channel=7 note=54 velocity=0 time=0.11824312499999999
EXTRACT: note_on channel=3 note=61 velocity=109 time=0.00675675
EXTRACT: note_on channel=7 note=49 velocity=104 time=0
EXTRACT: note_on channel=9 note=26 velocity=50 time=0
EXTRACT: note_on channel=9 note=32 velocity=50 time=0
EXTRACT: note_on channel=9 note=42 velocity=80 time=0
EXTRACT: note_on channel=9 note=42 velocity=0 time=0.043918874999999996
EXTRACT: note_on channel=9 note=26 velocity=0 time=0
EXTRACT: note_on channel=9 note=32 velocity=0 time=0
EXTRACT: note_on channel=3 note=61 velocity=0 time=0.10472962499999999
EXTRACT: note_on channel=7 note=49 velocity=0 time=0.04729725
EXTRACT: note_on channel=3 note=61 velocity=81 time=0.00675675
EXTRACT: note_on channel=7 note=54 velocity=86 time=0
EXTRACT: note_on channel=9 note=26 velocity=30 time=0
EXTRACT: note_on channel=9 note=32 velocity=30 time=0
EXTRACT: note_on channel=9 note=36 velocity=120 time=0
EXTRACT: note_on channel=10 note=52 velocity=120 time=0
EXTRACT: note_on channel=10 note=57 velocity=120 time=0.03378375
EXTRACT: note_on channel=10 note=52 velocity=0 time=0.010135125
EXTRACT: note_on channel=9 note=36 velocity=0 time=0
EXTRACT: note_on channel=9 note=32 velocity=0 time=0
EXTRACT: note_on channel=9 note=26 velocity=0 time=0
EXTRACT: note_on channel=10 note=57 velocity=0 time=0.03378375
EXTRACT: note_on channel=3 note=61 velocity=0 time=0.037162125
EXTRACT: note_on channel=7 note=54 velocity=0 time=0.081081
EXTRACT: note_on channel=3 note=61 velocity=112 time=0.00675675
EXTRACT: note_on channel=7 note=57 velocity=101 time=0
EXTRACT: note_on channel=9 note=26 velocity=50 time=0
EXTRACT: note_on channel=9 note=32 velocity=50 time=0
EXTRACT: note_on channel=9 note=36 velocity=120 time=0
EXTRACT: note_on channel=9 note=42 velocity=70 time=0
EXTRACT: note_on channel=10 note=52 velocity=120 time=0
EXTRACT: note_on channel=10 note=57 velocity=120 time=0.03378375
EXTRACT: note_on channel=10 note=52 velocity=0 time=0.010135125
EXTRACT: note_on channel=9 note=42 velocity=0 time=0
EXTRACT: note_on channel=9 note=36 velocity=0 time=0
EXTRACT: note_on channel=9 note=32 velocity=0 time=0
EXTRACT: note_on channel=9 note=26 velocity=0 time=0
EXTRACT: note_on channel=10 note=57 velocity=0 time=0.03378375
EXTRACT: note_on channel=7 note=57 velocity=0 time=0.11824312499999999
EXTRACT: note_on channel=7 note=54 velocity=98 time=0.00675675
EXTRACT: note_on channel=9 note=26 velocity=30 time=0
EXTRACT: note_on channel=9 note=32 velocity=30 time=0
EXTRACT: note_on channel=3 note=61 velocity=0 time=0.0135135
EXTRACT: note_on channel=9 note=26 velocity=0 time=0.030405375
EXTRACT: note_on channel=9 note=32 velocity=0 time=0
EXTRACT: note_on channel=7 note=54 velocity=0 time=0.152026875
EXTRACT: note_on channel=3 note=61 velocity=115 time=0.00675675
EXTRACT: note_on channel=4 note=64 velocity=96 time=0
EXTRACT: note_on channel=7 note=57 velocity=101 time=0
EXTRACT: note_on channel=9 note=26 velocity=50 time=0
EXTRACT: note_on channel=9 note=32 velocity=50 time=0
EXTRACT: note_on channel=9 note=38 velocity=120 time=0
EXTRACT: note_on channel=9 note=42 velocity=80 time=0
EXTRACT: note_on channel=15 note=64 velocity=1 time=0
EXTRACT: note_on channel=9 note=42 velocity=0 time=0.043918874999999996
EXTRACT: note_on channel=9 note=38 velocity=0 time=0
EXTRACT: note_on channel=9 note=32 velocity=0 time=0
EXTRACT: note_on channel=9 note=26 velocity=0 time=0
EXTRACT: note_on channel=7 note=57 velocity=0 time=0.152026875
EXTRACT: note_on channel=4 note=64 velocity=0 time=0.00675675
EXTRACT: note_on channel=15 note=64 velocity=0 time=0
EXTRACT: note_on channel=3 note=61 velocity=0 time=0
EXTRACT: note_on channel=7 note=54 velocity=93 time=0
EXTRACT: note_on channel=9 note=26 velocity=30 time=0
EXTRACT: note_on channel=9 note=32 velocity=30 time=0
EXTRACT: note_on channel=9 note=32 velocity=0 time=0.043918874999999996
EXTRACT: note_on channel=9 note=26 velocity=0 time=0
EXTRACT: note_on channel=7 note=54 velocity=0 time=0.152026875
EXTRACT: note_on channel=3 note=61 velocity=106 time=0.00675675
EXTRACT: note_on channel=4 note=64 velocity=97 time=0
EXTRACT: note_on channel=7 note=49 velocity=90 time=0
EXTRACT: note_on channel=9 note=26 velocity=50 time=0
EXTRACT: note_on channel=9 note=32 velocity=50 time=0
EXTRACT: note_on channel=9 note=36 velocity=114 time=0
EXTRACT: note_on channel=9 note=42 velocity=70 time=0
EXTRACT: note_on channel=10 note=52 velocity=114 time=0
EXTRACT: note_on channel=15 note=64 velocity=1 time=0
EXTRACT: note_on channel=10 note=57 velocity=114 time=0.03378375
EXTRACT: note_on channel=10 note=52 velocity=0 time=0.010135125
EXTRACT: note_on channel=9 note=42 velocity=0 time=0
EXTRACT: note_on channel=9 note=32 velocity=0 time=0
EXTRACT: note_on channel=9 note=36 velocity=0 time=0
EXTRACT: note_on channel=9 note=26 velocity=0 time=0
EXTRACT: note_on channel=10 note=57 velocity=0 time=0.03378375
EXTRACT: note_on channel=7 note=49 velocity=0 time=0.11824312499999999
EXTRACT: note_on channel=7 note=54 velocity=90 time=0.00675675
EXTRACT: note_on channel=9 note=26 velocity=30 time=0
EXTRACT: note_on channel=9 note=32 velocity=30 time=0
EXTRACT: note_on channel=9 note=36 velocity=114 time=0
EXTRACT: note_on channel=10 note=52 velocity=114 time=0
EXTRACT: note_on channel=3 note=61 velocity=0 time=0.0135135
EXTRACT: note_on channel=4 note=64 velocity=0 time=0
EXTRACT: note_on channel=15 note=64 velocity=0 time=0
EXTRACT: note_on channel=10 note=57 velocity=114 time=0.02027025
EXTRACT: note_on channel=9 note=32 velocity=0 time=0.010135125
EXTRACT: note_on channel=9 note=36 velocity=0 time=0
EXTRACT: note_on channel=10 note=52 velocity=0 time=0
EXTRACT: note_on channel=9 note=26 velocity=0 time=0
EXTRACT: note_on channel=10 note=57 velocity=0 time=0.03378375
EXTRACT: note_on channel=7 note=54 velocity=0 time=0.11824312499999999
EXTRACT: note_on channel=2 note=61 velocity=0 time=0
EXTRACT: note_on channel=2 note=64 velocity=0 time=0
EXTRACT: note_on channel=2 note=59 velocity=76 time=0.00675675
EXTRACT: note_on channel=2 note=62 velocity=76 time=0
EXTRACT: note_on channel=3 note=62 velocity=115 time=0
EXTRACT: note_on channel=4 note=66 velocity=97 time=0
EXTRACT: note_on channel=7 note=47 velocity=104 time=0
EXTRACT: note_on channel=8 note=35 velocity=82 time=0
EXTRACT: note_on channel=9 note=26 velocity=50 time=0
EXTRACT: note_on channel=9 note=32 velocity=50 time=0
EXTRACT: note_on channel=9 note=36 velocity=120 time=0
EXTRACT: note_on channel=9 note=42 velocity=80 time=0
EXTRACT: note_on channel=10 note=52 velocity=120 time=0
EXTRACT: note_on channel=15 note=66 velocity=1 time=0
EXTRACT: note_on channel=10 note=57 velocity=120 time=0.037162125
EXTRACT: note_on channel=10 note=52 velocity=0 time=0.00675675
EXTRACT: note_on channel=9 note=42 velocity=0 time=0
EXTRACT: note_on channel=9 note=26 velocity=0 time=0
EXTRACT: note_on channel=9 note=36 velocity=0 time=0
EXTRACT: note_on channel=9 note=32 velocity=0 time=0
EXTRACT: note_on channel=10 note=57 velocity=0 time=0.037162125
EXTRACT: note_on channel=7 note=47 velocity=0 time=0.11486475
EXTRACT: note_on channel=7 note=50 velocity=93 time=0.00675675
EXTRACT: note_on channel=9 note=26 velocity=30 time=0
EXTRACT: note_on channel=9 note=32 velocity=30 time=0
EXTRACT: note_on channel=9 note=32 velocity=0 time=0.043918874999999996
EXTRACT: note_on channel=9 note=26 velocity=0 time=0
EXTRACT: note_on channel=7 note=50 velocity=0 time=0.152026875
EXTRACT: note_on channel=8 note=35 velocity=0 time=0
EXTRACT: note_on channel=7 note=54 velocity=89 time=0.00675675
EXTRACT: note_on channel=9 note=26 velocity=50 time=0
EXTRACT: note_on channel=9 note=32 velocity=50 time=0
EXTRACT: note_on channel=9 note=42 velocity=70 time=0
EXTRACT: note_on channel=9 note=42 velocity=0 time=0.043918874999999996
EXTRACT: note_on channel=9 note=32 velocity=0 time=0
EXTRACT: note_on channel=9 note=26 velocity=0 time=0
EXTRACT: note_on channel=15 note=66 velocity=0 time=0.0405405
EXTRACT: note_on channel=3 note=62 velocity=0 time=0
EXTRACT: note_on channel=4 note=66 velocity=0 time=0
EXTRACT: note_on channel=7 note=54 velocity=0 time=0.111486375
EXTRACT: note_on channel=7 note=52 velocity=77 time=0.00675675
EXTRACT: note_on channel=9 note=26 velocity=30 time=0
EXTRACT: note_on channel=9 note=32 velocity=30 time=0
EXTRACT: note_on channel=9 note=32 velocity=0 time=0.043918874999999996
EXTRACT: note_on channel=9 note=26 velocity=0 time=0
EXTRACT: note_on channel=7 note=52 velocity=0 time=0.152026875
EXTRACT: note_on channel=3 note=59 velocity=109 time=0.00675675
EXTRACT: note_on channel=7 note=54 velocity=98 time=0
EXTRACT: note_on channel=9 note=26 velocity=50 time=0
EXTRACT: note_on channel=9 note=32 velocity=50 time=0
EXTRACT: note_on channel=9 note=38 velocity=120 time=0
EXTRACT: note_on channel=9 note=42 velocity=80 time=0
EXTRACT: note_on channel=9 note=42 velocity=0 time=0.043918874999999996
EXTRACT: note_on channel=9 note=38 velocity=0 time=0
EXTRACT: note_on channel=9 note=26 velocity=0 time=0
EXTRACT: note_on channel=9 note=32 velocity=0 time=0
EXTRACT: note_on channel=3 note=59 velocity=0 time=0.135135
EXTRACT: note_on channel=7 note=54 velocity=0 time=0.016891875
EXTRACT: note_on channel=7 note=50 velocity=98 time=0.00675675
EXTRACT: note_on channel=9 note=26 velocity=30 time=0
EXTRACT: note_on channel=9 note=32 velocity=30 time=0
EXTRACT: note_on channel=9 note=32 velocity=0 time=0.043918874999999996
EXTRACT: note_on channel=9 note=26 velocity=0 time=0
EXTRACT: note_on channel=7 note=50 velocity=0 time=0.152026875
EXTRACT: note_on channel=3 note=59 velocity=109 time=0.00675675
EXTRACT: note_on channel=7 note=47 velocity=101 time=0
EXTRACT: note_on channel=9 note=26 velocity=50 time=0
EXTRACT: note_on channel=9 note=32 velocity=50 time=0
EXTRACT: note_on channel=9 note=42 velocity=70 time=0
EXTRACT: note_on channel=9 note=42 velocity=0 time=0.043918874999999996
EXTRACT: note_on channel=9 note=26 velocity=0 time=0
EXTRACT: note_on channel=9 note=32 velocity=0 time=0
EXTRACT: note_on channel=7 note=47 velocity=0 time=0.152026875
EXTRACT: note_on channel=7 note=50 velocity=95 time=0.00675675
EXTRACT: note_on channel=9 note=26 velocity=30 time=0
EXTRACT: note_on channel=9 note=32 velocity=30 time=0
EXTRACT: note_on channel=9 note=36 velocity=120 time=0
EXTRACT: note_on channel=10 note=52 velocity=120 time=0
EXTRACT: note_on channel=10 note=57 velocity=120 time=0.03378375
EXTRACT: note_on channel=10 note=52 velocity=0 time=0.010135125
EXTRACT: note_on channel=9 note=36 velocity=0 time=0
EXTRACT: note_on channel=9 note=32 velocity=0 time=0
EXTRACT: note_on channel=9 note=26 velocity=0 time=0
EXTRACT: note_on channel=3 note=59 velocity=0 time=0.030405375
EXTRACT: note_on channel=10 note=57 velocity=0 time=0.003378375
EXTRACT: note_on channel=7 note=50 velocity=0 time=0.11824312499999999
EXTRACT: note_on channel=3 note=59 velocity=106 time=0.00675675
EXTRACT: note_on channel=7 note=47 velocity=104 time=0
EXTRACT: note_on channel=9 note=26 velocity=50 time=0
EXTRACT: note_on channel=9 note=32 velocity=50 time=0
EXTRACT: note_on channel=9 note=42 velocity=80 time=0
EXTRACT: note_on channel=9 note=42 velocity=0 time=0.043918874999999996
EXTRACT: note_on channel=9 note=26 velocity=0 time=0
EXTRACT: note_on channel=9 note=32 velocity=0 time=0
EXTRACT: note_on channel=3 note=59 velocity=0 time=0.111486375
EXTRACT: note_on channel=7 note=47 velocity=0 time=0.0405405
EXTRACT: note_on channel=7 note=54 velocity=86 time=0.00675675
EXTRACT: note_on channel=9 note=26 velocity=30 time=0
EXTRACT: note_on channel=9 note=32 velocity=30 time=0
EXTRACT: note_on channel=9 note=36 velocity=120 time=0
EXTRACT: note_on channel=10 note=52 velocity=120 time=0
EXTRACT: note_on channel=10 note=57 velocity=120 time=0.03378375
EXTRACT: note_on channel=10 note=52 velocity=0 time=0.010135125
EXTRACT: note_on channel=9 note=26 velocity=0 time=0
EXTRACT: note_on channel=9 note=32 velocity=0 time=0
EXTRACT: note_on channel=9 note=36 velocity=0 time=0
EXTRACT: note_on channel=10 note=57 velocity=0 time=0.03378375
EXTRACT: note_on channel=7 note=54 velocity=0 time=0.11824312499999999
EXTRACT: note_on channel=3 note=57 velocity=109 time=0.00675675
EXTRACT: note_on channel=7 note=62 velocity=101 time=0
EXTRACT: note_on channel=9 note=26 velocity=50 time=0
EXTRACT: note_on channel=9 note=32 velocity=50 time=0
EXTRACT: note_on channel=9 note=36 velocity=120 time=0
EXTRACT: note_on channel=9 note=42 velocity=70 time=0
EXTRACT: note_on channel=10 note=52 velocity=120 time=0
EXTRACT: note_on channel=10 note=57 velocity=120 time=0.03378375
EXTRACT: note_on channel=10 note=52 velocity=0 time=0.010135125
EXTRACT: note_on channel=9 note=42 velocity=0 time=0
EXTRACT: note_on channel=9 note=36 velocity=0 time=0
EXTRACT: note_on channel=9 note=32 velocity=0 time=0
EXTRACT: note_on channel=9 note=26 velocity=0 time=0
EXTRACT: note_on channel=10 note=57 velocity=0 time=0.03378375
EXTRACT: note_on channel=7 note=62 velocity=0 time=0.11824312499999999
EXTRACT: note_on channel=7 note=61 velocity=98 time=0.00675675
EXTRACT: note_on channel=9 note=26 velocity=30 time=0
EXTRACT: note_on channel=9 note=32 velocity=30 time=0
EXTRACT: note_on channel=3 note=57 velocity=0 time=0.010135125
EXTRACT: note_on channel=9 note=26 velocity=0 time=0.03378375
EXTRACT: note_on channel=9 note=32 velocity=0 time=0
EXTRACT: note_on channel=7 note=61 velocity=0 time=0.152026875
EXTRACT: note_on channel=3 note=59 velocity=115 time=0.00675675
EXTRACT: note_on channel=7 note=62 velocity=101 time=0
EXTRACT: note_on channel=9 note=26 velocity=50 time=0
EXTRACT: note_on channel=9 note=32 velocity=50 time=0
EXTRACT: note_on channel=9 note=38 velocity=120 time=0
EXTRACT: note_on channel=9 note=42 velocity=80 time=0
EXTRACT: note_on channel=9 note=42 velocity=0 time=0.043918874999999996
EXTRACT: note_on channel=9 note=38 velocity=0 time=0
EXTRACT: note_on channel=9 note=26 velocity=0 time=0
EXTRACT: note_on channel=9 note=32 velocity=0 time=0
EXTRACT: note_on channel=3 note=59 velocity=0 time=0.14189174999999998
EXTRACT: note_on channel=7 note=62 velocity=0 time=0.010135125
EXTRACT: note_on channel=7 note=54 velocity=93 time=0.00675675
EXTRACT: note_on channel=9 note=26 velocity=30 time=0
EXTRACT: note_on channel=9 note=32 velocity=30 time=0
EXTRACT: note_on channel=9 note=32 velocity=0 time=0.043918874999999996
EXTRACT: note_on channel=9 note=26 velocity=0 time=0
EXTRACT: note_on channel=7 note=54 velocity=0 time=0.152026875
EXTRACT: note_on channel=3 note=62 velocity=106 time=0.00675675
EXTRACT: note_on channel=7 note=59 velocity=90 time=0
EXTRACT: note_on channel=9 note=26 velocity=50 time=0
EXTRACT: note_on channel=9 note=32 velocity=50 time=0
EXTRACT: note_on channel=9 note=42 velocity=70 time=0
EXTRACT: note_on channel=9 note=42 velocity=0 time=0.043918874999999996
EXTRACT: note_on channel=9 note=26 velocity=0 time=0
EXTRACT: note_on channel=9 note=32 velocity=0 time=0
EXTRACT: note_on channel=7 note=59 velocity=0 time=0.152026875
EXTRACT: note_on channel=7 note=54 velocity=90 time=0.00675675
EXTRACT: note_on channel=9 note=26 velocity=30 time=0
EXTRACT: note_on channel=9 note=32 velocity=30 time=0
EXTRACT: note_on channel=12 note=56 velocity=100 time=0
EXTRACT: note_on channel=9 note=32 velocity=0 time=0.043918874999999996
EXTRACT: note_on channel=9 note=26 velocity=0 time=0
EXTRACT: note_on channel=3 note=62 velocity=0 time=0.016891875
EXTRACT: note_on channel=12 note=55 velocity=100 time=0.00675675
EXTRACT: note_on channel=12 note=56 velocity=0 time=0.027027
EXTRACT: note_on channel=12 note=53 velocity=100 time=0.0405405
EXTRACT: note_on channel=12 note=55 velocity=0 time=0.027027
EXTRACT: note_on channel=2 note=59 velocity=0 time=0.03378375
EXTRACT: note_on channel=2 note=62 velocity=0 time=0
EXTRACT: note_on channel=7 note=54 velocity=0 time=0
EXTRACT: note_on channel=2 note=59 velocity=101 time=0.00675675
EXTRACT: note_on channel=2 note=62 velocity=101 time=0
EXTRACT: note_on channel=2 note=67 velocity=101 time=0
EXTRACT: note_on channel=2 note=69 velocity=101 time=0
EXTRACT: note_on channel=3 note=62 velocity=115 time=0
EXTRACT: note_on channel=7 note=47 velocity=104 time=0
EXTRACT: note_on channel=8 note=31 velocity=81 time=0
EXTRACT: note_on channel=9 note=26 velocity=50 time=0
EXTRACT: note_on channel=9 note=32 velocity=50 time=0
EXTRACT: note_on channel=9 note=36 velocity=120 time=0
EXTRACT: note_on channel=9 note=42 velocity=80 time=0
EXTRACT: note_on channel=10 note=52 velocity=120 time=0
EXTRACT: note_on channel=12 note=50 velocity=114 time=0
EXTRACT: note_on channel=12 note=53 velocity=0 time=0.027027
EXTRACT: note_on channel=10 note=57 velocity=120 time=0.00675675
EXTRACT: note_on channel=9 note=36 velocity=0 time=0.010135125
EXTRACT: note_on channel=9 note=32 velocity=0 time=0
EXTRACT: note_on channel=9 note=26 velocity=0 time=0
EXTRACT: note_on channel=10 note=52 velocity=0 time=0
EXTRACT: note_on channel=9 note=42 velocity=0 time=0
EXTRACT: note_on channel=10 note=57 velocity=0 time=0.03378375
EXTRACT: note_on channel=12 note=50 velocity=0 time=0.050675624999999995
EXTRACT: note_on channel=7 note=47 velocity=0 time=0.0675675
EXTRACT: note_on channel=7 note=50 velocity=93 time=0.00675675
EXTRACT: note_on channel=9 note=26 velocity=30 time=0
EXTRACT: note_on channel=9 note=32 velocity=30 time=0
EXTRACT: note_on channel=9 note=32 velocity=0 time=0.043918874999999996
EXTRACT: note_on channel=9 note=26 velocity=0 time=0
EXTRACT: note_on channel=7 note=50 velocity=0 time=0.152026875
EXTRACT: note_on channel=8 note=31 velocity=0 time=0
EXTRACT: note_on channel=7 note=59 velocity=89 time=0.00675675
EXTRACT: note_on channel=9 note=26 velocity=50 time=0
EXTRACT: note_on channel=9 note=32 velocity=50 time=0
EXTRACT: note_on channel=9 note=42 velocity=70 time=0
EXTRACT: note_on channel=9 note=42 velocity=0 time=0.043918874999999996
EXTRACT: note_on channel=9 note=32 velocity=0 time=0
EXTRACT: note_on channel=9 note=26 velocity=0 time=0
EXTRACT: note_on channel=3 note=62 velocity=0 time=0.124999875
EXTRACT: note_on channel=7 note=59 velocity=0 time=0.027027
EXTRACT: note_on channel=7 note=57 velocity=77 time=0.00675675
EXTRACT: note_on channel=9 note=26 velocity=30 time=0
EXTRACT: note_on channel=9 note=32 velocity=30 time=0
EXTRACT: note_on channel=9 note=32 velocity=0 time=0.043918874999999996
EXTRACT: note_on channel=9 note=26 velocity=0 time=0
EXTRACT: note_on channel=7 note=57 velocity=0 time=0.152026875
EXTRACT: note_on channel=3 note=62 velocity=118 time=0.00675675
EXTRACT: note_on channel=7 note=59 velocity=98 time=0
EXTRACT: note_on channel=9 note=26 velocity=50 time=0
EXTRACT: note_on channel=9 note=32 velocity=50 time=0
EXTRACT: note_on channel=9 note=38 velocity=120 time=0
EXTRACT: note_on channel=9 note=42 velocity=80 time=0
EXTRACT: note_on channel=9 note=42 velocity=0 time=0.043918874999999996
EXTRACT: note_on channel=9 note=38 velocity=0 time=0
EXTRACT: note_on channel=9 note=26 velocity=0 time=0
EXTRACT: note_on channel=9 note=32 velocity=0 time=0
EXTRACT: note_on channel=3 note=62 velocity=0 time=0.08783774999999999
EXTRACT: note_on channel=7 note=59 velocity=0 time=0.064189125
EXTRACT: note_on channel=3 note=59 velocity=104 time=0.00675675
EXTRACT: note_on channel=7 note=55 velocity=98 time=0
EXTRACT: note_on channel=9 note=26 velocity=30 time=0
EXTRACT: note_on channel=9 note=32 velocity=30 time=0
EXTRACT: note_on channel=9 note=32 velocity=0 time=0.043918874999999996
EXTRACT: note_on channel=9 note=26 velocity=0 time=0
EXTRACT: note_on channel=3 note=59 velocity=0 time=0.077702625
EXTRACT: note_on channel=7 note=55 velocity=0 time=0.07432425
EXTRACT: note_on channel=3 note=62 velocity=121 time=0.00675675
EXTRACT: note_on channel=7 note=47 velocity=78 time=0
EXTRACT: note_on channel=9 note=26 velocity=50 time=0
EXTRACT: note_on channel=9 note=32 velocity=50 time=0
EXTRACT: note_on channel=9 note=36 velocity=120 time=0
EXTRACT: note_on channel=9 note=42 velocity=70 time=0
EXTRACT: note_on channel=9 note=42 velocity=0 time=0.043918874999999996
EXTRACT: note_on channel=9 note=36 velocity=0 time=0
EXTRACT: note_on channel=9 note=26 velocity=0 time=0
EXTRACT: note_on channel=9 note=32 velocity=0 time=0
EXTRACT: note_on channel=3 note=62 velocity=0 time=0.081081
EXTRACT: note_on channel=7 note=47 velocity=0 time=0.07094587499999999
EXTRACT: note_on channel=3 note=64 velocity=121 time=0.00675675
EXTRACT: note_on channel=7 note=50 velocity=63 time=0
EXTRACT: note_on channel=9 note=26 velocity=30 time=0
EXTRACT: note_on channel=9 note=32 velocity=30 time=0
EXTRACT: note_on channel=9 note=36 velocity=120 time=0
EXTRACT: note_on channel=10 note=52 velocity=120 time=0
EXTRACT: note_on channel=10 note=57 velocity=120 time=0.03378375
EXTRACT: note_on channel=10 note=52 velocity=0 time=0.010135125
EXTRACT: note_on channel=9 note=36 velocity=0 time=0
EXTRACT: note_on channel=9 note=26 velocity=0 time=0
EXTRACT: note_on channel=9 note=32 velocity=0 time=0
EXTRACT: note_on channel=3 note=64 velocity=0 time=0.030405375
EXTRACT: note_on channel=10 note=57 velocity=0 time=0.003378375
EXTRACT: note_on channel=7 note=50 velocity=0 time=0.11824312499999999
EXTRACT: note_on channel=3 note=64 velocity=115 time=0.00675675
EXTRACT: note_on channel=7 note=47 velocity=76 time=0
EXTRACT: note_on channel=9 note=26 velocity=50 time=0
EXTRACT: note_on channel=9 note=32 velocity=50 time=0
EXTRACT: note_on channel=9 note=42 velocity=80 time=0
EXTRACT: note_on channel=9 note=42 velocity=0 time=0.043918874999999996
EXTRACT: note_on channel=9 note=32 velocity=0 time=0
EXTRACT: note_on channel=9 note=26 velocity=0 time=0
EXTRACT: note_on channel=3 note=64 velocity=0 time=0.08783774999999999
EXTRACT: note_on channel=7 note=47 velocity=0 time=0.064189125
EXTRACT: note_on channel=3 note=59 velocity=92 time=0.00675675
EXTRACT: note_on channel=7 note=50 velocity=86 time=0
EXTRACT: note_on channel=9 note=26 velocity=30 time=0
EXTRACT: note_on channel=9 note=32 velocity=30 time=0
EXTRACT: note_on channel=9 note=36 velocity=120 time=0
EXTRACT: note_on channel=10 note=52 velocity=120 time=0
EXTRACT: note_on channel=10 note=57 velocity=120 time=0.03378375
EXTRACT: note_on channel=10 note=52 velocity=0 time=0.010135125
EXTRACT: note_on channel=9 note=36 velocity=0 time=0
EXTRACT: note_on channel=9 note=26 velocity=0 time=0
EXTRACT: note_on channel=9 note=32 velocity=0 time=0
EXTRACT: note_on channel=10 note=57 velocity=0 time=0.03378375
EXTRACT: note_on channel=3 note=59 velocity=0 time=0.016891875
EXTRACT: note_on channel=7 note=50 velocity=0 time=0.10135124999999999
EXTRACT: note_on channel=3 note=59 velocity=109 time=0.00675675
EXTRACT: note_on channel=7 note=59 velocity=88 time=0
EXTRACT: note_on channel=9 note=26 velocity=50 time=0
EXTRACT: note_on channel=9 note=32 velocity=50 time=0
EXTRACT: note_on channel=9 note=36 velocity=120 time=0
EXTRACT: note_on channel=9 note=42 velocity=70 time=0
EXTRACT: note_on channel=10 note=52 velocity=120 time=0
EXTRACT: note_on channel=13 note=62 velocity=118 time=0
EXTRACT: note_on channel=10 note=57 velocity=120 time=0.03378375
EXTRACT: note_on channel=10 note=52 velocity=0 time=0.010135125
EXTRACT: note_on channel=9 note=42 velocity=0 time=0
EXTRACT: note_on channel=9 note=26 velocity=0 time=0
EXTRACT: note_on channel=9 note=36 velocity=0 time=0
EXTRACT: note_on channel=9 note=32 velocity=0 time=0
EXTRACT: note_on channel=10 note=57 velocity=0 time=0.03378375
EXTRACT: note_on channel=7 note=59 velocity=0 time=0.11824312499999999
EXTRACT: note_on channel=7 note=57 velocity=88 time=0.00675675
EXTRACT: note_on channel=9 note=26 velocity=30 time=0
EXTRACT: note_on channel=9 note=32 velocity=30 time=0
EXTRACT: note_on channel=9 note=32 velocity=0 time=0.043918874999999996
EXTRACT: note_on channel=9 note=26 velocity=0 time=0
EXTRACT: note_on channel=3 note=59 velocity=0 time=0.010135125
EXTRACT: note_on channel=7 note=57 velocity=0 time=0.14189174999999998
EXTRACT: note_on channel=3 note=62 velocity=109 time=0.00675675
EXTRACT: note_on channel=7 note=59 velocity=81 time=0
EXTRACT: note_on channel=9 note=26 velocity=50 time=0
EXTRACT: note_on channel=9 note=32 velocity=50 time=0
EXTRACT: note_on channel=9 note=38 velocity=120 time=0
EXTRACT: note_on channel=9 note=42 velocity=80 time=0
EXTRACT: note_on channel=9 note=42 velocity=0 time=0.043918874999999996
EXTRACT: note_on channel=9 note=26 velocity=0 time=0
EXTRACT: note_on channel=9 note=38 velocity=0 time=0
EXTRACT: note_on channel=9 note=32 velocity=0 time=0
EXTRACT: note_on channel=7 note=59 velocity=0 time=0.152026875
EXTRACT: note_on channel=3 note=62 velocity=0 time=0
EXTRACT: note_on channel=3 note=64 velocity=109 time=0.00675675
EXTRACT: note_on channel=7 note=55 velocity=73 time=0
EXTRACT: note_on channel=3 note=64 velocity=0 time=0.0945945
EXTRACT: note_on channel=7 note=55 velocity=0 time=0.10135124999999999
EXTRACT: note_on channel=3 note=62 velocity=109 time=0.00675675
EXTRACT: note_on channel=7 note=50 velocity=73 time=0
EXTRACT: note_on channel=10 note=52 velocity=114 time=0
EXTRACT: note_on channel=10 note=57 velocity=114 time=0.03378375
EXTRACT: note_on channel=10 note=52 velocity=0 time=0.010135125
EXTRACT: note_on channel=10 note=57 velocity=0 time=0.03378375
EXTRACT: note_on channel=7 note=50 velocity=0 time=0.11824312499999999
EXTRACT: note_on channel=3 note=62 velocity=0 time=0
EXTRACT: note_on channel=3 note=64 velocity=109 time=0.00675675
EXTRACT: note_on channel=7 note=55 velocity=71 time=0
EXTRACT: note_on channel=10 note=52 velocity=114 time=0
EXTRACT: note_on channel=10 note=57 velocity=114 time=0.03378375
EXTRACT: note_on channel=10 note=52 velocity=0 time=0.010135125
EXTRACT: note_on channel=10 note=57 velocity=0 time=0.03378375
EXTRACT: note_on channel=3 note=64 velocity=0 time=0.016891875
EXTRACT: note_on channel=2 note=69 velocity=0 time=0.10135124999999999
EXTRACT: note_on channel=2 note=59 velocity=0 time=0
EXTRACT: note_on channel=2 note=62 velocity=0 time=0
EXTRACT: note_on channel=13 note=62 velocity=0 time=0
EXTRACT: note_on channel=7 note=55 velocity=0 time=0
EXTRACT: note_on channel=2 note=67 velocity=0 time=0
EXTRACT: note_on channel=0 note=74 velocity=112 time=0.00675675
EXTRACT: note_on channel=1 note=38 velocity=121 time=0
EXTRACT: note_on channel=2 note=57 velocity=102 time=0
EXTRACT: note_on channel=2 note=62 velocity=102 time=0
EXTRACT: note_on channel=2 note=66 velocity=102 time=0
EXTRACT: note_on channel=3 note=66 velocity=121 time=0
EXTRACT: note_on channel=5 note=50 velocity=100 time=0
EXTRACT: note_on channel=5 note=54 velocity=100 time=0
EXTRACT: note_on channel=5 note=57 velocity=100 time=0
EXTRACT: note_on channel=5 note=62 velocity=100 time=0
EXTRACT: note_on channel=6 note=45 velocity=99 time=0
EXTRACT: note_on channel=6 note=50 velocity=99 time=0
EXTRACT: note_on channel=7 note=50 velocity=104 time=0
EXTRACT: note_on channel=8 note=38 velocity=79 time=0
EXTRACT: note_on channel=9 note=26 velocity=50 time=0
EXTRACT: note_on channel=9 note=32 velocity=50 time=0
EXTRACT: note_on channel=9 note=36 velocity=120 time=0
EXTRACT: note_on channel=9 note=42 velocity=80 time=0
EXTRACT: note_on channel=9 note=49 velocity=110 time=0
EXTRACT: note_on channel=10 note=52 velocity=120 time=0
EXTRACT: note_on channel=11 note=81 velocity=102 time=0
EXTRACT: note_on channel=11 note=86 velocity=102 time=0
EXTRACT: note_on channel=11 note=90 velocity=102 time=0
EXTRACT: note_on channel=10 note=57 velocity=120 time=0.037162125
EXTRACT: note_on channel=10 note=52 velocity=0 time=0.00675675
EXTRACT: note_on channel=9 note=49 velocity=0 time=0
EXTRACT: note_on channel=9 note=36 velocity=0 time=0
EXTRACT: note_on channel=9 note=32 velocity=0 time=0
EXTRACT: note_on channel=9 note=26 velocity=0 time=0
EXTRACT: note_on channel=9 note=42 velocity=0 time=0
EXTRACT: note_on channel=10 note=57 velocity=0 time=0.037162125
EXTRACT: note_on channel=0 note=74 velocity=0 time=0.0135135
EXTRACT: note_on channel=7 note=50 velocity=0 time=0.10135124999999999
EXTRACT: note_on channel=0 note=78 velocity=115 time=0.00675675
EXTRACT: note_on channel=7 note=54 velocity=93 time=0
EXTRACT: note_on channel=9 note=26 velocity=30 time=0
EXTRACT: note_on channel=9 note=32 velocity=30 time=0
EXTRACT: note_on channel=9 note=32 velocity=0 time=0.043918874999999996
EXTRACT: note_on channel=9 note=26 velocity=0 time=0
EXTRACT: note_on channel=0 note=78 velocity=0 time=0.050675624999999995
EXTRACT: note_on channel=3 note=66 velocity=0 time=0
EXTRACT: note_on channel=7 note=54 velocity=0 time=0.10135124999999999
EXTRACT: note_on channel=8 note=38 velocity=0 time=0
EXTRACT: note_on channel=0 note=81 velocity=118 time=0.00675675
EXTRACT: note_on channel=3 note=69 velocity=121 time=0
EXTRACT: note_on channel=7 note=57 velocity=89 time=0
EXTRACT: note_on channel=9 note=26 velocity=50 time=0
EXTRACT: note_on channel=9 note=32 velocity=50 time=0
EXTRACT: note_on channel=9 note=42 velocity=70 time=0
EXTRACT: note_on channel=9 note=42 velocity=0 time=0.043918874999999996
EXTRACT: note_on channel=9 note=32 velocity=0 time=0
EXTRACT: note_on channel=9 note=26 velocity=0 time=0
EXTRACT: note_on channel=0 note=81 velocity=0 time=0.050675624999999995
EXTRACT: note_on channel=7 note=57 velocity=0 time=0.10135124999999999
EXTRACT: note_on channel=0 note=78 velocity=118 time=0.00675675
EXTRACT: note_on channel=7 note=54 velocity=77 time=0
EXTRACT: note_on channel=9 note=26 velocity=30 time=0
EXTRACT: note_on channel=9 note=32 velocity=30 time=0
EXTRACT: note_on channel=9 note=32 velocity=0 time=0.043918874999999996
EXTRACT: note_on channel=9 note=26 velocity=0 time=0
EXTRACT: note_on channel=3 note=69 velocity=0 time=0.0135135
EXTRACT: note_on channel=0 note=78 velocity=0 time=0.037162125
EXTRACT: note_on channel=7 note=54 velocity=0 time=0.10135124999999999
EXTRACT: note_on channel=0 note=81 velocity=113 time=0.00675675
EXTRACT: note_on channel=3 note=66 velocity=121 time=0
EXTRACT: note_on channel=7 note=57 velocity=98 time=0
EXTRACT: note_on channel=9 note=26 velocity=50 time=0
EXTRACT: note_on channel=9 note=32 velocity=50 time=0
EXTRACT: note_on channel=9 note=38 velocity=120 time=0
EXTRACT: note_on channel=9 note=42 velocity=80 time=0
EXTRACT: note_on channel=9 note=42 velocity=0 time=0.043918874999999996
EXTRACT: note_on channel=9 note=38 velocity=0 time=0
EXTRACT: note_on channel=9 note=26 velocity=0 time=0
EXTRACT: note_on channel=9 note=32 velocity=0 time=0
EXTRACT: note_on channel=0 note=81 velocity=0 time=0.050675624999999995
EXTRACT: note_on channel=7 note=57 velocity=0 time=0.10135124999999999
EXTRACT: note_on channel=0 note=78 velocity=113 time=0.00675675
EXTRACT: note_on channel=7 note=54 velocity=98 time=0
EXTRACT: note_on channel=9 note=26 velocity=30 time=0
EXTRACT: note_on channel=9 note=32 velocity=30 time=0
EXTRACT: note_on channel=9 note=32 velocity=0 time=0.043918874999999996
EXTRACT: note_on channel=9 note=26 velocity=0 time=0
EXTRACT: note_on channel=0 note=78 velocity=0 time=0.050675624999999995
EXTRACT: note_on channel=7 note=54 velocity=0 time=0.10135124999999999
EXTRACT: note_on channel=0 note=74 velocity=109 time=0.00675675
EXTRACT: note_on channel=7 note=50 velocity=101 time=0
EXTRACT: note_on channel=9 note=26 velocity=50 time=0
EXTRACT: note_on channel=9 note=32 velocity=50 time=0
EXTRACT: note_on channel=9 note=42 velocity=70 time=0
EXTRACT: note_on channel=9 note=42 velocity=0 time=0.043918874999999996
EXTRACT: note_on channel=9 note=32 velocity=0 time=0
EXTRACT: note_on channel=9 note=26 velocity=0 time=0
EXTRACT: note_on channel=0 note=74 velocity=0 time=0.050675624999999995
EXTRACT: note_on channel=7 note=50 velocity=0 time=0.10135124999999999
EXTRACT: note_on channel=1 note=38 velocity=0 time=0
EXTRACT: note_on channel=0 note=78 velocity=110 time=0.00675675
EXTRACT: note_on channel=1 note=38 velocity=121 time=0
EXTRACT: note_on channel=7 note=54 velocity=95 time=0
EXTRACT: note_on channel=9 note=26 velocity=30 time=0
EXTRACT: note_on channel=9 note=32 velocity=30 time=0
EXTRACT: note_on channel=9 note=36 velocity=120 time=0
EXTRACT: note_on channel=10 note=52 velocity=120 time=0
EXTRACT: note_on channel=10 note=57 velocity=120 time=0.03378375
EXTRACT: note_on channel=10 note=52 velocity=0 time=0.010135125
EXTRACT: note_on channel=9 note=36 velocity=0 time=0
EXTRACT: note_on channel=9 note=26 velocity=0 time=0
EXTRACT: note_on channel=9 note=32 velocity=0 time=0
EXTRACT: note_on channel=10 note=57 velocity=0 time=0.03378375
EXTRACT: note_on channel=0 note=78 velocity=0 time=0.016891875
EXTRACT: note_on channel=7 note=54 velocity=0 time=0.10135124999999999
EXTRACT: note_on channel=0 note=74 velocity=113 time=0.00675675
EXTRACT: note_on channel=7 note=50 velocity=104 time=0
EXTRACT: note_on channel=9 note=26 velocity=50 time=0
EXTRACT: note_on channel=9 note=32 velocity=50 time=0
EXTRACT: note_on channel=9 note=42 velocity=80 time=0
EXTRACT: note_on channel=9 note=42 velocity=0 time=0.043918874999999996
EXTRACT: note_on channel=9 note=32 velocity=0 time=0
EXTRACT: note_on channel=9 note=26 velocity=0 time=0
EXTRACT: note_on channel=0 note=74 velocity=0 time=0.050675624999999995
EXTRACT: note_on channel=7 note=50 velocity=0 time=0.10135124999999999
EXTRACT: note_on channel=1 note=38 velocity=0 time=0
EXTRACT: note_on channel=0 note=78 velocity=114 time=0.00675675
EXTRACT: note_on channel=1 note=38 velocity=121 time=0
EXTRACT: note_on channel=7 note=54 velocity=86 time=0
EXTRACT: note_on channel=9 note=26 velocity=30 time=0
EXTRACT: note_on channel=9 note=32 velocity=30 time=0
EXTRACT: note_on channel=9 note=36 velocity=120 time=0
EXTRACT: note_on channel=10 note=52 velocity=120 time=0
EXTRACT: note_on channel=3 note=66 velocity=0 time=0.003378375
EXTRACT: note_on channel=10 note=57 velocity=120 time=0.030405375
EXTRACT: note_on channel=10 note=52 velocity=0 time=0.010135125
EXTRACT: note_on channel=9 note=32 velocity=0 time=0
EXTRACT: note_on channel=9 note=26 velocity=0 time=0
EXTRACT: note_on channel=9 note=36 velocity=0 time=0
EXTRACT: note_on channel=10 note=57 velocity=0 time=0.03378375
EXTRACT: note_on channel=0 note=78 velocity=0 time=0.016891875
EXTRACT: note_on channel=7 note=54 velocity=0 time=0.10135124999999999
EXTRACT: note_on channel=1 note=38 velocity=0 time=0
EXTRACT: note_on channel=0 note=81 velocity=111 time=0.00675675
EXTRACT: note_on channel=1 note=38 velocity=121 time=0
EXTRACT: note_on channel=7 note=57 velocity=101 time=0
EXTRACT: note_on channel=9 note=26 velocity=50 time=0
EXTRACT: note_on channel=9 note=32 velocity=50 time=0
EXTRACT: note_on channel=9 note=36 velocity=120 time=0
EXTRACT: note_on channel=9 note=42 velocity=70 time=0
EXTRACT: note_on channel=10 note=52 velocity=120 time=0
EXTRACT: note_on channel=10 note=57 velocity=120 time=0.03378375
EXTRACT: note_on channel=10 note=52 velocity=0 time=0.010135125
EXTRACT: note_on channel=9 note=42 velocity=0 time=0
EXTRACT: note_on channel=9 note=32 velocity=0 time=0
EXTRACT: note_on channel=9 note=26 velocity=0 time=0
EXTRACT: note_on channel=9 note=36 velocity=0 time=0
EXTRACT: note_on channel=10 note=57 velocity=0 time=0.03378375
EXTRACT: note_on channel=0 note=81 velocity=0 time=0.016891875
EXTRACT: note_on channel=7 note=57 velocity=0 time=0.10135124999999999
EXTRACT: note_on channel=0 note=78 velocity=112 time=0.00675675
EXTRACT: note_on channel=7 note=54 velocity=98 time=0
EXTRACT: note_on channel=9 note=26 velocity=30 time=0
EXTRACT: note_on channel=9 note=32 velocity=30 time=0
EXTRACT: note_on channel=9 note=32 velocity=0 time=0.043918874999999996
EXTRACT: note_on channel=9 note=26 velocity=0 time=0
EXTRACT: note_on channel=0 note=78 velocity=0 time=0.050675624999999995
EXTRACT: note_on channel=7 note=54 velocity=0 time=0.10135124999999999
EXTRACT: note_on channel=0 note=81 velocity=113 time=0.00675675
EXTRACT: note_on channel=3 note=62 velocity=109 time=0
EXTRACT: note_on channel=7 note=57 velocity=101 time=0
EXTRACT: note_on channel=9 note=26 velocity=50 time=0
EXTRACT: note_on channel=9 note=32 velocity=50 time=0
EXTRACT: note_on channel=9 note=38 velocity=120 time=0
EXTRACT: note_on channel=9 note=42 velocity=80 time=0
EXTRACT: note_on channel=9 note=42 velocity=0 time=0.043918874999999996
EXTRACT: note_on channel=9 note=38 velocity=0 time=0
EXTRACT: note_on channel=9 note=26 velocity=0 time=0
EXTRACT: note_on channel=9 note=32 velocity=0 time=0
EXTRACT: note_on channel=3 note=62 velocity=0 time=0.043918874999999996
EXTRACT: note_on channel=0 note=81 velocity=0 time=0.00675675
EXTRACT: note_on channel=7 note=57 velocity=0 time=0.10135124999999999
EXTRACT: note_on channel=0 note=78 velocity=115 time=0.00675675
EXTRACT: note_on channel=3 note=62 velocity=101 time=0
EXTRACT: note_on channel=7 note=54 velocity=93 time=0
EXTRACT: note_on channel=9 note=26 velocity=30 time=0
EXTRACT: note_on channel=9 note=32 velocity=30 time=0
EXTRACT: note_on channel=9 note=32 velocity=0 time=0.043918874999999996
EXTRACT: note_on channel=9 note=26 velocity=0 time=0
EXTRACT: note_on channel=3 note=62 velocity=0 time=0.050675624999999995
EXTRACT: note_on channel=0 note=78 velocity=0 time=0
EXTRACT: note_on channel=7 note=54 velocity=0 time=0.10135124999999999
EXTRACT: note_on channel=0 note=74 velocity=115 time=0.00675675
EXTRACT: note_on channel=3 note=62 velocity=104 time=0
EXTRACT: note_on channel=7 note=50 velocity=90 time=0
EXTRACT: note_on channel=9 note=26 velocity=50 time=0
EXTRACT: note_on channel=9 note=32 velocity=50 time=0
EXTRACT: note_on channel=9 note=42 velocity=70 time=0
EXTRACT: note_on channel=9 note=42 velocity=0 time=0.043918874999999996
EXTRACT: note_on channel=9 note=32 velocity=0 time=0
EXTRACT: note_on channel=9 note=26 velocity=0 time=0
EXTRACT: note_on channel=0 note=74 velocity=0 time=0.050675624999999995
EXTRACT: note_on channel=3 note=62 velocity=0 time=0.054054
EXTRACT: note_on channel=7 note=50 velocity=0 time=0.04729725
EXTRACT: note_on channel=0 note=78 velocity=115 time=0.00675675
EXTRACT: note_on channel=3 note=64 velocity=104 time=0
EXTRACT: note_on channel=7 note=54 velocity=90 time=0
EXTRACT: note_on channel=9 note=26 velocity=30 time=0
EXTRACT: note_on channel=9 note=32 velocity=30 time=0
EXTRACT: note_on channel=9 note=32 velocity=0 time=0.043918874999999996
EXTRACT: note_on channel=9 note=26 velocity=0 time=0
EXTRACT: note_on channel=0 note=78 velocity=0 time=0.050675624999999995
EXTRACT: note_on channel=3 note=64 velocity=0 time=0.027027
EXTRACT: note_on channel=6 note=50 velocity=0 time=0.07432425
EXTRACT: note_on channel=1 note=38 velocity=0 time=0
EXTRACT: note_on channel=5 note=57 velocity=0 time=0
EXTRACT: note_on channel=2 note=57 velocity=0 time=0
EXTRACT: note_on channel=11 note=90 velocity=0 time=0
EXTRACT: note_on channel=11 note=81 velocity=0 time=0
EXTRACT: note_on channel=7 note=54 velocity=0 time=0
EXTRACT: note_on channel=2 note=62 velocity=0 time=0
EXTRACT: note_on channel=5 note=54 velocity=0 time=0
EXTRACT: note_on channel=5 note=50 velocity=0 time=0
EXTRACT: note_on channel=11 note=86 velocity=0 time=0
EXTRACT: note_on channel=6 note=45 velocity=0 time=0
EXTRACT: note_on channel=2 note=66 velocity=0 time=0
EXTRACT: note_on channel=5 note=62 velocity=0 time=0
EXTRACT: note_on channel=0 note=73 velocity=112 time=0.00675675
EXTRACT: note_on channel=1 note=37 velocity=120 time=0
EXTRACT: note_on channel=2 note=57 velocity=100 time=0
EXTRACT: note_on channel=2 note=61 velocity=100 time=0
EXTRACT: note_on channel=2 note=66 velocity=100 time=0
EXTRACT: note_on channel=3 note=66 velocity=118 time=0
EXTRACT: note_on channel=5 note=49 velocity=99 time=0
EXTRACT: note_on channel=5 note=54 velocity=99 time=0
EXTRACT: note_on channel=5 note=57 velocity=99 time=0
EXTRACT: note_on channel=5 note=61 velocity=99 time=0
EXTRACT: note_on channel=6 note=42 velocity=101 time=0
EXTRACT: note_on channel=6 note=49 velocity=101 time=0
EXTRACT: note_on channel=7 note=49 velocity=104 time=0
EXTRACT: note_on channel=8 note=37 velocity=79 time=0
EXTRACT: note_on channel=9 note=26 velocity=50 time=0
EXTRACT: note_on channel=9 note=32 velocity=50 time=0
EXTRACT: note_on channel=9 note=36 velocity=120 time=0
EXTRACT: note_on channel=9 note=42 velocity=80 time=0
EXTRACT: note_on channel=10 note=52 velocity=120 time=0
EXTRACT: note_on channel=11 note=81 velocity=100 time=0
EXTRACT: note_on channel=11 note=85 velocity=100 time=0
EXTRACT: note_on channel=11 note=90 velocity=100 time=0
EXTRACT: note_on channel=10 note=57 velocity=120 time=0.03378375
EXTRACT: note_on channel=10 note=52 velocity=0 time=0.010135125
EXTRACT: note_on channel=9 note=42 velocity=0 time=0
EXTRACT: note_on channel=9 note=36 velocity=0 time=0
EXTRACT: note_on channel=9 note=32 velocity=0 time=0
EXTRACT: note_on channel=9 note=26 velocity=0 time=0
EXTRACT: note_on channel=10 note=57 velocity=0 time=0.03378375
EXTRACT: note_on channel=0 note=73 velocity=0 time=0.016891875
EXTRACT: note_on channel=7 note=49 velocity=0 time=0.10135124999999999
EXTRACT: note_on channel=0 note=78 velocity=115 time=0.00675675
EXTRACT: note_on channel=7 note=54 velocity=93 time=0
EXTRACT: note_on channel=9 note=26 velocity=30 time=0
EXTRACT: note_on channel=9 note=32 velocity=30 time=0
EXTRACT: note_on channel=9 note=32 velocity=0 time=0.043918874999999996
EXTRACT: note_on channel=9 note=26 velocity=0 time=0
EXTRACT: note_on channel=3 note=66 velocity=0 time=0.0405405
EXTRACT: note_on channel=0 note=78 velocity=0 time=0.010135125
EXTRACT: note_on channel=7 note=54 velocity=0 time=0.10135124999999999
EXTRACT: note_on channel=8 note=37 velocity=0 time=0
EXTRACT: note_on channel=0 note=81 velocity=118 time=0.00675675
EXTRACT: note_on channel=3 note=69 velocity=118 time=0
EXTRACT: note_on channel=7 note=57 velocity=89 time=0
EXTRACT: note_on channel=9 note=26 velocity=50 time=0
EXTRACT: note_on channel=9 note=32 velocity=50 time=0
EXTRACT: note_on channel=9 note=42 velocity=70 time=0
EXTRACT: note_on channel=9 note=42 velocity=0 time=0.043918874999999996
EXTRACT: note_on channel=9 note=32 velocity=0 time=0
EXTRACT: note_on channel=9 note=26 velocity=0 time=0
EXTRACT: note_on channel=0 note=81 velocity=0 time=0.050675624999999995
EXTRACT: note_on channel=7 note=57 velocity=0 time=0.10135124999999999
EXTRACT: note_on channel=0 note=78 velocity=118 time=0.00675675
EXTRACT: note_on channel=7 note=54 velocity=77 time=0
EXTRACT: note_on channel=9 note=26 velocity=30 time=0
EXTRACT: note_on channel=9 note=32 velocity=30 time=0
EXTRACT: note_on channel=9 note=32 velocity=0 time=0.043918874999999996
EXTRACT: note_on channel=9 note=26 velocity=0 time=0
EXTRACT: note_on channel=3 note=69 velocity=0 time=0.030405375
EXTRACT: note_on channel=0 note=78 velocity=0 time=0.02027025
EXTRACT: note_on channel=7 note=54 velocity=0 time=0.10135124999999999
EXTRACT: note_on channel=0 note=81 velocity=113 time=0.00675675
EXTRACT: note_on channel=3 note=66 velocity=121 time=0
EXTRACT: note_on channel=7 note=57 velocity=98 time=0
EXTRACT: note_on channel=9 note=26 velocity=50 time=0
EXTRACT: note_on channel=9 note=32 velocity=50 time=0
EXTRACT: note_on channel=9 note=38 velocity=120 time=0
EXTRACT: note_on channel=9 note=42 velocity=80 time=0
EXTRACT: note_on channel=9 note=42 velocity=0 time=0.043918874999999996
EXTRACT: note_on channel=9 note=38 velocity=0 time=0
EXTRACT: note_on channel=9 note=26 velocity=0 time=0
EXTRACT: note_on channel=9 note=32 velocity=0 time=0
EXTRACT: note_on channel=0 note=81 velocity=0 time=0.050675624999999995
EXTRACT: note_on channel=7 note=57 velocity=0 time=0.10135124999999999
EXTRACT: note_on channel=0 note=78 velocity=113 time=0.00675675
EXTRACT: note_on channel=7 note=54 velocity=98 time=0
EXTRACT: note_on channel=9 note=26 velocity=30 time=0
EXTRACT: note_on channel=9 note=32 velocity=30 time=0
EXTRACT: note_on channel=9 note=32 velocity=0 time=0.043918874999999996
EXTRACT: note_on channel=9 note=26 velocity=0 time=0
EXTRACT: note_on channel=0 note=78 velocity=0 time=0.050675624999999995
EXTRACT: note_on channel=7 note=54 velocity=0 time=0.10135124999999999
EXTRACT: note_on channel=0 note=73 velocity=109 time=0.00675675
EXTRACT: note_on channel=7 note=49 velocity=101 time=0
EXTRACT: note_on channel=9 note=26 velocity=50 time=0
EXTRACT: note_on channel=9 note=32 velocity=50 time=0
EXTRACT: note_on channel=9 note=42 velocity=70 time=0
EXTRACT: note_on channel=9 note=42 velocity=0 time=0.043918874999999996
EXTRACT: note_on channel=9 note=32 velocity=0 time=0
EXTRACT: note_on channel=9 note=26 velocity=0 time=0
EXTRACT: note_on channel=0 note=73 velocity=0 time=0.050675624999999995
EXTRACT: note_on channel=7 note=49 velocity=0 time=0.10135124999999999
EXTRACT: note_on channel=1 note=37 velocity=0 time=0
EXTRACT: note_on channel=0 note=78 velocity=110 time=0.00675675
EXTRACT: note_on channel=1 note=37 velocity=120 time=0
EXTRACT: note_on channel=7 note=54 velocity=95 time=0
EXTRACT: note_on channel=9 note=26 velocity=30 time=0
EXTRACT: note_on channel=9 note=32 velocity=30 time=0
EXTRACT: note_on channel=9 note=36 velocity=120 time=0
EXTRACT: note_on channel=10 note=52 velocity=120 time=0
EXTRACT: note_on channel=10 note=57 velocity=120 time=0.03378375
EXTRACT: note_on channel=10 note=52 velocity=0 time=0.010135125
EXTRACT: note_on channel=9 note=36 velocity=0 time=0
EXTRACT: note_on channel=9 note=26 velocity=0 time=0
EXTRACT: note_on channel=9 note=32 velocity=0 time=0
EXTRACT: note_on channel=10 note=57 velocity=0 time=0.03378375
EXTRACT: note_on channel=0 note=78 velocity=0 time=0.016891875
EXTRACT: note_on channel=7 note=54 velocity=0 time=0.10135124999999999
EXTRACT: note_on channel=0 note=73 velocity=113 time=0.00675675
EXTRACT: note_on channel=7 note=49 velocity=104 time=0
EXTRACT: note_on channel=9 note=26 velocity=50 time=0
EXTRACT: note_on channel=9 note=32 velocity=50 time=0
EXTRACT: note_on channel=9 note=42 velocity=80 time=0
EXTRACT: note_on channel=9 note=42 velocity=0 time=0.043918874999999996
EXTRACT: note_on channel=9 note=32 velocity=0 time=0
EXTRACT: note_on channel=9 note=26 velocity=0 time=0
EXTRACT: note_on channel=0 note=73 velocity=0 time=0.050675624999999995
EXTRACT: note_on channel=3 note=66 velocity=0 time=0.091216125
EXTRACT: note_on channel=7 note=49 velocity=0 time=0.010135125
EXTRACT: note_on channel=1 note=37 velocity=0 time=0
EXTRACT: note_on channel=0 note=78 velocity=114 time=0.00675675
EXTRACT: note_on channel=1 note=37 velocity=120 time=0
EXTRACT: note_on channel=7 note=54 velocity=86 time=0
EXTRACT: note_on channel=9 note=26 velocity=30 time=0
EXTRACT: note_on channel=9 note=32 velocity=30 time=0
EXTRACT: note_on channel=9 note=36 velocity=120 time=0
EXTRACT: note_on channel=10 note=52 velocity=120 time=0
EXTRACT: note_on channel=10 note=57 velocity=120 time=0.03378375
EXTRACT: note_on channel=10 note=52 velocity=0 time=0.010135125
EXTRACT: note_on channel=9 note=36 velocity=0 time=0
EXTRACT: note_on channel=9 note=32 velocity=0 time=0
EXTRACT: note_on channel=9 note=26 velocity=0 time=0
EXTRACT: note_on channel=10 note=57 velocity=0 time=0.03378375
EXTRACT: note_on channel=0 note=78 velocity=0 time=0.016891875
EXTRACT: note_on channel=7 note=54 velocity=0 time=0.10135124999999999
EXTRACT: note_on channel=1 note=37 velocity=0 time=0
EXTRACT: note_on channel=0 note=81 velocity=111 time=0.00675675
EXTRACT: note_on channel=1 note=37 velocity=120 time=0
EXTRACT: note_on channel=7 note=57 velocity=101 time=0
EXTRACT: note_on channel=9 note=26 velocity=50 time=0
EXTRACT: note_on channel=9 note=32 velocity=50 time=0
EXTRACT: note_on channel=9 note=36 velocity=120 time=0
EXTRACT: note_on channel=9 note=42 velocity=70 time=0
EXTRACT: note_on channel=10 note=52 velocity=120 time=0
EXTRACT: note_on channel=10 note=57 velocity=120 time=0.03378375
EXTRACT: note_on channel=10 note=52 velocity=0 time=0.010135125
EXTRACT: note_on channel=9 note=42 velocity=0 time=0
EXTRACT: note_on channel=9 note=32 velocity=0 time=0
EXTRACT: note_on channel=9 note=26 velocity=0 time=0
EXTRACT: note_on channel=9 note=36 velocity=0 time=0
EXTRACT: note_on channel=10 note=57 velocity=0 time=0.03378375
EXTRACT: note_on channel=0 note=81 velocity=0 time=0.016891875
EXTRACT: note_on channel=7 note=57 velocity=0 time=0.10135124999999999
EXTRACT: note_on channel=0 note=78 velocity=112 time=0.00675675
EXTRACT: note_on channel=7 note=54 velocity=98 time=0
EXTRACT: note_on channel=9 note=26 velocity=30 time=0
EXTRACT: note_on channel=9 note=32 velocity=30 time=0
EXTRACT: note_on channel=9 note=32 velocity=0 time=0.043918874999999996
EXTRACT: note_on channel=9 note=26 velocity=0 time=0
EXTRACT: note_on channel=0 note=78 velocity=0 time=0.050675624999999995
EXTRACT: note_on channel=7 note=54 velocity=0 time=0.10135124999999999
EXTRACT: note_on channel=0 note=81 velocity=113 time=0.00675675
EXTRACT: note_on channel=3 note=62 velocity=109 time=0
EXTRACT: note_on channel=7 note=57 velocity=101 time=0
EXTRACT: note_on channel=9 note=26 velocity=50 time=0
EXTRACT: note_on channel=9 note=32 velocity=50 time=0
EXTRACT: note_on channel=9 note=38 velocity=120 time=0
EXTRACT: note_on channel=9 note=42 velocity=80 time=0
EXTRACT: note_on channel=9 note=42 velocity=0 time=0.043918874999999996
EXTRACT: note_on channel=9 note=38 velocity=0 time=0
EXTRACT: note_on channel=9 note=26 velocity=0 time=0
EXTRACT: note_on channel=9 note=32 velocity=0 time=0
EXTRACT: note_on channel=3 note=62 velocity=0 time=0.043918874999999996
EXTRACT: note_on channel=0 note=81 velocity=0 time=0.00675675
EXTRACT: note_on channel=7 note=57 velocity=0 time=0.10135124999999999
EXTRACT: note_on channel=0 note=78 velocity=115 time=0.00675675
EXTRACT: note_on channel=3 note=62 velocity=101 time=0
EXTRACT: note_on channel=7 note=54 velocity=93 time=0
EXTRACT: note_on channel=9 note=26 velocity=30 time=0
EXTRACT: note_on channel=9 note=32 velocity=30 time=0
EXTRACT: note_on channel=9 note=32 velocity=0 time=0.043918874999999996
EXTRACT: note_on channel=9 note=26 velocity=0 time=0
EXTRACT: note_on channel=3 note=62 velocity=0 time=0.050675624999999995
EXTRACT: note_on channel=0 note=78 velocity=0 time=0
EXTRACT: note_on channel=7 note=54 velocity=0 time=0.10135124999999999
EXTRACT: note_on channel=0 note=73 velocity=115 time=0.00675675
EXTRACT: note_on channel=3 note=62 velocity=104 time=0
EXTRACT: note_on channel=7 note=49 velocity=90 time=0
EXTRACT: note_on channel=9 note=26 velocity=50 time=0
EXTRACT: note_on channel=9 note=32 velocity=50 time=0
EXTRACT: note_on channel=9 note=36 velocity=114 time=0
EXTRACT: note_on channel=9 note=42 velocity=70 time=0
EXTRACT: note_on channel=10 note=52 velocity=114 time=0
EXTRACT: note_on channel=10 note=57 velocity=114 time=0.03378375
EXTRACT: note_on channel=10 note=52 velocity=0 time=0.010135125
EXTRACT: note_on channel=9 note=42 velocity=0 time=0
EXTRACT: note_on channel=9 note=26 velocity=0 time=0
EXTRACT: note_on channel=9 note=36 velocity=0 time=0
EXTRACT: note_on channel=9 note=32 velocity=0 time=0
EXTRACT: note_on channel=10 note=57 velocity=0 time=0.03378375
EXTRACT: note_on channel=0 note=73 velocity=0 time=0.016891875
EXTRACT: note_on channel=3 note=62 velocity=0 time=0.054054
EXTRACT: note_on channel=7 note=49 velocity=0 time=0.04729725
EXTRACT: note_on channel=0 note=78 velocity=115 time=0.00675675
EXTRACT: note_on channel=3 note=64 velocity=104 time=0
EXTRACT: note_on channel=7 note=54 velocity=90 time=0
EXTRACT: note_on channel=9 note=26 velocity=30 time=0
EXTRACT: note_on channel=9 note=32 velocity=30 time=0
EXTRACT: note_on channel=9 note=36 velocity=114 time=0
EXTRACT: note_on channel=10 note=52 velocity=114 time=0
EXTRACT: note_on channel=10 note=57 velocity=114 time=0.03378375
EXTRACT: note_on channel=10 note=52 velocity=0 time=0.010135125
EXTRACT: note_on channel=9 note=36 velocity=0 time=0
EXTRACT: note_on channel=9 note=26 velocity=0 time=0
EXTRACT: note_on channel=9 note=32 velocity=0 time=0
EXTRACT: note_on channel=10 note=57 velocity=0 time=0.03378375
EXTRACT: note_on channel=0 note=78 velocity=0 time=0.016891875
EXTRACT: note_on channel=3 note=64 velocity=0 time=0.027027
EXTRACT: note_on channel=5 note=57 velocity=0 time=0.07432425
EXTRACT: note_on channel=1 note=37 velocity=0 time=0
EXTRACT: note_on channel=2 note=61 velocity=0 time=0
EXTRACT: note_on channel=2 note=57 velocity=0 time=0
EXTRACT: note_on channel=2 note=66 velocity=0 time=0
EXTRACT: note_on channel=5 note=61 velocity=0 time=0
EXTRACT: note_on channel=11 note=90 velocity=0 time=0
EXTRACT: note_on channel=5 note=54 velocity=0 time=0
EXTRACT: note_on channel=6 note=49 velocity=0 time=0
EXTRACT: note_on channel=11 note=85 velocity=0 time=0
EXTRACT: note_on channel=7 note=54 velocity=0 time=0
EXTRACT: note_on channel=11 note=81 velocity=0 time=0
EXTRACT: note_on channel=5 note=49 velocity=0 time=0
EXTRACT: note_on channel=6 note=42 velocity=0 time=0
EXTRACT: note_on channel=0 note=71 velocity=112 time=0.00675675
EXTRACT: note_on channel=1 note=35 velocity=120 time=0
EXTRACT: note_on channel=2 note=59 velocity=102 time=0
EXTRACT: note_on channel=2 note=62 velocity=102 time=0
EXTRACT: note_on channel=2 note=66 velocity=102 time=0
EXTRACT: note_on channel=3 note=66 velocity=118 time=0
EXTRACT: note_on channel=5 note=47 velocity=99 time=0
EXTRACT: note_on channel=5 note=54 velocity=99 time=0
EXTRACT: note_on channel=5 note=59 velocity=99 time=0
EXTRACT: note_on channel=5 note=62 velocity=99 time=0
EXTRACT: note_on channel=6 note=47 velocity=98 time=0
EXTRACT: note_on channel=6 note=54 velocity=98 time=0
EXTRACT: note_on channel=7 note=47 velocity=104 time=0
EXTRACT: note_on channel=8 note=35 velocity=82 time=0
EXTRACT: note_on channel=9 note=26 velocity=50 time=0
EXTRACT: note_on channel=9 note=32 velocity=50 time=0
EXTRACT: note_on channel=9 note=36 velocity=120 time=0
EXTRACT: note_on channel=9 note=42 velocity=80 time=0
EXTRACT: note_on channel=10 note=52 velocity=120 time=0
EXTRACT: note_on channel=11 note=83 velocity=102 time=0
EXTRACT: note_on channel=11 note=86 velocity=102 time=0
EXTRACT: note_on channel=11 note=90 velocity=102 time=0
EXTRACT: note_on channel=10 note=57 velocity=120 time=0.037162125
EXTRACT: note_on channel=10 note=52 velocity=0 time=0.00675675
EXTRACT: note_on channel=9 note=42 velocity=0 time=0
EXTRACT: note_on channel=9 note=36 velocity=0 time=0
EXTRACT: note_on channel=9 note=32 velocity=0 time=0
EXTRACT: note_on channel=9 note=26 velocity=0 time=0
EXTRACT: note_on channel=10 note=57 velocity=0 time=0.037162125
EXTRACT: note_on channel=0 note=71 velocity=0 time=0.0135135
EXTRACT: note_on channel=7 note=47 velocity=0 time=0.10135124999999999
EXTRACT: note_on channel=0 note=78 velocity=115 time=0.00675675
EXTRACT: note_on channel=7 note=54 velocity=93 time=0
EXTRACT: note_on channel=9 note=26 velocity=30 time=0
EXTRACT: note_on channel=9 note=32 velocity=30 time=0
EXTRACT: note_on channel=9 note=32 velocity=0 time=0.043918874999999996
EXTRACT: note_on channel=9 note=26 velocity=0 time=0
EXTRACT: note_on channel=3 note=66 velocity=0 time=0.0405405
EXTRACT: note_on channel=0 note=78 velocity=0 time=0.010135125
EXTRACT: note_on channel=7 note=54 velocity=0 time=0.10135124999999999
EXTRACT: note_on channel=8 note=35 velocity=0 time=0
EXTRACT: note_on channel=0 note=83 velocity=118 time=0.00675675
EXTRACT: note_on channel=3 note=69 velocity=118 time=0
EXTRACT: note_on channel=7 note=59 velocity=89 time=0
EXTRACT: note_on channel=9 note=26 velocity=50 time=0
EXTRACT: note_on channel=9 note=32 velocity=50 time=0
EXTRACT: note_on channel=9 note=42 velocity=70 time=0
EXTRACT: note_on channel=9 note=42 velocity=0 time=0.043918874999999996
EXTRACT: note_on channel=9 note=32 velocity=0 time=0
EXTRACT: note_on channel=9 note=26 velocity=0 time=0
EXTRACT: note_on channel=0 note=83 velocity=0 time=0.050675624999999995
EXTRACT: note_on channel=7 note=59 velocity=0 time=0.10135124999999999
EXTRACT: note_on channel=0 note=78 velocity=118 time=0.00675675
EXTRACT: note_on channel=7 note=54 velocity=77 time=0
EXTRACT: note_on channel=9 note=26 velocity=30 time=0
EXTRACT: note_on channel=9 note=32 velocity=30 time=0
EXTRACT: note_on channel=9 note=32 velocity=0 time=0.043918874999999996
EXTRACT: note_on channel=9 note=26 velocity=0 time=0
EXTRACT: note_on channel=3 note=69 velocity=0 time=0.030405375
EXTRACT: note_on channel=0 note=78 velocity=0 time=0.02027025
EXTRACT: note_on channel=7 note=54 velocity=0 time=0.10135124999999999
EXTRACT: note_on channel=0 note=83 velocity=113 time=0.00675675
EXTRACT: note_on channel=3 note=66 velocity=121 time=0
EXTRACT: note_on channel=7 note=59 velocity=98 time=0
EXTRACT: note_on channel=9 note=26 velocity=50 time=0
EXTRACT: note_on channel=9 note=32 velocity=50 time=0
EXTRACT: note_on channel=9 note=38 velocity=120 time=0
EXTRACT: note_on channel=9 note=42 velocity=80 time=0
EXTRACT: note_on channel=9 note=42 velocity=0 time=0.043918874999999996
EXTRACT: note_on channel=9 note=38 velocity=0 time=0
EXTRACT: note_on channel=9 note=26 velocity=0 time=0
EXTRACT: note_on channel=9 note=32 velocity=0 time=0
EXTRACT: note_on channel=0 note=83 velocity=0 time=0.050675624999999995
EXTRACT: note_on channel=7 note=59 velocity=0 time=0.10135124999999999
EXTRACT: note_on channel=0 note=78 velocity=113 time=0.00675675
EXTRACT: note_on channel=7 note=54 velocity=98 time=0
EXTRACT: note_on channel=9 note=26 velocity=30 time=0
EXTRACT: note_on channel=9 note=32 velocity=30 time=0
EXTRACT: note_on channel=9 note=32 velocity=0 time=0.043918874999999996
EXTRACT: note_on channel=9 note=26 velocity=0 time=0
EXTRACT: note_on channel=0 note=78 velocity=0 time=0.050675624999999995
EXTRACT: note_on channel=7 note=54 velocity=0 time=0.10135124999999999
EXTRACT: note_on channel=0 note=71 velocity=109 time=0.00675675
EXTRACT: note_on channel=7 note=47 velocity=101 time=0
EXTRACT: note_on channel=9 note=26 velocity=50 time=0
EXTRACT: note_on channel=9 note=32 velocity=50 time=0
EXTRACT: note_on channel=9 note=42 velocity=70 time=0
EXTRACT: note_on channel=9 note=42 velocity=0 time=0.043918874999999996
EXTRACT: note_on channel=9 note=32 velocity=0 time=0
EXTRACT: note_on channel=9 note=26 velocity=0 time=0
EXTRACT: note_on channel=0 note=71 velocity=0 time=0.050675624999999995
EXTRACT: note_on channel=7 note=47 velocity=0 time=0.10135124999999999
EXTRACT: note_on channel=1 note=35 velocity=0 time=0
EXTRACT: note_on channel=0 note=78 velocity=110 time=0.00675675
EXTRACT: note_on channel=1 note=35 velocity=120 time=0
EXTRACT: note_on channel=7 note=54 velocity=95 time=0
EXTRACT: note_on channel=9 note=26 velocity=30 time=0
EXTRACT: note_on channel=9 note=32 velocity=30 time=0
EXTRACT: note_on channel=9 note=36 velocity=120 time=0
EXTRACT: note_on channel=10 note=52 velocity=120 time=0
EXTRACT: note_on channel=10 note=57 velocity=120 time=0.03378375
EXTRACT: note_on channel=10 note=52 velocity=0 time=0.010135125
EXTRACT: note_on channel=9 note=36 velocity=0 time=0
EXTRACT: note_on channel=9 note=26 velocity=0 time=0
EXTRACT: note_on channel=9 note=32 velocity=0 time=0
EXTRACT: note_on channel=10 note=57 velocity=0 time=0.03378375
EXTRACT: note_on channel=0 note=78 velocity=0 time=0.016891875
EXTRACT: note_on channel=7 note=54 velocity=0 time=0.10135124999999999
EXTRACT: note_on channel=0 note=71 velocity=113 time=0.00675675
EXTRACT: note_on channel=7 note=47 velocity=104 time=0
EXTRACT: note_on channel=9 note=26 velocity=50 time=0
EXTRACT: note_on channel=9 note=32 velocity=50 time=0
EXTRACT: note_on channel=9 note=42 velocity=80 time=0
EXTRACT: note_on channel=9 note=42 velocity=0 time=0.043918874999999996
EXTRACT: note_on channel=9 note=32 velocity=0 time=0
EXTRACT: note_on channel=9 note=26 velocity=0 time=0
EXTRACT: note_on channel=0 note=71 velocity=0 time=0.050675624999999995
EXTRACT: note_on channel=3 note=66 velocity=0 time=0.091216125
EXTRACT: note_on channel=7 note=47 velocity=0 time=0.010135125
EXTRACT: note_on channel=1 note=35 velocity=0 time=0
EXTRACT: note_on channel=0 note=78 velocity=114 time=0.00675675
EXTRACT: note_on channel=1 note=35 velocity=120 time=0
EXTRACT: note_on channel=3 note=62 velocity=104 time=0
EXTRACT: note_on channel=7 note=54 velocity=86 time=0
EXTRACT: note_on channel=9 note=26 velocity=30 time=0
EXTRACT: note_on channel=9 note=32 velocity=30 time=0
EXTRACT: note_on channel=9 note=36 velocity=120 time=0
EXTRACT: note_on channel=10 note=52 velocity=120 time=0
EXTRACT: note_on channel=10 note=57 velocity=120 time=0.03378375
EXTRACT: note_on channel=10 note=52 velocity=0 time=0.010135125
EXTRACT: note_on channel=9 note=36 velocity=0 time=0
EXTRACT: note_on channel=9 note=26 velocity=0 time=0
EXTRACT: note_on channel=9 note=32 velocity=0 time=0
EXTRACT: note_on channel=10 note=57 velocity=0 time=0.03378375
EXTRACT: note_on channel=0 note=78 velocity=0 time=0.016891875
EXTRACT: note_on channel=3 note=62 velocity=0 time=0.084459375
EXTRACT: note_on channel=7 note=54 velocity=0 time=0.016891875
EXTRACT: note_on channel=1 note=35 velocity=0 time=0
EXTRACT: note_on channel=0 note=83 velocity=111 time=0.00675675
EXTRACT: note_on channel=1 note=35 velocity=120 time=0
EXTRACT: note_on channel=3 note=62 velocity=118 time=0
EXTRACT: note_on channel=7 note=59 velocity=101 time=0
EXTRACT: note_on channel=9 note=26 velocity=50 time=0
EXTRACT: note_on channel=9 note=32 velocity=50 time=0
EXTRACT: note_on channel=9 note=36 velocity=120 time=0
EXTRACT: note_on channel=9 note=42 velocity=70 time=0
EXTRACT: note_on channel=10 note=52 velocity=120 time=0
EXTRACT: note_on channel=10 note=57 velocity=120 time=0.03378375
EXTRACT: note_on channel=10 note=52 velocity=0 time=0.010135125
EXTRACT: note_on channel=9 note=42 velocity=0 time=0
EXTRACT: note_on channel=9 note=26 velocity=0 time=0
EXTRACT: note_on channel=9 note=36 velocity=0 time=0
EXTRACT: note_on channel=9 note=32 velocity=0 time=0
EXTRACT: note_on channel=10 note=57 velocity=0 time=0.03378375
EXTRACT: note_on channel=0 note=83 velocity=0 time=0.016891875
EXTRACT: note_on channel=7 note=59 velocity=0 time=0.10135124999999999
EXTRACT: note_on channel=0 note=78 velocity=112 time=0.00675675
EXTRACT: note_on channel=7 note=54 velocity=98 time=0
EXTRACT: note_on channel=9 note=26 velocity=30 time=0
EXTRACT: note_on channel=9 note=32 velocity=30 time=0
EXTRACT: note_on channel=9 note=32 velocity=0 time=0.043918874999999996
EXTRACT: note_on channel=9 note=26 velocity=0 time=0
EXTRACT: note_on channel=3 note=62 velocity=0 time=0.0135135
EXTRACT: note_on channel=0 note=78 velocity=0 time=0.037162125
EXTRACT: note_on channel=7 note=54 velocity=0 time=0.10135124999999999
EXTRACT: note_on channel=0 note=83 velocity=113 time=0.00675675
EXTRACT: note_on channel=3 note=62 velocity=112 time=0
EXTRACT: note_on channel=7 note=59 velocity=101 time=0
EXTRACT: note_on channel=9 note=26 velocity=50 time=0
EXTRACT: note_on channel=9 note=32 velocity=50 time=0
EXTRACT: note_on channel=9 note=38 velocity=120 time=0
EXTRACT: note_on channel=9 note=42 velocity=80 time=0
EXTRACT: note_on channel=9 note=42 velocity=0 time=0.043918874999999996
EXTRACT: note_on channel=9 note=38 velocity=0 time=0
EXTRACT: note_on channel=9 note=26 velocity=0 time=0
EXTRACT: note_on channel=9 note=32 velocity=0 time=0
EXTRACT: note_on channel=0 note=83 velocity=0 time=0.050675624999999995
EXTRACT: note_on channel=3 note=62 velocity=0 time=0.043918874999999996
EXTRACT: note_on channel=7 note=59 velocity=0 time=0.057432375
EXTRACT: note_on channel=0 note=78 velocity=115 time=0.00675675
EXTRACT: note_on channel=3 note=62 velocity=98 time=0
EXTRACT: note_on channel=7 note=54 velocity=93 time=0
EXTRACT: note_on channel=9 note=26 velocity=30 time=0
EXTRACT: note_on channel=9 note=32 velocity=30 time=0
EXTRACT: note_on channel=9 note=32 velocity=0 time=0.043918874999999996
EXTRACT: note_on channel=9 note=26 velocity=0 time=0
EXTRACT: note_on channel=3 note=62 velocity=0 time=0.043918874999999996
EXTRACT: note_on channel=0 note=78 velocity=0 time=0.00675675
EXTRACT: note_on channel=7 note=54 velocity=0 time=0.10135124999999999
EXTRACT: note_on channel=0 note=71 velocity=115 time=0.00675675
EXTRACT: note_on channel=3 note=62 velocity=115 time=0
EXTRACT: note_on channel=7 note=47 velocity=90 time=0
EXTRACT: note_on channel=9 note=26 velocity=50 time=0
EXTRACT: note_on channel=9 note=32 velocity=50 time=0
EXTRACT: note_on channel=9 note=42 velocity=70 time=0
EXTRACT: note_on channel=9 note=42 velocity=0 time=0.043918874999999996
EXTRACT: note_on channel=9 note=32 velocity=0 time=0
EXTRACT: note_on channel=9 note=26 velocity=0 time=0
EXTRACT: note_on channel=0 note=71 velocity=0 time=0.050675624999999995
EXTRACT: note_on channel=7 note=47 velocity=0 time=0.10135124999999999
EXTRACT: note_on channel=3 note=62 velocity=0 time=0
EXTRACT: note_on channel=0 note=78 velocity=115 time=0.00675675
EXTRACT: note_on channel=7 note=54 velocity=90 time=0
EXTRACT: note_on channel=9 note=26 velocity=30 time=0
EXTRACT: note_on channel=9 note=32 velocity=30 time=0
EXTRACT: note_on channel=9 note=32 velocity=0 time=0.043918874999999996
EXTRACT: note_on channel=9 note=26 velocity=0 time=0
EXTRACT: note_on channel=0 note=78 velocity=0 time=0.050675624999999995
EXTRACT: note_on channel=1 note=35 velocity=0 time=0.10135124999999999
EXTRACT: note_on channel=5 note=54 velocity=0 time=0
EXTRACT: note_on channel=2 note=62 velocity=0 time=0
EXTRACT: note_on channel=2 note=59 velocity=0 time=0
EXTRACT: note_on channel=2 note=66 velocity=0 time=0
EXTRACT: note_on channel=11 note=90 velocity=0 time=0
EXTRACT: note_on channel=5 note=62 velocity=0 time=0
EXTRACT: note_on channel=6 note=54 velocity=0 time=0
EXTRACT: note_on channel=5 note=59 velocity=0 time=0
EXTRACT: note_on channel=11 note=86 velocity=0 time=0
EXTRACT: note_on channel=11 note=83 velocity=0 time=0
EXTRACT: note_on channel=6 note=47 velocity=0 time=0
EXTRACT: note_on channel=7 note=54 velocity=0 time=0
EXTRACT: note_on channel=5 note=47 velocity=0 time=0
EXTRACT: note_on channel=0 note=67 velocity=112 time=0.00675675
EXTRACT: note_on channel=1 note=31 velocity=118 time=0
EXTRACT: note_on channel=2 note=59 velocity=101 time=0
EXTRACT: note_on channel=2 note=62 velocity=101 time=0
EXTRACT: note_on channel=2 note=67 velocity=101 time=0
EXTRACT: note_on channel=3 note=67 velocity=121 time=0
EXTRACT: note_on channel=4 note=55 velocity=121 time=0
EXTRACT: note_on channel=4 note=59 velocity=121 time=0
EXTRACT: note_on channel=4 note=67 velocity=121 time=0
EXTRACT: note_on channel=5 note=43 velocity=101 time=0
EXTRACT: note_on channel=5 note=55 velocity=101 time=0
EXTRACT: note_on channel=5 note=59 velocity=101 time=0
EXTRACT: note_on channel=5 note=62 velocity=101 time=0
EXTRACT: note_on channel=6 note=43 velocity=99 time=0
EXTRACT: note_on channel=6 note=50 velocity=99 time=0
EXTRACT: note_on channel=7 note=47 velocity=104 time=0
EXTRACT: note_on channel=8 note=31 velocity=81 time=0
EXTRACT: note_on channel=9 note=26 velocity=50 time=0
EXTRACT: note_on channel=9 note=32 velocity=50 time=0
EXTRACT: note_on channel=9 note=36 velocity=120 time=0
EXTRACT: note_on channel=9 note=42 velocity=80 time=0
EXTRACT: note_on channel=10 note=52 velocity=120 time=0
EXTRACT: note_on channel=11 note=83 velocity=101 time=0
EXTRACT: note_on channel=11 note=86 velocity=101 time=0
EXTRACT: note_on channel=11 note=91 velocity=101 time=0
EXTRACT: note_on channel=15 note=55 velocity=1 time=0
EXTRACT: note_on channel=15 note=59 velocity=1 time=0
EXTRACT: note_on channel=15 note=67 velocity=1 time=0
EXTRACT: note_on channel=10 note=57 velocity=120 time=0.03378375
EXTRACT: note_on channel=10 note=52 velocity=0 time=0.010135125
EXTRACT: note_on channel=9 note=42 velocity=0 time=0
EXTRACT: note_on channel=9 note=36 velocity=0 time=0
EXTRACT: note_on channel=9 note=26 velocity=0 time=0
EXTRACT: note_on channel=9 note=32 velocity=0 time=0
EXTRACT: note_on channel=10 note=57 velocity=0 time=0.03378375
EXTRACT: note_on channel=0 note=67 velocity=0 time=0.016891875
EXTRACT: note_on channel=7 note=47 velocity=0 time=0.10135124999999999
EXTRACT: note_on channel=0 note=74 velocity=115 time=0.00675675
EXTRACT: note_on channel=7 note=50 velocity=93 time=0
EXTRACT: note_on channel=9 note=26 velocity=30 time=0
EXTRACT: note_on channel=9 note=32 velocity=30 time=0
EXTRACT: note_on channel=9 note=32 velocity=0 time=0.043918874999999996
EXTRACT: note_on channel=9 note=26 velocity=0 time=0
EXTRACT: note_on channel=0 note=74 velocity=0 time=0.050675624999999995
EXTRACT: note_on channel=7 note=50 velocity=0 time=0.10135124999999999
EXTRACT: note_on channel=8 note=31 velocity=0 time=0
EXTRACT: note_on channel=0 note=79 velocity=118 time=0.00675675
EXTRACT: note_on channel=7 note=59 velocity=89 time=0
EXTRACT: note_on channel=9 note=26 velocity=50 time=0
EXTRACT: note_on channel=9 note=32 velocity=50 time=0
EXTRACT: note_on channel=9 note=42 velocity=70 time=0
EXTRACT: note_on channel=9 note=42 velocity=0 time=0.043918874999999996
EXTRACT: note_on channel=9 note=32 velocity=0 time=0
EXTRACT: note_on channel=9 note=26 velocity=0 time=0
EXTRACT: note_on channel=0 note=79 velocity=0 time=0.050675624999999995
EXTRACT: note_on channel=7 note=59 velocity=0 time=0.10135124999999999
EXTRACT: note_on channel=0 note=74 velocity=118 time=0.00675675
EXTRACT: note_on channel=7 note=50 velocity=77 time=0
EXTRACT: note_on channel=9 note=26 velocity=30 time=0
EXTRACT: note_on channel=9 note=32 velocity=30 time=0
EXTRACT: note_on channel=9 note=32 velocity=0 time=0.043918874999999996
EXTRACT: note_on channel=9 note=26 velocity=0 time=0
EXTRACT: note_on channel=3 note=67 velocity=0 time=0.027027
EXTRACT: note_on channel=4 note=67 velocity=0 time=0
EXTRACT: note_on channel=4 note=59 velocity=0 time=0
EXTRACT: note_on channel=15 note=55 velocity=0 time=0
EXTRACT: note_on channel=4 note=55 velocity=0 time=0
EXTRACT: note_on channel=15 note=67 velocity=0 time=0
EXTRACT: note_on channel=15 note=59 velocity=0 time=0
EXTRACT: note_on channel=0 note=74 velocity=0 time=0.023648625
EXTRACT: note_on channel=7 note=50 velocity=0 time=0.10135124999999999
EXTRACT: note_on channel=0 note=79 velocity=113 time=0.00675675
EXTRACT: note_on channel=3 note=66 velocity=121 time=0
EXTRACT: note_on channel=4 note=54 velocity=121 time=0
EXTRACT: note_on channel=4 note=57 velocity=121 time=0
EXTRACT: note_on channel=4 note=66 velocity=121 time=0
EXTRACT: note_on channel=7 note=59 velocity=98 time=0
EXTRACT: note_on channel=9 note=26 velocity=50 time=0
EXTRACT: note_on channel=9 note=32 velocity=50 time=0
EXTRACT: note_on channel=9 note=38 velocity=120 time=0
EXTRACT: note_on channel=9 note=42 velocity=80 time=0
EXTRACT: note_on channel=15 note=54 velocity=1 time=0
EXTRACT: note_on channel=15 note=57 velocity=1 time=0
EXTRACT: note_on channel=15 note=66 velocity=1 time=0
EXTRACT: note_on channel=9 note=42 velocity=0 time=0.043918874999999996
EXTRACT: note_on channel=9 note=38 velocity=0 time=0
EXTRACT: note_on channel=9 note=32 velocity=0 time=0
EXTRACT: note_on channel=9 note=26 velocity=0 time=0
EXTRACT: note_on channel=0 note=79 velocity=0 time=0.050675624999999995
EXTRACT: note_on channel=7 note=59 velocity=0 time=0.10135124999999999
EXTRACT: note_on channel=0 note=74 velocity=113 time=0.00675675
EXTRACT: note_on channel=7 note=50 velocity=98 time=0
EXTRACT: note_on channel=9 note=26 velocity=30 time=0
EXTRACT: note_on channel=9 note=32 velocity=30 time=0
EXTRACT: note_on channel=9 note=32 velocity=0 time=0.043918874999999996
EXTRACT: note_on channel=9 note=26 velocity=0 time=0
EXTRACT: note_on channel=0 note=74 velocity=0 time=0.050675624999999995
EXTRACT: note_on channel=7 note=50 velocity=0 time=0.10135124999999999
EXTRACT: note_on channel=0 note=67 velocity=109 time=0.00675675
EXTRACT: note_on channel=7 note=47 velocity=78 time=0
EXTRACT: note_on channel=9 note=26 velocity=50 time=0
EXTRACT: note_on channel=9 note=32 velocity=50 time=0
EXTRACT: note_on channel=9 note=36 velocity=120 time=0
EXTRACT: note_on channel=9 note=42 velocity=70 time=0
EXTRACT: note_on channel=9 note=42 velocity=0 time=0.043918874999999996
EXTRACT: note_on channel=9 note=36 velocity=0 time=0
EXTRACT: note_on channel=9 note=32 velocity=0 time=0
EXTRACT: note_on channel=9 note=26 velocity=0 time=0
EXTRACT: note_on channel=0 note=67 velocity=0 time=0.050675624999999995
EXTRACT: note_on channel=7 note=47 velocity=0 time=0.10135124999999999
EXTRACT: note_on channel=1 note=31 velocity=0 time=0
EXTRACT: note_on channel=0 note=74 velocity=110 time=0.00675675
EXTRACT: note_on channel=1 note=31 velocity=118 time=0
EXTRACT: note_on channel=7 note=50 velocity=63 time=0
EXTRACT: note_on channel=9 note=26 velocity=30 time=0
EXTRACT: note_on channel=9 note=32 velocity=30 time=0
EXTRACT: note_on channel=9 note=36 velocity=120 time=0
EXTRACT: note_on channel=10 note=52 velocity=120 time=0
EXTRACT: note_on channel=4 note=54 velocity=0 time=0.00675675
EXTRACT: note_on channel=4 note=66 velocity=0 time=0
EXTRACT: note_on channel=4 note=57 velocity=0 time=0
EXTRACT: note_on channel=15 note=54 velocity=0 time=0
EXTRACT: note_on channel=15 note=66 velocity=0 time=0
EXTRACT: note_on channel=15 note=57 velocity=0 time=0
EXTRACT: note_on channel=3 note=66 velocity=0 time=0
EXTRACT: note_on channel=10 note=57 velocity=120 time=0.027027
EXTRACT: note_on channel=9 note=32 velocity=0 time=0.010135125
EXTRACT: note_on channel=10 note=52 velocity=0 time=0
EXTRACT: note_on channel=9 note=26 velocity=0 time=0
EXTRACT: note_on channel=9 note=36 velocity=0 time=0
EXTRACT: note_on channel=10 note=57 velocity=0 time=0.03378375
EXTRACT: note_on channel=0 note=74 velocity=0 time=0.016891875
EXTRACT: note_on channel=7 note=50 velocity=0 time=0.10135124999999999
EXTRACT: note_on channel=0 note=67 velocity=113 time=0.00675675
EXTRACT: note_on channel=3 note=64 velocity=121 time=0
EXTRACT: note_on channel=4 note=52 velocity=121 time=0
EXTRACT: note_on channel=4 note=55 velocity=121 time=0
EXTRACT: note_on channel=4 note=64 velocity=121 time=0
EXTRACT: note_on channel=7 note=47 velocity=76 time=0
EXTRACT: note_on channel=9 note=26 velocity=50 time=0
EXTRACT: note_on channel=9 note=32 velocity=50 time=0
EXTRACT: note_on channel=9 note=41 velocity=120 time=0
EXTRACT: note_on channel=9 note=42 velocity=80 time=0
EXTRACT: note_on channel=9 note=43 velocity=120 time=0
EXTRACT: note_on channel=15 note=52 velocity=1 time=0
EXTRACT: note_on channel=15 note=55 velocity=1 time=0
EXTRACT: note_on channel=15 note=64 velocity=1 time=0
EXTRACT: note_on channel=9 note=43 velocity=0 time=0.043918874999999996
EXTRACT: note_on channel=9 note=41 velocity=0 time=0
EXTRACT: note_on channel=9 note=32 velocity=0 time=0
EXTRACT: note_on channel=9 note=26 velocity=0 time=0
EXTRACT: note_on channel=9 note=42 velocity=0 time=0
EXTRACT: note_on channel=0 note=67 velocity=0 time=0.050675624999999995
EXTRACT: note_on channel=7 note=47 velocity=0 time=0.10135124999999999
EXTRACT: note_on channel=1 note=31 velocity=0 time=0
EXTRACT: note_on channel=0 note=74 velocity=114 time=0.00675675
EXTRACT: note_on channel=1 note=31 velocity=118 time=0
EXTRACT: note_on channel=7 note=50 velocity=86 time=0
EXTRACT: note_on channel=9 note=26 velocity=30 time=0
EXTRACT: note_on channel=9 note=32 velocity=30 time=0
EXTRACT: note_on channel=9 note=36 velocity=120 time=0
EXTRACT: note_on channel=9 note=38 velocity=120 time=0
EXTRACT: note_on channel=10 note=52 velocity=120 time=0
EXTRACT: note_on channel=10 note=57 velocity=120 time=0.03378375
EXTRACT: note_on channel=10 note=52 velocity=0 time=0.010135125
EXTRACT: note_on channel=9 note=38 velocity=0 time=0
EXTRACT: note_on channel=9 note=36 velocity=0 time=0
EXTRACT: note_on channel=9 note=32 velocity=0 time=0
EXTRACT: note_on channel=9 note=26 velocity=0 time=0
EXTRACT: note_on channel=10 note=57 velocity=0 time=0.03378375
EXTRACT: note_on channel=4 note=64 velocity=0 time=0.0135135
EXTRACT: note_on channel=4 note=52 velocity=0 time=0
EXTRACT: note_on channel=4 note=55 velocity=0 time=0
EXTRACT: note_on channel=15 note=55 velocity=0 time=0
EXTRACT: note_on channel=15 note=52 velocity=0 time=0
EXTRACT: note_on channel=15 note=64 velocity=0 time=0
EXTRACT: note_on channel=3 note=64 velocity=0 time=0
EXTRACT: note_on channel=0 note=74 velocity=0 time=0.003378375
EXTRACT: note_on channel=7 note=50 velocity=0 time=0.10135124999999999
EXTRACT: note_on channel=1 note=31 velocity=0 time=0
EXTRACT: note_on channel=0 note=79 velocity=111 time=0.00675675
EXTRACT: note_on channel=1 note=31 velocity=118 time=0
EXTRACT: note_on channel=3 note=62 velocity=118 time=0
EXTRACT: note_on channel=4 note=50 velocity=118 time=0
EXTRACT: note_on channel=4 note=54 velocity=118 time=0
EXTRACT: note_on channel=4 note=62 velocity=118 time=0
EXTRACT: note_on channel=7 note=55 velocity=88 time=0
EXTRACT: note_on channel=9 note=26 velocity=50 time=0
EXTRACT: note_on channel=9 note=32 velocity=50 time=0
EXTRACT: note_on channel=9 note=36 velocity=120 time=0
EXTRACT: note_on channel=9 note=41 velocity=120 time=0
EXTRACT: note_on channel=9 note=42 velocity=70 time=0
EXTRACT: note_on channel=9 note=43 velocity=120 time=0
EXTRACT: note_on channel=10 note=52 velocity=120 time=0
EXTRACT: note_on channel=15 note=54 velocity=1 time=0
EXTRACT: note_on channel=15 note=62 velocity=1 time=0
EXTRACT: note_on channel=15 note=50 velocity=1 time=0
EXTRACT: note_on channel=10 note=57 velocity=120 time=0.03378375
EXTRACT: note_on channel=10 note=52 velocity=0 time=0.010135125
EXTRACT: note_on channel=9 note=36 velocity=0 time=0
EXTRACT: note_on channel=9 note=32 velocity=0 time=0
EXTRACT: note_on channel=9 note=26 velocity=0 time=0
EXTRACT: note_on channel=9 note=43 velocity=0 time=0
EXTRACT: note_on channel=9 note=42 velocity=0 time=0
EXTRACT: note_on channel=9 note=41 velocity=0 time=0
EXTRACT: note_on channel=10 note=57 velocity=0 time=0.03378375
EXTRACT: note_on channel=0 note=79 velocity=0 time=0.016891875
EXTRACT: note_on channel=7 note=55 velocity=0 time=0.10135124999999999
EXTRACT: note_on channel=0 note=74 velocity=112 time=0.00675675
EXTRACT: note_on channel=7 note=50 velocity=88 time=0
EXTRACT: note_on channel=9 note=26 velocity=30 time=0
EXTRACT: note_on channel=9 note=32 velocity=30 time=0
EXTRACT: note_on channel=9 note=32 velocity=0 time=0.043918874999999996
EXTRACT: note_on channel=9 note=26 velocity=0 time=0
EXTRACT: note_on channel=4 note=62 velocity=0 time=0.010135125
EXTRACT: note_on channel=4 note=50 velocity=0 time=0
EXTRACT: note_on channel=4 note=54 velocity=0 time=0
EXTRACT: note_on channel=3 note=62 velocity=0 time=0
EXTRACT: note_on channel=15 note=54 velocity=0 time=0
EXTRACT: note_on channel=15 note=62 velocity=0 time=0
EXTRACT: note_on channel=15 note=50 velocity=0 time=0
EXTRACT: note_on channel=0 note=74 velocity=0 time=0.0405405
EXTRACT: note_on channel=7 note=50 velocity=0 time=0.10135124999999999
EXTRACT: note_on channel=0 note=79 velocity=113 time=0.00675675
EXTRACT: note_on channel=3 note=62 velocity=121 time=0
EXTRACT: note_on channel=4 note=50 velocity=121 time=0
EXTRACT: note_on channel=4 note=54 velocity=121 time=0
EXTRACT: note_on channel=4 note=62 velocity=121 time=0
EXTRACT: note_on channel=7 note=55 velocity=81 time=0
EXTRACT: note_on channel=9 note=26 velocity=50 time=0
EXTRACT: note_on channel=9 note=32 velocity=50 time=0
EXTRACT: note_on channel=9 note=38 velocity=120 time=0
EXTRACT: note_on channel=9 note=42 velocity=80 time=0
EXTRACT: note_on channel=15 note=54 velocity=1 time=0
EXTRACT: note_on channel=15 note=62 velocity=1 time=0
EXTRACT: note_on channel=15 note=50 velocity=1 time=0
EXTRACT: note_on channel=9 note=42 velocity=0 time=0.043918874999999996
EXTRACT: note_on channel=9 note=38 velocity=0 time=0
EXTRACT: note_on channel=9 note=32 velocity=0 time=0
EXTRACT: note_on channel=9 note=26 velocity=0 time=0
EXTRACT: note_on channel=0 note=79 velocity=0 time=0.050675624999999995
EXTRACT: note_on channel=7 note=55 velocity=0 time=0.10135124999999999
EXTRACT: note_on channel=0 note=74 velocity=115 time=0.00675675
EXTRACT: note_on channel=7 note=50 velocity=73 time=0
EXTRACT: note_on channel=9 note=26 velocity=30 time=0
EXTRACT: note_on channel=9 note=32 velocity=30 time=0
EXTRACT: note_on channel=9 note=32 velocity=0 time=0.043918874999999996
EXTRACT: note_on channel=9 note=26 velocity=0 time=0
EXTRACT: note_on channel=0 note=74 velocity=0 time=0.050675624999999995
EXTRACT: note_on channel=4 note=50 velocity=0 time=0.054054
EXTRACT: note_on channel=4 note=62 velocity=0 time=0
EXTRACT: note_on channel=4 note=54 velocity=0 time=0
EXTRACT: note_on channel=3 note=62 velocity=0 time=0
EXTRACT: note_on channel=15 note=50 velocity=0 time=0
EXTRACT: note_on channel=15 note=62 velocity=0 time=0
EXTRACT: note_on channel=15 note=54 velocity=0 time=0
EXTRACT: note_on channel=7 note=50 velocity=0 time=0.04729725
EXTRACT: note_on channel=0 note=67 velocity=115 time=0.00675675
EXTRACT: note_on channel=3 note=59 velocity=118 time=0
EXTRACT: note_on channel=4 note=47 velocity=118 time=0
EXTRACT: note_on channel=4 note=52 velocity=118 time=0
EXTRACT: note_on channel=4 note=59 velocity=118 time=0
EXTRACT: note_on channel=7 note=55 velocity=73 time=0
EXTRACT: note_on channel=9 note=26 velocity=50 time=0
EXTRACT: note_on channel=9 note=32 velocity=50 time=0
EXTRACT: note_on channel=9 note=36 velocity=114 time=0
EXTRACT: note_on channel=9 note=41 velocity=120 time=0
EXTRACT: note_on channel=9 note=42 velocity=70 time=0
EXTRACT: note_on channel=9 note=43 velocity=120 time=0
EXTRACT: note_on channel=10 note=52 velocity=114 time=0
EXTRACT: note_on channel=15 note=47 velocity=1 time=0
EXTRACT: note_on channel=15 note=52 velocity=1 time=0
EXTRACT: note_on channel=15 note=59 velocity=1 time=0
EXTRACT: note_on channel=10 note=57 velocity=114 time=0.03378375
EXTRACT: note_on channel=10 note=52 velocity=0 time=0.010135125
EXTRACT: note_on channel=9 note=36 velocity=0 time=0
EXTRACT: note_on channel=9 note=32 velocity=0 time=0
EXTRACT: note_on channel=9 note=26 velocity=0 time=0
EXTRACT: note_on channel=9 note=43 velocity=0 time=0
EXTRACT: note_on channel=9 note=42 velocity=0 time=0
EXTRACT: note_on channel=9 note=41 velocity=0 time=0
EXTRACT: note_on channel=10 note=57 velocity=0 time=0.03378375
EXTRACT: note_on channel=0 note=67 velocity=0 time=0.016891875
EXTRACT: note_on channel=7 note=55 velocity=0 time=0.10135124999999999
EXTRACT: note_on channel=0 note=74 velocity=115 time=0.00675675
EXTRACT: note_on channel=7 note=50 velocity=71 time=0
EXTRACT: note_on channel=9 note=26 velocity=30 time=0
EXTRACT: note_on channel=9 note=32 velocity=30 time=0
EXTRACT: note_on channel=9 note=36 velocity=114 time=0
EXTRACT: note_on channel=9 note=38 velocity=120 time=0
EXTRACT: note_on channel=9 note=57 velocity=110 time=0
EXTRACT: note_on channel=10 note=52 velocity=114 time=0
EXTRACT: note_on channel=10 note=57 velocity=114 time=0.03378375
EXTRACT: note_on channel=10 note=52 velocity=0 time=0.010135125
EXTRACT: note_on channel=9 note=57 velocity=0 time=0
EXTRACT: note_on channel=9 note=36 velocity=0 time=0
EXTRACT: note_on channel=9 note=32 velocity=0 time=0
EXTRACT: note_on channel=9 note=26 velocity=0 time=0
EXTRACT: note_on channel=9 note=38 velocity=0 time=0
EXTRACT: note_on channel=10 note=57 velocity=0 time=0.03378375
EXTRACT: note_on channel=0 note=74 velocity=0 time=0.016891875
EXTRACT: note_on channel=5 note=55 velocity=0 time=0.10135124999999999
EXTRACT: note_on channel=5 note=62 velocity=0 time=0
EXTRACT: note_on channel=6 note=43 velocity=0 time=0
EXTRACT: note_on channel=4 note=47 velocity=0 time=0
EXTRACT: note_on channel=11 note=86 velocity=0 time=0
EXTRACT: note_on channel=11 note=91 velocity=0 time=0
EXTRACT: note_on channel=2 note=62 velocity=0 time=0
EXTRACT: note_on channel=15 note=59 velocity=0 time=0
EXTRACT: note_on channel=15 note=47 velocity=0 time=0
EXTRACT: note_on channel=15 note=52 velocity=0 time=0
EXTRACT: note_on channel=1 note=31 velocity=0 time=0
EXTRACT: note_on channel=2 note=67 velocity=0 time=0
EXTRACT: note_on channel=6 note=50 velocity=0 time=0
EXTRACT: note_on channel=4 note=52 velocity=0 time=0
EXTRACT: note_on channel=5 note=59 velocity=0 time=0
EXTRACT: note_on channel=2 note=59 velocity=0 time=0
EXTRACT: note_on channel=5 note=43 velocity=0 time=0
EXTRACT: note_on channel=7 note=50 velocity=0 time=0
EXTRACT: note_on channel=4 note=59 velocity=0 time=0
EXTRACT: note_on channel=3 note=59 velocity=0 time=0
EXTRACT: note_on channel=11 note=83 velocity=0 time=0
EXTRACT: note_on channel=0 note=74 velocity=112 time=0.00675675
EXTRACT: note_on channel=1 note=38 velocity=121 time=0
EXTRACT: note_on channel=2 note=57 velocity=102 time=0
EXTRACT: note_on channel=2 note=62 velocity=102 time=0
EXTRACT: note_on channel=2 note=66 velocity=102 time=0
EXTRACT: note_on channel=3 note=57 velocity=106 time=0
EXTRACT: note_on channel=4 note=45 velocity=118 time=0
EXTRACT: note_on channel=4 note=50 velocity=118 time=0
EXTRACT: note_on channel=4 note=57 velocity=118 time=0
EXTRACT: note_on channel=5 note=50 velocity=100 time=0
EXTRACT: note_on channel=5 note=54 velocity=100 time=0
EXTRACT: note_on channel=5 note=57 velocity=100 time=0
EXTRACT: note_on channel=5 note=62 velocity=100 time=0
EXTRACT: note_on channel=6 note=45 velocity=99 time=0
EXTRACT: note_on channel=6 note=50 velocity=99 time=0
EXTRACT: note_on channel=7 note=50 velocity=104 time=0
EXTRACT: note_on channel=8 note=38 velocity=79 time=0
EXTRACT: note_on channel=9 note=26 velocity=50 time=0
EXTRACT: note_on channel=9 note=32 velocity=50 time=0
EXTRACT: note_on channel=9 note=36 velocity=120 time=0
EXTRACT: note_on channel=9 note=42 velocity=80 time=0
EXTRACT: note_on channel=10 note=52 velocity=120 time=0
EXTRACT: note_on channel=11 note=81 velocity=102 time=0
EXTRACT: note_on channel=11 note=86 velocity=102 time=0
EXTRACT: note_on channel=11 note=90 velocity=102 time=0
EXTRACT: note_on channel=15 note=57 velocity=1 time=0
EXTRACT: note_on channel=15 note=50 velocity=1 time=0
EXTRACT: note_on channel=15 note=45 velocity=1 time=0
EXTRACT: note_on channel=10 note=57 velocity=120 time=0.037162125
EXTRACT: note_on channel=10 note=52 velocity=0 time=0.00675675
EXTRACT: note_on channel=9 note=42 velocity=0 time=0
EXTRACT: note_on channel=9 note=36 velocity=0 time=0
EXTRACT: note_on channel=9 note=26 velocity=0 time=0
EXTRACT: note_on channel=9 note=32 velocity=0 time=0
EXTRACT: note_on channel=10 note=57 velocity=0 time=0.037162125
EXTRACT: note_on channel=0 note=74 velocity=0 time=0.0135135
EXTRACT: note_on channel=7 note=50 velocity=0 time=0.10135124999999999
EXTRACT: note_on channel=0 note=78 velocity=115 time=0.00675675
EXTRACT: note_on channel=7 note=54 velocity=93 time=0
EXTRACT: note_on channel=9 note=26 velocity=30 time=0
EXTRACT: note_on channel=9 note=32 velocity=30 time=0
EXTRACT: note_on channel=9 note=32 velocity=0 time=0.043918874999999996
EXTRACT: note_on channel=9 note=26 velocity=0 time=0
EXTRACT: note_on channel=3 note=57 velocity=0 time=0.050675624999999995
EXTRACT: note_on channel=0 note=78 velocity=0 time=0
EXTRACT: note_on channel=4 note=50 velocity=0 time=0.10135124999999999
EXTRACT: note_on channel=8 note=38 velocity=0 time=0
EXTRACT: note_on channel=7 note=54 velocity=0 time=0
EXTRACT: note_on channel=4 note=57 velocity=0 time=0
EXTRACT: note_on channel=4 note=45 velocity=0 time=0
EXTRACT: note_on channel=15 note=57 velocity=0 time=0
EXTRACT: note_on channel=15 note=50 velocity=0 time=0
EXTRACT: note_on channel=15 note=45 velocity=0 time=0
EXTRACT: note_on channel=0 note=81 velocity=118 time=0.00675675
EXTRACT: note_on channel=3 note=69 velocity=118 time=0
EXTRACT: note_on channel=7 note=57 velocity=89 time=0
EXTRACT: note_on channel=9 note=26 velocity=50 time=0
EXTRACT: note_on channel=9 note=32 velocity=50 time=0
EXTRACT: note_on channel=9 note=42 velocity=70 time=0
EXTRACT: note_on channel=9 note=42 velocity=0 time=0.043918874999999996
EXTRACT: note_on channel=9 note=32 velocity=0 time=0
EXTRACT: note_on channel=9 note=26 velocity=0 time=0
EXTRACT: note_on channel=0 note=81 velocity=0 time=0.050675624999999995
EXTRACT: note_on channel=7 note=57 velocity=0 time=0.10135124999999999
EXTRACT: note_on channel=0 note=78 velocity=118 time=0.00675675
EXTRACT: note_on channel=7 note=54 velocity=77 time=0
EXTRACT: note_on channel=9 note=26 velocity=30 time=0
EXTRACT: note_on channel=9 note=32 velocity=30 time=0
EXTRACT: note_on channel=3 note=69 velocity=0 time=0.010135125
EXTRACT: note_on channel=9 note=32 velocity=0 time=0.03378375
EXTRACT: note_on channel=9 note=26 velocity=0 time=0
EXTRACT: note_on channel=0 note=78 velocity=0 time=0.050675624999999995
EXTRACT: note_on channel=7 note=54 velocity=0 time=0.10135124999999999
EXTRACT: note_on channel=0 note=81 velocity=113 time=0.00675675
EXTRACT: note_on channel=3 note=66 velocity=112 time=0
EXTRACT: note_on channel=7 note=57 velocity=98 time=0
EXTRACT: note_on channel=9 note=26 velocity=50 time=0
EXTRACT: note_on channel=9 note=32 velocity=50 time=0
EXTRACT: note_on channel=9 note=38 velocity=120 time=0
EXTRACT: note_on channel=9 note=42 velocity=80 time=0
EXTRACT: note_on channel=9 note=42 velocity=0 time=0.043918874999999996
EXTRACT: note_on channel=9 note=38 velocity=0 time=0
EXTRACT: note_on channel=9 note=26 velocity=0 time=0
EXTRACT: note_on channel=9 note=32 velocity=0 time=0
EXTRACT: note_on channel=0 note=81 velocity=0 time=0.050675624999999995
EXTRACT: note_on channel=7 note=57 velocity=0 time=0.10135124999999999
EXTRACT: note_on channel=0 note=78 velocity=113 time=0.00675675
EXTRACT: note_on channel=7 note=54 velocity=98 time=0
EXTRACT: note_on channel=9 note=26 velocity=30 time=0
EXTRACT: note_on channel=9 note=32 velocity=30 time=0
EXTRACT: note_on channel=9 note=32 velocity=0 time=0.043918874999999996
EXTRACT: note_on channel=9 note=26 velocity=0 time=0
EXTRACT: note_on channel=0 note=78 velocity=0 time=0.050675624999999995
EXTRACT: note_on channel=7 note=54 velocity=0 time=0.10135124999999999
EXTRACT: note_on channel=0 note=74 velocity=109 time=0.00675675
EXTRACT: note_on channel=7 note=50 velocity=101 time=0
EXTRACT: note_on channel=9 note=26 velocity=50 time=0
EXTRACT: note_on channel=9 note=32 velocity=50 time=0
EXTRACT: note_on channel=9 note=42 velocity=70 time=0
EXTRACT: note_on channel=9 note=42 velocity=0 time=0.043918874999999996
EXTRACT: note_on channel=9 note=32 velocity=0 time=0
EXTRACT: note_on channel=9 note=26 velocity=0 time=0
EXTRACT: note_on channel=0 note=74 velocity=0 time=0.050675624999999995
EXTRACT: note_on channel=7 note=50 velocity=0 time=0.10135124999999999
EXTRACT: note_on channel=1 note=38 velocity=0 time=0
EXTRACT: note_on channel=0 note=78 velocity=110 time=0.00675675
EXTRACT: note_on channel=1 note=38 velocity=121 time=0
EXTRACT: note_on channel=7 note=54 velocity=95 time=0
EXTRACT: note_on channel=9 note=26 velocity=30 time=0
EXTRACT: note_on channel=9 note=32 velocity=30 time=0
EXTRACT: note_on channel=9 note=36 velocity=120 time=0
EXTRACT: note_on channel=10 note=52 velocity=120 time=0
EXTRACT: note_on channel=10 note=57 velocity=120 time=0.03378375
EXTRACT: note_on channel=10 note=52 velocity=0 time=0.010135125
EXTRACT: note_on channel=9 note=36 velocity=0 time=0
EXTRACT: note_on channel=9 note=26 velocity=0 time=0
EXTRACT: note_on channel=9 note=32 velocity=0 time=0
EXTRACT: note_on channel=10 note=57 velocity=0 time=0.03378375
EXTRACT: note_on channel=0 note=78 velocity=0 time=0.016891875
EXTRACT: note_on channel=3 note=66 velocity=0 time=0.037162125
EXTRACT: note_on channel=7 note=54 velocity=0 time=0.064189125
EXTRACT: note_on channel=0 note=74 velocity=113 time=0.00675675
EXTRACT: note_on channel=7 note=50 velocity=104 time=0
EXTRACT: note_on channel=9 note=26 velocity=50 time=0
EXTRACT: note_on channel=9 note=32 velocity=50 time=0
EXTRACT: note_on channel=9 note=42 velocity=80 time=0
EXTRACT: note_on channel=9 note=42 velocity=0 time=0.043918874999999996
EXTRACT: note_on channel=9 note=32 velocity=0 time=0
EXTRACT: note_on channel=9 note=26 velocity=0 time=0
EXTRACT: note_on channel=0 note=74 velocity=0 time=0.050675624999999995
EXTRACT: note_on channel=7 note=50 velocity=0 time=0.10135124999999999
EXTRACT: note_on channel=1 note=38 velocity=0 time=0
EXTRACT: note_on channel=0 note=78 velocity=114 time=0.00675675
EXTRACT: note_on channel=1 note=38 velocity=121 time=0
EXTRACT: note_on channel=7 note=54 velocity=86 time=0
EXTRACT: note_on channel=9 note=26 velocity=30 time=0
EXTRACT: note_on channel=9 note=32 velocity=30 time=0
EXTRACT: note_on channel=9 note=36 velocity=120 time=0
EXTRACT: note_on channel=10 note=52 velocity=120 time=0
EXTRACT: note_on channel=10 note=57 velocity=120 time=0.03378375
EXTRACT: note_on channel=10 note=52 velocity=0 time=0.010135125
EXTRACT: note_on channel=9 note=36 velocity=0 time=0
EXTRACT: note_on channel=9 note=32 velocity=0 time=0
EXTRACT: note_on channel=9 note=26 velocity=0 time=0
EXTRACT: note_on channel=10 note=57 velocity=0 time=0.03378375
EXTRACT: note_on channel=0 note=78 velocity=0 time=0.016891875
EXTRACT: note_on channel=7 note=54 velocity=0 time=0.10135124999999999
EXTRACT: note_on channel=1 note=38 velocity=0 time=0
EXTRACT: note_on channel=0 note=81 velocity=111 time=0.00675675
EXTRACT: note_on channel=1 note=38 velocity=121 time=0
EXTRACT: note_on channel=7 note=57 velocity=101 time=0
EXTRACT: note_on channel=9 note=26 velocity=50 time=0
EXTRACT: note_on channel=9 note=32 velocity=50 time=0
EXTRACT: note_on channel=9 note=36 velocity=120 time=0
EXTRACT: note_on channel=9 note=42 velocity=70 time=0
EXTRACT: note_on channel=10 note=52 velocity=120 time=0
EXTRACT: note_on channel=10 note=57 velocity=120 time=0.03378375
EXTRACT: note_on channel=10 note=52 velocity=0 time=0.010135125
EXTRACT: note_on channel=9 note=42 velocity=0 time=0
EXTRACT: note_on channel=9 note=32 velocity=0 time=0
EXTRACT: note_on channel=9 note=26 velocity=0 time=0
EXTRACT: note_on channel=9 note=36 velocity=0 time=0
EXTRACT: note_on channel=10 note=57 velocity=0 time=0.03378375
EXTRACT: note_on channel=0 note=81 velocity=0 time=0.016891875
EXTRACT: note_on channel=7 note=57 velocity=0 time=0.10135124999999999
EXTRACT: note_on channel=0 note=78 velocity=112 time=0.00675675
EXTRACT: note_on channel=3 note=62 velocity=109 time=0
EXTRACT: note_on channel=7 note=54 velocity=98 time=0
EXTRACT: note_on channel=9 note=26 velocity=30 time=0
EXTRACT: note_on channel=9 note=32 velocity=30 time=0
EXTRACT: note_on channel=9 note=32 velocity=0 time=0.043918874999999996
EXTRACT: note_on channel=9 note=26 velocity=0 time=0
EXTRACT: note_on channel=3 note=62 velocity=0 time=0.043918874999999996
EXTRACT: note_on channel=0 note=78 velocity=0 time=0.00675675
EXTRACT: note_on channel=7 note=54 velocity=0 time=0.10135124999999999
EXTRACT: note_on channel=0 note=81 velocity=113 time=0.00675675
EXTRACT: note_on channel=3 note=62 velocity=112 time=0
EXTRACT: note_on channel=7 note=57 velocity=101 time=0
EXTRACT: note_on channel=9 note=26 velocity=50 time=0
EXTRACT: note_on channel=9 note=32 velocity=50 time=0
EXTRACT: note_on channel=9 note=38 velocity=120 time=0
EXTRACT: note_on channel=9 note=42 velocity=80 time=0
EXTRACT: note_on channel=9 note=42 velocity=0 time=0.043918874999999996
EXTRACT: note_on channel=9 note=38 velocity=0 time=0
EXTRACT: note_on channel=9 note=26 velocity=0 time=0
EXTRACT: note_on channel=9 note=32 velocity=0 time=0
EXTRACT: note_on channel=0 note=81 velocity=0 time=0.050675624999999995
EXTRACT: note_on channel=3 note=62 velocity=0 time=0.030405375
EXTRACT: note_on channel=7 note=57 velocity=0 time=0.07094587499999999
EXTRACT: note_on channel=0 note=78 velocity=115 time=0.00675675
EXTRACT: note_on channel=3 note=62 velocity=106 time=0
EXTRACT: note_on channel=7 note=54 velocity=93 time=0
EXTRACT: note_on channel=9 note=26 velocity=30 time=0
EXTRACT: note_on channel=9 note=32 velocity=30 time=0
EXTRACT: note_on channel=9 note=32 velocity=0 time=0.043918874999999996
EXTRACT: note_on channel=9 note=26 velocity=0 time=0
EXTRACT: note_on channel=0 note=78 velocity=0 time=0.050675624999999995
EXTRACT: note_on channel=3 note=62 velocity=0 time=0.003378375
EXTRACT: note_on channel=7 note=54 velocity=0 time=0.097972875
EXTRACT: note_on channel=0 note=74 velocity=115 time=0.00675675
EXTRACT: note_on channel=3 note=62 velocity=104 time=0
EXTRACT: note_on channel=7 note=50 velocity=90 time=0
EXTRACT: note_on channel=9 note=26 velocity=50 time=0
EXTRACT: note_on channel=9 note=32 velocity=50 time=0
EXTRACT: note_on channel=9 note=42 velocity=70 time=0
EXTRACT: note_on channel=9 note=42 velocity=0 time=0.043918874999999996
EXTRACT: note_on channel=9 note=32 velocity=0 time=0
EXTRACT: note_on channel=9 note=26 velocity=0 time=0
EXTRACT: note_on channel=3 note=62 velocity=0 time=0.050675624999999995
EXTRACT: note_on channel=0 note=74 velocity=0 time=0
EXTRACT: note_on channel=7 note=50 velocity=0 time=0.10135124999999999
EXTRACT: note_on channel=0 note=78 velocity=115 time=0.00675675
EXTRACT: note_on channel=3 note=62 velocity=106 time=0
EXTRACT: note_on channel=7 note=54 velocity=90 time=0
EXTRACT: note_on channel=9 note=26 velocity=30 time=0
EXTRACT: note_on channel=9 note=32 velocity=30 time=0
EXTRACT: note_on channel=9 note=32 velocity=0 time=0.043918874999999996
EXTRACT: note_on channel=9 note=26 velocity=0 time=0
EXTRACT: note_on channel=0 note=78 velocity=0 time=0.050675624999999995
EXTRACT: note_on channel=3 note=62 velocity=0 time=0.04729725
EXTRACT: note_on channel=5 note=62 velocity=0 time=0.054054
EXTRACT: note_on channel=1 note=38 velocity=0 time=0
EXTRACT: note_on channel=6 note=50 velocity=0 time=0
EXTRACT: note_on channel=11 note=86 velocity=0 time=0
EXTRACT: note_on channel=5 note=54 velocity=0 time=0
EXTRACT: note_on channel=2 note=66 velocity=0 time=0
EXTRACT: note_on channel=7 note=54 velocity=0 time=0
EXTRACT: note_on channel=2 note=57 velocity=0 time=0
EXTRACT: note_on channel=5 note=50 velocity=0 time=0
EXTRACT: note_on channel=2 note=62 velocity=0 time=0
EXTRACT: note_on channel=6 note=45 velocity=0 time=0
EXTRACT: note_on channel=11 note=90 velocity=0 time=0
EXTRACT: note_on channel=11 note=81 velocity=0 time=0
EXTRACT: note_on channel=5 note=57 velocity=0 time=0
EXTRACT: note_on channel=0 note=73 velocity=112 time=0.00675675
EXTRACT: note_on channel=1 note=37 velocity=120 time=0
EXTRACT: note_on channel=2 note=57 velocity=100 time=0
EXTRACT: note_on channel=2 note=61 velocity=100 time=0
EXTRACT: note_on channel=2 note=66 velocity=100 time=0
EXTRACT: note_on channel=3 note=66 velocity=118 time=0
EXTRACT: note_on channel=5 note=49 velocity=99 time=0
EXTRACT: note_on channel=5 note=54 velocity=99 time=0
EXTRACT: note_on channel=5 note=57 velocity=99 time=0
EXTRACT: note_on channel=5 note=61 velocity=99 time=0
EXTRACT: note_on channel=6 note=42 velocity=101 time=0
EXTRACT: note_on channel=6 note=49 velocity=101 time=0
EXTRACT: note_on channel=7 note=49 velocity=104 time=0
EXTRACT: note_on channel=8 note=37 velocity=79 time=0
EXTRACT: note_on channel=9 note=26 velocity=50 time=0
EXTRACT: note_on channel=9 note=32 velocity=50 time=0
EXTRACT: note_on channel=9 note=36 velocity=120 time=0
EXTRACT: note_on channel=9 note=42 velocity=80 time=0
EXTRACT: note_on channel=10 note=52 velocity=120 time=0
EXTRACT: note_on channel=11 note=81 velocity=100 time=0
EXTRACT: note_on channel=11 note=85 velocity=100 time=0
EXTRACT: note_on channel=11 note=90 velocity=100 time=0
EXTRACT: note_on channel=10 note=57 velocity=120 time=0.03378375
EXTRACT: note_on channel=10 note=52 velocity=0 time=0.010135125
EXTRACT: note_on channel=9 note=42 velocity=0 time=0
EXTRACT: note_on channel=9 note=36 velocity=0 time=0
EXTRACT: note_on channel=9 note=32 velocity=0 time=0
EXTRACT: note_on channel=9 note=26 velocity=0 time=0
EXTRACT: note_on channel=10 note=57 velocity=0 time=0.03378375
EXTRACT: note_on channel=0 note=73 velocity=0 time=0.016891875
EXTRACT: note_on channel=7 note=49 velocity=0 time=0.10135124999999999
EXTRACT: note_on channel=0 note=78 velocity=115 time=0.00675675
EXTRACT: note_on channel=7 note=54 velocity=93 time=0
EXTRACT: note_on channel=9 note=26 velocity=30 time=0
EXTRACT: note_on channel=9 note=32 velocity=30 time=0
EXTRACT: note_on channel=9 note=32 velocity=0 time=0.043918874999999996
EXTRACT: note_on channel=9 note=26 velocity=0 time=0
EXTRACT: note_on channel=0 note=78 velocity=0 time=0.050675624999999995
EXTRACT: note_on channel=3 note=66 velocity=0 time=0.0135135
EXTRACT: note_on channel=7 note=54 velocity=0 time=0.08783774999999999
EXTRACT: note_on channel=8 note=37 velocity=0 time=0
EXTRACT: note_on channel=0 note=81 velocity=118 time=0.00675675
EXTRACT: note_on channel=3 note=69 velocity=118 time=0
EXTRACT: note_on channel=7 note=57 velocity=89 time=0
EXTRACT: note_on channel=9 note=26 velocity=50 time=0
EXTRACT: note_on channel=9 note=32 velocity=50 time=0
EXTRACT: note_on channel=9 note=42 velocity=70 time=0
EXTRACT: note_on channel=9 note=42 velocity=0 time=0.043918874999999996
EXTRACT: note_on channel=9 note=32 velocity=0 time=0
EXTRACT: note_on channel=9 note=26 velocity=0 time=0
EXTRACT: note_on channel=0 note=81 velocity=0 time=0.050675624999999995
EXTRACT: note_on channel=7 note=57 velocity=0 time=0.10135124999999999
EXTRACT: note_on channel=3 note=69 velocity=0 time=0.003378375
EXTRACT: note_on channel=0 note=78 velocity=118 time=0.003378375
EXTRACT: note_on channel=7 note=54 velocity=77 time=0
EXTRACT: note_on channel=9 note=26 velocity=30 time=0
EXTRACT: note_on channel=9 note=32 velocity=30 time=0
EXTRACT: note_on channel=9 note=32 velocity=0 time=0.043918874999999996
EXTRACT: note_on channel=9 note=26 velocity=0 time=0
EXTRACT: note_on channel=0 note=78 velocity=0 time=0.050675624999999995
EXTRACT: note_on channel=7 note=54 velocity=0 time=0.10135124999999999
EXTRACT: note_on channel=0 note=81 velocity=113 time=0.00675675
EXTRACT: note_on channel=3 note=66 velocity=115 time=0
EXTRACT: note_on channel=7 note=57 velocity=98 time=0
EXTRACT: note_on channel=9 note=26 velocity=50 time=0
EXTRACT: note_on channel=9 note=32 velocity=50 time=0
EXTRACT: note_on channel=9 note=38 velocity=120 time=0
EXTRACT: note_on channel=9 note=42 velocity=80 time=0
EXTRACT: note_on channel=9 note=42 velocity=0 time=0.043918874999999996
EXTRACT: note_on channel=9 note=38 velocity=0 time=0
EXTRACT: note_on channel=9 note=26 velocity=0 time=0
EXTRACT: note_on channel=9 note=32 velocity=0 time=0
EXTRACT: note_on channel=0 note=81 velocity=0 time=0.050675624999999995
EXTRACT: note_on channel=7 note=57 velocity=0 time=0.10135124999999999
EXTRACT: note_on channel=0 note=78 velocity=113 time=0.00675675
EXTRACT: note_on channel=7 note=54 velocity=98 time=0
EXTRACT: note_on channel=9 note=26 velocity=30 time=0
EXTRACT: note_on channel=9 note=32 velocity=30 time=0
EXTRACT: note_on channel=9 note=32 velocity=0 time=0.043918874999999996
EXTRACT: note_on channel=9 note=26 velocity=0 time=0
EXTRACT: note_on channel=0 note=78 velocity=0 time=0.050675624999999995
EXTRACT: note_on channel=7 note=54 velocity=0 time=0.10135124999999999
EXTRACT: note_on channel=0 note=73 velocity=109 time=0.00675675
EXTRACT: note_on channel=7 note=49 velocity=101 time=0
EXTRACT: note_on channel=9 note=26 velocity=50 time=0
EXTRACT: note_on channel=9 note=32 velocity=50 time=0
EXTRACT: note_on channel=9 note=42 velocity=70 time=0
EXTRACT: note_on channel=9 note=42 velocity=0 time=0.043918874999999996
EXTRACT: note_on channel=9 note=32 velocity=0 time=0
EXTRACT: note_on channel=9 note=26 velocity=0 time=0
EXTRACT: note_on channel=0 note=73 velocity=0 time=0.050675624999999995
EXTRACT: note_on channel=7 note=49 velocity=0 time=0.10135124999999999
EXTRACT: note_on channel=1 note=37 velocity=0 time=0
EXTRACT: note_on channel=0 note=78 velocity=110 time=0.00675675
EXTRACT: note_on channel=1 note=37 velocity=120 time=0
EXTRACT: note_on channel=7 note=54 velocity=95 time=0
EXTRACT: note_on channel=9 note=26 velocity=30 time=0
EXTRACT: note_on channel=9 note=32 velocity=30 time=0
EXTRACT: note_on channel=9 note=36 velocity=120 time=0
EXTRACT: note_on channel=10 note=52 velocity=120 time=0
EXTRACT: note_on channel=10 note=57 velocity=120 time=0.03378375
EXTRACT: note_on channel=10 note=52 velocity=0 time=0.010135125
EXTRACT: note_on channel=9 note=36 velocity=0 time=0
EXTRACT: note_on channel=9 note=26 velocity=0 time=0
EXTRACT: note_on channel=9 note=32 velocity=0 time=0
EXTRACT: note_on channel=10 note=57 velocity=0 time=0.03378375
EXTRACT: note_on channel=0 note=78 velocity=0 time=0.016891875
EXTRACT: note_on channel=7 note=54 velocity=0 time=0.10135124999999999
EXTRACT: note_on channel=3 note=66 velocity=0 time=0
EXTRACT: note_on channel=0 note=73 velocity=113 time=0.00675675
EXTRACT: note_on channel=7 note=49 velocity=104 time=0
EXTRACT: note_on channel=9 note=26 velocity=50 time=0
EXTRACT: note_on channel=9 note=32 velocity=50 time=0
EXTRACT: note_on channel=9 note=42 velocity=80 time=0
EXTRACT: note_on channel=9 note=42 velocity=0 time=0.043918874999999996
EXTRACT: note_on channel=9 note=32 velocity=0 time=0
EXTRACT: note_on channel=9 note=26 velocity=0 time=0
EXTRACT: note_on channel=0 note=73 velocity=0 time=0.050675624999999995
EXTRACT: note_on channel=7 note=49 velocity=0 time=0.10135124999999999
EXTRACT: note_on channel=1 note=37 velocity=0 time=0
EXTRACT: note_on channel=0 note=78 velocity=114 time=0.00675675
EXTRACT: note_on channel=1 note=37 velocity=120 time=0
EXTRACT: note_on channel=3 note=62 velocity=121 time=0
EXTRACT: note_on channel=7 note=54 velocity=86 time=0
EXTRACT: note_on channel=9 note=26 velocity=30 time=0
EXTRACT: note_on channel=9 note=32 velocity=30 time=0
EXTRACT: note_on channel=9 note=36 velocity=120 time=0
EXTRACT: note_on channel=10 note=52 velocity=120 time=0
EXTRACT: note_on channel=10 note=57 velocity=120 time=0.03378375
EXTRACT: note_on channel=10 note=52 velocity=0 time=0.010135125
EXTRACT: note_on channel=9 note=36 velocity=0 time=0
EXTRACT: note_on channel=9 note=26 velocity=0 time=0
EXTRACT: note_on channel=9 note=32 velocity=0 time=0
EXTRACT: note_on channel=10 note=57 velocity=0 time=0.03378375
EXTRACT: note_on channel=3 note=62 velocity=0 time=0.00675675
EXTRACT: note_on channel=0 note=78 velocity=0 time=0.010135125
EXTRACT: note_on channel=7 note=54 velocity=0 time=0.10135124999999999
EXTRACT: note_on channel=1 note=37 velocity=0 time=0
EXTRACT: note_on channel=0 note=81 velocity=111 time=0.00675675
EXTRACT: note_on channel=1 note=37 velocity=120 time=0
EXTRACT: note_on channel=3 note=62 velocity=106 time=0
EXTRACT: note_on channel=7 note=57 velocity=101 time=0
EXTRACT: note_on channel=9 note=26 velocity=50 time=0
EXTRACT: note_on channel=9 note=32 velocity=50 time=0
EXTRACT: note_on channel=9 note=36 velocity=120 time=0
EXTRACT: note_on channel=9 note=42 velocity=70 time=0
EXTRACT: note_on channel=10 note=52 velocity=120 time=0
EXTRACT: note_on channel=10 note=57 velocity=120 time=0.03378375
EXTRACT: note_on channel=10 note=52 velocity=0 time=0.010135125
EXTRACT: note_on channel=9 note=42 velocity=0 time=0
EXTRACT: note_on channel=9 note=26 velocity=0 time=0
EXTRACT: note_on channel=9 note=36 velocity=0 time=0
EXTRACT: note_on channel=9 note=32 velocity=0 time=0
EXTRACT: note_on channel=10 note=57 velocity=0 time=0.03378375
EXTRACT: note_on channel=0 note=81 velocity=0 time=0.016891875
EXTRACT: note_on channel=3 note=62 velocity=0 time=0.027027
EXTRACT: note_on channel=7 note=57 velocity=0 time=0.07432425
EXTRACT: note_on channel=0 note=78 velocity=112 time=0.00675675
EXTRACT: note_on channel=3 note=62 velocity=101 time=0
EXTRACT: note_on channel=7 note=54 velocity=98 time=0
EXTRACT: note_on channel=9 note=26 velocity=30 time=0
EXTRACT: note_on channel=9 note=32 velocity=30 time=0
EXTRACT: note_on channel=9 note=32 velocity=0 time=0.043918874999999996
EXTRACT: note_on channel=9 note=26 velocity=0 time=0
EXTRACT: note_on channel=3 note=62 velocity=0 time=0.050675624999999995
EXTRACT: note_on channel=0 note=78 velocity=0 time=0
EXTRACT: note_on channel=7 note=54 velocity=0 time=0.10135124999999999
EXTRACT: note_on channel=0 note=81 velocity=113 time=0.00675675
EXTRACT: note_on channel=3 note=62 velocity=112 time=0
EXTRACT: note_on channel=7 note=57 velocity=101 time=0
EXTRACT: note_on channel=9 note=26 velocity=50 time=0
EXTRACT: note_on channel=9 note=32 velocity=50 time=0
EXTRACT: note_on channel=9 note=38 velocity=120 time=0
EXTRACT: note_on channel=9 note=42 velocity=80 time=0
EXTRACT: note_on channel=9 note=42 velocity=0 time=0.043918874999999996
EXTRACT: note_on channel=9 note=38 velocity=0 time=0
EXTRACT: note_on channel=9 note=26 velocity=0 time=0
EXTRACT: note_on channel=9 note=32 velocity=0 time=0
EXTRACT: note_on channel=0 note=81 velocity=0 time=0.050675624999999995
EXTRACT: note_on channel=3 note=62 velocity=0 time=0.03378375
EXTRACT: note_on channel=7 note=57 velocity=0 time=0.0675675
EXTRACT: note_on channel=0 note=78 velocity=115 time=0.00675675
EXTRACT: note_on channel=3 note=62 velocity=85 time=0
EXTRACT: note_on channel=7 note=54 velocity=93 time=0
EXTRACT: note_on channel=9 note=26 velocity=30 time=0
EXTRACT: note_on channel=9 note=32 velocity=30 time=0
EXTRACT: note_on channel=9 note=32 velocity=0 time=0.043918874999999996
EXTRACT: note_on channel=9 note=26 velocity=0 time=0
EXTRACT: note_on channel=3 note=62 velocity=0 time=0.050675624999999995
EXTRACT: note_on channel=0 note=78 velocity=0 time=0
EXTRACT: note_on channel=7 note=54 velocity=0 time=0.10135124999999999
EXTRACT: note_on channel=0 note=73 velocity=115 time=0.00675675
EXTRACT: note_on channel=3 note=62 velocity=98 time=0
EXTRACT: note_on channel=7 note=49 velocity=90 time=0
EXTRACT: note_on channel=9 note=26 velocity=50 time=0
EXTRACT: note_on channel=9 note=32 velocity=50 time=0
EXTRACT: note_on channel=9 note=36 velocity=114 time=0
EXTRACT: note_on channel=9 note=42 velocity=70 time=0
EXTRACT: note_on channel=10 note=52 velocity=114 time=0
EXTRACT: note_on channel=10 note=57 velocity=114 time=0.03378375
EXTRACT: note_on channel=10 note=52 velocity=0 time=0.010135125
EXTRACT: note_on channel=9 note=42 velocity=0 time=0
EXTRACT: note_on channel=9 note=26 velocity=0 time=0
EXTRACT: note_on channel=9 note=36 velocity=0 time=0
EXTRACT: note_on channel=9 note=32 velocity=0 time=0
EXTRACT: note_on channel=10 note=57 velocity=0 time=0.03378375
EXTRACT: note_on channel=0 note=73 velocity=0 time=0.016891875
EXTRACT: note_on channel=3 note=62 velocity=0 time=0.010135125
EXTRACT: note_on channel=7 note=49 velocity=0 time=0.091216125
EXTRACT: note_on channel=0 note=78 velocity=115 time=0.00675675
EXTRACT: note_on channel=3 note=62 velocity=104 time=0
EXTRACT: note_on channel=7 note=54 velocity=90 time=0
EXTRACT: note_on channel=9 note=26 velocity=30 time=0
EXTRACT: note_on channel=9 note=32 velocity=30 time=0
EXTRACT: note_on channel=9 note=36 velocity=114 time=0
EXTRACT: note_on channel=10 note=52 velocity=114 time=0
EXTRACT: note_on channel=10 note=57 velocity=114 time=0.03378375
EXTRACT: note_on channel=10 note=52 velocity=0 time=0.010135125
EXTRACT: note_on channel=9 note=36 velocity=0 time=0
EXTRACT: note_on channel=9 note=26 velocity=0 time=0
EXTRACT: note_on channel=9 note=32 velocity=0 time=0
EXTRACT: note_on channel=10 note=57 velocity=0 time=0.03378375
EXTRACT: note_on channel=0 note=78 velocity=0 time=0.016891875
EXTRACT: note_on channel=3 note=62 velocity=0 time=0.037162125
EXTRACT: note_on channel=6 note=49 velocity=0 time=0.064189125
EXTRACT: note_on channel=1 note=37 velocity=0 time=0
EXTRACT: note_on channel=2 note=61 velocity=0 time=0
EXTRACT: note_on channel=2 note=57 velocity=0 time=0
EXTRACT: note_on channel=11 note=90 velocity=0 time=0
EXTRACT: note_on channel=11 note=81 velocity=0 time=0
EXTRACT: note_on channel=2 note=66 velocity=0 time=0
EXTRACT: note_on channel=11 note=85 velocity=0 time=0
EXTRACT: note_on channel=5 note=49 velocity=0 time=0
EXTRACT: note_on channel=5 note=54 velocity=0 time=0
EXTRACT: note_on channel=7 note=54 velocity=0 time=0
EXTRACT: note_on channel=5 note=61 velocity=0 time=0
EXTRACT: note_on channel=5 note=57 velocity=0 time=0
EXTRACT: note_on channel=6 note=42 velocity=0 time=0
EXTRACT: note_on channel=0 note=71 velocity=112 time=0.00675675
EXTRACT: note_on channel=1 note=35 velocity=120 time=0
EXTRACT: note_on channel=2 note=59 velocity=102 time=0
EXTRACT: note_on channel=2 note=62 velocity=102 time=0
EXTRACT: note_on channel=2 note=66 velocity=102 time=0
EXTRACT: note_on channel=3 note=66 velocity=115 time=0
EXTRACT: note_on channel=5 note=47 velocity=99 time=0
EXTRACT: note_on channel=5 note=54 velocity=99 time=0
EXTRACT: note_on channel=5 note=59 velocity=99 time=0
EXTRACT: note_on channel=5 note=62 velocity=99 time=0
EXTRACT: note_on channel=6 note=47 velocity=98 time=0
EXTRACT: note_on channel=6 note=54 velocity=98 time=0
EXTRACT: note_on channel=7 note=47 velocity=104 time=0
EXTRACT: note_on channel=8 note=35 velocity=82 time=0
EXTRACT: note_on channel=9 note=26 velocity=50 time=0
EXTRACT: note_on channel=9 note=32 velocity=50 time=0
EXTRACT: note_on channel=9 note=36 velocity=120 time=0
EXTRACT: note_on channel=9 note=42 velocity=80 time=0
EXTRACT: note_on channel=10 note=52 velocity=120 time=0
EXTRACT: note_on channel=11 note=83 velocity=102 time=0
EXTRACT: note_on channel=11 note=86 velocity=102 time=0
EXTRACT: note_on channel=11 note=90 velocity=102 time=0
EXTRACT: note_on channel=10 note=57 velocity=120 time=0.037162125
EXTRACT: note_on channel=10 note=52 velocity=0 time=0.00675675
EXTRACT: note_on channel=9 note=42 velocity=0 time=0
EXTRACT: note_on channel=9 note=36 velocity=0 time=0
EXTRACT: note_on channel=9 note=32 velocity=0 time=0
EXTRACT: note_on channel=9 note=26 velocity=0 time=0
EXTRACT: note_on channel=10 note=57 velocity=0 time=0.037162125
EXTRACT: note_on channel=0 note=71 velocity=0 time=0.0135135
EXTRACT: note_on channel=7 note=47 velocity=0 time=0.10135124999999999
EXTRACT: note_on channel=0 note=78 velocity=115 time=0.00675675
EXTRACT: note_on channel=7 note=54 velocity=93 time=0
EXTRACT: note_on channel=9 note=26 velocity=30 time=0
EXTRACT: note_on channel=9 note=32 velocity=30 time=0
EXTRACT: note_on channel=9 note=32 velocity=0 time=0.043918874999999996
EXTRACT: note_on channel=9 note=26 velocity=0 time=0
EXTRACT: note_on channel=0 note=78 velocity=0 time=0.050675624999999995
EXTRACT: note_on channel=3 note=66 velocity=0 time=0.027027
EXTRACT: note_on channel=7 note=54 velocity=0 time=0.07432425
EXTRACT: note_on channel=8 note=35 velocity=0 time=0
EXTRACT: note_on channel=0 note=83 velocity=118 time=0.00675675
EXTRACT: note_on channel=3 note=69 velocity=106 time=0
EXTRACT: note_on channel=7 note=59 velocity=89 time=0
EXTRACT: note_on channel=9 note=26 velocity=50 time=0
EXTRACT: note_on channel=9 note=32 velocity=50 time=0
EXTRACT: note_on channel=9 note=42 velocity=70 time=0
EXTRACT: note_on channel=9 note=42 velocity=0 time=0.043918874999999996
EXTRACT: note_on channel=9 note=32 velocity=0 time=0
EXTRACT: note_on channel=9 note=26 velocity=0 time=0
EXTRACT: note_on channel=0 note=83 velocity=0 time=0.050675624999999995
EXTRACT: note_on channel=7 note=59 velocity=0 time=0.10135124999999999
EXTRACT: note_on channel=0 note=78 velocity=118 time=0.00675675
EXTRACT: note_on channel=7 note=54 velocity=77 time=0
EXTRACT: note_on channel=9 note=26 velocity=30 time=0
EXTRACT: note_on channel=9 note=32 velocity=30 time=0
EXTRACT: note_on channel=9 note=32 velocity=0 time=0.043918874999999996
EXTRACT: note_on channel=9 note=26 velocity=0 time=0
EXTRACT: note_on channel=3 note=69 velocity=0 time=0.027027
EXTRACT: note_on channel=0 note=78 velocity=0 time=0.023648625
EXTRACT: note_on channel=7 note=54 velocity=0 time=0.10135124999999999
EXTRACT: note_on channel=0 note=83 velocity=113 time=0.00675675
EXTRACT: note_on channel=3 note=66 velocity=115 time=0
EXTRACT: note_on channel=7 note=59 velocity=98 time=0
EXTRACT: note_on channel=9 note=26 velocity=50 time=0
EXTRACT: note_on channel=9 note=32 velocity=50 time=0
EXTRACT: note_on channel=9 note=38 velocity=120 time=0
EXTRACT: note_on channel=9 note=42 velocity=80 time=0
EXTRACT: note_on channel=9 note=42 velocity=0 time=0.043918874999999996
EXTRACT: note_on channel=9 note=38 velocity=0 time=0
EXTRACT: note_on channel=9 note=26 velocity=0 time=0
EXTRACT: note_on channel=9 note=32 velocity=0 time=0
EXTRACT: note_on channel=0 note=83 velocity=0 time=0.050675624999999995
EXTRACT: note_on channel=7 note=59 velocity=0 time=0.10135124999999999
EXTRACT: note_on channel=0 note=78 velocity=113 time=0.00675675
EXTRACT: note_on channel=7 note=54 velocity=98 time=0
EXTRACT: note_on channel=9 note=26 velocity=30 time=0
EXTRACT: note_on channel=9 note=32 velocity=30 time=0
EXTRACT: note_on channel=9 note=32 velocity=0 time=0.043918874999999996
EXTRACT: note_on channel=9 note=26 velocity=0 time=0
EXTRACT: note_on channel=0 note=78 velocity=0 time=0.050675624999999995
EXTRACT: note_on channel=7 note=54 velocity=0 time=0.10135124999999999
EXTRACT: note_on channel=0 note=71 velocity=109 time=0.00675675
EXTRACT: note_on channel=7 note=47 velocity=101 time=0
EXTRACT: note_on channel=9 note=26 velocity=50 time=0
EXTRACT: note_on channel=9 note=32 velocity=50 time=0
EXTRACT: note_on channel=9 note=42 velocity=70 time=0
EXTRACT: note_on channel=9 note=42 velocity=0 time=0.043918874999999996
EXTRACT: note_on channel=9 note=32 velocity=0 time=0
EXTRACT: note_on channel=9 note=26 velocity=0 time=0
EXTRACT: note_on channel=0 note=71 velocity=0 time=0.050675624999999995
EXTRACT: note_on channel=7 note=47 velocity=0 time=0.10135124999999999
EXTRACT: note_on channel=1 note=35 velocity=0 time=0
EXTRACT: note_on channel=0 note=78 velocity=110 time=0.00675675
EXTRACT: note_on channel=1 note=35 velocity=120 time=0
EXTRACT: note_on channel=7 note=54 velocity=95 time=0
EXTRACT: note_on channel=9 note=26 velocity=30 time=0
EXTRACT: note_on channel=9 note=32 velocity=30 time=0
EXTRACT: note_on channel=9 note=36 velocity=120 time=0
EXTRACT: note_on channel=10 note=52 velocity=120 time=0
EXTRACT: note_on channel=10 note=57 velocity=120 time=0.03378375
EXTRACT: note_on channel=10 note=52 velocity=0 time=0.010135125
EXTRACT: note_on channel=9 note=36 velocity=0 time=0
EXTRACT: note_on channel=9 note=26 velocity=0 time=0
EXTRACT: note_on channel=9 note=32 velocity=0 time=0
EXTRACT: note_on channel=10 note=57 velocity=0 time=0.03378375
EXTRACT: note_on channel=0 note=78 velocity=0 time=0.016891875
EXTRACT: note_on channel=7 note=54 velocity=0 time=0.10135124999999999
EXTRACT: note_on channel=0 note=71 velocity=113 time=0.00675675
EXTRACT: note_on channel=7 note=47 velocity=104 time=0
EXTRACT: note_on channel=9 note=26 velocity=50 time=0
EXTRACT: note_on channel=9 note=32 velocity=50 time=0
EXTRACT: note_on channel=9 note=42 velocity=80 time=0
EXTRACT: note_on channel=3 note=66 velocity=0 time=0.03378375
EXTRACT: note_on channel=9 note=42 velocity=0 time=0.010135125
EXTRACT: note_on channel=9 note=32 velocity=0 time=0
EXTRACT: note_on channel=9 note=26 velocity=0 time=0
EXTRACT: note_on channel=0 note=71 velocity=0 time=0.050675624999999995
EXTRACT: note_on channel=7 note=47 velocity=0 time=0.10135124999999999
EXTRACT: note_on channel=1 note=35 velocity=0 time=0
EXTRACT: note_on channel=0 note=78 velocity=114 time=0.00675675
EXTRACT: note_on channel=1 note=35 velocity=120 time=0
EXTRACT: note_on channel=7 note=54 velocity=86 time=0
EXTRACT: note_on channel=9 note=26 velocity=30 time=0
EXTRACT: note_on channel=9 note=32 velocity=30 time=0
EXTRACT: note_on channel=9 note=36 velocity=120 time=0
EXTRACT: note_on channel=10 note=52 velocity=120 time=0
EXTRACT: note_on channel=10 note=57 velocity=120 time=0.03378375
EXTRACT: note_on channel=10 note=52 velocity=0 time=0.010135125
EXTRACT: note_on channel=9 note=36 velocity=0 time=0
EXTRACT: note_on channel=9 note=32 velocity=0 time=0
EXTRACT: note_on channel=9 note=26 velocity=0 time=0
EXTRACT: note_on channel=10 note=57 velocity=0 time=0.03378375
EXTRACT: note_on channel=0 note=78 velocity=0 time=0.016891875
EXTRACT: note_on channel=7 note=54 velocity=0 time=0.10135124999999999
EXTRACT: note_on channel=1 note=35 velocity=0 time=0
EXTRACT: note_on channel=0 note=83 velocity=111 time=0.00675675
EXTRACT: note_on channel=1 note=35 velocity=120 time=0
EXTRACT: note_on channel=3 note=62 velocity=115 time=0
EXTRACT: note_on channel=7 note=59 velocity=101 time=0
EXTRACT: note_on channel=9 note=26 velocity=50 time=0
EXTRACT: note_on channel=9 note=32 velocity=50 time=0
EXTRACT: note_on channel=9 note=36 velocity=120 time=0
EXTRACT: note_on channel=9 note=42 velocity=70 time=0
EXTRACT: note_on channel=10 note=52 velocity=120 time=0
EXTRACT: note_on channel=10 note=57 velocity=120 time=0.03378375
EXTRACT: note_on channel=10 note=52 velocity=0 time=0.010135125
EXTRACT: note_on channel=9 note=42 velocity=0 time=0
EXTRACT: note_on channel=9 note=26 velocity=0 time=0
EXTRACT: note_on channel=9 note=36 velocity=0 time=0
EXTRACT: note_on channel=9 note=32 velocity=0 time=0
EXTRACT: note_on channel=10 note=57 velocity=0 time=0.03378375
EXTRACT: note_on channel=0 note=83 velocity=0 time=0.016891875
EXTRACT: note_on channel=7 note=59 velocity=0 time=0.10135124999999999
EXTRACT: note_on channel=0 note=78 velocity=112 time=0.00675675
EXTRACT: note_on channel=7 note=54 velocity=98 time=0
EXTRACT: note_on channel=9 note=26 velocity=30 time=0
EXTRACT: note_on channel=9 note=32 velocity=30 time=0
EXTRACT: note_on channel=9 note=32 velocity=0 time=0.043918874999999996
EXTRACT: note_on channel=9 note=26 velocity=0 time=0
EXTRACT: note_on channel=3 note=62 velocity=0 time=0
EXTRACT: note_on channel=0 note=78 velocity=0 time=0.050675624999999995
EXTRACT: note_on channel=7 note=54 velocity=0 time=0.10135124999999999
EXTRACT: note_on channel=0 note=83 velocity=113 time=0.00675675
EXTRACT: note_on channel=3 note=62 velocity=112 time=0
EXTRACT: note_on channel=7 note=59 velocity=101 time=0
EXTRACT: note_on channel=9 note=26 velocity=50 time=0
EXTRACT: note_on channel=9 note=32 velocity=50 time=0
EXTRACT: note_on channel=9 note=38 velocity=120 time=0
EXTRACT: note_on channel=9 note=42 velocity=80 time=0
EXTRACT: note_on channel=9 note=42 velocity=0 time=0.043918874999999996
EXTRACT: note_on channel=9 note=38 velocity=0 time=0
EXTRACT: note_on channel=9 note=26 velocity=0 time=0
EXTRACT: note_on channel=9 note=32 velocity=0 time=0
EXTRACT: note_on channel=0 note=83 velocity=0 time=0.050675624999999995
EXTRACT: note_on channel=3 note=62 velocity=0 time=0.054054
EXTRACT: note_on channel=7 note=59 velocity=0 time=0.04729725
EXTRACT: note_on channel=0 note=78 velocity=115 time=0.00675675
EXTRACT: note_on channel=3 note=62 velocity=104 time=0
EXTRACT: note_on channel=7 note=54 velocity=93 time=0
EXTRACT: note_on channel=9 note=26 velocity=30 time=0
EXTRACT: note_on channel=9 note=32 velocity=30 time=0
EXTRACT: note_on channel=9 note=32 velocity=0 time=0.043918874999999996
EXTRACT: note_on channel=9 note=26 velocity=0 time=0
EXTRACT: note_on channel=0 note=78 velocity=0 time=0.050675624999999995
EXTRACT: note_on channel=3 note=62 velocity=0 time=0.02027025
EXTRACT: note_on channel=7 note=54 velocity=0 time=0.081081
EXTRACT: note_on channel=0 note=71 velocity=115 time=0.00675675
EXTRACT: note_on channel=3 note=62 velocity=112 time=0
EXTRACT: note_on channel=7 note=47 velocity=90 time=0
EXTRACT: note_on channel=9 note=26 velocity=50 time=0
EXTRACT: note_on channel=9 note=32 velocity=50 time=0
EXTRACT: note_on channel=9 note=42 velocity=70 time=0
EXTRACT: note_on channel=9 note=42 velocity=0 time=0.043918874999999996
EXTRACT: note_on channel=9 note=32 velocity=0 time=0
EXTRACT: note_on channel=9 note=26 velocity=0 time=0
EXTRACT: note_on channel=0 note=71 velocity=0 time=0.050675624999999995
EXTRACT: note_on channel=7 note=47 velocity=0 time=0.10135124999999999
EXTRACT: note_on channel=0 note=78 velocity=115 time=0.00675675
EXTRACT: note_on channel=7 note=54 velocity=90 time=0
EXTRACT: note_on channel=9 note=26 velocity=30 time=0
EXTRACT: note_on channel=9 note=32 velocity=30 time=0
EXTRACT: note_on channel=9 note=32 velocity=0 time=0.043918874999999996
EXTRACT: note_on channel=9 note=26 velocity=0 time=0
EXTRACT: note_on channel=3 note=62 velocity=0 time=0.010135125
EXTRACT: note_on channel=0 note=78 velocity=0 time=0.0405405
EXTRACT: note_on channel=6 note=54 velocity=0 time=0.10135124999999999
EXTRACT: note_on channel=5 note=59 velocity=0 time=0
EXTRACT: note_on channel=2 note=62 velocity=0 time=0
EXTRACT: note_on channel=2 note=59 velocity=0 time=0
EXTRACT: note_on channel=11 note=83 velocity=0 time=0
EXTRACT: note_on channel=11 note=90 velocity=0 time=0
EXTRACT: note_on channel=7 note=54 velocity=0 time=0
EXTRACT: note_on channel=5 note=54 velocity=0 time=0
EXTRACT: note_on channel=1 note=35 velocity=0 time=0
EXTRACT: note_on channel=11 note=86 velocity=0 time=0
EXTRACT: note_on channel=5 note=62 velocity=0 time=0
EXTRACT: note_on channel=2 note=66 velocity=0 time=0
EXTRACT: note_on channel=5 note=47 velocity=0 time=0
EXTRACT: note_on channel=6 note=47 velocity=0 time=0
EXTRACT: note_on channel=0 note=67 velocity=112 time=0.00675675
EXTRACT: note_on channel=1 note=31 velocity=118 time=0
EXTRACT: note_on channel=2 note=59 velocity=101 time=0
EXTRACT: note_on channel=2 note=62 velocity=101 time=0
EXTRACT: note_on channel=2 note=67 velocity=101 time=0
EXTRACT: note_on channel=3 note=67 velocity=121 time=0
EXTRACT: note_on channel=4 note=55 velocity=121 time=0
EXTRACT: note_on channel=4 note=59 velocity=121 time=0
EXTRACT: note_on channel=4 note=67 velocity=121 time=0
EXTRACT: note_on channel=5 note=43 velocity=101 time=0
EXTRACT: note_on channel=5 note=55 velocity=101 time=0
EXTRACT: note_on channel=5 note=59 velocity=101 time=0
EXTRACT: note_on channel=5 note=62 velocity=101 time=0
EXTRACT: note_on channel=6 note=43 velocity=99 time=0
EXTRACT: note_on channel=6 note=50 velocity=99 time=0
EXTRACT: note_on channel=7 note=47 velocity=104 time=0
EXTRACT: note_on channel=8 note=31 velocity=81 time=0
EXTRACT: note_on channel=9 note=26 velocity=50 time=0
EXTRACT: note_on channel=9 note=32 velocity=50 time=0
EXTRACT: note_on channel=9 note=36 velocity=120 time=0
EXTRACT: note_on channel=9 note=42 velocity=80 time=0
EXTRACT: note_on channel=10 note=52 velocity=120 time=0
EXTRACT: note_on channel=11 note=83 velocity=101 time=0
EXTRACT: note_on channel=11 note=86 velocity=101 time=0
EXTRACT: note_on channel=11 note=91 velocity=101 time=0
EXTRACT: note_on channel=15 note=55 velocity=1 time=0
EXTRACT: note_on channel=15 note=67 velocity=1 time=0
EXTRACT: note_on channel=15 note=59 velocity=1 time=0
EXTRACT: note_on channel=10 note=57 velocity=120 time=0.03378375
EXTRACT: note_on channel=10 note=52 velocity=0 time=0.010135125
EXTRACT: note_on channel=9 note=42 velocity=0 time=0
EXTRACT: note_on channel=9 note=36 velocity=0 time=0
EXTRACT: note_on channel=9 note=26 velocity=0 time=0
EXTRACT: note_on channel=9 note=32 velocity=0 time=0
EXTRACT: note_on channel=10 note=57 velocity=0 time=0.03378375
EXTRACT: note_on channel=0 note=67 velocity=0 time=0.016891875
EXTRACT: note_on channel=7 note=47 velocity=0 time=0.10135124999999999
EXTRACT: note_on channel=0 note=74 velocity=115 time=0.00675675
EXTRACT: note_on channel=7 note=50 velocity=93 time=0
EXTRACT: note_on channel=9 note=26 velocity=30 time=0
EXTRACT: note_on channel=9 note=32 velocity=30 time=0
EXTRACT: note_on channel=9 note=32 velocity=0 time=0.043918874999999996
EXTRACT: note_on channel=9 note=26 velocity=0 time=0
EXTRACT: note_on channel=0 note=74 velocity=0 time=0.050675624999999995
EXTRACT: note_on channel=7 note=50 velocity=0 time=0.10135124999999999
EXTRACT: note_on channel=8 note=31 velocity=0 time=0
EXTRACT: note_on channel=0 note=79 velocity=118 time=0.00675675
EXTRACT: note_on channel=7 note=59 velocity=89 time=0
EXTRACT: note_on channel=9 note=26 velocity=50 time=0
EXTRACT: note_on channel=9 note=32 velocity=50 time=0
EXTRACT: note_on channel=9 note=42 velocity=70 time=0
EXTRACT: note_on channel=9 note=42 velocity=0 time=0.043918874999999996
EXTRACT: note_on channel=9 note=32 velocity=0 time=0
EXTRACT: note_on channel=9 note=26 velocity=0 time=0
EXTRACT: note_on channel=0 note=79 velocity=0 time=0.050675624999999995
EXTRACT: note_on channel=7 note=59 velocity=0 time=0.10135124999999999
EXTRACT: note_on channel=0 note=74 velocity=118 time=0.00675675
EXTRACT: note_on channel=7 note=50 velocity=77 time=0
EXTRACT: note_on channel=9 note=26 velocity=30 time=0
EXTRACT: note_on channel=9 note=32 velocity=30 time=0
EXTRACT: note_on channel=9 note=32 velocity=0 time=0.043918874999999996
EXTRACT: note_on channel=9 note=26 velocity=0 time=0
EXTRACT: note_on channel=3 note=67 velocity=0 time=0.027027
EXTRACT: note_on channel=4 note=67 velocity=0 time=0
EXTRACT: note_on channel=4 note=59 velocity=0 time=0
EXTRACT: note_on channel=15 note=55 velocity=0 time=0
EXTRACT: note_on channel=4 note=55 velocity=0 time=0
EXTRACT: note_on channel=15 note=59 velocity=0 time=0
EXTRACT: note_on channel=15 note=67 velocity=0 time=0
EXTRACT: note_on channel=0 note=74 velocity=0 time=0.023648625
EXTRACT: note_on channel=7 note=50 velocity=0 time=0.10135124999999999
EXTRACT: note_on channel=0 note=79 velocity=113 time=0.00675675
EXTRACT: note_on channel=3 note=66 velocity=121 time=0
EXTRACT: note_on channel=4 note=54 velocity=121 time=0
EXTRACT: note_on channel=4 note=57 velocity=121 time=0
EXTRACT: note_on channel=4 note=66 velocity=121 time=0
EXTRACT: note_on channel=7 note=59 velocity=98 time=0
EXTRACT: note_on channel=9 note=26 velocity=50 time=0
EXTRACT: note_on channel=9 note=32 velocity=50 time=0
EXTRACT: note_on channel=9 note=38 velocity=120 time=0
EXTRACT: note_on channel=9 note=42 velocity=80 time=0
EXTRACT: note_on channel=15 note=57 velocity=1 time=0
EXTRACT: note_on channel=15 note=66 velocity=1 time=0
EXTRACT: note_on channel=15 note=54 velocity=1 time=0
EXTRACT: note_on channel=9 note=42 velocity=0 time=0.043918874999999996
EXTRACT: note_on channel=9 note=38 velocity=0 time=0
EXTRACT: note_on channel=9 note=32 velocity=0 time=0
EXTRACT: note_on channel=9 note=26 velocity=0 time=0
EXTRACT: note_on channel=0 note=79 velocity=0 time=0.050675624999999995
EXTRACT: note_on channel=7 note=59 velocity=0 time=0.10135124999999999
EXTRACT: note_on channel=0 note=74 velocity=113 time=0.00675675
EXTRACT: note_on channel=7 note=50 velocity=98 time=0
EXTRACT: note_on channel=9 note=26 velocity=30 time=0
EXTRACT: note_on channel=9 note=32 velocity=30 time=0
EXTRACT: note_on channel=9 note=32 velocity=0 time=0.043918874999999996
EXTRACT: note_on channel=9 note=26 velocity=0 time=0
EXTRACT: note_on channel=0 note=74 velocity=0 time=0.050675624999999995
EXTRACT: note_on channel=7 note=50 velocity=0 time=0.10135124999999999
EXTRACT: note_on channel=0 note=67 velocity=109 time=0.00675675
EXTRACT: note_on channel=7 note=47 velocity=78 time=0
EXTRACT: note_on channel=9 note=26 velocity=50 time=0
EXTRACT: note_on channel=9 note=32 velocity=50 time=0
EXTRACT: note_on channel=9 note=42 velocity=70 time=0
EXTRACT: note_on channel=9 note=42 velocity=0 time=0.043918874999999996
EXTRACT: note_on channel=9 note=32 velocity=0 time=0
EXTRACT: note_on channel=9 note=26 velocity=0 time=0
EXTRACT: note_on channel=0 note=67 velocity=0 time=0.050675624999999995
EXTRACT: note_on channel=7 note=47 velocity=0 time=0.10135124999999999
EXTRACT: note_on channel=1 note=31 velocity=0 time=0
EXTRACT: note_on channel=0 note=74 velocity=110 time=0.00675675
EXTRACT: note_on channel=1 note=31 velocity=118 time=0
EXTRACT: note_on channel=7 note=50 velocity=63 time=0
EXTRACT: note_on channel=9 note=26 velocity=30 time=0
EXTRACT: note_on channel=9 note=32 velocity=30 time=0
EXTRACT: note_on channel=9 note=36 velocity=120 time=0
EXTRACT: note_on channel=10 note=52 velocity=120 time=0
EXTRACT: note_on channel=4 note=54 velocity=0 time=0.00675675
EXTRACT: note_on channel=4 note=66 velocity=0 time=0
EXTRACT: note_on channel=4 note=57 velocity=0 time=0
EXTRACT: note_on channel=15 note=57 velocity=0 time=0
EXTRACT: note_on channel=15 note=54 velocity=0 time=0
EXTRACT: note_on channel=15 note=66 velocity=0 time=0
EXTRACT: note_on channel=3 note=66 velocity=0 time=0
EXTRACT: note_on channel=10 note=57 velocity=120 time=0.027027
EXTRACT: note_on channel=9 note=32 velocity=0 time=0.010135125
EXTRACT: note_on channel=10 note=52 velocity=0 time=0
EXTRACT: note_on channel=9 note=26 velocity=0 time=0
EXTRACT: note_on channel=9 note=36 velocity=0 time=0
EXTRACT: note_on channel=10 note=57 velocity=0 time=0.03378375
EXTRACT: note_on channel=0 note=74 velocity=0 time=0.016891875
EXTRACT: note_on channel=7 note=50 velocity=0 time=0.10135124999999999
EXTRACT: note_on channel=0 note=67 velocity=113 time=0.00675675
EXTRACT: note_on channel=3 note=64 velocity=121 time=0
EXTRACT: note_on channel=4 note=52 velocity=121 time=0
EXTRACT: note_on channel=4 note=55 velocity=121 time=0
EXTRACT: note_on channel=4 note=64 velocity=121 time=0
EXTRACT: note_on channel=7 note=47 velocity=76 time=0
EXTRACT: note_on channel=9 note=26 velocity=50 time=0
EXTRACT: note_on channel=9 note=32 velocity=50 time=0
EXTRACT: note_on channel=9 note=42 velocity=80 time=0
EXTRACT: note_on channel=15 note=52 velocity=1 time=0
EXTRACT: note_on channel=15 note=64 velocity=1 time=0
EXTRACT: note_on channel=15 note=55 velocity=1 time=0
EXTRACT: note_on channel=9 note=42 velocity=0 time=0.043918874999999996
EXTRACT: note_on channel=9 note=32 velocity=0 time=0
EXTRACT: note_on channel=9 note=26 velocity=0 time=0
EXTRACT: note_on channel=0 note=67 velocity=0 time=0.050675624999999995
EXTRACT: note_on channel=7 note=47 velocity=0 time=0.10135124999999999
EXTRACT: note_on channel=1 note=31 velocity=0 time=0
EXTRACT: note_on channel=0 note=74 velocity=114 time=0.00675675
EXTRACT: note_on channel=1 note=31 velocity=118 time=0
EXTRACT: note_on channel=7 note=50 velocity=86 time=0
EXTRACT: note_on channel=9 note=26 velocity=30 time=0
EXTRACT: note_on channel=9 note=32 velocity=30 time=0
EXTRACT: note_on channel=9 note=36 velocity=120 time=0
EXTRACT: note_on channel=9 note=38 velocity=120 time=0
EXTRACT: note_on channel=10 note=52 velocity=120 time=0
EXTRACT: note_on channel=10 note=57 velocity=120 time=0.03378375
EXTRACT: note_on channel=10 note=52 velocity=0 time=0.010135125
EXTRACT: note_on channel=9 note=38 velocity=0 time=0
EXTRACT: note_on channel=9 note=36 velocity=0 time=0
EXTRACT: note_on channel=9 note=32 velocity=0 time=0
EXTRACT: note_on channel=9 note=26 velocity=0 time=0
EXTRACT: note_on channel=10 note=57 velocity=0 time=0.03378375
EXTRACT: note_on channel=4 note=64 velocity=0 time=0.0135135
EXTRACT: note_on channel=4 note=52 velocity=0 time=0
EXTRACT: note_on channel=4 note=55 velocity=0 time=0
EXTRACT: note_on channel=15 note=52 velocity=0 time=0
EXTRACT: note_on channel=15 note=55 velocity=0 time=0
EXTRACT: note_on channel=15 note=64 velocity=0 time=0
EXTRACT: note_on channel=3 note=64 velocity=0 time=0
EXTRACT: note_on channel=0 note=74 velocity=0 time=0.003378375
EXTRACT: note_on channel=7 note=50 velocity=0 time=0.10135124999999999
EXTRACT: note_on channel=1 note=31 velocity=0 time=0
EXTRACT: note_on channel=0 note=79 velocity=111 time=0.00675675
EXTRACT: note_on channel=1 note=31 velocity=118 time=0
EXTRACT: note_on channel=3 note=62 velocity=118 time=0
EXTRACT: note_on channel=4 note=50 velocity=118 time=0
EXTRACT: note_on channel=4 note=54 velocity=118 time=0
EXTRACT: note_on channel=4 note=62 velocity=118 time=0
EXTRACT: note_on channel=7 note=55 velocity=88 time=0
EXTRACT: note_on channel=9 note=26 velocity=50 time=0
EXTRACT: note_on channel=9 note=32 velocity=50 time=0
EXTRACT: note_on channel=9 note=36 velocity=120 time=0
EXTRACT: note_on channel=9 note=42 velocity=70 time=0
EXTRACT: note_on channel=10 note=52 velocity=120 time=0
EXTRACT: note_on channel=13 note=62 velocity=118 time=0
EXTRACT: note_on channel=15 note=50 velocity=1 time=0
EXTRACT: note_on channel=15 note=54 velocity=1 time=0
EXTRACT: note_on channel=15 note=62 velocity=1 time=0
EXTRACT: note_on channel=10 note=57 velocity=120 time=0.03378375
EXTRACT: note_on channel=10 note=52 velocity=0 time=0.010135125
EXTRACT: note_on channel=9 note=36 velocity=0 time=0
EXTRACT: note_on channel=9 note=32 velocity=0 time=0
EXTRACT: note_on channel=9 note=26 velocity=0 time=0
EXTRACT: note_on channel=9 note=42 velocity=0 time=0
EXTRACT: note_on channel=10 note=57 velocity=0 time=0.03378375
EXTRACT: note_on channel=0 note=79 velocity=0 time=0.016891875
EXTRACT: note_on channel=7 note=55 velocity=0 time=0.10135124999999999
EXTRACT: note_on channel=0 note=74 velocity=112 time=0.00675675
EXTRACT: note_on channel=7 note=50 velocity=88 time=0
EXTRACT: note_on channel=9 note=26 velocity=30 time=0
EXTRACT: note_on channel=9 note=32 velocity=30 time=0
EXTRACT: note_on channel=9 note=32 velocity=0 time=0.043918874999999996
EXTRACT: note_on channel=9 note=26 velocity=0 time=0
EXTRACT: note_on channel=4 note=54 velocity=0 time=0.010135125
EXTRACT: note_on channel=4 note=50 velocity=0 time=0
EXTRACT: note_on channel=3 note=62 velocity=0 time=0
EXTRACT: note_on channel=15 note=50 velocity=0 time=0
EXTRACT: note_on channel=4 note=62 velocity=0 time=0
EXTRACT: note_on channel=15 note=54 velocity=0 time=0
EXTRACT: note_on channel=15 note=62 velocity=0 time=0
EXTRACT: note_on channel=0 note=74 velocity=0 time=0.0405405
EXTRACT: note_on channel=7 note=50 velocity=0 time=0.10135124999999999
EXTRACT: note_on channel=0 note=79 velocity=113 time=0.00675675
EXTRACT: note_on channel=3 note=62 velocity=121 time=0
EXTRACT: note_on channel=4 note=50 velocity=121 time=0
EXTRACT: note_on channel=4 note=54 velocity=121 time=0
EXTRACT: note_on channel=4 note=62 velocity=121 time=0
EXTRACT: note_on channel=7 note=55 velocity=81 time=0
EXTRACT: note_on channel=9 note=26 velocity=50 time=0
EXTRACT: note_on channel=9 note=32 velocity=50 time=0
EXTRACT: note_on channel=9 note=38 velocity=120 time=0
EXTRACT: note_on channel=9 note=42 velocity=80 time=0
EXTRACT: note_on channel=15 note=50 velocity=1 time=0
EXTRACT: note_on channel=15 note=54 velocity=1 time=0
EXTRACT: note_on channel=15 note=62 velocity=1 time=0
EXTRACT: note_on channel=9 note=42 velocity=0 time=0.043918874999999996
EXTRACT: note_on channel=9 note=32 velocity=0 time=0
EXTRACT: note_on channel=9 note=26 velocity=0 time=0
EXTRACT: note_on channel=9 note=38 velocity=0 time=0
EXTRACT: note_on channel=0 note=79 velocity=0 time=0.050675624999999995
EXTRACT: note_on channel=3 note=62 velocity=0 time=0.10135124999999999
EXTRACT: note_on channel=7 note=55 velocity=0 time=0
EXTRACT: note_on channel=0 note=74 velocity=115 time=0.00675675
EXTRACT: note_on channel=3 note=64 velocity=121 time=0
EXTRACT: note_on channel=7 note=50 velocity=73 time=0
EXTRACT: note_on channel=9 note=26 velocity=30 time=0
EXTRACT: note_on channel=9 note=32 velocity=30 time=0
EXTRACT: note_on channel=9 note=32 velocity=0 time=0.043918874999999996
EXTRACT: note_on channel=9 note=26 velocity=0 time=0
EXTRACT: note_on channel=0 note=74 velocity=0 time=0.050675624999999995
EXTRACT: note_on channel=4 note=62 velocity=0 time=0.054054
EXTRACT: note_on channel=4 note=50 velocity=0 time=0
EXTRACT: note_on channel=4 note=54 velocity=0 time=0
EXTRACT: note_on channel=15 note=50 velocity=0 time=0
EXTRACT: note_on channel=15 note=54 velocity=0 time=0
EXTRACT: note_on channel=15 note=62 velocity=0 time=0
EXTRACT: note_on channel=3 note=64 velocity=0 time=0.04729725
EXTRACT: note_on channel=7 note=50 velocity=0 time=0
EXTRACT: note_on channel=0 note=67 velocity=115 time=0.00675675
EXTRACT: note_on channel=3 note=62 velocity=121 time=0
EXTRACT: note_on channel=4 note=47 velocity=118 time=0
EXTRACT: note_on channel=4 note=52 velocity=118 time=0
EXTRACT: note_on channel=4 note=59 velocity=118 time=0
EXTRACT: note_on channel=7 note=55 velocity=73 time=0
EXTRACT: note_on channel=9 note=26 velocity=50 time=0
EXTRACT: note_on channel=9 note=32 velocity=50 time=0
EXTRACT: note_on channel=9 note=36 velocity=114 time=0
EXTRACT: note_on channel=9 note=42 velocity=70 time=0
EXTRACT: note_on channel=10 note=52 velocity=114 time=0
EXTRACT: note_on channel=15 note=47 velocity=1 time=0
EXTRACT: note_on channel=15 note=59 velocity=1 time=0
EXTRACT: note_on channel=15 note=52 velocity=1 time=0
EXTRACT: note_on channel=10 note=57 velocity=114 time=0.03378375
EXTRACT: note_on channel=10 note=52 velocity=0 time=0.010135125
EXTRACT: note_on channel=9 note=32 velocity=0 time=0
EXTRACT: note_on channel=9 note=26 velocity=0 time=0
EXTRACT: note_on channel=9 note=42 velocity=0 time=0
EXTRACT: note_on channel=9 note=36 velocity=0 time=0
EXTRACT: note_on channel=10 note=57 velocity=0 time=0.03378375
EXTRACT: note_on channel=0 note=67 velocity=0 time=0.016891875
EXTRACT: note_on channel=3 note=62 velocity=0 time=0.10135124999999999
EXTRACT: note_on channel=7 note=55 velocity=0 time=0
EXTRACT: note_on channel=0 note=74 velocity=115 time=0.00675675
EXTRACT: note_on channel=3 note=64 velocity=121 time=0
EXTRACT: note_on channel=7 note=50 velocity=71 time=0
EXTRACT: note_on channel=9 note=26 velocity=30 time=0
EXTRACT: note_on channel=9 note=32 velocity=30 time=0
EXTRACT: note_on channel=9 note=36 velocity=114 time=0
EXTRACT: note_on channel=10 note=52 velocity=114 time=0
EXTRACT: note_on channel=10 note=57 velocity=114 time=0.03378375
EXTRACT: note_on channel=10 note=52 velocity=0 time=0.010135125
EXTRACT: note_on channel=9 note=36 velocity=0 time=0
EXTRACT: note_on channel=9 note=32 velocity=0 time=0
EXTRACT: note_on channel=9 note=26 velocity=0 time=0
EXTRACT: note_on channel=10 note=57 velocity=0 time=0.03378375
EXTRACT: note_on channel=0 note=74 velocity=0 time=0.016891875
EXTRACT: note_on channel=5 note=62 velocity=0 time=0.10135124999999999
EXTRACT: note_on channel=11 note=91 velocity=0 time=0
EXTRACT: note_on channel=2 note=67 velocity=0 time=0
EXTRACT: note_on channel=2 note=59 velocity=0 time=0
EXTRACT: note_on channel=4 note=47 velocity=0 time=0
EXTRACT: note_on channel=5 note=59 velocity=0 time=0
EXTRACT: note_on channel=6 note=50 velocity=0 time=0
EXTRACT: note_on channel=5 note=43 velocity=0 time=0
EXTRACT: note_on channel=5 note=55 velocity=0 time=0
EXTRACT: note_on channel=6 note=43 velocity=0 time=0
EXTRACT: note_on channel=15 note=52 velocity=0 time=0
EXTRACT: note_on channel=11 note=86 velocity=0 time=0
EXTRACT: note_on channel=13 note=62 velocity=0 time=0
EXTRACT: note_on channel=11 note=83 velocity=0 time=0
EXTRACT: note_on channel=4 note=52 velocity=0 time=0
EXTRACT: note_on channel=2 note=62 velocity=0 time=0
EXTRACT: note_on channel=15 note=59 velocity=0 time=0
EXTRACT: note_on channel=15 note=47 velocity=0 time=0
EXTRACT: note_on channel=3 note=64 velocity=0 time=0
EXTRACT: note_on channel=4 note=59 velocity=0 time=0
EXTRACT: note_on channel=1 note=31 velocity=0 time=0
EXTRACT: note_on channel=7 note=50 velocity=0 time=0
EXTRACT: note_on channel=0 note=74 velocity=112 time=0.00675675
EXTRACT: note_on channel=1 note=38 velocity=121 time=0
EXTRACT: note_on channel=2 note=57 velocity=102 time=0
EXTRACT: note_on channel=2 note=62 velocity=102 time=0
EXTRACT: note_on channel=2 note=66 velocity=102 time=0
EXTRACT: note_on channel=3 note=66 velocity=121 time=0
EXTRACT: note_on channel=4 note=45 velocity=118 time=0
EXTRACT: note_on channel=4 note=50 velocity=118 time=0
EXTRACT: note_on channel=4 note=57 velocity=118 time=0
EXTRACT: note_on channel=5 note=50 velocity=100 time=0
EXTRACT: note_on channel=5 note=54 velocity=100 time=0
EXTRACT: note_on channel=5 note=57 velocity=100 time=0
EXTRACT: note_on channel=5 note=62 velocity=100 time=0
EXTRACT: note_on channel=6 note=45 velocity=99 time=0
EXTRACT: note_on channel=6 note=50 velocity=99 time=0
EXTRACT: note_on channel=7 note=50 velocity=104 time=0
EXTRACT: note_on channel=8 note=38 velocity=79 time=0
EXTRACT: note_on channel=9 note=26 velocity=50 time=0
EXTRACT: note_on channel=9 note=32 velocity=50 time=0
EXTRACT: note_on channel=9 note=36 velocity=120 time=0
EXTRACT: note_on channel=9 note=42 velocity=80 time=0
EXTRACT: note_on channel=9 note=49 velocity=110 time=0
EXTRACT: note_on channel=10 note=52 velocity=120 time=0
EXTRACT: note_on channel=11 note=81 velocity=102 time=0
EXTRACT: note_on channel=11 note=86 velocity=102 time=0
EXTRACT: note_on channel=11 note=90 velocity=102 time=0
EXTRACT: note_on channel=15 note=45 velocity=1 time=0
EXTRACT: note_on channel=15 note=50 velocity=1 time=0
EXTRACT: note_on channel=15 note=57 velocity=1 time=0
EXTRACT: note_on channel=10 note=57 velocity=120 time=0.037162125
EXTRACT: note_on channel=10 note=52 velocity=0 time=0.00675675
EXTRACT: note_on channel=9 note=49 velocity=0 time=0
EXTRACT: note_on channel=9 note=42 velocity=0 time=0
EXTRACT: note_on channel=9 note=26 velocity=0 time=0
EXTRACT: note_on channel=9 note=36 velocity=0 time=0
EXTRACT: note_on channel=9 note=32 velocity=0 time=0
EXTRACT: note_on channel=10 note=57 velocity=0 time=0.037162125
EXTRACT: note_on channel=0 note=74 velocity=0 time=0.0135135
EXTRACT: note_on channel=7 note=50 velocity=0 time=0.10135124999999999
EXTRACT: note_on channel=0 note=78 velocity=115 time=0.00675675
EXTRACT: note_on channel=7 note=54 velocity=93 time=0
EXTRACT: note_on channel=9 note=26 velocity=30 time=0
EXTRACT: note_on channel=9 note=32 velocity=30 time=0
EXTRACT: note_on channel=9 note=32 velocity=0 time=0.043918874999999996
EXTRACT: note_on channel=9 note=26 velocity=0 time=0
EXTRACT: note_on channel=3 note=66 velocity=0 time=0.050675624999999995
EXTRACT: note_on channel=0 note=78 velocity=0 time=0
EXTRACT: note_on channel=4 note=50 velocity=0 time=0.10135124999999999
EXTRACT: note_on channel=8 note=38 velocity=0 time=0
EXTRACT: note_on channel=7 note=54 velocity=0 time=0
EXTRACT: note_on channel=4 note=57 velocity=0 time=0
EXTRACT: note_on channel=4 note=45 velocity=0 time=0
EXTRACT: note_on channel=15 note=45 velocity=0 time=0
EXTRACT: note_on channel=15 note=50 velocity=0 time=0
EXTRACT: note_on channel=15 note=57 velocity=0 time=0
EXTRACT: note_on channel=0 note=81 velocity=118 time=0.00675675
EXTRACT: note_on channel=3 note=69 velocity=121 time=0
EXTRACT: note_on channel=7 note=57 velocity=89 time=0
EXTRACT: note_on channel=9 note=26 velocity=50 time=0
EXTRACT: note_on channel=9 note=32 velocity=50 time=0
EXTRACT: note_on channel=9 note=42 velocity=70 time=0
EXTRACT: note_on channel=9 note=42 velocity=0 time=0.043918874999999996
EXTRACT: note_on channel=9 note=32 velocity=0 time=0
EXTRACT: note_on channel=9 note=26 velocity=0 time=0
EXTRACT: note_on channel=0 note=81 velocity=0 time=0.050675624999999995
EXTRACT: note_on channel=7 note=57 velocity=0 time=0.10135124999999999
EXTRACT: note_on channel=0 note=78 velocity=118 time=0.00675675
EXTRACT: note_on channel=7 note=54 velocity=77 time=0
EXTRACT: note_on channel=9 note=26 velocity=30 time=0
EXTRACT: note_on channel=9 note=32 velocity=30 time=0
EXTRACT: note_on channel=9 note=32 velocity=0 time=0.043918874999999996
EXTRACT: note_on channel=9 note=26 velocity=0 time=0
EXTRACT: note_on channel=3 note=69 velocity=0 time=0.0135135
EXTRACT: note_on channel=0 note=78 velocity=0 time=0.037162125
EXTRACT: note_on channel=7 note=54 velocity=0 time=0.10135124999999999
EXTRACT: note_on channel=0 note=81 velocity=113 time=0.00675675
EXTRACT: note_on channel=3 note=66 velocity=121 time=0
EXTRACT: note_on channel=7 note=57 velocity=98 time=0
EXTRACT: note_on channel=9 note=26 velocity=50 time=0
EXTRACT: note_on channel=9 note=32 velocity=50 time=0
EXTRACT: note_on channel=9 note=38 velocity=120 time=0
EXTRACT: note_on channel=9 note=42 velocity=80 time=0
EXTRACT: note_on channel=9 note=42 velocity=0 time=0.043918874999999996
EXTRACT: note_on channel=9 note=38 velocity=0 time=0
EXTRACT: note_on channel=9 note=26 velocity=0 time=0
EXTRACT: note_on channel=9 note=32 velocity=0 time=0
EXTRACT: note_on channel=0 note=81 velocity=0 time=0.050675624999999995
EXTRACT: note_on channel=7 note=57 velocity=0 time=0.10135124999999999
EXTRACT: note_on channel=0 note=78 velocity=113 time=0.00675675
EXTRACT: note_on channel=7 note=54 velocity=98 time=0
EXTRACT: note_on channel=9 note=26 velocity=30 time=0
EXTRACT: note_on channel=9 note=32 velocity=30 time=0
EXTRACT: note_on channel=9 note=32 velocity=0 time=0.043918874999999996
EXTRACT: note_on channel=9 note=26 velocity=0 time=0
EXTRACT: note_on channel=0 note=78 velocity=0 time=0.050675624999999995
EXTRACT: note_on channel=7 note=54 velocity=0 time=0.10135124999999999
EXTRACT: note_on channel=0 note=74 velocity=109 time=0.00675675
EXTRACT: note_on channel=7 note=50 velocity=101 time=0
EXTRACT: note_on channel=9 note=26 velocity=50 time=0
EXTRACT: note_on channel=9 note=32 velocity=50 time=0
EXTRACT: note_on channel=9 note=42 velocity=70 time=0
EXTRACT: note_on channel=9 note=42 velocity=0 time=0.043918874999999996
EXTRACT: note_on channel=9 note=32 velocity=0 time=0
EXTRACT: note_on channel=9 note=26 velocity=0 time=0
EXTRACT: note_on channel=0 note=74 velocity=0 time=0.050675624999999995
EXTRACT: note_on channel=7 note=50 velocity=0 time=0.10135124999999999
EXTRACT: note_on channel=1 note=38 velocity=0 time=0
EXTRACT: note_on channel=0 note=78 velocity=110 time=0.00675675
EXTRACT: note_on channel=1 note=38 velocity=121 time=0
EXTRACT: note_on channel=7 note=54 velocity=95 time=0
EXTRACT: note_on channel=9 note=26 velocity=30 time=0
EXTRACT: note_on channel=9 note=32 velocity=30 time=0
EXTRACT: note_on channel=9 note=36 velocity=120 time=0
EXTRACT: note_on channel=10 note=52 velocity=120 time=0
EXTRACT: note_on channel=10 note=57 velocity=120 time=0.03378375
EXTRACT: note_on channel=10 note=52 velocity=0 time=0.010135125
EXTRACT: note_on channel=9 note=36 velocity=0 time=0
EXTRACT: note_on channel=9 note=26 velocity=0 time=0
EXTRACT: note_on channel=9 note=32 velocity=0 time=0
EXTRACT: note_on channel=10 note=57 velocity=0 time=0.03378375
EXTRACT: note_on channel=0 note=78 velocity=0 time=0.016891875
EXTRACT: note_on channel=7 note=54 velocity=0 time=0.10135124999999999
EXTRACT: note_on channel=0 note=74 velocity=113 time=0.00675675
EXTRACT: note_on channel=7 note=50 velocity=104 time=0
EXTRACT: note_on channel=9 note=26 velocity=50 time=0
EXTRACT: note_on channel=9 note=32 velocity=50 time=0
EXTRACT: note_on channel=9 note=42 velocity=80 time=0
EXTRACT: note_on channel=9 note=42 velocity=0 time=0.043918874999999996
EXTRACT: note_on channel=9 note=32 velocity=0 time=0
EXTRACT: note_on channel=9 note=26 velocity=0 time=0
EXTRACT: note_on channel=0 note=74 velocity=0 time=0.050675624999999995
EXTRACT: note_on channel=7 note=50 velocity=0 time=0.10135124999999999
EXTRACT: note_on channel=1 note=38 velocity=0 time=0
EXTRACT: note_on channel=0 note=78 velocity=114 time=0.00675675
EXTRACT: note_on channel=1 note=38 velocity=121 time=0
EXTRACT: note_on channel=7 note=54 velocity=86 time=0
EXTRACT: note_on channel=9 note=26 velocity=30 time=0
EXTRACT: note_on channel=9 note=32 velocity=30 time=0
EXTRACT: note_on channel=9 note=36 velocity=120 time=0
EXTRACT: note_on channel=10 note=52 velocity=120 time=0
EXTRACT: note_on channel=3 note=66 velocity=0 time=0.003378375
EXTRACT: note_on channel=10 note=57 velocity=120 time=0.030405375
EXTRACT: note_on channel=10 note=52 velocity=0 time=0.010135125
EXTRACT: note_on channel=9 note=32 velocity=0 time=0
EXTRACT: note_on channel=9 note=26 velocity=0 time=0
EXTRACT: note_on channel=9 note=36 velocity=0 time=0
EXTRACT: note_on channel=10 note=57 velocity=0 time=0.03378375
EXTRACT: note_on channel=0 note=78 velocity=0 time=0.016891875
EXTRACT: note_on channel=7 note=54 velocity=0 time=0.10135124999999999
EXTRACT: note_on channel=1 note=38 velocity=0 time=0
EXTRACT: note_on channel=0 note=81 velocity=111 time=0.00675675
EXTRACT: note_on channel=1 note=38 velocity=121 time=0
EXTRACT: note_on channel=7 note=57 velocity=101 time=0
EXTRACT: note_on channel=9 note=26 velocity=50 time=0
EXTRACT: note_on channel=9 note=32 velocity=50 time=0
EXTRACT: note_on channel=9 note=36 velocity=120 time=0
EXTRACT: note_on channel=9 note=42 velocity=70 time=0
EXTRACT: note_on channel=10 note=52 velocity=120 time=0
EXTRACT: note_on channel=10 note=57 velocity=120 time=0.03378375
EXTRACT: note_on channel=10 note=52 velocity=0 time=0.010135125
EXTRACT: note_on channel=9 note=42 velocity=0 time=0
EXTRACT: note_on channel=9 note=32 velocity=0 time=0
EXTRACT: note_on channel=9 note=26 velocity=0 time=0
EXTRACT: note_on channel=9 note=36 velocity=0 time=0
EXTRACT: note_on channel=10 note=57 velocity=0 time=0.03378375
EXTRACT: note_on channel=0 note=81 velocity=0 time=0.016891875
EXTRACT: note_on channel=7 note=57 velocity=0 time=0.10135124999999999
EXTRACT: note_on channel=0 note=78 velocity=112 time=0.00675675
EXTRACT: note_on channel=7 note=54 velocity=98 time=0
EXTRACT: note_on channel=9 note=26 velocity=30 time=0
EXTRACT: note_on channel=9 note=32 velocity=30 time=0
EXTRACT: note_on channel=9 note=32 velocity=0 time=0.043918874999999996
EXTRACT: note_on channel=9 note=26 velocity=0 time=0
EXTRACT: note_on channel=0 note=78 velocity=0 time=0.050675624999999995
EXTRACT: note_on channel=7 note=54 velocity=0 time=0.10135124999999999
EXTRACT: note_on channel=0 note=81 velocity=113 time=0.00675675
EXTRACT: note_on channel=3 note=62 velocity=109 time=0
EXTRACT: note_on channel=7 note=57 velocity=101 time=0
EXTRACT: note_on channel=9 note=26 velocity=50 time=0
EXTRACT: note_on channel=9 note=32 velocity=50 time=0
EXTRACT: note_on channel=9 note=38 velocity=120 time=0
EXTRACT: note_on channel=9 note=42 velocity=80 time=0
EXTRACT: note_on channel=9 note=42 velocity=0 time=0.043918874999999996
EXTRACT: note_on channel=9 note=38 velocity=0 time=0
EXTRACT: note_on channel=9 note=26 velocity=0 time=0
EXTRACT: note_on channel=9 note=32 velocity=0 time=0
EXTRACT: note_on channel=3 note=62 velocity=0 time=0.043918874999999996
EXTRACT: note_on channel=0 note=81 velocity=0 time=0.00675675
EXTRACT: note_on channel=7 note=57 velocity=0 time=0.10135124999999999
EXTRACT: note_on channel=0 note=78 velocity=115 time=0.00675675
EXTRACT: note_on channel=3 note=62 velocity=101 time=0
EXTRACT: note_on channel=7 note=54 velocity=93 time=0
EXTRACT: note_on channel=9 note=26 velocity=30 time=0
EXTRACT: note_on channel=9 note=32 velocity=30 time=0
EXTRACT: note_on channel=9 note=32 velocity=0 time=0.043918874999999996
EXTRACT: note_on channel=9 note=26 velocity=0 time=0
EXTRACT: note_on channel=3 note=62 velocity=0 time=0.050675624999999995
EXTRACT: note_on channel=0 note=78 velocity=0 time=0
EXTRACT: note_on channel=7 note=54 velocity=0 time=0.10135124999999999
EXTRACT: note_on channel=0 note=74 velocity=115 time=0.00675675
EXTRACT: note_on channel=3 note=62 velocity=104 time=0
EXTRACT: note_on channel=7 note=50 velocity=90 time=0
EXTRACT: note_on channel=9 note=26 velocity=50 time=0
EXTRACT: note_on channel=9 note=32 velocity=50 time=0
EXTRACT: note_on channel=9 note=42 velocity=70 time=0
EXTRACT: note_on channel=9 note=42 velocity=0 time=0.043918874999999996
EXTRACT: note_on channel=9 note=32 velocity=0 time=0
EXTRACT: note_on channel=9 note=26 velocity=0 time=0
EXTRACT: note_on channel=0 note=74 velocity=0 time=0.050675624999999995
EXTRACT: note_on channel=3 note=62 velocity=0 time=0.054054
EXTRACT: note_on channel=7 note=50 velocity=0 time=0.04729725
EXTRACT: note_on channel=0 note=78 velocity=115 time=0.00675675
EXTRACT: note_on channel=3 note=64 velocity=104 time=0
EXTRACT: note_on channel=7 note=54 velocity=90 time=0
EXTRACT: note_on channel=9 note=26 velocity=30 time=0
EXTRACT: note_on channel=9 note=32 velocity=30 time=0
EXTRACT: note_on channel=9 note=32 velocity=0 time=0.043918874999999996
EXTRACT: note_on channel=9 note=26 velocity=0 time=0
EXTRACT: note_on channel=0 note=78 velocity=0 time=0.050675624999999995
EXTRACT: note_on channel=3 note=64 velocity=0 time=0.027027
EXTRACT: note_on channel=11 note=90 velocity=0 time=0.07432425
EXTRACT: note_on channel=1 note=38 velocity=0 time=0
EXTRACT: note_on channel=11 note=81 velocity=0 time=0
EXTRACT: note_on channel=5 note=50 velocity=0 time=0
EXTRACT: note_on channel=5 note=54 velocity=0 time=0
EXTRACT: note_on channel=6 note=50 velocity=0 time=0
EXTRACT: note_on channel=7 note=54 velocity=0 time=0
EXTRACT: note_on channel=2 note=62 velocity=0 time=0
EXTRACT: note_on channel=2 note=57 velocity=0 time=0
EXTRACT: note_on channel=5 note=62 velocity=0 time=0
EXTRACT: note_on channel=11 note=86 velocity=0 time=0
EXTRACT: note_on channel=2 note=66 velocity=0 time=0
EXTRACT: note_on channel=6 note=45 velocity=0 time=0
EXTRACT: note_on channel=5 note=57 velocity=0 time=0
EXTRACT: note_on channel=0 note=73 velocity=112 time=0.00675675
EXTRACT: note_on channel=1 note=37 velocity=120 time=0
EXTRACT: note_on channel=2 note=57 velocity=100 time=0
EXTRACT: note_on channel=2 note=61 velocity=100 time=0
EXTRACT: note_on channel=2 note=66 velocity=100 time=0
EXTRACT: note_on channel=3 note=66 velocity=118 time=0
EXTRACT: note_on channel=5 note=49 velocity=99 time=0
EXTRACT: note_on channel=5 note=54 velocity=99 time=0
EXTRACT: note_on channel=5 note=57 velocity=99 time=0
EXTRACT: note_on channel=5 note=61 velocity=99 time=0
EXTRACT: note_on channel=6 note=42 velocity=101 time=0
EXTRACT: note_on channel=6 note=49 velocity=101 time=0
EXTRACT: note_on channel=7 note=49 velocity=104 time=0
EXTRACT: note_on channel=8 note=37 velocity=79 time=0
EXTRACT: note_on channel=9 note=26 velocity=50 time=0
EXTRACT: note_on channel=9 note=32 velocity=50 time=0
EXTRACT: note_on channel=9 note=36 velocity=120 time=0
EXTRACT: note_on channel=9 note=42 velocity=80 time=0
EXTRACT: note_on channel=10 note=52 velocity=120 time=0
EXTRACT: note_on channel=11 note=81 velocity=100 time=0
EXTRACT: note_on channel=11 note=85 velocity=100 time=0
EXTRACT: note_on channel=11 note=90 velocity=100 time=0
EXTRACT: note_on channel=10 note=57 velocity=120 time=0.03378375
EXTRACT: note_on channel=10 note=52 velocity=0 time=0.010135125
EXTRACT: note_on channel=9 note=42 velocity=0 time=0
EXTRACT: note_on channel=9 note=36 velocity=0 time=0
EXTRACT: note_on channel=9 note=32 velocity=0 time=0
EXTRACT: note_on channel=9 note=26 velocity=0 time=0
EXTRACT: note_on channel=10 note=57 velocity=0 time=0.03378375
EXTRACT: note_on channel=0 note=73 velocity=0 time=0.016891875
EXTRACT: note_on channel=7 note=49 velocity=0 time=0.10135124999999999
EXTRACT: note_on channel=0 note=78 velocity=115 time=0.00675675
EXTRACT: note_on channel=7 note=54 velocity=93 time=0
EXTRACT: note_on channel=9 note=26 velocity=30 time=0
EXTRACT: note_on channel=9 note=32 velocity=30 time=0
EXTRACT: note_on channel=9 note=32 velocity=0 time=0.043918874999999996
EXTRACT: note_on channel=9 note=26 velocity=0 time=0
EXTRACT: note_on channel=3 note=66 velocity=0 time=0.0405405
EXTRACT: note_on channel=0 note=78 velocity=0 time=0.010135125
EXTRACT: note_on channel=7 note=54 velocity=0 time=0.10135124999999999
EXTRACT: note_on channel=8 note=37 velocity=0 time=0
EXTRACT: note_on channel=0 note=81 velocity=118 time=0.00675675
EXTRACT: note_on channel=3 note=69 velocity=118 time=0
EXTRACT: note_on channel=7 note=57 velocity=89 time=0
EXTRACT: note_on channel=9 note=26 velocity=50 time=0
EXTRACT: note_on channel=9 note=32 velocity=50 time=0
EXTRACT: note_on channel=9 note=42 velocity=70 time=0
EXTRACT: note_on channel=9 note=42 velocity=0 time=0.043918874999999996
EXTRACT: note_on channel=9 note=32 velocity=0 time=0
EXTRACT: note_on channel=9 note=26 velocity=0 time=0
EXTRACT: note_on channel=0 note=81 velocity=0 time=0.050675624999999995
EXTRACT: note_on channel=7 note=57 velocity=0 time=0.10135124999999999
EXTRACT: note_on channel=0 note=78 velocity=118 time=0.00675675
EXTRACT: note_on channel=7 note=54 velocity=77 time=0
EXTRACT: note_on channel=9 note=26 velocity=30 time=0
EXTRACT: note_on channel=9 note=32 velocity=30 time=0
EXTRACT: note_on channel=9 note=32 velocity=0 time=0.043918874999999996
EXTRACT: note_on channel=9 note=26 velocity=0 time=0
EXTRACT: note_on channel=3 note=69 velocity=0 time=0.030405375
EXTRACT: note_on channel=0 note=78 velocity=0 time=0.02027025
EXTRACT: note_on channel=7 note=54 velocity=0 time=0.10135124999999999
EXTRACT: note_on channel=0 note=81 velocity=113 time=0.00675675
EXTRACT: note_on channel=3 note=66 velocity=121 time=0
EXTRACT: note_on channel=7 note=57 velocity=98 time=0
EXTRACT: note_on channel=9 note=26 velocity=50 time=0
EXTRACT: note_on channel=9 note=32 velocity=50 time=0
EXTRACT: note_on channel=9 note=38 velocity=120 time=0
EXTRACT: note_on channel=9 note=42 velocity=80 time=0
EXTRACT: note_on channel=9 note=42 velocity=0 time=0.043918874999999996
EXTRACT: note_on channel=9 note=38 velocity=0 time=0
EXTRACT: note_on channel=9 note=26 velocity=0 time=0
EXTRACT: note_on channel=9 note=32 velocity=0 time=0
EXTRACT: note_on channel=0 note=81 velocity=0 time=0.050675624999999995
EXTRACT: note_on channel=7 note=57 velocity=0 time=0.10135124999999999
EXTRACT: note_on channel=0 note=78 velocity=113 time=0.00675675
EXTRACT: note_on channel=7 note=54 velocity=98 time=0
EXTRACT: note_on channel=9 note=26 velocity=30 time=0
EXTRACT: note_on channel=9 note=32 velocity=30 time=0
EXTRACT: note_on channel=9 note=32 velocity=0 time=0.043918874999999996
EXTRACT: note_on channel=9 note=26 velocity=0 time=0
EXTRACT: note_on channel=0 note=78 velocity=0 time=0.050675624999999995
EXTRACT: note_on channel=7 note=54 velocity=0 time=0.10135124999999999
EXTRACT: note_on channel=0 note=73 velocity=109 time=0.00675675
EXTRACT: note_on channel=7 note=49 velocity=101 time=0
EXTRACT: note_on channel=9 note=26 velocity=50 time=0
EXTRACT: note_on channel=9 note=32 velocity=50 time=0
EXTRACT: note_on channel=9 note=42 velocity=70 time=0
EXTRACT: note_on channel=9 note=42 velocity=0 time=0.043918874999999996
EXTRACT: note_on channel=9 note=32 velocity=0 time=0
EXTRACT: note_on channel=9 note=26 velocity=0 time=0
EXTRACT: note_on channel=0 note=73 velocity=0 time=0.050675624999999995
EXTRACT: note_on channel=7 note=49 velocity=0 time=0.10135124999999999
EXTRACT: note_on channel=1 note=37 velocity=0 time=0
EXTRACT: note_on channel=0 note=78 velocity=110 time=0.00675675
EXTRACT: note_on channel=1 note=37 velocity=120 time=0
EXTRACT: note_on channel=7 note=54 velocity=95 time=0
EXTRACT: note_on channel=9 note=26 velocity=30 time=0
EXTRACT: note_on channel=9 note=32 velocity=30 time=0
EXTRACT: note_on channel=9 note=36 velocity=120 time=0
EXTRACT: note_on channel=10 note=52 velocity=120 time=0
EXTRACT: note_on channel=10 note=57 velocity=120 time=0.03378375
EXTRACT: note_on channel=10 note=52 velocity=0 time=0.010135125
EXTRACT: note_on channel=9 note=36 velocity=0 time=0
EXTRACT: note_on channel=9 note=26 velocity=0 time=0
EXTRACT: note_on channel=9 note=32 velocity=0 time=0
EXTRACT: note_on channel=10 note=57 velocity=0 time=0.03378375
EXTRACT: note_on channel=0 note=78 velocity=0 time=0.016891875
EXTRACT: note_on channel=7 note=54 velocity=0 time=0.10135124999999999
EXTRACT: note_on channel=0 note=73 velocity=113 time=0.00675675
EXTRACT: note_on channel=7 note=49 velocity=104 time=0
EXTRACT: note_on channel=9 note=26 velocity=50 time=0
EXTRACT: note_on channel=9 note=32 velocity=50 time=0
EXTRACT: note_on channel=9 note=42 velocity=80 time=0
EXTRACT: note_on channel=9 note=42 velocity=0 time=0.043918874999999996
EXTRACT: note_on channel=9 note=32 velocity=0 time=0
EXTRACT: note_on channel=9 note=26 velocity=0 time=0
EXTRACT: note_on channel=0 note=73 velocity=0 time=0.050675624999999995
EXTRACT: note_on channel=3 note=66 velocity=0 time=0.091216125
EXTRACT: note_on channel=7 note=49 velocity=0 time=0.010135125
EXTRACT: note_on channel=1 note=37 velocity=0 time=0
EXTRACT: note_on channel=0 note=78 velocity=114 time=0.00675675
EXTRACT: note_on channel=1 note=37 velocity=120 time=0
EXTRACT: note_on channel=7 note=54 velocity=86 time=0
EXTRACT: note_on channel=9 note=26 velocity=30 time=0
EXTRACT: note_on channel=9 note=32 velocity=30 time=0
EXTRACT: note_on channel=9 note=36 velocity=120 time=0
EXTRACT: note_on channel=10 note=52 velocity=120 time=0
EXTRACT: note_on channel=10 note=57 velocity=120 time=0.03378375
EXTRACT: note_on channel=10 note=52 velocity=0 time=0.010135125
EXTRACT: note_on channel=9 note=36 velocity=0 time=0
EXTRACT: note_on channel=9 note=32 velocity=0 time=0
EXTRACT: note_on channel=9 note=26 velocity=0 time=0
EXTRACT: note_on channel=10 note=57 velocity=0 time=0.03378375
EXTRACT: note_on channel=0 note=78 velocity=0 time=0.016891875
EXTRACT: note_on channel=7 note=54 velocity=0 time=0.10135124999999999
EXTRACT: note_on channel=1 note=37 velocity=0 time=0
EXTRACT: note_on channel=0 note=81 velocity=111 time=0.00675675
EXTRACT: note_on channel=1 note=37 velocity=120 time=0
EXTRACT: note_on channel=7 note=57 velocity=101 time=0
EXTRACT: note_on channel=9 note=26 velocity=50 time=0
EXTRACT: note_on channel=9 note=32 velocity=50 time=0
EXTRACT: note_on channel=9 note=36 velocity=120 time=0
EXTRACT: note_on channel=9 note=42 velocity=70 time=0
EXTRACT: note_on channel=10 note=52 velocity=120 time=0
EXTRACT: note_on channel=10 note=57 velocity=120 time=0.03378375
EXTRACT: note_on channel=10 note=52 velocity=0 time=0.010135125
EXTRACT: note_on channel=9 note=42 velocity=0 time=0
EXTRACT: note_on channel=9 note=32 velocity=0 time=0
EXTRACT: note_on channel=9 note=26 velocity=0 time=0
EXTRACT: note_on channel=9 note=36 velocity=0 time=0
EXTRACT: note_on channel=10 note=57 velocity=0 time=0.03378375
EXTRACT: note_on channel=0 note=81 velocity=0 time=0.016891875
EXTRACT: note_on channel=7 note=57 velocity=0 time=0.10135124999999999
EXTRACT: note_on channel=0 note=78 velocity=112 time=0.00675675
EXTRACT: note_on channel=7 note=54 velocity=98 time=0
EXTRACT: note_on channel=9 note=26 velocity=30 time=0
EXTRACT: note_on channel=9 note=32 velocity=30 time=0
EXTRACT: note_on channel=9 note=32 velocity=0 time=0.043918874999999996
EXTRACT: note_on channel=9 note=26 velocity=0 time=0
EXTRACT: note_on channel=0 note=78 velocity=0 time=0.050675624999999995
EXTRACT: note_on channel=7 note=54 velocity=0 time=0.10135124999999999
EXTRACT: note_on channel=0 note=81 velocity=113 time=0.00675675
EXTRACT: note_on channel=3 note=62 velocity=109 time=0
EXTRACT: note_on channel=7 note=57 velocity=101 time=0
EXTRACT: note_on channel=9 note=26 velocity=50 time=0
EXTRACT: note_on channel=9 note=32 velocity=50 time=0
EXTRACT: note_on channel=9 note=38 velocity=120 time=0
EXTRACT: note_on channel=9 note=42 velocity=80 time=0
EXTRACT: note_on channel=9 note=42 velocity=0 time=0.043918874999999996
EXTRACT: note_on channel=9 note=38 velocity=0 time=0
EXTRACT: note_on channel=9 note=26 velocity=0 time=0
EXTRACT: note_on channel=9 note=32 velocity=0 time=0
EXTRACT: note_on channel=3 note=62 velocity=0 time=0.043918874999999996
EXTRACT: note_on channel=0 note=81 velocity=0 time=0.00675675
EXTRACT: note_on channel=7 note=57 velocity=0 time=0.10135124999999999
EXTRACT: note_on channel=0 note=78 velocity=115 time=0.00675675
EXTRACT: note_on channel=3 note=62 velocity=101 time=0
EXTRACT: note_on channel=7 note=54 velocity=93 time=0
EXTRACT: note_on channel=9 note=26 velocity=30 time=0
EXTRACT: note_on channel=9 note=32 velocity=30 time=0
EXTRACT: note_on channel=9 note=32 velocity=0 time=0.043918874999999996
EXTRACT: note_on channel=9 note=26 velocity=0 time=0
EXTRACT: note_on channel=3 note=62 velocity=0 time=0.050675624999999995
EXTRACT: note_on channel=0 note=78 velocity=0 time=0
EXTRACT: note_on channel=7 note=54 velocity=0 time=0.10135124999999999
EXTRACT: note_on channel=0 note=73 velocity=115 time=0.00675675
EXTRACT: note_on channel=3 note=62 velocity=104 time=0
EXTRACT: note_on channel=7 note=49 velocity=90 time=0
EXTRACT: note_on channel=9 note=26 velocity=50 time=0
EXTRACT: note_on channel=9 note=32 velocity=50 time=0
EXTRACT: note_on channel=9 note=36 velocity=114 time=0
EXTRACT: note_on channel=9 note=42 velocity=70 time=0
EXTRACT: note_on channel=10 note=52 velocity=114 time=0
EXTRACT: note_on channel=10 note=57 velocity=114 time=0.03378375
EXTRACT: note_on channel=10 note=52 velocity=0 time=0.010135125
EXTRACT: note_on channel=9 note=42 velocity=0 time=0
EXTRACT: note_on channel=9 note=26 velocity=0 time=0
EXTRACT: note_on channel=9 note=36 velocity=0 time=0
EXTRACT: note_on channel=9 note=32 velocity=0 time=0
EXTRACT: note_on channel=10 note=57 velocity=0 time=0.03378375
EXTRACT: note_on channel=0 note=73 velocity=0 time=0.016891875
EXTRACT: note_on channel=3 note=62 velocity=0 time=0.054054
EXTRACT: note_on channel=7 note=49 velocity=0 time=0.04729725
EXTRACT: note_on channel=0 note=78 velocity=115 time=0.00675675
EXTRACT: note_on channel=3 note=64 velocity=104 time=0
EXTRACT: note_on channel=7 note=54 velocity=90 time=0
EXTRACT: note_on channel=9 note=26 velocity=30 time=0
EXTRACT: note_on channel=9 note=32 velocity=30 time=0
EXTRACT: note_on channel=9 note=36 velocity=114 time=0
EXTRACT: note_on channel=10 note=52 velocity=114 time=0
EXTRACT: note_on channel=10 note=57 velocity=114 time=0.03378375
EXTRACT: note_on channel=10 note=52 velocity=0 time=0.010135125
EXTRACT: note_on channel=9 note=36 velocity=0 time=0
EXTRACT: note_on channel=9 note=26 velocity=0 time=0
EXTRACT: note_on channel=9 note=32 velocity=0 time=0
EXTRACT: note_on channel=10 note=57 velocity=0 time=0.03378375
EXTRACT: note_on channel=0 note=78 velocity=0 time=0.016891875
EXTRACT: note_on channel=3 note=64 velocity=0 time=0.027027
EXTRACT: note_on channel=5 note=57 velocity=0 time=0.07432425
EXTRACT: note_on channel=1 note=37 velocity=0 time=0
EXTRACT: note_on channel=2 note=61 velocity=0 time=0
EXTRACT: note_on channel=2 note=57 velocity=0 time=0
EXTRACT: note_on channel=2 note=66 velocity=0 time=0
EXTRACT: note_on channel=5 note=61 velocity=0 time=0
EXTRACT: note_on channel=11 note=90 velocity=0 time=0
EXTRACT: note_on channel=5 note=54 velocity=0 time=0
EXTRACT: note_on channel=6 note=49 velocity=0 time=0
EXTRACT: note_on channel=11 note=85 velocity=0 time=0
EXTRACT: note_on channel=7 note=54 velocity=0 time=0
EXTRACT: note_on channel=11 note=81 velocity=0 time=0
EXTRACT: note_on channel=5 note=49 velocity=0 time=0
EXTRACT: note_on channel=6 note=42 velocity=0 time=0
EXTRACT: note_on channel=0 note=71 velocity=112 time=0.00675675
EXTRACT: note_on channel=1 note=35 velocity=120 time=0
EXTRACT: note_on channel=2 note=59 velocity=102 time=0
EXTRACT: note_on channel=2 note=62 velocity=102 time=0
EXTRACT: note_on channel=2 note=66 velocity=102 time=0
EXTRACT: note_on channel=3 note=66 velocity=118 time=0
EXTRACT: note_on channel=5 note=47 velocity=99 time=0
EXTRACT: note_on channel=5 note=54 velocity=99 time=0
EXTRACT: note_on channel=5 note=59 velocity=99 time=0
EXTRACT: note_on channel=5 note=62 velocity=99 time=0
EXTRACT: note_on channel=6 note=47 velocity=98 time=0
EXTRACT: note_on channel=6 note=54 velocity=98 time=0
EXTRACT: note_on channel=7 note=47 velocity=104 time=0
EXTRACT: note_on channel=8 note=35 velocity=82 time=0
EXTRACT: note_on channel=9 note=26 velocity=50 time=0
EXTRACT: note_on channel=9 note=32 velocity=50 time=0
EXTRACT: note_on channel=9 note=36 velocity=120 time=0
EXTRACT: note_on channel=9 note=42 velocity=80 time=0
EXTRACT: note_on channel=10 note=52 velocity=120 time=0
EXTRACT: note_on channel=11 note=83 velocity=102 time=0
EXTRACT: note_on channel=11 note=86 velocity=102 time=0
EXTRACT: note_on channel=11 note=90 velocity=102 time=0
EXTRACT: note_on channel=10 note=57 velocity=120 time=0.037162125
EXTRACT: note_on channel=10 note=52 velocity=0 time=0.00675675
EXTRACT: note_on channel=9 note=42 velocity=0 time=0
EXTRACT: note_on channel=9 note=36 velocity=0 time=0
EXTRACT: note_on channel=9 note=32 velocity=0 time=0
EXTRACT: note_on channel=9 note=26 velocity=0 time=0
EXTRACT: note_on channel=10 note=57 velocity=0 time=0.037162125
EXTRACT: note_on channel=0 note=71 velocity=0 time=0.0135135
EXTRACT: note_on channel=7 note=47 velocity=0 time=0.10135124999999999
EXTRACT: note_on channel=0 note=78 velocity=115 time=0.00675675
EXTRACT: note_on channel=7 note=54 velocity=93 time=0
EXTRACT: note_on channel=9 note=26 velocity=30 time=0
EXTRACT: note_on channel=9 note=32 velocity=30 time=0
EXTRACT: note_on channel=9 note=32 velocity=0 time=0.043918874999999996
EXTRACT: note_on channel=9 note=26 velocity=0 time=0
EXTRACT: note_on channel=3 note=66 velocity=0 time=0.0405405
EXTRACT: note_on channel=0 note=78 velocity=0 time=0.010135125
EXTRACT: note_on channel=7 note=54 velocity=0 time=0.10135124999999999
EXTRACT: note_on channel=8 note=35 velocity=0 time=0
EXTRACT: note_on channel=0 note=83 velocity=118 time=0.00675675
EXTRACT: note_on channel=3 note=69 velocity=118 time=0
EXTRACT: note_on channel=7 note=59 velocity=89 time=0
EXTRACT: note_on channel=9 note=26 velocity=50 time=0
EXTRACT: note_on channel=9 note=32 velocity=50 time=0
EXTRACT: note_on channel=9 note=42 velocity=70 time=0
EXTRACT: note_on channel=9 note=42 velocity=0 time=0.043918874999999996
EXTRACT: note_on channel=9 note=32 velocity=0 time=0
EXTRACT: note_on channel=9 note=26 velocity=0 time=0
EXTRACT: note_on channel=0 note=83 velocity=0 time=0.050675624999999995
EXTRACT: note_on channel=7 note=59 velocity=0 time=0.10135124999999999
EXTRACT: note_on channel=0 note=78 velocity=118 time=0.00675675
EXTRACT: note_on channel=7 note=54 velocity=77 time=0
EXTRACT: note_on channel=9 note=26 velocity=30 time=0
EXTRACT: note_on channel=9 note=32 velocity=30 time=0
EXTRACT: note_on channel=9 note=32 velocity=0 time=0.043918874999999996
EXTRACT: note_on channel=9 note=26 velocity=0 time=0
EXTRACT: note_on channel=3 note=69 velocity=0 time=0.030405375
EXTRACT: note_on channel=0 note=78 velocity=0 time=0.02027025
EXTRACT: note_on channel=7 note=54 velocity=0 time=0.10135124999999999
EXTRACT: note_on channel=0 note=83 velocity=113 time=0.00675675
EXTRACT: note_on channel=3 note=66 velocity=121 time=0
EXTRACT: note_on channel=7 note=59 velocity=98 time=0
EXTRACT: note_on channel=9 note=26 velocity=50 time=0
EXTRACT: note_on channel=9 note=32 velocity=50 time=0
EXTRACT: note_on channel=9 note=38 velocity=120 time=0
EXTRACT: note_on channel=9 note=42 velocity=80 time=0
EXTRACT: note_on channel=9 note=42 velocity=0 time=0.043918874999999996
EXTRACT: note_on channel=9 note=38 velocity=0 time=0
EXTRACT: note_on channel=9 note=26 velocity=0 time=0
EXTRACT: note_on channel=9 note=32 velocity=0 time=0
EXTRACT: note_on channel=0 note=83 velocity=0 time=0.050675624999999995
EXTRACT: note_on channel=7 note=59 velocity=0 time=0.10135124999999999
EXTRACT: note_on channel=0 note=78 velocity=113 time=0.00675675
EXTRACT: note_on channel=7 note=54 velocity=98 time=0
EXTRACT: note_on channel=9 note=26 velocity=30 time=0
EXTRACT: note_on channel=9 note=32 velocity=30 time=0
EXTRACT: note_on channel=9 note=32 velocity=0 time=0.043918874999999996
EXTRACT: note_on channel=9 note=26 velocity=0 time=0
EXTRACT: note_on channel=0 note=78 velocity=0 time=0.050675624999999995
EXTRACT: note_on channel=7 note=54 velocity=0 time=0.10135124999999999
EXTRACT: note_on channel=0 note=71 velocity=109 time=0.00675675
EXTRACT: note_on channel=7 note=47 velocity=101 time=0
EXTRACT: note_on channel=9 note=26 velocity=50 time=0
EXTRACT: note_on channel=9 note=32 velocity=50 time=0
EXTRACT: note_on channel=9 note=42 velocity=70 time=0
EXTRACT: note_on channel=9 note=42 velocity=0 time=0.043918874999999996
EXTRACT: note_on channel=9 note=32 velocity=0 time=0
EXTRACT: note_on channel=9 note=26 velocity=0 time=0
EXTRACT: note_on channel=0 note=71 velocity=0 time=0.050675624999999995
EXTRACT: note_on channel=7 note=47 velocity=0 time=0.10135124999999999
EXTRACT: note_on channel=1 note=35 velocity=0 time=0
EXTRACT: note_on channel=0 note=78 velocity=110 time=0.00675675
EXTRACT: note_on channel=1 note=35 velocity=120 time=0
EXTRACT: note_on channel=7 note=54 velocity=95 time=0
EXTRACT: note_on channel=9 note=26 velocity=30 time=0
EXTRACT: note_on channel=9 note=32 velocity=30 time=0
EXTRACT: note_on channel=9 note=36 velocity=120 time=0
EXTRACT: note_on channel=10 note=52 velocity=120 time=0
EXTRACT: note_on channel=10 note=57 velocity=120 time=0.03378375
EXTRACT: note_on channel=10 note=52 velocity=0 time=0.010135125
EXTRACT: note_on channel=9 note=36 velocity=0 time=0
EXTRACT: note_on channel=9 note=26 velocity=0 time=0
EXTRACT: note_on channel=9 note=32 velocity=0 time=0
EXTRACT: note_on channel=10 note=57 velocity=0 time=0.03378375
EXTRACT: note_on channel=0 note=78 velocity=0 time=0.016891875
EXTRACT: note_on channel=7 note=54 velocity=0 time=0.10135124999999999
EXTRACT: note_on channel=0 note=71 velocity=113 time=0.00675675
EXTRACT: note_on channel=7 note=47 velocity=104 time=0
EXTRACT: note_on channel=9 note=26 velocity=50 time=0
EXTRACT: note_on channel=9 note=32 velocity=50 time=0
EXTRACT: note_on channel=9 note=42 velocity=80 time=0
EXTRACT: note_on channel=9 note=42 velocity=0 time=0.043918874999999996
EXTRACT: note_on channel=9 note=32 velocity=0 time=0
EXTRACT: note_on channel=9 note=26 velocity=0 time=0
EXTRACT: note_on channel=0 note=71 velocity=0 time=0.050675624999999995
EXTRACT: note_on channel=3 note=66 velocity=0 time=0.091216125
EXTRACT: note_on channel=7 note=47 velocity=0 time=0.010135125
EXTRACT: note_on channel=1 note=35 velocity=0 time=0
EXTRACT: note_on channel=0 note=78 velocity=114 time=0.00675675
EXTRACT: note_on channel=1 note=35 velocity=120 time=0
EXTRACT: note_on channel=3 note=62 velocity=104 time=0
EXTRACT: note_on channel=7 note=54 velocity=86 time=0
EXTRACT: note_on channel=9 note=26 velocity=30 time=0
EXTRACT: note_on channel=9 note=32 velocity=30 time=0
EXTRACT: note_on channel=9 note=36 velocity=120 time=0
EXTRACT: note_on channel=10 note=52 velocity=120 time=0
EXTRACT: note_on channel=10 note=57 velocity=120 time=0.03378375
EXTRACT: note_on channel=10 note=52 velocity=0 time=0.010135125
EXTRACT: note_on channel=9 note=36 velocity=0 time=0
EXTRACT: note_on channel=9 note=26 velocity=0 time=0
EXTRACT: note_on channel=9 note=32 velocity=0 time=0
EXTRACT: note_on channel=10 note=57 velocity=0 time=0.03378375
EXTRACT: note_on channel=0 note=78 velocity=0 time=0.016891875
EXTRACT: note_on channel=3 note=62 velocity=0 time=0.084459375
EXTRACT: note_on channel=7 note=54 velocity=0 time=0.016891875
EXTRACT: note_on channel=1 note=35 velocity=0 time=0
EXTRACT: note_on channel=0 note=83 velocity=111 time=0.00675675
EXTRACT: note_on channel=1 note=35 velocity=120 time=0
EXTRACT: note_on channel=3 note=62 velocity=118 time=0
EXTRACT: note_on channel=7 note=59 velocity=101 time=0
EXTRACT: note_on channel=9 note=26 velocity=50 time=0
EXTRACT: note_on channel=9 note=32 velocity=50 time=0
EXTRACT: note_on channel=9 note=36 velocity=120 time=0
EXTRACT: note_on channel=9 note=42 velocity=70 time=0
EXTRACT: note_on channel=10 note=52 velocity=120 time=0
EXTRACT: note_on channel=10 note=57 velocity=120 time=0.03378375
EXTRACT: note_on channel=10 note=52 velocity=0 time=0.010135125
EXTRACT: note_on channel=9 note=42 velocity=0 time=0
EXTRACT: note_on channel=9 note=26 velocity=0 time=0
EXTRACT: note_on channel=9 note=36 velocity=0 time=0
EXTRACT: note_on channel=9 note=32 velocity=0 time=0
EXTRACT: note_on channel=10 note=57 velocity=0 time=0.03378375
EXTRACT: note_on channel=0 note=83 velocity=0 time=0.016891875
EXTRACT: note_on channel=7 note=59 velocity=0 time=0.10135124999999999
EXTRACT: note_on channel=0 note=78 velocity=112 time=0.00675675
EXTRACT: note_on channel=7 note=54 velocity=98 time=0
EXTRACT: note_on channel=9 note=26 velocity=30 time=0
EXTRACT: note_on channel=9 note=32 velocity=30 time=0
EXTRACT: note_on channel=9 note=32 velocity=0 time=0.043918874999999996
EXTRACT: note_on channel=9 note=26 velocity=0 time=0
EXTRACT: note_on channel=3 note=62 velocity=0 time=0.0135135
EXTRACT: note_on channel=0 note=78 velocity=0 time=0.037162125
EXTRACT: note_on channel=7 note=54 velocity=0 time=0.10135124999999999
EXTRACT: note_on channel=0 note=83 velocity=113 time=0.00675675
EXTRACT: note_on channel=3 note=62 velocity=112 time=0
EXTRACT: note_on channel=7 note=59 velocity=101 time=0
EXTRACT: note_on channel=9 note=26 velocity=50 time=0
EXTRACT: note_on channel=9 note=32 velocity=50 time=0
EXTRACT: note_on channel=9 note=38 velocity=120 time=0
EXTRACT: note_on channel=9 note=42 velocity=80 time=0
EXTRACT: note_on channel=9 note=42 velocity=0 time=0.043918874999999996
EXTRACT: note_on channel=9 note=38 velocity=0 time=0
EXTRACT: note_on channel=9 note=26 velocity=0 time=0
EXTRACT: note_on channel=9 note=32 velocity=0 time=0
EXTRACT: note_on channel=0 note=83 velocity=0 time=0.050675624999999995
EXTRACT: note_on channel=3 note=62 velocity=0 time=0.043918874999999996
EXTRACT: note_on channel=7 note=59 velocity=0 time=0.057432375
EXTRACT: note_on channel=0 note=78 velocity=115 time=0.00675675
EXTRACT: note_on channel=3 note=62 velocity=98 time=0
EXTRACT: note_on channel=7 note=54 velocity=93 time=0
EXTRACT: note_on channel=9 note=26 velocity=30 time=0
EXTRACT: note_on channel=9 note=32 velocity=30 time=0
EXTRACT: note_on channel=9 note=32 velocity=0 time=0.043918874999999996
EXTRACT: note_on channel=9 note=26 velocity=0 time=0
EXTRACT: note_on channel=3 note=62 velocity=0 time=0.043918874999999996
EXTRACT: note_on channel=0 note=78 velocity=0 time=0.00675675
EXTRACT: note_on channel=7 note=54 velocity=0 time=0.10135124999999999
EXTRACT: note_on channel=0 note=71 velocity=115 time=0.00675675
EXTRACT: note_on channel=3 note=62 velocity=115 time=0
EXTRACT: note_on channel=7 note=47 velocity=90 time=0
EXTRACT: note_on channel=9 note=26 velocity=50 time=0
EXTRACT: note_on channel=9 note=32 velocity=50 time=0
EXTRACT: note_on channel=9 note=42 velocity=70 time=0
EXTRACT: note_on channel=9 note=42 velocity=0 time=0.043918874999999996
EXTRACT: note_on channel=9 note=32 velocity=0 time=0
EXTRACT: note_on channel=9 note=26 velocity=0 time=0
EXTRACT: note_on channel=0 note=71 velocity=0 time=0.050675624999999995
EXTRACT: note_on channel=7 note=47 velocity=0 time=0.10135124999999999
EXTRACT: note_on channel=3 note=62 velocity=0 time=0
EXTRACT: note_on channel=0 note=78 velocity=115 time=0.00675675
EXTRACT: note_on channel=7 note=54 velocity=90 time=0
EXTRACT: note_on channel=9 note=26 velocity=30 time=0
EXTRACT: note_on channel=9 note=32 velocity=30 time=0
EXTRACT: note_on channel=9 note=32 velocity=0 time=0.043918874999999996
EXTRACT: note_on channel=9 note=26 velocity=0 time=0
EXTRACT: note_on channel=0 note=78 velocity=0 time=0.050675624999999995
EXTRACT: note_on channel=1 note=35 velocity=0 time=0.10135124999999999
EXTRACT: note_on channel=5 note=54 velocity=0 time=0
EXTRACT: note_on channel=2 note=62 velocity=0 time=0
EXTRACT: note_on channel=2 note=59 velocity=0 time=0
EXTRACT: note_on channel=2 note=66 velocity=0 time=0
EXTRACT: note_on channel=11 note=90 velocity=0 time=0
EXTRACT: note_on channel=5 note=62 velocity=0 time=0
EXTRACT: note_on channel=6 note=54 velocity=0 time=0
EXTRACT: note_on channel=5 note=59 velocity=0 time=0
EXTRACT: note_on channel=11 note=86 velocity=0 time=0
EXTRACT: note_on channel=11 note=83 velocity=0 time=0
EXTRACT: note_on channel=6 note=47 velocity=0 time=0
EXTRACT: note_on channel=7 note=54 velocity=0 time=0
EXTRACT: note_on channel=5 note=47 velocity=0 time=0
EXTRACT: note_on channel=0 note=67 velocity=112 time=0.00675675
EXTRACT: note_on channel=1 note=31 velocity=118 time=0
EXTRACT: note_on channel=2 note=59 velocity=101 time=0
EXTRACT: note_on channel=2 note=62 velocity=101 time=0
EXTRACT: note_on channel=2 note=67 velocity=101 time=0
EXTRACT: note_on channel=3 note=67 velocity=121 time=0
EXTRACT: note_on channel=4 note=55 velocity=121 time=0
EXTRACT: note_on channel=4 note=59 velocity=121 time=0
EXTRACT: note_on channel=4 note=67 velocity=121 time=0
EXTRACT: note_on channel=5 note=43 velocity=101 time=0
EXTRACT: note_on channel=5 note=55 velocity=101 time=0
EXTRACT: note_on channel=5 note=59 velocity=101 time=0
EXTRACT: note_on channel=5 note=62 velocity=101 time=0
EXTRACT: note_on channel=6 note=43 velocity=99 time=0
EXTRACT: note_on channel=6 note=50 velocity=99 time=0
EXTRACT: note_on channel=7 note=47 velocity=104 time=0
EXTRACT: note_on channel=8 note=31 velocity=81 time=0
EXTRACT: note_on channel=9 note=26 velocity=50 time=0
EXTRACT: note_on channel=9 note=32 velocity=50 time=0
EXTRACT: note_on channel=9 note=36 velocity=120 time=0
EXTRACT: note_on channel=9 note=42 velocity=80 time=0
EXTRACT: note_on channel=10 note=52 velocity=120 time=0
EXTRACT: note_on channel=11 note=83 velocity=101 time=0
EXTRACT: note_on channel=11 note=86 velocity=101 time=0
EXTRACT: note_on channel=11 note=91 velocity=101 time=0
EXTRACT: note_on channel=15 note=55 velocity=1 time=0
EXTRACT: note_on channel=15 note=59 velocity=1 time=0
EXTRACT: note_on channel=15 note=67 velocity=1 time=0
EXTRACT: note_on channel=10 note=57 velocity=120 time=0.03378375
EXTRACT: note_on channel=10 note=52 velocity=0 time=0.010135125
EXTRACT: note_on channel=9 note=42 velocity=0 time=0
EXTRACT: note_on channel=9 note=36 velocity=0 time=0
EXTRACT: note_on channel=9 note=26 velocity=0 time=0
EXTRACT: note_on channel=9 note=32 velocity=0 time=0
EXTRACT: note_on channel=10 note=57 velocity=0 time=0.03378375
EXTRACT: note_on channel=0 note=67 velocity=0 time=0.016891875
EXTRACT: note_on channel=7 note=47 velocity=0 time=0.10135124999999999
EXTRACT: note_on channel=0 note=74 velocity=115 time=0.00675675
EXTRACT: note_on channel=7 note=50 velocity=93 time=0
EXTRACT: note_on channel=9 note=26 velocity=30 time=0
EXTRACT: note_on channel=9 note=32 velocity=30 time=0
EXTRACT: note_on channel=9 note=32 velocity=0 time=0.043918874999999996
EXTRACT: note_on channel=9 note=26 velocity=0 time=0
EXTRACT: note_on channel=0 note=74 velocity=0 time=0.050675624999999995
EXTRACT: note_on channel=7 note=50 velocity=0 time=0.10135124999999999
EXTRACT: note_on channel=8 note=31 velocity=0 time=0
EXTRACT: note_on channel=0 note=79 velocity=118 time=0.00675675
EXTRACT: note_on channel=7 note=59 velocity=89 time=0
EXTRACT: note_on channel=9 note=26 velocity=50 time=0
EXTRACT: note_on channel=9 note=32 velocity=50 time=0
EXTRACT: note_on channel=9 note=42 velocity=70 time=0
EXTRACT: note_on channel=9 note=42 velocity=0 time=0.043918874999999996
EXTRACT: note_on channel=9 note=32 velocity=0 time=0
EXTRACT: note_on channel=9 note=26 velocity=0 time=0
EXTRACT: note_on channel=0 note=79 velocity=0 time=0.050675624999999995
EXTRACT: note_on channel=7 note=59 velocity=0 time=0.10135124999999999
EXTRACT: note_on channel=0 note=74 velocity=118 time=0.00675675
EXTRACT: note_on channel=7 note=50 velocity=77 time=0
EXTRACT: note_on channel=9 note=26 velocity=30 time=0
EXTRACT: note_on channel=9 note=32 velocity=30 time=0
EXTRACT: note_on channel=9 note=32 velocity=0 time=0.043918874999999996
EXTRACT: note_on channel=9 note=26 velocity=0 time=0
EXTRACT: note_on channel=3 note=67 velocity=0 time=0.027027
EXTRACT: note_on channel=4 note=67 velocity=0 time=0
EXTRACT: note_on channel=4 note=59 velocity=0 time=0
EXTRACT: note_on channel=15 note=55 velocity=0 time=0
EXTRACT: note_on channel=4 note=55 velocity=0 time=0
EXTRACT: note_on channel=15 note=67 velocity=0 time=0
EXTRACT: note_on channel=15 note=59 velocity=0 time=0
EXTRACT: note_on channel=0 note=74 velocity=0 time=0.023648625
EXTRACT: note_on channel=7 note=50 velocity=0 time=0.10135124999999999
EXTRACT: note_on channel=0 note=79 velocity=113 time=0.00675675
EXTRACT: note_on channel=3 note=66 velocity=121 time=0
EXTRACT: note_on channel=4 note=54 velocity=121 time=0
EXTRACT: note_on channel=4 note=57 velocity=121 time=0
EXTRACT: note_on channel=4 note=66 velocity=121 time=0
EXTRACT: note_on channel=7 note=59 velocity=98 time=0
EXTRACT: note_on channel=9 note=26 velocity=50 time=0
EXTRACT: note_on channel=9 note=32 velocity=50 time=0
EXTRACT: note_on channel=9 note=38 velocity=120 time=0
EXTRACT: note_on channel=9 note=42 velocity=80 time=0
EXTRACT: note_on channel=15 note=57 velocity=1 time=0
EXTRACT: note_on channel=15 note=54 velocity=1 time=0
EXTRACT: note_on channel=15 note=66 velocity=1 time=0
EXTRACT: note_on channel=9 note=42 velocity=0 time=0.043918874999999996
EXTRACT: note_on channel=9 note=38 velocity=0 time=0
EXTRACT: note_on channel=9 note=32 velocity=0 time=0
EXTRACT: note_on channel=9 note=26 velocity=0 time=0
EXTRACT: note_on channel=0 note=79 velocity=0 time=0.050675624999999995
EXTRACT: note_on channel=7 note=59 velocity=0 time=0.10135124999999999
EXTRACT: note_on channel=0 note=74 velocity=113 time=0.00675675
EXTRACT: note_on channel=7 note=50 velocity=98 time=0
EXTRACT: note_on channel=9 note=26 velocity=30 time=0
EXTRACT: note_on channel=9 note=32 velocity=30 time=0
EXTRACT: note_on channel=9 note=32 velocity=0 time=0.043918874999999996
EXTRACT: note_on channel=9 note=26 velocity=0 time=0
EXTRACT: note_on channel=0 note=74 velocity=0 time=0.050675624999999995
EXTRACT: note_on channel=7 note=50 velocity=0 time=0.10135124999999999
EXTRACT: note_on channel=0 note=67 velocity=109 time=0.00675675
EXTRACT: note_on channel=7 note=47 velocity=78 time=0
EXTRACT: note_on channel=9 note=26 velocity=50 time=0
EXTRACT: note_on channel=9 note=32 velocity=50 time=0
EXTRACT: note_on channel=9 note=36 velocity=120 time=0
EXTRACT: note_on channel=9 note=42 velocity=70 time=0
EXTRACT: note_on channel=9 note=42 velocity=0 time=0.043918874999999996
EXTRACT: note_on channel=9 note=36 velocity=0 time=0
EXTRACT: note_on channel=9 note=32 velocity=0 time=0
EXTRACT: note_on channel=9 note=26 velocity=0 time=0
EXTRACT: note_on channel=0 note=67 velocity=0 time=0.050675624999999995
EXTRACT: note_on channel=7 note=47 velocity=0 time=0.10135124999999999
EXTRACT: note_on channel=1 note=31 velocity=0 time=0
EXTRACT: note_on channel=0 note=74 velocity=110 time=0.00675675
EXTRACT: note_on channel=1 note=31 velocity=118 time=0
EXTRACT: note_on channel=7 note=50 velocity=63 time=0
EXTRACT: note_on channel=9 note=26 velocity=30 time=0
EXTRACT: note_on channel=9 note=32 velocity=30 time=0
EXTRACT: note_on channel=9 note=36 velocity=120 time=0
EXTRACT: note_on channel=10 note=52 velocity=120 time=0
EXTRACT: note_on channel=4 note=54 velocity=0 time=0.00675675
EXTRACT: note_on channel=4 note=66 velocity=0 time=0
EXTRACT: note_on channel=4 note=57 velocity=0 time=0
EXTRACT: note_on channel=15 note=57 velocity=0 time=0
EXTRACT: note_on channel=15 note=66 velocity=0 time=0
EXTRACT: note_on channel=15 note=54 velocity=0 time=0
EXTRACT: note_on channel=3 note=66 velocity=0 time=0
EXTRACT: note_on channel=10 note=57 velocity=120 time=0.027027
EXTRACT: note_on channel=9 note=32 velocity=0 time=0.010135125
EXTRACT: note_on channel=10 note=52 velocity=0 time=0
EXTRACT: note_on channel=9 note=26 velocity=0 time=0
EXTRACT: note_on channel=9 note=36 velocity=0 time=0
EXTRACT: note_on channel=10 note=57 velocity=0 time=0.03378375
EXTRACT: note_on channel=0 note=74 velocity=0 time=0.016891875
EXTRACT: note_on channel=7 note=50 velocity=0 time=0.10135124999999999
EXTRACT: note_on channel=0 note=67 velocity=113 time=0.00675675
EXTRACT: note_on channel=3 note=64 velocity=121 time=0
EXTRACT: note_on channel=4 note=52 velocity=121 time=0
EXTRACT: note_on channel=4 note=55 velocity=121 time=0
EXTRACT: note_on channel=4 note=64 velocity=121 time=0
EXTRACT: note_on channel=7 note=47 velocity=76 time=0
EXTRACT: note_on channel=9 note=26 velocity=50 time=0
EXTRACT: note_on channel=9 note=32 velocity=50 time=0
EXTRACT: note_on channel=9 note=41 velocity=120 time=0
EXTRACT: note_on channel=9 note=42 velocity=80 time=0
EXTRACT: note_on channel=9 note=43 velocity=120 time=0
EXTRACT: note_on channel=15 note=64 velocity=1 time=0
EXTRACT: note_on channel=15 note=52 velocity=1 time=0
EXTRACT: note_on channel=15 note=55 velocity=1 time=0
EXTRACT: note_on channel=9 note=43 velocity=0 time=0.043918874999999996
EXTRACT: note_on channel=9 note=41 velocity=0 time=0
EXTRACT: note_on channel=9 note=32 velocity=0 time=0
EXTRACT: note_on channel=9 note=26 velocity=0 time=0
EXTRACT: note_on channel=9 note=42 velocity=0 time=0
EXTRACT: note_on channel=0 note=67 velocity=0 time=0.050675624999999995
EXTRACT: note_on channel=7 note=47 velocity=0 time=0.10135124999999999
EXTRACT: note_on channel=1 note=31 velocity=0 time=0
EXTRACT: note_on channel=0 note=74 velocity=114 time=0.00675675
EXTRACT: note_on channel=1 note=31 velocity=118 time=0
EXTRACT: note_on channel=7 note=50 velocity=86 time=0
EXTRACT: note_on channel=9 note=26 velocity=30 time=0
EXTRACT: note_on channel=9 note=32 velocity=30 time=0
EXTRACT: note_on channel=9 note=36 velocity=120 time=0
EXTRACT: note_on channel=9 note=38 velocity=120 time=0
EXTRACT: note_on channel=10 note=52 velocity=120 time=0
EXTRACT: note_on channel=10 note=57 velocity=120 time=0.03378375
EXTRACT: note_on channel=10 note=52 velocity=0 time=0.010135125
EXTRACT: note_on channel=9 note=38 velocity=0 time=0
EXTRACT: note_on channel=9 note=36 velocity=0 time=0
EXTRACT: note_on channel=9 note=32 velocity=0 time=0
EXTRACT: note_on channel=9 note=26 velocity=0 time=0
EXTRACT: note_on channel=10 note=57 velocity=0 time=0.03378375
EXTRACT: note_on channel=4 note=64 velocity=0 time=0.0135135
EXTRACT: note_on channel=4 note=52 velocity=0 time=0
EXTRACT: note_on channel=4 note=55 velocity=0 time=0
EXTRACT: note_on channel=15 note=52 velocity=0 time=0
EXTRACT: note_on channel=15 note=64 velocity=0 time=0
EXTRACT: note_on channel=15 note=55 velocity=0 time=0
EXTRACT: note_on channel=3 note=64 velocity=0 time=0
EXTRACT: note_on channel=0 note=74 velocity=0 time=0.003378375
EXTRACT: note_on channel=7 note=50 velocity=0 time=0.10135124999999999
EXTRACT: note_on channel=1 note=31 velocity=0 time=0
EXTRACT: note_on channel=0 note=79 velocity=111 time=0.00675675
EXTRACT: note_on channel=1 note=31 velocity=118 time=0
EXTRACT: note_on channel=3 note=62 velocity=118 time=0
EXTRACT: note_on channel=4 note=50 velocity=118 time=0
EXTRACT: note_on channel=4 note=54 velocity=118 time=0
EXTRACT: note_on channel=4 note=62 velocity=118 time=0
EXTRACT: note_on channel=7 note=55 velocity=88 time=0
EXTRACT: note_on channel=9 note=26 velocity=50 time=0
EXTRACT: note_on channel=9 note=32 velocity=50 time=0
EXTRACT: note_on channel=9 note=36 velocity=120 time=0
EXTRACT: note_on channel=9 note=41 velocity=120 time=0
EXTRACT: note_on channel=9 note=42 velocity=70 time=0
EXTRACT: note_on channel=9 note=43 velocity=120 time=0
EXTRACT: note_on channel=10 note=52 velocity=120 time=0
EXTRACT: note_on channel=15 note=54 velocity=1 time=0
EXTRACT: note_on channel=15 note=62 velocity=1 time=0
EXTRACT: note_on channel=15 note=50 velocity=1 time=0
EXTRACT: note_on channel=10 note=57 velocity=120 time=0.03378375
EXTRACT: note_on channel=10 note=52 velocity=0 time=0.010135125
EXTRACT: note_on channel=9 note=36 velocity=0 time=0
EXTRACT: note_on channel=9 note=32 velocity=0 time=0
EXTRACT: note_on channel=9 note=26 velocity=0 time=0
EXTRACT: note_on channel=9 note=43 velocity=0 time=0
EXTRACT: note_on channel=9 note=42 velocity=0 time=0
EXTRACT: note_on channel=9 note=41 velocity=0 time=0
EXTRACT: note_on channel=10 note=57 velocity=0 time=0.03378375
EXTRACT: note_on channel=0 note=79 velocity=0 time=0.016891875
EXTRACT: note_on channel=7 note=55 velocity=0 time=0.10135124999999999
EXTRACT: note_on channel=0 note=74 velocity=112 time=0.00675675
EXTRACT: note_on channel=7 note=50 velocity=88 time=0
EXTRACT: note_on channel=9 note=26 velocity=30 time=0
EXTRACT: note_on channel=9 note=32 velocity=30 time=0
EXTRACT: note_on channel=9 note=32 velocity=0 time=0.043918874999999996
EXTRACT: note_on channel=9 note=26 velocity=0 time=0
EXTRACT: note_on channel=4 note=62 velocity=0 time=0.010135125
EXTRACT: note_on channel=4 note=50 velocity=0 time=0
EXTRACT: note_on channel=4 note=54 velocity=0 time=0
EXTRACT: note_on channel=3 note=62 velocity=0 time=0
EXTRACT: note_on channel=15 note=54 velocity=0 time=0
EXTRACT: note_on channel=15 note=62 velocity=0 time=0
EXTRACT: note_on channel=15 note=50 velocity=0 time=0
EXTRACT: note_on channel=0 note=74 velocity=0 time=0.0405405
EXTRACT: note_on channel=7 note=50 velocity=0 time=0.10135124999999999
EXTRACT: note_on channel=0 note=79 velocity=113 time=0.00675675
EXTRACT: note_on channel=3 note=62 velocity=121 time=0
EXTRACT: note_on channel=4 note=50 velocity=121 time=0
EXTRACT: note_on channel=4 note=54 velocity=121 time=0
EXTRACT: note_on channel=4 note=62 velocity=121 time=0
EXTRACT: note_on channel=7 note=55 velocity=81 time=0
EXTRACT: note_on channel=9 note=26 velocity=50 time=0
EXTRACT: note_on channel=9 note=32 velocity=50 time=0
EXTRACT: note_on channel=9 note=38 velocity=120 time=0
EXTRACT: note_on channel=9 note=42 velocity=80 time=0
EXTRACT: note_on channel=15 note=50 velocity=1 time=0
EXTRACT: note_on channel=15 note=62 velocity=1 time=0
EXTRACT: note_on channel=15 note=54 velocity=1 time=0
EXTRACT: note_on channel=9 note=42 velocity=0 time=0.043918874999999996
EXTRACT: note_on channel=9 note=38 velocity=0 time=0
EXTRACT: note_on channel=9 note=32 velocity=0 time=0
EXTRACT: note_on channel=9 note=26 velocity=0 time=0
EXTRACT: note_on channel=0 note=79 velocity=0 time=0.050675624999999995
EXTRACT: note_on channel=7 note=55 velocity=0 time=0.10135124999999999
EXTRACT: note_on channel=0 note=74 velocity=115 time=0.00675675
EXTRACT: note_on channel=7 note=50 velocity=73 time=0
EXTRACT: note_on channel=9 note=26 velocity=30 time=0
EXTRACT: note_on channel=9 note=32 velocity=30 time=0
EXTRACT: note_on channel=9 note=32 velocity=0 time=0.043918874999999996
EXTRACT: note_on channel=9 note=26 velocity=0 time=0
EXTRACT: note_on channel=0 note=74 velocity=0 time=0.050675624999999995
EXTRACT: note_on channel=4 note=50 velocity=0 time=0.054054
EXTRACT: note_on channel=4 note=62 velocity=0 time=0
EXTRACT: note_on channel=4 note=54 velocity=0 time=0
EXTRACT: note_on channel=3 note=62 velocity=0 time=0
EXTRACT: note_on channel=15 note=54 velocity=0 time=0
EXTRACT: note_on channel=15 note=62 velocity=0 time=0
EXTRACT: note_on channel=15 note=50 velocity=0 time=0
EXTRACT: note_on channel=7 note=50 velocity=0 time=0.04729725
EXTRACT: note_on channel=0 note=67 velocity=115 time=0.00675675
EXTRACT: note_on channel=3 note=59 velocity=118 time=0
EXTRACT: note_on channel=4 note=47 velocity=118 time=0
EXTRACT: note_on channel=4 note=52 velocity=118 time=0
EXTRACT: note_on channel=4 note=59 velocity=118 time=0
EXTRACT: note_on channel=7 note=55 velocity=73 time=0
EXTRACT: note_on channel=9 note=26 velocity=50 time=0
EXTRACT: note_on channel=9 note=32 velocity=50 time=0
EXTRACT: note_on channel=9 note=36 velocity=114 time=0
EXTRACT: note_on channel=9 note=41 velocity=120 time=0
EXTRACT: note_on channel=9 note=42 velocity=70 time=0
EXTRACT: note_on channel=9 note=43 velocity=120 time=0
EXTRACT: note_on channel=10 note=52 velocity=114 time=0
EXTRACT: note_on channel=15 note=47 velocity=1 time=0
EXTRACT: note_on channel=15 note=52 velocity=1 time=0
EXTRACT: note_on channel=15 note=59 velocity=1 time=0
EXTRACT: note_on channel=10 note=57 velocity=114 time=0.03378375
EXTRACT: note_on channel=10 note=52 velocity=0 time=0.010135125
EXTRACT: note_on channel=9 note=36 velocity=0 time=0
EXTRACT: note_on channel=9 note=32 velocity=0 time=0
EXTRACT: note_on channel=9 note=26 velocity=0 time=0
EXTRACT: note_on channel=9 note=43 velocity=0 time=0
EXTRACT: note_on channel=9 note=42 velocity=0 time=0
EXTRACT: note_on channel=9 note=41 velocity=0 time=0
EXTRACT: note_on channel=10 note=57 velocity=0 time=0.03378375
EXTRACT: note_on channel=0 note=67 velocity=0 time=0.016891875
EXTRACT: note_on channel=7 note=55 velocity=0 time=0.10135124999999999
EXTRACT: note_on channel=0 note=74 velocity=115 time=0.00675675
EXTRACT: note_on channel=7 note=50 velocity=71 time=0
EXTRACT: note_on channel=9 note=26 velocity=30 time=0
EXTRACT: note_on channel=9 note=32 velocity=30 time=0
EXTRACT: note_on channel=9 note=36 velocity=114 time=0
EXTRACT: note_on channel=9 note=38 velocity=120 time=0
EXTRACT: note_on channel=9 note=57 velocity=110 time=0
EXTRACT: note_on channel=10 note=52 velocity=114 time=0
EXTRACT: note_on channel=10 note=57 velocity=114 time=0.03378375
EXTRACT: note_on channel=10 note=52 velocity=0 time=0.010135125
EXTRACT: note_on channel=9 note=57 velocity=0 time=0
EXTRACT: note_on channel=9 note=36 velocity=0 time=0
EXTRACT: note_on channel=9 note=32 velocity=0 time=0
EXTRACT: note_on channel=9 note=26 velocity=0 time=0
EXTRACT: note_on channel=9 note=38 velocity=0 time=0
EXTRACT: note_on channel=10 note=57 velocity=0 time=0.03378375
EXTRACT: note_on channel=0 note=74 velocity=0 time=0.016891875
EXTRACT: note_on channel=5 note=55 velocity=0 time=0.10135124999999999
EXTRACT: note_on channel=5 note=62 velocity=0 time=0
EXTRACT: note_on channel=6 note=43 velocity=0 time=0
EXTRACT: note_on channel=4 note=47 velocity=0 time=0
EXTRACT: note_on channel=11 note=86 velocity=0 time=0
EXTRACT: note_on channel=11 note=91 velocity=0 time=0
EXTRACT: note_on channel=2 note=62 velocity=0 time=0
EXTRACT: note_on channel=15 note=59 velocity=0 time=0
EXTRACT: note_on channel=15 note=47 velocity=0 time=0
EXTRACT: note_on channel=15 note=52 velocity=0 time=0
EXTRACT: note_on channel=1 note=31 velocity=0 time=0
EXTRACT: note_on channel=2 note=67 velocity=0 time=0
EXTRACT: note_on channel=6 note=50 velocity=0 time=0
EXTRACT: note_on channel=4 note=52 velocity=0 time=0
EXTRACT: note_on channel=5 note=59 velocity=0 time=0
EXTRACT: note_on channel=2 note=59 velocity=0 time=0
EXTRACT: note_on channel=5 note=43 velocity=0 time=0
EXTRACT: note_on channel=7 note=50 velocity=0 time=0
EXTRACT: note_on channel=4 note=59 velocity=0 time=0
EXTRACT: note_on channel=3 note=59 velocity=0 time=0
EXTRACT: note_on channel=11 note=83 velocity=0 time=0
EXTRACT: note_on channel=0 note=74 velocity=112 time=0.00675675
EXTRACT: note_on channel=1 note=38 velocity=121 time=0
EXTRACT: note_on channel=2 note=57 velocity=102 time=0
EXTRACT: note_on channel=2 note=62 velocity=102 time=0
EXTRACT: note_on channel=2 note=66 velocity=102 time=0
EXTRACT: note_on channel=3 note=57 velocity=106 time=0
EXTRACT: note_on channel=4 note=45 velocity=118 time=0
EXTRACT: note_on channel=4 note=50 velocity=118 time=0
EXTRACT: note_on channel=4 note=57 velocity=118 time=0
EXTRACT: note_on channel=5 note=50 velocity=100 time=0
EXTRACT: note_on channel=5 note=54 velocity=100 time=0
EXTRACT: note_on channel=5 note=57 velocity=100 time=0
EXTRACT: note_on channel=5 note=62 velocity=100 time=0
EXTRACT: note_on channel=6 note=45 velocity=99 time=0
EXTRACT: note_on channel=6 note=50 velocity=99 time=0
EXTRACT: note_on channel=7 note=50 velocity=104 time=0
EXTRACT: note_on channel=8 note=38 velocity=79 time=0
EXTRACT: note_on channel=9 note=26 velocity=50 time=0
EXTRACT: note_on channel=9 note=32 velocity=50 time=0
EXTRACT: note_on channel=9 note=36 velocity=120 time=0
EXTRACT: note_on channel=9 note=42 velocity=80 time=0
EXTRACT: note_on channel=10 note=52 velocity=120 time=0
EXTRACT: note_on channel=11 note=81 velocity=102 time=0
EXTRACT: note_on channel=11 note=86 velocity=102 time=0
EXTRACT: note_on channel=11 note=90 velocity=102 time=0
EXTRACT: note_on channel=15 note=45 velocity=1 time=0
EXTRACT: note_on channel=15 note=50 velocity=1 time=0
EXTRACT: note_on channel=15 note=57 velocity=1 time=0
EXTRACT: note_on channel=10 note=57 velocity=120 time=0.037162125
EXTRACT: note_on channel=10 note=52 velocity=0 time=0.00675675
EXTRACT: note_on channel=9 note=42 velocity=0 time=0
EXTRACT: note_on channel=9 note=36 velocity=0 time=0
EXTRACT: note_on channel=9 note=26 velocity=0 time=0
EXTRACT: note_on channel=9 note=32 velocity=0 time=0
EXTRACT: note_on channel=10 note=57 velocity=0 time=0.037162125
EXTRACT: note_on channel=0 note=74 velocity=0 time=0.0135135
EXTRACT: note_on channel=7 note=50 velocity=0 time=0.10135124999999999
EXTRACT: note_on channel=0 note=78 velocity=115 time=0.00675675
EXTRACT: note_on channel=7 note=54 velocity=93 time=0
EXTRACT: note_on channel=9 note=26 velocity=30 time=0
EXTRACT: note_on channel=9 note=32 velocity=30 time=0
EXTRACT: note_on channel=9 note=32 velocity=0 time=0.043918874999999996
EXTRACT: note_on channel=9 note=26 velocity=0 time=0
EXTRACT: note_on channel=3 note=57 velocity=0 time=0.050675624999999995
EXTRACT: note_on channel=0 note=78 velocity=0 time=0
EXTRACT: note_on channel=4 note=50 velocity=0 time=0.10135124999999999
EXTRACT: note_on channel=8 note=38 velocity=0 time=0
EXTRACT: note_on channel=7 note=54 velocity=0 time=0
EXTRACT: note_on channel=4 note=57 velocity=0 time=0
EXTRACT: note_on channel=4 note=45 velocity=0 time=0
EXTRACT: note_on channel=15 note=45 velocity=0 time=0
EXTRACT: note_on channel=15 note=50 velocity=0 time=0
EXTRACT: note_on channel=15 note=57 velocity=0 time=0
EXTRACT: note_on channel=0 note=81 velocity=118 time=0.00675675
EXTRACT: note_on channel=3 note=69 velocity=118 time=0
EXTRACT: note_on channel=7 note=57 velocity=89 time=0
EXTRACT: note_on channel=9 note=26 velocity=50 time=0
EXTRACT: note_on channel=9 note=32 velocity=50 time=0
EXTRACT: note_on channel=9 note=42 velocity=70 time=0
EXTRACT: note_on channel=9 note=42 velocity=0 time=0.043918874999999996
EXTRACT: note_on channel=9 note=32 velocity=0 time=0
EXTRACT: note_on channel=9 note=26 velocity=0 time=0
EXTRACT: note_on channel=0 note=81 velocity=0 time=0.050675624999999995
EXTRACT: note_on channel=7 note=57 velocity=0 time=0.10135124999999999
EXTRACT: note_on channel=0 note=78 velocity=118 time=0.00675675
EXTRACT: note_on channel=7 note=54 velocity=77 time=0
EXTRACT: note_on channel=9 note=26 velocity=30 time=0
EXTRACT: note_on channel=9 note=32 velocity=30 time=0
EXTRACT: note_on channel=3 note=69 velocity=0 time=0.010135125
EXTRACT: note_on channel=9 note=32 velocity=0 time=0.03378375
EXTRACT: note_on channel=9 note=26 velocity=0 time=0
EXTRACT: note_on channel=0 note=78 velocity=0 time=0.050675624999999995
EXTRACT: note_on channel=7 note=54 velocity=0 time=0.10135124999999999
EXTRACT: note_on channel=0 note=81 velocity=113 time=0.00675675
EXTRACT: note_on channel=3 note=66 velocity=112 time=0
EXTRACT: note_on channel=7 note=57 velocity=98 time=0
EXTRACT: note_on channel=9 note=26 velocity=50 time=0
EXTRACT: note_on channel=9 note=32 velocity=50 time=0
EXTRACT: note_on channel=9 note=38 velocity=120 time=0
EXTRACT: note_on channel=9 note=42 velocity=80 time=0
EXTRACT: note_on channel=9 note=42 velocity=0 time=0.043918874999999996
EXTRACT: note_on channel=9 note=38 velocity=0 time=0
EXTRACT: note_on channel=9 note=26 velocity=0 time=0
EXTRACT: note_on channel=9 note=32 velocity=0 time=0
EXTRACT: note_on channel=0 note=81 velocity=0 time=0.050675624999999995
EXTRACT: note_on channel=7 note=57 velocity=0 time=0.10135124999999999
EXTRACT: note_on channel=0 note=78 velocity=113 time=0.00675675
EXTRACT: note_on channel=7 note=54 velocity=98 time=0
EXTRACT: note_on channel=9 note=26 velocity=30 time=0
EXTRACT: note_on channel=9 note=32 velocity=30 time=0
EXTRACT: note_on channel=9 note=32 velocity=0 time=0.043918874999999996
EXTRACT: note_on channel=9 note=26 velocity=0 time=0
EXTRACT: note_on channel=0 note=78 velocity=0 time=0.050675624999999995
EXTRACT: note_on channel=7 note=54 velocity=0 time=0.10135124999999999
EXTRACT: note_on channel=0 note=74 velocity=109 time=0.00675675
EXTRACT: note_on channel=7 note=50 velocity=101 time=0
EXTRACT: note_on channel=9 note=26 velocity=50 time=0
EXTRACT: note_on channel=9 note=32 velocity=50 time=0
EXTRACT: note_on channel=9 note=42 velocity=70 time=0
EXTRACT: note_on channel=9 note=42 velocity=0 time=0.043918874999999996
EXTRACT: note_on channel=9 note=32 velocity=0 time=0
EXTRACT: note_on channel=9 note=26 velocity=0 time=0
EXTRACT: note_on channel=0 note=74 velocity=0 time=0.050675624999999995
EXTRACT: note_on channel=7 note=50 velocity=0 time=0.10135124999999999
EXTRACT: note_on channel=1 note=38 velocity=0 time=0
EXTRACT: note_on channel=0 note=78 velocity=110 time=0.00675675
EXTRACT: note_on channel=1 note=38 velocity=121 time=0
EXTRACT: note_on channel=7 note=54 velocity=95 time=0
EXTRACT: note_on channel=9 note=26 velocity=30 time=0
EXTRACT: note_on channel=9 note=32 velocity=30 time=0
EXTRACT: note_on channel=9 note=36 velocity=120 time=0
EXTRACT: note_on channel=10 note=52 velocity=120 time=0
EXTRACT: note_on channel=10 note=57 velocity=120 time=0.03378375
EXTRACT: note_on channel=10 note=52 velocity=0 time=0.010135125
EXTRACT: note_on channel=9 note=36 velocity=0 time=0
EXTRACT: note_on channel=9 note=26 velocity=0 time=0
EXTRACT: note_on channel=9 note=32 velocity=0 time=0
EXTRACT: note_on channel=10 note=57 velocity=0 time=0.03378375
EXTRACT: note_on channel=0 note=78 velocity=0 time=0.016891875
EXTRACT: note_on channel=3 note=66 velocity=0 time=0.037162125
EXTRACT: note_on channel=7 note=54 velocity=0 time=0.064189125
EXTRACT: note_on channel=0 note=74 velocity=113 time=0.00675675
EXTRACT: note_on channel=7 note=50 velocity=104 time=0
EXTRACT: note_on channel=9 note=26 velocity=50 time=0
EXTRACT: note_on channel=9 note=32 velocity=50 time=0
EXTRACT: note_on channel=9 note=42 velocity=80 time=0
EXTRACT: note_on channel=9 note=42 velocity=0 time=0.043918874999999996
EXTRACT: note_on channel=9 note=32 velocity=0 time=0
EXTRACT: note_on channel=9 note=26 velocity=0 time=0
EXTRACT: note_on channel=0 note=74 velocity=0 time=0.050675624999999995
EXTRACT: note_on channel=7 note=50 velocity=0 time=0.10135124999999999
EXTRACT: note_on channel=1 note=38 velocity=0 time=0
EXTRACT: note_on channel=0 note=78 velocity=114 time=0.00675675
EXTRACT: note_on channel=1 note=38 velocity=121 time=0
EXTRACT: note_on channel=7 note=54 velocity=86 time=0
EXTRACT: note_on channel=9 note=26 velocity=30 time=0
EXTRACT: note_on channel=9 note=32 velocity=30 time=0
EXTRACT: note_on channel=9 note=36 velocity=120 time=0
EXTRACT: note_on channel=10 note=52 velocity=120 time=0
EXTRACT: note_on channel=10 note=57 velocity=120 time=0.03378375
EXTRACT: note_on channel=10 note=52 velocity=0 time=0.010135125
EXTRACT: note_on channel=9 note=36 velocity=0 time=0
EXTRACT: note_on channel=9 note=32 velocity=0 time=0
EXTRACT: note_on channel=9 note=26 velocity=0 time=0
EXTRACT: note_on channel=10 note=57 velocity=0 time=0.03378375
EXTRACT: note_on channel=0 note=78 velocity=0 time=0.016891875
EXTRACT: note_on channel=7 note=54 velocity=0 time=0.10135124999999999
EXTRACT: note_on channel=1 note=38 velocity=0 time=0
EXTRACT: note_on channel=0 note=81 velocity=111 time=0.00675675
EXTRACT: note_on channel=1 note=38 velocity=121 time=0
EXTRACT: note_on channel=7 note=57 velocity=101 time=0
EXTRACT: note_on channel=9 note=26 velocity=50 time=0
EXTRACT: note_on channel=9 note=32 velocity=50 time=0
EXTRACT: note_on channel=9 note=36 velocity=120 time=0
EXTRACT: note_on channel=9 note=42 velocity=70 time=0
EXTRACT: note_on channel=10 note=52 velocity=120 time=0
EXTRACT: note_on channel=10 note=57 velocity=120 time=0.03378375
EXTRACT: note_on channel=10 note=52 velocity=0 time=0.010135125
EXTRACT: note_on channel=9 note=42 velocity=0 time=0
EXTRACT: note_on channel=9 note=32 velocity=0 time=0
EXTRACT: note_on channel=9 note=26 velocity=0 time=0
EXTRACT: note_on channel=9 note=36 velocity=0 time=0
EXTRACT: note_on channel=10 note=57 velocity=0 time=0.03378375
EXTRACT: note_on channel=0 note=81 velocity=0 time=0.016891875
EXTRACT: note_on channel=7 note=57 velocity=0 time=0.10135124999999999
EXTRACT: note_on channel=0 note=78 velocity=112 time=0.00675675
EXTRACT: note_on channel=3 note=62 velocity=109 time=0
EXTRACT: note_on channel=7 note=54 velocity=98 time=0
EXTRACT: note_on channel=9 note=26 velocity=30 time=0
EXTRACT: note_on channel=9 note=32 velocity=30 time=0
EXTRACT: note_on channel=9 note=32 velocity=0 time=0.043918874999999996
EXTRACT: note_on channel=9 note=26 velocity=0 time=0
EXTRACT: note_on channel=3 note=62 velocity=0 time=0.043918874999999996
EXTRACT: note_on channel=0 note=78 velocity=0 time=0.00675675
EXTRACT: note_on channel=7 note=54 velocity=0 time=0.10135124999999999
EXTRACT: note_on channel=0 note=81 velocity=113 time=0.00675675
EXTRACT: note_on channel=3 note=62 velocity=112 time=0
EXTRACT: note_on channel=7 note=57 velocity=101 time=0
EXTRACT: note_on channel=9 note=26 velocity=50 time=0
EXTRACT: note_on channel=9 note=32 velocity=50 time=0
EXTRACT: note_on channel=9 note=38 velocity=120 time=0
EXTRACT: note_on channel=9 note=42 velocity=80 time=0
EXTRACT: note_on channel=9 note=42 velocity=0 time=0.043918874999999996
EXTRACT: note_on channel=9 note=38 velocity=0 time=0
EXTRACT: note_on channel=9 note=26 velocity=0 time=0
EXTRACT: note_on channel=9 note=32 velocity=0 time=0
EXTRACT: note_on channel=0 note=81 velocity=0 time=0.050675624999999995
EXTRACT: note_on channel=3 note=62 velocity=0 time=0.030405375
EXTRACT: note_on channel=7 note=57 velocity=0 time=0.07094587499999999
EXTRACT: note_on channel=0 note=78 velocity=115 time=0.00675675
EXTRACT: note_on channel=3 note=62 velocity=106 time=0
EXTRACT: note_on channel=7 note=54 velocity=93 time=0
EXTRACT: note_on channel=9 note=26 velocity=30 time=0
EXTRACT: note_on channel=9 note=32 velocity=30 time=0
EXTRACT: note_on channel=9 note=32 velocity=0 time=0.043918874999999996
EXTRACT: note_on channel=9 note=26 velocity=0 time=0
EXTRACT: note_on channel=0 note=78 velocity=0 time=0.050675624999999995
EXTRACT: note_on channel=3 note=62 velocity=0 time=0.003378375
EXTRACT: note_on channel=7 note=54 velocity=0 time=0.097972875
EXTRACT: note_on channel=0 note=74 velocity=115 time=0.00675675
EXTRACT: note_on channel=3 note=62 velocity=104 time=0
EXTRACT: note_on channel=7 note=50 velocity=90 time=0
EXTRACT: note_on channel=9 note=26 velocity=50 time=0
EXTRACT: note_on channel=9 note=32 velocity=50 time=0
EXTRACT: note_on channel=9 note=42 velocity=70 time=0
EXTRACT: note_on channel=9 note=42 velocity=0 time=0.043918874999999996
EXTRACT: note_on channel=9 note=32 velocity=0 time=0
EXTRACT: note_on channel=9 note=26 velocity=0 time=0
EXTRACT: note_on channel=3 note=62 velocity=0 time=0.050675624999999995
EXTRACT: note_on channel=0 note=74 velocity=0 time=0
EXTRACT: note_on channel=7 note=50 velocity=0 time=0.10135124999999999
EXTRACT: note_on channel=0 note=78 velocity=115 time=0.00675675
EXTRACT: note_on channel=3 note=62 velocity=106 time=0
EXTRACT: note_on channel=7 note=54 velocity=90 time=0
EXTRACT: note_on channel=9 note=26 velocity=30 time=0
EXTRACT: note_on channel=9 note=32 velocity=30 time=0
EXTRACT: note_on channel=9 note=32 velocity=0 time=0.043918874999999996
EXTRACT: note_on channel=9 note=26 velocity=0 time=0
EXTRACT: note_on channel=0 note=78 velocity=0 time=0.050675624999999995
EXTRACT: note_on channel=3 note=62 velocity=0 time=0.04729725
EXTRACT: note_on channel=5 note=62 velocity=0 time=0.054054
EXTRACT: note_on channel=1 note=38 velocity=0 time=0
EXTRACT: note_on channel=6 note=50 velocity=0 time=0
EXTRACT: note_on channel=11 note=86 velocity=0 time=0
EXTRACT: note_on channel=5 note=54 velocity=0 time=0
EXTRACT: note_on channel=2 note=66 velocity=0 time=0
EXTRACT: note_on channel=7 note=54 velocity=0 time=0
EXTRACT: note_on channel=2 note=57 velocity=0 time=0
EXTRACT: note_on channel=5 note=50 velocity=0 time=0
EXTRACT: note_on channel=2 note=62 velocity=0 time=0
EXTRACT: note_on channel=6 note=45 velocity=0 time=0
EXTRACT: note_on channel=11 note=90 velocity=0 time=0
EXTRACT: note_on channel=11 note=81 velocity=0 time=0
EXTRACT: note_on channel=5 note=57 velocity=0 time=0
EXTRACT: note_on channel=0 note=73 velocity=112 time=0.00675675
EXTRACT: note_on channel=1 note=37 velocity=120 time=0
EXTRACT: note_on channel=2 note=57 velocity=100 time=0
EXTRACT: note_on channel=2 note=61 velocity=100 time=0
EXTRACT: note_on channel=2 note=66 velocity=100 time=0
EXTRACT: note_on channel=3 note=66 velocity=118 time=0
EXTRACT: note_on channel=5 note=49 velocity=99 time=0
EXTRACT: note_on channel=5 note=54 velocity=99 time=0
EXTRACT: note_on channel=5 note=57 velocity=99 time=0
EXTRACT: note_on channel=5 note=61 velocity=99 time=0
EXTRACT: note_on channel=6 note=42 velocity=101 time=0
EXTRACT: note_on channel=6 note=49 velocity=101 time=0
EXTRACT: note_on channel=7 note=49 velocity=104 time=0
EXTRACT: note_on channel=8 note=37 velocity=79 time=0
EXTRACT: note_on channel=9 note=26 velocity=50 time=0
EXTRACT: note_on channel=9 note=32 velocity=50 time=0
EXTRACT: note_on channel=9 note=36 velocity=120 time=0
EXTRACT: note_on channel=9 note=42 velocity=80 time=0
EXTRACT: note_on channel=10 note=52 velocity=120 time=0
EXTRACT: note_on channel=11 note=81 velocity=100 time=0
EXTRACT: note_on channel=11 note=85 velocity=100 time=0
EXTRACT: note_on channel=11 note=90 velocity=100 time=0
EXTRACT: note_on channel=10 note=57 velocity=120 time=0.03378375
EXTRACT: note_on channel=10 note=52 velocity=0 time=0.010135125
EXTRACT: note_on channel=9 note=42 velocity=0 time=0
EXTRACT: note_on channel=9 note=36 velocity=0 time=0
EXTRACT: note_on channel=9 note=32 velocity=0 time=0
EXTRACT: note_on channel=9 note=26 velocity=0 time=0
EXTRACT: note_on channel=10 note=57 velocity=0 time=0.03378375
EXTRACT: note_on channel=0 note=73 velocity=0 time=0.016891875
EXTRACT: note_on channel=7 note=49 velocity=0 time=0.10135124999999999
EXTRACT: note_on channel=0 note=78 velocity=115 time=0.00675675
EXTRACT: note_on channel=7 note=54 velocity=93 time=0
EXTRACT: note_on channel=9 note=26 velocity=30 time=0
EXTRACT: note_on channel=9 note=32 velocity=30 time=0
EXTRACT: note_on channel=9 note=32 velocity=0 time=0.043918874999999996
EXTRACT: note_on channel=9 note=26 velocity=0 time=0
EXTRACT: note_on channel=0 note=78 velocity=0 time=0.050675624999999995
EXTRACT: note_on channel=3 note=66 velocity=0 time=0.0135135
EXTRACT: note_on channel=7 note=54 velocity=0 time=0.08783774999999999
EXTRACT: note_on channel=8 note=37 velocity=0 time=0
EXTRACT: note_on channel=0 note=81 velocity=118 time=0.00675675
EXTRACT: note_on channel=3 note=69 velocity=118 time=0
EXTRACT: note_on channel=7 note=57 velocity=89 time=0
EXTRACT: note_on channel=9 note=26 velocity=50 time=0
EXTRACT: note_on channel=9 note=32 velocity=50 time=0
EXTRACT: note_on channel=9 note=42 velocity=70 time=0
EXTRACT: note_on channel=9 note=42 velocity=0 time=0.043918874999999996
EXTRACT: note_on channel=9 note=32 velocity=0 time=0
EXTRACT: note_on channel=9 note=26 velocity=0 time=0
EXTRACT: note_on channel=0 note=81 velocity=0 time=0.050675624999999995
EXTRACT: note_on channel=7 note=57 velocity=0 time=0.10135124999999999
EXTRACT: note_on channel=3 note=69 velocity=0 time=0.003378375
EXTRACT: note_on channel=0 note=78 velocity=118 time=0.003378375
EXTRACT: note_on channel=7 note=54 velocity=77 time=0
EXTRACT: note_on channel=9 note=26 velocity=30 time=0
EXTRACT: note_on channel=9 note=32 velocity=30 time=0
EXTRACT: note_on channel=9 note=32 velocity=0 time=0.043918874999999996
EXTRACT: note_on channel=9 note=26 velocity=0 time=0
EXTRACT: note_on channel=0 note=78 velocity=0 time=0.050675624999999995
EXTRACT: note_on channel=7 note=54 velocity=0 time=0.10135124999999999
EXTRACT: note_on channel=0 note=81 velocity=113 time=0.00675675
EXTRACT: note_on channel=3 note=66 velocity=115 time=0
EXTRACT: note_on channel=7 note=57 velocity=98 time=0
EXTRACT: note_on channel=9 note=26 velocity=50 time=0
EXTRACT: note_on channel=9 note=32 velocity=50 time=0
EXTRACT: note_on channel=9 note=38 velocity=120 time=0
EXTRACT: note_on channel=9 note=42 velocity=80 time=0
EXTRACT: note_on channel=9 note=42 velocity=0 time=0.043918874999999996
EXTRACT: note_on channel=9 note=38 velocity=0 time=0
EXTRACT: note_on channel=9 note=26 velocity=0 time=0
EXTRACT: note_on channel=9 note=32 velocity=0 time=0
EXTRACT: note_on channel=0 note=81 velocity=0 time=0.050675624999999995
EXTRACT: note_on channel=7 note=57 velocity=0 time=0.10135124999999999
EXTRACT: note_on channel=0 note=78 velocity=113 time=0.00675675
EXTRACT: note_on channel=7 note=54 velocity=98 time=0
EXTRACT: note_on channel=9 note=26 velocity=30 time=0
EXTRACT: note_on channel=9 note=32 velocity=30 time=0
EXTRACT: note_on channel=9 note=32 velocity=0 time=0.043918874999999996
EXTRACT: note_on channel=9 note=26 velocity=0 time=0
EXTRACT: note_on channel=0 note=78 velocity=0 time=0.050675624999999995
EXTRACT: note_on channel=7 note=54 velocity=0 time=0.10135124999999999
EXTRACT: note_on channel=0 note=73 velocity=109 time=0.00675675
EXTRACT: note_on channel=7 note=49 velocity=101 time=0
EXTRACT: note_on channel=9 note=26 velocity=50 time=0
EXTRACT: note_on channel=9 note=32 velocity=50 time=0
EXTRACT: note_on channel=9 note=42 velocity=70 time=0
EXTRACT: note_on channel=9 note=42 velocity=0 time=0.043918874999999996
EXTRACT: note_on channel=9 note=32 velocity=0 time=0
EXTRACT: note_on channel=9 note=26 velocity=0 time=0
EXTRACT: note_on channel=0 note=73 velocity=0 time=0.050675624999999995
EXTRACT: note_on channel=7 note=49 velocity=0 time=0.10135124999999999
EXTRACT: note_on channel=1 note=37 velocity=0 time=0
EXTRACT: note_on channel=0 note=78 velocity=110 time=0.00675675
EXTRACT: note_on channel=1 note=37 velocity=120 time=0
EXTRACT: note_on channel=7 note=54 velocity=95 time=0
EXTRACT: note_on channel=9 note=26 velocity=30 time=0
EXTRACT: note_on channel=9 note=32 velocity=30 time=0
EXTRACT: note_on channel=9 note=36 velocity=120 time=0
EXTRACT: note_on channel=10 note=52 velocity=120 time=0
EXTRACT: note_on channel=10 note=57 velocity=120 time=0.03378375
EXTRACT: note_on channel=10 note=52 velocity=0 time=0.010135125
EXTRACT: note_on channel=9 note=36 velocity=0 time=0
EXTRACT: note_on channel=9 note=26 velocity=0 time=0
EXTRACT: note_on channel=9 note=32 velocity=0 time=0
EXTRACT: note_on channel=10 note=57 velocity=0 time=0.03378375
EXTRACT: note_on channel=0 note=78 velocity=0 time=0.016891875
EXTRACT: note_on channel=7 note=54 velocity=0 time=0.10135124999999999
EXTRACT: note_on channel=3 note=66 velocity=0 time=0
EXTRACT: note_on channel=0 note=73 velocity=113 time=0.00675675
EXTRACT: note_on channel=7 note=49 velocity=104 time=0
EXTRACT: note_on channel=9 note=26 velocity=50 time=0
EXTRACT: note_on channel=9 note=32 velocity=50 time=0
EXTRACT: note_on channel=9 note=42 velocity=80 time=0
EXTRACT: note_on channel=9 note=42 velocity=0 time=0.043918874999999996
EXTRACT: note_on channel=9 note=32 velocity=0 time=0
EXTRACT: note_on channel=9 note=26 velocity=0 time=0
EXTRACT: note_on channel=0 note=73 velocity=0 time=0.050675624999999995
EXTRACT: note_on channel=7 note=49 velocity=0 time=0.10135124999999999
EXTRACT: note_on channel=1 note=37 velocity=0 time=0
EXTRACT: note_on channel=0 note=78 velocity=114 time=0.00675675
EXTRACT: note_on channel=1 note=37 velocity=120 time=0
EXTRACT: note_on channel=3 note=62 velocity=121 time=0
EXTRACT: note_on channel=7 note=54 velocity=86 time=0
EXTRACT: note_on channel=9 note=26 velocity=30 time=0
EXTRACT: note_on channel=9 note=32 velocity=30 time=0
EXTRACT: note_on channel=9 note=36 velocity=120 time=0
EXTRACT: note_on channel=10 note=52 velocity=120 time=0
EXTRACT: note_on channel=10 note=57 velocity=120 time=0.03378375
EXTRACT: note_on channel=10 note=52 velocity=0 time=0.010135125
EXTRACT: note_on channel=9 note=36 velocity=0 time=0
EXTRACT: note_on channel=9 note=26 velocity=0 time=0
EXTRACT: note_on channel=9 note=32 velocity=0 time=0
EXTRACT: note_on channel=10 note=57 velocity=0 time=0.03378375
EXTRACT: note_on channel=3 note=62 velocity=0 time=0.00675675
EXTRACT: note_on channel=0 note=78 velocity=0 time=0.010135125
EXTRACT: note_on channel=7 note=54 velocity=0 time=0.10135124999999999
EXTRACT: note_on channel=1 note=37 velocity=0 time=0
EXTRACT: note_on channel=0 note=81 velocity=111 time=0.00675675
EXTRACT: note_on channel=1 note=37 velocity=120 time=0
EXTRACT: note_on channel=3 note=62 velocity=106 time=0
EXTRACT: note_on channel=7 note=57 velocity=101 time=0
EXTRACT: note_on channel=9 note=26 velocity=50 time=0
EXTRACT: note_on channel=9 note=32 velocity=50 time=0
EXTRACT: note_on channel=9 note=36 velocity=120 time=0
EXTRACT: note_on channel=9 note=42 velocity=70 time=0
EXTRACT: note_on channel=10 note=52 velocity=120 time=0
EXTRACT: note_on channel=10 note=57 velocity=120 time=0.03378375
EXTRACT: note_on channel=10 note=52 velocity=0 time=0.010135125
EXTRACT: note_on channel=9 note=42 velocity=0 time=0
EXTRACT: note_on channel=9 note=26 velocity=0 time=0
EXTRACT: note_on channel=9 note=36 velocity=0 time=0
EXTRACT: note_on channel=9 note=32 velocity=0 time=0
EXTRACT: note_on channel=10 note=57 velocity=0 time=0.03378375
EXTRACT: note_on channel=0 note=81 velocity=0 time=0.016891875
EXTRACT: note_on channel=3 note=62 velocity=0 time=0.027027
EXTRACT: note_on channel=7 note=57 velocity=0 time=0.07432425
EXTRACT: note_on channel=0 note=78 velocity=112 time=0.00675675
EXTRACT: note_on channel=3 note=62 velocity=101 time=0
EXTRACT: note_on channel=7 note=54 velocity=98 time=0
EXTRACT: note_on channel=9 note=26 velocity=30 time=0
EXTRACT: note_on channel=9 note=32 velocity=30 time=0
EXTRACT: note_on channel=9 note=32 velocity=0 time=0.043918874999999996
EXTRACT: note_on channel=9 note=26 velocity=0 time=0
EXTRACT: note_on channel=3 note=62 velocity=0 time=0.050675624999999995
EXTRACT: note_on channel=0 note=78 velocity=0 time=0
EXTRACT: note_on channel=7 note=54 velocity=0 time=0.10135124999999999
EXTRACT: note_on channel=0 note=81 velocity=113 time=0.00675675
EXTRACT: note_on channel=3 note=62 velocity=112 time=0
EXTRACT: note_on channel=7 note=57 velocity=101 time=0
EXTRACT: note_on channel=9 note=26 velocity=50 time=0
EXTRACT: note_on channel=9 note=32 velocity=50 time=0
EXTRACT: note_on channel=9 note=38 velocity=120 time=0
EXTRACT: note_on channel=9 note=42 velocity=80 time=0
EXTRACT: note_on channel=9 note=42 velocity=0 time=0.043918874999999996
EXTRACT: note_on channel=9 note=38 velocity=0 time=0
EXTRACT: note_on channel=9 note=26 velocity=0 time=0
EXTRACT: note_on channel=9 note=32 velocity=0 time=0
EXTRACT: note_on channel=0 note=81 velocity=0 time=0.050675624999999995
EXTRACT: note_on channel=3 note=62 velocity=0 time=0.03378375
EXTRACT: note_on channel=7 note=57 velocity=0 time=0.0675675
EXTRACT: note_on channel=0 note=78 velocity=115 time=0.00675675
EXTRACT: note_on channel=3 note=62 velocity=85 time=0
EXTRACT: note_on channel=7 note=54 velocity=93 time=0
EXTRACT: note_on channel=9 note=26 velocity=30 time=0
EXTRACT: note_on channel=9 note=32 velocity=30 time=0
EXTRACT: note_on channel=9 note=32 velocity=0 time=0.043918874999999996
EXTRACT: note_on channel=9 note=26 velocity=0 time=0
EXTRACT: note_on channel=3 note=62 velocity=0 time=0.050675624999999995
EXTRACT: note_on channel=0 note=78 velocity=0 time=0
EXTRACT: note_on channel=7 note=54 velocity=0 time=0.10135124999999999
EXTRACT: note_on channel=0 note=73 velocity=115 time=0.00675675
EXTRACT: note_on channel=3 note=62 velocity=98 time=0
EXTRACT: note_on channel=7 note=49 velocity=90 time=0
EXTRACT: note_on channel=9 note=26 velocity=50 time=0
EXTRACT: note_on channel=9 note=32 velocity=50 time=0
EXTRACT: note_on channel=9 note=36 velocity=114 time=0
EXTRACT: note_on channel=9 note=42 velocity=70 time=0
EXTRACT: note_on channel=10 note=52 velocity=114 time=0
EXTRACT: note_on channel=10 note=57 velocity=114 time=0.03378375
EXTRACT: note_on channel=10 note=52 velocity=0 time=0.010135125
EXTRACT: note_on channel=9 note=42 velocity=0 time=0
EXTRACT: note_on channel=9 note=26 velocity=0 time=0
EXTRACT: note_on channel=9 note=36 velocity=0 time=0
EXTRACT: note_on channel=9 note=32 velocity=0 time=0
EXTRACT: note_on channel=10 note=57 velocity=0 time=0.03378375
EXTRACT: note_on channel=0 note=73 velocity=0 time=0.016891875
EXTRACT: note_on channel=3 note=62 velocity=0 time=0.010135125
EXTRACT: note_on channel=7 note=49 velocity=0 time=0.091216125
EXTRACT: note_on channel=0 note=78 velocity=115 time=0.00675675
EXTRACT: note_on channel=3 note=62 velocity=104 time=0
EXTRACT: note_on channel=7 note=54 velocity=90 time=0
EXTRACT: note_on channel=9 note=26 velocity=30 time=0
EXTRACT: note_on channel=9 note=32 velocity=30 time=0
EXTRACT: note_on channel=9 note=36 velocity=114 time=0
EXTRACT: note_on channel=10 note=52 velocity=114 time=0
EXTRACT: note_on channel=10 note=57 velocity=114 time=0.03378375
EXTRACT: note_on channel=10 note=52 velocity=0 time=0.010135125
EXTRACT: note_on channel=9 note=36 velocity=0 time=0
EXTRACT: note_on channel=9 note=26 velocity=0 time=0
EXTRACT: note_on channel=9 note=32 velocity=0 time=0
EXTRACT: note_on channel=10 note=57 velocity=0 time=0.03378375
EXTRACT: note_on channel=0 note=78 velocity=0 time=0.016891875
EXTRACT: note_on channel=3 note=62 velocity=0 time=0.037162125
EXTRACT: note_on channel=6 note=49 velocity=0 time=0.064189125
EXTRACT: note_on channel=1 note=37 velocity=0 time=0
EXTRACT: note_on channel=2 note=61 velocity=0 time=0
EXTRACT: note_on channel=2 note=57 velocity=0 time=0
EXTRACT: note_on channel=11 note=90 velocity=0 time=0
EXTRACT: note_on channel=11 note=81 velocity=0 time=0
EXTRACT: note_on channel=2 note=66 velocity=0 time=0
EXTRACT: note_on channel=11 note=85 velocity=0 time=0
EXTRACT: note_on channel=5 note=49 velocity=0 time=0
EXTRACT: note_on channel=5 note=54 velocity=0 time=0
EXTRACT: note_on channel=7 note=54 velocity=0 time=0
EXTRACT: note_on channel=5 note=61 velocity=0 time=0
EXTRACT: note_on channel=5 note=57 velocity=0 time=0
EXTRACT: note_on channel=6 note=42 velocity=0 time=0
EXTRACT: note_on channel=0 note=71 velocity=112 time=0.00675675
EXTRACT: note_on channel=1 note=35 velocity=120 time=0
EXTRACT: note_on channel=2 note=59 velocity=102 time=0
EXTRACT: note_on channel=2 note=62 velocity=102 time=0
EXTRACT: note_on channel=2 note=66 velocity=102 time=0
EXTRACT: note_on channel=3 note=66 velocity=115 time=0
EXTRACT: note_on channel=5 note=47 velocity=99 time=0
EXTRACT: note_on channel=5 note=54 velocity=99 time=0
EXTRACT: note_on channel=5 note=59 velocity=99 time=0
EXTRACT: note_on channel=5 note=62 velocity=99 time=0
EXTRACT: note_on channel=6 note=47 velocity=98 time=0
EXTRACT: note_on channel=6 note=54 velocity=98 time=0
EXTRACT: note_on channel=7 note=47 velocity=104 time=0
EXTRACT: note_on channel=8 note=35 velocity=82 time=0
EXTRACT: note_on channel=9 note=26 velocity=50 time=0
EXTRACT: note_on channel=9 note=32 velocity=50 time=0
EXTRACT: note_on channel=9 note=36 velocity=120 time=0
EXTRACT: note_on channel=9 note=42 velocity=80 time=0
EXTRACT: note_on channel=10 note=52 velocity=120 time=0
EXTRACT: note_on channel=11 note=83 velocity=102 time=0
EXTRACT: note_on channel=11 note=86 velocity=102 time=0
EXTRACT: note_on channel=11 note=90 velocity=102 time=0
EXTRACT: note_on channel=10 note=57 velocity=120 time=0.037162125
EXTRACT: note_on channel=10 note=52 velocity=0 time=0.00675675
EXTRACT: note_on channel=9 note=42 velocity=0 time=0
EXTRACT: note_on channel=9 note=36 velocity=0 time=0
EXTRACT: note_on channel=9 note=32 velocity=0 time=0
EXTRACT: note_on channel=9 note=26 velocity=0 time=0
EXTRACT: note_on channel=10 note=57 velocity=0 time=0.037162125
EXTRACT: note_on channel=0 note=71 velocity=0 time=0.0135135
EXTRACT: note_on channel=7 note=47 velocity=0 time=0.10135124999999999
EXTRACT: note_on channel=0 note=78 velocity=115 time=0.00675675
EXTRACT: note_on channel=7 note=54 velocity=93 time=0
EXTRACT: note_on channel=9 note=26 velocity=30 time=0
EXTRACT: note_on channel=9 note=32 velocity=30 time=0
EXTRACT: note_on channel=9 note=32 velocity=0 time=0.043918874999999996
EXTRACT: note_on channel=9 note=26 velocity=0 time=0
EXTRACT: note_on channel=0 note=78 velocity=0 time=0.050675624999999995
EXTRACT: note_on channel=3 note=66 velocity=0 time=0.027027
EXTRACT: note_on channel=7 note=54 velocity=0 time=0.07432425
EXTRACT: note_on channel=8 note=35 velocity=0 time=0
EXTRACT: note_on channel=0 note=83 velocity=118 time=0.00675675
EXTRACT: note_on channel=3 note=69 velocity=106 time=0
EXTRACT: note_on channel=7 note=59 velocity=89 time=0
EXTRACT: note_on channel=9 note=26 velocity=50 time=0
EXTRACT: note_on channel=9 note=32 velocity=50 time=0
EXTRACT: note_on channel=9 note=42 velocity=70 time=0
EXTRACT: note_on channel=9 note=42 velocity=0 time=0.043918874999999996
EXTRACT: note_on channel=9 note=32 velocity=0 time=0
EXTRACT: note_on channel=9 note=26 velocity=0 time=0
EXTRACT: note_on channel=0 note=83 velocity=0 time=0.050675624999999995
EXTRACT: note_on channel=7 note=59 velocity=0 time=0.10135124999999999
EXTRACT: note_on channel=0 note=78 velocity=118 time=0.00675675
EXTRACT: note_on channel=7 note=54 velocity=77 time=0
EXTRACT: note_on channel=9 note=26 velocity=30 time=0
EXTRACT: note_on channel=9 note=32 velocity=30 time=0
EXTRACT: note_on channel=9 note=32 velocity=0 time=0.043918874999999996
EXTRACT: note_on channel=9 note=26 velocity=0 time=0
EXTRACT: note_on channel=3 note=69 velocity=0 time=0.027027
EXTRACT: note_on channel=0 note=78 velocity=0 time=0.023648625
EXTRACT: note_on channel=7 note=54 velocity=0 time=0.10135124999999999
EXTRACT: note_on channel=0 note=83 velocity=113 time=0.00675675
EXTRACT: note_on channel=3 note=66 velocity=115 time=0
EXTRACT: note_on channel=7 note=59 velocity=98 time=0
EXTRACT: note_on channel=9 note=26 velocity=50 time=0
EXTRACT: note_on channel=9 note=32 velocity=50 time=0
EXTRACT: note_on channel=9 note=38 velocity=120 time=0
EXTRACT: note_on channel=9 note=42 velocity=80 time=0
EXTRACT: note_on channel=9 note=42 velocity=0 time=0.043918874999999996
EXTRACT: note_on channel=9 note=38 velocity=0 time=0
EXTRACT: note_on channel=9 note=26 velocity=0 time=0
EXTRACT: note_on channel=9 note=32 velocity=0 time=0
EXTRACT: note_on channel=0 note=83 velocity=0 time=0.050675624999999995
EXTRACT: note_on channel=7 note=59 velocity=0 time=0.10135124999999999
EXTRACT: note_on channel=0 note=78 velocity=113 time=0.00675675
EXTRACT: note_on channel=7 note=54 velocity=98 time=0
EXTRACT: note_on channel=9 note=26 velocity=30 time=0
EXTRACT: note_on channel=9 note=32 velocity=30 time=0
EXTRACT: note_on channel=9 note=32 velocity=0 time=0.043918874999999996
EXTRACT: note_on channel=9 note=26 velocity=0 time=0
EXTRACT: note_on channel=0 note=78 velocity=0 time=0.050675624999999995
EXTRACT: note_on channel=7 note=54 velocity=0 time=0.10135124999999999
EXTRACT: note_on channel=0 note=71 velocity=109 time=0.00675675
EXTRACT: note_on channel=7 note=47 velocity=101 time=0
EXTRACT: note_on channel=9 note=26 velocity=50 time=0
EXTRACT: note_on channel=9 note=32 velocity=50 time=0
EXTRACT: note_on channel=9 note=42 velocity=70 time=0
EXTRACT: note_on channel=9 note=42 velocity=0 time=0.043918874999999996
EXTRACT: note_on channel=9 note=32 velocity=0 time=0
EXTRACT: note_on channel=9 note=26 velocity=0 time=0
EXTRACT: note_on channel=0 note=71 velocity=0 time=0.050675624999999995
EXTRACT: note_on channel=7 note=47 velocity=0 time=0.10135124999999999
EXTRACT: note_on channel=1 note=35 velocity=0 time=0
EXTRACT: note_on channel=0 note=78 velocity=110 time=0.00675675
EXTRACT: note_on channel=1 note=35 velocity=120 time=0
EXTRACT: note_on channel=7 note=54 velocity=95 time=0
EXTRACT: note_on channel=9 note=26 velocity=30 time=0
EXTRACT: note_on channel=9 note=32 velocity=30 time=0
EXTRACT: note_on channel=9 note=36 velocity=120 time=0
EXTRACT: note_on channel=10 note=52 velocity=120 time=0
EXTRACT: note_on channel=10 note=57 velocity=120 time=0.03378375
EXTRACT: note_on channel=10 note=52 velocity=0 time=0.010135125
EXTRACT: note_on channel=9 note=36 velocity=0 time=0
EXTRACT: note_on channel=9 note=26 velocity=0 time=0
EXTRACT: note_on channel=9 note=32 velocity=0 time=0
EXTRACT: note_on channel=10 note=57 velocity=0 time=0.03378375
EXTRACT: note_on channel=0 note=78 velocity=0 time=0.016891875
EXTRACT: note_on channel=7 note=54 velocity=0 time=0.10135124999999999
EXTRACT: note_on channel=0 note=71 velocity=113 time=0.00675675
EXTRACT: note_on channel=7 note=47 velocity=104 time=0
EXTRACT: note_on channel=9 note=26 velocity=50 time=0
EXTRACT: note_on channel=9 note=32 velocity=50 time=0
EXTRACT: note_on channel=9 note=42 velocity=80 time=0
EXTRACT: note_on channel=3 note=66 velocity=0 time=0.03378375
EXTRACT: note_on channel=9 note=42 velocity=0 time=0.010135125
EXTRACT: note_on channel=9 note=32 velocity=0 time=0
EXTRACT: note_on channel=9 note=26 velocity=0 time=0
EXTRACT: note_on channel=0 note=71 velocity=0 time=0.050675624999999995
EXTRACT: note_on channel=7 note=47 velocity=0 time=0.10135124999999999
EXTRACT: note_on channel=1 note=35 velocity=0 time=0
EXTRACT: note_on channel=0 note=78 velocity=114 time=0.00675675
EXTRACT: note_on channel=1 note=35 velocity=120 time=0
EXTRACT: note_on channel=7 note=54 velocity=86 time=0
EXTRACT: note_on channel=9 note=26 velocity=30 time=0
EXTRACT: note_on channel=9 note=32 velocity=30 time=0
EXTRACT: note_on channel=9 note=36 velocity=120 time=0
EXTRACT: note_on channel=10 note=52 velocity=120 time=0
EXTRACT: note_on channel=10 note=57 velocity=120 time=0.03378375
EXTRACT: note_on channel=10 note=52 velocity=0 time=0.010135125
EXTRACT: note_on channel=9 note=36 velocity=0 time=0
EXTRACT: note_on channel=9 note=32 velocity=0 time=0
EXTRACT: note_on channel=9 note=26 velocity=0 time=0
EXTRACT: note_on channel=10 note=57 velocity=0 time=0.03378375
EXTRACT: note_on channel=0 note=78 velocity=0 time=0.016891875
EXTRACT: note_on channel=7 note=54 velocity=0 time=0.10135124999999999
EXTRACT: note_on channel=1 note=35 velocity=0 time=0
EXTRACT: note_on channel=0 note=83 velocity=111 time=0.00675675
EXTRACT: note_on channel=1 note=35 velocity=120 time=0
EXTRACT: note_on channel=3 note=62 velocity=115 time=0
EXTRACT: note_on channel=7 note=59 velocity=101 time=0
EXTRACT: note_on channel=9 note=26 velocity=50 time=0
EXTRACT: note_on channel=9 note=32 velocity=50 time=0
EXTRACT: note_on channel=9 note=36 velocity=120 time=0
EXTRACT: note_on channel=9 note=42 velocity=70 time=0
EXTRACT: note_on channel=10 note=52 velocity=120 time=0
EXTRACT: note_on channel=10 note=57 velocity=120 time=0.03378375
EXTRACT: note_on channel=10 note=52 velocity=0 time=0.010135125
EXTRACT: note_on channel=9 note=42 velocity=0 time=0
EXTRACT: note_on channel=9 note=26 velocity=0 time=0
EXTRACT: note_on channel=9 note=36 velocity=0 time=0
EXTRACT: note_on channel=9 note=32 velocity=0 time=0
EXTRACT: note_on channel=10 note=57 velocity=0 time=0.03378375
EXTRACT: note_on channel=0 note=83 velocity=0 time=0.016891875
EXTRACT: note_on channel=7 note=59 velocity=0 time=0.10135124999999999
EXTRACT: note_on channel=0 note=78 velocity=112 time=0.00675675
EXTRACT: note_on channel=7 note=54 velocity=98 time=0
EXTRACT: note_on channel=9 note=26 velocity=30 time=0
EXTRACT: note_on channel=9 note=32 velocity=30 time=0
EXTRACT: note_on channel=9 note=32 velocity=0 time=0.043918874999999996
EXTRACT: note_on channel=9 note=26 velocity=0 time=0
EXTRACT: note_on channel=3 note=62 velocity=0 time=0
EXTRACT: note_on channel=0 note=78 velocity=0 time=0.050675624999999995
EXTRACT: note_on channel=7 note=54 velocity=0 time=0.10135124999999999
EXTRACT: note_on channel=0 note=83 velocity=113 time=0.00675675
EXTRACT: note_on channel=3 note=62 velocity=112 time=0
EXTRACT: note_on channel=7 note=59 velocity=101 time=0
EXTRACT: note_on channel=9 note=26 velocity=50 time=0
EXTRACT: note_on channel=9 note=32 velocity=50 time=0
EXTRACT: note_on channel=9 note=38 velocity=120 time=0
EXTRACT: note_on channel=9 note=42 velocity=80 time=0
EXTRACT: note_on channel=9 note=42 velocity=0 time=0.043918874999999996
EXTRACT: note_on channel=9 note=38 velocity=0 time=0
EXTRACT: note_on channel=9 note=26 velocity=0 time=0
EXTRACT: note_on channel=9 note=32 velocity=0 time=0
EXTRACT: note_on channel=0 note=83 velocity=0 time=0.050675624999999995
EXTRACT: note_on channel=3 note=62 velocity=0 time=0.054054
EXTRACT: note_on channel=7 note=59 velocity=0 time=0.04729725
EXTRACT: note_on channel=0 note=78 velocity=115 time=0.00675675
EXTRACT: note_on channel=3 note=62 velocity=104 time=0
EXTRACT: note_on channel=7 note=54 velocity=93 time=0
EXTRACT: note_on channel=9 note=26 velocity=30 time=0
EXTRACT: note_on channel=9 note=32 velocity=30 time=0
EXTRACT: note_on channel=9 note=32 velocity=0 time=0.043918874999999996
EXTRACT: note_on channel=9 note=26 velocity=0 time=0
EXTRACT: note_on channel=0 note=78 velocity=0 time=0.050675624999999995
EXTRACT: note_on channel=3 note=62 velocity=0 time=0.02027025
EXTRACT: note_on channel=7 note=54 velocity=0 time=0.081081
EXTRACT: note_on channel=0 note=71 velocity=115 time=0.00675675
EXTRACT: note_on channel=3 note=62 velocity=112 time=0
EXTRACT: note_on channel=7 note=47 velocity=90 time=0
EXTRACT: note_on channel=9 note=26 velocity=50 time=0
EXTRACT: note_on channel=9 note=32 velocity=50 time=0
EXTRACT: note_on channel=9 note=42 velocity=70 time=0
EXTRACT: note_on channel=9 note=42 velocity=0 time=0.043918874999999996
EXTRACT: note_on channel=9 note=32 velocity=0 time=0
EXTRACT: note_on channel=9 note=26 velocity=0 time=0
EXTRACT: note_on channel=0 note=71 velocity=0 time=0.050675624999999995
EXTRACT: note_on channel=7 note=47 velocity=0 time=0.10135124999999999
EXTRACT: note_on channel=0 note=78 velocity=115 time=0.00675675
EXTRACT: note_on channel=7 note=54 velocity=90 time=0
EXTRACT: note_on channel=9 note=26 velocity=30 time=0
EXTRACT: note_on channel=9 note=32 velocity=30 time=0
EXTRACT: note_on channel=9 note=32 velocity=0 time=0.043918874999999996
EXTRACT: note_on channel=9 note=26 velocity=0 time=0
EXTRACT: note_on channel=3 note=62 velocity=0 time=0.010135125
EXTRACT: note_on channel=0 note=78 velocity=0 time=0.0405405
EXTRACT: note_on channel=6 note=54 velocity=0 time=0.10135124999999999
EXTRACT: note_on channel=5 note=59 velocity=0 time=0
EXTRACT: note_on channel=2 note=62 velocity=0 time=0
EXTRACT: note_on channel=2 note=59 velocity=0 time=0
EXTRACT: note_on channel=11 note=83 velocity=0 time=0
EXTRACT: note_on channel=11 note=90 velocity=0 time=0
EXTRACT: note_on channel=7 note=54 velocity=0 time=0
EXTRACT: note_on channel=5 note=54 velocity=0 time=0
EXTRACT: note_on channel=1 note=35 velocity=0 time=0
EXTRACT: note_on channel=11 note=86 velocity=0 time=0
EXTRACT: note_on channel=5 note=62 velocity=0 time=0
EXTRACT: note_on channel=2 note=66 velocity=0 time=0
EXTRACT: note_on channel=5 note=47 velocity=0 time=0
EXTRACT: note_on channel=6 note=47 velocity=0 time=0
EXTRACT: note_on channel=0 note=67 velocity=112 time=0.00675675
EXTRACT: note_on channel=1 note=31 velocity=118 time=0
EXTRACT: note_on channel=2 note=59 velocity=101 time=0
EXTRACT: note_on channel=2 note=62 velocity=101 time=0
EXTRACT: note_on channel=2 note=67 velocity=101 time=0
EXTRACT: note_on channel=3 note=67 velocity=121 time=0
EXTRACT: note_on channel=4 note=55 velocity=121 time=0
EXTRACT: note_on channel=4 note=59 velocity=121 time=0
EXTRACT: note_on channel=4 note=67 velocity=121 time=0
EXTRACT: note_on channel=5 note=43 velocity=101 time=0
EXTRACT: note_on channel=5 note=55 velocity=101 time=0
EXTRACT: note_on channel=5 note=59 velocity=101 time=0
EXTRACT: note_on channel=5 note=62 velocity=101 time=0
EXTRACT: note_on channel=6 note=43 velocity=99 time=0
EXTRACT: note_on channel=6 note=50 velocity=99 time=0
EXTRACT: note_on channel=7 note=47 velocity=104 time=0
EXTRACT: note_on channel=8 note=31 velocity=81 time=0
EXTRACT: note_on channel=9 note=26 velocity=50 time=0
EXTRACT: note_on channel=9 note=32 velocity=50 time=0
EXTRACT: note_on channel=9 note=36 velocity=120 time=0
EXTRACT: note_on channel=9 note=42 velocity=80 time=0
EXTRACT: note_on channel=10 note=52 velocity=120 time=0
EXTRACT: note_on channel=11 note=83 velocity=101 time=0
EXTRACT: note_on channel=11 note=86 velocity=101 time=0
EXTRACT: note_on channel=11 note=91 velocity=101 time=0
EXTRACT: note_on channel=15 note=55 velocity=1 time=0
EXTRACT: note_on channel=15 note=67 velocity=1 time=0
EXTRACT: note_on channel=15 note=59 velocity=1 time=0
EXTRACT: note_on channel=10 note=57 velocity=120 time=0.03378375
EXTRACT: note_on channel=10 note=52 velocity=0 time=0.010135125
EXTRACT: note_on channel=9 note=42 velocity=0 time=0
EXTRACT: note_on channel=9 note=36 velocity=0 time=0
EXTRACT: note_on channel=9 note=26 velocity=0 time=0
EXTRACT: note_on channel=9 note=32 velocity=0 time=0
EXTRACT: note_on channel=10 note=57 velocity=0 time=0.03378375
EXTRACT: note_on channel=0 note=67 velocity=0 time=0.016891875
EXTRACT: note_on channel=7 note=47 velocity=0 time=0.10135124999999999
EXTRACT: note_on channel=0 note=74 velocity=115 time=0.00675675
EXTRACT: note_on channel=7 note=50 velocity=93 time=0
EXTRACT: note_on channel=9 note=26 velocity=30 time=0
EXTRACT: note_on channel=9 note=32 velocity=30 time=0
EXTRACT: note_on channel=9 note=32 velocity=0 time=0.043918874999999996
EXTRACT: note_on channel=9 note=26 velocity=0 time=0
EXTRACT: note_on channel=0 note=74 velocity=0 time=0.050675624999999995
EXTRACT: note_on channel=7 note=50 velocity=0 time=0.10135124999999999
EXTRACT: note_on channel=8 note=31 velocity=0 time=0
EXTRACT: note_on channel=0 note=79 velocity=118 time=0.00675675
EXTRACT: note_on channel=7 note=59 velocity=89 time=0
EXTRACT: note_on channel=9 note=26 velocity=50 time=0
EXTRACT: note_on channel=9 note=32 velocity=50 time=0
EXTRACT: note_on channel=9 note=42 velocity=70 time=0
EXTRACT: note_on channel=9 note=42 velocity=0 time=0.043918874999999996
EXTRACT: note_on channel=9 note=32 velocity=0 time=0
EXTRACT: note_on channel=9 note=26 velocity=0 time=0
EXTRACT: note_on channel=0 note=79 velocity=0 time=0.050675624999999995
EXTRACT: note_on channel=7 note=59 velocity=0 time=0.10135124999999999
EXTRACT: note_on channel=0 note=74 velocity=118 time=0.00675675
EXTRACT: note_on channel=7 note=50 velocity=77 time=0
EXTRACT: note_on channel=9 note=26 velocity=30 time=0
EXTRACT: note_on channel=9 note=32 velocity=30 time=0
EXTRACT: note_on channel=9 note=32 velocity=0 time=0.043918874999999996
EXTRACT: note_on channel=9 note=26 velocity=0 time=0
EXTRACT: note_on channel=3 note=67 velocity=0 time=0.027027
EXTRACT: note_on channel=4 note=67 velocity=0 time=0
EXTRACT: note_on channel=4 note=59 velocity=0 time=0
EXTRACT: note_on channel=15 note=55 velocity=0 time=0
EXTRACT: note_on channel=4 note=55 velocity=0 time=0
EXTRACT: note_on channel=15 note=59 velocity=0 time=0
EXTRACT: note_on channel=15 note=67 velocity=0 time=0
EXTRACT: note_on channel=0 note=74 velocity=0 time=0.023648625
EXTRACT: note_on channel=7 note=50 velocity=0 time=0.10135124999999999
EXTRACT: note_on channel=0 note=79 velocity=113 time=0.00675675
EXTRACT: note_on channel=3 note=66 velocity=121 time=0
EXTRACT: note_on channel=4 note=54 velocity=121 time=0
EXTRACT: note_on channel=4 note=57 velocity=121 time=0
EXTRACT: note_on channel=4 note=66 velocity=121 time=0
EXTRACT: note_on channel=7 note=59 velocity=98 time=0
EXTRACT: note_on channel=9 note=26 velocity=50 time=0
EXTRACT: note_on channel=9 note=32 velocity=50 time=0
EXTRACT: note_on channel=9 note=38 velocity=120 time=0
EXTRACT: note_on channel=9 note=42 velocity=80 time=0
EXTRACT: note_on channel=15 note=54 velocity=1 time=0
EXTRACT: note_on channel=15 note=57 velocity=1 time=0
EXTRACT: note_on channel=15 note=66 velocity=1 time=0
EXTRACT: note_on channel=9 note=42 velocity=0 time=0.043918874999999996
EXTRACT: note_on channel=9 note=38 velocity=0 time=0
EXTRACT: note_on channel=9 note=32 velocity=0 time=0
EXTRACT: note_on channel=9 note=26 velocity=0 time=0
EXTRACT: note_on channel=0 note=79 velocity=0 time=0.050675624999999995
EXTRACT: note_on channel=7 note=59 velocity=0 time=0.10135124999999999
EXTRACT: note_on channel=0 note=74 velocity=113 time=0.00675675
EXTRACT: note_on channel=7 note=50 velocity=98 time=0
EXTRACT: note_on channel=9 note=26 velocity=30 time=0
EXTRACT: note_on channel=9 note=32 velocity=30 time=0
EXTRACT: note_on channel=9 note=32 velocity=0 time=0.043918874999999996
EXTRACT: note_on channel=9 note=26 velocity=0 time=0
EXTRACT: note_on channel=0 note=74 velocity=0 time=0.050675624999999995
EXTRACT: note_on channel=7 note=50 velocity=0 time=0.10135124999999999
EXTRACT: note_on channel=0 note=67 velocity=109 time=0.00675675
EXTRACT: note_on channel=7 note=47 velocity=78 time=0
EXTRACT: note_on channel=9 note=26 velocity=50 time=0
EXTRACT: note_on channel=9 note=32 velocity=50 time=0
EXTRACT: note_on channel=9 note=42 velocity=70 time=0
EXTRACT: note_on channel=9 note=42 velocity=0 time=0.043918874999999996
EXTRACT: note_on channel=9 note=32 velocity=0 time=0
EXTRACT: note_on channel=9 note=26 velocity=0 time=0
EXTRACT: note_on channel=0 note=67 velocity=0 time=0.050675624999999995
EXTRACT: note_on channel=7 note=47 velocity=0 time=0.10135124999999999
EXTRACT: note_on channel=1 note=31 velocity=0 time=0
EXTRACT: note_on channel=0 note=74 velocity=110 time=0.00675675
EXTRACT: note_on channel=1 note=31 velocity=118 time=0
EXTRACT: note_on channel=7 note=50 velocity=63 time=0
EXTRACT: note_on channel=9 note=26 velocity=30 time=0
EXTRACT: note_on channel=9 note=32 velocity=30 time=0
EXTRACT: note_on channel=9 note=36 velocity=120 time=0
EXTRACT: note_on channel=10 note=52 velocity=120 time=0
EXTRACT: note_on channel=4 note=54 velocity=0 time=0.00675675
EXTRACT: note_on channel=4 note=66 velocity=0 time=0
EXTRACT: note_on channel=4 note=57 velocity=0 time=0
EXTRACT: note_on channel=15 note=54 velocity=0 time=0
EXTRACT: note_on channel=15 note=66 velocity=0 time=0
EXTRACT: note_on channel=15 note=57 velocity=0 time=0
EXTRACT: note_on channel=3 note=66 velocity=0 time=0
EXTRACT: note_on channel=10 note=57 velocity=120 time=0.027027
EXTRACT: note_on channel=9 note=32 velocity=0 time=0.010135125
EXTRACT: note_on channel=10 note=52 velocity=0 time=0
EXTRACT: note_on channel=9 note=26 velocity=0 time=0
EXTRACT: note_on channel=9 note=36 velocity=0 time=0
EXTRACT: note_on channel=10 note=57 velocity=0 time=0.03378375
EXTRACT: note_on channel=0 note=74 velocity=0 time=0.016891875
EXTRACT: note_on channel=7 note=50 velocity=0 time=0.10135124999999999
EXTRACT: note_on channel=0 note=67 velocity=113 time=0.00675675
EXTRACT: note_on channel=3 note=64 velocity=121 time=0
EXTRACT: note_on channel=4 note=52 velocity=121 time=0
EXTRACT: note_on channel=4 note=55 velocity=121 time=0
EXTRACT: note_on channel=4 note=64 velocity=121 time=0
EXTRACT: note_on channel=7 note=47 velocity=76 time=0
EXTRACT: note_on channel=9 note=26 velocity=50 time=0
EXTRACT: note_on channel=9 note=32 velocity=50 time=0
EXTRACT: note_on channel=9 note=42 velocity=80 time=0
EXTRACT: note_on channel=15 note=52 velocity=1 time=0
EXTRACT: note_on channel=15 note=55 velocity=1 time=0
EXTRACT: note_on channel=15 note=64 velocity=1 time=0
EXTRACT: note_on channel=9 note=42 velocity=0 time=0.043918874999999996
EXTRACT: note_on channel=9 note=32 velocity=0 time=0
EXTRACT: note_on channel=9 note=26 velocity=0 time=0
EXTRACT: note_on channel=0 note=67 velocity=0 time=0.050675624999999995
EXTRACT: note_on channel=7 note=47 velocity=0 time=0.10135124999999999
EXTRACT: note_on channel=1 note=31 velocity=0 time=0
EXTRACT: note_on channel=0 note=74 velocity=114 time=0.00675675
EXTRACT: note_on channel=1 note=31 velocity=118 time=0
EXTRACT: note_on channel=7 note=50 velocity=86 time=0
EXTRACT: note_on channel=9 note=26 velocity=30 time=0
EXTRACT: note_on channel=9 note=32 velocity=30 time=0
EXTRACT: note_on channel=9 note=36 velocity=120 time=0
EXTRACT: note_on channel=9 note=38 velocity=120 time=0
EXTRACT: note_on channel=10 note=52 velocity=120 time=0
EXTRACT: note_on channel=10 note=57 velocity=120 time=0.03378375
EXTRACT: note_on channel=10 note=52 velocity=0 time=0.010135125
EXTRACT: note_on channel=9 note=38 velocity=0 time=0
EXTRACT: note_on channel=9 note=36 velocity=0 time=0
EXTRACT: note_on channel=9 note=32 velocity=0 time=0
EXTRACT: note_on channel=9 note=26 velocity=0 time=0
EXTRACT: note_on channel=10 note=57 velocity=0 time=0.03378375
EXTRACT: note_on channel=4 note=64 velocity=0 time=0.0135135
EXTRACT: note_on channel=4 note=52 velocity=0 time=0
EXTRACT: note_on channel=4 note=55 velocity=0 time=0
EXTRACT: note_on channel=15 note=52 velocity=0 time=0
EXTRACT: note_on channel=15 note=64 velocity=0 time=0
EXTRACT: note_on channel=15 note=55 velocity=0 time=0
EXTRACT: note_on channel=3 note=64 velocity=0 time=0
EXTRACT: note_on channel=0 note=74 velocity=0 time=0.003378375
EXTRACT: note_on channel=7 note=50 velocity=0 time=0.10135124999999999
EXTRACT: note_on channel=1 note=31 velocity=0 time=0
EXTRACT: note_on channel=0 note=79 velocity=111 time=0.00675675
EXTRACT: note_on channel=1 note=31 velocity=118 time=0
EXTRACT: note_on channel=3 note=62 velocity=118 time=0
EXTRACT: note_on channel=4 note=50 velocity=118 time=0
EXTRACT: note_on channel=4 note=54 velocity=118 time=0
EXTRACT: note_on channel=4 note=62 velocity=118 time=0
EXTRACT: note_on channel=7 note=55 velocity=88 time=0
EXTRACT: note_on channel=9 note=26 velocity=50 time=0
EXTRACT: note_on channel=9 note=32 velocity=50 time=0
EXTRACT: note_on channel=9 note=36 velocity=120 time=0
EXTRACT: note_on channel=9 note=42 velocity=70 time=0
EXTRACT: note_on channel=10 note=52 velocity=120 time=0
EXTRACT: note_on channel=13 note=62 velocity=118 time=0
EXTRACT: note_on channel=15 note=50 velocity=1 time=0
EXTRACT: note_on channel=15 note=54 velocity=1 time=0
EXTRACT: note_on channel=15 note=62 velocity=1 time=0
EXTRACT: note_on channel=10 note=57 velocity=120 time=0.03378375
EXTRACT: note_on channel=10 note=52 velocity=0 time=0.010135125
EXTRACT: note_on channel=9 note=36 velocity=0 time=0
EXTRACT: note_on channel=9 note=32 velocity=0 time=0
EXTRACT: note_on channel=9 note=26 velocity=0 time=0
EXTRACT: note_on channel=9 note=42 velocity=0 time=0
EXTRACT: note_on channel=10 note=57 velocity=0 time=0.03378375
EXTRACT: note_on channel=0 note=79 velocity=0 time=0.016891875
EXTRACT: note_on channel=7 note=55 velocity=0 time=0.10135124999999999
EXTRACT: note_on channel=0 note=74 velocity=112 time=0.00675675
EXTRACT: note_on channel=7 note=50 velocity=88 time=0
EXTRACT: note_on channel=9 note=26 velocity=30 time=0
EXTRACT: note_on channel=9 note=32 velocity=30 time=0
EXTRACT: note_on channel=9 note=32 velocity=0 time=0.043918874999999996
EXTRACT: note_on channel=9 note=26 velocity=0 time=0
EXTRACT: note_on channel=4 note=54 velocity=0 time=0.010135125
EXTRACT: note_on channel=4 note=50 velocity=0 time=0
EXTRACT: note_on channel=3 note=62 velocity=0 time=0
EXTRACT: note_on channel=15 note=50 velocity=0 time=0
EXTRACT: note_on channel=4 note=62 velocity=0 time=0
EXTRACT: note_on channel=15 note=54 velocity=0 time=0
EXTRACT: note_on channel=15 note=62 velocity=0 time=0
EXTRACT: note_on channel=0 note=74 velocity=0 time=0.0405405
EXTRACT: note_on channel=7 note=50 velocity=0 time=0.10135124999999999
EXTRACT: note_on channel=0 note=79 velocity=113 time=0.00675675
EXTRACT: note_on channel=3 note=62 velocity=121 time=0
EXTRACT: note_on channel=4 note=50 velocity=121 time=0
EXTRACT: note_on channel=4 note=54 velocity=121 time=0
EXTRACT: note_on channel=4 note=62 velocity=121 time=0
EXTRACT: note_on channel=7 note=55 velocity=81 time=0
EXTRACT: note_on channel=9 note=26 velocity=50 time=0
EXTRACT: note_on channel=9 note=32 velocity=50 time=0
EXTRACT: note_on channel=9 note=38 velocity=120 time=0
EXTRACT: note_on channel=9 note=42 velocity=80 time=0
EXTRACT: note_on channel=15 note=62 velocity=1 time=0
EXTRACT: note_on channel=15 note=54 velocity=1 time=0
EXTRACT: note_on channel=15 note=50 velocity=1 time=0
EXTRACT: note_on channel=9 note=42 velocity=0 time=0.043918874999999996
EXTRACT: note_on channel=9 note=32 velocity=0 time=0
EXTRACT: note_on channel=9 note=26 velocity=0 time=0
EXTRACT: note_on channel=9 note=38 velocity=0 time=0
EXTRACT: note_on channel=0 note=79 velocity=0 time=0.050675624999999995
EXTRACT: note_on channel=7 note=55 velocity=0 time=0.10135124999999999
EXTRACT: note_on channel=0 note=74 velocity=115 time=0.00675675
EXTRACT: note_on channel=7 note=50 velocity=73 time=0
EXTRACT: note_on channel=9 note=26 velocity=30 time=0
EXTRACT: note_on channel=9 note=32 velocity=30 time=0
EXTRACT: note_on channel=9 note=32 velocity=0 time=0.043918874999999996
EXTRACT: note_on channel=9 note=26 velocity=0 time=0
EXTRACT: note_on channel=0 note=74 velocity=0 time=0.050675624999999995
EXTRACT: note_on channel=4 note=54 velocity=0 time=0.054054
EXTRACT: note_on channel=15 note=62 velocity=0 time=0
EXTRACT: note_on channel=3 note=62 velocity=0 time=0
EXTRACT: note_on channel=4 note=50 velocity=0 time=0
EXTRACT: note_on channel=4 note=62 velocity=0 time=0
EXTRACT: note_on channel=15 note=54 velocity=0 time=0
EXTRACT: note_on channel=15 note=50 velocity=0 time=0
EXTRACT: note_on channel=7 note=50 velocity=0 time=0.04729725
EXTRACT: note_on channel=0 note=67 velocity=115 time=0.00675675
EXTRACT: note_on channel=3 note=59 velocity=118 time=0
EXTRACT: note_on channel=4 note=47 velocity=118 time=0
EXTRACT: note_on channel=4 note=52 velocity=118 time=0
EXTRACT: note_on channel=4 note=59 velocity=118 time=0
EXTRACT: note_on channel=7 note=55 velocity=73 time=0
EXTRACT: note_on channel=9 note=26 velocity=50 time=0
EXTRACT: note_on channel=9 note=32 velocity=50 time=0
EXTRACT: note_on channel=9 note=36 velocity=114 time=0
EXTRACT: note_on channel=9 note=42 velocity=70 time=0
EXTRACT: note_on channel=10 note=52 velocity=114 time=0
EXTRACT: note_on channel=15 note=52 velocity=1 time=0
EXTRACT: note_on channel=15 note=59 velocity=1 time=0
EXTRACT: note_on channel=15 note=47 velocity=1 time=0
EXTRACT: note_on channel=10 note=57 velocity=114 time=0.03378375
EXTRACT: note_on channel=10 note=52 velocity=0 time=0.010135125
EXTRACT: note_on channel=9 note=32 velocity=0 time=0
EXTRACT: note_on channel=9 note=26 velocity=0 time=0
EXTRACT: note_on channel=9 note=42 velocity=0 time=0
EXTRACT: note_on channel=9 note=36 velocity=0 time=0
EXTRACT: note_on channel=10 note=57 velocity=0 time=0.03378375
EXTRACT: note_on channel=0 note=67 velocity=0 time=0.016891875
EXTRACT: note_on channel=7 note=55 velocity=0 time=0.10135124999999999
EXTRACT: note_on channel=0 note=74 velocity=115 time=0.00675675
EXTRACT: note_on channel=7 note=50 velocity=71 time=0
EXTRACT: note_on channel=9 note=26 velocity=30 time=0
EXTRACT: note_on channel=9 note=32 velocity=30 time=0
EXTRACT: note_on channel=9 note=36 velocity=114 time=0
EXTRACT: note_on channel=10 note=52 velocity=114 time=0
EXTRACT: note_on channel=10 note=57 velocity=114 time=0.03378375
EXTRACT: note_on channel=10 note=52 velocity=0 time=0.010135125
EXTRACT: note_on channel=9 note=36 velocity=0 time=0
EXTRACT: note_on channel=9 note=32 velocity=0 time=0
EXTRACT: note_on channel=9 note=26 velocity=0 time=0
EXTRACT: note_on channel=10 note=57 velocity=0 time=0.03378375
EXTRACT: note_on channel=0 note=74 velocity=0 time=0.016891875
EXTRACT: note_on channel=11 note=91 velocity=0 time=0.10135124999999999
EXTRACT: note_on channel=2 note=67 velocity=0 time=0
EXTRACT: note_on channel=6 note=50 velocity=0 time=0
EXTRACT: note_on channel=2 note=59 velocity=0 time=0
EXTRACT: note_on channel=3 note=59 velocity=0 time=0
EXTRACT: note_on channel=11 note=86 velocity=0 time=0
EXTRACT: note_on channel=5 note=62 velocity=0 time=0
EXTRACT: note_on channel=5 note=43 velocity=0 time=0
EXTRACT: note_on channel=5 note=55 velocity=0 time=0
EXTRACT: note_on channel=6 note=43 velocity=0 time=0
EXTRACT: note_on channel=15 note=47 velocity=0 time=0
EXTRACT: note_on channel=11 note=83 velocity=0 time=0
EXTRACT: note_on channel=13 note=62 velocity=0 time=0
EXTRACT: note_on channel=4 note=59 velocity=0 time=0
EXTRACT: note_on channel=4 note=47 velocity=0 time=0
EXTRACT: note_on channel=2 note=62 velocity=0 time=0
EXTRACT: note_on channel=15 note=59 velocity=0 time=0
EXTRACT: note_on channel=15 note=52 velocity=0 time=0
EXTRACT: note_on channel=5 note=59 velocity=0 time=0
EXTRACT: note_on channel=4 note=52 velocity=0 time=0
EXTRACT: note_on channel=1 note=31 velocity=0 time=0
EXTRACT: note_on channel=7 note=50 velocity=0 time=0
EXTRACT: note_on channel=0 note=74 velocity=112 time=0.00675675
EXTRACT: note_on channel=1 note=38 velocity=121 time=0
EXTRACT: note_on channel=2 note=57 velocity=102 time=0
EXTRACT: note_on channel=2 note=62 velocity=102 time=0
EXTRACT: note_on channel=2 note=66 velocity=102 time=0
EXTRACT: note_on channel=3 note=57 velocity=118 time=0
EXTRACT: note_on channel=4 note=45 velocity=118 time=0
EXTRACT: note_on channel=4 note=50 velocity=118 time=0
EXTRACT: note_on channel=4 note=57 velocity=118 time=0
EXTRACT: note_on channel=5 note=50 velocity=100 time=0
EXTRACT: note_on channel=5 note=54 velocity=100 time=0
EXTRACT: note_on channel=5 note=57 velocity=100 time=0
EXTRACT: note_on channel=5 note=62 velocity=100 time=0
EXTRACT: note_on channel=6 note=45 velocity=99 time=0
EXTRACT: note_on channel=6 note=50 velocity=99 time=0
EXTRACT: note_on channel=7 note=50 velocity=104 time=0
EXTRACT: note_on channel=8 note=38 velocity=79 time=0
EXTRACT: note_on channel=9 note=26 velocity=50 time=0
EXTRACT: note_on channel=9 note=32 velocity=50 time=0
EXTRACT: note_on channel=9 note=36 velocity=120 time=0
EXTRACT: note_on channel=9 note=42 velocity=80 time=0
EXTRACT: note_on channel=9 note=49 velocity=110 time=0
EXTRACT: note_on channel=10 note=52 velocity=120 time=0
EXTRACT: note_on channel=11 note=81 velocity=102 time=0
EXTRACT: note_on channel=11 note=86 velocity=102 time=0
EXTRACT: note_on channel=11 note=90 velocity=102 time=0
EXTRACT: note_on channel=15 note=45 velocity=1 time=0
EXTRACT: note_on channel=15 note=50 velocity=1 time=0
EXTRACT: note_on channel=15 note=57 velocity=1 time=0
EXTRACT: note_on channel=10 note=57 velocity=120 time=0.037162125
EXTRACT: note_on channel=10 note=52 velocity=0 time=0.00675675
EXTRACT: note_on channel=9 note=49 velocity=0 time=0
EXTRACT: note_on channel=9 note=42 velocity=0 time=0
EXTRACT: note_on channel=9 note=26 velocity=0 time=0
EXTRACT: note_on channel=9 note=36 velocity=0 time=0
EXTRACT: note_on channel=9 note=32 velocity=0 time=0
EXTRACT: note_on channel=10 note=57 velocity=0 time=0.037162125
EXTRACT: note_on channel=0 note=74 velocity=0 time=0.0135135
EXTRACT: note_on channel=7 note=50 velocity=0 time=0.10135124999999999
EXTRACT: note_on channel=0 note=78 velocity=115 time=0.00675675
EXTRACT: note_on channel=7 note=54 velocity=93 time=0
EXTRACT: note_on channel=9 note=26 velocity=30 time=0
EXTRACT: note_on channel=9 note=32 velocity=30 time=0
EXTRACT: note_on channel=9 note=32 velocity=0 time=0.043918874999999996
EXTRACT: note_on channel=9 note=26 velocity=0 time=0
EXTRACT: note_on channel=0 note=78 velocity=0 time=0.050675624999999995
EXTRACT: note_on channel=3 note=57 velocity=0 time=0.10135124999999999
EXTRACT: note_on channel=7 note=54 velocity=0 time=0
EXTRACT: note_on channel=8 note=38 velocity=0 time=0
EXTRACT: note_on channel=4 note=57 velocity=0 time=0
EXTRACT: note_on channel=4 note=50 velocity=0 time=0
EXTRACT: note_on channel=4 note=45 velocity=0 time=0
EXTRACT: note_on channel=15 note=57 velocity=0 time=0
EXTRACT: note_on channel=15 note=45 velocity=0 time=0
EXTRACT: note_on channel=15 note=50 velocity=0 time=0
EXTRACT: note_on channel=0 note=81 velocity=118 time=0.00675675
EXTRACT: note_on channel=7 note=57 velocity=89 time=0
EXTRACT: note_on channel=9 note=26 velocity=50 time=0
EXTRACT: note_on channel=9 note=32 velocity=50 time=0
EXTRACT: note_on channel=9 note=42 velocity=70 time=0
EXTRACT: note_on channel=9 note=42 velocity=0 time=0.043918874999999996
EXTRACT: note_on channel=9 note=32 velocity=0 time=0
EXTRACT: note_on channel=9 note=26 velocity=0 time=0
EXTRACT: note_on channel=0 note=81 velocity=0 time=0.050675624999999995
EXTRACT: note_on channel=7 note=57 velocity=0 time=0.10135124999999999
EXTRACT: note_on channel=0 note=78 velocity=118 time=0.00675675
EXTRACT: note_on channel=7 note=54 velocity=77 time=0
EXTRACT: note_on channel=9 note=26 velocity=30 time=0
EXTRACT: note_on channel=9 note=32 velocity=30 time=0
EXTRACT: note_on channel=9 note=32 velocity=0 time=0.043918874999999996
EXTRACT: note_on channel=9 note=26 velocity=0 time=0
EXTRACT: note_on channel=0 note=78 velocity=0 time=0.050675624999999995
EXTRACT: note_on channel=7 note=54 velocity=0 time=0.10135124999999999
EXTRACT: note_on channel=0 note=81 velocity=113 time=0.00675675
EXTRACT: note_on channel=7 note=57 velocity=98 time=0
EXTRACT: note_on channel=9 note=26 velocity=50 time=0
EXTRACT: note_on channel=9 note=32 velocity=50 time=0
EXTRACT: note_on channel=9 note=38 velocity=120 time=0
EXTRACT: note_on channel=9 note=42 velocity=80 time=0
EXTRACT: note_on channel=9 note=42 velocity=0 time=0.043918874999999996
EXTRACT: note_on channel=9 note=38 velocity=0 time=0
EXTRACT: note_on channel=9 note=32 velocity=0 time=0
EXTRACT: note_on channel=9 note=26 velocity=0 time=0
EXTRACT: note_on channel=0 note=81 velocity=0 time=0.050675624999999995
EXTRACT: note_on channel=7 note=57 velocity=0 time=0.10135124999999999
EXTRACT: note_on channel=0 note=78 velocity=113 time=0.00675675
EXTRACT: note_on channel=7 note=54 velocity=98 time=0
EXTRACT: note_on channel=9 note=26 velocity=30 time=0
EXTRACT: note_on channel=9 note=32 velocity=30 time=0
EXTRACT: note_on channel=9 note=32 velocity=0 time=0.043918874999999996
EXTRACT: note_on channel=9 note=26 velocity=0 time=0
EXTRACT: note_on channel=0 note=78 velocity=0 time=0.050675624999999995
EXTRACT: note_on channel=7 note=54 velocity=0 time=0.10135124999999999
EXTRACT: note_on channel=0 note=74 velocity=109 time=0.00675675
EXTRACT: note_on channel=7 note=50 velocity=101 time=0
EXTRACT: note_on channel=9 note=26 velocity=50 time=0
EXTRACT: note_on channel=9 note=32 velocity=50 time=0
EXTRACT: note_on channel=9 note=42 velocity=70 time=0
EXTRACT: note_on channel=9 note=42 velocity=0 time=0.043918874999999996
EXTRACT: note_on channel=9 note=32 velocity=0 time=0
EXTRACT: note_on channel=9 note=26 velocity=0 time=0
EXTRACT: note_on channel=0 note=74 velocity=0 time=0.050675624999999995
EXTRACT: note_on channel=7 note=50 velocity=0 time=0.10135124999999999
EXTRACT: note_on channel=1 note=38 velocity=0 time=0
EXTRACT: note_on channel=0 note=78 velocity=110 time=0.00675675
EXTRACT: note_on channel=1 note=38 velocity=121 time=0
EXTRACT: note_on channel=7 note=54 velocity=95 time=0
EXTRACT: note_on channel=9 note=26 velocity=30 time=0
EXTRACT: note_on channel=9 note=32 velocity=30 time=0
EXTRACT: note_on channel=9 note=36 velocity=120 time=0
EXTRACT: note_on channel=10 note=52 velocity=120 time=0
EXTRACT: note_on channel=10 note=57 velocity=120 time=0.03378375
EXTRACT: note_on channel=10 note=52 velocity=0 time=0.010135125
EXTRACT: note_on channel=9 note=36 velocity=0 time=0
EXTRACT: note_on channel=9 note=32 velocity=0 time=0
EXTRACT: note_on channel=9 note=26 velocity=0 time=0
EXTRACT: note_on channel=10 note=57 velocity=0 time=0.03378375
EXTRACT: note_on channel=0 note=78 velocity=0 time=0.016891875
EXTRACT: note_on channel=7 note=54 velocity=0 time=0.10135124999999999
EXTRACT: note_on channel=0 note=74 velocity=113 time=0.00675675
EXTRACT: note_on channel=7 note=50 velocity=104 time=0
EXTRACT: note_on channel=9 note=26 velocity=50 time=0
EXTRACT: note_on channel=9 note=32 velocity=50 time=0
EXTRACT: note_on channel=9 note=42 velocity=80 time=0
EXTRACT: note_on channel=9 note=42 velocity=0 time=0.043918874999999996
EXTRACT: note_on channel=9 note=32 velocity=0 time=0
EXTRACT: note_on channel=9 note=26 velocity=0 time=0
EXTRACT: note_on channel=0 note=74 velocity=0 time=0.050675624999999995
EXTRACT: note_on channel=7 note=50 velocity=0 time=0.10135124999999999
EXTRACT: note_on channel=1 note=38 velocity=0 time=0
EXTRACT: note_on channel=0 note=78 velocity=114 time=0.00675675
EXTRACT: note_on channel=1 note=38 velocity=121 time=0
EXTRACT: note_on channel=7 note=54 velocity=86 time=0
EXTRACT: note_on channel=9 note=26 velocity=30 time=0
EXTRACT: note_on channel=9 note=32 velocity=30 time=0
EXTRACT: note_on channel=9 note=36 velocity=120 time=0
EXTRACT: note_on channel=10 note=52 velocity=120 time=0
EXTRACT: note_on channel=10 note=57 velocity=120 time=0.03378375
EXTRACT: note_on channel=10 note=52 velocity=0 time=0.010135125
EXTRACT: note_on channel=9 note=36 velocity=0 time=0
EXTRACT: note_on channel=9 note=32 velocity=0 time=0
EXTRACT: note_on channel=9 note=26 velocity=0 time=0
EXTRACT: note_on channel=10 note=57 velocity=0 time=0.03378375
EXTRACT: note_on channel=0 note=78 velocity=0 time=0.016891875
EXTRACT: note_on channel=7 note=54 velocity=0 time=0.10135124999999999
EXTRACT: note_on channel=1 note=38 velocity=0 time=0
EXTRACT: note_on channel=0 note=81 velocity=111 time=0.00675675
EXTRACT: note_on channel=1 note=38 velocity=121 time=0
EXTRACT: note_on channel=7 note=57 velocity=101 time=0
EXTRACT: note_on channel=9 note=26 velocity=50 time=0
EXTRACT: note_on channel=9 note=32 velocity=50 time=0
EXTRACT: note_on channel=9 note=36 velocity=120 time=0
EXTRACT: note_on channel=9 note=42 velocity=70 time=0
EXTRACT: note_on channel=10 note=52 velocity=120 time=0
EXTRACT: note_on channel=10 note=57 velocity=120 time=0.03378375
EXTRACT: note_on channel=10 note=52 velocity=0 time=0.010135125
EXTRACT: note_on channel=9 note=42 velocity=0 time=0
EXTRACT: note_on channel=9 note=32 velocity=0 time=0
EXTRACT: note_on channel=9 note=26 velocity=0 time=0
EXTRACT: note_on channel=9 note=36 velocity=0 time=0
EXTRACT: note_on channel=10 note=57 velocity=0 time=0.03378375
EXTRACT: note_on channel=0 note=81 velocity=0 time=0.016891875
EXTRACT: note_on channel=7 note=57 velocity=0 time=0.10135124999999999
EXTRACT: note_on channel=0 note=78 velocity=112 time=0.00675675
EXTRACT: note_on channel=7 note=54 velocity=98 time=0
EXTRACT: note_on channel=9 note=26 velocity=30 time=0
EXTRACT: note_on channel=9 note=32 velocity=30 time=0
EXTRACT: note_on channel=9 note=32 velocity=0 time=0.043918874999999996
EXTRACT: note_on channel=9 note=26 velocity=0 time=0
EXTRACT: note_on channel=0 note=78 velocity=0 time=0.050675624999999995
EXTRACT: note_on channel=7 note=54 velocity=0 time=0.10135124999999999
EXTRACT: note_on channel=0 note=81 velocity=113 time=0.00675675
EXTRACT: note_on channel=7 note=57 velocity=101 time=0
EXTRACT: note_on channel=9 note=26 velocity=50 time=0
EXTRACT: note_on channel=9 note=32 velocity=50 time=0
EXTRACT: note_on channel=9 note=38 velocity=120 time=0
EXTRACT: note_on channel=9 note=42 velocity=80 time=0
EXTRACT: note_on channel=9 note=42 velocity=0 time=0.043918874999999996
EXTRACT: note_on channel=9 note=38 velocity=0 time=0
EXTRACT: note_on channel=9 note=32 velocity=0 time=0
EXTRACT: note_on channel=9 note=26 velocity=0 time=0
EXTRACT: note_on channel=0 note=81 velocity=0 time=0.050675624999999995
EXTRACT: note_on channel=7 note=57 velocity=0 time=0.10135124999999999
EXTRACT: note_on channel=0 note=78 velocity=115 time=0.00675675
EXTRACT: note_on channel=7 note=54 velocity=93 time=0
EXTRACT: note_on channel=9 note=26 velocity=30 time=0
EXTRACT: note_on channel=9 note=32 velocity=30 time=0
EXTRACT: note_on channel=9 note=32 velocity=0 time=0.043918874999999996
EXTRACT: note_on channel=9 note=26 velocity=0 time=0
EXTRACT: note_on channel=0 note=78 velocity=0 time=0.050675624999999995
EXTRACT: note_on channel=7 note=54 velocity=0 time=0.10135124999999999
EXTRACT: note_on channel=0 note=74 velocity=115 time=0.00675675
EXTRACT: note_on channel=7 note=50 velocity=90 time=0
EXTRACT: note_on channel=9 note=26 velocity=50 time=0
EXTRACT: note_on channel=9 note=32 velocity=50 time=0
EXTRACT: note_on channel=9 note=42 velocity=70 time=0
EXTRACT: note_on channel=9 note=42 velocity=0 time=0.043918874999999996
EXTRACT: note_on channel=9 note=32 velocity=0 time=0
EXTRACT: note_on channel=9 note=26 velocity=0 time=0
EXTRACT: note_on channel=0 note=74 velocity=0 time=0.050675624999999995
EXTRACT: note_on channel=7 note=50 velocity=0 time=0.10135124999999999
EXTRACT: note_on channel=0 note=78 velocity=115 time=0.00675675
EXTRACT: note_on channel=7 note=54 velocity=90 time=0
EXTRACT: note_on channel=9 note=26 velocity=30 time=0
EXTRACT: note_on channel=9 note=32 velocity=30 time=0
EXTRACT: note_on channel=12 note=67 velocity=100 time=0
EXTRACT: note_on channel=9 note=32 velocity=0 time=0.043918874999999996
EXTRACT: note_on channel=9 note=26 velocity=0 time=0
EXTRACT: note_on channel=12 note=65 velocity=100 time=0.023648625
EXTRACT: note_on channel=12 note=67 velocity=0 time=0.027027
EXTRACT: note_on channel=0 note=78 velocity=0 time=0
EXTRACT: note_on channel=12 note=63 velocity=100 time=0.0405405
EXTRACT: note_on channel=12 note=65 velocity=0 time=0.027027
EXTRACT: note_on channel=5 note=50 velocity=0 time=0.03378375
EXTRACT: note_on channel=2 note=62 velocity=0 time=0
EXTRACT: note_on channel=1 note=38 velocity=0 time=0
EXTRACT: note_on channel=11 note=90 velocity=0 time=0
EXTRACT: note_on channel=5 note=62 velocity=0 time=0
EXTRACT: note_on channel=5 note=54 velocity=0 time=0
EXTRACT: note_on channel=6 note=50 velocity=0 time=0
EXTRACT: note_on channel=11 note=86 velocity=0 time=0
EXTRACT: note_on channel=6 note=45 velocity=0 time=0
EXTRACT: note_on channel=11 note=81 velocity=0 time=0
EXTRACT: note_on channel=2 note=57 velocity=0 time=0
EXTRACT: note_on channel=2 note=66 velocity=0 time=0
EXTRACT: note_on channel=5 note=57 velocity=0 time=0
EXTRACT: note_on channel=7 note=54 velocity=0 time=0
EXTRACT: note_on channel=0 note=73 velocity=112 time=0.00675675
EXTRACT: note_on channel=1 note=37 velocity=120 time=0
EXTRACT: note_on channel=2 note=57 velocity=100 time=0
EXTRACT: note_on channel=2 note=61 velocity=100 time=0
EXTRACT: note_on channel=2 note=66 velocity=100 time=0
EXTRACT: note_on channel=5 note=49 velocity=99 time=0
EXTRACT: note_on channel=5 note=54 velocity=99 time=0
EXTRACT: note_on channel=5 note=57 velocity=99 time=0
EXTRACT: note_on channel=5 note=61 velocity=99 time=0
EXTRACT: note_on channel=6 note=42 velocity=101 time=0
EXTRACT: note_on channel=6 note=49 velocity=101 time=0
EXTRACT: note_on channel=7 note=49 velocity=104 time=0
EXTRACT: note_on channel=8 note=37 velocity=79 time=0
EXTRACT: note_on channel=9 note=26 velocity=50 time=0
EXTRACT: note_on channel=9 note=32 velocity=50 time=0
EXTRACT: note_on channel=9 note=36 velocity=120 time=0
EXTRACT: note_on channel=9 note=42 velocity=80 time=0
EXTRACT: note_on channel=10 note=52 velocity=120 time=0
EXTRACT: note_on channel=11 note=81 velocity=100 time=0
EXTRACT: note_on channel=11 note=85 velocity=100 time=0
EXTRACT: note_on channel=11 note=90 velocity=100 time=0
EXTRACT: note_on channel=12 note=61 velocity=114 time=0
EXTRACT: note_on channel=12 note=63 velocity=0 time=0.027027
EXTRACT: note_on channel=10 note=57 velocity=120 time=0.00675675
EXTRACT: note_on channel=10 note=52 velocity=0 time=0.010135125
EXTRACT: note_on channel=9 note=42 velocity=0 time=0
EXTRACT: note_on channel=9 note=36 velocity=0 time=0
EXTRACT: note_on channel=9 note=32 velocity=0 time=0
EXTRACT: note_on channel=9 note=26 velocity=0 time=0
EXTRACT: note_on channel=10 note=57 velocity=0 time=0.03378375
EXTRACT: note_on channel=0 note=73 velocity=0 time=0.016891875
EXTRACT: note_on channel=12 note=61 velocity=0 time=0
EXTRACT: note_on channel=7 note=49 velocity=0 time=0.10135124999999999
EXTRACT: note_on channel=0 note=78 velocity=115 time=0.00675675
EXTRACT: note_on channel=7 note=54 velocity=93 time=0
EXTRACT: note_on channel=9 note=26 velocity=30 time=0
EXTRACT: note_on channel=9 note=32 velocity=30 time=0
EXTRACT: note_on channel=9 note=32 velocity=0 time=0.043918874999999996
EXTRACT: note_on channel=9 note=26 velocity=0 time=0
EXTRACT: note_on channel=0 note=78 velocity=0 time=0.050675624999999995
EXTRACT: note_on channel=7 note=54 velocity=0 time=0.10135124999999999
EXTRACT: note_on channel=8 note=37 velocity=0 time=0
EXTRACT: note_on channel=0 note=81 velocity=118 time=0.00675675
EXTRACT: note_on channel=7 note=57 velocity=89 time=0
EXTRACT: note_on channel=9 note=26 velocity=50 time=0
EXTRACT: note_on channel=9 note=32 velocity=50 time=0
EXTRACT: note_on channel=9 note=42 velocity=70 time=0
EXTRACT: note_on channel=9 note=42 velocity=0 time=0.043918874999999996
EXTRACT: note_on channel=9 note=32 velocity=0 time=0
EXTRACT: note_on channel=9 note=26 velocity=0 time=0
EXTRACT: note_on channel=0 note=81 velocity=0 time=0.050675624999999995
EXTRACT: note_on channel=7 note=57 velocity=0 time=0.10135124999999999
EXTRACT: note_on channel=0 note=78 velocity=118 time=0.00675675
EXTRACT: note_on channel=7 note=54 velocity=77 time=0
EXTRACT: note_on channel=9 note=26 velocity=30 time=0
EXTRACT: note_on channel=9 note=32 velocity=30 time=0
EXTRACT: note_on channel=9 note=32 velocity=0 time=0.043918874999999996
EXTRACT: note_on channel=9 note=26 velocity=0 time=0
EXTRACT: note_on channel=0 note=78 velocity=0 time=0.050675624999999995
EXTRACT: note_on channel=7 note=54 velocity=0 time=0.10135124999999999
EXTRACT: note_on channel=0 note=81 velocity=113 time=0.00675675
EXTRACT: note_on channel=7 note=57 velocity=98 time=0
EXTRACT: note_on channel=9 note=26 velocity=50 time=0
EXTRACT: note_on channel=9 note=32 velocity=50 time=0
EXTRACT: note_on channel=9 note=38 velocity=120 time=0
EXTRACT: note_on channel=9 note=42 velocity=80 time=0
EXTRACT: note_on channel=9 note=42 velocity=0 time=0.043918874999999996
EXTRACT: note_on channel=9 note=38 velocity=0 time=0
EXTRACT: note_on channel=9 note=32 velocity=0 time=0
EXTRACT: note_on channel=9 note=26 velocity=0 time=0
EXTRACT: note_on channel=0 note=81 velocity=0 time=0.050675624999999995
EXTRACT: note_on channel=7 note=57 velocity=0 time=0.10135124999999999
EXTRACT: note_on channel=0 note=78 velocity=113 time=0.00675675
EXTRACT: note_on channel=7 note=54 velocity=98 time=0
EXTRACT: note_on channel=9 note=26 velocity=30 time=0
EXTRACT: note_on channel=9 note=32 velocity=30 time=0
EXTRACT: note_on channel=9 note=32 velocity=0 time=0.043918874999999996
EXTRACT: note_on channel=9 note=26 velocity=0 time=0
EXTRACT: note_on channel=0 note=78 velocity=0 time=0.050675624999999995
EXTRACT: note_on channel=7 note=54 velocity=0 time=0.10135124999999999
EXTRACT: note_on channel=0 note=73 velocity=109 time=0.00675675
EXTRACT: note_on channel=7 note=49 velocity=101 time=0
EXTRACT: note_on channel=9 note=26 velocity=50 time=0
EXTRACT: note_on channel=9 note=32 velocity=50 time=0
EXTRACT: note_on channel=9 note=42 velocity=70 time=0
EXTRACT: note_on channel=9 note=42 velocity=0 time=0.043918874999999996
EXTRACT: note_on channel=9 note=32 velocity=0 time=0
EXTRACT: note_on channel=9 note=26 velocity=0 time=0
EXTRACT: note_on channel=0 note=73 velocity=0 time=0.050675624999999995
EXTRACT: note_on channel=7 note=49 velocity=0 time=0.10135124999999999
EXTRACT: note_on channel=1 note=37 velocity=0 time=0
EXTRACT: note_on channel=0 note=78 velocity=110 time=0.00675675
EXTRACT: note_on channel=1 note=37 velocity=120 time=0
EXTRACT: note_on channel=7 note=54 velocity=95 time=0
EXTRACT: note_on channel=9 note=26 velocity=30 time=0
EXTRACT: note_on channel=9 note=32 velocity=30 time=0
EXTRACT: note_on channel=9 note=36 velocity=120 time=0
EXTRACT: note_on channel=10 note=52 velocity=120 time=0
EXTRACT: note_on channel=10 note=57 velocity=120 time=0.03378375
EXTRACT: note_on channel=10 note=52 velocity=0 time=0.010135125
EXTRACT: note_on channel=9 note=36 velocity=0 time=0
EXTRACT: note_on channel=9 note=32 velocity=0 time=0
EXTRACT: note_on channel=9 note=26 velocity=0 time=0
EXTRACT: note_on channel=10 note=57 velocity=0 time=0.03378375
EXTRACT: note_on channel=0 note=78 velocity=0 time=0.016891875
EXTRACT: note_on channel=7 note=54 velocity=0 time=0.10135124999999999
EXTRACT: note_on channel=0 note=73 velocity=113 time=0.00675675
EXTRACT: note_on channel=7 note=49 velocity=104 time=0
EXTRACT: note_on channel=9 note=26 velocity=50 time=0
EXTRACT: note_on channel=9 note=32 velocity=50 time=0
EXTRACT: note_on channel=9 note=42 velocity=80 time=0
EXTRACT: note_on channel=9 note=42 velocity=0 time=0.043918874999999996
EXTRACT: note_on channel=9 note=32 velocity=0 time=0
EXTRACT: note_on channel=9 note=26 velocity=0 time=0
EXTRACT: note_on channel=0 note=73 velocity=0 time=0.050675624999999995
EXTRACT: note_on channel=7 note=49 velocity=0 time=0.10135124999999999
EXTRACT: note_on channel=1 note=37 velocity=0 time=0
EXTRACT: note_on channel=0 note=78 velocity=114 time=0.00675675
EXTRACT: note_on channel=1 note=37 velocity=120 time=0
EXTRACT: note_on channel=7 note=54 velocity=86 time=0
EXTRACT: note_on channel=9 note=26 velocity=30 time=0
EXTRACT: note_on channel=9 note=32 velocity=30 time=0
EXTRACT: note_on channel=9 note=36 velocity=120 time=0
EXTRACT: note_on channel=10 note=52 velocity=120 time=0
EXTRACT: note_on channel=10 note=57 velocity=120 time=0.03378375
EXTRACT: note_on channel=10 note=52 velocity=0 time=0.010135125
EXTRACT: note_on channel=9 note=36 velocity=0 time=0
EXTRACT: note_on channel=9 note=32 velocity=0 time=0
EXTRACT: note_on channel=9 note=26 velocity=0 time=0
EXTRACT: note_on channel=10 note=57 velocity=0 time=0.03378375
EXTRACT: note_on channel=0 note=78 velocity=0 time=0.016891875
EXTRACT: note_on channel=7 note=54 velocity=0 time=0.10135124999999999
EXTRACT: note_on channel=1 note=37 velocity=0 time=0
EXTRACT: note_on channel=0 note=81 velocity=111 time=0.00675675
EXTRACT: note_on channel=1 note=37 velocity=120 time=0
EXTRACT: note_on channel=7 note=57 velocity=101 time=0
EXTRACT: note_on channel=9 note=26 velocity=50 time=0
EXTRACT: note_on channel=9 note=32 velocity=50 time=0
EXTRACT: note_on channel=9 note=36 velocity=120 time=0
EXTRACT: note_on channel=9 note=42 velocity=70 time=0
EXTRACT: note_on channel=10 note=52 velocity=120 time=0
EXTRACT: note_on channel=10 note=57 velocity=120 time=0.03378375
EXTRACT: note_on channel=10 note=52 velocity=0 time=0.010135125
EXTRACT: note_on channel=9 note=42 velocity=0 time=0
EXTRACT: note_on channel=9 note=32 velocity=0 time=0
EXTRACT: note_on channel=9 note=26 velocity=0 time=0
EXTRACT: note_on channel=9 note=36 velocity=0 time=0
EXTRACT: note_on channel=10 note=57 velocity=0 time=0.03378375
EXTRACT: note_on channel=0 note=81 velocity=0 time=0.016891875
EXTRACT: note_on channel=7 note=57 velocity=0 time=0.10135124999999999
EXTRACT: note_on channel=0 note=78 velocity=112 time=0.00675675
EXTRACT: note_on channel=7 note=54 velocity=98 time=0
EXTRACT: note_on channel=9 note=26 velocity=30 time=0
EXTRACT: note_on channel=9 note=32 velocity=30 time=0
EXTRACT: note_on channel=9 note=32 velocity=0 time=0.043918874999999996
EXTRACT: note_on channel=9 note=26 velocity=0 time=0
EXTRACT: note_on channel=0 note=78 velocity=0 time=0.050675624999999995
EXTRACT: note_on channel=7 note=54 velocity=0 time=0.10135124999999999
EXTRACT: note_on channel=0 note=81 velocity=113 time=0.00675675
EXTRACT: note_on channel=7 note=57 velocity=101 time=0
EXTRACT: note_on channel=9 note=26 velocity=50 time=0
EXTRACT: note_on channel=9 note=32 velocity=50 time=0
EXTRACT: note_on channel=9 note=38 velocity=120 time=0
EXTRACT: note_on channel=9 note=42 velocity=80 time=0
EXTRACT: note_on channel=9 note=42 velocity=0 time=0.043918874999999996
EXTRACT: note_on channel=9 note=38 velocity=0 time=0
EXTRACT: note_on channel=9 note=32 velocity=0 time=0
EXTRACT: note_on channel=9 note=26 velocity=0 time=0
EXTRACT: note_on channel=0 note=81 velocity=0 time=0.050675624999999995
EXTRACT: note_on channel=7 note=57 velocity=0 time=0.10135124999999999
EXTRACT: note_on channel=0 note=78 velocity=115 time=0.00675675
EXTRACT: note_on channel=7 note=54 velocity=93 time=0
EXTRACT: note_on channel=9 note=26 velocity=30 time=0
EXTRACT: note_on channel=9 note=32 velocity=30 time=0
EXTRACT: note_on channel=9 note=32 velocity=0 time=0.043918874999999996
EXTRACT: note_on channel=9 note=26 velocity=0 time=0
EXTRACT: note_on channel=0 note=78 velocity=0 time=0.050675624999999995
EXTRACT: note_on channel=7 note=54 velocity=0 time=0.10135124999999999
EXTRACT: note_on channel=0 note=73 velocity=115 time=0.00675675
EXTRACT: note_on channel=7 note=49 velocity=90 time=0
EXTRACT: note_on channel=9 note=26 velocity=50 time=0
EXTRACT: note_on channel=9 note=32 velocity=50 time=0
EXTRACT: note_on channel=9 note=36 velocity=114 time=0
EXTRACT: note_on channel=9 note=42 velocity=70 time=0
EXTRACT: note_on channel=10 note=52 velocity=114 time=0
EXTRACT: note_on channel=10 note=57 velocity=114 time=0.03378375
EXTRACT: note_on channel=10 note=52 velocity=0 time=0.010135125
EXTRACT: note_on channel=9 note=42 velocity=0 time=0
EXTRACT: note_on channel=9 note=32 velocity=0 time=0
EXTRACT: note_on channel=9 note=26 velocity=0 time=0
EXTRACT: note_on channel=9 note=36 velocity=0 time=0
EXTRACT: note_on channel=10 note=57 velocity=0 time=0.03378375
EXTRACT: note_on channel=0 note=73 velocity=0 time=0.016891875
EXTRACT: note_on channel=7 note=49 velocity=0 time=0.10135124999999999
EXTRACT: note_on channel=0 note=78 velocity=115 time=0.00675675
EXTRACT: note_on channel=7 note=54 velocity=90 time=0
EXTRACT: note_on channel=9 note=26 velocity=30 time=0
EXTRACT: note_on channel=9 note=32 velocity=30 time=0
EXTRACT: note_on channel=9 note=36 velocity=114 time=0
EXTRACT: note_on channel=10 note=52 velocity=114 time=0
EXTRACT: note_on channel=10 note=57 velocity=114 time=0.03378375
EXTRACT: note_on channel=10 note=52 velocity=0 time=0.010135125
EXTRACT: note_on channel=9 note=36 velocity=0 time=0
EXTRACT: note_on channel=9 note=32 velocity=0 time=0
EXTRACT: note_on channel=9 note=26 velocity=0 time=0
EXTRACT: note_on channel=10 note=57 velocity=0 time=0.03378375
EXTRACT: note_on channel=0 note=78 velocity=0 time=0.016891875
EXTRACT: note_on channel=2 note=57 velocity=0 time=0.10135124999999999
EXTRACT: note_on channel=1 note=37 velocity=0 time=0
EXTRACT: note_on channel=6 note=49 velocity=0 time=0
EXTRACT: note_on channel=2 note=66 velocity=0 time=0
EXTRACT: note_on channel=6 note=42 velocity=0 time=0
EXTRACT: note_on channel=11 note=90 velocity=0 time=0
EXTRACT: note_on channel=5 note=54 velocity=0 time=0
EXTRACT: note_on channel=5 note=57 velocity=0 time=0
EXTRACT: note_on channel=2 note=61 velocity=0 time=0
EXTRACT: note_on channel=5 note=49 velocity=0 time=0
EXTRACT: note_on channel=11 note=81 velocity=0 time=0
EXTRACT: note_on channel=11 note=85 velocity=0 time=0
EXTRACT: note_on channel=7 note=54 velocity=0 time=0
EXTRACT: note_on channel=5 note=61 velocity=0 time=0
EXTRACT: note_on channel=0 note=71 velocity=112 time=0.00675675
EXTRACT: note_on channel=1 note=35 velocity=120 time=0
EXTRACT: note_on channel=2 note=59 velocity=102 time=0
EXTRACT: note_on channel=2 note=62 velocity=102 time=0
EXTRACT: note_on channel=2 note=66 velocity=102 time=0
EXTRACT: note_on channel=5 note=47 velocity=99 time=0
EXTRACT: note_on channel=5 note=54 velocity=99 time=0
EXTRACT: note_on channel=5 note=59 velocity=99 time=0
EXTRACT: note_on channel=5 note=62 velocity=99 time=0
EXTRACT: note_on channel=6 note=47 velocity=98 time=0
EXTRACT: note_on channel=6 note=54 velocity=98 time=0
EXTRACT: note_on channel=7 note=47 velocity=104 time=0
EXTRACT: note_on channel=8 note=35 velocity=82 time=0
EXTRACT: note_on channel=9 note=26 velocity=50 time=0
EXTRACT: note_on channel=9 note=32 velocity=50 time=0
EXTRACT: note_on channel=9 note=36 velocity=120 time=0
EXTRACT: note_on channel=9 note=42 velocity=80 time=0
EXTRACT: note_on channel=10 note=52 velocity=120 time=0
EXTRACT: note_on channel=11 note=83 velocity=102 time=0
EXTRACT: note_on channel=11 note=86 velocity=102 time=0
EXTRACT: note_on channel=11 note=90 velocity=102 time=0
EXTRACT: note_on channel=10 note=57 velocity=120 time=0.037162125
EXTRACT: note_on channel=10 note=52 velocity=0 time=0.00675675
EXTRACT: note_on channel=9 note=42 velocity=0 time=0
EXTRACT: note_on channel=9 note=36 velocity=0 time=0
EXTRACT: note_on channel=9 note=32 velocity=0 time=0
EXTRACT: note_on channel=9 note=26 velocity=0 time=0
EXTRACT: note_on channel=10 note=57 velocity=0 time=0.037162125
EXTRACT: note_on channel=0 note=71 velocity=0 time=0.0135135
EXTRACT: note_on channel=7 note=47 velocity=0 time=0.10135124999999999
EXTRACT: note_on channel=0 note=78 velocity=115 time=0.00675675
EXTRACT: note_on channel=7 note=54 velocity=93 time=0
EXTRACT: note_on channel=9 note=26 velocity=30 time=0
EXTRACT: note_on channel=9 note=32 velocity=30 time=0
EXTRACT: note_on channel=9 note=32 velocity=0 time=0.043918874999999996
EXTRACT: note_on channel=9 note=26 velocity=0 time=0
EXTRACT: note_on channel=0 note=78 velocity=0 time=0.050675624999999995
EXTRACT: note_on channel=7 note=54 velocity=0 time=0.10135124999999999
EXTRACT: note_on channel=8 note=35 velocity=0 time=0
EXTRACT: note_on channel=0 note=83 velocity=118 time=0.00675675
EXTRACT: note_on channel=7 note=59 velocity=89 time=0
EXTRACT: note_on channel=9 note=26 velocity=50 time=0
EXTRACT: note_on channel=9 note=32 velocity=50 time=0
EXTRACT: note_on channel=9 note=42 velocity=70 time=0
EXTRACT: note_on channel=9 note=42 velocity=0 time=0.043918874999999996
EXTRACT: note_on channel=9 note=32 velocity=0 time=0
EXTRACT: note_on channel=9 note=26 velocity=0 time=0
EXTRACT: note_on channel=0 note=83 velocity=0 time=0.050675624999999995
EXTRACT: note_on channel=7 note=59 velocity=0 time=0.10135124999999999
EXTRACT: note_on channel=0 note=78 velocity=118 time=0.00675675
EXTRACT: note_on channel=7 note=54 velocity=77 time=0
EXTRACT: note_on channel=9 note=26 velocity=30 time=0
EXTRACT: note_on channel=9 note=32 velocity=30 time=0
EXTRACT: note_on channel=9 note=32 velocity=0 time=0.043918874999999996
EXTRACT: note_on channel=9 note=26 velocity=0 time=0
EXTRACT: note_on channel=0 note=78 velocity=0 time=0.050675624999999995
EXTRACT: note_on channel=7 note=54 velocity=0 time=0.10135124999999999
EXTRACT: note_on channel=0 note=83 velocity=113 time=0.00675675
EXTRACT: note_on channel=7 note=59 velocity=98 time=0
EXTRACT: note_on channel=9 note=26 velocity=50 time=0
EXTRACT: note_on channel=9 note=32 velocity=50 time=0
EXTRACT: note_on channel=9 note=38 velocity=120 time=0
EXTRACT: note_on channel=9 note=42 velocity=80 time=0
EXTRACT: note_on channel=9 note=42 velocity=0 time=0.043918874999999996
EXTRACT: note_on channel=9 note=38 velocity=0 time=0
EXTRACT: note_on channel=9 note=32 velocity=0 time=0
EXTRACT: note_on channel=9 note=26 velocity=0 time=0
EXTRACT: note_on channel=0 note=83 velocity=0 time=0.050675624999999995
EXTRACT: note_on channel=7 note=59 velocity=0 time=0.10135124999999999
EXTRACT: note_on channel=0 note=78 velocity=113 time=0.00675675
EXTRACT: note_on channel=7 note=54 velocity=98 time=0
EXTRACT: note_on channel=9 note=26 velocity=30 time=0
EXTRACT: note_on channel=9 note=32 velocity=30 time=0
EXTRACT: note_on channel=9 note=32 velocity=0 time=0.043918874999999996
EXTRACT: note_on channel=9 note=26 velocity=0 time=0
EXTRACT: note_on channel=0 note=78 velocity=0 time=0.050675624999999995
EXTRACT: note_on channel=7 note=54 velocity=0 time=0.10135124999999999
EXTRACT: note_on channel=0 note=71 velocity=109 time=0.00675675
EXTRACT: note_on channel=7 note=47 velocity=101 time=0
EXTRACT: note_on channel=9 note=26 velocity=50 time=0
EXTRACT: note_on channel=9 note=32 velocity=50 time=0
EXTRACT: note_on channel=9 note=42 velocity=70 time=0
EXTRACT: note_on channel=9 note=42 velocity=0 time=0.043918874999999996
EXTRACT: note_on channel=9 note=32 velocity=0 time=0
EXTRACT: note_on channel=9 note=26 velocity=0 time=0
EXTRACT: note_on channel=0 note=71 velocity=0 time=0.050675624999999995
EXTRACT: note_on channel=7 note=47 velocity=0 time=0.10135124999999999
EXTRACT: note_on channel=1 note=35 velocity=0 time=0
EXTRACT: note_on channel=0 note=78 velocity=110 time=0.00675675
EXTRACT: note_on channel=1 note=35 velocity=120 time=0
EXTRACT: note_on channel=7 note=54 velocity=95 time=0
EXTRACT: note_on channel=9 note=26 velocity=30 time=0
EXTRACT: note_on channel=9 note=32 velocity=30 time=0
EXTRACT: note_on channel=9 note=36 velocity=120 time=0
EXTRACT: note_on channel=10 note=52 velocity=120 time=0
EXTRACT: note_on channel=10 note=57 velocity=120 time=0.03378375
EXTRACT: note_on channel=10 note=52 velocity=0 time=0.010135125
EXTRACT: note_on channel=9 note=36 velocity=0 time=0
EXTRACT: note_on channel=9 note=32 velocity=0 time=0
EXTRACT: note_on channel=9 note=26 velocity=0 time=0
EXTRACT: note_on channel=10 note=57 velocity=0 time=0.03378375
EXTRACT: note_on channel=0 note=78 velocity=0 time=0.016891875
EXTRACT: note_on channel=7 note=54 velocity=0 time=0.10135124999999999
EXTRACT: note_on channel=0 note=71 velocity=113 time=0.00675675
EXTRACT: note_on channel=7 note=47 velocity=104 time=0
EXTRACT: note_on channel=9 note=26 velocity=50 time=0
EXTRACT: note_on channel=9 note=32 velocity=50 time=0
EXTRACT: note_on channel=9 note=42 velocity=80 time=0
EXTRACT: note_on channel=9 note=42 velocity=0 time=0.043918874999999996
EXTRACT: note_on channel=9 note=32 velocity=0 time=0
EXTRACT: note_on channel=9 note=26 velocity=0 time=0
EXTRACT: note_on channel=0 note=71 velocity=0 time=0.050675624999999995
EXTRACT: note_on channel=7 note=47 velocity=0 time=0.10135124999999999
EXTRACT: note_on channel=1 note=35 velocity=0 time=0
EXTRACT: note_on channel=0 note=78 velocity=114 time=0.00675675
EXTRACT: note_on channel=1 note=35 velocity=120 time=0
EXTRACT: note_on channel=7 note=54 velocity=86 time=0
EXTRACT: note_on channel=9 note=26 velocity=30 time=0
EXTRACT: note_on channel=9 note=32 velocity=30 time=0
EXTRACT: note_on channel=9 note=36 velocity=120 time=0
EXTRACT: note_on channel=10 note=52 velocity=120 time=0
EXTRACT: note_on channel=10 note=57 velocity=120 time=0.03378375
EXTRACT: note_on channel=10 note=52 velocity=0 time=0.010135125
EXTRACT: note_on channel=9 note=36 velocity=0 time=0
EXTRACT: note_on channel=9 note=32 velocity=0 time=0
EXTRACT: note_on channel=9 note=26 velocity=0 time=0
EXTRACT: note_on channel=10 note=57 velocity=0 time=0.03378375
EXTRACT: note_on channel=0 note=78 velocity=0 time=0.016891875
EXTRACT: note_on channel=7 note=54 velocity=0 time=0.10135124999999999
EXTRACT: note_on channel=1 note=35 velocity=0 time=0
EXTRACT: note_on channel=0 note=83 velocity=111 time=0.00675675
EXTRACT: note_on channel=1 note=35 velocity=120 time=0
EXTRACT: note_on channel=7 note=59 velocity=101 time=0
EXTRACT: note_on channel=9 note=26 velocity=50 time=0
EXTRACT: note_on channel=9 note=32 velocity=50 time=0
EXTRACT: note_on channel=9 note=36 velocity=120 time=0
EXTRACT: note_on channel=9 note=42 velocity=70 time=0
EXTRACT: note_on channel=10 note=52 velocity=120 time=0
EXTRACT: note_on channel=10 note=57 velocity=120 time=0.03378375
EXTRACT: note_on channel=10 note=52 velocity=0 time=0.010135125
EXTRACT: note_on channel=9 note=42 velocity=0 time=0
EXTRACT: note_on channel=9 note=32 velocity=0 time=0
EXTRACT: note_on channel=9 note=26 velocity=0 time=0
EXTRACT: note_on channel=9 note=36 velocity=0 time=0
EXTRACT: note_on channel=10 note=57 velocity=0 time=0.03378375
EXTRACT: note_on channel=0 note=83 velocity=0 time=0.016891875
EXTRACT: note_on channel=7 note=59 velocity=0 time=0.10135124999999999
EXTRACT: note_on channel=0 note=78 velocity=112 time=0.00675675
EXTRACT: note_on channel=7 note=54 velocity=98 time=0
EXTRACT: note_on channel=9 note=26 velocity=30 time=0
EXTRACT: note_on channel=9 note=32 velocity=30 time=0
EXTRACT: note_on channel=9 note=32 velocity=0 time=0.043918874999999996
EXTRACT: note_on channel=9 note=26 velocity=0 time=0
EXTRACT: note_on channel=0 note=78 velocity=0 time=0.050675624999999995
EXTRACT: note_on channel=7 note=54 velocity=0 time=0.10135124999999999
EXTRACT: note_on channel=0 note=83 velocity=113 time=0.00675675
EXTRACT: note_on channel=7 note=59 velocity=101 time=0
EXTRACT: note_on channel=9 note=26 velocity=50 time=0
EXTRACT: note_on channel=9 note=32 velocity=50 time=0
EXTRACT: note_on channel=9 note=38 velocity=120 time=0
EXTRACT: note_on channel=9 note=42 velocity=80 time=0
EXTRACT: note_on channel=9 note=42 velocity=0 time=0.043918874999999996
EXTRACT: note_on channel=9 note=38 velocity=0 time=0
EXTRACT: note_on channel=9 note=32 velocity=0 time=0
EXTRACT: note_on channel=9 note=26 velocity=0 time=0
EXTRACT: note_on channel=0 note=83 velocity=0 time=0.050675624999999995
EXTRACT: note_on channel=7 note=59 velocity=0 time=0.10135124999999999
EXTRACT: note_on channel=0 note=78 velocity=115 time=0.00675675
EXTRACT: note_on channel=7 note=54 velocity=93 time=0
EXTRACT: note_on channel=9 note=26 velocity=30 time=0
EXTRACT: note_on channel=9 note=32 velocity=30 time=0
EXTRACT: note_on channel=9 note=32 velocity=0 time=0.043918874999999996
EXTRACT: note_on channel=9 note=26 velocity=0 time=0
EXTRACT: note_on channel=0 note=78 velocity=0 time=0.050675624999999995
EXTRACT: note_on channel=7 note=54 velocity=0 time=0.10135124999999999
EXTRACT: note_on channel=0 note=71 velocity=115 time=0.00675675
EXTRACT: note_on channel=7 note=47 velocity=90 time=0
EXTRACT: note_on channel=9 note=26 velocity=50 time=0
EXTRACT: note_on channel=9 note=32 velocity=50 time=0
EXTRACT: note_on channel=9 note=42 velocity=70 time=0
EXTRACT: note_on channel=9 note=42 velocity=0 time=0.043918874999999996
EXTRACT: note_on channel=9 note=32 velocity=0 time=0
EXTRACT: note_on channel=9 note=26 velocity=0 time=0
EXTRACT: note_on channel=0 note=71 velocity=0 time=0.050675624999999995
EXTRACT: note_on channel=7 note=47 velocity=0 time=0.10135124999999999
EXTRACT: note_on channel=0 note=78 velocity=115 time=0.00675675
EXTRACT: note_on channel=7 note=54 velocity=90 time=0
EXTRACT: note_on channel=9 note=26 velocity=30 time=0
EXTRACT: note_on channel=9 note=32 velocity=30 time=0
EXTRACT: note_on channel=12 note=56 velocity=100 time=0
EXTRACT: note_on channel=9 note=32 velocity=0 time=0.043918874999999996
EXTRACT: note_on channel=9 note=26 velocity=0 time=0
EXTRACT: note_on channel=12 note=55 velocity=100 time=0.023648625
EXTRACT: note_on channel=12 note=56 velocity=0 time=0.027027
EXTRACT: note_on channel=0 note=78 velocity=0 time=0
EXTRACT: note_on channel=12 note=53 velocity=100 time=0.0405405
EXTRACT: note_on channel=12 note=55 velocity=0 time=0.027027
EXTRACT: note_on channel=5 note=47 velocity=0 time=0.03378375
EXTRACT: note_on channel=11 note=83 velocity=0 time=0
EXTRACT: note_on channel=1 note=35 velocity=0 time=0
EXTRACT: note_on channel=5 note=54 velocity=0 time=0
EXTRACT: note_on channel=2 note=59 velocity=0 time=0
EXTRACT: note_on channel=11 note=90 velocity=0 time=0
EXTRACT: note_on channel=11 note=86 velocity=0 time=0
EXTRACT: note_on channel=6 note=47 velocity=0 time=0
EXTRACT: note_on channel=5 note=59 velocity=0 time=0
EXTRACT: note_on channel=2 note=62 velocity=0 time=0
EXTRACT: note_on channel=5 note=62 velocity=0 time=0
EXTRACT: note_on channel=2 note=66 velocity=0 time=0
EXTRACT: note_on channel=6 note=54 velocity=0 time=0
EXTRACT: note_on channel=7 note=54 velocity=0 time=0
EXTRACT: note_on channel=0 note=67 velocity=112 time=0.00675675
EXTRACT: note_on channel=1 note=31 velocity=118 time=0
EXTRACT: note_on channel=2 note=59 velocity=101 time=0
EXTRACT: note_on channel=2 note=62 velocity=101 time=0
EXTRACT: note_on channel=2 note=67 velocity=101 time=0
EXTRACT: note_on channel=3 note=67 velocity=121 time=0
EXTRACT: note_on channel=4 note=55 velocity=121 time=0
EXTRACT: note_on channel=4 note=59 velocity=121 time=0
EXTRACT: note_on channel=4 note=67 velocity=121 time=0
EXTRACT: note_on channel=5 note=43 velocity=101 time=0
EXTRACT: note_on channel=5 note=55 velocity=101 time=0
EXTRACT: note_on channel=5 note=59 velocity=101 time=0
EXTRACT: note_on channel=5 note=62 velocity=101 time=0
EXTRACT: note_on channel=6 note=43 velocity=99 time=0
EXTRACT: note_on channel=6 note=50 velocity=99 time=0
EXTRACT: note_on channel=7 note=47 velocity=104 time=0
EXTRACT: note_on channel=8 note=31 velocity=81 time=0
EXTRACT: note_on channel=9 note=26 velocity=50 time=0
EXTRACT: note_on channel=9 note=32 velocity=50 time=0
EXTRACT: note_on channel=9 note=36 velocity=120 time=0
EXTRACT: note_on channel=9 note=42 velocity=80 time=0
EXTRACT: note_on channel=10 note=52 velocity=120 time=0
EXTRACT: note_on channel=11 note=83 velocity=101 time=0
EXTRACT: note_on channel=11 note=86 velocity=101 time=0
EXTRACT: note_on channel=11 note=91 velocity=101 time=0
EXTRACT: note_on channel=12 note=50 velocity=114 time=0
EXTRACT: note_on channel=15 note=55 velocity=1 time=0
EXTRACT: note_on channel=15 note=59 velocity=1 time=0
EXTRACT: note_on channel=15 note=67 velocity=1 time=0
EXTRACT: note_on channel=12 note=53 velocity=0 time=0.027027
EXTRACT: note_on channel=10 note=57 velocity=120 time=0.00675675
EXTRACT: note_on channel=10 note=52 velocity=0 time=0.010135125
EXTRACT: note_on channel=9 note=42 velocity=0 time=0
EXTRACT: note_on channel=9 note=26 velocity=0 time=0
EXTRACT: note_on channel=9 note=36 velocity=0 time=0
EXTRACT: note_on channel=9 note=32 velocity=0 time=0
EXTRACT: note_on channel=10 note=57 velocity=0 time=0.03378375
EXTRACT: note_on channel=0 note=67 velocity=0 time=0.016891875
EXTRACT: note_on channel=12 note=50 velocity=0 time=0.03378375
EXTRACT: note_on channel=7 note=47 velocity=0 time=0.0675675
EXTRACT: note_on channel=0 note=74 velocity=115 time=0.00675675
EXTRACT: note_on channel=7 note=50 velocity=93 time=0
EXTRACT: note_on channel=9 note=26 velocity=30 time=0
EXTRACT: note_on channel=9 note=32 velocity=30 time=0
EXTRACT: note_on channel=9 note=32 velocity=0 time=0.043918874999999996
EXTRACT: note_on channel=9 note=26 velocity=0 time=0
EXTRACT: note_on channel=0 note=74 velocity=0 time=0.050675624999999995
EXTRACT: note_on channel=7 note=50 velocity=0 time=0.10135124999999999
EXTRACT: note_on channel=8 note=31 velocity=0 time=0
EXTRACT: note_on channel=0 note=79 velocity=118 time=0.00675675
EXTRACT: note_on channel=7 note=59 velocity=89 time=0
EXTRACT: note_on channel=9 note=26 velocity=50 time=0
EXTRACT: note_on channel=9 note=32 velocity=50 time=0
EXTRACT: note_on channel=9 note=42 velocity=70 time=0
EXTRACT: note_on channel=9 note=42 velocity=0 time=0.043918874999999996
EXTRACT: note_on channel=9 note=32 velocity=0 time=0
EXTRACT: note_on channel=9 note=26 velocity=0 time=0
EXTRACT: note_on channel=0 note=79 velocity=0 time=0.050675624999999995
EXTRACT: note_on channel=7 note=59 velocity=0 time=0.10135124999999999
EXTRACT: note_on channel=0 note=74 velocity=118 time=0.00675675
EXTRACT: note_on channel=7 note=50 velocity=77 time=0
EXTRACT: note_on channel=9 note=26 velocity=30 time=0
EXTRACT: note_on channel=9 note=32 velocity=30 time=0
EXTRACT: note_on channel=9 note=32 velocity=0 time=0.043918874999999996
EXTRACT: note_on channel=9 note=26 velocity=0 time=0
EXTRACT: note_on channel=15 note=59 velocity=0 time=0.027027
EXTRACT: note_on channel=4 note=59 velocity=0 time=0
EXTRACT: note_on channel=4 note=55 velocity=0 time=0
EXTRACT: note_on channel=4 note=67 velocity=0 time=0
EXTRACT: note_on channel=3 note=67 velocity=0 time=0
EXTRACT: note_on channel=15 note=55 velocity=0 time=0
EXTRACT: note_on channel=15 note=67 velocity=0 time=0
EXTRACT: note_on channel=0 note=74 velocity=0 time=0.023648625
EXTRACT: note_on channel=7 note=50 velocity=0 time=0.10135124999999999
EXTRACT: note_on channel=0 note=79 velocity=113 time=0.00675675
EXTRACT: note_on channel=3 note=66 velocity=121 time=0
EXTRACT: note_on channel=4 note=54 velocity=121 time=0
EXTRACT: note_on channel=4 note=57 velocity=121 time=0
EXTRACT: note_on channel=4 note=66 velocity=121 time=0
EXTRACT: note_on channel=7 note=59 velocity=98 time=0
EXTRACT: note_on channel=9 note=26 velocity=50 time=0
EXTRACT: note_on channel=9 note=32 velocity=50 time=0
EXTRACT: note_on channel=9 note=38 velocity=120 time=0
EXTRACT: note_on channel=9 note=42 velocity=80 time=0
EXTRACT: note_on channel=15 note=54 velocity=1 time=0
EXTRACT: note_on channel=15 note=57 velocity=1 time=0
EXTRACT: note_on channel=15 note=66 velocity=1 time=0
EXTRACT: note_on channel=9 note=42 velocity=0 time=0.043918874999999996
EXTRACT: note_on channel=9 note=38 velocity=0 time=0
EXTRACT: note_on channel=9 note=32 velocity=0 time=0
EXTRACT: note_on channel=9 note=26 velocity=0 time=0
EXTRACT: note_on channel=0 note=79 velocity=0 time=0.050675624999999995
EXTRACT: note_on channel=7 note=59 velocity=0 time=0.10135124999999999
EXTRACT: note_on channel=0 note=74 velocity=113 time=0.00675675
EXTRACT: note_on channel=7 note=50 velocity=98 time=0
EXTRACT: note_on channel=9 note=26 velocity=30 time=0
EXTRACT: note_on channel=9 note=32 velocity=30 time=0
EXTRACT: note_on channel=9 note=32 velocity=0 time=0.043918874999999996
EXTRACT: note_on channel=9 note=26 velocity=0 time=0
EXTRACT: note_on channel=0 note=74 velocity=0 time=0.050675624999999995
EXTRACT: note_on channel=7 note=50 velocity=0 time=0.10135124999999999
EXTRACT: note_on channel=0 note=67 velocity=109 time=0.00675675
EXTRACT: note_on channel=7 note=47 velocity=78 time=0
EXTRACT: note_on channel=9 note=26 velocity=50 time=0
EXTRACT: note_on channel=9 note=32 velocity=50 time=0
EXTRACT: note_on channel=9 note=36 velocity=120 time=0
EXTRACT: note_on channel=9 note=42 velocity=70 time=0
EXTRACT: note_on channel=9 note=42 velocity=0 time=0.043918874999999996
EXTRACT: note_on channel=9 note=36 velocity=0 time=0
EXTRACT: note_on channel=9 note=32 velocity=0 time=0
EXTRACT: note_on channel=9 note=26 velocity=0 time=0
EXTRACT: note_on channel=0 note=67 velocity=0 time=0.050675624999999995
EXTRACT: note_on channel=7 note=47 velocity=0 time=0.10135124999999999
EXTRACT: note_on channel=1 note=31 velocity=0 time=0
EXTRACT: note_on channel=0 note=74 velocity=110 time=0.00675675
EXTRACT: note_on channel=1 note=31 velocity=118 time=0
EXTRACT: note_on channel=7 note=50 velocity=63 time=0
EXTRACT: note_on channel=9 note=26 velocity=30 time=0
EXTRACT: note_on channel=9 note=32 velocity=30 time=0
EXTRACT: note_on channel=9 note=36 velocity=120 time=0
EXTRACT: note_on channel=10 note=52 velocity=120 time=0
EXTRACT: note_on channel=4 note=54 velocity=0 time=0.00675675
EXTRACT: note_on channel=4 note=66 velocity=0 time=0
EXTRACT: note_on channel=4 note=57 velocity=0 time=0
EXTRACT: note_on channel=15 note=54 velocity=0 time=0
EXTRACT: note_on channel=15 note=66 velocity=0 time=0
EXTRACT: note_on channel=15 note=57 velocity=0 time=0
EXTRACT: note_on channel=3 note=66 velocity=0 time=0
EXTRACT: note_on channel=10 note=57 velocity=120 time=0.027027
EXTRACT: note_on channel=9 note=32 velocity=0 time=0.010135125
EXTRACT: note_on channel=10 note=52 velocity=0 time=0
EXTRACT: note_on channel=9 note=26 velocity=0 time=0
EXTRACT: note_on channel=9 note=36 velocity=0 time=0
EXTRACT: note_on channel=10 note=57 velocity=0 time=0.03378375
EXTRACT: note_on channel=0 note=74 velocity=0 time=0.016891875
EXTRACT: note_on channel=7 note=50 velocity=0 time=0.10135124999999999
EXTRACT: note_on channel=0 note=67 velocity=113 time=0.00675675
EXTRACT: note_on channel=3 note=64 velocity=121 time=0
EXTRACT: note_on channel=4 note=52 velocity=121 time=0
EXTRACT: note_on channel=4 note=55 velocity=121 time=0
EXTRACT: note_on channel=4 note=64 velocity=121 time=0
EXTRACT: note_on channel=7 note=47 velocity=76 time=0
EXTRACT: note_on channel=9 note=26 velocity=50 time=0
EXTRACT: note_on channel=9 note=32 velocity=50 time=0
EXTRACT: note_on channel=9 note=41 velocity=120 time=0
EXTRACT: note_on channel=9 note=42 velocity=80 time=0
EXTRACT: note_on channel=9 note=43 velocity=120 time=0
EXTRACT: note_on channel=15 note=52 velocity=1 time=0
EXTRACT: note_on channel=15 note=55 velocity=1 time=0
EXTRACT: note_on channel=15 note=64 velocity=1 time=0
EXTRACT: note_on channel=9 note=43 velocity=0 time=0.043918874999999996
EXTRACT: note_on channel=9 note=41 velocity=0 time=0
EXTRACT: note_on channel=9 note=32 velocity=0 time=0
EXTRACT: note_on channel=9 note=26 velocity=0 time=0
EXTRACT: note_on channel=9 note=42 velocity=0 time=0
EXTRACT: note_on channel=0 note=67 velocity=0 time=0.050675624999999995
EXTRACT: note_on channel=7 note=47 velocity=0 time=0.10135124999999999
EXTRACT: note_on channel=1 note=31 velocity=0 time=0
EXTRACT: note_on channel=0 note=74 velocity=114 time=0.00675675
EXTRACT: note_on channel=1 note=31 velocity=118 time=0
EXTRACT: note_on channel=7 note=50 velocity=86 time=0
EXTRACT: note_on channel=9 note=26 velocity=30 time=0
EXTRACT: note_on channel=9 note=32 velocity=30 time=0
EXTRACT: note_on channel=9 note=36 velocity=120 time=0
EXTRACT: note_on channel=9 note=38 velocity=120 time=0
EXTRACT: note_on channel=10 note=52 velocity=120 time=0
EXTRACT: note_on channel=10 note=57 velocity=120 time=0.03378375
EXTRACT: note_on channel=10 note=52 velocity=0 time=0.010135125
EXTRACT: note_on channel=9 note=38 velocity=0 time=0
EXTRACT: note_on channel=9 note=36 velocity=0 time=0
EXTRACT: note_on channel=9 note=32 velocity=0 time=0
EXTRACT: note_on channel=9 note=26 velocity=0 time=0
EXTRACT: note_on channel=10 note=57 velocity=0 time=0.03378375
EXTRACT: note_on channel=4 note=64 velocity=0 time=0.0135135
EXTRACT: note_on channel=4 note=52 velocity=0 time=0
EXTRACT: note_on channel=4 note=55 velocity=0 time=0
EXTRACT: note_on channel=15 note=55 velocity=0 time=0
EXTRACT: note_on channel=15 note=52 velocity=0 time=0
EXTRACT: note_on channel=15 note=64 velocity=0 time=0
EXTRACT: note_on channel=3 note=64 velocity=0 time=0
EXTRACT: note_on channel=0 note=74 velocity=0 time=0.003378375
EXTRACT: note_on channel=7 note=50 velocity=0 time=0.10135124999999999
EXTRACT: note_on channel=1 note=31 velocity=0 time=0
EXTRACT: note_on channel=0 note=79 velocity=111 time=0.00675675
EXTRACT: note_on channel=1 note=31 velocity=118 time=0
EXTRACT: note_on channel=3 note=62 velocity=118 time=0
EXTRACT: note_on channel=4 note=50 velocity=118 time=0
EXTRACT: note_on channel=4 note=54 velocity=118 time=0
EXTRACT: note_on channel=4 note=62 velocity=118 time=0
EXTRACT: note_on channel=7 note=55 velocity=88 time=0
EXTRACT: note_on channel=9 note=26 velocity=50 time=0
EXTRACT: note_on channel=9 note=32 velocity=50 time=0
EXTRACT: note_on channel=9 note=36 velocity=120 time=0
EXTRACT: note_on channel=9 note=41 velocity=120 time=0
EXTRACT: note_on channel=9 note=42 velocity=70 time=0
EXTRACT: note_on channel=9 note=43 velocity=120 time=0
EXTRACT: note_on channel=10 note=52 velocity=120 time=0
EXTRACT: note_on channel=15 note=54 velocity=1 time=0
EXTRACT: note_on channel=15 note=62 velocity=1 time=0
EXTRACT: note_on channel=15 note=50 velocity=1 time=0
EXTRACT: note_on channel=10 note=57 velocity=120 time=0.03378375
EXTRACT: note_on channel=10 note=52 velocity=0 time=0.010135125
EXTRACT: note_on channel=9 note=36 velocity=0 time=0
EXTRACT: note_on channel=9 note=32 velocity=0 time=0
EXTRACT: note_on channel=9 note=26 velocity=0 time=0
EXTRACT: note_on channel=9 note=43 velocity=0 time=0
EXTRACT: note_on channel=9 note=42 velocity=0 time=0
EXTRACT: note_on channel=9 note=41 velocity=0 time=0
EXTRACT: note_on channel=10 note=57 velocity=0 time=0.03378375
EXTRACT: note_on channel=0 note=79 velocity=0 time=0.016891875
EXTRACT: note_on channel=7 note=55 velocity=0 time=0.10135124999999999
EXTRACT: note_on channel=0 note=74 velocity=112 time=0.00675675
EXTRACT: note_on channel=7 note=50 velocity=88 time=0
EXTRACT: note_on channel=9 note=26 velocity=30 time=0
EXTRACT: note_on channel=9 note=32 velocity=30 time=0
EXTRACT: note_on channel=9 note=32 velocity=0 time=0.043918874999999996
EXTRACT: note_on channel=9 note=26 velocity=0 time=0
EXTRACT: note_on channel=4 note=62 velocity=0 time=0.010135125
EXTRACT: note_on channel=4 note=50 velocity=0 time=0
EXTRACT: note_on channel=4 note=54 velocity=0 time=0
EXTRACT: note_on channel=3 note=62 velocity=0 time=0
EXTRACT: note_on channel=15 note=54 velocity=0 time=0
EXTRACT: note_on channel=15 note=62 velocity=0 time=0
EXTRACT: note_on channel=15 note=50 velocity=0 time=0
EXTRACT: note_on channel=0 note=74 velocity=0 time=0.0405405
EXTRACT: note_on channel=7 note=50 velocity=0 time=0.10135124999999999
EXTRACT: note_on channel=0 note=79 velocity=113 time=0.00675675
EXTRACT: note_on channel=3 note=62 velocity=121 time=0
EXTRACT: note_on channel=4 note=50 velocity=121 time=0
EXTRACT: note_on channel=4 note=54 velocity=121 time=0
EXTRACT: note_on channel=4 note=62 velocity=121 time=0
EXTRACT: note_on channel=7 note=55 velocity=81 time=0
EXTRACT: note_on channel=9 note=26 velocity=50 time=0
EXTRACT: note_on channel=9 note=32 velocity=50 time=0
EXTRACT: note_on channel=9 note=38 velocity=120 time=0
EXTRACT: note_on channel=9 note=42 velocity=80 time=0
EXTRACT: note_on channel=15 note=54 velocity=1 time=0
EXTRACT: note_on channel=15 note=62 velocity=1 time=0
EXTRACT: note_on channel=15 note=50 velocity=1 time=0
EXTRACT: note_on channel=9 note=42 velocity=0 time=0.043918874999999996
EXTRACT: note_on channel=9 note=38 velocity=0 time=0
EXTRACT: note_on channel=9 note=32 velocity=0 time=0
EXTRACT: note_on channel=9 note=26 velocity=0 time=0
EXTRACT: note_on channel=0 note=79 velocity=0 time=0.050675624999999995
EXTRACT: note_on channel=7 note=55 velocity=0 time=0.10135124999999999
EXTRACT: note_on channel=0 note=74 velocity=115 time=0.00675675
EXTRACT: note_on channel=7 note=50 velocity=73 time=0
EXTRACT: note_on channel=9 note=26 velocity=30 time=0
EXTRACT: note_on channel=9 note=32 velocity=30 time=0
EXTRACT: note_on channel=9 note=32 velocity=0 time=0.043918874999999996
EXTRACT: note_on channel=9 note=26 velocity=0 time=0
EXTRACT: note_on channel=0 note=74 velocity=0 time=0.050675624999999995
EXTRACT: note_on channel=4 note=50 velocity=0 time=0.054054
EXTRACT: note_on channel=4 note=62 velocity=0 time=0
EXTRACT: note_on channel=4 note=54 velocity=0 time=0
EXTRACT: note_on channel=3 note=62 velocity=0 time=0
EXTRACT: note_on channel=15 note=50 velocity=0 time=0
EXTRACT: note_on channel=15 note=62 velocity=0 time=0
EXTRACT: note_on channel=15 note=54 velocity=0 time=0
EXTRACT: note_on channel=7 note=50 velocity=0 time=0.04729725
EXTRACT: note_on channel=0 note=67 velocity=115 time=0.00675675
EXTRACT: note_on channel=3 note=59 velocity=118 time=0
EXTRACT: note_on channel=4 note=47 velocity=118 time=0
EXTRACT: note_on channel=4 note=52 velocity=118 time=0
EXTRACT: note_on channel=4 note=59 velocity=118 time=0
EXTRACT: note_on channel=7 note=55 velocity=73 time=0
EXTRACT: note_on channel=9 note=26 velocity=50 time=0
EXTRACT: note_on channel=9 note=32 velocity=50 time=0
EXTRACT: note_on channel=9 note=36 velocity=114 time=0
EXTRACT: note_on channel=9 note=41 velocity=120 time=0
EXTRACT: note_on channel=9 note=42 velocity=70 time=0
EXTRACT: note_on channel=9 note=43 velocity=120 time=0
EXTRACT: note_on channel=10 note=52 velocity=114 time=0
EXTRACT: note_on channel=15 note=59 velocity=1 time=0
EXTRACT: note_on channel=15 note=47 velocity=1 time=0
EXTRACT: note_on channel=15 note=52 velocity=1 time=0
EXTRACT: note_on channel=10 note=57 velocity=114 time=0.03378375
EXTRACT: note_on channel=10 note=52 velocity=0 time=0.010135125
EXTRACT: note_on channel=9 note=36 velocity=0 time=0
EXTRACT: note_on channel=9 note=32 velocity=0 time=0
EXTRACT: note_on channel=9 note=26 velocity=0 time=0
EXTRACT: note_on channel=9 note=43 velocity=0 time=0
EXTRACT: note_on channel=9 note=42 velocity=0 time=0
EXTRACT: note_on channel=9 note=41 velocity=0 time=0
EXTRACT: note_on channel=10 note=57 velocity=0 time=0.03378375
EXTRACT: note_on channel=0 note=67 velocity=0 time=0.016891875
EXTRACT: note_on channel=7 note=55 velocity=0 time=0.10135124999999999
EXTRACT: note_on channel=0 note=74 velocity=115 time=0.00675675
EXTRACT: note_on channel=7 note=50 velocity=71 time=0
EXTRACT: note_on channel=9 note=26 velocity=30 time=0
EXTRACT: note_on channel=9 note=32 velocity=30 time=0
EXTRACT: note_on channel=9 note=36 velocity=114 time=0
EXTRACT: note_on channel=9 note=38 velocity=120 time=0
EXTRACT: note_on channel=9 note=57 velocity=110 time=0
EXTRACT: note_on channel=10 note=52 velocity=114 time=0
EXTRACT: note_on channel=10 note=57 velocity=114 time=0.03378375
EXTRACT: note_on channel=10 note=52 velocity=0 time=0.010135125
EXTRACT: note_on channel=9 note=57 velocity=0 time=0
EXTRACT: note_on channel=9 note=36 velocity=0 time=0
EXTRACT: note_on channel=9 note=32 velocity=0 time=0
EXTRACT: note_on channel=9 note=26 velocity=0 time=0
EXTRACT: note_on channel=9 note=38 velocity=0 time=0
EXTRACT: note_on channel=10 note=57 velocity=0 time=0.03378375
EXTRACT: note_on channel=0 note=74 velocity=0 time=0.016891875
EXTRACT: note_on channel=2 note=62 velocity=0 time=0.10135124999999999
EXTRACT: note_on channel=11 note=91 velocity=0 time=0
EXTRACT: note_on channel=5 note=43 velocity=0 time=0
EXTRACT: note_on channel=4 note=47 velocity=0 time=0
EXTRACT: note_on channel=2 note=67 velocity=0 time=0
EXTRACT: note_on channel=5 note=62 velocity=0 time=0
EXTRACT: note_on channel=2 note=59 velocity=0 time=0
EXTRACT: note_on channel=15 note=52 velocity=0 time=0
EXTRACT: note_on channel=15 note=59 velocity=0 time=0
EXTRACT: note_on channel=15 note=47 velocity=0 time=0
EXTRACT: note_on channel=1 note=31 velocity=0 time=0
EXTRACT: note_on channel=11 note=83 velocity=0 time=0
EXTRACT: note_on channel=11 note=86 velocity=0 time=0
EXTRACT: note_on channel=4 note=52 velocity=0 time=0
EXTRACT: note_on channel=5 note=55 velocity=0 time=0
EXTRACT: note_on channel=5 note=59 velocity=0 time=0
EXTRACT: note_on channel=6 note=43 velocity=0 time=0
EXTRACT: note_on channel=7 note=50 velocity=0 time=0
EXTRACT: note_on channel=4 note=59 velocity=0 time=0
EXTRACT: note_on channel=3 note=59 velocity=0 time=0
EXTRACT: note_on channel=6 note=50 velocity=0 time=0
EXTRACT: note_on channel=0 note=74 velocity=112 time=0.00675675
EXTRACT: note_on channel=1 note=38 velocity=121 time=0
EXTRACT: note_on channel=2 note=57 velocity=102 time=0
EXTRACT: note_on channel=2 note=62 velocity=102 time=0
EXTRACT: note_on channel=2 note=66 velocity=102 time=0
EXTRACT: note_on channel=3 note=57 velocity=118 time=0
EXTRACT: note_on channel=4 note=45 velocity=118 time=0
EXTRACT: note_on channel=4 note=50 velocity=118 time=0
EXTRACT: note_on channel=4 note=57 velocity=118 time=0
EXTRACT: note_on channel=5 note=50 velocity=100 time=0
EXTRACT: note_on channel=5 note=54 velocity=100 time=0
EXTRACT: note_on channel=5 note=57 velocity=100 time=0
EXTRACT: note_on channel=5 note=62 velocity=100 time=0
EXTRACT: note_on channel=6 note=45 velocity=99 time=0
EXTRACT: note_on channel=6 note=50 velocity=99 time=0
EXTRACT: note_on channel=7 note=50 velocity=104 time=0
EXTRACT: note_on channel=8 note=38 velocity=79 time=0
EXTRACT: note_on channel=9 note=26 velocity=50 time=0
EXTRACT: note_on channel=9 note=32 velocity=50 time=0
EXTRACT: note_on channel=9 note=36 velocity=120 time=0
EXTRACT: note_on channel=9 note=42 velocity=80 time=0
EXTRACT: note_on channel=10 note=52 velocity=120 time=0
EXTRACT: note_on channel=11 note=81 velocity=102 time=0
EXTRACT: note_on channel=11 note=86 velocity=102 time=0
EXTRACT: note_on channel=11 note=90 velocity=102 time=0
EXTRACT: note_on channel=15 note=57 velocity=1 time=0
EXTRACT: note_on channel=15 note=45 velocity=1 time=0
EXTRACT: note_on channel=15 note=50 velocity=1 time=0
EXTRACT: note_on channel=10 note=57 velocity=120 time=0.037162125
EXTRACT: note_on channel=10 note=52 velocity=0 time=0.00675675
EXTRACT: note_on channel=9 note=42 velocity=0 time=0
EXTRACT: note_on channel=9 note=36 velocity=0 time=0
EXTRACT: note_on channel=9 note=26 velocity=0 time=0
EXTRACT: note_on channel=9 note=32 velocity=0 time=0
EXTRACT: note_on channel=10 note=57 velocity=0 time=0.037162125
EXTRACT: note_on channel=0 note=74 velocity=0 time=0.0135135
EXTRACT: note_on channel=7 note=50 velocity=0 time=0.10135124999999999
EXTRACT: note_on channel=0 note=78 velocity=115 time=0.00675675
EXTRACT: note_on channel=7 note=54 velocity=93 time=0
EXTRACT: note_on channel=9 note=26 velocity=30 time=0
EXTRACT: note_on channel=9 note=32 velocity=30 time=0
EXTRACT: note_on channel=9 note=32 velocity=0 time=0.043918874999999996
EXTRACT: note_on channel=9 note=26 velocity=0 time=0
EXTRACT: note_on channel=0 note=78 velocity=0 time=0.050675624999999995
EXTRACT: note_on channel=3 note=57 velocity=0 time=0.10135124999999999
EXTRACT: note_on channel=7 note=54 velocity=0 time=0
EXTRACT: note_on channel=8 note=38 velocity=0 time=0
EXTRACT: note_on channel=4 note=57 velocity=0 time=0
EXTRACT: note_on channel=4 note=50 velocity=0 time=0
EXTRACT: note_on channel=4 note=45 velocity=0 time=0
EXTRACT: note_on channel=15 note=57 velocity=0 time=0
EXTRACT: note_on channel=15 note=50 velocity=0 time=0
EXTRACT: note_on channel=15 note=45 velocity=0 time=0
EXTRACT: note_on channel=0 note=81 velocity=118 time=0.00675675
EXTRACT: note_on channel=7 note=57 velocity=89 time=0
EXTRACT: note_on channel=9 note=26 velocity=50 time=0
EXTRACT: note_on channel=9 note=32 velocity=50 time=0
EXTRACT: note_on channel=9 note=42 velocity=70 time=0
EXTRACT: note_on channel=9 note=42 velocity=0 time=0.043918874999999996
EXTRACT: note_on channel=9 note=32 velocity=0 time=0
EXTRACT: note_on channel=9 note=26 velocity=0 time=0
EXTRACT: note_on channel=0 note=81 velocity=0 time=0.050675624999999995
EXTRACT: note_on channel=7 note=57 velocity=0 time=0.10135124999999999
EXTRACT: note_on channel=0 note=78 velocity=118 time=0.00675675
EXTRACT: note_on channel=7 note=54 velocity=77 time=0
EXTRACT: note_on channel=9 note=26 velocity=30 time=0
EXTRACT: note_on channel=9 note=32 velocity=30 time=0
EXTRACT: note_on channel=9 note=32 velocity=0 time=0.043918874999999996
EXTRACT: note_on channel=9 note=26 velocity=0 time=0
EXTRACT: note_on channel=0 note=78 velocity=0 time=0.050675624999999995
EXTRACT: note_on channel=7 note=54 velocity=0 time=0.10135124999999999
EXTRACT: note_on channel=0 note=81 velocity=113 time=0.00675675
EXTRACT: note_on channel=7 note=57 velocity=98 time=0
EXTRACT: note_on channel=9 note=26 velocity=50 time=0
EXTRACT: note_on channel=9 note=32 velocity=50 time=0
EXTRACT: note_on channel=9 note=38 velocity=120 time=0
EXTRACT: note_on channel=9 note=42 velocity=80 time=0
EXTRACT: note_on channel=9 note=42 velocity=0 time=0.043918874999999996
EXTRACT: note_on channel=9 note=38 velocity=0 time=0
EXTRACT: note_on channel=9 note=32 velocity=0 time=0
EXTRACT: note_on channel=9 note=26 velocity=0 time=0
EXTRACT: note_on channel=0 note=81 velocity=0 time=0.050675624999999995
EXTRACT: note_on channel=7 note=57 velocity=0 time=0.10135124999999999
EXTRACT: note_on channel=0 note=78 velocity=113 time=0.00675675
EXTRACT: note_on channel=7 note=54 velocity=98 time=0
EXTRACT: note_on channel=9 note=26 velocity=30 time=0
EXTRACT: note_on channel=9 note=32 velocity=30 time=0
EXTRACT: note_on channel=9 note=32 velocity=0 time=0.043918874999999996
EXTRACT: note_on channel=9 note=26 velocity=0 time=0
EXTRACT: note_on channel=0 note=78 velocity=0 time=0.050675624999999995
EXTRACT: note_on channel=7 note=54 velocity=0 time=0.10135124999999999
EXTRACT: note_on channel=0 note=74 velocity=109 time=0.00675675
EXTRACT: note_on channel=7 note=50 velocity=101 time=0
EXTRACT: note_on channel=9 note=26 velocity=50 time=0
EXTRACT: note_on channel=9 note=32 velocity=50 time=0
EXTRACT: note_on channel=9 note=42 velocity=70 time=0
EXTRACT: note_on channel=9 note=42 velocity=0 time=0.043918874999999996
EXTRACT: note_on channel=9 note=32 velocity=0 time=0
EXTRACT: note_on channel=9 note=26 velocity=0 time=0
EXTRACT: note_on channel=0 note=74 velocity=0 time=0.050675624999999995
EXTRACT: note_on channel=7 note=50 velocity=0 time=0.10135124999999999
EXTRACT: note_on channel=1 note=38 velocity=0 time=0
EXTRACT: note_on channel=0 note=78 velocity=110 time=0.00675675
EXTRACT: note_on channel=1 note=38 velocity=121 time=0
EXTRACT: note_on channel=7 note=54 velocity=95 time=0
EXTRACT: note_on channel=9 note=26 velocity=30 time=0
EXTRACT: note_on channel=9 note=32 velocity=30 time=0
EXTRACT: note_on channel=9 note=36 velocity=120 time=0
EXTRACT: note_on channel=10 note=52 velocity=120 time=0
EXTRACT: note_on channel=10 note=57 velocity=120 time=0.03378375
EXTRACT: note_on channel=10 note=52 velocity=0 time=0.010135125
EXTRACT: note_on channel=9 note=36 velocity=0 time=0
EXTRACT: note_on channel=9 note=32 velocity=0 time=0
EXTRACT: note_on channel=9 note=26 velocity=0 time=0
EXTRACT: note_on channel=10 note=57 velocity=0 time=0.03378375
EXTRACT: note_on channel=0 note=78 velocity=0 time=0.016891875
EXTRACT: note_on channel=7 note=54 velocity=0 time=0.10135124999999999
EXTRACT: note_on channel=0 note=74 velocity=113 time=0.00675675
EXTRACT: note_on channel=7 note=50 velocity=104 time=0
EXTRACT: note_on channel=9 note=26 velocity=50 time=0
EXTRACT: note_on channel=9 note=32 velocity=50 time=0
EXTRACT: note_on channel=9 note=42 velocity=80 time=0
EXTRACT: note_on channel=9 note=42 velocity=0 time=0.043918874999999996
EXTRACT: note_on channel=9 note=32 velocity=0 time=0
EXTRACT: note_on channel=9 note=26 velocity=0 time=0
EXTRACT: note_on channel=0 note=74 velocity=0 time=0.050675624999999995
EXTRACT: note_on channel=7 note=50 velocity=0 time=0.10135124999999999
EXTRACT: note_on channel=1 note=38 velocity=0 time=0
EXTRACT: note_on channel=0 note=78 velocity=114 time=0.00675675
EXTRACT: note_on channel=1 note=38 velocity=121 time=0
EXTRACT: note_on channel=7 note=54 velocity=86 time=0
EXTRACT: note_on channel=9 note=26 velocity=30 time=0
EXTRACT: note_on channel=9 note=32 velocity=30 time=0
EXTRACT: note_on channel=9 note=36 velocity=120 time=0
EXTRACT: note_on channel=10 note=52 velocity=120 time=0
EXTRACT: note_on channel=10 note=57 velocity=120 time=0.03378375
EXTRACT: note_on channel=10 note=52 velocity=0 time=0.010135125
EXTRACT: note_on channel=9 note=36 velocity=0 time=0
EXTRACT: note_on channel=9 note=32 velocity=0 time=0
EXTRACT: note_on channel=9 note=26 velocity=0 time=0
EXTRACT: note_on channel=10 note=57 velocity=0 time=0.03378375
EXTRACT: note_on channel=0 note=78 velocity=0 time=0.016891875
EXTRACT: note_on channel=7 note=54 velocity=0 time=0.10135124999999999
EXTRACT: note_on channel=1 note=38 velocity=0 time=0
EXTRACT: note_on channel=0 note=81 velocity=111 time=0.00675675
EXTRACT: note_on channel=1 note=38 velocity=121 time=0
EXTRACT: note_on channel=7 note=57 velocity=101 time=0
EXTRACT: note_on channel=9 note=26 velocity=50 time=0
EXTRACT: note_on channel=9 note=32 velocity=50 time=0
EXTRACT: note_on channel=9 note=36 velocity=120 time=0
EXTRACT: note_on channel=9 note=42 velocity=70 time=0
EXTRACT: note_on channel=10 note=52 velocity=120 time=0
EXTRACT: note_on channel=10 note=57 velocity=120 time=0.03378375
EXTRACT: note_on channel=10 note=52 velocity=0 time=0.010135125
EXTRACT: note_on channel=9 note=42 velocity=0 time=0
EXTRACT: note_on channel=9 note=32 velocity=0 time=0
EXTRACT: note_on channel=9 note=26 velocity=0 time=0
EXTRACT: note_on channel=9 note=36 velocity=0 time=0
EXTRACT: note_on channel=10 note=57 velocity=0 time=0.03378375
EXTRACT: note_on channel=0 note=81 velocity=0 time=0.016891875
EXTRACT: note_on channel=7 note=57 velocity=0 time=0.10135124999999999
EXTRACT: note_on channel=0 note=78 velocity=112 time=0.00675675
EXTRACT: note_on channel=7 note=54 velocity=98 time=0
EXTRACT: note_on channel=9 note=26 velocity=30 time=0
EXTRACT: note_on channel=9 note=32 velocity=30 time=0
EXTRACT: note_on channel=9 note=32 velocity=0 time=0.043918874999999996
EXTRACT: note_on channel=9 note=26 velocity=0 time=0
EXTRACT: note_on channel=0 note=78 velocity=0 time=0.050675624999999995
EXTRACT: note_on channel=7 note=54 velocity=0 time=0.10135124999999999
EXTRACT: note_on channel=0 note=81 velocity=113 time=0.00675675
EXTRACT: note_on channel=7 note=57 velocity=101 time=0
EXTRACT: note_on channel=9 note=26 velocity=50 time=0
EXTRACT: note_on channel=9 note=32 velocity=50 time=0
EXTRACT: note_on channel=9 note=38 velocity=120 time=0
EXTRACT: note_on channel=9 note=42 velocity=80 time=0
EXTRACT: note_on channel=9 note=42 velocity=0 time=0.043918874999999996
EXTRACT: note_on channel=9 note=38 velocity=0 time=0
EXTRACT: note_on channel=9 note=32 velocity=0 time=0
EXTRACT: note_on channel=9 note=26 velocity=0 time=0
EXTRACT: note_on channel=0 note=81 velocity=0 time=0.050675624999999995
EXTRACT: note_on channel=7 note=57 velocity=0 time=0.10135124999999999
EXTRACT: note_on channel=0 note=78 velocity=115 time=0.00675675
EXTRACT: note_on channel=7 note=54 velocity=93 time=0
EXTRACT: note_on channel=9 note=26 velocity=30 time=0
EXTRACT: note_on channel=9 note=32 velocity=30 time=0
EXTRACT: note_on channel=9 note=32 velocity=0 time=0.043918874999999996
EXTRACT: note_on channel=9 note=26 velocity=0 time=0
EXTRACT: note_on channel=0 note=78 velocity=0 time=0.050675624999999995
EXTRACT: note_on channel=7 note=54 velocity=0 time=0.10135124999999999
EXTRACT: note_on channel=0 note=74 velocity=115 time=0.00675675
EXTRACT: note_on channel=7 note=50 velocity=90 time=0
EXTRACT: note_on channel=9 note=26 velocity=50 time=0
EXTRACT: note_on channel=9 note=32 velocity=50 time=0
EXTRACT: note_on channel=9 note=42 velocity=70 time=0
EXTRACT: note_on channel=9 note=42 velocity=0 time=0.043918874999999996
EXTRACT: note_on channel=9 note=32 velocity=0 time=0
EXTRACT: note_on channel=9 note=26 velocity=0 time=0
EXTRACT: note_on channel=0 note=74 velocity=0 time=0.050675624999999995
EXTRACT: note_on channel=7 note=50 velocity=0 time=0.10135124999999999
EXTRACT: note_on channel=0 note=78 velocity=115 time=0.00675675
EXTRACT: note_on channel=7 note=54 velocity=90 time=0
EXTRACT: note_on channel=9 note=26 velocity=30 time=0
EXTRACT: note_on channel=9 note=32 velocity=30 time=0
EXTRACT: note_on channel=12 note=67 velocity=100 time=0
EXTRACT: note_on channel=9 note=32 velocity=0 time=0.043918874999999996
EXTRACT: note_on channel=9 note=26 velocity=0 time=0
EXTRACT: note_on channel=12 note=65 velocity=100 time=0.023648625
EXTRACT: note_on channel=12 note=67 velocity=0 time=0.027027
EXTRACT: note_on channel=0 note=78 velocity=0 time=0
EXTRACT: note_on channel=12 note=63 velocity=100 time=0.0405405
EXTRACT: note_on channel=12 note=65 velocity=0 time=0.027027
EXTRACT: note_on channel=2 note=57 velocity=0 time=0.03378375
EXTRACT: note_on channel=2 note=62 velocity=0 time=0
EXTRACT: note_on channel=1 note=38 velocity=0 time=0
EXTRACT: note_on channel=5 note=62 velocity=0 time=0
EXTRACT: note_on channel=11 note=86 velocity=0 time=0
EXTRACT: note_on channel=5 note=54 velocity=0 time=0
EXTRACT: note_on channel=11 note=90 velocity=0 time=0
EXTRACT: note_on channel=6 note=45 velocity=0 time=0
EXTRACT: note_on channel=11 note=81 velocity=0 time=0
EXTRACT: note_on channel=5 note=50 velocity=0 time=0
EXTRACT: note_on channel=6 note=50 velocity=0 time=0
EXTRACT: note_on channel=2 note=66 velocity=0 time=0
EXTRACT: note_on channel=5 note=57 velocity=0 time=0
EXTRACT: note_on channel=7 note=54 velocity=0 time=0
EXTRACT: note_on channel=0 note=73 velocity=112 time=0.00675675
EXTRACT: note_on channel=1 note=37 velocity=120 time=0
EXTRACT: note_on channel=2 note=57 velocity=100 time=0
EXTRACT: note_on channel=2 note=61 velocity=100 time=0
EXTRACT: note_on channel=2 note=66 velocity=100 time=0
EXTRACT: note_on channel=5 note=49 velocity=99 time=0
EXTRACT: note_on channel=5 note=54 velocity=99 time=0
EXTRACT: note_on channel=5 note=57 velocity=99 time=0
EXTRACT: note_on channel=5 note=61 velocity=99 time=0
EXTRACT: note_on channel=6 note=42 velocity=101 time=0
EXTRACT: note_on channel=6 note=49 velocity=101 time=0
EXTRACT: note_on channel=7 note=49 velocity=104 time=0
EXTRACT: note_on channel=8 note=37 velocity=79 time=0
EXTRACT: note_on channel=9 note=26 velocity=50 time=0
EXTRACT: note_on channel=9 note=32 velocity=50 time=0
EXTRACT: note_on channel=9 note=36 velocity=120 time=0
EXTRACT: note_on channel=9 note=42 velocity=80 time=0
EXTRACT: note_on channel=10 note=52 velocity=120 time=0
EXTRACT: note_on channel=11 note=81 velocity=100 time=0
EXTRACT: note_on channel=11 note=85 velocity=100 time=0
EXTRACT: note_on channel=11 note=90 velocity=100 time=0
EXTRACT: note_on channel=12 note=61 velocity=114 time=0
EXTRACT: note_on channel=12 note=63 velocity=0 time=0.027027
EXTRACT: note_on channel=10 note=57 velocity=120 time=0.00675675
EXTRACT: note_on channel=10 note=52 velocity=0 time=0.010135125
EXTRACT: note_on channel=9 note=42 velocity=0 time=0
EXTRACT: note_on channel=9 note=36 velocity=0 time=0
EXTRACT: note_on channel=9 note=32 velocity=0 time=0
EXTRACT: note_on channel=9 note=26 velocity=0 time=0
EXTRACT: note_on channel=10 note=57 velocity=0 time=0.03378375
EXTRACT: note_on channel=0 note=73 velocity=0 time=0.016891875
EXTRACT: note_on channel=12 note=61 velocity=0 time=0
EXTRACT: note_on channel=7 note=49 velocity=0 time=0.10135124999999999
EXTRACT: note_on channel=0 note=78 velocity=115 time=0.00675675
EXTRACT: note_on channel=7 note=54 velocity=93 time=0
EXTRACT: note_on channel=9 note=26 velocity=30 time=0
EXTRACT: note_on channel=9 note=32 velocity=30 time=0
EXTRACT: note_on channel=9 note=32 velocity=0 time=0.043918874999999996
EXTRACT: note_on channel=9 note=26 velocity=0 time=0
EXTRACT: note_on channel=0 note=78 velocity=0 time=0.050675624999999995
EXTRACT: note_on channel=7 note=54 velocity=0 time=0.10135124999999999
EXTRACT: note_on channel=8 note=37 velocity=0 time=0
EXTRACT: note_on channel=0 note=81 velocity=118 time=0.00675675
EXTRACT: note_on channel=7 note=57 velocity=89 time=0
EXTRACT: note_on channel=9 note=26 velocity=50 time=0
EXTRACT: note_on channel=9 note=32 velocity=50 time=0
EXTRACT: note_on channel=9 note=42 velocity=70 time=0
EXTRACT: note_on channel=9 note=42 velocity=0 time=0.043918874999999996
EXTRACT: note_on channel=9 note=32 velocity=0 time=0
EXTRACT: note_on channel=9 note=26 velocity=0 time=0
EXTRACT: note_on channel=0 note=81 velocity=0 time=0.050675624999999995
EXTRACT: note_on channel=7 note=57 velocity=0 time=0.10135124999999999
EXTRACT: note_on channel=0 note=78 velocity=118 time=0.00675675
EXTRACT: note_on channel=7 note=54 velocity=77 time=0
EXTRACT: note_on channel=9 note=26 velocity=30 time=0
EXTRACT: note_on channel=9 note=32 velocity=30 time=0
EXTRACT: note_on channel=9 note=32 velocity=0 time=0.043918874999999996
EXTRACT: note_on channel=9 note=26 velocity=0 time=0
EXTRACT: note_on channel=0 note=78 velocity=0 time=0.050675624999999995
EXTRACT: note_on channel=7 note=54 velocity=0 time=0.10135124999999999
EXTRACT: note_on channel=0 note=81 velocity=113 time=0.00675675
EXTRACT: note_on channel=7 note=57 velocity=98 time=0
EXTRACT: note_on channel=9 note=26 velocity=50 time=0
EXTRACT: note_on channel=9 note=32 velocity=50 time=0
EXTRACT: note_on channel=9 note=38 velocity=120 time=0
EXTRACT: note_on channel=9 note=42 velocity=80 time=0
EXTRACT: note_on channel=9 note=42 velocity=0 time=0.043918874999999996
EXTRACT: note_on channel=9 note=38 velocity=0 time=0
EXTRACT: note_on channel=9 note=32 velocity=0 time=0
EXTRACT: note_on channel=9 note=26 velocity=0 time=0
EXTRACT: note_on channel=0 note=81 velocity=0 time=0.050675624999999995
EXTRACT: note_on channel=7 note=57 velocity=0 time=0.10135124999999999
EXTRACT: note_on channel=0 note=78 velocity=113 time=0.00675675
EXTRACT: note_on channel=7 note=54 velocity=98 time=0
EXTRACT: note_on channel=9 note=26 velocity=30 time=0
EXTRACT: note_on channel=9 note=32 velocity=30 time=0
EXTRACT: note_on channel=9 note=32 velocity=0 time=0.043918874999999996
EXTRACT: note_on channel=9 note=26 velocity=0 time=0
EXTRACT: note_on channel=0 note=78 velocity=0 time=0.050675624999999995
EXTRACT: note_on channel=7 note=54 velocity=0 time=0.10135124999999999
EXTRACT: note_on channel=0 note=73 velocity=109 time=0.00675675
EXTRACT: note_on channel=7 note=49 velocity=101 time=0
EXTRACT: note_on channel=9 note=26 velocity=50 time=0
EXTRACT: note_on channel=9 note=32 velocity=50 time=0
EXTRACT: note_on channel=9 note=42 velocity=70 time=0
EXTRACT: note_on channel=9 note=42 velocity=0 time=0.043918874999999996
EXTRACT: note_on channel=9 note=32 velocity=0 time=0
EXTRACT: note_on channel=9 note=26 velocity=0 time=0
EXTRACT: note_on channel=0 note=73 velocity=0 time=0.050675624999999995
EXTRACT: note_on channel=7 note=49 velocity=0 time=0.10135124999999999
EXTRACT: note_on channel=1 note=37 velocity=0 time=0
EXTRACT: note_on channel=0 note=78 velocity=110 time=0.00675675
EXTRACT: note_on channel=1 note=37 velocity=120 time=0
EXTRACT: note_on channel=7 note=54 velocity=95 time=0
EXTRACT: note_on channel=9 note=26 velocity=30 time=0
EXTRACT: note_on channel=9 note=32 velocity=30 time=0
EXTRACT: note_on channel=9 note=36 velocity=120 time=0
EXTRACT: note_on channel=10 note=52 velocity=120 time=0
EXTRACT: note_on channel=10 note=57 velocity=120 time=0.03378375
EXTRACT: note_on channel=10 note=52 velocity=0 time=0.010135125
EXTRACT: note_on channel=9 note=36 velocity=0 time=0
EXTRACT: note_on channel=9 note=32 velocity=0 time=0
EXTRACT: note_on channel=9 note=26 velocity=0 time=0
EXTRACT: note_on channel=10 note=57 velocity=0 time=0.03378375
EXTRACT: note_on channel=0 note=78 velocity=0 time=0.016891875
EXTRACT: note_on channel=7 note=54 velocity=0 time=0.10135124999999999
EXTRACT: note_on channel=0 note=73 velocity=113 time=0.00675675
EXTRACT: note_on channel=7 note=49 velocity=104 time=0
EXTRACT: note_on channel=9 note=26 velocity=50 time=0
EXTRACT: note_on channel=9 note=32 velocity=50 time=0
EXTRACT: note_on channel=9 note=42 velocity=80 time=0
EXTRACT: note_on channel=9 note=42 velocity=0 time=0.043918874999999996
EXTRACT: note_on channel=9 note=32 velocity=0 time=0
EXTRACT: note_on channel=9 note=26 velocity=0 time=0
EXTRACT: note_on channel=0 note=73 velocity=0 time=0.050675624999999995
EXTRACT: note_on channel=7 note=49 velocity=0 time=0.10135124999999999
EXTRACT: note_on channel=1 note=37 velocity=0 time=0
EXTRACT: note_on channel=0 note=78 velocity=114 time=0.00675675
EXTRACT: note_on channel=1 note=37 velocity=120 time=0
EXTRACT: note_on channel=7 note=54 velocity=86 time=0
EXTRACT: note_on channel=9 note=26 velocity=30 time=0
EXTRACT: note_on channel=9 note=32 velocity=30 time=0
EXTRACT: note_on channel=9 note=36 velocity=120 time=0
EXTRACT: note_on channel=10 note=52 velocity=120 time=0
EXTRACT: note_on channel=10 note=57 velocity=120 time=0.03378375
EXTRACT: note_on channel=10 note=52 velocity=0 time=0.010135125
EXTRACT: note_on channel=9 note=36 velocity=0 time=0
EXTRACT: note_on channel=9 note=32 velocity=0 time=0
EXTRACT: note_on channel=9 note=26 velocity=0 time=0
EXTRACT: note_on channel=10 note=57 velocity=0 time=0.03378375
EXTRACT: note_on channel=0 note=78 velocity=0 time=0.016891875
EXTRACT: note_on channel=7 note=54 velocity=0 time=0.10135124999999999
EXTRACT: note_on channel=1 note=37 velocity=0 time=0
EXTRACT: note_on channel=0 note=81 velocity=111 time=0.00675675
EXTRACT: note_on channel=1 note=37 velocity=120 time=0
EXTRACT: note_on channel=7 note=57 velocity=101 time=0
EXTRACT: note_on channel=9 note=26 velocity=50 time=0
EXTRACT: note_on channel=9 note=32 velocity=50 time=0
EXTRACT: note_on channel=9 note=36 velocity=120 time=0
EXTRACT: note_on channel=9 note=42 velocity=70 time=0
EXTRACT: note_on channel=10 note=52 velocity=120 time=0
EXTRACT: note_on channel=10 note=57 velocity=120 time=0.03378375
EXTRACT: note_on channel=10 note=52 velocity=0 time=0.010135125
EXTRACT: note_on channel=9 note=42 velocity=0 time=0
EXTRACT: note_on channel=9 note=32 velocity=0 time=0
EXTRACT: note_on channel=9 note=26 velocity=0 time=0
EXTRACT: note_on channel=9 note=36 velocity=0 time=0
EXTRACT: note_on channel=10 note=57 velocity=0 time=0.03378375
EXTRACT: note_on channel=0 note=81 velocity=0 time=0.016891875
EXTRACT: note_on channel=7 note=57 velocity=0 time=0.10135124999999999
EXTRACT: note_on channel=0 note=78 velocity=112 time=0.00675675
EXTRACT: note_on channel=7 note=54 velocity=98 time=0
EXTRACT: note_on channel=9 note=26 velocity=30 time=0
EXTRACT: note_on channel=9 note=32 velocity=30 time=0
EXTRACT: note_on channel=9 note=32 velocity=0 time=0.043918874999999996
EXTRACT: note_on channel=9 note=26 velocity=0 time=0
EXTRACT: note_on channel=0 note=78 velocity=0 time=0.050675624999999995
EXTRACT: note_on channel=7 note=54 velocity=0 time=0.10135124999999999
EXTRACT: note_on channel=0 note=81 velocity=113 time=0.00675675
EXTRACT: note_on channel=7 note=57 velocity=101 time=0
EXTRACT: note_on channel=9 note=26 velocity=50 time=0
EXTRACT: note_on channel=9 note=32 velocity=50 time=0
EXTRACT: note_on channel=9 note=38 velocity=120 time=0
EXTRACT: note_on channel=9 note=42 velocity=80 time=0
EXTRACT: note_on channel=9 note=42 velocity=0 time=0.043918874999999996
EXTRACT: note_on channel=9 note=38 velocity=0 time=0
EXTRACT: note_on channel=9 note=32 velocity=0 time=0
EXTRACT: note_on channel=9 note=26 velocity=0 time=0
EXTRACT: note_on channel=0 note=81 velocity=0 time=0.050675624999999995
EXTRACT: note_on channel=7 note=57 velocity=0 time=0.10135124999999999
EXTRACT: note_on channel=0 note=78 velocity=115 time=0.00675675
EXTRACT: note_on channel=7 note=54 velocity=93 time=0
EXTRACT: note_on channel=9 note=26 velocity=30 time=0
EXTRACT: note_on channel=9 note=32 velocity=30 time=0
EXTRACT: note_on channel=9 note=32 velocity=0 time=0.043918874999999996
EXTRACT: note_on channel=9 note=26 velocity=0 time=0
EXTRACT: note_on channel=0 note=78 velocity=0 time=0.050675624999999995
EXTRACT: note_on channel=7 note=54 velocity=0 time=0.10135124999999999
EXTRACT: note_on channel=0 note=73 velocity=115 time=0.00675675
EXTRACT: note_on channel=7 note=49 velocity=90 time=0
EXTRACT: note_on channel=9 note=26 velocity=50 time=0
EXTRACT: note_on channel=9 note=32 velocity=50 time=0
EXTRACT: note_on channel=9 note=36 velocity=114 time=0
EXTRACT: note_on channel=9 note=42 velocity=70 time=0
EXTRACT: note_on channel=10 note=52 velocity=114 time=0
EXTRACT: note_on channel=10 note=57 velocity=114 time=0.03378375
EXTRACT: note_on channel=10 note=52 velocity=0 time=0.010135125
EXTRACT: note_on channel=9 note=42 velocity=0 time=0
EXTRACT: note_on channel=9 note=32 velocity=0 time=0
EXTRACT: note_on channel=9 note=26 velocity=0 time=0
EXTRACT: note_on channel=9 note=36 velocity=0 time=0
EXTRACT: note_on channel=10 note=57 velocity=0 time=0.03378375
EXTRACT: note_on channel=0 note=73 velocity=0 time=0.016891875
EXTRACT: note_on channel=7 note=49 velocity=0 time=0.10135124999999999
EXTRACT: note_on channel=0 note=78 velocity=115 time=0.00675675
EXTRACT: note_on channel=7 note=54 velocity=90 time=0
EXTRACT: note_on channel=9 note=26 velocity=30 time=0
EXTRACT: note_on channel=9 note=32 velocity=30 time=0
EXTRACT: note_on channel=9 note=36 velocity=114 time=0
EXTRACT: note_on channel=10 note=52 velocity=114 time=0
EXTRACT: note_on channel=10 note=57 velocity=114 time=0.03378375
EXTRACT: note_on channel=10 note=52 velocity=0 time=0.010135125
EXTRACT: note_on channel=9 note=36 velocity=0 time=0
EXTRACT: note_on channel=9 note=32 velocity=0 time=0
EXTRACT: note_on channel=9 note=26 velocity=0 time=0
EXTRACT: note_on channel=10 note=57 velocity=0 time=0.03378375
EXTRACT: note_on channel=0 note=78 velocity=0 time=0.016891875
EXTRACT: note_on channel=2 note=57 velocity=0 time=0.10135124999999999
EXTRACT: note_on channel=1 note=37 velocity=0 time=0
EXTRACT: note_on channel=6 note=49 velocity=0 time=0
EXTRACT: note_on channel=2 note=66 velocity=0 time=0
EXTRACT: note_on channel=6 note=42 velocity=0 time=0
EXTRACT: note_on channel=11 note=90 velocity=0 time=0
EXTRACT: note_on channel=5 note=54 velocity=0 time=0
EXTRACT: note_on channel=5 note=57 velocity=0 time=0
EXTRACT: note_on channel=2 note=61 velocity=0 time=0
EXTRACT: note_on channel=5 note=49 velocity=0 time=0
EXTRACT: note_on channel=11 note=81 velocity=0 time=0
EXTRACT: note_on channel=11 note=85 velocity=0 time=0
EXTRACT: note_on channel=7 note=54 velocity=0 time=0
EXTRACT: note_on channel=5 note=61 velocity=0 time=0
EXTRACT: note_on channel=0 note=71 velocity=112 time=0.00675675
EXTRACT: note_on channel=1 note=35 velocity=120 time=0
EXTRACT: note_on channel=2 note=59 velocity=102 time=0
EXTRACT: note_on channel=2 note=62 velocity=102 time=0
EXTRACT: note_on channel=2 note=66 velocity=102 time=0
EXTRACT: note_on channel=5 note=47 velocity=99 time=0
EXTRACT: note_on channel=5 note=54 velocity=99 time=0
EXTRACT: note_on channel=5 note=59 velocity=99 time=0
EXTRACT: note_on channel=5 note=62 velocity=99 time=0
EXTRACT: note_on channel=6 note=47 velocity=98 time=0
EXTRACT: note_on channel=6 note=54 velocity=98 time=0
EXTRACT: note_on channel=7 note=47 velocity=104 time=0
EXTRACT: note_on channel=8 note=35 velocity=82 time=0
EXTRACT: note_on channel=9 note=26 velocity=50 time=0
EXTRACT: note_on channel=9 note=32 velocity=50 time=0
EXTRACT: note_on channel=9 note=36 velocity=120 time=0
EXTRACT: note_on channel=9 note=42 velocity=80 time=0
EXTRACT: note_on channel=10 note=52 velocity=120 time=0
EXTRACT: note_on channel=11 note=83 velocity=102 time=0
EXTRACT: note_on channel=11 note=86 velocity=102 time=0
EXTRACT: note_on channel=11 note=90 velocity=102 time=0
EXTRACT: note_on channel=10 note=57 velocity=120 time=0.037162125
EXTRACT: note_on channel=10 note=52 velocity=0 time=0.00675675
EXTRACT: note_on channel=9 note=42 velocity=0 time=0
EXTRACT: note_on channel=9 note=36 velocity=0 time=0
EXTRACT: note_on channel=9 note=32 velocity=0 time=0
EXTRACT: note_on channel=9 note=26 velocity=0 time=0
EXTRACT: note_on channel=10 note=57 velocity=0 time=0.037162125
EXTRACT: note_on channel=0 note=71 velocity=0 time=0.0135135
EXTRACT: note_on channel=7 note=47 velocity=0 time=0.10135124999999999
EXTRACT: note_on channel=0 note=78 velocity=115 time=0.00675675
EXTRACT: note_on channel=7 note=54 velocity=93 time=0
EXTRACT: note_on channel=9 note=26 velocity=30 time=0
EXTRACT: note_on channel=9 note=32 velocity=30 time=0
EXTRACT: note_on channel=9 note=32 velocity=0 time=0.043918874999999996
EXTRACT: note_on channel=9 note=26 velocity=0 time=0
EXTRACT: note_on channel=0 note=78 velocity=0 time=0.050675624999999995
EXTRACT: note_on channel=7 note=54 velocity=0 time=0.10135124999999999
EXTRACT: note_on channel=8 note=35 velocity=0 time=0
EXTRACT: note_on channel=0 note=83 velocity=118 time=0.00675675
EXTRACT: note_on channel=7 note=59 velocity=89 time=0
EXTRACT: note_on channel=9 note=26 velocity=50 time=0
EXTRACT: note_on channel=9 note=32 velocity=50 time=0
EXTRACT: note_on channel=9 note=42 velocity=70 time=0
EXTRACT: note_on channel=9 note=42 velocity=0 time=0.043918874999999996
EXTRACT: note_on channel=9 note=32 velocity=0 time=0
EXTRACT: note_on channel=9 note=26 velocity=0 time=0
EXTRACT: note_on channel=0 note=83 velocity=0 time=0.050675624999999995
EXTRACT: note_on channel=7 note=59 velocity=0 time=0.10135124999999999
EXTRACT: note_on channel=0 note=78 velocity=118 time=0.00675675
EXTRACT: note_on channel=7 note=54 velocity=77 time=0
EXTRACT: note_on channel=9 note=26 velocity=30 time=0
EXTRACT: note_on channel=9 note=32 velocity=30 time=0
EXTRACT: note_on channel=9 note=32 velocity=0 time=0.043918874999999996
EXTRACT: note_on channel=9 note=26 velocity=0 time=0
EXTRACT: note_on channel=0 note=78 velocity=0 time=0.050675624999999995
EXTRACT: note_on channel=7 note=54 velocity=0 time=0.10135124999999999
EXTRACT: note_on channel=0 note=83 velocity=113 time=0.00675675
EXTRACT: note_on channel=7 note=59 velocity=98 time=0
EXTRACT: note_on channel=9 note=26 velocity=50 time=0
EXTRACT: note_on channel=9 note=32 velocity=50 time=0
EXTRACT: note_on channel=9 note=38 velocity=120 time=0
EXTRACT: note_on channel=9 note=42 velocity=80 time=0
EXTRACT: note_on channel=9 note=42 velocity=0 time=0.043918874999999996
EXTRACT: note_on channel=9 note=38 velocity=0 time=0
EXTRACT: note_on channel=9 note=32 velocity=0 time=0
EXTRACT: note_on channel=9 note=26 velocity=0 time=0
EXTRACT: note_on channel=0 note=83 velocity=0 time=0.050675624999999995
EXTRACT: note_on channel=7 note=59 velocity=0 time=0.10135124999999999
EXTRACT: note_on channel=0 note=78 velocity=113 time=0.00675675
EXTRACT: note_on channel=7 note=54 velocity=98 time=0
EXTRACT: note_on channel=9 note=26 velocity=30 time=0
EXTRACT: note_on channel=9 note=32 velocity=30 time=0
EXTRACT: note_on channel=9 note=32 velocity=0 time=0.043918874999999996
EXTRACT: note_on channel=9 note=26 velocity=0 time=0
EXTRACT: note_on channel=0 note=78 velocity=0 time=0.050675624999999995
EXTRACT: note_on channel=7 note=54 velocity=0 time=0.10135124999999999
EXTRACT: note_on channel=0 note=71 velocity=109 time=0.00675675
EXTRACT: note_on channel=7 note=47 velocity=101 time=0
EXTRACT: note_on channel=9 note=26 velocity=50 time=0
EXTRACT: note_on channel=9 note=32 velocity=50 time=0
EXTRACT: note_on channel=9 note=42 velocity=70 time=0
EXTRACT: note_on channel=9 note=42 velocity=0 time=0.043918874999999996
EXTRACT: note_on channel=9 note=32 velocity=0 time=0
EXTRACT: note_on channel=9 note=26 velocity=0 time=0
EXTRACT: note_on channel=0 note=71 velocity=0 time=0.050675624999999995
EXTRACT: note_on channel=7 note=47 velocity=0 time=0.10135124999999999
EXTRACT: note_on channel=1 note=35 velocity=0 time=0
EXTRACT: note_on channel=0 note=78 velocity=110 time=0.00675675
EXTRACT: note_on channel=1 note=35 velocity=120 time=0
EXTRACT: note_on channel=7 note=54 velocity=95 time=0
EXTRACT: note_on channel=9 note=26 velocity=30 time=0
EXTRACT: note_on channel=9 note=32 velocity=30 time=0
EXTRACT: note_on channel=9 note=36 velocity=120 time=0
EXTRACT: note_on channel=10 note=52 velocity=120 time=0
EXTRACT: note_on channel=10 note=57 velocity=120 time=0.03378375
EXTRACT: note_on channel=10 note=52 velocity=0 time=0.010135125
EXTRACT: note_on channel=9 note=36 velocity=0 time=0
EXTRACT: note_on channel=9 note=32 velocity=0 time=0
EXTRACT: note_on channel=9 note=26 velocity=0 time=0
EXTRACT: note_on channel=10 note=57 velocity=0 time=0.03378375
EXTRACT: note_on channel=0 note=78 velocity=0 time=0.016891875
EXTRACT: note_on channel=7 note=54 velocity=0 time=0.10135124999999999
EXTRACT: note_on channel=0 note=71 velocity=113 time=0.00675675
EXTRACT: note_on channel=7 note=47 velocity=104 time=0
EXTRACT: note_on channel=9 note=26 velocity=50 time=0
EXTRACT: note_on channel=9 note=32 velocity=50 time=0
EXTRACT: note_on channel=9 note=42 velocity=80 time=0
EXTRACT: note_on channel=9 note=42 velocity=0 time=0.043918874999999996
EXTRACT: note_on channel=9 note=32 velocity=0 time=0
EXTRACT: note_on channel=9 note=26 velocity=0 time=0
EXTRACT: note_on channel=0 note=71 velocity=0 time=0.050675624999999995
EXTRACT: note_on channel=7 note=47 velocity=0 time=0.10135124999999999
EXTRACT: note_on channel=1 note=35 velocity=0 time=0
EXTRACT: note_on channel=0 note=78 velocity=114 time=0.00675675
EXTRACT: note_on channel=1 note=35 velocity=120 time=0
EXTRACT: note_on channel=7 note=54 velocity=86 time=0
EXTRACT: note_on channel=9 note=26 velocity=30 time=0
EXTRACT: note_on channel=9 note=32 velocity=30 time=0
EXTRACT: note_on channel=9 note=36 velocity=120 time=0
EXTRACT: note_on channel=10 note=52 velocity=120 time=0
EXTRACT: note_on channel=10 note=57 velocity=120 time=0.03378375
EXTRACT: note_on channel=10 note=52 velocity=0 time=0.010135125
EXTRACT: note_on channel=9 note=36 velocity=0 time=0
EXTRACT: note_on channel=9 note=32 velocity=0 time=0
EXTRACT: note_on channel=9 note=26 velocity=0 time=0
EXTRACT: note_on channel=10 note=57 velocity=0 time=0.03378375
EXTRACT: note_on channel=0 note=78 velocity=0 time=0.016891875
EXTRACT: note_on channel=7 note=54 velocity=0 time=0.10135124999999999
EXTRACT: note_on channel=1 note=35 velocity=0 time=0
EXTRACT: note_on channel=0 note=83 velocity=111 time=0.00675675
EXTRACT: note_on channel=1 note=35 velocity=120 time=0
EXTRACT: note_on channel=7 note=59 velocity=101 time=0
EXTRACT: note_on channel=9 note=26 velocity=50 time=0
EXTRACT: note_on channel=9 note=32 velocity=50 time=0
EXTRACT: note_on channel=9 note=36 velocity=120 time=0
EXTRACT: note_on channel=9 note=42 velocity=70 time=0
EXTRACT: note_on channel=10 note=52 velocity=120 time=0
EXTRACT: note_on channel=10 note=57 velocity=120 time=0.03378375
EXTRACT: note_on channel=10 note=52 velocity=0 time=0.010135125
EXTRACT: note_on channel=9 note=42 velocity=0 time=0
EXTRACT: note_on channel=9 note=32 velocity=0 time=0
EXTRACT: note_on channel=9 note=26 velocity=0 time=0
EXTRACT: note_on channel=9 note=36 velocity=0 time=0
EXTRACT: note_on channel=10 note=57 velocity=0 time=0.03378375
EXTRACT: note_on channel=0 note=83 velocity=0 time=0.016891875
EXTRACT: note_on channel=7 note=59 velocity=0 time=0.10135124999999999
EXTRACT: note_on channel=0 note=78 velocity=112 time=0.00675675
EXTRACT: note_on channel=7 note=54 velocity=98 time=0
EXTRACT: note_on channel=9 note=26 velocity=30 time=0
EXTRACT: note_on channel=9 note=32 velocity=30 time=0
EXTRACT: note_on channel=9 note=32 velocity=0 time=0.043918874999999996
EXTRACT: note_on channel=9 note=26 velocity=0 time=0
EXTRACT: note_on channel=0 note=78 velocity=0 time=0.050675624999999995
EXTRACT: note_on channel=7 note=54 velocity=0 time=0.10135124999999999
EXTRACT: note_on channel=0 note=83 velocity=113 time=0.00675675
EXTRACT: note_on channel=7 note=59 velocity=101 time=0
EXTRACT: note_on channel=9 note=26 velocity=50 time=0
EXTRACT: note_on channel=9 note=32 velocity=50 time=0
EXTRACT: note_on channel=9 note=38 velocity=120 time=0
EXTRACT: note_on channel=9 note=42 velocity=80 time=0
EXTRACT: note_on channel=9 note=42 velocity=0 time=0.043918874999999996
EXTRACT: note_on channel=9 note=38 velocity=0 time=0
EXTRACT: note_on channel=9 note=32 velocity=0 time=0
EXTRACT: note_on channel=9 note=26 velocity=0 time=0
EXTRACT: note_on channel=0 note=83 velocity=0 time=0.050675624999999995
EXTRACT: note_on channel=7 note=59 velocity=0 time=0.10135124999999999
EXTRACT: note_on channel=0 note=78 velocity=115 time=0.00675675
EXTRACT: note_on channel=7 note=54 velocity=93 time=0
EXTRACT: note_on channel=9 note=26 velocity=30 time=0
EXTRACT: note_on channel=9 note=32 velocity=30 time=0
EXTRACT: note_on channel=9 note=32 velocity=0 time=0.043918874999999996
EXTRACT: note_on channel=9 note=26 velocity=0 time=0
EXTRACT: note_on channel=0 note=78 velocity=0 time=0.050675624999999995
EXTRACT: note_on channel=7 note=54 velocity=0 time=0.10135124999999999
EXTRACT: note_on channel=0 note=71 velocity=115 time=0.00675675
EXTRACT: note_on channel=7 note=47 velocity=90 time=0
EXTRACT: note_on channel=9 note=26 velocity=50 time=0
EXTRACT: note_on channel=9 note=32 velocity=50 time=0
EXTRACT: note_on channel=9 note=42 velocity=70 time=0
EXTRACT: note_on channel=9 note=42 velocity=0 time=0.043918874999999996
EXTRACT: note_on channel=9 note=32 velocity=0 time=0
EXTRACT: note_on channel=9 note=26 velocity=0 time=0
EXTRACT: note_on channel=0 note=71 velocity=0 time=0.050675624999999995
EXTRACT: note_on channel=7 note=47 velocity=0 time=0.10135124999999999
EXTRACT: note_on channel=0 note=78 velocity=115 time=0.00675675
EXTRACT: note_on channel=7 note=54 velocity=90 time=0
EXTRACT: note_on channel=9 note=26 velocity=30 time=0
EXTRACT: note_on channel=9 note=32 velocity=30 time=0
EXTRACT: note_on channel=12 note=56 velocity=100 time=0
EXTRACT: note_on channel=9 note=32 velocity=0 time=0.043918874999999996
EXTRACT: note_on channel=9 note=26 velocity=0 time=0
EXTRACT: note_on channel=12 note=55 velocity=100 time=0.023648625
EXTRACT: note_on channel=12 note=56 velocity=0 time=0.027027
EXTRACT: note_on channel=0 note=78 velocity=0 time=0
EXTRACT: note_on channel=12 note=53 velocity=100 time=0.0405405
EXTRACT: note_on channel=12 note=55 velocity=0 time=0.027027
EXTRACT: note_on channel=5 note=47 velocity=0 time=0.03378375
EXTRACT: note_on channel=11 note=83 velocity=0 time=0
EXTRACT: note_on channel=1 note=35 velocity=0 time=0
EXTRACT: note_on channel=5 note=54 velocity=0 time=0
EXTRACT: note_on channel=2 note=59 velocity=0 time=0
EXTRACT: note_on channel=11 note=90 velocity=0 time=0
EXTRACT: note_on channel=11 note=86 velocity=0 time=0
EXTRACT: note_on channel=6 note=47 velocity=0 time=0
EXTRACT: note_on channel=5 note=59 velocity=0 time=0
EXTRACT: note_on channel=2 note=62 velocity=0 time=0
EXTRACT: note_on channel=5 note=62 velocity=0 time=0
EXTRACT: note_on channel=2 note=66 velocity=0 time=0
EXTRACT: note_on channel=6 note=54 velocity=0 time=0
EXTRACT: note_on channel=7 note=54 velocity=0 time=0
EXTRACT: note_on channel=0 note=67 velocity=112 time=0.00675675
EXTRACT: note_on channel=1 note=31 velocity=118 time=0
EXTRACT: note_on channel=2 note=59 velocity=101 time=0
EXTRACT: note_on channel=2 note=62 velocity=101 time=0
EXTRACT: note_on channel=2 note=67 velocity=101 time=0
EXTRACT: note_on channel=3 note=67 velocity=121 time=0
EXTRACT: note_on channel=4 note=55 velocity=121 time=0
EXTRACT: note_on channel=4 note=59 velocity=121 time=0
EXTRACT: note_on channel=4 note=67 velocity=121 time=0
EXTRACT: note_on channel=5 note=43 velocity=101 time=0
EXTRACT: note_on channel=5 note=55 velocity=101 time=0
EXTRACT: note_on channel=5 note=59 velocity=101 time=0
EXTRACT: note_on channel=5 note=62 velocity=101 time=0
EXTRACT: note_on channel=6 note=43 velocity=99 time=0
EXTRACT: note_on channel=6 note=50 velocity=99 time=0
EXTRACT: note_on channel=7 note=47 velocity=104 time=0
EXTRACT: note_on channel=8 note=31 velocity=81 time=0
EXTRACT: note_on channel=9 note=26 velocity=50 time=0
EXTRACT: note_on channel=9 note=32 velocity=50 time=0
EXTRACT: note_on channel=9 note=36 velocity=120 time=0
EXTRACT: note_on channel=9 note=42 velocity=80 time=0
EXTRACT: note_on channel=10 note=52 velocity=120 time=0
EXTRACT: note_on channel=11 note=83 velocity=101 time=0
EXTRACT: note_on channel=11 note=86 velocity=101 time=0
EXTRACT: note_on channel=11 note=91 velocity=101 time=0
EXTRACT: note_on channel=12 note=50 velocity=114 time=0
EXTRACT: note_on channel=15 note=59 velocity=1 time=0
EXTRACT: note_on channel=15 note=67 velocity=1 time=0
EXTRACT: note_on channel=15 note=55 velocity=1 time=0
EXTRACT: note_on channel=12 note=53 velocity=0 time=0.027027
EXTRACT: note_on channel=10 note=57 velocity=120 time=0.00675675
EXTRACT: note_on channel=10 note=52 velocity=0 time=0.010135125
EXTRACT: note_on channel=9 note=42 velocity=0 time=0
EXTRACT: note_on channel=9 note=26 velocity=0 time=0
EXTRACT: note_on channel=9 note=36 velocity=0 time=0
EXTRACT: note_on channel=9 note=32 velocity=0 time=0
EXTRACT: note_on channel=10 note=57 velocity=0 time=0.03378375
EXTRACT: note_on channel=0 note=67 velocity=0 time=0.016891875
EXTRACT: note_on channel=12 note=50 velocity=0 time=0.03378375
EXTRACT: note_on channel=7 note=47 velocity=0 time=0.0675675
EXTRACT: note_on channel=0 note=74 velocity=115 time=0.00675675
EXTRACT: note_on channel=7 note=50 velocity=93 time=0
EXTRACT: note_on channel=9 note=26 velocity=30 time=0
EXTRACT: note_on channel=9 note=32 velocity=30 time=0
EXTRACT: note_on channel=9 note=32 velocity=0 time=0.043918874999999996
EXTRACT: note_on channel=9 note=26 velocity=0 time=0
EXTRACT: note_on channel=0 note=74 velocity=0 time=0.050675624999999995
EXTRACT: note_on channel=7 note=50 velocity=0 time=0.10135124999999999
EXTRACT: note_on channel=8 note=31 velocity=0 time=0
EXTRACT: note_on channel=0 note=79 velocity=118 time=0.00675675
EXTRACT: note_on channel=7 note=59 velocity=89 time=0
EXTRACT: note_on channel=9 note=26 velocity=50 time=0
EXTRACT: note_on channel=9 note=32 velocity=50 time=0
EXTRACT: note_on channel=9 note=42 velocity=70 time=0
EXTRACT: note_on channel=9 note=42 velocity=0 time=0.043918874999999996
EXTRACT: note_on channel=9 note=32 velocity=0 time=0
EXTRACT: note_on channel=9 note=26 velocity=0 time=0
EXTRACT: note_on channel=0 note=79 velocity=0 time=0.050675624999999995
EXTRACT: note_on channel=7 note=59 velocity=0 time=0.10135124999999999
EXTRACT: note_on channel=0 note=74 velocity=118 time=0.00675675
EXTRACT: note_on channel=7 note=50 velocity=77 time=0
EXTRACT: note_on channel=9 note=26 velocity=30 time=0
EXTRACT: note_on channel=9 note=32 velocity=30 time=0
EXTRACT: note_on channel=9 note=32 velocity=0 time=0.043918874999999996
EXTRACT: note_on channel=9 note=26 velocity=0 time=0
EXTRACT: note_on channel=15 note=67 velocity=0 time=0.027027
EXTRACT: note_on channel=4 note=59 velocity=0 time=0
EXTRACT: note_on channel=4 note=55 velocity=0 time=0
EXTRACT: note_on channel=4 note=67 velocity=0 time=0
EXTRACT: note_on channel=3 note=67 velocity=0 time=0
EXTRACT: note_on channel=15 note=59 velocity=0 time=0
EXTRACT: note_on channel=15 note=55 velocity=0 time=0
EXTRACT: note_on channel=0 note=74 velocity=0 time=0.023648625
EXTRACT: note_on channel=7 note=50 velocity=0 time=0.10135124999999999
EXTRACT: note_on channel=0 note=79 velocity=113 time=0.00675675
EXTRACT: note_on channel=3 note=66 velocity=121 time=0
EXTRACT: note_on channel=4 note=54 velocity=121 time=0
EXTRACT: note_on channel=4 note=57 velocity=121 time=0
EXTRACT: note_on channel=4 note=66 velocity=121 time=0
EXTRACT: note_on channel=7 note=59 velocity=98 time=0
EXTRACT: note_on channel=9 note=26 velocity=50 time=0
EXTRACT: note_on channel=9 note=32 velocity=50 time=0
EXTRACT: note_on channel=9 note=38 velocity=120 time=0
EXTRACT: note_on channel=9 note=42 velocity=80 time=0
EXTRACT: note_on channel=15 note=54 velocity=1 time=0
EXTRACT: note_on channel=15 note=57 velocity=1 time=0
EXTRACT: note_on channel=15 note=66 velocity=1 time=0
EXTRACT: note_on channel=9 note=42 velocity=0 time=0.043918874999999996
EXTRACT: note_on channel=9 note=38 velocity=0 time=0
EXTRACT: note_on channel=9 note=32 velocity=0 time=0
EXTRACT: note_on channel=9 note=26 velocity=0 time=0
EXTRACT: note_on channel=0 note=79 velocity=0 time=0.050675624999999995
EXTRACT: note_on channel=7 note=59 velocity=0 time=0.10135124999999999
EXTRACT: note_on channel=0 note=74 velocity=113 time=0.00675675
EXTRACT: note_on channel=7 note=50 velocity=98 time=0
EXTRACT: note_on channel=9 note=26 velocity=30 time=0
EXTRACT: note_on channel=9 note=32 velocity=30 time=0
EXTRACT: note_on channel=9 note=32 velocity=0 time=0.043918874999999996
EXTRACT: note_on channel=9 note=26 velocity=0 time=0
EXTRACT: note_on channel=0 note=74 velocity=0 time=0.050675624999999995
EXTRACT: note_on channel=7 note=50 velocity=0 time=0.10135124999999999
EXTRACT: note_on channel=0 note=67 velocity=109 time=0.00675675
EXTRACT: note_on channel=7 note=47 velocity=78 time=0
EXTRACT: note_on channel=9 note=26 velocity=50 time=0
EXTRACT: note_on channel=9 note=32 velocity=50 time=0
EXTRACT: note_on channel=9 note=42 velocity=70 time=0
EXTRACT: note_on channel=9 note=42 velocity=0 time=0.043918874999999996
EXTRACT: note_on channel=9 note=32 velocity=0 time=0
EXTRACT: note_on channel=9 note=26 velocity=0 time=0
EXTRACT: note_on channel=0 note=67 velocity=0 time=0.050675624999999995
EXTRACT: note_on channel=7 note=47 velocity=0 time=0.10135124999999999
EXTRACT: note_on channel=1 note=31 velocity=0 time=0
EXTRACT: note_on channel=0 note=74 velocity=110 time=0.00675675
EXTRACT: note_on channel=1 note=31 velocity=118 time=0
EXTRACT: note_on channel=7 note=50 velocity=63 time=0
EXTRACT: note_on channel=9 note=26 velocity=30 time=0
EXTRACT: note_on channel=9 note=32 velocity=30 time=0
EXTRACT: note_on channel=9 note=36 velocity=120 time=0
EXTRACT: note_on channel=10 note=52 velocity=120 time=0
EXTRACT: note_on channel=4 note=54 velocity=0 time=0.00675675
EXTRACT: note_on channel=4 note=66 velocity=0 time=0
EXTRACT: note_on channel=4 note=57 velocity=0 time=0
EXTRACT: note_on channel=15 note=54 velocity=0 time=0
EXTRACT: note_on channel=15 note=66 velocity=0 time=0
EXTRACT: note_on channel=15 note=57 velocity=0 time=0
EXTRACT: note_on channel=3 note=66 velocity=0 time=0
EXTRACT: note_on channel=10 note=57 velocity=120 time=0.027027
EXTRACT: note_on channel=9 note=32 velocity=0 time=0.010135125
EXTRACT: note_on channel=10 note=52 velocity=0 time=0
EXTRACT: note_on channel=9 note=26 velocity=0 time=0
EXTRACT: note_on channel=9 note=36 velocity=0 time=0
EXTRACT: note_on channel=10 note=57 velocity=0 time=0.03378375
EXTRACT: note_on channel=0 note=74 velocity=0 time=0.016891875
EXTRACT: note_on channel=7 note=50 velocity=0 time=0.10135124999999999
EXTRACT: note_on channel=0 note=67 velocity=113 time=0.00675675
EXTRACT: note_on channel=3 note=64 velocity=121 time=0
EXTRACT: note_on channel=4 note=52 velocity=121 time=0
EXTRACT: note_on channel=4 note=55 velocity=121 time=0
EXTRACT: note_on channel=4 note=64 velocity=121 time=0
EXTRACT: note_on channel=7 note=47 velocity=76 time=0
EXTRACT: note_on channel=9 note=26 velocity=50 time=0
EXTRACT: note_on channel=9 note=32 velocity=50 time=0
EXTRACT: note_on channel=9 note=42 velocity=80 time=0
EXTRACT: note_on channel=15 note=52 velocity=1 time=0
EXTRACT: note_on channel=15 note=55 velocity=1 time=0
EXTRACT: note_on channel=15 note=64 velocity=1 time=0
EXTRACT: note_on channel=9 note=42 velocity=0 time=0.043918874999999996
EXTRACT: note_on channel=9 note=32 velocity=0 time=0
EXTRACT: note_on channel=9 note=26 velocity=0 time=0
EXTRACT: note_on channel=0 note=67 velocity=0 time=0.050675624999999995
EXTRACT: note_on channel=7 note=47 velocity=0 time=0.10135124999999999
EXTRACT: note_on channel=1 note=31 velocity=0 time=0
EXTRACT: note_on channel=0 note=74 velocity=114 time=0.00675675
EXTRACT: note_on channel=1 note=31 velocity=118 time=0
EXTRACT: note_on channel=7 note=50 velocity=86 time=0
EXTRACT: note_on channel=9 note=26 velocity=30 time=0
EXTRACT: note_on channel=9 note=32 velocity=30 time=0
EXTRACT: note_on channel=9 note=36 velocity=120 time=0
EXTRACT: note_on channel=9 note=38 velocity=120 time=0
EXTRACT: note_on channel=10 note=52 velocity=120 time=0
EXTRACT: note_on channel=10 note=57 velocity=120 time=0.03378375
EXTRACT: note_on channel=10 note=52 velocity=0 time=0.010135125
EXTRACT: note_on channel=9 note=38 velocity=0 time=0
EXTRACT: note_on channel=9 note=36 velocity=0 time=0
EXTRACT: note_on channel=9 note=32 velocity=0 time=0
EXTRACT: note_on channel=9 note=26 velocity=0 time=0
EXTRACT: note_on channel=10 note=57 velocity=0 time=0.03378375
EXTRACT: note_on channel=4 note=64 velocity=0 time=0.0135135
EXTRACT: note_on channel=4 note=52 velocity=0 time=0
EXTRACT: note_on channel=4 note=55 velocity=0 time=0
EXTRACT: note_on channel=15 note=52 velocity=0 time=0
EXTRACT: note_on channel=15 note=64 velocity=0 time=0
EXTRACT: note_on channel=15 note=55 velocity=0 time=0
EXTRACT: note_on channel=3 note=64 velocity=0 time=0
EXTRACT: note_on channel=0 note=74 velocity=0 time=0.003378375
EXTRACT: note_on channel=7 note=50 velocity=0 time=0.10135124999999999
EXTRACT: note_on channel=1 note=31 velocity=0 time=0
EXTRACT: note_on channel=0 note=79 velocity=111 time=0.00675675
EXTRACT: note_on channel=1 note=31 velocity=118 time=0
EXTRACT: note_on channel=3 note=62 velocity=118 time=0
EXTRACT: note_on channel=4 note=50 velocity=118 time=0
EXTRACT: note_on channel=4 note=54 velocity=118 time=0
EXTRACT: note_on channel=4 note=62 velocity=118 time=0
EXTRACT: note_on channel=7 note=55 velocity=88 time=0
EXTRACT: note_on channel=9 note=26 velocity=50 time=0
EXTRACT: note_on channel=9 note=32 velocity=50 time=0
EXTRACT: note_on channel=9 note=36 velocity=120 time=0
EXTRACT: note_on channel=9 note=42 velocity=70 time=0
EXTRACT: note_on channel=10 note=52 velocity=120 time=0
EXTRACT: note_on channel=13 note=62 velocity=118 time=0
EXTRACT: note_on channel=15 note=50 velocity=1 time=0
EXTRACT: note_on channel=15 note=54 velocity=1 time=0
EXTRACT: note_on channel=15 note=62 velocity=1 time=0
EXTRACT: note_on channel=10 note=57 velocity=120 time=0.03378375
EXTRACT: note_on channel=10 note=52 velocity=0 time=0.010135125
EXTRACT: note_on channel=9 note=36 velocity=0 time=0
EXTRACT: note_on channel=9 note=32 velocity=0 time=0
EXTRACT: note_on channel=9 note=26 velocity=0 time=0
EXTRACT: note_on channel=9 note=42 velocity=0 time=0
EXTRACT: note_on channel=10 note=57 velocity=0 time=0.03378375
EXTRACT: note_on channel=0 note=79 velocity=0 time=0.016891875
EXTRACT: note_on channel=7 note=55 velocity=0 time=0.10135124999999999
EXTRACT: note_on channel=0 note=74 velocity=112 time=0.00675675
EXTRACT: note_on channel=7 note=50 velocity=88 time=0
EXTRACT: note_on channel=9 note=26 velocity=30 time=0
EXTRACT: note_on channel=9 note=32 velocity=30 time=0
EXTRACT: note_on channel=9 note=32 velocity=0 time=0.043918874999999996
EXTRACT: note_on channel=9 note=26 velocity=0 time=0
EXTRACT: note_on channel=4 note=54 velocity=0 time=0.010135125
EXTRACT: note_on channel=4 note=50 velocity=0 time=0
EXTRACT: note_on channel=3 note=62 velocity=0 time=0
EXTRACT: note_on channel=15 note=50 velocity=0 time=0
EXTRACT: note_on channel=4 note=62 velocity=0 time=0
EXTRACT: note_on channel=15 note=54 velocity=0 time=0
EXTRACT: note_on channel=15 note=62 velocity=0 time=0
EXTRACT: note_on channel=0 note=74 velocity=0 time=0.0405405
EXTRACT: note_on channel=7 note=50 velocity=0 time=0.10135124999999999
EXTRACT: note_on channel=0 note=79 velocity=113 time=0.00675675
EXTRACT: note_on channel=3 note=62 velocity=121 time=0
EXTRACT: note_on channel=4 note=50 velocity=121 time=0
EXTRACT: note_on channel=4 note=54 velocity=121 time=0
EXTRACT: note_on channel=4 note=62 velocity=121 time=0
EXTRACT: note_on channel=7 note=55 velocity=81 time=0
EXTRACT: note_on channel=9 note=26 velocity=50 time=0
EXTRACT: note_on channel=9 note=32 velocity=50 time=0
EXTRACT: note_on channel=9 note=38 velocity=120 time=0
EXTRACT: note_on channel=9 note=42 velocity=80 time=0
EXTRACT: note_on channel=15 note=50 velocity=1 time=0
EXTRACT: note_on channel=15 note=54 velocity=1 time=0
EXTRACT: note_on channel=15 note=62 velocity=1 time=0
EXTRACT: note_on channel=9 note=42 velocity=0 time=0.043918874999999996
EXTRACT: note_on channel=9 note=32 velocity=0 time=0
EXTRACT: note_on channel=9 note=26 velocity=0 time=0
EXTRACT: note_on channel=9 note=38 velocity=0 time=0
EXTRACT: note_on channel=0 note=79 velocity=0 time=0.050675624999999995
EXTRACT: note_on channel=7 note=55 velocity=0 time=0.10135124999999999
EXTRACT: note_on channel=0 note=74 velocity=115 time=0.00675675
EXTRACT: note_on channel=7 note=50 velocity=73 time=0
EXTRACT: note_on channel=9 note=26 velocity=30 time=0
EXTRACT: note_on channel=9 note=32 velocity=30 time=0
EXTRACT: note_on channel=9 note=32 velocity=0 time=0.043918874999999996
EXTRACT: note_on channel=9 note=26 velocity=0 time=0
EXTRACT: note_on channel=0 note=74 velocity=0 time=0.050675624999999995
EXTRACT: note_on channel=4 note=54 velocity=0 time=0.054054
EXTRACT: note_on channel=15 note=50 velocity=0 time=0
EXTRACT: note_on channel=3 note=62 velocity=0 time=0
EXTRACT: note_on channel=4 note=50 velocity=0 time=0
EXTRACT: note_on channel=4 note=62 velocity=0 time=0
EXTRACT: note_on channel=15 note=54 velocity=0 time=0
EXTRACT: note_on channel=15 note=62 velocity=0 time=0
EXTRACT: note_on channel=7 note=50 velocity=0 time=0.04729725
EXTRACT: note_on channel=0 note=67 velocity=115 time=0.00675675
EXTRACT: note_on channel=3 note=59 velocity=118 time=0
EXTRACT: note_on channel=4 note=47 velocity=118 time=0
EXTRACT: note_on channel=4 note=52 velocity=118 time=0
EXTRACT: note_on channel=4 note=59 velocity=118 time=0
EXTRACT: note_on channel=7 note=55 velocity=73 time=0
EXTRACT: note_on channel=9 note=26 velocity=50 time=0
EXTRACT: note_on channel=9 note=32 velocity=50 time=0
EXTRACT: note_on channel=9 note=36 velocity=114 time=0
EXTRACT: note_on channel=9 note=42 velocity=70 time=0
EXTRACT: note_on channel=10 note=52 velocity=114 time=0
EXTRACT: note_on channel=15 note=52 velocity=1 time=0
EXTRACT: note_on channel=15 note=59 velocity=1 time=0
EXTRACT: note_on channel=15 note=47 velocity=1 time=0
EXTRACT: note_on channel=10 note=57 velocity=114 time=0.03378375
EXTRACT: note_on channel=10 note=52 velocity=0 time=0.010135125
EXTRACT: note_on channel=9 note=32 velocity=0 time=0
EXTRACT: note_on channel=9 note=26 velocity=0 time=0
EXTRACT: note_on channel=9 note=42 velocity=0 time=0
EXTRACT: note_on channel=9 note=36 velocity=0 time=0
EXTRACT: note_on channel=10 note=57 velocity=0 time=0.03378375
EXTRACT: note_on channel=0 note=67 velocity=0 time=0.016891875
EXTRACT: note_on channel=7 note=55 velocity=0 time=0.10135124999999999
EXTRACT: note_on channel=0 note=74 velocity=115 time=0.00675675
EXTRACT: note_on channel=7 note=50 velocity=71 time=0
EXTRACT: note_on channel=9 note=26 velocity=30 time=0
EXTRACT: note_on channel=9 note=32 velocity=30 time=0
EXTRACT: note_on channel=9 note=36 velocity=114 time=0
EXTRACT: note_on channel=10 note=52 velocity=114 time=0
EXTRACT: note_on channel=10 note=57 velocity=114 time=0.03378375
EXTRACT: note_on channel=10 note=52 velocity=0 time=0.010135125
EXTRACT: note_on channel=9 note=36 velocity=0 time=0
EXTRACT: note_on channel=9 note=32 velocity=0 time=0
EXTRACT: note_on channel=9 note=26 velocity=0 time=0
EXTRACT: note_on channel=10 note=57 velocity=0 time=0.03378375
EXTRACT: note_on channel=0 note=74 velocity=0 time=0.016891875
EXTRACT: note_on channel=5 note=62 velocity=0 time=0.10135124999999999
EXTRACT: note_on channel=11 note=83 velocity=0 time=0
EXTRACT: note_on channel=11 note=86 velocity=0 time=0
EXTRACT: note_on channel=5 note=59 velocity=0 time=0
EXTRACT: note_on channel=3 note=59 velocity=0 time=0
EXTRACT: note_on channel=2 note=67 velocity=0 time=0
EXTRACT: note_on channel=11 note=91 velocity=0 time=0
EXTRACT: note_on channel=6 note=43 velocity=0 time=0
EXTRACT: note_on channel=2 note=62 velocity=0 time=0
EXTRACT: note_on channel=5 note=43 velocity=0 time=0
EXTRACT: note_on channel=15 note=47 velocity=0 time=0
EXTRACT: note_on channel=6 note=50 velocity=0 time=0
EXTRACT: note_on channel=13 note=62 velocity=0 time=0
EXTRACT: note_on channel=4 note=59 velocity=0 time=0
EXTRACT: note_on channel=4 note=47 velocity=0 time=0
EXTRACT: note_on channel=2 note=59 velocity=0 time=0
EXTRACT: note_on channel=15 note=59 velocity=0 time=0
EXTRACT: note_on channel=15 note=52 velocity=0 time=0
EXTRACT: note_on channel=5 note=55 velocity=0 time=0
EXTRACT: note_on channel=4 note=52 velocity=0 time=0
EXTRACT: note_on channel=1 note=31 velocity=0 time=0
EXTRACT: note_on channel=7 note=50 velocity=0 time=0
EXTRACT: note_on channel=3 note=57 velocity=118 time=0.00675675
EXTRACT: note_on channel=4 note=45 velocity=118 time=0
EXTRACT: note_on channel=4 note=50 velocity=118 time=0
EXTRACT: note_on channel=4 note=57 velocity=118 time=0
EXTRACT: note_on channel=9 note=36 velocity=114 time=0
EXTRACT: note_on channel=9 note=41 velocity=114 time=0
EXTRACT: note_on channel=10 note=52 velocity=120 time=0
EXTRACT: note_on channel=15 note=50 velocity=1 time=0
EXTRACT: note_on channel=15 note=57 velocity=1 time=0
EXTRACT: note_on channel=15 note=45 velocity=1 time=0
EXTRACT: note_on channel=10 note=57 velocity=120 time=0.03378375
EXTRACT: note_on channel=10 note=52 velocity=0 time=0.010135125
EXTRACT: note_on channel=9 note=41 velocity=0 time=0
EXTRACT: note_on channel=9 note=36 velocity=0 time=0
EXTRACT: note_on channel=10 note=57 velocity=0 time=0.03378375
EXTRACT: note_on channel=3 note=57 velocity=0 time=0.320945625
EXTRACT: note_on channel=15 note=57 velocity=0 time=0
EXTRACT: note_on channel=4 note=45 velocity=0 time=0
EXTRACT: note_on channel=15 note=45 velocity=0 time=0
EXTRACT: note_on channel=15 note=50 velocity=0 time=0
EXTRACT: note_on channel=4 note=50 velocity=0 time=0
EXTRACT: note_on channel=4 note=57 velocity=0 time=0
EXTRACT: sysex data=(126,127,9,1) time=2.8445917499999998
EXTRACT: sysex data=(65,16,66,18,64,0,127,0,65) time=0
