EXTRACT: sysex data=(126,127,9,1) time=0
EXTRACT: sysex data=(65,16,66,18,64,0,127,0,65) time=0
EXTRACT: control_change channel=0 control=0 value=0 time=0
EXTRACT: control_change channel=0 control=32 value=0 time=0
EXTRACT: program_change channel=0 program=98 time=0
EXTRACT: control_change channel=0 control=7 value=30 time=0
EXTRACT: control_change channel=0 control=10 value=64 time=0
EXTRACT: control_change channel=1 control=0 value=0 time=0
EXTRACT: control_change channel=1 control=32 value=0 time=0
EXTRACT: program_change channel=1 program=39 time=0
EXTRACT: control_change channel=1 control=7 value=88 time=0
EXTRACT: control_change channel=1 control=10 value=64 time=0
EXTRACT: control_change channel=2 control=0 value=0 time=0
EXTRACT: control_change channel=2 control=32 value=0 time=0
EXTRACT: program_change channel=2 program=40 time=0
EXTRACT: control_change channel=2 control=7 value=72 time=0
EXTRACT: control_change channel=2 control=10 value=20 time=0
EXTRACT: control_change channel=3 control=0 value=0 time=0
EXTRACT: control_change channel=3 control=32 value=0 time=0
EXTRACT: program_change channel=3 program=62 time=0
EXTRACT: control_change channel=3 control=7 value=56 time=0
EXTRACT: control_change channel=3 control=10 value=64 time=0
EXTRACT: control_change channel=4 control=0 value=0 time=0
EXTRACT: control_change channel=4 control=32 value=0 time=0
EXTRACT: program_change channel=4 program=49 time=0
EXTRACT: control_change channel=4 control=7 value=55 time=0
EXTRACT: control_change channel=4 control=10 value=110 time=0
EXTRACT: control_change channel=5 control=0 value=0 time=0
EXTRACT: control_change channel=5 control=32 value=0 time=0
EXTRACT: program_change channel=5 program=48 time=0
EXTRACT: control_change channel=5 control=7 value=81 time=0
EXTRACT: control_change channel=5 control=10 value=29 time=0
EXTRACT: control_change channel=6 control=0 value=0 time=0
EXTRACT: control_change channel=6 control=32 value=0 time=0
EXTRACT: program_change channel=6 program=61 time=0
EXTRACT: control_change channel=6 control=7 value=127 time=0
EXTRACT: control_change channel=6 control=10 value=80 time=0
EXTRACT: control_change channel=7 control=0 value=0 time=0
EXTRACT: control_change channel=7 control=32 value=0 time=0
EXTRACT: program_change channel=7 program=57 time=0
EXTRACT: control_change channel=7 control=7 value=127 time=0
EXTRACT: control_change channel=7 control=10 value=10 time=0
EXTRACT: control_change channel=8 control=0 value=0 time=0
EXTRACT: control_change channel=8 control=32 value=0 time=0
EXTRACT: program_change channel=8 program=58 time=0
EXTRACT: control_change channel=8 control=7 value=97 time=0
EXTRACT: control_change channel=8 control=10 value=64 time=0
EXTRACT: control_change channel=9 control=7 value=84 time=0
EXTRACT: control_change channel=10 control=0 value=0 time=0
EXTRACT: control_change channel=10 control=32 value=0 time=0
EXTRACT: program_change channel=10 program=53 time=0
EXTRACT: control_change channel=10 control=7 value=58 time=0
EXTRACT: control_change channel=10 control=10 value=50 time=0
EXTRACT: control_change channel=11 control=0 value=0 time=0
EXTRACT: control_change channel=11 control=32 value=0 time=0
EXTRACT: program_change channel=11 program=47 time=0
EXTRACT: control_change channel=11 control=7 value=110 time=0
EXTRACT: control_change channel=11 control=10 value=64 time=0
EXTRACT: control_change channel=12 control=0 value=0 time=0
EXTRACT: control_change channel=12 control=32 value=0 time=0
EXTRACT: program_change channel=12 program=46 time=0
EXTRACT: control_change channel=12 control=7 value=78 time=0
EXTRACT: control_change channel=12 control=10 value=25 time=0
EXTRACT: control_change channel=13 control=0 value=0 time=0
EXTRACT: control_change channel=13 control=32 value=0 time=0
EXTRACT: program_change channel=13 program=73 time=0
EXTRACT: control_change channel=13 control=7 value=75 time=0
EXTRACT: control_change channel=13 control=10 value=74 time=0
EXTRACT: control_change channel=14 control=0 value=0 time=0
EXTRACT: control_change channel=14 control=32 value=0 time=0
EXTRACT: program_change channel=14 program=119 time=0
EXTRACT: control_change channel=14 control=7 value=120 time=0
EXTRACT: control_change channel=14 control=10 value=50 time=0
EXTRACT: control_change channel=15 control=0 value=0 time=0
EXTRACT: control_change channel=15 control=32 value=0 time=0
EXTRACT: program_change channel=15 program=9 time=0
EXTRACT: control_change channel=15 control=7 value=120 time=0
EXTRACT: control_change channel=15 control=10 value=50 time=0
EXTRACT: control_change channel=0 control=11 value=127 time=0.07857134999999998
EXTRACT: control_change channel=0 control=91 value=120 time=0.009523799999999999
EXTRACT: control_change channel=0 control=93 value=0 time=0.007142849999999999
EXTRACT: control_change channel=0 control=94 value=0 time=0.007142849999999999
EXTRACT: control_change channel=1 control=11 value=127 time=0.052380899999999994
EXTRACT: control_change channel=1 control=91 value=0 time=0.007142849999999999
EXTRACT: control_change channel=1 control=93 value=0 time=0.009523799999999999
EXTRACT: control_change channel=1 control=94 value=0 time=0.007142849999999999
EXTRACT: control_change channel=2 control=11 value=127 time=0.057142799999999994
EXTRACT: control_change channel=2 control=91 value=127 time=0.007142849999999999
EXTRACT: control_change channel=2 control=93 value=0 time=0.007142849999999999
EXTRACT: control_change channel=2 control=94 value=0 time=0.007142849999999999
EXTRACT: control_change channel=3 control=11 value=127 time=0.054761849999999994
EXTRACT: control_change channel=3 control=91 value=100 time=0.007142849999999999
EXTRACT: control_change channel=3 control=93 value=0 time=0.009523799999999999
EXTRACT: control_change channel=3 control=94 value=10 time=0.007142849999999999
EXTRACT: control_change channel=4 control=11 value=108 time=0.054761849999999994
EXTRACT: control_change channel=4 control=91 value=110 time=0.007142849999999999
EXTRACT: control_change channel=4 control=93 value=0 time=0.007142849999999999
EXTRACT: control_change channel=4 control=94 value=0 time=0.007142849999999999
EXTRACT: control_change channel=5 control=11 value=100 time=0.054761849999999994
EXTRACT: control_change channel=5 control=91 value=110 time=0.009523799999999999
EXTRACT: control_change channel=5 control=93 value=0 time=0.007142849999999999
EXTRACT: control_change channel=5 control=94 value=0 time=0.007142849999999999
EXTRACT: control_change channel=6 control=11 value=100 time=0.040476149999999995
EXTRACT: control_change channel=6 control=91 value=90 time=0.007142849999999999
EXTRACT: control_change channel=6 control=93 value=25 time=0.007142849999999999
EXTRACT: control_change channel=6 control=94 value=0 time=0.009523799999999999
EXTRACT: control_change channel=7 control=11 value=127 time=0.049999949999999994
EXTRACT: control_change channel=7 control=91 value=80 time=0.009523799999999999
EXTRACT: control_change channel=7 control=93 value=0 time=0.007142849999999999
EXTRACT: control_change channel=7 control=94 value=0 time=0.007142849999999999
EXTRACT: control_change channel=8 control=11 value=127 time=0.052380899999999994
EXTRACT: control_change channel=8 control=91 value=80 time=0.007142849999999999
EXTRACT: control_change channel=8 control=93 value=0 time=0.007142849999999999
EXTRACT: control_change channel=8 control=94 value=0 time=0.009523799999999999
EXTRACT: control_change channel=9 control=91 value=42 time=0.08095229999999999
EXTRACT: control_change channel=9 control=93 value=0 time=0.007142849999999999
EXTRACT: control_change channel=9 control=94 value=0 time=0.007142849999999999
EXTRACT: control_change channel=9 control=99 value=29 time=0.007142849999999999
EXTRACT: control_change channel=9 control=98 value=85 time=0
EXTRACT: control_change channel=9 control=6 value=100 time=0
EXTRACT: control_change channel=9 control=38 value=0 time=0
EXTRACT: control_change channel=9 control=99 value=29 time=0.007142849999999999
EXTRACT: control_change channel=9 control=98 value=35 time=0
EXTRACT: control_change channel=9 control=6 value=0 time=0
EXTRACT: control_change channel=9 control=38 value=0 time=0
EXTRACT: control_change channel=9 control=99 value=29 time=0.007142849999999999
EXTRACT: control_change channel=9 control=98 value=82 time=0
EXTRACT: control_change channel=9 control=6 value=100 time=0
EXTRACT: control_change channel=9 control=38 value=0 time=0
EXTRACT: control_change channel=11 control=11 value=127 time=0.10714274999999998
EXTRACT: control_change channel=11 control=91 value=110 time=0.007142849999999999
EXTRACT: control_change channel=11 control=93 value=0 time=0.007142849999999999
EXTRACT: control_change channel=11 control=94 value=0 time=0.007142849999999999
EXTRACT: control_change channel=14 control=11 value=127 time=0.007142849999999999
EXTRACT: control_change channel=14 control=91 value=42 time=0.007142849999999999
EXTRACT: control_change channel=14 control=93 value=0 time=0.007142849999999999
EXTRACT: control_change channel=14 control=94 value=0 time=0.009523799999999999
EXTRACT: control_change channel=15 control=11 value=80 time=0.028571399999999997
EXTRACT: control_change channel=15 control=91 value=120 time=0.007142849999999999
EXTRACT: control_change channel=15 control=93 value=0 time=0.009523799999999999
EXTRACT: control_change channel=15 control=94 value=0 time=0.007142849999999999
EXTRACT: control_change channel=12 control=11 value=110 time=0.054761849999999994
EXTRACT: control_change channel=12 control=91 value=90 time=0.007142849999999999
EXTRACT: control_change channel=12 control=93 value=0 time=0.007142849999999999
EXTRACT: control_change channel=12 control=94 value=0 time=0.007142849999999999
EXTRACT: control_change channel=13 control=11 value=127 time=0.054761849999999994
EXTRACT: control_change channel=13 control=91 value=106 time=0.009523799999999999
EXTRACT: control_change channel=13 control=93 value=0 time=0.007142849999999999
EXTRACT: control_change channel=13 control=94 value=0 time=0.007142849999999999
EXTRACT: note_on channel=11 note=44 velocity=127 time=0.2428569
EXTRACT: note_on channel=11 note=20 velocity=20 time=0
EXTRACT: note_on channel=11 note=20 velocity=0 time=0.007142849999999999
EXTRACT: note_on channel=11 note=44 velocity=0 time=0.023809499999999997
EXTRACT: note_on channel=11 note=20 velocity=20 time=0.028571399999999997
EXTRACT: note_on channel=11 note=20 velocity=0 time=0.030952349999999997
EXTRACT: note_on channel=11 note=20 velocity=20 time=0.026190449999999997
EXTRACT: note_on channel=11 note=20 velocity=0 time=0.030952349999999997
EXTRACT: note_on channel=11 note=20 velocity=20 time=0.026190449999999997
EXTRACT: note_on channel=11 note=20 velocity=0 time=0.030952349999999997
EXTRACT: note_on channel=11 note=20 velocity=20 time=0.033333299999999996
EXTRACT: note_on channel=11 note=20 velocity=0 time=0.007142849999999999
EXTRACT: note_on channel=11 note=20 velocity=21 time=0.045238049999999995
EXTRACT: note_on channel=11 note=20 velocity=0 time=0.030952349999999997
EXTRACT: note_on channel=11 note=20 velocity=21 time=0.028571399999999997
EXTRACT: note_on channel=11 note=20 velocity=0 time=0.030952349999999997
EXTRACT: note_on channel=11 note=20 velocity=21 time=0.026190449999999997
EXTRACT: note_on channel=11 note=20 velocity=0 time=0.030952349999999997
EXTRACT: note_on channel=11 note=39 velocity=127 time=0.028571399999999997
EXTRACT: note_on channel=11 note=20 velocity=21 time=0
EXTRACT: note_on channel=11 note=20 velocity=0 time=0.007142849999999999
EXTRACT: note_on channel=11 note=39 velocity=0 time=0.023809499999999997
EXTRACT: note_on channel=11 note=20 velocity=22 time=0.026190449999999997
EXTRACT: note_on channel=11 note=20 velocity=0 time=0.030952349999999997
EXTRACT: note_on channel=11 note=20 velocity=22 time=0.026190449999999997
EXTRACT: note_on channel=11 note=20 velocity=0 time=0.030952349999999997
EXTRACT: note_on channel=11 note=20 velocity=22 time=0.028571399999999997
EXTRACT: note_on channel=11 note=20 velocity=0 time=0.030952349999999997
EXTRACT: note_on channel=11 note=20 velocity=22 time=0.030952349999999997
EXTRACT: note_on channel=11 note=20 velocity=0 time=0.007142849999999999
EXTRACT: note_on channel=11 note=20 velocity=23 time=0.047618999999999995
EXTRACT: note_on channel=11 note=20 velocity=0 time=0.030952349999999997
EXTRACT: note_on channel=11 note=20 velocity=23 time=0.026190449999999997
EXTRACT: note_on channel=11 note=20 velocity=0 time=0.030952349999999997
EXTRACT: note_on channel=11 note=20 velocity=23 time=0.026190449999999997
EXTRACT: note_on channel=11 note=20 velocity=0 time=0.030952349999999997
EXTRACT: note_on channel=11 note=44 velocity=127 time=0.028571399999999997
EXTRACT: note_on channel=11 note=20 velocity=23 time=0
EXTRACT: note_on channel=11 note=20 velocity=0 time=0.007142849999999999
EXTRACT: note_on channel=11 note=44 velocity=0 time=0.023809499999999997
EXTRACT: note_on channel=11 note=20 velocity=24 time=0.026190449999999997
EXTRACT: note_on channel=11 note=20 velocity=0 time=0.030952349999999997
EXTRACT: note_on channel=11 note=20 velocity=24 time=0.028571399999999997
EXTRACT: note_on channel=11 note=20 velocity=0 time=0.030952349999999997
EXTRACT: note_on channel=11 note=20 velocity=24 time=0.026190449999999997
EXTRACT: note_on channel=11 note=20 velocity=0 time=0.030952349999999997
EXTRACT: note_on channel=11 note=20 velocity=24 time=0.030952349999999997
EXTRACT: note_on channel=11 note=20 velocity=0 time=0.007142849999999999
EXTRACT: note_on channel=11 note=20 velocity=25 time=0.047618999999999995
EXTRACT: note_on channel=11 note=20 velocity=0 time=0.030952349999999997
EXTRACT: note_on channel=11 note=20 velocity=25 time=0.026190449999999997
EXTRACT: note_on channel=11 note=20 velocity=0 time=0.030952349999999997
EXTRACT: note_on channel=11 note=20 velocity=25 time=0.028571399999999997
EXTRACT: note_on channel=11 note=20 velocity=0 time=0.030952349999999997
EXTRACT: note_on channel=11 note=39 velocity=127 time=0.026190449999999997
EXTRACT: note_on channel=11 note=20 velocity=25 time=0
EXTRACT: note_on channel=11 note=20 velocity=0 time=0.007142849999999999
EXTRACT: note_on channel=11 note=39 velocity=0 time=0.023809499999999997
EXTRACT: note_on channel=11 note=20 velocity=26 time=0.028571399999999997
EXTRACT: note_on channel=11 note=20 velocity=0 time=0.030952349999999997
EXTRACT: note_on channel=11 note=20 velocity=26 time=0.026190449999999997
EXTRACT: note_on channel=11 note=20 velocity=0 time=0.030952349999999997
EXTRACT: note_on channel=11 note=20 velocity=26 time=0.026190449999999997
EXTRACT: note_on channel=11 note=20 velocity=0 time=0.030952349999999997
EXTRACT: note_on channel=11 note=20 velocity=26 time=0.033333299999999996
EXTRACT: note_on channel=11 note=20 velocity=0 time=0.007142849999999999
EXTRACT: note_on channel=11 note=20 velocity=27 time=0.045238049999999995
EXTRACT: note_on channel=11 note=20 velocity=0 time=0.030952349999999997
EXTRACT: note_on channel=11 note=20 velocity=27 time=0.028571399999999997
EXTRACT: note_on channel=11 note=20 velocity=0 time=0.030952349999999997
EXTRACT: note_on channel=11 note=20 velocity=27 time=0.026190449999999997
EXTRACT: note_on channel=11 note=20 velocity=0 time=0.030952349999999997
EXTRACT: note_on channel=11 note=44 velocity=127 time=0.028571399999999997
EXTRACT: note_on channel=11 note=20 velocity=27 time=0
EXTRACT: note_on channel=11 note=20 velocity=0 time=0.007142849999999999
EXTRACT: note_on channel=11 note=44 velocity=0 time=0.023809499999999997
EXTRACT: note_on channel=11 note=20 velocity=28 time=0.026190449999999997
EXTRACT: note_on channel=11 note=20 velocity=0 time=0.008695666666666666
EXTRACT: note_on channel=11 note=20 velocity=28 time=0.02391308333333333
EXTRACT: note_on channel=11 note=20 velocity=0 time=0.028260916666666663
EXTRACT: note_on channel=11 note=20 velocity=28 time=0.026087
EXTRACT: note_on channel=11 note=20 velocity=0 time=0.028260916666666663
EXTRACT: note_on channel=11 note=20 velocity=28 time=0.028260916666666663
EXTRACT: note_on channel=11 note=20 velocity=0 time=0.00652175
EXTRACT: note_on channel=11 note=20 velocity=29 time=0.04347833333333333
EXTRACT: note_on channel=11 note=20 velocity=0 time=0.028260916666666663
EXTRACT: note_on channel=11 note=20 velocity=29 time=0.02391308333333333
EXTRACT: note_on channel=11 note=20 velocity=0 time=0.028260916666666663
EXTRACT: note_on channel=11 note=20 velocity=29 time=0.026087
EXTRACT: note_on channel=11 note=20 velocity=0 time=0.028260916666666663
EXTRACT: note_on channel=11 note=20 velocity=29 time=0.02391308333333333
EXTRACT: note_on channel=11 note=20 velocity=0 time=0.00652175
EXTRACT: note_on channel=11 note=20 velocity=30 time=0.04565225
EXTRACT: note_on channel=11 note=20 velocity=0 time=0.028260916666666663
EXTRACT: note_on channel=11 note=20 velocity=30 time=0.026087
EXTRACT: note_on channel=11 note=20 velocity=0 time=0.028260916666666663
EXTRACT: note_on channel=11 note=20 velocity=30 time=0.02391308333333333
EXTRACT: note_on channel=11 note=20 velocity=0 time=0.028260916666666663
EXTRACT: note_on channel=11 note=20 velocity=30 time=0.028260916666666663
EXTRACT: note_on channel=11 note=20 velocity=0 time=0.00652175
EXTRACT: note_on channel=11 note=20 velocity=31 time=0.04347833333333333
EXTRACT: note_on channel=11 note=20 velocity=0 time=0.028260916666666663
EXTRACT: note_on channel=11 note=20 velocity=31 time=0.02391308333333333
EXTRACT: note_on channel=11 note=20 velocity=0 time=0.028260916666666663
EXTRACT: note_on channel=11 note=20 velocity=31 time=0.026087
EXTRACT: note_on channel=11 note=20 velocity=0 time=0.028260916666666663
EXTRACT: note_on channel=11 note=20 velocity=31 time=0.02391308333333333
EXTRACT: note_on channel=11 note=20 velocity=0 time=0.00652175
EXTRACT: note_on channel=11 note=20 velocity=32 time=0.04782616666666666
EXTRACT: note_on channel=11 note=20 velocity=0 time=0.028260916666666663
EXTRACT: note_on channel=11 note=20 velocity=32 time=0.02391308333333333
EXTRACT: note_on channel=11 note=20 velocity=0 time=0.028260916666666663
EXTRACT: note_on channel=11 note=20 velocity=32 time=0.026087
EXTRACT: note_on channel=11 note=20 velocity=0 time=0.028260916666666663
EXTRACT: note_on channel=11 note=20 velocity=32 time=0.028260916666666663
EXTRACT: note_on channel=11 note=20 velocity=0 time=0.00652175
EXTRACT: note_on channel=11 note=20 velocity=33 time=0.04130441666666666
EXTRACT: note_on channel=11 note=20 velocity=0 time=0.028260916666666663
EXTRACT: note_on channel=11 note=20 velocity=33 time=0.026087
EXTRACT: note_on channel=11 note=20 velocity=0 time=0.028260916666666663
EXTRACT: note_on channel=11 note=20 velocity=33 time=0.02391308333333333
EXTRACT: note_on channel=11 note=20 velocity=0 time=0.028260916666666663
EXTRACT: note_on channel=11 note=20 velocity=33 time=0.026087
EXTRACT: note_on channel=11 note=20 velocity=0 time=0.00652175
EXTRACT: note_on channel=11 note=20 velocity=34 time=0.04565225
EXTRACT: note_on channel=11 note=20 velocity=0 time=0.028260916666666663
EXTRACT: note_on channel=11 note=20 velocity=34 time=0.02391308333333333
EXTRACT: note_on channel=11 note=20 velocity=0 time=0.028260916666666663
EXTRACT: note_on channel=11 note=20 velocity=34 time=0.026087
EXTRACT: note_on channel=11 note=20 velocity=0 time=0.028260916666666663
EXTRACT: note_on channel=11 note=20 velocity=34 time=0.028260916666666663
EXTRACT: note_on channel=11 note=20 velocity=0 time=0.00652175
EXTRACT: note_on channel=11 note=20 velocity=34 time=0.04347833333333333
EXTRACT: note_on channel=11 note=20 velocity=0 time=0.028260916666666663
EXTRACT: note_on channel=11 note=20 velocity=35 time=0.02391308333333333
EXTRACT: note_on channel=11 note=20 velocity=0 time=0.028260916666666663
EXTRACT: note_on channel=11 note=20 velocity=35 time=0.026087
EXTRACT: note_on channel=11 note=20 velocity=0 time=0.028260916666666663
EXTRACT: note_on channel=11 note=20 velocity=35 time=0.02391308333333333
EXTRACT: note_on channel=11 note=20 velocity=0 time=0.00652175
EXTRACT: note_on channel=11 note=20 velocity=35 time=0.04565225
EXTRACT: note_on channel=11 note=20 velocity=0 time=0.028260916666666663
EXTRACT: note_on channel=11 note=20 velocity=36 time=0.026087
EXTRACT: note_on channel=11 note=20 velocity=0 time=0.028260916666666663
EXTRACT: note_on channel=11 note=20 velocity=36 time=0.02391308333333333
EXTRACT: note_on channel=11 note=20 velocity=0 time=0.028260916666666663
EXTRACT: note_on channel=11 note=20 velocity=36 time=0.028260916666666663
EXTRACT: note_on channel=11 note=20 velocity=0 time=0.00652175
EXTRACT: note_on channel=11 note=20 velocity=36 time=0.04347833333333333
EXTRACT: note_on channel=11 note=20 velocity=0 time=0.028260916666666663
EXTRACT: note_on channel=11 note=20 velocity=37 time=0.02391308333333333
EXTRACT: note_on channel=11 note=20 velocity=0 time=0.028260916666666663
EXTRACT: note_on channel=11 note=20 velocity=37 time=0.026087
EXTRACT: note_on channel=11 note=20 velocity=0 time=0.028260916666666663
EXTRACT: note_on channel=11 note=20 velocity=37 time=0.02391308333333333
EXTRACT: note_on channel=11 note=20 velocity=0 time=0.00652175
EXTRACT: note_on channel=11 note=20 velocity=37 time=0.04782616666666666
EXTRACT: note_on channel=11 note=20 velocity=0 time=0.028260916666666663
EXTRACT: note_on channel=11 note=20 velocity=38 time=0.02391308333333333
EXTRACT: note_on channel=11 note=20 velocity=0 time=0.028260916666666663
EXTRACT: note_on channel=11 note=20 velocity=38 time=0.026087
EXTRACT: note_on channel=11 note=20 velocity=0 time=0.028260916666666663
EXTRACT: note_on channel=11 note=20 velocity=38 time=0.028260916666666663
EXTRACT: note_on channel=11 note=20 velocity=0 time=0.00652175
EXTRACT: note_on channel=11 note=20 velocity=38 time=0.04130441666666666
EXTRACT: note_on channel=11 note=20 velocity=0 time=0.028260916666666663
EXTRACT: note_on channel=11 note=20 velocity=39 time=0.026087
EXTRACT: note_on channel=11 note=20 velocity=0 time=0.028260916666666663
EXTRACT: note_on channel=11 note=20 velocity=39 time=0.02391308333333333
EXTRACT: note_on channel=11 note=20 velocity=0 time=0.028260916666666663
EXTRACT: note_on channel=11 note=20 velocity=39 time=0.026087
EXTRACT: note_on channel=11 note=20 velocity=0 time=0.00652175
EXTRACT: note_on channel=11 note=20 velocity=39 time=0.04565225
EXTRACT: note_on channel=11 note=20 velocity=0 time=0.028260916666666663
EXTRACT: note_on channel=11 note=20 velocity=40 time=0.02391308333333333
EXTRACT: note_on channel=11 note=20 velocity=0 time=0.028260916666666663
EXTRACT: note_on channel=11 note=20 velocity=40 time=0.026087
EXTRACT: note_on channel=11 note=20 velocity=0 time=0.028260916666666663
EXTRACT: note_on channel=11 note=20 velocity=40 time=0.028260916666666663
EXTRACT: note_on channel=11 note=20 velocity=0 time=0.00652175
EXTRACT: note_on channel=11 note=20 velocity=40 time=0.04347833333333333
EXTRACT: note_on channel=11 note=20 velocity=0 time=0.028260916666666663
EXTRACT: note_on channel=11 note=20 velocity=41 time=0.02391308333333333
EXTRACT: note_on channel=11 note=20 velocity=0 time=0.028260916666666663
EXTRACT: note_on channel=11 note=20 velocity=41 time=0.026087
EXTRACT: note_on channel=11 note=20 velocity=0 time=0.028260916666666663
EXTRACT: note_on channel=11 note=20 velocity=41 time=0.02391308333333333
EXTRACT: note_on channel=11 note=20 velocity=0 time=0.00652175
EXTRACT: note_on channel=11 note=20 velocity=41 time=0.04565225
EXTRACT: note_on channel=11 note=20 velocity=0 time=0.028260916666666663
EXTRACT: note_on channel=11 note=20 velocity=42 time=0.026087
EXTRACT: note_on channel=11 note=20 velocity=0 time=0.028260916666666663
EXTRACT: note_on channel=11 note=20 velocity=42 time=0.02391308333333333
EXTRACT: note_on channel=11 note=20 velocity=0 time=0.028260916666666663
EXTRACT: note_on channel=11 note=20 velocity=42 time=0.028260916666666663
EXTRACT: note_on channel=11 note=20 velocity=0 time=0.00652175
EXTRACT: note_on channel=11 note=20 velocity=42 time=0.04347833333333333
EXTRACT: note_on channel=11 note=20 velocity=0 time=0.028260916666666663
EXTRACT: note_on channel=11 note=20 velocity=43 time=0.02391308333333333
EXTRACT: note_on channel=11 note=20 velocity=0 time=0.028260916666666663
EXTRACT: note_on channel=11 note=20 velocity=43 time=0.026087
EXTRACT: note_on channel=11 note=20 velocity=0 time=0.028260916666666663
EXTRACT: note_on channel=11 note=44 velocity=4 time=0.02391308333333333
EXTRACT: note_on channel=11 note=20 velocity=43 time=0
EXTRACT: note_on channel=11 note=20 velocity=43 time=0
EXTRACT: note_on channel=11 note=20 velocity=0 time=0.00652175
EXTRACT: note_on channel=11 note=44 velocity=0 time=0
EXTRACT: note_on channel=11 note=20 velocity=0 time=0.021739166666666664
EXTRACT: note_on channel=11 note=44 velocity=4 time=0.026087
EXTRACT: note_on channel=11 note=20 velocity=43 time=0
EXTRACT: note_on channel=11 note=20 velocity=0 time=0.028260916666666663
EXTRACT: note_on channel=11 note=44 velocity=0 time=0
EXTRACT: note_on channel=11 note=20 velocity=44 time=0.02391308333333333
EXTRACT: note_on channel=11 note=44 velocity=6 time=0.015217416666666666
EXTRACT: note_on channel=11 note=20 velocity=0 time=0.0130435
EXTRACT: note_on channel=11 note=44 velocity=0 time=0.015217416666666666
EXTRACT: note_on channel=11 note=44 velocity=7 time=0.010869583333333332
EXTRACT: note_on channel=11 note=20 velocity=44 time=0
EXTRACT: note_on channel=14 note=72 velocity=74 time=0.008695666666666666
EXTRACT: note_on channel=11 note=20 velocity=0 time=0.01956525
EXTRACT: note_on channel=11 note=44 velocity=0 time=0
EXTRACT: note_on channel=11 note=44 velocity=9 time=0.02391308333333333
EXTRACT: note_on channel=11 note=20 velocity=44 time=0.004347833333333333
EXTRACT: note_on channel=11 note=44 velocity=0 time=0.0021739166666666664
EXTRACT: note_on channel=11 note=20 velocity=0 time=0.004347833333333333
EXTRACT: note_on channel=11 note=44 velocity=9 time=0.04130441666666666
EXTRACT: note_on channel=11 note=20 velocity=44 time=0
EXTRACT: note_on channel=11 note=20 velocity=0 time=0.028260916666666663
EXTRACT: note_on channel=11 note=44 velocity=0 time=0
EXTRACT: note_on channel=11 note=20 velocity=45 time=0.026087
EXTRACT: note_on channel=11 note=44 velocity=11 time=0.0130435
EXTRACT: note_on channel=11 note=20 velocity=0 time=0.015217416666666666
EXTRACT: note_on channel=11 note=44 velocity=0 time=0.0130435
EXTRACT: note_on channel=11 note=44 velocity=12 time=0.010869583333333332
EXTRACT: note_on channel=11 note=20 velocity=45 time=0
EXTRACT: note_on channel=11 note=20 velocity=0 time=0.028260916666666663
EXTRACT: note_on channel=11 note=44 velocity=0 time=0
EXTRACT: note_on channel=11 note=44 velocity=15 time=0.026087
EXTRACT: note_on channel=11 note=20 velocity=45 time=0
EXTRACT: note_on channel=11 note=20 velocity=0 time=0.00652175
EXTRACT: note_on channel=11 note=44 velocity=0 time=0
EXTRACT: note_on channel=11 note=44 velocity=16 time=0.04565225
EXTRACT: note_on channel=11 note=20 velocity=45 time=0
EXTRACT: note_on channel=11 note=20 velocity=0 time=0.028260916666666663
EXTRACT: note_on channel=11 note=44 velocity=0 time=0
EXTRACT: note_on channel=11 note=20 velocity=46 time=0.02391308333333333
EXTRACT: note_on channel=11 note=44 velocity=16 time=0.015217416666666666
EXTRACT: note_on channel=11 note=20 velocity=0 time=0.0130435
EXTRACT: note_on channel=11 note=44 velocity=0 time=0.015217416666666666
EXTRACT: note_on channel=11 note=44 velocity=19 time=0.010869583333333332
EXTRACT: note_on channel=11 note=20 velocity=46 time=0
EXTRACT: note_on channel=11 note=20 velocity=0 time=0.028260916666666663
EXTRACT: note_on channel=11 note=44 velocity=0 time=0
EXTRACT: note_on channel=11 note=44 velocity=21 time=0.02391308333333333
EXTRACT: note_on channel=11 note=20 velocity=46 time=0.004347833333333333
EXTRACT: note_on channel=11 note=44 velocity=0 time=0.0021739166666666664
EXTRACT: note_on channel=11 note=20 velocity=0 time=0.004347833333333333
EXTRACT: note_on channel=11 note=44 velocity=22 time=0.04347833333333333
EXTRACT: note_on channel=11 note=20 velocity=46 time=0
EXTRACT: note_on channel=11 note=20 velocity=0 time=0.028260916666666663
EXTRACT: note_on channel=11 note=44 velocity=0 time=0
EXTRACT: note_on channel=11 note=20 velocity=47 time=0.02391308333333333
EXTRACT: note_on channel=11 note=44 velocity=24 time=0.015217416666666666
EXTRACT: note_on channel=11 note=20 velocity=0 time=0.0130435
EXTRACT: note_on channel=11 note=44 velocity=0 time=0.015217416666666666
EXTRACT: note_on channel=11 note=44 velocity=28 time=0.010869583333333332
EXTRACT: note_on channel=11 note=20 velocity=47 time=0
EXTRACT: note_on channel=11 note=20 velocity=0 time=0.028260916666666663
EXTRACT: note_on channel=11 note=44 velocity=0 time=0
EXTRACT: note_on channel=11 note=44 velocity=31 time=0.02391308333333333
EXTRACT: note_on channel=11 note=20 velocity=47 time=0
EXTRACT: note_on channel=11 note=20 velocity=0 time=0.00652175
EXTRACT: note_on channel=11 note=44 velocity=0 time=0
EXTRACT: note_on channel=11 note=44 velocity=30 time=0.04565225
EXTRACT: note_on channel=11 note=20 velocity=47 time=0
EXTRACT: note_on channel=11 note=20 velocity=0 time=0.028260916666666663
EXTRACT: note_on channel=11 note=44 velocity=0 time=0
EXTRACT: note_on channel=11 note=20 velocity=48 time=0.026087
EXTRACT: note_on channel=11 note=44 velocity=34 time=0.0130435
EXTRACT: note_on channel=11 note=20 velocity=0 time=0.015217416666666666
EXTRACT: note_on channel=11 note=44 velocity=0 time=0.0130435
EXTRACT: note_on channel=11 note=44 velocity=39 time=0.010869583333333332
EXTRACT: note_on channel=11 note=20 velocity=48 time=0
EXTRACT: note_on channel=11 note=20 velocity=0 time=0.028260916666666663
EXTRACT: note_on channel=11 note=44 velocity=0 time=0
EXTRACT: note_on channel=11 note=44 velocity=44 time=0.026087
EXTRACT: note_on channel=11 note=20 velocity=48 time=0.0021739166666666664
EXTRACT: note_on channel=11 note=44 velocity=0 time=0.004347833333333333
EXTRACT: note_on channel=11 note=20 velocity=0 time=0.0021739166666666664
EXTRACT: note_on channel=11 note=44 velocity=43 time=0.04347833333333333
EXTRACT: note_on channel=11 note=20 velocity=48 time=0
EXTRACT: note_on channel=11 note=20 velocity=0 time=0.028260916666666663
EXTRACT: note_on channel=11 note=44 velocity=0 time=0
EXTRACT: note_on channel=11 note=20 velocity=49 time=0.02391308333333333
EXTRACT: note_on channel=11 note=44 velocity=46 time=0.015217416666666666
EXTRACT: note_on channel=11 note=20 velocity=0 time=0.0130435
EXTRACT: note_on channel=11 note=44 velocity=0 time=0.015217416666666666
EXTRACT: note_on channel=11 note=44 velocity=53 time=0.010869583333333332
EXTRACT: note_on channel=11 note=20 velocity=49 time=0
EXTRACT: note_on channel=11 note=20 velocity=0 time=0.028260916666666663
EXTRACT: note_on channel=11 note=44 velocity=0 time=0
EXTRACT: note_on channel=11 note=44 velocity=60 time=0.02391308333333333
EXTRACT: note_on channel=11 note=20 velocity=49 time=0
EXTRACT: note_on channel=11 note=20 velocity=0 time=0.00652175
EXTRACT: note_on channel=11 note=44 velocity=0 time=0
EXTRACT: note_on channel=11 note=44 velocity=56 time=0.04782616666666666
EXTRACT: note_on channel=11 note=20 velocity=49 time=0
EXTRACT: note_on channel=11 note=20 velocity=0 time=0.028260916666666663
EXTRACT: note_on channel=11 note=44 velocity=0 time=0
EXTRACT: note_on channel=11 note=20 velocity=49 time=0.02391308333333333
EXTRACT: note_on channel=11 note=44 velocity=59 time=0.015217416666666666
EXTRACT: note_on channel=11 note=20 velocity=0 time=0.0130435
EXTRACT: note_on channel=11 note=44 velocity=0 time=0.015217416666666666
EXTRACT: note_on channel=11 note=44 velocity=68 time=0.010869583333333332
EXTRACT: note_on channel=11 note=20 velocity=50 time=0
EXTRACT: note_on channel=14 note=72 velocity=0 time=0.008695666666666666
EXTRACT: note_on channel=11 note=20 velocity=0 time=0.01956525
EXTRACT: note_on channel=11 note=44 velocity=0 time=0
EXTRACT: note_on channel=11 note=44 velocity=69 time=0.02391308333333333
EXTRACT: note_on channel=11 note=20 velocity=50 time=0.004347833333333333
EXTRACT: note_on channel=11 note=44 velocity=0 time=0.0021739166666666664
EXTRACT: note_on channel=11 note=20 velocity=0 time=0.004347833333333333
EXTRACT: note_on channel=11 note=44 velocity=70 time=0.04130441666666666
EXTRACT: note_on channel=11 note=20 velocity=50 time=0
EXTRACT: note_on channel=11 note=20 velocity=0 time=0.028260916666666663
EXTRACT: note_on channel=11 note=44 velocity=0 time=0
EXTRACT: note_on channel=11 note=20 velocity=50 time=0.026087
EXTRACT: note_on channel=11 note=44 velocity=71 time=0.0130435
EXTRACT: note_on channel=11 note=20 velocity=0 time=0.015217416666666666
EXTRACT: note_on channel=11 note=44 velocity=0 time=0.0130435
EXTRACT: note_on channel=11 note=44 velocity=70 time=0.010869583333333332
EXTRACT: note_on channel=11 note=20 velocity=50 time=0
EXTRACT: note_on channel=11 note=20 velocity=0 time=0.028260916666666663
EXTRACT: note_on channel=11 note=44 velocity=0 time=0
EXTRACT: note_on channel=4 note=63 velocity=103 time=0.016786583333333334
EXTRACT: note_on channel=4 note=60 velocity=102 time=0
EXTRACT: note_on channel=4 note=56 velocity=100 time=0
EXTRACT: note_on channel=4 note=51 velocity=98 time=0
EXTRACT: note_on channel=11 note=44 velocity=127 time=0
EXTRACT: control_change channel=4 control=11 value=106 time=0.0047961666666666665
EXTRACT: note_on channel=9 note=57 velocity=91 time=0
EXTRACT: note_on channel=11 note=44 velocity=0 time=0.026378916666666665
EXTRACT: control_change channel=4 control=11 value=108 time=0.026378916666666665
EXTRACT: note_on channel=9 note=57 velocity=0 time=0.0047961666666666665
EXTRACT: control_change channel=4 control=11 value=106 time=0.19904091666666665
EXTRACT: note_on channel=5 note=56 velocity=119 time=0.15347733333333333
EXTRACT: note_on channel=5 note=51 velocity=112 time=0
EXTRACT: note_on channel=5 note=44 velocity=106 time=0.007194249999999999
EXTRACT: control_change channel=4 control=11 value=104 time=0.011990416666666667
EXTRACT: note_on channel=11 note=44 velocity=127 time=0.03357316666666667
EXTRACT: note_on channel=15 note=96 velocity=96 time=0.011990416666666667
EXTRACT: note_on channel=3 note=72 velocity=80 time=0
EXTRACT: note_on channel=3 note=84 velocity=110 time=0
EXTRACT: note_on channel=11 note=44 velocity=0 time=0.0023980833333333332
EXTRACT: note_on channel=5 note=56 velocity=0 time=0.016786583333333334
EXTRACT: note_on channel=5 note=51 velocity=0 time=0.0023980833333333332
EXTRACT: note_on channel=5 note=44 velocity=0 time=0.028776999999999997
EXTRACT: note_on channel=15 note=96 velocity=0 time=0.026378916666666665
EXTRACT: control_change channel=4 control=11 value=102 time=0.07194249999999999
EXTRACT: note_on channel=3 note=84 velocity=0 time=0.04556358333333333
EXTRACT: note_on channel=3 note=72 velocity=0 time=0
EXTRACT: note_on channel=15 note=87 velocity=91 time=0.23021599999999998
EXTRACT: note_on channel=3 note=63 velocity=77 time=0.043165499999999996
EXTRACT: note_on channel=3 note=75 velocity=106 time=0
EXTRACT: control_change channel=4 control=11 value=104 time=0
EXTRACT: note_on channel=15 note=87 velocity=0 time=0.03836933333333333
EXTRACT: note_on channel=5 note=51 velocity=110 time=0.10311758333333333
EXTRACT: note_on channel=5 note=56 velocity=118 time=0.0023980833333333332
EXTRACT: note_on channel=5 note=44 velocity=107 time=0.011990416666666667
EXTRACT: control_change channel=4 control=11 value=106 time=0.055155916666666666
EXTRACT: note_on channel=5 note=56 velocity=0 time=0.03357316666666667
EXTRACT: note_on channel=5 note=51 velocity=0 time=0
EXTRACT: note_on channel=5 note=44 velocity=0 time=0.011990416666666667
EXTRACT: note_on channel=3 note=75 velocity=0 time=0.13669075
EXTRACT: note_on channel=3 note=63 velocity=0 time=0
EXTRACT: note_on channel=15 note=96 velocity=86 time=0.011990416666666667
EXTRACT: note_on channel=3 note=72 velocity=78 time=0.028776999999999997
EXTRACT: note_on channel=3 note=84 velocity=108 time=0
EXTRACT: control_change channel=4 control=11 value=108 time=0.0023980833333333332
EXTRACT: note_on channel=15 note=96 velocity=0 time=0.06474825
EXTRACT: note_on channel=3 note=84 velocity=0 time=0.11990416666666666
EXTRACT: note_on channel=3 note=72 velocity=0 time=0
EXTRACT: control_change channel=4 control=11 value=110 time=0.0047961666666666665
EXTRACT: control_change channel=4 control=11 value=112 time=0.20863325
EXTRACT: note_on channel=5 note=51 velocity=112 time=0.021582749999999998
EXTRACT: note_on channel=5 note=56 velocity=118 time=0.0023980833333333332
EXTRACT: note_on channel=5 note=44 velocity=106 time=0.011990416666666667
EXTRACT: note_on channel=15 note=94 velocity=85 time=0.028776999999999997
EXTRACT: note_on channel=3 note=70 velocity=75 time=0.014388499999999999
EXTRACT: note_on channel=3 note=82 velocity=104 time=0
EXTRACT: note_on channel=5 note=51 velocity=0 time=0.035971249999999996
EXTRACT: note_on channel=5 note=56 velocity=0 time=0.0047961666666666665
EXTRACT: note_on channel=5 note=44 velocity=0 time=0.011990416666666667
EXTRACT: note_on channel=15 note=94 velocity=0 time=0.0023980833333333332
EXTRACT: control_change channel=4 control=11 value=114 time=0.11750608333333333
EXTRACT: note_on channel=3 note=82 velocity=0 time=0.20863325
EXTRACT: note_on channel=3 note=70 velocity=0 time=0
EXTRACT: note_on channel=3 note=72 velocity=79 time=0.07194249999999999
EXTRACT: note_on channel=3 note=84 velocity=109 time=0
EXTRACT: note_on channel=15 note=96 velocity=86 time=0.0023980833333333332
EXTRACT: control_change channel=4 control=11 value=116 time=0.011990416666666667
EXTRACT: note_on channel=15 note=96 velocity=0 time=0.07673866666666666
EXTRACT: note_on channel=5 note=51 velocity=112 time=0.11270991666666666
EXTRACT: note_on channel=3 note=84 velocity=0 time=0.0023980833333333332
EXTRACT: note_on channel=3 note=72 velocity=0 time=0
EXTRACT: note_on channel=5 note=56 velocity=118 time=0.0047961666666666665
EXTRACT: note_on channel=5 note=44 velocity=107 time=0
EXTRACT: note_on channel=3 note=70 velocity=81 time=0.055155916666666666
EXTRACT: note_on channel=3 note=82 velocity=111 time=0
EXTRACT: note_on channel=15 note=94 velocity=85 time=0.0023980833333333332
EXTRACT: note_on channel=5 note=56 velocity=0 time=0.035971249999999996
EXTRACT: note_on channel=5 note=51 velocity=0 time=0
EXTRACT: note_on channel=5 note=44 velocity=0 time=0.007194249999999999
EXTRACT: note_on channel=15 note=94 velocity=0 time=0.021582749999999998
EXTRACT: control_change channel=4 control=11 value=114 time=0.009592333333333333
EXTRACT: control_change channel=4 control=11 value=112 time=0.15587541666666666
EXTRACT: control_change channel=4 control=11 value=110 time=0.14148691666666666
EXTRACT: note_on channel=3 note=82 velocity=0 time=0.031175083333333332
EXTRACT: note_on channel=3 note=70 velocity=0 time=0
EXTRACT: note_on channel=3 note=68 velocity=77 time=0.055155916666666666
EXTRACT: note_on channel=3 note=80 velocity=106 time=0
EXTRACT: note_on channel=15 note=92 velocity=72 time=0.007194249999999999
EXTRACT: control_change channel=4 control=11 value=108 time=0.031175083333333332
EXTRACT: note_on channel=15 note=92 velocity=0 time=0.021582749999999998
EXTRACT: note_on channel=3 note=80 velocity=0 time=0.13429266666666667
EXTRACT: note_on channel=3 note=68 velocity=0 time=0
EXTRACT: control_change channel=4 control=11 value=106 time=0
EXTRACT: control_change channel=12 control=10 value=0 time=0.023980833333333333
EXTRACT: note_on channel=12 note=51 velocity=85 time=0.007194249999999999
EXTRACT: note_on channel=3 note=63 velocity=80 time=0.0047961666666666665
EXTRACT: note_on channel=3 note=75 velocity=110 time=0
EXTRACT: note_on channel=15 note=87 velocity=91 time=0.011990416666666667
EXTRACT: note_on channel=12 note=56 velocity=81 time=0.062350166666666665
EXTRACT: note_on channel=15 note=87 velocity=0 time=0.014388499999999999
EXTRACT: note_on channel=12 note=51 velocity=0 time=0.026378916666666665
EXTRACT: control_change channel=12 control=10 value=31 time=0.035971249999999996
EXTRACT: note_on channel=12 note=60 velocity=109 time=0
EXTRACT: note_on channel=12 note=56 velocity=0 time=0.062350166666666665
EXTRACT: note_on channel=12 note=63 velocity=101 time=0.016786583333333334
EXTRACT: note_on channel=12 note=60 velocity=0 time=0.023980833333333333
EXTRACT: control_change channel=12 control=10 value=64 time=0.0023980833333333332
EXTRACT: note_on channel=12 note=63 velocity=0 time=0.035971249999999996
EXTRACT: note_on channel=12 note=68 velocity=92 time=0.014388499999999999
EXTRACT: control_change channel=12 control=10 value=94 time=0.043165499999999996
EXTRACT: note_on channel=12 note=68 velocity=0 time=0.03357316666666667
EXTRACT: note_on channel=12 note=72 velocity=106 time=0.0023980833333333332
EXTRACT: control_change channel=12 control=10 value=126 time=0.04556358333333333
EXTRACT: note_on channel=4 note=51 velocity=0 time=0.026378916666666665
EXTRACT: note_on channel=4 note=63 velocity=0 time=0
EXTRACT: note_on channel=4 note=60 velocity=0 time=0
EXTRACT: note_on channel=4 note=56 velocity=0 time=0
EXTRACT: note_on channel=4 note=52 velocity=96 time=0.0023980833333333332
EXTRACT: note_on channel=4 note=64 velocity=104 time=0
EXTRACT: note_on channel=4 note=60 velocity=102 time=0
EXTRACT: note_on channel=4 note=56 velocity=100 time=0
EXTRACT: note_on channel=12 note=72 velocity=0 time=0.0023980833333333332
EXTRACT: note_on channel=12 note=76 velocity=101 time=0
EXTRACT: note_on channel=3 note=75 velocity=0 time=0.011990416666666667
EXTRACT: note_on channel=3 note=63 velocity=0 time=0
EXTRACT: control_change channel=4 control=11 value=108 time=0.05995208333333333
EXTRACT: control_change channel=4 control=11 value=106 time=0.18705049999999998
EXTRACT: control_change channel=4 control=11 value=104 time=0.17026391666666665
EXTRACT: note_on channel=5 note=51 velocity=114 time=0.023980833333333333
EXTRACT: note_on channel=5 note=56 velocity=118 time=0.0047961666666666665
EXTRACT: note_on channel=12 note=76 velocity=0 time=0.009592333333333333
EXTRACT: note_on channel=3 note=72 velocity=81 time=0.0023980833333333332
EXTRACT: note_on channel=3 note=84 velocity=112 time=0
EXTRACT: note_on channel=15 note=96 velocity=86 time=0
EXTRACT: note_on channel=5 note=44 velocity=107 time=0.0023980833333333332
EXTRACT: note_on channel=5 note=56 velocity=0 time=0.07434058333333333
EXTRACT: note_on channel=5 note=51 velocity=0 time=0
EXTRACT: note_on channel=15 note=96 velocity=0 time=0.011990416666666667
EXTRACT: note_on channel=5 note=44 velocity=0 time=0.009592333333333333
EXTRACT: note_on channel=3 note=84 velocity=0 time=0.09112716666666666
EXTRACT: note_on channel=3 note=72 velocity=0 time=0
EXTRACT: note_on channel=15 note=88 velocity=74 time=0.2829738333333333
EXTRACT: note_on channel=3 note=64 velocity=80 time=0.007194249999999999
EXTRACT: note_on channel=3 note=76 velocity=110 time=0
EXTRACT: note_on channel=15 note=88 velocity=0 time=0.08153483333333333
EXTRACT: note_on channel=5 note=51 velocity=112 time=0.1294965
EXTRACT: note_on channel=5 note=44 velocity=102 time=0.0023980833333333332
EXTRACT: note_on channel=5 note=56 velocity=118 time=0.0047961666666666665
EXTRACT: control_change channel=4 control=11 value=106 time=0.043165499999999996
EXTRACT: note_on channel=5 note=51 velocity=0 time=0.03836933333333333
EXTRACT: note_on channel=5 note=56 velocity=0 time=0.0023980833333333332
EXTRACT: note_on channel=5 note=44 velocity=0 time=0
EXTRACT: note_on channel=3 note=76 velocity=0 time=0.14868116666666667
EXTRACT: note_on channel=3 note=64 velocity=0 time=0
EXTRACT: note_on channel=15 note=96 velocity=86 time=0.0023980833333333332
EXTRACT: note_on channel=3 note=72 velocity=81 time=0.023980833333333333
EXTRACT: note_on channel=3 note=84 velocity=111 time=0
EXTRACT: control_change channel=4 control=11 value=108 time=0.019184666666666666
EXTRACT: note_on channel=15 note=96 velocity=0 time=0.04076741666666667
EXTRACT: control_change channel=4 control=11 value=110 time=0.12230225
EXTRACT: note_on channel=3 note=84 velocity=0 time=0.08633099999999999
EXTRACT: note_on channel=3 note=72 velocity=0 time=0
EXTRACT: note_on channel=5 note=51 velocity=110 time=0.16067158333333334
EXTRACT: note_on channel=5 note=56 velocity=116 time=0.007194249999999999
EXTRACT: note_on channel=15 note=94 velocity=85 time=0
EXTRACT: control_change channel=4 control=11 value=112 time=0.0023980833333333332
EXTRACT: note_on channel=5 note=44 velocity=105 time=0
EXTRACT: note_on channel=11 note=44 velocity=127 time=0.0047961666666666665
EXTRACT: note_on channel=11 note=44 velocity=0 time=0.031175083333333332
EXTRACT: note_on channel=3 note=70 velocity=80 time=0.0047961666666666665
EXTRACT: note_on channel=3 note=82 velocity=110 time=0
EXTRACT: note_on channel=15 note=94 velocity=0 time=0.028776999999999997
EXTRACT: note_on channel=5 note=51 velocity=0 time=0.0047961666666666665
EXTRACT: note_on channel=5 note=56 velocity=0 time=0.0047961666666666665
EXTRACT: note_on channel=5 note=44 velocity=0 time=0.0047961666666666665
EXTRACT: control_change channel=4 control=11 value=114 time=0.19904091666666665
EXTRACT: note_on channel=3 note=82 velocity=0 time=0.13908883333333333
EXTRACT: note_on channel=3 note=70 velocity=0 time=0
EXTRACT: note_on channel=3 note=72 velocity=78 time=0.035971249999999996
EXTRACT: note_on channel=3 note=84 velocity=108 time=0
EXTRACT: note_on channel=11 note=39 velocity=127 time=0.014388499999999999
EXTRACT: note_on channel=15 note=96 velocity=91 time=0.0047961666666666665
EXTRACT: note_on channel=11 note=39 velocity=0 time=0.026378916666666665
EXTRACT: note_on channel=15 note=96 velocity=0 time=0.06954441666666666
EXTRACT: note_on channel=3 note=84 velocity=0 time=0.10551566666666666
EXTRACT: note_on channel=3 note=72 velocity=0 time=0
EXTRACT: note_on channel=5 note=44 velocity=104 time=0.016786583333333334
EXTRACT: note_on channel=5 note=51 velocity=110 time=0.0047961666666666665
EXTRACT: note_on channel=5 note=56 velocity=119 time=0.007194249999999999
EXTRACT: note_on channel=15 note=94 velocity=91 time=0.019184666666666666
EXTRACT: note_on channel=3 note=70 velocity=81 time=0.0047961666666666665
EXTRACT: note_on channel=3 note=82 velocity=111 time=0
EXTRACT: note_on channel=5 note=44 velocity=0 time=0.047961666666666666
EXTRACT: note_on channel=5 note=51 velocity=0 time=0.0047961666666666665
EXTRACT: note_on channel=5 note=56 velocity=0 time=0.007194249999999999
EXTRACT: note_on channel=15 note=94 velocity=0 time=0.0047961666666666665
EXTRACT: control_change channel=4 control=11 value=112 time=0.12709841666666666
EXTRACT: note_on channel=11 note=44 velocity=127 time=0.016786583333333334
EXTRACT: note_on channel=11 note=44 velocity=0 time=0.031175083333333332
EXTRACT: control_change channel=4 control=11 value=110 time=0.08393291666666666
EXTRACT: note_on channel=3 note=82 velocity=0 time=0.021582749999999998
EXTRACT: note_on channel=3 note=70 velocity=0 time=0
EXTRACT: note_on channel=3 note=68 velocity=78 time=0.09832141666666666
EXTRACT: note_on channel=3 note=80 velocity=107 time=0
EXTRACT: note_on channel=15 note=92 velocity=80 time=0.016786583333333334
EXTRACT: control_change channel=4 control=11 value=108 time=0.0047961666666666665
EXTRACT: note_on channel=15 note=92 velocity=0 time=0.05995208333333333
EXTRACT: note_on channel=3 note=80 velocity=0 time=0.10791374999999999
EXTRACT: note_on channel=3 note=68 velocity=0 time=0
EXTRACT: control_change channel=4 control=11 value=106 time=0.0023980833333333332
EXTRACT: note_on channel=3 note=64 velocity=81 time=0.04076741666666667
EXTRACT: note_on channel=3 note=76 velocity=112 time=0
EXTRACT: control_change channel=12 control=10 value=0 time=0
EXTRACT: note_on channel=11 note=39 velocity=127 time=0.0023980833333333332
EXTRACT: note_on channel=12 note=51 velocity=85 time=0.0047961666666666665
EXTRACT: note_on channel=15 note=88 velocity=102 time=0.0023980833333333332
EXTRACT: note_on channel=11 note=39 velocity=0 time=0.023980833333333333
EXTRACT: note_on channel=12 note=56 velocity=81 time=0.050359749999999995
EXTRACT: note_on channel=15 note=88 velocity=0 time=0.007194249999999999
EXTRACT: note_on channel=12 note=51 velocity=0 time=0.035971249999999996
EXTRACT: control_change channel=12 control=10 value=31 time=0.035971249999999996
EXTRACT: note_on channel=12 note=60 velocity=109 time=0
EXTRACT: note_on channel=12 note=56 velocity=0 time=0.05995208333333333
EXTRACT: note_on channel=12 note=63 velocity=101 time=0.016786583333333334
EXTRACT: note_on channel=12 note=60 velocity=0 time=0.026378916666666665
EXTRACT: control_change channel=12 control=10 value=64 time=0.0023980833333333332
EXTRACT: note_on channel=12 note=63 velocity=0 time=0.03357316666666667
EXTRACT: note_on channel=12 note=68 velocity=92 time=0.016786583333333334
EXTRACT: control_change channel=12 control=10 value=94 time=0.043165499999999996
EXTRACT: note_on channel=12 note=68 velocity=0 time=0.03357316666666667
EXTRACT: note_on channel=12 note=72 velocity=106 time=0.0023980833333333332
EXTRACT: note_on channel=3 note=76 velocity=0 time=0.03357316666666667
EXTRACT: note_on channel=3 note=64 velocity=0 time=0
EXTRACT: control_change channel=12 control=10 value=126 time=0.011990416666666667
EXTRACT: note_on channel=4 note=56 velocity=0 time=0.026378916666666665
EXTRACT: note_on channel=4 note=52 velocity=0 time=0
EXTRACT: note_on channel=4 note=64 velocity=0 time=0
EXTRACT: note_on channel=4 note=60 velocity=0 time=0
EXTRACT: note_on channel=4 note=65 velocity=105 time=0
EXTRACT: note_on channel=4 note=56 velocity=101 time=0
EXTRACT: note_on channel=4 note=60 velocity=102 time=0
EXTRACT: note_on channel=4 note=53 velocity=99 time=0
EXTRACT: note_on channel=11 note=44 velocity=127 time=0
EXTRACT: note_on channel=12 note=72 velocity=0 time=0.0047961666666666665
EXTRACT: note_on channel=12 note=77 velocity=101 time=0
EXTRACT: note_on channel=11 note=44 velocity=0 time=0.026378916666666665
EXTRACT: note_on channel=5 note=56 velocity=119 time=0.38369333333333333
EXTRACT: note_on channel=5 note=51 velocity=112 time=0
EXTRACT: note_on channel=5 note=44 velocity=106 time=0.007194249999999999
EXTRACT: control_change channel=4 control=11 value=104 time=0.019184666666666666
EXTRACT: note_on channel=3 note=72 velocity=81 time=0.0047961666666666665
EXTRACT: note_on channel=3 note=84 velocity=112 time=0
EXTRACT: note_on channel=11 note=44 velocity=127 time=0.021582749999999998
EXTRACT: note_on channel=12 note=77 velocity=0 time=0.0047961666666666665
EXTRACT: note_on channel=15 note=96 velocity=86 time=0.009592333333333333
EXTRACT: note_on channel=11 note=44 velocity=0 time=0.016786583333333334
EXTRACT: note_on channel=5 note=56 velocity=0 time=0.016786583333333334
EXTRACT: note_on channel=5 note=51 velocity=0 time=0.0023980833333333332
EXTRACT: note_on channel=5 note=44 velocity=0 time=0.028776999999999997
EXTRACT: note_on channel=15 note=96 velocity=0 time=0.016786583333333334
EXTRACT: note_on channel=3 note=84 velocity=0 time=0.12709841666666666
EXTRACT: note_on channel=3 note=72 velocity=0 time=0
EXTRACT: note_on channel=3 note=65 velocity=81 time=0.23261408333333333
EXTRACT: note_on channel=3 note=77 velocity=112 time=0
EXTRACT: note_on channel=15 note=89 velocity=86 time=0.014388499999999999
EXTRACT: note_on channel=15 note=89 velocity=0 time=0.08872908333333333
EXTRACT: note_on channel=5 note=51 velocity=110 time=0.07913674999999999
EXTRACT: note_on channel=5 note=56 velocity=118 time=0.0047961666666666665
EXTRACT: note_on channel=5 note=44 velocity=107 time=0.011990416666666667
EXTRACT: note_on channel=5 note=51 velocity=0 time=0.08633099999999999
EXTRACT: note_on channel=5 note=56 velocity=0 time=0.0023980833333333332
EXTRACT: note_on channel=5 note=44 velocity=0 time=0.011990416666666667
EXTRACT: control_change channel=4 control=11 value=106 time=0.007194249999999999
EXTRACT: note_on channel=3 note=77 velocity=0 time=0.08633099999999999
EXTRACT: note_on channel=3 note=65 velocity=0 time=0
EXTRACT: note_on channel=3 note=72 velocity=80 time=0.06954441666666666
EXTRACT: note_on channel=3 note=84 velocity=110 time=0
EXTRACT: note_on channel=15 note=96 velocity=86 time=0.0047961666666666665
EXTRACT: control_change channel=4 control=11 value=108 time=0.08872908333333333
EXTRACT: note_on channel=15 note=96 velocity=0 time=0
EXTRACT: note_on channel=3 note=84 velocity=0 time=0.10791374999999999
EXTRACT: note_on channel=3 note=72 velocity=0 time=0
EXTRACT: note_on channel=3 note=70 velocity=78 time=0.07673866666666666
EXTRACT: note_on channel=3 note=82 velocity=108 time=0
EXTRACT: control_change channel=4 control=11 value=110 time=0.035971249999999996
EXTRACT: note_on channel=5 note=51 velocity=112 time=0.11990416666666666
EXTRACT: note_on channel=5 note=56 velocity=118 time=0.0047961666666666665
EXTRACT: note_on channel=5 note=44 velocity=106 time=0.011990416666666667
EXTRACT: note_on channel=15 note=94 velocity=80 time=0.03836933333333333
EXTRACT: note_on channel=5 note=51 velocity=0 time=0.03836933333333333
EXTRACT: note_on channel=5 note=56 velocity=0 time=0.007194249999999999
EXTRACT: note_on channel=5 note=44 velocity=0 time=0.011990416666666667
EXTRACT: note_on channel=15 note=94 velocity=0 time=0.007194249999999999
EXTRACT: control_change channel=4 control=11 value=112 time=0.09592333333333333
EXTRACT: note_on channel=3 note=82 velocity=0 time=0.25179875
EXTRACT: note_on channel=3 note=70 velocity=0 time=0
EXTRACT: note_on channel=15 note=96 velocity=82 time=0.035971249999999996
EXTRACT: note_on channel=3 note=72 velocity=79 time=0.0047961666666666665
EXTRACT: note_on channel=3 note=84 velocity=109 time=0
EXTRACT: note_on channel=15 note=96 velocity=0 time=0.09592333333333333
EXTRACT: note_on channel=3 note=84 velocity=0 time=0.08633099999999999
EXTRACT: note_on channel=3 note=72 velocity=0 time=0
EXTRACT: note_on channel=5 note=51 velocity=112 time=0.023980833333333333
EXTRACT: note_on channel=5 note=56 velocity=118 time=0.007194249999999999
EXTRACT: note_on channel=5 note=44 velocity=107 time=0
EXTRACT: note_on channel=3 note=70 velocity=78 time=0.043165499999999996
EXTRACT: note_on channel=3 note=82 velocity=108 time=0
EXTRACT: note_on channel=15 note=94 velocity=91 time=0.011990416666666667
EXTRACT: note_on channel=5 note=56 velocity=0 time=0.03836933333333333
EXTRACT: note_on channel=5 note=51 velocity=0 time=0
EXTRACT: note_on channel=5 note=44 velocity=0 time=0.007194249999999999
EXTRACT: note_on channel=15 note=94 velocity=0 time=0.026378916666666665
EXTRACT: control_change channel=4 control=11 value=110 time=0.20143899999999998
EXTRACT: note_on channel=3 note=82 velocity=0 time=0.10791374999999999
EXTRACT: note_on channel=3 note=70 velocity=0 time=0
EXTRACT: control_change channel=4 control=11 value=108 time=0.047961666666666666
EXTRACT: note_on channel=3 note=68 velocity=78 time=0.023980833333333333
EXTRACT: note_on channel=3 note=80 velocity=107 time=0
EXTRACT: note_on channel=15 note=92 velocity=85 time=0.007194249999999999
EXTRACT: note_on channel=15 note=92 velocity=0 time=0.06474825
EXTRACT: control_change channel=4 control=11 value=106 time=0.05995208333333333
EXTRACT: note_on channel=3 note=80 velocity=0 time=0.04556358333333333
EXTRACT: note_on channel=3 note=68 velocity=0 time=0
EXTRACT: note_on channel=3 note=68 velocity=80 time=0.03357316666666667
EXTRACT: note_on channel=3 note=80 velocity=110 time=0
EXTRACT: control_change channel=12 control=10 value=0 time=0.014388499999999999
EXTRACT: note_on channel=12 note=51 velocity=85 time=0.007194249999999999
EXTRACT: note_on channel=15 note=89 velocity=102 time=0
EXTRACT: note_on channel=12 note=56 velocity=81 time=0.07913674999999999
EXTRACT: note_on channel=15 note=89 velocity=0 time=0.0023980833333333332
EXTRACT: note_on channel=12 note=51 velocity=0 time=0.03836933333333333
EXTRACT: control_change channel=12 control=10 value=31 time=0.03836933333333333
EXTRACT: note_on channel=12 note=60 velocity=109 time=0
EXTRACT: note_on channel=12 note=56 velocity=0 time=0.05995208333333333
EXTRACT: note_on channel=12 note=63 velocity=101 time=0.016786583333333334
EXTRACT: note_on channel=12 note=60 velocity=0 time=0.026378916666666665
EXTRACT: control_change channel=12 control=10 value=64 time=0.0023980833333333332
EXTRACT: note_on channel=12 note=63 velocity=0 time=0.03357316666666667
EXTRACT: note_on channel=12 note=68 velocity=92 time=0.016786583333333334
EXTRACT: control_change channel=12 control=10 value=94 time=0.043165499999999996
EXTRACT: note_on channel=3 note=80 velocity=0 time=0.014388499999999999
EXTRACT: note_on channel=3 note=68 velocity=0 time=0
EXTRACT: note_on channel=12 note=68 velocity=0 time=0.019184666666666666
EXTRACT: note_on channel=12 note=72 velocity=106 time=0
EXTRACT: control_change channel=12 control=10 value=126 time=0.047961666666666666
EXTRACT: note_on channel=15 note=99 velocity=91 time=0.011990416666666667
EXTRACT: note_on channel=3 note=75 velocity=83 time=0.0023980833333333332
EXTRACT: note_on channel=3 note=87 velocity=115 time=0
EXTRACT: note_on channel=4 note=53 velocity=0 time=0.009592333333333333
EXTRACT: note_on channel=4 note=65 velocity=0 time=0
EXTRACT: note_on channel=4 note=56 velocity=0 time=0
EXTRACT: note_on channel=4 note=60 velocity=0 time=0
EXTRACT: note_on channel=4 note=60 velocity=102 time=0.0023980833333333332
EXTRACT: note_on channel=4 note=54 velocity=99 time=0
EXTRACT: note_on channel=4 note=66 velocity=105 time=0
EXTRACT: note_on channel=4 note=56 velocity=101 time=0
EXTRACT: note_on channel=12 note=72 velocity=0 time=0.0023980833333333332
EXTRACT: note_on channel=12 note=78 velocity=101 time=0.0023980833333333332
EXTRACT: note_on channel=15 note=99 velocity=0 time=0.050359749999999995
EXTRACT: note_on channel=3 note=87 velocity=0 time=0.10311758333333333
EXTRACT: note_on channel=3 note=75 velocity=0 time=0
EXTRACT: note_on channel=3 note=72 velocity=83 time=0.28057575
EXTRACT: note_on channel=3 note=84 velocity=115 time=0
EXTRACT: control_change channel=4 control=11 value=104 time=0.0023980833333333332
EXTRACT: note_on channel=15 note=96 velocity=86 time=0.0047961666666666665
EXTRACT: note_on channel=5 note=51 velocity=114 time=0.011990416666666667
EXTRACT: note_on channel=5 note=56 velocity=118 time=0.0023980833333333332
EXTRACT: note_on channel=12 note=78 velocity=0 time=0.011990416666666667
EXTRACT: note_on channel=5 note=44 velocity=107 time=0.0047961666666666665
EXTRACT: note_on channel=15 note=96 velocity=0 time=0.03836933333333333
EXTRACT: note_on channel=5 note=56 velocity=0 time=0.03357316666666667
EXTRACT: note_on channel=5 note=51 velocity=0 time=0.0023980833333333332
EXTRACT: note_on channel=5 note=44 velocity=0 time=0.021582749999999998
EXTRACT: pitchwheel channel=3 pitch=-41 time=0.016786583333333334
EXTRACT: pitchwheel channel=3 pitch=-241 time=0.0047961666666666665
EXTRACT: pitchwheel channel=3 pitch=-401 time=0.007194249999999999
EXTRACT: pitchwheel channel=3 pitch=-541 time=0.011990416666666667
EXTRACT: pitchwheel channel=3 pitch=-701 time=0.011990416666666667
EXTRACT: pitchwheel channel=3 pitch=-821 time=0
EXTRACT: pitchwheel channel=3 pitch=-941 time=0.0023980833333333332
EXTRACT: pitchwheel channel=3 pitch=-1061 time=0.0047961666666666665
EXTRACT: pitchwheel channel=3 pitch=-1181 time=0.0047961666666666665
EXTRACT: pitchwheel channel=3 pitch=-1321 time=0.0023980833333333332
EXTRACT: pitchwheel channel=3 pitch=-1481 time=0.0047961666666666665
EXTRACT: pitchwheel channel=3 pitch=-1621 time=0.0023980833333333332
EXTRACT: pitchwheel channel=3 pitch=-1781 time=0.0047961666666666665
EXTRACT: pitchwheel channel=3 pitch=-1961 time=0.0047961666666666665
EXTRACT: pitchwheel channel=3 pitch=-2121 time=0.0023980833333333332
EXTRACT: pitchwheel channel=3 pitch=-2301 time=0.0047961666666666665
EXTRACT: pitchwheel channel=3 pitch=-2481 time=0.0047961666666666665
EXTRACT: pitchwheel channel=3 pitch=-2621 time=0.0023980833333333332
EXTRACT: pitchwheel channel=3 pitch=-2801 time=0.0047961666666666665
EXTRACT: pitchwheel channel=3 pitch=-2981 time=0.0023980833333333332
EXTRACT: pitchwheel channel=3 pitch=-3161 time=0.0047961666666666665
EXTRACT: pitchwheel channel=3 pitch=-3341 time=0.007194249999999999
EXTRACT: pitchwheel channel=3 pitch=-3541 time=0
EXTRACT: pitchwheel channel=3 pitch=-3741 time=0.0047961666666666665
EXTRACT: pitchwheel channel=3 pitch=-3941 time=0.0047961666666666665
EXTRACT: pitchwheel channel=3 pitch=-4141 time=0.0023980833333333332
EXTRACT: pitchwheel channel=3 pitch=-4341 time=0.0047961666666666665
EXTRACT: pitchwheel channel=3 pitch=-4521 time=0.0023980833333333332
EXTRACT: pitchwheel channel=3 pitch=-4701 time=0.0047961666666666665
EXTRACT: pitchwheel channel=3 pitch=-4901 time=0.0047961666666666665
EXTRACT: pitchwheel channel=3 pitch=-5101 time=0.0023980833333333332
EXTRACT: pitchwheel channel=3 pitch=-5261 time=0.009592333333333333
EXTRACT: pitchwheel channel=3 pitch=-5421 time=0.0023980833333333332
EXTRACT: pitchwheel channel=3 pitch=-5581 time=0.007194249999999999
EXTRACT: pitchwheel channel=3 pitch=-5701 time=0
EXTRACT: pitchwheel channel=3 pitch=-5841 time=0.0047961666666666665
EXTRACT: pitchwheel channel=3 pitch=-5961 time=0.0047961666666666665
EXTRACT: pitchwheel channel=3 pitch=-6141 time=0.007194249999999999
EXTRACT: pitchwheel channel=3 pitch=-6321 time=0.007194249999999999
EXTRACT: pitchwheel channel=3 pitch=-6441 time=0.009592333333333333
EXTRACT: pitchwheel channel=3 pitch=-6561 time=0.014388499999999999
EXTRACT: note_on channel=3 note=84 velocity=0 time=0.023980833333333333
EXTRACT: note_on channel=3 note=72 velocity=0 time=0
EXTRACT: pitchwheel channel=3 pitch=0 time=0.08153483333333333
EXTRACT: note_on channel=15 note=92 velocity=99 time=0.019184666666666666
EXTRACT: note_on channel=3 note=68 velocity=81 time=0.016786583333333334
EXTRACT: note_on channel=3 note=80 velocity=111 time=0
EXTRACT: note_on channel=15 note=92 velocity=0 time=0.04076741666666667
EXTRACT: note_on channel=5 note=51 velocity=112 time=0.19184666666666667
EXTRACT: note_on channel=5 note=44 velocity=102 time=0.0047961666666666665
EXTRACT: note_on channel=5 note=56 velocity=118 time=0.0047961666666666665
EXTRACT: control_change channel=4 control=11 value=106 time=0.057553999999999994
EXTRACT: note_on channel=3 note=80 velocity=0 time=0.0023980833333333332
EXTRACT: note_on channel=3 note=68 velocity=0 time=0
EXTRACT: note_on channel=5 note=51 velocity=0 time=0.019184666666666666
EXTRACT: note_on channel=5 note=56 velocity=0 time=0.0047961666666666665
EXTRACT: note_on channel=5 note=44 velocity=0 time=0
EXTRACT: note_on channel=3 note=68 velocity=76 time=0.11750608333333333
EXTRACT: note_on channel=3 note=80 velocity=105 time=0
EXTRACT: note_on channel=3 note=80 velocity=0 time=0.08153483333333333
EXTRACT: note_on channel=3 note=68 velocity=0 time=0
EXTRACT: control_change channel=4 control=11 value=108 time=0.023980833333333333
EXTRACT: note_on channel=15 note=99 velocity=85 time=0.16786583333333333
EXTRACT: note_on channel=3 note=75 velocity=82 time=0.0047961666666666665
EXTRACT: note_on channel=3 note=87 velocity=113 time=0
EXTRACT: control_change channel=4 control=11 value=110 time=0.04556358333333333
EXTRACT: note_on channel=15 note=99 velocity=0 time=0.007194249999999999
EXTRACT: note_on channel=3 note=87 velocity=0 time=0.08633099999999999
EXTRACT: note_on channel=3 note=75 velocity=0 time=0
EXTRACT: note_on channel=5 note=51 velocity=110 time=0.06714633333333334
EXTRACT: note_on channel=5 note=56 velocity=116 time=0.007194249999999999
EXTRACT: note_on channel=5 note=44 velocity=105 time=0.0047961666666666665
EXTRACT: note_on channel=11 note=44 velocity=127 time=0.0023980833333333332
EXTRACT: note_on channel=11 note=44 velocity=0 time=0.031175083333333332
EXTRACT: note_on channel=5 note=51 velocity=0 time=0.03836933333333333
EXTRACT: note_on channel=5 note=56 velocity=0 time=0.0047961666666666665
EXTRACT: note_on channel=5 note=44 velocity=0 time=0.007194249999999999
EXTRACT: control_change channel=4 control=11 value=112 time=0.07913674999999999
EXTRACT: note_on channel=3 note=72 velocity=81 time=0.055155916666666666
EXTRACT: note_on channel=3 note=84 velocity=111 time=0
EXTRACT: note_on channel=15 note=96 velocity=84 time=0.016786583333333334
EXTRACT: note_on channel=15 note=96 velocity=0 time=0.05275783333333333
EXTRACT: pitchwheel channel=3 pitch=-181 time=0.10311758333333333
EXTRACT: pitchwheel channel=3 pitch=-381 time=0.0023980833333333332
EXTRACT: pitchwheel channel=3 pitch=-561 time=0.0047961666666666665
EXTRACT: pitchwheel channel=3 pitch=-741 time=0.0047961666666666665
EXTRACT: pitchwheel channel=3 pitch=-941 time=0.0023980833333333332
EXTRACT: pitchwheel channel=3 pitch=-1121 time=0.0047961666666666665
EXTRACT: pitchwheel channel=3 pitch=-1301 time=0.0023980833333333332
EXTRACT: pitchwheel channel=3 pitch=-1461 time=0.0047961666666666665
EXTRACT: pitchwheel channel=3 pitch=-1581 time=0.0047961666666666665
EXTRACT: pitchwheel channel=3 pitch=-1721 time=0.0023980833333333332
EXTRACT: pitchwheel channel=3 pitch=-1881 time=0.0047961666666666665
EXTRACT: pitchwheel channel=3 pitch=-2021 time=0.0047961666666666665
EXTRACT: pitchwheel channel=3 pitch=-2181 time=0.0023980833333333332
EXTRACT: pitchwheel channel=3 pitch=-2361 time=0.0047961666666666665
EXTRACT: pitchwheel channel=3 pitch=-2541 time=0.0047961666666666665
EXTRACT: pitchwheel channel=3 pitch=-2701 time=0.0023980833333333332
EXTRACT: pitchwheel channel=3 pitch=-2881 time=0.0047961666666666665
EXTRACT: pitchwheel channel=3 pitch=-3041 time=0.0023980833333333332
EXTRACT: pitchwheel channel=3 pitch=-3181 time=0.0047961666666666665
EXTRACT: pitchwheel channel=3 pitch=-3321 time=0.0047961666666666665
EXTRACT: pitchwheel channel=3 pitch=-3461 time=0.0023980833333333332
EXTRACT: pitchwheel channel=3 pitch=-3581 time=0.0047961666666666665
EXTRACT: note_on channel=11 note=39 velocity=127 time=0
EXTRACT: pitchwheel channel=3 pitch=-3741 time=0.0047961666666666665
EXTRACT: pitchwheel channel=3 pitch=-3941 time=0.007194249999999999
EXTRACT: pitchwheel channel=3 pitch=-4061 time=0.0023980833333333332
EXTRACT: pitchwheel channel=3 pitch=-4241 time=0.009592333333333333
EXTRACT: note_on channel=11 note=39 velocity=0 time=0.007194249999999999
EXTRACT: pitchwheel channel=3 pitch=-4401 time=0.0047961666666666665
EXTRACT: pitchwheel channel=3 pitch=-4541 time=0.007194249999999999
EXTRACT: pitchwheel channel=3 pitch=-4681 time=0.011990416666666667
EXTRACT: pitchwheel channel=3 pitch=-4821 time=0.011990416666666667
EXTRACT: note_on channel=3 note=84 velocity=0 time=0.05995208333333333
EXTRACT: note_on channel=3 note=72 velocity=0 time=0
EXTRACT: pitchwheel channel=3 pitch=0 time=0.04076741666666667
EXTRACT: note_on channel=5 note=44 velocity=104 time=0.055155916666666666
EXTRACT: note_on channel=5 note=51 velocity=110 time=0.0023980833333333332
EXTRACT: note_on channel=5 note=56 velocity=119 time=0.009592333333333333
EXTRACT: note_on channel=3 note=68 velocity=81 time=0.014388499999999999
EXTRACT: note_on channel=3 note=80 velocity=111 time=0
EXTRACT: note_on channel=5 note=44 velocity=0 time=0.057553999999999994
EXTRACT: note_on channel=5 note=51 velocity=0 time=0.0023980833333333332
EXTRACT: note_on channel=5 note=56 velocity=0 time=0.009592333333333333
EXTRACT: note_on channel=15 note=89 velocity=91 time=0.11750608333333333
EXTRACT: note_on channel=11 note=44 velocity=127 time=0.031175083333333332
EXTRACT: note_on channel=15 note=89 velocity=0 time=0.026378916666666665
EXTRACT: note_on channel=11 note=44 velocity=0 time=0.0047961666666666665
EXTRACT: control_change channel=4 control=11 value=110 time=0.028776999999999997
EXTRACT: note_on channel=3 note=80 velocity=0 time=0.08393291666666666
EXTRACT: note_on channel=3 note=68 velocity=0 time=0
EXTRACT: note_on channel=14 note=72 velocity=74 time=0.04076741666666667
EXTRACT: control_change channel=4 control=11 value=108 time=0.031175083333333332
EXTRACT: note_on channel=3 note=70 velocity=81 time=0.03357316666666667
EXTRACT: note_on channel=3 note=82 velocity=111 time=0
EXTRACT: note_on channel=3 note=82 velocity=0 time=0.11990416666666666
EXTRACT: note_on channel=3 note=70 velocity=0 time=0
EXTRACT: control_change channel=4 control=11 value=106 time=0.0023980833333333332
EXTRACT: note_on channel=15 note=89 velocity=96 time=0.07673866666666666
EXTRACT: control_change channel=12 control=10 value=0 time=0.016786583333333334
EXTRACT: note_on channel=11 note=39 velocity=127 time=0.0023980833333333332
EXTRACT: note_on channel=3 note=68 velocity=80 time=0.0047961666666666665
EXTRACT: note_on channel=3 note=80 velocity=110 time=0
EXTRACT: note_on channel=12 note=49 velocity=85 time=0
EXTRACT: note_on channel=11 note=39 velocity=0 time=0.026378916666666665
EXTRACT: note_on channel=15 note=89 velocity=0 time=0.007194249999999999
EXTRACT: note_on channel=12 note=53 velocity=81 time=0.04556358333333333
EXTRACT: note_on channel=12 note=49 velocity=0 time=0.04076741666666667
EXTRACT: control_change channel=12 control=10 value=31 time=0.035971249999999996
EXTRACT: note_on channel=12 note=56 velocity=109 time=0
EXTRACT: note_on channel=14 note=72 velocity=0 time=0.023980833333333333
EXTRACT: note_on channel=12 note=53 velocity=0 time=0.03836933333333333
EXTRACT: note_on channel=12 note=61 velocity=101 time=0.016786583333333334
EXTRACT: note_on channel=12 note=56 velocity=0 time=0.023980833333333333
EXTRACT: note_on channel=3 note=80 velocity=0 time=0.0023980833333333332
EXTRACT: note_on channel=3 note=68 velocity=0 time=0
EXTRACT: control_change channel=12 control=10 value=64 time=0
EXTRACT: note_on channel=12 note=61 velocity=0 time=0.035971249999999996
EXTRACT: note_on channel=12 note=65 velocity=92 time=0.014388499999999999
EXTRACT: control_change channel=12 control=10 value=94 time=0.043165499999999996
EXTRACT: note_on channel=12 note=65 velocity=0 time=0.03357316666666667
EXTRACT: note_on channel=12 note=68 velocity=106 time=0.0023980833333333332
EXTRACT: control_change channel=12 control=10 value=126 time=0.047961666666666666
EXTRACT: control_change channel=8 control=11 value=118 time=0.011990416666666667
EXTRACT: pitchwheel channel=8 pitch=-3360 time=0
EXTRACT: note_on channel=8 note=37 velocity=94 time=0
EXTRACT: pitchwheel channel=7 pitch=-3264 time=0.0023980833333333332
EXTRACT: note_on channel=7 note=49 velocity=104 time=0
EXTRACT: note_on channel=6 note=61 velocity=119 time=0.0023980833333333332
EXTRACT: pitchwheel channel=6 pitch=-3264 time=0
EXTRACT: pitchwheel channel=8 pitch=-2688 time=0.0023980833333333332
EXTRACT: control_change channel=8 control=11 value=125 time=0
EXTRACT: pitchwheel channel=7 pitch=-2592 time=0.0023980833333333332
EXTRACT: control_change channel=7 control=11 value=127 time=0
EXTRACT: note_on channel=4 note=56 velocity=0 time=0.0023980833333333332
EXTRACT: note_on channel=4 note=60 velocity=0 time=0
EXTRACT: note_on channel=4 note=54 velocity=0 time=0
EXTRACT: note_on channel=4 note=66 velocity=0 time=0
EXTRACT: pitchwheel channel=6 pitch=-2592 time=0
EXTRACT: control_change channel=6 control=11 value=127 time=0
EXTRACT: note_on channel=4 note=73 velocity=111 time=0.0023980833333333332
EXTRACT: note_on channel=4 note=65 velocity=105 time=0
EXTRACT: note_on channel=4 note=77 velocity=116 time=0
EXTRACT: note_on channel=4 note=56 velocity=101 time=0
EXTRACT: control_change channel=8 control=11 value=127 time=0
EXTRACT: pitchwheel channel=8 pitch=-1792 time=0
EXTRACT: note_on channel=11 note=49 velocity=127 time=0
EXTRACT: control_change channel=13 control=11 value=100 time=0
EXTRACT: note_on channel=13 note=85 velocity=110 time=0
EXTRACT: pitchwheel channel=7 pitch=-1728 time=0.0023980833333333332
EXTRACT: note_on channel=12 note=68 velocity=0 time=0
EXTRACT: pitchwheel channel=6 pitch=-1728 time=0.0023980833333333332
EXTRACT: note_on channel=9 note=57 velocity=90 time=0
EXTRACT: note_on channel=12 note=73 velocity=101 time=0
EXTRACT: pitchwheel channel=8 pitch=-1088 time=0.0023980833333333332
EXTRACT: pitchwheel channel=7 pitch=-1024 time=0.0023980833333333332
EXTRACT: pitchwheel channel=6 pitch=-1024 time=0.0023980833333333332
EXTRACT: pitchwheel channel=8 pitch=-384 time=0.0047961666666666665
EXTRACT: pitchwheel channel=7 pitch=-352 time=0.0023980833333333332
EXTRACT: pitchwheel channel=6 pitch=-352 time=0.0023980833333333332
EXTRACT: pitchwheel channel=8 pitch=0 time=0.0023980833333333332
EXTRACT: control_change channel=8 control=11 value=125 time=0
EXTRACT: pitchwheel channel=7 pitch=64 time=0.0023980833333333332
EXTRACT: pitchwheel channel=6 pitch=64 time=0.0023980833333333332
EXTRACT: control_change channel=8 control=11 value=119 time=0.0023980833333333332
EXTRACT: pitchwheel channel=8 pitch=256 time=0
EXTRACT: note_on channel=11 note=49 velocity=0 time=0
EXTRACT: pitchwheel channel=7 pitch=288 time=0.0023980833333333332
EXTRACT: control_change channel=4 control=11 value=108 time=0.0023980833333333332
EXTRACT: pitchwheel channel=6 pitch=288 time=0
EXTRACT: control_change channel=8 control=11 value=112 time=0.0023980833333333332
EXTRACT: pitchwheel channel=8 pitch=352 time=0
EXTRACT: pitchwheel channel=7 pitch=352 time=0.0023980833333333332
EXTRACT: control_change channel=7 control=11 value=111 time=0
EXTRACT: pitchwheel channel=6 pitch=352 time=0.0023980833333333332
EXTRACT: control_change channel=6 control=11 value=111 time=0
EXTRACT: note_on channel=6 note=61 velocity=0 time=0.0047961666666666665
EXTRACT: pitchwheel channel=8 pitch=416 time=0
EXTRACT: control_change channel=8 control=11 value=101 time=0
EXTRACT: pitchwheel channel=7 pitch=416 time=0.0023980833333333332
EXTRACT: pitchwheel channel=6 pitch=416 time=0.0023980833333333332
EXTRACT: control_change channel=8 control=11 value=95 time=0.0023980833333333332
EXTRACT: control_change channel=7 control=11 value=89 time=0.0023980833333333332
EXTRACT: control_change channel=6 control=11 value=89 time=0.0023980833333333332
EXTRACT: control_change channel=8 control=11 value=92 time=0.0023980833333333332
EXTRACT: pitchwheel channel=8 pitch=256 time=0
EXTRACT: note_on channel=9 note=57 velocity=0 time=0
EXTRACT: pitchwheel channel=7 pitch=256 time=0.0023980833333333332
EXTRACT: note_on channel=13 note=85 velocity=0 time=0
EXTRACT: pitchwheel channel=6 pitch=256 time=0.0023980833333333332
EXTRACT: pitchwheel channel=8 pitch=128 time=0.0023980833333333332
EXTRACT: control_change channel=8 control=11 value=90 time=0
EXTRACT: pitchwheel channel=7 pitch=128 time=0.0023980833333333332
EXTRACT: control_change channel=7 control=11 value=83 time=0
EXTRACT: pitchwheel channel=6 pitch=128 time=0.0023980833333333332
EXTRACT: control_change channel=6 control=11 value=83 time=0
EXTRACT: pitchwheel channel=8 pitch=0 time=0.0047961666666666665
EXTRACT: pitchwheel channel=7 pitch=0 time=0.0023980833333333332
EXTRACT: pitchwheel channel=6 pitch=0 time=0.0023980833333333332
EXTRACT: pitchwheel channel=8 pitch=-64 time=0.0023980833333333332
EXTRACT: control_change channel=8 control=11 value=88 time=0
EXTRACT: pitchwheel channel=7 pitch=-64 time=0.0023980833333333332
EXTRACT: pitchwheel channel=6 pitch=-64 time=0.0023980833333333332
EXTRACT: pitchwheel channel=8 pitch=-128 time=0.0023980833333333332
EXTRACT: pitchwheel channel=7 pitch=-128 time=0.0023980833333333332
EXTRACT: pitchwheel channel=6 pitch=-128 time=0.0023980833333333332
EXTRACT: pitchwheel channel=8 pitch=-256 time=0.0023980833333333332
EXTRACT: pitchwheel channel=7 pitch=-256 time=0.0023980833333333332
EXTRACT: pitchwheel channel=6 pitch=-256 time=0.0023980833333333332
EXTRACT: pitchwheel channel=8 pitch=-384 time=0.0047961666666666665
EXTRACT: note_on channel=13 note=87 velocity=110 time=0
EXTRACT: pitchwheel channel=7 pitch=-384 time=0.0023980833333333332
EXTRACT: pitchwheel channel=6 pitch=-384 time=0.0023980833333333332
EXTRACT: control_change channel=8 control=11 value=90 time=0.0023980833333333332
EXTRACT: control_change channel=7 control=11 value=83 time=0.0023980833333333332
EXTRACT: control_change channel=6 control=11 value=83 time=0.0023980833333333332
EXTRACT: control_change channel=8 control=11 value=92 time=0.009592333333333333
EXTRACT: control_change channel=8 control=11 value=94 time=0.009592333333333333
EXTRACT: pitchwheel channel=8 pitch=-256 time=0
EXTRACT: control_change channel=7 control=11 value=89 time=0.0023980833333333332
EXTRACT: pitchwheel channel=7 pitch=-256 time=0
EXTRACT: control_change channel=6 control=11 value=89 time=0.0023980833333333332
EXTRACT: pitchwheel channel=6 pitch=-256 time=0
EXTRACT: control_change channel=8 control=11 value=96 time=0.0023980833333333332
EXTRACT: pitchwheel channel=8 pitch=-128 time=0
EXTRACT: pitchwheel channel=7 pitch=-128 time=0.0023980833333333332
EXTRACT: pitchwheel channel=6 pitch=-128 time=0.0023980833333333332
EXTRACT: control_change channel=8 control=11 value=98 time=0.0023980833333333332
EXTRACT: pitchwheel channel=8 pitch=0 time=0
EXTRACT: pitchwheel channel=7 pitch=0 time=0.0023980833333333332
EXTRACT: control_change channel=7 control=11 value=94 time=0
EXTRACT: pitchwheel channel=6 pitch=0 time=0.0023980833333333332
EXTRACT: control_change channel=6 control=11 value=94 time=0
EXTRACT: pitchwheel channel=8 pitch=-64 time=0.0023980833333333332
EXTRACT: pitchwheel channel=7 pitch=-64 time=0.0023980833333333332
EXTRACT: pitchwheel channel=6 pitch=-64 time=0.0023980833333333332
EXTRACT: control_change channel=8 control=11 value=100 time=0.0047961666666666665
EXTRACT: pitchwheel channel=8 pitch=-128 time=0.007194249999999999
EXTRACT: pitchwheel channel=7 pitch=-128 time=0.0023980833333333332
EXTRACT: pitchwheel channel=6 pitch=-128 time=0.0023980833333333332
EXTRACT: pitchwheel channel=8 pitch=-352 time=0.0023980833333333332
EXTRACT: control_change channel=8 control=11 value=98 time=0
EXTRACT: control_change channel=7 control=11 value=94 time=0.0023980833333333332
EXTRACT: pitchwheel channel=7 pitch=-320 time=0
EXTRACT: control_change channel=6 control=11 value=94 time=0.0023980833333333332
EXTRACT: pitchwheel channel=6 pitch=-320 time=0
EXTRACT: control_change channel=8 control=11 value=95 time=0.0023980833333333332
EXTRACT: pitchwheel channel=8 pitch=-928 time=0
EXTRACT: pitchwheel channel=7 pitch=-864 time=0.0023980833333333332
EXTRACT: pitchwheel channel=6 pitch=-864 time=0.0023980833333333332
EXTRACT: pitchwheel channel=8 pitch=-1632 time=0.0047961666666666665
EXTRACT: control_change channel=8 control=11 value=80 time=0
EXTRACT: pitchwheel channel=7 pitch=-1536 time=0.0023980833333333332
EXTRACT: control_change channel=7 control=11 value=69 time=0
EXTRACT: pitchwheel channel=6 pitch=-1536 time=0.0023980833333333332
EXTRACT: control_change channel=6 control=11 value=69 time=0
EXTRACT: pitchwheel channel=8 pitch=-2528 time=0.0023980833333333332
EXTRACT: control_change channel=8 control=11 value=54 time=0
EXTRACT: pitchwheel channel=7 pitch=-2336 time=0.0023980833333333332
EXTRACT: pitchwheel channel=6 pitch=-2336 time=0.0023980833333333332
EXTRACT: note_on channel=8 note=37 velocity=0 time=0.0023980833333333332
EXTRACT: control_change channel=8 control=11 value=79 time=0
EXTRACT: control_change channel=8 control=11 value=52 time=0
EXTRACT: pitchwheel channel=8 pitch=-4064 time=0
EXTRACT: pitchwheel channel=8 pitch=-2464 time=0
EXTRACT: note_on channel=8 note=37 velocity=81 time=0
EXTRACT: note_on channel=13 note=87 velocity=0 time=0
EXTRACT: note_on channel=13 note=85 velocity=110 time=0
EXTRACT: note_on channel=7 note=49 velocity=0 time=0.0023980833333333332
EXTRACT: control_change channel=7 control=11 value=69 time=0
EXTRACT: pitchwheel channel=7 pitch=-2272 time=0
EXTRACT: pitchwheel channel=7 pitch=-3776 time=0
EXTRACT: note_on channel=7 note=49 velocity=91 time=0
EXTRACT: note_on channel=6 note=61 velocity=112 time=0.0023980833333333332
EXTRACT: control_change channel=6 control=11 value=69 time=0
EXTRACT: pitchwheel channel=6 pitch=-2272 time=0
EXTRACT: pitchwheel channel=6 pitch=-3776 time=0
EXTRACT: control_change channel=8 control=11 value=110 time=0.0023980833333333332
EXTRACT: pitchwheel channel=8 pitch=-576 time=0
EXTRACT: control_change channel=7 control=11 value=110 time=0.0023980833333333332
EXTRACT: pitchwheel channel=7 pitch=-544 time=0
EXTRACT: control_change channel=6 control=11 value=110 time=0.0023980833333333332
EXTRACT: pitchwheel channel=6 pitch=-544 time=0
EXTRACT: pitchwheel channel=8 pitch=-128 time=0.0047961666666666665
EXTRACT: pitchwheel channel=7 pitch=-128 time=0.0023980833333333332
EXTRACT: pitchwheel channel=6 pitch=-128 time=0.0023980833333333332
EXTRACT: control_change channel=8 control=11 value=108 time=0.0023980833333333332
EXTRACT: control_change channel=8 control=11 value=105 time=0.016786583333333334
EXTRACT: control_change channel=7 control=11 value=104 time=0.0023980833333333332
EXTRACT: control_change channel=6 control=11 value=104 time=0.0023980833333333332
EXTRACT: control_change channel=8 control=11 value=103 time=0.009592333333333333
EXTRACT: pitchwheel channel=8 pitch=-64 time=0.016786583333333334
EXTRACT: pitchwheel channel=7 pitch=0 time=0.0023980833333333332
EXTRACT: pitchwheel channel=6 pitch=0 time=0.0023980833333333332
EXTRACT: pitchwheel channel=8 pitch=0 time=0.0023980833333333332
EXTRACT: note_on channel=8 note=37 velocity=0 time=0.0047961666666666665
EXTRACT: note_on channel=7 note=49 velocity=0 time=0.0023980833333333332
EXTRACT: control_change channel=8 control=11 value=107 time=0
EXTRACT: note_on channel=6 note=61 velocity=0 time=0.0023980833333333332
EXTRACT: control_change channel=7 control=11 value=106 time=0
EXTRACT: control_change channel=6 control=11 value=106 time=0.0023980833333333332
EXTRACT: control_change channel=4 control=11 value=106 time=0.007194249999999999
EXTRACT: note_on channel=13 note=85 velocity=0 time=0.009592333333333333
EXTRACT: note_on channel=3 note=56 velocity=89 time=0
EXTRACT: note_on channel=3 note=68 velocity=122 time=0
EXTRACT: note_on channel=11 note=49 velocity=127 time=0.007194249999999999
EXTRACT: note_on channel=15 note=92 velocity=85 time=0
EXTRACT: note_on channel=12 note=73 velocity=0 time=0.0047961666666666665
EXTRACT: control_change channel=12 control=10 value=64 time=0
EXTRACT: note_on channel=11 note=49 velocity=0 time=0.026378916666666665
EXTRACT: control_change channel=4 control=11 value=104 time=0.0047961666666666665
EXTRACT: note_on channel=15 note=92 velocity=0 time=0.009592333333333333
EXTRACT: note_on channel=3 note=68 velocity=0 time=0.39088758333333334
EXTRACT: note_on channel=3 note=56 velocity=0 time=0
EXTRACT: note_on channel=3 note=49 velocity=90 time=0.028776999999999997
EXTRACT: note_on channel=3 note=61 velocity=124 time=0
EXTRACT: note_on channel=15 note=85 velocity=91 time=0
EXTRACT: note_on channel=15 note=85 velocity=0 time=0.057553999999999994
EXTRACT: control_change channel=4 control=11 value=106 time=0.021582749999999998
EXTRACT: control_change channel=4 control=11 value=108 time=0.3117508333333333
EXTRACT: note_on channel=3 note=61 velocity=0 time=0.07194249999999999
EXTRACT: note_on channel=3 note=49 velocity=0 time=0
EXTRACT: note_on channel=15 note=92 velocity=91 time=0.009592333333333333
EXTRACT: note_on channel=3 note=56 velocity=85 time=0.0047961666666666665
EXTRACT: note_on channel=3 note=68 velocity=118 time=0
EXTRACT: note_on channel=15 note=92 velocity=0 time=0.04076741666666667
EXTRACT: control_change channel=4 control=11 value=110 time=0.09112716666666666
EXTRACT: note_on channel=3 note=68 velocity=0 time=0.031175083333333332
EXTRACT: note_on channel=3 note=56 velocity=0 time=0
EXTRACT: note_on channel=13 note=85 velocity=110 time=0.06714633333333334
EXTRACT: note_on channel=13 note=85 velocity=0 time=0.06474825
EXTRACT: pitchwheel channel=13 pitch=-128 time=0.055155916666666666
EXTRACT: note_on channel=13 note=87 velocity=127 time=0
EXTRACT: pitchwheel channel=13 pitch=-64 time=0.007194249999999999
EXTRACT: pitchwheel channel=13 pitch=0 time=0.009592333333333333
EXTRACT: pitchwheel channel=13 pitch=96 time=0.007194249999999999
EXTRACT: control_change channel=4 control=11 value=112 time=0.023980833333333333
EXTRACT: pitchwheel channel=13 pitch=0 time=0.014388499999999999
EXTRACT: pitchwheel channel=13 pitch=-64 time=0.007194249999999999
EXTRACT: pitchwheel channel=13 pitch=-224 time=0.009592333333333333
EXTRACT: note_on channel=13 note=87 velocity=0 time=0.014388499999999999
EXTRACT: control_change channel=8 control=11 value=62 time=0.0047961666666666665
EXTRACT: pitchwheel channel=8 pitch=-3360 time=0
EXTRACT: note_on channel=8 note=37 velocity=89 time=0
EXTRACT: pitchwheel channel=7 pitch=-3360 time=0.0023980833333333332
EXTRACT: note_on channel=7 note=49 velocity=100 time=0
EXTRACT: note_on channel=6 note=61 velocity=111 time=0.0023980833333333332
EXTRACT: pitchwheel channel=6 pitch=-3360 time=0
EXTRACT: control_change channel=8 control=11 value=95 time=0.0023980833333333332
EXTRACT: pitchwheel channel=8 pitch=-3168 time=0
EXTRACT: pitchwheel channel=7 pitch=-3168 time=0.0023980833333333332
EXTRACT: control_change channel=7 control=11 value=91 time=0
EXTRACT: note_on channel=3 note=56 velocity=90 time=0.0023980833333333332
EXTRACT: note_on channel=3 note=68 velocity=124 time=0
EXTRACT: pitchwheel channel=6 pitch=-3168 time=0
EXTRACT: control_change channel=6 control=11 value=91 time=0
EXTRACT: note_on channel=4 note=77 velocity=0 time=0.0023980833333333332
EXTRACT: note_on channel=4 note=65 velocity=0 time=0
EXTRACT: note_on channel=4 note=67 velocity=105 time=0
EXTRACT: note_on channel=4 note=79 velocity=116 time=0
EXTRACT: control_change channel=8 control=11 value=108 time=0
EXTRACT: pitchwheel channel=8 pitch=-2976 time=0
EXTRACT: note_on channel=15 note=92 velocity=99 time=0
EXTRACT: pitchwheel channel=7 pitch=-2976 time=0.0023980833333333332
EXTRACT: pitchwheel channel=6 pitch=-2976 time=0.0023980833333333332
EXTRACT: control_change channel=8 control=11 value=114 time=0.0047961666666666665
EXTRACT: pitchwheel channel=8 pitch=-2784 time=0
EXTRACT: pitchwheel channel=7 pitch=-2784 time=0.0023980833333333332
EXTRACT: control_change channel=7 control=11 value=116 time=0
EXTRACT: pitchwheel channel=6 pitch=-2784 time=0.0023980833333333332
EXTRACT: control_change channel=6 control=11 value=116 time=0
EXTRACT: control_change channel=8 control=11 value=120 time=0.0023980833333333332
EXTRACT: pitchwheel channel=8 pitch=-2592 time=0
EXTRACT: pitchwheel channel=13 pitch=480 time=0
EXTRACT: note_on channel=13 note=85 velocity=100 time=0
EXTRACT: pitchwheel channel=7 pitch=-2592 time=0.0023980833333333332
EXTRACT: pitchwheel channel=6 pitch=-2592 time=0.0023980833333333332
EXTRACT: control_change channel=8 control=11 value=123 time=0.0023980833333333332
EXTRACT: pitchwheel channel=8 pitch=-2368 time=0
EXTRACT: pitchwheel channel=13 pitch=0 time=0
EXTRACT: pitchwheel channel=7 pitch=-2368 time=0.0023980833333333332
EXTRACT: control_change channel=7 control=11 value=127 time=0
EXTRACT: pitchwheel channel=6 pitch=-2368 time=0.0023980833333333332
EXTRACT: control_change channel=6 control=11 value=127 time=0
EXTRACT: pitchwheel channel=8 pitch=-2080 time=0.0023980833333333332
EXTRACT: control_change channel=8 control=11 value=125 time=0
EXTRACT: pitchwheel channel=13 pitch=-288 time=0
EXTRACT: pitchwheel channel=7 pitch=-2080 time=0.0023980833333333332
EXTRACT: pitchwheel channel=6 pitch=-2080 time=0.0023980833333333332
EXTRACT: pitchwheel channel=8 pitch=-1696 time=0.0047961666666666665
EXTRACT: pitchwheel channel=7 pitch=-1696 time=0.0023980833333333332
EXTRACT: pitchwheel channel=6 pitch=-1696 time=0.0023980833333333332
EXTRACT: control_change channel=8 control=11 value=127 time=0.0023980833333333332
EXTRACT: pitchwheel channel=8 pitch=-1376 time=0
EXTRACT: pitchwheel channel=7 pitch=-1376 time=0.0023980833333333332
EXTRACT: pitchwheel channel=6 pitch=-1376 time=0.0023980833333333332
EXTRACT: pitchwheel channel=8 pitch=-1120 time=0.0023980833333333332
EXTRACT: pitchwheel channel=7 pitch=-1120 time=0.0023980833333333332
EXTRACT: pitchwheel channel=6 pitch=-1120 time=0.0023980833333333332
EXTRACT: pitchwheel channel=8 pitch=-864 time=0.0023980833333333332
EXTRACT: note_on channel=15 note=92 velocity=0 time=0
EXTRACT: pitchwheel channel=7 pitch=-864 time=0.0023980833333333332
EXTRACT: pitchwheel channel=6 pitch=-864 time=0.0023980833333333332
EXTRACT: pitchwheel channel=8 pitch=-672 time=0.0047961666666666665
EXTRACT: pitchwheel channel=7 pitch=-672 time=0.0023980833333333332
EXTRACT: pitchwheel channel=6 pitch=-672 time=0.0023980833333333332
EXTRACT: pitchwheel channel=8 pitch=-576 time=0.0023980833333333332
EXTRACT: pitchwheel channel=7 pitch=-576 time=0.0023980833333333332
EXTRACT: pitchwheel channel=6 pitch=-576 time=0.0023980833333333332
EXTRACT: pitchwheel channel=8 pitch=-416 time=0.0023980833333333332
EXTRACT: pitchwheel channel=7 pitch=-416 time=0.0023980833333333332
EXTRACT: pitchwheel channel=6 pitch=-416 time=0.0023980833333333332
EXTRACT: pitchwheel channel=8 pitch=-320 time=0.0047961666666666665
EXTRACT: pitchwheel channel=7 pitch=-320 time=0.0023980833333333332
EXTRACT: pitchwheel channel=6 pitch=-320 time=0.0023980833333333332
EXTRACT: note_on channel=13 note=85 velocity=0 time=0
EXTRACT: pitchwheel channel=8 pitch=-224 time=0.0023980833333333332
EXTRACT: pitchwheel channel=7 pitch=-224 time=0.0023980833333333332
EXTRACT: pitchwheel channel=6 pitch=-224 time=0.0023980833333333332
EXTRACT: control_change channel=8 control=11 value=124 time=0.0023980833333333332
EXTRACT: pitchwheel channel=8 pitch=-160 time=0
EXTRACT: pitchwheel channel=7 pitch=-160 time=0.0023980833333333332
EXTRACT: pitchwheel channel=6 pitch=-160 time=0.0023980833333333332
EXTRACT: control_change channel=8 control=11 value=122 time=0.0023980833333333332
EXTRACT: pitchwheel channel=8 pitch=-96 time=0
EXTRACT: pitchwheel channel=7 pitch=-96 time=0.0023980833333333332
EXTRACT: pitchwheel channel=6 pitch=-96 time=0.0023980833333333332
EXTRACT: control_change channel=8 control=11 value=120 time=0.0047961666666666665
EXTRACT: pitchwheel channel=8 pitch=0 time=0
EXTRACT: pitchwheel channel=7 pitch=0 time=0.0023980833333333332
EXTRACT: pitchwheel channel=6 pitch=0 time=0.0023980833333333332
EXTRACT: control_change channel=8 control=11 value=118 time=0.0023980833333333332
EXTRACT: control_change channel=7 control=11 value=120 time=0.0023980833333333332
EXTRACT: control_change channel=6 control=11 value=120 time=0.0023980833333333332
EXTRACT: control_change channel=8 control=11 value=115 time=0.0023980833333333332
EXTRACT: pitchwheel channel=13 pitch=-1312 time=0.0047961666666666665
EXTRACT: note_on channel=13 note=87 velocity=106 time=0
EXTRACT: control_change channel=8 control=11 value=112 time=0.0023980833333333332
EXTRACT: control_change channel=7 control=11 value=113 time=0.0023980833333333332
EXTRACT: control_change channel=6 control=11 value=113 time=0.0023980833333333332
EXTRACT: pitchwheel channel=13 pitch=-288 time=0
EXTRACT: pitchwheel channel=13 pitch=96 time=0.007194249999999999
EXTRACT: control_change channel=8 control=11 value=108 time=0.0047961666666666665
EXTRACT: control_change channel=7 control=11 value=107 time=0.0023980833333333332
EXTRACT: control_change channel=6 control=11 value=107 time=0.0023980833333333332
EXTRACT: control_change channel=8 control=11 value=106 time=0.0023980833333333332
EXTRACT: control_change channel=8 control=11 value=103 time=0.007194249999999999
EXTRACT: control_change channel=7 control=11 value=101 time=0.0023980833333333332
EXTRACT: control_change channel=6 control=11 value=101 time=0.0023980833333333332
EXTRACT: control_change channel=8 control=11 value=101 time=0.0047961666666666665
EXTRACT: control_change channel=8 control=11 value=99 time=0.007194249999999999
EXTRACT: control_change channel=7 control=11 value=95 time=0.0023980833333333332
EXTRACT: control_change channel=6 control=11 value=95 time=0.0023980833333333332
EXTRACT: control_change channel=8 control=11 value=96 time=0.0023980833333333332
EXTRACT: control_change channel=8 control=11 value=94 time=0.007194249999999999
EXTRACT: control_change channel=7 control=11 value=88 time=0.0023980833333333332
EXTRACT: control_change channel=6 control=11 value=88 time=0.0023980833333333332
EXTRACT: control_change channel=8 control=11 value=92 time=0.0047961666666666665
EXTRACT: pitchwheel channel=13 pitch=0 time=0.0023980833333333332
EXTRACT: control_change channel=8 control=11 value=89 time=0.0047961666666666665
EXTRACT: control_change channel=4 control=11 value=114 time=0.0023980833333333332
EXTRACT: control_change channel=7 control=11 value=83 time=0
EXTRACT: control_change channel=6 control=11 value=83 time=0.0023980833333333332
EXTRACT: note_on channel=13 note=87 velocity=0 time=0.007194249999999999
EXTRACT: control_change channel=8 control=11 value=86 time=0.0023980833333333332
EXTRACT: control_change channel=7 control=11 value=78 time=0.0023980833333333332
EXTRACT: control_change channel=6 control=11 value=78 time=0.0023980833333333332
EXTRACT: control_change channel=8 control=11 value=83 time=0.0047961666666666665
EXTRACT: note_on channel=13 note=85 velocity=110 time=0.007194249999999999
EXTRACT: control_change channel=7 control=11 value=73 time=0.0023980833333333332
EXTRACT: control_change channel=6 control=11 value=73 time=0.0023980833333333332
EXTRACT: control_change channel=8 control=11 value=79 time=0.0023980833333333332
EXTRACT: control_change channel=7 control=11 value=67 time=0.009592333333333333
EXTRACT: control_change channel=6 control=11 value=67 time=0.0023980833333333332
EXTRACT: control_change channel=8 control=11 value=76 time=0.0047961666666666665
EXTRACT: control_change channel=8 control=11 value=74 time=0.007194249999999999
EXTRACT: control_change channel=7 control=11 value=63 time=0.0023980833333333332
EXTRACT: control_change channel=6 control=11 value=63 time=0.0023980833333333332
EXTRACT: control_change channel=8 control=11 value=72 time=0.009592333333333333
EXTRACT: control_change channel=7 control=11 value=59 time=0.0023980833333333332
EXTRACT: control_change channel=6 control=11 value=59 time=0.0023980833333333332
EXTRACT: control_change channel=8 control=11 value=70 time=0.019184666666666666
EXTRACT: control_change channel=8 control=1 value=1 time=0.007194249999999999
EXTRACT: control_change channel=7 control=1 value=1 time=0.0023980833333333332
EXTRACT: control_change channel=6 control=1 value=1 time=0.0023980833333333332
EXTRACT: control_change channel=8 control=11 value=68 time=0.0047961666666666665
EXTRACT: note_on channel=13 note=85 velocity=0 time=0.007194249999999999
EXTRACT: pitchwheel channel=13 pitch=-128 time=0.031175083333333332
EXTRACT: note_on channel=13 note=87 velocity=126 time=0
EXTRACT: pitchwheel channel=13 pitch=-64 time=0.007194249999999999
EXTRACT: pitchwheel channel=13 pitch=0 time=0.007194249999999999
EXTRACT: pitchwheel channel=13 pitch=96 time=0.009592333333333333
EXTRACT: note_on channel=3 note=68 velocity=0 time=0.03836933333333333
EXTRACT: note_on channel=3 note=56 velocity=0 time=0
EXTRACT: pitchwheel channel=13 pitch=0 time=0
EXTRACT: note_on channel=15 note=94 velocity=80 time=0.0023980833333333332
EXTRACT: control_change channel=8 control=1 value=8 time=0.0047961666666666665
EXTRACT: pitchwheel channel=13 pitch=-160 time=0
EXTRACT: control_change channel=7 control=1 value=8 time=0.0023980833333333332
EXTRACT: control_change channel=6 control=1 value=8 time=0.0023980833333333332
EXTRACT: note_on channel=3 note=58 velocity=85 time=0.0023980833333333332
EXTRACT: note_on channel=3 note=70 velocity=118 time=0
EXTRACT: pitchwheel channel=13 pitch=-224 time=0
EXTRACT: control_change channel=8 control=11 value=71 time=0.009592333333333333
EXTRACT: pitchwheel channel=13 pitch=-64 time=0
EXTRACT: control_change channel=7 control=11 value=58 time=0.0023980833333333332
EXTRACT: note_on channel=13 note=87 velocity=0 time=0
EXTRACT: control_change channel=6 control=11 value=58 time=0.0023980833333333332
EXTRACT: pitchwheel channel=13 pitch=480 time=0.009592333333333333
EXTRACT: note_on channel=13 note=85 velocity=109 time=0
EXTRACT: pitchwheel channel=13 pitch=0 time=0.007194249999999999
EXTRACT: control_change channel=8 control=11 value=74 time=0.0023980833333333332
EXTRACT: control_change channel=7 control=11 value=62 time=0.0023980833333333332
EXTRACT: control_change channel=6 control=11 value=62 time=0.0023980833333333332
EXTRACT: pitchwheel channel=13 pitch=-288 time=0.0023980833333333332
EXTRACT: control_change channel=7 control=11 value=64 time=0.0023980833333333332
EXTRACT: control_change channel=6 control=11 value=64 time=0.0023980833333333332
EXTRACT: control_change channel=8 control=11 value=76 time=0.0023980833333333332
EXTRACT: control_change channel=8 control=1 value=13 time=0.0047961666666666665
EXTRACT: control_change channel=7 control=1 value=13 time=0.0023980833333333332
EXTRACT: control_change channel=6 control=1 value=13 time=0.0023980833333333332
EXTRACT: control_change channel=7 control=11 value=66 time=0
EXTRACT: control_change channel=6 control=11 value=66 time=0.0023980833333333332
EXTRACT: control_change channel=8 control=11 value=78 time=0.0047961666666666665
EXTRACT: control_change channel=8 control=11 value=80 time=0.007194249999999999
EXTRACT: control_change channel=7 control=11 value=70 time=0.0023980833333333332
EXTRACT: control_change channel=6 control=11 value=70 time=0.0023980833333333332
EXTRACT: note_on channel=15 note=94 velocity=0 time=0
EXTRACT: control_change channel=8 control=11 value=82 time=0.009592333333333333
EXTRACT: control_change channel=8 control=11 value=84 time=0.009592333333333333
EXTRACT: control_change channel=7 control=11 value=75 time=0.0023980833333333332
EXTRACT: control_change channel=6 control=11 value=75 time=0.0023980833333333332
EXTRACT: control_change channel=8 control=11 value=86 time=0.009592333333333333
EXTRACT: control_change channel=8 control=1 value=24 time=0
EXTRACT: control_change channel=7 control=1 value=24 time=0.0023980833333333332
EXTRACT: control_change channel=6 control=1 value=24 time=0.0023980833333333332
EXTRACT: control_change channel=8 control=11 value=88 time=0.0023980833333333332
EXTRACT: note_on channel=13 note=85 velocity=0 time=0
EXTRACT: control_change channel=7 control=11 value=81 time=0.0023980833333333332
EXTRACT: control_change channel=6 control=11 value=81 time=0.0023980833333333332
EXTRACT: control_change channel=8 control=11 value=90 time=0.0047961666666666665
EXTRACT: control_change channel=7 control=11 value=85 time=0.009592333333333333
EXTRACT: control_change channel=6 control=11 value=85 time=0.0023980833333333332
EXTRACT: control_change channel=8 control=11 value=92 time=0.0023980833333333332
EXTRACT: control_change channel=8 control=11 value=94 time=0.007194249999999999
EXTRACT: pitchwheel channel=13 pitch=-1344 time=0
EXTRACT: note_on channel=13 note=87 velocity=107 time=0
EXTRACT: pitchwheel channel=13 pitch=-288 time=0.007194249999999999
EXTRACT: control_change channel=7 control=11 value=91 time=0.0047961666666666665
EXTRACT: control_change channel=6 control=11 value=91 time=0.0023980833333333332
EXTRACT: control_change channel=8 control=11 value=97 time=0.0023980833333333332
EXTRACT: pitchwheel channel=13 pitch=96 time=0
EXTRACT: control_change channel=8 control=1 value=40 time=0.0047961666666666665
EXTRACT: control_change channel=7 control=1 value=40 time=0.0023980833333333332
EXTRACT: control_change channel=6 control=1 value=40 time=0.0023980833333333332
EXTRACT: control_change channel=7 control=11 value=95 time=0
EXTRACT: control_change channel=6 control=11 value=95 time=0.0023980833333333332
EXTRACT: control_change channel=8 control=1 value=67 time=0.050359749999999995
EXTRACT: pitchwheel channel=13 pitch=0 time=0
EXTRACT: note_on channel=3 note=70 velocity=0 time=0.0023980833333333332
EXTRACT: note_on channel=3 note=58 velocity=0 time=0
EXTRACT: control_change channel=7 control=1 value=67 time=0
EXTRACT: control_change channel=6 control=1 value=67 time=0.0023980833333333332
EXTRACT: note_on channel=13 note=87 velocity=0 time=0
EXTRACT: control_change channel=7 control=11 value=91 time=0.0047961666666666665
EXTRACT: control_change channel=6 control=11 value=91 time=0.0023980833333333332
EXTRACT: control_change channel=8 control=11 value=94 time=0.0023980833333333332
EXTRACT: control_change channel=8 control=11 value=91 time=0.009592333333333333
EXTRACT: note_on channel=13 note=85 velocity=110 time=0
EXTRACT: control_change channel=7 control=11 value=85 time=0.0023980833333333332
EXTRACT: control_change channel=6 control=11 value=85 time=0.0023980833333333332
EXTRACT: control_change channel=8 control=11 value=89 time=0.0023980833333333332
EXTRACT: note_on channel=3 note=56 velocity=90 time=0.007194249999999999
EXTRACT: note_on channel=3 note=68 velocity=124 time=0
EXTRACT: control_change channel=8 control=11 value=86 time=0
EXTRACT: control_change channel=7 control=11 value=78 time=0.0023980833333333332
EXTRACT: control_change channel=6 control=11 value=78 time=0.0023980833333333332
EXTRACT: control_change channel=8 control=11 value=84 time=0.0023980833333333332
EXTRACT: note_on channel=15 note=92 velocity=99 time=0
EXTRACT: control_change channel=8 control=11 value=82 time=0.009592333333333333
EXTRACT: control_change channel=7 control=11 value=73 time=0.0023980833333333332
EXTRACT: control_change channel=8 control=1 value=72 time=0
EXTRACT: control_change channel=6 control=11 value=73 time=0.0023980833333333332
EXTRACT: control_change channel=7 control=1 value=72 time=0
EXTRACT: control_change channel=6 control=1 value=72 time=0.0023980833333333332
EXTRACT: control_change channel=8 control=11 value=80 time=0
EXTRACT: control_change channel=8 control=11 value=77 time=0.014388499999999999
EXTRACT: control_change channel=7 control=11 value=66 time=0.0023980833333333332
EXTRACT: control_change channel=6 control=11 value=66 time=0.0023980833333333332
EXTRACT: control_change channel=8 control=11 value=74 time=0.0047961666666666665
EXTRACT: control_change channel=8 control=11 value=72 time=0.007194249999999999
EXTRACT: control_change channel=7 control=11 value=60 time=0.0023980833333333332
EXTRACT: control_change channel=6 control=11 value=60 time=0.0023980833333333332
EXTRACT: note_on channel=13 note=85 velocity=0 time=0.009592333333333333
EXTRACT: note_on channel=15 note=92 velocity=0 time=0
EXTRACT: note_on channel=13 note=87 velocity=110 time=0.031175083333333332
EXTRACT: control_change channel=8 control=11 value=75 time=0.016786583333333334
EXTRACT: control_change channel=7 control=11 value=64 time=0.0023980833333333332
EXTRACT: control_change channel=6 control=11 value=64 time=0.0023980833333333332
EXTRACT: control_change channel=8 control=11 value=77 time=0.0023980833333333332
EXTRACT: control_change channel=7 control=11 value=67 time=0.0023980833333333332
EXTRACT: control_change channel=6 control=11 value=67 time=0.0023980833333333332
EXTRACT: control_change channel=8 control=11 value=79 time=0.0047961666666666665
EXTRACT: control_change channel=8 control=1 value=62 time=0.0023980833333333332
EXTRACT: control_change channel=7 control=1 value=62 time=0.0023980833333333332
EXTRACT: control_change channel=6 control=1 value=62 time=0.0023980833333333332
EXTRACT: control_change channel=8 control=11 value=81 time=0.007194249999999999
EXTRACT: control_change channel=7 control=11 value=72 time=0.0023980833333333332
EXTRACT: control_change channel=6 control=11 value=72 time=0.0023980833333333332
EXTRACT: control_change channel=8 control=11 value=84 time=0.0023980833333333332
EXTRACT: control_change channel=8 control=11 value=87 time=0.009592333333333333
EXTRACT: control_change channel=7 control=11 value=79 time=0.0023980833333333332
EXTRACT: control_change channel=6 control=11 value=79 time=0.0023980833333333332
EXTRACT: control_change channel=8 control=11 value=90 time=0.0023980833333333332
EXTRACT: control_change channel=8 control=11 value=92 time=0.007194249999999999
EXTRACT: control_change channel=7 control=11 value=86 time=0.0023980833333333332
EXTRACT: control_change channel=6 control=11 value=86 time=0.0023980833333333332
EXTRACT: pitchwheel channel=8 pitch=-64 time=0.0023980833333333332
EXTRACT: pitchwheel channel=7 pitch=-64 time=0.0023980833333333332
EXTRACT: pitchwheel channel=6 pitch=-64 time=0.0023980833333333332
EXTRACT: control_change channel=8 control=11 value=95 time=0.0047961666666666665
EXTRACT: control_change channel=8 control=1 value=40 time=0
EXTRACT: control_change channel=7 control=1 value=40 time=0.0023980833333333332
EXTRACT: control_change channel=7 control=11 value=90 time=0
EXTRACT: control_change channel=6 control=1 value=40 time=0.0023980833333333332
EXTRACT: control_change channel=6 control=11 value=90 time=0
EXTRACT: control_change channel=8 control=11 value=98 time=0.0023980833333333332
EXTRACT: note_on channel=4 note=79 velocity=0 time=0.0047961666666666665
EXTRACT: note_on channel=4 note=67 velocity=0 time=0
EXTRACT: note_on channel=13 note=87 velocity=0 time=0
EXTRACT: note_on channel=4 note=80 velocity=113 time=0.0023980833333333332
EXTRACT: note_on channel=4 note=68 velocity=107 time=0
EXTRACT: control_change channel=8 control=11 value=101 time=0
EXTRACT: control_change channel=13 control=11 value=98 time=0
EXTRACT: pitchwheel channel=13 pitch=-576 time=0
EXTRACT: note_on channel=13 note=85 velocity=110 time=0
EXTRACT: control_change channel=7 control=11 value=98 time=0.0023980833333333332
EXTRACT: control_change channel=4 control=11 value=112 time=0.0023980833333333332
EXTRACT: control_change channel=6 control=11 value=98 time=0
EXTRACT: control_change channel=8 control=11 value=103 time=0.0023980833333333332
EXTRACT: control_change channel=13 control=11 value=119 time=0
EXTRACT: pitchwheel channel=13 pitch=-160 time=0
EXTRACT: control_change channel=13 control=11 value=116 time=0.007194249999999999
EXTRACT: pitchwheel channel=13 pitch=0 time=0
EXTRACT: control_change channel=8 control=11 value=105 time=0.0023980833333333332
EXTRACT: control_change channel=7 control=11 value=103 time=0.0023980833333333332
EXTRACT: control_change channel=6 control=11 value=103 time=0.0023980833333333332
EXTRACT: control_change channel=8 control=11 value=107 time=0.0023980833333333332
EXTRACT: pitchwheel channel=8 pitch=-128 time=0
EXTRACT: control_change channel=13 control=11 value=110 time=0
EXTRACT: pitchwheel channel=7 pitch=-128 time=0.0023980833333333332
EXTRACT: pitchwheel channel=6 pitch=-128 time=0.0023980833333333332
EXTRACT: control_change channel=8 control=11 value=109 time=0.0023980833333333332
EXTRACT: control_change channel=13 control=11 value=104 time=0
EXTRACT: control_change channel=7 control=11 value=108 time=0.0023980833333333332
EXTRACT: control_change channel=6 control=11 value=108 time=0.0023980833333333332
EXTRACT: control_change channel=8 control=11 value=112 time=0.0023980833333333332
EXTRACT: control_change channel=13 control=11 value=100 time=0
EXTRACT: control_change channel=8 control=1 value=23 time=0.0047961666666666665
EXTRACT: control_change channel=7 control=1 value=23 time=0.0023980833333333332
EXTRACT: control_change channel=6 control=1 value=23 time=0.0023980833333333332
EXTRACT: control_change channel=8 control=11 value=114 time=0
EXTRACT: control_change channel=7 control=11 value=115 time=0.0023980833333333332
EXTRACT: control_change channel=6 control=11 value=115 time=0.0023980833333333332
EXTRACT: control_change channel=8 control=11 value=117 time=0.009592333333333333
EXTRACT: pitchwheel channel=13 pitch=-352 time=0
EXTRACT: control_change channel=7 control=11 value=119 time=0.0023980833333333332
EXTRACT: control_change channel=6 control=11 value=119 time=0.0023980833333333332
EXTRACT: pitchwheel channel=8 pitch=-192 time=0.0023980833333333332
EXTRACT: control_change channel=8 control=11 value=120 time=0
EXTRACT: pitchwheel channel=13 pitch=-864 time=0
EXTRACT: pitchwheel channel=7 pitch=-192 time=0.0023980833333333332
EXTRACT: pitchwheel channel=6 pitch=-192 time=0.0023980833333333332
EXTRACT: control_change channel=8 control=11 value=122 time=0.0047961666666666665
EXTRACT: pitchwheel channel=13 pitch=-2048 time=0
EXTRACT: control_change channel=7 control=11 value=126 time=0.0023980833333333332
EXTRACT: control_change channel=6 control=11 value=126 time=0.0023980833333333332
EXTRACT: control_change channel=8 control=11 value=126 time=0.0023980833333333332
EXTRACT: control_change channel=13 control=11 value=62 time=0
EXTRACT: pitchwheel channel=13 pitch=-3264 time=0
EXTRACT: note_on channel=13 note=85 velocity=0 time=0.0023980833333333332
EXTRACT: pitchwheel channel=8 pitch=-288 time=0.0047961666666666665
EXTRACT: pitchwheel channel=7 pitch=-288 time=0.0023980833333333332
EXTRACT: pitchwheel channel=6 pitch=-288 time=0.0023980833333333332
EXTRACT: control_change channel=8 control=1 value=3 time=0.0023980833333333332
EXTRACT: control_change channel=7 control=1 value=3 time=0.0023980833333333332
EXTRACT: control_change channel=6 control=1 value=3 time=0.0023980833333333332
EXTRACT: pitchwheel channel=8 pitch=-352 time=0.0047961666666666665
EXTRACT: pitchwheel channel=7 pitch=-352 time=0.0023980833333333332
EXTRACT: pitchwheel channel=6 pitch=-352 time=0.0023980833333333332
EXTRACT: pitchwheel channel=8 pitch=-416 time=0.016786583333333334
EXTRACT: pitchwheel channel=7 pitch=-416 time=0.0023980833333333332
EXTRACT: note_on channel=6 note=61 velocity=0 time=0.0023980833333333332
EXTRACT: pitchwheel channel=6 pitch=-416 time=0
EXTRACT: note_on channel=8 note=37 velocity=0 time=0
EXTRACT: pitchwheel channel=8 pitch=0 time=0
EXTRACT: control_change channel=8 control=1 value=0 time=0
EXTRACT: control_change channel=8 control=11 value=107 time=0
EXTRACT: note_on channel=7 note=49 velocity=0 time=0.0023980833333333332
EXTRACT: control_change channel=7 control=1 value=0 time=0
EXTRACT: pitchwheel channel=7 pitch=0 time=0
EXTRACT: control_change channel=6 control=1 value=0 time=0.0023980833333333332
EXTRACT: pitchwheel channel=6 pitch=0 time=0
EXTRACT: control_change channel=4 control=11 value=110 time=0.019184666666666666
EXTRACT: note_on channel=3 note=68 velocity=0 time=0.07194249999999999
EXTRACT: note_on channel=3 note=56 velocity=0 time=0
EXTRACT: note_on channel=15 note=94 velocity=72 time=0.021582749999999998
EXTRACT: note_on channel=3 note=58 velocity=90 time=0.0023980833333333332
EXTRACT: note_on channel=3 note=70 velocity=124 time=0
EXTRACT: control_change channel=4 control=11 value=108 time=0.05275783333333333
EXTRACT: note_on channel=15 note=94 velocity=0 time=0.03836933333333333
EXTRACT: note_on channel=3 note=70 velocity=0 time=0.09112716666666666
EXTRACT: note_on channel=3 note=58 velocity=0 time=0
EXTRACT: control_change channel=8 control=11 value=99 time=0.014388499999999999
EXTRACT: pitchwheel channel=8 pitch=-2016 time=0
EXTRACT: note_on channel=8 note=37 velocity=91 time=0
EXTRACT: pitchwheel channel=7 pitch=-2208 time=0.0023980833333333332
EXTRACT: control_change channel=7 control=11 value=94 time=0
EXTRACT: note_on channel=7 note=49 velocity=101 time=0
EXTRACT: note_on channel=6 note=61 velocity=107 time=0.0023980833333333332
EXTRACT: pitchwheel channel=6 pitch=-2208 time=0
EXTRACT: control_change channel=6 control=11 value=94 time=0
EXTRACT: pitchwheel channel=8 pitch=-1472 time=0.0023980833333333332
EXTRACT: control_change channel=8 control=11 value=108 time=0
EXTRACT: pitchwheel channel=7 pitch=-1600 time=0.0023980833333333332
EXTRACT: note_on channel=3 note=56 velocity=90 time=0.0023980833333333332
EXTRACT: note_on channel=3 note=68 velocity=124 time=0
EXTRACT: pitchwheel channel=6 pitch=-1600 time=0
EXTRACT: pitchwheel channel=8 pitch=-832 time=0.0023980833333333332
EXTRACT: control_change channel=8 control=11 value=115 time=0
EXTRACT: control_change channel=7 control=11 value=114 time=0.0023980833333333332
EXTRACT: pitchwheel channel=7 pitch=-928 time=0
EXTRACT: control_change channel=6 control=11 value=114 time=0.0023980833333333332
EXTRACT: pitchwheel channel=6 pitch=-928 time=0
EXTRACT: note_on channel=9 note=57 velocity=78 time=0
EXTRACT: pitchwheel channel=13 pitch=-3424 time=0
EXTRACT: control_change channel=13 control=11 value=52 time=0
EXTRACT: note_on channel=13 note=85 velocity=105 time=0
EXTRACT: control_change channel=8 control=11 value=117 time=0.0047961666666666665
EXTRACT: pitchwheel channel=8 pitch=-384 time=0
EXTRACT: pitchwheel channel=7 pitch=-448 time=0.0023980833333333332
EXTRACT: pitchwheel channel=13 pitch=-3360 time=0
EXTRACT: control_change channel=13 control=11 value=94 time=0
EXTRACT: pitchwheel channel=6 pitch=-448 time=0.0023980833333333332
EXTRACT: control_change channel=8 control=11 value=122 time=0.0023980833333333332
EXTRACT: pitchwheel channel=8 pitch=0 time=0
EXTRACT: control_change channel=7 control=11 value=125 time=0.0023980833333333332
EXTRACT: pitchwheel channel=7 pitch=64 time=0
EXTRACT: pitchwheel channel=13 pitch=-2880 time=0
EXTRACT: control_change channel=13 control=11 value=113 time=0
EXTRACT: control_change channel=6 control=11 value=125 time=0.0023980833333333332
EXTRACT: pitchwheel channel=6 pitch=64 time=0
EXTRACT: control_change channel=8 control=11 value=118 time=0.0023980833333333332
EXTRACT: pitchwheel channel=8 pitch=224 time=0
EXTRACT: pitchwheel channel=7 pitch=256 time=0.0023980833333333332
EXTRACT: pitchwheel channel=6 pitch=256 time=0.0023980833333333332
EXTRACT: pitchwheel channel=13 pitch=-2176 time=0
EXTRACT: control_change channel=13 control=11 value=118 time=0
EXTRACT: note_on channel=15 note=92 velocity=106 time=0
EXTRACT: control_change channel=8 control=11 value=116 time=0.0023980833333333332
EXTRACT: control_change channel=7 control=11 value=118 time=0.0023980833333333332
EXTRACT: control_change channel=6 control=11 value=118 time=0.0023980833333333332
EXTRACT: pitchwheel channel=13 pitch=-1248 time=0
EXTRACT: control_change channel=13 control=11 value=113 time=0
EXTRACT: control_change channel=8 control=11 value=109 time=0.0047961666666666665
EXTRACT: control_change channel=13 control=11 value=106 time=0.0023980833333333332
EXTRACT: pitchwheel channel=13 pitch=-320 time=0
EXTRACT: control_change channel=8 control=11 value=102 time=0.0047961666666666665
EXTRACT: control_change channel=4 control=11 value=106 time=0.0023980833333333332
EXTRACT: control_change channel=7 control=11 value=101 time=0
EXTRACT: pitchwheel channel=13 pitch=0 time=0
EXTRACT: control_change channel=13 control=11 value=100 time=0
EXTRACT: control_change channel=6 control=11 value=101 time=0.0023980833333333332
EXTRACT: control_change channel=8 control=11 value=97 time=0.0023980833333333332
EXTRACT: note_on channel=6 note=61 velocity=0 time=0.0047961666666666665
EXTRACT: control_change channel=13 control=11 value=95 time=0
EXTRACT: note_on channel=9 note=57 velocity=0 time=0.0023980833333333332
EXTRACT: pitchwheel channel=8 pitch=128 time=0.0023980833333333332
EXTRACT: pitchwheel channel=7 pitch=128 time=0.0023980833333333332
EXTRACT: pitchwheel channel=6 pitch=128 time=0.0023980833333333332
EXTRACT: control_change channel=8 control=11 value=95 time=0.0023980833333333332
EXTRACT: pitchwheel channel=8 pitch=0 time=0
EXTRACT: control_change channel=7 control=11 value=93 time=0.0023980833333333332
EXTRACT: pitchwheel channel=7 pitch=64 time=0
EXTRACT: control_change channel=6 control=11 value=93 time=0.0023980833333333332
EXTRACT: pitchwheel channel=6 pitch=64 time=0
EXTRACT: pitchwheel channel=7 pitch=0 time=0.0047961666666666665
EXTRACT: pitchwheel channel=6 pitch=0 time=0.0023980833333333332
EXTRACT: control_change channel=13 control=11 value=100 time=0
EXTRACT: pitchwheel channel=8 pitch=-96 time=0.0023980833333333332
EXTRACT: pitchwheel channel=7 pitch=-96 time=0.0023980833333333332
EXTRACT: note_on channel=13 note=85 velocity=0 time=0
EXTRACT: pitchwheel channel=6 pitch=-96 time=0.0023980833333333332
EXTRACT: note_on channel=15 note=92 velocity=0 time=0.0023980833333333332
EXTRACT: pitchwheel channel=7 pitch=-160 time=0.0047961666666666665
EXTRACT: pitchwheel channel=6 pitch=-160 time=0.0023980833333333332
EXTRACT: pitchwheel channel=8 pitch=-224 time=0.0023980833333333332
EXTRACT: pitchwheel channel=7 pitch=-256 time=0.0023980833333333332
EXTRACT: pitchwheel channel=6 pitch=-256 time=0.0023980833333333332
EXTRACT: pitchwheel channel=8 pitch=-320 time=0.0023980833333333332
EXTRACT: pitchwheel channel=7 pitch=-384 time=0.0023980833333333332
EXTRACT: pitchwheel channel=6 pitch=-384 time=0.0023980833333333332
EXTRACT: control_change channel=8 control=11 value=93 time=0.0023980833333333332
EXTRACT: pitchwheel channel=8 pitch=-384 time=0
EXTRACT: pitchwheel channel=7 pitch=-448 time=0.0023980833333333332
EXTRACT: pitchwheel channel=6 pitch=-448 time=0.0023980833333333332
EXTRACT: control_change channel=8 control=11 value=95 time=0.0047961666666666665
EXTRACT: pitchwheel channel=8 pitch=-480 time=0.007194249999999999
EXTRACT: pitchwheel channel=7 pitch=-544 time=0.0023980833333333332
EXTRACT: pitchwheel channel=6 pitch=-544 time=0.0023980833333333332
EXTRACT: pitchwheel channel=8 pitch=-576 time=0.009592333333333333
EXTRACT: pitchwheel channel=7 pitch=-608 time=0.0023980833333333332
EXTRACT: control_change channel=7 control=11 value=89 time=0
EXTRACT: pitchwheel channel=6 pitch=-608 time=0.0023980833333333332
EXTRACT: control_change channel=6 control=11 value=89 time=0
EXTRACT: pitchwheel channel=8 pitch=-672 time=0.011990416666666667
EXTRACT: control_change channel=8 control=11 value=92 time=0
EXTRACT: pitchwheel channel=7 pitch=-672 time=0.0023980833333333332
EXTRACT: pitchwheel channel=6 pitch=-672 time=0.0023980833333333332
EXTRACT: control_change channel=8 control=11 value=90 time=0.0023980833333333332
EXTRACT: pitchwheel channel=8 pitch=-832 time=0
EXTRACT: pitchwheel channel=7 pitch=-832 time=0.0023980833333333332
EXTRACT: control_change channel=7 control=11 value=83 time=0
EXTRACT: pitchwheel channel=6 pitch=-832 time=0.0023980833333333332
EXTRACT: control_change channel=6 control=11 value=83 time=0
EXTRACT: control_change channel=8 control=11 value=86 time=0.0023980833333333332
EXTRACT: pitchwheel channel=8 pitch=-1024 time=0
EXTRACT: pitchwheel channel=7 pitch=-1024 time=0.0023980833333333332
EXTRACT: pitchwheel channel=6 pitch=-1024 time=0.0023980833333333332
EXTRACT: pitchwheel channel=8 pitch=-1216 time=0.0047961666666666665
EXTRACT: control_change channel=8 control=11 value=82 time=0
EXTRACT: pitchwheel channel=7 pitch=-1216 time=0.0023980833333333332
EXTRACT: control_change channel=7 control=11 value=72 time=0
EXTRACT: pitchwheel channel=6 pitch=-1216 time=0.0023980833333333332
EXTRACT: control_change channel=6 control=11 value=72 time=0
EXTRACT: pitchwheel channel=8 pitch=-1504 time=0.0023980833333333332
EXTRACT: control_change channel=8 control=11 value=74 time=0
EXTRACT: pitchwheel channel=7 pitch=-1504 time=0.0023980833333333332
EXTRACT: pitchwheel channel=6 pitch=-1504 time=0.0023980833333333332
EXTRACT: control_change channel=8 control=11 value=66 time=0.0023980833333333332
EXTRACT: pitchwheel channel=8 pitch=-1792 time=0
EXTRACT: pitchwheel channel=7 pitch=-1792 time=0.0023980833333333332
EXTRACT: control_change channel=7 control=11 value=51 time=0
EXTRACT: pitchwheel channel=6 pitch=-1792 time=0.0023980833333333332
EXTRACT: control_change channel=6 control=11 value=51 time=0
EXTRACT: pitchwheel channel=8 pitch=-2400 time=0.0023980833333333332
EXTRACT: control_change channel=8 control=11 value=63 time=0
EXTRACT: pitchwheel channel=7 pitch=-2400 time=0.0023980833333333332
EXTRACT: pitchwheel channel=6 pitch=-2400 time=0.0023980833333333332
EXTRACT: note_on channel=8 note=37 velocity=0 time=0.0023980833333333332
EXTRACT: note_on channel=7 note=49 velocity=0 time=0.0023980833333333332
EXTRACT: control_change channel=8 control=11 value=65 time=0
EXTRACT: pitchwheel channel=8 pitch=2240 time=0
EXTRACT: control_change channel=8 control=11 value=61 time=0
EXTRACT: pitchwheel channel=8 pitch=-2368 time=0
EXTRACT: note_on channel=8 note=36 velocity=91 time=0
EXTRACT: pitchwheel channel=7 pitch=2240 time=0.0023980833333333332
EXTRACT: control_change channel=7 control=11 value=52 time=0
EXTRACT: pitchwheel channel=7 pitch=-2368 time=0
EXTRACT: note_on channel=7 note=48 velocity=98 time=0
EXTRACT: note_on channel=6 note=60 velocity=111 time=0.0023980833333333332
EXTRACT: pitchwheel channel=6 pitch=2240 time=0
EXTRACT: control_change channel=6 control=11 value=52 time=0
EXTRACT: pitchwheel channel=6 pitch=-2368 time=0
EXTRACT: control_change channel=8 control=11 value=75 time=0.0023980833333333332
EXTRACT: pitchwheel channel=8 pitch=1504 time=0
EXTRACT: pitchwheel channel=7 pitch=1504 time=0.0023980833333333332
EXTRACT: control_change channel=7 control=11 value=67 time=0
EXTRACT: pitchwheel channel=6 pitch=1504 time=0.0023980833333333332
EXTRACT: control_change channel=6 control=11 value=67 time=0
EXTRACT: pitchwheel channel=8 pitch=1056 time=0.0023980833333333332
EXTRACT: control_change channel=8 control=11 value=85 time=0
EXTRACT: pitchwheel channel=7 pitch=1056 time=0.0023980833333333332
EXTRACT: pitchwheel channel=6 pitch=1056 time=0.0023980833333333332
EXTRACT: control_change channel=8 control=11 value=95 time=0.0023980833333333332
EXTRACT: pitchwheel channel=8 pitch=992 time=0
EXTRACT: control_change channel=7 control=11 value=94 time=0.0023980833333333332
EXTRACT: pitchwheel channel=7 pitch=992 time=0
EXTRACT: control_change channel=6 control=11 value=94 time=0.0023980833333333332
EXTRACT: pitchwheel channel=6 pitch=992 time=0
EXTRACT: pitchwheel channel=8 pitch=1152 time=0.0047961666666666665
EXTRACT: control_change channel=8 control=11 value=104 time=0
EXTRACT: pitchwheel channel=7 pitch=1152 time=0.0023980833333333332
EXTRACT: pitchwheel channel=6 pitch=1152 time=0.0023980833333333332
EXTRACT: control_change channel=8 control=11 value=109 time=0.0023980833333333332
EXTRACT: control_change channel=7 control=11 value=111 time=0.0023980833333333332
EXTRACT: control_change channel=6 control=11 value=111 time=0.0023980833333333332
EXTRACT: control_change channel=8 control=11 value=111 time=0.0023980833333333332
EXTRACT: pitchwheel channel=8 pitch=960 time=0
EXTRACT: pitchwheel channel=7 pitch=960 time=0.0023980833333333332
EXTRACT: pitchwheel channel=6 pitch=960 time=0.0023980833333333332
EXTRACT: pitchwheel channel=8 pitch=832 time=0.0023980833333333332
EXTRACT: pitchwheel channel=7 pitch=832 time=0.0023980833333333332
EXTRACT: pitchwheel channel=6 pitch=832 time=0.0023980833333333332
EXTRACT: pitchwheel channel=8 pitch=736 time=0.0047961666666666665
EXTRACT: control_change channel=8 control=11 value=108 time=0
EXTRACT: pitchwheel channel=7 pitch=736 time=0.0023980833333333332
EXTRACT: control_change channel=7 control=11 value=99 time=0
EXTRACT: note_on channel=6 note=60 velocity=0 time=0.0023980833333333332
EXTRACT: pitchwheel channel=6 pitch=736 time=0
EXTRACT: control_change channel=6 control=11 value=99 time=0
EXTRACT: pitchwheel channel=8 pitch=640 time=0.0023980833333333332
EXTRACT: pitchwheel channel=7 pitch=640 time=0.0023980833333333332
EXTRACT: pitchwheel channel=6 pitch=640 time=0.0023980833333333332
EXTRACT: pitchwheel channel=8 pitch=480 time=0.0023980833333333332
EXTRACT: control_change channel=7 control=11 value=93 time=0.0023980833333333332
EXTRACT: pitchwheel channel=7 pitch=480 time=0
EXTRACT: control_change channel=6 control=11 value=93 time=0.0023980833333333332
EXTRACT: pitchwheel channel=6 pitch=480 time=0
EXTRACT: control_change channel=8 control=11 value=106 time=0.0023980833333333332
EXTRACT: pitchwheel channel=8 pitch=384 time=0
EXTRACT: pitchwheel channel=7 pitch=384 time=0.0023980833333333332
EXTRACT: pitchwheel channel=6 pitch=384 time=0.0023980833333333332
EXTRACT: pitchwheel channel=8 pitch=288 time=0.0047961666666666665
EXTRACT: pitchwheel channel=7 pitch=288 time=0.0023980833333333332
EXTRACT: pitchwheel channel=6 pitch=288 time=0.0023980833333333332
EXTRACT: control_change channel=8 control=11 value=103 time=0.0023980833333333332
EXTRACT: pitchwheel channel=8 pitch=192 time=0
EXTRACT: control_change channel=7 control=11 value=89 time=0.0023980833333333332
EXTRACT: pitchwheel channel=7 pitch=192 time=0
EXTRACT: control_change channel=6 control=11 value=89 time=0.0023980833333333332
EXTRACT: pitchwheel channel=6 pitch=192 time=0
EXTRACT: pitchwheel channel=8 pitch=96 time=0.0023980833333333332
EXTRACT: pitchwheel channel=7 pitch=96 time=0.0023980833333333332
EXTRACT: pitchwheel channel=6 pitch=96 time=0.0023980833333333332
EXTRACT: pitchwheel channel=8 pitch=0 time=0.0023980833333333332
EXTRACT: control_change channel=8 control=11 value=101 time=0
EXTRACT: pitchwheel channel=7 pitch=0 time=0.0023980833333333332
EXTRACT: pitchwheel channel=6 pitch=0 time=0.0023980833333333332
EXTRACT: pitchwheel channel=8 pitch=-160 time=0.0047961666666666665
EXTRACT: pitchwheel channel=7 pitch=-160 time=0.0023980833333333332
EXTRACT: pitchwheel channel=6 pitch=-160 time=0.0023980833333333332
EXTRACT: control_change channel=8 control=11 value=99 time=0.0023980833333333332
EXTRACT: control_change channel=8 control=11 value=96 time=0.014388499999999999
EXTRACT: control_change channel=7 control=11 value=85 time=0.0023980833333333332
EXTRACT: control_change channel=6 control=11 value=85 time=0.0023980833333333332
EXTRACT: control_change channel=8 control=11 value=94 time=0.0047961666666666665
EXTRACT: pitchwheel channel=8 pitch=-96 time=0
EXTRACT: pitchwheel channel=7 pitch=-96 time=0.0023980833333333332
EXTRACT: pitchwheel channel=6 pitch=-96 time=0.0023980833333333332
EXTRACT: pitchwheel channel=8 pitch=0 time=0.0023980833333333332
EXTRACT: pitchwheel channel=7 pitch=0 time=0.0023980833333333332
EXTRACT: pitchwheel channel=6 pitch=0 time=0.0023980833333333332
EXTRACT: pitchwheel channel=8 pitch=192 time=0.0023980833333333332
EXTRACT: control_change channel=8 control=11 value=90 time=0
EXTRACT: pitchwheel channel=7 pitch=192 time=0.0023980833333333332
EXTRACT: pitchwheel channel=6 pitch=192 time=0.0023980833333333332
EXTRACT: pitchwheel channel=8 pitch=288 time=0.0023980833333333332
EXTRACT: pitchwheel channel=7 pitch=288 time=0.0023980833333333332
EXTRACT: pitchwheel channel=6 pitch=288 time=0.0023980833333333332
EXTRACT: control_change channel=8 control=11 value=85 time=0.0047961666666666665
EXTRACT: control_change channel=7 control=11 value=77 time=0.0023980833333333332
EXTRACT: control_change channel=6 control=11 value=77 time=0.0023980833333333332
EXTRACT: pitchwheel channel=8 pitch=384 time=0.0023980833333333332
EXTRACT: control_change channel=8 control=11 value=81 time=0
EXTRACT: pitchwheel channel=7 pitch=384 time=0.0023980833333333332
EXTRACT: pitchwheel channel=6 pitch=384 time=0.0023980833333333332
EXTRACT: pitchwheel channel=8 pitch=480 time=0.0023980833333333332
EXTRACT: control_change channel=8 control=11 value=78 time=0
EXTRACT: pitchwheel channel=7 pitch=480 time=0.0023980833333333332
EXTRACT: control_change channel=7 control=11 value=69 time=0
EXTRACT: pitchwheel channel=6 pitch=480 time=0.0023980833333333332
EXTRACT: control_change channel=6 control=11 value=69 time=0
EXTRACT: control_change channel=8 control=11 value=74 time=0.0047961666666666665
EXTRACT: pitchwheel channel=8 pitch=672 time=0
EXTRACT: pitchwheel channel=7 pitch=672 time=0.0023980833333333332
EXTRACT: pitchwheel channel=6 pitch=672 time=0.0023980833333333332
EXTRACT: pitchwheel channel=8 pitch=1184 time=0.0023980833333333332
EXTRACT: control_change channel=8 control=11 value=71 time=0
EXTRACT: pitchwheel channel=7 pitch=1184 time=0.0023980833333333332
EXTRACT: control_change channel=7 control=11 value=60 time=0
EXTRACT: pitchwheel channel=6 pitch=1184 time=0.0023980833333333332
EXTRACT: control_change channel=6 control=11 value=60 time=0
EXTRACT: pitchwheel channel=8 pitch=3584 time=0.0023980833333333332
EXTRACT: pitchwheel channel=7 pitch=3584 time=0.0023980833333333332
EXTRACT: pitchwheel channel=6 pitch=3584 time=0.0023980833333333332
EXTRACT: note_on channel=8 note=36 velocity=0 time=0.0023980833333333332
EXTRACT: control_change channel=8 control=11 value=76 time=0
EXTRACT: control_change channel=8 control=11 value=70 time=0
EXTRACT: pitchwheel channel=8 pitch=-8192 time=0
EXTRACT: note_on channel=8 note=37 velocity=94 time=0
EXTRACT: note_on channel=7 note=48 velocity=0 time=0.0023980833333333332
EXTRACT: pitchwheel channel=7 pitch=-7712 time=0
EXTRACT: control_change channel=7 control=11 value=57 time=0
EXTRACT: note_on channel=7 note=49 velocity=102 time=0
EXTRACT: note_on channel=6 note=61 velocity=113 time=0.0023980833333333332
EXTRACT: pitchwheel channel=6 pitch=-7712 time=0
EXTRACT: control_change channel=6 control=11 value=57 time=0
EXTRACT: note_on channel=3 note=68 velocity=0 time=0.0023980833333333332
EXTRACT: note_on channel=3 note=56 velocity=0 time=0
EXTRACT: control_change channel=8 control=11 value=87 time=0.0023980833333333332
EXTRACT: pitchwheel channel=8 pitch=-5088 time=0
EXTRACT: pitchwheel channel=7 pitch=-4512 time=0.0023980833333333332
EXTRACT: note_on channel=4 note=68 velocity=0 time=0.0023980833333333332
EXTRACT: note_on channel=4 note=56 velocity=0 time=0
EXTRACT: note_on channel=4 note=73 velocity=0 time=0
EXTRACT: note_on channel=4 note=80 velocity=0 time=0
EXTRACT: pitchwheel channel=6 pitch=-4512 time=0
EXTRACT: note_on channel=4 note=73 velocity=112 time=0.0023980833333333332
EXTRACT: note_on channel=4 note=56 velocity=101 time=0
EXTRACT: note_on channel=4 note=64 velocity=105 time=0
EXTRACT: note_on channel=4 note=76 velocity=113 time=0
EXTRACT: control_change channel=8 control=11 value=102 time=0
EXTRACT: pitchwheel channel=8 pitch=-1920 time=0
EXTRACT: control_change channel=7 control=11 value=103 time=0.0023980833333333332
EXTRACT: pitchwheel channel=7 pitch=-1568 time=0
EXTRACT: note_on channel=9 note=57 velocity=91 time=0
EXTRACT: control_change channel=13 control=11 value=107 time=0
EXTRACT: pitchwheel channel=13 pitch=-640 time=0
EXTRACT: note_on channel=13 note=92 velocity=116 time=0
EXTRACT: control_change channel=6 control=11 value=103 time=0.0023980833333333332
EXTRACT: pitchwheel channel=6 pitch=-1568 time=0
EXTRACT: control_change channel=8 control=11 value=113 time=0.0023980833333333332
EXTRACT: pitchwheel channel=8 pitch=-1088 time=0
EXTRACT: pitchwheel channel=7 pitch=-896 time=0.0023980833333333332
EXTRACT: pitchwheel channel=6 pitch=-896 time=0.0023980833333333332
EXTRACT: pitchwheel channel=8 pitch=-384 time=0.0023980833333333332
EXTRACT: control_change channel=8 control=11 value=121 time=0
EXTRACT: control_change channel=7 control=11 value=127 time=0.0023980833333333332
EXTRACT: pitchwheel channel=7 pitch=-416 time=0
EXTRACT: control_change channel=6 control=11 value=127 time=0.0023980833333333332
EXTRACT: pitchwheel channel=6 pitch=-416 time=0
EXTRACT: pitchwheel channel=13 pitch=-544 time=0
EXTRACT: pitchwheel channel=8 pitch=64 time=0.0047961666666666665
EXTRACT: control_change channel=8 control=11 value=124 time=0
EXTRACT: pitchwheel channel=7 pitch=-64 time=0.0023980833333333332
EXTRACT: pitchwheel channel=13 pitch=-480 time=0
EXTRACT: pitchwheel channel=6 pitch=-64 time=0.0023980833333333332
EXTRACT: pitchwheel channel=8 pitch=288 time=0.0023980833333333332
EXTRACT: pitchwheel channel=7 pitch=128 time=0.0023980833333333332
EXTRACT: pitchwheel channel=13 pitch=-192 time=0
EXTRACT: pitchwheel channel=6 pitch=128 time=0.0023980833333333332
EXTRACT: control_change channel=8 control=11 value=121 time=0.0023980833333333332
EXTRACT: pitchwheel channel=8 pitch=352 time=0
EXTRACT: pitchwheel channel=7 pitch=192 time=0.0023980833333333332
EXTRACT: control_change channel=4 control=11 value=108 time=0.0023980833333333332
EXTRACT: pitchwheel channel=6 pitch=192 time=0
EXTRACT: control_change channel=13 control=11 value=104 time=0
EXTRACT: pitchwheel channel=13 pitch=0 time=0
EXTRACT: pitchwheel channel=8 pitch=448 time=0.0023980833333333332
EXTRACT: control_change channel=8 control=11 value=115 time=0
EXTRACT: pitchwheel channel=7 pitch=288 time=0.0023980833333333332
EXTRACT: control_change channel=7 control=11 value=118 time=0
EXTRACT: pitchwheel channel=6 pitch=288 time=0.0023980833333333332
EXTRACT: control_change channel=6 control=11 value=118 time=0
EXTRACT: control_change channel=13 control=11 value=100 time=0
EXTRACT: pitchwheel channel=13 pitch=160 time=0
EXTRACT: control_change channel=8 control=11 value=113 time=0.0047961666666666665
EXTRACT: note_on channel=6 note=61 velocity=0 time=0.0023980833333333332
EXTRACT: control_change channel=13 control=11 value=96 time=0
EXTRACT: pitchwheel channel=13 pitch=288 time=0
EXTRACT: note_on channel=9 note=57 velocity=0 time=0.0023980833333333332
EXTRACT: pitchwheel channel=8 pitch=256 time=0.0023980833333333332
EXTRACT: control_change channel=8 control=11 value=108 time=0
EXTRACT: pitchwheel channel=7 pitch=160 time=0.0023980833333333332
EXTRACT: control_change channel=7 control=11 value=108 time=0
EXTRACT: control_change channel=13 control=11 value=91 time=0
EXTRACT: pitchwheel channel=13 pitch=352 time=0
EXTRACT: pitchwheel channel=6 pitch=160 time=0.0023980833333333332
EXTRACT: control_change channel=6 control=11 value=108 time=0
EXTRACT: pitchwheel channel=8 pitch=128 time=0.0023980833333333332
EXTRACT: control_change channel=8 control=11 value=106 time=0
EXTRACT: pitchwheel channel=7 pitch=96 time=0.0023980833333333332
EXTRACT: pitchwheel channel=6 pitch=96 time=0.0023980833333333332
EXTRACT: pitchwheel channel=13 pitch=416 time=0
EXTRACT: control_change channel=13 control=11 value=85 time=0
EXTRACT: control_change channel=8 control=11 value=103 time=0.0023980833333333332
EXTRACT: pitchwheel channel=8 pitch=0 time=0
EXTRACT: control_change channel=7 control=11 value=101 time=0.0023980833333333332
EXTRACT: pitchwheel channel=7 pitch=0 time=0
EXTRACT: control_change channel=6 control=11 value=101 time=0.0023980833333333332
EXTRACT: pitchwheel channel=6 pitch=0 time=0
EXTRACT: pitchwheel channel=13 pitch=480 time=0
EXTRACT: control_change channel=13 control=11 value=77 time=0
EXTRACT: control_change channel=8 control=11 value=101 time=0.0047961666666666665
EXTRACT: pitchwheel channel=8 pitch=-64 time=0
EXTRACT: control_change channel=13 control=11 value=72 time=0.0023980833333333332
EXTRACT: pitchwheel channel=8 pitch=-160 time=0.0047961666666666665
EXTRACT: pitchwheel channel=7 pitch=-64 time=0.0023980833333333332
EXTRACT: control_change channel=13 control=11 value=69 time=0
EXTRACT: pitchwheel channel=13 pitch=544 time=0
EXTRACT: pitchwheel channel=6 pitch=-64 time=0.0023980833333333332
EXTRACT: pitchwheel channel=8 pitch=-288 time=0.0023980833333333332
EXTRACT: control_change channel=7 control=11 value=94 time=0.0023980833333333332
EXTRACT: pitchwheel channel=7 pitch=-160 time=0
EXTRACT: control_change channel=6 control=11 value=94 time=0.0023980833333333332
EXTRACT: pitchwheel channel=6 pitch=-160 time=0
EXTRACT: pitchwheel channel=8 pitch=-384 time=0.0023980833333333332
EXTRACT: pitchwheel channel=7 pitch=-224 time=0.0023980833333333332
EXTRACT: pitchwheel channel=6 pitch=-224 time=0.0023980833333333332
EXTRACT: pitchwheel channel=13 pitch=640 time=0
EXTRACT: control_change channel=8 control=11 value=98 time=0.011990416666666667
EXTRACT: control_change channel=7 control=11 value=90 time=0.0023980833333333332
EXTRACT: control_change channel=6 control=11 value=90 time=0.0023980833333333332
EXTRACT: pitchwheel channel=8 pitch=-288 time=0.009592333333333333
EXTRACT: control_change channel=8 control=11 value=100 time=0
EXTRACT: pitchwheel channel=7 pitch=-160 time=0.0023980833333333332
EXTRACT: pitchwheel channel=6 pitch=-160 time=0.0023980833333333332
EXTRACT: control_change channel=13 control=11 value=72 time=0
EXTRACT: pitchwheel channel=8 pitch=-160 time=0.0047961666666666665
EXTRACT: control_change channel=8 control=11 value=98 time=0
EXTRACT: pitchwheel channel=7 pitch=-64 time=0.0023980833333333332
EXTRACT: control_change channel=13 control=11 value=77 time=0
EXTRACT: pitchwheel channel=6 pitch=-64 time=0.0023980833333333332
EXTRACT: pitchwheel channel=8 pitch=0 time=0.0023980833333333332
EXTRACT: pitchwheel channel=7 pitch=0 time=0.0023980833333333332
EXTRACT: control_change channel=13 control=11 value=82 time=0
EXTRACT: pitchwheel channel=6 pitch=0 time=0.0023980833333333332
EXTRACT: pitchwheel channel=8 pitch=-64 time=0.0023980833333333332
EXTRACT: control_change channel=8 control=11 value=100 time=0
EXTRACT: control_change channel=13 control=11 value=86 time=0.0047961666666666665
EXTRACT: control_change channel=13 control=11 value=92 time=0.007194249999999999
EXTRACT: pitchwheel channel=8 pitch=-128 time=0.0047961666666666665
EXTRACT: pitchwheel channel=7 pitch=-96 time=0.0023980833333333332
EXTRACT: control_change channel=13 control=11 value=96 time=0
EXTRACT: pitchwheel channel=6 pitch=-96 time=0.0023980833333333332
EXTRACT: pitchwheel channel=8 pitch=-352 time=0.0023980833333333332
EXTRACT: control_change channel=8 control=11 value=97 time=0
EXTRACT: pitchwheel channel=7 pitch=-320 time=0.0023980833333333332
EXTRACT: control_change channel=7 control=11 value=88 time=0
EXTRACT: control_change channel=13 control=11 value=100 time=0
EXTRACT: pitchwheel channel=6 pitch=-320 time=0.0023980833333333332
EXTRACT: control_change channel=6 control=11 value=88 time=0
EXTRACT: pitchwheel channel=8 pitch=-896 time=0.0023980833333333332
EXTRACT: pitchwheel channel=7 pitch=-864 time=0.0023980833333333332
EXTRACT: pitchwheel channel=6 pitch=-864 time=0.0023980833333333332
EXTRACT: control_change channel=13 control=11 value=105 time=0
EXTRACT: pitchwheel channel=13 pitch=704 time=0
EXTRACT: pitchwheel channel=8 pitch=-1536 time=0.0023980833333333332
EXTRACT: control_change channel=8 control=11 value=87 time=0
EXTRACT: control_change channel=7 control=11 value=67 time=0.0023980833333333332
EXTRACT: pitchwheel channel=7 pitch=-1536 time=0
EXTRACT: control_change channel=6 control=11 value=67 time=0.0023980833333333332
EXTRACT: pitchwheel channel=6 pitch=-1536 time=0
EXTRACT: control_change channel=13 control=11 value=108 time=0
EXTRACT: pitchwheel channel=8 pitch=-2368 time=0.0047961666666666665
EXTRACT: control_change channel=8 control=11 value=75 time=0
EXTRACT: pitchwheel channel=7 pitch=-2368 time=0.0023980833333333332
EXTRACT: pitchwheel channel=6 pitch=-2368 time=0.0023980833333333332
EXTRACT: note_on channel=8 note=37 velocity=0 time=0
EXTRACT: note_on channel=7 note=49 velocity=0 time=0.0023980833333333332
EXTRACT: pitchwheel channel=8 pitch=-3840 time=0
EXTRACT: control_change channel=8 control=11 value=92 time=0
EXTRACT: pitchwheel channel=8 pitch=-2304 time=0
EXTRACT: note_on channel=8 note=37 velocity=89 time=0
EXTRACT: pitchwheel channel=7 pitch=-3904 time=0.0023980833333333332
EXTRACT: control_change channel=7 control=11 value=71 time=0
EXTRACT: pitchwheel channel=7 pitch=-2336 time=0
EXTRACT: pitchwheel channel=7 pitch=-3904 time=0
EXTRACT: note_on channel=7 note=49 velocity=96 time=0
EXTRACT: pitchwheel channel=13 pitch=640 time=0
EXTRACT: control_change channel=13 control=11 value=110 time=0
EXTRACT: note_on channel=6 note=61 velocity=109 time=0.0023980833333333332
EXTRACT: pitchwheel channel=6 pitch=-3904 time=0
EXTRACT: control_change channel=6 control=11 value=71 time=0
EXTRACT: pitchwheel channel=6 pitch=-2336 time=0
EXTRACT: pitchwheel channel=6 pitch=-3904 time=0
EXTRACT: pitchwheel channel=8 pitch=-544 time=0.0023980833333333332
EXTRACT: control_change channel=8 control=11 value=108 time=0
EXTRACT: pitchwheel channel=7 pitch=-544 time=0.0023980833333333332
EXTRACT: pitchwheel channel=6 pitch=-544 time=0.0023980833333333332
EXTRACT: pitchwheel channel=8 pitch=-128 time=0.0023980833333333332
EXTRACT: pitchwheel channel=7 pitch=-128 time=0.0023980833333333332
EXTRACT: pitchwheel channel=6 pitch=-128 time=0.0023980833333333332
EXTRACT: control_change channel=13 control=1 value=3 time=0
EXTRACT: control_change channel=7 control=11 value=107 time=0.007194249999999999
EXTRACT: pitchwheel channel=13 pitch=576 time=0
EXTRACT: control_change channel=6 control=11 value=107 time=0.0023980833333333332
EXTRACT: pitchwheel channel=13 pitch=512 time=0.014388499999999999
EXTRACT: control_change channel=8 control=11 value=106 time=0.0023980833333333332
EXTRACT: control_change channel=13 control=11 value=106 time=0.019184666666666666
EXTRACT: pitchwheel channel=8 pitch=0 time=0.0047961666666666665
EXTRACT: pitchwheel channel=7 pitch=0 time=0.0023980833333333332
EXTRACT: pitchwheel channel=6 pitch=0 time=0.0023980833333333332
EXTRACT: control_change channel=13 control=11 value=104 time=0
EXTRACT: control_change channel=13 control=1 value=56 time=0.0023980833333333332
EXTRACT: control_change channel=4 control=11 value=106 time=0.011990416666666667
EXTRACT: note_on channel=8 note=37 velocity=0 time=0
EXTRACT: control_change channel=13 control=11 value=102 time=0
EXTRACT: note_on channel=7 note=49 velocity=0 time=0.0023980833333333332
EXTRACT: control_change channel=7 control=11 value=106 time=0
EXTRACT: note_on channel=6 note=61 velocity=0 time=0.0023980833333333332
EXTRACT: control_change channel=6 control=11 value=106 time=0
EXTRACT: control_change channel=13 control=11 value=100 time=0.0047961666666666665
EXTRACT: pitchwheel channel=13 pitch=576 time=0
EXTRACT: control_change channel=13 control=11 value=98 time=0.007194249999999999
EXTRACT: pitchwheel channel=13 pitch=640 time=0
EXTRACT: pitchwheel channel=13 pitch=704 time=0.007194249999999999
EXTRACT: control_change channel=13 control=11 value=96 time=0.016786583333333334
EXTRACT: control_change channel=13 control=1 value=61 time=0.007194249999999999
EXTRACT: control_change channel=13 control=11 value=94 time=0.007194249999999999
EXTRACT: control_change channel=13 control=11 value=92 time=0.007194249999999999
EXTRACT: control_change channel=13 control=11 value=89 time=0.016786583333333334
EXTRACT: control_change channel=13 control=11 value=87 time=0.007194249999999999
EXTRACT: control_change channel=13 control=11 value=84 time=0.007194249999999999
EXTRACT: pitchwheel channel=13 pitch=608 time=0
EXTRACT: control_change channel=13 control=1 value=0 time=0.011990416666666667
EXTRACT: control_change channel=13 control=11 value=81 time=0.0047961666666666665
EXTRACT: pitchwheel channel=13 pitch=512 time=0
EXTRACT: control_change channel=13 control=11 value=79 time=0.007194249999999999
EXTRACT: control_change channel=13 control=11 value=77 time=0.007194249999999999
EXTRACT: pitchwheel channel=13 pitch=416 time=0
EXTRACT: control_change channel=13 control=11 value=74 time=0.016786583333333334
EXTRACT: pitchwheel channel=13 pitch=320 time=0
EXTRACT: note_on channel=3 note=56 velocity=92 time=0.007194249999999999
EXTRACT: note_on channel=3 note=68 velocity=127 time=0
EXTRACT: control_change channel=13 control=11 value=72 time=0
EXTRACT: pitchwheel channel=13 pitch=224 time=0.007194249999999999
EXTRACT: control_change channel=13 control=11 value=70 time=0
EXTRACT: note_on channel=15 note=92 velocity=85 time=0.0047961666666666665
EXTRACT: pitchwheel channel=13 pitch=160 time=0.0047961666666666665
EXTRACT: control_change channel=13 control=11 value=68 time=0
EXTRACT: control_change channel=13 control=11 value=66 time=0.007194249999999999
EXTRACT: pitchwheel channel=13 pitch=96 time=0
EXTRACT: control_change channel=13 control=11 value=64 time=0.007194249999999999
EXTRACT: pitchwheel channel=13 pitch=0 time=0.007194249999999999
EXTRACT: control_change channel=13 control=11 value=62 time=0
EXTRACT: control_change channel=13 control=11 value=60 time=0.016786583333333334
EXTRACT: pitchwheel channel=13 pitch=-96 time=0
EXTRACT: note_on channel=15 note=92 velocity=0 time=0.0023980833333333332
EXTRACT: control_change channel=13 control=11 value=58 time=0.0047961666666666665
EXTRACT: pitchwheel channel=13 pitch=-160 time=0
EXTRACT: control_change channel=4 control=11 value=104 time=0.031175083333333332
EXTRACT: pitchwheel channel=13 pitch=-64 time=0.031175083333333332
EXTRACT: control_change channel=13 control=11 value=63 time=0
EXTRACT: control_change channel=13 control=11 value=67 time=0.007194249999999999
EXTRACT: pitchwheel channel=13 pitch=0 time=0
EXTRACT: pitchwheel channel=13 pitch=96 time=0.009592333333333333
EXTRACT: control_change channel=13 control=11 value=71 time=0
EXTRACT: control_change channel=13 control=11 value=77 time=0.007194249999999999
EXTRACT: pitchwheel channel=13 pitch=160 time=0
EXTRACT: pitchwheel channel=13 pitch=288 time=0.007194249999999999
EXTRACT: control_change channel=13 control=11 value=81 time=0
EXTRACT: control_change channel=13 control=11 value=85 time=0.007194249999999999
EXTRACT: pitchwheel channel=13 pitch=352 time=0
EXTRACT: control_change channel=13 control=11 value=90 time=0.009592333333333333
EXTRACT: pitchwheel channel=13 pitch=416 time=0
EXTRACT: pitchwheel channel=13 pitch=480 time=0.007194249999999999
EXTRACT: control_change channel=13 control=11 value=94 time=0
EXTRACT: pitchwheel channel=13 pitch=544 time=0.007194249999999999
EXTRACT: control_change channel=13 control=11 value=98 time=0
EXTRACT: control_change channel=13 control=1 value=7 time=0.0047961666666666665
EXTRACT: pitchwheel channel=13 pitch=608 time=0.0047961666666666665
EXTRACT: control_change channel=13 control=11 value=101 time=0
EXTRACT: control_change channel=13 control=11 value=103 time=0.007194249999999999
EXTRACT: pitchwheel channel=13 pitch=704 time=0.007194249999999999
EXTRACT: control_change channel=13 control=11 value=105 time=0.007194249999999999
EXTRACT: pitchwheel channel=13 pitch=768 time=0.009592333333333333
EXTRACT: note_on channel=3 note=68 velocity=0 time=0.0047961666666666665
EXTRACT: note_on channel=3 note=56 velocity=0 time=0
EXTRACT: control_change channel=13 control=1 value=73 time=0.016786583333333334
EXTRACT: pitchwheel channel=13 pitch=832 time=0
EXTRACT: control_change channel=13 control=11 value=102 time=0.031175083333333332
EXTRACT: pitchwheel channel=13 pitch=736 time=0.009592333333333333
EXTRACT: control_change channel=13 control=11 value=99 time=0
EXTRACT: control_change channel=13 control=11 value=96 time=0.014388499999999999
EXTRACT: control_change channel=13 control=11 value=93 time=0.007194249999999999
EXTRACT: pitchwheel channel=13 pitch=640 time=0
EXTRACT: control_change channel=13 control=11 value=91 time=0.009592333333333333
EXTRACT: pitchwheel channel=13 pitch=576 time=0
EXTRACT: control_change channel=13 control=11 value=87 time=0.007194249999999999
EXTRACT: control_change channel=13 control=11 value=85 time=0.007194249999999999
EXTRACT: control_change channel=13 control=11 value=82 time=0.007194249999999999
EXTRACT: control_change channel=13 control=11 value=79 time=0.009592333333333333
EXTRACT: control_change channel=13 control=11 value=76 time=0.007194249999999999
EXTRACT: control_change channel=13 control=11 value=74 time=0.007194249999999999
EXTRACT: control_change channel=13 control=1 value=16 time=0
EXTRACT: control_change channel=13 control=11 value=70 time=0.007194249999999999
EXTRACT: pitchwheel channel=13 pitch=640 time=0.009592333333333333
EXTRACT: control_change channel=13 control=11 value=67 time=0.007194249999999999
EXTRACT: control_change channel=13 control=11 value=64 time=0.014388499999999999
EXTRACT: pitchwheel channel=13 pitch=704 time=0
EXTRACT: control_change channel=13 control=1 value=0 time=0.021582749999999998
EXTRACT: control_change channel=13 control=11 value=62 time=0.0023980833333333332
EXTRACT: pitchwheel channel=13 pitch=640 time=0.007194249999999999
EXTRACT: pitchwheel channel=13 pitch=576 time=0.016786583333333334
EXTRACT: control_change channel=13 control=11 value=60 time=0
EXTRACT: note_on channel=3 note=56 velocity=91 time=0.011990416666666667
EXTRACT: note_on channel=3 note=68 velocity=126 time=0
EXTRACT: pitchwheel channel=13 pitch=480 time=0.0023980833333333332
EXTRACT: pitchwheel channel=13 pitch=416 time=0.009592333333333333
EXTRACT: note_on channel=15 note=85 velocity=91 time=0
EXTRACT: note_on channel=13 note=92 velocity=0 time=0.011990416666666667
EXTRACT: pitchwheel channel=13 pitch=0 time=0.0023980833333333332
EXTRACT: control_change channel=13 control=11 value=100 time=0
EXTRACT: pitchwheel channel=13 pitch=-320 time=0
EXTRACT: note_on channel=15 note=85 velocity=0 time=0.043165499999999996
EXTRACT: control_change channel=4 control=11 value=106 time=0.019184666666666666
EXTRACT: note_on channel=3 note=68 velocity=0 time=0.14388499999999999
EXTRACT: note_on channel=3 note=56 velocity=0 time=0
EXTRACT: control_change channel=4 control=11 value=108 time=0.18465241666666665
EXTRACT: note_on channel=3 note=58 velocity=91 time=0.06714633333333334
EXTRACT: note_on channel=3 note=70 velocity=126 time=0
EXTRACT: note_on channel=15 note=92 velocity=91 time=0
EXTRACT: note_on channel=15 note=92 velocity=0 time=0.04556358333333333
EXTRACT: control_change channel=4 control=11 value=110 time=0.10551566666666666
EXTRACT: note_on channel=3 note=70 velocity=0 time=0.035971249999999996
EXTRACT: note_on channel=3 note=58 velocity=0 time=0
EXTRACT: note_on channel=13 note=85 velocity=110 time=0.057553999999999994
EXTRACT: note_on channel=13 note=85 velocity=0 time=0.06474825
EXTRACT: pitchwheel channel=13 pitch=-128 time=0.057553999999999994
EXTRACT: note_on channel=13 note=87 velocity=127 time=0
EXTRACT: pitchwheel channel=13 pitch=-64 time=0.007194249999999999
EXTRACT: pitchwheel channel=13 pitch=0 time=0.007194249999999999
EXTRACT: pitchwheel channel=13 pitch=96 time=0.007194249999999999
EXTRACT: pitchwheel channel=13 pitch=0 time=0.04076741666666667
EXTRACT: pitchwheel channel=13 pitch=-64 time=0.007194249999999999
EXTRACT: pitchwheel channel=13 pitch=-224 time=0.007194249999999999
EXTRACT: control_change channel=4 control=11 value=112 time=0.0047961666666666665
EXTRACT: note_on channel=3 note=59 velocity=91 time=0.0047961666666666665
EXTRACT: note_on channel=3 note=71 velocity=126 time=0
EXTRACT: control_change channel=8 control=11 value=63 time=0
EXTRACT: pitchwheel channel=8 pitch=-2400 time=0
EXTRACT: note_on channel=8 note=37 velocity=91 time=0
EXTRACT: pitchwheel channel=7 pitch=-2720 time=0.0023980833333333332
EXTRACT: note_on channel=7 note=49 velocity=104 time=0
EXTRACT: note_on channel=6 note=61 velocity=114 time=0.0023980833333333332
EXTRACT: pitchwheel channel=6 pitch=-2720 time=0
EXTRACT: control_change channel=8 control=11 value=95 time=0.0023980833333333332
EXTRACT: pitchwheel channel=8 pitch=-2272 time=0
EXTRACT: note_on channel=13 note=87 velocity=0 time=0
EXTRACT: note_on channel=4 note=66 velocity=104 time=0.0023980833333333332
EXTRACT: note_on channel=4 note=78 velocity=110 time=0
EXTRACT: control_change channel=7 control=11 value=92 time=0
EXTRACT: pitchwheel channel=7 pitch=-2560 time=0
EXTRACT: control_change channel=6 control=11 value=92 time=0.0023980833333333332
EXTRACT: pitchwheel channel=6 pitch=-2560 time=0
EXTRACT: note_on channel=4 note=76 velocity=0 time=0.0023980833333333332
EXTRACT: note_on channel=4 note=64 velocity=0 time=0
EXTRACT: pitchwheel channel=8 pitch=-2144 time=0
EXTRACT: control_change channel=8 control=11 value=108 time=0
EXTRACT: note_on channel=11 note=49 velocity=127 time=0
EXTRACT: note_on channel=15 note=92 velocity=99 time=0
EXTRACT: pitchwheel channel=7 pitch=-2400 time=0.0023980833333333332
EXTRACT: pitchwheel channel=6 pitch=-2400 time=0.0023980833333333332
EXTRACT: control_change channel=8 control=11 value=114 time=0.0023980833333333332
EXTRACT: pitchwheel channel=8 pitch=-2016 time=0
EXTRACT: control_change channel=7 control=11 value=115 time=0.0023980833333333332
EXTRACT: pitchwheel channel=7 pitch=-2272 time=0
EXTRACT: control_change channel=6 control=11 value=115 time=0.0023980833333333332
EXTRACT: pitchwheel channel=6 pitch=-2272 time=0
EXTRACT: pitchwheel channel=8 pitch=-1856 time=0.0047961666666666665
EXTRACT: control_change channel=8 control=11 value=119 time=0
EXTRACT: pitchwheel channel=7 pitch=-2112 time=0.0023980833333333332
EXTRACT: pitchwheel channel=6 pitch=-2112 time=0.0023980833333333332
EXTRACT: pitchwheel channel=8 pitch=-1696 time=0.0023980833333333332
EXTRACT: control_change channel=8 control=11 value=123 time=0
EXTRACT: control_change channel=7 control=11 value=125 time=0.0023980833333333332
EXTRACT: pitchwheel channel=7 pitch=-1920 time=0
EXTRACT: pitchwheel channel=13 pitch=480 time=0
EXTRACT: note_on channel=13 note=85 velocity=100 time=0
EXTRACT: control_change channel=6 control=11 value=125 time=0.0023980833333333332
EXTRACT: pitchwheel channel=6 pitch=-1920 time=0
EXTRACT: pitchwheel channel=8 pitch=-1504 time=0.0023980833333333332
EXTRACT: note_on channel=11 note=49 velocity=0 time=0
EXTRACT: control_change channel=7 control=11 value=127 time=0.0023980833333333332
EXTRACT: pitchwheel channel=7 pitch=-1696 time=0
EXTRACT: control_change channel=6 control=11 value=127 time=0.0023980833333333332
EXTRACT: pitchwheel channel=6 pitch=-1696 time=0
EXTRACT: pitchwheel channel=13 pitch=0 time=0
EXTRACT: control_change channel=8 control=11 value=126 time=0.0023980833333333332
EXTRACT: pitchwheel channel=8 pitch=-1248 time=0
EXTRACT: pitchwheel channel=7 pitch=-1408 time=0.0023980833333333332
EXTRACT: pitchwheel channel=6 pitch=-1408 time=0.0023980833333333332
EXTRACT: pitchwheel channel=13 pitch=-288 time=0
EXTRACT: pitchwheel channel=8 pitch=-992 time=0.0047961666666666665
EXTRACT: pitchwheel channel=7 pitch=-1120 time=0.0023980833333333332
EXTRACT: pitchwheel channel=6 pitch=-1120 time=0.0023980833333333332
EXTRACT: pitchwheel channel=8 pitch=-800 time=0.0023980833333333332
EXTRACT: pitchwheel channel=7 pitch=-928 time=0.0023980833333333332
EXTRACT: pitchwheel channel=6 pitch=-928 time=0.0023980833333333332
EXTRACT: pitchwheel channel=8 pitch=-640 time=0.0023980833333333332
EXTRACT: note_on channel=15 note=92 velocity=0 time=0
EXTRACT: pitchwheel channel=7 pitch=-704 time=0.0023980833333333332
EXTRACT: pitchwheel channel=6 pitch=-704 time=0.0023980833333333332
EXTRACT: pitchwheel channel=8 pitch=-480 time=0.0023980833333333332
EXTRACT: pitchwheel channel=7 pitch=-544 time=0.0023980833333333332
EXTRACT: pitchwheel channel=6 pitch=-544 time=0.0023980833333333332
EXTRACT: pitchwheel channel=8 pitch=-416 time=0.0047961666666666665
EXTRACT: pitchwheel channel=7 pitch=-480 time=0.0023980833333333332
EXTRACT: pitchwheel channel=6 pitch=-480 time=0.0023980833333333332
EXTRACT: pitchwheel channel=8 pitch=-320 time=0.0023980833333333332
EXTRACT: pitchwheel channel=7 pitch=-352 time=0.0023980833333333332
EXTRACT: pitchwheel channel=6 pitch=-352 time=0.0023980833333333332
EXTRACT: pitchwheel channel=8 pitch=-224 time=0.0023980833333333332
EXTRACT: pitchwheel channel=7 pitch=-256 time=0.0023980833333333332
EXTRACT: pitchwheel channel=6 pitch=-256 time=0.0023980833333333332
EXTRACT: pitchwheel channel=8 pitch=-160 time=0.0023980833333333332
EXTRACT: pitchwheel channel=7 pitch=-192 time=0.0023980833333333332
EXTRACT: pitchwheel channel=6 pitch=-192 time=0.0023980833333333332
EXTRACT: control_change channel=8 control=11 value=124 time=0.0047961666666666665
EXTRACT: note_on channel=13 note=85 velocity=0 time=0
EXTRACT: pitchwheel channel=7 pitch=-128 time=0.0023980833333333332
EXTRACT: pitchwheel channel=6 pitch=-128 time=0.0023980833333333332
EXTRACT: control_change channel=8 control=11 value=122 time=0.0023980833333333332
EXTRACT: pitchwheel channel=8 pitch=-64 time=0
EXTRACT: control_change channel=7 control=11 value=125 time=0.0023980833333333332
EXTRACT: control_change channel=6 control=11 value=125 time=0.0023980833333333332
EXTRACT: pitchwheel channel=8 pitch=0 time=0.0023980833333333332
EXTRACT: control_change channel=8 control=11 value=120 time=0
EXTRACT: pitchwheel channel=7 pitch=0 time=0.0023980833333333332
EXTRACT: pitchwheel channel=6 pitch=0 time=0.0023980833333333332
EXTRACT: control_change channel=8 control=11 value=118 time=0.0047961666666666665
EXTRACT: control_change channel=7 control=11 value=119 time=0.0023980833333333332
EXTRACT: control_change channel=6 control=11 value=119 time=0.0023980833333333332
EXTRACT: control_change channel=8 control=11 value=115 time=0.0023980833333333332
EXTRACT: control_change channel=8 control=11 value=112 time=0.007194249999999999
EXTRACT: control_change channel=7 control=11 value=113 time=0.0023980833333333332
EXTRACT: control_change channel=6 control=11 value=113 time=0.0023980833333333332
EXTRACT: pitchwheel channel=13 pitch=-1344 time=0.0023980833333333332
EXTRACT: note_on channel=13 note=87 velocity=106 time=0
EXTRACT: pitchwheel channel=13 pitch=-288 time=0.007194249999999999
EXTRACT: control_change channel=8 control=11 value=108 time=0.0023980833333333332
EXTRACT: control_change channel=7 control=11 value=108 time=0.0023980833333333332
EXTRACT: control_change channel=6 control=11 value=108 time=0.0023980833333333332
EXTRACT: control_change channel=8 control=11 value=106 time=0.0023980833333333332
EXTRACT: pitchwheel channel=13 pitch=96 time=0
EXTRACT: control_change channel=8 control=11 value=104 time=0.007194249999999999
EXTRACT: control_change channel=7 control=11 value=102 time=0.0023980833333333332
EXTRACT: control_change channel=6 control=11 value=102 time=0.0023980833333333332
EXTRACT: control_change channel=8 control=11 value=102 time=0.0023980833333333332
EXTRACT: control_change channel=8 control=11 value=100 time=0.009592333333333333
EXTRACT: control_change channel=7 control=11 value=97 time=0.0023980833333333332
EXTRACT: control_change channel=6 control=11 value=97 time=0.0023980833333333332
EXTRACT: control_change channel=8 control=11 value=97 time=0.0023980833333333332
EXTRACT: control_change channel=8 control=11 value=94 time=0.007194249999999999
EXTRACT: control_change channel=7 control=11 value=90 time=0.0023980833333333332
EXTRACT: control_change channel=6 control=11 value=90 time=0.0023980833333333332
EXTRACT: control_change channel=8 control=11 value=92 time=0.0023980833333333332
EXTRACT: control_change channel=8 control=11 value=90 time=0.009592333333333333
EXTRACT: control_change channel=7 control=11 value=85 time=0.0023980833333333332
EXTRACT: control_change channel=6 control=11 value=85 time=0.0023980833333333332
EXTRACT: pitchwheel channel=13 pitch=0 time=0.0023980833333333332
EXTRACT: control_change channel=8 control=11 value=87 time=0.007194249999999999
EXTRACT: control_change channel=7 control=11 value=81 time=0.0023980833333333332
EXTRACT: control_change channel=6 control=11 value=81 time=0.0023980833333333332
EXTRACT: control_change channel=8 control=11 value=84 time=0.0023980833333333332
EXTRACT: note_on channel=13 note=87 velocity=0 time=0
EXTRACT: control_change channel=7 control=11 value=76 time=0.011990416666666667
EXTRACT: control_change channel=6 control=11 value=76 time=0.0023980833333333332
EXTRACT: control_change channel=8 control=11 value=81 time=0.0023980833333333332
EXTRACT: note_on channel=13 note=85 velocity=110 time=0.0023980833333333332
EXTRACT: control_change channel=8 control=11 value=79 time=0.0047961666666666665
EXTRACT: control_change channel=7 control=11 value=71 time=0.0023980833333333332
EXTRACT: control_change channel=6 control=11 value=71 time=0.0023980833333333332
EXTRACT: control_change channel=8 control=11 value=77 time=0.0023980833333333332
EXTRACT: control_change channel=8 control=11 value=75 time=0.009592333333333333
EXTRACT: control_change channel=4 control=11 value=114 time=0.0023980833333333332
EXTRACT: control_change channel=7 control=11 value=67 time=0
EXTRACT: control_change channel=6 control=11 value=67 time=0.0023980833333333332
EXTRACT: control_change channel=8 control=11 value=73 time=0.009592333333333333
EXTRACT: control_change channel=7 control=11 value=64 time=0.0023980833333333332
EXTRACT: control_change channel=6 control=11 value=64 time=0.0023980833333333332
EXTRACT: control_change channel=8 control=11 value=70 time=0.026378916666666665
EXTRACT: control_change channel=7 control=11 value=61 time=0.0023980833333333332
EXTRACT: control_change channel=6 control=11 value=61 time=0.0023980833333333332
EXTRACT: note_on channel=13 note=85 velocity=0 time=0.021582749999999998
EXTRACT: pitchwheel channel=13 pitch=-96 time=0.031175083333333332
EXTRACT: note_on channel=13 note=87 velocity=127 time=0
EXTRACT: pitchwheel channel=13 pitch=0 time=0.009592333333333333
EXTRACT: pitchwheel channel=13 pitch=64 time=0.014388499999999999
EXTRACT: note_on channel=3 note=71 velocity=0 time=0.007194249999999999
EXTRACT: note_on channel=3 note=59 velocity=0 time=0
EXTRACT: note_on channel=3 note=58 velocity=89 time=0.016786583333333334
EXTRACT: note_on channel=3 note=70 velocity=122 time=0
EXTRACT: note_on channel=15 note=94 velocity=80 time=0.007194249999999999
EXTRACT: control_change channel=8 control=1 value=7 time=0.0047961666666666665
EXTRACT: control_change channel=7 control=1 value=7 time=0.0023980833333333332
EXTRACT: pitchwheel channel=13 pitch=0 time=0
EXTRACT: control_change channel=6 control=1 value=7 time=0.0023980833333333332
EXTRACT: pitchwheel channel=13 pitch=-128 time=0.007194249999999999
EXTRACT: note_on channel=11 note=44 velocity=127 time=0.0023980833333333332
EXTRACT: control_change channel=8 control=11 value=72 time=0.009592333333333333
EXTRACT: pitchwheel channel=13 pitch=0 time=0.0023980833333333332
EXTRACT: note_on channel=13 note=87 velocity=0 time=0.0023980833333333332
EXTRACT: control_change channel=8 control=11 value=74 time=0.009592333333333333
EXTRACT: control_change channel=7 control=11 value=65 time=0.0023980833333333332
EXTRACT: control_change channel=6 control=11 value=65 time=0.0023980833333333332
EXTRACT: pitchwheel channel=13 pitch=384 time=0
EXTRACT: note_on channel=13 note=85 velocity=108 time=0
EXTRACT: note_on channel=11 note=44 velocity=0 time=0.0023980833333333332
EXTRACT: pitchwheel channel=13 pitch=0 time=0.0047961666666666665
EXTRACT: control_change channel=8 control=11 value=76 time=0.0047961666666666665
EXTRACT: control_change channel=8 control=1 value=13 time=0.0023980833333333332
EXTRACT: pitchwheel channel=13 pitch=-224 time=0
EXTRACT: control_change channel=7 control=1 value=13 time=0.0023980833333333332
EXTRACT: control_change channel=6 control=1 value=13 time=0.0023980833333333332
EXTRACT: control_change channel=8 control=11 value=78 time=0.007194249999999999
EXTRACT: control_change channel=7 control=11 value=70 time=0.0023980833333333332
EXTRACT: control_change channel=6 control=11 value=70 time=0.0023980833333333332
EXTRACT: control_change channel=8 control=11 value=80 time=0.0047961666666666665
EXTRACT: note_on channel=15 note=94 velocity=0 time=0.0047961666666666665
EXTRACT: control_change channel=8 control=11 value=82 time=0.009592333333333333
EXTRACT: control_change channel=7 control=11 value=75 time=0.0023980833333333332
EXTRACT: control_change channel=6 control=11 value=75 time=0.0023980833333333332
EXTRACT: control_change channel=8 control=11 value=84 time=0.0023980833333333332
EXTRACT: control_change channel=7 control=11 value=79 time=0.011990416666666667
EXTRACT: control_change channel=6 control=11 value=79 time=0.0023980833333333332
EXTRACT: control_change channel=8 control=11 value=86 time=0.0023980833333333332
EXTRACT: control_change channel=8 control=1 value=23 time=0
EXTRACT: control_change channel=7 control=1 value=23 time=0.0023980833333333332
EXTRACT: control_change channel=6 control=1 value=23 time=0.0023980833333333332
EXTRACT: note_on channel=3 note=70 velocity=0 time=0.0047961666666666665
EXTRACT: note_on channel=3 note=58 velocity=0 time=0
EXTRACT: control_change channel=8 control=11 value=89 time=0.0047961666666666665
EXTRACT: control_change channel=7 control=11 value=84 time=0.0023980833333333332
EXTRACT: control_change channel=6 control=11 value=84 time=0.0023980833333333332
EXTRACT: note_on channel=13 note=85 velocity=0 time=0
EXTRACT: control_change channel=8 control=11 value=91 time=0.0047961666666666665
EXTRACT: control_change channel=7 control=11 value=88 time=0.009592333333333333
EXTRACT: control_change channel=6 control=11 value=88 time=0.0023980833333333332
EXTRACT: control_change channel=8 control=11 value=93 time=0.0023980833333333332
EXTRACT: control_change channel=8 control=11 value=95 time=0.007194249999999999
EXTRACT: pitchwheel channel=13 pitch=-1056 time=0.0047961666666666665
EXTRACT: note_on channel=13 note=87 velocity=106 time=0
EXTRACT: control_change channel=7 control=11 value=93 time=0.007194249999999999
EXTRACT: control_change channel=8 control=1 value=39 time=0
EXTRACT: pitchwheel channel=13 pitch=-224 time=0
EXTRACT: control_change channel=6 control=11 value=93 time=0.0023980833333333332
EXTRACT: control_change channel=7 control=1 value=39 time=0
EXTRACT: control_change channel=6 control=1 value=39 time=0.0023980833333333332
EXTRACT: control_change channel=8 control=11 value=98 time=0
EXTRACT: pitchwheel channel=13 pitch=64 time=0.0023980833333333332
EXTRACT: control_change channel=8 control=1 value=63 time=0.05275783333333333
EXTRACT: control_change channel=7 control=1 value=63 time=0.0023980833333333332
EXTRACT: control_change channel=6 control=1 value=63 time=0.0023980833333333332
EXTRACT: note_on channel=3 note=58 velocity=90 time=0.0023980833333333332
EXTRACT: note_on channel=3 note=70 velocity=124 time=0
EXTRACT: pitchwheel channel=13 pitch=0 time=0.0023980833333333332
EXTRACT: control_change channel=8 control=11 value=95 time=0.0047961666666666665
EXTRACT: control_change channel=7 control=11 value=92 time=0.0023980833333333332
EXTRACT: note_on channel=13 note=87 velocity=0 time=0
EXTRACT: control_change channel=6 control=11 value=92 time=0.0023980833333333332
EXTRACT: control_change channel=8 control=11 value=93 time=0.0023980833333333332
EXTRACT: control_change channel=8 control=11 value=91 time=0.009592333333333333
EXTRACT: control_change channel=7 control=11 value=87 time=0.0023980833333333332
EXTRACT: control_change channel=13 control=11 value=96 time=0
EXTRACT: note_on channel=13 note=85 velocity=106 time=0
EXTRACT: control_change channel=6 control=11 value=87 time=0.0023980833333333332
EXTRACT: control_change channel=8 control=11 value=89 time=0.0023980833333333332
EXTRACT: control_change channel=8 control=11 value=86 time=0.007194249999999999
EXTRACT: note_on channel=15 note=92 velocity=99 time=0
EXTRACT: control_change channel=7 control=11 value=80 time=0.0023980833333333332
EXTRACT: control_change channel=6 control=11 value=80 time=0.0023980833333333332
EXTRACT: control_change channel=8 control=11 value=84 time=0.0023980833333333332
EXTRACT: control_change channel=8 control=1 value=70 time=0.0047961666666666665
EXTRACT: control_change channel=7 control=1 value=70 time=0.0023980833333333332
EXTRACT: control_change channel=6 control=1 value=70 time=0.0023980833333333332
EXTRACT: control_change channel=8 control=11 value=82 time=0
EXTRACT: control_change channel=7 control=11 value=75 time=0.0023980833333333332
EXTRACT: control_change channel=6 control=11 value=75 time=0.0023980833333333332
EXTRACT: control_change channel=8 control=11 value=80 time=0.0023980833333333332
EXTRACT: control_change channel=8 control=11 value=76 time=0.014388499999999999
EXTRACT: control_change channel=7 control=11 value=68 time=0.0023980833333333332
EXTRACT: control_change channel=6 control=11 value=68 time=0.0023980833333333332
EXTRACT: control_change channel=8 control=11 value=74 time=0.0047961666666666665
EXTRACT: control_change channel=8 control=11 value=72 time=0.007194249999999999
EXTRACT: control_change channel=7 control=11 value=63 time=0.0023980833333333332
EXTRACT: control_change channel=6 control=11 value=63 time=0.0023980833333333332
EXTRACT: note_on channel=15 note=92 velocity=0 time=0.0023980833333333332
EXTRACT: pitchwheel channel=13 pitch=288 time=0.035971249999999996
EXTRACT: note_on channel=13 note=85 velocity=0 time=0.0047961666666666665
EXTRACT: pitchwheel channel=13 pitch=-2176 time=0.0023980833333333332
EXTRACT: control_change channel=13 control=11 value=101 time=0
EXTRACT: note_on channel=13 note=87 velocity=123 time=0
EXTRACT: control_change channel=8 control=11 value=74 time=0.0047961666666666665
EXTRACT: pitchwheel channel=13 pitch=-608 time=0.0023980833333333332
EXTRACT: control_change channel=13 control=11 value=104 time=0
EXTRACT: control_change channel=8 control=11 value=77 time=0.0047961666666666665
EXTRACT: control_change channel=7 control=11 value=69 time=0.0023980833333333332
EXTRACT: control_change channel=6 control=11 value=69 time=0.0023980833333333332
EXTRACT: pitchwheel channel=13 pitch=0 time=0
EXTRACT: control_change channel=8 control=1 value=64 time=0.007194249999999999
EXTRACT: pitchwheel channel=13 pitch=64 time=0
EXTRACT: control_change channel=7 control=1 value=64 time=0.0023980833333333332
EXTRACT: control_change channel=6 control=1 value=64 time=0.0023980833333333332
EXTRACT: control_change channel=8 control=11 value=80 time=0
EXTRACT: control_change channel=7 control=11 value=73 time=0.0023980833333333332
EXTRACT: control_change channel=6 control=11 value=73 time=0.0023980833333333332
EXTRACT: control_change channel=8 control=11 value=82 time=0.009592333333333333
EXTRACT: control_change channel=8 control=11 value=85 time=0.007194249999999999
EXTRACT: control_change channel=7 control=11 value=79 time=0.0023980833333333332
EXTRACT: control_change channel=6 control=11 value=79 time=0.0023980833333333332
EXTRACT: control_change channel=8 control=11 value=88 time=0.0047961666666666665
EXTRACT: control_change channel=8 control=11 value=91 time=0.007194249999999999
EXTRACT: control_change channel=7 control=11 value=86 time=0.0023980833333333332
EXTRACT: pitchwheel channel=13 pitch=0 time=0
EXTRACT: control_change channel=6 control=11 value=86 time=0.0023980833333333332
EXTRACT: control_change channel=8 control=11 value=93 time=0.0023980833333333332
EXTRACT: control_change channel=4 control=11 value=112 time=0.0047961666666666665
EXTRACT: pitchwheel channel=13 pitch=-64 time=0
EXTRACT: pitchwheel channel=8 pitch=-64 time=0.0023980833333333332
EXTRACT: control_change channel=8 control=1 value=42 time=0
EXTRACT: control_change channel=7 control=11 value=90 time=0.0023980833333333332
EXTRACT: pitchwheel channel=7 pitch=-64 time=0
EXTRACT: control_change channel=7 control=1 value=42 time=0
EXTRACT: control_change channel=6 control=11 value=90 time=0.0023980833333333332
EXTRACT: pitchwheel channel=6 pitch=-64 time=0
EXTRACT: control_change channel=6 control=1 value=42 time=0
EXTRACT: pitchwheel channel=13 pitch=-128 time=0
EXTRACT: note_on channel=4 note=66 velocity=0 time=0.0047961666666666665
EXTRACT: note_on channel=4 note=78 velocity=0 time=0
EXTRACT: control_change channel=8 control=11 value=96 time=0
EXTRACT: pitchwheel channel=13 pitch=-256 time=0.0023980833333333332
EXTRACT: note_on channel=11 note=49 velocity=127 time=0.0023980833333333332
EXTRACT: note_on channel=4 note=68 velocity=106 time=0.0023980833333333332
EXTRACT: note_on channel=4 note=80 velocity=113 time=0
EXTRACT: control_change channel=8 control=11 value=99 time=0
EXTRACT: control_change channel=7 control=11 value=96 time=0.0023980833333333332
EXTRACT: pitchwheel channel=13 pitch=-1664 time=0
EXTRACT: control_change channel=6 control=11 value=96 time=0.0023980833333333332
EXTRACT: control_change channel=8 control=11 value=101 time=0.0023980833333333332
EXTRACT: note_on channel=13 note=87 velocity=0 time=0.0023980833333333332
EXTRACT: pitchwheel channel=13 pitch=960 time=0.0023980833333333332
EXTRACT: control_change channel=13 control=11 value=100 time=0
EXTRACT: note_on channel=13 note=85 velocity=127 time=0
EXTRACT: control_change channel=8 control=11 value=103 time=0.0023980833333333332
EXTRACT: control_change channel=7 control=11 value=101 time=0.0023980833333333332
EXTRACT: control_change channel=6 control=11 value=101 time=0.0023980833333333332
EXTRACT: control_change channel=13 control=11 value=98 time=0
EXTRACT: pitchwheel channel=13 pitch=224 time=0
EXTRACT: control_change channel=8 control=11 value=105 time=0.0047961666666666665
EXTRACT: pitchwheel channel=13 pitch=-256 time=0.0023980833333333332
EXTRACT: note_on channel=11 note=49 velocity=0 time=0.0023980833333333332
EXTRACT: control_change channel=8 control=11 value=107 time=0.0023980833333333332
EXTRACT: control_change channel=7 control=11 value=106 time=0.0023980833333333332
EXTRACT: control_change channel=6 control=11 value=106 time=0.0023980833333333332
EXTRACT: control_change channel=8 control=11 value=109 time=0.0023980833333333332
EXTRACT: control_change channel=8 control=1 value=22 time=0.0047961666666666665
EXTRACT: control_change channel=7 control=1 value=22 time=0.0023980833333333332
EXTRACT: control_change channel=8 control=11 value=112 time=0
EXTRACT: control_change channel=6 control=1 value=22 time=0.0023980833333333332
EXTRACT: control_change channel=7 control=11 value=112 time=0
EXTRACT: control_change channel=6 control=11 value=112 time=0.0023980833333333332
EXTRACT: control_change channel=8 control=11 value=114 time=0.0047961666666666665
EXTRACT: control_change channel=7 control=11 value=116 time=0.009592333333333333
EXTRACT: control_change channel=6 control=11 value=116 time=0.0023980833333333332
EXTRACT: control_change channel=8 control=11 value=117 time=0.0023980833333333332
EXTRACT: pitchwheel channel=7 pitch=-128 time=0.0023980833333333332
EXTRACT: pitchwheel channel=6 pitch=-128 time=0.0023980833333333332
EXTRACT: control_change channel=8 control=11 value=120 time=0.0023980833333333332
EXTRACT: pitchwheel channel=8 pitch=-128 time=0
EXTRACT: control_change channel=7 control=11 value=122 time=0.0023980833333333332
EXTRACT: control_change channel=6 control=11 value=122 time=0.0023980833333333332
EXTRACT: control_change channel=8 control=11 value=122 time=0.0047961666666666665
EXTRACT: control_change channel=8 control=11 value=125 time=0.007194249999999999
EXTRACT: control_change channel=7 control=11 value=127 time=0.0023980833333333332
EXTRACT: control_change channel=13 control=11 value=100 time=0
EXTRACT: pitchwheel channel=13 pitch=-384 time=0
EXTRACT: control_change channel=6 control=11 value=127 time=0.0023980833333333332
EXTRACT: control_change channel=8 control=1 value=6 time=0.0023980833333333332
EXTRACT: control_change channel=8 control=11 value=127 time=0
EXTRACT: pitchwheel channel=8 pitch=-192 time=0
EXTRACT: note_on channel=13 note=85 velocity=0 time=0
EXTRACT: pitchwheel channel=7 pitch=-224 time=0.0023980833333333332
EXTRACT: control_change channel=7 control=1 value=6 time=0
EXTRACT: pitchwheel channel=6 pitch=-224 time=0.0023980833333333332
EXTRACT: control_change channel=6 control=1 value=6 time=0
EXTRACT: pitchwheel channel=8 pitch=-256 time=0.011990416666666667
EXTRACT: pitchwheel channel=7 pitch=-288 time=0.0023980833333333332
EXTRACT: pitchwheel channel=6 pitch=-288 time=0.0023980833333333332
EXTRACT: note_on channel=3 note=70 velocity=0 time=0.011990416666666667
EXTRACT: note_on channel=3 note=58 velocity=0 time=0
EXTRACT: control_change channel=4 control=11 value=110 time=0.0023980833333333332
EXTRACT: note_on channel=6 note=61 velocity=0 time=0.007194249999999999
EXTRACT: note_on channel=8 note=37 velocity=0 time=0
EXTRACT: control_change channel=8 control=11 value=107 time=0
EXTRACT: pitchwheel channel=8 pitch=0 time=0
EXTRACT: control_change channel=8 control=1 value=0 time=0
EXTRACT: note_on channel=7 note=49 velocity=0 time=0.0023980833333333332
EXTRACT: control_change channel=7 control=1 value=0 time=0
EXTRACT: pitchwheel channel=7 pitch=0 time=0
EXTRACT: control_change channel=6 control=1 value=0 time=0.0023980833333333332
EXTRACT: pitchwheel channel=6 pitch=0 time=0
EXTRACT: note_on channel=3 note=56 velocity=89 time=0.050359749999999995
EXTRACT: note_on channel=3 note=68 velocity=122 time=0
EXTRACT: note_on channel=15 note=94 velocity=72 time=0.055155916666666666
EXTRACT: control_change channel=4 control=11 value=108 time=0.04556358333333333
EXTRACT: note_on channel=3 note=68 velocity=0 time=0.043165499999999996
EXTRACT: note_on channel=3 note=56 velocity=0 time=0
EXTRACT: note_on channel=15 note=94 velocity=0 time=0.0047961666666666665
EXTRACT: note_on channel=3 note=56 velocity=85 time=0.09352524999999999
EXTRACT: note_on channel=3 note=68 velocity=118 time=0
EXTRACT: note_on channel=11 note=44 velocity=127 time=0.026378916666666665
EXTRACT: note_on channel=9 note=57 velocity=78 time=0.0047961666666666665
EXTRACT: control_change channel=13 control=11 value=77 time=0.011990416666666667
EXTRACT: pitchwheel channel=13 pitch=-5216 time=0
EXTRACT: note_on channel=13 note=88 velocity=98 time=0
EXTRACT: control_change channel=13 control=11 value=92 time=0.007194249999999999
EXTRACT: pitchwheel channel=13 pitch=-4096 time=0
EXTRACT: note_on channel=15 note=92 velocity=106 time=0.0023980833333333332
EXTRACT: note_on channel=11 note=44 velocity=0 time=0.0047961666666666665
EXTRACT: pitchwheel channel=13 pitch=-2880 time=0
EXTRACT: control_change channel=13 control=11 value=110 time=0
EXTRACT: control_change channel=13 control=11 value=118 time=0.007194249999999999
EXTRACT: pitchwheel channel=13 pitch=-1536 time=0
EXTRACT: control_change channel=4 control=11 value=106 time=0.0047961666666666665
EXTRACT: pitchwheel channel=13 pitch=-288 time=0.0047961666666666665
EXTRACT: control_change channel=13 control=11 value=124 time=0
EXTRACT: pitchwheel channel=13 pitch=576 time=0.007194249999999999
EXTRACT: note_on channel=9 note=57 velocity=0 time=0.007194249999999999
EXTRACT: pitchwheel channel=13 pitch=1248 time=0
EXTRACT: pitchwheel channel=13 pitch=1344 time=0.007194249999999999
EXTRACT: pitchwheel channel=13 pitch=1408 time=0.009592333333333333
EXTRACT: control_change channel=13 control=11 value=122 time=0
EXTRACT: control_change channel=13 control=11 value=118 time=0.007194249999999999
EXTRACT: note_on channel=15 note=92 velocity=0 time=0.0047961666666666665
EXTRACT: control_change channel=13 control=11 value=113 time=0.0023980833333333332
EXTRACT: pitchwheel channel=13 pitch=1152 time=0
EXTRACT: pitchwheel channel=13 pitch=736 time=0.007194249999999999
EXTRACT: control_change channel=13 control=11 value=106 time=0
EXTRACT: pitchwheel channel=13 pitch=384 time=0.009592333333333333
EXTRACT: control_change channel=13 control=11 value=101 time=0
EXTRACT: pitchwheel channel=13 pitch=64 time=0.007194249999999999
EXTRACT: control_change channel=13 control=11 value=98 time=0
EXTRACT: note_on channel=3 note=68 velocity=0 time=0.007194249999999999
EXTRACT: note_on channel=3 note=56 velocity=0 time=0
EXTRACT: pitchwheel channel=13 pitch=-192 time=0
EXTRACT: control_change channel=13 control=11 value=94 time=0
EXTRACT: pitchwheel channel=13 pitch=-448 time=0.007194249999999999
EXTRACT: control_change channel=13 control=11 value=91 time=0
EXTRACT: pitchwheel channel=13 pitch=-704 time=0.009592333333333333
EXTRACT: control_change channel=13 control=11 value=85 time=0
EXTRACT: pitchwheel channel=13 pitch=-800 time=0.007194249999999999
EXTRACT: control_change channel=13 control=11 value=82 time=0
EXTRACT: control_change channel=13 control=11 value=78 time=0.007194249999999999
EXTRACT: pitchwheel channel=13 pitch=-704 time=0.016786583333333334
EXTRACT: control_change channel=13 control=11 value=73 time=0
EXTRACT: pitchwheel channel=13 pitch=-448 time=0.007194249999999999
EXTRACT: control_change channel=13 control=11 value=71 time=0
EXTRACT: pitchwheel channel=13 pitch=0 time=0.007194249999999999
EXTRACT: control_change channel=13 control=11 value=68 time=0
EXTRACT: control_change channel=13 control=11 value=65 time=0.007194249999999999
EXTRACT: pitchwheel channel=13 pitch=192 time=0
EXTRACT: pitchwheel channel=13 pitch=544 time=0.009592333333333333
EXTRACT: pitchwheel channel=13 pitch=896 time=0.007194249999999999
EXTRACT: note_on channel=8 note=37 velocity=94 time=0.007194249999999999
EXTRACT: pitchwheel channel=13 pitch=992 time=0
EXTRACT: note_on channel=7 note=49 velocity=104 time=0.0023980833333333332
EXTRACT: note_on channel=6 note=61 velocity=112 time=0.0023980833333333332
EXTRACT: pitchwheel channel=13 pitch=736 time=0.011990416666666667
EXTRACT: pitchwheel channel=13 pitch=480 time=0.007194249999999999
EXTRACT: pitchwheel channel=13 pitch=128 time=0.007194249999999999
EXTRACT: control_change channel=13 control=11 value=63 time=0
EXTRACT: pitchwheel channel=13 pitch=-192 time=0.007194249999999999
EXTRACT: pitchwheel channel=13 pitch=-640 time=0.009592333333333333
EXTRACT: control_change channel=13 control=11 value=60 time=0
EXTRACT: control_change channel=13 control=11 value=58 time=0.007194249999999999
EXTRACT: note_on channel=8 note=37 velocity=0 time=0.016786583333333334
EXTRACT: note_on channel=7 note=49 velocity=0 time=0.0023980833333333332
EXTRACT: note_on channel=6 note=61 velocity=0 time=0.0023980833333333332
EXTRACT: pitchwheel channel=13 pitch=-448 time=0.0023980833333333332
EXTRACT: pitchwheel channel=13 pitch=-192 time=0.007194249999999999
EXTRACT: pitchwheel channel=13 pitch=64 time=0.007194249999999999
EXTRACT: pitchwheel channel=13 pitch=192 time=0.009592333333333333
EXTRACT: pitchwheel channel=13 pitch=288 time=0.007194249999999999
EXTRACT: control_change channel=13 control=11 value=60 time=0.014388499999999999
EXTRACT: control_change channel=13 control=11 value=63 time=0.009592333333333333
EXTRACT: control_change channel=13 control=11 value=68 time=0.007194249999999999
EXTRACT: pitchwheel channel=13 pitch=192 time=0
EXTRACT: control_change channel=13 control=11 value=70 time=0.007194249999999999
EXTRACT: pitchwheel channel=13 pitch=128 time=0
EXTRACT: pitchwheel channel=13 pitch=0 time=0.007194249999999999
EXTRACT: control_change channel=13 control=11 value=73 time=0.009592333333333333
EXTRACT: control_change channel=13 control=11 value=75 time=0.007194249999999999
EXTRACT: pitchwheel channel=13 pitch=-96 time=0
EXTRACT: control_change channel=13 control=11 value=77 time=0.007194249999999999
EXTRACT: pitchwheel channel=13 pitch=-224 time=0
EXTRACT: pitchwheel channel=13 pitch=-320 time=0.007194249999999999
EXTRACT: pitchwheel channel=13 pitch=-416 time=0.009592333333333333
EXTRACT: control_change channel=13 control=11 value=80 time=0.007194249999999999
EXTRACT: pitchwheel channel=13 pitch=-480 time=0
EXTRACT: pitchwheel channel=13 pitch=-672 time=0.007194249999999999
EXTRACT: control_change channel=13 control=11 value=84 time=0
EXTRACT: control_change channel=13 control=11 value=87 time=0.007194249999999999
EXTRACT: pitchwheel channel=13 pitch=-832 time=0
EXTRACT: pitchwheel channel=13 pitch=-1024 time=0.009592333333333333
EXTRACT: control_change channel=13 control=11 value=91 time=0
EXTRACT: control_change channel=8 control=11 value=111 time=0.007194249999999999
EXTRACT: pitchwheel channel=8 pitch=-2752 time=0
EXTRACT: note_on channel=8 note=39 velocity=95 time=0
EXTRACT: pitchwheel channel=13 pitch=-1088 time=0
EXTRACT: control_change channel=7 control=11 value=113 time=0.0023980833333333332
EXTRACT: pitchwheel channel=7 pitch=-2272 time=0
EXTRACT: note_on channel=7 note=51 velocity=108 time=0
EXTRACT: note_on channel=6 note=63 velocity=114 time=0.0023980833333333332
EXTRACT: control_change channel=6 control=11 value=113 time=0
EXTRACT: pitchwheel channel=6 pitch=-2272 time=0
EXTRACT: pitchwheel channel=8 pitch=-2208 time=0.0023980833333333332
EXTRACT: control_change channel=8 control=11 value=117 time=0
EXTRACT: control_change channel=13 control=11 value=96 time=0
EXTRACT: pitchwheel channel=13 pitch=-1312 time=0
EXTRACT: pitchwheel channel=7 pitch=-1824 time=0.0023980833333333332
EXTRACT: note_on channel=3 note=56 velocity=92 time=0.0023980833333333332
EXTRACT: note_on channel=3 note=68 velocity=127 time=0
EXTRACT: pitchwheel channel=6 pitch=-1824 time=0
EXTRACT: note_on channel=4 note=80 velocity=0 time=0.0023980833333333332
EXTRACT: note_on channel=4 note=56 velocity=0 time=0
EXTRACT: note_on channel=4 note=73 velocity=0 time=0
EXTRACT: note_on channel=4 note=68 velocity=0 time=0
EXTRACT: note_on channel=4 note=55 velocity=97 time=0
EXTRACT: note_on channel=4 note=63 velocity=104 time=0
EXTRACT: note_on channel=4 note=75 velocity=108 time=0
EXTRACT: note_on channel=4 note=51 velocity=97 time=0
EXTRACT: note_on channel=11 note=51 velocity=127 time=0
EXTRACT: control_change channel=13 control=11 value=99 time=0
EXTRACT: pitchwheel channel=13 pitch=-1408 time=0
EXTRACT: control_change channel=8 control=11 value=122 time=0.0023980833333333332
EXTRACT: pitchwheel channel=8 pitch=-1472 time=0
EXTRACT: control_change channel=7 control=11 value=119 time=0.0023980833333333332
EXTRACT: pitchwheel channel=7 pitch=-1216 time=0
EXTRACT: note_on channel=9 note=57 velocity=91 time=0
EXTRACT: note_on channel=13 note=88 velocity=0 time=0
EXTRACT: pitchwheel channel=13 pitch=0 time=0
EXTRACT: control_change channel=13 control=11 value=101 time=0
EXTRACT: note_on channel=13 note=87 velocity=110 time=0
EXTRACT: control_change channel=6 control=11 value=119 time=0.0023980833333333332
EXTRACT: pitchwheel channel=6 pitch=-1216 time=0
EXTRACT: control_change channel=8 control=11 value=125 time=0.0023980833333333332
EXTRACT: pitchwheel channel=8 pitch=-864 time=0
EXTRACT: pitchwheel channel=7 pitch=-736 time=0.0023980833333333332
EXTRACT: pitchwheel channel=6 pitch=-736 time=0.0023980833333333332
EXTRACT: pitchwheel channel=8 pitch=-224 time=0.0023980833333333332
EXTRACT: pitchwheel channel=7 pitch=-256 time=0.0023980833333333332
EXTRACT: control_change channel=4 control=11 value=108 time=0.0023980833333333332
EXTRACT: pitchwheel channel=6 pitch=-256 time=0
EXTRACT: pitchwheel channel=8 pitch=128 time=0.0023980833333333332
EXTRACT: control_change channel=8 control=11 value=122 time=0
EXTRACT: pitchwheel channel=7 pitch=0 time=0.0023980833333333332
EXTRACT: pitchwheel channel=6 pitch=0 time=0.0023980833333333332
EXTRACT: note_on channel=11 note=51 velocity=0 time=0.0023980833333333332
EXTRACT: pitchwheel channel=8 pitch=288 time=0.0023980833333333332
EXTRACT: control_change channel=8 control=11 value=118 time=0
EXTRACT: pitchwheel channel=7 pitch=192 time=0.0023980833333333332
EXTRACT: control_change channel=7 control=11 value=113 time=0
EXTRACT: note_on channel=13 note=87 velocity=0 time=0
EXTRACT: pitchwheel channel=6 pitch=192 time=0.0023980833333333332
EXTRACT: control_change channel=6 control=11 value=113 time=0
EXTRACT: control_change channel=8 control=11 value=116 time=0.0023980833333333332
EXTRACT: pitchwheel channel=8 pitch=352 time=0
EXTRACT: pitchwheel channel=7 pitch=256 time=0.0023980833333333332
EXTRACT: pitchwheel channel=6 pitch=256 time=0.0023980833333333332
EXTRACT: control_change channel=8 control=11 value=109 time=0.0023980833333333332
EXTRACT: control_change channel=7 control=11 value=104 time=0.0023980833333333332
EXTRACT: control_change channel=6 control=11 value=104 time=0.0023980833333333332
EXTRACT: control_change channel=8 control=11 value=106 time=0.0023980833333333332
EXTRACT: note_on channel=9 note=57 velocity=0 time=0.007194249999999999
EXTRACT: pitchwheel channel=8 pitch=192 time=0.0023980833333333332
EXTRACT: control_change channel=8 control=11 value=103 time=0
EXTRACT: pitchwheel channel=7 pitch=160 time=0.0023980833333333332
EXTRACT: control_change channel=7 control=11 value=97 time=0
EXTRACT: pitchwheel channel=6 pitch=160 time=0.0023980833333333332
EXTRACT: control_change channel=6 control=11 value=97 time=0
EXTRACT: pitchwheel channel=8 pitch=96 time=0.0023980833333333332
EXTRACT: control_change channel=8 control=11 value=101 time=0
EXTRACT: pitchwheel channel=13 pitch=-128 time=0
EXTRACT: note_on channel=13 note=88 velocity=127 time=0
EXTRACT: note_on channel=6 note=63 velocity=0 time=0.0023980833333333332
EXTRACT: pitchwheel channel=7 pitch=64 time=0
EXTRACT: pitchwheel channel=6 pitch=64 time=0.0023980833333333332
EXTRACT: pitchwheel channel=8 pitch=0 time=0.0023980833333333332
EXTRACT: pitchwheel channel=13 pitch=-64 time=0
EXTRACT: pitchwheel channel=7 pitch=0 time=0.0023980833333333332
EXTRACT: pitchwheel channel=6 pitch=0 time=0.0023980833333333332
EXTRACT: pitchwheel channel=8 pitch=-96 time=0.0023980833333333332
EXTRACT: control_change channel=8 control=11 value=99 time=0
EXTRACT: pitchwheel channel=13 pitch=0 time=0
EXTRACT: pitchwheel channel=7 pitch=-64 time=0.0023980833333333332
EXTRACT: pitchwheel channel=6 pitch=-64 time=0.0023980833333333332
EXTRACT: pitchwheel channel=13 pitch=96 time=0.0023980833333333332
EXTRACT: pitchwheel channel=8 pitch=-160 time=0.0023980833333333332
EXTRACT: pitchwheel channel=8 pitch=-288 time=0.007194249999999999
EXTRACT: pitchwheel channel=7 pitch=-192 time=0.0023980833333333332
EXTRACT: pitchwheel channel=6 pitch=-192 time=0.0023980833333333332
EXTRACT: pitchwheel channel=8 pitch=-384 time=0.0023980833333333332
EXTRACT: control_change channel=8 control=11 value=97 time=0
EXTRACT: pitchwheel channel=7 pitch=-288 time=0.0023980833333333332
EXTRACT: pitchwheel channel=6 pitch=-288 time=0.0023980833333333332
EXTRACT: pitchwheel channel=13 pitch=0 time=0.009592333333333333
EXTRACT: control_change channel=7 control=11 value=97 time=0.0047961666666666665
EXTRACT: control_change channel=6 control=11 value=97 time=0.0023980833333333332
EXTRACT: pitchwheel channel=13 pitch=-160 time=0.0023980833333333332
EXTRACT: control_change channel=8 control=11 value=99 time=0.007194249999999999
EXTRACT: pitchwheel channel=8 pitch=-288 time=0
EXTRACT: pitchwheel channel=13 pitch=-224 time=0
EXTRACT: pitchwheel channel=7 pitch=-192 time=0.0023980833333333332
EXTRACT: pitchwheel channel=6 pitch=-192 time=0.0023980833333333332
EXTRACT: pitchwheel channel=8 pitch=-160 time=0.0023980833333333332
EXTRACT: pitchwheel channel=13 pitch=-64 time=0
EXTRACT: pitchwheel channel=7 pitch=-96 time=0.0023980833333333332
EXTRACT: pitchwheel channel=6 pitch=-96 time=0.0023980833333333332
EXTRACT: note_on channel=13 note=88 velocity=0 time=0
EXTRACT: pitchwheel channel=13 pitch=480 time=0.0023980833333333332
EXTRACT: note_on channel=13 note=87 velocity=108 time=0
EXTRACT: control_change channel=8 control=11 value=101 time=0.0023980833333333332
EXTRACT: pitchwheel channel=8 pitch=-64 time=0
EXTRACT: control_change channel=7 control=11 value=101 time=0.0023980833333333332
EXTRACT: pitchwheel channel=7 pitch=0 time=0
EXTRACT: control_change channel=6 control=11 value=101 time=0.0023980833333333332
EXTRACT: pitchwheel channel=6 pitch=0 time=0
EXTRACT: pitchwheel channel=8 pitch=0 time=0.0023980833333333332
EXTRACT: pitchwheel channel=13 pitch=-128 time=0
EXTRACT: pitchwheel channel=13 pitch=-288 time=0.007194249999999999
EXTRACT: control_change channel=8 control=11 value=99 time=0.007194249999999999
EXTRACT: pitchwheel channel=8 pitch=-64 time=0
EXTRACT: pitchwheel channel=7 pitch=-64 time=0.0023980833333333332
EXTRACT: pitchwheel channel=6 pitch=-64 time=0.0023980833333333332
EXTRACT: pitchwheel channel=8 pitch=-224 time=0.0047961666666666665
EXTRACT: control_change channel=8 control=11 value=96 time=0
EXTRACT: pitchwheel channel=7 pitch=-224 time=0.0023980833333333332
EXTRACT: pitchwheel channel=6 pitch=-224 time=0.0023980833333333332
EXTRACT: control_change channel=8 control=11 value=93 time=0.0023980833333333332
EXTRACT: pitchwheel channel=8 pitch=-576 time=0
EXTRACT: pitchwheel channel=7 pitch=-576 time=0.0023980833333333332
EXTRACT: pitchwheel channel=6 pitch=-576 time=0.0023980833333333332
EXTRACT: control_change channel=8 control=11 value=76 time=0.0023980833333333332
EXTRACT: pitchwheel channel=8 pitch=-992 time=0
EXTRACT: control_change channel=7 control=11 value=87 time=0.0023980833333333332
EXTRACT: pitchwheel channel=7 pitch=-992 time=0
EXTRACT: control_change channel=6 control=11 value=87 time=0.0023980833333333332
EXTRACT: pitchwheel channel=6 pitch=-992 time=0
EXTRACT: control_change channel=8 control=11 value=49 time=0.0023980833333333332
EXTRACT: pitchwheel channel=8 pitch=-1568 time=0
EXTRACT: pitchwheel channel=7 pitch=-1568 time=0.0023980833333333332
EXTRACT: pitchwheel channel=6 pitch=-1568 time=0.0023980833333333332
EXTRACT: note_on channel=8 note=39 velocity=0 time=0.0023980833333333332
EXTRACT: note_on channel=7 note=51 velocity=0 time=0.0023980833333333332
EXTRACT: pitchwheel channel=8 pitch=-2528 time=0
EXTRACT: control_change channel=8 control=11 value=78 time=0
EXTRACT: note_on channel=8 note=39 velocity=91 time=0
EXTRACT: pitchwheel channel=7 pitch=-2528 time=0.0023980833333333332
EXTRACT: control_change channel=7 control=11 value=87 time=0
EXTRACT: pitchwheel channel=7 pitch=-1536 time=0
EXTRACT: note_on channel=7 note=51 velocity=99 time=0
EXTRACT: note_on channel=6 note=63 velocity=113 time=0.0023980833333333332
EXTRACT: pitchwheel channel=6 pitch=-2528 time=0
EXTRACT: control_change channel=6 control=11 value=87 time=0
EXTRACT: pitchwheel channel=6 pitch=-1536 time=0
EXTRACT: pitchwheel channel=8 pitch=-352 time=0.0023980833333333332
EXTRACT: control_change channel=8 control=11 value=110 time=0
EXTRACT: control_change channel=7 control=11 value=108 time=0.0023980833333333332
EXTRACT: pitchwheel channel=7 pitch=-352 time=0
EXTRACT: control_change channel=6 control=11 value=108 time=0.0023980833333333332
EXTRACT: pitchwheel channel=6 pitch=-352 time=0
EXTRACT: note_on channel=13 note=87 velocity=0 time=0
EXTRACT: pitchwheel channel=8 pitch=-128 time=0.0023980833333333332
EXTRACT: pitchwheel channel=7 pitch=-128 time=0.0023980833333333332
EXTRACT: pitchwheel channel=6 pitch=-128 time=0.0023980833333333332
EXTRACT: control_change channel=8 control=11 value=108 time=0.0023980833333333332
EXTRACT: pitchwheel channel=13 pitch=-1344 time=0
EXTRACT: note_on channel=13 note=88 velocity=100 time=0
EXTRACT: pitchwheel channel=13 pitch=-288 time=0.009592333333333333
EXTRACT: control_change channel=4 control=11 value=106 time=0.0023980833333333332
EXTRACT: pitchwheel channel=13 pitch=96 time=0.0047961666666666665
EXTRACT: control_change channel=8 control=11 value=104 time=0.007194249999999999
EXTRACT: pitchwheel channel=8 pitch=-64 time=0
EXTRACT: control_change channel=7 control=11 value=104 time=0.0023980833333333332
EXTRACT: pitchwheel channel=7 pitch=-64 time=0
EXTRACT: control_change channel=6 control=11 value=104 time=0.0023980833333333332
EXTRACT: pitchwheel channel=6 pitch=-64 time=0
EXTRACT: pitchwheel channel=8 pitch=0 time=0.026378916666666665
EXTRACT: pitchwheel channel=7 pitch=0 time=0.0023980833333333332
EXTRACT: pitchwheel channel=6 pitch=0 time=0.0023980833333333332
EXTRACT: note_on channel=3 note=68 velocity=0 time=0.009592333333333333
EXTRACT: note_on channel=3 note=56 velocity=0 time=0
EXTRACT: note_on channel=8 note=39 velocity=0 time=0.0023980833333333332
EXTRACT: control_change channel=8 control=11 value=107 time=0
EXTRACT: note_on channel=7 note=51 velocity=0 time=0.0023980833333333332
EXTRACT: note_on channel=6 note=63 velocity=0 time=0.0023980833333333332
EXTRACT: pitchwheel channel=13 pitch=0 time=0.0023980833333333332
EXTRACT: note_on channel=13 note=88 velocity=0 time=0.009592333333333333
EXTRACT: note_on channel=13 note=87 velocity=110 time=0.0047961666666666665
EXTRACT: control_change channel=4 control=11 value=104 time=0.028776999999999997
EXTRACT: note_on channel=13 note=87 velocity=0 time=0.043165499999999996
EXTRACT: pitchwheel channel=13 pitch=-128 time=0.007194249999999999
EXTRACT: note_on channel=13 note=88 velocity=127 time=0
EXTRACT: pitchwheel channel=13 pitch=-64 time=0.007194249999999999
EXTRACT: pitchwheel channel=13 pitch=0 time=0.007194249999999999
EXTRACT: pitchwheel channel=13 pitch=96 time=0.009592333333333333
EXTRACT: note_on channel=15 note=87 velocity=91 time=0.021582749999999998
EXTRACT: note_on channel=11 note=51 velocity=127 time=0.007194249999999999
EXTRACT: pitchwheel channel=13 pitch=0 time=0.0023980833333333332
EXTRACT: note_on channel=3 note=58 velocity=90 time=0.0023980833333333332
EXTRACT: note_on channel=3 note=70 velocity=124 time=0
EXTRACT: pitchwheel channel=13 pitch=-192 time=0.0047961666666666665
EXTRACT: note_on channel=13 note=88 velocity=0 time=0.014388499999999999
EXTRACT: pitchwheel channel=13 pitch=512 time=0
EXTRACT: note_on channel=13 note=87 velocity=110 time=0
EXTRACT: note_on channel=11 note=51 velocity=0 time=0.007194249999999999
EXTRACT: pitchwheel channel=13 pitch=0 time=0.0023980833333333332
EXTRACT: pitchwheel channel=13 pitch=-320 time=0.007194249999999999
EXTRACT: note_on channel=15 note=87 velocity=0 time=0.014388499999999999
EXTRACT: pitchwheel channel=13 pitch=-480 time=0.055155916666666666
EXTRACT: note_on channel=13 note=87 velocity=0 time=0.0023980833333333332
EXTRACT: pitchwheel channel=13 pitch=-1440 time=0.0023980833333333332
EXTRACT: note_on channel=13 note=88 velocity=95 time=0
EXTRACT: pitchwheel channel=13 pitch=-320 time=0.007194249999999999
EXTRACT: pitchwheel channel=13 pitch=96 time=0.007194249999999999
EXTRACT: note_on channel=3 note=70 velocity=0 time=0.05275783333333333
EXTRACT: note_on channel=3 note=58 velocity=0 time=0
EXTRACT: pitchwheel channel=13 pitch=0 time=0.009592333333333333
EXTRACT: note_on channel=13 note=88 velocity=0 time=0.011990416666666667
EXTRACT: note_on channel=13 note=87 velocity=110 time=0
EXTRACT: note_on channel=13 note=87 velocity=0 time=0.05275783333333333
EXTRACT: pitchwheel channel=13 pitch=-128 time=0.009592333333333333
EXTRACT: note_on channel=13 note=88 velocity=127 time=0
EXTRACT: pitchwheel channel=13 pitch=-64 time=0.009592333333333333
EXTRACT: pitchwheel channel=13 pitch=0 time=0.007194249999999999
EXTRACT: pitchwheel channel=13 pitch=96 time=0.007194249999999999
EXTRACT: control_change channel=4 control=11 value=106 time=0.011990416666666667
EXTRACT: pitchwheel channel=13 pitch=0 time=0.019184666666666666
EXTRACT: pitchwheel channel=13 pitch=-192 time=0.007194249999999999
EXTRACT: note_on channel=13 note=88 velocity=0 time=0.014388499999999999
EXTRACT: pitchwheel channel=13 pitch=512 time=0.0023980833333333332
EXTRACT: note_on channel=13 note=87 velocity=100 time=0
EXTRACT: pitchwheel channel=13 pitch=-320 time=0.007194249999999999
EXTRACT: note_on channel=13 note=87 velocity=0 time=0.04556358333333333
EXTRACT: pitchwheel channel=13 pitch=-1440 time=0.009592333333333333
EXTRACT: note_on channel=13 note=88 velocity=94 time=0
EXTRACT: pitchwheel channel=13 pitch=-96 time=0.007194249999999999
EXTRACT: pitchwheel channel=13 pitch=96 time=0.009592333333333333
EXTRACT: note_on channel=15 note=87 velocity=106 time=0.019184666666666666
EXTRACT: note_on channel=3 note=58 velocity=92 time=0.007194249999999999
EXTRACT: note_on channel=3 note=70 velocity=127 time=0
EXTRACT: note_on channel=4 note=75 velocity=0 time=0.016786583333333334
EXTRACT: note_on channel=4 note=77 velocity=110 time=0.0023980833333333332
EXTRACT: note_on channel=4 note=65 velocity=105 time=0
EXTRACT: pitchwheel channel=13 pitch=0 time=0
EXTRACT: note_on channel=9 note=35 velocity=53 time=0.0047961666666666665
EXTRACT: note_on channel=13 note=88 velocity=0 time=0.0047961666666666665
EXTRACT: note_on channel=13 note=87 velocity=110 time=0.0023980833333333332
EXTRACT: note_on channel=15 note=87 velocity=0 time=0.026378916666666665
EXTRACT: control_change channel=4 control=11 value=108 time=0.0047961666666666665
EXTRACT: note_on channel=9 note=35 velocity=0 time=0.019184666666666666
EXTRACT: note_on channel=13 note=87 velocity=0 time=0.03836933333333333
EXTRACT: control_change channel=4 control=11 value=110 time=0.08393291666666666
EXTRACT: control_change channel=4 control=11 value=112 time=0.10791374999999999
EXTRACT: note_on channel=3 note=70 velocity=0 time=0.20623516666666666
EXTRACT: note_on channel=3 note=58 velocity=0 time=0
EXTRACT: control_change channel=4 control=11 value=114 time=0.0047961666666666665
EXTRACT: control_change channel=4 control=11 value=116 time=0.18705049999999998
EXTRACT: note_on channel=3 note=56 velocity=89 time=0.016786583333333334
EXTRACT: note_on channel=3 note=68 velocity=122 time=0
EXTRACT: pitchwheel channel=8 pitch=-3264 time=0.21342941666666665
EXTRACT: control_change channel=8 control=11 value=80 time=0
EXTRACT: note_on channel=8 note=39 velocity=94 time=0
EXTRACT: control_change channel=7 control=11 value=51 time=0.0023980833333333332
EXTRACT: pitchwheel channel=7 pitch=-3296 time=0
EXTRACT: note_on channel=7 note=51 velocity=103 time=0
EXTRACT: note_on channel=6 note=63 velocity=113 time=0.0023980833333333332
EXTRACT: control_change channel=6 control=11 value=51 time=0
EXTRACT: pitchwheel channel=6 pitch=-3296 time=0
EXTRACT: control_change channel=8 control=11 value=96 time=0.0047961666666666665
EXTRACT: pitchwheel channel=8 pitch=-3104 time=0
EXTRACT: note_on channel=3 note=68 velocity=0 time=0.0023980833333333332
EXTRACT: note_on channel=3 note=56 velocity=0 time=0
EXTRACT: pitchwheel channel=7 pitch=-3136 time=0
EXTRACT: note_on channel=4 note=65 velocity=0 time=0.0023980833333333332
EXTRACT: note_on channel=4 note=77 velocity=0 time=0
EXTRACT: pitchwheel channel=6 pitch=-3136 time=0
EXTRACT: note_on channel=11 note=51 velocity=127 time=0
EXTRACT: note_on channel=4 note=82 velocity=114 time=0.0023980833333333332
EXTRACT: note_on channel=4 note=70 velocity=110 time=0
EXTRACT: control_change channel=8 control=11 value=106 time=0
EXTRACT: pitchwheel channel=8 pitch=-2944 time=0
EXTRACT: control_change channel=7 control=11 value=103 time=0.0023980833333333332
EXTRACT: pitchwheel channel=7 pitch=-2976 time=0
EXTRACT: note_on channel=9 note=57 velocity=90 time=0
EXTRACT: control_change channel=6 control=11 value=103 time=0.0023980833333333332
EXTRACT: pitchwheel channel=6 pitch=-2976 time=0
EXTRACT: control_change channel=8 control=11 value=110 time=0.0023980833333333332
EXTRACT: pitchwheel channel=8 pitch=-2784 time=0
EXTRACT: pitchwheel channel=7 pitch=-2816 time=0.0023980833333333332
EXTRACT: pitchwheel channel=6 pitch=-2816 time=0.0023980833333333332
EXTRACT: pitchwheel channel=8 pitch=-2656 time=0.0023980833333333332
EXTRACT: control_change channel=8 control=11 value=112 time=0
EXTRACT: pitchwheel channel=7 pitch=-2688 time=0.0023980833333333332
EXTRACT: control_change channel=7 control=11 value=116 time=0
EXTRACT: pitchwheel channel=6 pitch=-2688 time=0.0023980833333333332
EXTRACT: control_change channel=6 control=11 value=116 time=0
EXTRACT: pitchwheel channel=8 pitch=-2496 time=0.0047961666666666665
EXTRACT: control_change channel=8 control=11 value=115 time=0
EXTRACT: pitchwheel channel=7 pitch=-2528 time=0.0023980833333333332
EXTRACT: pitchwheel channel=6 pitch=-2528 time=0.0023980833333333332
EXTRACT: note_on channel=11 note=51 velocity=0 time=0
EXTRACT: pitchwheel channel=8 pitch=-2336 time=0.0023980833333333332
EXTRACT: control_change channel=8 control=11 value=117 time=0
EXTRACT: pitchwheel channel=7 pitch=-2336 time=0.0023980833333333332
EXTRACT: control_change channel=7 control=11 value=125 time=0
EXTRACT: pitchwheel channel=6 pitch=-2336 time=0.0023980833333333332
EXTRACT: control_change channel=6 control=11 value=125 time=0
EXTRACT: pitchwheel channel=8 pitch=-2112 time=0.0023980833333333332
EXTRACT: control_change channel=7 control=11 value=127 time=0.0023980833333333332
EXTRACT: pitchwheel channel=7 pitch=-2112 time=0
EXTRACT: control_change channel=6 control=11 value=127 time=0.0023980833333333332
EXTRACT: pitchwheel channel=6 pitch=-2112 time=0
EXTRACT: pitchwheel channel=8 pitch=-1824 time=0.0023980833333333332
EXTRACT: pitchwheel channel=7 pitch=-1856 time=0.0023980833333333332
EXTRACT: pitchwheel channel=6 pitch=-1856 time=0.0023980833333333332
EXTRACT: control_change channel=8 control=11 value=119 time=0.0047961666666666665
EXTRACT: pitchwheel channel=8 pitch=-1536 time=0
EXTRACT: pitchwheel channel=7 pitch=-1536 time=0.0023980833333333332
EXTRACT: pitchwheel channel=6 pitch=-1536 time=0.0023980833333333332
EXTRACT: note_on channel=9 note=57 velocity=0 time=0
EXTRACT: pitchwheel channel=8 pitch=-1280 time=0.0023980833333333332
EXTRACT: pitchwheel channel=7 pitch=-1312 time=0.0023980833333333332
EXTRACT: pitchwheel channel=6 pitch=-1312 time=0.0023980833333333332
EXTRACT: pitchwheel channel=8 pitch=-1088 time=0.0023980833333333332
EXTRACT: pitchwheel channel=7 pitch=-1088 time=0.0023980833333333332
EXTRACT: pitchwheel channel=6 pitch=-1088 time=0.0023980833333333332
EXTRACT: pitchwheel channel=8 pitch=-896 time=0.0023980833333333332
EXTRACT: pitchwheel channel=7 pitch=-896 time=0.0023980833333333332
EXTRACT: pitchwheel channel=6 pitch=-896 time=0.0023980833333333332
EXTRACT: pitchwheel channel=8 pitch=-736 time=0.0047961666666666665
EXTRACT: pitchwheel channel=7 pitch=-736 time=0.0023980833333333332
EXTRACT: pitchwheel channel=6 pitch=-736 time=0.0023980833333333332
EXTRACT: pitchwheel channel=8 pitch=-608 time=0.0023980833333333332
EXTRACT: pitchwheel channel=7 pitch=-608 time=0.0023980833333333332
EXTRACT: pitchwheel channel=6 pitch=-608 time=0.0023980833333333332
EXTRACT: pitchwheel channel=8 pitch=-512 time=0.0023980833333333332
EXTRACT: pitchwheel channel=7 pitch=-512 time=0.0023980833333333332
EXTRACT: pitchwheel channel=6 pitch=-512 time=0.0023980833333333332
EXTRACT: pitchwheel channel=8 pitch=-416 time=0.0023980833333333332
EXTRACT: pitchwheel channel=7 pitch=-416 time=0.0023980833333333332
EXTRACT: pitchwheel channel=6 pitch=-416 time=0.0023980833333333332
EXTRACT: pitchwheel channel=8 pitch=-320 time=0.0047961666666666665
EXTRACT: pitchwheel channel=7 pitch=-320 time=0.0023980833333333332
EXTRACT: pitchwheel channel=6 pitch=-320 time=0.0023980833333333332
EXTRACT: pitchwheel channel=8 pitch=-224 time=0.0023980833333333332
EXTRACT: pitchwheel channel=7 pitch=-256 time=0.0023980833333333332
EXTRACT: pitchwheel channel=6 pitch=-256 time=0.0023980833333333332
EXTRACT: pitchwheel channel=7 pitch=-192 time=0.0047961666666666665
EXTRACT: pitchwheel channel=6 pitch=-192 time=0.0023980833333333332
EXTRACT: control_change channel=8 control=11 value=117 time=0.0023980833333333332
EXTRACT: pitchwheel channel=8 pitch=-128 time=0
EXTRACT: pitchwheel channel=7 pitch=-128 time=0.0023980833333333332
EXTRACT: pitchwheel channel=6 pitch=-128 time=0.0023980833333333332
EXTRACT: control_change channel=7 control=11 value=124 time=0.007194249999999999
EXTRACT: control_change channel=6 control=11 value=124 time=0.0023980833333333332
EXTRACT: control_change channel=8 control=11 value=115 time=0.0023980833333333332
EXTRACT: pitchwheel channel=8 pitch=0 time=0
EXTRACT: pitchwheel channel=7 pitch=0 time=0.0023980833333333332
EXTRACT: pitchwheel channel=6 pitch=0 time=0.0023980833333333332
EXTRACT: control_change channel=7 control=11 value=120 time=0.0047961666666666665
EXTRACT: control_change channel=6 control=11 value=120 time=0.0023980833333333332
EXTRACT: control_change channel=8 control=11 value=112 time=0.0047961666666666665
EXTRACT: control_change channel=7 control=11 value=114 time=0.009592333333333333
EXTRACT: control_change channel=6 control=11 value=114 time=0.0023980833333333332
EXTRACT: control_change channel=8 control=11 value=110 time=0.0023980833333333332
EXTRACT: control_change channel=7 control=11 value=110 time=0.009592333333333333
EXTRACT: control_change channel=6 control=11 value=110 time=0.0023980833333333332
EXTRACT: control_change channel=8 control=11 value=108 time=0.0047961666666666665
EXTRACT: control_change channel=4 control=11 value=114 time=0.0023980833333333332
EXTRACT: note_on channel=14 note=60 velocity=93 time=0
EXTRACT: control_change channel=7 control=11 value=106 time=0.007194249999999999
EXTRACT: control_change channel=6 control=11 value=106 time=0.0023980833333333332
EXTRACT: control_change channel=8 control=11 value=106 time=0.0023980833333333332
EXTRACT: control_change channel=8 control=11 value=104 time=0.007194249999999999
EXTRACT: control_change channel=7 control=11 value=101 time=0.0023980833333333332
EXTRACT: control_change channel=6 control=11 value=101 time=0.0023980833333333332
EXTRACT: note_on channel=3 note=58 velocity=90 time=0.007194249999999999
EXTRACT: note_on channel=3 note=70 velocity=124 time=0
EXTRACT: control_change channel=8 control=11 value=102 time=0.0047961666666666665
EXTRACT: control_change channel=7 control=11 value=96 time=0.0023980833333333332
EXTRACT: note_on channel=15 note=87 velocity=99 time=0
EXTRACT: control_change channel=6 control=11 value=96 time=0.0023980833333333332
EXTRACT: control_change channel=8 control=11 value=99 time=0.009592333333333333
EXTRACT: control_change channel=7 control=11 value=91 time=0.0023980833333333332
EXTRACT: control_change channel=6 control=11 value=91 time=0.0023980833333333332
EXTRACT: control_change channel=8 control=11 value=97 time=0.011990416666666667
EXTRACT: control_change channel=7 control=11 value=87 time=0.0023980833333333332
EXTRACT: control_change channel=6 control=11 value=87 time=0.0023980833333333332
EXTRACT: control_change channel=7 control=11 value=83 time=0.011990416666666667
EXTRACT: note_on channel=15 note=87 velocity=0 time=0
EXTRACT: control_change channel=6 control=11 value=83 time=0.0023980833333333332
EXTRACT: control_change channel=8 control=11 value=95 time=0.0047961666666666665
EXTRACT: control_change channel=4 control=11 value=112 time=0.0023980833333333332
EXTRACT: control_change channel=7 control=11 value=79 time=0.007194249999999999
EXTRACT: control_change channel=6 control=11 value=79 time=0.0023980833333333332
EXTRACT: control_change channel=8 control=11 value=93 time=0.0023980833333333332
EXTRACT: control_change channel=7 control=11 value=75 time=0.009592333333333333
EXTRACT: control_change channel=6 control=11 value=75 time=0.0023980833333333332
EXTRACT: control_change channel=8 control=11 value=90 time=0.0047961666666666665
EXTRACT: note_on channel=3 note=70 velocity=0 time=0.009592333333333333
EXTRACT: note_on channel=3 note=58 velocity=0 time=0
EXTRACT: control_change channel=7 control=11 value=71 time=0
EXTRACT: control_change channel=6 control=11 value=71 time=0.0023980833333333332
EXTRACT: control_change channel=8 control=11 value=88 time=0.009592333333333333
EXTRACT: control_change channel=7 control=11 value=66 time=0.011990416666666667
EXTRACT: control_change channel=6 control=11 value=66 time=0.0023980833333333332
EXTRACT: control_change channel=8 control=11 value=86 time=0.009592333333333333
EXTRACT: control_change channel=7 control=11 value=64 time=0.0023980833333333332
EXTRACT: control_change channel=6 control=11 value=64 time=0.0023980833333333332
EXTRACT: control_change channel=7 control=11 value=62 time=0.0047961666666666665
EXTRACT: control_change channel=6 control=11 value=62 time=0.0023980833333333332
EXTRACT: control_change channel=4 control=11 value=110 time=0.007194249999999999
EXTRACT: control_change channel=8 control=11 value=84 time=0.019184666666666666
EXTRACT: note_on channel=3 note=58 velocity=89 time=0.031175083333333332
EXTRACT: note_on channel=3 note=70 velocity=122 time=0
EXTRACT: note_on channel=11 note=46 velocity=127 time=0.023980833333333333
EXTRACT: control_change channel=4 control=11 value=108 time=0.019184666666666666
EXTRACT: note_on channel=11 note=46 velocity=0 time=0.011990416666666667
EXTRACT: control_change channel=7 control=11 value=62 time=0.08153483333333333
EXTRACT: control_change channel=6 control=11 value=62 time=0.0023980833333333332
EXTRACT: control_change channel=8 control=11 value=86 time=0.009592333333333333
EXTRACT: control_change channel=8 control=11 value=88 time=0.023980833333333333
EXTRACT: control_change channel=7 control=11 value=67 time=0.0023980833333333332
EXTRACT: control_change channel=6 control=11 value=67 time=0.0023980833333333332
EXTRACT: control_change channel=4 control=11 value=106 time=0.014388499999999999
EXTRACT: control_change channel=8 control=11 value=90 time=0.011990416666666667
EXTRACT: control_change channel=7 control=11 value=72 time=0.0023980833333333332
EXTRACT: control_change channel=6 control=11 value=72 time=0.0023980833333333332
EXTRACT: note_on channel=3 note=70 velocity=0 time=0.009592333333333333
EXTRACT: note_on channel=3 note=58 velocity=0 time=0
EXTRACT: control_change channel=8 control=11 value=92 time=0.009592333333333333
EXTRACT: control_change channel=7 control=11 value=77 time=0.009592333333333333
EXTRACT: control_change channel=6 control=11 value=77 time=0.0023980833333333332
EXTRACT: control_change channel=8 control=11 value=94 time=0.011990416666666667
EXTRACT: control_change channel=7 control=11 value=81 time=0.009592333333333333
EXTRACT: control_change channel=6 control=11 value=81 time=0.0023980833333333332
EXTRACT: control_change channel=8 control=11 value=96 time=0.009592333333333333
EXTRACT: control_change channel=7 control=11 value=86 time=0.011990416666666667
EXTRACT: note_on channel=15 note=87 velocity=91 time=0
EXTRACT: control_change channel=6 control=11 value=86 time=0.0023980833333333332
EXTRACT: control_change channel=8 control=11 value=98 time=0.0023980833333333332
EXTRACT: control_change channel=7 control=11 value=90 time=0.016786583333333334
EXTRACT: control_change channel=6 control=11 value=90 time=0.0023980833333333332
EXTRACT: control_change channel=8 control=11 value=100 time=0.0047961666666666665
EXTRACT: control_change channel=7 control=11 value=95 time=0.016786583333333334
EXTRACT: note_on channel=15 note=87 velocity=0 time=0
EXTRACT: control_change channel=6 control=11 value=95 time=0.0023980833333333332
EXTRACT: control_change channel=8 control=11 value=102 time=0.0023980833333333332
EXTRACT: control_change channel=8 control=11 value=100 time=0.07913674999999999
EXTRACT: control_change channel=7 control=11 value=91 time=0.0023980833333333332
EXTRACT: control_change channel=6 control=11 value=91 time=0.0023980833333333332
EXTRACT: control_change channel=8 control=11 value=98 time=0.011990416666666667
EXTRACT: control_change channel=7 control=11 value=87 time=0.0023980833333333332
EXTRACT: control_change channel=6 control=11 value=87 time=0.0023980833333333332
EXTRACT: control_change channel=8 control=11 value=95 time=0.009592333333333333
EXTRACT: control_change channel=7 control=11 value=82 time=0.0023980833333333332
EXTRACT: control_change channel=6 control=11 value=82 time=0.0023980833333333332
EXTRACT: note_on channel=3 note=58 velocity=92 time=0.0023980833333333332
EXTRACT: note_on channel=3 note=70 velocity=127 time=0
EXTRACT: control_change channel=8 control=11 value=93 time=0.009592333333333333
EXTRACT: control_change channel=7 control=11 value=77 time=0.0023980833333333332
EXTRACT: control_change channel=6 control=11 value=77 time=0.0023980833333333332
EXTRACT: control_change channel=8 control=11 value=91 time=0.009592333333333333
EXTRACT: control_change channel=7 control=11 value=73 time=0.0023980833333333332
EXTRACT: control_change channel=6 control=11 value=73 time=0.0023980833333333332
EXTRACT: note_on channel=4 note=70 velocity=0 time=0.009592333333333333
EXTRACT: note_on channel=4 note=51 velocity=0 time=0
EXTRACT: note_on channel=4 note=55 velocity=0 time=0
EXTRACT: note_on channel=4 note=63 velocity=0 time=0
EXTRACT: note_on channel=4 note=82 velocity=0 time=0
EXTRACT: note_on channel=11 note=51 velocity=127 time=0
EXTRACT: control_change channel=8 control=11 value=88 time=0.009592333333333333
EXTRACT: control_change channel=7 control=11 value=68 time=0.0023980833333333332
EXTRACT: control_change channel=6 control=11 value=68 time=0.0023980833333333332
EXTRACT: control_change channel=8 control=11 value=86 time=0.009592333333333333
EXTRACT: control_change channel=7 control=11 value=63 time=0.0023980833333333332
EXTRACT: control_change channel=6 control=11 value=63 time=0.0023980833333333332
EXTRACT: note_on channel=11 note=51 velocity=0 time=0.0023980833333333332
EXTRACT: note_on channel=15 note=87 velocity=91 time=0
EXTRACT: note_on channel=15 note=87 velocity=0 time=0.050359749999999995
EXTRACT: control_change channel=8 control=11 value=88 time=0.021582749999999998
EXTRACT: control_change channel=7 control=11 value=68 time=0.0023980833333333332
EXTRACT: control_change channel=6 control=11 value=68 time=0.0023980833333333332
EXTRACT: control_change channel=8 control=11 value=90 time=0.009592333333333333
EXTRACT: control_change channel=7 control=11 value=73 time=0.011990416666666667
EXTRACT: control_change channel=6 control=11 value=73 time=0.0023980833333333332
EXTRACT: control_change channel=8 control=11 value=92 time=0.009592333333333333
EXTRACT: control_change channel=7 control=11 value=78 time=0.009592333333333333
EXTRACT: control_change channel=6 control=11 value=78 time=0.0023980833333333332
EXTRACT: control_change channel=8 control=11 value=95 time=0.0047961666666666665
EXTRACT: control_change channel=7 control=11 value=84 time=0.009592333333333333
EXTRACT: control_change channel=6 control=11 value=84 time=0.0023980833333333332
EXTRACT: control_change channel=8 control=11 value=98 time=0.0023980833333333332
EXTRACT: pitchwheel channel=8 pitch=-64 time=0.016786583333333334
EXTRACT: pitchwheel channel=7 pitch=-64 time=0.0023980833333333332
EXTRACT: control_change channel=7 control=11 value=89 time=0
EXTRACT: pitchwheel channel=6 pitch=-64 time=0.0023980833333333332
EXTRACT: control_change channel=6 control=11 value=89 time=0
EXTRACT: control_change channel=8 control=11 value=100 time=0.0023980833333333332
EXTRACT: control_change channel=7 control=11 value=95 time=0.009592333333333333
EXTRACT: control_change channel=6 control=11 value=95 time=0.0023980833333333332
EXTRACT: control_change channel=8 control=11 value=103 time=0.0023980833333333332
EXTRACT: control_change channel=7 control=11 value=99 time=0.011990416666666667
EXTRACT: control_change channel=6 control=11 value=99 time=0.0023980833333333332
EXTRACT: control_change channel=8 control=11 value=105 time=0.0023980833333333332
EXTRACT: control_change channel=7 control=11 value=104 time=0.009592333333333333
EXTRACT: control_change channel=6 control=11 value=104 time=0.0023980833333333332
EXTRACT: control_change channel=8 control=11 value=107 time=0.0023980833333333332
EXTRACT: pitchwheel channel=8 pitch=-128 time=0.009592333333333333
EXTRACT: pitchwheel channel=7 pitch=-128 time=0.0023980833333333332
EXTRACT: pitchwheel channel=6 pitch=-128 time=0.0023980833333333332
EXTRACT: control_change channel=8 control=11 value=109 time=0.0023980833333333332
EXTRACT: control_change channel=7 control=11 value=110 time=0.0023980833333333332
EXTRACT: control_change channel=6 control=11 value=110 time=0.0023980833333333332
EXTRACT: control_change channel=8 control=11 value=111 time=0.011990416666666667
EXTRACT: control_change channel=7 control=11 value=114 time=0.0023980833333333332
EXTRACT: control_change channel=6 control=11 value=114 time=0.0023980833333333332
EXTRACT: control_change channel=8 control=11 value=114 time=0.016786583333333334
EXTRACT: pitchwheel channel=8 pitch=-192 time=0
EXTRACT: control_change channel=7 control=11 value=120 time=0.0023980833333333332
EXTRACT: pitchwheel channel=7 pitch=-192 time=0
EXTRACT: control_change channel=6 control=11 value=120 time=0.0023980833333333332
EXTRACT: pitchwheel channel=6 pitch=-192 time=0
EXTRACT: control_change channel=8 control=11 value=117 time=0.011990416666666667
EXTRACT: control_change channel=7 control=11 value=125 time=0.0023980833333333332
EXTRACT: control_change channel=6 control=11 value=125 time=0.0023980833333333332
EXTRACT: control_change channel=7 control=11 value=127 time=0.0047961666666666665
EXTRACT: control_change channel=6 control=11 value=127 time=0.0023980833333333332
EXTRACT: pitchwheel channel=8 pitch=-256 time=0.0023980833333333332
EXTRACT: control_change channel=8 control=11 value=120 time=0
EXTRACT: pitchwheel channel=7 pitch=-256 time=0.0023980833333333332
EXTRACT: pitchwheel channel=6 pitch=-256 time=0.0023980833333333332
EXTRACT: control_change channel=8 control=11 value=122 time=0.0047961666666666665
EXTRACT: control_change channel=8 control=11 value=124 time=0.007194249999999999
EXTRACT: pitchwheel channel=8 pitch=-352 time=0.007194249999999999
EXTRACT: control_change channel=8 control=11 value=126 time=0
EXTRACT: pitchwheel channel=7 pitch=-352 time=0.0023980833333333332
EXTRACT: pitchwheel channel=6 pitch=-352 time=0.0023980833333333332
EXTRACT: note_on channel=3 note=70 velocity=0 time=0.011990416666666667
EXTRACT: note_on channel=3 note=58 velocity=0 time=0
EXTRACT: pitchwheel channel=8 pitch=-416 time=0.007194249999999999
EXTRACT: pitchwheel channel=7 pitch=-416 time=0.0023980833333333332
EXTRACT: pitchwheel channel=6 pitch=-416 time=0.0023980833333333332
EXTRACT: note_on channel=8 note=39 velocity=0 time=0
EXTRACT: note_on channel=6 note=63 velocity=0 time=0.0023980833333333332
EXTRACT: note_on channel=7 note=51 velocity=0 time=0
EXTRACT: control_change channel=8 control=11 value=107 time=0
EXTRACT: pitchwheel channel=8 pitch=0 time=0
EXTRACT: pitchwheel channel=7 pitch=0 time=0.0023980833333333332
EXTRACT: pitchwheel channel=6 pitch=0 time=0.0023980833333333332
EXTRACT: note_on channel=11 note=46 velocity=127 time=0.07913674999999999
EXTRACT: note_on channel=11 note=46 velocity=0 time=0.031175083333333332
EXTRACT: note_on channel=14 note=60 velocity=0 time=0.17745816666666667
EXTRACT: control_change channel=8 control=11 value=112 time=0.011990416666666667
EXTRACT: note_on channel=6 note=63 velocity=113 time=0.0047961666666666665
EXTRACT: note_on channel=6 note=63 velocity=0 time=0.06474825
EXTRACT: note_on channel=7 note=44 velocity=75 time=0.16786583333333333
EXTRACT: note_on channel=6 note=56 velocity=76 time=0.0023980833333333332
EXTRACT: note_on channel=4 note=60 velocity=102 time=0.0047961666666666665
EXTRACT: note_on channel=4 note=56 velocity=100 time=0
EXTRACT: note_on channel=4 note=51 velocity=98 time=0
EXTRACT: note_on channel=4 note=63 velocity=104 time=0
EXTRACT: control_change channel=4 control=11 value=76 time=0.009592333333333333
EXTRACT: note_on channel=9 note=35 velocity=97 time=0
EXTRACT: note_on channel=9 note=57 velocity=90 time=0
EXTRACT: control_change channel=7 control=11 value=118 time=0.03836933333333333
EXTRACT: control_change channel=6 control=11 value=118 time=0.0023980833333333332
EXTRACT: note_on channel=9 note=57 velocity=0 time=0.016786583333333334
EXTRACT: note_on channel=9 note=35 velocity=0 time=0
EXTRACT: control_change channel=4 control=11 value=78 time=0.011990416666666667
EXTRACT: control_change channel=7 control=11 value=113 time=0
EXTRACT: control_change channel=6 control=11 value=113 time=0.0023980833333333332
EXTRACT: control_change channel=7 control=11 value=106 time=0.028776999999999997
EXTRACT: control_change channel=6 control=11 value=106 time=0.0023980833333333332
EXTRACT: control_change channel=7 control=11 value=102 time=0.028776999999999997
EXTRACT: control_change channel=6 control=11 value=102 time=0.0023980833333333332
EXTRACT: control_change channel=7 control=11 value=98 time=0.028776999999999997
EXTRACT: control_change channel=6 control=11 value=98 time=0.0023980833333333332
EXTRACT: note_on channel=7 note=44 velocity=0 time=0.043165499999999996
EXTRACT: control_change channel=7 control=11 value=120 time=0
EXTRACT: note_on channel=6 note=56 velocity=0 time=0.0023980833333333332
EXTRACT: control_change channel=6 control=11 value=120 time=0
EXTRACT: note_on channel=7 note=44 velocity=71 time=0.0047961666666666665
EXTRACT: note_on channel=6 note=56 velocity=70 time=0.0023980833333333332
EXTRACT: note_on channel=1 note=32 velocity=126 time=0.0023980833333333332
EXTRACT: note_on channel=9 note=46 velocity=61 time=0.021582749999999998
EXTRACT: control_change channel=7 control=11 value=116 time=0.035971249999999996
EXTRACT: control_change channel=4 control=11 value=76 time=0.0023980833333333332
EXTRACT: control_change channel=6 control=11 value=116 time=0
EXTRACT: note_on channel=9 note=46 velocity=0 time=0.019184666666666666
EXTRACT: control_change channel=7 control=11 value=111 time=0.0023980833333333332
EXTRACT: control_change channel=6 control=11 value=111 time=0.0023980833333333332
EXTRACT: control_change channel=7 control=11 value=107 time=0.021582749999999998
EXTRACT: control_change channel=6 control=11 value=107 time=0.0023980833333333332
EXTRACT: control_change channel=7 control=11 value=103 time=0.021582749999999998
EXTRACT: note_on channel=9 note=42 velocity=87 time=0
EXTRACT: control_change channel=6 control=11 value=103 time=0.0023980833333333332
EXTRACT: control_change channel=7 control=11 value=99 time=0.021582749999999998
EXTRACT: control_change channel=6 control=11 value=99 time=0.0023980833333333332
EXTRACT: control_change channel=7 control=11 value=94 time=0.019184666666666666
EXTRACT: control_change channel=6 control=11 value=94 time=0.0023980833333333332
EXTRACT: note_on channel=9 note=42 velocity=0 time=0.009592333333333333
EXTRACT: control_change channel=7 control=11 value=90 time=0.0047961666666666665
EXTRACT: control_change channel=6 control=11 value=90 time=0.0023980833333333332
EXTRACT: control_change channel=7 control=11 value=85 time=0.028776999999999997
EXTRACT: note_on channel=1 note=32 velocity=0 time=0.0023980833333333332
EXTRACT: control_change channel=6 control=11 value=85 time=0
EXTRACT: note_on channel=9 note=70 velocity=82 time=0.014388499999999999
EXTRACT: note_on channel=9 note=37 velocity=91 time=0.007194249999999999
EXTRACT: note_on channel=9 note=28 velocity=68 time=0
EXTRACT: note_on channel=9 note=39 velocity=67 time=0
EXTRACT: note_on channel=9 note=35 velocity=97 time=0
EXTRACT: note_on channel=9 note=28 velocity=0 time=0.0023980833333333332
EXTRACT: note_on channel=9 note=37 velocity=0 time=0
EXTRACT: note_on channel=9 note=40 velocity=67 time=0.0023980833333333332
EXTRACT: control_change channel=7 control=11 value=81 time=0.0023980833333333332
EXTRACT: control_change channel=6 control=11 value=81 time=0.0023980833333333332
EXTRACT: note_on channel=3 note=84 velocity=110 time=0
EXTRACT: note_on channel=3 note=72 velocity=80 time=0
EXTRACT: control_change channel=7 control=11 value=76 time=0.007194249999999999
EXTRACT: note_on channel=9 note=39 velocity=50 time=0
EXTRACT: control_change channel=6 control=11 value=76 time=0.0023980833333333332
EXTRACT: note_on channel=9 note=70 velocity=0 time=0.016786583333333334
EXTRACT: note_on channel=9 note=39 velocity=0 time=0.007194249999999999
EXTRACT: note_on channel=9 note=35 velocity=0 time=0
EXTRACT: control_change channel=7 control=11 value=72 time=0.0047961666666666665
EXTRACT: note_on channel=9 note=40 velocity=0 time=0
EXTRACT: control_change channel=6 control=11 value=72 time=0.0023980833333333332
EXTRACT: note_on channel=9 note=39 velocity=0 time=0.023980833333333333
EXTRACT: control_change channel=7 control=11 value=68 time=0.019184666666666666
EXTRACT: control_change channel=6 control=11 value=68 time=0.0023980833333333332
EXTRACT: control_change channel=7 control=11 value=64 time=0.035971249999999996
EXTRACT: control_change channel=6 control=11 value=64 time=0.0023980833333333332
EXTRACT: control_change channel=7 control=11 value=60 time=0.05275783333333333
EXTRACT: control_change channel=6 control=11 value=60 time=0.0023980833333333332
EXTRACT: note_on channel=3 note=72 velocity=0 time=0.014388499999999999
EXTRACT: note_on channel=3 note=84 velocity=0 time=0
EXTRACT: note_on channel=1 note=32 velocity=118 time=0.0023980833333333332
EXTRACT: note_on channel=9 note=46 velocity=59 time=0.021582749999999998
EXTRACT: control_change channel=7 control=11 value=56 time=0.021582749999999998
EXTRACT: control_change channel=6 control=11 value=56 time=0.0023980833333333332
EXTRACT: note_on channel=9 note=85 velocity=79 time=0.026378916666666665
EXTRACT: note_on channel=9 note=46 velocity=0 time=0.007194249999999999
EXTRACT: note_on channel=9 note=85 velocity=0 time=0.023980833333333333
EXTRACT: note_on channel=9 note=42 velocity=87 time=0.028776999999999997
EXTRACT: control_change channel=7 control=11 value=52 time=0.0047961666666666665
EXTRACT: control_change channel=6 control=11 value=52 time=0.0023980833333333332
EXTRACT: note_on channel=9 note=85 velocity=77 time=0.011990416666666667
EXTRACT: note_on channel=9 note=85 velocity=0 time=0.031175083333333332
EXTRACT: note_on channel=9 note=42 velocity=0 time=0.007194249999999999
EXTRACT: note_on channel=1 note=32 velocity=0 time=0.035971249999999996
EXTRACT: note_on channel=9 note=70 velocity=81 time=0.014388499999999999
EXTRACT: note_on channel=9 note=85 velocity=79 time=0.007194249999999999
EXTRACT: note_on channel=9 note=35 velocity=97 time=0
EXTRACT: note_on channel=3 note=75 velocity=106 time=0.023980833333333333
EXTRACT: note_on channel=3 note=63 velocity=77 time=0
EXTRACT: note_on channel=9 note=85 velocity=0 time=0.007194249999999999
EXTRACT: note_on channel=9 note=70 velocity=0 time=0.019184666666666666
EXTRACT: note_on channel=9 note=35 velocity=0 time=0.007194249999999999
EXTRACT: note_on channel=1 note=32 velocity=121 time=0.16306966666666667
EXTRACT: note_on channel=9 note=46 velocity=61 time=0.021582749999999998
EXTRACT: note_on channel=9 note=46 velocity=0 time=0.057553999999999994
EXTRACT: note_on channel=9 note=42 velocity=87 time=0.05275783333333333
EXTRACT: note_on channel=9 note=42 velocity=0 time=0.057553999999999994
EXTRACT: note_on channel=3 note=63 velocity=0 time=0.007194249999999999
EXTRACT: note_on channel=3 note=75 velocity=0 time=0
EXTRACT: note_on channel=1 note=32 velocity=0 time=0.028776999999999997
EXTRACT: note_on channel=3 note=84 velocity=108 time=0.011990416666666667
EXTRACT: note_on channel=3 note=72 velocity=78 time=0
EXTRACT: note_on channel=9 note=70 velocity=82 time=0.0023980833333333332
EXTRACT: note_on channel=9 note=40 velocity=56 time=0.009592333333333333
EXTRACT: note_on channel=9 note=37 velocity=91 time=0
EXTRACT: note_on channel=9 note=28 velocity=68 time=0
EXTRACT: note_on channel=9 note=39 velocity=72 time=0
EXTRACT: note_on channel=9 note=35 velocity=97 time=0
EXTRACT: note_on channel=9 note=28 velocity=0 time=0.0023980833333333332
EXTRACT: note_on channel=9 note=37 velocity=0 time=0
EXTRACT: control_change channel=7 control=11 value=52 time=0.011990416666666667
EXTRACT: control_change channel=6 control=11 value=52 time=0.0023980833333333332
EXTRACT: note_on channel=9 note=39 velocity=55 time=0.014388499999999999
EXTRACT: control_change channel=4 control=11 value=78 time=0.007194249999999999
EXTRACT: note_on channel=9 note=70 velocity=0 time=0.009592333333333333
EXTRACT: note_on channel=9 note=35 velocity=0 time=0.009592333333333333
EXTRACT: note_on channel=9 note=40 velocity=0 time=0
EXTRACT: note_on channel=9 note=39 velocity=0 time=0
EXTRACT: note_on channel=9 note=39 velocity=0 time=0.031175083333333332
EXTRACT: note_on channel=3 note=72 velocity=0 time=0.08633099999999999
EXTRACT: note_on channel=3 note=84 velocity=0 time=0
EXTRACT: note_on channel=1 note=32 velocity=126 time=0.04556358333333333
EXTRACT: note_on channel=9 note=46 velocity=61 time=0.021582749999999998
EXTRACT: control_change channel=7 control=11 value=56 time=0.028776999999999997
EXTRACT: control_change channel=6 control=11 value=56 time=0.0023980833333333332
EXTRACT: note_on channel=9 note=46 velocity=0 time=0.026378916666666665
EXTRACT: control_change channel=4 control=11 value=80 time=0.043165499999999996
EXTRACT: note_on channel=9 note=42 velocity=86 time=0.007194249999999999
EXTRACT: note_on channel=9 note=42 velocity=0 time=0.057553999999999994
EXTRACT: note_on channel=1 note=32 velocity=0 time=0.03836933333333333
EXTRACT: control_change channel=7 control=11 value=60 time=0.0047961666666666665
EXTRACT: control_change channel=6 control=11 value=60 time=0.0023980833333333332
EXTRACT: note_on channel=9 note=70 velocity=82 time=0.007194249999999999
EXTRACT: note_on channel=3 note=82 velocity=104 time=0.007194249999999999
EXTRACT: note_on channel=3 note=70 velocity=75 time=0
EXTRACT: note_on channel=9 note=35 velocity=97 time=0
EXTRACT: note_on channel=9 note=70 velocity=0 time=0.050359749999999995
EXTRACT: note_on channel=9 note=35 velocity=0 time=0.007194249999999999
EXTRACT: control_change channel=7 control=11 value=64 time=0.026378916666666665
EXTRACT: control_change channel=6 control=11 value=64 time=0.0023980833333333332
EXTRACT: control_change channel=7 control=11 value=68 time=0.05995208333333333
EXTRACT: control_change channel=6 control=11 value=68 time=0.0023980833333333332
EXTRACT: note_on channel=1 note=32 velocity=118 time=0.07194249999999999
EXTRACT: note_on channel=9 note=46 velocity=61 time=0.021582749999999998
EXTRACT: control_change channel=7 control=11 value=72 time=0.007194249999999999
EXTRACT: control_change channel=6 control=11 value=72 time=0.0023980833333333332
EXTRACT: control_change channel=4 control=11 value=82 time=0.028776999999999997
EXTRACT: note_on channel=9 note=46 velocity=0 time=0.019184666666666666
EXTRACT: control_change channel=7 control=11 value=76 time=0.011990416666666667
EXTRACT: control_change channel=6 control=11 value=76 time=0.0023980833333333332
EXTRACT: note_on channel=9 note=42 velocity=83 time=0.03836933333333333
EXTRACT: note_on channel=3 note=70 velocity=0 time=0.028776999999999997
EXTRACT: note_on channel=3 note=82 velocity=0 time=0
EXTRACT: note_on channel=9 note=42 velocity=0 time=0.028776999999999997
EXTRACT: control_change channel=7 control=11 value=80 time=0.019184666666666666
EXTRACT: control_change channel=6 control=11 value=80 time=0.0023980833333333332
EXTRACT: note_on channel=1 note=32 velocity=0 time=0.014388499999999999
EXTRACT: note_on channel=3 note=84 velocity=109 time=0.007194249999999999
EXTRACT: note_on channel=3 note=72 velocity=79 time=0
EXTRACT: note_on channel=9 note=70 velocity=83 time=0.007194249999999999
EXTRACT: note_on channel=9 note=37 velocity=91 time=0.007194249999999999
EXTRACT: note_on channel=9 note=28 velocity=68 time=0
EXTRACT: note_on channel=9 note=39 velocity=67 time=0
EXTRACT: note_on channel=9 note=35 velocity=97 time=0
EXTRACT: note_on channel=9 note=28 velocity=0 time=0.0023980833333333332
EXTRACT: note_on channel=9 note=37 velocity=0 time=0
EXTRACT: note_on channel=9 note=40 velocity=63 time=0.0023980833333333332
EXTRACT: note_on channel=9 note=39 velocity=50 time=0.026378916666666665
EXTRACT: note_on channel=9 note=70 velocity=0 time=0.019184666666666666
EXTRACT: note_on channel=9 note=39 velocity=0 time=0.007194249999999999
EXTRACT: note_on channel=9 note=35 velocity=0 time=0
EXTRACT: note_on channel=9 note=40 velocity=0 time=0.0047961666666666665
EXTRACT: note_on channel=9 note=39 velocity=0 time=0.026378916666666665
EXTRACT: note_on channel=3 note=72 velocity=0 time=0.10311758333333333
EXTRACT: note_on channel=3 note=84 velocity=0 time=0
EXTRACT: control_change channel=7 control=11 value=84 time=0.0023980833333333332
EXTRACT: control_change channel=6 control=11 value=84 time=0.0023980833333333332
EXTRACT: note_on channel=1 note=32 velocity=121 time=0.023980833333333333
EXTRACT: note_on channel=9 note=46 velocity=62 time=0.021582749999999998
EXTRACT: note_on channel=3 note=82 velocity=111 time=0.009592333333333333
EXTRACT: note_on channel=3 note=70 velocity=81 time=0
EXTRACT: note_on channel=9 note=46 velocity=0 time=0.047961666666666666
EXTRACT: control_change channel=7 control=11 value=88 time=0.035971249999999996
EXTRACT: control_change channel=6 control=11 value=88 time=0.0023980833333333332
EXTRACT: note_on channel=9 note=42 velocity=84 time=0.014388499999999999
EXTRACT: control_change channel=7 control=11 value=92 time=0.021582749999999998
EXTRACT: control_change channel=6 control=11 value=92 time=0.0023980833333333332
EXTRACT: note_on channel=9 note=42 velocity=0 time=0.03357316666666667
EXTRACT: note_on channel=1 note=32 velocity=0 time=0.035971249999999996
EXTRACT: note_on channel=9 note=70 velocity=83 time=0.016786583333333334
EXTRACT: control_change channel=4 control=11 value=80 time=0.007194249999999999
EXTRACT: note_on channel=9 note=35 velocity=97 time=0
EXTRACT: note_on channel=9 note=70 velocity=0 time=0.050359749999999995
EXTRACT: note_on channel=9 note=35 velocity=0 time=0.007194249999999999
EXTRACT: note_on channel=3 note=70 velocity=0 time=0.1294965
EXTRACT: note_on channel=3 note=82 velocity=0 time=0
EXTRACT: control_change channel=4 control=11 value=78 time=0.023980833333333333
EXTRACT: control_change channel=7 control=11 value=96 time=0.0047961666666666665
EXTRACT: control_change channel=6 control=11 value=96 time=0.0023980833333333332
EXTRACT: note_on channel=1 note=32 velocity=121 time=0.0023980833333333332
EXTRACT: note_on channel=3 note=80 velocity=106 time=0.021582749999999998
EXTRACT: note_on channel=3 note=68 velocity=77 time=0
EXTRACT: note_on channel=9 note=46 velocity=63 time=0
EXTRACT: control_change channel=7 control=11 value=100 time=0.028776999999999997
EXTRACT: control_change channel=6 control=11 value=100 time=0.0023980833333333332
EXTRACT: note_on channel=9 note=85 velocity=79 time=0.019184666666666666
EXTRACT: note_on channel=9 note=46 velocity=0 time=0.007194249999999999
EXTRACT: control_change channel=7 control=11 value=104 time=0.0023980833333333332
EXTRACT: control_change channel=6 control=11 value=104 time=0.0023980833333333332
EXTRACT: note_on channel=9 note=85 velocity=0 time=0.019184666666666666
EXTRACT: control_change channel=7 control=11 value=109 time=0.0023980833333333332
EXTRACT: control_change channel=6 control=11 value=109 time=0.0023980833333333332
EXTRACT: control_change channel=7 control=11 value=113 time=0.014388499999999999
EXTRACT: control_change channel=6 control=11 value=113 time=0.0023980833333333332
EXTRACT: note_on channel=9 note=42 velocity=83 time=0.0047961666666666665
EXTRACT: control_change channel=7 control=11 value=117 time=0.007194249999999999
EXTRACT: control_change channel=6 control=11 value=117 time=0.0023980833333333332
EXTRACT: note_on channel=9 note=85 velocity=77 time=0.009592333333333333
EXTRACT: control_change channel=7 control=11 value=122 time=0.0047961666666666665
EXTRACT: control_change channel=6 control=11 value=122 time=0.0023980833333333332
EXTRACT: note_on channel=9 note=39 velocity=50 time=0.014388499999999999
EXTRACT: note_on channel=9 note=85 velocity=0 time=0.009592333333333333
EXTRACT: note_on channel=9 note=42 velocity=0 time=0.007194249999999999
EXTRACT: note_on channel=7 note=44 velocity=0 time=0.009592333333333333
EXTRACT: note_on channel=3 note=68 velocity=0 time=0.019184666666666666
EXTRACT: note_on channel=3 note=80 velocity=0 time=0
EXTRACT: note_on channel=6 note=56 velocity=0 time=0
EXTRACT: note_on channel=1 note=32 velocity=0 time=0.009592333333333333
EXTRACT: note_on channel=9 note=39 velocity=0 time=0.0023980833333333332
EXTRACT: control_change channel=4 control=11 value=76 time=0.0047961666666666665
EXTRACT: note_on channel=9 note=70 velocity=83 time=0.007194249999999999
EXTRACT: note_on channel=9 note=40 velocity=54 time=0.007194249999999999
EXTRACT: note_on channel=9 note=37 velocity=91 time=0
EXTRACT: note_on channel=9 note=28 velocity=68 time=0
EXTRACT: note_on channel=9 note=39 velocity=73 time=0
EXTRACT: note_on channel=9 note=85 velocity=79 time=0
EXTRACT: note_on channel=9 note=35 velocity=97 time=0
EXTRACT: note_on channel=9 note=28 velocity=0 time=0.0023980833333333332
EXTRACT: note_on channel=9 note=37 velocity=0 time=0
EXTRACT: note_on channel=3 note=75 velocity=110 time=0.0023980833333333332
EXTRACT: note_on channel=3 note=63 velocity=80 time=0
EXTRACT: note_on channel=9 note=85 velocity=0 time=0.026378916666666665
EXTRACT: note_on channel=9 note=39 velocity=55 time=0
EXTRACT: note_on channel=9 note=70 velocity=0 time=0.019184666666666666
EXTRACT: note_on channel=9 note=35 velocity=0 time=0.007194249999999999
EXTRACT: note_on channel=9 note=40 velocity=0 time=0
EXTRACT: note_on channel=9 note=39 velocity=0 time=0
EXTRACT: note_on channel=9 note=39 velocity=0 time=0.031175083333333332
EXTRACT: note_on channel=7 note=43 velocity=77 time=0.1294965
EXTRACT: note_on channel=1 note=32 velocity=118 time=0.0023980833333333332
EXTRACT: note_on channel=6 note=55 velocity=79 time=0
EXTRACT: note_on channel=9 note=46 velocity=62 time=0.021582749999999998
EXTRACT: control_change channel=7 control=11 value=117 time=0.031175083333333332
EXTRACT: control_change channel=6 control=11 value=117 time=0.0023980833333333332
EXTRACT: control_change channel=7 control=11 value=112 time=0.019184666666666666
EXTRACT: control_change channel=6 control=11 value=112 time=0.0023980833333333332
EXTRACT: note_on channel=9 note=46 velocity=0 time=0.0023980833333333332
EXTRACT: control_change channel=7 control=11 value=108 time=0.011990416666666667
EXTRACT: control_change channel=6 control=11 value=108 time=0.0023980833333333332
EXTRACT: control_change channel=7 control=11 value=99 time=0.021582749999999998
EXTRACT: control_change channel=6 control=11 value=99 time=0.0023980833333333332
EXTRACT: note_on channel=9 note=42 velocity=83 time=0.014388499999999999
EXTRACT: control_change channel=7 control=11 value=94 time=0.0047961666666666665
EXTRACT: control_change channel=6 control=11 value=94 time=0.0023980833333333332
EXTRACT: control_change channel=7 control=11 value=90 time=0.021582749999999998
EXTRACT: control_change channel=6 control=11 value=90 time=0.0023980833333333332
EXTRACT: control_change channel=7 control=11 value=86 time=0.021582749999999998
EXTRACT: control_change channel=6 control=11 value=86 time=0.0023980833333333332
EXTRACT: note_on channel=9 note=42 velocity=0 time=0.0023980833333333332
EXTRACT: note_on channel=7 note=43 velocity=0 time=0.03357316666666667
EXTRACT: control_change channel=7 control=11 value=120 time=0
EXTRACT: note_on channel=1 note=32 velocity=0 time=0.0023980833333333332
EXTRACT: note_on channel=6 note=55 velocity=0 time=0
EXTRACT: control_change channel=6 control=11 value=120 time=0
EXTRACT: note_on channel=7 note=44 velocity=74 time=0.0047961666666666665
EXTRACT: note_on channel=6 note=56 velocity=77 time=0.0023980833333333332
EXTRACT: note_on channel=4 note=63 velocity=0 time=0.0047961666666666665
EXTRACT: note_on channel=4 note=60 velocity=0 time=0
EXTRACT: note_on channel=4 note=56 velocity=0 time=0
EXTRACT: note_on channel=4 note=51 velocity=0 time=0
EXTRACT: note_on channel=9 note=70 velocity=81 time=0.0023980833333333332
EXTRACT: note_on channel=4 note=52 velocity=99 time=0.0047961666666666665
EXTRACT: note_on channel=4 note=64 velocity=105 time=0
EXTRACT: note_on channel=4 note=60 velocity=103 time=0
EXTRACT: note_on channel=4 note=56 velocity=101 time=0
EXTRACT: note_on channel=9 note=35 velocity=97 time=0.0023980833333333332
EXTRACT: note_on channel=3 note=63 velocity=0 time=0.011990416666666667
EXTRACT: note_on channel=3 note=75 velocity=0 time=0
EXTRACT: control_change channel=7 control=11 value=115 time=0.03357316666666667
EXTRACT: control_change channel=6 control=11 value=115 time=0.0023980833333333332
EXTRACT: note_on channel=9 note=70 velocity=0 time=0.0023980833333333332
EXTRACT: note_on channel=9 note=35 velocity=0 time=0.007194249999999999
EXTRACT: control_change channel=7 control=11 value=111 time=0.011990416666666667
EXTRACT: control_change channel=6 control=11 value=111 time=0.0023980833333333332
EXTRACT: control_change channel=7 control=11 value=106 time=0.014388499999999999
EXTRACT: control_change channel=6 control=11 value=106 time=0.0023980833333333332
EXTRACT: control_change channel=7 control=11 value=99 time=0.021582749999999998
EXTRACT: control_change channel=6 control=11 value=99 time=0.0023980833333333332
EXTRACT: control_change channel=7 control=11 value=94 time=0.019184666666666666
EXTRACT: control_change channel=6 control=11 value=94 time=0.0023980833333333332
EXTRACT: control_change channel=7 control=11 value=90 time=0.028776999999999997
EXTRACT: control_change channel=6 control=11 value=90 time=0.0023980833333333332
EXTRACT: control_change channel=7 control=11 value=86 time=0.03836933333333333
EXTRACT: control_change channel=6 control=11 value=86 time=0.0023980833333333332
EXTRACT: note_on channel=7 note=44 velocity=0 time=0.0023980833333333332
EXTRACT: note_on channel=6 note=56 velocity=0 time=0.0023980833333333332
EXTRACT: note_on channel=7 note=44 velocity=69 time=0.007194249999999999
EXTRACT: note_on channel=1 note=32 velocity=126 time=0.0023980833333333332
EXTRACT: note_on channel=6 note=56 velocity=69 time=0
EXTRACT: note_on channel=9 note=46 velocity=61 time=0.021582749999999998
EXTRACT: control_change channel=7 control=11 value=118 time=0.023980833333333333
EXTRACT: control_change channel=6 control=11 value=118 time=0.0023980833333333332
EXTRACT: control_change channel=7 control=11 value=113 time=0.019184666666666666
EXTRACT: control_change channel=6 control=11 value=113 time=0.0023980833333333332
EXTRACT: note_on channel=9 note=46 velocity=0 time=0.009592333333333333
EXTRACT: control_change channel=7 control=11 value=108 time=0.011990416666666667
EXTRACT: control_change channel=6 control=11 value=108 time=0.0023980833333333332
EXTRACT: control_change channel=7 control=11 value=104 time=0.021582749999999998
EXTRACT: control_change channel=6 control=11 value=104 time=0.0023980833333333332
EXTRACT: control_change channel=7 control=11 value=100 time=0.011990416666666667
EXTRACT: control_change channel=6 control=11 value=100 time=0.0023980833333333332
EXTRACT: note_on channel=9 note=42 velocity=87 time=0
EXTRACT: control_change channel=7 control=11 value=96 time=0.014388499999999999
EXTRACT: control_change channel=6 control=11 value=96 time=0.0023980833333333332
EXTRACT: control_change channel=7 control=11 value=91 time=0.021582749999999998
EXTRACT: control_change channel=6 control=11 value=91 time=0.0023980833333333332
EXTRACT: control_change channel=7 control=11 value=87 time=0.011990416666666667
EXTRACT: control_change channel=6 control=11 value=87 time=0.0023980833333333332
EXTRACT: note_on channel=9 note=42 velocity=0 time=0.0023980833333333332
EXTRACT: control_change channel=7 control=11 value=83 time=0.011990416666666667
EXTRACT: control_change channel=6 control=11 value=83 time=0.0023980833333333332
EXTRACT: note_on channel=1 note=32 velocity=0 time=0.021582749999999998
EXTRACT: control_change channel=7 control=11 value=79 time=0
EXTRACT: control_change channel=6 control=11 value=79 time=0.0023980833333333332
EXTRACT: note_on channel=9 note=70 velocity=82 time=0.014388499999999999
EXTRACT: control_change channel=7 control=11 value=75 time=0.0047961666666666665
EXTRACT: note_on channel=3 note=84 velocity=112 time=0.0023980833333333332
EXTRACT: note_on channel=3 note=72 velocity=81 time=0
EXTRACT: control_change channel=6 control=11 value=75 time=0
EXTRACT: note_on channel=9 note=37 velocity=91 time=0
EXTRACT: note_on channel=9 note=28 velocity=68 time=0
EXTRACT: note_on channel=9 note=39 velocity=67 time=0
EXTRACT: note_on channel=9 note=35 velocity=97 time=0
EXTRACT: note_on channel=9 note=28 velocity=0 time=0.0023980833333333332
EXTRACT: note_on channel=9 note=37 velocity=0 time=0
EXTRACT: note_on channel=9 note=40 velocity=65 time=0
EXTRACT: control_change channel=7 control=11 value=70 time=0.019184666666666666
EXTRACT: control_change channel=6 control=11 value=70 time=0.0023980833333333332
EXTRACT: note_on channel=9 note=39 velocity=50 time=0.007194249999999999
EXTRACT: control_change channel=7 control=11 value=65 time=0.014388499999999999
EXTRACT: control_change channel=6 control=11 value=65 time=0.0023980833333333332
EXTRACT: note_on channel=9 note=70 velocity=0 time=0.0023980833333333332
EXTRACT: note_on channel=9 note=39 velocity=0 time=0.007194249999999999
EXTRACT: note_on channel=9 note=35 velocity=0 time=0
EXTRACT: note_on channel=9 note=40 velocity=0 time=0.0023980833333333332
EXTRACT: control_change channel=7 control=11 value=61 time=0.016786583333333334
EXTRACT: control_change channel=6 control=11 value=61 time=0.0023980833333333332
EXTRACT: note_on channel=9 note=39 velocity=0 time=0.009592333333333333
EXTRACT: control_change channel=7 control=11 value=57 time=0.03357316666666667
EXTRACT: control_change channel=6 control=11 value=57 time=0.0023980833333333332
EXTRACT: control_change channel=7 control=11 value=53 time=0.028776999999999997
EXTRACT: control_change channel=6 control=11 value=53 time=0.0023980833333333332
EXTRACT: note_on channel=3 note=72 velocity=0 time=0.03357316666666667
EXTRACT: note_on channel=3 note=84 velocity=0 time=0
EXTRACT: note_on channel=1 note=32 velocity=118 time=0.031175083333333332
EXTRACT: control_change channel=7 control=11 value=49 time=0.0047961666666666665
EXTRACT: control_change channel=6 control=11 value=49 time=0.0023980833333333332
EXTRACT: note_on channel=9 note=46 velocity=59 time=0.014388499999999999
EXTRACT: control_change channel=7 control=11 value=45 time=0.014388499999999999
EXTRACT: control_change channel=6 control=11 value=45 time=0.0023980833333333332
EXTRACT: note_on channel=9 note=85 velocity=79 time=0.03357316666666667
EXTRACT: note_on channel=9 note=46 velocity=0 time=0.007194249999999999
EXTRACT: control_change channel=7 control=11 value=41 time=0.011990416666666667
EXTRACT: control_change channel=6 control=11 value=41 time=0.0023980833333333332
EXTRACT: note_on channel=9 note=85 velocity=0 time=0.009592333333333333
EXTRACT: note_on channel=9 note=42 velocity=87 time=0.026378916666666665
EXTRACT: note_on channel=9 note=85 velocity=77 time=0.019184666666666666
EXTRACT: note_on channel=9 note=85 velocity=0 time=0.031175083333333332
EXTRACT: note_on channel=9 note=42 velocity=0 time=0.007194249999999999
EXTRACT: note_on channel=1 note=32 velocity=0 time=0.03836933333333333
EXTRACT: note_on channel=9 note=70 velocity=81 time=0.014388499999999999
EXTRACT: note_on channel=9 note=85 velocity=79 time=0.007194249999999999
EXTRACT: note_on channel=9 note=35 velocity=97 time=0
EXTRACT: note_on channel=3 note=76 velocity=110 time=0.011990416666666667
EXTRACT: note_on channel=3 note=64 velocity=80 time=0
EXTRACT: note_on channel=9 note=85 velocity=0 time=0.019184666666666666
EXTRACT: note_on channel=9 note=70 velocity=0 time=0.019184666666666666
EXTRACT: note_on channel=9 note=35 velocity=0 time=0.007194249999999999
EXTRACT: control_change channel=7 control=11 value=37 time=0.06714633333333334
EXTRACT: control_change channel=6 control=11 value=37 time=0.0023980833333333332
EXTRACT: note_on channel=1 note=32 velocity=121 time=0.09352524999999999
EXTRACT: note_on channel=9 note=46 velocity=61 time=0.021582749999999998
EXTRACT: note_on channel=9 note=46 velocity=0 time=0.057553999999999994
EXTRACT: note_on channel=9 note=42 velocity=87 time=0.05275783333333333
EXTRACT: note_on channel=9 note=42 velocity=0 time=0.057553999999999994
EXTRACT: note_on channel=1 note=32 velocity=0 time=0.035971249999999996
EXTRACT: note_on channel=9 note=70 velocity=82 time=0.014388499999999999
EXTRACT: note_on channel=3 note=64 velocity=0 time=0.0023980833333333332
EXTRACT: note_on channel=3 note=76 velocity=0 time=0
EXTRACT: note_on channel=9 note=40 velocity=56 time=0.0047961666666666665
EXTRACT: note_on channel=9 note=37 velocity=91 time=0
EXTRACT: note_on channel=9 note=28 velocity=68 time=0
EXTRACT: note_on channel=9 note=39 velocity=72 time=0
EXTRACT: note_on channel=9 note=35 velocity=97 time=0
EXTRACT: note_on channel=9 note=28 velocity=0 time=0.0023980833333333332
EXTRACT: note_on channel=9 note=37 velocity=0 time=0
EXTRACT: note_on channel=3 note=84 velocity=111 time=0.019184666666666666
EXTRACT: note_on channel=3 note=72 velocity=81 time=0
EXTRACT: note_on channel=9 note=39 velocity=55 time=0.009592333333333333
EXTRACT: note_on channel=9 note=70 velocity=0 time=0.019184666666666666
EXTRACT: note_on channel=9 note=35 velocity=0 time=0.007194249999999999
EXTRACT: note_on channel=9 note=40 velocity=0 time=0
EXTRACT: note_on channel=9 note=39 velocity=0 time=0
EXTRACT: note_on channel=9 note=39 velocity=0 time=0.031175083333333332
EXTRACT: control_change channel=7 control=11 value=41 time=0.0047961666666666665
EXTRACT: control_change channel=6 control=11 value=41 time=0.0023980833333333332
EXTRACT: control_change channel=4 control=11 value=78 time=0.007194249999999999
EXTRACT: note_on channel=1 note=32 velocity=126 time=0.11750608333333333
EXTRACT: note_on channel=9 note=46 velocity=61 time=0.021582749999999998
EXTRACT: note_on channel=3 note=72 velocity=0 time=0.047961666666666666
EXTRACT: note_on channel=3 note=84 velocity=0 time=0
EXTRACT: note_on channel=9 note=46 velocity=0 time=0.009592333333333333
EXTRACT: note_on channel=9 note=42 velocity=86 time=0.05275783333333333
EXTRACT: control_change channel=7 control=11 value=45 time=0.021582749999999998
EXTRACT: control_change channel=6 control=11 value=45 time=0.0023980833333333332
EXTRACT: note_on channel=9 note=42 velocity=0 time=0.03357316666666667
EXTRACT: note_on channel=1 note=32 velocity=0 time=0.035971249999999996
EXTRACT: control_change channel=7 control=11 value=49 time=0.007194249999999999
EXTRACT: control_change channel=11 control=11 value=65 time=0
EXTRACT: control_change channel=6 control=11 value=49 time=0.0023980833333333332
EXTRACT: control_change channel=11 control=91 value=60 time=0.0023980833333333332
EXTRACT: control_change channel=11 control=10 value=64 time=0.0023980833333333332
EXTRACT: note_on channel=9 note=70 velocity=82 time=0.0023980833333333332
EXTRACT: note_on channel=11 note=51 velocity=127 time=0.0023980833333333332
EXTRACT: note_on channel=9 note=35 velocity=97 time=0.0047961666666666665
EXTRACT: note_on channel=11 note=51 velocity=0 time=0.026378916666666665
EXTRACT: note_on channel=3 note=82 velocity=110 time=0.0047961666666666665
EXTRACT: note_on channel=3 note=70 velocity=80 time=0
EXTRACT: note_on channel=9 note=70 velocity=0 time=0.019184666666666666
EXTRACT: note_on channel=9 note=35 velocity=0 time=0.007194249999999999
EXTRACT: control_change channel=7 control=11 value=53 time=0.019184666666666666
EXTRACT: control_change channel=6 control=11 value=53 time=0.0023980833333333332
EXTRACT: control_change channel=7 control=11 value=57 time=0.028776999999999997
EXTRACT: control_change channel=6 control=11 value=57 time=0.0023980833333333332
EXTRACT: control_change channel=4 control=11 value=80 time=0.007194249999999999
EXTRACT: control_change channel=7 control=11 value=61 time=0.05275783333333333
EXTRACT: control_change channel=6 control=11 value=61 time=0.0023980833333333332
EXTRACT: note_on channel=1 note=32 velocity=118 time=0.047961666666666666
EXTRACT: note_on channel=9 note=46 velocity=61 time=0.021582749999999998
EXTRACT: control_change channel=7 control=11 value=65 time=0.014388499999999999
EXTRACT: control_change channel=6 control=11 value=65 time=0.0023980833333333332
EXTRACT: note_on channel=9 note=46 velocity=0 time=0.04076741666666667
EXTRACT: control_change channel=7 control=11 value=69 time=0.050359749999999995
EXTRACT: note_on channel=9 note=42 velocity=83 time=0
EXTRACT: control_change channel=6 control=11 value=69 time=0.0023980833333333332
EXTRACT: note_on channel=9 note=42 velocity=0 time=0.055155916666666666
EXTRACT: note_on channel=3 note=70 velocity=0 time=0.0047961666666666665
EXTRACT: note_on channel=3 note=82 velocity=0 time=0
EXTRACT: control_change channel=7 control=11 value=73 time=0.014388499999999999
EXTRACT: control_change channel=6 control=11 value=73 time=0.0023980833333333332
EXTRACT: note_on channel=1 note=32 velocity=0 time=0.016786583333333334
EXTRACT: note_on channel=3 note=84 velocity=108 time=0.0023980833333333332
EXTRACT: note_on channel=3 note=72 velocity=78 time=0
EXTRACT: note_on channel=9 note=70 velocity=83 time=0.011990416666666667
EXTRACT: note_on channel=11 note=44 velocity=127 time=0.0023980833333333332
EXTRACT: note_on channel=9 note=37 velocity=91 time=0.0047961666666666665
EXTRACT: note_on channel=9 note=28 velocity=68 time=0
EXTRACT: note_on channel=9 note=39 velocity=67 time=0
EXTRACT: note_on channel=9 note=35 velocity=97 time=0
EXTRACT: note_on channel=9 note=28 velocity=0 time=0.0023980833333333332
EXTRACT: note_on channel=9 note=37 velocity=0 time=0
EXTRACT: note_on channel=9 note=40 velocity=63 time=0.0023980833333333332
EXTRACT: note_on channel=11 note=44 velocity=0 time=0.021582749999999998
EXTRACT: note_on channel=9 note=39 velocity=50 time=0.0047961666666666665
EXTRACT: note_on channel=9 note=70 velocity=0 time=0.019184666666666666
EXTRACT: note_on channel=9 note=39 velocity=0 time=0.007194249999999999
EXTRACT: note_on channel=9 note=35 velocity=0 time=0
EXTRACT: control_change channel=7 control=11 value=77 time=0.0047961666666666665
EXTRACT: note_on channel=9 note=40 velocity=0 time=0
EXTRACT: control_change channel=6 control=11 value=77 time=0.0023980833333333332
EXTRACT: note_on channel=9 note=39 velocity=0 time=0.023980833333333333
EXTRACT: note_on channel=3 note=72 velocity=0 time=0.11270991666666666
EXTRACT: note_on channel=3 note=84 velocity=0 time=0
EXTRACT: note_on channel=1 note=32 velocity=121 time=0.019184666666666666
EXTRACT: note_on channel=9 note=46 velocity=62 time=0.021582749999999998
EXTRACT: note_on channel=3 note=82 velocity=111 time=0.011990416666666667
EXTRACT: note_on channel=3 note=70 velocity=81 time=0
EXTRACT: control_change channel=7 control=11 value=81 time=0.019184666666666666
EXTRACT: control_change channel=6 control=11 value=81 time=0.0023980833333333332
EXTRACT: note_on channel=9 note=46 velocity=0 time=0.023980833333333333
EXTRACT: control_change channel=7 control=11 value=85 time=0.050359749999999995
EXTRACT: control_change channel=6 control=11 value=85 time=0.0023980833333333332
EXTRACT: note_on channel=9 note=42 velocity=84 time=0
EXTRACT: note_on channel=9 note=42 velocity=0 time=0.057553999999999994
EXTRACT: note_on channel=1 note=32 velocity=0 time=0.035971249999999996
EXTRACT: note_on channel=9 note=70 velocity=83 time=0.014388499999999999
EXTRACT: note_on channel=11 note=51 velocity=127 time=0.0023980833333333332
EXTRACT: note_on channel=9 note=35 velocity=97 time=0.0047961666666666665
EXTRACT: note_on channel=11 note=51 velocity=0 time=0.026378916666666665
EXTRACT: note_on channel=9 note=70 velocity=0 time=0.023980833333333333
EXTRACT: note_on channel=9 note=35 velocity=0 time=0.007194249999999999
EXTRACT: control_change channel=4 control=11 value=78 time=0.05275783333333333
EXTRACT: note_on channel=3 note=70 velocity=0 time=0.021582749999999998
EXTRACT: note_on channel=3 note=82 velocity=0 time=0
EXTRACT: control_change channel=7 control=11 value=89 time=0.031175083333333332
EXTRACT: control_change channel=6 control=11 value=89 time=0.0023980833333333332
EXTRACT: control_change channel=7 control=11 value=93 time=0.05275783333333333
EXTRACT: note_on channel=1 note=32 velocity=121 time=0.0023980833333333332
EXTRACT: control_change channel=6 control=11 value=93 time=0
EXTRACT: note_on channel=3 note=80 velocity=107 time=0.011990416666666667
EXTRACT: note_on channel=3 note=68 velocity=78 time=0
EXTRACT: note_on channel=9 note=46 velocity=63 time=0.009592333333333333
EXTRACT: control_change channel=7 control=11 value=98 time=0.031175083333333332
EXTRACT: control_change channel=6 control=11 value=98 time=0.0023980833333333332
EXTRACT: note_on channel=9 note=85 velocity=79 time=0.019184666666666666
EXTRACT: note_on channel=9 note=46 velocity=0 time=0.0047961666666666665
EXTRACT: control_change channel=7 control=11 value=103 time=0.0047961666666666665
EXTRACT: control_change channel=6 control=11 value=103 time=0.0023980833333333332
EXTRACT: note_on channel=9 note=85 velocity=0 time=0.019184666666666666
EXTRACT: control_change channel=7 control=11 value=109 time=0.0023980833333333332
EXTRACT: control_change channel=6 control=11 value=109 time=0.0023980833333333332
EXTRACT: control_change channel=7 control=11 value=113 time=0.011990416666666667
EXTRACT: control_change channel=6 control=11 value=113 time=0.0023980833333333332
EXTRACT: note_on channel=9 note=42 velocity=83 time=0.007194249999999999
EXTRACT: control_change channel=7 control=11 value=120 time=0.007194249999999999
EXTRACT: control_change channel=6 control=11 value=120 time=0.0023980833333333332
EXTRACT: note_on channel=9 note=85 velocity=77 time=0.009592333333333333
EXTRACT: control_change channel=7 control=11 value=120 time=0.011990416666666667
EXTRACT: control_change channel=6 control=11 value=120 time=0.0023980833333333332
EXTRACT: note_on channel=9 note=39 velocity=50 time=0.0047961666666666665
EXTRACT: note_on channel=9 note=85 velocity=0 time=0.011990416666666667
EXTRACT: note_on channel=9 note=42 velocity=0 time=0.007194249999999999
EXTRACT: note_on channel=7 note=44 velocity=0 time=0.0023980833333333332
EXTRACT: note_on channel=3 note=68 velocity=0 time=0.009592333333333333
EXTRACT: note_on channel=3 note=80 velocity=0 time=0
EXTRACT: control_change channel=4 control=11 value=76 time=0
EXTRACT: note_on channel=6 note=56 velocity=0 time=0.011990416666666667
EXTRACT: note_on channel=1 note=32 velocity=0 time=0.011990416666666667
EXTRACT: note_on channel=9 note=39 velocity=0 time=0.0023980833333333332
EXTRACT: note_on channel=3 note=76 velocity=112 time=0.014388499999999999
EXTRACT: note_on channel=3 note=64 velocity=81 time=0
EXTRACT: note_on channel=9 note=70 velocity=83 time=0
EXTRACT: note_on channel=11 note=44 velocity=127 time=0.0023980833333333332
EXTRACT: note_on channel=9 note=40 velocity=53 time=0.0047961666666666665
EXTRACT: note_on channel=9 note=37 velocity=91 time=0
EXTRACT: note_on channel=9 note=28 velocity=68 time=0
EXTRACT: note_on channel=9 note=39 velocity=73 time=0
EXTRACT: note_on channel=9 note=85 velocity=79 time=0
EXTRACT: note_on channel=9 note=35 velocity=97 time=0
EXTRACT: note_on channel=9 note=28 velocity=0 time=0.0023980833333333332
EXTRACT: note_on channel=9 note=37 velocity=0 time=0
EXTRACT: note_on channel=11 note=44 velocity=0 time=0.023980833333333333
EXTRACT: note_on channel=9 note=85 velocity=0 time=0.0047961666666666665
EXTRACT: note_on channel=9 note=39 velocity=55 time=0
EXTRACT: note_on channel=9 note=70 velocity=0 time=0.019184666666666666
EXTRACT: note_on channel=9 note=35 velocity=0 time=0.007194249999999999
EXTRACT: note_on channel=9 note=40 velocity=0 time=0
EXTRACT: note_on channel=9 note=39 velocity=0 time=0
EXTRACT: note_on channel=9 note=39 velocity=0 time=0.031175083333333332
EXTRACT: note_on channel=7 note=43 velocity=80 time=0.1294965
EXTRACT: note_on channel=1 note=32 velocity=118 time=0.0023980833333333332
EXTRACT: note_on channel=6 note=55 velocity=79 time=0
EXTRACT: note_on channel=9 note=46 velocity=62 time=0.021582749999999998
EXTRACT: control_change channel=7 control=11 value=116 time=0.03836933333333333
EXTRACT: control_change channel=6 control=11 value=116 time=0.0023980833333333332
EXTRACT: note_on channel=9 note=46 velocity=0 time=0.016786583333333334
EXTRACT: control_change channel=7 control=11 value=112 time=0.0023980833333333332
EXTRACT: control_change channel=6 control=11 value=112 time=0.0023980833333333332
EXTRACT: control_change channel=7 control=11 value=107 time=0.021582749999999998
EXTRACT: control_change channel=6 control=11 value=107 time=0.0023980833333333332
EXTRACT: control_change channel=7 control=11 value=101 time=0.021582749999999998
EXTRACT: note_on channel=9 note=42 velocity=83 time=0
EXTRACT: control_change channel=6 control=11 value=101 time=0.0023980833333333332
EXTRACT: control_change channel=7 control=11 value=96 time=0.028776999999999997
EXTRACT: control_change channel=6 control=11 value=96 time=0.0023980833333333332
EXTRACT: note_on channel=9 note=42 velocity=0 time=0.023980833333333333
EXTRACT: control_change channel=7 control=11 value=92 time=0.011990416666666667
EXTRACT: control_change channel=6 control=11 value=92 time=0.0023980833333333332
EXTRACT: note_on channel=3 note=64 velocity=0 time=0.0023980833333333332
EXTRACT: note_on channel=3 note=76 velocity=0 time=0
EXTRACT: note_on channel=7 note=43 velocity=0 time=0.019184666666666666
EXTRACT: note_on channel=1 note=32 velocity=0 time=0.0023980833333333332
EXTRACT: note_on channel=6 note=55 velocity=0 time=0
EXTRACT: note_on channel=7 note=44 velocity=79 time=0.0047961666666666665
EXTRACT: note_on channel=6 note=56 velocity=78 time=0.0023980833333333332
EXTRACT: note_on channel=4 note=56 velocity=0 time=0.007194249999999999
EXTRACT: note_on channel=4 note=60 velocity=0 time=0
EXTRACT: note_on channel=4 note=56 velocity=99 time=0
EXTRACT: note_on channel=4 note=65 velocity=104 time=0
EXTRACT: note_on channel=4 note=53 velocity=99 time=0
EXTRACT: note_on channel=4 note=60 velocity=102 time=0
EXTRACT: note_on channel=9 note=70 velocity=81 time=0
EXTRACT: note_on channel=4 note=64 velocity=0 time=0.0023980833333333332
EXTRACT: note_on channel=4 note=52 velocity=0 time=0
EXTRACT: note_on channel=11 note=52 velocity=127 time=0
EXTRACT: note_on channel=9 note=35 velocity=97 time=0.0047961666666666665
EXTRACT: note_on channel=11 note=52 velocity=0 time=0.026378916666666665
EXTRACT: control_change channel=7 control=11 value=118 time=0.011990416666666667
EXTRACT: control_change channel=6 control=11 value=118 time=0.0023980833333333332
EXTRACT: note_on channel=9 note=70 velocity=0 time=0.009592333333333333
EXTRACT: note_on channel=9 note=35 velocity=0 time=0.007194249999999999
EXTRACT: control_change channel=7 control=11 value=113 time=0.011990416666666667
EXTRACT: control_change channel=6 control=11 value=113 time=0.0023980833333333332
EXTRACT: control_change channel=7 control=11 value=106 time=0.028776999999999997
EXTRACT: control_change channel=6 control=11 value=106 time=0.0023980833333333332
EXTRACT: control_change channel=7 control=11 value=102 time=0.028776999999999997
EXTRACT: control_change channel=6 control=11 value=102 time=0.0023980833333333332
EXTRACT: control_change channel=7 control=11 value=98 time=0.028776999999999997
EXTRACT: control_change channel=6 control=11 value=98 time=0.0023980833333333332
EXTRACT: note_on channel=7 note=44 velocity=0 time=0.043165499999999996
EXTRACT: note_on channel=6 note=56 velocity=0 time=0.0023980833333333332
EXTRACT: control_change channel=7 control=11 value=120 time=0
EXTRACT: control_change channel=6 control=11 value=120 time=0.0023980833333333332
EXTRACT: note_on channel=7 note=44 velocity=70 time=0.0047961666666666665
EXTRACT: note_on channel=1 note=32 velocity=126 time=0.0023980833333333332
EXTRACT: note_on channel=6 note=56 velocity=69 time=0
EXTRACT: note_on channel=9 note=46 velocity=61 time=0.021582749999999998
EXTRACT: control_change channel=7 control=11 value=116 time=0.03836933333333333
EXTRACT: control_change channel=6 control=11 value=116 time=0.0023980833333333332
EXTRACT: note_on channel=9 note=46 velocity=0 time=0.016786583333333334
EXTRACT: control_change channel=7 control=11 value=111 time=0.011990416666666667
EXTRACT: control_change channel=6 control=11 value=111 time=0.0023980833333333332
EXTRACT: control_change channel=7 control=11 value=107 time=0.021582749999999998
EXTRACT: control_change channel=6 control=11 value=107 time=0.0023980833333333332
EXTRACT: note_on channel=9 note=42 velocity=87 time=0.014388499999999999
EXTRACT: control_change channel=7 control=11 value=102 time=0.014388499999999999
EXTRACT: control_change channel=6 control=11 value=102 time=0.0023980833333333332
EXTRACT: control_change channel=7 control=11 value=98 time=0.019184666666666666
EXTRACT: control_change channel=6 control=11 value=98 time=0.0023980833333333332
EXTRACT: control_change channel=7 control=11 value=94 time=0.014388499999999999
EXTRACT: control_change channel=6 control=11 value=94 time=0.0023980833333333332
EXTRACT: note_on channel=9 note=42 velocity=0 time=0.0023980833333333332
EXTRACT: control_change channel=7 control=11 value=89 time=0.019184666666666666
EXTRACT: control_change channel=6 control=11 value=89 time=0.0023980833333333332
EXTRACT: note_on channel=3 note=84 velocity=112 time=0.009592333333333333
EXTRACT: note_on channel=3 note=72 velocity=81 time=0
EXTRACT: note_on channel=1 note=32 velocity=0 time=0.0047961666666666665
EXTRACT: note_on channel=9 note=70 velocity=83 time=0.014388499999999999
EXTRACT: note_on channel=11 note=52 velocity=127 time=0.0047961666666666665
EXTRACT: control_change channel=7 control=11 value=85 time=0.0023980833333333332
EXTRACT: control_change channel=6 control=11 value=85 time=0.0023980833333333332
EXTRACT: note_on channel=9 note=37 velocity=91 time=0
EXTRACT: note_on channel=9 note=28 velocity=68 time=0
EXTRACT: note_on channel=9 note=39 velocity=67 time=0
EXTRACT: note_on channel=9 note=35 velocity=97 time=0
EXTRACT: note_on channel=9 note=28 velocity=0 time=0.0023980833333333332
EXTRACT: note_on channel=9 note=37 velocity=0 time=0
EXTRACT: note_on channel=9 note=40 velocity=65 time=0
EXTRACT: note_on channel=11 note=52 velocity=0 time=0.023980833333333333
EXTRACT: control_change channel=7 control=11 value=79 time=0.0023980833333333332
EXTRACT: control_change channel=6 control=11 value=79 time=0.0023980833333333332
EXTRACT: note_on channel=9 note=39 velocity=50 time=0
EXTRACT: note_on channel=9 note=70 velocity=0 time=0.016786583333333334
EXTRACT: note_on channel=9 note=39 velocity=0 time=0.009592333333333333
EXTRACT: note_on channel=9 note=35 velocity=0 time=0
EXTRACT: control_change channel=7 control=11 value=75 time=0.0023980833333333332
EXTRACT: note_on channel=9 note=40 velocity=0 time=0
EXTRACT: control_change channel=6 control=11 value=75 time=0.0023980833333333332
EXTRACT: note_on channel=9 note=39 velocity=0 time=0.026378916666666665
EXTRACT: control_change channel=7 control=11 value=71 time=0.026378916666666665
EXTRACT: control_change channel=6 control=11 value=71 time=0.0023980833333333332
EXTRACT: control_change channel=7 control=11 value=67 time=0.035971249999999996
EXTRACT: control_change channel=6 control=11 value=67 time=0.0023980833333333332
EXTRACT: note_on channel=3 note=72 velocity=0 time=0.05995208333333333
EXTRACT: note_on channel=3 note=84 velocity=0 time=0
EXTRACT: note_on channel=1 note=32 velocity=118 time=0.0023980833333333332
EXTRACT: control_change channel=7 control=11 value=63 time=0.014388499999999999
EXTRACT: control_change channel=6 control=11 value=63 time=0.0023980833333333332
EXTRACT: note_on channel=9 note=46 velocity=59 time=0.0047961666666666665
EXTRACT: note_on channel=9 note=85 velocity=79 time=0.05275783333333333
EXTRACT: note_on channel=9 note=46 velocity=0 time=0.0047961666666666665
EXTRACT: control_change channel=7 control=11 value=59 time=0.0047961666666666665
EXTRACT: control_change channel=6 control=11 value=59 time=0.0023980833333333332
EXTRACT: note_on channel=9 note=85 velocity=0 time=0.019184666666666666
EXTRACT: note_on channel=9 note=42 velocity=87 time=0.026378916666666665
EXTRACT: note_on channel=9 note=85 velocity=77 time=0.019184666666666666
EXTRACT: note_on channel=9 note=85 velocity=0 time=0.031175083333333332
EXTRACT: note_on channel=9 note=42 velocity=0 time=0.007194249999999999
EXTRACT: note_on channel=1 note=32 velocity=0 time=0.035971249999999996
EXTRACT: note_on channel=3 note=77 velocity=112 time=0.0047961666666666665
EXTRACT: note_on channel=3 note=65 velocity=81 time=0
EXTRACT: note_on channel=9 note=70 velocity=83 time=0.011990416666666667
EXTRACT: note_on channel=9 note=85 velocity=79 time=0.007194249999999999
EXTRACT: note_on channel=9 note=35 velocity=97 time=0
EXTRACT: note_on channel=9 note=85 velocity=0 time=0.031175083333333332
EXTRACT: note_on channel=9 note=70 velocity=0 time=0.019184666666666666
EXTRACT: note_on channel=9 note=35 velocity=0 time=0.007194249999999999
EXTRACT: control_change channel=7 control=11 value=55 time=0.06474825
EXTRACT: control_change channel=6 control=11 value=55 time=0.0023980833333333332
EXTRACT: note_on channel=1 note=32 velocity=121 time=0.09592333333333333
EXTRACT: note_on channel=9 note=46 velocity=61 time=0.021582749999999998
EXTRACT: note_on channel=9 note=46 velocity=0 time=0.057553999999999994
EXTRACT: note_on channel=9 note=42 velocity=87 time=0.050359749999999995
EXTRACT: note_on channel=3 note=65 velocity=0 time=0.023980833333333333
EXTRACT: note_on channel=3 note=77 velocity=0 time=0
EXTRACT: note_on channel=9 note=42 velocity=0 time=0.03357316666666667
EXTRACT: note_on channel=3 note=84 velocity=110 time=0.035971249999999996
EXTRACT: note_on channel=3 note=72 velocity=80 time=0
EXTRACT: note_on channel=1 note=32 velocity=0 time=0.0023980833333333332
EXTRACT: note_on channel=9 note=70 velocity=82 time=0.014388499999999999
EXTRACT: note_on channel=9 note=40 velocity=56 time=0.007194249999999999
EXTRACT: note_on channel=9 note=37 velocity=91 time=0
EXTRACT: note_on channel=9 note=28 velocity=68 time=0
EXTRACT: note_on channel=9 note=39 velocity=72 time=0
EXTRACT: note_on channel=9 note=35 velocity=97 time=0
EXTRACT: note_on channel=9 note=28 velocity=0 time=0.0023980833333333332
EXTRACT: note_on channel=9 note=37 velocity=0 time=0
EXTRACT: note_on channel=9 note=39 velocity=55 time=0.028776999999999997
EXTRACT: note_on channel=9 note=70 velocity=0 time=0.019184666666666666
EXTRACT: note_on channel=9 note=35 velocity=0 time=0.007194249999999999
EXTRACT: note_on channel=9 note=40 velocity=0 time=0
EXTRACT: note_on channel=9 note=39 velocity=0 time=0
EXTRACT: note_on channel=9 note=39 velocity=0 time=0.031175083333333332
EXTRACT: control_change channel=4 control=11 value=78 time=0.014388499999999999
EXTRACT: note_on channel=3 note=72 velocity=0 time=0.07434058333333333
EXTRACT: note_on channel=3 note=84 velocity=0 time=0
EXTRACT: note_on channel=1 note=32 velocity=126 time=0.043165499999999996
EXTRACT: note_on channel=9 note=46 velocity=61 time=0.021582749999999998
EXTRACT: note_on channel=3 note=82 velocity=108 time=0.011990416666666667
EXTRACT: note_on channel=3 note=70 velocity=78 time=0
EXTRACT: control_change channel=7 control=11 value=59 time=0.0023980833333333332
EXTRACT: control_change channel=6 control=11 value=59 time=0.0023980833333333332
EXTRACT: note_on channel=9 note=46 velocity=0 time=0.04076741666666667
EXTRACT: note_on channel=9 note=42 velocity=86 time=0.05275783333333333
EXTRACT: note_on channel=9 note=42 velocity=0 time=0.057553999999999994
EXTRACT: control_change channel=7 control=11 value=63 time=0.026378916666666665
EXTRACT: control_change channel=6 control=11 value=63 time=0.0023980833333333332
EXTRACT: note_on channel=1 note=32 velocity=0 time=0.007194249999999999
EXTRACT: note_on channel=9 note=70 velocity=83 time=0.014388499999999999
EXTRACT: note_on channel=9 note=35 velocity=97 time=0.009592333333333333
EXTRACT: note_on channel=9 note=70 velocity=0 time=0.047961666666666666
EXTRACT: note_on channel=9 note=35 velocity=0 time=0.009592333333333333
EXTRACT: control_change channel=7 control=11 value=67 time=0.009592333333333333
EXTRACT: control_change channel=6 control=11 value=67 time=0.0023980833333333332
EXTRACT: control_change channel=4 control=11 value=80 time=0.04556358333333333
EXTRACT: control_change channel=7 control=11 value=71 time=0.023980833333333333
EXTRACT: control_change channel=6 control=11 value=71 time=0.0023980833333333332
EXTRACT: note_on channel=1 note=32 velocity=118 time=0.07673866666666666
EXTRACT: control_change channel=7 control=11 value=75 time=0.021582749999999998
EXTRACT: note_on channel=9 note=46 velocity=61 time=0
EXTRACT: control_change channel=6 control=11 value=75 time=0.0023980833333333332
EXTRACT: note_on channel=9 note=46 velocity=0 time=0.055155916666666666
EXTRACT: control_change channel=7 control=11 value=79 time=0.011990416666666667
EXTRACT: control_change channel=6 control=11 value=79 time=0.0023980833333333332
EXTRACT: note_on channel=9 note=42 velocity=83 time=0.03836933333333333
EXTRACT: note_on channel=3 note=70 velocity=0 time=0.057553999999999994
EXTRACT: note_on channel=3 note=82 velocity=0 time=0
EXTRACT: note_on channel=9 note=42 velocity=0 time=0
EXTRACT: control_change channel=7 control=11 value=83 time=0.019184666666666666
EXTRACT: control_change channel=6 control=11 value=83 time=0.0023980833333333332
EXTRACT: note_on channel=1 note=32 velocity=0 time=0.014388499999999999
EXTRACT: note_on channel=3 note=84 velocity=109 time=0.0047961666666666665
EXTRACT: note_on channel=3 note=72 velocity=79 time=0
EXTRACT: note_on channel=9 note=70 velocity=80 time=0.011990416666666667
EXTRACT: note_on channel=9 note=37 velocity=91 time=0.007194249999999999
EXTRACT: note_on channel=9 note=28 velocity=68 time=0
EXTRACT: note_on channel=9 note=39 velocity=67 time=0
EXTRACT: note_on channel=9 note=35 velocity=97 time=0
EXTRACT: note_on channel=9 note=28 velocity=0 time=0.0023980833333333332
EXTRACT: note_on channel=9 note=37 velocity=0 time=0
EXTRACT: note_on channel=9 note=40 velocity=64 time=0.0023980833333333332
EXTRACT: note_on channel=9 note=39 velocity=50 time=0.026378916666666665
EXTRACT: note_on channel=9 note=70 velocity=0 time=0.019184666666666666
EXTRACT: note_on channel=9 note=39 velocity=0 time=0.007194249999999999
EXTRACT: note_on channel=9 note=35 velocity=0 time=0
EXTRACT: note_on channel=9 note=40 velocity=0 time=0.0047961666666666665
EXTRACT: note_on channel=9 note=39 velocity=0 time=0.026378916666666665
EXTRACT: note_on channel=3 note=72 velocity=0 time=0.07434058333333333
EXTRACT: note_on channel=3 note=84 velocity=0 time=0
EXTRACT: control_change channel=7 control=11 value=87 time=0.031175083333333332
EXTRACT: control_change channel=6 control=11 value=87 time=0.0023980833333333332
EXTRACT: note_on channel=1 note=32 velocity=121 time=0.023980833333333333
EXTRACT: note_on channel=3 note=82 velocity=108 time=0.016786583333333334
EXTRACT: note_on channel=3 note=70 velocity=78 time=0
EXTRACT: note_on channel=9 note=46 velocity=62 time=0.0047961666666666665
EXTRACT: note_on channel=9 note=46 velocity=0 time=0.057553999999999994
EXTRACT: control_change channel=7 control=11 value=91 time=0.03357316666666667
EXTRACT: control_change channel=6 control=11 value=91 time=0.0023980833333333332
EXTRACT: note_on channel=9 note=42 velocity=84 time=0.014388499999999999
EXTRACT: note_on channel=9 note=42 velocity=0 time=0.057553999999999994
EXTRACT: note_on channel=1 note=32 velocity=0 time=0.03836933333333333
EXTRACT: note_on channel=9 note=70 velocity=80 time=0.014388499999999999
EXTRACT: note_on channel=9 note=35 velocity=97 time=0.007194249999999999
EXTRACT: control_change channel=7 control=11 value=95 time=0.014388499999999999
EXTRACT: control_change channel=6 control=11 value=95 time=0.0023980833333333332
EXTRACT: note_on channel=9 note=70 velocity=0 time=0.03357316666666667
EXTRACT: note_on channel=9 note=35 velocity=0 time=0.007194249999999999
EXTRACT: control_change channel=4 control=11 value=78 time=0.05275783333333333
EXTRACT: note_on channel=3 note=70 velocity=0 time=0.05275783333333333
EXTRACT: note_on channel=3 note=82 velocity=0 time=0
EXTRACT: note_on channel=1 note=32 velocity=121 time=0.057553999999999994
EXTRACT: control_change channel=7 control=11 value=99 time=0.0047961666666666665
EXTRACT: control_change channel=6 control=11 value=99 time=0.0023980833333333332
EXTRACT: note_on channel=3 note=80 velocity=107 time=0.007194249999999999
EXTRACT: note_on channel=3 note=68 velocity=78 time=0
EXTRACT: note_on channel=9 note=46 velocity=63 time=0.007194249999999999
EXTRACT: control_change channel=7 control=11 value=103 time=0.03836933333333333
EXTRACT: control_change channel=6 control=11 value=103 time=0.0023980833333333332
EXTRACT: note_on channel=9 note=85 velocity=79 time=0.009592333333333333
EXTRACT: note_on channel=9 note=46 velocity=0 time=0.007194249999999999
EXTRACT: control_change channel=7 control=11 value=107 time=0.011990416666666667
EXTRACT: control_change channel=6 control=11 value=107 time=0.0023980833333333332
EXTRACT: note_on channel=9 note=85 velocity=0 time=0.009592333333333333
EXTRACT: control_change channel=7 control=11 value=112 time=0.011990416666666667
EXTRACT: control_change channel=6 control=11 value=112 time=0.0023980833333333332
EXTRACT: control_change channel=7 control=11 value=116 time=0.011990416666666667
EXTRACT: control_change channel=6 control=11 value=116 time=0.0023980833333333332
EXTRACT: note_on channel=9 note=42 velocity=83 time=0
EXTRACT: note_on channel=9 note=85 velocity=77 time=0.019184666666666666
EXTRACT: control_change channel=7 control=11 value=121 time=0.0023980833333333332
EXTRACT: control_change channel=6 control=11 value=121 time=0.0023980833333333332
EXTRACT: note_on channel=9 note=39 velocity=50 time=0.014388499999999999
EXTRACT: note_on channel=9 note=85 velocity=0 time=0.011990416666666667
EXTRACT: note_on channel=9 note=42 velocity=0 time=0.007194249999999999
EXTRACT: note_on channel=3 note=68 velocity=0 time=0.0023980833333333332
EXTRACT: note_on channel=3 note=80 velocity=0 time=0
EXTRACT: note_on channel=7 note=44 velocity=0 time=0.0047961666666666665
EXTRACT: control_change channel=4 control=11 value=76 time=0.0047961666666666665
EXTRACT: note_on channel=6 note=56 velocity=0 time=0.007194249999999999
EXTRACT: note_on channel=1 note=32 velocity=0 time=0.016786583333333334
EXTRACT: note_on channel=3 note=80 velocity=110 time=0
EXTRACT: note_on channel=3 note=68 velocity=80 time=0
EXTRACT: note_on channel=9 note=39 velocity=0 time=0.0023980833333333332
EXTRACT: note_on channel=9 note=70 velocity=82 time=0.011990416666666667
EXTRACT: note_on channel=9 note=40 velocity=54 time=0.009592333333333333
EXTRACT: note_on channel=9 note=37 velocity=91 time=0
EXTRACT: note_on channel=9 note=28 velocity=68 time=0
EXTRACT: note_on channel=9 note=39 velocity=73 time=0
EXTRACT: note_on channel=9 note=85 velocity=79 time=0
EXTRACT: note_on channel=9 note=35 velocity=97 time=0
EXTRACT: note_on channel=9 note=28 velocity=0 time=0.0023980833333333332
EXTRACT: note_on channel=9 note=37 velocity=0 time=0
EXTRACT: note_on channel=9 note=85 velocity=0 time=0.028776999999999997
EXTRACT: note_on channel=9 note=39 velocity=55 time=0
EXTRACT: note_on channel=9 note=70 velocity=0 time=0.016786583333333334
EXTRACT: note_on channel=9 note=35 velocity=0 time=0.009592333333333333
EXTRACT: note_on channel=9 note=40 velocity=0 time=0
EXTRACT: note_on channel=9 note=39 velocity=0 time=0
EXTRACT: note_on channel=9 note=39 velocity=0 time=0.031175083333333332
EXTRACT: note_on channel=7 note=43 velocity=74 time=0.12709841666666666
EXTRACT: note_on channel=1 note=32 velocity=118 time=0.0023980833333333332
EXTRACT: note_on channel=6 note=55 velocity=79 time=0
EXTRACT: note_on channel=9 note=46 velocity=62 time=0.021582749999999998
EXTRACT: control_change channel=7 control=11 value=116 time=0.047961666666666666
EXTRACT: control_change channel=6 control=11 value=116 time=0.0023980833333333332
EXTRACT: note_on channel=9 note=46 velocity=0 time=0.007194249999999999
EXTRACT: control_change channel=7 control=11 value=112 time=0.021582749999999998
EXTRACT: control_change channel=6 control=11 value=112 time=0.0023980833333333332
EXTRACT: control_change channel=7 control=11 value=106 time=0.028776999999999997
EXTRACT: note_on channel=9 note=42 velocity=83 time=0
EXTRACT: control_change channel=6 control=11 value=106 time=0.0023980833333333332
EXTRACT: note_on channel=3 note=68 velocity=0 time=0.016786583333333334
EXTRACT: note_on channel=3 note=80 velocity=0 time=0
EXTRACT: control_change channel=7 control=11 value=102 time=0.019184666666666666
EXTRACT: control_change channel=6 control=11 value=102 time=0.0023980833333333332
EXTRACT: note_on channel=9 note=42 velocity=0 time=0.016786583333333334
EXTRACT: note_on channel=7 note=43 velocity=0 time=0.03357316666666667
EXTRACT: note_on channel=1 note=32 velocity=0 time=0.0023980833333333332
EXTRACT: note_on channel=6 note=55 velocity=0 time=0
EXTRACT: control_change channel=7 control=11 value=120 time=0
EXTRACT: control_change channel=6 control=11 value=120 time=0.0023980833333333332
EXTRACT: note_on channel=3 note=87 velocity=115 time=0.0047961666666666665
EXTRACT: note_on channel=3 note=75 velocity=83 time=0
EXTRACT: note_on channel=7 note=44 velocity=75 time=0
EXTRACT: note_on channel=6 note=56 velocity=77 time=0.0023980833333333332
EXTRACT: note_on channel=4 note=53 velocity=0 time=0.0047961666666666665
EXTRACT: note_on channel=4 note=65 velocity=0 time=0
EXTRACT: note_on channel=4 note=60 velocity=0 time=0
EXTRACT: note_on channel=4 note=56 velocity=0 time=0
EXTRACT: note_on channel=9 note=70 velocity=80 time=0.0023980833333333332
EXTRACT: note_on channel=4 note=54 velocity=99 time=0.0023980833333333332
EXTRACT: note_on channel=4 note=66 velocity=105 time=0
EXTRACT: note_on channel=4 note=56 velocity=101 time=0
EXTRACT: note_on channel=4 note=60 velocity=102 time=0
EXTRACT: note_on channel=9 note=35 velocity=97 time=0.0047961666666666665
EXTRACT: control_change channel=4 control=11 value=78 time=0.03836933333333333
EXTRACT: control_change channel=7 control=11 value=115 time=0.007194249999999999
EXTRACT: control_change channel=6 control=11 value=115 time=0.0023980833333333332
EXTRACT: note_on channel=9 note=70 velocity=0 time=0.0023980833333333332
EXTRACT: note_on channel=9 note=35 velocity=0 time=0.007194249999999999
EXTRACT: control_change channel=7 control=11 value=110 time=0.011990416666666667
EXTRACT: control_change channel=6 control=11 value=110 time=0.0023980833333333332
EXTRACT: control_change channel=7 control=11 value=100 time=0.028776999999999997
EXTRACT: control_change channel=6 control=11 value=100 time=0.0023980833333333332
EXTRACT: control_change channel=7 control=11 value=94 time=0.028776999999999997
EXTRACT: control_change channel=6 control=11 value=94 time=0.0023980833333333332
EXTRACT: note_on channel=3 note=75 velocity=0 time=0.019184666666666666
EXTRACT: note_on channel=3 note=87 velocity=0 time=0
EXTRACT: control_change channel=7 control=11 value=90 time=0.0023980833333333332
EXTRACT: control_change channel=6 control=11 value=90 time=0.0023980833333333332
EXTRACT: control_change channel=7 control=11 value=86 time=0.028776999999999997
EXTRACT: control_change channel=6 control=11 value=86 time=0.0023980833333333332
EXTRACT: note_on channel=7 note=44 velocity=0 time=0.019184666666666666
EXTRACT: note_on channel=6 note=56 velocity=0 time=0.0023980833333333332
EXTRACT: note_on channel=7 note=44 velocity=69 time=0.007194249999999999
EXTRACT: note_on channel=1 note=32 velocity=126 time=0.0023980833333333332
EXTRACT: note_on channel=6 note=56 velocity=70 time=0
EXTRACT: note_on channel=9 note=46 velocity=61 time=0.021582749999999998
EXTRACT: control_change channel=7 control=11 value=118 time=0.021582749999999998
EXTRACT: control_change channel=6 control=11 value=118 time=0.0023980833333333332
EXTRACT: control_change channel=7 control=11 value=114 time=0.021582749999999998
EXTRACT: control_change channel=6 control=11 value=114 time=0.0023980833333333332
EXTRACT: control_change channel=4 control=11 value=76 time=0.007194249999999999
EXTRACT: note_on channel=9 note=46 velocity=0 time=0.0023980833333333332
EXTRACT: control_change channel=7 control=11 value=110 time=0.0023980833333333332
EXTRACT: control_change channel=6 control=11 value=110 time=0.0023980833333333332
EXTRACT: control_change channel=7 control=11 value=106 time=0.021582749999999998
EXTRACT: control_change channel=6 control=11 value=106 time=0.0023980833333333332
EXTRACT: control_change channel=7 control=11 value=102 time=0.014388499999999999
EXTRACT: control_change channel=6 control=11 value=102 time=0.0023980833333333332
EXTRACT: note_on channel=9 note=42 velocity=87 time=0.0047961666666666665
EXTRACT: control_change channel=7 control=11 value=97 time=0.014388499999999999
EXTRACT: control_change channel=6 control=11 value=97 time=0.0023980833333333332
EXTRACT: control_change channel=7 control=11 value=92 time=0.021582749999999998
EXTRACT: control_change channel=6 control=11 value=92 time=0.0023980833333333332
EXTRACT: control_change channel=7 control=11 value=88 time=0.014388499999999999
EXTRACT: control_change channel=6 control=11 value=88 time=0.0023980833333333332
EXTRACT: note_on channel=9 note=42 velocity=0 time=0
EXTRACT: control_change channel=7 control=11 value=84 time=0.011990416666666667
EXTRACT: control_change channel=6 control=11 value=84 time=0.0023980833333333332
EXTRACT: note_on channel=3 note=84 velocity=115 time=0.011990416666666667
EXTRACT: note_on channel=3 note=72 velocity=83 time=0
EXTRACT: control_change channel=7 control=11 value=80 time=0.009592333333333333
EXTRACT: note_on channel=1 note=32 velocity=0 time=0.0023980833333333332
EXTRACT: control_change channel=6 control=11 value=80 time=0
EXTRACT: note_on channel=9 note=70 velocity=83 time=0.014388499999999999
EXTRACT: note_on channel=9 note=37 velocity=91 time=0.007194249999999999
EXTRACT: note_on channel=9 note=28 velocity=68 time=0
EXTRACT: note_on channel=9 note=39 velocity=67 time=0
EXTRACT: note_on channel=9 note=35 velocity=97 time=0
EXTRACT: note_on channel=9 note=28 velocity=0 time=0.0023980833333333332
EXTRACT: note_on channel=9 note=37 velocity=0 time=0
EXTRACT: note_on channel=9 note=40 velocity=64 time=0.0023980833333333332
EXTRACT: control_change channel=7 control=11 value=75 time=0.0023980833333333332
EXTRACT: control_change channel=6 control=11 value=75 time=0.0023980833333333332
EXTRACT: control_change channel=7 control=11 value=70 time=0.021582749999999998
EXTRACT: note_on channel=9 note=39 velocity=50 time=0
EXTRACT: control_change channel=6 control=11 value=70 time=0.0023980833333333332
EXTRACT: note_on channel=9 note=70 velocity=0 time=0.016786583333333334
EXTRACT: note_on channel=9 note=39 velocity=0 time=0.007194249999999999
EXTRACT: note_on channel=9 note=35 velocity=0 time=0
EXTRACT: control_change channel=7 control=11 value=65 time=0.0047961666666666665
EXTRACT: note_on channel=9 note=40 velocity=0 time=0
EXTRACT: control_change channel=6 control=11 value=65 time=0.0023980833333333332
EXTRACT: control_change channel=4 control=11 value=74 time=0.021582749999999998
EXTRACT: note_on channel=9 note=39 velocity=0 time=0.0023980833333333332
EXTRACT: control_change channel=7 control=11 value=61 time=0.019184666666666666
EXTRACT: control_change channel=6 control=11 value=61 time=0.0023980833333333332
EXTRACT: pitchwheel channel=3 pitch=-41 time=0.007194249999999999
EXTRACT: pitchwheel channel=3 pitch=-241 time=0.0047961666666666665
EXTRACT: pitchwheel channel=3 pitch=-401 time=0.007194249999999999
EXTRACT: control_change channel=7 control=11 value=57 time=0.009592333333333333
EXTRACT: pitchwheel channel=3 pitch=-541 time=0.0023980833333333332
EXTRACT: control_change channel=6 control=11 value=57 time=0
EXTRACT: pitchwheel channel=3 pitch=-701 time=0.011990416666666667
EXTRACT: pitchwheel channel=3 pitch=-821 time=0
EXTRACT: pitchwheel channel=3 pitch=-941 time=0.0023980833333333332
EXTRACT: pitchwheel channel=3 pitch=-1061 time=0.0047961666666666665
EXTRACT: pitchwheel channel=3 pitch=-1181 time=0.0047961666666666665
EXTRACT: pitchwheel channel=3 pitch=-1321 time=0.0023980833333333332
EXTRACT: pitchwheel channel=3 pitch=-1481 time=0.0047961666666666665
EXTRACT: pitchwheel channel=3 pitch=-1621 time=0.0023980833333333332
EXTRACT: pitchwheel channel=3 pitch=-1781 time=0.0047961666666666665
EXTRACT: control_change channel=7 control=11 value=53 time=0
EXTRACT: control_change channel=6 control=11 value=53 time=0.0023980833333333332
EXTRACT: pitchwheel channel=3 pitch=-1961 time=0.0023980833333333332
EXTRACT: pitchwheel channel=3 pitch=-2121 time=0.0023980833333333332
EXTRACT: pitchwheel channel=3 pitch=-2301 time=0.0047961666666666665
EXTRACT: pitchwheel channel=3 pitch=-2481 time=0.0047961666666666665
EXTRACT: pitchwheel channel=3 pitch=-2621 time=0.0023980833333333332
EXTRACT: pitchwheel channel=3 pitch=-2801 time=0.0047961666666666665
EXTRACT: pitchwheel channel=3 pitch=-2981 time=0.0047961666666666665
EXTRACT: pitchwheel channel=3 pitch=-3161 time=0.0023980833333333332
EXTRACT: pitchwheel channel=3 pitch=-3341 time=0.007194249999999999
EXTRACT: pitchwheel channel=3 pitch=-3541 time=0
EXTRACT: note_on channel=1 note=32 velocity=118 time=0.0023980833333333332
EXTRACT: pitchwheel channel=3 pitch=-3741 time=0.0023980833333333332
EXTRACT: pitchwheel channel=3 pitch=-3941 time=0.0047961666666666665
EXTRACT: pitchwheel channel=3 pitch=-4141 time=0.0023980833333333332
EXTRACT: pitchwheel channel=3 pitch=-4341 time=0.0047961666666666665
EXTRACT: pitchwheel channel=3 pitch=-4521 time=0.0047961666666666665
EXTRACT: pitchwheel channel=3 pitch=-4701 time=0.0023980833333333332
EXTRACT: note_on channel=9 note=46 velocity=59 time=0
EXTRACT: pitchwheel channel=3 pitch=-4901 time=0.0047961666666666665
EXTRACT: pitchwheel channel=3 pitch=-5101 time=0.0023980833333333332
EXTRACT: control_change channel=7 control=11 value=49 time=0
EXTRACT: control_change channel=6 control=11 value=49 time=0.0023980833333333332
EXTRACT: pitchwheel channel=3 pitch=-5261 time=0.007194249999999999
EXTRACT: pitchwheel channel=3 pitch=-5421 time=0.0023980833333333332
EXTRACT: pitchwheel channel=3 pitch=-5581 time=0.009592333333333333
EXTRACT: pitchwheel channel=3 pitch=-5701 time=0
EXTRACT: pitchwheel channel=3 pitch=-5841 time=0.0023980833333333332
EXTRACT: pitchwheel channel=3 pitch=-5961 time=0.0047961666666666665
EXTRACT: pitchwheel channel=3 pitch=-6141 time=0.007194249999999999
EXTRACT: pitchwheel channel=3 pitch=-6321 time=0.007194249999999999
EXTRACT: note_on channel=9 note=85 velocity=79 time=0
EXTRACT: note_on channel=9 note=46 velocity=0 time=0.007194249999999999
EXTRACT: pitchwheel channel=3 pitch=-6441 time=0.0023980833333333332
EXTRACT: control_change channel=7 control=11 value=45 time=0.0023980833333333332
EXTRACT: control_change channel=6 control=11 value=45 time=0.0023980833333333332
EXTRACT: pitchwheel channel=3 pitch=-6561 time=0.009592333333333333
EXTRACT: note_on channel=9 note=85 velocity=0 time=0.007194249999999999
EXTRACT: note_on channel=3 note=72 velocity=0 time=0.016786583333333334
EXTRACT: note_on channel=3 note=84 velocity=0 time=0
EXTRACT: note_on channel=9 note=42 velocity=87 time=0.011990416666666667
EXTRACT: note_on channel=9 note=85 velocity=77 time=0.019184666666666666
EXTRACT: note_on channel=9 note=85 velocity=0 time=0.031175083333333332
EXTRACT: note_on channel=9 note=42 velocity=0 time=0.007194249999999999
EXTRACT: pitchwheel channel=3 pitch=0 time=0.011990416666666667
EXTRACT: note_on channel=1 note=32 velocity=0 time=0.023980833333333333
EXTRACT: note_on channel=3 note=80 velocity=111 time=0.011990416666666667
EXTRACT: note_on channel=3 note=68 velocity=81 time=0
EXTRACT: note_on channel=9 note=70 velocity=83 time=0.0023980833333333332
EXTRACT: note_on channel=9 note=85 velocity=79 time=0.009592333333333333
EXTRACT: note_on channel=9 note=35 velocity=97 time=0
EXTRACT: note_on channel=9 note=85 velocity=0 time=0.031175083333333332
EXTRACT: note_on channel=9 note=70 velocity=0 time=0.016786583333333334
EXTRACT: note_on channel=9 note=35 velocity=0 time=0.009592333333333333
EXTRACT: control_change channel=4 control=11 value=76 time=0.0047961666666666665
EXTRACT: control_change channel=7 control=11 value=41 time=0.05275783333333333
EXTRACT: control_change channel=6 control=11 value=41 time=0.0023980833333333332
EXTRACT: note_on channel=1 note=32 velocity=121 time=0.10071949999999999
EXTRACT: note_on channel=9 note=46 velocity=61 time=0.023980833333333333
EXTRACT: note_on channel=3 note=68 velocity=0 time=0.047961666666666666
EXTRACT: note_on channel=3 note=80 velocity=0 time=0
EXTRACT: note_on channel=9 note=46 velocity=0 time=0.009592333333333333
EXTRACT: note_on channel=9 note=42 velocity=87 time=0.050359749999999995
EXTRACT: control_change channel=4 control=11 value=78 time=0.055155916666666666
EXTRACT: note_on channel=9 note=42 velocity=0 time=0.0023980833333333332
EXTRACT: note_on channel=3 note=80 velocity=105 time=0.023980833333333333
EXTRACT: note_on channel=3 note=68 velocity=76 time=0
EXTRACT: note_on channel=1 note=32 velocity=0 time=0.011990416666666667
EXTRACT: note_on channel=9 note=70 velocity=82 time=0.016786583333333334
EXTRACT: note_on channel=9 note=40 velocity=55 time=0.007194249999999999
EXTRACT: note_on channel=9 note=37 velocity=91 time=0
EXTRACT: note_on channel=9 note=28 velocity=68 time=0
EXTRACT: note_on channel=9 note=39 velocity=72 time=0
EXTRACT: note_on channel=9 note=35 velocity=97 time=0
EXTRACT: note_on channel=9 note=28 velocity=0 time=0.0023980833333333332
EXTRACT: note_on channel=9 note=37 velocity=0 time=0
EXTRACT: note_on channel=9 note=39 velocity=55 time=0.028776999999999997
EXTRACT: note_on channel=3 note=68 velocity=0 time=0.014388499999999999
EXTRACT: note_on channel=3 note=80 velocity=0 time=0
EXTRACT: note_on channel=9 note=70 velocity=0 time=0.0047961666666666665
EXTRACT: note_on channel=9 note=35 velocity=0 time=0.007194249999999999
EXTRACT: note_on channel=9 note=40 velocity=0 time=0
EXTRACT: note_on channel=9 note=39 velocity=0 time=0
EXTRACT: note_on channel=9 note=39 velocity=0 time=0.031175083333333332
EXTRACT: control_change channel=4 control=11 value=80 time=0.09832141666666666
EXTRACT: note_on channel=1 note=32 velocity=126 time=0.03357316666666667
EXTRACT: note_on channel=3 note=87 velocity=113 time=0.021582749999999998
EXTRACT: note_on channel=3 note=75 velocity=82 time=0
EXTRACT: note_on channel=9 note=46 velocity=61 time=0
EXTRACT: control_change channel=7 control=11 value=45 time=0.014388499999999999
EXTRACT: control_change channel=6 control=11 value=45 time=0.0023980833333333332
EXTRACT: note_on channel=9 note=46 velocity=0 time=0.04076741666666667
EXTRACT: note_on channel=9 note=42 velocity=86 time=0.050359749999999995
EXTRACT: note_on channel=3 note=75 velocity=0 time=0.031175083333333332
EXTRACT: note_on channel=3 note=87 velocity=0 time=0
EXTRACT: control_change channel=7 control=11 value=49 time=0
EXTRACT: control_change channel=6 control=11 value=49 time=0.0023980833333333332
EXTRACT: note_on channel=9 note=42 velocity=0 time=0.023980833333333333
EXTRACT: control_change channel=0 control=10 value=0 time=0.014388499999999999
EXTRACT: note_on channel=0 note=121 velocity=127 time=0.0023980833333333332
EXTRACT: note_on channel=0 note=122 velocity=127 time=0.011990416666666667
EXTRACT: note_on channel=0 note=119 velocity=127 time=0
EXTRACT: note_on channel=1 note=32 velocity=0 time=0.009592333333333333
EXTRACT: note_on channel=0 note=122 velocity=0 time=0.011990416666666667
EXTRACT: control_change channel=4 control=11 value=82 time=0.0023980833333333332
EXTRACT: note_on channel=9 note=70 velocity=83 time=0
EXTRACT: note_on channel=11 note=51 velocity=127 time=0.0023980833333333332
EXTRACT: note_on channel=9 note=35 velocity=97 time=0.0047961666666666665
EXTRACT: control_change channel=0 control=10 value=1 time=0.023980833333333333
EXTRACT: note_on channel=0 note=117 velocity=127 time=0
EXTRACT: control_change channel=7 control=11 value=53 time=0
EXTRACT: control_change channel=6 control=11 value=53 time=0.0023980833333333332
EXTRACT: note_on channel=11 note=51 velocity=0 time=0
EXTRACT: control_change channel=0 control=10 value=3 time=0.021582749999999998
EXTRACT: note_on channel=9 note=70 velocity=0 time=0.0023980833333333332
EXTRACT: note_on channel=9 note=35 velocity=0 time=0.007194249999999999
EXTRACT: note_on channel=0 note=121 velocity=0 time=0.014388499999999999
EXTRACT: control_change channel=0 control=10 value=5 time=0.0023980833333333332
EXTRACT: note_on channel=0 note=116 velocity=127 time=0.011990416666666667
EXTRACT: control_change channel=7 control=11 value=57 time=0
EXTRACT: control_change channel=6 control=11 value=57 time=0.0023980833333333332
EXTRACT: control_change channel=0 control=10 value=7 time=0.021582749999999998
EXTRACT: note_on channel=0 note=119 velocity=0 time=0.009592333333333333
EXTRACT: note_on channel=0 note=114 velocity=127 time=0.009592333333333333
EXTRACT: control_change channel=0 control=10 value=9 time=0.007194249999999999
EXTRACT: control_change channel=7 control=11 value=61 time=0.011990416666666667
EXTRACT: control_change channel=6 control=11 value=61 time=0.0023980833333333332
EXTRACT: note_on channel=0 note=117 velocity=0 time=0.016786583333333334
EXTRACT: note_on channel=0 note=112 velocity=127 time=0
EXTRACT: control_change channel=0 control=10 value=11 time=0.0047961666666666665
EXTRACT: control_change channel=0 control=10 value=13 time=0.023980833333333333
EXTRACT: note_on channel=3 note=84 velocity=111 time=0.014388499999999999
EXTRACT: note_on channel=3 note=72 velocity=81 time=0
EXTRACT: note_on channel=0 note=116 velocity=0 time=0.009592333333333333
EXTRACT: note_on channel=1 note=32 velocity=118 time=0
EXTRACT: control_change channel=0 control=10 value=15 time=0.0023980833333333332
EXTRACT: note_on channel=0 note=110 velocity=127 time=0.011990416666666667
EXTRACT: control_change channel=7 control=11 value=65 time=0.007194249999999999
EXTRACT: note_on channel=9 note=46 velocity=61 time=0
EXTRACT: control_change channel=6 control=11 value=65 time=0.0023980833333333332
EXTRACT: control_change channel=0 control=10 value=17 time=0.014388499999999999
EXTRACT: control_change channel=7 control=11 value=69 time=0.014388499999999999
EXTRACT: control_change channel=6 control=11 value=69 time=0.0023980833333333332
EXTRACT: control_change channel=0 control=10 value=19 time=0.0047961666666666665
EXTRACT: note_on channel=0 note=114 velocity=0 time=0.014388499999999999
EXTRACT: note_on channel=9 note=46 velocity=0 time=0.0047961666666666665
EXTRACT: note_on channel=0 note=109 velocity=127 time=0.0047961666666666665
EXTRACT: control_change channel=0 control=10 value=21 time=0.0047961666666666665
EXTRACT: control_change channel=0 control=10 value=23 time=0.035971249999999996
EXTRACT: control_change channel=4 control=11 value=84 time=0
EXTRACT: note_on channel=9 note=42 velocity=83 time=0.007194249999999999
EXTRACT: control_change channel=7 control=11 value=73 time=0.014388499999999999
EXTRACT: note_on channel=0 note=112 velocity=0 time=0.0023980833333333332
EXTRACT: control_change channel=6 control=11 value=73 time=0
EXTRACT: control_change channel=0 control=10 value=25 time=0.0023980833333333332
EXTRACT: note_on channel=0 note=107 velocity=127 time=0.0047961666666666665
EXTRACT: pitchwheel channel=3 pitch=-181 time=0.007194249999999999
EXTRACT: pitchwheel channel=3 pitch=-381 time=0.0023980833333333332
EXTRACT: pitchwheel channel=3 pitch=-561 time=0.0047961666666666665
EXTRACT: pitchwheel channel=3 pitch=-741 time=0.0047961666666666665
EXTRACT: pitchwheel channel=3 pitch=-941 time=0.0023980833333333332
EXTRACT: pitchwheel channel=3 pitch=-1121 time=0.0047961666666666665
EXTRACT: control_change channel=0 control=10 value=27 time=0.0047961666666666665
EXTRACT: pitchwheel channel=3 pitch=-1301 time=0
EXTRACT: pitchwheel channel=3 pitch=-1461 time=0.0023980833333333332
EXTRACT: note_on channel=9 note=42 velocity=0 time=0
EXTRACT: pitchwheel channel=3 pitch=-1581 time=0.0047961666666666665
EXTRACT: pitchwheel channel=3 pitch=-1721 time=0.0023980833333333332
EXTRACT: pitchwheel channel=3 pitch=-1881 time=0.0047961666666666665
EXTRACT: pitchwheel channel=3 pitch=-2021 time=0.0047961666666666665
EXTRACT: control_change channel=0 control=10 value=29 time=0.0023980833333333332
EXTRACT: pitchwheel channel=3 pitch=-2181 time=0
EXTRACT: pitchwheel channel=3 pitch=-2361 time=0.0047961666666666665
EXTRACT: pitchwheel channel=3 pitch=-2541 time=0.0047961666666666665
EXTRACT: note_on channel=0 note=110 velocity=0 time=0.0023980833333333332
EXTRACT: pitchwheel channel=3 pitch=-2701 time=0
EXTRACT: note_on channel=0 note=105 velocity=127 time=0.0047961666666666665
EXTRACT: note_on channel=1 note=32 velocity=0 time=0
EXTRACT: pitchwheel channel=3 pitch=-2881 time=0
EXTRACT: pitchwheel channel=3 pitch=-3041 time=0.0023980833333333332
EXTRACT: pitchwheel channel=3 pitch=-3181 time=0.0047961666666666665
EXTRACT: control_change channel=0 control=10 value=31 time=0.0047961666666666665
EXTRACT: pitchwheel channel=3 pitch=-3321 time=0
EXTRACT: pitchwheel channel=3 pitch=-3461 time=0.0023980833333333332
EXTRACT: note_on channel=9 note=70 velocity=80 time=0
EXTRACT: pitchwheel channel=3 pitch=-3581 time=0.0047961666666666665
EXTRACT: note_on channel=11 note=44 velocity=127 time=0
EXTRACT: pitchwheel channel=3 pitch=-3741 time=0.0047961666666666665
EXTRACT: note_on channel=9 note=37 velocity=91 time=0
EXTRACT: note_on channel=9 note=28 velocity=68 time=0
EXTRACT: note_on channel=9 note=39 velocity=67 time=0
EXTRACT: note_on channel=9 note=35 velocity=97 time=0
EXTRACT: note_on channel=9 note=28 velocity=0 time=0.0023980833333333332
EXTRACT: note_on channel=9 note=37 velocity=0 time=0
EXTRACT: note_on channel=9 note=40 velocity=64 time=0
EXTRACT: pitchwheel channel=3 pitch=-3941 time=0.0047961666666666665
EXTRACT: pitchwheel channel=3 pitch=-4061 time=0.0023980833333333332
EXTRACT: pitchwheel channel=3 pitch=-4241 time=0.009592333333333333
EXTRACT: control_change channel=0 control=10 value=33 time=0.0023980833333333332
EXTRACT: note_on channel=11 note=44 velocity=0 time=0.0047961666666666665
EXTRACT: pitchwheel channel=3 pitch=-4401 time=0.0047961666666666665
EXTRACT: note_on channel=9 note=39 velocity=50 time=0
EXTRACT: note_on channel=0 note=109 velocity=0 time=0.0047961666666666665
EXTRACT: note_on channel=0 note=104 velocity=127 time=0.0023980833333333332
EXTRACT: pitchwheel channel=3 pitch=-4541 time=0
EXTRACT: control_change channel=0 control=10 value=35 time=0.007194249999999999
EXTRACT: control_change channel=7 control=11 value=77 time=0
EXTRACT: control_change channel=6 control=11 value=77 time=0.0023980833333333332
EXTRACT: note_on channel=9 note=70 velocity=0 time=0
EXTRACT: pitchwheel channel=3 pitch=-4681 time=0.0023980833333333332
EXTRACT: note_on channel=9 note=39 velocity=0 time=0.007194249999999999
EXTRACT: note_on channel=9 note=35 velocity=0 time=0
EXTRACT: note_on channel=9 note=40 velocity=0 time=0.0023980833333333332
EXTRACT: pitchwheel channel=3 pitch=-4821 time=0.0023980833333333332
EXTRACT: control_change channel=0 control=10 value=37 time=0.011990416666666667
EXTRACT: note_on channel=9 note=39 velocity=0 time=0.014388499999999999
EXTRACT: note_on channel=0 note=107 velocity=0 time=0.011990416666666667
EXTRACT: note_on channel=0 note=102 velocity=127 time=0
EXTRACT: control_change channel=0 control=10 value=39 time=0.007194249999999999
EXTRACT: note_on channel=3 note=72 velocity=0 time=0.014388499999999999
EXTRACT: note_on channel=3 note=84 velocity=0 time=0
EXTRACT: control_change channel=0 control=10 value=41 time=0.014388499999999999
EXTRACT: note_on channel=0 note=105 velocity=0 time=0.026378916666666665
EXTRACT: pitchwheel channel=3 pitch=0 time=0
EXTRACT: note_on channel=0 note=100 velocity=127 time=0.0047961666666666665
EXTRACT: control_change channel=0 control=10 value=43 time=0.0023980833333333332
EXTRACT: control_change channel=0 control=10 value=45 time=0.023980833333333333
EXTRACT: note_on channel=0 note=104 velocity=0 time=0.019184666666666666
EXTRACT: note_on channel=1 note=32 velocity=121 time=0.0047961666666666665
EXTRACT: control_change channel=0 control=10 value=47 time=0.0023980833333333332
EXTRACT: note_on channel=0 note=98 velocity=127 time=0
EXTRACT: note_on channel=9 note=46 velocity=62 time=0.021582749999999998
EXTRACT: note_on channel=3 note=80 velocity=111 time=0.0023980833333333332
EXTRACT: note_on channel=3 note=68 velocity=81 time=0
EXTRACT: control_change channel=0 control=10 value=49 time=0.011990416666666667
EXTRACT: control_change channel=7 control=11 value=81 time=0
EXTRACT: control_change channel=6 control=11 value=81 time=0.0023980833333333332
EXTRACT: note_on channel=0 note=102 velocity=0 time=0.011990416666666667
EXTRACT: control_change channel=0 control=10 value=51 time=0.009592333333333333
EXTRACT: note_on channel=0 note=97 velocity=127 time=0
EXTRACT: note_on channel=9 note=46 velocity=0 time=0.019184666666666666
EXTRACT: control_change channel=0 control=10 value=53 time=0.019184666666666666
EXTRACT: note_on channel=0 note=100 velocity=0 time=0.007194249999999999
EXTRACT: control_change channel=7 control=11 value=85 time=0.014388499999999999
EXTRACT: control_change channel=0 control=10 value=55 time=0.0023980833333333332
EXTRACT: control_change channel=6 control=11 value=85 time=0
EXTRACT: note_on channel=9 note=42 velocity=84 time=0.007194249999999999
EXTRACT: note_on channel=0 note=95 velocity=127 time=0.011990416666666667
EXTRACT: control_change channel=0 control=10 value=57 time=0.007194249999999999
EXTRACT: note_on channel=0 note=98 velocity=0 time=0.009592333333333333
EXTRACT: control_change channel=0 control=10 value=59 time=0.026378916666666665
EXTRACT: note_on channel=9 note=42 velocity=0 time=0.0023980833333333332
EXTRACT: note_on channel=0 note=94 velocity=127 time=0.016786583333333334
EXTRACT: control_change channel=0 control=10 value=61 time=0.0047961666666666665
EXTRACT: control_change channel=4 control=11 value=82 time=0
EXTRACT: note_on channel=0 note=97 velocity=0 time=0.007194249999999999
EXTRACT: note_on channel=1 note=32 velocity=0 time=0.007194249999999999
EXTRACT: note_on channel=0 note=94 velocity=0 time=0.0023980833333333332
EXTRACT: control_change channel=0 control=10 value=63 time=0.009592333333333333
EXTRACT: note_on channel=9 note=70 velocity=80 time=0.0047961666666666665
EXTRACT: note_on channel=0 note=93 velocity=127 time=0.0023980833333333332
EXTRACT: note_on channel=11 note=51 velocity=127 time=0
EXTRACT: note_on channel=9 note=35 velocity=97 time=0.0047961666666666665
EXTRACT: note_on channel=0 note=91 velocity=127 time=0.007194249999999999
EXTRACT: control_change channel=7 control=11 value=89 time=0
EXTRACT: note_on channel=0 note=95 velocity=0 time=0.0023980833333333332
EXTRACT: control_change channel=6 control=11 value=89 time=0
EXTRACT: control_change channel=0 control=10 value=64 time=0.0023980833333333332
EXTRACT: control_change channel=0 control=10 value=65 time=0.011990416666666667
EXTRACT: note_on channel=11 note=51 velocity=0 time=0.0023980833333333332
EXTRACT: control_change channel=0 control=10 value=67 time=0.019184666666666666
EXTRACT: note_on channel=9 note=70 velocity=0 time=0.0047961666666666665
EXTRACT: note_on channel=9 note=35 velocity=0 time=0.007194249999999999
EXTRACT: note_on channel=0 note=89 velocity=127 time=0.0047961666666666665
EXTRACT: control_change channel=0 control=10 value=69 time=0.023980833333333333
EXTRACT: note_on channel=0 note=93 velocity=0 time=0.023980833333333333
EXTRACT: control_change channel=0 control=10 value=71 time=0
EXTRACT: control_change channel=4 control=11 value=80 time=0.007194249999999999
EXTRACT: note_on channel=0 note=88 velocity=127 time=0.007194249999999999
EXTRACT: control_change channel=0 control=10 value=73 time=0.011990416666666667
EXTRACT: note_on channel=3 note=68 velocity=0 time=0.0023980833333333332
EXTRACT: note_on channel=3 note=80 velocity=0 time=0
EXTRACT: note_on channel=0 note=91 velocity=0 time=0.019184666666666666
EXTRACT: note_on channel=0 note=86 velocity=127 time=0.009592333333333333
EXTRACT: control_change channel=0 control=10 value=75 time=0.0047961666666666665
EXTRACT: control_change channel=0 control=10 value=77 time=0.021582749999999998
EXTRACT: note_on channel=0 note=89 velocity=0 time=0.011990416666666667
EXTRACT: note_on channel=0 note=84 velocity=127 time=0
EXTRACT: control_change channel=7 control=11 value=93 time=0.0023980833333333332
EXTRACT: control_change channel=6 control=11 value=93 time=0.0023980833333333332
EXTRACT: note_on channel=1 note=32 velocity=121 time=0.009592333333333333
EXTRACT: control_change channel=0 control=10 value=79 time=0.0023980833333333332
EXTRACT: note_on channel=9 note=46 velocity=63 time=0.019184666666666666
EXTRACT: note_on channel=3 note=82 velocity=111 time=0.0023980833333333332
EXTRACT: note_on channel=3 note=70 velocity=81 time=0
EXTRACT: control_change channel=0 control=10 value=81 time=0.011990416666666667
EXTRACT: note_on channel=0 note=88 velocity=0 time=0.0023980833333333332
EXTRACT: control_change channel=7 control=11 value=97 time=0.0047961666666666665
EXTRACT: control_change channel=6 control=11 value=97 time=0.0023980833333333332
EXTRACT: note_on channel=0 note=82 velocity=127 time=0.007194249999999999
EXTRACT: control_change channel=0 control=10 value=83 time=0.007194249999999999
EXTRACT: control_change channel=4 control=11 value=78 time=0.007194249999999999
EXTRACT: note_on channel=9 note=85 velocity=79 time=0.0047961666666666665
EXTRACT: control_change channel=7 control=11 value=101 time=0.0023980833333333332
EXTRACT: control_change channel=6 control=11 value=101 time=0.0023980833333333332
EXTRACT: note_on channel=9 note=46 velocity=0 time=0.0023980833333333332
EXTRACT: control_change channel=7 control=11 value=105 time=0.011990416666666667
EXTRACT: control_change channel=6 control=11 value=105 time=0.0023980833333333332
EXTRACT: control_change channel=0 control=10 value=85 time=0.0047961666666666665
EXTRACT: note_on channel=9 note=85 velocity=0 time=0.0047961666666666665
EXTRACT: control_change channel=7 control=11 value=109 time=0.0023980833333333332
EXTRACT: control_change channel=6 control=11 value=109 time=0.0023980833333333332
EXTRACT: note_on channel=0 note=86 velocity=0 time=0.0047961666666666665
EXTRACT: control_change channel=0 control=10 value=87 time=0.009592333333333333
EXTRACT: note_on channel=0 note=81 velocity=127 time=0
EXTRACT: control_change channel=7 control=11 value=114 time=0
EXTRACT: control_change channel=6 control=11 value=114 time=0.0023980833333333332
EXTRACT: note_on channel=9 note=42 velocity=83 time=0.0047961666666666665
EXTRACT: control_change channel=7 control=11 value=120 time=0.007194249999999999
EXTRACT: control_change channel=6 control=11 value=120 time=0.0023980833333333332
EXTRACT: note_on channel=3 note=70 velocity=0 time=0.0047961666666666665
EXTRACT: note_on channel=3 note=82 velocity=0 time=0
EXTRACT: control_change channel=0 control=10 value=89 time=0.007194249999999999
EXTRACT: note_on channel=9 note=85 velocity=77 time=0
EXTRACT: control_change channel=7 control=11 value=120 time=0.009592333333333333
EXTRACT: control_change channel=6 control=11 value=120 time=0.0023980833333333332
EXTRACT: note_on channel=9 note=39 velocity=50 time=0.007194249999999999
EXTRACT: note_on channel=9 note=85 velocity=0 time=0.011990416666666667
EXTRACT: control_change channel=0 control=10 value=91 time=0.0023980833333333332
EXTRACT: note_on channel=0 note=84 velocity=0 time=0.0023980833333333332
EXTRACT: note_on channel=9 note=42 velocity=0 time=0
EXTRACT: note_on channel=0 note=79 velocity=127 time=0.0047961666666666665
EXTRACT: note_on channel=7 note=44 velocity=0 time=0
EXTRACT: control_change channel=0 control=10 value=93 time=0.016786583333333334
EXTRACT: note_on channel=6 note=56 velocity=0 time=0.0047961666666666665
EXTRACT: note_on channel=1 note=32 velocity=0 time=0.011990416666666667
EXTRACT: note_on channel=9 note=39 velocity=0 time=0.0023980833333333332
EXTRACT: control_change channel=0 control=10 value=95 time=0.007194249999999999
EXTRACT: note_on channel=9 note=70 velocity=82 time=0.0047961666666666665
EXTRACT: note_on channel=11 note=44 velocity=127 time=0.0023980833333333332
EXTRACT: note_on channel=3 note=80 velocity=110 time=0.0047961666666666665
EXTRACT: note_on channel=3 note=68 velocity=80 time=0
EXTRACT: note_on channel=9 note=40 velocity=55 time=0
EXTRACT: note_on channel=9 note=37 velocity=91 time=0
EXTRACT: note_on channel=9 note=28 velocity=68 time=0
EXTRACT: note_on channel=9 note=39 velocity=73 time=0
EXTRACT: note_on channel=9 note=85 velocity=79 time=0
EXTRACT: note_on channel=9 note=35 velocity=97 time=0
EXTRACT: note_on channel=9 note=28 velocity=0 time=0.0023980833333333332
EXTRACT: note_on channel=9 note=37 velocity=0 time=0
EXTRACT: note_on channel=0 note=82 velocity=0 time=0.009592333333333333
EXTRACT: note_on channel=0 note=77 velocity=127 time=0.0047961666666666665
EXTRACT: control_change channel=0 control=10 value=97 time=0.007194249999999999
EXTRACT: note_on channel=11 note=44 velocity=0 time=0.0023980833333333332
EXTRACT: note_on channel=9 note=85 velocity=0 time=0.0047961666666666665
EXTRACT: note_on channel=9 note=39 velocity=55 time=0
EXTRACT: control_change channel=4 control=11 value=76 time=0.009592333333333333
EXTRACT: control_change channel=0 control=10 value=99 time=0.007194249999999999
EXTRACT: note_on channel=9 note=70 velocity=0 time=0.0023980833333333332
EXTRACT: note_on channel=9 note=35 velocity=0 time=0.007194249999999999
EXTRACT: note_on channel=9 note=40 velocity=0 time=0
EXTRACT: note_on channel=9 note=39 velocity=0 time=0
EXTRACT: note_on channel=0 note=81 velocity=0 time=0.019184666666666666
EXTRACT: note_on channel=0 note=76 velocity=127 time=0.0023980833333333332
EXTRACT: control_change channel=0 control=10 value=101 time=0.007194249999999999
EXTRACT: note_on channel=9 note=39 velocity=0 time=0.0023980833333333332
EXTRACT: control_change channel=0 control=10 value=103 time=0.021582749999999998
EXTRACT: control_change channel=0 control=10 value=105 time=0.026378916666666665
EXTRACT: note_on channel=0 note=79 velocity=0 time=0.0023980833333333332
EXTRACT: note_on channel=0 note=74 velocity=127 time=0.0023980833333333332
EXTRACT: control_change channel=0 control=10 value=107 time=0.031175083333333332
EXTRACT: control_change channel=0 control=10 value=109 time=0.023980833333333333
EXTRACT: note_on channel=0 note=77 velocity=0 time=0.007194249999999999
EXTRACT: note_on channel=0 note=72 velocity=127 time=0.0047961666666666665
EXTRACT: note_on channel=7 note=48 velocity=78 time=0.009592333333333333
EXTRACT: note_on channel=1 note=32 velocity=118 time=0.0023980833333333332
EXTRACT: note_on channel=6 note=60 velocity=76 time=0
EXTRACT: control_change channel=0 control=10 value=111 time=0.0023980833333333332
EXTRACT: note_on channel=9 note=46 velocity=62 time=0.019184666666666666
EXTRACT: note_on channel=0 note=76 velocity=0 time=0.011990416666666667
EXTRACT: control_change channel=0 control=10 value=113 time=0.0047961666666666665
EXTRACT: note_on channel=0 note=70 velocity=127 time=0.0023980833333333332
EXTRACT: note_on channel=3 note=68 velocity=0 time=0
EXTRACT: note_on channel=3 note=80 velocity=0 time=0
EXTRACT: control_change channel=0 control=10 value=115 time=0.019184666666666666
EXTRACT: note_on channel=9 note=46 velocity=0 time=0.019184666666666666
EXTRACT: note_on channel=0 note=74 velocity=0 time=0.011990416666666667
EXTRACT: control_change channel=0 control=10 value=117 time=0.009592333333333333
EXTRACT: note_on channel=0 note=69 velocity=127 time=0
EXTRACT: note_on channel=7 note=48 velocity=0 time=0.011990416666666667
EXTRACT: note_on channel=6 note=60 velocity=0 time=0.0023980833333333332
EXTRACT: control_change channel=7 control=11 value=120 time=0
EXTRACT: control_change channel=6 control=11 value=120 time=0.0023980833333333332
EXTRACT: control_change channel=0 control=10 value=119 time=0.007194249999999999
EXTRACT: note_on channel=9 note=42 velocity=83 time=0.007194249999999999
EXTRACT: note_on channel=0 note=72 velocity=0 time=0.014388499999999999
EXTRACT: control_change channel=0 control=10 value=121 time=0.0047961666666666665
EXTRACT: note_on channel=0 note=67 velocity=127 time=0.031175083333333332
EXTRACT: control_change channel=0 control=10 value=123 time=0.0047961666666666665
EXTRACT: note_on channel=9 note=42 velocity=0 time=0.0023980833333333332
EXTRACT: note_on channel=0 note=70 velocity=0 time=0.009592333333333333
EXTRACT: control_change channel=0 control=10 value=125 time=0.009592333333333333
EXTRACT: note_on channel=1 note=32 velocity=0 time=0.016786583333333334
EXTRACT: control_change channel=7 control=11 value=120 time=0.007194249999999999
EXTRACT: note_on channel=7 note=49 velocity=81 time=0
EXTRACT: note_on channel=6 note=61 velocity=79 time=0.0023980833333333332
EXTRACT: control_change channel=0 control=10 value=127 time=0.0023980833333333332
EXTRACT: note_on channel=4 note=73 velocity=110 time=0.0023980833333333332
EXTRACT: note_on channel=4 note=65 velocity=105 time=0
EXTRACT: note_on channel=4 note=61 velocity=102 time=0
EXTRACT: note_on channel=9 note=70 velocity=80 time=0
EXTRACT: note_on channel=4 note=60 velocity=0 time=0.0023980833333333332
EXTRACT: note_on channel=4 note=56 velocity=0 time=0
EXTRACT: note_on channel=4 note=54 velocity=0 time=0
EXTRACT: note_on channel=4 note=66 velocity=0 time=0
EXTRACT: note_on channel=11 note=46 velocity=127 time=0.0023980833333333332
EXTRACT: note_on channel=9 note=35 velocity=97 time=0.0047961666666666665
EXTRACT: note_on channel=9 note=57 velocity=74 time=0
EXTRACT: note_on channel=0 note=66 velocity=127 time=0.0023980833333333332
EXTRACT: note_on channel=0 note=69 velocity=0 time=0.0047961666666666665
EXTRACT: note_on channel=11 note=46 velocity=0 time=0.019184666666666666
EXTRACT: note_on channel=0 note=66 velocity=0 time=0.0023980833333333332
EXTRACT: control_change channel=6 control=11 value=118 time=0.009592333333333333
EXTRACT: control_change channel=7 control=11 value=116 time=0.007194249999999999
EXTRACT: note_on channel=0 note=67 velocity=0 time=0.0023980833333333332
EXTRACT: note_on channel=9 note=70 velocity=0 time=0
EXTRACT: note_on channel=9 note=57 velocity=0 time=0.009592333333333333
EXTRACT: note_on channel=9 note=35 velocity=0 time=0
EXTRACT: control_change channel=4 control=11 value=78 time=0.0047961666666666665
EXTRACT: control_change channel=6 control=11 value=113 time=0.007194249999999999
EXTRACT: control_change channel=7 control=11 value=110 time=0.014388499999999999
EXTRACT: control_change channel=6 control=11 value=106 time=0.016786583333333334
EXTRACT: control_change channel=7 control=11 value=104 time=0.014388499999999999
EXTRACT: control_change channel=6 control=11 value=102 time=0.016786583333333334
EXTRACT: control_change channel=7 control=11 value=100 time=0.014388499999999999
EXTRACT: control_change channel=6 control=11 value=98 time=0.019184666666666666
EXTRACT: control_change channel=7 control=11 value=96 time=0.035971249999999996
EXTRACT: note_on channel=7 note=49 velocity=0 time=0.007194249999999999
EXTRACT: note_on channel=6 note=61 velocity=0 time=0.0023980833333333332
EXTRACT: control_change channel=6 control=11 value=120 time=0
EXTRACT: note_on channel=7 note=49 velocity=74 time=0.0047961666666666665
EXTRACT: note_on channel=1 note=25 velocity=126 time=0.0023980833333333332
EXTRACT: note_on channel=6 note=61 velocity=72 time=0
EXTRACT: note_on channel=9 note=70 velocity=77 time=0.007194249999999999
EXTRACT: note_on channel=9 note=46 velocity=61 time=0.016786583333333334
EXTRACT: control_change channel=7 control=11 value=118 time=0.021582749999999998
EXTRACT: control_change channel=4 control=11 value=76 time=0.016786583333333334
EXTRACT: control_change channel=6 control=11 value=116 time=0
EXTRACT: note_on channel=9 note=70 velocity=0 time=0.0023980833333333332
EXTRACT: control_change channel=7 control=11 value=113 time=0.011990416666666667
EXTRACT: note_on channel=9 note=46 velocity=0 time=0.0047961666666666665
EXTRACT: control_change channel=6 control=11 value=111 time=0.0047961666666666665
EXTRACT: control_change channel=7 control=11 value=109 time=0.014388499999999999
EXTRACT: control_change channel=6 control=11 value=107 time=0.009592333333333333
EXTRACT: control_change channel=7 control=11 value=105 time=0.011990416666666667
EXTRACT: note_on channel=9 note=70 velocity=67 time=0.0023980833333333332
EXTRACT: note_on channel=9 note=42 velocity=109 time=0.007194249999999999
EXTRACT: control_change channel=6 control=11 value=103 time=0.0023980833333333332
EXTRACT: control_change channel=7 control=11 value=101 time=0.0047961666666666665
EXTRACT: control_change channel=6 control=11 value=99 time=0.016786583333333334
EXTRACT: control_change channel=7 control=11 value=96 time=0.014388499999999999
EXTRACT: control_change channel=6 control=11 value=94 time=0.009592333333333333
EXTRACT: note_on channel=9 note=70 velocity=0 time=0.0023980833333333332
EXTRACT: control_change channel=7 control=11 value=92 time=0.0023980833333333332
EXTRACT: note_on channel=9 note=42 velocity=0 time=0.0047961666666666665
EXTRACT: control_change channel=6 control=11 value=90 time=0.007194249999999999
EXTRACT: control_change channel=7 control=11 value=87 time=0.011990416666666667
EXTRACT: note_on channel=1 note=25 velocity=0 time=0.016786583333333334
EXTRACT: control_change channel=6 control=11 value=85 time=0.0023980833333333332
EXTRACT: control_change channel=7 control=11 value=83 time=0.011990416666666667
EXTRACT: note_on channel=9 note=70 velocity=108 time=0.0023980833333333332
EXTRACT: note_on channel=11 note=46 velocity=127 time=0.0023980833333333332
EXTRACT: note_on channel=9 note=37 velocity=91 time=0.0047961666666666665
EXTRACT: note_on channel=9 note=28 velocity=68 time=0
EXTRACT: note_on channel=9 note=39 velocity=67 time=0
EXTRACT: note_on channel=9 note=35 velocity=97 time=0
EXTRACT: note_on channel=9 note=28 velocity=0 time=0.0023980833333333332
EXTRACT: note_on channel=9 note=37 velocity=0 time=0
EXTRACT: note_on channel=3 note=68 velocity=126 time=0
EXTRACT: note_on channel=3 note=56 velocity=91 time=0
EXTRACT: note_on channel=9 note=40 velocity=64 time=0
EXTRACT: control_change channel=6 control=11 value=81 time=0.0047961666666666665
EXTRACT: control_change channel=7 control=11 value=78 time=0.011990416666666667
EXTRACT: note_on channel=11 note=46 velocity=0 time=0.0047961666666666665
EXTRACT: control_change channel=6 control=11 value=76 time=0.0047961666666666665
EXTRACT: note_on channel=9 note=39 velocity=50 time=0
EXTRACT: control_change channel=7 control=11 value=74 time=0.014388499999999999
EXTRACT: note_on channel=9 note=70 velocity=0 time=0.0047961666666666665
EXTRACT: note_on channel=9 note=39 velocity=0 time=0.007194249999999999
EXTRACT: note_on channel=9 note=35 velocity=0 time=0
EXTRACT: note_on channel=9 note=40 velocity=0 time=0.0047961666666666665
EXTRACT: control_change channel=6 control=11 value=72 time=0.0023980833333333332
EXTRACT: control_change channel=7 control=11 value=70 time=0.011990416666666667
EXTRACT: note_on channel=9 note=39 velocity=0 time=0.011990416666666667
EXTRACT: control_change channel=6 control=11 value=68 time=0.021582749999999998
EXTRACT: control_change channel=7 control=11 value=66 time=0.021582749999999998
EXTRACT: control_change channel=7 control=11 value=64 time=0.014388499999999999
EXTRACT: control_change channel=6 control=11 value=64 time=0.0023980833333333332
EXTRACT: control_change channel=7 control=11 value=62 time=0.021582749999999998
EXTRACT: control_change channel=4 control=11 value=74 time=0.009592333333333333
EXTRACT: control_change channel=6 control=11 value=60 time=0.023980833333333333
EXTRACT: note_on channel=9 note=70 velocity=75 time=0.009592333333333333
EXTRACT: note_on channel=1 note=25 velocity=118 time=0.007194249999999999
EXTRACT: control_change channel=7 control=11 value=58 time=0.019184666666666666
EXTRACT: note_on channel=9 note=46 velocity=59 time=0.0023980833333333332
EXTRACT: control_change channel=6 control=11 value=56 time=0.023980833333333333
EXTRACT: note_on channel=9 note=70 velocity=0 time=0.0047961666666666665
EXTRACT: note_on channel=9 note=85 velocity=79 time=0.021582749999999998
EXTRACT: note_on channel=9 note=46 velocity=0 time=0.007194249999999999
EXTRACT: control_change channel=7 control=11 value=54 time=0.0023980833333333332
EXTRACT: note_on channel=9 note=85 velocity=0 time=0.021582749999999998
EXTRACT: note_on channel=9 note=70 velocity=67 time=0.019184666666666666
EXTRACT: note_on channel=9 note=42 velocity=108 time=0.007194249999999999
EXTRACT: control_change channel=6 control=11 value=52 time=0.009592333333333333
EXTRACT: note_on channel=9 note=85 velocity=77 time=0.011990416666666667
EXTRACT: note_on channel=9 note=70 velocity=0 time=0.028776999999999997
EXTRACT: note_on channel=9 note=85 velocity=0 time=0.0023980833333333332
EXTRACT: note_on channel=9 note=42 velocity=0 time=0.0047961666666666665
EXTRACT: note_on channel=3 note=56 velocity=0 time=0.009592333333333333
EXTRACT: note_on channel=3 note=68 velocity=0 time=0
EXTRACT: note_on channel=1 note=25 velocity=0 time=0.028776999999999997
EXTRACT: note_on channel=9 note=70 velocity=108 time=0.014388499999999999
EXTRACT: note_on channel=9 note=85 velocity=79 time=0.007194249999999999
EXTRACT: note_on channel=9 note=35 velocity=97 time=0
EXTRACT: note_on channel=3 note=61 velocity=126 time=0.009592333333333333
EXTRACT: note_on channel=3 note=49 velocity=91 time=0
EXTRACT: note_on channel=9 note=85 velocity=0 time=0.021582749999999998
EXTRACT: control_change channel=4 control=11 value=76 time=0.016786583333333334
EXTRACT: note_on channel=9 note=70 velocity=0 time=0.0023980833333333332
EXTRACT: note_on channel=9 note=35 velocity=0 time=0.007194249999999999
EXTRACT: control_change channel=7 control=11 value=50 time=0.06714633333333334
EXTRACT: note_on channel=1 note=25 velocity=121 time=0.09592333333333333
EXTRACT: note_on channel=9 note=70 velocity=76 time=0.007194249999999999
EXTRACT: note_on channel=9 note=46 velocity=61 time=0.014388499999999999
EXTRACT: note_on channel=9 note=70 velocity=0 time=0.043165499999999996
EXTRACT: note_on channel=9 note=46 velocity=0 time=0.014388499999999999
EXTRACT: note_on channel=9 note=70 velocity=67 time=0.04556358333333333
EXTRACT: note_on channel=9 note=42 velocity=108 time=0.007194249999999999
EXTRACT: note_on channel=3 note=49 velocity=0 time=0.0023980833333333332
EXTRACT: note_on channel=3 note=61 velocity=0 time=0
EXTRACT: note_on channel=9 note=70 velocity=0 time=0.047961666666666666
EXTRACT: note_on channel=9 note=42 velocity=0 time=0.007194249999999999
EXTRACT: note_on channel=1 note=25 velocity=0 time=0.035971249999999996
EXTRACT: note_on channel=3 note=68 velocity=122 time=0.011990416666666667
EXTRACT: note_on channel=3 note=56 velocity=89 time=0
EXTRACT: note_on channel=9 note=70 velocity=107 time=0.0023980833333333332
EXTRACT: control_change channel=4 control=11 value=78 time=0.009592333333333333
EXTRACT: note_on channel=9 note=40 velocity=54 time=0
EXTRACT: note_on channel=9 note=37 velocity=91 time=0
EXTRACT: note_on channel=9 note=28 velocity=68 time=0
EXTRACT: note_on channel=9 note=39 velocity=72 time=0
EXTRACT: note_on channel=9 note=35 velocity=97 time=0
EXTRACT: note_on channel=9 note=28 velocity=0 time=0.0023980833333333332
EXTRACT: note_on channel=9 note=37 velocity=0 time=0
EXTRACT: control_change channel=6 control=11 value=52 time=0.014388499999999999
EXTRACT: note_on channel=9 note=39 velocity=55 time=0.014388499999999999
EXTRACT: note_on channel=9 note=70 velocity=0 time=0.016786583333333334
EXTRACT: note_on channel=9 note=35 velocity=0 time=0.009592333333333333
EXTRACT: note_on channel=9 note=40 velocity=0 time=0
EXTRACT: note_on channel=9 note=39 velocity=0 time=0
EXTRACT: note_on channel=9 note=39 velocity=0 time=0.031175083333333332
EXTRACT: note_on channel=3 note=56 velocity=0 time=0.10791374999999999
EXTRACT: note_on channel=3 note=68 velocity=0 time=0
EXTRACT: note_on channel=1 note=25 velocity=126 time=0.021582749999999998
EXTRACT: note_on channel=9 note=70 velocity=73 time=0.007194249999999999
EXTRACT: note_on channel=9 note=46 velocity=61 time=0.016786583333333334
EXTRACT: control_change channel=7 control=11 value=54 time=0.014388499999999999
EXTRACT: control_change channel=6 control=11 value=56 time=0.016786583333333334
EXTRACT: note_on channel=9 note=70 velocity=0 time=0.009592333333333333
EXTRACT: control_change channel=4 control=11 value=80 time=0.011990416666666667
EXTRACT: note_on channel=9 note=46 velocity=0 time=0.0047961666666666665
EXTRACT: note_on channel=9 note=70 velocity=67 time=0.043165499999999996
EXTRACT: note_on channel=9 note=42 velocity=109 time=0.007194249999999999
EXTRACT: control_change channel=7 control=11 value=58 time=0.03836933333333333
EXTRACT: note_on channel=9 note=70 velocity=0 time=0.011990416666666667
EXTRACT: note_on channel=9 note=42 velocity=0 time=0.007194249999999999
EXTRACT: note_on channel=1 note=25 velocity=0 time=0.035971249999999996
EXTRACT: control_change channel=6 control=11 value=60 time=0.009592333333333333
EXTRACT: note_on channel=3 note=68 velocity=121 time=0.0023980833333333332
EXTRACT: note_on channel=3 note=56 velocity=88 time=0
EXTRACT: note_on channel=9 note=70 velocity=108 time=0.0047961666666666665
EXTRACT: note_on channel=9 note=35 velocity=97 time=0.007194249999999999
EXTRACT: control_change channel=7 control=11 value=62 time=0.03836933333333333
EXTRACT: note_on channel=9 note=70 velocity=0 time=0.011990416666666667
EXTRACT: note_on channel=9 note=35 velocity=0 time=0.007194249999999999
EXTRACT: control_change channel=7 control=11 value=64 time=0.026378916666666665
EXTRACT: control_change channel=6 control=11 value=64 time=0.0023980833333333332
EXTRACT: control_change channel=7 control=11 value=66 time=0.014388499999999999
EXTRACT: control_change channel=6 control=11 value=68 time=0.047961666666666666
EXTRACT: control_change channel=7 control=11 value=70 time=0.021582749999999998
EXTRACT: control_change channel=4 control=11 value=82 time=0.047961666666666666
EXTRACT: note_on channel=1 note=25 velocity=118 time=0.0023980833333333332
EXTRACT: note_on channel=9 note=70 velocity=77 time=0.0047961666666666665
EXTRACT: note_on channel=9 note=46 velocity=61 time=0.016786583333333334
EXTRACT: control_change channel=6 control=11 value=72 time=0.009592333333333333
EXTRACT: control_change channel=7 control=11 value=74 time=0.011990416666666667
EXTRACT: note_on channel=9 note=70 velocity=0 time=0.019184666666666666
EXTRACT: note_on channel=9 note=46 velocity=0 time=0.016786583333333334
EXTRACT: control_change channel=6 control=11 value=76 time=0.014388499999999999
EXTRACT: note_on channel=9 note=70 velocity=67 time=0.028776999999999997
EXTRACT: note_on channel=9 note=42 velocity=113 time=0.007194249999999999
EXTRACT: control_change channel=7 control=11 value=78 time=0.016786583333333334
EXTRACT: note_on channel=3 note=56 velocity=0 time=0.03357316666666667
EXTRACT: note_on channel=3 note=68 velocity=0 time=0
EXTRACT: note_on channel=9 note=70 velocity=0 time=0
EXTRACT: note_on channel=9 note=42 velocity=0 time=0.007194249999999999
EXTRACT: control_change channel=6 control=11 value=80 time=0.023980833333333333
EXTRACT: note_on channel=1 note=25 velocity=0 time=0.014388499999999999
EXTRACT: note_on channel=9 note=70 velocity=103 time=0.014388499999999999
EXTRACT: note_on channel=9 note=37 velocity=91 time=0.007194249999999999
EXTRACT: note_on channel=9 note=28 velocity=68 time=0
EXTRACT: note_on channel=9 note=39 velocity=67 time=0
EXTRACT: note_on channel=9 note=35 velocity=97 time=0
EXTRACT: note_on channel=9 note=28 velocity=0 time=0.0023980833333333332
EXTRACT: note_on channel=9 note=37 velocity=0 time=0
EXTRACT: note_on channel=3 note=70 velocity=113 time=0.0023980833333333332
EXTRACT: note_on channel=3 note=58 velocity=82 time=0
EXTRACT: note_on channel=9 note=40 velocity=65 time=0
EXTRACT: note_on channel=9 note=39 velocity=50 time=0.026378916666666665
EXTRACT: note_on channel=9 note=70 velocity=0 time=0.019184666666666666
EXTRACT: control_change channel=7 control=11 value=82 time=0.0047961666666666665
EXTRACT: note_on channel=9 note=39 velocity=0 time=0.0023980833333333332
EXTRACT: note_on channel=9 note=35 velocity=0 time=0
EXTRACT: note_on channel=9 note=40 velocity=0 time=0.0047961666666666665
EXTRACT: note_on channel=9 note=39 velocity=0 time=0.026378916666666665
EXTRACT: control_change channel=6 control=11 value=84 time=0.10791374999999999
EXTRACT: note_on channel=3 note=58 velocity=0 time=0.007194249999999999
EXTRACT: note_on channel=3 note=70 velocity=0 time=0
EXTRACT: note_on channel=9 note=70 velocity=75 time=0.011990416666666667
EXTRACT: note_on channel=1 note=25 velocity=121 time=0.0047961666666666665
EXTRACT: note_on channel=9 note=46 velocity=62 time=0.021582749999999998
EXTRACT: note_on channel=3 note=68 velocity=121 time=0.009592333333333333
EXTRACT: note_on channel=3 note=56 velocity=88 time=0
EXTRACT: control_change channel=7 control=11 value=86 time=0.014388499999999999
EXTRACT: note_on channel=9 note=70 velocity=0 time=0.007194249999999999
EXTRACT: note_on channel=9 note=46 velocity=0 time=0.026378916666666665
EXTRACT: control_change channel=6 control=11 value=88 time=0.03836933333333333
EXTRACT: note_on channel=9 note=70 velocity=67 time=0.007194249999999999
EXTRACT: control_change channel=7 control=11 value=90 time=0.0047961666666666665
EXTRACT: note_on channel=9 note=42 velocity=111 time=0.0023980833333333332
EXTRACT: control_change channel=6 control=11 value=92 time=0.023980833333333333
EXTRACT: note_on channel=9 note=70 velocity=0 time=0.026378916666666665
EXTRACT: note_on channel=9 note=42 velocity=0 time=0.007194249999999999
EXTRACT: note_on channel=1 note=25 velocity=0 time=0.035971249999999996
EXTRACT: note_on channel=9 note=70 velocity=103 time=0.014388499999999999
EXTRACT: note_on channel=9 note=35 velocity=97 time=0.009592333333333333
EXTRACT: control_change channel=4 control=11 value=80 time=0.031175083333333332
EXTRACT: note_on channel=9 note=70 velocity=0 time=0.016786583333333334
EXTRACT: note_on channel=9 note=35 velocity=0 time=0.009592333333333333
EXTRACT: control_change channel=7 control=11 value=94 time=0.11270991666666666
EXTRACT: note_on channel=3 note=56 velocity=0 time=0.016786583333333334
EXTRACT: note_on channel=3 note=68 velocity=0 time=0
EXTRACT: note_on channel=1 note=25 velocity=121 time=0.031175083333333332
EXTRACT: control_change channel=6 control=11 value=96 time=0
EXTRACT: control_change channel=4 control=11 value=78 time=0.007194249999999999
EXTRACT: control_change channel=7 control=11 value=98 time=0.007194249999999999
EXTRACT: note_on channel=9 note=82 velocity=65 time=0
EXTRACT: note_on channel=3 note=70 velocity=124 time=0.0047961666666666665
EXTRACT: note_on channel=3 note=58 velocity=90 time=0
EXTRACT: note_on channel=9 note=46 velocity=63 time=0.0047961666666666665
EXTRACT: control_change channel=6 control=11 value=100 time=0.031175083333333332
EXTRACT: control_change channel=7 control=11 value=102 time=0.014388499999999999
EXTRACT: note_on channel=9 note=82 velocity=0 time=0.0023980833333333332
EXTRACT: note_on channel=9 note=85 velocity=79 time=0.0023980833333333332
EXTRACT: note_on channel=9 note=46 velocity=0 time=0.007194249999999999
EXTRACT: control_change channel=6 control=11 value=104 time=0.0047961666666666665
EXTRACT: control_change channel=7 control=11 value=107 time=0.014388499999999999
EXTRACT: note_on channel=9 note=85 velocity=0 time=0.0047961666666666665
EXTRACT: control_change channel=6 control=11 value=109 time=0.0047961666666666665
EXTRACT: control_change channel=7 control=11 value=111 time=0.0047961666666666665
EXTRACT: control_change channel=6 control=11 value=113 time=0.009592333333333333
EXTRACT: control_change channel=7 control=11 value=115 time=0.007194249999999999
EXTRACT: note_on channel=9 note=82 velocity=57 time=0
EXTRACT: note_on channel=9 note=42 velocity=111 time=0
EXTRACT: control_change channel=6 control=11 value=117 time=0.009592333333333333
EXTRACT: control_change channel=7 control=11 value=120 time=0.0047961666666666665
EXTRACT: note_on channel=9 note=85 velocity=77 time=0.0047961666666666665
EXTRACT: control_change channel=6 control=11 value=122 time=0.0047961666666666665
EXTRACT: control_change channel=7 control=11 value=120 time=0.014388499999999999
EXTRACT: note_on channel=9 note=39 velocity=50 time=0
EXTRACT: note_on channel=9 note=85 velocity=0 time=0.011990416666666667
EXTRACT: note_on channel=9 note=82 velocity=0 time=0.007194249999999999
EXTRACT: note_on channel=9 note=42 velocity=0 time=0
EXTRACT: note_on channel=3 note=58 velocity=0 time=0.0047961666666666665
EXTRACT: note_on channel=3 note=70 velocity=0 time=0
EXTRACT: note_on channel=7 note=49 velocity=0 time=0.0047961666666666665
EXTRACT: note_on channel=6 note=61 velocity=0 time=0.019184666666666666
EXTRACT: note_on channel=1 note=25 velocity=0 time=0.007194249999999999
EXTRACT: note_on channel=9 note=39 velocity=0 time=0.0023980833333333332
EXTRACT: control_change channel=4 control=11 value=76 time=0.014388499999999999
EXTRACT: note_on channel=3 note=68 velocity=122 time=0.0023980833333333332
EXTRACT: note_on channel=3 note=56 velocity=89 time=0
EXTRACT: note_on channel=9 note=40 velocity=56 time=0.0047961666666666665
EXTRACT: note_on channel=9 note=37 velocity=91 time=0
EXTRACT: note_on channel=9 note=28 velocity=68 time=0
EXTRACT: note_on channel=9 note=39 velocity=73 time=0
EXTRACT: note_on channel=9 note=82 velocity=71 time=0
EXTRACT: note_on channel=9 note=85 velocity=79 time=0
EXTRACT: note_on channel=9 note=35 velocity=97 time=0
EXTRACT: note_on channel=9 note=28 velocity=0 time=0.0023980833333333332
EXTRACT: note_on channel=9 note=37 velocity=0 time=0
EXTRACT: note_on channel=9 note=85 velocity=0 time=0.028776999999999997
EXTRACT: note_on channel=9 note=39 velocity=55 time=0
EXTRACT: note_on channel=9 note=39 velocity=0 time=0.026378916666666665
EXTRACT: note_on channel=9 note=82 velocity=0 time=0
EXTRACT: note_on channel=9 note=40 velocity=0 time=0
EXTRACT: note_on channel=9 note=35 velocity=0 time=0
EXTRACT: note_on channel=9 note=39 velocity=0 time=0.031175083333333332
EXTRACT: note_on channel=3 note=56 velocity=0 time=0.031175083333333332
EXTRACT: note_on channel=3 note=68 velocity=0 time=0
EXTRACT: note_on channel=7 note=48 velocity=82 time=0.09832141666666666
EXTRACT: note_on channel=1 note=25 velocity=118 time=0.0023980833333333332
EXTRACT: note_on channel=6 note=60 velocity=79 time=0
EXTRACT: note_on channel=9 note=82 velocity=53 time=0.014388499999999999
EXTRACT: note_on channel=9 note=46 velocity=62 time=0.007194249999999999
EXTRACT: control_change channel=6 control=11 value=117 time=0.031175083333333332
EXTRACT: control_change channel=7 control=11 value=114 time=0.007194249999999999
EXTRACT: note_on channel=9 note=82 velocity=0 time=0.011990416666666667
EXTRACT: control_change channel=6 control=11 value=112 time=0.0047961666666666665
EXTRACT: note_on channel=9 note=46 velocity=0 time=0.0023980833333333332
EXTRACT: control_change channel=7 control=11 value=110 time=0.0023980833333333332
EXTRACT: control_change channel=6 control=11 value=108 time=0.011990416666666667
EXTRACT: control_change channel=7 control=11 value=105 time=0.0047961666666666665
EXTRACT: control_change channel=6 control=11 value=99 time=0.019184666666666666
EXTRACT: control_change channel=7 control=11 value=96 time=0.011990416666666667
EXTRACT: note_on channel=9 note=82 velocity=50 time=0.0023980833333333332
EXTRACT: note_on channel=9 note=42 velocity=113 time=0
EXTRACT: control_change channel=6 control=11 value=94 time=0.007194249999999999
EXTRACT: control_change channel=7 control=11 value=92 time=0.007194249999999999
EXTRACT: control_change channel=6 control=11 value=90 time=0.016786583333333334
EXTRACT: control_change channel=7 control=11 value=88 time=0.0047961666666666665
EXTRACT: control_change channel=6 control=11 value=86 time=0.019184666666666666
EXTRACT: note_on channel=9 note=42 velocity=0 time=0.0023980833333333332
EXTRACT: note_on channel=9 note=82 velocity=0 time=0
EXTRACT: control_change channel=7 control=11 value=84 time=0.026378916666666665
EXTRACT: note_on channel=7 note=48 velocity=0 time=0.007194249999999999
EXTRACT: note_on channel=1 note=25 velocity=0 time=0.0023980833333333332
EXTRACT: note_on channel=6 note=60 velocity=0 time=0
EXTRACT: control_change channel=6 control=11 value=120 time=0
EXTRACT: note_on channel=7 note=49 velocity=78 time=0.0047961666666666665
EXTRACT: note_on channel=6 note=61 velocity=77 time=0.0023980833333333332
EXTRACT: note_on channel=4 note=61 velocity=0 time=0.0047961666666666665
EXTRACT: note_on channel=4 note=73 velocity=0 time=0
EXTRACT: note_on channel=4 note=65 velocity=0 time=0
EXTRACT: note_on channel=4 note=68 velocity=108 time=0.0023980833333333332
EXTRACT: note_on channel=4 note=76 velocity=112 time=0
EXTRACT: note_on channel=4 note=64 velocity=104 time=0
EXTRACT: note_on channel=9 note=70 velocity=103 time=0
EXTRACT: note_on channel=9 note=35 velocity=97 time=0.007194249999999999
EXTRACT: control_change channel=7 control=11 value=117 time=0.03836933333333333
EXTRACT: control_change channel=6 control=11 value=115 time=0.009592333333333333
EXTRACT: note_on channel=9 note=70 velocity=0 time=0.0023980833333333332
EXTRACT: note_on channel=9 note=35 velocity=0 time=0.007194249999999999
EXTRACT: control_change channel=7 control=11 value=113 time=0.0047961666666666665
EXTRACT: control_change channel=6 control=11 value=111 time=0.009592333333333333
EXTRACT: control_change channel=7 control=11 value=109 time=0.0047961666666666665
EXTRACT: control_change channel=4 control=11 value=78 time=0.0023980833333333332
EXTRACT: control_change channel=6 control=11 value=106 time=0.009592333333333333
EXTRACT: control_change channel=7 control=11 value=101 time=0.011990416666666667
EXTRACT: control_change channel=6 control=11 value=99 time=0.009592333333333333
EXTRACT: control_change channel=7 control=11 value=96 time=0.014388499999999999
EXTRACT: control_change channel=6 control=11 value=94 time=0.009592333333333333
EXTRACT: control_change channel=7 control=11 value=92 time=0.014388499999999999
EXTRACT: control_change channel=6 control=11 value=90 time=0.016786583333333334
EXTRACT: control_change channel=7 control=11 value=88 time=0.014388499999999999
EXTRACT: control_change channel=6 control=11 value=86 time=0.026378916666666665
EXTRACT: note_on channel=7 note=49 velocity=0 time=0.0023980833333333332
EXTRACT: note_on channel=6 note=61 velocity=0 time=0.0023980833333333332
EXTRACT: control_change channel=7 control=11 value=120 time=0
EXTRACT: note_on channel=7 note=49 velocity=74 time=0.007194249999999999
EXTRACT: note_on channel=1 note=28 velocity=126 time=0.0023980833333333332
EXTRACT: note_on channel=6 note=61 velocity=71 time=0
EXTRACT: note_on channel=9 note=70 velocity=77 time=0.007194249999999999
EXTRACT: note_on channel=9 note=46 velocity=61 time=0.014388499999999999
EXTRACT: control_change channel=6 control=11 value=118 time=0.026378916666666665
EXTRACT: control_change channel=4 control=11 value=76 time=0.0047961666666666665
EXTRACT: control_change channel=7 control=11 value=116 time=0
EXTRACT: note_on channel=9 note=70 velocity=0 time=0.011990416666666667
EXTRACT: control_change channel=6 control=11 value=113 time=0.0047961666666666665
EXTRACT: note_on channel=9 note=46 velocity=0 time=0.009592333333333333
EXTRACT: control_change channel=7 control=11 value=110 time=0.0047961666666666665
EXTRACT: control_change channel=6 control=11 value=108 time=0.009592333333333333
EXTRACT: control_change channel=7 control=11 value=106 time=0.0047961666666666665
EXTRACT: control_change channel=6 control=11 value=104 time=0.019184666666666666
EXTRACT: control_change channel=7 control=11 value=102 time=0.0047961666666666665
EXTRACT: note_on channel=9 note=70 velocity=67 time=0.0023980833333333332
EXTRACT: control_change channel=6 control=11 value=100 time=0.007194249999999999
EXTRACT: note_on channel=9 note=42 velocity=109 time=0
EXTRACT: control_change channel=7 control=11 value=98 time=0.007194249999999999
EXTRACT: control_change channel=6 control=11 value=96 time=0.009592333333333333
EXTRACT: control_change channel=7 control=11 value=94 time=0.011990416666666667
EXTRACT: control_change channel=6 control=11 value=91 time=0.011990416666666667
EXTRACT: control_change channel=7 control=11 value=89 time=0.0047961666666666665
EXTRACT: note_on channel=9 note=70 velocity=0 time=0.0047961666666666665
EXTRACT: control_change channel=6 control=11 value=87 time=0.0047961666666666665
EXTRACT: note_on channel=9 note=42 velocity=0 time=0.0023980833333333332
EXTRACT: control_change channel=7 control=11 value=85 time=0.0023980833333333332
EXTRACT: control_change channel=6 control=11 value=83 time=0.011990416666666667
EXTRACT: control_change channel=7 control=11 value=81 time=0.0047961666666666665
EXTRACT: note_on channel=1 note=28 velocity=0 time=0.016786583333333334
EXTRACT: control_change channel=6 control=11 value=79 time=0
EXTRACT: note_on channel=3 note=68 velocity=122 time=0.011990416666666667
EXTRACT: note_on channel=3 note=56 velocity=89 time=0
EXTRACT: control_change channel=7 control=11 value=77 time=0.0023980833333333332
EXTRACT: note_on channel=9 note=70 velocity=108 time=0
EXTRACT: control_change channel=6 control=11 value=75 time=0.009592333333333333
EXTRACT: note_on channel=9 note=37 velocity=91 time=0
EXTRACT: note_on channel=9 note=28 velocity=68 time=0
EXTRACT: note_on channel=9 note=39 velocity=67 time=0
EXTRACT: note_on channel=9 note=35 velocity=97 time=0
EXTRACT: note_on channel=9 note=28 velocity=0 time=0.0023980833333333332
EXTRACT: note_on channel=9 note=37 velocity=0 time=0
EXTRACT: note_on channel=9 note=40 velocity=67 time=0
EXTRACT: control_change channel=7 control=11 value=72 time=0.011990416666666667
EXTRACT: control_change channel=6 control=11 value=70 time=0.009592333333333333
EXTRACT: control_change channel=7 control=11 value=68 time=0.0047961666666666665
EXTRACT: note_on channel=9 note=39 velocity=50 time=0.0023980833333333332
EXTRACT: control_change channel=6 control=11 value=65 time=0.016786583333333334
EXTRACT: note_on channel=9 note=70 velocity=0 time=0
EXTRACT: note_on channel=9 note=39 velocity=0 time=0.009592333333333333
EXTRACT: note_on channel=9 note=35 velocity=0 time=0
EXTRACT: control_change channel=7 control=11 value=63 time=0.0023980833333333332
EXTRACT: note_on channel=9 note=40 velocity=0 time=0
EXTRACT: control_change channel=6 control=11 value=61 time=0.019184666666666666
EXTRACT: note_on channel=9 note=39 velocity=0 time=0.009592333333333333
EXTRACT: note_on channel=3 note=56 velocity=0 time=0.007194249999999999
EXTRACT: note_on channel=3 note=68 velocity=0 time=0
EXTRACT: control_change channel=7 control=11 value=59 time=0.011990416666666667
EXTRACT: control_change channel=6 control=11 value=57 time=0.016786583333333334
EXTRACT: control_change channel=7 control=11 value=55 time=0.014388499999999999
EXTRACT: control_change channel=6 control=11 value=53 time=0.016786583333333334
EXTRACT: control_change channel=7 control=11 value=51 time=0.014388499999999999
EXTRACT: note_on channel=9 note=70 velocity=75 time=0.043165499999999996
EXTRACT: note_on channel=1 note=28 velocity=118 time=0.0047961666666666665
EXTRACT: note_on channel=3 note=68 velocity=122 time=0.0023980833333333332
EXTRACT: note_on channel=3 note=56 velocity=89 time=0
EXTRACT: control_change channel=6 control=11 value=49 time=0.007194249999999999
EXTRACT: control_change channel=7 control=11 value=47 time=0.011990416666666667
EXTRACT: note_on channel=9 note=46 velocity=59 time=0.0023980833333333332
EXTRACT: control_change channel=6 control=11 value=45 time=0.016786583333333334
EXTRACT: note_on channel=9 note=70 velocity=0 time=0.011990416666666667
EXTRACT: control_change channel=7 control=11 value=43 time=0.023980833333333333
EXTRACT: note_on channel=9 note=46 velocity=0 time=0.0047961666666666665
EXTRACT: control_change channel=6 control=11 value=41 time=0.011990416666666667
EXTRACT: note_on channel=3 note=56 velocity=0 time=0.016786583333333334
EXTRACT: note_on channel=3 note=68 velocity=0 time=0
EXTRACT: note_on channel=9 note=70 velocity=67 time=0.014388499999999999
EXTRACT: note_on channel=9 note=42 velocity=108 time=0.007194249999999999
EXTRACT: note_on channel=9 note=70 velocity=0 time=0.050359749999999995
EXTRACT: note_on channel=9 note=42 velocity=0 time=0.007194249999999999
EXTRACT: note_on channel=1 note=28 velocity=0 time=0.035971249999999996
EXTRACT: note_on channel=9 note=70 velocity=108 time=0.016786583333333334
EXTRACT: note_on channel=3 note=68 velocity=124 time=0.0023980833333333332
EXTRACT: note_on channel=3 note=56 velocity=90 time=0
EXTRACT: note_on channel=9 note=35 velocity=97 time=0.0047961666666666665
EXTRACT: note_on channel=9 note=70 velocity=0 time=0.050359749999999995
EXTRACT: note_on channel=9 note=35 velocity=0 time=0.007194249999999999
EXTRACT: control_change channel=7 control=11 value=39 time=0.050359749999999995
EXTRACT: control_change channel=6 control=11 value=37 time=0.019184666666666666
EXTRACT: note_on channel=1 note=28 velocity=121 time=0.09352524999999999
EXTRACT: note_on channel=9 note=70 velocity=76 time=0.0047961666666666665
EXTRACT: note_on channel=9 note=46 velocity=61 time=0.016786583333333334
EXTRACT: note_on channel=9 note=70 velocity=0 time=0.04076741666666667
EXTRACT: note_on channel=9 note=46 velocity=0 time=0.016786583333333334
EXTRACT: note_on channel=9 note=70 velocity=67 time=0.043165499999999996
EXTRACT: note_on channel=9 note=42 velocity=108 time=0.009592333333333333
EXTRACT: note_on channel=3 note=56 velocity=0 time=0.011990416666666667
EXTRACT: note_on channel=3 note=68 velocity=0 time=0
EXTRACT: note_on channel=9 note=70 velocity=0 time=0.035971249999999996
EXTRACT: note_on channel=9 note=42 velocity=0 time=0.009592333333333333
EXTRACT: note_on channel=1 note=28 velocity=0 time=0.035971249999999996
EXTRACT: note_on channel=3 note=70 velocity=121 time=0.014388499999999999
EXTRACT: note_on channel=3 note=58 velocity=88 time=0
EXTRACT: note_on channel=9 note=70 velocity=107 time=0
EXTRACT: note_on channel=9 note=40 velocity=56 time=0.007194249999999999
EXTRACT: note_on channel=9 note=37 velocity=91 time=0
EXTRACT: note_on channel=9 note=28 velocity=68 time=0
EXTRACT: note_on channel=9 note=39 velocity=72 time=0
EXTRACT: note_on channel=9 note=35 velocity=97 time=0
EXTRACT: note_on channel=9 note=28 velocity=0 time=0.0023980833333333332
EXTRACT: note_on channel=9 note=37 velocity=0 time=0
EXTRACT: control_change channel=7 control=11 value=39 time=0.0047961666666666665
EXTRACT: note_on channel=9 note=39 velocity=55 time=0.023980833333333333
EXTRACT: control_change channel=4 control=11 value=78 time=0.016786583333333334
EXTRACT: note_on channel=9 note=70 velocity=0 time=0.0023980833333333332
EXTRACT: note_on channel=3 note=58 velocity=0 time=0.0047961666666666665
EXTRACT: note_on channel=3 note=70 velocity=0 time=0
EXTRACT: note_on channel=9 note=35 velocity=0 time=0.0023980833333333332
EXTRACT: note_on channel=9 note=40 velocity=0 time=0
EXTRACT: note_on channel=9 note=39 velocity=0 time=0
EXTRACT: note_on channel=9 note=39 velocity=0 time=0.031175083333333332
EXTRACT: control_change channel=6 control=11 value=41 time=0.007194249999999999
EXTRACT: note_on channel=1 note=28 velocity=126 time=0.12470033333333333
EXTRACT: note_on channel=9 note=70 velocity=73 time=0.007194249999999999
EXTRACT: note_on channel=3 note=71 velocity=126 time=0.007194249999999999
EXTRACT: note_on channel=3 note=59 velocity=91 time=0
EXTRACT: note_on channel=9 note=46 velocity=61 time=0.007194249999999999
EXTRACT: control_change channel=7 control=11 value=43 time=0.014388499999999999
EXTRACT: note_on channel=9 note=70 velocity=0 time=0.028776999999999997
EXTRACT: note_on channel=9 note=46 velocity=0 time=0.014388499999999999
EXTRACT: note_on channel=9 note=70 velocity=67 time=0.04556358333333333
EXTRACT: note_on channel=9 note=42 velocity=109 time=0.007194249999999999
EXTRACT: control_change channel=6 control=11 value=45 time=0.023980833333333333
EXTRACT: control_change channel=4 control=11 value=80 time=0.014388499999999999
EXTRACT: control_change channel=7 control=11 value=47 time=0
EXTRACT: note_on channel=9 note=70 velocity=0 time=0.011990416666666667
EXTRACT: note_on channel=9 note=42 velocity=0 time=0.007194249999999999
EXTRACT: note_on channel=1 note=28 velocity=0 time=0.035971249999999996
EXTRACT: control_change channel=6 control=11 value=49 time=0.009592333333333333
EXTRACT: note_on channel=9 note=70 velocity=108 time=0.0047961666666666665
EXTRACT: note_on channel=11 note=46 velocity=127 time=0.0047961666666666665
EXTRACT: note_on channel=9 note=35 velocity=97 time=0.0047961666666666665
EXTRACT: note_on channel=11 note=46 velocity=0 time=0.026378916666666665
EXTRACT: control_change channel=7 control=11 value=51 time=0.0023980833333333332
EXTRACT: note_on channel=9 note=70 velocity=0 time=0.019184666666666666
EXTRACT: note_on channel=9 note=35 velocity=0 time=0.009592333333333333
EXTRACT: control_change channel=6 control=11 value=53 time=0.021582749999999998
EXTRACT: control_change channel=7 control=11 value=55 time=0.011990416666666667
EXTRACT: control_change channel=6 control=11 value=57 time=0.019184666666666666
EXTRACT: control_change channel=7 control=11 value=59 time=0.035971249999999996
EXTRACT: control_change channel=6 control=11 value=61 time=0.026378916666666665
EXTRACT: note_on channel=1 note=28 velocity=118 time=0.04556358333333333
EXTRACT: note_on channel=9 note=70 velocity=77 time=0.007194249999999999
EXTRACT: control_change channel=7 control=11 value=63 time=0.014388499999999999
EXTRACT: note_on channel=9 note=46 velocity=61 time=0.0023980833333333332
EXTRACT: control_change channel=6 control=11 value=65 time=0.016786583333333334
EXTRACT: control_change channel=7 control=11 value=67 time=0.011990416666666667
EXTRACT: note_on channel=9 note=70 velocity=0 time=0.011990416666666667
EXTRACT: note_on channel=3 note=72 velocity=117 time=0.016786583333333334
EXTRACT: note_on channel=3 note=60 velocity=85 time=0
EXTRACT: note_on channel=9 note=46 velocity=0 time=0
EXTRACT: note_on channel=3 note=59 velocity=0 time=0.019184666666666666
EXTRACT: note_on channel=3 note=71 velocity=0 time=0
EXTRACT: note_on channel=9 note=70 velocity=67 time=0.023980833333333333
EXTRACT: note_on channel=3 note=72 velocity=0 time=0.007194249999999999
EXTRACT: note_on channel=3 note=60 velocity=0 time=0
EXTRACT: control_change channel=4 control=11 value=82 time=0
EXTRACT: note_on channel=9 note=42 velocity=113 time=0
EXTRACT: control_change channel=6 control=11 value=69 time=0.0023980833333333332
EXTRACT: note_on channel=3 note=71 velocity=117 time=0.0047961666666666665
EXTRACT: note_on channel=3 note=59 velocity=85 time=0
EXTRACT: control_change channel=7 control=11 value=71 time=0.007194249999999999
EXTRACT: note_on channel=9 note=70 velocity=0 time=0.035971249999999996
EXTRACT: note_on channel=9 note=42 velocity=0 time=0.007194249999999999
EXTRACT: note_on channel=3 note=70 velocity=113 time=0.0023980833333333332
EXTRACT: note_on channel=3 note=58 velocity=82 time=0
EXTRACT: note_on channel=3 note=59 velocity=0 time=0.016786583333333334
EXTRACT: note_on channel=3 note=71 velocity=0 time=0
EXTRACT: control_change channel=6 control=11 value=73 time=0.0023980833333333332
EXTRACT: note_on channel=1 note=28 velocity=0 time=0.014388499999999999
EXTRACT: note_on channel=9 note=70 velocity=103 time=0.016786583333333334
EXTRACT: note_on channel=11 note=39 velocity=127 time=0.0023980833333333332
EXTRACT: note_on channel=9 note=37 velocity=91 time=0.0047961666666666665
EXTRACT: note_on channel=9 note=28 velocity=68 time=0
EXTRACT: note_on channel=9 note=39 velocity=67 time=0
EXTRACT: note_on channel=9 note=35 velocity=97 time=0
EXTRACT: note_on channel=9 note=28 velocity=0 time=0.0023980833333333332
EXTRACT: note_on channel=9 note=37 velocity=0 time=0
EXTRACT: note_on channel=9 note=40 velocity=63 time=0.0023980833333333332
EXTRACT: note_on channel=11 note=39 velocity=0 time=0.021582749999999998
EXTRACT: note_on channel=9 note=39 velocity=50 time=0.0047961666666666665
EXTRACT: control_change channel=7 control=11 value=75 time=0.014388499999999999
EXTRACT: note_on channel=9 note=70 velocity=0 time=0.0047961666666666665
EXTRACT: note_on channel=9 note=39 velocity=0 time=0.007194249999999999
EXTRACT: note_on channel=9 note=35 velocity=0 time=0
EXTRACT: note_on channel=9 note=40 velocity=0 time=0.0047961666666666665
EXTRACT: control_change channel=6 control=11 value=77 time=0.0023980833333333332
EXTRACT: note_on channel=9 note=39 velocity=0 time=0.023980833333333333
EXTRACT: note_on channel=3 note=70 velocity=0 time=0.009592333333333333
EXTRACT: note_on channel=3 note=58 velocity=0 time=0
EXTRACT: note_on channel=9 note=70 velocity=75 time=0.11750608333333333
EXTRACT: note_on channel=1 note=28 velocity=121 time=0.0047961666666666665
EXTRACT: note_on channel=9 note=46 velocity=62 time=0.021582749999999998
EXTRACT: note_on channel=3 note=70 velocity=124 time=0.014388499999999999
EXTRACT: note_on channel=3 note=58 velocity=90 time=0
EXTRACT: control_change channel=7 control=11 value=79 time=0
EXTRACT: note_on channel=9 note=70 velocity=0 time=0.016786583333333334
EXTRACT: control_change channel=6 control=11 value=81 time=0.0023980833333333332
EXTRACT: note_on channel=9 note=46 velocity=0 time=0.023980833333333333
EXTRACT: control_change channel=7 control=11 value=83 time=0.035971249999999996
EXTRACT: note_on channel=9 note=70 velocity=67 time=0.007194249999999999
EXTRACT: control_change channel=6 control=11 value=85 time=0.009592333333333333
EXTRACT: note_on channel=9 note=42 velocity=111 time=0
EXTRACT: control_change channel=7 control=11 value=87 time=0.014388499999999999
EXTRACT: note_on channel=9 note=70 velocity=0 time=0.03357316666666667
EXTRACT: note_on channel=9 note=42 velocity=0 time=0.009592333333333333
EXTRACT: note_on channel=1 note=28 velocity=0 time=0.035971249999999996
EXTRACT: control_change channel=4 control=11 value=80 time=0
EXTRACT: note_on channel=9 note=70 velocity=103 time=0.014388499999999999
EXTRACT: note_on channel=11 note=46 velocity=127 time=0.0023980833333333332
EXTRACT: note_on channel=9 note=35 velocity=97 time=0.0047961666666666665
EXTRACT: note_on channel=11 note=46 velocity=0 time=0.026378916666666665
EXTRACT: note_on channel=9 note=70 velocity=0 time=0.023980833333333333
EXTRACT: note_on channel=9 note=35 velocity=0 time=0.007194249999999999
EXTRACT: control_change channel=6 control=11 value=89 time=0.10791374999999999
EXTRACT: control_change channel=7 control=11 value=91 time=0.014388499999999999
EXTRACT: control_change channel=4 control=11 value=78 time=0.016786583333333334
EXTRACT: note_on channel=1 note=28 velocity=121 time=0.023980833333333333
EXTRACT: control_change channel=6 control=11 value=93 time=0
EXTRACT: note_on channel=3 note=58 velocity=0 time=0.007194249999999999
EXTRACT: note_on channel=3 note=70 velocity=0 time=0
EXTRACT: note_on channel=9 note=82 velocity=65 time=0.007194249999999999
EXTRACT: note_on channel=9 note=46 velocity=63 time=0.007194249999999999
EXTRACT: note_on channel=3 note=68 velocity=122 time=0.0047961666666666665
EXTRACT: note_on channel=3 note=56 velocity=89 time=0
EXTRACT: control_change channel=7 control=11 value=95 time=0.009592333333333333
EXTRACT: control_change channel=6 control=11 value=98 time=0.019184666666666666
EXTRACT: control_change channel=7 control=11 value=100 time=0.011990416666666667
EXTRACT: note_on channel=9 note=82 velocity=0 time=0.0047961666666666665
EXTRACT: note_on channel=9 note=46 velocity=0 time=0.007194249999999999
EXTRACT: control_change channel=6 control=11 value=103 time=0.007194249999999999
EXTRACT: control_change channel=7 control=11 value=105 time=0.0047961666666666665
EXTRACT: control_change channel=6 control=11 value=109 time=0.019184666666666666
EXTRACT: control_change channel=7 control=11 value=111 time=0.0047961666666666665
EXTRACT: control_change channel=6 control=11 value=113 time=0.009592333333333333
EXTRACT: control_change channel=7 control=11 value=117 time=0.0047961666666666665
EXTRACT: note_on channel=9 note=82 velocity=57 time=0.0023980833333333332
EXTRACT: note_on channel=9 note=42 velocity=111 time=0
EXTRACT: note_on channel=3 note=56 velocity=0 time=0.0023980833333333332
EXTRACT: note_on channel=3 note=68 velocity=0 time=0
EXTRACT: control_change channel=6 control=11 value=120 time=0.007194249999999999
EXTRACT: control_change channel=7 control=11 value=122 time=0.0047961666666666665
EXTRACT: control_change channel=6 control=11 value=120 time=0.016786583333333334
EXTRACT: note_on channel=9 note=39 velocity=50 time=0.007194249999999999
EXTRACT: note_on channel=9 note=42 velocity=0 time=0.019184666666666666
EXTRACT: note_on channel=9 note=82 velocity=0 time=0
EXTRACT: note_on channel=7 note=49 velocity=0 time=0.0023980833333333332
EXTRACT: note_on channel=6 note=61 velocity=0 time=0.021582749999999998
EXTRACT: note_on channel=1 note=28 velocity=0 time=0.011990416666666667
EXTRACT: note_on channel=9 note=39 velocity=0 time=0.0023980833333333332
EXTRACT: control_change channel=4 control=11 value=76 time=0.0047961666666666665
EXTRACT: note_on channel=11 note=39 velocity=127 time=0.011990416666666667
EXTRACT: note_on channel=3 note=68 velocity=124 time=0.0047961666666666665
EXTRACT: note_on channel=3 note=56 velocity=90 time=0
EXTRACT: note_on channel=9 note=40 velocity=54 time=0
EXTRACT: note_on channel=9 note=37 velocity=91 time=0
EXTRACT: note_on channel=9 note=28 velocity=68 time=0
EXTRACT: note_on channel=9 note=39 velocity=73 time=0
EXTRACT: note_on channel=9 note=82 velocity=71 time=0
EXTRACT: note_on channel=9 note=35 velocity=97 time=0
EXTRACT: note_on channel=9 note=28 velocity=0 time=0.0023980833333333332
EXTRACT: note_on channel=9 note=37 velocity=0 time=0
EXTRACT: note_on channel=11 note=39 velocity=0 time=0.023980833333333333
EXTRACT: note_on channel=9 note=39 velocity=55 time=0.0047961666666666665
EXTRACT: note_on channel=9 note=39 velocity=0 time=0.026378916666666665
EXTRACT: note_on channel=9 note=82 velocity=0 time=0
EXTRACT: note_on channel=9 note=40 velocity=0 time=0
EXTRACT: note_on channel=9 note=35 velocity=0 time=0
EXTRACT: note_on channel=9 note=39 velocity=0 time=0.031175083333333332
EXTRACT: note_on channel=3 note=56 velocity=0 time=0.06714633333333334
EXTRACT: note_on channel=3 note=68 velocity=0 time=0
EXTRACT: note_on channel=7 note=50 velocity=82 time=0.05995208333333333
EXTRACT: note_on channel=6 note=62 velocity=81 time=0.0023980833333333332
EXTRACT: note_on channel=1 note=28 velocity=118 time=0.0023980833333333332
EXTRACT: note_on channel=9 note=82 velocity=53 time=0.011990416666666667
EXTRACT: note_on channel=9 note=46 velocity=62 time=0.009592333333333333
EXTRACT: control_change channel=7 control=11 value=118 time=0.028776999999999997
EXTRACT: control_change channel=6 control=11 value=116 time=0.009592333333333333
EXTRACT: note_on channel=9 note=82 velocity=0 time=0.009592333333333333
EXTRACT: control_change channel=7 control=11 value=114 time=0.0047961666666666665
EXTRACT: note_on channel=9 note=46 velocity=0 time=0.0047961666666666665
EXTRACT: control_change channel=6 control=11 value=112 time=0.0047961666666666665
EXTRACT: control_change channel=7 control=11 value=109 time=0.014388499999999999
EXTRACT: control_change channel=6 control=11 value=107 time=0.009592333333333333
EXTRACT: control_change channel=7 control=11 value=104 time=0.0047961666666666665
EXTRACT: note_on channel=9 note=82 velocity=50 time=0.016786583333333334
EXTRACT: note_on channel=9 note=42 velocity=113 time=0
EXTRACT: control_change channel=6 control=11 value=101 time=0.0023980833333333332
EXTRACT: control_change channel=7 control=11 value=98 time=0.011990416666666667
EXTRACT: control_change channel=6 control=11 value=96 time=0.019184666666666666
EXTRACT: control_change channel=7 control=11 value=94 time=0.011990416666666667
EXTRACT: note_on channel=9 note=42 velocity=0 time=0.011990416666666667
EXTRACT: note_on channel=9 note=82 velocity=0 time=0
EXTRACT: control_change channel=6 control=11 value=92 time=0.014388499999999999
EXTRACT: note_on channel=7 note=50 velocity=0 time=0.019184666666666666
EXTRACT: note_on channel=6 note=62 velocity=0 time=0.0023980833333333332
EXTRACT: control_change channel=7 control=11 value=120 time=0
EXTRACT: note_on channel=1 note=28 velocity=0 time=0.0023980833333333332
EXTRACT: note_on channel=7 note=51 velocity=83 time=0.0047961666666666665
EXTRACT: note_on channel=6 note=63 velocity=72 time=0.0023980833333333332
EXTRACT: note_on channel=4 note=64 velocity=0 time=0.0047961666666666665
EXTRACT: note_on channel=4 note=76 velocity=0 time=0
EXTRACT: note_on channel=4 note=68 velocity=0 time=0
EXTRACT: note_on channel=9 note=70 velocity=103 time=0.0023980833333333332
EXTRACT: note_on channel=4 note=63 velocity=104 time=0.0023980833333333332
EXTRACT: note_on channel=4 note=51 velocity=99 time=0
EXTRACT: note_on channel=4 note=68 velocity=108 time=0
EXTRACT: note_on channel=11 note=50 velocity=127 time=0
EXTRACT: note_on channel=9 note=35 velocity=97 time=0.0047961666666666665
EXTRACT: note_on channel=3 note=68 velocity=126 time=0.016786583333333334
EXTRACT: note_on channel=3 note=56 velocity=91 time=0
EXTRACT: note_on channel=11 note=50 velocity=0 time=0.009592333333333333
EXTRACT: control_change channel=4 control=11 value=78 time=0.0047961666666666665
EXTRACT: control_change channel=6 control=11 value=118 time=0.009592333333333333
EXTRACT: control_change channel=7 control=11 value=116 time=0.0047961666666666665
EXTRACT: note_on channel=9 note=70 velocity=0 time=0.0047961666666666665
EXTRACT: note_on channel=9 note=35 velocity=0 time=0.007194249999999999
EXTRACT: control_change channel=6 control=11 value=113 time=0.014388499999999999
EXTRACT: control_change channel=7 control=11 value=110 time=0.011990416666666667
EXTRACT: control_change channel=6 control=11 value=106 time=0.019184666666666666
EXTRACT: control_change channel=7 control=11 value=104 time=0.011990416666666667
EXTRACT: control_change channel=4 control=11 value=80 time=0.0023980833333333332
EXTRACT: control_change channel=6 control=11 value=102 time=0.016786583333333334
EXTRACT: control_change channel=7 control=11 value=100 time=0.011990416666666667
EXTRACT: control_change channel=6 control=11 value=98 time=0.019184666666666666
EXTRACT: control_change channel=7 control=11 value=96 time=0.035971249999999996
EXTRACT: note_on channel=7 note=51 velocity=0 time=0.007194249999999999
EXTRACT: note_on channel=6 note=63 velocity=0 time=0.0023980833333333332
EXTRACT: control_change channel=6 control=11 value=120 time=0
EXTRACT: note_on channel=7 note=51 velocity=74 time=0.007194249999999999
EXTRACT: note_on channel=1 note=27 velocity=126 time=0.0023980833333333332
EXTRACT: note_on channel=6 note=63 velocity=66 time=0
EXTRACT: note_on channel=9 note=70 velocity=77 time=0.0047961666666666665
EXTRACT: note_on channel=3 note=56 velocity=0 time=0.016786583333333334
EXTRACT: note_on channel=3 note=68 velocity=0 time=0
EXTRACT: note_on channel=9 note=46 velocity=63 time=0
EXTRACT: control_change channel=7 control=11 value=118 time=0.021582749999999998
EXTRACT: control_change channel=6 control=11 value=116 time=0.019184666666666666
EXTRACT: note_on channel=9 note=70 velocity=0 time=0
EXTRACT: control_change channel=7 control=11 value=113 time=0.011990416666666667
EXTRACT: note_on channel=9 note=46 velocity=0 time=0.0047961666666666665
EXTRACT: control_change channel=6 control=11 value=111 time=0.014388499999999999
EXTRACT: control_change channel=7 control=11 value=109 time=0.0047961666666666665
EXTRACT: control_change channel=6 control=11 value=107 time=0.019184666666666666
EXTRACT: note_on channel=9 note=70 velocity=67 time=0.0047961666666666665
EXTRACT: control_change channel=7 control=11 value=104 time=0.007194249999999999
EXTRACT: note_on channel=9 note=42 velocity=113 time=0.0023980833333333332
EXTRACT: control_change channel=6 control=11 value=102 time=0.016786583333333334
EXTRACT: control_change channel=7 control=11 value=100 time=0.0047961666666666665
EXTRACT: control_change channel=6 control=11 value=98 time=0.016786583333333334
EXTRACT: control_change channel=7 control=11 value=96 time=0.007194249999999999
EXTRACT: note_on channel=9 note=70 velocity=0 time=0.0023980833333333332
EXTRACT: control_change channel=6 control=11 value=94 time=0.007194249999999999
EXTRACT: note_on channel=9 note=42 velocity=0 time=0.0023980833333333332
EXTRACT: control_change channel=7 control=11 value=92 time=0.0023980833333333332
EXTRACT: control_change channel=6 control=11 value=89 time=0.019184666666666666
EXTRACT: note_on channel=1 note=27 velocity=0 time=0.014388499999999999
EXTRACT: control_change channel=7 control=11 value=87 time=0.0047961666666666665
EXTRACT: note_on channel=9 note=70 velocity=107 time=0.009592333333333333
EXTRACT: note_on channel=11 note=50 velocity=127 time=0.0023980833333333332
EXTRACT: note_on channel=9 note=37 velocity=91 time=0.0047961666666666665
EXTRACT: note_on channel=9 note=28 velocity=68 time=0
EXTRACT: note_on channel=9 note=39 velocity=67 time=0
EXTRACT: note_on channel=9 note=35 velocity=97 time=0
EXTRACT: control_change channel=6 control=11 value=85 time=0.0023980833333333332
EXTRACT: note_on channel=9 note=28 velocity=0 time=0
EXTRACT: note_on channel=9 note=37 velocity=0 time=0
EXTRACT: note_on channel=9 note=40 velocity=67 time=0.0023980833333333332
EXTRACT: control_change channel=7 control=11 value=82 time=0.009592333333333333
EXTRACT: note_on channel=3 note=70 velocity=127 time=0.007194249999999999
EXTRACT: note_on channel=3 note=58 velocity=92 time=0
EXTRACT: note_on channel=11 note=50 velocity=0 time=0.0047961666666666665
EXTRACT: note_on channel=9 note=39 velocity=50 time=0.0047961666666666665
EXTRACT: control_change channel=6 control=11 value=79 time=0.0023980833333333332
EXTRACT: control_change channel=7 control=11 value=77 time=0.011990416666666667
EXTRACT: note_on channel=9 note=70 velocity=0 time=0.0047961666666666665
EXTRACT: note_on channel=9 note=39 velocity=0 time=0.007194249999999999
EXTRACT: note_on channel=9 note=35 velocity=0 time=0
EXTRACT: note_on channel=9 note=40 velocity=0 time=0.0047961666666666665
EXTRACT: control_change channel=6 control=11 value=75 time=0.0023980833333333332
EXTRACT: control_change channel=7 control=11 value=73 time=0.021582749999999998
EXTRACT: note_on channel=9 note=39 velocity=0 time=0.0023980833333333332
EXTRACT: control_change channel=4 control=11 value=78 time=0.014388499999999999
EXTRACT: control_change channel=6 control=11 value=71 time=0.016786583333333334
EXTRACT: control_change channel=7 control=11 value=69 time=0.021582749999999998
EXTRACT: control_change channel=6 control=11 value=67 time=0.016786583333333334
EXTRACT: control_change channel=7 control=11 value=65 time=0.028776999999999997
EXTRACT: note_on channel=3 note=58 velocity=0 time=0.016786583333333334
EXTRACT: note_on channel=3 note=70 velocity=0 time=0
EXTRACT: note_on channel=9 note=70 velocity=75 time=0.011990416666666667
EXTRACT: note_on channel=1 note=27 velocity=118 time=0.0047961666666666665
EXTRACT: control_change channel=6 control=11 value=63 time=0.016786583333333334
EXTRACT: note_on channel=9 note=46 velocity=63 time=0.0047961666666666665
EXTRACT: control_change channel=4 control=11 value=76 time=0.009592333333333333
EXTRACT: control_change channel=7 control=11 value=61 time=0.0047961666666666665
EXTRACT: note_on channel=9 note=70 velocity=0 time=0.016786583333333334
EXTRACT: note_on channel=9 note=46 velocity=0 time=0.026378916666666665
EXTRACT: control_change channel=6 control=11 value=59 time=0.007194249999999999
EXTRACT: note_on channel=9 note=70 velocity=67 time=0.03836933333333333
EXTRACT: control_change channel=7 control=11 value=57 time=0.0047961666666666665
EXTRACT: note_on channel=9 note=42 velocity=111 time=0.0023980833333333332
EXTRACT: note_on channel=9 note=70 velocity=0 time=0.050359749999999995
EXTRACT: note_on channel=9 note=42 velocity=0 time=0.007194249999999999
EXTRACT: note_on channel=1 note=27 velocity=0 time=0.035971249999999996
EXTRACT: note_on channel=9 note=70 velocity=105 time=0.014388499999999999
EXTRACT: note_on channel=9 note=35 velocity=97 time=0.009592333333333333
EXTRACT: note_on channel=3 note=70 velocity=124 time=0.0023980833333333332
EXTRACT: note_on channel=3 note=58 velocity=90 time=0
EXTRACT: note_on channel=9 note=70 velocity=0 time=0.04556358333333333
EXTRACT: note_on channel=9 note=35 velocity=0 time=0.009592333333333333
EXTRACT: control_change channel=6 control=11 value=55 time=0.06714633333333334
EXTRACT: note_on channel=1 note=27 velocity=121 time=0.09592333333333333
EXTRACT: note_on channel=9 note=70 velocity=76 time=0.0047961666666666665
EXTRACT: note_on channel=9 note=46 velocity=62 time=0.016786583333333334
EXTRACT: note_on channel=9 note=70 velocity=0 time=0.04076741666666667
EXTRACT: note_on channel=9 note=46 velocity=0 time=0.016786583333333334
EXTRACT: note_on channel=9 note=70 velocity=67 time=0.043165499999999996
EXTRACT: note_on channel=9 note=42 velocity=111 time=0.007194249999999999
EXTRACT: note_on channel=9 note=70 velocity=0 time=0.050359749999999995
EXTRACT: note_on channel=9 note=42 velocity=0 time=0.007194249999999999
EXTRACT: note_on channel=1 note=27 velocity=0 time=0.03836933333333333
EXTRACT: note_on channel=9 note=70 velocity=107 time=0.014388499999999999
EXTRACT: note_on channel=9 note=40 velocity=56 time=0.007194249999999999
EXTRACT: note_on channel=9 note=37 velocity=91 time=0
EXTRACT: note_on channel=9 note=28 velocity=68 time=0
EXTRACT: note_on channel=9 note=39 velocity=72 time=0
EXTRACT: note_on channel=9 note=35 velocity=97 time=0
EXTRACT: note_on channel=9 note=28 velocity=0 time=0.0023980833333333332
EXTRACT: note_on channel=9 note=37 velocity=0 time=0
EXTRACT: control_change channel=7 control=11 value=57 time=0.011990416666666667
EXTRACT: note_on channel=3 note=58 velocity=0 time=0.014388499999999999
EXTRACT: note_on channel=3 note=70 velocity=0 time=0
EXTRACT: note_on channel=9 note=39 velocity=55 time=0.0023980833333333332
EXTRACT: note_on channel=9 note=70 velocity=0 time=0.019184666666666666
EXTRACT: note_on channel=9 note=35 velocity=0 time=0.007194249999999999
EXTRACT: note_on channel=9 note=40 velocity=0 time=0
EXTRACT: note_on channel=9 note=39 velocity=0 time=0
EXTRACT: control_change channel=4 control=11 value=78 time=0.011990416666666667
EXTRACT: note_on channel=9 note=39 velocity=0 time=0.019184666666666666
EXTRACT: note_on channel=1 note=27 velocity=126 time=0.13189458333333332
EXTRACT: note_on channel=9 note=70 velocity=73 time=0.007194249999999999
EXTRACT: note_on channel=9 note=46 velocity=63 time=0.014388499999999999
EXTRACT: note_on channel=3 note=68 velocity=124 time=0.016786583333333334
EXTRACT: note_on channel=3 note=56 velocity=90 time=0
EXTRACT: control_change channel=6 control=11 value=59 time=0
EXTRACT: note_on channel=9 note=70 velocity=0 time=0.026378916666666665
EXTRACT: note_on channel=9 note=46 velocity=0 time=0.014388499999999999
EXTRACT: control_change channel=4 control=11 value=76 time=0.0047961666666666665
EXTRACT: note_on channel=9 note=70 velocity=67 time=0.03836933333333333
EXTRACT: note_on channel=9 note=42 velocity=113 time=0.009592333333333333
EXTRACT: control_change channel=7 control=11 value=61 time=0.021582749999999998
EXTRACT: note_on channel=9 note=70 velocity=0 time=0.026378916666666665
EXTRACT: note_on channel=9 note=42 velocity=0 time=0.009592333333333333
EXTRACT: control_change channel=6 control=11 value=63 time=0.028776999999999997
EXTRACT: note_on channel=1 note=27 velocity=0 time=0.007194249999999999
EXTRACT: control_change channel=7 control=11 value=65 time=0.014388499999999999
EXTRACT: note_on channel=9 note=70 velocity=107 time=0
EXTRACT: note_on channel=4 note=68 velocity=0 time=0.0023980833333333332
EXTRACT: note_on channel=4 note=51 velocity=0 time=0
EXTRACT: note_on channel=4 note=63 velocity=0 time=0
EXTRACT: note_on channel=4 note=63 velocity=105 time=0.0023980833333333332
EXTRACT: note_on channel=4 note=67 velocity=107 time=0
EXTRACT: note_on channel=4 note=51 velocity=100 time=0
EXTRACT: note_on channel=9 note=35 velocity=97 time=0.0023980833333333332
EXTRACT: control_change channel=4 control=11 value=78 time=0.016786583333333334
EXTRACT: note_on channel=3 note=56 velocity=0 time=0.023980833333333333
EXTRACT: note_on channel=3 note=68 velocity=0 time=0
EXTRACT: note_on channel=9 note=70 velocity=0 time=0.009592333333333333
EXTRACT: note_on channel=9 note=35 velocity=0 time=0.007194249999999999
EXTRACT: control_change channel=6 control=11 value=67 time=0.014388499999999999
EXTRACT: control_change channel=4 control=11 value=80 time=0.021582749999999998
EXTRACT: control_change channel=7 control=11 value=69 time=0
EXTRACT: control_change channel=6 control=11 value=71 time=0.050359749999999995
EXTRACT: control_change channel=7 control=11 value=73 time=0.011990416666666667
EXTRACT: control_change channel=4 control=11 value=82 time=0.023980833333333333
EXTRACT: note_on channel=1 note=27 velocity=118 time=0.04076741666666667
EXTRACT: note_on channel=9 note=70 velocity=77 time=0.007194249999999999
EXTRACT: note_on channel=3 note=70 velocity=121 time=0.0023980833333333332
EXTRACT: note_on channel=3 note=58 velocity=88 time=0
EXTRACT: note_on channel=9 note=46 velocity=64 time=0.011990416666666667
EXTRACT: control_change channel=6 control=11 value=75 time=0.0023980833333333332
EXTRACT: control_change channel=7 control=11 value=77 time=0.011990416666666667
EXTRACT: note_on channel=9 note=70 velocity=0 time=0.028776999999999997
EXTRACT: note_on channel=9 note=46 velocity=0 time=0.014388499999999999
EXTRACT: note_on channel=3 note=58 velocity=0 time=0.014388499999999999
EXTRACT: note_on channel=3 note=70 velocity=0 time=0
EXTRACT: control_change channel=6 control=11 value=79 time=0
EXTRACT: note_on channel=9 note=70 velocity=67 time=0.031175083333333332
EXTRACT: note_on channel=9 note=42 velocity=109 time=0.007194249999999999
EXTRACT: control_change channel=7 control=11 value=81 time=0.007194249999999999
EXTRACT: note_on channel=9 note=70 velocity=0 time=0.043165499999999996
EXTRACT: note_on channel=9 note=42 velocity=0 time=0.007194249999999999
EXTRACT: control_change channel=6 control=11 value=83 time=0.021582749999999998
EXTRACT: note_on channel=1 note=27 velocity=0 time=0.014388499999999999
EXTRACT: note_on channel=3 note=70 velocity=127 time=0.007194249999999999
EXTRACT: note_on channel=3 note=58 velocity=92 time=0
EXTRACT: note_on channel=9 note=70 velocity=108 time=0.009592333333333333
EXTRACT: note_on channel=9 note=37 velocity=91 time=0.007194249999999999
EXTRACT: note_on channel=9 note=28 velocity=68 time=0
EXTRACT: note_on channel=9 note=39 velocity=67 time=0
EXTRACT: note_on channel=9 note=35 velocity=97 time=0
EXTRACT: note_on channel=9 note=28 velocity=0 time=0.0023980833333333332
EXTRACT: note_on channel=9 note=37 velocity=0 time=0
EXTRACT: note_on channel=9 note=40 velocity=63 time=0
EXTRACT: control_change channel=4 control=11 value=80 time=0.011990416666666667
EXTRACT: note_on channel=9 note=39 velocity=50 time=0.016786583333333334
EXTRACT: note_on channel=9 note=70 velocity=0 time=0.019184666666666666
EXTRACT: control_change channel=7 control=11 value=85 time=0.0023980833333333332
EXTRACT: note_on channel=9 note=39 velocity=0 time=0.0047961666666666665
EXTRACT: note_on channel=9 note=35 velocity=0 time=0
EXTRACT: note_on channel=9 note=40 velocity=0 time=0.0023980833333333332
EXTRACT: note_on channel=9 note=39 velocity=0 time=0.028776999999999997
EXTRACT: control_change channel=4 control=11 value=78 time=0.043165499999999996
EXTRACT: note_on channel=3 note=58 velocity=0 time=0.06474825
EXTRACT: note_on channel=3 note=70 velocity=0 time=0
EXTRACT: control_change channel=6 control=11 value=87 time=0
EXTRACT: note_on channel=9 note=70 velocity=75 time=0.016786583333333334
EXTRACT: note_on channel=1 note=27 velocity=121 time=0.007194249999999999
EXTRACT: note_on channel=9 note=46 velocity=63 time=0.021582749999999998
EXTRACT: control_change channel=7 control=11 value=89 time=0.028776999999999997
EXTRACT: note_on channel=9 note=70 velocity=0 time=0
EXTRACT: control_change channel=4 control=11 value=76 time=0.0023980833333333332
EXTRACT: note_on channel=9 note=46 velocity=0 time=0.026378916666666665
EXTRACT: control_change channel=6 control=11 value=91 time=0.035971249999999996
EXTRACT: note_on channel=9 note=70 velocity=67 time=0.007194249999999999
EXTRACT: note_on channel=9 note=42 velocity=108 time=0.007194249999999999
EXTRACT: control_change channel=7 control=11 value=93 time=0.007194249999999999
EXTRACT: note_on channel=9 note=70 velocity=0 time=0.043165499999999996
EXTRACT: note_on channel=9 note=42 velocity=0 time=0.007194249999999999
EXTRACT: note_on channel=1 note=27 velocity=0 time=0.03836933333333333
EXTRACT: note_on channel=3 note=70 velocity=127 time=0.009592333333333333
EXTRACT: note_on channel=3 note=58 velocity=92 time=0
EXTRACT: note_on channel=9 note=70 velocity=108 time=0.0047961666666666665
EXTRACT: note_on channel=9 note=35 velocity=97 time=0.007194249999999999
EXTRACT: control_change channel=6 control=11 value=95 time=0.016786583333333334
EXTRACT: note_on channel=9 note=70 velocity=0 time=0.03357316666666667
EXTRACT: note_on channel=9 note=35 velocity=0 time=0.007194249999999999
EXTRACT: control_change channel=7 control=11 value=97 time=0.12230225
EXTRACT: note_on channel=1 note=27 velocity=122 time=0.04076741666666667
EXTRACT: control_change channel=6 control=11 value=99 time=0.007194249999999999
EXTRACT: note_on channel=9 note=82 velocity=65 time=0.007194249999999999
EXTRACT: note_on channel=9 note=46 velocity=64 time=0.007194249999999999
EXTRACT: control_change channel=7 control=11 value=101 time=0.021582749999999998
EXTRACT: control_change channel=6 control=11 value=103 time=0.019184666666666666
EXTRACT: note_on channel=9 note=82 velocity=0 time=0.009592333333333333
EXTRACT: note_on channel=9 note=85 velocity=79 time=0
EXTRACT: control_change channel=7 control=11 value=105 time=0.0023980833333333332
EXTRACT: note_on channel=9 note=46 velocity=0 time=0.0047961666666666665
EXTRACT: control_change channel=6 control=11 value=107 time=0.014388499999999999
EXTRACT: control_change channel=7 control=11 value=109 time=0.0047961666666666665
EXTRACT: note_on channel=9 note=85 velocity=0 time=0.0047961666666666665
EXTRACT: note_on channel=3 note=58 velocity=0 time=0.007194249999999999
EXTRACT: note_on channel=3 note=70 velocity=0 time=0
EXTRACT: control_change channel=6 control=11 value=112 time=0.007194249999999999
EXTRACT: control_change channel=7 control=11 value=114 time=0.0047961666666666665
EXTRACT: control_change channel=6 control=11 value=116 time=0.009592333333333333
EXTRACT: note_on channel=9 note=82 velocity=57 time=0
EXTRACT: note_on channel=9 note=42 velocity=108 time=0
EXTRACT: control_change channel=7 control=11 value=119 time=0.0047961666666666665
EXTRACT: note_on channel=9 note=85 velocity=77 time=0.014388499999999999
EXTRACT: control_change channel=6 control=11 value=121 time=0.0047961666666666665
EXTRACT: note_on channel=9 note=39 velocity=50 time=0.014388499999999999
EXTRACT: note_on channel=9 note=85 velocity=0 time=0.011990416666666667
EXTRACT: note_on channel=9 note=82 velocity=0 time=0.007194249999999999
EXTRACT: note_on channel=9 note=42 velocity=0 time=0
EXTRACT: note_on channel=7 note=51 velocity=0 time=0.007194249999999999
EXTRACT: note_on channel=6 note=63 velocity=0 time=0.011990416666666667
EXTRACT: note_on channel=1 note=27 velocity=0 time=0.016786583333333334
EXTRACT: note_on channel=9 note=39 velocity=0 time=0.0023980833333333332
EXTRACT: note_on channel=9 note=70 velocity=108 time=0.011990416666666667
EXTRACT: note_on channel=9 note=40 velocity=54 time=0.007194249999999999
EXTRACT: note_on channel=9 note=37 velocity=91 time=0
EXTRACT: note_on channel=9 note=28 velocity=68 time=0
EXTRACT: note_on channel=9 note=39 velocity=73 time=0
EXTRACT: note_on channel=9 note=82 velocity=71 time=0
EXTRACT: note_on channel=9 note=85 velocity=79 time=0
EXTRACT: note_on channel=9 note=35 velocity=97 time=0
EXTRACT: note_on channel=9 note=28 velocity=0 time=0.0023980833333333332
EXTRACT: note_on channel=9 note=37 velocity=0 time=0
EXTRACT: control_change channel=4 control=11 value=78 time=0.021582749999999998
EXTRACT: note_on channel=9 note=85 velocity=0 time=0.007194249999999999
EXTRACT: note_on channel=9 note=39 velocity=55 time=0
EXTRACT: note_on channel=9 note=70 velocity=0 time=0.019184666666666666
EXTRACT: note_on channel=9 note=40 velocity=0 time=0.007194249999999999
EXTRACT: note_on channel=9 note=39 velocity=0 time=0
EXTRACT: note_on channel=9 note=35 velocity=0 time=0
EXTRACT: note_on channel=9 note=82 velocity=0 time=0
EXTRACT: note_on channel=9 note=39 velocity=0 time=0.031175083333333332
EXTRACT: note_on channel=7 note=50 velocity=82 time=0.1294965
EXTRACT: note_on channel=1 note=27 velocity=117 time=0.0023980833333333332
EXTRACT: note_on channel=6 note=62 velocity=72 time=0
EXTRACT: note_on channel=9 note=82 velocity=53 time=0.014388499999999999
EXTRACT: note_on channel=9 note=46 velocity=64 time=0.007194249999999999
EXTRACT: control_change channel=7 control=11 value=118 time=0.031175083333333332
EXTRACT: control_change channel=6 control=11 value=116 time=0.016786583333333334
EXTRACT: note_on channel=9 note=82 velocity=0 time=0.0023980833333333332
EXTRACT: note_on channel=9 note=46 velocity=0 time=0.007194249999999999
EXTRACT: control_change channel=7 control=11 value=114 time=0.0047961666666666665
EXTRACT: control_change channel=4 control=11 value=76 time=0.009592333333333333
EXTRACT: control_change channel=6 control=11 value=112 time=0.007194249999999999
EXTRACT: control_change channel=7 control=11 value=108 time=0.014388499999999999
EXTRACT: control_change channel=6 control=11 value=106 time=0.016786583333333334
EXTRACT: note_on channel=9 note=82 velocity=50 time=0
EXTRACT: note_on channel=9 note=42 velocity=109 time=0
EXTRACT: control_change channel=7 control=11 value=104 time=0.014388499999999999
EXTRACT: control_change channel=6 control=11 value=102 time=0.026378916666666665
EXTRACT: note_on channel=9 note=42 velocity=0 time=0.016786583333333334
EXTRACT: note_on channel=9 note=82 velocity=0 time=0
EXTRACT: control_change channel=7 control=11 value=100 time=0.0047961666666666665
EXTRACT: note_on channel=7 note=50 velocity=0 time=0.028776999999999997
EXTRACT: note_on channel=1 note=27 velocity=0 time=0.0023980833333333332
EXTRACT: note_on channel=6 note=62 velocity=0 time=0
EXTRACT: control_change channel=6 control=11 value=120 time=0.0023980833333333332
EXTRACT: note_on channel=7 note=51 velocity=82 time=0.0047961666666666665
EXTRACT: note_on channel=6 note=63 velocity=72 time=0.0023980833333333332
EXTRACT: note_on channel=3 note=56 velocity=91 time=0.007194249999999999
EXTRACT: note_on channel=3 note=80 velocity=115 time=0
EXTRACT: note_on channel=3 note=68 velocity=91 time=0
EXTRACT: note_on channel=9 note=70 velocity=105 time=0
EXTRACT: note_on channel=4 note=51 velocity=0 time=0.0023980833333333332
EXTRACT: note_on channel=4 note=67 velocity=0 time=0
EXTRACT: note_on channel=4 note=63 velocity=0 time=0
EXTRACT: note_on channel=4 note=51 velocity=95 time=0
EXTRACT: note_on channel=4 note=65 velocity=104 time=0
EXTRACT: note_on channel=4 note=63 velocity=103 time=0
EXTRACT: note_on channel=9 note=35 velocity=97 time=0.0047961666666666665
EXTRACT: control_change channel=4 control=11 value=78 time=0.023980833333333333
EXTRACT: control_change channel=7 control=11 value=117 time=0.014388499999999999
EXTRACT: control_change channel=6 control=11 value=115 time=0.009592333333333333
EXTRACT: note_on channel=9 note=70 velocity=0 time=0.0023980833333333332
EXTRACT: note_on channel=9 note=35 velocity=0 time=0.007194249999999999
EXTRACT: control_change channel=7 control=11 value=112 time=0.0023980833333333332
EXTRACT: control_change channel=6 control=11 value=110 time=0.011990416666666667
EXTRACT: control_change channel=7 control=11 value=106 time=0.011990416666666667
EXTRACT: control_change channel=4 control=11 value=80 time=0.016786583333333334
EXTRACT: control_change channel=6 control=11 value=100 time=0.0023980833333333332
EXTRACT: control_change channel=7 control=11 value=97 time=0.011990416666666667
EXTRACT: control_change channel=6 control=11 value=94 time=0.019184666666666666
EXTRACT: control_change channel=7 control=11 value=92 time=0.0047961666666666665
EXTRACT: control_change channel=6 control=11 value=90 time=0.016786583333333334
EXTRACT: control_change channel=7 control=11 value=88 time=0.014388499999999999
EXTRACT: control_change channel=6 control=11 value=86 time=0.016786583333333334
EXTRACT: note_on channel=7 note=51 velocity=0 time=0.021582749999999998
EXTRACT: control_change channel=7 control=11 value=120 time=0
EXTRACT: control_change channel=4 control=11 value=82 time=0.0023980833333333332
EXTRACT: note_on channel=6 note=63 velocity=0 time=0
EXTRACT: note_on channel=7 note=51 velocity=74 time=0.0047961666666666665
EXTRACT: note_on channel=6 note=63 velocity=66 time=0.0023980833333333332
EXTRACT: note_on channel=1 note=27 velocity=126 time=0.0023980833333333332
EXTRACT: note_on channel=9 note=70 velocity=77 time=0.0047961666666666665
EXTRACT: note_on channel=3 note=68 velocity=0 time=0.016786583333333334
EXTRACT: note_on channel=3 note=80 velocity=0 time=0
EXTRACT: note_on channel=3 note=56 velocity=0 time=0
EXTRACT: note_on channel=9 note=46 velocity=62 time=0
EXTRACT: control_change channel=6 control=11 value=118 time=0.023980833333333333
EXTRACT: control_change channel=7 control=11 value=116 time=0.0047961666666666665
EXTRACT: note_on channel=9 note=70 velocity=0 time=0.011990416666666667
EXTRACT: control_change channel=6 control=11 value=114 time=0.007194249999999999
EXTRACT: control_change channel=7 control=11 value=112 time=0.0047961666666666665
EXTRACT: note_on channel=9 note=46 velocity=0 time=0.0047961666666666665
EXTRACT: control_change channel=6 control=11 value=110 time=0.0047961666666666665
EXTRACT: control_change channel=7 control=11 value=108 time=0.007194249999999999
EXTRACT: control_change channel=6 control=11 value=106 time=0.016786583333333334
EXTRACT: control_change channel=7 control=11 value=104 time=0.0047961666666666665
EXTRACT: note_on channel=9 note=70 velocity=67 time=0.009592333333333333
EXTRACT: control_change channel=6 control=11 value=102 time=0.0023980833333333332
EXTRACT: note_on channel=9 note=42 velocity=113 time=0.0047961666666666665
EXTRACT: control_change channel=7 control=11 value=99 time=0.007194249999999999
EXTRACT: control_change channel=6 control=11 value=97 time=0.009592333333333333
EXTRACT: control_change channel=7 control=11 value=95 time=0.014388499999999999
EXTRACT: control_change channel=6 control=11 value=92 time=0.009592333333333333
EXTRACT: control_change channel=7 control=11 value=90 time=0.0047961666666666665
EXTRACT: note_on channel=9 note=70 velocity=0 time=0.0047961666666666665
EXTRACT: control_change channel=6 control=11 value=88 time=0.007194249999999999
EXTRACT: note_on channel=9 note=42 velocity=0 time=0
EXTRACT: control_change channel=7 control=11 value=86 time=0.0047961666666666665
EXTRACT: control_change channel=6 control=11 value=84 time=0.009592333333333333
EXTRACT: control_change channel=7 control=11 value=82 time=0.0047961666666666665
EXTRACT: control_change channel=4 control=11 value=80 time=0.016786583333333334
EXTRACT: note_on channel=1 note=27 velocity=0 time=0.0023980833333333332
EXTRACT: control_change channel=6 control=11 value=80 time=0
EXTRACT: note_on channel=3 note=58 velocity=91 time=0.0023980833333333332
EXTRACT: note_on channel=3 note=82 velocity=115 time=0
EXTRACT: note_on channel=3 note=70 velocity=91 time=0
EXTRACT: control_change channel=7 control=11 value=78 time=0.009592333333333333
EXTRACT: note_on channel=9 note=70 velocity=107 time=0.0023980833333333332
EXTRACT: note_on channel=9 note=37 velocity=91 time=0.007194249999999999
EXTRACT: note_on channel=9 note=28 velocity=68 time=0
EXTRACT: note_on channel=9 note=39 velocity=67 time=0
EXTRACT: note_on channel=9 note=35 velocity=97 time=0
EXTRACT: note_on channel=9 note=28 velocity=0 time=0.0023980833333333332
EXTRACT: note_on channel=9 note=37 velocity=0 time=0
EXTRACT: note_on channel=9 note=40 velocity=67 time=0.0023980833333333332
EXTRACT: control_change channel=6 control=11 value=75 time=0.0047961666666666665
EXTRACT: control_change channel=7 control=11 value=72 time=0.011990416666666667
EXTRACT: note_on channel=9 note=39 velocity=50 time=0.009592333333333333
EXTRACT: control_change channel=6 control=11 value=70 time=0.0023980833333333332
EXTRACT: control_change channel=7 control=11 value=67 time=0.011990416666666667
EXTRACT: note_on channel=9 note=70 velocity=0 time=0.0047961666666666665
EXTRACT: note_on channel=9 note=39 velocity=0 time=0.007194249999999999
EXTRACT: note_on channel=9 note=35 velocity=0 time=0
EXTRACT: note_on channel=9 note=40 velocity=0 time=0.0047961666666666665
EXTRACT: control_change channel=6 control=11 value=65 time=0.0023980833333333332
EXTRACT: control_change channel=7 control=11 value=63 time=0.011990416666666667
EXTRACT: note_on channel=9 note=39 velocity=0 time=0.011990416666666667
EXTRACT: control_change channel=6 control=11 value=61 time=0.021582749999999998
EXTRACT: control_change channel=4 control=11 value=78 time=0.007194249999999999
EXTRACT: control_change channel=7 control=11 value=59 time=0.007194249999999999
EXTRACT: note_on channel=3 note=70 velocity=0 time=0.011990416666666667
EXTRACT: note_on channel=3 note=82 velocity=0 time=0
EXTRACT: note_on channel=3 note=58 velocity=0 time=0
EXTRACT: control_change channel=6 control=11 value=57 time=0.0047961666666666665
EXTRACT: control_change channel=7 control=11 value=55 time=0.014388499999999999
EXTRACT: control_change channel=6 control=11 value=53 time=0.026378916666666665
EXTRACT: note_on channel=9 note=70 velocity=75 time=0.03357316666666667
EXTRACT: note_on channel=1 note=27 velocity=118 time=0.0047961666666666665
EXTRACT: control_change channel=7 control=11 value=51 time=0.0047961666666666665
EXTRACT: note_on channel=9 note=46 velocity=61 time=0.016786583333333334
EXTRACT: control_change channel=4 control=11 value=76 time=0.007194249999999999
EXTRACT: control_change channel=6 control=11 value=49 time=0.0023980833333333332
EXTRACT: control_change channel=7 control=11 value=47 time=0.011990416666666667
EXTRACT: note_on channel=9 note=70 velocity=0 time=0.009592333333333333
EXTRACT: note_on channel=9 note=85 velocity=79 time=0.019184666666666666
EXTRACT: note_on channel=9 note=46 velocity=0 time=0.007194249999999999
EXTRACT: control_change channel=6 control=11 value=45 time=0.007194249999999999
EXTRACT: note_on channel=9 note=85 velocity=0 time=0.016786583333333334
EXTRACT: note_on channel=9 note=70 velocity=67 time=0.019184666666666666
EXTRACT: control_change channel=7 control=11 value=43 time=0.007194249999999999
EXTRACT: note_on channel=9 note=42 velocity=113 time=0.0023980833333333332
EXTRACT: note_on channel=9 note=85 velocity=77 time=0.019184666666666666
EXTRACT: note_on channel=9 note=70 velocity=0 time=0.028776999999999997
EXTRACT: note_on channel=9 note=85 velocity=0 time=0.0023980833333333332
EXTRACT: note_on channel=9 note=42 velocity=0 time=0.007194249999999999
EXTRACT: note_on channel=1 note=27 velocity=0 time=0.035971249999999996
EXTRACT: note_on channel=9 note=70 velocity=105 time=0.014388499999999999
EXTRACT: note_on channel=3 note=58 velocity=92 time=0.0047961666666666665
EXTRACT: note_on channel=3 note=82 velocity=116 time=0
EXTRACT: note_on channel=3 note=70 velocity=92 time=0
EXTRACT: note_on channel=9 note=85 velocity=79 time=0.0023980833333333332
EXTRACT: note_on channel=9 note=35 velocity=97 time=0
EXTRACT: note_on channel=9 note=85 velocity=0 time=0.031175083333333332
EXTRACT: note_on channel=9 note=70 velocity=0 time=0.019184666666666666
EXTRACT: note_on channel=9 note=35 velocity=0 time=0.007194249999999999
EXTRACT: control_change channel=6 control=11 value=41 time=0.062350166666666665
EXTRACT: note_on channel=3 note=70 velocity=0 time=0.05275783333333333
EXTRACT: note_on channel=3 note=82 velocity=0 time=0
EXTRACT: note_on channel=3 note=58 velocity=0 time=0
EXTRACT: note_on channel=1 note=27 velocity=121 time=0.047961666666666666
EXTRACT: note_on channel=9 note=70 velocity=76 time=0.007194249999999999
EXTRACT: note_on channel=9 note=46 velocity=61 time=0.014388499999999999
EXTRACT: note_on channel=9 note=70 velocity=0 time=0.043165499999999996
EXTRACT: note_on channel=9 note=46 velocity=0 time=0.014388499999999999
EXTRACT: note_on channel=9 note=70 velocity=67 time=0.04556358333333333
EXTRACT: note_on channel=9 note=42 velocity=113 time=0.007194249999999999
EXTRACT: note_on channel=9 note=70 velocity=0 time=0.050359749999999995
EXTRACT: note_on channel=9 note=42 velocity=0 time=0.007194249999999999
EXTRACT: note_on channel=1 note=27 velocity=0 time=0.035971249999999996
EXTRACT: note_on channel=9 note=70 velocity=107 time=0.016786583333333334
EXTRACT: note_on channel=3 note=58 velocity=92 time=0.0023980833333333332
EXTRACT: note_on channel=3 note=82 velocity=116 time=0
EXTRACT: note_on channel=3 note=70 velocity=92 time=0
EXTRACT: note_on channel=9 note=40 velocity=56 time=0.0047961666666666665
EXTRACT: note_on channel=9 note=37 velocity=91 time=0
EXTRACT: note_on channel=9 note=28 velocity=68 time=0
EXTRACT: note_on channel=9 note=39 velocity=72 time=0
EXTRACT: note_on channel=9 note=35 velocity=97 time=0
EXTRACT: note_on channel=9 note=28 velocity=0 time=0.0023980833333333332
EXTRACT: note_on channel=9 note=37 velocity=0 time=0
EXTRACT: control_change channel=7 control=11 value=43 time=0.011990416666666667
EXTRACT: note_on channel=9 note=39 velocity=55 time=0.016786583333333334
EXTRACT: note_on channel=9 note=70 velocity=0 time=0.019184666666666666
EXTRACT: note_on channel=9 note=35 velocity=0 time=0.007194249999999999
EXTRACT: note_on channel=9 note=40 velocity=0 time=0
EXTRACT: note_on channel=9 note=39 velocity=0 time=0
EXTRACT: control_change channel=4 control=11 value=78 time=0.011990416666666667
EXTRACT: note_on channel=9 note=39 velocity=0 time=0.019184666666666666
EXTRACT: note_on channel=3 note=70 velocity=0 time=0.11510799999999999
EXTRACT: note_on channel=3 note=82 velocity=0 time=0
EXTRACT: note_on channel=3 note=58 velocity=0 time=0
EXTRACT: note_on channel=1 note=27 velocity=122 time=0.016786583333333334
EXTRACT: note_on channel=9 note=70 velocity=73 time=0.0047961666666666665
EXTRACT: note_on channel=3 note=56 velocity=89 time=0.011990416666666667
EXTRACT: note_on channel=3 note=80 velocity=111 time=0
EXTRACT: note_on channel=3 note=68 velocity=89 time=0
EXTRACT: note_on channel=9 note=46 velocity=61 time=0.0047961666666666665
EXTRACT: control_change channel=6 control=11 value=45 time=0.016786583333333334
EXTRACT: control_change channel=7 control=11 value=47 time=0.011990416666666667
EXTRACT: note_on channel=9 note=70 velocity=0 time=0.011990416666666667
EXTRACT: note_on channel=9 note=46 velocity=0 time=0.016786583333333334
EXTRACT: control_change channel=4 control=11 value=76 time=0.011990416666666667
EXTRACT: note_on channel=9 note=70 velocity=67 time=0.031175083333333332
EXTRACT: note_on channel=9 note=42 velocity=111 time=0.007194249999999999
EXTRACT: control_change channel=6 control=11 value=49 time=0.03357316666666667
EXTRACT: note_on channel=9 note=70 velocity=0 time=0.016786583333333334
EXTRACT: note_on channel=9 note=42 velocity=0 time=0.007194249999999999
EXTRACT: control_change channel=0 control=10 value=0 time=0.014388499999999999
EXTRACT: note_on channel=0 note=121 velocity=127 time=0.0023980833333333332
EXTRACT: note_on channel=0 note=122 velocity=127 time=0.011990416666666667
EXTRACT: note_on channel=0 note=119 velocity=127 time=0
EXTRACT: control_change channel=7 control=11 value=51 time=0.007194249999999999
EXTRACT: note_on channel=1 note=27 velocity=0 time=0.0023980833333333332
EXTRACT: note_on channel=0 note=122 velocity=0 time=0.011990416666666667
EXTRACT: note_on channel=4 note=63 velocity=0 time=0.0047961666666666665
EXTRACT: note_on channel=4 note=65 velocity=0 time=0
EXTRACT: note_on channel=4 note=51 velocity=0 time=0
EXTRACT: note_on channel=11 note=51 velocity=114 time=0
EXTRACT: note_on channel=4 note=67 velocity=107 time=0.0023980833333333332
EXTRACT: note_on channel=4 note=63 velocity=104 time=0
EXTRACT: note_on channel=4 note=51 velocity=99 time=0
EXTRACT: control_change channel=0 control=10 value=1 time=0.026378916666666665
EXTRACT: note_on channel=0 note=117 velocity=127 time=0
EXTRACT: control_change channel=6 control=11 value=53 time=0
EXTRACT: note_on channel=11 note=51 velocity=0 time=0.0023980833333333332
EXTRACT: note_on channel=3 note=68 velocity=0 time=0.0047961666666666665
EXTRACT: note_on channel=3 note=80 velocity=0 time=0
EXTRACT: note_on channel=3 note=56 velocity=0 time=0
EXTRACT: control_change channel=4 control=11 value=78 time=0.007194249999999999
EXTRACT: control_change channel=0 control=10 value=3 time=0.009592333333333333
EXTRACT: control_change channel=7 control=11 value=55 time=0.021582749999999998
EXTRACT: note_on channel=0 note=121 velocity=0 time=0.0023980833333333332
EXTRACT: control_change channel=0 control=10 value=5 time=0.0023980833333333332
EXTRACT: note_on channel=0 note=116 velocity=127 time=0.011990416666666667
EXTRACT: control_change channel=6 control=11 value=57 time=0
EXTRACT: control_change channel=7 control=11 value=59 time=0.021582749999999998
EXTRACT: control_change channel=0 control=10 value=7 time=0.0023980833333333332
EXTRACT: note_on channel=0 note=119 velocity=0 time=0.009592333333333333
EXTRACT: note_on channel=0 note=114 velocity=127 time=0.009592333333333333
EXTRACT: control_change channel=4 control=11 value=80 time=0.0047961666666666665
EXTRACT: control_change channel=0 control=10 value=9 time=0.0023980833333333332
EXTRACT: control_change channel=6 control=11 value=61 time=0.014388499999999999
EXTRACT: note_on channel=0 note=117 velocity=0 time=0.016786583333333334
EXTRACT: note_on channel=0 note=112 velocity=127 time=0
EXTRACT: control_change channel=7 control=11 value=63 time=0.0023980833333333332
EXTRACT: control_change channel=0 control=10 value=11 time=0.0023980833333333332
EXTRACT: control_change channel=0 control=10 value=13 time=0.023980833333333333
EXTRACT: note_on channel=0 note=116 velocity=0 time=0.023980833333333333
EXTRACT: control_change channel=0 control=10 value=15 time=0.0023980833333333332
EXTRACT: note_on channel=0 note=110 velocity=127 time=0.011990416666666667
EXTRACT: note_on channel=3 note=58 velocity=90 time=0.0023980833333333332
EXTRACT: note_on channel=3 note=82 velocity=113 time=0
EXTRACT: note_on channel=3 note=70 velocity=90 time=0
EXTRACT: control_change channel=6 control=11 value=65 time=0.007194249999999999
EXTRACT: control_change channel=7 control=11 value=67 time=0.011990416666666667
EXTRACT: control_change channel=0 control=10 value=17 time=0.0023980833333333332
EXTRACT: control_change channel=6 control=11 value=69 time=0.016786583333333334
EXTRACT: control_change channel=0 control=10 value=19 time=0.0047961666666666665
EXTRACT: note_on channel=0 note=114 velocity=0 time=0.014388499999999999
EXTRACT: note_on channel=0 note=109 velocity=127 time=0.009592333333333333
EXTRACT: control_change channel=0 control=10 value=21 time=0.0047961666666666665
EXTRACT: note_on channel=3 note=70 velocity=0 time=0.0047961666666666665
EXTRACT: note_on channel=3 note=82 velocity=0 time=0
EXTRACT: note_on channel=3 note=58 velocity=0 time=0
EXTRACT: control_change channel=0 control=10 value=23 time=0.028776999999999997
EXTRACT: control_change channel=7 control=11 value=71 time=0.007194249999999999
EXTRACT: note_on channel=0 note=112 velocity=0 time=0.019184666666666666
EXTRACT: control_change channel=6 control=11 value=73 time=0
EXTRACT: control_change channel=0 control=10 value=25 time=0.0023980833333333332
EXTRACT: note_on channel=0 note=107 velocity=127 time=0.0023980833333333332
EXTRACT: control_change channel=0 control=10 value=27 time=0.031175083333333332
EXTRACT: control_change channel=0 control=10 value=29 time=0.023980833333333333
EXTRACT: control_change channel=7 control=11 value=75 time=0
EXTRACT: note_on channel=0 note=110 velocity=0 time=0.011990416666666667
EXTRACT: note_on channel=0 note=105 velocity=127 time=0.0047961666666666665
EXTRACT: control_change channel=0 control=10 value=31 time=0.011990416666666667
EXTRACT: note_on channel=11 note=46 velocity=114 time=0.0047961666666666665
EXTRACT: note_on channel=3 note=58 velocity=91 time=0.009592333333333333
EXTRACT: note_on channel=3 note=82 velocity=115 time=0
EXTRACT: note_on channel=3 note=70 velocity=91 time=0
EXTRACT: control_change channel=0 control=10 value=33 time=0.019184666666666666
EXTRACT: note_on channel=11 note=46 velocity=0 time=0.0023980833333333332
EXTRACT: note_on channel=0 note=109 velocity=0 time=0.011990416666666667
EXTRACT: note_on channel=0 note=104 velocity=127 time=0.0023980833333333332
EXTRACT: control_change channel=0 control=10 value=35 time=0.007194249999999999
EXTRACT: control_change channel=6 control=11 value=77 time=0.0023980833333333332
EXTRACT: control_change channel=0 control=10 value=37 time=0.023980833333333333
EXTRACT: control_change channel=4 control=11 value=78 time=0.0047961666666666665
EXTRACT: note_on channel=0 note=107 velocity=0 time=0.021582749999999998
EXTRACT: note_on channel=0 note=102 velocity=127 time=0.0023980833333333332
EXTRACT: control_change channel=0 control=10 value=39 time=0.007194249999999999
EXTRACT: control_change channel=0 control=10 value=41 time=0.026378916666666665
EXTRACT: note_on channel=0 note=105 velocity=0 time=0.028776999999999997
EXTRACT: note_on channel=0 note=100 velocity=127 time=0.0023980833333333332
EXTRACT: control_change channel=0 control=10 value=43 time=0.0047961666666666665
EXTRACT: control_change channel=7 control=11 value=79 time=0.014388499999999999
EXTRACT: control_change channel=0 control=10 value=45 time=0.009592333333333333
EXTRACT: note_on channel=3 note=70 velocity=0 time=0.009592333333333333
EXTRACT: note_on channel=3 note=82 velocity=0 time=0
EXTRACT: note_on channel=3 note=58 velocity=0 time=0
EXTRACT: note_on channel=0 note=104 velocity=0 time=0.009592333333333333
EXTRACT: control_change channel=0 control=10 value=47 time=0.007194249999999999
EXTRACT: note_on channel=0 note=98 velocity=127 time=0
EXTRACT: control_change channel=4 control=11 value=76 time=0.019184666666666666
EXTRACT: control_change channel=0 control=10 value=49 time=0.016786583333333334
EXTRACT: control_change channel=6 control=11 value=81 time=0
EXTRACT: note_on channel=0 note=102 velocity=0 time=0.014388499999999999
EXTRACT: control_change channel=0 control=10 value=51 time=0.009592333333333333
EXTRACT: note_on channel=0 note=97 velocity=127 time=0
EXTRACT: control_change channel=0 control=10 value=53 time=0.03836933333333333
EXTRACT: note_on channel=0 note=100 velocity=0 time=0.0047961666666666665
EXTRACT: control_change channel=7 control=11 value=83 time=0.0023980833333333332
EXTRACT: control_change channel=0 control=10 value=55 time=0.016786583333333334
EXTRACT: control_change channel=6 control=11 value=85 time=0
EXTRACT: control_change channel=7 control=11 value=87 time=0.014388499999999999
EXTRACT: note_on channel=0 note=95 velocity=127 time=0.0047961666666666665
EXTRACT: control_change channel=0 control=10 value=57 time=0.007194249999999999
EXTRACT: note_on channel=0 note=98 velocity=0 time=0.009592333333333333
EXTRACT: control_change channel=0 control=10 value=59 time=0.026378916666666665
EXTRACT: note_on channel=0 note=94 velocity=127 time=0.019184666666666666
EXTRACT: control_change channel=0 control=10 value=61 time=0.0047961666666666665
EXTRACT: note_on channel=0 note=97 velocity=0 time=0.007194249999999999
EXTRACT: note_on channel=0 note=94 velocity=0 time=0.009592333333333333
EXTRACT: control_change channel=0 control=10 value=63 time=0.009592333333333333
EXTRACT: note_on channel=3 note=58 velocity=92 time=0
EXTRACT: note_on channel=3 note=82 velocity=116 time=0
EXTRACT: note_on channel=3 note=70 velocity=92 time=0
EXTRACT: note_on channel=0 note=93 velocity=127 time=0.007194249999999999
EXTRACT: note_on channel=11 note=51 velocity=114 time=0
EXTRACT: note_on channel=0 note=91 velocity=127 time=0.011990416666666667
EXTRACT: note_on channel=0 note=95 velocity=0 time=0.0023980833333333332
EXTRACT: control_change channel=6 control=11 value=89 time=0
EXTRACT: control_change channel=0 control=10 value=64 time=0.0023980833333333332
EXTRACT: control_change channel=0 control=10 value=65 time=0.011990416666666667
EXTRACT: note_on channel=11 note=51 velocity=0 time=0.0023980833333333332
EXTRACT: control_change channel=0 control=10 value=67 time=0.019184666666666666
EXTRACT: note_on channel=0 note=89 velocity=127 time=0.016786583333333334
EXTRACT: control_change channel=0 control=10 value=69 time=0.023980833333333333
EXTRACT: control_change channel=0 control=10 value=71 time=0.021582749999999998
EXTRACT: note_on channel=0 note=93 velocity=0 time=0.0023980833333333332
EXTRACT: note_on channel=0 note=88 velocity=127 time=0.014388499999999999
EXTRACT: control_change channel=0 control=10 value=73 time=0.011990416666666667
EXTRACT: note_on channel=0 note=91 velocity=0 time=0.021582749999999998
EXTRACT: note_on channel=0 note=86 velocity=127 time=0.009592333333333333
EXTRACT: control_change channel=0 control=10 value=75 time=0.0023980833333333332
EXTRACT: control_change channel=7 control=11 value=91 time=0
EXTRACT: control_change channel=0 control=10 value=77 time=0.023980833333333333
EXTRACT: note_on channel=0 note=89 velocity=0 time=0.011990416666666667
EXTRACT: note_on channel=0 note=84 velocity=127 time=0
EXTRACT: control_change channel=6 control=11 value=93 time=0.0047961666666666665
EXTRACT: control_change channel=0 control=10 value=79 time=0.011990416666666667
EXTRACT: control_change channel=7 control=11 value=95 time=0.0023980833333333332
EXTRACT: control_change channel=0 control=10 value=81 time=0.031175083333333332
EXTRACT: note_on channel=0 note=88 velocity=0 time=0.0023980833333333332
EXTRACT: control_change channel=6 control=11 value=97 time=0.007194249999999999
EXTRACT: control_change channel=7 control=11 value=99 time=0.0047961666666666665
EXTRACT: note_on channel=0 note=82 velocity=127 time=0.0023980833333333332
EXTRACT: control_change channel=0 control=10 value=83 time=0.007194249999999999
EXTRACT: note_on channel=9 note=85 velocity=79 time=0.011990416666666667
EXTRACT: control_change channel=6 control=11 value=101 time=0.0047961666666666665
EXTRACT: control_change channel=7 control=11 value=103 time=0.0047961666666666665
EXTRACT: note_on channel=3 note=70 velocity=0 time=0.011990416666666667
EXTRACT: note_on channel=3 note=82 velocity=0 time=0
EXTRACT: note_on channel=3 note=58 velocity=0 time=0
EXTRACT: control_change channel=6 control=11 value=105 time=0
EXTRACT: control_change channel=0 control=10 value=85 time=0.0047961666666666665
EXTRACT: control_change channel=7 control=11 value=107 time=0
EXTRACT: note_on channel=9 note=85 velocity=0 time=0.0047961666666666665
EXTRACT: control_change channel=6 control=11 value=109 time=0.0047961666666666665
EXTRACT: note_on channel=0 note=86 velocity=0 time=0.0047961666666666665
EXTRACT: control_change channel=7 control=11 value=111 time=0
EXTRACT: control_change channel=0 control=10 value=87 time=0.009592333333333333
EXTRACT: note_on channel=0 note=81 velocity=127 time=0
EXTRACT: control_change channel=6 control=11 value=114 time=0.0023980833333333332
EXTRACT: control_change channel=7 control=11 value=117 time=0.0047961666666666665
EXTRACT: control_change channel=6 control=11 value=120 time=0.009592333333333333
EXTRACT: control_change channel=7 control=11 value=122 time=0.0047961666666666665
EXTRACT: control_change channel=0 control=10 value=89 time=0.0047961666666666665
EXTRACT: note_on channel=9 note=85 velocity=77 time=0
EXTRACT: control_change channel=6 control=11 value=120 time=0.014388499999999999
EXTRACT: note_on channel=9 note=85 velocity=0 time=0.016786583333333334
EXTRACT: control_change channel=0 control=10 value=91 time=0.0047961666666666665
EXTRACT: note_on channel=0 note=84 velocity=0 time=0.0023980833333333332
EXTRACT: note_on channel=7 note=51 velocity=0 time=0.0023980833333333332
EXTRACT: note_on channel=0 note=79 velocity=127 time=0.0023980833333333332
EXTRACT: control_change channel=0 control=10 value=93 time=0.016786583333333334
EXTRACT: note_on channel=6 note=63 velocity=0 time=0.0023980833333333332
EXTRACT: control_change channel=0 control=10 value=95 time=0.023980833333333333
EXTRACT: control_change channel=5 control=11 value=127 time=0
EXTRACT: note_on channel=5 note=68 velocity=108 time=0.0047961666666666665
EXTRACT: note_on channel=11 note=46 velocity=114 time=0.0023980833333333332
EXTRACT: note_on channel=9 note=85 velocity=79 time=0.0047961666666666665
EXTRACT: note_on channel=9 note=57 velocity=58 time=0
EXTRACT: pitchwheel channel=13 pitch=0 time=0
EXTRACT: control_change channel=13 control=11 value=96 time=0
EXTRACT: note_on channel=13 note=92 velocity=84 time=0
EXTRACT: note_on channel=0 note=82 velocity=0 time=0.011990416666666667
EXTRACT: note_on channel=0 note=77 velocity=127 time=0.0047961666666666665
EXTRACT: control_change channel=0 control=10 value=97 time=0.007194249999999999
EXTRACT: pitchwheel channel=13 pitch=64 time=0
EXTRACT: note_on channel=11 note=46 velocity=0 time=0.0023980833333333332
EXTRACT: note_on channel=9 note=85 velocity=0 time=0.0047961666666666665
EXTRACT: control_change channel=0 control=10 value=99 time=0.016786583333333334
EXTRACT: pitchwheel channel=13 pitch=128 time=0
EXTRACT: note_on channel=5 note=70 velocity=109 time=0.0023980833333333332
EXTRACT: note_on channel=9 note=57 velocity=0 time=0.007194249999999999
EXTRACT: note_on channel=5 note=68 velocity=0 time=0.0047961666666666665
EXTRACT: note_on channel=0 note=81 velocity=0 time=0.014388499999999999
EXTRACT: note_on channel=0 note=76 velocity=127 time=0.0023980833333333332
EXTRACT: control_change channel=0 control=10 value=101 time=0.007194249999999999
EXTRACT: control_change channel=0 control=10 value=103 time=0.023980833333333333
EXTRACT: note_on channel=5 note=72 velocity=107 time=0
EXTRACT: note_on channel=13 note=92 velocity=0 time=0.0047961666666666665
EXTRACT: note_on channel=13 note=91 velocity=72 time=0.0023980833333333332
EXTRACT: note_on channel=5 note=70 velocity=0 time=0.0023980833333333332
EXTRACT: control_change channel=0 control=10 value=105 time=0.016786583333333334
EXTRACT: note_on channel=0 note=79 velocity=0 time=0.0023980833333333332
EXTRACT: note_on channel=0 note=74 velocity=127 time=0.0023980833333333332
EXTRACT: pitchwheel channel=13 pitch=64 time=0
EXTRACT: pitchwheel channel=13 pitch=0 time=0.007194249999999999
EXTRACT: note_on channel=5 note=73 velocity=111 time=0.019184666666666666
EXTRACT: control_change channel=0 control=10 value=107 time=0.0047961666666666665
EXTRACT: note_on channel=13 note=91 velocity=0 time=0.0023980833333333332
EXTRACT: note_on channel=13 note=89 velocity=67 time=0
EXTRACT: note_on channel=5 note=72 velocity=0 time=0.0047961666666666665
EXTRACT: control_change channel=0 control=10 value=109 time=0.016786583333333334
EXTRACT: pitchwheel channel=13 pitch=-64 time=0.0023980833333333332
EXTRACT: note_on channel=0 note=77 velocity=0 time=0.0047961666666666665
EXTRACT: note_on channel=0 note=72 velocity=127 time=0.0023980833333333332
EXTRACT: pitchwheel channel=13 pitch=-128 time=0.009592333333333333
EXTRACT: control_change channel=7 control=11 value=124 time=0.0023980833333333332
EXTRACT: note_on channel=7 note=51 velocity=81 time=0
EXTRACT: note_on channel=6 note=63 velocity=69 time=0.0023980833333333332
EXTRACT: control_change channel=0 control=10 value=111 time=0.0023980833333333332
EXTRACT: note_on channel=5 note=75 velocity=108 time=0.0047961666666666665
EXTRACT: note_on channel=9 note=85 velocity=77 time=0.0023980833333333332
EXTRACT: note_on channel=13 note=89 velocity=0 time=0.0023980833333333332
EXTRACT: note_on channel=13 note=87 velocity=72 time=0.0023980833333333332
EXTRACT: note_on channel=5 note=73 velocity=0 time=0.0023980833333333332
EXTRACT: note_on channel=0 note=76 velocity=0 time=0.016786583333333334
EXTRACT: control_change channel=0 control=10 value=113 time=0.0047961666666666665
EXTRACT: note_on channel=0 note=70 velocity=127 time=0.0023980833333333332
EXTRACT: note_on channel=9 note=85 velocity=0 time=0
EXTRACT: pitchwheel channel=13 pitch=0 time=0.011990416666666667
EXTRACT: control_change channel=0 control=10 value=115 time=0.007194249999999999
EXTRACT: note_on channel=5 note=77 velocity=111 time=0.0047961666666666665
EXTRACT: note_on channel=13 note=85 velocity=91 time=0.007194249999999999
EXTRACT: note_on channel=5 note=75 velocity=0 time=0.0047961666666666665
EXTRACT: pitchwheel channel=13 pitch=128 time=0.011990416666666667
EXTRACT: note_on channel=0 note=74 velocity=0 time=0.0023980833333333332
EXTRACT: note_on channel=13 note=87 velocity=0 time=0
EXTRACT: control_change channel=0 control=10 value=117 time=0.009592333333333333
EXTRACT: note_on channel=0 note=69 velocity=127 time=0
EXTRACT: note_on channel=7 note=51 velocity=0 time=0.011990416666666667
EXTRACT: note_on channel=6 note=63 velocity=0 time=0.0023980833333333332
EXTRACT: control_change channel=6 control=11 value=120 time=0.0023980833333333332
EXTRACT: control_change channel=0 control=10 value=119 time=0.0047961666666666665
EXTRACT: note_on channel=5 note=79 velocity=113 time=0
EXTRACT: note_on channel=13 note=84 velocity=90 time=0.009592333333333333
EXTRACT: note_on channel=5 note=77 velocity=0 time=0.0023980833333333332
EXTRACT: note_on channel=0 note=72 velocity=0 time=0.009592333333333333
EXTRACT: note_on channel=13 note=85 velocity=0 time=0.0047961666666666665
EXTRACT: control_change channel=0 control=10 value=121 time=0.0023980833333333332
EXTRACT: pitchwheel channel=13 pitch=0 time=0.011990416666666667
EXTRACT: note_on channel=0 note=67 velocity=127 time=0.019184666666666666
EXTRACT: control_change channel=0 control=10 value=123 time=0.0023980833333333332
EXTRACT: note_on channel=13 note=82 velocity=83 time=0.0047961666666666665
EXTRACT: note_on channel=5 note=79 velocity=0 time=0.0023980833333333332
EXTRACT: note_on channel=0 note=70 velocity=0 time=0.007194249999999999
EXTRACT: pitchwheel channel=13 pitch=-64 time=0.007194249999999999
EXTRACT: control_change channel=0 control=10 value=125 time=0.0023980833333333332
EXTRACT: note_on channel=13 note=84 velocity=0 time=0.007194249999999999
EXTRACT: pitchwheel channel=13 pitch=-128 time=0.0047961666666666665
EXTRACT: control_change channel=7 control=11 value=120 time=0.011990416666666667
EXTRACT: note_on channel=7 note=44 velocity=67 time=0
EXTRACT: note_on channel=6 note=56 velocity=67 time=0.0023980833333333332
EXTRACT: control_change channel=6 control=11 value=120 time=0
EXTRACT: control_change channel=0 control=10 value=127 time=0.0023980833333333332
EXTRACT: pitchwheel channel=13 pitch=-192 time=0
EXTRACT: note_on channel=4 note=51 velocity=0 time=0.007194249999999999
EXTRACT: note_on channel=4 note=63 velocity=0 time=0
EXTRACT: note_on channel=4 note=67 velocity=0 time=0
EXTRACT: note_on channel=4 note=63 velocity=82 time=0
EXTRACT: note_on channel=4 note=68 velocity=85 time=0
EXTRACT: note_on channel=4 note=51 velocity=77 time=0
EXTRACT: note_on channel=4 note=60 velocity=81 time=0
EXTRACT: note_on channel=13 note=80 velocity=65 time=0
EXTRACT: control_change channel=4 control=11 value=78 time=0.0047961666666666665
EXTRACT: note_on channel=5 note=80 velocity=117 time=0
EXTRACT: note_on channel=9 note=35 velocity=97 time=0
EXTRACT: note_on channel=9 note=57 velocity=91 time=0
EXTRACT: note_on channel=0 note=66 velocity=127 time=0.0023980833333333332
EXTRACT: note_on channel=0 note=69 velocity=0 time=0.0047961666666666665
EXTRACT: note_on channel=13 note=82 velocity=0 time=0.0047961666666666665
EXTRACT: note_on channel=0 note=66 velocity=0 time=0.016786583333333334
EXTRACT: pitchwheel channel=13 pitch=-128 time=0.0047961666666666665
EXTRACT: control_change channel=4 control=11 value=107 time=0.0047961666666666665
EXTRACT: control_change channel=5 control=11 value=59 time=0
EXTRACT: pitchwheel channel=13 pitch=-64 time=0.0023980833333333332
EXTRACT: control_change channel=7 control=11 value=116 time=0.0047961666666666665
EXTRACT: note_on channel=0 note=67 velocity=0 time=0.0023980833333333332
EXTRACT: control_change channel=6 control=11 value=116 time=0
EXTRACT: pitchwheel channel=13 pitch=0 time=0.0023980833333333332
EXTRACT: note_on channel=9 note=57 velocity=0 time=0.007194249999999999
EXTRACT: note_on channel=9 note=35 velocity=0 time=0
EXTRACT: control_change channel=7 control=11 value=110 time=0.026378916666666665
EXTRACT: control_change channel=6 control=11 value=110 time=0.0023980833333333332
EXTRACT: control_change channel=7 control=11 value=104 time=0.028776999999999997
EXTRACT: control_change channel=6 control=11 value=104 time=0.0023980833333333332
EXTRACT: control_change channel=5 control=11 value=61 time=0.014388499999999999
EXTRACT: control_change channel=7 control=11 value=100 time=0.014388499999999999
EXTRACT: control_change channel=6 control=11 value=100 time=0.0023980833333333332
EXTRACT: control_change channel=4 control=11 value=115 time=0.007194249999999999
EXTRACT: control_change channel=7 control=11 value=96 time=0.04556358333333333
EXTRACT: control_change channel=6 control=11 value=96 time=0.0023980833333333332
EXTRACT: note_on channel=7 note=44 velocity=0 time=0.0047961666666666665
EXTRACT: note_on channel=6 note=56 velocity=0 time=0.0023980833333333332
EXTRACT: note_on channel=7 note=44 velocity=61 time=0.0047961666666666665
EXTRACT: note_on channel=1 note=32 velocity=126 time=0.0023980833333333332
EXTRACT: note_on channel=6 note=56 velocity=60 time=0
EXTRACT: note_on channel=9 note=70 velocity=77 time=0.007194249999999999
EXTRACT: note_on channel=3 note=68 velocity=113 time=0
EXTRACT: note_on channel=3 note=56 velocity=82 time=0
EXTRACT: control_change channel=7 control=11 value=117 time=0
EXTRACT: control_change channel=6 control=11 value=117 time=0.0023980833333333332
EXTRACT: note_on channel=9 note=46 velocity=61 time=0.0047961666666666665
EXTRACT: control_change channel=7 control=11 value=110 time=0.007194249999999999
EXTRACT: control_change channel=6 control=11 value=110 time=0.0023980833333333332
EXTRACT: note_on channel=13 note=80 velocity=0 time=0.009592333333333333
EXTRACT: control_change channel=7 control=11 value=101 time=0.0047961666666666665
EXTRACT: control_change channel=6 control=11 value=101 time=0.0023980833333333332
EXTRACT: control_change channel=7 control=11 value=95 time=0.011990416666666667
EXTRACT: control_change channel=6 control=11 value=95 time=0.0023980833333333332
EXTRACT: note_on channel=9 note=70 velocity=0 time=0.0023980833333333332
EXTRACT: control_change channel=7 control=11 value=89 time=0.011990416666666667
EXTRACT: control_change channel=6 control=11 value=89 time=0.0023980833333333332
EXTRACT: note_on channel=9 note=46 velocity=0 time=0
EXTRACT: control_change channel=7 control=11 value=82 time=0.011990416666666667
EXTRACT: control_change channel=6 control=11 value=82 time=0.0023980833333333332
EXTRACT: control_change channel=7 control=11 value=76 time=0.014388499999999999
EXTRACT: control_change channel=6 control=11 value=76 time=0.0023980833333333332
EXTRACT: note_on channel=3 note=56 velocity=0 time=0.011990416666666667
EXTRACT: note_on channel=3 note=68 velocity=0 time=0
EXTRACT: note_on channel=9 note=70 velocity=67 time=0.0023980833333333332
EXTRACT: control_change channel=7 control=11 value=71 time=0.007194249999999999
EXTRACT: note_on channel=9 note=42 velocity=109 time=0
EXTRACT: control_change channel=6 control=11 value=71 time=0.0023980833333333332
EXTRACT: control_change channel=7 control=11 value=66 time=0.019184666666666666
EXTRACT: control_change channel=6 control=11 value=66 time=0.0023980833333333332
EXTRACT: control_change channel=7 control=11 value=64 time=0.014388499999999999
EXTRACT: control_change channel=6 control=11 value=64 time=0.0023980833333333332
EXTRACT: control_change channel=7 control=11 value=62 time=0.0047961666666666665
EXTRACT: control_change channel=6 control=11 value=62 time=0.0023980833333333332
EXTRACT: note_on channel=9 note=70 velocity=0 time=0.0023980833333333332
EXTRACT: note_on channel=9 note=42 velocity=0 time=0.007194249999999999
EXTRACT: control_change channel=7 control=11 value=57 time=0.011990416666666667
EXTRACT: control_change channel=6 control=11 value=57 time=0.0023980833333333332
EXTRACT: note_on channel=1 note=32 velocity=0 time=0.021582749999999998
EXTRACT: note_on channel=9 note=70 velocity=108 time=0.016786583333333334
EXTRACT: note_on channel=3 note=68 velocity=115 time=0.0023980833333333332
EXTRACT: note_on channel=3 note=56 velocity=83 time=0
EXTRACT: note_on channel=9 note=37 velocity=91 time=0.0047961666666666665
EXTRACT: note_on channel=9 note=28 velocity=68 time=0
EXTRACT: note_on channel=9 note=39 velocity=67 time=0
EXTRACT: note_on channel=9 note=35 velocity=97 time=0
EXTRACT: note_on channel=9 note=28 velocity=0 time=0.0023980833333333332
EXTRACT: note_on channel=9 note=37 velocity=0 time=0
EXTRACT: note_on channel=9 note=40 velocity=64 time=0
EXTRACT: note_on channel=9 note=39 velocity=50 time=0.028776999999999997
EXTRACT: control_change channel=4 control=11 value=111 time=0.014388499999999999
EXTRACT: note_on channel=9 note=70 velocity=0 time=0.0047961666666666665
EXTRACT: note_on channel=9 note=39 velocity=0 time=0.007194249999999999
EXTRACT: note_on channel=9 note=35 velocity=0 time=0
EXTRACT: note_on channel=9 note=40 velocity=0 time=0.0023980833333333332
EXTRACT: control_change channel=7 control=11 value=53 time=0.009592333333333333
EXTRACT: control_change channel=6 control=11 value=53 time=0.0023980833333333332
EXTRACT: control_change channel=5 control=11 value=59 time=0.0047961666666666665
EXTRACT: note_on channel=9 note=39 velocity=0 time=0.011990416666666667
EXTRACT: note_on channel=3 note=56 velocity=0 time=0.014388499999999999
EXTRACT: note_on channel=3 note=68 velocity=0 time=0
EXTRACT: note_on channel=9 note=70 velocity=75 time=0.11031183333333333
EXTRACT: note_on channel=1 note=32 velocity=118 time=0.007194249999999999
EXTRACT: note_on channel=3 note=68 velocity=113 time=0.0023980833333333332
EXTRACT: note_on channel=3 note=56 velocity=82 time=0
EXTRACT: control_change channel=4 control=11 value=103 time=0.0023980833333333332
EXTRACT: control_change channel=7 control=11 value=57 time=0
EXTRACT: control_change channel=6 control=11 value=57 time=0.0023980833333333332
EXTRACT: control_change channel=5 control=11 value=57 time=0.014388499999999999
EXTRACT: note_on channel=9 note=46 velocity=59 time=0
EXTRACT: control_change channel=7 control=11 value=61 time=0.007194249999999999
EXTRACT: control_change channel=6 control=11 value=61 time=0.0023980833333333332
EXTRACT: note_on channel=9 note=70 velocity=0 time=0.019184666666666666
EXTRACT: note_on channel=9 note=46 velocity=0 time=0.028776999999999997
EXTRACT: control_change channel=7 control=11 value=65 time=0.0023980833333333332
EXTRACT: control_change channel=6 control=11 value=65 time=0.0023980833333333332
EXTRACT: note_on channel=3 note=56 velocity=0 time=0.03357316666666667
EXTRACT: note_on channel=3 note=68 velocity=0 time=0
EXTRACT: note_on channel=9 note=70 velocity=67 time=0.0047961666666666665
EXTRACT: note_on channel=9 note=42 velocity=108 time=0.007194249999999999
EXTRACT: note_on channel=9 note=70 velocity=0 time=0.050359749999999995
EXTRACT: note_on channel=9 note=42 velocity=0 time=0.007194249999999999
EXTRACT: control_change channel=7 control=11 value=69 time=0.028776999999999997
EXTRACT: control_change channel=6 control=11 value=69 time=0.0023980833333333332
EXTRACT: note_on channel=1 note=32 velocity=0 time=0.007194249999999999
EXTRACT: note_on channel=9 note=70 velocity=108 time=0.014388499999999999
EXTRACT: note_on channel=9 note=35 velocity=97 time=0.007194249999999999
EXTRACT: note_on channel=3 note=72 velocity=112 time=0.007194249999999999
EXTRACT: note_on channel=3 note=60 velocity=81 time=0
EXTRACT: control_change channel=7 control=11 value=74 time=0.023980833333333333
EXTRACT: control_change channel=6 control=11 value=74 time=0.0023980833333333332
EXTRACT: note_on channel=9 note=70 velocity=0 time=0.016786583333333334
EXTRACT: note_on channel=9 note=35 velocity=0 time=0.007194249999999999
EXTRACT: note_on channel=1 note=32 velocity=121 time=0.16306966666666667
EXTRACT: note_on channel=9 note=70 velocity=76 time=0.007194249999999999
EXTRACT: note_on channel=9 note=46 velocity=61 time=0.014388499999999999
EXTRACT: note_on channel=9 note=70 velocity=0 time=0.043165499999999996
EXTRACT: note_on channel=9 note=46 velocity=0 time=0.014388499999999999
EXTRACT: control_change channel=7 control=11 value=80 time=0.019184666666666666
EXTRACT: control_change channel=6 control=11 value=80 time=0.0023980833333333332
EXTRACT: note_on channel=9 note=70 velocity=67 time=0.021582749999999998
EXTRACT: note_on channel=9 note=42 velocity=108 time=0.009592333333333333
EXTRACT: note_on channel=3 note=60 velocity=0 time=0.016786583333333334
EXTRACT: note_on channel=3 note=72 velocity=0 time=0
EXTRACT: control_change channel=7 control=11 value=85 time=0.028776999999999997
EXTRACT: control_change channel=6 control=11 value=85 time=0.0023980833333333332
EXTRACT: note_on channel=9 note=70 velocity=0 time=0
EXTRACT: note_on channel=9 note=42 velocity=0 time=0.009592333333333333
EXTRACT: control_change channel=7 control=11 value=89 time=0.026378916666666665
EXTRACT: control_change channel=6 control=11 value=89 time=0.0023980833333333332
EXTRACT: note_on channel=1 note=32 velocity=0 time=0.007194249999999999
EXTRACT: control_change channel=4 control=11 value=103 time=0
EXTRACT: note_on channel=9 note=70 velocity=107 time=0.014388499999999999
EXTRACT: note_on channel=9 note=40 velocity=54 time=0.009592333333333333
EXTRACT: note_on channel=9 note=37 velocity=91 time=0
EXTRACT: note_on channel=9 note=28 velocity=68 time=0
EXTRACT: note_on channel=9 note=39 velocity=72 time=0
EXTRACT: note_on channel=9 note=35 velocity=97 time=0
EXTRACT: note_on channel=3 note=75 velocity=111 time=0.0023980833333333332
EXTRACT: note_on channel=3 note=63 velocity=81 time=0
EXTRACT: note_on channel=9 note=28 velocity=0 time=0
EXTRACT: note_on channel=9 note=37 velocity=0 time=0
EXTRACT: control_change channel=7 control=11 value=94 time=0.011990416666666667
EXTRACT: control_change channel=6 control=11 value=94 time=0.0023980833333333332
EXTRACT: note_on channel=9 note=39 velocity=55 time=0.014388499999999999
EXTRACT: control_change channel=7 control=11 value=99 time=0.014388499999999999
EXTRACT: control_change channel=6 control=11 value=99 time=0.0023980833333333332
EXTRACT: note_on channel=9 note=70 velocity=0 time=0
EXTRACT: note_on channel=9 note=35 velocity=0 time=0.009592333333333333
EXTRACT: note_on channel=9 note=40 velocity=0 time=0
EXTRACT: note_on channel=9 note=39 velocity=0 time=0
EXTRACT: control_change channel=7 control=11 value=104 time=0.019184666666666666
EXTRACT: control_change channel=6 control=11 value=104 time=0.0023980833333333332
EXTRACT: note_on channel=9 note=39 velocity=0 time=0.009592333333333333
EXTRACT: control_change channel=7 control=11 value=109 time=0.026378916666666665
EXTRACT: control_change channel=6 control=11 value=109 time=0.0023980833333333332
EXTRACT: control_change channel=7 control=11 value=113 time=0.011990416666666667
EXTRACT: control_change channel=6 control=11 value=113 time=0.0023980833333333332
EXTRACT: control_change channel=7 control=11 value=118 time=0.028776999999999997
EXTRACT: control_change channel=6 control=11 value=118 time=0.0023980833333333332
EXTRACT: note_on channel=7 note=44 velocity=0 time=0.035971249999999996
EXTRACT: note_on channel=6 note=56 velocity=0 time=0.009592333333333333
EXTRACT: note_on channel=1 note=32 velocity=122 time=0.009592333333333333
EXTRACT: note_on channel=9 note=70 velocity=73 time=0.007194249999999999
EXTRACT: note_on channel=9 note=46 velocity=61 time=0.014388499999999999
EXTRACT: note_on channel=3 note=63 velocity=0 time=0.026378916666666665
EXTRACT: note_on channel=3 note=75 velocity=0 time=0
EXTRACT: note_on channel=9 note=70 velocity=0 time=0.016786583333333334
EXTRACT: note_on channel=9 note=46 velocity=0 time=0.014388499999999999
EXTRACT: note_on channel=9 note=70 velocity=67 time=0.04556358333333333
EXTRACT: note_on channel=9 note=42 velocity=109 time=0.007194249999999999
EXTRACT: note_on channel=9 note=70 velocity=0 time=0.050359749999999995
EXTRACT: note_on channel=9 note=42 velocity=0 time=0.007194249999999999
EXTRACT: note_on channel=1 note=32 velocity=0 time=0.035971249999999996
EXTRACT: note_on channel=7 note=48 velocity=69 time=0.007194249999999999
EXTRACT: note_on channel=6 note=60 velocity=67 time=0.0023980833333333332
EXTRACT: note_on channel=9 note=70 velocity=108 time=0.007194249999999999
EXTRACT: note_on channel=4 note=60 velocity=0 time=0.0023980833333333332
EXTRACT: note_on channel=4 note=63 velocity=0 time=0
EXTRACT: note_on channel=4 note=68 velocity=0 time=0
EXTRACT: note_on channel=4 note=51 velocity=0 time=0
EXTRACT: note_on channel=4 note=67 velocity=84 time=0
EXTRACT: note_on channel=4 note=60 velocity=81 time=0
EXTRACT: note_on channel=4 note=63 velocity=83 time=0
EXTRACT: note_on channel=4 note=48 velocity=75 time=0
EXTRACT: control_change channel=7 control=11 value=117 time=0.0023980833333333332
EXTRACT: control_change channel=4 control=11 value=104 time=0.0023980833333333332
EXTRACT: note_on channel=5 note=80 velocity=0 time=0
EXTRACT: note_on channel=5 note=79 velocity=118 time=0
EXTRACT: control_change channel=6 control=11 value=117 time=0
EXTRACT: note_on channel=9 note=35 velocity=97 time=0
EXTRACT: note_on channel=3 note=79 velocity=114 time=0.011990416666666667
EXTRACT: note_on channel=3 note=67 velocity=83 time=0
EXTRACT: control_change channel=7 control=11 value=108 time=0.0023980833333333332
EXTRACT: control_change channel=6 control=11 value=108 time=0.0023980833333333332
EXTRACT: control_change channel=5 control=11 value=59 time=0.007194249999999999
EXTRACT: control_change channel=7 control=11 value=97 time=0.0047961666666666665
EXTRACT: control_change channel=6 control=11 value=97 time=0.0023980833333333332
EXTRACT: control_change channel=7 control=11 value=89 time=0.014388499999999999
EXTRACT: control_change channel=6 control=11 value=89 time=0.0023980833333333332
EXTRACT: note_on channel=9 note=70 velocity=0 time=0.0023980833333333332
EXTRACT: note_on channel=9 note=35 velocity=0 time=0.007194249999999999
EXTRACT: control_change channel=7 control=11 value=81 time=0.0023980833333333332
EXTRACT: control_change channel=6 control=11 value=81 time=0.0023980833333333332
EXTRACT: control_change channel=7 control=11 value=73 time=0.014388499999999999
EXTRACT: control_change channel=6 control=11 value=73 time=0.0023980833333333332
EXTRACT: control_change channel=7 control=11 value=66 time=0.011990416666666667
EXTRACT: control_change channel=6 control=11 value=66 time=0.0023980833333333332
EXTRACT: control_change channel=4 control=11 value=112 time=0.007194249999999999
EXTRACT: control_change channel=7 control=11 value=60 time=0.014388499999999999
EXTRACT: control_change channel=6 control=11 value=60 time=0.0023980833333333332
EXTRACT: control_change channel=7 control=11 value=54 time=0.021582749999999998
EXTRACT: control_change channel=6 control=11 value=54 time=0.0023980833333333332
EXTRACT: control_change channel=7 control=11 value=48 time=0.021582749999999998
EXTRACT: control_change channel=6 control=11 value=48 time=0.0023980833333333332
EXTRACT: control_change channel=7 control=11 value=43 time=0.021582749999999998
EXTRACT: control_change channel=6 control=11 value=43 time=0.0023980833333333332
EXTRACT: control_change channel=5 control=11 value=57 time=0.0047961666666666665
EXTRACT: note_on channel=1 note=36 velocity=116 time=0.026378916666666665
EXTRACT: note_on channel=9 note=70 velocity=77 time=0.0047961666666666665
EXTRACT: note_on channel=9 note=46 velocity=61 time=0.016786583333333334
EXTRACT: note_on channel=9 note=70 velocity=0 time=0.04076741666666667
EXTRACT: note_on channel=9 note=46 velocity=0 time=0.016786583333333334
EXTRACT: control_change channel=7 control=11 value=38 time=0.0023980833333333332
EXTRACT: control_change channel=6 control=11 value=38 time=0.0023980833333333332
EXTRACT: note_on channel=9 note=70 velocity=67 time=0.03836933333333333
EXTRACT: note_on channel=9 note=42 velocity=113 time=0.007194249999999999
EXTRACT: control_change channel=7 control=11 value=38 time=0.031175083333333332
EXTRACT: control_change channel=6 control=11 value=38 time=0.0023980833333333332
EXTRACT: control_change channel=4 control=11 value=116 time=0.014388499999999999
EXTRACT: note_on channel=9 note=70 velocity=0 time=0.0023980833333333332
EXTRACT: note_on channel=9 note=42 velocity=0 time=0.007194249999999999
EXTRACT: note_on channel=3 note=67 velocity=0 time=0.0023980833333333332
EXTRACT: note_on channel=3 note=79 velocity=0 time=0
EXTRACT: note_on channel=1 note=36 velocity=0 time=0.035971249999999996
EXTRACT: control_change channel=7 control=11 value=42 time=0.011990416666666667
EXTRACT: control_change channel=6 control=11 value=42 time=0.0023980833333333332
EXTRACT: note_on channel=9 note=70 velocity=103 time=0
EXTRACT: note_on channel=9 note=37 velocity=91 time=0.007194249999999999
EXTRACT: note_on channel=9 note=28 velocity=68 time=0
EXTRACT: note_on channel=9 note=39 velocity=67 time=0
EXTRACT: note_on channel=9 note=35 velocity=97 time=0
EXTRACT: note_on channel=9 note=28 velocity=0 time=0.0023980833333333332
EXTRACT: note_on channel=9 note=37 velocity=0 time=0
EXTRACT: note_on channel=9 note=40 velocity=65 time=0.0023980833333333332
EXTRACT: note_on channel=3 note=82 velocity=111 time=0.007194249999999999
EXTRACT: note_on channel=3 note=70 velocity=81 time=0
EXTRACT: control_change channel=7 control=11 value=47 time=0.0023980833333333332
EXTRACT: control_change channel=6 control=11 value=47 time=0.0023980833333333332
EXTRACT: note_on channel=9 note=39 velocity=50 time=0.014388499999999999
EXTRACT: note_on channel=9 note=70 velocity=0 time=0.019184666666666666
EXTRACT: note_on channel=9 note=39 velocity=0 time=0.007194249999999999
EXTRACT: note_on channel=9 note=35 velocity=0 time=0
EXTRACT: note_on channel=9 note=40 velocity=0 time=0.0047961666666666665
EXTRACT: control_change channel=7 control=11 value=53 time=0.007194249999999999
EXTRACT: control_change channel=6 control=11 value=53 time=0.0023980833333333332
EXTRACT: control_change channel=5 control=11 value=59 time=0.014388499999999999
EXTRACT: note_on channel=9 note=39 velocity=0 time=0.0023980833333333332
EXTRACT: control_change channel=4 control=11 value=108 time=0.035971249999999996
EXTRACT: note_on channel=3 note=70 velocity=0 time=0.06954441666666666
EXTRACT: note_on channel=3 note=82 velocity=0 time=0
EXTRACT: control_change channel=7 control=11 value=57 time=0.007194249999999999
EXTRACT: control_change channel=6 control=11 value=57 time=0.0023980833333333332
EXTRACT: note_on channel=9 note=70 velocity=75 time=0.011990416666666667
EXTRACT: note_on channel=1 note=36 velocity=115 time=0.0047961666666666665
EXTRACT: note_on channel=3 note=79 velocity=110 time=0.019184666666666666
EXTRACT: note_on channel=3 note=67 velocity=80 time=0
EXTRACT: note_on channel=9 note=46 velocity=62 time=0.0023980833333333332
EXTRACT: control_change channel=7 control=11 value=63 time=0.021582749999999998
EXTRACT: control_change channel=6 control=11 value=63 time=0.0023980833333333332
EXTRACT: note_on channel=9 note=70 velocity=0 time=0.007194249999999999
EXTRACT: control_change channel=5 control=11 value=57 time=0.007194249999999999
EXTRACT: note_on channel=9 note=46 velocity=0 time=0.019184666666666666
EXTRACT: note_on channel=9 note=70 velocity=67 time=0.043165499999999996
EXTRACT: note_on channel=9 note=42 velocity=111 time=0.009592333333333333
EXTRACT: note_on channel=9 note=70 velocity=0 time=0.047961666666666666
EXTRACT: control_change channel=4 control=11 value=100 time=0.007194249999999999
EXTRACT: note_on channel=9 note=42 velocity=0 time=0.0023980833333333332
EXTRACT: note_on channel=1 note=36 velocity=0 time=0.035971249999999996
EXTRACT: note_on channel=3 note=67 velocity=0 time=0.007194249999999999
EXTRACT: note_on channel=3 note=79 velocity=0 time=0
EXTRACT: note_on channel=9 note=70 velocity=103 time=0.007194249999999999
EXTRACT: note_on channel=5 note=79 velocity=0 time=0.007194249999999999
EXTRACT: note_on channel=5 note=82 velocity=120 time=0.0023980833333333332
EXTRACT: note_on channel=9 note=35 velocity=97 time=0
EXTRACT: control_change channel=5 control=11 value=59 time=0.021582749999999998
EXTRACT: note_on channel=9 note=70 velocity=0 time=0.026378916666666665
EXTRACT: control_change channel=7 control=11 value=68 time=0.0047961666666666665
EXTRACT: control_change channel=6 control=11 value=68 time=0.0023980833333333332
EXTRACT: note_on channel=9 note=35 velocity=0 time=0.0023980833333333332
EXTRACT: control_change channel=7 control=11 value=72 time=0.08153483333333333
EXTRACT: control_change channel=6 control=11 value=72 time=0.0023980833333333332
EXTRACT: control_change channel=7 control=11 value=77 time=0.028776999999999997
EXTRACT: control_change channel=6 control=11 value=77 time=0.0023980833333333332
EXTRACT: control_change channel=5 control=11 value=57 time=0.021582749999999998
EXTRACT: control_change channel=7 control=11 value=83 time=0.014388499999999999
EXTRACT: control_change channel=6 control=11 value=83 time=0.0023980833333333332
EXTRACT: note_on channel=1 note=36 velocity=116 time=0.007194249999999999
EXTRACT: note_on channel=3 note=75 velocity=111 time=0.007194249999999999
EXTRACT: note_on channel=3 note=63 velocity=81 time=0
EXTRACT: note_on channel=9 note=82 velocity=65 time=0.007194249999999999
EXTRACT: note_on channel=9 note=46 velocity=63 time=0.007194249999999999
EXTRACT: control_change channel=7 control=11 value=88 time=0.007194249999999999
EXTRACT: control_change channel=6 control=11 value=88 time=0.0023980833333333332
EXTRACT: control_change channel=7 control=11 value=93 time=0.021582749999999998
EXTRACT: control_change channel=6 control=11 value=93 time=0.0023980833333333332
EXTRACT: note_on channel=9 note=82 velocity=0 time=0.016786583333333334
EXTRACT: note_on channel=9 note=46 velocity=0 time=0.007194249999999999
EXTRACT: control_change channel=7 control=11 value=98 time=0.0047961666666666665
EXTRACT: control_change channel=6 control=11 value=98 time=0.0023980833333333332
EXTRACT: control_change channel=7 control=11 value=102 time=0.021582749999999998
EXTRACT: control_change channel=6 control=11 value=102 time=0.0023980833333333332
EXTRACT: control_change channel=7 control=11 value=107 time=0.021582749999999998
EXTRACT: note_on channel=9 note=82 velocity=57 time=0
EXTRACT: note_on channel=9 note=42 velocity=111 time=0
EXTRACT: control_change channel=6 control=11 value=107 time=0.0023980833333333332
EXTRACT: control_change channel=7 control=11 value=111 time=0.011990416666666667
EXTRACT: control_change channel=6 control=11 value=111 time=0.0023980833333333332
EXTRACT: control_change channel=7 control=11 value=115 time=0.014388499999999999
EXTRACT: control_change channel=6 control=11 value=115 time=0.0023980833333333332
EXTRACT: note_on channel=9 note=39 velocity=50 time=0.0047961666666666665
EXTRACT: note_on channel=9 note=42 velocity=0 time=0.019184666666666666
EXTRACT: note_on channel=9 note=82 velocity=0 time=0
EXTRACT: control_change channel=7 control=11 value=120 time=0.0047961666666666665
EXTRACT: control_change channel=6 control=11 value=120 time=0.0023980833333333332
EXTRACT: note_on channel=7 note=48 velocity=0 time=0.019184666666666666
EXTRACT: note_on channel=3 note=63 velocity=0 time=0.0047961666666666665
EXTRACT: note_on channel=3 note=75 velocity=0 time=0
EXTRACT: note_on channel=1 note=36 velocity=0 time=0.0047961666666666665
EXTRACT: note_on channel=6 note=60 velocity=0 time=0
EXTRACT: note_on channel=9 note=39 velocity=0 time=0.0023980833333333332
EXTRACT: note_on channel=3 note=82 velocity=110 time=0.014388499999999999
EXTRACT: note_on channel=3 note=70 velocity=80 time=0
EXTRACT: note_on channel=9 note=40 velocity=56 time=0.007194249999999999
EXTRACT: note_on channel=9 note=37 velocity=91 time=0
EXTRACT: note_on channel=9 note=28 velocity=68 time=0
EXTRACT: note_on channel=9 note=39 velocity=73 time=0
EXTRACT: note_on channel=9 note=82 velocity=71 time=0
EXTRACT: note_on channel=9 note=35 velocity=97 time=0
EXTRACT: note_on channel=9 note=28 velocity=0 time=0.0023980833333333332
EXTRACT: note_on channel=9 note=37 velocity=0 time=0
EXTRACT: note_on channel=9 note=39 velocity=55 time=0.028776999999999997
EXTRACT: note_on channel=9 note=39 velocity=0 time=0.026378916666666665
EXTRACT: note_on channel=9 note=82 velocity=0 time=0
EXTRACT: note_on channel=9 note=40 velocity=0 time=0
EXTRACT: note_on channel=9 note=35 velocity=0 time=0
EXTRACT: note_on channel=9 note=39 velocity=0 time=0.031175083333333332
EXTRACT: control_change channel=5 control=11 value=59 time=0.0047961666666666665
EXTRACT: note_on channel=3 note=70 velocity=0 time=0.08872908333333333
EXTRACT: note_on channel=3 note=82 velocity=0 time=0
EXTRACT: note_on channel=7 note=48 velocity=70 time=0.035971249999999996
EXTRACT: note_on channel=1 note=36 velocity=113 time=0.0023980833333333332
EXTRACT: note_on channel=6 note=60 velocity=71 time=0
EXTRACT: note_on channel=9 note=82 velocity=53 time=0.014388499999999999
EXTRACT: note_on channel=3 note=80 velocity=111 time=0.0023980833333333332
EXTRACT: note_on channel=3 note=68 velocity=81 time=0
EXTRACT: note_on channel=9 note=46 velocity=62 time=0.0047961666666666665
EXTRACT: control_change channel=4 control=11 value=104 time=0.007194249999999999
EXTRACT: control_change channel=5 control=11 value=57 time=0.016786583333333334
EXTRACT: control_change channel=7 control=11 value=114 time=0.014388499999999999
EXTRACT: control_change channel=6 control=11 value=114 time=0.0023980833333333332
EXTRACT: note_on channel=9 note=82 velocity=0 time=0.009592333333333333
EXTRACT: note_on channel=9 note=46 velocity=0 time=0.007194249999999999
EXTRACT: control_change channel=7 control=11 value=110 time=0.0023980833333333332
EXTRACT: control_change channel=6 control=11 value=110 time=0.0023980833333333332
EXTRACT: control_change channel=7 control=11 value=105 time=0.014388499999999999
EXTRACT: control_change channel=6 control=11 value=105 time=0.0023980833333333332
EXTRACT: note_on channel=3 note=68 velocity=0 time=0.016786583333333334
EXTRACT: note_on channel=3 note=80 velocity=0 time=0
EXTRACT: control_change channel=7 control=11 value=96 time=0.011990416666666667
EXTRACT: note_on channel=9 note=82 velocity=50 time=0
EXTRACT: note_on channel=9 note=42 velocity=113 time=0
EXTRACT: control_change channel=6 control=11 value=96 time=0.0023980833333333332
EXTRACT: control_change channel=7 control=11 value=92 time=0.011990416666666667
EXTRACT: control_change channel=6 control=11 value=92 time=0.0023980833333333332
EXTRACT: control_change channel=7 control=11 value=88 time=0.021582749999999998
EXTRACT: control_change channel=6 control=11 value=88 time=0.0023980833333333332
EXTRACT: note_on channel=9 note=42 velocity=0 time=0.016786583333333334
EXTRACT: note_on channel=9 note=82 velocity=0 time=0
EXTRACT: control_change channel=7 control=11 value=84 time=0.028776999999999997
EXTRACT: control_change channel=6 control=11 value=84 time=0.0023980833333333332
EXTRACT: note_on channel=7 note=48 velocity=0 time=0.0047961666666666665
EXTRACT: note_on channel=1 note=36 velocity=0 time=0.0023980833333333332
EXTRACT: note_on channel=6 note=60 velocity=0 time=0
EXTRACT: note_on channel=7 note=49 velocity=71 time=0.0047961666666666665
EXTRACT: note_on channel=6 note=61 velocity=71 time=0.0023980833333333332
EXTRACT: note_on channel=9 note=70 velocity=103 time=0.007194249999999999
EXTRACT: note_on channel=4 note=48 velocity=0 time=0.0023980833333333332
EXTRACT: note_on channel=4 note=67 velocity=0 time=0
EXTRACT: note_on channel=4 note=60 velocity=0 time=0
EXTRACT: note_on channel=4 note=63 velocity=0 time=0
EXTRACT: note_on channel=4 note=68 velocity=86 time=0.0023980833333333332
EXTRACT: note_on channel=4 note=61 velocity=82 time=0
EXTRACT: note_on channel=4 note=49 velocity=77 time=0
EXTRACT: note_on channel=4 note=65 velocity=85 time=0
EXTRACT: note_on channel=5 note=80 velocity=114 time=0
EXTRACT: note_on channel=5 note=82 velocity=0 time=0.0023980833333333332
EXTRACT: note_on channel=9 note=35 velocity=97 time=0
EXTRACT: control_change channel=7 control=11 value=117 time=0.03836933333333333
EXTRACT: control_change channel=4 control=11 value=109 time=0.0023980833333333332
EXTRACT: control_change channel=6 control=11 value=117 time=0
EXTRACT: control_change channel=5 control=11 value=59 time=0.009592333333333333
EXTRACT: note_on channel=9 note=70 velocity=0 time=0
EXTRACT: note_on channel=9 note=35 velocity=0 time=0.007194249999999999
EXTRACT: control_change channel=7 control=11 value=113 time=0.0047961666666666665
EXTRACT: control_change channel=6 control=11 value=113 time=0.0023980833333333332
EXTRACT: control_change channel=7 control=11 value=109 time=0.011990416666666667
EXTRACT: control_change channel=6 control=11 value=109 time=0.0023980833333333332
EXTRACT: control_change channel=7 control=11 value=101 time=0.021582749999999998
EXTRACT: control_change channel=6 control=11 value=101 time=0.0023980833333333332
EXTRACT: control_change channel=7 control=11 value=96 time=0.021582749999999998
EXTRACT: control_change channel=6 control=11 value=96 time=0.0023980833333333332
EXTRACT: control_change channel=4 control=11 value=117 time=0.007194249999999999
EXTRACT: control_change channel=7 control=11 value=92 time=0.014388499999999999
EXTRACT: control_change channel=6 control=11 value=92 time=0.0023980833333333332
EXTRACT: control_change channel=5 control=11 value=61 time=0.016786583333333334
EXTRACT: control_change channel=7 control=11 value=88 time=0.011990416666666667
EXTRACT: control_change channel=6 control=11 value=88 time=0.0023980833333333332
EXTRACT: note_on channel=7 note=49 velocity=0 time=0.026378916666666665
EXTRACT: note_on channel=6 note=61 velocity=0 time=0.0023980833333333332
EXTRACT: control_change channel=7 control=11 value=120 time=0
EXTRACT: control_change channel=6 control=11 value=120 time=0.0023980833333333332
EXTRACT: note_on channel=7 note=49 velocity=68 time=0.0047961666666666665
EXTRACT: note_on channel=1 note=25 velocity=123 time=0.0023980833333333332
EXTRACT: note_on channel=6 note=61 velocity=62 time=0
EXTRACT: note_on channel=9 note=70 velocity=77 time=0.007194249999999999
EXTRACT: control_change channel=7 control=11 value=115 time=0.014388499999999999
EXTRACT: note_on channel=9 note=46 velocity=61 time=0
EXTRACT: control_change channel=6 control=11 value=115 time=0.0023980833333333332
EXTRACT: note_on channel=3 note=80 velocity=111 time=0.0023980833333333332
EXTRACT: note_on channel=3 note=68 velocity=81 time=0
EXTRACT: control_change channel=7 control=11 value=107 time=0.009592333333333333
EXTRACT: control_change channel=6 control=11 value=107 time=0.0023980833333333332
EXTRACT: control_change channel=7 control=11 value=100 time=0.014388499999999999
EXTRACT: control_change channel=6 control=11 value=100 time=0.0023980833333333332
EXTRACT: note_on channel=9 note=70 velocity=0 time=0.009592333333333333
EXTRACT: control_change channel=7 control=11 value=95 time=0.0023980833333333332
EXTRACT: control_change channel=6 control=11 value=95 time=0.0023980833333333332
EXTRACT: note_on channel=9 note=46 velocity=0 time=0.009592333333333333
EXTRACT: control_change channel=7 control=11 value=89 time=0.0047961666666666665
EXTRACT: control_change channel=6 control=11 value=89 time=0.0023980833333333332
EXTRACT: note_on channel=3 note=68 velocity=0 time=0.0047961666666666665
EXTRACT: note_on channel=3 note=80 velocity=0 time=0
EXTRACT: control_change channel=7 control=11 value=83 time=0.007194249999999999
EXTRACT: control_change channel=6 control=11 value=83 time=0.0023980833333333332
EXTRACT: control_change channel=7 control=11 value=78 time=0.021582749999999998
EXTRACT: note_on channel=9 note=70 velocity=67 time=0
EXTRACT: control_change channel=6 control=11 value=78 time=0.0023980833333333332
EXTRACT: note_on channel=9 note=42 velocity=109 time=0.007194249999999999
EXTRACT: control_change channel=7 control=11 value=74 time=0.007194249999999999
EXTRACT: control_change channel=6 control=11 value=74 time=0.0023980833333333332
EXTRACT: control_change channel=7 control=11 value=70 time=0.028776999999999997
EXTRACT: control_change channel=6 control=11 value=70 time=0.0023980833333333332
EXTRACT: note_on channel=9 note=70 velocity=0 time=0.007194249999999999
EXTRACT: control_change channel=7 control=11 value=66 time=0.0047961666666666665
EXTRACT: control_change channel=6 control=11 value=66 time=0.0023980833333333332
EXTRACT: note_on channel=9 note=42 velocity=0 time=0.0023980833333333332
EXTRACT: control_change channel=7 control=11 value=64 time=0.011990416666666667
EXTRACT: control_change channel=6 control=11 value=64 time=0.0023980833333333332
EXTRACT: control_change channel=7 control=11 value=62 time=0.019184666666666666
EXTRACT: note_on channel=1 note=25 velocity=0 time=0.0023980833333333332
EXTRACT: control_change channel=4 control=11 value=117 time=0
EXTRACT: control_change channel=6 control=11 value=62 time=0
EXTRACT: note_on channel=9 note=70 velocity=108 time=0.014388499999999999
EXTRACT: note_on channel=9 note=37 velocity=91 time=0.009592333333333333
EXTRACT: note_on channel=9 note=28 velocity=68 time=0
EXTRACT: note_on channel=9 note=39 velocity=67 time=0
EXTRACT: note_on channel=9 note=35 velocity=97 time=0
EXTRACT: note_on channel=9 note=28 velocity=0 time=0.0023980833333333332
EXTRACT: note_on channel=9 note=37 velocity=0 time=0
EXTRACT: note_on channel=9 note=40 velocity=64 time=0
EXTRACT: note_on channel=3 note=80 velocity=111 time=0.0047961666666666665
EXTRACT: note_on channel=3 note=68 velocity=81 time=0
EXTRACT: note_on channel=9 note=39 velocity=50 time=0.023980833333333333
EXTRACT: note_on channel=9 note=70 velocity=0 time=0.016786583333333334
EXTRACT: control_change channel=5 control=11 value=59 time=0.0023980833333333332
EXTRACT: note_on channel=9 note=39 velocity=0 time=0.007194249999999999
EXTRACT: note_on channel=9 note=35 velocity=0 time=0
EXTRACT: note_on channel=9 note=40 velocity=0 time=0.0023980833333333332
EXTRACT: note_on channel=9 note=39 velocity=0 time=0.028776999999999997
EXTRACT: note_on channel=3 note=68 velocity=0 time=0.0023980833333333332
EXTRACT: note_on channel=3 note=80 velocity=0 time=0
EXTRACT: control_change channel=4 control=11 value=109 time=0.04076741666666667
EXTRACT: control_change channel=7 control=11 value=62 time=0.07673866666666666
EXTRACT: control_change channel=6 control=11 value=62 time=0.0023980833333333332
EXTRACT: note_on channel=9 note=70 velocity=75 time=0.0023980833333333332
EXTRACT: note_on channel=1 note=25 velocity=122 time=0.0047961666666666665
EXTRACT: control_change channel=5 control=11 value=57 time=0.0023980833333333332
EXTRACT: control_change channel=7 control=11 value=64 time=0.011990416666666667
EXTRACT: control_change channel=6 control=11 value=64 time=0.0023980833333333332
EXTRACT: note_on channel=9 note=46 velocity=59 time=0.007194249999999999
EXTRACT: note_on channel=3 note=80 velocity=107 time=0.0023980833333333332
EXTRACT: note_on channel=3 note=68 velocity=78 time=0
EXTRACT: control_change channel=7 control=11 value=67 time=0.0023980833333333332
EXTRACT: control_change channel=6 control=11 value=67 time=0.0023980833333333332
EXTRACT: note_on channel=9 note=70 velocity=0 time=0.021582749999999998
EXTRACT: note_on channel=3 note=68 velocity=0 time=0.026378916666666665
EXTRACT: note_on channel=3 note=80 velocity=0 time=0
EXTRACT: note_on channel=9 note=46 velocity=0 time=0.0023980833333333332
EXTRACT: control_change channel=7 control=11 value=71 time=0.0023980833333333332
EXTRACT: control_change channel=6 control=11 value=71 time=0.0023980833333333332
EXTRACT: control_change channel=4 control=11 value=101 time=0.007194249999999999
EXTRACT: note_on channel=9 note=70 velocity=67 time=0.031175083333333332
EXTRACT: note_on channel=9 note=42 velocity=108 time=0.007194249999999999
EXTRACT: note_on channel=9 note=70 velocity=0 time=0.050359749999999995
EXTRACT: note_on channel=9 note=42 velocity=0 time=0.007194249999999999
EXTRACT: note_on channel=1 note=25 velocity=0 time=0.035971249999999996
EXTRACT: control_change channel=7 control=11 value=76 time=0
EXTRACT: control_change channel=6 control=11 value=76 time=0.0023980833333333332
EXTRACT: note_on channel=9 note=70 velocity=108 time=0.014388499999999999
EXTRACT: note_on channel=3 note=80 velocity=110 time=0.0023980833333333332
EXTRACT: note_on channel=3 note=68 velocity=80 time=0
EXTRACT: note_on channel=9 note=35 velocity=97 time=0.0047961666666666665
EXTRACT: note_on channel=9 note=70 velocity=0 time=0.050359749999999995
EXTRACT: note_on channel=9 note=35 velocity=0 time=0.007194249999999999
EXTRACT: note_on channel=3 note=68 velocity=0 time=0.06474825
EXTRACT: note_on channel=3 note=80 velocity=0 time=0
EXTRACT: note_on channel=1 note=25 velocity=120 time=0.09832141666666666
EXTRACT: note_on channel=3 note=80 velocity=108 time=0.0047961666666666665
EXTRACT: note_on channel=3 note=68 velocity=78 time=0
EXTRACT: control_change channel=7 control=11 value=81 time=0
EXTRACT: note_on channel=9 note=70 velocity=76 time=0
EXTRACT: control_change channel=6 control=11 value=81 time=0.0023980833333333332
EXTRACT: note_on channel=9 note=46 velocity=61 time=0.014388499999999999
EXTRACT: note_on channel=9 note=70 velocity=0 time=0.04076741666666667
EXTRACT: note_on channel=9 note=46 velocity=0 time=0.016786583333333334
EXTRACT: note_on channel=9 note=70 velocity=67 time=0.043165499999999996
EXTRACT: note_on channel=9 note=42 velocity=108 time=0.007194249999999999
EXTRACT: control_change channel=7 control=11 value=85 time=0.023980833333333333
EXTRACT: control_change channel=6 control=11 value=85 time=0.0023980833333333332
EXTRACT: note_on channel=3 note=68 velocity=0 time=0.023980833333333333
EXTRACT: note_on channel=3 note=80 velocity=0 time=0
EXTRACT: note_on channel=9 note=70 velocity=0 time=0
EXTRACT: control_change channel=7 control=11 value=89 time=0.0047961666666666665
EXTRACT: control_change channel=6 control=11 value=89 time=0.0023980833333333332
EXTRACT: note_on channel=9 note=42 velocity=0 time=0
EXTRACT: control_change channel=7 control=11 value=93 time=0.035971249999999996
EXTRACT: note_on channel=1 note=25 velocity=0 time=0.0023980833333333332
EXTRACT: control_change channel=6 control=11 value=93 time=0
EXTRACT: note_on channel=3 note=80 velocity=110 time=0.0023980833333333332
EXTRACT: note_on channel=3 note=68 velocity=80 time=0
EXTRACT: control_change channel=4 control=11 value=105 time=0.0047961666666666665
EXTRACT: note_on channel=9 note=70 velocity=107 time=0.007194249999999999
EXTRACT: note_on channel=9 note=40 velocity=54 time=0.007194249999999999
EXTRACT: note_on channel=9 note=37 velocity=91 time=0
EXTRACT: note_on channel=9 note=28 velocity=68 time=0
EXTRACT: note_on channel=9 note=39 velocity=72 time=0
EXTRACT: note_on channel=9 note=35 velocity=97 time=0
EXTRACT: note_on channel=9 note=28 velocity=0 time=0.0023980833333333332
EXTRACT: note_on channel=9 note=37 velocity=0 time=0
EXTRACT: control_change channel=7 control=11 value=97 time=0.021582749999999998
EXTRACT: control_change channel=6 control=11 value=97 time=0.0023980833333333332
EXTRACT: note_on channel=9 note=39 velocity=55 time=0.0047961666666666665
EXTRACT: note_on channel=9 note=70 velocity=0 time=0.019184666666666666
EXTRACT: note_on channel=9 note=35 velocity=0 time=0.007194249999999999
EXTRACT: note_on channel=9 note=40 velocity=0 time=0
EXTRACT: note_on channel=9 note=39 velocity=0 time=0
EXTRACT: control_change channel=7 control=11 value=102 time=0.0047961666666666665
EXTRACT: control_change channel=6 control=11 value=102 time=0.0023980833333333332
EXTRACT: control_change channel=7 control=11 value=106 time=0.021582749999999998
EXTRACT: control_change channel=6 control=11 value=106 time=0.0023980833333333332
EXTRACT: note_on channel=9 note=39 velocity=0 time=0
EXTRACT: control_change channel=7 control=11 value=110 time=0.028776999999999997
EXTRACT: control_change channel=6 control=11 value=110 time=0.0023980833333333332
EXTRACT: control_change channel=7 control=11 value=116 time=0.028776999999999997
EXTRACT: control_change channel=6 control=11 value=116 time=0.0023980833333333332
EXTRACT: note_on channel=3 note=68 velocity=0 time=0.0047961666666666665
EXTRACT: note_on channel=3 note=80 velocity=0 time=0
EXTRACT: control_change channel=7 control=11 value=120 time=0.023980833333333333
EXTRACT: control_change channel=6 control=11 value=120 time=0.0023980833333333332
EXTRACT: note_on channel=7 note=49 velocity=0 time=0.023980833333333333
EXTRACT: note_on channel=3 note=80 velocity=105 time=0.0047961666666666665
EXTRACT: note_on channel=3 note=68 velocity=76 time=0
EXTRACT: note_on channel=6 note=61 velocity=0 time=0
EXTRACT: note_on channel=1 note=25 velocity=120 time=0.009592333333333333
EXTRACT: note_on channel=9 note=70 velocity=73 time=0.007194249999999999
EXTRACT: note_on channel=9 note=46 velocity=61 time=0.014388499999999999
EXTRACT: note_on channel=9 note=70 velocity=0 time=0.043165499999999996
EXTRACT: note_on channel=9 note=46 velocity=0 time=0.014388499999999999
EXTRACT: note_on channel=9 note=70 velocity=67 time=0.04556358333333333
EXTRACT: note_on channel=9 note=42 velocity=109 time=0.007194249999999999
EXTRACT: control_change channel=4 control=11 value=101 time=0.007194249999999999
EXTRACT: note_on channel=9 note=70 velocity=0 time=0.043165499999999996
EXTRACT: note_on channel=9 note=42 velocity=0 time=0.007194249999999999
EXTRACT: note_on channel=3 note=68 velocity=0 time=0.007194249999999999
EXTRACT: note_on channel=3 note=80 velocity=0 time=0
EXTRACT: note_on channel=1 note=25 velocity=0 time=0.028776999999999997
EXTRACT: note_on channel=7 note=51 velocity=69 time=0.007194249999999999
EXTRACT: note_on channel=6 note=63 velocity=70 time=0.0023980833333333332
EXTRACT: note_on channel=3 note=79 velocity=112 time=0.0047961666666666665
EXTRACT: note_on channel=3 note=67 velocity=81 time=0
EXTRACT: note_on channel=9 note=70 velocity=108 time=0
EXTRACT: note_on channel=4 note=65 velocity=0 time=0.0047961666666666665
EXTRACT: note_on channel=4 note=68 velocity=0 time=0
EXTRACT: note_on channel=4 note=61 velocity=0 time=0
EXTRACT: note_on channel=4 note=49 velocity=0 time=0
EXTRACT: note_on channel=4 note=70 velocity=86 time=0
EXTRACT: note_on channel=4 note=55 velocity=80 time=0
EXTRACT: note_on channel=4 note=67 velocity=84 time=0
EXTRACT: note_on channel=4 note=63 velocity=82 time=0
EXTRACT: note_on channel=5 note=79 velocity=114 time=0
EXTRACT: note_on channel=5 note=63 velocity=106 time=0
EXTRACT: note_on channel=11 note=51 velocity=127 time=0
EXTRACT: note_on channel=5 note=80 velocity=0 time=0.0023980833333333332
EXTRACT: note_on channel=9 note=35 velocity=97 time=0.0023980833333333332
EXTRACT: control_change channel=7 control=11 value=114 time=0.0047961666666666665
EXTRACT: control_change channel=6 control=11 value=114 time=0.0023980833333333332
EXTRACT: control_change channel=5 control=11 value=59 time=0.014388499999999999
EXTRACT: control_change channel=7 control=11 value=103 time=0
EXTRACT: control_change channel=6 control=11 value=103 time=0.0023980833333333332
EXTRACT: note_on channel=11 note=51 velocity=0 time=0.0023980833333333332
EXTRACT: control_change channel=7 control=11 value=94 time=0.009592333333333333
EXTRACT: control_change channel=6 control=11 value=94 time=0.0023980833333333332
EXTRACT: note_on channel=9 note=70 velocity=0 time=0.009592333333333333
EXTRACT: control_change channel=7 control=11 value=87 time=0.0047961666666666665
EXTRACT: control_change channel=6 control=11 value=87 time=0.0023980833333333332
EXTRACT: note_on channel=9 note=35 velocity=0 time=0.0023980833333333332
EXTRACT: control_change channel=4 control=11 value=110 time=0.0047961666666666665
EXTRACT: control_change channel=5 control=11 value=61 time=0
EXTRACT: control_change channel=7 control=11 value=79 time=0.0047961666666666665
EXTRACT: control_change channel=6 control=11 value=79 time=0.0023980833333333332
EXTRACT: control_change channel=7 control=11 value=72 time=0.014388499999999999
EXTRACT: control_change channel=6 control=11 value=72 time=0.0023980833333333332
EXTRACT: control_change channel=7 control=11 value=67 time=0.011990416666666667
EXTRACT: control_change channel=6 control=11 value=67 time=0.0023980833333333332
EXTRACT: control_change channel=7 control=11 value=63 time=0.014388499999999999
EXTRACT: control_change channel=6 control=11 value=63 time=0.0023980833333333332
EXTRACT: control_change channel=5 control=11 value=59 time=0.007194249999999999
EXTRACT: control_change channel=7 control=11 value=57 time=0.014388499999999999
EXTRACT: control_change channel=6 control=11 value=57 time=0.0023980833333333332
EXTRACT: control_change channel=4 control=11 value=118 time=0.014388499999999999
EXTRACT: control_change channel=7 control=11 value=52 time=0.0047961666666666665
EXTRACT: control_change channel=6 control=11 value=52 time=0.0023980833333333332
EXTRACT: control_change channel=7 control=11 value=48 time=0.014388499999999999
EXTRACT: control_change channel=6 control=11 value=48 time=0.0023980833333333332
EXTRACT: control_change channel=5 control=11 value=57 time=0.007194249999999999
EXTRACT: control_change channel=7 control=11 value=44 time=0.021582749999999998
EXTRACT: control_change channel=6 control=11 value=44 time=0.0023980833333333332
EXTRACT: note_on channel=1 note=27 velocity=124 time=0.007194249999999999
EXTRACT: note_on channel=9 note=70 velocity=77 time=0.007194249999999999
EXTRACT: note_on channel=9 note=46 velocity=61 time=0.016786583333333334
EXTRACT: note_on channel=9 note=70 velocity=0 time=0.04076741666666667
EXTRACT: note_on channel=9 note=46 velocity=0 time=0.016786583333333334
EXTRACT: note_on channel=9 note=70 velocity=67 time=0.043165499999999996
EXTRACT: note_on channel=9 note=42 velocity=113 time=0.007194249999999999
EXTRACT: note_on channel=9 note=70 velocity=0 time=0.050359749999999995
EXTRACT: note_on channel=9 note=42 velocity=0 time=0.007194249999999999
EXTRACT: note_on channel=3 note=67 velocity=0 time=0.014388499999999999
EXTRACT: note_on channel=3 note=79 velocity=0 time=0
EXTRACT: control_change channel=7 control=11 value=44 time=0.011990416666666667
EXTRACT: control_change channel=6 control=11 value=44 time=0.0023980833333333332
EXTRACT: note_on channel=1 note=27 velocity=0 time=0.007194249999999999
EXTRACT: note_on channel=9 note=70 velocity=103 time=0.016786583333333334
EXTRACT: note_on channel=5 note=63 velocity=0 time=0.0023980833333333332
EXTRACT: note_on channel=5 note=79 velocity=0 time=0
EXTRACT: note_on channel=5 note=80 velocity=115 time=0
EXTRACT: note_on channel=5 note=65 velocity=107 time=0
EXTRACT: note_on channel=11 note=46 velocity=127 time=0
EXTRACT: control_change channel=7 control=11 value=48 time=0.0023980833333333332
EXTRACT: control_change channel=6 control=11 value=48 time=0.0023980833333333332
EXTRACT: note_on channel=9 note=37 velocity=91 time=0
EXTRACT: note_on channel=9 note=28 velocity=68 time=0
EXTRACT: note_on channel=9 note=39 velocity=67 time=0
EXTRACT: note_on channel=9 note=35 velocity=97 time=0
EXTRACT: note_on channel=9 note=28 velocity=0 time=0.0023980833333333332
EXTRACT: note_on channel=9 note=37 velocity=0 time=0
EXTRACT: note_on channel=3 note=80 velocity=111 time=0.0023980833333333332
EXTRACT: note_on channel=3 note=68 velocity=81 time=0
EXTRACT: note_on channel=9 note=40 velocity=65 time=0
EXTRACT: note_on channel=11 note=46 velocity=0 time=0.021582749999999998
EXTRACT: control_change channel=4 control=11 value=114 time=0.0047961666666666665
EXTRACT: note_on channel=9 note=39 velocity=50 time=0
EXTRACT: control_change channel=5 control=11 value=59 time=0.007194249999999999
EXTRACT: control_change channel=7 control=11 value=54 time=0.007194249999999999
EXTRACT: control_change channel=6 control=11 value=54 time=0.0023980833333333332
EXTRACT: note_on channel=9 note=70 velocity=0 time=0.0023980833333333332
EXTRACT: note_on channel=9 note=39 velocity=0 time=0.007194249999999999
EXTRACT: note_on channel=9 note=35 velocity=0 time=0
EXTRACT: note_on channel=9 note=40 velocity=0 time=0.0047961666666666665
EXTRACT: note_on channel=9 note=39 velocity=0 time=0.026378916666666665
EXTRACT: control_change channel=7 control=11 value=58 time=0.026378916666666665
EXTRACT: control_change channel=6 control=11 value=58 time=0.0023980833333333332
EXTRACT: control_change channel=4 control=11 value=106 time=0.055155916666666666
EXTRACT: control_change channel=5 control=11 value=57 time=0
EXTRACT: control_change channel=7 control=11 value=64 time=0.035971249999999996
EXTRACT: control_change channel=6 control=11 value=64 time=0.0023980833333333332
EXTRACT: note_on channel=9 note=70 velocity=75 time=0.0023980833333333332
EXTRACT: note_on channel=1 note=27 velocity=118 time=0.007194249999999999
EXTRACT: note_on channel=9 note=46 velocity=62 time=0.021582749999999998
EXTRACT: note_on channel=9 note=70 velocity=0 time=0.028776999999999997
EXTRACT: note_on channel=9 note=46 velocity=0 time=0.028776999999999997
EXTRACT: note_on channel=9 note=70 velocity=67 time=0.043165499999999996
EXTRACT: note_on channel=9 note=42 velocity=111 time=0.007194249999999999
EXTRACT: note_on channel=9 note=70 velocity=0 time=0.050359749999999995
EXTRACT: note_on channel=9 note=42 velocity=0 time=0.007194249999999999
EXTRACT: note_on channel=3 note=68 velocity=0 time=0.026378916666666665
EXTRACT: note_on channel=3 note=80 velocity=0 time=0
EXTRACT: note_on channel=1 note=27 velocity=0 time=0.011990416666666667
EXTRACT: control_change channel=7 control=11 value=68 time=0.0047961666666666665
EXTRACT: control_change channel=6 control=11 value=68 time=0.0023980833333333332
EXTRACT: control_change channel=4 control=11 value=98 time=0.007194249999999999
EXTRACT: note_on channel=9 note=70 velocity=103 time=0
EXTRACT: note_on channel=5 note=65 velocity=0 time=0.0023980833333333332
EXTRACT: note_on channel=5 note=80 velocity=0 time=0
EXTRACT: note_on channel=11 note=51 velocity=127 time=0
EXTRACT: note_on channel=5 note=82 velocity=113 time=0.0023980833333333332
EXTRACT: note_on channel=5 note=67 velocity=107 time=0
EXTRACT: note_on channel=9 note=35 velocity=97 time=0.0023980833333333332
EXTRACT: note_on channel=3 note=82 velocity=113 time=0.019184666666666666
EXTRACT: note_on channel=3 note=70 velocity=82 time=0
EXTRACT: control_change channel=5 control=11 value=59 time=0.0047961666666666665
EXTRACT: note_on channel=11 note=51 velocity=0 time=0.0023980833333333332
EXTRACT: note_on channel=9 note=70 velocity=0 time=0.023980833333333333
EXTRACT: note_on channel=9 note=35 velocity=0 time=0.007194249999999999
EXTRACT: control_change channel=5 control=11 value=61 time=0.0047961666666666665
EXTRACT: control_change channel=7 control=11 value=73 time=0.023980833333333333
EXTRACT: control_change channel=6 control=11 value=73 time=0.0023980833333333332
EXTRACT: control_change channel=5 control=11 value=59 time=0.035971249999999996
EXTRACT: control_change channel=7 control=11 value=77 time=0.031175083333333332
EXTRACT: control_change channel=6 control=11 value=77 time=0.0023980833333333332
EXTRACT: control_change channel=5 control=11 value=57 time=0.028776999999999997
EXTRACT: control_change channel=7 control=11 value=82 time=0.007194249999999999
EXTRACT: control_change channel=6 control=11 value=82 time=0.0023980833333333332
EXTRACT: note_on channel=1 note=27 velocity=121 time=0.023980833333333333
EXTRACT: control_change channel=7 control=11 value=87 time=0.0047961666666666665
EXTRACT: control_change channel=6 control=11 value=87 time=0.0023980833333333332
EXTRACT: note_on channel=9 note=82 velocity=65 time=0.007194249999999999
EXTRACT: note_on channel=9 note=46 velocity=63 time=0.007194249999999999
EXTRACT: control_change channel=7 control=11 value=91 time=0.014388499999999999
EXTRACT: control_change channel=6 control=11 value=91 time=0.0023980833333333332
EXTRACT: control_change channel=7 control=11 value=95 time=0.021582749999999998
EXTRACT: control_change channel=6 control=11 value=95 time=0.0023980833333333332
EXTRACT: note_on channel=9 note=82 velocity=0 time=0.009592333333333333
EXTRACT: note_on channel=9 note=46 velocity=0 time=0.007194249999999999
EXTRACT: control_change channel=7 control=11 value=101 time=0.011990416666666667
EXTRACT: control_change channel=6 control=11 value=101 time=0.0023980833333333332
EXTRACT: control_change channel=7 control=11 value=106 time=0.028776999999999997
EXTRACT: control_change channel=6 control=11 value=106 time=0.0023980833333333332
EXTRACT: note_on channel=9 note=82 velocity=57 time=0.007194249999999999
EXTRACT: note_on channel=9 note=42 velocity=111 time=0
EXTRACT: control_change channel=7 control=11 value=111 time=0.014388499999999999
EXTRACT: control_change channel=6 control=11 value=111 time=0.0023980833333333332
EXTRACT: control_change channel=7 control=11 value=115 time=0.011990416666666667
EXTRACT: control_change channel=6 control=11 value=115 time=0.0023980833333333332
EXTRACT: note_on channel=9 note=39 velocity=50 time=0.007194249999999999
EXTRACT: control_change channel=7 control=11 value=119 time=0.014388499999999999
EXTRACT: control_change channel=6 control=11 value=119 time=0.0023980833333333332
EXTRACT: note_on channel=9 note=42 velocity=0 time=0.0023980833333333332
EXTRACT: note_on channel=9 note=82 velocity=0 time=0
EXTRACT: note_on channel=3 note=70 velocity=0 time=0.009592333333333333
EXTRACT: note_on channel=3 note=82 velocity=0 time=0
EXTRACT: note_on channel=7 note=51 velocity=0 time=0.016786583333333334
EXTRACT: note_on channel=1 note=27 velocity=0 time=0.009592333333333333
EXTRACT: note_on channel=6 note=63 velocity=0 time=0
EXTRACT: note_on channel=9 note=39 velocity=0 time=0.0023980833333333332
EXTRACT: note_on channel=5 note=67 velocity=0 time=0.016786583333333334
EXTRACT: note_on channel=5 note=82 velocity=0 time=0
EXTRACT: note_on channel=5 note=84 velocity=115 time=0
EXTRACT: note_on channel=5 note=68 velocity=107 time=0
EXTRACT: note_on channel=11 note=46 velocity=127 time=0
EXTRACT: note_on channel=3 note=84 velocity=111 time=0.0047961666666666665
EXTRACT: note_on channel=3 note=72 velocity=81 time=0
EXTRACT: note_on channel=9 note=40 velocity=56 time=0
EXTRACT: note_on channel=9 note=37 velocity=91 time=0
EXTRACT: note_on channel=9 note=28 velocity=68 time=0
EXTRACT: note_on channel=9 note=39 velocity=73 time=0
EXTRACT: note_on channel=9 note=82 velocity=71 time=0
EXTRACT: note_on channel=9 note=35 velocity=97 time=0
EXTRACT: note_on channel=9 note=28 velocity=0 time=0.0023980833333333332
EXTRACT: note_on channel=9 note=37 velocity=0 time=0
EXTRACT: control_change channel=4 control=11 value=106 time=0.019184666666666666
EXTRACT: note_on channel=11 note=46 velocity=0 time=0.0047961666666666665
EXTRACT: control_change channel=5 control=11 value=59 time=0.0047961666666666665
EXTRACT: note_on channel=9 note=39 velocity=55 time=0
EXTRACT: note_on channel=9 note=39 velocity=0 time=0.026378916666666665
EXTRACT: note_on channel=9 note=82 velocity=0 time=0
EXTRACT: note_on channel=9 note=40 velocity=0 time=0
EXTRACT: note_on channel=9 note=35 velocity=0 time=0
EXTRACT: note_on channel=9 note=39 velocity=0 time=0.031175083333333332
EXTRACT: control_change channel=5 control=11 value=57 time=0.09112716666666666
EXTRACT: note_on channel=7 note=51 velocity=71 time=0.035971249999999996
EXTRACT: note_on channel=1 note=27 velocity=122 time=0.0023980833333333332
EXTRACT: note_on channel=6 note=63 velocity=72 time=0
EXTRACT: note_on channel=9 note=82 velocity=53 time=0.014388499999999999
EXTRACT: note_on channel=9 note=46 velocity=62 time=0.009592333333333333
EXTRACT: note_on channel=3 note=72 velocity=0 time=0.009592333333333333
EXTRACT: note_on channel=3 note=84 velocity=0 time=0
EXTRACT: note_on channel=9 note=82 velocity=0 time=0.03836933333333333
EXTRACT: control_change channel=7 control=11 value=114 time=0.0047961666666666665
EXTRACT: control_change channel=6 control=11 value=114 time=0.0023980833333333332
EXTRACT: note_on channel=9 note=46 velocity=0 time=0.0023980833333333332
EXTRACT: control_change channel=7 control=11 value=109 time=0.019184666666666666
EXTRACT: control_change channel=6 control=11 value=109 time=0.0023980833333333332
EXTRACT: control_change channel=7 control=11 value=104 time=0.011990416666666667
EXTRACT: control_change channel=6 control=11 value=104 time=0.0023980833333333332
EXTRACT: note_on channel=9 note=82 velocity=50 time=0.014388499999999999
EXTRACT: note_on channel=9 note=42 velocity=113 time=0
EXTRACT: control_change channel=7 control=11 value=98 time=0.014388499999999999
EXTRACT: control_change channel=6 control=11 value=98 time=0.0023980833333333332
EXTRACT: control_change channel=7 control=11 value=94 time=0.028776999999999997
EXTRACT: control_change channel=6 control=11 value=94 time=0.0023980833333333332
EXTRACT: note_on channel=9 note=42 velocity=0 time=0.009592333333333333
EXTRACT: note_on channel=9 note=82 velocity=0 time=0
EXTRACT: note_on channel=7 note=51 velocity=0 time=0.03357316666666667
EXTRACT: note_on channel=1 note=27 velocity=0 time=0.0023980833333333332
EXTRACT: note_on channel=6 note=63 velocity=0 time=0
EXTRACT: control_change channel=7 control=11 value=120 time=0
EXTRACT: control_change channel=6 control=11 value=120 time=0.0023980833333333332
EXTRACT: note_on channel=7 note=44 velocity=71 time=0.0047961666666666665
EXTRACT: note_on channel=6 note=56 velocity=70 time=0.0023980833333333332
EXTRACT: note_on channel=9 note=70 velocity=103 time=0.007194249999999999
EXTRACT: note_on channel=4 note=63 velocity=0 time=0.0023980833333333332
EXTRACT: note_on channel=4 note=70 velocity=0 time=0
EXTRACT: note_on channel=4 note=55 velocity=0 time=0
EXTRACT: note_on channel=4 note=67 velocity=0 time=0
EXTRACT: note_on channel=4 note=68 velocity=85 time=0
EXTRACT: note_on channel=4 note=63 velocity=83 time=0
EXTRACT: note_on channel=4 note=51 velocity=78 time=0
EXTRACT: note_on channel=4 note=60 velocity=81 time=0
EXTRACT: note_on channel=5 note=68 velocity=0 time=0
EXTRACT: note_on channel=5 note=84 velocity=0 time=0
EXTRACT: note_on channel=11 note=44 velocity=127 time=0
EXTRACT: control_change channel=4 control=11 value=105 time=0.0047961666666666665
EXTRACT: note_on channel=5 note=80 velocity=121 time=0
EXTRACT: note_on channel=9 note=35 velocity=97 time=0
EXTRACT: note_on channel=11 note=44 velocity=0 time=0.026378916666666665
EXTRACT: control_change channel=7 control=11 value=116 time=0.019184666666666666
EXTRACT: control_change channel=6 control=11 value=116 time=0.0023980833333333332
EXTRACT: note_on channel=9 note=70 velocity=0 time=0.0023980833333333332
EXTRACT: note_on channel=9 note=35 velocity=0 time=0.007194249999999999
EXTRACT: control_change channel=5 control=11 value=59 time=0.011990416666666667
EXTRACT: control_change channel=7 control=11 value=110 time=0.014388499999999999
EXTRACT: control_change channel=4 control=11 value=113 time=0.0023980833333333332
EXTRACT: control_change channel=6 control=11 value=110 time=0
EXTRACT: control_change channel=7 control=11 value=104 time=0.028776999999999997
EXTRACT: control_change channel=6 control=11 value=104 time=0.0023980833333333332
EXTRACT: control_change channel=7 control=11 value=100 time=0.028776999999999997
EXTRACT: control_change channel=6 control=11 value=100 time=0.0023980833333333332
EXTRACT: control_change channel=4 control=11 value=121 time=0.04556358333333333
EXTRACT: control_change channel=7 control=11 value=96 time=0.007194249999999999
EXTRACT: control_change channel=6 control=11 value=96 time=0.0023980833333333332
EXTRACT: note_on channel=7 note=44 velocity=0 time=0.0047961666666666665
EXTRACT: control_change channel=5 control=11 value=61 time=0.0023980833333333332
EXTRACT: note_on channel=6 note=56 velocity=0 time=0
EXTRACT: note_on channel=7 note=44 velocity=66 time=0.007194249999999999
EXTRACT: note_on channel=1 note=32 velocity=126 time=0.0023980833333333332
EXTRACT: note_on channel=6 note=56 velocity=62 time=0
EXTRACT: note_on channel=9 note=70 velocity=77 time=0.0047961666666666665
EXTRACT: control_change channel=7 control=11 value=117 time=0.007194249999999999
EXTRACT: note_on channel=3 note=68 velocity=110 time=0.0023980833333333332
EXTRACT: note_on channel=3 note=56 velocity=80 time=0
EXTRACT: control_change channel=6 control=11 value=117 time=0
EXTRACT: note_on channel=9 note=46 velocity=61 time=0.007194249999999999
EXTRACT: control_change channel=7 control=11 value=108 time=0.007194249999999999
EXTRACT: control_change channel=6 control=11 value=108 time=0.0023980833333333332
EXTRACT: control_change channel=7 control=11 value=98 time=0.011990416666666667
EXTRACT: control_change channel=6 control=11 value=98 time=0.0023980833333333332
EXTRACT: note_on channel=3 note=56 velocity=0 time=0.014388499999999999
EXTRACT: note_on channel=3 note=68 velocity=0 time=0
EXTRACT: control_change channel=7 control=11 value=91 time=0
EXTRACT: control_change channel=6 control=11 value=91 time=0.0023980833333333332
EXTRACT: note_on channel=9 note=70 velocity=0 time=0
EXTRACT: control_change channel=7 control=11 value=84 time=0.011990416666666667
EXTRACT: control_change channel=6 control=11 value=84 time=0.0023980833333333332
EXTRACT: note_on channel=9 note=46 velocity=0 time=0.0023980833333333332
EXTRACT: control_change channel=7 control=11 value=76 time=0.011990416666666667
EXTRACT: control_change channel=6 control=11 value=76 time=0.0023980833333333332
EXTRACT: control_change channel=7 control=11 value=70 time=0.011990416666666667
EXTRACT: control_change channel=6 control=11 value=70 time=0.0023980833333333332
EXTRACT: control_change channel=7 control=11 value=66 time=0.014388499999999999
EXTRACT: note_on channel=9 note=70 velocity=67 time=0
EXTRACT: control_change channel=6 control=11 value=66 time=0.0023980833333333332
EXTRACT: note_on channel=9 note=42 velocity=109 time=0.0047961666666666665
EXTRACT: control_change channel=7 control=11 value=60 time=0.007194249999999999
EXTRACT: control_change channel=6 control=11 value=60 time=0.0023980833333333332
EXTRACT: control_change channel=7 control=11 value=55 time=0.028776999999999997
EXTRACT: control_change channel=6 control=11 value=55 time=0.0023980833333333332
EXTRACT: note_on channel=9 note=70 velocity=0 time=0.009592333333333333
EXTRACT: control_change channel=7 control=11 value=51 time=0.0047961666666666665
EXTRACT: control_change channel=6 control=11 value=51 time=0.0023980833333333332
EXTRACT: note_on channel=9 note=42 velocity=0 time=0
EXTRACT: control_change channel=7 control=11 value=47 time=0.021582749999999998
EXTRACT: control_change channel=6 control=11 value=47 time=0.0023980833333333332
EXTRACT: note_on channel=1 note=32 velocity=0 time=0.014388499999999999
EXTRACT: note_on channel=9 note=70 velocity=108 time=0.014388499999999999
EXTRACT: note_on channel=11 note=44 velocity=127 time=0.0023980833333333332
EXTRACT: note_on channel=9 note=37 velocity=91 time=0.0047961666666666665
EXTRACT: note_on channel=9 note=28 velocity=68 time=0
EXTRACT: note_on channel=9 note=39 velocity=67 time=0
EXTRACT: note_on channel=9 note=35 velocity=97 time=0
EXTRACT: note_on channel=9 note=28 velocity=0 time=0.0023980833333333332
EXTRACT: note_on channel=9 note=37 velocity=0 time=0
EXTRACT: note_on channel=9 note=40 velocity=64 time=0.0023980833333333332
EXTRACT: note_on channel=3 note=68 velocity=113 time=0.0047961666666666665
EXTRACT: note_on channel=3 note=56 velocity=82 time=0
EXTRACT: control_change channel=5 control=11 value=59 time=0.007194249999999999
EXTRACT: note_on channel=11 note=44 velocity=0 time=0.009592333333333333
EXTRACT: note_on channel=9 note=39 velocity=50 time=0.0047961666666666665
EXTRACT: note_on channel=9 note=70 velocity=0 time=0.019184666666666666
EXTRACT: note_on channel=9 note=39 velocity=0 time=0.007194249999999999
EXTRACT: note_on channel=9 note=35 velocity=0 time=0
EXTRACT: note_on channel=9 note=40 velocity=0 time=0.0047961666666666665
EXTRACT: control_change channel=7 control=11 value=43 time=0.007194249999999999
EXTRACT: control_change channel=4 control=11 value=113 time=0.0023980833333333332
EXTRACT: control_change channel=6 control=11 value=43 time=0
EXTRACT: note_on channel=9 note=39 velocity=0 time=0.016786583333333334
EXTRACT: control_change channel=4 control=11 value=105 time=0.11510799999999999
EXTRACT: control_change channel=5 control=11 value=57 time=0
EXTRACT: note_on channel=9 note=70 velocity=75 time=0.011990416666666667
EXTRACT: note_on channel=1 note=32 velocity=118 time=0.0047961666666666665
EXTRACT: control_change channel=7 control=11 value=47 time=0.0047961666666666665
EXTRACT: control_change channel=6 control=11 value=47 time=0.0023980833333333332
EXTRACT: note_on channel=9 note=46 velocity=59 time=0.014388499999999999
EXTRACT: control_change channel=7 control=11 value=52 time=0.023980833333333333
EXTRACT: control_change channel=6 control=11 value=52 time=0.0023980833333333332
EXTRACT: note_on channel=9 note=70 velocity=0 time=0.0047961666666666665
EXTRACT: note_on channel=3 note=56 velocity=0 time=0.0047961666666666665
EXTRACT: note_on channel=3 note=68 velocity=0 time=0
EXTRACT: note_on channel=9 note=46 velocity=0 time=0.021582749999999998
EXTRACT: control_change channel=7 control=11 value=57 time=0.0047961666666666665
EXTRACT: control_change channel=6 control=11 value=57 time=0.0023980833333333332
EXTRACT: note_on channel=9 note=70 velocity=67 time=0.03836933333333333
EXTRACT: note_on channel=9 note=42 velocity=108 time=0.007194249999999999
EXTRACT: note_on channel=9 note=70 velocity=0 time=0.050359749999999995
EXTRACT: note_on channel=9 note=42 velocity=0 time=0.007194249999999999
EXTRACT: control_change channel=7 control=11 value=61 time=0.026378916666666665
EXTRACT: control_change channel=6 control=11 value=61 time=0.0023980833333333332
EXTRACT: control_change channel=7 control=11 value=64 time=0.0047961666666666665
EXTRACT: note_on channel=1 note=32 velocity=0 time=0.0023980833333333332
EXTRACT: control_change channel=6 control=11 value=64 time=0
EXTRACT: note_on channel=3 note=72 velocity=112 time=0.011990416666666667
EXTRACT: note_on channel=3 note=60 velocity=81 time=0
EXTRACT: note_on channel=9 note=70 velocity=108 time=0.0023980833333333332
EXTRACT: note_on channel=9 note=35 velocity=97 time=0.009592333333333333
EXTRACT: control_change channel=7 control=11 value=66 time=0.028776999999999997
EXTRACT: control_change channel=6 control=11 value=66 time=0.0023980833333333332
EXTRACT: note_on channel=9 note=70 velocity=0 time=0.016786583333333334
EXTRACT: note_on channel=9 note=35 velocity=0 time=0.009592333333333333
EXTRACT: note_on channel=3 note=60 velocity=0 time=0.06954441666666666
EXTRACT: note_on channel=3 note=72 velocity=0 time=0
EXTRACT: note_on channel=1 note=32 velocity=121 time=0.09112716666666666
EXTRACT: note_on channel=3 note=72 velocity=109 time=0
EXTRACT: note_on channel=3 note=60 velocity=79 time=0
EXTRACT: control_change channel=7 control=11 value=70 time=0.007194249999999999
EXTRACT: note_on channel=9 note=70 velocity=76 time=0
EXTRACT: control_change channel=6 control=11 value=70 time=0.0023980833333333332
EXTRACT: note_on channel=9 note=46 velocity=61 time=0.014388499999999999
EXTRACT: note_on channel=9 note=70 velocity=0 time=0.04076741666666667
EXTRACT: note_on channel=9 note=46 velocity=0 time=0.016786583333333334
EXTRACT: control_change channel=4 control=11 value=101 time=0.011990416666666667
EXTRACT: control_change channel=7 control=11 value=74 time=0.014388499999999999
EXTRACT: control_change channel=6 control=11 value=74 time=0.0023980833333333332
EXTRACT: note_on channel=9 note=70 velocity=67 time=0.014388499999999999
EXTRACT: note_on channel=9 note=42 velocity=108 time=0.007194249999999999
EXTRACT: control_change channel=7 control=11 value=78 time=0.03836933333333333
EXTRACT: control_change channel=6 control=11 value=78 time=0.0023980833333333332
EXTRACT: note_on channel=9 note=70 velocity=0 time=0.009592333333333333
EXTRACT: note_on channel=9 note=42 velocity=0 time=0.007194249999999999
EXTRACT: note_on channel=3 note=60 velocity=0 time=0.019184666666666666
EXTRACT: note_on channel=3 note=72 velocity=0 time=0
EXTRACT: control_change channel=7 control=11 value=82 time=0
EXTRACT: control_change channel=6 control=11 value=82 time=0.0023980833333333332
EXTRACT: note_on channel=1 note=32 velocity=0 time=0.014388499999999999
EXTRACT: control_change channel=7 control=11 value=87 time=0.007194249999999999
EXTRACT: control_change channel=6 control=11 value=87 time=0.0023980833333333332
EXTRACT: note_on channel=9 note=70 velocity=107 time=0.007194249999999999
EXTRACT: note_on channel=3 note=75 velocity=113 time=0.007194249999999999
EXTRACT: note_on channel=3 note=63 velocity=82 time=0
EXTRACT: note_on channel=9 note=40 velocity=54 time=0
EXTRACT: note_on channel=9 note=37 velocity=91 time=0
EXTRACT: note_on channel=9 note=28 velocity=68 time=0
EXTRACT: note_on channel=9 note=39 velocity=72 time=0
EXTRACT: note_on channel=9 note=35 velocity=97 time=0
EXTRACT: note_on channel=9 note=28 velocity=0 time=0.0023980833333333332
EXTRACT: note_on channel=9 note=37 velocity=0 time=0
EXTRACT: control_change channel=7 control=11 value=93 time=0.028776999999999997
EXTRACT: note_on channel=9 note=39 velocity=55 time=0
EXTRACT: control_change channel=6 control=11 value=93 time=0.0023980833333333332
EXTRACT: note_on channel=9 note=70 velocity=0 time=0.016786583333333334
EXTRACT: note_on channel=9 note=35 velocity=0 time=0.007194249999999999
EXTRACT: note_on channel=9 note=40 velocity=0 time=0
EXTRACT: note_on channel=9 note=39 velocity=0 time=0
EXTRACT: control_change channel=7 control=11 value=98 time=0.0047961666666666665
EXTRACT: control_change channel=6 control=11 value=98 time=0.0023980833333333332
EXTRACT: note_on channel=9 note=39 velocity=0 time=0.023980833333333333
EXTRACT: control_change channel=7 control=11 value=103 time=0.0047961666666666665
EXTRACT: control_change channel=6 control=11 value=103 time=0.0023980833333333332
EXTRACT: control_change channel=7 control=11 value=108 time=0.019184666666666666
EXTRACT: control_change channel=6 control=11 value=108 time=0.0023980833333333332
EXTRACT: control_change channel=7 control=11 value=113 time=0.021582749999999998
EXTRACT: control_change channel=6 control=11 value=113 time=0.0023980833333333332
EXTRACT: control_change channel=7 control=11 value=117 time=0.014388499999999999
EXTRACT: control_change channel=6 control=11 value=117 time=0.0023980833333333332
EXTRACT: note_on channel=7 note=44 velocity=0 time=0.043165499999999996
EXTRACT: note_on channel=6 note=56 velocity=0 time=0.009592333333333333
EXTRACT: note_on channel=1 note=32 velocity=121 time=0.009592333333333333
EXTRACT: note_on channel=9 note=70 velocity=73 time=0.0047961666666666665
EXTRACT: note_on channel=9 note=46 velocity=61 time=0.016786583333333334
EXTRACT: note_on channel=3 note=63 velocity=0 time=0.007194249999999999
EXTRACT: note_on channel=3 note=75 velocity=0 time=0
EXTRACT: control_change channel=4 control=11 value=105 time=0
EXTRACT: note_on channel=9 note=70 velocity=0 time=0.03357316666666667
EXTRACT: note_on channel=9 note=46 velocity=0 time=0.016786583333333334
EXTRACT: note_on channel=9 note=70 velocity=67 time=0.043165499999999996
EXTRACT: note_on channel=9 note=42 velocity=109 time=0.007194249999999999
EXTRACT: note_on channel=9 note=70 velocity=0 time=0.050359749999999995
EXTRACT: note_on channel=9 note=42 velocity=0 time=0.007194249999999999
EXTRACT: note_on channel=1 note=32 velocity=0 time=0.03836933333333333
EXTRACT: note_on channel=7 note=48 velocity=67 time=0.0047961666666666665
EXTRACT: note_on channel=6 note=60 velocity=67 time=0.0023980833333333332
EXTRACT: note_on channel=9 note=70 velocity=108 time=0.007194249999999999
EXTRACT: note_on channel=4 note=60 velocity=0 time=0.0023980833333333332
EXTRACT: note_on channel=4 note=68 velocity=0 time=0
EXTRACT: note_on channel=4 note=63 velocity=0 time=0
EXTRACT: note_on channel=4 note=51 velocity=0 time=0
EXTRACT: note_on channel=4 note=48 velocity=77 time=0.0023980833333333332
EXTRACT: note_on channel=4 note=67 velocity=85 time=0
EXTRACT: note_on channel=4 note=63 velocity=82 time=0
EXTRACT: note_on channel=4 note=60 velocity=81 time=0
EXTRACT: note_on channel=5 note=80 velocity=0 time=0.0023980833333333332
EXTRACT: note_on channel=5 note=79 velocity=120 time=0
EXTRACT: control_change channel=7 control=11 value=117 time=0
EXTRACT: note_on channel=9 note=35 velocity=97 time=0
EXTRACT: control_change channel=6 control=11 value=117 time=0.0023980833333333332
EXTRACT: note_on channel=3 note=79 velocity=112 time=0.007194249999999999
EXTRACT: note_on channel=3 note=67 velocity=81 time=0
EXTRACT: control_change channel=4 control=11 value=105 time=0
EXTRACT: control_change channel=7 control=11 value=110 time=0.0047961666666666665
EXTRACT: control_change channel=6 control=11 value=110 time=0.0023980833333333332
EXTRACT: control_change channel=5 control=11 value=59 time=0.014388499999999999
EXTRACT: control_change channel=7 control=11 value=102 time=0
EXTRACT: control_change channel=6 control=11 value=102 time=0.0023980833333333332
EXTRACT: control_change channel=7 control=11 value=96 time=0.011990416666666667
EXTRACT: control_change channel=6 control=11 value=96 time=0.0023980833333333332
EXTRACT: note_on channel=9 note=70 velocity=0 time=0.0023980833333333332
EXTRACT: note_on channel=9 note=35 velocity=0 time=0.007194249999999999
EXTRACT: control_change channel=7 control=11 value=90 time=0.0047961666666666665
EXTRACT: control_change channel=6 control=11 value=90 time=0.0023980833333333332
EXTRACT: control_change channel=7 control=11 value=83 time=0.011990416666666667
EXTRACT: control_change channel=6 control=11 value=83 time=0.0023980833333333332
EXTRACT: control_change channel=7 control=11 value=78 time=0.014388499999999999
EXTRACT: control_change channel=6 control=11 value=78 time=0.0023980833333333332
EXTRACT: control_change channel=4 control=11 value=113 time=0.007194249999999999
EXTRACT: control_change channel=7 control=11 value=74 time=0.0047961666666666665
EXTRACT: control_change channel=6 control=11 value=74 time=0.0023980833333333332
EXTRACT: control_change channel=7 control=11 value=70 time=0.014388499999999999
EXTRACT: control_change channel=6 control=11 value=70 time=0.0023980833333333332
EXTRACT: control_change channel=7 control=11 value=65 time=0.028776999999999997
EXTRACT: control_change channel=6 control=11 value=65 time=0.0023980833333333332
EXTRACT: control_change channel=5 control=11 value=57 time=0.021582749999999998
EXTRACT: control_change channel=7 control=11 value=60 time=0
EXTRACT: control_change channel=6 control=11 value=60 time=0.0023980833333333332
EXTRACT: note_on channel=1 note=36 velocity=116 time=0.03836933333333333
EXTRACT: note_on channel=9 note=70 velocity=77 time=0.007194249999999999
EXTRACT: note_on channel=9 note=46 velocity=61 time=0.014388499999999999
EXTRACT: control_change channel=7 control=11 value=56 time=0.023980833333333333
EXTRACT: control_change channel=6 control=11 value=56 time=0.0023980833333333332
EXTRACT: note_on channel=9 note=70 velocity=0 time=0.016786583333333334
EXTRACT: note_on channel=9 note=46 velocity=0 time=0.014388499999999999
EXTRACT: note_on channel=9 note=70 velocity=67 time=0.04556358333333333
EXTRACT: note_on channel=9 note=42 velocity=113 time=0.007194249999999999
EXTRACT: control_change channel=4 control=11 value=117 time=0.03836933333333333
EXTRACT: control_change channel=7 control=11 value=56 time=0
EXTRACT: control_change channel=6 control=11 value=56 time=0.0023980833333333332
EXTRACT: note_on channel=3 note=67 velocity=0 time=0.0047961666666666665
EXTRACT: note_on channel=3 note=79 velocity=0 time=0
EXTRACT: note_on channel=9 note=70 velocity=0 time=0.0047961666666666665
EXTRACT: note_on channel=9 note=42 velocity=0 time=0.007194249999999999
EXTRACT: note_on channel=1 note=36 velocity=0 time=0.035971249999999996
EXTRACT: note_on channel=9 note=70 velocity=103 time=0.014388499999999999
EXTRACT: control_change channel=7 control=11 value=60 time=0.007194249999999999
EXTRACT: control_change channel=6 control=11 value=60 time=0.0023980833333333332
EXTRACT: note_on channel=9 note=37 velocity=91 time=0
EXTRACT: note_on channel=9 note=28 velocity=68 time=0
EXTRACT: note_on channel=9 note=39 velocity=67 time=0
EXTRACT: note_on channel=9 note=35 velocity=97 time=0
EXTRACT: note_on channel=9 note=28 velocity=0 time=0.0023980833333333332
EXTRACT: note_on channel=9 note=37 velocity=0 time=0
EXTRACT: note_on channel=9 note=40 velocity=65 time=0
EXTRACT: note_on channel=3 note=82 velocity=111 time=0.0047961666666666665
EXTRACT: note_on channel=3 note=70 velocity=81 time=0
EXTRACT: note_on channel=9 note=39 velocity=50 time=0.023980833333333333
EXTRACT: control_change channel=7 control=11 value=65 time=0.014388499999999999
EXTRACT: control_change channel=6 control=11 value=65 time=0.0023980833333333332
EXTRACT: note_on channel=9 note=70 velocity=0 time=0
EXTRACT: note_on channel=9 note=39 velocity=0 time=0.009592333333333333
EXTRACT: note_on channel=9 note=35 velocity=0 time=0
EXTRACT: note_on channel=9 note=40 velocity=0 time=0.0023980833333333332
EXTRACT: note_on channel=9 note=39 velocity=0 time=0.028776999999999997
EXTRACT: control_change channel=4 control=11 value=109 time=0.019184666666666666
EXTRACT: control_change channel=7 control=11 value=69 time=0.007194249999999999
EXTRACT: control_change channel=6 control=11 value=69 time=0.0023980833333333332
EXTRACT: note_on channel=3 note=70 velocity=0 time=0.047961666666666666
EXTRACT: note_on channel=3 note=82 velocity=0 time=0
EXTRACT: note_on channel=9 note=70 velocity=75 time=0.047961666666666666
EXTRACT: note_on channel=1 note=36 velocity=115 time=0.0047961666666666665
EXTRACT: note_on channel=3 note=79 velocity=111 time=0.023980833333333333
EXTRACT: note_on channel=3 note=67 velocity=81 time=0
EXTRACT: note_on channel=9 note=46 velocity=62 time=0
EXTRACT: control_change channel=7 control=11 value=75 time=0.021582749999999998
EXTRACT: control_change channel=6 control=11 value=75 time=0.0023980833333333332
EXTRACT: note_on channel=9 note=70 velocity=0 time=0.0047961666666666665
EXTRACT: control_change channel=4 control=11 value=101 time=0.016786583333333334
EXTRACT: note_on channel=9 note=46 velocity=0 time=0.011990416666666667
EXTRACT: note_on channel=9 note=70 velocity=67 time=0.043165499999999996
EXTRACT: note_on channel=9 note=42 velocity=111 time=0.007194249999999999
EXTRACT: note_on channel=9 note=70 velocity=0 time=0.050359749999999995
EXTRACT: note_on channel=9 note=42 velocity=0 time=0.007194249999999999
EXTRACT: note_on channel=3 note=67 velocity=0 time=0.009592333333333333
EXTRACT: note_on channel=3 note=79 velocity=0 time=0
EXTRACT: note_on channel=1 note=36 velocity=0 time=0.026378916666666665
EXTRACT: note_on channel=9 note=70 velocity=103 time=0.016786583333333334
EXTRACT: note_on channel=5 note=79 velocity=0 time=0.0047961666666666665
EXTRACT: note_on channel=5 note=82 velocity=117 time=0.0023980833333333332
EXTRACT: note_on channel=9 note=35 velocity=97 time=0
EXTRACT: control_change channel=5 control=11 value=59 time=0.023980833333333333
EXTRACT: note_on channel=9 note=70 velocity=0 time=0.026378916666666665
EXTRACT: note_on channel=9 note=35 velocity=0 time=0.007194249999999999
EXTRACT: control_change channel=7 control=11 value=81 time=0.026378916666666665
EXTRACT: control_change channel=6 control=11 value=81 time=0.0023980833333333332
EXTRACT: control_change channel=7 control=11 value=86 time=0.07673866666666666
EXTRACT: control_change channel=6 control=11 value=86 time=0.0023980833333333332
EXTRACT: control_change channel=5 control=11 value=57 time=0.021582749999999998
EXTRACT: note_on channel=3 note=75 velocity=107 time=0.016786583333333334
EXTRACT: note_on channel=3 note=63 velocity=78 time=0
EXTRACT: control_change channel=7 control=11 value=91 time=0.0047961666666666665
EXTRACT: control_change channel=6 control=11 value=91 time=0.0023980833333333332
EXTRACT: note_on channel=1 note=36 velocity=117 time=0.009592333333333333
EXTRACT: note_on channel=9 note=82 velocity=65 time=0.014388499999999999
EXTRACT: note_on channel=9 note=46 velocity=63 time=0.007194249999999999
EXTRACT: control_change channel=7 control=11 value=96 time=0.014388499999999999
EXTRACT: control_change channel=6 control=11 value=96 time=0.0023980833333333332
EXTRACT: control_change channel=7 control=11 value=100 time=0.028776999999999997
EXTRACT: control_change channel=6 control=11 value=100 time=0.0023980833333333332
EXTRACT: note_on channel=9 note=82 velocity=0 time=0.0023980833333333332
EXTRACT: note_on channel=9 note=46 velocity=0 time=0.007194249999999999
EXTRACT: control_change channel=7 control=11 value=105 time=0.019184666666666666
EXTRACT: control_change channel=6 control=11 value=105 time=0.0023980833333333332
EXTRACT: control_change channel=7 control=11 value=110 time=0.028776999999999997
EXTRACT: control_change channel=6 control=11 value=110 time=0.0023980833333333332
EXTRACT: note_on channel=9 note=82 velocity=57 time=0
EXTRACT: note_on channel=9 note=42 velocity=111 time=0
EXTRACT: control_change channel=7 control=11 value=115 time=0.021582749999999998
EXTRACT: control_change channel=6 control=11 value=115 time=0.0023980833333333332
EXTRACT: note_on channel=9 note=39 velocity=50 time=0.014388499999999999
EXTRACT: control_change channel=4 control=11 value=101 time=0.007194249999999999
EXTRACT: control_change channel=7 control=11 value=119 time=0.007194249999999999
EXTRACT: control_change channel=6 control=11 value=119 time=0.0023980833333333332
EXTRACT: note_on channel=3 note=63 velocity=0 time=0.0023980833333333332
EXTRACT: note_on channel=3 note=75 velocity=0 time=0
EXTRACT: note_on channel=9 note=42 velocity=0 time=0
EXTRACT: note_on channel=9 note=82 velocity=0 time=0
EXTRACT: note_on channel=7 note=48 velocity=0 time=0.023980833333333333
EXTRACT: note_on channel=6 note=60 velocity=0 time=0.009592333333333333
EXTRACT: note_on channel=1 note=36 velocity=0 time=0.0023980833333333332
EXTRACT: note_on channel=9 note=39 velocity=0 time=0.0023980833333333332
EXTRACT: note_on channel=3 note=82 velocity=116 time=0.011990416666666667
EXTRACT: note_on channel=3 note=70 velocity=84 time=0
EXTRACT: note_on channel=9 note=40 velocity=56 time=0.007194249999999999
EXTRACT: note_on channel=9 note=37 velocity=91 time=0
EXTRACT: note_on channel=9 note=28 velocity=68 time=0
EXTRACT: note_on channel=9 note=39 velocity=73 time=0
EXTRACT: note_on channel=9 note=82 velocity=71 time=0
EXTRACT: note_on channel=9 note=35 velocity=97 time=0
EXTRACT: note_on channel=9 note=28 velocity=0 time=0.0023980833333333332
EXTRACT: note_on channel=9 note=37 velocity=0 time=0
EXTRACT: note_on channel=9 note=39 velocity=55 time=0.028776999999999997
EXTRACT: note_on channel=9 note=39 velocity=0 time=0.026378916666666665
EXTRACT: note_on channel=9 note=82 velocity=0 time=0
EXTRACT: note_on channel=9 note=40 velocity=0 time=0
EXTRACT: note_on channel=9 note=35 velocity=0 time=0
EXTRACT: note_on channel=9 note=39 velocity=0 time=0.031175083333333332
EXTRACT: control_change channel=5 control=11 value=59 time=0.014388499999999999
EXTRACT: note_on channel=3 note=70 velocity=0 time=0.08872908333333333
EXTRACT: note_on channel=3 note=82 velocity=0 time=0
EXTRACT: control_change channel=4 control=11 value=105 time=0.019184666666666666
EXTRACT: note_on channel=7 note=48 velocity=71 time=0.007194249999999999
EXTRACT: note_on channel=1 note=36 velocity=112 time=0.0023980833333333332
EXTRACT: note_on channel=6 note=60 velocity=70 time=0
EXTRACT: note_on channel=9 note=82 velocity=53 time=0.014388499999999999
EXTRACT: note_on channel=3 note=80 velocity=111 time=0.0047961666666666665
EXTRACT: note_on channel=3 note=68 velocity=81 time=0
EXTRACT: note_on channel=9 note=46 velocity=62 time=0.0023980833333333332
EXTRACT: control_change channel=5 control=11 value=57 time=0.023980833333333333
EXTRACT: note_on channel=9 note=82 velocity=0 time=0.026378916666666665
EXTRACT: note_on channel=9 note=46 velocity=0 time=0.007194249999999999
EXTRACT: control_change channel=7 control=11 value=114 time=0.0047961666666666665
EXTRACT: control_change channel=6 control=11 value=114 time=0.0023980833333333332
EXTRACT: control_change channel=7 control=11 value=108 time=0.028776999999999997
EXTRACT: control_change channel=6 control=11 value=108 time=0.0023980833333333332
EXTRACT: note_on channel=3 note=68 velocity=0 time=0.0047961666666666665
EXTRACT: note_on channel=3 note=80 velocity=0 time=0
EXTRACT: note_on channel=9 note=82 velocity=50 time=0.009592333333333333
EXTRACT: note_on channel=9 note=42 velocity=113 time=0
EXTRACT: control_change channel=7 control=11 value=104 time=0.014388499999999999
EXTRACT: control_change channel=6 control=11 value=104 time=0.0023980833333333332
EXTRACT: note_on channel=9 note=42 velocity=0 time=0.04076741666666667
EXTRACT: note_on channel=9 note=82 velocity=0 time=0
EXTRACT: control_change channel=7 control=11 value=100 time=0.0023980833333333332
EXTRACT: control_change channel=6 control=11 value=100 time=0.0023980833333333332
EXTRACT: note_on channel=7 note=48 velocity=0 time=0.028776999999999997
EXTRACT: note_on channel=1 note=36 velocity=0 time=0.0023980833333333332
EXTRACT: note_on channel=6 note=60 velocity=0 time=0
EXTRACT: note_on channel=7 note=49 velocity=72 time=0.007194249999999999
EXTRACT: note_on channel=6 note=61 velocity=72 time=0.0023980833333333332
EXTRACT: note_on channel=4 note=49 velocity=75 time=0.0047961666666666665
EXTRACT: note_on channel=4 note=68 velocity=85 time=0
EXTRACT: note_on channel=4 note=65 velocity=84 time=0
EXTRACT: note_on channel=4 note=61 velocity=81 time=0
EXTRACT: note_on channel=9 note=70 velocity=103 time=0
EXTRACT: note_on channel=4 note=60 velocity=0 time=0.0047961666666666665
EXTRACT: note_on channel=4 note=63 velocity=0 time=0
EXTRACT: note_on channel=4 note=48 velocity=0 time=0
EXTRACT: note_on channel=4 note=67 velocity=0 time=0
EXTRACT: note_on channel=5 note=80 velocity=116 time=0
EXTRACT: note_on channel=5 note=82 velocity=0 time=0.0023980833333333332
EXTRACT: note_on channel=9 note=35 velocity=97 time=0.0023980833333333332
EXTRACT: control_change channel=4 control=11 value=107 time=0.014388499999999999
EXTRACT: control_change channel=7 control=11 value=117 time=0.021582749999999998
EXTRACT: control_change channel=6 control=11 value=117 time=0.0023980833333333332
EXTRACT: note_on channel=9 note=70 velocity=0 time=0.009592333333333333
EXTRACT: control_change channel=5 control=11 value=59 time=0.0023980833333333332
EXTRACT: note_on channel=9 note=35 velocity=0 time=0.007194249999999999
EXTRACT: control_change channel=7 control=11 value=112 time=0.0023980833333333332
EXTRACT: control_change channel=6 control=11 value=112 time=0.0023980833333333332
EXTRACT: control_change channel=7 control=11 value=106 time=0.021582749999999998
EXTRACT: control_change channel=6 control=11 value=106 time=0.0023980833333333332
EXTRACT: control_change channel=4 control=11 value=115 time=0.021582749999999998
EXTRACT: control_change channel=7 control=11 value=97 time=0.007194249999999999
EXTRACT: control_change channel=6 control=11 value=97 time=0.0023980833333333332
EXTRACT: control_change channel=7 control=11 value=92 time=0.021582749999999998
EXTRACT: control_change channel=6 control=11 value=92 time=0.0023980833333333332
EXTRACT: control_change channel=5 control=11 value=61 time=0.026378916666666665
EXTRACT: control_change channel=7 control=11 value=88 time=0.0023980833333333332
EXTRACT: control_change channel=6 control=11 value=88 time=0.0023980833333333332
EXTRACT: note_on channel=7 note=49 velocity=0 time=0.035971249999999996
EXTRACT: control_change channel=7 control=11 value=120 time=0
EXTRACT: note_on channel=6 note=61 velocity=0 time=0.0023980833333333332
EXTRACT: control_change channel=6 control=11 value=120 time=0
EXTRACT: note_on channel=7 note=49 velocity=68 time=0.0047961666666666665
EXTRACT: note_on channel=1 note=25 velocity=123 time=0.0023980833333333332
EXTRACT: note_on channel=6 note=61 velocity=62 time=0
EXTRACT: note_on channel=9 note=70 velocity=77 time=0.007194249999999999
EXTRACT: note_on channel=3 note=80 velocity=111 time=0.0047961666666666665
EXTRACT: note_on channel=3 note=68 velocity=81 time=0
EXTRACT: control_change channel=7 control=11 value=115 time=0.009592333333333333
EXTRACT: control_change channel=6 control=11 value=115 time=0.0023980833333333332
EXTRACT: note_on channel=9 note=46 velocity=61 time=0
EXTRACT: control_change channel=7 control=11 value=106 time=0.014388499999999999
EXTRACT: control_change channel=6 control=11 value=106 time=0.0023980833333333332
EXTRACT: control_change channel=7 control=11 value=99 time=0.011990416666666667
EXTRACT: control_change channel=6 control=11 value=99 time=0.0023980833333333332
EXTRACT: note_on channel=9 note=70 velocity=0 time=0.009592333333333333
EXTRACT: control_change channel=7 control=11 value=93 time=0.0047961666666666665
EXTRACT: control_change channel=6 control=11 value=93 time=0.0023980833333333332
EXTRACT: note_on channel=3 note=68 velocity=0 time=0.009592333333333333
EXTRACT: note_on channel=3 note=80 velocity=0 time=0
EXTRACT: note_on channel=9 note=46 velocity=0 time=0
EXTRACT: control_change channel=7 control=11 value=86 time=0.0023980833333333332
EXTRACT: control_change channel=6 control=11 value=86 time=0.0023980833333333332
EXTRACT: control_change channel=7 control=11 value=80 time=0.014388499999999999
EXTRACT: control_change channel=6 control=11 value=80 time=0.0023980833333333332
EXTRACT: control_change channel=7 control=11 value=76 time=0.011990416666666667
EXTRACT: control_change channel=6 control=11 value=76 time=0.0023980833333333332
EXTRACT: note_on channel=9 note=70 velocity=67 time=0.007194249999999999
EXTRACT: note_on channel=9 note=42 velocity=109 time=0.007194249999999999
EXTRACT: control_change channel=7 control=11 value=70 time=0.007194249999999999
EXTRACT: control_change channel=6 control=11 value=70 time=0.0023980833333333332
EXTRACT: control_change channel=4 control=11 value=119 time=0.028776999999999997
EXTRACT: control_change channel=7 control=11 value=65 time=0
EXTRACT: control_change channel=6 control=11 value=65 time=0.0023980833333333332
EXTRACT: note_on channel=9 note=70 velocity=0 time=0.009592333333333333
EXTRACT: note_on channel=9 note=42 velocity=0 time=0.007194249999999999
EXTRACT: control_change channel=7 control=11 value=60 time=0.0047961666666666665
EXTRACT: control_change channel=6 control=11 value=60 time=0.0023980833333333332
EXTRACT: note_on channel=1 note=25 velocity=0 time=0.028776999999999997
EXTRACT: note_on channel=3 note=80 velocity=110 time=0
EXTRACT: note_on channel=3 note=68 velocity=80 time=0
EXTRACT: note_on channel=9 note=70 velocity=108 time=0.016786583333333334
EXTRACT: note_on channel=9 note=37 velocity=91 time=0.007194249999999999
EXTRACT: note_on channel=9 note=28 velocity=68 time=0
EXTRACT: note_on channel=9 note=39 velocity=67 time=0
EXTRACT: note_on channel=9 note=35 velocity=97 time=0
EXTRACT: note_on channel=9 note=28 velocity=0 time=0.0023980833333333332
EXTRACT: note_on channel=9 note=37 velocity=0 time=0
EXTRACT: note_on channel=9 note=40 velocity=64 time=0.0023980833333333332
EXTRACT: control_change channel=7 control=11 value=56 time=0.026378916666666665
EXTRACT: note_on channel=9 note=39 velocity=50 time=0
EXTRACT: control_change channel=6 control=11 value=56 time=0.0023980833333333332
EXTRACT: control_change channel=5 control=11 value=59 time=0.016786583333333334
EXTRACT: note_on channel=9 note=70 velocity=0 time=0
EXTRACT: note_on channel=9 note=39 velocity=0 time=0.007194249999999999
EXTRACT: note_on channel=9 note=35 velocity=0 time=0
EXTRACT: note_on channel=9 note=40 velocity=0 time=0.0047961666666666665
EXTRACT: note_on channel=9 note=39 velocity=0 time=0.026378916666666665
EXTRACT: control_change channel=4 control=11 value=111 time=0.0047961666666666665
EXTRACT: note_on channel=3 note=68 velocity=0 time=0.03836933333333333
EXTRACT: note_on channel=3 note=80 velocity=0 time=0
EXTRACT: control_change channel=7 control=11 value=56 time=0.023980833333333333
EXTRACT: control_change channel=6 control=11 value=56 time=0.0023980833333333332
EXTRACT: note_on channel=3 note=80 velocity=106 time=0.05275783333333333
EXTRACT: note_on channel=3 note=68 velocity=77 time=0
EXTRACT: note_on channel=9 note=70 velocity=75 time=0.0047961666666666665
EXTRACT: note_on channel=1 note=25 velocity=122 time=0.0047961666666666665
EXTRACT: control_change channel=5 control=11 value=57 time=0.0023980833333333332
EXTRACT: control_change channel=7 control=11 value=61 time=0.016786583333333334
EXTRACT: control_change channel=6 control=11 value=61 time=0.0023980833333333332
EXTRACT: note_on channel=9 note=46 velocity=59 time=0
EXTRACT: control_change channel=4 control=11 value=103 time=0.031175083333333332
EXTRACT: note_on channel=9 note=70 velocity=0 time=0
EXTRACT: control_change channel=7 control=11 value=65 time=0.014388499999999999
EXTRACT: control_change channel=6 control=11 value=65 time=0.0023980833333333332
EXTRACT: note_on channel=9 note=46 velocity=0 time=0.009592333333333333
EXTRACT: note_on channel=9 note=70 velocity=67 time=0.043165499999999996
EXTRACT: note_on channel=3 note=68 velocity=0 time=0.0023980833333333332
EXTRACT: note_on channel=3 note=80 velocity=0 time=0
EXTRACT: control_change channel=7 control=11 value=69 time=0.0047961666666666665
EXTRACT: control_change channel=6 control=11 value=69 time=0.0023980833333333332
EXTRACT: note_on channel=9 note=42 velocity=108 time=0
EXTRACT: note_on channel=9 note=70 velocity=0 time=0.047961666666666666
EXTRACT: note_on channel=9 note=42 velocity=0 time=0.009592333333333333
EXTRACT: note_on channel=1 note=25 velocity=0 time=0.035971249999999996
EXTRACT: note_on channel=9 note=70 velocity=108 time=0.014388499999999999
EXTRACT: note_on channel=3 note=80 velocity=108 time=0.0047961666666666665
EXTRACT: note_on channel=3 note=68 velocity=78 time=0
EXTRACT: note_on channel=9 note=35 velocity=97 time=0.0023980833333333332
EXTRACT: control_change channel=7 control=11 value=75 time=0.031175083333333332
EXTRACT: control_change channel=6 control=11 value=75 time=0.0023980833333333332
EXTRACT: note_on channel=9 note=70 velocity=0 time=0.016786583333333334
EXTRACT: note_on channel=9 note=35 velocity=0 time=0.007194249999999999
EXTRACT: note_on channel=3 note=68 velocity=0 time=0.10551566666666666
EXTRACT: note_on channel=3 note=80 velocity=0 time=0
EXTRACT: note_on channel=1 note=25 velocity=118 time=0.057553999999999994
EXTRACT: note_on channel=9 note=70 velocity=76 time=0.007194249999999999
EXTRACT: note_on channel=3 note=80 velocity=106 time=0.011990416666666667
EXTRACT: note_on channel=3 note=68 velocity=77 time=0
EXTRACT: note_on channel=9 note=46 velocity=61 time=0.0023980833333333332
EXTRACT: note_on channel=9 note=70 velocity=0 time=0.043165499999999996
EXTRACT: control_change channel=7 control=11 value=79 time=0.0023980833333333332
EXTRACT: control_change channel=6 control=11 value=79 time=0.0023980833333333332
EXTRACT: note_on channel=9 note=46 velocity=0 time=0.009592333333333333
EXTRACT: note_on channel=9 note=70 velocity=67 time=0.04556358333333333
EXTRACT: note_on channel=9 note=42 velocity=108 time=0.007194249999999999
EXTRACT: note_on channel=3 note=68 velocity=0 time=0.021582749999999998
EXTRACT: note_on channel=3 note=80 velocity=0 time=0
EXTRACT: control_change channel=7 control=11 value=84 time=0.016786583333333334
EXTRACT: control_change channel=6 control=11 value=84 time=0.0023980833333333332
EXTRACT: note_on channel=9 note=70 velocity=0 time=0.009592333333333333
EXTRACT: note_on channel=9 note=42 velocity=0 time=0.007194249999999999
EXTRACT: control_change channel=4 control=11 value=103 time=0.011990416666666667
EXTRACT: control_change channel=7 control=11 value=88 time=0.007194249999999999
EXTRACT: control_change channel=6 control=11 value=88 time=0.0023980833333333332
EXTRACT: note_on channel=1 note=25 velocity=0 time=0.014388499999999999
EXTRACT: control_change channel=7 control=11 value=92 time=0.014388499999999999
EXTRACT: note_on channel=9 note=70 velocity=107 time=0
EXTRACT: control_change channel=6 control=11 value=92 time=0.0023980833333333332
EXTRACT: note_on channel=3 note=80 velocity=111 time=0.007194249999999999
EXTRACT: note_on channel=3 note=68 velocity=81 time=0
EXTRACT: note_on channel=9 note=40 velocity=54 time=0
EXTRACT: note_on channel=9 note=37 velocity=91 time=0
EXTRACT: note_on channel=9 note=28 velocity=68 time=0
EXTRACT: note_on channel=9 note=39 velocity=72 time=0
EXTRACT: note_on channel=9 note=35 velocity=97 time=0
EXTRACT: note_on channel=9 note=28 velocity=0 time=0.0023980833333333332
EXTRACT: note_on channel=9 note=37 velocity=0 time=0
EXTRACT: control_change channel=7 control=11 value=97 time=0.026378916666666665
EXTRACT: control_change channel=6 control=11 value=97 time=0.0023980833333333332
EXTRACT: note_on channel=9 note=39 velocity=55 time=0
EXTRACT: note_on channel=9 note=70 velocity=0 time=0.016786583333333334
EXTRACT: note_on channel=9 note=35 velocity=0 time=0.009592333333333333
EXTRACT: note_on channel=9 note=40 velocity=0 time=0
EXTRACT: note_on channel=9 note=39 velocity=0 time=0
EXTRACT: control_change channel=7 control=11 value=101 time=0.0023980833333333332
EXTRACT: control_change channel=6 control=11 value=101 time=0.0023980833333333332
EXTRACT: control_change channel=7 control=11 value=105 time=0.021582749999999998
EXTRACT: control_change channel=6 control=11 value=105 time=0.0023980833333333332
EXTRACT: note_on channel=9 note=39 velocity=0 time=0.0023980833333333332
EXTRACT: control_change channel=7 control=11 value=110 time=0.03357316666666667
EXTRACT: control_change channel=6 control=11 value=110 time=0.0023980833333333332
EXTRACT: control_change channel=7 control=11 value=114 time=0.014388499999999999
EXTRACT: control_change channel=6 control=11 value=114 time=0.0023980833333333332
EXTRACT: note_on channel=3 note=68 velocity=0 time=0.0023980833333333332
EXTRACT: note_on channel=3 note=80 velocity=0 time=0
EXTRACT: control_change channel=7 control=11 value=120 time=0.03357316666666667
EXTRACT: control_change channel=6 control=11 value=120 time=0.0023980833333333332
EXTRACT: note_on channel=7 note=49 velocity=0 time=0.023980833333333333
EXTRACT: note_on channel=6 note=61 velocity=0 time=0.009592333333333333
EXTRACT: note_on channel=1 note=25 velocity=120 time=0.0047961666666666665
EXTRACT: note_on channel=9 note=70 velocity=73 time=0.007194249999999999
EXTRACT: note_on channel=3 note=80 velocity=110 time=0.011990416666666667
EXTRACT: note_on channel=3 note=68 velocity=80 time=0
EXTRACT: note_on channel=9 note=46 velocity=61 time=0.0047961666666666665
EXTRACT: note_on channel=9 note=70 velocity=0 time=0.04076741666666667
EXTRACT: note_on channel=9 note=46 velocity=0 time=0.016786583333333334
EXTRACT: control_change channel=4 control=11 value=103 time=0.011990416666666667
EXTRACT: note_on channel=3 note=68 velocity=0 time=0.014388499999999999
EXTRACT: note_on channel=3 note=80 velocity=0 time=0
EXTRACT: note_on channel=9 note=70 velocity=67 time=0.016786583333333334
EXTRACT: note_on channel=9 note=42 velocity=109 time=0.007194249999999999
EXTRACT: note_on channel=9 note=70 velocity=0 time=0.050359749999999995
EXTRACT: note_on channel=9 note=42 velocity=0 time=0.007194249999999999
EXTRACT: note_on channel=1 note=25 velocity=0 time=0.035971249999999996
EXTRACT: note_on channel=7 note=51 velocity=70 time=0.007194249999999999
EXTRACT: note_on channel=6 note=63 velocity=68 time=0.0023980833333333332
EXTRACT: note_on channel=4 note=49 velocity=0 time=0.0047961666666666665
EXTRACT: note_on channel=4 note=61 velocity=0 time=0
EXTRACT: note_on channel=4 note=68 velocity=0 time=0
EXTRACT: note_on channel=4 note=65 velocity=0 time=0
EXTRACT: note_on channel=9 note=70 velocity=108 time=0.0023980833333333332
EXTRACT: note_on channel=4 note=55 velocity=80 time=0.0023980833333333332
EXTRACT: note_on channel=4 note=70 velocity=85 time=0
EXTRACT: note_on channel=4 note=67 velocity=85 time=0
EXTRACT: note_on channel=4 note=63 velocity=82 time=0
EXTRACT: note_on channel=5 note=79 velocity=117 time=0
EXTRACT: note_on channel=5 note=63 velocity=106 time=0
EXTRACT: note_on channel=11 note=51 velocity=127 time=0
EXTRACT: note_on channel=5 note=80 velocity=0 time=0.0023980833333333332
EXTRACT: note_on channel=9 note=35 velocity=97 time=0.0023980833333333332
EXTRACT: control_change channel=7 control=11 value=116 time=0.007194249999999999
EXTRACT: control_change channel=6 control=11 value=116 time=0.0023980833333333332
EXTRACT: note_on channel=3 note=87 velocity=116 time=0.0023980833333333332
EXTRACT: note_on channel=3 note=75 velocity=84 time=0
EXTRACT: control_change channel=7 control=11 value=107 time=0.009592333333333333
EXTRACT: control_change channel=5 control=11 value=59 time=0.0023980833333333332
EXTRACT: control_change channel=6 control=11 value=107 time=0
EXTRACT: note_on channel=11 note=51 velocity=0 time=0.0023980833333333332
EXTRACT: control_change channel=4 control=11 value=108 time=0.0047961666666666665
EXTRACT: control_change channel=7 control=11 value=98 time=0.007194249999999999
EXTRACT: control_change channel=6 control=11 value=98 time=0.0023980833333333332
EXTRACT: note_on channel=9 note=70 velocity=0 time=0.009592333333333333
EXTRACT: control_change channel=7 control=11 value=92 time=0.0023980833333333332
EXTRACT: control_change channel=6 control=11 value=92 time=0.0023980833333333332
EXTRACT: note_on channel=9 note=35 velocity=0 time=0.0023980833333333332
EXTRACT: control_change channel=5 control=11 value=61 time=0.0047961666666666665
EXTRACT: control_change channel=7 control=11 value=86 time=0.007194249999999999
EXTRACT: control_change channel=6 control=11 value=86 time=0.0023980833333333332
EXTRACT: control_change channel=7 control=11 value=79 time=0.011990416666666667
EXTRACT: control_change channel=6 control=11 value=79 time=0.0023980833333333332
EXTRACT: control_change channel=7 control=11 value=73 time=0.014388499999999999
EXTRACT: control_change channel=6 control=11 value=73 time=0.0023980833333333332
EXTRACT: control_change channel=7 control=11 value=68 time=0.011990416666666667
EXTRACT: control_change channel=6 control=11 value=68 time=0.0023980833333333332
EXTRACT: control_change channel=5 control=11 value=59 time=0.007194249999999999
EXTRACT: control_change channel=4 control=11 value=116 time=0.007194249999999999
EXTRACT: control_change channel=7 control=11 value=62 time=0.007194249999999999
EXTRACT: control_change channel=6 control=11 value=62 time=0.0023980833333333332
EXTRACT: control_change channel=7 control=11 value=58 time=0.021582749999999998
EXTRACT: control_change channel=6 control=11 value=58 time=0.0023980833333333332
EXTRACT: pitchwheel channel=3 pitch=0 time=0.007194249999999999
EXTRACT: pitchwheel channel=3 pitch=-128 time=0.011990416666666667
EXTRACT: control_change channel=5 control=11 value=57 time=0.0023980833333333332
EXTRACT: pitchwheel channel=3 pitch=-256 time=0.007194249999999999
EXTRACT: control_change channel=7 control=11 value=52 time=0
EXTRACT: control_change channel=6 control=11 value=52 time=0.0023980833333333332
EXTRACT: pitchwheel channel=3 pitch=-384 time=0.014388499999999999
EXTRACT: control_change channel=7 control=11 value=47 time=0.007194249999999999
EXTRACT: note_on channel=1 note=27 velocity=126 time=0.0023980833333333332
EXTRACT: control_change channel=6 control=11 value=47 time=0
EXTRACT: pitchwheel channel=3 pitch=-768 time=0.0023980833333333332
EXTRACT: note_on channel=9 note=70 velocity=77 time=0.0023980833333333332
EXTRACT: pitchwheel channel=3 pitch=-1152 time=0.009592333333333333
EXTRACT: note_on channel=9 note=46 velocity=61 time=0.007194249999999999
EXTRACT: pitchwheel channel=3 pitch=-1408 time=0.0047961666666666665
EXTRACT: pitchwheel channel=3 pitch=-1920 time=0.009592333333333333
EXTRACT: pitchwheel channel=3 pitch=-2432 time=0.011990416666666667
EXTRACT: pitchwheel channel=3 pitch=-3712 time=0.011990416666666667
EXTRACT: note_on channel=9 note=70 velocity=0 time=0.0023980833333333332
EXTRACT: pitchwheel channel=3 pitch=-4096 time=0.014388499999999999
EXTRACT: note_on channel=9 note=46 velocity=0 time=0.0023980833333333332
EXTRACT: note_on channel=9 note=70 velocity=67 time=0.043165499999999996
EXTRACT: note_on channel=9 note=42 velocity=113 time=0.009592333333333333
EXTRACT: control_change channel=7 control=11 value=42 time=0.0047961666666666665
EXTRACT: control_change channel=6 control=11 value=42 time=0.0023980833333333332
EXTRACT: note_on channel=3 note=75 velocity=0 time=0.026378916666666665
EXTRACT: note_on channel=3 note=87 velocity=0 time=0
EXTRACT: note_on channel=9 note=70 velocity=0 time=0.014388499999999999
EXTRACT: note_on channel=9 note=42 velocity=0 time=0.009592333333333333
EXTRACT: note_on channel=1 note=27 velocity=0 time=0.035971249999999996
EXTRACT: control_change channel=4 control=11 value=116 time=0
EXTRACT: pitchwheel channel=3 pitch=0 time=0.011990416666666667
EXTRACT: note_on channel=9 note=70 velocity=103 time=0.0023980833333333332
EXTRACT: note_on channel=5 note=63 velocity=0 time=0.0023980833333333332
EXTRACT: note_on channel=5 note=79 velocity=0 time=0
EXTRACT: note_on channel=11 note=46 velocity=127 time=0
EXTRACT: note_on channel=5 note=65 velocity=107 time=0.0023980833333333332
EXTRACT: note_on channel=5 note=80 velocity=117 time=0
EXTRACT: note_on channel=3 note=80 velocity=107 time=0.0023980833333333332
EXTRACT: note_on channel=3 note=68 velocity=78 time=0
EXTRACT: note_on channel=9 note=37 velocity=91 time=0
EXTRACT: note_on channel=9 note=28 velocity=68 time=0
EXTRACT: note_on channel=9 note=39 velocity=67 time=0
EXTRACT: note_on channel=9 note=35 velocity=97 time=0
EXTRACT: note_on channel=9 note=28 velocity=0 time=0.0023980833333333332
EXTRACT: note_on channel=9 note=37 velocity=0 time=0
EXTRACT: note_on channel=9 note=40 velocity=65 time=0.0023980833333333332
EXTRACT: control_change channel=5 control=11 value=59 time=0.019184666666666666
EXTRACT: note_on channel=11 note=46 velocity=0 time=0.0023980833333333332
EXTRACT: note_on channel=9 note=39 velocity=50 time=0.0047961666666666665
EXTRACT: note_on channel=9 note=70 velocity=0 time=0.019184666666666666
EXTRACT: note_on channel=9 note=39 velocity=0 time=0.007194249999999999
EXTRACT: note_on channel=9 note=35 velocity=0 time=0
EXTRACT: control_change channel=5 control=11 value=61 time=0.0047961666666666665
EXTRACT: note_on channel=9 note=40 velocity=0 time=0
EXTRACT: note_on channel=3 note=68 velocity=0 time=0.007194249999999999
EXTRACT: note_on channel=3 note=80 velocity=0 time=0
EXTRACT: control_change channel=7 control=11 value=46 time=0
EXTRACT: control_change channel=6 control=11 value=46 time=0.0023980833333333332
EXTRACT: note_on channel=9 note=39 velocity=0 time=0.016786583333333334
EXTRACT: control_change channel=7 control=11 value=50 time=0.0047961666666666665
EXTRACT: control_change channel=6 control=11 value=50 time=0.0023980833333333332
EXTRACT: control_change channel=5 control=11 value=59 time=0.028776999999999997
EXTRACT: control_change channel=4 control=11 value=108 time=0.016786583333333334
EXTRACT: control_change channel=7 control=11 value=54 time=0
EXTRACT: control_change channel=6 control=11 value=54 time=0.0023980833333333332
EXTRACT: control_change channel=5 control=11 value=57 time=0.05275783333333333
EXTRACT: control_change channel=7 control=11 value=58 time=0.014388499999999999
EXTRACT: control_change channel=6 control=11 value=58 time=0.0023980833333333332
EXTRACT: note_on channel=9 note=70 velocity=75 time=0.0023980833333333332
EXTRACT: note_on channel=1 note=27 velocity=117 time=0.0047961666666666665
EXTRACT: note_on channel=9 note=46 velocity=62 time=0.021582749999999998
EXTRACT: note_on channel=3 note=80 velocity=108 time=0.028776999999999997
EXTRACT: note_on channel=3 note=68 velocity=78 time=0
EXTRACT: note_on channel=9 note=70 velocity=0 time=0.0023980833333333332
EXTRACT: note_on channel=9 note=46 velocity=0 time=0.026378916666666665
EXTRACT: control_change channel=7 control=11 value=64 time=0.028776999999999997
EXTRACT: control_change channel=6 control=11 value=64 time=0.0023980833333333332
EXTRACT: note_on channel=9 note=70 velocity=67 time=0.014388499999999999
EXTRACT: note_on channel=9 note=42 velocity=111 time=0.007194249999999999
EXTRACT: note_on channel=9 note=70 velocity=0 time=0.050359749999999995
EXTRACT: control_change channel=4 control=11 value=100 time=0.0047961666666666665
EXTRACT: note_on channel=9 note=42 velocity=0 time=0.0023980833333333332
EXTRACT: note_on channel=1 note=27 velocity=0 time=0.035971249999999996
EXTRACT: note_on channel=9 note=70 velocity=103 time=0.014388499999999999
EXTRACT: note_on channel=5 note=80 velocity=0 time=0.0047961666666666665
EXTRACT: note_on channel=5 note=65 velocity=0 time=0
EXTRACT: note_on channel=5 note=67 velocity=107 time=0
EXTRACT: note_on channel=5 note=82 velocity=114 time=0
EXTRACT: note_on channel=11 note=51 velocity=127 time=0
EXTRACT: note_on channel=9 note=35 velocity=97 time=0.0047961666666666665
EXTRACT: note_on channel=11 note=51 velocity=0 time=0.026378916666666665
EXTRACT: control_change channel=5 control=11 value=59 time=0.011990416666666667
EXTRACT: note_on channel=9 note=70 velocity=0 time=0.009592333333333333
EXTRACT: note_on channel=9 note=35 velocity=0 time=0.009592333333333333
EXTRACT: control_change channel=7 control=11 value=69 time=0.08872908333333333
EXTRACT: control_change channel=6 control=11 value=69 time=0.0023980833333333332
EXTRACT: control_change channel=5 control=11 value=57 time=0.021582749999999998
EXTRACT: note_on channel=1 note=27 velocity=121 time=0.050359749999999995
EXTRACT: note_on channel=9 note=82 velocity=65 time=0.011990416666666667
EXTRACT: note_on channel=9 note=46 velocity=63 time=0.009592333333333333
EXTRACT: control_change channel=7 control=11 value=74 time=0.021582749999999998
EXTRACT: control_change channel=6 control=11 value=74 time=0.0023980833333333332
EXTRACT: note_on channel=9 note=82 velocity=0 time=0.023980833333333333
EXTRACT: note_on channel=9 note=46 velocity=0 time=0.009592333333333333
EXTRACT: control_change channel=7 control=11 value=78 time=0.050359749999999995
EXTRACT: note_on channel=9 note=82 velocity=57 time=0
EXTRACT: note_on channel=9 note=42 velocity=111 time=0
EXTRACT: control_change channel=6 control=11 value=78 time=0.0023980833333333332
EXTRACT: control_change channel=7 control=11 value=82 time=0.035971249999999996
EXTRACT: control_change channel=6 control=11 value=82 time=0.0023980833333333332
EXTRACT: note_on channel=9 note=39 velocity=50 time=0
EXTRACT: note_on channel=3 note=68 velocity=0 time=0.016786583333333334
EXTRACT: note_on channel=3 note=80 velocity=0 time=0
EXTRACT: note_on channel=9 note=42 velocity=0 time=0
EXTRACT: note_on channel=9 note=82 velocity=0 time=0
EXTRACT: control_change channel=7 control=11 value=87 time=0.011990416666666667
EXTRACT: control_change channel=6 control=11 value=87 time=0.0023980833333333332
EXTRACT: control_change channel=4 control=11 value=104 time=0.021582749999999998
EXTRACT: note_on channel=1 note=27 velocity=0 time=0.0023980833333333332
EXTRACT: note_on channel=9 note=39 velocity=0 time=0.0023980833333333332
EXTRACT: control_change channel=7 control=11 value=91 time=0.009592333333333333
EXTRACT: control_change channel=6 control=11 value=91 time=0.0023980833333333332
EXTRACT: note_on channel=3 note=80 velocity=111 time=0.0023980833333333332
EXTRACT: note_on channel=3 note=68 velocity=81 time=0
EXTRACT: note_on channel=5 note=82 velocity=0 time=0
EXTRACT: note_on channel=5 note=67 velocity=0 time=0
EXTRACT: note_on channel=5 note=68 velocity=107 time=0
EXTRACT: note_on channel=5 note=84 velocity=114 time=0
EXTRACT: note_on channel=11 note=46 velocity=127 time=0
EXTRACT: note_on channel=9 note=40 velocity=56 time=0.0047961666666666665
EXTRACT: note_on channel=9 note=37 velocity=91 time=0
EXTRACT: note_on channel=9 note=28 velocity=68 time=0
EXTRACT: note_on channel=9 note=39 velocity=73 time=0
EXTRACT: note_on channel=9 note=82 velocity=71 time=0
EXTRACT: note_on channel=9 note=35 velocity=97 time=0
EXTRACT: note_on channel=9 note=28 velocity=0 time=0.0023980833333333332
EXTRACT: note_on channel=9 note=37 velocity=0 time=0
EXTRACT: control_change channel=7 control=11 value=95 time=0.011990416666666667
EXTRACT: control_change channel=6 control=11 value=95 time=0.0023980833333333332
EXTRACT: note_on channel=11 note=46 velocity=0 time=0.009592333333333333
EXTRACT: note_on channel=9 note=39 velocity=55 time=0.0047961666666666665
EXTRACT: control_change channel=5 control=11 value=59 time=0.007194249999999999
EXTRACT: control_change channel=7 control=11 value=100 time=0.014388499999999999
EXTRACT: control_change channel=6 control=11 value=100 time=0.0023980833333333332
EXTRACT: note_on channel=9 note=39 velocity=0 time=0.0023980833333333332
EXTRACT: note_on channel=9 note=82 velocity=0 time=0
EXTRACT: note_on channel=9 note=40 velocity=0 time=0
EXTRACT: note_on channel=9 note=35 velocity=0 time=0
EXTRACT: control_change channel=7 control=11 value=105 time=0.026378916666666665
EXTRACT: control_change channel=6 control=11 value=105 time=0.0023980833333333332
EXTRACT: note_on channel=9 note=39 velocity=0 time=0.0023980833333333332
EXTRACT: control_change channel=7 control=11 value=109 time=0.019184666666666666
EXTRACT: control_change channel=6 control=11 value=109 time=0.0023980833333333332
EXTRACT: control_change channel=7 control=11 value=114 time=0.021582749999999998
EXTRACT: control_change channel=6 control=11 value=114 time=0.0023980833333333332
EXTRACT: control_change channel=7 control=11 value=119 time=0.035971249999999996
EXTRACT: control_change channel=5 control=11 value=57 time=0.0023980833333333332
EXTRACT: control_change channel=6 control=11 value=119 time=0
EXTRACT: note_on channel=7 note=51 velocity=0 time=0.028776999999999997
EXTRACT: note_on channel=6 note=63 velocity=0 time=0.009592333333333333
EXTRACT: note_on channel=1 note=27 velocity=122 time=0.009592333333333333
EXTRACT: note_on channel=3 note=68 velocity=0 time=0.0047961666666666665
EXTRACT: note_on channel=3 note=80 velocity=0 time=0
EXTRACT: note_on channel=9 note=82 velocity=53 time=0.009592333333333333
EXTRACT: note_on channel=9 note=46 velocity=62 time=0.007194249999999999
EXTRACT: note_on channel=9 note=82 velocity=0 time=0.050359749999999995
EXTRACT: note_on channel=9 note=46 velocity=0 time=0.007194249999999999
EXTRACT: note_on channel=9 note=82 velocity=50 time=0.05275783333333333
EXTRACT: note_on channel=9 note=42 velocity=113 time=0
EXTRACT: note_on channel=9 note=42 velocity=0 time=0.057553999999999994
EXTRACT: note_on channel=9 note=82 velocity=0 time=0
EXTRACT: note_on channel=1 note=27 velocity=0 time=0.035971249999999996
EXTRACT: note_on channel=7 note=44 velocity=67 time=0.0047961666666666665
EXTRACT: note_on channel=6 note=56 velocity=67 time=0.0023980833333333332
EXTRACT: control_change channel=6 control=11 value=120 time=0
EXTRACT: note_on channel=9 note=70 velocity=103 time=0.007194249999999999
EXTRACT: note_on channel=4 note=63 velocity=0 time=0.0023980833333333332
EXTRACT: note_on channel=4 note=55 velocity=0 time=0
EXTRACT: note_on channel=4 note=70 velocity=0 time=0
EXTRACT: note_on channel=4 note=67 velocity=0 time=0
EXTRACT: note_on channel=5 note=84 velocity=0 time=0
EXTRACT: note_on channel=5 note=68 velocity=0 time=0
EXTRACT: note_on channel=11 note=44 velocity=127 time=0
EXTRACT: note_on channel=4 note=63 velocity=82 time=0.0023980833333333332
EXTRACT: note_on channel=4 note=51 velocity=77 time=0
EXTRACT: note_on channel=4 note=68 velocity=86 time=0
EXTRACT: note_on channel=4 note=60 velocity=81 time=0
EXTRACT: control_change channel=4 control=11 value=104 time=0.0023980833333333332
EXTRACT: note_on channel=5 note=80 velocity=117 time=0
EXTRACT: note_on channel=9 note=35 velocity=97 time=0
EXTRACT: note_on channel=9 note=57 velocity=63 time=0
EXTRACT: note_on channel=11 note=44 velocity=0 time=0.026378916666666665
EXTRACT: control_change channel=7 control=11 value=118 time=0.011990416666666667
EXTRACT: control_change channel=5 control=11 value=59 time=0.0023980833333333332
EXTRACT: control_change channel=6 control=11 value=116 time=0.007194249999999999
EXTRACT: note_on channel=9 note=70 velocity=0 time=0.0023980833333333332
EXTRACT: note_on channel=9 note=57 velocity=0 time=0.007194249999999999
EXTRACT: note_on channel=9 note=35 velocity=0 time=0
EXTRACT: control_change channel=7 control=11 value=113 time=0.011990416666666667
EXTRACT: control_change channel=4 control=11 value=112 time=0.016786583333333334
EXTRACT: control_change channel=6 control=11 value=110 time=0.0023980833333333332
EXTRACT: control_change channel=7 control=11 value=106 time=0.011990416666666667
EXTRACT: control_change channel=6 control=11 value=104 time=0.019184666666666666
EXTRACT: control_change channel=7 control=11 value=102 time=0.011990416666666667
EXTRACT: control_change channel=6 control=11 value=100 time=0.019184666666666666
EXTRACT: control_change channel=7 control=11 value=98 time=0.011990416666666667
EXTRACT: control_change channel=5 control=11 value=57 time=0.016786583333333334
EXTRACT: control_change channel=4 control=11 value=120 time=0.016786583333333334
EXTRACT: control_change channel=6 control=11 value=96 time=0.009592333333333333
EXTRACT: note_on channel=7 note=44 velocity=0 time=0.0023980833333333332
EXTRACT: note_on channel=6 note=56 velocity=0 time=0.0023980833333333332
EXTRACT: control_change channel=7 control=11 value=120 time=0
EXTRACT: note_on channel=7 note=44 velocity=61 time=0.007194249999999999
EXTRACT: note_on channel=1 note=32 velocity=126 time=0.0023980833333333332
EXTRACT: note_on channel=6 note=56 velocity=60 time=0
EXTRACT: note_on channel=9 note=70 velocity=77 time=0.007194249999999999
EXTRACT: control_change channel=6 control=11 value=117 time=0.009592333333333333
EXTRACT: control_change channel=7 control=11 value=112 time=0.0047961666666666665
EXTRACT: note_on channel=9 note=46 velocity=61 time=0
EXTRACT: control_change channel=6 control=11 value=106 time=0.009592333333333333
EXTRACT: control_change channel=7 control=11 value=101 time=0.0047961666666666665
EXTRACT: control_change channel=6 control=11 value=97 time=0.011990416666666667
EXTRACT: control_change channel=7 control=11 value=94 time=0.0047961666666666665
EXTRACT: control_change channel=6 control=11 value=90 time=0.009592333333333333
EXTRACT: note_on channel=9 note=70 velocity=0 time=0.0023980833333333332
EXTRACT: control_change channel=7 control=11 value=86 time=0.0023980833333333332
EXTRACT: control_change channel=6 control=11 value=82 time=0.011990416666666667
EXTRACT: note_on channel=9 note=46 velocity=0 time=0
EXTRACT: control_change channel=7 control=11 value=79 time=0.0047961666666666665
EXTRACT: control_change channel=6 control=11 value=76 time=0.009592333333333333
EXTRACT: control_change channel=7 control=11 value=74 time=0.0047961666666666665
EXTRACT: control_change channel=6 control=11 value=72 time=0.011990416666666667
EXTRACT: control_change channel=7 control=11 value=69 time=0.0047961666666666665
EXTRACT: control_change channel=6 control=11 value=67 time=0.009592333333333333
EXTRACT: note_on channel=9 note=70 velocity=67 time=0
EXTRACT: note_on channel=9 note=42 velocity=109 time=0.007194249999999999
EXTRACT: control_change channel=7 control=11 value=64 time=0.007194249999999999
EXTRACT: control_change channel=6 control=11 value=64 time=0.0023980833333333332
EXTRACT: control_change channel=6 control=11 value=62 time=0.007194249999999999
EXTRACT: control_change channel=7 control=11 value=60 time=0.0047961666666666665
EXTRACT: control_change channel=6 control=11 value=57 time=0.019184666666666666
EXTRACT: note_on channel=9 note=70 velocity=0 time=0.009592333333333333
EXTRACT: note_on channel=9 note=42 velocity=0 time=0.007194249999999999
EXTRACT: control_change channel=7 control=11 value=55 time=0.0023980833333333332
EXTRACT: note_on channel=1 note=32 velocity=0 time=0.03357316666666667
EXTRACT: note_on channel=9 note=70 velocity=108 time=0.014388499999999999
EXTRACT: note_on channel=11 note=44 velocity=127 time=0.0047961666666666665
EXTRACT: note_on channel=9 note=37 velocity=91 time=0.0047961666666666665
EXTRACT: note_on channel=9 note=28 velocity=68 time=0
EXTRACT: note_on channel=9 note=39 velocity=67 time=0
EXTRACT: note_on channel=9 note=35 velocity=97 time=0
EXTRACT: note_on channel=9 note=28 velocity=0 time=0.0023980833333333332
EXTRACT: note_on channel=9 note=37 velocity=0 time=0
EXTRACT: note_on channel=9 note=40 velocity=64 time=0
EXTRACT: note_on channel=3 note=72 velocity=81 time=0
EXTRACT: note_on channel=3 note=84 velocity=111 time=0
EXTRACT: control_change channel=6 control=11 value=52 time=0.011990416666666667
EXTRACT: note_on channel=11 note=44 velocity=0 time=0.0023980833333333332
EXTRACT: note_on channel=9 note=39 velocity=50 time=0.0047961666666666665
EXTRACT: note_on channel=9 note=70 velocity=0 time=0.016786583333333334
EXTRACT: note_on channel=9 note=39 velocity=0 time=0.009592333333333333
EXTRACT: note_on channel=9 note=35 velocity=0 time=0
EXTRACT: note_on channel=9 note=40 velocity=0 time=0.0023980833333333332
EXTRACT: control_change channel=4 control=11 value=112 time=0.0023980833333333332
EXTRACT: control_change channel=7 control=11 value=54 time=0.021582749999999998
EXTRACT: note_on channel=9 note=39 velocity=0 time=0.0047961666666666665
EXTRACT: control_change channel=6 control=11 value=57 time=0.05995208333333333
EXTRACT: control_change channel=7 control=11 value=60 time=0.014388499999999999
EXTRACT: control_change channel=6 control=11 value=62 time=0.023980833333333333
EXTRACT: control_change channel=4 control=11 value=104 time=0.014388499999999999
EXTRACT: control_change channel=7 control=11 value=65 time=0.007194249999999999
EXTRACT: note_on channel=3 note=84 velocity=0 time=0.0047961666666666665
EXTRACT: note_on channel=3 note=72 velocity=0 time=0
EXTRACT: note_on channel=9 note=70 velocity=75 time=0
EXTRACT: note_on channel=1 note=32 velocity=118 time=0.007194249999999999
EXTRACT: note_on channel=3 note=70 velocity=80 time=0.021582749999999998
EXTRACT: note_on channel=3 note=82 velocity=110 time=0
EXTRACT: note_on channel=9 note=46 velocity=59 time=0
EXTRACT: control_change channel=6 control=11 value=67 time=0.007194249999999999
EXTRACT: note_on channel=9 note=70 velocity=0 time=0.021582749999999998
EXTRACT: note_on channel=3 note=82 velocity=0 time=0.021582749999999998
EXTRACT: note_on channel=3 note=70 velocity=0 time=0
EXTRACT: note_on channel=9 note=46 velocity=0 time=0.007194249999999999
EXTRACT: control_change channel=7 control=11 value=70 time=0.026378916666666665
EXTRACT: control_change channel=6 control=11 value=72 time=0.009592333333333333
EXTRACT: note_on channel=9 note=70 velocity=67 time=0.007194249999999999
EXTRACT: note_on channel=9 note=42 velocity=108 time=0.007194249999999999
EXTRACT: control_change channel=7 control=11 value=74 time=0.031175083333333332
EXTRACT: note_on channel=9 note=70 velocity=0 time=0.019184666666666666
EXTRACT: note_on channel=9 note=42 velocity=0 time=0.007194249999999999
EXTRACT: note_on channel=1 note=32 velocity=0 time=0.03836933333333333
EXTRACT: note_on channel=9 note=70 velocity=108 time=0.014388499999999999
EXTRACT: note_on channel=5 note=80 velocity=0 time=0.0047961666666666665
EXTRACT: note_on channel=5 note=84 velocity=118 time=0.0023980833333333332
EXTRACT: note_on channel=9 note=35 velocity=97 time=0
EXTRACT: note_on channel=3 note=70 velocity=82 time=0.007194249999999999
EXTRACT: note_on channel=3 note=82 velocity=113 time=0
EXTRACT: control_change channel=5 control=11 value=59 time=0.023980833333333333
EXTRACT: note_on channel=9 note=70 velocity=0 time=0.019184666666666666
EXTRACT: note_on channel=9 note=35 velocity=0 time=0.007194249999999999
EXTRACT: control_change channel=6 control=11 value=76 time=0.014388499999999999
EXTRACT: control_change channel=7 control=11 value=78 time=0.05275783333333333
EXTRACT: control_change channel=6 control=11 value=80 time=0.03357316666666667
EXTRACT: control_change channel=5 control=11 value=57 time=0.021582749999999998
EXTRACT: note_on channel=3 note=82 velocity=0 time=0.014388499999999999
EXTRACT: note_on channel=3 note=70 velocity=0 time=0
EXTRACT: control_change channel=7 control=11 value=82 time=0.007194249999999999
EXTRACT: note_on channel=1 note=32 velocity=121 time=0.019184666666666666
EXTRACT: control_change channel=6 control=11 value=85 time=0
EXTRACT: note_on channel=3 note=68 velocity=77 time=0.0023980833333333332
EXTRACT: note_on channel=3 note=80 velocity=106 time=0
EXTRACT: note_on channel=9 note=70 velocity=76 time=0.0047961666666666665
EXTRACT: control_change channel=7 control=11 value=87 time=0.014388499999999999
EXTRACT: note_on channel=9 note=46 velocity=61 time=0
EXTRACT: control_change channel=6 control=11 value=89 time=0.009592333333333333
EXTRACT: control_change channel=7 control=11 value=92 time=0.011990416666666667
EXTRACT: note_on channel=3 note=80 velocity=0 time=0.011990416666666667
EXTRACT: note_on channel=3 note=68 velocity=0 time=0
EXTRACT: note_on channel=9 note=70 velocity=0 time=0.009592333333333333
EXTRACT: control_change channel=6 control=11 value=94 time=0.0047961666666666665
EXTRACT: control_change channel=7 control=11 value=96 time=0.0047961666666666665
EXTRACT: note_on channel=9 note=46 velocity=0 time=0.0047961666666666665
EXTRACT: control_change channel=4 control=11 value=100 time=0.011990416666666667
EXTRACT: control_change channel=6 control=11 value=98 time=0.0023980833333333332
EXTRACT: control_change channel=7 control=11 value=101 time=0.011990416666666667
EXTRACT: control_change channel=6 control=11 value=103 time=0.011990416666666667
EXTRACT: note_on channel=9 note=70 velocity=67 time=0.0047961666666666665
EXTRACT: control_change channel=7 control=11 value=105 time=0.007194249999999999
EXTRACT: note_on channel=9 note=42 velocity=108 time=0.0023980833333333332
EXTRACT: control_change channel=6 control=11 value=107 time=0.007194249999999999
EXTRACT: control_change channel=7 control=11 value=110 time=0.014388499999999999
EXTRACT: control_change channel=6 control=11 value=114 time=0.016786583333333334
EXTRACT: control_change channel=7 control=11 value=116 time=0.007194249999999999
EXTRACT: note_on channel=9 note=70 velocity=0 time=0.0023980833333333332
EXTRACT: note_on channel=9 note=42 velocity=0 time=0.009592333333333333
EXTRACT: control_change channel=6 control=11 value=118 time=0.0047961666666666665
EXTRACT: control_change channel=7 control=11 value=120 time=0.014388499999999999
EXTRACT: note_on channel=7 note=44 velocity=0 time=0.014388499999999999
EXTRACT: note_on channel=1 note=32 velocity=0 time=0.0023980833333333332
EXTRACT: note_on channel=6 note=56 velocity=0 time=0.0023980833333333332
EXTRACT: note_on channel=9 note=70 velocity=107 time=0.011990416666666667
EXTRACT: note_on channel=3 note=68 velocity=82 time=0.0047961666666666665
EXTRACT: note_on channel=3 note=80 velocity=113 time=0
EXTRACT: note_on channel=9 note=40 velocity=55 time=0.0023980833333333332
EXTRACT: note_on channel=9 note=37 velocity=91 time=0
EXTRACT: note_on channel=9 note=28 velocity=68 time=0
EXTRACT: note_on channel=9 note=39 velocity=72 time=0
EXTRACT: note_on channel=9 note=35 velocity=97 time=0
EXTRACT: note_on channel=9 note=28 velocity=0 time=0.0023980833333333332
EXTRACT: note_on channel=9 note=37 velocity=0 time=0
EXTRACT: note_on channel=9 note=39 velocity=55 time=0.028776999999999997
EXTRACT: note_on channel=9 note=70 velocity=0 time=0.019184666666666666
EXTRACT: note_on channel=9 note=35 velocity=0 time=0.007194249999999999
EXTRACT: note_on channel=9 note=40 velocity=0 time=0
EXTRACT: note_on channel=9 note=39 velocity=0 time=0
EXTRACT: note_on channel=9 note=39 velocity=0 time=0.031175083333333332
EXTRACT: note_on channel=7 note=44 velocity=66 time=0.1294965
EXTRACT: note_on channel=1 note=32 velocity=122 time=0.0023980833333333332
EXTRACT: note_on channel=6 note=56 velocity=67 time=0
EXTRACT: note_on channel=9 note=70 velocity=73 time=0.007194249999999999
EXTRACT: note_on channel=9 note=46 velocity=61 time=0.014388499999999999
EXTRACT: control_change channel=4 control=11 value=104 time=0.009592333333333333
EXTRACT: control_change channel=6 control=11 value=117 time=0.023980833333333333
EXTRACT: control_change channel=7 control=11 value=114 time=0.0047961666666666665
EXTRACT: note_on channel=9 note=70 velocity=0 time=0.0047961666666666665
EXTRACT: control_change channel=6 control=11 value=112 time=0.014388499999999999
EXTRACT: note_on channel=9 note=46 velocity=0 time=0
EXTRACT: control_change channel=7 control=11 value=110 time=0.0047961666666666665
EXTRACT: control_change channel=6 control=11 value=108 time=0.009592333333333333
EXTRACT: control_change channel=7 control=11 value=105 time=0.0047961666666666665
EXTRACT: control_change channel=6 control=11 value=99 time=0.019184666666666666
EXTRACT: note_on channel=9 note=70 velocity=67 time=0.007194249999999999
EXTRACT: control_change channel=7 control=11 value=96 time=0.0047961666666666665
EXTRACT: note_on channel=9 note=42 velocity=109 time=0.0023980833333333332
EXTRACT: control_change channel=6 control=11 value=94 time=0.009592333333333333
EXTRACT: control_change channel=7 control=11 value=92 time=0.0047961666666666665
EXTRACT: control_change channel=6 control=11 value=90 time=0.016786583333333334
EXTRACT: control_change channel=7 control=11 value=88 time=0.007194249999999999
EXTRACT: note_on channel=9 note=70 velocity=0 time=0.011990416666666667
EXTRACT: control_change channel=6 control=11 value=86 time=0.0047961666666666665
EXTRACT: note_on channel=9 note=42 velocity=0 time=0.0023980833333333332
EXTRACT: control_change channel=7 control=11 value=84 time=0.026378916666666665
EXTRACT: note_on channel=7 note=44 velocity=0 time=0.007194249999999999
EXTRACT: note_on channel=1 note=32 velocity=0 time=0.0023980833333333332
EXTRACT: note_on channel=6 note=56 velocity=0 time=0
EXTRACT: control_change channel=6 control=11 value=120 time=0.0023980833333333332
EXTRACT: note_on channel=7 note=48 velocity=71 time=0.0047961666666666665
EXTRACT: note_on channel=6 note=60 velocity=71 time=0.0023980833333333332
EXTRACT: note_on channel=9 note=70 velocity=108 time=0.007194249999999999
EXTRACT: note_on channel=4 note=60 velocity=0 time=0.0023980833333333332
EXTRACT: note_on channel=4 note=63 velocity=0 time=0
EXTRACT: note_on channel=4 note=51 velocity=0 time=0
EXTRACT: note_on channel=4 note=68 velocity=0 time=0
EXTRACT: note_on channel=4 note=67 velocity=86 time=0
EXTRACT: note_on channel=4 note=63 velocity=82 time=0
EXTRACT: note_on channel=4 note=60 velocity=81 time=0
EXTRACT: note_on channel=4 note=48 velocity=77 time=0
EXTRACT: note_on channel=5 note=84 velocity=0 time=0.0023980833333333332
EXTRACT: note_on channel=5 note=79 velocity=124 time=0.0023980833333333332
EXTRACT: note_on channel=9 note=35 velocity=97 time=0
EXTRACT: control_change channel=4 control=11 value=107 time=0.014388499999999999
EXTRACT: control_change channel=5 control=11 value=59 time=0.009592333333333333
EXTRACT: note_on channel=3 note=80 velocity=0 time=0.0047961666666666665
EXTRACT: note_on channel=3 note=68 velocity=0 time=0
EXTRACT: control_change channel=7 control=11 value=117 time=0.009592333333333333
EXTRACT: control_change channel=6 control=11 value=115 time=0.009592333333333333
EXTRACT: note_on channel=9 note=70 velocity=0 time=0.0023980833333333332
EXTRACT: note_on channel=9 note=35 velocity=0 time=0.007194249999999999
EXTRACT: control_change channel=7 control=11 value=113 time=0.0023980833333333332
EXTRACT: control_change channel=6 control=11 value=111 time=0.011990416666666667
EXTRACT: control_change channel=7 control=11 value=109 time=0.0047961666666666665
EXTRACT: control_change channel=6 control=11 value=106 time=0.009592333333333333
EXTRACT: control_change channel=7 control=11 value=101 time=0.014388499999999999
EXTRACT: control_change channel=4 control=11 value=115 time=0.007194249999999999
EXTRACT: control_change channel=6 control=11 value=99 time=0.0023980833333333332
EXTRACT: control_change channel=7 control=11 value=96 time=0.011990416666666667
EXTRACT: control_change channel=6 control=11 value=94 time=0.011990416666666667
EXTRACT: control_change channel=7 control=11 value=92 time=0.011990416666666667
EXTRACT: control_change channel=6 control=11 value=90 time=0.019184666666666666
EXTRACT: control_change channel=7 control=11 value=88 time=0.011990416666666667
EXTRACT: control_change channel=5 control=11 value=57 time=0.009592333333333333
EXTRACT: control_change channel=6 control=11 value=86 time=0.016786583333333334
EXTRACT: note_on channel=7 note=48 velocity=0 time=0.0047961666666666665
EXTRACT: control_change channel=7 control=11 value=120 time=0
EXTRACT: note_on channel=6 note=60 velocity=0 time=0.0023980833333333332
EXTRACT: note_on channel=7 note=48 velocity=66 time=0.0047961666666666665
EXTRACT: note_on channel=6 note=60 velocity=65 time=0.0023980833333333332
EXTRACT: note_on channel=1 note=36 velocity=116 time=0.0023980833333333332
EXTRACT: note_on channel=9 note=70 velocity=77 time=0.0047961666666666665
EXTRACT: control_change channel=6 control=11 value=116 time=0.009592333333333333
EXTRACT: control_change channel=7 control=11 value=110 time=0.0047961666666666665
EXTRACT: note_on channel=9 note=46 velocity=61 time=0.0023980833333333332
EXTRACT: control_change channel=6 control=11 value=103 time=0.007194249999999999
EXTRACT: note_on channel=3 note=63 velocity=83 time=0.007194249999999999
EXTRACT: note_on channel=3 note=75 velocity=115 time=0
EXTRACT: control_change channel=7 control=11 value=97 time=0
EXTRACT: control_change channel=6 control=11 value=92 time=0.009592333333333333
EXTRACT: control_change channel=7 control=11 value=88 time=0.0047961666666666665
EXTRACT: control_change channel=6 control=11 value=83 time=0.009592333333333333
EXTRACT: note_on channel=9 note=70 velocity=0 time=0.0023980833333333332
EXTRACT: control_change channel=7 control=11 value=78 time=0.0047961666666666665
EXTRACT: control_change channel=6 control=11 value=73 time=0.009592333333333333
EXTRACT: note_on channel=9 note=46 velocity=0 time=0.0023980833333333332
EXTRACT: control_change channel=7 control=11 value=69 time=0.0023980833333333332
EXTRACT: control_change channel=6 control=11 value=65 time=0.011990416666666667
EXTRACT: control_change channel=7 control=11 value=63 time=0.0047961666666666665
EXTRACT: note_on channel=3 note=75 velocity=0 time=0.007194249999999999
EXTRACT: note_on channel=3 note=63 velocity=0 time=0
EXTRACT: control_change channel=6 control=11 value=60 time=0.0023980833333333332
EXTRACT: control_change channel=7 control=11 value=56 time=0.0047961666666666665
EXTRACT: note_on channel=9 note=70 velocity=67 time=0.009592333333333333
EXTRACT: note_on channel=9 note=42 velocity=113 time=0.007194249999999999
EXTRACT: control_change channel=6 control=11 value=53 time=0.0023980833333333332
EXTRACT: control_change channel=7 control=11 value=51 time=0.0047961666666666665
EXTRACT: control_change channel=6 control=11 value=49 time=0.009592333333333333
EXTRACT: control_change channel=7 control=11 value=46 time=0.007194249999999999
EXTRACT: control_change channel=6 control=11 value=44 time=0.009592333333333333
EXTRACT: control_change channel=7 control=11 value=42 time=0.0047961666666666665
EXTRACT: control_change channel=4 control=11 value=119 time=0.0023980833333333332
EXTRACT: note_on channel=9 note=70 velocity=0 time=0.009592333333333333
EXTRACT: control_change channel=6 control=11 value=40 time=0.007194249999999999
EXTRACT: note_on channel=9 note=42 velocity=0 time=0
EXTRACT: note_on channel=1 note=36 velocity=0 time=0.03836933333333333
EXTRACT: note_on channel=9 note=70 velocity=103 time=0.014388499999999999
EXTRACT: note_on channel=3 note=72 velocity=80 time=0.007194249999999999
EXTRACT: note_on channel=3 note=84 velocity=110 time=0
EXTRACT: note_on channel=9 note=37 velocity=91 time=0
EXTRACT: note_on channel=9 note=28 velocity=68 time=0
EXTRACT: note_on channel=9 note=39 velocity=67 time=0
EXTRACT: note_on channel=9 note=35 velocity=97 time=0
EXTRACT: note_on channel=9 note=28 velocity=0 time=0.0023980833333333332
EXTRACT: note_on channel=9 note=37 velocity=0 time=0
EXTRACT: note_on channel=9 note=40 velocity=64 time=0.0023980833333333332
EXTRACT: control_change channel=7 control=11 value=38 time=0.009592333333333333
EXTRACT: control_change channel=6 control=11 value=36 time=0.009592333333333333
EXTRACT: note_on channel=9 note=39 velocity=50 time=0.007194249999999999
EXTRACT: note_on channel=9 note=70 velocity=0 time=0.019184666666666666
EXTRACT: note_on channel=9 note=39 velocity=0 time=0.007194249999999999
EXTRACT: note_on channel=9 note=35 velocity=0 time=0
EXTRACT: note_on channel=9 note=40 velocity=0 time=0.0047961666666666665
EXTRACT: control_change channel=7 control=11 value=39 time=0.021582749999999998
EXTRACT: note_on channel=9 note=39 velocity=0 time=0.0047961666666666665
EXTRACT: control_change channel=4 control=11 value=111 time=0.0047961666666666665
EXTRACT: control_change channel=5 control=11 value=59 time=0.007194249999999999
EXTRACT: control_change channel=6 control=11 value=42 time=0.047961666666666666
EXTRACT: control_change channel=7 control=11 value=44 time=0.007194249999999999
EXTRACT: control_change channel=6 control=11 value=46 time=0.009592333333333333
EXTRACT: control_change channel=7 control=11 value=49 time=0.021582749999999998
EXTRACT: note_on channel=3 note=84 velocity=0 time=0.011990416666666667
EXTRACT: note_on channel=3 note=72 velocity=0 time=0
EXTRACT: control_change channel=6 control=11 value=51 time=0.0047961666666666665
EXTRACT: control_change channel=7 control=11 value=53 time=0.007194249999999999
EXTRACT: note_on channel=9 note=70 velocity=75 time=0.0047961666666666665
EXTRACT: note_on channel=1 note=36 velocity=115 time=0.0047961666666666665
EXTRACT: note_on channel=3 note=70 velocity=78 time=0.009592333333333333
EXTRACT: note_on channel=3 note=82 velocity=107 time=0
EXTRACT: note_on channel=9 note=46 velocity=62 time=0.011990416666666667
EXTRACT: control_change channel=5 control=11 value=57 time=0.007194249999999999
EXTRACT: control_change channel=6 control=11 value=55 time=0.0023980833333333332
EXTRACT: control_change channel=4 control=11 value=103 time=0.021582749999999998
EXTRACT: note_on channel=9 note=70 velocity=0 time=0
EXTRACT: note_on channel=3 note=82 velocity=0 time=0.009592333333333333
EXTRACT: note_on channel=3 note=70 velocity=0 time=0
EXTRACT: note_on channel=9 note=46 velocity=0 time=0.016786583333333334
EXTRACT: control_change channel=7 control=11 value=57 time=0.019184666666666666
EXTRACT: control_change channel=6 control=11 value=61 time=0.009592333333333333
EXTRACT: note_on channel=9 note=70 velocity=67 time=0.014388499999999999
EXTRACT: note_on channel=9 note=42 velocity=111 time=0.009592333333333333
EXTRACT: control_change channel=7 control=11 value=63 time=0.021582749999999998
EXTRACT: note_on channel=9 note=70 velocity=0 time=0.026378916666666665
EXTRACT: note_on channel=9 note=42 velocity=0 time=0.009592333333333333
EXTRACT: note_on channel=1 note=36 velocity=0 time=0.035971249999999996
EXTRACT: note_on channel=9 note=70 velocity=103 time=0.014388499999999999
EXTRACT: note_on channel=5 note=79 velocity=0 time=0.007194249999999999
EXTRACT: note_on channel=5 note=82 velocity=127 time=0
EXTRACT: note_on channel=9 note=35 velocity=97 time=0
EXTRACT: note_on channel=3 note=70 velocity=83 time=0.011990416666666667
EXTRACT: note_on channel=3 note=82 velocity=115 time=0
EXTRACT: control_change channel=5 control=11 value=59 time=0.028776999999999997
EXTRACT: note_on channel=9 note=70 velocity=0 time=0.009592333333333333
EXTRACT: note_on channel=9 note=35 velocity=0 time=0.007194249999999999
EXTRACT: control_change channel=6 control=11 value=65 time=0.007194249999999999
EXTRACT: control_change channel=7 control=11 value=68 time=0.05275783333333333
EXTRACT: control_change channel=6 control=11 value=71 time=0.03357316666666667
EXTRACT: control_change channel=5 control=11 value=57 time=0.028776999999999997
EXTRACT: control_change channel=7 control=11 value=73 time=0.014388499999999999
EXTRACT: control_change channel=6 control=11 value=75 time=0.011990416666666667
EXTRACT: note_on channel=3 note=82 velocity=0 time=0.0047961666666666665
EXTRACT: note_on channel=3 note=70 velocity=0 time=0
EXTRACT: control_change channel=7 control=11 value=77 time=0
EXTRACT: note_on channel=1 note=36 velocity=116 time=0.009592333333333333
EXTRACT: note_on channel=3 note=68 velocity=78 time=0.009592333333333333
EXTRACT: note_on channel=3 note=80 velocity=107 time=0
EXTRACT: note_on channel=9 note=82 velocity=65 time=0.0047961666666666665
EXTRACT: control_change channel=6 control=11 value=79 time=0.0023980833333333332
EXTRACT: control_change channel=7 control=11 value=81 time=0.0047961666666666665
EXTRACT: note_on channel=9 note=46 velocity=63 time=0
EXTRACT: control_change channel=6 control=11 value=83 time=0.009592333333333333
EXTRACT: control_change channel=7 control=11 value=85 time=0.0047961666666666665
EXTRACT: note_on channel=3 note=80 velocity=0 time=0.023980833333333333
EXTRACT: note_on channel=3 note=68 velocity=0 time=0
EXTRACT: control_change channel=6 control=11 value=88 time=0.0023980833333333332
EXTRACT: control_change channel=7 control=11 value=90 time=0.0047961666666666665
EXTRACT: note_on channel=9 note=82 velocity=0 time=0.0047961666666666665
EXTRACT: control_change channel=6 control=11 value=92 time=0.007194249999999999
EXTRACT: note_on channel=9 note=46 velocity=0 time=0
EXTRACT: control_change channel=7 control=11 value=94 time=0.011990416666666667
EXTRACT: control_change channel=6 control=11 value=96 time=0.009592333333333333
EXTRACT: control_change channel=7 control=11 value=98 time=0.007194249999999999
EXTRACT: control_change channel=6 control=11 value=100 time=0.009592333333333333
EXTRACT: control_change channel=7 control=11 value=102 time=0.0047961666666666665
EXTRACT: note_on channel=9 note=82 velocity=57 time=0.009592333333333333
EXTRACT: note_on channel=9 note=42 velocity=111 time=0
EXTRACT: control_change channel=6 control=11 value=105 time=0.009592333333333333
EXTRACT: control_change channel=7 control=11 value=107 time=0.0047961666666666665
EXTRACT: control_change channel=6 control=11 value=109 time=0.009592333333333333
EXTRACT: control_change channel=7 control=11 value=112 time=0.0047961666666666665
EXTRACT: note_on channel=9 note=39 velocity=50 time=0.009592333333333333
EXTRACT: control_change channel=6 control=11 value=114 time=0.0023980833333333332
EXTRACT: control_change channel=7 control=11 value=116 time=0.0047961666666666665
EXTRACT: control_change channel=6 control=11 value=118 time=0.009592333333333333
EXTRACT: note_on channel=9 note=42 velocity=0 time=0.0023980833333333332
EXTRACT: note_on channel=9 note=82 velocity=0 time=0
EXTRACT: control_change channel=4 control=11 value=103 time=0.011990416666666667
EXTRACT: control_change channel=7 control=11 value=120 time=0
EXTRACT: note_on channel=7 note=48 velocity=0 time=0.011990416666666667
EXTRACT: note_on channel=1 note=36 velocity=0 time=0.011990416666666667
EXTRACT: note_on channel=6 note=60 velocity=0 time=0
EXTRACT: note_on channel=9 note=39 velocity=0 time=0.0023980833333333332
EXTRACT: note_on channel=3 note=68 velocity=81 time=0.021582749999999998
EXTRACT: note_on channel=3 note=80 velocity=111 time=0
EXTRACT: note_on channel=9 note=40 velocity=55 time=0
EXTRACT: note_on channel=9 note=37 velocity=91 time=0
EXTRACT: note_on channel=9 note=28 velocity=68 time=0
EXTRACT: note_on channel=9 note=39 velocity=73 time=0
EXTRACT: note_on channel=9 note=82 velocity=71 time=0
EXTRACT: note_on channel=9 note=35 velocity=97 time=0
EXTRACT: note_on channel=9 note=28 velocity=0 time=0.0023980833333333332
EXTRACT: note_on channel=9 note=37 velocity=0 time=0
EXTRACT: note_on channel=9 note=39 velocity=55 time=0.028776999999999997
EXTRACT: note_on channel=9 note=39 velocity=0 time=0.026378916666666665
EXTRACT: note_on channel=9 note=82 velocity=0 time=0
EXTRACT: note_on channel=9 note=40 velocity=0 time=0
EXTRACT: note_on channel=9 note=35 velocity=0 time=0
EXTRACT: note_on channel=9 note=39 velocity=0 time=0.031175083333333332
EXTRACT: note_on channel=7 note=48 velocity=71 time=0.12709841666666666
EXTRACT: note_on channel=6 note=60 velocity=70 time=0.0023980833333333332
EXTRACT: note_on channel=1 note=36 velocity=113 time=0.0023980833333333332
EXTRACT: note_on channel=9 note=82 velocity=53 time=0.011990416666666667
EXTRACT: note_on channel=9 note=46 velocity=62 time=0.009592333333333333
EXTRACT: pitchwheel channel=3 pitch=140 time=0.007194249999999999
EXTRACT: pitchwheel channel=3 pitch=360 time=0.0047961666666666665
EXTRACT: pitchwheel channel=3 pitch=640 time=0.0023980833333333332
EXTRACT: pitchwheel channel=3 pitch=980 time=0.0047961666666666665
EXTRACT: pitchwheel channel=3 pitch=1300 time=0
EXTRACT: pitchwheel channel=3 pitch=1680 time=0.007194249999999999
EXTRACT: pitchwheel channel=3 pitch=2120 time=0.0047961666666666665
EXTRACT: control_change channel=6 control=11 value=118 time=0
EXTRACT: pitchwheel channel=3 pitch=2580 time=0.0023980833333333332
EXTRACT: pitchwheel channel=3 pitch=3040 time=0
EXTRACT: control_change channel=7 control=11 value=116 time=0.0047961666666666665
EXTRACT: pitchwheel channel=3 pitch=3520 time=0.0047961666666666665
EXTRACT: pitchwheel channel=3 pitch=4000 time=0
EXTRACT: note_on channel=9 note=82 velocity=0 time=0.0047961666666666665
EXTRACT: pitchwheel channel=3 pitch=4440 time=0.0023980833333333332
EXTRACT: pitchwheel channel=3 pitch=4920 time=0.0047961666666666665
EXTRACT: control_change channel=6 control=11 value=114 time=0
EXTRACT: pitchwheel channel=3 pitch=5480 time=0.0023980833333333332
EXTRACT: note_on channel=9 note=46 velocity=0 time=0
EXTRACT: control_change channel=7 control=11 value=112 time=0.0023980833333333332
EXTRACT: pitchwheel channel=3 pitch=6020 time=0.0023980833333333332
EXTRACT: pitchwheel channel=3 pitch=6480 time=0.0023980833333333332
EXTRACT: pitchwheel channel=3 pitch=6960 time=0.0047961666666666665
EXTRACT: control_change channel=4 control=11 value=103 time=0
EXTRACT: pitchwheel channel=3 pitch=7480 time=0.0047961666666666665
EXTRACT: pitchwheel channel=3 pitch=7900 time=0.0023980833333333332
EXTRACT: control_change channel=6 control=11 value=109 time=0.0023980833333333332
EXTRACT: pitchwheel channel=3 pitch=8160 time=0.0023980833333333332
EXTRACT: control_change channel=7 control=11 value=107 time=0.0023980833333333332
EXTRACT: pitchwheel channel=3 pitch=8191 time=0.0023980833333333332
EXTRACT: control_change channel=6 control=11 value=104 time=0.007194249999999999
EXTRACT: note_on channel=3 note=80 velocity=0 time=0.009592333333333333
EXTRACT: note_on channel=3 note=68 velocity=0 time=0
EXTRACT: control_change channel=7 control=11 value=101 time=0.0047961666666666665
EXTRACT: note_on channel=9 note=82 velocity=50 time=0
EXTRACT: note_on channel=9 note=42 velocity=113 time=0
EXTRACT: control_change channel=6 control=11 value=98 time=0.016786583333333334
EXTRACT: control_change channel=7 control=11 value=96 time=0.014388499999999999
EXTRACT: control_change channel=6 control=11 value=94 time=0.016786583333333334
EXTRACT: note_on channel=9 note=42 velocity=0 time=0.009592333333333333
EXTRACT: note_on channel=9 note=82 velocity=0 time=0
EXTRACT: control_change channel=7 control=11 value=92 time=0.011990416666666667
EXTRACT: note_on channel=7 note=48 velocity=0 time=0.021582749999999998
EXTRACT: note_on channel=6 note=60 velocity=0 time=0.0023980833333333332
EXTRACT: note_on channel=1 note=36 velocity=0 time=0.0023980833333333332
EXTRACT: control_change channel=6 control=11 value=120 time=0
EXTRACT: note_on channel=7 note=49 velocity=73 time=0.0047961666666666665
EXTRACT: note_on channel=6 note=61 velocity=72 time=0.0023980833333333332
EXTRACT: pitchwheel channel=3 pitch=0 time=0.0023980833333333332
EXTRACT: note_on channel=9 note=70 velocity=103 time=0.0047961666666666665
EXTRACT: note_on channel=4 note=48 velocity=0 time=0.0023980833333333332
EXTRACT: note_on channel=4 note=67 velocity=0 time=0
EXTRACT: note_on channel=4 note=63 velocity=0 time=0
EXTRACT: note_on channel=4 note=60 velocity=0 time=0
EXTRACT: note_on channel=4 note=49 velocity=77 time=0.0023980833333333332
EXTRACT: note_on channel=4 note=68 velocity=84 time=0
EXTRACT: note_on channel=4 note=61 velocity=81 time=0
EXTRACT: note_on channel=4 note=65 velocity=83 time=0
EXTRACT: note_on channel=5 note=82 velocity=0 time=0
EXTRACT: note_on channel=5 note=77 velocity=116 time=0
EXTRACT: note_on channel=5 note=61 velocity=105 time=0
EXTRACT: note_on channel=3 note=77 velocity=114 time=0.0023980833333333332
EXTRACT: note_on channel=3 note=65 velocity=83 time=0
EXTRACT: note_on channel=9 note=35 velocity=97 time=0
EXTRACT: control_change channel=5 control=11 value=59 time=0.023980833333333333
EXTRACT: control_change channel=4 control=11 value=109 time=0.014388499999999999
EXTRACT: control_change channel=7 control=11 value=118 time=0
EXTRACT: control_change channel=6 control=11 value=116 time=0.009592333333333333
EXTRACT: note_on channel=9 note=70 velocity=0 time=0.0023980833333333332
EXTRACT: note_on channel=9 note=35 velocity=0 time=0.007194249999999999
EXTRACT: control_change channel=7 control=11 value=113 time=0.011990416666666667
EXTRACT: control_change channel=6 control=11 value=110 time=0.016786583333333334
EXTRACT: control_change channel=7 control=11 value=106 time=0.014388499999999999
EXTRACT: control_change channel=6 control=11 value=104 time=0.016786583333333334
EXTRACT: control_change channel=7 control=11 value=102 time=0.014388499999999999
EXTRACT: control_change channel=4 control=11 value=117 time=0.009592333333333333
EXTRACT: control_change channel=6 control=11 value=100 time=0.009592333333333333
EXTRACT: control_change channel=7 control=11 value=98 time=0.011990416666666667
EXTRACT: control_change channel=5 control=11 value=57 time=0.023980833333333333
EXTRACT: control_change channel=6 control=11 value=96 time=0.016786583333333334
EXTRACT: note_on channel=7 note=49 velocity=0 time=0.0047961666666666665
EXTRACT: note_on channel=6 note=61 velocity=0 time=0.0023980833333333332
EXTRACT: control_change channel=7 control=11 value=120 time=0
EXTRACT: note_on channel=7 note=49 velocity=66 time=0.007194249999999999
EXTRACT: note_on channel=1 note=25 velocity=123 time=0.0023980833333333332
EXTRACT: note_on channel=6 note=61 velocity=62 time=0
EXTRACT: note_on channel=9 note=70 velocity=77 time=0.007194249999999999
EXTRACT: control_change channel=6 control=11 value=118 time=0.007194249999999999
EXTRACT: control_change channel=7 control=11 value=115 time=0.007194249999999999
EXTRACT: note_on channel=9 note=46 velocity=61 time=0
EXTRACT: control_change channel=6 control=11 value=111 time=0.009592333333333333
EXTRACT: control_change channel=7 control=11 value=107 time=0.0047961666666666665
EXTRACT: control_change channel=6 control=11 value=103 time=0.009592333333333333
EXTRACT: control_change channel=7 control=11 value=100 time=0.007194249999999999
EXTRACT: control_change channel=6 control=11 value=98 time=0.009592333333333333
EXTRACT: note_on channel=9 note=70 velocity=0 time=0.0023980833333333332
EXTRACT: control_change channel=7 control=11 value=95 time=0.0023980833333333332
EXTRACT: control_change channel=6 control=11 value=92 time=0.009592333333333333
EXTRACT: note_on channel=9 note=46 velocity=0 time=0.0023980833333333332
EXTRACT: control_change channel=7 control=11 value=89 time=0.0047961666666666665
EXTRACT: control_change channel=6 control=11 value=86 time=0.009592333333333333
EXTRACT: control_change channel=7 control=11 value=83 time=0.0047961666666666665
EXTRACT: control_change channel=6 control=11 value=81 time=0.009592333333333333
EXTRACT: control_change channel=7 control=11 value=78 time=0.014388499999999999
EXTRACT: note_on channel=9 note=70 velocity=67 time=0
EXTRACT: control_change channel=6 control=11 value=76 time=0.009592333333333333
EXTRACT: note_on channel=9 note=42 velocity=109 time=0
EXTRACT: control_change channel=7 control=11 value=74 time=0.0047961666666666665
EXTRACT: note_on channel=3 note=65 velocity=0 time=0.016786583333333334
EXTRACT: note_on channel=3 note=77 velocity=0 time=0
EXTRACT: control_change channel=6 control=11 value=72 time=0.0023980833333333332
EXTRACT: control_change channel=7 control=11 value=70 time=0.011990416666666667
EXTRACT: control_change channel=6 control=11 value=68 time=0.011990416666666667
EXTRACT: note_on channel=9 note=70 velocity=0 time=0
EXTRACT: control_change channel=7 control=11 value=66 time=0.0047961666666666665
EXTRACT: note_on channel=9 note=42 velocity=0 time=0.0047961666666666665
EXTRACT: control_change channel=7 control=11 value=64 time=0.009592333333333333
EXTRACT: control_change channel=6 control=11 value=64 time=0.0023980833333333332
EXTRACT: control_change channel=7 control=11 value=62 time=0.021582749999999998
EXTRACT: note_on channel=1 note=25 velocity=0 time=0.0023980833333333332
EXTRACT: note_on channel=9 note=70 velocity=108 time=0.014388499999999999
EXTRACT: note_on channel=5 note=61 velocity=0 time=0.0047961666666666665
EXTRACT: note_on channel=5 note=77 velocity=0 time=0
EXTRACT: note_on channel=5 note=63 velocity=106 time=0
EXTRACT: note_on channel=5 note=79 velocity=116 time=0
EXTRACT: note_on channel=9 note=37 velocity=91 time=0.0023980833333333332
EXTRACT: note_on channel=9 note=28 velocity=68 time=0
EXTRACT: note_on channel=9 note=39 velocity=67 time=0
EXTRACT: note_on channel=9 note=35 velocity=97 time=0
EXTRACT: note_on channel=9 note=28 velocity=0 time=0.0023980833333333332
EXTRACT: note_on channel=9 note=37 velocity=0 time=0
EXTRACT: note_on channel=9 note=40 velocity=64 time=0.0023980833333333332
EXTRACT: control_change channel=5 control=11 value=59 time=0.011990416666666667
EXTRACT: note_on channel=3 note=79 velocity=112 time=0.0047961666666666665
EXTRACT: note_on channel=3 note=67 velocity=81 time=0
EXTRACT: note_on channel=9 note=39 velocity=50 time=0.009592333333333333
EXTRACT: note_on channel=9 note=70 velocity=0 time=0.019184666666666666
EXTRACT: control_change channel=4 control=11 value=113 time=0.0047961666666666665
EXTRACT: note_on channel=9 note=39 velocity=0 time=0.0023980833333333332
EXTRACT: note_on channel=9 note=35 velocity=0 time=0
EXTRACT: note_on channel=9 note=40 velocity=0 time=0.0047961666666666665
EXTRACT: control_change channel=5 control=11 value=61 time=0.0023980833333333332
EXTRACT: control_change channel=6 control=11 value=60 time=0.007194249999999999
EXTRACT: note_on channel=9 note=39 velocity=0 time=0.016786583333333334
EXTRACT: control_change channel=5 control=11 value=59 time=0.03836933333333333
EXTRACT: control_change channel=5 control=11 value=57 time=0.06954441666666666
EXTRACT: control_change channel=4 control=11 value=105 time=0.007194249999999999
EXTRACT: control_change channel=7 control=11 value=62 time=0.007194249999999999
EXTRACT: note_on channel=9 note=70 velocity=75 time=0.0047961666666666665
EXTRACT: note_on channel=1 note=25 velocity=122 time=0.0047961666666666665
EXTRACT: control_change channel=7 control=11 value=64 time=0.014388499999999999
EXTRACT: control_change channel=6 control=11 value=64 time=0.0023980833333333332
EXTRACT: note_on channel=9 note=46 velocity=59 time=0.0047961666666666665
EXTRACT: control_change channel=7 control=11 value=67 time=0.007194249999999999
EXTRACT: note_on channel=9 note=70 velocity=0 time=0.023980833333333333
EXTRACT: control_change channel=6 control=11 value=69 time=0.009592333333333333
EXTRACT: note_on channel=9 note=46 velocity=0 time=0.016786583333333334
EXTRACT: control_change channel=7 control=11 value=71 time=0.0047961666666666665
EXTRACT: note_on channel=9 note=70 velocity=67 time=0.04076741666666667
EXTRACT: control_change channel=6 control=11 value=73 time=0.007194249999999999
EXTRACT: note_on channel=9 note=42 velocity=108 time=0
EXTRACT: note_on channel=9 note=70 velocity=0 time=0.050359749999999995
EXTRACT: note_on channel=9 note=42 velocity=0 time=0.007194249999999999
EXTRACT: note_on channel=3 note=67 velocity=0 time=0.016786583333333334
EXTRACT: note_on channel=3 note=79 velocity=0 time=0
EXTRACT: note_on channel=1 note=25 velocity=0 time=0.019184666666666666
EXTRACT: control_change channel=7 control=11 value=76 time=0
EXTRACT: note_on channel=9 note=70 velocity=108 time=0.016786583333333334
EXTRACT: note_on channel=5 note=79 velocity=0 time=0.0023980833333333332
EXTRACT: note_on channel=5 note=63 velocity=0 time=0
EXTRACT: note_on channel=5 note=65 velocity=108 time=0
EXTRACT: note_on channel=5 note=80 velocity=121 time=0
EXTRACT: note_on channel=9 note=35 velocity=97 time=0.0047961666666666665
EXTRACT: note_on channel=3 note=80 velocity=110 time=0.019184666666666666
EXTRACT: note_on channel=3 note=68 velocity=80 time=0
EXTRACT: control_change channel=5 control=11 value=59 time=0.0047961666666666665
EXTRACT: control_change channel=6 control=11 value=78 time=0.007194249999999999
EXTRACT: note_on channel=9 note=70 velocity=0 time=0.019184666666666666
EXTRACT: note_on channel=9 note=35 velocity=0 time=0.007194249999999999
EXTRACT: control_change channel=5 control=11 value=57 time=0.1294965
EXTRACT: note_on channel=1 note=25 velocity=120 time=0.03357316666666667
EXTRACT: control_change channel=7 control=11 value=81 time=0.0047961666666666665
EXTRACT: note_on channel=9 note=70 velocity=76 time=0
EXTRACT: note_on channel=9 note=46 velocity=61 time=0.016786583333333334
EXTRACT: note_on channel=9 note=70 velocity=0 time=0.04076741666666667
EXTRACT: control_change channel=6 control=11 value=83 time=0.014388499999999999
EXTRACT: note_on channel=9 note=46 velocity=0 time=0.0023980833333333332
EXTRACT: control_change channel=4 control=11 value=101 time=0.0047961666666666665
EXTRACT: note_on channel=9 note=70 velocity=67 time=0.03836933333333333
EXTRACT: note_on channel=9 note=42 velocity=108 time=0.007194249999999999
EXTRACT: control_change channel=7 control=11 value=85 time=0.023980833333333333
EXTRACT: control_change channel=6 control=11 value=87 time=0.016786583333333334
EXTRACT: note_on channel=3 note=68 velocity=0 time=0.009592333333333333
EXTRACT: note_on channel=3 note=80 velocity=0 time=0
EXTRACT: note_on channel=9 note=70 velocity=0 time=0
EXTRACT: control_change channel=7 control=11 value=89 time=0.0047961666666666665
EXTRACT: note_on channel=9 note=42 velocity=0 time=0.0023980833333333332
EXTRACT: control_change channel=6 control=11 value=91 time=0.031175083333333332
EXTRACT: control_change channel=7 control=11 value=93 time=0.0047961666666666665
EXTRACT: note_on channel=1 note=25 velocity=0 time=0.0023980833333333332
EXTRACT: control_change channel=6 control=11 value=95 time=0.014388499999999999
EXTRACT: note_on channel=9 note=70 velocity=107 time=0
EXTRACT: note_on channel=5 note=80 velocity=0 time=0.0023980833333333332
EXTRACT: note_on channel=5 note=65 velocity=0 time=0
EXTRACT: note_on channel=5 note=67 velocity=109 time=0.0023980833333333332
EXTRACT: note_on channel=5 note=82 velocity=118 time=0
EXTRACT: note_on channel=9 note=40 velocity=55 time=0.0023980833333333332
EXTRACT: note_on channel=9 note=37 velocity=91 time=0
EXTRACT: note_on channel=9 note=28 velocity=68 time=0
EXTRACT: note_on channel=9 note=39 velocity=72 time=0
EXTRACT: note_on channel=9 note=35 velocity=97 time=0
EXTRACT: note_on channel=9 note=28 velocity=0 time=0.0023980833333333332
EXTRACT: note_on channel=9 note=37 velocity=0 time=0
EXTRACT: note_on channel=3 note=77 velocity=110 time=0.0023980833333333332
EXTRACT: note_on channel=3 note=65 velocity=80 time=0
EXTRACT: control_change channel=7 control=11 value=97 time=0.016786583333333334
EXTRACT: control_change channel=5 control=11 value=59 time=0.0023980833333333332
EXTRACT: note_on channel=9 note=39 velocity=55 time=0.007194249999999999
EXTRACT: control_change channel=6 control=11 value=100 time=0.009592333333333333
EXTRACT: note_on channel=9 note=70 velocity=0 time=0.009592333333333333
EXTRACT: note_on channel=9 note=35 velocity=0 time=0.007194249999999999
EXTRACT: note_on channel=9 note=40 velocity=0 time=0
EXTRACT: note_on channel=9 note=39 velocity=0 time=0
EXTRACT: control_change channel=7 control=11 value=102 time=0.0047961666666666665
EXTRACT: control_change channel=6 control=11 value=104 time=0.009592333333333333
EXTRACT: control_change channel=7 control=11 value=106 time=0.011990416666666667
EXTRACT: note_on channel=9 note=39 velocity=0 time=0.0047961666666666665
EXTRACT: control_change channel=6 control=11 value=108 time=0.014388499999999999
EXTRACT: control_change channel=7 control=11 value=110 time=0.011990416666666667
EXTRACT: control_change channel=6 control=11 value=113 time=0.019184666666666666
EXTRACT: control_change channel=7 control=11 value=116 time=0.014388499999999999
EXTRACT: control_change channel=6 control=11 value=118 time=0.016786583333333334
EXTRACT: control_change channel=7 control=11 value=120 time=0.014388499999999999
EXTRACT: control_change channel=5 control=11 value=57 time=0.007194249999999999
EXTRACT: note_on channel=7 note=49 velocity=0 time=0.019184666666666666
EXTRACT: note_on channel=6 note=61 velocity=0 time=0.0047961666666666665
EXTRACT: note_on channel=1 note=25 velocity=120 time=0.009592333333333333
EXTRACT: note_on channel=9 note=70 velocity=73 time=0.007194249999999999
EXTRACT: control_change channel=4 control=11 value=105 time=0.014388499999999999
EXTRACT: note_on channel=9 note=46 velocity=61 time=0
EXTRACT: note_on channel=9 note=70 velocity=0 time=0.043165499999999996
EXTRACT: note_on channel=9 note=46 velocity=0 time=0.014388499999999999
EXTRACT: note_on channel=9 note=70 velocity=67 time=0.043165499999999996
EXTRACT: note_on channel=9 note=42 velocity=109 time=0.009592333333333333
EXTRACT: note_on channel=9 note=70 velocity=0 time=0.047961666666666666
EXTRACT: note_on channel=3 note=65 velocity=0 time=0.009592333333333333
EXTRACT: note_on channel=3 note=77 velocity=0 time=0
EXTRACT: note_on channel=9 note=42 velocity=0 time=0
EXTRACT: note_on channel=1 note=25 velocity=0 time=0.035971249999999996
EXTRACT: note_on channel=7 note=51 velocity=68 time=0.0047961666666666665
EXTRACT: note_on channel=6 note=63 velocity=70 time=0.0023980833333333332
EXTRACT: note_on channel=9 note=70 velocity=108 time=0.007194249999999999
EXTRACT: note_on channel=11 note=51 velocity=127 time=0.0023980833333333332
EXTRACT: note_on channel=3 note=79 velocity=112 time=0.0023980833333333332
EXTRACT: note_on channel=3 note=67 velocity=81 time=0
EXTRACT: note_on channel=4 note=65 velocity=0 time=0
EXTRACT: note_on channel=4 note=49 velocity=0 time=0
EXTRACT: note_on channel=4 note=68 velocity=0 time=0
EXTRACT: note_on channel=4 note=61 velocity=0 time=0
EXTRACT: note_on channel=4 note=63 velocity=82 time=0
EXTRACT: note_on channel=4 note=70 velocity=85 time=0
EXTRACT: note_on channel=4 note=67 velocity=86 time=0
EXTRACT: note_on channel=4 note=55 velocity=80 time=0
EXTRACT: note_on channel=5 note=82 velocity=0 time=0
EXTRACT: note_on channel=5 note=67 velocity=0 time=0
EXTRACT: note_on channel=5 note=79 velocity=116 time=0
EXTRACT: note_on channel=5 note=63 velocity=105 time=0
EXTRACT: note_on channel=9 note=35 velocity=97 time=0.0023980833333333332
EXTRACT: control_change channel=6 control=11 value=117 time=0.0023980833333333332
EXTRACT: control_change channel=7 control=11 value=114 time=0.0047961666666666665
EXTRACT: control_change channel=4 control=11 value=106 time=0.009592333333333333
EXTRACT: control_change channel=6 control=11 value=108 time=0.0023980833333333332
EXTRACT: control_change channel=7 control=11 value=103 time=0.0047961666666666665
EXTRACT: note_on channel=11 note=51 velocity=0 time=0.0023980833333333332
EXTRACT: control_change channel=6 control=11 value=98 time=0.007194249999999999
EXTRACT: control_change channel=7 control=11 value=94 time=0.0047961666666666665
EXTRACT: control_change channel=5 control=11 value=59 time=0.0023980833333333332
EXTRACT: control_change channel=6 control=11 value=91 time=0.009592333333333333
EXTRACT: note_on channel=9 note=70 velocity=0 time=0
EXTRACT: control_change channel=7 control=11 value=87 time=0.0047961666666666665
EXTRACT: note_on channel=9 note=35 velocity=0 time=0.0023980833333333332
EXTRACT: control_change channel=6 control=11 value=83 time=0.007194249999999999
EXTRACT: control_change channel=7 control=11 value=79 time=0.0047961666666666665
EXTRACT: control_change channel=6 control=11 value=76 time=0.011990416666666667
EXTRACT: control_change channel=7 control=11 value=72 time=0.0047961666666666665
EXTRACT: control_change channel=6 control=11 value=69 time=0.009592333333333333
EXTRACT: control_change channel=7 control=11 value=67 time=0.0047961666666666665
EXTRACT: control_change channel=4 control=11 value=114 time=0.009592333333333333
EXTRACT: control_change channel=6 control=11 value=65 time=0.0023980833333333332
EXTRACT: control_change channel=7 control=11 value=63 time=0.0047961666666666665
EXTRACT: control_change channel=6 control=11 value=60 time=0.009592333333333333
EXTRACT: control_change channel=7 control=11 value=57 time=0.014388499999999999
EXTRACT: control_change channel=6 control=11 value=54 time=0.016786583333333334
EXTRACT: control_change channel=7 control=11 value=52 time=0.0047961666666666665
EXTRACT: control_change channel=5 control=11 value=57 time=0.009592333333333333
EXTRACT: control_change channel=6 control=11 value=50 time=0.0023980833333333332
EXTRACT: control_change channel=7 control=11 value=48 time=0.0047961666666666665
EXTRACT: control_change channel=6 control=11 value=46 time=0.016786583333333334
EXTRACT: control_change channel=7 control=11 value=44 time=0.014388499999999999
EXTRACT: note_on channel=1 note=27 velocity=124 time=0.009592333333333333
EXTRACT: note_on channel=9 note=70 velocity=77 time=0.007194249999999999
EXTRACT: note_on channel=9 note=46 velocity=61 time=0.014388499999999999
EXTRACT: note_on channel=9 note=70 velocity=0 time=0.043165499999999996
EXTRACT: note_on channel=9 note=46 velocity=0 time=0.014388499999999999
EXTRACT: control_change channel=6 control=11 value=42 time=0.007194249999999999
EXTRACT: note_on channel=9 note=70 velocity=67 time=0.03836933333333333
EXTRACT: note_on channel=9 note=42 velocity=113 time=0.007194249999999999
EXTRACT: control_change channel=4 control=11 value=118 time=0.047961666666666666
EXTRACT: note_on channel=3 note=67 velocity=0 time=0.0023980833333333332
EXTRACT: note_on channel=3 note=79 velocity=0 time=0
EXTRACT: note_on channel=9 note=70 velocity=0 time=0
EXTRACT: note_on channel=9 note=42 velocity=0 time=0.007194249999999999
EXTRACT: control_change channel=7 control=11 value=44 time=0.026378916666666665
EXTRACT: note_on channel=1 note=27 velocity=0 time=0.009592333333333333
EXTRACT: control_change channel=6 control=11 value=46 time=0.016786583333333334
EXTRACT: note_on channel=9 note=70 velocity=103 time=0
EXTRACT: note_on channel=5 note=63 velocity=0 time=0.0023980833333333332
EXTRACT: note_on channel=5 note=79 velocity=0 time=0
EXTRACT: note_on channel=5 note=65 velocity=106 time=0
EXTRACT: note_on channel=5 note=80 velocity=115 time=0
EXTRACT: note_on channel=11 note=46 velocity=127 time=0
EXTRACT: control_change channel=7 control=11 value=48 time=0.0023980833333333332
EXTRACT: note_on channel=9 note=37 velocity=91 time=0.0023980833333333332
EXTRACT: note_on channel=9 note=28 velocity=68 time=0
EXTRACT: note_on channel=9 note=39 velocity=67 time=0
EXTRACT: note_on channel=9 note=35 velocity=97 time=0
EXTRACT: note_on channel=9 note=28 velocity=0 time=0.0023980833333333332
EXTRACT: note_on channel=9 note=37 velocity=0 time=0
EXTRACT: note_on channel=9 note=40 velocity=64 time=0
EXTRACT: note_on channel=3 note=80 velocity=113 time=0.0047961666666666665
EXTRACT: note_on channel=3 note=68 velocity=82 time=0
EXTRACT: control_change channel=6 control=11 value=51 time=0.009592333333333333
EXTRACT: control_change channel=5 control=11 value=59 time=0.007194249999999999
EXTRACT: note_on channel=11 note=46 velocity=0 time=0.0023980833333333332
EXTRACT: note_on channel=9 note=39 velocity=50 time=0.0047961666666666665
EXTRACT: control_change channel=7 control=11 value=54 time=0.014388499999999999
EXTRACT: note_on channel=9 note=70 velocity=0 time=0.0047961666666666665
EXTRACT: note_on channel=9 note=39 velocity=0 time=0.007194249999999999
EXTRACT: note_on channel=9 note=35 velocity=0 time=0
EXTRACT: note_on channel=9 note=40 velocity=0 time=0.0023980833333333332
EXTRACT: control_change channel=6 control=11 value=56 time=0.011990416666666667
EXTRACT: note_on channel=9 note=39 velocity=0 time=0.016786583333333334
EXTRACT: control_change channel=4 control=11 value=110 time=0.011990416666666667
EXTRACT: control_change channel=7 control=11 value=58 time=0.014388499999999999
EXTRACT: control_change channel=5 control=11 value=57 time=0.06474825
EXTRACT: control_change channel=6 control=11 value=61 time=0.023980833333333333
EXTRACT: control_change channel=7 control=11 value=64 time=0.0047961666666666665
EXTRACT: control_change channel=6 control=11 value=64 time=0.0023980833333333332
EXTRACT: note_on channel=9 note=70 velocity=75 time=0.0023980833333333332
EXTRACT: note_on channel=1 note=27 velocity=118 time=0.007194249999999999
EXTRACT: note_on channel=9 note=46 velocity=62 time=0.021582749999999998
EXTRACT: control_change channel=6 control=11 value=66 time=0.023980833333333333
EXTRACT: note_on channel=9 note=70 velocity=0 time=0.0047961666666666665
EXTRACT: control_change channel=4 control=11 value=102 time=0.0023980833333333332
EXTRACT: note_on channel=9 note=46 velocity=0 time=0.026378916666666665
EXTRACT: note_on channel=9 note=70 velocity=67 time=0.043165499999999996
EXTRACT: note_on channel=9 note=42 velocity=111 time=0.007194249999999999
EXTRACT: note_on channel=3 note=68 velocity=0 time=0.03836933333333333
EXTRACT: note_on channel=3 note=80 velocity=0 time=0
EXTRACT: note_on channel=9 note=70 velocity=0 time=0.011990416666666667
EXTRACT: note_on channel=9 note=42 velocity=0 time=0.007194249999999999
EXTRACT: note_on channel=1 note=27 velocity=0 time=0.03836933333333333
EXTRACT: control_change channel=7 control=11 value=68 time=0.0047961666666666665
EXTRACT: note_on channel=9 note=70 velocity=103 time=0.009592333333333333
EXTRACT: note_on channel=5 note=80 velocity=0 time=0.0023980833333333332
EXTRACT: note_on channel=5 note=65 velocity=0 time=0
EXTRACT: note_on channel=11 note=51 velocity=127 time=0
EXTRACT: note_on channel=5 note=67 velocity=108 time=0.0023980833333333332
EXTRACT: note_on channel=5 note=82 velocity=114 time=0
EXTRACT: note_on channel=9 note=35 velocity=97 time=0.0023980833333333332
EXTRACT: note_on channel=3 note=82 velocity=113 time=0.023980833333333333
EXTRACT: note_on channel=3 note=70 velocity=82 time=0
EXTRACT: control_change channel=5 control=11 value=59 time=0
EXTRACT: note_on channel=11 note=51 velocity=0 time=0.0023980833333333332
EXTRACT: note_on channel=9 note=70 velocity=0 time=0.023980833333333333
EXTRACT: control_change channel=6 control=11 value=71 time=0.0047961666666666665
EXTRACT: note_on channel=9 note=35 velocity=0 time=0.0023980833333333332
EXTRACT: control_change channel=7 control=11 value=73 time=0.026378916666666665
EXTRACT: control_change channel=6 control=11 value=75 time=0.06714633333333334
EXTRACT: control_change channel=7 control=11 value=77 time=0.0047961666666666665
EXTRACT: control_change channel=6 control=11 value=79 time=0.009592333333333333
EXTRACT: control_change channel=5 control=11 value=57 time=0.021582749999999998
EXTRACT: control_change channel=7 control=11 value=82 time=0.007194249999999999
EXTRACT: control_change channel=6 control=11 value=85 time=0.019184666666666666
EXTRACT: note_on channel=1 note=27 velocity=121 time=0.007194249999999999
EXTRACT: control_change channel=7 control=11 value=87 time=0.0047961666666666665
EXTRACT: note_on channel=9 note=82 velocity=65 time=0.009592333333333333
EXTRACT: note_on channel=9 note=46 velocity=63 time=0.007194249999999999
EXTRACT: control_change channel=6 control=11 value=89 time=0.009592333333333333
EXTRACT: control_change channel=7 control=11 value=91 time=0.0047961666666666665
EXTRACT: control_change channel=6 control=11 value=93 time=0.009592333333333333
EXTRACT: control_change channel=7 control=11 value=95 time=0.014388499999999999
EXTRACT: note_on channel=9 note=82 velocity=0 time=0.011990416666666667
EXTRACT: control_change channel=6 control=11 value=98 time=0.0047961666666666665
EXTRACT: note_on channel=9 note=46 velocity=0 time=0.0023980833333333332
EXTRACT: control_change channel=7 control=11 value=101 time=0.011990416666666667
EXTRACT: control_change channel=6 control=11 value=103 time=0.016786583333333334
EXTRACT: control_change channel=7 control=11 value=106 time=0.014388499999999999
EXTRACT: control_change channel=6 control=11 value=108 time=0.009592333333333333
EXTRACT: note_on channel=9 note=82 velocity=57 time=0
EXTRACT: note_on channel=9 note=42 velocity=111 time=0
EXTRACT: control_change channel=7 control=11 value=111 time=0.014388499999999999
EXTRACT: control_change channel=6 control=11 value=113 time=0.009592333333333333
EXTRACT: control_change channel=7 control=11 value=115 time=0.0047961666666666665
EXTRACT: control_change channel=6 control=11 value=117 time=0.009592333333333333
EXTRACT: note_on channel=9 note=39 velocity=50 time=0
EXTRACT: note_on channel=3 note=70 velocity=0 time=0.014388499999999999
EXTRACT: note_on channel=3 note=82 velocity=0 time=0
EXTRACT: control_change channel=7 control=11 value=119 time=0
EXTRACT: note_on channel=9 note=42 velocity=0 time=0.0047961666666666665
EXTRACT: note_on channel=9 note=82 velocity=0 time=0
EXTRACT: control_change channel=4 control=11 value=102 time=0.0047961666666666665
EXTRACT: note_on channel=7 note=51 velocity=0 time=0.019184666666666666
EXTRACT: note_on channel=6 note=63 velocity=0 time=0.009592333333333333
EXTRACT: note_on channel=1 note=27 velocity=0 time=0.0023980833333333332
EXTRACT: note_on channel=9 note=39 velocity=0 time=0.0023980833333333332
EXTRACT: note_on channel=3 note=84 velocity=112 time=0.009592333333333333
EXTRACT: note_on channel=3 note=72 velocity=81 time=0
EXTRACT: note_on channel=5 note=82 velocity=0 time=0.007194249999999999
EXTRACT: note_on channel=5 note=67 velocity=0 time=0
EXTRACT: note_on channel=5 note=84 velocity=122 time=0
EXTRACT: note_on channel=5 note=68 velocity=108 time=0
EXTRACT: note_on channel=11 note=46 velocity=127 time=0
EXTRACT: note_on channel=9 note=40 velocity=55 time=0.0047961666666666665
EXTRACT: note_on channel=9 note=37 velocity=91 time=0
EXTRACT: note_on channel=9 note=28 velocity=68 time=0
EXTRACT: note_on channel=9 note=39 velocity=73 time=0
EXTRACT: note_on channel=9 note=82 velocity=71 time=0
EXTRACT: note_on channel=9 note=35 velocity=97 time=0
EXTRACT: note_on channel=9 note=28 velocity=0 time=0.0023980833333333332
EXTRACT: note_on channel=9 note=37 velocity=0 time=0
EXTRACT: control_change channel=5 control=11 value=59 time=0.019184666666666666
EXTRACT: note_on channel=11 note=46 velocity=0 time=0.0047961666666666665
EXTRACT: note_on channel=9 note=39 velocity=55 time=0.0047961666666666665
EXTRACT: note_on channel=9 note=39 velocity=0 time=0.026378916666666665
EXTRACT: note_on channel=9 note=82 velocity=0 time=0
EXTRACT: note_on channel=9 note=40 velocity=0 time=0
EXTRACT: note_on channel=9 note=35 velocity=0 time=0
EXTRACT: control_change channel=5 control=11 value=61 time=0.0047961666666666665
EXTRACT: note_on channel=9 note=39 velocity=0 time=0.026378916666666665
EXTRACT: control_change channel=5 control=11 value=59 time=0.035971249999999996
EXTRACT: control_change channel=5 control=11 value=57 time=0.06954441666666666
EXTRACT: note_on channel=7 note=51 velocity=71 time=0.021582749999999998
EXTRACT: note_on channel=1 note=27 velocity=122 time=0.0023980833333333332
EXTRACT: note_on channel=6 note=63 velocity=71 time=0
EXTRACT: note_on channel=9 note=82 velocity=53 time=0.014388499999999999
EXTRACT: note_on channel=3 note=72 velocity=0 time=0.0047961666666666665
EXTRACT: note_on channel=3 note=84 velocity=0 time=0
EXTRACT: note_on channel=9 note=46 velocity=62 time=0.0023980833333333332
EXTRACT: control_change channel=6 control=11 value=117 time=0.04076741666666667
EXTRACT: note_on channel=9 note=82 velocity=0 time=0.009592333333333333
EXTRACT: note_on channel=9 note=46 velocity=0 time=0.007194249999999999
EXTRACT: control_change channel=7 control=11 value=114 time=0.0047961666666666665
EXTRACT: control_change channel=4 control=11 value=102 time=0.009592333333333333
EXTRACT: control_change channel=6 control=11 value=112 time=0.009592333333333333
EXTRACT: control_change channel=7 control=11 value=108 time=0.011990416666666667
EXTRACT: note_on channel=9 note=82 velocity=50 time=0.016786583333333334
EXTRACT: note_on channel=9 note=42 velocity=113 time=0
EXTRACT: control_change channel=6 control=11 value=106 time=0.0023980833333333332
EXTRACT: control_change channel=7 control=11 value=104 time=0.011990416666666667
EXTRACT: control_change channel=6 control=11 value=102 time=0.026378916666666665
EXTRACT: note_on channel=9 note=42 velocity=0 time=0.016786583333333334
EXTRACT: note_on channel=9 note=82 velocity=0 time=0
EXTRACT: control_change channel=7 control=11 value=100 time=0.0047961666666666665
EXTRACT: note_on channel=7 note=51 velocity=0 time=0.028776999999999997
EXTRACT: note_on channel=1 note=27 velocity=0 time=0.0023980833333333332
EXTRACT: note_on channel=6 note=63 velocity=0 time=0
EXTRACT: control_change channel=6 control=11 value=120 time=0.0023980833333333332
EXTRACT: note_on channel=7 note=44 velocity=72 time=0.0047961666666666665
EXTRACT: note_on channel=6 note=56 velocity=70 time=0.0023980833333333332
EXTRACT: note_on channel=4 note=63 velocity=0 time=0.0047961666666666665
EXTRACT: note_on channel=4 note=63 velocity=83 time=0.0023980833333333332
EXTRACT: note_on channel=4 note=68 velocity=87 time=0
EXTRACT: note_on channel=4 note=51 velocity=80 time=0
EXTRACT: note_on channel=4 note=60 velocity=81 time=0
EXTRACT: note_on channel=9 note=70 velocity=103 time=0
EXTRACT: note_on channel=4 note=70 velocity=0 time=0.0023980833333333332
EXTRACT: note_on channel=4 note=55 velocity=0 time=0
EXTRACT: note_on channel=4 note=67 velocity=0 time=0
EXTRACT: note_on channel=5 note=68 velocity=0 time=0
EXTRACT: note_on channel=5 note=84 velocity=0 time=0
EXTRACT: note_on channel=11 note=44 velocity=127 time=0
EXTRACT: note_on channel=5 note=80 velocity=116 time=0.0047961666666666665
EXTRACT: note_on channel=9 note=35 velocity=97 time=0
EXTRACT: note_on channel=11 note=44 velocity=0 time=0.026378916666666665
EXTRACT: control_change channel=4 control=11 value=108 time=0.0047961666666666665
EXTRACT: control_change channel=5 control=11 value=59 time=0
EXTRACT: control_change channel=7 control=11 value=117 time=0.007194249999999999
EXTRACT: control_change channel=6 control=11 value=115 time=0.009592333333333333
EXTRACT: note_on channel=9 note=70 velocity=0 time=0.0023980833333333332
EXTRACT: note_on channel=9 note=35 velocity=0 time=0.007194249999999999
EXTRACT: control_change channel=7 control=11 value=112 time=0.0023980833333333332
EXTRACT: control_change channel=6 control=11 value=110 time=0.011990416666666667
EXTRACT: control_change channel=7 control=11 value=106 time=0.011990416666666667
EXTRACT: control_change channel=6 control=11 value=100 time=0.019184666666666666
EXTRACT: control_change channel=7 control=11 value=97 time=0.011990416666666667
EXTRACT: control_change channel=4 control=11 value=116 time=0.009592333333333333
EXTRACT: control_change channel=6 control=11 value=94 time=0.009592333333333333
EXTRACT: control_change channel=7 control=11 value=92 time=0.0047961666666666665
EXTRACT: control_change channel=6 control=11 value=90 time=0.016786583333333334
EXTRACT: control_change channel=7 control=11 value=88 time=0.014388499999999999
EXTRACT: control_change channel=5 control=11 value=57 time=0.009592333333333333
EXTRACT: control_change channel=6 control=11 value=86 time=0.009592333333333333
EXTRACT: note_on channel=7 note=44 velocity=0 time=0.019184666666666666
EXTRACT: control_change channel=7 control=11 value=120 time=0
EXTRACT: note_on channel=6 note=56 velocity=0 time=0.0023980833333333332
EXTRACT: note_on channel=7 note=44 velocity=66 time=0.007194249999999999
EXTRACT: note_on channel=1 note=32 velocity=126 time=0.0023980833333333332
EXTRACT: note_on channel=6 note=56 velocity=62 time=0
EXTRACT: note_on channel=9 note=70 velocity=77 time=0.0047961666666666665
EXTRACT: control_change channel=6 control=11 value=116 time=0.009592333333333333
EXTRACT: control_change channel=7 control=11 value=111 time=0.0047961666666666665
EXTRACT: note_on channel=9 note=46 velocity=61 time=0.0023980833333333332
EXTRACT: control_change channel=6 control=11 value=104 time=0.009592333333333333
EXTRACT: control_change channel=7 control=11 value=98 time=0.0047961666666666665
EXTRACT: control_change channel=6 control=11 value=94 time=0.009592333333333333
EXTRACT: control_change channel=7 control=11 value=90 time=0.0047961666666666665
EXTRACT: control_change channel=6 control=11 value=86 time=0.011990416666666667
EXTRACT: note_on channel=9 note=70 velocity=0 time=0
EXTRACT: control_change channel=7 control=11 value=81 time=0.0047961666666666665
EXTRACT: control_change channel=6 control=11 value=76 time=0.009592333333333333
EXTRACT: note_on channel=9 note=46 velocity=0 time=0.0023980833333333332
EXTRACT: control_change channel=7 control=11 value=72 time=0.0023980833333333332
EXTRACT: control_change channel=6 control=11 value=69 time=0.011990416666666667
EXTRACT: control_change channel=7 control=11 value=67 time=0.0047961666666666665
EXTRACT: control_change channel=7 control=11 value=64 time=0.007194249999999999
EXTRACT: control_change channel=6 control=11 value=64 time=0.0023980833333333332
EXTRACT: control_change channel=7 control=11 value=61 time=0.0047961666666666665
EXTRACT: note_on channel=9 note=70 velocity=67 time=0.009592333333333333
EXTRACT: control_change channel=6 control=11 value=59 time=0.0023980833333333332
EXTRACT: note_on channel=9 note=42 velocity=109 time=0.0047961666666666665
EXTRACT: control_change channel=7 control=11 value=56 time=0.007194249999999999
EXTRACT: control_change channel=6 control=11 value=54 time=0.009592333333333333
EXTRACT: control_change channel=7 control=11 value=51 time=0.007194249999999999
EXTRACT: control_change channel=6 control=11 value=49 time=0.009592333333333333
EXTRACT: control_change channel=7 control=11 value=47 time=0.0047961666666666665
EXTRACT: note_on channel=9 note=70 velocity=0 time=0.011990416666666667
EXTRACT: note_on channel=9 note=42 velocity=0 time=0.007194249999999999
EXTRACT: control_change channel=6 control=11 value=45 time=0.007194249999999999
EXTRACT: note_on channel=1 note=32 velocity=0 time=0.031175083333333332
EXTRACT: note_on channel=9 note=70 velocity=108 time=0.014388499999999999
EXTRACT: note_on channel=11 note=44 velocity=127 time=0.0023980833333333332
EXTRACT: note_on channel=9 note=37 velocity=91 time=0.0047961666666666665
EXTRACT: note_on channel=9 note=28 velocity=68 time=0
EXTRACT: note_on channel=9 note=39 velocity=67 time=0
EXTRACT: note_on channel=9 note=35 velocity=97 time=0
EXTRACT: note_on channel=9 note=28 velocity=0 time=0.0023980833333333332
EXTRACT: note_on channel=9 note=37 velocity=0 time=0
EXTRACT: note_on channel=9 note=40 velocity=64 time=0.0023980833333333332
EXTRACT: control_change channel=4 control=11 value=116 time=0.0023980833333333332
EXTRACT: note_on channel=3 note=72 velocity=81 time=0.0047961666666666665
EXTRACT: note_on channel=3 note=84 velocity=111 time=0
EXTRACT: control_change channel=7 control=11 value=43 time=0.0023980833333333332
EXTRACT: note_on channel=11 note=44 velocity=0 time=0.011990416666666667
EXTRACT: note_on channel=9 note=39 velocity=50 time=0.0047961666666666665
EXTRACT: note_on channel=9 note=70 velocity=0 time=0.019184666666666666
EXTRACT: note_on channel=9 note=39 velocity=0 time=0.007194249999999999
EXTRACT: note_on channel=9 note=35 velocity=0 time=0
EXTRACT: note_on channel=9 note=40 velocity=0 time=0.0047961666666666665
EXTRACT: note_on channel=9 note=39 velocity=0 time=0.026378916666666665
EXTRACT: control_change channel=6 control=11 value=45 time=0.04556358333333333
EXTRACT: control_change channel=4 control=11 value=108 time=0.007194249999999999
EXTRACT: control_change channel=7 control=11 value=47 time=0.007194249999999999
EXTRACT: control_change channel=6 control=11 value=49 time=0.009592333333333333
EXTRACT: control_change channel=7 control=11 value=51 time=0.011990416666666667
EXTRACT: control_change channel=6 control=11 value=53 time=0.019184666666666666
EXTRACT: control_change channel=7 control=11 value=55 time=0.0047961666666666665
EXTRACT: note_on channel=3 note=84 velocity=0 time=0.019184666666666666
EXTRACT: note_on channel=3 note=72 velocity=0 time=0
EXTRACT: note_on channel=9 note=70 velocity=75 time=0.0023980833333333332
EXTRACT: note_on channel=1 note=32 velocity=118 time=0.0047961666666666665
EXTRACT: control_change channel=6 control=11 value=57 time=0
EXTRACT: note_on channel=3 note=70 velocity=80 time=0.021582749999999998
EXTRACT: note_on channel=3 note=82 velocity=110 time=0
EXTRACT: note_on channel=9 note=46 velocity=59 time=0
EXTRACT: control_change channel=7 control=11 value=59 time=0.007194249999999999
EXTRACT: note_on channel=9 note=70 velocity=0 time=0.023980833333333333
EXTRACT: note_on channel=3 note=82 velocity=0 time=0.019184666666666666
EXTRACT: note_on channel=3 note=70 velocity=0 time=0
EXTRACT: note_on channel=9 note=46 velocity=0 time=0.007194249999999999
EXTRACT: control_change channel=4 control=11 value=100 time=0.011990416666666667
EXTRACT: control_change channel=6 control=11 value=62 time=0.016786583333333334
EXTRACT: control_change channel=7 control=11 value=64 time=0.007194249999999999
EXTRACT: control_change channel=6 control=11 value=64 time=0.0023980833333333332
EXTRACT: note_on channel=9 note=70 velocity=67 time=0.0047961666666666665
EXTRACT: note_on channel=9 note=42 velocity=108 time=0.009592333333333333
EXTRACT: control_change channel=6 control=11 value=66 time=0.023980833333333333
EXTRACT: note_on channel=9 note=70 velocity=0 time=0.023980833333333333
EXTRACT: note_on channel=9 note=42 velocity=0 time=0.009592333333333333
EXTRACT: note_on channel=1 note=32 velocity=0 time=0.035971249999999996
EXTRACT: note_on channel=9 note=70 velocity=108 time=0.014388499999999999
EXTRACT: note_on channel=5 note=80 velocity=0 time=0.007194249999999999
EXTRACT: note_on channel=5 note=84 velocity=121 time=0.0023980833333333332
EXTRACT: note_on channel=9 note=35 velocity=97 time=0
EXTRACT: note_on channel=3 note=70 velocity=82 time=0.007194249999999999
EXTRACT: note_on channel=3 note=82 velocity=113 time=0
EXTRACT: control_change channel=7 control=11 value=68 time=0.007194249999999999
EXTRACT: control_change channel=5 control=11 value=59 time=0.007194249999999999
EXTRACT: note_on channel=9 note=70 velocity=0 time=0.026378916666666665
EXTRACT: note_on channel=9 note=35 velocity=0 time=0.009592333333333333
EXTRACT: control_change channel=6 control=11 value=70 time=0.021582749999999998
EXTRACT: control_change channel=7 control=11 value=72 time=0.050359749999999995
EXTRACT: control_change channel=6 control=11 value=74 time=0.026378916666666665
EXTRACT: note_on channel=3 note=82 velocity=0 time=0.03836933333333333
EXTRACT: note_on channel=3 note=70 velocity=0 time=0
EXTRACT: control_change channel=5 control=11 value=57 time=0
EXTRACT: control_change channel=7 control=11 value=76 time=0.007194249999999999
EXTRACT: control_change channel=6 control=11 value=78 time=0.009592333333333333
EXTRACT: control_change channel=7 control=11 value=80 time=0.0047961666666666665
EXTRACT: note_on channel=1 note=32 velocity=121 time=0.0023980833333333332
EXTRACT: note_on channel=3 note=68 velocity=77 time=0.0023980833333333332
EXTRACT: note_on channel=3 note=80 velocity=106 time=0
EXTRACT: note_on channel=9 note=70 velocity=76 time=0.0047961666666666665
EXTRACT: note_on channel=9 note=46 velocity=61 time=0.014388499999999999
EXTRACT: control_change channel=6 control=11 value=82 time=0.0023980833333333332
EXTRACT: control_change channel=7 control=11 value=84 time=0.0047961666666666665
EXTRACT: control_change channel=6 control=11 value=86 time=0.009592333333333333
EXTRACT: control_change channel=7 control=11 value=88 time=0.014388499999999999
EXTRACT: note_on channel=3 note=80 velocity=0 time=0.0023980833333333332
EXTRACT: note_on channel=3 note=68 velocity=0 time=0
EXTRACT: note_on channel=9 note=70 velocity=0 time=0.009592333333333333
EXTRACT: control_change channel=6 control=11 value=90 time=0.007194249999999999
EXTRACT: control_change channel=7 control=11 value=92 time=0.0047961666666666665
EXTRACT: note_on channel=9 note=46 velocity=0 time=0.0023980833333333332
EXTRACT: control_change channel=6 control=11 value=94 time=0.007194249999999999
EXTRACT: control_change channel=7 control=11 value=96 time=0.014388499999999999
EXTRACT: control_change channel=6 control=11 value=98 time=0.009592333333333333
EXTRACT: control_change channel=7 control=11 value=100 time=0.0047961666666666665
EXTRACT: control_change channel=6 control=11 value=102 time=0.009592333333333333
EXTRACT: note_on channel=9 note=70 velocity=67 time=0
EXTRACT: note_on channel=9 note=42 velocity=108 time=0.007194249999999999
EXTRACT: control_change channel=7 control=11 value=104 time=0.007194249999999999
EXTRACT: control_change channel=6 control=11 value=106 time=0.009592333333333333
EXTRACT: control_change channel=7 control=11 value=108 time=0.0047961666666666665
EXTRACT: control_change channel=6 control=11 value=110 time=0.011990416666666667
EXTRACT: control_change channel=7 control=11 value=113 time=0.0047961666666666665
EXTRACT: control_change channel=6 control=11 value=115 time=0.009592333333333333
EXTRACT: note_on channel=9 note=70 velocity=0 time=0.0023980833333333332
EXTRACT: control_change channel=7 control=11 value=117 time=0.0023980833333333332
EXTRACT: note_on channel=9 note=42 velocity=0 time=0.0047961666666666665
EXTRACT: control_change channel=6 control=11 value=119 time=0.014388499999999999
EXTRACT: note_on channel=1 note=32 velocity=0 time=0.021582749999999998
EXTRACT: note_on channel=7 note=44 velocity=0 time=0
EXTRACT: note_on channel=6 note=56 velocity=0 time=0.0047961666666666665
EXTRACT: control_change channel=4 control=11 value=104 time=0.0023980833333333332
EXTRACT: note_on channel=9 note=70 velocity=107 time=0.009592333333333333
EXTRACT: note_on channel=3 note=68 velocity=82 time=0.0023980833333333332
EXTRACT: note_on channel=3 note=80 velocity=113 time=0
EXTRACT: note_on channel=9 note=40 velocity=54 time=0.0047961666666666665
EXTRACT: note_on channel=9 note=37 velocity=91 time=0
EXTRACT: note_on channel=9 note=28 velocity=68 time=0
EXTRACT: note_on channel=9 note=39 velocity=72 time=0
EXTRACT: note_on channel=9 note=35 velocity=97 time=0
EXTRACT: note_on channel=9 note=28 velocity=0 time=0.0023980833333333332
EXTRACT: note_on channel=9 note=37 velocity=0 time=0
EXTRACT: note_on channel=9 note=39 velocity=55 time=0.028776999999999997
EXTRACT: note_on channel=9 note=70 velocity=0 time=0.019184666666666666
EXTRACT: note_on channel=9 note=35 velocity=0 time=0.007194249999999999
EXTRACT: note_on channel=9 note=40 velocity=0 time=0
EXTRACT: note_on channel=9 note=39 velocity=0 time=0
EXTRACT: control_change channel=5 control=11 value=59 time=0.028776999999999997
EXTRACT: note_on channel=9 note=39 velocity=0 time=0.0023980833333333332
EXTRACT: note_on channel=7 note=44 velocity=66 time=0.06954441666666666
EXTRACT: note_on channel=6 note=56 velocity=62 time=0.0023980833333333332
EXTRACT: control_change channel=7 control=11 value=117 time=0.021582749999999998
EXTRACT: control_change channel=6 control=11 value=114 time=0.016786583333333334
EXTRACT: control_change channel=7 control=11 value=110 time=0.007194249999999999
EXTRACT: control_change channel=6 control=11 value=108 time=0.009592333333333333
EXTRACT: note_on channel=1 note=32 velocity=122 time=0.0047961666666666665
EXTRACT: control_change channel=7 control=11 value=105 time=0
EXTRACT: note_on channel=9 note=70 velocity=73 time=0.0047961666666666665
EXTRACT: control_change channel=6 control=11 value=101 time=0.0047961666666666665
EXTRACT: control_change channel=7 control=11 value=99 time=0.007194249999999999
EXTRACT: note_on channel=9 note=46 velocity=61 time=0.0047961666666666665
EXTRACT: control_change channel=6 control=11 value=97 time=0.0047961666666666665
EXTRACT: control_change channel=7 control=11 value=95 time=0.0047961666666666665
EXTRACT: control_change channel=6 control=11 value=93 time=0.009592333333333333
EXTRACT: control_change channel=7 control=11 value=90 time=0.014388499999999999
EXTRACT: control_change channel=5 control=11 value=57 time=0.0047961666666666665
EXTRACT: note_on channel=9 note=70 velocity=0 time=0.0023980833333333332
EXTRACT: note_on channel=9 note=46 velocity=0 time=0.016786583333333334
EXTRACT: control_change channel=6 control=11 value=88 time=0.016786583333333334
EXTRACT: control_change channel=7 control=11 value=86 time=0.021582749999999998
EXTRACT: note_on channel=9 note=70 velocity=67 time=0.0047961666666666665
EXTRACT: note_on channel=9 note=42 velocity=109 time=0.007194249999999999
EXTRACT: control_change channel=4 control=11 value=100 time=0.009592333333333333
EXTRACT: control_change channel=6 control=11 value=84 time=0.0047961666666666665
EXTRACT: control_change channel=7 control=11 value=82 time=0.0047961666666666665
EXTRACT: control_change channel=6 control=11 value=80 time=0.019184666666666666
EXTRACT: note_on channel=9 note=70 velocity=0 time=0.011990416666666667
EXTRACT: note_on channel=9 note=42 velocity=0 time=0.007194249999999999
EXTRACT: note_on channel=7 note=44 velocity=0 time=0.031175083333333332
EXTRACT: control_change channel=7 control=11 value=120 time=0
EXTRACT: note_on channel=6 note=56 velocity=0 time=0.0023980833333333332
EXTRACT: note_on channel=1 note=32 velocity=0 time=0.0047961666666666665
EXTRACT: note_on channel=7 note=48 velocity=71 time=0.0047961666666666665
EXTRACT: note_on channel=6 note=60 velocity=71 time=0.0023980833333333332
EXTRACT: note_on channel=4 note=68 velocity=0 time=0.007194249999999999
EXTRACT: note_on channel=4 note=63 velocity=0 time=0
EXTRACT: note_on channel=4 note=51 velocity=0 time=0
EXTRACT: note_on channel=4 note=60 velocity=0 time=0
EXTRACT: note_on channel=9 note=70 velocity=108 time=0
EXTRACT: note_on channel=4 note=60 velocity=81 time=0.0047961666666666665
EXTRACT: note_on channel=4 note=48 velocity=75 time=0
EXTRACT: note_on channel=4 note=67 velocity=85 time=0
EXTRACT: note_on channel=4 note=63 velocity=82 time=0
EXTRACT: note_on channel=5 note=84 velocity=0 time=0.0023980833333333332
EXTRACT: note_on channel=5 note=79 velocity=122 time=0
EXTRACT: note_on channel=9 note=35 velocity=97 time=0
EXTRACT: control_change channel=5 control=11 value=59 time=0.023980833333333333
EXTRACT: note_on channel=3 note=80 velocity=0 time=0.0047961666666666665
EXTRACT: note_on channel=3 note=68 velocity=0 time=0
EXTRACT: control_change channel=6 control=11 value=118 time=0.011990416666666667
EXTRACT: control_change channel=7 control=11 value=116 time=0.0047961666666666665
EXTRACT: note_on channel=9 note=70 velocity=0 time=0.0047961666666666665
EXTRACT: control_change channel=4 control=11 value=110 time=0.0047961666666666665
EXTRACT: note_on channel=9 note=35 velocity=0 time=0.0023980833333333332
EXTRACT: control_change channel=6 control=11 value=114 time=0.007194249999999999
EXTRACT: control_change channel=7 control=11 value=112 time=0.0047961666666666665
EXTRACT: control_change channel=6 control=11 value=108 time=0.019184666666666666
EXTRACT: control_change channel=7 control=11 value=103 time=0.011990416666666667
EXTRACT: control_change channel=6 control=11 value=101 time=0.019184666666666666
EXTRACT: control_change channel=7 control=11 value=99 time=0.0047961666666666665
EXTRACT: control_change channel=6 control=11 value=96 time=0.016786583333333334
EXTRACT: control_change channel=4 control=11 value=118 time=0.007194249999999999
EXTRACT: control_change channel=7 control=11 value=94 time=0.007194249999999999
EXTRACT: control_change channel=6 control=11 value=92 time=0.026378916666666665
EXTRACT: control_change channel=5 control=11 value=57 time=0.0047961666666666665
EXTRACT: note_on channel=7 note=48 velocity=0 time=0.021582749999999998
EXTRACT: note_on channel=6 note=60 velocity=0 time=0.0023980833333333332
EXTRACT: control_change channel=7 control=11 value=120 time=0
EXTRACT: note_on channel=7 note=48 velocity=66 time=0.007194249999999999
EXTRACT: note_on channel=1 note=36 velocity=116 time=0.0023980833333333332
EXTRACT: note_on channel=6 note=60 velocity=65 time=0
EXTRACT: note_on channel=9 note=70 velocity=77 time=0.007194249999999999
EXTRACT: control_change channel=6 control=11 value=117 time=0.007194249999999999
EXTRACT: control_change channel=7 control=11 value=112 time=0.007194249999999999
EXTRACT: note_on channel=9 note=46 velocity=61 time=0
EXTRACT: control_change channel=6 control=11 value=107 time=0.009592333333333333
EXTRACT: control_change channel=7 control=11 value=102 time=0.0047961666666666665
EXTRACT: note_on channel=3 note=63 velocity=83 time=0.0023980833333333332
EXTRACT: note_on channel=3 note=75 velocity=115 time=0
EXTRACT: control_change channel=6 control=11 value=98 time=0.007194249999999999
EXTRACT: control_change channel=7 control=11 value=95 time=0.007194249999999999
EXTRACT: control_change channel=6 control=11 value=91 time=0.009592333333333333
EXTRACT: note_on channel=9 note=70 velocity=0 time=0.0023980833333333332
EXTRACT: control_change channel=7 control=11 value=87 time=0.0023980833333333332
EXTRACT: control_change channel=6 control=11 value=83 time=0.009592333333333333
EXTRACT: note_on channel=9 note=46 velocity=0 time=0.0023980833333333332
EXTRACT: control_change channel=7 control=11 value=80 time=0.0047961666666666665
EXTRACT: control_change channel=6 control=11 value=77 time=0.009592333333333333
EXTRACT: control_change channel=7 control=11 value=75 time=0.0047961666666666665
EXTRACT: note_on channel=3 note=75 velocity=0 time=0.009592333333333333
EXTRACT: note_on channel=3 note=63 velocity=0 time=0
EXTRACT: control_change channel=6 control=11 value=73 time=0
EXTRACT: control_change channel=7 control=11 value=70 time=0.007194249999999999
EXTRACT: note_on channel=9 note=70 velocity=67 time=0.007194249999999999
EXTRACT: control_change channel=6 control=11 value=67 time=0.009592333333333333
EXTRACT: note_on channel=9 note=42 velocity=113 time=0
EXTRACT: control_change channel=7 control=11 value=64 time=0.014388499999999999
EXTRACT: control_change channel=6 control=11 value=64 time=0.0023980833333333332
EXTRACT: control_change channel=6 control=11 value=62 time=0.007194249999999999
EXTRACT: control_change channel=7 control=11 value=60 time=0.0047961666666666665
EXTRACT: control_change channel=6 control=11 value=58 time=0.019184666666666666
EXTRACT: note_on channel=9 note=70 velocity=0 time=0
EXTRACT: note_on channel=9 note=42 velocity=0 time=0.009592333333333333
EXTRACT: note_on channel=1 note=36 velocity=0 time=0.035971249999999996
EXTRACT: control_change channel=7 control=11 value=56 time=0.007194249999999999
EXTRACT: note_on channel=9 note=70 velocity=103 time=0.007194249999999999
EXTRACT: note_on channel=3 note=72 velocity=80 time=0.009592333333333333
EXTRACT: note_on channel=3 note=84 velocity=110 time=0
EXTRACT: note_on channel=9 note=37 velocity=91 time=0
EXTRACT: note_on channel=9 note=28 velocity=68 time=0
EXTRACT: note_on channel=9 note=39 velocity=67 time=0
EXTRACT: note_on channel=9 note=35 velocity=97 time=0
EXTRACT: note_on channel=9 note=28 velocity=0 time=0.0023980833333333332
EXTRACT: note_on channel=9 note=37 velocity=0 time=0
EXTRACT: note_on channel=9 note=40 velocity=65 time=0
EXTRACT: control_change channel=6 control=11 value=54 time=0.021582749999999998
EXTRACT: note_on channel=9 note=39 velocity=50 time=0.007194249999999999
EXTRACT: control_change channel=4 control=11 value=114 time=0.007194249999999999
EXTRACT: note_on channel=9 note=70 velocity=0 time=0.009592333333333333
EXTRACT: note_on channel=9 note=39 velocity=0 time=0.009592333333333333
EXTRACT: note_on channel=9 note=35 velocity=0 time=0
EXTRACT: note_on channel=9 note=40 velocity=0 time=0.0023980833333333332
EXTRACT: control_change channel=7 control=11 value=56 time=0.023980833333333333
EXTRACT: note_on channel=9 note=39 velocity=0 time=0.0047961666666666665
EXTRACT: control_change channel=5 control=11 value=59 time=0.011990416666666667
EXTRACT: control_change channel=6 control=11 value=58 time=0.047961666666666666
EXTRACT: control_change channel=7 control=11 value=60 time=0.0047961666666666665
EXTRACT: control_change channel=6 control=11 value=62 time=0.009592333333333333
EXTRACT: control_change channel=4 control=11 value=106 time=0.014388499999999999
EXTRACT: control_change channel=7 control=11 value=64 time=0.007194249999999999
EXTRACT: control_change channel=6 control=11 value=64 time=0.0023980833333333332
EXTRACT: note_on channel=3 note=84 velocity=0 time=0.011990416666666667
EXTRACT: note_on channel=3 note=72 velocity=0 time=0
EXTRACT: control_change channel=6 control=11 value=66 time=0.011990416666666667
EXTRACT: note_on channel=9 note=70 velocity=75 time=0.0023980833333333332
EXTRACT: note_on channel=1 note=36 velocity=115 time=0.0047961666666666665
EXTRACT: note_on channel=3 note=70 velocity=78 time=0.011990416666666667
EXTRACT: note_on channel=3 note=82 velocity=107 time=0
EXTRACT: note_on channel=9 note=46 velocity=62 time=0.009592333333333333
EXTRACT: control_change channel=7 control=11 value=69 time=0.007194249999999999
EXTRACT: control_change channel=5 control=11 value=57 time=0.0023980833333333332
EXTRACT: note_on channel=9 note=70 velocity=0 time=0.021582749999999998
EXTRACT: note_on channel=3 note=82 velocity=0 time=0.011990416666666667
EXTRACT: note_on channel=3 note=70 velocity=0 time=0
EXTRACT: note_on channel=9 note=46 velocity=0 time=0.014388499999999999
EXTRACT: control_change channel=6 control=11 value=72 time=0.031175083333333332
EXTRACT: note_on channel=9 note=70 velocity=67 time=0.014388499999999999
EXTRACT: note_on channel=9 note=42 velocity=111 time=0.007194249999999999
EXTRACT: control_change channel=7 control=11 value=75 time=0.021582749999999998
EXTRACT: note_on channel=9 note=70 velocity=0 time=0.028776999999999997
EXTRACT: note_on channel=9 note=42 velocity=0 time=0.007194249999999999
EXTRACT: note_on channel=1 note=36 velocity=0 time=0.035971249999999996
EXTRACT: control_change channel=4 control=11 value=98 time=0.016786583333333334
EXTRACT: note_on channel=9 note=70 velocity=103 time=0
EXTRACT: note_on channel=5 note=79 velocity=0 time=0.0047961666666666665
EXTRACT: note_on channel=5 note=82 velocity=120 time=0.0023980833333333332
EXTRACT: note_on channel=9 note=35 velocity=97 time=0
EXTRACT: note_on channel=3 note=70 velocity=83 time=0.011990416666666667
EXTRACT: note_on channel=3 note=82 velocity=115 time=0
EXTRACT: control_change channel=5 control=11 value=59 time=0.011990416666666667
EXTRACT: note_on channel=9 note=70 velocity=0 time=0.026378916666666665
EXTRACT: note_on channel=9 note=35 velocity=0 time=0.007194249999999999
EXTRACT: control_change channel=6 control=11 value=78 time=0.014388499999999999
EXTRACT: control_change channel=7 control=11 value=81 time=0.07434058333333333
EXTRACT: control_change channel=5 control=11 value=57 time=0.047961666666666666
EXTRACT: control_change channel=6 control=11 value=83 time=0.009592333333333333
EXTRACT: control_change channel=7 control=11 value=85 time=0.0047961666666666665
EXTRACT: note_on channel=3 note=82 velocity=0 time=0.0023980833333333332
EXTRACT: note_on channel=3 note=70 velocity=0 time=0
EXTRACT: note_on channel=1 note=36 velocity=116 time=0.009592333333333333
EXTRACT: control_change channel=6 control=11 value=87 time=0.007194249999999999
EXTRACT: note_on channel=3 note=68 velocity=78 time=0.0023980833333333332
EXTRACT: note_on channel=3 note=80 velocity=107 time=0
EXTRACT: note_on channel=9 note=82 velocity=65 time=0.0047961666666666665
EXTRACT: control_change channel=7 control=11 value=89 time=0.0047961666666666665
EXTRACT: note_on channel=9 note=46 velocity=63 time=0.0023980833333333332
EXTRACT: control_change channel=6 control=11 value=92 time=0.016786583333333334
EXTRACT: note_on channel=3 note=80 velocity=0 time=0.021582749999999998
EXTRACT: note_on channel=3 note=68 velocity=0 time=0
EXTRACT: control_change channel=7 control=11 value=94 time=0
EXTRACT: note_on channel=9 note=82 velocity=0 time=0.011990416666666667
EXTRACT: control_change channel=6 control=11 value=97 time=0.0047961666666666665
EXTRACT: note_on channel=9 note=46 velocity=0 time=0.0023980833333333332
EXTRACT: control_change channel=7 control=11 value=99 time=0.011990416666666667
EXTRACT: control_change channel=6 control=11 value=101 time=0.009592333333333333
EXTRACT: control_change channel=7 control=11 value=104 time=0.011990416666666667
EXTRACT: note_on channel=9 note=82 velocity=57 time=0.016786583333333334
EXTRACT: note_on channel=9 note=42 velocity=111 time=0
EXTRACT: control_change channel=6 control=11 value=106 time=0.0023980833333333332
EXTRACT: control_change channel=7 control=11 value=108 time=0.0047961666666666665
EXTRACT: control_change channel=6 control=11 value=111 time=0.019184666666666666
EXTRACT: control_change channel=7 control=11 value=113 time=0.0047961666666666665
EXTRACT: control_change channel=6 control=11 value=115 time=0.009592333333333333
EXTRACT: note_on channel=9 note=39 velocity=50 time=0
EXTRACT: control_change channel=7 control=11 value=118 time=0.014388499999999999
EXTRACT: note_on channel=9 note=42 velocity=0 time=0.0023980833333333332
EXTRACT: note_on channel=9 note=82 velocity=0 time=0
EXTRACT: control_change channel=6 control=11 value=120 time=0.014388499999999999
EXTRACT: note_on channel=7 note=48 velocity=0 time=0.016786583333333334
EXTRACT: note_on channel=1 note=36 velocity=0 time=0.007194249999999999
EXTRACT: note_on channel=6 note=60 velocity=0 time=0
EXTRACT: note_on channel=9 note=39 velocity=0 time=0.0023980833333333332
EXTRACT: note_on channel=3 note=68 velocity=81 time=0.019184666666666666
EXTRACT: note_on channel=3 note=80 velocity=111 time=0
EXTRACT: note_on channel=9 note=40 velocity=56 time=0
EXTRACT: note_on channel=9 note=37 velocity=91 time=0
EXTRACT: note_on channel=9 note=28 velocity=68 time=0
EXTRACT: note_on channel=9 note=39 velocity=73 time=0
EXTRACT: note_on channel=9 note=82 velocity=71 time=0
EXTRACT: note_on channel=9 note=35 velocity=97 time=0
EXTRACT: note_on channel=9 note=28 velocity=0 time=0.0023980833333333332
EXTRACT: note_on channel=9 note=37 velocity=0 time=0
EXTRACT: control_change channel=4 control=11 value=106 time=0.021582749999999998
EXTRACT: note_on channel=9 note=39 velocity=55 time=0.007194249999999999
EXTRACT: note_on channel=9 note=39 velocity=0 time=0.026378916666666665
EXTRACT: note_on channel=9 note=82 velocity=0 time=0
EXTRACT: note_on channel=9 note=40 velocity=0 time=0
EXTRACT: note_on channel=9 note=35 velocity=0 time=0
EXTRACT: note_on channel=9 note=39 velocity=0 time=0.031175083333333332
EXTRACT: control_change channel=5 control=11 value=59 time=0.0047961666666666665
EXTRACT: note_on channel=7 note=48 velocity=71 time=0.12470033333333333
EXTRACT: note_on channel=1 note=36 velocity=113 time=0.0023980833333333332
EXTRACT: note_on channel=6 note=60 velocity=70 time=0
EXTRACT: note_on channel=9 note=82 velocity=53 time=0.014388499999999999
EXTRACT: note_on channel=9 note=46 velocity=62 time=0.007194249999999999
EXTRACT: pitchwheel channel=3 pitch=140 time=0.007194249999999999
EXTRACT: pitchwheel channel=3 pitch=360 time=0.0047961666666666665
EXTRACT: pitchwheel channel=3 pitch=640 time=0.0047961666666666665
EXTRACT: pitchwheel channel=3 pitch=980 time=0.0023980833333333332
EXTRACT: pitchwheel channel=3 pitch=1300 time=0
EXTRACT: control_change channel=5 control=11 value=57 time=0.0047961666666666665
EXTRACT: pitchwheel channel=3 pitch=1680 time=0.0047961666666666665
EXTRACT: pitchwheel channel=3 pitch=2120 time=0.0023980833333333332
EXTRACT: control_change channel=7 control=11 value=118 time=0
EXTRACT: pitchwheel channel=3 pitch=2580 time=0.0047961666666666665
EXTRACT: pitchwheel channel=3 pitch=3040 time=0
EXTRACT: pitchwheel channel=3 pitch=3520 time=0.007194249999999999
EXTRACT: pitchwheel channel=3 pitch=4000 time=0
EXTRACT: control_change channel=6 control=11 value=116 time=0.0047961666666666665
EXTRACT: pitchwheel channel=3 pitch=4440 time=0.0023980833333333332
EXTRACT: note_on channel=9 note=82 velocity=0 time=0
EXTRACT: pitchwheel channel=3 pitch=4920 time=0.0047961666666666665
EXTRACT: note_on channel=9 note=46 velocity=0 time=0.0023980833333333332
EXTRACT: pitchwheel channel=3 pitch=5480 time=0.0023980833333333332
EXTRACT: pitchwheel channel=3 pitch=6020 time=0.0023980833333333332
EXTRACT: control_change channel=7 control=11 value=114 time=0
EXTRACT: pitchwheel channel=3 pitch=6480 time=0.0047961666666666665
EXTRACT: pitchwheel channel=3 pitch=6960 time=0.0023980833333333332
EXTRACT: pitchwheel channel=3 pitch=7480 time=0.0047961666666666665
EXTRACT: pitchwheel channel=3 pitch=7900 time=0.0047961666666666665
EXTRACT: control_change channel=6 control=11 value=111 time=0
EXTRACT: pitchwheel channel=3 pitch=8160 time=0.0023980833333333332
EXTRACT: pitchwheel channel=3 pitch=8191 time=0.0047961666666666665
EXTRACT: control_change channel=7 control=11 value=108 time=0.007194249999999999
EXTRACT: note_on channel=3 note=80 velocity=0 time=0.009592333333333333
EXTRACT: note_on channel=3 note=68 velocity=0 time=0
EXTRACT: control_change channel=6 control=11 value=106 time=0.007194249999999999
EXTRACT: note_on channel=9 note=82 velocity=50 time=0
EXTRACT: note_on channel=9 note=42 velocity=113 time=0
EXTRACT: control_change channel=7 control=11 value=104 time=0.014388499999999999
EXTRACT: control_change channel=6 control=11 value=102 time=0.016786583333333334
EXTRACT: control_change channel=7 control=11 value=100 time=0.021582749999999998
EXTRACT: note_on channel=9 note=42 velocity=0 time=0.0047961666666666665
EXTRACT: note_on channel=9 note=82 velocity=0 time=0
EXTRACT: note_on channel=7 note=48 velocity=0 time=0.03357316666666667
EXTRACT: note_on channel=1 note=36 velocity=0 time=0.0023980833333333332
EXTRACT: note_on channel=6 note=60 velocity=0 time=0
EXTRACT: control_change channel=6 control=11 value=120 time=0
EXTRACT: note_on channel=7 note=49 velocity=73 time=0.007194249999999999
EXTRACT: note_on channel=6 note=61 velocity=72 time=0.0023980833333333332
EXTRACT: pitchwheel channel=3 pitch=0 time=0.0023980833333333332
EXTRACT: note_on channel=9 note=70 velocity=103 time=0.0023980833333333332
EXTRACT: note_on channel=4 note=63 velocity=0 time=0.0047961666666666665
EXTRACT: note_on channel=4 note=60 velocity=0 time=0
EXTRACT: note_on channel=4 note=48 velocity=0 time=0
EXTRACT: note_on channel=4 note=67 velocity=0 time=0
EXTRACT: note_on channel=4 note=68 velocity=84 time=0
EXTRACT: note_on channel=4 note=65 velocity=84 time=0
EXTRACT: note_on channel=4 note=49 velocity=76 time=0
EXTRACT: note_on channel=4 note=61 velocity=81 time=0
EXTRACT: note_on channel=5 note=61 velocity=104 time=0
EXTRACT: note_on channel=5 note=77 velocity=114 time=0
EXTRACT: note_on channel=5 note=82 velocity=0 time=0.0023980833333333332
EXTRACT: note_on channel=3 note=77 velocity=114 time=0.0023980833333333332
EXTRACT: note_on channel=3 note=65 velocity=83 time=0
EXTRACT: control_change channel=4 control=11 value=105 time=0
EXTRACT: note_on channel=9 note=35 velocity=97 time=0
EXTRACT: control_change channel=5 control=11 value=59 time=0.021582749999999998
EXTRACT: control_change channel=7 control=11 value=118 time=0.014388499999999999
EXTRACT: control_change channel=6 control=11 value=116 time=0.011990416666666667
EXTRACT: note_on channel=9 note=70 velocity=0 time=0
EXTRACT: note_on channel=9 note=35 velocity=0 time=0.009592333333333333
EXTRACT: control_change channel=7 control=11 value=114 time=0.0023980833333333332
EXTRACT: control_change channel=6 control=11 value=112 time=0.009592333333333333
EXTRACT: control_change channel=7 control=11 value=109 time=0.014388499999999999
EXTRACT: control_change channel=4 control=11 value=113 time=0.009592333333333333
EXTRACT: control_change channel=6 control=11 value=107 time=0
EXTRACT: control_change channel=7 control=11 value=104 time=0.0047961666666666665
EXTRACT: control_change channel=6 control=11 value=101 time=0.019184666666666666
EXTRACT: control_change channel=7 control=11 value=98 time=0.011990416666666667
EXTRACT: control_change channel=6 control=11 value=96 time=0.019184666666666666
EXTRACT: control_change channel=7 control=11 value=94 time=0.011990416666666667
EXTRACT: control_change channel=5 control=11 value=57 time=0.016786583333333334
EXTRACT: control_change channel=6 control=11 value=92 time=0.009592333333333333
EXTRACT: note_on channel=7 note=49 velocity=0 time=0.021582749999999998
EXTRACT: control_change channel=7 control=11 value=120 time=0
EXTRACT: note_on channel=6 note=61 velocity=0 time=0.0023980833333333332
EXTRACT: note_on channel=7 note=49 velocity=69 time=0.0047961666666666665
EXTRACT: note_on channel=1 note=25 velocity=123 time=0.0023980833333333332
EXTRACT: note_on channel=6 note=61 velocity=62 time=0
EXTRACT: note_on channel=9 note=70 velocity=77 time=0.007194249999999999
EXTRACT: control_change channel=6 control=11 value=117 time=0.009592333333333333
EXTRACT: control_change channel=7 control=11 value=115 time=0.0047961666666666665
EXTRACT: note_on channel=9 note=46 velocity=61 time=0.0023980833333333332
EXTRACT: control_change channel=6 control=11 value=110 time=0.007194249999999999
EXTRACT: control_change channel=7 control=11 value=106 time=0.007194249999999999
EXTRACT: control_change channel=6 control=11 value=102 time=0.009592333333333333
EXTRACT: control_change channel=7 control=11 value=99 time=0.0047961666666666665
EXTRACT: control_change channel=6 control=11 value=96 time=0.009592333333333333
EXTRACT: note_on channel=9 note=70 velocity=0 time=0.0023980833333333332
EXTRACT: control_change channel=7 control=11 value=93 time=0.0047961666666666665
EXTRACT: control_change channel=6 control=11 value=90 time=0.009592333333333333
EXTRACT: note_on channel=9 note=46 velocity=0 time=0.0023980833333333332
EXTRACT: control_change channel=7 control=11 value=86 time=0.0023980833333333332
EXTRACT: control_change channel=6 control=11 value=83 time=0.009592333333333333
EXTRACT: control_change channel=7 control=11 value=80 time=0.007194249999999999
EXTRACT: control_change channel=6 control=11 value=78 time=0.009592333333333333
EXTRACT: control_change channel=7 control=11 value=76 time=0.0047961666666666665
EXTRACT: note_on channel=9 note=70 velocity=67 time=0.009592333333333333
EXTRACT: note_on channel=9 note=42 velocity=109 time=0.007194249999999999
EXTRACT: control_change channel=6 control=11 value=72 time=0.0023980833333333332
EXTRACT: control_change channel=7 control=11 value=70 time=0.0047961666666666665
EXTRACT: note_on channel=3 note=65 velocity=0 time=0.016786583333333334
EXTRACT: note_on channel=3 note=77 velocity=0 time=0
EXTRACT: control_change channel=6 control=11 value=68 time=0
EXTRACT: control_change channel=7 control=11 value=65 time=0.014388499999999999
EXTRACT: note_on channel=9 note=70 velocity=0 time=0.011990416666666667
EXTRACT: control_change channel=6 control=11 value=62 time=0.0047961666666666665
EXTRACT: note_on channel=9 note=42 velocity=0 time=0.0023980833333333332
EXTRACT: control_change channel=7 control=11 value=60 time=0.0047961666666666665
EXTRACT: control_change channel=6 control=11 value=58 time=0.016786583333333334
EXTRACT: control_change channel=4 control=11 value=117 time=0.007194249999999999
EXTRACT: note_on channel=1 note=25 velocity=0 time=0.007194249999999999
EXTRACT: note_on channel=9 note=70 velocity=108 time=0.016786583333333334
EXTRACT: note_on channel=5 note=77 velocity=0 time=0.0023980833333333332
EXTRACT: note_on channel=5 note=61 velocity=0 time=0
EXTRACT: note_on channel=5 note=79 velocity=117 time=0
EXTRACT: note_on channel=5 note=63 velocity=106 time=0
EXTRACT: note_on channel=9 note=37 velocity=91 time=0.0047961666666666665
EXTRACT: note_on channel=9 note=28 velocity=68 time=0
EXTRACT: note_on channel=9 note=39 velocity=67 time=0
EXTRACT: note_on channel=9 note=35 velocity=97 time=0
EXTRACT: note_on channel=9 note=28 velocity=0 time=0.0023980833333333332
EXTRACT: note_on channel=9 note=37 velocity=0 time=0
EXTRACT: note_on channel=9 note=40 velocity=64 time=0.0023980833333333332
EXTRACT: note_on channel=3 note=79 velocity=112 time=0.014388499999999999
EXTRACT: note_on channel=3 note=67 velocity=81 time=0
EXTRACT: control_change channel=5 control=11 value=59 time=0.0047961666666666665
EXTRACT: control_change channel=7 control=11 value=56 time=0.0047961666666666665
EXTRACT: note_on channel=9 note=39 velocity=50 time=0.0023980833333333332
EXTRACT: note_on channel=9 note=70 velocity=0 time=0.019184666666666666
EXTRACT: note_on channel=9 note=39 velocity=0 time=0.007194249999999999
EXTRACT: note_on channel=9 note=35 velocity=0 time=0
EXTRACT: control_change channel=5 control=11 value=61 time=0.0047961666666666665
EXTRACT: note_on channel=9 note=40 velocity=0 time=0
EXTRACT: control_change channel=6 control=11 value=54 time=0.016786583333333334
EXTRACT: note_on channel=9 note=39 velocity=0 time=0.009592333333333333
EXTRACT: control_change channel=5 control=11 value=59 time=0.035971249999999996
EXTRACT: control_change channel=4 control=11 value=109 time=0.007194249999999999
EXTRACT: control_change channel=7 control=11 value=56 time=0.023980833333333333
EXTRACT: control_change channel=5 control=11 value=57 time=0.031175083333333332
EXTRACT: note_on channel=9 note=70 velocity=75 time=0.026378916666666665
EXTRACT: note_on channel=1 note=25 velocity=122 time=0.007194249999999999
EXTRACT: control_change channel=6 control=11 value=58 time=0.007194249999999999
EXTRACT: control_change channel=7 control=11 value=61 time=0.011990416666666667
EXTRACT: note_on channel=9 note=46 velocity=59 time=0.0023980833333333332
EXTRACT: note_on channel=9 note=70 velocity=0 time=0.028776999999999997
EXTRACT: control_change channel=6 control=11 value=63 time=0.0023980833333333332
EXTRACT: control_change channel=7 control=11 value=65 time=0.014388499999999999
EXTRACT: note_on channel=9 note=46 velocity=0 time=0.011990416666666667
EXTRACT: control_change channel=6 control=11 value=67 time=0.0047961666666666665
EXTRACT: control_change channel=4 control=11 value=101 time=0.007194249999999999
EXTRACT: note_on channel=9 note=70 velocity=67 time=0.031175083333333332
EXTRACT: control_change channel=7 control=11 value=69 time=0.007194249999999999
EXTRACT: note_on channel=9 note=42 velocity=108 time=0
EXTRACT: note_on channel=9 note=70 velocity=0 time=0.050359749999999995
EXTRACT: note_on channel=9 note=42 velocity=0 time=0.007194249999999999
EXTRACT: note_on channel=3 note=67 velocity=0 time=0.016786583333333334
EXTRACT: note_on channel=3 note=79 velocity=0 time=0
EXTRACT: note_on channel=1 note=25 velocity=0 time=0.021582749999999998
EXTRACT: control_change channel=6 control=11 value=72 time=0
EXTRACT: note_on channel=9 note=70 velocity=108 time=0.014388499999999999
EXTRACT: note_on channel=5 note=63 velocity=0 time=0.0023980833333333332
EXTRACT: note_on channel=5 note=79 velocity=0 time=0
EXTRACT: note_on channel=5 note=80 velocity=116 time=0.0023980833333333332
EXTRACT: note_on channel=5 note=65 velocity=107 time=0
EXTRACT: note_on channel=9 note=35 velocity=97 time=0.0023980833333333332
EXTRACT: control_change channel=5 control=11 value=59 time=0.016786583333333334
EXTRACT: note_on channel=3 note=80 velocity=110 time=0.0023980833333333332
EXTRACT: note_on channel=3 note=68 velocity=80 time=0
EXTRACT: control_change channel=7 control=11 value=75 time=0.011990416666666667
EXTRACT: note_on channel=9 note=70 velocity=0 time=0.019184666666666666
EXTRACT: note_on channel=9 note=35 velocity=0 time=0.007194249999999999
EXTRACT: control_change channel=5 control=11 value=61 time=0.0047961666666666665
EXTRACT: control_change channel=5 control=11 value=59 time=0.062350166666666665
EXTRACT: control_change channel=5 control=11 value=57 time=0.07194249999999999
EXTRACT: note_on channel=1 note=25 velocity=120 time=0.023980833333333333
EXTRACT: control_change channel=6 control=11 value=77 time=0.007194249999999999
EXTRACT: note_on channel=9 note=70 velocity=76 time=0
EXTRACT: note_on channel=9 note=46 velocity=61 time=0.014388499999999999
EXTRACT: note_on channel=9 note=70 velocity=0 time=0.043165499999999996
EXTRACT: control_change channel=7 control=11 value=79 time=0.0023980833333333332
EXTRACT: note_on channel=9 note=46 velocity=0 time=0.011990416666666667
EXTRACT: control_change channel=6 control=11 value=81 time=0.031175083333333332
EXTRACT: note_on channel=9 note=70 velocity=67 time=0.014388499999999999
EXTRACT: note_on channel=9 note=42 velocity=108 time=0.007194249999999999
EXTRACT: control_change channel=7 control=11 value=84 time=0.03836933333333333
EXTRACT: note_on channel=3 note=68 velocity=0 time=0.009592333333333333
EXTRACT: note_on channel=3 note=80 velocity=0 time=0
EXTRACT: note_on channel=9 note=70 velocity=0 time=0.0023980833333333332
EXTRACT: control_change channel=6 control=11 value=86 time=0.0047961666666666665
EXTRACT: note_on channel=9 note=42 velocity=0 time=0.0023980833333333332
EXTRACT: control_change channel=7 control=11 value=88 time=0.019184666666666666
EXTRACT: note_on channel=1 note=25 velocity=0 time=0.016786583333333334
EXTRACT: control_change channel=6 control=11 value=90 time=0
EXTRACT: control_change channel=4 control=11 value=105 time=0.007194249999999999
EXTRACT: control_change channel=7 control=11 value=92 time=0.007194249999999999
EXTRACT: note_on channel=9 note=70 velocity=107 time=0
EXTRACT: note_on channel=5 note=65 velocity=0 time=0.0047961666666666665
EXTRACT: note_on channel=5 note=80 velocity=0 time=0
EXTRACT: note_on channel=5 note=67 velocity=107 time=0
EXTRACT: note_on channel=5 note=82 velocity=118 time=0
EXTRACT: note_on channel=9 note=40 velocity=55 time=0.0047961666666666665
EXTRACT: note_on channel=9 note=37 velocity=91 time=0
EXTRACT: note_on channel=9 note=28 velocity=68 time=0
EXTRACT: note_on channel=9 note=39 velocity=72 time=0
EXTRACT: note_on channel=9 note=35 velocity=97 time=0
EXTRACT: note_on channel=3 note=77 velocity=110 time=0.0023980833333333332
EXTRACT: note_on channel=3 note=65 velocity=80 time=0
EXTRACT: note_on channel=9 note=28 velocity=0 time=0
EXTRACT: note_on channel=9 note=37 velocity=0 time=0
EXTRACT: control_change channel=6 control=11 value=94 time=0.014388499999999999
EXTRACT: control_change channel=7 control=11 value=97 time=0.011990416666666667
EXTRACT: note_on channel=9 note=39 velocity=55 time=0.0023980833333333332
EXTRACT: control_change channel=5 control=11 value=59 time=0.007194249999999999
EXTRACT: control_change channel=6 control=11 value=99 time=0.009592333333333333
EXTRACT: note_on channel=9 note=70 velocity=0 time=0
EXTRACT: note_on channel=9 note=35 velocity=0 time=0.009592333333333333
EXTRACT: note_on channel=9 note=40 velocity=0 time=0
EXTRACT: note_on channel=9 note=39 velocity=0 time=0
EXTRACT: control_change channel=7 control=11 value=101 time=0.0023980833333333332
EXTRACT: control_change channel=6 control=11 value=103 time=0.019184666666666666
EXTRACT: control_change channel=7 control=11 value=105 time=0.0047961666666666665
EXTRACT: note_on channel=9 note=39 velocity=0 time=0.0047961666666666665
EXTRACT: control_change channel=6 control=11 value=108 time=0.021582749999999998
EXTRACT: control_change channel=7 control=11 value=110 time=0.011990416666666667
EXTRACT: control_change channel=6 control=11 value=112 time=0.009592333333333333
EXTRACT: control_change channel=7 control=11 value=114 time=0.007194249999999999
EXTRACT: control_change channel=6 control=11 value=117 time=0.016786583333333334
EXTRACT: control_change channel=5 control=11 value=57 time=0.014388499999999999
EXTRACT: control_change channel=7 control=11 value=120 time=0.007194249999999999
EXTRACT: note_on channel=7 note=49 velocity=0 time=0.026378916666666665
EXTRACT: note_on channel=6 note=61 velocity=0 time=0.009592333333333333
EXTRACT: note_on channel=1 note=25 velocity=120 time=0.0047961666666666665
EXTRACT: note_on channel=9 note=70 velocity=73 time=0.007194249999999999
EXTRACT: note_on channel=9 note=46 velocity=61 time=0.016786583333333334
EXTRACT: note_on channel=9 note=70 velocity=0 time=0.04076741666666667
EXTRACT: note_on channel=9 note=46 velocity=0 time=0.016786583333333334
EXTRACT: note_on channel=9 note=70 velocity=67 time=0.043165499999999996
EXTRACT: note_on channel=9 note=42 velocity=109 time=0.007194249999999999
EXTRACT: control_change channel=4 control=11 value=101 time=0.007194249999999999
EXTRACT: note_on channel=9 note=70 velocity=0 time=0.043165499999999996
EXTRACT: note_on channel=3 note=65 velocity=0 time=0.007194249999999999
EXTRACT: note_on channel=3 note=77 velocity=0 time=0
EXTRACT: note_on channel=9 note=42 velocity=0 time=0
EXTRACT: note_on channel=1 note=25 velocity=0 time=0.035971249999999996
EXTRACT: note_on channel=7 note=51 velocity=70 time=0.007194249999999999
EXTRACT: note_on channel=6 note=63 velocity=68 time=0.0023980833333333332
EXTRACT: note_on channel=9 note=70 velocity=108 time=0.007194249999999999
EXTRACT: note_on channel=3 note=79 velocity=112 time=0.0023980833333333332
EXTRACT: note_on channel=3 note=67 velocity=81 time=0
EXTRACT: note_on channel=4 note=61 velocity=0 time=0
EXTRACT: note_on channel=4 note=68 velocity=0 time=0
EXTRACT: note_on channel=4 note=65 velocity=0 time=0
EXTRACT: note_on channel=4 note=49 velocity=0 time=0
EXTRACT: note_on channel=4 note=55 velocity=81 time=0
EXTRACT: note_on channel=4 note=63 velocity=82 time=0
EXTRACT: note_on channel=4 note=70 velocity=87 time=0
EXTRACT: note_on channel=4 note=67 velocity=86 time=0
EXTRACT: note_on channel=5 note=82 velocity=0 time=0
EXTRACT: note_on channel=5 note=67 velocity=0 time=0
EXTRACT: note_on channel=5 note=63 velocity=107 time=0
EXTRACT: note_on channel=5 note=79 velocity=116 time=0
EXTRACT: control_change channel=6 control=11 value=118 time=0.0047961666666666665
EXTRACT: note_on channel=9 note=35 velocity=97 time=0
EXTRACT: control_change channel=7 control=11 value=116 time=0.007194249999999999
EXTRACT: control_change channel=6 control=11 value=112 time=0.009592333333333333
EXTRACT: control_change channel=7 control=11 value=107 time=0.0047961666666666665
EXTRACT: control_change channel=5 control=11 value=59 time=0.0023980833333333332
EXTRACT: control_change channel=6 control=11 value=102 time=0.007194249999999999
EXTRACT: control_change channel=7 control=11 value=98 time=0.007194249999999999
EXTRACT: control_change channel=6 control=11 value=95 time=0.009592333333333333
EXTRACT: note_on channel=9 note=70 velocity=0 time=0.0023980833333333332
EXTRACT: control_change channel=7 control=11 value=92 time=0.0023980833333333332
EXTRACT: control_change channel=4 control=11 value=110 time=0.0023980833333333332
EXTRACT: note_on channel=9 note=35 velocity=0 time=0.0023980833333333332
EXTRACT: control_change channel=6 control=11 value=89 time=0.0047961666666666665
EXTRACT: control_change channel=7 control=11 value=86 time=0.007194249999999999
EXTRACT: control_change channel=6 control=11 value=82 time=0.009592333333333333
EXTRACT: control_change channel=7 control=11 value=79 time=0.0047961666666666665
EXTRACT: control_change channel=6 control=11 value=76 time=0.011990416666666667
EXTRACT: control_change channel=7 control=11 value=73 time=0.0047961666666666665
EXTRACT: control_change channel=6 control=11 value=70 time=0.009592333333333333
EXTRACT: control_change channel=7 control=11 value=68 time=0.0047961666666666665
EXTRACT: control_change channel=6 control=11 value=65 time=0.019184666666666666
EXTRACT: control_change channel=7 control=11 value=62 time=0.0047961666666666665
EXTRACT: control_change channel=4 control=11 value=118 time=0.009592333333333333
EXTRACT: control_change channel=6 control=11 value=60 time=0
EXTRACT: control_change channel=7 control=11 value=58 time=0.014388499999999999
EXTRACT: control_change channel=6 control=11 value=55 time=0.016786583333333334
EXTRACT: control_change channel=5 control=11 value=57 time=0.007194249999999999
EXTRACT: control_change channel=7 control=11 value=52 time=0.007194249999999999
EXTRACT: control_change channel=6 control=11 value=50 time=0.009592333333333333
EXTRACT: control_change channel=7 control=11 value=47 time=0.014388499999999999
EXTRACT: note_on channel=1 note=27 velocity=124 time=0.0023980833333333332
EXTRACT: note_on channel=9 note=70 velocity=77 time=0.0047961666666666665
EXTRACT: note_on channel=9 note=46 velocity=61 time=0.016786583333333334
EXTRACT: control_change channel=6 control=11 value=44 time=0.009592333333333333
EXTRACT: note_on channel=9 note=70 velocity=0 time=0.031175083333333332
EXTRACT: note_on channel=9 note=46 velocity=0 time=0.016786583333333334
EXTRACT: note_on channel=9 note=70 velocity=67 time=0.043165499999999996
EXTRACT: note_on channel=9 note=42 velocity=113 time=0.007194249999999999
EXTRACT: control_change channel=7 control=11 value=42 time=0.007194249999999999
EXTRACT: note_on channel=3 note=67 velocity=0 time=0.043165499999999996
EXTRACT: note_on channel=3 note=79 velocity=0 time=0
EXTRACT: note_on channel=9 note=70 velocity=0 time=0
EXTRACT: note_on channel=9 note=42 velocity=0 time=0.007194249999999999
EXTRACT: note_on channel=1 note=27 velocity=0 time=0.03836933333333333
EXTRACT: note_on channel=9 note=70 velocity=103 time=0.014388499999999999
EXTRACT: note_on channel=5 note=79 velocity=0 time=0.0023980833333333332
EXTRACT: note_on channel=5 note=63 velocity=0 time=0
EXTRACT: note_on channel=11 note=46 velocity=52 time=0
EXTRACT: note_on channel=5 note=65 velocity=108 time=0.0023980833333333332
EXTRACT: note_on channel=5 note=80 velocity=113 time=0
EXTRACT: note_on channel=9 note=37 velocity=91 time=0.0023980833333333332
EXTRACT: note_on channel=9 note=28 velocity=68 time=0
EXTRACT: note_on channel=9 note=39 velocity=67 time=0
EXTRACT: note_on channel=9 note=35 velocity=97 time=0
EXTRACT: note_on channel=9 note=28 velocity=0 time=0.0023980833333333332
EXTRACT: note_on channel=9 note=37 velocity=0 time=0
EXTRACT: note_on channel=9 note=40 velocity=64 time=0.0023980833333333332
EXTRACT: note_on channel=3 note=80 velocity=113 time=0.0047961666666666665
EXTRACT: note_on channel=3 note=68 velocity=82 time=0
EXTRACT: control_change channel=5 control=11 value=59 time=0.007194249999999999
EXTRACT: note_on channel=11 note=46 velocity=0 time=0.009592333333333333
EXTRACT: note_on channel=9 note=39 velocity=50 time=0.0047961666666666665
EXTRACT: control_change channel=4 control=11 value=114 time=0.009592333333333333
EXTRACT: control_change channel=6 control=11 value=44 time=0.007194249999999999
EXTRACT: note_on channel=9 note=70 velocity=0 time=0.0023980833333333332
EXTRACT: note_on channel=9 note=39 velocity=0 time=0.007194249999999999
EXTRACT: note_on channel=9 note=35 velocity=0 time=0
EXTRACT: control_change channel=5 control=11 value=61 time=0.0047961666666666665
EXTRACT: note_on channel=9 note=40 velocity=0 time=0
EXTRACT: control_change channel=7 control=11 value=46 time=0.007194249999999999
EXTRACT: control_change channel=6 control=11 value=48 time=0.019184666666666666
EXTRACT: note_on channel=9 note=39 velocity=0 time=0
EXTRACT: control_change channel=7 control=11 value=50 time=0.0047961666666666665
EXTRACT: control_change channel=5 control=11 value=59 time=0.031175083333333332
EXTRACT: control_change channel=6 control=11 value=52 time=0.0023980833333333332
EXTRACT: control_change channel=7 control=11 value=54 time=0.011990416666666667
EXTRACT: control_change channel=6 control=11 value=56 time=0.026378916666666665
EXTRACT: control_change channel=4 control=11 value=106 time=0.014388499999999999
EXTRACT: control_change channel=5 control=11 value=57 time=0.016786583333333334
EXTRACT: control_change channel=7 control=11 value=58 time=0.014388499999999999
EXTRACT: note_on channel=9 note=70 velocity=75 time=0.0047961666666666665
EXTRACT: note_on channel=1 note=27 velocity=118 time=0.0047961666666666665
EXTRACT: note_on channel=9 note=46 velocity=62 time=0.021582749999999998
EXTRACT: note_on channel=9 note=70 velocity=0 time=0.031175083333333332
EXTRACT: note_on channel=9 note=46 velocity=0 time=0.026378916666666665
EXTRACT: control_change channel=6 control=11 value=61 time=0.021582749999999998
EXTRACT: control_change channel=7 control=11 value=64 time=0.007194249999999999
EXTRACT: control_change channel=6 control=11 value=64 time=0.0023980833333333332
EXTRACT: note_on channel=9 note=70 velocity=67 time=0.014388499999999999
EXTRACT: note_on channel=9 note=42 velocity=111 time=0.007194249999999999
EXTRACT: note_on channel=3 note=68 velocity=0 time=0.03836933333333333
EXTRACT: note_on channel=3 note=80 velocity=0 time=0
EXTRACT: control_change channel=6 control=11 value=66 time=0.0023980833333333332
EXTRACT: note_on channel=9 note=70 velocity=0 time=0.009592333333333333
EXTRACT: note_on channel=9 note=42 velocity=0 time=0.007194249999999999
EXTRACT: note_on channel=1 note=27 velocity=0 time=0.035971249999999996
EXTRACT: control_change channel=4 control=11 value=98 time=0.014388499999999999
EXTRACT: note_on channel=9 note=70 velocity=103 time=0
EXTRACT: note_on channel=5 note=80 velocity=0 time=0.0047961666666666665
EXTRACT: note_on channel=5 note=65 velocity=0 time=0
EXTRACT: note_on channel=5 note=67 velocity=109 time=0
EXTRACT: note_on channel=5 note=82 velocity=119 time=0
EXTRACT: note_on channel=9 note=35 velocity=97 time=0.0047961666666666665
EXTRACT: note_on channel=3 note=82 velocity=113 time=0.021582749999999998
EXTRACT: note_on channel=3 note=70 velocity=82 time=0
EXTRACT: control_change channel=5 control=11 value=59 time=0
EXTRACT: note_on channel=9 note=70 velocity=0 time=0.026378916666666665
EXTRACT: note_on channel=9 note=35 velocity=0 time=0.009592333333333333
EXTRACT: control_change channel=7 control=11 value=69 time=0.08872908333333333
EXTRACT: control_change channel=5 control=11 value=57 time=0.03357316666666667
EXTRACT: note_on channel=1 note=27 velocity=121 time=0.03836933333333333
EXTRACT: control_change channel=6 control=11 value=71 time=0.009592333333333333
EXTRACT: note_on channel=9 note=82 velocity=65 time=0.0047961666666666665
EXTRACT: note_on channel=9 note=46 velocity=63 time=0.009592333333333333
EXTRACT: control_change channel=7 control=11 value=74 time=0.021582749999999998
EXTRACT: note_on channel=9 note=82 velocity=0 time=0.026378916666666665
EXTRACT: note_on channel=9 note=46 velocity=0 time=0.009592333333333333
EXTRACT: control_change channel=6 control=11 value=76 time=0.035971249999999996
EXTRACT: control_change channel=7 control=11 value=78 time=0.014388499999999999
EXTRACT: note_on channel=9 note=82 velocity=57 time=0
EXTRACT: note_on channel=9 note=42 velocity=111 time=0
EXTRACT: control_change channel=6 control=11 value=80 time=0.016786583333333334
EXTRACT: control_change channel=7 control=11 value=82 time=0.021582749999999998
EXTRACT: note_on channel=9 note=39 velocity=50 time=0
EXTRACT: note_on channel=3 note=70 velocity=0 time=0.014388499999999999
EXTRACT: note_on channel=3 note=82 velocity=0 time=0
EXTRACT: control_change channel=6 control=11 value=85 time=0.0023980833333333332
EXTRACT: note_on channel=9 note=42 velocity=0 time=0.0023980833333333332
EXTRACT: note_on channel=9 note=82 velocity=0 time=0
EXTRACT: control_change channel=7 control=11 value=87 time=0.011990416666666667
EXTRACT: note_on channel=1 note=27 velocity=0 time=0.023980833333333333
EXTRACT: note_on channel=9 note=39 velocity=0 time=0.0023980833333333332
EXTRACT: control_change channel=6 control=11 value=89 time=0.007194249999999999
EXTRACT: note_on channel=3 note=84 velocity=112 time=0.0023980833333333332
EXTRACT: note_on channel=3 note=72 velocity=81 time=0
EXTRACT: control_change channel=7 control=11 value=91 time=0.0023980833333333332
EXTRACT: note_on channel=5 note=82 velocity=0 time=0.0047961666666666665
EXTRACT: note_on channel=5 note=67 velocity=0 time=0
EXTRACT: note_on channel=5 note=68 velocity=108 time=0
EXTRACT: note_on channel=5 note=84 velocity=118 time=0
EXTRACT: note_on channel=11 note=46 velocity=52 time=0
EXTRACT: note_on channel=9 note=40 velocity=55 time=0.0047961666666666665
EXTRACT: note_on channel=9 note=37 velocity=91 time=0
EXTRACT: note_on channel=9 note=28 velocity=68 time=0
EXTRACT: note_on channel=9 note=39 velocity=73 time=0
EXTRACT: note_on channel=9 note=82 velocity=71 time=0
EXTRACT: note_on channel=9 note=35 velocity=97 time=0
EXTRACT: note_on channel=9 note=28 velocity=0 time=0.0023980833333333332
EXTRACT: note_on channel=9 note=37 velocity=0 time=0
EXTRACT: control_change channel=6 control=11 value=93 time=0.007194249999999999
EXTRACT: control_change channel=7 control=11 value=95 time=0.0047961666666666665
EXTRACT: control_change channel=4 control=11 value=106 time=0.009592333333333333
EXTRACT: note_on channel=11 note=46 velocity=0 time=0.0023980833333333332
EXTRACT: note_on channel=9 note=39 velocity=55 time=0.0047961666666666665
EXTRACT: control_change channel=5 control=11 value=59 time=0.007194249999999999
EXTRACT: control_change channel=6 control=11 value=98 time=0.0023980833333333332
EXTRACT: control_change channel=7 control=11 value=100 time=0.011990416666666667
EXTRACT: note_on channel=9 note=39 velocity=0 time=0.0047961666666666665
EXTRACT: note_on channel=9 note=82 velocity=0 time=0
EXTRACT: note_on channel=9 note=40 velocity=0 time=0
EXTRACT: note_on channel=9 note=35 velocity=0 time=0
EXTRACT: control_change channel=6 control=11 value=102 time=0.007194249999999999
EXTRACT: control_change channel=7 control=11 value=105 time=0.019184666666666666
EXTRACT: note_on channel=9 note=39 velocity=0 time=0.0047961666666666665
EXTRACT: control_change channel=6 control=11 value=107 time=0.014388499999999999
EXTRACT: control_change channel=7 control=11 value=109 time=0.0047961666666666665
EXTRACT: control_change channel=6 control=11 value=112 time=0.019184666666666666
EXTRACT: control_change channel=7 control=11 value=114 time=0.0047961666666666665
EXTRACT: control_change channel=6 control=11 value=117 time=0.016786583333333334
EXTRACT: control_change channel=7 control=11 value=119 time=0.021582749999999998
EXTRACT: control_change channel=5 control=11 value=57 time=0.0023980833333333332
EXTRACT: note_on channel=7 note=51 velocity=0 time=0.028776999999999997
EXTRACT: note_on channel=6 note=63 velocity=0 time=0.009592333333333333
EXTRACT: note_on channel=1 note=27 velocity=122 time=0.009592333333333333
EXTRACT: note_on channel=9 note=82 velocity=53 time=0.014388499999999999
EXTRACT: note_on channel=3 note=72 velocity=0 time=0.0023980833333333332
EXTRACT: note_on channel=3 note=84 velocity=0 time=0
EXTRACT: note_on channel=9 note=46 velocity=62 time=0.0047961666666666665
EXTRACT: note_on channel=9 note=82 velocity=0 time=0.050359749999999995
EXTRACT: note_on channel=9 note=46 velocity=0 time=0.007194249999999999
EXTRACT: note_on channel=9 note=82 velocity=50 time=0.050359749999999995
EXTRACT: note_on channel=9 note=42 velocity=113 time=0
EXTRACT: note_on channel=9 note=42 velocity=0 time=0.057553999999999994
EXTRACT: note_on channel=9 note=82 velocity=0 time=0
EXTRACT: note_on channel=1 note=27 velocity=0 time=0.03836933333333333
EXTRACT: pitchwheel channel=7 pitch=768 time=0.0047961666666666665
EXTRACT: note_on channel=7 note=44 velocity=95 time=0
EXTRACT: note_on channel=6 note=56 velocity=69 time=0.0023980833333333332
EXTRACT: pitchwheel channel=6 pitch=768 time=0
EXTRACT: pitchwheel channel=7 pitch=640 time=0.007194249999999999
EXTRACT: note_on channel=9 note=70 velocity=103 time=0
EXTRACT: note_on channel=4 note=67 velocity=0 time=0.0023980833333333332
EXTRACT: note_on channel=4 note=55 velocity=0 time=0
EXTRACT: note_on channel=4 note=63 velocity=0 time=0
EXTRACT: note_on channel=4 note=70 velocity=0 time=0
EXTRACT: note_on channel=5 note=84 velocity=0 time=0
EXTRACT: note_on channel=5 note=68 velocity=0 time=0
EXTRACT: pitchwheel channel=6 pitch=640 time=0
EXTRACT: control_change channel=2 control=1 value=96 time=0.0023980833333333332
EXTRACT: control_change channel=12 control=10 value=10 time=0
EXTRACT: pitchwheel channel=2 pitch=-8192 time=0.0023980833333333332
EXTRACT: control_change channel=2 control=11 value=97 time=0
EXTRACT: note_on channel=2 note=80 velocity=105 time=0
EXTRACT: control_change channel=4 control=11 value=108 time=0
EXTRACT: pitchwheel channel=7 pitch=544 time=0
EXTRACT: note_on channel=9 note=35 velocity=97 time=0
EXTRACT: note_on channel=12 note=80 velocity=120 time=0
EXTRACT: pitchwheel channel=6 pitch=544 time=0.0023980833333333332
EXTRACT: control_change channel=7 control=11 value=114 time=0.0047961666666666665
EXTRACT: pitchwheel channel=7 pitch=448 time=0
EXTRACT: pitchwheel channel=2 pitch=-5568 time=0.0023980833333333332
EXTRACT: control_change channel=2 control=11 value=104 time=0
EXTRACT: control_change channel=6 control=11 value=114 time=0
EXTRACT: pitchwheel channel=6 pitch=448 time=0
EXTRACT: pitchwheel channel=7 pitch=352 time=0.0047961666666666665
EXTRACT: pitchwheel channel=2 pitch=-2976 time=0.0023980833333333332
EXTRACT: control_change channel=2 control=11 value=107 time=0
EXTRACT: pitchwheel channel=6 pitch=352 time=0
EXTRACT: control_change channel=2 control=11 value=109 time=0.007194249999999999
EXTRACT: pitchwheel channel=2 pitch=-1632 time=0
EXTRACT: pitchwheel channel=7 pitch=288 time=0
EXTRACT: pitchwheel channel=6 pitch=288 time=0.0023980833333333332
EXTRACT: pitchwheel channel=2 pitch=-1056 time=0.0047961666666666665
EXTRACT: control_change channel=7 control=11 value=107 time=0
EXTRACT: pitchwheel channel=7 pitch=224 time=0
EXTRACT: control_change channel=6 control=11 value=107 time=0.0023980833333333332
EXTRACT: pitchwheel channel=6 pitch=224 time=0
EXTRACT: pitchwheel channel=7 pitch=160 time=0.0047961666666666665
EXTRACT: pitchwheel channel=2 pitch=-352 time=0.0023980833333333332
EXTRACT: pitchwheel channel=6 pitch=160 time=0
EXTRACT: pitchwheel channel=7 pitch=96 time=0.0047961666666666665
EXTRACT: pitchwheel channel=2 pitch=-192 time=0.0023980833333333332
EXTRACT: control_change channel=2 control=11 value=112 time=0
EXTRACT: pitchwheel channel=6 pitch=96 time=0
EXTRACT: note_on channel=9 note=70 velocity=0 time=0.0023980833333333332
EXTRACT: pitchwheel channel=2 pitch=-96 time=0.0047961666666666665
EXTRACT: control_change channel=7 control=11 value=100 time=0
EXTRACT: control_change channel=6 control=11 value=100 time=0.0023980833333333332
EXTRACT: note_on channel=9 note=35 velocity=0 time=0
EXTRACT: pitchwheel channel=2 pitch=224 time=0.0047961666666666665
EXTRACT: pitchwheel channel=7 pitch=0 time=0
EXTRACT: pitchwheel channel=6 pitch=0 time=0.0023980833333333332
EXTRACT: control_change channel=2 control=11 value=114 time=0.007194249999999999
EXTRACT: control_change channel=7 control=11 value=96 time=0.0047961666666666665
EXTRACT: control_change channel=6 control=11 value=96 time=0.0023980833333333332
EXTRACT: pitchwheel channel=2 pitch=352 time=0.014388499999999999
EXTRACT: pitchwheel channel=2 pitch=448 time=0.023980833333333333
EXTRACT: pitchwheel channel=7 pitch=-64 time=0.021582749999999998
EXTRACT: pitchwheel channel=6 pitch=-64 time=0.0023980833333333332
EXTRACT: pitchwheel channel=2 pitch=352 time=0.007194249999999999
EXTRACT: control_change channel=7 control=11 value=91 time=0
EXTRACT: control_change channel=6 control=11 value=91 time=0.0023980833333333332
EXTRACT: pitchwheel channel=7 pitch=-160 time=0.011990416666666667
EXTRACT: control_change channel=2 control=11 value=116 time=0.0023980833333333332
EXTRACT: pitchwheel channel=6 pitch=-160 time=0
EXTRACT: pitchwheel channel=2 pitch=224 time=0.014388499999999999
EXTRACT: pitchwheel channel=7 pitch=-224 time=0
EXTRACT: pitchwheel channel=6 pitch=-224 time=0.0023980833333333332
EXTRACT: pitchwheel channel=7 pitch=-320 time=0.011990416666666667
EXTRACT: control_change channel=2 control=11 value=118 time=0.0023980833333333332
EXTRACT: pitchwheel channel=6 pitch=-320 time=0
EXTRACT: pitchwheel channel=2 pitch=0 time=0.007194249999999999
EXTRACT: pitchwheel channel=7 pitch=-416 time=0.007194249999999999
EXTRACT: pitchwheel channel=6 pitch=-416 time=0.0023980833333333332
EXTRACT: note_on channel=7 note=44 velocity=0 time=0.0023980833333333332
EXTRACT: note_on channel=6 note=56 velocity=0 time=0.0023980833333333332
EXTRACT: control_change channel=7 control=11 value=117 time=0
EXTRACT: pitchwheel channel=7 pitch=992 time=0
EXTRACT: note_on channel=7 note=44 velocity=89 time=0
EXTRACT: note_on channel=6 note=56 velocity=66 time=0.0023980833333333332
EXTRACT: control_change channel=6 control=11 value=117 time=0
EXTRACT: pitchwheel channel=6 pitch=992 time=0
EXTRACT: pitchwheel channel=7 pitch=928 time=0.0047961666666666665
EXTRACT: control_change channel=2 control=11 value=116 time=0.0023980833333333332
EXTRACT: pitchwheel channel=2 pitch=-96 time=0
EXTRACT: pitchwheel channel=6 pitch=928 time=0
EXTRACT: note_on channel=9 note=70 velocity=77 time=0
EXTRACT: pitchwheel channel=7 pitch=864 time=0.0047961666666666665
EXTRACT: control_change channel=2 control=11 value=114 time=0.0023980833333333332
EXTRACT: pitchwheel channel=6 pitch=864 time=0
EXTRACT: pitchwheel channel=7 pitch=768 time=0.007194249999999999
EXTRACT: note_on channel=9 note=46 velocity=61 time=0
EXTRACT: pitchwheel channel=6 pitch=768 time=0.0023980833333333332
EXTRACT: pitchwheel channel=7 pitch=704 time=0.0047961666666666665
EXTRACT: pitchwheel channel=6 pitch=704 time=0.0023980833333333332
EXTRACT: pitchwheel channel=2 pitch=-224 time=0.007194249999999999
EXTRACT: pitchwheel channel=7 pitch=576 time=0.007194249999999999
EXTRACT: pitchwheel channel=6 pitch=576 time=0.0023980833333333332
EXTRACT: control_change channel=2 control=11 value=112 time=0.0047961666666666665
EXTRACT: pitchwheel channel=7 pitch=448 time=0.007194249999999999
EXTRACT: control_change channel=7 control=11 value=112 time=0
EXTRACT: pitchwheel channel=6 pitch=448 time=0.0023980833333333332
EXTRACT: control_change channel=6 control=11 value=112 time=0
EXTRACT: note_on channel=9 note=70 velocity=0 time=0.0023980833333333332
EXTRACT: control_change channel=2 control=11 value=110 time=0.011990416666666667
EXTRACT: pitchwheel channel=2 pitch=-352 time=0
EXTRACT: pitchwheel channel=7 pitch=384 time=0
EXTRACT: pitchwheel channel=6 pitch=384 time=0.0023980833333333332
EXTRACT: note_on channel=9 note=46 velocity=0 time=0
EXTRACT: control_change channel=7 control=11 value=106 time=0.011990416666666667
EXTRACT: pitchwheel channel=7 pitch=320 time=0
EXTRACT: control_change channel=6 control=11 value=106 time=0.0023980833333333332
EXTRACT: pitchwheel channel=6 pitch=320 time=0
EXTRACT: pitchwheel channel=7 pitch=256 time=0.0047961666666666665
EXTRACT: pitchwheel channel=2 pitch=-224 time=0.0023980833333333332
EXTRACT: pitchwheel channel=6 pitch=256 time=0
EXTRACT: control_change channel=2 control=11 value=108 time=0.014388499999999999
EXTRACT: pitchwheel channel=7 pitch=160 time=0
EXTRACT: pitchwheel channel=6 pitch=160 time=0.0023980833333333332
EXTRACT: control_change channel=7 control=11 value=101 time=0.0047961666666666665
EXTRACT: pitchwheel channel=2 pitch=-96 time=0.0023980833333333332
EXTRACT: control_change channel=6 control=11 value=101 time=0
EXTRACT: note_on channel=9 note=70 velocity=67 time=0
EXTRACT: pitchwheel channel=7 pitch=96 time=0.0047961666666666665
EXTRACT: pitchwheel channel=6 pitch=96 time=0.0023980833333333332
EXTRACT: note_on channel=9 note=42 velocity=87 time=0
EXTRACT: control_change channel=2 control=11 value=105 time=0.014388499999999999
EXTRACT: pitchwheel channel=2 pitch=0 time=0
EXTRACT: pitchwheel channel=7 pitch=0 time=0.007194249999999999
EXTRACT: pitchwheel channel=6 pitch=0 time=0.0023980833333333332
EXTRACT: control_change channel=7 control=11 value=97 time=0.0047961666666666665
EXTRACT: control_change channel=6 control=11 value=97 time=0.0023980833333333332
EXTRACT: note_on channel=9 note=70 velocity=0 time=0.019184666666666666
EXTRACT: note_on channel=9 note=42 velocity=0 time=0.007194249999999999
EXTRACT: control_change channel=2 control=11 value=102 time=0.0047961666666666665
EXTRACT: control_change channel=2 control=11 value=100 time=0.023980833333333333
EXTRACT: note_on channel=9 note=70 velocity=82 time=0.021582749999999998
EXTRACT: note_on channel=2 note=80 velocity=0 time=0.007194249999999999
EXTRACT: note_on channel=12 note=80 velocity=0 time=0
EXTRACT: control_change channel=2 control=11 value=111 time=0.0023980833333333332
EXTRACT: note_on channel=9 note=37 velocity=91 time=0
EXTRACT: note_on channel=9 note=28 velocity=68 time=0
EXTRACT: note_on channel=9 note=39 velocity=67 time=0
EXTRACT: note_on channel=9 note=35 velocity=97 time=0
EXTRACT: control_change channel=2 control=1 value=0 time=0.0023980833333333332
EXTRACT: note_on channel=9 note=28 velocity=0 time=0
EXTRACT: note_on channel=9 note=37 velocity=0 time=0
EXTRACT: note_on channel=9 note=40 velocity=64 time=0
EXTRACT: control_change channel=2 control=11 value=127 time=0.0047961666666666665
EXTRACT: control_change channel=7 control=11 value=93 time=0.007194249999999999
EXTRACT: control_change channel=6 control=11 value=93 time=0.0023980833333333332
EXTRACT: note_on channel=9 note=39 velocity=50 time=0.014388499999999999
EXTRACT: pitchwheel channel=7 pitch=-64 time=0.014388499999999999
EXTRACT: pitchwheel channel=6 pitch=-64 time=0.0023980833333333332
EXTRACT: note_on channel=9 note=70 velocity=0 time=0
EXTRACT: note_on channel=9 note=39 velocity=0 time=0.009592333333333333
EXTRACT: note_on channel=9 note=35 velocity=0 time=0
EXTRACT: note_on channel=9 note=40 velocity=0 time=0.0023980833333333332
EXTRACT: control_change channel=7 control=11 value=89 time=0.016786583333333334
EXTRACT: control_change channel=6 control=11 value=89 time=0.0023980833333333332
EXTRACT: pitchwheel channel=7 pitch=-128 time=0.0047961666666666665
EXTRACT: pitchwheel channel=6 pitch=-128 time=0.0023980833333333332
EXTRACT: note_on channel=9 note=39 velocity=0 time=0.0023980833333333332
EXTRACT: pitchwheel channel=7 pitch=-192 time=0.019184666666666666
EXTRACT: pitchwheel channel=6 pitch=-192 time=0.0023980833333333332
EXTRACT: pitchwheel channel=7 pitch=-256 time=0.019184666666666666
EXTRACT: pitchwheel channel=6 pitch=-256 time=0.0023980833333333332
EXTRACT: control_change channel=7 control=11 value=85 time=0.014388499999999999
EXTRACT: pitchwheel channel=7 pitch=-320 time=0
EXTRACT: control_change channel=6 control=11 value=85 time=0.0023980833333333332
EXTRACT: pitchwheel channel=6 pitch=-320 time=0
EXTRACT: pitchwheel channel=7 pitch=-384 time=0.014388499999999999
EXTRACT: pitchwheel channel=6 pitch=-384 time=0.0023980833333333332
EXTRACT: pitchwheel channel=7 pitch=-448 time=0.011990416666666667
EXTRACT: pitchwheel channel=6 pitch=-448 time=0.0023980833333333332
EXTRACT: pitchwheel channel=7 pitch=-512 time=0.014388499999999999
EXTRACT: pitchwheel channel=6 pitch=-512 time=0.0023980833333333332
EXTRACT: pitchwheel channel=7 pitch=-576 time=0.011990416666666667
EXTRACT: pitchwheel channel=6 pitch=-576 time=0.0023980833333333332
EXTRACT: note_on channel=9 note=70 velocity=75 time=0.0023980833333333332
EXTRACT: note_on channel=7 note=44 velocity=0 time=0.0023980833333333332
EXTRACT: control_change channel=7 control=11 value=119 time=0
EXTRACT: pitchwheel channel=7 pitch=0 time=0
EXTRACT: note_on channel=7 note=44 velocity=83 time=0
EXTRACT: note_on channel=6 note=56 velocity=0 time=0.0023980833333333332
EXTRACT: note_on channel=6 note=56 velocity=59 time=0
EXTRACT: control_change channel=6 control=11 value=119 time=0
EXTRACT: pitchwheel channel=6 pitch=0 time=0
EXTRACT: note_on channel=9 note=46 velocity=59 time=0.023980833333333333
EXTRACT: note_on channel=9 note=70 velocity=0 time=0.028776999999999997
EXTRACT: note_on channel=9 note=46 velocity=0 time=0.028776999999999997
EXTRACT: note_on channel=7 note=44 velocity=0 time=0.031175083333333332
EXTRACT: note_on channel=6 note=56 velocity=0 time=0.0023980833333333332
EXTRACT: note_on channel=9 note=70 velocity=67 time=0.009592333333333333
EXTRACT: note_on channel=9 note=42 velocity=87 time=0.007194249999999999
EXTRACT: note_on channel=9 note=70 velocity=0 time=0.050359749999999995
EXTRACT: note_on channel=9 note=42 velocity=0 time=0.007194249999999999
EXTRACT: note_on channel=9 note=70 velocity=81 time=0.05275783333333333
EXTRACT: note_on channel=9 note=35 velocity=97 time=0.007194249999999999
EXTRACT: note_on channel=9 note=70 velocity=0 time=0.050359749999999995
EXTRACT: note_on channel=9 note=35 velocity=0 time=0.007194249999999999
EXTRACT: note_on channel=14 note=60 velocity=93 time=0.06474825
EXTRACT: control_change channel=7 control=11 value=119 time=0.09592333333333333
EXTRACT: note_on channel=7 note=44 velocity=83 time=0
EXTRACT: note_on channel=6 note=56 velocity=66 time=0.0023980833333333332
EXTRACT: control_change channel=6 control=11 value=119 time=0
EXTRACT: note_on channel=9 note=70 velocity=76 time=0.0047961666666666665
EXTRACT: note_on channel=9 note=46 velocity=61 time=0.016786583333333334
EXTRACT: note_on channel=9 note=70 velocity=0 time=0.04076741666666667
EXTRACT: note_on channel=9 note=46 velocity=0 time=0.016786583333333334
EXTRACT: note_on channel=7 note=44 velocity=0 time=0.03357316666666667
EXTRACT: note_on channel=6 note=56 velocity=0 time=0.0023980833333333332
EXTRACT: note_on channel=9 note=70 velocity=67 time=0.007194249999999999
EXTRACT: note_on channel=9 note=42 velocity=87 time=0.007194249999999999
EXTRACT: note_on channel=9 note=70 velocity=0 time=0.050359749999999995
EXTRACT: note_on channel=9 note=42 velocity=0 time=0.007194249999999999
EXTRACT: control_change channel=5 control=11 value=127 time=0.047961666666666666
EXTRACT: note_on channel=5 note=68 velocity=108 time=0.0047961666666666665
EXTRACT: note_on channel=9 note=70 velocity=82 time=0
EXTRACT: note_on channel=9 note=40 velocity=55 time=0.007194249999999999
EXTRACT: note_on channel=9 note=37 velocity=91 time=0
EXTRACT: note_on channel=9 note=28 velocity=68 time=0
EXTRACT: note_on channel=9 note=39 velocity=72 time=0
EXTRACT: note_on channel=9 note=35 velocity=97 time=0
EXTRACT: note_on channel=9 note=28 velocity=0 time=0.0023980833333333332
EXTRACT: note_on channel=9 note=37 velocity=0 time=0
EXTRACT: note_on channel=9 note=39 velocity=55 time=0.028776999999999997
EXTRACT: note_on channel=5 note=70 velocity=107 time=0.019184666666666666
EXTRACT: note_on channel=9 note=70 velocity=0 time=0
EXTRACT: note_on channel=9 note=35 velocity=0 time=0.007194249999999999
EXTRACT: note_on channel=9 note=40 velocity=0 time=0
EXTRACT: note_on channel=9 note=39 velocity=0 time=0
EXTRACT: note_on channel=5 note=68 velocity=0 time=0.0047961666666666665
EXTRACT: note_on channel=9 note=39 velocity=0 time=0.026378916666666665
EXTRACT: note_on channel=5 note=72 velocity=107 time=0.021582749999999998
EXTRACT: note_on channel=5 note=70 velocity=0 time=0.009592333333333333
EXTRACT: note_on channel=5 note=73 velocity=111 time=0.047961666666666666
EXTRACT: note_on channel=5 note=72 velocity=0 time=0.011990416666666667
EXTRACT: control_change channel=7 control=11 value=120 time=0.03357316666666667
EXTRACT: control_change channel=7 control=11 value=121 time=0.0047961666666666665
EXTRACT: note_on channel=7 note=43 velocity=83 time=0
EXTRACT: note_on channel=6 note=55 velocity=65 time=0.0023980833333333332
EXTRACT: control_change channel=6 control=11 value=121 time=0
EXTRACT: note_on channel=5 note=75 velocity=111 time=0.007194249999999999
EXTRACT: note_on channel=9 note=70 velocity=73 time=0
EXTRACT: note_on channel=5 note=73 velocity=0 time=0.009592333333333333
EXTRACT: note_on channel=14 note=60 velocity=0 time=0.0023980833333333332
EXTRACT: note_on channel=9 note=46 velocity=61 time=0.0023980833333333332
EXTRACT: note_on channel=5 note=77 velocity=114 time=0.043165499999999996
EXTRACT: note_on channel=9 note=70 velocity=0 time=0
EXTRACT: note_on channel=5 note=75 velocity=0 time=0.011990416666666667
EXTRACT: note_on channel=9 note=46 velocity=0 time=0.0023980833333333332
EXTRACT: note_on channel=7 note=43 velocity=0 time=0.03357316666666667
EXTRACT: note_on channel=6 note=55 velocity=0 time=0.0023980833333333332
EXTRACT: note_on channel=5 note=79 velocity=110 time=0.009592333333333333
EXTRACT: note_on channel=9 note=70 velocity=67 time=0
EXTRACT: note_on channel=9 note=42 velocity=86 time=0.007194249999999999
EXTRACT: note_on channel=5 note=77 velocity=0 time=0.0023980833333333332
EXTRACT: note_on channel=9 note=70 velocity=0 time=0.047961666666666666
EXTRACT: note_on channel=9 note=42 velocity=0 time=0.007194249999999999
EXTRACT: note_on channel=5 note=79 velocity=0 time=0.0047961666666666665
EXTRACT: note_on channel=7 note=44 velocity=75 time=0.03836933333333333
EXTRACT: note_on channel=6 note=56 velocity=76 time=0.0023980833333333332
EXTRACT: note_on channel=4 note=60 velocity=102 time=0.0047961666666666665
EXTRACT: note_on channel=4 note=56 velocity=100 time=0
EXTRACT: note_on channel=4 note=51 velocity=98 time=0
EXTRACT: note_on channel=4 note=63 velocity=104 time=0
EXTRACT: control_change channel=4 control=11 value=76 time=0.009592333333333333
EXTRACT: note_on channel=5 note=80 velocity=119 time=0
EXTRACT: note_on channel=9 note=35 velocity=97 time=0
EXTRACT: note_on channel=9 note=57 velocity=90 time=0
EXTRACT: control_change channel=6 control=11 value=118 time=0.03836933333333333
EXTRACT: control_change channel=7 control=11 value=116 time=0.007194249999999999
EXTRACT: note_on channel=9 note=57 velocity=0 time=0.011990416666666667
EXTRACT: note_on channel=9 note=35 velocity=0 time=0
EXTRACT: control_change channel=4 control=11 value=78 time=0.011990416666666667
EXTRACT: note_on channel=5 note=80 velocity=0 time=0
EXTRACT: control_change channel=6 control=11 value=113 time=0
EXTRACT: control_change channel=7 control=11 value=110 time=0.014388499999999999
EXTRACT: control_change channel=6 control=11 value=106 time=0.016786583333333334
EXTRACT: control_change channel=7 control=11 value=104 time=0.014388499999999999
EXTRACT: control_change channel=6 control=11 value=102 time=0.019184666666666666
EXTRACT: control_change channel=7 control=11 value=100 time=0.011990416666666667
EXTRACT: control_change channel=6 control=11 value=98 time=0.019184666666666666
EXTRACT: control_change channel=7 control=11 value=96 time=0.035971249999999996
EXTRACT: note_on channel=7 note=44 velocity=0 time=0.007194249999999999
EXTRACT: note_on channel=6 note=56 velocity=0 time=0.0023980833333333332
EXTRACT: control_change channel=6 control=11 value=120 time=0
EXTRACT: note_on channel=7 note=44 velocity=71 time=0.0047961666666666665
EXTRACT: note_on channel=1 note=32 velocity=126 time=0.0023980833333333332
EXTRACT: note_on channel=6 note=56 velocity=70 time=0
EXTRACT: note_on channel=9 note=46 velocity=61 time=0.023980833333333333
EXTRACT: control_change channel=7 control=11 value=118 time=0.021582749999999998
EXTRACT: control_change channel=4 control=11 value=76 time=0.016786583333333334
EXTRACT: control_change channel=6 control=11 value=116 time=0
EXTRACT: control_change channel=7 control=11 value=113 time=0.014388499999999999
EXTRACT: note_on channel=9 note=46 velocity=0 time=0.0047961666666666665
EXTRACT: control_change channel=6 control=11 value=111 time=0.0047961666666666665
EXTRACT: control_change channel=7 control=11 value=109 time=0.014388499999999999
EXTRACT: control_change channel=6 control=11 value=107 time=0.009592333333333333
EXTRACT: control_change channel=7 control=11 value=105 time=0.011990416666666667
EXTRACT: note_on channel=9 note=42 velocity=87 time=0.009592333333333333
EXTRACT: control_change channel=6 control=11 value=103 time=0.0023980833333333332
EXTRACT: control_change channel=7 control=11 value=101 time=0.0047961666666666665
EXTRACT: control_change channel=6 control=11 value=99 time=0.016786583333333334
EXTRACT: control_change channel=7 control=11 value=96 time=0.014388499999999999
EXTRACT: control_change channel=6 control=11 value=94 time=0.009592333333333333
EXTRACT: control_change channel=7 control=11 value=92 time=0.0047961666666666665
EXTRACT: note_on channel=9 note=42 velocity=0 time=0.0047961666666666665
EXTRACT: control_change channel=6 control=11 value=90 time=0.007194249999999999
EXTRACT: control_change channel=7 control=11 value=87 time=0.011990416666666667
EXTRACT: note_on channel=1 note=32 velocity=0 time=0.016786583333333334
EXTRACT: control_change channel=6 control=11 value=85 time=0.0023980833333333332
EXTRACT: control_change channel=7 control=11 value=83 time=0.011990416666666667
EXTRACT: note_on channel=9 note=70 velocity=82 time=0.0023980833333333332
EXTRACT: note_on channel=9 note=37 velocity=91 time=0.007194249999999999
EXTRACT: note_on channel=9 note=28 velocity=68 time=0
EXTRACT: note_on channel=9 note=39 velocity=67 time=0
EXTRACT: note_on channel=9 note=35 velocity=97 time=0
EXTRACT: note_on channel=9 note=28 velocity=0 time=0.0023980833333333332
EXTRACT: note_on channel=9 note=37 velocity=0 time=0
EXTRACT: note_on channel=9 note=40 velocity=67 time=0.0023980833333333332
EXTRACT: control_change channel=6 control=11 value=81 time=0.0047961666666666665
EXTRACT: control_change channel=7 control=11 value=78 time=0.011990416666666667
EXTRACT: note_on channel=3 note=72 velocity=80 time=0
EXTRACT: note_on channel=3 note=84 velocity=110 time=0
EXTRACT: note_on channel=9 note=39 velocity=50 time=0.007194249999999999
EXTRACT: control_change channel=6 control=11 value=76 time=0.0023980833333333332
EXTRACT: control_change channel=7 control=11 value=74 time=0.011990416666666667
EXTRACT: note_on channel=9 note=70 velocity=0 time=0.0047961666666666665
EXTRACT: note_on channel=9 note=39 velocity=0 time=0.007194249999999999
EXTRACT: note_on channel=9 note=35 velocity=0 time=0
EXTRACT: note_on channel=9 note=40 velocity=0 time=0.0047961666666666665
EXTRACT: control_change channel=6 control=11 value=72 time=0.0023980833333333332
EXTRACT: control_change channel=7 control=11 value=70 time=0.011990416666666667
EXTRACT: note_on channel=9 note=39 velocity=0 time=0.011990416666666667
EXTRACT: control_change channel=6 control=11 value=68 time=0.021582749999999998
EXTRACT: control_change channel=7 control=11 value=66 time=0.021582749999999998
EXTRACT: control_change channel=7 control=11 value=64 time=0.014388499999999999
EXTRACT: control_change channel=6 control=11 value=64 time=0.0023980833333333332
EXTRACT: control_change channel=7 control=11 value=62 time=0.021582749999999998
EXTRACT: control_change channel=6 control=11 value=60 time=0.03357316666666667
EXTRACT: note_on channel=3 note=84 velocity=0 time=0.014388499999999999
EXTRACT: note_on channel=3 note=72 velocity=0 time=0
EXTRACT: note_on channel=1 note=32 velocity=118 time=0.0023980833333333332
EXTRACT: control_change channel=7 control=11 value=58 time=0.019184666666666666
EXTRACT: note_on channel=9 note=46 velocity=59 time=0.0023980833333333332
EXTRACT: control_change channel=6 control=11 value=56 time=0.023980833333333333
EXTRACT: note_on channel=9 note=85 velocity=78 time=0.026378916666666665
EXTRACT: note_on channel=9 note=46 velocity=0 time=0.007194249999999999
EXTRACT: control_change channel=7 control=11 value=54 time=0.0023980833333333332
EXTRACT: note_on channel=9 note=85 velocity=0 time=0.021582749999999998
EXTRACT: note_on channel=9 note=42 velocity=87 time=0.028776999999999997
EXTRACT: control_change channel=6 control=11 value=52 time=0.007194249999999999
EXTRACT: note_on channel=9 note=85 velocity=77 time=0.011990416666666667
EXTRACT: note_on channel=9 note=85 velocity=0 time=0.031175083333333332
EXTRACT: note_on channel=9 note=42 velocity=0 time=0.007194249999999999
EXTRACT: note_on channel=1 note=32 velocity=0 time=0.035971249999999996
EXTRACT: note_on channel=9 note=70 velocity=81 time=0.014388499999999999
EXTRACT: note_on channel=9 note=85 velocity=80 time=0.007194249999999999
EXTRACT: note_on channel=9 note=35 velocity=97 time=0
EXTRACT: note_on channel=3 note=63 velocity=77 time=0.023980833333333333
EXTRACT: note_on channel=3 note=75 velocity=106 time=0
EXTRACT: note_on channel=9 note=85 velocity=0 time=0.007194249999999999
EXTRACT: note_on channel=9 note=70 velocity=0 time=0.019184666666666666
EXTRACT: note_on channel=9 note=35 velocity=0 time=0.007194249999999999
EXTRACT: control_change channel=7 control=11 value=50 time=0.06714633333333334
EXTRACT: note_on channel=1 note=32 velocity=121 time=0.09592333333333333
EXTRACT: note_on channel=9 note=46 velocity=61 time=0.021582749999999998
EXTRACT: note_on channel=9 note=46 velocity=0 time=0.057553999999999994
EXTRACT: note_on channel=9 note=42 velocity=87 time=0.05275783333333333
EXTRACT: note_on channel=9 note=42 velocity=0 time=0.057553999999999994
EXTRACT: note_on channel=3 note=75 velocity=0 time=0.007194249999999999
EXTRACT: note_on channel=3 note=63 velocity=0 time=0
EXTRACT: note_on channel=1 note=32 velocity=0 time=0.028776999999999997
EXTRACT: note_on channel=3 note=72 velocity=78 time=0.011990416666666667
EXTRACT: note_on channel=3 note=84 velocity=108 time=0
EXTRACT: note_on channel=9 note=70 velocity=82 time=0.0023980833333333332
EXTRACT: note_on channel=9 note=40 velocity=56 time=0.009592333333333333
EXTRACT: note_on channel=9 note=37 velocity=91 time=0
EXTRACT: note_on channel=9 note=28 velocity=68 time=0
EXTRACT: note_on channel=9 note=39 velocity=72 time=0
EXTRACT: note_on channel=9 note=35 velocity=97 time=0
EXTRACT: note_on channel=9 note=28 velocity=0 time=0.0023980833333333332
EXTRACT: note_on channel=9 note=37 velocity=0 time=0
EXTRACT: control_change channel=6 control=11 value=52 time=0.014388499999999999
EXTRACT: note_on channel=9 note=39 velocity=55 time=0.014388499999999999
EXTRACT: control_change channel=4 control=11 value=78 time=0.007194249999999999
EXTRACT: note_on channel=9 note=70 velocity=0 time=0.009592333333333333
EXTRACT: note_on channel=9 note=35 velocity=0 time=0.009592333333333333
EXTRACT: note_on channel=9 note=40 velocity=0 time=0
EXTRACT: note_on channel=9 note=39 velocity=0 time=0
EXTRACT: note_on channel=9 note=39 velocity=0 time=0.031175083333333332
EXTRACT: note_on channel=3 note=84 velocity=0 time=0.08633099999999999
EXTRACT: note_on channel=3 note=72 velocity=0 time=0
EXTRACT: note_on channel=1 note=32 velocity=126 time=0.043165499999999996
EXTRACT: note_on channel=9 note=46 velocity=61 time=0.023980833333333333
EXTRACT: control_change channel=7 control=11 value=54 time=0.014388499999999999
EXTRACT: control_change channel=6 control=11 value=56 time=0.016786583333333334
EXTRACT: note_on channel=9 note=46 velocity=0 time=0.026378916666666665
EXTRACT: control_change channel=4 control=11 value=80 time=0.043165499999999996
EXTRACT: note_on channel=9 note=42 velocity=86 time=0.007194249999999999
EXTRACT: control_change channel=7 control=11 value=58 time=0.03836933333333333
EXTRACT: note_on channel=9 note=42 velocity=0 time=0.019184666666666666
EXTRACT: note_on channel=1 note=32 velocity=0 time=0.035971249999999996
EXTRACT: control_change channel=6 control=11 value=60 time=0.009592333333333333
EXTRACT: note_on channel=9 note=70 velocity=82 time=0.007194249999999999
EXTRACT: note_on channel=3 note=70 velocity=75 time=0.007194249999999999
EXTRACT: note_on channel=3 note=82 velocity=104 time=0
EXTRACT: note_on channel=9 note=35 velocity=97 time=0
EXTRACT: control_change channel=7 control=11 value=62 time=0.03836933333333333
EXTRACT: note_on channel=9 note=70 velocity=0 time=0.011990416666666667
EXTRACT: note_on channel=9 note=35 velocity=0 time=0.007194249999999999
EXTRACT: control_change channel=7 control=11 value=64 time=0.026378916666666665
EXTRACT: control_change channel=6 control=11 value=64 time=0.0023980833333333332
EXTRACT: control_change channel=7 control=11 value=66 time=0.014388499999999999
EXTRACT: control_change channel=6 control=11 value=68 time=0.047961666666666666
EXTRACT: control_change channel=7 control=11 value=70 time=0.021582749999999998
EXTRACT: note_on channel=1 note=32 velocity=118 time=0.050359749999999995
EXTRACT: note_on channel=9 note=46 velocity=61 time=0.021582749999999998
EXTRACT: control_change channel=6 control=11 value=72 time=0.009592333333333333
EXTRACT: control_change channel=7 control=11 value=74 time=0.011990416666666667
EXTRACT: control_change channel=4 control=11 value=82 time=0.016786583333333334
EXTRACT: note_on channel=9 note=46 velocity=0 time=0.019184666666666666
EXTRACT: control_change channel=6 control=11 value=76 time=0.014388499999999999
EXTRACT: note_on channel=9 note=42 velocity=83 time=0.03836933333333333
EXTRACT: control_change channel=7 control=11 value=78 time=0.014388499999999999
EXTRACT: note_on channel=3 note=82 velocity=0 time=0.014388499999999999
EXTRACT: note_on channel=3 note=70 velocity=0 time=0
EXTRACT: note_on channel=9 note=42 velocity=0 time=0.028776999999999997
EXTRACT: control_change channel=6 control=11 value=80 time=0.021582749999999998
EXTRACT: note_on channel=1 note=32 velocity=0 time=0.014388499999999999
EXTRACT: note_on channel=3 note=72 velocity=79 time=0.007194249999999999
EXTRACT: note_on channel=3 note=84 velocity=109 time=0
EXTRACT: note_on channel=9 note=70 velocity=83 time=0.007194249999999999
EXTRACT: note_on channel=9 note=37 velocity=91 time=0.007194249999999999
EXTRACT: note_on channel=9 note=28 velocity=68 time=0
EXTRACT: note_on channel=9 note=39 velocity=67 time=0
EXTRACT: note_on channel=9 note=35 velocity=97 time=0
EXTRACT: note_on channel=9 note=28 velocity=0 time=0.0023980833333333332
EXTRACT: note_on channel=9 note=37 velocity=0 time=0
EXTRACT: note_on channel=9 note=40 velocity=63 time=0.0023980833333333332
EXTRACT: note_on channel=9 note=39 velocity=50 time=0.026378916666666665
EXTRACT: note_on channel=9 note=70 velocity=0 time=0.019184666666666666
EXTRACT: control_change channel=7 control=11 value=82 time=0.0047961666666666665
EXTRACT: note_on channel=9 note=39 velocity=0 time=0.0023980833333333332
EXTRACT: note_on channel=9 note=35 velocity=0 time=0
EXTRACT: note_on channel=9 note=40 velocity=0 time=0.0047961666666666665
EXTRACT: note_on channel=9 note=39 velocity=0 time=0.026378916666666665
EXTRACT: note_on channel=3 note=84 velocity=0 time=0.10311758333333333
EXTRACT: note_on channel=3 note=72 velocity=0 time=0
EXTRACT: control_change channel=6 control=11 value=84 time=0.0047961666666666665
EXTRACT: note_on channel=1 note=32 velocity=121 time=0.023980833333333333
EXTRACT: note_on channel=9 note=46 velocity=62 time=0.021582749999999998
EXTRACT: note_on channel=3 note=70 velocity=81 time=0.009592333333333333
EXTRACT: note_on channel=3 note=82 velocity=111 time=0
EXTRACT: control_change channel=7 control=11 value=86 time=0.014388499999999999
EXTRACT: note_on channel=9 note=46 velocity=0 time=0.03357316666666667
EXTRACT: control_change channel=6 control=11 value=88 time=0.03836933333333333
EXTRACT: control_change channel=7 control=11 value=90 time=0.011990416666666667
EXTRACT: note_on channel=9 note=42 velocity=84 time=0.0023980833333333332
EXTRACT: control_change channel=6 control=11 value=92 time=0.023980833333333333
EXTRACT: note_on channel=9 note=42 velocity=0 time=0.03357316666666667
EXTRACT: note_on channel=1 note=32 velocity=0 time=0.035971249999999996
EXTRACT: note_on channel=9 note=70 velocity=83 time=0.014388499999999999
EXTRACT: control_change channel=4 control=11 value=80 time=0.009592333333333333
EXTRACT: note_on channel=9 note=35 velocity=97 time=0
EXTRACT: note_on channel=9 note=70 velocity=0 time=0.047961666666666666
EXTRACT: note_on channel=9 note=35 velocity=0 time=0.009592333333333333
EXTRACT: control_change channel=7 control=11 value=94 time=0.11270991666666666
EXTRACT: note_on channel=3 note=82 velocity=0 time=0.016786583333333334
EXTRACT: note_on channel=3 note=70 velocity=0 time=0
EXTRACT: control_change channel=4 control=11 value=78 time=0.023980833333333333
EXTRACT: note_on channel=1 note=32 velocity=121 time=0.007194249999999999
EXTRACT: control_change channel=6 control=11 value=96 time=0
EXTRACT: control_change channel=7 control=11 value=98 time=0.014388499999999999
EXTRACT: note_on channel=3 note=68 velocity=77 time=0.009592333333333333
EXTRACT: note_on channel=3 note=80 velocity=106 time=0
EXTRACT: note_on channel=9 note=46 velocity=63 time=0
EXTRACT: control_change channel=6 control=11 value=100 time=0.031175083333333332
EXTRACT: control_change channel=7 control=11 value=102 time=0.014388499999999999
EXTRACT: note_on channel=9 note=85 velocity=76 time=0.0047961666666666665
EXTRACT: note_on channel=9 note=46 velocity=0 time=0.007194249999999999
EXTRACT: control_change channel=6 control=11 value=104 time=0.0047961666666666665
EXTRACT: control_change channel=7 control=11 value=107 time=0.014388499999999999
EXTRACT: note_on channel=9 note=85 velocity=0 time=0.0047961666666666665
EXTRACT: control_change channel=6 control=11 value=109 time=0.0047961666666666665
EXTRACT: control_change channel=7 control=11 value=111 time=0.0047961666666666665
EXTRACT: control_change channel=6 control=11 value=113 time=0.009592333333333333
EXTRACT: control_change channel=7 control=11 value=115 time=0.007194249999999999
EXTRACT: note_on channel=9 note=42 velocity=83 time=0
EXTRACT: control_change channel=6 control=11 value=117 time=0.009592333333333333
EXTRACT: control_change channel=7 control=11 value=120 time=0.0047961666666666665
EXTRACT: note_on channel=9 note=85 velocity=77 time=0.0047961666666666665
EXTRACT: control_change channel=6 control=11 value=122 time=0.0047961666666666665
EXTRACT: control_change channel=7 control=11 value=120 time=0.014388499999999999
EXTRACT: note_on channel=9 note=39 velocity=50 time=0
EXTRACT: note_on channel=9 note=85 velocity=0 time=0.011990416666666667
EXTRACT: note_on channel=9 note=42 velocity=0 time=0.007194249999999999
EXTRACT: note_on channel=7 note=44 velocity=0 time=0.009592333333333333
EXTRACT: note_on channel=3 note=80 velocity=0 time=0.019184666666666666
EXTRACT: note_on channel=3 note=68 velocity=0 time=0
EXTRACT: note_on channel=6 note=56 velocity=0 time=0
EXTRACT: note_on channel=1 note=32 velocity=0 time=0.007194249999999999
EXTRACT: note_on channel=9 note=39 velocity=0 time=0.0023980833333333332
EXTRACT: control_change channel=4 control=11 value=76 time=0.007194249999999999
EXTRACT: note_on channel=9 note=70 velocity=83 time=0.007194249999999999
EXTRACT: note_on channel=9 note=40 velocity=54 time=0.007194249999999999
EXTRACT: note_on channel=9 note=37 velocity=91 time=0
EXTRACT: note_on channel=9 note=28 velocity=68 time=0
EXTRACT: note_on channel=9 note=39 velocity=73 time=0
EXTRACT: note_on channel=9 note=85 velocity=81 time=0
EXTRACT: note_on channel=9 note=35 velocity=97 time=0
EXTRACT: note_on channel=9 note=28 velocity=0 time=0.0023980833333333332
EXTRACT: note_on channel=9 note=37 velocity=0 time=0
EXTRACT: note_on channel=3 note=63 velocity=80 time=0.0023980833333333332
EXTRACT: note_on channel=3 note=75 velocity=110 time=0
EXTRACT: note_on channel=9 note=85 velocity=0 time=0.026378916666666665
EXTRACT: note_on channel=9 note=39 velocity=55 time=0
EXTRACT: note_on channel=9 note=70 velocity=0 time=0.019184666666666666
EXTRACT: note_on channel=9 note=35 velocity=0 time=0.007194249999999999
EXTRACT: note_on channel=9 note=40 velocity=0 time=0
EXTRACT: note_on channel=9 note=39 velocity=0 time=0
EXTRACT: note_on channel=9 note=39 velocity=0 time=0.031175083333333332
EXTRACT: note_on channel=7 note=43 velocity=77 time=0.1294965
EXTRACT: note_on channel=1 note=32 velocity=118 time=0.0023980833333333332
EXTRACT: note_on channel=6 note=55 velocity=79 time=0
EXTRACT: note_on channel=9 note=46 velocity=62 time=0.021582749999999998
EXTRACT: control_change channel=6 control=11 value=117 time=0.03357316666666667
EXTRACT: control_change channel=7 control=11 value=114 time=0.0047961666666666665
EXTRACT: control_change channel=6 control=11 value=112 time=0.016786583333333334
EXTRACT: note_on channel=9 note=46 velocity=0 time=0.0023980833333333332
EXTRACT: control_change channel=7 control=11 value=110 time=0.0047961666666666665
EXTRACT: control_change channel=6 control=11 value=108 time=0.009592333333333333
EXTRACT: control_change channel=7 control=11 value=105 time=0.0047961666666666665
EXTRACT: control_change channel=6 control=11 value=99 time=0.019184666666666666
EXTRACT: control_change channel=7 control=11 value=96 time=0.011990416666666667
EXTRACT: note_on channel=9 note=42 velocity=83 time=0.0023980833333333332
EXTRACT: control_change channel=6 control=11 value=94 time=0.007194249999999999
EXTRACT: control_change channel=7 control=11 value=92 time=0.007194249999999999
EXTRACT: control_change channel=6 control=11 value=90 time=0.016786583333333334
EXTRACT: control_change channel=7 control=11 value=88 time=0.0047961666666666665
EXTRACT: control_change channel=6 control=11 value=86 time=0.019184666666666666
EXTRACT: note_on channel=9 note=42 velocity=0 time=0.0023980833333333332
EXTRACT: control_change channel=7 control=11 value=84 time=0.026378916666666665
EXTRACT: note_on channel=7 note=43 velocity=0 time=0.007194249999999999
EXTRACT: note_on channel=1 note=32 velocity=0 time=0.0023980833333333332
EXTRACT: note_on channel=6 note=55 velocity=0 time=0
EXTRACT: control_change channel=6 control=11 value=120 time=0
EXTRACT: note_on channel=7 note=44 velocity=74 time=0.0047961666666666665
EXTRACT: note_on channel=6 note=56 velocity=77 time=0.0023980833333333332
EXTRACT: note_on channel=4 note=63 velocity=0 time=0.0047961666666666665
EXTRACT: note_on channel=4 note=60 velocity=0 time=0
EXTRACT: note_on channel=4 note=56 velocity=0 time=0
EXTRACT: note_on channel=4 note=51 velocity=0 time=0
EXTRACT: note_on channel=9 note=70 velocity=81 time=0.0023980833333333332
EXTRACT: note_on channel=4 note=52 velocity=99 time=0.0047961666666666665
EXTRACT: note_on channel=4 note=64 velocity=105 time=0
EXTRACT: note_on channel=4 note=60 velocity=103 time=0
EXTRACT: note_on channel=4 note=56 velocity=101 time=0
EXTRACT: note_on channel=9 note=35 velocity=97 time=0.0023980833333333332
EXTRACT: note_on channel=3 note=75 velocity=0 time=0.011990416666666667
EXTRACT: note_on channel=3 note=63 velocity=0 time=0
EXTRACT: control_change channel=7 control=11 value=117 time=0.026378916666666665
EXTRACT: control_change channel=6 control=11 value=115 time=0.009592333333333333
EXTRACT: note_on channel=9 note=70 velocity=0 time=0.0023980833333333332
EXTRACT: note_on channel=9 note=35 velocity=0 time=0.007194249999999999
EXTRACT: control_change channel=7 control=11 value=113 time=0.0047961666666666665
EXTRACT: control_change channel=6 control=11 value=111 time=0.009592333333333333
EXTRACT: control_change channel=7 control=11 value=109 time=0.0047961666666666665
EXTRACT: control_change channel=6 control=11 value=106 time=0.011990416666666667
EXTRACT: control_change channel=7 control=11 value=101 time=0.011990416666666667
EXTRACT: control_change channel=6 control=11 value=99 time=0.009592333333333333
EXTRACT: control_change channel=7 control=11 value=96 time=0.014388499999999999
EXTRACT: control_change channel=6 control=11 value=94 time=0.009592333333333333
EXTRACT: control_change channel=7 control=11 value=92 time=0.014388499999999999
EXTRACT: control_change channel=6 control=11 value=90 time=0.016786583333333334
EXTRACT: control_change channel=7 control=11 value=88 time=0.014388499999999999
EXTRACT: control_change channel=6 control=11 value=86 time=0.026378916666666665
EXTRACT: note_on channel=7 note=44 velocity=0 time=0.0023980833333333332
EXTRACT: note_on channel=6 note=56 velocity=0 time=0.0023980833333333332
EXTRACT: control_change channel=7 control=11 value=120 time=0
EXTRACT: note_on channel=7 note=44 velocity=69 time=0.007194249999999999
EXTRACT: note_on channel=1 note=32 velocity=126 time=0.0023980833333333332
EXTRACT: note_on channel=6 note=56 velocity=69 time=0
EXTRACT: note_on channel=9 note=46 velocity=61 time=0.021582749999999998
EXTRACT: control_change channel=6 control=11 value=118 time=0.026378916666666665
EXTRACT: control_change channel=7 control=11 value=116 time=0.0047961666666666665
EXTRACT: control_change channel=6 control=11 value=113 time=0.016786583333333334
EXTRACT: note_on channel=9 note=46 velocity=0 time=0.009592333333333333
EXTRACT: control_change channel=7 control=11 value=110 time=0.0047961666666666665
EXTRACT: control_change channel=6 control=11 value=108 time=0.009592333333333333
EXTRACT: control_change channel=7 control=11 value=106 time=0.0047961666666666665
EXTRACT: control_change channel=6 control=11 value=104 time=0.019184666666666666
EXTRACT: control_change channel=7 control=11 value=102 time=0.0047961666666666665
EXTRACT: control_change channel=6 control=11 value=100 time=0.009592333333333333
EXTRACT: note_on channel=9 note=42 velocity=87 time=0
EXTRACT: control_change channel=7 control=11 value=98 time=0.007194249999999999
EXTRACT: control_change channel=6 control=11 value=96 time=0.009592333333333333
EXTRACT: control_change channel=7 control=11 value=94 time=0.011990416666666667
EXTRACT: control_change channel=6 control=11 value=91 time=0.011990416666666667
EXTRACT: control_change channel=7 control=11 value=89 time=0.0047961666666666665
EXTRACT: control_change channel=6 control=11 value=87 time=0.009592333333333333
EXTRACT: note_on channel=9 note=42 velocity=0 time=0.0023980833333333332
EXTRACT: control_change channel=7 control=11 value=85 time=0.0023980833333333332
EXTRACT: control_change channel=6 control=11 value=83 time=0.011990416666666667
EXTRACT: control_change channel=7 control=11 value=81 time=0.0047961666666666665
EXTRACT: note_on channel=1 note=32 velocity=0 time=0.016786583333333334
EXTRACT: control_change channel=6 control=11 value=79 time=0
EXTRACT: control_change channel=7 control=11 value=77 time=0.014388499999999999
EXTRACT: note_on channel=9 note=70 velocity=82 time=0
EXTRACT: note_on channel=3 note=72 velocity=81 time=0.009592333333333333
EXTRACT: note_on channel=3 note=84 velocity=112 time=0
EXTRACT: control_change channel=6 control=11 value=75 time=0
EXTRACT: note_on channel=9 note=37 velocity=91 time=0
EXTRACT: note_on channel=9 note=28 velocity=68 time=0
EXTRACT: note_on channel=9 note=39 velocity=67 time=0
EXTRACT: note_on channel=9 note=35 velocity=97 time=0
EXTRACT: note_on channel=9 note=28 velocity=0 time=0.0023980833333333332
EXTRACT: note_on channel=9 note=37 velocity=0 time=0
EXTRACT: note_on channel=9 note=40 velocity=65 time=0
EXTRACT: control_change channel=7 control=11 value=72 time=0.011990416666666667
EXTRACT: control_change channel=6 control=11 value=70 time=0.009592333333333333
EXTRACT: control_change channel=7 control=11 value=68 time=0.0047961666666666665
EXTRACT: note_on channel=9 note=39 velocity=50 time=0.0023980833333333332
EXTRACT: control_change channel=6 control=11 value=65 time=0.016786583333333334
EXTRACT: note_on channel=9 note=70 velocity=0 time=0
EXTRACT: note_on channel=9 note=39 velocity=0 time=0.009592333333333333
EXTRACT: note_on channel=9 note=35 velocity=0 time=0
EXTRACT: control_change channel=7 control=11 value=63 time=0.0023980833333333332
EXTRACT: note_on channel=9 note=40 velocity=0 time=0
EXTRACT: control_change channel=6 control=11 value=61 time=0.019184666666666666
EXTRACT: note_on channel=9 note=39 velocity=0 time=0.009592333333333333
EXTRACT: control_change channel=7 control=11 value=59 time=0.019184666666666666
EXTRACT: control_change channel=6 control=11 value=57 time=0.016786583333333334
EXTRACT: control_change channel=7 control=11 value=55 time=0.014388499999999999
EXTRACT: control_change channel=6 control=11 value=53 time=0.016786583333333334
EXTRACT: control_change channel=7 control=11 value=51 time=0.014388499999999999
EXTRACT: note_on channel=3 note=84 velocity=0 time=0.019184666666666666
EXTRACT: note_on channel=3 note=72 velocity=0 time=0
EXTRACT: note_on channel=1 note=32 velocity=118 time=0.031175083333333332
EXTRACT: control_change channel=6 control=11 value=49 time=0.007194249999999999
EXTRACT: control_change channel=7 control=11 value=47 time=0.011990416666666667
EXTRACT: note_on channel=9 note=46 velocity=59 time=0.0023980833333333332
EXTRACT: control_change channel=6 control=11 value=45 time=0.016786583333333334
EXTRACT: note_on channel=9 note=85 velocity=78 time=0.03357316666666667
EXTRACT: control_change channel=7 control=11 value=43 time=0.0023980833333333332
EXTRACT: note_on channel=9 note=46 velocity=0 time=0.0047961666666666665
EXTRACT: control_change channel=6 control=11 value=41 time=0.011990416666666667
EXTRACT: note_on channel=9 note=85 velocity=0 time=0.011990416666666667
EXTRACT: note_on channel=9 note=42 velocity=87 time=0.026378916666666665
EXTRACT: note_on channel=9 note=85 velocity=77 time=0.019184666666666666
EXTRACT: note_on channel=9 note=85 velocity=0 time=0.031175083333333332
EXTRACT: note_on channel=9 note=42 velocity=0 time=0.007194249999999999
EXTRACT: note_on channel=1 note=32 velocity=0 time=0.03836933333333333
EXTRACT: note_on channel=9 note=70 velocity=81 time=0.014388499999999999
EXTRACT: note_on channel=9 note=85 velocity=80 time=0.007194249999999999
EXTRACT: note_on channel=9 note=35 velocity=97 time=0
EXTRACT: note_on channel=3 note=64 velocity=80 time=0.011990416666666667
EXTRACT: note_on channel=3 note=76 velocity=110 time=0
EXTRACT: note_on channel=9 note=85 velocity=0 time=0.019184666666666666
EXTRACT: note_on channel=9 note=70 velocity=0 time=0.019184666666666666
EXTRACT: note_on channel=9 note=35 velocity=0 time=0.007194249999999999
EXTRACT: control_change channel=7 control=11 value=39 time=0.050359749999999995
EXTRACT: control_change channel=6 control=11 value=37 time=0.019184666666666666
EXTRACT: note_on channel=1 note=32 velocity=121 time=0.09352524999999999
EXTRACT: note_on channel=9 note=46 velocity=61 time=0.021582749999999998
EXTRACT: note_on channel=9 note=46 velocity=0 time=0.057553999999999994
EXTRACT: note_on channel=9 note=42 velocity=87 time=0.05275783333333333
EXTRACT: note_on channel=9 note=42 velocity=0 time=0.057553999999999994
EXTRACT: note_on channel=1 note=32 velocity=0 time=0.035971249999999996
EXTRACT: note_on channel=9 note=70 velocity=82 time=0.014388499999999999
EXTRACT: note_on channel=3 note=76 velocity=0 time=0.0023980833333333332
EXTRACT: note_on channel=3 note=64 velocity=0 time=0
EXTRACT: note_on channel=9 note=40 velocity=56 time=0.0047961666666666665
EXTRACT: note_on channel=9 note=37 velocity=91 time=0
EXTRACT: note_on channel=9 note=28 velocity=68 time=0
EXTRACT: note_on channel=9 note=39 velocity=72 time=0
EXTRACT: note_on channel=9 note=35 velocity=97 time=0
EXTRACT: note_on channel=9 note=28 velocity=0 time=0.0023980833333333332
EXTRACT: note_on channel=9 note=37 velocity=0 time=0
EXTRACT: control_change channel=7 control=11 value=39 time=0.0047961666666666665
EXTRACT: note_on channel=3 note=72 velocity=81 time=0.014388499999999999
EXTRACT: note_on channel=3 note=84 velocity=111 time=0
EXTRACT: note_on channel=9 note=39 velocity=55 time=0.009592333333333333
EXTRACT: note_on channel=9 note=70 velocity=0 time=0.019184666666666666
EXTRACT: note_on channel=9 note=35 velocity=0 time=0.007194249999999999
EXTRACT: note_on channel=9 note=40 velocity=0 time=0
EXTRACT: note_on channel=9 note=39 velocity=0 time=0
EXTRACT: note_on channel=9 note=39 velocity=0 time=0.031175083333333332
EXTRACT: control_change channel=6 control=11 value=41 time=0.007194249999999999
EXTRACT: control_change channel=4 control=11 value=78 time=0.007194249999999999
EXTRACT: note_on channel=1 note=32 velocity=126 time=0.11750608333333333
EXTRACT: note_on channel=9 note=46 velocity=61 time=0.021582749999999998
EXTRACT: control_change channel=7 control=11 value=43 time=0.014388499999999999
EXTRACT: note_on channel=3 note=84 velocity=0 time=0.03357316666666667
EXTRACT: note_on channel=3 note=72 velocity=0 time=0
EXTRACT: note_on channel=9 note=46 velocity=0 time=0.009592333333333333
EXTRACT: note_on channel=9 note=42 velocity=86 time=0.05275783333333333
EXTRACT: control_change channel=6 control=11 value=45 time=0.023980833333333333
EXTRACT: control_change channel=7 control=11 value=47 time=0.014388499999999999
EXTRACT: note_on channel=9 note=42 velocity=0 time=0.019184666666666666
EXTRACT: note_on channel=1 note=32 velocity=0 time=0.035971249999999996
EXTRACT: control_change channel=6 control=11 value=49 time=0.009592333333333333
EXTRACT: note_on channel=9 note=70 velocity=82 time=0.0047961666666666665
EXTRACT: note_on channel=11 note=51 velocity=127 time=0.0047961666666666665
EXTRACT: note_on channel=9 note=35 velocity=97 time=0.0047961666666666665
EXTRACT: note_on channel=11 note=51 velocity=0 time=0.026378916666666665
EXTRACT: control_change channel=7 control=11 value=51 time=0.0023980833333333332
EXTRACT: note_on channel=3 note=70 velocity=80 time=0.0023980833333333332
EXTRACT: note_on channel=3 note=82 velocity=110 time=0
EXTRACT: note_on channel=9 note=70 velocity=0 time=0.016786583333333334
EXTRACT: note_on channel=9 note=35 velocity=0 time=0.009592333333333333
EXTRACT: control_change channel=6 control=11 value=53 time=0.021582749999999998
EXTRACT: control_change channel=7 control=11 value=55 time=0.011990416666666667
EXTRACT: control_change channel=6 control=11 value=57 time=0.019184666666666666
EXTRACT: control_change channel=4 control=11 value=80 time=0.007194249999999999
EXTRACT: control_change channel=7 control=11 value=59 time=0.028776999999999997
EXTRACT: control_change channel=6 control=11 value=61 time=0.026378916666666665
EXTRACT: note_on channel=1 note=32 velocity=118 time=0.047961666666666666
EXTRACT: control_change channel=7 control=11 value=63 time=0.019184666666666666
EXTRACT: note_on channel=9 note=46 velocity=61 time=0.0023980833333333332
EXTRACT: control_change channel=6 control=11 value=65 time=0.016786583333333334
EXTRACT: control_change channel=7 control=11 value=67 time=0.011990416666666667
EXTRACT: note_on channel=9 note=46 velocity=0 time=0.028776999999999997
EXTRACT: note_on channel=9 note=42 velocity=83 time=0.050359749999999995
EXTRACT: control_change channel=6 control=11 value=69 time=0.0023980833333333332
EXTRACT: control_change channel=7 control=11 value=71 time=0.011990416666666667
EXTRACT: note_on channel=9 note=42 velocity=0 time=0.043165499999999996
EXTRACT: note_on channel=3 note=82 velocity=0 time=0.0047961666666666665
EXTRACT: note_on channel=3 note=70 velocity=0 time=0
EXTRACT: control_change channel=6 control=11 value=73 time=0.016786583333333334
EXTRACT: note_on channel=1 note=32 velocity=0 time=0.016786583333333334
EXTRACT: note_on channel=3 note=72 velocity=78 time=0.0023980833333333332
EXTRACT: note_on channel=3 note=84 velocity=108 time=0
EXTRACT: note_on channel=9 note=70 velocity=83 time=0.011990416666666667
EXTRACT: note_on channel=11 note=44 velocity=127 time=0.0023980833333333332
EXTRACT: note_on channel=9 note=37 velocity=91 time=0.0047961666666666665
EXTRACT: note_on channel=9 note=28 velocity=68 time=0
EXTRACT: note_on channel=9 note=39 velocity=67 time=0
EXTRACT: note_on channel=9 note=35 velocity=97 time=0
EXTRACT: note_on channel=9 note=28 velocity=0 time=0.0023980833333333332
EXTRACT: note_on channel=9 note=37 velocity=0 time=0
EXTRACT: note_on channel=9 note=40 velocity=63 time=0.0023980833333333332
EXTRACT: note_on channel=11 note=44 velocity=0 time=0.021582749999999998
EXTRACT: note_on channel=9 note=39 velocity=50 time=0.0047961666666666665
EXTRACT: control_change channel=7 control=11 value=75 time=0.014388499999999999
EXTRACT: note_on channel=9 note=70 velocity=0 time=0.0047961666666666665
EXTRACT: note_on channel=9 note=39 velocity=0 time=0.007194249999999999
EXTRACT: note_on channel=9 note=35 velocity=0 time=0
EXTRACT: note_on channel=9 note=40 velocity=0 time=0.0047961666666666665
EXTRACT: control_change channel=6 control=11 value=77 time=0.0023980833333333332
EXTRACT: note_on channel=9 note=39 velocity=0 time=0.023980833333333333
EXTRACT: note_on channel=3 note=84 velocity=0 time=0.11270991666666666
EXTRACT: note_on channel=3 note=72 velocity=0 time=0
EXTRACT: note_on channel=1 note=32 velocity=121 time=0.019184666666666666
EXTRACT: note_on channel=9 note=46 velocity=62 time=0.021582749999999998
EXTRACT: note_on channel=3 note=70 velocity=81 time=0.011990416666666667
EXTRACT: note_on channel=3 note=82 velocity=111 time=0
EXTRACT: control_change channel=7 control=11 value=79 time=0.0023980833333333332
EXTRACT: control_change channel=6 control=11 value=81 time=0.019184666666666666
EXTRACT: note_on channel=9 note=46 velocity=0 time=0.023980833333333333
EXTRACT: control_change channel=7 control=11 value=83 time=0.035971249999999996
EXTRACT: control_change channel=6 control=11 value=85 time=0.016786583333333334
EXTRACT: note_on channel=9 note=42 velocity=84 time=0
EXTRACT: control_change channel=7 control=11 value=87 time=0.014388499999999999
EXTRACT: note_on channel=9 note=42 velocity=0 time=0.043165499999999996
EXTRACT: note_on channel=1 note=32 velocity=0 time=0.035971249999999996
EXTRACT: note_on channel=9 note=70 velocity=83 time=0.014388499999999999
EXTRACT: note_on channel=11 note=51 velocity=127 time=0.0023980833333333332
EXTRACT: note_on channel=9 note=35 velocity=97 time=0.0047961666666666665
EXTRACT: note_on channel=11 note=51 velocity=0 time=0.026378916666666665
EXTRACT: note_on channel=9 note=70 velocity=0 time=0.023980833333333333
EXTRACT: note_on channel=9 note=35 velocity=0 time=0.007194249999999999
EXTRACT: control_change channel=4 control=11 value=78 time=0.05275783333333333
EXTRACT: note_on channel=3 note=82 velocity=0 time=0.021582749999999998
EXTRACT: note_on channel=3 note=70 velocity=0 time=0
EXTRACT: control_change channel=6 control=11 value=89 time=0.03357316666666667
EXTRACT: control_change channel=7 control=11 value=91 time=0.014388499999999999
EXTRACT: note_on channel=1 note=32 velocity=121 time=0.04076741666666667
EXTRACT: control_change channel=6 control=11 value=93 time=0
EXTRACT: note_on channel=3 note=68 velocity=78 time=0.009592333333333333
EXTRACT: note_on channel=3 note=80 velocity=107 time=0
EXTRACT: note_on channel=9 note=46 velocity=63 time=0.011990416666666667
EXTRACT: control_change channel=7 control=11 value=95 time=0.014388499999999999
EXTRACT: control_change channel=6 control=11 value=98 time=0.019184666666666666
EXTRACT: control_change channel=7 control=11 value=100 time=0.011990416666666667
EXTRACT: note_on channel=9 note=85 velocity=76 time=0.007194249999999999
EXTRACT: note_on channel=9 note=46 velocity=0 time=0.0047961666666666665
EXTRACT: control_change channel=6 control=11 value=103 time=0.007194249999999999
EXTRACT: control_change channel=7 control=11 value=105 time=0.0047961666666666665
EXTRACT: note_on channel=9 note=85 velocity=0 time=0.014388499999999999
EXTRACT: control_change channel=6 control=11 value=109 time=0.0047961666666666665
EXTRACT: control_change channel=7 control=11 value=111 time=0.0047961666666666665
EXTRACT: control_change channel=6 control=11 value=113 time=0.009592333333333333
EXTRACT: control_change channel=7 control=11 value=117 time=0.0047961666666666665
EXTRACT: note_on channel=9 note=42 velocity=83 time=0.0023980833333333332
EXTRACT: control_change channel=6 control=11 value=120 time=0.009592333333333333
EXTRACT: control_change channel=7 control=11 value=122 time=0.0047961666666666665
EXTRACT: note_on channel=9 note=85 velocity=77 time=0.0047961666666666665
EXTRACT: control_change channel=6 control=11 value=120 time=0.011990416666666667
EXTRACT: note_on channel=9 note=39 velocity=50 time=0.007194249999999999
EXTRACT: note_on channel=9 note=85 velocity=0 time=0.011990416666666667
EXTRACT: note_on channel=9 note=42 velocity=0 time=0.007194249999999999
EXTRACT: note_on channel=7 note=44 velocity=0 time=0.0023980833333333332
EXTRACT: note_on channel=3 note=80 velocity=0 time=0.007194249999999999
EXTRACT: note_on channel=3 note=68 velocity=0 time=0
EXTRACT: control_change channel=4 control=11 value=76 time=0.0023980833333333332
EXTRACT: note_on channel=6 note=56 velocity=0 time=0.011990416666666667
EXTRACT: note_on channel=1 note=32 velocity=0 time=0.011990416666666667
EXTRACT: note_on channel=9 note=39 velocity=0 time=0.0023980833333333332
EXTRACT: note_on channel=3 note=64 velocity=81 time=0.014388499999999999
EXTRACT: note_on channel=3 note=76 velocity=112 time=0
EXTRACT: note_on channel=9 note=70 velocity=83 time=0
EXTRACT: note_on channel=11 note=44 velocity=127 time=0.0023980833333333332
EXTRACT: note_on channel=9 note=40 velocity=53 time=0.0047961666666666665
EXTRACT: note_on channel=9 note=37 velocity=91 time=0
EXTRACT: note_on channel=9 note=28 velocity=68 time=0
EXTRACT: note_on channel=9 note=39 velocity=73 time=0
EXTRACT: note_on channel=9 note=85 velocity=81 time=0
EXTRACT: note_on channel=9 note=35 velocity=97 time=0
EXTRACT: note_on channel=9 note=28 velocity=0 time=0.0023980833333333332
EXTRACT: note_on channel=9 note=37 velocity=0 time=0
EXTRACT: note_on channel=11 note=44 velocity=0 time=0.023980833333333333
EXTRACT: note_on channel=9 note=85 velocity=0 time=0.0047961666666666665
EXTRACT: note_on channel=9 note=39 velocity=55 time=0
EXTRACT: note_on channel=9 note=70 velocity=0 time=0.019184666666666666
EXTRACT: note_on channel=9 note=35 velocity=0 time=0.007194249999999999
EXTRACT: note_on channel=9 note=40 velocity=0 time=0
EXTRACT: note_on channel=9 note=39 velocity=0 time=0
EXTRACT: note_on channel=9 note=39 velocity=0 time=0.031175083333333332
EXTRACT: note_on channel=7 note=43 velocity=80 time=0.12709841666666666
EXTRACT: note_on channel=6 note=55 velocity=79 time=0.0023980833333333332
EXTRACT: note_on channel=1 note=32 velocity=118 time=0.0023980833333333332
EXTRACT: note_on channel=9 note=46 velocity=62 time=0.021582749999999998
EXTRACT: control_change channel=7 control=11 value=118 time=0.028776999999999997
EXTRACT: control_change channel=6 control=11 value=116 time=0.009592333333333333
EXTRACT: control_change channel=7 control=11 value=114 time=0.014388499999999999
EXTRACT: note_on channel=9 note=46 velocity=0 time=0.0047961666666666665
EXTRACT: control_change channel=6 control=11 value=112 time=0.0047961666666666665
EXTRACT: control_change channel=7 control=11 value=109 time=0.014388499999999999
EXTRACT: control_change channel=6 control=11 value=107 time=0.009592333333333333
EXTRACT: control_change channel=7 control=11 value=104 time=0.0047961666666666665
EXTRACT: note_on channel=9 note=42 velocity=83 time=0.016786583333333334
EXTRACT: control_change channel=6 control=11 value=101 time=0.0023980833333333332
EXTRACT: control_change channel=7 control=11 value=98 time=0.011990416666666667
EXTRACT: control_change channel=6 control=11 value=96 time=0.019184666666666666
EXTRACT: control_change channel=7 control=11 value=94 time=0.011990416666666667
EXTRACT: note_on channel=9 note=42 velocity=0 time=0.011990416666666667
EXTRACT: control_change channel=6 control=11 value=92 time=0.014388499999999999
EXTRACT: note_on channel=3 note=76 velocity=0 time=0.0023980833333333332
EXTRACT: note_on channel=3 note=64 velocity=0 time=0
EXTRACT: note_on channel=7 note=43 velocity=0 time=0.016786583333333334
EXTRACT: note_on channel=6 note=55 velocity=0 time=0.0023980833333333332
EXTRACT: control_change channel=7 control=11 value=120 time=0
EXTRACT: note_on channel=1 note=32 velocity=0 time=0.0023980833333333332
EXTRACT: note_on channel=7 note=44 velocity=79 time=0.0047961666666666665
EXTRACT: note_on channel=6 note=56 velocity=78 time=0.0023980833333333332
EXTRACT: note_on channel=4 note=56 velocity=0 time=0.007194249999999999
EXTRACT: note_on channel=4 note=60 velocity=0 time=0
EXTRACT: note_on channel=4 note=56 velocity=99 time=0
EXTRACT: note_on channel=4 note=65 velocity=104 time=0
EXTRACT: note_on channel=4 note=53 velocity=99 time=0
EXTRACT: note_on channel=4 note=60 velocity=102 time=0
EXTRACT: note_on channel=9 note=70 velocity=81 time=0
EXTRACT: note_on channel=4 note=64 velocity=0 time=0.0023980833333333332
EXTRACT: note_on channel=4 note=52 velocity=0 time=0
EXTRACT: note_on channel=11 note=52 velocity=127 time=0
EXTRACT: note_on channel=9 note=35 velocity=97 time=0.0047961666666666665
EXTRACT: note_on channel=11 note=52 velocity=0 time=0.026378916666666665
EXTRACT: control_change channel=6 control=11 value=118 time=0.014388499999999999
EXTRACT: control_change channel=7 control=11 value=116 time=0.0047961666666666665
EXTRACT: note_on channel=9 note=70 velocity=0 time=0.0047961666666666665
EXTRACT: note_on channel=9 note=35 velocity=0 time=0.007194249999999999
EXTRACT: control_change channel=6 control=11 value=113 time=0.014388499999999999
EXTRACT: control_change channel=7 control=11 value=110 time=0.011990416666666667
EXTRACT: control_change channel=6 control=11 value=106 time=0.019184666666666666
EXTRACT: control_change channel=7 control=11 value=104 time=0.011990416666666667
EXTRACT: control_change channel=6 control=11 value=102 time=0.019184666666666666
EXTRACT: control_change channel=7 control=11 value=100 time=0.011990416666666667
EXTRACT: control_change channel=6 control=11 value=98 time=0.019184666666666666
EXTRACT: control_change channel=7 control=11 value=96 time=0.035971249999999996
EXTRACT: note_on channel=7 note=44 velocity=0 time=0.007194249999999999
EXTRACT: note_on channel=6 note=56 velocity=0 time=0.0023980833333333332
EXTRACT: control_change channel=6 control=11 value=120 time=0.0023980833333333332
EXTRACT: note_on channel=7 note=44 velocity=70 time=0.0047961666666666665
EXTRACT: note_on channel=1 note=32 velocity=126 time=0.0023980833333333332
EXTRACT: note_on channel=6 note=56 velocity=69 time=0
EXTRACT: note_on channel=9 note=46 velocity=61 time=0.021582749999999998
EXTRACT: control_change channel=7 control=11 value=118 time=0.021582749999999998
EXTRACT: control_change channel=6 control=11 value=116 time=0.019184666666666666
EXTRACT: control_change channel=7 control=11 value=113 time=0.011990416666666667
EXTRACT: note_on channel=9 note=46 velocity=0 time=0.0047961666666666665
EXTRACT: control_change channel=6 control=11 value=111 time=0.014388499999999999
EXTRACT: control_change channel=7 control=11 value=109 time=0.0047961666666666665
EXTRACT: control_change channel=6 control=11 value=107 time=0.019184666666666666
EXTRACT: control_change channel=7 control=11 value=104 time=0.011990416666666667
EXTRACT: note_on channel=9 note=42 velocity=87 time=0.0023980833333333332
EXTRACT: control_change channel=6 control=11 value=102 time=0.016786583333333334
EXTRACT: control_change channel=7 control=11 value=100 time=0.0047961666666666665
EXTRACT: control_change channel=6 control=11 value=98 time=0.016786583333333334
EXTRACT: control_change channel=7 control=11 value=96 time=0.007194249999999999
EXTRACT: control_change channel=6 control=11 value=94 time=0.009592333333333333
EXTRACT: note_on channel=9 note=42 velocity=0 time=0.0023980833333333332
EXTRACT: control_change channel=7 control=11 value=92 time=0.0023980833333333332
EXTRACT: control_change channel=6 control=11 value=89 time=0.019184666666666666
EXTRACT: note_on channel=3 note=72 velocity=81 time=0.009592333333333333
EXTRACT: note_on channel=3 note=84 velocity=112 time=0
EXTRACT: note_on channel=1 note=32 velocity=0 time=0.0047961666666666665
EXTRACT: control_change channel=7 control=11 value=87 time=0.0047961666666666665
EXTRACT: note_on channel=9 note=70 velocity=83 time=0.009592333333333333
EXTRACT: note_on channel=11 note=52 velocity=127 time=0.0023980833333333332
EXTRACT: note_on channel=9 note=37 velocity=91 time=0.0047961666666666665
EXTRACT: note_on channel=9 note=28 velocity=68 time=0
EXTRACT: note_on channel=9 note=39 velocity=67 time=0
EXTRACT: note_on channel=9 note=35 velocity=97 time=0
EXTRACT: control_change channel=6 control=11 value=85 time=0.0023980833333333332
EXTRACT: note_on channel=9 note=28 velocity=0 time=0
EXTRACT: note_on channel=9 note=37 velocity=0 time=0
EXTRACT: note_on channel=9 note=40 velocity=65 time=0.0023980833333333332
EXTRACT: control_change channel=7 control=11 value=82 time=0.009592333333333333
EXTRACT: note_on channel=11 note=52 velocity=0 time=0.011990416666666667
EXTRACT: note_on channel=9 note=39 velocity=50 time=0.0047961666666666665
EXTRACT: control_change channel=6 control=11 value=79 time=0.0023980833333333332
EXTRACT: control_change channel=7 control=11 value=77 time=0.011990416666666667
EXTRACT: note_on channel=9 note=70 velocity=0 time=0.0047961666666666665
EXTRACT: note_on channel=9 note=39 velocity=0 time=0.007194249999999999
EXTRACT: note_on channel=9 note=35 velocity=0 time=0
EXTRACT: note_on channel=9 note=40 velocity=0 time=0.0047961666666666665
EXTRACT: control_change channel=6 control=11 value=75 time=0.0023980833333333332
EXTRACT: control_change channel=7 control=11 value=73 time=0.021582749999999998
EXTRACT: note_on channel=9 note=39 velocity=0 time=0.0023980833333333332
EXTRACT: control_change channel=6 control=11 value=71 time=0.031175083333333332
EXTRACT: control_change channel=7 control=11 value=69 time=0.021582749999999998
EXTRACT: control_change channel=6 control=11 value=67 time=0.016786583333333334
EXTRACT: control_change channel=7 control=11 value=65 time=0.028776999999999997
EXTRACT: note_on channel=3 note=84 velocity=0 time=0.031175083333333332
EXTRACT: note_on channel=3 note=72 velocity=0 time=0
EXTRACT: note_on channel=1 note=32 velocity=118 time=0.0023980833333333332
EXTRACT: control_change channel=6 control=11 value=63 time=0.016786583333333334
EXTRACT: note_on channel=9 note=46 velocity=59 time=0.0047961666666666665
EXTRACT: control_change channel=7 control=11 value=61 time=0.014388499999999999
EXTRACT: note_on channel=9 note=85 velocity=78 time=0.03836933333333333
EXTRACT: note_on channel=9 note=46 velocity=0 time=0.0047961666666666665
EXTRACT: control_change channel=6 control=11 value=59 time=0.007194249999999999
EXTRACT: note_on channel=9 note=85 velocity=0 time=0.019184666666666666
EXTRACT: control_change channel=7 control=11 value=57 time=0.023980833333333333
EXTRACT: note_on channel=9 note=42 velocity=87 time=0.0023980833333333332
EXTRACT: note_on channel=9 note=85 velocity=77 time=0.019184666666666666
EXTRACT: note_on channel=9 note=85 velocity=0 time=0.031175083333333332
EXTRACT: note_on channel=9 note=42 velocity=0 time=0.007194249999999999
EXTRACT: note_on channel=1 note=32 velocity=0 time=0.035971249999999996
EXTRACT: note_on channel=9 note=70 velocity=83 time=0.016786583333333334
EXTRACT: note_on channel=9 note=85 velocity=80 time=0.007194249999999999
EXTRACT: note_on channel=9 note=35 velocity=97 time=0
EXTRACT: note_on channel=3 note=65 velocity=81 time=0.011990416666666667
EXTRACT: note_on channel=3 note=77 velocity=112 time=0
EXTRACT: note_on channel=9 note=85 velocity=0 time=0.019184666666666666
EXTRACT: note_on channel=9 note=70 velocity=0 time=0.019184666666666666
EXTRACT: note_on channel=9 note=35 velocity=0 time=0.007194249999999999
EXTRACT: control_change channel=6 control=11 value=55 time=0.06714633333333334
EXTRACT: note_on channel=1 note=32 velocity=121 time=0.09592333333333333
EXTRACT: note_on channel=9 note=46 velocity=61 time=0.021582749999999998
EXTRACT: note_on channel=9 note=46 velocity=0 time=0.057553999999999994
EXTRACT: note_on channel=9 note=42 velocity=87 time=0.050359749999999995
EXTRACT: note_on channel=9 note=42 velocity=0 time=0.057553999999999994
EXTRACT: note_on channel=1 note=32 velocity=0 time=0.03836933333333333
EXTRACT: note_on channel=3 note=77 velocity=0 time=0.014388499999999999
EXTRACT: note_on channel=3 note=65 velocity=0 time=0
EXTRACT: note_on channel=9 note=70 velocity=82 time=0
EXTRACT: note_on channel=9 note=40 velocity=56 time=0.007194249999999999
EXTRACT: note_on channel=9 note=37 velocity=91 time=0
EXTRACT: note_on channel=9 note=28 velocity=68 time=0
EXTRACT: note_on channel=9 note=39 velocity=72 time=0
EXTRACT: note_on channel=9 note=35 velocity=97 time=0
EXTRACT: note_on channel=9 note=28 velocity=0 time=0.0023980833333333332
EXTRACT: note_on channel=9 note=37 velocity=0 time=0
EXTRACT: note_on channel=3 note=72 velocity=80 time=0.009592333333333333
EXTRACT: note_on channel=3 note=84 velocity=110 time=0
EXTRACT: control_change channel=7 control=11 value=57 time=0.0023980833333333332
EXTRACT: note_on channel=9 note=39 velocity=55 time=0.016786583333333334
EXTRACT: note_on channel=9 note=70 velocity=0 time=0.019184666666666666
EXTRACT: note_on channel=9 note=35 velocity=0 time=0.007194249999999999
EXTRACT: note_on channel=9 note=40 velocity=0 time=0
EXTRACT: note_on channel=9 note=39 velocity=0 time=0
EXTRACT: note_on channel=9 note=39 velocity=0 time=0.031175083333333332
EXTRACT: control_change channel=4 control=11 value=78 time=0.011990416666666667
EXTRACT: note_on channel=1 note=32 velocity=126 time=0.11990416666666666
EXTRACT: note_on channel=9 note=46 velocity=61 time=0.021582749999999998
EXTRACT: control_change channel=6 control=11 value=59 time=0.016786583333333334
EXTRACT: note_on channel=3 note=84 velocity=0 time=0.021582749999999998
EXTRACT: note_on channel=3 note=72 velocity=0 time=0
EXTRACT: note_on channel=9 note=46 velocity=0 time=0.019184666666666666
EXTRACT: note_on channel=9 note=42 velocity=86 time=0.05275783333333333
EXTRACT: control_change channel=7 control=11 value=61 time=0.021582749999999998
EXTRACT: note_on channel=9 note=42 velocity=0 time=0.035971249999999996
EXTRACT: control_change channel=6 control=11 value=63 time=0.028776999999999997
EXTRACT: note_on channel=1 note=32 velocity=0 time=0.007194249999999999
EXTRACT: control_change channel=7 control=11 value=65 time=0.014388499999999999
EXTRACT: note_on channel=9 note=70 velocity=83 time=0
EXTRACT: note_on channel=9 note=35 velocity=97 time=0.007194249999999999
EXTRACT: note_on channel=3 note=70 velocity=78 time=0.0047961666666666665
EXTRACT: note_on channel=3 note=82 velocity=108 time=0
EXTRACT: note_on channel=9 note=70 velocity=0 time=0.04556358333333333
EXTRACT: note_on channel=9 note=35 velocity=0 time=0.007194249999999999
EXTRACT: control_change channel=6 control=11 value=67 time=0.014388499999999999
EXTRACT: control_change channel=7 control=11 value=69 time=0.021582749999999998
EXTRACT: control_change channel=4 control=11 value=80 time=0.023980833333333333
EXTRACT: control_change channel=6 control=11 value=71 time=0.026378916666666665
EXTRACT: control_change channel=7 control=11 value=73 time=0.011990416666666667
EXTRACT: note_on channel=1 note=32 velocity=118 time=0.06474825
EXTRACT: note_on channel=9 note=46 velocity=61 time=0.021582749999999998
EXTRACT: control_change channel=6 control=11 value=75 time=0.0023980833333333332
EXTRACT: control_change channel=7 control=11 value=77 time=0.011990416666666667
EXTRACT: note_on channel=9 note=46 velocity=0 time=0.043165499999999996
EXTRACT: control_change channel=6 control=11 value=79 time=0.014388499999999999
EXTRACT: note_on channel=9 note=42 velocity=83 time=0.03836933333333333
EXTRACT: control_change channel=7 control=11 value=81 time=0.007194249999999999
EXTRACT: note_on channel=3 note=82 velocity=0 time=0.026378916666666665
EXTRACT: note_on channel=3 note=70 velocity=0 time=0
EXTRACT: note_on channel=9 note=42 velocity=0 time=0.023980833333333333
EXTRACT: control_change channel=6 control=11 value=83 time=0.021582749999999998
EXTRACT: note_on channel=1 note=32 velocity=0 time=0.014388499999999999
EXTRACT: note_on channel=3 note=72 velocity=79 time=0.0047961666666666665
EXTRACT: note_on channel=3 note=84 velocity=109 time=0
EXTRACT: note_on channel=9 note=70 velocity=80 time=0.011990416666666667
EXTRACT: note_on channel=9 note=37 velocity=91 time=0.007194249999999999
EXTRACT: note_on channel=9 note=28 velocity=68 time=0
EXTRACT: note_on channel=9 note=39 velocity=67 time=0
EXTRACT: note_on channel=9 note=35 velocity=97 time=0
EXTRACT: note_on channel=9 note=28 velocity=0 time=0.0023980833333333332
EXTRACT: note_on channel=9 note=37 velocity=0 time=0
EXTRACT: note_on channel=9 note=40 velocity=64 time=0
EXTRACT: note_on channel=9 note=39 velocity=50 time=0.028776999999999997
EXTRACT: note_on channel=9 note=70 velocity=0 time=0.019184666666666666
EXTRACT: control_change channel=7 control=11 value=85 time=0.0023980833333333332
EXTRACT: note_on channel=9 note=39 velocity=0 time=0.0047961666666666665
EXTRACT: note_on channel=9 note=35 velocity=0 time=0
EXTRACT: note_on channel=9 note=40 velocity=0 time=0.0023980833333333332
EXTRACT: note_on channel=9 note=39 velocity=0 time=0.028776999999999997
EXTRACT: control_change channel=6 control=11 value=87 time=0.10791374999999999
EXTRACT: note_on channel=3 note=84 velocity=0 time=0.0047961666666666665
EXTRACT: note_on channel=3 note=72 velocity=0 time=0
EXTRACT: note_on channel=1 note=32 velocity=121 time=0.019184666666666666
EXTRACT: note_on channel=3 note=70 velocity=78 time=0.016786583333333334
EXTRACT: note_on channel=3 note=82 velocity=108 time=0
EXTRACT: note_on channel=9 note=46 velocity=62 time=0.0047961666666666665
EXTRACT: control_change channel=7 control=11 value=89 time=0.028776999999999997
EXTRACT: note_on channel=9 note=46 velocity=0 time=0.028776999999999997
EXTRACT: control_change channel=6 control=11 value=91 time=0.035971249999999996
EXTRACT: note_on channel=9 note=42 velocity=84 time=0.014388499999999999
EXTRACT: control_change channel=7 control=11 value=93 time=0.007194249999999999
EXTRACT: note_on channel=9 note=42 velocity=0 time=0.050359749999999995
EXTRACT: note_on channel=1 note=32 velocity=0 time=0.03836933333333333
EXTRACT: note_on channel=9 note=70 velocity=80 time=0.014388499999999999
EXTRACT: note_on channel=9 note=35 velocity=97 time=0.007194249999999999
EXTRACT: control_change channel=6 control=11 value=95 time=0.016786583333333334
EXTRACT: note_on channel=9 note=70 velocity=0 time=0.03357316666666667
EXTRACT: note_on channel=9 note=35 velocity=0 time=0.007194249999999999
EXTRACT: control_change channel=4 control=11 value=78 time=0.05275783333333333
EXTRACT: note_on channel=3 note=82 velocity=0 time=0.009592333333333333
EXTRACT: note_on channel=3 note=70 velocity=0 time=0
EXTRACT: control_change channel=7 control=11 value=97 time=0.05995208333333333
EXTRACT: note_on channel=1 note=32 velocity=121 time=0.04076741666666667
EXTRACT: control_change channel=6 control=11 value=99 time=0.007194249999999999
EXTRACT: note_on channel=3 note=68 velocity=78 time=0.007194249999999999
EXTRACT: note_on channel=3 note=80 velocity=107 time=0
EXTRACT: note_on channel=9 note=46 velocity=63 time=0.007194249999999999
EXTRACT: control_change channel=7 control=11 value=101 time=0.021582749999999998
EXTRACT: control_change channel=6 control=11 value=103 time=0.019184666666666666
EXTRACT: note_on channel=9 note=85 velocity=76 time=0.009592333333333333
EXTRACT: control_change channel=7 control=11 value=105 time=0.0023980833333333332
EXTRACT: note_on channel=9 note=46 velocity=0 time=0.0047961666666666665
EXTRACT: control_change channel=6 control=11 value=107 time=0.014388499999999999
EXTRACT: control_change channel=7 control=11 value=109 time=0.0047961666666666665
EXTRACT: note_on channel=9 note=85 velocity=0 time=0.0047961666666666665
EXTRACT: control_change channel=6 control=11 value=112 time=0.014388499999999999
EXTRACT: control_change channel=7 control=11 value=114 time=0.0047961666666666665
EXTRACT: control_change channel=6 control=11 value=116 time=0.009592333333333333
EXTRACT: note_on channel=9 note=42 velocity=83 time=0
EXTRACT: control_change channel=7 control=11 value=119 time=0.0047961666666666665
EXTRACT: note_on channel=9 note=85 velocity=77 time=0.014388499999999999
EXTRACT: control_change channel=6 control=11 value=121 time=0.0047961666666666665
EXTRACT: note_on channel=9 note=39 velocity=50 time=0.014388499999999999
EXTRACT: note_on channel=9 note=85 velocity=0 time=0.011990416666666667
EXTRACT: note_on channel=9 note=42 velocity=0 time=0.007194249999999999
EXTRACT: note_on channel=7 note=44 velocity=0 time=0.007194249999999999
EXTRACT: control_change channel=4 control=11 value=76 time=0.0047961666666666665
EXTRACT: note_on channel=3 note=80 velocity=0 time=0.0023980833333333332
EXTRACT: note_on channel=3 note=68 velocity=0 time=0
EXTRACT: note_on channel=6 note=56 velocity=0 time=0.0047961666666666665
EXTRACT: note_on channel=1 note=32 velocity=0 time=0.016786583333333334
EXTRACT: note_on channel=9 note=39 velocity=0 time=0.0023980833333333332
EXTRACT: note_on channel=9 note=70 velocity=82 time=0.011990416666666667
EXTRACT: note_on channel=3 note=68 velocity=80 time=0.0047961666666666665
EXTRACT: note_on channel=3 note=80 velocity=110 time=0
EXTRACT: note_on channel=9 note=40 velocity=54 time=0.0023980833333333332
EXTRACT: note_on channel=9 note=37 velocity=91 time=0
EXTRACT: note_on channel=9 note=28 velocity=68 time=0
EXTRACT: note_on channel=9 note=39 velocity=73 time=0
EXTRACT: note_on channel=9 note=85 velocity=81 time=0
EXTRACT: note_on channel=9 note=35 velocity=97 time=0
EXTRACT: note_on channel=9 note=28 velocity=0 time=0.0023980833333333332
EXTRACT: note_on channel=9 note=37 velocity=0 time=0
EXTRACT: note_on channel=9 note=85 velocity=0 time=0.028776999999999997
EXTRACT: note_on channel=9 note=39 velocity=55 time=0.0023980833333333332
EXTRACT: note_on channel=9 note=70 velocity=0 time=0.016786583333333334
EXTRACT: note_on channel=9 note=35 velocity=0 time=0.007194249999999999
EXTRACT: note_on channel=9 note=40 velocity=0 time=0
EXTRACT: note_on channel=9 note=39 velocity=0 time=0
EXTRACT: note_on channel=9 note=39 velocity=0 time=0.03357316666666667
EXTRACT: note_on channel=7 note=43 velocity=74 time=0.12709841666666666
EXTRACT: note_on channel=1 note=32 velocity=118 time=0.0023980833333333332
EXTRACT: note_on channel=6 note=55 velocity=79 time=0
EXTRACT: note_on channel=9 note=46 velocity=62 time=0.021582749999999998
EXTRACT: control_change channel=7 control=11 value=118 time=0.031175083333333332
EXTRACT: control_change channel=6 control=11 value=116 time=0.016786583333333334
EXTRACT: note_on channel=9 note=46 velocity=0 time=0.009592333333333333
EXTRACT: control_change channel=7 control=11 value=114 time=0.0047961666666666665
EXTRACT: control_change channel=6 control=11 value=112 time=0.016786583333333334
EXTRACT: control_change channel=7 control=11 value=108 time=0.014388499999999999
EXTRACT: note_on channel=9 note=42 velocity=83 time=0.016786583333333334
EXTRACT: control_change channel=6 control=11 value=106 time=0.0023980833333333332
EXTRACT: control_change channel=7 control=11 value=104 time=0.011990416666666667
EXTRACT: control_change channel=6 control=11 value=102 time=0.026378916666666665
EXTRACT: note_on channel=9 note=42 velocity=0 time=0.016786583333333334
EXTRACT: control_change channel=7 control=11 value=100 time=0.0047961666666666665
EXTRACT: note_on channel=3 note=80 velocity=0 time=0.014388499999999999
EXTRACT: note_on channel=3 note=68 velocity=0 time=0
EXTRACT: note_on channel=7 note=43 velocity=0 time=0.014388499999999999
EXTRACT: note_on channel=1 note=32 velocity=0 time=0.0023980833333333332
EXTRACT: note_on channel=6 note=55 velocity=0 time=0
EXTRACT: control_change channel=6 control=11 value=120 time=0.0023980833333333332
EXTRACT: note_on channel=3 note=75 velocity=83 time=0.0047961666666666665
EXTRACT: note_on channel=3 note=87 velocity=115 time=0
EXTRACT: note_on channel=7 note=44 velocity=75 time=0
EXTRACT: note_on channel=6 note=56 velocity=77 time=0.0023980833333333332
EXTRACT: note_on channel=4 note=53 velocity=0 time=0.0047961666666666665
EXTRACT: note_on channel=4 note=65 velocity=0 time=0
EXTRACT: note_on channel=4 note=60 velocity=0 time=0
EXTRACT: note_on channel=4 note=56 velocity=0 time=0
EXTRACT: note_on channel=9 note=70 velocity=80 time=0.0023980833333333332
EXTRACT: note_on channel=4 note=54 velocity=99 time=0.0023980833333333332
EXTRACT: note_on channel=4 note=66 velocity=105 time=0
EXTRACT: note_on channel=4 note=56 velocity=101 time=0
EXTRACT: note_on channel=4 note=60 velocity=102 time=0
EXTRACT: note_on channel=9 note=35 velocity=97 time=0.0047961666666666665
EXTRACT: control_change channel=4 control=11 value=78 time=0.03836933333333333
EXTRACT: control_change channel=7 control=11 value=117 time=0
EXTRACT: control_change channel=6 control=11 value=115 time=0.009592333333333333
EXTRACT: note_on channel=9 note=70 velocity=0 time=0.0023980833333333332
EXTRACT: note_on channel=9 note=35 velocity=0 time=0.007194249999999999
EXTRACT: control_change channel=7 control=11 value=112 time=0.0023980833333333332
EXTRACT: control_change channel=6 control=11 value=110 time=0.011990416666666667
EXTRACT: control_change channel=7 control=11 value=106 time=0.011990416666666667
EXTRACT: control_change channel=6 control=11 value=100 time=0.019184666666666666
EXTRACT: control_change channel=7 control=11 value=97 time=0.011990416666666667
EXTRACT: control_change channel=6 control=11 value=94 time=0.019184666666666666
EXTRACT: control_change channel=7 control=11 value=92 time=0.0047961666666666665
EXTRACT: note_on channel=3 note=87 velocity=0 time=0.014388499999999999
EXTRACT: note_on channel=3 note=75 velocity=0 time=0
EXTRACT: control_change channel=6 control=11 value=90 time=0.0023980833333333332
EXTRACT: control_change channel=7 control=11 value=88 time=0.014388499999999999
EXTRACT: control_change channel=6 control=11 value=86 time=0.016786583333333334
EXTRACT: note_on channel=7 note=44 velocity=0 time=0.021582749999999998
EXTRACT: control_change channel=7 control=11 value=120 time=0
EXTRACT: note_on channel=6 note=56 velocity=0 time=0.0023980833333333332
EXTRACT: note_on channel=7 note=44 velocity=69 time=0.007194249999999999
EXTRACT: note_on channel=1 note=32 velocity=126 time=0.0023980833333333332
EXTRACT: note_on channel=6 note=56 velocity=70 time=0
EXTRACT: note_on channel=9 note=46 velocity=61 time=0.021582749999999998
EXTRACT: control_change channel=6 control=11 value=118 time=0.023980833333333333
EXTRACT: control_change channel=7 control=11 value=116 time=0.0047961666666666665
EXTRACT: control_change channel=6 control=11 value=114 time=0.019184666666666666
EXTRACT: control_change channel=7 control=11 value=112 time=0.0047961666666666665
EXTRACT: control_change channel=4 control=11 value=76 time=0.0023980833333333332
EXTRACT: note_on channel=9 note=46 velocity=0 time=0.0023980833333333332
EXTRACT: control_change channel=6 control=11 value=110 time=0.0047961666666666665
EXTRACT: control_change channel=7 control=11 value=108 time=0.007194249999999999
EXTRACT: control_change channel=6 control=11 value=106 time=0.016786583333333334
EXTRACT: control_change channel=7 control=11 value=104 time=0.0047961666666666665
EXTRACT: control_change channel=6 control=11 value=102 time=0.011990416666666667
EXTRACT: note_on channel=9 note=42 velocity=87 time=0.0047961666666666665
EXTRACT: control_change channel=7 control=11 value=99 time=0.007194249999999999
EXTRACT: control_change channel=6 control=11 value=97 time=0.009592333333333333
EXTRACT: control_change channel=7 control=11 value=95 time=0.014388499999999999
EXTRACT: control_change channel=6 control=11 value=92 time=0.009592333333333333
EXTRACT: control_change channel=7 control=11 value=90 time=0.0047961666666666665
EXTRACT: control_change channel=6 control=11 value=88 time=0.011990416666666667
EXTRACT: note_on channel=9 note=42 velocity=0 time=0
EXTRACT: control_change channel=7 control=11 value=86 time=0.0047961666666666665
EXTRACT: control_change channel=6 control=11 value=84 time=0.009592333333333333
EXTRACT: control_change channel=7 control=11 value=82 time=0.0047961666666666665
EXTRACT: note_on channel=3 note=72 velocity=83 time=0.007194249999999999
EXTRACT: note_on channel=3 note=84 velocity=115 time=0
EXTRACT: note_on channel=1 note=32 velocity=0 time=0.011990416666666667
EXTRACT: control_change channel=6 control=11 value=80 time=0
EXTRACT: control_change channel=7 control=11 value=78 time=0.011990416666666667
EXTRACT: note_on channel=9 note=70 velocity=83 time=0.0023980833333333332
EXTRACT: note_on channel=9 note=37 velocity=91 time=0.007194249999999999
EXTRACT: note_on channel=9 note=28 velocity=68 time=0
EXTRACT: note_on channel=9 note=39 velocity=67 time=0
EXTRACT: note_on channel=9 note=35 velocity=97 time=0
EXTRACT: note_on channel=9 note=28 velocity=0 time=0.0023980833333333332
EXTRACT: note_on channel=9 note=37 velocity=0 time=0
EXTRACT: note_on channel=9 note=40 velocity=64 time=0.0023980833333333332
EXTRACT: control_change channel=6 control=11 value=75 time=0.0047961666666666665
EXTRACT: control_change channel=7 control=11 value=72 time=0.011990416666666667
EXTRACT: note_on channel=9 note=39 velocity=50 time=0.009592333333333333
EXTRACT: control_change channel=6 control=11 value=70 time=0.0023980833333333332
EXTRACT: control_change channel=7 control=11 value=67 time=0.011990416666666667
EXTRACT: note_on channel=9 note=70 velocity=0 time=0.0047961666666666665
EXTRACT: note_on channel=9 note=39 velocity=0 time=0.007194249999999999
EXTRACT: note_on channel=9 note=35 velocity=0 time=0
EXTRACT: note_on channel=9 note=40 velocity=0 time=0.0047961666666666665
EXTRACT: control_change channel=6 control=11 value=65 time=0.0023980833333333332
EXTRACT: control_change channel=7 control=11 value=63 time=0.011990416666666667
EXTRACT: control_change channel=4 control=11 value=74 time=0.009592333333333333
EXTRACT: note_on channel=9 note=39 velocity=0 time=0.0023980833333333332
EXTRACT: control_change channel=6 control=11 value=61 time=0.021582749999999998
EXTRACT: pitchwheel channel=3 pitch=-41 time=0.007194249999999999
EXTRACT: pitchwheel channel=3 pitch=-241 time=0.0047961666666666665
EXTRACT: control_change channel=7 control=11 value=59 time=0.0023980833333333332
EXTRACT: pitchwheel channel=3 pitch=-401 time=0.0047961666666666665
EXTRACT: pitchwheel channel=3 pitch=-541 time=0.011990416666666667
EXTRACT: control_change channel=6 control=11 value=57 time=0
EXTRACT: pitchwheel channel=3 pitch=-701 time=0.011990416666666667
EXTRACT: pitchwheel channel=3 pitch=-821 time=0
EXTRACT: pitchwheel channel=3 pitch=-941 time=0.0023980833333333332
EXTRACT: control_change channel=7 control=11 value=55 time=0
EXTRACT: pitchwheel channel=3 pitch=-1061 time=0.0047961666666666665
EXTRACT: pitchwheel channel=3 pitch=-1181 time=0.0047961666666666665
EXTRACT: pitchwheel channel=3 pitch=-1321 time=0.0023980833333333332
EXTRACT: pitchwheel channel=3 pitch=-1481 time=0.0047961666666666665
EXTRACT: pitchwheel channel=3 pitch=-1621 time=0.0023980833333333332
EXTRACT: pitchwheel channel=3 pitch=-1781 time=0.0047961666666666665
EXTRACT: control_change channel=6 control=11 value=53 time=0.0023980833333333332
EXTRACT: pitchwheel channel=3 pitch=-1961 time=0.0023980833333333332
EXTRACT: pitchwheel channel=3 pitch=-2121 time=0.0023980833333333332
EXTRACT: pitchwheel channel=3 pitch=-2301 time=0.0047961666666666665
EXTRACT: pitchwheel channel=3 pitch=-2481 time=0.0047961666666666665
EXTRACT: pitchwheel channel=3 pitch=-2621 time=0.0023980833333333332
EXTRACT: pitchwheel channel=3 pitch=-2801 time=0.0047961666666666665
EXTRACT: pitchwheel channel=3 pitch=-2981 time=0.0023980833333333332
EXTRACT: pitchwheel channel=3 pitch=-3161 time=0.0047961666666666665
EXTRACT: pitchwheel channel=3 pitch=-3341 time=0.007194249999999999
EXTRACT: pitchwheel channel=3 pitch=-3541 time=0
EXTRACT: note_on channel=1 note=32 velocity=118 time=0.0023980833333333332
EXTRACT: pitchwheel channel=3 pitch=-3741 time=0.0023980833333333332
EXTRACT: control_change channel=7 control=11 value=51 time=0.0023980833333333332
EXTRACT: pitchwheel channel=3 pitch=-3941 time=0.0023980833333333332
EXTRACT: pitchwheel channel=3 pitch=-4141 time=0.0023980833333333332
EXTRACT: pitchwheel channel=3 pitch=-4341 time=0.0047961666666666665
EXTRACT: pitchwheel channel=3 pitch=-4521 time=0.0023980833333333332
EXTRACT: pitchwheel channel=3 pitch=-4701 time=0.0047961666666666665
EXTRACT: note_on channel=9 note=46 velocity=59 time=0
EXTRACT: pitchwheel channel=3 pitch=-4901 time=0.0047961666666666665
EXTRACT: pitchwheel channel=3 pitch=-5101 time=0.0023980833333333332
EXTRACT: control_change channel=6 control=11 value=49 time=0.0023980833333333332
EXTRACT: pitchwheel channel=3 pitch=-5261 time=0.007194249999999999
EXTRACT: pitchwheel channel=3 pitch=-5421 time=0.0023980833333333332
EXTRACT: control_change channel=7 control=11 value=47 time=0.0023980833333333332
EXTRACT: pitchwheel channel=3 pitch=-5581 time=0.0047961666666666665
EXTRACT: pitchwheel channel=3 pitch=-5701 time=0
EXTRACT: pitchwheel channel=3 pitch=-5841 time=0.0047961666666666665
EXTRACT: pitchwheel channel=3 pitch=-5961 time=0.0047961666666666665
EXTRACT: pitchwheel channel=3 pitch=-6141 time=0.007194249999999999
EXTRACT: pitchwheel channel=3 pitch=-6321 time=0.007194249999999999
EXTRACT: note_on channel=9 note=85 velocity=78 time=0
EXTRACT: note_on channel=9 note=46 velocity=0 time=0.007194249999999999
EXTRACT: pitchwheel channel=3 pitch=-6441 time=0.0023980833333333332
EXTRACT: control_change channel=6 control=11 value=45 time=0.0047961666666666665
EXTRACT: pitchwheel channel=3 pitch=-6561 time=0.009592333333333333
EXTRACT: note_on channel=9 note=85 velocity=0 time=0.007194249999999999
EXTRACT: note_on channel=3 note=84 velocity=0 time=0.016786583333333334
EXTRACT: note_on channel=3 note=72 velocity=0 time=0
EXTRACT: control_change channel=7 control=11 value=43 time=0.009592333333333333
EXTRACT: note_on channel=9 note=42 velocity=87 time=0.0023980833333333332
EXTRACT: note_on channel=9 note=85 velocity=77 time=0.019184666666666666
EXTRACT: note_on channel=9 note=85 velocity=0 time=0.031175083333333332
EXTRACT: note_on channel=9 note=42 velocity=0 time=0.007194249999999999
EXTRACT: pitchwheel channel=3 pitch=0 time=0.011990416666666667
EXTRACT: note_on channel=1 note=32 velocity=0 time=0.023980833333333333
EXTRACT: note_on channel=3 note=68 velocity=81 time=0.011990416666666667
EXTRACT: note_on channel=3 note=80 velocity=111 time=0
EXTRACT: note_on channel=9 note=70 velocity=83 time=0.0023980833333333332
EXTRACT: note_on channel=9 note=85 velocity=80 time=0.009592333333333333
EXTRACT: note_on channel=9 note=35 velocity=97 time=0
EXTRACT: note_on channel=9 note=85 velocity=0 time=0.031175083333333332
EXTRACT: note_on channel=9 note=70 velocity=0 time=0.016786583333333334
EXTRACT: note_on channel=9 note=35 velocity=0 time=0.009592333333333333
EXTRACT: control_change channel=4 control=11 value=76 time=0.0047961666666666665
EXTRACT: control_change channel=6 control=11 value=41 time=0.055155916666666666
EXTRACT: note_on channel=1 note=32 velocity=121 time=0.10071949999999999
EXTRACT: note_on channel=9 note=46 velocity=61 time=0.021582749999999998
EXTRACT: note_on channel=3 note=80 velocity=0 time=0.050359749999999995
EXTRACT: note_on channel=3 note=68 velocity=0 time=0
EXTRACT: note_on channel=9 note=46 velocity=0 time=0.007194249999999999
EXTRACT: note_on channel=9 note=42 velocity=87 time=0.05275783333333333
EXTRACT: control_change channel=4 control=11 value=78 time=0.055155916666666666
EXTRACT: note_on channel=9 note=42 velocity=0 time=0.0023980833333333332
EXTRACT: note_on channel=3 note=68 velocity=76 time=0.023980833333333333
EXTRACT: note_on channel=3 note=80 velocity=105 time=0
EXTRACT: note_on channel=1 note=32 velocity=0 time=0.011990416666666667
EXTRACT: note_on channel=9 note=70 velocity=82 time=0.016786583333333334
EXTRACT: note_on channel=9 note=40 velocity=55 time=0.007194249999999999
EXTRACT: note_on channel=9 note=37 velocity=91 time=0
EXTRACT: note_on channel=9 note=28 velocity=68 time=0
EXTRACT: note_on channel=9 note=39 velocity=72 time=0
EXTRACT: note_on channel=9 note=35 velocity=97 time=0
EXTRACT: note_on channel=9 note=28 velocity=0 time=0.0023980833333333332
EXTRACT: note_on channel=9 note=37 velocity=0 time=0
EXTRACT: control_change channel=7 control=11 value=43 time=0.011990416666666667
EXTRACT: note_on channel=9 note=39 velocity=55 time=0.016786583333333334
EXTRACT: note_on channel=9 note=70 velocity=0 time=0.019184666666666666
EXTRACT: note_on channel=9 note=35 velocity=0 time=0.007194249999999999
EXTRACT: note_on channel=9 note=40 velocity=0 time=0
EXTRACT: note_on channel=9 note=39 velocity=0 time=0
EXTRACT: note_on channel=3 note=80 velocity=0 time=0.014388499999999999
EXTRACT: note_on channel=3 note=68 velocity=0 time=0
EXTRACT: note_on channel=9 note=39 velocity=0 time=0.016786583333333334
EXTRACT: control_change channel=4 control=11 value=80 time=0.09832141666666666
EXTRACT: note_on channel=1 note=32 velocity=126 time=0.03357316666666667
EXTRACT: note_on channel=3 note=75 velocity=82 time=0.021582749999999998
EXTRACT: note_on channel=3 note=87 velocity=113 time=0
EXTRACT: note_on channel=9 note=46 velocity=61 time=0
EXTRACT: control_change channel=6 control=11 value=45 time=0.016786583333333334
EXTRACT: control_change channel=7 control=11 value=47 time=0.011990416666666667
EXTRACT: note_on channel=9 note=46 velocity=0 time=0.028776999999999997
EXTRACT: note_on channel=9 note=42 velocity=86 time=0.050359749999999995
EXTRACT: note_on channel=3 note=87 velocity=0 time=0.031175083333333332
EXTRACT: note_on channel=3 note=75 velocity=0 time=0
EXTRACT: control_change channel=6 control=11 value=49 time=0.0023980833333333332
EXTRACT: note_on channel=9 note=42 velocity=0 time=0.023980833333333333
EXTRACT: control_change channel=0 control=10 value=0 time=0.014388499999999999
EXTRACT: note_on channel=0 note=121 velocity=127 time=0.0023980833333333332
EXTRACT: note_on channel=0 note=122 velocity=127 time=0.011990416666666667
EXTRACT: note_on channel=0 note=119 velocity=127 time=0
EXTRACT: control_change channel=7 control=11 value=51 time=0.007194249999999999
EXTRACT: note_on channel=1 note=32 velocity=0 time=0.0023980833333333332
EXTRACT: note_on channel=0 note=122 velocity=0 time=0.011990416666666667
EXTRACT: control_change channel=4 control=11 value=82 time=0.0023980833333333332
EXTRACT: note_on channel=9 note=70 velocity=83 time=0
EXTRACT: note_on channel=11 note=51 velocity=127 time=0.0023980833333333332
EXTRACT: note_on channel=9 note=35 velocity=97 time=0.0047961666666666665
EXTRACT: control_change channel=0 control=10 value=1 time=0.023980833333333333
EXTRACT: note_on channel=0 note=117 velocity=127 time=0
EXTRACT: control_change channel=6 control=11 value=53 time=0
EXTRACT: note_on channel=11 note=51 velocity=0 time=0.0023980833333333332
EXTRACT: control_change channel=0 control=10 value=3 time=0.021582749999999998
EXTRACT: note_on channel=9 note=70 velocity=0 time=0.0023980833333333332
EXTRACT: note_on channel=9 note=35 velocity=0 time=0.007194249999999999
EXTRACT: control_change channel=7 control=11 value=55 time=0.011990416666666667
EXTRACT: note_on channel=0 note=121 velocity=0 time=0.0023980833333333332
EXTRACT: control_change channel=0 control=10 value=5 time=0.0023980833333333332
EXTRACT: note_on channel=0 note=116 velocity=127 time=0.011990416666666667
EXTRACT: control_change channel=6 control=11 value=57 time=0.0023980833333333332
EXTRACT: control_change channel=7 control=11 value=59 time=0.019184666666666666
EXTRACT: control_change channel=0 control=10 value=7 time=0.0023980833333333332
EXTRACT: note_on channel=0 note=119 velocity=0 time=0.009592333333333333
EXTRACT: note_on channel=0 note=114 velocity=127 time=0.009592333333333333
EXTRACT: control_change channel=0 control=10 value=9 time=0.007194249999999999
EXTRACT: control_change channel=6 control=11 value=61 time=0.014388499999999999
EXTRACT: note_on channel=0 note=117 velocity=0 time=0.016786583333333334
EXTRACT: note_on channel=0 note=112 velocity=127 time=0
EXTRACT: control_change channel=7 control=11 value=63 time=0.0023980833333333332
EXTRACT: control_change channel=0 control=10 value=11 time=0.0023980833333333332
EXTRACT: control_change channel=0 control=10 value=13 time=0.023980833333333333
EXTRACT: note_on channel=3 note=72 velocity=81 time=0.014388499999999999
EXTRACT: note_on channel=3 note=84 velocity=111 time=0
EXTRACT: note_on channel=0 note=116 velocity=0 time=0.009592333333333333
EXTRACT: note_on channel=1 note=32 velocity=118 time=0
EXTRACT: control_change channel=0 control=10 value=15 time=0.0023980833333333332
EXTRACT: note_on channel=0 note=110 velocity=127 time=0.011990416666666667
EXTRACT: note_on channel=9 note=46 velocity=61 time=0.007194249999999999
EXTRACT: control_change channel=6 control=11 value=65 time=0.0023980833333333332
EXTRACT: control_change channel=7 control=11 value=67 time=0.011990416666666667
EXTRACT: control_change channel=0 control=10 value=17 time=0.0023980833333333332
EXTRACT: control_change channel=6 control=11 value=69 time=0.016786583333333334
EXTRACT: control_change channel=0 control=10 value=19 time=0.0047961666666666665
EXTRACT: note_on channel=0 note=114 velocity=0 time=0.014388499999999999
EXTRACT: note_on channel=9 note=46 velocity=0 time=0.0047961666666666665
EXTRACT: note_on channel=0 note=109 velocity=127 time=0.0047961666666666665
EXTRACT: control_change channel=0 control=10 value=21 time=0.0047961666666666665
EXTRACT: control_change channel=0 control=10 value=23 time=0.03357316666666667
EXTRACT: control_change channel=4 control=11 value=84 time=0
EXTRACT: control_change channel=7 control=11 value=71 time=0.007194249999999999
EXTRACT: note_on channel=9 note=42 velocity=83 time=0.0023980833333333332
EXTRACT: note_on channel=0 note=112 velocity=0 time=0.016786583333333334
EXTRACT: control_change channel=6 control=11 value=73 time=0
EXTRACT: control_change channel=0 control=10 value=25 time=0.0023980833333333332
EXTRACT: note_on channel=0 note=107 velocity=127 time=0.0023980833333333332
EXTRACT: pitchwheel channel=3 pitch=-181 time=0.009592333333333333
EXTRACT: pitchwheel channel=3 pitch=-381 time=0.0023980833333333332
EXTRACT: pitchwheel channel=3 pitch=-561 time=0.0047961666666666665
EXTRACT: pitchwheel channel=3 pitch=-741 time=0.0047961666666666665
EXTRACT: pitchwheel channel=3 pitch=-941 time=0.0023980833333333332
EXTRACT: pitchwheel channel=3 pitch=-1121 time=0.0047961666666666665
EXTRACT: control_change channel=0 control=10 value=27 time=0.0023980833333333332
EXTRACT: pitchwheel channel=3 pitch=-1301 time=0
EXTRACT: pitchwheel channel=3 pitch=-1461 time=0.0047961666666666665
EXTRACT: note_on channel=9 note=42 velocity=0 time=0
EXTRACT: pitchwheel channel=3 pitch=-1581 time=0.0047961666666666665
EXTRACT: pitchwheel channel=3 pitch=-1721 time=0.0023980833333333332
EXTRACT: pitchwheel channel=3 pitch=-1881 time=0.0047961666666666665
EXTRACT: pitchwheel channel=3 pitch=-2021 time=0.0047961666666666665
EXTRACT: control_change channel=0 control=10 value=29 time=0.0023980833333333332
EXTRACT: pitchwheel channel=3 pitch=-2181 time=0
EXTRACT: control_change channel=7 control=11 value=75 time=0
EXTRACT: pitchwheel channel=3 pitch=-2361 time=0.0047961666666666665
EXTRACT: pitchwheel channel=3 pitch=-2541 time=0.0047961666666666665
EXTRACT: note_on channel=0 note=110 velocity=0 time=0.0023980833333333332
EXTRACT: pitchwheel channel=3 pitch=-2701 time=0
EXTRACT: note_on channel=0 note=105 velocity=127 time=0.0047961666666666665
EXTRACT: note_on channel=1 note=32 velocity=0 time=0
EXTRACT: pitchwheel channel=3 pitch=-2881 time=0
EXTRACT: pitchwheel channel=3 pitch=-3041 time=0.0023980833333333332
EXTRACT: pitchwheel channel=3 pitch=-3181 time=0.0047961666666666665
EXTRACT: control_change channel=0 control=10 value=31 time=0.0047961666666666665
EXTRACT: pitchwheel channel=3 pitch=-3321 time=0
EXTRACT: pitchwheel channel=3 pitch=-3461 time=0.0023980833333333332
EXTRACT: note_on channel=9 note=70 velocity=80 time=0
EXTRACT: pitchwheel channel=3 pitch=-3581 time=0.0047961666666666665
EXTRACT: note_on channel=11 note=44 velocity=127 time=0
EXTRACT: pitchwheel channel=3 pitch=-3741 time=0.0047961666666666665
EXTRACT: note_on channel=9 note=37 velocity=91 time=0
EXTRACT: note_on channel=9 note=28 velocity=68 time=0
EXTRACT: note_on channel=9 note=39 velocity=67 time=0
EXTRACT: note_on channel=9 note=35 velocity=97 time=0
EXTRACT: note_on channel=9 note=28 velocity=0 time=0.0023980833333333332
EXTRACT: note_on channel=9 note=37 velocity=0 time=0
EXTRACT: note_on channel=9 note=40 velocity=64 time=0
EXTRACT: pitchwheel channel=3 pitch=-3941 time=0.0047961666666666665
EXTRACT: pitchwheel channel=3 pitch=-4061 time=0.0023980833333333332
EXTRACT: pitchwheel channel=3 pitch=-4241 time=0.009592333333333333
EXTRACT: control_change channel=0 control=10 value=33 time=0.0023980833333333332
EXTRACT: note_on channel=11 note=44 velocity=0 time=0.0047961666666666665
EXTRACT: pitchwheel channel=3 pitch=-4401 time=0.0047961666666666665
EXTRACT: note_on channel=9 note=39 velocity=50 time=0
EXTRACT: note_on channel=0 note=109 velocity=0 time=0.0047961666666666665
EXTRACT: note_on channel=0 note=104 velocity=127 time=0.0023980833333333332
EXTRACT: pitchwheel channel=3 pitch=-4541 time=0
EXTRACT: control_change channel=0 control=10 value=35 time=0.007194249999999999
EXTRACT: control_change channel=6 control=11 value=77 time=0.0023980833333333332
EXTRACT: note_on channel=9 note=70 velocity=0 time=0
EXTRACT: pitchwheel channel=3 pitch=-4681 time=0.0023980833333333332
EXTRACT: note_on channel=9 note=39 velocity=0 time=0.007194249999999999
EXTRACT: note_on channel=9 note=35 velocity=0 time=0
EXTRACT: note_on channel=9 note=40 velocity=0 time=0.0023980833333333332
EXTRACT: pitchwheel channel=3 pitch=-4821 time=0.0023980833333333332
EXTRACT: control_change channel=0 control=10 value=37 time=0.009592333333333333
EXTRACT: note_on channel=9 note=39 velocity=0 time=0.016786583333333334
EXTRACT: note_on channel=0 note=107 velocity=0 time=0.009592333333333333
EXTRACT: note_on channel=0 note=102 velocity=127 time=0.0023980833333333332
EXTRACT: control_change channel=0 control=10 value=39 time=0.007194249999999999
EXTRACT: note_on channel=3 note=84 velocity=0 time=0.014388499999999999
EXTRACT: note_on channel=3 note=72 velocity=0 time=0
EXTRACT: control_change channel=0 control=10 value=41 time=0.014388499999999999
EXTRACT: note_on channel=0 note=105 velocity=0 time=0.026378916666666665
EXTRACT: pitchwheel channel=3 pitch=0 time=0
EXTRACT: note_on channel=0 note=100 velocity=127 time=0.0047961666666666665
EXTRACT: control_change channel=0 control=10 value=43 time=0.0023980833333333332
EXTRACT: control_change channel=7 control=11 value=79 time=0.014388499999999999
EXTRACT: control_change channel=0 control=10 value=45 time=0.009592333333333333
EXTRACT: note_on channel=0 note=104 velocity=0 time=0.019184666666666666
EXTRACT: note_on channel=1 note=32 velocity=121 time=0.0047961666666666665
EXTRACT: control_change channel=0 control=10 value=47 time=0.0023980833333333332
EXTRACT: note_on channel=0 note=98 velocity=127 time=0
EXTRACT: note_on channel=9 note=46 velocity=62 time=0.019184666666666666
EXTRACT: note_on channel=3 note=68 velocity=81 time=0.0047961666666666665
EXTRACT: note_on channel=3 note=80 velocity=111 time=0
EXTRACT: control_change channel=0 control=10 value=49 time=0.011990416666666667
EXTRACT: control_change channel=6 control=11 value=81 time=0
EXTRACT: note_on channel=0 note=102 velocity=0 time=0.014388499999999999
EXTRACT: control_change channel=0 control=10 value=51 time=0.009592333333333333
EXTRACT: note_on channel=0 note=97 velocity=127 time=0
EXTRACT: note_on channel=9 note=46 velocity=0 time=0.016786583333333334
EXTRACT: control_change channel=0 control=10 value=53 time=0.021582749999999998
EXTRACT: note_on channel=0 note=100 velocity=0 time=0.007194249999999999
EXTRACT: control_change channel=7 control=11 value=83 time=0
EXTRACT: control_change channel=0 control=10 value=55 time=0.016786583333333334
EXTRACT: control_change channel=6 control=11 value=85 time=0
EXTRACT: note_on channel=9 note=42 velocity=84 time=0.007194249999999999
EXTRACT: control_change channel=7 control=11 value=87 time=0.007194249999999999
EXTRACT: note_on channel=0 note=95 velocity=127 time=0.0047961666666666665
EXTRACT: control_change channel=0 control=10 value=57 time=0.007194249999999999
EXTRACT: note_on channel=0 note=98 velocity=0 time=0.009592333333333333
EXTRACT: control_change channel=0 control=10 value=59 time=0.026378916666666665
EXTRACT: note_on channel=9 note=42 velocity=0 time=0.0023980833333333332
EXTRACT: note_on channel=0 note=94 velocity=127 time=0.016786583333333334
EXTRACT: control_change channel=0 control=10 value=61 time=0.0047961666666666665
EXTRACT: control_change channel=4 control=11 value=82 time=0
EXTRACT: note_on channel=0 note=97 velocity=0 time=0.007194249999999999
EXTRACT: note_on channel=1 note=32 velocity=0 time=0.007194249999999999
EXTRACT: note_on channel=0 note=94 velocity=0 time=0.0023980833333333332
EXTRACT: control_change channel=0 control=10 value=63 time=0.009592333333333333
EXTRACT: note_on channel=9 note=70 velocity=80 time=0.0047961666666666665
EXTRACT: note_on channel=0 note=93 velocity=127 time=0.0023980833333333332
EXTRACT: note_on channel=11 note=51 velocity=127 time=0
EXTRACT: note_on channel=9 note=35 velocity=97 time=0.0047961666666666665
EXTRACT: note_on channel=0 note=91 velocity=127 time=0.007194249999999999
EXTRACT: note_on channel=0 note=95 velocity=0 time=0.0023980833333333332
EXTRACT: control_change channel=6 control=11 value=89 time=0
EXTRACT: control_change channel=0 control=10 value=64 time=0.0023980833333333332
EXTRACT: control_change channel=0 control=10 value=65 time=0.011990416666666667
EXTRACT: note_on channel=11 note=51 velocity=0 time=0.0023980833333333332
EXTRACT: control_change channel=0 control=10 value=67 time=0.019184666666666666
EXTRACT: note_on channel=9 note=70 velocity=0 time=0.0047961666666666665
EXTRACT: note_on channel=9 note=35 velocity=0 time=0.007194249999999999
EXTRACT: note_on channel=0 note=89 velocity=127 time=0.0047961666666666665
EXTRACT: control_change channel=0 control=10 value=69 time=0.023980833333333333
EXTRACT: control_change channel=0 control=10 value=71 time=0.021582749999999998
EXTRACT: note_on channel=0 note=93 velocity=0 time=0.0023980833333333332
EXTRACT: control_change channel=4 control=11 value=80 time=0.007194249999999999
EXTRACT: note_on channel=0 note=88 velocity=127 time=0.007194249999999999
EXTRACT: control_change channel=0 control=10 value=73 time=0.011990416666666667
EXTRACT: note_on channel=3 note=80 velocity=0 time=0.0023980833333333332
EXTRACT: note_on channel=3 note=68 velocity=0 time=0
EXTRACT: note_on channel=0 note=91 velocity=0 time=0.019184666666666666
EXTRACT: note_on channel=0 note=86 velocity=127 time=0.009592333333333333
EXTRACT: control_change channel=0 control=10 value=75 time=0.0023980833333333332
EXTRACT: control_change channel=7 control=11 value=91 time=0
EXTRACT: control_change channel=0 control=10 value=77 time=0.023980833333333333
EXTRACT: note_on channel=0 note=89 velocity=0 time=0.011990416666666667
EXTRACT: note_on channel=0 note=84 velocity=127 time=0
EXTRACT: control_change channel=6 control=11 value=93 time=0.0047961666666666665
EXTRACT: note_on channel=1 note=32 velocity=121 time=0.009592333333333333
EXTRACT: control_change channel=0 control=10 value=79 time=0.0023980833333333332
EXTRACT: control_change channel=7 control=11 value=95 time=0.0023980833333333332
EXTRACT: note_on channel=9 note=46 velocity=63 time=0.016786583333333334
EXTRACT: note_on channel=3 note=70 velocity=81 time=0.0023980833333333332
EXTRACT: note_on channel=3 note=82 velocity=111 time=0
EXTRACT: control_change channel=0 control=10 value=81 time=0.011990416666666667
EXTRACT: note_on channel=0 note=88 velocity=0 time=0.0023980833333333332
EXTRACT: control_change channel=6 control=11 value=97 time=0.007194249999999999
EXTRACT: control_change channel=7 control=11 value=99 time=0.0047961666666666665
EXTRACT: note_on channel=0 note=82 velocity=127 time=0.0023980833333333332
EXTRACT: control_change channel=0 control=10 value=83 time=0.007194249999999999
EXTRACT: control_change channel=4 control=11 value=78 time=0.007194249999999999
EXTRACT: note_on channel=9 note=85 velocity=76 time=0.0047961666666666665
EXTRACT: control_change channel=6 control=11 value=101 time=0.0047961666666666665
EXTRACT: note_on channel=9 note=46 velocity=0 time=0.0023980833333333332
EXTRACT: control_change channel=7 control=11 value=103 time=0.0023980833333333332
EXTRACT: control_change channel=6 control=11 value=105 time=0.011990416666666667
EXTRACT: control_change channel=0 control=10 value=85 time=0.0047961666666666665
EXTRACT: control_change channel=7 control=11 value=107 time=0
EXTRACT: note_on channel=9 note=85 velocity=0 time=0.0047961666666666665
EXTRACT: control_change channel=6 control=11 value=109 time=0.0047961666666666665
EXTRACT: note_on channel=0 note=86 velocity=0 time=0.0047961666666666665
EXTRACT: control_change channel=7 control=11 value=111 time=0
EXTRACT: control_change channel=0 control=10 value=87 time=0.009592333333333333
EXTRACT: note_on channel=0 note=81 velocity=127 time=0
EXTRACT: control_change channel=6 control=11 value=114 time=0.0023980833333333332
EXTRACT: control_change channel=7 control=11 value=117 time=0.0047961666666666665
EXTRACT: note_on channel=9 note=42 velocity=83 time=0
EXTRACT: control_change channel=6 control=11 value=120 time=0.009592333333333333
EXTRACT: note_on channel=3 note=82 velocity=0 time=0.0047961666666666665
EXTRACT: note_on channel=3 note=70 velocity=0 time=0
EXTRACT: control_change channel=7 control=11 value=122 time=0
EXTRACT: control_change channel=0 control=10 value=89 time=0.007194249999999999
EXTRACT: note_on channel=9 note=85 velocity=77 time=0
EXTRACT: control_change channel=6 control=11 value=120 time=0.011990416666666667
EXTRACT: note_on channel=9 note=39 velocity=50 time=0.007194249999999999
EXTRACT: note_on channel=9 note=85 velocity=0 time=0.011990416666666667
EXTRACT: control_change channel=0 control=10 value=91 time=0.0023980833333333332
EXTRACT: note_on channel=0 note=84 velocity=0 time=0.0023980833333333332
EXTRACT: note_on channel=9 note=42 velocity=0 time=0
EXTRACT: note_on channel=0 note=79 velocity=127 time=0.0047961666666666665
EXTRACT: note_on channel=7 note=44 velocity=0 time=0
EXTRACT: control_change channel=0 control=10 value=93 time=0.016786583333333334
EXTRACT: note_on channel=6 note=56 velocity=0 time=0.0047961666666666665
EXTRACT: note_on channel=1 note=32 velocity=0 time=0.011990416666666667
EXTRACT: note_on channel=9 note=39 velocity=0 time=0.0023980833333333332
EXTRACT: control_change channel=0 control=10 value=95 time=0.007194249999999999
EXTRACT: note_on channel=9 note=70 velocity=82 time=0.0047961666666666665
EXTRACT: note_on channel=11 note=44 velocity=127 time=0.0023980833333333332
EXTRACT: note_on channel=3 note=68 velocity=80 time=0.0047961666666666665
EXTRACT: note_on channel=3 note=80 velocity=110 time=0
EXTRACT: note_on channel=9 note=40 velocity=55 time=0
EXTRACT: note_on channel=9 note=37 velocity=91 time=0
EXTRACT: note_on channel=9 note=28 velocity=68 time=0
EXTRACT: note_on channel=9 note=39 velocity=73 time=0
EXTRACT: note_on channel=9 note=85 velocity=81 time=0
EXTRACT: note_on channel=9 note=35 velocity=97 time=0
EXTRACT: note_on channel=9 note=28 velocity=0 time=0.0023980833333333332
EXTRACT: note_on channel=9 note=37 velocity=0 time=0
EXTRACT: note_on channel=0 note=82 velocity=0 time=0.009592333333333333
EXTRACT: note_on channel=0 note=77 velocity=127 time=0.0047961666666666665
EXTRACT: control_change channel=0 control=10 value=97 time=0.007194249999999999
EXTRACT: note_on channel=11 note=44 velocity=0 time=0.0023980833333333332
EXTRACT: note_on channel=9 note=85 velocity=0 time=0.0047961666666666665
EXTRACT: note_on channel=9 note=39 velocity=55 time=0
EXTRACT: control_change channel=4 control=11 value=76 time=0.007194249999999999
EXTRACT: control_change channel=0 control=10 value=99 time=0.009592333333333333
EXTRACT: note_on channel=9 note=70 velocity=0 time=0.0023980833333333332
EXTRACT: note_on channel=9 note=35 velocity=0 time=0.007194249999999999
EXTRACT: note_on channel=9 note=40 velocity=0 time=0
EXTRACT: note_on channel=9 note=39 velocity=0 time=0
EXTRACT: note_on channel=0 note=81 velocity=0 time=0.019184666666666666
EXTRACT: note_on channel=0 note=76 velocity=127 time=0.0023980833333333332
EXTRACT: control_change channel=0 control=10 value=101 time=0.007194249999999999
EXTRACT: note_on channel=9 note=39 velocity=0 time=0.0023980833333333332
EXTRACT: control_change channel=0 control=10 value=103 time=0.021582749999999998
EXTRACT: control_change channel=0 control=10 value=105 time=0.026378916666666665
EXTRACT: note_on channel=0 note=79 velocity=0 time=0.0023980833333333332
EXTRACT: note_on channel=0 note=74 velocity=127 time=0.0023980833333333332
EXTRACT: control_change channel=0 control=10 value=107 time=0.031175083333333332
EXTRACT: control_change channel=0 control=10 value=109 time=0.023980833333333333
EXTRACT: note_on channel=0 note=77 velocity=0 time=0.007194249999999999
EXTRACT: note_on channel=0 note=72 velocity=127 time=0.0023980833333333332
EXTRACT: control_change channel=7 control=11 value=124 time=0.011990416666666667
EXTRACT: note_on channel=7 note=48 velocity=78 time=0
EXTRACT: note_on channel=1 note=32 velocity=118 time=0.0023980833333333332
EXTRACT: note_on channel=6 note=60 velocity=76 time=0
EXTRACT: control_change channel=0 control=10 value=111 time=0.0023980833333333332
EXTRACT: note_on channel=9 note=46 velocity=62 time=0.019184666666666666
EXTRACT: note_on channel=0 note=76 velocity=0 time=0.011990416666666667
EXTRACT: control_change channel=0 control=10 value=113 time=0.0047961666666666665
EXTRACT: note_on channel=0 note=70 velocity=127 time=0.0023980833333333332
EXTRACT: note_on channel=3 note=80 velocity=0 time=0
EXTRACT: note_on channel=3 note=68 velocity=0 time=0
EXTRACT: control_change channel=0 control=10 value=115 time=0.019184666666666666
EXTRACT: note_on channel=9 note=46 velocity=0 time=0.019184666666666666
EXTRACT: note_on channel=0 note=74 velocity=0 time=0.011990416666666667
EXTRACT: control_change channel=0 control=10 value=117 time=0.009592333333333333
EXTRACT: note_on channel=0 note=69 velocity=127 time=0
EXTRACT: note_on channel=7 note=48 velocity=0 time=0.011990416666666667
EXTRACT: note_on channel=6 note=60 velocity=0 time=0.0023980833333333332
EXTRACT: control_change channel=6 control=11 value=120 time=0.0023980833333333332
EXTRACT: control_change channel=0 control=10 value=119 time=0.0047961666666666665
EXTRACT: note_on channel=9 note=42 velocity=83 time=0.009592333333333333
EXTRACT: note_on channel=0 note=72 velocity=0 time=0.011990416666666667
EXTRACT: control_change channel=0 control=10 value=121 time=0.007194249999999999
EXTRACT: note_on channel=0 note=67 velocity=127 time=0.031175083333333332
EXTRACT: control_change channel=0 control=10 value=123 time=0.0047961666666666665
EXTRACT: note_on channel=9 note=42 velocity=0 time=0.0023980833333333332
EXTRACT: note_on channel=0 note=70 velocity=0 time=0.009592333333333333
EXTRACT: control_change channel=0 control=10 value=125 time=0.009592333333333333
EXTRACT: note_on channel=1 note=32 velocity=0 time=0.016786583333333334
EXTRACT: control_change channel=7 control=11 value=120 time=0.007194249999999999
EXTRACT: note_on channel=7 note=49 velocity=81 time=0
EXTRACT: note_on channel=6 note=61 velocity=79 time=0.0023980833333333332
EXTRACT: control_change channel=0 control=10 value=127 time=0.0023980833333333332
EXTRACT: note_on channel=4 note=73 velocity=110 time=0.0023980833333333332
EXTRACT: note_on channel=4 note=65 velocity=105 time=0
EXTRACT: note_on channel=4 note=61 velocity=102 time=0
EXTRACT: note_on channel=9 note=70 velocity=80 time=0
EXTRACT: note_on channel=4 note=60 velocity=0 time=0.0023980833333333332
EXTRACT: note_on channel=4 note=56 velocity=0 time=0
EXTRACT: note_on channel=4 note=54 velocity=0 time=0
EXTRACT: note_on channel=4 note=66 velocity=0 time=0
EXTRACT: note_on channel=11 note=46 velocity=127 time=0.0023980833333333332
EXTRACT: control_change channel=5 control=11 value=57 time=0.0047961666666666665
EXTRACT: note_on channel=5 note=77 velocity=117 time=0
EXTRACT: note_on channel=9 note=35 velocity=97 time=0
EXTRACT: note_on channel=9 note=57 velocity=74 time=0
EXTRACT: note_on channel=0 note=66 velocity=127 time=0.0023980833333333332
EXTRACT: note_on channel=0 note=69 velocity=0 time=0.0047961666666666665
EXTRACT: note_on channel=11 note=46 velocity=0 time=0.019184666666666666
EXTRACT: note_on channel=0 note=66 velocity=0 time=0.0023980833333333332
EXTRACT: control_change channel=6 control=11 value=118 time=0.009592333333333333
EXTRACT: control_change channel=7 control=11 value=116 time=0.007194249999999999
EXTRACT: note_on channel=0 note=67 velocity=0 time=0.0023980833333333332
EXTRACT: note_on channel=9 note=70 velocity=0 time=0
EXTRACT: note_on channel=9 note=57 velocity=0 time=0.009592333333333333
EXTRACT: note_on channel=9 note=35 velocity=0 time=0
EXTRACT: control_change channel=4 control=11 value=78 time=0.0047961666666666665
EXTRACT: control_change channel=5 control=11 value=59 time=0
EXTRACT: control_change channel=6 control=11 value=113 time=0.007194249999999999
EXTRACT: control_change channel=7 control=11 value=110 time=0.014388499999999999
EXTRACT: control_change channel=6 control=11 value=106 time=0.016786583333333334
EXTRACT: control_change channel=7 control=11 value=104 time=0.014388499999999999
EXTRACT: control_change channel=6 control=11 value=102 time=0.016786583333333334
EXTRACT: control_change channel=7 control=11 value=100 time=0.014388499999999999
EXTRACT: control_change channel=6 control=11 value=98 time=0.016786583333333334
EXTRACT: control_change channel=5 control=11 value=61 time=0.023980833333333333
EXTRACT: control_change channel=7 control=11 value=96 time=0.014388499999999999
EXTRACT: note_on channel=7 note=49 velocity=0 time=0.007194249999999999
EXTRACT: note_on channel=6 note=61 velocity=0 time=0.0023980833333333332
EXTRACT: control_change channel=6 control=11 value=120 time=0
EXTRACT: note_on channel=7 note=49 velocity=74 time=0.0047961666666666665
EXTRACT: note_on channel=1 note=25 velocity=126 time=0.0023980833333333332
EXTRACT: note_on channel=6 note=61 velocity=72 time=0
EXTRACT: note_on channel=9 note=70 velocity=77 time=0.007194249999999999
EXTRACT: note_on channel=9 note=46 velocity=61 time=0.014388499999999999
EXTRACT: control_change channel=7 control=11 value=118 time=0.023980833333333333
EXTRACT: control_change channel=4 control=11 value=76 time=0.016786583333333334
EXTRACT: control_change channel=6 control=11 value=116 time=0
EXTRACT: note_on channel=9 note=70 velocity=0 time=0.0023980833333333332
EXTRACT: control_change channel=7 control=11 value=113 time=0.011990416666666667
EXTRACT: note_on channel=9 note=46 velocity=0 time=0.0023980833333333332
EXTRACT: control_change channel=6 control=11 value=111 time=0.007194249999999999
EXTRACT: control_change channel=7 control=11 value=109 time=0.014388499999999999
EXTRACT: control_change channel=6 control=11 value=107 time=0.009592333333333333
EXTRACT: control_change channel=7 control=11 value=105 time=0.011990416666666667
EXTRACT: note_on channel=9 note=70 velocity=67 time=0.0023980833333333332
EXTRACT: note_on channel=9 note=42 velocity=109 time=0.007194249999999999
EXTRACT: control_change channel=6 control=11 value=103 time=0.0023980833333333332
EXTRACT: control_change channel=7 control=11 value=101 time=0.0047961666666666665
EXTRACT: control_change channel=6 control=11 value=99 time=0.016786583333333334
EXTRACT: control_change channel=7 control=11 value=96 time=0.014388499999999999
EXTRACT: control_change channel=6 control=11 value=94 time=0.009592333333333333
EXTRACT: note_on channel=9 note=70 velocity=0 time=0.0023980833333333332
EXTRACT: control_change channel=7 control=11 value=92 time=0.0023980833333333332
EXTRACT: note_on channel=9 note=42 velocity=0 time=0.0047961666666666665
EXTRACT: control_change channel=6 control=11 value=90 time=0.007194249999999999
EXTRACT: control_change channel=7 control=11 value=87 time=0.011990416666666667
EXTRACT: note_on channel=1 note=25 velocity=0 time=0.016786583333333334
EXTRACT: control_change channel=6 control=11 value=85 time=0.0023980833333333332
EXTRACT: note_on channel=3 note=56 velocity=89 time=0
EXTRACT: note_on channel=3 note=68 velocity=122 time=0
EXTRACT: control_change channel=7 control=11 value=83 time=0.0023980833333333332
EXTRACT: note_on channel=9 note=70 velocity=108 time=0.0023980833333333332
EXTRACT: note_on channel=11 note=46 velocity=127 time=0.0023980833333333332
EXTRACT: note_on channel=9 note=37 velocity=91 time=0.0047961666666666665
EXTRACT: note_on channel=9 note=28 velocity=68 time=0
EXTRACT: note_on channel=9 note=39 velocity=67 time=0
EXTRACT: note_on channel=9 note=35 velocity=97 time=0
EXTRACT: note_on channel=9 note=28 velocity=0 time=0.0023980833333333332
EXTRACT: note_on channel=9 note=37 velocity=0 time=0
EXTRACT: note_on channel=9 note=40 velocity=64 time=0.0023980833333333332
EXTRACT: control_change channel=6 control=11 value=81 time=0.0047961666666666665
EXTRACT: control_change channel=7 control=11 value=78 time=0.011990416666666667
EXTRACT: note_on channel=11 note=46 velocity=0 time=0.0047961666666666665
EXTRACT: control_change channel=5 control=11 value=59 time=0.0047961666666666665
EXTRACT: control_change channel=6 control=11 value=76 time=0
EXTRACT: note_on channel=9 note=39 velocity=50 time=0
EXTRACT: control_change channel=7 control=11 value=74 time=0.014388499999999999
EXTRACT: note_on channel=9 note=70 velocity=0 time=0.0047961666666666665
EXTRACT: note_on channel=9 note=39 velocity=0 time=0.007194249999999999
EXTRACT: note_on channel=9 note=35 velocity=0 time=0
EXTRACT: control_change channel=6 control=11 value=72 time=0.0047961666666666665
EXTRACT: note_on channel=9 note=40 velocity=0 time=0
EXTRACT: control_change channel=7 control=11 value=70 time=0.014388499999999999
EXTRACT: note_on channel=9 note=39 velocity=0 time=0.011990416666666667
EXTRACT: control_change channel=6 control=11 value=68 time=0.021582749999999998
EXTRACT: control_change channel=7 control=11 value=66 time=0.021582749999999998
EXTRACT: control_change channel=7 control=11 value=64 time=0.014388499999999999
EXTRACT: control_change channel=6 control=11 value=64 time=0.0023980833333333332
EXTRACT: control_change channel=7 control=11 value=62 time=0.021582749999999998
EXTRACT: control_change channel=4 control=11 value=74 time=0.009592333333333333
EXTRACT: control_change channel=5 control=11 value=57 time=0.023980833333333333
EXTRACT: control_change channel=6 control=11 value=60 time=0
EXTRACT: note_on channel=9 note=70 velocity=75 time=0.009592333333333333
EXTRACT: note_on channel=1 note=25 velocity=118 time=0.007194249999999999
EXTRACT: control_change channel=7 control=11 value=58 time=0.019184666666666666
EXTRACT: note_on channel=9 note=46 velocity=59 time=0.0023980833333333332
EXTRACT: control_change channel=6 control=11 value=56 time=0.023980833333333333
EXTRACT: note_on channel=9 note=70 velocity=0 time=0.0047961666666666665
EXTRACT: note_on channel=9 note=85 velocity=78 time=0.021582749999999998
EXTRACT: note_on channel=9 note=46 velocity=0 time=0.007194249999999999
EXTRACT: control_change channel=7 control=11 value=54 time=0.0023980833333333332
EXTRACT: note_on channel=9 note=85 velocity=0 time=0.021582749999999998
EXTRACT: note_on channel=9 note=70 velocity=67 time=0.019184666666666666
EXTRACT: note_on channel=9 note=42 velocity=108 time=0.007194249999999999
EXTRACT: control_change channel=6 control=11 value=52 time=0.009592333333333333
EXTRACT: note_on channel=9 note=85 velocity=77 time=0.011990416666666667
EXTRACT: note_on channel=9 note=70 velocity=0 time=0.028776999999999997
EXTRACT: note_on channel=9 note=85 velocity=0 time=0.0023980833333333332
EXTRACT: note_on channel=9 note=42 velocity=0 time=0.0047961666666666665
EXTRACT: note_on channel=3 note=68 velocity=0 time=0.023980833333333333
EXTRACT: note_on channel=3 note=56 velocity=0 time=0
EXTRACT: note_on channel=1 note=25 velocity=0 time=0.014388499999999999
EXTRACT: note_on channel=3 note=49 velocity=90 time=0.014388499999999999
EXTRACT: note_on channel=3 note=61 velocity=124 time=0
EXTRACT: note_on channel=9 note=70 velocity=108 time=0
EXTRACT: note_on channel=9 note=85 velocity=80 time=0.007194249999999999
EXTRACT: note_on channel=9 note=35 velocity=97 time=0
EXTRACT: note_on channel=9 note=85 velocity=0 time=0.031175083333333332
EXTRACT: control_change channel=4 control=11 value=76 time=0.016786583333333334
EXTRACT: note_on channel=9 note=70 velocity=0 time=0.0023980833333333332
EXTRACT: note_on channel=9 note=35 velocity=0 time=0.007194249999999999
EXTRACT: control_change channel=7 control=11 value=50 time=0.06714633333333334
EXTRACT: note_on channel=1 note=25 velocity=121 time=0.09592333333333333
EXTRACT: note_on channel=9 note=70 velocity=76 time=0.007194249999999999
EXTRACT: note_on channel=9 note=46 velocity=61 time=0.014388499999999999
EXTRACT: note_on channel=9 note=70 velocity=0 time=0.043165499999999996
EXTRACT: note_on channel=9 note=46 velocity=0 time=0.014388499999999999
EXTRACT: note_on channel=9 note=70 velocity=67 time=0.043165499999999996
EXTRACT: note_on channel=9 note=42 velocity=108 time=0.009592333333333333
EXTRACT: note_on channel=9 note=70 velocity=0 time=0.047961666666666666
EXTRACT: note_on channel=9 note=42 velocity=0 time=0.009592333333333333
EXTRACT: note_on channel=1 note=25 velocity=0 time=0.035971249999999996
EXTRACT: note_on channel=3 note=61 velocity=0 time=0.009592333333333333
EXTRACT: note_on channel=3 note=49 velocity=0 time=0
EXTRACT: note_on channel=9 note=70 velocity=107 time=0.0047961666666666665
EXTRACT: note_on channel=3 note=56 velocity=85 time=0.009592333333333333
EXTRACT: note_on channel=3 note=68 velocity=118 time=0
EXTRACT: control_change channel=4 control=11 value=78 time=0
EXTRACT: note_on channel=9 note=40 velocity=54 time=0
EXTRACT: note_on channel=9 note=37 velocity=91 time=0
EXTRACT: note_on channel=9 note=28 velocity=68 time=0
EXTRACT: note_on channel=9 note=39 velocity=72 time=0
EXTRACT: note_on channel=9 note=35 velocity=97 time=0
EXTRACT: note_on channel=9 note=28 velocity=0 time=0.0023980833333333332
EXTRACT: note_on channel=9 note=37 velocity=0 time=0
EXTRACT: control_change channel=6 control=11 value=52 time=0.014388499999999999
EXTRACT: note_on channel=9 note=39 velocity=55 time=0.014388499999999999
EXTRACT: note_on channel=9 note=70 velocity=0 time=0.016786583333333334
EXTRACT: note_on channel=9 note=35 velocity=0 time=0.009592333333333333
EXTRACT: note_on channel=9 note=40 velocity=0 time=0
EXTRACT: note_on channel=9 note=39 velocity=0 time=0
EXTRACT: note_on channel=9 note=39 velocity=0 time=0.031175083333333332
EXTRACT: note_on channel=3 note=68 velocity=0 time=0.07434058333333333
EXTRACT: note_on channel=3 note=56 velocity=0 time=0
EXTRACT: note_on channel=1 note=25 velocity=126 time=0.055155916666666666
EXTRACT: note_on channel=9 note=70 velocity=73 time=0.007194249999999999
EXTRACT: note_on channel=9 note=46 velocity=61 time=0.016786583333333334
EXTRACT: control_change channel=7 control=11 value=54 time=0.014388499999999999
EXTRACT: control_change channel=6 control=11 value=56 time=0.016786583333333334
EXTRACT: note_on channel=9 note=70 velocity=0 time=0.009592333333333333
EXTRACT: control_change channel=4 control=11 value=80 time=0.011990416666666667
EXTRACT: note_on channel=9 note=46 velocity=0 time=0.0047961666666666665
EXTRACT: note_on channel=9 note=70 velocity=67 time=0.043165499999999996
EXTRACT: note_on channel=9 note=42 velocity=109 time=0.007194249999999999
EXTRACT: control_change channel=7 control=11 value=58 time=0.03836933333333333
EXTRACT: note_on channel=9 note=70 velocity=0 time=0.011990416666666667
EXTRACT: note_on channel=9 note=42 velocity=0 time=0.007194249999999999
EXTRACT: note_on channel=1 note=25 velocity=0 time=0.035971249999999996
EXTRACT: control_change channel=6 control=11 value=60 time=0.009592333333333333
EXTRACT: note_on channel=3 note=56 velocity=90 time=0.007194249999999999
EXTRACT: note_on channel=3 note=68 velocity=124 time=0
EXTRACT: note_on channel=9 note=70 velocity=108 time=0
EXTRACT: note_on channel=5 note=77 velocity=0 time=0.007194249999999999
EXTRACT: note_on channel=5 note=79 velocity=117 time=0
EXTRACT: note_on channel=9 note=35 velocity=97 time=0
EXTRACT: control_change channel=5 control=11 value=59 time=0.031175083333333332
EXTRACT: control_change channel=7 control=11 value=62 time=0.007194249999999999
EXTRACT: note_on channel=9 note=70 velocity=0 time=0.011990416666666667
EXTRACT: note_on channel=9 note=35 velocity=0 time=0.007194249999999999
EXTRACT: control_change channel=7 control=11 value=64 time=0.026378916666666665
EXTRACT: control_change channel=6 control=11 value=64 time=0.0023980833333333332
EXTRACT: control_change channel=7 control=11 value=66 time=0.014388499999999999
EXTRACT: control_change channel=6 control=11 value=68 time=0.047961666666666666
EXTRACT: control_change channel=7 control=11 value=70 time=0.021582749999999998
EXTRACT: control_change channel=5 control=11 value=57 time=0.009592333333333333
EXTRACT: control_change channel=4 control=11 value=82 time=0.03836933333333333
EXTRACT: note_on channel=1 note=25 velocity=118 time=0.0023980833333333332
EXTRACT: note_on channel=9 note=70 velocity=77 time=0.0047961666666666665
EXTRACT: note_on channel=9 note=46 velocity=61 time=0.016786583333333334
EXTRACT: control_change channel=6 control=11 value=72 time=0.009592333333333333
EXTRACT: control_change channel=7 control=11 value=74 time=0.011990416666666667
EXTRACT: note_on channel=9 note=70 velocity=0 time=0.019184666666666666
EXTRACT: note_on channel=9 note=46 velocity=0 time=0.016786583333333334
EXTRACT: control_change channel=6 control=11 value=76 time=0.014388499999999999
EXTRACT: note_on channel=9 note=70 velocity=67 time=0.028776999999999997
EXTRACT: note_on channel=9 note=42 velocity=113 time=0.007194249999999999
EXTRACT: control_change channel=7 control=11 value=78 time=0.014388499999999999
EXTRACT: note_on channel=9 note=70 velocity=0 time=0.035971249999999996
EXTRACT: note_on channel=9 note=42 velocity=0 time=0.007194249999999999
EXTRACT: control_change channel=6 control=11 value=80 time=0.021582749999999998
EXTRACT: note_on channel=3 note=68 velocity=0 time=0.011990416666666667
EXTRACT: note_on channel=3 note=56 velocity=0 time=0
EXTRACT: note_on channel=1 note=25 velocity=0 time=0.0047961666666666665
EXTRACT: note_on channel=3 note=58 velocity=85 time=0.009592333333333333
EXTRACT: note_on channel=3 note=70 velocity=118 time=0
EXTRACT: note_on channel=9 note=70 velocity=103 time=0.0047961666666666665
EXTRACT: note_on channel=9 note=37 velocity=91 time=0.007194249999999999
EXTRACT: note_on channel=9 note=28 velocity=68 time=0
EXTRACT: note_on channel=9 note=39 velocity=67 time=0
EXTRACT: note_on channel=9 note=35 velocity=97 time=0
EXTRACT: note_on channel=9 note=28 velocity=0 time=0.0023980833333333332
EXTRACT: note_on channel=9 note=37 velocity=0 time=0
EXTRACT: note_on channel=9 note=40 velocity=65 time=0.0023980833333333332
EXTRACT: note_on channel=9 note=39 velocity=50 time=0.026378916666666665
EXTRACT: note_on channel=9 note=70 velocity=0 time=0.019184666666666666
EXTRACT: control_change channel=7 control=11 value=82 time=0.0047961666666666665
EXTRACT: note_on channel=9 note=39 velocity=0 time=0.0023980833333333332
EXTRACT: note_on channel=9 note=35 velocity=0 time=0
EXTRACT: note_on channel=9 note=40 velocity=0 time=0.0047961666666666665
EXTRACT: note_on channel=9 note=39 velocity=0 time=0.026378916666666665
EXTRACT: control_change channel=6 control=11 value=84 time=0.10791374999999999
EXTRACT: note_on channel=9 note=70 velocity=75 time=0.019184666666666666
EXTRACT: note_on channel=3 note=70 velocity=0 time=0.0023980833333333332
EXTRACT: note_on channel=3 note=58 velocity=0 time=0
EXTRACT: note_on channel=1 note=25 velocity=121 time=0.0023980833333333332
EXTRACT: note_on channel=9 note=46 velocity=62 time=0.021582749999999998
EXTRACT: note_on channel=3 note=56 velocity=90 time=0.011990416666666667
EXTRACT: note_on channel=3 note=68 velocity=124 time=0
EXTRACT: control_change channel=7 control=11 value=86 time=0.009592333333333333
EXTRACT: note_on channel=9 note=70 velocity=0 time=0.009592333333333333
EXTRACT: note_on channel=9 note=46 velocity=0 time=0.026378916666666665
EXTRACT: control_change channel=6 control=11 value=88 time=0.03836933333333333
EXTRACT: note_on channel=9 note=70 velocity=67 time=0.007194249999999999
EXTRACT: control_change channel=7 control=11 value=90 time=0.0047961666666666665
EXTRACT: note_on channel=9 note=42 velocity=111 time=0.0023980833333333332
EXTRACT: control_change channel=6 control=11 value=92 time=0.023980833333333333
EXTRACT: note_on channel=9 note=70 velocity=0 time=0.026378916666666665
EXTRACT: note_on channel=9 note=42 velocity=0 time=0.007194249999999999
EXTRACT: note_on channel=1 note=25 velocity=0 time=0.035971249999999996
EXTRACT: note_on channel=9 note=70 velocity=103 time=0.014388499999999999
EXTRACT: note_on channel=5 note=79 velocity=0 time=0.007194249999999999
EXTRACT: note_on channel=5 note=80 velocity=120 time=0.0023980833333333332
EXTRACT: note_on channel=9 note=35 velocity=97 time=0
EXTRACT: control_change channel=5 control=11 value=59 time=0.021582749999999998
EXTRACT: control_change channel=4 control=11 value=80 time=0.009592333333333333
EXTRACT: note_on channel=9 note=70 velocity=0 time=0.016786583333333334
EXTRACT: note_on channel=9 note=35 velocity=0 time=0.009592333333333333
EXTRACT: control_change channel=7 control=11 value=94 time=0.11270991666666666
EXTRACT: control_change channel=5 control=11 value=57 time=0.016786583333333334
EXTRACT: note_on channel=1 note=25 velocity=121 time=0.031175083333333332
EXTRACT: control_change channel=6 control=11 value=96 time=0
EXTRACT: control_change channel=4 control=11 value=78 time=0.007194249999999999
EXTRACT: note_on channel=3 note=68 velocity=0 time=0.0023980833333333332
EXTRACT: note_on channel=3 note=56 velocity=0 time=0
EXTRACT: control_change channel=7 control=11 value=98 time=0.0047961666666666665
EXTRACT: note_on channel=9 note=82 velocity=65 time=0
EXTRACT: note_on channel=9 note=46 velocity=63 time=0.009592333333333333
EXTRACT: note_on channel=3 note=58 velocity=90 time=0.009592333333333333
EXTRACT: note_on channel=3 note=70 velocity=124 time=0
EXTRACT: control_change channel=6 control=11 value=100 time=0.021582749999999998
EXTRACT: control_change channel=7 control=11 value=102 time=0.014388499999999999
EXTRACT: note_on channel=9 note=82 velocity=0 time=0.0023980833333333332
EXTRACT: note_on channel=9 note=85 velocity=76 time=0.0023980833333333332
EXTRACT: note_on channel=9 note=46 velocity=0 time=0.007194249999999999
EXTRACT: control_change channel=6 control=11 value=104 time=0.0047961666666666665
EXTRACT: control_change channel=7 control=11 value=107 time=0.014388499999999999
EXTRACT: note_on channel=9 note=85 velocity=0 time=0.0047961666666666665
EXTRACT: control_change channel=6 control=11 value=109 time=0.0047961666666666665
EXTRACT: control_change channel=7 control=11 value=111 time=0.0047961666666666665
EXTRACT: control_change channel=6 control=11 value=113 time=0.009592333333333333
EXTRACT: control_change channel=7 control=11 value=115 time=0.007194249999999999
EXTRACT: note_on channel=9 note=82 velocity=57 time=0
EXTRACT: note_on channel=9 note=42 velocity=111 time=0
EXTRACT: control_change channel=6 control=11 value=117 time=0.009592333333333333
EXTRACT: control_change channel=7 control=11 value=120 time=0.0047961666666666665
EXTRACT: note_on channel=9 note=85 velocity=77 time=0.0047961666666666665
EXTRACT: control_change channel=6 control=11 value=122 time=0.0047961666666666665
EXTRACT: control_change channel=7 control=11 value=120 time=0.014388499999999999
EXTRACT: note_on channel=9 note=39 velocity=50 time=0
EXTRACT: note_on channel=9 note=85 velocity=0 time=0.011990416666666667
EXTRACT: note_on channel=9 note=82 velocity=0 time=0.007194249999999999
EXTRACT: note_on channel=9 note=42 velocity=0 time=0
EXTRACT: note_on channel=7 note=49 velocity=0 time=0.009592333333333333
EXTRACT: note_on channel=3 note=70 velocity=0 time=0.016786583333333334
EXTRACT: note_on channel=3 note=58 velocity=0 time=0
EXTRACT: note_on channel=6 note=61 velocity=0 time=0.0023980833333333332
EXTRACT: note_on channel=1 note=25 velocity=0 time=0.007194249999999999
EXTRACT: note_on channel=9 note=39 velocity=0 time=0.0023980833333333332
EXTRACT: note_on channel=3 note=56 velocity=90 time=0.014388499999999999
EXTRACT: note_on channel=3 note=68 velocity=124 time=0
EXTRACT: control_change channel=4 control=11 value=76 time=0
EXTRACT: note_on channel=9 note=40 velocity=56 time=0.007194249999999999
EXTRACT: note_on channel=9 note=37 velocity=91 time=0
EXTRACT: note_on channel=9 note=28 velocity=68 time=0
EXTRACT: note_on channel=9 note=39 velocity=73 time=0
EXTRACT: note_on channel=9 note=82 velocity=71 time=0
EXTRACT: note_on channel=9 note=85 velocity=81 time=0
EXTRACT: note_on channel=9 note=35 velocity=97 time=0
EXTRACT: note_on channel=9 note=28 velocity=0 time=0.0023980833333333332
EXTRACT: note_on channel=9 note=37 velocity=0 time=0
EXTRACT: note_on channel=9 note=85 velocity=0 time=0.028776999999999997
EXTRACT: note_on channel=9 note=39 velocity=55 time=0
EXTRACT: note_on channel=9 note=39 velocity=0 time=0.026378916666666665
EXTRACT: note_on channel=9 note=82 velocity=0 time=0
EXTRACT: note_on channel=9 note=40 velocity=0 time=0
EXTRACT: note_on channel=9 note=35 velocity=0 time=0
EXTRACT: note_on channel=9 note=39 velocity=0 time=0.031175083333333332
EXTRACT: control_change channel=5 control=11 value=59 time=0.011990416666666667
EXTRACT: note_on channel=7 note=48 velocity=82 time=0.11750608333333333
EXTRACT: note_on channel=1 note=25 velocity=118 time=0.0023980833333333332
EXTRACT: note_on channel=6 note=60 velocity=79 time=0
EXTRACT: note_on channel=9 note=82 velocity=53 time=0.014388499999999999
EXTRACT: note_on channel=9 note=46 velocity=62 time=0.007194249999999999
EXTRACT: control_change channel=5 control=11 value=57 time=0.023980833333333333
EXTRACT: control_change channel=6 control=11 value=117 time=0.007194249999999999
EXTRACT: control_change channel=7 control=11 value=114 time=0.007194249999999999
EXTRACT: note_on channel=9 note=82 velocity=0 time=0.011990416666666667
EXTRACT: control_change channel=6 control=11 value=112 time=0.0047961666666666665
EXTRACT: note_on channel=9 note=46 velocity=0 time=0.0023980833333333332
EXTRACT: control_change channel=7 control=11 value=110 time=0.0023980833333333332
EXTRACT: control_change channel=6 control=11 value=108 time=0.011990416666666667
EXTRACT: control_change channel=7 control=11 value=105 time=0.0047961666666666665
EXTRACT: control_change channel=6 control=11 value=99 time=0.016786583333333334
EXTRACT: control_change channel=7 control=11 value=96 time=0.014388499999999999
EXTRACT: note_on channel=9 note=82 velocity=50 time=0
EXTRACT: note_on channel=9 note=42 velocity=113 time=0
EXTRACT: control_change channel=6 control=11 value=94 time=0.009592333333333333
EXTRACT: control_change channel=7 control=11 value=92 time=0.0047961666666666665
EXTRACT: control_change channel=6 control=11 value=90 time=0.019184666666666666
EXTRACT: control_change channel=7 control=11 value=88 time=0.0047961666666666665
EXTRACT: control_change channel=6 control=11 value=86 time=0.019184666666666666
EXTRACT: note_on channel=9 note=42 velocity=0 time=0
EXTRACT: note_on channel=9 note=82 velocity=0 time=0
EXTRACT: control_change channel=7 control=11 value=84 time=0.028776999999999997
EXTRACT: note_on channel=7 note=48 velocity=0 time=0.007194249999999999
EXTRACT: note_on channel=1 note=25 velocity=0 time=0.0023980833333333332
EXTRACT: note_on channel=6 note=60 velocity=0 time=0
EXTRACT: control_change channel=6 control=11 value=120 time=0
EXTRACT: note_on channel=7 note=49 velocity=78 time=0.0047961666666666665
EXTRACT: note_on channel=6 note=61 velocity=77 time=0.0023980833333333332
EXTRACT: note_on channel=3 note=68 velocity=0 time=0.0023980833333333332
EXTRACT: note_on channel=3 note=56 velocity=0 time=0
EXTRACT: note_on channel=4 note=61 velocity=0 time=0.0023980833333333332
EXTRACT: note_on channel=4 note=73 velocity=0 time=0
EXTRACT: note_on channel=4 note=65 velocity=0 time=0
EXTRACT: note_on channel=4 note=68 velocity=108 time=0.0023980833333333332
EXTRACT: note_on channel=4 note=76 velocity=112 time=0
EXTRACT: note_on channel=4 note=64 velocity=104 time=0
EXTRACT: note_on channel=9 note=70 velocity=103 time=0
EXTRACT: note_on channel=5 note=80 velocity=0 time=0.007194249999999999
EXTRACT: note_on channel=5 note=76 velocity=115 time=0
EXTRACT: note_on channel=9 note=35 velocity=97 time=0
EXTRACT: control_change channel=7 control=11 value=117 time=0.03836933333333333
EXTRACT: control_change channel=6 control=11 value=115 time=0.009592333333333333
EXTRACT: note_on channel=9 note=70 velocity=0 time=0.0023980833333333332
EXTRACT: control_change channel=5 control=11 value=59 time=0.0047961666666666665
EXTRACT: note_on channel=9 note=35 velocity=0 time=0.0023980833333333332
EXTRACT: control_change channel=7 control=11 value=113 time=0.0047961666666666665
EXTRACT: control_change channel=6 control=11 value=111 time=0.009592333333333333
EXTRACT: control_change channel=7 control=11 value=109 time=0.0047961666666666665
EXTRACT: control_change channel=4 control=11 value=78 time=0.0023980833333333332
EXTRACT: control_change channel=6 control=11 value=106 time=0.009592333333333333
EXTRACT: control_change channel=7 control=11 value=101 time=0.011990416666666667
EXTRACT: control_change channel=6 control=11 value=99 time=0.009592333333333333
EXTRACT: control_change channel=7 control=11 value=96 time=0.014388499999999999
EXTRACT: control_change channel=6 control=11 value=94 time=0.009592333333333333
EXTRACT: control_change channel=7 control=11 value=92 time=0.014388499999999999
EXTRACT: control_change channel=6 control=11 value=90 time=0.016786583333333334
EXTRACT: control_change channel=5 control=11 value=61 time=0.007194249999999999
EXTRACT: control_change channel=7 control=11 value=88 time=0.007194249999999999
EXTRACT: control_change channel=6 control=11 value=86 time=0.023980833333333333
EXTRACT: note_on channel=7 note=49 velocity=0 time=0.0047961666666666665
EXTRACT: note_on channel=6 note=61 velocity=0 time=0.0023980833333333332
EXTRACT: control_change channel=7 control=11 value=120 time=0
EXTRACT: note_on channel=7 note=49 velocity=74 time=0.007194249999999999
EXTRACT: note_on channel=1 note=28 velocity=126 time=0.0023980833333333332
EXTRACT: note_on channel=6 note=61 velocity=71 time=0
EXTRACT: note_on channel=9 note=70 velocity=77 time=0.007194249999999999
EXTRACT: note_on channel=9 note=46 velocity=61 time=0.014388499999999999
EXTRACT: control_change channel=6 control=11 value=118 time=0.023980833333333333
EXTRACT: control_change channel=4 control=11 value=76 time=0.007194249999999999
EXTRACT: control_change channel=7 control=11 value=116 time=0
EXTRACT: note_on channel=9 note=70 velocity=0 time=0.011990416666666667
EXTRACT: control_change channel=6 control=11 value=113 time=0.0047961666666666665
EXTRACT: note_on channel=9 note=46 velocity=0 time=0.009592333333333333
EXTRACT: control_change channel=7 control=11 value=110 time=0.0047961666666666665
EXTRACT: control_change channel=6 control=11 value=108 time=0.009592333333333333
EXTRACT: control_change channel=7 control=11 value=106 time=0.0047961666666666665
EXTRACT: control_change channel=6 control=11 value=104 time=0.019184666666666666
EXTRACT: control_change channel=7 control=11 value=102 time=0.0047961666666666665
EXTRACT: note_on channel=9 note=70 velocity=67 time=0.0023980833333333332
EXTRACT: control_change channel=6 control=11 value=100 time=0.007194249999999999
EXTRACT: note_on channel=9 note=42 velocity=109 time=0
EXTRACT: control_change channel=7 control=11 value=98 time=0.007194249999999999
EXTRACT: control_change channel=6 control=11 value=96 time=0.009592333333333333
EXTRACT: control_change channel=7 control=11 value=94 time=0.011990416666666667
EXTRACT: control_change channel=6 control=11 value=91 time=0.011990416666666667
EXTRACT: control_change channel=7 control=11 value=89 time=0.0047961666666666665
EXTRACT: note_on channel=9 note=70 velocity=0 time=0.0047961666666666665
EXTRACT: control_change channel=6 control=11 value=87 time=0.0047961666666666665
EXTRACT: note_on channel=9 note=42 velocity=0 time=0.0023980833333333332
EXTRACT: control_change channel=7 control=11 value=85 time=0.0023980833333333332
EXTRACT: control_change channel=6 control=11 value=83 time=0.011990416666666667
EXTRACT: control_change channel=7 control=11 value=81 time=0.0047961666666666665
EXTRACT: note_on channel=1 note=28 velocity=0 time=0.016786583333333334
EXTRACT: control_change channel=6 control=11 value=79 time=0
EXTRACT: note_on channel=3 note=56 velocity=92 time=0.007194249999999999
EXTRACT: note_on channel=3 note=68 velocity=127 time=0
EXTRACT: control_change channel=7 control=11 value=77 time=0.007194249999999999
EXTRACT: note_on channel=9 note=70 velocity=108 time=0
EXTRACT: control_change channel=6 control=11 value=75 time=0.009592333333333333
EXTRACT: note_on channel=9 note=37 velocity=91 time=0
EXTRACT: note_on channel=9 note=28 velocity=68 time=0
EXTRACT: note_on channel=9 note=39 velocity=67 time=0
EXTRACT: note_on channel=9 note=35 velocity=97 time=0
EXTRACT: note_on channel=9 note=28 velocity=0 time=0.0023980833333333332
EXTRACT: note_on channel=9 note=37 velocity=0 time=0
EXTRACT: note_on channel=9 note=40 velocity=67 time=0
EXTRACT: control_change channel=7 control=11 value=72 time=0.011990416666666667
EXTRACT: control_change channel=6 control=11 value=70 time=0.009592333333333333
EXTRACT: control_change channel=7 control=11 value=68 time=0.0047961666666666665
EXTRACT: note_on channel=9 note=39 velocity=50 time=0.0023980833333333332
EXTRACT: control_change channel=6 control=11 value=65 time=0.016786583333333334
EXTRACT: note_on channel=9 note=70 velocity=0 time=0
EXTRACT: control_change channel=5 control=11 value=59 time=0.0047961666666666665
EXTRACT: note_on channel=9 note=39 velocity=0 time=0.0047961666666666665
EXTRACT: note_on channel=9 note=35 velocity=0 time=0
EXTRACT: control_change channel=7 control=11 value=63 time=0.0023980833333333332
EXTRACT: note_on channel=9 note=40 velocity=0 time=0
EXTRACT: control_change channel=6 control=11 value=61 time=0.019184666666666666
EXTRACT: note_on channel=9 note=39 velocity=0 time=0.009592333333333333
EXTRACT: control_change channel=7 control=11 value=59 time=0.019184666666666666
EXTRACT: control_change channel=6 control=11 value=57 time=0.016786583333333334
EXTRACT: control_change channel=7 control=11 value=55 time=0.014388499999999999
EXTRACT: control_change channel=6 control=11 value=53 time=0.016786583333333334
EXTRACT: control_change channel=7 control=11 value=51 time=0.014388499999999999
EXTRACT: note_on channel=3 note=68 velocity=0 time=0.03836933333333333
EXTRACT: note_on channel=3 note=56 velocity=0 time=0
EXTRACT: note_on channel=9 note=70 velocity=75 time=0.0047961666666666665
EXTRACT: note_on channel=1 note=28 velocity=118 time=0.0047961666666666665
EXTRACT: control_change channel=5 control=11 value=57 time=0.007194249999999999
EXTRACT: control_change channel=6 control=11 value=49 time=0.0023980833333333332
EXTRACT: control_change channel=7 control=11 value=47 time=0.011990416666666667
EXTRACT: note_on channel=9 note=46 velocity=59 time=0.0023980833333333332
EXTRACT: control_change channel=6 control=11 value=45 time=0.016786583333333334
EXTRACT: note_on channel=9 note=70 velocity=0 time=0.011990416666666667
EXTRACT: control_change channel=7 control=11 value=43 time=0.023980833333333333
EXTRACT: note_on channel=9 note=46 velocity=0 time=0.0047961666666666665
EXTRACT: control_change channel=6 control=11 value=41 time=0.011990416666666667
EXTRACT: note_on channel=9 note=70 velocity=67 time=0.031175083333333332
EXTRACT: note_on channel=9 note=42 velocity=108 time=0.007194249999999999
EXTRACT: note_on channel=9 note=70 velocity=0 time=0.050359749999999995
EXTRACT: note_on channel=9 note=42 velocity=0 time=0.007194249999999999
EXTRACT: note_on channel=1 note=28 velocity=0 time=0.035971249999999996
EXTRACT: note_on channel=3 note=56 velocity=91 time=0.0047961666666666665
EXTRACT: note_on channel=3 note=68 velocity=126 time=0
EXTRACT: note_on channel=9 note=70 velocity=108 time=0.011990416666666667
EXTRACT: note_on channel=9 note=35 velocity=97 time=0.007194249999999999
EXTRACT: note_on channel=9 note=70 velocity=0 time=0.050359749999999995
EXTRACT: note_on channel=9 note=35 velocity=0 time=0.007194249999999999
EXTRACT: control_change channel=7 control=11 value=39 time=0.050359749999999995
EXTRACT: control_change channel=6 control=11 value=37 time=0.019184666666666666
EXTRACT: note_on channel=3 note=68 velocity=0 time=0.06714633333333334
EXTRACT: note_on channel=3 note=56 velocity=0 time=0
EXTRACT: note_on channel=1 note=28 velocity=121 time=0.026378916666666665
EXTRACT: note_on channel=9 note=70 velocity=76 time=0.0047961666666666665
EXTRACT: note_on channel=9 note=46 velocity=61 time=0.016786583333333334
EXTRACT: note_on channel=9 note=70 velocity=0 time=0.04076741666666667
EXTRACT: note_on channel=9 note=46 velocity=0 time=0.016786583333333334
EXTRACT: note_on channel=9 note=70 velocity=67 time=0.043165499999999996
EXTRACT: note_on channel=9 note=42 velocity=108 time=0.007194249999999999
EXTRACT: note_on channel=9 note=70 velocity=0 time=0.050359749999999995
EXTRACT: note_on channel=9 note=42 velocity=0 time=0.007194249999999999
EXTRACT: note_on channel=1 note=28 velocity=0 time=0.03836933333333333
EXTRACT: note_on channel=9 note=70 velocity=107 time=0.014388499999999999
EXTRACT: note_on channel=3 note=58 velocity=91 time=0.0047961666666666665
EXTRACT: note_on channel=3 note=70 velocity=126 time=0
EXTRACT: note_on channel=9 note=40 velocity=56 time=0.0023980833333333332
EXTRACT: note_on channel=9 note=37 velocity=91 time=0
EXTRACT: note_on channel=9 note=28 velocity=68 time=0
EXTRACT: note_on channel=9 note=39 velocity=72 time=0
EXTRACT: note_on channel=9 note=35 velocity=97 time=0
EXTRACT: note_on channel=9 note=28 velocity=0 time=0.0023980833333333332
EXTRACT: note_on channel=9 note=37 velocity=0 time=0
EXTRACT: control_change channel=7 control=11 value=39 time=0.0047961666666666665
EXTRACT: note_on channel=9 note=39 velocity=55 time=0.023980833333333333
EXTRACT: control_change channel=4 control=11 value=78 time=0.016786583333333334
EXTRACT: note_on channel=9 note=70 velocity=0 time=0.0023980833333333332
EXTRACT: note_on channel=9 note=35 velocity=0 time=0.007194249999999999
EXTRACT: note_on channel=9 note=40 velocity=0 time=0
EXTRACT: note_on channel=9 note=39 velocity=0 time=0
EXTRACT: note_on channel=9 note=39 velocity=0 time=0.031175083333333332
EXTRACT: control_change channel=6 control=11 value=41 time=0.007194249999999999
EXTRACT: note_on channel=3 note=70 velocity=0 time=0.08872908333333333
EXTRACT: note_on channel=3 note=58 velocity=0 time=0
EXTRACT: note_on channel=1 note=28 velocity=126 time=0.035971249999999996
EXTRACT: note_on channel=9 note=70 velocity=73 time=0.007194249999999999
EXTRACT: note_on channel=9 note=46 velocity=61 time=0.014388499999999999
EXTRACT: control_change channel=7 control=11 value=43 time=0.014388499999999999
EXTRACT: note_on channel=9 note=70 velocity=0 time=0.028776999999999997
EXTRACT: note_on channel=9 note=46 velocity=0 time=0.014388499999999999
EXTRACT: note_on channel=9 note=70 velocity=67 time=0.04556358333333333
EXTRACT: note_on channel=9 note=42 velocity=109 time=0.007194249999999999
EXTRACT: control_change channel=6 control=11 value=45 time=0.023980833333333333
EXTRACT: control_change channel=4 control=11 value=80 time=0.014388499999999999
EXTRACT: control_change channel=7 control=11 value=47 time=0
EXTRACT: note_on channel=9 note=70 velocity=0 time=0.011990416666666667
EXTRACT: note_on channel=9 note=42 velocity=0 time=0.007194249999999999
EXTRACT: note_on channel=1 note=28 velocity=0 time=0.035971249999999996
EXTRACT: note_on channel=3 note=59 velocity=91 time=0.0023980833333333332
EXTRACT: note_on channel=3 note=71 velocity=126 time=0
EXTRACT: control_change channel=6 control=11 value=49 time=0.007194249999999999
EXTRACT: note_on channel=9 note=70 velocity=108 time=0.0047961666666666665
EXTRACT: note_on channel=11 note=46 velocity=127 time=0.0047961666666666665
EXTRACT: note_on channel=5 note=76 velocity=0 time=0.0023980833333333332
EXTRACT: note_on channel=5 note=78 velocity=117 time=0.0023980833333333332
EXTRACT: note_on channel=9 note=35 velocity=97 time=0
EXTRACT: note_on channel=11 note=46 velocity=0 time=0.026378916666666665
EXTRACT: control_change channel=7 control=11 value=51 time=0.0023980833333333332
EXTRACT: control_change channel=5 control=11 value=59 time=0.0023980833333333332
EXTRACT: note_on channel=9 note=70 velocity=0 time=0.016786583333333334
EXTRACT: note_on channel=9 note=35 velocity=0 time=0.009592333333333333
EXTRACT: control_change channel=6 control=11 value=53 time=0.021582749999999998
EXTRACT: control_change channel=7 control=11 value=55 time=0.011990416666666667
EXTRACT: control_change channel=6 control=11 value=57 time=0.019184666666666666
EXTRACT: control_change channel=7 control=11 value=59 time=0.035971249999999996
EXTRACT: control_change channel=6 control=11 value=61 time=0.026378916666666665
EXTRACT: control_change channel=5 control=11 value=57 time=0.007194249999999999
EXTRACT: note_on channel=1 note=28 velocity=118 time=0.03836933333333333
EXTRACT: note_on channel=9 note=70 velocity=77 time=0.007194249999999999
EXTRACT: control_change channel=7 control=11 value=63 time=0.014388499999999999
EXTRACT: note_on channel=9 note=46 velocity=61 time=0.0023980833333333332
EXTRACT: control_change channel=6 control=11 value=65 time=0.016786583333333334
EXTRACT: control_change channel=7 control=11 value=67 time=0.011990416666666667
EXTRACT: note_on channel=9 note=70 velocity=0 time=0.011990416666666667
EXTRACT: note_on channel=9 note=46 velocity=0 time=0.016786583333333334
EXTRACT: note_on channel=9 note=70 velocity=67 time=0.043165499999999996
EXTRACT: control_change channel=4 control=11 value=82 time=0.007194249999999999
EXTRACT: note_on channel=9 note=42 velocity=113 time=0
EXTRACT: control_change channel=6 control=11 value=69 time=0.0023980833333333332
EXTRACT: control_change channel=7 control=11 value=71 time=0.011990416666666667
EXTRACT: note_on channel=9 note=70 velocity=0 time=0.035971249999999996
EXTRACT: note_on channel=9 note=42 velocity=0 time=0.007194249999999999
EXTRACT: note_on channel=3 note=71 velocity=0 time=0.009592333333333333
EXTRACT: note_on channel=3 note=59 velocity=0 time=0
EXTRACT: control_change channel=6 control=11 value=73 time=0.011990416666666667
EXTRACT: note_on channel=3 note=58 velocity=89 time=0.007194249999999999
EXTRACT: note_on channel=3 note=70 velocity=122 time=0
EXTRACT: note_on channel=1 note=28 velocity=0 time=0.007194249999999999
EXTRACT: note_on channel=9 note=70 velocity=103 time=0.016786583333333334
EXTRACT: note_on channel=11 note=39 velocity=127 time=0.0023980833333333332
EXTRACT: note_on channel=9 note=37 velocity=91 time=0.0047961666666666665
EXTRACT: note_on channel=9 note=28 velocity=68 time=0
EXTRACT: note_on channel=9 note=39 velocity=67 time=0
EXTRACT: note_on channel=9 note=35 velocity=97 time=0
EXTRACT: note_on channel=9 note=28 velocity=0 time=0.0023980833333333332
EXTRACT: note_on channel=9 note=37 velocity=0 time=0
EXTRACT: note_on channel=9 note=40 velocity=63 time=0.0023980833333333332
EXTRACT: note_on channel=11 note=39 velocity=0 time=0.021582749999999998
EXTRACT: note_on channel=9 note=39 velocity=50 time=0.0047961666666666665
EXTRACT: control_change channel=7 control=11 value=75 time=0.014388499999999999
EXTRACT: note_on channel=9 note=70 velocity=0 time=0.0047961666666666665
EXTRACT: note_on channel=9 note=39 velocity=0 time=0.007194249999999999
EXTRACT: note_on channel=9 note=35 velocity=0 time=0
EXTRACT: note_on channel=9 note=40 velocity=0 time=0.0047961666666666665
EXTRACT: control_change channel=6 control=11 value=77 time=0.0023980833333333332
EXTRACT: note_on channel=9 note=39 velocity=0 time=0.023980833333333333
EXTRACT: note_on channel=3 note=70 velocity=0 time=0.019184666666666666
EXTRACT: note_on channel=3 note=58 velocity=0 time=0
EXTRACT: note_on channel=9 note=70 velocity=75 time=0.10791374999999999
EXTRACT: note_on channel=1 note=28 velocity=121 time=0.0047961666666666665
EXTRACT: note_on channel=3 note=58 velocity=90 time=0.0023980833333333332
EXTRACT: note_on channel=3 note=70 velocity=124 time=0
EXTRACT: note_on channel=9 note=46 velocity=62 time=0.019184666666666666
EXTRACT: control_change channel=7 control=11 value=79 time=0.014388499999999999
EXTRACT: control_change channel=6 control=11 value=81 time=0.016786583333333334
EXTRACT: note_on channel=9 note=70 velocity=0 time=0
EXTRACT: note_on channel=9 note=46 velocity=0 time=0.026378916666666665
EXTRACT: control_change channel=7 control=11 value=83 time=0.03357316666666667
EXTRACT: note_on channel=9 note=70 velocity=67 time=0.009592333333333333
EXTRACT: note_on channel=9 note=42 velocity=111 time=0.007194249999999999
EXTRACT: control_change channel=6 control=11 value=85 time=0.0023980833333333332
EXTRACT: control_change channel=7 control=11 value=87 time=0.014388499999999999
EXTRACT: note_on channel=9 note=70 velocity=0 time=0.03357316666666667
EXTRACT: note_on channel=9 note=42 velocity=0 time=0.007194249999999999
EXTRACT: note_on channel=1 note=28 velocity=0 time=0.03836933333333333
EXTRACT: control_change channel=4 control=11 value=80 time=0
EXTRACT: note_on channel=9 note=70 velocity=103 time=0.014388499999999999
EXTRACT: note_on channel=11 note=46 velocity=127 time=0.0023980833333333332
EXTRACT: note_on channel=5 note=78 velocity=0 time=0.0047961666666666665
EXTRACT: note_on channel=5 note=80 velocity=119 time=0
EXTRACT: note_on channel=9 note=35 velocity=97 time=0
EXTRACT: note_on channel=11 note=46 velocity=0 time=0.026378916666666665
EXTRACT: control_change channel=5 control=11 value=59 time=0.0047961666666666665
EXTRACT: note_on channel=9 note=70 velocity=0 time=0.019184666666666666
EXTRACT: note_on channel=9 note=35 velocity=0 time=0.007194249999999999
EXTRACT: note_on channel=3 note=70 velocity=0 time=0.07434058333333333
EXTRACT: note_on channel=3 note=58 velocity=0 time=0
EXTRACT: control_change channel=6 control=11 value=89 time=0.03357316666666667
EXTRACT: control_change channel=5 control=11 value=57 time=0.014388499999999999
EXTRACT: control_change channel=7 control=11 value=91 time=0
EXTRACT: note_on channel=3 note=56 velocity=89 time=0.016786583333333334
EXTRACT: note_on channel=3 note=68 velocity=122 time=0
EXTRACT: control_change channel=4 control=11 value=78 time=0
EXTRACT: note_on channel=1 note=28 velocity=121 time=0.023980833333333333
EXTRACT: control_change channel=6 control=11 value=93 time=0
EXTRACT: note_on channel=9 note=82 velocity=65 time=0.014388499999999999
EXTRACT: note_on channel=9 note=46 velocity=63 time=0.007194249999999999
EXTRACT: control_change channel=7 control=11 value=95 time=0.014388499999999999
EXTRACT: control_change channel=6 control=11 value=98 time=0.019184666666666666
EXTRACT: control_change channel=7 control=11 value=100 time=0.011990416666666667
EXTRACT: note_on channel=9 note=82 velocity=0 time=0.0047961666666666665
EXTRACT: note_on channel=9 note=46 velocity=0 time=0.007194249999999999
EXTRACT: control_change channel=6 control=11 value=103 time=0.007194249999999999
EXTRACT: control_change channel=7 control=11 value=105 time=0.0047961666666666665
EXTRACT: control_change channel=6 control=11 value=109 time=0.019184666666666666
EXTRACT: control_change channel=7 control=11 value=111 time=0.0047961666666666665
EXTRACT: note_on channel=3 note=68 velocity=0 time=0.0047961666666666665
EXTRACT: note_on channel=3 note=56 velocity=0 time=0
EXTRACT: control_change channel=6 control=11 value=113 time=0.0047961666666666665
EXTRACT: control_change channel=7 control=11 value=117 time=0.0047961666666666665
EXTRACT: note_on channel=9 note=82 velocity=57 time=0.0023980833333333332
EXTRACT: note_on channel=9 note=42 velocity=111 time=0
EXTRACT: control_change channel=6 control=11 value=120 time=0.009592333333333333
EXTRACT: control_change channel=7 control=11 value=122 time=0.0047961666666666665
EXTRACT: control_change channel=6 control=11 value=120 time=0.016786583333333334
EXTRACT: note_on channel=9 note=39 velocity=50 time=0.007194249999999999
EXTRACT: note_on channel=9 note=42 velocity=0 time=0.019184666666666666
EXTRACT: note_on channel=9 note=82 velocity=0 time=0
EXTRACT: note_on channel=7 note=49 velocity=0 time=0.0023980833333333332
EXTRACT: note_on channel=6 note=61 velocity=0 time=0.021582749999999998
EXTRACT: note_on channel=3 note=56 velocity=85 time=0.0047961666666666665
EXTRACT: note_on channel=3 note=68 velocity=118 time=0
EXTRACT: note_on channel=1 note=28 velocity=0 time=0.007194249999999999
EXTRACT: note_on channel=9 note=39 velocity=0 time=0.0023980833333333332
EXTRACT: control_change channel=4 control=11 value=76 time=0.0047961666666666665
EXTRACT: note_on channel=11 note=39 velocity=127 time=0.011990416666666667
EXTRACT: note_on channel=9 note=40 velocity=54 time=0.0047961666666666665
EXTRACT: note_on channel=9 note=37 velocity=91 time=0
EXTRACT: note_on channel=9 note=28 velocity=68 time=0
EXTRACT: note_on channel=9 note=39 velocity=73 time=0
EXTRACT: note_on channel=9 note=82 velocity=71 time=0
EXTRACT: note_on channel=9 note=35 velocity=97 time=0
EXTRACT: note_on channel=9 note=28 velocity=0 time=0.0023980833333333332
EXTRACT: note_on channel=9 note=37 velocity=0 time=0
EXTRACT: note_on channel=11 note=39 velocity=0 time=0.023980833333333333
EXTRACT: note_on channel=9 note=39 velocity=55 time=0.0047961666666666665
EXTRACT: note_on channel=9 note=39 velocity=0 time=0.026378916666666665
EXTRACT: note_on channel=9 note=82 velocity=0 time=0
EXTRACT: note_on channel=9 note=40 velocity=0 time=0
EXTRACT: note_on channel=9 note=35 velocity=0 time=0
EXTRACT: note_on channel=9 note=39 velocity=0 time=0.031175083333333332
EXTRACT: note_on channel=3 note=68 velocity=0 time=0.031175083333333332
EXTRACT: note_on channel=3 note=56 velocity=0 time=0
EXTRACT: note_on channel=7 note=50 velocity=82 time=0.09592333333333333
EXTRACT: note_on channel=1 note=28 velocity=118 time=0.0023980833333333332
EXTRACT: note_on channel=6 note=62 velocity=81 time=0
EXTRACT: note_on channel=9 note=82 velocity=53 time=0.014388499999999999
EXTRACT: note_on channel=9 note=46 velocity=62 time=0.009592333333333333
EXTRACT: control_change channel=7 control=11 value=118 time=0.028776999999999997
EXTRACT: control_change channel=6 control=11 value=116 time=0.009592333333333333
EXTRACT: note_on channel=9 note=82 velocity=0 time=0.009592333333333333
EXTRACT: control_change channel=7 control=11 value=114 time=0.0047961666666666665
EXTRACT: note_on channel=9 note=46 velocity=0 time=0.0047961666666666665
EXTRACT: control_change channel=6 control=11 value=112 time=0.0047961666666666665
EXTRACT: control_change channel=7 control=11 value=109 time=0.014388499999999999
EXTRACT: control_change channel=6 control=11 value=107 time=0.009592333333333333
EXTRACT: control_change channel=7 control=11 value=104 time=0.0047961666666666665
EXTRACT: note_on channel=9 note=82 velocity=50 time=0.016786583333333334
EXTRACT: note_on channel=9 note=42 velocity=113 time=0
EXTRACT: control_change channel=6 control=11 value=101 time=0.0023980833333333332
EXTRACT: control_change channel=7 control=11 value=98 time=0.011990416666666667
EXTRACT: control_change channel=6 control=11 value=96 time=0.019184666666666666
EXTRACT: control_change channel=7 control=11 value=94 time=0.011990416666666667
EXTRACT: note_on channel=9 note=42 velocity=0 time=0.011990416666666667
EXTRACT: note_on channel=9 note=82 velocity=0 time=0
EXTRACT: control_change channel=6 control=11 value=92 time=0.014388499999999999
EXTRACT: note_on channel=7 note=50 velocity=0 time=0.019184666666666666
EXTRACT: note_on channel=1 note=28 velocity=0 time=0.0023980833333333332
EXTRACT: note_on channel=6 note=62 velocity=0 time=0
EXTRACT: control_change channel=7 control=11 value=120 time=0
EXTRACT: note_on channel=7 note=51 velocity=83 time=0.007194249999999999
EXTRACT: note_on channel=6 note=63 velocity=72 time=0.0023980833333333332
EXTRACT: note_on channel=4 note=64 velocity=0 time=0.0047961666666666665
EXTRACT: note_on channel=4 note=76 velocity=0 time=0
EXTRACT: note_on channel=4 note=68 velocity=0 time=0
EXTRACT: note_on channel=3 note=56 velocity=92 time=0.0023980833333333332
EXTRACT: note_on channel=3 note=68 velocity=127 time=0
EXTRACT: note_on channel=9 note=70 velocity=103 time=0
EXTRACT: note_on channel=4 note=63 velocity=104 time=0.0023980833333333332
EXTRACT: note_on channel=4 note=51 velocity=99 time=0
EXTRACT: note_on channel=4 note=68 velocity=108 time=0
EXTRACT: note_on channel=11 note=50 velocity=127 time=0
EXTRACT: note_on channel=5 note=80 velocity=0 time=0.0023980833333333332
EXTRACT: note_on channel=5 note=75 velocity=117 time=0.0023980833333333332
EXTRACT: note_on channel=9 note=35 velocity=97 time=0
EXTRACT: note_on channel=11 note=50 velocity=0 time=0.026378916666666665
EXTRACT: control_change channel=4 control=11 value=78 time=0.0047961666666666665
EXTRACT: control_change channel=5 control=11 value=59 time=0
EXTRACT: control_change channel=6 control=11 value=118 time=0.009592333333333333
EXTRACT: control_change channel=7 control=11 value=116 time=0.0047961666666666665
EXTRACT: note_on channel=9 note=70 velocity=0 time=0.0047961666666666665
EXTRACT: note_on channel=9 note=35 velocity=0 time=0.007194249999999999
EXTRACT: control_change channel=6 control=11 value=113 time=0.014388499999999999
EXTRACT: control_change channel=7 control=11 value=110 time=0.011990416666666667
EXTRACT: control_change channel=6 control=11 value=106 time=0.019184666666666666
EXTRACT: control_change channel=7 control=11 value=104 time=0.011990416666666667
EXTRACT: control_change channel=4 control=11 value=80 time=0.0023980833333333332
EXTRACT: control_change channel=6 control=11 value=102 time=0.016786583333333334
EXTRACT: control_change channel=7 control=11 value=100 time=0.011990416666666667
EXTRACT: control_change channel=6 control=11 value=98 time=0.019184666666666666
EXTRACT: control_change channel=5 control=11 value=57 time=0.014388499999999999
EXTRACT: control_change channel=7 control=11 value=96 time=0.021582749999999998
EXTRACT: note_on channel=7 note=51 velocity=0 time=0.007194249999999999
EXTRACT: note_on channel=6 note=63 velocity=0 time=0.0023980833333333332
EXTRACT: control_change channel=6 control=11 value=120 time=0
EXTRACT: note_on channel=7 note=51 velocity=74 time=0.007194249999999999
EXTRACT: note_on channel=1 note=27 velocity=126 time=0.0023980833333333332
EXTRACT: note_on channel=6 note=63 velocity=66 time=0
EXTRACT: note_on channel=9 note=70 velocity=77 time=0.0047961666666666665
EXTRACT: note_on channel=9 note=46 velocity=63 time=0.016786583333333334
EXTRACT: control_change channel=7 control=11 value=118 time=0.021582749999999998
EXTRACT: control_change channel=6 control=11 value=116 time=0.019184666666666666
EXTRACT: note_on channel=9 note=70 velocity=0 time=0
EXTRACT: control_change channel=7 control=11 value=113 time=0.011990416666666667
EXTRACT: note_on channel=9 note=46 velocity=0 time=0.0047961666666666665
EXTRACT: note_on channel=3 note=68 velocity=0 time=0.007194249999999999
EXTRACT: note_on channel=3 note=56 velocity=0 time=0
EXTRACT: control_change channel=6 control=11 value=111 time=0.007194249999999999
EXTRACT: control_change channel=7 control=11 value=109 time=0.0047961666666666665
EXTRACT: control_change channel=6 control=11 value=107 time=0.019184666666666666
EXTRACT: note_on channel=9 note=70 velocity=67 time=0.0047961666666666665
EXTRACT: control_change channel=7 control=11 value=104 time=0.007194249999999999
EXTRACT: note_on channel=9 note=42 velocity=113 time=0.0023980833333333332
EXTRACT: control_change channel=6 control=11 value=102 time=0.016786583333333334
EXTRACT: control_change channel=7 control=11 value=100 time=0.0047961666666666665
EXTRACT: control_change channel=6 control=11 value=98 time=0.016786583333333334
EXTRACT: control_change channel=7 control=11 value=96 time=0.007194249999999999
EXTRACT: note_on channel=9 note=70 velocity=0 time=0.0023980833333333332
EXTRACT: control_change channel=6 control=11 value=94 time=0.007194249999999999
EXTRACT: note_on channel=9 note=42 velocity=0 time=0.0023980833333333332
EXTRACT: control_change channel=7 control=11 value=92 time=0.0023980833333333332
EXTRACT: control_change channel=6 control=11 value=89 time=0.019184666666666666
EXTRACT: note_on channel=1 note=27 velocity=0 time=0.014388499999999999
EXTRACT: control_change channel=7 control=11 value=87 time=0.0047961666666666665
EXTRACT: note_on channel=9 note=70 velocity=107 time=0.009592333333333333
EXTRACT: note_on channel=11 note=50 velocity=127 time=0.0023980833333333332
EXTRACT: note_on channel=3 note=58 velocity=90 time=0.0047961666666666665
EXTRACT: note_on channel=3 note=70 velocity=124 time=0
EXTRACT: note_on channel=9 note=37 velocity=91 time=0
EXTRACT: note_on channel=9 note=28 velocity=68 time=0
EXTRACT: note_on channel=9 note=39 velocity=67 time=0
EXTRACT: note_on channel=9 note=35 velocity=97 time=0
EXTRACT: control_change channel=6 control=11 value=85 time=0.0023980833333333332
EXTRACT: note_on channel=9 note=28 velocity=0 time=0
EXTRACT: note_on channel=9 note=37 velocity=0 time=0
EXTRACT: note_on channel=9 note=40 velocity=67 time=0.0023980833333333332
EXTRACT: control_change channel=7 control=11 value=82 time=0.009592333333333333
EXTRACT: note_on channel=11 note=50 velocity=0 time=0.011990416666666667
EXTRACT: note_on channel=9 note=39 velocity=50 time=0.0047961666666666665
EXTRACT: control_change channel=6 control=11 value=79 time=0.0023980833333333332
EXTRACT: control_change channel=7 control=11 value=77 time=0.011990416666666667
EXTRACT: note_on channel=9 note=70 velocity=0 time=0.0047961666666666665
EXTRACT: note_on channel=9 note=39 velocity=0 time=0.007194249999999999
EXTRACT: note_on channel=9 note=35 velocity=0 time=0
EXTRACT: note_on channel=9 note=40 velocity=0 time=0.0047961666666666665
EXTRACT: control_change channel=6 control=11 value=75 time=0.0023980833333333332
EXTRACT: control_change channel=7 control=11 value=73 time=0.021582749999999998
EXTRACT: note_on channel=9 note=39 velocity=0 time=0.0023980833333333332
EXTRACT: control_change channel=4 control=11 value=78 time=0.014388499999999999
EXTRACT: control_change channel=6 control=11 value=71 time=0.016786583333333334
EXTRACT: control_change channel=7 control=11 value=69 time=0.019184666666666666
EXTRACT: control_change channel=6 control=11 value=67 time=0.019184666666666666
EXTRACT: note_on channel=3 note=70 velocity=0 time=0.019184666666666666
EXTRACT: note_on channel=3 note=58 velocity=0 time=0
EXTRACT: control_change channel=7 control=11 value=65 time=0.009592333333333333
EXTRACT: note_on channel=9 note=70 velocity=75 time=0.028776999999999997
EXTRACT: note_on channel=1 note=27 velocity=118 time=0.0047961666666666665
EXTRACT: control_change channel=6 control=11 value=63 time=0.016786583333333334
EXTRACT: note_on channel=9 note=46 velocity=63 time=0.0047961666666666665
EXTRACT: control_change channel=4 control=11 value=76 time=0.009592333333333333
EXTRACT: control_change channel=7 control=11 value=61 time=0.0047961666666666665
EXTRACT: note_on channel=9 note=70 velocity=0 time=0.016786583333333334
EXTRACT: note_on channel=9 note=46 velocity=0 time=0.026378916666666665
EXTRACT: control_change channel=6 control=11 value=59 time=0.007194249999999999
EXTRACT: note_on channel=9 note=70 velocity=67 time=0.03836933333333333
EXTRACT: control_change channel=7 control=11 value=57 time=0.0047961666666666665
EXTRACT: note_on channel=9 note=42 velocity=111 time=0.0023980833333333332
EXTRACT: note_on channel=9 note=70 velocity=0 time=0.050359749999999995
EXTRACT: note_on channel=9 note=42 velocity=0 time=0.007194249999999999
EXTRACT: note_on channel=1 note=27 velocity=0 time=0.035971249999999996
EXTRACT: note_on channel=3 note=58 velocity=92 time=0
EXTRACT: note_on channel=3 note=70 velocity=127 time=0
EXTRACT: note_on channel=9 note=70 velocity=105 time=0.014388499999999999
EXTRACT: note_on channel=5 note=75 velocity=0 time=0.007194249999999999
EXTRACT: note_on channel=5 note=77 velocity=119 time=0.0023980833333333332
EXTRACT: note_on channel=9 note=35 velocity=97 time=0
EXTRACT: control_change channel=5 control=11 value=59 time=0.021582749999999998
EXTRACT: note_on channel=9 note=70 velocity=0 time=0.026378916666666665
EXTRACT: note_on channel=9 note=35 velocity=0 time=0.009592333333333333
EXTRACT: control_change channel=6 control=11 value=55 time=0.06714633333333334
EXTRACT: control_change channel=5 control=11 value=57 time=0.06954441666666666
EXTRACT: note_on channel=1 note=27 velocity=121 time=0.023980833333333333
EXTRACT: note_on channel=9 note=70 velocity=76 time=0.007194249999999999
EXTRACT: note_on channel=9 note=46 velocity=62 time=0.016786583333333334
EXTRACT: note_on channel=9 note=70 velocity=0 time=0.04076741666666667
EXTRACT: note_on channel=9 note=46 velocity=0 time=0.016786583333333334
EXTRACT: note_on channel=9 note=70 velocity=67 time=0.043165499999999996
EXTRACT: note_on channel=9 note=42 velocity=111 time=0.007194249999999999
EXTRACT: note_on channel=9 note=70 velocity=0 time=0.050359749999999995
EXTRACT: note_on channel=9 note=42 velocity=0 time=0.007194249999999999
EXTRACT: note_on channel=1 note=27 velocity=0 time=0.035971249999999996
EXTRACT: note_on channel=9 note=70 velocity=107 time=0.016786583333333334
EXTRACT: note_on channel=9 note=40 velocity=56 time=0.007194249999999999
EXTRACT: note_on channel=9 note=37 velocity=91 time=0
EXTRACT: note_on channel=9 note=28 velocity=68 time=0
EXTRACT: note_on channel=9 note=39 velocity=72 time=0
EXTRACT: note_on channel=9 note=35 velocity=97 time=0
EXTRACT: note_on channel=9 note=28 velocity=0 time=0.0023980833333333332
EXTRACT: note_on channel=9 note=37 velocity=0 time=0
EXTRACT: control_change channel=7 control=11 value=57 time=0.011990416666666667
EXTRACT: note_on channel=3 note=70 velocity=0 time=0.011990416666666667
EXTRACT: note_on channel=3 note=58 velocity=0 time=0
EXTRACT: note_on channel=9 note=39 velocity=55 time=0.0047961666666666665
EXTRACT: note_on channel=9 note=70 velocity=0 time=0.019184666666666666
EXTRACT: note_on channel=9 note=35 velocity=0 time=0.007194249999999999
EXTRACT: note_on channel=9 note=40 velocity=0 time=0
EXTRACT: note_on channel=9 note=39 velocity=0 time=0
EXTRACT: control_change channel=4 control=11 value=78 time=0.011990416666666667
EXTRACT: control_change channel=5 control=11 value=59 time=0.016786583333333334
EXTRACT: note_on channel=9 note=39 velocity=0 time=0.0023980833333333332
EXTRACT: note_on channel=1 note=27 velocity=126 time=0.13189458333333332
EXTRACT: note_on channel=9 note=70 velocity=73 time=0.0047961666666666665
EXTRACT: note_on channel=9 note=46 velocity=63 time=0.016786583333333334
EXTRACT: note_on channel=3 note=56 velocity=89 time=0.007194249999999999
EXTRACT: note_on channel=3 note=68 velocity=122 time=0
EXTRACT: control_change channel=6 control=11 value=59 time=0.009592333333333333
EXTRACT: control_change channel=5 control=11 value=57 time=0.021582749999999998
EXTRACT: note_on channel=9 note=70 velocity=0 time=0.0023980833333333332
EXTRACT: note_on channel=9 note=46 velocity=0 time=0.016786583333333334
EXTRACT: control_change channel=4 control=11 value=76 time=0.0047961666666666665
EXTRACT: note_on channel=9 note=70 velocity=67 time=0.03836933333333333
EXTRACT: note_on channel=9 note=42 velocity=113 time=0.009592333333333333
EXTRACT: control_change channel=7 control=11 value=61 time=0.021582749999999998
EXTRACT: note_on channel=9 note=70 velocity=0 time=0.026378916666666665
EXTRACT: note_on channel=9 note=42 velocity=0 time=0.009592333333333333
EXTRACT: control_change channel=6 control=11 value=63 time=0.028776999999999997
EXTRACT: note_on channel=1 note=27 velocity=0 time=0.007194249999999999
EXTRACT: control_change channel=7 control=11 value=65 time=0.014388499999999999
EXTRACT: note_on channel=9 note=70 velocity=107 time=0
EXTRACT: note_on channel=4 note=68 velocity=0 time=0.0023980833333333332
EXTRACT: note_on channel=4 note=51 velocity=0 time=0
EXTRACT: note_on channel=4 note=63 velocity=0 time=0
EXTRACT: note_on channel=4 note=63 velocity=105 time=0.0023980833333333332
EXTRACT: note_on channel=4 note=67 velocity=107 time=0
EXTRACT: note_on channel=4 note=51 velocity=100 time=0
EXTRACT: note_on channel=5 note=77 velocity=0 time=0.0023980833333333332
EXTRACT: note_on channel=5 note=82 velocity=118 time=0
EXTRACT: note_on channel=9 note=35 velocity=97 time=0
EXTRACT: note_on channel=3 note=68 velocity=0 time=0.007194249999999999
EXTRACT: note_on channel=3 note=56 velocity=0 time=0
EXTRACT: control_change channel=4 control=11 value=78 time=0.009592333333333333
EXTRACT: note_on channel=9 note=70 velocity=0 time=0.03357316666666667
EXTRACT: note_on channel=9 note=35 velocity=0 time=0.007194249999999999
EXTRACT: control_change channel=5 control=11 value=59 time=0.014388499999999999
EXTRACT: control_change channel=6 control=11 value=67 time=0
EXTRACT: control_change channel=4 control=11 value=80 time=0.021582749999999998
EXTRACT: control_change channel=7 control=11 value=69 time=0
EXTRACT: control_change channel=6 control=11 value=71 time=0.047961666666666666
EXTRACT: control_change channel=7 control=11 value=73 time=0.014388499999999999
EXTRACT: control_change channel=4 control=11 value=82 time=0.023980833333333333
EXTRACT: control_change channel=5 control=11 value=61 time=0.031175083333333332
EXTRACT: note_on channel=1 note=27 velocity=118 time=0.009592333333333333
EXTRACT: note_on channel=9 note=70 velocity=77 time=0.007194249999999999
EXTRACT: note_on channel=3 note=58 velocity=90 time=0.007194249999999999
EXTRACT: note_on channel=3 note=70 velocity=124 time=0
EXTRACT: note_on channel=9 note=46 velocity=64 time=0.007194249999999999
EXTRACT: control_change channel=6 control=11 value=75 time=0.0023980833333333332
EXTRACT: control_change channel=7 control=11 value=77 time=0.011990416666666667
EXTRACT: note_on channel=9 note=70 velocity=0 time=0.028776999999999997
EXTRACT: note_on channel=9 note=46 velocity=0 time=0.014388499999999999
EXTRACT: control_change channel=6 control=11 value=79 time=0.014388499999999999
EXTRACT: note_on channel=3 note=70 velocity=0 time=0.021582749999999998
EXTRACT: note_on channel=3 note=58 velocity=0 time=0
EXTRACT: note_on channel=9 note=70 velocity=67 time=0.009592333333333333
EXTRACT: note_on channel=9 note=42 velocity=109 time=0.007194249999999999
EXTRACT: control_change channel=7 control=11 value=81 time=0.007194249999999999
EXTRACT: note_on channel=9 note=70 velocity=0 time=0.043165499999999996
EXTRACT: note_on channel=9 note=42 velocity=0 time=0.007194249999999999
EXTRACT: control_change channel=6 control=11 value=83 time=0.021582749999999998
EXTRACT: note_on channel=3 note=58 velocity=89 time=0.009592333333333333
EXTRACT: note_on channel=3 note=70 velocity=122 time=0
EXTRACT: note_on channel=1 note=27 velocity=0 time=0.0047961666666666665
EXTRACT: note_on channel=9 note=70 velocity=108 time=0.014388499999999999
EXTRACT: note_on channel=9 note=37 velocity=91 time=0.009592333333333333
EXTRACT: note_on channel=9 note=28 velocity=68 time=0
EXTRACT: note_on channel=9 note=39 velocity=67 time=0
EXTRACT: note_on channel=9 note=35 velocity=97 time=0
EXTRACT: note_on channel=9 note=28 velocity=0 time=0.0023980833333333332
EXTRACT: note_on channel=9 note=37 velocity=0 time=0
EXTRACT: note_on channel=9 note=40 velocity=63 time=0
EXTRACT: control_change channel=4 control=11 value=80 time=0.011990416666666667
EXTRACT: control_change channel=5 control=11 value=59 time=0
EXTRACT: note_on channel=9 note=39 velocity=50 time=0.016786583333333334
EXTRACT: note_on channel=9 note=70 velocity=0 time=0.016786583333333334
EXTRACT: control_change channel=7 control=11 value=85 time=0.0047961666666666665
EXTRACT: note_on channel=9 note=39 velocity=0 time=0.0047961666666666665
EXTRACT: note_on channel=9 note=35 velocity=0 time=0
EXTRACT: note_on channel=9 note=40 velocity=0 time=0.0023980833333333332
EXTRACT: note_on channel=9 note=39 velocity=0 time=0.028776999999999997
EXTRACT: control_change channel=4 control=11 value=78 time=0.043165499999999996
EXTRACT: note_on channel=3 note=70 velocity=0 time=0.057553999999999994
EXTRACT: note_on channel=3 note=58 velocity=0 time=0
EXTRACT: control_change channel=6 control=11 value=87 time=0.007194249999999999
EXTRACT: control_change channel=5 control=11 value=57 time=0.0047961666666666665
EXTRACT: note_on channel=9 note=70 velocity=75 time=0.011990416666666667
EXTRACT: note_on channel=1 note=27 velocity=121 time=0.0047961666666666665
EXTRACT: note_on channel=9 note=46 velocity=63 time=0.023980833333333333
EXTRACT: control_change channel=7 control=11 value=89 time=0.028776999999999997
EXTRACT: note_on channel=9 note=70 velocity=0 time=0
EXTRACT: control_change channel=4 control=11 value=76 time=0.0023980833333333332
EXTRACT: note_on channel=9 note=46 velocity=0 time=0.026378916666666665
EXTRACT: control_change channel=6 control=11 value=91 time=0.035971249999999996
EXTRACT: note_on channel=9 note=70 velocity=67 time=0.007194249999999999
EXTRACT: note_on channel=9 note=42 velocity=108 time=0.007194249999999999
EXTRACT: control_change channel=7 control=11 value=93 time=0.007194249999999999
EXTRACT: note_on channel=9 note=70 velocity=0 time=0.043165499999999996
EXTRACT: note_on channel=9 note=42 velocity=0 time=0.007194249999999999
EXTRACT: note_on channel=1 note=27 velocity=0 time=0.035971249999999996
EXTRACT: note_on channel=3 note=58 velocity=92 time=0
EXTRACT: note_on channel=3 note=70 velocity=127 time=0
EXTRACT: note_on channel=9 note=70 velocity=108 time=0.016786583333333334
EXTRACT: note_on channel=9 note=35 velocity=97 time=0.007194249999999999
EXTRACT: control_change channel=6 control=11 value=95 time=0.016786583333333334
EXTRACT: note_on channel=9 note=70 velocity=0 time=0.03357316666666667
EXTRACT: note_on channel=9 note=35 velocity=0 time=0.007194249999999999
EXTRACT: control_change channel=7 control=11 value=97 time=0.11990416666666666
EXTRACT: note_on channel=1 note=27 velocity=122 time=0.043165499999999996
EXTRACT: control_change channel=6 control=11 value=99 time=0.007194249999999999
EXTRACT: note_on channel=9 note=82 velocity=65 time=0.007194249999999999
EXTRACT: note_on channel=9 note=46 velocity=64 time=0.007194249999999999
EXTRACT: control_change channel=7 control=11 value=101 time=0.021582749999999998
EXTRACT: control_change channel=6 control=11 value=103 time=0.019184666666666666
EXTRACT: note_on channel=9 note=82 velocity=0 time=0.009592333333333333
EXTRACT: note_on channel=9 note=85 velocity=76 time=0
EXTRACT: control_change channel=7 control=11 value=105 time=0.0023980833333333332
EXTRACT: note_on channel=9 note=46 velocity=0 time=0.0047961666666666665
EXTRACT: control_change channel=6 control=11 value=107 time=0.014388499999999999
EXTRACT: control_change channel=7 control=11 value=109 time=0.0047961666666666665
EXTRACT: note_on channel=9 note=85 velocity=0 time=0.0047961666666666665
EXTRACT: control_change channel=6 control=11 value=112 time=0.014388499999999999
EXTRACT: control_change channel=7 control=11 value=114 time=0.0047961666666666665
EXTRACT: control_change channel=6 control=11 value=116 time=0.009592333333333333
EXTRACT: note_on channel=9 note=82 velocity=57 time=0
EXTRACT: note_on channel=9 note=42 velocity=108 time=0
EXTRACT: control_change channel=7 control=11 value=119 time=0.0047961666666666665
EXTRACT: note_on channel=9 note=85 velocity=77 time=0.014388499999999999
EXTRACT: control_change channel=6 control=11 value=121 time=0.0047961666666666665
EXTRACT: note_on channel=3 note=70 velocity=0 time=0.007194249999999999
EXTRACT: note_on channel=3 note=58 velocity=0 time=0
EXTRACT: note_on channel=9 note=39 velocity=50 time=0.007194249999999999
EXTRACT: note_on channel=9 note=85 velocity=0 time=0.011990416666666667
EXTRACT: note_on channel=9 note=82 velocity=0 time=0.007194249999999999
EXTRACT: note_on channel=9 note=42 velocity=0 time=0
EXTRACT: note_on channel=7 note=51 velocity=0 time=0.007194249999999999
EXTRACT: note_on channel=6 note=63 velocity=0 time=0.011990416666666667
EXTRACT: note_on channel=1 note=27 velocity=0 time=0.016786583333333334
EXTRACT: note_on channel=9 note=39 velocity=0 time=0.0023980833333333332
EXTRACT: note_on channel=9 note=40 velocity=54 time=0.019184666666666666
EXTRACT: note_on channel=9 note=37 velocity=91 time=0
EXTRACT: note_on channel=9 note=28 velocity=68 time=0
EXTRACT: note_on channel=9 note=39 velocity=73 time=0
EXTRACT: note_on channel=9 note=82 velocity=71 time=0
EXTRACT: note_on channel=9 note=85 velocity=81 time=0
EXTRACT: note_on channel=9 note=35 velocity=97 time=0
EXTRACT: note_on channel=9 note=28 velocity=0 time=0.0023980833333333332
EXTRACT: note_on channel=9 note=37 velocity=0 time=0
EXTRACT: control_change channel=4 control=11 value=78 time=0.021582749999999998
EXTRACT: note_on channel=9 note=85 velocity=0 time=0.007194249999999999
EXTRACT: note_on channel=9 note=39 velocity=55 time=0
EXTRACT: note_on channel=9 note=39 velocity=0 time=0.026378916666666665
EXTRACT: note_on channel=9 note=82 velocity=0 time=0
EXTRACT: note_on channel=9 note=40 velocity=0 time=0
EXTRACT: note_on channel=9 note=35 velocity=0 time=0
EXTRACT: note_on channel=9 note=39 velocity=0 time=0.031175083333333332
EXTRACT: note_on channel=7 note=50 velocity=82 time=0.1294965
EXTRACT: note_on channel=1 note=27 velocity=117 time=0.0023980833333333332
EXTRACT: note_on channel=6 note=62 velocity=72 time=0
EXTRACT: note_on channel=9 note=82 velocity=53 time=0.014388499999999999
EXTRACT: note_on channel=9 note=46 velocity=64 time=0.007194249999999999
EXTRACT: control_change channel=7 control=11 value=118 time=0.031175083333333332
EXTRACT: control_change channel=6 control=11 value=116 time=0.016786583333333334
EXTRACT: note_on channel=9 note=82 velocity=0 time=0.0023980833333333332
EXTRACT: note_on channel=9 note=46 velocity=0 time=0.007194249999999999
EXTRACT: control_change channel=7 control=11 value=114 time=0.0047961666666666665
EXTRACT: control_change channel=4 control=11 value=76 time=0.009592333333333333
EXTRACT: control_change channel=6 control=11 value=112 time=0.007194249999999999
EXTRACT: control_change channel=7 control=11 value=108 time=0.014388499999999999
EXTRACT: control_change channel=6 control=11 value=106 time=0.016786583333333334
EXTRACT: note_on channel=9 note=82 velocity=50 time=0
EXTRACT: note_on channel=9 note=42 velocity=109 time=0
EXTRACT: control_change channel=7 control=11 value=104 time=0.014388499999999999
EXTRACT: control_change channel=6 control=11 value=102 time=0.026378916666666665
EXTRACT: note_on channel=9 note=42 velocity=0 time=0.016786583333333334
EXTRACT: note_on channel=9 note=82 velocity=0 time=0
EXTRACT: control_change channel=7 control=11 value=100 time=0.0023980833333333332
EXTRACT: note_on channel=7 note=50 velocity=0 time=0.031175083333333332
EXTRACT: note_on channel=1 note=27 velocity=0 time=0.0023980833333333332
EXTRACT: note_on channel=6 note=62 velocity=0 time=0
EXTRACT: control_change channel=6 control=11 value=120 time=0
EXTRACT: note_on channel=7 note=51 velocity=82 time=0.007194249999999999
EXTRACT: note_on channel=6 note=63 velocity=72 time=0.0023980833333333332
EXTRACT: note_on channel=3 note=56 velocity=91 time=0.0047961666666666665
EXTRACT: note_on channel=9 note=70 velocity=105 time=0
EXTRACT: note_on channel=3 note=80 velocity=115 time=0.0047961666666666665
EXTRACT: note_on channel=3 note=68 velocity=91 time=0
EXTRACT: note_on channel=4 note=51 velocity=0 time=0
EXTRACT: note_on channel=4 note=67 velocity=0 time=0
EXTRACT: note_on channel=4 note=63 velocity=0 time=0
EXTRACT: note_on channel=4 note=51 velocity=95 time=0
EXTRACT: note_on channel=4 note=65 velocity=104 time=0
EXTRACT: note_on channel=4 note=63 velocity=103 time=0
EXTRACT: note_on channel=5 note=82 velocity=0 time=0.0023980833333333332
EXTRACT: note_on channel=5 note=77 velocity=119 time=0.0023980833333333332
EXTRACT: note_on channel=9 note=35 velocity=97 time=0
EXTRACT: control_change channel=4 control=11 value=78 time=0.021582749999999998
EXTRACT: control_change channel=5 control=11 value=59 time=0.009592333333333333
EXTRACT: control_change channel=7 control=11 value=117 time=0.007194249999999999
EXTRACT: control_change channel=6 control=11 value=115 time=0.009592333333333333
EXTRACT: note_on channel=9 note=70 velocity=0 time=0
EXTRACT: note_on channel=9 note=35 velocity=0 time=0.009592333333333333
EXTRACT: control_change channel=7 control=11 value=112 time=0.0023980833333333332
EXTRACT: control_change channel=6 control=11 value=110 time=0.011990416666666667
EXTRACT: control_change channel=7 control=11 value=106 time=0.011990416666666667
EXTRACT: control_change channel=4 control=11 value=80 time=0.016786583333333334
EXTRACT: control_change channel=6 control=11 value=100 time=0.0023980833333333332
EXTRACT: control_change channel=7 control=11 value=97 time=0.011990416666666667
EXTRACT: control_change channel=6 control=11 value=94 time=0.019184666666666666
EXTRACT: control_change channel=7 control=11 value=92 time=0.0047961666666666665
EXTRACT: control_change channel=6 control=11 value=90 time=0.016786583333333334
EXTRACT: control_change channel=7 control=11 value=88 time=0.014388499999999999
EXTRACT: control_change channel=5 control=11 value=57 time=0.009592333333333333
EXTRACT: note_on channel=3 note=56 velocity=0 time=0.0047961666666666665
EXTRACT: control_change channel=6 control=11 value=86 time=0.0023980833333333332
EXTRACT: note_on channel=3 note=68 velocity=0 time=0.0023980833333333332
EXTRACT: note_on channel=3 note=80 velocity=0 time=0
EXTRACT: note_on channel=7 note=51 velocity=0 time=0.019184666666666666
EXTRACT: control_change channel=7 control=11 value=120 time=0
EXTRACT: control_change channel=4 control=11 value=82 time=0.0023980833333333332
EXTRACT: note_on channel=6 note=63 velocity=0 time=0
EXTRACT: note_on channel=7 note=51 velocity=74 time=0.0047961666666666665
EXTRACT: note_on channel=6 note=63 velocity=66 time=0.0023980833333333332
EXTRACT: note_on channel=1 note=27 velocity=126 time=0.0023980833333333332
EXTRACT: note_on channel=9 note=70 velocity=77 time=0.0047961666666666665
EXTRACT: note_on channel=9 note=46 velocity=62 time=0.016786583333333334
EXTRACT: control_change channel=6 control=11 value=118 time=0.023980833333333333
EXTRACT: control_change channel=7 control=11 value=116 time=0.0047961666666666665
EXTRACT: note_on channel=9 note=70 velocity=0 time=0.011990416666666667
EXTRACT: control_change channel=6 control=11 value=114 time=0.007194249999999999
EXTRACT: control_change channel=7 control=11 value=112 time=0.0047961666666666665
EXTRACT: note_on channel=9 note=46 velocity=0 time=0.0047961666666666665
EXTRACT: control_change channel=6 control=11 value=110 time=0.0047961666666666665
EXTRACT: control_change channel=7 control=11 value=108 time=0.0047961666666666665
EXTRACT: control_change channel=6 control=11 value=106 time=0.019184666666666666
EXTRACT: control_change channel=7 control=11 value=104 time=0.0047961666666666665
EXTRACT: control_change channel=6 control=11 value=102 time=0.009592333333333333
EXTRACT: note_on channel=9 note=70 velocity=67 time=0
EXTRACT: note_on channel=9 note=42 velocity=113 time=0.007194249999999999
EXTRACT: control_change channel=7 control=11 value=99 time=0.007194249999999999
EXTRACT: control_change channel=6 control=11 value=97 time=0.009592333333333333
EXTRACT: control_change channel=7 control=11 value=95 time=0.014388499999999999
EXTRACT: control_change channel=6 control=11 value=92 time=0.009592333333333333
EXTRACT: control_change channel=7 control=11 value=90 time=0.0047961666666666665
EXTRACT: note_on channel=9 note=70 velocity=0 time=0.0047961666666666665
EXTRACT: control_change channel=6 control=11 value=88 time=0.007194249999999999
EXTRACT: note_on channel=9 note=42 velocity=0 time=0
EXTRACT: control_change channel=7 control=11 value=86 time=0.0047961666666666665
EXTRACT: control_change channel=6 control=11 value=84 time=0.009592333333333333
EXTRACT: control_change channel=7 control=11 value=82 time=0.0047961666666666665
EXTRACT: control_change channel=4 control=11 value=80 time=0.016786583333333334
EXTRACT: note_on channel=1 note=27 velocity=0 time=0.0023980833333333332
EXTRACT: control_change channel=6 control=11 value=80 time=0
EXTRACT: control_change channel=7 control=11 value=78 time=0.011990416666666667
EXTRACT: note_on channel=9 note=70 velocity=107 time=0.0023980833333333332
EXTRACT: note_on channel=9 note=37 velocity=91 time=0.007194249999999999
EXTRACT: note_on channel=9 note=28 velocity=68 time=0
EXTRACT: note_on channel=9 note=39 velocity=67 time=0
EXTRACT: note_on channel=9 note=35 velocity=97 time=0
EXTRACT: note_on channel=9 note=28 velocity=0 time=0.0023980833333333332
EXTRACT: note_on channel=9 note=37 velocity=0 time=0
EXTRACT: note_on channel=3 note=58 velocity=90 time=0.0023980833333333332
EXTRACT: note_on channel=9 note=40 velocity=67 time=0
EXTRACT: note_on channel=3 note=82 velocity=113 time=0.0023980833333333332
EXTRACT: note_on channel=3 note=70 velocity=90 time=0
EXTRACT: control_change channel=6 control=11 value=75 time=0.0023980833333333332
EXTRACT: control_change channel=7 control=11 value=72 time=0.011990416666666667
EXTRACT: note_on channel=9 note=39 velocity=50 time=0.009592333333333333
EXTRACT: control_change channel=6 control=11 value=70 time=0.0023980833333333332
EXTRACT: control_change channel=7 control=11 value=67 time=0.011990416666666667
EXTRACT: note_on channel=9 note=70 velocity=0 time=0.0047961666666666665
EXTRACT: note_on channel=9 note=39 velocity=0 time=0.007194249999999999
EXTRACT: note_on channel=9 note=35 velocity=0 time=0
EXTRACT: note_on channel=9 note=40 velocity=0 time=0.0047961666666666665
EXTRACT: control_change channel=6 control=11 value=65 time=0.0023980833333333332
EXTRACT: control_change channel=7 control=11 value=63 time=0.011990416666666667
EXTRACT: note_on channel=9 note=39 velocity=0 time=0.011990416666666667
EXTRACT: control_change channel=6 control=11 value=61 time=0.021582749999999998
EXTRACT: control_change channel=4 control=11 value=78 time=0.007194249999999999
EXTRACT: control_change channel=7 control=11 value=59 time=0.007194249999999999
EXTRACT: control_change channel=6 control=11 value=57 time=0.016786583333333334
EXTRACT: control_change channel=7 control=11 value=55 time=0.014388499999999999
EXTRACT: note_on channel=3 note=58 velocity=0 time=0.007194249999999999
EXTRACT: note_on channel=3 note=70 velocity=0 time=0.0023980833333333332
EXTRACT: note_on channel=3 note=82 velocity=0 time=0
EXTRACT: control_change channel=6 control=11 value=53 time=0.014388499999999999
EXTRACT: note_on channel=9 note=70 velocity=75 time=0.035971249999999996
EXTRACT: note_on channel=1 note=27 velocity=118 time=0.0047961666666666665
EXTRACT: control_change channel=7 control=11 value=51 time=0.0047961666666666665
EXTRACT: note_on channel=9 note=46 velocity=61 time=0.016786583333333334
EXTRACT: control_change channel=4 control=11 value=76 time=0.007194249999999999
EXTRACT: control_change channel=6 control=11 value=49 time=0.0023980833333333332
EXTRACT: control_change channel=7 control=11 value=47 time=0.011990416666666667
EXTRACT: note_on channel=9 note=70 velocity=0 time=0.009592333333333333
EXTRACT: note_on channel=9 note=85 velocity=78 time=0.019184666666666666
EXTRACT: note_on channel=9 note=46 velocity=0 time=0.007194249999999999
EXTRACT: control_change channel=6 control=11 value=45 time=0.007194249999999999
EXTRACT: note_on channel=9 note=85 velocity=0 time=0.016786583333333334
EXTRACT: note_on channel=9 note=70 velocity=67 time=0.019184666666666666
EXTRACT: control_change channel=7 control=11 value=43 time=0.007194249999999999
EXTRACT: note_on channel=9 note=42 velocity=113 time=0.0023980833333333332
EXTRACT: note_on channel=9 note=85 velocity=77 time=0.019184666666666666
EXTRACT: note_on channel=9 note=70 velocity=0 time=0.028776999999999997
EXTRACT: note_on channel=9 note=85 velocity=0 time=0.0023980833333333332
EXTRACT: note_on channel=9 note=42 velocity=0 time=0.007194249999999999
EXTRACT: note_on channel=1 note=27 velocity=0 time=0.035971249999999996
EXTRACT: note_on channel=3 note=58 velocity=91 time=0.014388499999999999
EXTRACT: note_on channel=9 note=70 velocity=105 time=0
EXTRACT: note_on channel=3 note=82 velocity=115 time=0.0047961666666666665
EXTRACT: note_on channel=3 note=70 velocity=91 time=0
EXTRACT: note_on channel=5 note=77 velocity=0 time=0.0023980833333333332
EXTRACT: note_on channel=5 note=82 velocity=126 time=0
EXTRACT: note_on channel=9 note=85 velocity=80 time=0
EXTRACT: note_on channel=9 note=35 velocity=97 time=0
EXTRACT: control_change channel=5 control=11 value=59 time=0.023980833333333333
EXTRACT: note_on channel=9 note=85 velocity=0 time=0.007194249999999999
EXTRACT: note_on channel=9 note=70 velocity=0 time=0.019184666666666666
EXTRACT: note_on channel=9 note=35 velocity=0 time=0.007194249999999999
EXTRACT: control_change channel=6 control=11 value=41 time=0.062350166666666665
EXTRACT: control_change channel=5 control=11 value=57 time=0.06954441666666666
EXTRACT: note_on channel=3 note=58 velocity=0 time=0.0023980833333333332
EXTRACT: note_on channel=3 note=70 velocity=0 time=0.0047961666666666665
EXTRACT: note_on channel=3 note=82 velocity=0 time=0
EXTRACT: note_on channel=1 note=27 velocity=121 time=0.023980833333333333
EXTRACT: note_on channel=9 note=70 velocity=76 time=0.007194249999999999
EXTRACT: note_on channel=9 note=46 velocity=61 time=0.014388499999999999
EXTRACT: note_on channel=9 note=70 velocity=0 time=0.043165499999999996
EXTRACT: note_on channel=9 note=46 velocity=0 time=0.014388499999999999
EXTRACT: note_on channel=9 note=70 velocity=67 time=0.04556358333333333
EXTRACT: note_on channel=9 note=42 velocity=113 time=0.007194249999999999
EXTRACT: note_on channel=9 note=70 velocity=0 time=0.050359749999999995
EXTRACT: note_on channel=9 note=42 velocity=0 time=0.007194249999999999
EXTRACT: note_on channel=3 note=58 velocity=89 time=0.028776999999999997
EXTRACT: note_on channel=3 note=82 velocity=111 time=0.0023980833333333332
EXTRACT: note_on channel=3 note=70 velocity=89 time=0
EXTRACT: note_on channel=1 note=27 velocity=0 time=0.0047961666666666665
EXTRACT: note_on channel=9 note=70 velocity=107 time=0.014388499999999999
EXTRACT: note_on channel=9 note=40 velocity=56 time=0.009592333333333333
EXTRACT: note_on channel=9 note=37 velocity=91 time=0
EXTRACT: note_on channel=9 note=28 velocity=68 time=0
EXTRACT: note_on channel=9 note=39 velocity=72 time=0
EXTRACT: note_on channel=9 note=35 velocity=97 time=0
EXTRACT: note_on channel=9 note=28 velocity=0 time=0.0023980833333333332
EXTRACT: note_on channel=9 note=37 velocity=0 time=0
EXTRACT: control_change channel=7 control=11 value=43 time=0.011990416666666667
EXTRACT: note_on channel=9 note=39 velocity=55 time=0.016786583333333334
EXTRACT: note_on channel=9 note=70 velocity=0 time=0.016786583333333334
EXTRACT: note_on channel=9 note=35 velocity=0 time=0.009592333333333333
EXTRACT: note_on channel=9 note=40 velocity=0 time=0
EXTRACT: note_on channel=9 note=39 velocity=0 time=0
EXTRACT: control_change channel=4 control=11 value=78 time=0.011990416666666667
EXTRACT: note_on channel=3 note=58 velocity=0 time=0.0023980833333333332
EXTRACT: note_on channel=3 note=70 velocity=0 time=0.0023980833333333332
EXTRACT: note_on channel=3 note=82 velocity=0 time=0
EXTRACT: note_on channel=9 note=39 velocity=0 time=0.014388499999999999
EXTRACT: control_change channel=5 control=11 value=59 time=0.011990416666666667
EXTRACT: note_on channel=1 note=27 velocity=122 time=0.11990416666666666
EXTRACT: note_on channel=3 note=56 velocity=89 time=0.0047961666666666665
EXTRACT: note_on channel=9 note=70 velocity=73 time=0
EXTRACT: note_on channel=3 note=80 velocity=111 time=0.0047961666666666665
EXTRACT: note_on channel=3 note=68 velocity=89 time=0
EXTRACT: note_on channel=9 note=46 velocity=61 time=0.011990416666666667
EXTRACT: control_change channel=5 control=11 value=57 time=0.007194249999999999
EXTRACT: control_change channel=6 control=11 value=45 time=0.009592333333333333
EXTRACT: control_change channel=7 control=11 value=47 time=0.011990416666666667
EXTRACT: note_on channel=9 note=70 velocity=0 time=0.011990416666666667
EXTRACT: note_on channel=9 note=46 velocity=0 time=0.016786583333333334
EXTRACT: control_change channel=4 control=11 value=76 time=0.011990416666666667
EXTRACT: note_on channel=9 note=70 velocity=67 time=0.031175083333333332
EXTRACT: note_on channel=9 note=42 velocity=111 time=0.007194249999999999
EXTRACT: control_change channel=6 control=11 value=49 time=0.03357316666666667
EXTRACT: note_on channel=9 note=70 velocity=0 time=0.016786583333333334
EXTRACT: note_on channel=9 note=42 velocity=0 time=0.007194249999999999
EXTRACT: control_change channel=0 control=10 value=0 time=0.014388499999999999
EXTRACT: note_on channel=0 note=121 velocity=127 time=0.0023980833333333332
EXTRACT: note_on channel=0 note=122 velocity=127 time=0.011990416666666667
EXTRACT: note_on channel=0 note=119 velocity=127 time=0
EXTRACT: control_change channel=7 control=11 value=51 time=0.007194249999999999
EXTRACT: note_on channel=1 note=27 velocity=0 time=0.0023980833333333332
EXTRACT: note_on channel=0 note=122 velocity=0 time=0.011990416666666667
EXTRACT: note_on channel=4 note=63 velocity=0 time=0.0047961666666666665
EXTRACT: note_on channel=4 note=65 velocity=0 time=0
EXTRACT: note_on channel=4 note=51 velocity=0 time=0
EXTRACT: note_on channel=4 note=67 velocity=107 time=0
EXTRACT: note_on channel=4 note=63 velocity=104 time=0
EXTRACT: note_on channel=4 note=51 velocity=99 time=0
EXTRACT: note_on channel=11 note=51 velocity=114 time=0
EXTRACT: note_on channel=5 note=82 velocity=0 time=0.0023980833333333332
EXTRACT: note_on channel=5 note=87 velocity=127 time=0.0023980833333333332
EXTRACT: note_on channel=3 note=56 velocity=0 time=0.009592333333333333
EXTRACT: note_on channel=3 note=68 velocity=0 time=0.0047961666666666665
EXTRACT: note_on channel=3 note=80 velocity=0 time=0
EXTRACT: control_change channel=0 control=10 value=1 time=0.009592333333333333
EXTRACT: note_on channel=0 note=117 velocity=127 time=0
EXTRACT: control_change channel=5 control=11 value=59 time=0
EXTRACT: control_change channel=6 control=11 value=53 time=0
EXTRACT: note_on channel=11 note=51 velocity=0 time=0.0023980833333333332
EXTRACT: control_change channel=4 control=11 value=78 time=0.011990416666666667
EXTRACT: control_change channel=0 control=10 value=3 time=0.009592333333333333
EXTRACT: control_change channel=7 control=11 value=55 time=0.021582749999999998
EXTRACT: note_on channel=0 note=121 velocity=0 time=0.0023980833333333332
EXTRACT: control_change channel=0 control=10 value=5 time=0.0023980833333333332
EXTRACT: note_on channel=0 note=116 velocity=127 time=0.011990416666666667
EXTRACT: control_change channel=6 control=11 value=57 time=0
EXTRACT: control_change channel=7 control=11 value=59 time=0.021582749999999998
EXTRACT: control_change channel=0 control=10 value=7 time=0.0023980833333333332
EXTRACT: note_on channel=0 note=119 velocity=0 time=0.009592333333333333
EXTRACT: note_on channel=0 note=114 velocity=127 time=0.009592333333333333
EXTRACT: control_change channel=4 control=11 value=80 time=0.0023980833333333332
EXTRACT: control_change channel=0 control=10 value=9 time=0.0047961666666666665
EXTRACT: control_change channel=6 control=11 value=61 time=0.011990416666666667
EXTRACT: note_on channel=0 note=117 velocity=0 time=0.019184666666666666
EXTRACT: note_on channel=0 note=112 velocity=127 time=0
EXTRACT: control_change channel=7 control=11 value=63 time=0.0023980833333333332
EXTRACT: control_change channel=0 control=10 value=11 time=0.0023980833333333332
EXTRACT: control_change channel=0 control=10 value=13 time=0.021582749999999998
EXTRACT: control_change channel=5 control=11 value=57 time=0
EXTRACT: note_on channel=3 note=58 velocity=89 time=0.011990416666666667
EXTRACT: note_on channel=3 note=82 velocity=111 time=0.0047961666666666665
EXTRACT: note_on channel=3 note=70 velocity=89 time=0
EXTRACT: note_on channel=0 note=116 velocity=0 time=0.009592333333333333
EXTRACT: control_change channel=0 control=10 value=15 time=0.0023980833333333332
EXTRACT: note_on channel=0 note=110 velocity=127 time=0.011990416666666667
EXTRACT: control_change channel=6 control=11 value=65 time=0.009592333333333333
EXTRACT: control_change channel=7 control=11 value=67 time=0.011990416666666667
EXTRACT: control_change channel=0 control=10 value=17 time=0.0023980833333333332
EXTRACT: control_change channel=6 control=11 value=69 time=0.016786583333333334
EXTRACT: control_change channel=0 control=10 value=19 time=0.0047961666666666665
EXTRACT: note_on channel=0 note=114 velocity=0 time=0.014388499999999999
EXTRACT: note_on channel=3 note=58 velocity=0 time=0.0047961666666666665
EXTRACT: note_on channel=0 note=109 velocity=127 time=0.0047961666666666665
EXTRACT: note_on channel=3 note=70 velocity=0 time=0
EXTRACT: note_on channel=3 note=82 velocity=0 time=0
EXTRACT: control_change channel=0 control=10 value=21 time=0.0047961666666666665
EXTRACT: control_change channel=0 control=10 value=23 time=0.03357316666666667
EXTRACT: control_change channel=7 control=11 value=71 time=0.007194249999999999
EXTRACT: note_on channel=0 note=112 velocity=0 time=0.019184666666666666
EXTRACT: control_change channel=6 control=11 value=73 time=0
EXTRACT: control_change channel=0 control=10 value=25 time=0.0023980833333333332
EXTRACT: note_on channel=0 note=107 velocity=127 time=0.0023980833333333332
EXTRACT: control_change channel=0 control=10 value=27 time=0.031175083333333332
EXTRACT: control_change channel=0 control=10 value=29 time=0.023980833333333333
EXTRACT: note_on channel=3 note=58 velocity=89 time=0
EXTRACT: control_change channel=7 control=11 value=75 time=0
EXTRACT: note_on channel=3 note=82 velocity=111 time=0.0047961666666666665
EXTRACT: note_on channel=3 note=70 velocity=89 time=0
EXTRACT: note_on channel=0 note=110 velocity=0 time=0.007194249999999999
EXTRACT: note_on channel=0 note=105 velocity=127 time=0.0047961666666666665
EXTRACT: control_change channel=0 control=10 value=31 time=0.011990416666666667
EXTRACT: note_on channel=11 note=46 velocity=114 time=0.0047961666666666665
EXTRACT: control_change channel=0 control=10 value=33 time=0.028776999999999997
EXTRACT: note_on channel=11 note=46 velocity=0 time=0.0023980833333333332
EXTRACT: note_on channel=0 note=109 velocity=0 time=0.011990416666666667
EXTRACT: note_on channel=0 note=104 velocity=127 time=0.0023980833333333332
EXTRACT: control_change channel=0 control=10 value=35 time=0.007194249999999999
EXTRACT: control_change channel=6 control=11 value=77 time=0
EXTRACT: control_change channel=0 control=10 value=37 time=0.026378916666666665
EXTRACT: control_change channel=4 control=11 value=78 time=0.0047961666666666665
EXTRACT: control_change channel=5 control=11 value=59 time=0.014388499999999999
EXTRACT: note_on channel=0 note=107 velocity=0 time=0.007194249999999999
EXTRACT: note_on channel=0 note=102 velocity=127 time=0.0023980833333333332
EXTRACT: control_change channel=0 control=10 value=39 time=0.007194249999999999
EXTRACT: control_change channel=0 control=10 value=41 time=0.026378916666666665
EXTRACT: note_on channel=0 note=105 velocity=0 time=0.028776999999999997
EXTRACT: note_on channel=0 note=100 velocity=127 time=0.0023980833333333332
EXTRACT: control_change channel=0 control=10 value=43 time=0.0047961666666666665
EXTRACT: note_on channel=3 note=58 velocity=0 time=0.0023980833333333332
EXTRACT: note_on channel=3 note=70 velocity=0 time=0.0047961666666666665
EXTRACT: note_on channel=3 note=82 velocity=0 time=0
EXTRACT: control_change channel=7 control=11 value=79 time=0.007194249999999999
EXTRACT: control_change channel=0 control=10 value=45 time=0.009592333333333333
EXTRACT: note_on channel=0 note=104 velocity=0 time=0.019184666666666666
EXTRACT: control_change channel=0 control=10 value=47 time=0.007194249999999999
EXTRACT: note_on channel=0 note=98 velocity=127 time=0
EXTRACT: control_change channel=4 control=11 value=76 time=0.019184666666666666
EXTRACT: control_change channel=0 control=10 value=49 time=0.016786583333333334
EXTRACT: control_change channel=6 control=11 value=81 time=0
EXTRACT: control_change channel=5 control=11 value=57 time=0.007194249999999999
EXTRACT: note_on channel=0 note=102 velocity=0 time=0.007194249999999999
EXTRACT: control_change channel=0 control=10 value=51 time=0.009592333333333333
EXTRACT: note_on channel=0 note=97 velocity=127 time=0
EXTRACT: control_change channel=0 control=10 value=53 time=0.03836933333333333
EXTRACT: note_on channel=0 note=100 velocity=0 time=0.0047961666666666665
EXTRACT: control_change channel=7 control=11 value=83 time=0.0023980833333333332
EXTRACT: control_change channel=0 control=10 value=55 time=0.016786583333333334
EXTRACT: control_change channel=6 control=11 value=85 time=0
EXTRACT: control_change channel=7 control=11 value=87 time=0.014388499999999999
EXTRACT: note_on channel=0 note=95 velocity=127 time=0.0047961666666666665
EXTRACT: control_change channel=0 control=10 value=57 time=0.007194249999999999
EXTRACT: note_on channel=0 note=98 velocity=0 time=0.009592333333333333
EXTRACT: control_change channel=0 control=10 value=59 time=0.026378916666666665
EXTRACT: note_on channel=0 note=94 velocity=127 time=0.019184666666666666
EXTRACT: control_change channel=0 control=10 value=61 time=0.0023980833333333332
EXTRACT: note_on channel=0 note=97 velocity=0 time=0.009592333333333333
EXTRACT: note_on channel=3 note=58 velocity=91 time=0
EXTRACT: note_on channel=3 note=82 velocity=115 time=0.0023980833333333332
EXTRACT: note_on channel=3 note=70 velocity=91 time=0
EXTRACT: note_on channel=0 note=94 velocity=0 time=0.007194249999999999
EXTRACT: control_change channel=0 control=10 value=63 time=0.009592333333333333
EXTRACT: note_on channel=0 note=93 velocity=127 time=0.007194249999999999
EXTRACT: note_on channel=11 note=51 velocity=114 time=0
EXTRACT: note_on channel=5 note=87 velocity=0 time=0.0023980833333333332
EXTRACT: note_on channel=0 note=91 velocity=127 time=0.009592333333333333
EXTRACT: note_on channel=0 note=95 velocity=0 time=0.0023980833333333332
EXTRACT: control_change channel=6 control=11 value=89 time=0
EXTRACT: control_change channel=0 control=10 value=64 time=0.0023980833333333332
EXTRACT: control_change channel=0 control=10 value=65 time=0.011990416666666667
EXTRACT: note_on channel=11 note=51 velocity=0 time=0.0023980833333333332
EXTRACT: control_change channel=0 control=10 value=67 time=0.019184666666666666
EXTRACT: note_on channel=0 note=89 velocity=127 time=0.016786583333333334
EXTRACT: control_change channel=0 control=10 value=69 time=0.023980833333333333
EXTRACT: control_change channel=0 control=10 value=71 time=0.021582749999999998
EXTRACT: note_on channel=0 note=93 velocity=0 time=0.0023980833333333332
EXTRACT: note_on channel=0 note=88 velocity=127 time=0.014388499999999999
EXTRACT: control_change channel=0 control=10 value=73 time=0.011990416666666667
EXTRACT: note_on channel=0 note=91 velocity=0 time=0.021582749999999998
EXTRACT: note_on channel=0 note=86 velocity=127 time=0.009592333333333333
EXTRACT: control_change channel=0 control=10 value=75 time=0.0023980833333333332
EXTRACT: control_change channel=7 control=11 value=91 time=0
EXTRACT: control_change channel=0 control=10 value=77 time=0.023980833333333333
EXTRACT: note_on channel=0 note=89 velocity=0 time=0.011990416666666667
EXTRACT: note_on channel=0 note=84 velocity=127 time=0
EXTRACT: control_change channel=6 control=11 value=93 time=0.0047961666666666665
EXTRACT: control_change channel=0 control=10 value=79 time=0.011990416666666667
EXTRACT: note_on channel=3 note=58 velocity=0 time=0.0023980833333333332
EXTRACT: control_change channel=7 control=11 value=95 time=0
EXTRACT: note_on channel=3 note=70 velocity=0 time=0.0023980833333333332
EXTRACT: note_on channel=3 note=82 velocity=0 time=0
EXTRACT: control_change channel=0 control=10 value=81 time=0.028776999999999997
EXTRACT: note_on channel=0 note=88 velocity=0 time=0.0023980833333333332
EXTRACT: control_change channel=6 control=11 value=97 time=0.007194249999999999
EXTRACT: control_change channel=7 control=11 value=99 time=0.0047961666666666665
EXTRACT: note_on channel=0 note=82 velocity=127 time=0.0023980833333333332
EXTRACT: control_change channel=0 control=10 value=83 time=0.007194249999999999
EXTRACT: note_on channel=9 note=85 velocity=76 time=0.011990416666666667
EXTRACT: control_change channel=6 control=11 value=101 time=0.0047961666666666665
EXTRACT: control_change channel=7 control=11 value=103 time=0.0047961666666666665
EXTRACT: control_change channel=6 control=11 value=105 time=0.011990416666666667
EXTRACT: control_change channel=0 control=10 value=85 time=0.0047961666666666665
EXTRACT: control_change channel=7 control=11 value=107 time=0
EXTRACT: note_on channel=9 note=85 velocity=0 time=0.0047961666666666665
EXTRACT: control_change channel=6 control=11 value=109 time=0.0047961666666666665
EXTRACT: note_on channel=0 note=86 velocity=0 time=0.0047961666666666665
EXTRACT: control_change channel=7 control=11 value=111 time=0
EXTRACT: control_change channel=0 control=10 value=87 time=0.009592333333333333
EXTRACT: note_on channel=0 note=81 velocity=127 time=0
EXTRACT: control_change channel=6 control=11 value=114 time=0.0023980833333333332
EXTRACT: control_change channel=7 control=11 value=117 time=0.0047961666666666665
EXTRACT: control_change channel=6 control=11 value=120 time=0.009592333333333333
EXTRACT: control_change channel=7 control=11 value=122 time=0.0047961666666666665
EXTRACT: control_change channel=0 control=10 value=89 time=0.0047961666666666665
EXTRACT: note_on channel=9 note=85 velocity=77 time=0
EXTRACT: control_change channel=6 control=11 value=120 time=0.014388499999999999
EXTRACT: note_on channel=9 note=85 velocity=0 time=0.016786583333333334
EXTRACT: control_change channel=0 control=10 value=91 time=0.0047961666666666665
EXTRACT: note_on channel=0 note=84 velocity=0 time=0.0023980833333333332
EXTRACT: note_on channel=7 note=51 velocity=0 time=0.0023980833333333332
EXTRACT: note_on channel=0 note=79 velocity=127 time=0.0023980833333333332
EXTRACT: control_change channel=0 control=10 value=93 time=0.016786583333333334
EXTRACT: note_on channel=6 note=63 velocity=0 time=0.0023980833333333332
EXTRACT: control_change channel=0 control=10 value=95 time=0.023980833333333333
EXTRACT: control_change channel=5 control=11 value=127 time=0
EXTRACT: note_on channel=5 note=68 velocity=108 time=0.0047961666666666665
EXTRACT: note_on channel=11 note=46 velocity=114 time=0.0023980833333333332
EXTRACT: note_on channel=9 note=85 velocity=81 time=0.0047961666666666665
EXTRACT: note_on channel=9 note=57 velocity=58 time=0
EXTRACT: pitchwheel channel=13 pitch=0 time=0
EXTRACT: control_change channel=13 control=11 value=96 time=0
EXTRACT: note_on channel=13 note=92 velocity=84 time=0
EXTRACT: note_on channel=0 note=82 velocity=0 time=0.011990416666666667
EXTRACT: note_on channel=0 note=77 velocity=127 time=0.0047961666666666665
EXTRACT: control_change channel=0 control=10 value=97 time=0.007194249999999999
EXTRACT: pitchwheel channel=13 pitch=64 time=0
EXTRACT: note_on channel=11 note=46 velocity=0 time=0.0023980833333333332
EXTRACT: note_on channel=9 note=85 velocity=0 time=0.0047961666666666665
EXTRACT: control_change channel=0 control=10 value=99 time=0.016786583333333334
EXTRACT: pitchwheel channel=13 pitch=128 time=0
EXTRACT: note_on channel=5 note=70 velocity=109 time=0.0023980833333333332
EXTRACT: note_on channel=9 note=57 velocity=0 time=0.007194249999999999
EXTRACT: note_on channel=5 note=68 velocity=0 time=0.0047961666666666665
EXTRACT: note_on channel=0 note=81 velocity=0 time=0.014388499999999999
EXTRACT: note_on channel=0 note=76 velocity=127 time=0.0023980833333333332
EXTRACT: control_change channel=0 control=10 value=101 time=0.007194249999999999
EXTRACT: control_change channel=0 control=10 value=103 time=0.023980833333333333
EXTRACT: note_on channel=5 note=72 velocity=107 time=0
EXTRACT: note_on channel=13 note=92 velocity=0 time=0.0047961666666666665
EXTRACT: note_on channel=13 note=91 velocity=72 time=0.0023980833333333332
EXTRACT: note_on channel=5 note=70 velocity=0 time=0.0023980833333333332
EXTRACT: control_change channel=0 control=10 value=105 time=0.016786583333333334
EXTRACT: note_on channel=0 note=79 velocity=0 time=0.0023980833333333332
EXTRACT: note_on channel=0 note=74 velocity=127 time=0.0023980833333333332
EXTRACT: pitchwheel channel=13 pitch=64 time=0
EXTRACT: pitchwheel channel=13 pitch=0 time=0.007194249999999999
EXTRACT: note_on channel=5 note=73 velocity=111 time=0.019184666666666666
EXTRACT: control_change channel=0 control=10 value=107 time=0.0047961666666666665
EXTRACT: note_on channel=13 note=91 velocity=0 time=0.0023980833333333332
EXTRACT: note_on channel=13 note=89 velocity=67 time=0
EXTRACT: note_on channel=5 note=72 velocity=0 time=0.0047961666666666665
EXTRACT: control_change channel=0 control=10 value=109 time=0.014388499999999999
EXTRACT: pitchwheel channel=13 pitch=-64 time=0.0047961666666666665
EXTRACT: note_on channel=0 note=77 velocity=0 time=0.0047961666666666665
EXTRACT: note_on channel=0 note=72 velocity=127 time=0.0023980833333333332
EXTRACT: pitchwheel channel=13 pitch=-128 time=0.009592333333333333
EXTRACT: control_change channel=7 control=11 value=124 time=0.0023980833333333332
EXTRACT: note_on channel=7 note=51 velocity=81 time=0
EXTRACT: note_on channel=6 note=63 velocity=69 time=0.0023980833333333332
EXTRACT: control_change channel=0 control=10 value=111 time=0.0023980833333333332
EXTRACT: note_on channel=5 note=75 velocity=108 time=0.0047961666666666665
EXTRACT: note_on channel=9 note=85 velocity=78 time=0.0023980833333333332
EXTRACT: note_on channel=13 note=89 velocity=0 time=0.0023980833333333332
EXTRACT: note_on channel=13 note=87 velocity=72 time=0.0023980833333333332
EXTRACT: note_on channel=5 note=73 velocity=0 time=0.0023980833333333332
EXTRACT: note_on channel=0 note=76 velocity=0 time=0.016786583333333334
EXTRACT: control_change channel=0 control=10 value=113 time=0.0047961666666666665
EXTRACT: note_on channel=0 note=70 velocity=127 time=0.0023980833333333332
EXTRACT: note_on channel=9 note=85 velocity=0 time=0
EXTRACT: pitchwheel channel=13 pitch=0 time=0.011990416666666667
EXTRACT: control_change channel=0 control=10 value=115 time=0.007194249999999999
EXTRACT: note_on channel=5 note=77 velocity=111 time=0.0047961666666666665
EXTRACT: note_on channel=13 note=85 velocity=91 time=0.007194249999999999
EXTRACT: note_on channel=5 note=75 velocity=0 time=0.0047961666666666665
EXTRACT: pitchwheel channel=13 pitch=128 time=0.011990416666666667
EXTRACT: note_on channel=0 note=74 velocity=0 time=0.0023980833333333332
EXTRACT: note_on channel=13 note=87 velocity=0 time=0
EXTRACT: control_change channel=0 control=10 value=117 time=0.009592333333333333
EXTRACT: note_on channel=0 note=69 velocity=127 time=0
EXTRACT: note_on channel=7 note=51 velocity=0 time=0.011990416666666667
EXTRACT: note_on channel=6 note=63 velocity=0 time=0.0023980833333333332
EXTRACT: control_change channel=6 control=11 value=120 time=0.0023980833333333332
EXTRACT: control_change channel=0 control=10 value=119 time=0.0047961666666666665
EXTRACT: note_on channel=5 note=79 velocity=113 time=0
EXTRACT: note_on channel=13 note=84 velocity=90 time=0.009592333333333333
EXTRACT: note_on channel=5 note=77 velocity=0 time=0.0023980833333333332
EXTRACT: note_on channel=0 note=72 velocity=0 time=0.009592333333333333
EXTRACT: note_on channel=13 note=85 velocity=0 time=0.0047961666666666665
EXTRACT: control_change channel=0 control=10 value=121 time=0.0023980833333333332
EXTRACT: pitchwheel channel=13 pitch=0 time=0.011990416666666667
EXTRACT: note_on channel=0 note=67 velocity=127 time=0.019184666666666666
EXTRACT: control_change channel=0 control=10 value=123 time=0.0023980833333333332
EXTRACT: note_on channel=13 note=82 velocity=83 time=0.0047961666666666665
EXTRACT: note_on channel=5 note=79 velocity=0 time=0.0023980833333333332
EXTRACT: note_on channel=0 note=70 velocity=0 time=0.007194249999999999
EXTRACT: pitchwheel channel=13 pitch=-64 time=0.007194249999999999
EXTRACT: control_change channel=0 control=10 value=125 time=0.0023980833333333332
EXTRACT: note_on channel=13 note=84 velocity=0 time=0.007194249999999999
EXTRACT: pitchwheel channel=13 pitch=-128 time=0.0047961666666666665
EXTRACT: control_change channel=7 control=11 value=120 time=0.009592333333333333
EXTRACT: note_on channel=7 note=44 velocity=67 time=0
EXTRACT: note_on channel=6 note=56 velocity=67 time=0.0023980833333333332
EXTRACT: control_change channel=0 control=10 value=127 time=0.0047961666666666665
EXTRACT: pitchwheel channel=13 pitch=-192 time=0
EXTRACT: note_on channel=4 note=51 velocity=0 time=0.0047961666666666665
EXTRACT: note_on channel=4 note=63 velocity=0 time=0
EXTRACT: note_on channel=4 note=67 velocity=0 time=0
EXTRACT: note_on channel=4 note=63 velocity=82 time=0.0023980833333333332
EXTRACT: note_on channel=4 note=68 velocity=85 time=0
EXTRACT: note_on channel=4 note=51 velocity=77 time=0
EXTRACT: note_on channel=4 note=60 velocity=81 time=0
EXTRACT: note_on channel=13 note=80 velocity=65 time=0
EXTRACT: control_change channel=4 control=11 value=78 time=0.0023980833333333332
EXTRACT: note_on channel=5 note=80 velocity=117 time=0
EXTRACT: note_on channel=9 note=35 velocity=97 time=0
EXTRACT: note_on channel=9 note=57 velocity=91 time=0
EXTRACT: note_on channel=0 note=66 velocity=127 time=0.0047961666666666665
EXTRACT: note_on channel=0 note=69 velocity=0 time=0.0047961666666666665
EXTRACT: note_on channel=13 note=82 velocity=0 time=0.0047961666666666665
EXTRACT: note_on channel=0 note=66 velocity=0 time=0.016786583333333334
EXTRACT: pitchwheel channel=13 pitch=-128 time=0.0047961666666666665
EXTRACT: control_change channel=4 control=11 value=107 time=0.0047961666666666665
EXTRACT: control_change channel=5 control=11 value=59 time=0
EXTRACT: control_change channel=6 control=11 value=118 time=0
EXTRACT: pitchwheel channel=13 pitch=-64 time=0.0023980833333333332
EXTRACT: control_change channel=7 control=11 value=116 time=0.0023980833333333332
EXTRACT: note_on channel=0 note=67 velocity=0 time=0.0047961666666666665
EXTRACT: pitchwheel channel=13 pitch=0 time=0.0023980833333333332
EXTRACT: note_on channel=9 note=57 velocity=0 time=0.0047961666666666665
EXTRACT: note_on channel=9 note=35 velocity=0 time=0
EXTRACT: control_change channel=6 control=11 value=113 time=0.014388499999999999
EXTRACT: control_change channel=7 control=11 value=110 time=0.014388499999999999
EXTRACT: control_change channel=6 control=11 value=106 time=0.016786583333333334
EXTRACT: control_change channel=7 control=11 value=104 time=0.014388499999999999
EXTRACT: control_change channel=5 control=11 value=61 time=0.016786583333333334
EXTRACT: control_change channel=6 control=11 value=102 time=0
EXTRACT: control_change channel=7 control=11 value=100 time=0.014388499999999999
EXTRACT: control_change channel=4 control=11 value=115 time=0.009592333333333333
EXTRACT: control_change channel=6 control=11 value=98 time=0.007194249999999999
EXTRACT: control_change channel=7 control=11 value=96 time=0.03836933333333333
EXTRACT: note_on channel=7 note=44 velocity=0 time=0.0047961666666666665
EXTRACT: note_on channel=6 note=56 velocity=0 time=0.0023980833333333332
EXTRACT: control_change channel=6 control=11 value=120 time=0.0023980833333333332
EXTRACT: note_on channel=7 note=44 velocity=61 time=0.0047961666666666665
EXTRACT: note_on channel=1 note=32 velocity=126 time=0.0023980833333333332
EXTRACT: note_on channel=6 note=56 velocity=60 time=0
EXTRACT: note_on channel=9 note=70 velocity=77 time=0.007194249999999999
EXTRACT: note_on channel=3 note=56 velocity=82 time=0
EXTRACT: note_on channel=3 note=68 velocity=113 time=0
EXTRACT: control_change channel=7 control=11 value=117 time=0
EXTRACT: note_on channel=9 note=46 velocity=61 time=0.007194249999999999
EXTRACT: control_change channel=6 control=11 value=115 time=0.0023980833333333332
EXTRACT: control_change channel=7 control=11 value=110 time=0.0047961666666666665
EXTRACT: control_change channel=6 control=11 value=105 time=0.009592333333333333
EXTRACT: note_on channel=13 note=80 velocity=0 time=0.0023980833333333332
EXTRACT: control_change channel=7 control=11 value=101 time=0.0047961666666666665
EXTRACT: control_change channel=6 control=11 value=98 time=0.009592333333333333
EXTRACT: control_change channel=7 control=11 value=95 time=0.0047961666666666665
EXTRACT: note_on channel=9 note=70 velocity=0 time=0.0047961666666666665
EXTRACT: control_change channel=6 control=11 value=92 time=0.0047961666666666665
EXTRACT: control_change channel=7 control=11 value=89 time=0.007194249999999999
EXTRACT: note_on channel=9 note=46 velocity=0 time=0.0023980833333333332
EXTRACT: control_change channel=6 control=11 value=85 time=0.007194249999999999
EXTRACT: control_change channel=7 control=11 value=82 time=0.0047961666666666665
EXTRACT: control_change channel=6 control=11 value=79 time=0.009592333333333333
EXTRACT: control_change channel=7 control=11 value=76 time=0.007194249999999999
EXTRACT: note_on channel=3 note=68 velocity=0 time=0.014388499999999999
EXTRACT: note_on channel=3 note=56 velocity=0 time=0
EXTRACT: control_change channel=6 control=11 value=73 time=0.0023980833333333332
EXTRACT: note_on channel=9 note=70 velocity=67 time=0
EXTRACT: control_change channel=7 control=11 value=71 time=0.0047961666666666665
EXTRACT: note_on channel=9 note=42 velocity=109 time=0.0023980833333333332
EXTRACT: control_change channel=6 control=11 value=68 time=0.009592333333333333
EXTRACT: control_change channel=7 control=11 value=66 time=0.011990416666666667
EXTRACT: control_change channel=7 control=11 value=64 time=0.016786583333333334
EXTRACT: control_change channel=6 control=11 value=64 time=0.0023980833333333332
EXTRACT: control_change channel=7 control=11 value=62 time=0.0047961666666666665
EXTRACT: note_on channel=9 note=70 velocity=0 time=0.0047961666666666665
EXTRACT: control_change channel=6 control=11 value=60 time=0.0047961666666666665
EXTRACT: note_on channel=9 note=42 velocity=0 time=0.0023980833333333332
EXTRACT: control_change channel=7 control=11 value=57 time=0.011990416666666667
EXTRACT: note_on channel=1 note=32 velocity=0 time=0.023980833333333333
EXTRACT: control_change channel=6 control=11 value=55 time=0.0023980833333333332
EXTRACT: note_on channel=9 note=70 velocity=108 time=0.014388499999999999
EXTRACT: note_on channel=3 note=56 velocity=83 time=0.0023980833333333332
EXTRACT: note_on channel=3 note=68 velocity=115 time=0
EXTRACT: note_on channel=9 note=37 velocity=91 time=0.0047961666666666665
EXTRACT: note_on channel=9 note=28 velocity=68 time=0
EXTRACT: note_on channel=9 note=39 velocity=67 time=0
EXTRACT: note_on channel=9 note=35 velocity=97 time=0
EXTRACT: note_on channel=9 note=28 velocity=0 time=0.0023980833333333332
EXTRACT: note_on channel=9 note=37 velocity=0 time=0
EXTRACT: note_on channel=9 note=40 velocity=64 time=0
EXTRACT: note_on channel=9 note=39 velocity=50 time=0.028776999999999997
EXTRACT: control_change channel=4 control=11 value=111 time=0.014388499999999999
EXTRACT: note_on channel=9 note=70 velocity=0 time=0.0047961666666666665
EXTRACT: note_on channel=9 note=39 velocity=0 time=0.007194249999999999
EXTRACT: note_on channel=9 note=35 velocity=0 time=0
EXTRACT: note_on channel=9 note=40 velocity=0 time=0.0023980833333333332
EXTRACT: control_change channel=7 control=11 value=53 time=0.009592333333333333
EXTRACT: control_change channel=5 control=11 value=59 time=0.007194249999999999
EXTRACT: note_on channel=9 note=39 velocity=0 time=0.011990416666666667
EXTRACT: note_on channel=3 note=68 velocity=0 time=0.014388499999999999
EXTRACT: note_on channel=3 note=56 velocity=0 time=0
EXTRACT: control_change channel=6 control=11 value=55 time=0.10071949999999999
EXTRACT: note_on channel=9 note=70 velocity=75 time=0.009592333333333333
EXTRACT: note_on channel=1 note=32 velocity=118 time=0.007194249999999999
EXTRACT: note_on channel=3 note=56 velocity=82 time=0.0023980833333333332
EXTRACT: note_on channel=3 note=68 velocity=113 time=0
EXTRACT: control_change channel=4 control=11 value=103 time=0.0023980833333333332
EXTRACT: control_change channel=7 control=11 value=57 time=0
EXTRACT: control_change channel=5 control=11 value=57 time=0.016786583333333334
EXTRACT: control_change channel=6 control=11 value=59 time=0
EXTRACT: note_on channel=9 note=46 velocity=59 time=0
EXTRACT: control_change channel=7 control=11 value=61 time=0.0047961666666666665
EXTRACT: note_on channel=9 note=70 velocity=0 time=0.023980833333333333
EXTRACT: control_change channel=6 control=11 value=63 time=0.011990416666666667
EXTRACT: note_on channel=9 note=46 velocity=0 time=0.016786583333333334
EXTRACT: control_change channel=7 control=11 value=65 time=0.0023980833333333332
EXTRACT: note_on channel=3 note=68 velocity=0 time=0.028776999999999997
EXTRACT: note_on channel=3 note=56 velocity=0 time=0
EXTRACT: note_on channel=9 note=70 velocity=67 time=0.011990416666666667
EXTRACT: note_on channel=9 note=42 velocity=108 time=0.007194249999999999
EXTRACT: control_change channel=6 control=11 value=67 time=0.0023980833333333332
EXTRACT: note_on channel=9 note=70 velocity=0 time=0.047961666666666666
EXTRACT: note_on channel=9 note=42 velocity=0 time=0.007194249999999999
EXTRACT: control_change channel=7 control=11 value=69 time=0.028776999999999997
EXTRACT: note_on channel=1 note=32 velocity=0 time=0.009592333333333333
EXTRACT: control_change channel=6 control=11 value=72 time=0
EXTRACT: note_on channel=9 note=70 velocity=108 time=0.014388499999999999
EXTRACT: note_on channel=9 note=35 velocity=97 time=0.007194249999999999
EXTRACT: note_on channel=3 note=60 velocity=81 time=0.007194249999999999
EXTRACT: note_on channel=3 note=72 velocity=112 time=0
EXTRACT: control_change channel=7 control=11 value=74 time=0.023980833333333333
EXTRACT: note_on channel=9 note=70 velocity=0 time=0.019184666666666666
EXTRACT: note_on channel=9 note=35 velocity=0 time=0.007194249999999999
EXTRACT: note_on channel=1 note=32 velocity=121 time=0.16306966666666667
EXTRACT: control_change channel=6 control=11 value=77 time=0.007194249999999999
EXTRACT: note_on channel=9 note=70 velocity=76 time=0
EXTRACT: note_on channel=9 note=46 velocity=61 time=0.014388499999999999
EXTRACT: note_on channel=9 note=70 velocity=0 time=0.043165499999999996
EXTRACT: note_on channel=9 note=46 velocity=0 time=0.014388499999999999
EXTRACT: control_change channel=7 control=11 value=80 time=0.019184666666666666
EXTRACT: note_on channel=9 note=70 velocity=67 time=0.023980833333333333
EXTRACT: note_on channel=9 note=42 velocity=108 time=0.009592333333333333
EXTRACT: note_on channel=3 note=72 velocity=0 time=0.016786583333333334
EXTRACT: note_on channel=3 note=60 velocity=0 time=0
EXTRACT: control_change channel=6 control=11 value=82 time=0.014388499999999999
EXTRACT: control_change channel=7 control=11 value=85 time=0.014388499999999999
EXTRACT: note_on channel=9 note=70 velocity=0 time=0.0023980833333333332
EXTRACT: note_on channel=9 note=42 velocity=0 time=0.009592333333333333
EXTRACT: control_change channel=6 control=11 value=87 time=0.021582749999999998
EXTRACT: control_change channel=7 control=11 value=89 time=0.0047961666666666665
EXTRACT: note_on channel=1 note=32 velocity=0 time=0.009592333333333333
EXTRACT: control_change channel=4 control=11 value=103 time=0
EXTRACT: control_change channel=6 control=11 value=91 time=0.007194249999999999
EXTRACT: note_on channel=9 note=70 velocity=107 time=0.007194249999999999
EXTRACT: note_on channel=9 note=40 velocity=54 time=0.007194249999999999
EXTRACT: note_on channel=9 note=37 velocity=91 time=0
EXTRACT: note_on channel=9 note=28 velocity=68 time=0
EXTRACT: note_on channel=9 note=39 velocity=72 time=0
EXTRACT: note_on channel=9 note=35 velocity=97 time=0
EXTRACT: note_on channel=9 note=28 velocity=0 time=0.0023980833333333332
EXTRACT: note_on channel=9 note=37 velocity=0 time=0
EXTRACT: note_on channel=3 note=63 velocity=81 time=0.0023980833333333332
EXTRACT: note_on channel=3 note=75 velocity=111 time=0
EXTRACT: control_change channel=7 control=11 value=94 time=0.009592333333333333
EXTRACT: note_on channel=9 note=39 velocity=55 time=0.016786583333333334
EXTRACT: control_change channel=6 control=11 value=97 time=0.0023980833333333332
EXTRACT: control_change channel=7 control=11 value=99 time=0.014388499999999999
EXTRACT: note_on channel=9 note=70 velocity=0 time=0.0023980833333333332
EXTRACT: note_on channel=9 note=35 velocity=0 time=0.007194249999999999
EXTRACT: note_on channel=9 note=40 velocity=0 time=0
EXTRACT: note_on channel=9 note=39 velocity=0 time=0
EXTRACT: control_change channel=6 control=11 value=101 time=0.007194249999999999
EXTRACT: control_change channel=7 control=11 value=104 time=0.014388499999999999
EXTRACT: note_on channel=9 note=39 velocity=0 time=0.009592333333333333
EXTRACT: control_change channel=6 control=11 value=107 time=0.014388499999999999
EXTRACT: control_change channel=7 control=11 value=109 time=0.014388499999999999
EXTRACT: control_change channel=6 control=11 value=111 time=0.009592333333333333
EXTRACT: control_change channel=7 control=11 value=113 time=0.0047961666666666665
EXTRACT: control_change channel=6 control=11 value=116 time=0.019184666666666666
EXTRACT: control_change channel=7 control=11 value=118 time=0.011990416666666667
EXTRACT: control_change channel=6 control=11 value=120 time=0.019184666666666666
EXTRACT: note_on channel=7 note=44 velocity=0 time=0.019184666666666666
EXTRACT: note_on channel=6 note=56 velocity=0 time=0.009592333333333333
EXTRACT: note_on channel=1 note=32 velocity=122 time=0.009592333333333333
EXTRACT: note_on channel=9 note=70 velocity=73 time=0.007194249999999999
EXTRACT: note_on channel=9 note=46 velocity=61 time=0.014388499999999999
EXTRACT: note_on channel=3 note=75 velocity=0 time=0.026378916666666665
EXTRACT: note_on channel=3 note=63 velocity=0 time=0
EXTRACT: note_on channel=9 note=70 velocity=0 time=0.016786583333333334
EXTRACT: note_on channel=9 note=46 velocity=0 time=0.014388499999999999
EXTRACT: note_on channel=9 note=70 velocity=67 time=0.04556358333333333
EXTRACT: note_on channel=9 note=42 velocity=109 time=0.007194249999999999
EXTRACT: note_on channel=9 note=70 velocity=0 time=0.050359749999999995
EXTRACT: note_on channel=9 note=42 velocity=0 time=0.007194249999999999
EXTRACT: note_on channel=1 note=32 velocity=0 time=0.035971249999999996
EXTRACT: note_on channel=7 note=48 velocity=69 time=0.007194249999999999
EXTRACT: note_on channel=6 note=60 velocity=67 time=0.0023980833333333332
EXTRACT: note_on channel=9 note=70 velocity=108 time=0.007194249999999999
EXTRACT: note_on channel=4 note=60 velocity=0 time=0.0023980833333333332
EXTRACT: note_on channel=4 note=63 velocity=0 time=0
EXTRACT: note_on channel=4 note=68 velocity=0 time=0
EXTRACT: note_on channel=4 note=51 velocity=0 time=0
EXTRACT: note_on channel=4 note=67 velocity=84 time=0
EXTRACT: note_on channel=4 note=60 velocity=81 time=0
EXTRACT: note_on channel=4 note=63 velocity=83 time=0
EXTRACT: note_on channel=4 note=48 velocity=75 time=0
EXTRACT: note_on channel=5 note=80 velocity=0 time=0.0023980833333333332
EXTRACT: control_change channel=7 control=11 value=117 time=0
EXTRACT: control_change channel=4 control=11 value=104 time=0.0023980833333333332
EXTRACT: note_on channel=5 note=79 velocity=118 time=0
EXTRACT: note_on channel=9 note=35 velocity=97 time=0
EXTRACT: control_change channel=6 control=11 value=113 time=0.009592333333333333
EXTRACT: note_on channel=3 note=67 velocity=83 time=0.0023980833333333332
EXTRACT: note_on channel=3 note=79 velocity=114 time=0
EXTRACT: control_change channel=7 control=11 value=108 time=0.0023980833333333332
EXTRACT: control_change channel=5 control=11 value=59 time=0.009592333333333333
EXTRACT: control_change channel=6 control=11 value=102 time=0
EXTRACT: control_change channel=7 control=11 value=97 time=0.0047961666666666665
EXTRACT: control_change channel=6 control=11 value=93 time=0.011990416666666667
EXTRACT: control_change channel=7 control=11 value=89 time=0.0047961666666666665
EXTRACT: note_on channel=9 note=70 velocity=0 time=0.0047961666666666665
EXTRACT: control_change channel=6 control=11 value=86 time=0.0047961666666666665
EXTRACT: note_on channel=9 note=35 velocity=0 time=0.0023980833333333332
EXTRACT: control_change channel=7 control=11 value=81 time=0.0023980833333333332
EXTRACT: control_change channel=6 control=11 value=77 time=0.011990416666666667
EXTRACT: control_change channel=7 control=11 value=73 time=0.0047961666666666665
EXTRACT: control_change channel=6 control=11 value=69 time=0.009592333333333333
EXTRACT: control_change channel=7 control=11 value=66 time=0.0047961666666666665
EXTRACT: control_change channel=4 control=11 value=112 time=0.009592333333333333
EXTRACT: control_change channel=6 control=11 value=62 time=0.009592333333333333
EXTRACT: control_change channel=7 control=11 value=60 time=0.0047961666666666665
EXTRACT: control_change channel=6 control=11 value=56 time=0.009592333333333333
EXTRACT: control_change channel=7 control=11 value=54 time=0.014388499999999999
EXTRACT: control_change channel=6 control=11 value=52 time=0.009592333333333333
EXTRACT: control_change channel=7 control=11 value=48 time=0.014388499999999999
EXTRACT: control_change channel=6 control=11 value=46 time=0.009592333333333333
EXTRACT: control_change channel=7 control=11 value=43 time=0.011990416666666667
EXTRACT: control_change channel=5 control=11 value=57 time=0.009592333333333333
EXTRACT: control_change channel=6 control=11 value=40 time=0.016786583333333334
EXTRACT: note_on channel=1 note=36 velocity=116 time=0.009592333333333333
EXTRACT: note_on channel=9 note=70 velocity=77 time=0.0047961666666666665
EXTRACT: note_on channel=9 note=46 velocity=61 time=0.016786583333333334
EXTRACT: note_on channel=9 note=70 velocity=0 time=0.04076741666666667
EXTRACT: note_on channel=9 note=46 velocity=0 time=0.016786583333333334
EXTRACT: control_change channel=7 control=11 value=38 time=0.0023980833333333332
EXTRACT: control_change channel=6 control=11 value=36 time=0.011990416666666667
EXTRACT: note_on channel=9 note=70 velocity=67 time=0.028776999999999997
EXTRACT: note_on channel=9 note=42 velocity=113 time=0.007194249999999999
EXTRACT: control_change channel=7 control=11 value=38 time=0.031175083333333332
EXTRACT: control_change channel=4 control=11 value=116 time=0.016786583333333334
EXTRACT: note_on channel=9 note=70 velocity=0 time=0.0023980833333333332
EXTRACT: note_on channel=9 note=42 velocity=0 time=0.007194249999999999
EXTRACT: note_on channel=3 note=79 velocity=0 time=0.0023980833333333332
EXTRACT: note_on channel=3 note=67 velocity=0 time=0
EXTRACT: control_change channel=6 control=11 value=40 time=0.028776999999999997
EXTRACT: note_on channel=1 note=36 velocity=0 time=0.007194249999999999
EXTRACT: control_change channel=7 control=11 value=42 time=0.011990416666666667
EXTRACT: note_on channel=9 note=70 velocity=103 time=0.0023980833333333332
EXTRACT: note_on channel=9 note=37 velocity=91 time=0.007194249999999999
EXTRACT: note_on channel=9 note=28 velocity=68 time=0
EXTRACT: note_on channel=9 note=39 velocity=67 time=0
EXTRACT: note_on channel=9 note=35 velocity=97 time=0
EXTRACT: control_change channel=6 control=11 value=44 time=0.0023980833333333332
EXTRACT: note_on channel=9 note=28 velocity=0 time=0
EXTRACT: note_on channel=9 note=37 velocity=0 time=0
EXTRACT: note_on channel=9 note=40 velocity=65 time=0.0023980833333333332
EXTRACT: note_on channel=3 note=70 velocity=81 time=0.007194249999999999
EXTRACT: note_on channel=3 note=82 velocity=111 time=0
EXTRACT: control_change channel=7 control=11 value=47 time=0.0023980833333333332
EXTRACT: note_on channel=9 note=39 velocity=50 time=0.016786583333333334
EXTRACT: control_change channel=6 control=11 value=50 time=0.016786583333333334
EXTRACT: note_on channel=9 note=70 velocity=0 time=0.0023980833333333332
EXTRACT: note_on channel=9 note=39 velocity=0 time=0.007194249999999999
EXTRACT: note_on channel=9 note=35 velocity=0 time=0
EXTRACT: note_on channel=9 note=40 velocity=0 time=0.0047961666666666665
EXTRACT: control_change channel=7 control=11 value=53 time=0.007194249999999999
EXTRACT: control_change channel=5 control=11 value=59 time=0.016786583333333334
EXTRACT: note_on channel=9 note=39 velocity=0 time=0.0023980833333333332
EXTRACT: control_change channel=6 control=11 value=55 time=0.028776999999999997
EXTRACT: control_change channel=4 control=11 value=108 time=0.007194249999999999
EXTRACT: note_on channel=3 note=82 velocity=0 time=0.06954441666666666
EXTRACT: note_on channel=3 note=70 velocity=0 time=0
EXTRACT: control_change channel=7 control=11 value=57 time=0.007194249999999999
EXTRACT: control_change channel=6 control=11 value=61 time=0.011990416666666667
EXTRACT: note_on channel=9 note=70 velocity=75 time=0.0023980833333333332
EXTRACT: note_on channel=1 note=36 velocity=115 time=0.0047961666666666665
EXTRACT: note_on channel=3 note=67 velocity=80 time=0.016786583333333334
EXTRACT: note_on channel=3 note=79 velocity=110 time=0
EXTRACT: note_on channel=9 note=46 velocity=62 time=0.0047961666666666665
EXTRACT: control_change channel=7 control=11 value=63 time=0.021582749999999998
EXTRACT: note_on channel=9 note=70 velocity=0 time=0.009592333333333333
EXTRACT: control_change channel=5 control=11 value=57 time=0.007194249999999999
EXTRACT: note_on channel=9 note=46 velocity=0 time=0.019184666666666666
EXTRACT: note_on channel=9 note=70 velocity=67 time=0.043165499999999996
EXTRACT: note_on channel=9 note=42 velocity=111 time=0.009592333333333333
EXTRACT: note_on channel=9 note=70 velocity=0 time=0.047961666666666666
EXTRACT: control_change channel=4 control=11 value=100 time=0.0047961666666666665
EXTRACT: note_on channel=9 note=42 velocity=0 time=0.0047961666666666665
EXTRACT: note_on channel=1 note=36 velocity=0 time=0.035971249999999996
EXTRACT: note_on channel=3 note=79 velocity=0 time=0.0047961666666666665
EXTRACT: note_on channel=3 note=67 velocity=0 time=0
EXTRACT: control_change channel=6 control=11 value=65 time=0.0023980833333333332
EXTRACT: note_on channel=9 note=70 velocity=103 time=0.007194249999999999
EXTRACT: note_on channel=5 note=79 velocity=0 time=0.007194249999999999
EXTRACT: note_on channel=5 note=82 velocity=120 time=0
EXTRACT: note_on channel=9 note=35 velocity=97 time=0
EXTRACT: control_change channel=5 control=11 value=59 time=0.023980833333333333
EXTRACT: note_on channel=9 note=70 velocity=0 time=0.026378916666666665
EXTRACT: control_change channel=7 control=11 value=68 time=0.0047961666666666665
EXTRACT: note_on channel=9 note=35 velocity=0 time=0.0023980833333333332
EXTRACT: control_change channel=6 control=11 value=70 time=0.031175083333333332
EXTRACT: control_change channel=7 control=11 value=72 time=0.05275783333333333
EXTRACT: control_change channel=6 control=11 value=75 time=0.016786583333333334
EXTRACT: control_change channel=7 control=11 value=77 time=0.014388499999999999
EXTRACT: control_change channel=5 control=11 value=57 time=0.023980833333333333
EXTRACT: control_change channel=6 control=11 value=80 time=0
EXTRACT: control_change channel=7 control=11 value=83 time=0.014388499999999999
EXTRACT: note_on channel=1 note=36 velocity=116 time=0.009592333333333333
EXTRACT: note_on channel=3 note=63 velocity=81 time=0.007194249999999999
EXTRACT: note_on channel=3 note=75 velocity=111 time=0
EXTRACT: control_change channel=6 control=11 value=85 time=0
EXTRACT: note_on channel=9 note=82 velocity=65 time=0.007194249999999999
EXTRACT: note_on channel=9 note=46 velocity=63 time=0.007194249999999999
EXTRACT: control_change channel=7 control=11 value=88 time=0.007194249999999999
EXTRACT: control_change channel=6 control=11 value=91 time=0.019184666666666666
EXTRACT: control_change channel=7 control=11 value=93 time=0.0047961666666666665
EXTRACT: control_change channel=6 control=11 value=95 time=0.016786583333333334
EXTRACT: note_on channel=9 note=82 velocity=0 time=0.0023980833333333332
EXTRACT: note_on channel=9 note=46 velocity=0 time=0.007194249999999999
EXTRACT: control_change channel=7 control=11 value=98 time=0.0047961666666666665
EXTRACT: control_change channel=6 control=11 value=100 time=0.009592333333333333
EXTRACT: control_change channel=7 control=11 value=102 time=0.014388499999999999
EXTRACT: control_change channel=6 control=11 value=104 time=0.009592333333333333
EXTRACT: control_change channel=7 control=11 value=107 time=0.014388499999999999
EXTRACT: note_on channel=9 note=82 velocity=57 time=0
EXTRACT: note_on channel=9 note=42 velocity=111 time=0
EXTRACT: control_change channel=6 control=11 value=109 time=0.009592333333333333
EXTRACT: control_change channel=7 control=11 value=111 time=0.0047961666666666665
EXTRACT: control_change channel=6 control=11 value=113 time=0.009592333333333333
EXTRACT: control_change channel=7 control=11 value=115 time=0.007194249999999999
EXTRACT: note_on channel=9 note=39 velocity=50 time=0.007194249999999999
EXTRACT: control_change channel=6 control=11 value=118 time=0.009592333333333333
EXTRACT: note_on channel=9 note=42 velocity=0 time=0.009592333333333333
EXTRACT: note_on channel=9 note=82 velocity=0 time=0
EXTRACT: control_change channel=7 control=11 value=120 time=0.0047961666666666665
EXTRACT: note_on channel=7 note=48 velocity=0 time=0.021582749999999998
EXTRACT: note_on channel=3 note=75 velocity=0 time=0.0047961666666666665
EXTRACT: note_on channel=3 note=63 velocity=0 time=0
EXTRACT: note_on channel=1 note=36 velocity=0 time=0.0047961666666666665
EXTRACT: note_on channel=6 note=60 velocity=0 time=0
EXTRACT: note_on channel=9 note=39 velocity=0 time=0.0023980833333333332
EXTRACT: note_on channel=3 note=70 velocity=80 time=0.014388499999999999
EXTRACT: note_on channel=3 note=82 velocity=110 time=0
EXTRACT: note_on channel=9 note=40 velocity=56 time=0.007194249999999999
EXTRACT: note_on channel=9 note=37 velocity=91 time=0
EXTRACT: note_on channel=9 note=28 velocity=68 time=0
EXTRACT: note_on channel=9 note=39 velocity=73 time=0
EXTRACT: note_on channel=9 note=82 velocity=71 time=0
EXTRACT: note_on channel=9 note=35 velocity=97 time=0
EXTRACT: note_on channel=9 note=28 velocity=0 time=0.0023980833333333332
EXTRACT: note_on channel=9 note=37 velocity=0 time=0
EXTRACT: note_on channel=9 note=39 velocity=55 time=0.028776999999999997
EXTRACT: note_on channel=9 note=39 velocity=0 time=0.026378916666666665
EXTRACT: note_on channel=9 note=82 velocity=0 time=0
EXTRACT: note_on channel=9 note=40 velocity=0 time=0
EXTRACT: note_on channel=9 note=35 velocity=0 time=0
EXTRACT: note_on channel=9 note=39 velocity=0 time=0.031175083333333332
EXTRACT: control_change channel=5 control=11 value=59 time=0.0047961666666666665
EXTRACT: note_on channel=3 note=82 velocity=0 time=0.08872908333333333
EXTRACT: note_on channel=3 note=70 velocity=0 time=0
EXTRACT: note_on channel=7 note=48 velocity=70 time=0.03357316666666667
EXTRACT: note_on channel=6 note=60 velocity=71 time=0.0023980833333333332
EXTRACT: note_on channel=1 note=36 velocity=113 time=0.0023980833333333332
EXTRACT: note_on channel=9 note=82 velocity=53 time=0.011990416666666667
EXTRACT: note_on channel=3 note=68 velocity=81 time=0.0047961666666666665
EXTRACT: note_on channel=3 note=80 velocity=111 time=0
EXTRACT: note_on channel=9 note=46 velocity=62 time=0.0047961666666666665
EXTRACT: control_change channel=4 control=11 value=104 time=0.007194249999999999
EXTRACT: control_change channel=5 control=11 value=57 time=0.016786583333333334
EXTRACT: control_change channel=6 control=11 value=117 time=0.007194249999999999
EXTRACT: control_change channel=7 control=11 value=114 time=0.007194249999999999
EXTRACT: note_on channel=9 note=82 velocity=0 time=0.009592333333333333
EXTRACT: control_change channel=6 control=11 value=112 time=0.007194249999999999
EXTRACT: note_on channel=9 note=46 velocity=0 time=0.0023980833333333332
EXTRACT: control_change channel=7 control=11 value=110 time=0.0023980833333333332
EXTRACT: control_change channel=6 control=11 value=108 time=0.011990416666666667
EXTRACT: control_change channel=7 control=11 value=105 time=0.0047961666666666665
EXTRACT: control_change channel=6 control=11 value=99 time=0.016786583333333334
EXTRACT: note_on channel=3 note=80 velocity=0 time=0.0023980833333333332
EXTRACT: note_on channel=3 note=68 velocity=0 time=0
EXTRACT: control_change channel=7 control=11 value=96 time=0.011990416666666667
EXTRACT: note_on channel=9 note=82 velocity=50 time=0
EXTRACT: note_on channel=9 note=42 velocity=113 time=0
EXTRACT: control_change channel=6 control=11 value=94 time=0.009592333333333333
EXTRACT: control_change channel=7 control=11 value=92 time=0.0047961666666666665
EXTRACT: control_change channel=6 control=11 value=90 time=0.019184666666666666
EXTRACT: control_change channel=7 control=11 value=88 time=0.0047961666666666665
EXTRACT: control_change channel=6 control=11 value=86 time=0.019184666666666666
EXTRACT: note_on channel=9 note=42 velocity=0 time=0
EXTRACT: note_on channel=9 note=82 velocity=0 time=0
EXTRACT: control_change channel=7 control=11 value=84 time=0.028776999999999997
EXTRACT: note_on channel=7 note=48 velocity=0 time=0.0047961666666666665
EXTRACT: note_on channel=6 note=60 velocity=0 time=0.0023980833333333332
EXTRACT: note_on channel=1 note=36 velocity=0 time=0.0023980833333333332
EXTRACT: control_change channel=6 control=11 value=120 time=0
EXTRACT: note_on channel=7 note=49 velocity=71 time=0.0047961666666666665
EXTRACT: note_on channel=6 note=61 velocity=71 time=0.0023980833333333332
EXTRACT: note_on channel=9 note=70 velocity=103 time=0.007194249999999999
EXTRACT: note_on channel=4 note=48 velocity=0 time=0.0023980833333333332
EXTRACT: note_on channel=4 note=67 velocity=0 time=0
EXTRACT: note_on channel=4 note=60 velocity=0 time=0
EXTRACT: note_on channel=4 note=63 velocity=0 time=0
EXTRACT: note_on channel=4 note=68 velocity=86 time=0.0023980833333333332
EXTRACT: note_on channel=4 note=61 velocity=82 time=0
EXTRACT: note_on channel=4 note=49 velocity=77 time=0
EXTRACT: note_on channel=4 note=65 velocity=85 time=0
EXTRACT: note_on channel=5 note=82 velocity=0 time=0
EXTRACT: note_on channel=5 note=80 velocity=114 time=0
EXTRACT: note_on channel=9 note=35 velocity=97 time=0.0023980833333333332
EXTRACT: control_change channel=4 control=11 value=109 time=0.03836933333333333
EXTRACT: control_change channel=7 control=11 value=117 time=0
EXTRACT: control_change channel=6 control=11 value=115 time=0.009592333333333333
EXTRACT: control_change channel=5 control=11 value=59 time=0.0023980833333333332
EXTRACT: note_on channel=9 note=70 velocity=0 time=0
EXTRACT: note_on channel=9 note=35 velocity=0 time=0.007194249999999999
EXTRACT: control_change channel=7 control=11 value=113 time=0.0047961666666666665
EXTRACT: control_change channel=6 control=11 value=111 time=0.009592333333333333
EXTRACT: control_change channel=7 control=11 value=109 time=0.0047961666666666665
EXTRACT: control_change channel=6 control=11 value=106 time=0.009592333333333333
EXTRACT: control_change channel=7 control=11 value=101 time=0.014388499999999999
EXTRACT: control_change channel=6 control=11 value=99 time=0.009592333333333333
EXTRACT: control_change channel=7 control=11 value=96 time=0.014388499999999999
EXTRACT: control_change channel=4 control=11 value=117 time=0.009592333333333333
EXTRACT: control_change channel=6 control=11 value=94 time=0
EXTRACT: control_change channel=7 control=11 value=92 time=0.014388499999999999
EXTRACT: control_change channel=6 control=11 value=90 time=0.016786583333333334
EXTRACT: control_change channel=5 control=11 value=61 time=0.0023980833333333332
EXTRACT: control_change channel=7 control=11 value=88 time=0.011990416666666667
EXTRACT: control_change channel=6 control=11 value=86 time=0.023980833333333333
EXTRACT: note_on channel=7 note=49 velocity=0 time=0.0047961666666666665
EXTRACT: note_on channel=6 note=61 velocity=0 time=0.0023980833333333332
EXTRACT: control_change channel=7 control=11 value=120 time=0
EXTRACT: note_on channel=7 note=49 velocity=68 time=0.007194249999999999
EXTRACT: note_on channel=1 note=25 velocity=123 time=0.0023980833333333332
EXTRACT: note_on channel=6 note=61 velocity=62 time=0
EXTRACT: note_on channel=9 note=70 velocity=77 time=0.007194249999999999
EXTRACT: control_change channel=6 control=11 value=118 time=0.007194249999999999
EXTRACT: control_change channel=7 control=11 value=115 time=0.007194249999999999
EXTRACT: note_on channel=9 note=46 velocity=61 time=0
EXTRACT: note_on channel=3 note=68 velocity=81 time=0.0047961666666666665
EXTRACT: note_on channel=3 note=80 velocity=111 time=0
EXTRACT: control_change channel=6 control=11 value=111 time=0.0047961666666666665
EXTRACT: control_change channel=7 control=11 value=107 time=0.0047961666666666665
EXTRACT: control_change channel=6 control=11 value=103 time=0.009592333333333333
EXTRACT: control_change channel=7 control=11 value=100 time=0.007194249999999999
EXTRACT: control_change channel=6 control=11 value=98 time=0.009592333333333333
EXTRACT: note_on channel=9 note=70 velocity=0 time=0.0023980833333333332
EXTRACT: control_change channel=7 control=11 value=95 time=0.0023980833333333332
EXTRACT: control_change channel=6 control=11 value=92 time=0.009592333333333333
EXTRACT: note_on channel=9 note=46 velocity=0 time=0.0023980833333333332
EXTRACT: control_change channel=7 control=11 value=89 time=0.0047961666666666665
EXTRACT: note_on channel=3 note=80 velocity=0 time=0.007194249999999999
EXTRACT: note_on channel=3 note=68 velocity=0 time=0
EXTRACT: control_change channel=6 control=11 value=86 time=0.0023980833333333332
EXTRACT: control_change channel=7 control=11 value=83 time=0.0047961666666666665
EXTRACT: control_change channel=6 control=11 value=81 time=0.009592333333333333
EXTRACT: control_change channel=7 control=11 value=78 time=0.014388499999999999
EXTRACT: note_on channel=9 note=70 velocity=67 time=0
EXTRACT: control_change channel=6 control=11 value=76 time=0.009592333333333333
EXTRACT: note_on channel=9 note=42 velocity=109 time=0
EXTRACT: control_change channel=7 control=11 value=74 time=0.0047961666666666665
EXTRACT: control_change channel=6 control=11 value=72 time=0.019184666666666666
EXTRACT: control_change channel=7 control=11 value=70 time=0.011990416666666667
EXTRACT: control_change channel=6 control=11 value=68 time=0.011990416666666667
EXTRACT: note_on channel=9 note=70 velocity=0 time=0
EXTRACT: control_change channel=7 control=11 value=66 time=0.0047961666666666665
EXTRACT: note_on channel=9 note=42 velocity=0 time=0.0047961666666666665
EXTRACT: control_change channel=7 control=11 value=64 time=0.009592333333333333
EXTRACT: control_change channel=6 control=11 value=64 time=0.0023980833333333332
EXTRACT: control_change channel=7 control=11 value=62 time=0.021582749999999998
EXTRACT: note_on channel=1 note=25 velocity=0 time=0.0023980833333333332
EXTRACT: control_change channel=4 control=11 value=117 time=0
EXTRACT: note_on channel=9 note=70 velocity=108 time=0.014388499999999999
EXTRACT: note_on channel=9 note=37 velocity=91 time=0.009592333333333333
EXTRACT: note_on channel=9 note=28 velocity=68 time=0
EXTRACT: note_on channel=9 note=39 velocity=67 time=0
EXTRACT: note_on channel=9 note=35 velocity=97 time=0
EXTRACT: note_on channel=9 note=28 velocity=0 time=0.0023980833333333332
EXTRACT: note_on channel=9 note=37 velocity=0 time=0
EXTRACT: note_on channel=9 note=40 velocity=64 time=0
EXTRACT: note_on channel=3 note=68 velocity=81 time=0.0047961666666666665
EXTRACT: note_on channel=3 note=80 velocity=111 time=0
EXTRACT: note_on channel=9 note=39 velocity=50 time=0.023980833333333333
EXTRACT: note_on channel=9 note=70 velocity=0 time=0.016786583333333334
EXTRACT: control_change channel=5 control=11 value=59 time=0.0023980833333333332
EXTRACT: note_on channel=9 note=39 velocity=0 time=0.007194249999999999
EXTRACT: note_on channel=9 note=35 velocity=0 time=0
EXTRACT: note_on channel=9 note=40 velocity=0 time=0.0023980833333333332
EXTRACT: control_change channel=6 control=11 value=60 time=0.009592333333333333
EXTRACT: note_on channel=9 note=39 velocity=0 time=0.019184666666666666
EXTRACT: note_on channel=3 note=80 velocity=0 time=0.0023980833333333332
EXTRACT: note_on channel=3 note=68 velocity=0 time=0
EXTRACT: control_change channel=4 control=11 value=109 time=0.04076741666666667
EXTRACT: control_change channel=7 control=11 value=62 time=0.07673866666666666
EXTRACT: note_on channel=9 note=70 velocity=75 time=0.0047961666666666665
EXTRACT: note_on channel=1 note=25 velocity=122 time=0.0047961666666666665
EXTRACT: control_change channel=5 control=11 value=57 time=0.0023980833333333332
EXTRACT: control_change channel=7 control=11 value=64 time=0.011990416666666667
EXTRACT: control_change channel=6 control=11 value=64 time=0.0023980833333333332
EXTRACT: note_on channel=9 note=46 velocity=59 time=0.0047961666666666665
EXTRACT: note_on channel=3 note=68 velocity=78 time=0.0047961666666666665
EXTRACT: note_on channel=3 note=80 velocity=107 time=0
EXTRACT: control_change channel=7 control=11 value=67 time=0.0023980833333333332
EXTRACT: note_on channel=9 note=70 velocity=0 time=0.023980833333333333
EXTRACT: control_change channel=6 control=11 value=69 time=0.009592333333333333
EXTRACT: note_on channel=3 note=80 velocity=0 time=0.016786583333333334
EXTRACT: note_on channel=3 note=68 velocity=0 time=0
EXTRACT: note_on channel=9 note=46 velocity=0 time=0
EXTRACT: control_change channel=7 control=11 value=71 time=0.0047961666666666665
EXTRACT: control_change channel=4 control=11 value=101 time=0.009592333333333333
EXTRACT: note_on channel=9 note=70 velocity=67 time=0.031175083333333332
EXTRACT: note_on channel=9 note=42 velocity=108 time=0.007194249999999999
EXTRACT: control_change channel=6 control=11 value=73 time=0.0023980833333333332
EXTRACT: note_on channel=9 note=70 velocity=0 time=0.047961666666666666
EXTRACT: note_on channel=9 note=42 velocity=0 time=0.007194249999999999
EXTRACT: note_on channel=1 note=25 velocity=0 time=0.035971249999999996
EXTRACT: control_change channel=7 control=11 value=76 time=0
EXTRACT: note_on channel=9 note=70 velocity=108 time=0.016786583333333334
EXTRACT: note_on channel=3 note=68 velocity=80 time=0.0023980833333333332
EXTRACT: note_on channel=3 note=80 velocity=110 time=0
EXTRACT: note_on channel=9 note=35 velocity=97 time=0.0047961666666666665
EXTRACT: control_change channel=6 control=11 value=78 time=0.031175083333333332
EXTRACT: note_on channel=9 note=70 velocity=0 time=0.019184666666666666
EXTRACT: note_on channel=9 note=35 velocity=0 time=0.007194249999999999
EXTRACT: note_on channel=3 note=80 velocity=0 time=0.06474825
EXTRACT: note_on channel=3 note=68 velocity=0 time=0
EXTRACT: note_on channel=1 note=25 velocity=120 time=0.09832141666666666
EXTRACT: note_on channel=3 note=68 velocity=78 time=0.0047961666666666665
EXTRACT: note_on channel=3 note=80 velocity=108 time=0
EXTRACT: control_change channel=7 control=11 value=81 time=0
EXTRACT: note_on channel=9 note=70 velocity=76 time=0
EXTRACT: note_on channel=9 note=46 velocity=61 time=0.016786583333333334
EXTRACT: note_on channel=9 note=70 velocity=0 time=0.04076741666666667
EXTRACT: control_change channel=6 control=11 value=83 time=0.014388499999999999
EXTRACT: note_on channel=9 note=46 velocity=0 time=0.0023980833333333332
EXTRACT: note_on channel=9 note=70 velocity=67 time=0.043165499999999996
EXTRACT: note_on channel=9 note=42 velocity=108 time=0.007194249999999999
EXTRACT: control_change channel=7 control=11 value=85 time=0.023980833333333333
EXTRACT: control_change channel=6 control=11 value=87 time=0.016786583333333334
EXTRACT: note_on channel=3 note=80 velocity=0 time=0.009592333333333333
EXTRACT: note_on channel=3 note=68 velocity=0 time=0
EXTRACT: note_on channel=9 note=70 velocity=0 time=0
EXTRACT: control_change channel=7 control=11 value=89 time=0.0047961666666666665
EXTRACT: note_on channel=9 note=42 velocity=0 time=0.0023980833333333332
EXTRACT: control_change channel=6 control=11 value=91 time=0.031175083333333332
EXTRACT: control_change channel=7 control=11 value=93 time=0.0047961666666666665
EXTRACT: note_on channel=1 note=25 velocity=0 time=0.0023980833333333332
EXTRACT: note_on channel=3 note=68 velocity=80 time=0.0023980833333333332
EXTRACT: note_on channel=3 note=80 velocity=110 time=0
EXTRACT: control_change channel=4 control=11 value=105 time=0.0047961666666666665
EXTRACT: control_change channel=6 control=11 value=95 time=0.007194249999999999
EXTRACT: note_on channel=9 note=70 velocity=107 time=0
EXTRACT: note_on channel=9 note=40 velocity=54 time=0.007194249999999999
EXTRACT: note_on channel=9 note=37 velocity=91 time=0
EXTRACT: note_on channel=9 note=28 velocity=68 time=0
EXTRACT: note_on channel=9 note=39 velocity=72 time=0
EXTRACT: note_on channel=9 note=35 velocity=97 time=0
EXTRACT: note_on channel=9 note=28 velocity=0 time=0.0023980833333333332
EXTRACT: note_on channel=9 note=37 velocity=0 time=0
EXTRACT: control_change channel=7 control=11 value=97 time=0.019184666666666666
EXTRACT: note_on channel=9 note=39 velocity=55 time=0.009592333333333333
EXTRACT: control_change channel=6 control=11 value=100 time=0.009592333333333333
EXTRACT: note_on channel=9 note=70 velocity=0 time=0.009592333333333333
EXTRACT: note_on channel=9 note=35 velocity=0 time=0.007194249999999999
EXTRACT: note_on channel=9 note=40 velocity=0 time=0
EXTRACT: note_on channel=9 note=39 velocity=0 time=0
EXTRACT: control_change channel=7 control=11 value=102 time=0.0047961666666666665
EXTRACT: control_change channel=6 control=11 value=104 time=0.009592333333333333
EXTRACT: control_change channel=7 control=11 value=106 time=0.014388499999999999
EXTRACT: note_on channel=9 note=39 velocity=0 time=0.0023980833333333332
EXTRACT: control_change channel=6 control=11 value=108 time=0.014388499999999999
EXTRACT: control_change channel=7 control=11 value=110 time=0.014388499999999999
EXTRACT: control_change channel=6 control=11 value=113 time=0.016786583333333334
EXTRACT: control_change channel=7 control=11 value=116 time=0.014388499999999999
EXTRACT: note_on channel=3 note=80 velocity=0 time=0.007194249999999999
EXTRACT: note_on channel=3 note=68 velocity=0 time=0
EXTRACT: control_change channel=6 control=11 value=118 time=0.009592333333333333
EXTRACT: control_change channel=7 control=11 value=120 time=0.014388499999999999
EXTRACT: note_on channel=7 note=49 velocity=0 time=0.026378916666666665
EXTRACT: note_on channel=3 note=68 velocity=76 time=0.0047961666666666665
EXTRACT: note_on channel=3 note=80 velocity=105 time=0
EXTRACT: note_on channel=6 note=61 velocity=0 time=0
EXTRACT: note_on channel=1 note=25 velocity=120 time=0.009592333333333333
EXTRACT: note_on channel=9 note=70 velocity=73 time=0.007194249999999999
EXTRACT: note_on channel=9 note=46 velocity=61 time=0.014388499999999999
EXTRACT: note_on channel=9 note=70 velocity=0 time=0.043165499999999996
EXTRACT: note_on channel=9 note=46 velocity=0 time=0.014388499999999999
EXTRACT: note_on channel=9 note=70 velocity=67 time=0.043165499999999996
EXTRACT: note_on channel=9 note=42 velocity=109 time=0.009592333333333333
EXTRACT: control_change channel=4 control=11 value=101 time=0.007194249999999999
EXTRACT: note_on channel=9 note=70 velocity=0 time=0.04076741666666667
EXTRACT: note_on channel=9 note=42 velocity=0 time=0.009592333333333333
EXTRACT: note_on channel=3 note=80 velocity=0 time=0.007194249999999999
EXTRACT: note_on channel=3 note=68 velocity=0 time=0
EXTRACT: note_on channel=1 note=25 velocity=0 time=0.028776999999999997
EXTRACT: note_on channel=7 note=51 velocity=69 time=0.007194249999999999
EXTRACT: note_on channel=6 note=63 velocity=70 time=0.0023980833333333332
EXTRACT: note_on channel=3 note=67 velocity=81 time=0.0047961666666666665
EXTRACT: note_on channel=3 note=79 velocity=112 time=0
EXTRACT: note_on channel=9 note=70 velocity=108 time=0
EXTRACT: note_on channel=4 note=65 velocity=0 time=0.0047961666666666665
EXTRACT: note_on channel=4 note=68 velocity=0 time=0
EXTRACT: note_on channel=4 note=61 velocity=0 time=0
EXTRACT: note_on channel=4 note=49 velocity=0 time=0
EXTRACT: note_on channel=4 note=70 velocity=86 time=0
EXTRACT: note_on channel=4 note=55 velocity=80 time=0
EXTRACT: note_on channel=4 note=67 velocity=84 time=0
EXTRACT: note_on channel=4 note=63 velocity=82 time=0
EXTRACT: note_on channel=5 note=79 velocity=114 time=0
EXTRACT: note_on channel=5 note=63 velocity=106 time=0
EXTRACT: note_on channel=11 note=51 velocity=127 time=0
EXTRACT: note_on channel=5 note=80 velocity=0 time=0.0023980833333333332
EXTRACT: control_change channel=6 control=11 value=117 time=0.0023980833333333332
EXTRACT: note_on channel=9 note=35 velocity=97 time=0
EXTRACT: control_change channel=7 control=11 value=114 time=0.0047961666666666665
EXTRACT: control_change channel=6 control=11 value=108 time=0.011990416666666667
EXTRACT: control_change channel=5 control=11 value=59 time=0.0047961666666666665
EXTRACT: control_change channel=7 control=11 value=103 time=0
EXTRACT: note_on channel=11 note=51 velocity=0 time=0.0047961666666666665
EXTRACT: control_change channel=6 control=11 value=98 time=0.0047961666666666665
EXTRACT: control_change channel=7 control=11 value=94 time=0.0047961666666666665
EXTRACT: control_change channel=6 control=11 value=91 time=0.011990416666666667
EXTRACT: note_on channel=9 note=70 velocity=0 time=0
EXTRACT: control_change channel=7 control=11 value=87 time=0.0047961666666666665
EXTRACT: note_on channel=9 note=35 velocity=0 time=0.0047961666666666665
EXTRACT: control_change channel=4 control=11 value=110 time=0.0047961666666666665
EXTRACT: control_change channel=5 control=11 value=61 time=0
EXTRACT: control_change channel=6 control=11 value=83 time=0
EXTRACT: control_change channel=7 control=11 value=79 time=0.0047961666666666665
EXTRACT: control_change channel=6 control=11 value=76 time=0.011990416666666667
EXTRACT: control_change channel=7 control=11 value=72 time=0.0047961666666666665
EXTRACT: control_change channel=6 control=11 value=69 time=0.009592333333333333
EXTRACT: control_change channel=7 control=11 value=67 time=0.0047961666666666665
EXTRACT: control_change channel=6 control=11 value=65 time=0.011990416666666667
EXTRACT: control_change channel=7 control=11 value=63 time=0.0047961666666666665
EXTRACT: control_change channel=5 control=11 value=59 time=0.009592333333333333
EXTRACT: control_change channel=6 control=11 value=60 time=0
EXTRACT: control_change channel=7 control=11 value=57 time=0.014388499999999999
EXTRACT: control_change channel=4 control=11 value=118 time=0.016786583333333334
EXTRACT: control_change channel=6 control=11 value=54 time=0
EXTRACT: control_change channel=7 control=11 value=52 time=0.0047961666666666665
EXTRACT: control_change channel=6 control=11 value=50 time=0.011990416666666667
EXTRACT: control_change channel=7 control=11 value=48 time=0.0047961666666666665
EXTRACT: control_change channel=5 control=11 value=57 time=0.009592333333333333
EXTRACT: control_change channel=6 control=11 value=46 time=0.007194249999999999
EXTRACT: control_change channel=7 control=11 value=44 time=0.014388499999999999
EXTRACT: note_on channel=1 note=27 velocity=124 time=0.009592333333333333
EXTRACT: note_on channel=9 note=70 velocity=77 time=0.007194249999999999
EXTRACT: note_on channel=9 note=46 velocity=61 time=0.014388499999999999
EXTRACT: note_on channel=9 note=70 velocity=0 time=0.043165499999999996
EXTRACT: note_on channel=9 note=46 velocity=0 time=0.014388499999999999
EXTRACT: control_change channel=6 control=11 value=42 time=0.007194249999999999
EXTRACT: note_on channel=9 note=70 velocity=67 time=0.03836933333333333
EXTRACT: note_on channel=9 note=42 velocity=113 time=0.007194249999999999
EXTRACT: note_on channel=9 note=70 velocity=0 time=0.050359749999999995
EXTRACT: note_on channel=9 note=42 velocity=0 time=0.007194249999999999
EXTRACT: note_on channel=3 note=79 velocity=0 time=0.014388499999999999
EXTRACT: note_on channel=3 note=67 velocity=0 time=0
EXTRACT: control_change channel=7 control=11 value=44 time=0.011990416666666667
EXTRACT: note_on channel=1 note=27 velocity=0 time=0.009592333333333333
EXTRACT: control_change channel=6 control=11 value=46 time=0.016786583333333334
EXTRACT: note_on channel=9 note=70 velocity=103 time=0
EXTRACT: note_on channel=5 note=63 velocity=0 time=0.0023980833333333332
EXTRACT: note_on channel=5 note=79 velocity=0 time=0
EXTRACT: note_on channel=5 note=80 velocity=115 time=0
EXTRACT: note_on channel=5 note=65 velocity=107 time=0
EXTRACT: note_on channel=11 note=46 velocity=127 time=0
EXTRACT: control_change channel=7 control=11 value=48 time=0.0023980833333333332
EXTRACT: note_on channel=9 note=37 velocity=91 time=0.0023980833333333332
EXTRACT: note_on channel=9 note=28 velocity=68 time=0
EXTRACT: note_on channel=9 note=39 velocity=67 time=0
EXTRACT: note_on channel=9 note=35 velocity=97 time=0
EXTRACT: note_on channel=3 note=68 velocity=81 time=0.0023980833333333332
EXTRACT: note_on channel=3 note=80 velocity=111 time=0
EXTRACT: note_on channel=9 note=28 velocity=0 time=0
EXTRACT: note_on channel=9 note=37 velocity=0 time=0
EXTRACT: note_on channel=9 note=40 velocity=65 time=0
EXTRACT: control_change channel=6 control=11 value=51 time=0.014388499999999999
EXTRACT: note_on channel=11 note=46 velocity=0 time=0.009592333333333333
EXTRACT: control_change channel=4 control=11 value=114 time=0.0047961666666666665
EXTRACT: note_on channel=9 note=39 velocity=50 time=0
EXTRACT: control_change channel=5 control=11 value=59 time=0.007194249999999999
EXTRACT: control_change channel=7 control=11 value=54 time=0.007194249999999999
EXTRACT: note_on channel=9 note=70 velocity=0 time=0.0047961666666666665
EXTRACT: note_on channel=9 note=39 velocity=0 time=0.007194249999999999
EXTRACT: note_on channel=9 note=35 velocity=0 time=0
EXTRACT: note_on channel=9 note=40 velocity=0 time=0.0023980833333333332
EXTRACT: control_change channel=6 control=11 value=56 time=0.011990416666666667
EXTRACT: note_on channel=9 note=39 velocity=0 time=0.016786583333333334
EXTRACT: control_change channel=7 control=11 value=58 time=0.026378916666666665
EXTRACT: control_change channel=4 control=11 value=106 time=0.055155916666666666
EXTRACT: control_change channel=5 control=11 value=57 time=0
EXTRACT: control_change channel=6 control=11 value=61 time=0.03357316666666667
EXTRACT: control_change channel=7 control=11 value=64 time=0.0047961666666666665
EXTRACT: control_change channel=6 control=11 value=64 time=0.0023980833333333332
EXTRACT: note_on channel=9 note=70 velocity=75 time=0.0023980833333333332
EXTRACT: note_on channel=1 note=27 velocity=118 time=0.007194249999999999
EXTRACT: note_on channel=9 note=46 velocity=62 time=0.021582749999999998
EXTRACT: control_change channel=6 control=11 value=66 time=0.023980833333333333
EXTRACT: note_on channel=9 note=70 velocity=0 time=0.0047961666666666665
EXTRACT: note_on channel=9 note=46 velocity=0 time=0.028776999999999997
EXTRACT: note_on channel=9 note=70 velocity=67 time=0.043165499999999996
EXTRACT: note_on channel=9 note=42 velocity=111 time=0.007194249999999999
EXTRACT: note_on channel=9 note=70 velocity=0 time=0.050359749999999995
EXTRACT: note_on channel=9 note=42 velocity=0 time=0.007194249999999999
EXTRACT: note_on channel=3 note=80 velocity=0 time=0.023980833333333333
EXTRACT: note_on channel=3 note=68 velocity=0 time=0
EXTRACT: note_on channel=1 note=27 velocity=0 time=0.014388499999999999
EXTRACT: control_change channel=7 control=11 value=68 time=0.0047961666666666665
EXTRACT: control_change channel=4 control=11 value=98 time=0.009592333333333333
EXTRACT: note_on channel=9 note=70 velocity=103 time=0
EXTRACT: note_on channel=5 note=65 velocity=0 time=0.0023980833333333332
EXTRACT: note_on channel=5 note=80 velocity=0 time=0
EXTRACT: note_on channel=11 note=51 velocity=127 time=0
EXTRACT: note_on channel=5 note=82 velocity=113 time=0.0023980833333333332
EXTRACT: note_on channel=5 note=67 velocity=107 time=0
EXTRACT: note_on channel=9 note=35 velocity=97 time=0.0023980833333333332
EXTRACT: note_on channel=3 note=70 velocity=82 time=0.019184666666666666
EXTRACT: note_on channel=3 note=82 velocity=113 time=0
EXTRACT: control_change channel=5 control=11 value=59 time=0.0047961666666666665
EXTRACT: note_on channel=11 note=51 velocity=0 time=0.0023980833333333332
EXTRACT: note_on channel=9 note=70 velocity=0 time=0.023980833333333333
EXTRACT: control_change channel=6 control=11 value=71 time=0.007194249999999999
EXTRACT: note_on channel=9 note=35 velocity=0 time=0
EXTRACT: control_change channel=5 control=11 value=61 time=0.0047961666666666665
EXTRACT: control_change channel=7 control=11 value=73 time=0.023980833333333333
EXTRACT: control_change channel=5 control=11 value=59 time=0.03836933333333333
EXTRACT: control_change channel=6 control=11 value=75 time=0.026378916666666665
EXTRACT: control_change channel=7 control=11 value=77 time=0.0047961666666666665
EXTRACT: control_change channel=6 control=11 value=79 time=0.009592333333333333
EXTRACT: control_change channel=5 control=11 value=57 time=0.021582749999999998
EXTRACT: control_change channel=7 control=11 value=82 time=0.007194249999999999
EXTRACT: control_change channel=6 control=11 value=85 time=0.019184666666666666
EXTRACT: note_on channel=1 note=27 velocity=121 time=0.007194249999999999
EXTRACT: control_change channel=7 control=11 value=87 time=0.0047961666666666665
EXTRACT: note_on channel=9 note=82 velocity=65 time=0.009592333333333333
EXTRACT: note_on channel=9 note=46 velocity=63 time=0.007194249999999999
EXTRACT: control_change channel=6 control=11 value=89 time=0.009592333333333333
EXTRACT: control_change channel=7 control=11 value=91 time=0.0047961666666666665
EXTRACT: control_change channel=6 control=11 value=93 time=0.009592333333333333
EXTRACT: control_change channel=7 control=11 value=95 time=0.014388499999999999
EXTRACT: note_on channel=9 note=82 velocity=0 time=0.011990416666666667
EXTRACT: control_change channel=6 control=11 value=98 time=0.0047961666666666665
EXTRACT: note_on channel=9 note=46 velocity=0 time=0.0023980833333333332
EXTRACT: control_change channel=7 control=11 value=101 time=0.011990416666666667
EXTRACT: control_change channel=6 control=11 value=103 time=0.016786583333333334
EXTRACT: control_change channel=7 control=11 value=106 time=0.014388499999999999
EXTRACT: control_change channel=6 control=11 value=108 time=0.009592333333333333
EXTRACT: note_on channel=9 note=82 velocity=57 time=0
EXTRACT: note_on channel=9 note=42 velocity=111 time=0
EXTRACT: control_change channel=7 control=11 value=111 time=0.014388499999999999
EXTRACT: control_change channel=6 control=11 value=113 time=0.009592333333333333
EXTRACT: control_change channel=7 control=11 value=115 time=0.0047961666666666665
EXTRACT: note_on channel=9 note=39 velocity=50 time=0.009592333333333333
EXTRACT: control_change channel=6 control=11 value=117 time=0.0023980833333333332
EXTRACT: control_change channel=7 control=11 value=119 time=0.011990416666666667
EXTRACT: note_on channel=9 note=42 velocity=0 time=0.0047961666666666665
EXTRACT: note_on channel=9 note=82 velocity=0 time=0
EXTRACT: note_on channel=3 note=82 velocity=0 time=0.009592333333333333
EXTRACT: note_on channel=3 note=70 velocity=0 time=0
EXTRACT: note_on channel=7 note=51 velocity=0 time=0.016786583333333334
EXTRACT: note_on channel=1 note=27 velocity=0 time=0.009592333333333333
EXTRACT: note_on channel=6 note=63 velocity=0 time=0
EXTRACT: note_on channel=9 note=39 velocity=0 time=0.0023980833333333332
EXTRACT: note_on channel=5 note=67 velocity=0 time=0.016786583333333334
EXTRACT: note_on channel=5 note=82 velocity=0 time=0
EXTRACT: note_on channel=5 note=84 velocity=115 time=0
EXTRACT: note_on channel=5 note=68 velocity=107 time=0
EXTRACT: note_on channel=11 note=46 velocity=127 time=0
EXTRACT: note_on channel=3 note=72 velocity=81 time=0.0047961666666666665
EXTRACT: note_on channel=3 note=84 velocity=111 time=0
EXTRACT: note_on channel=9 note=40 velocity=56 time=0
EXTRACT: note_on channel=9 note=37 velocity=91 time=0
EXTRACT: note_on channel=9 note=28 velocity=68 time=0
EXTRACT: note_on channel=9 note=39 velocity=73 time=0
EXTRACT: note_on channel=9 note=82 velocity=71 time=0
EXTRACT: note_on channel=9 note=35 velocity=97 time=0
EXTRACT: note_on channel=9 note=28 velocity=0 time=0.0023980833333333332
EXTRACT: note_on channel=9 note=37 velocity=0 time=0
EXTRACT: control_change channel=4 control=11 value=106 time=0.019184666666666666
EXTRACT: note_on channel=11 note=46 velocity=0 time=0.0047961666666666665
EXTRACT: control_change channel=5 control=11 value=59 time=0.0047961666666666665
EXTRACT: note_on channel=9 note=39 velocity=55 time=0
EXTRACT: note_on channel=9 note=39 velocity=0 time=0.026378916666666665
EXTRACT: note_on channel=9 note=82 velocity=0 time=0
EXTRACT: note_on channel=9 note=40 velocity=0 time=0
EXTRACT: note_on channel=9 note=35 velocity=0 time=0
EXTRACT: note_on channel=9 note=39 velocity=0 time=0.031175083333333332
EXTRACT: control_change channel=5 control=11 value=57 time=0.08872908333333333
EXTRACT: note_on channel=7 note=51 velocity=71 time=0.03836933333333333
EXTRACT: note_on channel=1 note=27 velocity=122 time=0.0023980833333333332
EXTRACT: note_on channel=6 note=63 velocity=72 time=0
EXTRACT: note_on channel=9 note=82 velocity=53 time=0.014388499999999999
EXTRACT: note_on channel=9 note=46 velocity=62 time=0.007194249999999999
EXTRACT: note_on channel=3 note=84 velocity=0 time=0.011990416666666667
EXTRACT: note_on channel=3 note=72 velocity=0 time=0
EXTRACT: control_change channel=6 control=11 value=116 time=0.028776999999999997
EXTRACT: note_on channel=9 note=82 velocity=0 time=0.009592333333333333
EXTRACT: control_change channel=7 control=11 value=114 time=0.0047961666666666665
EXTRACT: note_on channel=9 note=46 velocity=0 time=0.0023980833333333332
EXTRACT: control_change channel=6 control=11 value=112 time=0.007194249999999999
EXTRACT: control_change channel=7 control=11 value=109 time=0.014388499999999999
EXTRACT: control_change channel=6 control=11 value=107 time=0.009592333333333333
EXTRACT: control_change channel=7 control=11 value=104 time=0.0047961666666666665
EXTRACT: note_on channel=9 note=82 velocity=50 time=0.016786583333333334
EXTRACT: note_on channel=9 note=42 velocity=113 time=0
EXTRACT: control_change channel=6 control=11 value=101 time=0.0023980833333333332
EXTRACT: control_change channel=7 control=11 value=98 time=0.011990416666666667
EXTRACT: control_change channel=6 control=11 value=96 time=0.019184666666666666
EXTRACT: control_change channel=7 control=11 value=94 time=0.011990416666666667
EXTRACT: note_on channel=9 note=42 velocity=0 time=0.011990416666666667
EXTRACT: note_on channel=9 note=82 velocity=0 time=0
EXTRACT: control_change channel=6 control=11 value=92 time=0.014388499999999999
EXTRACT: note_on channel=7 note=51 velocity=0 time=0.019184666666666666
EXTRACT: note_on channel=1 note=27 velocity=0 time=0.0023980833333333332
EXTRACT: note_on channel=6 note=63 velocity=0 time=0
EXTRACT: control_change channel=7 control=11 value=120 time=0
EXTRACT: note_on channel=7 note=44 velocity=71 time=0.007194249999999999
EXTRACT: note_on channel=6 note=56 velocity=70 time=0.0023980833333333332
EXTRACT: note_on channel=9 note=70 velocity=103 time=0.007194249999999999
EXTRACT: note_on channel=4 note=63 velocity=0 time=0.0023980833333333332
EXTRACT: note_on channel=4 note=70 velocity=0 time=0
EXTRACT: note_on channel=4 note=55 velocity=0 time=0
EXTRACT: note_on channel=4 note=67 velocity=0 time=0
EXTRACT: note_on channel=4 note=68 velocity=85 time=0
EXTRACT: note_on channel=4 note=63 velocity=83 time=0
EXTRACT: note_on channel=4 note=51 velocity=78 time=0
EXTRACT: note_on channel=4 note=60 velocity=81 time=0
EXTRACT: note_on channel=5 note=68 velocity=0 time=0
EXTRACT: note_on channel=5 note=84 velocity=0 time=0
EXTRACT: note_on channel=11 note=44 velocity=127 time=0
EXTRACT: control_change channel=4 control=11 value=105 time=0.0047961666666666665
EXTRACT: note_on channel=5 note=80 velocity=121 time=0
EXTRACT: note_on channel=9 note=35 velocity=97 time=0
EXTRACT: note_on channel=11 note=44 velocity=0 time=0.026378916666666665
EXTRACT: control_change channel=6 control=11 value=118 time=0.014388499999999999
EXTRACT: control_change channel=7 control=11 value=116 time=0.0047961666666666665
EXTRACT: note_on channel=9 note=70 velocity=0 time=0.0047961666666666665
EXTRACT: note_on channel=9 note=35 velocity=0 time=0.007194249999999999
EXTRACT: control_change channel=5 control=11 value=59 time=0.011990416666666667
EXTRACT: control_change channel=6 control=11 value=113 time=0.0023980833333333332
EXTRACT: control_change channel=7 control=11 value=110 time=0.011990416666666667
EXTRACT: control_change channel=4 control=11 value=113 time=0.0023980833333333332
EXTRACT: control_change channel=6 control=11 value=106 time=0.016786583333333334
EXTRACT: control_change channel=7 control=11 value=104 time=0.011990416666666667
EXTRACT: control_change channel=6 control=11 value=102 time=0.019184666666666666
EXTRACT: control_change channel=7 control=11 value=100 time=0.011990416666666667
EXTRACT: control_change channel=6 control=11 value=98 time=0.019184666666666666
EXTRACT: control_change channel=4 control=11 value=121 time=0.028776999999999997
EXTRACT: control_change channel=7 control=11 value=96 time=0.007194249999999999
EXTRACT: note_on channel=7 note=44 velocity=0 time=0.007194249999999999
EXTRACT: control_change channel=5 control=11 value=61 time=0.0023980833333333332
EXTRACT: note_on channel=6 note=56 velocity=0 time=0
EXTRACT: control_change channel=6 control=11 value=120 time=0
EXTRACT: note_on channel=7 note=44 velocity=66 time=0.007194249999999999
EXTRACT: note_on channel=1 note=32 velocity=126 time=0.0023980833333333332
EXTRACT: note_on channel=6 note=56 velocity=62 time=0
EXTRACT: note_on channel=9 note=70 velocity=77 time=0.0047961666666666665
EXTRACT: control_change channel=7 control=11 value=117 time=0.007194249999999999
EXTRACT: note_on channel=3 note=56 velocity=80 time=0.0023980833333333332
EXTRACT: note_on channel=3 note=68 velocity=110 time=0
EXTRACT: control_change channel=6 control=11 value=114 time=0.007194249999999999
EXTRACT: note_on channel=9 note=46 velocity=61 time=0
EXTRACT: control_change channel=7 control=11 value=108 time=0.007194249999999999
EXTRACT: control_change channel=6 control=11 value=103 time=0.009592333333333333
EXTRACT: control_change channel=7 control=11 value=98 time=0.0047961666666666665
EXTRACT: control_change channel=6 control=11 value=94 time=0.009592333333333333
EXTRACT: note_on channel=3 note=68 velocity=0 time=0.007194249999999999
EXTRACT: note_on channel=3 note=56 velocity=0 time=0
EXTRACT: control_change channel=7 control=11 value=91 time=0
EXTRACT: note_on channel=9 note=70 velocity=0 time=0.0023980833333333332
EXTRACT: control_change channel=6 control=11 value=88 time=0.007194249999999999
EXTRACT: control_change channel=7 control=11 value=84 time=0.0047961666666666665
EXTRACT: note_on channel=9 note=46 velocity=0 time=0.0047961666666666665
EXTRACT: control_change channel=6 control=11 value=80 time=0.0047961666666666665
EXTRACT: control_change channel=7 control=11 value=76 time=0.007194249999999999
EXTRACT: control_change channel=6 control=11 value=73 time=0.009592333333333333
EXTRACT: control_change channel=7 control=11 value=70 time=0.0047961666666666665
EXTRACT: control_change channel=6 control=11 value=68 time=0.009592333333333333
EXTRACT: control_change channel=7 control=11 value=66 time=0.007194249999999999
EXTRACT: note_on channel=9 note=70 velocity=67 time=0
EXTRACT: note_on channel=9 note=42 velocity=109 time=0.007194249999999999
EXTRACT: control_change channel=6 control=11 value=63 time=0.0023980833333333332
EXTRACT: control_change channel=7 control=11 value=60 time=0.0047961666666666665
EXTRACT: control_change channel=6 control=11 value=58 time=0.019184666666666666
EXTRACT: control_change channel=7 control=11 value=55 time=0.011990416666666667
EXTRACT: control_change channel=6 control=11 value=53 time=0.009592333333333333
EXTRACT: note_on channel=9 note=70 velocity=0 time=0.0023980833333333332
EXTRACT: control_change channel=7 control=11 value=51 time=0.0047961666666666665
EXTRACT: note_on channel=9 note=42 velocity=0 time=0.0023980833333333332
EXTRACT: control_change channel=6 control=11 value=49 time=0.007194249999999999
EXTRACT: control_change channel=7 control=11 value=47 time=0.011990416666666667
EXTRACT: note_on channel=1 note=32 velocity=0 time=0.019184666666666666
EXTRACT: control_change channel=6 control=11 value=45 time=0
EXTRACT: note_on channel=9 note=70 velocity=108 time=0.014388499999999999
EXTRACT: note_on channel=11 note=44 velocity=127 time=0.0023980833333333332
EXTRACT: note_on channel=9 note=37 velocity=91 time=0.0047961666666666665
EXTRACT: note_on channel=9 note=28 velocity=68 time=0
EXTRACT: note_on channel=9 note=39 velocity=67 time=0
EXTRACT: note_on channel=9 note=35 velocity=97 time=0
EXTRACT: note_on channel=9 note=28 velocity=0 time=0.0023980833333333332
EXTRACT: note_on channel=9 note=37 velocity=0 time=0
EXTRACT: note_on channel=9 note=40 velocity=64 time=0.0023980833333333332
EXTRACT: note_on channel=3 note=56 velocity=82 time=0.0023980833333333332
EXTRACT: note_on channel=3 note=68 velocity=113 time=0
EXTRACT: control_change channel=5 control=11 value=59 time=0.009592333333333333
EXTRACT: note_on channel=11 note=44 velocity=0 time=0.009592333333333333
EXTRACT: note_on channel=9 note=39 velocity=50 time=0.0047961666666666665
EXTRACT: note_on channel=9 note=70 velocity=0 time=0.019184666666666666
EXTRACT: note_on channel=9 note=39 velocity=0 time=0.007194249999999999
EXTRACT: note_on channel=9 note=35 velocity=0 time=0
EXTRACT: note_on channel=9 note=40 velocity=0 time=0.0047961666666666665
EXTRACT: control_change channel=7 control=11 value=43 time=0.007194249999999999
EXTRACT: control_change channel=4 control=11 value=113 time=0.0023980833333333332
EXTRACT: note_on channel=9 note=39 velocity=0 time=0.016786583333333334
EXTRACT: control_change channel=4 control=11 value=105 time=0.11510799999999999
EXTRACT: control_change channel=5 control=11 value=57 time=0
EXTRACT: control_change channel=6 control=11 value=45 time=0
EXTRACT: note_on channel=9 note=70 velocity=75 time=0.011990416666666667
EXTRACT: note_on channel=1 note=32 velocity=118 time=0.0047961666666666665
EXTRACT: control_change channel=7 control=11 value=47 time=0.0047961666666666665
EXTRACT: note_on channel=9 note=46 velocity=59 time=0.016786583333333334
EXTRACT: control_change channel=6 control=11 value=50 time=0.0023980833333333332
EXTRACT: control_change channel=7 control=11 value=52 time=0.019184666666666666
EXTRACT: note_on channel=9 note=70 velocity=0 time=0.009592333333333333
EXTRACT: note_on channel=3 note=68 velocity=0 time=0.0023980833333333332
EXTRACT: note_on channel=3 note=56 velocity=0 time=0
EXTRACT: control_change channel=6 control=11 value=54 time=0.007194249999999999
EXTRACT: note_on channel=9 note=46 velocity=0 time=0.016786583333333334
EXTRACT: control_change channel=7 control=11 value=57 time=0.0047961666666666665
EXTRACT: note_on channel=9 note=70 velocity=67 time=0.03836933333333333
EXTRACT: control_change channel=6 control=11 value=59 time=0.009592333333333333
EXTRACT: note_on channel=9 note=42 velocity=108 time=0
EXTRACT: note_on channel=9 note=70 velocity=0 time=0.047961666666666666
EXTRACT: note_on channel=9 note=42 velocity=0 time=0.009592333333333333
EXTRACT: control_change channel=7 control=11 value=61 time=0.026378916666666665
EXTRACT: control_change channel=7 control=11 value=64 time=0.007194249999999999
EXTRACT: note_on channel=1 note=32 velocity=0 time=0.0023980833333333332
EXTRACT: control_change channel=6 control=11 value=64 time=0
EXTRACT: note_on channel=3 note=60 velocity=81 time=0.011990416666666667
EXTRACT: note_on channel=3 note=72 velocity=112 time=0
EXTRACT: note_on channel=9 note=70 velocity=108 time=0.0023980833333333332
EXTRACT: note_on channel=9 note=35 velocity=97 time=0.009592333333333333
EXTRACT: control_change channel=7 control=11 value=66 time=0.028776999999999997
EXTRACT: note_on channel=9 note=70 velocity=0 time=0.019184666666666666
EXTRACT: note_on channel=9 note=35 velocity=0 time=0.009592333333333333
EXTRACT: note_on channel=3 note=72 velocity=0 time=0.06954441666666666
EXTRACT: note_on channel=3 note=60 velocity=0 time=0
EXTRACT: control_change channel=6 control=11 value=68 time=0.028776999999999997
EXTRACT: note_on channel=1 note=32 velocity=121 time=0.062350166666666665
EXTRACT: note_on channel=3 note=60 velocity=79 time=0
EXTRACT: note_on channel=3 note=72 velocity=109 time=0
EXTRACT: control_change channel=7 control=11 value=70 time=0.0047961666666666665
EXTRACT: note_on channel=9 note=70 velocity=76 time=0.0023980833333333332
EXTRACT: note_on channel=9 note=46 velocity=61 time=0.014388499999999999
EXTRACT: note_on channel=9 note=70 velocity=0 time=0.043165499999999996
EXTRACT: control_change channel=6 control=11 value=72 time=0.014388499999999999
EXTRACT: note_on channel=9 note=46 velocity=0 time=0
EXTRACT: control_change channel=4 control=11 value=101 time=0.014388499999999999
EXTRACT: control_change channel=7 control=11 value=74 time=0.014388499999999999
EXTRACT: note_on channel=9 note=70 velocity=67 time=0.016786583333333334
EXTRACT: note_on channel=9 note=42 velocity=108 time=0.007194249999999999
EXTRACT: control_change channel=6 control=11 value=76 time=0.03357316666666667
EXTRACT: control_change channel=7 control=11 value=78 time=0.0047961666666666665
EXTRACT: note_on channel=9 note=70 velocity=0 time=0.011990416666666667
EXTRACT: control_change channel=6 control=11 value=80 time=0.0047961666666666665
EXTRACT: note_on channel=9 note=42 velocity=0 time=0.0023980833333333332
EXTRACT: note_on channel=3 note=72 velocity=0 time=0.019184666666666666
EXTRACT: note_on channel=3 note=60 velocity=0 time=0
EXTRACT: control_change channel=7 control=11 value=82 time=0
EXTRACT: control_change channel=6 control=11 value=84 time=0.009592333333333333
EXTRACT: note_on channel=1 note=32 velocity=0 time=0.007194249999999999
EXTRACT: control_change channel=7 control=11 value=87 time=0.007194249999999999
EXTRACT: note_on channel=9 note=70 velocity=107 time=0.009592333333333333
EXTRACT: note_on channel=3 note=63 velocity=82 time=0.007194249999999999
EXTRACT: note_on channel=3 note=75 velocity=113 time=0
EXTRACT: note_on channel=9 note=40 velocity=54 time=0
EXTRACT: note_on channel=9 note=37 velocity=91 time=0
EXTRACT: note_on channel=9 note=28 velocity=68 time=0
EXTRACT: note_on channel=9 note=39 velocity=72 time=0
EXTRACT: note_on channel=9 note=35 velocity=97 time=0
EXTRACT: note_on channel=9 note=28 velocity=0 time=0.0023980833333333332
EXTRACT: note_on channel=9 note=37 velocity=0 time=0
EXTRACT: control_change channel=6 control=11 value=90 time=0.014388499999999999
EXTRACT: control_change channel=7 control=11 value=93 time=0.011990416666666667
EXTRACT: note_on channel=9 note=39 velocity=55 time=0.0023980833333333332
EXTRACT: control_change channel=6 control=11 value=95 time=0.016786583333333334
EXTRACT: note_on channel=9 note=70 velocity=0 time=0.0023980833333333332
EXTRACT: note_on channel=9 note=35 velocity=0 time=0.007194249999999999
EXTRACT: note_on channel=9 note=40 velocity=0 time=0
EXTRACT: note_on channel=9 note=39 velocity=0 time=0
EXTRACT: control_change channel=7 control=11 value=98 time=0.0023980833333333332
EXTRACT: control_change channel=6 control=11 value=101 time=0.019184666666666666
EXTRACT: note_on channel=9 note=39 velocity=0 time=0.009592333333333333
EXTRACT: control_change channel=7 control=11 value=103 time=0.0023980833333333332
EXTRACT: control_change channel=6 control=11 value=105 time=0.011990416666666667
EXTRACT: control_change channel=7 control=11 value=108 time=0.011990416666666667
EXTRACT: control_change channel=6 control=11 value=111 time=0.019184666666666666
EXTRACT: control_change channel=7 control=11 value=113 time=0.0047961666666666665
EXTRACT: control_change channel=6 control=11 value=115 time=0.009592333333333333
EXTRACT: control_change channel=7 control=11 value=117 time=0.007194249999999999
EXTRACT: control_change channel=6 control=11 value=119 time=0.016786583333333334
EXTRACT: note_on channel=7 note=44 velocity=0 time=0.028776999999999997
EXTRACT: note_on channel=6 note=56 velocity=0 time=0.009592333333333333
EXTRACT: note_on channel=1 note=32 velocity=121 time=0.009592333333333333
EXTRACT: note_on channel=9 note=70 velocity=73 time=0.0047961666666666665
EXTRACT: note_on channel=9 note=46 velocity=61 time=0.016786583333333334
EXTRACT: note_on channel=3 note=75 velocity=0 time=0.007194249999999999
EXTRACT: note_on channel=3 note=63 velocity=0 time=0
EXTRACT: control_change channel=4 control=11 value=105 time=0
EXTRACT: note_on channel=9 note=70 velocity=0 time=0.03357316666666667
EXTRACT: note_on channel=9 note=46 velocity=0 time=0.016786583333333334
EXTRACT: note_on channel=9 note=70 velocity=67 time=0.043165499999999996
EXTRACT: note_on channel=9 note=42 velocity=109 time=0.007194249999999999
EXTRACT: note_on channel=9 note=70 velocity=0 time=0.050359749999999995
EXTRACT: note_on channel=9 note=42 velocity=0 time=0.007194249999999999
EXTRACT: note_on channel=1 note=32 velocity=0 time=0.03836933333333333
EXTRACT: note_on channel=7 note=48 velocity=67 time=0.0047961666666666665
EXTRACT: note_on channel=6 note=60 velocity=67 time=0.0023980833333333332
EXTRACT: note_on channel=9 note=70 velocity=108 time=0.007194249999999999
EXTRACT: note_on channel=4 note=60 velocity=0 time=0.0023980833333333332
EXTRACT: note_on channel=4 note=68 velocity=0 time=0
EXTRACT: note_on channel=4 note=63 velocity=0 time=0
EXTRACT: note_on channel=4 note=51 velocity=0 time=0
EXTRACT: note_on channel=4 note=48 velocity=77 time=0.0023980833333333332
EXTRACT: note_on channel=4 note=67 velocity=85 time=0
EXTRACT: note_on channel=4 note=63 velocity=82 time=0
EXTRACT: note_on channel=4 note=60 velocity=81 time=0
EXTRACT: note_on channel=5 note=80 velocity=0 time=0.0023980833333333332
EXTRACT: note_on channel=5 note=79 velocity=120 time=0
EXTRACT: control_change channel=7 control=11 value=117 time=0
EXTRACT: note_on channel=9 note=35 velocity=97 time=0
EXTRACT: note_on channel=3 note=67 velocity=81 time=0.009592333333333333
EXTRACT: note_on channel=3 note=79 velocity=112 time=0
EXTRACT: control_change channel=4 control=11 value=105 time=0
EXTRACT: control_change channel=6 control=11 value=115 time=0
EXTRACT: control_change channel=7 control=11 value=110 time=0.0047961666666666665
EXTRACT: control_change channel=6 control=11 value=106 time=0.011990416666666667
EXTRACT: control_change channel=5 control=11 value=59 time=0.0047961666666666665
EXTRACT: control_change channel=7 control=11 value=102 time=0
EXTRACT: control_change channel=6 control=11 value=98 time=0.009592333333333333
EXTRACT: control_change channel=7 control=11 value=96 time=0.0047961666666666665
EXTRACT: note_on channel=9 note=70 velocity=0 time=0.0047961666666666665
EXTRACT: control_change channel=6 control=11 value=93 time=0.007194249999999999
EXTRACT: note_on channel=9 note=35 velocity=0 time=0
EXTRACT: control_change channel=7 control=11 value=90 time=0.0047961666666666665
EXTRACT: control_change channel=6 control=11 value=86 time=0.009592333333333333
EXTRACT: control_change channel=7 control=11 value=83 time=0.0047961666666666665
EXTRACT: control_change channel=6 control=11 value=80 time=0.011990416666666667
EXTRACT: control_change channel=7 control=11 value=78 time=0.0047961666666666665
EXTRACT: control_change channel=4 control=11 value=113 time=0.009592333333333333
EXTRACT: control_change channel=6 control=11 value=76 time=0
EXTRACT: control_change channel=7 control=11 value=74 time=0.0047961666666666665
EXTRACT: control_change channel=6 control=11 value=72 time=0.011990416666666667
EXTRACT: control_change channel=7 control=11 value=70 time=0.0047961666666666665
EXTRACT: control_change channel=6 control=11 value=68 time=0.016786583333333334
EXTRACT: control_change channel=7 control=11 value=65 time=0.014388499999999999
EXTRACT: control_change channel=6 control=11 value=63 time=0.009592333333333333
EXTRACT: control_change channel=5 control=11 value=57 time=0.014388499999999999
EXTRACT: control_change channel=7 control=11 value=60 time=0
EXTRACT: control_change channel=6 control=11 value=58 time=0.016786583333333334
EXTRACT: note_on channel=1 note=36 velocity=116 time=0.023980833333333333
EXTRACT: note_on channel=9 note=70 velocity=77 time=0.007194249999999999
EXTRACT: note_on channel=9 note=46 velocity=61 time=0.014388499999999999
EXTRACT: control_change channel=7 control=11 value=56 time=0.021582749999999998
EXTRACT: note_on channel=9 note=70 velocity=0 time=0.021582749999999998
EXTRACT: note_on channel=9 note=46 velocity=0 time=0.014388499999999999
EXTRACT: control_change channel=6 control=11 value=54 time=0.014388499999999999
EXTRACT: note_on channel=9 note=70 velocity=67 time=0.031175083333333332
EXTRACT: note_on channel=9 note=42 velocity=113 time=0.007194249999999999
EXTRACT: control_change channel=4 control=11 value=117 time=0.03836933333333333
EXTRACT: control_change channel=7 control=11 value=56 time=0
EXTRACT: note_on channel=3 note=79 velocity=0 time=0.007194249999999999
EXTRACT: note_on channel=3 note=67 velocity=0 time=0
EXTRACT: note_on channel=9 note=70 velocity=0 time=0.0047961666666666665
EXTRACT: note_on channel=9 note=42 velocity=0 time=0.007194249999999999
EXTRACT: note_on channel=1 note=36 velocity=0 time=0.035971249999999996
EXTRACT: note_on channel=9 note=70 velocity=103 time=0.014388499999999999
EXTRACT: control_change channel=6 control=11 value=58 time=0.0023980833333333332
EXTRACT: control_change channel=7 control=11 value=60 time=0.0047961666666666665
EXTRACT: note_on channel=9 note=37 velocity=91 time=0.0023980833333333332
EXTRACT: note_on channel=9 note=28 velocity=68 time=0
EXTRACT: note_on channel=9 note=39 velocity=67 time=0
EXTRACT: note_on channel=9 note=35 velocity=97 time=0
EXTRACT: note_on channel=9 note=28 velocity=0 time=0.0023980833333333332
EXTRACT: note_on channel=9 note=37 velocity=0 time=0
EXTRACT: note_on channel=9 note=40 velocity=65 time=0
EXTRACT: note_on channel=3 note=70 velocity=81 time=0.0047961666666666665
EXTRACT: note_on channel=3 note=82 velocity=111 time=0
EXTRACT: control_change channel=6 control=11 value=62 time=0.009592333333333333
EXTRACT: note_on channel=9 note=39 velocity=50 time=0.014388499999999999
EXTRACT: control_change channel=7 control=11 value=65 time=0.014388499999999999
EXTRACT: note_on channel=9 note=70 velocity=0 time=0.0023980833333333332
EXTRACT: note_on channel=9 note=39 velocity=0 time=0.009592333333333333
EXTRACT: note_on channel=9 note=35 velocity=0 time=0
EXTRACT: note_on channel=9 note=40 velocity=0 time=0.0023980833333333332
EXTRACT: control_change channel=6 control=11 value=67 time=0.009592333333333333
EXTRACT: note_on channel=9 note=39 velocity=0 time=0.019184666666666666
EXTRACT: control_change channel=4 control=11 value=109 time=0.019184666666666666
EXTRACT: control_change channel=7 control=11 value=69 time=0.007194249999999999
EXTRACT: note_on channel=3 note=82 velocity=0 time=0.050359749999999995
EXTRACT: note_on channel=3 note=70 velocity=0 time=0
EXTRACT: control_change channel=6 control=11 value=73 time=0.04556358333333333
EXTRACT: note_on channel=9 note=70 velocity=75 time=0.0023980833333333332
EXTRACT: note_on channel=1 note=36 velocity=115 time=0.0047961666666666665
EXTRACT: note_on channel=3 note=67 velocity=81 time=0.023980833333333333
EXTRACT: note_on channel=3 note=79 velocity=111 time=0
EXTRACT: note_on channel=9 note=46 velocity=62 time=0
EXTRACT: control_change channel=7 control=11 value=75 time=0.021582749999999998
EXTRACT: note_on channel=9 note=70 velocity=0 time=0.007194249999999999
EXTRACT: control_change channel=4 control=11 value=101 time=0.016786583333333334
EXTRACT: note_on channel=9 note=46 velocity=0 time=0.011990416666666667
EXTRACT: note_on channel=9 note=70 velocity=67 time=0.043165499999999996
EXTRACT: note_on channel=9 note=42 velocity=111 time=0.007194249999999999
EXTRACT: note_on channel=9 note=70 velocity=0 time=0.050359749999999995
EXTRACT: note_on channel=9 note=42 velocity=0 time=0.007194249999999999
EXTRACT: note_on channel=3 note=79 velocity=0 time=0.009592333333333333
EXTRACT: note_on channel=3 note=67 velocity=0 time=0
EXTRACT: note_on channel=1 note=36 velocity=0 time=0.026378916666666665
EXTRACT: control_change channel=6 control=11 value=78 time=0.016786583333333334
EXTRACT: note_on channel=9 note=70 velocity=103 time=0
EXTRACT: note_on channel=5 note=79 velocity=0 time=0.0047961666666666665
EXTRACT: note_on channel=5 note=82 velocity=117 time=0.0023980833333333332
EXTRACT: note_on channel=9 note=35 velocity=97 time=0
EXTRACT: control_change channel=5 control=11 value=59 time=0.023980833333333333
EXTRACT: note_on channel=9 note=70 velocity=0 time=0.026378916666666665
EXTRACT: note_on channel=9 note=35 velocity=0 time=0.007194249999999999
EXTRACT: control_change channel=7 control=11 value=81 time=0.026378916666666665
EXTRACT: control_change channel=6 control=11 value=83 time=0.06474825
EXTRACT: control_change channel=7 control=11 value=86 time=0.014388499999999999
EXTRACT: control_change channel=5 control=11 value=57 time=0.023980833333333333
EXTRACT: control_change channel=6 control=11 value=88 time=0.009592333333333333
EXTRACT: note_on channel=3 note=63 velocity=78 time=0.007194249999999999
EXTRACT: note_on channel=3 note=75 velocity=107 time=0
EXTRACT: control_change channel=7 control=11 value=91 time=0.0047961666666666665
EXTRACT: note_on channel=1 note=36 velocity=117 time=0.011990416666666667
EXTRACT: control_change channel=6 control=11 value=93 time=0.007194249999999999
EXTRACT: note_on channel=9 note=82 velocity=65 time=0.007194249999999999
EXTRACT: note_on channel=9 note=46 velocity=63 time=0.007194249999999999
EXTRACT: control_change channel=7 control=11 value=96 time=0.014388499999999999
EXTRACT: control_change channel=6 control=11 value=98 time=0.016786583333333334
EXTRACT: control_change channel=7 control=11 value=100 time=0.014388499999999999
EXTRACT: note_on channel=9 note=82 velocity=0 time=0.0047961666666666665
EXTRACT: note_on channel=9 note=46 velocity=0 time=0.007194249999999999
EXTRACT: control_change channel=6 control=11 value=103 time=0.0047961666666666665
EXTRACT: control_change channel=7 control=11 value=105 time=0.014388499999999999
EXTRACT: control_change channel=6 control=11 value=107 time=0.016786583333333334
EXTRACT: control_change channel=7 control=11 value=110 time=0.014388499999999999
EXTRACT: note_on channel=9 note=82 velocity=57 time=0
EXTRACT: note_on channel=9 note=42 velocity=111 time=0
EXTRACT: control_change channel=6 control=11 value=113 time=0.016786583333333334
EXTRACT: control_change channel=7 control=11 value=115 time=0.007194249999999999
EXTRACT: control_change channel=6 control=11 value=117 time=0.016786583333333334
EXTRACT: note_on channel=9 note=39 velocity=50 time=0
EXTRACT: control_change channel=4 control=11 value=101 time=0.007194249999999999
EXTRACT: control_change channel=7 control=11 value=119 time=0.007194249999999999
EXTRACT: note_on channel=9 note=42 velocity=0 time=0.0023980833333333332
EXTRACT: note_on channel=9 note=82 velocity=0 time=0
EXTRACT: note_on channel=3 note=75 velocity=0 time=0.0023980833333333332
EXTRACT: note_on channel=3 note=63 velocity=0 time=0
EXTRACT: note_on channel=7 note=48 velocity=0 time=0.023980833333333333
EXTRACT: note_on channel=6 note=60 velocity=0 time=0.009592333333333333
EXTRACT: note_on channel=1 note=36 velocity=0 time=0.0023980833333333332
EXTRACT: note_on channel=9 note=39 velocity=0 time=0.0023980833333333332
EXTRACT: note_on channel=3 note=70 velocity=84 time=0.011990416666666667
EXTRACT: note_on channel=3 note=82 velocity=116 time=0
EXTRACT: note_on channel=9 note=40 velocity=56 time=0.007194249999999999
EXTRACT: note_on channel=9 note=37 velocity=91 time=0
EXTRACT: note_on channel=9 note=28 velocity=68 time=0
EXTRACT: note_on channel=9 note=39 velocity=73 time=0
EXTRACT: note_on channel=9 note=82 velocity=71 time=0
EXTRACT: note_on channel=9 note=35 velocity=97 time=0
EXTRACT: note_on channel=9 note=28 velocity=0 time=0.0023980833333333332
EXTRACT: note_on channel=9 note=37 velocity=0 time=0
EXTRACT: note_on channel=9 note=39 velocity=55 time=0.028776999999999997
EXTRACT: note_on channel=9 note=39 velocity=0 time=0.026378916666666665
EXTRACT: note_on channel=9 note=82 velocity=0 time=0
EXTRACT: note_on channel=9 note=40 velocity=0 time=0
EXTRACT: note_on channel=9 note=35 velocity=0 time=0
EXTRACT: note_on channel=9 note=39 velocity=0 time=0.031175083333333332
EXTRACT: control_change channel=5 control=11 value=59 time=0.014388499999999999
EXTRACT: note_on channel=3 note=82 velocity=0 time=0.08872908333333333
EXTRACT: note_on channel=3 note=70 velocity=0 time=0
EXTRACT: control_change channel=4 control=11 value=105 time=0.019184666666666666
EXTRACT: note_on channel=7 note=48 velocity=71 time=0.007194249999999999
EXTRACT: note_on channel=1 note=36 velocity=112 time=0.0023980833333333332
EXTRACT: note_on channel=6 note=60 velocity=70 time=0
EXTRACT: note_on channel=9 note=82 velocity=53 time=0.014388499999999999
EXTRACT: note_on channel=3 note=68 velocity=81 time=0.0047961666666666665
EXTRACT: note_on channel=3 note=80 velocity=111 time=0
EXTRACT: note_on channel=9 note=46 velocity=62 time=0.0023980833333333332
EXTRACT: control_change channel=5 control=11 value=57 time=0.023980833333333333
EXTRACT: control_change channel=6 control=11 value=117 time=0.016786583333333334
EXTRACT: note_on channel=9 note=82 velocity=0 time=0.009592333333333333
EXTRACT: note_on channel=9 note=46 velocity=0 time=0.007194249999999999
EXTRACT: control_change channel=7 control=11 value=114 time=0.0047961666666666665
EXTRACT: control_change channel=6 control=11 value=112 time=0.016786583333333334
EXTRACT: control_change channel=7 control=11 value=108 time=0.014388499999999999
EXTRACT: note_on channel=3 note=80 velocity=0 time=0.007194249999999999
EXTRACT: note_on channel=3 note=68 velocity=0 time=0
EXTRACT: control_change channel=6 control=11 value=106 time=0.009592333333333333
EXTRACT: note_on channel=9 note=82 velocity=50 time=0
EXTRACT: note_on channel=9 note=42 velocity=113 time=0
EXTRACT: control_change channel=7 control=11 value=104 time=0.014388499999999999
EXTRACT: control_change channel=6 control=11 value=102 time=0.026378916666666665
EXTRACT: note_on channel=9 note=42 velocity=0 time=0.016786583333333334
EXTRACT: note_on channel=9 note=82 velocity=0 time=0
EXTRACT: control_change channel=7 control=11 value=100 time=0.0023980833333333332
EXTRACT: note_on channel=7 note=48 velocity=0 time=0.031175083333333332
EXTRACT: note_on channel=1 note=36 velocity=0 time=0.0023980833333333332
EXTRACT: note_on channel=6 note=60 velocity=0 time=0
EXTRACT: control_change channel=6 control=11 value=120 time=0
EXTRACT: note_on channel=7 note=49 velocity=72 time=0.007194249999999999
EXTRACT: note_on channel=6 note=61 velocity=72 time=0.0023980833333333332
EXTRACT: note_on channel=4 note=49 velocity=75 time=0.0047961666666666665
EXTRACT: note_on channel=4 note=68 velocity=85 time=0
EXTRACT: note_on channel=4 note=65 velocity=84 time=0
EXTRACT: note_on channel=4 note=61 velocity=81 time=0
EXTRACT: note_on channel=9 note=70 velocity=103 time=0
EXTRACT: note_on channel=4 note=60 velocity=0 time=0.0047961666666666665
EXTRACT: note_on channel=4 note=63 velocity=0 time=0
EXTRACT: note_on channel=4 note=48 velocity=0 time=0
EXTRACT: note_on channel=4 note=67 velocity=0 time=0
EXTRACT: note_on channel=5 note=80 velocity=116 time=0
EXTRACT: note_on channel=5 note=82 velocity=0 time=0.0023980833333333332
EXTRACT: note_on channel=9 note=35 velocity=97 time=0.0023980833333333332
EXTRACT: control_change channel=4 control=11 value=107 time=0.014388499999999999
EXTRACT: control_change channel=7 control=11 value=117 time=0.021582749999999998
EXTRACT: control_change channel=6 control=11 value=115 time=0.011990416666666667
EXTRACT: note_on channel=9 note=70 velocity=0 time=0
EXTRACT: control_change channel=5 control=11 value=59 time=0.0023980833333333332
EXTRACT: note_on channel=9 note=35 velocity=0 time=0.007194249999999999
EXTRACT: control_change channel=7 control=11 value=112 time=0.0023980833333333332
EXTRACT: control_change channel=6 control=11 value=110 time=0.009592333333333333
EXTRACT: control_change channel=7 control=11 value=106 time=0.014388499999999999
EXTRACT: control_change channel=6 control=11 value=100 time=0.016786583333333334
EXTRACT: control_change channel=4 control=11 value=115 time=0.007194249999999999
EXTRACT: control_change channel=7 control=11 value=97 time=0.007194249999999999
EXTRACT: control_change channel=6 control=11 value=94 time=0.016786583333333334
EXTRACT: control_change channel=7 control=11 value=92 time=0.007194249999999999
EXTRACT: control_change channel=6 control=11 value=90 time=0.016786583333333334
EXTRACT: control_change channel=5 control=11 value=61 time=0.011990416666666667
EXTRACT: control_change channel=7 control=11 value=88 time=0.0023980833333333332
EXTRACT: control_change channel=6 control=11 value=86 time=0.016786583333333334
EXTRACT: note_on channel=7 note=49 velocity=0 time=0.021582749999999998
EXTRACT: control_change channel=7 control=11 value=120 time=0
EXTRACT: note_on channel=6 note=61 velocity=0 time=0.0023980833333333332
EXTRACT: note_on channel=7 note=49 velocity=68 time=0.0047961666666666665
EXTRACT: note_on channel=1 note=25 velocity=123 time=0.0023980833333333332
EXTRACT: note_on channel=6 note=61 velocity=62 time=0
EXTRACT: note_on channel=9 note=70 velocity=77 time=0.007194249999999999
EXTRACT: note_on channel=3 note=68 velocity=81 time=0.0047961666666666665
EXTRACT: note_on channel=3 note=80 velocity=111 time=0
EXTRACT: control_change channel=6 control=11 value=117 time=0.0047961666666666665
EXTRACT: control_change channel=7 control=11 value=115 time=0.0047961666666666665
EXTRACT: note_on channel=9 note=46 velocity=61 time=0.0023980833333333332
EXTRACT: control_change channel=6 control=11 value=110 time=0.007194249999999999
EXTRACT: control_change channel=7 control=11 value=106 time=0.007194249999999999
EXTRACT: control_change channel=6 control=11 value=102 time=0.009592333333333333
EXTRACT: control_change channel=7 control=11 value=99 time=0.0047961666666666665
EXTRACT: control_change channel=6 control=11 value=96 time=0.009592333333333333
EXTRACT: note_on channel=9 note=70 velocity=0 time=0.0023980833333333332
EXTRACT: control_change channel=7 control=11 value=93 time=0.0047961666666666665
EXTRACT: control_change channel=6 control=11 value=90 time=0.009592333333333333
EXTRACT: note_on channel=3 note=80 velocity=0 time=0.0023980833333333332
EXTRACT: note_on channel=3 note=68 velocity=0 time=0
EXTRACT: note_on channel=9 note=46 velocity=0 time=0
EXTRACT: control_change channel=7 control=11 value=86 time=0.0023980833333333332
EXTRACT: control_change channel=6 control=11 value=83 time=0.009592333333333333
EXTRACT: control_change channel=7 control=11 value=80 time=0.007194249999999999
EXTRACT: control_change channel=6 control=11 value=78 time=0.009592333333333333
EXTRACT: control_change channel=7 control=11 value=76 time=0.0047961666666666665
EXTRACT: note_on channel=9 note=70 velocity=67 time=0.009592333333333333
EXTRACT: note_on channel=9 note=42 velocity=109 time=0.007194249999999999
EXTRACT: control_change channel=6 control=11 value=72 time=0.0023980833333333332
EXTRACT: control_change channel=7 control=11 value=70 time=0.0047961666666666665
EXTRACT: control_change channel=6 control=11 value=68 time=0.016786583333333334
EXTRACT: control_change channel=4 control=11 value=119 time=0.014388499999999999
EXTRACT: control_change channel=7 control=11 value=65 time=0
EXTRACT: note_on channel=9 note=70 velocity=0 time=0.011990416666666667
EXTRACT: control_change channel=6 control=11 value=62 time=0.0047961666666666665
EXTRACT: note_on channel=9 note=42 velocity=0 time=0.0023980833333333332
EXTRACT: control_change channel=7 control=11 value=60 time=0.0047961666666666665
EXTRACT: control_change channel=6 control=11 value=58 time=0.016786583333333334
EXTRACT: note_on channel=1 note=25 velocity=0 time=0.014388499999999999
EXTRACT: note_on channel=3 note=68 velocity=80 time=0
EXTRACT: note_on channel=3 note=80 velocity=110 time=0
EXTRACT: note_on channel=9 note=70 velocity=108 time=0.016786583333333334
EXTRACT: note_on channel=9 note=37 velocity=91 time=0.007194249999999999
EXTRACT: note_on channel=9 note=28 velocity=68 time=0
EXTRACT: note_on channel=9 note=39 velocity=67 time=0
EXTRACT: note_on channel=9 note=35 velocity=97 time=0
EXTRACT: note_on channel=9 note=28 velocity=0 time=0.0023980833333333332
EXTRACT: note_on channel=9 note=37 velocity=0 time=0
EXTRACT: note_on channel=9 note=40 velocity=64 time=0.0023980833333333332
EXTRACT: control_change channel=7 control=11 value=56 time=0.023980833333333333
EXTRACT: note_on channel=9 note=39 velocity=50 time=0.0023980833333333332
EXTRACT: control_change channel=5 control=11 value=59 time=0.019184666666666666
EXTRACT: note_on channel=9 note=70 velocity=0 time=0
EXTRACT: note_on channel=9 note=39 velocity=0 time=0.007194249999999999
EXTRACT: note_on channel=9 note=35 velocity=0 time=0
EXTRACT: note_on channel=9 note=40 velocity=0 time=0.0047961666666666665
EXTRACT: control_change channel=6 control=11 value=54 time=0.016786583333333334
EXTRACT: note_on channel=9 note=39 velocity=0 time=0.009592333333333333
EXTRACT: control_change channel=4 control=11 value=111 time=0.0047961666666666665
EXTRACT: note_on channel=3 note=80 velocity=0 time=0.03836933333333333
EXTRACT: note_on channel=3 note=68 velocity=0 time=0
EXTRACT: control_change channel=7 control=11 value=56 time=0.023980833333333333
EXTRACT: note_on channel=3 note=68 velocity=77 time=0.055155916666666666
EXTRACT: note_on channel=3 note=80 velocity=106 time=0
EXTRACT: note_on channel=9 note=70 velocity=75 time=0.0023980833333333332
EXTRACT: note_on channel=1 note=25 velocity=122 time=0.007194249999999999
EXTRACT: control_change channel=5 control=11 value=57 time=0.0023980833333333332
EXTRACT: control_change channel=6 control=11 value=58 time=0.0047961666666666665
EXTRACT: control_change channel=7 control=11 value=61 time=0.011990416666666667
EXTRACT: note_on channel=9 note=46 velocity=59 time=0.0023980833333333332
EXTRACT: note_on channel=9 note=70 velocity=0 time=0.028776999999999997
EXTRACT: control_change channel=4 control=11 value=103 time=0.0023980833333333332
EXTRACT: control_change channel=6 control=11 value=63 time=0
EXTRACT: control_change channel=7 control=11 value=65 time=0.014388499999999999
EXTRACT: note_on channel=9 note=46 velocity=0 time=0.011990416666666667
EXTRACT: control_change channel=6 control=11 value=67 time=0.0047961666666666665
EXTRACT: note_on channel=9 note=70 velocity=67 time=0.03836933333333333
EXTRACT: note_on channel=3 note=80 velocity=0 time=0.0023980833333333332
EXTRACT: note_on channel=3 note=68 velocity=0 time=0
EXTRACT: control_change channel=7 control=11 value=69 time=0.0047961666666666665
EXTRACT: note_on channel=9 note=42 velocity=108 time=0
EXTRACT: note_on channel=9 note=70 velocity=0 time=0.050359749999999995
EXTRACT: note_on channel=9 note=42 velocity=0 time=0.007194249999999999
EXTRACT: note_on channel=1 note=25 velocity=0 time=0.03836933333333333
EXTRACT: control_change channel=6 control=11 value=72 time=0
EXTRACT: note_on channel=9 note=70 velocity=108 time=0.014388499999999999
EXTRACT: note_on channel=3 note=68 velocity=78 time=0.0047961666666666665
EXTRACT: note_on channel=3 note=80 velocity=108 time=0
EXTRACT: note_on channel=9 note=35 velocity=97 time=0.0023980833333333332
EXTRACT: control_change channel=7 control=11 value=75 time=0.031175083333333332
EXTRACT: note_on channel=9 note=70 velocity=0 time=0.019184666666666666
EXTRACT: note_on channel=9 note=35 velocity=0 time=0.007194249999999999
EXTRACT: note_on channel=3 note=80 velocity=0 time=0.10551566666666666
EXTRACT: note_on channel=3 note=68 velocity=0 time=0
EXTRACT: note_on channel=1 note=25 velocity=118 time=0.057553999999999994
EXTRACT: control_change channel=6 control=11 value=77 time=0.007194249999999999
EXTRACT: note_on channel=9 note=70 velocity=76 time=0
EXTRACT: note_on channel=3 note=68 velocity=77 time=0.011990416666666667
EXTRACT: note_on channel=3 note=80 velocity=106 time=0
EXTRACT: note_on channel=9 note=46 velocity=61 time=0.0023980833333333332
EXTRACT: note_on channel=9 note=70 velocity=0 time=0.043165499999999996
EXTRACT: control_change channel=7 control=11 value=79 time=0.0023980833333333332
EXTRACT: note_on channel=9 note=46 velocity=0 time=0.011990416666666667
EXTRACT: control_change channel=6 control=11 value=81 time=0.031175083333333332
EXTRACT: note_on channel=9 note=70 velocity=67 time=0.014388499999999999
EXTRACT: note_on channel=9 note=42 velocity=108 time=0.007194249999999999
EXTRACT: note_on channel=3 note=80 velocity=0 time=0.021582749999999998
EXTRACT: note_on channel=3 note=68 velocity=0 time=0
EXTRACT: control_change channel=7 control=11 value=84 time=0.016786583333333334
EXTRACT: note_on channel=9 note=70 velocity=0 time=0.011990416666666667
EXTRACT: control_change channel=6 control=11 value=86 time=0.0047961666666666665
EXTRACT: note_on channel=9 note=42 velocity=0 time=0.0023980833333333332
EXTRACT: control_change channel=4 control=11 value=103 time=0.011990416666666667
EXTRACT: control_change channel=7 control=11 value=88 time=0.007194249999999999
EXTRACT: note_on channel=1 note=25 velocity=0 time=0.016786583333333334
EXTRACT: control_change channel=6 control=11 value=90 time=0
EXTRACT: control_change channel=7 control=11 value=92 time=0.014388499999999999
EXTRACT: note_on channel=9 note=70 velocity=107 time=0
EXTRACT: note_on channel=3 note=68 velocity=81 time=0.009592333333333333
EXTRACT: note_on channel=3 note=80 velocity=111 time=0
EXTRACT: note_on channel=9 note=40 velocity=54 time=0
EXTRACT: note_on channel=9 note=37 velocity=91 time=0
EXTRACT: note_on channel=9 note=28 velocity=68 time=0
EXTRACT: note_on channel=9 note=39 velocity=72 time=0
EXTRACT: note_on channel=9 note=35 velocity=97 time=0
EXTRACT: note_on channel=9 note=28 velocity=0 time=0.0023980833333333332
EXTRACT: note_on channel=9 note=37 velocity=0 time=0
EXTRACT: control_change channel=6 control=11 value=94 time=0.014388499999999999
EXTRACT: control_change channel=7 control=11 value=97 time=0.011990416666666667
EXTRACT: note_on channel=9 note=39 velocity=55 time=0.0023980833333333332
EXTRACT: control_change channel=6 control=11 value=99 time=0.016786583333333334
EXTRACT: note_on channel=9 note=70 velocity=0 time=0
EXTRACT: note_on channel=9 note=35 velocity=0 time=0.009592333333333333
EXTRACT: note_on channel=9 note=40 velocity=0 time=0
EXTRACT: note_on channel=9 note=39 velocity=0 time=0
EXTRACT: control_change channel=7 control=11 value=101 time=0.0023980833333333332
EXTRACT: control_change channel=6 control=11 value=103 time=0.019184666666666666
EXTRACT: control_change channel=7 control=11 value=105 time=0.0047961666666666665
EXTRACT: note_on channel=9 note=39 velocity=0 time=0.0047961666666666665
EXTRACT: control_change channel=6 control=11 value=108 time=0.021582749999999998
EXTRACT: control_change channel=7 control=11 value=110 time=0.011990416666666667
EXTRACT: control_change channel=6 control=11 value=112 time=0.009592333333333333
EXTRACT: control_change channel=7 control=11 value=114 time=0.007194249999999999
EXTRACT: note_on channel=3 note=80 velocity=0 time=0.0047961666666666665
EXTRACT: note_on channel=3 note=68 velocity=0 time=0
EXTRACT: control_change channel=6 control=11 value=117 time=0.011990416666666667
EXTRACT: control_change channel=7 control=11 value=120 time=0.021582749999999998
EXTRACT: note_on channel=7 note=49 velocity=0 time=0.026378916666666665
EXTRACT: note_on channel=6 note=61 velocity=0 time=0.009592333333333333
EXTRACT: note_on channel=1 note=25 velocity=120 time=0.0047961666666666665
EXTRACT: note_on channel=9 note=70 velocity=73 time=0.007194249999999999
EXTRACT: note_on channel=3 note=68 velocity=80 time=0.011990416666666667
EXTRACT: note_on channel=3 note=80 velocity=110 time=0
EXTRACT: note_on channel=9 note=46 velocity=61 time=0.0047961666666666665
EXTRACT: note_on channel=9 note=70 velocity=0 time=0.04076741666666667
EXTRACT: note_on channel=9 note=46 velocity=0 time=0.016786583333333334
EXTRACT: control_change channel=4 control=11 value=103 time=0.011990416666666667
EXTRACT: note_on channel=3 note=80 velocity=0 time=0.014388499999999999
EXTRACT: note_on channel=3 note=68 velocity=0 time=0
EXTRACT: note_on channel=9 note=70 velocity=67 time=0.016786583333333334
EXTRACT: note_on channel=9 note=42 velocity=109 time=0.007194249999999999
EXTRACT: note_on channel=9 note=70 velocity=0 time=0.050359749999999995
EXTRACT: note_on channel=9 note=42 velocity=0 time=0.007194249999999999
EXTRACT: note_on channel=1 note=25 velocity=0 time=0.035971249999999996
EXTRACT: note_on channel=7 note=51 velocity=70 time=0.007194249999999999
EXTRACT: note_on channel=6 note=63 velocity=68 time=0.0023980833333333332
EXTRACT: note_on channel=4 note=49 velocity=0 time=0.0047961666666666665
EXTRACT: note_on channel=4 note=61 velocity=0 time=0
EXTRACT: note_on channel=4 note=68 velocity=0 time=0
EXTRACT: note_on channel=4 note=65 velocity=0 time=0
EXTRACT: note_on channel=9 note=70 velocity=108 time=0.0023980833333333332
EXTRACT: note_on channel=4 note=55 velocity=80 time=0.0023980833333333332
EXTRACT: note_on channel=4 note=70 velocity=85 time=0
EXTRACT: note_on channel=4 note=67 velocity=85 time=0
EXTRACT: note_on channel=4 note=63 velocity=82 time=0
EXTRACT: note_on channel=5 note=79 velocity=117 time=0
EXTRACT: note_on channel=5 note=63 velocity=106 time=0
EXTRACT: note_on channel=11 note=51 velocity=127 time=0
EXTRACT: note_on channel=5 note=80 velocity=0 time=0.0023980833333333332
EXTRACT: control_change channel=6 control=11 value=118 time=0.0023980833333333332
EXTRACT: note_on channel=9 note=35 velocity=97 time=0
EXTRACT: control_change channel=7 control=11 value=116 time=0.007194249999999999
EXTRACT: note_on channel=3 note=75 velocity=84 time=0.0047961666666666665
EXTRACT: note_on channel=3 note=87 velocity=116 time=0
EXTRACT: control_change channel=6 control=11 value=112 time=0.0047961666666666665
EXTRACT: control_change channel=7 control=11 value=107 time=0.0047961666666666665
EXTRACT: control_change channel=5 control=11 value=59 time=0.0023980833333333332
EXTRACT: note_on channel=11 note=51 velocity=0 time=0.0023980833333333332
EXTRACT: control_change channel=4 control=11 value=108 time=0.0047961666666666665
EXTRACT: control_change channel=6 control=11 value=102 time=0.0023980833333333332
EXTRACT: control_change channel=7 control=11 value=98 time=0.0047961666666666665
EXTRACT: control_change channel=6 control=11 value=95 time=0.009592333333333333
EXTRACT: note_on channel=9 note=70 velocity=0 time=0.0023980833333333332
EXTRACT: control_change channel=7 control=11 value=92 time=0.0023980833333333332
EXTRACT: note_on channel=9 note=35 velocity=0 time=0.0047961666666666665
EXTRACT: control_change channel=5 control=11 value=61 time=0.0047961666666666665
EXTRACT: control_change channel=6 control=11 value=89 time=0.0023980833333333332
EXTRACT: control_change channel=7 control=11 value=86 time=0.0047961666666666665
EXTRACT: control_change channel=6 control=11 value=82 time=0.009592333333333333
EXTRACT: control_change channel=7 control=11 value=79 time=0.0047961666666666665
EXTRACT: control_change channel=6 control=11 value=76 time=0.011990416666666667
EXTRACT: control_change channel=7 control=11 value=73 time=0.0047961666666666665
EXTRACT: control_change channel=6 control=11 value=70 time=0.009592333333333333
EXTRACT: control_change channel=7 control=11 value=68 time=0.0047961666666666665
EXTRACT: control_change channel=5 control=11 value=59 time=0.009592333333333333
EXTRACT: control_change channel=4 control=11 value=116 time=0.007194249999999999
EXTRACT: control_change channel=6 control=11 value=65 time=0.0023980833333333332
EXTRACT: control_change channel=7 control=11 value=62 time=0.0047961666666666665
EXTRACT: control_change channel=6 control=11 value=60 time=0.009592333333333333
EXTRACT: control_change channel=7 control=11 value=58 time=0.014388499999999999
EXTRACT: pitchwheel channel=3 pitch=0 time=0.009592333333333333
EXTRACT: control_change channel=6 control=11 value=55 time=0.007194249999999999
EXTRACT: pitchwheel channel=3 pitch=-128 time=0.0023980833333333332
EXTRACT: control_change channel=5 control=11 value=57 time=0.0047961666666666665
EXTRACT: pitchwheel channel=3 pitch=-256 time=0.007194249999999999
EXTRACT: control_change channel=7 control=11 value=52 time=0
EXTRACT: control_change channel=6 control=11 value=50 time=0.009592333333333333
EXTRACT: pitchwheel channel=3 pitch=-384 time=0.007194249999999999
EXTRACT: control_change channel=7 control=11 value=47 time=0.007194249999999999
EXTRACT: note_on channel=1 note=27 velocity=126 time=0.0023980833333333332
EXTRACT: pitchwheel channel=3 pitch=-768 time=0.0023980833333333332
EXTRACT: note_on channel=9 note=70 velocity=77 time=0.0023980833333333332
EXTRACT: pitchwheel channel=3 pitch=-1152 time=0.009592333333333333
EXTRACT: note_on channel=9 note=46 velocity=61 time=0.007194249999999999
EXTRACT: pitchwheel channel=3 pitch=-1408 time=0.0047961666666666665
EXTRACT: control_change channel=6 control=11 value=44 time=0.0047961666666666665
EXTRACT: pitchwheel channel=3 pitch=-1920 time=0.0047961666666666665
EXTRACT: pitchwheel channel=3 pitch=-2432 time=0.011990416666666667
EXTRACT: pitchwheel channel=3 pitch=-3712 time=0.011990416666666667
EXTRACT: note_on channel=9 note=70 velocity=0 time=0.0023980833333333332
EXTRACT: pitchwheel channel=3 pitch=-4096 time=0.014388499999999999
EXTRACT: note_on channel=9 note=46 velocity=0 time=0.0023980833333333332
EXTRACT: note_on channel=9 note=70 velocity=67 time=0.043165499999999996
EXTRACT: note_on channel=9 note=42 velocity=113 time=0.007194249999999999
EXTRACT: control_change channel=7 control=11 value=42 time=0.007194249999999999
EXTRACT: note_on channel=3 note=87 velocity=0 time=0.028776999999999997
EXTRACT: note_on channel=3 note=75 velocity=0 time=0
EXTRACT: note_on channel=9 note=70 velocity=0 time=0.014388499999999999
EXTRACT: note_on channel=9 note=42 velocity=0 time=0.007194249999999999
EXTRACT: note_on channel=1 note=27 velocity=0 time=0.03836933333333333
EXTRACT: control_change channel=4 control=11 value=116 time=0
EXTRACT: pitchwheel channel=3 pitch=0 time=0.009592333333333333
EXTRACT: note_on channel=9 note=70 velocity=103 time=0.0047961666666666665
EXTRACT: note_on channel=5 note=63 velocity=0 time=0.0023980833333333332
EXTRACT: note_on channel=5 note=79 velocity=0 time=0
EXTRACT: note_on channel=11 note=46 velocity=127 time=0
EXTRACT: note_on channel=5 note=65 velocity=107 time=0.0023980833333333332
EXTRACT: note_on channel=5 note=80 velocity=117 time=0
EXTRACT: note_on channel=3 note=68 velocity=78 time=0.0023980833333333332
EXTRACT: note_on channel=3 note=80 velocity=107 time=0
EXTRACT: note_on channel=9 note=37 velocity=91 time=0
EXTRACT: note_on channel=9 note=28 velocity=68 time=0
EXTRACT: note_on channel=9 note=39 velocity=67 time=0
EXTRACT: note_on channel=9 note=35 velocity=97 time=0
EXTRACT: note_on channel=9 note=28 velocity=0 time=0.0023980833333333332
EXTRACT: note_on channel=9 note=37 velocity=0 time=0
EXTRACT: note_on channel=9 note=40 velocity=65 time=0.0023980833333333332
EXTRACT: control_change channel=5 control=11 value=59 time=0.019184666666666666
EXTRACT: note_on channel=11 note=46 velocity=0 time=0.0023980833333333332
EXTRACT: note_on channel=9 note=39 velocity=50 time=0.0047961666666666665
EXTRACT: control_change channel=6 control=11 value=44 time=0.016786583333333334
EXTRACT: note_on channel=9 note=70 velocity=0 time=0.0023980833333333332
EXTRACT: note_on channel=9 note=39 velocity=0 time=0.007194249999999999
EXTRACT: note_on channel=9 note=35 velocity=0 time=0
EXTRACT: control_change channel=5 control=11 value=61 time=0.0047961666666666665
EXTRACT: note_on channel=9 note=40 velocity=0 time=0
EXTRACT: note_on channel=3 note=80 velocity=0 time=0.007194249999999999
EXTRACT: note_on channel=3 note=68 velocity=0 time=0
EXTRACT: control_change channel=7 control=11 value=46 time=0
EXTRACT: control_change channel=6 control=11 value=48 time=0.019184666666666666
EXTRACT: note_on channel=9 note=39 velocity=0 time=0
EXTRACT: control_change channel=7 control=11 value=50 time=0.0047961666666666665
EXTRACT: control_change channel=5 control=11 value=59 time=0.031175083333333332
EXTRACT: control_change channel=6 control=11 value=52 time=0.0023980833333333332
EXTRACT: control_change channel=7 control=11 value=54 time=0.011990416666666667
EXTRACT: control_change channel=4 control=11 value=108 time=0.0023980833333333332
EXTRACT: control_change channel=6 control=11 value=56 time=0.023980833333333333
EXTRACT: control_change channel=5 control=11 value=57 time=0.031175083333333332
EXTRACT: control_change channel=7 control=11 value=58 time=0.014388499999999999
EXTRACT: note_on channel=9 note=70 velocity=75 time=0.0047961666666666665
EXTRACT: note_on channel=1 note=27 velocity=117 time=0.0047961666666666665
EXTRACT: note_on channel=9 note=46 velocity=62 time=0.021582749999999998
EXTRACT: note_on channel=3 note=68 velocity=78 time=0.028776999999999997
EXTRACT: note_on channel=3 note=80 velocity=108 time=0
EXTRACT: note_on channel=9 note=70 velocity=0 time=0.0023980833333333332
EXTRACT: note_on channel=9 note=46 velocity=0 time=0.026378916666666665
EXTRACT: control_change channel=6 control=11 value=61 time=0.021582749999999998
EXTRACT: control_change channel=7 control=11 value=64 time=0.007194249999999999
EXTRACT: control_change channel=6 control=11 value=64 time=0.0023980833333333332
EXTRACT: note_on channel=9 note=70 velocity=67 time=0.014388499999999999
EXTRACT: note_on channel=9 note=42 velocity=111 time=0.007194249999999999
EXTRACT: control_change channel=6 control=11 value=66 time=0.04076741666666667
EXTRACT: note_on channel=9 note=70 velocity=0 time=0.009592333333333333
EXTRACT: control_change channel=4 control=11 value=100 time=0.0047961666666666665
EXTRACT: note_on channel=9 note=42 velocity=0 time=0.0023980833333333332
EXTRACT: note_on channel=1 note=27 velocity=0 time=0.035971249999999996
EXTRACT: note_on channel=9 note=70 velocity=103 time=0.014388499999999999
EXTRACT: note_on channel=5 note=80 velocity=0 time=0.0047961666666666665
EXTRACT: note_on channel=5 note=65 velocity=0 time=0
EXTRACT: note_on channel=5 note=67 velocity=107 time=0
EXTRACT: note_on channel=5 note=82 velocity=114 time=0
EXTRACT: note_on channel=11 note=51 velocity=127 time=0
EXTRACT: note_on channel=9 note=35 velocity=97 time=0.0047961666666666665
EXTRACT: note_on channel=11 note=51 velocity=0 time=0.026378916666666665
EXTRACT: control_change channel=5 control=11 value=59 time=0.011990416666666667
EXTRACT: note_on channel=9 note=70 velocity=0 time=0.009592333333333333
EXTRACT: note_on channel=9 note=35 velocity=0 time=0.009592333333333333
EXTRACT: control_change channel=7 control=11 value=69 time=0.08872908333333333
EXTRACT: control_change channel=5 control=11 value=57 time=0.023980833333333333
EXTRACT: note_on channel=1 note=27 velocity=121 time=0.047961666666666666
EXTRACT: control_change channel=6 control=11 value=71 time=0.009592333333333333
EXTRACT: note_on channel=9 note=82 velocity=65 time=0.0047961666666666665
EXTRACT: note_on channel=9 note=46 velocity=63 time=0.009592333333333333
EXTRACT: control_change channel=7 control=11 value=74 time=0.021582749999999998
EXTRACT: note_on channel=9 note=82 velocity=0 time=0.026378916666666665
EXTRACT: note_on channel=9 note=46 velocity=0 time=0.009592333333333333
EXTRACT: control_change channel=6 control=11 value=76 time=0.035971249999999996
EXTRACT: control_change channel=7 control=11 value=78 time=0.014388499999999999
EXTRACT: note_on channel=9 note=82 velocity=57 time=0
EXTRACT: note_on channel=9 note=42 velocity=111 time=0
EXTRACT: control_change channel=6 control=11 value=80 time=0.016786583333333334
EXTRACT: control_change channel=7 control=11 value=82 time=0.021582749999999998
EXTRACT: note_on channel=9 note=39 velocity=50 time=0
EXTRACT: control_change channel=6 control=11 value=85 time=0.016786583333333334
EXTRACT: note_on channel=3 note=80 velocity=0 time=0.0023980833333333332
EXTRACT: note_on channel=3 note=68 velocity=0 time=0
EXTRACT: note_on channel=9 note=42 velocity=0 time=0
EXTRACT: note_on channel=9 note=82 velocity=0 time=0
EXTRACT: control_change channel=7 control=11 value=87 time=0.011990416666666667
EXTRACT: note_on channel=1 note=27 velocity=0 time=0.023980833333333333
EXTRACT: control_change channel=4 control=11 value=104 time=0
EXTRACT: note_on channel=9 note=39 velocity=0 time=0.0023980833333333332
EXTRACT: control_change channel=6 control=11 value=89 time=0.007194249999999999
EXTRACT: control_change channel=7 control=11 value=91 time=0.0047961666666666665
EXTRACT: note_on channel=3 note=68 velocity=81 time=0.0047961666666666665
EXTRACT: note_on channel=3 note=80 velocity=111 time=0
EXTRACT: note_on channel=5 note=82 velocity=0 time=0
EXTRACT: note_on channel=5 note=67 velocity=0 time=0
EXTRACT: note_on channel=5 note=68 velocity=107 time=0
EXTRACT: note_on channel=5 note=84 velocity=114 time=0
EXTRACT: note_on channel=11 note=46 velocity=127 time=0
EXTRACT: note_on channel=9 note=40 velocity=56 time=0.0047961666666666665
EXTRACT: note_on channel=9 note=37 velocity=91 time=0
EXTRACT: note_on channel=9 note=28 velocity=68 time=0
EXTRACT: note_on channel=9 note=39 velocity=73 time=0
EXTRACT: note_on channel=9 note=82 velocity=71 time=0
EXTRACT: note_on channel=9 note=35 velocity=97 time=0
EXTRACT: note_on channel=9 note=28 velocity=0 time=0.0023980833333333332
EXTRACT: note_on channel=9 note=37 velocity=0 time=0
EXTRACT: control_change channel=6 control=11 value=93 time=0.007194249999999999
EXTRACT: control_change channel=7 control=11 value=95 time=0.0047961666666666665
EXTRACT: note_on channel=11 note=46 velocity=0 time=0.011990416666666667
EXTRACT: note_on channel=9 note=39 velocity=55 time=0.0047961666666666665
EXTRACT: control_change channel=5 control=11 value=59 time=0.007194249999999999
EXTRACT: control_change channel=6 control=11 value=98 time=0.0023980833333333332
EXTRACT: control_change channel=7 control=11 value=100 time=0.011990416666666667
EXTRACT: note_on channel=9 note=39 velocity=0 time=0.0047961666666666665
EXTRACT: note_on channel=9 note=82 velocity=0 time=0
EXTRACT: note_on channel=9 note=40 velocity=0 time=0
EXTRACT: note_on channel=9 note=35 velocity=0 time=0
EXTRACT: control_change channel=6 control=11 value=102 time=0.007194249999999999
EXTRACT: control_change channel=7 control=11 value=105 time=0.019184666666666666
EXTRACT: note_on channel=9 note=39 velocity=0 time=0.0047961666666666665
EXTRACT: control_change channel=6 control=11 value=107 time=0.014388499999999999
EXTRACT: control_change channel=7 control=11 value=109 time=0.0047961666666666665
EXTRACT: control_change channel=6 control=11 value=112 time=0.019184666666666666
EXTRACT: control_change channel=7 control=11 value=114 time=0.0047961666666666665
EXTRACT: control_change channel=6 control=11 value=117 time=0.016786583333333334
EXTRACT: control_change channel=7 control=11 value=119 time=0.021582749999999998
EXTRACT: control_change channel=5 control=11 value=57 time=0.0023980833333333332
EXTRACT: note_on channel=7 note=51 velocity=0 time=0.028776999999999997
EXTRACT: note_on channel=6 note=63 velocity=0 time=0.009592333333333333
EXTRACT: note_on channel=1 note=27 velocity=122 time=0.009592333333333333
EXTRACT: note_on channel=3 note=80 velocity=0 time=0.0047961666666666665
EXTRACT: note_on channel=3 note=68 velocity=0 time=0
EXTRACT: note_on channel=9 note=82 velocity=53 time=0.009592333333333333
EXTRACT: note_on channel=9 note=46 velocity=62 time=0.007194249999999999
EXTRACT: note_on channel=9 note=82 velocity=0 time=0.050359749999999995
EXTRACT: note_on channel=9 note=46 velocity=0 time=0.007194249999999999
EXTRACT: note_on channel=9 note=82 velocity=50 time=0.05275783333333333
EXTRACT: note_on channel=9 note=42 velocity=113 time=0
EXTRACT: note_on channel=9 note=42 velocity=0 time=0.057553999999999994
EXTRACT: note_on channel=9 note=82 velocity=0 time=0
EXTRACT: note_on channel=1 note=27 velocity=0 time=0.035971249999999996
EXTRACT: control_change channel=7 control=11 value=120 time=0.0047961666666666665
EXTRACT: note_on channel=7 note=44 velocity=67 time=0
EXTRACT: note_on channel=6 note=56 velocity=67 time=0.0023980833333333332
EXTRACT: control_change channel=6 control=11 value=120 time=0
EXTRACT: note_on channel=9 note=70 velocity=103 time=0.007194249999999999
EXTRACT: note_on channel=4 note=63 velocity=0 time=0.0023980833333333332
EXTRACT: note_on channel=4 note=55 velocity=0 time=0
EXTRACT: note_on channel=4 note=70 velocity=0 time=0
EXTRACT: note_on channel=4 note=67 velocity=0 time=0
EXTRACT: note_on channel=5 note=84 velocity=0 time=0
EXTRACT: note_on channel=5 note=68 velocity=0 time=0
EXTRACT: note_on channel=11 note=44 velocity=127 time=0
EXTRACT: note_on channel=4 note=63 velocity=82 time=0.0023980833333333332
EXTRACT: note_on channel=4 note=51 velocity=77 time=0
EXTRACT: note_on channel=4 note=68 velocity=86 time=0
EXTRACT: note_on channel=4 note=60 velocity=81 time=0
EXTRACT: control_change channel=4 control=11 value=104 time=0.0023980833333333332
EXTRACT: note_on channel=5 note=80 velocity=117 time=0
EXTRACT: note_on channel=9 note=35 velocity=97 time=0
EXTRACT: note_on channel=9 note=57 velocity=63 time=0
EXTRACT: note_on channel=11 note=44 velocity=0 time=0.026378916666666665
EXTRACT: control_change channel=5 control=11 value=59 time=0.014388499999999999
EXTRACT: control_change channel=7 control=11 value=116 time=0.0047961666666666665
EXTRACT: control_change channel=6 control=11 value=116 time=0.0023980833333333332
EXTRACT: note_on channel=9 note=70 velocity=0 time=0.0023980833333333332
EXTRACT: note_on channel=9 note=57 velocity=0 time=0.007194249999999999
EXTRACT: note_on channel=9 note=35 velocity=0 time=0
EXTRACT: control_change channel=4 control=11 value=112 time=0.028776999999999997
EXTRACT: control_change channel=7 control=11 value=110 time=0
EXTRACT: control_change channel=6 control=11 value=110 time=0.0023980833333333332
EXTRACT: control_change channel=7 control=11 value=104 time=0.028776999999999997
EXTRACT: control_change channel=6 control=11 value=104 time=0.0023980833333333332
EXTRACT: control_change channel=7 control=11 value=100 time=0.028776999999999997
EXTRACT: control_change channel=6 control=11 value=100 time=0.0023980833333333332
EXTRACT: control_change channel=5 control=11 value=57 time=0.028776999999999997
EXTRACT: control_change channel=4 control=11 value=120 time=0.016786583333333334
EXTRACT: control_change channel=7 control=11 value=96 time=0.0047961666666666665
EXTRACT: control_change channel=6 control=11 value=96 time=0.0023980833333333332
EXTRACT: note_on channel=7 note=44 velocity=0 time=0.0047961666666666665
EXTRACT: note_on channel=6 note=56 velocity=0 time=0.0023980833333333332
EXTRACT: note_on channel=7 note=44 velocity=61 time=0.007194249999999999
EXTRACT: note_on channel=1 note=32 velocity=126 time=0.0023980833333333332
EXTRACT: note_on channel=6 note=56 velocity=60 time=0
EXTRACT: note_on channel=9 note=70 velocity=77 time=0.007194249999999999
EXTRACT: control_change channel=7 control=11 value=117 time=0.007194249999999999
EXTRACT: control_change channel=6 control=11 value=117 time=0.0023980833333333332
EXTRACT: note_on channel=9 note=46 velocity=61 time=0.0047961666666666665
EXTRACT: control_change channel=7 control=11 value=106 time=0.007194249999999999
EXTRACT: control_change channel=6 control=11 value=106 time=0.0023980833333333332
EXTRACT: control_change channel=7 control=11 value=97 time=0.014388499999999999
EXTRACT: control_change channel=6 control=11 value=97 time=0.0023980833333333332
EXTRACT: control_change channel=7 control=11 value=90 time=0.011990416666666667
EXTRACT: control_change channel=6 control=11 value=90 time=0.0023980833333333332
EXTRACT: note_on channel=9 note=70 velocity=0 time=0.0023980833333333332
EXTRACT: control_change channel=7 control=11 value=82 time=0.011990416666666667
EXTRACT: control_change channel=6 control=11 value=82 time=0.0023980833333333332
EXTRACT: note_on channel=9 note=46 velocity=0 time=0
EXTRACT: control_change channel=7 control=11 value=76 time=0.011990416666666667
EXTRACT: control_change channel=6 control=11 value=76 time=0.0023980833333333332
EXTRACT: control_change channel=7 control=11 value=72 time=0.014388499999999999
EXTRACT: control_change channel=6 control=11 value=72 time=0.0023980833333333332
EXTRACT: control_change channel=7 control=11 value=67 time=0.011990416666666667
EXTRACT: control_change channel=6 control=11 value=67 time=0.0023980833333333332
EXTRACT: note_on channel=9 note=70 velocity=67 time=0
EXTRACT: note_on channel=9 note=42 velocity=109 time=0.007194249999999999
EXTRACT: control_change channel=7 control=11 value=64 time=0.007194249999999999
EXTRACT: control_change channel=6 control=11 value=64 time=0.0023980833333333332
EXTRACT: control_change channel=7 control=11 value=62 time=0.0047961666666666665
EXTRACT: control_change channel=6 control=11 value=62 time=0.0023980833333333332
EXTRACT: control_change channel=7 control=11 value=57 time=0.021582749999999998
EXTRACT: control_change channel=6 control=11 value=57 time=0.0023980833333333332
EXTRACT: note_on channel=9 note=70 velocity=0 time=0.009592333333333333
EXTRACT: note_on channel=9 note=42 velocity=0 time=0.007194249999999999
EXTRACT: note_on channel=1 note=32 velocity=0 time=0.035971249999999996
EXTRACT: note_on channel=9 note=70 velocity=108 time=0.014388499999999999
EXTRACT: note_on channel=11 note=44 velocity=127 time=0.0047961666666666665
EXTRACT: note_on channel=9 note=37 velocity=91 time=0.0047961666666666665
EXTRACT: note_on channel=9 note=28 velocity=68 time=0
EXTRACT: note_on channel=9 note=39 velocity=67 time=0
EXTRACT: note_on channel=9 note=35 velocity=97 time=0
EXTRACT: note_on channel=9 note=28 velocity=0 time=0.0023980833333333332
EXTRACT: note_on channel=9 note=37 velocity=0 time=0
EXTRACT: note_on channel=9 note=40 velocity=64 time=0
EXTRACT: note_on channel=3 note=84 velocity=111 time=0
EXTRACT: note_on channel=3 note=72 velocity=81 time=0
EXTRACT: control_change channel=7 control=11 value=52 time=0.009592333333333333
EXTRACT: control_change channel=6 control=11 value=52 time=0.0023980833333333332
EXTRACT: note_on channel=11 note=44 velocity=0 time=0.0023980833333333332
EXTRACT: note_on channel=9 note=39 velocity=50 time=0.0047961666666666665
EXTRACT: note_on channel=9 note=70 velocity=0 time=0.016786583333333334
EXTRACT: note_on channel=9 note=39 velocity=0 time=0.009592333333333333
EXTRACT: note_on channel=9 note=35 velocity=0 time=0
EXTRACT: note_on channel=9 note=40 velocity=0 time=0.0023980833333333332
EXTRACT: control_change channel=4 control=11 value=112 time=0.0023980833333333332
EXTRACT: note_on channel=9 note=39 velocity=0 time=0.026378916666666665
EXTRACT: control_change channel=7 control=11 value=57 time=0.057553999999999994
EXTRACT: control_change channel=6 control=11 value=57 time=0.0023980833333333332
EXTRACT: control_change channel=7 control=11 value=62 time=0.035971249999999996
EXTRACT: control_change channel=6 control=11 value=62 time=0.0023980833333333332
EXTRACT: control_change channel=4 control=11 value=104 time=0.014388499999999999
EXTRACT: note_on channel=3 note=72 velocity=0 time=0.011990416666666667
EXTRACT: note_on channel=3 note=84 velocity=0 time=0
EXTRACT: note_on channel=9 note=70 velocity=75 time=0
EXTRACT: note_on channel=1 note=32 velocity=118 time=0.0047961666666666665
EXTRACT: note_on channel=3 note=82 velocity=110 time=0.023980833333333333
EXTRACT: note_on channel=3 note=70 velocity=80 time=0
EXTRACT: note_on channel=9 note=46 velocity=59 time=0
EXTRACT: control_change channel=7 control=11 value=67 time=0.0047961666666666665
EXTRACT: control_change channel=6 control=11 value=67 time=0.0023980833333333332
EXTRACT: note_on channel=9 note=70 velocity=0 time=0.021582749999999998
EXTRACT: note_on channel=3 note=70 velocity=0 time=0.021582749999999998
EXTRACT: note_on channel=3 note=82 velocity=0 time=0
EXTRACT: note_on channel=9 note=46 velocity=0 time=0.007194249999999999
EXTRACT: control_change channel=7 control=11 value=72 time=0.03357316666666667
EXTRACT: control_change channel=6 control=11 value=72 time=0.0023980833333333332
EXTRACT: note_on channel=9 note=70 velocity=67 time=0.007194249999999999
EXTRACT: note_on channel=9 note=42 velocity=108 time=0.007194249999999999
EXTRACT: note_on channel=9 note=70 velocity=0 time=0.050359749999999995
EXTRACT: note_on channel=9 note=42 velocity=0 time=0.007194249999999999
EXTRACT: note_on channel=1 note=32 velocity=0 time=0.035971249999999996
EXTRACT: note_on channel=9 note=70 velocity=108 time=0.016786583333333334
EXTRACT: note_on channel=5 note=80 velocity=0 time=0.0047961666666666665
EXTRACT: note_on channel=5 note=84 velocity=118 time=0.0023980833333333332
EXTRACT: note_on channel=9 note=35 velocity=97 time=0
EXTRACT: note_on channel=3 note=82 velocity=113 time=0.007194249999999999
EXTRACT: note_on channel=3 note=70 velocity=82 time=0
EXTRACT: control_change channel=5 control=11 value=59 time=0.023980833333333333
EXTRACT: note_on channel=9 note=70 velocity=0 time=0.019184666666666666
EXTRACT: note_on channel=9 note=35 velocity=0 time=0.007194249999999999
EXTRACT: control_change channel=7 control=11 value=76 time=0.011990416666666667
EXTRACT: control_change channel=6 control=11 value=76 time=0.0023980833333333332
EXTRACT: control_change channel=7 control=11 value=80 time=0.08393291666666666
EXTRACT: control_change channel=6 control=11 value=80 time=0.0023980833333333332
EXTRACT: control_change channel=5 control=11 value=57 time=0.021582749999999998
EXTRACT: note_on channel=3 note=70 velocity=0 time=0.014388499999999999
EXTRACT: note_on channel=3 note=82 velocity=0 time=0
EXTRACT: control_change channel=7 control=11 value=85 time=0.023980833333333333
EXTRACT: note_on channel=1 note=32 velocity=121 time=0.0023980833333333332
EXTRACT: control_change channel=6 control=11 value=85 time=0
EXTRACT: note_on channel=3 note=80 velocity=106 time=0.0023980833333333332
EXTRACT: note_on channel=3 note=68 velocity=77 time=0
EXTRACT: note_on channel=9 note=70 velocity=76 time=0.0023980833333333332
EXTRACT: note_on channel=9 note=46 velocity=61 time=0.016786583333333334
EXTRACT: control_change channel=7 control=11 value=89 time=0.007194249999999999
EXTRACT: control_change channel=6 control=11 value=89 time=0.0023980833333333332
EXTRACT: note_on channel=3 note=68 velocity=0 time=0.023980833333333333
EXTRACT: note_on channel=3 note=80 velocity=0 time=0
EXTRACT: note_on channel=9 note=70 velocity=0 time=0.007194249999999999
EXTRACT: control_change channel=7 control=11 value=94 time=0.0047961666666666665
EXTRACT: control_change channel=6 control=11 value=94 time=0.0023980833333333332
EXTRACT: note_on channel=9 note=46 velocity=0 time=0.009592333333333333
EXTRACT: control_change channel=4 control=11 value=100 time=0.011990416666666667
EXTRACT: control_change channel=7 control=11 value=98 time=0
EXTRACT: control_change channel=6 control=11 value=98 time=0.0023980833333333332
EXTRACT: control_change channel=7 control=11 value=103 time=0.021582749999999998
EXTRACT: control_change channel=6 control=11 value=103 time=0.0023980833333333332
EXTRACT: note_on channel=9 note=70 velocity=67 time=0.0047961666666666665
EXTRACT: note_on channel=9 note=42 velocity=108 time=0.009592333333333333
EXTRACT: control_change channel=7 control=11 value=107 time=0.0047961666666666665
EXTRACT: control_change channel=6 control=11 value=107 time=0.0023980833333333332
EXTRACT: control_change channel=7 control=11 value=114 time=0.028776999999999997
EXTRACT: control_change channel=6 control=11 value=114 time=0.0023980833333333332
EXTRACT: note_on channel=9 note=70 velocity=0 time=0.009592333333333333
EXTRACT: note_on channel=9 note=42 velocity=0 time=0.009592333333333333
EXTRACT: control_change channel=7 control=11 value=118 time=0.0023980833333333332
EXTRACT: control_change channel=6 control=11 value=118 time=0.0023980833333333332
EXTRACT: note_on channel=7 note=44 velocity=0 time=0.028776999999999997
EXTRACT: note_on channel=1 note=32 velocity=0 time=0.0023980833333333332
EXTRACT: note_on channel=6 note=56 velocity=0 time=0.0023980833333333332
EXTRACT: note_on channel=9 note=70 velocity=107 time=0.011990416666666667
EXTRACT: note_on channel=3 note=80 velocity=113 time=0.0047961666666666665
EXTRACT: note_on channel=3 note=68 velocity=82 time=0
EXTRACT: note_on channel=9 note=40 velocity=55 time=0.0023980833333333332
EXTRACT: note_on channel=9 note=37 velocity=91 time=0
EXTRACT: note_on channel=9 note=28 velocity=68 time=0
EXTRACT: note_on channel=9 note=39 velocity=72 time=0
EXTRACT: note_on channel=9 note=35 velocity=97 time=0
EXTRACT: note_on channel=9 note=28 velocity=0 time=0.0023980833333333332
EXTRACT: note_on channel=9 note=37 velocity=0 time=0
EXTRACT: note_on channel=9 note=39 velocity=55 time=0.028776999999999997
EXTRACT: note_on channel=9 note=70 velocity=0 time=0.019184666666666666
EXTRACT: note_on channel=9 note=35 velocity=0 time=0.007194249999999999
EXTRACT: note_on channel=9 note=40 velocity=0 time=0
EXTRACT: note_on channel=9 note=39 velocity=0 time=0
EXTRACT: note_on channel=9 note=39 velocity=0 time=0.031175083333333332
EXTRACT: note_on channel=7 note=44 velocity=66 time=0.1294965
EXTRACT: note_on channel=1 note=32 velocity=122 time=0.0023980833333333332
EXTRACT: note_on channel=6 note=56 velocity=67 time=0
EXTRACT: note_on channel=9 note=70 velocity=73 time=0.007194249999999999
EXTRACT: note_on channel=9 note=46 velocity=61 time=0.014388499999999999
EXTRACT: control_change channel=4 control=11 value=104 time=0.009592333333333333
EXTRACT: control_change channel=7 control=11 value=117 time=0.021582749999999998
EXTRACT: control_change channel=6 control=11 value=117 time=0.0023980833333333332
EXTRACT: note_on channel=9 note=70 velocity=0 time=0.009592333333333333
EXTRACT: control_change channel=7 control=11 value=112 time=0.011990416666666667
EXTRACT: control_change channel=6 control=11 value=112 time=0.0023980833333333332
EXTRACT: note_on channel=9 note=46 velocity=0 time=0
EXTRACT: control_change channel=7 control=11 value=108 time=0.011990416666666667
EXTRACT: control_change channel=6 control=11 value=108 time=0.0023980833333333332
EXTRACT: control_change channel=7 control=11 value=99 time=0.021582749999999998
EXTRACT: control_change channel=6 control=11 value=99 time=0.0023980833333333332
EXTRACT: note_on channel=9 note=70 velocity=67 time=0.007194249999999999
EXTRACT: note_on channel=9 note=42 velocity=109 time=0.007194249999999999
EXTRACT: control_change channel=7 control=11 value=94 time=0.007194249999999999
EXTRACT: control_change channel=6 control=11 value=94 time=0.0023980833333333332
EXTRACT: control_change channel=7 control=11 value=90 time=0.019184666666666666
EXTRACT: control_change channel=6 control=11 value=90 time=0.0023980833333333332
EXTRACT: note_on channel=9 note=70 velocity=0 time=0.019184666666666666
EXTRACT: control_change channel=7 control=11 value=86 time=0.0023980833333333332
EXTRACT: control_change channel=6 control=11 value=86 time=0.0023980833333333332
EXTRACT: note_on channel=9 note=42 velocity=0 time=0.0023980833333333332
EXTRACT: note_on channel=7 note=44 velocity=0 time=0.03357316666666667
EXTRACT: control_change channel=7 control=11 value=120 time=0
EXTRACT: note_on channel=1 note=32 velocity=0 time=0.0023980833333333332
EXTRACT: note_on channel=6 note=56 velocity=0 time=0
EXTRACT: control_change channel=6 control=11 value=120 time=0
EXTRACT: note_on channel=7 note=48 velocity=71 time=0.007194249999999999
EXTRACT: note_on channel=6 note=60 velocity=71 time=0.0023980833333333332
EXTRACT: note_on channel=9 note=70 velocity=108 time=0.0047961666666666665
EXTRACT: note_on channel=4 note=60 velocity=0 time=0.0047961666666666665
EXTRACT: note_on channel=4 note=63 velocity=0 time=0
EXTRACT: note_on channel=4 note=51 velocity=0 time=0
EXTRACT: note_on channel=4 note=68 velocity=0 time=0
EXTRACT: note_on channel=4 note=67 velocity=86 time=0
EXTRACT: note_on channel=4 note=63 velocity=82 time=0
EXTRACT: note_on channel=4 note=60 velocity=81 time=0
EXTRACT: note_on channel=4 note=48 velocity=77 time=0
EXTRACT: note_on channel=5 note=84 velocity=0 time=0.0023980833333333332
EXTRACT: note_on channel=5 note=79 velocity=124 time=0.0023980833333333332
EXTRACT: note_on channel=9 note=35 velocity=97 time=0
EXTRACT: control_change channel=4 control=11 value=107 time=0.014388499999999999
EXTRACT: control_change channel=5 control=11 value=59 time=0.007194249999999999
EXTRACT: note_on channel=3 note=68 velocity=0 time=0.007194249999999999
EXTRACT: note_on channel=3 note=80 velocity=0 time=0
EXTRACT: control_change channel=7 control=11 value=115 time=0.016786583333333334
EXTRACT: control_change channel=6 control=11 value=115 time=0.0023980833333333332
EXTRACT: note_on channel=9 note=70 velocity=0 time=0
EXTRACT: note_on channel=9 note=35 velocity=0 time=0.009592333333333333
EXTRACT: control_change channel=7 control=11 value=111 time=0.011990416666666667
EXTRACT: control_change channel=6 control=11 value=111 time=0.0023980833333333332
EXTRACT: control_change channel=7 control=11 value=106 time=0.011990416666666667
EXTRACT: control_change channel=6 control=11 value=106 time=0.0023980833333333332
EXTRACT: control_change channel=4 control=11 value=115 time=0.021582749999999998
EXTRACT: control_change channel=7 control=11 value=99 time=0
EXTRACT: control_change channel=6 control=11 value=99 time=0.0023980833333333332
EXTRACT: control_change channel=7 control=11 value=94 time=0.021582749999999998
EXTRACT: control_change channel=6 control=11 value=94 time=0.0023980833333333332
EXTRACT: control_change channel=7 control=11 value=90 time=0.028776999999999997
EXTRACT: control_change channel=6 control=11 value=90 time=0.0023980833333333332
EXTRACT: control_change channel=5 control=11 value=57 time=0.021582749999999998
EXTRACT: control_change channel=7 control=11 value=86 time=0.014388499999999999
EXTRACT: control_change channel=6 control=11 value=86 time=0.0023980833333333332
EXTRACT: note_on channel=7 note=48 velocity=0 time=0.0047961666666666665
EXTRACT: note_on channel=6 note=60 velocity=0 time=0.0023980833333333332
EXTRACT: note_on channel=7 note=48 velocity=66 time=0.0047961666666666665
EXTRACT: note_on channel=1 note=36 velocity=116 time=0.0023980833333333332
EXTRACT: note_on channel=6 note=60 velocity=65 time=0
EXTRACT: note_on channel=9 note=70 velocity=77 time=0.007194249999999999
EXTRACT: control_change channel=7 control=11 value=116 time=0.007194249999999999
EXTRACT: control_change channel=6 control=11 value=116 time=0.0023980833333333332
EXTRACT: note_on channel=9 note=46 velocity=61 time=0.007194249999999999
EXTRACT: control_change channel=7 control=11 value=103 time=0.0047961666666666665
EXTRACT: control_change channel=6 control=11 value=103 time=0.0023980833333333332
EXTRACT: note_on channel=3 note=75 velocity=115 time=0.007194249999999999
EXTRACT: note_on channel=3 note=63 velocity=83 time=0
EXTRACT: control_change channel=7 control=11 value=92 time=0.007194249999999999
EXTRACT: control_change channel=6 control=11 value=92 time=0.0023980833333333332
EXTRACT: control_change channel=7 control=11 value=83 time=0.011990416666666667
EXTRACT: control_change channel=6 control=11 value=83 time=0.0023980833333333332
EXTRACT: note_on channel=9 note=70 velocity=0 time=0.0023980833333333332
EXTRACT: control_change channel=7 control=11 value=73 time=0.011990416666666667
EXTRACT: control_change channel=6 control=11 value=73 time=0.0023980833333333332
EXTRACT: note_on channel=9 note=46 velocity=0 time=0.0023980833333333332
EXTRACT: control_change channel=7 control=11 value=65 time=0.009592333333333333
EXTRACT: control_change channel=6 control=11 value=65 time=0.0023980833333333332
EXTRACT: note_on channel=3 note=63 velocity=0 time=0.014388499999999999
EXTRACT: note_on channel=3 note=75 velocity=0 time=0
EXTRACT: control_change channel=7 control=11 value=60 time=0
EXTRACT: control_change channel=6 control=11 value=60 time=0.0023980833333333332
EXTRACT: note_on channel=9 note=70 velocity=67 time=0.014388499999999999
EXTRACT: control_change channel=7 control=11 value=53 time=0.007194249999999999
EXTRACT: note_on channel=9 note=42 velocity=113 time=0
EXTRACT: control_change channel=6 control=11 value=53 time=0.0023980833333333332
EXTRACT: control_change channel=7 control=11 value=49 time=0.011990416666666667
EXTRACT: control_change channel=6 control=11 value=49 time=0.0023980833333333332
EXTRACT: control_change channel=7 control=11 value=44 time=0.014388499999999999
EXTRACT: control_change channel=6 control=11 value=44 time=0.0023980833333333332
EXTRACT: control_change channel=4 control=11 value=119 time=0.0047961666666666665
EXTRACT: note_on channel=9 note=70 velocity=0 time=0.011990416666666667
EXTRACT: control_change channel=7 control=11 value=40 time=0.0047961666666666665
EXTRACT: control_change channel=6 control=11 value=40 time=0.0023980833333333332
EXTRACT: note_on channel=9 note=42 velocity=0 time=0
EXTRACT: note_on channel=1 note=36 velocity=0 time=0.035971249999999996
EXTRACT: note_on channel=9 note=70 velocity=103 time=0.016786583333333334
EXTRACT: note_on channel=3 note=84 velocity=110 time=0.007194249999999999
EXTRACT: note_on channel=3 note=72 velocity=80 time=0
EXTRACT: note_on channel=9 note=37 velocity=91 time=0
EXTRACT: note_on channel=9 note=28 velocity=68 time=0
EXTRACT: note_on channel=9 note=39 velocity=67 time=0
EXTRACT: note_on channel=9 note=35 velocity=97 time=0
EXTRACT: note_on channel=9 note=28 velocity=0 time=0.0023980833333333332
EXTRACT: note_on channel=9 note=37 velocity=0 time=0
EXTRACT: note_on channel=9 note=40 velocity=64 time=0.0023980833333333332
EXTRACT: control_change channel=7 control=11 value=36 time=0.016786583333333334
EXTRACT: control_change channel=6 control=11 value=36 time=0.0023980833333333332
EXTRACT: note_on channel=9 note=39 velocity=50 time=0.007194249999999999
EXTRACT: note_on channel=9 note=70 velocity=0 time=0.019184666666666666
EXTRACT: note_on channel=9 note=39 velocity=0 time=0.007194249999999999
EXTRACT: note_on channel=9 note=35 velocity=0 time=0
EXTRACT: note_on channel=9 note=40 velocity=0 time=0.0047961666666666665
EXTRACT: note_on channel=9 note=39 velocity=0 time=0.026378916666666665
EXTRACT: control_change channel=4 control=11 value=111 time=0.0047961666666666665
EXTRACT: control_change channel=5 control=11 value=59 time=0.007194249999999999
EXTRACT: control_change channel=7 control=11 value=42 time=0.04556358333333333
EXTRACT: control_change channel=6 control=11 value=42 time=0.0023980833333333332
EXTRACT: control_change channel=7 control=11 value=46 time=0.014388499999999999
EXTRACT: control_change channel=6 control=11 value=46 time=0.0023980833333333332
EXTRACT: note_on channel=3 note=72 velocity=0 time=0.03357316666666667
EXTRACT: note_on channel=3 note=84 velocity=0 time=0
EXTRACT: control_change channel=7 control=11 value=51 time=0.0023980833333333332
EXTRACT: control_change channel=6 control=11 value=51 time=0.0023980833333333332
EXTRACT: note_on channel=9 note=70 velocity=75 time=0.011990416666666667
EXTRACT: note_on channel=1 note=36 velocity=115 time=0.0047961666666666665
EXTRACT: note_on channel=3 note=82 velocity=107 time=0.009592333333333333
EXTRACT: note_on channel=3 note=70 velocity=78 time=0
EXTRACT: note_on channel=9 note=46 velocity=62 time=0.011990416666666667
EXTRACT: control_change channel=5 control=11 value=57 time=0.007194249999999999
EXTRACT: control_change channel=7 control=11 value=55 time=0
EXTRACT: control_change channel=6 control=11 value=55 time=0.0023980833333333332
EXTRACT: control_change channel=4 control=11 value=103 time=0.021582749999999998
EXTRACT: note_on channel=9 note=70 velocity=0 time=0
EXTRACT: note_on channel=3 note=70 velocity=0 time=0.009592333333333333
EXTRACT: note_on channel=3 note=82 velocity=0 time=0
EXTRACT: note_on channel=9 note=46 velocity=0 time=0.016786583333333334
EXTRACT: control_change channel=7 control=11 value=61 time=0.026378916666666665
EXTRACT: control_change channel=6 control=11 value=61 time=0.0023980833333333332
EXTRACT: note_on channel=9 note=70 velocity=67 time=0.014388499999999999
EXTRACT: note_on channel=9 note=42 velocity=111 time=0.009592333333333333
EXTRACT: note_on channel=9 note=70 velocity=0 time=0.047961666666666666
EXTRACT: note_on channel=9 note=42 velocity=0 time=0.009592333333333333
EXTRACT: note_on channel=1 note=36 velocity=0 time=0.035971249999999996
EXTRACT: note_on channel=9 note=70 velocity=103 time=0.014388499999999999
EXTRACT: note_on channel=5 note=79 velocity=0 time=0.007194249999999999
EXTRACT: note_on channel=5 note=82 velocity=127 time=0
EXTRACT: note_on channel=9 note=35 velocity=97 time=0
EXTRACT: note_on channel=3 note=82 velocity=115 time=0.011990416666666667
EXTRACT: note_on channel=3 note=70 velocity=83 time=0
EXTRACT: control_change channel=5 control=11 value=59 time=0.028776999999999997
EXTRACT: note_on channel=9 note=70 velocity=0 time=0.009592333333333333
EXTRACT: note_on channel=9 note=35 velocity=0 time=0.007194249999999999
EXTRACT: control_change channel=7 control=11 value=65 time=0.0047961666666666665
EXTRACT: control_change channel=6 control=11 value=65 time=0.0023980833333333332
EXTRACT: control_change channel=7 control=11 value=71 time=0.08393291666666666
EXTRACT: control_change channel=6 control=11 value=71 time=0.0023980833333333332
EXTRACT: control_change channel=5 control=11 value=57 time=0.028776999999999997
EXTRACT: control_change channel=7 control=11 value=75 time=0.023980833333333333
EXTRACT: control_change channel=6 control=11 value=75 time=0.0023980833333333332
EXTRACT: note_on channel=3 note=70 velocity=0 time=0.0047961666666666665
EXTRACT: note_on channel=3 note=82 velocity=0 time=0
EXTRACT: note_on channel=1 note=36 velocity=116 time=0.009592333333333333
EXTRACT: note_on channel=3 note=80 velocity=107 time=0.009592333333333333
EXTRACT: note_on channel=3 note=68 velocity=78 time=0
EXTRACT: control_change channel=7 control=11 value=79 time=0.0047961666666666665
EXTRACT: note_on channel=9 note=82 velocity=65 time=0
EXTRACT: control_change channel=6 control=11 value=79 time=0.0023980833333333332
EXTRACT: note_on channel=9 note=46 velocity=63 time=0.0047961666666666665
EXTRACT: control_change channel=7 control=11 value=83 time=0.007194249999999999
EXTRACT: control_change channel=6 control=11 value=83 time=0.0023980833333333332
EXTRACT: note_on channel=3 note=68 velocity=0 time=0.028776999999999997
EXTRACT: note_on channel=3 note=80 velocity=0 time=0
EXTRACT: control_change channel=7 control=11 value=88 time=0
EXTRACT: control_change channel=6 control=11 value=88 time=0.0023980833333333332
EXTRACT: note_on channel=9 note=82 velocity=0 time=0.009592333333333333
EXTRACT: control_change channel=7 control=11 value=92 time=0.0047961666666666665
EXTRACT: control_change channel=6 control=11 value=92 time=0.0023980833333333332
EXTRACT: note_on channel=9 note=46 velocity=0 time=0
EXTRACT: control_change channel=7 control=11 value=96 time=0.019184666666666666
EXTRACT: control_change channel=6 control=11 value=96 time=0.0023980833333333332
EXTRACT: control_change channel=7 control=11 value=100 time=0.014388499999999999
EXTRACT: control_change channel=6 control=11 value=100 time=0.0023980833333333332
EXTRACT: note_on channel=9 note=82 velocity=57 time=0.014388499999999999
EXTRACT: note_on channel=9 note=42 velocity=111 time=0
EXTRACT: control_change channel=7 control=11 value=105 time=0.007194249999999999
EXTRACT: control_change channel=6 control=11 value=105 time=0.0023980833333333332
EXTRACT: control_change channel=7 control=11 value=109 time=0.011990416666666667
EXTRACT: control_change channel=6 control=11 value=109 time=0.0023980833333333332
EXTRACT: control_change channel=7 control=11 value=114 time=0.014388499999999999
EXTRACT: note_on channel=9 note=39 velocity=50 time=0
EXTRACT: control_change channel=6 control=11 value=114 time=0.0023980833333333332
EXTRACT: control_change channel=7 control=11 value=118 time=0.011990416666666667
EXTRACT: control_change channel=6 control=11 value=118 time=0.0023980833333333332
EXTRACT: note_on channel=9 note=42 velocity=0 time=0.0023980833333333332
EXTRACT: note_on channel=9 note=82 velocity=0 time=0
EXTRACT: control_change channel=4 control=11 value=103 time=0.011990416666666667
EXTRACT: note_on channel=7 note=48 velocity=0 time=0.011990416666666667
EXTRACT: note_on channel=1 note=36 velocity=0 time=0.011990416666666667
EXTRACT: note_on channel=6 note=60 velocity=0 time=0
EXTRACT: note_on channel=9 note=39 velocity=0 time=0.0023980833333333332
EXTRACT: note_on channel=3 note=80 velocity=111 time=0.021582749999999998
EXTRACT: note_on channel=3 note=68 velocity=81 time=0
EXTRACT: note_on channel=9 note=40 velocity=55 time=0
EXTRACT: note_on channel=9 note=37 velocity=91 time=0
EXTRACT: note_on channel=9 note=28 velocity=68 time=0
EXTRACT: note_on channel=9 note=39 velocity=73 time=0
EXTRACT: note_on channel=9 note=82 velocity=71 time=0
EXTRACT: note_on channel=9 note=35 velocity=97 time=0
EXTRACT: note_on channel=9 note=28 velocity=0 time=0.0023980833333333332
EXTRACT: note_on channel=9 note=37 velocity=0 time=0
EXTRACT: note_on channel=9 note=39 velocity=55 time=0.028776999999999997
EXTRACT: note_on channel=9 note=39 velocity=0 time=0.026378916666666665
EXTRACT: note_on channel=9 note=82 velocity=0 time=0
EXTRACT: note_on channel=9 note=40 velocity=0 time=0
EXTRACT: note_on channel=9 note=35 velocity=0 time=0
EXTRACT: note_on channel=9 note=39 velocity=0 time=0.031175083333333332
EXTRACT: note_on channel=7 note=48 velocity=71 time=0.12709841666666666
EXTRACT: note_on channel=6 note=60 velocity=70 time=0.0023980833333333332
EXTRACT: note_on channel=1 note=36 velocity=113 time=0.0023980833333333332
EXTRACT: note_on channel=9 note=82 velocity=53 time=0.011990416666666667
EXTRACT: note_on channel=9 note=46 velocity=62 time=0.009592333333333333
EXTRACT: pitchwheel channel=3 pitch=140 time=0.007194249999999999
EXTRACT: pitchwheel channel=3 pitch=360 time=0.0047961666666666665
EXTRACT: pitchwheel channel=3 pitch=640 time=0.0023980833333333332
EXTRACT: pitchwheel channel=3 pitch=980 time=0.0047961666666666665
EXTRACT: pitchwheel channel=3 pitch=1300 time=0
EXTRACT: pitchwheel channel=3 pitch=1680 time=0.007194249999999999
EXTRACT: control_change channel=7 control=11 value=118 time=0.0023980833333333332
EXTRACT: pitchwheel channel=3 pitch=2120 time=0.0023980833333333332
EXTRACT: control_change channel=6 control=11 value=118 time=0
EXTRACT: pitchwheel channel=3 pitch=2580 time=0.0023980833333333332
EXTRACT: pitchwheel channel=3 pitch=3040 time=0
EXTRACT: pitchwheel channel=3 pitch=3520 time=0.009592333333333333
EXTRACT: pitchwheel channel=3 pitch=4000 time=0
EXTRACT: note_on channel=9 note=82 velocity=0 time=0.0047961666666666665
EXTRACT: pitchwheel channel=3 pitch=4440 time=0.0023980833333333332
EXTRACT: pitchwheel channel=3 pitch=4920 time=0.0023980833333333332
EXTRACT: control_change channel=7 control=11 value=114 time=0
EXTRACT: control_change channel=6 control=11 value=114 time=0.0023980833333333332
EXTRACT: pitchwheel channel=3 pitch=5480 time=0.0023980833333333332
EXTRACT: note_on channel=9 note=46 velocity=0 time=0
EXTRACT: pitchwheel channel=3 pitch=6020 time=0.0047961666666666665
EXTRACT: pitchwheel channel=3 pitch=6480 time=0.0023980833333333332
EXTRACT: pitchwheel channel=3 pitch=6960 time=0.0047961666666666665
EXTRACT: control_change channel=4 control=11 value=103 time=0
EXTRACT: pitchwheel channel=3 pitch=7480 time=0.0047961666666666665
EXTRACT: pitchwheel channel=3 pitch=7900 time=0.0023980833333333332
EXTRACT: control_change channel=7 control=11 value=109 time=0
EXTRACT: control_change channel=6 control=11 value=109 time=0.0023980833333333332
EXTRACT: pitchwheel channel=3 pitch=8160 time=0.0023980833333333332
EXTRACT: pitchwheel channel=3 pitch=8191 time=0.0023980833333333332
EXTRACT: control_change channel=7 control=11 value=104 time=0.007194249999999999
EXTRACT: control_change channel=6 control=11 value=104 time=0.0023980833333333332
EXTRACT: note_on channel=3 note=68 velocity=0 time=0.009592333333333333
EXTRACT: note_on channel=3 note=80 velocity=0 time=0
EXTRACT: note_on channel=9 note=82 velocity=50 time=0.0047961666666666665
EXTRACT: note_on channel=9 note=42 velocity=113 time=0
EXTRACT: control_change channel=7 control=11 value=98 time=0.014388499999999999
EXTRACT: control_change channel=6 control=11 value=98 time=0.0023980833333333332
EXTRACT: control_change channel=7 control=11 value=94 time=0.028776999999999997
EXTRACT: control_change channel=6 control=11 value=94 time=0.0023980833333333332
EXTRACT: note_on channel=9 note=42 velocity=0 time=0.009592333333333333
EXTRACT: note_on channel=9 note=82 velocity=0 time=0
EXTRACT: pitchwheel channel=3 pitch=0 time=0.028776999999999997
EXTRACT: note_on channel=7 note=48 velocity=0 time=0.0047961666666666665
EXTRACT: note_on channel=6 note=60 velocity=0 time=0.0023980833333333332
EXTRACT: control_change channel=7 control=11 value=120 time=0
EXTRACT: note_on channel=1 note=36 velocity=0 time=0.0023980833333333332
EXTRACT: control_change channel=6 control=11 value=120 time=0
EXTRACT: note_on channel=7 note=49 velocity=73 time=0.0047961666666666665
EXTRACT: note_on channel=6 note=61 velocity=72 time=0.0023980833333333332
EXTRACT: note_on channel=9 note=70 velocity=103 time=0.007194249999999999
EXTRACT: note_on channel=4 note=48 velocity=0 time=0.0023980833333333332
EXTRACT: note_on channel=4 note=67 velocity=0 time=0
EXTRACT: note_on channel=4 note=63 velocity=0 time=0
EXTRACT: note_on channel=4 note=60 velocity=0 time=0
EXTRACT: note_on channel=4 note=49 velocity=77 time=0
EXTRACT: note_on channel=4 note=68 velocity=84 time=0
EXTRACT: note_on channel=4 note=61 velocity=81 time=0
EXTRACT: note_on channel=4 note=65 velocity=83 time=0
EXTRACT: note_on channel=5 note=77 velocity=116 time=0
EXTRACT: note_on channel=5 note=61 velocity=105 time=0
EXTRACT: note_on channel=5 note=82 velocity=0 time=0.0023980833333333332
EXTRACT: note_on channel=3 note=65 velocity=83 time=0.0023980833333333332
EXTRACT: note_on channel=3 note=77 velocity=114 time=0
EXTRACT: note_on channel=9 note=35 velocity=97 time=0
EXTRACT: control_change channel=5 control=11 value=59 time=0.023980833333333333
EXTRACT: control_change channel=4 control=11 value=109 time=0.014388499999999999
EXTRACT: control_change channel=7 control=11 value=116 time=0.007194249999999999
EXTRACT: control_change channel=6 control=11 value=116 time=0.0023980833333333332
EXTRACT: note_on channel=9 note=70 velocity=0 time=0.0023980833333333332
EXTRACT: note_on channel=9 note=35 velocity=0 time=0.007194249999999999
EXTRACT: control_change channel=7 control=11 value=110 time=0.026378916666666665
EXTRACT: control_change channel=6 control=11 value=110 time=0.0023980833333333332
EXTRACT: control_change channel=7 control=11 value=104 time=0.028776999999999997
EXTRACT: control_change channel=6 control=11 value=104 time=0.0023980833333333332
EXTRACT: control_change channel=4 control=11 value=117 time=0.023980833333333333
EXTRACT: control_change channel=7 control=11 value=100 time=0.0047961666666666665
EXTRACT: control_change channel=6 control=11 value=100 time=0.0023980833333333332
EXTRACT: control_change channel=5 control=11 value=57 time=0.03836933333333333
EXTRACT: control_change channel=7 control=11 value=96 time=0.014388499999999999
EXTRACT: control_change channel=6 control=11 value=96 time=0.0023980833333333332
EXTRACT: note_on channel=7 note=49 velocity=0 time=0.0047961666666666665
EXTRACT: note_on channel=6 note=61 velocity=0 time=0.0023980833333333332
EXTRACT: note_on channel=7 note=49 velocity=66 time=0.007194249999999999
EXTRACT: note_on channel=1 note=25 velocity=123 time=0.0023980833333333332
EXTRACT: note_on channel=6 note=61 velocity=62 time=0
EXTRACT: note_on channel=9 note=70 velocity=77 time=0.0047961666666666665
EXTRACT: control_change channel=7 control=11 value=118 time=0.007194249999999999
EXTRACT: control_change channel=6 control=11 value=118 time=0.0023980833333333332
EXTRACT: note_on channel=9 note=46 velocity=61 time=0.007194249999999999
EXTRACT: control_change channel=7 control=11 value=111 time=0.007194249999999999
EXTRACT: control_change channel=6 control=11 value=111 time=0.0023980833333333332
EXTRACT: control_change channel=7 control=11 value=103 time=0.011990416666666667
EXTRACT: control_change channel=6 control=11 value=103 time=0.0023980833333333332
EXTRACT: control_change channel=7 control=11 value=98 time=0.014388499999999999
EXTRACT: control_change channel=6 control=11 value=98 time=0.0023980833333333332
EXTRACT: note_on channel=9 note=70 velocity=0 time=0
EXTRACT: control_change channel=7 control=11 value=92 time=0.011990416666666667
EXTRACT: control_change channel=6 control=11 value=92 time=0.0023980833333333332
EXTRACT: note_on channel=9 note=46 velocity=0 time=0.0023980833333333332
EXTRACT: control_change channel=7 control=11 value=86 time=0.011990416666666667
EXTRACT: control_change channel=6 control=11 value=86 time=0.0023980833333333332
EXTRACT: control_change channel=7 control=11 value=81 time=0.011990416666666667
EXTRACT: control_change channel=6 control=11 value=81 time=0.0023980833333333332
EXTRACT: note_on channel=9 note=70 velocity=67 time=0.014388499999999999
EXTRACT: control_change channel=7 control=11 value=76 time=0.007194249999999999
EXTRACT: control_change channel=6 control=11 value=76 time=0.0023980833333333332
EXTRACT: note_on channel=9 note=42 velocity=109 time=0
EXTRACT: note_on channel=3 note=77 velocity=0 time=0.021582749999999998
EXTRACT: note_on channel=3 note=65 velocity=0 time=0
EXTRACT: control_change channel=7 control=11 value=72 time=0
EXTRACT: control_change channel=6 control=11 value=72 time=0.0023980833333333332
EXTRACT: control_change channel=7 control=11 value=68 time=0.021582749999999998
EXTRACT: control_change channel=6 control=11 value=68 time=0.0023980833333333332
EXTRACT: note_on channel=9 note=70 velocity=0 time=0
EXTRACT: note_on channel=9 note=42 velocity=0 time=0.009592333333333333
EXTRACT: control_change channel=7 control=11 value=64 time=0.009592333333333333
EXTRACT: control_change channel=6 control=11 value=64 time=0.0023980833333333332
EXTRACT: note_on channel=1 note=25 velocity=0 time=0.023980833333333333
EXTRACT: note_on channel=9 note=70 velocity=108 time=0.014388499999999999
EXTRACT: note_on channel=5 note=61 velocity=0 time=0.0023980833333333332
EXTRACT: note_on channel=5 note=77 velocity=0 time=0
EXTRACT: note_on channel=5 note=63 velocity=106 time=0.0023980833333333332
EXTRACT: note_on channel=5 note=79 velocity=116 time=0
EXTRACT: note_on channel=9 note=37 velocity=91 time=0.0023980833333333332
EXTRACT: note_on channel=9 note=28 velocity=68 time=0
EXTRACT: note_on channel=9 note=39 velocity=67 time=0
EXTRACT: note_on channel=9 note=35 velocity=97 time=0
EXTRACT: note_on channel=9 note=28 velocity=0 time=0.0023980833333333332
EXTRACT: note_on channel=9 note=37 velocity=0 time=0
EXTRACT: note_on channel=9 note=40 velocity=64 time=0.0023980833333333332
EXTRACT: control_change channel=5 control=11 value=59 time=0.011990416666666667
EXTRACT: note_on channel=3 note=67 velocity=81 time=0.0047961666666666665
EXTRACT: note_on channel=3 note=79 velocity=112 time=0
EXTRACT: note_on channel=9 note=39 velocity=50 time=0.009592333333333333
EXTRACT: note_on channel=9 note=70 velocity=0 time=0.019184666666666666
EXTRACT: control_change channel=4 control=11 value=113 time=0.0047961666666666665
EXTRACT: note_on channel=9 note=39 velocity=0 time=0.0023980833333333332
EXTRACT: note_on channel=9 note=35 velocity=0 time=0
EXTRACT: control_change channel=5 control=11 value=61 time=0.0047961666666666665
EXTRACT: note_on channel=9 note=40 velocity=0 time=0
EXTRACT: control_change channel=7 control=11 value=60 time=0.007194249999999999
EXTRACT: control_change channel=6 control=11 value=60 time=0.0023980833333333332
EXTRACT: note_on channel=9 note=39 velocity=0 time=0.016786583333333334
EXTRACT: control_change channel=5 control=11 value=59 time=0.035971249999999996
EXTRACT: control_change channel=5 control=11 value=57 time=0.07194249999999999
EXTRACT: control_change channel=4 control=11 value=105 time=0.007194249999999999
EXTRACT: note_on channel=9 note=70 velocity=75 time=0.011990416666666667
EXTRACT: note_on channel=1 note=25 velocity=122 time=0.0047961666666666665
EXTRACT: control_change channel=7 control=11 value=64 time=0.014388499999999999
EXTRACT: control_change channel=6 control=11 value=64 time=0.0023980833333333332
EXTRACT: note_on channel=9 note=46 velocity=59 time=0.0047961666666666665
EXTRACT: note_on channel=9 note=70 velocity=0 time=0.031175083333333332
EXTRACT: control_change channel=7 control=11 value=69 time=0.007194249999999999
EXTRACT: control_change channel=6 control=11 value=69 time=0.0023980833333333332
EXTRACT: note_on channel=9 note=46 velocity=0 time=0.016786583333333334
EXTRACT: note_on channel=9 note=70 velocity=67 time=0.04556358333333333
EXTRACT: control_change channel=7 control=11 value=73 time=0.0047961666666666665
EXTRACT: control_change channel=6 control=11 value=73 time=0.0023980833333333332
EXTRACT: note_on channel=9 note=42 velocity=108 time=0
EXTRACT: note_on channel=9 note=70 velocity=0 time=0.050359749999999995
EXTRACT: note_on channel=9 note=42 velocity=0 time=0.007194249999999999
EXTRACT: note_on channel=3 note=79 velocity=0 time=0.016786583333333334
EXTRACT: note_on channel=3 note=67 velocity=0 time=0
EXTRACT: note_on channel=1 note=25 velocity=0 time=0.019184666666666666
EXTRACT: note_on channel=9 note=70 velocity=108 time=0.014388499999999999
EXTRACT: note_on channel=5 note=79 velocity=0 time=0.0047961666666666665
EXTRACT: note_on channel=5 note=63 velocity=0 time=0
EXTRACT: note_on channel=5 note=65 velocity=108 time=0
EXTRACT: note_on channel=5 note=80 velocity=121 time=0
EXTRACT: note_on channel=9 note=35 velocity=97 time=0.0047961666666666665
EXTRACT: note_on channel=3 note=68 velocity=80 time=0.019184666666666666
EXTRACT: note_on channel=3 note=80 velocity=110 time=0
EXTRACT: control_change channel=5 control=11 value=59 time=0.0047961666666666665
EXTRACT: control_change channel=7 control=11 value=78 time=0.0047961666666666665
EXTRACT: control_change channel=6 control=11 value=78 time=0.0023980833333333332
EXTRACT: note_on channel=9 note=70 velocity=0 time=0.016786583333333334
EXTRACT: note_on channel=9 note=35 velocity=0 time=0.009592333333333333
EXTRACT: control_change channel=5 control=11 value=57 time=0.1294965
EXTRACT: note_on channel=1 note=25 velocity=120 time=0.03357316666666667
EXTRACT: note_on channel=9 note=70 velocity=76 time=0.0047961666666666665
EXTRACT: note_on channel=9 note=46 velocity=61 time=0.016786583333333334
EXTRACT: note_on channel=9 note=70 velocity=0 time=0.04076741666666667
EXTRACT: control_change channel=7 control=11 value=83 time=0.011990416666666667
EXTRACT: control_change channel=6 control=11 value=83 time=0.0023980833333333332
EXTRACT: note_on channel=9 note=46 velocity=0 time=0.0023980833333333332
EXTRACT: control_change channel=4 control=11 value=101 time=0.0047961666666666665
EXTRACT: note_on channel=9 note=70 velocity=67 time=0.03836933333333333
EXTRACT: note_on channel=9 note=42 velocity=108 time=0.007194249999999999
EXTRACT: control_change channel=7 control=11 value=87 time=0.03836933333333333
EXTRACT: control_change channel=6 control=11 value=87 time=0.0023980833333333332
EXTRACT: note_on channel=3 note=80 velocity=0 time=0.009592333333333333
EXTRACT: note_on channel=3 note=68 velocity=0 time=0
EXTRACT: note_on channel=9 note=70 velocity=0 time=0
EXTRACT: note_on channel=9 note=42 velocity=0 time=0.007194249999999999
EXTRACT: control_change channel=7 control=11 value=91 time=0.028776999999999997
EXTRACT: control_change channel=6 control=11 value=91 time=0.0023980833333333332
EXTRACT: note_on channel=1 note=25 velocity=0 time=0.007194249999999999
EXTRACT: control_change channel=7 control=11 value=95 time=0.011990416666666667
EXTRACT: control_change channel=6 control=11 value=95 time=0.0023980833333333332
EXTRACT: note_on channel=9 note=70 velocity=107 time=0
EXTRACT: note_on channel=5 note=80 velocity=0 time=0.0023980833333333332
EXTRACT: note_on channel=5 note=65 velocity=0 time=0
EXTRACT: note_on channel=5 note=67 velocity=109 time=0
EXTRACT: note_on channel=5 note=82 velocity=118 time=0
EXTRACT: note_on channel=9 note=40 velocity=55 time=0.0047961666666666665
EXTRACT: note_on channel=9 note=37 velocity=91 time=0
EXTRACT: note_on channel=9 note=28 velocity=68 time=0
EXTRACT: note_on channel=9 note=39 velocity=72 time=0
EXTRACT: note_on channel=9 note=35 velocity=97 time=0
EXTRACT: note_on channel=9 note=28 velocity=0 time=0.0023980833333333332
EXTRACT: note_on channel=9 note=37 velocity=0 time=0
EXTRACT: note_on channel=3 note=65 velocity=80 time=0.0023980833333333332
EXTRACT: note_on channel=3 note=77 velocity=110 time=0
EXTRACT: control_change channel=5 control=11 value=59 time=0.019184666666666666
EXTRACT: note_on channel=9 note=39 velocity=55 time=0.007194249999999999
EXTRACT: control_change channel=7 control=11 value=100 time=0.007194249999999999
EXTRACT: control_change channel=6 control=11 value=100 time=0.0023980833333333332
EXTRACT: note_on channel=9 note=70 velocity=0 time=0.009592333333333333
EXTRACT: note_on channel=9 note=35 velocity=0 time=0.007194249999999999
EXTRACT: note_on channel=9 note=40 velocity=0 time=0
EXTRACT: note_on channel=9 note=39 velocity=0 time=0
EXTRACT: control_change channel=7 control=11 value=104 time=0.011990416666666667
EXTRACT: control_change channel=6 control=11 value=104 time=0.0023980833333333332
EXTRACT: note_on channel=9 note=39 velocity=0 time=0.016786583333333334
EXTRACT: control_change channel=7 control=11 value=108 time=0.011990416666666667
EXTRACT: control_change channel=6 control=11 value=108 time=0.0023980833333333332
EXTRACT: control_change channel=7 control=11 value=113 time=0.028776999999999997
EXTRACT: control_change channel=6 control=11 value=113 time=0.0023980833333333332
EXTRACT: control_change channel=7 control=11 value=118 time=0.028776999999999997
EXTRACT: control_change channel=6 control=11 value=118 time=0.0023980833333333332
EXTRACT: control_change channel=5 control=11 value=57 time=0.021582749999999998
EXTRACT: note_on channel=7 note=49 velocity=0 time=0.019184666666666666
EXTRACT: note_on channel=6 note=61 velocity=0 time=0.0047961666666666665
EXTRACT: note_on channel=1 note=25 velocity=120 time=0.009592333333333333
EXTRACT: note_on channel=9 note=70 velocity=73 time=0.0047961666666666665
EXTRACT: control_change channel=4 control=11 value=105 time=0.016786583333333334
EXTRACT: note_on channel=9 note=46 velocity=61 time=0
EXTRACT: note_on channel=9 note=70 velocity=0 time=0.04076741666666667
EXTRACT: note_on channel=9 note=46 velocity=0 time=0.016786583333333334
EXTRACT: note_on channel=9 note=70 velocity=67 time=0.043165499999999996
EXTRACT: note_on channel=9 note=42 velocity=109 time=0.009592333333333333
EXTRACT: note_on channel=9 note=70 velocity=0 time=0.047961666666666666
EXTRACT: note_on channel=3 note=77 velocity=0 time=0.009592333333333333
EXTRACT: note_on channel=3 note=65 velocity=0 time=0
EXTRACT: note_on channel=9 note=42 velocity=0 time=0
EXTRACT: note_on channel=1 note=25 velocity=0 time=0.035971249999999996
EXTRACT: note_on channel=7 note=51 velocity=68 time=0.0047961666666666665
EXTRACT: note_on channel=6 note=63 velocity=70 time=0.0023980833333333332
EXTRACT: note_on channel=9 note=70 velocity=108 time=0.007194249999999999
EXTRACT: note_on channel=4 note=65 velocity=0 time=0.0023980833333333332
EXTRACT: note_on channel=4 note=49 velocity=0 time=0
EXTRACT: note_on channel=4 note=68 velocity=0 time=0
EXTRACT: note_on channel=4 note=61 velocity=0 time=0
EXTRACT: note_on channel=5 note=82 velocity=0 time=0
EXTRACT: note_on channel=5 note=67 velocity=0 time=0
EXTRACT: note_on channel=11 note=51 velocity=127 time=0
EXTRACT: note_on channel=3 note=67 velocity=81 time=0.0023980833333333332
EXTRACT: note_on channel=3 note=79 velocity=112 time=0
EXTRACT: note_on channel=4 note=63 velocity=82 time=0
EXTRACT: note_on channel=4 note=70 velocity=85 time=0
EXTRACT: note_on channel=4 note=67 velocity=86 time=0
EXTRACT: note_on channel=4 note=55 velocity=80 time=0
EXTRACT: note_on channel=5 note=79 velocity=116 time=0
EXTRACT: note_on channel=5 note=63 velocity=105 time=0
EXTRACT: control_change channel=7 control=11 value=117 time=0.0023980833333333332
EXTRACT: note_on channel=9 note=35 velocity=97 time=0
EXTRACT: control_change channel=6 control=11 value=117 time=0.0023980833333333332
EXTRACT: control_change channel=7 control=11 value=108 time=0.011990416666666667
EXTRACT: control_change channel=4 control=11 value=106 time=0.0023980833333333332
EXTRACT: control_change channel=6 control=11 value=108 time=0
EXTRACT: note_on channel=11 note=51 velocity=0 time=0.009592333333333333
EXTRACT: control_change channel=7 control=11 value=98 time=0.0047961666666666665
EXTRACT: control_change channel=6 control=11 value=98 time=0.0023980833333333332
EXTRACT: control_change channel=5 control=11 value=59 time=0.007194249999999999
EXTRACT: control_change channel=7 control=11 value=91 time=0.0047961666666666665
EXTRACT: control_change channel=6 control=11 value=91 time=0.0023980833333333332
EXTRACT: note_on channel=9 note=70 velocity=0 time=0.0023980833333333332
EXTRACT: note_on channel=9 note=35 velocity=0 time=0.007194249999999999
EXTRACT: control_change channel=7 control=11 value=83 time=0.0047961666666666665
EXTRACT: control_change channel=6 control=11 value=83 time=0.0023980833333333332
EXTRACT: control_change channel=7 control=11 value=76 time=0.011990416666666667
EXTRACT: control_change channel=6 control=11 value=76 time=0.0023980833333333332
EXTRACT: control_change channel=7 control=11 value=69 time=0.014388499999999999
EXTRACT: control_change channel=6 control=11 value=69 time=0.0023980833333333332
EXTRACT: control_change channel=4 control=11 value=114 time=0.014388499999999999
EXTRACT: control_change channel=7 control=11 value=65 time=0
EXTRACT: control_change channel=6 control=11 value=65 time=0.0023980833333333332
EXTRACT: control_change channel=7 control=11 value=60 time=0.011990416666666667
EXTRACT: control_change channel=6 control=11 value=60 time=0.0023980833333333332
EXTRACT: control_change channel=7 control=11 value=54 time=0.028776999999999997
EXTRACT: control_change channel=6 control=11 value=54 time=0.0023980833333333332
EXTRACT: control_change channel=5 control=11 value=57 time=0.014388499999999999
EXTRACT: control_change channel=7 control=11 value=50 time=0
EXTRACT: control_change channel=6 control=11 value=50 time=0.0023980833333333332
EXTRACT: control_change channel=7 control=11 value=46 time=0.019184666666666666
EXTRACT: control_change channel=6 control=11 value=46 time=0.0023980833333333332
EXTRACT: note_on channel=1 note=27 velocity=124 time=0.023980833333333333
EXTRACT: note_on channel=9 note=70 velocity=77 time=0.007194249999999999
EXTRACT: note_on channel=9 note=46 velocity=61 time=0.014388499999999999
EXTRACT: note_on channel=9 note=70 velocity=0 time=0.043165499999999996
EXTRACT: note_on channel=9 note=46 velocity=0 time=0.014388499999999999
EXTRACT: control_change channel=7 control=11 value=42 time=0.0047961666666666665
EXTRACT: control_change channel=6 control=11 value=42 time=0.0023980833333333332
EXTRACT: note_on channel=9 note=70 velocity=67 time=0.03836933333333333
EXTRACT: note_on channel=9 note=42 velocity=113 time=0.007194249999999999
EXTRACT: control_change channel=4 control=11 value=118 time=0.04556358333333333
EXTRACT: note_on channel=3 note=79 velocity=0 time=0.0047961666666666665
EXTRACT: note_on channel=3 note=67 velocity=0 time=0
EXTRACT: note_on channel=9 note=70 velocity=0 time=0
EXTRACT: note_on channel=9 note=42 velocity=0 time=0.007194249999999999
EXTRACT: note_on channel=1 note=27 velocity=0 time=0.035971249999999996
EXTRACT: control_change channel=7 control=11 value=46 time=0.014388499999999999
EXTRACT: control_change channel=6 control=11 value=46 time=0.0023980833333333332
EXTRACT: note_on channel=9 note=70 velocity=103 time=0
EXTRACT: note_on channel=5 note=63 velocity=0 time=0.0023980833333333332
EXTRACT: note_on channel=5 note=79 velocity=0 time=0
EXTRACT: note_on channel=5 note=65 velocity=106 time=0
EXTRACT: note_on channel=5 note=80 velocity=115 time=0
EXTRACT: note_on channel=11 note=46 velocity=127 time=0
EXTRACT: note_on channel=9 note=37 velocity=91 time=0.0047961666666666665
EXTRACT: note_on channel=9 note=28 velocity=68 time=0
EXTRACT: note_on channel=9 note=39 velocity=67 time=0
EXTRACT: note_on channel=9 note=35 velocity=97 time=0
EXTRACT: note_on channel=9 note=28 velocity=0 time=0.0023980833333333332
EXTRACT: note_on channel=9 note=37 velocity=0 time=0
EXTRACT: note_on channel=9 note=40 velocity=64 time=0
EXTRACT: note_on channel=3 note=68 velocity=82 time=0.0047961666666666665
EXTRACT: note_on channel=3 note=80 velocity=113 time=0
EXTRACT: control_change channel=7 control=11 value=51 time=0.007194249999999999
EXTRACT: control_change channel=6 control=11 value=51 time=0.0023980833333333332
EXTRACT: control_change channel=5 control=11 value=59 time=0.007194249999999999
EXTRACT: note_on channel=11 note=46 velocity=0 time=0.0023980833333333332
EXTRACT: note_on channel=9 note=39 velocity=50 time=0.0047961666666666665
EXTRACT: note_on channel=9 note=70 velocity=0 time=0.019184666666666666
EXTRACT: note_on channel=9 note=39 velocity=0 time=0.007194249999999999
EXTRACT: note_on channel=9 note=35 velocity=0 time=0
EXTRACT: note_on channel=9 note=40 velocity=0 time=0.0023980833333333332
EXTRACT: control_change channel=7 control=11 value=56 time=0.009592333333333333
EXTRACT: control_change channel=6 control=11 value=56 time=0.0023980833333333332
EXTRACT: note_on channel=9 note=39 velocity=0 time=0.016786583333333334
EXTRACT: control_change channel=4 control=11 value=110 time=0.011990416666666667
EXTRACT: control_change channel=5 control=11 value=57 time=0.07913674999999999
EXTRACT: control_change channel=7 control=11 value=61 time=0.021582749999999998
EXTRACT: control_change channel=6 control=11 value=61 time=0.0023980833333333332
EXTRACT: control_change channel=7 control=11 value=64 time=0.0047961666666666665
EXTRACT: control_change channel=6 control=11 value=64 time=0.0023980833333333332
EXTRACT: note_on channel=9 note=70 velocity=75 time=0.0023980833333333332
EXTRACT: note_on channel=1 note=27 velocity=118 time=0.007194249999999999
EXTRACT: note_on channel=9 note=46 velocity=62 time=0.021582749999999998
EXTRACT: control_change channel=7 control=11 value=66 time=0.021582749999999998
EXTRACT: control_change channel=6 control=11 value=66 time=0.0023980833333333332
EXTRACT: note_on channel=9 note=70 velocity=0 time=0.0047961666666666665
EXTRACT: control_change channel=4 control=11 value=102 time=0.0023980833333333332
EXTRACT: note_on channel=9 note=46 velocity=0 time=0.026378916666666665
EXTRACT: note_on channel=9 note=70 velocity=67 time=0.043165499999999996
EXTRACT: note_on channel=9 note=42 velocity=111 time=0.007194249999999999
EXTRACT: note_on channel=3 note=80 velocity=0 time=0.03836933333333333
EXTRACT: note_on channel=3 note=68 velocity=0 time=0
EXTRACT: note_on channel=9 note=70 velocity=0 time=0.011990416666666667
EXTRACT: note_on channel=9 note=42 velocity=0 time=0.007194249999999999
EXTRACT: note_on channel=1 note=27 velocity=0 time=0.03836933333333333
EXTRACT: note_on channel=9 note=70 velocity=103 time=0.014388499999999999
EXTRACT: note_on channel=5 note=80 velocity=0 time=0.0023980833333333332
EXTRACT: note_on channel=5 note=65 velocity=0 time=0
EXTRACT: note_on channel=5 note=67 velocity=108 time=0
EXTRACT: note_on channel=5 note=82 velocity=114 time=0
EXTRACT: note_on channel=11 note=51 velocity=127 time=0
EXTRACT: note_on channel=9 note=35 velocity=97 time=0.0047961666666666665
EXTRACT: note_on channel=3 note=70 velocity=82 time=0.023980833333333333
EXTRACT: note_on channel=3 note=82 velocity=113 time=0
EXTRACT: control_change channel=5 control=11 value=59 time=0
EXTRACT: note_on channel=11 note=51 velocity=0 time=0.0023980833333333332
EXTRACT: note_on channel=9 note=70 velocity=0 time=0.023980833333333333
EXTRACT: control_change channel=7 control=11 value=71 time=0.0023980833333333332
EXTRACT: control_change channel=6 control=11 value=71 time=0.0023980833333333332
EXTRACT: note_on channel=9 note=35 velocity=0 time=0.0023980833333333332
EXTRACT: control_change channel=7 control=11 value=75 time=0.08872908333333333
EXTRACT: control_change channel=6 control=11 value=75 time=0.0023980833333333332
EXTRACT: control_change channel=7 control=11 value=79 time=0.014388499999999999
EXTRACT: control_change channel=6 control=11 value=79 time=0.0023980833333333332
EXTRACT: control_change channel=5 control=11 value=57 time=0.021582749999999998
EXTRACT: control_change channel=7 control=11 value=85 time=0.023980833333333333
EXTRACT: control_change channel=6 control=11 value=85 time=0.0023980833333333332
EXTRACT: note_on channel=1 note=27 velocity=121 time=0.007194249999999999
EXTRACT: note_on channel=9 note=82 velocity=65 time=0.014388499999999999
EXTRACT: note_on channel=9 note=46 velocity=63 time=0.007194249999999999
EXTRACT: control_change channel=7 control=11 value=89 time=0.007194249999999999
EXTRACT: control_change channel=6 control=11 value=89 time=0.0023980833333333332
EXTRACT: control_change channel=7 control=11 value=93 time=0.011990416666666667
EXTRACT: control_change channel=6 control=11 value=93 time=0.0023980833333333332
EXTRACT: note_on channel=9 note=82 velocity=0 time=0.026378916666666665
EXTRACT: control_change channel=7 control=11 value=98 time=0.0023980833333333332
EXTRACT: control_change channel=6 control=11 value=98 time=0.0023980833333333332
EXTRACT: note_on channel=9 note=46 velocity=0 time=0.0023980833333333332
EXTRACT: control_change channel=7 control=11 value=103 time=0.026378916666666665
EXTRACT: control_change channel=6 control=11 value=103 time=0.0023980833333333332
EXTRACT: control_change channel=7 control=11 value=108 time=0.021582749999999998
EXTRACT: control_change channel=6 control=11 value=108 time=0.0023980833333333332
EXTRACT: note_on channel=9 note=82 velocity=57 time=0
EXTRACT: note_on channel=9 note=42 velocity=111 time=0
EXTRACT: control_change channel=7 control=11 value=113 time=0.021582749999999998
EXTRACT: control_change channel=6 control=11 value=113 time=0.0023980833333333332
EXTRACT: control_change channel=7 control=11 value=117 time=0.011990416666666667
EXTRACT: control_change channel=6 control=11 value=117 time=0.0023980833333333332
EXTRACT: note_on channel=9 note=39 velocity=50 time=0
EXTRACT: note_on channel=3 note=82 velocity=0 time=0.014388499999999999
EXTRACT: note_on channel=3 note=70 velocity=0 time=0
EXTRACT: note_on channel=9 note=42 velocity=0 time=0.0047961666666666665
EXTRACT: note_on channel=9 note=82 velocity=0 time=0
EXTRACT: control_change channel=4 control=11 value=102 time=0.0047961666666666665
EXTRACT: note_on channel=7 note=51 velocity=0 time=0.019184666666666666
EXTRACT: note_on channel=6 note=63 velocity=0 time=0.009592333333333333
EXTRACT: note_on channel=1 note=27 velocity=0 time=0.0023980833333333332
EXTRACT: note_on channel=9 note=39 velocity=0 time=0.0023980833333333332
EXTRACT: note_on channel=3 note=72 velocity=81 time=0.009592333333333333
EXTRACT: note_on channel=3 note=84 velocity=112 time=0
EXTRACT: note_on channel=5 note=82 velocity=0 time=0.0047961666666666665
EXTRACT: note_on channel=5 note=67 velocity=0 time=0
EXTRACT: note_on channel=11 note=46 velocity=127 time=0
EXTRACT: note_on channel=5 note=84 velocity=122 time=0.0023980833333333332
EXTRACT: note_on channel=5 note=68 velocity=108 time=0
EXTRACT: note_on channel=9 note=40 velocity=55 time=0.0023980833333333332
EXTRACT: note_on channel=9 note=37 velocity=91 time=0
EXTRACT: note_on channel=9 note=28 velocity=68 time=0
EXTRACT: note_on channel=9 note=39 velocity=73 time=0
EXTRACT: note_on channel=9 note=82 velocity=71 time=0
EXTRACT: note_on channel=9 note=35 velocity=97 time=0
EXTRACT: note_on channel=9 note=28 velocity=0 time=0.0023980833333333332
EXTRACT: note_on channel=9 note=37 velocity=0 time=0
EXTRACT: control_change channel=5 control=11 value=59 time=0.021582749999999998
EXTRACT: note_on channel=11 note=46 velocity=0 time=0.0023980833333333332
EXTRACT: note_on channel=9 note=39 velocity=55 time=0.0047961666666666665
EXTRACT: note_on channel=9 note=39 velocity=0 time=0.026378916666666665
EXTRACT: note_on channel=9 note=82 velocity=0 time=0
EXTRACT: note_on channel=9 note=40 velocity=0 time=0
EXTRACT: note_on channel=9 note=35 velocity=0 time=0
EXTRACT: control_change channel=5 control=11 value=61 time=0.0047961666666666665
EXTRACT: note_on channel=9 note=39 velocity=0 time=0.026378916666666665
EXTRACT: control_change channel=5 control=11 value=59 time=0.03836933333333333
EXTRACT: control_change channel=5 control=11 value=57 time=0.06954441666666666
EXTRACT: note_on channel=7 note=51 velocity=71 time=0.021582749999999998
EXTRACT: note_on channel=1 note=27 velocity=122 time=0.0023980833333333332
EXTRACT: note_on channel=6 note=63 velocity=71 time=0
EXTRACT: note_on channel=9 note=82 velocity=53 time=0.014388499999999999
EXTRACT: note_on channel=3 note=84 velocity=0 time=0.0047961666666666665
EXTRACT: note_on channel=3 note=72 velocity=0 time=0
EXTRACT: note_on channel=9 note=46 velocity=62 time=0.0023980833333333332
EXTRACT: control_change channel=7 control=11 value=117 time=0.03836933333333333
EXTRACT: control_change channel=6 control=11 value=117 time=0.0023980833333333332
EXTRACT: note_on channel=9 note=82 velocity=0 time=0.009592333333333333
EXTRACT: note_on channel=9 note=46 velocity=0 time=0.007194249999999999
EXTRACT: control_change channel=4 control=11 value=102 time=0.014388499999999999
EXTRACT: control_change channel=7 control=11 value=112 time=0.0047961666666666665
EXTRACT: control_change channel=6 control=11 value=112 time=0.0023980833333333332
EXTRACT: control_change channel=7 control=11 value=106 time=0.028776999999999997
EXTRACT: control_change channel=6 control=11 value=106 time=0.0023980833333333332
EXTRACT: note_on channel=9 note=82 velocity=50 time=0
EXTRACT: note_on channel=9 note=42 velocity=113 time=0
EXTRACT: control_change channel=7 control=11 value=102 time=0.03836933333333333
EXTRACT: control_change channel=6 control=11 value=102 time=0.0023980833333333332
EXTRACT: note_on channel=9 note=42 velocity=0 time=0.016786583333333334
EXTRACT: note_on channel=9 note=82 velocity=0 time=0
EXTRACT: note_on channel=7 note=51 velocity=0 time=0.03357316666666667
EXTRACT: note_on channel=1 note=27 velocity=0 time=0.0023980833333333332
EXTRACT: note_on channel=6 note=63 velocity=0 time=0
EXTRACT: control_change channel=7 control=11 value=120 time=0
EXTRACT: control_change channel=6 control=11 value=120 time=0.0023980833333333332
EXTRACT: note_on channel=7 note=44 velocity=72 time=0.0047961666666666665
EXTRACT: note_on channel=6 note=56 velocity=70 time=0.0023980833333333332
EXTRACT: note_on channel=4 note=63 velocity=0 time=0.0047961666666666665
EXTRACT: note_on channel=4 note=63 velocity=83 time=0.0023980833333333332
EXTRACT: note_on channel=4 note=68 velocity=87 time=0
EXTRACT: note_on channel=4 note=51 velocity=80 time=0
EXTRACT: note_on channel=4 note=60 velocity=81 time=0
EXTRACT: note_on channel=9 note=70 velocity=103 time=0
EXTRACT: note_on channel=4 note=70 velocity=0 time=0.0023980833333333332
EXTRACT: note_on channel=4 note=55 velocity=0 time=0
EXTRACT: note_on channel=4 note=67 velocity=0 time=0
EXTRACT: note_on channel=5 note=68 velocity=0 time=0
EXTRACT: note_on channel=5 note=84 velocity=0 time=0
EXTRACT: note_on channel=11 note=44 velocity=127 time=0
EXTRACT: note_on channel=5 note=80 velocity=116 time=0.0047961666666666665
EXTRACT: note_on channel=9 note=35 velocity=97 time=0
EXTRACT: note_on channel=11 note=44 velocity=0 time=0.026378916666666665
EXTRACT: control_change channel=4 control=11 value=108 time=0.0047961666666666665
EXTRACT: control_change channel=5 control=11 value=59 time=0
EXTRACT: control_change channel=7 control=11 value=115 time=0.014388499999999999
EXTRACT: control_change channel=6 control=11 value=115 time=0.0023980833333333332
EXTRACT: note_on channel=9 note=70 velocity=0 time=0.0023980833333333332
EXTRACT: note_on channel=9 note=35 velocity=0 time=0.007194249999999999
EXTRACT: control_change channel=7 control=11 value=110 time=0.011990416666666667
EXTRACT: control_change channel=6 control=11 value=110 time=0.0023980833333333332
EXTRACT: control_change channel=7 control=11 value=100 time=0.028776999999999997
EXTRACT: control_change channel=6 control=11 value=100 time=0.0023980833333333332
EXTRACT: control_change channel=4 control=11 value=116 time=0.021582749999999998
EXTRACT: control_change channel=7 control=11 value=94 time=0.007194249999999999
EXTRACT: control_change channel=6 control=11 value=94 time=0.0023980833333333332
EXTRACT: control_change channel=7 control=11 value=90 time=0.019184666666666666
EXTRACT: control_change channel=6 control=11 value=90 time=0.0023980833333333332
EXTRACT: control_change channel=5 control=11 value=57 time=0.023980833333333333
EXTRACT: control_change channel=7 control=11 value=86 time=0.0047961666666666665
EXTRACT: control_change channel=6 control=11 value=86 time=0.0023980833333333332
EXTRACT: note_on channel=7 note=44 velocity=0 time=0.021582749999999998
EXTRACT: note_on channel=6 note=56 velocity=0 time=0.0023980833333333332
EXTRACT: note_on channel=7 note=44 velocity=66 time=0.0047961666666666665
EXTRACT: note_on channel=6 note=56 velocity=62 time=0.0023980833333333332
EXTRACT: note_on channel=1 note=32 velocity=126 time=0.0023980833333333332
EXTRACT: note_on channel=9 note=70 velocity=77 time=0.0047961666666666665
EXTRACT: control_change channel=7 control=11 value=116 time=0.007194249999999999
EXTRACT: control_change channel=6 control=11 value=116 time=0.0023980833333333332
EXTRACT: note_on channel=9 note=46 velocity=61 time=0.007194249999999999
EXTRACT: control_change channel=7 control=11 value=104 time=0.0047961666666666665
EXTRACT: control_change channel=6 control=11 value=104 time=0.0023980833333333332
EXTRACT: control_change channel=7 control=11 value=94 time=0.014388499999999999
EXTRACT: control_change channel=6 control=11 value=94 time=0.0023980833333333332
EXTRACT: control_change channel=7 control=11 value=86 time=0.014388499999999999
EXTRACT: control_change channel=6 control=11 value=86 time=0.0023980833333333332
EXTRACT: note_on channel=9 note=70 velocity=0 time=0
EXTRACT: control_change channel=7 control=11 value=76 time=0.011990416666666667
EXTRACT: control_change channel=6 control=11 value=76 time=0.0023980833333333332
EXTRACT: note_on channel=9 note=46 velocity=0 time=0.0023980833333333332
EXTRACT: control_change channel=7 control=11 value=69 time=0.011990416666666667
EXTRACT: control_change channel=6 control=11 value=69 time=0.0023980833333333332
EXTRACT: control_change channel=7 control=11 value=64 time=0.011990416666666667
EXTRACT: control_change channel=6 control=11 value=64 time=0.0023980833333333332
EXTRACT: control_change channel=7 control=11 value=59 time=0.014388499999999999
EXTRACT: note_on channel=9 note=70 velocity=67 time=0
EXTRACT: control_change channel=6 control=11 value=59 time=0.0023980833333333332
EXTRACT: note_on channel=9 note=42 velocity=109 time=0.0047961666666666665
EXTRACT: control_change channel=7 control=11 value=54 time=0.014388499999999999
EXTRACT: control_change channel=6 control=11 value=54 time=0.0023980833333333332
EXTRACT: control_change channel=7 control=11 value=49 time=0.014388499999999999
EXTRACT: control_change channel=6 control=11 value=49 time=0.0023980833333333332
EXTRACT: note_on channel=9 note=70 velocity=0 time=0.016786583333333334
EXTRACT: note_on channel=9 note=42 velocity=0 time=0.007194249999999999
EXTRACT: control_change channel=7 control=11 value=45 time=0.0047961666666666665
EXTRACT: control_change channel=6 control=11 value=45 time=0.0023980833333333332
EXTRACT: note_on channel=1 note=32 velocity=0 time=0.031175083333333332
EXTRACT: note_on channel=9 note=70 velocity=108 time=0.014388499999999999
EXTRACT: note_on channel=11 note=44 velocity=127 time=0.0023980833333333332
EXTRACT: note_on channel=9 note=37 velocity=91 time=0.0047961666666666665
EXTRACT: note_on channel=9 note=28 velocity=68 time=0
EXTRACT: note_on channel=9 note=39 velocity=67 time=0
EXTRACT: note_on channel=9 note=35 velocity=97 time=0
EXTRACT: note_on channel=9 note=28 velocity=0 time=0.0023980833333333332
EXTRACT: note_on channel=9 note=37 velocity=0 time=0
EXTRACT: note_on channel=9 note=40 velocity=64 time=0.0023980833333333332
EXTRACT: control_change channel=4 control=11 value=116 time=0.0023980833333333332
EXTRACT: note_on channel=3 note=72 velocity=81 time=0.0047961666666666665
EXTRACT: note_on channel=3 note=84 velocity=111 time=0
EXTRACT: note_on channel=11 note=44 velocity=0 time=0.014388499999999999
EXTRACT: note_on channel=9 note=39 velocity=50 time=0.0047961666666666665
EXTRACT: note_on channel=9 note=70 velocity=0 time=0.019184666666666666
EXTRACT: note_on channel=9 note=39 velocity=0 time=0.007194249999999999
EXTRACT: note_on channel=9 note=35 velocity=0 time=0
EXTRACT: note_on channel=9 note=40 velocity=0 time=0.0047961666666666665
EXTRACT: note_on channel=9 note=39 velocity=0 time=0.026378916666666665
EXTRACT: control_change channel=7 control=11 value=45 time=0.043165499999999996
EXTRACT: control_change channel=6 control=11 value=45 time=0.0023980833333333332
EXTRACT: control_change channel=4 control=11 value=108 time=0.007194249999999999
EXTRACT: control_change channel=7 control=11 value=49 time=0.014388499999999999
EXTRACT: control_change channel=6 control=11 value=49 time=0.0023980833333333332
EXTRACT: control_change channel=7 control=11 value=53 time=0.028776999999999997
EXTRACT: control_change channel=6 control=11 value=53 time=0.0023980833333333332
EXTRACT: note_on channel=3 note=84 velocity=0 time=0.023980833333333333
EXTRACT: note_on channel=3 note=72 velocity=0 time=0
EXTRACT: note_on channel=9 note=70 velocity=75 time=0.0023980833333333332
EXTRACT: control_change channel=7 control=11 value=57 time=0.0023980833333333332
EXTRACT: note_on channel=1 note=32 velocity=118 time=0.0023980833333333332
EXTRACT: control_change channel=6 control=11 value=57 time=0
EXTRACT: note_on channel=3 note=70 velocity=80 time=0.021582749999999998
EXTRACT: note_on channel=3 note=82 velocity=110 time=0
EXTRACT: note_on channel=9 note=46 velocity=59 time=0
EXTRACT: note_on channel=9 note=70 velocity=0 time=0.031175083333333332
EXTRACT: note_on channel=3 note=82 velocity=0 time=0.019184666666666666
EXTRACT: note_on channel=3 note=70 velocity=0 time=0
EXTRACT: note_on channel=9 note=46 velocity=0 time=0.007194249999999999
EXTRACT: control_change channel=4 control=11 value=100 time=0.011990416666666667
EXTRACT: control_change channel=7 control=11 value=62 time=0.014388499999999999
EXTRACT: control_change channel=6 control=11 value=62 time=0.0023980833333333332
EXTRACT: control_change channel=7 control=11 value=64 time=0.007194249999999999
EXTRACT: control_change channel=6 control=11 value=64 time=0.0023980833333333332
EXTRACT: note_on channel=9 note=70 velocity=67 time=0.0047961666666666665
EXTRACT: note_on channel=9 note=42 velocity=108 time=0.009592333333333333
EXTRACT: control_change channel=7 control=11 value=66 time=0.021582749999999998
EXTRACT: control_change channel=6 control=11 value=66 time=0.0023980833333333332
EXTRACT: note_on channel=9 note=70 velocity=0 time=0.023980833333333333
EXTRACT: note_on channel=9 note=42 velocity=0 time=0.009592333333333333
EXTRACT: note_on channel=1 note=32 velocity=0 time=0.035971249999999996
EXTRACT: note_on channel=9 note=70 velocity=108 time=0.014388499999999999
EXTRACT: note_on channel=5 note=80 velocity=0 time=0.007194249999999999
EXTRACT: note_on channel=5 note=84 velocity=121 time=0
EXTRACT: note_on channel=9 note=35 velocity=97 time=0
EXTRACT: note_on channel=3 note=70 velocity=82 time=0.009592333333333333
EXTRACT: note_on channel=3 note=82 velocity=113 time=0
EXTRACT: control_change channel=5 control=11 value=59 time=0.014388499999999999
EXTRACT: note_on channel=9 note=70 velocity=0 time=0.026378916666666665
EXTRACT: note_on channel=9 note=35 velocity=0 time=0.007194249999999999
EXTRACT: control_change channel=7 control=11 value=70 time=0.021582749999999998
EXTRACT: control_change channel=6 control=11 value=70 time=0.0023980833333333332
EXTRACT: control_change channel=7 control=11 value=74 time=0.07434058333333333
EXTRACT: control_change channel=6 control=11 value=74 time=0.0023980833333333332
EXTRACT: note_on channel=3 note=82 velocity=0 time=0.03836933333333333
EXTRACT: note_on channel=3 note=70 velocity=0 time=0
EXTRACT: control_change channel=5 control=11 value=57 time=0
EXTRACT: control_change channel=7 control=11 value=78 time=0.014388499999999999
EXTRACT: control_change channel=6 control=11 value=78 time=0.0023980833333333332
EXTRACT: note_on channel=1 note=32 velocity=121 time=0.007194249999999999
EXTRACT: note_on channel=3 note=68 velocity=77 time=0.0023980833333333332
EXTRACT: note_on channel=3 note=80 velocity=106 time=0
EXTRACT: note_on channel=9 note=70 velocity=76 time=0.0047961666666666665
EXTRACT: control_change channel=7 control=11 value=82 time=0.014388499999999999
EXTRACT: note_on channel=9 note=46 velocity=61 time=0
EXTRACT: control_change channel=6 control=11 value=82 time=0.0023980833333333332
EXTRACT: control_change channel=7 control=11 value=86 time=0.011990416666666667
EXTRACT: control_change channel=6 control=11 value=86 time=0.0023980833333333332
EXTRACT: note_on channel=3 note=80 velocity=0 time=0.016786583333333334
EXTRACT: note_on channel=3 note=68 velocity=0 time=0
EXTRACT: note_on channel=9 note=70 velocity=0 time=0.009592333333333333
EXTRACT: control_change channel=7 control=11 value=90 time=0.0023980833333333332
EXTRACT: control_change channel=6 control=11 value=90 time=0.0023980833333333332
EXTRACT: note_on channel=9 note=46 velocity=0 time=0.009592333333333333
EXTRACT: control_change channel=7 control=11 value=94 time=0.0047961666666666665
EXTRACT: control_change channel=6 control=11 value=94 time=0.0023980833333333332
EXTRACT: control_change channel=7 control=11 value=98 time=0.021582749999999998
EXTRACT: control_change channel=6 control=11 value=98 time=0.0023980833333333332
EXTRACT: control_change channel=7 control=11 value=102 time=0.011990416666666667
EXTRACT: control_change channel=6 control=11 value=102 time=0.0023980833333333332
EXTRACT: note_on channel=9 note=70 velocity=67 time=0
EXTRACT: note_on channel=9 note=42 velocity=108 time=0.007194249999999999
EXTRACT: control_change channel=7 control=11 value=106 time=0.014388499999999999
EXTRACT: control_change channel=6 control=11 value=106 time=0.0023980833333333332
EXTRACT: control_change channel=7 control=11 value=110 time=0.014388499999999999
EXTRACT: control_change channel=6 control=11 value=110 time=0.0023980833333333332
EXTRACT: control_change channel=7 control=11 value=115 time=0.011990416666666667
EXTRACT: control_change channel=6 control=11 value=115 time=0.0023980833333333332
EXTRACT: note_on channel=9 note=70 velocity=0 time=0.0023980833333333332
EXTRACT: note_on channel=9 note=42 velocity=0 time=0.007194249999999999
EXTRACT: control_change channel=7 control=11 value=119 time=0.011990416666666667
EXTRACT: control_change channel=6 control=11 value=119 time=0.0023980833333333332
EXTRACT: note_on channel=7 note=44 velocity=0 time=0.019184666666666666
EXTRACT: note_on channel=1 note=32 velocity=0 time=0.0023980833333333332
EXTRACT: note_on channel=6 note=56 velocity=0 time=0.0023980833333333332
EXTRACT: control_change channel=4 control=11 value=104 time=0.0047961666666666665
EXTRACT: note_on channel=9 note=70 velocity=107 time=0.009592333333333333
EXTRACT: note_on channel=3 note=68 velocity=82 time=0.0023980833333333332
EXTRACT: note_on channel=3 note=80 velocity=113 time=0
EXTRACT: note_on channel=9 note=40 velocity=54 time=0.0047961666666666665
EXTRACT: note_on channel=9 note=37 velocity=91 time=0
EXTRACT: note_on channel=9 note=28 velocity=68 time=0
EXTRACT: note_on channel=9 note=39 velocity=72 time=0
EXTRACT: note_on channel=9 note=35 velocity=97 time=0
EXTRACT: note_on channel=9 note=28 velocity=0 time=0.0023980833333333332
EXTRACT: note_on channel=9 note=37 velocity=0 time=0
EXTRACT: note_on channel=9 note=39 velocity=55 time=0.028776999999999997
EXTRACT: note_on channel=9 note=70 velocity=0 time=0.019184666666666666
EXTRACT: note_on channel=9 note=35 velocity=0 time=0.007194249999999999
EXTRACT: note_on channel=9 note=40 velocity=0 time=0
EXTRACT: note_on channel=9 note=39 velocity=0 time=0
EXTRACT: control_change channel=5 control=11 value=59 time=0.028776999999999997
EXTRACT: note_on channel=9 note=39 velocity=0 time=0.0023980833333333332
EXTRACT: note_on channel=7 note=44 velocity=66 time=0.06954441666666666
EXTRACT: note_on channel=6 note=56 velocity=62 time=0.0023980833333333332
EXTRACT: control_change channel=7 control=11 value=114 time=0.035971249999999996
EXTRACT: control_change channel=6 control=11 value=114 time=0.0023980833333333332
EXTRACT: control_change channel=7 control=11 value=108 time=0.014388499999999999
EXTRACT: control_change channel=6 control=11 value=108 time=0.0023980833333333332
EXTRACT: note_on channel=1 note=32 velocity=122 time=0.0047961666666666665
EXTRACT: note_on channel=9 note=70 velocity=73 time=0.0047961666666666665
EXTRACT: control_change channel=7 control=11 value=101 time=0.0023980833333333332
EXTRACT: control_change channel=6 control=11 value=101 time=0.0023980833333333332
EXTRACT: note_on channel=9 note=46 velocity=61 time=0.011990416666666667
EXTRACT: control_change channel=7 control=11 value=97 time=0.0023980833333333332
EXTRACT: control_change channel=6 control=11 value=97 time=0.0023980833333333332
EXTRACT: control_change channel=7 control=11 value=93 time=0.011990416666666667
EXTRACT: control_change channel=6 control=11 value=93 time=0.0023980833333333332
EXTRACT: control_change channel=5 control=11 value=57 time=0.019184666666666666
EXTRACT: note_on channel=9 note=70 velocity=0 time=0.0023980833333333332
EXTRACT: note_on channel=9 note=46 velocity=0 time=0.016786583333333334
EXTRACT: control_change channel=7 control=11 value=88 time=0.014388499999999999
EXTRACT: control_change channel=6 control=11 value=88 time=0.0023980833333333332
EXTRACT: note_on channel=9 note=70 velocity=67 time=0.026378916666666665
EXTRACT: note_on channel=9 note=42 velocity=109 time=0.007194249999999999
EXTRACT: control_change channel=4 control=11 value=100 time=0.009592333333333333
EXTRACT: control_change channel=7 control=11 value=84 time=0.0023980833333333332
EXTRACT: control_change channel=6 control=11 value=84 time=0.0023980833333333332
EXTRACT: control_change channel=7 control=11 value=80 time=0.019184666666666666
EXTRACT: control_change channel=6 control=11 value=80 time=0.0023980833333333332
EXTRACT: note_on channel=9 note=70 velocity=0 time=0.014388499999999999
EXTRACT: note_on channel=9 note=42 velocity=0 time=0.007194249999999999
EXTRACT: note_on channel=7 note=44 velocity=0 time=0.031175083333333332
EXTRACT: note_on channel=6 note=56 velocity=0 time=0.0023980833333333332
EXTRACT: note_on channel=1 note=32 velocity=0 time=0.0047961666666666665
EXTRACT: note_on channel=7 note=48 velocity=71 time=0.0047961666666666665
EXTRACT: note_on channel=6 note=60 velocity=71 time=0.0023980833333333332
EXTRACT: note_on channel=4 note=68 velocity=0 time=0.007194249999999999
EXTRACT: note_on channel=4 note=63 velocity=0 time=0
EXTRACT: note_on channel=4 note=51 velocity=0 time=0
EXTRACT: note_on channel=4 note=60 velocity=0 time=0
EXTRACT: note_on channel=9 note=70 velocity=108 time=0
EXTRACT: note_on channel=4 note=60 velocity=81 time=0.0047961666666666665
EXTRACT: note_on channel=4 note=48 velocity=75 time=0
EXTRACT: note_on channel=4 note=67 velocity=85 time=0
EXTRACT: note_on channel=4 note=63 velocity=82 time=0
EXTRACT: note_on channel=5 note=84 velocity=0 time=0
EXTRACT: note_on channel=5 note=79 velocity=122 time=0.0023980833333333332
EXTRACT: note_on channel=9 note=35 velocity=97 time=0
EXTRACT: control_change channel=5 control=11 value=59 time=0.023980833333333333
EXTRACT: note_on channel=3 note=80 velocity=0 time=0.0047961666666666665
EXTRACT: note_on channel=3 note=68 velocity=0 time=0
EXTRACT: control_change channel=7 control=11 value=118 time=0.009592333333333333
EXTRACT: control_change channel=6 control=11 value=118 time=0.0023980833333333332
EXTRACT: note_on channel=9 note=70 velocity=0 time=0.009592333333333333
EXTRACT: control_change channel=4 control=11 value=110 time=0.0047961666666666665
EXTRACT: note_on channel=9 note=35 velocity=0 time=0.0023980833333333332
EXTRACT: control_change channel=7 control=11 value=114 time=0.0047961666666666665
EXTRACT: control_change channel=6 control=11 value=114 time=0.0023980833333333332
EXTRACT: control_change channel=7 control=11 value=108 time=0.019184666666666666
EXTRACT: control_change channel=6 control=11 value=108 time=0.0023980833333333332
EXTRACT: control_change channel=7 control=11 value=101 time=0.028776999999999997
EXTRACT: control_change channel=6 control=11 value=101 time=0.0023980833333333332
EXTRACT: control_change channel=7 control=11 value=96 time=0.021582749999999998
EXTRACT: control_change channel=6 control=11 value=96 time=0.0023980833333333332
EXTRACT: control_change channel=4 control=11 value=118 time=0.007194249999999999
EXTRACT: control_change channel=7 control=11 value=92 time=0.031175083333333332
EXTRACT: control_change channel=6 control=11 value=92 time=0.0023980833333333332
EXTRACT: control_change channel=5 control=11 value=57 time=0.0047961666666666665
EXTRACT: note_on channel=7 note=48 velocity=0 time=0.021582749999999998
EXTRACT: note_on channel=6 note=60 velocity=0 time=0.0023980833333333332
EXTRACT: note_on channel=7 note=48 velocity=66 time=0.007194249999999999
EXTRACT: note_on channel=1 note=36 velocity=116 time=0.0023980833333333332
EXTRACT: note_on channel=6 note=60 velocity=65 time=0
EXTRACT: note_on channel=9 note=70 velocity=77 time=0.007194249999999999
EXTRACT: control_change channel=7 control=11 value=117 time=0.0047961666666666665
EXTRACT: control_change channel=6 control=11 value=117 time=0.0023980833333333332
EXTRACT: note_on channel=9 note=46 velocity=61 time=0.007194249999999999
EXTRACT: control_change channel=7 control=11 value=107 time=0.007194249999999999
EXTRACT: control_change channel=6 control=11 value=107 time=0.0023980833333333332
EXTRACT: note_on channel=3 note=75 velocity=83 time=0.007194249999999999
EXTRACT: note_on channel=3 note=87 velocity=115 time=0
EXTRACT: control_change channel=7 control=11 value=98 time=0.0047961666666666665
EXTRACT: control_change channel=6 control=11 value=98 time=0.0023980833333333332
EXTRACT: control_change channel=7 control=11 value=91 time=0.014388499999999999
EXTRACT: control_change channel=6 control=11 value=91 time=0.0023980833333333332
EXTRACT: note_on channel=9 note=70 velocity=0 time=0.0023980833333333332
EXTRACT: control_change channel=7 control=11 value=83 time=0.009592333333333333
EXTRACT: control_change channel=6 control=11 value=83 time=0.0023980833333333332
EXTRACT: note_on channel=9 note=46 velocity=0 time=0.0023980833333333332
EXTRACT: control_change channel=7 control=11 value=77 time=0.011990416666666667
EXTRACT: control_change channel=6 control=11 value=77 time=0.0023980833333333332
EXTRACT: control_change channel=7 control=11 value=73 time=0.011990416666666667
EXTRACT: note_on channel=3 note=87 velocity=0 time=0.0023980833333333332
EXTRACT: note_on channel=3 note=75 velocity=0 time=0
EXTRACT: control_change channel=6 control=11 value=73 time=0
EXTRACT: note_on channel=9 note=70 velocity=67 time=0.014388499999999999
EXTRACT: control_change channel=7 control=11 value=67 time=0.007194249999999999
EXTRACT: control_change channel=6 control=11 value=67 time=0.0023980833333333332
EXTRACT: note_on channel=9 note=42 velocity=113 time=0
EXTRACT: control_change channel=7 control=11 value=64 time=0.014388499999999999
EXTRACT: control_change channel=6 control=11 value=64 time=0.0023980833333333332
EXTRACT: control_change channel=7 control=11 value=62 time=0.0047961666666666665
EXTRACT: control_change channel=6 control=11 value=62 time=0.0023980833333333332
EXTRACT: control_change channel=7 control=11 value=58 time=0.021582749999999998
EXTRACT: control_change channel=6 control=11 value=58 time=0.0023980833333333332
EXTRACT: note_on channel=9 note=70 velocity=0 time=0
EXTRACT: note_on channel=9 note=42 velocity=0 time=0.009592333333333333
EXTRACT: note_on channel=1 note=36 velocity=0 time=0.035971249999999996
EXTRACT: note_on channel=9 note=70 velocity=103 time=0.014388499999999999
EXTRACT: note_on channel=3 note=72 velocity=80 time=0.007194249999999999
EXTRACT: note_on channel=3 note=84 velocity=110 time=0
EXTRACT: note_on channel=9 note=37 velocity=91 time=0
EXTRACT: note_on channel=9 note=28 velocity=68 time=0
EXTRACT: note_on channel=9 note=39 velocity=67 time=0
EXTRACT: note_on channel=9 note=35 velocity=97 time=0
EXTRACT: note_on channel=9 note=28 velocity=0 time=0.0023980833333333332
EXTRACT: note_on channel=9 note=37 velocity=0 time=0
EXTRACT: note_on channel=9 note=40 velocity=65 time=0.0023980833333333332
EXTRACT: control_change channel=7 control=11 value=54 time=0.019184666666666666
EXTRACT: control_change channel=6 control=11 value=54 time=0.0023980833333333332
EXTRACT: note_on channel=9 note=39 velocity=50 time=0.007194249999999999
EXTRACT: control_change channel=4 control=11 value=114 time=0.007194249999999999
EXTRACT: note_on channel=9 note=70 velocity=0 time=0.009592333333333333
EXTRACT: note_on channel=9 note=39 velocity=0 time=0.007194249999999999
EXTRACT: note_on channel=9 note=35 velocity=0 time=0
EXTRACT: note_on channel=9 note=40 velocity=0 time=0.0047961666666666665
EXTRACT: note_on channel=9 note=39 velocity=0 time=0.028776999999999997
EXTRACT: control_change channel=5 control=11 value=59 time=0.011990416666666667
EXTRACT: control_change channel=7 control=11 value=58 time=0.04556358333333333
EXTRACT: control_change channel=6 control=11 value=58 time=0.0023980833333333332
EXTRACT: control_change channel=7 control=11 value=62 time=0.011990416666666667
EXTRACT: control_change channel=6 control=11 value=62 time=0.0023980833333333332
EXTRACT: control_change channel=4 control=11 value=106 time=0.014388499999999999
EXTRACT: control_change channel=7 control=11 value=64 time=0.007194249999999999
EXTRACT: control_change channel=6 control=11 value=64 time=0.0023980833333333332
EXTRACT: note_on channel=3 note=84 velocity=0 time=0.009592333333333333
EXTRACT: note_on channel=3 note=72 velocity=0 time=0
EXTRACT: control_change channel=7 control=11 value=66 time=0.011990416666666667
EXTRACT: control_change channel=6 control=11 value=66 time=0.0023980833333333332
EXTRACT: note_on channel=9 note=70 velocity=75 time=0.0023980833333333332
EXTRACT: note_on channel=1 note=36 velocity=115 time=0.0047961666666666665
EXTRACT: note_on channel=3 note=70 velocity=78 time=0.011990416666666667
EXTRACT: note_on channel=3 note=82 velocity=107 time=0
EXTRACT: note_on channel=9 note=46 velocity=62 time=0.009592333333333333
EXTRACT: control_change channel=5 control=11 value=57 time=0.009592333333333333
EXTRACT: note_on channel=9 note=70 velocity=0 time=0.021582749999999998
EXTRACT: note_on channel=3 note=82 velocity=0 time=0.011990416666666667
EXTRACT: note_on channel=3 note=70 velocity=0 time=0
EXTRACT: note_on channel=9 note=46 velocity=0 time=0.014388499999999999
EXTRACT: control_change channel=7 control=11 value=72 time=0.028776999999999997
EXTRACT: control_change channel=6 control=11 value=72 time=0.0023980833333333332
EXTRACT: note_on channel=9 note=70 velocity=67 time=0.014388499999999999
EXTRACT: note_on channel=9 note=42 velocity=111 time=0.007194249999999999
EXTRACT: note_on channel=9 note=70 velocity=0 time=0.050359749999999995
EXTRACT: note_on channel=9 note=42 velocity=0 time=0.007194249999999999
EXTRACT: note_on channel=1 note=36 velocity=0 time=0.035971249999999996
EXTRACT: control_change channel=4 control=11 value=98 time=0.016786583333333334
EXTRACT: note_on channel=9 note=70 velocity=103 time=0
EXTRACT: note_on channel=5 note=79 velocity=0 time=0.0047961666666666665
EXTRACT: note_on channel=5 note=82 velocity=120 time=0.0023980833333333332
EXTRACT: note_on channel=9 note=35 velocity=97 time=0
EXTRACT: note_on channel=3 note=70 velocity=83 time=0.011990416666666667
EXTRACT: note_on channel=3 note=82 velocity=115 time=0
EXTRACT: control_change channel=5 control=11 value=59 time=0.011990416666666667
EXTRACT: note_on channel=9 note=70 velocity=0 time=0.026378916666666665
EXTRACT: note_on channel=9 note=35 velocity=0 time=0.007194249999999999
EXTRACT: control_change channel=7 control=11 value=78 time=0.011990416666666667
EXTRACT: control_change channel=6 control=11 value=78 time=0.0023980833333333332
EXTRACT: control_change channel=5 control=11 value=57 time=0.12230225
EXTRACT: control_change channel=7 control=11 value=83 time=0.007194249999999999
EXTRACT: control_change channel=6 control=11 value=83 time=0.0023980833333333332
EXTRACT: note_on channel=3 note=82 velocity=0 time=0.007194249999999999
EXTRACT: note_on channel=3 note=70 velocity=0 time=0
EXTRACT: note_on channel=1 note=36 velocity=116 time=0.009592333333333333
EXTRACT: control_change channel=7 control=11 value=87 time=0.0047961666666666665
EXTRACT: control_change channel=6 control=11 value=87 time=0.0023980833333333332
EXTRACT: note_on channel=3 note=68 velocity=78 time=0.0023980833333333332
EXTRACT: note_on channel=3 note=80 velocity=107 time=0
EXTRACT: note_on channel=9 note=82 velocity=65 time=0.0023980833333333332
EXTRACT: note_on channel=9 note=46 velocity=63 time=0.009592333333333333
EXTRACT: control_change channel=7 control=11 value=92 time=0.014388499999999999
EXTRACT: control_change channel=6 control=11 value=92 time=0.0023980833333333332
EXTRACT: note_on channel=3 note=80 velocity=0 time=0.021582749999999998
EXTRACT: note_on channel=3 note=68 velocity=0 time=0
EXTRACT: note_on channel=9 note=82 velocity=0 time=0.009592333333333333
EXTRACT: control_change channel=7 control=11 value=97 time=0.0047961666666666665
EXTRACT: control_change channel=6 control=11 value=97 time=0.0023980833333333332
EXTRACT: note_on channel=9 note=46 velocity=0 time=0.0023980833333333332
EXTRACT: control_change channel=7 control=11 value=101 time=0.019184666666666666
EXTRACT: control_change channel=6 control=11 value=101 time=0.0023980833333333332
EXTRACT: control_change channel=7 control=11 value=106 time=0.028776999999999997
EXTRACT: note_on channel=9 note=82 velocity=57 time=0
EXTRACT: note_on channel=9 note=42 velocity=111 time=0
EXTRACT: control_change channel=6 control=11 value=106 time=0.0023980833333333332
EXTRACT: control_change channel=7 control=11 value=111 time=0.021582749999999998
EXTRACT: control_change channel=6 control=11 value=111 time=0.0023980833333333332
EXTRACT: control_change channel=7 control=11 value=115 time=0.011990416666666667
EXTRACT: control_change channel=6 control=11 value=115 time=0.0023980833333333332
EXTRACT: note_on channel=9 note=39 velocity=50 time=0
EXTRACT: note_on channel=9 note=42 velocity=0 time=0.016786583333333334
EXTRACT: note_on channel=9 note=82 velocity=0 time=0
EXTRACT: control_change channel=7 control=11 value=120 time=0.011990416666666667
EXTRACT: control_change channel=6 control=11 value=120 time=0.0023980833333333332
EXTRACT: note_on channel=7 note=48 velocity=0 time=0.016786583333333334
EXTRACT: note_on channel=1 note=36 velocity=0 time=0.007194249999999999
EXTRACT: note_on channel=6 note=60 velocity=0 time=0
EXTRACT: note_on channel=9 note=39 velocity=0 time=0.0023980833333333332
EXTRACT: note_on channel=3 note=68 velocity=81 time=0.019184666666666666
EXTRACT: note_on channel=3 note=80 velocity=111 time=0
EXTRACT: note_on channel=9 note=40 velocity=56 time=0
EXTRACT: note_on channel=9 note=37 velocity=91 time=0
EXTRACT: note_on channel=9 note=28 velocity=68 time=0
EXTRACT: note_on channel=9 note=39 velocity=73 time=0
EXTRACT: note_on channel=9 note=82 velocity=71 time=0
EXTRACT: note_on channel=9 note=35 velocity=97 time=0
EXTRACT: note_on channel=9 note=28 velocity=0 time=0.0023980833333333332
EXTRACT: note_on channel=9 note=37 velocity=0 time=0
EXTRACT: control_change channel=4 control=11 value=106 time=0.021582749999999998
EXTRACT: note_on channel=9 note=39 velocity=55 time=0.007194249999999999
EXTRACT: note_on channel=9 note=39 velocity=0 time=0.026378916666666665
EXTRACT: note_on channel=9 note=82 velocity=0 time=0
EXTRACT: note_on channel=9 note=40 velocity=0 time=0
EXTRACT: note_on channel=9 note=35 velocity=0 time=0
EXTRACT: note_on channel=9 note=39 velocity=0 time=0.031175083333333332
EXTRACT: control_change channel=5 control=11 value=59 time=0.0047961666666666665
EXTRACT: note_on channel=7 note=48 velocity=71 time=0.12470033333333333
EXTRACT: note_on channel=1 note=36 velocity=113 time=0.0023980833333333332
EXTRACT: note_on channel=6 note=60 velocity=70 time=0
EXTRACT: note_on channel=9 note=82 velocity=53 time=0.014388499999999999
EXTRACT: note_on channel=9 note=46 velocity=62 time=0.007194249999999999
EXTRACT: pitchwheel channel=3 pitch=140 time=0.007194249999999999
EXTRACT: pitchwheel channel=3 pitch=360 time=0.0047961666666666665
EXTRACT: pitchwheel channel=3 pitch=640 time=0.0047961666666666665
EXTRACT: pitchwheel channel=3 pitch=980 time=0.0023980833333333332
EXTRACT: pitchwheel channel=3 pitch=1300 time=0
EXTRACT: control_change channel=5 control=11 value=57 time=0.0047961666666666665
EXTRACT: pitchwheel channel=3 pitch=1680 time=0.0023980833333333332
EXTRACT: pitchwheel channel=3 pitch=2120 time=0.0047961666666666665
EXTRACT: pitchwheel channel=3 pitch=2580 time=0.0047961666666666665
EXTRACT: pitchwheel channel=3 pitch=3040 time=0
EXTRACT: pitchwheel channel=3 pitch=3520 time=0.007194249999999999
EXTRACT: pitchwheel channel=3 pitch=4000 time=0
EXTRACT: control_change channel=7 control=11 value=116 time=0.0023980833333333332
EXTRACT: control_change channel=6 control=11 value=116 time=0.0023980833333333332
EXTRACT: pitchwheel channel=3 pitch=4440 time=0.0023980833333333332
EXTRACT: note_on channel=9 note=82 velocity=0 time=0
EXTRACT: pitchwheel channel=3 pitch=4920 time=0.0047961666666666665
EXTRACT: note_on channel=9 note=46 velocity=0 time=0.0023980833333333332
EXTRACT: pitchwheel channel=3 pitch=5480 time=0.0023980833333333332
EXTRACT: pitchwheel channel=3 pitch=6020 time=0.0023980833333333332
EXTRACT: pitchwheel channel=3 pitch=6480 time=0.0047961666666666665
EXTRACT: pitchwheel channel=3 pitch=6960 time=0.0023980833333333332
EXTRACT: pitchwheel channel=3 pitch=7480 time=0.0047961666666666665
EXTRACT: control_change channel=7 control=11 value=111 time=0.0023980833333333332
EXTRACT: pitchwheel channel=3 pitch=7900 time=0.0023980833333333332
EXTRACT: control_change channel=6 control=11 value=111 time=0
EXTRACT: pitchwheel channel=3 pitch=8160 time=0.0023980833333333332
EXTRACT: pitchwheel channel=3 pitch=8191 time=0.0047961666666666665
EXTRACT: note_on channel=3 note=80 velocity=0 time=0.016786583333333334
EXTRACT: note_on channel=3 note=68 velocity=0 time=0
EXTRACT: control_change channel=7 control=11 value=106 time=0.0047961666666666665
EXTRACT: control_change channel=6 control=11 value=106 time=0.0023980833333333332
EXTRACT: note_on channel=9 note=82 velocity=50 time=0
EXTRACT: note_on channel=9 note=42 velocity=113 time=0
EXTRACT: control_change channel=7 control=11 value=102 time=0.028776999999999997
EXTRACT: control_change channel=6 control=11 value=102 time=0.0023980833333333332
EXTRACT: note_on channel=9 note=42 velocity=0 time=0.026378916666666665
EXTRACT: note_on channel=9 note=82 velocity=0 time=0
EXTRACT: pitchwheel channel=3 pitch=0 time=0.026378916666666665
EXTRACT: note_on channel=7 note=48 velocity=0 time=0.007194249999999999
EXTRACT: control_change channel=7 control=11 value=120 time=0
EXTRACT: note_on channel=1 note=36 velocity=0 time=0.0023980833333333332
EXTRACT: note_on channel=6 note=60 velocity=0 time=0
EXTRACT: control_change channel=6 control=11 value=120 time=0
EXTRACT: note_on channel=7 note=49 velocity=73 time=0.007194249999999999
EXTRACT: note_on channel=6 note=61 velocity=72 time=0.0023980833333333332
EXTRACT: note_on channel=9 note=70 velocity=103 time=0.0047961666666666665
EXTRACT: note_on channel=4 note=63 velocity=0 time=0.0047961666666666665
EXTRACT: note_on channel=4 note=60 velocity=0 time=0
EXTRACT: note_on channel=4 note=48 velocity=0 time=0
EXTRACT: note_on channel=4 note=67 velocity=0 time=0
EXTRACT: note_on channel=4 note=68 velocity=84 time=0
EXTRACT: note_on channel=4 note=65 velocity=84 time=0
EXTRACT: note_on channel=4 note=49 velocity=76 time=0
EXTRACT: note_on channel=4 note=61 velocity=81 time=0
EXTRACT: note_on channel=5 note=61 velocity=104 time=0
EXTRACT: note_on channel=5 note=77 velocity=114 time=0
EXTRACT: note_on channel=5 note=82 velocity=0 time=0.0023980833333333332
EXTRACT: note_on channel=3 note=65 velocity=83 time=0.0023980833333333332
EXTRACT: note_on channel=3 note=77 velocity=114 time=0
EXTRACT: control_change channel=4 control=11 value=105 time=0
EXTRACT: note_on channel=9 note=35 velocity=97 time=0
EXTRACT: control_change channel=5 control=11 value=59 time=0.021582749999999998
EXTRACT: control_change channel=7 control=11 value=116 time=0.023980833333333333
EXTRACT: control_change channel=6 control=11 value=116 time=0.0023980833333333332
EXTRACT: note_on channel=9 note=70 velocity=0 time=0
EXTRACT: note_on channel=9 note=35 velocity=0 time=0.009592333333333333
EXTRACT: control_change channel=7 control=11 value=112 time=0.009592333333333333
EXTRACT: control_change channel=6 control=11 value=112 time=0.0023980833333333332
EXTRACT: control_change channel=7 control=11 value=107 time=0.021582749999999998
EXTRACT: control_change channel=4 control=11 value=113 time=0.0023980833333333332
EXTRACT: control_change channel=6 control=11 value=107 time=0
EXTRACT: control_change channel=7 control=11 value=101 time=0.021582749999999998
EXTRACT: control_change channel=6 control=11 value=101 time=0.0023980833333333332
EXTRACT: control_change channel=7 control=11 value=96 time=0.028776999999999997
EXTRACT: control_change channel=6 control=11 value=96 time=0.0023980833333333332
EXTRACT: control_change channel=5 control=11 value=57 time=0.028776999999999997
EXTRACT: control_change channel=7 control=11 value=92 time=0.007194249999999999
EXTRACT: control_change channel=6 control=11 value=92 time=0.0023980833333333332
EXTRACT: note_on channel=7 note=49 velocity=0 time=0.021582749999999998
EXTRACT: note_on channel=6 note=61 velocity=0 time=0.0023980833333333332
EXTRACT: note_on channel=7 note=49 velocity=69 time=0.0047961666666666665
EXTRACT: note_on channel=1 note=25 velocity=123 time=0.0023980833333333332
EXTRACT: note_on channel=6 note=61 velocity=62 time=0
EXTRACT: note_on channel=9 note=70 velocity=77 time=0.007194249999999999
EXTRACT: control_change channel=7 control=11 value=117 time=0.007194249999999999
EXTRACT: control_change channel=6 control=11 value=117 time=0.0023980833333333332
EXTRACT: note_on channel=9 note=46 velocity=61 time=0.0047961666666666665
EXTRACT: control_change channel=7 control=11 value=110 time=0.007194249999999999
EXTRACT: control_change channel=6 control=11 value=110 time=0.0023980833333333332
EXTRACT: control_change channel=7 control=11 value=102 time=0.014388499999999999
EXTRACT: control_change channel=6 control=11 value=102 time=0.0023980833333333332
EXTRACT: control_change channel=7 control=11 value=96 time=0.011990416666666667
EXTRACT: control_change channel=6 control=11 value=96 time=0.0023980833333333332
EXTRACT: note_on channel=9 note=70 velocity=0 time=0.0023980833333333332
EXTRACT: control_change channel=7 control=11 value=90 time=0.011990416666666667
EXTRACT: control_change channel=6 control=11 value=90 time=0.0023980833333333332
EXTRACT: note_on channel=9 note=46 velocity=0 time=0
EXTRACT: control_change channel=7 control=11 value=83 time=0.011990416666666667
EXTRACT: control_change channel=6 control=11 value=83 time=0.0023980833333333332
EXTRACT: control_change channel=7 control=11 value=78 time=0.014388499999999999
EXTRACT: control_change channel=6 control=11 value=78 time=0.0023980833333333332
EXTRACT: note_on channel=9 note=70 velocity=67 time=0.014388499999999999
EXTRACT: control_change channel=7 control=11 value=72 time=0.007194249999999999
EXTRACT: note_on channel=9 note=42 velocity=109 time=0
EXTRACT: control_change channel=6 control=11 value=72 time=0.0023980833333333332
EXTRACT: control_change channel=7 control=11 value=68 time=0.019184666666666666
EXTRACT: note_on channel=3 note=77 velocity=0 time=0.0023980833333333332
EXTRACT: note_on channel=3 note=65 velocity=0 time=0
EXTRACT: control_change channel=6 control=11 value=68 time=0
EXTRACT: note_on channel=9 note=70 velocity=0 time=0.026378916666666665
EXTRACT: control_change channel=7 control=11 value=62 time=0.0023980833333333332
EXTRACT: control_change channel=6 control=11 value=62 time=0.0023980833333333332
EXTRACT: note_on channel=9 note=42 velocity=0 time=0.0023980833333333332
EXTRACT: control_change channel=7 control=11 value=58 time=0.019184666666666666
EXTRACT: control_change channel=6 control=11 value=58 time=0.0023980833333333332
EXTRACT: control_change channel=4 control=11 value=117 time=0.007194249999999999
EXTRACT: note_on channel=1 note=25 velocity=0 time=0.007194249999999999
EXTRACT: note_on channel=9 note=70 velocity=108 time=0.016786583333333334
EXTRACT: note_on channel=5 note=77 velocity=0 time=0.0023980833333333332
EXTRACT: note_on channel=5 note=61 velocity=0 time=0
EXTRACT: note_on channel=5 note=79 velocity=117 time=0
EXTRACT: note_on channel=5 note=63 velocity=106 time=0
EXTRACT: note_on channel=9 note=37 velocity=91 time=0.0047961666666666665
EXTRACT: note_on channel=9 note=28 velocity=68 time=0
EXTRACT: note_on channel=9 note=39 velocity=67 time=0
EXTRACT: note_on channel=9 note=35 velocity=97 time=0
EXTRACT: note_on channel=9 note=28 velocity=0 time=0.0023980833333333332
EXTRACT: note_on channel=9 note=37 velocity=0 time=0
EXTRACT: note_on channel=9 note=40 velocity=64 time=0
EXTRACT: note_on channel=3 note=67 velocity=81 time=0.016786583333333334
EXTRACT: note_on channel=3 note=79 velocity=112 time=0
EXTRACT: control_change channel=5 control=11 value=59 time=0.0047961666666666665
EXTRACT: note_on channel=9 note=39 velocity=50 time=0.007194249999999999
EXTRACT: note_on channel=9 note=70 velocity=0 time=0.019184666666666666
EXTRACT: note_on channel=9 note=39 velocity=0 time=0.007194249999999999
EXTRACT: note_on channel=9 note=35 velocity=0 time=0
EXTRACT: note_on channel=9 note=40 velocity=0 time=0.0023980833333333332
EXTRACT: control_change channel=5 control=11 value=61 time=0.0023980833333333332
EXTRACT: control_change channel=7 control=11 value=54 time=0.014388499999999999
EXTRACT: control_change channel=6 control=11 value=54 time=0.0023980833333333332
EXTRACT: note_on channel=9 note=39 velocity=0 time=0.009592333333333333
EXTRACT: control_change channel=5 control=11 value=59 time=0.035971249999999996
EXTRACT: control_change channel=4 control=11 value=109 time=0.007194249999999999
EXTRACT: control_change channel=5 control=11 value=57 time=0.055155916666666666
EXTRACT: note_on channel=9 note=70 velocity=75 time=0.026378916666666665
EXTRACT: note_on channel=1 note=25 velocity=122 time=0.007194249999999999
EXTRACT: control_change channel=7 control=11 value=58 time=0.0047961666666666665
EXTRACT: control_change channel=6 control=11 value=58 time=0.0023980833333333332
EXTRACT: note_on channel=9 note=46 velocity=59 time=0.014388499999999999
EXTRACT: control_change channel=7 control=11 value=63 time=0.028776999999999997
EXTRACT: note_on channel=9 note=70 velocity=0 time=0
EXTRACT: control_change channel=6 control=11 value=63 time=0.0023980833333333332
EXTRACT: note_on channel=9 note=46 velocity=0 time=0.026378916666666665
EXTRACT: control_change channel=7 control=11 value=67 time=0.0023980833333333332
EXTRACT: control_change channel=6 control=11 value=67 time=0.0023980833333333332
EXTRACT: control_change channel=4 control=11 value=101 time=0.007194249999999999
EXTRACT: note_on channel=9 note=70 velocity=67 time=0.031175083333333332
EXTRACT: note_on channel=9 note=42 velocity=108 time=0.007194249999999999
EXTRACT: note_on channel=9 note=70 velocity=0 time=0.050359749999999995
EXTRACT: note_on channel=9 note=42 velocity=0 time=0.007194249999999999
EXTRACT: note_on channel=3 note=79 velocity=0 time=0.016786583333333334
EXTRACT: note_on channel=3 note=67 velocity=0 time=0
EXTRACT: control_change channel=7 control=11 value=72 time=0.019184666666666666
EXTRACT: note_on channel=1 note=25 velocity=0 time=0.0023980833333333332
EXTRACT: control_change channel=6 control=11 value=72 time=0
EXTRACT: note_on channel=9 note=70 velocity=108 time=0.014388499999999999
EXTRACT: note_on channel=5 note=63 velocity=0 time=0.0023980833333333332
EXTRACT: note_on channel=5 note=79 velocity=0 time=0
EXTRACT: note_on channel=5 note=80 velocity=116 time=0.0023980833333333332
EXTRACT: note_on channel=5 note=65 velocity=107 time=0
EXTRACT: note_on channel=9 note=35 velocity=97 time=0.0023980833333333332
EXTRACT: control_change channel=5 control=11 value=59 time=0.016786583333333334
EXTRACT: note_on channel=3 note=68 velocity=80 time=0.0023980833333333332
EXTRACT: note_on channel=3 note=80 velocity=110 time=0
EXTRACT: note_on channel=9 note=70 velocity=0 time=0.031175083333333332
EXTRACT: note_on channel=9 note=35 velocity=0 time=0.007194249999999999
EXTRACT: control_change channel=5 control=11 value=61 time=0.0047961666666666665
EXTRACT: control_change channel=5 control=11 value=59 time=0.062350166666666665
EXTRACT: control_change channel=5 control=11 value=57 time=0.07194249999999999
EXTRACT: note_on channel=1 note=25 velocity=120 time=0.023980833333333333
EXTRACT: control_change channel=7 control=11 value=77 time=0.0047961666666666665
EXTRACT: control_change channel=6 control=11 value=77 time=0.0023980833333333332
EXTRACT: note_on channel=9 note=70 velocity=76 time=0
EXTRACT: note_on channel=9 note=46 velocity=61 time=0.014388499999999999
EXTRACT: note_on channel=9 note=70 velocity=0 time=0.043165499999999996
EXTRACT: note_on channel=9 note=46 velocity=0 time=0.014388499999999999
EXTRACT: control_change channel=7 control=11 value=81 time=0.026378916666666665
EXTRACT: control_change channel=6 control=11 value=81 time=0.0023980833333333332
EXTRACT: note_on channel=9 note=70 velocity=67 time=0.014388499999999999
EXTRACT: note_on channel=9 note=42 velocity=108 time=0.009592333333333333
EXTRACT: note_on channel=3 note=80 velocity=0 time=0.047961666666666666
EXTRACT: note_on channel=3 note=68 velocity=0 time=0
EXTRACT: note_on channel=9 note=70 velocity=0 time=0
EXTRACT: control_change channel=7 control=11 value=86 time=0.0047961666666666665
EXTRACT: control_change channel=6 control=11 value=86 time=0.0023980833333333332
EXTRACT: note_on channel=9 note=42 velocity=0 time=0.0023980833333333332
EXTRACT: control_change channel=7 control=11 value=90 time=0.03357316666666667
EXTRACT: note_on channel=1 note=25 velocity=0 time=0.0023980833333333332
EXTRACT: control_change channel=6 control=11 value=90 time=0
EXTRACT: control_change channel=4 control=11 value=105 time=0.007194249999999999
EXTRACT: note_on channel=9 note=70 velocity=107 time=0.007194249999999999
EXTRACT: note_on channel=5 note=65 velocity=0 time=0.0047961666666666665
EXTRACT: note_on channel=5 note=80 velocity=0 time=0
EXTRACT: note_on channel=5 note=67 velocity=107 time=0
EXTRACT: note_on channel=5 note=82 velocity=118 time=0
EXTRACT: note_on channel=9 note=40 velocity=55 time=0.0047961666666666665
EXTRACT: note_on channel=9 note=37 velocity=91 time=0
EXTRACT: note_on channel=9 note=28 velocity=68 time=0
EXTRACT: note_on channel=9 note=39 velocity=72 time=0
EXTRACT: note_on channel=9 note=35 velocity=97 time=0
EXTRACT: note_on channel=3 note=65 velocity=80 time=0.0023980833333333332
EXTRACT: note_on channel=3 note=77 velocity=110 time=0
EXTRACT: note_on channel=9 note=28 velocity=0 time=0
EXTRACT: note_on channel=9 note=37 velocity=0 time=0
EXTRACT: control_change channel=7 control=11 value=94 time=0.011990416666666667
EXTRACT: control_change channel=6 control=11 value=94 time=0.0023980833333333332
EXTRACT: note_on channel=9 note=39 velocity=55 time=0.014388499999999999
EXTRACT: control_change channel=5 control=11 value=59 time=0.007194249999999999
EXTRACT: control_change channel=7 control=11 value=99 time=0.007194249999999999
EXTRACT: control_change channel=6 control=11 value=99 time=0.0023980833333333332
EXTRACT: note_on channel=9 note=70 velocity=0 time=0
EXTRACT: note_on channel=9 note=35 velocity=0 time=0.009592333333333333
EXTRACT: note_on channel=9 note=40 velocity=0 time=0
EXTRACT: note_on channel=9 note=39 velocity=0 time=0
EXTRACT: control_change channel=7 control=11 value=103 time=0.019184666666666666
EXTRACT: control_change channel=6 control=11 value=103 time=0.0023980833333333332
EXTRACT: note_on channel=9 note=39 velocity=0 time=0.009592333333333333
EXTRACT: control_change channel=7 control=11 value=108 time=0.019184666666666666
EXTRACT: control_change channel=6 control=11 value=108 time=0.0023980833333333332
EXTRACT: control_change channel=7 control=11 value=112 time=0.019184666666666666
EXTRACT: control_change channel=6 control=11 value=112 time=0.0023980833333333332
EXTRACT: control_change channel=7 control=11 value=117 time=0.021582749999999998
EXTRACT: control_change channel=6 control=11 value=117 time=0.0023980833333333332
EXTRACT: control_change channel=5 control=11 value=57 time=0.014388499999999999
EXTRACT: note_on channel=7 note=49 velocity=0 time=0.03357316666666667
EXTRACT: note_on channel=6 note=61 velocity=0 time=0.009592333333333333
EXTRACT: note_on channel=1 note=25 velocity=120 time=0.0047961666666666665
EXTRACT: note_on channel=9 note=70 velocity=73 time=0.007194249999999999
EXTRACT: note_on channel=9 note=46 velocity=61 time=0.014388499999999999
EXTRACT: note_on channel=9 note=70 velocity=0 time=0.043165499999999996
EXTRACT: note_on channel=9 note=46 velocity=0 time=0.014388499999999999
EXTRACT: note_on channel=9 note=70 velocity=67 time=0.04556358333333333
EXTRACT: note_on channel=9 note=42 velocity=109 time=0.007194249999999999
EXTRACT: control_change channel=4 control=11 value=101 time=0.007194249999999999
EXTRACT: note_on channel=9 note=70 velocity=0 time=0.043165499999999996
EXTRACT: note_on channel=3 note=77 velocity=0 time=0.007194249999999999
EXTRACT: note_on channel=3 note=65 velocity=0 time=0
EXTRACT: note_on channel=9 note=42 velocity=0 time=0
EXTRACT: note_on channel=1 note=25 velocity=0 time=0.035971249999999996
EXTRACT: note_on channel=7 note=51 velocity=70 time=0.007194249999999999
EXTRACT: note_on channel=6 note=63 velocity=68 time=0.0023980833333333332
EXTRACT: note_on channel=9 note=70 velocity=108 time=0.007194249999999999
EXTRACT: note_on channel=3 note=67 velocity=81 time=0.0023980833333333332
EXTRACT: note_on channel=3 note=79 velocity=112 time=0
EXTRACT: note_on channel=4 note=61 velocity=0 time=0
EXTRACT: note_on channel=4 note=68 velocity=0 time=0
EXTRACT: note_on channel=4 note=65 velocity=0 time=0
EXTRACT: note_on channel=4 note=49 velocity=0 time=0
EXTRACT: note_on channel=4 note=55 velocity=81 time=0
EXTRACT: note_on channel=4 note=63 velocity=82 time=0
EXTRACT: note_on channel=4 note=70 velocity=87 time=0
EXTRACT: note_on channel=4 note=67 velocity=86 time=0
EXTRACT: note_on channel=5 note=82 velocity=0 time=0
EXTRACT: note_on channel=5 note=67 velocity=0 time=0
EXTRACT: note_on channel=5 note=63 velocity=107 time=0
EXTRACT: note_on channel=5 note=79 velocity=116 time=0
EXTRACT: control_change channel=7 control=11 value=118 time=0.0023980833333333332
EXTRACT: control_change channel=6 control=11 value=118 time=0.0023980833333333332
EXTRACT: note_on channel=9 note=35 velocity=97 time=0
EXTRACT: control_change channel=7 control=11 value=112 time=0.014388499999999999
EXTRACT: control_change channel=6 control=11 value=112 time=0.0023980833333333332
EXTRACT: control_change channel=5 control=11 value=59 time=0.007194249999999999
EXTRACT: control_change channel=7 control=11 value=102 time=0.0047961666666666665
EXTRACT: control_change channel=6 control=11 value=102 time=0.0023980833333333332
EXTRACT: control_change channel=7 control=11 value=95 time=0.014388499999999999
EXTRACT: control_change channel=6 control=11 value=95 time=0.0023980833333333332
EXTRACT: note_on channel=9 note=70 velocity=0 time=0.0023980833333333332
EXTRACT: control_change channel=4 control=11 value=110 time=0.0047961666666666665
EXTRACT: note_on channel=9 note=35 velocity=0 time=0.0023980833333333332
EXTRACT: control_change channel=7 control=11 value=89 time=0.0023980833333333332
EXTRACT: control_change channel=6 control=11 value=89 time=0.0023980833333333332
EXTRACT: control_change channel=7 control=11 value=82 time=0.014388499999999999
EXTRACT: control_change channel=6 control=11 value=82 time=0.0023980833333333332
EXTRACT: control_change channel=7 control=11 value=76 time=0.011990416666666667
EXTRACT: control_change channel=6 control=11 value=76 time=0.0023980833333333332
EXTRACT: control_change channel=7 control=11 value=70 time=0.014388499999999999
EXTRACT: control_change channel=6 control=11 value=70 time=0.0023980833333333332
EXTRACT: control_change channel=7 control=11 value=65 time=0.021582749999999998
EXTRACT: control_change channel=6 control=11 value=65 time=0.0023980833333333332
EXTRACT: control_change channel=7 control=11 value=60 time=0.011990416666666667
EXTRACT: control_change channel=4 control=11 value=118 time=0.0023980833333333332
EXTRACT: control_change channel=6 control=11 value=60 time=0
EXTRACT: control_change channel=7 control=11 value=55 time=0.028776999999999997
EXTRACT: control_change channel=6 control=11 value=55 time=0.0023980833333333332
EXTRACT: control_change channel=5 control=11 value=57 time=0.007194249999999999
EXTRACT: control_change channel=7 control=11 value=50 time=0.014388499999999999
EXTRACT: control_change channel=6 control=11 value=50 time=0.0023980833333333332
EXTRACT: note_on channel=1 note=27 velocity=124 time=0.016786583333333334
EXTRACT: note_on channel=9 note=70 velocity=77 time=0.0047961666666666665
EXTRACT: note_on channel=9 note=46 velocity=61 time=0.016786583333333334
EXTRACT: control_change channel=7 control=11 value=44 time=0.007194249999999999
EXTRACT: control_change channel=6 control=11 value=44 time=0.0023980833333333332
EXTRACT: note_on channel=9 note=70 velocity=0 time=0.031175083333333332
EXTRACT: note_on channel=9 note=46 velocity=0 time=0.016786583333333334
EXTRACT: note_on channel=9 note=70 velocity=67 time=0.043165499999999996
EXTRACT: note_on channel=9 note=42 velocity=113 time=0.007194249999999999
EXTRACT: note_on channel=3 note=79 velocity=0 time=0.050359749999999995
EXTRACT: note_on channel=3 note=67 velocity=0 time=0
EXTRACT: note_on channel=9 note=70 velocity=0 time=0
EXTRACT: note_on channel=9 note=42 velocity=0 time=0.007194249999999999
EXTRACT: note_on channel=1 note=27 velocity=0 time=0.03836933333333333
EXTRACT: note_on channel=9 note=70 velocity=103 time=0.014388499999999999
EXTRACT: note_on channel=5 note=79 velocity=0 time=0.0023980833333333332
EXTRACT: note_on channel=5 note=63 velocity=0 time=0
EXTRACT: note_on channel=5 note=65 velocity=108 time=0.0023980833333333332
EXTRACT: note_on channel=5 note=80 velocity=113 time=0
EXTRACT: note_on channel=9 note=37 velocity=91 time=0.0023980833333333332
EXTRACT: note_on channel=9 note=28 velocity=68 time=0
EXTRACT: note_on channel=9 note=39 velocity=67 time=0
EXTRACT: note_on channel=9 note=35 velocity=97 time=0
EXTRACT: note_on channel=15 note=46 velocity=52 time=0
EXTRACT: note_on channel=9 note=28 velocity=0 time=0.0023980833333333332
EXTRACT: note_on channel=9 note=37 velocity=0 time=0
EXTRACT: note_on channel=9 note=40 velocity=64 time=0.0023980833333333332
EXTRACT: note_on channel=3 note=68 velocity=82 time=0.0023980833333333332
EXTRACT: note_on channel=3 note=80 velocity=113 time=0
EXTRACT: control_change channel=5 control=11 value=59 time=0.009592333333333333
EXTRACT: note_on channel=9 note=39 velocity=50 time=0.014388499999999999
EXTRACT: note_on channel=15 note=46 velocity=0 time=0
EXTRACT: control_change channel=4 control=11 value=114 time=0.007194249999999999
EXTRACT: control_change channel=7 control=11 value=44 time=0.007194249999999999
EXTRACT: control_change channel=6 control=11 value=44 time=0.0023980833333333332
EXTRACT: note_on channel=9 note=70 velocity=0 time=0.0023980833333333332
EXTRACT: note_on channel=9 note=39 velocity=0 time=0.007194249999999999
EXTRACT: note_on channel=9 note=35 velocity=0 time=0
EXTRACT: control_change channel=5 control=11 value=61 time=0.0047961666666666665
EXTRACT: note_on channel=9 note=40 velocity=0 time=0
EXTRACT: control_change channel=7 control=11 value=48 time=0.023980833333333333
EXTRACT: control_change channel=6 control=11 value=48 time=0.0023980833333333332
EXTRACT: note_on channel=9 note=39 velocity=0 time=0
EXTRACT: control_change channel=5 control=11 value=59 time=0.035971249999999996
EXTRACT: control_change channel=7 control=11 value=52 time=0
EXTRACT: control_change channel=6 control=11 value=52 time=0.0023980833333333332
EXTRACT: control_change channel=7 control=11 value=56 time=0.035971249999999996
EXTRACT: control_change channel=6 control=11 value=56 time=0.0023980833333333332
EXTRACT: control_change channel=4 control=11 value=106 time=0.014388499999999999
EXTRACT: control_change channel=5 control=11 value=57 time=0.016786583333333334
EXTRACT: note_on channel=9 note=70 velocity=75 time=0.019184666666666666
EXTRACT: note_on channel=1 note=27 velocity=118 time=0.0047961666666666665
EXTRACT: note_on channel=9 note=46 velocity=62 time=0.021582749999999998
EXTRACT: note_on channel=9 note=70 velocity=0 time=0.031175083333333332
EXTRACT: note_on channel=9 note=46 velocity=0 time=0.026378916666666665
EXTRACT: control_change channel=7 control=11 value=61 time=0.019184666666666666
EXTRACT: control_change channel=6 control=11 value=61 time=0.0023980833333333332
EXTRACT: control_change channel=7 control=11 value=64 time=0.0047961666666666665
EXTRACT: control_change channel=6 control=11 value=64 time=0.0023980833333333332
EXTRACT: note_on channel=9 note=70 velocity=67 time=0.014388499999999999
EXTRACT: note_on channel=9 note=42 velocity=111 time=0.009592333333333333
EXTRACT: note_on channel=3 note=80 velocity=0 time=0.035971249999999996
EXTRACT: note_on channel=3 note=68 velocity=0 time=0
EXTRACT: control_change channel=7 control=11 value=66 time=0.0023980833333333332
EXTRACT: control_change channel=6 control=11 value=66 time=0.0023980833333333332
EXTRACT: note_on channel=9 note=70 velocity=0 time=0.007194249999999999
EXTRACT: note_on channel=9 note=42 velocity=0 time=0.009592333333333333
EXTRACT: note_on channel=1 note=27 velocity=0 time=0.035971249999999996
EXTRACT: control_change channel=4 control=11 value=98 time=0.014388499999999999
EXTRACT: note_on channel=9 note=70 velocity=103 time=0
EXTRACT: note_on channel=5 note=80 velocity=0 time=0.0047961666666666665
EXTRACT: note_on channel=5 note=65 velocity=0 time=0
EXTRACT: note_on channel=5 note=67 velocity=109 time=0
EXTRACT: note_on channel=5 note=82 velocity=119 time=0
EXTRACT: note_on channel=9 note=35 velocity=97 time=0.0047961666666666665
EXTRACT: note_on channel=3 note=70 velocity=82 time=0.021582749999999998
EXTRACT: note_on channel=3 note=82 velocity=113 time=0
EXTRACT: control_change channel=5 control=11 value=59 time=0
EXTRACT: note_on channel=9 note=70 velocity=0 time=0.026378916666666665
EXTRACT: note_on channel=9 note=35 velocity=0 time=0.009592333333333333
EXTRACT: control_change channel=5 control=11 value=57 time=0.11990416666666666
EXTRACT: note_on channel=1 note=27 velocity=121 time=0.04076741666666667
EXTRACT: control_change channel=7 control=11 value=71 time=0.0047961666666666665
EXTRACT: control_change channel=6 control=11 value=71 time=0.0023980833333333332
EXTRACT: note_on channel=9 note=82 velocity=65 time=0.007194249999999999
EXTRACT: note_on channel=9 note=46 velocity=63 time=0.007194249999999999
EXTRACT: note_on channel=9 note=82 velocity=0 time=0.050359749999999995
EXTRACT: note_on channel=9 note=46 velocity=0 time=0.007194249999999999
EXTRACT: control_change channel=7 control=11 value=76 time=0.035971249999999996
EXTRACT: control_change channel=6 control=11 value=76 time=0.0023980833333333332
EXTRACT: note_on channel=9 note=82 velocity=57 time=0.014388499999999999
EXTRACT: note_on channel=9 note=42 velocity=111 time=0
EXTRACT: control_change channel=7 control=11 value=80 time=0.014388499999999999
EXTRACT: control_change channel=6 control=11 value=80 time=0.0023980833333333332
EXTRACT: note_on channel=9 note=39 velocity=50 time=0.021582749999999998
EXTRACT: note_on channel=3 note=82 velocity=0 time=0.014388499999999999
EXTRACT: note_on channel=3 note=70 velocity=0 time=0
EXTRACT: control_change channel=7 control=11 value=85 time=0
EXTRACT: control_change channel=6 control=11 value=85 time=0.0023980833333333332
EXTRACT: note_on channel=9 note=42 velocity=0 time=0.0023980833333333332
EXTRACT: note_on channel=9 note=82 velocity=0 time=0
EXTRACT: note_on channel=1 note=27 velocity=0 time=0.035971249999999996
EXTRACT: note_on channel=9 note=39 velocity=0 time=0.0023980833333333332
EXTRACT: control_change channel=7 control=11 value=89 time=0.0047961666666666665
EXTRACT: control_change channel=6 control=11 value=89 time=0.0023980833333333332
EXTRACT: note_on channel=3 note=72 velocity=81 time=0.0023980833333333332
EXTRACT: note_on channel=3 note=84 velocity=112 time=0
EXTRACT: control_change channel=12 control=10 value=10 time=0.0047961666666666665
EXTRACT: note_on channel=5 note=82 velocity=0 time=0.0023980833333333332
EXTRACT: note_on channel=5 note=67 velocity=0 time=0
EXTRACT: note_on channel=5 note=68 velocity=108 time=0
EXTRACT: note_on channel=5 note=84 velocity=118 time=0
EXTRACT: note_on channel=11 note=51 velocity=127 time=0
EXTRACT: note_on channel=9 note=40 velocity=55 time=0.0047961666666666665
EXTRACT: note_on channel=9 note=37 velocity=91 time=0
EXTRACT: note_on channel=9 note=28 velocity=68 time=0
EXTRACT: note_on channel=9 note=39 velocity=73 time=0
EXTRACT: note_on channel=9 note=82 velocity=71 time=0
EXTRACT: note_on channel=9 note=35 velocity=97 time=0
EXTRACT: note_on channel=12 note=49 velocity=85 time=0
EXTRACT: note_on channel=15 note=46 velocity=52 time=0
EXTRACT: note_on channel=9 note=28 velocity=0 time=0.0023980833333333332
EXTRACT: note_on channel=9 note=37 velocity=0 time=0
EXTRACT: control_change channel=7 control=11 value=93 time=0.0047961666666666665
EXTRACT: control_change channel=6 control=11 value=93 time=0.0023980833333333332
EXTRACT: control_change channel=4 control=11 value=106 time=0.014388499999999999
EXTRACT: note_on channel=9 note=39 velocity=55 time=0.007194249999999999
EXTRACT: note_on channel=15 note=46 velocity=0 time=0
EXTRACT: control_change channel=5 control=11 value=59 time=0.007194249999999999
EXTRACT: control_change channel=7 control=11 value=98 time=0
EXTRACT: control_change channel=6 control=11 value=98 time=0.0023980833333333332
EXTRACT: note_on channel=11 note=51 velocity=0 time=0.011990416666666667
EXTRACT: note_on channel=9 note=39 velocity=0 time=0.0047961666666666665
EXTRACT: note_on channel=9 note=82 velocity=0 time=0
EXTRACT: note_on channel=9 note=40 velocity=0 time=0
EXTRACT: note_on channel=9 note=35 velocity=0 time=0
EXTRACT: control_change channel=7 control=11 value=102 time=0.0023980833333333332
EXTRACT: control_change channel=6 control=11 value=102 time=0.0023980833333333332
EXTRACT: note_on channel=12 note=53 velocity=81 time=0.014388499999999999
EXTRACT: note_on channel=9 note=39 velocity=0 time=0.011990416666666667
EXTRACT: control_change channel=7 control=11 value=107 time=0.011990416666666667
EXTRACT: control_change channel=6 control=11 value=107 time=0.0023980833333333332
EXTRACT: note_on channel=12 note=49 velocity=0 time=0.016786583333333334
EXTRACT: control_change channel=7 control=11 value=112 time=0.0023980833333333332
EXTRACT: control_change channel=6 control=11 value=112 time=0.0023980833333333332
EXTRACT: control_change channel=7 control=11 value=117 time=0.021582749999999998
EXTRACT: control_change channel=6 control=11 value=117 time=0.0023980833333333332
EXTRACT: note_on channel=12 note=56 velocity=109 time=0.007194249999999999
EXTRACT: control_change channel=5 control=11 value=57 time=0.016786583333333334
EXTRACT: note_on channel=7 note=51 velocity=0 time=0.028776999999999997
EXTRACT: note_on channel=6 note=63 velocity=0 time=0.009592333333333333
EXTRACT: note_on channel=12 note=53 velocity=0 time=0.0047961666666666665
EXTRACT: note_on channel=1 note=27 velocity=122 time=0.0047961666666666665
EXTRACT: note_on channel=9 note=82 velocity=53 time=0.014388499999999999
EXTRACT: note_on channel=12 note=61 velocity=101 time=0
EXTRACT: note_on channel=3 note=84 velocity=0 time=0.0023980833333333332
EXTRACT: note_on channel=3 note=72 velocity=0 time=0
EXTRACT: note_on channel=9 note=46 velocity=62 time=0.0047961666666666665
EXTRACT: note_on channel=12 note=56 velocity=0 time=0.016786583333333334
EXTRACT: note_on channel=9 note=82 velocity=0 time=0.03357316666666667
EXTRACT: note_on channel=12 note=61 velocity=0 time=0.0047961666666666665
EXTRACT: note_on channel=9 note=46 velocity=0 time=0.0023980833333333332
EXTRACT: note_on channel=12 note=65 velocity=92 time=0.011990416666666667
EXTRACT: note_on channel=9 note=82 velocity=50 time=0.03836933333333333
EXTRACT: note_on channel=9 note=42 velocity=113 time=0
EXTRACT: note_on channel=12 note=65 velocity=0 time=0.03836933333333333
EXTRACT: note_on channel=12 note=68 velocity=106 time=0.0023980833333333332
EXTRACT: note_on channel=9 note=42 velocity=0 time=0.016786583333333334
EXTRACT: note_on channel=9 note=82 velocity=0 time=0
EXTRACT: note_on channel=1 note=27 velocity=0 time=0.03836933333333333
EXTRACT: note_on channel=4 note=49 velocity=94 time=0.014388499999999999
EXTRACT: note_on channel=4 note=65 velocity=104 time=0
EXTRACT: note_on channel=4 note=68 velocity=105 time=0
EXTRACT: note_on channel=4 note=61 velocity=102 time=0
EXTRACT: note_on channel=9 note=70 velocity=103 time=0
EXTRACT: note_on channel=1 note=37 velocity=111 time=0.0023980833333333332
EXTRACT: note_on channel=4 note=67 velocity=0 time=0
EXTRACT: note_on channel=4 note=70 velocity=0 time=0
EXTRACT: note_on channel=4 note=55 velocity=0 time=0
EXTRACT: note_on channel=4 note=63 velocity=0 time=0
EXTRACT: note_on channel=5 note=84 velocity=0 time=0
EXTRACT: note_on channel=5 note=68 velocity=0 time=0
EXTRACT: note_on channel=11 note=44 velocity=127 time=0
EXTRACT: control_change channel=4 control=11 value=108 time=0.0047961666666666665
EXTRACT: control_change channel=4 control=11 value=76 time=0
EXTRACT: control_change channel=5 control=11 value=110 time=0
EXTRACT: note_on channel=5 note=56 velocity=126 time=0
EXTRACT: note_on channel=9 note=35 velocity=97 time=0
EXTRACT: note_on channel=9 note=57 velocity=90 time=0
EXTRACT: note_on channel=12 note=68 velocity=0 time=0
EXTRACT: note_on channel=12 note=73 velocity=101 time=0
EXTRACT: control_change channel=4 control=11 value=78 time=0.047961666666666666
EXTRACT: note_on channel=9 note=70 velocity=0 time=0.0023980833333333332
EXTRACT: note_on channel=11 note=44 velocity=0 time=0.0023980833333333332
EXTRACT: note_on channel=9 note=57 velocity=0 time=0.0047961666666666665
EXTRACT: note_on channel=9 note=35 velocity=0 time=0
EXTRACT: note_on channel=5 note=56 velocity=0 time=0.07434058333333333
EXTRACT: note_on channel=5 note=49 velocity=119 time=0.10311758333333333
EXTRACT: control_change channel=4 control=11 value=76 time=0.062350166666666665
EXTRACT: note_on channel=5 note=49 velocity=0 time=0.0023980833333333332
EXTRACT: control_change channel=8 control=11 value=120 time=0.15107925
EXTRACT: note_on channel=8 note=37 velocity=97 time=0
EXTRACT: control_change channel=7 control=11 value=120 time=0.0023980833333333332
EXTRACT: note_on channel=7 note=61 velocity=107 time=0
EXTRACT: note_on channel=12 note=73 velocity=0 time=0.014388499999999999
EXTRACT: control_change channel=6 control=11 value=109 time=0.007194249999999999
EXTRACT: note_on channel=6 note=61 velocity=117 time=0
EXTRACT: note_on channel=3 note=80 velocity=107 time=0
EXTRACT: note_on channel=3 note=68 velocity=78 time=0
EXTRACT: control_change channel=8 control=11 value=118 time=0
EXTRACT: control_change channel=8 control=11 value=116 time=0.014388499999999999
EXTRACT: control_change channel=7 control=11 value=116 time=0.0023980833333333332
EXTRACT: control_change channel=8 control=11 value=114 time=0.007194249999999999
EXTRACT: control_change channel=8 control=11 value=112 time=0.007194249999999999
EXTRACT: control_change channel=7 control=11 value=112 time=0.0023980833333333332
EXTRACT: control_change channel=8 control=11 value=110 time=0.0047961666666666665
EXTRACT: control_change channel=8 control=11 value=108 time=0.007194249999999999
EXTRACT: control_change channel=7 control=11 value=108 time=0.0023980833333333332
EXTRACT: control_change channel=8 control=11 value=105 time=0.014388499999999999
EXTRACT: note_on channel=6 note=61 velocity=0 time=0.011990416666666667
EXTRACT: control_change channel=8 control=11 value=102 time=0.0023980833333333332
EXTRACT: control_change channel=7 control=11 value=102 time=0.0023980833333333332
EXTRACT: control_change channel=8 control=11 value=100 time=0.007194249999999999
EXTRACT: control_change channel=8 control=11 value=98 time=0.007194249999999999
EXTRACT: control_change channel=7 control=11 value=98 time=0.0023980833333333332
EXTRACT: control_change channel=8 control=11 value=95 time=0.011990416666666667
EXTRACT: control_change channel=8 control=11 value=93 time=0.009592333333333333
EXTRACT: control_change channel=7 control=11 value=93 time=0.0023980833333333332
EXTRACT: control_change channel=8 control=11 value=91 time=0.0047961666666666665
EXTRACT: control_change channel=8 control=11 value=88 time=0.007194249999999999
EXTRACT: control_change channel=7 control=11 value=88 time=0.0023980833333333332
EXTRACT: control_change channel=4 control=11 value=74 time=0.0023980833333333332
EXTRACT: control_change channel=8 control=11 value=86 time=0.0023980833333333332
EXTRACT: control_change channel=8 control=11 value=84 time=0.009592333333333333
EXTRACT: control_change channel=7 control=11 value=84 time=0.0023980833333333332
EXTRACT: control_change channel=8 control=11 value=82 time=0.0047961666666666665
EXTRACT: note_on channel=3 note=68 velocity=0 time=0.007194249999999999
EXTRACT: note_on channel=3 note=80 velocity=0 time=0
EXTRACT: control_change channel=8 control=11 value=80 time=0.007194249999999999
EXTRACT: control_change channel=7 control=11 value=80 time=0.0023980833333333332
EXTRACT: control_change channel=8 control=11 value=78 time=0.014388499999999999
EXTRACT: control_change channel=8 control=11 value=76 time=0.007194249999999999
EXTRACT: control_change channel=7 control=11 value=76 time=0.0023980833333333332
EXTRACT: control_change channel=8 control=11 value=74 time=0.0047961666666666665
EXTRACT: note_on channel=5 note=49 velocity=119 time=0.011990416666666667
EXTRACT: control_change channel=8 control=11 value=71 time=0.0047961666666666665
EXTRACT: control_change channel=7 control=11 value=71 time=0.0023980833333333332
EXTRACT: control_change channel=8 control=11 value=69 time=0.0047961666666666665
EXTRACT: control_change channel=8 control=11 value=67 time=0.009592333333333333
EXTRACT: control_change channel=7 control=11 value=67 time=0.0023980833333333332
EXTRACT: control_change channel=8 control=11 value=65 time=0.011990416666666667
EXTRACT: control_change channel=8 control=11 value=63 time=0.016786583333333334
EXTRACT: control_change channel=7 control=11 value=63 time=0.0023980833333333332
EXTRACT: note_on channel=5 note=49 velocity=0 time=0.0023980833333333332
EXTRACT: control_change channel=8 control=11 value=61 time=0.016786583333333334
EXTRACT: control_change channel=8 control=11 value=59 time=0.016786583333333334
EXTRACT: control_change channel=7 control=11 value=59 time=0.0023980833333333332
EXTRACT: control_change channel=8 control=11 value=57 time=0.011990416666666667
EXTRACT: control_change channel=8 control=11 value=55 time=0.016786583333333334
EXTRACT: control_change channel=7 control=11 value=55 time=0.0023980833333333332
EXTRACT: control_change channel=8 control=11 value=53 time=0.011990416666666667
EXTRACT: control_change channel=8 control=11 value=51 time=0.031175083333333332
EXTRACT: control_change channel=7 control=11 value=51 time=0.0023980833333333332
EXTRACT: control_change channel=8 control=11 value=49 time=0.028776999999999997
EXTRACT: control_change channel=8 control=11 value=47 time=0.016786583333333334
EXTRACT: control_change channel=7 control=11 value=47 time=0.0023980833333333332
EXTRACT: note_on channel=5 note=56 velocity=125 time=0.016786583333333334
EXTRACT: control_change channel=8 control=11 value=45 time=0.019184666666666666
EXTRACT: note_on channel=3 note=80 velocity=108 time=0.0047961666666666665
EXTRACT: note_on channel=3 note=68 velocity=78 time=0
EXTRACT: control_change channel=8 control=11 value=43 time=0.011990416666666667
EXTRACT: control_change channel=7 control=11 value=43 time=0.0023980833333333332
EXTRACT: control_change channel=4 control=11 value=76 time=0.023980833333333333
EXTRACT: note_on channel=5 note=56 velocity=0 time=0.007194249999999999
EXTRACT: note_on channel=3 note=68 velocity=0 time=0.11270991666666666
EXTRACT: note_on channel=3 note=80 velocity=0 time=0
EXTRACT: note_on channel=5 note=49 velocity=119 time=0.05275783333333333
EXTRACT: control_change channel=6 control=11 value=108 time=0.007194249999999999
EXTRACT: note_on channel=6 note=61 velocity=112 time=0
EXTRACT: control_change channel=8 control=11 value=41 time=0.043165499999999996
EXTRACT: control_change channel=8 control=11 value=39 time=0.014388499999999999
EXTRACT: control_change channel=7 control=11 value=39 time=0.0023980833333333332
EXTRACT: note_on channel=5 note=49 velocity=0 time=0.0023980833333333332
EXTRACT: note_on channel=6 note=61 velocity=0 time=0.026378916666666665
EXTRACT: control_change channel=4 control=11 value=78 time=0.12230225
EXTRACT: note_on channel=3 note=80 velocity=110 time=0.019184666666666666
EXTRACT: note_on channel=3 note=68 velocity=80 time=0
EXTRACT: control_change channel=8 control=11 value=41 time=0.14868116666666667
EXTRACT: note_on channel=3 note=68 velocity=0 time=0.057553999999999994
EXTRACT: note_on channel=3 note=80 velocity=0 time=0
EXTRACT: control_change channel=4 control=11 value=80 time=0
EXTRACT: note_on channel=5 note=49 velocity=119 time=0.023980833333333333
EXTRACT: control_change channel=8 control=11 value=43 time=0.0047961666666666665
EXTRACT: control_change channel=7 control=11 value=43 time=0.0023980833333333332
EXTRACT: note_on channel=5 note=49 velocity=0 time=0.050359749999999995
EXTRACT: control_change channel=8 control=11 value=45 time=0.09592333333333333
EXTRACT: control_change channel=6 control=11 value=109 time=0.07434058333333333
EXTRACT: note_on channel=6 note=61 velocity=107 time=0
EXTRACT: note_on channel=5 note=56 velocity=125 time=0.007194249999999999
EXTRACT: note_on channel=3 note=80 velocity=108 time=0.0023980833333333332
EXTRACT: note_on channel=3 note=68 velocity=78 time=0
EXTRACT: control_change channel=8 control=11 value=47 time=0.023980833333333333
EXTRACT: control_change channel=7 control=11 value=47 time=0.0023980833333333332
EXTRACT: control_change channel=8 control=11 value=49 time=0.014388499999999999
EXTRACT: note_on channel=6 note=61 velocity=0 time=0.03836933333333333
EXTRACT: note_on channel=5 note=56 velocity=0 time=0.0023980833333333332
EXTRACT: control_change channel=8 control=11 value=51 time=0.011990416666666667
EXTRACT: control_change channel=7 control=11 value=51 time=0.0023980833333333332
EXTRACT: control_change channel=4 control=11 value=82 time=0.0023980833333333332
EXTRACT: control_change channel=8 control=11 value=53 time=0.043165499999999996
EXTRACT: control_change channel=8 control=11 value=55 time=0.03836933333333333
EXTRACT: control_change channel=7 control=11 value=55 time=0.0023980833333333332
EXTRACT: control_change channel=8 control=11 value=57 time=0.014388499999999999
EXTRACT: note_on channel=5 note=49 velocity=120 time=0.03357316666666667
EXTRACT: control_change channel=8 control=11 value=59 time=0.0047961666666666665
EXTRACT: control_change channel=7 control=11 value=59 time=0.0023980833333333332
EXTRACT: control_change channel=8 control=11 value=61 time=0.014388499999999999
EXTRACT: control_change channel=8 control=11 value=63 time=0.031175083333333332
EXTRACT: control_change channel=7 control=11 value=63 time=0.0023980833333333332
EXTRACT: note_on channel=5 note=49 velocity=0 time=0.016786583333333334
EXTRACT: control_change channel=8 control=11 value=65 time=0.03357316666666667
EXTRACT: control_change channel=8 control=11 value=67 time=0.016786583333333334
EXTRACT: control_change channel=7 control=11 value=67 time=0.0023980833333333332
EXTRACT: note_on channel=3 note=68 velocity=0 time=0.026378916666666665
EXTRACT: note_on channel=3 note=80 velocity=0 time=0
EXTRACT: control_change channel=8 control=11 value=69 time=0.016786583333333334
EXTRACT: control_change channel=8 control=11 value=71 time=0.04076741666666667
EXTRACT: control_change channel=7 control=11 value=71 time=0.0023980833333333332
EXTRACT: note_on channel=3 note=80 velocity=110 time=0.043165499999999996
EXTRACT: note_on channel=3 note=68 velocity=80 time=0
EXTRACT: control_change channel=8 control=11 value=73 time=0.016786583333333334
EXTRACT: control_change channel=8 control=11 value=75 time=0.014388499999999999
EXTRACT: control_change channel=7 control=11 value=75 time=0.0023980833333333332
EXTRACT: control_change channel=8 control=11 value=77 time=0.07673866666666666
EXTRACT: note_on channel=3 note=68 velocity=0 time=0.009592333333333333
EXTRACT: note_on channel=3 note=80 velocity=0 time=0
EXTRACT: note_on channel=5 note=49 velocity=120 time=0.09592333333333333
EXTRACT: control_change channel=6 control=11 value=108 time=0.0047961666666666665
EXTRACT: note_on channel=6 note=61 velocity=112 time=0
EXTRACT: control_change channel=8 control=11 value=79 time=0.021582749999999998
EXTRACT: control_change channel=7 control=11 value=79 time=0.0023980833333333332
EXTRACT: note_on channel=3 note=80 velocity=111 time=0.0047961666666666665
EXTRACT: note_on channel=3 note=68 velocity=81 time=0
EXTRACT: note_on channel=5 note=49 velocity=0 time=0.023980833333333333
EXTRACT: control_change channel=8 control=11 value=81 time=0.031175083333333332
EXTRACT: note_on channel=6 note=61 velocity=0 time=0.0047961666666666665
EXTRACT: control_change channel=8 control=11 value=83 time=0.057553999999999994
EXTRACT: control_change channel=7 control=11 value=83 time=0.0023980833333333332
EXTRACT: control_change channel=8 control=11 value=85 time=0.014388499999999999
EXTRACT: control_change channel=8 control=11 value=87 time=0.014388499999999999
EXTRACT: control_change channel=7 control=11 value=87 time=0.0023980833333333332
EXTRACT: note_on channel=5 note=56 velocity=125 time=0.047961666666666666
EXTRACT: control_change channel=8 control=11 value=89 time=0.05995208333333333
EXTRACT: control_change channel=4 control=11 value=80 time=0.026378916666666665
EXTRACT: note_on channel=5 note=56 velocity=0 time=0.007194249999999999
EXTRACT: note_on channel=3 note=68 velocity=0 time=0.07434058333333333
EXTRACT: note_on channel=3 note=80 velocity=0 time=0
EXTRACT: note_on channel=1 note=37 velocity=0 time=0.009592333333333333
EXTRACT: note_on channel=14 note=72 velocity=74 time=0.0047961666666666665
EXTRACT: control_change channel=8 control=11 value=91 time=0.026378916666666665
EXTRACT: control_change channel=7 control=11 value=91 time=0.0023980833333333332
EXTRACT: note_on channel=5 note=49 velocity=120 time=0.023980833333333333
EXTRACT: note_on channel=3 note=82 velocity=110 time=0.011990416666666667
EXTRACT: note_on channel=3 note=70 velocity=80 time=0
EXTRACT: control_change channel=8 control=11 value=93 time=0
EXTRACT: control_change channel=4 control=11 value=78 time=0.026378916666666665
EXTRACT: control_change channel=8 control=11 value=95 time=0.011990416666666667
EXTRACT: control_change channel=7 control=11 value=95 time=0.0023980833333333332
EXTRACT: control_change channel=8 control=11 value=97 time=0.007194249999999999
EXTRACT: note_on channel=5 note=49 velocity=0 time=0.011990416666666667
EXTRACT: control_change channel=8 control=11 value=99 time=0.0023980833333333332
EXTRACT: control_change channel=7 control=11 value=99 time=0.0023980833333333332
EXTRACT: control_change channel=8 control=11 value=101 time=0.014388499999999999
EXTRACT: control_change channel=8 control=11 value=103 time=0.007194249999999999
EXTRACT: control_change channel=7 control=11 value=103 time=0.0023980833333333332
EXTRACT: control_change channel=8 control=11 value=105 time=0.0047961666666666665
EXTRACT: control_change channel=8 control=11 value=107 time=0.007194249999999999
EXTRACT: control_change channel=7 control=11 value=107 time=0.0023980833333333332
EXTRACT: control_change channel=8 control=11 value=110 time=0.007194249999999999
EXTRACT: control_change channel=8 control=11 value=112 time=0.007194249999999999
EXTRACT: control_change channel=7 control=11 value=112 time=0.0023980833333333332
EXTRACT: control_change channel=8 control=11 value=115 time=0.0047961666666666665
EXTRACT: control_change channel=8 control=11 value=118 time=0.007194249999999999
EXTRACT: control_change channel=7 control=11 value=118 time=0.0023980833333333332
EXTRACT: control_change channel=8 control=11 value=121 time=0.007194249999999999
EXTRACT: note_on channel=3 note=70 velocity=0 time=0.021582749999999998
EXTRACT: note_on channel=3 note=82 velocity=0 time=0
EXTRACT: note_on channel=8 note=37 velocity=0 time=0.023980833333333333
EXTRACT: note_on channel=7 note=61 velocity=0 time=0.0023980833333333332
EXTRACT: control_change channel=6 control=11 value=108 time=0.019184666666666666
EXTRACT: note_on channel=6 note=61 velocity=110 time=0
EXTRACT: control_change channel=12 control=10 value=10 time=0.0047961666666666665
EXTRACT: note_on channel=11 note=52 velocity=127 time=0.0047961666666666665
EXTRACT: control_change channel=4 control=11 value=76 time=0.0047961666666666665
EXTRACT: note_on channel=12 note=52 velocity=85 time=0
EXTRACT: note_on channel=3 note=80 velocity=110 time=0.021582749999999998
EXTRACT: note_on channel=3 note=68 velocity=80 time=0
EXTRACT: note_on channel=11 note=52 velocity=0 time=0.031175083333333332
EXTRACT: note_on channel=6 note=61 velocity=0 time=0.021582749999999998
EXTRACT: note_on channel=12 note=56 velocity=81 time=0.0023980833333333332
EXTRACT: note_on channel=12 note=52 velocity=0 time=0.043165499999999996
EXTRACT: note_on channel=12 note=59 velocity=109 time=0.035971249999999996
EXTRACT: note_on channel=14 note=72 velocity=0 time=0.023980833333333333
EXTRACT: note_on channel=12 note=56 velocity=0 time=0.035971249999999996
EXTRACT: note_on channel=5 note=49 velocity=120 time=0.016786583333333334
EXTRACT: note_on channel=12 note=64 velocity=101 time=0
EXTRACT: note_on channel=12 note=59 velocity=0 time=0.026378916666666665
EXTRACT: note_on channel=3 note=68 velocity=0 time=0.023980833333333333
EXTRACT: note_on channel=3 note=80 velocity=0 time=0
EXTRACT: note_on channel=12 note=64 velocity=0 time=0.011990416666666667
EXTRACT: note_on channel=5 note=49 velocity=0 time=0.0023980833333333332
EXTRACT: note_on channel=12 note=68 velocity=92 time=0.014388499999999999
EXTRACT: note_on channel=12 note=68 velocity=0 time=0.07673866666666666
EXTRACT: note_on channel=12 note=71 velocity=106 time=0
EXTRACT: note_on channel=4 note=49 velocity=0 time=0.06954441666666666
EXTRACT: note_on channel=4 note=61 velocity=0 time=0
EXTRACT: note_on channel=4 note=65 velocity=0 time=0
EXTRACT: note_on channel=4 note=68 velocity=0 time=0
EXTRACT: note_on channel=1 note=40 velocity=111 time=0.0023980833333333332
EXTRACT: note_on channel=4 note=68 velocity=107 time=0.0023980833333333332
EXTRACT: note_on channel=4 note=52 velocity=98 time=0
EXTRACT: note_on channel=4 note=59 velocity=103 time=0
EXTRACT: note_on channel=4 note=64 velocity=106 time=0
EXTRACT: note_on channel=12 note=71 velocity=0 time=0.0023980833333333332
EXTRACT: note_on channel=5 note=56 velocity=125 time=0.0023980833333333332
EXTRACT: note_on channel=9 note=35 velocity=97 time=0
EXTRACT: note_on channel=9 note=57 velocity=90 time=0
EXTRACT: note_on channel=12 note=76 velocity=101 time=0
EXTRACT: control_change channel=4 control=11 value=78 time=0.055155916666666666
EXTRACT: note_on channel=9 note=57 velocity=0 time=0.0023980833333333332
EXTRACT: note_on channel=9 note=35 velocity=0 time=0
EXTRACT: note_on channel=5 note=56 velocity=0 time=0.031175083333333332
EXTRACT: note_on channel=5 note=49 velocity=119 time=0.1462830833333333
EXTRACT: control_change channel=4 control=11 value=76 time=0.05275783333333333
EXTRACT: note_on channel=5 note=49 velocity=0 time=0.011990416666666667
EXTRACT: note_on channel=8 note=37 velocity=92 time=0.14868116666666667
EXTRACT: note_on channel=7 note=61 velocity=102 time=0.0023980833333333332
EXTRACT: control_change channel=6 control=11 value=108 time=0.014388499999999999
EXTRACT: note_on channel=6 note=61 velocity=109 time=0
EXTRACT: note_on channel=12 note=76 velocity=0 time=0.0023980833333333332
EXTRACT: control_change channel=8 control=11 value=119 time=0.011990416666666667
EXTRACT: control_change channel=7 control=11 value=119 time=0.0023980833333333332
EXTRACT: note_on channel=3 note=80 velocity=110 time=0.014388499999999999
EXTRACT: note_on channel=3 note=68 velocity=80 time=0
EXTRACT: control_change channel=8 control=11 value=117 time=0
EXTRACT: control_change channel=8 control=11 value=115 time=0.014388499999999999
EXTRACT: control_change channel=7 control=11 value=115 time=0.0023980833333333332
EXTRACT: control_change channel=8 control=11 value=113 time=0.007194249999999999
EXTRACT: control_change channel=8 control=11 value=111 time=0.007194249999999999
EXTRACT: control_change channel=7 control=11 value=111 time=0.0023980833333333332
EXTRACT: control_change channel=8 control=11 value=109 time=0.0047961666666666665
EXTRACT: control_change channel=8 control=11 value=106 time=0.016786583333333334
EXTRACT: note_on channel=6 note=61 velocity=0 time=0.0023980833333333332
EXTRACT: control_change channel=7 control=11 value=106 time=0
EXTRACT: control_change channel=8 control=11 value=103 time=0.011990416666666667
EXTRACT: control_change channel=8 control=11 value=101 time=0.007194249999999999
EXTRACT: control_change channel=7 control=11 value=101 time=0.0023980833333333332
EXTRACT: control_change channel=8 control=11 value=99 time=0.007194249999999999
EXTRACT: control_change channel=8 control=11 value=96 time=0.014388499999999999
EXTRACT: control_change channel=7 control=11 value=96 time=0.0023980833333333332
EXTRACT: control_change channel=8 control=11 value=92 time=0.014388499999999999
EXTRACT: control_change channel=8 control=11 value=90 time=0.007194249999999999
EXTRACT: control_change channel=7 control=11 value=90 time=0.0023980833333333332
EXTRACT: control_change channel=8 control=11 value=88 time=0.0047961666666666665
EXTRACT: control_change channel=4 control=11 value=74 time=0.0047961666666666665
EXTRACT: control_change channel=8 control=11 value=86 time=0.0023980833333333332
EXTRACT: control_change channel=7 control=11 value=86 time=0.0023980833333333332
EXTRACT: control_change channel=8 control=11 value=84 time=0.007194249999999999
EXTRACT: control_change channel=8 control=11 value=82 time=0.014388499999999999
EXTRACT: control_change channel=7 control=11 value=82 time=0.0023980833333333332
EXTRACT: control_change channel=8 control=11 value=80 time=0.014388499999999999
EXTRACT: control_change channel=8 control=11 value=78 time=0.007194249999999999
EXTRACT: control_change channel=7 control=11 value=78 time=0.0023980833333333332
EXTRACT: control_change channel=8 control=11 value=75 time=0.011990416666666667
EXTRACT: note_on channel=5 note=49 velocity=119 time=0.0047961666666666665
EXTRACT: control_change channel=8 control=11 value=73 time=0.0047961666666666665
EXTRACT: control_change channel=7 control=11 value=73 time=0.0023980833333333332
EXTRACT: control_change channel=8 control=11 value=71 time=0.0047961666666666665
EXTRACT: note_on channel=3 note=68 velocity=0 time=0.0023980833333333332
EXTRACT: note_on channel=3 note=80 velocity=0 time=0
EXTRACT: control_change channel=8 control=11 value=69 time=0.011990416666666667
EXTRACT: control_change channel=7 control=11 value=69 time=0.0023980833333333332
EXTRACT: control_change channel=8 control=11 value=67 time=0.014388499999999999
EXTRACT: control_change channel=8 control=11 value=65 time=0.016786583333333334
EXTRACT: control_change channel=7 control=11 value=65 time=0.0023980833333333332
EXTRACT: note_on channel=5 note=49 velocity=0 time=0.014388499999999999
EXTRACT: control_change channel=8 control=11 value=63 time=0.0047961666666666665
EXTRACT: control_change channel=8 control=11 value=61 time=0.016786583333333334
EXTRACT: control_change channel=7 control=11 value=61 time=0.0023980833333333332
EXTRACT: control_change channel=8 control=11 value=59 time=0.021582749999999998
EXTRACT: control_change channel=8 control=11 value=57 time=0.014388499999999999
EXTRACT: control_change channel=7 control=11 value=57 time=0.0023980833333333332
EXTRACT: control_change channel=8 control=11 value=55 time=0.021582749999999998
EXTRACT: control_change channel=8 control=11 value=53 time=0.03836933333333333
EXTRACT: control_change channel=7 control=11 value=53 time=0.0023980833333333332
EXTRACT: control_change channel=8 control=11 value=51 time=0.014388499999999999
EXTRACT: note_on channel=3 note=80 velocity=110 time=0.019184666666666666
EXTRACT: note_on channel=3 note=68 velocity=80 time=0
EXTRACT: note_on channel=5 note=56 velocity=125 time=0
EXTRACT: control_change channel=8 control=11 value=49 time=0.019184666666666666
EXTRACT: control_change channel=7 control=11 value=49 time=0.0023980833333333332
EXTRACT: control_change channel=8 control=11 value=47 time=0.011990416666666667
EXTRACT: control_change channel=4 control=11 value=76 time=0.019184666666666666
EXTRACT: note_on channel=5 note=56 velocity=0 time=0.031175083333333332
EXTRACT: note_on channel=5 note=49 velocity=119 time=0.14868116666666667
EXTRACT: control_change channel=6 control=11 value=109 time=0.009592333333333333
EXTRACT: note_on channel=6 note=61 velocity=113 time=0
EXTRACT: control_change channel=8 control=11 value=45 time=0.043165499999999996
EXTRACT: control_change channel=7 control=11 value=45 time=0.0023980833333333332
EXTRACT: note_on channel=5 note=49 velocity=0 time=0.009592333333333333
EXTRACT: control_change channel=8 control=11 value=43 time=0.0023980833333333332
EXTRACT: note_on channel=6 note=61 velocity=0 time=0.031175083333333332
EXTRACT: note_on channel=3 note=68 velocity=0 time=0.06714633333333334
EXTRACT: note_on channel=3 note=80 velocity=0 time=0
EXTRACT: control_change channel=4 control=11 value=78 time=0.062350166666666665
EXTRACT: note_on channel=3 note=82 velocity=111 time=0.019184666666666666
EXTRACT: note_on channel=3 note=70 velocity=81 time=0
EXTRACT: control_change channel=8 control=11 value=45 time=0.14148691666666666
EXTRACT: control_change channel=7 control=11 value=45 time=0.0023980833333333332
EXTRACT: control_change channel=4 control=11 value=80 time=0.062350166666666665
EXTRACT: note_on channel=5 note=49 velocity=119 time=0.016786583333333334
EXTRACT: control_change channel=8 control=11 value=47 time=0.0023980833333333332
EXTRACT: note_on channel=3 note=70 velocity=0 time=0.04556358333333333
EXTRACT: note_on channel=3 note=82 velocity=0 time=0
EXTRACT: note_on channel=5 note=49 velocity=0 time=0.028776999999999997
EXTRACT: control_change channel=8 control=11 value=49 time=0.07434058333333333
EXTRACT: control_change channel=7 control=11 value=49 time=0.0023980833333333332
EXTRACT: control_change channel=6 control=11 value=107 time=0.057553999999999994
EXTRACT: note_on channel=6 note=61 velocity=110 time=0
EXTRACT: note_on channel=3 note=83 velocity=114 time=0.021582749999999998
EXTRACT: note_on channel=3 note=71 velocity=83 time=0
EXTRACT: note_on channel=5 note=56 velocity=127 time=0
EXTRACT: control_change channel=8 control=11 value=51 time=0.028776999999999997
EXTRACT: note_on channel=6 note=61 velocity=0 time=0.03836933333333333
EXTRACT: control_change channel=8 control=11 value=53 time=0.023980833333333333
EXTRACT: control_change channel=7 control=11 value=53 time=0.0023980833333333332
EXTRACT: note_on channel=5 note=56 velocity=0 time=0.0023980833333333332
EXTRACT: control_change channel=8 control=11 value=55 time=0.009592333333333333
EXTRACT: control_change channel=4 control=11 value=82 time=0.011990416666666667
EXTRACT: control_change channel=8 control=11 value=57 time=0.05995208333333333
EXTRACT: control_change channel=7 control=11 value=57 time=0.0023980833333333332
EXTRACT: control_change channel=8 control=11 value=59 time=0.011990416666666667
EXTRACT: control_change channel=8 control=11 value=61 time=0.016786583333333334
EXTRACT: control_change channel=7 control=11 value=61 time=0.0023980833333333332
EXTRACT: note_on channel=5 note=49 velocity=120 time=0.023980833333333333
EXTRACT: control_change channel=8 control=11 value=63 time=0.011990416666666667
EXTRACT: control_change channel=8 control=11 value=65 time=0.016786583333333334
EXTRACT: control_change channel=7 control=11 value=65 time=0.0023980833333333332
EXTRACT: note_on channel=5 note=49 velocity=0 time=0.031175083333333332
EXTRACT: control_change channel=8 control=11 value=67 time=0.035971249999999996
EXTRACT: control_change channel=8 control=11 value=69 time=0.014388499999999999
EXTRACT: control_change channel=7 control=11 value=69 time=0.0023980833333333332
EXTRACT: control_change channel=8 control=11 value=71 time=0.021582749999999998
EXTRACT: note_on channel=3 note=71 velocity=0 time=0.057553999999999994
EXTRACT: note_on channel=3 note=83 velocity=0 time=0
EXTRACT: control_change channel=8 control=11 value=73 time=0.011990416666666667
EXTRACT: control_change channel=7 control=11 value=73 time=0.0023980833333333332
EXTRACT: control_change channel=8 control=11 value=75 time=0.014388499999999999
EXTRACT: note_on channel=3 note=82 velocity=108 time=0.007194249999999999
EXTRACT: note_on channel=3 note=70 velocity=78 time=0
EXTRACT: control_change channel=8 control=11 value=77 time=0.055155916666666666
EXTRACT: control_change channel=7 control=11 value=77 time=0.0023980833333333332
EXTRACT: control_change channel=8 control=11 value=79 time=0.07673866666666666
EXTRACT: note_on channel=3 note=70 velocity=0 time=0.0047961666666666665
EXTRACT: note_on channel=3 note=82 velocity=0 time=0
EXTRACT: control_change channel=6 control=11 value=107 time=0.062350166666666665
EXTRACT: note_on channel=6 note=61 velocity=106 time=0
EXTRACT: note_on channel=5 note=49 velocity=120 time=0.035971249999999996
EXTRACT: note_on channel=3 note=82 velocity=111 time=0.019184666666666666
EXTRACT: note_on channel=3 note=70 velocity=81 time=0
EXTRACT: control_change channel=8 control=11 value=81 time=0.009592333333333333
EXTRACT: control_change channel=7 control=11 value=81 time=0.0023980833333333332
EXTRACT: note_on channel=1 note=40 velocity=0 time=0.007194249999999999
EXTRACT: note_on channel=6 note=61 velocity=0 time=0.014388499999999999
EXTRACT: note_on channel=5 note=49 velocity=0 time=0.009592333333333333
EXTRACT: control_change channel=8 control=11 value=83 time=0.028776999999999997
EXTRACT: control_change channel=8 control=11 value=85 time=0.062350166666666665
EXTRACT: control_change channel=7 control=11 value=85 time=0.0023980833333333332
EXTRACT: control_change channel=8 control=11 value=87 time=0.011990416666666667
EXTRACT: control_change channel=8 control=11 value=89 time=0.016786583333333334
EXTRACT: control_change channel=7 control=11 value=89 time=0.0023980833333333332
EXTRACT: note_on channel=5 note=56 velocity=125 time=0.047961666666666666
EXTRACT: control_change channel=4 control=11 value=80 time=0.06954441666666666
EXTRACT: note_on channel=5 note=56 velocity=0 time=0.014388499999999999
EXTRACT: note_on channel=3 note=70 velocity=0 time=0.08872908333333333
EXTRACT: note_on channel=3 note=82 velocity=0 time=0
EXTRACT: note_on channel=14 note=72 velocity=74 time=0.007194249999999999
EXTRACT: control_change channel=8 control=11 value=91 time=0.019184666666666666
EXTRACT: control_change channel=8 control=11 value=93 time=0.016786583333333334
EXTRACT: control_change channel=7 control=11 value=93 time=0.0023980833333333332
EXTRACT: note_on channel=3 note=80 velocity=108 time=0.007194249999999999
EXTRACT: note_on channel=3 note=68 velocity=78 time=0
EXTRACT: note_on channel=5 note=49 velocity=120 time=0.009592333333333333
EXTRACT: control_change channel=8 control=11 value=95 time=0.019184666666666666
EXTRACT: control_change channel=4 control=11 value=78 time=0.0023980833333333332
EXTRACT: control_change channel=8 control=11 value=98 time=0.035971249999999996
EXTRACT: control_change channel=7 control=11 value=98 time=0.0023980833333333332
EXTRACT: note_on channel=5 note=49 velocity=0 time=0.009592333333333333
EXTRACT: control_change channel=8 control=11 value=100 time=0.0047961666666666665
EXTRACT: control_change channel=8 control=11 value=102 time=0.014388499999999999
EXTRACT: control_change channel=7 control=11 value=102 time=0.0023980833333333332
EXTRACT: control_change channel=8 control=11 value=104 time=0.007194249999999999
EXTRACT: control_change channel=8 control=11 value=106 time=0.007194249999999999
EXTRACT: control_change channel=7 control=11 value=106 time=0.0023980833333333332
EXTRACT: control_change channel=8 control=11 value=108 time=0.0047961666666666665
EXTRACT: control_change channel=8 control=11 value=110 time=0.007194249999999999
EXTRACT: control_change channel=7 control=11 value=110 time=0.0023980833333333332
EXTRACT: control_change channel=8 control=11 value=113 time=0.007194249999999999
EXTRACT: control_change channel=8 control=11 value=115 time=0.007194249999999999
EXTRACT: control_change channel=7 control=11 value=115 time=0.0023980833333333332
EXTRACT: control_change channel=8 control=11 value=119 time=0.0047961666666666665
EXTRACT: control_change channel=8 control=11 value=121 time=0.007194249999999999
EXTRACT: control_change channel=7 control=11 value=121 time=0.0023980833333333332
EXTRACT: note_on channel=3 note=68 velocity=0 time=0.011990416666666667
EXTRACT: note_on channel=3 note=80 velocity=0 time=0
EXTRACT: note_on channel=8 note=37 velocity=0 time=0.031175083333333332
EXTRACT: note_on channel=7 note=61 velocity=0 time=0.0023980833333333332
EXTRACT: control_change channel=12 control=10 value=0 time=0.026378916666666665
EXTRACT: note_on channel=1 note=39 velocity=111 time=0.0023980833333333332
EXTRACT: note_on channel=11 note=51 velocity=127 time=0
EXTRACT: note_on channel=3 note=80 velocity=110 time=0.0023980833333333332
EXTRACT: note_on channel=3 note=68 velocity=80 time=0
EXTRACT: control_change channel=6 control=11 value=108 time=0
EXTRACT: note_on channel=6 note=61 velocity=116 time=0
EXTRACT: control_change channel=4 control=11 value=76 time=0.0023980833333333332
EXTRACT: note_on channel=12 note=51 velocity=85 time=0
EXTRACT: note_on channel=11 note=51 velocity=0 time=0.05275783333333333
EXTRACT: note_on channel=12 note=56 velocity=81 time=0.026378916666666665
EXTRACT: note_on channel=6 note=61 velocity=0 time=0.007194249999999999
EXTRACT: note_on channel=12 note=51 velocity=0 time=0.03357316666666667
EXTRACT: control_change channel=12 control=10 value=31 time=0.035971249999999996
EXTRACT: note_on channel=12 note=60 velocity=109 time=0
EXTRACT: note_on channel=14 note=72 velocity=0 time=0.023980833333333333
EXTRACT: note_on channel=3 note=68 velocity=0 time=0.007194249999999999
EXTRACT: note_on channel=3 note=80 velocity=0 time=0
EXTRACT: note_on channel=12 note=56 velocity=0 time=0.031175083333333332
EXTRACT: note_on channel=5 note=49 velocity=120 time=0.016786583333333334
EXTRACT: note_on channel=12 note=63 velocity=101 time=0
EXTRACT: note_on channel=12 note=60 velocity=0 time=0.023980833333333333
EXTRACT: control_change channel=12 control=10 value=64 time=0.0023980833333333332
EXTRACT: note_on channel=5 note=49 velocity=0 time=0.035971249999999996
EXTRACT: note_on channel=12 note=63 velocity=0 time=0
EXTRACT: note_on channel=12 note=68 velocity=92 time=0.016786583333333334
EXTRACT: control_change channel=12 control=10 value=94 time=0.04076741666666667
EXTRACT: note_on channel=1 note=39 velocity=0 time=0.03357316666666667
EXTRACT: note_on channel=12 note=68 velocity=0 time=0.0023980833333333332
EXTRACT: note_on channel=12 note=72 velocity=106 time=0
EXTRACT: control_change channel=12 control=10 value=126 time=0.047961666666666666
EXTRACT: note_on channel=15 note=80 velocity=91 time=0.007194249999999999
EXTRACT: note_on channel=1 note=44 velocity=95 time=0.016786583333333334
EXTRACT: note_on channel=4 note=64 velocity=0 time=0
EXTRACT: note_on channel=4 note=68 velocity=0 time=0
EXTRACT: note_on channel=4 note=52 velocity=0 time=0
EXTRACT: note_on channel=4 note=59 velocity=0 time=0
EXTRACT: note_on channel=4 note=51 velocity=96 time=0.0023980833333333332
EXTRACT: note_on channel=4 note=56 velocity=100 time=0
EXTRACT: note_on channel=4 note=63 velocity=104 time=0
EXTRACT: note_on channel=11 note=56 velocity=127 time=0
EXTRACT: note_on channel=12 note=72 velocity=0 time=0.0023980833333333332
EXTRACT: note_on channel=5 note=56 velocity=125 time=0.0023980833333333332
EXTRACT: note_on channel=9 note=35 velocity=97 time=0
EXTRACT: note_on channel=9 note=57 velocity=91 time=0
EXTRACT: note_on channel=12 note=75 velocity=101 time=0
EXTRACT: control_change channel=4 control=11 value=78 time=0.03836933333333333
EXTRACT: note_on channel=11 note=56 velocity=0 time=0.014388499999999999
EXTRACT: note_on channel=9 note=57 velocity=0 time=0.0047961666666666665
EXTRACT: note_on channel=9 note=35 velocity=0 time=0
EXTRACT: note_on channel=15 note=80 velocity=0 time=0.011990416666666667
EXTRACT: note_on channel=5 note=56 velocity=0 time=0.026378916666666665
EXTRACT: control_change channel=4 control=11 value=80 time=0.028776999999999997
EXTRACT: note_on channel=15 note=77 velocity=86 time=0.09352524999999999
EXTRACT: note_on channel=5 note=51 velocity=122 time=0.014388499999999999
EXTRACT: note_on channel=15 note=77 velocity=0 time=0.035971249999999996
EXTRACT: note_on channel=5 note=51 velocity=0 time=0.026378916666666665
EXTRACT: note_on channel=8 note=36 velocity=97 time=0.15347733333333333
EXTRACT: note_on channel=7 note=60 velocity=107 time=0.0023980833333333332
EXTRACT: note_on channel=15 note=73 velocity=85 time=0.0023980833333333332
EXTRACT: note_on channel=3 note=80 velocity=113 time=0.014388499999999999
EXTRACT: note_on channel=3 note=68 velocity=82 time=0
EXTRACT: note_on channel=5 note=48 velocity=119 time=0
EXTRACT: note_on channel=12 note=75 velocity=0 time=0
EXTRACT: control_change channel=6 control=11 value=109 time=0.0047961666666666665
EXTRACT: note_on channel=6 note=60 velocity=109 time=0
EXTRACT: control_change channel=8 control=11 value=119 time=0.007194249999999999
EXTRACT: control_change channel=8 control=11 value=117 time=0.016786583333333334
EXTRACT: control_change channel=7 control=11 value=117 time=0.0023980833333333332
EXTRACT: control_change channel=8 control=11 value=115 time=0.0047961666666666665
EXTRACT: note_on channel=15 note=73 velocity=0 time=0
EXTRACT: control_change channel=8 control=11 value=112 time=0.014388499999999999
EXTRACT: note_on channel=3 note=68 velocity=0 time=0.0023980833333333332
EXTRACT: note_on channel=3 note=80 velocity=0 time=0
EXTRACT: control_change channel=7 control=11 value=112 time=0
EXTRACT: control_change channel=8 control=11 value=110 time=0.007194249999999999
EXTRACT: control_change channel=8 control=11 value=108 time=0.007194249999999999
EXTRACT: control_change channel=7 control=11 value=108 time=0.0023980833333333332
EXTRACT: control_change channel=8 control=11 value=106 time=0.0047961666666666665
EXTRACT: note_on channel=5 note=48 velocity=0 time=0.007194249999999999
EXTRACT: control_change channel=4 control=11 value=78 time=0.0047961666666666665
EXTRACT: control_change channel=8 control=11 value=103 time=0.0047961666666666665
EXTRACT: note_on channel=6 note=60 velocity=0 time=0.0023980833333333332
EXTRACT: control_change channel=7 control=11 value=103 time=0
EXTRACT: control_change channel=8 control=11 value=101 time=0.0047961666666666665
EXTRACT: control_change channel=8 control=11 value=99 time=0.007194249999999999
EXTRACT: control_change channel=7 control=11 value=99 time=0.0023980833333333332
EXTRACT: control_change channel=8 control=11 value=97 time=0.0047961666666666665
EXTRACT: control_change channel=8 control=11 value=94 time=0.016786583333333334
EXTRACT: control_change channel=7 control=11 value=94 time=0.0023980833333333332
EXTRACT: control_change channel=8 control=11 value=92 time=0.0047961666666666665
EXTRACT: control_change channel=8 control=11 value=89 time=0.007194249999999999
EXTRACT: control_change channel=7 control=11 value=89 time=0.0023980833333333332
EXTRACT: control_change channel=8 control=11 value=87 time=0.007194249999999999
EXTRACT: control_change channel=8 control=11 value=85 time=0.007194249999999999
EXTRACT: control_change channel=7 control=11 value=85 time=0.0023980833333333332
EXTRACT: control_change channel=8 control=11 value=83 time=0.0047961666666666665
EXTRACT: control_change channel=8 control=11 value=80 time=0.007194249999999999
EXTRACT: control_change channel=7 control=11 value=80 time=0.0023980833333333332
EXTRACT: control_change channel=8 control=11 value=78 time=0.014388499999999999
EXTRACT: control_change channel=8 control=11 value=76 time=0.014388499999999999
EXTRACT: control_change channel=7 control=11 value=76 time=0.0023980833333333332
EXTRACT: control_change channel=8 control=11 value=74 time=0.007194249999999999
EXTRACT: note_on channel=15 note=80 velocity=99 time=0
EXTRACT: control_change channel=8 control=11 value=72 time=0.007194249999999999
EXTRACT: control_change channel=7 control=11 value=72 time=0.0023980833333333332
EXTRACT: control_change channel=8 control=11 value=70 time=0.0047961666666666665
EXTRACT: note_on channel=3 note=80 velocity=107 time=0.0047961666666666665
EXTRACT: note_on channel=3 note=68 velocity=78 time=0
EXTRACT: note_on channel=5 note=51 velocity=120 time=0
EXTRACT: control_change channel=8 control=11 value=68 time=0.0023980833333333332
EXTRACT: control_change channel=7 control=11 value=68 time=0.0023980833333333332
EXTRACT: control_change channel=4 control=11 value=76 time=0.0023980833333333332
EXTRACT: control_change channel=8 control=11 value=66 time=0.0047961666666666665
EXTRACT: control_change channel=8 control=11 value=63 time=0.014388499999999999
EXTRACT: control_change channel=7 control=11 value=63 time=0.0023980833333333332
EXTRACT: note_on channel=3 note=68 velocity=0 time=0.0047961666666666665
EXTRACT: note_on channel=3 note=80 velocity=0 time=0
EXTRACT: control_change channel=8 control=11 value=61 time=0.009592333333333333
EXTRACT: note_on channel=15 note=80 velocity=0 time=0
EXTRACT: note_on channel=5 note=51 velocity=0 time=0.014388499999999999
EXTRACT: control_change channel=8 control=11 value=59 time=0.009592333333333333
EXTRACT: control_change channel=7 control=11 value=59 time=0.0023980833333333332
EXTRACT: control_change channel=8 control=11 value=57 time=0.011990416666666667
EXTRACT: control_change channel=8 control=11 value=55 time=0.016786583333333334
EXTRACT: control_change channel=7 control=11 value=55 time=0.0023980833333333332
EXTRACT: control_change channel=8 control=11 value=53 time=0.011990416666666667
EXTRACT: control_change channel=8 control=11 value=51 time=0.016786583333333334
EXTRACT: control_change channel=7 control=11 value=51 time=0.0023980833333333332
EXTRACT: control_change channel=8 control=11 value=49 time=0.019184666666666666
EXTRACT: control_change channel=8 control=11 value=47 time=0.04076741666666667
EXTRACT: control_change channel=7 control=11 value=47 time=0.0023980833333333332
EXTRACT: control_change channel=8 control=11 value=45 time=0.011990416666666667
EXTRACT: note_on channel=3 note=80 velocity=113 time=0.014388499999999999
EXTRACT: note_on channel=3 note=68 velocity=82 time=0
EXTRACT: control_change channel=8 control=11 value=43 time=0.0023980833333333332
EXTRACT: control_change channel=7 control=11 value=43 time=0.0023980833333333332
EXTRACT: note_on channel=5 note=56 velocity=126 time=0.007194249999999999
EXTRACT: control_change channel=8 control=11 value=41 time=0.028776999999999997
EXTRACT: note_on channel=1 note=44 velocity=0 time=0.019184666666666666
EXTRACT: control_change channel=8 control=11 value=39 time=0.019184666666666666
EXTRACT: control_change channel=7 control=11 value=39 time=0.0023980833333333332
EXTRACT: note_on channel=5 note=56 velocity=0 time=0.062350166666666665
EXTRACT: note_on channel=3 note=68 velocity=0 time=0.06474825
EXTRACT: note_on channel=3 note=80 velocity=0 time=0
EXTRACT: note_on channel=3 note=84 velocity=110 time=0.019184666666666666
EXTRACT: note_on channel=3 note=72 velocity=80 time=0
EXTRACT: control_change channel=6 control=11 value=108 time=0.016786583333333334
EXTRACT: note_on channel=6 note=60 velocity=113 time=0
EXTRACT: note_on channel=5 note=51 velocity=120 time=0.0023980833333333332
EXTRACT: control_change channel=8 control=11 value=37 time=0.050359749999999995
EXTRACT: note_on channel=5 note=51 velocity=0 time=0.007194249999999999
EXTRACT: note_on channel=3 note=72 velocity=0 time=0.007194249999999999
EXTRACT: note_on channel=3 note=84 velocity=0 time=0
EXTRACT: note_on channel=6 note=60 velocity=0 time=0.021582749999999998
EXTRACT: note_on channel=1 note=44 velocity=111 time=0.14148691666666666
EXTRACT: note_on channel=3 note=80 velocity=113 time=0.0023980833333333332
EXTRACT: note_on channel=3 note=68 velocity=82 time=0
EXTRACT: note_on channel=11 note=56 velocity=127 time=0
EXTRACT: note_on channel=11 note=56 velocity=0 time=0.057553999999999994
EXTRACT: pitchwheel channel=3 pitch=-241 time=0.15347733333333333
EXTRACT: pitchwheel channel=3 pitch=-361 time=0
EXTRACT: pitchwheel channel=3 pitch=-481 time=0.0047961666666666665
EXTRACT: pitchwheel channel=3 pitch=-621 time=0.007194249999999999
EXTRACT: pitchwheel channel=3 pitch=-781 time=0.0023980833333333332
EXTRACT: control_change channel=8 control=11 value=39 time=0.0023980833333333332
EXTRACT: pitchwheel channel=3 pitch=-961 time=0.0023980833333333332
EXTRACT: control_change channel=7 control=11 value=39 time=0
EXTRACT: pitchwheel channel=3 pitch=-1121 time=0.0047961666666666665
EXTRACT: pitchwheel channel=3 pitch=-1281 time=0
EXTRACT: note_on channel=5 note=51 velocity=122 time=0.0023980833333333332
EXTRACT: pitchwheel channel=3 pitch=-1441 time=0.0047961666666666665
EXTRACT: pitchwheel channel=3 pitch=-1601 time=0.0047961666666666665
EXTRACT: pitchwheel channel=3 pitch=-1761 time=0.0023980833333333332
EXTRACT: pitchwheel channel=3 pitch=-1921 time=0.0047961666666666665
EXTRACT: pitchwheel channel=3 pitch=-2081 time=0.0047961666666666665
EXTRACT: pitchwheel channel=3 pitch=-2261 time=0.0023980833333333332
EXTRACT: pitchwheel channel=3 pitch=-2441 time=0.0047961666666666665
EXTRACT: pitchwheel channel=3 pitch=-2601 time=0.0023980833333333332
EXTRACT: pitchwheel channel=3 pitch=-2741 time=0.0047961666666666665
EXTRACT: pitchwheel channel=3 pitch=-2921 time=0.0047961666666666665
EXTRACT: pitchwheel channel=3 pitch=-3081 time=0.0023980833333333332
EXTRACT: pitchwheel channel=3 pitch=-3261 time=0.0047961666666666665
EXTRACT: pitchwheel channel=3 pitch=-3461 time=0.0047961666666666665
EXTRACT: pitchwheel channel=3 pitch=-3661 time=0
EXTRACT: pitchwheel channel=3 pitch=-3881 time=0.0023980833333333332
EXTRACT: note_on channel=5 note=51 velocity=0 time=0.0023980833333333332
EXTRACT: pitchwheel channel=3 pitch=-4121 time=0.0047961666666666665
EXTRACT: pitchwheel channel=3 pitch=-4361 time=0.0047961666666666665
EXTRACT: pitchwheel channel=3 pitch=-4601 time=0.0047961666666666665
EXTRACT: pitchwheel channel=3 pitch=-4841 time=0.0023980833333333332
EXTRACT: pitchwheel channel=3 pitch=-5101 time=0.0047961666666666665
EXTRACT: pitchwheel channel=3 pitch=-5381 time=0.0047961666666666665
EXTRACT: pitchwheel channel=3 pitch=-5681 time=0.0023980833333333332
EXTRACT: pitchwheel channel=3 pitch=-5961 time=0.0047961666666666665
EXTRACT: pitchwheel channel=3 pitch=-6221 time=0.0023980833333333332
EXTRACT: pitchwheel channel=3 pitch=-6521 time=0.0047961666666666665
EXTRACT: pitchwheel channel=3 pitch=-6821 time=0.0047961666666666665
EXTRACT: pitchwheel channel=3 pitch=-7101 time=0.007194249999999999
EXTRACT: pitchwheel channel=3 pitch=-7361 time=0.0047961666666666665
EXTRACT: pitchwheel channel=3 pitch=-7661 time=0
EXTRACT: pitchwheel channel=3 pitch=-7921 time=0.007194249999999999
EXTRACT: pitchwheel channel=3 pitch=-8081 time=0.0023980833333333332
EXTRACT: pitchwheel channel=3 pitch=-8192 time=0.009592333333333333
EXTRACT: note_on channel=1 note=44 velocity=0 time=0.007194249999999999
EXTRACT: control_change channel=8 control=11 value=41 time=0.0047961666666666665
EXTRACT: control_change channel=8 control=11 value=43 time=0.014388499999999999
EXTRACT: control_change channel=7 control=11 value=43 time=0.0023980833333333332
EXTRACT: note_on channel=3 note=68 velocity=0 time=0.007194249999999999
EXTRACT: note_on channel=3 note=80 velocity=0 time=0
EXTRACT: note_on channel=15 note=79 velocity=91 time=0.05275783333333333
EXTRACT: note_on channel=1 note=43 velocity=99 time=0.0047961666666666665
EXTRACT: note_on channel=4 note=63 velocity=0 time=0.0023980833333333332
EXTRACT: note_on channel=4 note=56 velocity=0 time=0
EXTRACT: note_on channel=4 note=51 velocity=0 time=0
EXTRACT: note_on channel=4 note=63 velocity=103 time=0
EXTRACT: note_on channel=4 note=55 velocity=99 time=0
EXTRACT: note_on channel=4 note=51 velocity=96 time=0
EXTRACT: note_on channel=11 note=55 velocity=127 time=0
EXTRACT: note_on channel=5 note=55 velocity=125 time=0.0047961666666666665
EXTRACT: control_change channel=6 control=11 value=109 time=0.011990416666666667
EXTRACT: note_on channel=6 note=60 velocity=113 time=0
EXTRACT: control_change channel=4 control=11 value=78 time=0.011990416666666667
EXTRACT: control_change channel=8 control=11 value=45 time=0.011990416666666667
EXTRACT: note_on channel=11 note=55 velocity=0 time=0.016786583333333334
EXTRACT: pitchwheel channel=3 pitch=0 time=0.009592333333333333
EXTRACT: note_on channel=5 note=55 velocity=0 time=0.014388499999999999
EXTRACT: control_change channel=8 control=11 value=47 time=0.014388499999999999
EXTRACT: note_on channel=15 note=79 velocity=0 time=0
EXTRACT: control_change channel=7 control=11 value=47 time=0.0023980833333333332
EXTRACT: control_change channel=4 control=11 value=80 time=0.007194249999999999
EXTRACT: note_on channel=6 note=60 velocity=0 time=0
EXTRACT: control_change channel=8 control=11 value=49 time=0.028776999999999997
EXTRACT: control_change channel=8 control=11 value=51 time=0.04556358333333333
EXTRACT: control_change channel=7 control=11 value=51 time=0.0023980833333333332
EXTRACT: control_change channel=8 control=11 value=53 time=0.014388499999999999
EXTRACT: control_change channel=8 control=11 value=55 time=0.014388499999999999
EXTRACT: control_change channel=7 control=11 value=55 time=0.0023980833333333332
EXTRACT: note_on channel=3 note=79 velocity=112 time=0.0023980833333333332
EXTRACT: note_on channel=3 note=67 velocity=81 time=0
EXTRACT: control_change channel=4 control=11 value=82 time=0
EXTRACT: note_on channel=15 note=75 velocity=85 time=0.014388499999999999
EXTRACT: note_on channel=5 note=51 velocity=122 time=0.009592333333333333
EXTRACT: control_change channel=8 control=11 value=57 time=0.011990416666666667
EXTRACT: control_change channel=8 control=11 value=59 time=0.007194249999999999
EXTRACT: control_change channel=7 control=11 value=59 time=0.0023980833333333332
EXTRACT: note_on channel=3 note=67 velocity=0 time=0.007194249999999999
EXTRACT: note_on channel=3 note=79 velocity=0 time=0
EXTRACT: note_on channel=15 note=75 velocity=0 time=0.014388499999999999
EXTRACT: note_on channel=5 note=51 velocity=0 time=0.014388499999999999
EXTRACT: control_change channel=8 control=11 value=61 time=0.031175083333333332
EXTRACT: control_change channel=8 control=11 value=63 time=0.016786583333333334
EXTRACT: control_change channel=7 control=11 value=63 time=0.0023980833333333332
EXTRACT: control_change channel=8 control=11 value=65 time=0.011990416666666667
EXTRACT: control_change channel=8 control=11 value=67 time=0.047961666666666666
EXTRACT: control_change channel=7 control=11 value=67 time=0.0023980833333333332
EXTRACT: control_change channel=8 control=11 value=69 time=0.035971249999999996
EXTRACT: control_change channel=4 control=11 value=80 time=0.0047961666666666665
EXTRACT: note_on channel=3 note=79 velocity=110 time=0.009592333333333333
EXTRACT: note_on channel=3 note=67 velocity=80 time=0
EXTRACT: note_on channel=5 note=48 velocity=120 time=0.011990416666666667
EXTRACT: note_on channel=15 note=72 velocity=89 time=0.0047961666666666665
EXTRACT: control_change channel=8 control=11 value=71 time=0.031175083333333332
EXTRACT: note_on channel=3 note=67 velocity=0 time=0.0023980833333333332
EXTRACT: note_on channel=3 note=79 velocity=0 time=0
EXTRACT: control_change channel=7 control=11 value=71 time=0
EXTRACT: control_change channel=8 control=11 value=73 time=0.014388499999999999
EXTRACT: note_on channel=15 note=72 velocity=0 time=0.009592333333333333
EXTRACT: note_on channel=5 note=48 velocity=0 time=0.007194249999999999
EXTRACT: control_change channel=4 control=11 value=78 time=0.047961666666666666
EXTRACT: control_change channel=8 control=11 value=75 time=0.011990416666666667
EXTRACT: control_change channel=7 control=11 value=75 time=0.0023980833333333332
EXTRACT: control_change channel=6 control=11 value=108 time=0.09592333333333333
EXTRACT: note_on channel=6 note=60 velocity=111 time=0
EXTRACT: note_on channel=3 note=79 velocity=110 time=0.0023980833333333332
EXTRACT: note_on channel=3 note=67 velocity=80 time=0
EXTRACT: note_on channel=5 note=51 velocity=122 time=0.0047961666666666665
EXTRACT: control_change channel=4 control=11 value=76 time=0.016786583333333334
EXTRACT: control_change channel=8 control=11 value=77 time=0.0023980833333333332
EXTRACT: note_on channel=5 note=51 velocity=0 time=0.03836933333333333
EXTRACT: note_on channel=6 note=60 velocity=0 time=0.023980833333333333
EXTRACT: control_change channel=8 control=11 value=79 time=0.009592333333333333
EXTRACT: control_change channel=7 control=11 value=79 time=0.0023980833333333332
EXTRACT: control_change channel=8 control=11 value=81 time=0.050359749999999995
EXTRACT: control_change channel=8 control=11 value=83 time=0.016786583333333334
EXTRACT: control_change channel=7 control=11 value=83 time=0.0023980833333333332
EXTRACT: control_change channel=8 control=11 value=85 time=0.011990416666666667
EXTRACT: note_on channel=15 note=79 velocity=82 time=0.050359749999999995
EXTRACT: note_on channel=5 note=55 velocity=125 time=0.009592333333333333
EXTRACT: note_on channel=1 note=43 velocity=0 time=0.007194249999999999
EXTRACT: control_change channel=8 control=11 value=87 time=0.043165499999999996
EXTRACT: control_change channel=7 control=11 value=87 time=0.0023980833333333332
EXTRACT: note_on channel=15 note=79 velocity=0 time=0.026378916666666665
EXTRACT: note_on channel=5 note=55 velocity=0 time=0.016786583333333334
EXTRACT: note_on channel=3 note=67 velocity=0 time=0.07673866666666666
EXTRACT: note_on channel=3 note=79 velocity=0 time=0
EXTRACT: control_change channel=8 control=11 value=89 time=0.026378916666666665
EXTRACT: note_on channel=3 note=80 velocity=107 time=0.019184666666666666
EXTRACT: note_on channel=3 note=68 velocity=78 time=0
EXTRACT: note_on channel=15 note=75 velocity=89 time=0.0047961666666666665
EXTRACT: note_on channel=5 note=51 velocity=122 time=0.009592333333333333
EXTRACT: control_change channel=8 control=11 value=91 time=0.0047961666666666665
EXTRACT: control_change channel=7 control=11 value=91 time=0.0023980833333333332
EXTRACT: control_change channel=8 control=11 value=93 time=0.014388499999999999
EXTRACT: note_on channel=15 note=75 velocity=0 time=0.014388499999999999
EXTRACT: control_change channel=8 control=11 value=95 time=0.016786583333333334
EXTRACT: note_on channel=3 note=68 velocity=0 time=0.0023980833333333332
EXTRACT: note_on channel=3 note=80 velocity=0 time=0
EXTRACT: control_change channel=7 control=11 value=95 time=0
EXTRACT: note_on channel=5 note=51 velocity=0 time=0.0023980833333333332
EXTRACT: control_change channel=8 control=11 value=98 time=0.009592333333333333
EXTRACT: control_change channel=8 control=11 value=100 time=0.016786583333333334
EXTRACT: control_change channel=7 control=11 value=100 time=0.0023980833333333332
EXTRACT: control_change channel=8 control=11 value=103 time=0.011990416666666667
EXTRACT: control_change channel=8 control=11 value=105 time=0.007194249999999999
EXTRACT: control_change channel=7 control=11 value=105 time=0.0023980833333333332
EXTRACT: control_change channel=8 control=11 value=108 time=0.007194249999999999
EXTRACT: control_change channel=8 control=11 value=110 time=0.007194249999999999
EXTRACT: control_change channel=7 control=11 value=110 time=0.0023980833333333332
EXTRACT: control_change channel=8 control=11 value=113 time=0.0047961666666666665
EXTRACT: control_change channel=8 control=11 value=116 time=0.009592333333333333
EXTRACT: control_change channel=7 control=11 value=116 time=0.0023980833333333332
EXTRACT: control_change channel=8 control=11 value=120 time=0.0047961666666666665
EXTRACT: control_change channel=8 control=11 value=122 time=0.007194249999999999
EXTRACT: control_change channel=7 control=11 value=122 time=0.0023980833333333332
EXTRACT: control_change channel=8 control=11 value=120 time=0.014388499999999999
EXTRACT: note_on channel=8 note=36 velocity=0 time=0.023980833333333333
EXTRACT: note_on channel=7 note=60 velocity=0 time=0.0023980833333333332
EXTRACT: note_on channel=15 note=72 velocity=92 time=0.014388499999999999
EXTRACT: control_change channel=6 control=11 value=108 time=0.0023980833333333332
EXTRACT: note_on channel=6 note=60 velocity=107 time=0
EXTRACT: note_on channel=1 note=41 velocity=111 time=0.014388499999999999
EXTRACT: control_change channel=12 control=10 value=0 time=0
EXTRACT: note_on channel=11 note=53 velocity=127 time=0.0023980833333333332
EXTRACT: note_on channel=3 note=80 velocity=115 time=0.0047961666666666665
EXTRACT: note_on channel=3 note=68 velocity=83 time=0
EXTRACT: note_on channel=12 note=51 velocity=85 time=0
EXTRACT: note_on channel=15 note=72 velocity=0 time=0.03357316666666667
EXTRACT: note_on channel=11 note=53 velocity=0 time=0.019184666666666666
EXTRACT: note_on channel=6 note=60 velocity=0 time=0.014388499999999999
EXTRACT: control_change channel=4 control=11 value=78 time=0.0023980833333333332
EXTRACT: note_on channel=12 note=55 velocity=81 time=0.009592333333333333
EXTRACT: note_on channel=12 note=51 velocity=0 time=0.04076741666666667
EXTRACT: control_change channel=12 control=10 value=31 time=0.035971249999999996
EXTRACT: note_on channel=12 note=58 velocity=109 time=0
EXTRACT: note_on channel=3 note=68 velocity=0 time=0.031175083333333332
EXTRACT: note_on channel=3 note=80 velocity=0 time=0
EXTRACT: note_on channel=12 note=55 velocity=0 time=0.031175083333333332
EXTRACT: note_on channel=12 note=63 velocity=101 time=0.016786583333333334
EXTRACT: note_on channel=12 note=58 velocity=0 time=0.023980833333333333
EXTRACT: control_change channel=12 control=10 value=64 time=0.0023980833333333332
EXTRACT: note_on channel=12 note=63 velocity=0 time=0.035971249999999996
EXTRACT: control_change channel=4 control=11 value=76 time=0.014388499999999999
EXTRACT: note_on channel=12 note=67 velocity=92 time=0
EXTRACT: control_change channel=12 control=10 value=94 time=0.043165499999999996
EXTRACT: note_on channel=1 note=41 velocity=0 time=0.007194249999999999
EXTRACT: note_on channel=12 note=67 velocity=0 time=0.026378916666666665
EXTRACT: note_on channel=12 note=70 velocity=106 time=0.0023980833333333332
EXTRACT: control_change channel=12 control=10 value=126 time=0.04556358333333333
EXTRACT: note_on channel=1 note=39 velocity=97 time=0.026378916666666665
EXTRACT: note_on channel=4 note=51 velocity=0 time=0
EXTRACT: note_on channel=4 note=55 velocity=0 time=0
EXTRACT: note_on channel=4 note=63 velocity=0 time=0
EXTRACT: note_on channel=11 note=51 velocity=127 time=0
EXTRACT: note_on channel=4 note=63 velocity=125 time=0.0023980833333333332
EXTRACT: note_on channel=4 note=51 velocity=114 time=0
EXTRACT: note_on channel=4 note=68 velocity=126 time=0
EXTRACT: note_on channel=9 note=35 velocity=97 time=0.0023980833333333332
EXTRACT: note_on channel=12 note=70 velocity=0 time=0
EXTRACT: note_on channel=12 note=75 velocity=101 time=0
EXTRACT: note_on channel=3 note=80 velocity=113 time=0.021582749999999998
EXTRACT: note_on channel=3 note=68 velocity=82 time=0
EXTRACT: control_change channel=4 control=11 value=78 time=0.019184666666666666
EXTRACT: note_on channel=11 note=51 velocity=0 time=0.011990416666666667
EXTRACT: note_on channel=9 note=35 velocity=0 time=0.0047961666666666665
EXTRACT: control_change channel=4 control=11 value=80 time=0.07673866666666666
EXTRACT: note_on channel=3 note=68 velocity=0 time=0.050359749999999995
EXTRACT: note_on channel=3 note=80 velocity=0 time=0
EXTRACT: note_on channel=12 note=75 velocity=0 time=0.2829738333333333
EXTRACT: note_on channel=3 note=82 velocity=113 time=0.0023980833333333332
EXTRACT: note_on channel=3 note=70 velocity=82 time=0
EXTRACT: control_change channel=4 control=11 value=78 time=0.07673866666666666
EXTRACT: note_on channel=3 note=70 velocity=0 time=0.06954441666666666
EXTRACT: note_on channel=3 note=82 velocity=0 time=0
EXTRACT: control_change channel=4 control=11 value=76 time=0.09592333333333333
EXTRACT: note_on channel=3 note=82 velocity=113 time=0.20143899999999998
EXTRACT: note_on channel=3 note=70 velocity=82 time=0
EXTRACT: note_on channel=3 note=70 velocity=0 time=0.26858533333333334
EXTRACT: note_on channel=3 note=82 velocity=0 time=0
EXTRACT: note_on channel=3 note=80 velocity=110 time=0.21582749999999998
EXTRACT: note_on channel=3 note=68 velocity=80 time=0
EXTRACT: note_on channel=3 note=68 velocity=0 time=0.057553999999999994
EXTRACT: note_on channel=3 note=80 velocity=0 time=0
EXTRACT: note_on channel=3 note=80 velocity=113 time=0.18465241666666665
EXTRACT: note_on channel=3 note=68 velocity=82 time=0
EXTRACT: control_change channel=10 control=11 value=127 time=0.21822558333333333
EXTRACT: note_on channel=4 note=51 velocity=0 time=0.007194249999999999
EXTRACT: note_on channel=4 note=63 velocity=0 time=0
EXTRACT: control_change channel=10 control=91 value=110 time=0
EXTRACT: note_on channel=4 note=63 velocity=124 time=0.0023980833333333332
EXTRACT: note_on channel=4 note=67 velocity=126 time=0
EXTRACT: note_on channel=4 note=51 velocity=114 time=0
EXTRACT: note_on channel=4 note=68 velocity=0 time=0.0023980833333333332
EXTRACT: control_change channel=10 control=93 value=80 time=0.0047961666666666665
EXTRACT: control_change channel=10 control=94 value=10 time=0.007194249999999999
EXTRACT: control_change channel=4 control=11 value=78 time=0.031175083333333332
EXTRACT: control_change channel=4 control=11 value=80 time=0.08633099999999999
EXTRACT: note_on channel=14 note=60 velocity=74 time=0.055155916666666666
EXTRACT: note_on channel=3 note=68 velocity=0 time=0.04076741666666667
EXTRACT: note_on channel=3 note=80 velocity=0 time=0
EXTRACT: note_on channel=3 note=82 velocity=115 time=0.24220641666666665
EXTRACT: note_on channel=3 note=70 velocity=83 time=0
EXTRACT: note_on channel=1 note=39 velocity=0 time=0.05995208333333333
EXTRACT: note_on channel=3 note=70 velocity=0 time=0.0023980833333333332
EXTRACT: note_on channel=3 note=82 velocity=0 time=0
EXTRACT: control_change channel=4 control=11 value=78 time=0.028776999999999997
EXTRACT: note_on channel=3 note=84 velocity=112 time=0.14868116666666667
EXTRACT: note_on channel=3 note=72 velocity=81 time=0
EXTRACT: control_change channel=4 control=11 value=76 time=0.007194249999999999
EXTRACT: note_on channel=3 note=72 velocity=0 time=0.2733815
EXTRACT: note_on channel=3 note=84 velocity=0 time=0
EXTRACT: note_on channel=3 note=80 velocity=113 time=0.18705049999999998
EXTRACT: note_on channel=3 note=68 velocity=82 time=0
EXTRACT: note_on channel=3 note=68 velocity=0 time=0.062350166666666665
EXTRACT: note_on channel=3 note=80 velocity=0 time=0
EXTRACT: control_change channel=5 control=11 value=127 time=0.16067158333333334
EXTRACT: note_on channel=5 note=68 velocity=108 time=0.0047961666666666665
EXTRACT: note_on channel=3 note=80 velocity=113 time=0.0023980833333333332
EXTRACT: note_on channel=3 note=68 velocity=82 time=0
EXTRACT: note_on channel=5 note=70 velocity=109 time=0.055155916666666666
EXTRACT: note_on channel=5 note=68 velocity=0 time=0.011990416666666667
EXTRACT: note_on channel=5 note=72 velocity=111 time=0.04556358333333333
EXTRACT: note_on channel=5 note=70 velocity=0 time=0.011990416666666667
EXTRACT: pitchwheel channel=3 pitch=40 time=0.019184666666666666
EXTRACT: pitchwheel channel=3 pitch=580 time=0
EXTRACT: pitchwheel channel=3 pitch=1120 time=0.0047961666666666665
EXTRACT: pitchwheel channel=3 pitch=1680 time=0.007194249999999999
EXTRACT: pitchwheel channel=3 pitch=2280 time=0
EXTRACT: pitchwheel channel=3 pitch=2880 time=0.009592333333333333
EXTRACT: pitchwheel channel=3 pitch=3520 time=0
EXTRACT: pitchwheel channel=3 pitch=4140 time=0.007194249999999999
EXTRACT: note_on channel=5 note=73 velocity=108 time=0
EXTRACT: pitchwheel channel=3 pitch=4680 time=0.0023980833333333332
EXTRACT: pitchwheel channel=3 pitch=5220 time=0
EXTRACT: note_on channel=5 note=72 velocity=0 time=0.007194249999999999
EXTRACT: pitchwheel channel=3 pitch=5720 time=0.0023980833333333332
EXTRACT: pitchwheel channel=3 pitch=6180 time=0
EXTRACT: note_on channel=14 note=60 velocity=0 time=0
EXTRACT: pitchwheel channel=3 pitch=6560 time=0.0023980833333333332
EXTRACT: pitchwheel channel=3 pitch=6880 time=0.009592333333333333
EXTRACT: pitchwheel channel=3 pitch=7240 time=0.0023980833333333332
EXTRACT: pitchwheel channel=3 pitch=7600 time=0.0047961666666666665
EXTRACT: pitchwheel channel=3 pitch=7900 time=0.007194249999999999
EXTRACT: pitchwheel channel=3 pitch=8080 time=0
EXTRACT: pitchwheel channel=3 pitch=8191 time=0.007194249999999999
EXTRACT: note_on channel=5 note=75 velocity=111 time=0.011990416666666667
EXTRACT: note_on channel=5 note=73 velocity=0 time=0.011990416666666667
EXTRACT: note_on channel=5 note=77 velocity=112 time=0.047961666666666666
EXTRACT: note_on channel=5 note=75 velocity=0 time=0.009592333333333333
EXTRACT: note_on channel=5 note=79 velocity=109 time=0.047961666666666666
EXTRACT: note_on channel=5 note=77 velocity=0 time=0.011990416666666667
EXTRACT: note_on channel=3 note=68 velocity=0 time=0.026378916666666665
EXTRACT: note_on channel=3 note=80 velocity=0 time=0
EXTRACT: note_on channel=5 note=79 velocity=0 time=0.031175083333333332
EXTRACT: control_change channel=7 control=11 value=120 time=0.03836933333333333
EXTRACT: note_on channel=7 note=44 velocity=63 time=0
EXTRACT: control_change channel=6 control=11 value=120 time=0.0023980833333333332
EXTRACT: note_on channel=6 note=56 velocity=63 time=0
EXTRACT: pitchwheel channel=3 pitch=0 time=0.007194249999999999
EXTRACT: note_on channel=4 note=63 velocity=0 time=0
EXTRACT: note_on channel=4 note=67 velocity=0 time=0
EXTRACT: note_on channel=4 note=51 velocity=0 time=0
EXTRACT: note_on channel=4 note=60 velocity=102 time=0
EXTRACT: note_on channel=4 note=68 velocity=105 time=0
EXTRACT: note_on channel=4 note=51 velocity=97 time=0
EXTRACT: note_on channel=4 note=63 velocity=104 time=0
EXTRACT: control_change channel=4 control=11 value=57 time=0.0023980833333333332
EXTRACT: note_on channel=5 note=80 velocity=113 time=0
EXTRACT: note_on channel=9 note=35 velocity=97 time=0
EXTRACT: note_on channel=9 note=57 velocity=91 time=0
EXTRACT: note_on channel=10 note=75 velocity=111 time=0
EXTRACT: note_on channel=10 note=63 velocity=81 time=0
EXTRACT: control_change channel=5 control=11 value=59 time=0.03836933333333333
EXTRACT: control_change channel=7 control=11 value=116 time=0.007194249999999999
EXTRACT: control_change channel=6 control=11 value=116 time=0.0023980833333333332
EXTRACT: note_on channel=9 note=57 velocity=0 time=0.009592333333333333
EXTRACT: note_on channel=9 note=35 velocity=0 time=0
EXTRACT: control_change channel=4 control=11 value=59 time=0.009592333333333333
EXTRACT: control_change channel=7 control=11 value=110 time=0.016786583333333334
EXTRACT: control_change channel=6 control=11 value=110 time=0.0023980833333333332
EXTRACT: control_change channel=7 control=11 value=104 time=0.028776999999999997
EXTRACT: control_change channel=6 control=11 value=104 time=0.0023980833333333332
EXTRACT: control_change channel=5 control=11 value=61 time=0.014388499999999999
EXTRACT: control_change channel=7 control=11 value=100 time=0.014388499999999999
EXTRACT: control_change channel=6 control=11 value=100 time=0.0023980833333333332
EXTRACT: note_on channel=10 note=63 velocity=0 time=0.04556358333333333
EXTRACT: note_on channel=10 note=75 velocity=0 time=0
EXTRACT: control_change channel=7 control=11 value=96 time=0.007194249999999999
EXTRACT: control_change channel=6 control=11 value=96 time=0.0023980833333333332
EXTRACT: note_on channel=7 note=44 velocity=0 time=0.0047961666666666665
EXTRACT: note_on channel=6 note=56 velocity=0 time=0.0023980833333333332
EXTRACT: note_on channel=7 note=44 velocity=58 time=0.007194249999999999
EXTRACT: note_on channel=1 note=32 velocity=126 time=0.0023980833333333332
EXTRACT: note_on channel=6 note=56 velocity=57 time=0
EXTRACT: note_on channel=9 note=70 velocity=77 time=0.007194249999999999
EXTRACT: control_change channel=7 control=11 value=117 time=0.0047961666666666665
EXTRACT: control_change channel=6 control=11 value=117 time=0.0023980833333333332
EXTRACT: note_on channel=9 note=46 velocity=61 time=0.007194249999999999
EXTRACT: control_change channel=7 control=11 value=110 time=0.007194249999999999
EXTRACT: control_change channel=6 control=11 value=110 time=0.0023980833333333332
EXTRACT: control_change channel=7 control=11 value=101 time=0.011990416666666667
EXTRACT: control_change channel=6 control=11 value=101 time=0.0023980833333333332
EXTRACT: control_change channel=7 control=11 value=95 time=0.014388499999999999
EXTRACT: control_change channel=6 control=11 value=95 time=0.0023980833333333332
EXTRACT: note_on channel=9 note=70 velocity=0 time=0.0023980833333333332
EXTRACT: control_change channel=7 control=11 value=89 time=0.009592333333333333
EXTRACT: control_change channel=6 control=11 value=89 time=0.0023980833333333332
EXTRACT: note_on channel=9 note=46 velocity=0 time=0.0023980833333333332
EXTRACT: control_change channel=7 control=11 value=82 time=0.011990416666666667
EXTRACT: control_change channel=6 control=11 value=82 time=0.0023980833333333332
EXTRACT: control_change channel=7 control=11 value=76 time=0.011990416666666667
EXTRACT: control_change channel=6 control=11 value=76 time=0.0023980833333333332
EXTRACT: note_on channel=9 note=70 velocity=67 time=0.014388499999999999
EXTRACT: control_change channel=7 control=11 value=71 time=0.007194249999999999
EXTRACT: control_change channel=6 control=11 value=71 time=0.0023980833333333332
EXTRACT: note_on channel=9 note=42 velocity=109 time=0
EXTRACT: control_change channel=7 control=11 value=66 time=0.021582749999999998
EXTRACT: control_change channel=6 control=11 value=66 time=0.0023980833333333332
EXTRACT: control_change channel=7 control=11 value=64 time=0.011990416666666667
EXTRACT: control_change channel=6 control=11 value=64 time=0.0023980833333333332
EXTRACT: control_change channel=7 control=11 value=62 time=0.007194249999999999
EXTRACT: control_change channel=6 control=11 value=62 time=0.0023980833333333332
EXTRACT: note_on channel=9 note=70 velocity=0 time=0
EXTRACT: note_on channel=9 note=42 velocity=0 time=0.009592333333333333
EXTRACT: control_change channel=7 control=11 value=57 time=0.009592333333333333
EXTRACT: control_change channel=6 control=11 value=57 time=0.0023980833333333332
EXTRACT: note_on channel=1 note=32 velocity=0 time=0.023980833333333333
EXTRACT: note_on channel=9 note=70 velocity=108 time=0.014388499999999999
EXTRACT: pitchwheel channel=10 pitch=4440 time=0.0047961666666666665
EXTRACT: note_on channel=9 note=37 velocity=91 time=0.0023980833333333332
EXTRACT: note_on channel=9 note=28 velocity=68 time=0
EXTRACT: note_on channel=9 note=39 velocity=67 time=0
EXTRACT: note_on channel=9 note=35 velocity=97 time=0
EXTRACT: note_on channel=9 note=28 velocity=0 time=0.0023980833333333332
EXTRACT: note_on channel=9 note=37 velocity=0 time=0
EXTRACT: note_on channel=9 note=40 velocity=64 time=0
EXTRACT: note_on channel=10 note=70 velocity=110 time=0
EXTRACT: note_on channel=10 note=58 velocity=80 time=0
EXTRACT: note_on channel=9 note=39 velocity=50 time=0.026378916666666665
EXTRACT: note_on channel=9 note=70 velocity=0 time=0.019184666666666666
EXTRACT: note_on channel=9 note=39 velocity=0 time=0.007194249999999999
EXTRACT: note_on channel=9 note=35 velocity=0 time=0
EXTRACT: note_on channel=9 note=40 velocity=0 time=0.0047961666666666665
EXTRACT: control_change channel=7 control=11 value=53 time=0.007194249999999999
EXTRACT: control_change channel=6 control=11 value=53 time=0.0023980833333333332
EXTRACT: control_change channel=5 control=11 value=59 time=0.007194249999999999
EXTRACT: note_on channel=9 note=39 velocity=0 time=0.009592333333333333
EXTRACT: pitchwheel channel=10 pitch=4680 time=0.06474825
EXTRACT: pitchwheel channel=10 pitch=4520 time=0.007194249999999999
EXTRACT: pitchwheel channel=10 pitch=4320 time=0.011990416666666667
EXTRACT: pitchwheel channel=10 pitch=4120 time=0.007194249999999999
EXTRACT: pitchwheel channel=10 pitch=3980 time=0.0047961666666666665
EXTRACT: pitchwheel channel=10 pitch=3740 time=0.0047961666666666665
EXTRACT: control_change channel=4 control=11 value=57 time=0.0023980833333333332
EXTRACT: pitchwheel channel=10 pitch=3480 time=0
EXTRACT: pitchwheel channel=10 pitch=3200 time=0.0047961666666666665
EXTRACT: pitchwheel channel=10 pitch=2940 time=0.0023980833333333332
EXTRACT: pitchwheel channel=10 pitch=2700 time=0.0047961666666666665
EXTRACT: pitchwheel channel=10 pitch=2440 time=0.0047961666666666665
EXTRACT: pitchwheel channel=10 pitch=2200 time=0.0023980833333333332
EXTRACT: pitchwheel channel=10 pitch=1960 time=0
EXTRACT: note_on channel=9 note=70 velocity=75 time=0.0047961666666666665
EXTRACT: note_on channel=1 note=32 velocity=118 time=0.0047961666666666665
EXTRACT: pitchwheel channel=10 pitch=1800 time=0
EXTRACT: pitchwheel channel=10 pitch=1660 time=0
EXTRACT: control_change channel=7 control=11 value=57 time=0.0047961666666666665
EXTRACT: control_change channel=6 control=11 value=57 time=0.0023980833333333332
EXTRACT: pitchwheel channel=10 pitch=1480 time=0.0047961666666666665
EXTRACT: control_change channel=5 control=11 value=57 time=0.009592333333333333
EXTRACT: note_on channel=9 note=46 velocity=59 time=0
EXTRACT: control_change channel=7 control=11 value=61 time=0.007194249999999999
EXTRACT: control_change channel=6 control=11 value=61 time=0.0023980833333333332
EXTRACT: pitchwheel channel=10 pitch=1360 time=0.007194249999999999
EXTRACT: note_on channel=9 note=70 velocity=0 time=0.014388499999999999
EXTRACT: note_on channel=9 note=46 velocity=0 time=0.026378916666666665
EXTRACT: control_change channel=7 control=11 value=65 time=0.0047961666666666665
EXTRACT: control_change channel=6 control=11 value=65 time=0.0023980833333333332
EXTRACT: note_on channel=9 note=70 velocity=67 time=0.03836933333333333
EXTRACT: pitchwheel channel=10 pitch=1200 time=0.0023980833333333332
EXTRACT: note_on channel=9 note=42 velocity=108 time=0.0047961666666666665
EXTRACT: pitchwheel channel=10 pitch=980 time=0.007194249999999999
EXTRACT: pitchwheel channel=10 pitch=840 time=0.0047961666666666665
EXTRACT: pitchwheel channel=10 pitch=660 time=0.0023980833333333332
EXTRACT: pitchwheel channel=10 pitch=480 time=0.0047961666666666665
EXTRACT: pitchwheel channel=10 pitch=280 time=0.0047961666666666665
EXTRACT: pitchwheel channel=10 pitch=120 time=0.0023980833333333332
EXTRACT: pitchwheel channel=10 pitch=0 time=0.011990416666666667
EXTRACT: note_on channel=9 note=70 velocity=0 time=0.011990416666666667
EXTRACT: note_on channel=9 note=42 velocity=0 time=0.007194249999999999
EXTRACT: control_change channel=7 control=11 value=69 time=0.026378916666666665
EXTRACT: control_change channel=6 control=11 value=69 time=0.0023980833333333332
EXTRACT: note_on channel=1 note=32 velocity=0 time=0.007194249999999999
EXTRACT: note_on channel=9 note=70 velocity=108 time=0.016786583333333334
EXTRACT: note_on channel=10 note=68 velocity=110 time=0
EXTRACT: note_on channel=10 note=56 velocity=80 time=0
EXTRACT: note_on channel=9 note=35 velocity=97 time=0.0047961666666666665
EXTRACT: note_on channel=10 note=58 velocity=0 time=0.009592333333333333
EXTRACT: note_on channel=10 note=70 velocity=0 time=0
EXTRACT: control_change channel=7 control=11 value=74 time=0.019184666666666666
EXTRACT: control_change channel=6 control=11 value=74 time=0.0023980833333333332
EXTRACT: note_on channel=9 note=70 velocity=0 time=0.019184666666666666
EXTRACT: note_on channel=9 note=35 velocity=0 time=0.007194249999999999
EXTRACT: note_on channel=10 note=68 velocity=0 time=0.11270991666666666
EXTRACT: note_on channel=10 note=56 velocity=0 time=0
EXTRACT: note_on channel=1 note=32 velocity=121 time=0.050359749999999995
EXTRACT: note_on channel=9 note=70 velocity=76 time=0.0047961666666666665
EXTRACT: note_on channel=9 note=46 velocity=61 time=0.016786583333333334
EXTRACT: note_on channel=9 note=70 velocity=0 time=0.04076741666666667
EXTRACT: note_on channel=9 note=46 velocity=0 time=0.016786583333333334
EXTRACT: control_change channel=7 control=11 value=80 time=0.019184666666666666
EXTRACT: control_change channel=6 control=11 value=80 time=0.0023980833333333332
EXTRACT: note_on channel=9 note=70 velocity=67 time=0.021582749999999998
EXTRACT: note_on channel=9 note=42 velocity=108 time=0.007194249999999999
EXTRACT: control_change channel=7 control=11 value=85 time=0.04556358333333333
EXTRACT: control_change channel=6 control=11 value=85 time=0.0023980833333333332
EXTRACT: note_on channel=9 note=70 velocity=0 time=0.0023980833333333332
EXTRACT: note_on channel=9 note=42 velocity=0 time=0.007194249999999999
EXTRACT: control_change channel=7 control=11 value=89 time=0.028776999999999997
EXTRACT: control_change channel=6 control=11 value=89 time=0.0023980833333333332
EXTRACT: note_on channel=1 note=32 velocity=0 time=0.007194249999999999
EXTRACT: note_on channel=10 note=68 velocity=111 time=0
EXTRACT: note_on channel=10 note=56 velocity=81 time=0
EXTRACT: note_on channel=9 note=70 velocity=107 time=0.007194249999999999
EXTRACT: note_on channel=9 note=40 velocity=55 time=0.007194249999999999
EXTRACT: note_on channel=9 note=37 velocity=91 time=0
EXTRACT: note_on channel=9 note=28 velocity=68 time=0
EXTRACT: note_on channel=9 note=39 velocity=72 time=0
EXTRACT: note_on channel=9 note=35 velocity=97 time=0
EXTRACT: note_on channel=9 note=28 velocity=0 time=0.0023980833333333332
EXTRACT: note_on channel=9 note=37 velocity=0 time=0
EXTRACT: control_change channel=7 control=11 value=94 time=0.011990416666666667
EXTRACT: control_change channel=6 control=11 value=94 time=0.0023980833333333332
EXTRACT: note_on channel=9 note=39 velocity=55 time=0.014388499999999999
EXTRACT: control_change channel=7 control=11 value=99 time=0.014388499999999999
EXTRACT: control_change channel=6 control=11 value=99 time=0.0023980833333333332
EXTRACT: note_on channel=9 note=70 velocity=0 time=0.0023980833333333332
EXTRACT: note_on channel=9 note=35 velocity=0 time=0.007194249999999999
EXTRACT: note_on channel=9 note=40 velocity=0 time=0
EXTRACT: note_on channel=9 note=39 velocity=0 time=0
EXTRACT: control_change channel=7 control=11 value=104 time=0.019184666666666666
EXTRACT: control_change channel=6 control=11 value=104 time=0.0023980833333333332
EXTRACT: note_on channel=9 note=39 velocity=0 time=0.009592333333333333
EXTRACT: control_change channel=7 control=11 value=109 time=0.026378916666666665
EXTRACT: control_change channel=6 control=11 value=109 time=0.0023980833333333332
EXTRACT: control_change channel=7 control=11 value=113 time=0.014388499999999999
EXTRACT: control_change channel=6 control=11 value=113 time=0.0023980833333333332
EXTRACT: control_change channel=7 control=11 value=118 time=0.028776999999999997
EXTRACT: note_on channel=10 note=56 velocity=0 time=0
EXTRACT: note_on channel=10 note=68 velocity=0 time=0
EXTRACT: control_change channel=6 control=11 value=118 time=0.0023980833333333332
EXTRACT: note_on channel=7 note=44 velocity=0 time=0.035971249999999996
EXTRACT: note_on channel=6 note=56 velocity=0 time=0.009592333333333333
EXTRACT: note_on channel=1 note=32 velocity=122 time=0.009592333333333333
EXTRACT: note_on channel=9 note=70 velocity=73 time=0.007194249999999999
EXTRACT: note_on channel=9 note=46 velocity=61 time=0
EXTRACT: note_on channel=10 note=75 velocity=113 time=0
EXTRACT: note_on channel=10 note=63 velocity=82 time=0
EXTRACT: note_on channel=9 note=70 velocity=0 time=0.043165499999999996
EXTRACT: note_on channel=9 note=46 velocity=0 time=0.014388499999999999
EXTRACT: note_on channel=9 note=70 velocity=67 time=0.043165499999999996
EXTRACT: note_on channel=9 note=42 velocity=109 time=0.009592333333333333
EXTRACT: note_on channel=9 note=70 velocity=0 time=0.047961666666666666
EXTRACT: note_on channel=9 note=42 velocity=0 time=0.009592333333333333
EXTRACT: note_on channel=10 note=63 velocity=0 time=0.019184666666666666
EXTRACT: note_on channel=10 note=75 velocity=0 time=0
EXTRACT: note_on channel=1 note=32 velocity=0 time=0.016786583333333334
EXTRACT: note_on channel=7 note=48 velocity=65 time=0.0047961666666666665
EXTRACT: note_on channel=6 note=60 velocity=63 time=0.0023980833333333332
EXTRACT: note_on channel=4 note=63 velocity=0 time=0.007194249999999999
EXTRACT: note_on channel=4 note=60 velocity=0 time=0
EXTRACT: note_on channel=4 note=68 velocity=0 time=0
EXTRACT: note_on channel=4 note=51 velocity=0 time=0
EXTRACT: note_on channel=4 note=60 velocity=103 time=0
EXTRACT: note_on channel=4 note=67 velocity=106 time=0
EXTRACT: note_on channel=4 note=48 velocity=98 time=0
EXTRACT: note_on channel=4 note=63 velocity=105 time=0
EXTRACT: note_on channel=9 note=70 velocity=108 time=0
EXTRACT: note_on channel=5 note=80 velocity=0 time=0.0023980833333333332
EXTRACT: note_on channel=5 note=79 velocity=121 time=0.0047961666666666665
EXTRACT: control_change channel=7 control=11 value=117 time=0
EXTRACT: note_on channel=9 note=35 velocity=97 time=0
EXTRACT: control_change channel=6 control=11 value=117 time=0.0023980833333333332
EXTRACT: control_change channel=7 control=11 value=108 time=0.014388499999999999
EXTRACT: control_change channel=6 control=11 value=108 time=0.0023980833333333332
EXTRACT: control_change channel=7 control=11 value=97 time=0.011990416666666667
EXTRACT: control_change channel=6 control=11 value=97 time=0.0023980833333333332
EXTRACT: control_change channel=4 control=11 value=59 time=0.009592333333333333
EXTRACT: control_change channel=5 control=11 value=59 time=0.0047961666666666665
EXTRACT: control_change channel=7 control=11 value=89 time=0
EXTRACT: control_change channel=6 control=11 value=89 time=0.0023980833333333332
EXTRACT: note_on channel=9 note=70 velocity=0 time=0
EXTRACT: note_on channel=9 note=35 velocity=0 time=0.007194249999999999
EXTRACT: control_change channel=7 control=11 value=81 time=0.0047961666666666665
EXTRACT: control_change channel=6 control=11 value=81 time=0.0023980833333333332
EXTRACT: control_change channel=7 control=11 value=73 time=0.014388499999999999
EXTRACT: control_change channel=6 control=11 value=73 time=0.0023980833333333332
EXTRACT: control_change channel=7 control=11 value=66 time=0.011990416666666667
EXTRACT: control_change channel=6 control=11 value=66 time=0.0023980833333333332
EXTRACT: control_change channel=7 control=11 value=60 time=0.021582749999999998
EXTRACT: control_change channel=6 control=11 value=60 time=0.0023980833333333332
EXTRACT: control_change channel=7 control=11 value=54 time=0.021582749999999998
EXTRACT: control_change channel=6 control=11 value=54 time=0.0023980833333333332
EXTRACT: control_change channel=4 control=11 value=61 time=0.0023980833333333332
EXTRACT: control_change channel=5 control=11 value=61 time=0.0023980833333333332
EXTRACT: control_change channel=7 control=11 value=48 time=0.014388499999999999
EXTRACT: control_change channel=6 control=11 value=48 time=0.0023980833333333332
EXTRACT: control_change channel=7 control=11 value=43 time=0.021582749999999998
EXTRACT: control_change channel=6 control=11 value=43 time=0.0023980833333333332
EXTRACT: note_on channel=1 note=36 velocity=116 time=0.031175083333333332
EXTRACT: note_on channel=9 note=70 velocity=77 time=0.007194249999999999
EXTRACT: pitchwheel channel=10 pitch=4440 time=0.007194249999999999
EXTRACT: note_on channel=9 note=46 velocity=61 time=0
EXTRACT: note_on channel=10 note=70 velocity=110 time=0
EXTRACT: note_on channel=10 note=58 velocity=80 time=0
EXTRACT: note_on channel=9 note=70 velocity=0 time=0.043165499999999996
EXTRACT: note_on channel=9 note=46 velocity=0 time=0.014388499999999999
EXTRACT: control_change channel=7 control=11 value=38 time=0.0047961666666666665
EXTRACT: control_change channel=6 control=11 value=38 time=0.0023980833333333332
EXTRACT: note_on channel=9 note=70 velocity=67 time=0.03836933333333333
EXTRACT: note_on channel=9 note=42 velocity=113 time=0.007194249999999999
EXTRACT: control_change channel=7 control=11 value=38 time=0.031175083333333332
EXTRACT: control_change channel=6 control=11 value=38 time=0.0023980833333333332
EXTRACT: pitchwheel channel=10 pitch=4680 time=0.0047961666666666665
EXTRACT: pitchwheel channel=10 pitch=4520 time=0.009592333333333333
EXTRACT: note_on channel=9 note=70 velocity=0 time=0.0023980833333333332
EXTRACT: note_on channel=9 note=42 velocity=0 time=0.007194249999999999
EXTRACT: pitchwheel channel=10 pitch=4320 time=0
EXTRACT: pitchwheel channel=10 pitch=4120 time=0.009592333333333333
EXTRACT: pitchwheel channel=10 pitch=3980 time=0.0023980833333333332
EXTRACT: pitchwheel channel=10 pitch=3740 time=0.0047961666666666665
EXTRACT: pitchwheel channel=10 pitch=3480 time=0.0047961666666666665
EXTRACT: pitchwheel channel=10 pitch=3200 time=0.0023980833333333332
EXTRACT: pitchwheel channel=10 pitch=2940 time=0.0047961666666666665
EXTRACT: pitchwheel channel=10 pitch=2700 time=0.0023980833333333332
EXTRACT: note_on channel=1 note=36 velocity=0 time=0.0047961666666666665
EXTRACT: pitchwheel channel=10 pitch=2440 time=0
EXTRACT: pitchwheel channel=10 pitch=2200 time=0.0047961666666666665
EXTRACT: pitchwheel channel=10 pitch=1960 time=0
EXTRACT: pitchwheel channel=10 pitch=1800 time=0.007194249999999999
EXTRACT: pitchwheel channel=10 pitch=1660 time=0
EXTRACT: control_change channel=7 control=11 value=42 time=0.0023980833333333332
EXTRACT: control_change channel=6 control=11 value=42 time=0.0023980833333333332
EXTRACT: note_on channel=9 note=70 velocity=103 time=0
EXTRACT: note_on channel=9 note=37 velocity=91 time=0.007194249999999999
EXTRACT: note_on channel=9 note=28 velocity=68 time=0
EXTRACT: note_on channel=9 note=39 velocity=67 time=0
EXTRACT: note_on channel=9 note=35 velocity=97 time=0
EXTRACT: pitchwheel channel=10 pitch=1480 time=0
EXTRACT: note_on channel=9 note=28 velocity=0 time=0.0023980833333333332
EXTRACT: note_on channel=9 note=37 velocity=0 time=0
EXTRACT: note_on channel=9 note=40 velocity=64 time=0
EXTRACT: control_change channel=7 control=11 value=47 time=0.011990416666666667
EXTRACT: control_change channel=6 control=11 value=47 time=0.0023980833333333332
EXTRACT: pitchwheel channel=10 pitch=1360 time=0.009592333333333333
EXTRACT: note_on channel=9 note=39 velocity=50 time=0.0047961666666666665
EXTRACT: note_on channel=9 note=70 velocity=0 time=0.019184666666666666
EXTRACT: control_change channel=4 control=11 value=59 time=0.007194249999999999
EXTRACT: note_on channel=9 note=39 velocity=0 time=0
EXTRACT: note_on channel=9 note=35 velocity=0 time=0
EXTRACT: note_on channel=9 note=40 velocity=0 time=0.0023980833333333332
EXTRACT: control_change channel=5 control=11 value=59 time=0.0023980833333333332
EXTRACT: control_change channel=7 control=11 value=53 time=0.007194249999999999
EXTRACT: control_change channel=6 control=11 value=53 time=0.0023980833333333332
EXTRACT: note_on channel=9 note=39 velocity=0 time=0.016786583333333334
EXTRACT: pitchwheel channel=10 pitch=1200 time=0.028776999999999997
EXTRACT: pitchwheel channel=10 pitch=980 time=0.011990416666666667
EXTRACT: pitchwheel channel=10 pitch=840 time=0.0023980833333333332
EXTRACT: pitchwheel channel=10 pitch=660 time=0.0047961666666666665
EXTRACT: pitchwheel channel=10 pitch=480 time=0.0023980833333333332
EXTRACT: pitchwheel channel=10 pitch=280 time=0.0047961666666666665
EXTRACT: pitchwheel channel=10 pitch=120 time=0.0047961666666666665
EXTRACT: pitchwheel channel=10 pitch=0 time=0.011990416666666667
EXTRACT: control_change channel=7 control=11 value=57 time=0.04076741666666667
EXTRACT: control_change channel=6 control=11 value=57 time=0.0023980833333333332
EXTRACT: note_on channel=9 note=70 velocity=75 time=0.009592333333333333
EXTRACT: note_on channel=1 note=36 velocity=115 time=0.007194249999999999
EXTRACT: control_change channel=4 control=11 value=57 time=0.009592333333333333
EXTRACT: control_change channel=5 control=11 value=57 time=0
EXTRACT: note_on channel=10 note=68 velocity=110 time=0
EXTRACT: note_on channel=10 note=56 velocity=80 time=0
EXTRACT: note_on channel=9 note=46 velocity=62 time=0.009592333333333333
EXTRACT: note_on channel=10 note=58 velocity=0 time=0.0047961666666666665
EXTRACT: note_on channel=10 note=70 velocity=0 time=0
EXTRACT: control_change channel=7 control=11 value=63 time=0.016786583333333334
EXTRACT: control_change channel=6 control=11 value=63 time=0.0023980833333333332
EXTRACT: note_on channel=9 note=70 velocity=0 time=0.0047961666666666665
EXTRACT: note_on channel=9 note=46 velocity=0 time=0.028776999999999997
EXTRACT: note_on channel=9 note=70 velocity=67 time=0.043165499999999996
EXTRACT: note_on channel=9 note=42 velocity=111 time=0.007194249999999999
EXTRACT: note_on channel=9 note=70 velocity=0 time=0.050359749999999995
EXTRACT: note_on channel=9 note=42 velocity=0 time=0.007194249999999999
EXTRACT: note_on channel=10 note=68 velocity=0 time=0
EXTRACT: note_on channel=10 note=56 velocity=0 time=0
EXTRACT: note_on channel=1 note=36 velocity=0 time=0.03836933333333333
EXTRACT: note_on channel=9 note=70 velocity=103 time=0.014388499999999999
EXTRACT: note_on channel=9 note=35 velocity=97 time=0.007194249999999999
EXTRACT: note_on channel=9 note=70 velocity=0 time=0.050359749999999995
EXTRACT: control_change channel=7 control=11 value=68 time=0.0023980833333333332
EXTRACT: control_change channel=6 control=11 value=68 time=0.0023980833333333332
EXTRACT: note_on channel=9 note=35 velocity=0 time=0.0023980833333333332
EXTRACT: control_change channel=7 control=11 value=72 time=0.08153483333333333
EXTRACT: control_change channel=6 control=11 value=72 time=0.0023980833333333332
EXTRACT: control_change channel=7 control=11 value=77 time=0.028776999999999997
EXTRACT: control_change channel=6 control=11 value=77 time=0.0023980833333333332
EXTRACT: control_change channel=7 control=11 value=83 time=0.03836933333333333
EXTRACT: control_change channel=6 control=11 value=83 time=0.0023980833333333332
EXTRACT: note_on channel=1 note=36 velocity=116 time=0.007194249999999999
EXTRACT: note_on channel=10 note=70 velocity=111 time=0
EXTRACT: note_on channel=10 note=58 velocity=81 time=0
EXTRACT: note_on channel=9 note=82 velocity=65 time=0.011990416666666667
EXTRACT: note_on channel=9 note=46 velocity=63 time=0.007194249999999999
EXTRACT: control_change channel=7 control=11 value=88 time=0.007194249999999999
EXTRACT: control_change channel=6 control=11 value=88 time=0.0023980833333333332
EXTRACT: control_change channel=7 control=11 value=93 time=0.021582749999999998
EXTRACT: control_change channel=6 control=11 value=93 time=0.0023980833333333332
EXTRACT: note_on channel=9 note=82 velocity=0 time=0.016786583333333334
EXTRACT: note_on channel=9 note=46 velocity=0 time=0.007194249999999999
EXTRACT: control_change channel=7 control=11 value=98 time=0.0047961666666666665
EXTRACT: control_change channel=6 control=11 value=98 time=0.0023980833333333332
EXTRACT: control_change channel=7 control=11 value=102 time=0.019184666666666666
EXTRACT: control_change channel=6 control=11 value=102 time=0.0023980833333333332
EXTRACT: control_change channel=7 control=11 value=107 time=0.021582749999999998
EXTRACT: control_change channel=6 control=11 value=107 time=0.0023980833333333332
EXTRACT: note_on channel=9 note=82 velocity=57 time=0
EXTRACT: note_on channel=9 note=42 velocity=111 time=0
EXTRACT: control_change channel=7 control=11 value=111 time=0.014388499999999999
EXTRACT: control_change channel=6 control=11 value=111 time=0.0023980833333333332
EXTRACT: control_change channel=7 control=11 value=115 time=0.011990416666666667
EXTRACT: control_change channel=6 control=11 value=115 time=0.0023980833333333332
EXTRACT: note_on channel=9 note=39 velocity=50 time=0.007194249999999999
EXTRACT: note_on channel=10 note=58 velocity=0 time=0.009592333333333333
EXTRACT: note_on channel=10 note=70 velocity=0 time=0
EXTRACT: note_on channel=9 note=42 velocity=0 time=0.009592333333333333
EXTRACT: note_on channel=9 note=82 velocity=0 time=0
EXTRACT: control_change channel=7 control=11 value=120 time=0.0023980833333333332
EXTRACT: control_change channel=6 control=11 value=120 time=0.0023980833333333332
EXTRACT: note_on channel=7 note=48 velocity=0 time=0.019184666666666666
EXTRACT: note_on channel=6 note=60 velocity=0 time=0.009592333333333333
EXTRACT: note_on channel=1 note=36 velocity=0 time=0.0023980833333333332
EXTRACT: note_on channel=9 note=39 velocity=0 time=0.0023980833333333332
EXTRACT: note_on channel=9 note=40 velocity=55 time=0
EXTRACT: note_on channel=9 note=37 velocity=91 time=0
EXTRACT: note_on channel=9 note=28 velocity=68 time=0
EXTRACT: note_on channel=9 note=39 velocity=73 time=0
EXTRACT: note_on channel=9 note=82 velocity=71 time=0
EXTRACT: note_on channel=9 note=35 velocity=97 time=0
EXTRACT: note_on channel=10 note=68 velocity=110 time=0
EXTRACT: note_on channel=10 note=56 velocity=80 time=0
EXTRACT: note_on channel=9 note=28 velocity=0 time=0.0023980833333333332
EXTRACT: note_on channel=9 note=37 velocity=0 time=0
EXTRACT: note_on channel=9 note=39 velocity=55 time=0.028776999999999997
EXTRACT: note_on channel=9 note=39 velocity=0 time=0.026378916666666665
EXTRACT: note_on channel=9 note=82 velocity=0 time=0
EXTRACT: note_on channel=9 note=40 velocity=0 time=0
EXTRACT: note_on channel=9 note=35 velocity=0 time=0
EXTRACT: note_on channel=9 note=39 velocity=0 time=0.031175083333333332
EXTRACT: note_on channel=10 note=56 velocity=0 time=0.08633099999999999
EXTRACT: note_on channel=10 note=68 velocity=0 time=0
EXTRACT: note_on channel=7 note=48 velocity=66 time=0.04076741666666667
EXTRACT: note_on channel=1 note=36 velocity=113 time=0.0023980833333333332
EXTRACT: note_on channel=6 note=60 velocity=67 time=0
EXTRACT: note_on channel=9 note=82 velocity=53 time=0.014388499999999999
EXTRACT: note_on channel=9 note=46 velocity=62 time=0.007194249999999999
EXTRACT: control_change channel=7 control=11 value=114 time=0.03836933333333333
EXTRACT: control_change channel=6 control=11 value=114 time=0.0023980833333333332
EXTRACT: note_on channel=9 note=82 velocity=0 time=0.009592333333333333
EXTRACT: note_on channel=9 note=46 velocity=0 time=0.007194249999999999
EXTRACT: control_change channel=7 control=11 value=110 time=0.0047961666666666665
EXTRACT: control_change channel=6 control=11 value=110 time=0.0023980833333333332
EXTRACT: control_change channel=7 control=11 value=105 time=0.014388499999999999
EXTRACT: control_change channel=6 control=11 value=105 time=0.0023980833333333332
EXTRACT: control_change channel=7 control=11 value=96 time=0.028776999999999997
EXTRACT: note_on channel=9 note=82 velocity=50 time=0
EXTRACT: note_on channel=9 note=42 velocity=113 time=0
EXTRACT: control_change channel=6 control=11 value=96 time=0.0023980833333333332
EXTRACT: control_change channel=7 control=11 value=92 time=0.011990416666666667
EXTRACT: control_change channel=6 control=11 value=92 time=0.0023980833333333332
EXTRACT: control_change channel=7 control=11 value=88 time=0.021582749999999998
EXTRACT: control_change channel=6 control=11 value=88 time=0.0023980833333333332
EXTRACT: note_on channel=9 note=42 velocity=0 time=0.016786583333333334
EXTRACT: note_on channel=9 note=82 velocity=0 time=0
EXTRACT: control_change channel=7 control=11 value=84 time=0.026378916666666665
EXTRACT: control_change channel=6 control=11 value=84 time=0.0023980833333333332
EXTRACT: note_on channel=7 note=48 velocity=0 time=0.0047961666666666665
EXTRACT: note_on channel=1 note=36 velocity=0 time=0.0023980833333333332
EXTRACT: note_on channel=6 note=60 velocity=0 time=0
EXTRACT: note_on channel=7 note=49 velocity=67 time=0.007194249999999999
EXTRACT: note_on channel=6 note=61 velocity=67 time=0.0023980833333333332
EXTRACT: note_on channel=4 note=65 velocity=106 time=0.0023980833333333332
EXTRACT: note_on channel=4 note=49 velocity=99 time=0
EXTRACT: note_on channel=4 note=68 velocity=107 time=0
EXTRACT: note_on channel=4 note=61 velocity=103 time=0
EXTRACT: note_on channel=4 note=63 velocity=0 time=0.0023980833333333332
EXTRACT: note_on channel=4 note=48 velocity=0 time=0
EXTRACT: note_on channel=4 note=60 velocity=0 time=0
EXTRACT: note_on channel=4 note=67 velocity=0 time=0
EXTRACT: note_on channel=9 note=70 velocity=103 time=0.0023980833333333332
EXTRACT: note_on channel=5 note=77 velocity=113 time=0.0023980833333333332
EXTRACT: note_on channel=5 note=79 velocity=0 time=0.0023980833333333332
EXTRACT: note_on channel=9 note=35 velocity=97 time=0
EXTRACT: note_on channel=10 note=63 velocity=81 time=0
EXTRACT: note_on channel=10 note=75 velocity=111 time=0
EXTRACT: control_change channel=5 control=11 value=59 time=0.03836933333333333
EXTRACT: control_change channel=7 control=11 value=117 time=0
EXTRACT: control_change channel=6 control=11 value=117 time=0.0023980833333333332
EXTRACT: note_on channel=9 note=70 velocity=0 time=0.009592333333333333
EXTRACT: note_on channel=9 note=35 velocity=0 time=0.007194249999999999
EXTRACT: control_change channel=7 control=11 value=113 time=0.0023980833333333332
EXTRACT: control_change channel=6 control=11 value=113 time=0.0023980833333333332
EXTRACT: control_change channel=4 control=11 value=59 time=0.0047961666666666665
EXTRACT: control_change channel=7 control=11 value=109 time=0.009592333333333333
EXTRACT: control_change channel=6 control=11 value=109 time=0.0023980833333333332
EXTRACT: control_change channel=7 control=11 value=101 time=0.021582749999999998
EXTRACT: control_change channel=6 control=11 value=101 time=0.0023980833333333332
EXTRACT: control_change channel=7 control=11 value=96 time=0.019184666666666666
EXTRACT: control_change channel=6 control=11 value=96 time=0.0023980833333333332
EXTRACT: control_change channel=5 control=11 value=61 time=0.007194249999999999
EXTRACT: control_change channel=7 control=11 value=92 time=0.014388499999999999
EXTRACT: control_change channel=6 control=11 value=92 time=0.0023980833333333332
EXTRACT: control_change channel=7 control=11 value=88 time=0.028776999999999997
EXTRACT: control_change channel=6 control=11 value=88 time=0.0023980833333333332
EXTRACT: note_on channel=10 note=75 velocity=0 time=0.014388499999999999
EXTRACT: note_on channel=10 note=63 velocity=0 time=0
EXTRACT: control_change channel=4 control=11 value=61 time=0.011990416666666667
EXTRACT: note_on channel=7 note=49 velocity=0 time=0.0023980833333333332
EXTRACT: control_change channel=7 control=11 value=120 time=0
EXTRACT: note_on channel=6 note=61 velocity=0 time=0.0023980833333333332
EXTRACT: control_change channel=6 control=11 value=120 time=0
EXTRACT: note_on channel=7 note=49 velocity=64 time=0.007194249999999999
EXTRACT: note_on channel=1 note=25 velocity=123 time=0.0023980833333333332
EXTRACT: note_on channel=6 note=61 velocity=59 time=0
EXTRACT: note_on channel=9 note=70 velocity=77 time=0.0047961666666666665
EXTRACT: control_change channel=7 control=11 value=115 time=0.014388499999999999
EXTRACT: control_change channel=6 control=11 value=115 time=0.0023980833333333332
EXTRACT: note_on channel=9 note=46 velocity=61 time=0
EXTRACT: control_change channel=7 control=11 value=107 time=0.014388499999999999
EXTRACT: control_change channel=6 control=11 value=107 time=0.0023980833333333332
EXTRACT: control_change channel=7 control=11 value=100 time=0.011990416666666667
EXTRACT: control_change channel=6 control=11 value=100 time=0.0023980833333333332
EXTRACT: note_on channel=9 note=70 velocity=0 time=0.009592333333333333
EXTRACT: control_change channel=7 control=11 value=95 time=0.0047961666666666665
EXTRACT: control_change channel=6 control=11 value=95 time=0.0023980833333333332
EXTRACT: note_on channel=9 note=46 velocity=0 time=0.009592333333333333
EXTRACT: control_change channel=7 control=11 value=89 time=0.0023980833333333332
EXTRACT: control_change channel=6 control=11 value=89 time=0.0023980833333333332
EXTRACT: control_change channel=7 control=11 value=83 time=0.014388499999999999
EXTRACT: control_change channel=6 control=11 value=83 time=0.0023980833333333332
EXTRACT: control_change channel=7 control=11 value=78 time=0.021582749999999998
EXTRACT: note_on channel=9 note=70 velocity=67 time=0
EXTRACT: control_change channel=6 control=11 value=78 time=0.0023980833333333332
EXTRACT: note_on channel=9 note=42 velocity=109 time=0.0047961666666666665
EXTRACT: control_change channel=7 control=11 value=74 time=0.007194249999999999
EXTRACT: control_change channel=6 control=11 value=74 time=0.0023980833333333332
EXTRACT: control_change channel=7 control=11 value=70 time=0.028776999999999997
EXTRACT: control_change channel=6 control=11 value=70 time=0.0023980833333333332
EXTRACT: note_on channel=9 note=70 velocity=0 time=0.009592333333333333
EXTRACT: control_change channel=7 control=11 value=66 time=0.0047961666666666665
EXTRACT: control_change channel=6 control=11 value=66 time=0.0023980833333333332
EXTRACT: note_on channel=9 note=42 velocity=0 time=0
EXTRACT: control_change channel=7 control=11 value=64 time=0.011990416666666667
EXTRACT: control_change channel=6 control=11 value=64 time=0.0023980833333333332
EXTRACT: control_change channel=7 control=11 value=62 time=0.021582749999999998
EXTRACT: note_on channel=1 note=25 velocity=0 time=0.0023980833333333332
EXTRACT: control_change channel=6 control=11 value=62 time=0
EXTRACT: note_on channel=9 note=70 velocity=108 time=0.014388499999999999
EXTRACT: pitchwheel channel=10 pitch=4440 time=0.0047961666666666665
EXTRACT: note_on channel=9 note=37 velocity=91 time=0.0023980833333333332
EXTRACT: note_on channel=9 note=28 velocity=68 time=0
EXTRACT: note_on channel=9 note=39 velocity=67 time=0
EXTRACT: note_on channel=9 note=35 velocity=97 time=0
EXTRACT: note_on channel=9 note=28 velocity=0 time=0.0023980833333333332
EXTRACT: note_on channel=9 note=37 velocity=0 time=0
EXTRACT: note_on channel=9 note=40 velocity=64 time=0
EXTRACT: note_on channel=10 note=58 velocity=80 time=0
EXTRACT: note_on channel=10 note=70 velocity=110 time=0
EXTRACT: control_change channel=4 control=11 value=59 time=0.007194249999999999
EXTRACT: note_on channel=9 note=39 velocity=50 time=0.019184666666666666
EXTRACT: note_on channel=9 note=70 velocity=0 time=0.019184666666666666
EXTRACT: note_on channel=9 note=39 velocity=0 time=0.007194249999999999
EXTRACT: note_on channel=9 note=35 velocity=0 time=0
EXTRACT: note_on channel=9 note=40 velocity=0 time=0.0047961666666666665
EXTRACT: control_change channel=5 control=11 value=59 time=0.016786583333333334
EXTRACT: note_on channel=9 note=39 velocity=0 time=0.009592333333333333
EXTRACT: pitchwheel channel=10 pitch=4680 time=0.06474825
EXTRACT: pitchwheel channel=10 pitch=4520 time=0.007194249999999999
EXTRACT: pitchwheel channel=10 pitch=4320 time=0.011990416666666667
EXTRACT: pitchwheel channel=10 pitch=4120 time=0.007194249999999999
EXTRACT: pitchwheel channel=10 pitch=3980 time=0.0047961666666666665
EXTRACT: pitchwheel channel=10 pitch=3740 time=0.0023980833333333332
EXTRACT: pitchwheel channel=10 pitch=3480 time=0.0047961666666666665
EXTRACT: pitchwheel channel=10 pitch=3200 time=0.0047961666666666665
EXTRACT: control_change channel=4 control=11 value=57 time=0.0023980833333333332
EXTRACT: pitchwheel channel=10 pitch=2940 time=0
EXTRACT: pitchwheel channel=10 pitch=2700 time=0.0047961666666666665
EXTRACT: pitchwheel channel=10 pitch=2440 time=0.0023980833333333332
EXTRACT: control_change channel=7 control=11 value=62 time=0.0047961666666666665
EXTRACT: pitchwheel channel=10 pitch=2200 time=0
EXTRACT: pitchwheel channel=10 pitch=1960 time=0
EXTRACT: control_change channel=6 control=11 value=62 time=0.0023980833333333332
EXTRACT: note_on channel=9 note=70 velocity=75 time=0.0023980833333333332
EXTRACT: pitchwheel channel=10 pitch=1800 time=0.0023980833333333332
EXTRACT: pitchwheel channel=10 pitch=1660 time=0
EXTRACT: note_on channel=1 note=25 velocity=122 time=0.0023980833333333332
EXTRACT: pitchwheel channel=10 pitch=1480 time=0.009592333333333333
EXTRACT: control_change channel=7 control=11 value=64 time=0.0023980833333333332
EXTRACT: control_change channel=6 control=11 value=64 time=0.0023980833333333332
EXTRACT: control_change channel=5 control=11 value=57 time=0.007194249999999999
EXTRACT: note_on channel=9 note=46 velocity=59 time=0
EXTRACT: control_change channel=7 control=11 value=67 time=0.007194249999999999
EXTRACT: control_change channel=6 control=11 value=67 time=0.0023980833333333332
EXTRACT: pitchwheel channel=10 pitch=1360 time=0.007194249999999999
EXTRACT: note_on channel=9 note=70 velocity=0 time=0.014388499999999999
EXTRACT: note_on channel=9 note=46 velocity=0 time=0.026378916666666665
EXTRACT: control_change channel=7 control=11 value=71 time=0.0047961666666666665
EXTRACT: control_change channel=6 control=11 value=71 time=0.0023980833333333332
EXTRACT: note_on channel=9 note=70 velocity=67 time=0.035971249999999996
EXTRACT: pitchwheel channel=10 pitch=1200 time=0.0047961666666666665
EXTRACT: note_on channel=9 note=42 velocity=108 time=0.0047961666666666665
EXTRACT: pitchwheel channel=10 pitch=980 time=0.007194249999999999
EXTRACT: pitchwheel channel=10 pitch=840 time=0.0047961666666666665
EXTRACT: pitchwheel channel=10 pitch=660 time=0.0023980833333333332
EXTRACT: pitchwheel channel=10 pitch=480 time=0.0047961666666666665
EXTRACT: pitchwheel channel=10 pitch=280 time=0.0023980833333333332
EXTRACT: pitchwheel channel=10 pitch=120 time=0.0047961666666666665
EXTRACT: pitchwheel channel=10 pitch=0 time=0.011990416666666667
EXTRACT: note_on channel=9 note=70 velocity=0 time=0.009592333333333333
EXTRACT: note_on channel=9 note=42 velocity=0 time=0.009592333333333333
EXTRACT: control_change channel=7 control=11 value=76 time=0.03357316666666667
EXTRACT: note_on channel=1 note=25 velocity=0 time=0.0023980833333333332
EXTRACT: control_change channel=6 control=11 value=76 time=0
EXTRACT: note_on channel=9 note=70 velocity=108 time=0.014388499999999999
EXTRACT: note_on channel=10 note=56 velocity=80 time=0
EXTRACT: note_on channel=10 note=68 velocity=110 time=0
EXTRACT: note_on channel=9 note=35 velocity=97 time=0.0047961666666666665
EXTRACT: note_on channel=10 note=70 velocity=0 time=0.009592333333333333
EXTRACT: note_on channel=10 note=58 velocity=0 time=0
EXTRACT: note_on channel=9 note=70 velocity=0 time=0.03836933333333333
EXTRACT: note_on channel=9 note=35 velocity=0 time=0.009592333333333333
EXTRACT: note_on channel=10 note=56 velocity=0 time=0.11270991666666666
EXTRACT: note_on channel=10 note=68 velocity=0 time=0
EXTRACT: note_on channel=1 note=25 velocity=120 time=0.047961666666666666
EXTRACT: control_change channel=7 control=11 value=81 time=0.0047961666666666665
EXTRACT: control_change channel=6 control=11 value=81 time=0.0023980833333333332
EXTRACT: note_on channel=9 note=70 velocity=76 time=0
EXTRACT: note_on channel=9 note=46 velocity=61 time=0.014388499999999999
EXTRACT: note_on channel=9 note=70 velocity=0 time=0.043165499999999996
EXTRACT: note_on channel=9 note=46 velocity=0 time=0.014388499999999999
EXTRACT: note_on channel=9 note=70 velocity=67 time=0.04556358333333333
EXTRACT: note_on channel=9 note=42 velocity=108 time=0.007194249999999999
EXTRACT: control_change channel=7 control=11 value=85 time=0.021582749999999998
EXTRACT: control_change channel=6 control=11 value=85 time=0.0023980833333333332
EXTRACT: note_on channel=9 note=70 velocity=0 time=0.026378916666666665
EXTRACT: control_change channel=7 control=11 value=89 time=0.0023980833333333332
EXTRACT: control_change channel=6 control=11 value=89 time=0.0023980833333333332
EXTRACT: note_on channel=9 note=42 velocity=0 time=0.0023980833333333332
EXTRACT: note_on channel=1 note=25 velocity=0 time=0.035971249999999996
EXTRACT: control_change channel=7 control=11 value=93 time=0
EXTRACT: control_change channel=6 control=11 value=93 time=0.0023980833333333332
EXTRACT: note_on channel=10 note=56 velocity=81 time=0
EXTRACT: note_on channel=10 note=68 velocity=111 time=0
EXTRACT: note_on channel=9 note=70 velocity=107 time=0.009592333333333333
EXTRACT: note_on channel=9 note=40 velocity=55 time=0.007194249999999999
EXTRACT: note_on channel=9 note=37 velocity=91 time=0
EXTRACT: note_on channel=9 note=28 velocity=68 time=0
EXTRACT: note_on channel=9 note=39 velocity=72 time=0
EXTRACT: note_on channel=9 note=35 velocity=97 time=0
EXTRACT: note_on channel=9 note=28 velocity=0 time=0.0023980833333333332
EXTRACT: note_on channel=9 note=37 velocity=0 time=0
EXTRACT: control_change channel=7 control=11 value=97 time=0.019184666666666666
EXTRACT: control_change channel=6 control=11 value=97 time=0.0023980833333333332
EXTRACT: note_on channel=9 note=39 velocity=55 time=0.007194249999999999
EXTRACT: note_on channel=9 note=70 velocity=0 time=0.019184666666666666
EXTRACT: note_on channel=9 note=35 velocity=0 time=0.007194249999999999
EXTRACT: note_on channel=9 note=40 velocity=0 time=0
EXTRACT: note_on channel=9 note=39 velocity=0 time=0
EXTRACT: control_change channel=7 control=11 value=102 time=0.0023980833333333332
EXTRACT: control_change channel=6 control=11 value=102 time=0.0023980833333333332
EXTRACT: control_change channel=7 control=11 value=106 time=0.021582749999999998
EXTRACT: control_change channel=6 control=11 value=106 time=0.0023980833333333332
EXTRACT: note_on channel=9 note=39 velocity=0 time=0.0023980833333333332
EXTRACT: control_change channel=7 control=11 value=110 time=0.026378916666666665
EXTRACT: control_change channel=6 control=11 value=110 time=0.0023980833333333332
EXTRACT: control_change channel=7 control=11 value=116 time=0.028776999999999997
EXTRACT: control_change channel=6 control=11 value=116 time=0.0023980833333333332
EXTRACT: note_on channel=10 note=68 velocity=0 time=0.011990416666666667
EXTRACT: note_on channel=10 note=56 velocity=0 time=0
EXTRACT: control_change channel=7 control=11 value=120 time=0.016786583333333334
EXTRACT: control_change channel=6 control=11 value=120 time=0.0023980833333333332
EXTRACT: note_on channel=7 note=49 velocity=0 time=0.026378916666666665
EXTRACT: note_on channel=6 note=61 velocity=0 time=0.0047961666666666665
EXTRACT: note_on channel=1 note=25 velocity=120 time=0.009592333333333333
EXTRACT: note_on channel=9 note=70 velocity=73 time=0.0047961666666666665
EXTRACT: note_on channel=9 note=46 velocity=61 time=0
EXTRACT: note_on channel=10 note=63 velocity=82 time=0
EXTRACT: note_on channel=10 note=75 velocity=113 time=0
EXTRACT: note_on channel=9 note=70 velocity=0 time=0.04076741666666667
EXTRACT: note_on channel=9 note=46 velocity=0 time=0.016786583333333334
EXTRACT: note_on channel=9 note=70 velocity=67 time=0.043165499999999996
EXTRACT: note_on channel=9 note=42 velocity=109 time=0.007194249999999999
EXTRACT: note_on channel=9 note=70 velocity=0 time=0.050359749999999995
EXTRACT: note_on channel=9 note=42 velocity=0 time=0.007194249999999999
EXTRACT: note_on channel=10 note=75 velocity=0 time=0.021582749999999998
EXTRACT: note_on channel=10 note=63 velocity=0 time=0
EXTRACT: note_on channel=1 note=25 velocity=0 time=0.016786583333333334
EXTRACT: note_on channel=7 note=51 velocity=65 time=0.0047961666666666665
EXTRACT: note_on channel=6 note=63 velocity=66 time=0.0023980833333333332
EXTRACT: note_on channel=4 note=65 velocity=0 time=0.0023980833333333332
EXTRACT: note_on channel=4 note=61 velocity=0 time=0
EXTRACT: note_on channel=4 note=49 velocity=0 time=0
EXTRACT: note_on channel=4 note=68 velocity=0 time=0
EXTRACT: note_on channel=4 note=67 velocity=108 time=0.0047961666666666665
EXTRACT: note_on channel=4 note=63 velocity=105 time=0
EXTRACT: note_on channel=4 note=55 velocity=100 time=0
EXTRACT: note_on channel=4 note=70 velocity=107 time=0
EXTRACT: note_on channel=5 note=79 velocity=119 time=0
EXTRACT: note_on channel=9 note=70 velocity=108 time=0
EXTRACT: note_on channel=5 note=77 velocity=0 time=0.0023980833333333332
EXTRACT: note_on channel=5 note=63 velocity=105 time=0.0023980833333333332
EXTRACT: note_on channel=9 note=35 velocity=97 time=0.0023980833333333332
EXTRACT: control_change channel=7 control=11 value=114 time=0.007194249999999999
EXTRACT: control_change channel=6 control=11 value=114 time=0.0023980833333333332
EXTRACT: control_change channel=7 control=11 value=103 time=0.011990416666666667
EXTRACT: control_change channel=6 control=11 value=103 time=0.0023980833333333332
EXTRACT: control_change channel=5 control=11 value=59 time=0.0047961666666666665
EXTRACT: control_change channel=7 control=11 value=94 time=0.009592333333333333
EXTRACT: control_change channel=6 control=11 value=94 time=0.0023980833333333332
EXTRACT: note_on channel=9 note=70 velocity=0 time=0.009592333333333333
EXTRACT: control_change channel=7 control=11 value=87 time=0.0047961666666666665
EXTRACT: control_change channel=6 control=11 value=87 time=0.0023980833333333332
EXTRACT: note_on channel=9 note=35 velocity=0 time=0
EXTRACT: control_change channel=4 control=11 value=59 time=0.009592333333333333
EXTRACT: control_change channel=7 control=11 value=79 time=0.0023980833333333332
EXTRACT: control_change channel=6 control=11 value=79 time=0.0023980833333333332
EXTRACT: control_change channel=7 control=11 value=72 time=0.014388499999999999
EXTRACT: control_change channel=6 control=11 value=72 time=0.0023980833333333332
EXTRACT: control_change channel=7 control=11 value=67 time=0.011990416666666667
EXTRACT: control_change channel=6 control=11 value=67 time=0.0023980833333333332
EXTRACT: control_change channel=7 control=11 value=63 time=0.014388499999999999
EXTRACT: control_change channel=6 control=11 value=63 time=0.0023980833333333332
EXTRACT: control_change channel=7 control=11 value=57 time=0.019184666666666666
EXTRACT: control_change channel=6 control=11 value=57 time=0.0023980833333333332
EXTRACT: control_change channel=7 control=11 value=52 time=0.021582749999999998
EXTRACT: control_change channel=6 control=11 value=52 time=0.0023980833333333332
EXTRACT: control_change channel=5 control=11 value=57 time=0.009592333333333333
EXTRACT: control_change channel=7 control=11 value=48 time=0.0047961666666666665
EXTRACT: control_change channel=6 control=11 value=48 time=0.0023980833333333332
EXTRACT: control_change channel=4 control=11 value=61 time=0.023980833333333333
EXTRACT: control_change channel=7 control=11 value=44 time=0.0047961666666666665
EXTRACT: control_change channel=6 control=11 value=44 time=0.0023980833333333332
EXTRACT: note_on channel=1 note=27 velocity=124 time=0.007194249999999999
EXTRACT: note_on channel=9 note=70 velocity=77 time=0.007194249999999999
EXTRACT: pitchwheel channel=10 pitch=4440 time=0.007194249999999999
EXTRACT: note_on channel=9 note=46 velocity=61 time=0
EXTRACT: note_on channel=10 note=58 velocity=80 time=0
EXTRACT: note_on channel=10 note=70 velocity=110 time=0
EXTRACT: note_on channel=9 note=70 velocity=0 time=0.043165499999999996
EXTRACT: note_on channel=9 note=46 velocity=0 time=0.014388499999999999
EXTRACT: note_on channel=9 note=70 velocity=67 time=0.043165499999999996
EXTRACT: note_on channel=9 note=42 velocity=113 time=0.009592333333333333
EXTRACT: pitchwheel channel=10 pitch=4680 time=0.03836933333333333
EXTRACT: pitchwheel channel=10 pitch=4520 time=0.007194249999999999
EXTRACT: note_on channel=9 note=70 velocity=0 time=0.0023980833333333332
EXTRACT: note_on channel=9 note=42 velocity=0 time=0.009592333333333333
EXTRACT: pitchwheel channel=10 pitch=4320 time=0
EXTRACT: pitchwheel channel=10 pitch=4120 time=0.007194249999999999
EXTRACT: pitchwheel channel=10 pitch=3980 time=0.0047961666666666665
EXTRACT: pitchwheel channel=10 pitch=3740 time=0.0047961666666666665
EXTRACT: pitchwheel channel=10 pitch=3480 time=0.0023980833333333332
EXTRACT: pitchwheel channel=10 pitch=3200 time=0.0047961666666666665
EXTRACT: control_change channel=7 control=11 value=44 time=0.0023980833333333332
EXTRACT: control_change channel=6 control=11 value=44 time=0.0023980833333333332
EXTRACT: pitchwheel channel=10 pitch=2940 time=0
EXTRACT: pitchwheel channel=10 pitch=2700 time=0.0023980833333333332
EXTRACT: note_on channel=1 note=27 velocity=0 time=0.0047961666666666665
EXTRACT: pitchwheel channel=10 pitch=2440 time=0
EXTRACT: pitchwheel channel=10 pitch=2200 time=0.0023980833333333332
EXTRACT: pitchwheel channel=10 pitch=1960 time=0
EXTRACT: note_on channel=5 note=80 velocity=115 time=0.009592333333333333
EXTRACT: pitchwheel channel=10 pitch=1800 time=0
EXTRACT: pitchwheel channel=10 pitch=1660 time=0
EXTRACT: note_on channel=5 note=79 velocity=0 time=0.0023980833333333332
EXTRACT: note_on channel=9 note=70 velocity=103 time=0
EXTRACT: note_on channel=5 note=63 velocity=0 time=0.0047961666666666665
EXTRACT: note_on channel=5 note=65 velocity=106 time=0
EXTRACT: control_change channel=7 control=11 value=48 time=0.0023980833333333332
EXTRACT: control_change channel=6 control=11 value=48 time=0.0023980833333333332
EXTRACT: note_on channel=9 note=37 velocity=91 time=0
EXTRACT: note_on channel=9 note=28 velocity=68 time=0
EXTRACT: note_on channel=9 note=39 velocity=67 time=0
EXTRACT: note_on channel=9 note=35 velocity=97 time=0
EXTRACT: pitchwheel channel=10 pitch=1480 time=0
EXTRACT: control_change channel=5 control=11 value=59 time=0.0023980833333333332
EXTRACT: note_on channel=9 note=28 velocity=0 time=0
EXTRACT: note_on channel=9 note=37 velocity=0 time=0
EXTRACT: note_on channel=9 note=40 velocity=64 time=0
EXTRACT: control_change channel=4 control=11 value=59 time=0.007194249999999999
EXTRACT: pitchwheel channel=10 pitch=1360 time=0.016786583333333334
EXTRACT: note_on channel=9 note=39 velocity=50 time=0.0047961666666666665
EXTRACT: control_change channel=5 control=11 value=61 time=0.0023980833333333332
EXTRACT: control_change channel=7 control=11 value=54 time=0.011990416666666667
EXTRACT: control_change channel=6 control=11 value=54 time=0.0023980833333333332
EXTRACT: note_on channel=9 note=70 velocity=0 time=0
EXTRACT: note_on channel=9 note=39 velocity=0 time=0.009592333333333333
EXTRACT: note_on channel=9 note=35 velocity=0 time=0
EXTRACT: note_on channel=9 note=40 velocity=0 time=0.0023980833333333332
EXTRACT: note_on channel=9 note=39 velocity=0 time=0.028776999999999997
EXTRACT: control_change channel=7 control=11 value=58 time=0.026378916666666665
EXTRACT: pitchwheel channel=10 pitch=1200 time=0
EXTRACT: control_change channel=6 control=11 value=58 time=0.0023980833333333332
EXTRACT: pitchwheel channel=10 pitch=980 time=0.009592333333333333
EXTRACT: pitchwheel channel=10 pitch=840 time=0.0047961666666666665
EXTRACT: pitchwheel channel=10 pitch=660 time=0.0047961666666666665
EXTRACT: pitchwheel channel=10 pitch=480 time=0.0023980833333333332
EXTRACT: pitchwheel channel=10 pitch=280 time=0.0047961666666666665
EXTRACT: pitchwheel channel=10 pitch=120 time=0.0023980833333333332
EXTRACT: control_change channel=5 control=11 value=59 time=0.0047961666666666665
EXTRACT: pitchwheel channel=10 pitch=0 time=0.007194249999999999
EXTRACT: control_change channel=4 control=11 value=57 time=0.04076741666666667
EXTRACT: control_change channel=7 control=11 value=64 time=0.009592333333333333
EXTRACT: control_change channel=6 control=11 value=64 time=0.0023980833333333332
EXTRACT: note_on channel=9 note=70 velocity=75 time=0.0023980833333333332
EXTRACT: note_on channel=1 note=27 velocity=118 time=0.0047961666666666665
EXTRACT: note_on channel=10 note=56 velocity=80 time=0
EXTRACT: note_on channel=10 note=68 velocity=110 time=0
EXTRACT: note_on channel=9 note=46 velocity=62 time=0.007194249999999999
EXTRACT: note_on channel=10 note=70 velocity=0 time=0.007194249999999999
EXTRACT: note_on channel=10 note=58 velocity=0 time=0
EXTRACT: note_on channel=9 note=70 velocity=0 time=0.023980833333333333
EXTRACT: control_change channel=5 control=11 value=57 time=0.0047961666666666665
EXTRACT: note_on channel=9 note=46 velocity=0 time=0.021582749999999998
EXTRACT: note_on channel=9 note=70 velocity=67 time=0.04556358333333333
EXTRACT: note_on channel=9 note=42 velocity=111 time=0.007194249999999999
EXTRACT: note_on channel=9 note=70 velocity=0 time=0.050359749999999995
EXTRACT: note_on channel=9 note=42 velocity=0 time=0.007194249999999999
EXTRACT: note_on channel=10 note=56 velocity=0 time=0
EXTRACT: note_on channel=10 note=68 velocity=0 time=0
EXTRACT: note_on channel=1 note=27 velocity=0 time=0.035971249999999996
EXTRACT: control_change channel=7 control=11 value=68 time=0.007194249999999999
EXTRACT: control_change channel=6 control=11 value=68 time=0.0023980833333333332
EXTRACT: note_on channel=5 note=80 velocity=0 time=0.0023980833333333332
EXTRACT: note_on channel=5 note=82 velocity=115 time=0
EXTRACT: note_on channel=9 note=70 velocity=103 time=0.0047961666666666665
EXTRACT: note_on channel=5 note=65 velocity=0 time=0.0023980833333333332
EXTRACT: note_on channel=5 note=67 velocity=108 time=0
EXTRACT: note_on channel=9 note=35 velocity=97 time=0.0047961666666666665
EXTRACT: control_change channel=5 control=11 value=59 time=0.0047961666666666665
EXTRACT: control_change channel=5 control=11 value=61 time=0.04556358333333333
EXTRACT: note_on channel=9 note=70 velocity=0 time=0
EXTRACT: note_on channel=9 note=35 velocity=0 time=0.007194249999999999
EXTRACT: control_change channel=7 control=11 value=73 time=0.026378916666666665
EXTRACT: control_change channel=6 control=11 value=73 time=0.0023980833333333332
EXTRACT: control_change channel=5 control=11 value=59 time=0.043165499999999996
EXTRACT: control_change channel=7 control=11 value=77 time=0.026378916666666665
EXTRACT: control_change channel=6 control=11 value=77 time=0.0023980833333333332
EXTRACT: control_change channel=7 control=11 value=82 time=0.035971249999999996
EXTRACT: control_change channel=6 control=11 value=82 time=0.0023980833333333332
EXTRACT: note_on channel=1 note=27 velocity=121 time=0.023980833333333333
EXTRACT: note_on channel=10 note=58 velocity=81 time=0
EXTRACT: note_on channel=10 note=70 velocity=111 time=0
EXTRACT: control_change channel=7 control=11 value=87 time=0.0023980833333333332
EXTRACT: control_change channel=6 control=11 value=87 time=0.0023980833333333332
EXTRACT: note_on channel=9 note=82 velocity=65 time=0.007194249999999999
EXTRACT: note_on channel=9 note=46 velocity=63 time=0.007194249999999999
EXTRACT: control_change channel=7 control=11 value=91 time=0.014388499999999999
EXTRACT: control_change channel=6 control=11 value=91 time=0.0023980833333333332
EXTRACT: control_change channel=7 control=11 value=95 time=0.021582749999999998
EXTRACT: control_change channel=6 control=11 value=95 time=0.0023980833333333332
EXTRACT: note_on channel=9 note=82 velocity=0 time=0.009592333333333333
EXTRACT: note_on channel=9 note=46 velocity=0 time=0.007194249999999999
EXTRACT: control_change channel=7 control=11 value=101 time=0.011990416666666667
EXTRACT: control_change channel=6 control=11 value=101 time=0.0023980833333333332
EXTRACT: control_change channel=7 control=11 value=106 time=0.028776999999999997
EXTRACT: control_change channel=6 control=11 value=106 time=0.0023980833333333332
EXTRACT: note_on channel=9 note=82 velocity=57 time=0.0047961666666666665
EXTRACT: note_on channel=9 note=42 velocity=111 time=0
EXTRACT: control_change channel=7 control=11 value=111 time=0.014388499999999999
EXTRACT: control_change channel=6 control=11 value=111 time=0.0023980833333333332
EXTRACT: control_change channel=7 control=11 value=115 time=0.014388499999999999
EXTRACT: control_change channel=6 control=11 value=115 time=0.0023980833333333332
EXTRACT: note_on channel=9 note=39 velocity=50 time=0.007194249999999999
EXTRACT: note_on channel=10 note=70 velocity=0 time=0.009592333333333333
EXTRACT: note_on channel=10 note=58 velocity=0 time=0
EXTRACT: control_change channel=7 control=11 value=119 time=0.0047961666666666665
EXTRACT: control_change channel=6 control=11 value=119 time=0.0023980833333333332
EXTRACT: note_on channel=9 note=42 velocity=0 time=0
EXTRACT: note_on channel=9 note=82 velocity=0 time=0
EXTRACT: note_on channel=7 note=51 velocity=0 time=0.026378916666666665
EXTRACT: note_on channel=6 note=63 velocity=0 time=0.009592333333333333
EXTRACT: note_on channel=1 note=27 velocity=0 time=0.0023980833333333332
EXTRACT: note_on channel=9 note=39 velocity=0 time=0.0023980833333333332
EXTRACT: note_on channel=5 note=82 velocity=0 time=0.007194249999999999
EXTRACT: note_on channel=5 note=84 velocity=115 time=0
EXTRACT: note_on channel=5 note=67 velocity=0 time=0.007194249999999999
EXTRACT: note_on channel=5 note=68 velocity=108 time=0.0023980833333333332
EXTRACT: note_on channel=9 note=40 velocity=55 time=0
EXTRACT: note_on channel=9 note=37 velocity=91 time=0
EXTRACT: note_on channel=9 note=28 velocity=68 time=0
EXTRACT: note_on channel=9 note=39 velocity=73 time=0
EXTRACT: note_on channel=9 note=82 velocity=71 time=0
EXTRACT: note_on channel=9 note=35 velocity=97 time=0
EXTRACT: note_on channel=10 note=56 velocity=80 time=0
EXTRACT: note_on channel=10 note=68 velocity=110 time=0
EXTRACT: note_on channel=9 note=28 velocity=0 time=0.0023980833333333332
EXTRACT: note_on channel=9 note=37 velocity=0 time=0
EXTRACT: note_on channel=9 note=39 velocity=55 time=0.028776999999999997
EXTRACT: note_on channel=9 note=39 velocity=0 time=0.026378916666666665
EXTRACT: note_on channel=9 note=82 velocity=0 time=0
EXTRACT: note_on channel=9 note=40 velocity=0 time=0
EXTRACT: note_on channel=9 note=35 velocity=0 time=0
EXTRACT: control_change channel=5 control=11 value=61 time=0.0023980833333333332
EXTRACT: note_on channel=9 note=39 velocity=0 time=0.028776999999999997
EXTRACT: control_change channel=5 control=11 value=59 time=0.04076741666666667
EXTRACT: note_on channel=10 note=68 velocity=0 time=0.04556358333333333
EXTRACT: note_on channel=10 note=56 velocity=0 time=0
EXTRACT: note_on channel=7 note=51 velocity=67 time=0.043165499999999996
EXTRACT: note_on channel=1 note=27 velocity=122 time=0.0023980833333333332
EXTRACT: note_on channel=6 note=63 velocity=68 time=0
EXTRACT: note_on channel=9 note=82 velocity=53 time=0.014388499999999999
EXTRACT: note_on channel=9 note=46 velocity=62 time=0.007194249999999999
EXTRACT: note_on channel=9 note=82 velocity=0 time=0.050359749999999995
EXTRACT: control_change channel=7 control=11 value=114 time=0.0023980833333333332
EXTRACT: control_change channel=6 control=11 value=114 time=0.0023980833333333332
EXTRACT: note_on channel=9 note=46 velocity=0 time=0.0023980833333333332
EXTRACT: control_change channel=7 control=11 value=109 time=0.019184666666666666
EXTRACT: control_change channel=6 control=11 value=109 time=0.0023980833333333332
EXTRACT: control_change channel=7 control=11 value=104 time=0.014388499999999999
EXTRACT: control_change channel=6 control=11 value=104 time=0.0023980833333333332
EXTRACT: note_on channel=9 note=82 velocity=50 time=0.014388499999999999
EXTRACT: note_on channel=9 note=42 velocity=113 time=0
EXTRACT: control_change channel=7 control=11 value=98 time=0.014388499999999999
EXTRACT: control_change channel=6 control=11 value=98 time=0.0023980833333333332
EXTRACT: control_change channel=7 control=11 value=94 time=0.028776999999999997
EXTRACT: control_change channel=6 control=11 value=94 time=0.0023980833333333332
EXTRACT: note_on channel=9 note=42 velocity=0 time=0.009592333333333333
EXTRACT: note_on channel=9 note=82 velocity=0 time=0
EXTRACT: note_on channel=7 note=51 velocity=0 time=0.03357316666666667
EXTRACT: control_change channel=7 control=11 value=120 time=0
EXTRACT: note_on channel=1 note=27 velocity=0 time=0.0023980833333333332
EXTRACT: note_on channel=6 note=63 velocity=0 time=0
EXTRACT: control_change channel=6 control=11 value=120 time=0
EXTRACT: note_on channel=7 note=44 velocity=67 time=0.007194249999999999
EXTRACT: note_on channel=5 note=84 velocity=0 time=0.0023980833333333332
EXTRACT: note_on channel=6 note=56 velocity=66 time=0
EXTRACT: note_on channel=4 note=70 velocity=0 time=0.0047961666666666665
EXTRACT: note_on channel=4 note=67 velocity=0 time=0
EXTRACT: note_on channel=4 note=63 velocity=0 time=0
EXTRACT: note_on channel=4 note=55 velocity=0 time=0
EXTRACT: note_on channel=4 note=51 velocity=97 time=0
EXTRACT: note_on channel=4 note=68 velocity=107 time=0
EXTRACT: note_on channel=4 note=60 velocity=103 time=0
EXTRACT: note_on channel=4 note=63 velocity=105 time=0
EXTRACT: note_on channel=9 note=70 velocity=103 time=0
EXTRACT: note_on channel=5 note=68 velocity=0 time=0.0047961666666666665
EXTRACT: control_change channel=5 control=11 value=57 time=0
EXTRACT: note_on channel=5 note=80 velocity=117 time=0
EXTRACT: note_on channel=9 note=35 velocity=97 time=0
EXTRACT: note_on channel=10 note=75 velocity=111 time=0
EXTRACT: note_on channel=10 note=63 velocity=81 time=0
EXTRACT: control_change channel=7 control=11 value=116 time=0.04556358333333333
EXTRACT: control_change channel=6 control=11 value=116 time=0.0023980833333333332
EXTRACT: note_on channel=9 note=70 velocity=0 time=0
EXTRACT: note_on channel=9 note=35 velocity=0 time=0.009592333333333333
EXTRACT: control_change channel=4 control=11 value=59 time=0.007194249999999999
EXTRACT: control_change channel=5 control=11 value=59 time=0.0047961666666666665
EXTRACT: control_change channel=7 control=11 value=110 time=0.014388499999999999
EXTRACT: control_change channel=6 control=11 value=110 time=0.0023980833333333332
EXTRACT: control_change channel=7 control=11 value=104 time=0.028776999999999997
EXTRACT: control_change channel=6 control=11 value=104 time=0.0023980833333333332
EXTRACT: control_change channel=7 control=11 value=100 time=0.028776999999999997
EXTRACT: control_change channel=6 control=11 value=100 time=0.0023980833333333332
EXTRACT: note_on channel=10 note=63 velocity=0 time=0.04556358333333333
EXTRACT: note_on channel=10 note=75 velocity=0 time=0
EXTRACT: control_change channel=7 control=11 value=96 time=0.007194249999999999
EXTRACT: control_change channel=6 control=11 value=96 time=0.0023980833333333332
EXTRACT: control_change channel=4 control=11 value=61 time=0.0023980833333333332
EXTRACT: control_change channel=5 control=11 value=61 time=0.0023980833333333332
EXTRACT: note_on channel=7 note=44 velocity=0 time=0
EXTRACT: note_on channel=6 note=56 velocity=0 time=0.0023980833333333332
EXTRACT: note_on channel=7 note=44 velocity=62 time=0.0047961666666666665
EXTRACT: note_on channel=1 note=32 velocity=126 time=0.0023980833333333332
EXTRACT: note_on channel=6 note=56 velocity=59 time=0
EXTRACT: note_on channel=9 note=70 velocity=77 time=0.007194249999999999
EXTRACT: control_change channel=7 control=11 value=117 time=0.007194249999999999
EXTRACT: control_change channel=6 control=11 value=117 time=0.0023980833333333332
EXTRACT: note_on channel=9 note=46 velocity=61 time=0.0047961666666666665
EXTRACT: control_change channel=7 control=11 value=108 time=0.007194249999999999
EXTRACT: control_change channel=6 control=11 value=108 time=0.0023980833333333332
EXTRACT: control_change channel=7 control=11 value=98 time=0.014388499999999999
EXTRACT: control_change channel=6 control=11 value=98 time=0.0023980833333333332
EXTRACT: control_change channel=7 control=11 value=91 time=0.011990416666666667
EXTRACT: control_change channel=6 control=11 value=91 time=0.0023980833333333332
EXTRACT: note_on channel=9 note=70 velocity=0 time=0.0023980833333333332
EXTRACT: control_change channel=7 control=11 value=84 time=0.011990416666666667
EXTRACT: control_change channel=6 control=11 value=84 time=0.0023980833333333332
EXTRACT: note_on channel=9 note=46 velocity=0 time=0
EXTRACT: control_change channel=7 control=11 value=76 time=0.011990416666666667
EXTRACT: control_change channel=6 control=11 value=76 time=0.0023980833333333332
EXTRACT: control_change channel=7 control=11 value=70 time=0.014388499999999999
EXTRACT: control_change channel=6 control=11 value=70 time=0.0023980833333333332
EXTRACT: control_change channel=7 control=11 value=66 time=0.011990416666666667
EXTRACT: control_change channel=6 control=11 value=66 time=0.0023980833333333332
EXTRACT: note_on channel=9 note=70 velocity=67 time=0
EXTRACT: note_on channel=9 note=42 velocity=109 time=0.007194249999999999
EXTRACT: control_change channel=7 control=11 value=60 time=0.007194249999999999
EXTRACT: control_change channel=6 control=11 value=60 time=0.0023980833333333332
EXTRACT: control_change channel=7 control=11 value=55 time=0.028776999999999997
EXTRACT: control_change channel=6 control=11 value=55 time=0.0023980833333333332
EXTRACT: note_on channel=9 note=70 velocity=0 time=0.009592333333333333
EXTRACT: control_change channel=7 control=11 value=51 time=0.0023980833333333332
EXTRACT: control_change channel=6 control=11 value=51 time=0.0023980833333333332
EXTRACT: note_on channel=9 note=42 velocity=0 time=0.0023980833333333332
EXTRACT: control_change channel=7 control=11 value=47 time=0.019184666666666666
EXTRACT: control_change channel=6 control=11 value=47 time=0.0023980833333333332
EXTRACT: note_on channel=1 note=32 velocity=0 time=0.014388499999999999
EXTRACT: note_on channel=9 note=70 velocity=108 time=0.016786583333333334
EXTRACT: pitchwheel channel=10 pitch=4440 time=0.0023980833333333332
EXTRACT: note_on channel=9 note=37 velocity=91 time=0.0047961666666666665
EXTRACT: note_on channel=9 note=28 velocity=68 time=0
EXTRACT: note_on channel=9 note=39 velocity=67 time=0
EXTRACT: note_on channel=9 note=35 velocity=97 time=0
EXTRACT: note_on channel=9 note=28 velocity=0 time=0.0023980833333333332
EXTRACT: note_on channel=9 note=37 velocity=0 time=0
EXTRACT: note_on channel=9 note=40 velocity=64 time=0
EXTRACT: note_on channel=10 note=70 velocity=110 time=0
EXTRACT: note_on channel=10 note=58 velocity=80 time=0
EXTRACT: control_change channel=4 control=11 value=59 time=0.007194249999999999
EXTRACT: control_change channel=5 control=11 value=59 time=0.0023980833333333332
EXTRACT: note_on channel=9 note=39 velocity=50 time=0.016786583333333334
EXTRACT: note_on channel=9 note=70 velocity=0 time=0.019184666666666666
EXTRACT: note_on channel=9 note=39 velocity=0 time=0.007194249999999999
EXTRACT: note_on channel=9 note=35 velocity=0 time=0
EXTRACT: note_on channel=9 note=40 velocity=0 time=0.0047961666666666665
EXTRACT: control_change channel=7 control=11 value=43 time=0.007194249999999999
EXTRACT: control_change channel=6 control=11 value=43 time=0.0023980833333333332
EXTRACT: note_on channel=9 note=39 velocity=0 time=0.016786583333333334
EXTRACT: pitchwheel channel=10 pitch=4680 time=0.062350166666666665
EXTRACT: pitchwheel channel=10 pitch=4520 time=0.009592333333333333
EXTRACT: pitchwheel channel=10 pitch=4320 time=0.011990416666666667
EXTRACT: pitchwheel channel=10 pitch=4120 time=0.007194249999999999
EXTRACT: pitchwheel channel=10 pitch=3980 time=0.0023980833333333332
EXTRACT: pitchwheel channel=10 pitch=3740 time=0.0047961666666666665
EXTRACT: pitchwheel channel=10 pitch=3480 time=0.0047961666666666665
EXTRACT: pitchwheel channel=10 pitch=3200 time=0.0023980833333333332
EXTRACT: control_change channel=4 control=11 value=57 time=0.0047961666666666665
EXTRACT: pitchwheel channel=10 pitch=2940 time=0
EXTRACT: control_change channel=5 control=11 value=57 time=0.0047961666666666665
EXTRACT: pitchwheel channel=10 pitch=2700 time=0
EXTRACT: pitchwheel channel=10 pitch=2440 time=0.0023980833333333332
EXTRACT: pitchwheel channel=10 pitch=2200 time=0.0047961666666666665
EXTRACT: pitchwheel channel=10 pitch=1960 time=0
EXTRACT: note_on channel=9 note=70 velocity=75 time=0.0023980833333333332
EXTRACT: pitchwheel channel=10 pitch=1800 time=0.0047961666666666665
EXTRACT: pitchwheel channel=10 pitch=1660 time=0
EXTRACT: note_on channel=1 note=32 velocity=118 time=0.0023980833333333332
EXTRACT: control_change channel=7 control=11 value=47 time=0.0047961666666666665
EXTRACT: control_change channel=6 control=11 value=47 time=0.0023980833333333332
EXTRACT: pitchwheel channel=10 pitch=1480 time=0.0023980833333333332
EXTRACT: note_on channel=9 note=46 velocity=59 time=0.011990416666666667
EXTRACT: pitchwheel channel=10 pitch=1360 time=0.014388499999999999
EXTRACT: control_change channel=7 control=11 value=52 time=0.007194249999999999
EXTRACT: control_change channel=6 control=11 value=52 time=0.0023980833333333332
EXTRACT: note_on channel=9 note=70 velocity=0 time=0.0047961666666666665
EXTRACT: note_on channel=9 note=46 velocity=0 time=0.028776999999999997
EXTRACT: control_change channel=7 control=11 value=57 time=0.0023980833333333332
EXTRACT: control_change channel=6 control=11 value=57 time=0.0023980833333333332
EXTRACT: note_on channel=9 note=70 velocity=67 time=0.03836933333333333
EXTRACT: pitchwheel channel=10 pitch=1200 time=0.0047961666666666665
EXTRACT: note_on channel=9 note=42 velocity=108 time=0.0023980833333333332
EXTRACT: pitchwheel channel=10 pitch=980 time=0.009592333333333333
EXTRACT: pitchwheel channel=10 pitch=840 time=0.0023980833333333332
EXTRACT: pitchwheel channel=10 pitch=660 time=0.0047961666666666665
EXTRACT: pitchwheel channel=10 pitch=480 time=0.0047961666666666665
EXTRACT: pitchwheel channel=10 pitch=280 time=0.0023980833333333332
EXTRACT: pitchwheel channel=10 pitch=120 time=0.0047961666666666665
EXTRACT: pitchwheel channel=10 pitch=0 time=0.011990416666666667
EXTRACT: note_on channel=9 note=70 velocity=0 time=0.009592333333333333
EXTRACT: note_on channel=9 note=42 velocity=0 time=0.007194249999999999
EXTRACT: control_change channel=7 control=11 value=61 time=0.028776999999999997
EXTRACT: control_change channel=6 control=11 value=61 time=0.0023980833333333332
EXTRACT: control_change channel=7 control=11 value=64 time=0.0047961666666666665
EXTRACT: note_on channel=1 note=32 velocity=0 time=0.0023980833333333332
EXTRACT: control_change channel=6 control=11 value=64 time=0
EXTRACT: note_on channel=9 note=70 velocity=108 time=0.014388499999999999
EXTRACT: note_on channel=10 note=68 velocity=110 time=0
EXTRACT: note_on channel=10 note=56 velocity=80 time=0
EXTRACT: note_on channel=9 note=35 velocity=97 time=0.0023980833333333332
EXTRACT: note_on channel=10 note=58 velocity=0 time=0.011990416666666667
EXTRACT: note_on channel=10 note=70 velocity=0 time=0
EXTRACT: control_change channel=7 control=11 value=66 time=0.019184666666666666
EXTRACT: control_change channel=6 control=11 value=66 time=0.0023980833333333332
EXTRACT: note_on channel=9 note=70 velocity=0 time=0.016786583333333334
EXTRACT: note_on channel=9 note=35 velocity=0 time=0.007194249999999999
EXTRACT: note_on channel=10 note=68 velocity=0 time=0.11510799999999999
EXTRACT: note_on channel=10 note=56 velocity=0 time=0
EXTRACT: note_on channel=1 note=32 velocity=121 time=0.047961666666666666
EXTRACT: control_change channel=7 control=11 value=70 time=0.0047961666666666665
EXTRACT: control_change channel=6 control=11 value=70 time=0.0023980833333333332
EXTRACT: note_on channel=9 note=70 velocity=76 time=0
EXTRACT: note_on channel=9 note=46 velocity=61 time=0.014388499999999999
EXTRACT: note_on channel=9 note=70 velocity=0 time=0.043165499999999996
EXTRACT: note_on channel=9 note=46 velocity=0 time=0.014388499999999999
EXTRACT: control_change channel=7 control=11 value=74 time=0.028776999999999997
EXTRACT: control_change channel=6 control=11 value=74 time=0.0023980833333333332
EXTRACT: note_on channel=9 note=70 velocity=67 time=0.014388499999999999
EXTRACT: note_on channel=9 note=42 velocity=108 time=0.007194249999999999
EXTRACT: control_change channel=7 control=11 value=78 time=0.03836933333333333
EXTRACT: control_change channel=6 control=11 value=78 time=0.0023980833333333332
EXTRACT: note_on channel=9 note=70 velocity=0 time=0.009592333333333333
EXTRACT: note_on channel=9 note=42 velocity=0 time=0.007194249999999999
EXTRACT: control_change channel=7 control=11 value=82 time=0.019184666666666666
EXTRACT: control_change channel=6 control=11 value=82 time=0.0023980833333333332
EXTRACT: note_on channel=1 note=32 velocity=0 time=0.014388499999999999
EXTRACT: control_change channel=7 control=11 value=87 time=0
EXTRACT: note_on channel=10 note=68 velocity=111 time=0
EXTRACT: note_on channel=10 note=56 velocity=81 time=0
EXTRACT: control_change channel=6 control=11 value=87 time=0.0023980833333333332
EXTRACT: note_on channel=9 note=70 velocity=107 time=0.0047961666666666665
EXTRACT: note_on channel=9 note=40 velocity=54 time=0.009592333333333333
EXTRACT: note_on channel=9 note=37 velocity=91 time=0
EXTRACT: note_on channel=9 note=28 velocity=68 time=0
EXTRACT: note_on channel=9 note=39 velocity=72 time=0
EXTRACT: note_on channel=9 note=35 velocity=97 time=0
EXTRACT: note_on channel=9 note=28 velocity=0 time=0.0023980833333333332
EXTRACT: note_on channel=9 note=37 velocity=0 time=0
EXTRACT: control_change channel=7 control=11 value=93 time=0.026378916666666665
EXTRACT: control_change channel=6 control=11 value=93 time=0.0023980833333333332
EXTRACT: note_on channel=9 note=39 velocity=55 time=0
EXTRACT: note_on channel=9 note=70 velocity=0 time=0.016786583333333334
EXTRACT: note_on channel=9 note=35 velocity=0 time=0.009592333333333333
EXTRACT: note_on channel=9 note=40 velocity=0 time=0
EXTRACT: note_on channel=9 note=39 velocity=0 time=0
EXTRACT: control_change channel=7 control=11 value=98 time=0.0023980833333333332
EXTRACT: control_change channel=6 control=11 value=98 time=0.0023980833333333332
EXTRACT: note_on channel=9 note=39 velocity=0 time=0.026378916666666665
EXTRACT: control_change channel=7 control=11 value=103 time=0.0023980833333333332
EXTRACT: control_change channel=6 control=11 value=103 time=0.0023980833333333332
EXTRACT: control_change channel=7 control=11 value=108 time=0.021582749999999998
EXTRACT: control_change channel=6 control=11 value=108 time=0.0023980833333333332
EXTRACT: control_change channel=7 control=11 value=113 time=0.021582749999999998
EXTRACT: control_change channel=6 control=11 value=113 time=0.0023980833333333332
EXTRACT: control_change channel=7 control=11 value=117 time=0.011990416666666667
EXTRACT: control_change channel=6 control=11 value=117 time=0.0023980833333333332
EXTRACT: note_on channel=10 note=56 velocity=0 time=0.0047961666666666665
EXTRACT: note_on channel=10 note=68 velocity=0 time=0
EXTRACT: note_on channel=7 note=44 velocity=0 time=0.03836933333333333
EXTRACT: note_on channel=6 note=56 velocity=0 time=0.009592333333333333
EXTRACT: note_on channel=1 note=32 velocity=121 time=0.009592333333333333
EXTRACT: note_on channel=9 note=70 velocity=73 time=0.007194249999999999
EXTRACT: note_on channel=9 note=46 velocity=61 time=0
EXTRACT: note_on channel=10 note=75 velocity=113 time=0
EXTRACT: note_on channel=10 note=63 velocity=82 time=0
EXTRACT: note_on channel=9 note=70 velocity=0 time=0.04076741666666667
EXTRACT: note_on channel=9 note=46 velocity=0 time=0.016786583333333334
EXTRACT: note_on channel=9 note=70 velocity=67 time=0.043165499999999996
EXTRACT: note_on channel=9 note=42 velocity=109 time=0.007194249999999999
EXTRACT: note_on channel=9 note=70 velocity=0 time=0.050359749999999995
EXTRACT: note_on channel=9 note=42 velocity=0 time=0.007194249999999999
EXTRACT: note_on channel=10 note=63 velocity=0 time=0.021582749999999998
EXTRACT: note_on channel=10 note=75 velocity=0 time=0
EXTRACT: note_on channel=1 note=32 velocity=0 time=0.014388499999999999
EXTRACT: note_on channel=7 note=48 velocity=63 time=0.007194249999999999
EXTRACT: note_on channel=6 note=60 velocity=63 time=0.0023980833333333332
EXTRACT: note_on channel=4 note=63 velocity=0 time=0.0047961666666666665
EXTRACT: note_on channel=4 note=51 velocity=0 time=0
EXTRACT: note_on channel=4 note=68 velocity=0 time=0
EXTRACT: note_on channel=4 note=60 velocity=0 time=0
EXTRACT: note_on channel=4 note=48 velocity=98 time=0.0023980833333333332
EXTRACT: note_on channel=4 note=63 velocity=104 time=0
EXTRACT: note_on channel=4 note=67 velocity=106 time=0
EXTRACT: note_on channel=4 note=60 velocity=103 time=0
EXTRACT: note_on channel=9 note=70 velocity=108 time=0
EXTRACT: control_change channel=7 control=11 value=117 time=0.0047961666666666665
EXTRACT: note_on channel=5 note=80 velocity=0 time=0.0023980833333333332
EXTRACT: note_on channel=5 note=79 velocity=118 time=0
EXTRACT: control_change channel=6 control=11 value=117 time=0
EXTRACT: note_on channel=9 note=35 velocity=97 time=0
EXTRACT: control_change channel=7 control=11 value=110 time=0.014388499999999999
EXTRACT: control_change channel=6 control=11 value=110 time=0.0023980833333333332
EXTRACT: control_change channel=7 control=11 value=102 time=0.011990416666666667
EXTRACT: control_change channel=6 control=11 value=102 time=0.0023980833333333332
EXTRACT: control_change channel=4 control=11 value=59 time=0.011990416666666667
EXTRACT: control_change channel=7 control=11 value=96 time=0.0023980833333333332
EXTRACT: control_change channel=6 control=11 value=96 time=0.0023980833333333332
EXTRACT: note_on channel=9 note=70 velocity=0 time=0.0023980833333333332
EXTRACT: note_on channel=9 note=35 velocity=0 time=0.007194249999999999
EXTRACT: control_change channel=7 control=11 value=90 time=0.0023980833333333332
EXTRACT: control_change channel=5 control=11 value=59 time=0.0023980833333333332
EXTRACT: control_change channel=6 control=11 value=90 time=0
EXTRACT: control_change channel=7 control=11 value=83 time=0.014388499999999999
EXTRACT: control_change channel=6 control=11 value=83 time=0.0023980833333333332
EXTRACT: control_change channel=7 control=11 value=78 time=0.014388499999999999
EXTRACT: control_change channel=6 control=11 value=78 time=0.0023980833333333332
EXTRACT: control_change channel=7 control=11 value=74 time=0.011990416666666667
EXTRACT: control_change channel=6 control=11 value=74 time=0.0023980833333333332
EXTRACT: control_change channel=7 control=11 value=70 time=0.014388499999999999
EXTRACT: control_change channel=6 control=11 value=70 time=0.0023980833333333332
EXTRACT: control_change channel=4 control=11 value=61 time=0.016786583333333334
EXTRACT: control_change channel=7 control=11 value=65 time=0.011990416666666667
EXTRACT: control_change channel=6 control=11 value=65 time=0.0023980833333333332
EXTRACT: control_change channel=7 control=11 value=60 time=0.019184666666666666
EXTRACT: control_change channel=6 control=11 value=60 time=0.0023980833333333332
EXTRACT: control_change channel=5 control=11 value=61 time=0.007194249999999999
EXTRACT: note_on channel=1 note=36 velocity=116 time=0.03357316666666667
EXTRACT: note_on channel=9 note=70 velocity=77 time=0.0047961666666666665
EXTRACT: pitchwheel channel=10 pitch=4440 time=0.009592333333333333
EXTRACT: note_on channel=9 note=46 velocity=61 time=0
EXTRACT: note_on channel=10 note=70 velocity=110 time=0
EXTRACT: note_on channel=10 note=58 velocity=80 time=0
EXTRACT: control_change channel=7 control=11 value=56 time=0.021582749999999998
EXTRACT: control_change channel=6 control=11 value=56 time=0.0023980833333333332
EXTRACT: note_on channel=9 note=70 velocity=0 time=0.016786583333333334
EXTRACT: note_on channel=9 note=46 velocity=0 time=0.016786583333333334
EXTRACT: note_on channel=9 note=70 velocity=67 time=0.043165499999999996
EXTRACT: note_on channel=9 note=42 velocity=113 time=0.007194249999999999
EXTRACT: control_change channel=7 control=11 value=56 time=0.03836933333333333
EXTRACT: control_change channel=6 control=11 value=56 time=0.0023980833333333332
EXTRACT: pitchwheel channel=10 pitch=4680 time=0
EXTRACT: pitchwheel channel=10 pitch=4520 time=0.007194249999999999
EXTRACT: note_on channel=9 note=70 velocity=0 time=0.0023980833333333332
EXTRACT: note_on channel=9 note=42 velocity=0 time=0.007194249999999999
EXTRACT: pitchwheel channel=10 pitch=4320 time=0.0023980833333333332
EXTRACT: pitchwheel channel=10 pitch=4120 time=0.007194249999999999
EXTRACT: pitchwheel channel=10 pitch=3980 time=0.0047961666666666665
EXTRACT: pitchwheel channel=10 pitch=3740 time=0.0023980833333333332
EXTRACT: pitchwheel channel=10 pitch=3480 time=0.0047961666666666665
EXTRACT: pitchwheel channel=10 pitch=3200 time=0.0047961666666666665
EXTRACT: pitchwheel channel=10 pitch=2940 time=0.0023980833333333332
EXTRACT: pitchwheel channel=10 pitch=2700 time=0.0047961666666666665
EXTRACT: note_on channel=1 note=36 velocity=0 time=0.0047961666666666665
EXTRACT: pitchwheel channel=10 pitch=2440 time=0
EXTRACT: pitchwheel channel=10 pitch=2200 time=0.0023980833333333332
EXTRACT: pitchwheel channel=10 pitch=1960 time=0
EXTRACT: pitchwheel channel=10 pitch=1800 time=0.007194249999999999
EXTRACT: pitchwheel channel=10 pitch=1660 time=0
EXTRACT: note_on channel=9 note=70 velocity=103 time=0.0047961666666666665
EXTRACT: control_change channel=7 control=11 value=60 time=0.007194249999999999
EXTRACT: note_on channel=9 note=37 velocity=91 time=0
EXTRACT: note_on channel=9 note=28 velocity=68 time=0
EXTRACT: note_on channel=9 note=39 velocity=67 time=0
EXTRACT: note_on channel=9 note=35 velocity=97 time=0
EXTRACT: pitchwheel channel=10 pitch=1480 time=0
EXTRACT: control_change channel=6 control=11 value=60 time=0.0023980833333333332
EXTRACT: note_on channel=9 note=28 velocity=0 time=0
EXTRACT: note_on channel=9 note=37 velocity=0 time=0
EXTRACT: note_on channel=9 note=40 velocity=65 time=0.0023980833333333332
EXTRACT: pitchwheel channel=10 pitch=1360 time=0.023980833333333333
EXTRACT: control_change channel=5 control=11 value=59 time=0.0023980833333333332
EXTRACT: note_on channel=9 note=39 velocity=50 time=0
EXTRACT: control_change channel=7 control=11 value=65 time=0.014388499999999999
EXTRACT: control_change channel=6 control=11 value=65 time=0.0023980833333333332
EXTRACT: note_on channel=9 note=70 velocity=0 time=0.0023980833333333332
EXTRACT: note_on channel=9 note=39 velocity=0 time=0.007194249999999999
EXTRACT: note_on channel=9 note=35 velocity=0 time=0
EXTRACT: control_change channel=4 control=11 value=59 time=0.0023980833333333332
EXTRACT: note_on channel=9 note=40 velocity=0 time=0.0023980833333333332
EXTRACT: note_on channel=9 note=39 velocity=0 time=0.026378916666666665
EXTRACT: control_change channel=7 control=11 value=69 time=0.028776999999999997
EXTRACT: pitchwheel channel=10 pitch=1200 time=0
EXTRACT: control_change channel=6 control=11 value=69 time=0.0023980833333333332
EXTRACT: pitchwheel channel=10 pitch=980 time=0.009592333333333333
EXTRACT: pitchwheel channel=10 pitch=840 time=0.0047961666666666665
EXTRACT: pitchwheel channel=10 pitch=660 time=0.0023980833333333332
EXTRACT: pitchwheel channel=10 pitch=480 time=0.0047961666666666665
EXTRACT: pitchwheel channel=10 pitch=280 time=0.0047961666666666665
EXTRACT: pitchwheel channel=10 pitch=120 time=0.0023980833333333332
EXTRACT: pitchwheel channel=10 pitch=0 time=0.011990416666666667
EXTRACT: control_change channel=5 control=11 value=57 time=0.043165499999999996
EXTRACT: note_on channel=9 note=70 velocity=75 time=0.011990416666666667
EXTRACT: note_on channel=1 note=36 velocity=115 time=0.0047961666666666665
EXTRACT: control_change channel=4 control=11 value=57 time=0.009592333333333333
EXTRACT: note_on channel=10 note=68 velocity=110 time=0
EXTRACT: note_on channel=10 note=56 velocity=80 time=0
EXTRACT: note_on channel=9 note=46 velocity=62 time=0.007194249999999999
EXTRACT: note_on channel=10 note=58 velocity=0 time=0.007194249999999999
EXTRACT: note_on channel=10 note=70 velocity=0 time=0
EXTRACT: control_change channel=7 control=11 value=75 time=0.014388499999999999
EXTRACT: control_change channel=6 control=11 value=75 time=0.0023980833333333332
EXTRACT: note_on channel=9 note=70 velocity=0 time=0.007194249999999999
EXTRACT: note_on channel=9 note=46 velocity=0 time=0.026378916666666665
EXTRACT: note_on channel=9 note=70 velocity=67 time=0.04556358333333333
EXTRACT: note_on channel=9 note=42 velocity=111 time=0.007194249999999999
EXTRACT: note_on channel=9 note=70 velocity=0 time=0.050359749999999995
EXTRACT: note_on channel=9 note=42 velocity=0 time=0.007194249999999999
EXTRACT: note_on channel=10 note=68 velocity=0 time=0
EXTRACT: note_on channel=10 note=56 velocity=0 time=0
EXTRACT: note_on channel=1 note=36 velocity=0 time=0.035971249999999996
EXTRACT: note_on channel=9 note=70 velocity=103 time=0.014388499999999999
EXTRACT: note_on channel=9 note=35 velocity=97 time=0.009592333333333333
EXTRACT: note_on channel=9 note=70 velocity=0 time=0.047961666666666666
EXTRACT: note_on channel=9 note=35 velocity=0 time=0.009592333333333333
EXTRACT: control_change channel=7 control=11 value=81 time=0.026378916666666665
EXTRACT: control_change channel=6 control=11 value=81 time=0.0023980833333333332
EXTRACT: control_change channel=7 control=11 value=86 time=0.07434058333333333
EXTRACT: control_change channel=6 control=11 value=86 time=0.0023980833333333332
EXTRACT: control_change channel=7 control=11 value=91 time=0.04556358333333333
EXTRACT: control_change channel=6 control=11 value=91 time=0.0023980833333333332
EXTRACT: note_on channel=1 note=36 velocity=117 time=0.007194249999999999
EXTRACT: note_on channel=10 note=70 velocity=111 time=0
EXTRACT: note_on channel=10 note=58 velocity=81 time=0
EXTRACT: note_on channel=9 note=82 velocity=65 time=0.011990416666666667
EXTRACT: note_on channel=9 note=46 velocity=63 time=0.009592333333333333
EXTRACT: control_change channel=7 control=11 value=96 time=0.014388499999999999
EXTRACT: control_change channel=6 control=11 value=96 time=0.0023980833333333332
EXTRACT: control_change channel=7 control=11 value=100 time=0.028776999999999997
EXTRACT: control_change channel=6 control=11 value=100 time=0.0023980833333333332
EXTRACT: note_on channel=9 note=82 velocity=0 time=0
EXTRACT: note_on channel=9 note=46 velocity=0 time=0.009592333333333333
EXTRACT: control_change channel=7 control=11 value=105 time=0.019184666666666666
EXTRACT: control_change channel=6 control=11 value=105 time=0.0023980833333333332
EXTRACT: control_change channel=7 control=11 value=110 time=0.028776999999999997
EXTRACT: note_on channel=9 note=82 velocity=57 time=0
EXTRACT: note_on channel=9 note=42 velocity=111 time=0
EXTRACT: control_change channel=6 control=11 value=110 time=0.0023980833333333332
EXTRACT: control_change channel=7 control=11 value=115 time=0.019184666666666666
EXTRACT: control_change channel=6 control=11 value=115 time=0.0023980833333333332
EXTRACT: note_on channel=9 note=39 velocity=50 time=0.014388499999999999
EXTRACT: note_on channel=10 note=58 velocity=0 time=0.009592333333333333
EXTRACT: note_on channel=10 note=70 velocity=0 time=0
EXTRACT: control_change channel=7 control=11 value=119 time=0.0047961666666666665
EXTRACT: control_change channel=6 control=11 value=119 time=0.0023980833333333332
EXTRACT: note_on channel=9 note=42 velocity=0 time=0.0023980833333333332
EXTRACT: note_on channel=9 note=82 velocity=0 time=0
EXTRACT: note_on channel=7 note=48 velocity=0 time=0.026378916666666665
EXTRACT: note_on channel=1 note=36 velocity=0 time=0.009592333333333333
EXTRACT: note_on channel=6 note=60 velocity=0 time=0
EXTRACT: note_on channel=9 note=39 velocity=0 time=0.0023980833333333332
EXTRACT: note_on channel=9 note=40 velocity=56 time=0
EXTRACT: note_on channel=9 note=37 velocity=91 time=0
EXTRACT: note_on channel=9 note=28 velocity=68 time=0
EXTRACT: note_on channel=9 note=39 velocity=73 time=0
EXTRACT: note_on channel=9 note=82 velocity=71 time=0
EXTRACT: note_on channel=9 note=35 velocity=97 time=0
EXTRACT: note_on channel=10 note=68 velocity=110 time=0
EXTRACT: note_on channel=10 note=56 velocity=80 time=0
EXTRACT: note_on channel=9 note=28 velocity=0 time=0.0023980833333333332
EXTRACT: note_on channel=9 note=37 velocity=0 time=0
EXTRACT: note_on channel=9 note=39 velocity=55 time=0.028776999999999997
EXTRACT: note_on channel=9 note=39 velocity=0 time=0.026378916666666665
EXTRACT: note_on channel=9 note=82 velocity=0 time=0
EXTRACT: note_on channel=9 note=40 velocity=0 time=0
EXTRACT: note_on channel=9 note=35 velocity=0 time=0
EXTRACT: note_on channel=9 note=39 velocity=0 time=0.031175083333333332
EXTRACT: note_on channel=10 note=56 velocity=0 time=0.08633099999999999
EXTRACT: note_on channel=10 note=68 velocity=0 time=0
EXTRACT: note_on channel=7 note=48 velocity=67 time=0.043165499999999996
EXTRACT: note_on channel=1 note=36 velocity=112 time=0.0023980833333333332
EXTRACT: note_on channel=6 note=60 velocity=66 time=0
EXTRACT: note_on channel=9 note=82 velocity=53 time=0.014388499999999999
EXTRACT: note_on channel=9 note=46 velocity=62 time=0.007194249999999999
EXTRACT: note_on channel=9 note=82 velocity=0 time=0.050359749999999995
EXTRACT: note_on channel=9 note=46 velocity=0 time=0.007194249999999999
EXTRACT: control_change channel=7 control=11 value=114 time=0.0023980833333333332
EXTRACT: control_change channel=6 control=11 value=114 time=0.0023980833333333332
EXTRACT: control_change channel=7 control=11 value=108 time=0.028776999999999997
EXTRACT: control_change channel=6 control=11 value=108 time=0.0023980833333333332
EXTRACT: note_on channel=9 note=82 velocity=50 time=0.014388499999999999
EXTRACT: note_on channel=9 note=42 velocity=113 time=0
EXTRACT: control_change channel=7 control=11 value=104 time=0.014388499999999999
EXTRACT: control_change channel=6 control=11 value=104 time=0.0023980833333333332
EXTRACT: note_on channel=9 note=42 velocity=0 time=0.04076741666666667
EXTRACT: note_on channel=9 note=82 velocity=0 time=0
EXTRACT: control_change channel=7 control=11 value=100 time=0.0047961666666666665
EXTRACT: control_change channel=6 control=11 value=100 time=0.0023980833333333332
EXTRACT: note_on channel=7 note=48 velocity=0 time=0.028776999999999997
EXTRACT: note_on channel=1 note=36 velocity=0 time=0.0023980833333333332
EXTRACT: note_on channel=6 note=60 velocity=0 time=0
EXTRACT: note_on channel=7 note=49 velocity=68 time=0.0047961666666666665
EXTRACT: note_on channel=6 note=61 velocity=68 time=0.0023980833333333332
EXTRACT: note_on channel=4 note=68 velocity=107 time=0.0023980833333333332
EXTRACT: note_on channel=4 note=65 velocity=105 time=0
EXTRACT: note_on channel=4 note=61 velocity=103 time=0
EXTRACT: note_on channel=4 note=49 velocity=97 time=0
EXTRACT: note_on channel=4 note=60 velocity=0 time=0.0047961666666666665
EXTRACT: note_on channel=4 note=67 velocity=0 time=0
EXTRACT: note_on channel=4 note=48 velocity=0 time=0
EXTRACT: note_on channel=4 note=63 velocity=0 time=0
EXTRACT: note_on channel=5 note=77 velocity=112 time=0
EXTRACT: note_on channel=9 note=70 velocity=103 time=0
EXTRACT: note_on channel=5 note=79 velocity=0 time=0
EXTRACT: note_on channel=9 note=35 velocity=97 time=0
EXTRACT: note_on channel=10 note=75 velocity=111 time=0
EXTRACT: note_on channel=10 note=63 velocity=81 time=0
EXTRACT: control_change channel=7 control=11 value=117 time=0.03836933333333333
EXTRACT: control_change channel=6 control=11 value=117 time=0.0023980833333333332
EXTRACT: note_on channel=9 note=70 velocity=0 time=0.009592333333333333
EXTRACT: control_change channel=4 control=11 value=59 time=0.0047961666666666665
EXTRACT: control_change channel=5 control=11 value=59 time=0
EXTRACT: note_on channel=9 note=35 velocity=0 time=0.0023980833333333332
EXTRACT: control_change channel=7 control=11 value=112 time=0.0047961666666666665
EXTRACT: control_change channel=6 control=11 value=112 time=0.0023980833333333332
EXTRACT: control_change channel=7 control=11 value=106 time=0.021582749999999998
EXTRACT: control_change channel=6 control=11 value=106 time=0.0023980833333333332
EXTRACT: control_change channel=7 control=11 value=97 time=0.028776999999999997
EXTRACT: control_change channel=6 control=11 value=97 time=0.0023980833333333332
EXTRACT: control_change channel=7 control=11 value=92 time=0.019184666666666666
EXTRACT: control_change channel=6 control=11 value=92 time=0.0023980833333333332
EXTRACT: control_change channel=7 control=11 value=88 time=0.028776999999999997
EXTRACT: control_change channel=5 control=11 value=61 time=0.0023980833333333332
EXTRACT: control_change channel=6 control=11 value=88 time=0
EXTRACT: control_change channel=4 control=11 value=61 time=0.007194249999999999
EXTRACT: note_on channel=10 note=63 velocity=0 time=0.014388499999999999
EXTRACT: note_on channel=10 note=75 velocity=0 time=0
EXTRACT: note_on channel=7 note=49 velocity=0 time=0.014388499999999999
EXTRACT: note_on channel=6 note=61 velocity=0 time=0.0023980833333333332
EXTRACT: control_change channel=7 control=11 value=120 time=0
EXTRACT: control_change channel=6 control=11 value=120 time=0.0023980833333333332
EXTRACT: note_on channel=7 note=49 velocity=64 time=0.0047961666666666665
EXTRACT: note_on channel=1 note=25 velocity=123 time=0.0023980833333333332
EXTRACT: note_on channel=6 note=61 velocity=59 time=0
EXTRACT: note_on channel=9 note=70 velocity=77 time=0.007194249999999999
EXTRACT: control_change channel=7 control=11 value=115 time=0.014388499999999999
EXTRACT: note_on channel=9 note=46 velocity=61 time=0
EXTRACT: control_change channel=6 control=11 value=115 time=0.0023980833333333332
EXTRACT: control_change channel=7 control=11 value=106 time=0.011990416666666667
EXTRACT: control_change channel=6 control=11 value=106 time=0.0023980833333333332
EXTRACT: control_change channel=7 control=11 value=99 time=0.014388499999999999
EXTRACT: control_change channel=6 control=11 value=99 time=0.0023980833333333332
EXTRACT: note_on channel=9 note=70 velocity=0 time=0.009592333333333333
EXTRACT: control_change channel=7 control=11 value=93 time=0.0023980833333333332
EXTRACT: control_change channel=6 control=11 value=93 time=0.0023980833333333332
EXTRACT: note_on channel=9 note=46 velocity=0 time=0.009592333333333333
EXTRACT: control_change channel=7 control=11 value=86 time=0.0047961666666666665
EXTRACT: control_change channel=6 control=11 value=86 time=0.0023980833333333332
EXTRACT: control_change channel=7 control=11 value=80 time=0.011990416666666667
EXTRACT: control_change channel=6 control=11 value=80 time=0.0023980833333333332
EXTRACT: control_change channel=7 control=11 value=76 time=0.014388499999999999
EXTRACT: control_change channel=6 control=11 value=76 time=0.0023980833333333332
EXTRACT: note_on channel=9 note=70 velocity=67 time=0.007194249999999999
EXTRACT: note_on channel=9 note=42 velocity=109 time=0.007194249999999999
EXTRACT: control_change channel=7 control=11 value=70 time=0.007194249999999999
EXTRACT: control_change channel=6 control=11 value=70 time=0.0023980833333333332
EXTRACT: control_change channel=7 control=11 value=65 time=0.028776999999999997
EXTRACT: control_change channel=6 control=11 value=65 time=0.0023980833333333332
EXTRACT: note_on channel=9 note=70 velocity=0 time=0.009592333333333333
EXTRACT: note_on channel=9 note=42 velocity=0 time=0.007194249999999999
EXTRACT: control_change channel=7 control=11 value=60 time=0.0023980833333333332
EXTRACT: control_change channel=6 control=11 value=60 time=0.0023980833333333332
EXTRACT: note_on channel=1 note=25 velocity=0 time=0.031175083333333332
EXTRACT: note_on channel=9 note=70 velocity=108 time=0.014388499999999999
EXTRACT: pitchwheel channel=10 pitch=4440 time=0.0047961666666666665
EXTRACT: note_on channel=9 note=37 velocity=91 time=0.0047961666666666665
EXTRACT: note_on channel=9 note=28 velocity=68 time=0
EXTRACT: note_on channel=9 note=39 velocity=67 time=0
EXTRACT: note_on channel=9 note=35 velocity=97 time=0
EXTRACT: note_on channel=9 note=28 velocity=0 time=0
EXTRACT: note_on channel=9 note=37 velocity=0 time=0
EXTRACT: note_on channel=9 note=40 velocity=64 time=0
EXTRACT: note_on channel=10 note=70 velocity=110 time=0
EXTRACT: note_on channel=10 note=58 velocity=80 time=0
EXTRACT: control_change channel=4 control=11 value=59 time=0.019184666666666666
EXTRACT: control_change channel=7 control=11 value=56 time=0.007194249999999999
EXTRACT: control_change channel=6 control=11 value=56 time=0.0023980833333333332
EXTRACT: note_on channel=9 note=39 velocity=50 time=0
EXTRACT: note_on channel=9 note=70 velocity=0 time=0.016786583333333334
EXTRACT: control_change channel=5 control=11 value=59 time=0.0047961666666666665
EXTRACT: note_on channel=9 note=39 velocity=0 time=0.0047961666666666665
EXTRACT: note_on channel=9 note=35 velocity=0 time=0
EXTRACT: note_on channel=9 note=40 velocity=0 time=0.0023980833333333332
EXTRACT: note_on channel=9 note=39 velocity=0 time=0.028776999999999997
EXTRACT: pitchwheel channel=10 pitch=4680 time=0.062350166666666665
EXTRACT: control_change channel=7 control=11 value=56 time=0.0023980833333333332
EXTRACT: control_change channel=6 control=11 value=56 time=0.0023980833333333332
EXTRACT: pitchwheel channel=10 pitch=4520 time=0.0023980833333333332
EXTRACT: pitchwheel channel=10 pitch=4320 time=0.011990416666666667
EXTRACT: pitchwheel channel=10 pitch=4120 time=0.009592333333333333
EXTRACT: pitchwheel channel=10 pitch=3980 time=0.0023980833333333332
EXTRACT: pitchwheel channel=10 pitch=3740 time=0.0047961666666666665
EXTRACT: pitchwheel channel=10 pitch=3480 time=0.0023980833333333332
EXTRACT: control_change channel=4 control=11 value=57 time=0.0047961666666666665
EXTRACT: pitchwheel channel=10 pitch=3200 time=0
EXTRACT: pitchwheel channel=10 pitch=2940 time=0.0047961666666666665
EXTRACT: pitchwheel channel=10 pitch=2700 time=0.0023980833333333332
EXTRACT: pitchwheel channel=10 pitch=2440 time=0.0047961666666666665
EXTRACT: pitchwheel channel=10 pitch=2200 time=0.0047961666666666665
EXTRACT: pitchwheel channel=10 pitch=1960 time=0
EXTRACT: note_on channel=9 note=70 velocity=75 time=0.0023980833333333332
EXTRACT: note_on channel=1 note=25 velocity=122 time=0.0047961666666666665
EXTRACT: pitchwheel channel=10 pitch=1800 time=0
EXTRACT: pitchwheel channel=10 pitch=1660 time=0
EXTRACT: control_change channel=5 control=11 value=57 time=0.007194249999999999
EXTRACT: pitchwheel channel=10 pitch=1480 time=0.0047961666666666665
EXTRACT: control_change channel=7 control=11 value=61 time=0.009592333333333333
EXTRACT: control_change channel=6 control=11 value=61 time=0.0023980833333333332
EXTRACT: note_on channel=9 note=46 velocity=59 time=0
EXTRACT: pitchwheel channel=10 pitch=1360 time=0.014388499999999999
EXTRACT: note_on channel=9 note=70 velocity=0 time=0.014388499999999999
EXTRACT: control_change channel=7 control=11 value=65 time=0.016786583333333334
EXTRACT: control_change channel=6 control=11 value=65 time=0.0023980833333333332
EXTRACT: note_on channel=9 note=46 velocity=0 time=0.009592333333333333
EXTRACT: note_on channel=9 note=70 velocity=67 time=0.043165499999999996
EXTRACT: pitchwheel channel=10 pitch=1200 time=0.0047961666666666665
EXTRACT: control_change channel=7 control=11 value=69 time=0.0023980833333333332
EXTRACT: note_on channel=9 note=42 velocity=108 time=0
EXTRACT: control_change channel=6 control=11 value=69 time=0.0023980833333333332
EXTRACT: pitchwheel channel=10 pitch=980 time=0.0047961666666666665
EXTRACT: pitchwheel channel=10 pitch=840 time=0.0047961666666666665
EXTRACT: pitchwheel channel=10 pitch=660 time=0.0047961666666666665
EXTRACT: pitchwheel channel=10 pitch=480 time=0.0023980833333333332
EXTRACT: pitchwheel channel=10 pitch=280 time=0.0047961666666666665
EXTRACT: pitchwheel channel=10 pitch=120 time=0.0047961666666666665
EXTRACT: pitchwheel channel=10 pitch=0 time=0.009592333333333333
EXTRACT: note_on channel=9 note=70 velocity=0 time=0.011990416666666667
EXTRACT: note_on channel=9 note=42 velocity=0 time=0.007194249999999999
EXTRACT: note_on channel=1 note=25 velocity=0 time=0.035971249999999996
EXTRACT: note_on channel=9 note=70 velocity=108 time=0.016786583333333334
EXTRACT: note_on channel=10 note=68 velocity=110 time=0
EXTRACT: note_on channel=10 note=56 velocity=80 time=0
EXTRACT: note_on channel=9 note=35 velocity=97 time=0.0047961666666666665
EXTRACT: note_on channel=10 note=58 velocity=0 time=0.009592333333333333
EXTRACT: note_on channel=10 note=70 velocity=0 time=0
EXTRACT: control_change channel=7 control=11 value=75 time=0.021582749999999998
EXTRACT: control_change channel=6 control=11 value=75 time=0.0023980833333333332
EXTRACT: note_on channel=9 note=70 velocity=0 time=0.016786583333333334
EXTRACT: note_on channel=9 note=35 velocity=0 time=0.007194249999999999
EXTRACT: note_on channel=10 note=68 velocity=0 time=0.11270991666666666
EXTRACT: note_on channel=10 note=56 velocity=0 time=0
EXTRACT: note_on channel=1 note=25 velocity=118 time=0.050359749999999995
EXTRACT: note_on channel=9 note=70 velocity=76 time=0.0047961666666666665
EXTRACT: note_on channel=9 note=46 velocity=61 time=0.016786583333333334
EXTRACT: note_on channel=9 note=70 velocity=0 time=0.04076741666666667
EXTRACT: control_change channel=7 control=11 value=79 time=0.0047961666666666665
EXTRACT: control_change channel=6 control=11 value=79 time=0.0023980833333333332
EXTRACT: note_on channel=9 note=46 velocity=0 time=0.009592333333333333
EXTRACT: note_on channel=9 note=70 velocity=67 time=0.043165499999999996
EXTRACT: note_on channel=9 note=42 velocity=108 time=0.007194249999999999
EXTRACT: control_change channel=7 control=11 value=84 time=0.03836933333333333
EXTRACT: control_change channel=6 control=11 value=84 time=0.0023980833333333332
EXTRACT: note_on channel=9 note=70 velocity=0 time=0.009592333333333333
EXTRACT: note_on channel=9 note=42 velocity=0 time=0.007194249999999999
EXTRACT: control_change channel=7 control=11 value=88 time=0.021582749999999998
EXTRACT: control_change channel=6 control=11 value=88 time=0.0023980833333333332
EXTRACT: note_on channel=1 note=25 velocity=0 time=0.014388499999999999
EXTRACT: note_on channel=10 note=68 velocity=111 time=0
EXTRACT: note_on channel=10 note=56 velocity=81 time=0
EXTRACT: control_change channel=7 control=11 value=92 time=0.007194249999999999
EXTRACT: note_on channel=9 note=70 velocity=107 time=0
EXTRACT: control_change channel=6 control=11 value=92 time=0.0023980833333333332
EXTRACT: note_on channel=9 note=40 velocity=55 time=0.0047961666666666665
EXTRACT: note_on channel=9 note=37 velocity=91 time=0
EXTRACT: note_on channel=9 note=28 velocity=68 time=0
EXTRACT: note_on channel=9 note=39 velocity=72 time=0
EXTRACT: note_on channel=9 note=35 velocity=97 time=0
EXTRACT: note_on channel=9 note=28 velocity=0 time=0.0023980833333333332
EXTRACT: note_on channel=9 note=37 velocity=0 time=0
EXTRACT: control_change channel=7 control=11 value=97 time=0.028776999999999997
EXTRACT: note_on channel=9 note=39 velocity=55 time=0
EXTRACT: control_change channel=6 control=11 value=97 time=0.0023980833333333332
EXTRACT: note_on channel=9 note=70 velocity=0 time=0.016786583333333334
EXTRACT: note_on channel=9 note=35 velocity=0 time=0.007194249999999999
EXTRACT: note_on channel=9 note=40 velocity=0 time=0
EXTRACT: note_on channel=9 note=39 velocity=0 time=0
EXTRACT: control_change channel=7 control=11 value=101 time=0.0047961666666666665
EXTRACT: control_change channel=6 control=11 value=101 time=0.0023980833333333332
EXTRACT: control_change channel=7 control=11 value=105 time=0.021582749999999998
EXTRACT: control_change channel=6 control=11 value=105 time=0.0023980833333333332
EXTRACT: note_on channel=9 note=39 velocity=0 time=0
EXTRACT: control_change channel=7 control=11 value=110 time=0.035971249999999996
EXTRACT: control_change channel=6 control=11 value=110 time=0.0023980833333333332
EXTRACT: control_change channel=7 control=11 value=114 time=0.011990416666666667
EXTRACT: control_change channel=6 control=11 value=114 time=0.0023980833333333332
EXTRACT: note_on channel=10 note=56 velocity=0 time=0.021582749999999998
EXTRACT: note_on channel=10 note=68 velocity=0 time=0
EXTRACT: control_change channel=7 control=11 value=120 time=0.016786583333333334
EXTRACT: control_change channel=6 control=11 value=120 time=0.0023980833333333332
EXTRACT: note_on channel=7 note=49 velocity=0 time=0.023980833333333333
EXTRACT: note_on channel=6 note=61 velocity=0 time=0.009592333333333333
EXTRACT: note_on channel=1 note=25 velocity=120 time=0.0047961666666666665
EXTRACT: note_on channel=9 note=70 velocity=73 time=0.007194249999999999
EXTRACT: note_on channel=9 note=46 velocity=61 time=0
EXTRACT: note_on channel=10 note=75 velocity=113 time=0
EXTRACT: note_on channel=10 note=63 velocity=82 time=0
EXTRACT: note_on channel=9 note=70 velocity=0 time=0.043165499999999996
EXTRACT: note_on channel=9 note=46 velocity=0 time=0.014388499999999999
EXTRACT: note_on channel=9 note=70 velocity=67 time=0.04556358333333333
EXTRACT: note_on channel=9 note=42 velocity=109 time=0.007194249999999999
EXTRACT: note_on channel=9 note=70 velocity=0 time=0.050359749999999995
EXTRACT: note_on channel=9 note=42 velocity=0 time=0.007194249999999999
EXTRACT: note_on channel=10 note=63 velocity=0 time=0.019184666666666666
EXTRACT: note_on channel=10 note=75 velocity=0 time=0
EXTRACT: note_on channel=1 note=25 velocity=0 time=0.016786583333333334
EXTRACT: note_on channel=7 note=51 velocity=66 time=0.007194249999999999
EXTRACT: note_on channel=4 note=68 velocity=0 time=0.0023980833333333332
EXTRACT: note_on channel=4 note=49 velocity=0 time=0
EXTRACT: note_on channel=4 note=65 velocity=0 time=0
EXTRACT: note_on channel=4 note=61 velocity=0 time=0
EXTRACT: note_on channel=6 note=63 velocity=64 time=0
EXTRACT: note_on channel=5 note=79 velocity=113 time=0.0023980833333333332
EXTRACT: note_on channel=4 note=67 velocity=105 time=0.0023980833333333332
EXTRACT: note_on channel=4 note=55 velocity=99 time=0
EXTRACT: note_on channel=4 note=63 velocity=104 time=0
EXTRACT: note_on channel=4 note=70 velocity=109 time=0
EXTRACT: note_on channel=5 note=77 velocity=0 time=0
EXTRACT: note_on channel=9 note=70 velocity=108 time=0
EXTRACT: note_on channel=5 note=63 velocity=105 time=0.0047961666666666665
EXTRACT: note_on channel=9 note=35 velocity=97 time=0.0047961666666666665
EXTRACT: control_change channel=7 control=11 value=116 time=0.0047961666666666665
EXTRACT: control_change channel=6 control=11 value=116 time=0.0023980833333333332
EXTRACT: control_change channel=7 control=11 value=107 time=0.014388499999999999
EXTRACT: control_change channel=6 control=11 value=107 time=0.0023980833333333332
EXTRACT: control_change channel=5 control=11 value=59 time=0.0023980833333333332
EXTRACT: control_change channel=4 control=11 value=59 time=0.007194249999999999
EXTRACT: control_change channel=7 control=11 value=98 time=0.0023980833333333332
EXTRACT: control_change channel=6 control=11 value=98 time=0.0023980833333333332
EXTRACT: note_on channel=9 note=70 velocity=0 time=0.009592333333333333
EXTRACT: control_change channel=7 control=11 value=92 time=0.0047961666666666665
EXTRACT: control_change channel=6 control=11 value=92 time=0.0023980833333333332
EXTRACT: note_on channel=9 note=35 velocity=0 time=0.0023980833333333332
EXTRACT: control_change channel=7 control=11 value=86 time=0.009592333333333333
EXTRACT: control_change channel=6 control=11 value=86 time=0.0023980833333333332
EXTRACT: control_change channel=7 control=11 value=79 time=0.014388499999999999
EXTRACT: control_change channel=6 control=11 value=79 time=0.0023980833333333332
EXTRACT: control_change channel=7 control=11 value=73 time=0.011990416666666667
EXTRACT: control_change channel=6 control=11 value=73 time=0.0023980833333333332
EXTRACT: control_change channel=7 control=11 value=68 time=0.014388499999999999
EXTRACT: control_change channel=6 control=11 value=68 time=0.0023980833333333332
EXTRACT: control_change channel=4 control=11 value=61 time=0.009592333333333333
EXTRACT: control_change channel=7 control=11 value=62 time=0.011990416666666667
EXTRACT: control_change channel=6 control=11 value=62 time=0.0023980833333333332
EXTRACT: control_change channel=7 control=11 value=58 time=0.021582749999999998
EXTRACT: control_change channel=6 control=11 value=58 time=0.0023980833333333332
EXTRACT: control_change channel=5 control=11 value=57 time=0.009592333333333333
EXTRACT: control_change channel=7 control=11 value=52 time=0.019184666666666666
EXTRACT: control_change channel=6 control=11 value=52 time=0.0023980833333333332
EXTRACT: control_change channel=7 control=11 value=47 time=0.019184666666666666
EXTRACT: note_on channel=1 note=27 velocity=126 time=0.0023980833333333332
EXTRACT: control_change channel=6 control=11 value=47 time=0
EXTRACT: note_on channel=9 note=70 velocity=77 time=0.007194249999999999
EXTRACT: pitchwheel channel=10 pitch=4440 time=0.007194249999999999
EXTRACT: note_on channel=9 note=46 velocity=61 time=0
EXTRACT: note_on channel=10 note=70 velocity=110 time=0
EXTRACT: note_on channel=10 note=58 velocity=80 time=0
EXTRACT: note_on channel=9 note=70 velocity=0 time=0.04076741666666667
EXTRACT: note_on channel=9 note=46 velocity=0 time=0.016786583333333334
EXTRACT: note_on channel=9 note=70 velocity=67 time=0.043165499999999996
EXTRACT: note_on channel=9 note=42 velocity=113 time=0.007194249999999999
EXTRACT: control_change channel=7 control=11 value=42 time=0.007194249999999999
EXTRACT: control_change channel=6 control=11 value=42 time=0.0023980833333333332
EXTRACT: pitchwheel channel=10 pitch=4680 time=0.028776999999999997
EXTRACT: pitchwheel channel=10 pitch=4520 time=0.009592333333333333
EXTRACT: note_on channel=9 note=70 velocity=0 time=0.0023980833333333332
EXTRACT: note_on channel=9 note=42 velocity=0 time=0.007194249999999999
EXTRACT: pitchwheel channel=10 pitch=4320 time=0.0023980833333333332
EXTRACT: pitchwheel channel=10 pitch=4120 time=0.007194249999999999
EXTRACT: pitchwheel channel=10 pitch=3980 time=0.0023980833333333332
EXTRACT: pitchwheel channel=10 pitch=3740 time=0.0047961666666666665
EXTRACT: pitchwheel channel=10 pitch=3480 time=0.0047961666666666665
EXTRACT: pitchwheel channel=10 pitch=3200 time=0.0023980833333333332
EXTRACT: pitchwheel channel=10 pitch=2940 time=0.0047961666666666665
EXTRACT: pitchwheel channel=10 pitch=2700 time=0.0047961666666666665
EXTRACT: note_on channel=1 note=27 velocity=0 time=0.0023980833333333332
EXTRACT: pitchwheel channel=10 pitch=2440 time=0
EXTRACT: pitchwheel channel=10 pitch=2200 time=0.0047961666666666665
EXTRACT: pitchwheel channel=10 pitch=1960 time=0
EXTRACT: note_on channel=5 note=79 velocity=0 time=0.007194249999999999
EXTRACT: pitchwheel channel=10 pitch=1800 time=0
EXTRACT: pitchwheel channel=10 pitch=1660 time=0
EXTRACT: note_on channel=5 note=80 velocity=118 time=0.0047961666666666665
EXTRACT: note_on channel=9 note=70 velocity=103 time=0
EXTRACT: note_on channel=5 note=63 velocity=0 time=0.0023980833333333332
EXTRACT: note_on channel=5 note=65 velocity=106 time=0
EXTRACT: note_on channel=9 note=37 velocity=91 time=0.0047961666666666665
EXTRACT: note_on channel=9 note=28 velocity=68 time=0
EXTRACT: note_on channel=9 note=39 velocity=67 time=0
EXTRACT: note_on channel=9 note=35 velocity=97 time=0
EXTRACT: pitchwheel channel=10 pitch=1480 time=0
EXTRACT: note_on channel=9 note=28 velocity=0 time=0.0023980833333333332
EXTRACT: note_on channel=9 note=37 velocity=0 time=0
EXTRACT: note_on channel=9 note=40 velocity=64 time=0.0023980833333333332
EXTRACT: control_change channel=5 control=11 value=59 time=0.021582749999999998
EXTRACT: pitchwheel channel=10 pitch=1360 time=0
EXTRACT: note_on channel=9 note=39 velocity=50 time=0.0047961666666666665
EXTRACT: note_on channel=9 note=70 velocity=0 time=0.019184666666666666
EXTRACT: note_on channel=9 note=39 velocity=0 time=0.007194249999999999
EXTRACT: note_on channel=9 note=35 velocity=0 time=0
EXTRACT: note_on channel=9 note=40 velocity=0 time=0.0047961666666666665
EXTRACT: control_change channel=7 control=11 value=46 time=0.007194249999999999
EXTRACT: control_change channel=6 control=11 value=46 time=0.0023980833333333332
EXTRACT: control_change channel=4 control=11 value=59 time=0.0023980833333333332
EXTRACT: note_on channel=9 note=39 velocity=0 time=0.014388499999999999
EXTRACT: control_change channel=7 control=11 value=50 time=0.0047961666666666665
EXTRACT: control_change channel=6 control=11 value=50 time=0.0023980833333333332
EXTRACT: pitchwheel channel=10 pitch=1200 time=0.021582749999999998
EXTRACT: pitchwheel channel=10 pitch=980 time=0.011990416666666667
EXTRACT: pitchwheel channel=10 pitch=840 time=0.0023980833333333332
EXTRACT: pitchwheel channel=10 pitch=660 time=0.0047961666666666665
EXTRACT: control_change channel=7 control=11 value=54 time=0.0023980833333333332
EXTRACT: control_change channel=6 control=11 value=54 time=0.0023980833333333332
EXTRACT: pitchwheel channel=10 pitch=480 time=0
EXTRACT: pitchwheel channel=10 pitch=280 time=0.0023980833333333332
EXTRACT: pitchwheel channel=10 pitch=120 time=0.0047961666666666665
EXTRACT: pitchwheel channel=10 pitch=0 time=0.011990416666666667
EXTRACT: control_change channel=5 control=11 value=57 time=0.014388499999999999
EXTRACT: control_change channel=7 control=11 value=58 time=0.03357316666666667
EXTRACT: control_change channel=6 control=11 value=58 time=0.0023980833333333332
EXTRACT: note_on channel=9 note=70 velocity=75 time=0.0047961666666666665
EXTRACT: note_on channel=1 note=27 velocity=117 time=0.0047961666666666665
EXTRACT: note_on channel=10 note=68 velocity=110 time=0
EXTRACT: note_on channel=10 note=56 velocity=80 time=0
EXTRACT: control_change channel=4 control=11 value=57 time=0.0023980833333333332
EXTRACT: note_on channel=9 note=46 velocity=62 time=0.0047961666666666665
EXTRACT: note_on channel=10 note=58 velocity=0 time=0.007194249999999999
EXTRACT: note_on channel=10 note=70 velocity=0 time=0
EXTRACT: note_on channel=9 note=70 velocity=0 time=0.023980833333333333
EXTRACT: note_on channel=9 note=46 velocity=0 time=0.026378916666666665
EXTRACT: control_change channel=7 control=11 value=64 time=0.026378916666666665
EXTRACT: control_change channel=6 control=11 value=64 time=0.0023980833333333332
EXTRACT: note_on channel=9 note=70 velocity=67 time=0.014388499999999999
EXTRACT: note_on channel=9 note=42 velocity=111 time=0.009592333333333333
EXTRACT: note_on channel=9 note=70 velocity=0 time=0.047961666666666666
EXTRACT: note_on channel=9 note=42 velocity=0 time=0.009592333333333333
EXTRACT: note_on channel=10 note=68 velocity=0 time=0
EXTRACT: note_on channel=10 note=56 velocity=0 time=0
EXTRACT: note_on channel=1 note=27 velocity=0 time=0.035971249999999996
EXTRACT: note_on channel=5 note=80 velocity=0 time=0.014388499999999999
EXTRACT: note_on channel=5 note=82 velocity=120 time=0
EXTRACT: note_on channel=9 note=70 velocity=103 time=0
EXTRACT: note_on channel=5 note=65 velocity=0 time=0.0023980833333333332
EXTRACT: note_on channel=5 note=67 velocity=108 time=0.0023980833333333332
EXTRACT: note_on channel=9 note=35 velocity=97 time=0.0023980833333333332
EXTRACT: control_change channel=5 control=11 value=59 time=0.019184666666666666
EXTRACT: note_on channel=9 note=70 velocity=0 time=0.031175083333333332
EXTRACT: note_on channel=9 note=35 velocity=0 time=0.007194249999999999
EXTRACT: control_change channel=5 control=11 value=61 time=0.0023980833333333332
EXTRACT: control_change channel=5 control=11 value=59 time=0.062350166666666665
EXTRACT: control_change channel=7 control=11 value=69 time=0.026378916666666665
EXTRACT: control_change channel=6 control=11 value=69 time=0.0023980833333333332
EXTRACT: control_change channel=5 control=11 value=57 time=0.04076741666666667
EXTRACT: note_on channel=1 note=27 velocity=121 time=0.028776999999999997
EXTRACT: note_on channel=10 note=70 velocity=111 time=0
EXTRACT: note_on channel=10 note=58 velocity=81 time=0
EXTRACT: note_on channel=9 note=82 velocity=65 time=0.011990416666666667
EXTRACT: note_on channel=9 note=46 velocity=63 time=0.007194249999999999
EXTRACT: control_change channel=7 control=11 value=74 time=0.023980833333333333
EXTRACT: control_change channel=6 control=11 value=74 time=0.0023980833333333332
EXTRACT: note_on channel=9 note=82 velocity=0 time=0.023980833333333333
EXTRACT: note_on channel=9 note=46 velocity=0 time=0.007194249999999999
EXTRACT: control_change channel=7 control=11 value=78 time=0.050359749999999995
EXTRACT: control_change channel=6 control=11 value=78 time=0.0023980833333333332
EXTRACT: note_on channel=9 note=82 velocity=57 time=0
EXTRACT: note_on channel=9 note=42 velocity=111 time=0
EXTRACT: control_change channel=7 control=11 value=82 time=0.03836933333333333
EXTRACT: note_on channel=9 note=39 velocity=50 time=0
EXTRACT: control_change channel=6 control=11 value=82 time=0.0023980833333333332
EXTRACT: note_on channel=10 note=58 velocity=0 time=0.007194249999999999
EXTRACT: note_on channel=10 note=70 velocity=0 time=0
EXTRACT: note_on channel=9 note=42 velocity=0 time=0.009592333333333333
EXTRACT: note_on channel=9 note=82 velocity=0 time=0
EXTRACT: control_change channel=7 control=11 value=87 time=0.011990416666666667
EXTRACT: control_change channel=6 control=11 value=87 time=0.0023980833333333332
EXTRACT: note_on channel=1 note=27 velocity=0 time=0.021582749999999998
EXTRACT: note_on channel=9 note=39 velocity=0 time=0.0023980833333333332
EXTRACT: note_on channel=5 note=82 velocity=0 time=0.011990416666666667
EXTRACT: note_on channel=5 note=84 velocity=120 time=0
EXTRACT: control_change channel=7 control=11 value=91 time=0
EXTRACT: control_change channel=6 control=11 value=91 time=0.0023980833333333332
EXTRACT: note_on channel=5 note=67 velocity=0 time=0.0023980833333333332
EXTRACT: note_on channel=5 note=68 velocity=108 time=0
EXTRACT: note_on channel=9 note=40 velocity=55 time=0
EXTRACT: note_on channel=9 note=37 velocity=91 time=0
EXTRACT: note_on channel=9 note=28 velocity=68 time=0
EXTRACT: note_on channel=9 note=39 velocity=73 time=0
EXTRACT: note_on channel=9 note=82 velocity=71 time=0
EXTRACT: note_on channel=9 note=35 velocity=97 time=0
EXTRACT: note_on channel=10 note=68 velocity=110 time=0
EXTRACT: note_on channel=10 note=56 velocity=80 time=0
EXTRACT: note_on channel=9 note=28 velocity=0 time=0.0023980833333333332
EXTRACT: note_on channel=9 note=37 velocity=0 time=0
EXTRACT: control_change channel=7 control=11 value=95 time=0.011990416666666667
EXTRACT: control_change channel=6 control=11 value=95 time=0.0023980833333333332
EXTRACT: control_change channel=5 control=11 value=59 time=0.0023980833333333332
EXTRACT: note_on channel=9 note=39 velocity=55 time=0.011990416666666667
EXTRACT: control_change channel=7 control=11 value=100 time=0.021582749999999998
EXTRACT: control_change channel=6 control=11 value=100 time=0.0023980833333333332
EXTRACT: note_on channel=9 note=39 velocity=0 time=0.0023980833333333332
EXTRACT: note_on channel=9 note=82 velocity=0 time=0
EXTRACT: note_on channel=9 note=40 velocity=0 time=0
EXTRACT: note_on channel=9 note=35 velocity=0 time=0
EXTRACT: control_change channel=7 control=11 value=105 time=0.026378916666666665
EXTRACT: control_change channel=6 control=11 value=105 time=0.0023980833333333332
EXTRACT: note_on channel=9 note=39 velocity=0 time=0.0023980833333333332
EXTRACT: control_change channel=7 control=11 value=109 time=0.019184666666666666
EXTRACT: control_change channel=6 control=11 value=109 time=0.0023980833333333332
EXTRACT: control_change channel=7 control=11 value=114 time=0.021582749999999998
EXTRACT: control_change channel=6 control=11 value=114 time=0.0023980833333333332
EXTRACT: control_change channel=7 control=11 value=119 time=0.035971249999999996
EXTRACT: control_change channel=6 control=11 value=119 time=0.0023980833333333332
EXTRACT: note_on channel=10 note=56 velocity=0 time=0.0023980833333333332
EXTRACT: note_on channel=10 note=68 velocity=0 time=0
EXTRACT: control_change channel=5 control=11 value=57 time=0.007194249999999999
EXTRACT: note_on channel=7 note=51 velocity=0 time=0.019184666666666666
EXTRACT: note_on channel=6 note=63 velocity=0 time=0.009592333333333333
EXTRACT: note_on channel=1 note=27 velocity=122 time=0.007194249999999999
EXTRACT: note_on channel=9 note=82 velocity=53 time=0.014388499999999999
EXTRACT: note_on channel=9 note=46 velocity=62 time=0.009592333333333333
EXTRACT: note_on channel=9 note=82 velocity=0 time=0.047961666666666666
EXTRACT: note_on channel=9 note=46 velocity=0 time=0.009592333333333333
EXTRACT: note_on channel=9 note=82 velocity=50 time=0.050359749999999995
EXTRACT: note_on channel=9 note=42 velocity=113 time=0
EXTRACT: note_on channel=9 note=42 velocity=0 time=0.057553999999999994
EXTRACT: note_on channel=9 note=82 velocity=0 time=0
EXTRACT: note_on channel=1 note=27 velocity=0 time=0.035971249999999996
EXTRACT: note_on channel=7 note=44 velocity=67 time=0.007194249999999999
EXTRACT: note_on channel=4 note=63 velocity=0 time=0.0023980833333333332
EXTRACT: note_on channel=6 note=56 velocity=67 time=0
EXTRACT: note_on channel=4 note=67 velocity=0 time=0.0047961666666666665
EXTRACT: note_on channel=4 note=55 velocity=0 time=0
EXTRACT: note_on channel=4 note=70 velocity=0 time=0
EXTRACT: note_on channel=5 note=84 velocity=0 time=0
EXTRACT: note_on channel=4 note=60 velocity=102 time=0.0023980833333333332
EXTRACT: note_on channel=4 note=68 velocity=105 time=0
EXTRACT: note_on channel=4 note=51 velocity=97 time=0
EXTRACT: note_on channel=4 note=63 velocity=104 time=0
EXTRACT: note_on channel=9 note=70 velocity=103 time=0
EXTRACT: control_change channel=4 control=11 value=57 time=0.0023980833333333332
EXTRACT: note_on channel=5 note=68 velocity=0 time=0
EXTRACT: control_change channel=5 control=11 value=57 time=0.0047961666666666665
EXTRACT: note_on channel=5 note=80 velocity=117 time=0
EXTRACT: note_on channel=9 note=35 velocity=97 time=0
EXTRACT: note_on channel=9 note=57 velocity=91 time=0
EXTRACT: control_change channel=7 control=11 value=118 time=0.03836933333333333
EXTRACT: control_change channel=6 control=11 value=118 time=0.0023980833333333332
EXTRACT: note_on channel=9 note=70 velocity=0 time=0.009592333333333333
EXTRACT: note_on channel=9 note=57 velocity=0 time=0.007194249999999999
EXTRACT: note_on channel=9 note=35 velocity=0 time=0
EXTRACT: control_change channel=4 control=11 value=59 time=0.009592333333333333
EXTRACT: control_change channel=5 control=11 value=59 time=0.0023980833333333332
EXTRACT: control_change channel=7 control=11 value=113 time=0
EXTRACT: control_change channel=6 control=11 value=113 time=0.0023980833333333332
EXTRACT: control_change channel=7 control=11 value=106 time=0.028776999999999997
EXTRACT: control_change channel=6 control=11 value=106 time=0.0023980833333333332
EXTRACT: control_change channel=7 control=11 value=102 time=0.028776999999999997
EXTRACT: control_change channel=6 control=11 value=102 time=0.0023980833333333332
EXTRACT: control_change channel=7 control=11 value=98 time=0.028776999999999997
EXTRACT: control_change channel=6 control=11 value=98 time=0.0023980833333333332
EXTRACT: note_on channel=7 note=44 velocity=0 time=0.043165499999999996
EXTRACT: control_change channel=7 control=11 value=120 time=0
EXTRACT: note_on channel=6 note=56 velocity=0 time=0.0023980833333333332
EXTRACT: control_change channel=6 control=11 value=120 time=0
EXTRACT: note_on channel=7 note=44 velocity=61 time=0.007194249999999999
EXTRACT: note_on channel=1 note=32 velocity=126 time=0.0023980833333333332
EXTRACT: note_on channel=6 note=56 velocity=60 time=0
EXTRACT: note_on channel=9 note=70 velocity=77 time=0.0047961666666666665
EXTRACT: note_on channel=3 note=56 velocity=82 time=0
EXTRACT: note_on channel=3 note=68 velocity=113 time=0
EXTRACT: control_change channel=7 control=11 value=115 time=0.0047961666666666665
EXTRACT: control_change channel=6 control=11 value=115 time=0.0023980833333333332
EXTRACT: note_on channel=9 note=46 velocity=61 time=0
EXTRACT: control_change channel=7 control=11 value=105 time=0.014388499999999999
EXTRACT: control_change channel=6 control=11 value=105 time=0.0023980833333333332
EXTRACT: control_change channel=7 control=11 value=98 time=0.011990416666666667
EXTRACT: control_change channel=6 control=11 value=98 time=0.0023980833333333332
EXTRACT: note_on channel=9 note=70 velocity=0 time=0.009592333333333333
EXTRACT: control_change channel=7 control=11 value=92 time=0.0047961666666666665
EXTRACT: control_change channel=6 control=11 value=92 time=0.0023980833333333332
EXTRACT: note_on channel=9 note=46 velocity=0 time=0.009592333333333333
EXTRACT: control_change channel=7 control=11 value=85 time=0.0023980833333333332
EXTRACT: control_change channel=6 control=11 value=85 time=0.0023980833333333332
EXTRACT: control_change channel=7 control=11 value=79 time=0.014388499999999999
EXTRACT: control_change channel=6 control=11 value=79 time=0.0023980833333333332
EXTRACT: note_on channel=3 note=68 velocity=0 time=0.021582749999999998
EXTRACT: note_on channel=3 note=56 velocity=0 time=0
EXTRACT: control_change channel=7 control=11 value=73 time=0
EXTRACT: note_on channel=9 note=70 velocity=67 time=0
EXTRACT: control_change channel=6 control=11 value=73 time=0.0023980833333333332
EXTRACT: note_on channel=9 note=42 velocity=109 time=0.007194249999999999
EXTRACT: control_change channel=7 control=11 value=68 time=0.0047961666666666665
EXTRACT: control_change channel=6 control=11 value=68 time=0.0023980833333333332
EXTRACT: control_change channel=7 control=11 value=64 time=0.028776999999999997
EXTRACT: control_change channel=6 control=11 value=64 time=0.0023980833333333332
EXTRACT: note_on channel=9 note=70 velocity=0 time=0.009592333333333333
EXTRACT: control_change channel=7 control=11 value=60 time=0.0047961666666666665
EXTRACT: control_change channel=6 control=11 value=60 time=0.0023980833333333332
EXTRACT: note_on channel=9 note=42 velocity=0 time=0.0023980833333333332
EXTRACT: control_change channel=7 control=11 value=55 time=0.03357316666666667
EXTRACT: note_on channel=1 note=32 velocity=0 time=0.0023980833333333332
EXTRACT: control_change channel=6 control=11 value=55 time=0
EXTRACT: note_on channel=9 note=70 velocity=108 time=0.014388499999999999
EXTRACT: note_on channel=3 note=56 velocity=83 time=0.0047961666666666665
EXTRACT: note_on channel=3 note=68 velocity=115 time=0
EXTRACT: note_on channel=9 note=37 velocity=91 time=0.0023980833333333332
EXTRACT: note_on channel=9 note=28 velocity=68 time=0
EXTRACT: note_on channel=9 note=39 velocity=67 time=0
EXTRACT: note_on channel=9 note=35 velocity=97 time=0
EXTRACT: note_on channel=9 note=28 velocity=0 time=0.0023980833333333332
EXTRACT: note_on channel=9 note=37 velocity=0 time=0
EXTRACT: note_on channel=9 note=40 velocity=64 time=0.0023980833333333332
EXTRACT: note_on channel=9 note=39 velocity=50 time=0.026378916666666665
EXTRACT: note_on channel=9 note=70 velocity=0 time=0.019184666666666666
EXTRACT: note_on channel=9 note=39 velocity=0 time=0.007194249999999999
EXTRACT: note_on channel=9 note=35 velocity=0 time=0
EXTRACT: note_on channel=9 note=40 velocity=0 time=0.0047961666666666665
EXTRACT: note_on channel=9 note=39 velocity=0 time=0.026378916666666665
EXTRACT: note_on channel=3 note=68 velocity=0 time=0.016786583333333334
EXTRACT: note_on channel=3 note=56 velocity=0 time=0
EXTRACT: control_change channel=4 control=11 value=57 time=0.08633099999999999
EXTRACT: control_change channel=5 control=11 value=57 time=0.0047961666666666665
EXTRACT: control_change channel=7 control=11 value=55 time=0.007194249999999999
EXTRACT: control_change channel=6 control=11 value=55 time=0.0023980833333333332
EXTRACT: note_on channel=9 note=70 velocity=75 time=0.009592333333333333
EXTRACT: note_on channel=1 note=32 velocity=118 time=0.0047961666666666665
EXTRACT: note_on channel=3 note=56 velocity=82 time=0.0023980833333333332
EXTRACT: note_on channel=3 note=68 velocity=113 time=0
EXTRACT: control_change channel=7 control=11 value=59 time=0.019184666666666666
EXTRACT: note_on channel=9 note=46 velocity=59 time=0
EXTRACT: control_change channel=6 control=11 value=59 time=0.0023980833333333332
EXTRACT: note_on channel=9 note=70 velocity=0 time=0.028776999999999997
EXTRACT: control_change channel=7 control=11 value=63 time=0.007194249999999999
EXTRACT: control_change channel=6 control=11 value=63 time=0.0023980833333333332
EXTRACT: note_on channel=3 note=68 velocity=0 time=0.009592333333333333
EXTRACT: note_on channel=3 note=56 velocity=0 time=0
EXTRACT: note_on channel=9 note=46 velocity=0 time=0.007194249999999999
EXTRACT: note_on channel=9 note=70 velocity=67 time=0.04556358333333333
EXTRACT: control_change channel=7 control=11 value=67 time=0.0047961666666666665
EXTRACT: control_change channel=6 control=11 value=67 time=0.0023980833333333332
EXTRACT: note_on channel=9 note=42 velocity=108 time=0
EXTRACT: note_on channel=9 note=70 velocity=0 time=0.050359749999999995
EXTRACT: note_on channel=9 note=42 velocity=0 time=0.007194249999999999
EXTRACT: control_change channel=7 control=11 value=72 time=0.03357316666666667
EXTRACT: note_on channel=1 note=32 velocity=0 time=0.0023980833333333332
EXTRACT: control_change channel=6 control=11 value=72 time=0
EXTRACT: note_on channel=9 note=70 velocity=108 time=0.014388499999999999
EXTRACT: note_on channel=9 note=35 velocity=97 time=0.009592333333333333
EXTRACT: note_on channel=3 note=60 velocity=81 time=0.007194249999999999
EXTRACT: note_on channel=3 note=72 velocity=112 time=0
EXTRACT: note_on channel=9 note=70 velocity=0 time=0.04076741666666667
EXTRACT: note_on channel=9 note=35 velocity=0 time=0.009592333333333333
EXTRACT: note_on channel=1 note=32 velocity=121 time=0.16067158333333334
EXTRACT: control_change channel=7 control=11 value=77 time=0.007194249999999999
EXTRACT: note_on channel=9 note=70 velocity=76 time=0
EXTRACT: control_change channel=6 control=11 value=77 time=0.0023980833333333332
EXTRACT: note_on channel=9 note=46 velocity=61 time=0.014388499999999999
EXTRACT: note_on channel=9 note=70 velocity=0 time=0.04076741666666667
EXTRACT: note_on channel=9 note=46 velocity=0 time=0.016786583333333334
EXTRACT: note_on channel=9 note=70 velocity=67 time=0.043165499999999996
EXTRACT: note_on channel=9 note=42 velocity=108 time=0.007194249999999999
EXTRACT: note_on channel=3 note=72 velocity=0 time=0.019184666666666666
EXTRACT: note_on channel=3 note=60 velocity=0 time=0
EXTRACT: control_change channel=7 control=11 value=82 time=0.011990416666666667
EXTRACT: control_change channel=6 control=11 value=82 time=0.0023980833333333332
EXTRACT: note_on channel=9 note=70 velocity=0 time=0.016786583333333334
EXTRACT: note_on channel=9 note=42 velocity=0 time=0.007194249999999999
EXTRACT: control_change channel=7 control=11 value=87 time=0.019184666666666666
EXTRACT: control_change channel=6 control=11 value=87 time=0.0023980833333333332
EXTRACT: note_on channel=1 note=32 velocity=0 time=0.014388499999999999
EXTRACT: control_change channel=7 control=11 value=91 time=0.007194249999999999
EXTRACT: control_change channel=6 control=11 value=91 time=0.0023980833333333332
EXTRACT: note_on channel=9 note=70 velocity=107 time=0.007194249999999999
EXTRACT: note_on channel=9 note=40 velocity=54 time=0.007194249999999999
EXTRACT: note_on channel=9 note=37 velocity=91 time=0
EXTRACT: note_on channel=9 note=28 velocity=68 time=0
EXTRACT: note_on channel=9 note=39 velocity=72 time=0
EXTRACT: note_on channel=9 note=35 velocity=97 time=0
EXTRACT: note_on channel=9 note=28 velocity=0 time=0.0023980833333333332
EXTRACT: note_on channel=9 note=37 velocity=0 time=0
EXTRACT: note_on channel=3 note=75 velocity=111 time=0.0023980833333333332
EXTRACT: note_on channel=3 note=63 velocity=81 time=0
EXTRACT: control_change channel=7 control=11 value=97 time=0.026378916666666665
EXTRACT: note_on channel=9 note=39 velocity=55 time=0
EXTRACT: control_change channel=6 control=11 value=97 time=0.0023980833333333332
EXTRACT: note_on channel=9 note=70 velocity=0 time=0.016786583333333334
EXTRACT: note_on channel=9 note=35 velocity=0 time=0.007194249999999999
EXTRACT: note_on channel=9 note=40 velocity=0 time=0
EXTRACT: note_on channel=9 note=39 velocity=0 time=0
EXTRACT: control_change channel=7 control=11 value=101 time=0.0047961666666666665
EXTRACT: control_change channel=6 control=11 value=101 time=0.0023980833333333332
EXTRACT: note_on channel=9 note=39 velocity=0 time=0.023980833333333333
EXTRACT: control_change channel=7 control=11 value=107 time=0.011990416666666667
EXTRACT: control_change channel=6 control=11 value=107 time=0.0023980833333333332
EXTRACT: control_change channel=7 control=11 value=111 time=0.021582749999999998
EXTRACT: control_change channel=6 control=11 value=111 time=0.0023980833333333332
EXTRACT: control_change channel=7 control=11 value=116 time=0.019184666666666666
EXTRACT: control_change channel=6 control=11 value=116 time=0.0023980833333333332
EXTRACT: control_change channel=7 control=11 value=120 time=0.028776999999999997
EXTRACT: control_change channel=6 control=11 value=120 time=0.0023980833333333332
EXTRACT: note_on channel=7 note=44 velocity=0 time=0.021582749999999998
EXTRACT: note_on channel=6 note=56 velocity=0 time=0.009592333333333333
EXTRACT: note_on channel=1 note=32 velocity=122 time=0.009592333333333333
EXTRACT: note_on channel=9 note=70 velocity=73 time=0.0047961666666666665
EXTRACT: note_on channel=9 note=46 velocity=61 time=0.016786583333333334
EXTRACT: note_on channel=3 note=63 velocity=0 time=0.026378916666666665
EXTRACT: note_on channel=3 note=75 velocity=0 time=0
EXTRACT: note_on channel=9 note=70 velocity=0 time=0.014388499999999999
EXTRACT: note_on channel=9 note=46 velocity=0 time=0.016786583333333334
EXTRACT: note_on channel=9 note=70 velocity=67 time=0.043165499999999996
EXTRACT: note_on channel=9 note=42 velocity=109 time=0.009592333333333333
EXTRACT: note_on channel=9 note=70 velocity=0 time=0.047961666666666666
EXTRACT: note_on channel=9 note=42 velocity=0 time=0.009592333333333333
EXTRACT: note_on channel=1 note=32 velocity=0 time=0.035971249999999996
EXTRACT: note_on channel=7 note=48 velocity=69 time=0.0047961666666666665
EXTRACT: note_on channel=6 note=60 velocity=67 time=0.0023980833333333332
EXTRACT: note_on channel=4 note=63 velocity=0 time=0.007194249999999999
EXTRACT: note_on channel=4 note=60 velocity=0 time=0
EXTRACT: note_on channel=4 note=68 velocity=0 time=0
EXTRACT: note_on channel=4 note=51 velocity=0 time=0
EXTRACT: note_on channel=4 note=60 velocity=103 time=0
EXTRACT: note_on channel=4 note=67 velocity=106 time=0
EXTRACT: note_on channel=4 note=48 velocity=98 time=0
EXTRACT: note_on channel=4 note=63 velocity=105 time=0
EXTRACT: note_on channel=9 note=70 velocity=108 time=0
EXTRACT: note_on channel=5 note=80 velocity=0 time=0.007194249999999999
EXTRACT: note_on channel=5 note=79 velocity=121 time=0
EXTRACT: note_on channel=9 note=35 velocity=97 time=0
EXTRACT: control_change channel=7 control=11 value=113 time=0.007194249999999999
EXTRACT: control_change channel=6 control=11 value=113 time=0.0023980833333333332
EXTRACT: note_on channel=3 note=67 velocity=83 time=0.0023980833333333332
EXTRACT: note_on channel=3 note=79 velocity=114 time=0
EXTRACT: control_change channel=7 control=11 value=102 time=0.011990416666666667
EXTRACT: control_change channel=6 control=11 value=102 time=0.0023980833333333332
EXTRACT: control_change channel=7 control=11 value=93 time=0.011990416666666667
EXTRACT: control_change channel=5 control=11 value=59 time=0.0023980833333333332
EXTRACT: control_change channel=6 control=11 value=93 time=0
EXTRACT: control_change channel=4 control=11 value=59 time=0.0023980833333333332
EXTRACT: note_on channel=9 note=70 velocity=0 time=0.007194249999999999
EXTRACT: control_change channel=7 control=11 value=86 time=0.0047961666666666665
EXTRACT: control_change channel=6 control=11 value=86 time=0.0023980833333333332
EXTRACT: note_on channel=9 note=35 velocity=0 time=0
EXTRACT: control_change channel=7 control=11 value=77 time=0.011990416666666667
EXTRACT: control_change channel=6 control=11 value=77 time=0.0023980833333333332
EXTRACT: control_change channel=7 control=11 value=69 time=0.014388499999999999
EXTRACT: control_change channel=6 control=11 value=69 time=0.0023980833333333332
EXTRACT: control_change channel=7 control=11 value=62 time=0.019184666666666666
EXTRACT: control_change channel=6 control=11 value=62 time=0.0023980833333333332
EXTRACT: control_change channel=7 control=11 value=56 time=0.014388499999999999
EXTRACT: control_change channel=6 control=11 value=56 time=0.0023980833333333332
EXTRACT: control_change channel=4 control=11 value=61 time=0.019184666666666666
EXTRACT: control_change channel=7 control=11 value=52 time=0.0023980833333333332
EXTRACT: control_change channel=6 control=11 value=52 time=0.0023980833333333332
EXTRACT: control_change channel=7 control=11 value=46 time=0.021582749999999998
EXTRACT: control_change channel=6 control=11 value=46 time=0.0023980833333333332
EXTRACT: control_change channel=5 control=11 value=57 time=0.0047961666666666665
EXTRACT: control_change channel=7 control=11 value=40 time=0.031175083333333332
EXTRACT: control_change channel=6 control=11 value=40 time=0.0023980833333333332
EXTRACT: note_on channel=1 note=36 velocity=116 time=0.007194249999999999
EXTRACT: note_on channel=9 note=70 velocity=77 time=0.007194249999999999
EXTRACT: note_on channel=9 note=46 velocity=61 time=0.014388499999999999
EXTRACT: note_on channel=9 note=70 velocity=0 time=0.043165499999999996
EXTRACT: note_on channel=9 note=46 velocity=0 time=0.014388499999999999
EXTRACT: control_change channel=7 control=11 value=36 time=0.011990416666666667
EXTRACT: control_change channel=6 control=11 value=36 time=0.0023980833333333332
EXTRACT: note_on channel=9 note=70 velocity=67 time=0.031175083333333332
EXTRACT: note_on channel=9 note=42 velocity=113 time=0.007194249999999999
EXTRACT: note_on channel=9 note=70 velocity=0 time=0.050359749999999995
EXTRACT: note_on channel=3 note=79 velocity=0 time=0.007194249999999999
EXTRACT: note_on channel=3 note=67 velocity=0 time=0
EXTRACT: note_on channel=9 note=42 velocity=0 time=0
EXTRACT: control_change channel=7 control=11 value=40 time=0.026378916666666665
EXTRACT: control_change channel=6 control=11 value=40 time=0.0023980833333333332
EXTRACT: note_on channel=1 note=36 velocity=0 time=0.007194249999999999
EXTRACT: note_on channel=9 note=70 velocity=103 time=0.014388499999999999
EXTRACT: control_change channel=7 control=11 value=44 time=0.007194249999999999
EXTRACT: control_change channel=6 control=11 value=44 time=0.0023980833333333332
EXTRACT: note_on channel=9 note=37 velocity=91 time=0
EXTRACT: note_on channel=9 note=28 velocity=68 time=0
EXTRACT: note_on channel=9 note=39 velocity=67 time=0
EXTRACT: note_on channel=9 note=35 velocity=97 time=0
EXTRACT: note_on channel=9 note=28 velocity=0 time=0.0023980833333333332
EXTRACT: note_on channel=9 note=37 velocity=0 time=0
EXTRACT: note_on channel=9 note=40 velocity=65 time=0
EXTRACT: note_on channel=3 note=70 velocity=81 time=0.009592333333333333
EXTRACT: note_on channel=3 note=82 velocity=111 time=0
EXTRACT: note_on channel=9 note=39 velocity=50 time=0.019184666666666666
EXTRACT: control_change channel=7 control=11 value=50 time=0.014388499999999999
EXTRACT: control_change channel=6 control=11 value=50 time=0.0023980833333333332
EXTRACT: note_on channel=9 note=70 velocity=0 time=0
EXTRACT: control_change channel=4 control=11 value=59 time=0.009592333333333333
EXTRACT: note_on channel=9 note=39 velocity=0 time=0
EXTRACT: note_on channel=9 note=35 velocity=0 time=0
EXTRACT: note_on channel=9 note=40 velocity=0 time=0.0023980833333333332
EXTRACT: note_on channel=9 note=39 velocity=0 time=0.028776999999999997
EXTRACT: control_change channel=7 control=11 value=55 time=0.026378916666666665
EXTRACT: control_change channel=6 control=11 value=55 time=0.0023980833333333332
EXTRACT: note_on channel=3 note=82 velocity=0 time=0.07673866666666666
EXTRACT: note_on channel=3 note=70 velocity=0 time=0
EXTRACT: control_change channel=7 control=11 value=61 time=0.014388499999999999
EXTRACT: control_change channel=6 control=11 value=61 time=0.0023980833333333332
EXTRACT: note_on channel=9 note=70 velocity=75 time=0.0023980833333333332
EXTRACT: note_on channel=1 note=36 velocity=115 time=0.007194249999999999
EXTRACT: control_change channel=4 control=11 value=57 time=0.009592333333333333
EXTRACT: note_on channel=3 note=67 velocity=80 time=0.007194249999999999
EXTRACT: note_on channel=3 note=79 velocity=110 time=0
EXTRACT: note_on channel=9 note=46 velocity=62 time=0.0047961666666666665
EXTRACT: note_on channel=9 note=70 velocity=0 time=0.028776999999999997
EXTRACT: note_on channel=9 note=46 velocity=0 time=0.028776999999999997
EXTRACT: note_on channel=9 note=70 velocity=67 time=0.043165499999999996
EXTRACT: note_on channel=9 note=42 velocity=111 time=0.007194249999999999
EXTRACT: note_on channel=9 note=70 velocity=0 time=0.050359749999999995
EXTRACT: note_on channel=9 note=42 velocity=0 time=0.007194249999999999
EXTRACT: note_on channel=1 note=36 velocity=0 time=0.03836933333333333
EXTRACT: note_on channel=3 note=79 velocity=0 time=0.0047961666666666665
EXTRACT: note_on channel=3 note=67 velocity=0 time=0
EXTRACT: control_change channel=7 control=11 value=65 time=0
EXTRACT: control_change channel=6 control=11 value=65 time=0.0023980833333333332
EXTRACT: note_on channel=9 note=70 velocity=103 time=0.007194249999999999
EXTRACT: note_on channel=5 note=79 velocity=0 time=0.0047961666666666665
EXTRACT: note_on channel=5 note=82 velocity=114 time=0.0023980833333333332
EXTRACT: note_on channel=9 note=35 velocity=97 time=0
EXTRACT: control_change channel=5 control=11 value=59 time=0.023980833333333333
EXTRACT: note_on channel=9 note=70 velocity=0 time=0.026378916666666665
EXTRACT: note_on channel=9 note=35 velocity=0 time=0.007194249999999999
EXTRACT: control_change channel=7 control=11 value=70 time=0.026378916666666665
EXTRACT: control_change channel=6 control=11 value=70 time=0.0023980833333333332
EXTRACT: control_change channel=7 control=11 value=75 time=0.06954441666666666
EXTRACT: control_change channel=6 control=11 value=75 time=0.0023980833333333332
EXTRACT: control_change channel=5 control=11 value=57 time=0.028776999999999997
EXTRACT: control_change channel=7 control=11 value=80 time=0.007194249999999999
EXTRACT: control_change channel=6 control=11 value=80 time=0.0023980833333333332
EXTRACT: note_on channel=1 note=36 velocity=116 time=0.023980833333333333
EXTRACT: note_on channel=3 note=63 velocity=81 time=0.0047961666666666665
EXTRACT: note_on channel=3 note=75 velocity=111 time=0
EXTRACT: control_change channel=7 control=11 value=85 time=0
EXTRACT: control_change channel=6 control=11 value=85 time=0.0023980833333333332
EXTRACT: note_on channel=9 note=82 velocity=65 time=0.007194249999999999
EXTRACT: note_on channel=9 note=46 velocity=63 time=0.007194249999999999
EXTRACT: control_change channel=7 control=11 value=91 time=0.021582749999999998
EXTRACT: control_change channel=6 control=11 value=91 time=0.0023980833333333332
EXTRACT: control_change channel=7 control=11 value=95 time=0.021582749999999998
EXTRACT: control_change channel=6 control=11 value=95 time=0.0023980833333333332
EXTRACT: note_on channel=9 note=82 velocity=0 time=0.0023980833333333332
EXTRACT: note_on channel=9 note=46 velocity=0 time=0.007194249999999999
EXTRACT: control_change channel=7 control=11 value=100 time=0.011990416666666667
EXTRACT: control_change channel=6 control=11 value=100 time=0.0023980833333333332
EXTRACT: control_change channel=7 control=11 value=104 time=0.021582749999999998
EXTRACT: control_change channel=6 control=11 value=104 time=0.0023980833333333332
EXTRACT: note_on channel=9 note=82 velocity=57 time=0.014388499999999999
EXTRACT: note_on channel=9 note=42 velocity=111 time=0
EXTRACT: control_change channel=7 control=11 value=109 time=0.0047961666666666665
EXTRACT: control_change channel=6 control=11 value=109 time=0.0023980833333333332
EXTRACT: control_change channel=7 control=11 value=113 time=0.014388499999999999
EXTRACT: control_change channel=6 control=11 value=113 time=0.0023980833333333332
EXTRACT: note_on channel=9 note=39 velocity=50 time=0.014388499999999999
EXTRACT: control_change channel=7 control=11 value=118 time=0.007194249999999999
EXTRACT: control_change channel=6 control=11 value=118 time=0.0023980833333333332
EXTRACT: note_on channel=9 note=42 velocity=0 time=0.009592333333333333
EXTRACT: note_on channel=9 note=82 velocity=0 time=0
EXTRACT: note_on channel=7 note=48 velocity=0 time=0.023980833333333333
EXTRACT: note_on channel=3 note=75 velocity=0 time=0.0047961666666666665
EXTRACT: note_on channel=3 note=63 velocity=0 time=0
EXTRACT: note_on channel=6 note=60 velocity=0 time=0.0047961666666666665
EXTRACT: note_on channel=1 note=36 velocity=0 time=0.0023980833333333332
EXTRACT: note_on channel=9 note=39 velocity=0 time=0.0023980833333333332
EXTRACT: note_on channel=3 note=82 velocity=110 time=0.011990416666666667
EXTRACT: note_on channel=3 note=70 velocity=80 time=0
EXTRACT: note_on channel=9 note=40 velocity=56 time=0.007194249999999999
EXTRACT: note_on channel=9 note=37 velocity=91 time=0
EXTRACT: note_on channel=9 note=28 velocity=68 time=0
EXTRACT: note_on channel=9 note=39 velocity=73 time=0
EXTRACT: note_on channel=9 note=82 velocity=71 time=0
EXTRACT: note_on channel=9 note=35 velocity=97 time=0
EXTRACT: note_on channel=9 note=28 velocity=0 time=0.0023980833333333332
EXTRACT: note_on channel=9 note=37 velocity=0 time=0
EXTRACT: note_on channel=9 note=39 velocity=55 time=0.028776999999999997
EXTRACT: note_on channel=9 note=39 velocity=0 time=0.026378916666666665
EXTRACT: note_on channel=9 note=82 velocity=0 time=0
EXTRACT: note_on channel=9 note=40 velocity=0 time=0
EXTRACT: note_on channel=9 note=35 velocity=0 time=0
EXTRACT: note_on channel=9 note=39 velocity=0 time=0.031175083333333332
EXTRACT: control_change channel=5 control=11 value=59 time=0.014388499999999999
EXTRACT: note_on channel=3 note=70 velocity=0 time=0.07913674999999999
EXTRACT: note_on channel=3 note=82 velocity=0 time=0
EXTRACT: note_on channel=7 note=48 velocity=70 time=0.035971249999999996
EXTRACT: note_on channel=1 note=36 velocity=113 time=0.0023980833333333332
EXTRACT: note_on channel=6 note=60 velocity=71 time=0
EXTRACT: note_on channel=9 note=82 velocity=53 time=0.014388499999999999
EXTRACT: note_on channel=3 note=68 velocity=81 time=0.0047961666666666665
EXTRACT: note_on channel=3 note=80 velocity=111 time=0
EXTRACT: note_on channel=9 note=46 velocity=62 time=0.0023980833333333332
EXTRACT: control_change channel=5 control=11 value=57 time=0.023980833333333333
EXTRACT: control_change channel=7 control=11 value=117 time=0.007194249999999999
EXTRACT: control_change channel=6 control=11 value=117 time=0.0023980833333333332
EXTRACT: note_on channel=9 note=82 velocity=0 time=0.016786583333333334
EXTRACT: control_change channel=7 control=11 value=112 time=0.0047961666666666665
EXTRACT: control_change channel=6 control=11 value=112 time=0.0023980833333333332
EXTRACT: note_on channel=9 note=46 velocity=0 time=0
EXTRACT: control_change channel=7 control=11 value=108 time=0.011990416666666667
EXTRACT: control_change channel=6 control=11 value=108 time=0.0023980833333333332
EXTRACT: control_change channel=7 control=11 value=99 time=0.021582749999999998
EXTRACT: control_change channel=6 control=11 value=99 time=0.0023980833333333332
EXTRACT: note_on channel=3 note=80 velocity=0 time=0.0023980833333333332
EXTRACT: note_on channel=3 note=68 velocity=0 time=0
EXTRACT: note_on channel=9 note=82 velocity=50 time=0.011990416666666667
EXTRACT: note_on channel=9 note=42 velocity=113 time=0
EXTRACT: control_change channel=7 control=11 value=94 time=0.007194249999999999
EXTRACT: control_change channel=6 control=11 value=94 time=0.0023980833333333332
EXTRACT: control_change channel=7 control=11 value=90 time=0.019184666666666666
EXTRACT: control_change channel=6 control=11 value=90 time=0.0023980833333333332
EXTRACT: control_change channel=7 control=11 value=86 time=0.021582749999999998
EXTRACT: control_change channel=6 control=11 value=86 time=0.0023980833333333332
EXTRACT: note_on channel=9 note=42 velocity=0 time=0.0023980833333333332
EXTRACT: note_on channel=9 note=82 velocity=0 time=0
EXTRACT: note_on channel=7 note=48 velocity=0 time=0.03357316666666667
EXTRACT: control_change channel=7 control=11 value=120 time=0
EXTRACT: note_on channel=1 note=36 velocity=0 time=0.0023980833333333332
EXTRACT: note_on channel=6 note=60 velocity=0 time=0
EXTRACT: control_change channel=6 control=11 value=120 time=0
EXTRACT: note_on channel=7 note=49 velocity=71 time=0.007194249999999999
EXTRACT: note_on channel=6 note=61 velocity=71 time=0.0023980833333333332
EXTRACT: note_on channel=4 note=65 velocity=106 time=0.0023980833333333332
EXTRACT: note_on channel=4 note=49 velocity=99 time=0
EXTRACT: note_on channel=4 note=68 velocity=107 time=0
EXTRACT: note_on channel=4 note=61 velocity=103 time=0
EXTRACT: note_on channel=4 note=63 velocity=0 time=0.0023980833333333332
EXTRACT: note_on channel=4 note=48 velocity=0 time=0
EXTRACT: note_on channel=4 note=60 velocity=0 time=0
EXTRACT: note_on channel=4 note=67 velocity=0 time=0
EXTRACT: note_on channel=9 note=70 velocity=103 time=0
EXTRACT: note_on channel=5 note=80 velocity=111 time=0.0047961666666666665
EXTRACT: note_on channel=5 note=82 velocity=0 time=0.0023980833333333332
EXTRACT: note_on channel=9 note=35 velocity=97 time=0.0023980833333333332
EXTRACT: control_change channel=7 control=11 value=115 time=0.04556358333333333
EXTRACT: control_change channel=6 control=11 value=115 time=0.0023980833333333332
EXTRACT: note_on channel=9 note=70 velocity=0 time=0
EXTRACT: control_change channel=5 control=11 value=59 time=0.0023980833333333332
EXTRACT: note_on channel=9 note=35 velocity=0 time=0.007194249999999999
EXTRACT: control_change channel=4 control=11 value=59 time=0.007194249999999999
EXTRACT: control_change channel=7 control=11 value=111 time=0.0047961666666666665
EXTRACT: control_change channel=6 control=11 value=111 time=0.0023980833333333332
EXTRACT: control_change channel=7 control=11 value=106 time=0.011990416666666667
EXTRACT: control_change channel=6 control=11 value=106 time=0.0023980833333333332
EXTRACT: control_change channel=7 control=11 value=99 time=0.021582749999999998
EXTRACT: control_change channel=6 control=11 value=99 time=0.0023980833333333332
EXTRACT: control_change channel=7 control=11 value=94 time=0.021582749999999998
EXTRACT: control_change channel=6 control=11 value=94 time=0.0023980833333333332
EXTRACT: control_change channel=7 control=11 value=90 time=0.028776999999999997
EXTRACT: control_change channel=6 control=11 value=90 time=0.0023980833333333332
EXTRACT: control_change channel=5 control=11 value=61 time=0.0023980833333333332
EXTRACT: control_change channel=7 control=11 value=86 time=0.03357316666666667
EXTRACT: control_change channel=6 control=11 value=86 time=0.0023980833333333332
EXTRACT: control_change channel=4 control=11 value=61 time=0.0023980833333333332
EXTRACT: note_on channel=7 note=49 velocity=0 time=0.0023980833333333332
EXTRACT: note_on channel=6 note=61 velocity=0 time=0.0023980833333333332
EXTRACT: note_on channel=7 note=49 velocity=68 time=0.0047961666666666665
EXTRACT: note_on channel=6 note=61 velocity=62 time=0.0023980833333333332
EXTRACT: note_on channel=1 note=25 velocity=123 time=0.0023980833333333332
EXTRACT: note_on channel=9 note=70 velocity=77 time=0.0047961666666666665
EXTRACT: control_change channel=7 control=11 value=118 time=0.007194249999999999
EXTRACT: control_change channel=6 control=11 value=118 time=0.0023980833333333332
EXTRACT: note_on channel=9 note=46 velocity=61 time=0.007194249999999999
EXTRACT: note_on channel=3 note=68 velocity=81 time=0.0023980833333333332
EXTRACT: note_on channel=3 note=80 velocity=111 time=0
EXTRACT: control_change channel=7 control=11 value=111 time=0.0023980833333333332
EXTRACT: control_change channel=6 control=11 value=111 time=0.0023980833333333332
EXTRACT: control_change channel=7 control=11 value=103 time=0.014388499999999999
EXTRACT: control_change channel=6 control=11 value=103 time=0.0023980833333333332
EXTRACT: control_change channel=7 control=11 value=98 time=0.011990416666666667
EXTRACT: control_change channel=6 control=11 value=98 time=0.0023980833333333332
EXTRACT: note_on channel=9 note=70 velocity=0 time=0.0023980833333333332
EXTRACT: control_change channel=7 control=11 value=92 time=0.011990416666666667
EXTRACT: control_change channel=6 control=11 value=92 time=0.0023980833333333332
EXTRACT: note_on channel=9 note=46 velocity=0 time=0.0023980833333333332
EXTRACT: note_on channel=3 note=80 velocity=0 time=0.009592333333333333
EXTRACT: note_on channel=3 note=68 velocity=0 time=0
EXTRACT: control_change channel=7 control=11 value=86 time=0
EXTRACT: control_change channel=6 control=11 value=86 time=0.0023980833333333332
EXTRACT: control_change channel=7 control=11 value=81 time=0.014388499999999999
EXTRACT: control_change channel=6 control=11 value=81 time=0.0023980833333333332
EXTRACT: note_on channel=9 note=70 velocity=67 time=0.014388499999999999
EXTRACT: control_change channel=7 control=11 value=76 time=0.007194249999999999
EXTRACT: note_on channel=9 note=42 velocity=109 time=0
EXTRACT: control_change channel=6 control=11 value=76 time=0.0023980833333333332
EXTRACT: control_change channel=7 control=11 value=72 time=0.021582749999999998
EXTRACT: control_change channel=6 control=11 value=72 time=0.0023980833333333332
EXTRACT: control_change channel=7 control=11 value=68 time=0.019184666666666666
EXTRACT: control_change channel=6 control=11 value=68 time=0.0023980833333333332
EXTRACT: note_on channel=9 note=70 velocity=0 time=0.0023980833333333332
EXTRACT: note_on channel=9 note=42 velocity=0 time=0.007194249999999999
EXTRACT: control_change channel=7 control=11 value=64 time=0.011990416666666667
EXTRACT: control_change channel=6 control=11 value=64 time=0.0023980833333333332
EXTRACT: note_on channel=1 note=25 velocity=0 time=0.023980833333333333
EXTRACT: note_on channel=9 note=70 velocity=108 time=0.014388499999999999
EXTRACT: note_on channel=9 note=37 velocity=91 time=0.007194249999999999
EXTRACT: note_on channel=9 note=28 velocity=68 time=0
EXTRACT: note_on channel=9 note=39 velocity=67 time=0
EXTRACT: note_on channel=9 note=35 velocity=97 time=0
EXTRACT: note_on channel=9 note=28 velocity=0 time=0.0023980833333333332
EXTRACT: note_on channel=9 note=37 velocity=0 time=0
EXTRACT: note_on channel=9 note=40 velocity=64 time=0.0023980833333333332
EXTRACT: note_on channel=3 note=68 velocity=81 time=0.0023980833333333332
EXTRACT: note_on channel=3 note=80 velocity=111 time=0
EXTRACT: control_change channel=4 control=11 value=59 time=0.0047961666666666665
EXTRACT: note_on channel=9 note=39 velocity=50 time=0.019184666666666666
EXTRACT: control_change channel=5 control=11 value=59 time=0.019184666666666666
EXTRACT: note_on channel=9 note=70 velocity=0 time=0
EXTRACT: note_on channel=9 note=39 velocity=0 time=0.007194249999999999
EXTRACT: note_on channel=9 note=35 velocity=0 time=0
EXTRACT: note_on channel=9 note=40 velocity=0 time=0.0047961666666666665
EXTRACT: control_change channel=7 control=11 value=60 time=0.007194249999999999
EXTRACT: control_change channel=6 control=11 value=60 time=0.0023980833333333332
EXTRACT: note_on channel=9 note=39 velocity=0 time=0.016786583333333334
EXTRACT: note_on channel=3 note=80 velocity=0 time=0.0023980833333333332
EXTRACT: note_on channel=3 note=68 velocity=0 time=0
EXTRACT: control_change channel=4 control=11 value=57 time=0.10791374999999999
EXTRACT: note_on channel=9 note=70 velocity=75 time=0.016786583333333334
EXTRACT: note_on channel=1 note=25 velocity=122 time=0.0047961666666666665
EXTRACT: control_change channel=5 control=11 value=57 time=0.0023980833333333332
EXTRACT: control_change channel=7 control=11 value=64 time=0.009592333333333333
EXTRACT: control_change channel=6 control=11 value=64 time=0.0023980833333333332
EXTRACT: note_on channel=9 note=46 velocity=59 time=0.007194249999999999
EXTRACT: note_on channel=3 note=68 velocity=78 time=0.0047961666666666665
EXTRACT: note_on channel=3 note=80 velocity=107 time=0
EXTRACT: note_on channel=9 note=70 velocity=0 time=0.026378916666666665
EXTRACT: control_change channel=7 control=11 value=69 time=0.007194249999999999
EXTRACT: control_change channel=6 control=11 value=69 time=0.0023980833333333332
EXTRACT: note_on channel=3 note=80 velocity=0 time=0.016786583333333334
EXTRACT: note_on channel=3 note=68 velocity=0 time=0
EXTRACT: note_on channel=9 note=46 velocity=0 time=0
EXTRACT: note_on channel=9 note=70 velocity=67 time=0.043165499999999996
EXTRACT: control_change channel=7 control=11 value=73 time=0.007194249999999999
EXTRACT: control_change channel=6 control=11 value=73 time=0.0023980833333333332
EXTRACT: note_on channel=9 note=42 velocity=108 time=0
EXTRACT: note_on channel=9 note=70 velocity=0 time=0.047961666666666666
EXTRACT: note_on channel=9 note=42 velocity=0 time=0.009592333333333333
EXTRACT: note_on channel=1 note=25 velocity=0 time=0.035971249999999996
EXTRACT: note_on channel=9 note=70 velocity=108 time=0.014388499999999999
EXTRACT: note_on channel=3 note=80 velocity=110 time=0.0047961666666666665
EXTRACT: note_on channel=3 note=68 velocity=80 time=0
EXTRACT: note_on channel=9 note=35 velocity=97 time=0.0023980833333333332
EXTRACT: control_change channel=7 control=11 value=78 time=0.031175083333333332
EXTRACT: control_change channel=6 control=11 value=78 time=0.0023980833333333332
EXTRACT: note_on channel=9 note=70 velocity=0 time=0.016786583333333334
EXTRACT: note_on channel=9 note=35 velocity=0 time=0.007194249999999999
EXTRACT: note_on channel=3 note=68 velocity=0 time=0.06714633333333334
EXTRACT: note_on channel=3 note=80 velocity=0 time=0
EXTRACT: note_on channel=1 note=25 velocity=120 time=0.09592333333333333
EXTRACT: note_on channel=3 note=68 velocity=78 time=0.007194249999999999
EXTRACT: note_on channel=3 note=80 velocity=108 time=0
EXTRACT: note_on channel=9 note=70 velocity=76 time=0
EXTRACT: note_on channel=9 note=46 velocity=61 time=0.014388499999999999
EXTRACT: note_on channel=9 note=70 velocity=0 time=0.043165499999999996
EXTRACT: control_change channel=7 control=11 value=83 time=0.011990416666666667
EXTRACT: control_change channel=6 control=11 value=83 time=0.0023980833333333332
EXTRACT: note_on channel=9 note=46 velocity=0 time=0
EXTRACT: note_on channel=9 note=70 velocity=67 time=0.04556358333333333
EXTRACT: note_on channel=9 note=42 velocity=108 time=0.007194249999999999
EXTRACT: control_change channel=7 control=11 value=87 time=0.03836933333333333
EXTRACT: control_change channel=6 control=11 value=87 time=0.0023980833333333332
EXTRACT: note_on channel=3 note=80 velocity=0 time=0.009592333333333333
EXTRACT: note_on channel=3 note=68 velocity=0 time=0
EXTRACT: note_on channel=9 note=70 velocity=0 time=0
EXTRACT: note_on channel=9 note=42 velocity=0 time=0.007194249999999999
EXTRACT: control_change channel=7 control=11 value=91 time=0.026378916666666665
EXTRACT: control_change channel=6 control=11 value=91 time=0.0023980833333333332
EXTRACT: note_on channel=1 note=25 velocity=0 time=0.007194249999999999
EXTRACT: note_on channel=3 note=80 velocity=110 time=0.0047961666666666665
EXTRACT: note_on channel=3 note=68 velocity=80 time=0
EXTRACT: control_change channel=7 control=11 value=95 time=0.009592333333333333
EXTRACT: control_change channel=6 control=11 value=95 time=0.0023980833333333332
EXTRACT: note_on channel=9 note=70 velocity=107 time=0
EXTRACT: note_on channel=9 note=40 velocity=54 time=0.007194249999999999
EXTRACT: note_on channel=9 note=37 velocity=91 time=0
EXTRACT: note_on channel=9 note=28 velocity=68 time=0
EXTRACT: note_on channel=9 note=39 velocity=72 time=0
EXTRACT: note_on channel=9 note=35 velocity=97 time=0
EXTRACT: note_on channel=9 note=28 velocity=0 time=0.0023980833333333332
EXTRACT: note_on channel=9 note=37 velocity=0 time=0
EXTRACT: note_on channel=9 note=39 velocity=55 time=0.028776999999999997
EXTRACT: control_change channel=7 control=11 value=100 time=0.007194249999999999
EXTRACT: control_change channel=6 control=11 value=100 time=0.0023980833333333332
EXTRACT: note_on channel=9 note=70 velocity=0 time=0.009592333333333333
EXTRACT: note_on channel=9 note=35 velocity=0 time=0.007194249999999999
EXTRACT: note_on channel=9 note=40 velocity=0 time=0
EXTRACT: note_on channel=9 note=39 velocity=0 time=0
EXTRACT: control_change channel=7 control=11 value=104 time=0.011990416666666667
EXTRACT: control_change channel=6 control=11 value=104 time=0.0023980833333333332
EXTRACT: note_on channel=9 note=39 velocity=0 time=0.016786583333333334
EXTRACT: control_change channel=7 control=11 value=108 time=0.011990416666666667
EXTRACT: control_change channel=6 control=11 value=108 time=0.0023980833333333332
EXTRACT: control_change channel=7 control=11 value=113 time=0.028776999999999997
EXTRACT: control_change channel=6 control=11 value=113 time=0.0023980833333333332
EXTRACT: note_on channel=3 note=68 velocity=0 time=0.021582749999999998
EXTRACT: note_on channel=3 note=80 velocity=0 time=0
EXTRACT: control_change channel=7 control=11 value=118 time=0.007194249999999999
EXTRACT: control_change channel=6 control=11 value=118 time=0.0023980833333333332
EXTRACT: note_on channel=7 note=49 velocity=0 time=0.03836933333333333
EXTRACT: note_on channel=6 note=61 velocity=0 time=0.0047961666666666665
EXTRACT: note_on channel=3 note=68 velocity=76 time=0.0023980833333333332
EXTRACT: note_on channel=3 note=80 velocity=105 time=0
EXTRACT: note_on channel=1 note=25 velocity=120 time=0.009592333333333333
EXTRACT: note_on channel=9 note=70 velocity=73 time=0.0047961666666666665
EXTRACT: note_on channel=9 note=46 velocity=61 time=0.016786583333333334
EXTRACT: note_on channel=9 note=70 velocity=0 time=0.04076741666666667
EXTRACT: note_on channel=9 note=46 velocity=0 time=0.016786583333333334
EXTRACT: note_on channel=9 note=70 velocity=67 time=0.043165499999999996
EXTRACT: note_on channel=9 note=42 velocity=109 time=0.007194249999999999
EXTRACT: note_on channel=9 note=70 velocity=0 time=0.050359749999999995
EXTRACT: note_on channel=9 note=42 velocity=0 time=0.007194249999999999
EXTRACT: note_on channel=3 note=80 velocity=0 time=0.009592333333333333
EXTRACT: note_on channel=3 note=68 velocity=0 time=0
EXTRACT: note_on channel=1 note=25 velocity=0 time=0.028776999999999997
EXTRACT: note_on channel=7 note=51 velocity=69 time=0.0047961666666666665
EXTRACT: note_on channel=6 note=63 velocity=70 time=0.0023980833333333332
EXTRACT: note_on channel=4 note=65 velocity=0 time=0.0023980833333333332
EXTRACT: note_on channel=4 note=61 velocity=0 time=0
EXTRACT: note_on channel=4 note=49 velocity=0 time=0
EXTRACT: note_on channel=4 note=68 velocity=0 time=0
EXTRACT: note_on channel=3 note=79 velocity=112 time=0.0047961666666666665
EXTRACT: note_on channel=3 note=67 velocity=81 time=0
EXTRACT: note_on channel=4 note=67 velocity=108 time=0
EXTRACT: note_on channel=4 note=63 velocity=105 time=0
EXTRACT: note_on channel=4 note=55 velocity=100 time=0
EXTRACT: note_on channel=4 note=70 velocity=107 time=0
EXTRACT: note_on channel=5 note=63 velocity=105 time=0
EXTRACT: note_on channel=9 note=70 velocity=108 time=0
EXTRACT: note_on channel=5 note=79 velocity=115 time=0.0023980833333333332
EXTRACT: note_on channel=11 note=51 velocity=127 time=0
EXTRACT: note_on channel=5 note=80 velocity=0 time=0.0023980833333333332
EXTRACT: control_change channel=7 control=11 value=117 time=0.0023980833333333332
EXTRACT: note_on channel=9 note=35 velocity=97 time=0
EXTRACT: control_change channel=6 control=11 value=117 time=0.0023980833333333332
EXTRACT: control_change channel=7 control=11 value=108 time=0.011990416666666667
EXTRACT: control_change channel=6 control=11 value=108 time=0.0023980833333333332
EXTRACT: note_on channel=11 note=51 velocity=0 time=0.009592333333333333
EXTRACT: control_change channel=7 control=11 value=98 time=0.0047961666666666665
EXTRACT: control_change channel=6 control=11 value=98 time=0.0023980833333333332
EXTRACT: control_change channel=5 control=11 value=59 time=0.0047961666666666665
EXTRACT: control_change channel=7 control=11 value=91 time=0.007194249999999999
EXTRACT: control_change channel=6 control=11 value=91 time=0.0023980833333333332
EXTRACT: note_on channel=9 note=70 velocity=0 time=0.0023980833333333332
EXTRACT: note_on channel=9 note=35 velocity=0 time=0.007194249999999999
EXTRACT: control_change channel=7 control=11 value=83 time=0.0047961666666666665
EXTRACT: control_change channel=6 control=11 value=83 time=0.0023980833333333332
EXTRACT: control_change channel=4 control=11 value=59 time=0.0023980833333333332
EXTRACT: control_change channel=7 control=11 value=76 time=0.009592333333333333
EXTRACT: control_change channel=6 control=11 value=76 time=0.0023980833333333332
EXTRACT: control_change channel=7 control=11 value=69 time=0.014388499999999999
EXTRACT: control_change channel=6 control=11 value=69 time=0.0023980833333333332
EXTRACT: control_change channel=7 control=11 value=65 time=0.011990416666666667
EXTRACT: control_change channel=6 control=11 value=65 time=0.0023980833333333332
EXTRACT: control_change channel=7 control=11 value=60 time=0.014388499999999999
EXTRACT: control_change channel=6 control=11 value=60 time=0.0023980833333333332
EXTRACT: control_change channel=7 control=11 value=54 time=0.028776999999999997
EXTRACT: control_change channel=6 control=11 value=54 time=0.0023980833333333332
EXTRACT: control_change channel=7 control=11 value=50 time=0.011990416666666667
EXTRACT: control_change channel=5 control=11 value=57 time=0.0023980833333333332
EXTRACT: control_change channel=6 control=11 value=50 time=0
EXTRACT: control_change channel=7 control=11 value=46 time=0.021582749999999998
EXTRACT: control_change channel=6 control=11 value=46 time=0.0023980833333333332
EXTRACT: control_change channel=4 control=11 value=61 time=0.009592333333333333
EXTRACT: note_on channel=1 note=27 velocity=124 time=0.014388499999999999
EXTRACT: note_on channel=9 note=70 velocity=77 time=0.007194249999999999
EXTRACT: note_on channel=9 note=46 velocity=61 time=0.014388499999999999
EXTRACT: note_on channel=9 note=70 velocity=0 time=0.043165499999999996
EXTRACT: note_on channel=9 note=46 velocity=0 time=0.014388499999999999
EXTRACT: control_change channel=7 control=11 value=42 time=0.0047961666666666665
EXTRACT: control_change channel=6 control=11 value=42 time=0.0023980833333333332
EXTRACT: note_on channel=9 note=70 velocity=67 time=0.035971249999999996
EXTRACT: note_on channel=9 note=42 velocity=113 time=0.009592333333333333
EXTRACT: note_on channel=9 note=70 velocity=0 time=0.047961666666666666
EXTRACT: note_on channel=9 note=42 velocity=0 time=0.009592333333333333
EXTRACT: note_on channel=3 note=67 velocity=0 time=0.014388499999999999
EXTRACT: note_on channel=3 note=79 velocity=0 time=0
EXTRACT: note_on channel=1 note=27 velocity=0 time=0.021582749999999998
EXTRACT: note_on channel=5 note=63 velocity=0 time=0.014388499999999999
EXTRACT: note_on channel=5 note=65 velocity=107 time=0
EXTRACT: control_change channel=7 control=11 value=46 time=0
EXTRACT: note_on channel=9 note=70 velocity=103 time=0
EXTRACT: note_on channel=5 note=79 velocity=0 time=0.0023980833333333332
EXTRACT: control_change channel=6 control=11 value=46 time=0
EXTRACT: note_on channel=11 note=44 velocity=127 time=0
EXTRACT: note_on channel=5 note=80 velocity=117 time=0.0023980833333333332
EXTRACT: note_on channel=9 note=37 velocity=91 time=0.0023980833333333332
EXTRACT: note_on channel=9 note=28 velocity=68 time=0
EXTRACT: note_on channel=9 note=39 velocity=67 time=0
EXTRACT: note_on channel=9 note=35 velocity=97 time=0
EXTRACT: note_on channel=9 note=28 velocity=0 time=0.0023980833333333332
EXTRACT: note_on channel=9 note=37 velocity=0 time=0
EXTRACT: note_on channel=3 note=68 velocity=81 time=0.0023980833333333332
EXTRACT: note_on channel=3 note=80 velocity=111 time=0
EXTRACT: note_on channel=9 note=40 velocity=65 time=0
EXTRACT: control_change channel=4 control=11 value=59 time=0.007194249999999999
EXTRACT: control_change channel=7 control=11 value=51 time=0.0023980833333333332
EXTRACT: control_change channel=6 control=11 value=51 time=0.0023980833333333332
EXTRACT: control_change channel=5 control=11 value=59 time=0.007194249999999999
EXTRACT: note_on channel=11 note=44 velocity=0 time=0.0023980833333333332
EXTRACT: note_on channel=9 note=39 velocity=50 time=0.0047961666666666665
EXTRACT: note_on channel=9 note=70 velocity=0 time=0.019184666666666666
EXTRACT: note_on channel=9 note=39 velocity=0 time=0.007194249999999999
EXTRACT: note_on channel=9 note=35 velocity=0 time=0
EXTRACT: note_on channel=9 note=40 velocity=0 time=0.0047961666666666665
EXTRACT: control_change channel=7 control=11 value=56 time=0.007194249999999999
EXTRACT: control_change channel=6 control=11 value=56 time=0.0023980833333333332
EXTRACT: note_on channel=9 note=39 velocity=0 time=0.016786583333333334
EXTRACT: control_change channel=5 control=11 value=57 time=0.10071949999999999
EXTRACT: control_change channel=4 control=11 value=57 time=0.009592333333333333
EXTRACT: control_change channel=7 control=11 value=61 time=0.0047961666666666665
EXTRACT: control_change channel=6 control=11 value=61 time=0.0023980833333333332
EXTRACT: control_change channel=7 control=11 value=64 time=0.0047961666666666665
EXTRACT: control_change channel=6 control=11 value=64 time=0.0023980833333333332
EXTRACT: note_on channel=9 note=70 velocity=75 time=0.0023980833333333332
EXTRACT: note_on channel=1 note=27 velocity=118 time=0.0047961666666666665
EXTRACT: note_on channel=9 note=46 velocity=62 time=0.021582749999999998
EXTRACT: control_change channel=7 control=11 value=66 time=0.023980833333333333
EXTRACT: control_change channel=6 control=11 value=66 time=0.0023980833333333332
EXTRACT: note_on channel=9 note=70 velocity=0 time=0.0047961666666666665
EXTRACT: note_on channel=9 note=46 velocity=0 time=0.026378916666666665
EXTRACT: note_on channel=9 note=70 velocity=67 time=0.04556358333333333
EXTRACT: note_on channel=9 note=42 velocity=111 time=0.007194249999999999
EXTRACT: note_on channel=9 note=70 velocity=0 time=0.050359749999999995
EXTRACT: note_on channel=9 note=42 velocity=0 time=0.007194249999999999
EXTRACT: note_on channel=3 note=80 velocity=0 time=0.023980833333333333
EXTRACT: note_on channel=3 note=68 velocity=0 time=0
EXTRACT: note_on channel=1 note=27 velocity=0 time=0.011990416666666667
EXTRACT: note_on channel=5 note=65 velocity=0 time=0.014388499999999999
EXTRACT: note_on channel=5 note=67 velocity=106 time=0.0023980833333333332
EXTRACT: note_on channel=9 note=70 velocity=103 time=0
EXTRACT: note_on channel=5 note=80 velocity=0 time=0.0023980833333333332
EXTRACT: note_on channel=5 note=82 velocity=119 time=0
EXTRACT: note_on channel=11 note=51 velocity=127 time=0
EXTRACT: note_on channel=9 note=35 velocity=97 time=0.0047961666666666665
EXTRACT: note_on channel=3 note=70 velocity=82 time=0.019184666666666666
EXTRACT: note_on channel=3 note=82 velocity=113 time=0
EXTRACT: control_change channel=5 control=11 value=59 time=0.0047961666666666665
EXTRACT: note_on channel=11 note=51 velocity=0 time=0.0023980833333333332
EXTRACT: note_on channel=9 note=70 velocity=0 time=0.023980833333333333
EXTRACT: control_change channel=7 control=11 value=71 time=0.0023980833333333332
EXTRACT: control_change channel=6 control=11 value=71 time=0.0023980833333333332
EXTRACT: note_on channel=9 note=35 velocity=0 time=0.0023980833333333332
EXTRACT: control_change channel=5 control=11 value=61 time=0.0047961666666666665
EXTRACT: control_change channel=5 control=11 value=59 time=0.062350166666666665
EXTRACT: control_change channel=7 control=11 value=75 time=0.021582749999999998
EXTRACT: control_change channel=6 control=11 value=75 time=0.0023980833333333332
EXTRACT: control_change channel=7 control=11 value=79 time=0.014388499999999999
EXTRACT: control_change channel=6 control=11 value=79 time=0.0023980833333333332
EXTRACT: control_change channel=5 control=11 value=57 time=0.021582749999999998
EXTRACT: control_change channel=7 control=11 value=85 time=0.021582749999999998
EXTRACT: control_change channel=6 control=11 value=85 time=0.0023980833333333332
EXTRACT: note_on channel=1 note=27 velocity=121 time=0.009592333333333333
EXTRACT: note_on channel=9 note=82 velocity=65 time=0.011990416666666667
EXTRACT: note_on channel=9 note=46 velocity=63 time=0.009592333333333333
EXTRACT: control_change channel=7 control=11 value=89 time=0.0047961666666666665
EXTRACT: control_change channel=6 control=11 value=89 time=0.0023980833333333332
EXTRACT: control_change channel=7 control=11 value=93 time=0.014388499999999999
EXTRACT: control_change channel=6 control=11 value=93 time=0.0023980833333333332
EXTRACT: note_on channel=9 note=82 velocity=0 time=0.023980833333333333
EXTRACT: control_change channel=7 control=11 value=98 time=0.0047961666666666665
EXTRACT: control_change channel=6 control=11 value=98 time=0.0023980833333333332
EXTRACT: note_on channel=9 note=46 velocity=0 time=0.0023980833333333332
EXTRACT: control_change channel=7 control=11 value=103 time=0.026378916666666665
EXTRACT: control_change channel=6 control=11 value=103 time=0.0023980833333333332
EXTRACT: control_change channel=7 control=11 value=108 time=0.021582749999999998
EXTRACT: note_on channel=9 note=82 velocity=57 time=0
EXTRACT: note_on channel=9 note=42 velocity=111 time=0
EXTRACT: control_change channel=6 control=11 value=108 time=0.0023980833333333332
EXTRACT: control_change channel=7 control=11 value=113 time=0.021582749999999998
EXTRACT: control_change channel=6 control=11 value=113 time=0.0023980833333333332
EXTRACT: control_change channel=7 control=11 value=117 time=0.011990416666666667
EXTRACT: control_change channel=6 control=11 value=117 time=0.0023980833333333332
EXTRACT: note_on channel=9 note=39 velocity=50 time=0
EXTRACT: note_on channel=9 note=42 velocity=0 time=0.016786583333333334
EXTRACT: note_on channel=9 note=82 velocity=0 time=0
EXTRACT: note_on channel=3 note=82 velocity=0 time=0.011990416666666667
EXTRACT: note_on channel=3 note=70 velocity=0 time=0
EXTRACT: note_on channel=7 note=51 velocity=0 time=0.014388499999999999
EXTRACT: note_on channel=6 note=63 velocity=0 time=0.009592333333333333
EXTRACT: note_on channel=1 note=27 velocity=0 time=0.0023980833333333332
EXTRACT: note_on channel=9 note=39 velocity=0 time=0.0023980833333333332
EXTRACT: note_on channel=5 note=67 velocity=0 time=0.011990416666666667
EXTRACT: note_on channel=5 note=68 velocity=107 time=0
EXTRACT: note_on channel=5 note=82 velocity=0 time=0.0023980833333333332
EXTRACT: note_on channel=5 note=84 velocity=120 time=0
EXTRACT: note_on channel=11 note=44 velocity=127 time=0
EXTRACT: note_on channel=3 note=84 velocity=111 time=0.0047961666666666665
EXTRACT: note_on channel=3 note=72 velocity=81 time=0
EXTRACT: note_on channel=9 note=40 velocity=56 time=0
EXTRACT: note_on channel=9 note=37 velocity=91 time=0
EXTRACT: note_on channel=9 note=28 velocity=68 time=0
EXTRACT: note_on channel=9 note=39 velocity=73 time=0
EXTRACT: note_on channel=9 note=82 velocity=71 time=0
EXTRACT: note_on channel=9 note=35 velocity=97 time=0
EXTRACT: note_on channel=9 note=28 velocity=0 time=0.0023980833333333332
EXTRACT: note_on channel=9 note=37 velocity=0 time=0
EXTRACT: note_on channel=11 note=44 velocity=0 time=0.023980833333333333
EXTRACT: note_on channel=9 note=39 velocity=55 time=0.0047961666666666665
EXTRACT: control_change channel=5 control=11 value=59 time=0.007194249999999999
EXTRACT: note_on channel=9 note=39 velocity=0 time=0.019184666666666666
EXTRACT: note_on channel=9 note=82 velocity=0 time=0
EXTRACT: note_on channel=9 note=40 velocity=0 time=0
EXTRACT: note_on channel=9 note=35 velocity=0 time=0
EXTRACT: note_on channel=9 note=39 velocity=0 time=0.031175083333333332
EXTRACT: control_change channel=5 control=11 value=57 time=0.08393291666666666
EXTRACT: note_on channel=7 note=51 velocity=71 time=0.04556358333333333
EXTRACT: note_on channel=1 note=27 velocity=122 time=0.0023980833333333332
EXTRACT: note_on channel=6 note=63 velocity=72 time=0
EXTRACT: note_on channel=9 note=82 velocity=53 time=0.014388499999999999
EXTRACT: note_on channel=9 note=46 velocity=62 time=0.007194249999999999
EXTRACT: note_on channel=3 note=72 velocity=0 time=0.009592333333333333
EXTRACT: note_on channel=3 note=84 velocity=0 time=0
EXTRACT: control_change channel=7 control=11 value=116 time=0.028776999999999997
EXTRACT: control_change channel=6 control=11 value=116 time=0.0023980833333333332
EXTRACT: note_on channel=9 note=82 velocity=0 time=0.009592333333333333
EXTRACT: note_on channel=9 note=46 velocity=0 time=0.007194249999999999
EXTRACT: control_change channel=7 control=11 value=112 time=0.0047961666666666665
EXTRACT: control_change channel=6 control=11 value=112 time=0.0023980833333333332
EXTRACT: control_change channel=7 control=11 value=107 time=0.019184666666666666
EXTRACT: control_change channel=6 control=11 value=107 time=0.0023980833333333332
EXTRACT: control_change channel=7 control=11 value=101 time=0.021582749999999998
EXTRACT: control_change channel=6 control=11 value=101 time=0.0023980833333333332
EXTRACT: note_on channel=9 note=82 velocity=50 time=0
EXTRACT: note_on channel=9 note=42 velocity=113 time=0
EXTRACT: control_change channel=7 control=11 value=96 time=0.028776999999999997
EXTRACT: control_change channel=6 control=11 value=96 time=0.0023980833333333332
EXTRACT: note_on channel=9 note=42 velocity=0 time=0.026378916666666665
EXTRACT: note_on channel=9 note=82 velocity=0 time=0
EXTRACT: control_change channel=7 control=11 value=92 time=0.009592333333333333
EXTRACT: control_change channel=6 control=11 value=92 time=0.0023980833333333332
EXTRACT: note_on channel=7 note=51 velocity=0 time=0.021582749999999998
EXTRACT: note_on channel=1 note=27 velocity=0 time=0.0023980833333333332
EXTRACT: note_on channel=6 note=63 velocity=0 time=0
EXTRACT: note_on channel=7 note=44 velocity=71 time=0.0047961666666666665
EXTRACT: note_on channel=6 note=56 velocity=70 time=0.0023980833333333332
EXTRACT: note_on channel=4 note=70 velocity=0 time=0.007194249999999999
EXTRACT: note_on channel=4 note=67 velocity=0 time=0
EXTRACT: note_on channel=4 note=63 velocity=0 time=0
EXTRACT: note_on channel=4 note=55 velocity=0 time=0
EXTRACT: note_on channel=4 note=51 velocity=97 time=0
EXTRACT: note_on channel=4 note=68 velocity=107 time=0
EXTRACT: note_on channel=4 note=60 velocity=103 time=0
EXTRACT: note_on channel=4 note=63 velocity=105 time=0
EXTRACT: note_on channel=5 note=68 velocity=0 time=0
EXTRACT: note_on channel=9 note=70 velocity=103 time=0
EXTRACT: note_on channel=5 note=84 velocity=0 time=0.0023980833333333332
EXTRACT: note_on channel=11 note=52 velocity=127 time=0
EXTRACT: note_on channel=5 note=80 velocity=117 time=0.0047961666666666665
EXTRACT: note_on channel=9 note=35 velocity=97 time=0
EXTRACT: note_on channel=11 note=52 velocity=0 time=0.026378916666666665
EXTRACT: control_change channel=7 control=11 value=118 time=0.011990416666666667
EXTRACT: control_change channel=6 control=11 value=118 time=0.0023980833333333332
EXTRACT: note_on channel=9 note=70 velocity=0 time=0.009592333333333333
EXTRACT: note_on channel=9 note=35 velocity=0 time=0.007194249999999999
EXTRACT: control_change channel=4 control=11 value=59 time=0.009592333333333333
EXTRACT: control_change channel=7 control=11 value=113 time=0.0023980833333333332
EXTRACT: control_change channel=5 control=11 value=59 time=0.0023980833333333332
EXTRACT: control_change channel=6 control=11 value=113 time=0
EXTRACT: control_change channel=7 control=11 value=106 time=0.028776999999999997
EXTRACT: control_change channel=6 control=11 value=106 time=0.0023980833333333332
EXTRACT: control_change channel=7 control=11 value=102 time=0.028776999999999997
EXTRACT: control_change channel=6 control=11 value=102 time=0.0023980833333333332
EXTRACT: control_change channel=7 control=11 value=98 time=0.028776999999999997
EXTRACT: control_change channel=6 control=11 value=98 time=0.0023980833333333332
EXTRACT: control_change channel=4 control=11 value=61 time=0.043165499999999996
EXTRACT: note_on channel=7 note=44 velocity=0 time=0
EXTRACT: control_change channel=5 control=11 value=61 time=0.0023980833333333332
EXTRACT: note_on channel=6 note=56 velocity=0 time=0
EXTRACT: control_change channel=7 control=11 value=120 time=0
EXTRACT: control_change channel=6 control=11 value=120 time=0.0023980833333333332
EXTRACT: note_on channel=7 note=44 velocity=66 time=0.0047961666666666665
EXTRACT: note_on channel=1 note=32 velocity=126 time=0.0023980833333333332
EXTRACT: note_on channel=6 note=56 velocity=62 time=0
EXTRACT: note_on channel=9 note=70 velocity=77 time=0.007194249999999999
EXTRACT: note_on channel=3 note=56 velocity=80 time=0.007194249999999999
EXTRACT: note_on channel=3 note=68 velocity=110 time=0
EXTRACT: control_change channel=7 control=11 value=114 time=0.007194249999999999
EXTRACT: note_on channel=9 note=46 velocity=61 time=0
EXTRACT: control_change channel=6 control=11 value=114 time=0.0023980833333333332
EXTRACT: control_change channel=7 control=11 value=103 time=0.011990416666666667
EXTRACT: control_change channel=6 control=11 value=103 time=0.0023980833333333332
EXTRACT: control_change channel=7 control=11 value=94 time=0.014388499999999999
EXTRACT: control_change channel=6 control=11 value=94 time=0.0023980833333333332
EXTRACT: note_on channel=3 note=68 velocity=0 time=0.0047961666666666665
EXTRACT: note_on channel=3 note=56 velocity=0 time=0
EXTRACT: note_on channel=9 note=70 velocity=0 time=0.0047961666666666665
EXTRACT: control_change channel=7 control=11 value=88 time=0.0023980833333333332
EXTRACT: control_change channel=6 control=11 value=88 time=0.0023980833333333332
EXTRACT: note_on channel=9 note=46 velocity=0 time=0.009592333333333333
EXTRACT: control_change channel=7 control=11 value=80 time=0.0047961666666666665
EXTRACT: control_change channel=6 control=11 value=80 time=0.0023980833333333332
EXTRACT: control_change channel=7 control=11 value=73 time=0.011990416666666667
EXTRACT: control_change channel=6 control=11 value=73 time=0.0023980833333333332
EXTRACT: control_change channel=7 control=11 value=68 time=0.014388499999999999
EXTRACT: control_change channel=6 control=11 value=68 time=0.0023980833333333332
EXTRACT: note_on channel=9 note=70 velocity=67 time=0.007194249999999999
EXTRACT: control_change channel=7 control=11 value=63 time=0.0047961666666666665
EXTRACT: control_change channel=6 control=11 value=63 time=0.0023980833333333332
EXTRACT: note_on channel=9 note=42 velocity=109 time=0
EXTRACT: control_change channel=7 control=11 value=58 time=0.021582749999999998
EXTRACT: control_change channel=6 control=11 value=58 time=0.0023980833333333332
EXTRACT: control_change channel=7 control=11 value=53 time=0.021582749999999998
EXTRACT: control_change channel=6 control=11 value=53 time=0.0023980833333333332
EXTRACT: note_on channel=9 note=70 velocity=0 time=0.0023980833333333332
EXTRACT: note_on channel=9 note=42 velocity=0 time=0.007194249999999999
EXTRACT: control_change channel=7 control=11 value=49 time=0.0047961666666666665
EXTRACT: control_change channel=6 control=11 value=49 time=0.0023980833333333332
EXTRACT: note_on channel=1 note=32 velocity=0 time=0.028776999999999997
EXTRACT: control_change channel=7 control=11 value=45 time=0
EXTRACT: control_change channel=6 control=11 value=45 time=0.0023980833333333332
EXTRACT: note_on channel=9 note=70 velocity=108 time=0.014388499999999999
EXTRACT: note_on channel=11 note=52 velocity=127 time=0.0023980833333333332
EXTRACT: note_on channel=9 note=37 velocity=91 time=0.0047961666666666665
EXTRACT: note_on channel=9 note=28 velocity=68 time=0
EXTRACT: note_on channel=9 note=39 velocity=67 time=0
EXTRACT: note_on channel=9 note=35 velocity=97 time=0
EXTRACT: note_on channel=9 note=28 velocity=0 time=0.0023980833333333332
EXTRACT: note_on channel=9 note=37 velocity=0 time=0
EXTRACT: note_on channel=9 note=40 velocity=64 time=0
EXTRACT: note_on channel=3 note=68 velocity=113 time=0.0047961666666666665
EXTRACT: note_on channel=3 note=56 velocity=82 time=0
EXTRACT: control_change channel=4 control=11 value=59 time=0.0047961666666666665
EXTRACT: control_change channel=5 control=11 value=59 time=0.0023980833333333332
EXTRACT: note_on channel=11 note=52 velocity=0 time=0.011990416666666667
EXTRACT: note_on channel=9 note=39 velocity=50 time=0.0047961666666666665
EXTRACT: note_on channel=9 note=70 velocity=0 time=0.019184666666666666
EXTRACT: note_on channel=9 note=39 velocity=0 time=0.007194249999999999
EXTRACT: note_on channel=9 note=35 velocity=0 time=0
EXTRACT: note_on channel=9 note=40 velocity=0 time=0.0023980833333333332
EXTRACT: note_on channel=9 note=39 velocity=0 time=0.028776999999999997
EXTRACT: control_change channel=4 control=11 value=57 time=0.11031183333333333
EXTRACT: control_change channel=5 control=11 value=57 time=0.0023980833333333332
EXTRACT: control_change channel=7 control=11 value=45 time=0
EXTRACT: control_change channel=6 control=11 value=45 time=0.0023980833333333332
EXTRACT: note_on channel=9 note=70 velocity=75 time=0.009592333333333333
EXTRACT: note_on channel=1 note=32 velocity=118 time=0.007194249999999999
EXTRACT: control_change channel=7 control=11 value=50 time=0.019184666666666666
EXTRACT: control_change channel=6 control=11 value=50 time=0.0023980833333333332
EXTRACT: note_on channel=9 note=46 velocity=59 time=0
EXTRACT: note_on channel=9 note=70 velocity=0 time=0.028776999999999997
EXTRACT: note_on channel=3 note=56 velocity=0 time=0.0047961666666666665
EXTRACT: note_on channel=3 note=68 velocity=0 time=0
EXTRACT: control_change channel=7 control=11 value=54 time=0.0047961666666666665
EXTRACT: control_change channel=6 control=11 value=54 time=0.0023980833333333332
EXTRACT: note_on channel=9 note=46 velocity=0 time=0.016786583333333334
EXTRACT: note_on channel=9 note=70 velocity=67 time=0.043165499999999996
EXTRACT: control_change channel=7 control=11 value=59 time=0.007194249999999999
EXTRACT: note_on channel=9 note=42 velocity=108 time=0
EXTRACT: control_change channel=6 control=11 value=59 time=0.0023980833333333332
EXTRACT: note_on channel=9 note=70 velocity=0 time=0.047961666666666666
EXTRACT: note_on channel=9 note=42 velocity=0 time=0.007194249999999999
EXTRACT: control_change channel=7 control=11 value=64 time=0.035971249999999996
EXTRACT: note_on channel=1 note=32 velocity=0 time=0.0023980833333333332
EXTRACT: control_change channel=6 control=11 value=64 time=0
EXTRACT: note_on channel=3 note=60 velocity=81 time=0.009592333333333333
EXTRACT: note_on channel=3 note=72 velocity=112 time=0
EXTRACT: note_on channel=9 note=70 velocity=108 time=0.0047961666666666665
EXTRACT: note_on channel=9 note=35 velocity=97 time=0.007194249999999999
EXTRACT: note_on channel=9 note=70 velocity=0 time=0.050359749999999995
EXTRACT: note_on channel=9 note=35 velocity=0 time=0.007194249999999999
EXTRACT: note_on channel=3 note=72 velocity=0 time=0.06954441666666666
EXTRACT: note_on channel=3 note=60 velocity=0 time=0
EXTRACT: control_change channel=7 control=11 value=68 time=0.028776999999999997
EXTRACT: control_change channel=6 control=11 value=68 time=0.0023980833333333332
EXTRACT: note_on channel=3 note=60 velocity=79 time=0.05995208333333333
EXTRACT: note_on channel=3 note=72 velocity=109 time=0
EXTRACT: note_on channel=1 note=32 velocity=121 time=0.0023980833333333332
EXTRACT: note_on channel=9 note=70 velocity=76 time=0.007194249999999999
EXTRACT: note_on channel=9 note=46 velocity=61 time=0.014388499999999999
EXTRACT: note_on channel=9 note=70 velocity=0 time=0.043165499999999996
EXTRACT: control_change channel=7 control=11 value=72 time=0.009592333333333333
EXTRACT: control_change channel=6 control=11 value=72 time=0.0023980833333333332
EXTRACT: note_on channel=9 note=46 velocity=0 time=0.0023980833333333332
EXTRACT: note_on channel=9 note=70 velocity=67 time=0.043165499999999996
EXTRACT: note_on channel=9 note=42 velocity=108 time=0.009592333333333333
EXTRACT: control_change channel=7 control=11 value=76 time=0.028776999999999997
EXTRACT: control_change channel=6 control=11 value=76 time=0.0023980833333333332
EXTRACT: note_on channel=9 note=70 velocity=0 time=0.016786583333333334
EXTRACT: control_change channel=7 control=11 value=80 time=0.0047961666666666665
EXTRACT: control_change channel=6 control=11 value=80 time=0.0023980833333333332
EXTRACT: note_on channel=9 note=42 velocity=0 time=0.0023980833333333332
EXTRACT: note_on channel=3 note=72 velocity=0 time=0.016786583333333334
EXTRACT: note_on channel=3 note=60 velocity=0 time=0
EXTRACT: control_change channel=7 control=11 value=84 time=0.009592333333333333
EXTRACT: control_change channel=6 control=11 value=84 time=0.0023980833333333332
EXTRACT: note_on channel=1 note=32 velocity=0 time=0.007194249999999999
EXTRACT: note_on channel=9 note=70 velocity=107 time=0.014388499999999999
EXTRACT: note_on channel=3 note=75 velocity=113 time=0.007194249999999999
EXTRACT: note_on channel=3 note=63 velocity=82 time=0
EXTRACT: note_on channel=9 note=40 velocity=54 time=0
EXTRACT: note_on channel=9 note=37 velocity=91 time=0
EXTRACT: note_on channel=9 note=28 velocity=68 time=0
EXTRACT: note_on channel=9 note=39 velocity=72 time=0
EXTRACT: note_on channel=9 note=35 velocity=97 time=0
EXTRACT: note_on channel=9 note=28 velocity=0 time=0.0023980833333333332
EXTRACT: note_on channel=9 note=37 velocity=0 time=0
EXTRACT: control_change channel=7 control=11 value=90 time=0.014388499999999999
EXTRACT: control_change channel=6 control=11 value=90 time=0.0023980833333333332
EXTRACT: note_on channel=9 note=39 velocity=55 time=0.014388499999999999
EXTRACT: control_change channel=7 control=11 value=95 time=0.014388499999999999
EXTRACT: control_change channel=6 control=11 value=95 time=0.0023980833333333332
EXTRACT: note_on channel=9 note=70 velocity=0 time=0
EXTRACT: note_on channel=9 note=35 velocity=0 time=0.007194249999999999
EXTRACT: note_on channel=9 note=40 velocity=0 time=0
EXTRACT: note_on channel=9 note=39 velocity=0 time=0
EXTRACT: control_change channel=7 control=11 value=101 time=0.021582749999999998
EXTRACT: control_change channel=6 control=11 value=101 time=0.0023980833333333332
EXTRACT: note_on channel=9 note=39 velocity=0 time=0.009592333333333333
EXTRACT: control_change channel=7 control=11 value=105 time=0.009592333333333333
EXTRACT: control_change channel=6 control=11 value=105 time=0.0023980833333333332
EXTRACT: control_change channel=7 control=11 value=111 time=0.028776999999999997
EXTRACT: control_change channel=6 control=11 value=111 time=0.0023980833333333332
EXTRACT: control_change channel=7 control=11 value=115 time=0.014388499999999999
EXTRACT: control_change channel=6 control=11 value=115 time=0.0023980833333333332
EXTRACT: control_change channel=7 control=11 value=119 time=0.021582749999999998
EXTRACT: control_change channel=6 control=11 value=119 time=0.0023980833333333332
EXTRACT: note_on channel=7 note=44 velocity=0 time=0.026378916666666665
EXTRACT: note_on channel=6 note=56 velocity=0 time=0.009592333333333333
EXTRACT: note_on channel=1 note=32 velocity=121 time=0.009592333333333333
EXTRACT: note_on channel=9 note=70 velocity=73 time=0.007194249999999999
EXTRACT: note_on channel=9 note=46 velocity=61 time=0.014388499999999999
EXTRACT: note_on channel=3 note=63 velocity=0 time=0.007194249999999999
EXTRACT: note_on channel=3 note=75 velocity=0 time=0
EXTRACT: note_on channel=9 note=70 velocity=0 time=0.035971249999999996
EXTRACT: note_on channel=9 note=46 velocity=0 time=0.014388499999999999
EXTRACT: note_on channel=9 note=70 velocity=67 time=0.04556358333333333
EXTRACT: note_on channel=9 note=42 velocity=109 time=0.007194249999999999
EXTRACT: note_on channel=9 note=70 velocity=0 time=0.050359749999999995
EXTRACT: note_on channel=9 note=42 velocity=0 time=0.007194249999999999
EXTRACT: note_on channel=1 note=32 velocity=0 time=0.035971249999999996
EXTRACT: note_on channel=7 note=48 velocity=67 time=0.007194249999999999
EXTRACT: note_on channel=6 note=60 velocity=67 time=0.0023980833333333332
EXTRACT: note_on channel=4 note=63 velocity=0 time=0.0047961666666666665
EXTRACT: note_on channel=4 note=51 velocity=0 time=0
EXTRACT: note_on channel=4 note=68 velocity=0 time=0
EXTRACT: note_on channel=4 note=60 velocity=0 time=0
EXTRACT: note_on channel=4 note=48 velocity=98 time=0.0023980833333333332
EXTRACT: note_on channel=4 note=63 velocity=104 time=0
EXTRACT: note_on channel=4 note=67 velocity=106 time=0
EXTRACT: note_on channel=4 note=60 velocity=103 time=0
EXTRACT: note_on channel=9 note=70 velocity=108 time=0
EXTRACT: note_on channel=5 note=79 velocity=112 time=0.0023980833333333332
EXTRACT: note_on channel=5 note=80 velocity=0 time=0.0023980833333333332
EXTRACT: note_on channel=9 note=35 velocity=97 time=0.0023980833333333332
EXTRACT: note_on channel=3 note=67 velocity=81 time=0.007194249999999999
EXTRACT: note_on channel=3 note=79 velocity=112 time=0
EXTRACT: control_change channel=7 control=11 value=115 time=0
EXTRACT: control_change channel=6 control=11 value=115 time=0.0023980833333333332
EXTRACT: control_change channel=7 control=11 value=106 time=0.011990416666666667
EXTRACT: control_change channel=6 control=11 value=106 time=0.0023980833333333332
EXTRACT: control_change channel=5 control=11 value=59 time=0.007194249999999999
EXTRACT: control_change channel=7 control=11 value=98 time=0.007194249999999999
EXTRACT: control_change channel=6 control=11 value=98 time=0.0023980833333333332
EXTRACT: control_change channel=4 control=11 value=59 time=0.0023980833333333332
EXTRACT: note_on channel=9 note=70 velocity=0 time=0.007194249999999999
EXTRACT: control_change channel=7 control=11 value=93 time=0.0023980833333333332
EXTRACT: control_change channel=6 control=11 value=93 time=0.0023980833333333332
EXTRACT: note_on channel=9 note=35 velocity=0 time=0.0023980833333333332
EXTRACT: control_change channel=7 control=11 value=86 time=0.011990416666666667
EXTRACT: control_change channel=6 control=11 value=86 time=0.0023980833333333332
EXTRACT: control_change channel=7 control=11 value=80 time=0.011990416666666667
EXTRACT: control_change channel=6 control=11 value=80 time=0.0023980833333333332
EXTRACT: control_change channel=7 control=11 value=76 time=0.014388499999999999
EXTRACT: control_change channel=6 control=11 value=76 time=0.0023980833333333332
EXTRACT: control_change channel=7 control=11 value=72 time=0.011990416666666667
EXTRACT: control_change channel=6 control=11 value=72 time=0.0023980833333333332
EXTRACT: control_change channel=7 control=11 value=68 time=0.021582749999999998
EXTRACT: control_change channel=6 control=11 value=68 time=0.0023980833333333332
EXTRACT: control_change channel=4 control=11 value=61 time=0.0023980833333333332
EXTRACT: control_change channel=7 control=11 value=63 time=0.019184666666666666
EXTRACT: control_change channel=6 control=11 value=63 time=0.0023980833333333332
EXTRACT: control_change channel=5 control=11 value=57 time=0.014388499999999999
EXTRACT: control_change channel=7 control=11 value=58 time=0.014388499999999999
EXTRACT: control_change channel=6 control=11 value=58 time=0.0023980833333333332
EXTRACT: note_on channel=1 note=36 velocity=116 time=0.023980833333333333
EXTRACT: note_on channel=9 note=70 velocity=77 time=0.0047961666666666665
EXTRACT: note_on channel=9 note=46 velocity=61 time=0.016786583333333334
EXTRACT: note_on channel=9 note=70 velocity=0 time=0.04076741666666667
EXTRACT: note_on channel=9 note=46 velocity=0 time=0.016786583333333334
EXTRACT: control_change channel=7 control=11 value=54 time=0.011990416666666667
EXTRACT: control_change channel=6 control=11 value=54 time=0.0023980833333333332
EXTRACT: note_on channel=9 note=70 velocity=67 time=0.028776999999999997
EXTRACT: note_on channel=9 note=42 velocity=113 time=0.007194249999999999
EXTRACT: note_on channel=3 note=79 velocity=0 time=0.04556358333333333
EXTRACT: note_on channel=3 note=67 velocity=0 time=0
EXTRACT: note_on channel=9 note=70 velocity=0 time=0.0047961666666666665
EXTRACT: note_on channel=9 note=42 velocity=0 time=0.007194249999999999
EXTRACT: note_on channel=1 note=36 velocity=0 time=0.03836933333333333
EXTRACT: control_change channel=7 control=11 value=58 time=0.011990416666666667
EXTRACT: control_change channel=6 control=11 value=58 time=0.0023980833333333332
EXTRACT: note_on channel=9 note=70 velocity=103 time=0
EXTRACT: note_on channel=9 note=37 velocity=91 time=0.007194249999999999
EXTRACT: note_on channel=9 note=28 velocity=68 time=0
EXTRACT: note_on channel=9 note=39 velocity=67 time=0
EXTRACT: note_on channel=9 note=35 velocity=97 time=0
EXTRACT: note_on channel=9 note=28 velocity=0 time=0.0023980833333333332
EXTRACT: note_on channel=9 note=37 velocity=0 time=0
EXTRACT: note_on channel=9 note=40 velocity=65 time=0.0023980833333333332
EXTRACT: note_on channel=3 note=82 velocity=111 time=0.0023980833333333332
EXTRACT: note_on channel=3 note=70 velocity=81 time=0
EXTRACT: control_change channel=7 control=11 value=62 time=0.007194249999999999
EXTRACT: control_change channel=6 control=11 value=62 time=0.0023980833333333332
EXTRACT: note_on channel=9 note=39 velocity=50 time=0.014388499999999999
EXTRACT: note_on channel=9 note=70 velocity=0 time=0.019184666666666666
EXTRACT: note_on channel=9 note=39 velocity=0 time=0.007194249999999999
EXTRACT: note_on channel=9 note=35 velocity=0 time=0
EXTRACT: control_change channel=4 control=11 value=59 time=0.0023980833333333332
EXTRACT: note_on channel=9 note=40 velocity=0 time=0.0023980833333333332
EXTRACT: control_change channel=7 control=11 value=67 time=0.007194249999999999
EXTRACT: control_change channel=6 control=11 value=67 time=0.0023980833333333332
EXTRACT: note_on channel=9 note=39 velocity=0 time=0.016786583333333334
EXTRACT: note_on channel=3 note=70 velocity=0 time=0.07673866666666666
EXTRACT: note_on channel=3 note=82 velocity=0 time=0
EXTRACT: control_change channel=7 control=11 value=73 time=0.04556358333333333
EXTRACT: control_change channel=6 control=11 value=73 time=0.0023980833333333332
EXTRACT: note_on channel=9 note=70 velocity=75 time=0.0023980833333333332
EXTRACT: note_on channel=1 note=36 velocity=115 time=0.0047961666666666665
EXTRACT: control_change channel=4 control=11 value=57 time=0.009592333333333333
EXTRACT: note_on channel=3 note=67 velocity=81 time=0.011990416666666667
EXTRACT: note_on channel=3 note=79 velocity=111 time=0
EXTRACT: note_on channel=9 note=46 velocity=62 time=0
EXTRACT: note_on channel=9 note=70 velocity=0 time=0.031175083333333332
EXTRACT: note_on channel=9 note=46 velocity=0 time=0.026378916666666665
EXTRACT: note_on channel=9 note=70 velocity=67 time=0.043165499999999996
EXTRACT: note_on channel=9 note=42 velocity=111 time=0.009592333333333333
EXTRACT: note_on channel=9 note=70 velocity=0 time=0.047961666666666666
EXTRACT: note_on channel=9 note=42 velocity=0 time=0.009592333333333333
EXTRACT: note_on channel=3 note=79 velocity=0 time=0.007194249999999999
EXTRACT: note_on channel=3 note=67 velocity=0 time=0
EXTRACT: note_on channel=1 note=36 velocity=0 time=0.028776999999999997
EXTRACT: note_on channel=5 note=82 velocity=113 time=0.014388499999999999
EXTRACT: control_change channel=7 control=11 value=78 time=0
EXTRACT: note_on channel=9 note=70 velocity=103 time=0
EXTRACT: note_on channel=5 note=79 velocity=0 time=0.0023980833333333332
EXTRACT: control_change channel=6 control=11 value=78 time=0
EXTRACT: note_on channel=9 note=35 velocity=97 time=0.007194249999999999
EXTRACT: control_change channel=5 control=11 value=59 time=0.03357316666666667
EXTRACT: note_on channel=9 note=70 velocity=0 time=0.014388499999999999
EXTRACT: note_on channel=9 note=35 velocity=0 time=0.009592333333333333
EXTRACT: control_change channel=7 control=11 value=83 time=0.08872908333333333
EXTRACT: control_change channel=6 control=11 value=83 time=0.0023980833333333332
EXTRACT: control_change channel=5 control=11 value=57 time=0.026378916666666665
EXTRACT: control_change channel=7 control=11 value=88 time=0.016786583333333334
EXTRACT: control_change channel=6 control=11 value=88 time=0.0023980833333333332
EXTRACT: note_on channel=3 note=63 velocity=78 time=0.007194249999999999
EXTRACT: note_on channel=3 note=75 velocity=107 time=0
EXTRACT: note_on channel=1 note=36 velocity=117 time=0.016786583333333334
EXTRACT: control_change channel=7 control=11 value=93 time=0.0047961666666666665
EXTRACT: control_change channel=6 control=11 value=93 time=0.0023980833333333332
EXTRACT: note_on channel=9 note=82 velocity=65 time=0.007194249999999999
EXTRACT: note_on channel=9 note=46 velocity=63 time=0.007194249999999999
EXTRACT: control_change channel=7 control=11 value=98 time=0.031175083333333332
EXTRACT: control_change channel=6 control=11 value=98 time=0.0023980833333333332
EXTRACT: note_on channel=9 note=82 velocity=0 time=0.016786583333333334
EXTRACT: note_on channel=9 note=46 velocity=0 time=0.007194249999999999
EXTRACT: control_change channel=7 control=11 value=103 time=0.0047961666666666665
EXTRACT: control_change channel=6 control=11 value=103 time=0.0023980833333333332
EXTRACT: control_change channel=7 control=11 value=107 time=0.028776999999999997
EXTRACT: control_change channel=6 control=11 value=107 time=0.0023980833333333332
EXTRACT: note_on channel=9 note=82 velocity=57 time=0.014388499999999999
EXTRACT: note_on channel=9 note=42 velocity=111 time=0
EXTRACT: control_change channel=7 control=11 value=113 time=0.014388499999999999
EXTRACT: control_change channel=6 control=11 value=113 time=0.0023980833333333332
EXTRACT: control_change channel=7 control=11 value=117 time=0.021582749999999998
EXTRACT: note_on channel=9 note=39 velocity=50 time=0
EXTRACT: control_change channel=6 control=11 value=117 time=0.0023980833333333332
EXTRACT: note_on channel=3 note=75 velocity=0 time=0.016786583333333334
EXTRACT: note_on channel=3 note=63 velocity=0 time=0
EXTRACT: note_on channel=9 note=42 velocity=0 time=0
EXTRACT: note_on channel=9 note=82 velocity=0 time=0
EXTRACT: note_on channel=7 note=48 velocity=0 time=0.026378916666666665
EXTRACT: note_on channel=1 note=36 velocity=0 time=0.009592333333333333
EXTRACT: note_on channel=6 note=60 velocity=0 time=0
EXTRACT: note_on channel=9 note=39 velocity=0 time=0.0023980833333333332
EXTRACT: note_on channel=3 note=82 velocity=116 time=0.014388499999999999
EXTRACT: note_on channel=3 note=70 velocity=84 time=0
EXTRACT: note_on channel=9 note=40 velocity=56 time=0.007194249999999999
EXTRACT: note_on channel=9 note=37 velocity=91 time=0
EXTRACT: note_on channel=9 note=28 velocity=68 time=0
EXTRACT: note_on channel=9 note=39 velocity=73 time=0
EXTRACT: note_on channel=9 note=82 velocity=71 time=0
EXTRACT: note_on channel=9 note=35 velocity=97 time=0
EXTRACT: note_on channel=9 note=28 velocity=0 time=0.0023980833333333332
EXTRACT: note_on channel=9 note=37 velocity=0 time=0
EXTRACT: note_on channel=9 note=39 velocity=55 time=0.028776999999999997
EXTRACT: note_on channel=9 note=39 velocity=0 time=0.026378916666666665
EXTRACT: note_on channel=9 note=82 velocity=0 time=0
EXTRACT: note_on channel=9 note=40 velocity=0 time=0
EXTRACT: note_on channel=9 note=35 velocity=0 time=0
EXTRACT: note_on channel=9 note=39 velocity=0 time=0.031175083333333332
EXTRACT: note_on channel=3 note=70 velocity=0 time=0.10311758333333333
EXTRACT: note_on channel=3 note=82 velocity=0 time=0
EXTRACT: note_on channel=7 note=48 velocity=71 time=0.026378916666666665
EXTRACT: note_on channel=1 note=36 velocity=112 time=0.0023980833333333332
EXTRACT: note_on channel=6 note=60 velocity=70 time=0
EXTRACT: note_on channel=9 note=82 velocity=53 time=0.014388499999999999
EXTRACT: note_on channel=3 note=68 velocity=81 time=0.0023980833333333332
EXTRACT: note_on channel=3 note=80 velocity=111 time=0
EXTRACT: note_on channel=9 note=46 velocity=62 time=0.0047961666666666665
EXTRACT: control_change channel=7 control=11 value=117 time=0.03836933333333333
EXTRACT: control_change channel=6 control=11 value=117 time=0.0023980833333333332
EXTRACT: note_on channel=9 note=82 velocity=0 time=0.009592333333333333
EXTRACT: note_on channel=9 note=46 velocity=0 time=0.007194249999999999
EXTRACT: control_change channel=7 control=11 value=112 time=0.019184666666666666
EXTRACT: control_change channel=6 control=11 value=112 time=0.0023980833333333332
EXTRACT: note_on channel=3 note=80 velocity=0 time=0.019184666666666666
EXTRACT: note_on channel=3 note=68 velocity=0 time=0
EXTRACT: control_change channel=7 control=11 value=106 time=0.009592333333333333
EXTRACT: note_on channel=9 note=82 velocity=50 time=0
EXTRACT: note_on channel=9 note=42 velocity=113 time=0
EXTRACT: control_change channel=6 control=11 value=106 time=0.0023980833333333332
EXTRACT: control_change channel=7 control=11 value=102 time=0.035971249999999996
EXTRACT: control_change channel=6 control=11 value=102 time=0.0023980833333333332
EXTRACT: note_on channel=9 note=42 velocity=0 time=0.016786583333333334
EXTRACT: note_on channel=9 note=82 velocity=0 time=0
EXTRACT: note_on channel=7 note=48 velocity=0 time=0.035971249999999996
EXTRACT: control_change channel=7 control=11 value=120 time=0
EXTRACT: note_on channel=1 note=36 velocity=0 time=0.0023980833333333332
EXTRACT: note_on channel=6 note=60 velocity=0 time=0
EXTRACT: control_change channel=6 control=11 value=120 time=0
EXTRACT: note_on channel=7 note=49 velocity=72 time=0.0047961666666666665
EXTRACT: note_on channel=6 note=61 velocity=72 time=0.0023980833333333332
EXTRACT: note_on channel=4 note=68 velocity=107 time=0.0023980833333333332
EXTRACT: note_on channel=4 note=65 velocity=105 time=0
EXTRACT: note_on channel=4 note=61 velocity=103 time=0
EXTRACT: note_on channel=4 note=49 velocity=97 time=0
EXTRACT: note_on channel=5 note=80 velocity=111 time=0
EXTRACT: note_on channel=5 note=82 velocity=0 time=0.0023980833333333332
EXTRACT: note_on channel=4 note=60 velocity=0 time=0.0023980833333333332
EXTRACT: note_on channel=4 note=67 velocity=0 time=0
EXTRACT: note_on channel=4 note=48 velocity=0 time=0
EXTRACT: note_on channel=4 note=63 velocity=0 time=0
EXTRACT: note_on channel=9 note=70 velocity=103 time=0
EXTRACT: note_on channel=9 note=35 velocity=97 time=0.007194249999999999
EXTRACT: control_change channel=7 control=11 value=115 time=0.04556358333333333
EXTRACT: control_change channel=6 control=11 value=115 time=0.0023980833333333332
EXTRACT: note_on channel=9 note=70 velocity=0 time=0.0023980833333333332
EXTRACT: control_change channel=4 control=11 value=59 time=0.0047961666666666665
EXTRACT: note_on channel=9 note=35 velocity=0 time=0.0023980833333333332
EXTRACT: control_change channel=5 control=11 value=59 time=0.011990416666666667
EXTRACT: control_change channel=7 control=11 value=110 time=0
EXTRACT: control_change channel=6 control=11 value=110 time=0.0023980833333333332
EXTRACT: control_change channel=7 control=11 value=100 time=0.028776999999999997
EXTRACT: control_change channel=6 control=11 value=100 time=0.0023980833333333332
EXTRACT: control_change channel=7 control=11 value=94 time=0.028776999999999997
EXTRACT: control_change channel=6 control=11 value=94 time=0.0023980833333333332
EXTRACT: control_change channel=7 control=11 value=90 time=0.021582749999999998
EXTRACT: control_change channel=6 control=11 value=90 time=0.0023980833333333332
EXTRACT: control_change channel=4 control=11 value=61 time=0.021582749999999998
EXTRACT: control_change channel=7 control=11 value=86 time=0.007194249999999999
EXTRACT: control_change channel=6 control=11 value=86 time=0.0023980833333333332
EXTRACT: note_on channel=7 note=49 velocity=0 time=0.019184666666666666
EXTRACT: note_on channel=6 note=61 velocity=0 time=0.0023980833333333332
EXTRACT: note_on channel=7 note=49 velocity=68 time=0.007194249999999999
EXTRACT: note_on channel=1 note=25 velocity=123 time=0.0023980833333333332
EXTRACT: note_on channel=6 note=61 velocity=62 time=0
EXTRACT: note_on channel=9 note=70 velocity=77 time=0.007194249999999999
EXTRACT: note_on channel=3 note=80 velocity=111 time=0.0023980833333333332
EXTRACT: note_on channel=3 note=68 velocity=81 time=0
EXTRACT: control_change channel=7 control=11 value=117 time=0.0023980833333333332
EXTRACT: control_change channel=6 control=11 value=117 time=0.0023980833333333332
EXTRACT: note_on channel=9 note=46 velocity=61 time=0.007194249999999999
EXTRACT: control_change channel=7 control=11 value=110 time=0.007194249999999999
EXTRACT: control_change channel=6 control=11 value=110 time=0.0023980833333333332
EXTRACT: control_change channel=7 control=11 value=102 time=0.011990416666666667
EXTRACT: control_change channel=6 control=11 value=102 time=0.0023980833333333332
EXTRACT: control_change channel=7 control=11 value=96 time=0.014388499999999999
EXTRACT: control_change channel=6 control=11 value=96 time=0.0023980833333333332
EXTRACT: note_on channel=9 note=70 velocity=0 time=0.0023980833333333332
EXTRACT: control_change channel=7 control=11 value=90 time=0.009592333333333333
EXTRACT: control_change channel=6 control=11 value=90 time=0.0023980833333333332
EXTRACT: note_on channel=3 note=68 velocity=0 time=0.0023980833333333332
EXTRACT: note_on channel=3 note=80 velocity=0 time=0
EXTRACT: note_on channel=9 note=46 velocity=0 time=0
EXTRACT: control_change channel=7 control=11 value=83 time=0.011990416666666667
EXTRACT: control_change channel=6 control=11 value=83 time=0.0023980833333333332
EXTRACT: control_change channel=7 control=11 value=78 time=0.011990416666666667
EXTRACT: control_change channel=6 control=11 value=78 time=0.0023980833333333332
EXTRACT: note_on channel=9 note=70 velocity=67 time=0.014388499999999999
EXTRACT: control_change channel=7 control=11 value=72 time=0.007194249999999999
EXTRACT: control_change channel=6 control=11 value=72 time=0.0023980833333333332
EXTRACT: note_on channel=9 note=42 velocity=109 time=0
EXTRACT: control_change channel=7 control=11 value=68 time=0.021582749999999998
EXTRACT: control_change channel=6 control=11 value=68 time=0.0023980833333333332
EXTRACT: note_on channel=9 note=70 velocity=0 time=0.023980833333333333
EXTRACT: control_change channel=7 control=11 value=62 time=0.0047961666666666665
EXTRACT: control_change channel=6 control=11 value=62 time=0.0023980833333333332
EXTRACT: note_on channel=9 note=42 velocity=0 time=0.0023980833333333332
EXTRACT: control_change channel=7 control=11 value=58 time=0.019184666666666666
EXTRACT: control_change channel=6 control=11 value=58 time=0.0023980833333333332
EXTRACT: note_on channel=1 note=25 velocity=0 time=0.014388499999999999
EXTRACT: note_on channel=3 note=68 velocity=80 time=0
EXTRACT: note_on channel=3 note=80 velocity=110 time=0
EXTRACT: note_on channel=9 note=70 velocity=108 time=0.014388499999999999
EXTRACT: note_on channel=9 note=37 velocity=91 time=0.009592333333333333
EXTRACT: note_on channel=9 note=28 velocity=68 time=0
EXTRACT: note_on channel=9 note=39 velocity=67 time=0
EXTRACT: note_on channel=9 note=35 velocity=97 time=0
EXTRACT: note_on channel=9 note=28 velocity=0 time=0.0023980833333333332
EXTRACT: note_on channel=9 note=37 velocity=0 time=0
EXTRACT: note_on channel=9 note=40 velocity=64 time=0
EXTRACT: control_change channel=4 control=11 value=59 time=0.019184666666666666
EXTRACT: note_on channel=9 note=39 velocity=50 time=0.009592333333333333
EXTRACT: note_on channel=9 note=70 velocity=0 time=0.016786583333333334
EXTRACT: note_on channel=9 note=39 velocity=0 time=0.009592333333333333
EXTRACT: note_on channel=9 note=35 velocity=0 time=0
EXTRACT: note_on channel=9 note=40 velocity=0 time=0.0023980833333333332
EXTRACT: control_change channel=7 control=11 value=54 time=0.016786583333333334
EXTRACT: control_change channel=6 control=11 value=54 time=0.0023980833333333332
EXTRACT: note_on channel=9 note=39 velocity=0 time=0.009592333333333333
EXTRACT: note_on channel=3 note=80 velocity=0 time=0.043165499999999996
EXTRACT: note_on channel=3 note=68 velocity=0 time=0
EXTRACT: control_change channel=5 control=11 value=57 time=0.055155916666666666
EXTRACT: control_change channel=4 control=11 value=57 time=0.007194249999999999
EXTRACT: note_on channel=3 note=68 velocity=77 time=0.014388499999999999
EXTRACT: note_on channel=3 note=80 velocity=106 time=0
EXTRACT: note_on channel=9 note=70 velocity=75 time=0.0047961666666666665
EXTRACT: note_on channel=1 note=25 velocity=122 time=0.0047961666666666665
EXTRACT: control_change channel=7 control=11 value=58 time=0.0047961666666666665
EXTRACT: control_change channel=6 control=11 value=58 time=0.0023980833333333332
EXTRACT: note_on channel=9 note=46 velocity=59 time=0.014388499999999999
EXTRACT: control_change channel=7 control=11 value=63 time=0.031175083333333332
EXTRACT: note_on channel=9 note=70 velocity=0 time=0
EXTRACT: control_change channel=6 control=11 value=63 time=0.0023980833333333332
EXTRACT: note_on channel=9 note=46 velocity=0 time=0.023980833333333333
EXTRACT: control_change channel=7 control=11 value=67 time=0.0047961666666666665
EXTRACT: control_change channel=6 control=11 value=67 time=0.0023980833333333332
EXTRACT: note_on channel=3 note=80 velocity=0 time=0.03836933333333333
EXTRACT: note_on channel=3 note=68 velocity=0 time=0
EXTRACT: note_on channel=9 note=70 velocity=67 time=0
EXTRACT: note_on channel=9 note=42 velocity=108 time=0.007194249999999999
EXTRACT: note_on channel=9 note=70 velocity=0 time=0.050359749999999995
EXTRACT: note_on channel=9 note=42 velocity=0 time=0.007194249999999999
EXTRACT: note_on channel=1 note=25 velocity=0 time=0.035971249999999996
EXTRACT: control_change channel=7 control=11 value=72 time=0
EXTRACT: control_change channel=6 control=11 value=72 time=0.0023980833333333332
EXTRACT: note_on channel=9 note=70 velocity=108 time=0.014388499999999999
EXTRACT: note_on channel=3 note=80 velocity=108 time=0.0023980833333333332
EXTRACT: note_on channel=3 note=68 velocity=78 time=0
EXTRACT: note_on channel=9 note=35 velocity=97 time=0.0047961666666666665
EXTRACT: note_on channel=9 note=70 velocity=0 time=0.050359749999999995
EXTRACT: note_on channel=9 note=35 velocity=0 time=0.007194249999999999
EXTRACT: note_on channel=3 note=68 velocity=0 time=0.10311758333333333
EXTRACT: note_on channel=3 note=80 velocity=0 time=0
EXTRACT: note_on channel=1 note=25 velocity=118 time=0.05995208333333333
EXTRACT: control_change channel=7 control=11 value=77 time=0.0047961666666666665
EXTRACT: note_on channel=9 note=70 velocity=76 time=0
EXTRACT: control_change channel=6 control=11 value=77 time=0.0023980833333333332
EXTRACT: note_on channel=3 note=68 velocity=77 time=0.009592333333333333
EXTRACT: note_on channel=3 note=80 velocity=106 time=0
EXTRACT: note_on channel=9 note=46 velocity=61 time=0.0047961666666666665
EXTRACT: note_on channel=9 note=70 velocity=0 time=0.04076741666666667
EXTRACT: note_on channel=9 note=46 velocity=0 time=0.016786583333333334
EXTRACT: control_change channel=7 control=11 value=81 time=0.026378916666666665
EXTRACT: control_change channel=6 control=11 value=81 time=0.0023980833333333332
EXTRACT: note_on channel=9 note=70 velocity=67 time=0.014388499999999999
EXTRACT: note_on channel=9 note=42 velocity=108 time=0.007194249999999999
EXTRACT: note_on channel=3 note=80 velocity=0 time=0.021582749999999998
EXTRACT: note_on channel=3 note=68 velocity=0 time=0
EXTRACT: note_on channel=9 note=70 velocity=0 time=0.028776999999999997
EXTRACT: control_change channel=7 control=11 value=86 time=0.0047961666666666665
EXTRACT: control_change channel=6 control=11 value=86 time=0.0023980833333333332
EXTRACT: note_on channel=9 note=42 velocity=0 time=0
EXTRACT: control_change channel=7 control=11 value=90 time=0.035971249999999996
EXTRACT: note_on channel=1 note=25 velocity=0 time=0.0023980833333333332
EXTRACT: control_change channel=6 control=11 value=90 time=0
EXTRACT: note_on channel=9 note=70 velocity=107 time=0.014388499999999999
EXTRACT: note_on channel=3 note=80 velocity=111 time=0.007194249999999999
EXTRACT: note_on channel=3 note=68 velocity=81 time=0
EXTRACT: note_on channel=9 note=40 velocity=54 time=0
EXTRACT: note_on channel=9 note=37 velocity=91 time=0
EXTRACT: note_on channel=9 note=28 velocity=68 time=0
EXTRACT: note_on channel=9 note=39 velocity=72 time=0
EXTRACT: note_on channel=9 note=35 velocity=97 time=0
EXTRACT: note_on channel=9 note=28 velocity=0 time=0.0023980833333333332
EXTRACT: note_on channel=9 note=37 velocity=0 time=0
EXTRACT: control_change channel=7 control=11 value=94 time=0.011990416666666667
EXTRACT: control_change channel=6 control=11 value=94 time=0.0023980833333333332
EXTRACT: note_on channel=9 note=39 velocity=55 time=0.014388499999999999
EXTRACT: control_change channel=7 control=11 value=99 time=0.014388499999999999
EXTRACT: control_change channel=6 control=11 value=99 time=0.0023980833333333332
EXTRACT: note_on channel=9 note=70 velocity=0 time=0.0023980833333333332
EXTRACT: note_on channel=9 note=35 velocity=0 time=0.007194249999999999
EXTRACT: note_on channel=9 note=40 velocity=0 time=0
EXTRACT: note_on channel=9 note=39 velocity=0 time=0
EXTRACT: control_change channel=7 control=11 value=103 time=0.019184666666666666
EXTRACT: control_change channel=6 control=11 value=103 time=0.0023980833333333332
EXTRACT: note_on channel=9 note=39 velocity=0 time=0.009592333333333333
EXTRACT: control_change channel=7 control=11 value=108 time=0.019184666666666666
EXTRACT: control_change channel=6 control=11 value=108 time=0.0023980833333333332
EXTRACT: control_change channel=7 control=11 value=112 time=0.021582749999999998
EXTRACT: control_change channel=6 control=11 value=112 time=0.0023980833333333332
EXTRACT: note_on channel=3 note=68 velocity=0 time=0.009592333333333333
EXTRACT: note_on channel=3 note=80 velocity=0 time=0
EXTRACT: control_change channel=7 control=11 value=117 time=0.011990416666666667
EXTRACT: control_change channel=6 control=11 value=117 time=0.0023980833333333332
EXTRACT: note_on channel=7 note=49 velocity=0 time=0.047961666666666666
EXTRACT: note_on channel=6 note=61 velocity=0 time=0.009592333333333333
EXTRACT: note_on channel=1 note=25 velocity=120 time=0.0047961666666666665
EXTRACT: note_on channel=9 note=70 velocity=73 time=0.007194249999999999
EXTRACT: note_on channel=3 note=80 velocity=110 time=0.011990416666666667
EXTRACT: note_on channel=3 note=68 velocity=80 time=0
EXTRACT: note_on channel=9 note=46 velocity=61 time=0.0023980833333333332
EXTRACT: note_on channel=9 note=70 velocity=0 time=0.043165499999999996
EXTRACT: note_on channel=9 note=46 velocity=0 time=0.014388499999999999
EXTRACT: note_on channel=3 note=68 velocity=0 time=0.028776999999999997
EXTRACT: note_on channel=3 note=80 velocity=0 time=0
EXTRACT: note_on channel=9 note=70 velocity=67 time=0.014388499999999999
EXTRACT: note_on channel=9 note=42 velocity=109 time=0.009592333333333333
EXTRACT: note_on channel=9 note=70 velocity=0 time=0.047961666666666666
EXTRACT: note_on channel=9 note=42 velocity=0 time=0.009592333333333333
EXTRACT: note_on channel=1 note=25 velocity=0 time=0.035971249999999996
EXTRACT: note_on channel=7 note=51 velocity=70 time=0.007194249999999999
EXTRACT: note_on channel=4 note=68 velocity=0 time=0.0023980833333333332
EXTRACT: note_on channel=4 note=49 velocity=0 time=0
EXTRACT: note_on channel=4 note=65 velocity=0 time=0
EXTRACT: note_on channel=4 note=61 velocity=0 time=0
EXTRACT: note_on channel=6 note=63 velocity=68 time=0
EXTRACT: note_on channel=5 note=80 velocity=0 time=0.0023980833333333332
EXTRACT: note_on channel=4 note=67 velocity=105 time=0.0023980833333333332
EXTRACT: note_on channel=4 note=55 velocity=99 time=0
EXTRACT: note_on channel=4 note=63 velocity=104 time=0
EXTRACT: note_on channel=4 note=70 velocity=109 time=0
EXTRACT: note_on channel=5 note=63 velocity=106 time=0
EXTRACT: note_on channel=9 note=70 velocity=108 time=0
EXTRACT: note_on channel=5 note=79 velocity=115 time=0.0047961666666666665
EXTRACT: note_on channel=11 note=51 velocity=127 time=0
EXTRACT: control_change channel=7 control=11 value=118 time=0.0023980833333333332
EXTRACT: control_change channel=6 control=11 value=118 time=0.0023980833333333332
EXTRACT: note_on channel=9 note=35 velocity=97 time=0
EXTRACT: note_on channel=3 note=75 velocity=84 time=0.009592333333333333
EXTRACT: note_on channel=3 note=87 velocity=116 time=0
EXTRACT: control_change channel=7 control=11 value=112 time=0.0047961666666666665
EXTRACT: control_change channel=6 control=11 value=112 time=0.0023980833333333332
EXTRACT: note_on channel=11 note=51 velocity=0 time=0.009592333333333333
EXTRACT: control_change channel=7 control=11 value=102 time=0.0023980833333333332
EXTRACT: control_change channel=5 control=11 value=59 time=0.0023980833333333332
EXTRACT: control_change channel=6 control=11 value=102 time=0
EXTRACT: control_change channel=4 control=11 value=59 time=0.0023980833333333332
EXTRACT: control_change channel=7 control=11 value=95 time=0.011990416666666667
EXTRACT: control_change channel=6 control=11 value=95 time=0.0023980833333333332
EXTRACT: note_on channel=9 note=70 velocity=0 time=0
EXTRACT: note_on channel=9 note=35 velocity=0 time=0.009592333333333333
EXTRACT: control_change channel=7 control=11 value=89 time=0.0023980833333333332
EXTRACT: control_change channel=6 control=11 value=89 time=0.0023980833333333332
EXTRACT: control_change channel=7 control=11 value=82 time=0.014388499999999999
EXTRACT: control_change channel=6 control=11 value=82 time=0.0023980833333333332
EXTRACT: control_change channel=7 control=11 value=76 time=0.011990416666666667
EXTRACT: control_change channel=6 control=11 value=76 time=0.0023980833333333332
EXTRACT: control_change channel=7 control=11 value=70 time=0.014388499999999999
EXTRACT: control_change channel=6 control=11 value=70 time=0.0023980833333333332
EXTRACT: control_change channel=4 control=11 value=61 time=0.016786583333333334
EXTRACT: control_change channel=7 control=11 value=65 time=0.0023980833333333332
EXTRACT: control_change channel=6 control=11 value=65 time=0.0023980833333333332
EXTRACT: control_change channel=7 control=11 value=60 time=0.014388499999999999
EXTRACT: control_change channel=6 control=11 value=60 time=0.0023980833333333332
EXTRACT: pitchwheel channel=3 pitch=0 time=0.021582749999999998
EXTRACT: control_change channel=5 control=11 value=57 time=0.007194249999999999
EXTRACT: control_change channel=7 control=11 value=55 time=0
EXTRACT: control_change channel=6 control=11 value=55 time=0.0023980833333333332
EXTRACT: pitchwheel channel=3 pitch=-128 time=0.0023980833333333332
EXTRACT: pitchwheel channel=3 pitch=-256 time=0.011990416666666667
EXTRACT: control_change channel=7 control=11 value=50 time=0.007194249999999999
EXTRACT: control_change channel=6 control=11 value=50 time=0.0023980833333333332
EXTRACT: pitchwheel channel=3 pitch=-384 time=0.0047961666666666665
EXTRACT: note_on channel=1 note=27 velocity=126 time=0.009592333333333333
EXTRACT: pitchwheel channel=3 pitch=-768 time=0.0023980833333333332
EXTRACT: note_on channel=9 note=70 velocity=77 time=0.0047961666666666665
EXTRACT: pitchwheel channel=3 pitch=-1152 time=0.007194249999999999
EXTRACT: note_on channel=9 note=46 velocity=61 time=0.007194249999999999
EXTRACT: pitchwheel channel=3 pitch=-1408 time=0.0047961666666666665
EXTRACT: control_change channel=7 control=11 value=44 time=0.0023980833333333332
EXTRACT: control_change channel=6 control=11 value=44 time=0.0023980833333333332
EXTRACT: pitchwheel channel=3 pitch=-1920 time=0.007194249999999999
EXTRACT: pitchwheel channel=3 pitch=-2432 time=0.011990416666666667
EXTRACT: pitchwheel channel=3 pitch=-3712 time=0.011990416666666667
EXTRACT: note_on channel=9 note=70 velocity=0 time=0.0023980833333333332
EXTRACT: pitchwheel channel=3 pitch=-4096 time=0.011990416666666667
EXTRACT: note_on channel=9 note=46 velocity=0 time=0.0023980833333333332
EXTRACT: note_on channel=9 note=70 velocity=67 time=0.04556358333333333
EXTRACT: note_on channel=9 note=42 velocity=113 time=0.007194249999999999
EXTRACT: note_on channel=3 note=87 velocity=0 time=0.03357316666666667
EXTRACT: note_on channel=3 note=75 velocity=0 time=0
EXTRACT: note_on channel=9 note=70 velocity=0 time=0.016786583333333334
EXTRACT: note_on channel=9 note=42 velocity=0 time=0.007194249999999999
EXTRACT: note_on channel=1 note=27 velocity=0 time=0.035971249999999996
EXTRACT: pitchwheel channel=3 pitch=0 time=0.011990416666666667
EXTRACT: note_on channel=5 note=63 velocity=0 time=0.0023980833333333332
EXTRACT: note_on channel=5 note=65 velocity=108 time=0.0023980833333333332
EXTRACT: note_on channel=9 note=70 velocity=103 time=0
EXTRACT: note_on channel=5 note=79 velocity=0 time=0.0023980833333333332
EXTRACT: note_on channel=5 note=80 velocity=116 time=0
EXTRACT: note_on channel=11 note=46 velocity=127 time=0
EXTRACT: note_on channel=3 note=68 velocity=78 time=0.0047961666666666665
EXTRACT: note_on channel=3 note=80 velocity=107 time=0
EXTRACT: note_on channel=9 note=37 velocity=91 time=0
EXTRACT: note_on channel=9 note=28 velocity=68 time=0
EXTRACT: note_on channel=9 note=39 velocity=67 time=0
EXTRACT: note_on channel=9 note=35 velocity=97 time=0
EXTRACT: note_on channel=9 note=28 velocity=0 time=0.0023980833333333332
EXTRACT: note_on channel=9 note=37 velocity=0 time=0
EXTRACT: note_on channel=9 note=40 velocity=65 time=0.0023980833333333332
EXTRACT: control_change channel=5 control=11 value=59 time=0.019184666666666666
EXTRACT: note_on channel=11 note=46 velocity=0 time=0.0023980833333333332
EXTRACT: note_on channel=9 note=39 velocity=50 time=0.0047961666666666665
EXTRACT: control_change channel=7 control=11 value=44 time=0.014388499999999999
EXTRACT: control_change channel=6 control=11 value=44 time=0.0023980833333333332
EXTRACT: note_on channel=9 note=70 velocity=0 time=0.0023980833333333332
EXTRACT: note_on channel=9 note=39 velocity=0 time=0.007194249999999999
EXTRACT: note_on channel=9 note=35 velocity=0 time=0
EXTRACT: control_change channel=5 control=11 value=61 time=0.0047961666666666665
EXTRACT: note_on channel=9 note=40 velocity=0 time=0
EXTRACT: note_on channel=3 note=80 velocity=0 time=0.007194249999999999
EXTRACT: note_on channel=3 note=68 velocity=0 time=0
EXTRACT: control_change channel=4 control=11 value=59 time=0.0047961666666666665
EXTRACT: control_change channel=7 control=11 value=48 time=0.009592333333333333
EXTRACT: control_change channel=6 control=11 value=48 time=0.0023980833333333332
EXTRACT: note_on channel=9 note=39 velocity=0 time=0.0023980833333333332
EXTRACT: control_change channel=7 control=11 value=52 time=0.03357316666666667
EXTRACT: control_change channel=5 control=11 value=59 time=0.0023980833333333332
EXTRACT: control_change channel=6 control=11 value=52 time=0
EXTRACT: control_change channel=7 control=11 value=56 time=0.03836933333333333
EXTRACT: control_change channel=6 control=11 value=56 time=0.0023980833333333332
EXTRACT: control_change channel=5 control=11 value=57 time=0.028776999999999997
EXTRACT: note_on channel=9 note=70 velocity=75 time=0.019184666666666666
EXTRACT: note_on channel=1 note=27 velocity=117 time=0.007194249999999999
EXTRACT: control_change channel=4 control=11 value=57 time=0.016786583333333334
EXTRACT: note_on channel=9 note=46 velocity=62 time=0.0047961666666666665
EXTRACT: note_on channel=3 note=68 velocity=78 time=0.026378916666666665
EXTRACT: note_on channel=3 note=80 velocity=108 time=0
EXTRACT: note_on channel=9 note=70 velocity=0 time=0.0023980833333333332
EXTRACT: note_on channel=9 note=46 velocity=0 time=0.028776999999999997
EXTRACT: control_change channel=7 control=11 value=61 time=0.019184666666666666
EXTRACT: control_change channel=6 control=11 value=61 time=0.0023980833333333332
EXTRACT: control_change channel=7 control=11 value=64 time=0.0047961666666666665
EXTRACT: control_change channel=6 control=11 value=64 time=0.0023980833333333332
EXTRACT: note_on channel=9 note=70 velocity=67 time=0.014388499999999999
EXTRACT: note_on channel=9 note=42 velocity=111 time=0.007194249999999999
EXTRACT: control_change channel=7 control=11 value=66 time=0.03836933333333333
EXTRACT: control_change channel=6 control=11 value=66 time=0.0023980833333333332
EXTRACT: note_on channel=9 note=70 velocity=0 time=0.009592333333333333
EXTRACT: note_on channel=9 note=42 velocity=0 time=0.007194249999999999
EXTRACT: note_on channel=1 note=27 velocity=0 time=0.03836933333333333
EXTRACT: note_on channel=5 note=65 velocity=0 time=0.014388499999999999
EXTRACT: note_on channel=5 note=67 velocity=110 time=0
EXTRACT: note_on channel=9 note=70 velocity=103 time=0
EXTRACT: note_on channel=5 note=80 velocity=0 time=0.0023980833333333332
EXTRACT: note_on channel=11 note=51 velocity=127 time=0
EXTRACT: note_on channel=5 note=82 velocity=115 time=0.0023980833333333332
EXTRACT: note_on channel=9 note=35 velocity=97 time=0.0023980833333333332
EXTRACT: note_on channel=11 note=51 velocity=0 time=0.026378916666666665
EXTRACT: control_change channel=5 control=11 value=59 time=0.014388499999999999
EXTRACT: note_on channel=9 note=70 velocity=0 time=0.009592333333333333
EXTRACT: note_on channel=9 note=35 velocity=0 time=0.007194249999999999
EXTRACT: control_change channel=5 control=11 value=57 time=0.11510799999999999
EXTRACT: note_on channel=1 note=27 velocity=121 time=0.047961666666666666
EXTRACT: control_change channel=7 control=11 value=71 time=0.0047961666666666665
EXTRACT: control_change channel=6 control=11 value=71 time=0.0023980833333333332
EXTRACT: note_on channel=9 note=82 velocity=65 time=0.007194249999999999
EXTRACT: note_on channel=9 note=46 velocity=63 time=0.007194249999999999
EXTRACT: note_on channel=9 note=82 velocity=0 time=0.050359749999999995
EXTRACT: note_on channel=9 note=46 velocity=0 time=0.007194249999999999
EXTRACT: control_change channel=7 control=11 value=76 time=0.035971249999999996
EXTRACT: control_change channel=6 control=11 value=76 time=0.0023980833333333332
EXTRACT: note_on channel=9 note=82 velocity=57 time=0.014388499999999999
EXTRACT: note_on channel=9 note=42 velocity=111 time=0
EXTRACT: control_change channel=7 control=11 value=80 time=0.014388499999999999
EXTRACT: control_change channel=6 control=11 value=80 time=0.0023980833333333332
EXTRACT: note_on channel=9 note=39 velocity=50 time=0.021582749999999998
EXTRACT: control_change channel=7 control=11 value=85 time=0.014388499999999999
EXTRACT: note_on channel=3 note=80 velocity=0 time=0.0023980833333333332
EXTRACT: note_on channel=3 note=68 velocity=0 time=0
EXTRACT: control_change channel=6 control=11 value=85 time=0
EXTRACT: note_on channel=9 note=42 velocity=0 time=0.0023980833333333332
EXTRACT: note_on channel=9 note=82 velocity=0 time=0
EXTRACT: note_on channel=1 note=27 velocity=0 time=0.035971249999999996
EXTRACT: note_on channel=9 note=39 velocity=0 time=0.0023980833333333332
EXTRACT: control_change channel=7 control=11 value=89 time=0.0047961666666666665
EXTRACT: control_change channel=6 control=11 value=89 time=0.0023980833333333332
EXTRACT: note_on channel=5 note=67 velocity=0 time=0.0047961666666666665
EXTRACT: note_on channel=5 note=68 velocity=108 time=0
EXTRACT: note_on channel=3 note=80 velocity=111 time=0.0047961666666666665
EXTRACT: note_on channel=3 note=68 velocity=81 time=0
EXTRACT: note_on channel=5 note=82 velocity=0 time=0
EXTRACT: note_on channel=5 note=84 velocity=122 time=0
EXTRACT: note_on channel=11 note=46 velocity=127 time=0
EXTRACT: note_on channel=9 note=40 velocity=56 time=0.0047961666666666665
EXTRACT: note_on channel=9 note=37 velocity=91 time=0
EXTRACT: note_on channel=9 note=28 velocity=68 time=0
EXTRACT: note_on channel=9 note=39 velocity=73 time=0
EXTRACT: note_on channel=9 note=82 velocity=71 time=0
EXTRACT: note_on channel=9 note=35 velocity=97 time=0
EXTRACT: note_on channel=9 note=28 velocity=0 time=0.0023980833333333332
EXTRACT: note_on channel=9 note=37 velocity=0 time=0
EXTRACT: control_change channel=7 control=11 value=93 time=0.0023980833333333332
EXTRACT: control_change channel=6 control=11 value=93 time=0.0023980833333333332
EXTRACT: note_on channel=11 note=46 velocity=0 time=0.019184666666666666
EXTRACT: note_on channel=9 note=39 velocity=55 time=0.0047961666666666665
EXTRACT: control_change channel=7 control=11 value=98 time=0.0047961666666666665
EXTRACT: control_change channel=5 control=11 value=59 time=0.0023980833333333332
EXTRACT: control_change channel=6 control=11 value=98 time=0
EXTRACT: note_on channel=9 note=39 velocity=0 time=0.019184666666666666
EXTRACT: note_on channel=9 note=82 velocity=0 time=0
EXTRACT: note_on channel=9 note=40 velocity=0 time=0
EXTRACT: note_on channel=9 note=35 velocity=0 time=0
EXTRACT: control_change channel=7 control=11 value=102 time=0.0023980833333333332
EXTRACT: control_change channel=6 control=11 value=102 time=0.0023980833333333332
EXTRACT: note_on channel=9 note=39 velocity=0 time=0.026378916666666665
EXTRACT: control_change channel=7 control=11 value=107 time=0.009592333333333333
EXTRACT: control_change channel=6 control=11 value=107 time=0.0023980833333333332
EXTRACT: control_change channel=7 control=11 value=112 time=0.021582749999999998
EXTRACT: control_change channel=6 control=11 value=112 time=0.0023980833333333332
EXTRACT: control_change channel=7 control=11 value=117 time=0.021582749999999998
EXTRACT: control_change channel=6 control=11 value=117 time=0.0023980833333333332
EXTRACT: control_change channel=5 control=11 value=57 time=0.021582749999999998
EXTRACT: note_on channel=7 note=51 velocity=0 time=0.031175083333333332
EXTRACT: note_on channel=6 note=63 velocity=0 time=0.009592333333333333
EXTRACT: note_on channel=1 note=27 velocity=122 time=0.007194249999999999
EXTRACT: note_on channel=3 note=68 velocity=0 time=0.007194249999999999
EXTRACT: note_on channel=3 note=80 velocity=0 time=0
EXTRACT: note_on channel=9 note=82 velocity=53 time=0.007194249999999999
EXTRACT: note_on channel=9 note=46 velocity=62 time=0.007194249999999999
EXTRACT: note_on channel=9 note=82 velocity=0 time=0.050359749999999995
EXTRACT: note_on channel=9 note=46 velocity=0 time=0.007194249999999999
EXTRACT: note_on channel=9 note=82 velocity=50 time=0.05275783333333333
EXTRACT: note_on channel=9 note=42 velocity=113 time=0
EXTRACT: note_on channel=9 note=42 velocity=0 time=0.057553999999999994
EXTRACT: note_on channel=9 note=82 velocity=0 time=0
EXTRACT: note_on channel=1 note=27 velocity=0 time=0.035971249999999996
EXTRACT: control_change channel=7 control=11 value=120 time=0.007194249999999999
EXTRACT: note_on channel=7 note=44 velocity=67 time=0
EXTRACT: note_on channel=4 note=63 velocity=0 time=0.0023980833333333332
EXTRACT: note_on channel=6 note=56 velocity=67 time=0
EXTRACT: note_on channel=4 note=60 velocity=102 time=0.0023980833333333332
EXTRACT: note_on channel=4 note=63 velocity=104 time=0
EXTRACT: note_on channel=4 note=51 velocity=98 time=0
EXTRACT: note_on channel=4 note=68 velocity=105 time=0
EXTRACT: note_on channel=4 note=67 velocity=0 time=0.0023980833333333332
EXTRACT: note_on channel=4 note=70 velocity=0 time=0
EXTRACT: note_on channel=4 note=55 velocity=0 time=0
EXTRACT: note_on channel=5 note=68 velocity=0 time=0
EXTRACT: note_on channel=9 note=70 velocity=103 time=0.0023980833333333332
EXTRACT: note_on channel=5 note=84 velocity=0 time=0.0023980833333333332
EXTRACT: note_on channel=11 note=44 velocity=127 time=0
EXTRACT: note_on channel=5 note=80 velocity=119 time=0.0047961666666666665
EXTRACT: note_on channel=9 note=35 velocity=97 time=0
EXTRACT: note_on channel=9 note=57 velocity=63 time=0
EXTRACT: control_change channel=5 control=11 value=59 time=0.023980833333333333
EXTRACT: note_on channel=11 note=44 velocity=0 time=0.0023980833333333332
EXTRACT: control_change channel=6 control=11 value=118 time=0.014388499999999999
EXTRACT: control_change channel=7 control=11 value=116 time=0.0047961666666666665
EXTRACT: note_on channel=9 note=70 velocity=0 time=0.0047961666666666665
EXTRACT: control_change channel=4 control=11 value=59 time=0.007194249999999999
EXTRACT: note_on channel=9 note=57 velocity=0 time=0
EXTRACT: note_on channel=9 note=35 velocity=0 time=0
EXTRACT: control_change channel=6 control=11 value=113 time=0.014388499999999999
EXTRACT: control_change channel=7 control=11 value=110 time=0.011990416666666667
EXTRACT: control_change channel=6 control=11 value=106 time=0.019184666666666666
EXTRACT: control_change channel=7 control=11 value=104 time=0.011990416666666667
EXTRACT: control_change channel=6 control=11 value=102 time=0.019184666666666666
EXTRACT: control_change channel=7 control=11 value=100 time=0.011990416666666667
EXTRACT: control_change channel=6 control=11 value=98 time=0.019184666666666666
EXTRACT: control_change channel=4 control=11 value=61 time=0.016786583333333334
EXTRACT: control_change channel=5 control=11 value=57 time=0.0047961666666666665
EXTRACT: control_change channel=7 control=11 value=96 time=0.014388499999999999
EXTRACT: note_on channel=7 note=44 velocity=0 time=0.007194249999999999
EXTRACT: note_on channel=6 note=56 velocity=0 time=0.0023980833333333332
EXTRACT: control_change channel=6 control=11 value=120 time=0
EXTRACT: note_on channel=7 note=44 velocity=61 time=0.007194249999999999
EXTRACT: note_on channel=1 note=32 velocity=126 time=0.0023980833333333332
EXTRACT: note_on channel=6 note=56 velocity=60 time=0
EXTRACT: note_on channel=9 note=70 velocity=77 time=0.0047961666666666665
EXTRACT: control_change channel=7 control=11 value=117 time=0.007194249999999999
EXTRACT: control_change channel=6 control=11 value=112 time=0.009592333333333333
EXTRACT: note_on channel=9 note=46 velocity=61 time=0
EXTRACT: control_change channel=7 control=11 value=106 time=0.007194249999999999
EXTRACT: control_change channel=6 control=11 value=101 time=0.009592333333333333
EXTRACT: control_change channel=7 control=11 value=97 time=0.0047961666666666665
EXTRACT: control_change channel=6 control=11 value=94 time=0.009592333333333333
EXTRACT: control_change channel=7 control=11 value=90 time=0.007194249999999999
EXTRACT: note_on channel=9 note=70 velocity=0 time=0.0023980833333333332
EXTRACT: control_change channel=6 control=11 value=86 time=0.007194249999999999
EXTRACT: control_change channel=7 control=11 value=82 time=0.0047961666666666665
EXTRACT: note_on channel=9 note=46 velocity=0 time=0.0047961666666666665
EXTRACT: control_change channel=6 control=11 value=79 time=0.0047961666666666665
EXTRACT: control_change channel=7 control=11 value=76 time=0.007194249999999999
EXTRACT: control_change channel=6 control=11 value=74 time=0.009592333333333333
EXTRACT: control_change channel=7 control=11 value=72 time=0.0047961666666666665
EXTRACT: control_change channel=6 control=11 value=69 time=0.009592333333333333
EXTRACT: control_change channel=7 control=11 value=67 time=0.007194249999999999
EXTRACT: note_on channel=9 note=70 velocity=67 time=0
EXTRACT: note_on channel=9 note=42 velocity=109 time=0.007194249999999999
EXTRACT: control_change channel=7 control=11 value=64 time=0.007194249999999999
EXTRACT: control_change channel=6 control=11 value=64 time=0.0023980833333333332
EXTRACT: control_change channel=7 control=11 value=62 time=0.0047961666666666665
EXTRACT: control_change channel=6 control=11 value=60 time=0.011990416666666667
EXTRACT: control_change channel=7 control=11 value=57 time=0.011990416666666667
EXTRACT: note_on channel=9 note=70 velocity=0 time=0.011990416666666667
EXTRACT: note_on channel=9 note=42 velocity=0 time=0.007194249999999999
EXTRACT: control_change channel=6 control=11 value=55 time=0.007194249999999999
EXTRACT: note_on channel=1 note=32 velocity=0 time=0.031175083333333332
EXTRACT: note_on channel=9 note=70 velocity=108 time=0.014388499999999999
EXTRACT: note_on channel=11 note=44 velocity=127 time=0.0023980833333333332
EXTRACT: note_on channel=9 note=37 velocity=91 time=0.0047961666666666665
EXTRACT: note_on channel=9 note=28 velocity=68 time=0
EXTRACT: note_on channel=9 note=39 velocity=67 time=0
EXTRACT: note_on channel=9 note=35 velocity=97 time=0
EXTRACT: note_on channel=9 note=28 velocity=0 time=0.0023980833333333332
EXTRACT: note_on channel=9 note=37 velocity=0 time=0
EXTRACT: note_on channel=9 note=40 velocity=64 time=0.0023980833333333332
EXTRACT: note_on channel=3 note=72 velocity=81 time=0
EXTRACT: note_on channel=3 note=84 velocity=111 time=0
EXTRACT: control_change channel=7 control=11 value=52 time=0.011990416666666667
EXTRACT: note_on channel=11 note=44 velocity=0 time=0.0023980833333333332
EXTRACT: control_change channel=4 control=11 value=59 time=0.0023980833333333332
EXTRACT: note_on channel=9 note=39 velocity=50 time=0.0023980833333333332
EXTRACT: note_on channel=9 note=70 velocity=0 time=0.019184666666666666
EXTRACT: note_on channel=9 note=39 velocity=0 time=0.007194249999999999
EXTRACT: note_on channel=9 note=35 velocity=0 time=0
EXTRACT: note_on channel=9 note=40 velocity=0 time=0.0047961666666666665
EXTRACT: control_change channel=6 control=11 value=54 time=0.026378916666666665
EXTRACT: note_on channel=9 note=39 velocity=0 time=0
EXTRACT: control_change channel=5 control=11 value=59 time=0.014388499999999999
EXTRACT: control_change channel=7 control=11 value=57 time=0.04556358333333333
EXTRACT: control_change channel=6 control=11 value=60 time=0.016786583333333334
EXTRACT: control_change channel=7 control=11 value=62 time=0.021582749999999998
EXTRACT: control_change channel=4 control=11 value=57 time=0.011990416666666667
EXTRACT: note_on channel=3 note=84 velocity=0 time=0.014388499999999999
EXTRACT: note_on channel=3 note=72 velocity=0 time=0
EXTRACT: control_change channel=6 control=11 value=65 time=0
EXTRACT: note_on channel=9 note=70 velocity=75 time=0.0023980833333333332
EXTRACT: note_on channel=1 note=32 velocity=118 time=0.0047961666666666665
EXTRACT: note_on channel=3 note=70 velocity=80 time=0.021582749999999998
EXTRACT: note_on channel=3 note=82 velocity=110 time=0
EXTRACT: note_on channel=9 note=46 velocity=59 time=0
EXTRACT: control_change channel=7 control=11 value=67 time=0.007194249999999999
EXTRACT: control_change channel=5 control=11 value=57 time=0.016786583333333334
EXTRACT: note_on channel=9 note=70 velocity=0 time=0.007194249999999999
EXTRACT: note_on channel=3 note=82 velocity=0 time=0.019184666666666666
EXTRACT: note_on channel=3 note=70 velocity=0 time=0
EXTRACT: note_on channel=9 note=46 velocity=0 time=0.007194249999999999
EXTRACT: control_change channel=6 control=11 value=70 time=0.028776999999999997
EXTRACT: control_change channel=7 control=11 value=72 time=0.007194249999999999
EXTRACT: note_on channel=9 note=70 velocity=67 time=0.007194249999999999
EXTRACT: note_on channel=9 note=42 velocity=108 time=0.009592333333333333
EXTRACT: control_change channel=6 control=11 value=74 time=0.031175083333333332
EXTRACT: note_on channel=9 note=70 velocity=0 time=0.016786583333333334
EXTRACT: note_on channel=9 note=42 velocity=0 time=0.009592333333333333
EXTRACT: note_on channel=1 note=32 velocity=0 time=0.035971249999999996
EXTRACT: note_on channel=9 note=70 velocity=108 time=0.014388499999999999
EXTRACT: note_on channel=5 note=80 velocity=0 time=0.007194249999999999
EXTRACT: note_on channel=5 note=84 velocity=121 time=0.0023980833333333332
EXTRACT: note_on channel=9 note=35 velocity=97 time=0
EXTRACT: note_on channel=3 note=82 velocity=113 time=0.007194249999999999
EXTRACT: note_on channel=3 note=70 velocity=82 time=0
EXTRACT: control_change channel=5 control=11 value=59 time=0.014388499999999999
EXTRACT: note_on channel=9 note=70 velocity=0 time=0.026378916666666665
EXTRACT: note_on channel=9 note=35 velocity=0 time=0.009592333333333333
EXTRACT: control_change channel=7 control=11 value=76 time=0.009592333333333333
EXTRACT: control_change channel=6 control=11 value=78 time=0.057553999999999994
EXTRACT: control_change channel=7 control=11 value=80 time=0.028776999999999997
EXTRACT: control_change channel=5 control=11 value=57 time=0.03357316666666667
EXTRACT: note_on channel=3 note=70 velocity=0 time=0.007194249999999999
EXTRACT: note_on channel=3 note=82 velocity=0 time=0
EXTRACT: control_change channel=6 control=11 value=82 time=0.009592333333333333
EXTRACT: control_change channel=7 control=11 value=85 time=0.011990416666666667
EXTRACT: note_on channel=1 note=32 velocity=121 time=0.0023980833333333332
EXTRACT: note_on channel=3 note=68 velocity=77 time=0.0023980833333333332
EXTRACT: note_on channel=3 note=80 velocity=106 time=0
EXTRACT: note_on channel=9 note=70 velocity=76 time=0.0047961666666666665
EXTRACT: control_change channel=6 control=11 value=87 time=0.016786583333333334
EXTRACT: note_on channel=9 note=46 velocity=61 time=0
EXTRACT: control_change channel=7 control=11 value=89 time=0.0047961666666666665
EXTRACT: control_change channel=6 control=11 value=92 time=0.019184666666666666
EXTRACT: note_on channel=3 note=80 velocity=0 time=0.007194249999999999
EXTRACT: note_on channel=3 note=68 velocity=0 time=0
EXTRACT: note_on channel=9 note=70 velocity=0 time=0.009592333333333333
EXTRACT: control_change channel=7 control=11 value=94 time=0.0047961666666666665
EXTRACT: control_change channel=6 control=11 value=96 time=0.009592333333333333
EXTRACT: note_on channel=9 note=46 velocity=0 time=0.0023980833333333332
EXTRACT: control_change channel=7 control=11 value=98 time=0.009592333333333333
EXTRACT: control_change channel=6 control=11 value=101 time=0.019184666666666666
EXTRACT: control_change channel=7 control=11 value=103 time=0.0047961666666666665
EXTRACT: note_on channel=9 note=70 velocity=67 time=0.009592333333333333
EXTRACT: note_on channel=9 note=42 velocity=108 time=0.007194249999999999
EXTRACT: control_change channel=6 control=11 value=105 time=0.0023980833333333332
EXTRACT: control_change channel=7 control=11 value=107 time=0.0047961666666666665
EXTRACT: control_change channel=6 control=11 value=110 time=0.016786583333333334
EXTRACT: control_change channel=7 control=11 value=114 time=0.014388499999999999
EXTRACT: control_change channel=6 control=11 value=116 time=0.009592333333333333
EXTRACT: note_on channel=9 note=70 velocity=0 time=0.0023980833333333332
EXTRACT: note_on channel=9 note=42 velocity=0 time=0.007194249999999999
EXTRACT: control_change channel=7 control=11 value=118 time=0.0047961666666666665
EXTRACT: control_change channel=6 control=11 value=120 time=0.016786583333333334
EXTRACT: note_on channel=1 note=32 velocity=0 time=0.014388499999999999
EXTRACT: note_on channel=7 note=44 velocity=0 time=0
EXTRACT: note_on channel=6 note=56 velocity=0 time=0.0047961666666666665
EXTRACT: note_on channel=9 note=70 velocity=107 time=0.011990416666666667
EXTRACT: note_on channel=3 note=80 velocity=113 time=0.0023980833333333332
EXTRACT: note_on channel=3 note=68 velocity=82 time=0
EXTRACT: note_on channel=9 note=40 velocity=55 time=0.0047961666666666665
EXTRACT: note_on channel=9 note=37 velocity=91 time=0
EXTRACT: note_on channel=9 note=28 velocity=68 time=0
EXTRACT: note_on channel=9 note=39 velocity=72 time=0
EXTRACT: note_on channel=9 note=35 velocity=97 time=0
EXTRACT: note_on channel=9 note=28 velocity=0 time=0.0023980833333333332
EXTRACT: note_on channel=9 note=37 velocity=0 time=0
EXTRACT: note_on channel=9 note=39 velocity=55 time=0.028776999999999997
EXTRACT: note_on channel=9 note=70 velocity=0 time=0.019184666666666666
EXTRACT: note_on channel=9 note=35 velocity=0 time=0.007194249999999999
EXTRACT: note_on channel=9 note=40 velocity=0 time=0
EXTRACT: note_on channel=9 note=39 velocity=0 time=0
EXTRACT: note_on channel=9 note=39 velocity=0 time=0.031175083333333332
EXTRACT: control_change channel=5 control=11 value=59 time=0.011990416666666667
EXTRACT: note_on channel=7 note=44 velocity=66 time=0.11750608333333333
EXTRACT: note_on channel=1 note=32 velocity=122 time=0.0023980833333333332
EXTRACT: note_on channel=6 note=56 velocity=67 time=0
EXTRACT: note_on channel=9 note=70 velocity=73 time=0.0047961666666666665
EXTRACT: note_on channel=9 note=46 velocity=61 time=0.016786583333333334
EXTRACT: control_change channel=5 control=11 value=57 time=0.007194249999999999
EXTRACT: control_change channel=7 control=11 value=117 time=0.021582749999999998
EXTRACT: control_change channel=6 control=11 value=114 time=0.011990416666666667
EXTRACT: note_on channel=9 note=70 velocity=0 time=0
EXTRACT: control_change channel=7 control=11 value=112 time=0.011990416666666667
EXTRACT: note_on channel=9 note=46 velocity=0 time=0.0047961666666666665
EXTRACT: control_change channel=6 control=11 value=110 time=0.0047961666666666665
EXTRACT: control_change channel=7 control=11 value=108 time=0.007194249999999999
EXTRACT: control_change channel=6 control=11 value=105 time=0.009592333333333333
EXTRACT: control_change channel=7 control=11 value=99 time=0.011990416666666667
EXTRACT: note_on channel=9 note=70 velocity=67 time=0.009592333333333333
EXTRACT: note_on channel=9 note=42 velocity=109 time=0.007194249999999999
EXTRACT: control_change channel=6 control=11 value=96 time=0.0023980833333333332
EXTRACT: control_change channel=7 control=11 value=94 time=0.0047961666666666665
EXTRACT: control_change channel=6 control=11 value=92 time=0.009592333333333333
EXTRACT: control_change channel=7 control=11 value=90 time=0.014388499999999999
EXTRACT: control_change channel=6 control=11 value=88 time=0.009592333333333333
EXTRACT: note_on channel=9 note=70 velocity=0 time=0.009592333333333333
EXTRACT: control_change channel=7 control=11 value=86 time=0.0047961666666666665
EXTRACT: note_on channel=9 note=42 velocity=0 time=0.0023980833333333332
EXTRACT: control_change channel=6 control=11 value=84 time=0.031175083333333332
EXTRACT: note_on channel=7 note=44 velocity=0 time=0.0047961666666666665
EXTRACT: control_change channel=7 control=11 value=120 time=0
EXTRACT: note_on channel=1 note=32 velocity=0 time=0.0023980833333333332
EXTRACT: note_on channel=6 note=56 velocity=0 time=0
EXTRACT: note_on channel=7 note=48 velocity=71 time=0.0047961666666666665
EXTRACT: note_on channel=6 note=60 velocity=71 time=0.0023980833333333332
EXTRACT: note_on channel=4 note=63 velocity=0 time=0.0023980833333333332
EXTRACT: note_on channel=4 note=60 velocity=0 time=0
EXTRACT: note_on channel=4 note=51 velocity=0 time=0
EXTRACT: note_on channel=4 note=68 velocity=0 time=0
EXTRACT: note_on channel=4 note=63 velocity=103 time=0
EXTRACT: note_on channel=4 note=60 velocity=102 time=0
EXTRACT: note_on channel=4 note=48 velocity=96 time=0
EXTRACT: note_on channel=4 note=67 velocity=104 time=0
EXTRACT: note_on channel=9 note=70 velocity=108 time=0.0047961666666666665
EXTRACT: note_on channel=5 note=84 velocity=0 time=0.007194249999999999
EXTRACT: note_on channel=5 note=79 velocity=118 time=0
EXTRACT: note_on channel=9 note=35 velocity=97 time=0
EXTRACT: control_change channel=5 control=11 value=59 time=0.023980833333333333
EXTRACT: note_on channel=3 note=68 velocity=0 time=0.0047961666666666665
EXTRACT: note_on channel=3 note=80 velocity=0 time=0
EXTRACT: control_change channel=6 control=11 value=117 time=0.011990416666666667
EXTRACT: control_change channel=7 control=11 value=115 time=0.0047961666666666665
EXTRACT: control_change channel=4 control=11 value=59 time=0.0047961666666666665
EXTRACT: note_on channel=9 note=70 velocity=0 time=0
EXTRACT: note_on channel=9 note=35 velocity=0 time=0.007194249999999999
EXTRACT: control_change channel=6 control=11 value=113 time=0.007194249999999999
EXTRACT: control_change channel=7 control=11 value=111 time=0.0047961666666666665
EXTRACT: control_change channel=6 control=11 value=109 time=0.009592333333333333
EXTRACT: control_change channel=7 control=11 value=106 time=0.007194249999999999
EXTRACT: control_change channel=6 control=11 value=101 time=0.016786583333333334
EXTRACT: control_change channel=7 control=11 value=99 time=0.0047961666666666665
EXTRACT: control_change channel=6 control=11 value=96 time=0.019184666666666666
EXTRACT: control_change channel=7 control=11 value=94 time=0.0047961666666666665
EXTRACT: control_change channel=6 control=11 value=92 time=0.019184666666666666
EXTRACT: control_change channel=7 control=11 value=90 time=0.011990416666666667
EXTRACT: control_change channel=4 control=11 value=61 time=0.0047961666666666665
EXTRACT: control_change channel=6 control=11 value=88 time=0.014388499999999999
EXTRACT: control_change channel=5 control=11 value=57 time=0.014388499999999999
EXTRACT: control_change channel=7 control=11 value=86 time=0.0047961666666666665
EXTRACT: note_on channel=7 note=48 velocity=0 time=0.007194249999999999
EXTRACT: note_on channel=6 note=60 velocity=0 time=0.0023980833333333332
EXTRACT: control_change channel=6 control=11 value=120 time=0.0023980833333333332
EXTRACT: note_on channel=7 note=48 velocity=66 time=0.0047961666666666665
EXTRACT: note_on channel=1 note=36 velocity=116 time=0.0023980833333333332
EXTRACT: note_on channel=6 note=60 velocity=65 time=0
EXTRACT: note_on channel=9 note=70 velocity=77 time=0.007194249999999999
EXTRACT: control_change channel=7 control=11 value=116 time=0.0047961666666666665
EXTRACT: note_on channel=9 note=46 velocity=61 time=0.009592333333333333
EXTRACT: control_change channel=6 control=11 value=110 time=0.0023980833333333332
EXTRACT: control_change channel=7 control=11 value=103 time=0.0047961666666666665
EXTRACT: note_on channel=3 note=63 velocity=83 time=0.009592333333333333
EXTRACT: note_on channel=3 note=75 velocity=115 time=0
EXTRACT: control_change channel=6 control=11 value=97 time=0
EXTRACT: control_change channel=7 control=11 value=92 time=0.0047961666666666665
EXTRACT: control_change channel=6 control=11 value=88 time=0.011990416666666667
EXTRACT: control_change channel=7 control=11 value=83 time=0.0047961666666666665
EXTRACT: note_on channel=9 note=70 velocity=0 time=0.0047961666666666665
EXTRACT: control_change channel=6 control=11 value=78 time=0.0047961666666666665
EXTRACT: control_change channel=7 control=11 value=73 time=0.0047961666666666665
EXTRACT: note_on channel=9 note=46 velocity=0 time=0.0047961666666666665
EXTRACT: control_change channel=6 control=11 value=69 time=0.007194249999999999
EXTRACT: control_change channel=7 control=11 value=65 time=0.0047961666666666665
EXTRACT: control_change channel=6 control=11 value=63 time=0.009592333333333333
EXTRACT: note_on channel=3 note=75 velocity=0 time=0.007194249999999999
EXTRACT: note_on channel=3 note=63 velocity=0 time=0
EXTRACT: control_change channel=7 control=11 value=60 time=0
EXTRACT: control_change channel=6 control=11 value=56 time=0.009592333333333333
EXTRACT: note_on channel=9 note=70 velocity=67 time=0.007194249999999999
EXTRACT: control_change channel=7 control=11 value=53 time=0.0047961666666666665
EXTRACT: note_on channel=9 note=42 velocity=113 time=0.0023980833333333332
EXTRACT: control_change channel=6 control=11 value=51 time=0.009592333333333333
EXTRACT: control_change channel=7 control=11 value=49 time=0.0047961666666666665
EXTRACT: control_change channel=6 control=11 value=46 time=0.009592333333333333
EXTRACT: control_change channel=7 control=11 value=44 time=0.0047961666666666665
EXTRACT: control_change channel=6 control=11 value=42 time=0.011990416666666667
EXTRACT: note_on channel=9 note=70 velocity=0 time=0.009592333333333333
EXTRACT: control_change channel=7 control=11 value=40 time=0.0023980833333333332
EXTRACT: note_on channel=9 note=42 velocity=0 time=0.0047961666666666665
EXTRACT: note_on channel=1 note=36 velocity=0 time=0.035971249999999996
EXTRACT: note_on channel=9 note=70 velocity=103 time=0.014388499999999999
EXTRACT: note_on channel=3 note=72 velocity=80 time=0.009592333333333333
EXTRACT: note_on channel=3 note=84 velocity=110 time=0
EXTRACT: note_on channel=9 note=37 velocity=91 time=0
EXTRACT: note_on channel=9 note=28 velocity=68 time=0
EXTRACT: note_on channel=9 note=39 velocity=67 time=0
EXTRACT: note_on channel=9 note=35 velocity=97 time=0
EXTRACT: note_on channel=9 note=28 velocity=0 time=0.0023980833333333332
EXTRACT: note_on channel=9 note=37 velocity=0 time=0
EXTRACT: note_on channel=9 note=40 velocity=64 time=0
EXTRACT: control_change channel=6 control=11 value=38 time=0.014388499999999999
EXTRACT: control_change channel=7 control=11 value=36 time=0.0047961666666666665
EXTRACT: note_on channel=9 note=39 velocity=50 time=0.009592333333333333
EXTRACT: note_on channel=9 note=70 velocity=0 time=0.016786583333333334
EXTRACT: control_change channel=4 control=11 value=59 time=0.0023980833333333332
EXTRACT: note_on channel=9 note=39 velocity=0 time=0.007194249999999999
EXTRACT: note_on channel=9 note=35 velocity=0 time=0
EXTRACT: note_on channel=9 note=40 velocity=0 time=0.0023980833333333332
EXTRACT: control_change channel=5 control=11 value=59 time=0.023980833333333333
EXTRACT: control_change channel=6 control=11 value=39 time=0.0023980833333333332
EXTRACT: note_on channel=9 note=39 velocity=0 time=0.0023980833333333332
EXTRACT: control_change channel=7 control=11 value=42 time=0.057553999999999994
EXTRACT: control_change channel=6 control=11 value=44 time=0.009592333333333333
EXTRACT: control_change channel=7 control=11 value=46 time=0.0047961666666666665
EXTRACT: control_change channel=6 control=11 value=49 time=0.026378916666666665
EXTRACT: note_on channel=3 note=84 velocity=0 time=0.011990416666666667
EXTRACT: note_on channel=3 note=72 velocity=0 time=0
EXTRACT: control_change channel=7 control=11 value=51 time=0.0023980833333333332
EXTRACT: control_change channel=6 control=11 value=53 time=0.009592333333333333
EXTRACT: note_on channel=9 note=70 velocity=75 time=0.0023980833333333332
EXTRACT: note_on channel=1 note=36 velocity=115 time=0.0047961666666666665
EXTRACT: control_change channel=4 control=11 value=57 time=0.0023980833333333332
EXTRACT: note_on channel=3 note=82 velocity=107 time=0.009592333333333333
EXTRACT: note_on channel=3 note=70 velocity=78 time=0
EXTRACT: note_on channel=9 note=46 velocity=62 time=0.011990416666666667
EXTRACT: control_change channel=7 control=11 value=55 time=0.0047961666666666665
EXTRACT: note_on channel=9 note=70 velocity=0 time=0.023980833333333333
EXTRACT: control_change channel=5 control=11 value=57 time=0.009592333333333333
EXTRACT: note_on channel=3 note=70 velocity=0 time=0.0023980833333333332
EXTRACT: note_on channel=3 note=82 velocity=0 time=0
EXTRACT: note_on channel=9 note=46 velocity=0 time=0.016786583333333334
EXTRACT: control_change channel=6 control=11 value=57 time=0.021582749999999998
EXTRACT: control_change channel=7 control=11 value=61 time=0.0047961666666666665
EXTRACT: note_on channel=9 note=70 velocity=67 time=0.016786583333333334
EXTRACT: note_on channel=9 note=42 velocity=111 time=0.007194249999999999
EXTRACT: control_change channel=6 control=11 value=63 time=0.023980833333333333
EXTRACT: note_on channel=9 note=70 velocity=0 time=0.026378916666666665
EXTRACT: note_on channel=9 note=42 velocity=0 time=0.007194249999999999
EXTRACT: note_on channel=1 note=36 velocity=0 time=0.035971249999999996
EXTRACT: note_on channel=9 note=70 velocity=103 time=0.016786583333333334
EXTRACT: note_on channel=5 note=79 velocity=0 time=0.0047961666666666665
EXTRACT: note_on channel=5 note=82 velocity=118 time=0.0023980833333333332
EXTRACT: note_on channel=9 note=35 velocity=97 time=0
EXTRACT: note_on channel=3 note=70 velocity=83 time=0.011990416666666667
EXTRACT: note_on channel=3 note=82 velocity=115 time=0
EXTRACT: control_change channel=5 control=11 value=59 time=0.011990416666666667
EXTRACT: note_on channel=9 note=70 velocity=0 time=0.026378916666666665
EXTRACT: note_on channel=9 note=35 velocity=0 time=0.007194249999999999
EXTRACT: control_change channel=7 control=11 value=65 time=0.0047961666666666665
EXTRACT: control_change channel=6 control=11 value=68 time=0.055155916666666666
EXTRACT: control_change channel=7 control=11 value=71 time=0.028776999999999997
EXTRACT: control_change channel=5 control=11 value=57 time=0.04076741666666667
EXTRACT: control_change channel=6 control=11 value=73 time=0.009592333333333333
EXTRACT: control_change channel=7 control=11 value=75 time=0.0047961666666666665
EXTRACT: note_on channel=3 note=82 velocity=0 time=0.009592333333333333
EXTRACT: note_on channel=3 note=70 velocity=0 time=0
EXTRACT: control_change channel=6 control=11 value=77 time=0
EXTRACT: note_on channel=1 note=36 velocity=116 time=0.009592333333333333
EXTRACT: note_on channel=3 note=80 velocity=107 time=0.009592333333333333
EXTRACT: note_on channel=3 note=68 velocity=78 time=0
EXTRACT: control_change channel=7 control=11 value=79 time=0.0023980833333333332
EXTRACT: note_on channel=9 note=82 velocity=65 time=0.0023980833333333332
EXTRACT: control_change channel=6 control=11 value=81 time=0.007194249999999999
EXTRACT: note_on channel=9 note=46 velocity=63 time=0
EXTRACT: control_change channel=7 control=11 value=83 time=0.007194249999999999
EXTRACT: control_change channel=6 control=11 value=85 time=0.009592333333333333
EXTRACT: note_on channel=3 note=68 velocity=0 time=0.021582749999999998
EXTRACT: note_on channel=3 note=80 velocity=0 time=0
EXTRACT: control_change channel=7 control=11 value=88 time=0
EXTRACT: control_change channel=6 control=11 value=90 time=0.009592333333333333
EXTRACT: note_on channel=9 note=82 velocity=0 time=0.0023980833333333332
EXTRACT: control_change channel=7 control=11 value=92 time=0.0023980833333333332
EXTRACT: note_on channel=9 note=46 velocity=0 time=0.0047961666666666665
EXTRACT: control_change channel=6 control=11 value=94 time=0.014388499999999999
EXTRACT: control_change channel=7 control=11 value=96 time=0.0047961666666666665
EXTRACT: control_change channel=6 control=11 value=98 time=0.009592333333333333
EXTRACT: control_change channel=7 control=11 value=100 time=0.0047961666666666665
EXTRACT: control_change channel=6 control=11 value=102 time=0.011990416666666667
EXTRACT: note_on channel=9 note=82 velocity=57 time=0.0047961666666666665
EXTRACT: note_on channel=9 note=42 velocity=111 time=0
EXTRACT: control_change channel=7 control=11 value=105 time=0.007194249999999999
EXTRACT: control_change channel=6 control=11 value=107 time=0.009592333333333333
EXTRACT: control_change channel=7 control=11 value=109 time=0.007194249999999999
EXTRACT: control_change channel=6 control=11 value=112 time=0.009592333333333333
EXTRACT: control_change channel=7 control=11 value=114 time=0.0047961666666666665
EXTRACT: note_on channel=9 note=39 velocity=50 time=0.0023980833333333332
EXTRACT: control_change channel=6 control=11 value=116 time=0.009592333333333333
EXTRACT: control_change channel=7 control=11 value=118 time=0.0047961666666666665
EXTRACT: note_on channel=9 note=42 velocity=0 time=0.0023980833333333332
EXTRACT: note_on channel=9 note=82 velocity=0 time=0
EXTRACT: control_change channel=6 control=11 value=120 time=0.014388499999999999
EXTRACT: note_on channel=7 note=48 velocity=0 time=0.011990416666666667
EXTRACT: note_on channel=1 note=36 velocity=0 time=0.011990416666666667
EXTRACT: note_on channel=6 note=60 velocity=0 time=0
EXTRACT: note_on channel=9 note=39 velocity=0 time=0.0023980833333333332
EXTRACT: note_on channel=3 note=68 velocity=81 time=0.019184666666666666
EXTRACT: note_on channel=3 note=80 velocity=111 time=0
EXTRACT: note_on channel=9 note=40 velocity=55 time=0
EXTRACT: note_on channel=9 note=37 velocity=91 time=0
EXTRACT: note_on channel=9 note=28 velocity=68 time=0
EXTRACT: note_on channel=9 note=39 velocity=73 time=0
EXTRACT: note_on channel=9 note=82 velocity=71 time=0
EXTRACT: note_on channel=9 note=35 velocity=97 time=0
EXTRACT: note_on channel=9 note=28 velocity=0 time=0.0023980833333333332
EXTRACT: note_on channel=9 note=37 velocity=0 time=0
EXTRACT: note_on channel=9 note=39 velocity=55 time=0.028776999999999997
EXTRACT: note_on channel=9 note=39 velocity=0 time=0.026378916666666665
EXTRACT: note_on channel=9 note=82 velocity=0 time=0
EXTRACT: note_on channel=9 note=40 velocity=0 time=0
EXTRACT: note_on channel=9 note=35 velocity=0 time=0
EXTRACT: note_on channel=9 note=39 velocity=0 time=0.031175083333333332
EXTRACT: control_change channel=5 control=11 value=59 time=0.014388499999999999
EXTRACT: note_on channel=7 note=48 velocity=71 time=0.11510799999999999
EXTRACT: note_on channel=1 note=36 velocity=113 time=0.0023980833333333332
EXTRACT: note_on channel=6 note=60 velocity=70 time=0
EXTRACT: note_on channel=9 note=82 velocity=53 time=0.014388499999999999
EXTRACT: note_on channel=9 note=46 velocity=62 time=0.007194249999999999
EXTRACT: pitchwheel channel=3 pitch=140 time=0.007194249999999999
EXTRACT: pitchwheel channel=3 pitch=360 time=0.0047961666666666665
EXTRACT: pitchwheel channel=3 pitch=640 time=0.0047961666666666665
EXTRACT: pitchwheel channel=3 pitch=980 time=0.0023980833333333332
EXTRACT: pitchwheel channel=3 pitch=1300 time=0
EXTRACT: control_change channel=5 control=11 value=57 time=0.0047961666666666665
EXTRACT: pitchwheel channel=3 pitch=1680 time=0.0047961666666666665
EXTRACT: pitchwheel channel=3 pitch=2120 time=0.0023980833333333332
EXTRACT: control_change channel=7 control=11 value=118 time=0
EXTRACT: pitchwheel channel=3 pitch=2580 time=0.0047961666666666665
EXTRACT: pitchwheel channel=3 pitch=3040 time=0
EXTRACT: control_change channel=6 control=11 value=116 time=0.0047961666666666665
EXTRACT: pitchwheel channel=3 pitch=3520 time=0.0023980833333333332
EXTRACT: pitchwheel channel=3 pitch=4000 time=0
EXTRACT: pitchwheel channel=3 pitch=4440 time=0.007194249999999999
EXTRACT: note_on channel=9 note=82 velocity=0 time=0
EXTRACT: pitchwheel channel=3 pitch=4920 time=0.0047961666666666665
EXTRACT: control_change channel=7 control=11 value=114 time=0
EXTRACT: note_on channel=9 note=46 velocity=0 time=0.0023980833333333332
EXTRACT: pitchwheel channel=3 pitch=5480 time=0.0023980833333333332
EXTRACT: pitchwheel channel=3 pitch=6020 time=0.0023980833333333332
EXTRACT: control_change channel=6 control=11 value=112 time=0.0023980833333333332
EXTRACT: pitchwheel channel=3 pitch=6480 time=0.0023980833333333332
EXTRACT: pitchwheel channel=3 pitch=6960 time=0.0047961666666666665
EXTRACT: pitchwheel channel=3 pitch=7480 time=0.0023980833333333332
EXTRACT: control_change channel=7 control=11 value=109 time=0.0023980833333333332
EXTRACT: pitchwheel channel=3 pitch=7900 time=0.0023980833333333332
EXTRACT: pitchwheel channel=3 pitch=8160 time=0.0023980833333333332
EXTRACT: pitchwheel channel=3 pitch=8191 time=0.0047961666666666665
EXTRACT: control_change channel=6 control=11 value=107 time=0.0023980833333333332
EXTRACT: control_change channel=7 control=11 value=104 time=0.0047961666666666665
EXTRACT: note_on channel=3 note=80 velocity=0 time=0.009592333333333333
EXTRACT: note_on channel=3 note=68 velocity=0 time=0
EXTRACT: control_change channel=6 control=11 value=101 time=0.007194249999999999
EXTRACT: note_on channel=9 note=82 velocity=50 time=0
EXTRACT: note_on channel=9 note=42 velocity=113 time=0
EXTRACT: control_change channel=7 control=11 value=98 time=0.014388499999999999
EXTRACT: control_change channel=6 control=11 value=96 time=0.016786583333333334
EXTRACT: control_change channel=7 control=11 value=94 time=0.014388499999999999
EXTRACT: note_on channel=9 note=42 velocity=0 time=0.011990416666666667
EXTRACT: note_on channel=9 note=82 velocity=0 time=0
EXTRACT: control_change channel=6 control=11 value=92 time=0.014388499999999999
EXTRACT: note_on channel=7 note=48 velocity=0 time=0.019184666666666666
EXTRACT: control_change channel=7 control=11 value=120 time=0
EXTRACT: note_on channel=1 note=36 velocity=0 time=0.0023980833333333332
EXTRACT: note_on channel=6 note=60 velocity=0 time=0
EXTRACT: note_on channel=7 note=49 velocity=73 time=0.007194249999999999
EXTRACT: note_on channel=4 note=67 velocity=0 time=0.0023980833333333332
EXTRACT: note_on channel=4 note=63 velocity=0 time=0
EXTRACT: note_on channel=4 note=60 velocity=0 time=0
EXTRACT: note_on channel=4 note=48 velocity=0 time=0
EXTRACT: note_on channel=6 note=61 velocity=72 time=0
EXTRACT: pitchwheel channel=3 pitch=0 time=0.0023980833333333332
EXTRACT: note_on channel=4 note=61 velocity=102 time=0.0023980833333333332
EXTRACT: note_on channel=4 note=65 velocity=105 time=0
EXTRACT: note_on channel=4 note=68 velocity=106 time=0
EXTRACT: note_on channel=4 note=49 velocity=95 time=0
EXTRACT: note_on channel=9 note=70 velocity=103 time=0
EXTRACT: note_on channel=5 note=82 velocity=0 time=0.007194249999999999
EXTRACT: note_on channel=3 note=77 velocity=114 time=0.0023980833333333332
EXTRACT: note_on channel=3 note=65 velocity=83 time=0
EXTRACT: note_on channel=5 note=80 velocity=121 time=0
EXTRACT: note_on channel=9 note=35 velocity=97 time=0
EXTRACT: control_change channel=6 control=11 value=118 time=0.03836933333333333
EXTRACT: control_change channel=7 control=11 value=116 time=0.007194249999999999
EXTRACT: note_on channel=9 note=70 velocity=0 time=0.0023980833333333332
EXTRACT: control_change channel=5 control=11 value=59 time=0.0047961666666666665
EXTRACT: control_change channel=4 control=11 value=59 time=0.0047961666666666665
EXTRACT: note_on channel=9 note=35 velocity=0 time=0
EXTRACT: control_change channel=6 control=11 value=113 time=0.011990416666666667
EXTRACT: control_change channel=7 control=11 value=110 time=0.014388499999999999
EXTRACT: control_change channel=6 control=11 value=106 time=0.016786583333333334
EXTRACT: control_change channel=7 control=11 value=104 time=0.014388499999999999
EXTRACT: control_change channel=6 control=11 value=102 time=0.016786583333333334
EXTRACT: control_change channel=7 control=11 value=100 time=0.014388499999999999
EXTRACT: control_change channel=6 control=11 value=98 time=0.019184666666666666
EXTRACT: control_change channel=5 control=11 value=61 time=0.0047961666666666665
EXTRACT: control_change channel=4 control=11 value=61 time=0.011990416666666667
EXTRACT: control_change channel=7 control=11 value=96 time=0.019184666666666666
EXTRACT: note_on channel=7 note=49 velocity=0 time=0.007194249999999999
EXTRACT: note_on channel=6 note=61 velocity=0 time=0.0023980833333333332
EXTRACT: control_change channel=6 control=11 value=120 time=0
EXTRACT: note_on channel=7 note=49 velocity=66 time=0.0047961666666666665
EXTRACT: note_on channel=1 note=25 velocity=123 time=0.0023980833333333332
EXTRACT: note_on channel=6 note=61 velocity=62 time=0
EXTRACT: note_on channel=9 note=70 velocity=77 time=0.007194249999999999
EXTRACT: control_change channel=7 control=11 value=118 time=0.007194249999999999
EXTRACT: control_change channel=6 control=11 value=115 time=0.009592333333333333
EXTRACT: note_on channel=9 note=46 velocity=61 time=0
EXTRACT: control_change channel=7 control=11 value=111 time=0.0047961666666666665
EXTRACT: control_change channel=6 control=11 value=107 time=0.011990416666666667
EXTRACT: control_change channel=7 control=11 value=103 time=0.0047961666666666665
EXTRACT: control_change channel=6 control=11 value=100 time=0.009592333333333333
EXTRACT: control_change channel=7 control=11 value=98 time=0.0047961666666666665
EXTRACT: note_on channel=9 note=70 velocity=0 time=0.0047961666666666665
EXTRACT: control_change channel=6 control=11 value=95 time=0.007194249999999999
EXTRACT: control_change channel=7 control=11 value=92 time=0.0047961666666666665
EXTRACT: note_on channel=9 note=46 velocity=0 time=0.0047961666666666665
EXTRACT: control_change channel=6 control=11 value=89 time=0.0047961666666666665
EXTRACT: control_change channel=7 control=11 value=86 time=0.0047961666666666665
EXTRACT: control_change channel=6 control=11 value=83 time=0.011990416666666667
EXTRACT: control_change channel=7 control=11 value=81 time=0.0047961666666666665
EXTRACT: control_change channel=6 control=11 value=78 time=0.016786583333333334
EXTRACT: note_on channel=9 note=70 velocity=67 time=0
EXTRACT: control_change channel=7 control=11 value=76 time=0.007194249999999999
EXTRACT: note_on channel=9 note=42 velocity=109 time=0
EXTRACT: control_change channel=6 control=11 value=74 time=0.009592333333333333
EXTRACT: control_change channel=7 control=11 value=72 time=0.011990416666666667
EXTRACT: note_on channel=3 note=65 velocity=0 time=0.0023980833333333332
EXTRACT: note_on channel=3 note=77 velocity=0 time=0
EXTRACT: control_change channel=6 control=11 value=70 time=0.016786583333333334
EXTRACT: control_change channel=7 control=11 value=68 time=0.0047961666666666665
EXTRACT: note_on channel=9 note=70 velocity=0 time=0.0047961666666666665
EXTRACT: control_change channel=6 control=11 value=66 time=0.0047961666666666665
EXTRACT: note_on channel=9 note=42 velocity=0 time=0.0023980833333333332
EXTRACT: control_change channel=7 control=11 value=64 time=0.011990416666666667
EXTRACT: control_change channel=6 control=11 value=64 time=0.0023980833333333332
EXTRACT: note_on channel=1 note=25 velocity=0 time=0.021582749999999998
EXTRACT: control_change channel=6 control=11 value=62 time=0.0023980833333333332
EXTRACT: note_on channel=9 note=70 velocity=108 time=0.014388499999999999
EXTRACT: note_on channel=9 note=37 velocity=91 time=0.007194249999999999
EXTRACT: note_on channel=9 note=28 velocity=68 time=0
EXTRACT: note_on channel=9 note=39 velocity=67 time=0
EXTRACT: note_on channel=9 note=35 velocity=97 time=0
EXTRACT: note_on channel=9 note=28 velocity=0 time=0.0023980833333333332
EXTRACT: note_on channel=9 note=37 velocity=0 time=0
EXTRACT: note_on channel=9 note=40 velocity=64 time=0.0023980833333333332
EXTRACT: note_on channel=3 note=79 velocity=112 time=0.014388499999999999
EXTRACT: note_on channel=3 note=67 velocity=81 time=0
EXTRACT: control_change channel=4 control=11 value=59 time=0.007194249999999999
EXTRACT: note_on channel=9 note=39 velocity=50 time=0.0047961666666666665
EXTRACT: note_on channel=9 note=70 velocity=0 time=0.019184666666666666
EXTRACT: control_change channel=5 control=11 value=59 time=0.0047961666666666665
EXTRACT: note_on channel=9 note=39 velocity=0 time=0.0023980833333333332
EXTRACT: note_on channel=9 note=35 velocity=0 time=0
EXTRACT: note_on channel=9 note=40 velocity=0 time=0.0047961666666666665
EXTRACT: control_change channel=7 control=11 value=60 time=0.007194249999999999
EXTRACT: note_on channel=9 note=39 velocity=0 time=0.019184666666666666
EXTRACT: control_change channel=4 control=11 value=57 time=0.11031183333333333
EXTRACT: control_change channel=6 control=11 value=62 time=0.011990416666666667
EXTRACT: note_on channel=9 note=70 velocity=75 time=0.0047961666666666665
EXTRACT: note_on channel=1 note=25 velocity=122 time=0.0047961666666666665
EXTRACT: control_change channel=5 control=11 value=57 time=0.0047961666666666665
EXTRACT: control_change channel=7 control=11 value=64 time=0.007194249999999999
EXTRACT: control_change channel=6 control=11 value=64 time=0.0023980833333333332
EXTRACT: note_on channel=9 note=46 velocity=59 time=0.007194249999999999
EXTRACT: control_change channel=6 control=11 value=67 time=0.009592333333333333
EXTRACT: note_on channel=9 note=70 velocity=0 time=0.021582749999999998
EXTRACT: control_change channel=7 control=11 value=69 time=0.007194249999999999
EXTRACT: note_on channel=9 note=46 velocity=0 time=0.019184666666666666
EXTRACT: control_change channel=6 control=11 value=71 time=0.0047961666666666665
EXTRACT: note_on channel=9 note=70 velocity=67 time=0.03836933333333333
EXTRACT: control_change channel=7 control=11 value=73 time=0.007194249999999999
EXTRACT: note_on channel=9 note=42 velocity=108 time=0
EXTRACT: note_on channel=9 note=70 velocity=0 time=0.050359749999999995
EXTRACT: note_on channel=9 note=42 velocity=0 time=0.007194249999999999
EXTRACT: note_on channel=3 note=67 velocity=0 time=0.016786583333333334
EXTRACT: note_on channel=3 note=79 velocity=0 time=0
EXTRACT: note_on channel=1 note=25 velocity=0 time=0.021582749999999998
EXTRACT: control_change channel=6 control=11 value=76 time=0
EXTRACT: note_on channel=9 note=70 velocity=108 time=0.014388499999999999
EXTRACT: note_on channel=9 note=35 velocity=97 time=0.007194249999999999
EXTRACT: note_on channel=3 note=80 velocity=110 time=0.019184666666666666
EXTRACT: note_on channel=3 note=68 velocity=80 time=0
EXTRACT: control_change channel=7 control=11 value=78 time=0.011990416666666667
EXTRACT: note_on channel=9 note=70 velocity=0 time=0.019184666666666666
EXTRACT: note_on channel=9 note=35 velocity=0 time=0.007194249999999999
EXTRACT: note_on channel=1 note=25 velocity=120 time=0.16306966666666667
EXTRACT: control_change channel=6 control=11 value=81 time=0.007194249999999999
EXTRACT: note_on channel=9 note=70 velocity=76 time=0
EXTRACT: note_on channel=9 note=46 velocity=61 time=0.014388499999999999
EXTRACT: note_on channel=9 note=70 velocity=0 time=0.043165499999999996
EXTRACT: control_change channel=7 control=11 value=83 time=0.011990416666666667
EXTRACT: note_on channel=9 note=46 velocity=0 time=0.0023980833333333332
EXTRACT: note_on channel=9 note=70 velocity=67 time=0.04556358333333333
EXTRACT: note_on channel=9 note=42 velocity=108 time=0.007194249999999999
EXTRACT: control_change channel=6 control=11 value=85 time=0.023980833333333333
EXTRACT: control_change channel=7 control=11 value=87 time=0.014388499999999999
EXTRACT: note_on channel=3 note=68 velocity=0 time=0.009592333333333333
EXTRACT: note_on channel=3 note=80 velocity=0 time=0
EXTRACT: note_on channel=9 note=70 velocity=0 time=0.0023980833333333332
EXTRACT: control_change channel=6 control=11 value=89 time=0.0047961666666666665
EXTRACT: note_on channel=9 note=42 velocity=0 time=0.0023980833333333332
EXTRACT: control_change channel=7 control=11 value=91 time=0.026378916666666665
EXTRACT: note_on channel=1 note=25 velocity=0 time=0.009592333333333333
EXTRACT: control_change channel=6 control=11 value=93 time=0
EXTRACT: control_change channel=7 control=11 value=95 time=0.014388499999999999
EXTRACT: note_on channel=9 note=70 velocity=107 time=0
EXTRACT: note_on channel=9 note=40 velocity=55 time=0.009592333333333333
EXTRACT: note_on channel=9 note=37 velocity=91 time=0
EXTRACT: note_on channel=9 note=28 velocity=68 time=0
EXTRACT: note_on channel=9 note=39 velocity=72 time=0
EXTRACT: note_on channel=9 note=35 velocity=97 time=0
EXTRACT: note_on channel=3 note=65 velocity=80 time=0.0023980833333333332
EXTRACT: note_on channel=3 note=77 velocity=110 time=0
EXTRACT: note_on channel=9 note=28 velocity=0 time=0
EXTRACT: note_on channel=9 note=37 velocity=0 time=0
EXTRACT: control_change channel=6 control=11 value=97 time=0.021582749999999998
EXTRACT: note_on channel=9 note=39 velocity=55 time=0.007194249999999999
EXTRACT: control_change channel=7 control=11 value=100 time=0.0047961666666666665
EXTRACT: note_on channel=9 note=70 velocity=0 time=0.011990416666666667
EXTRACT: note_on channel=9 note=35 velocity=0 time=0.009592333333333333
EXTRACT: note_on channel=9 note=40 velocity=0 time=0
EXTRACT: note_on channel=9 note=39 velocity=0 time=0
EXTRACT: control_change channel=6 control=11 value=102 time=0.0047961666666666665
EXTRACT: control_change channel=7 control=11 value=104 time=0.0047961666666666665
EXTRACT: control_change channel=6 control=11 value=106 time=0.019184666666666666
EXTRACT: note_on channel=9 note=39 velocity=0 time=0.0023980833333333332
EXTRACT: control_change channel=7 control=11 value=108 time=0.009592333333333333
EXTRACT: control_change channel=6 control=11 value=110 time=0.019184666666666666
EXTRACT: control_change channel=7 control=11 value=113 time=0.014388499999999999
EXTRACT: control_change channel=6 control=11 value=116 time=0.016786583333333334
EXTRACT: control_change channel=7 control=11 value=118 time=0.014388499999999999
EXTRACT: control_change channel=6 control=11 value=120 time=0.016786583333333334
EXTRACT: note_on channel=7 note=49 velocity=0 time=0.023980833333333333
EXTRACT: note_on channel=6 note=61 velocity=0 time=0.0047961666666666665
EXTRACT: note_on channel=1 note=25 velocity=120 time=0.009592333333333333
EXTRACT: note_on channel=9 note=70 velocity=73 time=0.007194249999999999
EXTRACT: note_on channel=9 note=46 velocity=61 time=0.016786583333333334
EXTRACT: note_on channel=9 note=70 velocity=0 time=0.04076741666666667
EXTRACT: note_on channel=9 note=46 velocity=0 time=0.016786583333333334
EXTRACT: note_on channel=9 note=70 velocity=67 time=0.043165499999999996
EXTRACT: note_on channel=9 note=42 velocity=109 time=0.007194249999999999
EXTRACT: note_on channel=9 note=70 velocity=0 time=0.050359749999999995
EXTRACT: note_on channel=3 note=77 velocity=0 time=0.007194249999999999
EXTRACT: note_on channel=3 note=65 velocity=0 time=0
EXTRACT: note_on channel=9 note=42 velocity=0 time=0
EXTRACT: note_on channel=1 note=25 velocity=0 time=0.035971249999999996
EXTRACT: note_on channel=7 note=51 velocity=68 time=0.007194249999999999
EXTRACT: note_on channel=6 note=63 velocity=70 time=0.0023980833333333332
EXTRACT: note_on channel=4 note=49 velocity=0 time=0.0047961666666666665
EXTRACT: note_on channel=4 note=61 velocity=0 time=0
EXTRACT: note_on channel=4 note=65 velocity=0 time=0
EXTRACT: note_on channel=4 note=68 velocity=0 time=0
EXTRACT: note_on channel=4 note=60 velocity=103 time=0.0023980833333333332
EXTRACT: note_on channel=4 note=72 velocity=110 time=0
EXTRACT: note_on channel=4 note=63 velocity=105 time=0
EXTRACT: note_on channel=4 note=68 velocity=107 time=0
EXTRACT: note_on channel=9 note=70 velocity=108 time=0
EXTRACT: note_on channel=11 note=51 velocity=127 time=0.0023980833333333332
EXTRACT: note_on channel=5 note=80 velocity=0 time=0.0047961666666666665
EXTRACT: note_on channel=5 note=79 velocity=125 time=0
EXTRACT: control_change channel=7 control=11 value=117 time=0
EXTRACT: note_on channel=9 note=35 velocity=97 time=0
EXTRACT: control_change channel=6 control=11 value=117 time=0.0023980833333333332
EXTRACT: pitchwheel channel=3 pitch=-2721 time=0.009592333333333333
EXTRACT: pitchwheel channel=3 pitch=-2861 time=0
EXTRACT: control_change channel=7 control=11 value=108 time=0.0023980833333333332
EXTRACT: control_change channel=4 control=11 value=57 time=0.0023980833333333332
EXTRACT: control_change channel=6 control=11 value=108 time=0
EXTRACT: pitchwheel channel=3 pitch=-2561 time=0.0023980833333333332
EXTRACT: pitchwheel channel=3 pitch=-2381 time=0.0047961666666666665
EXTRACT: note_on channel=3 note=84 velocity=112 time=0
EXTRACT: note_on channel=3 note=72 velocity=81 time=0
EXTRACT: pitchwheel channel=3 pitch=-1881 time=0.0023980833333333332
EXTRACT: pitchwheel channel=3 pitch=-2141 time=0
EXTRACT: note_on channel=11 note=51 velocity=0 time=0
EXTRACT: control_change channel=7 control=11 value=98 time=0.0047961666666666665
EXTRACT: control_change channel=6 control=11 value=98 time=0.0023980833333333332
EXTRACT: pitchwheel channel=3 pitch=-1661 time=0.0023980833333333332
EXTRACT: pitchwheel channel=3 pitch=-1421 time=0.0023980833333333332
EXTRACT: control_change channel=5 control=11 value=59 time=0
EXTRACT: pitchwheel channel=3 pitch=-1181 time=0.0047961666666666665
EXTRACT: pitchwheel channel=3 pitch=-901 time=0
EXTRACT: control_change channel=7 control=11 value=91 time=0.0023980833333333332
EXTRACT: pitchwheel channel=3 pitch=-641 time=0.0023980833333333332
EXTRACT: control_change channel=6 control=11 value=91 time=0
EXTRACT: control_change channel=4 control=11 value=59 time=0.0023980833333333332
EXTRACT: note_on channel=9 note=70 velocity=0 time=0
EXTRACT: pitchwheel channel=3 pitch=-401 time=0.0047961666666666665
EXTRACT: pitchwheel channel=3 pitch=-201 time=0
EXTRACT: note_on channel=9 note=35 velocity=0 time=0.0023980833333333332
EXTRACT: pitchwheel channel=3 pitch=0 time=0.0047961666666666665
EXTRACT: control_change channel=7 control=11 value=83 time=0
EXTRACT: control_change channel=6 control=11 value=83 time=0.0023980833333333332
EXTRACT: control_change channel=7 control=11 value=76 time=0.011990416666666667
EXTRACT: control_change channel=6 control=11 value=76 time=0.0023980833333333332
EXTRACT: control_change channel=7 control=11 value=69 time=0.014388499999999999
EXTRACT: control_change channel=6 control=11 value=69 time=0.0023980833333333332
EXTRACT: control_change channel=7 control=11 value=65 time=0.011990416666666667
EXTRACT: control_change channel=6 control=11 value=65 time=0.0023980833333333332
EXTRACT: control_change channel=7 control=11 value=60 time=0.014388499999999999
EXTRACT: control_change channel=6 control=11 value=60 time=0.0023980833333333332
EXTRACT: control_change channel=7 control=11 value=54 time=0.028776999999999997
EXTRACT: control_change channel=6 control=11 value=54 time=0.0023980833333333332
EXTRACT: control_change channel=4 control=11 value=61 time=0.009592333333333333
EXTRACT: control_change channel=7 control=11 value=50 time=0.0023980833333333332
EXTRACT: control_change channel=5 control=11 value=57 time=0.0023980833333333332
EXTRACT: control_change channel=6 control=11 value=50 time=0
EXTRACT: control_change channel=7 control=11 value=46 time=0.021582749999999998
EXTRACT: control_change channel=6 control=11 value=46 time=0.0023980833333333332
EXTRACT: note_on channel=1 note=27 velocity=124 time=0.023980833333333333
EXTRACT: note_on channel=9 note=70 velocity=77 time=0.0047961666666666665
EXTRACT: note_on channel=9 note=46 velocity=61 time=0.016786583333333334
EXTRACT: note_on channel=9 note=70 velocity=0 time=0.04076741666666667
EXTRACT: note_on channel=9 note=46 velocity=0 time=0.016786583333333334
EXTRACT: control_change channel=7 control=11 value=42 time=0.0023980833333333332
EXTRACT: control_change channel=6 control=11 value=42 time=0.0023980833333333332
EXTRACT: note_on channel=9 note=70 velocity=67 time=0.03836933333333333
EXTRACT: note_on channel=9 note=42 velocity=113 time=0.007194249999999999
EXTRACT: note_on channel=9 note=70 velocity=0 time=0.050359749999999995
EXTRACT: note_on channel=9 note=42 velocity=0 time=0.007194249999999999
EXTRACT: note_on channel=1 note=27 velocity=0 time=0.03836933333333333
EXTRACT: control_change channel=7 control=11 value=46 time=0.014388499999999999
EXTRACT: note_on channel=9 note=70 velocity=103 time=0
EXTRACT: control_change channel=6 control=11 value=46 time=0.0023980833333333332
EXTRACT: note_on channel=11 note=46 velocity=127 time=0
EXTRACT: note_on channel=5 note=79 velocity=0 time=0.0047961666666666665
EXTRACT: note_on channel=5 note=80 velocity=112 time=0
EXTRACT: note_on channel=9 note=37 velocity=91 time=0
EXTRACT: note_on channel=9 note=28 velocity=68 time=0
EXTRACT: note_on channel=9 note=39 velocity=67 time=0
EXTRACT: note_on channel=9 note=35 velocity=97 time=0
EXTRACT: note_on channel=9 note=28 velocity=0 time=0.0023980833333333332
EXTRACT: note_on channel=9 note=37 velocity=0 time=0
EXTRACT: note_on channel=9 note=40 velocity=64 time=0.0023980833333333332
EXTRACT: control_change channel=7 control=11 value=51 time=0.009592333333333333
EXTRACT: control_change channel=6 control=11 value=51 time=0.0023980833333333332
EXTRACT: note_on channel=11 note=46 velocity=0 time=0.009592333333333333
EXTRACT: note_on channel=9 note=39 velocity=50 time=0.0047961666666666665
EXTRACT: control_change channel=5 control=11 value=59 time=0.016786583333333334
EXTRACT: control_change channel=4 control=11 value=59 time=0.0023980833333333332
EXTRACT: note_on channel=9 note=70 velocity=0 time=0
EXTRACT: note_on channel=9 note=39 velocity=0 time=0.007194249999999999
EXTRACT: note_on channel=9 note=35 velocity=0 time=0
EXTRACT: note_on channel=9 note=40 velocity=0 time=0.0047961666666666665
EXTRACT: control_change channel=7 control=11 value=56 time=0.007194249999999999
EXTRACT: control_change channel=6 control=11 value=56 time=0.0023980833333333332
EXTRACT: note_on channel=9 note=39 velocity=0 time=0.016786583333333334
EXTRACT: control_change channel=5 control=11 value=61 time=0.05275783333333333
EXTRACT: control_change channel=7 control=11 value=61 time=0.05995208333333333
EXTRACT: control_change channel=6 control=11 value=61 time=0.0023980833333333332
EXTRACT: control_change channel=7 control=11 value=64 time=0.007194249999999999
EXTRACT: control_change channel=6 control=11 value=64 time=0.0023980833333333332
EXTRACT: note_on channel=9 note=70 velocity=75 time=0.0023980833333333332
EXTRACT: note_on channel=1 note=27 velocity=118 time=0.0047961666666666665
EXTRACT: control_change channel=4 control=11 value=57 time=0.0023980833333333332
EXTRACT: note_on channel=9 note=46 velocity=62 time=0.019184666666666666
EXTRACT: control_change channel=7 control=11 value=66 time=0.023980833333333333
EXTRACT: control_change channel=6 control=11 value=66 time=0.0023980833333333332
EXTRACT: note_on channel=3 note=72 velocity=0 time=0.0047961666666666665
EXTRACT: note_on channel=3 note=84 velocity=0 time=0
EXTRACT: note_on channel=9 note=70 velocity=0 time=0
EXTRACT: note_on channel=9 note=46 velocity=0 time=0.026378916666666665
EXTRACT: note_on channel=9 note=70 velocity=67 time=0.04556358333333333
EXTRACT: note_on channel=9 note=42 velocity=111 time=0.007194249999999999
EXTRACT: control_change channel=5 control=11 value=59 time=0.023980833333333333
EXTRACT: note_on channel=9 note=70 velocity=0 time=0.026378916666666665
EXTRACT: note_on channel=9 note=42 velocity=0 time=0.007194249999999999
EXTRACT: note_on channel=1 note=27 velocity=0 time=0.035971249999999996
EXTRACT: note_on channel=9 note=70 velocity=103 time=0
EXTRACT: note_on channel=11 note=51 velocity=127 time=0.0047961666666666665
EXTRACT: note_on channel=9 note=35 velocity=97 time=0.0047961666666666665
EXTRACT: note_on channel=11 note=51 velocity=0 time=0.026378916666666665
EXTRACT: control_change channel=5 control=11 value=57 time=0.011990416666666667
EXTRACT: note_on channel=9 note=70 velocity=0 time=0.009592333333333333
EXTRACT: control_change channel=7 control=11 value=71 time=0.0047961666666666665
EXTRACT: control_change channel=6 control=11 value=71 time=0.0023980833333333332
EXTRACT: note_on channel=9 note=35 velocity=0 time=0.0023980833333333332
EXTRACT: control_change channel=7 control=11 value=75 time=0.08872908333333333
EXTRACT: control_change channel=6 control=11 value=75 time=0.0023980833333333332
EXTRACT: control_change channel=7 control=11 value=79 time=0.014388499999999999
EXTRACT: control_change channel=6 control=11 value=79 time=0.0023980833333333332
EXTRACT: control_change channel=7 control=11 value=85 time=0.043165499999999996
EXTRACT: control_change channel=6 control=11 value=85 time=0.0023980833333333332
EXTRACT: note_on channel=1 note=27 velocity=121 time=0.007194249999999999
EXTRACT: note_on channel=9 note=82 velocity=65 time=0.014388499999999999
EXTRACT: note_on channel=9 note=46 velocity=63 time=0.009592333333333333
EXTRACT: control_change channel=7 control=11 value=89 time=0.0047961666666666665
EXTRACT: control_change channel=6 control=11 value=89 time=0.0023980833333333332
EXTRACT: control_change channel=7 control=11 value=93 time=0.014388499999999999
EXTRACT: control_change channel=6 control=11 value=93 time=0.0023980833333333332
EXTRACT: note_on channel=9 note=82 velocity=0 time=0.023980833333333333
EXTRACT: control_change channel=7 control=11 value=98 time=0.0047961666666666665
EXTRACT: control_change channel=6 control=11 value=98 time=0.0023980833333333332
EXTRACT: note_on channel=9 note=46 velocity=0 time=0.0023980833333333332
EXTRACT: control_change channel=7 control=11 value=103 time=0.026378916666666665
EXTRACT: control_change channel=6 control=11 value=103 time=0.0023980833333333332
EXTRACT: control_change channel=7 control=11 value=108 time=0.021582749999999998
EXTRACT: note_on channel=9 note=82 velocity=57 time=0
EXTRACT: note_on channel=9 note=42 velocity=111 time=0
EXTRACT: control_change channel=6 control=11 value=108 time=0.0023980833333333332
EXTRACT: control_change channel=7 control=11 value=113 time=0.019184666666666666
EXTRACT: control_change channel=6 control=11 value=113 time=0.0023980833333333332
EXTRACT: control_change channel=7 control=11 value=117 time=0.014388499999999999
EXTRACT: note_on channel=9 note=39 velocity=50 time=0
EXTRACT: control_change channel=6 control=11 value=117 time=0.0023980833333333332
EXTRACT: note_on channel=9 note=42 velocity=0 time=0.016786583333333334
EXTRACT: note_on channel=9 note=82 velocity=0 time=0
EXTRACT: note_on channel=7 note=51 velocity=0 time=0.026378916666666665
EXTRACT: note_on channel=1 note=27 velocity=0 time=0.009592333333333333
EXTRACT: note_on channel=6 note=63 velocity=0 time=0
EXTRACT: note_on channel=9 note=39 velocity=0 time=0.0023980833333333332
EXTRACT: note_on channel=11 note=46 velocity=127 time=0.016786583333333334
EXTRACT: note_on channel=9 note=40 velocity=55 time=0.0047961666666666665
EXTRACT: note_on channel=9 note=37 velocity=91 time=0
EXTRACT: note_on channel=9 note=28 velocity=68 time=0
EXTRACT: note_on channel=9 note=39 velocity=73 time=0
EXTRACT: note_on channel=9 note=82 velocity=71 time=0
EXTRACT: note_on channel=9 note=35 velocity=97 time=0
EXTRACT: note_on channel=9 note=28 velocity=0 time=0.0023980833333333332
EXTRACT: note_on channel=9 note=37 velocity=0 time=0
EXTRACT: note_on channel=11 note=46 velocity=0 time=0.023980833333333333
EXTRACT: note_on channel=9 note=39 velocity=55 time=0.0047961666666666665
EXTRACT: note_on channel=9 note=39 velocity=0 time=0.026378916666666665
EXTRACT: note_on channel=9 note=82 velocity=0 time=0
EXTRACT: note_on channel=9 note=40 velocity=0 time=0
EXTRACT: note_on channel=9 note=35 velocity=0 time=0
EXTRACT: note_on channel=9 note=39 velocity=0 time=0.031175083333333332
EXTRACT: note_on channel=7 note=51 velocity=71 time=0.1294965
EXTRACT: note_on channel=1 note=27 velocity=122 time=0.0023980833333333332
EXTRACT: note_on channel=6 note=63 velocity=71 time=0
EXTRACT: note_on channel=9 note=82 velocity=53 time=0.014388499999999999
EXTRACT: note_on channel=9 note=46 velocity=62 time=0.007194249999999999
EXTRACT: control_change channel=7 control=11 value=117 time=0.03836933333333333
EXTRACT: control_change channel=6 control=11 value=117 time=0.0023980833333333332
EXTRACT: note_on channel=9 note=82 velocity=0 time=0.009592333333333333
EXTRACT: note_on channel=9 note=46 velocity=0 time=0.007194249999999999
EXTRACT: control_change channel=7 control=11 value=112 time=0.019184666666666666
EXTRACT: control_change channel=6 control=11 value=112 time=0.0023980833333333332
EXTRACT: control_change channel=7 control=11 value=106 time=0.028776999999999997
EXTRACT: control_change channel=6 control=11 value=106 time=0.0023980833333333332
EXTRACT: note_on channel=9 note=82 velocity=50 time=0
EXTRACT: note_on channel=9 note=42 velocity=113 time=0
EXTRACT: control_change channel=7 control=11 value=102 time=0.035971249999999996
EXTRACT: control_change channel=6 control=11 value=102 time=0.0023980833333333332
EXTRACT: note_on channel=9 note=42 velocity=0 time=0.019184666666666666
EXTRACT: note_on channel=9 note=82 velocity=0 time=0
EXTRACT: note_on channel=7 note=51 velocity=0 time=0.03357316666666667
EXTRACT: control_change channel=7 control=11 value=120 time=0
EXTRACT: note_on channel=1 note=27 velocity=0 time=0.0023980833333333332
EXTRACT: note_on channel=6 note=63 velocity=0 time=0
EXTRACT: control_change channel=6 control=11 value=120 time=0
EXTRACT: note_on channel=7 note=51 velocity=72 time=0.0047961666666666665
EXTRACT: note_on channel=6 note=63 velocity=70 time=0.0023980833333333332
EXTRACT: note_on channel=4 note=63 velocity=0 time=0.0023980833333333332
EXTRACT: note_on channel=4 note=72 velocity=109 time=0
EXTRACT: note_on channel=4 note=67 velocity=107 time=0
EXTRACT: note_on channel=4 note=51 velocity=102 time=0
EXTRACT: note_on channel=4 note=63 velocity=104 time=0
EXTRACT: note_on channel=4 note=60 velocity=0 time=0.0047961666666666665
EXTRACT: note_on channel=4 note=68 velocity=0 time=0
EXTRACT: note_on channel=4 note=72 velocity=0 time=0
EXTRACT: note_on channel=9 note=70 velocity=103 time=0
EXTRACT: note_on channel=11 note=51 velocity=127 time=0.0023980833333333332
EXTRACT: note_on channel=5 note=63 velocity=106 time=0.0023980833333333332
EXTRACT: note_on channel=5 note=79 velocity=119 time=0
EXTRACT: note_on channel=5 note=80 velocity=0 time=0.0023980833333333332
EXTRACT: note_on channel=9 note=35 velocity=97 time=0
EXTRACT: note_on channel=3 note=84 velocity=114 time=0.011990416666666667
EXTRACT: pitchwheel channel=3 pitch=-2861 time=0
EXTRACT: note_on channel=3 note=72 velocity=83 time=0
EXTRACT: pitchwheel channel=3 pitch=-2721 time=0
EXTRACT: pitchwheel channel=3 pitch=-2561 time=0.007194249999999999
EXTRACT: pitchwheel channel=3 pitch=-2381 time=0.0047961666666666665
EXTRACT: control_change channel=5 control=11 value=59 time=0
EXTRACT: note_on channel=11 note=51 velocity=0 time=0.0023980833333333332
EXTRACT: pitchwheel channel=3 pitch=-2141 time=0.0023980833333333332
EXTRACT: pitchwheel channel=3 pitch=-1881 time=0
EXTRACT: pitchwheel channel=3 pitch=-1661 time=0.007194249999999999
EXTRACT: pitchwheel channel=3 pitch=-1421 time=0.0047961666666666665
EXTRACT: pitchwheel channel=3 pitch=-901 time=0.0023980833333333332
EXTRACT: pitchwheel channel=3 pitch=-1181 time=0
EXTRACT: control_change channel=7 control=11 value=115 time=0.0023980833333333332
EXTRACT: pitchwheel channel=3 pitch=-641 time=0.0023980833333333332
EXTRACT: control_change channel=6 control=11 value=115 time=0
EXTRACT: note_on channel=9 note=70 velocity=0 time=0.0023980833333333332
EXTRACT: pitchwheel channel=3 pitch=-201 time=0.0047961666666666665
EXTRACT: pitchwheel channel=3 pitch=-401 time=0
EXTRACT: note_on channel=9 note=35 velocity=0 time=0.0023980833333333332
EXTRACT: pitchwheel channel=3 pitch=0 time=0.0047961666666666665
EXTRACT: control_change channel=4 control=11 value=59 time=0
EXTRACT: control_change channel=7 control=11 value=110 time=0.007194249999999999
EXTRACT: control_change channel=6 control=11 value=110 time=0.0023980833333333332
EXTRACT: control_change channel=7 control=11 value=100 time=0.028776999999999997
EXTRACT: control_change channel=6 control=11 value=100 time=0.0023980833333333332
EXTRACT: control_change channel=7 control=11 value=94 time=0.028776999999999997
EXTRACT: control_change channel=6 control=11 value=94 time=0.0023980833333333332
EXTRACT: control_change channel=7 control=11 value=90 time=0.021582749999999998
EXTRACT: control_change channel=6 control=11 value=90 time=0.0023980833333333332
EXTRACT: control_change channel=5 control=11 value=57 time=0.028776999999999997
EXTRACT: control_change channel=7 control=11 value=86 time=0
EXTRACT: control_change channel=6 control=11 value=86 time=0.0023980833333333332
EXTRACT: control_change channel=4 control=11 value=61 time=0.014388499999999999
EXTRACT: note_on channel=7 note=51 velocity=0 time=0.0047961666666666665
EXTRACT: note_on channel=6 note=63 velocity=0 time=0.0023980833333333332
EXTRACT: note_on channel=7 note=51 velocity=66 time=0.007194249999999999
EXTRACT: note_on channel=1 note=27 velocity=126 time=0.0023980833333333332
EXTRACT: note_on channel=6 note=63 velocity=62 time=0
EXTRACT: note_on channel=9 note=70 velocity=77 time=0.007194249999999999
EXTRACT: control_change channel=7 control=11 value=116 time=0.007194249999999999
EXTRACT: control_change channel=6 control=11 value=116 time=0.0023980833333333332
EXTRACT: note_on channel=9 note=46 velocity=61 time=0.0047961666666666665
EXTRACT: control_change channel=7 control=11 value=104 time=0.007194249999999999
EXTRACT: control_change channel=6 control=11 value=104 time=0.0023980833333333332
EXTRACT: control_change channel=7 control=11 value=94 time=0.014388499999999999
EXTRACT: control_change channel=6 control=11 value=94 time=0.0023980833333333332
EXTRACT: control_change channel=7 control=11 value=86 time=0.011990416666666667
EXTRACT: control_change channel=6 control=11 value=86 time=0.0023980833333333332
EXTRACT: note_on channel=9 note=70 velocity=0 time=0.0023980833333333332
EXTRACT: control_change channel=7 control=11 value=76 time=0.011990416666666667
EXTRACT: control_change channel=6 control=11 value=76 time=0.0023980833333333332
EXTRACT: note_on channel=9 note=46 velocity=0 time=0
EXTRACT: control_change channel=7 control=11 value=69 time=0.011990416666666667
EXTRACT: control_change channel=6 control=11 value=69 time=0.0023980833333333332
EXTRACT: control_change channel=7 control=11 value=64 time=0.014388499999999999
EXTRACT: control_change channel=6 control=11 value=64 time=0.0023980833333333332
EXTRACT: control_change channel=7 control=11 value=59 time=0.011990416666666667
EXTRACT: control_change channel=6 control=11 value=59 time=0.0023980833333333332
EXTRACT: note_on channel=9 note=70 velocity=67 time=0
EXTRACT: note_on channel=9 note=42 velocity=109 time=0.007194249999999999
EXTRACT: control_change channel=7 control=11 value=54 time=0.014388499999999999
EXTRACT: control_change channel=6 control=11 value=54 time=0.0023980833333333332
EXTRACT: control_change channel=7 control=11 value=49 time=0.011990416666666667
EXTRACT: control_change channel=6 control=11 value=49 time=0.0023980833333333332
EXTRACT: note_on channel=9 note=70 velocity=0 time=0.019184666666666666
EXTRACT: note_on channel=9 note=42 velocity=0 time=0.007194249999999999
EXTRACT: control_change channel=7 control=11 value=45 time=0.0023980833333333332
EXTRACT: control_change channel=6 control=11 value=45 time=0.0023980833333333332
EXTRACT: note_on channel=1 note=27 velocity=0 time=0.031175083333333332
EXTRACT: note_on channel=5 note=65 velocity=107 time=0.014388499999999999
EXTRACT: note_on channel=9 note=70 velocity=108 time=0
EXTRACT: note_on channel=5 note=79 velocity=0 time=0.0047961666666666665
EXTRACT: note_on channel=5 note=63 velocity=0 time=0
EXTRACT: note_on channel=5 note=80 velocity=113 time=0
EXTRACT: note_on channel=11 note=46 velocity=127 time=0
EXTRACT: note_on channel=9 note=37 velocity=91 time=0.0047961666666666665
EXTRACT: note_on channel=9 note=28 velocity=68 time=0
EXTRACT: note_on channel=9 note=39 velocity=67 time=0
EXTRACT: note_on channel=9 note=35 velocity=97 time=0
EXTRACT: note_on channel=9 note=28 velocity=0 time=0.0023980833333333332
EXTRACT: note_on channel=9 note=37 velocity=0 time=0
EXTRACT: note_on channel=9 note=40 velocity=64 time=0
EXTRACT: control_change channel=4 control=11 value=59 time=0.0047961666666666665
EXTRACT: control_change channel=5 control=11 value=59 time=0.014388499999999999
EXTRACT: note_on channel=11 note=46 velocity=0 time=0.0047961666666666665
EXTRACT: note_on channel=9 note=39 velocity=50 time=0.0047961666666666665
EXTRACT: note_on channel=9 note=70 velocity=0 time=0.016786583333333334
EXTRACT: note_on channel=9 note=39 velocity=0 time=0.009592333333333333
EXTRACT: note_on channel=9 note=35 velocity=0 time=0
EXTRACT: note_on channel=9 note=40 velocity=0 time=0.0023980833333333332
EXTRACT: note_on channel=9 note=39 velocity=0 time=0.028776999999999997
EXTRACT: control_change channel=7 control=11 value=45 time=0.043165499999999996
EXTRACT: control_change channel=6 control=11 value=45 time=0.0023980833333333332
EXTRACT: control_change channel=7 control=11 value=49 time=0.019184666666666666
EXTRACT: control_change channel=6 control=11 value=49 time=0.0023980833333333332
EXTRACT: control_change channel=7 control=11 value=53 time=0.028776999999999997
EXTRACT: control_change channel=5 control=11 value=57 time=0.0023980833333333332
EXTRACT: control_change channel=6 control=11 value=53 time=0
EXTRACT: control_change channel=4 control=11 value=57 time=0.007194249999999999
EXTRACT: note_on channel=9 note=70 velocity=75 time=0.019184666666666666
EXTRACT: control_change channel=7 control=11 value=57 time=0.0023980833333333332
EXTRACT: note_on channel=1 note=27 velocity=118 time=0.0023980833333333332
EXTRACT: control_change channel=6 control=11 value=57 time=0
EXTRACT: note_on channel=9 note=46 velocity=59 time=0.023980833333333333
EXTRACT: note_on channel=3 note=72 velocity=0 time=0.016786583333333334
EXTRACT: note_on channel=3 note=84 velocity=0 time=0
EXTRACT: note_on channel=9 note=70 velocity=0 time=0.011990416666666667
EXTRACT: note_on channel=9 note=46 velocity=0 time=0.028776999999999997
EXTRACT: control_change channel=7 control=11 value=62 time=0.014388499999999999
EXTRACT: control_change channel=6 control=11 value=62 time=0.0023980833333333332
EXTRACT: control_change channel=7 control=11 value=64 time=0.0047961666666666665
EXTRACT: control_change channel=6 control=11 value=64 time=0.0023980833333333332
EXTRACT: note_on channel=9 note=70 velocity=67 time=0.007194249999999999
EXTRACT: note_on channel=9 note=42 velocity=108 time=0.007194249999999999
EXTRACT: control_change channel=7 control=11 value=66 time=0.021582749999999998
EXTRACT: control_change channel=6 control=11 value=66 time=0.0023980833333333332
EXTRACT: note_on channel=9 note=70 velocity=0 time=0.026378916666666665
EXTRACT: note_on channel=9 note=42 velocity=0 time=0.007194249999999999
EXTRACT: note_on channel=1 note=27 velocity=0 time=0.035971249999999996
EXTRACT: note_on channel=5 note=65 velocity=0 time=0.014388499999999999
EXTRACT: note_on channel=5 note=67 velocity=110 time=0.0023980833333333332
EXTRACT: note_on channel=9 note=70 velocity=108 time=0
EXTRACT: note_on channel=5 note=80 velocity=0 time=0.0023980833333333332
EXTRACT: note_on channel=5 note=82 velocity=121 time=0
EXTRACT: note_on channel=11 note=51 velocity=127 time=0
EXTRACT: note_on channel=9 note=35 velocity=97 time=0.0047961666666666665
EXTRACT: note_on channel=11 note=51 velocity=0 time=0.026378916666666665
EXTRACT: control_change channel=5 control=11 value=59 time=0.0047961666666666665
EXTRACT: note_on channel=9 note=70 velocity=0 time=0.019184666666666666
EXTRACT: note_on channel=9 note=35 velocity=0 time=0.007194249999999999
EXTRACT: control_change channel=7 control=11 value=70 time=0.019184666666666666
EXTRACT: control_change channel=6 control=11 value=70 time=0.0023980833333333332
EXTRACT: control_change channel=7 control=11 value=74 time=0.07673866666666666
EXTRACT: control_change channel=6 control=11 value=74 time=0.0023980833333333332
EXTRACT: control_change channel=5 control=11 value=57 time=0.021582749999999998
EXTRACT: control_change channel=7 control=11 value=78 time=0.028776999999999997
EXTRACT: control_change channel=6 control=11 value=78 time=0.0023980833333333332
EXTRACT: note_on channel=1 note=27 velocity=121 time=0.009592333333333333
EXTRACT: note_on channel=9 note=70 velocity=76 time=0.0047961666666666665
EXTRACT: control_change channel=7 control=11 value=82 time=0.014388499999999999
EXTRACT: control_change channel=6 control=11 value=82 time=0.0023980833333333332
EXTRACT: note_on channel=9 note=46 velocity=61 time=0
EXTRACT: control_change channel=7 control=11 value=86 time=0.014388499999999999
EXTRACT: control_change channel=6 control=11 value=86 time=0.0023980833333333332
EXTRACT: note_on channel=9 note=70 velocity=0 time=0.023980833333333333
EXTRACT: control_change channel=7 control=11 value=90 time=0.0047961666666666665
EXTRACT: control_change channel=6 control=11 value=90 time=0.0023980833333333332
EXTRACT: note_on channel=9 note=46 velocity=0 time=0.009592333333333333
EXTRACT: control_change channel=7 control=11 value=94 time=0.0047961666666666665
EXTRACT: control_change channel=6 control=11 value=94 time=0.0023980833333333332
EXTRACT: control_change channel=7 control=11 value=98 time=0.019184666666666666
EXTRACT: control_change channel=6 control=11 value=98 time=0.0023980833333333332
EXTRACT: control_change channel=7 control=11 value=102 time=0.014388499999999999
EXTRACT: note_on channel=9 note=70 velocity=67 time=0
EXTRACT: control_change channel=6 control=11 value=102 time=0.0023980833333333332
EXTRACT: note_on channel=9 note=42 velocity=108 time=0.007194249999999999
EXTRACT: control_change channel=7 control=11 value=106 time=0.014388499999999999
EXTRACT: control_change channel=6 control=11 value=106 time=0.0023980833333333332
EXTRACT: control_change channel=7 control=11 value=110 time=0.011990416666666667
EXTRACT: control_change channel=6 control=11 value=110 time=0.0023980833333333332
EXTRACT: control_change channel=7 control=11 value=115 time=0.014388499999999999
EXTRACT: control_change channel=6 control=11 value=115 time=0.0023980833333333332
EXTRACT: note_on channel=9 note=70 velocity=0 time=0
EXTRACT: note_on channel=9 note=42 velocity=0 time=0.009592333333333333
EXTRACT: control_change channel=7 control=11 value=119 time=0.009592333333333333
EXTRACT: control_change channel=6 control=11 value=119 time=0.0023980833333333332
EXTRACT: note_on channel=7 note=51 velocity=0 time=0.021582749999999998
EXTRACT: note_on channel=1 note=27 velocity=0 time=0.0023980833333333332
EXTRACT: note_on channel=6 note=63 velocity=0 time=0.0023980833333333332
EXTRACT: note_on channel=5 note=67 velocity=0 time=0.011990416666666667
EXTRACT: note_on channel=5 note=68 velocity=110 time=0
EXTRACT: note_on channel=9 note=70 velocity=107 time=0
EXTRACT: note_on channel=5 note=82 velocity=0 time=0.0023980833333333332
EXTRACT: note_on channel=11 note=46 velocity=127 time=0
EXTRACT: note_on channel=5 note=84 velocity=121 time=0.0023980833333333332
EXTRACT: note_on channel=9 note=40 velocity=54 time=0.0023980833333333332
EXTRACT: note_on channel=9 note=37 velocity=91 time=0
EXTRACT: note_on channel=9 note=28 velocity=68 time=0
EXTRACT: note_on channel=9 note=39 velocity=72 time=0
EXTRACT: note_on channel=9 note=35 velocity=97 time=0
EXTRACT: note_on channel=9 note=28 velocity=0 time=0.0023980833333333332
EXTRACT: note_on channel=9 note=37 velocity=0 time=0
EXTRACT: control_change channel=5 control=11 value=59 time=0.021582749999999998
EXTRACT: note_on channel=11 note=46 velocity=0 time=0.0023980833333333332
EXTRACT: note_on channel=9 note=39 velocity=55 time=0.0047961666666666665
EXTRACT: note_on channel=9 note=70 velocity=0 time=0.019184666666666666
EXTRACT: note_on channel=9 note=35 velocity=0 time=0.007194249999999999
EXTRACT: note_on channel=9 note=40 velocity=0 time=0
EXTRACT: note_on channel=9 note=39 velocity=0 time=0
EXTRACT: note_on channel=9 note=39 velocity=0 time=0.031175083333333332
EXTRACT: note_on channel=7 note=51 velocity=66 time=0.07194249999999999
EXTRACT: note_on channel=6 note=56 velocity=62 time=0.0023980833333333332
EXTRACT: control_change channel=5 control=11 value=57 time=0.016786583333333334
EXTRACT: control_change channel=7 control=11 value=114 time=0.019184666666666666
EXTRACT: control_change channel=6 control=11 value=114 time=0.0023980833333333332
EXTRACT: control_change channel=7 control=11 value=108 time=0.011990416666666667
EXTRACT: control_change channel=6 control=11 value=108 time=0.0023980833333333332
EXTRACT: note_on channel=1 note=27 velocity=122 time=0.0047961666666666665
EXTRACT: note_on channel=9 note=70 velocity=73 time=0.007194249999999999
EXTRACT: control_change channel=7 control=11 value=101 time=0.0023980833333333332
EXTRACT: control_change channel=6 control=11 value=101 time=0.0023980833333333332
EXTRACT: note_on channel=9 note=46 velocity=61 time=0.009592333333333333
EXTRACT: control_change channel=7 control=11 value=97 time=0.0023980833333333332
EXTRACT: control_change channel=6 control=11 value=97 time=0.0023980833333333332
EXTRACT: control_change channel=7 control=11 value=93 time=0.014388499999999999
EXTRACT: control_change channel=6 control=11 value=93 time=0.0023980833333333332
EXTRACT: note_on channel=9 note=70 velocity=0 time=0.021582749999999998
EXTRACT: note_on channel=9 note=46 velocity=0 time=0.014388499999999999
EXTRACT: control_change channel=7 control=11 value=88 time=0.016786583333333334
EXTRACT: control_change channel=6 control=11 value=88 time=0.0023980833333333332
EXTRACT: note_on channel=9 note=70 velocity=67 time=0.026378916666666665
EXTRACT: note_on channel=9 note=42 velocity=109 time=0.007194249999999999
EXTRACT: control_change channel=7 control=11 value=84 time=0.009592333333333333
EXTRACT: control_change channel=6 control=11 value=84 time=0.0023980833333333332
EXTRACT: control_change channel=7 control=11 value=80 time=0.021582749999999998
EXTRACT: control_change channel=6 control=11 value=80 time=0.0023980833333333332
EXTRACT: note_on channel=9 note=70 velocity=0 time=0.014388499999999999
EXTRACT: note_on channel=9 note=42 velocity=0 time=0.007194249999999999
EXTRACT: note_on channel=7 note=51 velocity=0 time=0.031175083333333332
EXTRACT: note_on channel=6 note=56 velocity=0 time=0.0023980833333333332
EXTRACT: note_on channel=1 note=27 velocity=0 time=0.0023980833333333332
EXTRACT: note_on channel=7 note=44 velocity=71 time=0.007194249999999999
EXTRACT: note_on channel=4 note=67 velocity=0 time=0.0023980833333333332
EXTRACT: note_on channel=4 note=72 velocity=0 time=0
EXTRACT: note_on channel=4 note=51 velocity=0 time=0
EXTRACT: note_on channel=4 note=63 velocity=0 time=0
EXTRACT: note_on channel=6 note=56 velocity=71 time=0
EXTRACT: note_on channel=3 note=82 velocity=113 time=0.0047961666666666665
EXTRACT: note_on channel=3 note=70 velocity=82 time=0
EXTRACT: note_on channel=4 note=68 velocity=106 time=0
EXTRACT: note_on channel=4 note=60 velocity=102 time=0
EXTRACT: note_on channel=4 note=56 velocity=101 time=0
EXTRACT: note_on channel=4 note=63 velocity=104 time=0
EXTRACT: note_on channel=5 note=68 velocity=0 time=0
EXTRACT: note_on channel=9 note=70 velocity=108 time=0
EXTRACT: note_on channel=5 note=84 velocity=0 time=0.0047961666666666665
EXTRACT: note_on channel=11 note=44 velocity=127 time=0
EXTRACT: note_on channel=5 note=84 velocity=124 time=0.0047961666666666665
EXTRACT: note_on channel=9 note=35 velocity=97 time=0
EXTRACT: note_on channel=11 note=44 velocity=0 time=0.026378916666666665
EXTRACT: control_change channel=7 control=11 value=118 time=0.011990416666666667
EXTRACT: control_change channel=6 control=11 value=118 time=0.0023980833333333332
EXTRACT: control_change channel=5 control=11 value=59 time=0.0047961666666666665
EXTRACT: note_on channel=9 note=70 velocity=0 time=0.0023980833333333332
EXTRACT: control_change channel=4 control=11 value=59 time=0.009592333333333333
EXTRACT: note_on channel=9 note=35 velocity=0 time=0
EXTRACT: control_change channel=7 control=11 value=114 time=0.0023980833333333332
EXTRACT: control_change channel=6 control=11 value=114 time=0.0023980833333333332
EXTRACT: control_change channel=7 control=11 value=108 time=0.021582749999999998
EXTRACT: control_change channel=6 control=11 value=108 time=0.0023980833333333332
EXTRACT: control_change channel=7 control=11 value=101 time=0.028776999999999997
EXTRACT: control_change channel=6 control=11 value=101 time=0.0023980833333333332
EXTRACT: control_change channel=7 control=11 value=96 time=0.021582749999999998
EXTRACT: control_change channel=6 control=11 value=96 time=0.0023980833333333332
EXTRACT: control_change channel=5 control=11 value=61 time=0.007194249999999999
EXTRACT: control_change channel=7 control=11 value=92 time=0.028776999999999997
EXTRACT: control_change channel=6 control=11 value=92 time=0.0023980833333333332
EXTRACT: control_change channel=4 control=11 value=61 time=0.0023980833333333332
EXTRACT: note_on channel=7 note=44 velocity=0 time=0.026378916666666665
EXTRACT: note_on channel=6 note=56 velocity=0 time=0.0023980833333333332
EXTRACT: note_on channel=7 note=44 velocity=66 time=0.0047961666666666665
EXTRACT: note_on channel=6 note=56 velocity=65 time=0.0023980833333333332
EXTRACT: note_on channel=1 note=32 velocity=122 time=0.0023980833333333332
EXTRACT: note_on channel=9 note=70 velocity=77 time=0.0047961666666666665
EXTRACT: control_change channel=7 control=11 value=117 time=0.007194249999999999
EXTRACT: control_change channel=6 control=11 value=117 time=0.0023980833333333332
EXTRACT: note_on channel=9 note=46 velocity=61 time=0.007194249999999999
EXTRACT: control_change channel=7 control=11 value=107 time=0.0047961666666666665
EXTRACT: control_change channel=6 control=11 value=107 time=0.0023980833333333332
EXTRACT: control_change channel=7 control=11 value=98 time=0.014388499999999999
EXTRACT: control_change channel=6 control=11 value=98 time=0.0023980833333333332
EXTRACT: control_change channel=7 control=11 value=91 time=0.011990416666666667
EXTRACT: control_change channel=6 control=11 value=91 time=0.0023980833333333332
EXTRACT: note_on channel=9 note=70 velocity=0 time=0.0023980833333333332
EXTRACT: control_change channel=7 control=11 value=83 time=0.011990416666666667
EXTRACT: control_change channel=6 control=11 value=83 time=0.0023980833333333332
EXTRACT: note_on channel=9 note=46 velocity=0 time=0.0023980833333333332
EXTRACT: control_change channel=7 control=11 value=77 time=0.009592333333333333
EXTRACT: control_change channel=6 control=11 value=77 time=0.0023980833333333332
EXTRACT: control_change channel=7 control=11 value=73 time=0.014388499999999999
EXTRACT: control_change channel=6 control=11 value=73 time=0.0023980833333333332
EXTRACT: note_on channel=9 note=70 velocity=67 time=0.014388499999999999
EXTRACT: control_change channel=7 control=11 value=67 time=0.007194249999999999
EXTRACT: note_on channel=9 note=42 velocity=113 time=0
EXTRACT: control_change channel=6 control=11 value=67 time=0.0023980833333333332
EXTRACT: control_change channel=7 control=11 value=64 time=0.011990416666666667
EXTRACT: control_change channel=6 control=11 value=64 time=0.0023980833333333332
EXTRACT: control_change channel=7 control=11 value=62 time=0.007194249999999999
EXTRACT: control_change channel=6 control=11 value=62 time=0.0023980833333333332
EXTRACT: control_change channel=7 control=11 value=58 time=0.019184666666666666
EXTRACT: control_change channel=6 control=11 value=58 time=0.0023980833333333332
EXTRACT: note_on channel=9 note=70 velocity=0 time=0.0023980833333333332
EXTRACT: note_on channel=9 note=42 velocity=0 time=0.007194249999999999
EXTRACT: note_on channel=1 note=32 velocity=0 time=0.03836933333333333
EXTRACT: note_on channel=9 note=70 velocity=103 time=0.014388499999999999
EXTRACT: note_on channel=11 note=44 velocity=127 time=0.0023980833333333332
EXTRACT: note_on channel=9 note=37 velocity=91 time=0.0047961666666666665
EXTRACT: note_on channel=9 note=28 velocity=68 time=0
EXTRACT: note_on channel=9 note=39 velocity=67 time=0
EXTRACT: note_on channel=9 note=35 velocity=97 time=0
EXTRACT: note_on channel=9 note=28 velocity=0 time=0.0023980833333333332
EXTRACT: note_on channel=9 note=37 velocity=0 time=0
EXTRACT: note_on channel=9 note=40 velocity=65 time=0.0023980833333333332
EXTRACT: control_change channel=7 control=11 value=54 time=0.016786583333333334
EXTRACT: control_change channel=6 control=11 value=54 time=0.0023980833333333332
EXTRACT: control_change channel=4 control=11 value=59 time=0.0023980833333333332
EXTRACT: note_on channel=11 note=44 velocity=0 time=0
EXTRACT: note_on channel=9 note=39 velocity=50 time=0.0047961666666666665
EXTRACT: note_on channel=9 note=70 velocity=0 time=0.019184666666666666
EXTRACT: note_on channel=9 note=39 velocity=0 time=0.007194249999999999
EXTRACT: note_on channel=9 note=35 velocity=0 time=0
EXTRACT: control_change channel=5 control=11 value=59 time=0.0047961666666666665
EXTRACT: note_on channel=9 note=40 velocity=0 time=0
EXTRACT: note_on channel=9 note=39 velocity=0 time=0.026378916666666665
EXTRACT: control_change channel=7 control=11 value=58 time=0.057553999999999994
EXTRACT: control_change channel=6 control=11 value=58 time=0.0023980833333333332
EXTRACT: control_change channel=7 control=11 value=62 time=0.014388499999999999
EXTRACT: control_change channel=6 control=11 value=62 time=0.0023980833333333332
EXTRACT: control_change channel=7 control=11 value=64 time=0.021582749999999998
EXTRACT: control_change channel=6 control=11 value=64 time=0.0023980833333333332
EXTRACT: control_change channel=4 control=11 value=57 time=0.009592333333333333
EXTRACT: control_change channel=7 control=11 value=66 time=0.009592333333333333
EXTRACT: control_change channel=6 control=11 value=66 time=0.0023980833333333332
EXTRACT: note_on channel=9 note=70 velocity=75 time=0.0047961666666666665
EXTRACT: note_on channel=1 note=32 velocity=120 time=0.0047961666666666665
EXTRACT: control_change channel=5 control=11 value=57 time=0.014388499999999999
EXTRACT: note_on channel=9 note=46 velocity=62 time=0.007194249999999999
EXTRACT: note_on channel=9 note=70 velocity=0 time=0.031175083333333332
EXTRACT: note_on channel=9 note=46 velocity=0 time=0.026378916666666665
EXTRACT: control_change channel=7 control=11 value=72 time=0.026378916666666665
EXTRACT: control_change channel=6 control=11 value=72 time=0.0023980833333333332
EXTRACT: note_on channel=9 note=70 velocity=67 time=0.014388499999999999
EXTRACT: note_on channel=9 note=42 velocity=111 time=0.009592333333333333
EXTRACT: note_on channel=9 note=70 velocity=0 time=0.047961666666666666
EXTRACT: note_on channel=9 note=42 velocity=0 time=0.009592333333333333
EXTRACT: note_on channel=1 note=32 velocity=0 time=0.035971249999999996
EXTRACT: note_on channel=9 note=70 velocity=103 time=0.014388499999999999
EXTRACT: note_on channel=9 note=35 velocity=97 time=0.007194249999999999
EXTRACT: note_on channel=9 note=70 velocity=0 time=0.050359749999999995
EXTRACT: note_on channel=9 note=35 velocity=0 time=0.007194249999999999
EXTRACT: control_change channel=7 control=11 value=78 time=0.011990416666666667
EXTRACT: control_change channel=6 control=11 value=78 time=0.0023980833333333332
EXTRACT: note_on channel=14 note=72 velocity=74 time=0.11031183333333333
EXTRACT: control_change channel=7 control=11 value=83 time=0.021582749999999998
EXTRACT: control_change channel=6 control=11 value=83 time=0.0023980833333333332
EXTRACT: note_on channel=1 note=32 velocity=122 time=0.014388499999999999
EXTRACT: control_change channel=7 control=11 value=87 time=0.0047961666666666665
EXTRACT: control_change channel=6 control=11 value=87 time=0.0023980833333333332
EXTRACT: note_on channel=9 note=82 velocity=65 time=0.007194249999999999
EXTRACT: note_on channel=9 note=46 velocity=63 time=0.007194249999999999
EXTRACT: control_change channel=7 control=11 value=92 time=0.014388499999999999
EXTRACT: control_change channel=6 control=11 value=92 time=0.0023980833333333332
EXTRACT: note_on channel=9 note=82 velocity=0 time=0.03357316666666667
EXTRACT: control_change channel=7 control=11 value=97 time=0.0047961666666666665
EXTRACT: control_change channel=6 control=11 value=97 time=0.0023980833333333332
EXTRACT: note_on channel=9 note=46 velocity=0 time=0
EXTRACT: control_change channel=7 control=11 value=101 time=0.019184666666666666
EXTRACT: control_change channel=6 control=11 value=101 time=0.0023980833333333332
EXTRACT: control_change channel=7 control=11 value=106 time=0.028776999999999997
EXTRACT: control_change channel=6 control=11 value=106 time=0.0023980833333333332
EXTRACT: note_on channel=9 note=82 velocity=57 time=0
EXTRACT: note_on channel=9 note=42 velocity=111 time=0
EXTRACT: control_change channel=7 control=11 value=111 time=0.021582749999999998
EXTRACT: control_change channel=6 control=11 value=111 time=0.0023980833333333332
EXTRACT: control_change channel=7 control=11 value=115 time=0.014388499999999999
EXTRACT: note_on channel=9 note=39 velocity=50 time=0
EXTRACT: control_change channel=6 control=11 value=115 time=0.0023980833333333332
EXTRACT: note_on channel=9 note=42 velocity=0 time=0.016786583333333334
EXTRACT: note_on channel=9 note=82 velocity=0 time=0
EXTRACT: control_change channel=7 control=11 value=120 time=0.011990416666666667
EXTRACT: control_change channel=6 control=11 value=120 time=0.0023980833333333332
EXTRACT: note_on channel=7 note=44 velocity=0 time=0.014388499999999999
EXTRACT: note_on channel=1 note=32 velocity=0 time=0.007194249999999999
EXTRACT: note_on channel=6 note=56 velocity=0 time=0
EXTRACT: note_on channel=9 note=39 velocity=0 time=0.0023980833333333332
EXTRACT: control_change channel=12 control=10 value=80 time=0.016786583333333334
EXTRACT: note_on channel=9 note=40 velocity=56 time=0.0047961666666666665
EXTRACT: note_on channel=9 note=37 velocity=91 time=0
EXTRACT: note_on channel=9 note=28 velocity=68 time=0
EXTRACT: note_on channel=9 note=39 velocity=73 time=0
EXTRACT: note_on channel=9 note=82 velocity=71 time=0
EXTRACT: note_on channel=9 note=35 velocity=97 time=0
EXTRACT: note_on channel=12 note=51 velocity=83 time=0
EXTRACT: note_on channel=9 note=28 velocity=0 time=0.0023980833333333332
EXTRACT: note_on channel=9 note=37 velocity=0 time=0
EXTRACT: note_on channel=9 note=39 velocity=55 time=0.028776999999999997
EXTRACT: note_on channel=9 note=39 velocity=0 time=0.026378916666666665
EXTRACT: note_on channel=9 note=82 velocity=0 time=0
EXTRACT: note_on channel=9 note=40 velocity=0 time=0
EXTRACT: note_on channel=9 note=35 velocity=0 time=0
EXTRACT: note_on channel=12 note=56 velocity=79 time=0.019184666666666666
EXTRACT: note_on channel=9 note=39 velocity=0 time=0.011990416666666667
EXTRACT: note_on channel=12 note=51 velocity=0 time=0.031175083333333332
EXTRACT: note_on channel=12 note=60 velocity=107 time=0.035971249999999996
EXTRACT: note_on channel=14 note=72 velocity=0 time=0.023980833333333333
EXTRACT: note_on channel=3 note=70 velocity=0 time=0.028776999999999997
EXTRACT: note_on channel=3 note=82 velocity=0 time=0
EXTRACT: note_on channel=12 note=56 velocity=0 time=0.007194249999999999
EXTRACT: note_on channel=1 note=32 velocity=118 time=0.0047961666666666665
EXTRACT: note_on channel=9 note=82 velocity=53 time=0.011990416666666667
EXTRACT: note_on channel=12 note=63 velocity=99 time=0
EXTRACT: note_on channel=9 note=46 velocity=62 time=0.009592333333333333
EXTRACT: note_on channel=3 note=84 velocity=110 time=0.014388499999999999
EXTRACT: note_on channel=3 note=72 velocity=80 time=0
EXTRACT: note_on channel=12 note=60 velocity=0 time=0.0023980833333333332
EXTRACT: note_on channel=9 note=82 velocity=0 time=0.031175083333333332
EXTRACT: note_on channel=12 note=63 velocity=0 time=0.0047961666666666665
EXTRACT: note_on channel=9 note=46 velocity=0 time=0.0047961666666666665
EXTRACT: note_on channel=12 note=68 velocity=90 time=0.011990416666666667
EXTRACT: note_on channel=9 note=82 velocity=50 time=0.03836933333333333
EXTRACT: note_on channel=9 note=42 velocity=113 time=0
EXTRACT: note_on channel=3 note=72 velocity=0 time=0.009592333333333333
EXTRACT: note_on channel=3 note=84 velocity=0 time=0
EXTRACT: note_on channel=3 note=82 velocity=113 time=0.014388499999999999
EXTRACT: note_on channel=3 note=70 velocity=82 time=0
EXTRACT: note_on channel=12 note=68 velocity=0 time=0.014388499999999999
EXTRACT: note_on channel=12 note=72 velocity=104 time=0.0023980833333333332
EXTRACT: note_on channel=9 note=42 velocity=0 time=0.016786583333333334
EXTRACT: note_on channel=9 note=82 velocity=0 time=0
EXTRACT: note_on channel=1 note=32 velocity=0 time=0.03836933333333333
EXTRACT: note_on channel=4 note=63 velocity=0 time=0.011990416666666667
EXTRACT: note_on channel=4 note=68 velocity=0 time=0
EXTRACT: note_on channel=4 note=60 velocity=0 time=0
EXTRACT: note_on channel=4 note=56 velocity=0 time=0
EXTRACT: note_on channel=5 note=80 velocity=117 time=0.0023980833333333332
EXTRACT: note_on channel=5 note=68 velocity=109 time=0
EXTRACT: control_change channel=2 control=1 value=96 time=0.0023980833333333332
EXTRACT: control_change channel=12 control=10 value=10 time=0
EXTRACT: pitchwheel channel=2 pitch=-8192 time=0.0047961666666666665
EXTRACT: control_change channel=2 control=11 value=97 time=0
EXTRACT: note_on channel=2 note=80 velocity=105 time=0
EXTRACT: note_on channel=5 note=84 velocity=0 time=0
EXTRACT: note_on channel=9 note=57 velocity=90 time=0
EXTRACT: note_on channel=12 note=72 velocity=0 time=0
EXTRACT: note_on channel=12 note=80 velocity=120 time=0
EXTRACT: note_on channel=3 note=68 velocity=81 time=0.0047961666666666665
EXTRACT: note_on channel=3 note=80 velocity=111 time=0
EXTRACT: note_on channel=4 note=56 velocity=103 time=0
EXTRACT: note_on channel=4 note=68 velocity=109 time=0
EXTRACT: note_on channel=4 note=60 velocity=104 time=0
EXTRACT: note_on channel=4 note=63 velocity=106 time=0
EXTRACT: pitchwheel channel=2 pitch=-5568 time=0.0023980833333333332
EXTRACT: control_change channel=2 control=11 value=104 time=0
EXTRACT: note_on channel=3 note=70 velocity=0 time=0
EXTRACT: note_on channel=3 note=82 velocity=0 time=0
EXTRACT: note_on channel=1 note=32 velocity=122 time=0.007194249999999999
EXTRACT: pitchwheel channel=2 pitch=-2976 time=0.0023980833333333332
EXTRACT: control_change channel=2 control=11 value=107 time=0
EXTRACT: control_change channel=5 control=11 value=59 time=0
EXTRACT: control_change channel=2 control=11 value=109 time=0.007194249999999999
EXTRACT: pitchwheel channel=2 pitch=-1632 time=0
EXTRACT: pitchwheel channel=2 pitch=-1056 time=0.007194249999999999
EXTRACT: pitchwheel channel=2 pitch=-352 time=0.007194249999999999
EXTRACT: pitchwheel channel=2 pitch=-192 time=0.009592333333333333
EXTRACT: control_change channel=2 control=11 value=112 time=0
EXTRACT: control_change channel=4 control=11 value=59 time=0.0023980833333333332
EXTRACT: pitchwheel channel=2 pitch=-96 time=0.0047961666666666665
EXTRACT: note_on channel=9 note=57 velocity=0 time=0.0023980833333333332
EXTRACT: pitchwheel channel=2 pitch=224 time=0.0047961666666666665
EXTRACT: control_change channel=5 control=11 value=61 time=0
EXTRACT: control_change channel=2 control=11 value=114 time=0.007194249999999999
EXTRACT: pitchwheel channel=2 pitch=352 time=0.023980833333333333
EXTRACT: pitchwheel channel=2 pitch=448 time=0.023980833333333333
EXTRACT: control_change channel=5 control=11 value=59 time=0.007194249999999999
EXTRACT: pitchwheel channel=2 pitch=352 time=0.023980833333333333
EXTRACT: control_change channel=2 control=11 value=116 time=0.014388499999999999
EXTRACT: control_change channel=4 control=11 value=57 time=0.011990416666666667
EXTRACT: pitchwheel channel=2 pitch=224 time=0.0047961666666666665
EXTRACT: control_change channel=2 control=11 value=118 time=0.014388499999999999
EXTRACT: control_change channel=5 control=11 value=57 time=0
EXTRACT: pitchwheel channel=2 pitch=0 time=0.009592333333333333
EXTRACT: control_change channel=2 control=11 value=116 time=0.021582749999999998
EXTRACT: pitchwheel channel=2 pitch=-96 time=0
EXTRACT: control_change channel=2 control=11 value=114 time=0.009592333333333333
EXTRACT: pitchwheel channel=2 pitch=-224 time=0.023980833333333333
EXTRACT: control_change channel=2 control=11 value=112 time=0.014388499999999999
EXTRACT: control_change channel=2 control=11 value=110 time=0.023980833333333333
EXTRACT: pitchwheel channel=2 pitch=-352 time=0
EXTRACT: pitchwheel channel=2 pitch=-224 time=0.023980833333333333
EXTRACT: control_change channel=2 control=11 value=108 time=0.014388499999999999
EXTRACT: pitchwheel channel=2 pitch=-96 time=0.007194249999999999
EXTRACT: control_change channel=2 control=11 value=105 time=0.023980833333333333
EXTRACT: pitchwheel channel=2 pitch=0 time=0
EXTRACT: control_change channel=2 control=11 value=102 time=0.047961666666666666
EXTRACT: control_change channel=2 control=11 value=100 time=0.021582749999999998
EXTRACT: note_on channel=4 note=63 velocity=0 time=0.023980833333333333
EXTRACT: note_on channel=4 note=56 velocity=0 time=0
EXTRACT: note_on channel=4 note=68 velocity=0 time=0
EXTRACT: note_on channel=4 note=60 velocity=0 time=0
EXTRACT: note_on channel=5 note=68 velocity=0 time=0
EXTRACT: note_on channel=5 note=80 velocity=0 time=0
EXTRACT: note_on channel=2 note=80 velocity=0 time=0.007194249999999999
EXTRACT: control_change channel=2 control=11 value=111 time=0
EXTRACT: note_on channel=12 note=80 velocity=0 time=0
EXTRACT: control_change channel=2 control=1 value=0 time=0.0047961666666666665
EXTRACT: control_change channel=2 control=11 value=127 time=0.0047961666666666665
EXTRACT: note_on channel=1 note=32 velocity=0 time=0.22302175
EXTRACT: note_on channel=3 note=68 velocity=0 time=0.19664283333333332
EXTRACT: note_on channel=3 note=80 velocity=0 time=0
EXTRACT: note_on channel=9 note=52 velocity=98 time=0.13669075
EXTRACT: note_on channel=9 note=52 velocity=0 time=0.057553999999999994
