EXTRACT: control_change channel=0 control=121 value=0 time=0
EXTRACT: program_change channel=0 program=0 time=0
EXTRACT: control_change channel=0 control=7 value=100 time=0
EXTRACT: control_change channel=0 control=10 value=64 time=0
EXTRACT: control_change channel=0 control=91 value=0 time=0
EXTRACT: control_change channel=0 control=93 value=0 time=0
EXTRACT: control_change channel=1 control=121 value=0 time=0
EXTRACT: program_change channel=1 program=0 time=0
EXTRACT: control_change channel=1 control=7 value=100 time=0
EXTRACT: control_change channel=1 control=10 value=64 time=0
EXTRACT: control_change channel=1 control=91 value=0 time=0
EXTRACT: control_change channel=1 control=93 value=0 time=0
EXTRACT: note_on channel=1 note=58 velocity=80 time=0
EXTRACT: note_on channel=1 note=61 velocity=80 time=0
EXTRACT: note_on channel=1 note=65 velocity=80 time=0
EXTRACT: note_on channel=1 note=34 velocity=80 time=0
EXTRACT: note_on channel=1 note=46 velocity=80 time=0
EXTRACT: control_change channel=1 control=64 value=127 time=0.0020325208333333332
EXTRACT: note_on channel=1 note=58 velocity=0 time=1.85061021875
EXTRACT: note_on channel=1 note=61 velocity=0 time=0
EXTRACT: note_on channel=1 note=65 velocity=0 time=0
EXTRACT: note_on channel=1 note=34 velocity=0 time=0
EXTRACT: note_on channel=1 note=46 velocity=0 time=0
EXTRACT: note_on channel=1 note=56 velocity=80 time=0.09857726041666666
EXTRACT: note_on channel=1 note=60 velocity=80 time=0
EXTRACT: note_on channel=1 note=63 velocity=80 time=0
EXTRACT: note_on channel=1 note=32 velocity=80 time=0
EXTRACT: note_on channel=1 note=44 velocity=80 time=0
EXTRACT: note_on channel=1 note=56 velocity=0 time=1.8526427395833331
EXTRACT: note_on channel=1 note=60 velocity=0 time=0
EXTRACT: note_on channel=1 note=63 velocity=0 time=0
EXTRACT: note_on channel=1 note=32 velocity=0 time=0
EXTRACT: note_on channel=1 note=44 velocity=0 time=0
EXTRACT: note_on channel=1 note=53 velocity=80 time=0.09857726041666666
EXTRACT: note_on channel=1 note=56 velocity=80 time=0
EXTRACT: note_on channel=1 note=60 velocity=80 time=0
EXTRACT: note_on channel=1 note=65 velocity=80 time=0
EXTRACT: note_on channel=1 note=29 velocity=80 time=0
EXTRACT: note_on channel=1 note=41 velocity=80 time=0
EXTRACT: control_change channel=1 control=64 value=0 time=0.0010162604166666666
EXTRACT: control_change channel=1 control=64 value=127 time=0.0010162604166666666
EXTRACT: note_on channel=1 note=53 velocity=0 time=1.85061021875
EXTRACT: note_on channel=1 note=56 velocity=0 time=0
EXTRACT: note_on channel=1 note=60 velocity=0 time=0
EXTRACT: note_on channel=1 note=65 velocity=0 time=0
EXTRACT: note_on channel=1 note=29 velocity=0 time=0
EXTRACT: note_on channel=1 note=41 velocity=0 time=0
EXTRACT: note_on channel=1 note=54 velocity=80 time=0.09857726041666666
EXTRACT: note_on channel=1 note=58 velocity=80 time=0
EXTRACT: note_on channel=1 note=60 velocity=80 time=0
EXTRACT: note_on channel=1 note=65 velocity=80 time=0
EXTRACT: note_on channel=1 note=30 velocity=80 time=0
EXTRACT: note_on channel=1 note=42 velocity=80 time=0
EXTRACT: note_on channel=1 note=60 velocity=0 time=0.9258132395833333
EXTRACT: note_on channel=1 note=61 velocity=80 time=0.04979676041666666
EXTRACT: note_on channel=1 note=54 velocity=0 time=0.8770327395833333
EXTRACT: note_on channel=1 note=58 velocity=0 time=0
EXTRACT: note_on channel=1 note=65 velocity=0 time=0
EXTRACT: note_on channel=1 note=30 velocity=0 time=0
EXTRACT: note_on channel=1 note=42 velocity=0 time=0
EXTRACT: note_on channel=1 note=61 velocity=0 time=0.0487805
EXTRACT: note_on channel=1 note=58 velocity=80 time=0.04979676041666666
EXTRACT: note_on channel=1 note=61 velocity=80 time=0
EXTRACT: note_on channel=1 note=65 velocity=80 time=0
EXTRACT: note_on channel=1 note=34 velocity=80 time=0
EXTRACT: note_on channel=1 note=46 velocity=80 time=0
EXTRACT: control_change channel=1 control=64 value=0 time=0.0010162604166666666
EXTRACT: control_change channel=1 control=64 value=127 time=0.0010162604166666666
EXTRACT: note_on channel=1 note=58 velocity=0 time=1.85061021875
EXTRACT: note_on channel=1 note=61 velocity=0 time=0
EXTRACT: note_on channel=1 note=65 velocity=0 time=0
EXTRACT: note_on channel=1 note=34 velocity=0 time=0
EXTRACT: note_on channel=1 note=46 velocity=0 time=0
EXTRACT: note_on channel=1 note=60 velocity=80 time=0.09857726041666666
EXTRACT: note_on channel=1 note=63 velocity=80 time=0
EXTRACT: note_on channel=1 note=70 velocity=80 time=0
EXTRACT: note_on channel=1 note=32 velocity=80 time=0
EXTRACT: note_on channel=1 note=44 velocity=80 time=0
EXTRACT: note_on channel=1 note=70 velocity=0 time=1.3892279895833333
EXTRACT: note_on channel=1 note=72 velocity=80 time=0.07418701041666666
EXTRACT: note_on channel=1 note=60 velocity=0 time=0.3892277395833333
EXTRACT: note_on channel=1 note=63 velocity=0 time=0
EXTRACT: note_on channel=1 note=32 velocity=0 time=0
EXTRACT: note_on channel=1 note=44 velocity=0 time=0
EXTRACT: note_on channel=1 note=72 velocity=0 time=0.07317074999999999
EXTRACT: note_on channel=1 note=53 velocity=80 time=0.025406510416666667
EXTRACT: note_on channel=1 note=56 velocity=80 time=0
EXTRACT: note_on channel=1 note=60 velocity=80 time=0
EXTRACT: note_on channel=1 note=65 velocity=80 time=0
EXTRACT: note_on channel=1 note=29 velocity=80 time=0
EXTRACT: note_on channel=1 note=41 velocity=80 time=0
EXTRACT: control_change channel=1 control=64 value=0 time=0.0010162604166666666
EXTRACT: control_change channel=1 control=64 value=127 time=0.0010162604166666666
EXTRACT: note_on channel=1 note=53 velocity=0 time=1.85061021875
EXTRACT: note_on channel=1 note=56 velocity=0 time=0
EXTRACT: note_on channel=1 note=60 velocity=0 time=0
EXTRACT: note_on channel=1 note=65 velocity=0 time=0
EXTRACT: note_on channel=1 note=29 velocity=0 time=0
EXTRACT: note_on channel=1 note=41 velocity=0 time=0
EXTRACT: note_on channel=1 note=54 velocity=80 time=0.09857726041666666
EXTRACT: note_on channel=1 note=58 velocity=80 time=0
EXTRACT: note_on channel=1 note=61 velocity=80 time=0
EXTRACT: note_on channel=1 note=65 velocity=80 time=0
EXTRACT: note_on channel=1 note=30 velocity=80 time=0
EXTRACT: note_on channel=1 note=42 velocity=80 time=0
EXTRACT: note_on channel=1 note=65 velocity=0 time=1.3892279895833333
EXTRACT: note_on channel=1 note=66 velocity=80 time=0.07418701041666666
EXTRACT: note_on channel=1 note=54 velocity=0 time=0.3892277395833333
EXTRACT: note_on channel=1 note=58 velocity=0 time=0
EXTRACT: note_on channel=1 note=61 velocity=0 time=0
EXTRACT: note_on channel=1 note=30 velocity=0 time=0
EXTRACT: note_on channel=1 note=42 velocity=0 time=0
EXTRACT: note_on channel=1 note=66 velocity=0 time=0.07317074999999999
EXTRACT: note_on channel=1 note=61 velocity=80 time=0.025406510416666667
EXTRACT: note_on channel=1 note=65 velocity=80 time=0
EXTRACT: note_on channel=1 note=73 velocity=80 time=0
EXTRACT: note_on channel=1 note=34 velocity=80 time=0
EXTRACT: note_on channel=1 note=46 velocity=80 time=0
EXTRACT: control_change channel=1 control=64 value=0 time=0.0010162604166666666
EXTRACT: control_change channel=1 control=64 value=127 time=0.0010162604166666666
EXTRACT: note_on channel=1 note=61 velocity=0 time=1.85061021875
EXTRACT: note_on channel=1 note=65 velocity=0 time=0
EXTRACT: note_on channel=1 note=73 velocity=0 time=0
EXTRACT: note_on channel=1 note=34 velocity=0 time=0
EXTRACT: note_on channel=1 note=46 velocity=0 time=0
EXTRACT: note_on channel=1 note=56 velocity=80 time=0.09857726041666666
EXTRACT: note_on channel=1 note=60 velocity=80 time=0
EXTRACT: note_on channel=1 note=63 velocity=80 time=0
EXTRACT: note_on channel=1 note=32 velocity=80 time=0
EXTRACT: note_on channel=1 note=44 velocity=80 time=0
EXTRACT: note_on channel=1 note=56 velocity=0 time=1.8526427395833331
EXTRACT: note_on channel=1 note=60 velocity=0 time=0
EXTRACT: note_on channel=1 note=63 velocity=0 time=0
EXTRACT: note_on channel=1 note=32 velocity=0 time=0
EXTRACT: note_on channel=1 note=44 velocity=0 time=0
EXTRACT: note_on channel=1 note=53 velocity=80 time=0.09857726041666666
EXTRACT: note_on channel=1 note=56 velocity=80 time=0
EXTRACT: note_on channel=1 note=60 velocity=80 time=0
EXTRACT: note_on channel=1 note=65 velocity=80 time=0
EXTRACT: note_on channel=1 note=29 velocity=80 time=0
EXTRACT: note_on channel=1 note=41 velocity=80 time=0
EXTRACT: control_change channel=1 control=64 value=0 time=0.0010162604166666666
EXTRACT: control_change channel=1 control=64 value=127 time=0.0010162604166666666
EXTRACT: note_on channel=1 note=60 velocity=0 time=0.92378071875
EXTRACT: note_on channel=1 note=60 velocity=80 time=0.04979676041666666
EXTRACT: note_on channel=1 note=53 velocity=0 time=0.8770327395833333
EXTRACT: note_on channel=1 note=56 velocity=0 time=0
EXTRACT: note_on channel=1 note=65 velocity=0 time=0
EXTRACT: note_on channel=1 note=29 velocity=0 time=0
EXTRACT: note_on channel=1 note=41 velocity=0 time=0
EXTRACT: note_on channel=1 note=60 velocity=0 time=0.0487805
EXTRACT: note_on channel=1 note=54 velocity=80 time=0.04979676041666666
EXTRACT: note_on channel=1 note=58 velocity=80 time=0
EXTRACT: note_on channel=1 note=66 velocity=80 time=0
EXTRACT: note_on channel=1 note=30 velocity=80 time=0
EXTRACT: note_on channel=1 note=42 velocity=80 time=0
EXTRACT: note_on channel=1 note=58 velocity=0 time=0.4623984895833333
EXTRACT: note_on channel=1 note=61 velocity=80 time=0.025406510416666667
EXTRACT: note_on channel=1 note=61 velocity=0 time=0.4623984895833333
EXTRACT: note_on channel=1 note=58 velocity=80 time=0.025406510416666667
EXTRACT: note_on channel=1 note=58 velocity=0 time=0.4623984895833333
EXTRACT: note_on channel=1 note=61 velocity=80 time=0.025406510416666667
EXTRACT: note_on channel=1 note=54 velocity=0 time=0.3892277395833333
EXTRACT: note_on channel=1 note=66 velocity=0 time=0
EXTRACT: note_on channel=1 note=30 velocity=0 time=0
EXTRACT: note_on channel=1 note=42 velocity=0 time=0
EXTRACT: note_on channel=1 note=61 velocity=0 time=0.07317074999999999
EXTRACT: note_on channel=1 note=58 velocity=80 time=0.025406510416666667
EXTRACT: note_on channel=1 note=61 velocity=80 time=0
EXTRACT: note_on channel=1 note=65 velocity=80 time=0
EXTRACT: note_on channel=1 note=34 velocity=80 time=0
EXTRACT: note_on channel=1 note=46 velocity=80 time=0
EXTRACT: control_change channel=1 control=64 value=0 time=0.0010162604166666666
EXTRACT: control_change channel=1 control=64 value=127 time=0.0010162604166666666
EXTRACT: note_on channel=1 note=70 velocity=80 time=1.4613824791666665
EXTRACT: note_on channel=1 note=58 velocity=0 time=0.3892277395833333
EXTRACT: note_on channel=1 note=61 velocity=0 time=0
EXTRACT: note_on channel=1 note=65 velocity=0 time=0
EXTRACT: note_on channel=1 note=34 velocity=0 time=0
EXTRACT: note_on channel=1 note=46 velocity=0 time=0
EXTRACT: note_on channel=1 note=70 velocity=0 time=0.07317074999999999
EXTRACT: note_on channel=1 note=60 velocity=80 time=0.025406510416666667
EXTRACT: note_on channel=1 note=63 velocity=80 time=0
EXTRACT: note_on channel=1 note=70 velocity=80 time=0
EXTRACT: note_on channel=1 note=32 velocity=80 time=0
EXTRACT: note_on channel=1 note=44 velocity=80 time=0
EXTRACT: note_on channel=1 note=60 velocity=0 time=1.8526427395833331
EXTRACT: note_on channel=1 note=63 velocity=0 time=0
EXTRACT: note_on channel=1 note=70 velocity=0 time=0
EXTRACT: note_on channel=1 note=32 velocity=0 time=0
EXTRACT: note_on channel=1 note=44 velocity=0 time=0
EXTRACT: note_on channel=1 note=53 velocity=80 time=0.09857726041666666
EXTRACT: note_on channel=1 note=56 velocity=80 time=0
EXTRACT: note_on channel=1 note=60 velocity=80 time=0
EXTRACT: note_on channel=1 note=65 velocity=80 time=0
EXTRACT: note_on channel=1 note=29 velocity=80 time=0
EXTRACT: note_on channel=1 note=41 velocity=80 time=0
EXTRACT: control_change channel=1 control=64 value=0 time=0.0010162604166666666
EXTRACT: control_change channel=1 control=64 value=127 time=0.0010162604166666666
EXTRACT: note_on channel=1 note=60 velocity=0 time=1.3871954687499999
EXTRACT: note_on channel=1 note=60 velocity=80 time=0.07418701041666666
EXTRACT: note_on channel=1 note=53 velocity=0 time=0.3892277395833333
EXTRACT: note_on channel=1 note=56 velocity=0 time=0
EXTRACT: note_on channel=1 note=65 velocity=0 time=0
EXTRACT: note_on channel=1 note=29 velocity=0 time=0
EXTRACT: note_on channel=1 note=41 velocity=0 time=0
EXTRACT: note_on channel=1 note=60 velocity=0 time=0.07317074999999999
EXTRACT: note_on channel=1 note=54 velocity=80 time=0.025406510416666667
EXTRACT: note_on channel=1 note=58 velocity=80 time=0
EXTRACT: note_on channel=1 note=61 velocity=80 time=0
EXTRACT: note_on channel=1 note=65 velocity=80 time=0
EXTRACT: note_on channel=1 note=30 velocity=80 time=0
EXTRACT: note_on channel=1 note=42 velocity=80 time=0
EXTRACT: control_change channel=1 control=64 value=0 time=0.0010162604166666666
EXTRACT: control_change channel=1 control=64 value=127 time=0.0010162604166666666
EXTRACT: note_on channel=1 note=54 velocity=0 time=0.22865859375
EXTRACT: note_on channel=1 note=58 velocity=0 time=0
EXTRACT: note_on channel=1 note=61 velocity=0 time=0
EXTRACT: note_on channel=1 note=65 velocity=0 time=0
EXTRACT: note_on channel=1 note=63 velocity=80 time=0.013211385416666666
EXTRACT: note_on channel=1 note=63 velocity=0 time=0.11483742708333333
EXTRACT: note_on channel=1 note=61 velocity=80 time=0.007113822916666667
EXTRACT: note_on channel=1 note=61 velocity=0 time=0.11483742708333333
EXTRACT: note_on channel=1 note=60 velocity=80 time=0.007113822916666667
EXTRACT: note_on channel=1 note=60 velocity=0 time=0.4623984895833333
EXTRACT: note_on channel=1 note=61 velocity=80 time=0.025406510416666667
EXTRACT: note_on channel=1 note=61 velocity=0 time=0.4623984895833333
EXTRACT: note_on channel=1 note=65 velocity=80 time=0.025406510416666667
EXTRACT: note_on channel=1 note=30 velocity=0 time=0.3892277395833333
EXTRACT: note_on channel=1 note=42 velocity=0 time=0
EXTRACT: note_on channel=1 note=65 velocity=0 time=0.07317074999999999
EXTRACT: note_on channel=1 note=61 velocity=80 time=0.025406510416666667
EXTRACT: note_on channel=1 note=65 velocity=80 time=0
EXTRACT: note_on channel=1 note=34 velocity=80 time=0
EXTRACT: note_on channel=1 note=46 velocity=80 time=0
EXTRACT: control_change channel=1 control=64 value=0 time=0.0010162604166666666
EXTRACT: control_change channel=1 control=64 value=127 time=0.0010162604166666666
EXTRACT: note_on channel=1 note=34 velocity=0 time=0.92378071875
EXTRACT: note_on channel=1 note=46 velocity=0 time=0
EXTRACT: note_on channel=1 note=53 velocity=80 time=0.04979676041666666
EXTRACT: note_on channel=1 note=61 velocity=0 time=0.18191061458333332
EXTRACT: note_on channel=1 note=65 velocity=0 time=0
EXTRACT: note_on channel=1 note=70 velocity=80 time=0.06199188541666666
EXTRACT: note_on channel=1 note=70 velocity=0 time=0.23069111458333333
EXTRACT: note_on channel=1 note=72 velocity=80 time=0.013211385416666666
EXTRACT: note_on channel=1 note=53 velocity=0 time=0.4380082395833333
EXTRACT: note_on channel=1 note=72 velocity=0 time=0.02439025
EXTRACT: note_on channel=1 note=56 velocity=80 time=0.025406510416666667
EXTRACT: note_on channel=1 note=60 velocity=80 time=0
EXTRACT: note_on channel=1 note=63 velocity=80 time=0
EXTRACT: note_on channel=1 note=32 velocity=80 time=0
EXTRACT: note_on channel=1 note=44 velocity=80 time=0
EXTRACT: control_change channel=1 control=64 value=0 time=0.0010162604166666666
EXTRACT: note_on channel=1 note=56 velocity=0 time=1.8516264791666666
EXTRACT: note_on channel=1 note=60 velocity=0 time=0
EXTRACT: note_on channel=1 note=63 velocity=0 time=0
EXTRACT: note_on channel=1 note=32 velocity=0 time=0
EXTRACT: note_on channel=1 note=44 velocity=0 time=0
EXTRACT: note_on channel=1 note=53 velocity=80 time=0.09857726041666666
EXTRACT: note_on channel=1 note=56 velocity=80 time=0
EXTRACT: note_on channel=1 note=60 velocity=80 time=0
EXTRACT: note_on channel=1 note=65 velocity=80 time=0
EXTRACT: note_on channel=1 note=29 velocity=80 time=0
EXTRACT: note_on channel=1 note=41 velocity=80 time=0
EXTRACT: control_change channel=1 control=64 value=127 time=0.0020325208333333332
EXTRACT: note_on channel=1 note=53 velocity=0 time=1.85061021875
EXTRACT: note_on channel=1 note=56 velocity=0 time=0
EXTRACT: note_on channel=1 note=60 velocity=0 time=0
EXTRACT: note_on channel=1 note=65 velocity=0 time=0
EXTRACT: note_on channel=1 note=29 velocity=0 time=0
EXTRACT: note_on channel=1 note=41 velocity=0 time=0
EXTRACT: note_on channel=1 note=54 velocity=80 time=0.09857726041666666
EXTRACT: note_on channel=1 note=58 velocity=80 time=0
EXTRACT: note_on channel=1 note=61 velocity=80 time=0
EXTRACT: note_on channel=1 note=65 velocity=80 time=0
EXTRACT: note_on channel=1 note=30 velocity=80 time=0
EXTRACT: note_on channel=1 note=42 velocity=80 time=0
EXTRACT: note_on channel=1 note=61 velocity=0 time=0.4623984895833333
EXTRACT: note_on channel=1 note=63 velocity=80 time=0.025406510416666667
EXTRACT: note_on channel=1 note=58 velocity=0 time=0.9014229895833333
EXTRACT: note_on channel=1 note=58 velocity=80 time=0.07418701041666666
EXTRACT: note_on channel=1 note=54 velocity=0 time=0.3892277395833333
EXTRACT: note_on channel=1 note=65 velocity=0 time=0
EXTRACT: note_on channel=1 note=30 velocity=0 time=0
EXTRACT: note_on channel=1 note=42 velocity=0 time=0
EXTRACT: note_on channel=1 note=63 velocity=0 time=0.02439025
EXTRACT: note_on channel=1 note=58 velocity=0 time=0.0487805
EXTRACT: note_on channel=1 note=58 velocity=80 time=0.025406510416666667
EXTRACT: note_on channel=1 note=61 velocity=80 time=0
EXTRACT: note_on channel=1 note=65 velocity=80 time=0
EXTRACT: note_on channel=1 note=34 velocity=80 time=0
EXTRACT: note_on channel=1 note=46 velocity=80 time=0
EXTRACT: control_change channel=1 control=64 value=0 time=0.0010162604166666666
EXTRACT: control_change channel=1 control=64 value=127 time=0.0010162604166666666
EXTRACT: note_on channel=1 note=58 velocity=0 time=0.92378071875
EXTRACT: note_on channel=1 note=61 velocity=0 time=0
EXTRACT: note_on channel=1 note=58 velocity=80 time=0.04979676041666666
EXTRACT: note_on channel=1 note=34 velocity=0 time=0.4136179895833333
EXTRACT: note_on channel=1 note=46 velocity=0 time=0
EXTRACT: note_on channel=1 note=58 velocity=0 time=0.0487805
EXTRACT: note_on channel=1 note=60 velocity=80 time=0.025406510416666667
EXTRACT: note_on channel=1 note=51 velocity=80 time=0
EXTRACT: note_on channel=1 note=65 velocity=0 time=0.3892277395833333
EXTRACT: note_on channel=1 note=60 velocity=0 time=0.07317074999999999
EXTRACT: note_on channel=1 note=51 velocity=0 time=0
EXTRACT: note_on channel=1 note=60 velocity=80 time=0.025406510416666667
EXTRACT: note_on channel=1 note=63 velocity=80 time=0
EXTRACT: note_on channel=1 note=32 velocity=80 time=0
EXTRACT: note_on channel=1 note=44 velocity=80 time=0
EXTRACT: note_on channel=1 note=72 velocity=80 time=0.487805
EXTRACT: note_on channel=1 note=60 velocity=0 time=1.3648377395833333
EXTRACT: note_on channel=1 note=63 velocity=0 time=0
EXTRACT: note_on channel=1 note=32 velocity=0 time=0
EXTRACT: note_on channel=1 note=44 velocity=0 time=0
EXTRACT: note_on channel=1 note=72 velocity=0 time=0.02439025
EXTRACT: note_on channel=1 note=53 velocity=80 time=0.07418701041666666
EXTRACT: note_on channel=1 note=56 velocity=80 time=0
EXTRACT: note_on channel=1 note=60 velocity=80 time=0
EXTRACT: note_on channel=1 note=65 velocity=80 time=0
EXTRACT: note_on channel=1 note=29 velocity=80 time=0
EXTRACT: note_on channel=1 note=41 velocity=80 time=0
EXTRACT: control_change channel=1 control=64 value=0 time=0.0010162604166666666
EXTRACT: control_change channel=1 control=64 value=127 time=0.0010162604166666666
EXTRACT: note_on channel=1 note=53 velocity=0 time=1.85061021875
EXTRACT: note_on channel=1 note=56 velocity=0 time=0
EXTRACT: note_on channel=1 note=60 velocity=0 time=0
EXTRACT: note_on channel=1 note=65 velocity=0 time=0
EXTRACT: note_on channel=1 note=29 velocity=0 time=0
EXTRACT: note_on channel=1 note=41 velocity=0 time=0
EXTRACT: note_on channel=1 note=54 velocity=80 time=0.09857726041666666
EXTRACT: note_on channel=1 note=58 velocity=80 time=0
EXTRACT: note_on channel=1 note=60 velocity=80 time=0
EXTRACT: note_on channel=1 note=66 velocity=80 time=0
EXTRACT: note_on channel=1 note=30 velocity=80 time=0
EXTRACT: note_on channel=1 note=42 velocity=80 time=0
EXTRACT: note_on channel=1 note=54 velocity=0 time=5.5599607395833335
EXTRACT: note_on channel=1 note=58 velocity=0 time=0
EXTRACT: note_on channel=1 note=60 velocity=0 time=0
EXTRACT: note_on channel=1 note=66 velocity=0 time=0
EXTRACT: note_on channel=1 note=30 velocity=0 time=0
EXTRACT: note_on channel=1 note=42 velocity=0 time=0
EXTRACT: note_on channel=1 note=61 velocity=80 time=0.29369926041666666
EXTRACT: note_on channel=1 note=70 velocity=80 time=0
EXTRACT: note_on channel=1 note=34 velocity=80 time=0
EXTRACT: note_on channel=1 note=46 velocity=80 time=0
EXTRACT: control_change channel=1 control=64 value=0 time=0.0010162604166666666
EXTRACT: control_change channel=1 control=64 value=127 time=0.0010162604166666666
EXTRACT: note_on channel=1 note=61 velocity=0 time=0.22865859375
EXTRACT: note_on channel=1 note=70 velocity=0 time=0
EXTRACT: note_on channel=1 note=58 velocity=80 time=0.013211385416666666
EXTRACT: note_on channel=1 note=65 velocity=80 time=0
EXTRACT: note_on channel=1 note=58 velocity=0 time=0.23069111458333333
EXTRACT: note_on channel=1 note=65 velocity=0 time=0
EXTRACT: note_on channel=1 note=61 velocity=80 time=0.013211385416666666
EXTRACT: note_on channel=1 note=70 velocity=80 time=0
EXTRACT: note_on channel=1 note=61 velocity=0 time=0.23069111458333333
EXTRACT: note_on channel=1 note=70 velocity=0 time=0
EXTRACT: note_on channel=1 note=58 velocity=80 time=0.013211385416666666
EXTRACT: note_on channel=1 note=65 velocity=80 time=0
EXTRACT: note_on channel=1 note=34 velocity=0 time=0.19410573958333333
EXTRACT: note_on channel=1 note=46 velocity=0 time=0
EXTRACT: note_on channel=1 note=58 velocity=0 time=0.036585374999999996
EXTRACT: note_on channel=1 note=65 velocity=0 time=0
EXTRACT: note_on channel=1 note=61 velocity=80 time=0.013211385416666666
EXTRACT: note_on channel=1 note=70 velocity=80 time=0
EXTRACT: note_on channel=1 note=34 velocity=80 time=0
EXTRACT: note_on channel=1 note=46 velocity=80 time=0
EXTRACT: note_on channel=1 note=61 velocity=0 time=0.23069111458333333
EXTRACT: note_on channel=1 note=70 velocity=0 time=0
EXTRACT: note_on channel=1 note=58 velocity=80 time=0.013211385416666666
EXTRACT: note_on channel=1 note=65 velocity=80 time=0
EXTRACT: note_on channel=1 note=58 velocity=0 time=0.23069111458333333
EXTRACT: note_on channel=1 note=65 velocity=0 time=0
EXTRACT: note_on channel=1 note=61 velocity=80 time=0.013211385416666666
EXTRACT: note_on channel=1 note=70 velocity=80 time=0
EXTRACT: note_on channel=1 note=61 velocity=0 time=0.23069111458333333
EXTRACT: note_on channel=1 note=70 velocity=0 time=0
EXTRACT: note_on channel=1 note=58 velocity=80 time=0.013211385416666666
EXTRACT: note_on channel=1 note=65 velocity=80 time=0
EXTRACT: note_on channel=1 note=34 velocity=0 time=0.19410573958333333
EXTRACT: note_on channel=1 note=46 velocity=0 time=0
EXTRACT: note_on channel=1 note=58 velocity=0 time=0.036585374999999996
EXTRACT: note_on channel=1 note=65 velocity=0 time=0
EXTRACT: note_on channel=1 note=61 velocity=80 time=0.013211385416666666
EXTRACT: note_on channel=1 note=68 velocity=80 time=0
EXTRACT: note_on channel=1 note=32 velocity=80 time=0
EXTRACT: note_on channel=1 note=44 velocity=80 time=0
EXTRACT: control_change channel=1 control=64 value=0 time=0.0010162604166666666
EXTRACT: control_change channel=1 control=64 value=127 time=0.0010162604166666666
EXTRACT: note_on channel=1 note=61 velocity=0 time=0.22865859375
EXTRACT: note_on channel=1 note=68 velocity=0 time=0
EXTRACT: note_on channel=1 note=56 velocity=80 time=0.013211385416666666
EXTRACT: note_on channel=1 note=65 velocity=80 time=0
EXTRACT: note_on channel=1 note=56 velocity=0 time=0.23069111458333333
EXTRACT: note_on channel=1 note=65 velocity=0 time=0
EXTRACT: note_on channel=1 note=61 velocity=80 time=0.013211385416666666
EXTRACT: note_on channel=1 note=68 velocity=80 time=0
EXTRACT: note_on channel=1 note=61 velocity=0 time=0.23069111458333333
EXTRACT: note_on channel=1 note=68 velocity=0 time=0
EXTRACT: note_on channel=1 note=56 velocity=80 time=0.013211385416666666
EXTRACT: note_on channel=1 note=65 velocity=80 time=0
EXTRACT: note_on channel=1 note=32 velocity=0 time=0.19410573958333333
EXTRACT: note_on channel=1 note=44 velocity=0 time=0
EXTRACT: note_on channel=1 note=56 velocity=0 time=0.036585374999999996
EXTRACT: note_on channel=1 note=65 velocity=0 time=0
EXTRACT: note_on channel=1 note=61 velocity=80 time=0.013211385416666666
EXTRACT: note_on channel=1 note=68 velocity=80 time=0
EXTRACT: note_on channel=1 note=32 velocity=80 time=0
EXTRACT: note_on channel=1 note=44 velocity=80 time=0
EXTRACT: note_on channel=1 note=61 velocity=0 time=0.23069111458333333
EXTRACT: note_on channel=1 note=68 velocity=0 time=0
EXTRACT: note_on channel=1 note=56 velocity=80 time=0.013211385416666666
EXTRACT: note_on channel=1 note=65 velocity=80 time=0
EXTRACT: note_on channel=1 note=56 velocity=0 time=0.23069111458333333
EXTRACT: note_on channel=1 note=65 velocity=0 time=0
EXTRACT: note_on channel=1 note=61 velocity=80 time=0.013211385416666666
EXTRACT: note_on channel=1 note=68 velocity=80 time=0
EXTRACT: note_on channel=1 note=61 velocity=0 time=0.23069111458333333
EXTRACT: note_on channel=1 note=68 velocity=0 time=0
EXTRACT: note_on channel=1 note=56 velocity=80 time=0.013211385416666666
EXTRACT: note_on channel=1 note=65 velocity=80 time=0
EXTRACT: note_on channel=1 note=32 velocity=0 time=0.19410573958333333
EXTRACT: note_on channel=1 note=44 velocity=0 time=0
EXTRACT: note_on channel=1 note=56 velocity=0 time=0.036585374999999996
EXTRACT: note_on channel=1 note=65 velocity=0 time=0
EXTRACT: note_on channel=1 note=61 velocity=80 time=0.013211385416666666
EXTRACT: note_on channel=1 note=68 velocity=80 time=0
EXTRACT: note_on channel=1 note=29 velocity=80 time=0
EXTRACT: note_on channel=1 note=41 velocity=80 time=0
EXTRACT: control_change channel=1 control=64 value=0 time=0.0010162604166666666
EXTRACT: control_change channel=1 control=64 value=127 time=0.0010162604166666666
EXTRACT: note_on channel=1 note=61 velocity=0 time=0.22865859375
EXTRACT: note_on channel=1 note=68 velocity=0 time=0
EXTRACT: note_on channel=1 note=56 velocity=80 time=0.013211385416666666
EXTRACT: note_on channel=1 note=65 velocity=80 time=0
EXTRACT: note_on channel=1 note=56 velocity=0 time=0.23069111458333333
EXTRACT: note_on channel=1 note=65 velocity=0 time=0
EXTRACT: note_on channel=1 note=61 velocity=80 time=0.013211385416666666
EXTRACT: note_on channel=1 note=68 velocity=80 time=0
EXTRACT: note_on channel=1 note=61 velocity=0 time=0.23069111458333333
EXTRACT: note_on channel=1 note=68 velocity=0 time=0
EXTRACT: note_on channel=1 note=56 velocity=80 time=0.013211385416666666
EXTRACT: note_on channel=1 note=65 velocity=80 time=0
EXTRACT: note_on channel=1 note=29 velocity=0 time=0.19410573958333333
EXTRACT: note_on channel=1 note=41 velocity=0 time=0
EXTRACT: note_on channel=1 note=56 velocity=0 time=0.036585374999999996
EXTRACT: note_on channel=1 note=65 velocity=0 time=0
EXTRACT: note_on channel=1 note=61 velocity=80 time=0.013211385416666666
EXTRACT: note_on channel=1 note=68 velocity=80 time=0
EXTRACT: note_on channel=1 note=29 velocity=80 time=0
EXTRACT: note_on channel=1 note=41 velocity=80 time=0
EXTRACT: note_on channel=1 note=61 velocity=0 time=0.23069111458333333
EXTRACT: note_on channel=1 note=68 velocity=0 time=0
EXTRACT: note_on channel=1 note=56 velocity=80 time=0.013211385416666666
EXTRACT: note_on channel=1 note=65 velocity=80 time=0
EXTRACT: note_on channel=1 note=56 velocity=0 time=0.23069111458333333
EXTRACT: note_on channel=1 note=65 velocity=0 time=0
EXTRACT: note_on channel=1 note=61 velocity=80 time=0.013211385416666666
EXTRACT: note_on channel=1 note=68 velocity=80 time=0
EXTRACT: note_on channel=1 note=61 velocity=0 time=0.23069111458333333
EXTRACT: note_on channel=1 note=68 velocity=0 time=0
EXTRACT: note_on channel=1 note=56 velocity=80 time=0.013211385416666666
EXTRACT: note_on channel=1 note=65 velocity=80 time=0
EXTRACT: note_on channel=1 note=29 velocity=0 time=0.19410573958333333
EXTRACT: note_on channel=1 note=41 velocity=0 time=0
EXTRACT: note_on channel=1 note=56 velocity=0 time=0.036585374999999996
EXTRACT: note_on channel=1 note=65 velocity=0 time=0
EXTRACT: note_on channel=1 note=61 velocity=80 time=0.013211385416666666
EXTRACT: note_on channel=1 note=66 velocity=80 time=0
EXTRACT: note_on channel=1 note=30 velocity=80 time=0
EXTRACT: note_on channel=1 note=42 velocity=80 time=0
EXTRACT: control_change channel=1 control=64 value=0 time=0.0010162604166666666
EXTRACT: control_change channel=1 control=64 value=127 time=0.0010162604166666666
EXTRACT: note_on channel=1 note=61 velocity=0 time=0.22865859375
EXTRACT: note_on channel=1 note=66 velocity=0 time=0
EXTRACT: note_on channel=1 note=58 velocity=80 time=0.013211385416666666
EXTRACT: note_on channel=1 note=65 velocity=80 time=0
EXTRACT: note_on channel=1 note=58 velocity=0 time=0.23069111458333333
EXTRACT: note_on channel=1 note=65 velocity=0 time=0
EXTRACT: note_on channel=1 note=61 velocity=80 time=0.013211385416666666
EXTRACT: note_on channel=1 note=66 velocity=80 time=0
EXTRACT: note_on channel=1 note=61 velocity=0 time=0.23069111458333333
EXTRACT: note_on channel=1 note=66 velocity=0 time=0
EXTRACT: note_on channel=1 note=58 velocity=80 time=0.013211385416666666
EXTRACT: note_on channel=1 note=65 velocity=80 time=0
EXTRACT: note_on channel=1 note=30 velocity=0 time=0.19410573958333333
EXTRACT: note_on channel=1 note=42 velocity=0 time=0
EXTRACT: note_on channel=1 note=58 velocity=0 time=0.036585374999999996
EXTRACT: note_on channel=1 note=65 velocity=0 time=0
EXTRACT: note_on channel=1 note=61 velocity=80 time=0.013211385416666666
EXTRACT: note_on channel=1 note=66 velocity=80 time=0
EXTRACT: note_on channel=1 note=30 velocity=80 time=0
EXTRACT: note_on channel=1 note=42 velocity=80 time=0
EXTRACT: note_on channel=1 note=61 velocity=0 time=0.23069111458333333
EXTRACT: note_on channel=1 note=66 velocity=0 time=0
EXTRACT: note_on channel=1 note=58 velocity=80 time=0.013211385416666666
EXTRACT: note_on channel=1 note=65 velocity=80 time=0
EXTRACT: note_on channel=1 note=58 velocity=0 time=0.23069111458333333
EXTRACT: note_on channel=1 note=65 velocity=0 time=0
EXTRACT: note_on channel=1 note=61 velocity=80 time=0.013211385416666666
EXTRACT: note_on channel=1 note=66 velocity=80 time=0
EXTRACT: note_on channel=1 note=61 velocity=0 time=0.23069111458333333
EXTRACT: note_on channel=1 note=66 velocity=0 time=0
EXTRACT: note_on channel=1 note=58 velocity=80 time=0.013211385416666666
EXTRACT: note_on channel=1 note=65 velocity=80 time=0
EXTRACT: note_on channel=1 note=30 velocity=0 time=0.19410573958333333
EXTRACT: note_on channel=1 note=42 velocity=0 time=0
EXTRACT: note_on channel=1 note=58 velocity=0 time=0.036585374999999996
EXTRACT: note_on channel=1 note=65 velocity=0 time=0
EXTRACT: note_on channel=1 note=61 velocity=80 time=0.013211385416666666
EXTRACT: note_on channel=1 note=70 velocity=80 time=0
EXTRACT: note_on channel=1 note=34 velocity=80 time=0
EXTRACT: note_on channel=1 note=46 velocity=80 time=0
EXTRACT: control_change channel=1 control=64 value=0 time=0.0010162604166666666
EXTRACT: control_change channel=1 control=64 value=127 time=0.0010162604166666666
EXTRACT: note_on channel=1 note=61 velocity=0 time=0.22865859375
EXTRACT: note_on channel=1 note=70 velocity=0 time=0
EXTRACT: note_on channel=1 note=58 velocity=80 time=0.013211385416666666
EXTRACT: note_on channel=1 note=65 velocity=80 time=0
EXTRACT: note_on channel=1 note=58 velocity=0 time=0.23069111458333333
EXTRACT: note_on channel=1 note=65 velocity=0 time=0
EXTRACT: note_on channel=1 note=61 velocity=80 time=0.013211385416666666
EXTRACT: note_on channel=1 note=70 velocity=80 time=0
EXTRACT: note_on channel=1 note=61 velocity=0 time=0.23069111458333333
EXTRACT: note_on channel=1 note=70 velocity=0 time=0
EXTRACT: note_on channel=1 note=58 velocity=80 time=0.013211385416666666
EXTRACT: note_on channel=1 note=65 velocity=80 time=0
EXTRACT: note_on channel=1 note=34 velocity=0 time=0.19410573958333333
EXTRACT: note_on channel=1 note=46 velocity=0 time=0
EXTRACT: note_on channel=1 note=58 velocity=0 time=0.036585374999999996
EXTRACT: note_on channel=1 note=65 velocity=0 time=0
EXTRACT: note_on channel=1 note=61 velocity=80 time=0.013211385416666666
EXTRACT: note_on channel=1 note=70 velocity=80 time=0
EXTRACT: note_on channel=1 note=34 velocity=80 time=0
EXTRACT: note_on channel=1 note=46 velocity=80 time=0
EXTRACT: note_on channel=1 note=61 velocity=0 time=0.23069111458333333
EXTRACT: note_on channel=1 note=70 velocity=0 time=0
EXTRACT: note_on channel=1 note=58 velocity=80 time=0.013211385416666666
EXTRACT: note_on channel=1 note=65 velocity=80 time=0
EXTRACT: note_on channel=1 note=58 velocity=0 time=0.23069111458333333
EXTRACT: note_on channel=1 note=65 velocity=0 time=0
EXTRACT: note_on channel=1 note=61 velocity=80 time=0.013211385416666666
EXTRACT: note_on channel=1 note=70 velocity=80 time=0
EXTRACT: note_on channel=1 note=61 velocity=0 time=0.23069111458333333
EXTRACT: note_on channel=1 note=70 velocity=0 time=0
EXTRACT: note_on channel=1 note=58 velocity=80 time=0.013211385416666666
EXTRACT: note_on channel=1 note=65 velocity=80 time=0
EXTRACT: note_on channel=1 note=34 velocity=0 time=0.19410573958333333
EXTRACT: note_on channel=1 note=46 velocity=0 time=0
EXTRACT: note_on channel=1 note=58 velocity=0 time=0.036585374999999996
EXTRACT: note_on channel=1 note=65 velocity=0 time=0
EXTRACT: note_on channel=1 note=61 velocity=80 time=0.013211385416666666
EXTRACT: note_on channel=1 note=68 velocity=80 time=0
EXTRACT: note_on channel=1 note=32 velocity=80 time=0
EXTRACT: note_on channel=1 note=44 velocity=80 time=0
EXTRACT: control_change channel=1 control=64 value=0 time=0.0010162604166666666
EXTRACT: control_change channel=1 control=64 value=127 time=0.0010162604166666666
EXTRACT: note_on channel=1 note=61 velocity=0 time=0.22865859375
EXTRACT: note_on channel=1 note=68 velocity=0 time=0
EXTRACT: note_on channel=1 note=56 velocity=80 time=0.013211385416666666
EXTRACT: note_on channel=1 note=65 velocity=80 time=0
EXTRACT: note_on channel=1 note=56 velocity=0 time=0.23069111458333333
EXTRACT: note_on channel=1 note=65 velocity=0 time=0
EXTRACT: note_on channel=1 note=61 velocity=80 time=0.013211385416666666
EXTRACT: note_on channel=1 note=68 velocity=80 time=0
EXTRACT: note_on channel=1 note=61 velocity=0 time=0.23069111458333333
EXTRACT: note_on channel=1 note=68 velocity=0 time=0
EXTRACT: note_on channel=1 note=56 velocity=80 time=0.013211385416666666
EXTRACT: note_on channel=1 note=65 velocity=80 time=0
EXTRACT: note_on channel=1 note=32 velocity=0 time=0.19410573958333333
EXTRACT: note_on channel=1 note=44 velocity=0 time=0
EXTRACT: note_on channel=1 note=56 velocity=0 time=0.036585374999999996
EXTRACT: note_on channel=1 note=65 velocity=0 time=0
EXTRACT: note_on channel=1 note=61 velocity=80 time=0.013211385416666666
EXTRACT: note_on channel=1 note=68 velocity=80 time=0
EXTRACT: note_on channel=1 note=32 velocity=80 time=0
EXTRACT: note_on channel=1 note=44 velocity=80 time=0
EXTRACT: note_on channel=1 note=61 velocity=0 time=0.23069111458333333
EXTRACT: note_on channel=1 note=68 velocity=0 time=0
EXTRACT: note_on channel=1 note=56 velocity=80 time=0.013211385416666666
EXTRACT: note_on channel=1 note=65 velocity=80 time=0
EXTRACT: note_on channel=1 note=56 velocity=0 time=0.23069111458333333
EXTRACT: note_on channel=1 note=65 velocity=0 time=0
EXTRACT: note_on channel=1 note=61 velocity=80 time=0.013211385416666666
EXTRACT: note_on channel=1 note=68 velocity=80 time=0
EXTRACT: note_on channel=1 note=61 velocity=0 time=0.23069111458333333
EXTRACT: note_on channel=1 note=68 velocity=0 time=0
EXTRACT: note_on channel=1 note=56 velocity=80 time=0.013211385416666666
EXTRACT: note_on channel=1 note=65 velocity=80 time=0
EXTRACT: note_on channel=1 note=32 velocity=0 time=0.19410573958333333
EXTRACT: note_on channel=1 note=44 velocity=0 time=0
EXTRACT: note_on channel=1 note=56 velocity=0 time=0.036585374999999996
EXTRACT: note_on channel=1 note=65 velocity=0 time=0
EXTRACT: note_on channel=1 note=61 velocity=80 time=0.013211385416666666
EXTRACT: note_on channel=1 note=68 velocity=80 time=0
EXTRACT: note_on channel=1 note=29 velocity=80 time=0
EXTRACT: note_on channel=1 note=41 velocity=80 time=0
EXTRACT: control_change channel=1 control=64 value=0 time=0.0010162604166666666
EXTRACT: control_change channel=1 control=64 value=127 time=0.0010162604166666666
EXTRACT: note_on channel=1 note=61 velocity=0 time=0.22865859375
EXTRACT: note_on channel=1 note=68 velocity=0 time=0
EXTRACT: note_on channel=1 note=56 velocity=80 time=0.013211385416666666
EXTRACT: note_on channel=1 note=65 velocity=80 time=0
EXTRACT: note_on channel=1 note=56 velocity=0 time=0.23069111458333333
EXTRACT: note_on channel=1 note=65 velocity=0 time=0
EXTRACT: note_on channel=1 note=61 velocity=80 time=0.013211385416666666
EXTRACT: note_on channel=1 note=68 velocity=80 time=0
EXTRACT: note_on channel=1 note=61 velocity=0 time=0.23069111458333333
EXTRACT: note_on channel=1 note=68 velocity=0 time=0
EXTRACT: note_on channel=1 note=56 velocity=80 time=0.013211385416666666
EXTRACT: note_on channel=1 note=65 velocity=80 time=0
EXTRACT: note_on channel=1 note=29 velocity=0 time=0.19410573958333333
EXTRACT: note_on channel=1 note=41 velocity=0 time=0
EXTRACT: note_on channel=1 note=56 velocity=0 time=0.036585374999999996
EXTRACT: note_on channel=1 note=65 velocity=0 time=0
EXTRACT: note_on channel=1 note=61 velocity=80 time=0.013211385416666666
EXTRACT: note_on channel=1 note=68 velocity=80 time=0
EXTRACT: note_on channel=1 note=29 velocity=80 time=0
EXTRACT: note_on channel=1 note=41 velocity=80 time=0
EXTRACT: note_on channel=1 note=61 velocity=0 time=0.23069111458333333
EXTRACT: note_on channel=1 note=68 velocity=0 time=0
EXTRACT: note_on channel=1 note=56 velocity=80 time=0.013211385416666666
EXTRACT: note_on channel=1 note=65 velocity=80 time=0
EXTRACT: note_on channel=1 note=56 velocity=0 time=0.23069111458333333
EXTRACT: note_on channel=1 note=65 velocity=0 time=0
EXTRACT: note_on channel=1 note=61 velocity=80 time=0.013211385416666666
EXTRACT: note_on channel=1 note=68 velocity=80 time=0
EXTRACT: note_on channel=1 note=61 velocity=0 time=0.23069111458333333
EXTRACT: note_on channel=1 note=68 velocity=0 time=0
EXTRACT: note_on channel=1 note=56 velocity=80 time=0.013211385416666666
EXTRACT: note_on channel=1 note=65 velocity=80 time=0
EXTRACT: note_on channel=1 note=29 velocity=0 time=0.19410573958333333
EXTRACT: note_on channel=1 note=41 velocity=0 time=0
EXTRACT: note_on channel=1 note=56 velocity=0 time=0.036585374999999996
EXTRACT: note_on channel=1 note=65 velocity=0 time=0
EXTRACT: note_on channel=1 note=61 velocity=80 time=0.013211385416666666
EXTRACT: note_on channel=1 note=66 velocity=80 time=0
EXTRACT: note_on channel=1 note=30 velocity=80 time=0
EXTRACT: note_on channel=1 note=42 velocity=80 time=0
EXTRACT: control_change channel=1 control=64 value=0 time=0.0010162604166666666
EXTRACT: control_change channel=1 control=64 value=127 time=0.0010162604166666666
EXTRACT: note_on channel=1 note=61 velocity=0 time=0.22865859375
EXTRACT: note_on channel=1 note=66 velocity=0 time=0
EXTRACT: note_on channel=1 note=58 velocity=80 time=0.013211385416666666
EXTRACT: note_on channel=1 note=65 velocity=80 time=0
EXTRACT: note_on channel=1 note=58 velocity=0 time=0.23069111458333333
EXTRACT: note_on channel=1 note=65 velocity=0 time=0
EXTRACT: note_on channel=1 note=61 velocity=80 time=0.013211385416666666
EXTRACT: note_on channel=1 note=66 velocity=80 time=0
EXTRACT: note_on channel=1 note=61 velocity=0 time=0.23069111458333333
EXTRACT: note_on channel=1 note=66 velocity=0 time=0
EXTRACT: note_on channel=1 note=58 velocity=80 time=0.013211385416666666
EXTRACT: note_on channel=1 note=65 velocity=80 time=0
EXTRACT: note_on channel=1 note=30 velocity=0 time=0.19410573958333333
EXTRACT: note_on channel=1 note=42 velocity=0 time=0
EXTRACT: note_on channel=1 note=58 velocity=0 time=0.036585374999999996
EXTRACT: note_on channel=1 note=65 velocity=0 time=0
EXTRACT: note_on channel=1 note=61 velocity=80 time=0.013211385416666666
EXTRACT: note_on channel=1 note=66 velocity=80 time=0
EXTRACT: note_on channel=1 note=30 velocity=80 time=0
EXTRACT: note_on channel=1 note=42 velocity=80 time=0
EXTRACT: note_on channel=1 note=61 velocity=0 time=0.23069111458333333
EXTRACT: note_on channel=1 note=66 velocity=0 time=0
EXTRACT: note_on channel=1 note=58 velocity=80 time=0.013211385416666666
EXTRACT: note_on channel=1 note=65 velocity=80 time=0
EXTRACT: note_on channel=1 note=58 velocity=0 time=0.23069111458333333
EXTRACT: note_on channel=1 note=65 velocity=0 time=0
EXTRACT: note_on channel=0 note=85 velocity=96 time=0.013211385416666666
EXTRACT: note_on channel=1 note=61 velocity=80 time=0
EXTRACT: note_on channel=1 note=66 velocity=80 time=0
EXTRACT: note_on channel=0 note=85 velocity=0 time=0.23069111458333333
EXTRACT: note_on channel=1 note=61 velocity=0 time=0
EXTRACT: note_on channel=1 note=66 velocity=0 time=0
EXTRACT: note_on channel=0 note=85 velocity=96 time=0.013211385416666666
EXTRACT: note_on channel=1 note=58 velocity=80 time=0
EXTRACT: note_on channel=1 note=65 velocity=80 time=0
EXTRACT: note_on channel=1 note=30 velocity=0 time=0.19410573958333333
EXTRACT: note_on channel=1 note=42 velocity=0 time=0
EXTRACT: note_on channel=0 note=85 velocity=0 time=0.036585374999999996
EXTRACT: note_on channel=1 note=58 velocity=0 time=0
EXTRACT: note_on channel=1 note=65 velocity=0 time=0
EXTRACT: note_on channel=0 note=85 velocity=96 time=0.013211385416666666
EXTRACT: note_on channel=1 note=61 velocity=80 time=0
EXTRACT: note_on channel=1 note=70 velocity=80 time=0
EXTRACT: note_on channel=1 note=34 velocity=80 time=0
EXTRACT: note_on channel=1 note=46 velocity=80 time=0
EXTRACT: control_change channel=1 control=64 value=0 time=0.0010162604166666666
EXTRACT: control_change channel=1 control=64 value=127 time=0.0010162604166666666
EXTRACT: note_on channel=0 note=85 velocity=0 time=0.22865859375
EXTRACT: note_on channel=1 note=61 velocity=0 time=0
EXTRACT: note_on channel=1 note=70 velocity=0 time=0
EXTRACT: note_on channel=0 note=87 velocity=96 time=0.013211385416666666
EXTRACT: note_on channel=1 note=58 velocity=80 time=0
EXTRACT: note_on channel=1 note=65 velocity=80 time=0
EXTRACT: note_on channel=0 note=87 velocity=0 time=0.23069111458333333
EXTRACT: note_on channel=1 note=58 velocity=0 time=0
EXTRACT: note_on channel=1 note=65 velocity=0 time=0
EXTRACT: note_on channel=0 note=85 velocity=96 time=0.013211385416666666
EXTRACT: note_on channel=1 note=61 velocity=80 time=0
EXTRACT: note_on channel=1 note=70 velocity=80 time=0
EXTRACT: note_on channel=0 note=85 velocity=0 time=0.23069111458333333
EXTRACT: note_on channel=1 note=61 velocity=0 time=0
EXTRACT: note_on channel=1 note=70 velocity=0 time=0
EXTRACT: note_on channel=0 note=80 velocity=96 time=0.013211385416666666
EXTRACT: note_on channel=1 note=58 velocity=80 time=0
EXTRACT: note_on channel=1 note=65 velocity=80 time=0
EXTRACT: note_on channel=1 note=34 velocity=0 time=0.19410573958333333
EXTRACT: note_on channel=1 note=46 velocity=0 time=0
EXTRACT: note_on channel=1 note=58 velocity=0 time=0.036585374999999996
EXTRACT: note_on channel=1 note=65 velocity=0 time=0
EXTRACT: note_on channel=1 note=61 velocity=80 time=0.013211385416666666
EXTRACT: note_on channel=1 note=70 velocity=80 time=0
EXTRACT: note_on channel=1 note=34 velocity=80 time=0
EXTRACT: note_on channel=1 note=46 velocity=80 time=0
EXTRACT: note_on channel=0 note=80 velocity=0 time=0.21849598958333333
EXTRACT: note_on channel=1 note=61 velocity=0 time=0.012195125
EXTRACT: note_on channel=1 note=70 velocity=0 time=0
EXTRACT: note_on channel=0 note=82 velocity=96 time=0.013211385416666666
EXTRACT: note_on channel=1 note=58 velocity=80 time=0
EXTRACT: note_on channel=1 note=65 velocity=80 time=0
EXTRACT: note_on channel=0 note=82 velocity=0 time=0.11483742708333333
EXTRACT: note_on channel=0 note=80 velocity=96 time=0.007113822916666667
EXTRACT: note_on channel=1 note=58 velocity=0 time=0.10873986458333333
EXTRACT: note_on channel=1 note=65 velocity=0 time=0
EXTRACT: note_on channel=1 note=61 velocity=80 time=0.013211385416666666
EXTRACT: note_on channel=1 note=70 velocity=80 time=0
EXTRACT: note_on channel=0 note=80 velocity=0 time=0.10873986458333333
EXTRACT: note_on channel=0 note=80 velocity=96 time=0.013211385416666666
EXTRACT: note_on channel=1 note=61 velocity=0 time=0.10873986458333333
EXTRACT: note_on channel=1 note=70 velocity=0 time=0
EXTRACT: note_on channel=1 note=58 velocity=80 time=0.013211385416666666
EXTRACT: note_on channel=1 note=65 velocity=80 time=0
EXTRACT: note_on channel=1 note=34 velocity=0 time=0.19410573958333333
EXTRACT: note_on channel=1 note=46 velocity=0 time=0
EXTRACT: note_on channel=1 note=58 velocity=0 time=0.036585374999999996
EXTRACT: note_on channel=1 note=65 velocity=0 time=0
EXTRACT: note_on channel=1 note=61 velocity=80 time=0.013211385416666666
EXTRACT: note_on channel=1 note=68 velocity=80 time=0
EXTRACT: note_on channel=1 note=32 velocity=80 time=0
EXTRACT: note_on channel=1 note=44 velocity=80 time=0
EXTRACT: control_change channel=1 control=64 value=0 time=0.0010162604166666666
EXTRACT: control_change channel=1 control=64 value=127 time=0.0010162604166666666
EXTRACT: note_on channel=1 note=61 velocity=0 time=0.22865859375
EXTRACT: note_on channel=1 note=68 velocity=0 time=0
EXTRACT: note_on channel=1 note=56 velocity=80 time=0.013211385416666666
EXTRACT: note_on channel=1 note=65 velocity=80 time=0
EXTRACT: note_on channel=0 note=80 velocity=0 time=0.2002033020833333
EXTRACT: note_on channel=1 note=56 velocity=0 time=0.0304878125
EXTRACT: note_on channel=1 note=65 velocity=0 time=0
EXTRACT: note_on channel=1 note=61 velocity=80 time=0.013211385416666666
EXTRACT: note_on channel=1 note=68 velocity=80 time=0
EXTRACT: note_on channel=1 note=61 velocity=0 time=0.23069111458333333
EXTRACT: note_on channel=1 note=68 velocity=0 time=0
EXTRACT: note_on channel=1 note=56 velocity=80 time=0.013211385416666666
EXTRACT: note_on channel=1 note=65 velocity=80 time=0
EXTRACT: note_on channel=1 note=32 velocity=0 time=0.19410573958333333
EXTRACT: note_on channel=1 note=44 velocity=0 time=0
EXTRACT: note_on channel=1 note=56 velocity=0 time=0.036585374999999996
EXTRACT: note_on channel=1 note=65 velocity=0 time=0
EXTRACT: note_on channel=1 note=61 velocity=80 time=0.013211385416666666
EXTRACT: note_on channel=1 note=68 velocity=80 time=0
EXTRACT: note_on channel=1 note=32 velocity=80 time=0
EXTRACT: note_on channel=1 note=44 velocity=80 time=0
EXTRACT: note_on channel=1 note=61 velocity=0 time=0.23069111458333333
EXTRACT: note_on channel=1 note=68 velocity=0 time=0
EXTRACT: note_on channel=1 note=56 velocity=80 time=0.013211385416666666
EXTRACT: note_on channel=1 note=65 velocity=80 time=0
EXTRACT: note_on channel=1 note=56 velocity=0 time=0.23069111458333333
EXTRACT: note_on channel=1 note=65 velocity=0 time=0
EXTRACT: note_on channel=0 note=77 velocity=96 time=0.013211385416666666
EXTRACT: note_on channel=1 note=61 velocity=80 time=0
EXTRACT: note_on channel=1 note=68 velocity=80 time=0
EXTRACT: note_on channel=0 note=77 velocity=0 time=0.23069111458333333
EXTRACT: note_on channel=1 note=61 velocity=0 time=0
EXTRACT: note_on channel=1 note=68 velocity=0 time=0
EXTRACT: note_on channel=0 note=77 velocity=96 time=0.013211385416666666
EXTRACT: note_on channel=1 note=56 velocity=80 time=0
EXTRACT: note_on channel=1 note=65 velocity=80 time=0
EXTRACT: note_on channel=1 note=32 velocity=0 time=0.19410573958333333
EXTRACT: note_on channel=1 note=44 velocity=0 time=0
EXTRACT: note_on channel=1 note=56 velocity=0 time=0.036585374999999996
EXTRACT: note_on channel=1 note=65 velocity=0 time=0
EXTRACT: note_on channel=1 note=61 velocity=80 time=0.013211385416666666
EXTRACT: note_on channel=1 note=68 velocity=80 time=0
EXTRACT: note_on channel=1 note=29 velocity=80 time=0
EXTRACT: note_on channel=1 note=41 velocity=80 time=0
EXTRACT: control_change channel=1 control=64 value=0 time=0.0010162604166666666
EXTRACT: control_change channel=1 control=64 value=127 time=0.0010162604166666666
EXTRACT: note_on channel=1 note=61 velocity=0 time=0.22865859375
EXTRACT: note_on channel=1 note=68 velocity=0 time=0
EXTRACT: note_on channel=1 note=56 velocity=80 time=0.013211385416666666
EXTRACT: note_on channel=1 note=65 velocity=80 time=0
EXTRACT: note_on channel=1 note=56 velocity=0 time=0.23069111458333333
EXTRACT: note_on channel=1 note=65 velocity=0 time=0
EXTRACT: note_on channel=1 note=61 velocity=80 time=0.013211385416666666
EXTRACT: note_on channel=1 note=68 velocity=80 time=0
EXTRACT: note_on channel=1 note=61 velocity=0 time=0.23069111458333333
EXTRACT: note_on channel=1 note=68 velocity=0 time=0
EXTRACT: note_on channel=1 note=56 velocity=80 time=0.013211385416666666
EXTRACT: note_on channel=1 note=65 velocity=80 time=0
EXTRACT: note_on channel=1 note=29 velocity=0 time=0.19410573958333333
EXTRACT: note_on channel=1 note=41 velocity=0 time=0
EXTRACT: note_on channel=1 note=56 velocity=0 time=0.036585374999999996
EXTRACT: note_on channel=1 note=65 velocity=0 time=0
EXTRACT: note_on channel=1 note=61 velocity=80 time=0.013211385416666666
EXTRACT: note_on channel=1 note=68 velocity=80 time=0
EXTRACT: note_on channel=1 note=29 velocity=80 time=0
EXTRACT: note_on channel=1 note=41 velocity=80 time=0
EXTRACT: note_on channel=1 note=61 velocity=0 time=0.23069111458333333
EXTRACT: note_on channel=1 note=68 velocity=0 time=0
EXTRACT: note_on channel=1 note=56 velocity=80 time=0.013211385416666666
EXTRACT: note_on channel=1 note=65 velocity=80 time=0
EXTRACT: note_on channel=0 note=77 velocity=0 time=0.15752036458333332
EXTRACT: note_on channel=1 note=56 velocity=0 time=0.07317074999999999
EXTRACT: note_on channel=1 note=65 velocity=0 time=0
EXTRACT: note_on channel=1 note=61 velocity=80 time=0.013211385416666666
EXTRACT: note_on channel=1 note=68 velocity=80 time=0
EXTRACT: note_on channel=1 note=61 velocity=0 time=0.23069111458333333
EXTRACT: note_on channel=1 note=68 velocity=0 time=0
EXTRACT: note_on channel=0 note=78 velocity=96 time=0.013211385416666666
EXTRACT: note_on channel=1 note=56 velocity=80 time=0
EXTRACT: note_on channel=1 note=65 velocity=80 time=0
EXTRACT: note_on channel=1 note=29 velocity=0 time=0.19410573958333333
EXTRACT: note_on channel=1 note=41 velocity=0 time=0
EXTRACT: note_on channel=1 note=56 velocity=0 time=0.036585374999999996
EXTRACT: note_on channel=1 note=65 velocity=0 time=0
EXTRACT: note_on channel=1 note=61 velocity=80 time=0.013211385416666666
EXTRACT: note_on channel=1 note=66 velocity=80 time=0
EXTRACT: note_on channel=1 note=30 velocity=80 time=0
EXTRACT: note_on channel=1 note=42 velocity=80 time=0
EXTRACT: control_change channel=1 control=64 value=0 time=0.0010162604166666666
EXTRACT: control_change channel=1 control=64 value=127 time=0.0010162604166666666
EXTRACT: note_on channel=1 note=61 velocity=0 time=0.22865859375
EXTRACT: note_on channel=1 note=66 velocity=0 time=0
EXTRACT: note_on channel=1 note=58 velocity=80 time=0.013211385416666666
EXTRACT: note_on channel=1 note=65 velocity=80 time=0
EXTRACT: note_on channel=1 note=58 velocity=0 time=0.23069111458333333
EXTRACT: note_on channel=1 note=65 velocity=0 time=0
EXTRACT: note_on channel=1 note=61 velocity=80 time=0.013211385416666666
EXTRACT: note_on channel=1 note=66 velocity=80 time=0
EXTRACT: note_on channel=1 note=61 velocity=0 time=0.23069111458333333
EXTRACT: note_on channel=1 note=66 velocity=0 time=0
EXTRACT: note_on channel=1 note=58 velocity=80 time=0.013211385416666666
EXTRACT: note_on channel=1 note=65 velocity=80 time=0
EXTRACT: note_on channel=0 note=78 velocity=0 time=0.18191061458333332
EXTRACT: note_on channel=1 note=30 velocity=0 time=0.012195125
EXTRACT: note_on channel=1 note=42 velocity=0 time=0
EXTRACT: note_on channel=1 note=58 velocity=0 time=0.036585374999999996
EXTRACT: note_on channel=1 note=65 velocity=0 time=0
EXTRACT: note_on channel=1 note=61 velocity=80 time=0.013211385416666666
EXTRACT: note_on channel=1 note=66 velocity=80 time=0
EXTRACT: note_on channel=1 note=30 velocity=80 time=0
EXTRACT: note_on channel=1 note=42 velocity=80 time=0
EXTRACT: note_on channel=1 note=61 velocity=0 time=0.23069111458333333
EXTRACT: note_on channel=1 note=66 velocity=0 time=0
EXTRACT: note_on channel=1 note=58 velocity=80 time=0.013211385416666666
EXTRACT: note_on channel=1 note=65 velocity=80 time=0
EXTRACT: note_on channel=1 note=58 velocity=0 time=0.23069111458333333
EXTRACT: note_on channel=1 note=65 velocity=0 time=0
EXTRACT: note_on channel=1 note=61 velocity=80 time=0.013211385416666666
EXTRACT: note_on channel=1 note=66 velocity=80 time=0
EXTRACT: note_on channel=1 note=61 velocity=0 time=0.23069111458333333
EXTRACT: note_on channel=1 note=66 velocity=0 time=0
EXTRACT: note_on channel=0 note=85 velocity=96 time=0.013211385416666666
EXTRACT: note_on channel=1 note=58 velocity=80 time=0
EXTRACT: note_on channel=1 note=65 velocity=80 time=0
EXTRACT: note_on channel=1 note=30 velocity=0 time=0.19410573958333333
EXTRACT: note_on channel=1 note=42 velocity=0 time=0
EXTRACT: note_on channel=0 note=85 velocity=0 time=0.036585374999999996
EXTRACT: note_on channel=1 note=58 velocity=0 time=0
EXTRACT: note_on channel=1 note=65 velocity=0 time=0
EXTRACT: note_on channel=0 note=85 velocity=96 time=0.013211385416666666
EXTRACT: note_on channel=1 note=61 velocity=80 time=0
EXTRACT: note_on channel=1 note=70 velocity=80 time=0
EXTRACT: note_on channel=1 note=34 velocity=80 time=0
EXTRACT: note_on channel=1 note=46 velocity=80 time=0
EXTRACT: control_change channel=1 control=64 value=0 time=0.0010162604166666666
EXTRACT: control_change channel=1 control=64 value=127 time=0.0010162604166666666
EXTRACT: note_on channel=0 note=85 velocity=0 time=0.22865859375
EXTRACT: note_on channel=1 note=61 velocity=0 time=0
EXTRACT: note_on channel=1 note=70 velocity=0 time=0
EXTRACT: note_on channel=0 note=87 velocity=96 time=0.013211385416666666
EXTRACT: note_on channel=1 note=58 velocity=80 time=0
EXTRACT: note_on channel=1 note=65 velocity=80 time=0
EXTRACT: note_on channel=0 note=87 velocity=0 time=0.23069111458333333
EXTRACT: note_on channel=1 note=58 velocity=0 time=0
EXTRACT: note_on channel=1 note=65 velocity=0 time=0
EXTRACT: note_on channel=0 note=85 velocity=96 time=0.013211385416666666
EXTRACT: note_on channel=1 note=61 velocity=80 time=0
EXTRACT: note_on channel=1 note=70 velocity=80 time=0
EXTRACT: note_on channel=0 note=85 velocity=0 time=0.23069111458333333
EXTRACT: note_on channel=1 note=61 velocity=0 time=0
EXTRACT: note_on channel=1 note=70 velocity=0 time=0
EXTRACT: note_on channel=0 note=80 velocity=96 time=0.013211385416666666
EXTRACT: note_on channel=1 note=58 velocity=80 time=0
EXTRACT: note_on channel=1 note=65 velocity=80 time=0
EXTRACT: note_on channel=1 note=34 velocity=0 time=0.19410573958333333
EXTRACT: note_on channel=1 note=46 velocity=0 time=0
EXTRACT: note_on channel=0 note=80 velocity=0 time=0.036585374999999996
EXTRACT: note_on channel=1 note=58 velocity=0 time=0
EXTRACT: note_on channel=1 note=65 velocity=0 time=0
EXTRACT: note_on channel=0 note=80 velocity=96 time=0.013211385416666666
EXTRACT: note_on channel=1 note=61 velocity=80 time=0
EXTRACT: note_on channel=1 note=70 velocity=80 time=0
EXTRACT: note_on channel=1 note=34 velocity=80 time=0
EXTRACT: note_on channel=1 note=46 velocity=80 time=0
EXTRACT: note_on channel=0 note=80 velocity=0 time=0.23069111458333333
EXTRACT: note_on channel=1 note=61 velocity=0 time=0
EXTRACT: note_on channel=1 note=70 velocity=0 time=0
EXTRACT: note_on channel=0 note=82 velocity=96 time=0.013211385416666666
EXTRACT: note_on channel=1 note=58 velocity=80 time=0
EXTRACT: note_on channel=1 note=65 velocity=80 time=0
EXTRACT: note_on channel=0 note=82 velocity=0 time=0.23069111458333333
EXTRACT: note_on channel=1 note=58 velocity=0 time=0
EXTRACT: note_on channel=1 note=65 velocity=0 time=0
EXTRACT: note_on channel=0 note=80 velocity=96 time=0.013211385416666666
EXTRACT: note_on channel=1 note=61 velocity=80 time=0
EXTRACT: note_on channel=1 note=70 velocity=80 time=0
EXTRACT: note_on channel=0 note=80 velocity=0 time=0.23069111458333333
EXTRACT: note_on channel=1 note=61 velocity=0 time=0
EXTRACT: note_on channel=1 note=70 velocity=0 time=0
EXTRACT: note_on channel=0 note=80 velocity=96 time=0.013211385416666666
EXTRACT: note_on channel=1 note=58 velocity=80 time=0
EXTRACT: note_on channel=1 note=65 velocity=80 time=0
EXTRACT: note_on channel=1 note=34 velocity=0 time=0.19410573958333333
EXTRACT: note_on channel=1 note=46 velocity=0 time=0
EXTRACT: note_on channel=1 note=58 velocity=0 time=0.036585374999999996
EXTRACT: note_on channel=1 note=65 velocity=0 time=0
EXTRACT: note_on channel=1 note=61 velocity=80 time=0.013211385416666666
EXTRACT: note_on channel=1 note=68 velocity=80 time=0
EXTRACT: note_on channel=1 note=32 velocity=80 time=0
EXTRACT: note_on channel=1 note=44 velocity=80 time=0
EXTRACT: control_change channel=1 control=64 value=0 time=0.0010162604166666666
EXTRACT: control_change channel=1 control=64 value=127 time=0.0010162604166666666
EXTRACT: note_on channel=0 note=80 velocity=0 time=0.21646346875
EXTRACT: note_on channel=1 note=61 velocity=0 time=0.012195125
EXTRACT: note_on channel=1 note=68 velocity=0 time=0
EXTRACT: note_on channel=0 note=80 velocity=96 time=0.013211385416666666
EXTRACT: note_on channel=1 note=56 velocity=80 time=0
EXTRACT: note_on channel=1 note=65 velocity=80 time=0
EXTRACT: note_on channel=0 note=80 velocity=0 time=0.23069111458333333
EXTRACT: note_on channel=1 note=56 velocity=0 time=0
EXTRACT: note_on channel=1 note=65 velocity=0 time=0
EXTRACT: note_on channel=1 note=61 velocity=80 time=0.013211385416666666
EXTRACT: note_on channel=1 note=68 velocity=80 time=0
EXTRACT: note_on channel=1 note=61 velocity=0 time=0.23069111458333333
EXTRACT: note_on channel=1 note=68 velocity=0 time=0
EXTRACT: note_on channel=1 note=56 velocity=80 time=0.013211385416666666
EXTRACT: note_on channel=1 note=65 velocity=80 time=0
EXTRACT: note_on channel=1 note=32 velocity=0 time=0.19410573958333333
EXTRACT: note_on channel=1 note=44 velocity=0 time=0
EXTRACT: note_on channel=1 note=56 velocity=0 time=0.036585374999999996
EXTRACT: note_on channel=1 note=65 velocity=0 time=0
EXTRACT: note_on channel=1 note=61 velocity=80 time=0.013211385416666666
EXTRACT: note_on channel=1 note=68 velocity=80 time=0
EXTRACT: note_on channel=1 note=32 velocity=80 time=0
EXTRACT: note_on channel=1 note=44 velocity=80 time=0
EXTRACT: note_on channel=1 note=61 velocity=0 time=0.23069111458333333
EXTRACT: note_on channel=1 note=68 velocity=0 time=0
EXTRACT: note_on channel=0 note=77 velocity=96 time=0.013211385416666666
EXTRACT: note_on channel=1 note=56 velocity=80 time=0
EXTRACT: note_on channel=1 note=65 velocity=80 time=0
EXTRACT: note_on channel=0 note=77 velocity=0 time=0.23069111458333333
EXTRACT: note_on channel=1 note=56 velocity=0 time=0
EXTRACT: note_on channel=1 note=65 velocity=0 time=0
EXTRACT: note_on channel=0 note=77 velocity=96 time=0.013211385416666666
EXTRACT: note_on channel=1 note=61 velocity=80 time=0
EXTRACT: note_on channel=1 note=68 velocity=80 time=0
EXTRACT: note_on channel=0 note=77 velocity=0 time=0.23069111458333333
EXTRACT: note_on channel=1 note=61 velocity=0 time=0
EXTRACT: note_on channel=1 note=68 velocity=0 time=0
EXTRACT: note_on channel=0 note=77 velocity=96 time=0.013211385416666666
EXTRACT: note_on channel=1 note=56 velocity=80 time=0
EXTRACT: note_on channel=1 note=65 velocity=80 time=0
EXTRACT: note_on channel=1 note=32 velocity=0 time=0.19410573958333333
EXTRACT: note_on channel=1 note=44 velocity=0 time=0
EXTRACT: note_on channel=0 note=77 velocity=0 time=0.036585374999999996
EXTRACT: note_on channel=1 note=56 velocity=0 time=0
EXTRACT: note_on channel=1 note=65 velocity=0 time=0
EXTRACT: note_on channel=0 note=77 velocity=96 time=0.013211385416666666
EXTRACT: note_on channel=1 note=61 velocity=80 time=0
EXTRACT: note_on channel=1 note=68 velocity=80 time=0
EXTRACT: note_on channel=1 note=29 velocity=80 time=0
EXTRACT: note_on channel=1 note=41 velocity=80 time=0
EXTRACT: control_change channel=1 control=64 value=0 time=0.0010162604166666666
EXTRACT: control_change channel=1 control=64 value=127 time=0.0010162604166666666
EXTRACT: note_on channel=1 note=61 velocity=0 time=0.22865859375
EXTRACT: note_on channel=1 note=68 velocity=0 time=0
EXTRACT: note_on channel=1 note=56 velocity=80 time=0.013211385416666666
EXTRACT: note_on channel=1 note=65 velocity=80 time=0
EXTRACT: note_on channel=0 note=77 velocity=0 time=0.10264230208333333
EXTRACT: note_on channel=0 note=77 velocity=96 time=0.019308947916666666
EXTRACT: note_on channel=1 note=56 velocity=0 time=0.10873986458333333
EXTRACT: note_on channel=1 note=65 velocity=0 time=0
EXTRACT: note_on channel=1 note=61 velocity=80 time=0.013211385416666666
EXTRACT: note_on channel=1 note=68 velocity=80 time=0
EXTRACT: note_on channel=0 note=77 velocity=0 time=0.22459355208333331
EXTRACT: note_on channel=1 note=61 velocity=0 time=0.0060975625
EXTRACT: note_on channel=1 note=68 velocity=0 time=0
EXTRACT: note_on channel=0 note=77 velocity=96 time=0.013211385416666666
EXTRACT: note_on channel=1 note=56 velocity=80 time=0
EXTRACT: note_on channel=1 note=65 velocity=80 time=0
EXTRACT: note_on channel=1 note=29 velocity=0 time=0.19410573958333333
EXTRACT: note_on channel=1 note=41 velocity=0 time=0
EXTRACT: note_on channel=0 note=77 velocity=0 time=0.036585374999999996
EXTRACT: note_on channel=1 note=56 velocity=0 time=0
EXTRACT: note_on channel=1 note=65 velocity=0 time=0
EXTRACT: note_on channel=0 note=77 velocity=96 time=0.013211385416666666
EXTRACT: note_on channel=1 note=61 velocity=80 time=0
EXTRACT: note_on channel=1 note=68 velocity=80 time=0
EXTRACT: note_on channel=1 note=29 velocity=80 time=0
EXTRACT: note_on channel=1 note=41 velocity=80 time=0
EXTRACT: note_on channel=1 note=61 velocity=0 time=0.23069111458333333
EXTRACT: note_on channel=1 note=68 velocity=0 time=0
EXTRACT: note_on channel=1 note=56 velocity=80 time=0.013211385416666666
EXTRACT: note_on channel=1 note=65 velocity=80 time=0
EXTRACT: note_on channel=0 note=77 velocity=0 time=0.10264230208333333
EXTRACT: note_on channel=0 note=77 velocity=96 time=0.019308947916666666
EXTRACT: note_on channel=1 note=56 velocity=0 time=0.10873986458333333
EXTRACT: note_on channel=1 note=65 velocity=0 time=0
EXTRACT: note_on channel=1 note=61 velocity=80 time=0.013211385416666666
EXTRACT: note_on channel=1 note=68 velocity=80 time=0
EXTRACT: note_on channel=0 note=77 velocity=0 time=0.22459355208333331
EXTRACT: note_on channel=1 note=61 velocity=0 time=0.0060975625
EXTRACT: note_on channel=1 note=68 velocity=0 time=0
EXTRACT: note_on channel=0 note=78 velocity=96 time=0.013211385416666666
EXTRACT: note_on channel=1 note=56 velocity=80 time=0
EXTRACT: note_on channel=1 note=65 velocity=80 time=0
EXTRACT: note_on channel=1 note=29 velocity=0 time=0.19410573958333333
EXTRACT: note_on channel=1 note=41 velocity=0 time=0
EXTRACT: note_on channel=1 note=56 velocity=0 time=0.036585374999999996
EXTRACT: note_on channel=1 note=65 velocity=0 time=0
EXTRACT: note_on channel=1 note=61 velocity=80 time=0.013211385416666666
EXTRACT: note_on channel=1 note=66 velocity=80 time=0
EXTRACT: note_on channel=1 note=30 velocity=80 time=0
EXTRACT: note_on channel=1 note=42 velocity=80 time=0
EXTRACT: control_change channel=1 control=64 value=0 time=0.0010162604166666666
EXTRACT: control_change channel=1 control=64 value=127 time=0.0010162604166666666
EXTRACT: note_on channel=0 note=78 velocity=0 time=0.21646346875
EXTRACT: note_on channel=1 note=61 velocity=0 time=0.012195125
EXTRACT: note_on channel=1 note=66 velocity=0 time=0
EXTRACT: note_on channel=0 note=77 velocity=96 time=0.013211385416666666
EXTRACT: note_on channel=1 note=58 velocity=80 time=0
EXTRACT: note_on channel=1 note=65 velocity=80 time=0
EXTRACT: note_on channel=1 note=58 velocity=0 time=0.23069111458333333
EXTRACT: note_on channel=1 note=65 velocity=0 time=0
EXTRACT: note_on channel=1 note=61 velocity=80 time=0.013211385416666666
EXTRACT: note_on channel=1 note=66 velocity=80 time=0
EXTRACT: note_on channel=0 note=77 velocity=0 time=0.21849598958333333
EXTRACT: note_on channel=1 note=61 velocity=0 time=0.012195125
EXTRACT: note_on channel=1 note=66 velocity=0 time=0
EXTRACT: note_on channel=1 note=58 velocity=80 time=0.013211385416666666
EXTRACT: note_on channel=1 note=65 velocity=80 time=0
EXTRACT: note_on channel=1 note=30 velocity=0 time=0.19410573958333333
EXTRACT: note_on channel=1 note=42 velocity=0 time=0
EXTRACT: note_on channel=1 note=58 velocity=0 time=0.036585374999999996
EXTRACT: note_on channel=1 note=65 velocity=0 time=0
EXTRACT: note_on channel=1 note=61 velocity=80 time=0.013211385416666666
EXTRACT: note_on channel=1 note=66 velocity=80 time=0
EXTRACT: note_on channel=1 note=30 velocity=80 time=0
EXTRACT: note_on channel=1 note=42 velocity=80 time=0
EXTRACT: note_on channel=1 note=61 velocity=0 time=0.23069111458333333
EXTRACT: note_on channel=1 note=66 velocity=0 time=0
EXTRACT: note_on channel=1 note=58 velocity=80 time=0.013211385416666666
EXTRACT: note_on channel=1 note=65 velocity=80 time=0
EXTRACT: note_on channel=1 note=58 velocity=0 time=0.23069111458333333
EXTRACT: note_on channel=1 note=65 velocity=0 time=0
EXTRACT: note_on channel=0 note=85 velocity=96 time=0.013211385416666666
EXTRACT: note_on channel=1 note=61 velocity=80 time=0
EXTRACT: note_on channel=1 note=66 velocity=80 time=0
EXTRACT: note_on channel=0 note=85 velocity=0 time=0.23069111458333333
EXTRACT: note_on channel=1 note=61 velocity=0 time=0
EXTRACT: note_on channel=1 note=66 velocity=0 time=0
EXTRACT: note_on channel=0 note=85 velocity=96 time=0.013211385416666666
EXTRACT: note_on channel=1 note=58 velocity=80 time=0
EXTRACT: note_on channel=1 note=65 velocity=80 time=0
EXTRACT: note_on channel=1 note=30 velocity=0 time=0.19410573958333333
EXTRACT: note_on channel=1 note=42 velocity=0 time=0
EXTRACT: note_on channel=0 note=85 velocity=0 time=0.036585374999999996
EXTRACT: note_on channel=1 note=58 velocity=0 time=0
EXTRACT: note_on channel=1 note=65 velocity=0 time=0
EXTRACT: note_on channel=0 note=85 velocity=96 time=0.013211385416666666
EXTRACT: note_on channel=1 note=61 velocity=80 time=0
EXTRACT: note_on channel=1 note=70 velocity=80 time=0
EXTRACT: note_on channel=1 note=34 velocity=80 time=0
EXTRACT: note_on channel=1 note=46 velocity=80 time=0
EXTRACT: control_change channel=1 control=64 value=0 time=0.0010162604166666666
EXTRACT: control_change channel=1 control=64 value=127 time=0.0010162604166666666
EXTRACT: note_on channel=0 note=85 velocity=0 time=0.22865859375
EXTRACT: note_on channel=1 note=61 velocity=0 time=0
EXTRACT: note_on channel=1 note=70 velocity=0 time=0
EXTRACT: note_on channel=0 note=87 velocity=96 time=0.013211385416666666
EXTRACT: note_on channel=1 note=58 velocity=80 time=0
EXTRACT: note_on channel=1 note=65 velocity=80 time=0
EXTRACT: note_on channel=0 note=87 velocity=0 time=0.23069111458333333
EXTRACT: note_on channel=1 note=58 velocity=0 time=0
EXTRACT: note_on channel=1 note=65 velocity=0 time=0
EXTRACT: note_on channel=0 note=85 velocity=96 time=0.013211385416666666
EXTRACT: note_on channel=1 note=61 velocity=80 time=0
EXTRACT: note_on channel=1 note=70 velocity=80 time=0
EXTRACT: note_on channel=0 note=85 velocity=0 time=0.23069111458333333
EXTRACT: note_on channel=1 note=61 velocity=0 time=0
EXTRACT: note_on channel=1 note=70 velocity=0 time=0
EXTRACT: note_on channel=0 note=85 velocity=96 time=0.013211385416666666
EXTRACT: note_on channel=1 note=58 velocity=80 time=0
EXTRACT: note_on channel=1 note=65 velocity=80 time=0
EXTRACT: note_on channel=1 note=34 velocity=0 time=0.19410573958333333
EXTRACT: note_on channel=1 note=46 velocity=0 time=0
EXTRACT: note_on channel=0 note=85 velocity=0 time=0.036585374999999996
EXTRACT: note_on channel=1 note=58 velocity=0 time=0
EXTRACT: note_on channel=1 note=65 velocity=0 time=0
EXTRACT: note_on channel=0 note=84 velocity=96 time=0.013211385416666666
EXTRACT: note_on channel=1 note=61 velocity=80 time=0
EXTRACT: note_on channel=1 note=70 velocity=80 time=0
EXTRACT: note_on channel=1 note=34 velocity=80 time=0
EXTRACT: note_on channel=1 note=46 velocity=80 time=0
EXTRACT: note_on channel=0 note=84 velocity=0 time=0.23069111458333333
EXTRACT: note_on channel=1 note=61 velocity=0 time=0
EXTRACT: note_on channel=1 note=70 velocity=0 time=0
EXTRACT: note_on channel=0 note=84 velocity=96 time=0.013211385416666666
EXTRACT: note_on channel=1 note=58 velocity=80 time=0
EXTRACT: note_on channel=1 note=65 velocity=80 time=0
EXTRACT: note_on channel=0 note=84 velocity=0 time=0.23069111458333333
EXTRACT: note_on channel=1 note=58 velocity=0 time=0
EXTRACT: note_on channel=1 note=65 velocity=0 time=0
EXTRACT: note_on channel=0 note=84 velocity=96 time=0.013211385416666666
EXTRACT: note_on channel=1 note=61 velocity=80 time=0
EXTRACT: note_on channel=1 note=70 velocity=80 time=0
EXTRACT: note_on channel=0 note=84 velocity=0 time=0.23069111458333333
EXTRACT: note_on channel=1 note=61 velocity=0 time=0
EXTRACT: note_on channel=1 note=70 velocity=0 time=0
EXTRACT: note_on channel=0 note=85 velocity=96 time=0.013211385416666666
EXTRACT: note_on channel=1 note=58 velocity=80 time=0
EXTRACT: note_on channel=1 note=65 velocity=80 time=0
EXTRACT: note_on channel=1 note=34 velocity=0 time=0.19410573958333333
EXTRACT: note_on channel=1 note=46 velocity=0 time=0
EXTRACT: note_on channel=1 note=58 velocity=0 time=0.036585374999999996
EXTRACT: note_on channel=1 note=65 velocity=0 time=0
EXTRACT: note_on channel=1 note=61 velocity=80 time=0.013211385416666666
EXTRACT: note_on channel=1 note=68 velocity=80 time=0
EXTRACT: note_on channel=1 note=32 velocity=80 time=0
EXTRACT: note_on channel=1 note=44 velocity=80 time=0
EXTRACT: control_change channel=1 control=64 value=0 time=0.0010162604166666666
EXTRACT: control_change channel=1 control=64 value=127 time=0.0010162604166666666
EXTRACT: note_on channel=0 note=85 velocity=0 time=0.21646346875
EXTRACT: note_on channel=1 note=61 velocity=0 time=0.012195125
EXTRACT: note_on channel=1 note=68 velocity=0 time=0
EXTRACT: note_on channel=0 note=80 velocity=96 time=0.013211385416666666
EXTRACT: note_on channel=1 note=56 velocity=80 time=0
EXTRACT: note_on channel=1 note=65 velocity=80 time=0
EXTRACT: note_on channel=1 note=56 velocity=0 time=0.23069111458333333
EXTRACT: note_on channel=1 note=65 velocity=0 time=0
EXTRACT: note_on channel=1 note=61 velocity=80 time=0.013211385416666666
EXTRACT: note_on channel=1 note=68 velocity=80 time=0
EXTRACT: note_on channel=0 note=80 velocity=0 time=0.21849598958333333
EXTRACT: note_on channel=1 note=61 velocity=0 time=0.012195125
EXTRACT: note_on channel=1 note=68 velocity=0 time=0
EXTRACT: note_on channel=1 note=56 velocity=80 time=0.013211385416666666
EXTRACT: note_on channel=1 note=65 velocity=80 time=0
EXTRACT: note_on channel=1 note=32 velocity=0 time=0.19410573958333333
EXTRACT: note_on channel=1 note=44 velocity=0 time=0
EXTRACT: note_on channel=1 note=56 velocity=0 time=0.036585374999999996
EXTRACT: note_on channel=1 note=65 velocity=0 time=0
EXTRACT: note_on channel=1 note=61 velocity=80 time=0.013211385416666666
EXTRACT: note_on channel=1 note=68 velocity=80 time=0
EXTRACT: note_on channel=1 note=32 velocity=80 time=0
EXTRACT: note_on channel=1 note=44 velocity=80 time=0
EXTRACT: note_on channel=1 note=61 velocity=0 time=0.23069111458333333
EXTRACT: note_on channel=1 note=68 velocity=0 time=0
EXTRACT: note_on channel=1 note=56 velocity=80 time=0.013211385416666666
EXTRACT: note_on channel=1 note=65 velocity=80 time=0
EXTRACT: note_on channel=1 note=56 velocity=0 time=0.23069111458333333
EXTRACT: note_on channel=1 note=65 velocity=0 time=0
EXTRACT: note_on channel=0 note=77 velocity=96 time=0.013211385416666666
EXTRACT: note_on channel=1 note=61 velocity=80 time=0
EXTRACT: note_on channel=1 note=68 velocity=80 time=0
EXTRACT: note_on channel=0 note=77 velocity=0 time=0.23069111458333333
EXTRACT: note_on channel=1 note=61 velocity=0 time=0
EXTRACT: note_on channel=1 note=68 velocity=0 time=0
EXTRACT: note_on channel=0 note=77 velocity=96 time=0.013211385416666666
EXTRACT: note_on channel=1 note=56 velocity=80 time=0
EXTRACT: note_on channel=1 note=65 velocity=80 time=0
EXTRACT: note_on channel=1 note=32 velocity=0 time=0.19410573958333333
EXTRACT: note_on channel=1 note=44 velocity=0 time=0
EXTRACT: note_on channel=1 note=56 velocity=0 time=0.036585374999999996
EXTRACT: note_on channel=1 note=65 velocity=0 time=0
EXTRACT: note_on channel=1 note=61 velocity=80 time=0.013211385416666666
EXTRACT: note_on channel=1 note=68 velocity=80 time=0
EXTRACT: note_on channel=1 note=29 velocity=80 time=0
EXTRACT: note_on channel=1 note=41 velocity=80 time=0
EXTRACT: control_change channel=1 control=64 value=0 time=0.0010162604166666666
EXTRACT: control_change channel=1 control=64 value=127 time=0.0010162604166666666
EXTRACT: note_on channel=1 note=61 velocity=0 time=0.22865859375
EXTRACT: note_on channel=1 note=68 velocity=0 time=0
EXTRACT: note_on channel=1 note=56 velocity=80 time=0.013211385416666666
EXTRACT: note_on channel=1 note=65 velocity=80 time=0
EXTRACT: note_on channel=0 note=77 velocity=0 time=0.20630086458333333
EXTRACT: note_on channel=1 note=56 velocity=0 time=0.02439025
EXTRACT: note_on channel=1 note=65 velocity=0 time=0
EXTRACT: note_on channel=0 note=78 velocity=96 time=0.013211385416666666
EXTRACT: note_on channel=1 note=61 velocity=80 time=0
EXTRACT: note_on channel=1 note=68 velocity=80 time=0
EXTRACT: note_on channel=0 note=78 velocity=0 time=0.23069111458333333
EXTRACT: note_on channel=1 note=61 velocity=0 time=0
EXTRACT: note_on channel=1 note=68 velocity=0 time=0
EXTRACT: note_on channel=0 note=77 velocity=96 time=0.013211385416666666
EXTRACT: note_on channel=1 note=56 velocity=80 time=0
EXTRACT: note_on channel=1 note=65 velocity=80 time=0
EXTRACT: note_on channel=1 note=29 velocity=0 time=0.19410573958333333
EXTRACT: note_on channel=1 note=41 velocity=0 time=0
EXTRACT: note_on channel=0 note=77 velocity=0 time=0.036585374999999996
EXTRACT: note_on channel=1 note=56 velocity=0 time=0
EXTRACT: note_on channel=1 note=65 velocity=0 time=0
EXTRACT: note_on channel=0 note=78 velocity=96 time=0.013211385416666666
EXTRACT: note_on channel=1 note=61 velocity=80 time=0
EXTRACT: note_on channel=1 note=68 velocity=80 time=0
EXTRACT: note_on channel=1 note=29 velocity=80 time=0
EXTRACT: note_on channel=1 note=41 velocity=80 time=0
EXTRACT: note_on channel=1 note=61 velocity=0 time=0.23069111458333333
EXTRACT: note_on channel=1 note=68 velocity=0 time=0
EXTRACT: note_on channel=1 note=56 velocity=80 time=0.013211385416666666
EXTRACT: note_on channel=1 note=65 velocity=80 time=0
EXTRACT: note_on channel=0 note=78 velocity=0 time=0.10264230208333333
EXTRACT: note_on channel=0 note=78 velocity=96 time=0.019308947916666666
EXTRACT: note_on channel=1 note=56 velocity=0 time=0.10873986458333333
EXTRACT: note_on channel=1 note=65 velocity=0 time=0
EXTRACT: note_on channel=1 note=61 velocity=80 time=0.013211385416666666
EXTRACT: note_on channel=1 note=68 velocity=80 time=0
EXTRACT: note_on channel=0 note=78 velocity=0 time=0.22459355208333331
EXTRACT: note_on channel=1 note=61 velocity=0 time=0.0060975625
EXTRACT: note_on channel=1 note=68 velocity=0 time=0
EXTRACT: note_on channel=0 note=80 velocity=96 time=0.013211385416666666
EXTRACT: note_on channel=1 note=56 velocity=80 time=0
EXTRACT: note_on channel=1 note=65 velocity=80 time=0
EXTRACT: note_on channel=1 note=29 velocity=0 time=0.19410573958333333
EXTRACT: note_on channel=1 note=41 velocity=0 time=0
EXTRACT: note_on channel=1 note=56 velocity=0 time=0.036585374999999996
EXTRACT: note_on channel=1 note=65 velocity=0 time=0
EXTRACT: note_on channel=1 note=61 velocity=80 time=0.013211385416666666
EXTRACT: note_on channel=1 note=66 velocity=80 time=0
EXTRACT: note_on channel=1 note=30 velocity=80 time=0
EXTRACT: note_on channel=1 note=42 velocity=80 time=0
EXTRACT: control_change channel=1 control=64 value=0 time=0.0010162604166666666
EXTRACT: control_change channel=1 control=64 value=127 time=0.0010162604166666666
EXTRACT: note_on channel=0 note=80 velocity=0 time=0.21646346875
EXTRACT: note_on channel=1 note=61 velocity=0 time=0.012195125
EXTRACT: note_on channel=1 note=66 velocity=0 time=0
EXTRACT: note_on channel=0 note=77 velocity=96 time=0.013211385416666666
EXTRACT: note_on channel=1 note=58 velocity=80 time=0
EXTRACT: note_on channel=1 note=65 velocity=80 time=0
EXTRACT: note_on channel=1 note=58 velocity=0 time=0.23069111458333333
EXTRACT: note_on channel=1 note=65 velocity=0 time=0
EXTRACT: note_on channel=1 note=61 velocity=80 time=0.013211385416666666
EXTRACT: note_on channel=1 note=66 velocity=80 time=0
EXTRACT: note_on channel=0 note=77 velocity=0 time=0.21849598958333333
EXTRACT: note_on channel=1 note=61 velocity=0 time=0.012195125
EXTRACT: note_on channel=1 note=66 velocity=0 time=0
EXTRACT: note_on channel=1 note=58 velocity=80 time=0.013211385416666666
EXTRACT: note_on channel=1 note=65 velocity=80 time=0
EXTRACT: note_on channel=1 note=30 velocity=0 time=0.19410573958333333
EXTRACT: note_on channel=1 note=42 velocity=0 time=0
EXTRACT: note_on channel=1 note=58 velocity=0 time=0.036585374999999996
EXTRACT: note_on channel=1 note=65 velocity=0 time=0
EXTRACT: note_on channel=1 note=61 velocity=80 time=0.013211385416666666
EXTRACT: note_on channel=1 note=66 velocity=80 time=0
EXTRACT: note_on channel=1 note=30 velocity=80 time=0
EXTRACT: note_on channel=1 note=42 velocity=80 time=0
EXTRACT: note_on channel=1 note=61 velocity=0 time=0.23069111458333333
EXTRACT: note_on channel=1 note=66 velocity=0 time=0
EXTRACT: note_on channel=1 note=58 velocity=80 time=0.013211385416666666
EXTRACT: note_on channel=1 note=65 velocity=80 time=0
EXTRACT: note_on channel=1 note=58 velocity=0 time=0.23069111458333333
EXTRACT: note_on channel=1 note=65 velocity=0 time=0
EXTRACT: note_on channel=1 note=61 velocity=80 time=0.013211385416666666
EXTRACT: note_on channel=1 note=66 velocity=80 time=0
EXTRACT: note_on channel=1 note=61 velocity=0 time=0.23069111458333333
EXTRACT: note_on channel=1 note=66 velocity=0 time=0
EXTRACT: note_on channel=1 note=58 velocity=80 time=0.013211385416666666
EXTRACT: note_on channel=1 note=65 velocity=80 time=0
EXTRACT: note_on channel=1 note=30 velocity=0 time=0.19410573958333333
EXTRACT: note_on channel=1 note=42 velocity=0 time=0
EXTRACT: note_on channel=1 note=58 velocity=0 time=0.036585374999999996
EXTRACT: note_on channel=1 note=65 velocity=0 time=0
EXTRACT: note_on channel=0 note=85 velocity=96 time=0.013211385416666666
EXTRACT: note_on channel=1 note=61 velocity=80 time=0
EXTRACT: note_on channel=1 note=70 velocity=80 time=0
EXTRACT: note_on channel=1 note=34 velocity=80 time=0
EXTRACT: note_on channel=1 note=46 velocity=80 time=0
EXTRACT: control_change channel=1 control=64 value=0 time=0.0010162604166666666
EXTRACT: control_change channel=1 control=64 value=127 time=0.0010162604166666666
EXTRACT: note_on channel=1 note=61 velocity=0 time=0.22865859375
EXTRACT: note_on channel=1 note=70 velocity=0 time=0
EXTRACT: note_on channel=1 note=58 velocity=80 time=0.013211385416666666
EXTRACT: note_on channel=1 note=65 velocity=80 time=0
EXTRACT: note_on channel=0 note=85 velocity=0 time=0.10264230208333333
EXTRACT: note_on channel=0 note=87 velocity=96 time=0.019308947916666666
EXTRACT: note_on channel=1 note=58 velocity=0 time=0.10873986458333333
EXTRACT: note_on channel=1 note=65 velocity=0 time=0
EXTRACT: note_on channel=1 note=61 velocity=80 time=0.013211385416666666
EXTRACT: note_on channel=1 note=70 velocity=80 time=0
EXTRACT: note_on channel=0 note=87 velocity=0 time=0.22459355208333331
EXTRACT: note_on channel=1 note=61 velocity=0 time=0.0060975625
EXTRACT: note_on channel=1 note=70 velocity=0 time=0
EXTRACT: note_on channel=0 note=84 velocity=96 time=0.013211385416666666
EXTRACT: note_on channel=1 note=58 velocity=80 time=0
EXTRACT: note_on channel=1 note=65 velocity=80 time=0
EXTRACT: note_on channel=1 note=34 velocity=0 time=0.19410573958333333
EXTRACT: note_on channel=1 note=46 velocity=0 time=0
EXTRACT: note_on channel=1 note=58 velocity=0 time=0.036585374999999996
EXTRACT: note_on channel=1 note=65 velocity=0 time=0
EXTRACT: note_on channel=1 note=61 velocity=80 time=0.013211385416666666
EXTRACT: note_on channel=1 note=70 velocity=80 time=0
EXTRACT: note_on channel=1 note=34 velocity=80 time=0
EXTRACT: note_on channel=1 note=46 velocity=80 time=0
EXTRACT: note_on channel=0 note=84 velocity=0 time=0.10264230208333333
EXTRACT: note_on channel=0 note=84 velocity=96 time=0.019308947916666666
EXTRACT: note_on channel=1 note=61 velocity=0 time=0.10873986458333333
EXTRACT: note_on channel=1 note=70 velocity=0 time=0
EXTRACT: note_on channel=1 note=58 velocity=80 time=0.013211385416666666
EXTRACT: note_on channel=1 note=65 velocity=80 time=0
EXTRACT: note_on channel=0 note=84 velocity=0 time=0.22459355208333331
EXTRACT: note_on channel=1 note=58 velocity=0 time=0.0060975625
EXTRACT: note_on channel=1 note=65 velocity=0 time=0
EXTRACT: note_on channel=0 note=84 velocity=96 time=0.013211385416666666
EXTRACT: note_on channel=1 note=61 velocity=80 time=0
EXTRACT: note_on channel=1 note=70 velocity=80 time=0
EXTRACT: note_on channel=1 note=61 velocity=0 time=0.23069111458333333
EXTRACT: note_on channel=1 note=70 velocity=0 time=0
EXTRACT: note_on channel=1 note=58 velocity=80 time=0.013211385416666666
EXTRACT: note_on channel=1 note=65 velocity=80 time=0
EXTRACT: note_on channel=0 note=84 velocity=0 time=0.10264230208333333
EXTRACT: note_on channel=0 note=85 velocity=96 time=0.019308947916666666
EXTRACT: note_on channel=1 note=34 velocity=0 time=0.07215448958333333
EXTRACT: note_on channel=1 note=46 velocity=0 time=0
EXTRACT: note_on channel=1 note=58 velocity=0 time=0.036585374999999996
EXTRACT: note_on channel=1 note=65 velocity=0 time=0
EXTRACT: note_on channel=1 note=61 velocity=80 time=0.013211385416666666
EXTRACT: note_on channel=1 note=68 velocity=80 time=0
EXTRACT: note_on channel=1 note=32 velocity=80 time=0
EXTRACT: note_on channel=1 note=44 velocity=80 time=0
EXTRACT: control_change channel=1 control=64 value=0 time=0.0010162604166666666
EXTRACT: control_change channel=1 control=64 value=127 time=0.0010162604166666666
EXTRACT: note_on channel=0 note=85 velocity=0 time=0.22256103124999999
EXTRACT: note_on channel=1 note=61 velocity=0 time=0.0060975625
EXTRACT: note_on channel=1 note=68 velocity=0 time=0
EXTRACT: note_on channel=0 note=80 velocity=96 time=0.013211385416666666
EXTRACT: note_on channel=1 note=56 velocity=80 time=0
EXTRACT: note_on channel=1 note=65 velocity=80 time=0
EXTRACT: note_on channel=1 note=56 velocity=0 time=0.23069111458333333
EXTRACT: note_on channel=1 note=65 velocity=0 time=0
EXTRACT: note_on channel=1 note=61 velocity=80 time=0.013211385416666666
EXTRACT: note_on channel=1 note=68 velocity=80 time=0
EXTRACT: note_on channel=0 note=80 velocity=0 time=0.10264230208333333
EXTRACT: note_on channel=1 note=61 velocity=0 time=0.1280488125
EXTRACT: note_on channel=1 note=68 velocity=0 time=0
EXTRACT: note_on channel=1 note=56 velocity=80 time=0.013211385416666666
EXTRACT: note_on channel=1 note=65 velocity=80 time=0
EXTRACT: note_on channel=1 note=32 velocity=0 time=0.19410573958333333
EXTRACT: note_on channel=1 note=44 velocity=0 time=0
EXTRACT: note_on channel=1 note=56 velocity=0 time=0.036585374999999996
EXTRACT: note_on channel=1 note=65 velocity=0 time=0
EXTRACT: note_on channel=1 note=61 velocity=80 time=0.013211385416666666
EXTRACT: note_on channel=1 note=68 velocity=80 time=0
EXTRACT: note_on channel=1 note=32 velocity=80 time=0
EXTRACT: note_on channel=1 note=44 velocity=80 time=0
EXTRACT: note_on channel=1 note=61 velocity=0 time=0.23069111458333333
EXTRACT: note_on channel=1 note=68 velocity=0 time=0
EXTRACT: note_on channel=0 note=77 velocity=96 time=0.013211385416666666
EXTRACT: note_on channel=1 note=56 velocity=80 time=0
EXTRACT: note_on channel=1 note=65 velocity=80 time=0
EXTRACT: note_on channel=1 note=56 velocity=0 time=0.23069111458333333
EXTRACT: note_on channel=1 note=65 velocity=0 time=0
EXTRACT: note_on channel=1 note=61 velocity=80 time=0.013211385416666666
EXTRACT: note_on channel=1 note=68 velocity=80 time=0
EXTRACT: note_on channel=1 note=61 velocity=0 time=0.23069111458333333
EXTRACT: note_on channel=1 note=68 velocity=0 time=0
EXTRACT: note_on channel=1 note=56 velocity=80 time=0.013211385416666666
EXTRACT: note_on channel=1 note=65 velocity=80 time=0
EXTRACT: note_on channel=1 note=32 velocity=0 time=0.19410573958333333
EXTRACT: note_on channel=1 note=44 velocity=0 time=0
EXTRACT: note_on channel=1 note=56 velocity=0 time=0.036585374999999996
EXTRACT: note_on channel=1 note=65 velocity=0 time=0
EXTRACT: note_on channel=1 note=61 velocity=80 time=0.013211385416666666
EXTRACT: note_on channel=1 note=68 velocity=80 time=0
EXTRACT: note_on channel=1 note=29 velocity=80 time=0
EXTRACT: note_on channel=1 note=41 velocity=80 time=0
EXTRACT: control_change channel=1 control=64 value=0 time=0.0010162604166666666
EXTRACT: control_change channel=1 control=64 value=127 time=0.0010162604166666666
EXTRACT: note_on channel=0 note=77 velocity=0 time=0.19207321875
EXTRACT: note_on channel=1 note=61 velocity=0 time=0.036585374999999996
EXTRACT: note_on channel=1 note=68 velocity=0 time=0
EXTRACT: note_on channel=0 note=77 velocity=96 time=0.013211385416666666
EXTRACT: note_on channel=1 note=56 velocity=80 time=0
EXTRACT: note_on channel=1 note=65 velocity=80 time=0
EXTRACT: note_on channel=1 note=56 velocity=0 time=0.23069111458333333
EXTRACT: note_on channel=1 note=65 velocity=0 time=0
EXTRACT: note_on channel=1 note=61 velocity=80 time=0.013211385416666666
EXTRACT: note_on channel=1 note=68 velocity=80 time=0
EXTRACT: note_on channel=0 note=77 velocity=0 time=0.21849598958333333
EXTRACT: note_on channel=1 note=61 velocity=0 time=0.012195125
EXTRACT: note_on channel=1 note=68 velocity=0 time=0
EXTRACT: note_on channel=0 note=77 velocity=96 time=0.013211385416666666
EXTRACT: note_on channel=1 note=56 velocity=80 time=0
EXTRACT: note_on channel=1 note=65 velocity=80 time=0
EXTRACT: note_on channel=1 note=29 velocity=0 time=0.19410573958333333
EXTRACT: note_on channel=1 note=41 velocity=0 time=0
EXTRACT: note_on channel=1 note=56 velocity=0 time=0.036585374999999996
EXTRACT: note_on channel=1 note=65 velocity=0 time=0
EXTRACT: note_on channel=1 note=61 velocity=80 time=0.013211385416666666
EXTRACT: note_on channel=1 note=68 velocity=80 time=0
EXTRACT: note_on channel=1 note=29 velocity=80 time=0
EXTRACT: note_on channel=1 note=41 velocity=80 time=0
EXTRACT: note_on channel=1 note=61 velocity=0 time=0.23069111458333333
EXTRACT: note_on channel=1 note=68 velocity=0 time=0
EXTRACT: note_on channel=1 note=56 velocity=80 time=0.013211385416666666
EXTRACT: note_on channel=1 note=65 velocity=80 time=0
EXTRACT: note_on channel=0 note=77 velocity=0 time=0.20630086458333333
EXTRACT: note_on channel=1 note=56 velocity=0 time=0.02439025
EXTRACT: note_on channel=1 note=65 velocity=0 time=0
EXTRACT: note_on channel=0 note=77 velocity=96 time=0.013211385416666666
EXTRACT: note_on channel=1 note=61 velocity=80 time=0
EXTRACT: note_on channel=1 note=68 velocity=80 time=0
EXTRACT: note_on channel=0 note=77 velocity=0 time=0.23069111458333333
EXTRACT: note_on channel=1 note=61 velocity=0 time=0
EXTRACT: note_on channel=1 note=68 velocity=0 time=0
EXTRACT: note_on channel=0 note=80 velocity=96 time=0.013211385416666666
EXTRACT: note_on channel=1 note=56 velocity=80 time=0
EXTRACT: note_on channel=1 note=65 velocity=80 time=0
EXTRACT: note_on channel=1 note=29 velocity=0 time=0.19410573958333333
EXTRACT: note_on channel=1 note=41 velocity=0 time=0
EXTRACT: note_on channel=0 note=80 velocity=0 time=0.036585374999999996
EXTRACT: note_on channel=1 note=56 velocity=0 time=0
EXTRACT: note_on channel=1 note=65 velocity=0 time=0
EXTRACT: note_on channel=0 note=78 velocity=96 time=0.013211385416666666
EXTRACT: note_on channel=1 note=61 velocity=80 time=0
EXTRACT: note_on channel=1 note=66 velocity=80 time=0
EXTRACT: note_on channel=1 note=30 velocity=80 time=0
EXTRACT: note_on channel=1 note=42 velocity=80 time=0
EXTRACT: control_change channel=1 control=64 value=0 time=0.0010162604166666666
EXTRACT: note_on channel=0 note=78 velocity=0 time=0.22967485416666666
EXTRACT: note_on channel=0 note=78 velocity=96 time=0.013211385416666666
EXTRACT: note_on channel=0 note=78 velocity=0 time=0.9258132395833333
EXTRACT: note_on channel=0 note=77 velocity=96 time=2.2449192604166663
EXTRACT: note_on channel=0 note=77 velocity=0 time=0.23069111458333333
EXTRACT: note_on channel=0 note=77 velocity=96 time=0.013211385416666666
EXTRACT: note_on channel=1 note=61 velocity=0 time=0.04776423958333333
EXTRACT: note_on channel=1 note=66 velocity=0 time=0
EXTRACT: note_on channel=1 note=30 velocity=0 time=0
EXTRACT: note_on channel=1 note=42 velocity=0 time=0
EXTRACT: note_on channel=0 note=77 velocity=0 time=0.182926875
EXTRACT: note_on channel=0 note=75 velocity=96 time=0.013211385416666666
EXTRACT: note_on channel=1 note=61 velocity=80 time=0
EXTRACT: note_on channel=1 note=70 velocity=80 time=0
EXTRACT: note_on channel=1 note=34 velocity=80 time=0
EXTRACT: note_on channel=1 note=46 velocity=80 time=0
EXTRACT: control_change channel=1 control=64 value=127 time=0.0020325208333333332
EXTRACT: note_on channel=1 note=61 velocity=0 time=0.22865859375
EXTRACT: note_on channel=1 note=70 velocity=0 time=0
EXTRACT: note_on channel=1 note=58 velocity=80 time=0.013211385416666666
EXTRACT: note_on channel=1 note=65 velocity=80 time=0
EXTRACT: note_on channel=0 note=75 velocity=0 time=0.21849598958333333
EXTRACT: note_on channel=1 note=58 velocity=0 time=0.012195125
EXTRACT: note_on channel=1 note=65 velocity=0 time=0
EXTRACT: note_on channel=0 note=77 velocity=96 time=0.013211385416666666
EXTRACT: note_on channel=1 note=61 velocity=80 time=0
EXTRACT: note_on channel=1 note=70 velocity=80 time=0
EXTRACT: note_on channel=1 note=61 velocity=0 time=0.23069111458333333
EXTRACT: note_on channel=1 note=70 velocity=0 time=0
EXTRACT: note_on channel=1 note=58 velocity=80 time=0.013211385416666666
EXTRACT: note_on channel=1 note=65 velocity=80 time=0
EXTRACT: note_on channel=1 note=34 velocity=0 time=0.19410573958333333
EXTRACT: note_on channel=1 note=46 velocity=0 time=0
EXTRACT: note_on channel=1 note=58 velocity=0 time=0.036585374999999996
EXTRACT: note_on channel=1 note=65 velocity=0 time=0
EXTRACT: note_on channel=1 note=61 velocity=80 time=0.013211385416666666
EXTRACT: note_on channel=1 note=70 velocity=80 time=0
EXTRACT: note_on channel=1 note=34 velocity=80 time=0
EXTRACT: note_on channel=1 note=46 velocity=80 time=0
EXTRACT: note_on channel=1 note=61 velocity=0 time=0.23069111458333333
EXTRACT: note_on channel=1 note=70 velocity=0 time=0
EXTRACT: note_on channel=1 note=58 velocity=80 time=0.013211385416666666
EXTRACT: note_on channel=1 note=65 velocity=80 time=0
EXTRACT: note_on channel=1 note=58 velocity=0 time=0.23069111458333333
EXTRACT: note_on channel=1 note=65 velocity=0 time=0
EXTRACT: note_on channel=1 note=61 velocity=80 time=0.013211385416666666
EXTRACT: note_on channel=1 note=70 velocity=80 time=0
EXTRACT: note_on channel=1 note=61 velocity=0 time=0.23069111458333333
EXTRACT: note_on channel=1 note=70 velocity=0 time=0
EXTRACT: note_on channel=1 note=58 velocity=80 time=0.013211385416666666
EXTRACT: note_on channel=1 note=65 velocity=80 time=0
EXTRACT: note_on channel=0 note=77 velocity=0 time=0.16971548958333332
EXTRACT: note_on channel=1 note=34 velocity=0 time=0.02439025
EXTRACT: note_on channel=1 note=46 velocity=0 time=0
EXTRACT: note_on channel=1 note=58 velocity=0 time=0.036585374999999996
EXTRACT: note_on channel=1 note=65 velocity=0 time=0
EXTRACT: note_on channel=1 note=61 velocity=80 time=0.013211385416666666
EXTRACT: note_on channel=1 note=68 velocity=80 time=0
EXTRACT: note_on channel=1 note=32 velocity=80 time=0
EXTRACT: note_on channel=1 note=44 velocity=80 time=0
EXTRACT: control_change channel=1 control=64 value=0 time=0.0010162604166666666
EXTRACT: control_change channel=1 control=64 value=127 time=0.0010162604166666666
EXTRACT: note_on channel=1 note=61 velocity=0 time=0.22865859375
EXTRACT: note_on channel=1 note=68 velocity=0 time=0
EXTRACT: note_on channel=1 note=56 velocity=80 time=0.013211385416666666
EXTRACT: note_on channel=1 note=65 velocity=80 time=0
EXTRACT: note_on channel=1 note=56 velocity=0 time=0.23069111458333333
EXTRACT: note_on channel=1 note=65 velocity=0 time=0
EXTRACT: note_on channel=0 note=80 velocity=96 time=0.013211385416666666
EXTRACT: note_on channel=1 note=61 velocity=80 time=0
EXTRACT: note_on channel=1 note=68 velocity=80 time=0
EXTRACT: note_on channel=1 note=61 velocity=0 time=0.23069111458333333
EXTRACT: note_on channel=1 note=68 velocity=0 time=0
EXTRACT: note_on channel=1 note=56 velocity=80 time=0.013211385416666666
EXTRACT: note_on channel=1 note=65 velocity=80 time=0
EXTRACT: note_on channel=1 note=32 velocity=0 time=0.19410573958333333
EXTRACT: note_on channel=1 note=44 velocity=0 time=0
EXTRACT: note_on channel=1 note=56 velocity=0 time=0.036585374999999996
EXTRACT: note_on channel=1 note=65 velocity=0 time=0
EXTRACT: note_on channel=1 note=61 velocity=80 time=0.013211385416666666
EXTRACT: note_on channel=1 note=68 velocity=80 time=0
EXTRACT: note_on channel=1 note=32 velocity=80 time=0
EXTRACT: note_on channel=1 note=44 velocity=80 time=0
EXTRACT: note_on channel=0 note=80 velocity=0 time=0.20630086458333333
EXTRACT: note_on channel=1 note=61 velocity=0 time=0.02439025
EXTRACT: note_on channel=1 note=68 velocity=0 time=0
EXTRACT: note_on channel=0 note=77 velocity=96 time=0.013211385416666666
EXTRACT: note_on channel=1 note=56 velocity=80 time=0
EXTRACT: note_on channel=1 note=65 velocity=80 time=0
EXTRACT: note_on channel=1 note=56 velocity=0 time=0.23069111458333333
EXTRACT: note_on channel=1 note=65 velocity=0 time=0
EXTRACT: note_on channel=1 note=61 velocity=80 time=0.013211385416666666
EXTRACT: note_on channel=1 note=68 velocity=80 time=0
EXTRACT: note_on channel=0 note=77 velocity=0 time=0.21849598958333333
EXTRACT: note_on channel=1 note=61 velocity=0 time=0.012195125
EXTRACT: note_on channel=1 note=68 velocity=0 time=0
EXTRACT: note_on channel=0 note=77 velocity=96 time=0.013211385416666666
EXTRACT: note_on channel=1 note=56 velocity=80 time=0
EXTRACT: note_on channel=1 note=65 velocity=80 time=0
EXTRACT: note_on channel=1 note=32 velocity=0 time=0.19410573958333333
EXTRACT: note_on channel=1 note=44 velocity=0 time=0
EXTRACT: note_on channel=1 note=56 velocity=0 time=0.036585374999999996
EXTRACT: note_on channel=1 note=65 velocity=0 time=0
EXTRACT: note_on channel=1 note=61 velocity=80 time=0.013211385416666666
EXTRACT: note_on channel=1 note=68 velocity=80 time=0
EXTRACT: note_on channel=1 note=29 velocity=80 time=0
EXTRACT: note_on channel=1 note=41 velocity=80 time=0
EXTRACT: control_change channel=1 control=64 value=0 time=0.0010162604166666666
EXTRACT: control_change channel=1 control=64 value=127 time=0.0010162604166666666
EXTRACT: note_on channel=0 note=77 velocity=0 time=0.21646346875
EXTRACT: note_on channel=1 note=61 velocity=0 time=0.012195125
EXTRACT: note_on channel=1 note=68 velocity=0 time=0
EXTRACT: note_on channel=0 note=75 velocity=96 time=0.013211385416666666
EXTRACT: note_on channel=1 note=56 velocity=80 time=0
EXTRACT: note_on channel=1 note=65 velocity=80 time=0
EXTRACT: note_on channel=1 note=56 velocity=0 time=0.23069111458333333
EXTRACT: note_on channel=1 note=65 velocity=0 time=0
EXTRACT: note_on channel=1 note=61 velocity=80 time=0.013211385416666666
EXTRACT: note_on channel=1 note=68 velocity=80 time=0
EXTRACT: note_on channel=1 note=61 velocity=0 time=0.23069111458333333
EXTRACT: note_on channel=1 note=68 velocity=0 time=0
EXTRACT: note_on channel=1 note=56 velocity=80 time=0.013211385416666666
EXTRACT: note_on channel=1 note=65 velocity=80 time=0
EXTRACT: note_on channel=1 note=29 velocity=0 time=0.19410573958333333
EXTRACT: note_on channel=1 note=41 velocity=0 time=0
EXTRACT: note_on channel=1 note=56 velocity=0 time=0.036585374999999996
EXTRACT: note_on channel=1 note=65 velocity=0 time=0
EXTRACT: note_on channel=1 note=61 velocity=80 time=0.013211385416666666
EXTRACT: note_on channel=1 note=68 velocity=80 time=0
EXTRACT: note_on channel=1 note=29 velocity=80 time=0
EXTRACT: note_on channel=1 note=41 velocity=80 time=0
EXTRACT: note_on channel=0 note=75 velocity=0 time=0.19410573958333333
EXTRACT: note_on channel=1 note=61 velocity=0 time=0.036585374999999996
EXTRACT: note_on channel=1 note=68 velocity=0 time=0
EXTRACT: note_on channel=0 note=73 velocity=96 time=0.013211385416666666
EXTRACT: note_on channel=1 note=56 velocity=80 time=0
EXTRACT: note_on channel=1 note=65 velocity=80 time=0
EXTRACT: note_on channel=0 note=73 velocity=0 time=0.23069111458333333
EXTRACT: note_on channel=1 note=56 velocity=0 time=0
EXTRACT: note_on channel=1 note=65 velocity=0 time=0
EXTRACT: note_on channel=0 note=73 velocity=96 time=0.013211385416666666
EXTRACT: note_on channel=1 note=61 velocity=80 time=0
EXTRACT: note_on channel=1 note=68 velocity=80 time=0
EXTRACT: note_on channel=1 note=61 velocity=0 time=0.23069111458333333
EXTRACT: note_on channel=1 note=68 velocity=0 time=0
EXTRACT: note_on channel=1 note=56 velocity=80 time=0.013211385416666666
EXTRACT: note_on channel=1 note=65 velocity=80 time=0
EXTRACT: note_on channel=1 note=29 velocity=0 time=0.19410573958333333
EXTRACT: note_on channel=1 note=41 velocity=0 time=0
EXTRACT: note_on channel=1 note=56 velocity=0 time=0.036585374999999996
EXTRACT: note_on channel=1 note=65 velocity=0 time=0
EXTRACT: note_on channel=1 note=61 velocity=80 time=0.013211385416666666
EXTRACT: note_on channel=1 note=66 velocity=80 time=0
EXTRACT: note_on channel=1 note=30 velocity=80 time=0
EXTRACT: note_on channel=1 note=42 velocity=80 time=0
EXTRACT: control_change channel=1 control=64 value=0 time=0.0010162604166666666
EXTRACT: control_change channel=1 control=64 value=127 time=0.0010162604166666666
EXTRACT: note_on channel=1 note=61 velocity=0 time=0.22865859375
EXTRACT: note_on channel=1 note=66 velocity=0 time=0
EXTRACT: note_on channel=1 note=58 velocity=80 time=0.013211385416666666
EXTRACT: note_on channel=1 note=65 velocity=80 time=0
EXTRACT: note_on channel=0 note=73 velocity=0 time=0.19410573958333333
EXTRACT: note_on channel=1 note=58 velocity=0 time=0.036585374999999996
EXTRACT: note_on channel=1 note=65 velocity=0 time=0
EXTRACT: note_on channel=0 note=70 velocity=96 time=0.013211385416666666
EXTRACT: note_on channel=1 note=61 velocity=80 time=0
EXTRACT: note_on channel=1 note=66 velocity=80 time=0
EXTRACT: note_on channel=1 note=61 velocity=0 time=0.23069111458333333
EXTRACT: note_on channel=1 note=66 velocity=0 time=0
EXTRACT: note_on channel=1 note=58 velocity=80 time=0.013211385416666666
EXTRACT: note_on channel=1 note=65 velocity=80 time=0
EXTRACT: note_on channel=1 note=30 velocity=0 time=0.19410573958333333
EXTRACT: note_on channel=1 note=42 velocity=0 time=0
EXTRACT: note_on channel=0 note=70 velocity=0 time=0.02439025
EXTRACT: note_on channel=1 note=58 velocity=0 time=0.012195125
EXTRACT: note_on channel=1 note=65 velocity=0 time=0
EXTRACT: note_on channel=1 note=61 velocity=80 time=0.013211385416666666
EXTRACT: note_on channel=1 note=66 velocity=80 time=0
EXTRACT: note_on channel=1 note=30 velocity=80 time=0
EXTRACT: note_on channel=1 note=42 velocity=80 time=0
EXTRACT: note_on channel=1 note=61 velocity=0 time=0.23069111458333333
EXTRACT: note_on channel=1 note=66 velocity=0 time=0
EXTRACT: note_on channel=1 note=58 velocity=80 time=0.013211385416666666
EXTRACT: note_on channel=1 note=65 velocity=80 time=0
EXTRACT: note_on channel=1 note=58 velocity=0 time=0.23069111458333333
EXTRACT: note_on channel=1 note=65 velocity=0 time=0
EXTRACT: note_on channel=0 note=77 velocity=96 time=0.013211385416666666
EXTRACT: note_on channel=1 note=61 velocity=80 time=0
EXTRACT: note_on channel=1 note=66 velocity=80 time=0
EXTRACT: note_on channel=0 note=77 velocity=0 time=0.23069111458333333
EXTRACT: note_on channel=1 note=61 velocity=0 time=0
EXTRACT: note_on channel=1 note=66 velocity=0 time=0
EXTRACT: note_on channel=0 note=77 velocity=96 time=0.013211385416666666
EXTRACT: note_on channel=1 note=58 velocity=80 time=0
EXTRACT: note_on channel=1 note=65 velocity=80 time=0
EXTRACT: note_on channel=1 note=30 velocity=0 time=0.19410573958333333
EXTRACT: note_on channel=1 note=42 velocity=0 time=0
EXTRACT: note_on channel=0 note=77 velocity=0 time=0.036585374999999996
EXTRACT: note_on channel=1 note=58 velocity=0 time=0
EXTRACT: note_on channel=1 note=65 velocity=0 time=0
EXTRACT: note_on channel=0 note=75 velocity=96 time=0.013211385416666666
EXTRACT: note_on channel=1 note=61 velocity=80 time=0
EXTRACT: note_on channel=1 note=70 velocity=80 time=0
EXTRACT: note_on channel=1 note=34 velocity=80 time=0
EXTRACT: note_on channel=1 note=46 velocity=80 time=0
EXTRACT: control_change channel=1 control=64 value=0 time=0.0010162604166666666
EXTRACT: control_change channel=1 control=64 value=127 time=0.0010162604166666666
EXTRACT: note_on channel=1 note=61 velocity=0 time=0.22865859375
EXTRACT: note_on channel=1 note=70 velocity=0 time=0
EXTRACT: note_on channel=1 note=58 velocity=80 time=0.013211385416666666
EXTRACT: note_on channel=1 note=65 velocity=80 time=0
EXTRACT: note_on channel=0 note=75 velocity=0 time=0.21849598958333333
EXTRACT: note_on channel=1 note=58 velocity=0 time=0.012195125
EXTRACT: note_on channel=1 note=65 velocity=0 time=0
EXTRACT: note_on channel=0 note=77 velocity=96 time=0.013211385416666666
EXTRACT: note_on channel=1 note=61 velocity=80 time=0
EXTRACT: note_on channel=1 note=70 velocity=80 time=0
EXTRACT: note_on channel=1 note=61 velocity=0 time=0.23069111458333333
EXTRACT: note_on channel=1 note=70 velocity=0 time=0
EXTRACT: note_on channel=1 note=58 velocity=80 time=0.013211385416666666
EXTRACT: note_on channel=1 note=65 velocity=80 time=0
EXTRACT: note_on channel=1 note=34 velocity=0 time=0.19410573958333333
EXTRACT: note_on channel=1 note=46 velocity=0 time=0
EXTRACT: note_on channel=1 note=58 velocity=0 time=0.036585374999999996
EXTRACT: note_on channel=1 note=65 velocity=0 time=0
EXTRACT: note_on channel=1 note=61 velocity=80 time=0.013211385416666666
EXTRACT: note_on channel=1 note=70 velocity=80 time=0
EXTRACT: note_on channel=1 note=34 velocity=80 time=0
EXTRACT: note_on channel=1 note=46 velocity=80 time=0
EXTRACT: note_on channel=1 note=61 velocity=0 time=0.23069111458333333
EXTRACT: note_on channel=1 note=70 velocity=0 time=0
EXTRACT: note_on channel=1 note=58 velocity=80 time=0.013211385416666666
EXTRACT: note_on channel=1 note=65 velocity=80 time=0
EXTRACT: note_on channel=1 note=58 velocity=0 time=0.23069111458333333
EXTRACT: note_on channel=1 note=65 velocity=0 time=0
EXTRACT: note_on channel=1 note=61 velocity=80 time=0.013211385416666666
EXTRACT: note_on channel=1 note=70 velocity=80 time=0
EXTRACT: note_on channel=1 note=61 velocity=0 time=0.23069111458333333
EXTRACT: note_on channel=1 note=70 velocity=0 time=0
EXTRACT: note_on channel=1 note=58 velocity=80 time=0.013211385416666666
EXTRACT: note_on channel=1 note=65 velocity=80 time=0
EXTRACT: note_on channel=0 note=77 velocity=0 time=0.16971548958333332
EXTRACT: note_on channel=1 note=34 velocity=0 time=0.02439025
EXTRACT: note_on channel=1 note=46 velocity=0 time=0
EXTRACT: note_on channel=1 note=58 velocity=0 time=0.036585374999999996
EXTRACT: note_on channel=1 note=65 velocity=0 time=0
EXTRACT: note_on channel=1 note=61 velocity=80 time=0.013211385416666666
EXTRACT: note_on channel=1 note=68 velocity=80 time=0
EXTRACT: note_on channel=1 note=32 velocity=80 time=0
EXTRACT: note_on channel=1 note=44 velocity=80 time=0
EXTRACT: control_change channel=1 control=64 value=0 time=0.0010162604166666666
EXTRACT: control_change channel=1 control=64 value=127 time=0.0010162604166666666
EXTRACT: note_on channel=1 note=61 velocity=0 time=0.22865859375
EXTRACT: note_on channel=1 note=68 velocity=0 time=0
EXTRACT: note_on channel=1 note=56 velocity=80 time=0.013211385416666666
EXTRACT: note_on channel=1 note=65 velocity=80 time=0
EXTRACT: note_on channel=1 note=56 velocity=0 time=0.23069111458333333
EXTRACT: note_on channel=1 note=65 velocity=0 time=0
EXTRACT: note_on channel=0 note=80 velocity=96 time=0.013211385416666666
EXTRACT: note_on channel=1 note=61 velocity=80 time=0
EXTRACT: note_on channel=1 note=68 velocity=80 time=0
EXTRACT: note_on channel=1 note=61 velocity=0 time=0.23069111458333333
EXTRACT: note_on channel=1 note=68 velocity=0 time=0
EXTRACT: note_on channel=1 note=56 velocity=80 time=0.013211385416666666
EXTRACT: note_on channel=1 note=65 velocity=80 time=0
EXTRACT: note_on channel=1 note=32 velocity=0 time=0.19410573958333333
EXTRACT: note_on channel=1 note=44 velocity=0 time=0
EXTRACT: note_on channel=1 note=56 velocity=0 time=0.036585374999999996
EXTRACT: note_on channel=1 note=65 velocity=0 time=0
EXTRACT: note_on channel=1 note=61 velocity=80 time=0.013211385416666666
EXTRACT: note_on channel=1 note=68 velocity=80 time=0
EXTRACT: note_on channel=1 note=32 velocity=80 time=0
EXTRACT: note_on channel=1 note=44 velocity=80 time=0
EXTRACT: note_on channel=1 note=61 velocity=0 time=0.23069111458333333
EXTRACT: note_on channel=1 note=68 velocity=0 time=0
EXTRACT: note_on channel=1 note=56 velocity=80 time=0.013211385416666666
EXTRACT: note_on channel=1 note=65 velocity=80 time=0
EXTRACT: note_on channel=1 note=56 velocity=0 time=0.23069111458333333
EXTRACT: note_on channel=1 note=65 velocity=0 time=0
EXTRACT: note_on channel=1 note=61 velocity=80 time=0.013211385416666666
EXTRACT: note_on channel=1 note=68 velocity=80 time=0
EXTRACT: note_on channel=0 note=80 velocity=0 time=0.18191061458333332
EXTRACT: note_on channel=1 note=61 velocity=0 time=0.0487805
EXTRACT: note_on channel=1 note=68 velocity=0 time=0
EXTRACT: note_on channel=0 note=82 velocity=96 time=0.013211385416666666
EXTRACT: note_on channel=1 note=56 velocity=80 time=0
EXTRACT: note_on channel=1 note=65 velocity=80 time=0
EXTRACT: note_on channel=1 note=32 velocity=0 time=0.19410573958333333
EXTRACT: note_on channel=1 note=44 velocity=0 time=0
EXTRACT: note_on channel=0 note=82 velocity=0 time=0.036585374999999996
EXTRACT: note_on channel=1 note=56 velocity=0 time=0
EXTRACT: note_on channel=1 note=65 velocity=0 time=0
EXTRACT: note_on channel=0 note=80 velocity=96 time=0.013211385416666666
EXTRACT: note_on channel=1 note=61 velocity=80 time=0
EXTRACT: note_on channel=1 note=68 velocity=80 time=0
EXTRACT: note_on channel=1 note=29 velocity=80 time=0
EXTRACT: note_on channel=1 note=41 velocity=80 time=0
EXTRACT: control_change channel=1 control=64 value=0 time=0.0010162604166666666
EXTRACT: control_change channel=1 control=64 value=127 time=0.0010162604166666666
EXTRACT: note_on channel=1 note=61 velocity=0 time=0.22865859375
EXTRACT: note_on channel=1 note=68 velocity=0 time=0
EXTRACT: note_on channel=1 note=56 velocity=80 time=0.013211385416666666
EXTRACT: note_on channel=1 note=65 velocity=80 time=0
EXTRACT: note_on channel=0 note=80 velocity=0 time=0.10264230208333333
EXTRACT: note_on channel=0 note=77 velocity=96 time=0.019308947916666666
EXTRACT: note_on channel=1 note=56 velocity=0 time=0.10873986458333333
EXTRACT: note_on channel=1 note=65 velocity=0 time=0
EXTRACT: note_on channel=1 note=61 velocity=80 time=0.013211385416666666
EXTRACT: note_on channel=1 note=68 velocity=80 time=0
EXTRACT: note_on channel=0 note=77 velocity=0 time=0.22459355208333331
EXTRACT: note_on channel=1 note=61 velocity=0 time=0.0060975625
EXTRACT: note_on channel=1 note=68 velocity=0 time=0
EXTRACT: note_on channel=0 note=75 velocity=96 time=0.013211385416666666
EXTRACT: note_on channel=1 note=56 velocity=80 time=0
EXTRACT: note_on channel=1 note=65 velocity=80 time=0
EXTRACT: note_on channel=1 note=29 velocity=0 time=0.19410573958333333
EXTRACT: note_on channel=1 note=41 velocity=0 time=0
EXTRACT: note_on channel=1 note=56 velocity=0 time=0.036585374999999996
EXTRACT: note_on channel=1 note=65 velocity=0 time=0
EXTRACT: note_on channel=1 note=61 velocity=80 time=0.013211385416666666
EXTRACT: note_on channel=1 note=68 velocity=80 time=0
EXTRACT: note_on channel=1 note=29 velocity=80 time=0
EXTRACT: note_on channel=1 note=41 velocity=80 time=0
EXTRACT: note_on channel=1 note=61 velocity=0 time=0.23069111458333333
EXTRACT: note_on channel=1 note=68 velocity=0 time=0
EXTRACT: note_on channel=1 note=56 velocity=80 time=0.013211385416666666
EXTRACT: note_on channel=1 note=65 velocity=80 time=0
EXTRACT: note_on channel=0 note=75 velocity=0 time=0.20630086458333333
EXTRACT: note_on channel=1 note=56 velocity=0 time=0.02439025
EXTRACT: note_on channel=1 note=65 velocity=0 time=0
EXTRACT: note_on channel=0 note=70 velocity=96 time=0.013211385416666666
EXTRACT: note_on channel=1 note=61 velocity=80 time=0
EXTRACT: note_on channel=1 note=68 velocity=80 time=0
EXTRACT: note_on channel=1 note=61 velocity=0 time=0.23069111458333333
EXTRACT: note_on channel=1 note=68 velocity=0 time=0
EXTRACT: note_on channel=1 note=56 velocity=80 time=0.013211385416666666
EXTRACT: note_on channel=1 note=65 velocity=80 time=0
EXTRACT: note_on channel=1 note=29 velocity=0 time=0.19410573958333333
EXTRACT: note_on channel=1 note=41 velocity=0 time=0
EXTRACT: note_on channel=1 note=56 velocity=0 time=0.036585374999999996
EXTRACT: note_on channel=1 note=65 velocity=0 time=0
EXTRACT: note_on channel=1 note=61 velocity=80 time=0.013211385416666666
EXTRACT: note_on channel=1 note=66 velocity=80 time=0
EXTRACT: note_on channel=1 note=30 velocity=80 time=0
EXTRACT: note_on channel=1 note=42 velocity=80 time=0
EXTRACT: control_change channel=1 control=64 value=0 time=0.0010162604166666666
EXTRACT: control_change channel=1 control=64 value=127 time=0.0010162604166666666
EXTRACT: note_on channel=1 note=61 velocity=0 time=0.22865859375
EXTRACT: note_on channel=1 note=66 velocity=0 time=0
EXTRACT: note_on channel=1 note=58 velocity=80 time=0.013211385416666666
EXTRACT: note_on channel=1 note=65 velocity=80 time=0
EXTRACT: note_on channel=1 note=58 velocity=0 time=0.23069111458333333
EXTRACT: note_on channel=1 note=65 velocity=0 time=0
EXTRACT: note_on channel=1 note=61 velocity=80 time=0.013211385416666666
EXTRACT: note_on channel=1 note=66 velocity=80 time=0
EXTRACT: note_on channel=1 note=61 velocity=0 time=0.23069111458333333
EXTRACT: note_on channel=1 note=66 velocity=0 time=0
EXTRACT: note_on channel=1 note=58 velocity=80 time=0.013211385416666666
EXTRACT: note_on channel=1 note=65 velocity=80 time=0
EXTRACT: note_on channel=0 note=70 velocity=0 time=0.16971548958333332
EXTRACT: note_on channel=1 note=30 velocity=0 time=0.02439025
EXTRACT: note_on channel=1 note=42 velocity=0 time=0
EXTRACT: note_on channel=1 note=58 velocity=0 time=0.036585374999999996
EXTRACT: note_on channel=1 note=65 velocity=0 time=0
EXTRACT: note_on channel=1 note=61 velocity=80 time=0.013211385416666666
EXTRACT: note_on channel=1 note=66 velocity=80 time=0
EXTRACT: note_on channel=1 note=30 velocity=80 time=0
EXTRACT: note_on channel=1 note=42 velocity=80 time=0
EXTRACT: note_on channel=1 note=61 velocity=0 time=0.23069111458333333
EXTRACT: note_on channel=1 note=66 velocity=0 time=0
EXTRACT: note_on channel=1 note=58 velocity=80 time=0.013211385416666666
EXTRACT: note_on channel=1 note=65 velocity=80 time=0
EXTRACT: note_on channel=1 note=58 velocity=0 time=0.23069111458333333
EXTRACT: note_on channel=1 note=65 velocity=0 time=0
EXTRACT: note_on channel=0 note=77 velocity=96 time=0.013211385416666666
EXTRACT: note_on channel=1 note=61 velocity=80 time=0
EXTRACT: note_on channel=1 note=66 velocity=80 time=0
EXTRACT: note_on channel=0 note=77 velocity=0 time=0.23069111458333333
EXTRACT: note_on channel=1 note=61 velocity=0 time=0
EXTRACT: note_on channel=1 note=66 velocity=0 time=0
EXTRACT: note_on channel=0 note=77 velocity=96 time=0.013211385416666666
EXTRACT: note_on channel=1 note=58 velocity=80 time=0
EXTRACT: note_on channel=1 note=65 velocity=80 time=0
EXTRACT: note_on channel=1 note=30 velocity=0 time=0.19410573958333333
EXTRACT: note_on channel=1 note=42 velocity=0 time=0
EXTRACT: note_on channel=0 note=77 velocity=0 time=0.036585374999999996
EXTRACT: note_on channel=1 note=58 velocity=0 time=0
EXTRACT: note_on channel=1 note=65 velocity=0 time=0
EXTRACT: note_on channel=0 note=80 velocity=96 time=0.013211385416666666
EXTRACT: note_on channel=1 note=61 velocity=80 time=0
EXTRACT: note_on channel=1 note=70 velocity=80 time=0
EXTRACT: note_on channel=1 note=34 velocity=80 time=0
EXTRACT: note_on channel=1 note=46 velocity=80 time=0
EXTRACT: control_change channel=1 control=64 value=0 time=0.0010162604166666666
EXTRACT: control_change channel=1 control=64 value=127 time=0.0010162604166666666
EXTRACT: note_on channel=1 note=61 velocity=0 time=0.22865859375
EXTRACT: note_on channel=1 note=70 velocity=0 time=0
EXTRACT: note_on channel=1 note=58 velocity=80 time=0.013211385416666666
EXTRACT: note_on channel=1 note=65 velocity=80 time=0
EXTRACT: note_on channel=0 note=80 velocity=0 time=0.10264230208333333
EXTRACT: note_on channel=0 note=77 velocity=96 time=0.019308947916666666
EXTRACT: note_on channel=1 note=58 velocity=0 time=0.10873986458333333
EXTRACT: note_on channel=1 note=65 velocity=0 time=0
EXTRACT: note_on channel=1 note=61 velocity=80 time=0.013211385416666666
EXTRACT: note_on channel=1 note=70 velocity=80 time=0
EXTRACT: note_on channel=0 note=77 velocity=0 time=0.22459355208333331
EXTRACT: note_on channel=1 note=61 velocity=0 time=0.0060975625
EXTRACT: note_on channel=1 note=70 velocity=0 time=0
EXTRACT: note_on channel=0 note=75 velocity=96 time=0.013211385416666666
EXTRACT: note_on channel=1 note=58 velocity=80 time=0
EXTRACT: note_on channel=1 note=65 velocity=80 time=0
EXTRACT: note_on channel=1 note=34 velocity=0 time=0.19410573958333333
EXTRACT: note_on channel=1 note=46 velocity=0 time=0
EXTRACT: note_on channel=0 note=75 velocity=0 time=0.036585374999999996
EXTRACT: note_on channel=1 note=58 velocity=0 time=0
EXTRACT: note_on channel=1 note=65 velocity=0 time=0
EXTRACT: note_on channel=0 note=73 velocity=96 time=0.013211385416666666
EXTRACT: note_on channel=1 note=61 velocity=80 time=0
EXTRACT: note_on channel=1 note=70 velocity=80 time=0
EXTRACT: note_on channel=1 note=34 velocity=80 time=0
EXTRACT: note_on channel=1 note=46 velocity=80 time=0
EXTRACT: note_on channel=0 note=73 velocity=0 time=0.23069111458333333
EXTRACT: note_on channel=1 note=61 velocity=0 time=0
EXTRACT: note_on channel=1 note=70 velocity=0 time=0
EXTRACT: note_on channel=0 note=75 velocity=96 time=0.013211385416666666
EXTRACT: note_on channel=1 note=58 velocity=80 time=0
EXTRACT: note_on channel=1 note=65 velocity=80 time=0
EXTRACT: note_on channel=1 note=58 velocity=0 time=0.23069111458333333
EXTRACT: note_on channel=1 note=65 velocity=0 time=0
EXTRACT: note_on channel=1 note=61 velocity=80 time=0.013211385416666666
EXTRACT: note_on channel=1 note=70 velocity=80 time=0
EXTRACT: note_on channel=1 note=61 velocity=0 time=0.23069111458333333
EXTRACT: note_on channel=1 note=70 velocity=0 time=0
EXTRACT: note_on channel=1 note=58 velocity=80 time=0.013211385416666666
EXTRACT: note_on channel=1 note=65 velocity=80 time=0
EXTRACT: note_on channel=1 note=34 velocity=0 time=0.19410573958333333
EXTRACT: note_on channel=1 note=46 velocity=0 time=0
EXTRACT: note_on channel=0 note=75 velocity=0 time=0.012195125
EXTRACT: note_on channel=1 note=58 velocity=0 time=0.02439025
EXTRACT: note_on channel=1 note=65 velocity=0 time=0
EXTRACT: note_on channel=1 note=61 velocity=80 time=0.013211385416666666
EXTRACT: note_on channel=1 note=68 velocity=80 time=0
EXTRACT: note_on channel=1 note=32 velocity=80 time=0
EXTRACT: note_on channel=1 note=44 velocity=80 time=0
EXTRACT: control_change channel=1 control=64 value=0 time=0.0010162604166666666
EXTRACT: control_change channel=1 control=64 value=127 time=0.0010162604166666666
EXTRACT: note_on channel=1 note=61 velocity=0 time=0.22865859375
EXTRACT: note_on channel=1 note=68 velocity=0 time=0
EXTRACT: note_on channel=1 note=56 velocity=80 time=0.013211385416666666
EXTRACT: note_on channel=1 note=65 velocity=80 time=0
EXTRACT: note_on channel=1 note=56 velocity=0 time=0.23069111458333333
EXTRACT: note_on channel=1 note=65 velocity=0 time=0
EXTRACT: note_on channel=0 note=73 velocity=96 time=0.013211385416666666
EXTRACT: note_on channel=1 note=61 velocity=80 time=0
EXTRACT: note_on channel=1 note=68 velocity=80 time=0
EXTRACT: note_on channel=1 note=61 velocity=0 time=0.23069111458333333
EXTRACT: note_on channel=1 note=68 velocity=0 time=0
EXTRACT: note_on channel=1 note=56 velocity=80 time=0.013211385416666666
EXTRACT: note_on channel=1 note=65 velocity=80 time=0
EXTRACT: note_on channel=1 note=32 velocity=0 time=0.19410573958333333
EXTRACT: note_on channel=1 note=44 velocity=0 time=0
EXTRACT: note_on channel=1 note=56 velocity=0 time=0.036585374999999996
EXTRACT: note_on channel=1 note=65 velocity=0 time=0
EXTRACT: note_on channel=1 note=61 velocity=80 time=0.013211385416666666
EXTRACT: note_on channel=1 note=68 velocity=80 time=0
EXTRACT: note_on channel=1 note=32 velocity=80 time=0
EXTRACT: note_on channel=1 note=44 velocity=80 time=0
EXTRACT: note_on channel=1 note=61 velocity=0 time=0.23069111458333333
EXTRACT: note_on channel=1 note=68 velocity=0 time=0
EXTRACT: note_on channel=1 note=56 velocity=80 time=0.013211385416666666
EXTRACT: note_on channel=1 note=65 velocity=80 time=0
EXTRACT: note_on channel=0 note=73 velocity=0 time=0.19410573958333333
EXTRACT: note_on channel=1 note=56 velocity=0 time=0.036585374999999996
EXTRACT: note_on channel=1 note=65 velocity=0 time=0
EXTRACT: note_on channel=0 note=77 velocity=96 time=0.013211385416666666
EXTRACT: note_on channel=1 note=61 velocity=80 time=0
EXTRACT: note_on channel=1 note=68 velocity=80 time=0
EXTRACT: note_on channel=0 note=77 velocity=0 time=0.23069111458333333
EXTRACT: note_on channel=1 note=61 velocity=0 time=0
EXTRACT: note_on channel=1 note=68 velocity=0 time=0
EXTRACT: note_on channel=0 note=77 velocity=96 time=0.013211385416666666
EXTRACT: note_on channel=1 note=56 velocity=80 time=0
EXTRACT: note_on channel=1 note=65 velocity=80 time=0
EXTRACT: note_on channel=1 note=32 velocity=0 time=0.19410573958333333
EXTRACT: note_on channel=1 note=44 velocity=0 time=0
EXTRACT: note_on channel=0 note=77 velocity=0 time=0.036585374999999996
EXTRACT: note_on channel=1 note=56 velocity=0 time=0
EXTRACT: note_on channel=1 note=65 velocity=0 time=0
EXTRACT: note_on channel=0 note=80 velocity=96 time=0.013211385416666666
EXTRACT: note_on channel=1 note=61 velocity=80 time=0
EXTRACT: note_on channel=1 note=68 velocity=80 time=0
EXTRACT: note_on channel=1 note=29 velocity=80 time=0
EXTRACT: note_on channel=1 note=41 velocity=80 time=0
EXTRACT: control_change channel=1 control=64 value=0 time=0.0010162604166666666
EXTRACT: control_change channel=1 control=64 value=127 time=0.0010162604166666666
EXTRACT: note_on channel=1 note=61 velocity=0 time=0.22865859375
EXTRACT: note_on channel=1 note=68 velocity=0 time=0
EXTRACT: note_on channel=1 note=56 velocity=80 time=0.013211385416666666
EXTRACT: note_on channel=1 note=65 velocity=80 time=0
EXTRACT: note_on channel=0 note=80 velocity=0 time=0.10264230208333333
EXTRACT: note_on channel=0 note=77 velocity=96 time=0.019308947916666666
EXTRACT: note_on channel=1 note=56 velocity=0 time=0.10873986458333333
EXTRACT: note_on channel=1 note=65 velocity=0 time=0
EXTRACT: note_on channel=1 note=61 velocity=80 time=0.013211385416666666
EXTRACT: note_on channel=1 note=68 velocity=80 time=0
EXTRACT: note_on channel=0 note=77 velocity=0 time=0.22459355208333331
EXTRACT: note_on channel=1 note=61 velocity=0 time=0.0060975625
EXTRACT: note_on channel=1 note=68 velocity=0 time=0
EXTRACT: note_on channel=0 note=75 velocity=96 time=0.013211385416666666
EXTRACT: note_on channel=1 note=56 velocity=80 time=0
EXTRACT: note_on channel=1 note=65 velocity=80 time=0
EXTRACT: note_on channel=1 note=29 velocity=0 time=0.19410573958333333
EXTRACT: note_on channel=1 note=41 velocity=0 time=0
EXTRACT: note_on channel=0 note=75 velocity=0 time=0.036585374999999996
EXTRACT: note_on channel=1 note=56 velocity=0 time=0
EXTRACT: note_on channel=1 note=65 velocity=0 time=0
EXTRACT: note_on channel=0 note=73 velocity=96 time=0.013211385416666666
EXTRACT: note_on channel=1 note=61 velocity=80 time=0
EXTRACT: note_on channel=1 note=68 velocity=80 time=0
EXTRACT: note_on channel=1 note=29 velocity=80 time=0
EXTRACT: note_on channel=1 note=41 velocity=80 time=0
EXTRACT: note_on channel=0 note=73 velocity=0 time=0.23069111458333333
EXTRACT: note_on channel=1 note=61 velocity=0 time=0
EXTRACT: note_on channel=1 note=68 velocity=0 time=0
EXTRACT: note_on channel=0 note=75 velocity=96 time=0.013211385416666666
EXTRACT: note_on channel=1 note=56 velocity=80 time=0
EXTRACT: note_on channel=1 note=65 velocity=80 time=0
EXTRACT: note_on channel=1 note=56 velocity=0 time=0.23069111458333333
EXTRACT: note_on channel=1 note=65 velocity=0 time=0
EXTRACT: note_on channel=1 note=61 velocity=80 time=0.013211385416666666
EXTRACT: note_on channel=1 note=68 velocity=80 time=0
EXTRACT: note_on channel=1 note=61 velocity=0 time=0.23069111458333333
EXTRACT: note_on channel=1 note=68 velocity=0 time=0
EXTRACT: note_on channel=1 note=56 velocity=80 time=0.013211385416666666
EXTRACT: note_on channel=1 note=65 velocity=80 time=0
EXTRACT: note_on channel=1 note=29 velocity=0 time=0.19410573958333333
EXTRACT: note_on channel=1 note=41 velocity=0 time=0
EXTRACT: note_on channel=0 note=75 velocity=0 time=0.012195125
EXTRACT: note_on channel=1 note=56 velocity=0 time=0.02439025
EXTRACT: note_on channel=1 note=65 velocity=0 time=0
EXTRACT: note_on channel=1 note=61 velocity=80 time=0.013211385416666666
EXTRACT: note_on channel=1 note=66 velocity=80 time=0
EXTRACT: note_on channel=1 note=30 velocity=80 time=0
EXTRACT: note_on channel=1 note=42 velocity=80 time=0
EXTRACT: control_change channel=1 control=64 value=0 time=0.0010162604166666666
EXTRACT: control_change channel=1 control=64 value=127 time=0.0010162604166666666
EXTRACT: note_on channel=1 note=61 velocity=0 time=0.22865859375
EXTRACT: note_on channel=1 note=66 velocity=0 time=0
EXTRACT: note_on channel=1 note=58 velocity=80 time=0.013211385416666666
EXTRACT: note_on channel=1 note=65 velocity=80 time=0
EXTRACT: note_on channel=1 note=58 velocity=0 time=0.23069111458333333
EXTRACT: note_on channel=1 note=65 velocity=0 time=0
EXTRACT: note_on channel=0 note=73 velocity=96 time=0.013211385416666666
EXTRACT: note_on channel=1 note=61 velocity=80 time=0
EXTRACT: note_on channel=1 note=66 velocity=80 time=0
EXTRACT: note_on channel=1 note=61 velocity=0 time=0.23069111458333333
EXTRACT: note_on channel=1 note=66 velocity=0 time=0
EXTRACT: note_on channel=1 note=58 velocity=80 time=0.013211385416666666
EXTRACT: note_on channel=1 note=65 velocity=80 time=0
EXTRACT: note_on channel=1 note=30 velocity=0 time=0.19410573958333333
EXTRACT: note_on channel=1 note=42 velocity=0 time=0
EXTRACT: note_on channel=1 note=58 velocity=0 time=0.036585374999999996
EXTRACT: note_on channel=1 note=65 velocity=0 time=0
EXTRACT: note_on channel=1 note=61 velocity=80 time=0.013211385416666666
EXTRACT: note_on channel=1 note=66 velocity=80 time=0
EXTRACT: note_on channel=1 note=30 velocity=80 time=0
EXTRACT: note_on channel=1 note=42 velocity=80 time=0
EXTRACT: note_on channel=1 note=61 velocity=0 time=0.23069111458333333
EXTRACT: note_on channel=1 note=66 velocity=0 time=0
EXTRACT: note_on channel=1 note=58 velocity=80 time=0.013211385416666666
EXTRACT: note_on channel=1 note=65 velocity=80 time=0
EXTRACT: note_on channel=0 note=73 velocity=0 time=0.19410573958333333
EXTRACT: note_on channel=1 note=58 velocity=0 time=0.036585374999999996
EXTRACT: note_on channel=1 note=65 velocity=0 time=0
EXTRACT: note_on channel=0 note=77 velocity=96 time=0.013211385416666666
EXTRACT: note_on channel=1 note=61 velocity=80 time=0
EXTRACT: note_on channel=1 note=66 velocity=80 time=0
EXTRACT: note_on channel=0 note=77 velocity=0 time=0.23069111458333333
EXTRACT: note_on channel=1 note=61 velocity=0 time=0
EXTRACT: note_on channel=1 note=66 velocity=0 time=0
EXTRACT: note_on channel=0 note=77 velocity=96 time=0.013211385416666666
EXTRACT: note_on channel=1 note=58 velocity=80 time=0
EXTRACT: note_on channel=1 note=65 velocity=80 time=0
EXTRACT: note_on channel=1 note=30 velocity=0 time=0.19410573958333333
EXTRACT: note_on channel=1 note=42 velocity=0 time=0
EXTRACT: note_on channel=0 note=77 velocity=0 time=0.036585374999999996
EXTRACT: note_on channel=1 note=58 velocity=0 time=0
EXTRACT: note_on channel=1 note=65 velocity=0 time=0
EXTRACT: note_on channel=0 note=80 velocity=96 time=0.013211385416666666
EXTRACT: note_on channel=1 note=61 velocity=80 time=0
EXTRACT: note_on channel=1 note=70 velocity=80 time=0
EXTRACT: note_on channel=1 note=34 velocity=80 time=0
EXTRACT: note_on channel=1 note=46 velocity=80 time=0
EXTRACT: control_change channel=1 control=64 value=0 time=0.0010162604166666666
EXTRACT: control_change channel=1 control=64 value=127 time=0.0010162604166666666
EXTRACT: note_on channel=1 note=61 velocity=0 time=0.22865859375
EXTRACT: note_on channel=1 note=70 velocity=0 time=0
EXTRACT: note_on channel=1 note=58 velocity=80 time=0.013211385416666666
EXTRACT: note_on channel=1 note=65 velocity=80 time=0
EXTRACT: note_on channel=0 note=80 velocity=0 time=0.10264230208333333
EXTRACT: note_on channel=0 note=77 velocity=96 time=0.019308947916666666
EXTRACT: note_on channel=1 note=58 velocity=0 time=0.10873986458333333
EXTRACT: note_on channel=1 note=65 velocity=0 time=0
EXTRACT: note_on channel=1 note=61 velocity=80 time=0.013211385416666666
EXTRACT: note_on channel=1 note=70 velocity=80 time=0
EXTRACT: note_on channel=0 note=77 velocity=0 time=0.22459355208333331
EXTRACT: note_on channel=1 note=61 velocity=0 time=0.0060975625
EXTRACT: note_on channel=1 note=70 velocity=0 time=0
EXTRACT: note_on channel=0 note=75 velocity=96 time=0.013211385416666666
EXTRACT: note_on channel=1 note=58 velocity=80 time=0
EXTRACT: note_on channel=1 note=65 velocity=80 time=0
EXTRACT: note_on channel=1 note=34 velocity=0 time=0.19410573958333333
EXTRACT: note_on channel=1 note=46 velocity=0 time=0
EXTRACT: note_on channel=0 note=75 velocity=0 time=0.036585374999999996
EXTRACT: note_on channel=1 note=58 velocity=0 time=0
EXTRACT: note_on channel=1 note=65 velocity=0 time=0
EXTRACT: note_on channel=0 note=73 velocity=96 time=0.013211385416666666
EXTRACT: note_on channel=1 note=61 velocity=80 time=0
EXTRACT: note_on channel=1 note=70 velocity=80 time=0
EXTRACT: note_on channel=1 note=34 velocity=80 time=0
EXTRACT: note_on channel=1 note=46 velocity=80 time=0
EXTRACT: note_on channel=0 note=73 velocity=0 time=0.23069111458333333
EXTRACT: note_on channel=1 note=61 velocity=0 time=0
EXTRACT: note_on channel=1 note=70 velocity=0 time=0
EXTRACT: note_on channel=0 note=75 velocity=96 time=0.013211385416666666
EXTRACT: note_on channel=1 note=58 velocity=80 time=0
EXTRACT: note_on channel=1 note=65 velocity=80 time=0
EXTRACT: note_on channel=1 note=58 velocity=0 time=0.23069111458333333
EXTRACT: note_on channel=1 note=65 velocity=0 time=0
EXTRACT: note_on channel=1 note=61 velocity=80 time=0.013211385416666666
EXTRACT: note_on channel=1 note=70 velocity=80 time=0
EXTRACT: note_on channel=1 note=61 velocity=0 time=0.23069111458333333
EXTRACT: note_on channel=1 note=70 velocity=0 time=0
EXTRACT: note_on channel=1 note=58 velocity=80 time=0.013211385416666666
EXTRACT: note_on channel=1 note=65 velocity=80 time=0
EXTRACT: note_on channel=1 note=34 velocity=0 time=0.19410573958333333
EXTRACT: note_on channel=1 note=46 velocity=0 time=0
EXTRACT: note_on channel=0 note=75 velocity=0 time=0.012195125
EXTRACT: note_on channel=1 note=58 velocity=0 time=0.02439025
EXTRACT: note_on channel=1 note=65 velocity=0 time=0
EXTRACT: note_on channel=1 note=61 velocity=80 time=0.013211385416666666
EXTRACT: note_on channel=1 note=68 velocity=80 time=0
EXTRACT: note_on channel=1 note=32 velocity=80 time=0
EXTRACT: note_on channel=1 note=44 velocity=80 time=0
EXTRACT: control_change channel=1 control=64 value=0 time=0.0010162604166666666
EXTRACT: control_change channel=1 control=64 value=127 time=0.0010162604166666666
EXTRACT: note_on channel=1 note=61 velocity=0 time=0.22865859375
EXTRACT: note_on channel=1 note=68 velocity=0 time=0
EXTRACT: note_on channel=1 note=56 velocity=80 time=0.013211385416666666
EXTRACT: note_on channel=1 note=65 velocity=80 time=0
EXTRACT: note_on channel=1 note=56 velocity=0 time=0.23069111458333333
EXTRACT: note_on channel=1 note=65 velocity=0 time=0
EXTRACT: note_on channel=0 note=73 velocity=96 time=0.013211385416666666
EXTRACT: note_on channel=1 note=61 velocity=80 time=0
EXTRACT: note_on channel=1 note=68 velocity=80 time=0
EXTRACT: note_on channel=0 note=73 velocity=0 time=0.23069111458333333
EXTRACT: note_on channel=1 note=61 velocity=0 time=0
EXTRACT: note_on channel=1 note=68 velocity=0 time=0
EXTRACT: note_on channel=0 note=72 velocity=96 time=0.013211385416666666
EXTRACT: note_on channel=1 note=56 velocity=80 time=0
EXTRACT: note_on channel=1 note=65 velocity=80 time=0
EXTRACT: note_on channel=1 note=32 velocity=0 time=0.19410573958333333
EXTRACT: note_on channel=1 note=44 velocity=0 time=0
EXTRACT: note_on channel=0 note=72 velocity=0 time=0.036585374999999996
EXTRACT: note_on channel=1 note=56 velocity=0 time=0
EXTRACT: note_on channel=1 note=65 velocity=0 time=0
EXTRACT: note_on channel=0 note=70 velocity=96 time=0.013211385416666666
EXTRACT: note_on channel=1 note=61 velocity=80 time=0
EXTRACT: note_on channel=1 note=68 velocity=80 time=0
EXTRACT: note_on channel=1 note=32 velocity=80 time=0
EXTRACT: note_on channel=1 note=44 velocity=80 time=0
EXTRACT: note_on channel=0 note=70 velocity=0 time=0.11483742708333333
EXTRACT: note_on channel=0 note=68 velocity=96 time=0.007113822916666667
EXTRACT: note_on channel=1 note=61 velocity=0 time=0.10873986458333333
EXTRACT: note_on channel=1 note=68 velocity=0 time=0
EXTRACT: note_on channel=1 note=56 velocity=80 time=0.013211385416666666
EXTRACT: note_on channel=1 note=65 velocity=80 time=0
EXTRACT: note_on channel=0 note=68 velocity=0 time=0.22459355208333331
EXTRACT: note_on channel=1 note=56 velocity=0 time=0.0060975625
EXTRACT: note_on channel=1 note=65 velocity=0 time=0
EXTRACT: note_on channel=0 note=68 velocity=96 time=0.013211385416666666
EXTRACT: note_on channel=1 note=61 velocity=80 time=0
EXTRACT: note_on channel=1 note=68 velocity=80 time=0
EXTRACT: note_on channel=0 note=68 velocity=0 time=0.23069111458333333
EXTRACT: note_on channel=1 note=61 velocity=0 time=0
EXTRACT: note_on channel=1 note=68 velocity=0 time=0
EXTRACT: note_on channel=0 note=68 velocity=96 time=0.013211385416666666
EXTRACT: note_on channel=1 note=56 velocity=80 time=0
EXTRACT: note_on channel=1 note=65 velocity=80 time=0
EXTRACT: note_on channel=1 note=32 velocity=0 time=0.19410573958333333
EXTRACT: note_on channel=1 note=44 velocity=0 time=0
EXTRACT: note_on channel=0 note=68 velocity=0 time=0.036585374999999996
EXTRACT: note_on channel=1 note=56 velocity=0 time=0
EXTRACT: note_on channel=1 note=65 velocity=0 time=0
EXTRACT: note_on channel=0 note=70 velocity=96 time=0.013211385416666666
EXTRACT: note_on channel=1 note=61 velocity=80 time=0
EXTRACT: note_on channel=1 note=68 velocity=80 time=0
EXTRACT: note_on channel=1 note=29 velocity=80 time=0
EXTRACT: note_on channel=1 note=41 velocity=80 time=0
EXTRACT: control_change channel=1 control=64 value=0 time=0.0010162604166666666
EXTRACT: control_change channel=1 control=64 value=127 time=0.0010162604166666666
EXTRACT: note_on channel=1 note=61 velocity=0 time=0.22865859375
EXTRACT: note_on channel=1 note=68 velocity=0 time=0
EXTRACT: note_on channel=1 note=56 velocity=80 time=0.013211385416666666
EXTRACT: note_on channel=1 note=65 velocity=80 time=0
EXTRACT: note_on channel=0 note=70 velocity=0 time=0.21849598958333333
EXTRACT: note_on channel=1 note=56 velocity=0 time=0.012195125
EXTRACT: note_on channel=1 note=65 velocity=0 time=0
EXTRACT: note_on channel=0 note=68 velocity=96 time=0.013211385416666666
EXTRACT: note_on channel=1 note=61 velocity=80 time=0
EXTRACT: note_on channel=1 note=68 velocity=80 time=0
EXTRACT: note_on channel=1 note=61 velocity=0 time=0.23069111458333333
EXTRACT: note_on channel=1 note=68 velocity=0 time=0
EXTRACT: note_on channel=1 note=56 velocity=80 time=0.013211385416666666
EXTRACT: note_on channel=1 note=65 velocity=80 time=0
EXTRACT: note_on channel=1 note=29 velocity=0 time=0.19410573958333333
EXTRACT: note_on channel=1 note=41 velocity=0 time=0
EXTRACT: note_on channel=1 note=56 velocity=0 time=0.036585374999999996
EXTRACT: note_on channel=1 note=65 velocity=0 time=0
EXTRACT: note_on channel=1 note=61 velocity=80 time=0.013211385416666666
EXTRACT: note_on channel=1 note=68 velocity=80 time=0
EXTRACT: note_on channel=1 note=29 velocity=80 time=0
EXTRACT: note_on channel=1 note=41 velocity=80 time=0
EXTRACT: note_on channel=0 note=68 velocity=0 time=0.20630086458333333
EXTRACT: note_on channel=1 note=61 velocity=0 time=0.02439025
EXTRACT: note_on channel=1 note=68 velocity=0 time=0
EXTRACT: note_on channel=0 note=65 velocity=96 time=0.013211385416666666
EXTRACT: note_on channel=1 note=56 velocity=80 time=0
EXTRACT: note_on channel=1 note=65 velocity=80 time=0
EXTRACT: note_on channel=0 note=65 velocity=0 time=0.23069111458333333
EXTRACT: note_on channel=1 note=56 velocity=0 time=0
EXTRACT: note_on channel=1 note=65 velocity=0 time=0
EXTRACT: note_on channel=0 note=66 velocity=96 time=0.013211385416666666
EXTRACT: note_on channel=1 note=61 velocity=80 time=0
EXTRACT: note_on channel=1 note=68 velocity=80 time=0
EXTRACT: note_on channel=1 note=61 velocity=0 time=0.23069111458333333
EXTRACT: note_on channel=1 note=68 velocity=0 time=0
EXTRACT: note_on channel=1 note=56 velocity=80 time=0.013211385416666666
EXTRACT: note_on channel=1 note=65 velocity=80 time=0
EXTRACT: note_on channel=1 note=29 velocity=0 time=0.19410573958333333
EXTRACT: note_on channel=1 note=41 velocity=0 time=0
EXTRACT: note_on channel=1 note=56 velocity=0 time=0.036585374999999996
EXTRACT: note_on channel=1 note=65 velocity=0 time=0
EXTRACT: note_on channel=1 note=61 velocity=80 time=0.013211385416666666
EXTRACT: note_on channel=1 note=66 velocity=80 time=0
EXTRACT: note_on channel=1 note=30 velocity=80 time=0
EXTRACT: note_on channel=1 note=42 velocity=80 time=0
EXTRACT: control_change channel=1 control=64 value=0 time=0.0010162604166666666
EXTRACT: control_change channel=1 control=64 value=127 time=0.0010162604166666666
EXTRACT: note_on channel=1 note=61 velocity=0 time=0.22865859375
EXTRACT: note_on channel=1 note=66 velocity=0 time=0
EXTRACT: note_on channel=1 note=58 velocity=80 time=0.013211385416666666
EXTRACT: note_on channel=1 note=65 velocity=80 time=0
EXTRACT: note_on channel=1 note=58 velocity=0 time=0.23069111458333333
EXTRACT: note_on channel=1 note=65 velocity=0 time=0
EXTRACT: note_on channel=1 note=61 velocity=80 time=0.013211385416666666
EXTRACT: note_on channel=1 note=66 velocity=80 time=0
EXTRACT: note_on channel=1 note=61 velocity=0 time=0.23069111458333333
EXTRACT: note_on channel=1 note=66 velocity=0 time=0
EXTRACT: note_on channel=1 note=58 velocity=80 time=0.013211385416666666
EXTRACT: note_on channel=1 note=65 velocity=80 time=0
EXTRACT: note_on channel=0 note=66 velocity=0 time=0.16971548958333332
EXTRACT: note_on channel=1 note=30 velocity=0 time=0.02439025
EXTRACT: note_on channel=1 note=42 velocity=0 time=0
EXTRACT: note_on channel=1 note=58 velocity=0 time=0.036585374999999996
EXTRACT: note_on channel=1 note=65 velocity=0 time=0
EXTRACT: note_on channel=1 note=61 velocity=80 time=0.013211385416666666
EXTRACT: note_on channel=1 note=66 velocity=80 time=0
EXTRACT: note_on channel=1 note=30 velocity=80 time=0
EXTRACT: note_on channel=1 note=42 velocity=80 time=0
EXTRACT: note_on channel=1 note=61 velocity=0 time=0.23069111458333333
EXTRACT: note_on channel=1 note=66 velocity=0 time=0
EXTRACT: note_on channel=1 note=58 velocity=80 time=0.013211385416666666
EXTRACT: note_on channel=1 note=65 velocity=80 time=0
EXTRACT: note_on channel=1 note=58 velocity=0 time=0.23069111458333333
EXTRACT: note_on channel=1 note=65 velocity=0 time=0
EXTRACT: note_on channel=1 note=61 velocity=80 time=0.013211385416666666
EXTRACT: note_on channel=1 note=66 velocity=80 time=0
EXTRACT: note_on channel=1 note=61 velocity=0 time=0.23069111458333333
EXTRACT: note_on channel=1 note=66 velocity=0 time=0
EXTRACT: note_on channel=0 note=85 velocity=96 time=0.013211385416666666
EXTRACT: note_on channel=1 note=58 velocity=80 time=0
EXTRACT: note_on channel=1 note=65 velocity=80 time=0
EXTRACT: note_on channel=1 note=30 velocity=0 time=0.19410573958333333
EXTRACT: note_on channel=1 note=42 velocity=0 time=0
EXTRACT: note_on channel=0 note=85 velocity=0 time=0.036585374999999996
EXTRACT: note_on channel=1 note=58 velocity=0 time=0
EXTRACT: note_on channel=1 note=65 velocity=0 time=0
EXTRACT: note_on channel=0 note=85 velocity=96 time=0.013211385416666666
EXTRACT: note_on channel=1 note=61 velocity=80 time=0
EXTRACT: note_on channel=1 note=70 velocity=80 time=0
EXTRACT: note_on channel=1 note=34 velocity=80 time=0
EXTRACT: note_on channel=1 note=46 velocity=80 time=0
EXTRACT: control_change channel=1 control=64 value=0 time=0.0010162604166666666
EXTRACT: control_change channel=1 control=64 value=127 time=0.0010162604166666666
EXTRACT: note_on channel=0 note=85 velocity=0 time=0.22865859375
EXTRACT: note_on channel=1 note=61 velocity=0 time=0
EXTRACT: note_on channel=1 note=70 velocity=0 time=0
EXTRACT: note_on channel=0 note=87 velocity=96 time=0.013211385416666666
EXTRACT: note_on channel=1 note=58 velocity=80 time=0
EXTRACT: note_on channel=1 note=65 velocity=80 time=0
EXTRACT: note_on channel=0 note=87 velocity=0 time=0.23069111458333333
EXTRACT: note_on channel=1 note=58 velocity=0 time=0
EXTRACT: note_on channel=1 note=65 velocity=0 time=0
EXTRACT: note_on channel=0 note=84 velocity=96 time=0.013211385416666666
EXTRACT: note_on channel=1 note=61 velocity=80 time=0
EXTRACT: note_on channel=1 note=70 velocity=80 time=0
EXTRACT: note_on channel=0 note=84 velocity=0 time=0.23069111458333333
EXTRACT: note_on channel=1 note=61 velocity=0 time=0
EXTRACT: note_on channel=1 note=70 velocity=0 time=0
EXTRACT: note_on channel=0 note=84 velocity=96 time=0.013211385416666666
EXTRACT: note_on channel=1 note=58 velocity=80 time=0
EXTRACT: note_on channel=1 note=65 velocity=80 time=0
EXTRACT: note_on channel=1 note=34 velocity=0 time=0.19410573958333333
EXTRACT: note_on channel=1 note=46 velocity=0 time=0
EXTRACT: note_on channel=0 note=84 velocity=0 time=0.036585374999999996
EXTRACT: note_on channel=1 note=58 velocity=0 time=0
EXTRACT: note_on channel=1 note=65 velocity=0 time=0
EXTRACT: note_on channel=0 note=84 velocity=96 time=0.013211385416666666
EXTRACT: note_on channel=1 note=61 velocity=80 time=0
EXTRACT: note_on channel=1 note=70 velocity=80 time=0
EXTRACT: note_on channel=1 note=34 velocity=80 time=0
EXTRACT: note_on channel=1 note=46 velocity=80 time=0
EXTRACT: note_on channel=0 note=84 velocity=0 time=0.23069111458333333
EXTRACT: note_on channel=1 note=61 velocity=0 time=0
EXTRACT: note_on channel=1 note=70 velocity=0 time=0
EXTRACT: note_on channel=0 note=85 velocity=96 time=0.013211385416666666
EXTRACT: note_on channel=1 note=58 velocity=80 time=0
EXTRACT: note_on channel=1 note=65 velocity=80 time=0
EXTRACT: note_on channel=1 note=58 velocity=0 time=0.23069111458333333
EXTRACT: note_on channel=1 note=65 velocity=0 time=0
EXTRACT: note_on channel=1 note=61 velocity=80 time=0.013211385416666666
EXTRACT: note_on channel=1 note=70 velocity=80 time=0
EXTRACT: note_on channel=0 note=85 velocity=0 time=0.21849598958333333
EXTRACT: note_on channel=1 note=61 velocity=0 time=0.012195125
EXTRACT: note_on channel=1 note=70 velocity=0 time=0
EXTRACT: note_on channel=0 note=80 velocity=96 time=0.013211385416666666
EXTRACT: note_on channel=1 note=58 velocity=80 time=0
EXTRACT: note_on channel=1 note=65 velocity=80 time=0
EXTRACT: note_on channel=1 note=34 velocity=0 time=0.19410573958333333
EXTRACT: note_on channel=1 note=46 velocity=0 time=0
EXTRACT: note_on channel=1 note=58 velocity=0 time=0.036585374999999996
EXTRACT: note_on channel=1 note=65 velocity=0 time=0
EXTRACT: note_on channel=1 note=61 velocity=80 time=0.013211385416666666
EXTRACT: note_on channel=1 note=68 velocity=80 time=0
EXTRACT: note_on channel=1 note=32 velocity=80 time=0
EXTRACT: note_on channel=1 note=44 velocity=80 time=0
EXTRACT: control_change channel=1 control=64 value=0 time=0.0010162604166666666
EXTRACT: control_change channel=1 control=64 value=127 time=0.0010162604166666666
EXTRACT: note_on channel=1 note=61 velocity=0 time=0.22865859375
EXTRACT: note_on channel=1 note=68 velocity=0 time=0
EXTRACT: note_on channel=1 note=56 velocity=80 time=0.013211385416666666
EXTRACT: note_on channel=1 note=65 velocity=80 time=0
EXTRACT: note_on channel=1 note=56 velocity=0 time=0.23069111458333333
EXTRACT: note_on channel=1 note=65 velocity=0 time=0
EXTRACT: note_on channel=1 note=61 velocity=80 time=0.013211385416666666
EXTRACT: note_on channel=1 note=68 velocity=80 time=0
EXTRACT: note_on channel=0 note=80 velocity=0 time=0.19410573958333333
EXTRACT: note_on channel=1 note=61 velocity=0 time=0.036585374999999996
EXTRACT: note_on channel=1 note=68 velocity=0 time=0
EXTRACT: note_on channel=0 note=77 velocity=96 time=0.013211385416666666
EXTRACT: note_on channel=1 note=56 velocity=80 time=0
EXTRACT: note_on channel=1 note=65 velocity=80 time=0
EXTRACT: note_on channel=1 note=32 velocity=0 time=0.19410573958333333
EXTRACT: note_on channel=1 note=44 velocity=0 time=0
EXTRACT: note_on channel=0 note=77 velocity=0 time=0.036585374999999996
EXTRACT: note_on channel=1 note=56 velocity=0 time=0
EXTRACT: note_on channel=1 note=65 velocity=0 time=0
EXTRACT: note_on channel=0 note=78 velocity=96 time=0.013211385416666666
EXTRACT: note_on channel=1 note=61 velocity=80 time=0
EXTRACT: note_on channel=1 note=68 velocity=80 time=0
EXTRACT: note_on channel=1 note=32 velocity=80 time=0
EXTRACT: note_on channel=1 note=44 velocity=80 time=0
EXTRACT: note_on channel=1 note=61 velocity=0 time=0.23069111458333333
EXTRACT: note_on channel=1 note=68 velocity=0 time=0
EXTRACT: note_on channel=1 note=56 velocity=80 time=0.013211385416666666
EXTRACT: note_on channel=1 note=65 velocity=80 time=0
EXTRACT: note_on channel=0 note=78 velocity=0 time=0.10264230208333333
EXTRACT: note_on channel=0 note=78 velocity=96 time=0.019308947916666666
EXTRACT: note_on channel=1 note=56 velocity=0 time=0.10873986458333333
EXTRACT: note_on channel=1 note=65 velocity=0 time=0
EXTRACT: note_on channel=1 note=61 velocity=80 time=0.013211385416666666
EXTRACT: note_on channel=1 note=68 velocity=80 time=0
EXTRACT: note_on channel=0 note=78 velocity=0 time=0.22459355208333331
EXTRACT: note_on channel=1 note=61 velocity=0 time=0.0060975625
EXTRACT: note_on channel=1 note=68 velocity=0 time=0
EXTRACT: note_on channel=0 note=78 velocity=96 time=0.013211385416666666
EXTRACT: note_on channel=1 note=56 velocity=80 time=0
EXTRACT: note_on channel=1 note=65 velocity=80 time=0
EXTRACT: note_on channel=1 note=32 velocity=0 time=0.19410573958333333
EXTRACT: note_on channel=1 note=44 velocity=0 time=0
EXTRACT: note_on channel=1 note=56 velocity=0 time=0.036585374999999996
EXTRACT: note_on channel=1 note=65 velocity=0 time=0
EXTRACT: note_on channel=1 note=61 velocity=80 time=0.013211385416666666
EXTRACT: note_on channel=1 note=68 velocity=80 time=0
EXTRACT: note_on channel=1 note=29 velocity=80 time=0
EXTRACT: note_on channel=1 note=41 velocity=80 time=0
EXTRACT: control_change channel=1 control=64 value=0 time=0.0010162604166666666
EXTRACT: control_change channel=1 control=64 value=127 time=0.0010162604166666666
EXTRACT: note_on channel=0 note=78 velocity=0 time=0.21646346875
EXTRACT: note_on channel=1 note=61 velocity=0 time=0.012195125
EXTRACT: note_on channel=1 note=68 velocity=0 time=0
EXTRACT: note_on channel=0 note=77 velocity=96 time=0.013211385416666666
EXTRACT: note_on channel=1 note=56 velocity=80 time=0
EXTRACT: note_on channel=1 note=65 velocity=80 time=0
EXTRACT: note_on channel=1 note=56 velocity=0 time=0.23069111458333333
EXTRACT: note_on channel=1 note=65 velocity=0 time=0
EXTRACT: note_on channel=1 note=61 velocity=80 time=0.013211385416666666
EXTRACT: note_on channel=1 note=68 velocity=80 time=0
EXTRACT: note_on channel=0 note=77 velocity=0 time=0.21849598958333333
EXTRACT: note_on channel=1 note=61 velocity=0 time=0.012195125
EXTRACT: note_on channel=1 note=68 velocity=0 time=0
EXTRACT: note_on channel=1 note=56 velocity=80 time=0.013211385416666666
EXTRACT: note_on channel=1 note=65 velocity=80 time=0
EXTRACT: note_on channel=1 note=29 velocity=0 time=0.19410573958333333
EXTRACT: note_on channel=1 note=41 velocity=0 time=0
EXTRACT: note_on channel=1 note=56 velocity=0 time=0.036585374999999996
EXTRACT: note_on channel=1 note=65 velocity=0 time=0
EXTRACT: note_on channel=1 note=61 velocity=80 time=0.013211385416666666
EXTRACT: note_on channel=1 note=68 velocity=80 time=0
EXTRACT: note_on channel=1 note=29 velocity=80 time=0
EXTRACT: note_on channel=1 note=41 velocity=80 time=0
EXTRACT: note_on channel=1 note=61 velocity=0 time=0.23069111458333333
EXTRACT: note_on channel=1 note=68 velocity=0 time=0
EXTRACT: note_on channel=0 note=77 velocity=96 time=0.013211385416666666
EXTRACT: note_on channel=1 note=56 velocity=80 time=0
EXTRACT: note_on channel=1 note=65 velocity=80 time=0
EXTRACT: note_on channel=1 note=56 velocity=0 time=0.23069111458333333
EXTRACT: note_on channel=1 note=65 velocity=0 time=0
EXTRACT: note_on channel=1 note=61 velocity=80 time=0.013211385416666666
EXTRACT: note_on channel=1 note=68 velocity=80 time=0
EXTRACT: note_on channel=0 note=77 velocity=0 time=0.21849598958333333
EXTRACT: note_on channel=1 note=61 velocity=0 time=0.012195125
EXTRACT: note_on channel=1 note=68 velocity=0 time=0
EXTRACT: note_on channel=0 note=77 velocity=96 time=0.013211385416666666
EXTRACT: note_on channel=1 note=56 velocity=80 time=0
EXTRACT: note_on channel=1 note=65 velocity=80 time=0
EXTRACT: note_on channel=1 note=29 velocity=0 time=0.19410573958333333
EXTRACT: note_on channel=1 note=41 velocity=0 time=0
EXTRACT: note_on channel=1 note=56 velocity=0 time=0.036585374999999996
EXTRACT: note_on channel=1 note=65 velocity=0 time=0
EXTRACT: note_on channel=1 note=61 velocity=80 time=0.013211385416666666
EXTRACT: note_on channel=1 note=66 velocity=80 time=0
EXTRACT: note_on channel=1 note=30 velocity=80 time=0
EXTRACT: note_on channel=1 note=42 velocity=80 time=0
EXTRACT: control_change channel=1 control=64 value=0 time=0.0010162604166666666
EXTRACT: control_change channel=1 control=64 value=127 time=0.0010162604166666666
EXTRACT: note_on channel=0 note=77 velocity=0 time=0.21646346875
EXTRACT: note_on channel=1 note=61 velocity=0 time=0.012195125
EXTRACT: note_on channel=1 note=66 velocity=0 time=0
EXTRACT: note_on channel=0 note=77 velocity=96 time=0.013211385416666666
EXTRACT: note_on channel=1 note=58 velocity=80 time=0
EXTRACT: note_on channel=1 note=65 velocity=80 time=0
EXTRACT: note_on channel=1 note=58 velocity=0 time=0.23069111458333333
EXTRACT: note_on channel=1 note=65 velocity=0 time=0
EXTRACT: note_on channel=1 note=61 velocity=80 time=0.013211385416666666
EXTRACT: note_on channel=1 note=66 velocity=80 time=0
EXTRACT: note_on channel=0 note=77 velocity=0 time=0.21849598958333333
EXTRACT: note_on channel=1 note=61 velocity=0 time=0.012195125
EXTRACT: note_on channel=1 note=66 velocity=0 time=0
EXTRACT: note_on channel=1 note=58 velocity=80 time=0.013211385416666666
EXTRACT: note_on channel=1 note=65 velocity=80 time=0
EXTRACT: note_on channel=1 note=30 velocity=0 time=0.19410573958333333
EXTRACT: note_on channel=1 note=42 velocity=0 time=0
EXTRACT: note_on channel=1 note=58 velocity=0 time=0.036585374999999996
EXTRACT: note_on channel=1 note=65 velocity=0 time=0
EXTRACT: note_on channel=1 note=61 velocity=80 time=0.013211385416666666
EXTRACT: note_on channel=1 note=66 velocity=80 time=0
EXTRACT: note_on channel=1 note=30 velocity=80 time=0
EXTRACT: note_on channel=1 note=42 velocity=80 time=0
EXTRACT: note_on channel=1 note=61 velocity=0 time=0.23069111458333333
EXTRACT: note_on channel=1 note=66 velocity=0 time=0
EXTRACT: note_on channel=1 note=58 velocity=80 time=0.013211385416666666
EXTRACT: note_on channel=1 note=65 velocity=80 time=0
EXTRACT: note_on channel=1 note=58 velocity=0 time=0.23069111458333333
EXTRACT: note_on channel=1 note=65 velocity=0 time=0
EXTRACT: note_on channel=1 note=61 velocity=80 time=0.013211385416666666
EXTRACT: note_on channel=1 note=66 velocity=80 time=0
EXTRACT: note_on channel=1 note=61 velocity=0 time=0.23069111458333333
EXTRACT: note_on channel=1 note=66 velocity=0 time=0
EXTRACT: note_on channel=0 note=85 velocity=96 time=0.013211385416666666
EXTRACT: note_on channel=1 note=58 velocity=80 time=0
EXTRACT: note_on channel=1 note=65 velocity=80 time=0
EXTRACT: note_on channel=1 note=30 velocity=0 time=0.19410573958333333
EXTRACT: note_on channel=1 note=42 velocity=0 time=0
EXTRACT: note_on channel=0 note=85 velocity=0 time=0.036585374999999996
EXTRACT: note_on channel=1 note=58 velocity=0 time=0
EXTRACT: note_on channel=1 note=65 velocity=0 time=0
EXTRACT: note_on channel=0 note=85 velocity=96 time=0.013211385416666666
EXTRACT: note_on channel=1 note=61 velocity=80 time=0
EXTRACT: note_on channel=1 note=70 velocity=80 time=0
EXTRACT: note_on channel=1 note=34 velocity=80 time=0
EXTRACT: note_on channel=1 note=46 velocity=80 time=0
EXTRACT: control_change channel=1 control=64 value=0 time=0.0010162604166666666
EXTRACT: control_change channel=1 control=64 value=127 time=0.0010162604166666666
EXTRACT: note_on channel=0 note=85 velocity=0 time=0.22865859375
EXTRACT: note_on channel=1 note=61 velocity=0 time=0
EXTRACT: note_on channel=1 note=70 velocity=0 time=0
EXTRACT: note_on channel=0 note=87 velocity=96 time=0.013211385416666666
EXTRACT: note_on channel=1 note=58 velocity=80 time=0
EXTRACT: note_on channel=1 note=65 velocity=80 time=0
EXTRACT: note_on channel=0 note=87 velocity=0 time=0.23069111458333333
EXTRACT: note_on channel=1 note=58 velocity=0 time=0
EXTRACT: note_on channel=1 note=65 velocity=0 time=0
EXTRACT: note_on channel=0 note=84 velocity=96 time=0.013211385416666666
EXTRACT: note_on channel=1 note=61 velocity=80 time=0
EXTRACT: note_on channel=1 note=70 velocity=80 time=0
EXTRACT: note_on channel=0 note=84 velocity=0 time=0.23069111458333333
EXTRACT: note_on channel=1 note=61 velocity=0 time=0
EXTRACT: note_on channel=1 note=70 velocity=0 time=0
EXTRACT: note_on channel=0 note=84 velocity=96 time=0.013211385416666666
EXTRACT: note_on channel=1 note=58 velocity=80 time=0
EXTRACT: note_on channel=1 note=65 velocity=80 time=0
EXTRACT: note_on channel=1 note=34 velocity=0 time=0.19410573958333333
EXTRACT: note_on channel=1 note=46 velocity=0 time=0
EXTRACT: note_on channel=0 note=84 velocity=0 time=0.036585374999999996
EXTRACT: note_on channel=1 note=58 velocity=0 time=0
EXTRACT: note_on channel=1 note=65 velocity=0 time=0
EXTRACT: note_on channel=0 note=84 velocity=96 time=0.013211385416666666
EXTRACT: note_on channel=1 note=61 velocity=80 time=0
EXTRACT: note_on channel=1 note=70 velocity=80 time=0
EXTRACT: note_on channel=1 note=34 velocity=80 time=0
EXTRACT: note_on channel=1 note=46 velocity=80 time=0
EXTRACT: note_on channel=0 note=84 velocity=0 time=0.23069111458333333
EXTRACT: note_on channel=1 note=61 velocity=0 time=0
EXTRACT: note_on channel=1 note=70 velocity=0 time=0
EXTRACT: note_on channel=0 note=85 velocity=96 time=0.013211385416666666
EXTRACT: note_on channel=1 note=58 velocity=80 time=0
EXTRACT: note_on channel=1 note=65 velocity=80 time=0
EXTRACT: note_on channel=0 note=85 velocity=0 time=0.23069111458333333
EXTRACT: note_on channel=1 note=58 velocity=0 time=0
EXTRACT: note_on channel=1 note=65 velocity=0 time=0
EXTRACT: note_on channel=0 note=80 velocity=96 time=0.013211385416666666
EXTRACT: note_on channel=1 note=61 velocity=80 time=0
EXTRACT: note_on channel=1 note=70 velocity=80 time=0
EXTRACT: note_on channel=1 note=61 velocity=0 time=0.23069111458333333
EXTRACT: note_on channel=1 note=70 velocity=0 time=0
EXTRACT: note_on channel=1 note=58 velocity=80 time=0.013211385416666666
EXTRACT: note_on channel=1 note=65 velocity=80 time=0
EXTRACT: note_on channel=1 note=34 velocity=0 time=0.19410573958333333
EXTRACT: note_on channel=1 note=46 velocity=0 time=0
EXTRACT: note_on channel=1 note=58 velocity=0 time=0.036585374999999996
EXTRACT: note_on channel=1 note=65 velocity=0 time=0
EXTRACT: note_on channel=1 note=61 velocity=80 time=0.013211385416666666
EXTRACT: note_on channel=1 note=68 velocity=80 time=0
EXTRACT: note_on channel=1 note=32 velocity=80 time=0
EXTRACT: note_on channel=1 note=44 velocity=80 time=0
EXTRACT: control_change channel=1 control=64 value=0 time=0.0010162604166666666
EXTRACT: control_change channel=1 control=64 value=127 time=0.0010162604166666666
EXTRACT: note_on channel=0 note=80 velocity=0 time=0.20426834375
EXTRACT: note_on channel=1 note=61 velocity=0 time=0.02439025
EXTRACT: note_on channel=1 note=68 velocity=0 time=0
EXTRACT: note_on channel=0 note=80 velocity=96 time=0.013211385416666666
EXTRACT: note_on channel=1 note=56 velocity=80 time=0
EXTRACT: note_on channel=1 note=65 velocity=80 time=0
EXTRACT: note_on channel=1 note=56 velocity=0 time=0.23069111458333333
EXTRACT: note_on channel=1 note=65 velocity=0 time=0
EXTRACT: note_on channel=1 note=61 velocity=80 time=0.013211385416666666
EXTRACT: note_on channel=1 note=68 velocity=80 time=0
EXTRACT: note_on channel=0 note=80 velocity=0 time=0.21849598958333333
EXTRACT: note_on channel=1 note=61 velocity=0 time=0.012195125
EXTRACT: note_on channel=1 note=68 velocity=0 time=0
EXTRACT: note_on channel=0 note=77 velocity=96 time=0.013211385416666666
EXTRACT: note_on channel=1 note=56 velocity=80 time=0
EXTRACT: note_on channel=1 note=65 velocity=80 time=0
EXTRACT: note_on channel=1 note=32 velocity=0 time=0.19410573958333333
EXTRACT: note_on channel=1 note=44 velocity=0 time=0
EXTRACT: note_on channel=0 note=77 velocity=0 time=0.036585374999999996
EXTRACT: note_on channel=1 note=56 velocity=0 time=0
EXTRACT: note_on channel=1 note=65 velocity=0 time=0
EXTRACT: note_on channel=0 note=80 velocity=96 time=0.013211385416666666
EXTRACT: note_on channel=1 note=61 velocity=80 time=0
EXTRACT: note_on channel=1 note=68 velocity=80 time=0
EXTRACT: note_on channel=1 note=32 velocity=80 time=0
EXTRACT: note_on channel=1 note=44 velocity=80 time=0
EXTRACT: note_on channel=1 note=61 velocity=0 time=0.23069111458333333
EXTRACT: note_on channel=1 note=68 velocity=0 time=0
EXTRACT: note_on channel=1 note=56 velocity=80 time=0.013211385416666666
EXTRACT: note_on channel=1 note=65 velocity=80 time=0
EXTRACT: note_on channel=0 note=80 velocity=0 time=0.21849598958333333
EXTRACT: note_on channel=1 note=56 velocity=0 time=0.012195125
EXTRACT: note_on channel=1 note=65 velocity=0 time=0
EXTRACT: note_on channel=0 note=80 velocity=96 time=0.013211385416666666
EXTRACT: note_on channel=1 note=61 velocity=80 time=0
EXTRACT: note_on channel=1 note=68 velocity=80 time=0
EXTRACT: note_on channel=1 note=61 velocity=0 time=0.23069111458333333
EXTRACT: note_on channel=1 note=68 velocity=0 time=0
EXTRACT: note_on channel=1 note=56 velocity=80 time=0.013211385416666666
EXTRACT: note_on channel=1 note=65 velocity=80 time=0
EXTRACT: note_on channel=1 note=32 velocity=0 time=0.19410573958333333
EXTRACT: note_on channel=1 note=44 velocity=0 time=0
EXTRACT: note_on channel=1 note=56 velocity=0 time=0.036585374999999996
EXTRACT: note_on channel=1 note=65 velocity=0 time=0
EXTRACT: note_on channel=1 note=61 velocity=80 time=0.013211385416666666
EXTRACT: note_on channel=1 note=68 velocity=80 time=0
EXTRACT: note_on channel=1 note=29 velocity=80 time=0
EXTRACT: note_on channel=1 note=41 velocity=80 time=0
EXTRACT: control_change channel=1 control=64 value=0 time=0.0010162604166666666
EXTRACT: control_change channel=1 control=64 value=127 time=0.0010162604166666666
EXTRACT: note_on channel=0 note=80 velocity=0 time=0.20426834375
EXTRACT: note_on channel=1 note=61 velocity=0 time=0.02439025
EXTRACT: note_on channel=1 note=68 velocity=0 time=0
EXTRACT: note_on channel=0 note=80 velocity=96 time=0.013211385416666666
EXTRACT: note_on channel=1 note=56 velocity=80 time=0
EXTRACT: note_on channel=1 note=65 velocity=80 time=0
EXTRACT: note_on channel=1 note=56 velocity=0 time=0.23069111458333333
EXTRACT: note_on channel=1 note=65 velocity=0 time=0
EXTRACT: note_on channel=1 note=61 velocity=80 time=0.013211385416666666
EXTRACT: note_on channel=1 note=68 velocity=80 time=0
EXTRACT: note_on channel=0 note=80 velocity=0 time=0.21849598958333333
EXTRACT: note_on channel=1 note=61 velocity=0 time=0.012195125
EXTRACT: note_on channel=1 note=68 velocity=0 time=0
EXTRACT: note_on channel=0 note=77 velocity=96 time=0.013211385416666666
EXTRACT: note_on channel=1 note=56 velocity=80 time=0
EXTRACT: note_on channel=1 note=65 velocity=80 time=0
EXTRACT: note_on channel=1 note=29 velocity=0 time=0.19410573958333333
EXTRACT: note_on channel=1 note=41 velocity=0 time=0
EXTRACT: note_on channel=1 note=56 velocity=0 time=0.036585374999999996
EXTRACT: note_on channel=1 note=65 velocity=0 time=0
EXTRACT: note_on channel=1 note=61 velocity=80 time=0.013211385416666666
EXTRACT: note_on channel=1 note=68 velocity=80 time=0
EXTRACT: note_on channel=1 note=29 velocity=80 time=0
EXTRACT: note_on channel=1 note=41 velocity=80 time=0
EXTRACT: note_on channel=0 note=77 velocity=0 time=0.21849598958333333
EXTRACT: note_on channel=1 note=61 velocity=0 time=0.012195125
EXTRACT: note_on channel=1 note=68 velocity=0 time=0
EXTRACT: note_on channel=0 note=85 velocity=96 time=0.013211385416666666
EXTRACT: note_on channel=1 note=56 velocity=80 time=0
EXTRACT: note_on channel=1 note=65 velocity=80 time=0
EXTRACT: note_on channel=1 note=56 velocity=0 time=0.23069111458333333
EXTRACT: note_on channel=1 note=65 velocity=0 time=0
EXTRACT: note_on channel=1 note=61 velocity=80 time=0.013211385416666666
EXTRACT: note_on channel=1 note=68 velocity=80 time=0
EXTRACT: note_on channel=1 note=61 velocity=0 time=0.23069111458333333
EXTRACT: note_on channel=1 note=68 velocity=0 time=0
EXTRACT: note_on channel=1 note=56 velocity=80 time=0.013211385416666666
EXTRACT: note_on channel=1 note=65 velocity=80 time=0
EXTRACT: note_on channel=1 note=29 velocity=0 time=0.19410573958333333
EXTRACT: note_on channel=1 note=41 velocity=0 time=0
EXTRACT: note_on channel=1 note=56 velocity=0 time=0.036585374999999996
EXTRACT: note_on channel=1 note=65 velocity=0 time=0
EXTRACT: note_on channel=1 note=61 velocity=80 time=0.013211385416666666
EXTRACT: note_on channel=1 note=66 velocity=80 time=0
EXTRACT: note_on channel=1 note=30 velocity=80 time=0
EXTRACT: note_on channel=1 note=42 velocity=80 time=0
EXTRACT: control_change channel=1 control=64 value=0 time=0.0010162604166666666
EXTRACT: control_change channel=1 control=64 value=127 time=0.0010162604166666666
EXTRACT: note_on channel=0 note=85 velocity=0 time=0.19207321875
EXTRACT: note_on channel=1 note=61 velocity=0 time=0.036585374999999996
EXTRACT: note_on channel=1 note=66 velocity=0 time=0
EXTRACT: note_on channel=0 note=82 velocity=96 time=0.013211385416666666
EXTRACT: note_on channel=1 note=58 velocity=80 time=0
EXTRACT: note_on channel=1 note=65 velocity=80 time=0
EXTRACT: note_on channel=1 note=58 velocity=0 time=0.23069111458333333
EXTRACT: note_on channel=1 note=65 velocity=0 time=0
EXTRACT: note_on channel=1 note=61 velocity=80 time=0.013211385416666666
EXTRACT: note_on channel=1 note=66 velocity=80 time=0
EXTRACT: note_on channel=1 note=61 velocity=0 time=0.23069111458333333
EXTRACT: note_on channel=1 note=66 velocity=0 time=0
EXTRACT: note_on channel=1 note=58 velocity=80 time=0.013211385416666666
EXTRACT: note_on channel=1 note=65 velocity=80 time=0
EXTRACT: note_on channel=1 note=30 velocity=0 time=0.19410573958333333
EXTRACT: note_on channel=1 note=42 velocity=0 time=0
EXTRACT: note_on channel=0 note=82 velocity=0 time=0.012195125
EXTRACT: note_on channel=1 note=58 velocity=0 time=0.02439025
EXTRACT: note_on channel=1 note=65 velocity=0 time=0
EXTRACT: note_on channel=1 note=61 velocity=80 time=0.013211385416666666
EXTRACT: note_on channel=1 note=66 velocity=80 time=0
EXTRACT: note_on channel=1 note=30 velocity=80 time=0
EXTRACT: note_on channel=1 note=42 velocity=80 time=0
EXTRACT: note_on channel=1 note=61 velocity=0 time=0.23069111458333333
EXTRACT: note_on channel=1 note=66 velocity=0 time=0
EXTRACT: note_on channel=1 note=58 velocity=80 time=0.013211385416666666
EXTRACT: note_on channel=1 note=65 velocity=80 time=0
EXTRACT: note_on channel=1 note=58 velocity=0 time=0.23069111458333333
EXTRACT: note_on channel=1 note=65 velocity=0 time=0
EXTRACT: note_on channel=1 note=61 velocity=80 time=0.013211385416666666
EXTRACT: note_on channel=1 note=66 velocity=80 time=0
EXTRACT: note_on channel=1 note=61 velocity=0 time=0.23069111458333333
EXTRACT: note_on channel=1 note=66 velocity=0 time=0
EXTRACT: note_on channel=0 note=75 velocity=96 time=0.013211385416666666
EXTRACT: note_on channel=1 note=58 velocity=80 time=0
EXTRACT: note_on channel=1 note=65 velocity=80 time=0
EXTRACT: note_on channel=1 note=30 velocity=0 time=0.19410573958333333
EXTRACT: note_on channel=1 note=42 velocity=0 time=0
EXTRACT: note_on channel=0 note=75 velocity=0 time=0.036585374999999996
EXTRACT: note_on channel=1 note=58 velocity=0 time=0
EXTRACT: note_on channel=1 note=65 velocity=0 time=0
EXTRACT: note_on channel=0 note=77 velocity=96 time=0.013211385416666666
EXTRACT: note_on channel=1 note=61 velocity=80 time=0
EXTRACT: note_on channel=1 note=70 velocity=80 time=0
EXTRACT: note_on channel=1 note=34 velocity=80 time=0
EXTRACT: note_on channel=1 note=46 velocity=80 time=0
EXTRACT: control_change channel=1 control=64 value=0 time=0.0010162604166666666
EXTRACT: control_change channel=1 control=64 value=127 time=0.0010162604166666666
EXTRACT: note_on channel=0 note=77 velocity=0 time=0.22865859375
EXTRACT: note_on channel=1 note=61 velocity=0 time=0
EXTRACT: note_on channel=1 note=70 velocity=0 time=0
EXTRACT: note_on channel=0 note=75 velocity=96 time=0.013211385416666666
EXTRACT: note_on channel=1 note=58 velocity=80 time=0
EXTRACT: note_on channel=1 note=65 velocity=80 time=0
EXTRACT: note_on channel=0 note=75 velocity=0 time=0.23069111458333333
EXTRACT: note_on channel=1 note=58 velocity=0 time=0
EXTRACT: note_on channel=1 note=65 velocity=0 time=0
EXTRACT: note_on channel=0 note=77 velocity=96 time=0.013211385416666666
EXTRACT: note_on channel=1 note=61 velocity=80 time=0
EXTRACT: note_on channel=1 note=70 velocity=80 time=0
EXTRACT: note_on channel=0 note=77 velocity=0 time=0.23069111458333333
EXTRACT: note_on channel=1 note=61 velocity=0 time=0
EXTRACT: note_on channel=1 note=70 velocity=0 time=0
EXTRACT: note_on channel=0 note=75 velocity=96 time=0.013211385416666666
EXTRACT: note_on channel=1 note=58 velocity=80 time=0
EXTRACT: note_on channel=1 note=65 velocity=80 time=0
EXTRACT: note_on channel=1 note=34 velocity=0 time=0.19410573958333333
EXTRACT: note_on channel=1 note=46 velocity=0 time=0
EXTRACT: note_on channel=0 note=75 velocity=0 time=0.036585374999999996
EXTRACT: note_on channel=1 note=58 velocity=0 time=0
EXTRACT: note_on channel=1 note=65 velocity=0 time=0
EXTRACT: note_on channel=0 note=77 velocity=96 time=0.013211385416666666
EXTRACT: note_on channel=1 note=61 velocity=80 time=0
EXTRACT: note_on channel=1 note=70 velocity=80 time=0
EXTRACT: note_on channel=1 note=34 velocity=80 time=0
EXTRACT: note_on channel=1 note=46 velocity=80 time=0
EXTRACT: note_on channel=1 note=61 velocity=0 time=0.23069111458333333
EXTRACT: note_on channel=1 note=70 velocity=0 time=0
EXTRACT: note_on channel=1 note=58 velocity=80 time=0.013211385416666666
EXTRACT: note_on channel=1 note=65 velocity=80 time=0
EXTRACT: note_on channel=0 note=77 velocity=0 time=0.10264230208333333
EXTRACT: note_on channel=0 note=75 velocity=96 time=0.019308947916666666
EXTRACT: note_on channel=1 note=58 velocity=0 time=0.10873986458333333
EXTRACT: note_on channel=1 note=65 velocity=0 time=0
EXTRACT: note_on channel=1 note=61 velocity=80 time=0.013211385416666666
EXTRACT: note_on channel=1 note=70 velocity=80 time=0
EXTRACT: note_on channel=0 note=75 velocity=0 time=0.22459355208333331
EXTRACT: note_on channel=1 note=61 velocity=0 time=0.0060975625
EXTRACT: note_on channel=1 note=70 velocity=0 time=0
EXTRACT: note_on channel=0 note=75 velocity=96 time=0.013211385416666666
EXTRACT: note_on channel=1 note=58 velocity=80 time=0
EXTRACT: note_on channel=1 note=65 velocity=80 time=0
EXTRACT: note_on channel=1 note=34 velocity=0 time=0.19410573958333333
EXTRACT: note_on channel=1 note=46 velocity=0 time=0
EXTRACT: note_on channel=1 note=58 velocity=0 time=0.036585374999999996
EXTRACT: note_on channel=1 note=65 velocity=0 time=0
EXTRACT: note_on channel=1 note=61 velocity=80 time=0.013211385416666666
EXTRACT: note_on channel=1 note=68 velocity=80 time=0
EXTRACT: note_on channel=1 note=32 velocity=80 time=0
EXTRACT: note_on channel=1 note=44 velocity=80 time=0
EXTRACT: control_change channel=1 control=64 value=0 time=0.0010162604166666666
EXTRACT: control_change channel=1 control=64 value=127 time=0.0010162604166666666
EXTRACT: note_on channel=1 note=61 velocity=0 time=0.22865859375
EXTRACT: note_on channel=1 note=68 velocity=0 time=0
EXTRACT: note_on channel=1 note=56 velocity=80 time=0.013211385416666666
EXTRACT: note_on channel=1 note=65 velocity=80 time=0
EXTRACT: note_on channel=0 note=75 velocity=0 time=0.20630086458333333
EXTRACT: note_on channel=1 note=56 velocity=0 time=0.02439025
EXTRACT: note_on channel=1 note=65 velocity=0 time=0
EXTRACT: note_on channel=0 note=80 velocity=96 time=0.013211385416666666
EXTRACT: note_on channel=1 note=61 velocity=80 time=0
EXTRACT: note_on channel=1 note=68 velocity=80 time=0
EXTRACT: note_on channel=1 note=61 velocity=0 time=0.23069111458333333
EXTRACT: note_on channel=1 note=68 velocity=0 time=0
EXTRACT: note_on channel=1 note=56 velocity=80 time=0.013211385416666666
EXTRACT: note_on channel=1 note=65 velocity=80 time=0
EXTRACT: note_on channel=1 note=32 velocity=0 time=0.19410573958333333
EXTRACT: note_on channel=1 note=44 velocity=0 time=0
EXTRACT: note_on channel=1 note=56 velocity=0 time=0.036585374999999996
EXTRACT: note_on channel=1 note=65 velocity=0 time=0
EXTRACT: note_on channel=1 note=61 velocity=80 time=0.013211385416666666
EXTRACT: note_on channel=1 note=68 velocity=80 time=0
EXTRACT: note_on channel=1 note=32 velocity=80 time=0
EXTRACT: note_on channel=1 note=44 velocity=80 time=0
EXTRACT: note_on channel=0 note=80 velocity=0 time=0.20630086458333333
EXTRACT: note_on channel=1 note=61 velocity=0 time=0.02439025
EXTRACT: note_on channel=1 note=68 velocity=0 time=0
EXTRACT: note_on channel=0 note=77 velocity=96 time=0.013211385416666666
EXTRACT: note_on channel=1 note=56 velocity=80 time=0
EXTRACT: note_on channel=1 note=65 velocity=80 time=0
EXTRACT: note_on channel=1 note=56 velocity=0 time=0.23069111458333333
EXTRACT: note_on channel=1 note=65 velocity=0 time=0
EXTRACT: note_on channel=1 note=61 velocity=80 time=0.013211385416666666
EXTRACT: note_on channel=1 note=68 velocity=80 time=0
EXTRACT: note_on channel=1 note=61 velocity=0 time=0.23069111458333333
EXTRACT: note_on channel=1 note=68 velocity=0 time=0
EXTRACT: note_on channel=1 note=56 velocity=80 time=0.013211385416666666
EXTRACT: note_on channel=1 note=65 velocity=80 time=0
EXTRACT: note_on channel=1 note=32 velocity=0 time=0.19410573958333333
EXTRACT: note_on channel=1 note=44 velocity=0 time=0
EXTRACT: note_on channel=1 note=56 velocity=0 time=0.036585374999999996
EXTRACT: note_on channel=1 note=65 velocity=0 time=0
EXTRACT: note_on channel=1 note=61 velocity=80 time=0.013211385416666666
EXTRACT: note_on channel=1 note=68 velocity=80 time=0
EXTRACT: note_on channel=1 note=29 velocity=80 time=0
EXTRACT: note_on channel=1 note=41 velocity=80 time=0
EXTRACT: control_change channel=1 control=64 value=0 time=0.0010162604166666666
EXTRACT: control_change channel=1 control=64 value=127 time=0.0010162604166666666
EXTRACT: note_on channel=1 note=61 velocity=0 time=0.22865859375
EXTRACT: note_on channel=1 note=68 velocity=0 time=0
EXTRACT: note_on channel=1 note=56 velocity=80 time=0.013211385416666666
EXTRACT: note_on channel=1 note=65 velocity=80 time=0
EXTRACT: note_on channel=1 note=56 velocity=0 time=0.23069111458333333
EXTRACT: note_on channel=1 note=65 velocity=0 time=0
EXTRACT: note_on channel=1 note=61 velocity=80 time=0.013211385416666666
EXTRACT: note_on channel=1 note=68 velocity=80 time=0
EXTRACT: note_on channel=1 note=61 velocity=0 time=0.23069111458333333
EXTRACT: note_on channel=1 note=68 velocity=0 time=0
EXTRACT: note_on channel=1 note=56 velocity=80 time=0.013211385416666666
EXTRACT: note_on channel=1 note=65 velocity=80 time=0
EXTRACT: note_on channel=0 note=77 velocity=0 time=0.15752036458333332
EXTRACT: note_on channel=1 note=29 velocity=0 time=0.036585374999999996
EXTRACT: note_on channel=1 note=41 velocity=0 time=0
EXTRACT: note_on channel=1 note=56 velocity=0 time=0.036585374999999996
EXTRACT: note_on channel=1 note=65 velocity=0 time=0
EXTRACT: note_on channel=1 note=61 velocity=80 time=0.013211385416666666
EXTRACT: note_on channel=1 note=68 velocity=80 time=0
EXTRACT: note_on channel=1 note=29 velocity=80 time=0
EXTRACT: note_on channel=1 note=41 velocity=80 time=0
EXTRACT: note_on channel=1 note=61 velocity=0 time=0.23069111458333333
EXTRACT: note_on channel=1 note=68 velocity=0 time=0
EXTRACT: note_on channel=1 note=56 velocity=80 time=0.013211385416666666
EXTRACT: note_on channel=1 note=65 velocity=80 time=0
EXTRACT: note_on channel=0 note=73 velocity=96 time=0.12195125
EXTRACT: note_on channel=1 note=56 velocity=0 time=0.10873986458333333
EXTRACT: note_on channel=1 note=65 velocity=0 time=0
EXTRACT: note_on channel=0 note=73 velocity=0 time=0.0060975625
EXTRACT: note_on channel=0 note=73 velocity=96 time=0.007113822916666667
EXTRACT: note_on channel=1 note=61 velocity=80 time=0
EXTRACT: note_on channel=1 note=68 velocity=80 time=0
EXTRACT: note_on channel=0 note=73 velocity=0 time=0.11483742708333333
EXTRACT: note_on channel=0 note=75 velocity=96 time=0.007113822916666667
EXTRACT: note_on channel=1 note=61 velocity=0 time=0.10873986458333333
EXTRACT: note_on channel=1 note=68 velocity=0 time=0
EXTRACT: note_on channel=0 note=75 velocity=0 time=0.0060975625
EXTRACT: note_on channel=0 note=73 velocity=96 time=0.007113822916666667
EXTRACT: note_on channel=1 note=56 velocity=80 time=0
EXTRACT: note_on channel=1 note=65 velocity=80 time=0
EXTRACT: note_on channel=1 note=29 velocity=0 time=0.19410573958333333
EXTRACT: note_on channel=1 note=41 velocity=0 time=0
EXTRACT: note_on channel=1 note=56 velocity=0 time=0.036585374999999996
EXTRACT: note_on channel=1 note=65 velocity=0 time=0
EXTRACT: note_on channel=1 note=61 velocity=80 time=0.013211385416666666
EXTRACT: note_on channel=1 note=66 velocity=80 time=0
EXTRACT: note_on channel=1 note=30 velocity=80 time=0
EXTRACT: note_on channel=1 note=42 velocity=80 time=0
EXTRACT: control_change channel=1 control=64 value=0 time=0.0010162604166666666
EXTRACT: control_change channel=1 control=64 value=127 time=0.0010162604166666666
EXTRACT: note_on channel=1 note=61 velocity=0 time=0.22865859375
EXTRACT: note_on channel=1 note=66 velocity=0 time=0
EXTRACT: note_on channel=1 note=58 velocity=80 time=0.013211385416666666
EXTRACT: note_on channel=1 note=65 velocity=80 time=0
EXTRACT: note_on channel=1 note=58 velocity=0 time=0.23069111458333333
EXTRACT: note_on channel=1 note=65 velocity=0 time=0
EXTRACT: note_on channel=1 note=61 velocity=80 time=0.013211385416666666
EXTRACT: note_on channel=1 note=66 velocity=80 time=0
EXTRACT: note_on channel=1 note=61 velocity=0 time=0.23069111458333333
EXTRACT: note_on channel=1 note=66 velocity=0 time=0
EXTRACT: note_on channel=1 note=58 velocity=80 time=0.013211385416666666
EXTRACT: note_on channel=1 note=65 velocity=80 time=0
EXTRACT: note_on channel=0 note=73 velocity=0 time=0.18191061458333332
EXTRACT: note_on channel=1 note=30 velocity=0 time=0.012195125
EXTRACT: note_on channel=1 note=42 velocity=0 time=0
EXTRACT: note_on channel=1 note=58 velocity=0 time=0.036585374999999996
EXTRACT: note_on channel=1 note=65 velocity=0 time=0
EXTRACT: note_on channel=1 note=61 velocity=80 time=0.013211385416666666
EXTRACT: note_on channel=1 note=66 velocity=80 time=0
EXTRACT: note_on channel=1 note=30 velocity=80 time=0
EXTRACT: note_on channel=1 note=42 velocity=80 time=0
EXTRACT: note_on channel=1 note=61 velocity=0 time=0.23069111458333333
EXTRACT: note_on channel=1 note=66 velocity=0 time=0
EXTRACT: note_on channel=0 note=75 velocity=96 time=0.013211385416666666
EXTRACT: note_on channel=1 note=58 velocity=80 time=0
EXTRACT: note_on channel=1 note=65 velocity=80 time=0
EXTRACT: note_on channel=0 note=75 velocity=0 time=0.23069111458333333
EXTRACT: note_on channel=1 note=58 velocity=0 time=0
EXTRACT: note_on channel=1 note=65 velocity=0 time=0
EXTRACT: note_on channel=0 note=77 velocity=96 time=0.013211385416666666
EXTRACT: note_on channel=1 note=61 velocity=80 time=0
EXTRACT: note_on channel=1 note=66 velocity=80 time=0
EXTRACT: note_on channel=0 note=77 velocity=0 time=0.23069111458333333
EXTRACT: note_on channel=1 note=61 velocity=0 time=0
EXTRACT: note_on channel=1 note=66 velocity=0 time=0
EXTRACT: note_on channel=0 note=75 velocity=96 time=0.013211385416666666
EXTRACT: note_on channel=1 note=58 velocity=80 time=0
EXTRACT: note_on channel=1 note=65 velocity=80 time=0
EXTRACT: note_on channel=1 note=30 velocity=0 time=0.19410573958333333
EXTRACT: note_on channel=1 note=42 velocity=0 time=0
EXTRACT: note_on channel=0 note=75 velocity=0 time=0.036585374999999996
EXTRACT: note_on channel=1 note=58 velocity=0 time=0
EXTRACT: note_on channel=1 note=65 velocity=0 time=0
EXTRACT: note_on channel=0 note=77 velocity=96 time=0.013211385416666666
EXTRACT: note_on channel=1 note=61 velocity=80 time=0
EXTRACT: note_on channel=1 note=70 velocity=80 time=0
EXTRACT: note_on channel=1 note=34 velocity=80 time=0
EXTRACT: note_on channel=1 note=46 velocity=80 time=0
EXTRACT: control_change channel=1 control=64 value=0 time=0.0010162604166666666
EXTRACT: control_change channel=1 control=64 value=127 time=0.0010162604166666666
EXTRACT: note_on channel=0 note=77 velocity=0 time=0.22865859375
EXTRACT: note_on channel=1 note=61 velocity=0 time=0
EXTRACT: note_on channel=1 note=70 velocity=0 time=0
EXTRACT: note_on channel=0 note=75 velocity=96 time=0.013211385416666666
EXTRACT: note_on channel=1 note=58 velocity=80 time=0
EXTRACT: note_on channel=1 note=65 velocity=80 time=0
EXTRACT: note_on channel=0 note=75 velocity=0 time=0.23069111458333333
EXTRACT: note_on channel=1 note=58 velocity=0 time=0
EXTRACT: note_on channel=1 note=65 velocity=0 time=0
EXTRACT: note_on channel=0 note=77 velocity=96 time=0.013211385416666666
EXTRACT: note_on channel=1 note=61 velocity=80 time=0
EXTRACT: note_on channel=1 note=70 velocity=80 time=0
EXTRACT: note_on channel=0 note=77 velocity=0 time=0.23069111458333333
EXTRACT: note_on channel=1 note=61 velocity=0 time=0
EXTRACT: note_on channel=1 note=70 velocity=0 time=0
EXTRACT: note_on channel=0 note=75 velocity=96 time=0.013211385416666666
EXTRACT: note_on channel=1 note=58 velocity=80 time=0
EXTRACT: note_on channel=1 note=65 velocity=80 time=0
EXTRACT: note_on channel=1 note=34 velocity=0 time=0.19410573958333333
EXTRACT: note_on channel=1 note=46 velocity=0 time=0
EXTRACT: note_on channel=0 note=75 velocity=0 time=0.036585374999999996
EXTRACT: note_on channel=1 note=58 velocity=0 time=0
EXTRACT: note_on channel=1 note=65 velocity=0 time=0
EXTRACT: note_on channel=0 note=77 velocity=96 time=0.013211385416666666
EXTRACT: note_on channel=1 note=61 velocity=80 time=0
EXTRACT: note_on channel=1 note=70 velocity=80 time=0
EXTRACT: note_on channel=1 note=34 velocity=80 time=0
EXTRACT: note_on channel=1 note=46 velocity=80 time=0
EXTRACT: note_on channel=0 note=77 velocity=0 time=0.23069111458333333
EXTRACT: note_on channel=1 note=61 velocity=0 time=0
EXTRACT: note_on channel=1 note=70 velocity=0 time=0
EXTRACT: note_on channel=0 note=75 velocity=96 time=0.013211385416666666
EXTRACT: note_on channel=1 note=58 velocity=80 time=0
EXTRACT: note_on channel=1 note=65 velocity=80 time=0
EXTRACT: note_on channel=0 note=75 velocity=0 time=0.23069111458333333
EXTRACT: note_on channel=1 note=58 velocity=0 time=0
EXTRACT: note_on channel=1 note=65 velocity=0 time=0
EXTRACT: note_on channel=0 note=75 velocity=96 time=0.013211385416666666
EXTRACT: note_on channel=1 note=61 velocity=80 time=0
EXTRACT: note_on channel=1 note=70 velocity=80 time=0
EXTRACT: note_on channel=1 note=61 velocity=0 time=0.23069111458333333
EXTRACT: note_on channel=1 note=70 velocity=0 time=0
EXTRACT: note_on channel=1 note=58 velocity=80 time=0.013211385416666666
EXTRACT: note_on channel=1 note=65 velocity=80 time=0
EXTRACT: note_on channel=1 note=34 velocity=0 time=0.19410573958333333
EXTRACT: note_on channel=1 note=46 velocity=0 time=0
EXTRACT: note_on channel=0 note=75 velocity=0 time=0.02439025
EXTRACT: note_on channel=1 note=58 velocity=0 time=0.012195125
EXTRACT: note_on channel=1 note=65 velocity=0 time=0
EXTRACT: note_on channel=1 note=61 velocity=80 time=0.013211385416666666
EXTRACT: note_on channel=1 note=68 velocity=80 time=0
EXTRACT: note_on channel=1 note=32 velocity=80 time=0
EXTRACT: note_on channel=1 note=44 velocity=80 time=0
EXTRACT: control_change channel=1 control=64 value=0 time=0.0010162604166666666
EXTRACT: control_change channel=1 control=64 value=127 time=0.0010162604166666666
EXTRACT: note_on channel=1 note=61 velocity=0 time=0.22865859375
EXTRACT: note_on channel=1 note=68 velocity=0 time=0
EXTRACT: note_on channel=0 note=73 velocity=96 time=0.013211385416666666
EXTRACT: note_on channel=1 note=56 velocity=80 time=0
EXTRACT: note_on channel=1 note=65 velocity=80 time=0
EXTRACT: note_on channel=0 note=73 velocity=0 time=0.23069111458333333
EXTRACT: note_on channel=1 note=56 velocity=0 time=0
EXTRACT: note_on channel=1 note=65 velocity=0 time=0
EXTRACT: note_on channel=0 note=75 velocity=96 time=0.013211385416666666
EXTRACT: note_on channel=1 note=61 velocity=80 time=0
EXTRACT: note_on channel=1 note=68 velocity=80 time=0
EXTRACT: note_on channel=0 note=75 velocity=0 time=0.23069111458333333
EXTRACT: note_on channel=1 note=61 velocity=0 time=0
EXTRACT: note_on channel=1 note=68 velocity=0 time=0
EXTRACT: note_on channel=0 note=77 velocity=96 time=0.013211385416666666
EXTRACT: note_on channel=1 note=56 velocity=80 time=0
EXTRACT: note_on channel=1 note=65 velocity=80 time=0
EXTRACT: note_on channel=1 note=32 velocity=0 time=0.19410573958333333
EXTRACT: note_on channel=1 note=44 velocity=0 time=0
EXTRACT: note_on channel=0 note=77 velocity=0 time=0.036585374999999996
EXTRACT: note_on channel=1 note=56 velocity=0 time=0
EXTRACT: note_on channel=1 note=65 velocity=0 time=0
EXTRACT: note_on channel=0 note=75 velocity=96 time=0.013211385416666666
EXTRACT: note_on channel=1 note=61 velocity=80 time=0
EXTRACT: note_on channel=1 note=68 velocity=80 time=0
EXTRACT: note_on channel=1 note=32 velocity=80 time=0
EXTRACT: note_on channel=1 note=44 velocity=80 time=0
EXTRACT: note_on channel=0 note=75 velocity=0 time=0.23069111458333333
EXTRACT: note_on channel=1 note=61 velocity=0 time=0
EXTRACT: note_on channel=1 note=68 velocity=0 time=0
EXTRACT: note_on channel=0 note=73 velocity=96 time=0.013211385416666666
EXTRACT: note_on channel=1 note=56 velocity=80 time=0
EXTRACT: note_on channel=1 note=65 velocity=80 time=0
EXTRACT: note_on channel=1 note=56 velocity=0 time=0.23069111458333333
EXTRACT: note_on channel=1 note=65 velocity=0 time=0
EXTRACT: note_on channel=1 note=61 velocity=80 time=0.013211385416666666
EXTRACT: note_on channel=1 note=68 velocity=80 time=0
EXTRACT: note_on channel=1 note=61 velocity=0 time=0.23069111458333333
EXTRACT: note_on channel=1 note=68 velocity=0 time=0
EXTRACT: note_on channel=1 note=56 velocity=80 time=0.013211385416666666
EXTRACT: note_on channel=1 note=65 velocity=80 time=0
EXTRACT: note_on channel=1 note=32 velocity=0 time=0.19410573958333333
EXTRACT: note_on channel=1 note=44 velocity=0 time=0
EXTRACT: note_on channel=0 note=73 velocity=0 time=0.012195125
EXTRACT: note_on channel=1 note=56 velocity=0 time=0.02439025
EXTRACT: note_on channel=1 note=65 velocity=0 time=0
EXTRACT: note_on channel=1 note=61 velocity=80 time=0.013211385416666666
EXTRACT: note_on channel=1 note=68 velocity=80 time=0
EXTRACT: note_on channel=1 note=29 velocity=80 time=0
EXTRACT: note_on channel=1 note=41 velocity=80 time=0
EXTRACT: control_change channel=1 control=64 value=0 time=0.0010162604166666666
EXTRACT: control_change channel=1 control=64 value=127 time=0.0010162604166666666
EXTRACT: note_on channel=1 note=61 velocity=0 time=0.22865859375
EXTRACT: note_on channel=1 note=68 velocity=0 time=0
EXTRACT: note_on channel=0 note=72 velocity=96 time=0.013211385416666666
EXTRACT: note_on channel=1 note=56 velocity=80 time=0
EXTRACT: note_on channel=1 note=65 velocity=80 time=0
EXTRACT: note_on channel=1 note=56 velocity=0 time=0.23069111458333333
EXTRACT: note_on channel=1 note=65 velocity=0 time=0
EXTRACT: note_on channel=1 note=61 velocity=80 time=0.013211385416666666
EXTRACT: note_on channel=1 note=68 velocity=80 time=0
EXTRACT: note_on channel=1 note=61 velocity=0 time=0.23069111458333333
EXTRACT: note_on channel=1 note=68 velocity=0 time=0
EXTRACT: note_on channel=1 note=56 velocity=80 time=0.013211385416666666
EXTRACT: note_on channel=1 note=65 velocity=80 time=0
EXTRACT: note_on channel=1 note=29 velocity=0 time=0.19410573958333333
EXTRACT: note_on channel=1 note=41 velocity=0 time=0
EXTRACT: note_on channel=0 note=72 velocity=0 time=0.012195125
EXTRACT: note_on channel=1 note=56 velocity=0 time=0.02439025
EXTRACT: note_on channel=1 note=65 velocity=0 time=0
EXTRACT: note_on channel=0 note=72 velocity=96 time=0.013211385416666666
EXTRACT: note_on channel=1 note=61 velocity=80 time=0
EXTRACT: note_on channel=1 note=68 velocity=80 time=0
EXTRACT: note_on channel=1 note=29 velocity=80 time=0
EXTRACT: note_on channel=1 note=41 velocity=80 time=0
EXTRACT: note_on channel=0 note=72 velocity=0 time=0.23069111458333333
EXTRACT: note_on channel=1 note=61 velocity=0 time=0
EXTRACT: note_on channel=1 note=68 velocity=0 time=0
EXTRACT: note_on channel=0 note=73 velocity=96 time=0.013211385416666666
EXTRACT: note_on channel=1 note=56 velocity=80 time=0
EXTRACT: note_on channel=1 note=65 velocity=80 time=0
EXTRACT: note_on channel=1 note=56 velocity=0 time=0.23069111458333333
EXTRACT: note_on channel=1 note=65 velocity=0 time=0
EXTRACT: note_on channel=1 note=61 velocity=80 time=0.013211385416666666
EXTRACT: note_on channel=1 note=68 velocity=80 time=0
EXTRACT: note_on channel=0 note=73 velocity=0 time=0.21849598958333333
EXTRACT: note_on channel=1 note=61 velocity=0 time=0.012195125
EXTRACT: note_on channel=1 note=68 velocity=0 time=0
EXTRACT: note_on channel=0 note=70 velocity=96 time=0.013211385416666666
EXTRACT: note_on channel=1 note=56 velocity=80 time=0
EXTRACT: note_on channel=1 note=65 velocity=80 time=0
EXTRACT: note_on channel=1 note=29 velocity=0 time=0.19410573958333333
EXTRACT: note_on channel=1 note=41 velocity=0 time=0
EXTRACT: note_on channel=1 note=56 velocity=0 time=0.036585374999999996
EXTRACT: note_on channel=1 note=65 velocity=0 time=0
EXTRACT: note_on channel=1 note=61 velocity=80 time=0.013211385416666666
EXTRACT: note_on channel=1 note=66 velocity=80 time=0
EXTRACT: note_on channel=1 note=30 velocity=80 time=0
EXTRACT: note_on channel=1 note=42 velocity=80 time=0
EXTRACT: control_change channel=1 control=64 value=0 time=0.0010162604166666666
EXTRACT: control_change channel=1 control=64 value=127 time=0.0010162604166666666
EXTRACT: note_on channel=1 note=61 velocity=0 time=0.22865859375
EXTRACT: note_on channel=1 note=66 velocity=0 time=0
EXTRACT: note_on channel=1 note=58 velocity=78 time=0.013211385416666666
EXTRACT: note_on channel=1 note=65 velocity=78 time=0
EXTRACT: note_on channel=1 note=58 velocity=0 time=0.23069111458333333
EXTRACT: note_on channel=1 note=65 velocity=0 time=0
EXTRACT: note_on channel=1 note=61 velocity=76 time=0.013211385416666666
EXTRACT: note_on channel=1 note=66 velocity=76 time=0
EXTRACT: note_on channel=1 note=61 velocity=0 time=0.23069111458333333
EXTRACT: note_on channel=1 note=66 velocity=0 time=0
EXTRACT: note_on channel=1 note=58 velocity=74 time=0.013211385416666666
EXTRACT: note_on channel=1 note=65 velocity=74 time=0
EXTRACT: note_on channel=1 note=30 velocity=0 time=0.19410573958333333
EXTRACT: note_on channel=1 note=42 velocity=0 time=0
EXTRACT: note_on channel=1 note=58 velocity=0 time=0.036585374999999996
EXTRACT: note_on channel=1 note=65 velocity=0 time=0
EXTRACT: note_on channel=1 note=61 velocity=72 time=0.013211385416666666
EXTRACT: note_on channel=1 note=66 velocity=72 time=0
EXTRACT: note_on channel=1 note=30 velocity=72 time=0
EXTRACT: note_on channel=1 note=42 velocity=72 time=0
EXTRACT: note_on channel=1 note=61 velocity=0 time=0.23069111458333333
EXTRACT: note_on channel=1 note=66 velocity=0 time=0
EXTRACT: note_on channel=1 note=58 velocity=70 time=0.013211385416666666
EXTRACT: note_on channel=1 note=65 velocity=70 time=0
EXTRACT: note_on channel=1 note=58 velocity=0 time=0.23069111458333333
EXTRACT: note_on channel=1 note=65 velocity=0 time=0
EXTRACT: note_on channel=1 note=61 velocity=68 time=0.013211385416666666
EXTRACT: note_on channel=1 note=66 velocity=68 time=0
EXTRACT: note_on channel=1 note=61 velocity=0 time=0.23069111458333333
EXTRACT: note_on channel=1 note=66 velocity=0 time=0
EXTRACT: note_on channel=1 note=58 velocity=66 time=0.013211385416666666
EXTRACT: note_on channel=1 note=65 velocity=66 time=0
EXTRACT: note_on channel=0 note=70 velocity=0 time=0.13313011458333332
EXTRACT: note_on channel=1 note=30 velocity=0 time=0.060975625
EXTRACT: note_on channel=1 note=42 velocity=0 time=0
EXTRACT: note_on channel=1 note=58 velocity=0 time=0.036585374999999996
EXTRACT: note_on channel=1 note=65 velocity=0 time=0
EXTRACT: note_on channel=0 note=89 velocity=96 time=0.013211385416666666
EXTRACT: note_on channel=1 note=73 velocity=64 time=0
EXTRACT: note_on channel=1 note=82 velocity=64 time=0
EXTRACT: note_on channel=1 note=34 velocity=64 time=0
EXTRACT: note_on channel=1 note=46 velocity=64 time=0
EXTRACT: control_change channel=1 control=64 value=0 time=0.0010162604166666666
EXTRACT: control_change channel=1 control=64 value=127 time=0.0010162604166666666
EXTRACT: note_on channel=0 note=89 velocity=0 time=0.22865859375
EXTRACT: note_on channel=1 note=73 velocity=0 time=0
EXTRACT: note_on channel=1 note=82 velocity=0 time=0
EXTRACT: note_on channel=0 note=89 velocity=96 time=0.013211385416666666
EXTRACT: note_on channel=1 note=70 velocity=64 time=0
EXTRACT: note_on channel=1 note=77 velocity=64 time=0
EXTRACT: note_on channel=0 note=89 velocity=0 time=0.23069111458333333
EXTRACT: note_on channel=1 note=70 velocity=0 time=0
EXTRACT: note_on channel=1 note=77 velocity=0 time=0
EXTRACT: note_on channel=0 note=89 velocity=96 time=0.013211385416666666
EXTRACT: note_on channel=1 note=73 velocity=64 time=0
EXTRACT: note_on channel=1 note=82 velocity=64 time=0
EXTRACT: note_on channel=0 note=89 velocity=0 time=0.23069111458333333
EXTRACT: note_on channel=1 note=73 velocity=0 time=0
EXTRACT: note_on channel=1 note=82 velocity=0 time=0
EXTRACT: note_on channel=0 note=89 velocity=96 time=0.013211385416666666
EXTRACT: note_on channel=1 note=70 velocity=64 time=0
EXTRACT: note_on channel=1 note=77 velocity=64 time=0
EXTRACT: note_on channel=1 note=34 velocity=0 time=0.19410573958333333
EXTRACT: note_on channel=1 note=46 velocity=0 time=0
EXTRACT: note_on channel=0 note=89 velocity=0 time=0.036585374999999996
EXTRACT: note_on channel=1 note=70 velocity=0 time=0
EXTRACT: note_on channel=1 note=77 velocity=0 time=0
EXTRACT: note_on channel=0 note=87 velocity=96 time=0.013211385416666666
EXTRACT: note_on channel=1 note=73 velocity=64 time=0
EXTRACT: note_on channel=1 note=82 velocity=64 time=0
EXTRACT: note_on channel=1 note=34 velocity=64 time=0
EXTRACT: note_on channel=1 note=46 velocity=64 time=0
EXTRACT: note_on channel=0 note=87 velocity=0 time=0.23069111458333333
EXTRACT: note_on channel=1 note=73 velocity=0 time=0
EXTRACT: note_on channel=1 note=82 velocity=0 time=0
EXTRACT: note_on channel=0 note=87 velocity=96 time=0.013211385416666666
EXTRACT: note_on channel=1 note=70 velocity=64 time=0
EXTRACT: note_on channel=1 note=77 velocity=64 time=0
EXTRACT: note_on channel=0 note=87 velocity=0 time=0.23069111458333333
EXTRACT: note_on channel=1 note=70 velocity=0 time=0
EXTRACT: note_on channel=1 note=77 velocity=0 time=0
EXTRACT: note_on channel=0 note=87 velocity=96 time=0.013211385416666666
EXTRACT: note_on channel=1 note=73 velocity=64 time=0
EXTRACT: note_on channel=1 note=82 velocity=64 time=0
EXTRACT: note_on channel=1 note=73 velocity=0 time=0.23069111458333333
EXTRACT: note_on channel=1 note=82 velocity=0 time=0
EXTRACT: note_on channel=1 note=70 velocity=64 time=0.013211385416666666
EXTRACT: note_on channel=1 note=77 velocity=64 time=0
EXTRACT: note_on channel=1 note=34 velocity=0 time=0.19410573958333333
EXTRACT: note_on channel=1 note=46 velocity=0 time=0
EXTRACT: note_on channel=0 note=87 velocity=0 time=0.02439025
EXTRACT: note_on channel=1 note=70 velocity=0 time=0.012195125
EXTRACT: note_on channel=1 note=77 velocity=0 time=0
EXTRACT: note_on channel=0 note=85 velocity=96 time=0.013211385416666666
EXTRACT: note_on channel=1 note=73 velocity=64 time=0
EXTRACT: note_on channel=1 note=80 velocity=64 time=0
EXTRACT: note_on channel=1 note=32 velocity=64 time=0
EXTRACT: note_on channel=1 note=44 velocity=64 time=0
EXTRACT: control_change channel=1 control=64 value=0 time=0.0010162604166666666
EXTRACT: control_change channel=1 control=64 value=127 time=0.0010162604166666666
EXTRACT: note_on channel=1 note=73 velocity=0 time=0.22865859375
EXTRACT: note_on channel=1 note=80 velocity=0 time=0
EXTRACT: note_on channel=1 note=68 velocity=64 time=0.013211385416666666
EXTRACT: note_on channel=1 note=77 velocity=64 time=0
EXTRACT: note_on channel=0 note=85 velocity=0 time=0.21849598958333333
EXTRACT: note_on channel=1 note=68 velocity=0 time=0.012195125
EXTRACT: note_on channel=1 note=77 velocity=0 time=0
EXTRACT: note_on channel=0 note=85 velocity=96 time=0.013211385416666666
EXTRACT: note_on channel=1 note=73 velocity=64 time=0
EXTRACT: note_on channel=1 note=80 velocity=64 time=0
EXTRACT: note_on channel=0 note=85 velocity=0 time=0.23069111458333333
EXTRACT: note_on channel=1 note=73 velocity=0 time=0
EXTRACT: note_on channel=1 note=80 velocity=0 time=0
EXTRACT: note_on channel=0 note=84 velocity=96 time=0.013211385416666666
EXTRACT: note_on channel=1 note=68 velocity=64 time=0
EXTRACT: note_on channel=1 note=77 velocity=64 time=0
EXTRACT: note_on channel=1 note=32 velocity=0 time=0.19410573958333333
EXTRACT: note_on channel=1 note=44 velocity=0 time=0
EXTRACT: note_on channel=0 note=84 velocity=0 time=0.036585374999999996
EXTRACT: note_on channel=1 note=68 velocity=0 time=0
EXTRACT: note_on channel=1 note=77 velocity=0 time=0
EXTRACT: note_on channel=0 note=85 velocity=96 time=0.013211385416666666
EXTRACT: note_on channel=1 note=73 velocity=64 time=0
EXTRACT: note_on channel=1 note=80 velocity=64 time=0
EXTRACT: note_on channel=1 note=32 velocity=64 time=0
EXTRACT: note_on channel=1 note=44 velocity=64 time=0
EXTRACT: note_on channel=0 note=85 velocity=0 time=0.23069111458333333
EXTRACT: note_on channel=1 note=73 velocity=0 time=0
EXTRACT: note_on channel=1 note=80 velocity=0 time=0
EXTRACT: note_on channel=0 note=84 velocity=96 time=0.013211385416666666
EXTRACT: note_on channel=1 note=68 velocity=64 time=0
EXTRACT: note_on channel=1 note=77 velocity=64 time=0
EXTRACT: note_on channel=0 note=84 velocity=0 time=0.23069111458333333
EXTRACT: note_on channel=1 note=68 velocity=0 time=0
EXTRACT: note_on channel=1 note=77 velocity=0 time=0
EXTRACT: note_on channel=0 note=82 velocity=96 time=0.013211385416666666
EXTRACT: note_on channel=1 note=73 velocity=64 time=0
EXTRACT: note_on channel=1 note=80 velocity=64 time=0
EXTRACT: note_on channel=0 note=82 velocity=0 time=0.23069111458333333
EXTRACT: note_on channel=1 note=73 velocity=0 time=0
EXTRACT: note_on channel=1 note=80 velocity=0 time=0
EXTRACT: note_on channel=0 note=84 velocity=96 time=0.013211385416666666
EXTRACT: note_on channel=1 note=68 velocity=64 time=0
EXTRACT: note_on channel=1 note=77 velocity=64 time=0
EXTRACT: note_on channel=1 note=32 velocity=0 time=0.19410573958333333
EXTRACT: note_on channel=1 note=44 velocity=0 time=0
EXTRACT: note_on channel=0 note=84 velocity=0 time=0.036585374999999996
EXTRACT: note_on channel=1 note=68 velocity=0 time=0
EXTRACT: note_on channel=1 note=77 velocity=0 time=0
EXTRACT: note_on channel=0 note=82 velocity=96 time=0.013211385416666666
EXTRACT: note_on channel=1 note=73 velocity=64 time=0
EXTRACT: note_on channel=1 note=80 velocity=64 time=0
EXTRACT: note_on channel=1 note=29 velocity=64 time=0
EXTRACT: note_on channel=1 note=41 velocity=64 time=0
EXTRACT: control_change channel=1 control=64 value=0 time=0.0010162604166666666
EXTRACT: control_change channel=1 control=64 value=127 time=0.0010162604166666666
EXTRACT: note_on channel=1 note=73 velocity=0 time=0.22865859375
EXTRACT: note_on channel=1 note=80 velocity=0 time=0
EXTRACT: note_on channel=1 note=68 velocity=64 time=0.013211385416666666
EXTRACT: note_on channel=1 note=77 velocity=64 time=0
EXTRACT: note_on channel=0 note=82 velocity=0 time=0.21849598958333333
EXTRACT: note_on channel=1 note=68 velocity=0 time=0.012195125
EXTRACT: note_on channel=1 note=77 velocity=0 time=0
EXTRACT: note_on channel=0 note=82 velocity=96 time=0.013211385416666666
EXTRACT: note_on channel=1 note=73 velocity=64 time=0
EXTRACT: note_on channel=1 note=80 velocity=64 time=0
EXTRACT: note_on channel=0 note=82 velocity=0 time=0.23069111458333333
EXTRACT: note_on channel=1 note=73 velocity=0 time=0
EXTRACT: note_on channel=1 note=80 velocity=0 time=0
EXTRACT: note_on channel=0 note=80 velocity=96 time=0.013211385416666666
EXTRACT: note_on channel=1 note=68 velocity=64 time=0
EXTRACT: note_on channel=1 note=77 velocity=64 time=0
EXTRACT: note_on channel=1 note=29 velocity=0 time=0.19410573958333333
EXTRACT: note_on channel=1 note=41 velocity=0 time=0
EXTRACT: note_on channel=0 note=80 velocity=0 time=0.036585374999999996
EXTRACT: note_on channel=1 note=68 velocity=0 time=0
EXTRACT: note_on channel=1 note=77 velocity=0 time=0
EXTRACT: note_on channel=0 note=82 velocity=96 time=0.013211385416666666
EXTRACT: note_on channel=1 note=73 velocity=64 time=0
EXTRACT: note_on channel=1 note=80 velocity=64 time=0
EXTRACT: note_on channel=1 note=29 velocity=64 time=0
EXTRACT: note_on channel=1 note=41 velocity=64 time=0
EXTRACT: note_on channel=0 note=82 velocity=0 time=0.23069111458333333
EXTRACT: note_on channel=1 note=73 velocity=0 time=0
EXTRACT: note_on channel=1 note=80 velocity=0 time=0
EXTRACT: note_on channel=0 note=80 velocity=96 time=0.013211385416666666
EXTRACT: note_on channel=1 note=68 velocity=64 time=0
EXTRACT: note_on channel=1 note=77 velocity=64 time=0
EXTRACT: note_on channel=0 note=80 velocity=0 time=0.23069111458333333
EXTRACT: note_on channel=1 note=68 velocity=0 time=0
EXTRACT: note_on channel=1 note=77 velocity=0 time=0
EXTRACT: note_on channel=0 note=82 velocity=96 time=0.013211385416666666
EXTRACT: note_on channel=1 note=73 velocity=64 time=0
EXTRACT: note_on channel=1 note=80 velocity=64 time=0
EXTRACT: note_on channel=0 note=82 velocity=0 time=0.23069111458333333
EXTRACT: note_on channel=1 note=73 velocity=0 time=0
EXTRACT: note_on channel=1 note=80 velocity=0 time=0
EXTRACT: note_on channel=0 note=80 velocity=96 time=0.013211385416666666
EXTRACT: note_on channel=1 note=68 velocity=64 time=0
EXTRACT: note_on channel=1 note=77 velocity=64 time=0
EXTRACT: note_on channel=1 note=29 velocity=0 time=0.19410573958333333
EXTRACT: note_on channel=1 note=41 velocity=0 time=0
EXTRACT: note_on channel=0 note=80 velocity=0 time=0.036585374999999996
EXTRACT: note_on channel=1 note=68 velocity=0 time=0
EXTRACT: note_on channel=1 note=77 velocity=0 time=0
EXTRACT: note_on channel=0 note=82 velocity=96 time=0.013211385416666666
EXTRACT: note_on channel=1 note=73 velocity=64 time=0
EXTRACT: note_on channel=1 note=78 velocity=64 time=0
EXTRACT: note_on channel=1 note=30 velocity=64 time=0
EXTRACT: note_on channel=1 note=42 velocity=64 time=0
EXTRACT: control_change channel=1 control=64 value=0 time=0.0010162604166666666
EXTRACT: control_change channel=1 control=64 value=127 time=0.0010162604166666666
EXTRACT: note_on channel=1 note=73 velocity=0 time=0.22865859375
EXTRACT: note_on channel=1 note=78 velocity=0 time=0
EXTRACT: note_on channel=1 note=70 velocity=64 time=0.013211385416666666
EXTRACT: note_on channel=1 note=77 velocity=64 time=0
EXTRACT: note_on channel=0 note=82 velocity=0 time=0.21849598958333333
EXTRACT: note_on channel=1 note=70 velocity=0 time=0.012195125
EXTRACT: note_on channel=1 note=77 velocity=0 time=0
EXTRACT: note_on channel=0 note=80 velocity=96 time=0.013211385416666666
EXTRACT: note_on channel=1 note=73 velocity=64 time=0
EXTRACT: note_on channel=1 note=78 velocity=64 time=0
EXTRACT: note_on channel=1 note=73 velocity=0 time=0.23069111458333333
EXTRACT: note_on channel=1 note=78 velocity=0 time=0
EXTRACT: note_on channel=1 note=70 velocity=64 time=0.013211385416666666
EXTRACT: note_on channel=1 note=77 velocity=64 time=0
EXTRACT: note_on channel=1 note=30 velocity=0 time=0.19410573958333333
EXTRACT: note_on channel=1 note=42 velocity=0 time=0
EXTRACT: note_on channel=0 note=80 velocity=0 time=0.02439025
EXTRACT: note_on channel=1 note=70 velocity=0 time=0.012195125
EXTRACT: note_on channel=1 note=77 velocity=0 time=0
EXTRACT: note_on channel=1 note=73 velocity=64 time=0.013211385416666666
EXTRACT: note_on channel=1 note=78 velocity=64 time=0
EXTRACT: note_on channel=1 note=30 velocity=64 time=0
EXTRACT: note_on channel=1 note=42 velocity=64 time=0
EXTRACT: note_on channel=1 note=73 velocity=0 time=0.23069111458333333
EXTRACT: note_on channel=1 note=78 velocity=0 time=0
EXTRACT: note_on channel=1 note=70 velocity=64 time=0.013211385416666666
EXTRACT: note_on channel=1 note=77 velocity=64 time=0
EXTRACT: note_on channel=1 note=70 velocity=0 time=0.23069111458333333
EXTRACT: note_on channel=1 note=77 velocity=0 time=0
EXTRACT: note_on channel=1 note=73 velocity=64 time=0.013211385416666666
EXTRACT: note_on channel=1 note=78 velocity=64 time=0
EXTRACT: note_on channel=1 note=73 velocity=0 time=0.23069111458333333
EXTRACT: note_on channel=1 note=78 velocity=0 time=0
EXTRACT: note_on channel=1 note=70 velocity=64 time=0.013211385416666666
EXTRACT: note_on channel=1 note=77 velocity=64 time=0
EXTRACT: note_on channel=1 note=30 velocity=0 time=0.19410573958333333
EXTRACT: note_on channel=1 note=42 velocity=0 time=0
EXTRACT: note_on channel=1 note=70 velocity=0 time=0.036585374999999996
EXTRACT: note_on channel=1 note=77 velocity=0 time=0
EXTRACT: note_on channel=0 note=89 velocity=96 time=0.013211385416666666
EXTRACT: note_on channel=1 note=73 velocity=64 time=0
EXTRACT: note_on channel=1 note=82 velocity=64 time=0
EXTRACT: note_on channel=1 note=34 velocity=64 time=0
EXTRACT: note_on channel=1 note=46 velocity=64 time=0
EXTRACT: control_change channel=1 control=64 value=0 time=0.0010162604166666666
EXTRACT: control_change channel=1 control=64 value=127 time=0.0010162604166666666
EXTRACT: note_on channel=0 note=89 velocity=0 time=0.22865859375
EXTRACT: note_on channel=1 note=73 velocity=0 time=0
EXTRACT: note_on channel=1 note=82 velocity=0 time=0
EXTRACT: note_on channel=0 note=89 velocity=96 time=0.013211385416666666
EXTRACT: note_on channel=1 note=70 velocity=64 time=0
EXTRACT: note_on channel=1 note=77 velocity=64 time=0
EXTRACT: note_on channel=0 note=89 velocity=0 time=0.23069111458333333
EXTRACT: note_on channel=1 note=70 velocity=0 time=0
EXTRACT: note_on channel=1 note=77 velocity=0 time=0
EXTRACT: note_on channel=0 note=89 velocity=96 time=0.013211385416666666
EXTRACT: note_on channel=1 note=73 velocity=64 time=0
EXTRACT: note_on channel=1 note=82 velocity=64 time=0
EXTRACT: note_on channel=0 note=89 velocity=0 time=0.23069111458333333
EXTRACT: note_on channel=1 note=73 velocity=0 time=0
EXTRACT: note_on channel=1 note=82 velocity=0 time=0
EXTRACT: note_on channel=0 note=89 velocity=96 time=0.013211385416666666
EXTRACT: note_on channel=1 note=70 velocity=64 time=0
EXTRACT: note_on channel=1 note=77 velocity=64 time=0
EXTRACT: note_on channel=1 note=34 velocity=0 time=0.19410573958333333
EXTRACT: note_on channel=1 note=46 velocity=0 time=0
EXTRACT: note_on channel=0 note=89 velocity=0 time=0.036585374999999996
EXTRACT: note_on channel=1 note=70 velocity=0 time=0
EXTRACT: note_on channel=1 note=77 velocity=0 time=0
EXTRACT: note_on channel=0 note=87 velocity=96 time=0.013211385416666666
EXTRACT: note_on channel=1 note=73 velocity=64 time=0
EXTRACT: note_on channel=1 note=82 velocity=64 time=0
EXTRACT: note_on channel=1 note=34 velocity=64 time=0
EXTRACT: note_on channel=1 note=46 velocity=64 time=0
EXTRACT: note_on channel=0 note=87 velocity=0 time=0.23069111458333333
EXTRACT: note_on channel=1 note=73 velocity=0 time=0
EXTRACT: note_on channel=1 note=82 velocity=0 time=0
EXTRACT: note_on channel=0 note=87 velocity=96 time=0.013211385416666666
EXTRACT: note_on channel=1 note=70 velocity=64 time=0
EXTRACT: note_on channel=1 note=77 velocity=64 time=0
EXTRACT: note_on channel=0 note=87 velocity=0 time=0.23069111458333333
EXTRACT: note_on channel=1 note=70 velocity=0 time=0
EXTRACT: note_on channel=1 note=77 velocity=0 time=0
EXTRACT: note_on channel=0 note=87 velocity=96 time=0.013211385416666666
EXTRACT: note_on channel=1 note=73 velocity=64 time=0
EXTRACT: note_on channel=1 note=82 velocity=64 time=0
EXTRACT: note_on channel=1 note=73 velocity=0 time=0.23069111458333333
EXTRACT: note_on channel=1 note=82 velocity=0 time=0
EXTRACT: note_on channel=1 note=70 velocity=64 time=0.013211385416666666
EXTRACT: note_on channel=1 note=77 velocity=64 time=0
EXTRACT: note_on channel=1 note=34 velocity=0 time=0.19410573958333333
EXTRACT: note_on channel=1 note=46 velocity=0 time=0
EXTRACT: note_on channel=0 note=87 velocity=0 time=0.02439025
EXTRACT: note_on channel=1 note=70 velocity=0 time=0.012195125
EXTRACT: note_on channel=1 note=77 velocity=0 time=0
EXTRACT: note_on channel=0 note=85 velocity=96 time=0.013211385416666666
EXTRACT: note_on channel=1 note=73 velocity=64 time=0
EXTRACT: note_on channel=1 note=80 velocity=64 time=0
EXTRACT: note_on channel=1 note=32 velocity=64 time=0
EXTRACT: note_on channel=1 note=44 velocity=64 time=0
EXTRACT: control_change channel=1 control=64 value=0 time=0.0010162604166666666
EXTRACT: control_change channel=1 control=64 value=127 time=0.0010162604166666666
EXTRACT: note_on channel=1 note=73 velocity=0 time=0.22865859375
EXTRACT: note_on channel=1 note=80 velocity=0 time=0
EXTRACT: note_on channel=1 note=68 velocity=64 time=0.013211385416666666
EXTRACT: note_on channel=1 note=77 velocity=64 time=0
EXTRACT: note_on channel=0 note=85 velocity=0 time=0.21849598958333333
EXTRACT: note_on channel=1 note=68 velocity=0 time=0.012195125
EXTRACT: note_on channel=1 note=77 velocity=0 time=0
EXTRACT: note_on channel=0 note=85 velocity=96 time=0.013211385416666666
EXTRACT: note_on channel=1 note=73 velocity=64 time=0
EXTRACT: note_on channel=1 note=80 velocity=64 time=0
EXTRACT: note_on channel=0 note=85 velocity=0 time=0.23069111458333333
EXTRACT: note_on channel=1 note=73 velocity=0 time=0
EXTRACT: note_on channel=1 note=80 velocity=0 time=0
EXTRACT: note_on channel=0 note=84 velocity=96 time=0.013211385416666666
EXTRACT: note_on channel=1 note=68 velocity=64 time=0
EXTRACT: note_on channel=1 note=77 velocity=64 time=0
EXTRACT: note_on channel=1 note=32 velocity=0 time=0.19410573958333333
EXTRACT: note_on channel=1 note=44 velocity=0 time=0
EXTRACT: note_on channel=0 note=84 velocity=0 time=0.036585374999999996
EXTRACT: note_on channel=1 note=68 velocity=0 time=0
EXTRACT: note_on channel=1 note=77 velocity=0 time=0
EXTRACT: note_on channel=0 note=85 velocity=96 time=0.013211385416666666
EXTRACT: note_on channel=1 note=73 velocity=64 time=0
EXTRACT: note_on channel=1 note=80 velocity=64 time=0
EXTRACT: note_on channel=1 note=32 velocity=64 time=0
EXTRACT: note_on channel=1 note=44 velocity=64 time=0
EXTRACT: note_on channel=0 note=85 velocity=0 time=0.23069111458333333
EXTRACT: note_on channel=1 note=73 velocity=0 time=0
EXTRACT: note_on channel=1 note=80 velocity=0 time=0
EXTRACT: note_on channel=0 note=84 velocity=96 time=0.013211385416666666
EXTRACT: note_on channel=1 note=68 velocity=64 time=0
EXTRACT: note_on channel=1 note=77 velocity=64 time=0
EXTRACT: note_on channel=0 note=84 velocity=0 time=0.23069111458333333
EXTRACT: note_on channel=1 note=68 velocity=0 time=0
EXTRACT: note_on channel=1 note=77 velocity=0 time=0
EXTRACT: note_on channel=0 note=82 velocity=96 time=0.013211385416666666
EXTRACT: note_on channel=1 note=73 velocity=64 time=0
EXTRACT: note_on channel=1 note=80 velocity=64 time=0
EXTRACT: note_on channel=0 note=82 velocity=0 time=0.23069111458333333
EXTRACT: note_on channel=1 note=73 velocity=0 time=0
EXTRACT: note_on channel=1 note=80 velocity=0 time=0
EXTRACT: note_on channel=0 note=84 velocity=96 time=0.013211385416666666
EXTRACT: note_on channel=1 note=68 velocity=64 time=0
EXTRACT: note_on channel=1 note=77 velocity=64 time=0
EXTRACT: note_on channel=1 note=32 velocity=0 time=0.19410573958333333
EXTRACT: note_on channel=1 note=44 velocity=0 time=0
EXTRACT: note_on channel=0 note=84 velocity=0 time=0.036585374999999996
EXTRACT: note_on channel=1 note=68 velocity=0 time=0
EXTRACT: note_on channel=1 note=77 velocity=0 time=0
EXTRACT: note_on channel=0 note=82 velocity=96 time=0.013211385416666666
EXTRACT: note_on channel=1 note=73 velocity=64 time=0
EXTRACT: note_on channel=1 note=80 velocity=64 time=0
EXTRACT: note_on channel=1 note=29 velocity=64 time=0
EXTRACT: note_on channel=1 note=41 velocity=64 time=0
EXTRACT: control_change channel=1 control=64 value=0 time=0.0010162604166666666
EXTRACT: control_change channel=1 control=64 value=127 time=0.0010162604166666666
EXTRACT: note_on channel=1 note=73 velocity=0 time=0.22865859375
EXTRACT: note_on channel=1 note=80 velocity=0 time=0
EXTRACT: note_on channel=1 note=68 velocity=65 time=0.013211385416666666
EXTRACT: note_on channel=1 note=77 velocity=65 time=0
EXTRACT: note_on channel=0 note=82 velocity=0 time=0.21849598958333333
EXTRACT: note_on channel=1 note=68 velocity=0 time=0.012195125
EXTRACT: note_on channel=1 note=77 velocity=0 time=0
EXTRACT: note_on channel=0 note=80 velocity=96 time=0.013211385416666666
EXTRACT: note_on channel=1 note=73 velocity=66 time=0
EXTRACT: note_on channel=1 note=80 velocity=66 time=0
EXTRACT: note_on channel=0 note=80 velocity=0 time=0.23069111458333333
EXTRACT: note_on channel=1 note=73 velocity=0 time=0
EXTRACT: note_on channel=1 note=80 velocity=0 time=0
EXTRACT: note_on channel=0 note=82 velocity=96 time=0.013211385416666666
EXTRACT: note_on channel=1 note=68 velocity=67 time=0
EXTRACT: note_on channel=1 note=77 velocity=67 time=0
EXTRACT: note_on channel=1 note=29 velocity=0 time=0.19410573958333333
EXTRACT: note_on channel=1 note=41 velocity=0 time=0
EXTRACT: note_on channel=0 note=82 velocity=0 time=0.036585374999999996
EXTRACT: note_on channel=1 note=68 velocity=0 time=0
EXTRACT: note_on channel=1 note=77 velocity=0 time=0
EXTRACT: note_on channel=0 note=80 velocity=96 time=0.013211385416666666
EXTRACT: note_on channel=1 note=73 velocity=68 time=0
EXTRACT: note_on channel=1 note=80 velocity=68 time=0
EXTRACT: note_on channel=1 note=29 velocity=68 time=0
EXTRACT: note_on channel=1 note=41 velocity=68 time=0
EXTRACT: note_on channel=0 note=80 velocity=0 time=0.23069111458333333
EXTRACT: note_on channel=1 note=73 velocity=0 time=0
EXTRACT: note_on channel=1 note=80 velocity=0 time=0
EXTRACT: note_on channel=0 note=78 velocity=96 time=0.013211385416666666
EXTRACT: note_on channel=1 note=68 velocity=69 time=0
EXTRACT: note_on channel=1 note=77 velocity=69 time=0
EXTRACT: note_on channel=0 note=78 velocity=0 time=0.23069111458333333
EXTRACT: note_on channel=1 note=68 velocity=0 time=0
EXTRACT: note_on channel=1 note=77 velocity=0 time=0
EXTRACT: note_on channel=0 note=77 velocity=96 time=0.013211385416666666
EXTRACT: note_on channel=1 note=73 velocity=70 time=0
EXTRACT: note_on channel=1 note=80 velocity=70 time=0
EXTRACT: note_on channel=1 note=73 velocity=0 time=0.23069111458333333
EXTRACT: note_on channel=1 note=80 velocity=0 time=0
EXTRACT: note_on channel=1 note=68 velocity=71 time=0.013211385416666666
EXTRACT: note_on channel=1 note=77 velocity=71 time=0
EXTRACT: note_on channel=1 note=29 velocity=0 time=0.19410573958333333
EXTRACT: note_on channel=1 note=41 velocity=0 time=0
EXTRACT: note_on channel=0 note=77 velocity=0 time=0.02439025
EXTRACT: note_on channel=1 note=68 velocity=0 time=0.012195125
EXTRACT: note_on channel=1 note=77 velocity=0 time=0
EXTRACT: note_on channel=1 note=73 velocity=72 time=0.013211385416666666
EXTRACT: note_on channel=1 note=78 velocity=72 time=0
EXTRACT: note_on channel=1 note=30 velocity=72 time=0
EXTRACT: note_on channel=1 note=42 velocity=72 time=0
EXTRACT: control_change channel=1 control=64 value=0 time=0.0010162604166666666
EXTRACT: control_change channel=1 control=64 value=127 time=0.0010162604166666666
EXTRACT: note_on channel=1 note=73 velocity=0 time=0.22865859375
EXTRACT: note_on channel=1 note=78 velocity=0 time=0
EXTRACT: note_on channel=0 note=75 velocity=96 time=0.013211385416666666
EXTRACT: note_on channel=1 note=70 velocity=73 time=0
EXTRACT: note_on channel=1 note=77 velocity=73 time=0
EXTRACT: note_on channel=1 note=70 velocity=0 time=0.23069111458333333
EXTRACT: note_on channel=1 note=77 velocity=0 time=0
EXTRACT: note_on channel=1 note=73 velocity=74 time=0.013211385416666666
EXTRACT: note_on channel=1 note=78 velocity=74 time=0
EXTRACT: note_on channel=0 note=75 velocity=0 time=0.21849598958333333
EXTRACT: note_on channel=1 note=73 velocity=0 time=0.012195125
EXTRACT: note_on channel=1 note=78 velocity=0 time=0
EXTRACT: note_on channel=1 note=70 velocity=75 time=0.013211385416666666
EXTRACT: note_on channel=1 note=77 velocity=75 time=0
EXTRACT: note_on channel=1 note=30 velocity=0 time=0.19410573958333333
EXTRACT: note_on channel=1 note=42 velocity=0 time=0
EXTRACT: note_on channel=1 note=70 velocity=0 time=0.036585374999999996
EXTRACT: note_on channel=1 note=77 velocity=0 time=0
EXTRACT: note_on channel=1 note=73 velocity=76 time=0.013211385416666666
EXTRACT: note_on channel=1 note=78 velocity=76 time=0
EXTRACT: note_on channel=1 note=30 velocity=76 time=0
EXTRACT: note_on channel=1 note=42 velocity=76 time=0
EXTRACT: note_on channel=1 note=73 velocity=0 time=0.23069111458333333
EXTRACT: note_on channel=1 note=78 velocity=0 time=0
EXTRACT: note_on channel=1 note=70 velocity=77 time=0.013211385416666666
EXTRACT: note_on channel=1 note=77 velocity=77 time=0
EXTRACT: note_on channel=1 note=70 velocity=0 time=0.23069111458333333
EXTRACT: note_on channel=1 note=77 velocity=0 time=0
EXTRACT: note_on channel=0 note=77 velocity=96 time=0.013211385416666666
EXTRACT: note_on channel=1 note=73 velocity=78 time=0
EXTRACT: note_on channel=1 note=78 velocity=78 time=0
EXTRACT: note_on channel=0 note=77 velocity=0 time=0.23069111458333333
EXTRACT: note_on channel=1 note=73 velocity=0 time=0
EXTRACT: note_on channel=1 note=78 velocity=0 time=0
EXTRACT: note_on channel=0 note=77 velocity=96 time=0.013211385416666666
EXTRACT: note_on channel=1 note=70 velocity=79 time=0
EXTRACT: note_on channel=1 note=77 velocity=79 time=0
EXTRACT: note_on channel=1 note=30 velocity=0 time=0.19410573958333333
EXTRACT: note_on channel=1 note=42 velocity=0 time=0
EXTRACT: note_on channel=0 note=77 velocity=0 time=0.036585374999999996
EXTRACT: note_on channel=1 note=70 velocity=0 time=0
EXTRACT: note_on channel=1 note=77 velocity=0 time=0
EXTRACT: note_on channel=0 note=75 velocity=96 time=0.013211385416666666
EXTRACT: note_on channel=1 note=61 velocity=80 time=0
EXTRACT: note_on channel=1 note=70 velocity=80 time=0
EXTRACT: note_on channel=1 note=34 velocity=80 time=0
EXTRACT: note_on channel=1 note=46 velocity=80 time=0
EXTRACT: control_change channel=1 control=64 value=0 time=0.0010162604166666666
EXTRACT: control_change channel=1 control=64 value=127 time=0.0010162604166666666
EXTRACT: note_on channel=1 note=61 velocity=0 time=0.22865859375
EXTRACT: note_on channel=1 note=70 velocity=0 time=0
EXTRACT: note_on channel=1 note=58 velocity=80 time=0.013211385416666666
EXTRACT: note_on channel=1 note=65 velocity=80 time=0
EXTRACT: note_on channel=0 note=75 velocity=0 time=0.21849598958333333
EXTRACT: note_on channel=1 note=58 velocity=0 time=0.012195125
EXTRACT: note_on channel=1 note=65 velocity=0 time=0
EXTRACT: note_on channel=0 note=77 velocity=96 time=0.013211385416666666
EXTRACT: note_on channel=1 note=61 velocity=80 time=0
EXTRACT: note_on channel=1 note=70 velocity=80 time=0
EXTRACT: note_on channel=1 note=61 velocity=0 time=0.23069111458333333
EXTRACT: note_on channel=1 note=70 velocity=0 time=0
EXTRACT: note_on channel=1 note=58 velocity=80 time=0.013211385416666666
EXTRACT: note_on channel=1 note=65 velocity=80 time=0
EXTRACT: note_on channel=1 note=34 velocity=0 time=0.19410573958333333
EXTRACT: note_on channel=1 note=46 velocity=0 time=0
EXTRACT: note_on channel=1 note=58 velocity=0 time=0.036585374999999996
EXTRACT: note_on channel=1 note=65 velocity=0 time=0
EXTRACT: note_on channel=1 note=61 velocity=80 time=0.013211385416666666
EXTRACT: note_on channel=1 note=70 velocity=80 time=0
EXTRACT: note_on channel=1 note=34 velocity=80 time=0
EXTRACT: note_on channel=1 note=46 velocity=80 time=0
EXTRACT: note_on channel=1 note=61 velocity=0 time=0.23069111458333333
EXTRACT: note_on channel=1 note=70 velocity=0 time=0
EXTRACT: note_on channel=1 note=58 velocity=80 time=0.013211385416666666
EXTRACT: note_on channel=1 note=65 velocity=80 time=0
EXTRACT: note_on channel=1 note=58 velocity=0 time=0.23069111458333333
EXTRACT: note_on channel=1 note=65 velocity=0 time=0
EXTRACT: note_on channel=1 note=61 velocity=80 time=0.013211385416666666
EXTRACT: note_on channel=1 note=70 velocity=80 time=0
EXTRACT: note_on channel=1 note=61 velocity=0 time=0.23069111458333333
EXTRACT: note_on channel=1 note=70 velocity=0 time=0
EXTRACT: note_on channel=1 note=58 velocity=80 time=0.013211385416666666
EXTRACT: note_on channel=1 note=65 velocity=80 time=0
EXTRACT: note_on channel=0 note=77 velocity=0 time=0.16971548958333332
EXTRACT: note_on channel=1 note=34 velocity=0 time=0.02439025
EXTRACT: note_on channel=1 note=46 velocity=0 time=0
EXTRACT: note_on channel=1 note=58 velocity=0 time=0.036585374999999996
EXTRACT: note_on channel=1 note=65 velocity=0 time=0
EXTRACT: note_on channel=1 note=61 velocity=80 time=0.013211385416666666
EXTRACT: note_on channel=1 note=68 velocity=80 time=0
EXTRACT: note_on channel=1 note=32 velocity=80 time=0
EXTRACT: note_on channel=1 note=44 velocity=80 time=0
EXTRACT: control_change channel=1 control=64 value=0 time=0.0010162604166666666
EXTRACT: control_change channel=1 control=64 value=127 time=0.0010162604166666666
EXTRACT: note_on channel=1 note=61 velocity=0 time=0.22865859375
EXTRACT: note_on channel=1 note=68 velocity=0 time=0
EXTRACT: note_on channel=1 note=56 velocity=80 time=0.013211385416666666
EXTRACT: note_on channel=1 note=65 velocity=80 time=0
EXTRACT: note_on channel=1 note=56 velocity=0 time=0.23069111458333333
EXTRACT: note_on channel=1 note=65 velocity=0 time=0
EXTRACT: note_on channel=0 note=80 velocity=96 time=0.013211385416666666
EXTRACT: note_on channel=1 note=61 velocity=80 time=0
EXTRACT: note_on channel=1 note=68 velocity=80 time=0
EXTRACT: note_on channel=1 note=61 velocity=0 time=0.23069111458333333
EXTRACT: note_on channel=1 note=68 velocity=0 time=0
EXTRACT: note_on channel=1 note=56 velocity=80 time=0.013211385416666666
EXTRACT: note_on channel=1 note=65 velocity=80 time=0
EXTRACT: note_on channel=1 note=32 velocity=0 time=0.19410573958333333
EXTRACT: note_on channel=1 note=44 velocity=0 time=0
EXTRACT: note_on channel=1 note=56 velocity=0 time=0.036585374999999996
EXTRACT: note_on channel=1 note=65 velocity=0 time=0
EXTRACT: note_on channel=1 note=61 velocity=80 time=0.013211385416666666
EXTRACT: note_on channel=1 note=68 velocity=80 time=0
EXTRACT: note_on channel=1 note=32 velocity=80 time=0
EXTRACT: note_on channel=1 note=44 velocity=80 time=0
EXTRACT: note_on channel=0 note=80 velocity=0 time=0.20630086458333333
EXTRACT: note_on channel=1 note=61 velocity=0 time=0.02439025
EXTRACT: note_on channel=1 note=68 velocity=0 time=0
EXTRACT: note_on channel=0 note=77 velocity=96 time=0.013211385416666666
EXTRACT: note_on channel=1 note=56 velocity=80 time=0
EXTRACT: note_on channel=1 note=65 velocity=80 time=0
EXTRACT: note_on channel=1 note=56 velocity=0 time=0.23069111458333333
EXTRACT: note_on channel=1 note=65 velocity=0 time=0
EXTRACT: note_on channel=1 note=61 velocity=80 time=0.013211385416666666
EXTRACT: note_on channel=1 note=68 velocity=80 time=0
EXTRACT: note_on channel=0 note=77 velocity=0 time=0.21849598958333333
EXTRACT: note_on channel=1 note=61 velocity=0 time=0.012195125
EXTRACT: note_on channel=1 note=68 velocity=0 time=0
EXTRACT: note_on channel=0 note=77 velocity=96 time=0.013211385416666666
EXTRACT: note_on channel=1 note=56 velocity=80 time=0
EXTRACT: note_on channel=1 note=65 velocity=80 time=0
EXTRACT: note_on channel=1 note=32 velocity=0 time=0.19410573958333333
EXTRACT: note_on channel=1 note=44 velocity=0 time=0
EXTRACT: note_on channel=1 note=56 velocity=0 time=0.036585374999999996
EXTRACT: note_on channel=1 note=65 velocity=0 time=0
EXTRACT: note_on channel=1 note=61 velocity=80 time=0.013211385416666666
EXTRACT: note_on channel=1 note=68 velocity=80 time=0
EXTRACT: note_on channel=1 note=29 velocity=80 time=0
EXTRACT: note_on channel=1 note=41 velocity=80 time=0
EXTRACT: control_change channel=1 control=64 value=0 time=0.0010162604166666666
EXTRACT: control_change channel=1 control=64 value=127 time=0.0010162604166666666
EXTRACT: note_on channel=0 note=77 velocity=0 time=0.21646346875
EXTRACT: note_on channel=1 note=61 velocity=0 time=0.012195125
EXTRACT: note_on channel=1 note=68 velocity=0 time=0
EXTRACT: note_on channel=0 note=75 velocity=96 time=0.013211385416666666
EXTRACT: note_on channel=1 note=56 velocity=80 time=0
EXTRACT: note_on channel=1 note=65 velocity=80 time=0
EXTRACT: note_on channel=1 note=56 velocity=0 time=0.23069111458333333
EXTRACT: note_on channel=1 note=65 velocity=0 time=0
EXTRACT: note_on channel=1 note=61 velocity=80 time=0.013211385416666666
EXTRACT: note_on channel=1 note=68 velocity=80 time=0
EXTRACT: note_on channel=1 note=61 velocity=0 time=0.23069111458333333
EXTRACT: note_on channel=1 note=68 velocity=0 time=0
EXTRACT: note_on channel=1 note=56 velocity=80 time=0.013211385416666666
EXTRACT: note_on channel=1 note=65 velocity=80 time=0
EXTRACT: note_on channel=1 note=29 velocity=0 time=0.19410573958333333
EXTRACT: note_on channel=1 note=41 velocity=0 time=0
EXTRACT: note_on channel=1 note=56 velocity=0 time=0.036585374999999996
EXTRACT: note_on channel=1 note=65 velocity=0 time=0
EXTRACT: note_on channel=1 note=61 velocity=80 time=0.013211385416666666
EXTRACT: note_on channel=1 note=68 velocity=80 time=0
EXTRACT: note_on channel=1 note=29 velocity=80 time=0
EXTRACT: note_on channel=1 note=41 velocity=80 time=0
EXTRACT: note_on channel=0 note=75 velocity=0 time=0.19410573958333333
EXTRACT: note_on channel=1 note=61 velocity=0 time=0.036585374999999996
EXTRACT: note_on channel=1 note=68 velocity=0 time=0
EXTRACT: note_on channel=0 note=73 velocity=96 time=0.013211385416666666
EXTRACT: note_on channel=1 note=56 velocity=80 time=0
EXTRACT: note_on channel=1 note=65 velocity=80 time=0
EXTRACT: note_on channel=0 note=73 velocity=0 time=0.23069111458333333
EXTRACT: note_on channel=1 note=56 velocity=0 time=0
EXTRACT: note_on channel=1 note=65 velocity=0 time=0
EXTRACT: note_on channel=0 note=77 velocity=96 time=0.013211385416666666
EXTRACT: note_on channel=1 note=61 velocity=80 time=0
EXTRACT: note_on channel=1 note=68 velocity=80 time=0
EXTRACT: note_on channel=0 note=77 velocity=0 time=0.23069111458333333
EXTRACT: note_on channel=1 note=61 velocity=0 time=0
EXTRACT: note_on channel=1 note=68 velocity=0 time=0
EXTRACT: note_on channel=0 note=78 velocity=96 time=0.013211385416666666
EXTRACT: note_on channel=1 note=56 velocity=80 time=0
EXTRACT: note_on channel=1 note=65 velocity=80 time=0
EXTRACT: note_on channel=1 note=29 velocity=0 time=0.19410573958333333
EXTRACT: note_on channel=1 note=41 velocity=0 time=0
EXTRACT: note_on channel=0 note=78 velocity=0 time=0.036585374999999996
EXTRACT: note_on channel=1 note=56 velocity=0 time=0
EXTRACT: note_on channel=1 note=65 velocity=0 time=0
EXTRACT: note_on channel=0 note=77 velocity=96 time=0.013211385416666666
EXTRACT: note_on channel=1 note=61 velocity=80 time=0
EXTRACT: note_on channel=1 note=66 velocity=80 time=0
EXTRACT: note_on channel=1 note=30 velocity=80 time=0
EXTRACT: note_on channel=1 note=42 velocity=80 time=0
EXTRACT: control_change channel=1 control=64 value=0 time=0.0010162604166666666
EXTRACT: control_change channel=1 control=64 value=127 time=0.0010162604166666666
EXTRACT: note_on channel=1 note=61 velocity=0 time=0.22865859375
EXTRACT: note_on channel=1 note=66 velocity=0 time=0
EXTRACT: note_on channel=1 note=58 velocity=80 time=0.013211385416666666
EXTRACT: note_on channel=1 note=65 velocity=80 time=0
EXTRACT: note_on channel=1 note=58 velocity=0 time=0.23069111458333333
EXTRACT: note_on channel=1 note=65 velocity=0 time=0
EXTRACT: note_on channel=1 note=61 velocity=80 time=0.013211385416666666
EXTRACT: note_on channel=1 note=66 velocity=80 time=0
EXTRACT: note_on channel=1 note=61 velocity=0 time=0.23069111458333333
EXTRACT: note_on channel=1 note=66 velocity=0 time=0
EXTRACT: note_on channel=1 note=58 velocity=80 time=0.013211385416666666
EXTRACT: note_on channel=1 note=65 velocity=80 time=0
EXTRACT: note_on channel=1 note=30 velocity=0 time=0.19410573958333333
EXTRACT: note_on channel=1 note=42 velocity=0 time=0
EXTRACT: note_on channel=1 note=58 velocity=0 time=0.036585374999999996
EXTRACT: note_on channel=1 note=65 velocity=0 time=0
EXTRACT: note_on channel=1 note=61 velocity=80 time=0.013211385416666666
EXTRACT: note_on channel=1 note=66 velocity=80 time=0
EXTRACT: note_on channel=1 note=30 velocity=80 time=0
EXTRACT: note_on channel=1 note=42 velocity=80 time=0
EXTRACT: note_on channel=1 note=61 velocity=0 time=0.23069111458333333
EXTRACT: note_on channel=1 note=66 velocity=0 time=0
EXTRACT: note_on channel=1 note=58 velocity=80 time=0.013211385416666666
EXTRACT: note_on channel=1 note=65 velocity=80 time=0
EXTRACT: note_on channel=0 note=77 velocity=0 time=0.16971548958333332
EXTRACT: note_on channel=1 note=58 velocity=0 time=0.060975625
EXTRACT: note_on channel=1 note=65 velocity=0 time=0
EXTRACT: note_on channel=0 note=77 velocity=96 time=0.013211385416666666
EXTRACT: note_on channel=1 note=61 velocity=80 time=0
EXTRACT: note_on channel=1 note=66 velocity=80 time=0
EXTRACT: note_on channel=0 note=77 velocity=0 time=0.23069111458333333
EXTRACT: note_on channel=1 note=61 velocity=0 time=0
EXTRACT: note_on channel=1 note=66 velocity=0 time=0
EXTRACT: note_on channel=0 note=77 velocity=96 time=0.013211385416666666
EXTRACT: note_on channel=1 note=58 velocity=80 time=0
EXTRACT: note_on channel=1 note=65 velocity=80 time=0
EXTRACT: note_on channel=1 note=30 velocity=0 time=0.19410573958333333
EXTRACT: note_on channel=1 note=42 velocity=0 time=0
EXTRACT: note_on channel=0 note=77 velocity=0 time=0.036585374999999996
EXTRACT: note_on channel=1 note=58 velocity=0 time=0
EXTRACT: note_on channel=1 note=65 velocity=0 time=0
EXTRACT: note_on channel=0 note=75 velocity=96 time=0.013211385416666666
EXTRACT: note_on channel=1 note=61 velocity=80 time=0
EXTRACT: note_on channel=1 note=70 velocity=80 time=0
EXTRACT: note_on channel=1 note=34 velocity=80 time=0
EXTRACT: note_on channel=1 note=46 velocity=80 time=0
EXTRACT: control_change channel=1 control=64 value=0 time=0.0010162604166666666
EXTRACT: control_change channel=1 control=64 value=127 time=0.0010162604166666666
EXTRACT: note_on channel=1 note=61 velocity=0 time=0.22865859375
EXTRACT: note_on channel=1 note=70 velocity=0 time=0
EXTRACT: note_on channel=1 note=58 velocity=80 time=0.013211385416666666
EXTRACT: note_on channel=1 note=65 velocity=80 time=0
EXTRACT: note_on channel=0 note=75 velocity=0 time=0.21849598958333333
EXTRACT: note_on channel=1 note=58 velocity=0 time=0.012195125
EXTRACT: note_on channel=1 note=65 velocity=0 time=0
EXTRACT: note_on channel=0 note=77 velocity=96 time=0.013211385416666666
EXTRACT: note_on channel=1 note=61 velocity=80 time=0
EXTRACT: note_on channel=1 note=70 velocity=80 time=0
EXTRACT: note_on channel=1 note=61 velocity=0 time=0.23069111458333333
EXTRACT: note_on channel=1 note=70 velocity=0 time=0
EXTRACT: note_on channel=1 note=58 velocity=80 time=0.013211385416666666
EXTRACT: note_on channel=1 note=65 velocity=80 time=0
EXTRACT: note_on channel=1 note=34 velocity=0 time=0.19410573958333333
EXTRACT: note_on channel=1 note=46 velocity=0 time=0
EXTRACT: note_on channel=1 note=58 velocity=0 time=0.036585374999999996
EXTRACT: note_on channel=1 note=65 velocity=0 time=0
EXTRACT: note_on channel=1 note=61 velocity=80 time=0.013211385416666666
EXTRACT: note_on channel=1 note=70 velocity=80 time=0
EXTRACT: note_on channel=1 note=34 velocity=80 time=0
EXTRACT: note_on channel=1 note=46 velocity=80 time=0
EXTRACT: note_on channel=1 note=61 velocity=0 time=0.23069111458333333
EXTRACT: note_on channel=1 note=70 velocity=0 time=0
EXTRACT: note_on channel=1 note=58 velocity=80 time=0.013211385416666666
EXTRACT: note_on channel=1 note=65 velocity=80 time=0
EXTRACT: note_on channel=1 note=58 velocity=0 time=0.23069111458333333
EXTRACT: note_on channel=1 note=65 velocity=0 time=0
EXTRACT: note_on channel=1 note=61 velocity=80 time=0.013211385416666666
EXTRACT: note_on channel=1 note=70 velocity=80 time=0
EXTRACT: note_on channel=1 note=61 velocity=0 time=0.23069111458333333
EXTRACT: note_on channel=1 note=70 velocity=0 time=0
EXTRACT: note_on channel=1 note=58 velocity=80 time=0.013211385416666666
EXTRACT: note_on channel=1 note=65 velocity=80 time=0
EXTRACT: note_on channel=0 note=77 velocity=0 time=0.16971548958333332
EXTRACT: note_on channel=1 note=34 velocity=0 time=0.02439025
EXTRACT: note_on channel=1 note=46 velocity=0 time=0
EXTRACT: note_on channel=1 note=58 velocity=0 time=0.036585374999999996
EXTRACT: note_on channel=1 note=65 velocity=0 time=0
EXTRACT: note_on channel=1 note=61 velocity=80 time=0.013211385416666666
EXTRACT: note_on channel=1 note=68 velocity=80 time=0
EXTRACT: note_on channel=1 note=32 velocity=80 time=0
EXTRACT: note_on channel=1 note=44 velocity=80 time=0
EXTRACT: control_change channel=1 control=64 value=0 time=0.0010162604166666666
EXTRACT: control_change channel=1 control=64 value=127 time=0.0010162604166666666
EXTRACT: note_on channel=1 note=61 velocity=0 time=0.22865859375
EXTRACT: note_on channel=1 note=68 velocity=0 time=0
EXTRACT: note_on channel=1 note=56 velocity=80 time=0.013211385416666666
EXTRACT: note_on channel=1 note=65 velocity=80 time=0
EXTRACT: note_on channel=1 note=56 velocity=0 time=0.23069111458333333
EXTRACT: note_on channel=1 note=65 velocity=0 time=0
EXTRACT: note_on channel=0 note=80 velocity=96 time=0.013211385416666666
EXTRACT: note_on channel=1 note=61 velocity=80 time=0
EXTRACT: note_on channel=1 note=68 velocity=80 time=0
EXTRACT: note_on channel=1 note=61 velocity=0 time=0.23069111458333333
EXTRACT: note_on channel=1 note=68 velocity=0 time=0
EXTRACT: note_on channel=1 note=56 velocity=80 time=0.013211385416666666
EXTRACT: note_on channel=1 note=65 velocity=80 time=0
EXTRACT: note_on channel=1 note=32 velocity=0 time=0.19410573958333333
EXTRACT: note_on channel=1 note=44 velocity=0 time=0
EXTRACT: note_on channel=1 note=56 velocity=0 time=0.036585374999999996
EXTRACT: note_on channel=1 note=65 velocity=0 time=0
EXTRACT: note_on channel=1 note=61 velocity=80 time=0.013211385416666666
EXTRACT: note_on channel=1 note=68 velocity=80 time=0
EXTRACT: note_on channel=1 note=32 velocity=80 time=0
EXTRACT: note_on channel=1 note=44 velocity=80 time=0
EXTRACT: note_on channel=1 note=61 velocity=0 time=0.23069111458333333
EXTRACT: note_on channel=1 note=68 velocity=0 time=0
EXTRACT: note_on channel=1 note=56 velocity=80 time=0.013211385416666666
EXTRACT: note_on channel=1 note=65 velocity=80 time=0
EXTRACT: note_on channel=1 note=56 velocity=0 time=0.23069111458333333
EXTRACT: note_on channel=1 note=65 velocity=0 time=0
EXTRACT: note_on channel=1 note=61 velocity=80 time=0.013211385416666666
EXTRACT: note_on channel=1 note=68 velocity=80 time=0
EXTRACT: note_on channel=0 note=80 velocity=0 time=0.18191061458333332
EXTRACT: note_on channel=1 note=61 velocity=0 time=0.0487805
EXTRACT: note_on channel=1 note=68 velocity=0 time=0
EXTRACT: note_on channel=0 note=82 velocity=96 time=0.013211385416666666
EXTRACT: note_on channel=1 note=56 velocity=80 time=0
EXTRACT: note_on channel=1 note=65 velocity=80 time=0
EXTRACT: note_on channel=1 note=32 velocity=0 time=0.19410573958333333
EXTRACT: note_on channel=1 note=44 velocity=0 time=0
EXTRACT: note_on channel=0 note=82 velocity=0 time=0.036585374999999996
EXTRACT: note_on channel=1 note=56 velocity=0 time=0
EXTRACT: note_on channel=1 note=65 velocity=0 time=0
EXTRACT: note_on channel=0 note=80 velocity=96 time=0.013211385416666666
EXTRACT: note_on channel=1 note=61 velocity=80 time=0
EXTRACT: note_on channel=1 note=68 velocity=80 time=0
EXTRACT: note_on channel=1 note=29 velocity=80 time=0
EXTRACT: note_on channel=1 note=41 velocity=80 time=0
EXTRACT: control_change channel=1 control=64 value=0 time=0.0010162604166666666
EXTRACT: control_change channel=1 control=64 value=127 time=0.0010162604166666666
EXTRACT: note_on channel=1 note=61 velocity=0 time=0.22865859375
EXTRACT: note_on channel=1 note=68 velocity=0 time=0
EXTRACT: note_on channel=1 note=56 velocity=80 time=0.013211385416666666
EXTRACT: note_on channel=1 note=65 velocity=80 time=0
EXTRACT: note_on channel=0 note=80 velocity=0 time=0.10264230208333333
EXTRACT: note_on channel=0 note=77 velocity=96 time=0.019308947916666666
EXTRACT: note_on channel=1 note=56 velocity=0 time=0.10873986458333333
EXTRACT: note_on channel=1 note=65 velocity=0 time=0
EXTRACT: note_on channel=1 note=61 velocity=80 time=0.013211385416666666
EXTRACT: note_on channel=1 note=68 velocity=80 time=0
EXTRACT: note_on channel=1 note=61 velocity=0 time=0.23069111458333333
EXTRACT: note_on channel=1 note=68 velocity=0 time=0
EXTRACT: note_on channel=1 note=56 velocity=80 time=0.013211385416666666
EXTRACT: note_on channel=1 note=65 velocity=80 time=0
EXTRACT: note_on channel=1 note=29 velocity=0 time=0.19410573958333333
EXTRACT: note_on channel=1 note=41 velocity=0 time=0
EXTRACT: note_on channel=1 note=56 velocity=0 time=0.036585374999999996
EXTRACT: note_on channel=1 note=65 velocity=0 time=0
EXTRACT: note_on channel=1 note=61 velocity=80 time=0.013211385416666666
EXTRACT: note_on channel=1 note=68 velocity=80 time=0
EXTRACT: note_on channel=1 note=29 velocity=80 time=0
EXTRACT: note_on channel=1 note=41 velocity=80 time=0
EXTRACT: note_on channel=0 note=77 velocity=0 time=0.08434961458333333
EXTRACT: note_on channel=1 note=61 velocity=0 time=0.14634149999999999
EXTRACT: note_on channel=1 note=68 velocity=0 time=0
EXTRACT: note_on channel=0 note=80 velocity=96 time=0.013211385416666666
EXTRACT: note_on channel=1 note=56 velocity=80 time=0
EXTRACT: note_on channel=1 note=65 velocity=80 time=0
EXTRACT: note_on channel=1 note=56 velocity=0 time=0.23069111458333333
EXTRACT: note_on channel=1 note=65 velocity=0 time=0
EXTRACT: note_on channel=1 note=61 velocity=80 time=0.013211385416666666
EXTRACT: note_on channel=1 note=68 velocity=80 time=0
EXTRACT: note_on channel=0 note=80 velocity=0 time=0.21849598958333333
EXTRACT: note_on channel=1 note=61 velocity=0 time=0.012195125
EXTRACT: note_on channel=1 note=68 velocity=0 time=0
EXTRACT: note_on channel=0 note=77 velocity=96 time=0.013211385416666666
EXTRACT: note_on channel=1 note=56 velocity=80 time=0
EXTRACT: note_on channel=1 note=65 velocity=80 time=0
EXTRACT: note_on channel=0 note=77 velocity=0 time=0.11483742708333333
EXTRACT: note_on channel=0 note=75 velocity=96 time=0.007113822916666667
EXTRACT: note_on channel=1 note=29 velocity=0 time=0.07215448958333333
EXTRACT: note_on channel=1 note=41 velocity=0 time=0
EXTRACT: note_on channel=1 note=56 velocity=0 time=0.036585374999999996
EXTRACT: note_on channel=1 note=65 velocity=0 time=0
EXTRACT: note_on channel=0 note=75 velocity=0 time=0.0060975625
EXTRACT: note_on channel=0 note=73 velocity=96 time=0.007113822916666667
EXTRACT: note_on channel=1 note=61 velocity=80 time=0
EXTRACT: note_on channel=1 note=66 velocity=80 time=0
EXTRACT: note_on channel=1 note=30 velocity=80 time=0
EXTRACT: note_on channel=1 note=42 velocity=80 time=0
EXTRACT: control_change channel=1 control=64 value=0 time=0.0010162604166666666
EXTRACT: control_change channel=1 control=64 value=127 time=0.0010162604166666666
EXTRACT: note_on channel=1 note=61 velocity=0 time=0.22865859375
EXTRACT: note_on channel=1 note=66 velocity=0 time=0
EXTRACT: note_on channel=1 note=58 velocity=80 time=0.013211385416666666
EXTRACT: note_on channel=1 note=65 velocity=80 time=0
EXTRACT: note_on channel=1 note=58 velocity=0 time=0.23069111458333333
EXTRACT: note_on channel=1 note=65 velocity=0 time=0
EXTRACT: note_on channel=1 note=61 velocity=80 time=0.013211385416666666
EXTRACT: note_on channel=1 note=66 velocity=80 time=0
EXTRACT: note_on channel=0 note=73 velocity=0 time=0.20630086458333333
EXTRACT: note_on channel=1 note=61 velocity=0 time=0.02439025
EXTRACT: note_on channel=1 note=66 velocity=0 time=0
EXTRACT: note_on channel=0 note=70 velocity=96 time=0.013211385416666666
EXTRACT: note_on channel=1 note=58 velocity=80 time=0
EXTRACT: note_on channel=1 note=65 velocity=80 time=0
EXTRACT: note_on channel=1 note=30 velocity=0 time=0.19410573958333333
EXTRACT: note_on channel=1 note=42 velocity=0 time=0
EXTRACT: note_on channel=1 note=58 velocity=0 time=0.036585374999999996
EXTRACT: note_on channel=1 note=65 velocity=0 time=0
EXTRACT: note_on channel=1 note=61 velocity=80 time=0.013211385416666666
EXTRACT: note_on channel=1 note=66 velocity=80 time=0
EXTRACT: note_on channel=1 note=30 velocity=80 time=0
EXTRACT: note_on channel=1 note=42 velocity=80 time=0
EXTRACT: note_on channel=1 note=61 velocity=0 time=0.23069111458333333
EXTRACT: note_on channel=1 note=66 velocity=0 time=0
EXTRACT: note_on channel=1 note=58 velocity=80 time=0.013211385416666666
EXTRACT: note_on channel=1 note=65 velocity=80 time=0
EXTRACT: note_on channel=1 note=58 velocity=0 time=0.23069111458333333
EXTRACT: note_on channel=1 note=65 velocity=0 time=0
EXTRACT: note_on channel=1 note=61 velocity=80 time=0.013211385416666666
EXTRACT: note_on channel=1 note=66 velocity=80 time=0
EXTRACT: note_on channel=1 note=61 velocity=0 time=0.23069111458333333
EXTRACT: note_on channel=1 note=66 velocity=0 time=0
EXTRACT: note_on channel=1 note=58 velocity=80 time=0.013211385416666666
EXTRACT: note_on channel=1 note=65 velocity=80 time=0
EXTRACT: note_on channel=0 note=70 velocity=0 time=0.18191061458333332
EXTRACT: note_on channel=1 note=30 velocity=0 time=0.012195125
EXTRACT: note_on channel=1 note=42 velocity=0 time=0
EXTRACT: note_on channel=1 note=58 velocity=0 time=0.036585374999999996
EXTRACT: note_on channel=1 note=65 velocity=0 time=0
EXTRACT: note_on channel=0 note=82 velocity=96 time=0.013211385416666666
EXTRACT: note_on channel=1 note=61 velocity=80 time=0
EXTRACT: note_on channel=1 note=70 velocity=80 time=0
EXTRACT: note_on channel=1 note=34 velocity=80 time=0
EXTRACT: note_on channel=1 note=46 velocity=80 time=0
EXTRACT: control_change channel=1 control=64 value=0 time=0.0010162604166666666
EXTRACT: control_change channel=1 control=64 value=127 time=0.0010162604166666666
EXTRACT: note_on channel=0 note=82 velocity=0 time=0.11280490624999999
EXTRACT: note_on channel=0 note=80 velocity=96 time=0.007113822916666667
EXTRACT: note_on channel=1 note=61 velocity=0 time=0.10873986458333333
EXTRACT: note_on channel=1 note=70 velocity=0 time=0
EXTRACT: note_on channel=0 note=80 velocity=0 time=0.0060975625
EXTRACT: note_on channel=0 note=82 velocity=96 time=0.007113822916666667
EXTRACT: note_on channel=1 note=58 velocity=80 time=0
EXTRACT: note_on channel=1 note=65 velocity=80 time=0
EXTRACT: note_on channel=1 note=58 velocity=0 time=0.23069111458333333
EXTRACT: note_on channel=1 note=65 velocity=0 time=0
EXTRACT: note_on channel=1 note=61 velocity=80 time=0.013211385416666666
EXTRACT: note_on channel=1 note=70 velocity=80 time=0
EXTRACT: note_on channel=1 note=61 velocity=0 time=0.23069111458333333
EXTRACT: note_on channel=1 note=70 velocity=0 time=0
EXTRACT: note_on channel=1 note=58 velocity=80 time=0.013211385416666666
EXTRACT: note_on channel=1 note=65 velocity=80 time=0
EXTRACT: note_on channel=1 note=34 velocity=0 time=0.19410573958333333
EXTRACT: note_on channel=1 note=46 velocity=0 time=0
EXTRACT: note_on channel=1 note=58 velocity=0 time=0.036585374999999996
EXTRACT: note_on channel=1 note=65 velocity=0 time=0
EXTRACT: note_on channel=1 note=61 velocity=80 time=0.013211385416666666
EXTRACT: note_on channel=1 note=70 velocity=80 time=0
EXTRACT: note_on channel=1 note=34 velocity=80 time=0
EXTRACT: note_on channel=1 note=46 velocity=80 time=0
EXTRACT: note_on channel=1 note=61 velocity=0 time=0.23069111458333333
EXTRACT: note_on channel=1 note=70 velocity=0 time=0
EXTRACT: note_on channel=1 note=58 velocity=80 time=0.013211385416666666
EXTRACT: note_on channel=1 note=65 velocity=80 time=0
EXTRACT: note_on channel=1 note=58 velocity=0 time=0.23069111458333333
EXTRACT: note_on channel=1 note=65 velocity=0 time=0
EXTRACT: note_on channel=1 note=61 velocity=80 time=0.013211385416666666
EXTRACT: note_on channel=1 note=70 velocity=80 time=0
EXTRACT: note_on channel=1 note=61 velocity=0 time=0.23069111458333333
EXTRACT: note_on channel=1 note=70 velocity=0 time=0
EXTRACT: note_on channel=1 note=58 velocity=80 time=0.013211385416666666
EXTRACT: note_on channel=1 note=65 velocity=80 time=0
EXTRACT: note_on channel=0 note=82 velocity=0 time=0.15752036458333332
EXTRACT: note_on channel=1 note=34 velocity=0 time=0.036585374999999996
EXTRACT: note_on channel=1 note=46 velocity=0 time=0
EXTRACT: note_on channel=1 note=58 velocity=0 time=0.036585374999999996
EXTRACT: note_on channel=1 note=65 velocity=0 time=0
EXTRACT: note_on channel=1 note=61 velocity=80 time=0.013211385416666666
EXTRACT: note_on channel=1 note=68 velocity=80 time=0
EXTRACT: note_on channel=1 note=32 velocity=80 time=0
EXTRACT: note_on channel=1 note=44 velocity=80 time=0
EXTRACT: control_change channel=1 control=64 value=0 time=0.0010162604166666666
EXTRACT: control_change channel=1 control=64 value=127 time=0.0010162604166666666
EXTRACT: note_on channel=1 note=61 velocity=0 time=0.22865859375
EXTRACT: note_on channel=1 note=68 velocity=0 time=0
EXTRACT: note_on channel=0 note=82 velocity=96 time=0.013211385416666666
EXTRACT: note_on channel=1 note=56 velocity=80 time=0
EXTRACT: note_on channel=1 note=65 velocity=80 time=0
EXTRACT: note_on channel=0 note=82 velocity=0 time=0.23069111458333333
EXTRACT: note_on channel=1 note=56 velocity=0 time=0
EXTRACT: note_on channel=1 note=65 velocity=0 time=0
EXTRACT: note_on channel=0 note=80 velocity=96 time=0.013211385416666666
EXTRACT: note_on channel=1 note=61 velocity=80 time=0
EXTRACT: note_on channel=1 note=68 velocity=80 time=0
EXTRACT: note_on channel=0 note=80 velocity=0 time=0.23069111458333333
EXTRACT: note_on channel=1 note=61 velocity=0 time=0
EXTRACT: note_on channel=1 note=68 velocity=0 time=0
EXTRACT: note_on channel=0 note=82 velocity=96 time=0.013211385416666666
EXTRACT: note_on channel=1 note=56 velocity=80 time=0
EXTRACT: note_on channel=1 note=65 velocity=80 time=0
EXTRACT: note_on channel=1 note=32 velocity=0 time=0.19410573958333333
EXTRACT: note_on channel=1 note=44 velocity=0 time=0
EXTRACT: note_on channel=0 note=82 velocity=0 time=0.036585374999999996
EXTRACT: note_on channel=1 note=56 velocity=0 time=0
EXTRACT: note_on channel=1 note=65 velocity=0 time=0
EXTRACT: note_on channel=0 note=84 velocity=96 time=0.013211385416666666
EXTRACT: note_on channel=1 note=61 velocity=80 time=0
EXTRACT: note_on channel=1 note=68 velocity=80 time=0
EXTRACT: note_on channel=1 note=32 velocity=80 time=0
EXTRACT: note_on channel=1 note=44 velocity=80 time=0
EXTRACT: note_on channel=1 note=61 velocity=0 time=0.23069111458333333
EXTRACT: note_on channel=1 note=68 velocity=0 time=0
EXTRACT: note_on channel=1 note=56 velocity=80 time=0.013211385416666666
EXTRACT: note_on channel=1 note=65 velocity=80 time=0
EXTRACT: note_on channel=0 note=84 velocity=0 time=0.10264230208333333
EXTRACT: note_on channel=0 note=85 velocity=96 time=0.019308947916666666
EXTRACT: note_on channel=1 note=56 velocity=0 time=0.10873986458333333
EXTRACT: note_on channel=1 note=65 velocity=0 time=0
EXTRACT: note_on channel=1 note=61 velocity=80 time=0.013211385416666666
EXTRACT: note_on channel=1 note=68 velocity=80 time=0
EXTRACT: note_on channel=0 note=85 velocity=0 time=0.22459355208333331
EXTRACT: note_on channel=1 note=61 velocity=0 time=0.0060975625
EXTRACT: note_on channel=1 note=68 velocity=0 time=0
EXTRACT: note_on channel=0 note=84 velocity=96 time=0.013211385416666666
EXTRACT: note_on channel=1 note=56 velocity=80 time=0
EXTRACT: note_on channel=1 note=65 velocity=80 time=0
EXTRACT: note_on channel=1 note=32 velocity=0 time=0.19410573958333333
EXTRACT: note_on channel=1 note=44 velocity=0 time=0
EXTRACT: note_on channel=1 note=56 velocity=0 time=0.036585374999999996
EXTRACT: note_on channel=1 note=65 velocity=0 time=0
EXTRACT: note_on channel=1 note=61 velocity=80 time=0.013211385416666666
EXTRACT: note_on channel=1 note=68 velocity=80 time=0
EXTRACT: note_on channel=1 note=29 velocity=80 time=0
EXTRACT: note_on channel=1 note=41 velocity=80 time=0
EXTRACT: control_change channel=1 control=64 value=0 time=0.0010162604166666666
EXTRACT: control_change channel=1 control=64 value=127 time=0.0010162604166666666
EXTRACT: note_on channel=0 note=84 velocity=0 time=0.21646346875
EXTRACT: note_on channel=1 note=61 velocity=0 time=0.012195125
EXTRACT: note_on channel=1 note=68 velocity=0 time=0
EXTRACT: note_on channel=0 note=82 velocity=96 time=0.013211385416666666
EXTRACT: note_on channel=1 note=56 velocity=80 time=0
EXTRACT: note_on channel=1 note=65 velocity=80 time=0
EXTRACT: note_on channel=1 note=56 velocity=0 time=0.23069111458333333
EXTRACT: note_on channel=1 note=65 velocity=0 time=0
EXTRACT: note_on channel=1 note=61 velocity=80 time=0.013211385416666666
EXTRACT: note_on channel=1 note=68 velocity=80 time=0
EXTRACT: note_on channel=1 note=61 velocity=0 time=0.23069111458333333
EXTRACT: note_on channel=1 note=68 velocity=0 time=0
EXTRACT: note_on channel=1 note=56 velocity=80 time=0.013211385416666666
EXTRACT: note_on channel=1 note=65 velocity=80 time=0
EXTRACT: note_on channel=1 note=29 velocity=0 time=0.19410573958333333
EXTRACT: note_on channel=1 note=41 velocity=0 time=0
EXTRACT: note_on channel=0 note=82 velocity=0 time=0.012195125
EXTRACT: note_on channel=1 note=56 velocity=0 time=0.02439025
EXTRACT: note_on channel=1 note=65 velocity=0 time=0
EXTRACT: note_on channel=0 note=77 velocity=96 time=0.013211385416666666
EXTRACT: note_on channel=1 note=61 velocity=80 time=0
EXTRACT: note_on channel=1 note=68 velocity=80 time=0
EXTRACT: note_on channel=1 note=29 velocity=80 time=0
EXTRACT: note_on channel=1 note=41 velocity=80 time=0
EXTRACT: note_on channel=0 note=77 velocity=0 time=0.23069111458333333
EXTRACT: note_on channel=1 note=61 velocity=0 time=0
EXTRACT: note_on channel=1 note=68 velocity=0 time=0
EXTRACT: note_on channel=0 note=75 velocity=96 time=0.013211385416666666
EXTRACT: note_on channel=1 note=56 velocity=80 time=0
EXTRACT: note_on channel=1 note=65 velocity=80 time=0
EXTRACT: note_on channel=0 note=75 velocity=0 time=0.23069111458333333
EXTRACT: note_on channel=1 note=56 velocity=0 time=0
EXTRACT: note_on channel=1 note=65 velocity=0 time=0
EXTRACT: note_on channel=0 note=73 velocity=96 time=0.013211385416666666
EXTRACT: note_on channel=1 note=61 velocity=80 time=0
EXTRACT: note_on channel=1 note=68 velocity=80 time=0
EXTRACT: note_on channel=1 note=61 velocity=0 time=0.23069111458333333
EXTRACT: note_on channel=1 note=68 velocity=0 time=0
EXTRACT: note_on channel=1 note=56 velocity=80 time=0.013211385416666666
EXTRACT: note_on channel=1 note=65 velocity=80 time=0
EXTRACT: note_on channel=1 note=29 velocity=0 time=0.19410573958333333
EXTRACT: note_on channel=1 note=41 velocity=0 time=0
EXTRACT: note_on channel=1 note=56 velocity=0 time=0.036585374999999996
EXTRACT: note_on channel=1 note=65 velocity=0 time=0
EXTRACT: note_on channel=1 note=61 velocity=80 time=0.013211385416666666
EXTRACT: note_on channel=1 note=66 velocity=80 time=0
EXTRACT: note_on channel=1 note=30 velocity=80 time=0
EXTRACT: note_on channel=1 note=42 velocity=80 time=0
EXTRACT: control_change channel=1 control=64 value=0 time=0.0010162604166666666
EXTRACT: control_change channel=1 control=64 value=127 time=0.0010162604166666666
EXTRACT: note_on channel=1 note=61 velocity=0 time=0.22865859375
EXTRACT: note_on channel=1 note=66 velocity=0 time=0
EXTRACT: note_on channel=1 note=58 velocity=80 time=0.013211385416666666
EXTRACT: note_on channel=1 note=65 velocity=80 time=0
EXTRACT: note_on channel=0 note=73 velocity=0 time=0.19410573958333333
EXTRACT: note_on channel=1 note=58 velocity=0 time=0.036585374999999996
EXTRACT: note_on channel=1 note=65 velocity=0 time=0
EXTRACT: note_on channel=0 note=70 velocity=96 time=0.013211385416666666
EXTRACT: note_on channel=1 note=61 velocity=80 time=0
EXTRACT: note_on channel=1 note=66 velocity=80 time=0
EXTRACT: note_on channel=1 note=61 velocity=0 time=0.23069111458333333
EXTRACT: note_on channel=1 note=66 velocity=0 time=0
EXTRACT: note_on channel=1 note=58 velocity=80 time=0.013211385416666666
EXTRACT: note_on channel=1 note=65 velocity=80 time=0
EXTRACT: note_on channel=1 note=30 velocity=0 time=0.19410573958333333
EXTRACT: note_on channel=1 note=42 velocity=0 time=0
EXTRACT: note_on channel=1 note=58 velocity=0 time=0.036585374999999996
EXTRACT: note_on channel=1 note=65 velocity=0 time=0
EXTRACT: note_on channel=1 note=61 velocity=80 time=0.013211385416666666
EXTRACT: note_on channel=1 note=66 velocity=80 time=0
EXTRACT: note_on channel=1 note=30 velocity=80 time=0
EXTRACT: note_on channel=1 note=42 velocity=80 time=0
EXTRACT: note_on channel=1 note=61 velocity=0 time=0.23069111458333333
EXTRACT: note_on channel=1 note=66 velocity=0 time=0
EXTRACT: note_on channel=1 note=58 velocity=80 time=0.013211385416666666
EXTRACT: note_on channel=1 note=65 velocity=80 time=0
EXTRACT: note_on channel=1 note=58 velocity=0 time=0.23069111458333333
EXTRACT: note_on channel=1 note=65 velocity=0 time=0
EXTRACT: note_on channel=1 note=61 velocity=80 time=0.013211385416666666
EXTRACT: note_on channel=1 note=66 velocity=80 time=0
EXTRACT: note_on channel=1 note=61 velocity=0 time=0.23069111458333333
EXTRACT: note_on channel=1 note=66 velocity=0 time=0
EXTRACT: note_on channel=1 note=58 velocity=80 time=0.013211385416666666
EXTRACT: note_on channel=1 note=65 velocity=80 time=0
EXTRACT: note_on channel=0 note=70 velocity=0 time=0.16971548958333332
EXTRACT: note_on channel=1 note=30 velocity=0 time=0.02439025
EXTRACT: note_on channel=1 note=42 velocity=0 time=0
EXTRACT: note_on channel=1 note=58 velocity=0 time=0.036585374999999996
EXTRACT: note_on channel=1 note=65 velocity=0 time=0
EXTRACT: note_on channel=0 note=82 velocity=96 time=0.013211385416666666
EXTRACT: note_on channel=1 note=61 velocity=80 time=0
EXTRACT: note_on channel=1 note=70 velocity=80 time=0
EXTRACT: note_on channel=1 note=34 velocity=80 time=0
EXTRACT: note_on channel=1 note=46 velocity=80 time=0
EXTRACT: control_change channel=1 control=64 value=0 time=0.0010162604166666666
EXTRACT: control_change channel=1 control=64 value=127 time=0.0010162604166666666
EXTRACT: note_on channel=0 note=82 velocity=0 time=0.11280490624999999
EXTRACT: note_on channel=0 note=80 velocity=96 time=0.007113822916666667
EXTRACT: note_on channel=1 note=61 velocity=0 time=0.10873986458333333
EXTRACT: note_on channel=1 note=70 velocity=0 time=0
EXTRACT: note_on channel=0 note=80 velocity=0 time=0.0060975625
EXTRACT: note_on channel=0 note=82 velocity=96 time=0.007113822916666667
EXTRACT: note_on channel=1 note=58 velocity=80 time=0
EXTRACT: note_on channel=1 note=65 velocity=80 time=0
EXTRACT: note_on channel=1 note=58 velocity=0 time=0.23069111458333333
EXTRACT: note_on channel=1 note=65 velocity=0 time=0
EXTRACT: note_on channel=1 note=61 velocity=80 time=0.013211385416666666
EXTRACT: note_on channel=1 note=70 velocity=80 time=0
EXTRACT: note_on channel=1 note=61 velocity=0 time=0.23069111458333333
EXTRACT: note_on channel=1 note=70 velocity=0 time=0
EXTRACT: note_on channel=1 note=58 velocity=80 time=0.013211385416666666
EXTRACT: note_on channel=1 note=65 velocity=80 time=0
EXTRACT: note_on channel=1 note=34 velocity=0 time=0.19410573958333333
EXTRACT: note_on channel=1 note=46 velocity=0 time=0
EXTRACT: note_on channel=1 note=58 velocity=0 time=0.036585374999999996
EXTRACT: note_on channel=1 note=65 velocity=0 time=0
EXTRACT: note_on channel=1 note=61 velocity=80 time=0.013211385416666666
EXTRACT: note_on channel=1 note=70 velocity=80 time=0
EXTRACT: note_on channel=1 note=34 velocity=80 time=0
EXTRACT: note_on channel=1 note=46 velocity=80 time=0
EXTRACT: note_on channel=1 note=61 velocity=0 time=0.23069111458333333
EXTRACT: note_on channel=1 note=70 velocity=0 time=0
EXTRACT: note_on channel=1 note=58 velocity=80 time=0.013211385416666666
EXTRACT: note_on channel=1 note=65 velocity=80 time=0
EXTRACT: note_on channel=1 note=58 velocity=0 time=0.23069111458333333
EXTRACT: note_on channel=1 note=65 velocity=0 time=0
EXTRACT: note_on channel=1 note=61 velocity=80 time=0.013211385416666666
EXTRACT: note_on channel=1 note=70 velocity=80 time=0
EXTRACT: note_on channel=1 note=61 velocity=0 time=0.23069111458333333
EXTRACT: note_on channel=1 note=70 velocity=0 time=0
EXTRACT: note_on channel=1 note=58 velocity=80 time=0.013211385416666666
EXTRACT: note_on channel=1 note=65 velocity=80 time=0
EXTRACT: note_on channel=0 note=82 velocity=0 time=0.15752036458333332
EXTRACT: note_on channel=1 note=34 velocity=0 time=0.036585374999999996
EXTRACT: note_on channel=1 note=46 velocity=0 time=0
EXTRACT: note_on channel=1 note=58 velocity=0 time=0.036585374999999996
EXTRACT: note_on channel=1 note=65 velocity=0 time=0
EXTRACT: note_on channel=1 note=61 velocity=80 time=0.013211385416666666
EXTRACT: note_on channel=1 note=68 velocity=80 time=0
EXTRACT: note_on channel=1 note=32 velocity=80 time=0
EXTRACT: note_on channel=1 note=44 velocity=80 time=0
EXTRACT: control_change channel=1 control=64 value=0 time=0.0010162604166666666
EXTRACT: control_change channel=1 control=64 value=127 time=0.0010162604166666666
EXTRACT: note_on channel=1 note=61 velocity=0 time=0.22865859375
EXTRACT: note_on channel=1 note=68 velocity=0 time=0
EXTRACT: note_on channel=0 note=82 velocity=96 time=0.013211385416666666
EXTRACT: note_on channel=1 note=56 velocity=80 time=0
EXTRACT: note_on channel=1 note=65 velocity=80 time=0
EXTRACT: note_on channel=0 note=82 velocity=0 time=0.23069111458333333
EXTRACT: note_on channel=1 note=56 velocity=0 time=0
EXTRACT: note_on channel=1 note=65 velocity=0 time=0
EXTRACT: note_on channel=0 note=80 velocity=96 time=0.013211385416666666
EXTRACT: note_on channel=1 note=61 velocity=80 time=0
EXTRACT: note_on channel=1 note=68 velocity=80 time=0
EXTRACT: note_on channel=0 note=80 velocity=0 time=0.23069111458333333
EXTRACT: note_on channel=1 note=61 velocity=0 time=0
EXTRACT: note_on channel=1 note=68 velocity=0 time=0
EXTRACT: note_on channel=0 note=82 velocity=96 time=0.013211385416666666
EXTRACT: note_on channel=1 note=56 velocity=80 time=0
EXTRACT: note_on channel=1 note=65 velocity=80 time=0
EXTRACT: note_on channel=1 note=32 velocity=0 time=0.19410573958333333
EXTRACT: note_on channel=1 note=44 velocity=0 time=0
EXTRACT: note_on channel=0 note=82 velocity=0 time=0.036585374999999996
EXTRACT: note_on channel=1 note=56 velocity=0 time=0
EXTRACT: note_on channel=1 note=65 velocity=0 time=0
EXTRACT: note_on channel=0 note=84 velocity=96 time=0.013211385416666666
EXTRACT: note_on channel=1 note=61 velocity=80 time=0
EXTRACT: note_on channel=1 note=68 velocity=80 time=0
EXTRACT: note_on channel=1 note=32 velocity=80 time=0
EXTRACT: note_on channel=1 note=44 velocity=80 time=0
EXTRACT: note_on channel=1 note=61 velocity=0 time=0.23069111458333333
EXTRACT: note_on channel=1 note=68 velocity=0 time=0
EXTRACT: note_on channel=1 note=56 velocity=80 time=0.013211385416666666
EXTRACT: note_on channel=1 note=65 velocity=80 time=0
EXTRACT: note_on channel=0 note=84 velocity=0 time=0.10264230208333333
EXTRACT: note_on channel=0 note=85 velocity=96 time=0.019308947916666666
EXTRACT: note_on channel=1 note=56 velocity=0 time=0.10873986458333333
EXTRACT: note_on channel=1 note=65 velocity=0 time=0
EXTRACT: note_on channel=1 note=61 velocity=80 time=0.013211385416666666
EXTRACT: note_on channel=1 note=68 velocity=80 time=0
EXTRACT: note_on channel=0 note=85 velocity=0 time=0.22459355208333331
EXTRACT: note_on channel=1 note=61 velocity=0 time=0.0060975625
EXTRACT: note_on channel=1 note=68 velocity=0 time=0
EXTRACT: note_on channel=0 note=84 velocity=96 time=0.013211385416666666
EXTRACT: note_on channel=1 note=56 velocity=80 time=0
EXTRACT: note_on channel=1 note=65 velocity=80 time=0
EXTRACT: note_on channel=1 note=32 velocity=0 time=0.19410573958333333
EXTRACT: note_on channel=1 note=44 velocity=0 time=0
EXTRACT: note_on channel=1 note=56 velocity=0 time=0.036585374999999996
EXTRACT: note_on channel=1 note=65 velocity=0 time=0
EXTRACT: note_on channel=1 note=61 velocity=80 time=0.013211385416666666
EXTRACT: note_on channel=1 note=68 velocity=80 time=0
EXTRACT: note_on channel=1 note=29 velocity=80 time=0
EXTRACT: note_on channel=1 note=41 velocity=80 time=0
EXTRACT: control_change channel=1 control=64 value=0 time=0.0010162604166666666
EXTRACT: control_change channel=1 control=64 value=127 time=0.0010162604166666666
EXTRACT: note_on channel=0 note=84 velocity=0 time=0.21646346875
EXTRACT: note_on channel=1 note=61 velocity=0 time=0.012195125
EXTRACT: note_on channel=1 note=68 velocity=0 time=0
EXTRACT: note_on channel=0 note=82 velocity=96 time=0.013211385416666666
EXTRACT: note_on channel=1 note=56 velocity=80 time=0
EXTRACT: note_on channel=1 note=65 velocity=80 time=0
EXTRACT: note_on channel=1 note=56 velocity=0 time=0.23069111458333333
EXTRACT: note_on channel=1 note=65 velocity=0 time=0
EXTRACT: note_on channel=1 note=61 velocity=80 time=0.013211385416666666
EXTRACT: note_on channel=1 note=68 velocity=80 time=0
EXTRACT: note_on channel=1 note=61 velocity=0 time=0.23069111458333333
EXTRACT: note_on channel=1 note=68 velocity=0 time=0
EXTRACT: note_on channel=1 note=56 velocity=80 time=0.013211385416666666
EXTRACT: note_on channel=1 note=65 velocity=80 time=0
EXTRACT: note_on channel=1 note=29 velocity=0 time=0.19410573958333333
EXTRACT: note_on channel=1 note=41 velocity=0 time=0
EXTRACT: note_on channel=0 note=82 velocity=0 time=0.012195125
EXTRACT: note_on channel=1 note=56 velocity=0 time=0.02439025
EXTRACT: note_on channel=1 note=65 velocity=0 time=0
EXTRACT: note_on channel=0 note=77 velocity=96 time=0.013211385416666666
EXTRACT: note_on channel=1 note=61 velocity=80 time=0
EXTRACT: note_on channel=1 note=68 velocity=80 time=0
EXTRACT: note_on channel=1 note=29 velocity=80 time=0
EXTRACT: note_on channel=1 note=41 velocity=80 time=0
EXTRACT: note_on channel=0 note=77 velocity=0 time=0.23069111458333333
EXTRACT: note_on channel=1 note=61 velocity=0 time=0
EXTRACT: note_on channel=1 note=68 velocity=0 time=0
EXTRACT: note_on channel=0 note=75 velocity=96 time=0.013211385416666666
EXTRACT: note_on channel=1 note=56 velocity=80 time=0
EXTRACT: note_on channel=1 note=65 velocity=80 time=0
EXTRACT: note_on channel=0 note=75 velocity=0 time=0.23069111458333333
EXTRACT: note_on channel=1 note=56 velocity=0 time=0
EXTRACT: note_on channel=1 note=65 velocity=0 time=0
EXTRACT: note_on channel=0 note=73 velocity=96 time=0.013211385416666666
EXTRACT: note_on channel=1 note=61 velocity=80 time=0
EXTRACT: note_on channel=1 note=68 velocity=80 time=0
EXTRACT: note_on channel=1 note=61 velocity=0 time=0.23069111458333333
EXTRACT: note_on channel=1 note=68 velocity=0 time=0
EXTRACT: note_on channel=1 note=56 velocity=80 time=0.013211385416666666
EXTRACT: note_on channel=1 note=65 velocity=80 time=0
EXTRACT: note_on channel=1 note=29 velocity=0 time=0.19410573958333333
EXTRACT: note_on channel=1 note=41 velocity=0 time=0
EXTRACT: note_on channel=1 note=56 velocity=0 time=0.036585374999999996
EXTRACT: note_on channel=1 note=65 velocity=0 time=0
EXTRACT: note_on channel=1 note=61 velocity=80 time=0.013211385416666666
EXTRACT: note_on channel=1 note=66 velocity=80 time=0
EXTRACT: note_on channel=1 note=30 velocity=80 time=0
EXTRACT: note_on channel=1 note=42 velocity=80 time=0
EXTRACT: control_change channel=1 control=64 value=0 time=0.0010162604166666666
EXTRACT: control_change channel=1 control=64 value=127 time=0.0010162604166666666
EXTRACT: note_on channel=1 note=61 velocity=0 time=0.22865859375
EXTRACT: note_on channel=1 note=66 velocity=0 time=0
EXTRACT: note_on channel=1 note=58 velocity=80 time=0.013211385416666666
EXTRACT: note_on channel=1 note=65 velocity=80 time=0
EXTRACT: note_on channel=0 note=73 velocity=0 time=0.19410573958333333
EXTRACT: note_on channel=1 note=58 velocity=0 time=0.036585374999999996
EXTRACT: note_on channel=1 note=65 velocity=0 time=0
EXTRACT: note_on channel=0 note=75 velocity=96 time=0.013211385416666666
EXTRACT: note_on channel=1 note=61 velocity=80 time=0
EXTRACT: note_on channel=1 note=66 velocity=80 time=0
EXTRACT: note_on channel=0 note=75 velocity=0 time=0.23069111458333333
EXTRACT: note_on channel=1 note=61 velocity=0 time=0
EXTRACT: note_on channel=1 note=66 velocity=0 time=0
EXTRACT: note_on channel=0 note=77 velocity=96 time=0.013211385416666666
EXTRACT: note_on channel=1 note=58 velocity=80 time=0
EXTRACT: note_on channel=1 note=65 velocity=80 time=0
EXTRACT: note_on channel=1 note=30 velocity=0 time=0.19410573958333333
EXTRACT: note_on channel=1 note=42 velocity=0 time=0
EXTRACT: note_on channel=1 note=58 velocity=0 time=0.036585374999999996
EXTRACT: note_on channel=1 note=65 velocity=0 time=0
EXTRACT: note_on channel=1 note=61 velocity=80 time=0.013211385416666666
EXTRACT: note_on channel=1 note=66 velocity=80 time=0
EXTRACT: note_on channel=1 note=30 velocity=80 time=0
EXTRACT: note_on channel=1 note=42 velocity=80 time=0
EXTRACT: note_on channel=0 note=77 velocity=0 time=0.21849598958333333
EXTRACT: note_on channel=1 note=61 velocity=0 time=0.012195125
EXTRACT: note_on channel=1 note=66 velocity=0 time=0
EXTRACT: note_on channel=1 note=58 velocity=80 time=0.013211385416666666
EXTRACT: note_on channel=1 note=65 velocity=80 time=0
EXTRACT: note_on channel=1 note=58 velocity=0 time=0.23069111458333333
EXTRACT: note_on channel=1 note=65 velocity=0 time=0
EXTRACT: note_on channel=1 note=61 velocity=80 time=0.013211385416666666
EXTRACT: note_on channel=1 note=66 velocity=80 time=0
EXTRACT: note_on channel=1 note=61 velocity=0 time=0.23069111458333333
EXTRACT: note_on channel=1 note=66 velocity=0 time=0
EXTRACT: note_on channel=1 note=58 velocity=80 time=0.013211385416666666
EXTRACT: note_on channel=1 note=65 velocity=80 time=0
EXTRACT: note_on channel=1 note=30 velocity=0 time=0.19410573958333333
EXTRACT: note_on channel=1 note=42 velocity=0 time=0
EXTRACT: note_on channel=1 note=58 velocity=0 time=0.036585374999999996
EXTRACT: note_on channel=1 note=65 velocity=0 time=0
EXTRACT: note_on channel=0 note=75 velocity=96 time=0.013211385416666666
EXTRACT: note_on channel=1 note=61 velocity=80 time=0
EXTRACT: note_on channel=1 note=70 velocity=80 time=0
EXTRACT: note_on channel=1 note=34 velocity=80 time=0
EXTRACT: note_on channel=1 note=46 velocity=80 time=0
EXTRACT: control_change channel=1 control=64 value=0 time=0.0010162604166666666
EXTRACT: control_change channel=1 control=64 value=127 time=0.0010162604166666666
EXTRACT: note_on channel=0 note=75 velocity=0 time=0.22865859375
EXTRACT: note_on channel=1 note=61 velocity=0 time=0
EXTRACT: note_on channel=1 note=70 velocity=0 time=0
EXTRACT: note_on channel=0 note=77 velocity=96 time=0.013211385416666666
EXTRACT: note_on channel=1 note=58 velocity=80 time=0
EXTRACT: note_on channel=1 note=65 velocity=80 time=0
EXTRACT: note_on channel=1 note=58 velocity=0 time=0.23069111458333333
EXTRACT: note_on channel=1 note=65 velocity=0 time=0
EXTRACT: note_on channel=1 note=61 velocity=80 time=0.013211385416666666
EXTRACT: note_on channel=1 note=70 velocity=80 time=0
EXTRACT: note_on channel=0 note=77 velocity=0 time=0.21849598958333333
EXTRACT: note_on channel=1 note=61 velocity=0 time=0.012195125
EXTRACT: note_on channel=1 note=70 velocity=0 time=0
EXTRACT: note_on channel=0 note=75 velocity=96 time=0.013211385416666666
EXTRACT: note_on channel=1 note=58 velocity=80 time=0
EXTRACT: note_on channel=1 note=65 velocity=80 time=0
EXTRACT: note_on channel=1 note=34 velocity=0 time=0.19410573958333333
EXTRACT: note_on channel=1 note=46 velocity=0 time=0
EXTRACT: note_on channel=0 note=75 velocity=0 time=0.036585374999999996
EXTRACT: note_on channel=1 note=58 velocity=0 time=0
EXTRACT: note_on channel=1 note=65 velocity=0 time=0
EXTRACT: note_on channel=0 note=77 velocity=96 time=0.013211385416666666
EXTRACT: note_on channel=1 note=61 velocity=80 time=0
EXTRACT: note_on channel=1 note=70 velocity=80 time=0
EXTRACT: note_on channel=1 note=34 velocity=80 time=0
EXTRACT: note_on channel=1 note=46 velocity=80 time=0
EXTRACT: note_on channel=1 note=61 velocity=0 time=0.23069111458333333
EXTRACT: note_on channel=1 note=70 velocity=0 time=0
EXTRACT: note_on channel=1 note=58 velocity=80 time=0.013211385416666666
EXTRACT: note_on channel=1 note=65 velocity=80 time=0
EXTRACT: note_on channel=0 note=77 velocity=0 time=0.21849598958333333
EXTRACT: note_on channel=1 note=58 velocity=0 time=0.012195125
EXTRACT: note_on channel=1 note=65 velocity=0 time=0
EXTRACT: note_on channel=0 note=75 velocity=96 time=0.013211385416666666
EXTRACT: note_on channel=1 note=61 velocity=80 time=0
EXTRACT: note_on channel=1 note=70 velocity=80 time=0
EXTRACT: note_on channel=0 note=75 velocity=0 time=0.23069111458333333
EXTRACT: note_on channel=1 note=61 velocity=0 time=0
EXTRACT: note_on channel=1 note=70 velocity=0 time=0
EXTRACT: note_on channel=0 note=77 velocity=96 time=0.013211385416666666
EXTRACT: note_on channel=1 note=58 velocity=80 time=0
EXTRACT: note_on channel=1 note=65 velocity=80 time=0
EXTRACT: note_on channel=1 note=34 velocity=0 time=0.19410573958333333
EXTRACT: note_on channel=1 note=46 velocity=0 time=0
EXTRACT: note_on channel=1 note=58 velocity=0 time=0.036585374999999996
EXTRACT: note_on channel=1 note=65 velocity=0 time=0
EXTRACT: note_on channel=1 note=61 velocity=80 time=0.013211385416666666
EXTRACT: note_on channel=1 note=68 velocity=80 time=0
EXTRACT: note_on channel=1 note=32 velocity=80 time=0
EXTRACT: note_on channel=1 note=44 velocity=80 time=0
EXTRACT: control_change channel=1 control=64 value=0 time=0.0010162604166666666
EXTRACT: control_change channel=1 control=64 value=127 time=0.0010162604166666666
EXTRACT: note_on channel=0 note=77 velocity=0 time=0.21646346875
EXTRACT: note_on channel=1 note=61 velocity=0 time=0.012195125
EXTRACT: note_on channel=1 note=68 velocity=0 time=0
EXTRACT: note_on channel=0 note=75 velocity=96 time=0.013211385416666666
EXTRACT: note_on channel=1 note=56 velocity=80 time=0
EXTRACT: note_on channel=1 note=65 velocity=80 time=0
EXTRACT: note_on channel=0 note=75 velocity=0 time=0.23069111458333333
EXTRACT: note_on channel=1 note=56 velocity=0 time=0
EXTRACT: note_on channel=1 note=65 velocity=0 time=0
EXTRACT: note_on channel=0 note=77 velocity=96 time=0.013211385416666666
EXTRACT: note_on channel=1 note=61 velocity=80 time=0
EXTRACT: note_on channel=1 note=68 velocity=80 time=0
EXTRACT: note_on channel=1 note=61 velocity=0 time=0.23069111458333333
EXTRACT: note_on channel=1 note=68 velocity=0 time=0
EXTRACT: note_on channel=1 note=56 velocity=80 time=0.013211385416666666
EXTRACT: note_on channel=1 note=65 velocity=80 time=0
EXTRACT: note_on channel=1 note=32 velocity=0 time=0.19410573958333333
EXTRACT: note_on channel=1 note=44 velocity=0 time=0
EXTRACT: note_on channel=0 note=77 velocity=0 time=0.02439025
EXTRACT: note_on channel=1 note=56 velocity=0 time=0.012195125
EXTRACT: note_on channel=1 note=65 velocity=0 time=0
EXTRACT: note_on channel=0 note=80 velocity=96 time=0.013211385416666666
EXTRACT: note_on channel=1 note=61 velocity=80 time=0
EXTRACT: note_on channel=1 note=68 velocity=80 time=0
EXTRACT: note_on channel=1 note=32 velocity=80 time=0
EXTRACT: note_on channel=1 note=44 velocity=80 time=0
EXTRACT: note_on channel=0 note=80 velocity=0 time=0.11483742708333333
EXTRACT: note_on channel=0 note=78 velocity=96 time=0.007113822916666667
EXTRACT: note_on channel=1 note=61 velocity=0 time=0.10873986458333333
EXTRACT: note_on channel=1 note=68 velocity=0 time=0
EXTRACT: note_on channel=0 note=78 velocity=0 time=0.0060975625
EXTRACT: note_on channel=0 note=77 velocity=96 time=0.007113822916666667
EXTRACT: note_on channel=1 note=56 velocity=80 time=0
EXTRACT: note_on channel=1 note=65 velocity=80 time=0
EXTRACT: note_on channel=1 note=56 velocity=0 time=0.23069111458333333
EXTRACT: note_on channel=1 note=65 velocity=0 time=0
EXTRACT: note_on channel=1 note=61 velocity=80 time=0.013211385416666666
EXTRACT: note_on channel=1 note=68 velocity=80 time=0
EXTRACT: note_on channel=0 note=77 velocity=0 time=0.21849598958333333
EXTRACT: note_on channel=1 note=61 velocity=0 time=0.012195125
EXTRACT: note_on channel=1 note=68 velocity=0 time=0
EXTRACT: note_on channel=0 note=78 velocity=96 time=0.013211385416666666
EXTRACT: note_on channel=1 note=56 velocity=80 time=0
EXTRACT: note_on channel=1 note=65 velocity=80 time=0
EXTRACT: note_on channel=1 note=32 velocity=0 time=0.19410573958333333
EXTRACT: note_on channel=1 note=44 velocity=0 time=0
EXTRACT: note_on channel=0 note=78 velocity=0 time=0.036585374999999996
EXTRACT: note_on channel=1 note=56 velocity=0 time=0
EXTRACT: note_on channel=1 note=65 velocity=0 time=0
EXTRACT: note_on channel=0 note=77 velocity=96 time=0.013211385416666666
EXTRACT: note_on channel=1 note=61 velocity=80 time=0
EXTRACT: note_on channel=1 note=68 velocity=80 time=0
EXTRACT: note_on channel=1 note=29 velocity=80 time=0
EXTRACT: note_on channel=1 note=41 velocity=80 time=0
EXTRACT: control_change channel=1 control=64 value=0 time=0.0010162604166666666
EXTRACT: control_change channel=1 control=64 value=127 time=0.0010162604166666666
EXTRACT: note_on channel=1 note=61 velocity=0 time=0.22865859375
EXTRACT: note_on channel=1 note=68 velocity=0 time=0
EXTRACT: note_on channel=1 note=56 velocity=80 time=0.013211385416666666
EXTRACT: note_on channel=1 note=65 velocity=80 time=0
EXTRACT: note_on channel=1 note=56 velocity=0 time=0.23069111458333333
EXTRACT: note_on channel=1 note=65 velocity=0 time=0
EXTRACT: note_on channel=1 note=61 velocity=80 time=0.013211385416666666
EXTRACT: note_on channel=1 note=68 velocity=80 time=0
EXTRACT: note_on channel=1 note=61 velocity=0 time=0.23069111458333333
EXTRACT: note_on channel=1 note=68 velocity=0 time=0
EXTRACT: note_on channel=1 note=56 velocity=80 time=0.013211385416666666
EXTRACT: note_on channel=1 note=65 velocity=80 time=0
EXTRACT: note_on channel=0 note=77 velocity=0 time=0.19410573958333333
EXTRACT: note_on channel=1 note=29 velocity=0 time=0
EXTRACT: note_on channel=1 note=41 velocity=0 time=0
EXTRACT: note_on channel=1 note=56 velocity=0 time=0.036585374999999996
EXTRACT: note_on channel=1 note=65 velocity=0 time=0
EXTRACT: note_on channel=1 note=61 velocity=80 time=0.013211385416666666
EXTRACT: note_on channel=1 note=68 velocity=80 time=0
EXTRACT: note_on channel=1 note=29 velocity=80 time=0
EXTRACT: note_on channel=1 note=41 velocity=80 time=0
EXTRACT: note_on channel=1 note=61 velocity=0 time=0.23069111458333333
EXTRACT: note_on channel=1 note=68 velocity=0 time=0
EXTRACT: note_on channel=0 note=75 velocity=96 time=0.013211385416666666
EXTRACT: note_on channel=1 note=56 velocity=80 time=0
EXTRACT: note_on channel=1 note=65 velocity=80 time=0
EXTRACT: note_on channel=0 note=75 velocity=0 time=0.23069111458333333
EXTRACT: note_on channel=1 note=56 velocity=0 time=0
EXTRACT: note_on channel=1 note=65 velocity=0 time=0
EXTRACT: note_on channel=0 note=77 velocity=96 time=0.013211385416666666
EXTRACT: note_on channel=1 note=61 velocity=80 time=0
EXTRACT: note_on channel=1 note=68 velocity=80 time=0
EXTRACT: note_on channel=0 note=77 velocity=0 time=0.23069111458333333
EXTRACT: note_on channel=1 note=61 velocity=0 time=0
EXTRACT: note_on channel=1 note=68 velocity=0 time=0
EXTRACT: note_on channel=0 note=75 velocity=96 time=0.013211385416666666
EXTRACT: note_on channel=1 note=56 velocity=80 time=0
EXTRACT: note_on channel=1 note=65 velocity=80 time=0
EXTRACT: note_on channel=1 note=29 velocity=0 time=0.19410573958333333
EXTRACT: note_on channel=1 note=41 velocity=0 time=0
EXTRACT: note_on channel=0 note=75 velocity=0 time=0.036585374999999996
EXTRACT: note_on channel=1 note=56 velocity=0 time=0
EXTRACT: note_on channel=1 note=65 velocity=0 time=0
EXTRACT: note_on channel=0 note=73 velocity=96 time=0.013211385416666666
EXTRACT: note_on channel=1 note=61 velocity=80 time=0
EXTRACT: note_on channel=1 note=66 velocity=80 time=0
EXTRACT: note_on channel=1 note=30 velocity=80 time=0
EXTRACT: note_on channel=1 note=42 velocity=80 time=0
EXTRACT: control_change channel=1 control=64 value=0 time=0.0010162604166666666
EXTRACT: control_change channel=1 control=64 value=127 time=0.0010162604166666666
EXTRACT: note_on channel=0 note=73 velocity=0 time=0.11280490624999999
EXTRACT: note_on channel=0 note=70 velocity=96 time=0.007113822916666667
EXTRACT: note_on channel=1 note=61 velocity=0 time=0.10873986458333333
EXTRACT: note_on channel=1 note=66 velocity=0 time=0
EXTRACT: note_on channel=0 note=70 velocity=0 time=0.0060975625
EXTRACT: note_on channel=0 note=73 velocity=96 time=0.007113822916666667
EXTRACT: note_on channel=1 note=58 velocity=80 time=0
EXTRACT: note_on channel=1 note=65 velocity=80 time=0
EXTRACT: note_on channel=1 note=58 velocity=0 time=0.23069111458333333
EXTRACT: note_on channel=1 note=65 velocity=0 time=0
EXTRACT: note_on channel=1 note=61 velocity=80 time=0.013211385416666666
EXTRACT: note_on channel=1 note=66 velocity=80 time=0
EXTRACT: note_on channel=1 note=61 velocity=0 time=0.23069111458333333
EXTRACT: note_on channel=1 note=66 velocity=0 time=0
EXTRACT: note_on channel=1 note=58 velocity=80 time=0.013211385416666666
EXTRACT: note_on channel=1 note=65 velocity=80 time=0
EXTRACT: note_on channel=1 note=30 velocity=0 time=0.19410573958333333
EXTRACT: note_on channel=1 note=42 velocity=0 time=0
EXTRACT: note_on channel=1 note=58 velocity=0 time=0.036585374999999996
EXTRACT: note_on channel=1 note=65 velocity=0 time=0
EXTRACT: note_on channel=1 note=61 velocity=80 time=0.013211385416666666
EXTRACT: note_on channel=1 note=66 velocity=80 time=0
EXTRACT: note_on channel=1 note=30 velocity=80 time=0
EXTRACT: note_on channel=1 note=42 velocity=80 time=0
EXTRACT: note_on channel=0 note=73 velocity=0 time=0.19410573958333333
EXTRACT: note_on channel=1 note=61 velocity=0 time=0.036585374999999996
EXTRACT: note_on channel=1 note=66 velocity=0 time=0
EXTRACT: note_on channel=1 note=58 velocity=80 time=0.013211385416666666
EXTRACT: note_on channel=1 note=65 velocity=80 time=0
EXTRACT: note_on channel=1 note=58 velocity=0 time=0.23069111458333333
EXTRACT: note_on channel=1 note=65 velocity=0 time=0
EXTRACT: note_on channel=1 note=61 velocity=80 time=0.013211385416666666
EXTRACT: note_on channel=1 note=66 velocity=80 time=0
EXTRACT: note_on channel=1 note=61 velocity=0 time=0.23069111458333333
EXTRACT: note_on channel=1 note=66 velocity=0 time=0
EXTRACT: note_on channel=1 note=58 velocity=80 time=0.013211385416666666
EXTRACT: note_on channel=1 note=65 velocity=80 time=0
EXTRACT: note_on channel=1 note=30 velocity=0 time=0.19410573958333333
EXTRACT: note_on channel=1 note=42 velocity=0 time=0
EXTRACT: note_on channel=1 note=58 velocity=0 time=0.036585374999999996
EXTRACT: note_on channel=1 note=65 velocity=0 time=0
EXTRACT: note_on channel=0 note=77 velocity=96 time=0.013211385416666666
EXTRACT: note_on channel=1 note=61 velocity=80 time=0
EXTRACT: note_on channel=1 note=70 velocity=80 time=0
EXTRACT: note_on channel=1 note=34 velocity=80 time=0
EXTRACT: note_on channel=1 note=46 velocity=80 time=0
EXTRACT: control_change channel=1 control=64 value=0 time=0.0010162604166666666
EXTRACT: control_change channel=1 control=64 value=127 time=0.0010162604166666666
EXTRACT: note_on channel=0 note=77 velocity=0 time=0.11280490624999999
EXTRACT: note_on channel=0 note=75 velocity=96 time=0.007113822916666667
EXTRACT: note_on channel=1 note=61 velocity=0 time=0.10873986458333333
EXTRACT: note_on channel=1 note=70 velocity=0 time=0
EXTRACT: note_on channel=0 note=75 velocity=0 time=0.0060975625
EXTRACT: note_on channel=0 note=77 velocity=96 time=0.007113822916666667
EXTRACT: note_on channel=1 note=58 velocity=80 time=0
EXTRACT: note_on channel=1 note=65 velocity=80 time=0
EXTRACT: note_on channel=1 note=58 velocity=0 time=0.23069111458333333
EXTRACT: note_on channel=1 note=65 velocity=0 time=0
EXTRACT: note_on channel=1 note=61 velocity=80 time=0.013211385416666666
EXTRACT: note_on channel=1 note=70 velocity=80 time=0
EXTRACT: note_on channel=1 note=61 velocity=0 time=0.23069111458333333
EXTRACT: note_on channel=1 note=70 velocity=0 time=0
EXTRACT: note_on channel=1 note=58 velocity=80 time=0.013211385416666666
EXTRACT: note_on channel=1 note=65 velocity=80 time=0
EXTRACT: note_on channel=1 note=34 velocity=0 time=0.19410573958333333
EXTRACT: note_on channel=1 note=46 velocity=0 time=0
EXTRACT: note_on channel=1 note=58 velocity=0 time=0.036585374999999996
EXTRACT: note_on channel=1 note=65 velocity=0 time=0
EXTRACT: note_on channel=1 note=61 velocity=80 time=0.013211385416666666
EXTRACT: note_on channel=1 note=70 velocity=80 time=0
EXTRACT: note_on channel=1 note=34 velocity=80 time=0
EXTRACT: note_on channel=1 note=46 velocity=80 time=0
EXTRACT: note_on channel=1 note=61 velocity=0 time=0.23069111458333333
EXTRACT: note_on channel=1 note=70 velocity=0 time=0
EXTRACT: note_on channel=1 note=58 velocity=80 time=0.013211385416666666
EXTRACT: note_on channel=1 note=65 velocity=80 time=0
EXTRACT: note_on channel=1 note=58 velocity=0 time=0.23069111458333333
EXTRACT: note_on channel=1 note=65 velocity=0 time=0
EXTRACT: note_on channel=1 note=61 velocity=80 time=0.013211385416666666
EXTRACT: note_on channel=1 note=70 velocity=80 time=0
EXTRACT: note_on channel=1 note=61 velocity=0 time=0.23069111458333333
EXTRACT: note_on channel=1 note=70 velocity=0 time=0
EXTRACT: note_on channel=1 note=58 velocity=80 time=0.013211385416666666
EXTRACT: note_on channel=1 note=65 velocity=80 time=0
EXTRACT: note_on channel=1 note=34 velocity=0 time=0.19410573958333333
EXTRACT: note_on channel=1 note=46 velocity=0 time=0
EXTRACT: note_on channel=1 note=58 velocity=0 time=0.036585374999999996
EXTRACT: note_on channel=1 note=65 velocity=0 time=0
EXTRACT: note_on channel=1 note=61 velocity=80 time=0.013211385416666666
EXTRACT: note_on channel=1 note=68 velocity=80 time=0
EXTRACT: note_on channel=1 note=32 velocity=80 time=0
EXTRACT: note_on channel=1 note=44 velocity=80 time=0
EXTRACT: control_change channel=1 control=64 value=0 time=0.0010162604166666666
EXTRACT: control_change channel=1 control=64 value=127 time=0.0010162604166666666
EXTRACT: note_on channel=0 note=77 velocity=0 time=0.14329271875
EXTRACT: note_on channel=1 note=61 velocity=0 time=0.085365875
EXTRACT: note_on channel=1 note=68 velocity=0 time=0
EXTRACT: note_on channel=0 note=80 velocity=96 time=0.013211385416666666
EXTRACT: note_on channel=1 note=56 velocity=80 time=0
EXTRACT: note_on channel=1 note=65 velocity=80 time=0
EXTRACT: note_on channel=1 note=56 velocity=0 time=0.23069111458333333
EXTRACT: note_on channel=1 note=65 velocity=0 time=0
EXTRACT: note_on channel=1 note=61 velocity=80 time=0.013211385416666666
EXTRACT: note_on channel=1 note=68 velocity=80 time=0
EXTRACT: note_on channel=1 note=61 velocity=0 time=0.23069111458333333
EXTRACT: note_on channel=1 note=68 velocity=0 time=0
EXTRACT: note_on channel=1 note=56 velocity=80 time=0.013211385416666666
EXTRACT: note_on channel=1 note=65 velocity=80 time=0
EXTRACT: note_on channel=1 note=32 velocity=0 time=0.19410573958333333
EXTRACT: note_on channel=1 note=44 velocity=0 time=0
EXTRACT: note_on channel=1 note=56 velocity=0 time=0.036585374999999996
EXTRACT: note_on channel=1 note=65 velocity=0 time=0
EXTRACT: note_on channel=1 note=61 velocity=80 time=0.013211385416666666
EXTRACT: note_on channel=1 note=68 velocity=80 time=0
EXTRACT: note_on channel=1 note=32 velocity=80 time=0
EXTRACT: note_on channel=1 note=44 velocity=80 time=0
EXTRACT: note_on channel=1 note=61 velocity=0 time=0.23069111458333333
EXTRACT: note_on channel=1 note=68 velocity=0 time=0
EXTRACT: note_on channel=1 note=56 velocity=80 time=0.013211385416666666
EXTRACT: note_on channel=1 note=65 velocity=80 time=0
EXTRACT: note_on channel=1 note=56 velocity=0 time=0.23069111458333333
EXTRACT: note_on channel=1 note=65 velocity=0 time=0
EXTRACT: note_on channel=1 note=61 velocity=80 time=0.013211385416666666
EXTRACT: note_on channel=1 note=68 velocity=80 time=0
EXTRACT: note_on channel=1 note=61 velocity=0 time=0.23069111458333333
EXTRACT: note_on channel=1 note=68 velocity=0 time=0
EXTRACT: note_on channel=1 note=56 velocity=80 time=0.013211385416666666
EXTRACT: note_on channel=1 note=65 velocity=80 time=0
EXTRACT: note_on channel=1 note=32 velocity=0 time=0.19410573958333333
EXTRACT: note_on channel=1 note=44 velocity=0 time=0
EXTRACT: note_on channel=1 note=56 velocity=0 time=0.036585374999999996
EXTRACT: note_on channel=1 note=65 velocity=0 time=0
EXTRACT: note_on channel=1 note=61 velocity=80 time=0.013211385416666666
EXTRACT: note_on channel=1 note=68 velocity=80 time=0
EXTRACT: note_on channel=1 note=29 velocity=80 time=0
EXTRACT: note_on channel=1 note=41 velocity=80 time=0
EXTRACT: control_change channel=1 control=64 value=0 time=0.0010162604166666666
EXTRACT: control_change channel=1 control=64 value=127 time=0.0010162604166666666
EXTRACT: note_on channel=0 note=80 velocity=0 time=0.14329271875
EXTRACT: note_on channel=1 note=61 velocity=0 time=0.085365875
EXTRACT: note_on channel=1 note=68 velocity=0 time=0
EXTRACT: note_on channel=0 note=82 velocity=96 time=0.013211385416666666
EXTRACT: note_on channel=1 note=56 velocity=80 time=0
EXTRACT: note_on channel=1 note=65 velocity=80 time=0
EXTRACT: note_on channel=1 note=56 velocity=0 time=0.23069111458333333
EXTRACT: note_on channel=1 note=65 velocity=0 time=0
EXTRACT: note_on channel=1 note=61 velocity=80 time=0.013211385416666666
EXTRACT: note_on channel=1 note=68 velocity=80 time=0
EXTRACT: note_on channel=0 note=82 velocity=0 time=0.21849598958333333
EXTRACT: note_on channel=1 note=61 velocity=0 time=0.012195125
EXTRACT: note_on channel=1 note=68 velocity=0 time=0
EXTRACT: note_on channel=0 note=80 velocity=96 time=0.013211385416666666
EXTRACT: note_on channel=1 note=56 velocity=80 time=0
EXTRACT: note_on channel=1 note=65 velocity=80 time=0
EXTRACT: note_on channel=1 note=29 velocity=0 time=0.19410573958333333
EXTRACT: note_on channel=1 note=41 velocity=0 time=0
EXTRACT: note_on channel=0 note=80 velocity=0 time=0.036585374999999996
EXTRACT: note_on channel=1 note=56 velocity=0 time=0
EXTRACT: note_on channel=1 note=65 velocity=0 time=0
EXTRACT: note_on channel=0 note=78 velocity=96 time=0.013211385416666666
EXTRACT: note_on channel=1 note=61 velocity=80 time=0
EXTRACT: note_on channel=1 note=68 velocity=80 time=0
EXTRACT: note_on channel=1 note=29 velocity=80 time=0
EXTRACT: note_on channel=1 note=41 velocity=80 time=0
EXTRACT: note_on channel=0 note=78 velocity=0 time=0.23069111458333333
EXTRACT: note_on channel=1 note=61 velocity=0 time=0
EXTRACT: note_on channel=1 note=68 velocity=0 time=0
EXTRACT: note_on channel=0 note=77 velocity=96 time=0.013211385416666666
EXTRACT: note_on channel=1 note=56 velocity=80 time=0
EXTRACT: note_on channel=1 note=65 velocity=80 time=0
EXTRACT: note_on channel=0 note=77 velocity=0 time=0.23069111458333333
EXTRACT: note_on channel=1 note=56 velocity=0 time=0
EXTRACT: note_on channel=1 note=65 velocity=0 time=0
EXTRACT: note_on channel=0 note=77 velocity=96 time=0.013211385416666666
EXTRACT: note_on channel=1 note=61 velocity=80 time=0
EXTRACT: note_on channel=1 note=68 velocity=80 time=0
EXTRACT: note_on channel=0 note=77 velocity=0 time=0.23069111458333333
EXTRACT: note_on channel=1 note=61 velocity=0 time=0
EXTRACT: note_on channel=1 note=68 velocity=0 time=0
EXTRACT: note_on channel=0 note=78 velocity=96 time=0.013211385416666666
EXTRACT: note_on channel=1 note=56 velocity=80 time=0
EXTRACT: note_on channel=1 note=65 velocity=80 time=0
EXTRACT: note_on channel=1 note=29 velocity=0 time=0.19410573958333333
EXTRACT: note_on channel=1 note=41 velocity=0 time=0
EXTRACT: note_on channel=0 note=78 velocity=0 time=0.036585374999999996
EXTRACT: note_on channel=1 note=56 velocity=0 time=0
EXTRACT: note_on channel=1 note=65 velocity=0 time=0
EXTRACT: note_on channel=0 note=77 velocity=96 time=0.013211385416666666
EXTRACT: note_on channel=1 note=61 velocity=80 time=0
EXTRACT: note_on channel=1 note=66 velocity=80 time=0
EXTRACT: note_on channel=1 note=30 velocity=80 time=0
EXTRACT: note_on channel=1 note=42 velocity=80 time=0
EXTRACT: control_change channel=1 control=64 value=0 time=0.0010162604166666666
EXTRACT: control_change channel=1 control=64 value=127 time=0.0010162604166666666
EXTRACT: note_on channel=0 note=77 velocity=0 time=0.22865859375
EXTRACT: note_on channel=1 note=61 velocity=0 time=0
EXTRACT: note_on channel=1 note=66 velocity=0 time=0
EXTRACT: note_on channel=0 note=75 velocity=96 time=0.013211385416666666
EXTRACT: note_on channel=1 note=58 velocity=80 time=0
EXTRACT: note_on channel=1 note=65 velocity=80 time=0
EXTRACT: note_on channel=0 note=75 velocity=0 time=0.23069111458333333
EXTRACT: note_on channel=1 note=58 velocity=0 time=0
EXTRACT: note_on channel=1 note=65 velocity=0 time=0
EXTRACT: note_on channel=1 note=61 velocity=80 time=0.013211385416666666
EXTRACT: note_on channel=1 note=66 velocity=80 time=0
EXTRACT: note_on channel=1 note=61 velocity=0 time=0.23069111458333333
EXTRACT: note_on channel=1 note=66 velocity=0 time=0
EXTRACT: note_on channel=0 note=73 velocity=96 time=0.013211385416666666
EXTRACT: note_on channel=1 note=58 velocity=80 time=0
EXTRACT: note_on channel=1 note=65 velocity=80 time=0
EXTRACT: note_on channel=1 note=30 velocity=0 time=0.19410573958333333
EXTRACT: note_on channel=1 note=42 velocity=0 time=0
EXTRACT: note_on channel=1 note=58 velocity=0 time=0.036585374999999996
EXTRACT: note_on channel=1 note=65 velocity=0 time=0
EXTRACT: note_on channel=1 note=61 velocity=80 time=0.013211385416666666
EXTRACT: note_on channel=1 note=66 velocity=80 time=0
EXTRACT: note_on channel=1 note=30 velocity=80 time=0
EXTRACT: note_on channel=1 note=42 velocity=80 time=0
EXTRACT: note_on channel=1 note=61 velocity=0 time=0.23069111458333333
EXTRACT: note_on channel=1 note=66 velocity=0 time=0
EXTRACT: note_on channel=1 note=58 velocity=80 time=0.013211385416666666
EXTRACT: note_on channel=1 note=65 velocity=80 time=0
EXTRACT: note_on channel=0 note=73 velocity=0 time=0.20630086458333333
EXTRACT: note_on channel=1 note=58 velocity=0 time=0.02439025
EXTRACT: note_on channel=1 note=65 velocity=0 time=0
EXTRACT: note_on channel=0 note=77 velocity=96 time=0.013211385416666666
EXTRACT: note_on channel=1 note=61 velocity=80 time=0
EXTRACT: note_on channel=1 note=66 velocity=80 time=0
EXTRACT: note_on channel=0 note=77 velocity=0 time=0.23069111458333333
EXTRACT: note_on channel=1 note=61 velocity=0 time=0
EXTRACT: note_on channel=1 note=66 velocity=0 time=0
EXTRACT: note_on channel=0 note=77 velocity=96 time=0.013211385416666666
EXTRACT: note_on channel=1 note=58 velocity=80 time=0
EXTRACT: note_on channel=1 note=65 velocity=80 time=0
EXTRACT: note_on channel=1 note=30 velocity=0 time=0.19410573958333333
EXTRACT: note_on channel=1 note=42 velocity=0 time=0
EXTRACT: note_on channel=0 note=77 velocity=0 time=0.036585374999999996
EXTRACT: note_on channel=1 note=58 velocity=0 time=0
EXTRACT: note_on channel=1 note=65 velocity=0 time=0
EXTRACT: note_on channel=0 note=80 velocity=96 time=0.013211385416666666
EXTRACT: note_on channel=1 note=61 velocity=80 time=0
EXTRACT: note_on channel=1 note=70 velocity=80 time=0
EXTRACT: note_on channel=1 note=34 velocity=80 time=0
EXTRACT: note_on channel=1 note=46 velocity=80 time=0
EXTRACT: control_change channel=1 control=64 value=0 time=0.0010162604166666666
EXTRACT: control_change channel=1 control=64 value=127 time=0.0010162604166666666
EXTRACT: note_on channel=1 note=61 velocity=0 time=0.22865859375
EXTRACT: note_on channel=1 note=70 velocity=0 time=0
EXTRACT: note_on channel=1 note=58 velocity=80 time=0.013211385416666666
EXTRACT: note_on channel=1 note=65 velocity=80 time=0
EXTRACT: note_on channel=0 note=80 velocity=0 time=0.10264230208333333
EXTRACT: note_on channel=0 note=77 velocity=96 time=0.019308947916666666
EXTRACT: note_on channel=1 note=58 velocity=0 time=0.10873986458333333
EXTRACT: note_on channel=1 note=65 velocity=0 time=0
EXTRACT: note_on channel=1 note=61 velocity=80 time=0.013211385416666666
EXTRACT: note_on channel=1 note=70 velocity=80 time=0
EXTRACT: note_on channel=0 note=77 velocity=0 time=0.22459355208333331
EXTRACT: note_on channel=1 note=61 velocity=0 time=0.0060975625
EXTRACT: note_on channel=1 note=70 velocity=0 time=0
EXTRACT: note_on channel=0 note=75 velocity=96 time=0.013211385416666666
EXTRACT: note_on channel=1 note=58 velocity=80 time=0
EXTRACT: note_on channel=1 note=65 velocity=80 time=0
EXTRACT: note_on channel=1 note=34 velocity=0 time=0.19410573958333333
EXTRACT: note_on channel=1 note=46 velocity=0 time=0
EXTRACT: note_on channel=0 note=75 velocity=0 time=0.036585374999999996
EXTRACT: note_on channel=1 note=58 velocity=0 time=0
EXTRACT: note_on channel=1 note=65 velocity=0 time=0
EXTRACT: note_on channel=0 note=73 velocity=96 time=0.013211385416666666
EXTRACT: note_on channel=1 note=61 velocity=80 time=0
EXTRACT: note_on channel=1 note=70 velocity=80 time=0
EXTRACT: note_on channel=1 note=34 velocity=80 time=0
EXTRACT: note_on channel=1 note=46 velocity=80 time=0
EXTRACT: note_on channel=0 note=73 velocity=0 time=0.23069111458333333
EXTRACT: note_on channel=1 note=61 velocity=0 time=0
EXTRACT: note_on channel=1 note=70 velocity=0 time=0
EXTRACT: note_on channel=0 note=75 velocity=96 time=0.013211385416666666
EXTRACT: note_on channel=1 note=58 velocity=80 time=0
EXTRACT: note_on channel=1 note=65 velocity=80 time=0
EXTRACT: note_on channel=1 note=58 velocity=0 time=0.23069111458333333
EXTRACT: note_on channel=1 note=65 velocity=0 time=0
EXTRACT: note_on channel=1 note=61 velocity=80 time=0.013211385416666666
EXTRACT: note_on channel=1 note=70 velocity=80 time=0
EXTRACT: note_on channel=1 note=61 velocity=0 time=0.23069111458333333
EXTRACT: note_on channel=1 note=70 velocity=0 time=0
EXTRACT: note_on channel=1 note=58 velocity=80 time=0.013211385416666666
EXTRACT: note_on channel=1 note=65 velocity=80 time=0
EXTRACT: note_on channel=1 note=34 velocity=0 time=0.19410573958333333
EXTRACT: note_on channel=1 note=46 velocity=0 time=0
EXTRACT: note_on channel=0 note=75 velocity=0 time=0.012195125
EXTRACT: note_on channel=1 note=58 velocity=0 time=0.02439025
EXTRACT: note_on channel=1 note=65 velocity=0 time=0
EXTRACT: note_on channel=1 note=61 velocity=80 time=0.013211385416666666
EXTRACT: note_on channel=1 note=68 velocity=80 time=0
EXTRACT: note_on channel=1 note=32 velocity=80 time=0
EXTRACT: note_on channel=1 note=44 velocity=80 time=0
EXTRACT: control_change channel=1 control=64 value=0 time=0.0010162604166666666
EXTRACT: control_change channel=1 control=64 value=127 time=0.0010162604166666666
EXTRACT: note_on channel=1 note=61 velocity=0 time=0.22865859375
EXTRACT: note_on channel=1 note=68 velocity=0 time=0
EXTRACT: note_on channel=1 note=56 velocity=80 time=0.013211385416666666
EXTRACT: note_on channel=1 note=65 velocity=80 time=0
EXTRACT: note_on channel=1 note=56 velocity=0 time=0.23069111458333333
EXTRACT: note_on channel=1 note=65 velocity=0 time=0
EXTRACT: note_on channel=0 note=73 velocity=96 time=0.013211385416666666
EXTRACT: note_on channel=1 note=61 velocity=80 time=0
EXTRACT: note_on channel=1 note=68 velocity=80 time=0
EXTRACT: note_on channel=1 note=61 velocity=0 time=0.23069111458333333
EXTRACT: note_on channel=1 note=68 velocity=0 time=0
EXTRACT: note_on channel=1 note=56 velocity=80 time=0.013211385416666666
EXTRACT: note_on channel=1 note=65 velocity=80 time=0
EXTRACT: note_on channel=1 note=32 velocity=0 time=0.19410573958333333
EXTRACT: note_on channel=1 note=44 velocity=0 time=0
EXTRACT: note_on channel=1 note=56 velocity=0 time=0.036585374999999996
EXTRACT: note_on channel=1 note=65 velocity=0 time=0
EXTRACT: note_on channel=1 note=61 velocity=80 time=0.013211385416666666
EXTRACT: note_on channel=1 note=68 velocity=80 time=0
EXTRACT: note_on channel=1 note=32 velocity=80 time=0
EXTRACT: note_on channel=1 note=44 velocity=80 time=0
EXTRACT: note_on channel=1 note=61 velocity=0 time=0.23069111458333333
EXTRACT: note_on channel=1 note=68 velocity=0 time=0
EXTRACT: note_on channel=1 note=56 velocity=80 time=0.013211385416666666
EXTRACT: note_on channel=1 note=65 velocity=80 time=0
EXTRACT: note_on channel=0 note=73 velocity=0 time=0.19410573958333333
EXTRACT: note_on channel=1 note=56 velocity=0 time=0.036585374999999996
EXTRACT: note_on channel=1 note=65 velocity=0 time=0
EXTRACT: note_on channel=0 note=77 velocity=96 time=0.013211385416666666
EXTRACT: note_on channel=1 note=61 velocity=80 time=0
EXTRACT: note_on channel=1 note=68 velocity=80 time=0
EXTRACT: note_on channel=0 note=77 velocity=0 time=0.23069111458333333
EXTRACT: note_on channel=1 note=61 velocity=0 time=0
EXTRACT: note_on channel=1 note=68 velocity=0 time=0
EXTRACT: note_on channel=0 note=77 velocity=96 time=0.013211385416666666
EXTRACT: note_on channel=1 note=56 velocity=80 time=0
EXTRACT: note_on channel=1 note=65 velocity=80 time=0
EXTRACT: note_on channel=1 note=32 velocity=0 time=0.19410573958333333
EXTRACT: note_on channel=1 note=44 velocity=0 time=0
EXTRACT: note_on channel=0 note=77 velocity=0 time=0.036585374999999996
EXTRACT: note_on channel=1 note=56 velocity=0 time=0
EXTRACT: note_on channel=1 note=65 velocity=0 time=0
EXTRACT: note_on channel=0 note=80 velocity=96 time=0.013211385416666666
EXTRACT: note_on channel=1 note=61 velocity=80 time=0
EXTRACT: note_on channel=1 note=68 velocity=80 time=0
EXTRACT: note_on channel=1 note=29 velocity=80 time=0
EXTRACT: note_on channel=1 note=41 velocity=80 time=0
EXTRACT: control_change channel=1 control=64 value=0 time=0.0010162604166666666
EXTRACT: control_change channel=1 control=64 value=127 time=0.0010162604166666666
EXTRACT: note_on channel=1 note=61 velocity=0 time=0.22865859375
EXTRACT: note_on channel=1 note=68 velocity=0 time=0
EXTRACT: note_on channel=1 note=56 velocity=80 time=0.013211385416666666
EXTRACT: note_on channel=1 note=65 velocity=80 time=0
EXTRACT: note_on channel=0 note=80 velocity=0 time=0.10264230208333333
EXTRACT: note_on channel=0 note=77 velocity=96 time=0.019308947916666666
EXTRACT: note_on channel=1 note=56 velocity=0 time=0.10873986458333333
EXTRACT: note_on channel=1 note=65 velocity=0 time=0
EXTRACT: note_on channel=1 note=61 velocity=80 time=0.013211385416666666
EXTRACT: note_on channel=1 note=68 velocity=80 time=0
EXTRACT: note_on channel=0 note=77 velocity=0 time=0.22459355208333331
EXTRACT: note_on channel=1 note=61 velocity=0 time=0.0060975625
EXTRACT: note_on channel=1 note=68 velocity=0 time=0
EXTRACT: note_on channel=0 note=75 velocity=96 time=0.013211385416666666
EXTRACT: note_on channel=1 note=56 velocity=80 time=0
EXTRACT: note_on channel=1 note=65 velocity=80 time=0
EXTRACT: note_on channel=1 note=29 velocity=0 time=0.19410573958333333
EXTRACT: note_on channel=1 note=41 velocity=0 time=0
EXTRACT: note_on channel=0 note=75 velocity=0 time=0.036585374999999996
EXTRACT: note_on channel=1 note=56 velocity=0 time=0
EXTRACT: note_on channel=1 note=65 velocity=0 time=0
EXTRACT: note_on channel=0 note=73 velocity=96 time=0.013211385416666666
EXTRACT: note_on channel=1 note=61 velocity=80 time=0
EXTRACT: note_on channel=1 note=68 velocity=80 time=0
EXTRACT: note_on channel=1 note=29 velocity=80 time=0
EXTRACT: note_on channel=1 note=41 velocity=80 time=0
EXTRACT: note_on channel=0 note=73 velocity=0 time=0.23069111458333333
EXTRACT: note_on channel=1 note=61 velocity=0 time=0
EXTRACT: note_on channel=1 note=68 velocity=0 time=0
EXTRACT: note_on channel=0 note=75 velocity=96 time=0.013211385416666666
EXTRACT: note_on channel=1 note=56 velocity=80 time=0
EXTRACT: note_on channel=1 note=65 velocity=80 time=0
EXTRACT: note_on channel=1 note=56 velocity=0 time=0.23069111458333333
EXTRACT: note_on channel=1 note=65 velocity=0 time=0
EXTRACT: note_on channel=1 note=61 velocity=80 time=0.013211385416666666
EXTRACT: note_on channel=1 note=68 velocity=80 time=0
EXTRACT: note_on channel=1 note=61 velocity=0 time=0.23069111458333333
EXTRACT: note_on channel=1 note=68 velocity=0 time=0
EXTRACT: note_on channel=1 note=56 velocity=80 time=0.013211385416666666
EXTRACT: note_on channel=1 note=65 velocity=80 time=0
EXTRACT: note_on channel=1 note=29 velocity=0 time=0.19410573958333333
EXTRACT: note_on channel=1 note=41 velocity=0 time=0
EXTRACT: note_on channel=0 note=75 velocity=0 time=0.012195125
EXTRACT: note_on channel=1 note=56 velocity=0 time=0.02439025
EXTRACT: note_on channel=1 note=65 velocity=0 time=0
EXTRACT: note_on channel=1 note=61 velocity=80 time=0.013211385416666666
EXTRACT: note_on channel=1 note=66 velocity=80 time=0
EXTRACT: note_on channel=1 note=30 velocity=80 time=0
EXTRACT: note_on channel=1 note=42 velocity=80 time=0
EXTRACT: control_change channel=1 control=64 value=0 time=0.0010162604166666666
EXTRACT: control_change channel=1 control=64 value=127 time=0.0010162604166666666
EXTRACT: note_on channel=1 note=61 velocity=0 time=0.22865859375
EXTRACT: note_on channel=1 note=66 velocity=0 time=0
EXTRACT: note_on channel=1 note=58 velocity=80 time=0.013211385416666666
EXTRACT: note_on channel=1 note=65 velocity=80 time=0
EXTRACT: note_on channel=1 note=58 velocity=0 time=0.23069111458333333
EXTRACT: note_on channel=1 note=65 velocity=0 time=0
EXTRACT: note_on channel=0 note=73 velocity=96 time=0.013211385416666666
EXTRACT: note_on channel=1 note=61 velocity=80 time=0
EXTRACT: note_on channel=1 note=66 velocity=80 time=0
EXTRACT: note_on channel=1 note=61 velocity=0 time=0.23069111458333333
EXTRACT: note_on channel=1 note=66 velocity=0 time=0
EXTRACT: note_on channel=1 note=58 velocity=80 time=0.013211385416666666
EXTRACT: note_on channel=1 note=65 velocity=80 time=0
EXTRACT: note_on channel=1 note=30 velocity=0 time=0.19410573958333333
EXTRACT: note_on channel=1 note=42 velocity=0 time=0
EXTRACT: note_on channel=1 note=58 velocity=0 time=0.036585374999999996
EXTRACT: note_on channel=1 note=65 velocity=0 time=0
EXTRACT: note_on channel=1 note=61 velocity=80 time=0.013211385416666666
EXTRACT: note_on channel=1 note=66 velocity=80 time=0
EXTRACT: note_on channel=1 note=30 velocity=80 time=0
EXTRACT: note_on channel=1 note=42 velocity=80 time=0
EXTRACT: note_on channel=1 note=61 velocity=0 time=0.23069111458333333
EXTRACT: note_on channel=1 note=66 velocity=0 time=0
EXTRACT: note_on channel=1 note=58 velocity=80 time=0.013211385416666666
EXTRACT: note_on channel=1 note=65 velocity=80 time=0
EXTRACT: note_on channel=0 note=73 velocity=0 time=0.19410573958333333
EXTRACT: note_on channel=1 note=58 velocity=0 time=0.036585374999999996
EXTRACT: note_on channel=1 note=65 velocity=0 time=0
EXTRACT: note_on channel=0 note=77 velocity=96 time=0.013211385416666666
EXTRACT: note_on channel=1 note=61 velocity=80 time=0
EXTRACT: note_on channel=1 note=66 velocity=80 time=0
EXTRACT: note_on channel=0 note=77 velocity=0 time=0.23069111458333333
EXTRACT: note_on channel=1 note=61 velocity=0 time=0
EXTRACT: note_on channel=1 note=66 velocity=0 time=0
EXTRACT: note_on channel=0 note=77 velocity=96 time=0.013211385416666666
EXTRACT: note_on channel=1 note=58 velocity=80 time=0
EXTRACT: note_on channel=1 note=65 velocity=80 time=0
EXTRACT: note_on channel=1 note=30 velocity=0 time=0.19410573958333333
EXTRACT: note_on channel=1 note=42 velocity=0 time=0
EXTRACT: note_on channel=0 note=77 velocity=0 time=0.036585374999999996
EXTRACT: note_on channel=1 note=58 velocity=0 time=0
EXTRACT: note_on channel=1 note=65 velocity=0 time=0
EXTRACT: note_on channel=0 note=80 velocity=96 time=0.013211385416666666
EXTRACT: note_on channel=1 note=61 velocity=80 time=0
EXTRACT: note_on channel=1 note=70 velocity=80 time=0
EXTRACT: note_on channel=1 note=34 velocity=80 time=0
EXTRACT: note_on channel=1 note=46 velocity=80 time=0
EXTRACT: control_change channel=1 control=64 value=0 time=0.0010162604166666666
EXTRACT: control_change channel=1 control=64 value=127 time=0.0010162604166666666
EXTRACT: note_on channel=1 note=61 velocity=0 time=0.22865859375
EXTRACT: note_on channel=1 note=70 velocity=0 time=0
EXTRACT: note_on channel=1 note=58 velocity=80 time=0.013211385416666666
EXTRACT: note_on channel=1 note=65 velocity=80 time=0
EXTRACT: note_on channel=0 note=80 velocity=0 time=0.10264230208333333
EXTRACT: note_on channel=0 note=77 velocity=96 time=0.019308947916666666
EXTRACT: note_on channel=1 note=58 velocity=0 time=0.10873986458333333
EXTRACT: note_on channel=1 note=65 velocity=0 time=0
EXTRACT: note_on channel=1 note=61 velocity=80 time=0.013211385416666666
EXTRACT: note_on channel=1 note=70 velocity=80 time=0
EXTRACT: note_on channel=0 note=77 velocity=0 time=0.22459355208333331
EXTRACT: note_on channel=1 note=61 velocity=0 time=0.0060975625
EXTRACT: note_on channel=1 note=70 velocity=0 time=0
EXTRACT: note_on channel=0 note=75 velocity=96 time=0.013211385416666666
EXTRACT: note_on channel=1 note=58 velocity=80 time=0
EXTRACT: note_on channel=1 note=65 velocity=80 time=0
EXTRACT: note_on channel=1 note=34 velocity=0 time=0.19410573958333333
EXTRACT: note_on channel=1 note=46 velocity=0 time=0
EXTRACT: note_on channel=0 note=75 velocity=0 time=0.036585374999999996
EXTRACT: note_on channel=1 note=58 velocity=0 time=0
EXTRACT: note_on channel=1 note=65 velocity=0 time=0
EXTRACT: note_on channel=0 note=73 velocity=96 time=0.013211385416666666
EXTRACT: note_on channel=1 note=61 velocity=80 time=0
EXTRACT: note_on channel=1 note=70 velocity=80 time=0
EXTRACT: note_on channel=1 note=34 velocity=80 time=0
EXTRACT: note_on channel=1 note=46 velocity=80 time=0
EXTRACT: note_on channel=0 note=73 velocity=0 time=0.23069111458333333
EXTRACT: note_on channel=1 note=61 velocity=0 time=0
EXTRACT: note_on channel=1 note=70 velocity=0 time=0
EXTRACT: note_on channel=0 note=75 velocity=96 time=0.013211385416666666
EXTRACT: note_on channel=1 note=58 velocity=80 time=0
EXTRACT: note_on channel=1 note=65 velocity=80 time=0
EXTRACT: note_on channel=1 note=58 velocity=0 time=0.23069111458333333
EXTRACT: note_on channel=1 note=65 velocity=0 time=0
EXTRACT: note_on channel=1 note=61 velocity=80 time=0.013211385416666666
EXTRACT: note_on channel=1 note=70 velocity=80 time=0
EXTRACT: note_on channel=1 note=61 velocity=0 time=0.23069111458333333
EXTRACT: note_on channel=1 note=70 velocity=0 time=0
EXTRACT: note_on channel=1 note=58 velocity=80 time=0.013211385416666666
EXTRACT: note_on channel=1 note=65 velocity=80 time=0
EXTRACT: note_on channel=1 note=34 velocity=0 time=0.19410573958333333
EXTRACT: note_on channel=1 note=46 velocity=0 time=0
EXTRACT: note_on channel=0 note=75 velocity=0 time=0.012195125
EXTRACT: note_on channel=1 note=58 velocity=0 time=0.02439025
EXTRACT: note_on channel=1 note=65 velocity=0 time=0
EXTRACT: note_on channel=1 note=61 velocity=80 time=0.013211385416666666
EXTRACT: note_on channel=1 note=68 velocity=80 time=0
EXTRACT: note_on channel=1 note=32 velocity=80 time=0
EXTRACT: note_on channel=1 note=44 velocity=80 time=0
EXTRACT: control_change channel=1 control=64 value=0 time=0.0010162604166666666
EXTRACT: control_change channel=1 control=64 value=127 time=0.0010162604166666666
EXTRACT: note_on channel=1 note=61 velocity=0 time=0.22865859375
EXTRACT: note_on channel=1 note=68 velocity=0 time=0
EXTRACT: note_on channel=1 note=56 velocity=80 time=0.013211385416666666
EXTRACT: note_on channel=1 note=65 velocity=80 time=0
EXTRACT: note_on channel=1 note=56 velocity=0 time=0.23069111458333333
EXTRACT: note_on channel=1 note=65 velocity=0 time=0
EXTRACT: note_on channel=0 note=73 velocity=96 time=0.013211385416666666
EXTRACT: note_on channel=1 note=61 velocity=80 time=0
EXTRACT: note_on channel=1 note=68 velocity=80 time=0
EXTRACT: note_on channel=0 note=73 velocity=0 time=0.23069111458333333
EXTRACT: note_on channel=1 note=61 velocity=0 time=0
EXTRACT: note_on channel=1 note=68 velocity=0 time=0
EXTRACT: note_on channel=0 note=72 velocity=96 time=0.013211385416666666
EXTRACT: note_on channel=1 note=56 velocity=80 time=0
EXTRACT: note_on channel=1 note=65 velocity=80 time=0
EXTRACT: note_on channel=1 note=32 velocity=0 time=0.19410573958333333
EXTRACT: note_on channel=1 note=44 velocity=0 time=0
EXTRACT: note_on channel=0 note=72 velocity=0 time=0.036585374999999996
EXTRACT: note_on channel=1 note=56 velocity=0 time=0
EXTRACT: note_on channel=1 note=65 velocity=0 time=0
EXTRACT: note_on channel=0 note=70 velocity=96 time=0.013211385416666666
EXTRACT: note_on channel=1 note=61 velocity=80 time=0
EXTRACT: note_on channel=1 note=68 velocity=80 time=0
EXTRACT: note_on channel=1 note=32 velocity=80 time=0
EXTRACT: note_on channel=1 note=44 velocity=80 time=0
EXTRACT: note_on channel=0 note=70 velocity=0 time=0.11483742708333333
EXTRACT: note_on channel=0 note=68 velocity=96 time=0.007113822916666667
EXTRACT: note_on channel=1 note=61 velocity=0 time=0.10873986458333333
EXTRACT: note_on channel=1 note=68 velocity=0 time=0
EXTRACT: note_on channel=1 note=56 velocity=80 time=0.013211385416666666
EXTRACT: note_on channel=1 note=65 velocity=80 time=0
EXTRACT: note_on channel=0 note=68 velocity=0 time=0.22459355208333331
EXTRACT: note_on channel=1 note=56 velocity=0 time=0.0060975625
EXTRACT: note_on channel=1 note=65 velocity=0 time=0
EXTRACT: note_on channel=0 note=68 velocity=96 time=0.013211385416666666
EXTRACT: note_on channel=1 note=61 velocity=80 time=0
EXTRACT: note_on channel=1 note=68 velocity=80 time=0
EXTRACT: note_on channel=0 note=68 velocity=0 time=0.23069111458333333
EXTRACT: note_on channel=1 note=61 velocity=0 time=0
EXTRACT: note_on channel=1 note=68 velocity=0 time=0
EXTRACT: note_on channel=0 note=68 velocity=96 time=0.013211385416666666
EXTRACT: note_on channel=1 note=56 velocity=80 time=0
EXTRACT: note_on channel=1 note=65 velocity=80 time=0
EXTRACT: note_on channel=1 note=32 velocity=0 time=0.19410573958333333
EXTRACT: note_on channel=1 note=44 velocity=0 time=0
EXTRACT: note_on channel=0 note=68 velocity=0 time=0.036585374999999996
EXTRACT: note_on channel=1 note=56 velocity=0 time=0
EXTRACT: note_on channel=1 note=65 velocity=0 time=0
EXTRACT: note_on channel=0 note=70 velocity=96 time=0.013211385416666666
EXTRACT: note_on channel=1 note=61 velocity=80 time=0
EXTRACT: note_on channel=1 note=68 velocity=80 time=0
EXTRACT: note_on channel=1 note=29 velocity=80 time=0
EXTRACT: note_on channel=1 note=41 velocity=80 time=0
EXTRACT: control_change channel=1 control=64 value=0 time=0.0010162604166666666
EXTRACT: control_change channel=1 control=64 value=127 time=0.0010162604166666666
EXTRACT: note_on channel=1 note=61 velocity=0 time=0.22865859375
EXTRACT: note_on channel=1 note=68 velocity=0 time=0
EXTRACT: note_on channel=1 note=56 velocity=80 time=0.013211385416666666
EXTRACT: note_on channel=1 note=65 velocity=80 time=0
EXTRACT: note_on channel=0 note=70 velocity=0 time=0.21849598958333333
EXTRACT: note_on channel=1 note=56 velocity=0 time=0.012195125
EXTRACT: note_on channel=1 note=65 velocity=0 time=0
EXTRACT: note_on channel=0 note=73 velocity=96 time=0.013211385416666666
EXTRACT: note_on channel=1 note=61 velocity=80 time=0
EXTRACT: note_on channel=1 note=68 velocity=80 time=0
EXTRACT: note_on channel=1 note=61 velocity=0 time=0.23069111458333333
EXTRACT: note_on channel=1 note=68 velocity=0 time=0
EXTRACT: note_on channel=1 note=56 velocity=80 time=0.013211385416666666
EXTRACT: note_on channel=1 note=65 velocity=80 time=0
EXTRACT: note_on channel=1 note=29 velocity=0 time=0.19410573958333333
EXTRACT: note_on channel=1 note=41 velocity=0 time=0
EXTRACT: note_on channel=1 note=56 velocity=0 time=0.036585374999999996
EXTRACT: note_on channel=1 note=65 velocity=0 time=0
EXTRACT: note_on channel=1 note=61 velocity=80 time=0.013211385416666666
EXTRACT: note_on channel=1 note=68 velocity=80 time=0
EXTRACT: note_on channel=1 note=29 velocity=80 time=0
EXTRACT: note_on channel=1 note=41 velocity=80 time=0
EXTRACT: note_on channel=0 note=73 velocity=0 time=0.20630086458333333
EXTRACT: note_on channel=1 note=61 velocity=0 time=0.02439025
EXTRACT: note_on channel=1 note=68 velocity=0 time=0
EXTRACT: note_on channel=0 note=70 velocity=96 time=0.013211385416666666
EXTRACT: note_on channel=1 note=56 velocity=80 time=0
EXTRACT: note_on channel=1 note=65 velocity=80 time=0
EXTRACT: note_on channel=1 note=56 velocity=0 time=0.23069111458333333
EXTRACT: note_on channel=1 note=65 velocity=0 time=0
EXTRACT: note_on channel=1 note=61 velocity=80 time=0.013211385416666666
EXTRACT: note_on channel=1 note=68 velocity=80 time=0
EXTRACT: note_on channel=1 note=61 velocity=0 time=0.23069111458333333
EXTRACT: note_on channel=1 note=68 velocity=0 time=0
EXTRACT: note_on channel=1 note=56 velocity=80 time=0.013211385416666666
EXTRACT: note_on channel=1 note=65 velocity=80 time=0
EXTRACT: note_on channel=1 note=29 velocity=0 time=0.19410573958333333
EXTRACT: note_on channel=1 note=41 velocity=0 time=0
EXTRACT: note_on channel=0 note=70 velocity=0 time=0.012195125
EXTRACT: note_on channel=1 note=56 velocity=0 time=0.02439025
EXTRACT: note_on channel=1 note=65 velocity=0 time=0
EXTRACT: note_on channel=1 note=61 velocity=80 time=0.013211385416666666
EXTRACT: note_on channel=1 note=66 velocity=80 time=0
EXTRACT: note_on channel=1 note=30 velocity=80 time=0
EXTRACT: note_on channel=1 note=42 velocity=80 time=0
EXTRACT: control_change channel=1 control=64 value=0 time=0.0010162604166666666
EXTRACT: control_change channel=1 control=64 value=127 time=0.0010162604166666666
EXTRACT: note_on channel=1 note=61 velocity=0 time=0.22865859375
EXTRACT: note_on channel=1 note=66 velocity=0 time=0
EXTRACT: note_on channel=1 note=58 velocity=78 time=0.013211385416666666
EXTRACT: note_on channel=1 note=65 velocity=78 time=0
EXTRACT: note_on channel=1 note=58 velocity=0 time=0.23069111458333333
EXTRACT: note_on channel=1 note=65 velocity=0 time=0
EXTRACT: note_on channel=1 note=61 velocity=76 time=0.013211385416666666
EXTRACT: note_on channel=1 note=66 velocity=76 time=0
EXTRACT: note_on channel=1 note=61 velocity=0 time=0.23069111458333333
EXTRACT: note_on channel=1 note=66 velocity=0 time=0
EXTRACT: note_on channel=1 note=58 velocity=74 time=0.013211385416666666
EXTRACT: note_on channel=1 note=65 velocity=74 time=0
EXTRACT: note_on channel=1 note=30 velocity=0 time=0.19410573958333333
EXTRACT: note_on channel=1 note=42 velocity=0 time=0
EXTRACT: note_on channel=1 note=58 velocity=0 time=0.036585374999999996
EXTRACT: note_on channel=1 note=65 velocity=0 time=0
EXTRACT: note_on channel=0 note=77 velocity=96 time=0.013211385416666666
EXTRACT: note_on channel=1 note=61 velocity=72 time=0
EXTRACT: note_on channel=1 note=66 velocity=72 time=0
EXTRACT: note_on channel=1 note=30 velocity=72 time=0
EXTRACT: note_on channel=1 note=42 velocity=72 time=0
EXTRACT: note_on channel=1 note=61 velocity=0 time=0.23069111458333333
EXTRACT: note_on channel=1 note=66 velocity=0 time=0
EXTRACT: note_on channel=1 note=58 velocity=70 time=0.013211385416666666
EXTRACT: note_on channel=1 note=65 velocity=70 time=0
EXTRACT: note_on channel=0 note=77 velocity=0 time=0.10264230208333333
EXTRACT: note_on channel=0 note=75 velocity=96 time=0.019308947916666666
EXTRACT: note_on channel=1 note=58 velocity=0 time=0.10873986458333333
EXTRACT: note_on channel=1 note=65 velocity=0 time=0
EXTRACT: note_on channel=1 note=61 velocity=68 time=0.013211385416666666
EXTRACT: note_on channel=1 note=66 velocity=68 time=0
EXTRACT: note_on channel=0 note=75 velocity=0 time=0.22459355208333331
EXTRACT: note_on channel=1 note=61 velocity=0 time=0.0060975625
EXTRACT: note_on channel=1 note=66 velocity=0 time=0
EXTRACT: note_on channel=0 note=70 velocity=96 time=0.013211385416666666
EXTRACT: note_on channel=1 note=58 velocity=66 time=0
EXTRACT: note_on channel=1 note=65 velocity=66 time=0
EXTRACT: note_on channel=1 note=30 velocity=0 time=0.19410573958333333
EXTRACT: note_on channel=1 note=42 velocity=0 time=0
EXTRACT: note_on channel=0 note=70 velocity=0 time=0.036585374999999996
EXTRACT: note_on channel=1 note=58 velocity=0 time=0
EXTRACT: note_on channel=1 note=65 velocity=0 time=0
EXTRACT: note_on channel=1 note=61 velocity=64 time=0.013211385416666666
EXTRACT: note_on channel=1 note=70 velocity=64 time=0
EXTRACT: note_on channel=1 note=34 velocity=64 time=0
EXTRACT: note_on channel=1 note=46 velocity=64 time=0
EXTRACT: control_change channel=1 control=64 value=0 time=0.0010162604166666666
EXTRACT: control_change channel=1 control=64 value=127 time=0.0010162604166666666
EXTRACT: note_on channel=1 note=61 velocity=0 time=0.22865859375
EXTRACT: note_on channel=1 note=70 velocity=0 time=0
EXTRACT: note_on channel=0 note=73 velocity=96 time=0.013211385416666666
EXTRACT: note_on channel=1 note=58 velocity=64 time=0
EXTRACT: note_on channel=1 note=65 velocity=64 time=0
EXTRACT: note_on channel=1 note=58 velocity=0 time=0.23069111458333333
EXTRACT: note_on channel=1 note=65 velocity=0 time=0
EXTRACT: note_on channel=1 note=61 velocity=64 time=0.013211385416666666
EXTRACT: note_on channel=1 note=70 velocity=64 time=0
EXTRACT: note_on channel=0 note=73 velocity=0 time=0.21849598958333333
EXTRACT: note_on channel=1 note=61 velocity=0 time=0.012195125
EXTRACT: note_on channel=1 note=70 velocity=0 time=0
EXTRACT: note_on channel=1 note=58 velocity=64 time=0.013211385416666666
EXTRACT: note_on channel=1 note=65 velocity=64 time=0
EXTRACT: note_on channel=1 note=34 velocity=0 time=0.19410573958333333
EXTRACT: note_on channel=1 note=46 velocity=0 time=0
EXTRACT: note_on channel=1 note=58 velocity=0 time=0.036585374999999996
EXTRACT: note_on channel=1 note=65 velocity=0 time=0
EXTRACT: note_on channel=1 note=61 velocity=64 time=0.013211385416666666
EXTRACT: note_on channel=1 note=70 velocity=64 time=0
EXTRACT: note_on channel=1 note=34 velocity=64 time=0
EXTRACT: note_on channel=1 note=46 velocity=64 time=0
EXTRACT: note_on channel=1 note=61 velocity=0 time=0.23069111458333333
EXTRACT: note_on channel=1 note=70 velocity=0 time=0
EXTRACT: note_on channel=1 note=58 velocity=64 time=0.013211385416666666
EXTRACT: note_on channel=1 note=65 velocity=64 time=0
EXTRACT: note_on channel=1 note=58 velocity=0 time=0.23069111458333333
EXTRACT: note_on channel=1 note=65 velocity=0 time=0
EXTRACT: note_on channel=1 note=61 velocity=64 time=0.013211385416666666
EXTRACT: note_on channel=1 note=70 velocity=64 time=0
EXTRACT: note_on channel=1 note=61 velocity=0 time=0.23069111458333333
EXTRACT: note_on channel=1 note=70 velocity=0 time=0
EXTRACT: note_on channel=1 note=58 velocity=64 time=0.013211385416666666
EXTRACT: note_on channel=1 note=65 velocity=64 time=0
EXTRACT: note_on channel=1 note=34 velocity=0 time=0.19410573958333333
EXTRACT: note_on channel=1 note=46 velocity=0 time=0
EXTRACT: note_on channel=1 note=58 velocity=0 time=0.036585374999999996
EXTRACT: note_on channel=1 note=65 velocity=0 time=0
EXTRACT: note_on channel=1 note=61 velocity=64 time=0.013211385416666666
EXTRACT: note_on channel=1 note=68 velocity=64 time=0
EXTRACT: note_on channel=1 note=32 velocity=64 time=0
EXTRACT: note_on channel=1 note=44 velocity=64 time=0
EXTRACT: control_change channel=1 control=64 value=0 time=0.0010162604166666666
EXTRACT: control_change channel=1 control=64 value=127 time=0.0010162604166666666
EXTRACT: note_on channel=1 note=61 velocity=0 time=0.22865859375
EXTRACT: note_on channel=1 note=68 velocity=0 time=0
EXTRACT: note_on channel=1 note=56 velocity=64 time=0.013211385416666666
EXTRACT: note_on channel=1 note=65 velocity=64 time=0
EXTRACT: note_on channel=1 note=56 velocity=0 time=0.23069111458333333
EXTRACT: note_on channel=1 note=65 velocity=0 time=0
EXTRACT: note_on channel=1 note=61 velocity=64 time=0.013211385416666666
EXTRACT: note_on channel=1 note=68 velocity=64 time=0
EXTRACT: note_on channel=1 note=61 velocity=0 time=0.23069111458333333
EXTRACT: note_on channel=1 note=68 velocity=0 time=0
EXTRACT: note_on channel=1 note=56 velocity=64 time=0.013211385416666666
EXTRACT: note_on channel=1 note=65 velocity=64 time=0
EXTRACT: note_on channel=1 note=32 velocity=0 time=0.19410573958333333
EXTRACT: note_on channel=1 note=44 velocity=0 time=0
EXTRACT: note_on channel=1 note=56 velocity=0 time=0.036585374999999996
EXTRACT: note_on channel=1 note=65 velocity=0 time=0
EXTRACT: note_on channel=0 note=77 velocity=96 time=0.013211385416666666
EXTRACT: note_on channel=1 note=61 velocity=64 time=0
EXTRACT: note_on channel=1 note=68 velocity=64 time=0
EXTRACT: note_on channel=1 note=32 velocity=64 time=0
EXTRACT: note_on channel=1 note=44 velocity=64 time=0
EXTRACT: note_on channel=1 note=61 velocity=0 time=0.23069111458333333
EXTRACT: note_on channel=1 note=68 velocity=0 time=0
EXTRACT: note_on channel=1 note=56 velocity=64 time=0.013211385416666666
EXTRACT: note_on channel=1 note=65 velocity=64 time=0
EXTRACT: note_on channel=0 note=77 velocity=0 time=0.10264230208333333
EXTRACT: note_on channel=0 note=75 velocity=96 time=0.019308947916666666
EXTRACT: note_on channel=1 note=56 velocity=0 time=0.10873986458333333
EXTRACT: note_on channel=1 note=65 velocity=0 time=0
EXTRACT: note_on channel=1 note=61 velocity=64 time=0.013211385416666666
EXTRACT: note_on channel=1 note=68 velocity=64 time=0
EXTRACT: note_on channel=0 note=75 velocity=0 time=0.22459355208333331
EXTRACT: note_on channel=1 note=61 velocity=0 time=0.0060975625
EXTRACT: note_on channel=1 note=68 velocity=0 time=0
EXTRACT: note_on channel=0 note=70 velocity=96 time=0.013211385416666666
EXTRACT: note_on channel=1 note=56 velocity=64 time=0
EXTRACT: note_on channel=1 note=65 velocity=64 time=0
EXTRACT: note_on channel=1 note=32 velocity=0 time=0.19410573958333333
EXTRACT: note_on channel=1 note=44 velocity=0 time=0
EXTRACT: note_on channel=0 note=70 velocity=0 time=0.036585374999999996
EXTRACT: note_on channel=1 note=56 velocity=0 time=0
EXTRACT: note_on channel=1 note=65 velocity=0 time=0
EXTRACT: note_on channel=1 note=61 velocity=64 time=0.013211385416666666
EXTRACT: note_on channel=1 note=68 velocity=64 time=0
EXTRACT: note_on channel=1 note=29 velocity=64 time=0
EXTRACT: note_on channel=1 note=41 velocity=64 time=0
EXTRACT: control_change channel=1 control=64 value=0 time=0.0010162604166666666
EXTRACT: control_change channel=1 control=64 value=127 time=0.0010162604166666666
EXTRACT: note_on channel=1 note=61 velocity=0 time=0.22865859375
EXTRACT: note_on channel=1 note=68 velocity=0 time=0
EXTRACT: note_on channel=0 note=73 velocity=96 time=0.013211385416666666
EXTRACT: note_on channel=1 note=56 velocity=64 time=0
EXTRACT: note_on channel=1 note=65 velocity=64 time=0
EXTRACT: note_on channel=1 note=56 velocity=0 time=0.23069111458333333
EXTRACT: note_on channel=1 note=65 velocity=0 time=0
EXTRACT: note_on channel=1 note=61 velocity=64 time=0.013211385416666666
EXTRACT: note_on channel=1 note=68 velocity=64 time=0
EXTRACT: note_on channel=0 note=73 velocity=0 time=0.21849598958333333
EXTRACT: note_on channel=1 note=61 velocity=0 time=0.012195125
EXTRACT: note_on channel=1 note=68 velocity=0 time=0
EXTRACT: note_on channel=1 note=56 velocity=64 time=0.013211385416666666
EXTRACT: note_on channel=1 note=65 velocity=64 time=0
EXTRACT: note_on channel=1 note=29 velocity=0 time=0.19410573958333333
EXTRACT: note_on channel=1 note=41 velocity=0 time=0
EXTRACT: note_on channel=1 note=56 velocity=0 time=0.036585374999999996
EXTRACT: note_on channel=1 note=65 velocity=0 time=0
EXTRACT: note_on channel=1 note=61 velocity=64 time=0.013211385416666666
EXTRACT: note_on channel=1 note=68 velocity=64 time=0
EXTRACT: note_on channel=1 note=29 velocity=64 time=0
EXTRACT: note_on channel=1 note=41 velocity=64 time=0
EXTRACT: note_on channel=1 note=61 velocity=0 time=0.23069111458333333
EXTRACT: note_on channel=1 note=68 velocity=0 time=0
EXTRACT: note_on channel=0 note=75 velocity=96 time=0.013211385416666666
EXTRACT: note_on channel=1 note=56 velocity=64 time=0
EXTRACT: note_on channel=1 note=65 velocity=64 time=0
EXTRACT: note_on channel=0 note=75 velocity=0 time=0.23069111458333333
EXTRACT: note_on channel=1 note=56 velocity=0 time=0
EXTRACT: note_on channel=1 note=65 velocity=0 time=0
EXTRACT: note_on channel=0 note=77 velocity=96 time=0.013211385416666666
EXTRACT: note_on channel=1 note=61 velocity=64 time=0
EXTRACT: note_on channel=1 note=68 velocity=64 time=0
EXTRACT: note_on channel=0 note=77 velocity=0 time=0.23069111458333333
EXTRACT: note_on channel=1 note=61 velocity=0 time=0
EXTRACT: note_on channel=1 note=68 velocity=0 time=0
EXTRACT: note_on channel=0 note=78 velocity=96 time=0.013211385416666666
EXTRACT: note_on channel=1 note=56 velocity=64 time=0
EXTRACT: note_on channel=1 note=65 velocity=64 time=0
EXTRACT: note_on channel=1 note=29 velocity=0 time=0.19410573958333333
EXTRACT: note_on channel=1 note=41 velocity=0 time=0
EXTRACT: note_on channel=0 note=78 velocity=0 time=0.036585374999999996
EXTRACT: note_on channel=1 note=56 velocity=0 time=0
EXTRACT: note_on channel=1 note=65 velocity=0 time=0
EXTRACT: note_on channel=0 note=77 velocity=96 time=0.013211385416666666
EXTRACT: note_on channel=1 note=61 velocity=64 time=0
EXTRACT: note_on channel=1 note=66 velocity=64 time=0
EXTRACT: note_on channel=1 note=30 velocity=64 time=0
EXTRACT: note_on channel=1 note=42 velocity=64 time=0
EXTRACT: control_change channel=1 control=64 value=0 time=0.0010162604166666666
EXTRACT: control_change channel=1 control=64 value=127 time=0.0010162604166666666
EXTRACT: note_on channel=0 note=77 velocity=0 time=0.22865859375
EXTRACT: note_on channel=1 note=61 velocity=0 time=0
EXTRACT: note_on channel=1 note=66 velocity=0 time=0
EXTRACT: note_on channel=1 note=58 velocity=64 time=0.013211385416666666
EXTRACT: note_on channel=1 note=65 velocity=64 time=0
EXTRACT: note_on channel=1 note=58 velocity=0 time=0.23069111458333333
EXTRACT: note_on channel=1 note=65 velocity=0 time=0
EXTRACT: note_on channel=1 note=61 velocity=64 time=0.013211385416666666
EXTRACT: note_on channel=1 note=66 velocity=64 time=0
EXTRACT: note_on channel=1 note=61 velocity=0 time=0.23069111458333333
EXTRACT: note_on channel=1 note=66 velocity=0 time=0
EXTRACT: note_on channel=1 note=58 velocity=64 time=0.013211385416666666
EXTRACT: note_on channel=1 note=65 velocity=64 time=0
EXTRACT: note_on channel=1 note=30 velocity=0 time=0.19410573958333333
EXTRACT: note_on channel=1 note=42 velocity=0 time=0
EXTRACT: note_on channel=1 note=58 velocity=0 time=0.036585374999999996
EXTRACT: note_on channel=1 note=65 velocity=0 time=0
EXTRACT: note_on channel=0 note=77 velocity=96 time=0.013211385416666666
EXTRACT: note_on channel=1 note=61 velocity=64 time=0
EXTRACT: note_on channel=1 note=66 velocity=64 time=0
EXTRACT: note_on channel=1 note=30 velocity=64 time=0
EXTRACT: note_on channel=1 note=42 velocity=64 time=0
EXTRACT: note_on channel=1 note=61 velocity=0 time=0.23069111458333333
EXTRACT: note_on channel=1 note=66 velocity=0 time=0
EXTRACT: note_on channel=1 note=58 velocity=64 time=0.013211385416666666
EXTRACT: note_on channel=1 note=65 velocity=64 time=0
EXTRACT: note_on channel=0 note=77 velocity=0 time=0.10264230208333333
EXTRACT: note_on channel=0 note=75 velocity=96 time=0.019308947916666666
EXTRACT: note_on channel=1 note=58 velocity=0 time=0.10873986458333333
EXTRACT: note_on channel=1 note=65 velocity=0 time=0
EXTRACT: note_on channel=1 note=61 velocity=64 time=0.013211385416666666
EXTRACT: note_on channel=1 note=66 velocity=64 time=0
EXTRACT: note_on channel=0 note=75 velocity=0 time=0.22459355208333331
EXTRACT: note_on channel=1 note=61 velocity=0 time=0.0060975625
EXTRACT: note_on channel=1 note=66 velocity=0 time=0
EXTRACT: note_on channel=0 note=70 velocity=96 time=0.013211385416666666
EXTRACT: note_on channel=1 note=58 velocity=64 time=0
EXTRACT: note_on channel=1 note=65 velocity=64 time=0
EXTRACT: note_on channel=1 note=30 velocity=0 time=0.19410573958333333
EXTRACT: note_on channel=1 note=42 velocity=0 time=0
EXTRACT: note_on channel=0 note=70 velocity=0 time=0.036585374999999996
EXTRACT: note_on channel=1 note=58 velocity=0 time=0
EXTRACT: note_on channel=1 note=65 velocity=0 time=0
EXTRACT: note_on channel=1 note=61 velocity=64 time=0.013211385416666666
EXTRACT: note_on channel=1 note=70 velocity=64 time=0
EXTRACT: note_on channel=1 note=34 velocity=64 time=0
EXTRACT: note_on channel=1 note=46 velocity=64 time=0
EXTRACT: control_change channel=1 control=64 value=0 time=0.0010162604166666666
EXTRACT: control_change channel=1 control=64 value=127 time=0.0010162604166666666
EXTRACT: note_on channel=1 note=61 velocity=0 time=0.22865859375
EXTRACT: note_on channel=1 note=70 velocity=0 time=0
EXTRACT: note_on channel=0 note=73 velocity=96 time=0.013211385416666666
EXTRACT: note_on channel=1 note=58 velocity=64 time=0
EXTRACT: note_on channel=1 note=65 velocity=64 time=0
EXTRACT: note_on channel=1 note=58 velocity=0 time=0.23069111458333333
EXTRACT: note_on channel=1 note=65 velocity=0 time=0
EXTRACT: note_on channel=1 note=61 velocity=64 time=0.013211385416666666
EXTRACT: note_on channel=1 note=70 velocity=64 time=0
EXTRACT: note_on channel=0 note=73 velocity=0 time=0.21849598958333333
EXTRACT: note_on channel=1 note=61 velocity=0 time=0.012195125
EXTRACT: note_on channel=1 note=70 velocity=0 time=0
EXTRACT: note_on channel=1 note=58 velocity=64 time=0.013211385416666666
EXTRACT: note_on channel=1 note=65 velocity=64 time=0
EXTRACT: note_on channel=1 note=34 velocity=0 time=0.19410573958333333
EXTRACT: note_on channel=1 note=46 velocity=0 time=0
EXTRACT: note_on channel=1 note=58 velocity=0 time=0.036585374999999996
EXTRACT: note_on channel=1 note=65 velocity=0 time=0
EXTRACT: note_on channel=1 note=61 velocity=64 time=0.013211385416666666
EXTRACT: note_on channel=1 note=70 velocity=64 time=0
EXTRACT: note_on channel=1 note=34 velocity=64 time=0
EXTRACT: note_on channel=1 note=46 velocity=64 time=0
EXTRACT: note_on channel=1 note=61 velocity=0 time=0.23069111458333333
EXTRACT: note_on channel=1 note=70 velocity=0 time=0
EXTRACT: note_on channel=1 note=58 velocity=64 time=0.013211385416666666
EXTRACT: note_on channel=1 note=65 velocity=64 time=0
EXTRACT: note_on channel=1 note=58 velocity=0 time=0.23069111458333333
EXTRACT: note_on channel=1 note=65 velocity=0 time=0
EXTRACT: note_on channel=1 note=61 velocity=64 time=0.013211385416666666
EXTRACT: note_on channel=1 note=70 velocity=64 time=0
EXTRACT: note_on channel=1 note=61 velocity=0 time=0.23069111458333333
EXTRACT: note_on channel=1 note=70 velocity=0 time=0
EXTRACT: note_on channel=1 note=58 velocity=64 time=0.013211385416666666
EXTRACT: note_on channel=1 note=65 velocity=64 time=0
EXTRACT: note_on channel=1 note=34 velocity=0 time=0.19410573958333333
EXTRACT: note_on channel=1 note=46 velocity=0 time=0
EXTRACT: note_on channel=1 note=58 velocity=0 time=0.036585374999999996
EXTRACT: note_on channel=1 note=65 velocity=0 time=0
EXTRACT: note_on channel=1 note=61 velocity=64 time=0.013211385416666666
EXTRACT: note_on channel=1 note=68 velocity=64 time=0
EXTRACT: note_on channel=1 note=32 velocity=64 time=0
EXTRACT: note_on channel=1 note=44 velocity=64 time=0
EXTRACT: control_change channel=1 control=64 value=0 time=0.0010162604166666666
EXTRACT: control_change channel=1 control=64 value=127 time=0.0010162604166666666
EXTRACT: note_on channel=1 note=61 velocity=0 time=0.22865859375
EXTRACT: note_on channel=1 note=68 velocity=0 time=0
EXTRACT: note_on channel=1 note=56 velocity=64 time=0.013211385416666666
EXTRACT: note_on channel=1 note=65 velocity=64 time=0
EXTRACT: note_on channel=1 note=56 velocity=0 time=0.23069111458333333
EXTRACT: note_on channel=1 note=65 velocity=0 time=0
EXTRACT: note_on channel=1 note=61 velocity=64 time=0.013211385416666666
EXTRACT: note_on channel=1 note=68 velocity=64 time=0
EXTRACT: note_on channel=1 note=61 velocity=0 time=0.23069111458333333
EXTRACT: note_on channel=1 note=68 velocity=0 time=0
EXTRACT: note_on channel=1 note=56 velocity=64 time=0.013211385416666666
EXTRACT: note_on channel=1 note=65 velocity=64 time=0
EXTRACT: note_on channel=1 note=32 velocity=0 time=0.19410573958333333
EXTRACT: note_on channel=1 note=44 velocity=0 time=0
EXTRACT: note_on channel=1 note=56 velocity=0 time=0.036585374999999996
EXTRACT: note_on channel=1 note=65 velocity=0 time=0
EXTRACT: note_on channel=0 note=77 velocity=96 time=0.013211385416666666
EXTRACT: note_on channel=1 note=61 velocity=64 time=0
EXTRACT: note_on channel=1 note=68 velocity=64 time=0
EXTRACT: note_on channel=1 note=32 velocity=64 time=0
EXTRACT: note_on channel=1 note=44 velocity=64 time=0
EXTRACT: note_on channel=1 note=61 velocity=0 time=0.23069111458333333
EXTRACT: note_on channel=1 note=68 velocity=0 time=0
EXTRACT: note_on channel=1 note=56 velocity=64 time=0.013211385416666666
EXTRACT: note_on channel=1 note=65 velocity=64 time=0
EXTRACT: note_on channel=0 note=77 velocity=0 time=0.10264230208333333
EXTRACT: note_on channel=0 note=75 velocity=96 time=0.019308947916666666
EXTRACT: note_on channel=1 note=56 velocity=0 time=0.10873986458333333
EXTRACT: note_on channel=1 note=65 velocity=0 time=0
EXTRACT: note_on channel=1 note=61 velocity=64 time=0.013211385416666666
EXTRACT: note_on channel=1 note=68 velocity=64 time=0
EXTRACT: note_on channel=0 note=75 velocity=0 time=0.22459355208333331
EXTRACT: note_on channel=1 note=61 velocity=0 time=0.0060975625
EXTRACT: note_on channel=1 note=68 velocity=0 time=0
EXTRACT: note_on channel=0 note=70 velocity=96 time=0.013211385416666666
EXTRACT: note_on channel=1 note=56 velocity=64 time=0
EXTRACT: note_on channel=1 note=65 velocity=64 time=0
EXTRACT: note_on channel=1 note=32 velocity=0 time=0.19410573958333333
EXTRACT: note_on channel=1 note=44 velocity=0 time=0
EXTRACT: note_on channel=0 note=70 velocity=0 time=0.036585374999999996
EXTRACT: note_on channel=1 note=56 velocity=0 time=0
EXTRACT: note_on channel=1 note=65 velocity=0 time=0
EXTRACT: note_on channel=1 note=61 velocity=64 time=0.013211385416666666
EXTRACT: note_on channel=1 note=68 velocity=64 time=0
EXTRACT: note_on channel=1 note=29 velocity=64 time=0
EXTRACT: note_on channel=1 note=41 velocity=64 time=0
EXTRACT: control_change channel=1 control=64 value=0 time=0.0010162604166666666
EXTRACT: control_change channel=1 control=64 value=127 time=0.0010162604166666666
EXTRACT: note_on channel=1 note=61 velocity=0 time=0.22865859375
EXTRACT: note_on channel=1 note=68 velocity=0 time=0
EXTRACT: note_on channel=0 note=73 velocity=96 time=0.013211385416666666
EXTRACT: note_on channel=1 note=56 velocity=64 time=0
EXTRACT: note_on channel=1 note=65 velocity=64 time=0
EXTRACT: note_on channel=1 note=56 velocity=0 time=0.23069111458333333
EXTRACT: note_on channel=1 note=65 velocity=0 time=0
EXTRACT: note_on channel=1 note=61 velocity=64 time=0.013211385416666666
EXTRACT: note_on channel=1 note=68 velocity=64 time=0
EXTRACT: note_on channel=0 note=73 velocity=0 time=0.21849598958333333
EXTRACT: note_on channel=1 note=61 velocity=0 time=0.012195125
EXTRACT: note_on channel=1 note=68 velocity=0 time=0
EXTRACT: note_on channel=1 note=56 velocity=64 time=0.013211385416666666
EXTRACT: note_on channel=1 note=65 velocity=64 time=0
EXTRACT: note_on channel=1 note=29 velocity=0 time=0.19410573958333333
EXTRACT: note_on channel=1 note=41 velocity=0 time=0
EXTRACT: note_on channel=1 note=56 velocity=0 time=0.036585374999999996
EXTRACT: note_on channel=1 note=65 velocity=0 time=0
EXTRACT: note_on channel=1 note=61 velocity=64 time=0.013211385416666666
EXTRACT: note_on channel=1 note=68 velocity=64 time=0
EXTRACT: note_on channel=1 note=29 velocity=64 time=0
EXTRACT: note_on channel=1 note=41 velocity=64 time=0
EXTRACT: note_on channel=1 note=61 velocity=0 time=0.23069111458333333
EXTRACT: note_on channel=1 note=68 velocity=0 time=0
EXTRACT: note_on channel=0 note=75 velocity=96 time=0.013211385416666666
EXTRACT: note_on channel=1 note=56 velocity=64 time=0
EXTRACT: note_on channel=1 note=65 velocity=64 time=0
EXTRACT: note_on channel=0 note=75 velocity=0 time=0.23069111458333333
EXTRACT: note_on channel=1 note=56 velocity=0 time=0
EXTRACT: note_on channel=1 note=65 velocity=0 time=0
EXTRACT: note_on channel=0 note=77 velocity=96 time=0.013211385416666666
EXTRACT: note_on channel=1 note=61 velocity=64 time=0
EXTRACT: note_on channel=1 note=68 velocity=64 time=0
EXTRACT: note_on channel=0 note=77 velocity=0 time=0.23069111458333333
EXTRACT: note_on channel=1 note=61 velocity=0 time=0
EXTRACT: note_on channel=1 note=68 velocity=0 time=0
EXTRACT: note_on channel=0 note=78 velocity=96 time=0.013211385416666666
EXTRACT: note_on channel=1 note=56 velocity=64 time=0
EXTRACT: note_on channel=1 note=65 velocity=64 time=0
EXTRACT: note_on channel=1 note=29 velocity=0 time=0.19410573958333333
EXTRACT: note_on channel=1 note=41 velocity=0 time=0
EXTRACT: note_on channel=0 note=78 velocity=0 time=0.036585374999999996
EXTRACT: note_on channel=1 note=56 velocity=0 time=0
EXTRACT: note_on channel=1 note=65 velocity=0 time=0
EXTRACT: note_on channel=0 note=77 velocity=96 time=0
EXTRACT: note_on channel=1 note=61 velocity=64 time=0
EXTRACT: note_on channel=1 note=66 velocity=64 time=0
EXTRACT: note_on channel=1 note=30 velocity=64 time=0
EXTRACT: note_on channel=1 note=42 velocity=64 time=0
EXTRACT: control_change channel=1 control=64 value=0 time=0.0011363666666666665
EXTRACT: control_change channel=1 control=64 value=127 time=0.0011363666666666665
EXTRACT: note_on channel=1 note=61 velocity=0 time=0.2556825
EXTRACT: note_on channel=1 note=66 velocity=0 time=0
EXTRACT: note_on channel=1 note=58 velocity=64 time=0.014772766666666664
EXTRACT: note_on channel=1 note=65 velocity=64 time=0
EXTRACT: note_on channel=1 note=58 velocity=0 time=0.2579552333333333
EXTRACT: note_on channel=1 note=65 velocity=0 time=0
EXTRACT: note_on channel=1 note=61 velocity=64 time=0.014772766666666664
EXTRACT: note_on channel=1 note=66 velocity=64 time=0
EXTRACT: note_on channel=1 note=61 velocity=0 time=0.2579552333333333
EXTRACT: note_on channel=1 note=66 velocity=0 time=0
EXTRACT: note_on channel=1 note=58 velocity=64 time=0.014772766666666664
EXTRACT: note_on channel=1 note=65 velocity=64 time=0
EXTRACT: note_on channel=0 note=77 velocity=0 time=0.2170460333333333
EXTRACT: note_on channel=1 note=30 velocity=0 time=0
EXTRACT: note_on channel=1 note=42 velocity=0 time=0
EXTRACT: note_on channel=1 note=58 velocity=0 time=0.04090919999999999
EXTRACT: note_on channel=1 note=65 velocity=0 time=0
EXTRACT: note_on channel=1 note=61 velocity=64 time=0
EXTRACT: note_on channel=1 note=66 velocity=64 time=0
EXTRACT: note_on channel=1 note=30 velocity=64 time=0
EXTRACT: note_on channel=1 note=42 velocity=64 time=0
EXTRACT: note_on channel=1 note=61 velocity=0 time=0.3546884458333333
EXTRACT: note_on channel=1 note=66 velocity=0 time=0
EXTRACT: note_on channel=0 note=73 velocity=96 time=0.020312554166666663
EXTRACT: note_on channel=1 note=58 velocity=64 time=0
EXTRACT: note_on channel=1 note=65 velocity=64 time=0
EXTRACT: note_on channel=1 note=58 velocity=0 time=0.3546884458333333
EXTRACT: note_on channel=1 note=65 velocity=0 time=0
EXTRACT: note_on channel=1 note=61 velocity=64 time=0.020312554166666663
EXTRACT: note_on channel=1 note=66 velocity=64 time=0
EXTRACT: note_on channel=1 note=61 velocity=0 time=0.3546884458333333
EXTRACT: note_on channel=1 note=66 velocity=0 time=0
EXTRACT: note_on channel=1 note=58 velocity=64 time=0.020312554166666663
EXTRACT: note_on channel=1 note=65 velocity=64 time=0
EXTRACT: control_change channel=1 control=64 value=0 time=0.3765635041666666
EXTRACT: note_on channel=1 note=30 velocity=0 time=0.6343766916666667
EXTRACT: note_on channel=1 note=42 velocity=0 time=0
EXTRACT: note_on channel=1 note=58 velocity=0 time=0.05625014999999999
EXTRACT: note_on channel=1 note=65 velocity=0 time=0
EXTRACT: note_on channel=1 note=61 velocity=64 time=0.05781265416666666
EXTRACT: note_on channel=1 note=70 velocity=64 time=0
EXTRACT: note_on channel=1 note=34 velocity=64 time=0
EXTRACT: note_on channel=1 note=46 velocity=64 time=0
EXTRACT: note_on channel=0 note=73 velocity=0 time=2.042192945833333
EXTRACT: note_on channel=1 note=61 velocity=0 time=2.94375785
EXTRACT: note_on channel=1 note=70 velocity=0 time=0
EXTRACT: note_on channel=1 note=34 velocity=0 time=0
EXTRACT: note_on channel=1 note=46 velocity=0 time=0
