EXTRACT: sysex data=(126,127,9,1) time=0
EXTRACT: sysex data=(65,16,66,18,64,0,127,0,65) time=0.0005208333333333333
EXTRACT: control_change channel=0 control=11 value=127 time=0.23026317708333335
EXTRACT: control_change channel=0 control=71 value=64 time=0.0013157895833333334
EXTRACT: control_change channel=0 control=72 value=64 time=0.0013157895833333334
EXTRACT: control_change channel=0 control=73 value=64 time=0.0013157895833333334
EXTRACT: control_change channel=0 control=74 value=64 time=0.0013157895833333334
EXTRACT: control_change channel=1 control=11 value=127 time=0.015789475
EXTRACT: control_change channel=1 control=71 value=64 time=0.0013157895833333334
EXTRACT: control_change channel=1 control=72 value=64 time=0.0013157895833333334
EXTRACT: control_change channel=1 control=73 value=64 time=0.0013157895833333334
EXTRACT: control_change channel=1 control=74 value=64 time=0.0013157895833333334
EXTRACT: control_change channel=2 control=11 value=127 time=0.015789475
EXTRACT: control_change channel=2 control=71 value=64 time=0.0013157895833333334
EXTRACT: control_change channel=2 control=72 value=64 time=0.0013157895833333334
EXTRACT: control_change channel=2 control=73 value=64 time=0.0013157895833333334
EXTRACT: control_change channel=2 control=74 value=64 time=0.0013157895833333334
EXTRACT: control_change channel=3 control=11 value=127 time=0.015789475
EXTRACT: control_change channel=3 control=71 value=64 time=0.0013157895833333334
EXTRACT: control_change channel=3 control=72 value=64 time=0.0013157895833333334
EXTRACT: control_change channel=3 control=73 value=64 time=0.0013157895833333334
EXTRACT: control_change channel=3 control=74 value=64 time=0.0013157895833333334
EXTRACT: control_change channel=4 control=11 value=127 time=0.015789475
EXTRACT: control_change channel=4 control=71 value=64 time=0.0013157895833333334
EXTRACT: control_change channel=4 control=72 value=64 time=0.0013157895833333334
EXTRACT: control_change channel=4 control=73 value=64 time=0.0013157895833333334
EXTRACT: control_change channel=4 control=74 value=64 time=0.0013157895833333334
EXTRACT: control_change channel=5 control=11 value=127 time=0.015789475
EXTRACT: control_change channel=5 control=71 value=64 time=0.0013157895833333334
EXTRACT: control_change channel=5 control=72 value=64 time=0.0013157895833333334
EXTRACT: control_change channel=5 control=73 value=64 time=0.0013157895833333334
EXTRACT: control_change channel=5 control=74 value=64 time=0.0013157895833333334
EXTRACT: control_change channel=6 control=11 value=127 time=0.015789475
EXTRACT: control_change channel=6 control=71 value=64 time=0.0013157895833333334
EXTRACT: control_change channel=6 control=72 value=64 time=0.0013157895833333334
EXTRACT: control_change channel=6 control=73 value=64 time=0.0013157895833333334
EXTRACT: control_change channel=6 control=74 value=64 time=0.0013157895833333334
EXTRACT: control_change channel=7 control=11 value=127 time=0.015789475
EXTRACT: control_change channel=7 control=71 value=64 time=0.0013157895833333334
EXTRACT: control_change channel=7 control=72 value=64 time=0.0013157895833333334
EXTRACT: control_change channel=7 control=73 value=64 time=0.0013157895833333334
EXTRACT: control_change channel=7 control=74 value=64 time=0.0013157895833333334
EXTRACT: control_change channel=8 control=11 value=127 time=0.015789475
EXTRACT: control_change channel=8 control=71 value=64 time=0.0013157895833333334
EXTRACT: control_change channel=8 control=72 value=64 time=0.0013157895833333334
EXTRACT: control_change channel=8 control=73 value=64 time=0.0013157895833333334
EXTRACT: control_change channel=8 control=74 value=64 time=0.0013157895833333334
EXTRACT: control_change channel=9 control=11 value=127 time=0.015789475
EXTRACT: control_change channel=9 control=71 value=64 time=0.0013157895833333334
EXTRACT: control_change channel=9 control=72 value=64 time=0.0013157895833333334
EXTRACT: control_change channel=9 control=73 value=64 time=0.0013157895833333334
EXTRACT: control_change channel=9 control=74 value=64 time=0.0013157895833333334
EXTRACT: control_change channel=10 control=11 value=127 time=0.015789475
EXTRACT: control_change channel=10 control=71 value=64 time=0.0013157895833333334
EXTRACT: control_change channel=10 control=72 value=64 time=0.0013157895833333334
EXTRACT: control_change channel=10 control=73 value=64 time=0.0013157895833333334
EXTRACT: control_change channel=10 control=74 value=64 time=0.0013157895833333334
EXTRACT: control_change channel=11 control=11 value=127 time=0.015789475
EXTRACT: control_change channel=11 control=71 value=64 time=0.0013157895833333334
EXTRACT: control_change channel=11 control=72 value=64 time=0.0013157895833333334
EXTRACT: control_change channel=11 control=73 value=64 time=0.0013157895833333334
EXTRACT: control_change channel=11 control=74 value=64 time=0.0013157895833333334
EXTRACT: control_change channel=12 control=11 value=127 time=0.015789475
EXTRACT: control_change channel=12 control=71 value=64 time=0.0013157895833333334
EXTRACT: control_change channel=12 control=72 value=64 time=0.0013157895833333334
EXTRACT: control_change channel=12 control=73 value=64 time=0.0013157895833333334
EXTRACT: control_change channel=12 control=74 value=64 time=0.0013157895833333334
EXTRACT: control_change channel=13 control=11 value=127 time=0.015789475
EXTRACT: control_change channel=13 control=71 value=64 time=0.0013157895833333334
EXTRACT: control_change channel=13 control=72 value=64 time=0.0013157895833333334
EXTRACT: control_change channel=13 control=73 value=64 time=0.0013157895833333334
EXTRACT: control_change channel=13 control=74 value=64 time=0.0013157895833333334
EXTRACT: control_change channel=14 control=11 value=127 time=0.015789475
EXTRACT: control_change channel=14 control=71 value=64 time=0.0013157895833333334
EXTRACT: control_change channel=14 control=72 value=64 time=0.0013157895833333334
EXTRACT: control_change channel=14 control=73 value=64 time=0.0013157895833333334
EXTRACT: control_change channel=14 control=74 value=64 time=0.0013157895833333334
EXTRACT: control_change channel=0 control=94 value=0 time=0.011842106250000001
EXTRACT: control_change channel=0 control=101 value=0 time=0
EXTRACT: control_change channel=0 control=100 value=0 time=0.0006578947916666667
EXTRACT: control_change channel=0 control=6 value=2 time=0.0006578947916666667
EXTRACT: control_change channel=0 control=38 value=0 time=0.0006578947916666667
EXTRACT: control_change channel=15 control=11 value=127 time=0.001973684375
EXTRACT: control_change channel=15 control=71 value=64 time=0.0013157895833333334
EXTRACT: control_change channel=15 control=72 value=64 time=0.0013157895833333334
EXTRACT: pitchwheel channel=0 pitch=0 time=0.0013157895833333334
EXTRACT: control_change channel=15 control=73 value=64 time=0
EXTRACT: control_change channel=0 control=1 value=0 time=0.0013157895833333334
EXTRACT: control_change channel=15 control=74 value=64 time=0
EXTRACT: control_change channel=1 control=94 value=0 time=0.011842106250000001
EXTRACT: control_change channel=1 control=101 value=0 time=0
EXTRACT: control_change channel=1 control=100 value=0 time=0.0006578947916666667
EXTRACT: control_change channel=1 control=6 value=2 time=0.0006578947916666667
EXTRACT: control_change channel=1 control=38 value=0 time=0.0006578947916666667
EXTRACT: pitchwheel channel=1 pitch=0 time=0.005921053125000001
EXTRACT: control_change channel=1 control=1 value=0 time=0.0013157895833333334
EXTRACT: control_change channel=2 control=94 value=0 time=0.011842106250000001
EXTRACT: control_change channel=2 control=101 value=0 time=0
EXTRACT: control_change channel=2 control=100 value=0 time=0.0006578947916666667
EXTRACT: control_change channel=2 control=6 value=2 time=0.0006578947916666667
EXTRACT: control_change channel=2 control=38 value=0 time=0.0006578947916666667
EXTRACT: pitchwheel channel=2 pitch=0 time=0.005921053125000001
EXTRACT: control_change channel=2 control=1 value=0 time=0.0013157895833333334
EXTRACT: control_change channel=3 control=94 value=0 time=0.011842106250000001
EXTRACT: control_change channel=3 control=101 value=0 time=0
EXTRACT: control_change channel=3 control=100 value=0 time=0.0006578947916666667
EXTRACT: control_change channel=3 control=6 value=2 time=0.0006578947916666667
EXTRACT: control_change channel=3 control=38 value=0 time=0.0006578947916666667
EXTRACT: pitchwheel channel=3 pitch=0 time=0.005921053125000001
EXTRACT: control_change channel=3 control=1 value=0 time=0.0013157895833333334
EXTRACT: control_change channel=0 control=0 value=0 time=0.002631579166666667
EXTRACT: control_change channel=0 control=32 value=0 time=0.0006578947916666667
EXTRACT: program_change channel=0 program=0 time=0.0006578947916666667
EXTRACT: control_change channel=0 control=7 value=100 time=0.0006578947916666667
EXTRACT: control_change channel=0 control=10 value=64 time=0
EXTRACT: control_change channel=0 control=91 value=0 time=0
EXTRACT: control_change channel=0 control=93 value=0 time=0
EXTRACT: program_change channel=1 program=32 time=0.002631579166666667
EXTRACT: control_change channel=1 control=7 value=100 time=0.0006578947916666667
EXTRACT: control_change channel=1 control=10 value=64 time=0
EXTRACT: control_change channel=1 control=91 value=0 time=0
EXTRACT: control_change channel=1 control=93 value=0 time=0
EXTRACT: program_change channel=2 program=0 time=0.002631579166666667
EXTRACT: control_change channel=2 control=7 value=104 time=0.0006578947916666667
EXTRACT: control_change channel=2 control=10 value=64 time=0
EXTRACT: control_change channel=2 control=91 value=41 time=0
EXTRACT: control_change channel=2 control=93 value=22 time=0
EXTRACT: control_change channel=4 control=94 value=0 time=0.0006578947916666667
EXTRACT: control_change channel=4 control=101 value=0 time=0
EXTRACT: control_change channel=4 control=100 value=0 time=0.0006578947916666667
EXTRACT: control_change channel=4 control=6 value=2 time=0.0006578947916666667
EXTRACT: control_change channel=4 control=38 value=0 time=0.0006578947916666667
EXTRACT: program_change channel=3 program=65 time=0
EXTRACT: control_change channel=3 control=7 value=127 time=0.0006578947916666667
EXTRACT: control_change channel=3 control=10 value=64 time=0
EXTRACT: control_change channel=3 control=91 value=56 time=0
EXTRACT: control_change channel=3 control=93 value=15 time=0
EXTRACT: program_change channel=4 program=52 time=0.002631579166666667
EXTRACT: control_change channel=4 control=7 value=100 time=0.0006578947916666667
EXTRACT: control_change channel=4 control=10 value=58 time=0
EXTRACT: control_change channel=4 control=91 value=52 time=0
EXTRACT: control_change channel=4 control=93 value=23 time=0
EXTRACT: pitchwheel channel=4 pitch=0 time=0.001973684375
EXTRACT: program_change channel=5 program=99 time=0.0006578947916666667
EXTRACT: control_change channel=4 control=1 value=0 time=0.0006578947916666667
EXTRACT: control_change channel=5 control=7 value=47 time=0
EXTRACT: control_change channel=5 control=10 value=64 time=0
EXTRACT: control_change channel=5 control=91 value=89 time=0
EXTRACT: control_change channel=5 control=93 value=47 time=0
EXTRACT: program_change channel=6 program=39 time=0.002631579166666667
EXTRACT: control_change channel=6 control=7 value=92 time=0.0006578947916666667
EXTRACT: control_change channel=6 control=10 value=64 time=0
EXTRACT: control_change channel=6 control=91 value=60 time=0
EXTRACT: control_change channel=6 control=93 value=21 time=0
EXTRACT: program_change channel=7 program=87 time=0.002631579166666667
EXTRACT: control_change channel=7 control=7 value=100 time=0.0006578947916666667
EXTRACT: control_change channel=7 control=10 value=64 time=0
EXTRACT: control_change channel=7 control=91 value=68 time=0
EXTRACT: control_change channel=7 control=93 value=33 time=0
EXTRACT: program_change channel=8 program=90 time=0.002631579166666667
EXTRACT: control_change channel=8 control=7 value=62 time=0.0006578947916666667
EXTRACT: control_change channel=8 control=10 value=64 time=0
EXTRACT: control_change channel=8 control=91 value=55 time=0
EXTRACT: control_change channel=8 control=93 value=20 time=0
EXTRACT: control_change channel=5 control=94 value=0 time=0.001973684375
EXTRACT: program_change channel=9 program=24 time=0.0006578947916666667
EXTRACT: control_change channel=9 control=7 value=100 time=0.0006578947916666667
EXTRACT: control_change channel=9 control=10 value=64 time=0
EXTRACT: control_change channel=9 control=91 value=55 time=0
EXTRACT: control_change channel=9 control=93 value=20 time=0
EXTRACT: control_change channel=5 control=101 value=0 time=0
EXTRACT: control_change channel=5 control=100 value=0 time=0.0006578947916666667
EXTRACT: control_change channel=5 control=6 value=2 time=0.0006578947916666667
EXTRACT: control_change channel=5 control=38 value=0 time=0.0006578947916666667
EXTRACT: program_change channel=10 program=101 time=0.0006578947916666667
EXTRACT: control_change channel=10 control=7 value=100 time=0.0006578947916666667
EXTRACT: control_change channel=10 control=10 value=64 time=0
EXTRACT: control_change channel=10 control=91 value=55 time=0
EXTRACT: control_change channel=10 control=93 value=20 time=0
EXTRACT: control_change channel=11 control=0 value=0 time=0.0013157895833333334
EXTRACT: control_change channel=11 control=32 value=0 time=0.0006578947916666667
EXTRACT: program_change channel=11 program=0 time=0.0006578947916666667
EXTRACT: pitchwheel channel=5 pitch=0 time=0.0006578947916666667
EXTRACT: control_change channel=11 control=7 value=100 time=0
EXTRACT: control_change channel=11 control=10 value=64 time=0
EXTRACT: control_change channel=11 control=91 value=55 time=0
EXTRACT: control_change channel=11 control=93 value=20 time=0
EXTRACT: control_change channel=5 control=1 value=0 time=0.0013157895833333334
EXTRACT: control_change channel=12 control=0 value=0 time=0
EXTRACT: control_change channel=12 control=32 value=0 time=0.0006578947916666667
EXTRACT: program_change channel=12 program=0 time=0.0006578947916666667
EXTRACT: control_change channel=12 control=7 value=100 time=0.0006578947916666667
EXTRACT: control_change channel=12 control=10 value=64 time=0
EXTRACT: control_change channel=12 control=91 value=55 time=0
EXTRACT: control_change channel=12 control=93 value=20 time=0
EXTRACT: control_change channel=13 control=0 value=0 time=0.0013157895833333334
EXTRACT: control_change channel=13 control=32 value=0 time=0.0006578947916666667
EXTRACT: program_change channel=13 program=0 time=0.0006578947916666667
EXTRACT: control_change channel=13 control=7 value=100 time=0.0006578947916666667
EXTRACT: control_change channel=13 control=10 value=64 time=0
EXTRACT: control_change channel=13 control=91 value=55 time=0
EXTRACT: control_change channel=13 control=93 value=20 time=0
EXTRACT: control_change channel=14 control=0 value=0 time=0.0013157895833333334
EXTRACT: control_change channel=14 control=32 value=0 time=0.0006578947916666667
EXTRACT: program_change channel=14 program=0 time=0.0006578947916666667
EXTRACT: control_change channel=14 control=7 value=100 time=0.0006578947916666667
EXTRACT: control_change channel=14 control=10 value=64 time=0
EXTRACT: control_change channel=14 control=91 value=0 time=0
EXTRACT: control_change channel=14 control=93 value=0 time=0
EXTRACT: control_change channel=15 control=0 value=0 time=0.0013157895833333334
EXTRACT: control_change channel=15 control=32 value=0 time=0.0006578947916666667
EXTRACT: program_change channel=15 program=0 time=0.0006578947916666667
EXTRACT: control_change channel=6 control=94 value=0 time=0.0006578947916666667
EXTRACT: control_change channel=15 control=7 value=0 time=0
EXTRACT: control_change channel=15 control=10 value=64 time=0
EXTRACT: control_change channel=15 control=91 value=0 time=0
EXTRACT: control_change channel=15 control=93 value=0 time=0
EXTRACT: control_change channel=6 control=101 value=0 time=0
EXTRACT: control_change channel=6 control=100 value=0 time=0.0006578947916666667
EXTRACT: control_change channel=6 control=6 value=2 time=0.0006578947916666667
EXTRACT: control_change channel=6 control=38 value=0 time=0.0006578947916666667
EXTRACT: pitchwheel channel=6 pitch=0 time=0.005921053125000001
EXTRACT: control_change channel=6 control=1 value=0 time=0.0013157895833333334
EXTRACT: control_change channel=7 control=94 value=0 time=0.011842106250000001
EXTRACT: control_change channel=7 control=101 value=0 time=0
EXTRACT: control_change channel=7 control=100 value=0 time=0.0006578947916666667
EXTRACT: control_change channel=7 control=6 value=2 time=0.0006578947916666667
EXTRACT: control_change channel=7 control=38 value=0 time=0.0006578947916666667
EXTRACT: pitchwheel channel=7 pitch=0 time=0.005921053125000001
EXTRACT: control_change channel=7 control=1 value=0 time=0.0013157895833333334
EXTRACT: control_change channel=8 control=94 value=0 time=0.011842106250000001
EXTRACT: control_change channel=8 control=101 value=0 time=0
EXTRACT: control_change channel=8 control=100 value=0 time=0.0006578947916666667
EXTRACT: control_change channel=8 control=6 value=2 time=0.0006578947916666667
EXTRACT: control_change channel=8 control=38 value=0 time=0.0006578947916666667
EXTRACT: pitchwheel channel=8 pitch=0 time=0.005921053125000001
EXTRACT: control_change channel=8 control=1 value=0 time=0.0013157895833333334
EXTRACT: control_change channel=9 control=94 value=0 time=0.011842106250000001
EXTRACT: pitchwheel channel=9 pitch=0 time=0.0013157895833333334
EXTRACT: control_change channel=9 control=1 value=0 time=0.0013157895833333334
EXTRACT: control_change channel=10 control=94 value=0 time=0.018421054166666666
EXTRACT: control_change channel=10 control=101 value=0 time=0
EXTRACT: control_change channel=10 control=100 value=0 time=0.0006578947916666667
EXTRACT: control_change channel=10 control=6 value=2 time=0.0006578947916666667
EXTRACT: control_change channel=10 control=38 value=0 time=0.0006578947916666667
EXTRACT: pitchwheel channel=10 pitch=0 time=0.005921053125000001
EXTRACT: control_change channel=10 control=1 value=0 time=0.0013157895833333334
EXTRACT: control_change channel=11 control=94 value=0 time=0.011842106250000001
EXTRACT: control_change channel=11 control=101 value=0 time=0
EXTRACT: control_change channel=11 control=100 value=0 time=0.0006578947916666667
EXTRACT: control_change channel=11 control=6 value=2 time=0.0006578947916666667
EXTRACT: control_change channel=11 control=38 value=0 time=0.0006578947916666667
EXTRACT: pitchwheel channel=11 pitch=0 time=0.005921053125000001
EXTRACT: control_change channel=11 control=1 value=0 time=0.0013157895833333334
EXTRACT: control_change channel=12 control=94 value=0 time=0.011842106250000001
EXTRACT: control_change channel=12 control=101 value=0 time=0
EXTRACT: control_change channel=12 control=100 value=0 time=0.0006578947916666667
EXTRACT: control_change channel=12 control=6 value=2 time=0.0006578947916666667
EXTRACT: control_change channel=12 control=38 value=0 time=0.0006578947916666667
EXTRACT: pitchwheel channel=12 pitch=0 time=0.005921053125000001
EXTRACT: control_change channel=12 control=1 value=0 time=0.0013157895833333334
EXTRACT: control_change channel=13 control=94 value=0 time=0.011842106250000001
EXTRACT: control_change channel=13 control=101 value=0 time=0
EXTRACT: control_change channel=13 control=100 value=0 time=0.0006578947916666667
EXTRACT: control_change channel=13 control=6 value=2 time=0.0006578947916666667
EXTRACT: control_change channel=13 control=38 value=0 time=0.0006578947916666667
EXTRACT: pitchwheel channel=13 pitch=0 time=0.005921053125000001
EXTRACT: control_change channel=13 control=1 value=0 time=0.0013157895833333334
EXTRACT: control_change channel=14 control=94 value=0 time=0.011842106250000001
EXTRACT: control_change channel=14 control=101 value=0 time=0
EXTRACT: control_change channel=14 control=100 value=0 time=0.0006578947916666667
EXTRACT: control_change channel=14 control=6 value=2 time=0.0006578947916666667
EXTRACT: control_change channel=14 control=38 value=0 time=0.0006578947916666667
EXTRACT: pitchwheel channel=14 pitch=0 time=0.005921053125000001
EXTRACT: control_change channel=14 control=1 value=0 time=0.0013157895833333334
EXTRACT: control_change channel=15 control=94 value=0 time=0.011842106250000001
EXTRACT: control_change channel=15 control=101 value=0 time=0
EXTRACT: control_change channel=15 control=100 value=0 time=0.0006578947916666667
EXTRACT: control_change channel=15 control=6 value=2 time=0.0006578947916666667
EXTRACT: control_change channel=15 control=38 value=0 time=0.0006578947916666667
EXTRACT: pitchwheel channel=15 pitch=0 time=0.005921053125000001
EXTRACT: control_change channel=15 control=1 value=0 time=0.0013157895833333334
EXTRACT: note_on channel=1 note=41 velocity=99 time=1.6460527687500002
EXTRACT: note_on channel=1 note=53 velocity=127 time=0
EXTRACT: note_on channel=3 note=60 velocity=93 time=0
EXTRACT: note_on channel=9 note=42 velocity=94 time=0
EXTRACT: note_on channel=9 note=35 velocity=127 time=0
EXTRACT: note_on channel=15 note=72 velocity=1 time=0
EXTRACT: note_on channel=15 note=68 velocity=1 time=0
EXTRACT: note_on channel=15 note=65 velocity=1 time=0
EXTRACT: control_change channel=5 control=1 value=19 time=0.002631579166666667
EXTRACT: control_change channel=5 control=1 value=22 time=0.017105264583333335
EXTRACT: control_change channel=5 control=1 value=24 time=0.015789475
EXTRACT: control_change channel=5 control=1 value=26 time=0.015789475
EXTRACT: note_on channel=9 note=35 velocity=0 time=0.0078947375
EXTRACT: note_on channel=9 note=42 velocity=0 time=0.005921053125000001
EXTRACT: control_change channel=5 control=1 value=29 time=0.0006578947916666667
EXTRACT: note_on channel=3 note=60 velocity=0 time=0.002631579166666667
EXTRACT: control_change channel=5 control=1 value=31 time=0.015789475
EXTRACT: control_change channel=5 control=1 value=33 time=0.015789475
EXTRACT: control_change channel=5 control=1 value=35 time=0.015789475
EXTRACT: control_change channel=5 control=1 value=38 time=0.015131580208333334
EXTRACT: control_change channel=5 control=1 value=39 time=0.017105264583333335
EXTRACT: control_change channel=5 control=1 value=41 time=0.015131580208333334
EXTRACT: note_on channel=3 note=60 velocity=89 time=0.0006578947916666667
EXTRACT: control_change channel=5 control=1 value=43 time=0.015789475
EXTRACT: note_on channel=1 note=41 velocity=0 time=0.015789475
EXTRACT: note_on channel=1 note=53 velocity=0 time=0
EXTRACT: control_change channel=5 control=1 value=45 time=0.0006578947916666667
EXTRACT: control_change channel=5 control=1 value=47 time=0.015131580208333334
EXTRACT: control_change channel=5 control=1 value=49 time=0.015789475
EXTRACT: note_on channel=3 note=60 velocity=0 time=0.001973684375
EXTRACT: control_change channel=5 control=1 value=50 time=0.015131580208333334
EXTRACT: control_change channel=5 control=1 value=51 time=0.015789475
EXTRACT: control_change channel=5 control=1 value=52 time=0.030921055208333336
EXTRACT: note_on channel=1 note=41 velocity=96 time=0.025000002083333334
EXTRACT: note_on channel=1 note=53 velocity=124 time=0
EXTRACT: note_on channel=3 note=60 velocity=85 time=0
EXTRACT: note_on channel=9 note=42 velocity=50 time=0
EXTRACT: control_change channel=5 control=1 value=51 time=0.007236842708333333
EXTRACT: control_change channel=5 control=1 value=50 time=0.049342109375000005
EXTRACT: note_on channel=9 note=42 velocity=0 time=0.0006578947916666667
EXTRACT: note_on channel=3 note=60 velocity=0 time=0.009210527083333333
EXTRACT: control_change channel=5 control=1 value=49 time=0.02236842291666667
EXTRACT: control_change channel=5 control=1 value=48 time=0.03157895
EXTRACT: control_change channel=5 control=1 value=47 time=0.016447369791666666
EXTRACT: control_change channel=5 control=1 value=46 time=0.014473685416666666
EXTRACT: note_on channel=3 note=60 velocity=103 time=0.012500001041666667
EXTRACT: control_change channel=5 control=1 value=45 time=0.021052633333333334
EXTRACT: control_change channel=5 control=1 value=44 time=0.03157895
EXTRACT: note_on channel=3 note=60 velocity=0 time=0.012500001041666667
EXTRACT: control_change channel=5 control=1 value=43 time=0.002631579166666667
EXTRACT: control_change channel=5 control=1 value=42 time=0.03223684479166667
EXTRACT: note_on channel=1 note=53 velocity=0 time=0.00394736875
EXTRACT: note_on channel=1 note=41 velocity=0 time=0
EXTRACT: control_change channel=5 control=1 value=41 time=0.045394740625
EXTRACT: note_on channel=3 note=58 velocity=96 time=0.002631579166666667
EXTRACT: note_on channel=9 note=42 velocity=88 time=0
EXTRACT: note_on channel=9 note=85 velocity=114 time=0
EXTRACT: note_on channel=9 note=31 velocity=122 time=0
EXTRACT: note_on channel=9 note=37 velocity=122 time=0
EXTRACT: note_on channel=9 note=42 velocity=0 time=0.04605263541666667
EXTRACT: note_on channel=9 note=37 velocity=0 time=0.0078947375
EXTRACT: note_on channel=9 note=31 velocity=0 time=0
EXTRACT: note_on channel=3 note=58 velocity=0 time=0.009210527083333333
EXTRACT: note_on channel=9 note=85 velocity=0 time=0.001973684375
EXTRACT: control_change channel=5 control=1 value=40 time=0.04276316145833334
EXTRACT: control_change channel=5 control=1 value=41 time=0.047368425000000006
EXTRACT: note_on channel=3 note=58 velocity=91 time=0.008552632291666667
EXTRACT: control_change channel=5 control=1 value=42 time=0.056578952083333335
EXTRACT: note_on channel=3 note=58 velocity=0 time=0.00394736875
EXTRACT: note_on channel=3 note=58 velocity=91 time=0.09144737604166667
EXTRACT: note_on channel=9 note=42 velocity=26 time=0
EXTRACT: control_change channel=5 control=1 value=41 time=0.05000000416666667
EXTRACT: note_on channel=9 note=42 velocity=0 time=0.011184211458333334
EXTRACT: note_on channel=3 note=58 velocity=0 time=0.0013157895833333334
EXTRACT: control_change channel=5 control=1 value=39 time=0.019078948958333335
EXTRACT: control_change channel=5 control=1 value=38 time=0.015131580208333334
EXTRACT: control_change channel=5 control=1 value=37 time=0.015789475
EXTRACT: control_change channel=5 control=1 value=36 time=0.016447369791666666
EXTRACT: control_change channel=5 control=1 value=35 time=0.016447369791666666
EXTRACT: control_change channel=5 control=1 value=34 time=0.017105264583333335
EXTRACT: note_on channel=1 note=53 velocity=114 time=0.011184211458333334
EXTRACT: note_on channel=1 note=41 velocity=86 time=0
EXTRACT: note_on channel=9 note=35 velocity=127 time=0
EXTRACT: control_change channel=5 control=1 value=32 time=0.0032894739583333335
EXTRACT: control_change channel=5 control=1 value=31 time=0.016447369791666666
EXTRACT: control_change channel=5 control=1 value=29 time=0.015789475
EXTRACT: control_change channel=5 control=1 value=27 time=0.015789475
EXTRACT: note_on channel=9 note=35 velocity=0 time=0.005921053125000001
EXTRACT: control_change channel=5 control=1 value=25 time=0.011184211458333334
EXTRACT: control_change channel=5 control=1 value=22 time=0.015131580208333334
EXTRACT: control_change channel=5 control=1 value=18 time=0.015789475
EXTRACT: control_change channel=5 control=1 value=14 time=0.016447369791666666
EXTRACT: control_change channel=5 control=1 value=10 time=0.015789475
EXTRACT: note_on channel=1 note=53 velocity=0 time=0.008552632291666667
EXTRACT: note_on channel=1 note=41 velocity=0 time=0
EXTRACT: note_on channel=1 note=48 velocity=107 time=0.001973684375
EXTRACT: note_on channel=1 note=36 velocity=79 time=0
EXTRACT: note_on channel=3 note=56 velocity=101 time=0
EXTRACT: note_on channel=9 note=42 velocity=88 time=0
EXTRACT: control_change channel=5 control=1 value=6 time=0.005263158333333334
EXTRACT: control_change channel=5 control=1 value=2 time=0.016447369791666666
EXTRACT: control_change channel=5 control=1 value=0 time=0.015789475
EXTRACT: note_on channel=9 note=42 velocity=0 time=0.016447369791666666
EXTRACT: note_on channel=3 note=56 velocity=0 time=0.06776316354166667
EXTRACT: note_on channel=1 note=48 velocity=0 time=0.05000000416666667
EXTRACT: note_on channel=1 note=36 velocity=0 time=0
EXTRACT: note_on channel=1 note=48 velocity=96 time=0.144078959375
EXTRACT: note_on channel=1 note=36 velocity=68 time=0
EXTRACT: note_on channel=3 note=53 velocity=116 time=0
EXTRACT: note_on channel=9 note=35 velocity=127 time=0
EXTRACT: note_on channel=9 note=42 velocity=46 time=0
EXTRACT: note_on channel=9 note=42 velocity=0 time=0.04342105625
EXTRACT: note_on channel=9 note=35 velocity=0 time=0.013815790625000001
EXTRACT: note_on channel=3 note=53 velocity=0 time=0.008552632291666667
EXTRACT: note_on channel=3 note=53 velocity=119 time=0.09802632395833334
EXTRACT: note_on channel=3 note=53 velocity=0 time=0.047368425000000006
EXTRACT: note_on channel=1 note=36 velocity=0 time=0.07500000625
EXTRACT: note_on channel=1 note=48 velocity=0 time=0
EXTRACT: note_on channel=3 note=53 velocity=114 time=0.029605265625000002
EXTRACT: note_on channel=9 note=37 velocity=124 time=0
EXTRACT: note_on channel=9 note=85 velocity=116 time=0
EXTRACT: note_on channel=9 note=42 velocity=98 time=0
EXTRACT: note_on channel=9 note=31 velocity=119 time=0
EXTRACT: note_on channel=9 note=31 velocity=0 time=0.051315793750000005
EXTRACT: note_on channel=9 note=42 velocity=0 time=0
EXTRACT: note_on channel=9 note=37 velocity=0 time=0.005921053125000001
EXTRACT: note_on channel=9 note=85 velocity=0 time=0.00394736875
EXTRACT: note_on channel=3 note=53 velocity=0 time=0.0046052635416666664
EXTRACT: note_on channel=3 note=53 velocity=105 time=0.09802632395833334
EXTRACT: note_on channel=3 note=53 velocity=0 time=0.088815796875
EXTRACT: note_on channel=3 note=56 velocity=119 time=0.0631579
EXTRACT: note_on channel=9 note=42 velocity=26 time=0
EXTRACT: note_on channel=9 note=42 velocity=0 time=0.05394737291666667
EXTRACT: note_on channel=3 note=56 velocity=0 time=0.014473685416666666
EXTRACT: note_on channel=3 note=58 velocity=116 time=0.09539474479166667
EXTRACT: note_on channel=9 note=31 velocity=109 time=0.009868421875
EXTRACT: note_on channel=9 note=85 velocity=93 time=0
EXTRACT: note_on channel=3 note=58 velocity=0 time=0.049342109375000005
EXTRACT: note_on channel=9 note=31 velocity=0 time=0.0078947375
EXTRACT: note_on channel=9 note=85 velocity=0 time=0.0078947375
EXTRACT: note_on channel=15 note=65 velocity=0 time=0.07697369062500001
EXTRACT: note_on channel=15 note=68 velocity=0 time=0
EXTRACT: note_on channel=15 note=72 velocity=0 time=0
EXTRACT: note_on channel=1 note=49 velocity=109 time=0
EXTRACT: note_on channel=1 note=37 velocity=81 time=0
EXTRACT: note_on channel=3 note=60 velocity=109 time=0
EXTRACT: note_on channel=9 note=42 velocity=94 time=0
EXTRACT: note_on channel=9 note=35 velocity=127 time=0
EXTRACT: note_on channel=15 note=61 velocity=1 time=0
EXTRACT: note_on channel=15 note=68 velocity=1 time=0
EXTRACT: note_on channel=15 note=65 velocity=1 time=0
EXTRACT: note_on channel=9 note=35 velocity=0 time=0.06513158437500001
EXTRACT: note_on channel=9 note=42 velocity=0 time=0
EXTRACT: note_on channel=3 note=60 velocity=0 time=0.09407895520833334
EXTRACT: note_on channel=1 note=49 velocity=0 time=0.021710528125
EXTRACT: note_on channel=1 note=37 velocity=0 time=0
EXTRACT: note_on channel=1 note=37 velocity=77 time=0.13486843229166667
EXTRACT: note_on channel=1 note=49 velocity=105 time=0
EXTRACT: note_on channel=3 note=60 velocity=96 time=0
EXTRACT: note_on channel=9 note=42 velocity=50 time=0
EXTRACT: note_on channel=9 note=42 velocity=0 time=0.057236846875000004
EXTRACT: note_on channel=3 note=60 velocity=0 time=0.015131580208333334
EXTRACT: note_on channel=3 note=60 velocity=107 time=0.09144737604166667
EXTRACT: note_on channel=3 note=60 velocity=0 time=0.07631579583333334
EXTRACT: note_on channel=1 note=49 velocity=0 time=0.03684210833333333
EXTRACT: note_on channel=1 note=37 velocity=0 time=0
EXTRACT: note_on channel=3 note=58 velocity=101 time=0.03881579270833334
EXTRACT: note_on channel=9 note=37 velocity=124 time=0
EXTRACT: note_on channel=9 note=85 velocity=116 time=0
EXTRACT: note_on channel=9 note=31 velocity=122 time=0
EXTRACT: note_on channel=9 note=42 velocity=88 time=0
EXTRACT: note_on channel=9 note=42 velocity=0 time=0.04605263541666667
EXTRACT: note_on channel=9 note=37 velocity=0 time=0.008552632291666667
EXTRACT: note_on channel=9 note=31 velocity=0 time=0.0006578947916666667
EXTRACT: note_on channel=9 note=85 velocity=0 time=0.0013157895833333334
EXTRACT: note_on channel=3 note=58 velocity=0 time=0.010526316666666667
EXTRACT: note_on channel=3 note=58 velocity=91 time=0.24868423125
EXTRACT: note_on channel=9 note=42 velocity=26 time=0
EXTRACT: note_on channel=9 note=42 velocity=0 time=0.061184215625
EXTRACT: note_on channel=3 note=58 velocity=0 time=0.028947370833333333
EXTRACT: note_on channel=1 note=37 velocity=84 time=0.08355263854166667
EXTRACT: note_on channel=1 note=49 velocity=112 time=0
EXTRACT: note_on channel=9 note=35 velocity=127 time=0
EXTRACT: note_on channel=9 note=35 velocity=0 time=0.054605267708333335
EXTRACT: note_on channel=1 note=37 velocity=0 time=0.006578947916666667
EXTRACT: note_on channel=1 note=49 velocity=0 time=0
EXTRACT: note_on channel=15 note=65 velocity=0 time=0.080921059375
EXTRACT: note_on channel=15 note=61 velocity=0 time=0
EXTRACT: note_on channel=15 note=68 velocity=0 time=0
EXTRACT: note_on channel=1 note=39 velocity=79 time=0
EXTRACT: note_on channel=1 note=51 velocity=107 time=0
EXTRACT: note_on channel=3 note=56 velocity=119 time=0
EXTRACT: note_on channel=9 note=42 velocity=88 time=0
EXTRACT: note_on channel=15 note=70 velocity=1 time=0
EXTRACT: note_on channel=15 note=63 velocity=1 time=0
EXTRACT: note_on channel=15 note=67 velocity=1 time=0
EXTRACT: note_on channel=9 note=42 velocity=0 time=0.05394737291666667
EXTRACT: note_on channel=3 note=56 velocity=0 time=0.13157895833333333
EXTRACT: note_on channel=1 note=39 velocity=0 time=0.03223684479166667
EXTRACT: note_on channel=1 note=51 velocity=0 time=0
EXTRACT: note_on channel=3 note=53 velocity=119 time=0.07697369062500001
EXTRACT: note_on channel=1 note=39 velocity=77 time=0.021052633333333334
EXTRACT: note_on channel=1 note=51 velocity=105 time=0
EXTRACT: note_on channel=9 note=35 velocity=127 time=0
EXTRACT: note_on channel=9 note=42 velocity=46 time=0
EXTRACT: note_on channel=3 note=53 velocity=0 time=0.03486842395833333
EXTRACT: note_on channel=9 note=42 velocity=0 time=0.008552632291666667
EXTRACT: note_on channel=9 note=35 velocity=0 time=0.016447369791666666
EXTRACT: note_on channel=3 note=53 velocity=116 time=0.08618421770833334
EXTRACT: note_on channel=3 note=53 velocity=0 time=0.06842105833333334
EXTRACT: note_on channel=1 note=51 velocity=0 time=0.04407895104166667
EXTRACT: note_on channel=1 note=39 velocity=0 time=0
EXTRACT: note_on channel=9 note=85 velocity=116 time=0.057236846875000004
EXTRACT: note_on channel=9 note=31 velocity=127 time=0
EXTRACT: note_on channel=9 note=37 velocity=124 time=0
EXTRACT: note_on channel=9 note=42 velocity=98 time=0
EXTRACT: note_on channel=9 note=42 velocity=0 time=0.051315793750000005
EXTRACT: note_on channel=9 note=85 velocity=0 time=0.005263158333333334
EXTRACT: note_on channel=9 note=31 velocity=0 time=0.0006578947916666667
EXTRACT: note_on channel=9 note=37 velocity=0 time=0.0013157895833333334
EXTRACT: note_on channel=3 note=53 velocity=109 time=0.10526316666666667
EXTRACT: note_on channel=3 note=53 velocity=0 time=0.07697369062500001
EXTRACT: note_on channel=1 note=39 velocity=94 time=0.07500000625
EXTRACT: note_on channel=1 note=51 velocity=122 time=0
EXTRACT: note_on channel=3 note=56 velocity=101 time=0
EXTRACT: note_on channel=5 note=60 velocity=116 time=0
EXTRACT: note_on channel=9 note=42 velocity=26 time=0
EXTRACT: note_on channel=9 note=35 velocity=127 time=0
EXTRACT: note_on channel=3 note=56 velocity=0 time=0.04802631979166667
EXTRACT: note_on channel=9 note=42 velocity=0 time=0.005921053125000001
EXTRACT: note_on channel=9 note=35 velocity=0 time=0.0078947375
EXTRACT: note_on channel=3 note=58 velocity=114 time=0.10197369270833334
EXTRACT: note_on channel=9 note=31 velocity=119 time=0.009868421875
EXTRACT: note_on channel=9 note=85 velocity=116 time=0
EXTRACT: note_on channel=9 note=85 velocity=0 time=0.047368425000000006
EXTRACT: control_change channel=5 control=1 value=1 time=0.001973684375
EXTRACT: note_on channel=9 note=31 velocity=0 time=0.008552632291666667
EXTRACT: note_on channel=3 note=58 velocity=0 time=0.006578947916666667
EXTRACT: control_change channel=5 control=1 value=5 time=0
EXTRACT: control_change channel=5 control=1 value=8 time=0.016447369791666666
EXTRACT: note_on channel=1 note=51 velocity=0 time=0.0046052635416666664
EXTRACT: note_on channel=1 note=39 velocity=0 time=0
EXTRACT: control_change channel=5 control=1 value=11 time=0.011184211458333334
EXTRACT: control_change channel=5 control=1 value=14 time=0.017105264583333335
EXTRACT: control_change channel=5 control=1 value=17 time=0.015789475
EXTRACT: note_on channel=15 note=67 velocity=0 time=0.012500001041666667
EXTRACT: note_on channel=15 note=70 velocity=0 time=0
EXTRACT: note_on channel=15 note=63 velocity=0 time=0
EXTRACT: note_on channel=1 note=53 velocity=127 time=0
EXTRACT: note_on channel=1 note=41 velocity=99 time=0
EXTRACT: note_on channel=3 note=60 velocity=94 time=0
EXTRACT: note_on channel=9 note=35 velocity=127 time=0
EXTRACT: note_on channel=9 note=42 velocity=94 time=0
EXTRACT: note_on channel=15 note=72 velocity=1 time=0
EXTRACT: note_on channel=15 note=68 velocity=1 time=0
EXTRACT: note_on channel=15 note=65 velocity=1 time=0
EXTRACT: control_change channel=5 control=1 value=19 time=0.002631579166666667
EXTRACT: control_change channel=5 control=1 value=22 time=0.017105264583333335
EXTRACT: control_change channel=5 control=1 value=24 time=0.015789475
EXTRACT: control_change channel=5 control=1 value=26 time=0.015789475
EXTRACT: note_on channel=9 note=35 velocity=0 time=0.0078947375
EXTRACT: note_on channel=9 note=42 velocity=0 time=0.005921053125000001
EXTRACT: control_change channel=5 control=1 value=29 time=0.0006578947916666667
EXTRACT: control_change channel=5 control=1 value=31 time=0.018421054166666666
EXTRACT: control_change channel=5 control=1 value=33 time=0.015789475
EXTRACT: control_change channel=5 control=1 value=35 time=0.015789475
EXTRACT: control_change channel=5 control=1 value=38 time=0.015131580208333334
EXTRACT: control_change channel=5 control=1 value=39 time=0.017105264583333335
EXTRACT: note_on channel=3 note=60 velocity=0 time=0.009210527083333333
EXTRACT: control_change channel=5 control=1 value=41 time=0.005921053125000001
EXTRACT: control_change channel=5 control=1 value=43 time=0.016447369791666666
EXTRACT: note_on channel=1 note=41 velocity=0 time=0.015789475
EXTRACT: note_on channel=1 note=53 velocity=0 time=0
EXTRACT: control_change channel=5 control=1 value=45 time=0.0006578947916666667
EXTRACT: control_change channel=5 control=1 value=47 time=0.015131580208333334
EXTRACT: control_change channel=5 control=1 value=49 time=0.015789475
EXTRACT: control_change channel=5 control=1 value=50 time=0.017105264583333335
EXTRACT: control_change channel=5 control=1 value=51 time=0.015789475
EXTRACT: control_change channel=5 control=1 value=52 time=0.030921055208333336
EXTRACT: note_on channel=1 note=53 velocity=124 time=0.025000002083333334
EXTRACT: note_on channel=1 note=41 velocity=96 time=0
EXTRACT: note_on channel=3 note=60 velocity=84 time=0
EXTRACT: note_on channel=9 note=42 velocity=50 time=0
EXTRACT: control_change channel=5 control=1 value=51 time=0.007236842708333333
EXTRACT: control_change channel=5 control=1 value=50 time=0.049342109375000005
EXTRACT: note_on channel=9 note=42 velocity=0 time=0.0006578947916666667
EXTRACT: note_on channel=3 note=60 velocity=0 time=0.028947370833333333
EXTRACT: control_change channel=5 control=1 value=49 time=0.002631579166666667
EXTRACT: control_change channel=5 control=1 value=48 time=0.03157895
EXTRACT: control_change channel=5 control=1 value=47 time=0.016447369791666666
EXTRACT: control_change channel=5 control=1 value=46 time=0.014473685416666666
EXTRACT: note_on channel=3 note=60 velocity=87 time=0.012500001041666667
EXTRACT: control_change channel=5 control=1 value=45 time=0.021052633333333334
EXTRACT: control_change channel=5 control=1 value=44 time=0.03157895
EXTRACT: note_on channel=3 note=60 velocity=0 time=0.009210527083333333
EXTRACT: control_change channel=5 control=1 value=43 time=0.005921053125000001
EXTRACT: control_change channel=5 control=1 value=42 time=0.03223684479166667
EXTRACT: note_on channel=1 note=41 velocity=0 time=0.00394736875
EXTRACT: note_on channel=1 note=53 velocity=0 time=0
EXTRACT: control_change channel=5 control=1 value=41 time=0.045394740625
EXTRACT: note_on channel=3 note=58 velocity=101 time=0.002631579166666667
EXTRACT: note_on channel=9 note=42 velocity=88 time=0
EXTRACT: note_on channel=9 note=85 velocity=114 time=0
EXTRACT: note_on channel=9 note=31 velocity=122 time=0
EXTRACT: note_on channel=9 note=37 velocity=122 time=0
EXTRACT: note_on channel=9 note=42 velocity=0 time=0.04605263541666667
EXTRACT: note_on channel=9 note=37 velocity=0 time=0.0078947375
EXTRACT: note_on channel=9 note=31 velocity=0 time=0
EXTRACT: note_on channel=9 note=85 velocity=0 time=0.011184211458333334
EXTRACT: note_on channel=3 note=58 velocity=0 time=0.021710528125
EXTRACT: control_change channel=5 control=1 value=40 time=0.021052633333333334
EXTRACT: control_change channel=5 control=1 value=41 time=0.047368425000000006
EXTRACT: note_on channel=3 note=58 velocity=87 time=0.008552632291666667
EXTRACT: control_change channel=5 control=1 value=42 time=0.056578952083333335
EXTRACT: note_on channel=3 note=58 velocity=0 time=0.009868421875
EXTRACT: note_on channel=5 note=60 velocity=0 time=0.016447369791666666
EXTRACT: note_on channel=3 note=58 velocity=101 time=0.06907895312500001
EXTRACT: note_on channel=9 note=42 velocity=26 time=0
EXTRACT: control_change channel=5 control=1 value=41 time=0.05000000416666667
EXTRACT: note_on channel=9 note=42 velocity=0 time=0.011184211458333334
EXTRACT: control_change channel=5 control=1 value=39 time=0.02039473854166667
EXTRACT: control_change channel=5 control=1 value=38 time=0.015131580208333334
EXTRACT: note_on channel=3 note=58 velocity=0 time=0.008552632291666667
EXTRACT: control_change channel=5 control=1 value=37 time=0.007236842708333333
EXTRACT: control_change channel=5 control=1 value=36 time=0.016447369791666666
EXTRACT: control_change channel=5 control=1 value=35 time=0.016447369791666666
EXTRACT: control_change channel=5 control=1 value=34 time=0.017105264583333335
EXTRACT: note_on channel=1 note=53 velocity=114 time=0.011184211458333334
EXTRACT: note_on channel=1 note=41 velocity=86 time=0
EXTRACT: note_on channel=9 note=35 velocity=127 time=0
EXTRACT: control_change channel=5 control=1 value=32 time=0.0032894739583333335
EXTRACT: control_change channel=5 control=1 value=31 time=0.016447369791666666
EXTRACT: control_change channel=5 control=1 value=29 time=0.015789475
EXTRACT: control_change channel=5 control=1 value=27 time=0.015789475
EXTRACT: note_on channel=9 note=35 velocity=0 time=0.005921053125000001
EXTRACT: control_change channel=5 control=1 value=25 time=0.011184211458333334
EXTRACT: control_change channel=5 control=1 value=22 time=0.015131580208333334
EXTRACT: control_change channel=5 control=1 value=18 time=0.015789475
EXTRACT: control_change channel=5 control=1 value=14 time=0.016447369791666666
EXTRACT: control_change channel=5 control=1 value=10 time=0.015789475
EXTRACT: note_on channel=1 note=53 velocity=0 time=0.008552632291666667
EXTRACT: note_on channel=1 note=41 velocity=0 time=0
EXTRACT: note_on channel=1 note=48 velocity=107 time=0.001973684375
EXTRACT: note_on channel=1 note=36 velocity=79 time=0
EXTRACT: note_on channel=3 note=56 velocity=114 time=0
EXTRACT: note_on channel=9 note=42 velocity=88 time=0
EXTRACT: control_change channel=5 control=1 value=6 time=0.005263158333333334
EXTRACT: control_change channel=5 control=1 value=2 time=0.016447369791666666
EXTRACT: control_change channel=5 control=1 value=0 time=0.015789475
EXTRACT: note_on channel=9 note=42 velocity=0 time=0.016447369791666666
EXTRACT: note_on channel=3 note=56 velocity=0 time=0.088815796875
EXTRACT: note_on channel=1 note=48 velocity=0 time=0.028947370833333333
EXTRACT: note_on channel=1 note=36 velocity=0 time=0
EXTRACT: note_on channel=1 note=36 velocity=68 time=0.144078959375
EXTRACT: note_on channel=1 note=48 velocity=96 time=0
EXTRACT: note_on channel=3 note=53 velocity=114 time=0
EXTRACT: note_on channel=9 note=35 velocity=127 time=0
EXTRACT: note_on channel=9 note=42 velocity=46 time=0
EXTRACT: note_on channel=9 note=42 velocity=0 time=0.04342105625
EXTRACT: note_on channel=9 note=35 velocity=0 time=0.013815790625000001
EXTRACT: note_on channel=3 note=53 velocity=0 time=0.03157895
EXTRACT: note_on channel=1 note=36 velocity=0 time=0.19736843750000002
EXTRACT: note_on channel=1 note=48 velocity=0 time=0
EXTRACT: note_on channel=3 note=51 velocity=107 time=0.029605265625000002
EXTRACT: note_on channel=9 note=85 velocity=116 time=0
EXTRACT: note_on channel=9 note=31 velocity=119 time=0
EXTRACT: note_on channel=9 note=42 velocity=98 time=0
EXTRACT: note_on channel=9 note=37 velocity=124 time=0
EXTRACT: note_on channel=9 note=42 velocity=0 time=0.051315793750000005
EXTRACT: note_on channel=9 note=31 velocity=0 time=0
EXTRACT: note_on channel=9 note=37 velocity=0 time=0.005921053125000001
EXTRACT: note_on channel=9 note=85 velocity=0 time=0.00394736875
EXTRACT: note_on channel=3 note=51 velocity=0 time=0.002631579166666667
EXTRACT: note_on channel=3 note=53 velocity=116 time=0.10000000833333333
EXTRACT: note_on channel=3 note=53 velocity=0 time=0.0631579
EXTRACT: note_on channel=9 note=35 velocity=127 time=0.07631579583333334
EXTRACT: note_on channel=9 note=42 velocity=26 time=0.012500001041666667
EXTRACT: note_on channel=9 note=35 velocity=0 time=0.05197368854166667
EXTRACT: note_on channel=9 note=42 velocity=0 time=0.001973684375
EXTRACT: note_on channel=9 note=31 velocity=109 time=0.11973685208333334
EXTRACT: note_on channel=9 note=85 velocity=93 time=0
EXTRACT: note_on channel=9 note=31 velocity=0 time=0.057236846875000004
EXTRACT: note_on channel=9 note=85 velocity=0 time=0.0078947375
EXTRACT: note_on channel=15 note=68 velocity=0 time=0.07697369062500001
EXTRACT: note_on channel=15 note=65 velocity=0 time=0
EXTRACT: note_on channel=15 note=72 velocity=0 time=0
EXTRACT: note_on channel=1 note=25 velocity=81 time=0
EXTRACT: note_on channel=1 note=37 velocity=109 time=0
EXTRACT: note_on channel=4 note=60 velocity=98 time=0
EXTRACT: note_on channel=9 note=42 velocity=94 time=0
EXTRACT: note_on channel=15 note=61 velocity=1 time=0
EXTRACT: note_on channel=15 note=68 velocity=1 time=0
EXTRACT: note_on channel=15 note=65 velocity=1 time=0
EXTRACT: note_on channel=9 note=42 velocity=0 time=0.06513158437500001
EXTRACT: note_on channel=1 note=37 velocity=0 time=0.11578948333333333
EXTRACT: note_on channel=1 note=25 velocity=0 time=0
EXTRACT: note_on channel=1 note=37 velocity=105 time=0.13486843229166667
EXTRACT: note_on channel=1 note=25 velocity=77 time=0
EXTRACT: note_on channel=9 note=42 velocity=50 time=0
EXTRACT: note_on channel=9 note=42 velocity=0 time=0.057236846875000004
EXTRACT: note_on channel=4 note=60 velocity=0 time=0.15921053958333334
EXTRACT: note_on channel=1 note=37 velocity=0 time=0.060526320833333334
EXTRACT: note_on channel=1 note=25 velocity=0 time=0
EXTRACT: note_on channel=4 note=58 velocity=114 time=0.03881579270833334
EXTRACT: note_on channel=9 note=37 velocity=124 time=0
EXTRACT: note_on channel=9 note=85 velocity=116 time=0
EXTRACT: note_on channel=9 note=42 velocity=88 time=0
EXTRACT: note_on channel=9 note=31 velocity=122 time=0
EXTRACT: note_on channel=9 note=42 velocity=0 time=0.04605263541666667
EXTRACT: note_on channel=9 note=37 velocity=0 time=0.008552632291666667
EXTRACT: note_on channel=9 note=31 velocity=0 time=0.0006578947916666667
EXTRACT: note_on channel=9 note=85 velocity=0 time=0.0013157895833333334
EXTRACT: note_on channel=4 note=58 velocity=0 time=0.10526316666666667
EXTRACT: note_on channel=1 note=25 velocity=84 time=0.15394738125000001
EXTRACT: note_on channel=1 note=37 velocity=112 time=0
EXTRACT: note_on channel=3 note=51 velocity=119 time=0
EXTRACT: note_on channel=4 note=56 velocity=107 time=0
EXTRACT: note_on channel=9 note=42 velocity=26 time=0
EXTRACT: note_on channel=9 note=42 velocity=0 time=0.061184215625
EXTRACT: note_on channel=1 note=37 velocity=0 time=0
EXTRACT: note_on channel=1 note=25 velocity=0 time=0
EXTRACT: note_on channel=4 note=56 velocity=0 time=0.14276316979166667
EXTRACT: note_on channel=3 note=51 velocity=0 time=0.017105264583333335
EXTRACT: note_on channel=15 note=65 velocity=0 time=0.09473685000000001
EXTRACT: note_on channel=15 note=68 velocity=0 time=0
EXTRACT: note_on channel=15 note=61 velocity=0 time=0
EXTRACT: note_on channel=1 note=39 velocity=107 time=0
EXTRACT: note_on channel=1 note=27 velocity=79 time=0
EXTRACT: note_on channel=4 note=58 velocity=73 time=0
EXTRACT: note_on channel=9 note=42 velocity=88 time=0
EXTRACT: note_on channel=15 note=70 velocity=1 time=0
EXTRACT: note_on channel=15 note=63 velocity=1 time=0
EXTRACT: note_on channel=15 note=67 velocity=1 time=0
EXTRACT: note_on channel=9 note=42 velocity=0 time=0.05394737291666667
EXTRACT: pitchwheel channel=4 pitch=-1294 time=0.07171053229166667
EXTRACT: pitchwheel channel=4 pitch=-4313 time=0.015789475
EXTRACT: pitchwheel channel=4 pitch=-7073 time=0.015789475
EXTRACT: pitchwheel channel=4 pitch=-8192 time=0.015131580208333334
EXTRACT: note_on channel=1 note=27 velocity=0 time=0.045394740625
EXTRACT: note_on channel=1 note=39 velocity=0 time=0
EXTRACT: note_on channel=4 note=58 velocity=0 time=0.028947370833333333
EXTRACT: note_on channel=1 note=27 velocity=77 time=0.06907895312500001
EXTRACT: note_on channel=1 note=39 velocity=105 time=0
EXTRACT: note_on channel=3 note=53 velocity=112 time=0
EXTRACT: note_on channel=4 note=53 velocity=91 time=0
EXTRACT: note_on channel=9 note=42 velocity=46 time=0
EXTRACT: pitchwheel channel=4 pitch=0 time=0.013157895833333334
EXTRACT: note_on channel=9 note=42 velocity=0 time=0.030263160416666667
EXTRACT: note_on channel=3 note=53 velocity=0 time=0.057894741666666666
EXTRACT: note_on channel=4 note=53 velocity=0 time=0.07171053229166667
EXTRACT: note_on channel=1 note=27 velocity=0 time=0.08552632291666667
EXTRACT: note_on channel=1 note=39 velocity=0 time=0
EXTRACT: note_on channel=3 note=56 velocity=96 time=0.057236846875000004
EXTRACT: note_on channel=4 note=53 velocity=64 time=0
EXTRACT: note_on channel=9 note=37 velocity=124 time=0
EXTRACT: note_on channel=9 note=31 velocity=127 time=0
EXTRACT: note_on channel=9 note=42 velocity=98 time=0
EXTRACT: note_on channel=9 note=85 velocity=116 time=0
EXTRACT: note_on channel=9 note=42 velocity=0 time=0.051315793750000005
EXTRACT: note_on channel=9 note=85 velocity=0 time=0.005263158333333334
EXTRACT: note_on channel=9 note=31 velocity=0 time=0.0006578947916666667
EXTRACT: note_on channel=9 note=37 velocity=0 time=0.0013157895833333334
EXTRACT: note_on channel=1 note=39 velocity=122 time=0.2572368635416667
EXTRACT: note_on channel=1 note=27 velocity=94 time=0
EXTRACT: note_on channel=6 note=27 velocity=122 time=0
EXTRACT: note_on channel=6 note=15 velocity=94 time=0
EXTRACT: note_on channel=7 note=27 velocity=122 time=0
EXTRACT: note_on channel=9 note=42 velocity=26 time=0
EXTRACT: note_on channel=9 note=35 velocity=127 time=0
EXTRACT: note_on channel=9 note=42 velocity=0 time=0.05394737291666667
EXTRACT: note_on channel=9 note=35 velocity=0 time=0.0078947375
EXTRACT: note_on channel=3 note=56 velocity=0 time=0.06184211041666667
EXTRACT: note_on channel=4 note=53 velocity=0 time=0.005921053125000001
EXTRACT: note_on channel=9 note=85 velocity=116 time=0.04407895104166667
EXTRACT: note_on channel=9 note=31 velocity=119 time=0
EXTRACT: note_on channel=7 note=27 velocity=0 time=0.009210527083333333
EXTRACT: note_on channel=9 note=85 velocity=0 time=0.03815789791666667
EXTRACT: note_on channel=9 note=31 velocity=0 time=0.010526316666666667
EXTRACT: note_on channel=6 note=15 velocity=0 time=0.027631581250000002
EXTRACT: note_on channel=1 note=39 velocity=0 time=0
EXTRACT: note_on channel=6 note=27 velocity=0 time=0
EXTRACT: note_on channel=1 note=27 velocity=0 time=0
EXTRACT: note_on channel=1 note=27 velocity=99 time=0.047368425000000006
EXTRACT: note_on channel=15 note=70 velocity=0 time=0.009210527083333333
EXTRACT: note_on channel=15 note=67 velocity=0 time=0
EXTRACT: note_on channel=15 note=63 velocity=0 time=0
EXTRACT: note_on channel=1 note=39 velocity=127 time=0
EXTRACT: note_on channel=2 note=70 velocity=112 time=0
EXTRACT: note_on channel=2 note=79 velocity=105 time=0
EXTRACT: note_on channel=2 note=75 velocity=114 time=0
EXTRACT: note_on channel=3 note=53 velocity=112 time=0
EXTRACT: note_on channel=5 note=70 velocity=112 time=0
EXTRACT: note_on channel=5 note=75 velocity=114 time=0
EXTRACT: note_on channel=5 note=79 velocity=105 time=0
EXTRACT: note_on channel=6 note=27 velocity=127 time=0
EXTRACT: note_on channel=7 note=27 velocity=119 time=0
EXTRACT: note_on channel=8 note=63 velocity=84 time=0
EXTRACT: note_on channel=8 note=58 velocity=84 time=0
EXTRACT: note_on channel=8 note=67 velocity=84 time=0
EXTRACT: note_on channel=9 note=35 velocity=127 time=0
EXTRACT: note_on channel=9 note=42 velocity=110 time=0
EXTRACT: note_on channel=9 note=52 velocity=127 time=0
EXTRACT: note_on channel=15 note=72 velocity=1 time=0
EXTRACT: note_on channel=15 note=68 velocity=1 time=0
EXTRACT: note_on channel=15 note=65 velocity=1 time=0
EXTRACT: note_on channel=9 note=35 velocity=0 time=0.059210531250000004
EXTRACT: note_on channel=9 note=42 velocity=0 time=0.005921053125000001
EXTRACT: note_on channel=9 note=52 velocity=0 time=0.0032894739583333335
EXTRACT: note_on channel=1 note=27 velocity=0 time=0.11776316770833334
EXTRACT: note_on channel=5 note=79 velocity=0 time=0.0032894739583333335
EXTRACT: note_on channel=2 note=79 velocity=0 time=0
EXTRACT: note_on channel=5 note=75 velocity=0 time=0.002631579166666667
EXTRACT: note_on channel=2 note=75 velocity=0 time=0
EXTRACT: note_on channel=1 note=39 velocity=0 time=0.0032894739583333335
EXTRACT: note_on channel=6 note=27 velocity=0 time=0
EXTRACT: note_on channel=5 note=70 velocity=0 time=0.0013157895833333334
EXTRACT: note_on channel=2 note=70 velocity=0 time=0
EXTRACT: note_on channel=3 note=53 velocity=0 time=0.02039473854166667
EXTRACT: note_on channel=1 note=29 velocity=96 time=0.09868421875000001
EXTRACT: note_on channel=1 note=41 velocity=124 time=0
EXTRACT: note_on channel=2 note=80 velocity=109 time=0
EXTRACT: note_on channel=2 note=77 velocity=109 time=0
EXTRACT: note_on channel=2 note=72 velocity=103 time=0
EXTRACT: note_on channel=5 note=80 velocity=109 time=0
EXTRACT: note_on channel=5 note=77 velocity=109 time=0
EXTRACT: note_on channel=5 note=72 velocity=103 time=0
EXTRACT: note_on channel=6 note=17 velocity=96 time=0
EXTRACT: note_on channel=6 note=29 velocity=124 time=0
EXTRACT: note_on channel=7 note=29 velocity=112 time=0
EXTRACT: note_on channel=8 note=60 velocity=84 time=0
EXTRACT: note_on channel=8 note=68 velocity=84 time=0
EXTRACT: note_on channel=8 note=65 velocity=84 time=0
EXTRACT: note_on channel=9 note=42 velocity=86 time=0
EXTRACT: note_on channel=9 note=70 velocity=124 time=0
EXTRACT: note_on channel=8 note=63 velocity=0 time=0.001973684375
EXTRACT: note_on channel=8 note=67 velocity=0 time=0.006578947916666667
EXTRACT: note_on channel=8 note=58 velocity=0 time=0.011842106250000001
EXTRACT: note_on channel=7 note=27 velocity=0 time=0.002631579166666667
EXTRACT: note_on channel=9 note=70 velocity=0 time=0.023026317708333334
EXTRACT: note_on channel=9 note=42 velocity=0 time=0.011184211458333334
EXTRACT: note_on channel=2 note=72 velocity=0 time=0.050657898958333336
EXTRACT: note_on channel=5 note=72 velocity=0 time=0
EXTRACT: note_on channel=2 note=77 velocity=0 time=0.0013157895833333334
EXTRACT: note_on channel=5 note=77 velocity=0 time=0
EXTRACT: note_on channel=2 note=80 velocity=0 time=0.012500001041666667
EXTRACT: note_on channel=5 note=80 velocity=0 time=0
EXTRACT: note_on channel=7 note=29 velocity=0 time=0.13750001145833335
EXTRACT: note_on channel=6 note=17 velocity=0 time=0.008552632291666667
EXTRACT: note_on channel=6 note=29 velocity=0 time=0
EXTRACT: note_on channel=1 note=29 velocity=0 time=0
EXTRACT: note_on channel=1 note=41 velocity=0 time=0
EXTRACT: note_on channel=2 note=80 velocity=109 time=0.04802631979166667
EXTRACT: note_on channel=2 note=77 velocity=107 time=0
EXTRACT: note_on channel=2 note=72 velocity=103 time=0
EXTRACT: note_on channel=5 note=72 velocity=103 time=0
EXTRACT: note_on channel=5 note=80 velocity=109 time=0
EXTRACT: note_on channel=5 note=77 velocity=107 time=0
EXTRACT: note_on channel=9 note=42 velocity=104 time=0
EXTRACT: note_on channel=9 note=40 velocity=127 time=0
EXTRACT: note_on channel=9 note=85 velocity=114 time=0
EXTRACT: note_on channel=9 note=31 velocity=122 time=0
EXTRACT: note_on channel=9 note=39 velocity=127 time=0
EXTRACT: note_on channel=9 note=54 velocity=127 time=0
EXTRACT: note_on channel=9 note=70 velocity=124 time=0
EXTRACT: note_on channel=9 note=42 velocity=0 time=0.04605263541666667
EXTRACT: note_on channel=9 note=39 velocity=0 time=0.002631579166666667
EXTRACT: note_on channel=9 note=40 velocity=0 time=0.001973684375
EXTRACT: note_on channel=9 note=54 velocity=0 time=0.0006578947916666667
EXTRACT: note_on channel=9 note=31 velocity=0 time=0.002631579166666667
EXTRACT: note_on channel=9 note=70 velocity=0 time=0.009210527083333333
EXTRACT: note_on channel=9 note=85 velocity=0 time=0.001973684375
EXTRACT: note_on channel=2 note=77 velocity=0 time=0.03552631875
EXTRACT: note_on channel=5 note=77 velocity=0 time=0
EXTRACT: note_on channel=5 note=80 velocity=0 time=0.0046052635416666664
EXTRACT: note_on channel=2 note=80 velocity=0 time=0
EXTRACT: note_on channel=2 note=72 velocity=0 time=0.009868421875
EXTRACT: note_on channel=5 note=72 velocity=0 time=0
EXTRACT: note_on channel=1 note=27 velocity=114 time=0.20065791145833334
EXTRACT: note_on channel=1 note=39 velocity=112 time=0
EXTRACT: note_on channel=2 note=72 velocity=96 time=0
EXTRACT: note_on channel=2 note=77 velocity=101 time=0
EXTRACT: note_on channel=2 note=80 velocity=101 time=0
EXTRACT: note_on channel=3 note=51 velocity=116 time=0
EXTRACT: note_on channel=5 note=72 velocity=96 time=0
EXTRACT: note_on channel=5 note=80 velocity=101 time=0
EXTRACT: note_on channel=5 note=77 velocity=101 time=0
EXTRACT: note_on channel=6 note=15 velocity=114 time=0
EXTRACT: note_on channel=6 note=27 velocity=112 time=0
EXTRACT: note_on channel=9 note=70 velocity=119 time=0
EXTRACT: note_on channel=9 note=42 velocity=77 time=0
EXTRACT: note_on channel=9 note=70 velocity=0 time=0.05000000416666667
EXTRACT: note_on channel=9 note=42 velocity=0 time=0.011184211458333334
EXTRACT: note_on channel=3 note=51 velocity=0 time=0.00394736875
EXTRACT: note_on channel=5 note=77 velocity=0 time=0.050657898958333336
EXTRACT: note_on channel=2 note=77 velocity=0 time=0
EXTRACT: note_on channel=2 note=80 velocity=0 time=0.009868421875
EXTRACT: note_on channel=5 note=80 velocity=0 time=0
EXTRACT: note_on channel=2 note=72 velocity=0 time=0.005263158333333334
EXTRACT: note_on channel=5 note=72 velocity=0 time=0
EXTRACT: note_on channel=1 note=29 velocity=109 time=0.04276316145833334
EXTRACT: note_on channel=1 note=41 velocity=122 time=0
EXTRACT: note_on channel=6 note=17 velocity=109 time=0
EXTRACT: note_on channel=6 note=29 velocity=122 time=0
EXTRACT: note_on channel=9 note=35 velocity=127 time=0
EXTRACT: note_on channel=6 note=15 velocity=0 time=0.0032894739583333335
EXTRACT: note_on channel=1 note=27 velocity=0 time=0
EXTRACT: note_on channel=6 note=27 velocity=0 time=0.019078948958333335
EXTRACT: note_on channel=1 note=39 velocity=0 time=0
EXTRACT: note_on channel=9 note=35 velocity=0 time=0.03486842395833333
EXTRACT: note_on channel=1 note=29 velocity=0 time=0.080921059375
EXTRACT: note_on channel=6 note=17 velocity=0 time=0
EXTRACT: note_on channel=1 note=36 velocity=107 time=0.00394736875
EXTRACT: note_on channel=1 note=24 velocity=79 time=0
EXTRACT: note_on channel=2 note=72 velocity=101 time=0
EXTRACT: note_on channel=2 note=77 velocity=105 time=0
EXTRACT: note_on channel=2 note=80 velocity=107 time=0
EXTRACT: note_on channel=3 note=51 velocity=119 time=0
EXTRACT: note_on channel=5 note=72 velocity=101 time=0
EXTRACT: note_on channel=5 note=80 velocity=107 time=0
EXTRACT: note_on channel=5 note=77 velocity=105 time=0
EXTRACT: note_on channel=6 note=12 velocity=79 time=0
EXTRACT: note_on channel=6 note=24 velocity=107 time=0
EXTRACT: note_on channel=9 note=70 velocity=119 time=0
EXTRACT: note_on channel=9 note=35 velocity=124 time=0
EXTRACT: note_on channel=9 note=42 velocity=104 time=0
EXTRACT: note_on channel=6 note=29 velocity=0 time=0.005921053125000001
EXTRACT: note_on channel=1 note=41 velocity=0 time=0
EXTRACT: note_on channel=9 note=70 velocity=0 time=0.04210526666666667
EXTRACT: note_on channel=9 note=42 velocity=0 time=0.005921053125000001
EXTRACT: note_on channel=9 note=35 velocity=0 time=0.005921053125000001
EXTRACT: note_on channel=3 note=51 velocity=0 time=0.023026317708333334
EXTRACT: note_on channel=5 note=77 velocity=0 time=0.055263162500000004
EXTRACT: note_on channel=2 note=77 velocity=0 time=0
EXTRACT: note_on channel=2 note=72 velocity=0 time=0.0078947375
EXTRACT: note_on channel=5 note=72 velocity=0 time=0
EXTRACT: note_on channel=5 note=80 velocity=0 time=0.0006578947916666667
EXTRACT: note_on channel=2 note=80 velocity=0 time=0
EXTRACT: note_on channel=1 note=24 velocity=0 time=0.025000002083333334
EXTRACT: note_on channel=6 note=24 velocity=0 time=0
EXTRACT: note_on channel=6 note=12 velocity=0 time=0
EXTRACT: note_on channel=1 note=36 velocity=0 time=0
EXTRACT: note_on channel=1 note=36 velocity=96 time=0.144078959375
EXTRACT: note_on channel=1 note=24 velocity=68 time=0
EXTRACT: note_on channel=2 note=80 velocity=107 time=0
EXTRACT: note_on channel=2 note=72 velocity=96 time=0
EXTRACT: note_on channel=2 note=77 velocity=105 time=0
EXTRACT: note_on channel=3 note=53 velocity=127 time=0
EXTRACT: note_on channel=5 note=72 velocity=96 time=0
EXTRACT: note_on channel=5 note=77 velocity=105 time=0
EXTRACT: note_on channel=5 note=80 velocity=107 time=0
EXTRACT: note_on channel=6 note=12 velocity=68 time=0
EXTRACT: note_on channel=6 note=24 velocity=96 time=0
EXTRACT: note_on channel=9 note=35 velocity=127 time=0
EXTRACT: note_on channel=9 note=70 velocity=122 time=0
EXTRACT: note_on channel=9 note=46 velocity=80 time=0
EXTRACT: note_on channel=9 note=46 velocity=0 time=0.04342105625
EXTRACT: note_on channel=9 note=70 velocity=0 time=0.008552632291666667
EXTRACT: note_on channel=9 note=35 velocity=0 time=0.005263158333333334
EXTRACT: note_on channel=5 note=77 velocity=0 time=0.07171053229166667
EXTRACT: note_on channel=2 note=77 velocity=0 time=0
EXTRACT: note_on channel=2 note=72 velocity=0 time=0.0006578947916666667
EXTRACT: note_on channel=5 note=72 velocity=0 time=0
EXTRACT: note_on channel=3 note=53 velocity=0 time=0.0046052635416666664
EXTRACT: note_on channel=2 note=80 velocity=0 time=0.0032894739583333335
EXTRACT: note_on channel=5 note=80 velocity=0 time=0
EXTRACT: note_on channel=6 note=12 velocity=0 time=0.14868422291666666
EXTRACT: note_on channel=1 note=36 velocity=0 time=0
EXTRACT: note_on channel=6 note=24 velocity=0 time=0
EXTRACT: note_on channel=1 note=24 velocity=0 time=0
EXTRACT: note_on channel=2 note=80 velocity=105 time=0.029605265625000002
EXTRACT: note_on channel=2 note=77 velocity=103 time=0
EXTRACT: note_on channel=2 note=72 velocity=93 time=0
EXTRACT: note_on channel=3 note=60 velocity=107 time=0
EXTRACT: note_on channel=5 note=72 velocity=93 time=0
EXTRACT: note_on channel=5 note=80 velocity=105 time=0
EXTRACT: note_on channel=5 note=77 velocity=103 time=0
EXTRACT: note_on channel=9 note=70 velocity=116 time=0
EXTRACT: note_on channel=9 note=40 velocity=127 time=0
EXTRACT: note_on channel=9 note=85 velocity=116 time=0
EXTRACT: note_on channel=9 note=31 velocity=119 time=0
EXTRACT: note_on channel=9 note=39 velocity=127 time=0
EXTRACT: note_on channel=9 note=54 velocity=127 time=0
EXTRACT: note_on channel=9 note=42 velocity=114 time=0
EXTRACT: note_on channel=9 note=70 velocity=0 time=0.025657896875000002
EXTRACT: note_on channel=9 note=39 velocity=0 time=0.023026317708333334
EXTRACT: note_on channel=9 note=31 velocity=0 time=0.002631579166666667
EXTRACT: note_on channel=9 note=42 velocity=0 time=0
EXTRACT: note_on channel=9 note=40 velocity=0 time=0.0006578947916666667
EXTRACT: note_on channel=9 note=54 velocity=0 time=0.0046052635416666664
EXTRACT: note_on channel=9 note=85 velocity=0 time=0.0046052635416666664
EXTRACT: note_on channel=5 note=77 velocity=0 time=0.048684214583333336
EXTRACT: note_on channel=2 note=77 velocity=0 time=0
EXTRACT: note_on channel=2 note=80 velocity=0 time=0.009868421875
EXTRACT: note_on channel=5 note=80 velocity=0 time=0
EXTRACT: note_on channel=2 note=72 velocity=0 time=0.002631579166666667
EXTRACT: note_on channel=5 note=72 velocity=0 time=0
EXTRACT: note_on channel=1 note=24 velocity=114 time=0.19342106875
EXTRACT: note_on channel=1 note=36 velocity=122 time=0
EXTRACT: note_on channel=2 note=72 velocity=87 time=0
EXTRACT: note_on channel=2 note=77 velocity=96 time=0
EXTRACT: note_on channel=2 note=80 velocity=98 time=0
EXTRACT: note_on channel=5 note=72 velocity=87 time=0
EXTRACT: note_on channel=5 note=77 velocity=96 time=0
EXTRACT: note_on channel=5 note=80 velocity=98 time=0
EXTRACT: note_on channel=6 note=24 velocity=122 time=0
EXTRACT: note_on channel=6 note=12 velocity=114 time=0
EXTRACT: note_on channel=9 note=70 velocity=127 time=0
EXTRACT: note_on channel=9 note=42 velocity=78 time=0
EXTRACT: note_on channel=9 note=42 velocity=0 time=0.05394737291666667
EXTRACT: note_on channel=9 note=70 velocity=0 time=0.007236842708333333
EXTRACT: note_on channel=3 note=60 velocity=0 time=0.002631579166666667
EXTRACT: note_on channel=2 note=77 velocity=0 time=0.06776316354166667
EXTRACT: note_on channel=5 note=77 velocity=0 time=0
EXTRACT: note_on channel=5 note=80 velocity=0 time=0.006578947916666667
EXTRACT: note_on channel=2 note=80 velocity=0 time=0
EXTRACT: note_on channel=2 note=72 velocity=0 time=0.013157895833333334
EXTRACT: note_on channel=5 note=72 velocity=0 time=0
EXTRACT: note_on channel=9 note=85 velocity=93 time=0.02236842291666667
EXTRACT: note_on channel=9 note=31 velocity=109 time=0
EXTRACT: note_on channel=9 note=31 velocity=0 time=0.057236846875000004
EXTRACT: note_on channel=9 note=85 velocity=0 time=0.0078947375
EXTRACT: note_on channel=6 note=12 velocity=0 time=0.009210527083333333
EXTRACT: note_on channel=1 note=24 velocity=0 time=0
EXTRACT: note_on channel=6 note=24 velocity=0 time=0.00394736875
EXTRACT: note_on channel=1 note=36 velocity=0 time=0
EXTRACT: note_on channel=8 note=68 velocity=0 time=0.033552634375
EXTRACT: note_on channel=8 note=60 velocity=0 time=0.006578947916666667
EXTRACT: note_on channel=8 note=65 velocity=0 time=0.0013157895833333334
EXTRACT: note_on channel=15 note=72 velocity=0 time=0.02236842291666667
EXTRACT: note_on channel=15 note=68 velocity=0 time=0
EXTRACT: note_on channel=15 note=65 velocity=0 time=0
EXTRACT: note_on channel=1 note=37 velocity=109 time=0
EXTRACT: note_on channel=1 note=25 velocity=81 time=0
EXTRACT: note_on channel=2 note=80 velocity=105 time=0
EXTRACT: note_on channel=2 note=77 velocity=101 time=0
EXTRACT: note_on channel=2 note=72 velocity=96 time=0
EXTRACT: note_on channel=3 note=60 velocity=116 time=0
EXTRACT: note_on channel=5 note=72 velocity=96 time=0
EXTRACT: note_on channel=5 note=80 velocity=105 time=0
EXTRACT: note_on channel=5 note=77 velocity=101 time=0
EXTRACT: note_on channel=6 note=13 velocity=81 time=0
EXTRACT: note_on channel=6 note=25 velocity=109 time=0
EXTRACT: note_on channel=8 note=65 velocity=84 time=0
EXTRACT: note_on channel=8 note=61 velocity=84 time=0
EXTRACT: note_on channel=8 note=56 velocity=84 time=0
EXTRACT: note_on channel=9 note=70 velocity=101 time=0
EXTRACT: note_on channel=9 note=35 velocity=127 time=0
EXTRACT: note_on channel=9 note=42 velocity=110 time=0
EXTRACT: note_on channel=15 note=61 velocity=1 time=0
EXTRACT: note_on channel=15 note=68 velocity=1 time=0
EXTRACT: note_on channel=15 note=65 velocity=1 time=0
EXTRACT: note_on channel=9 note=70 velocity=0 time=0.030921055208333336
EXTRACT: note_on channel=9 note=42 velocity=0 time=0.03421052916666667
EXTRACT: note_on channel=9 note=35 velocity=0 time=0
EXTRACT: note_on channel=2 note=77 velocity=0 time=0.055263162500000004
EXTRACT: note_on channel=5 note=77 velocity=0 time=0
EXTRACT: note_on channel=5 note=80 velocity=0 time=0.017105264583333335
EXTRACT: note_on channel=2 note=80 velocity=0 time=0
EXTRACT: note_on channel=2 note=72 velocity=0 time=0.002631579166666667
EXTRACT: note_on channel=5 note=72 velocity=0 time=0
EXTRACT: note_on channel=1 note=37 velocity=0 time=0.04078947708333334
EXTRACT: note_on channel=6 note=13 velocity=0 time=0
EXTRACT: note_on channel=6 note=25 velocity=0 time=0
EXTRACT: note_on channel=1 note=25 velocity=0 time=0
EXTRACT: note_on channel=3 note=60 velocity=0 time=0.06842105833333334
EXTRACT: note_on channel=1 note=25 velocity=77 time=0.06644737395833333
EXTRACT: note_on channel=1 note=37 velocity=105 time=0
EXTRACT: note_on channel=2 note=72 velocity=89 time=0
EXTRACT: note_on channel=2 note=80 velocity=101 time=0
EXTRACT: note_on channel=2 note=77 velocity=98 time=0
EXTRACT: note_on channel=5 note=72 velocity=89 time=0
EXTRACT: note_on channel=5 note=80 velocity=101 time=0
EXTRACT: note_on channel=5 note=77 velocity=98 time=0
EXTRACT: note_on channel=6 note=13 velocity=77 time=0
EXTRACT: note_on channel=6 note=25 velocity=105 time=0
EXTRACT: note_on channel=9 note=70 velocity=124 time=0
EXTRACT: note_on channel=9 note=42 velocity=84 time=0
EXTRACT: note_on channel=9 note=42 velocity=0 time=0.057236846875000004
EXTRACT: note_on channel=9 note=70 velocity=0 time=0.0006578947916666667
EXTRACT: note_on channel=5 note=77 velocity=0 time=0.06513158437500001
EXTRACT: note_on channel=2 note=77 velocity=0 time=0
EXTRACT: note_on channel=2 note=80 velocity=0 time=0.006578947916666667
EXTRACT: note_on channel=5 note=80 velocity=0 time=0
EXTRACT: note_on channel=2 note=72 velocity=0 time=0.001973684375
EXTRACT: note_on channel=5 note=72 velocity=0 time=0
EXTRACT: note_on channel=1 note=25 velocity=0 time=0.14539474895833335
EXTRACT: note_on channel=6 note=25 velocity=0 time=0
EXTRACT: note_on channel=1 note=37 velocity=0 time=0
EXTRACT: note_on channel=6 note=13 velocity=0 time=0
EXTRACT: note_on channel=2 note=80 velocity=105 time=0.03881579270833334
EXTRACT: note_on channel=2 note=77 velocity=101 time=0
EXTRACT: note_on channel=2 note=72 velocity=96 time=0
EXTRACT: note_on channel=5 note=80 velocity=105 time=0
EXTRACT: note_on channel=5 note=77 velocity=101 time=0
EXTRACT: note_on channel=5 note=72 velocity=96 time=0
EXTRACT: note_on channel=9 note=70 velocity=103 time=0
EXTRACT: note_on channel=9 note=40 velocity=127 time=0
EXTRACT: note_on channel=9 note=85 velocity=116 time=0
EXTRACT: note_on channel=9 note=31 velocity=122 time=0
EXTRACT: note_on channel=9 note=54 velocity=124 time=0
EXTRACT: note_on channel=9 note=42 velocity=104 time=0
EXTRACT: note_on channel=9 note=39 velocity=127 time=0
EXTRACT: note_on channel=9 note=70 velocity=0 time=0.03815789791666667
EXTRACT: note_on channel=9 note=42 velocity=0 time=0.0078947375
EXTRACT: note_on channel=9 note=39 velocity=0 time=0.0006578947916666667
EXTRACT: note_on channel=9 note=54 velocity=0 time=0.007236842708333333
EXTRACT: note_on channel=9 note=31 velocity=0 time=0.0013157895833333334
EXTRACT: note_on channel=9 note=85 velocity=0 time=0.0013157895833333334
EXTRACT: note_on channel=9 note=40 velocity=0 time=0.001973684375
EXTRACT: note_on channel=2 note=77 velocity=0 time=0.05394737291666667
EXTRACT: note_on channel=5 note=77 velocity=0 time=0
EXTRACT: note_on channel=5 note=80 velocity=0 time=0.009210527083333333
EXTRACT: note_on channel=2 note=80 velocity=0 time=0
EXTRACT: note_on channel=2 note=72 velocity=0 time=0.005263158333333334
EXTRACT: note_on channel=5 note=72 velocity=0 time=0
EXTRACT: note_on channel=2 note=80 velocity=101 time=0.18881580520833335
EXTRACT: note_on channel=2 note=77 velocity=96 time=0
EXTRACT: note_on channel=2 note=72 velocity=89 time=0
EXTRACT: note_on channel=3 note=51 velocity=122 time=0
EXTRACT: note_on channel=5 note=72 velocity=89 time=0
EXTRACT: note_on channel=5 note=77 velocity=96 time=0
EXTRACT: note_on channel=5 note=80 velocity=101 time=0
EXTRACT: note_on channel=9 note=70 velocity=124 time=0
EXTRACT: note_on channel=9 note=42 velocity=83 time=0
EXTRACT: note_on channel=9 note=42 velocity=0 time=0.061184215625
EXTRACT: note_on channel=9 note=70 velocity=0 time=0.0046052635416666664
EXTRACT: note_on channel=3 note=51 velocity=0 time=0.008552632291666667
EXTRACT: note_on channel=2 note=77 velocity=0 time=0.04013158229166667
EXTRACT: note_on channel=5 note=77 velocity=0 time=0
EXTRACT: note_on channel=5 note=72 velocity=0 time=0.0006578947916666667
EXTRACT: note_on channel=2 note=72 velocity=0 time=0
EXTRACT: note_on channel=2 note=80 velocity=0 time=0.0078947375
EXTRACT: note_on channel=5 note=80 velocity=0 time=0
EXTRACT: note_on channel=1 note=25 velocity=84 time=0.050657898958333336
EXTRACT: note_on channel=1 note=37 velocity=112 time=0
EXTRACT: note_on channel=6 note=13 velocity=84 time=0
EXTRACT: note_on channel=6 note=25 velocity=112 time=0
EXTRACT: note_on channel=9 note=35 velocity=127 time=0
EXTRACT: note_on channel=9 note=35 velocity=0 time=0.054605267708333335
EXTRACT: note_on channel=1 note=37 velocity=0 time=0.006578947916666667
EXTRACT: note_on channel=6 note=25 velocity=0 time=0
EXTRACT: note_on channel=1 note=25 velocity=0 time=0
EXTRACT: note_on channel=6 note=13 velocity=0 time=0
EXTRACT: note_on channel=8 note=61 velocity=0 time=0.07697369062500001
EXTRACT: note_on channel=8 note=56 velocity=0 time=0
EXTRACT: note_on channel=8 note=65 velocity=0 time=0.00394736875
EXTRACT: note_on channel=15 note=68 velocity=0 time=0
EXTRACT: note_on channel=15 note=65 velocity=0 time=0
EXTRACT: note_on channel=15 note=61 velocity=0 time=0
EXTRACT: note_on channel=1 note=27 velocity=79 time=0
EXTRACT: note_on channel=1 note=39 velocity=107 time=0
EXTRACT: note_on channel=2 note=72 velocity=98 time=0
EXTRACT: note_on channel=2 note=77 velocity=107 time=0
EXTRACT: note_on channel=2 note=80 velocity=109 time=0
EXTRACT: note_on channel=3 note=51 velocity=119 time=0
EXTRACT: note_on channel=5 note=72 velocity=98 time=0
EXTRACT: note_on channel=5 note=80 velocity=109 time=0
EXTRACT: note_on channel=5 note=77 velocity=107 time=0
EXTRACT: note_on channel=6 note=15 velocity=79 time=0
EXTRACT: note_on channel=6 note=27 velocity=107 time=0
EXTRACT: note_on channel=8 note=58 velocity=86 time=0
EXTRACT: note_on channel=8 note=63 velocity=86 time=0
EXTRACT: note_on channel=8 note=55 velocity=86 time=0
EXTRACT: note_on channel=9 note=70 velocity=114 time=0
EXTRACT: note_on channel=9 note=35 velocity=127 time=0
EXTRACT: note_on channel=9 note=42 velocity=104 time=0
EXTRACT: note_on channel=15 note=70 velocity=1 time=0
EXTRACT: note_on channel=15 note=63 velocity=1 time=0
EXTRACT: note_on channel=15 note=67 velocity=1 time=0
EXTRACT: note_on channel=9 note=70 velocity=0 time=0.04802631979166667
EXTRACT: note_on channel=9 note=42 velocity=0 time=0.005921053125000001
EXTRACT: note_on channel=9 note=35 velocity=0 time=0
EXTRACT: note_on channel=3 note=51 velocity=0 time=0.07368421666666666
EXTRACT: note_on channel=5 note=77 velocity=0 time=0.047368425000000006
EXTRACT: note_on channel=2 note=77 velocity=0 time=0
EXTRACT: note_on channel=2 note=72 velocity=0 time=0.00394736875
EXTRACT: note_on channel=5 note=72 velocity=0 time=0
EXTRACT: note_on channel=5 note=80 velocity=0 time=0.0032894739583333335
EXTRACT: note_on channel=2 note=80 velocity=0 time=0
EXTRACT: note_on channel=6 note=27 velocity=0 time=0.03552631875
EXTRACT: note_on channel=1 note=27 velocity=0 time=0
EXTRACT: note_on channel=6 note=15 velocity=0 time=0
EXTRACT: note_on channel=1 note=39 velocity=0 time=0
EXTRACT: note_on channel=1 note=39 velocity=105 time=0.09802632395833334
EXTRACT: note_on channel=1 note=27 velocity=77 time=0
EXTRACT: note_on channel=2 note=75 velocity=112 time=0
EXTRACT: note_on channel=2 note=70 velocity=105 time=0
EXTRACT: note_on channel=2 note=79 velocity=96 time=0
EXTRACT: note_on channel=3 note=53 velocity=127 time=0
EXTRACT: note_on channel=5 note=75 velocity=112 time=0
EXTRACT: note_on channel=5 note=70 velocity=105 time=0
EXTRACT: note_on channel=5 note=79 velocity=96 time=0
EXTRACT: note_on channel=6 note=15 velocity=77 time=0
EXTRACT: note_on channel=6 note=27 velocity=105 time=0
EXTRACT: note_on channel=9 note=70 velocity=124 time=0
EXTRACT: note_on channel=9 note=35 velocity=127 time=0
EXTRACT: note_on channel=9 note=42 velocity=87 time=0
EXTRACT: note_on channel=9 note=42 velocity=0 time=0.04342105625
EXTRACT: note_on channel=9 note=35 velocity=0 time=0.016447369791666666
EXTRACT: note_on channel=9 note=70 velocity=0 time=0.00394736875
EXTRACT: note_on channel=5 note=75 velocity=0 time=0.0631579
EXTRACT: note_on channel=2 note=75 velocity=0 time=0
EXTRACT: note_on channel=2 note=79 velocity=0 time=0.010526316666666667
EXTRACT: note_on channel=5 note=79 velocity=0 time=0
EXTRACT: note_on channel=2 note=70 velocity=0 time=0.001973684375
EXTRACT: note_on channel=5 note=70 velocity=0 time=0
EXTRACT: note_on channel=3 note=53 velocity=0 time=0.001973684375
EXTRACT: note_on channel=6 note=15 velocity=0 time=0.11710527291666667
EXTRACT: note_on channel=1 note=39 velocity=0 time=0
EXTRACT: note_on channel=6 note=27 velocity=0 time=0
EXTRACT: note_on channel=1 note=27 velocity=0 time=0
EXTRACT: note_on channel=2 note=79 velocity=103 time=0.057236846875000004
EXTRACT: note_on channel=2 note=75 velocity=112 time=0
EXTRACT: note_on channel=2 note=70 velocity=105 time=0
EXTRACT: note_on channel=3 note=60 velocity=122 time=0
EXTRACT: note_on channel=5 note=79 velocity=103 time=0
EXTRACT: note_on channel=5 note=70 velocity=105 time=0
EXTRACT: note_on channel=5 note=75 velocity=112 time=0
EXTRACT: note_on channel=9 note=70 velocity=116 time=0
EXTRACT: note_on channel=9 note=40 velocity=127 time=0
EXTRACT: note_on channel=9 note=85 velocity=116 time=0
EXTRACT: note_on channel=9 note=39 velocity=127 time=0
EXTRACT: note_on channel=9 note=54 velocity=127 time=0
EXTRACT: note_on channel=9 note=46 velocity=114 time=0
EXTRACT: note_on channel=9 note=31 velocity=127 time=0
EXTRACT: note_on channel=9 note=46 velocity=0 time=0.051315793750000005
EXTRACT: note_on channel=9 note=40 velocity=0 time=0.00394736875
EXTRACT: note_on channel=9 note=70 velocity=0 time=0
EXTRACT: note_on channel=9 note=54 velocity=0 time=0.0006578947916666667
EXTRACT: note_on channel=9 note=85 velocity=0 time=0.0006578947916666667
EXTRACT: note_on channel=9 note=31 velocity=0 time=0.0006578947916666667
EXTRACT: note_on channel=9 note=39 velocity=0 time=0.0006578947916666667
EXTRACT: note_on channel=5 note=70 velocity=0 time=0.07302632187500001
EXTRACT: note_on channel=2 note=70 velocity=0 time=0
EXTRACT: note_on channel=2 note=75 velocity=0 time=0.001973684375
EXTRACT: note_on channel=5 note=75 velocity=0 time=0
EXTRACT: note_on channel=2 note=79 velocity=0 time=0.013815790625000001
EXTRACT: note_on channel=5 note=79 velocity=0 time=0
EXTRACT: note_on channel=1 note=39 velocity=122 time=0.16907896145833334
EXTRACT: note_on channel=1 note=27 velocity=94 time=0
EXTRACT: note_on channel=2 note=70 velocity=109 time=0
EXTRACT: note_on channel=2 note=79 velocity=103 time=0
EXTRACT: note_on channel=2 note=75 velocity=112 time=0
EXTRACT: note_on channel=5 note=70 velocity=109 time=0
EXTRACT: note_on channel=5 note=79 velocity=103 time=0
EXTRACT: note_on channel=5 note=75 velocity=112 time=0
EXTRACT: note_on channel=6 note=15 velocity=94 time=0
EXTRACT: note_on channel=6 note=27 velocity=122 time=0
EXTRACT: note_on channel=7 note=27 velocity=122 time=0
EXTRACT: note_on channel=9 note=70 velocity=122 time=0
EXTRACT: note_on channel=9 note=35 velocity=127 time=0
EXTRACT: note_on channel=9 note=42 velocity=81 time=0
EXTRACT: note_on channel=9 note=70 velocity=0 time=0.05000000416666667
EXTRACT: note_on channel=9 note=42 velocity=0 time=0.00394736875
EXTRACT: note_on channel=9 note=35 velocity=0 time=0.0078947375
EXTRACT: note_on channel=5 note=79 velocity=0 time=0.10197369270833334
EXTRACT: note_on channel=2 note=79 velocity=0 time=0
EXTRACT: note_on channel=2 note=70 velocity=0 time=0.0006578947916666667
EXTRACT: note_on channel=5 note=70 velocity=0 time=0
EXTRACT: note_on channel=3 note=60 velocity=0 time=0.005921053125000001
EXTRACT: note_on channel=2 note=75 velocity=0 time=0
EXTRACT: note_on channel=5 note=75 velocity=0 time=0
EXTRACT: note_on channel=9 note=31 velocity=119 time=0.0032894739583333335
EXTRACT: note_on channel=9 note=85 velocity=116 time=0
EXTRACT: note_on channel=7 note=27 velocity=0 time=0.009210527083333333
EXTRACT: note_on channel=9 note=85 velocity=0 time=0.03815789791666667
EXTRACT: note_on channel=9 note=31 velocity=0 time=0.010526316666666667
EXTRACT: note_on channel=1 note=27 velocity=0 time=0.027631581250000002
EXTRACT: note_on channel=6 note=15 velocity=0 time=0
EXTRACT: note_on channel=6 note=27 velocity=0 time=0
EXTRACT: note_on channel=1 note=39 velocity=0 time=0
EXTRACT: note_on channel=15 note=63 velocity=0 time=0.056578952083333335
EXTRACT: note_on channel=15 note=67 velocity=0 time=0
EXTRACT: note_on channel=8 note=63 velocity=0 time=0
EXTRACT: note_on channel=15 note=70 velocity=0 time=0
EXTRACT: note_on channel=1 note=39 velocity=127 time=0
EXTRACT: note_on channel=2 note=75 velocity=114 time=0
EXTRACT: note_on channel=2 note=79 velocity=105 time=0
EXTRACT: note_on channel=2 note=70 velocity=112 time=0
EXTRACT: note_on channel=3 note=58 velocity=101 time=0
EXTRACT: note_on channel=5 note=70 velocity=112 time=0
EXTRACT: note_on channel=5 note=75 velocity=114 time=0
EXTRACT: note_on channel=5 note=79 velocity=105 time=0
EXTRACT: note_on channel=6 note=27 velocity=127 time=0
EXTRACT: note_on channel=7 note=27 velocity=119 time=0
EXTRACT: note_on channel=8 note=58 velocity=84 time=0
EXTRACT: note_on channel=8 note=67 velocity=84 time=0
EXTRACT: note_on channel=8 note=63 velocity=84 time=0
EXTRACT: note_on channel=9 note=70 velocity=116 time=0
EXTRACT: note_on channel=9 note=35 velocity=127 time=0
EXTRACT: note_on channel=9 note=42 velocity=110 time=0
EXTRACT: note_on channel=15 note=72 velocity=1 time=0
EXTRACT: note_on channel=15 note=68 velocity=1 time=0
EXTRACT: note_on channel=15 note=65 velocity=1 time=0
EXTRACT: note_on channel=8 note=55 velocity=0 time=0.0006578947916666667
EXTRACT: note_on channel=8 note=58 velocity=0 time=0.010526316666666667
EXTRACT: note_on channel=9 note=70 velocity=0 time=0.030921055208333336
EXTRACT: note_on channel=9 note=35 velocity=0 time=0.017105264583333335
EXTRACT: note_on channel=9 note=42 velocity=0 time=0.005921053125000001
EXTRACT: note_on channel=3 note=56 velocity=107 time=0.09868421875000001
EXTRACT: note_on channel=3 note=58 velocity=0 time=0.008552632291666667
EXTRACT: note_on channel=5 note=79 velocity=0 time=0.017105264583333335
EXTRACT: note_on channel=2 note=79 velocity=0 time=0
EXTRACT: note_on channel=5 note=75 velocity=0 time=0.002631579166666667
EXTRACT: note_on channel=2 note=75 velocity=0 time=0
EXTRACT: note_on channel=6 note=27 velocity=0 time=0.0032894739583333335
EXTRACT: note_on channel=1 note=39 velocity=0 time=0
EXTRACT: note_on channel=5 note=70 velocity=0 time=0.0013157895833333334
EXTRACT: note_on channel=2 note=70 velocity=0 time=0
EXTRACT: note_on channel=1 note=41 velocity=124 time=0.11907895729166668
EXTRACT: note_on channel=1 note=29 velocity=96 time=0
EXTRACT: note_on channel=2 note=80 velocity=109 time=0
EXTRACT: note_on channel=2 note=77 velocity=109 time=0
EXTRACT: note_on channel=2 note=72 velocity=103 time=0
EXTRACT: note_on channel=3 note=53 velocity=94 time=0
EXTRACT: note_on channel=5 note=80 velocity=109 time=0
EXTRACT: note_on channel=5 note=72 velocity=103 time=0
EXTRACT: note_on channel=5 note=77 velocity=109 time=0
EXTRACT: note_on channel=6 note=17 velocity=96 time=0
EXTRACT: note_on channel=6 note=29 velocity=124 time=0
EXTRACT: note_on channel=7 note=29 velocity=112 time=0
EXTRACT: note_on channel=8 note=60 velocity=84 time=0
EXTRACT: note_on channel=8 note=68 velocity=84 time=0
EXTRACT: note_on channel=8 note=65 velocity=84 time=0
EXTRACT: note_on channel=9 note=70 velocity=122 time=0
EXTRACT: note_on channel=9 note=42 velocity=86 time=0
EXTRACT: note_on channel=8 note=63 velocity=0 time=0.001973684375
EXTRACT: note_on channel=8 note=67 velocity=0 time=0.006578947916666667
EXTRACT: note_on channel=8 note=58 velocity=0 time=0.011842106250000001
EXTRACT: note_on channel=7 note=27 velocity=0 time=0.002631579166666667
EXTRACT: note_on channel=3 note=56 velocity=0 time=0.026315791666666668
EXTRACT: note_on channel=9 note=70 velocity=0 time=0
EXTRACT: note_on channel=9 note=42 velocity=0 time=0.0078947375
EXTRACT: note_on channel=2 note=72 velocity=0 time=0.050657898958333336
EXTRACT: note_on channel=5 note=72 velocity=0 time=0
EXTRACT: note_on channel=5 note=77 velocity=0 time=0.0013157895833333334
EXTRACT: note_on channel=2 note=77 velocity=0 time=0
EXTRACT: note_on channel=2 note=80 velocity=0 time=0.012500001041666667
EXTRACT: note_on channel=5 note=80 velocity=0 time=0
EXTRACT: note_on channel=3 note=53 velocity=0 time=0.07368421666666666
EXTRACT: note_on channel=7 note=29 velocity=0 time=0.06381579479166667
EXTRACT: note_on channel=1 note=41 velocity=0 time=0.008552632291666667
EXTRACT: note_on channel=6 note=17 velocity=0 time=0
EXTRACT: note_on channel=6 note=29 velocity=0 time=0
EXTRACT: note_on channel=1 note=29 velocity=0 time=0
EXTRACT: note_on channel=2 note=72 velocity=103 time=0.04802631979166667
EXTRACT: note_on channel=2 note=80 velocity=109 time=0
EXTRACT: note_on channel=2 note=77 velocity=107 time=0
EXTRACT: note_on channel=3 note=51 velocity=119 time=0
EXTRACT: note_on channel=4 note=63 velocity=127 time=0
EXTRACT: note_on channel=5 note=72 velocity=103 time=0
EXTRACT: note_on channel=5 note=80 velocity=109 time=0
EXTRACT: note_on channel=5 note=77 velocity=107 time=0
EXTRACT: note_on channel=9 note=70 velocity=116 time=0
EXTRACT: note_on channel=9 note=54 velocity=124 time=0
EXTRACT: note_on channel=9 note=42 velocity=104 time=0
EXTRACT: note_on channel=9 note=40 velocity=127 time=0
EXTRACT: note_on channel=9 note=85 velocity=114 time=0
EXTRACT: note_on channel=9 note=31 velocity=122 time=0
EXTRACT: note_on channel=9 note=39 velocity=127 time=0
EXTRACT: note_on channel=9 note=42 velocity=0 time=0.04605263541666667
EXTRACT: note_on channel=9 note=70 velocity=0 time=0
EXTRACT: note_on channel=9 note=39 velocity=0 time=0.002631579166666667
EXTRACT: note_on channel=4 note=63 velocity=0 time=0.0013157895833333334
EXTRACT: note_on channel=9 note=40 velocity=0 time=0.0006578947916666667
EXTRACT: note_on channel=9 note=31 velocity=0 time=0.0032894739583333335
EXTRACT: note_on channel=9 note=54 velocity=0 time=0.006578947916666667
EXTRACT: note_on channel=9 note=85 velocity=0 time=0.0046052635416666664
EXTRACT: note_on channel=3 note=51 velocity=0 time=0.023026317708333334
EXTRACT: note_on channel=2 note=77 velocity=0 time=0.012500001041666667
EXTRACT: note_on channel=5 note=77 velocity=0 time=0
EXTRACT: note_on channel=2 note=80 velocity=0 time=0.0046052635416666664
EXTRACT: note_on channel=5 note=80 velocity=0 time=0
EXTRACT: note_on channel=2 note=72 velocity=0 time=0.009868421875
EXTRACT: note_on channel=5 note=72 velocity=0 time=0
EXTRACT: note_on channel=3 note=51 velocity=109 time=0.04276316145833334
EXTRACT: note_on channel=4 note=63 velocity=116 time=0.005921053125000001
EXTRACT: note_on channel=3 note=51 velocity=0 time=0.04605263541666667
EXTRACT: note_on channel=4 note=63 velocity=0 time=0.00394736875
EXTRACT: note_on channel=1 note=27 velocity=114 time=0.10197369270833334
EXTRACT: note_on channel=1 note=39 velocity=112 time=0
EXTRACT: note_on channel=2 note=72 velocity=96 time=0
EXTRACT: note_on channel=2 note=77 velocity=101 time=0
EXTRACT: note_on channel=2 note=80 velocity=101 time=0
EXTRACT: note_on channel=3 note=51 velocity=109 time=0
EXTRACT: note_on channel=4 note=63 velocity=119 time=0
EXTRACT: note_on channel=5 note=72 velocity=96 time=0
EXTRACT: note_on channel=5 note=80 velocity=101 time=0
EXTRACT: note_on channel=5 note=77 velocity=101 time=0
EXTRACT: note_on channel=6 note=27 velocity=112 time=0
EXTRACT: note_on channel=6 note=15 velocity=114 time=0
EXTRACT: note_on channel=9 note=70 velocity=122 time=0
EXTRACT: note_on channel=9 note=42 velocity=77 time=0
EXTRACT: note_on channel=3 note=51 velocity=0 time=0.05197368854166667
EXTRACT: note_on channel=9 note=70 velocity=0 time=0.002631579166666667
EXTRACT: note_on channel=4 note=63 velocity=0 time=0.0013157895833333334
EXTRACT: note_on channel=9 note=42 velocity=0 time=0.005263158333333334
EXTRACT: note_on channel=5 note=77 velocity=0 time=0.054605267708333335
EXTRACT: note_on channel=2 note=77 velocity=0 time=0
EXTRACT: note_on channel=2 note=80 velocity=0 time=0.009868421875
EXTRACT: note_on channel=5 note=80 velocity=0 time=0
EXTRACT: note_on channel=2 note=72 velocity=0 time=0.005263158333333334
EXTRACT: note_on channel=5 note=72 velocity=0 time=0
EXTRACT: note_on channel=3 note=51 velocity=105 time=0.03289473958333333
EXTRACT: note_on channel=4 note=63 velocity=109 time=0
EXTRACT: note_on channel=1 note=41 velocity=122 time=0.009868421875
EXTRACT: note_on channel=1 note=29 velocity=109 time=0
EXTRACT: note_on channel=6 note=17 velocity=109 time=0
EXTRACT: note_on channel=6 note=29 velocity=122 time=0
EXTRACT: note_on channel=9 note=35 velocity=127 time=0
EXTRACT: note_on channel=1 note=27 velocity=0 time=0.0032894739583333335
EXTRACT: note_on channel=6 note=15 velocity=0 time=0
EXTRACT: note_on channel=1 note=39 velocity=0 time=0.019078948958333335
EXTRACT: note_on channel=6 note=27 velocity=0 time=0
EXTRACT: note_on channel=4 note=63 velocity=0 time=0.011842106250000001
EXTRACT: note_on channel=3 note=51 velocity=0 time=0.0046052635416666664
EXTRACT: note_on channel=9 note=35 velocity=0 time=0.018421054166666666
EXTRACT: note_on channel=1 note=29 velocity=0 time=0.080921059375
EXTRACT: note_on channel=6 note=17 velocity=0 time=0
EXTRACT: note_on channel=1 note=24 velocity=79 time=0.00394736875
EXTRACT: note_on channel=1 note=36 velocity=107 time=0
EXTRACT: note_on channel=2 note=72 velocity=101 time=0
EXTRACT: note_on channel=2 note=80 velocity=107 time=0
EXTRACT: note_on channel=2 note=77 velocity=105 time=0
EXTRACT: note_on channel=3 note=51 velocity=116 time=0
EXTRACT: note_on channel=4 note=63 velocity=122 time=0
EXTRACT: note_on channel=5 note=72 velocity=101 time=0
EXTRACT: note_on channel=5 note=80 velocity=107 time=0
EXTRACT: note_on channel=5 note=77 velocity=105 time=0
EXTRACT: note_on channel=6 note=24 velocity=107 time=0
EXTRACT: note_on channel=6 note=12 velocity=79 time=0
EXTRACT: note_on channel=9 note=70 velocity=105 time=0
EXTRACT: note_on channel=9 note=35 velocity=124 time=0
EXTRACT: note_on channel=9 note=42 velocity=104 time=0
EXTRACT: note_on channel=1 note=41 velocity=0 time=0.005921053125000001
EXTRACT: note_on channel=6 note=29 velocity=0 time=0
EXTRACT: note_on channel=9 note=70 velocity=0 time=0.03421052916666667
EXTRACT: note_on channel=9 note=42 velocity=0 time=0.013815790625000001
EXTRACT: note_on channel=9 note=35 velocity=0 time=0.005921053125000001
EXTRACT: note_on channel=4 note=63 velocity=0 time=0.005263158333333334
EXTRACT: note_on channel=3 note=51 velocity=0 time=0.045394740625
EXTRACT: note_on channel=2 note=77 velocity=0 time=0.027631581250000002
EXTRACT: note_on channel=5 note=77 velocity=0 time=0
EXTRACT: note_on channel=5 note=72 velocity=0 time=0.0078947375
EXTRACT: note_on channel=2 note=72 velocity=0 time=0
EXTRACT: note_on channel=5 note=80 velocity=0 time=0.0006578947916666667
EXTRACT: note_on channel=2 note=80 velocity=0 time=0
EXTRACT: note_on channel=1 note=24 velocity=0 time=0.025000002083333334
EXTRACT: note_on channel=6 note=12 velocity=0 time=0
EXTRACT: note_on channel=6 note=24 velocity=0 time=0
EXTRACT: note_on channel=1 note=36 velocity=0 time=0
EXTRACT: note_on channel=1 note=36 velocity=96 time=0.144078959375
EXTRACT: note_on channel=1 note=24 velocity=68 time=0
EXTRACT: note_on channel=2 note=80 velocity=107 time=0
EXTRACT: note_on channel=2 note=77 velocity=105 time=0
EXTRACT: note_on channel=2 note=72 velocity=96 time=0
EXTRACT: note_on channel=3 note=53 velocity=127 time=0
EXTRACT: note_on channel=4 note=65 velocity=116 time=0
EXTRACT: note_on channel=5 note=80 velocity=107 time=0
EXTRACT: note_on channel=5 note=72 velocity=96 time=0
EXTRACT: note_on channel=5 note=77 velocity=105 time=0
EXTRACT: note_on channel=6 note=12 velocity=68 time=0
EXTRACT: note_on channel=6 note=24 velocity=96 time=0
EXTRACT: note_on channel=9 note=70 velocity=124 time=0
EXTRACT: note_on channel=9 note=35 velocity=127 time=0
EXTRACT: note_on channel=9 note=46 velocity=80 time=0
EXTRACT: note_on channel=9 note=46 velocity=0 time=0.04342105625
EXTRACT: note_on channel=9 note=35 velocity=0 time=0.013815790625000001
EXTRACT: note_on channel=9 note=70 velocity=0 time=0.001973684375
EXTRACT: note_on channel=4 note=65 velocity=0 time=0.011184211458333334
EXTRACT: note_on channel=5 note=77 velocity=0 time=0.058552636458333335
EXTRACT: note_on channel=2 note=77 velocity=0 time=0
EXTRACT: note_on channel=2 note=72 velocity=0 time=0.0006578947916666667
EXTRACT: note_on channel=5 note=72 velocity=0 time=0
EXTRACT: note_on channel=2 note=80 velocity=0 time=0.0078947375
EXTRACT: note_on channel=5 note=80 velocity=0 time=0
EXTRACT: note_on channel=3 note=53 velocity=0 time=0.021052633333333334
EXTRACT: note_on channel=6 note=12 velocity=0 time=0.12763158958333334
EXTRACT: note_on channel=1 note=36 velocity=0 time=0
EXTRACT: note_on channel=6 note=24 velocity=0 time=0
EXTRACT: note_on channel=1 note=24 velocity=0 time=0
EXTRACT: note_on channel=2 note=80 velocity=105 time=0.029605265625000002
EXTRACT: note_on channel=2 note=77 velocity=103 time=0
EXTRACT: note_on channel=2 note=72 velocity=93 time=0
EXTRACT: note_on channel=5 note=80 velocity=105 time=0
EXTRACT: note_on channel=5 note=77 velocity=103 time=0
EXTRACT: note_on channel=5 note=72 velocity=93 time=0
EXTRACT: note_on channel=9 note=70 velocity=114 time=0
EXTRACT: note_on channel=9 note=54 velocity=122 time=0
EXTRACT: note_on channel=9 note=40 velocity=127 time=0
EXTRACT: note_on channel=9 note=85 velocity=116 time=0
EXTRACT: note_on channel=9 note=39 velocity=127 time=0
EXTRACT: note_on channel=9 note=42 velocity=114 time=0
EXTRACT: note_on channel=9 note=31 velocity=119 time=0
EXTRACT: note_on channel=9 note=70 velocity=0 time=0.04473684583333334
EXTRACT: note_on channel=9 note=39 velocity=0 time=0.00394736875
EXTRACT: note_on channel=9 note=31 velocity=0 time=0.002631579166666667
EXTRACT: note_on channel=9 note=42 velocity=0 time=0
EXTRACT: note_on channel=9 note=40 velocity=0 time=0.0006578947916666667
EXTRACT: note_on channel=9 note=85 velocity=0 time=0.009210527083333333
EXTRACT: note_on channel=9 note=54 velocity=0 time=0
EXTRACT: note_on channel=2 note=77 velocity=0 time=0.048684214583333336
EXTRACT: note_on channel=5 note=77 velocity=0 time=0
EXTRACT: note_on channel=5 note=80 velocity=0 time=0.009868421875
EXTRACT: note_on channel=2 note=80 velocity=0 time=0
EXTRACT: note_on channel=2 note=72 velocity=0 time=0.002631579166666667
EXTRACT: note_on channel=5 note=72 velocity=0 time=0
EXTRACT: note_on channel=3 note=53 velocity=127 time=0.041447371875
EXTRACT: note_on channel=4 note=65 velocity=119 time=0
EXTRACT: note_on channel=4 note=65 velocity=0 time=0.13750001145833335
EXTRACT: note_on channel=1 note=24 velocity=114 time=0.014473685416666666
EXTRACT: note_on channel=1 note=36 velocity=122 time=0
EXTRACT: note_on channel=2 note=77 velocity=96 time=0
EXTRACT: note_on channel=2 note=80 velocity=98 time=0
EXTRACT: note_on channel=2 note=72 velocity=87 time=0
EXTRACT: note_on channel=5 note=72 velocity=87 time=0
EXTRACT: note_on channel=5 note=77 velocity=96 time=0
EXTRACT: note_on channel=5 note=80 velocity=98 time=0
EXTRACT: note_on channel=6 note=12 velocity=114 time=0
EXTRACT: note_on channel=6 note=24 velocity=122 time=0
EXTRACT: note_on channel=9 note=70 velocity=122 time=0
EXTRACT: note_on channel=9 note=42 velocity=78 time=0
EXTRACT: note_on channel=9 note=42 velocity=0 time=0.05394737291666667
EXTRACT: note_on channel=9 note=70 velocity=0 time=0.005921053125000001
EXTRACT: note_on channel=5 note=77 velocity=0 time=0.07171053229166667
EXTRACT: note_on channel=2 note=77 velocity=0 time=0
EXTRACT: note_on channel=2 note=80 velocity=0 time=0.006578947916666667
EXTRACT: note_on channel=5 note=80 velocity=0 time=0
EXTRACT: note_on channel=2 note=72 velocity=0 time=0.013157895833333334
EXTRACT: note_on channel=5 note=72 velocity=0 time=0
EXTRACT: note_on channel=9 note=31 velocity=109 time=0.02236842291666667
EXTRACT: note_on channel=9 note=85 velocity=93 time=0
EXTRACT: note_on channel=9 note=31 velocity=0 time=0.057236846875000004
EXTRACT: note_on channel=9 note=85 velocity=0 time=0.0078947375
EXTRACT: note_on channel=3 note=53 velocity=0 time=0
EXTRACT: note_on channel=6 note=12 velocity=0 time=0.009210527083333333
EXTRACT: note_on channel=1 note=24 velocity=0 time=0
EXTRACT: note_on channel=6 note=24 velocity=0 time=0.00394736875
EXTRACT: note_on channel=1 note=36 velocity=0 time=0
EXTRACT: note_on channel=8 note=68 velocity=0 time=0.033552634375
EXTRACT: note_on channel=8 note=60 velocity=0 time=0.006578947916666667
EXTRACT: note_on channel=8 note=65 velocity=0 time=0.0013157895833333334
EXTRACT: note_on channel=15 note=68 velocity=0 time=0.02236842291666667
EXTRACT: note_on channel=15 note=65 velocity=0 time=0
EXTRACT: note_on channel=15 note=72 velocity=0 time=0
EXTRACT: note_on channel=1 note=37 velocity=109 time=0
EXTRACT: note_on channel=1 note=25 velocity=81 time=0
EXTRACT: note_on channel=2 note=72 velocity=96 time=0
EXTRACT: note_on channel=2 note=80 velocity=105 time=0
EXTRACT: note_on channel=2 note=77 velocity=101 time=0
EXTRACT: note_on channel=4 note=60 velocity=98 time=0
EXTRACT: note_on channel=5 note=72 velocity=96 time=0
EXTRACT: note_on channel=5 note=80 velocity=105 time=0
EXTRACT: note_on channel=5 note=77 velocity=101 time=0
EXTRACT: note_on channel=6 note=25 velocity=109 time=0
EXTRACT: note_on channel=6 note=13 velocity=81 time=0
EXTRACT: note_on channel=8 note=61 velocity=84 time=0
EXTRACT: note_on channel=8 note=56 velocity=84 time=0
EXTRACT: note_on channel=8 note=65 velocity=84 time=0
EXTRACT: note_on channel=9 note=70 velocity=122 time=0
EXTRACT: note_on channel=9 note=35 velocity=127 time=0
EXTRACT: note_on channel=9 note=42 velocity=110 time=0
EXTRACT: note_on channel=15 note=61 velocity=1 time=0
EXTRACT: note_on channel=15 note=68 velocity=1 time=0
EXTRACT: note_on channel=15 note=65 velocity=1 time=0
EXTRACT: note_on channel=9 note=70 velocity=0 time=0.06184211041666667
EXTRACT: note_on channel=9 note=42 velocity=0 time=0.0032894739583333335
EXTRACT: note_on channel=9 note=35 velocity=0 time=0
EXTRACT: note_on channel=2 note=77 velocity=0 time=0.055263162500000004
EXTRACT: note_on channel=5 note=77 velocity=0 time=0
EXTRACT: note_on channel=5 note=80 velocity=0 time=0.017105264583333335
EXTRACT: note_on channel=2 note=80 velocity=0 time=0
EXTRACT: note_on channel=2 note=72 velocity=0 time=0.002631579166666667
EXTRACT: note_on channel=5 note=72 velocity=0 time=0
EXTRACT: note_on channel=1 note=37 velocity=0 time=0.04078947708333334
EXTRACT: note_on channel=6 note=25 velocity=0 time=0
EXTRACT: note_on channel=6 note=13 velocity=0 time=0
EXTRACT: note_on channel=1 note=25 velocity=0 time=0
EXTRACT: note_on channel=1 note=37 velocity=105 time=0.13486843229166667
EXTRACT: note_on channel=1 note=25 velocity=77 time=0
EXTRACT: note_on channel=2 note=80 velocity=101 time=0
EXTRACT: note_on channel=2 note=77 velocity=98 time=0
EXTRACT: note_on channel=2 note=72 velocity=89 time=0
EXTRACT: note_on channel=5 note=72 velocity=89 time=0
EXTRACT: note_on channel=5 note=80 velocity=101 time=0
EXTRACT: note_on channel=5 note=77 velocity=98 time=0
EXTRACT: note_on channel=6 note=25 velocity=105 time=0
EXTRACT: note_on channel=6 note=13 velocity=77 time=0
EXTRACT: note_on channel=9 note=70 velocity=114 time=0
EXTRACT: note_on channel=9 note=42 velocity=84 time=0
EXTRACT: note_on channel=9 note=70 velocity=0 time=0.0394736875
EXTRACT: note_on channel=9 note=42 velocity=0 time=0.017763159375
EXTRACT: note_on channel=5 note=77 velocity=0 time=0.06578947916666666
EXTRACT: note_on channel=2 note=77 velocity=0 time=0
EXTRACT: note_on channel=2 note=80 velocity=0 time=0.006578947916666667
EXTRACT: note_on channel=5 note=80 velocity=0 time=0
EXTRACT: note_on channel=2 note=72 velocity=0 time=0.001973684375
EXTRACT: note_on channel=5 note=72 velocity=0 time=0
EXTRACT: note_on channel=4 note=60 velocity=0 time=0.084868428125
EXTRACT: note_on channel=6 note=25 velocity=0 time=0.060526320833333334
EXTRACT: note_on channel=1 note=37 velocity=0 time=0
EXTRACT: note_on channel=6 note=13 velocity=0 time=0
EXTRACT: note_on channel=1 note=25 velocity=0 time=0
EXTRACT: note_on channel=2 note=80 velocity=105 time=0.03881579270833334
EXTRACT: note_on channel=2 note=77 velocity=101 time=0
EXTRACT: note_on channel=2 note=72 velocity=96 time=0
EXTRACT: note_on channel=4 note=58 velocity=114 time=0
EXTRACT: note_on channel=5 note=72 velocity=96 time=0
EXTRACT: note_on channel=5 note=80 velocity=105 time=0
EXTRACT: note_on channel=5 note=77 velocity=101 time=0
EXTRACT: note_on channel=9 note=70 velocity=119 time=0
EXTRACT: note_on channel=9 note=54 velocity=122 time=0
EXTRACT: note_on channel=9 note=40 velocity=127 time=0
EXTRACT: note_on channel=9 note=85 velocity=116 time=0
EXTRACT: note_on channel=9 note=31 velocity=122 time=0
EXTRACT: note_on channel=9 note=39 velocity=127 time=0
EXTRACT: note_on channel=9 note=42 velocity=104 time=0
EXTRACT: note_on channel=9 note=42 velocity=0 time=0.04605263541666667
EXTRACT: note_on channel=9 note=39 velocity=0 time=0.0006578947916666667
EXTRACT: note_on channel=9 note=54 velocity=0 time=0.007236842708333333
EXTRACT: note_on channel=9 note=31 velocity=0 time=0.0013157895833333334
EXTRACT: note_on channel=9 note=85 velocity=0 time=0.0013157895833333334
EXTRACT: note_on channel=9 note=40 velocity=0 time=0.001973684375
EXTRACT: note_on channel=9 note=70 velocity=0 time=0.006578947916666667
EXTRACT: note_on channel=2 note=77 velocity=0 time=0.047368425000000006
EXTRACT: note_on channel=5 note=77 velocity=0 time=0
EXTRACT: note_on channel=2 note=80 velocity=0 time=0.009210527083333333
EXTRACT: note_on channel=5 note=80 velocity=0 time=0
EXTRACT: note_on channel=2 note=72 velocity=0 time=0.005263158333333334
EXTRACT: note_on channel=5 note=72 velocity=0 time=0
EXTRACT: note_on channel=4 note=58 velocity=0 time=0.03486842395833333
EXTRACT: note_on channel=2 note=80 velocity=101 time=0.15394738125000001
EXTRACT: note_on channel=2 note=77 velocity=96 time=0
EXTRACT: note_on channel=2 note=72 velocity=89 time=0
EXTRACT: note_on channel=3 note=51 velocity=119 time=0
EXTRACT: note_on channel=4 note=56 velocity=107 time=0
EXTRACT: note_on channel=5 note=72 velocity=89 time=0
EXTRACT: note_on channel=5 note=77 velocity=96 time=0
EXTRACT: note_on channel=5 note=80 velocity=101 time=0
EXTRACT: note_on channel=9 note=70 velocity=122 time=0
EXTRACT: note_on channel=9 note=42 velocity=83 time=0
EXTRACT: note_on channel=9 note=70 velocity=0 time=0.057894741666666666
EXTRACT: note_on channel=9 note=42 velocity=0 time=0.0032894739583333335
EXTRACT: note_on channel=5 note=77 velocity=0 time=0.053289478125000005
EXTRACT: note_on channel=2 note=77 velocity=0 time=0
EXTRACT: note_on channel=2 note=72 velocity=0 time=0.0006578947916666667
EXTRACT: note_on channel=5 note=72 velocity=0 time=0
EXTRACT: note_on channel=2 note=80 velocity=0 time=0.0078947375
EXTRACT: note_on channel=5 note=80 velocity=0 time=0
EXTRACT: note_on channel=1 note=25 velocity=84 time=0.050657898958333336
EXTRACT: note_on channel=1 note=37 velocity=112 time=0
EXTRACT: note_on channel=6 note=13 velocity=84 time=0
EXTRACT: note_on channel=6 note=25 velocity=112 time=0
EXTRACT: note_on channel=9 note=35 velocity=127 time=0
EXTRACT: note_on channel=4 note=56 velocity=0 time=0.030263160416666667
EXTRACT: note_on channel=3 note=51 velocity=0 time=0.017105264583333335
EXTRACT: note_on channel=9 note=35 velocity=0 time=0.007236842708333333
EXTRACT: note_on channel=1 note=37 velocity=0 time=0.006578947916666667
EXTRACT: note_on channel=1 note=25 velocity=0 time=0
EXTRACT: note_on channel=6 note=13 velocity=0 time=0
EXTRACT: note_on channel=6 note=25 velocity=0 time=0
EXTRACT: note_on channel=8 note=61 velocity=0 time=0.07697369062500001
EXTRACT: note_on channel=8 note=56 velocity=0 time=0
EXTRACT: note_on channel=15 note=61 velocity=0 time=0.00394736875
EXTRACT: note_on channel=15 note=65 velocity=0 time=0
EXTRACT: note_on channel=15 note=68 velocity=0 time=0
EXTRACT: note_on channel=8 note=65 velocity=0 time=0
EXTRACT: note_on channel=1 note=27 velocity=79 time=0
EXTRACT: note_on channel=1 note=39 velocity=107 time=0
EXTRACT: note_on channel=2 note=72 velocity=98 time=0
EXTRACT: note_on channel=2 note=80 velocity=109 time=0
EXTRACT: note_on channel=2 note=77 velocity=107 time=0
EXTRACT: note_on channel=4 note=58 velocity=73 time=0
EXTRACT: note_on channel=5 note=72 velocity=98 time=0
EXTRACT: note_on channel=5 note=77 velocity=107 time=0
EXTRACT: note_on channel=5 note=80 velocity=109 time=0
EXTRACT: note_on channel=6 note=15 velocity=79 time=0
EXTRACT: note_on channel=6 note=27 velocity=107 time=0
EXTRACT: note_on channel=8 note=58 velocity=86 time=0
EXTRACT: note_on channel=8 note=55 velocity=86 time=0
EXTRACT: note_on channel=8 note=63 velocity=86 time=0
EXTRACT: note_on channel=9 note=35 velocity=127 time=0
EXTRACT: note_on channel=9 note=42 velocity=104 time=0
EXTRACT: note_on channel=9 note=70 velocity=116 time=0
EXTRACT: note_on channel=15 note=70 velocity=1 time=0
EXTRACT: note_on channel=15 note=63 velocity=1 time=0
EXTRACT: note_on channel=15 note=67 velocity=1 time=0
EXTRACT: note_on channel=9 note=42 velocity=0 time=0.05394737291666667
EXTRACT: note_on channel=9 note=35 velocity=0 time=0
EXTRACT: note_on channel=9 note=70 velocity=0 time=0.010526316666666667
EXTRACT: pitchwheel channel=4 pitch=-1294 time=0.061184215625
EXTRACT: pitchwheel channel=4 pitch=-4313 time=0.015789475
EXTRACT: pitchwheel channel=4 pitch=-7073 time=0.015789475
EXTRACT: pitchwheel channel=4 pitch=-8192 time=0.015131580208333334
EXTRACT: note_on channel=2 note=77 velocity=0 time=0.002631579166666667
EXTRACT: note_on channel=5 note=77 velocity=0 time=0
EXTRACT: note_on channel=2 note=72 velocity=0 time=0.00394736875
EXTRACT: note_on channel=5 note=72 velocity=0 time=0
EXTRACT: note_on channel=5 note=80 velocity=0 time=0.0032894739583333335
EXTRACT: note_on channel=2 note=80 velocity=0 time=0
EXTRACT: note_on channel=1 note=27 velocity=0 time=0.03552631875
EXTRACT: note_on channel=6 note=15 velocity=0 time=0
EXTRACT: note_on channel=6 note=27 velocity=0 time=0
EXTRACT: note_on channel=1 note=39 velocity=0 time=0
EXTRACT: note_on channel=4 note=58 velocity=0 time=0.028947370833333333
EXTRACT: note_on channel=1 note=39 velocity=105 time=0.06907895312500001
EXTRACT: note_on channel=1 note=27 velocity=77 time=0
EXTRACT: note_on channel=2 note=75 velocity=112 time=0
EXTRACT: note_on channel=2 note=70 velocity=105 time=0
EXTRACT: note_on channel=2 note=79 velocity=96 time=0
EXTRACT: note_on channel=3 note=53 velocity=112 time=0
EXTRACT: note_on channel=4 note=53 velocity=91 time=0
EXTRACT: note_on channel=5 note=70 velocity=105 time=0
EXTRACT: note_on channel=5 note=79 velocity=96 time=0
EXTRACT: note_on channel=5 note=75 velocity=112 time=0
EXTRACT: note_on channel=6 note=15 velocity=77 time=0
EXTRACT: note_on channel=6 note=27 velocity=105 time=0
EXTRACT: note_on channel=9 note=70 velocity=119 time=0
EXTRACT: note_on channel=9 note=35 velocity=127 time=0
EXTRACT: note_on channel=9 note=42 velocity=87 time=0
EXTRACT: pitchwheel channel=4 pitch=0 time=0.013157895833333334
EXTRACT: note_on channel=9 note=42 velocity=0 time=0.030263160416666667
EXTRACT: note_on channel=9 note=70 velocity=0 time=0.011184211458333334
EXTRACT: note_on channel=9 note=35 velocity=0 time=0.005263158333333334
EXTRACT: note_on channel=3 note=53 velocity=0 time=0.041447371875
EXTRACT: note_on channel=5 note=75 velocity=0 time=0.025657896875000002
EXTRACT: note_on channel=2 note=75 velocity=0 time=0
EXTRACT: note_on channel=2 note=79 velocity=0 time=0.010526316666666667
EXTRACT: note_on channel=5 note=79 velocity=0 time=0
EXTRACT: note_on channel=2 note=70 velocity=0 time=0.001973684375
EXTRACT: note_on channel=5 note=70 velocity=0 time=0
EXTRACT: note_on channel=4 note=53 velocity=0 time=0.033552634375
EXTRACT: note_on channel=6 note=15 velocity=0 time=0.08552632291666667
EXTRACT: note_on channel=1 note=39 velocity=0 time=0
EXTRACT: note_on channel=6 note=27 velocity=0 time=0
EXTRACT: note_on channel=1 note=27 velocity=0 time=0
EXTRACT: note_on channel=2 note=70 velocity=105 time=0.057236846875000004
EXTRACT: note_on channel=2 note=75 velocity=112 time=0
EXTRACT: note_on channel=2 note=79 velocity=103 time=0
EXTRACT: note_on channel=3 note=56 velocity=96 time=0
EXTRACT: note_on channel=4 note=53 velocity=64 time=0
EXTRACT: note_on channel=5 note=79 velocity=103 time=0
EXTRACT: note_on channel=5 note=75 velocity=112 time=0
EXTRACT: note_on channel=5 note=70 velocity=105 time=0
EXTRACT: note_on channel=9 note=70 velocity=122 time=0
EXTRACT: note_on channel=9 note=54 velocity=122 time=0
EXTRACT: note_on channel=9 note=40 velocity=127 time=0
EXTRACT: note_on channel=9 note=85 velocity=116 time=0
EXTRACT: note_on channel=9 note=31 velocity=127 time=0
EXTRACT: note_on channel=9 note=39 velocity=127 time=0
EXTRACT: note_on channel=9 note=46 velocity=114 time=0
EXTRACT: note_on channel=9 note=46 velocity=0 time=0.051315793750000005
EXTRACT: note_on channel=9 note=40 velocity=0 time=0.00394736875
EXTRACT: note_on channel=9 note=85 velocity=0 time=0.0013157895833333334
EXTRACT: note_on channel=9 note=31 velocity=0 time=0.0006578947916666667
EXTRACT: note_on channel=9 note=39 velocity=0 time=0.0006578947916666667
EXTRACT: note_on channel=9 note=54 velocity=0 time=0.0032894739583333335
EXTRACT: note_on channel=9 note=70 velocity=0 time=0.0078947375
EXTRACT: note_on channel=5 note=70 velocity=0 time=0.06184211041666667
EXTRACT: note_on channel=2 note=70 velocity=0 time=0
EXTRACT: note_on channel=2 note=75 velocity=0 time=0.001973684375
EXTRACT: note_on channel=5 note=75 velocity=0 time=0
EXTRACT: note_on channel=2 note=79 velocity=0 time=0.013815790625000001
EXTRACT: note_on channel=5 note=79 velocity=0 time=0
EXTRACT: note_on channel=1 note=27 velocity=94 time=0.16907896145833334
EXTRACT: note_on channel=1 note=39 velocity=122 time=0
EXTRACT: note_on channel=2 note=75 velocity=112 time=0
EXTRACT: note_on channel=2 note=79 velocity=103 time=0
EXTRACT: note_on channel=2 note=70 velocity=109 time=0
EXTRACT: note_on channel=5 note=75 velocity=112 time=0
EXTRACT: note_on channel=5 note=79 velocity=103 time=0
EXTRACT: note_on channel=5 note=70 velocity=109 time=0
EXTRACT: note_on channel=6 note=27 velocity=122 time=0
EXTRACT: note_on channel=6 note=15 velocity=94 time=0
EXTRACT: note_on channel=7 note=27 velocity=122 time=0
EXTRACT: note_on channel=9 note=70 velocity=109 time=0
EXTRACT: note_on channel=9 note=42 velocity=81 time=0
EXTRACT: note_on channel=9 note=35 velocity=127 time=0
EXTRACT: note_on channel=9 note=70 velocity=0 time=0.04013158229166667
EXTRACT: note_on channel=9 note=42 velocity=0 time=0.013815790625000001
EXTRACT: note_on channel=9 note=35 velocity=0 time=0.0078947375
EXTRACT: note_on channel=3 note=56 velocity=0 time=0.06184211041666667
EXTRACT: note_on channel=4 note=53 velocity=0 time=0.005921053125000001
EXTRACT: note_on channel=5 note=79 velocity=0 time=0.03421052916666667
EXTRACT: note_on channel=2 note=79 velocity=0 time=0
EXTRACT: note_on channel=5 note=70 velocity=0 time=0.0006578947916666667
EXTRACT: note_on channel=2 note=70 velocity=0 time=0
EXTRACT: note_on channel=2 note=75 velocity=0 time=0.005921053125000001
EXTRACT: note_on channel=5 note=75 velocity=0 time=0
EXTRACT: note_on channel=9 note=85 velocity=116 time=0.0032894739583333335
EXTRACT: note_on channel=9 note=31 velocity=119 time=0
EXTRACT: note_on channel=7 note=27 velocity=0 time=0.009210527083333333
EXTRACT: note_on channel=9 note=85 velocity=0 time=0.03815789791666667
EXTRACT: note_on channel=9 note=31 velocity=0 time=0.010526316666666667
EXTRACT: note_on channel=6 note=27 velocity=0 time=0.027631581250000002
EXTRACT: note_on channel=6 note=15 velocity=0 time=0
EXTRACT: note_on channel=1 note=39 velocity=0 time=0
EXTRACT: note_on channel=1 note=27 velocity=0 time=0
EXTRACT: note_on channel=15 note=70 velocity=0 time=0.056578952083333335
EXTRACT: note_on channel=8 note=63 velocity=0 time=0
EXTRACT: note_on channel=15 note=67 velocity=0 time=0
EXTRACT: note_on channel=15 note=63 velocity=0 time=0
EXTRACT: note_on channel=1 note=39 velocity=127 time=0
EXTRACT: note_on channel=2 note=70 velocity=112 time=0
EXTRACT: note_on channel=2 note=75 velocity=114 time=0
EXTRACT: note_on channel=2 note=79 velocity=105 time=0
EXTRACT: note_on channel=3 note=53 velocity=112 time=0
EXTRACT: note_on channel=5 note=75 velocity=114 time=0
EXTRACT: note_on channel=5 note=79 velocity=105 time=0
EXTRACT: note_on channel=5 note=70 velocity=112 time=0
EXTRACT: note_on channel=6 note=27 velocity=127 time=0
EXTRACT: note_on channel=7 note=27 velocity=119 time=0
EXTRACT: note_on channel=8 note=63 velocity=84 time=0
EXTRACT: note_on channel=8 note=58 velocity=84 time=0
EXTRACT: note_on channel=8 note=67 velocity=84 time=0
EXTRACT: note_on channel=9 note=70 velocity=119 time=0
EXTRACT: note_on channel=9 note=35 velocity=127 time=0
EXTRACT: note_on channel=9 note=42 velocity=110 time=0
EXTRACT: note_on channel=15 note=72 velocity=1 time=0
EXTRACT: note_on channel=15 note=68 velocity=1 time=0
EXTRACT: note_on channel=15 note=65 velocity=1 time=0
EXTRACT: note_on channel=8 note=55 velocity=0 time=0.0006578947916666667
EXTRACT: note_on channel=8 note=58 velocity=0 time=0.010526316666666667
EXTRACT: note_on channel=9 note=35 velocity=0 time=0.04802631979166667
EXTRACT: note_on channel=9 note=70 velocity=0 time=0.001973684375
EXTRACT: note_on channel=9 note=42 velocity=0 time=0.00394736875
EXTRACT: note_on channel=5 note=79 velocity=0 time=0.124342115625
EXTRACT: note_on channel=2 note=79 velocity=0 time=0
EXTRACT: note_on channel=5 note=75 velocity=0 time=0.002631579166666667
EXTRACT: note_on channel=2 note=75 velocity=0 time=0
EXTRACT: note_on channel=6 note=27 velocity=0 time=0.0032894739583333335
EXTRACT: note_on channel=1 note=39 velocity=0 time=0
EXTRACT: note_on channel=2 note=70 velocity=0 time=0.0013157895833333334
EXTRACT: note_on channel=5 note=70 velocity=0 time=0
EXTRACT: note_on channel=3 note=53 velocity=0 time=0.02039473854166667
EXTRACT: note_on channel=1 note=41 velocity=124 time=0.09868421875000001
EXTRACT: note_on channel=1 note=29 velocity=96 time=0
EXTRACT: note_on channel=2 note=80 velocity=109 time=0
EXTRACT: note_on channel=2 note=77 velocity=109 time=0
EXTRACT: note_on channel=2 note=72 velocity=103 time=0
EXTRACT: note_on channel=5 note=80 velocity=109 time=0
EXTRACT: note_on channel=5 note=77 velocity=109 time=0
EXTRACT: note_on channel=5 note=72 velocity=103 time=0
EXTRACT: note_on channel=6 note=29 velocity=124 time=0
EXTRACT: note_on channel=6 note=17 velocity=96 time=0
EXTRACT: note_on channel=7 note=29 velocity=112 time=0
EXTRACT: note_on channel=8 note=60 velocity=84 time=0
EXTRACT: note_on channel=8 note=68 velocity=84 time=0
EXTRACT: note_on channel=8 note=65 velocity=84 time=0
EXTRACT: note_on channel=9 note=70 velocity=112 time=0
EXTRACT: note_on channel=9 note=42 velocity=86 time=0
EXTRACT: note_on channel=8 note=63 velocity=0 time=0.001973684375
EXTRACT: note_on channel=8 note=67 velocity=0 time=0.006578947916666667
EXTRACT: note_on channel=8 note=58 velocity=0 time=0.011842106250000001
EXTRACT: note_on channel=7 note=27 velocity=0 time=0.002631579166666667
EXTRACT: note_on channel=9 note=70 velocity=0 time=0.018421054166666666
EXTRACT: note_on channel=9 note=42 velocity=0 time=0.015789475
EXTRACT: note_on channel=2 note=72 velocity=0 time=0.050657898958333336
EXTRACT: note_on channel=5 note=72 velocity=0 time=0
EXTRACT: note_on channel=2 note=77 velocity=0 time=0.0013157895833333334
EXTRACT: note_on channel=5 note=77 velocity=0 time=0
EXTRACT: note_on channel=2 note=80 velocity=0 time=0.012500001041666667
EXTRACT: note_on channel=5 note=80 velocity=0 time=0
EXTRACT: note_on channel=7 note=29 velocity=0 time=0.13750001145833335
EXTRACT: note_on channel=6 note=29 velocity=0 time=0.008552632291666667
EXTRACT: note_on channel=6 note=17 velocity=0 time=0
EXTRACT: note_on channel=1 note=41 velocity=0 time=0
EXTRACT: note_on channel=1 note=29 velocity=0 time=0
EXTRACT: note_on channel=2 note=72 velocity=103 time=0.04802631979166667
EXTRACT: note_on channel=2 note=77 velocity=107 time=0
EXTRACT: note_on channel=2 note=80 velocity=109 time=0
EXTRACT: note_on channel=5 note=72 velocity=103 time=0
EXTRACT: note_on channel=5 note=77 velocity=107 time=0
EXTRACT: note_on channel=5 note=80 velocity=109 time=0
EXTRACT: note_on channel=9 note=70 velocity=122 time=0
EXTRACT: note_on channel=9 note=54 velocity=124 time=0
EXTRACT: note_on channel=9 note=42 velocity=104 time=0
EXTRACT: note_on channel=9 note=40 velocity=127 time=0
EXTRACT: note_on channel=9 note=85 velocity=114 time=0
EXTRACT: note_on channel=9 note=31 velocity=122 time=0
EXTRACT: note_on channel=9 note=39 velocity=127 time=0
EXTRACT: note_on channel=9 note=42 velocity=0 time=0.04605263541666667
EXTRACT: note_on channel=9 note=39 velocity=0 time=0.002631579166666667
EXTRACT: note_on channel=9 note=40 velocity=0 time=0.001973684375
EXTRACT: note_on channel=9 note=31 velocity=0 time=0.0032894739583333335
EXTRACT: note_on channel=9 note=54 velocity=0 time=0.007236842708333333
EXTRACT: note_on channel=9 note=85 velocity=0 time=0.00394736875
EXTRACT: note_on channel=9 note=70 velocity=0 time=0.0006578947916666667
EXTRACT: note_on channel=2 note=77 velocity=0 time=0.03486842395833333
EXTRACT: note_on channel=5 note=77 velocity=0 time=0
EXTRACT: note_on channel=2 note=80 velocity=0 time=0.0046052635416666664
EXTRACT: note_on channel=5 note=80 velocity=0 time=0
EXTRACT: note_on channel=2 note=72 velocity=0 time=0.009868421875
EXTRACT: note_on channel=5 note=72 velocity=0 time=0
EXTRACT: note_on channel=1 note=27 velocity=114 time=0.20065791145833334
EXTRACT: note_on channel=1 note=39 velocity=112 time=0
EXTRACT: note_on channel=2 note=72 velocity=96 time=0
EXTRACT: note_on channel=2 note=77 velocity=101 time=0
EXTRACT: note_on channel=2 note=80 velocity=101 time=0
EXTRACT: note_on channel=3 note=51 velocity=116 time=0
EXTRACT: note_on channel=5 note=72 velocity=96 time=0
EXTRACT: note_on channel=5 note=80 velocity=101 time=0
EXTRACT: note_on channel=5 note=77 velocity=101 time=0
EXTRACT: note_on channel=6 note=27 velocity=112 time=0
EXTRACT: note_on channel=6 note=15 velocity=114 time=0
EXTRACT: note_on channel=9 note=70 velocity=109 time=0
EXTRACT: note_on channel=9 note=42 velocity=77 time=0
EXTRACT: note_on channel=9 note=70 velocity=0 time=0.04802631979166667
EXTRACT: note_on channel=9 note=42 velocity=0 time=0.013157895833333334
EXTRACT: note_on channel=3 note=51 velocity=0 time=0.00394736875
EXTRACT: note_on channel=5 note=77 velocity=0 time=0.050657898958333336
EXTRACT: note_on channel=2 note=77 velocity=0 time=0
EXTRACT: note_on channel=2 note=80 velocity=0 time=0.009868421875
EXTRACT: note_on channel=5 note=80 velocity=0 time=0
EXTRACT: note_on channel=2 note=72 velocity=0 time=0.005263158333333334
EXTRACT: note_on channel=5 note=72 velocity=0 time=0
EXTRACT: note_on channel=1 note=29 velocity=109 time=0.04276316145833334
EXTRACT: note_on channel=1 note=41 velocity=122 time=0
EXTRACT: note_on channel=6 note=17 velocity=109 time=0
EXTRACT: note_on channel=6 note=29 velocity=122 time=0
EXTRACT: note_on channel=9 note=35 velocity=127 time=0
EXTRACT: note_on channel=6 note=15 velocity=0 time=0.0032894739583333335
EXTRACT: note_on channel=1 note=27 velocity=0 time=0
EXTRACT: note_on channel=6 note=27 velocity=0 time=0.019078948958333335
EXTRACT: note_on channel=1 note=39 velocity=0 time=0
EXTRACT: note_on channel=9 note=35 velocity=0 time=0.03486842395833333
EXTRACT: note_on channel=1 note=29 velocity=0 time=0.080921059375
EXTRACT: note_on channel=6 note=17 velocity=0 time=0
EXTRACT: note_on channel=1 note=24 velocity=79 time=0.00394736875
EXTRACT: note_on channel=1 note=36 velocity=107 time=0
EXTRACT: note_on channel=2 note=72 velocity=101 time=0
EXTRACT: note_on channel=2 note=77 velocity=105 time=0
EXTRACT: note_on channel=2 note=80 velocity=107 time=0
EXTRACT: note_on channel=3 note=51 velocity=119 time=0
EXTRACT: note_on channel=5 note=72 velocity=101 time=0
EXTRACT: note_on channel=5 note=80 velocity=107 time=0
EXTRACT: note_on channel=5 note=77 velocity=105 time=0
EXTRACT: note_on channel=6 note=12 velocity=79 time=0
EXTRACT: note_on channel=6 note=24 velocity=107 time=0
EXTRACT: note_on channel=9 note=70 velocity=116 time=0
EXTRACT: note_on channel=9 note=35 velocity=124 time=0
EXTRACT: note_on channel=9 note=42 velocity=104 time=0
EXTRACT: note_on channel=6 note=29 velocity=0 time=0.005921053125000001
EXTRACT: note_on channel=1 note=41 velocity=0 time=0
EXTRACT: note_on channel=9 note=42 velocity=0 time=0.04802631979166667
EXTRACT: note_on channel=9 note=35 velocity=0 time=0.005921053125000001
EXTRACT: note_on channel=9 note=70 velocity=0 time=0.001973684375
EXTRACT: note_on channel=3 note=51 velocity=0 time=0.021052633333333334
EXTRACT: note_on channel=5 note=77 velocity=0 time=0.055263162500000004
EXTRACT: note_on channel=2 note=77 velocity=0 time=0
EXTRACT: note_on channel=2 note=72 velocity=0 time=0.0078947375
EXTRACT: note_on channel=5 note=72 velocity=0 time=0
EXTRACT: note_on channel=5 note=80 velocity=0 time=0.0006578947916666667
EXTRACT: note_on channel=2 note=80 velocity=0 time=0
EXTRACT: note_on channel=1 note=36 velocity=0 time=0.025000002083333334
EXTRACT: note_on channel=6 note=24 velocity=0 time=0
EXTRACT: note_on channel=6 note=12 velocity=0 time=0
EXTRACT: note_on channel=1 note=24 velocity=0 time=0
EXTRACT: note_on channel=1 note=24 velocity=68 time=0.144078959375
EXTRACT: note_on channel=1 note=36 velocity=96 time=0
EXTRACT: note_on channel=2 note=80 velocity=107 time=0
EXTRACT: note_on channel=2 note=77 velocity=105 time=0
EXTRACT: note_on channel=2 note=72 velocity=96 time=0
EXTRACT: note_on channel=3 note=53 velocity=127 time=0
EXTRACT: note_on channel=5 note=80 velocity=107 time=0
EXTRACT: note_on channel=5 note=72 velocity=96 time=0
EXTRACT: note_on channel=5 note=77 velocity=105 time=0
EXTRACT: note_on channel=6 note=12 velocity=68 time=0
EXTRACT: note_on channel=6 note=24 velocity=96 time=0
EXTRACT: note_on channel=9 note=70 velocity=112 time=0
EXTRACT: note_on channel=9 note=35 velocity=127 time=0
EXTRACT: note_on channel=9 note=46 velocity=80 time=0
EXTRACT: note_on channel=9 note=46 velocity=0 time=0.04342105625
EXTRACT: note_on channel=9 note=70 velocity=0 time=0.0078947375
EXTRACT: note_on channel=9 note=35 velocity=0 time=0.005921053125000001
EXTRACT: note_on channel=5 note=77 velocity=0 time=0.07171053229166667
EXTRACT: note_on channel=2 note=77 velocity=0 time=0
EXTRACT: note_on channel=2 note=72 velocity=0 time=0.0006578947916666667
EXTRACT: note_on channel=5 note=72 velocity=0 time=0
EXTRACT: note_on channel=3 note=53 velocity=0 time=0.0046052635416666664
EXTRACT: note_on channel=2 note=80 velocity=0 time=0.0032894739583333335
EXTRACT: note_on channel=5 note=80 velocity=0 time=0
EXTRACT: note_on channel=6 note=12 velocity=0 time=0.14868422291666666
EXTRACT: note_on channel=1 note=24 velocity=0 time=0
EXTRACT: note_on channel=6 note=24 velocity=0 time=0
EXTRACT: note_on channel=1 note=36 velocity=0 time=0
EXTRACT: note_on channel=2 note=72 velocity=93 time=0.029605265625000002
EXTRACT: note_on channel=2 note=77 velocity=103 time=0
EXTRACT: note_on channel=2 note=80 velocity=105 time=0
EXTRACT: note_on channel=3 note=60 velocity=107 time=0
EXTRACT: note_on channel=5 note=72 velocity=93 time=0
EXTRACT: note_on channel=5 note=80 velocity=105 time=0
EXTRACT: note_on channel=5 note=77 velocity=103 time=0
EXTRACT: note_on channel=9 note=70 velocity=122 time=0
EXTRACT: note_on channel=9 note=54 velocity=122 time=0
EXTRACT: note_on channel=9 note=40 velocity=127 time=0
EXTRACT: note_on channel=9 note=85 velocity=116 time=0
EXTRACT: note_on channel=9 note=31 velocity=119 time=0
EXTRACT: note_on channel=9 note=39 velocity=127 time=0
EXTRACT: note_on channel=9 note=42 velocity=114 time=0
EXTRACT: note_on channel=9 note=39 velocity=0 time=0.048684214583333336
EXTRACT: note_on channel=9 note=42 velocity=0 time=0.002631579166666667
EXTRACT: note_on channel=9 note=31 velocity=0 time=0
EXTRACT: note_on channel=9 note=40 velocity=0 time=0.0006578947916666667
EXTRACT: note_on channel=9 note=54 velocity=0 time=0.0078947375
EXTRACT: note_on channel=9 note=85 velocity=0 time=0.0013157895833333334
EXTRACT: note_on channel=9 note=70 velocity=0 time=0.005263158333333334
EXTRACT: note_on channel=2 note=77 velocity=0 time=0.04342105625
EXTRACT: note_on channel=5 note=77 velocity=0 time=0
EXTRACT: note_on channel=2 note=80 velocity=0 time=0.009868421875
EXTRACT: note_on channel=5 note=80 velocity=0 time=0
EXTRACT: note_on channel=2 note=72 velocity=0 time=0.002631579166666667
EXTRACT: note_on channel=5 note=72 velocity=0 time=0
EXTRACT: note_on channel=1 note=24 velocity=114 time=0.19342106875
EXTRACT: note_on channel=1 note=36 velocity=122 time=0
EXTRACT: note_on channel=2 note=72 velocity=87 time=0
EXTRACT: note_on channel=2 note=77 velocity=96 time=0
EXTRACT: note_on channel=2 note=80 velocity=98 time=0
EXTRACT: note_on channel=5 note=72 velocity=87 time=0
EXTRACT: note_on channel=5 note=77 velocity=96 time=0
EXTRACT: note_on channel=5 note=80 velocity=98 time=0
EXTRACT: note_on channel=6 note=12 velocity=114 time=0
EXTRACT: note_on channel=6 note=24 velocity=122 time=0
EXTRACT: note_on channel=9 note=70 velocity=112 time=0
EXTRACT: note_on channel=9 note=42 velocity=78 time=0
EXTRACT: note_on channel=9 note=70 velocity=0 time=0.05197368854166667
EXTRACT: note_on channel=9 note=42 velocity=0 time=0.001973684375
EXTRACT: note_on channel=3 note=60 velocity=0 time=0.009868421875
EXTRACT: note_on channel=2 note=77 velocity=0 time=0.06776316354166667
EXTRACT: note_on channel=5 note=77 velocity=0 time=0
EXTRACT: note_on channel=5 note=80 velocity=0 time=0.006578947916666667
EXTRACT: note_on channel=2 note=80 velocity=0 time=0
EXTRACT: note_on channel=2 note=72 velocity=0 time=0.013157895833333334
EXTRACT: note_on channel=5 note=72 velocity=0 time=0
EXTRACT: note_on channel=9 note=85 velocity=93 time=0.02236842291666667
EXTRACT: note_on channel=9 note=31 velocity=109 time=0
EXTRACT: note_on channel=9 note=31 velocity=0 time=0.057236846875000004
EXTRACT: note_on channel=9 note=85 velocity=0 time=0.0078947375
EXTRACT: note_on channel=6 note=12 velocity=0 time=0.009210527083333333
EXTRACT: note_on channel=1 note=24 velocity=0 time=0
EXTRACT: note_on channel=6 note=24 velocity=0 time=0.00394736875
EXTRACT: note_on channel=1 note=36 velocity=0 time=0
EXTRACT: note_on channel=8 note=68 velocity=0 time=0.033552634375
EXTRACT: note_on channel=8 note=60 velocity=0 time=0.006578947916666667
EXTRACT: note_on channel=8 note=65 velocity=0 time=0.0013157895833333334
EXTRACT: note_on channel=15 note=72 velocity=0 time=0.02236842291666667
EXTRACT: note_on channel=15 note=68 velocity=0 time=0
EXTRACT: note_on channel=15 note=65 velocity=0 time=0
EXTRACT: note_on channel=1 note=25 velocity=81 time=0
EXTRACT: note_on channel=1 note=37 velocity=109 time=0
EXTRACT: note_on channel=2 note=72 velocity=96 time=0
EXTRACT: note_on channel=2 note=77 velocity=101 time=0
EXTRACT: note_on channel=2 note=80 velocity=105 time=0
EXTRACT: note_on channel=3 note=60 velocity=116 time=0
EXTRACT: note_on channel=5 note=72 velocity=96 time=0
EXTRACT: note_on channel=5 note=80 velocity=105 time=0
EXTRACT: note_on channel=5 note=77 velocity=101 time=0
EXTRACT: note_on channel=6 note=25 velocity=109 time=0
EXTRACT: note_on channel=6 note=13 velocity=81 time=0
EXTRACT: note_on channel=8 note=65 velocity=84 time=0
EXTRACT: note_on channel=8 note=61 velocity=84 time=0
EXTRACT: note_on channel=8 note=56 velocity=84 time=0
EXTRACT: note_on channel=9 note=70 velocity=119 time=0
EXTRACT: note_on channel=9 note=35 velocity=127 time=0
EXTRACT: note_on channel=9 note=42 velocity=110 time=0
EXTRACT: note_on channel=15 note=61 velocity=1 time=0
EXTRACT: note_on channel=15 note=68 velocity=1 time=0
EXTRACT: note_on channel=15 note=65 velocity=1 time=0
EXTRACT: note_on channel=9 note=70 velocity=0 time=0.057236846875000004
EXTRACT: note_on channel=9 note=42 velocity=0 time=0.0078947375
EXTRACT: note_on channel=9 note=35 velocity=0 time=0
EXTRACT: note_on channel=2 note=77 velocity=0 time=0.055263162500000004
EXTRACT: note_on channel=5 note=77 velocity=0 time=0
EXTRACT: note_on channel=5 note=80 velocity=0 time=0.017105264583333335
EXTRACT: note_on channel=2 note=80 velocity=0 time=0
EXTRACT: note_on channel=2 note=72 velocity=0 time=0.002631579166666667
EXTRACT: note_on channel=5 note=72 velocity=0 time=0
EXTRACT: note_on channel=1 note=25 velocity=0 time=0.04078947708333334
EXTRACT: note_on channel=6 note=25 velocity=0 time=0
EXTRACT: note_on channel=6 note=13 velocity=0 time=0
EXTRACT: note_on channel=1 note=37 velocity=0 time=0
EXTRACT: note_on channel=3 note=60 velocity=0 time=0.06842105833333334
EXTRACT: note_on channel=1 note=25 velocity=77 time=0.06644737395833333
EXTRACT: note_on channel=1 note=37 velocity=105 time=0
EXTRACT: note_on channel=2 note=72 velocity=89 time=0
EXTRACT: note_on channel=2 note=77 velocity=98 time=0
EXTRACT: note_on channel=2 note=80 velocity=101 time=0
EXTRACT: note_on channel=5 note=72 velocity=89 time=0
EXTRACT: note_on channel=5 note=80 velocity=101 time=0
EXTRACT: note_on channel=5 note=77 velocity=98 time=0
EXTRACT: note_on channel=6 note=25 velocity=105 time=0
EXTRACT: note_on channel=6 note=13 velocity=77 time=0
EXTRACT: note_on channel=9 note=70 velocity=116 time=0
EXTRACT: note_on channel=9 note=42 velocity=84 time=0
EXTRACT: note_on channel=9 note=70 velocity=0 time=0.054605267708333335
EXTRACT: note_on channel=9 note=42 velocity=0 time=0.002631579166666667
EXTRACT: note_on channel=5 note=77 velocity=0 time=0.06578947916666666
EXTRACT: note_on channel=2 note=77 velocity=0 time=0
EXTRACT: note_on channel=2 note=80 velocity=0 time=0.006578947916666667
EXTRACT: note_on channel=5 note=80 velocity=0 time=0
EXTRACT: note_on channel=2 note=72 velocity=0 time=0.001973684375
EXTRACT: note_on channel=5 note=72 velocity=0 time=0
EXTRACT: note_on channel=1 note=25 velocity=0 time=0.14539474895833335
EXTRACT: note_on channel=6 note=13 velocity=0 time=0
EXTRACT: note_on channel=1 note=37 velocity=0 time=0
EXTRACT: note_on channel=6 note=25 velocity=0 time=0
EXTRACT: note_on channel=2 note=80 velocity=105 time=0.03881579270833334
EXTRACT: note_on channel=2 note=77 velocity=101 time=0
EXTRACT: note_on channel=2 note=72 velocity=96 time=0
EXTRACT: note_on channel=5 note=72 velocity=96 time=0
EXTRACT: note_on channel=5 note=80 velocity=105 time=0
EXTRACT: note_on channel=5 note=77 velocity=101 time=0
EXTRACT: note_on channel=9 note=70 velocity=119 time=0
EXTRACT: note_on channel=9 note=40 velocity=127 time=0
EXTRACT: note_on channel=9 note=85 velocity=116 time=0
EXTRACT: note_on channel=9 note=31 velocity=122 time=0
EXTRACT: note_on channel=9 note=39 velocity=127 time=0
EXTRACT: note_on channel=9 note=42 velocity=104 time=0
EXTRACT: note_on channel=9 note=54 velocity=122 time=0
EXTRACT: note_on channel=9 note=42 velocity=0 time=0.04605263541666667
EXTRACT: note_on channel=9 note=39 velocity=0 time=0.0006578947916666667
EXTRACT: note_on channel=9 note=70 velocity=0 time=0.006578947916666667
EXTRACT: note_on channel=9 note=31 velocity=0 time=0.001973684375
EXTRACT: note_on channel=9 note=85 velocity=0 time=0.0013157895833333334
EXTRACT: note_on channel=9 note=54 velocity=0 time=0.001973684375
EXTRACT: note_on channel=9 note=40 velocity=0 time=0
EXTRACT: note_on channel=2 note=77 velocity=0 time=0.05394737291666667
EXTRACT: note_on channel=5 note=77 velocity=0 time=0
EXTRACT: note_on channel=5 note=80 velocity=0 time=0.009210527083333333
EXTRACT: note_on channel=2 note=80 velocity=0 time=0
EXTRACT: note_on channel=2 note=72 velocity=0 time=0.005263158333333334
EXTRACT: note_on channel=5 note=72 velocity=0 time=0
EXTRACT: note_on channel=2 note=72 velocity=89 time=0.18881580520833335
EXTRACT: note_on channel=2 note=80 velocity=101 time=0
EXTRACT: note_on channel=2 note=77 velocity=96 time=0
EXTRACT: note_on channel=3 note=51 velocity=122 time=0
EXTRACT: note_on channel=5 note=72 velocity=89 time=0
EXTRACT: note_on channel=5 note=80 velocity=101 time=0
EXTRACT: note_on channel=5 note=77 velocity=96 time=0
EXTRACT: note_on channel=9 note=70 velocity=119 time=0
EXTRACT: note_on channel=9 note=42 velocity=83 time=0
EXTRACT: note_on channel=9 note=42 velocity=0 time=0.061184215625
EXTRACT: note_on channel=9 note=70 velocity=0 time=0.001973684375
EXTRACT: note_on channel=3 note=51 velocity=0 time=0.011184211458333334
EXTRACT: note_on channel=2 note=77 velocity=0 time=0.04013158229166667
EXTRACT: note_on channel=5 note=77 velocity=0 time=0
EXTRACT: note_on channel=5 note=72 velocity=0 time=0.0006578947916666667
EXTRACT: note_on channel=2 note=72 velocity=0 time=0
EXTRACT: note_on channel=2 note=80 velocity=0 time=0.0078947375
EXTRACT: note_on channel=5 note=80 velocity=0 time=0
EXTRACT: note_on channel=1 note=37 velocity=112 time=0.050657898958333336
EXTRACT: note_on channel=1 note=25 velocity=84 time=0
EXTRACT: note_on channel=6 note=25 velocity=112 time=0
EXTRACT: note_on channel=6 note=13 velocity=84 time=0
EXTRACT: note_on channel=9 note=35 velocity=127 time=0
EXTRACT: note_on channel=9 note=35 velocity=0 time=0.054605267708333335
EXTRACT: note_on channel=1 note=25 velocity=0 time=0.006578947916666667
EXTRACT: note_on channel=6 note=13 velocity=0 time=0
EXTRACT: note_on channel=1 note=37 velocity=0 time=0
EXTRACT: note_on channel=6 note=25 velocity=0 time=0
EXTRACT: note_on channel=8 note=61 velocity=0 time=0.07697369062500001
EXTRACT: note_on channel=8 note=56 velocity=0 time=0
EXTRACT: note_on channel=8 note=65 velocity=0 time=0.00394736875
EXTRACT: note_on channel=15 note=68 velocity=0 time=0
EXTRACT: note_on channel=15 note=65 velocity=0 time=0
EXTRACT: note_on channel=15 note=61 velocity=0 time=0
EXTRACT: note_on channel=1 note=39 velocity=107 time=0
EXTRACT: note_on channel=1 note=27 velocity=79 time=0
EXTRACT: note_on channel=2 note=72 velocity=98 time=0
EXTRACT: note_on channel=2 note=77 velocity=107 time=0
EXTRACT: note_on channel=2 note=80 velocity=109 time=0
EXTRACT: note_on channel=3 note=51 velocity=119 time=0
EXTRACT: note_on channel=5 note=72 velocity=98 time=0
EXTRACT: note_on channel=5 note=80 velocity=109 time=0
EXTRACT: note_on channel=5 note=77 velocity=107 time=0
EXTRACT: note_on channel=6 note=15 velocity=79 time=0
EXTRACT: note_on channel=6 note=27 velocity=107 time=0
EXTRACT: note_on channel=8 note=58 velocity=86 time=0
EXTRACT: note_on channel=8 note=55 velocity=86 time=0
EXTRACT: note_on channel=8 note=63 velocity=86 time=0
EXTRACT: note_on channel=9 note=70 velocity=119 time=0
EXTRACT: note_on channel=9 note=35 velocity=127 time=0
EXTRACT: note_on channel=9 note=42 velocity=104 time=0
EXTRACT: note_on channel=15 note=70 velocity=1 time=0
EXTRACT: note_on channel=15 note=63 velocity=1 time=0
EXTRACT: note_on channel=15 note=67 velocity=1 time=0
EXTRACT: note_on channel=9 note=42 velocity=0 time=0.05394737291666667
EXTRACT: note_on channel=9 note=35 velocity=0 time=0
EXTRACT: note_on channel=9 note=70 velocity=0 time=0.005263158333333334
EXTRACT: note_on channel=3 note=51 velocity=0 time=0.06842105833333334
EXTRACT: note_on channel=5 note=77 velocity=0 time=0.047368425000000006
EXTRACT: note_on channel=2 note=77 velocity=0 time=0
EXTRACT: note_on channel=2 note=72 velocity=0 time=0.00394736875
EXTRACT: note_on channel=5 note=72 velocity=0 time=0
EXTRACT: note_on channel=5 note=80 velocity=0 time=0.0032894739583333335
EXTRACT: note_on channel=2 note=80 velocity=0 time=0
EXTRACT: note_on channel=6 note=27 velocity=0 time=0.03552631875
EXTRACT: note_on channel=1 note=39 velocity=0 time=0
EXTRACT: note_on channel=6 note=15 velocity=0 time=0
EXTRACT: note_on channel=1 note=27 velocity=0 time=0
EXTRACT: note_on channel=1 note=39 velocity=105 time=0.09802632395833334
EXTRACT: note_on channel=1 note=27 velocity=77 time=0
EXTRACT: note_on channel=2 note=75 velocity=112 time=0
EXTRACT: note_on channel=2 note=70 velocity=105 time=0
EXTRACT: note_on channel=2 note=79 velocity=96 time=0
EXTRACT: note_on channel=3 note=53 velocity=127 time=0
EXTRACT: note_on channel=5 note=70 velocity=105 time=0
EXTRACT: note_on channel=5 note=79 velocity=96 time=0
EXTRACT: note_on channel=5 note=75 velocity=112 time=0
EXTRACT: note_on channel=6 note=27 velocity=105 time=0
EXTRACT: note_on channel=6 note=15 velocity=77 time=0
EXTRACT: note_on channel=9 note=70 velocity=119 time=0
EXTRACT: note_on channel=9 note=35 velocity=127 time=0
EXTRACT: note_on channel=9 note=42 velocity=87 time=0
EXTRACT: note_on channel=9 note=42 velocity=0 time=0.04342105625
EXTRACT: note_on channel=9 note=35 velocity=0 time=0.016447369791666666
EXTRACT: note_on channel=9 note=70 velocity=0 time=0.001973684375
EXTRACT: note_on channel=5 note=75 velocity=0 time=0.06513158437500001
EXTRACT: note_on channel=2 note=75 velocity=0 time=0
EXTRACT: note_on channel=2 note=79 velocity=0 time=0.010526316666666667
EXTRACT: note_on channel=5 note=79 velocity=0 time=0
EXTRACT: note_on channel=2 note=70 velocity=0 time=0.001973684375
EXTRACT: note_on channel=5 note=70 velocity=0 time=0
EXTRACT: note_on channel=3 note=53 velocity=0 time=0.001973684375
EXTRACT: note_on channel=6 note=27 velocity=0 time=0.11710527291666667
EXTRACT: note_on channel=1 note=39 velocity=0 time=0
EXTRACT: note_on channel=6 note=15 velocity=0 time=0
EXTRACT: note_on channel=1 note=27 velocity=0 time=0
EXTRACT: note_on channel=2 note=79 velocity=103 time=0.057236846875000004
EXTRACT: note_on channel=2 note=75 velocity=112 time=0
EXTRACT: note_on channel=2 note=70 velocity=105 time=0
EXTRACT: note_on channel=3 note=60 velocity=122 time=0
EXTRACT: note_on channel=5 note=79 velocity=103 time=0
EXTRACT: note_on channel=5 note=70 velocity=105 time=0
EXTRACT: note_on channel=5 note=75 velocity=112 time=0
EXTRACT: note_on channel=9 note=54 velocity=122 time=0
EXTRACT: note_on channel=9 note=40 velocity=127 time=0
EXTRACT: note_on channel=9 note=85 velocity=116 time=0
EXTRACT: note_on channel=9 note=31 velocity=127 time=0
EXTRACT: note_on channel=9 note=39 velocity=127 time=0
EXTRACT: note_on channel=9 note=46 velocity=114 time=0
EXTRACT: note_on channel=9 note=70 velocity=119 time=0
EXTRACT: note_on channel=9 note=46 velocity=0 time=0.051315793750000005
EXTRACT: note_on channel=9 note=40 velocity=0 time=0.00394736875
EXTRACT: note_on channel=9 note=85 velocity=0 time=0.0013157895833333334
EXTRACT: note_on channel=9 note=54 velocity=0 time=0
EXTRACT: note_on channel=9 note=31 velocity=0 time=0.0006578947916666667
EXTRACT: note_on channel=9 note=39 velocity=0 time=0.0006578947916666667
EXTRACT: note_on channel=9 note=70 velocity=0 time=0.008552632291666667
EXTRACT: note_on channel=5 note=70 velocity=0 time=0.06447368958333334
EXTRACT: note_on channel=2 note=70 velocity=0 time=0
EXTRACT: note_on channel=2 note=75 velocity=0 time=0.001973684375
EXTRACT: note_on channel=5 note=75 velocity=0 time=0
EXTRACT: note_on channel=2 note=79 velocity=0 time=0.013815790625000001
EXTRACT: note_on channel=5 note=79 velocity=0 time=0
EXTRACT: note_on channel=1 note=39 velocity=122 time=0.16907896145833334
EXTRACT: note_on channel=1 note=27 velocity=94 time=0
EXTRACT: note_on channel=2 note=75 velocity=112 time=0
EXTRACT: note_on channel=2 note=70 velocity=109 time=0
EXTRACT: note_on channel=2 note=79 velocity=103 time=0
EXTRACT: note_on channel=5 note=75 velocity=112 time=0
EXTRACT: note_on channel=5 note=70 velocity=109 time=0
EXTRACT: note_on channel=5 note=79 velocity=103 time=0
EXTRACT: note_on channel=6 note=15 velocity=94 time=0
EXTRACT: note_on channel=6 note=27 velocity=122 time=0
EXTRACT: note_on channel=7 note=27 velocity=122 time=0
EXTRACT: note_on channel=9 note=70 velocity=114 time=0
EXTRACT: note_on channel=9 note=42 velocity=81 time=0
EXTRACT: note_on channel=9 note=35 velocity=127 time=0
EXTRACT: note_on channel=9 note=70 velocity=0 time=0.05000000416666667
EXTRACT: note_on channel=9 note=42 velocity=0 time=0.00394736875
EXTRACT: note_on channel=9 note=35 velocity=0 time=0.0078947375
EXTRACT: note_on channel=5 note=79 velocity=0 time=0.10197369270833334
EXTRACT: note_on channel=2 note=79 velocity=0 time=0
EXTRACT: note_on channel=5 note=70 velocity=0 time=0.0006578947916666667
EXTRACT: note_on channel=2 note=70 velocity=0 time=0
EXTRACT: note_on channel=2 note=75 velocity=0 time=0.005921053125000001
EXTRACT: note_on channel=3 note=60 velocity=0 time=0
EXTRACT: note_on channel=5 note=75 velocity=0 time=0
EXTRACT: note_on channel=9 note=31 velocity=119 time=0.0032894739583333335
EXTRACT: note_on channel=9 note=85 velocity=116 time=0
EXTRACT: note_on channel=7 note=27 velocity=0 time=0.009210527083333333
EXTRACT: note_on channel=9 note=85 velocity=0 time=0.03815789791666667
EXTRACT: note_on channel=9 note=31 velocity=0 time=0.010526316666666667
EXTRACT: note_on channel=6 note=15 velocity=0 time=0.027631581250000002
EXTRACT: note_on channel=6 note=27 velocity=0 time=0
EXTRACT: note_on channel=1 note=27 velocity=0 time=0
EXTRACT: note_on channel=1 note=39 velocity=0 time=0
EXTRACT: note_on channel=15 note=67 velocity=0 time=0.056578952083333335
EXTRACT: note_on channel=15 note=70 velocity=0 time=0
EXTRACT: note_on channel=15 note=63 velocity=0 time=0
EXTRACT: note_on channel=8 note=63 velocity=0 time=0
EXTRACT: note_on channel=1 note=39 velocity=127 time=0
EXTRACT: note_on channel=2 note=75 velocity=114 time=0
EXTRACT: note_on channel=2 note=79 velocity=105 time=0
EXTRACT: note_on channel=2 note=70 velocity=112 time=0
EXTRACT: note_on channel=3 note=58 velocity=101 time=0
EXTRACT: note_on channel=5 note=70 velocity=112 time=0
EXTRACT: note_on channel=5 note=75 velocity=114 time=0
EXTRACT: note_on channel=5 note=79 velocity=105 time=0
EXTRACT: note_on channel=6 note=27 velocity=127 time=0
EXTRACT: note_on channel=7 note=27 velocity=119 time=0
EXTRACT: note_on channel=8 note=63 velocity=84 time=0
EXTRACT: note_on channel=8 note=58 velocity=84 time=0
EXTRACT: note_on channel=8 note=67 velocity=84 time=0
EXTRACT: note_on channel=9 note=70 velocity=122 time=0
EXTRACT: note_on channel=9 note=35 velocity=127 time=0
EXTRACT: note_on channel=9 note=42 velocity=110 time=0
EXTRACT: note_on channel=15 note=72 velocity=1 time=0
EXTRACT: note_on channel=15 note=68 velocity=1 time=0
EXTRACT: note_on channel=15 note=65 velocity=1 time=0
EXTRACT: note_on channel=8 note=55 velocity=0 time=0.0006578947916666667
EXTRACT: note_on channel=8 note=58 velocity=0 time=0.010526316666666667
EXTRACT: note_on channel=9 note=35 velocity=0 time=0.04802631979166667
EXTRACT: note_on channel=9 note=42 velocity=0 time=0.005921053125000001
EXTRACT: note_on channel=9 note=70 velocity=0 time=0.001973684375
EXTRACT: note_on channel=3 note=56 velocity=107 time=0.096710534375
EXTRACT: note_on channel=3 note=58 velocity=0 time=0.008552632291666667
EXTRACT: note_on channel=5 note=79 velocity=0 time=0.017105264583333335
EXTRACT: note_on channel=2 note=79 velocity=0 time=0
EXTRACT: note_on channel=5 note=75 velocity=0 time=0.002631579166666667
EXTRACT: note_on channel=2 note=75 velocity=0 time=0
EXTRACT: note_on channel=6 note=27 velocity=0 time=0.0032894739583333335
EXTRACT: note_on channel=1 note=39 velocity=0 time=0
EXTRACT: note_on channel=5 note=70 velocity=0 time=0.0013157895833333334
EXTRACT: note_on channel=2 note=70 velocity=0 time=0
EXTRACT: note_on channel=1 note=41 velocity=124 time=0.11907895729166668
EXTRACT: note_on channel=1 note=29 velocity=96 time=0
EXTRACT: note_on channel=2 note=80 velocity=109 time=0
EXTRACT: note_on channel=2 note=77 velocity=109 time=0
EXTRACT: note_on channel=2 note=72 velocity=103 time=0
EXTRACT: note_on channel=3 note=53 velocity=94 time=0
EXTRACT: note_on channel=5 note=80 velocity=109 time=0
EXTRACT: note_on channel=5 note=77 velocity=109 time=0
EXTRACT: note_on channel=5 note=72 velocity=103 time=0
EXTRACT: note_on channel=6 note=29 velocity=124 time=0
EXTRACT: note_on channel=6 note=17 velocity=96 time=0
EXTRACT: note_on channel=7 note=29 velocity=112 time=0
EXTRACT: note_on channel=8 note=60 velocity=84 time=0
EXTRACT: note_on channel=8 note=68 velocity=84 time=0
EXTRACT: note_on channel=8 note=65 velocity=84 time=0
EXTRACT: note_on channel=9 note=70 velocity=114 time=0
EXTRACT: note_on channel=9 note=42 velocity=86 time=0
EXTRACT: note_on channel=8 note=63 velocity=0 time=0.001973684375
EXTRACT: note_on channel=8 note=67 velocity=0 time=0.006578947916666667
EXTRACT: note_on channel=8 note=58 velocity=0 time=0.011842106250000001
EXTRACT: note_on channel=7 note=27 velocity=0 time=0.002631579166666667
EXTRACT: note_on channel=3 note=56 velocity=0 time=0.026315791666666668
EXTRACT: note_on channel=9 note=70 velocity=0 time=0.002631579166666667
EXTRACT: note_on channel=9 note=42 velocity=0 time=0.005263158333333334
EXTRACT: note_on channel=5 note=72 velocity=0 time=0.050657898958333336
EXTRACT: note_on channel=2 note=72 velocity=0 time=0
EXTRACT: note_on channel=2 note=77 velocity=0 time=0.0013157895833333334
EXTRACT: note_on channel=5 note=77 velocity=0 time=0
EXTRACT: note_on channel=2 note=80 velocity=0 time=0.012500001041666667
EXTRACT: note_on channel=5 note=80 velocity=0 time=0
EXTRACT: note_on channel=3 note=53 velocity=0 time=0.07368421666666666
EXTRACT: note_on channel=7 note=29 velocity=0 time=0.06381579479166667
EXTRACT: note_on channel=1 note=29 velocity=0 time=0.008552632291666667
EXTRACT: note_on channel=6 note=29 velocity=0 time=0
EXTRACT: note_on channel=6 note=17 velocity=0 time=0
EXTRACT: note_on channel=1 note=41 velocity=0 time=0
EXTRACT: note_on channel=2 note=72 velocity=103 time=0.04802631979166667
EXTRACT: note_on channel=2 note=80 velocity=109 time=0
EXTRACT: note_on channel=2 note=77 velocity=107 time=0
EXTRACT: note_on channel=3 note=51 velocity=119 time=0
EXTRACT: note_on channel=5 note=72 velocity=103 time=0
EXTRACT: note_on channel=5 note=80 velocity=109 time=0
EXTRACT: note_on channel=5 note=77 velocity=107 time=0
EXTRACT: note_on channel=9 note=70 velocity=119 time=0
EXTRACT: note_on channel=9 note=54 velocity=122 time=0
EXTRACT: note_on channel=9 note=42 velocity=104 time=0
EXTRACT: note_on channel=9 note=40 velocity=127 time=0
EXTRACT: note_on channel=9 note=85 velocity=114 time=0
EXTRACT: note_on channel=9 note=31 velocity=122 time=0
EXTRACT: note_on channel=9 note=39 velocity=127 time=0
EXTRACT: note_on channel=9 note=42 velocity=0 time=0.04605263541666667
EXTRACT: note_on channel=9 note=39 velocity=0 time=0.002631579166666667
EXTRACT: note_on channel=9 note=40 velocity=0 time=0.001973684375
EXTRACT: note_on channel=9 note=31 velocity=0 time=0.0032894739583333335
EXTRACT: note_on channel=9 note=54 velocity=0 time=0.005263158333333334
EXTRACT: note_on channel=9 note=85 velocity=0 time=0.005921053125000001
EXTRACT: note_on channel=9 note=70 velocity=0 time=0.0013157895833333334
EXTRACT: note_on channel=3 note=51 velocity=0 time=0.021710528125
EXTRACT: note_on channel=2 note=77 velocity=0 time=0.012500001041666667
EXTRACT: note_on channel=5 note=77 velocity=0 time=0
EXTRACT: note_on channel=2 note=80 velocity=0 time=0.0046052635416666664
EXTRACT: note_on channel=5 note=80 velocity=0 time=0
EXTRACT: note_on channel=2 note=72 velocity=0 time=0.009868421875
EXTRACT: note_on channel=5 note=72 velocity=0 time=0
EXTRACT: note_on channel=3 note=51 velocity=109 time=0.048684214583333336
EXTRACT: note_on channel=3 note=51 velocity=0 time=0.05197368854166667
EXTRACT: note_on channel=1 note=27 velocity=114 time=0.10000000833333333
EXTRACT: note_on channel=1 note=39 velocity=112 time=0
EXTRACT: note_on channel=2 note=72 velocity=96 time=0
EXTRACT: note_on channel=2 note=80 velocity=101 time=0
EXTRACT: note_on channel=2 note=77 velocity=101 time=0
EXTRACT: note_on channel=3 note=51 velocity=109 time=0
EXTRACT: note_on channel=5 note=72 velocity=96 time=0
EXTRACT: note_on channel=5 note=80 velocity=101 time=0
EXTRACT: note_on channel=5 note=77 velocity=101 time=0
EXTRACT: note_on channel=6 note=27 velocity=112 time=0
EXTRACT: note_on channel=6 note=15 velocity=114 time=0
EXTRACT: note_on channel=9 note=70 velocity=116 time=0
EXTRACT: note_on channel=9 note=42 velocity=77 time=0
EXTRACT: note_on channel=9 note=70 velocity=0 time=0.05000000416666667
EXTRACT: note_on channel=3 note=51 velocity=0 time=0.001973684375
EXTRACT: note_on channel=9 note=42 velocity=0 time=0.009210527083333333
EXTRACT: note_on channel=5 note=77 velocity=0 time=0.054605267708333335
EXTRACT: note_on channel=2 note=77 velocity=0 time=0
EXTRACT: note_on channel=2 note=80 velocity=0 time=0.009868421875
EXTRACT: note_on channel=5 note=80 velocity=0 time=0
EXTRACT: note_on channel=2 note=72 velocity=0 time=0.005263158333333334
EXTRACT: note_on channel=5 note=72 velocity=0 time=0
EXTRACT: note_on channel=3 note=51 velocity=105 time=0.03289473958333333
EXTRACT: note_on channel=1 note=41 velocity=122 time=0.009868421875
EXTRACT: note_on channel=1 note=29 velocity=109 time=0
EXTRACT: note_on channel=6 note=17 velocity=109 time=0
EXTRACT: note_on channel=6 note=29 velocity=122 time=0
EXTRACT: note_on channel=9 note=35 velocity=127 time=0
EXTRACT: note_on channel=6 note=15 velocity=0 time=0.0032894739583333335
EXTRACT: note_on channel=1 note=27 velocity=0 time=0
EXTRACT: note_on channel=6 note=27 velocity=0 time=0.019078948958333335
EXTRACT: note_on channel=1 note=39 velocity=0 time=0
EXTRACT: note_on channel=3 note=51 velocity=0 time=0.016447369791666666
EXTRACT: note_on channel=9 note=35 velocity=0 time=0.018421054166666666
EXTRACT: note_on channel=1 note=29 velocity=0 time=0.080921059375
EXTRACT: note_on channel=6 note=17 velocity=0 time=0
EXTRACT: note_on channel=1 note=24 velocity=79 time=0.00394736875
EXTRACT: note_on channel=1 note=36 velocity=107 time=0
EXTRACT: note_on channel=2 note=72 velocity=101 time=0
EXTRACT: note_on channel=2 note=77 velocity=105 time=0
EXTRACT: note_on channel=2 note=80 velocity=107 time=0
EXTRACT: note_on channel=3 note=51 velocity=116 time=0
EXTRACT: note_on channel=5 note=72 velocity=101 time=0
EXTRACT: note_on channel=5 note=80 velocity=107 time=0
EXTRACT: note_on channel=5 note=77 velocity=105 time=0
EXTRACT: note_on channel=6 note=12 velocity=79 time=0
EXTRACT: note_on channel=6 note=24 velocity=107 time=0
EXTRACT: note_on channel=9 note=70 velocity=122 time=0
EXTRACT: note_on channel=9 note=35 velocity=124 time=0
EXTRACT: note_on channel=9 note=42 velocity=104 time=0
EXTRACT: note_on channel=6 note=29 velocity=0 time=0.005921053125000001
EXTRACT: note_on channel=1 note=41 velocity=0 time=0
EXTRACT: note_on channel=9 note=42 velocity=0 time=0.04802631979166667
EXTRACT: note_on channel=9 note=35 velocity=0 time=0.005921053125000001
EXTRACT: note_on channel=9 note=70 velocity=0 time=0.005921053125000001
EXTRACT: note_on channel=3 note=51 velocity=0 time=0.04473684583333334
EXTRACT: note_on channel=5 note=77 velocity=0 time=0.027631581250000002
EXTRACT: note_on channel=2 note=77 velocity=0 time=0
EXTRACT: note_on channel=2 note=72 velocity=0 time=0.0078947375
EXTRACT: note_on channel=5 note=72 velocity=0 time=0
EXTRACT: note_on channel=5 note=80 velocity=0 time=0.0006578947916666667
EXTRACT: note_on channel=2 note=80 velocity=0 time=0
EXTRACT: note_on channel=1 note=36 velocity=0 time=0.025000002083333334
EXTRACT: note_on channel=6 note=24 velocity=0 time=0
EXTRACT: note_on channel=6 note=12 velocity=0 time=0
EXTRACT: note_on channel=1 note=24 velocity=0 time=0
EXTRACT: note_on channel=1 note=36 velocity=96 time=0.144078959375
EXTRACT: note_on channel=1 note=24 velocity=68 time=0
EXTRACT: note_on channel=2 note=80 velocity=107 time=0
EXTRACT: note_on channel=2 note=72 velocity=96 time=0
EXTRACT: note_on channel=2 note=77 velocity=105 time=0
EXTRACT: note_on channel=3 note=53 velocity=127 time=0
EXTRACT: note_on channel=5 note=80 velocity=107 time=0
EXTRACT: note_on channel=5 note=72 velocity=96 time=0
EXTRACT: note_on channel=5 note=77 velocity=105 time=0
EXTRACT: note_on channel=6 note=24 velocity=96 time=0
EXTRACT: note_on channel=6 note=12 velocity=68 time=0
EXTRACT: note_on channel=9 note=70 velocity=112 time=0
EXTRACT: note_on channel=9 note=35 velocity=127 time=0
EXTRACT: note_on channel=9 note=46 velocity=80 time=0
EXTRACT: note_on channel=9 note=46 velocity=0 time=0.04342105625
EXTRACT: note_on channel=9 note=70 velocity=0 time=0.001973684375
EXTRACT: note_on channel=9 note=35 velocity=0 time=0.011842106250000001
EXTRACT: note_on channel=5 note=77 velocity=0 time=0.07171053229166667
EXTRACT: note_on channel=2 note=77 velocity=0 time=0
EXTRACT: note_on channel=2 note=72 velocity=0 time=0.0006578947916666667
EXTRACT: note_on channel=5 note=72 velocity=0 time=0
EXTRACT: note_on channel=2 note=80 velocity=0 time=0.0078947375
EXTRACT: note_on channel=5 note=80 velocity=0 time=0
EXTRACT: note_on channel=3 note=53 velocity=0 time=0.021052633333333334
EXTRACT: note_on channel=6 note=24 velocity=0 time=0.12763158958333334
EXTRACT: note_on channel=1 note=36 velocity=0 time=0
EXTRACT: note_on channel=6 note=12 velocity=0 time=0
EXTRACT: note_on channel=1 note=24 velocity=0 time=0
EXTRACT: note_on channel=2 note=72 velocity=93 time=0.029605265625000002
EXTRACT: note_on channel=2 note=77 velocity=103 time=0
EXTRACT: note_on channel=2 note=80 velocity=105 time=0
EXTRACT: note_on channel=5 note=72 velocity=93 time=0
EXTRACT: note_on channel=5 note=77 velocity=103 time=0
EXTRACT: note_on channel=5 note=80 velocity=105 time=0
EXTRACT: note_on channel=9 note=70 velocity=119 time=0
EXTRACT: note_on channel=9 note=54 velocity=122 time=0
EXTRACT: note_on channel=9 note=40 velocity=127 time=0
EXTRACT: note_on channel=9 note=85 velocity=116 time=0
EXTRACT: note_on channel=9 note=31 velocity=119 time=0
EXTRACT: note_on channel=9 note=42 velocity=114 time=0
EXTRACT: note_on channel=9 note=39 velocity=127 time=0
EXTRACT: note_on channel=9 note=39 velocity=0 time=0.048684214583333336
EXTRACT: note_on channel=9 note=42 velocity=0 time=0.002631579166666667
EXTRACT: note_on channel=9 note=31 velocity=0 time=0
EXTRACT: note_on channel=9 note=40 velocity=0 time=0.0006578947916666667
EXTRACT: note_on channel=9 note=85 velocity=0 time=0.009210527083333333
EXTRACT: note_on channel=9 note=54 velocity=0 time=0
EXTRACT: note_on channel=9 note=70 velocity=0 time=0.0013157895833333334
EXTRACT: note_on channel=2 note=77 velocity=0 time=0.047368425000000006
EXTRACT: note_on channel=5 note=77 velocity=0 time=0
EXTRACT: note_on channel=2 note=80 velocity=0 time=0.009868421875
EXTRACT: note_on channel=5 note=80 velocity=0 time=0
EXTRACT: note_on channel=2 note=72 velocity=0 time=0.002631579166666667
EXTRACT: note_on channel=5 note=72 velocity=0 time=0
EXTRACT: note_on channel=3 note=53 velocity=127 time=0.041447371875
EXTRACT: note_on channel=1 note=24 velocity=114 time=0.151973696875
EXTRACT: note_on channel=1 note=36 velocity=122 time=0
EXTRACT: note_on channel=2 note=77 velocity=96 time=0
EXTRACT: note_on channel=2 note=80 velocity=98 time=0
EXTRACT: note_on channel=2 note=72 velocity=87 time=0
EXTRACT: note_on channel=5 note=77 velocity=96 time=0
EXTRACT: note_on channel=5 note=80 velocity=98 time=0
EXTRACT: note_on channel=5 note=72 velocity=87 time=0
EXTRACT: note_on channel=6 note=12 velocity=114 time=0
EXTRACT: note_on channel=6 note=24 velocity=122 time=0
EXTRACT: note_on channel=9 note=70 velocity=116 time=0
EXTRACT: note_on channel=9 note=42 velocity=78 time=0
EXTRACT: note_on channel=9 note=42 velocity=0 time=0.05394737291666667
EXTRACT: note_on channel=9 note=70 velocity=0 time=0.0078947375
EXTRACT: note_on channel=5 note=77 velocity=0 time=0.06973684791666666
EXTRACT: note_on channel=2 note=77 velocity=0 time=0
EXTRACT: note_on channel=2 note=80 velocity=0 time=0.006578947916666667
EXTRACT: note_on channel=5 note=80 velocity=0 time=0
EXTRACT: note_on channel=2 note=72 velocity=0 time=0.013157895833333334
EXTRACT: note_on channel=5 note=72 velocity=0 time=0
EXTRACT: note_on channel=9 note=31 velocity=109 time=0.02236842291666667
EXTRACT: note_on channel=9 note=85 velocity=93 time=0
EXTRACT: note_on channel=9 note=31 velocity=0 time=0.057236846875000004
EXTRACT: note_on channel=9 note=85 velocity=0 time=0.0078947375
EXTRACT: note_on channel=3 note=53 velocity=0 time=0
EXTRACT: note_on channel=6 note=12 velocity=0 time=0.009210527083333333
EXTRACT: note_on channel=1 note=24 velocity=0 time=0
EXTRACT: note_on channel=6 note=24 velocity=0 time=0.00394736875
EXTRACT: note_on channel=1 note=36 velocity=0 time=0
EXTRACT: note_on channel=8 note=68 velocity=0 time=0.033552634375
EXTRACT: note_on channel=8 note=60 velocity=0 time=0.006578947916666667
EXTRACT: note_on channel=8 note=65 velocity=0 time=0.0013157895833333334
EXTRACT: note_on channel=15 note=65 velocity=0 time=0.02236842291666667
EXTRACT: note_on channel=15 note=68 velocity=0 time=0
EXTRACT: note_on channel=15 note=72 velocity=0 time=0
EXTRACT: note_on channel=1 note=37 velocity=109 time=0
EXTRACT: note_on channel=1 note=25 velocity=81 time=0
EXTRACT: note_on channel=2 note=72 velocity=96 time=0
EXTRACT: note_on channel=2 note=77 velocity=101 time=0
EXTRACT: note_on channel=2 note=80 velocity=105 time=0
EXTRACT: note_on channel=4 note=60 velocity=98 time=0
EXTRACT: note_on channel=5 note=80 velocity=105 time=0
EXTRACT: note_on channel=5 note=77 velocity=101 time=0
EXTRACT: note_on channel=5 note=72 velocity=96 time=0
EXTRACT: note_on channel=6 note=25 velocity=109 time=0
EXTRACT: note_on channel=6 note=13 velocity=81 time=0
EXTRACT: note_on channel=8 note=65 velocity=84 time=0
EXTRACT: note_on channel=8 note=61 velocity=84 time=0
EXTRACT: note_on channel=8 note=56 velocity=84 time=0
EXTRACT: note_on channel=9 note=70 velocity=119 time=0
EXTRACT: note_on channel=9 note=35 velocity=127 time=0
EXTRACT: note_on channel=9 note=42 velocity=110 time=0
EXTRACT: note_on channel=15 note=61 velocity=1 time=0
EXTRACT: note_on channel=15 note=68 velocity=1 time=0
EXTRACT: note_on channel=15 note=65 velocity=1 time=0
EXTRACT: note_on channel=9 note=42 velocity=0 time=0.06513158437500001
EXTRACT: note_on channel=9 note=35 velocity=0 time=0
EXTRACT: note_on channel=9 note=70 velocity=0 time=0.00394736875
EXTRACT: note_on channel=2 note=77 velocity=0 time=0.051315793750000005
EXTRACT: note_on channel=5 note=77 velocity=0 time=0
EXTRACT: note_on channel=2 note=80 velocity=0 time=0.017105264583333335
EXTRACT: note_on channel=5 note=80 velocity=0 time=0
EXTRACT: note_on channel=5 note=72 velocity=0 time=0.002631579166666667
EXTRACT: note_on channel=2 note=72 velocity=0 time=0
EXTRACT: note_on channel=1 note=37 velocity=0 time=0.04078947708333334
EXTRACT: note_on channel=6 note=25 velocity=0 time=0
EXTRACT: note_on channel=6 note=13 velocity=0 time=0
EXTRACT: note_on channel=1 note=25 velocity=0 time=0
EXTRACT: note_on channel=1 note=25 velocity=77 time=0.13486843229166667
EXTRACT: note_on channel=1 note=37 velocity=105 time=0
EXTRACT: note_on channel=2 note=80 velocity=101 time=0
EXTRACT: note_on channel=2 note=77 velocity=98 time=0
EXTRACT: note_on channel=2 note=72 velocity=89 time=0
EXTRACT: note_on channel=5 note=80 velocity=101 time=0
EXTRACT: note_on channel=5 note=77 velocity=98 time=0
EXTRACT: note_on channel=5 note=72 velocity=89 time=0
EXTRACT: note_on channel=6 note=25 velocity=105 time=0
EXTRACT: note_on channel=6 note=13 velocity=77 time=0
EXTRACT: note_on channel=9 note=70 velocity=116 time=0
EXTRACT: note_on channel=9 note=42 velocity=84 time=0
EXTRACT: note_on channel=9 note=70 velocity=0 time=0.05197368854166667
EXTRACT: note_on channel=9 note=42 velocity=0 time=0.005263158333333334
EXTRACT: note_on channel=5 note=77 velocity=0 time=0.06578947916666666
EXTRACT: note_on channel=2 note=77 velocity=0 time=0
EXTRACT: note_on channel=2 note=80 velocity=0 time=0.006578947916666667
EXTRACT: note_on channel=5 note=80 velocity=0 time=0
EXTRACT: note_on channel=2 note=72 velocity=0 time=0.001973684375
EXTRACT: note_on channel=5 note=72 velocity=0 time=0
EXTRACT: note_on channel=4 note=60 velocity=0 time=0.084868428125
EXTRACT: note_on channel=6 note=25 velocity=0 time=0.060526320833333334
EXTRACT: note_on channel=1 note=25 velocity=0 time=0
EXTRACT: note_on channel=6 note=13 velocity=0 time=0
EXTRACT: note_on channel=1 note=37 velocity=0 time=0
EXTRACT: note_on channel=2 note=80 velocity=105 time=0.03881579270833334
EXTRACT: note_on channel=2 note=77 velocity=101 time=0
EXTRACT: note_on channel=2 note=72 velocity=96 time=0
EXTRACT: note_on channel=4 note=58 velocity=114 time=0
EXTRACT: note_on channel=5 note=72 velocity=96 time=0
EXTRACT: note_on channel=5 note=80 velocity=105 time=0
EXTRACT: note_on channel=5 note=77 velocity=101 time=0
EXTRACT: note_on channel=9 note=70 velocity=122 time=0
EXTRACT: note_on channel=9 note=54 velocity=124 time=0
EXTRACT: note_on channel=9 note=40 velocity=127 time=0
EXTRACT: note_on channel=9 note=85 velocity=116 time=0
EXTRACT: note_on channel=9 note=31 velocity=122 time=0
EXTRACT: note_on channel=9 note=39 velocity=127 time=0
EXTRACT: note_on channel=9 note=42 velocity=104 time=0
EXTRACT: note_on channel=9 note=42 velocity=0 time=0.04605263541666667
EXTRACT: note_on channel=9 note=39 velocity=0 time=0.0006578947916666667
EXTRACT: note_on channel=9 note=31 velocity=0 time=0.008552632291666667
EXTRACT: note_on channel=9 note=85 velocity=0 time=0.0013157895833333334
EXTRACT: note_on channel=9 note=40 velocity=0 time=0.001973684375
EXTRACT: note_on channel=9 note=54 velocity=0 time=0.0013157895833333334
EXTRACT: note_on channel=9 note=70 velocity=0 time=0.017105264583333335
EXTRACT: note_on channel=2 note=77 velocity=0 time=0.03552631875
EXTRACT: note_on channel=5 note=77 velocity=0 time=0
EXTRACT: note_on channel=2 note=80 velocity=0 time=0.009210527083333333
EXTRACT: note_on channel=5 note=80 velocity=0 time=0
EXTRACT: note_on channel=2 note=72 velocity=0 time=0.005263158333333334
EXTRACT: note_on channel=5 note=72 velocity=0 time=0
EXTRACT: note_on channel=4 note=58 velocity=0 time=0.03486842395833333
EXTRACT: note_on channel=2 note=72 velocity=89 time=0.15394738125000001
EXTRACT: note_on channel=2 note=77 velocity=96 time=0
EXTRACT: note_on channel=2 note=80 velocity=101 time=0
EXTRACT: note_on channel=4 note=56 velocity=107 time=0
EXTRACT: note_on channel=5 note=72 velocity=89 time=0
EXTRACT: note_on channel=5 note=80 velocity=101 time=0
EXTRACT: note_on channel=5 note=77 velocity=96 time=0
EXTRACT: note_on channel=9 note=70 velocity=94 time=0
EXTRACT: note_on channel=9 note=42 velocity=83 time=0
EXTRACT: note_on channel=9 note=70 velocity=0 time=0.03486842395833333
EXTRACT: note_on channel=9 note=42 velocity=0 time=0.026315791666666668
EXTRACT: note_on channel=2 note=77 velocity=0 time=0.053289478125000005
EXTRACT: note_on channel=5 note=77 velocity=0 time=0
EXTRACT: note_on channel=5 note=72 velocity=0 time=0.0006578947916666667
EXTRACT: note_on channel=2 note=72 velocity=0 time=0
EXTRACT: note_on channel=2 note=80 velocity=0 time=0.0078947375
EXTRACT: note_on channel=5 note=80 velocity=0 time=0
EXTRACT: note_on channel=1 note=37 velocity=112 time=0.050657898958333336
EXTRACT: note_on channel=1 note=25 velocity=84 time=0
EXTRACT: note_on channel=6 note=13 velocity=84 time=0
EXTRACT: note_on channel=6 note=25 velocity=112 time=0
EXTRACT: note_on channel=9 note=35 velocity=127 time=0
EXTRACT: note_on channel=4 note=56 velocity=0 time=0.030263160416666667
EXTRACT: note_on channel=9 note=35 velocity=0 time=0.024342107291666668
EXTRACT: note_on channel=1 note=25 velocity=0 time=0.006578947916666667
EXTRACT: note_on channel=6 note=25 velocity=0 time=0
EXTRACT: note_on channel=1 note=37 velocity=0 time=0
EXTRACT: note_on channel=6 note=13 velocity=0 time=0
EXTRACT: note_on channel=8 note=56 velocity=0 time=0.07697369062500001
EXTRACT: note_on channel=8 note=61 velocity=0 time=0
EXTRACT: note_on channel=15 note=68 velocity=0 time=0.00394736875
EXTRACT: note_on channel=15 note=65 velocity=0 time=0
EXTRACT: note_on channel=15 note=61 velocity=0 time=0
EXTRACT: note_on channel=8 note=65 velocity=0 time=0
EXTRACT: note_on channel=1 note=27 velocity=79 time=0
EXTRACT: note_on channel=1 note=39 velocity=107 time=0
EXTRACT: note_on channel=2 note=72 velocity=98 time=0
EXTRACT: note_on channel=2 note=77 velocity=107 time=0
EXTRACT: note_on channel=2 note=80 velocity=109 time=0
EXTRACT: note_on channel=4 note=58 velocity=73 time=0
EXTRACT: note_on channel=5 note=72 velocity=98 time=0
EXTRACT: note_on channel=5 note=80 velocity=109 time=0
EXTRACT: note_on channel=5 note=77 velocity=107 time=0
EXTRACT: note_on channel=6 note=15 velocity=79 time=0
EXTRACT: note_on channel=6 note=27 velocity=107 time=0
EXTRACT: note_on channel=9 note=70 velocity=116 time=0
EXTRACT: note_on channel=9 note=35 velocity=127 time=0
EXTRACT: note_on channel=9 note=42 velocity=104 time=0
EXTRACT: note_on channel=15 note=70 velocity=1 time=0
EXTRACT: note_on channel=15 note=63 velocity=1 time=0
EXTRACT: note_on channel=15 note=67 velocity=1 time=0
EXTRACT: note_on channel=9 note=42 velocity=0 time=0.05394737291666667
EXTRACT: note_on channel=9 note=35 velocity=0 time=0
EXTRACT: note_on channel=9 note=70 velocity=0 time=0.001973684375
EXTRACT: pitchwheel channel=4 pitch=-1294 time=0.06973684791666666
EXTRACT: pitchwheel channel=4 pitch=-4313 time=0.015789475
EXTRACT: pitchwheel channel=4 pitch=-7073 time=0.015789475
EXTRACT: pitchwheel channel=4 pitch=-8192 time=0.015131580208333334
EXTRACT: note_on channel=2 note=77 velocity=0 time=0.002631579166666667
EXTRACT: note_on channel=5 note=77 velocity=0 time=0
EXTRACT: note_on channel=2 note=72 velocity=0 time=0.00394736875
EXTRACT: note_on channel=5 note=72 velocity=0 time=0
EXTRACT: note_on channel=5 note=80 velocity=0 time=0.0032894739583333335
EXTRACT: note_on channel=2 note=80 velocity=0 time=0
EXTRACT: note_on channel=6 note=15 velocity=0 time=0.03552631875
EXTRACT: note_on channel=1 note=27 velocity=0 time=0
EXTRACT: note_on channel=6 note=27 velocity=0 time=0
EXTRACT: note_on channel=1 note=39 velocity=0 time=0
EXTRACT: note_on channel=4 note=58 velocity=0 time=0.028947370833333333
EXTRACT: note_on channel=1 note=27 velocity=77 time=0.06907895312500001
EXTRACT: note_on channel=1 note=39 velocity=105 time=0
EXTRACT: note_on channel=2 note=75 velocity=112 time=0
EXTRACT: note_on channel=2 note=70 velocity=105 time=0
EXTRACT: note_on channel=2 note=79 velocity=96 time=0
EXTRACT: note_on channel=4 note=53 velocity=91 time=0
EXTRACT: note_on channel=5 note=75 velocity=112 time=0
EXTRACT: note_on channel=5 note=70 velocity=105 time=0
EXTRACT: note_on channel=5 note=79 velocity=96 time=0
EXTRACT: note_on channel=6 note=15 velocity=77 time=0
EXTRACT: note_on channel=6 note=27 velocity=105 time=0
EXTRACT: note_on channel=9 note=70 velocity=122 time=0
EXTRACT: note_on channel=9 note=35 velocity=127 time=0
EXTRACT: note_on channel=9 note=42 velocity=87 time=0
EXTRACT: pitchwheel channel=4 pitch=0 time=0.013157895833333334
EXTRACT: note_on channel=9 note=70 velocity=0 time=0.014473685416666666
EXTRACT: note_on channel=9 note=42 velocity=0 time=0.015789475
EXTRACT: note_on channel=9 note=35 velocity=0 time=0.016447369791666666
EXTRACT: note_on channel=2 note=75 velocity=0 time=0.06710526875
EXTRACT: note_on channel=5 note=75 velocity=0 time=0
EXTRACT: note_on channel=2 note=79 velocity=0 time=0.010526316666666667
EXTRACT: note_on channel=5 note=79 velocity=0 time=0
EXTRACT: note_on channel=5 note=70 velocity=0 time=0.001973684375
EXTRACT: note_on channel=2 note=70 velocity=0 time=0
EXTRACT: note_on channel=3 note=53 velocity=119 time=0.024342107291666668
EXTRACT: note_on channel=4 note=53 velocity=0 time=0.009210527083333333
EXTRACT: note_on channel=3 note=53 velocity=0 time=0.04473684583333334
EXTRACT: note_on channel=6 note=27 velocity=0 time=0.04078947708333334
EXTRACT: note_on channel=1 note=27 velocity=0 time=0
EXTRACT: note_on channel=6 note=15 velocity=0 time=0
EXTRACT: note_on channel=1 note=39 velocity=0 time=0
EXTRACT: note_on channel=3 note=56 velocity=116 time=0.057236846875000004
EXTRACT: note_on channel=4 note=53 velocity=64 time=0
EXTRACT: note_on channel=3 note=56 velocity=0 time=0.06842105833333334
EXTRACT: note_on channel=3 note=56 velocity=107 time=0.09539474479166667
EXTRACT: note_on channel=3 note=56 velocity=0 time=0.07236842708333334
EXTRACT: note_on channel=3 note=56 velocity=105 time=0.07960526979166667
EXTRACT: note_on channel=3 note=56 velocity=0 time=0.07434211145833333
EXTRACT: note_on channel=4 note=53 velocity=0 time=0.055263162500000004
EXTRACT: note_on channel=3 note=56 velocity=103 time=0.03421052916666667
EXTRACT: note_on channel=3 note=56 velocity=0 time=0.06710526875
EXTRACT: note_on channel=15 note=67 velocity=0 time=0.084868428125
EXTRACT: note_on channel=15 note=70 velocity=0 time=0
EXTRACT: note_on channel=15 note=63 velocity=0 time=0
EXTRACT: note_on channel=3 note=56 velocity=116 time=0
EXTRACT: note_on channel=15 note=72 velocity=1 time=0
EXTRACT: note_on channel=15 note=68 velocity=1 time=0
EXTRACT: note_on channel=15 note=65 velocity=1 time=0
EXTRACT: note_on channel=3 note=56 velocity=0 time=0.11578948333333333
EXTRACT: note_on channel=3 note=53 velocity=122 time=0.20000001666666667
EXTRACT: note_on channel=3 note=53 velocity=0 time=0.16315790833333335
EXTRACT: note_on channel=3 note=56 velocity=119 time=0.15263159166666668
EXTRACT: note_on channel=9 note=42 velocity=88 time=0
EXTRACT: note_on channel=9 note=37 velocity=122 time=0
EXTRACT: note_on channel=9 note=85 velocity=114 time=0
EXTRACT: note_on channel=9 note=31 velocity=122 time=0
EXTRACT: note_on channel=9 note=42 velocity=0 time=0.04605263541666667
EXTRACT: note_on channel=9 note=31 velocity=0 time=0.0078947375
EXTRACT: note_on channel=9 note=37 velocity=0 time=0
EXTRACT: note_on channel=9 note=85 velocity=0 time=0.011184211458333334
EXTRACT: note_on channel=3 note=56 velocity=0 time=0.00394736875
EXTRACT: note_on channel=3 note=56 velocity=105 time=0.09473685000000001
EXTRACT: note_on channel=3 note=56 velocity=0 time=0.07039474270833333
EXTRACT: note_on channel=3 note=56 velocity=105 time=0.08157895416666668
EXTRACT: note_on channel=9 note=42 velocity=26 time=0
EXTRACT: note_on channel=9 note=42 velocity=0 time=0.061184215625
EXTRACT: note_on channel=3 note=56 velocity=0 time=0.007236842708333333
EXTRACT: note_on channel=3 note=56 velocity=103 time=0.09539474479166667
EXTRACT: note_on channel=1 note=41 velocity=86 time=0.009868421875
EXTRACT: note_on channel=1 note=53 velocity=114 time=0
EXTRACT: note_on channel=9 note=35 velocity=127 time=0
EXTRACT: note_on channel=3 note=56 velocity=0 time=0.05394737291666667
EXTRACT: note_on channel=9 note=35 velocity=0 time=0.0032894739583333335
EXTRACT: note_on channel=1 note=41 velocity=0 time=0.08289474375
EXTRACT: note_on channel=1 note=53 velocity=0 time=0
EXTRACT: note_on channel=1 note=36 velocity=79 time=0.001973684375
EXTRACT: note_on channel=1 note=48 velocity=107 time=0
EXTRACT: note_on channel=3 note=56 velocity=114 time=0
EXTRACT: note_on channel=9 note=42 velocity=88 time=0
EXTRACT: note_on channel=9 note=42 velocity=0 time=0.05394737291666667
EXTRACT: note_on channel=3 note=56 velocity=0 time=0.09736842916666667
EXTRACT: note_on channel=1 note=36 velocity=0 time=0.02039473854166667
EXTRACT: note_on channel=1 note=48 velocity=0 time=0
EXTRACT: note_on channel=1 note=36 velocity=68 time=0.144078959375
EXTRACT: note_on channel=1 note=48 velocity=96 time=0
EXTRACT: note_on channel=3 note=53 velocity=114 time=0
EXTRACT: note_on channel=9 note=42 velocity=46 time=0
EXTRACT: note_on channel=9 note=35 velocity=127 time=0
EXTRACT: note_on channel=9 note=42 velocity=0 time=0.04342105625
EXTRACT: note_on channel=9 note=35 velocity=0 time=0.013815790625000001
EXTRACT: note_on channel=3 note=53 velocity=0 time=0.10328948229166666
EXTRACT: note_on channel=3 note=56 velocity=107 time=0.0032894739583333335
EXTRACT: note_on channel=3 note=56 velocity=0 time=0.04210526666666667
EXTRACT: note_on channel=1 note=48 velocity=0 time=0.08026316458333334
EXTRACT: note_on channel=1 note=36 velocity=0 time=0
EXTRACT: note_on channel=3 note=56 velocity=105 time=0.029605265625000002
EXTRACT: note_on channel=9 note=37 velocity=124 time=0
EXTRACT: note_on channel=9 note=31 velocity=119 time=0
EXTRACT: note_on channel=9 note=42 velocity=98 time=0
EXTRACT: note_on channel=9 note=85 velocity=116 time=0
EXTRACT: note_on channel=9 note=42 velocity=0 time=0.051315793750000005
EXTRACT: note_on channel=9 note=31 velocity=0 time=0
EXTRACT: note_on channel=3 note=56 velocity=0 time=0.0006578947916666667
EXTRACT: note_on channel=9 note=37 velocity=0 time=0.005263158333333334
EXTRACT: note_on channel=9 note=85 velocity=0 time=0.00394736875
EXTRACT: note_on channel=3 note=56 velocity=105 time=0.10263158750000001
EXTRACT: note_on channel=3 note=56 velocity=0 time=0.06776316354166667
EXTRACT: note_on channel=3 note=56 velocity=98 time=0.08421053333333334
EXTRACT: note_on channel=9 note=42 velocity=26 time=0
EXTRACT: note_on channel=9 note=42 velocity=0 time=0.05394737291666667
EXTRACT: note_on channel=3 note=56 velocity=0 time=0.011184211458333334
EXTRACT: note_on channel=3 note=56 velocity=107 time=0.09868421875000001
EXTRACT: note_on channel=9 note=31 velocity=109 time=0.009868421875
EXTRACT: note_on channel=9 note=85 velocity=93 time=0
EXTRACT: note_on channel=3 note=56 velocity=0 time=0.04802631979166667
EXTRACT: note_on channel=9 note=31 velocity=0 time=0.009210527083333333
EXTRACT: note_on channel=9 note=85 velocity=0 time=0.0078947375
EXTRACT: note_on channel=15 note=72 velocity=0 time=0.07697369062500001
EXTRACT: note_on channel=15 note=68 velocity=0 time=0
EXTRACT: note_on channel=15 note=65 velocity=0 time=0
EXTRACT: note_on channel=1 note=49 velocity=109 time=0
EXTRACT: note_on channel=1 note=37 velocity=81 time=0
EXTRACT: note_on channel=3 note=56 velocity=116 time=0
EXTRACT: note_on channel=9 note=42 velocity=94 time=0
EXTRACT: note_on channel=9 note=35 velocity=127 time=0
EXTRACT: note_on channel=15 note=61 velocity=1 time=0
EXTRACT: note_on channel=15 note=68 velocity=1 time=0
EXTRACT: note_on channel=15 note=65 velocity=1 time=0
EXTRACT: note_on channel=9 note=35 velocity=0 time=0.06513158437500001
EXTRACT: note_on channel=9 note=42 velocity=0 time=0
EXTRACT: note_on channel=3 note=56 velocity=0 time=0.06250000520833333
EXTRACT: note_on channel=1 note=49 velocity=0 time=0.053289478125000005
EXTRACT: note_on channel=1 note=37 velocity=0 time=0
EXTRACT: note_on channel=1 note=37 velocity=77 time=0.13486843229166667
EXTRACT: note_on channel=1 note=49 velocity=105 time=0
EXTRACT: note_on channel=3 note=56 velocity=114 time=0
EXTRACT: note_on channel=9 note=42 velocity=50 time=0
EXTRACT: note_on channel=9 note=42 velocity=0 time=0.057236846875000004
EXTRACT: note_on channel=3 note=56 velocity=0 time=0.0032894739583333335
EXTRACT: note_on channel=3 note=56 velocity=109 time=0.10328948229166666
EXTRACT: note_on channel=3 note=56 velocity=0 time=0.05394737291666667
EXTRACT: note_on channel=1 note=49 velocity=0 time=0.059210531250000004
EXTRACT: note_on channel=1 note=37 velocity=0 time=0
EXTRACT: note_on channel=3 note=56 velocity=107 time=0.03881579270833334
EXTRACT: note_on channel=9 note=37 velocity=124 time=0
EXTRACT: note_on channel=9 note=31 velocity=122 time=0
EXTRACT: note_on channel=9 note=42 velocity=88 time=0
EXTRACT: note_on channel=9 note=85 velocity=116 time=0
EXTRACT: note_on channel=9 note=42 velocity=0 time=0.04605263541666667
EXTRACT: note_on channel=9 note=37 velocity=0 time=0.008552632291666667
EXTRACT: note_on channel=9 note=31 velocity=0 time=0.0006578947916666667
EXTRACT: note_on channel=9 note=85 velocity=0 time=0.0013157895833333334
EXTRACT: note_on channel=3 note=56 velocity=0 time=0
EXTRACT: note_on channel=3 note=56 velocity=107 time=0.10723685104166668
EXTRACT: note_on channel=3 note=56 velocity=0 time=0.055921057291666666
EXTRACT: note_on channel=3 note=56 velocity=109 time=0.09605263958333334
EXTRACT: note_on channel=9 note=42 velocity=26 time=0
EXTRACT: note_on channel=9 note=42 velocity=0 time=0.061184215625
EXTRACT: note_on channel=3 note=56 velocity=0 time=0.002631579166666667
EXTRACT: note_on channel=1 note=37 velocity=84 time=0.10986843020833334
EXTRACT: note_on channel=1 note=49 velocity=112 time=0
EXTRACT: note_on channel=9 note=35 velocity=127 time=0
EXTRACT: note_on channel=9 note=35 velocity=0 time=0.054605267708333335
EXTRACT: note_on channel=1 note=37 velocity=0 time=0.006578947916666667
EXTRACT: note_on channel=1 note=49 velocity=0 time=0
EXTRACT: note_on channel=15 note=61 velocity=0 time=0.080921059375
EXTRACT: note_on channel=15 note=68 velocity=0 time=0
EXTRACT: note_on channel=15 note=65 velocity=0 time=0
EXTRACT: note_on channel=1 note=39 velocity=79 time=0
EXTRACT: note_on channel=1 note=51 velocity=107 time=0
EXTRACT: note_on channel=3 note=56 velocity=107 time=0
EXTRACT: note_on channel=9 note=42 velocity=88 time=0
EXTRACT: note_on channel=15 note=70 velocity=1 time=0
EXTRACT: note_on channel=15 note=63 velocity=1 time=0
EXTRACT: note_on channel=15 note=67 velocity=1 time=0
EXTRACT: note_on channel=9 note=42 velocity=0 time=0.05394737291666667
EXTRACT: note_on channel=3 note=56 velocity=0 time=0.02039473854166667
EXTRACT: note_on channel=1 note=39 velocity=0 time=0.14342106458333334
EXTRACT: note_on channel=1 note=51 velocity=0 time=0
EXTRACT: note_on channel=1 note=51 velocity=105 time=0.09802632395833334
EXTRACT: note_on channel=1 note=39 velocity=77 time=0
EXTRACT: note_on channel=3 note=54 velocity=101 time=0
EXTRACT: note_on channel=9 note=35 velocity=127 time=0
EXTRACT: note_on channel=9 note=42 velocity=46 time=0
EXTRACT: note_on channel=9 note=42 velocity=0 time=0.04342105625
EXTRACT: note_on channel=9 note=35 velocity=0 time=0.016447369791666666
EXTRACT: note_on channel=3 note=54 velocity=0 time=0.0032894739583333335
EXTRACT: note_on channel=3 note=53 velocity=107 time=0.100657903125
EXTRACT: note_on channel=3 note=53 velocity=0 time=0.05394737291666667
EXTRACT: note_on channel=1 note=39 velocity=0 time=0.04078947708333334
EXTRACT: note_on channel=1 note=51 velocity=0 time=0
EXTRACT: note_on channel=3 note=56 velocity=98 time=0.057236846875000004
EXTRACT: note_on channel=9 note=37 velocity=124 time=0
EXTRACT: note_on channel=9 note=31 velocity=127 time=0
EXTRACT: note_on channel=9 note=42 velocity=98 time=0
EXTRACT: note_on channel=9 note=85 velocity=116 time=0
EXTRACT: note_on channel=9 note=42 velocity=0 time=0.051315793750000005
EXTRACT: note_on channel=3 note=56 velocity=0 time=0.0006578947916666667
EXTRACT: note_on channel=9 note=85 velocity=0 time=0.0046052635416666664
EXTRACT: note_on channel=9 note=31 velocity=0 time=0.0006578947916666667
EXTRACT: note_on channel=9 note=37 velocity=0 time=0.0013157895833333334
EXTRACT: note_on channel=3 note=56 velocity=98 time=0.10526316666666667
EXTRACT: note_on channel=3 note=56 velocity=0 time=0.060526320833333334
EXTRACT: note_on channel=1 note=39 velocity=94 time=0.09144737604166667
EXTRACT: note_on channel=1 note=51 velocity=122 time=0
EXTRACT: note_on channel=3 note=56 velocity=101 time=0
EXTRACT: note_on channel=5 note=60 velocity=116 time=0
EXTRACT: note_on channel=9 note=42 velocity=26 time=0
EXTRACT: note_on channel=9 note=35 velocity=127 time=0
EXTRACT: note_on channel=9 note=42 velocity=0 time=0.05394737291666667
EXTRACT: note_on channel=9 note=35 velocity=0 time=0.0078947375
EXTRACT: note_on channel=3 note=56 velocity=0 time=0.007236842708333333
EXTRACT: note_on channel=9 note=85 velocity=116 time=0.104605271875
EXTRACT: note_on channel=9 note=31 velocity=119 time=0
EXTRACT: note_on channel=9 note=85 velocity=0 time=0.047368425000000006
EXTRACT: control_change channel=5 control=1 value=1 time=0.001973684375
EXTRACT: note_on channel=9 note=31 velocity=0 time=0.008552632291666667
EXTRACT: control_change channel=5 control=1 value=5 time=0.006578947916666667
EXTRACT: control_change channel=5 control=1 value=8 time=0.016447369791666666
EXTRACT: note_on channel=1 note=51 velocity=0 time=0.0046052635416666664
EXTRACT: note_on channel=1 note=39 velocity=0 time=0
EXTRACT: control_change channel=5 control=1 value=11 time=0.011184211458333334
EXTRACT: control_change channel=5 control=1 value=14 time=0.017105264583333335
EXTRACT: control_change channel=5 control=1 value=17 time=0.015789475
EXTRACT: note_on channel=15 note=63 velocity=0 time=0.012500001041666667
EXTRACT: note_on channel=15 note=70 velocity=0 time=0
EXTRACT: note_on channel=15 note=67 velocity=0 time=0
EXTRACT: note_on channel=1 note=41 velocity=99 time=0
EXTRACT: note_on channel=1 note=53 velocity=127 time=0
EXTRACT: note_on channel=3 note=56 velocity=107 time=0
EXTRACT: note_on channel=9 note=35 velocity=127 time=0
EXTRACT: note_on channel=9 note=42 velocity=94 time=0
EXTRACT: note_on channel=15 note=72 velocity=1 time=0
EXTRACT: note_on channel=15 note=68 velocity=1 time=0
EXTRACT: note_on channel=15 note=65 velocity=1 time=0
EXTRACT: control_change channel=5 control=1 value=19 time=0.002631579166666667
EXTRACT: control_change channel=5 control=1 value=22 time=0.017105264583333335
EXTRACT: control_change channel=5 control=1 value=24 time=0.015789475
EXTRACT: control_change channel=5 control=1 value=26 time=0.015789475
EXTRACT: note_on channel=9 note=35 velocity=0 time=0.0078947375
EXTRACT: note_on channel=3 note=56 velocity=0 time=0.0006578947916666667
EXTRACT: note_on channel=9 note=42 velocity=0 time=0.005263158333333334
EXTRACT: control_change channel=5 control=1 value=29 time=0.0006578947916666667
EXTRACT: control_change channel=5 control=1 value=31 time=0.018421054166666666
EXTRACT: control_change channel=5 control=1 value=33 time=0.015789475
EXTRACT: control_change channel=5 control=1 value=35 time=0.015789475
EXTRACT: control_change channel=5 control=1 value=38 time=0.015131580208333334
EXTRACT: control_change channel=5 control=1 value=39 time=0.017105264583333335
EXTRACT: control_change channel=5 control=1 value=41 time=0.015131580208333334
EXTRACT: note_on channel=3 note=56 velocity=103 time=0.0006578947916666667
EXTRACT: control_change channel=5 control=1 value=43 time=0.015789475
EXTRACT: note_on channel=1 note=53 velocity=0 time=0.015789475
EXTRACT: note_on channel=1 note=41 velocity=0 time=0
EXTRACT: control_change channel=5 control=1 value=45 time=0.0006578947916666667
EXTRACT: control_change channel=5 control=1 value=47 time=0.015131580208333334
EXTRACT: note_on channel=3 note=56 velocity=0 time=0.0078947375
EXTRACT: control_change channel=5 control=1 value=49 time=0.0078947375
EXTRACT: control_change channel=5 control=1 value=50 time=0.017105264583333335
EXTRACT: control_change channel=5 control=1 value=51 time=0.015789475
EXTRACT: control_change channel=5 control=1 value=52 time=0.030921055208333336
EXTRACT: note_on channel=1 note=53 velocity=124 time=0.025000002083333334
EXTRACT: note_on channel=1 note=41 velocity=96 time=0
EXTRACT: note_on channel=3 note=56 velocity=103 time=0
EXTRACT: note_on channel=9 note=42 velocity=50 time=0
EXTRACT: control_change channel=5 control=1 value=51 time=0.007236842708333333
EXTRACT: note_on channel=3 note=56 velocity=0 time=0.048684214583333336
EXTRACT: control_change channel=5 control=1 value=50 time=0.0006578947916666667
EXTRACT: note_on channel=9 note=42 velocity=0 time=0.0006578947916666667
EXTRACT: control_change channel=5 control=1 value=49 time=0.03157895
EXTRACT: control_change channel=5 control=1 value=48 time=0.03157895
EXTRACT: control_change channel=5 control=1 value=47 time=0.016447369791666666
EXTRACT: control_change channel=5 control=1 value=46 time=0.014473685416666666
EXTRACT: note_on channel=3 note=56 velocity=103 time=0.012500001041666667
EXTRACT: control_change channel=5 control=1 value=45 time=0.021052633333333334
EXTRACT: control_change channel=5 control=1 value=44 time=0.03157895
EXTRACT: note_on channel=3 note=56 velocity=0 time=0.0046052635416666664
EXTRACT: control_change channel=5 control=1 value=43 time=0.010526316666666667
EXTRACT: control_change channel=5 control=1 value=42 time=0.03223684479166667
EXTRACT: note_on channel=1 note=41 velocity=0 time=0.00394736875
EXTRACT: note_on channel=1 note=53 velocity=0 time=0
EXTRACT: control_change channel=5 control=1 value=41 time=0.045394740625
EXTRACT: note_on channel=3 note=56 velocity=112 time=0.002631579166666667
EXTRACT: note_on channel=9 note=37 velocity=122 time=0
EXTRACT: note_on channel=9 note=85 velocity=114 time=0
EXTRACT: note_on channel=9 note=42 velocity=88 time=0
EXTRACT: note_on channel=9 note=31 velocity=122 time=0
EXTRACT: note_on channel=9 note=42 velocity=0 time=0.04605263541666667
EXTRACT: note_on channel=9 note=31 velocity=0 time=0.0078947375
EXTRACT: note_on channel=9 note=37 velocity=0 time=0
EXTRACT: note_on channel=9 note=85 velocity=0 time=0.011184211458333334
EXTRACT: note_on channel=3 note=56 velocity=0 time=0.001973684375
EXTRACT: control_change channel=5 control=1 value=40 time=0.04078947708333334
EXTRACT: control_change channel=5 control=1 value=41 time=0.047368425000000006
EXTRACT: note_on channel=3 note=56 velocity=114 time=0.008552632291666667
EXTRACT: note_on channel=3 note=56 velocity=0 time=0.03684210833333333
EXTRACT: control_change channel=5 control=1 value=42 time=0.01973684375
EXTRACT: note_on channel=5 note=60 velocity=0 time=0.026315791666666668
EXTRACT: note_on channel=3 note=56 velocity=93 time=0.06907895312500001
EXTRACT: note_on channel=9 note=42 velocity=26 time=0
EXTRACT: control_change channel=5 control=1 value=41 time=0.05000000416666667
EXTRACT: note_on channel=9 note=42 velocity=0 time=0.011184211458333334
EXTRACT: note_on channel=3 note=56 velocity=0 time=0.006578947916666667
EXTRACT: control_change channel=5 control=1 value=39 time=0.013815790625000001
EXTRACT: control_change channel=5 control=1 value=38 time=0.015131580208333334
EXTRACT: control_change channel=5 control=1 value=37 time=0.015789475
EXTRACT: control_change channel=5 control=1 value=36 time=0.016447369791666666
EXTRACT: control_change channel=5 control=1 value=35 time=0.016447369791666666
EXTRACT: control_change channel=5 control=1 value=34 time=0.017105264583333335
EXTRACT: note_on channel=3 note=56 velocity=103 time=0.0013157895833333334
EXTRACT: note_on channel=1 note=41 velocity=86 time=0.009868421875
EXTRACT: note_on channel=1 note=53 velocity=114 time=0
EXTRACT: note_on channel=9 note=35 velocity=127 time=0
EXTRACT: control_change channel=5 control=1 value=32 time=0.0032894739583333335
EXTRACT: control_change channel=5 control=1 value=31 time=0.016447369791666666
EXTRACT: control_change channel=5 control=1 value=29 time=0.015789475
EXTRACT: note_on channel=3 note=56 velocity=0 time=0.008552632291666667
EXTRACT: control_change channel=5 control=1 value=27 time=0.007236842708333333
EXTRACT: note_on channel=9 note=35 velocity=0 time=0.005921053125000001
EXTRACT: control_change channel=5 control=1 value=25 time=0.011184211458333334
EXTRACT: control_change channel=5 control=1 value=22 time=0.015131580208333334
EXTRACT: control_change channel=5 control=1 value=18 time=0.015789475
EXTRACT: control_change channel=5 control=1 value=14 time=0.016447369791666666
EXTRACT: control_change channel=5 control=1 value=10 time=0.015789475
EXTRACT: note_on channel=1 note=41 velocity=0 time=0.008552632291666667
EXTRACT: note_on channel=1 note=53 velocity=0 time=0
EXTRACT: note_on channel=1 note=48 velocity=107 time=0.001973684375
EXTRACT: note_on channel=1 note=36 velocity=79 time=0
EXTRACT: note_on channel=3 note=56 velocity=114 time=0
EXTRACT: note_on channel=9 note=42 velocity=88 time=0
EXTRACT: control_change channel=5 control=1 value=6 time=0.005263158333333334
EXTRACT: control_change channel=5 control=1 value=2 time=0.016447369791666666
EXTRACT: control_change channel=5 control=1 value=0 time=0.015789475
EXTRACT: note_on channel=9 note=42 velocity=0 time=0.016447369791666666
EXTRACT: note_on channel=3 note=56 velocity=0 time=0.06381579479166667
EXTRACT: note_on channel=1 note=48 velocity=0 time=0.05394737291666667
EXTRACT: note_on channel=1 note=36 velocity=0 time=0
EXTRACT: note_on channel=1 note=48 velocity=96 time=0.144078959375
EXTRACT: note_on channel=1 note=36 velocity=68 time=0
EXTRACT: note_on channel=3 note=53 velocity=112 time=0
EXTRACT: note_on channel=9 note=35 velocity=127 time=0
EXTRACT: note_on channel=9 note=42 velocity=46 time=0
EXTRACT: note_on channel=9 note=42 velocity=0 time=0.04342105625
EXTRACT: note_on channel=9 note=35 velocity=0 time=0.013815790625000001
EXTRACT: note_on channel=3 note=53 velocity=0 time=0.0868421125
EXTRACT: note_on channel=1 note=48 velocity=0 time=0.142105275
EXTRACT: note_on channel=1 note=36 velocity=0 time=0
EXTRACT: note_on channel=3 note=51 velocity=116 time=0.029605265625000002
EXTRACT: note_on channel=9 note=37 velocity=124 time=0
EXTRACT: note_on channel=9 note=31 velocity=119 time=0
EXTRACT: note_on channel=9 note=42 velocity=98 time=0
EXTRACT: note_on channel=9 note=85 velocity=116 time=0
EXTRACT: note_on channel=9 note=42 velocity=0 time=0.051315793750000005
EXTRACT: note_on channel=9 note=31 velocity=0 time=0
EXTRACT: note_on channel=9 note=37 velocity=0 time=0.005921053125000001
EXTRACT: note_on channel=9 note=85 velocity=0 time=0.00394736875
EXTRACT: note_on channel=3 note=51 velocity=0 time=0.008552632291666667
EXTRACT: note_on channel=3 note=51 velocity=109 time=0.09407895520833334
EXTRACT: note_on channel=3 note=51 velocity=0 time=0.061184215625
EXTRACT: note_on channel=3 note=51 velocity=98 time=0.09078948125
EXTRACT: note_on channel=9 note=42 velocity=26 time=0
EXTRACT: note_on channel=3 note=51 velocity=0 time=0.047368425000000006
EXTRACT: note_on channel=9 note=42 velocity=0 time=0.006578947916666667
EXTRACT: note_on channel=3 note=51 velocity=103 time=0.10986843020833334
EXTRACT: note_on channel=9 note=85 velocity=93 time=0.009868421875
EXTRACT: note_on channel=9 note=31 velocity=109 time=0
EXTRACT: note_on channel=3 note=51 velocity=0 time=0.037500003125
EXTRACT: note_on channel=9 note=31 velocity=0 time=0.01973684375
EXTRACT: note_on channel=9 note=85 velocity=0 time=0.0078947375
EXTRACT: note_on channel=15 note=65 velocity=0 time=0.07697369062500001
EXTRACT: note_on channel=15 note=72 velocity=0 time=0
EXTRACT: note_on channel=15 note=68 velocity=0 time=0
EXTRACT: note_on channel=1 note=37 velocity=81 time=0
EXTRACT: note_on channel=1 note=49 velocity=109 time=0
EXTRACT: note_on channel=3 note=51 velocity=107 time=0
EXTRACT: note_on channel=9 note=35 velocity=127 time=0
EXTRACT: note_on channel=9 note=42 velocity=94 time=0
EXTRACT: note_on channel=15 note=61 velocity=1 time=0
EXTRACT: note_on channel=15 note=68 velocity=1 time=0
EXTRACT: note_on channel=15 note=65 velocity=1 time=0
EXTRACT: note_on channel=9 note=42 velocity=0 time=0.06513158437500001
EXTRACT: note_on channel=9 note=35 velocity=0 time=0
EXTRACT: note_on channel=3 note=51 velocity=0 time=0.0046052635416666664
EXTRACT: note_on channel=3 note=51 velocity=103 time=0.09407895520833334
EXTRACT: note_on channel=1 note=37 velocity=0 time=0.017105264583333335
EXTRACT: note_on channel=1 note=49 velocity=0 time=0
EXTRACT: note_on channel=3 note=51 velocity=0 time=0.037500003125
EXTRACT: note_on channel=1 note=49 velocity=105 time=0.09736842916666667
EXTRACT: note_on channel=1 note=37 velocity=77 time=0
EXTRACT: note_on channel=3 note=51 velocity=91 time=0
EXTRACT: note_on channel=9 note=42 velocity=50 time=0
EXTRACT: note_on channel=3 note=51 velocity=0 time=0.04605263541666667
EXTRACT: note_on channel=9 note=42 velocity=0 time=0.011184211458333334
EXTRACT: note_on channel=3 note=51 velocity=94 time=0.10657895625000001
EXTRACT: note_on channel=3 note=51 velocity=0 time=0.04407895104166667
EXTRACT: note_on channel=1 note=37 velocity=0 time=0.06907895312500001
EXTRACT: note_on channel=1 note=49 velocity=0 time=0
EXTRACT: note_on channel=3 note=51 velocity=103 time=0.03881579270833334
EXTRACT: note_on channel=9 note=37 velocity=124 time=0
EXTRACT: note_on channel=9 note=85 velocity=116 time=0
EXTRACT: note_on channel=9 note=42 velocity=88 time=0
EXTRACT: note_on channel=9 note=31 velocity=122 time=0
EXTRACT: note_on channel=9 note=42 velocity=0 time=0.04605263541666667
EXTRACT: note_on channel=9 note=37 velocity=0 time=0.008552632291666667
EXTRACT: note_on channel=9 note=31 velocity=0 time=0.0006578947916666667
EXTRACT: note_on channel=9 note=85 velocity=0 time=0.0013157895833333334
EXTRACT: note_on channel=3 note=51 velocity=0 time=0.0032894739583333335
EXTRACT: note_on channel=3 note=51 velocity=101 time=0.10394737708333333
EXTRACT: note_on channel=3 note=51 velocity=0 time=0.049342109375000005
EXTRACT: note_on channel=3 note=51 velocity=98 time=0.10263158750000001
EXTRACT: note_on channel=9 note=42 velocity=26 time=0
EXTRACT: note_on channel=3 note=51 velocity=0 time=0.052631583333333336
EXTRACT: note_on channel=9 note=42 velocity=0 time=0.008552632291666667
EXTRACT: note_on channel=3 note=51 velocity=98 time=0.10263158750000001
EXTRACT: note_on channel=1 note=49 velocity=112 time=0.009868421875
EXTRACT: note_on channel=1 note=37 velocity=84 time=0
EXTRACT: note_on channel=9 note=35 velocity=127 time=0
EXTRACT: note_on channel=3 note=51 velocity=0 time=0.04473684583333334
EXTRACT: note_on channel=9 note=35 velocity=0 time=0.009868421875
EXTRACT: note_on channel=1 note=49 velocity=0 time=0.006578947916666667
EXTRACT: note_on channel=1 note=37 velocity=0 time=0
EXTRACT: note_on channel=15 note=61 velocity=0 time=0.080921059375
EXTRACT: note_on channel=15 note=65 velocity=0 time=0
EXTRACT: note_on channel=15 note=68 velocity=0 time=0
EXTRACT: note_on channel=1 note=51 velocity=107 time=0
EXTRACT: note_on channel=1 note=39 velocity=79 time=0
EXTRACT: note_on channel=3 note=53 velocity=107 time=0
EXTRACT: note_on channel=9 note=42 velocity=88 time=0
EXTRACT: note_on channel=15 note=70 velocity=1 time=0
EXTRACT: note_on channel=15 note=63 velocity=1 time=0
EXTRACT: note_on channel=15 note=67 velocity=1 time=0
EXTRACT: note_on channel=9 note=42 velocity=0 time=0.05394737291666667
EXTRACT: note_on channel=3 note=53 velocity=0 time=0.019078948958333335
EXTRACT: note_on channel=1 note=51 velocity=0 time=0.14473685416666668
EXTRACT: note_on channel=1 note=39 velocity=0 time=0
EXTRACT: note_on channel=1 note=51 velocity=105 time=0.09802632395833334
EXTRACT: note_on channel=1 note=39 velocity=77 time=0
EXTRACT: note_on channel=3 note=53 velocity=112 time=0
EXTRACT: note_on channel=9 note=35 velocity=127 time=0
EXTRACT: note_on channel=9 note=42 velocity=46 time=0
EXTRACT: note_on channel=9 note=42 velocity=0 time=0.04342105625
EXTRACT: note_on channel=9 note=35 velocity=0 time=0.016447369791666666
EXTRACT: note_on channel=3 note=53 velocity=0 time=0.013157895833333334
EXTRACT: note_on channel=1 note=51 velocity=0 time=0.18552633125
EXTRACT: note_on channel=1 note=39 velocity=0 time=0
EXTRACT: note_on channel=3 note=56 velocity=107 time=0.057236846875000004
EXTRACT: note_on channel=9 note=37 velocity=124 time=0
EXTRACT: note_on channel=9 note=85 velocity=116 time=0
EXTRACT: note_on channel=9 note=31 velocity=127 time=0
EXTRACT: note_on channel=9 note=42 velocity=98 time=0
EXTRACT: note_on channel=9 note=42 velocity=0 time=0.051315793750000005
EXTRACT: note_on channel=9 note=85 velocity=0 time=0.005263158333333334
EXTRACT: note_on channel=9 note=31 velocity=0 time=0.0006578947916666667
EXTRACT: note_on channel=9 note=37 velocity=0 time=0.0013157895833333334
EXTRACT: note_on channel=3 note=56 velocity=0 time=0.006578947916666667
EXTRACT: note_on channel=3 note=56 velocity=98 time=0.09868421875000001
EXTRACT: note_on channel=3 note=56 velocity=0 time=0.06578947916666666
EXTRACT: note_on channel=1 note=51 velocity=122 time=0.08618421770833334
EXTRACT: note_on channel=1 note=39 velocity=94 time=0
EXTRACT: note_on channel=3 note=56 velocity=103 time=0
EXTRACT: note_on channel=5 note=60 velocity=116 time=0
EXTRACT: note_on channel=9 note=42 velocity=26 time=0
EXTRACT: note_on channel=9 note=35 velocity=127 time=0
EXTRACT: note_on channel=9 note=42 velocity=0 time=0.05394737291666667
EXTRACT: note_on channel=9 note=35 velocity=0 time=0.0078947375
EXTRACT: note_on channel=3 note=56 velocity=0 time=0.0013157895833333334
EXTRACT: note_on channel=3 note=56 velocity=105 time=0.100657903125
EXTRACT: note_on channel=9 note=31 velocity=119 time=0.009868421875
EXTRACT: note_on channel=9 note=85 velocity=116 time=0
EXTRACT: note_on channel=3 note=56 velocity=0 time=0.04605263541666667
EXTRACT: note_on channel=9 note=85 velocity=0 time=0.0013157895833333334
EXTRACT: control_change channel=5 control=1 value=1 time=0.001973684375
EXTRACT: note_on channel=9 note=31 velocity=0 time=0.008552632291666667
EXTRACT: control_change channel=5 control=1 value=5 time=0.006578947916666667
EXTRACT: control_change channel=5 control=1 value=8 time=0.016447369791666666
EXTRACT: note_on channel=1 note=39 velocity=0 time=0.0046052635416666664
EXTRACT: note_on channel=1 note=51 velocity=0 time=0
EXTRACT: control_change channel=5 control=1 value=11 time=0.011184211458333334
EXTRACT: control_change channel=5 control=1 value=14 time=0.017105264583333335
EXTRACT: control_change channel=5 control=1 value=17 time=0.015789475
EXTRACT: note_on channel=15 note=63 velocity=0 time=0.012500001041666667
EXTRACT: note_on channel=15 note=70 velocity=0 time=0
EXTRACT: note_on channel=15 note=67 velocity=0 time=0
EXTRACT: note_on channel=1 note=41 velocity=99 time=0
EXTRACT: note_on channel=1 note=53 velocity=127 time=0
EXTRACT: note_on channel=3 note=56 velocity=112 time=0
EXTRACT: note_on channel=15 note=72 velocity=1 time=0
EXTRACT: note_on channel=15 note=68 velocity=1 time=0
EXTRACT: note_on channel=15 note=65 velocity=1 time=0
EXTRACT: control_change channel=5 control=1 value=19 time=0.002631579166666667
EXTRACT: control_change channel=5 control=1 value=22 time=0.017105264583333335
EXTRACT: control_change channel=5 control=1 value=24 time=0.015789475
EXTRACT: control_change channel=5 control=1 value=26 time=0.015789475
EXTRACT: control_change channel=5 control=1 value=29 time=0.014473685416666666
EXTRACT: control_change channel=5 control=1 value=31 time=0.018421054166666666
EXTRACT: note_on channel=3 note=56 velocity=0 time=0.0032894739583333335
EXTRACT: control_change channel=5 control=1 value=33 time=0.012500001041666667
EXTRACT: control_change channel=5 control=1 value=35 time=0.015789475
EXTRACT: control_change channel=5 control=1 value=38 time=0.015131580208333334
EXTRACT: control_change channel=5 control=1 value=39 time=0.017105264583333335
EXTRACT: control_change channel=5 control=1 value=41 time=0.015131580208333334
EXTRACT: control_change channel=5 control=1 value=43 time=0.016447369791666666
EXTRACT: note_on channel=1 note=53 velocity=0 time=0.015789475
EXTRACT: note_on channel=1 note=41 velocity=0 time=0
EXTRACT: control_change channel=5 control=1 value=45 time=0.0006578947916666667
EXTRACT: control_change channel=5 control=1 value=47 time=0.015131580208333334
EXTRACT: control_change channel=5 control=1 value=49 time=0.015789475
EXTRACT: control_change channel=5 control=1 value=50 time=0.017105264583333335
EXTRACT: control_change channel=5 control=1 value=51 time=0.015789475
EXTRACT: control_change channel=5 control=1 value=52 time=0.030921055208333336
EXTRACT: note_on channel=1 note=53 velocity=124 time=0.025000002083333334
EXTRACT: note_on channel=1 note=41 velocity=96 time=0
EXTRACT: note_on channel=3 note=53 velocity=124 time=0
EXTRACT: control_change channel=5 control=1 value=51 time=0.007236842708333333
EXTRACT: control_change channel=5 control=1 value=50 time=0.049342109375000005
EXTRACT: control_change channel=5 control=1 value=49 time=0.03223684479166667
EXTRACT: control_change channel=5 control=1 value=48 time=0.03157895
EXTRACT: control_change channel=5 control=1 value=47 time=0.016447369791666666
EXTRACT: note_on channel=3 note=53 velocity=0 time=0.0013157895833333334
EXTRACT: control_change channel=5 control=1 value=46 time=0.013157895833333334
EXTRACT: control_change channel=5 control=1 value=45 time=0.033552634375
EXTRACT: control_change channel=5 control=1 value=44 time=0.03157895
EXTRACT: control_change channel=5 control=1 value=43 time=0.015131580208333334
EXTRACT: control_change channel=5 control=1 value=42 time=0.03223684479166667
EXTRACT: note_on channel=1 note=53 velocity=0 time=0.00394736875
EXTRACT: note_on channel=1 note=41 velocity=0 time=0
EXTRACT: control_change channel=5 control=1 value=41 time=0.045394740625
EXTRACT: note_on channel=3 note=56 velocity=109 time=0.002631579166666667
EXTRACT: note_on channel=9 note=37 velocity=122 time=0
EXTRACT: note_on channel=9 note=85 velocity=114 time=0
EXTRACT: note_on channel=9 note=31 velocity=122 time=0
EXTRACT: note_on channel=9 note=42 velocity=88 time=0
EXTRACT: note_on channel=9 note=42 velocity=0 time=0.04605263541666667
EXTRACT: note_on channel=9 note=31 velocity=0 time=0.0078947375
EXTRACT: note_on channel=9 note=37 velocity=0 time=0
EXTRACT: note_on channel=9 note=85 velocity=0 time=0.011184211458333334
EXTRACT: note_on channel=3 note=56 velocity=0 time=0.0078947375
EXTRACT: control_change channel=5 control=1 value=40 time=0.03486842395833333
EXTRACT: control_change channel=5 control=1 value=41 time=0.047368425000000006
EXTRACT: note_on channel=3 note=56 velocity=103 time=0.008552632291666667
EXTRACT: control_change channel=5 control=1 value=42 time=0.056578952083333335
EXTRACT: note_on channel=3 note=56 velocity=0 time=0.008552632291666667
EXTRACT: note_on channel=5 note=60 velocity=0 time=0.017763159375
EXTRACT: note_on channel=3 note=56 velocity=103 time=0.06907895312500001
EXTRACT: note_on channel=9 note=42 velocity=26 time=0
EXTRACT: control_change channel=5 control=1 value=41 time=0.05000000416666667
EXTRACT: note_on channel=9 note=42 velocity=0 time=0.011184211458333334
EXTRACT: note_on channel=3 note=56 velocity=0 time=0.0046052635416666664
EXTRACT: control_change channel=5 control=1 value=39 time=0.015789475
EXTRACT: control_change channel=5 control=1 value=38 time=0.015131580208333334
EXTRACT: control_change channel=5 control=1 value=37 time=0.015789475
EXTRACT: control_change channel=5 control=1 value=36 time=0.016447369791666666
EXTRACT: control_change channel=5 control=1 value=35 time=0.016447369791666666
EXTRACT: control_change channel=5 control=1 value=34 time=0.017105264583333335
EXTRACT: note_on channel=3 note=56 velocity=105 time=0.0013157895833333334
EXTRACT: note_on channel=1 note=53 velocity=114 time=0.009868421875
EXTRACT: note_on channel=1 note=41 velocity=86 time=0
EXTRACT: note_on channel=9 note=35 velocity=127 time=0
EXTRACT: control_change channel=5 control=1 value=32 time=0.0032894739583333335
EXTRACT: control_change channel=5 control=1 value=31 time=0.016447369791666666
EXTRACT: control_change channel=5 control=1 value=29 time=0.015789475
EXTRACT: control_change channel=5 control=1 value=27 time=0.015789475
EXTRACT: note_on channel=3 note=56 velocity=0 time=0.0006578947916666667
EXTRACT: note_on channel=9 note=35 velocity=0 time=0.005263158333333334
EXTRACT: control_change channel=5 control=1 value=25 time=0.011184211458333334
EXTRACT: control_change channel=5 control=1 value=22 time=0.015131580208333334
EXTRACT: control_change channel=5 control=1 value=18 time=0.015789475
EXTRACT: control_change channel=5 control=1 value=14 time=0.016447369791666666
EXTRACT: control_change channel=5 control=1 value=10 time=0.015789475
EXTRACT: note_on channel=1 note=53 velocity=0 time=0.008552632291666667
EXTRACT: note_on channel=1 note=41 velocity=0 time=0
EXTRACT: note_on channel=1 note=48 velocity=107 time=0.001973684375
EXTRACT: note_on channel=1 note=36 velocity=79 time=0
EXTRACT: note_on channel=3 note=56 velocity=116 time=0
EXTRACT: note_on channel=9 note=42 velocity=88 time=0
EXTRACT: control_change channel=5 control=1 value=6 time=0.005263158333333334
EXTRACT: control_change channel=5 control=1 value=2 time=0.016447369791666666
EXTRACT: control_change channel=5 control=1 value=0 time=0.015789475
EXTRACT: note_on channel=9 note=42 velocity=0 time=0.016447369791666666
EXTRACT: note_on channel=3 note=56 velocity=0 time=0.092763165625
EXTRACT: note_on channel=1 note=48 velocity=0 time=0.025000002083333334
EXTRACT: note_on channel=1 note=36 velocity=0 time=0
EXTRACT: note_on channel=1 note=48 velocity=96 time=0.144078959375
EXTRACT: note_on channel=1 note=36 velocity=68 time=0
EXTRACT: note_on channel=3 note=56 velocity=112 time=0
EXTRACT: note_on channel=9 note=35 velocity=127 time=0
EXTRACT: note_on channel=9 note=42 velocity=46 time=0
EXTRACT: note_on channel=9 note=42 velocity=0 time=0.04342105625
EXTRACT: note_on channel=3 note=56 velocity=0 time=0.005921053125000001
EXTRACT: note_on channel=9 note=35 velocity=0 time=0.0078947375
EXTRACT: note_on channel=3 note=56 velocity=101 time=0.10657895625000001
EXTRACT: note_on channel=3 note=56 velocity=0 time=0.055263162500000004
EXTRACT: note_on channel=1 note=36 velocity=0 time=0.06710526875
EXTRACT: note_on channel=1 note=48 velocity=0 time=0
EXTRACT: note_on channel=3 note=56 velocity=116 time=0.029605265625000002
EXTRACT: note_on channel=9 note=37 velocity=124 time=0
EXTRACT: note_on channel=9 note=85 velocity=116 time=0
EXTRACT: note_on channel=9 note=42 velocity=98 time=0
EXTRACT: note_on channel=9 note=31 velocity=119 time=0
EXTRACT: note_on channel=9 note=31 velocity=0 time=0.051315793750000005
EXTRACT: note_on channel=9 note=42 velocity=0 time=0
EXTRACT: note_on channel=9 note=37 velocity=0 time=0.005921053125000001
EXTRACT: note_on channel=9 note=85 velocity=0 time=0.00394736875
EXTRACT: note_on channel=3 note=56 velocity=0 time=0.037500003125
EXTRACT: note_on channel=3 note=53 velocity=116 time=0.21710528125
EXTRACT: note_on channel=9 note=42 velocity=26 time=0
EXTRACT: note_on channel=9 note=42 velocity=0 time=0.05394737291666667
EXTRACT: note_on channel=3 note=53 velocity=0 time=0.01973684375
EXTRACT: note_on channel=3 note=53 velocity=112 time=0.09013158645833334
EXTRACT: note_on channel=9 note=85 velocity=93 time=0.009868421875
EXTRACT: note_on channel=9 note=31 velocity=109 time=0
EXTRACT: note_on channel=3 note=53 velocity=0 time=0.052631583333333336
EXTRACT: note_on channel=9 note=31 velocity=0 time=0.0046052635416666664
EXTRACT: note_on channel=9 note=85 velocity=0 time=0.0078947375
EXTRACT: note_on channel=15 note=65 velocity=0 time=0.07697369062500001
EXTRACT: note_on channel=15 note=68 velocity=0 time=0
EXTRACT: note_on channel=15 note=72 velocity=0 time=0
