EXTRACT: control_change channel=0 control=121 value=0 time=0
EXTRACT: program_change channel=0 program=56 time=0
EXTRACT: control_change channel=0 control=7 value=100 time=0
EXTRACT: control_change channel=0 control=10 value=64 time=0
EXTRACT: control_change channel=0 control=91 value=0 time=0
EXTRACT: control_change channel=0 control=93 value=0 time=0
EXTRACT: control_change channel=1 control=121 value=0 time=0
EXTRACT: program_change channel=1 program=59 time=0
EXTRACT: control_change channel=1 control=7 value=100 time=0
EXTRACT: control_change channel=1 control=10 value=64 time=0
EXTRACT: control_change channel=1 control=91 value=0 time=0
EXTRACT: control_change channel=1 control=93 value=0 time=0
EXTRACT: control_change channel=2 control=121 value=0 time=0
EXTRACT: program_change channel=2 program=56 time=0
EXTRACT: control_change channel=2 control=7 value=100 time=0
EXTRACT: control_change channel=2 control=10 value=64 time=0
EXTRACT: control_change channel=2 control=91 value=0 time=0
EXTRACT: control_change channel=2 control=93 value=0 time=0
EXTRACT: note_on channel=2 note=67 velocity=64 time=0
EXTRACT: control_change channel=3 control=121 value=0 time=0
EXTRACT: program_change channel=3 program=59 time=0
EXTRACT: control_change channel=3 control=7 value=100 time=0
EXTRACT: control_change channel=3 control=10 value=64 time=0
EXTRACT: control_change channel=3 control=91 value=0 time=0
EXTRACT: control_change channel=3 control=93 value=0 time=0
EXTRACT: control_change channel=4 control=121 value=0 time=0
EXTRACT: program_change channel=4 program=56 time=0
EXTRACT: control_change channel=4 control=7 value=100 time=0
EXTRACT: control_change channel=4 control=10 value=64 time=0
EXTRACT: control_change channel=4 control=91 value=0 time=0
EXTRACT: control_change channel=4 control=93 value=0 time=0
EXTRACT: control_change channel=5 control=121 value=0 time=0
EXTRACT: program_change channel=5 program=59 time=0
EXTRACT: control_change channel=5 control=7 value=100 time=0
EXTRACT: control_change channel=5 control=10 value=64 time=0
EXTRACT: control_change channel=5 control=91 value=0 time=0
EXTRACT: control_change channel=5 control=93 value=0 time=0
EXTRACT: control_change channel=6 control=121 value=0 time=0
EXTRACT: program_change channel=6 program=60 time=0
EXTRACT: control_change channel=6 control=7 value=127 time=0
EXTRACT: control_change channel=6 control=10 value=64 time=0
EXTRACT: control_change channel=6 control=91 value=0 time=0
EXTRACT: control_change channel=6 control=93 value=0 time=0
EXTRACT: note_on channel=6 note=62 velocity=64 time=0
EXTRACT: control_change channel=7 control=121 value=0 time=0
EXTRACT: program_change channel=7 program=60 time=0
EXTRACT: control_change channel=7 control=7 value=127 time=0
EXTRACT: control_change channel=7 control=10 value=64 time=0
EXTRACT: control_change channel=7 control=91 value=0 time=0
EXTRACT: control_change channel=7 control=93 value=0 time=0
EXTRACT: control_change channel=8 control=121 value=0 time=0
EXTRACT: program_change channel=8 program=58 time=0
EXTRACT: control_change channel=8 control=7 value=100 time=0
EXTRACT: control_change channel=8 control=10 value=64 time=0
EXTRACT: control_change channel=8 control=91 value=0 time=0
EXTRACT: control_change channel=8 control=93 value=0 time=0
EXTRACT: control_change channel=10 control=121 value=0 time=0
EXTRACT: program_change channel=10 program=58 time=0
EXTRACT: control_change channel=10 control=7 value=100 time=0
EXTRACT: control_change channel=10 control=10 value=64 time=0
EXTRACT: control_change channel=10 control=91 value=0 time=0
EXTRACT: control_change channel=10 control=93 value=0 time=0
EXTRACT: control_change channel=11 control=121 value=0 time=0
EXTRACT: program_change channel=11 program=58 time=0
EXTRACT: control_change channel=11 control=7 value=100 time=0
EXTRACT: control_change channel=11 control=10 value=64 time=0
EXTRACT: control_change channel=11 control=91 value=0 time=0
EXTRACT: control_change channel=11 control=93 value=0 time=0
EXTRACT: control_change channel=12 control=121 value=0 time=0
EXTRACT: program_change channel=12 program=58 time=0
EXTRACT: control_change channel=12 control=7 value=100 time=0
EXTRACT: control_change channel=12 control=10 value=64 time=0
EXTRACT: control_change channel=12 control=91 value=0 time=0
EXTRACT: control_change channel=12 control=93 value=0 time=0
EXTRACT: note_on channel=2 note=67 velocity=0 time=0.2715916333333333
EXTRACT: note_on channel=2 note=70 velocity=64 time=0.0011363666666666665
EXTRACT: note_on channel=2 note=70 velocity=0 time=0.2715916333333333
EXTRACT: note_on channel=6 note=62 velocity=0 time=0
EXTRACT: note_on channel=2 note=67 velocity=64 time=0.0011363666666666665
EXTRACT: note_on channel=2 note=67 velocity=0 time=0.2715916333333333
EXTRACT: note_on channel=2 note=70 velocity=64 time=0.0011363666666666665
EXTRACT: note_on channel=2 note=70 velocity=0 time=0.2715916333333333
EXTRACT: note_on channel=2 note=67 velocity=64 time=0.0011363666666666665
EXTRACT: note_on channel=2 note=67 velocity=0 time=0.2715916333333333
EXTRACT: note_on channel=2 note=70 velocity=64 time=0.0011363666666666665
EXTRACT: note_on channel=2 note=70 velocity=0 time=0.2715916333333333
EXTRACT: note_on channel=2 note=67 velocity=64 time=0.0011363666666666665
EXTRACT: note_on channel=2 note=67 velocity=0 time=0.2715916333333333
EXTRACT: note_on channel=2 note=70 velocity=64 time=0.0011363666666666665
EXTRACT: note_on channel=2 note=70 velocity=0 time=0.2715916333333333
EXTRACT: note_on channel=2 note=67 velocity=64 time=0.0011363666666666665
EXTRACT: note_on channel=2 note=67 velocity=0 time=0.2715916333333333
EXTRACT: note_on channel=2 note=70 velocity=64 time=0.0011363666666666665
EXTRACT: note_on channel=2 note=70 velocity=0 time=0.2715916333333333
EXTRACT: note_on channel=2 note=67 velocity=64 time=0.0011363666666666665
EXTRACT: note_on channel=2 note=67 velocity=0 time=0.2715916333333333
EXTRACT: note_on channel=2 note=70 velocity=64 time=0.0011363666666666665
EXTRACT: note_on channel=2 note=70 velocity=0 time=0.2715916333333333
EXTRACT: note_on channel=2 note=67 velocity=64 time=0.0011363666666666665
EXTRACT: note_on channel=2 note=67 velocity=0 time=0.2715916333333333
EXTRACT: note_on channel=2 note=70 velocity=64 time=0.0011363666666666665
EXTRACT: note_on channel=2 note=70 velocity=0 time=0.2715916333333333
EXTRACT: note_on channel=2 note=67 velocity=64 time=0.0011363666666666665
EXTRACT: note_on channel=2 note=67 velocity=0 time=0.2715916333333333
EXTRACT: note_on channel=2 note=70 velocity=64 time=0.0011363666666666665
EXTRACT: note_on channel=2 note=70 velocity=0 time=0.2715916333333333
EXTRACT: note_on channel=2 note=67 velocity=64 time=0.0011363666666666665
EXTRACT: note_on channel=4 note=67 velocity=64 time=0
EXTRACT: note_on channel=6 note=62 velocity=64 time=0
EXTRACT: note_on channel=2 note=67 velocity=0 time=0.2715916333333333
EXTRACT: note_on channel=4 note=67 velocity=0 time=0
EXTRACT: note_on channel=4 note=70 velocity=64 time=0.0011363666666666665
EXTRACT: note_on channel=4 note=70 velocity=0 time=0.2715916333333333
EXTRACT: note_on channel=6 note=62 velocity=0 time=0
EXTRACT: note_on channel=4 note=67 velocity=64 time=0.0011363666666666665
EXTRACT: note_on channel=4 note=67 velocity=0 time=0.2715916333333333
EXTRACT: note_on channel=0 note=70 velocity=80 time=0.0011363666666666665
EXTRACT: note_on channel=4 note=70 velocity=64 time=0
EXTRACT: note_on channel=4 note=70 velocity=0 time=0.2715916333333333
EXTRACT: note_on channel=4 note=67 velocity=64 time=0.0011363666666666665
EXTRACT: note_on channel=0 note=70 velocity=0 time=0.2715916333333333
EXTRACT: note_on channel=4 note=67 velocity=0 time=0
EXTRACT: note_on channel=0 note=69 velocity=80 time=0.0011363666666666665
EXTRACT: note_on channel=4 note=70 velocity=64 time=0
EXTRACT: note_on channel=4 note=70 velocity=0 time=0.2715916333333333
EXTRACT: note_on channel=4 note=67 velocity=64 time=0.0011363666666666665
EXTRACT: note_on channel=0 note=69 velocity=0 time=0.2715916333333333
EXTRACT: note_on channel=4 note=67 velocity=0 time=0
EXTRACT: note_on channel=0 note=67 velocity=80 time=0.0011363666666666665
EXTRACT: note_on channel=4 note=70 velocity=64 time=0
EXTRACT: note_on channel=4 note=70 velocity=0 time=0.2715916333333333
EXTRACT: note_on channel=4 note=67 velocity=64 time=0.0011363666666666665
EXTRACT: note_on channel=6 note=63 velocity=64 time=0
EXTRACT: note_on channel=0 note=67 velocity=0 time=0.2715916333333333
EXTRACT: note_on channel=4 note=67 velocity=0 time=0
EXTRACT: note_on channel=0 note=65 velocity=80 time=0.0011363666666666665
EXTRACT: note_on channel=4 note=70 velocity=64 time=0
EXTRACT: note_on channel=4 note=70 velocity=0 time=0.2715916333333333
EXTRACT: note_on channel=6 note=63 velocity=0 time=0
EXTRACT: note_on channel=4 note=67 velocity=64 time=0.0011363666666666665
EXTRACT: note_on channel=0 note=65 velocity=0 time=0.2715916333333333
EXTRACT: note_on channel=4 note=67 velocity=0 time=0
EXTRACT: note_on channel=0 note=58 velocity=80 time=0.0011363666666666665
EXTRACT: note_on channel=4 note=70 velocity=64 time=0
EXTRACT: note_on channel=4 note=70 velocity=0 time=0.2715916333333333
EXTRACT: note_on channel=4 note=67 velocity=64 time=0.0011363666666666665
EXTRACT: note_on channel=0 note=58 velocity=0 time=0.2715916333333333
EXTRACT: note_on channel=4 note=67 velocity=0 time=0
EXTRACT: note_on channel=0 note=60 velocity=80 time=0.0011363666666666665
EXTRACT: note_on channel=4 note=70 velocity=64 time=0
EXTRACT: note_on channel=4 note=70 velocity=0 time=0.2715916333333333
EXTRACT: note_on channel=4 note=67 velocity=64 time=0.0011363666666666665
EXTRACT: note_on channel=0 note=60 velocity=0 time=0.2715916333333333
EXTRACT: note_on channel=4 note=67 velocity=0 time=0
EXTRACT: note_on channel=0 note=62 velocity=80 time=0.0011363666666666665
EXTRACT: note_on channel=4 note=70 velocity=64 time=0
EXTRACT: note_on channel=4 note=70 velocity=0 time=0.2715916333333333
EXTRACT: note_on channel=2 note=65 velocity=64 time=0.0011363666666666665
EXTRACT: note_on channel=4 note=65 velocity=64 time=0
EXTRACT: note_on channel=6 note=62 velocity=64 time=0
EXTRACT: note_on channel=2 note=65 velocity=0 time=0.2715916333333333
EXTRACT: note_on channel=4 note=65 velocity=0 time=0
EXTRACT: note_on channel=2 note=70 velocity=64 time=0.0011363666666666665
EXTRACT: note_on channel=2 note=70 velocity=0 time=0.2715916333333333
EXTRACT: note_on channel=6 note=62 velocity=0 time=0
EXTRACT: note_on channel=2 note=65 velocity=64 time=0.0011363666666666665
EXTRACT: note_on channel=2 note=65 velocity=0 time=0.2715916333333333
EXTRACT: note_on channel=2 note=70 velocity=64 time=0.0011363666666666665
EXTRACT: note_on channel=0 note=62 velocity=0 time=0.2715916333333333
EXTRACT: note_on channel=2 note=70 velocity=0 time=0
EXTRACT: note_on channel=2 note=65 velocity=64 time=0.0011363666666666665
EXTRACT: note_on channel=2 note=65 velocity=0 time=0.2715916333333333
EXTRACT: note_on channel=2 note=70 velocity=64 time=0.0011363666666666665
EXTRACT: note_on channel=2 note=70 velocity=0 time=0.2715916333333333
EXTRACT: note_on channel=2 note=65 velocity=64 time=0.0011363666666666665
EXTRACT: note_on channel=2 note=65 velocity=0 time=0.2715916333333333
EXTRACT: note_on channel=2 note=70 velocity=64 time=0.0011363666666666665
EXTRACT: note_on channel=2 note=70 velocity=0 time=0.2715916333333333
EXTRACT: note_on channel=2 note=65 velocity=64 time=0.0011363666666666665
EXTRACT: note_on channel=2 note=65 velocity=0 time=0.2715916333333333
EXTRACT: note_on channel=2 note=70 velocity=64 time=0.0011363666666666665
EXTRACT: note_on channel=2 note=70 velocity=0 time=0.2715916333333333
EXTRACT: note_on channel=2 note=65 velocity=64 time=0.0011363666666666665
EXTRACT: note_on channel=2 note=65 velocity=0 time=0.2715916333333333
EXTRACT: note_on channel=2 note=70 velocity=64 time=0.0011363666666666665
EXTRACT: note_on channel=2 note=70 velocity=0 time=0.2715916333333333
EXTRACT: note_on channel=2 note=65 velocity=64 time=0.0011363666666666665
EXTRACT: note_on channel=2 note=65 velocity=0 time=0.2715916333333333
EXTRACT: note_on channel=2 note=70 velocity=64 time=0.0011363666666666665
EXTRACT: note_on channel=2 note=70 velocity=0 time=0.2715916333333333
EXTRACT: note_on channel=2 note=65 velocity=64 time=0.0011363666666666665
EXTRACT: note_on channel=2 note=65 velocity=0 time=0.2715916333333333
EXTRACT: note_on channel=2 note=70 velocity=64 time=0.0011363666666666665
EXTRACT: note_on channel=2 note=70 velocity=0 time=0.2715916333333333
EXTRACT: note_on channel=2 note=67 velocity=64 time=0.0011363666666666665
EXTRACT: note_on channel=4 note=67 velocity=64 time=0
EXTRACT: note_on channel=6 note=62 velocity=64 time=0
EXTRACT: note_on channel=2 note=67 velocity=0 time=0.2715916333333333
EXTRACT: note_on channel=4 note=67 velocity=0 time=0
EXTRACT: note_on channel=4 note=70 velocity=64 time=0.0011363666666666665
EXTRACT: note_on channel=4 note=70 velocity=0 time=0.2715916333333333
EXTRACT: note_on channel=6 note=62 velocity=0 time=0
EXTRACT: note_on channel=4 note=67 velocity=64 time=0.0011363666666666665
EXTRACT: note_on channel=4 note=67 velocity=0 time=0.2715916333333333
EXTRACT: note_on channel=0 note=58 velocity=80 time=0.0011363666666666665
EXTRACT: note_on channel=4 note=70 velocity=64 time=0
EXTRACT: note_on channel=0 note=58 velocity=0 time=0.2715916333333333
EXTRACT: note_on channel=4 note=70 velocity=0 time=0
EXTRACT: note_on channel=0 note=70 velocity=80 time=0.0011363666666666665
EXTRACT: note_on channel=4 note=67 velocity=64 time=0
EXTRACT: note_on channel=0 note=70 velocity=0 time=0.2715916333333333
EXTRACT: note_on channel=4 note=67 velocity=0 time=0
EXTRACT: note_on channel=0 note=69 velocity=80 time=0.0011363666666666665
EXTRACT: note_on channel=4 note=70 velocity=64 time=0
EXTRACT: note_on channel=4 note=70 velocity=0 time=0.2715916333333333
EXTRACT: note_on channel=4 note=67 velocity=64 time=0.0011363666666666665
EXTRACT: note_on channel=0 note=69 velocity=0 time=0.2715916333333333
EXTRACT: note_on channel=4 note=67 velocity=0 time=0
EXTRACT: note_on channel=0 note=67 velocity=80 time=0.0011363666666666665
EXTRACT: note_on channel=4 note=70 velocity=64 time=0
EXTRACT: note_on channel=4 note=70 velocity=0 time=0.2715916333333333
EXTRACT: note_on channel=4 note=67 velocity=64 time=0.0011363666666666665
EXTRACT: note_on channel=6 note=63 velocity=64 time=0
EXTRACT: note_on channel=4 note=67 velocity=0 time=0.2715916333333333
EXTRACT: note_on channel=4 note=70 velocity=64 time=0.0011363666666666665
EXTRACT: note_on channel=0 note=67 velocity=0 time=0.2715916333333333
EXTRACT: note_on channel=4 note=70 velocity=0 time=0
EXTRACT: note_on channel=6 note=63 velocity=0 time=0
EXTRACT: note_on channel=0 note=65 velocity=80 time=0.0011363666666666665
EXTRACT: note_on channel=4 note=67 velocity=64 time=0
EXTRACT: note_on channel=0 note=65 velocity=0 time=0.2715916333333333
EXTRACT: note_on channel=4 note=67 velocity=0 time=0
EXTRACT: note_on channel=0 note=58 velocity=80 time=0.0011363666666666665
EXTRACT: note_on channel=4 note=70 velocity=64 time=0
EXTRACT: note_on channel=4 note=70 velocity=0 time=0.2715916333333333
EXTRACT: note_on channel=4 note=67 velocity=64 time=0.0011363666666666665
EXTRACT: note_on channel=0 note=58 velocity=0 time=0.2715916333333333
EXTRACT: note_on channel=4 note=67 velocity=0 time=0
EXTRACT: note_on channel=0 note=60 velocity=80 time=0.0011363666666666665
EXTRACT: note_on channel=4 note=70 velocity=64 time=0
EXTRACT: note_on channel=4 note=70 velocity=0 time=0.2715916333333333
EXTRACT: note_on channel=4 note=67 velocity=64 time=0.0011363666666666665
EXTRACT: note_on channel=0 note=60 velocity=0 time=0.2715916333333333
EXTRACT: note_on channel=4 note=67 velocity=0 time=0
EXTRACT: note_on channel=0 note=62 velocity=80 time=0.0011363666666666665
EXTRACT: note_on channel=4 note=70 velocity=64 time=0
EXTRACT: note_on channel=4 note=70 velocity=0 time=0.2715916333333333
EXTRACT: note_on channel=2 note=65 velocity=64 time=0.0011363666666666665
EXTRACT: note_on channel=4 note=65 velocity=64 time=0
EXTRACT: note_on channel=6 note=62 velocity=64 time=0
EXTRACT: note_on channel=2 note=65 velocity=0 time=0.2715916333333333
EXTRACT: note_on channel=4 note=65 velocity=0 time=0
EXTRACT: note_on channel=2 note=70 velocity=64 time=0.0011363666666666665
EXTRACT: note_on channel=2 note=70 velocity=0 time=0.2715916333333333
EXTRACT: note_on channel=6 note=62 velocity=0 time=0
EXTRACT: note_on channel=2 note=65 velocity=64 time=0.0011363666666666665
EXTRACT: note_on channel=2 note=65 velocity=0 time=0.2715916333333333
EXTRACT: note_on channel=2 note=70 velocity=64 time=0.0011363666666666665
EXTRACT: note_on channel=0 note=62 velocity=0 time=0.2715916333333333
EXTRACT: note_on channel=2 note=70 velocity=0 time=0
EXTRACT: note_on channel=2 note=65 velocity=64 time=0.0011363666666666665
EXTRACT: note_on channel=2 note=65 velocity=0 time=0.2715916333333333
EXTRACT: note_on channel=2 note=70 velocity=64 time=0.0011363666666666665
EXTRACT: note_on channel=2 note=70 velocity=0 time=0.2715916333333333
EXTRACT: note_on channel=2 note=65 velocity=64 time=0.0011363666666666665
EXTRACT: note_on channel=2 note=65 velocity=0 time=0.2715916333333333
EXTRACT: note_on channel=2 note=70 velocity=64 time=0.0011363666666666665
EXTRACT: note_on channel=2 note=70 velocity=0 time=0.2715916333333333
EXTRACT: note_on channel=2 note=65 velocity=64 time=0.0011363666666666665
EXTRACT: note_on channel=2 note=65 velocity=0 time=0.2715916333333333
EXTRACT: note_on channel=2 note=70 velocity=64 time=0.0011363666666666665
EXTRACT: note_on channel=2 note=70 velocity=0 time=0.2715916333333333
EXTRACT: note_on channel=2 note=65 velocity=64 time=0.0011363666666666665
EXTRACT: note_on channel=2 note=65 velocity=0 time=0.2715916333333333
EXTRACT: note_on channel=2 note=70 velocity=64 time=0.0011363666666666665
EXTRACT: note_on channel=2 note=70 velocity=0 time=0.2715916333333333
EXTRACT: note_on channel=2 note=65 velocity=64 time=0.0011363666666666665
EXTRACT: note_on channel=2 note=65 velocity=0 time=0.2715916333333333
EXTRACT: note_on channel=2 note=70 velocity=64 time=0.0011363666666666665
EXTRACT: note_on channel=2 note=70 velocity=0 time=0.2715916333333333
EXTRACT: note_on channel=2 note=65 velocity=64 time=0.0011363666666666665
EXTRACT: note_on channel=2 note=65 velocity=0 time=0.2715916333333333
EXTRACT: note_on channel=2 note=70 velocity=64 time=0.0011363666666666665
EXTRACT: note_on channel=2 note=70 velocity=0 time=0.2715916333333333
EXTRACT: note_on channel=2 note=67 velocity=64 time=0.0011363666666666665
EXTRACT: note_on channel=4 note=67 velocity=64 time=0
EXTRACT: note_on channel=6 note=62 velocity=64 time=0
EXTRACT: note_on channel=2 note=67 velocity=0 time=0.2715916333333333
EXTRACT: note_on channel=4 note=67 velocity=0 time=0
EXTRACT: note_on channel=4 note=70 velocity=64 time=0.0011363666666666665
EXTRACT: note_on channel=4 note=70 velocity=0 time=0.2715916333333333
EXTRACT: note_on channel=6 note=62 velocity=0 time=0
EXTRACT: note_on channel=4 note=67 velocity=64 time=0.0011363666666666665
EXTRACT: note_on channel=4 note=67 velocity=0 time=0.2715916333333333
EXTRACT: note_on channel=4 note=70 velocity=64 time=0.0011363666666666665
EXTRACT: note_on channel=4 note=70 velocity=0 time=0.2715916333333333
EXTRACT: note_on channel=0 note=70 velocity=80 time=0.0011363666666666665
EXTRACT: note_on channel=4 note=67 velocity=64 time=0
EXTRACT: note_on channel=0 note=70 velocity=0 time=0.2715916333333333
EXTRACT: note_on channel=4 note=67 velocity=0 time=0
EXTRACT: note_on channel=0 note=69 velocity=80 time=0.0011363666666666665
EXTRACT: note_on channel=4 note=70 velocity=64 time=0
EXTRACT: note_on channel=4 note=70 velocity=0 time=0.2715916333333333
EXTRACT: note_on channel=4 note=67 velocity=64 time=0.0011363666666666665
EXTRACT: note_on channel=0 note=69 velocity=0 time=0.2715916333333333
EXTRACT: note_on channel=4 note=67 velocity=0 time=0
EXTRACT: note_on channel=0 note=67 velocity=80 time=0.0011363666666666665
EXTRACT: note_on channel=4 note=70 velocity=64 time=0
EXTRACT: note_on channel=4 note=70 velocity=0 time=0.2715916333333333
EXTRACT: note_on channel=4 note=67 velocity=64 time=0.0011363666666666665
EXTRACT: note_on channel=6 note=63 velocity=64 time=0
EXTRACT: note_on channel=4 note=67 velocity=0 time=0.2715916333333333
EXTRACT: note_on channel=4 note=70 velocity=64 time=0.0011363666666666665
EXTRACT: note_on channel=0 note=67 velocity=0 time=0.2715916333333333
EXTRACT: note_on channel=4 note=70 velocity=0 time=0
EXTRACT: note_on channel=6 note=63 velocity=0 time=0
EXTRACT: note_on channel=0 note=65 velocity=80 time=0.0011363666666666665
EXTRACT: note_on channel=4 note=67 velocity=64 time=0
EXTRACT: note_on channel=0 note=65 velocity=0 time=0.2715916333333333
EXTRACT: note_on channel=4 note=67 velocity=0 time=0
EXTRACT: note_on channel=0 note=58 velocity=80 time=0.0011363666666666665
EXTRACT: note_on channel=4 note=70 velocity=64 time=0
EXTRACT: note_on channel=4 note=70 velocity=0 time=0.2715916333333333
EXTRACT: note_on channel=4 note=67 velocity=64 time=0.0011363666666666665
EXTRACT: note_on channel=0 note=58 velocity=0 time=0.2715916333333333
EXTRACT: note_on channel=4 note=67 velocity=0 time=0
EXTRACT: note_on channel=0 note=60 velocity=80 time=0.0011363666666666665
EXTRACT: note_on channel=4 note=70 velocity=64 time=0
EXTRACT: note_on channel=4 note=70 velocity=0 time=0.2715916333333333
EXTRACT: note_on channel=4 note=67 velocity=64 time=0.0011363666666666665
EXTRACT: note_on channel=0 note=60 velocity=0 time=0.2715916333333333
EXTRACT: note_on channel=4 note=67 velocity=0 time=0
EXTRACT: note_on channel=0 note=62 velocity=80 time=0.0011363666666666665
EXTRACT: note_on channel=4 note=70 velocity=64 time=0
EXTRACT: note_on channel=4 note=70 velocity=0 time=0.2715916333333333
EXTRACT: note_on channel=2 note=65 velocity=64 time=0.0011363666666666665
EXTRACT: note_on channel=4 note=65 velocity=64 time=0
EXTRACT: note_on channel=6 note=62 velocity=64 time=0
EXTRACT: note_on channel=0 note=62 velocity=0 time=0.2715916333333333
EXTRACT: note_on channel=2 note=65 velocity=0 time=0
EXTRACT: note_on channel=4 note=65 velocity=0 time=0
EXTRACT: note_on channel=0 note=63 velocity=80 time=0.0011363666666666665
EXTRACT: note_on channel=2 note=70 velocity=64 time=0
EXTRACT: note_on channel=0 note=63 velocity=0 time=0.08977296666666665
EXTRACT: note_on channel=0 note=62 velocity=80 time=0.0011363666666666665
EXTRACT: note_on channel=0 note=62 velocity=0 time=0.08977296666666665
EXTRACT: note_on channel=0 note=60 velocity=80 time=0.0011363666666666665
EXTRACT: note_on channel=0 note=60 velocity=0 time=0.08977296666666665
EXTRACT: note_on channel=2 note=70 velocity=0 time=0
EXTRACT: note_on channel=6 note=62 velocity=0 time=0
EXTRACT: note_on channel=0 note=62 velocity=80 time=0.0011363666666666665
EXTRACT: note_on channel=2 note=65 velocity=64 time=0
EXTRACT: note_on channel=2 note=65 velocity=0 time=0.2715916333333333
EXTRACT: note_on channel=2 note=70 velocity=64 time=0.0011363666666666665
EXTRACT: note_on channel=2 note=70 velocity=0 time=0.2715916333333333
EXTRACT: note_on channel=2 note=65 velocity=64 time=0.0011363666666666665
EXTRACT: note_on channel=2 note=65 velocity=0 time=0.2715916333333333
EXTRACT: note_on channel=2 note=70 velocity=64 time=0.0011363666666666665
EXTRACT: note_on channel=2 note=70 velocity=0 time=0.2715916333333333
EXTRACT: note_on channel=2 note=65 velocity=64 time=0.0011363666666666665
EXTRACT: note_on channel=2 note=65 velocity=0 time=0.2715916333333333
EXTRACT: note_on channel=2 note=70 velocity=64 time=0.0011363666666666665
EXTRACT: note_on channel=0 note=62 velocity=0 time=0.2715916333333333
EXTRACT: note_on channel=2 note=70 velocity=0 time=0
EXTRACT: note_on channel=2 note=65 velocity=64 time=0.0011363666666666665
EXTRACT: note_on channel=2 note=65 velocity=0 time=0.2715916333333333
EXTRACT: note_on channel=2 note=70 velocity=64 time=0.0011363666666666665
EXTRACT: note_on channel=2 note=70 velocity=0 time=0.2715916333333333
EXTRACT: note_on channel=2 note=65 velocity=64 time=0.0011363666666666665
EXTRACT: note_on channel=2 note=65 velocity=0 time=0.2715916333333333
EXTRACT: note_on channel=2 note=70 velocity=64 time=0.0011363666666666665
EXTRACT: note_on channel=2 note=70 velocity=0 time=0.2715916333333333
EXTRACT: note_on channel=0 note=58 velocity=80 time=0.0011363666666666665
EXTRACT: note_on channel=2 note=65 velocity=64 time=0
EXTRACT: note_on channel=2 note=65 velocity=0 time=0.2715916333333333
EXTRACT: note_on channel=2 note=70 velocity=64 time=0.0011363666666666665
EXTRACT: note_on channel=0 note=58 velocity=0 time=0.2715916333333333
EXTRACT: note_on channel=2 note=70 velocity=0 time=0
EXTRACT: note_on channel=0 note=60 velocity=80 time=0.0011363666666666665
EXTRACT: note_on channel=2 note=65 velocity=64 time=0
EXTRACT: note_on channel=2 note=65 velocity=0 time=0.2715916333333333
EXTRACT: note_on channel=2 note=70 velocity=64 time=0.0011363666666666665
EXTRACT: note_on channel=0 note=60 velocity=0 time=0.2715916333333333
EXTRACT: note_on channel=2 note=70 velocity=0 time=0
EXTRACT: note_on channel=0 note=62 velocity=80 time=0.0011363666666666665
EXTRACT: note_on channel=2 note=67 velocity=64 time=0
EXTRACT: note_on channel=4 note=67 velocity=64 time=0
EXTRACT: note_on channel=6 note=63 velocity=64 time=0
EXTRACT: note_on channel=2 note=67 velocity=0 time=0.2715916333333333
EXTRACT: note_on channel=4 note=67 velocity=0 time=0
EXTRACT: note_on channel=4 note=70 velocity=64 time=0.0011363666666666665
EXTRACT: note_on channel=0 note=62 velocity=0 time=0.2715916333333333
EXTRACT: note_on channel=4 note=70 velocity=0 time=0
EXTRACT: note_on channel=6 note=63 velocity=0 time=0
EXTRACT: note_on channel=0 note=63 velocity=80 time=0.0011363666666666665
EXTRACT: note_on channel=4 note=67 velocity=64 time=0
EXTRACT: note_on channel=0 note=63 velocity=0 time=0.2715916333333333
EXTRACT: note_on channel=4 note=67 velocity=0 time=0
EXTRACT: note_on channel=0 note=62 velocity=80 time=0.0011363666666666665
EXTRACT: note_on channel=4 note=70 velocity=64 time=0
EXTRACT: note_on channel=4 note=70 velocity=0 time=0.2715916333333333
EXTRACT: note_on channel=4 note=67 velocity=64 time=0.0011363666666666665
EXTRACT: note_on channel=4 note=67 velocity=0 time=0.2715916333333333
EXTRACT: note_on channel=4 note=70 velocity=64 time=0.0011363666666666665
EXTRACT: note_on channel=0 note=62 velocity=0 time=0.2715916333333333
EXTRACT: note_on channel=4 note=70 velocity=0 time=0
EXTRACT: note_on channel=0 note=63 velocity=80 time=0.0011363666666666665
EXTRACT: note_on channel=4 note=67 velocity=64 time=0
EXTRACT: note_on channel=0 note=63 velocity=0 time=0.2715916333333333
EXTRACT: note_on channel=4 note=67 velocity=0 time=0
EXTRACT: note_on channel=0 note=62 velocity=80 time=0.0011363666666666665
EXTRACT: note_on channel=4 note=70 velocity=64 time=0
EXTRACT: note_on channel=4 note=70 velocity=0 time=0.2715916333333333
EXTRACT: note_on channel=2 note=69 velocity=64 time=0.0011363666666666665
EXTRACT: note_on channel=4 note=69 velocity=64 time=0
EXTRACT: note_on channel=6 note=65 velocity=64 time=0
EXTRACT: note_on channel=2 note=69 velocity=0 time=0.2715916333333333
EXTRACT: note_on channel=4 note=69 velocity=0 time=0
EXTRACT: note_on channel=2 note=72 velocity=64 time=0.0011363666666666665
EXTRACT: note_on channel=0 note=62 velocity=0 time=0.2715916333333333
EXTRACT: note_on channel=2 note=72 velocity=0 time=0
EXTRACT: note_on channel=6 note=65 velocity=0 time=0
EXTRACT: note_on channel=0 note=63 velocity=80 time=0.0011363666666666665
EXTRACT: note_on channel=2 note=69 velocity=64 time=0
EXTRACT: note_on channel=0 note=63 velocity=0 time=0.2715916333333333
EXTRACT: note_on channel=2 note=69 velocity=0 time=0
EXTRACT: note_on channel=0 note=62 velocity=80 time=0.0011363666666666665
EXTRACT: note_on channel=2 note=72 velocity=64 time=0
EXTRACT: note_on channel=2 note=72 velocity=0 time=0.2715916333333333
EXTRACT: note_on channel=2 note=69 velocity=64 time=0.0011363666666666665
EXTRACT: note_on channel=2 note=69 velocity=0 time=0.2715916333333333
EXTRACT: note_on channel=2 note=72 velocity=64 time=0.0011363666666666665
EXTRACT: note_on channel=0 note=62 velocity=0 time=0.2715916333333333
EXTRACT: note_on channel=2 note=72 velocity=0 time=0
EXTRACT: note_on channel=0 note=58 velocity=80 time=0.0011363666666666665
EXTRACT: note_on channel=2 note=69 velocity=64 time=0
EXTRACT: note_on channel=0 note=58 velocity=0 time=0.2715916333333333
EXTRACT: note_on channel=2 note=69 velocity=0 time=0
EXTRACT: note_on channel=0 note=58 velocity=80 time=0.0011363666666666665
EXTRACT: note_on channel=2 note=72 velocity=64 time=0
EXTRACT: note_on channel=2 note=72 velocity=0 time=0.2715916333333333
EXTRACT: note_on channel=2 note=65 velocity=64 time=0.0011363666666666665
EXTRACT: note_on channel=4 note=65 velocity=64 time=0
EXTRACT: note_on channel=6 note=62 velocity=64 time=0
EXTRACT: note_on channel=2 note=65 velocity=0 time=0.2715916333333333
EXTRACT: note_on channel=4 note=65 velocity=0 time=0
EXTRACT: note_on channel=4 note=70 velocity=64 time=0.0011363666666666665
EXTRACT: note_on channel=4 note=70 velocity=0 time=0.2715916333333333
EXTRACT: note_on channel=6 note=62 velocity=0 time=0
EXTRACT: note_on channel=4 note=65 velocity=64 time=0.0011363666666666665
EXTRACT: note_on channel=4 note=65 velocity=0 time=0.2715916333333333
EXTRACT: note_on channel=4 note=70 velocity=64 time=0.0011363666666666665
EXTRACT: note_on channel=4 note=70 velocity=0 time=0.2715916333333333
EXTRACT: note_on channel=4 note=65 velocity=64 time=0.0011363666666666665
EXTRACT: note_on channel=4 note=65 velocity=0 time=0.2715916333333333
EXTRACT: note_on channel=4 note=70 velocity=64 time=0.0011363666666666665
EXTRACT: note_on channel=4 note=70 velocity=0 time=0.2715916333333333
EXTRACT: note_on channel=4 note=65 velocity=64 time=0.0011363666666666665
EXTRACT: note_on channel=4 note=65 velocity=0 time=0.2715916333333333
EXTRACT: note_on channel=4 note=70 velocity=64 time=0.0011363666666666665
EXTRACT: note_on channel=0 note=58 velocity=0 time=0.2715916333333333
EXTRACT: note_on channel=4 note=70 velocity=0 time=0
EXTRACT: note_on channel=4 note=65 velocity=64 time=0.0011363666666666665
EXTRACT: note_on channel=4 note=65 velocity=0 time=0.2715916333333333
EXTRACT: note_on channel=4 note=70 velocity=64 time=0.0011363666666666665
EXTRACT: note_on channel=4 note=70 velocity=0 time=0.2715916333333333
EXTRACT: note_on channel=4 note=65 velocity=64 time=0.0011363666666666665
EXTRACT: note_on channel=4 note=65 velocity=0 time=0.2715916333333333
EXTRACT: note_on channel=4 note=70 velocity=64 time=0.0011363666666666665
EXTRACT: note_on channel=4 note=70 velocity=0 time=0.2715916333333333
EXTRACT: note_on channel=4 note=65 velocity=64 time=0.0011363666666666665
EXTRACT: note_on channel=4 note=65 velocity=0 time=0.2715916333333333
EXTRACT: note_on channel=4 note=70 velocity=64 time=0.0011363666666666665
EXTRACT: note_on channel=4 note=70 velocity=0 time=0.2715916333333333
EXTRACT: note_on channel=4 note=65 velocity=64 time=0.0011363666666666665
EXTRACT: note_on channel=4 note=65 velocity=0 time=0.2715916333333333
EXTRACT: note_on channel=4 note=70 velocity=64 time=0.0011363666666666665
EXTRACT: note_on channel=4 note=70 velocity=0 time=0.2715916333333333
EXTRACT: note_on channel=0 note=69 velocity=64 time=0.0011363666666666665
EXTRACT: note_on channel=4 note=69 velocity=64 time=0
EXTRACT: note_on channel=8 note=53 velocity=49 time=0
EXTRACT: note_on channel=10 note=50 velocity=49 time=0
EXTRACT: note_on channel=11 note=45 velocity=49 time=0
EXTRACT: note_on channel=12 note=38 velocity=49 time=0
EXTRACT: note_on channel=0 note=69 velocity=0 time=0.2715916333333333
EXTRACT: note_on channel=4 note=69 velocity=0 time=0
EXTRACT: note_on channel=0 note=77 velocity=64 time=0.0011363666666666665
EXTRACT: note_on channel=0 note=77 velocity=0 time=0.2715916333333333
EXTRACT: note_on channel=0 note=69 velocity=64 time=0.0011363666666666665
EXTRACT: note_on channel=0 note=69 velocity=0 time=0.2715916333333333
EXTRACT: note_on channel=0 note=77 velocity=64 time=0.0011363666666666665
EXTRACT: note_on channel=6 note=58 velocity=80 time=0
EXTRACT: note_on channel=7 note=58 velocity=64 time=0
EXTRACT: note_on channel=0 note=77 velocity=0 time=0.2715916333333333
EXTRACT: note_on channel=6 note=58 velocity=0 time=0
EXTRACT: note_on channel=7 note=58 velocity=0 time=0
EXTRACT: note_on channel=0 note=69 velocity=64 time=0.0011363666666666665
EXTRACT: note_on channel=6 note=65 velocity=80 time=0
EXTRACT: note_on channel=7 note=65 velocity=64 time=0
EXTRACT: note_on channel=0 note=69 velocity=0 time=0.2715916333333333
EXTRACT: note_on channel=6 note=65 velocity=0 time=0
EXTRACT: note_on channel=7 note=65 velocity=0 time=0
EXTRACT: note_on channel=0 note=77 velocity=64 time=0.0011363666666666665
EXTRACT: note_on channel=6 note=67 velocity=80 time=0
EXTRACT: note_on channel=7 note=67 velocity=64 time=0
EXTRACT: note_on channel=0 note=77 velocity=0 time=0.2715916333333333
EXTRACT: note_on channel=6 note=67 velocity=0 time=0
EXTRACT: note_on channel=7 note=67 velocity=0 time=0
EXTRACT: note_on channel=0 note=69 velocity=64 time=0.0011363666666666665
EXTRACT: note_on channel=6 note=65 velocity=80 time=0
EXTRACT: note_on channel=7 note=65 velocity=64 time=0
EXTRACT: note_on channel=0 note=69 velocity=0 time=0.2715916333333333
EXTRACT: note_on channel=0 note=77 velocity=64 time=0.0011363666666666665
EXTRACT: note_on channel=0 note=77 velocity=0 time=0.2715916333333333
EXTRACT: note_on channel=6 note=65 velocity=0 time=0
EXTRACT: note_on channel=7 note=65 velocity=0 time=0
EXTRACT: note_on channel=8 note=53 velocity=0 time=0
EXTRACT: note_on channel=10 note=50 velocity=0 time=0
EXTRACT: note_on channel=11 note=45 velocity=0 time=0
EXTRACT: note_on channel=12 note=38 velocity=0 time=0
EXTRACT: note_on channel=0 note=70 velocity=64 time=0.0011363666666666665
EXTRACT: note_on channel=6 note=65 velocity=80 time=0
EXTRACT: note_on channel=7 note=65 velocity=64 time=0
EXTRACT: note_on channel=8 note=55 velocity=49 time=0
EXTRACT: note_on channel=10 note=55 velocity=49 time=0
EXTRACT: note_on channel=11 note=46 velocity=49 time=0
EXTRACT: note_on channel=12 note=43 velocity=49 time=0
EXTRACT: note_on channel=0 note=70 velocity=0 time=0.2715916333333333
EXTRACT: note_on channel=6 note=65 velocity=0 time=0
EXTRACT: note_on channel=7 note=65 velocity=0 time=0
EXTRACT: note_on channel=0 note=79 velocity=64 time=0.0011363666666666665
EXTRACT: note_on channel=6 note=67 velocity=80 time=0
EXTRACT: note_on channel=7 note=67 velocity=64 time=0
EXTRACT: note_on channel=0 note=79 velocity=0 time=0.2715916333333333
EXTRACT: note_on channel=6 note=67 velocity=0 time=0
EXTRACT: note_on channel=7 note=67 velocity=0 time=0
EXTRACT: note_on channel=0 note=70 velocity=64 time=0.0011363666666666665
EXTRACT: note_on channel=6 note=65 velocity=80 time=0
EXTRACT: note_on channel=7 note=65 velocity=64 time=0
EXTRACT: note_on channel=0 note=70 velocity=0 time=0.2715916333333333
EXTRACT: note_on channel=0 note=79 velocity=64 time=0.0011363666666666665
EXTRACT: note_on channel=0 note=79 velocity=0 time=0.2715916333333333
EXTRACT: note_on channel=6 note=65 velocity=0 time=0
EXTRACT: note_on channel=7 note=65 velocity=0 time=0
EXTRACT: note_on channel=0 note=70 velocity=64 time=0.0011363666666666665
EXTRACT: note_on channel=6 note=65 velocity=80 time=0
EXTRACT: note_on channel=7 note=65 velocity=64 time=0
EXTRACT: note_on channel=0 note=70 velocity=0 time=0.2715916333333333
EXTRACT: note_on channel=0 note=79 velocity=64 time=0.0011363666666666665
EXTRACT: note_on channel=0 note=79 velocity=0 time=0.2715916333333333
EXTRACT: note_on channel=6 note=65 velocity=0 time=0
EXTRACT: note_on channel=7 note=65 velocity=0 time=0
EXTRACT: note_on channel=0 note=70 velocity=64 time=0.0011363666666666665
EXTRACT: note_on channel=6 note=62 velocity=80 time=0
EXTRACT: note_on channel=7 note=62 velocity=64 time=0
EXTRACT: note_on channel=0 note=70 velocity=0 time=0.2715916333333333
EXTRACT: note_on channel=0 note=79 velocity=64 time=0.0011363666666666665
EXTRACT: note_on channel=0 note=79 velocity=0 time=0.2715916333333333
EXTRACT: note_on channel=8 note=55 velocity=0 time=0
EXTRACT: note_on channel=10 note=55 velocity=0 time=0
EXTRACT: note_on channel=11 note=46 velocity=0 time=0
EXTRACT: note_on channel=12 note=43 velocity=0 time=0
EXTRACT: note_on channel=0 note=70 velocity=64 time=0.0011363666666666665
EXTRACT: note_on channel=8 note=55 velocity=49 time=0
EXTRACT: note_on channel=10 note=51 velocity=49 time=0
EXTRACT: note_on channel=11 note=46 velocity=49 time=0
EXTRACT: note_on channel=12 note=39 velocity=49 time=0
EXTRACT: note_on channel=0 note=70 velocity=0 time=0.2715916333333333
EXTRACT: note_on channel=6 note=62 velocity=0 time=0
EXTRACT: note_on channel=7 note=62 velocity=0 time=0
EXTRACT: note_on channel=0 note=79 velocity=64 time=0.0011363666666666665
EXTRACT: note_on channel=6 note=60 velocity=80 time=0
EXTRACT: note_on channel=7 note=60 velocity=64 time=0
EXTRACT: note_on channel=0 note=79 velocity=0 time=0.2715916333333333
EXTRACT: note_on channel=6 note=60 velocity=0 time=0
EXTRACT: note_on channel=7 note=60 velocity=0 time=0
EXTRACT: note_on channel=0 note=70 velocity=64 time=0.0011363666666666665
EXTRACT: note_on channel=6 note=58 velocity=80 time=0
EXTRACT: note_on channel=7 note=58 velocity=64 time=0
EXTRACT: note_on channel=0 note=70 velocity=0 time=0.2715916333333333
EXTRACT: note_on channel=0 note=79 velocity=64 time=0.0011363666666666665
EXTRACT: note_on channel=0 note=79 velocity=0 time=0.2715916333333333
EXTRACT: note_on channel=6 note=58 velocity=0 time=0
EXTRACT: note_on channel=7 note=58 velocity=0 time=0
EXTRACT: note_on channel=0 note=70 velocity=64 time=0.0011363666666666665
EXTRACT: note_on channel=6 note=58 velocity=80 time=0
EXTRACT: note_on channel=7 note=58 velocity=64 time=0
EXTRACT: note_on channel=0 note=70 velocity=0 time=0.2715916333333333
EXTRACT: note_on channel=6 note=58 velocity=0 time=0
EXTRACT: note_on channel=7 note=58 velocity=0 time=0
EXTRACT: note_on channel=0 note=79 velocity=64 time=0.0011363666666666665
EXTRACT: note_on channel=6 note=60 velocity=80 time=0
EXTRACT: note_on channel=7 note=60 velocity=64 time=0
EXTRACT: note_on channel=0 note=79 velocity=0 time=0.2715916333333333
EXTRACT: note_on channel=6 note=60 velocity=0 time=0
EXTRACT: note_on channel=7 note=60 velocity=0 time=0
EXTRACT: note_on channel=0 note=70 velocity=64 time=0.0011363666666666665
EXTRACT: note_on channel=6 note=62 velocity=80 time=0
EXTRACT: note_on channel=7 note=62 velocity=64 time=0
EXTRACT: note_on channel=0 note=70 velocity=0 time=0.2715916333333333
EXTRACT: note_on channel=6 note=62 velocity=0 time=0
EXTRACT: note_on channel=7 note=62 velocity=0 time=0
EXTRACT: note_on channel=0 note=79 velocity=64 time=0.0011363666666666665
EXTRACT: note_on channel=6 note=63 velocity=80 time=0
EXTRACT: note_on channel=7 note=63 velocity=64 time=0
EXTRACT: note_on channel=0 note=79 velocity=0 time=0.2715916333333333
EXTRACT: note_on channel=6 note=63 velocity=0 time=0
EXTRACT: note_on channel=7 note=63 velocity=0 time=0
EXTRACT: note_on channel=8 note=55 velocity=0 time=0
EXTRACT: note_on channel=10 note=51 velocity=0 time=0
EXTRACT: note_on channel=11 note=46 velocity=0 time=0
EXTRACT: note_on channel=12 note=39 velocity=0 time=0
EXTRACT: note_on channel=0 note=74 velocity=64 time=0.0011363666666666665
EXTRACT: note_on channel=2 note=74 velocity=64 time=0
EXTRACT: note_on channel=6 note=62 velocity=80 time=0
EXTRACT: note_on channel=7 note=62 velocity=64 time=0
EXTRACT: note_on channel=8 note=53 velocity=49 time=0
EXTRACT: note_on channel=10 note=46 velocity=49 time=0
EXTRACT: note_on channel=11 note=50 velocity=49 time=0
EXTRACT: note_on channel=12 note=34 velocity=49 time=0
EXTRACT: note_on channel=0 note=74 velocity=0 time=0.2715916333333333
EXTRACT: note_on channel=2 note=74 velocity=0 time=0
EXTRACT: note_on channel=2 note=77 velocity=64 time=0.0011363666666666665
EXTRACT: note_on channel=2 note=77 velocity=0 time=0.2715916333333333
EXTRACT: note_on channel=2 note=74 velocity=64 time=0.0011363666666666665
EXTRACT: note_on channel=2 note=74 velocity=0 time=0.2715916333333333
EXTRACT: note_on channel=2 note=77 velocity=64 time=0.0011363666666666665
EXTRACT: note_on channel=2 note=77 velocity=0 time=0.2715916333333333
EXTRACT: note_on channel=8 note=53 velocity=0 time=0
EXTRACT: note_on channel=10 note=46 velocity=0 time=0
EXTRACT: note_on channel=11 note=50 velocity=0 time=0
EXTRACT: note_on channel=12 note=34 velocity=0 time=0
EXTRACT: note_on channel=2 note=74 velocity=64 time=0.0011363666666666665
EXTRACT: note_on channel=8 note=53 velocity=49 time=0
EXTRACT: note_on channel=10 note=53 velocity=49 time=0
EXTRACT: note_on channel=11 note=50 velocity=49 time=0
EXTRACT: note_on channel=12 note=41 velocity=49 time=0
EXTRACT: note_on channel=2 note=74 velocity=0 time=0.2715916333333333
EXTRACT: note_on channel=2 note=77 velocity=64 time=0.0011363666666666665
EXTRACT: note_on channel=2 note=77 velocity=0 time=0.2715916333333333
EXTRACT: note_on channel=2 note=74 velocity=64 time=0.0011363666666666665
EXTRACT: note_on channel=2 note=74 velocity=0 time=0.2715916333333333
EXTRACT: note_on channel=2 note=77 velocity=64 time=0.0011363666666666665
EXTRACT: note_on channel=2 note=77 velocity=0 time=0.2715916333333333
EXTRACT: note_on channel=6 note=62 velocity=0 time=0
EXTRACT: note_on channel=7 note=62 velocity=0 time=0
EXTRACT: note_on channel=8 note=53 velocity=0 time=0
EXTRACT: note_on channel=10 note=53 velocity=0 time=0
EXTRACT: note_on channel=11 note=50 velocity=0 time=0
EXTRACT: note_on channel=12 note=41 velocity=0 time=0
EXTRACT: note_on channel=0 note=69 velocity=64 time=0.0011363666666666665
EXTRACT: note_on channel=2 note=69 velocity=64 time=0
EXTRACT: note_on channel=8 note=53 velocity=49 time=0
EXTRACT: note_on channel=10 note=50 velocity=49 time=0
EXTRACT: note_on channel=11 note=45 velocity=49 time=0
EXTRACT: note_on channel=12 note=38 velocity=49 time=0
EXTRACT: note_on channel=0 note=69 velocity=0 time=0.2715916333333333
EXTRACT: note_on channel=2 note=69 velocity=0 time=0
EXTRACT: note_on channel=0 note=77 velocity=64 time=0.0011363666666666665
EXTRACT: note_on channel=0 note=77 velocity=0 time=0.2715916333333333
EXTRACT: note_on channel=0 note=69 velocity=64 time=0.0011363666666666665
EXTRACT: note_on channel=0 note=69 velocity=0 time=0.2715916333333333
EXTRACT: note_on channel=0 note=77 velocity=64 time=0.0011363666666666665
EXTRACT: note_on channel=0 note=77 velocity=0 time=0.2715916333333333
EXTRACT: note_on channel=0 note=69 velocity=64 time=0.0011363666666666665
EXTRACT: note_on channel=6 note=65 velocity=80 time=0
EXTRACT: note_on channel=7 note=65 velocity=64 time=0
EXTRACT: note_on channel=0 note=69 velocity=0 time=0.2715916333333333
EXTRACT: note_on channel=6 note=65 velocity=0 time=0
EXTRACT: note_on channel=7 note=65 velocity=0 time=0
EXTRACT: note_on channel=0 note=77 velocity=64 time=0.0011363666666666665
EXTRACT: note_on channel=6 note=67 velocity=80 time=0
EXTRACT: note_on channel=7 note=67 velocity=64 time=0
EXTRACT: note_on channel=0 note=77 velocity=0 time=0.2715916333333333
EXTRACT: note_on channel=6 note=67 velocity=0 time=0
EXTRACT: note_on channel=7 note=67 velocity=0 time=0
EXTRACT: note_on channel=0 note=69 velocity=64 time=0.0011363666666666665
EXTRACT: note_on channel=6 note=65 velocity=80 time=0
EXTRACT: note_on channel=7 note=65 velocity=64 time=0
EXTRACT: note_on channel=0 note=69 velocity=0 time=0.2715916333333333
EXTRACT: note_on channel=0 note=77 velocity=64 time=0.0011363666666666665
EXTRACT: note_on channel=0 note=77 velocity=0 time=0.2715916333333333
EXTRACT: note_on channel=6 note=65 velocity=0 time=0
EXTRACT: note_on channel=7 note=65 velocity=0 time=0
EXTRACT: note_on channel=8 note=53 velocity=0 time=0
EXTRACT: note_on channel=10 note=50 velocity=0 time=0
EXTRACT: note_on channel=11 note=45 velocity=0 time=0
EXTRACT: note_on channel=12 note=38 velocity=0 time=0
EXTRACT: note_on channel=0 note=70 velocity=64 time=0.0011363666666666665
EXTRACT: note_on channel=6 note=65 velocity=80 time=0
EXTRACT: note_on channel=7 note=65 velocity=64 time=0
EXTRACT: note_on channel=8 note=55 velocity=49 time=0
EXTRACT: note_on channel=10 note=55 velocity=49 time=0
EXTRACT: note_on channel=11 note=46 velocity=49 time=0
EXTRACT: note_on channel=12 note=43 velocity=49 time=0
EXTRACT: note_on channel=0 note=70 velocity=0 time=0.2715916333333333
EXTRACT: note_on channel=6 note=65 velocity=0 time=0
EXTRACT: note_on channel=7 note=65 velocity=0 time=0
EXTRACT: note_on channel=0 note=79 velocity=64 time=0.0011363666666666665
EXTRACT: note_on channel=6 note=67 velocity=80 time=0
EXTRACT: note_on channel=7 note=67 velocity=64 time=0
EXTRACT: note_on channel=0 note=79 velocity=0 time=0.2715916333333333
EXTRACT: note_on channel=6 note=67 velocity=0 time=0
EXTRACT: note_on channel=7 note=67 velocity=0 time=0
EXTRACT: note_on channel=0 note=70 velocity=64 time=0.0011363666666666665
EXTRACT: note_on channel=6 note=65 velocity=80 time=0
EXTRACT: note_on channel=7 note=65 velocity=64 time=0
EXTRACT: note_on channel=0 note=70 velocity=0 time=0.2715916333333333
EXTRACT: note_on channel=0 note=79 velocity=64 time=0.0011363666666666665
EXTRACT: note_on channel=0 note=79 velocity=0 time=0.2715916333333333
EXTRACT: note_on channel=6 note=65 velocity=0 time=0
EXTRACT: note_on channel=7 note=65 velocity=0 time=0
EXTRACT: note_on channel=0 note=70 velocity=64 time=0.0011363666666666665
EXTRACT: note_on channel=6 note=65 velocity=80 time=0
EXTRACT: note_on channel=7 note=65 velocity=64 time=0
EXTRACT: note_on channel=0 note=70 velocity=0 time=0.2715916333333333
EXTRACT: note_on channel=0 note=79 velocity=64 time=0.0011363666666666665
EXTRACT: note_on channel=0 note=79 velocity=0 time=0.2715916333333333
EXTRACT: note_on channel=6 note=65 velocity=0 time=0
EXTRACT: note_on channel=7 note=65 velocity=0 time=0
EXTRACT: note_on channel=0 note=70 velocity=64 time=0.0011363666666666665
EXTRACT: note_on channel=6 note=62 velocity=80 time=0
EXTRACT: note_on channel=7 note=62 velocity=64 time=0
EXTRACT: note_on channel=0 note=70 velocity=0 time=0.2715916333333333
EXTRACT: note_on channel=0 note=79 velocity=64 time=0.0011363666666666665
EXTRACT: note_on channel=0 note=79 velocity=0 time=0.2715916333333333
EXTRACT: note_on channel=8 note=55 velocity=0 time=0
EXTRACT: note_on channel=10 note=55 velocity=0 time=0
EXTRACT: note_on channel=11 note=46 velocity=0 time=0
EXTRACT: note_on channel=12 note=43 velocity=0 time=0
EXTRACT: note_on channel=0 note=70 velocity=64 time=0.0011363666666666665
EXTRACT: note_on channel=8 note=55 velocity=49 time=0
EXTRACT: note_on channel=10 note=51 velocity=49 time=0
EXTRACT: note_on channel=11 note=46 velocity=49 time=0
EXTRACT: note_on channel=12 note=39 velocity=49 time=0
EXTRACT: note_on channel=0 note=70 velocity=0 time=0.2715916333333333
EXTRACT: note_on channel=0 note=79 velocity=64 time=0.0011363666666666665
EXTRACT: note_on channel=0 note=79 velocity=0 time=0.2715916333333333
EXTRACT: note_on channel=0 note=70 velocity=64 time=0.0011363666666666665
EXTRACT: note_on channel=0 note=70 velocity=0 time=0.2715916333333333
EXTRACT: note_on channel=0 note=79 velocity=64 time=0.0011363666666666665
EXTRACT: note_on channel=0 note=79 velocity=0 time=0.2715916333333333
EXTRACT: note_on channel=6 note=62 velocity=0 time=0
EXTRACT: note_on channel=7 note=62 velocity=0 time=0
EXTRACT: note_on channel=0 note=70 velocity=64 time=0.0011363666666666665
EXTRACT: note_on channel=6 note=58 velocity=80 time=0
EXTRACT: note_on channel=7 note=58 velocity=64 time=0
EXTRACT: note_on channel=0 note=70 velocity=0 time=0.2715916333333333
EXTRACT: note_on channel=6 note=58 velocity=0 time=0
EXTRACT: note_on channel=7 note=58 velocity=0 time=0
EXTRACT: note_on channel=0 note=79 velocity=64 time=0.0011363666666666665
EXTRACT: note_on channel=6 note=60 velocity=80 time=0
EXTRACT: note_on channel=7 note=60 velocity=64 time=0
EXTRACT: note_on channel=0 note=79 velocity=0 time=0.2715916333333333
EXTRACT: note_on channel=6 note=60 velocity=0 time=0
EXTRACT: note_on channel=7 note=60 velocity=0 time=0
EXTRACT: note_on channel=0 note=70 velocity=64 time=0.0011363666666666665
EXTRACT: note_on channel=6 note=62 velocity=80 time=0
EXTRACT: note_on channel=7 note=62 velocity=64 time=0
EXTRACT: note_on channel=0 note=70 velocity=0 time=0.2715916333333333
EXTRACT: note_on channel=6 note=62 velocity=0 time=0
EXTRACT: note_on channel=7 note=62 velocity=0 time=0
EXTRACT: note_on channel=0 note=79 velocity=64 time=0.0011363666666666665
EXTRACT: note_on channel=6 note=63 velocity=80 time=0
EXTRACT: note_on channel=7 note=63 velocity=64 time=0
EXTRACT: note_on channel=0 note=79 velocity=0 time=0.2715916333333333
EXTRACT: note_on channel=6 note=63 velocity=0 time=0
EXTRACT: note_on channel=7 note=63 velocity=0 time=0
EXTRACT: note_on channel=8 note=55 velocity=0 time=0
EXTRACT: note_on channel=10 note=51 velocity=0 time=0
EXTRACT: note_on channel=11 note=46 velocity=0 time=0
EXTRACT: note_on channel=12 note=39 velocity=0 time=0
EXTRACT: note_on channel=0 note=74 velocity=64 time=0.0011363666666666665
EXTRACT: note_on channel=2 note=74 velocity=64 time=0
EXTRACT: note_on channel=6 note=62 velocity=80 time=0
EXTRACT: note_on channel=7 note=62 velocity=64 time=0
EXTRACT: note_on channel=8 note=53 velocity=49 time=0
EXTRACT: note_on channel=10 note=46 velocity=49 time=0
EXTRACT: note_on channel=11 note=50 velocity=49 time=0
EXTRACT: note_on channel=12 note=34 velocity=49 time=0
EXTRACT: note_on channel=0 note=74 velocity=0 time=0.2715916333333333
EXTRACT: note_on channel=2 note=74 velocity=0 time=0
EXTRACT: note_on channel=2 note=77 velocity=64 time=0.0011363666666666665
EXTRACT: note_on channel=2 note=77 velocity=0 time=0.2715916333333333
EXTRACT: note_on channel=2 note=74 velocity=64 time=0.0011363666666666665
EXTRACT: note_on channel=2 note=74 velocity=0 time=0.2715916333333333
EXTRACT: note_on channel=2 note=77 velocity=64 time=0.0011363666666666665
EXTRACT: note_on channel=2 note=77 velocity=0 time=0.2715916333333333
EXTRACT: note_on channel=6 note=62 velocity=0 time=0
EXTRACT: note_on channel=7 note=62 velocity=0 time=0
EXTRACT: note_on channel=8 note=53 velocity=0 time=0
EXTRACT: note_on channel=10 note=46 velocity=0 time=0
EXTRACT: note_on channel=11 note=50 velocity=0 time=0
EXTRACT: note_on channel=12 note=34 velocity=0 time=0
EXTRACT: note_on channel=2 note=74 velocity=64 time=0.0011363666666666665
EXTRACT: note_on channel=6 note=62 velocity=80 time=0
EXTRACT: note_on channel=7 note=62 velocity=64 time=0
EXTRACT: note_on channel=8 note=53 velocity=49 time=0
EXTRACT: note_on channel=10 note=53 velocity=49 time=0
EXTRACT: note_on channel=11 note=50 velocity=49 time=0
EXTRACT: note_on channel=12 note=41 velocity=49 time=0
EXTRACT: note_on channel=2 note=74 velocity=0 time=0.2715916333333333
EXTRACT: note_on channel=6 note=62 velocity=0 time=0
EXTRACT: note_on channel=7 note=62 velocity=0 time=0
EXTRACT: note_on channel=2 note=77 velocity=64 time=0.0011363666666666665
EXTRACT: note_on channel=6 note=63 velocity=80 time=0
EXTRACT: note_on channel=7 note=63 velocity=64 time=0
EXTRACT: note_on channel=6 note=63 velocity=0 time=0.13522763333333332
EXTRACT: note_on channel=7 note=63 velocity=0 time=0
EXTRACT: note_on channel=6 note=62 velocity=80 time=0.0011363666666666665
EXTRACT: note_on channel=7 note=62 velocity=64 time=0
EXTRACT: note_on channel=2 note=77 velocity=0 time=0.13522763333333332
EXTRACT: note_on channel=6 note=62 velocity=0 time=0
EXTRACT: note_on channel=7 note=62 velocity=0 time=0
EXTRACT: note_on channel=2 note=74 velocity=64 time=0.0011363666666666665
EXTRACT: note_on channel=6 note=60 velocity=80 time=0
EXTRACT: note_on channel=7 note=60 velocity=64 time=0
EXTRACT: note_on channel=2 note=74 velocity=0 time=0.2715916333333333
EXTRACT: note_on channel=6 note=60 velocity=0 time=0
EXTRACT: note_on channel=7 note=60 velocity=0 time=0
EXTRACT: note_on channel=2 note=77 velocity=64 time=0.0011363666666666665
EXTRACT: note_on channel=6 note=62 velocity=80 time=0
EXTRACT: note_on channel=7 note=62 velocity=64 time=0
EXTRACT: note_on channel=2 note=77 velocity=0 time=0.2715916333333333
EXTRACT: note_on channel=6 note=62 velocity=0 time=0
EXTRACT: note_on channel=7 note=62 velocity=0 time=0
EXTRACT: note_on channel=8 note=53 velocity=0 time=0
EXTRACT: note_on channel=10 note=53 velocity=0 time=0
EXTRACT: note_on channel=11 note=50 velocity=0 time=0
EXTRACT: note_on channel=12 note=41 velocity=0 time=0
EXTRACT: note_on channel=2 note=69 velocity=64 time=0.0011363666666666665
EXTRACT: note_on channel=4 note=69 velocity=64 time=0
EXTRACT: note_on channel=6 note=60 velocity=80 time=0
EXTRACT: note_on channel=7 note=60 velocity=64 time=0
EXTRACT: note_on channel=8 note=53 velocity=49 time=0
EXTRACT: note_on channel=10 note=50 velocity=49 time=0
EXTRACT: note_on channel=11 note=45 velocity=49 time=0
EXTRACT: note_on channel=12 note=38 velocity=49 time=0
EXTRACT: note_on channel=2 note=69 velocity=0 time=0.2715916333333333
EXTRACT: note_on channel=4 note=69 velocity=0 time=0
EXTRACT: note_on channel=4 note=65 velocity=64 time=0.0011363666666666665
EXTRACT: note_on channel=4 note=65 velocity=0 time=0.2715916333333333
EXTRACT: note_on channel=4 note=69 velocity=64 time=0.0011363666666666665
EXTRACT: note_on channel=4 note=69 velocity=0 time=0.2715916333333333
EXTRACT: note_on channel=6 note=60 velocity=0 time=0
EXTRACT: note_on channel=7 note=60 velocity=0 time=0
EXTRACT: note_on channel=4 note=65 velocity=64 time=0.0011363666666666665
EXTRACT: note_on channel=6 note=57 velocity=80 time=0
EXTRACT: note_on channel=7 note=57 velocity=64 time=0
EXTRACT: note_on channel=4 note=65 velocity=0 time=0.2715916333333333
EXTRACT: note_on channel=4 note=69 velocity=64 time=0.0011363666666666665
EXTRACT: note_on channel=4 note=69 velocity=0 time=0.2715916333333333
EXTRACT: note_on channel=4 note=65 velocity=64 time=0.0011363666666666665
EXTRACT: note_on channel=4 note=65 velocity=0 time=0.2715916333333333
EXTRACT: note_on channel=6 note=57 velocity=0 time=0
EXTRACT: note_on channel=7 note=57 velocity=0 time=0
EXTRACT: note_on channel=4 note=69 velocity=64 time=0.0011363666666666665
EXTRACT: note_on channel=4 note=69 velocity=0 time=0.2715916333333333
EXTRACT: note_on channel=4 note=65 velocity=64 time=0.0011363666666666665
EXTRACT: note_on channel=4 note=65 velocity=0 time=0.2715916333333333
EXTRACT: note_on channel=4 note=69 velocity=64 time=0.0011363666666666665
EXTRACT: note_on channel=4 note=69 velocity=0 time=0.2715916333333333
EXTRACT: note_on channel=4 note=65 velocity=64 time=0.0011363666666666665
EXTRACT: note_on channel=4 note=65 velocity=0 time=0.2715916333333333
EXTRACT: note_on channel=4 note=69 velocity=64 time=0.0011363666666666665
EXTRACT: note_on channel=4 note=69 velocity=0 time=0.2715916333333333
EXTRACT: note_on channel=4 note=65 velocity=64 time=0.0011363666666666665
EXTRACT: note_on channel=4 note=65 velocity=0 time=0.2715916333333333
EXTRACT: note_on channel=4 note=69 velocity=64 time=0.0011363666666666665
EXTRACT: note_on channel=4 note=69 velocity=0 time=0.2715916333333333
EXTRACT: note_on channel=4 note=65 velocity=64 time=0.0011363666666666665
EXTRACT: note_on channel=4 note=65 velocity=0 time=0.2715916333333333
EXTRACT: note_on channel=4 note=69 velocity=64 time=0.0011363666666666665
EXTRACT: note_on channel=4 note=69 velocity=0 time=0.2715916333333333
EXTRACT: note_on channel=4 note=65 velocity=64 time=0.0011363666666666665
EXTRACT: note_on channel=4 note=65 velocity=0 time=0.2715916333333333
EXTRACT: note_on channel=8 note=53 velocity=0 time=0
EXTRACT: note_on channel=10 note=50 velocity=0 time=0
EXTRACT: note_on channel=11 note=45 velocity=0 time=0
EXTRACT: note_on channel=12 note=38 velocity=0 time=0
EXTRACT: note_on channel=4 note=70 velocity=64 time=0.0011363666666666665
EXTRACT: note_on channel=8 note=55 velocity=64 time=0
EXTRACT: note_on channel=10 note=55 velocity=64 time=0
EXTRACT: note_on channel=11 note=46 velocity=64 time=0
EXTRACT: note_on channel=12 note=43 velocity=64 time=0
EXTRACT: note_on channel=4 note=70 velocity=0 time=0.2715916333333333
EXTRACT: note_on channel=0 note=70 velocity=80 time=0.5465923666666666
EXTRACT: note_on channel=2 note=58 velocity=64 time=0
EXTRACT: note_on channel=4 note=58 velocity=64 time=0
EXTRACT: note_on channel=6 note=58 velocity=80 time=0
EXTRACT: note_on channel=7 note=58 velocity=64 time=0
EXTRACT: note_on channel=0 note=70 velocity=0 time=0.2715916333333333
EXTRACT: note_on channel=2 note=58 velocity=0 time=0
EXTRACT: note_on channel=4 note=58 velocity=0 time=0
EXTRACT: note_on channel=6 note=58 velocity=0 time=0
EXTRACT: note_on channel=7 note=58 velocity=0 time=0
EXTRACT: note_on channel=0 note=70 velocity=80 time=0.0011363666666666665
EXTRACT: note_on channel=2 note=58 velocity=64 time=0
EXTRACT: note_on channel=4 note=58 velocity=64 time=0
EXTRACT: note_on channel=6 note=58 velocity=80 time=0
EXTRACT: note_on channel=7 note=58 velocity=64 time=0
EXTRACT: note_on channel=0 note=70 velocity=0 time=0.2715916333333333
EXTRACT: note_on channel=2 note=58 velocity=0 time=0
EXTRACT: note_on channel=4 note=58 velocity=0 time=0
EXTRACT: note_on channel=6 note=58 velocity=0 time=0
EXTRACT: note_on channel=7 note=58 velocity=0 time=0
EXTRACT: note_on channel=0 note=72 velocity=80 time=0.0011363666666666665
EXTRACT: note_on channel=2 note=60 velocity=64 time=0
EXTRACT: note_on channel=4 note=60 velocity=64 time=0
EXTRACT: note_on channel=6 note=60 velocity=80 time=0
EXTRACT: note_on channel=7 note=60 velocity=64 time=0
EXTRACT: note_on channel=0 note=72 velocity=0 time=0.2715916333333333
EXTRACT: note_on channel=2 note=60 velocity=0 time=0
EXTRACT: note_on channel=4 note=60 velocity=0 time=0
EXTRACT: note_on channel=6 note=60 velocity=0 time=0
EXTRACT: note_on channel=7 note=60 velocity=0 time=0
EXTRACT: note_on channel=0 note=74 velocity=80 time=0.0011363666666666665
EXTRACT: note_on channel=2 note=62 velocity=64 time=0
EXTRACT: note_on channel=4 note=62 velocity=64 time=0
EXTRACT: note_on channel=6 note=62 velocity=80 time=0
EXTRACT: note_on channel=7 note=62 velocity=64 time=0
EXTRACT: note_on channel=0 note=74 velocity=0 time=0.2715916333333333
EXTRACT: note_on channel=2 note=62 velocity=0 time=0
EXTRACT: note_on channel=4 note=62 velocity=0 time=0
EXTRACT: note_on channel=6 note=62 velocity=0 time=0
EXTRACT: note_on channel=7 note=62 velocity=0 time=0
EXTRACT: note_on channel=0 note=75 velocity=80 time=0.0011363666666666665
EXTRACT: note_on channel=2 note=63 velocity=64 time=0
EXTRACT: note_on channel=4 note=63 velocity=64 time=0
EXTRACT: note_on channel=6 note=63 velocity=80 time=0
EXTRACT: note_on channel=7 note=63 velocity=64 time=0
EXTRACT: note_on channel=0 note=75 velocity=0 time=0.2715916333333333
EXTRACT: note_on channel=2 note=63 velocity=0 time=0
EXTRACT: note_on channel=4 note=63 velocity=0 time=0
EXTRACT: note_on channel=6 note=63 velocity=0 time=0
EXTRACT: note_on channel=7 note=63 velocity=0 time=0
EXTRACT: note_on channel=10 note=55 velocity=0 time=0
EXTRACT: note_on channel=12 note=43 velocity=0 time=0
EXTRACT: note_on channel=0 note=74 velocity=80 time=0.0011363666666666665
EXTRACT: note_on channel=2 note=62 velocity=64 time=0
EXTRACT: note_on channel=4 note=62 velocity=64 time=0
EXTRACT: note_on channel=6 note=62 velocity=80 time=0
EXTRACT: note_on channel=7 note=62 velocity=64 time=0
EXTRACT: note_on channel=10 note=51 velocity=64 time=0
EXTRACT: note_on channel=12 note=39 velocity=64 time=0
EXTRACT: note_on channel=0 note=74 velocity=0 time=0.8170476333333332
EXTRACT: note_on channel=2 note=62 velocity=0 time=0
EXTRACT: note_on channel=4 note=62 velocity=0 time=0
EXTRACT: note_on channel=6 note=62 velocity=0 time=0
EXTRACT: note_on channel=7 note=62 velocity=0 time=0
EXTRACT: note_on channel=0 note=65 velocity=80 time=0.0011363666666666665
EXTRACT: note_on channel=2 note=65 velocity=64 time=0
EXTRACT: note_on channel=4 note=53 velocity=64 time=0
EXTRACT: note_on channel=6 note=65 velocity=80 time=0
EXTRACT: note_on channel=7 note=53 velocity=64 time=0
EXTRACT: note_on channel=0 note=65 velocity=0 time=0.2715916333333333
EXTRACT: note_on channel=2 note=65 velocity=0 time=0
EXTRACT: note_on channel=4 note=53 velocity=0 time=0
EXTRACT: note_on channel=6 note=65 velocity=0 time=0
EXTRACT: note_on channel=7 note=53 velocity=0 time=0
EXTRACT: note_on channel=0 note=65 velocity=80 time=0.0011363666666666665
EXTRACT: note_on channel=2 note=65 velocity=64 time=0
EXTRACT: note_on channel=4 note=53 velocity=64 time=0
EXTRACT: note_on channel=6 note=65 velocity=80 time=0
EXTRACT: note_on channel=7 note=53 velocity=64 time=0
EXTRACT: note_on channel=0 note=65 velocity=0 time=1.0897756333333333
EXTRACT: note_on channel=2 note=65 velocity=0 time=0
EXTRACT: note_on channel=4 note=53 velocity=0 time=0
EXTRACT: note_on channel=6 note=65 velocity=0 time=0
EXTRACT: note_on channel=7 note=53 velocity=0 time=0
EXTRACT: note_on channel=8 note=55 velocity=0 time=0
EXTRACT: note_on channel=10 note=51 velocity=0 time=0
EXTRACT: note_on channel=11 note=46 velocity=0 time=0
EXTRACT: note_on channel=12 note=39 velocity=0 time=0
EXTRACT: note_on channel=2 note=69 velocity=64 time=0.0011363666666666665
EXTRACT: note_on channel=8 note=53 velocity=64 time=0
EXTRACT: note_on channel=10 note=50 velocity=64 time=0
EXTRACT: note_on channel=11 note=45 velocity=64 time=0
EXTRACT: note_on channel=12 note=38 velocity=64 time=0
EXTRACT: note_on channel=2 note=69 velocity=0 time=0.2715916333333333
EXTRACT: note_on channel=2 note=65 velocity=64 time=0.0011363666666666665
EXTRACT: note_on channel=2 note=65 velocity=0 time=0.2715916333333333
EXTRACT: note_on channel=2 note=69 velocity=64 time=0.0011363666666666665
EXTRACT: note_on channel=2 note=69 velocity=0 time=0.2715916333333333
EXTRACT: note_on channel=2 note=65 velocity=64 time=0.0011363666666666665
EXTRACT: note_on channel=2 note=65 velocity=0 time=0.2715916333333333
EXTRACT: note_on channel=2 note=69 velocity=64 time=0.0011363666666666665
EXTRACT: note_on channel=2 note=69 velocity=0 time=0.2715916333333333
EXTRACT: note_on channel=2 note=65 velocity=64 time=0.0011363666666666665
EXTRACT: note_on channel=2 note=65 velocity=0 time=0.2715916333333333
EXTRACT: note_on channel=2 note=69 velocity=64 time=0.0011363666666666665
EXTRACT: note_on channel=2 note=69 velocity=0 time=0.2715916333333333
EXTRACT: note_on channel=2 note=65 velocity=64 time=0.0011363666666666665
EXTRACT: note_on channel=2 note=65 velocity=0 time=0.2715916333333333
EXTRACT: note_on channel=2 note=69 velocity=64 time=0.0011363666666666665
EXTRACT: note_on channel=2 note=69 velocity=0 time=0.2715916333333333
EXTRACT: note_on channel=2 note=65 velocity=64 time=0.0011363666666666665
EXTRACT: note_on channel=2 note=65 velocity=0 time=0.2715916333333333
EXTRACT: note_on channel=2 note=69 velocity=64 time=0.0011363666666666665
EXTRACT: note_on channel=2 note=69 velocity=0 time=0.2715916333333333
EXTRACT: note_on channel=2 note=65 velocity=64 time=0.0011363666666666665
EXTRACT: note_on channel=2 note=65 velocity=0 time=0.2715916333333333
EXTRACT: note_on channel=2 note=69 velocity=64 time=0.0011363666666666665
EXTRACT: note_on channel=2 note=69 velocity=0 time=0.2715916333333333
EXTRACT: note_on channel=2 note=65 velocity=64 time=0.0011363666666666665
EXTRACT: note_on channel=2 note=65 velocity=0 time=0.2715916333333333
EXTRACT: note_on channel=2 note=69 velocity=64 time=0.0011363666666666665
EXTRACT: note_on channel=2 note=69 velocity=0 time=0.2715916333333333
EXTRACT: note_on channel=2 note=65 velocity=64 time=0.0011363666666666665
EXTRACT: note_on channel=2 note=65 velocity=0 time=0.2715916333333333
EXTRACT: note_on channel=8 note=53 velocity=0 time=0
EXTRACT: note_on channel=10 note=50 velocity=0 time=0
EXTRACT: note_on channel=11 note=45 velocity=0 time=0
EXTRACT: note_on channel=12 note=38 velocity=0 time=0
EXTRACT: note_on channel=2 note=70 velocity=64 time=0.0011363666666666665
EXTRACT: note_on channel=8 note=55 velocity=64 time=0
EXTRACT: note_on channel=10 note=55 velocity=64 time=0
EXTRACT: note_on channel=11 note=46 velocity=64 time=0
EXTRACT: note_on channel=12 note=43 velocity=64 time=0
EXTRACT: note_on channel=2 note=70 velocity=0 time=0.2715916333333333
EXTRACT: note_on channel=0 note=70 velocity=80 time=0.5465923666666666
EXTRACT: note_on channel=2 note=58 velocity=64 time=0
EXTRACT: note_on channel=4 note=58 velocity=64 time=0
EXTRACT: note_on channel=6 note=58 velocity=80 time=0
EXTRACT: note_on channel=7 note=58 velocity=64 time=0
EXTRACT: note_on channel=0 note=70 velocity=0 time=0.2715916333333333
EXTRACT: note_on channel=2 note=58 velocity=0 time=0
EXTRACT: note_on channel=4 note=58 velocity=0 time=0
EXTRACT: note_on channel=6 note=58 velocity=0 time=0
EXTRACT: note_on channel=7 note=58 velocity=0 time=0
EXTRACT: note_on channel=0 note=70 velocity=80 time=0.0011363666666666665
EXTRACT: note_on channel=2 note=58 velocity=64 time=0
EXTRACT: note_on channel=4 note=58 velocity=64 time=0
EXTRACT: note_on channel=6 note=58 velocity=80 time=0
EXTRACT: note_on channel=7 note=58 velocity=64 time=0
EXTRACT: note_on channel=0 note=70 velocity=0 time=0.2715916333333333
EXTRACT: note_on channel=2 note=58 velocity=0 time=0
EXTRACT: note_on channel=4 note=58 velocity=0 time=0
EXTRACT: note_on channel=6 note=58 velocity=0 time=0
EXTRACT: note_on channel=7 note=58 velocity=0 time=0
EXTRACT: note_on channel=0 note=72 velocity=80 time=0.0011363666666666665
EXTRACT: note_on channel=2 note=60 velocity=64 time=0
EXTRACT: note_on channel=4 note=60 velocity=64 time=0
EXTRACT: note_on channel=6 note=60 velocity=80 time=0
EXTRACT: note_on channel=7 note=60 velocity=64 time=0
EXTRACT: note_on channel=0 note=72 velocity=0 time=0.2715916333333333
EXTRACT: note_on channel=2 note=60 velocity=0 time=0
EXTRACT: note_on channel=4 note=60 velocity=0 time=0
EXTRACT: note_on channel=6 note=60 velocity=0 time=0
EXTRACT: note_on channel=7 note=60 velocity=0 time=0
EXTRACT: note_on channel=0 note=74 velocity=80 time=0.0011363666666666665
EXTRACT: note_on channel=2 note=62 velocity=64 time=0
EXTRACT: note_on channel=4 note=62 velocity=64 time=0
EXTRACT: note_on channel=6 note=62 velocity=80 time=0
EXTRACT: note_on channel=7 note=62 velocity=64 time=0
EXTRACT: note_on channel=0 note=74 velocity=0 time=0.2715916333333333
EXTRACT: note_on channel=2 note=62 velocity=0 time=0
EXTRACT: note_on channel=4 note=62 velocity=0 time=0
EXTRACT: note_on channel=6 note=62 velocity=0 time=0
EXTRACT: note_on channel=7 note=62 velocity=0 time=0
EXTRACT: note_on channel=0 note=75 velocity=80 time=0.0011363666666666665
EXTRACT: note_on channel=2 note=63 velocity=64 time=0
EXTRACT: note_on channel=4 note=63 velocity=64 time=0
EXTRACT: note_on channel=6 note=63 velocity=80 time=0
EXTRACT: note_on channel=7 note=63 velocity=64 time=0
EXTRACT: note_on channel=0 note=75 velocity=0 time=0.2715916333333333
EXTRACT: note_on channel=2 note=63 velocity=0 time=0
EXTRACT: note_on channel=4 note=63 velocity=0 time=0
EXTRACT: note_on channel=6 note=63 velocity=0 time=0
EXTRACT: note_on channel=7 note=63 velocity=0 time=0
EXTRACT: note_on channel=10 note=55 velocity=0 time=0
EXTRACT: note_on channel=12 note=43 velocity=0 time=0
EXTRACT: note_on channel=0 note=74 velocity=80 time=0.0011363666666666665
EXTRACT: note_on channel=2 note=62 velocity=64 time=0
EXTRACT: note_on channel=4 note=62 velocity=64 time=0
EXTRACT: note_on channel=6 note=62 velocity=80 time=0
EXTRACT: note_on channel=7 note=62 velocity=64 time=0
EXTRACT: note_on channel=10 note=51 velocity=67 time=0
EXTRACT: note_on channel=12 note=39 velocity=67 time=0
EXTRACT: note_on channel=0 note=74 velocity=0 time=3.271599633333333
EXTRACT: note_on channel=2 note=62 velocity=0 time=0
EXTRACT: note_on channel=4 note=62 velocity=0 time=0
EXTRACT: note_on channel=6 note=62 velocity=0 time=0
EXTRACT: note_on channel=7 note=62 velocity=0 time=0
EXTRACT: note_on channel=0 note=77 velocity=80 time=0.5465923666666666
EXTRACT: note_on channel=2 note=65 velocity=64 time=0
EXTRACT: note_on channel=4 note=53 velocity=64 time=0
EXTRACT: note_on channel=6 note=65 velocity=80 time=0
EXTRACT: note_on channel=7 note=53 velocity=64 time=0
EXTRACT: note_on channel=0 note=77 velocity=0 time=0.2715916333333333
EXTRACT: note_on channel=2 note=65 velocity=0 time=0
EXTRACT: note_on channel=4 note=53 velocity=0 time=0
EXTRACT: note_on channel=6 note=65 velocity=0 time=0
EXTRACT: note_on channel=7 note=53 velocity=0 time=0
EXTRACT: note_on channel=0 note=77 velocity=80 time=0.0011363666666666665
EXTRACT: note_on channel=2 note=65 velocity=64 time=0
EXTRACT: note_on channel=4 note=53 velocity=64 time=0
EXTRACT: note_on channel=6 note=65 velocity=80 time=0
EXTRACT: note_on channel=7 note=53 velocity=64 time=0
EXTRACT: note_on channel=8 note=55 velocity=0 time=0.2715916333333333
EXTRACT: note_on channel=10 note=51 velocity=0 time=0
EXTRACT: note_on channel=11 note=46 velocity=0 time=0
EXTRACT: note_on channel=12 note=39 velocity=0 time=0
EXTRACT: note_on channel=8 note=53 velocity=83 time=0.0011363666666666665
EXTRACT: note_on channel=10 note=50 velocity=73 time=0
EXTRACT: note_on channel=11 note=46 velocity=73 time=0
EXTRACT: note_on channel=12 note=34 velocity=73 time=0
EXTRACT: note_on channel=12 note=41 velocity=73 time=0
EXTRACT: note_on channel=0 note=77 velocity=0 time=1.0897756333333333
EXTRACT: note_on channel=2 note=65 velocity=0 time=0
EXTRACT: note_on channel=4 note=53 velocity=0 time=0
EXTRACT: note_on channel=6 note=65 velocity=0 time=0
EXTRACT: note_on channel=7 note=53 velocity=0 time=0
EXTRACT: note_on channel=8 note=53 velocity=0 time=1.0909119999999999
EXTRACT: note_on channel=10 note=50 velocity=0 time=0
EXTRACT: note_on channel=11 note=46 velocity=0 time=0
EXTRACT: note_on channel=12 note=34 velocity=0 time=0
EXTRACT: note_on channel=12 note=41 velocity=0 time=0
EXTRACT: note_on channel=2 note=62 velocity=64 time=0.0011363666666666665
EXTRACT: note_on channel=8 note=53 velocity=89 time=0
EXTRACT: note_on channel=10 note=50 velocity=76 time=0
EXTRACT: note_on channel=11 note=46 velocity=76 time=0
EXTRACT: note_on channel=12 note=34 velocity=76 time=0
EXTRACT: note_on channel=12 note=38 velocity=76 time=0
EXTRACT: note_on channel=2 note=62 velocity=0 time=0.2715916333333333
EXTRACT: note_on channel=2 note=65 velocity=64 time=0.0011363666666666665
EXTRACT: note_on channel=2 note=65 velocity=0 time=0.2715916333333333
EXTRACT: note_on channel=2 note=62 velocity=64 time=0.0011363666666666665
EXTRACT: note_on channel=2 note=62 velocity=0 time=0.2715916333333333
EXTRACT: note_on channel=2 note=65 velocity=64 time=0.0011363666666666665
EXTRACT: note_on channel=2 note=65 velocity=0 time=0.2715916333333333
EXTRACT: note_on channel=8 note=53 velocity=0 time=0
EXTRACT: note_on channel=10 note=50 velocity=0 time=0
EXTRACT: note_on channel=11 note=46 velocity=0 time=0
EXTRACT: note_on channel=12 note=34 velocity=0 time=0
EXTRACT: note_on channel=12 note=38 velocity=0 time=0
EXTRACT: note_on channel=2 note=62 velocity=64 time=0.0011363666666666665
EXTRACT: note_on channel=8 note=53 velocity=92 time=0
EXTRACT: note_on channel=10 note=50 velocity=78 time=0
EXTRACT: note_on channel=11 note=45 velocity=78 time=0
EXTRACT: note_on channel=12 note=33 velocity=78 time=0
EXTRACT: note_on channel=12 note=36 velocity=78 time=0
EXTRACT: note_on channel=2 note=62 velocity=0 time=0.2715916333333333
EXTRACT: note_on channel=2 note=65 velocity=64 time=0.0011363666666666665
EXTRACT: note_on channel=2 note=65 velocity=0 time=0.2715916333333333
EXTRACT: note_on channel=2 note=62 velocity=64 time=0.0011363666666666665
EXTRACT: note_on channel=11 note=45 velocity=0 time=0.2715916333333333
EXTRACT: note_on channel=12 note=33 velocity=0 time=0
EXTRACT: note_on channel=12 note=36 velocity=0 time=0
EXTRACT: note_on channel=11 note=50 velocity=79 time=0.0011363666666666665
EXTRACT: note_on channel=12 note=38 velocity=79 time=0
EXTRACT: note_on channel=2 note=62 velocity=0 time=0.2715916333333333
EXTRACT: note_on channel=8 note=53 velocity=0 time=0
EXTRACT: note_on channel=10 note=50 velocity=0 time=0
EXTRACT: note_on channel=11 note=50 velocity=0 time=0
EXTRACT: note_on channel=12 note=38 velocity=0 time=0
EXTRACT: note_on channel=4 note=67 velocity=64 time=0
EXTRACT: note_on channel=10 note=46 velocity=80 time=0
EXTRACT: note_on channel=10 note=55 velocity=80 time=0
EXTRACT: note_on channel=11 note=50 velocity=80 time=0
EXTRACT: note_on channel=12 note=43 velocity=80 time=0
EXTRACT: note_on channel=4 note=67 velocity=0 time=0.24895833333333334
EXTRACT: note_on channel=4 note=70 velocity=64 time=0.0010416666666666667
EXTRACT: note_on channel=4 note=70 velocity=0 time=0.24895833333333334
EXTRACT: note_on channel=4 note=67 velocity=64 time=0.0010416666666666667
EXTRACT: note_on channel=4 note=67 velocity=0 time=0.24895833333333334
EXTRACT: note_on channel=4 note=70 velocity=64 time=0.0010416666666666667
EXTRACT: note_on channel=8 note=58 velocity=127 time=0
EXTRACT: note_on channel=4 note=70 velocity=0 time=0.24895833333333334
EXTRACT: note_on channel=4 note=67 velocity=64 time=0.0010416666666666667
EXTRACT: note_on channel=4 note=67 velocity=0 time=0.24895833333333334
EXTRACT: note_on channel=8 note=58 velocity=0 time=0
EXTRACT: note_on channel=4 note=70 velocity=64 time=0.0010416666666666667
EXTRACT: note_on channel=8 note=57 velocity=127 time=0
EXTRACT: note_on channel=4 note=70 velocity=0 time=0.24895833333333334
EXTRACT: note_on channel=4 note=67 velocity=64 time=0.0010416666666666667
EXTRACT: note_on channel=4 note=67 velocity=0 time=0.24895833333333334
EXTRACT: note_on channel=8 note=57 velocity=0 time=0
EXTRACT: note_on channel=4 note=70 velocity=64 time=0.0010416666666666667
EXTRACT: note_on channel=8 note=55 velocity=127 time=0
EXTRACT: note_on channel=4 note=70 velocity=0 time=0.24895833333333334
EXTRACT: note_on channel=10 note=46 velocity=0 time=0
EXTRACT: note_on channel=10 note=55 velocity=0 time=0
EXTRACT: note_on channel=11 note=50 velocity=0 time=0
EXTRACT: note_on channel=12 note=43 velocity=0 time=0
EXTRACT: note_on channel=4 note=67 velocity=64 time=0.0010416666666666667
EXTRACT: note_on channel=10 note=46 velocity=80 time=0
EXTRACT: note_on channel=10 note=51 velocity=80 time=0
EXTRACT: note_on channel=11 note=46 velocity=80 time=0
EXTRACT: note_on channel=12 note=39 velocity=80 time=0
EXTRACT: note_on channel=4 note=67 velocity=0 time=0.24895833333333334
EXTRACT: note_on channel=8 note=55 velocity=0 time=0
EXTRACT: note_on channel=4 note=70 velocity=64 time=0.0010416666666666667
EXTRACT: note_on channel=8 note=53 velocity=127 time=0
EXTRACT: note_on channel=4 note=70 velocity=0 time=0.24895833333333334
EXTRACT: note_on channel=4 note=67 velocity=64 time=0.0010416666666666667
EXTRACT: note_on channel=4 note=67 velocity=0 time=0.24895833333333334
EXTRACT: note_on channel=8 note=53 velocity=0 time=0
EXTRACT: note_on channel=4 note=70 velocity=64 time=0.0010416666666666667
EXTRACT: note_on channel=8 note=46 velocity=127 time=0
EXTRACT: note_on channel=4 note=70 velocity=0 time=0.24895833333333334
EXTRACT: note_on channel=11 note=46 velocity=0 time=0
EXTRACT: note_on channel=4 note=67 velocity=64 time=0.0010416666666666667
EXTRACT: note_on channel=11 note=51 velocity=80 time=0
EXTRACT: note_on channel=4 note=67 velocity=0 time=0.24895833333333334
EXTRACT: note_on channel=8 note=46 velocity=0 time=0
EXTRACT: note_on channel=4 note=70 velocity=64 time=0.0010416666666666667
EXTRACT: note_on channel=8 note=48 velocity=127 time=0
EXTRACT: note_on channel=4 note=70 velocity=0 time=0.24895833333333334
EXTRACT: note_on channel=4 note=67 velocity=64 time=0.0010416666666666667
EXTRACT: note_on channel=4 note=67 velocity=0 time=0.24895833333333334
EXTRACT: note_on channel=8 note=48 velocity=0 time=0
EXTRACT: note_on channel=4 note=70 velocity=64 time=0.0010416666666666667
EXTRACT: note_on channel=8 note=50 velocity=127 time=0
EXTRACT: note_on channel=4 note=70 velocity=0 time=0.24895833333333334
EXTRACT: note_on channel=10 note=46 velocity=0 time=0
EXTRACT: note_on channel=10 note=51 velocity=0 time=0
EXTRACT: note_on channel=11 note=51 velocity=0 time=0
EXTRACT: note_on channel=12 note=39 velocity=0 time=0
EXTRACT: note_on channel=2 note=65 velocity=64 time=0.0010416666666666667
EXTRACT: note_on channel=4 note=65 velocity=64 time=0
EXTRACT: note_on channel=10 note=46 velocity=80 time=0
EXTRACT: note_on channel=11 note=50 velocity=80 time=0
EXTRACT: note_on channel=12 note=34 velocity=80 time=0
EXTRACT: note_on channel=12 note=46 velocity=80 time=0
EXTRACT: note_on channel=2 note=65 velocity=0 time=0.24895833333333334
EXTRACT: note_on channel=4 note=65 velocity=0 time=0
EXTRACT: note_on channel=2 note=70 velocity=64 time=0.0010416666666666667
EXTRACT: note_on channel=2 note=70 velocity=0 time=0.24895833333333334
EXTRACT: note_on channel=2 note=65 velocity=64 time=0.0010416666666666667
EXTRACT: note_on channel=2 note=65 velocity=0 time=0.24895833333333334
EXTRACT: note_on channel=2 note=70 velocity=64 time=0.0010416666666666667
EXTRACT: note_on channel=2 note=70 velocity=0 time=0.24895833333333334
EXTRACT: note_on channel=2 note=65 velocity=64 time=0.0010416666666666667
EXTRACT: note_on channel=2 note=65 velocity=0 time=0.24895833333333334
EXTRACT: note_on channel=2 note=70 velocity=64 time=0.0010416666666666667
EXTRACT: note_on channel=2 note=70 velocity=0 time=0.24895833333333334
EXTRACT: note_on channel=2 note=65 velocity=64 time=0.0010416666666666667
EXTRACT: note_on channel=2 note=65 velocity=0 time=0.24895833333333334
EXTRACT: note_on channel=2 note=70 velocity=64 time=0.0010416666666666667
EXTRACT: note_on channel=2 note=70 velocity=0 time=0.24895833333333334
EXTRACT: note_on channel=8 note=50 velocity=0 time=0
EXTRACT: note_on channel=10 note=46 velocity=0 time=0
EXTRACT: note_on channel=11 note=50 velocity=0 time=0
EXTRACT: note_on channel=12 note=34 velocity=0 time=0
EXTRACT: note_on channel=12 note=46 velocity=0 time=0
EXTRACT: note_on channel=2 note=65 velocity=64 time=0.0010416666666666667
EXTRACT: note_on channel=10 note=46 velocity=80 time=0
EXTRACT: note_on channel=11 note=50 velocity=80 time=0
EXTRACT: note_on channel=12 note=34 velocity=80 time=0
EXTRACT: note_on channel=12 note=46 velocity=80 time=0
EXTRACT: note_on channel=2 note=65 velocity=0 time=0.24895833333333334
EXTRACT: note_on channel=2 note=70 velocity=64 time=0.0010416666666666667
EXTRACT: note_on channel=2 note=70 velocity=0 time=0.24895833333333334
EXTRACT: note_on channel=2 note=65 velocity=64 time=0.0010416666666666667
EXTRACT: note_on channel=2 note=65 velocity=0 time=0.24895833333333334
EXTRACT: note_on channel=2 note=70 velocity=64 time=0.0010416666666666667
EXTRACT: note_on channel=2 note=70 velocity=0 time=0.24895833333333334
EXTRACT: note_on channel=10 note=46 velocity=0 time=0
EXTRACT: note_on channel=11 note=50 velocity=0 time=0
EXTRACT: note_on channel=12 note=34 velocity=0 time=0
EXTRACT: note_on channel=12 note=46 velocity=0 time=0
EXTRACT: note_on channel=2 note=65 velocity=64 time=0.0010416666666666667
EXTRACT: note_on channel=10 note=45 velocity=80 time=0
EXTRACT: note_on channel=10 note=46 velocity=80 time=0
EXTRACT: note_on channel=11 note=48 velocity=80 time=0
EXTRACT: note_on channel=12 note=33 velocity=80 time=0
EXTRACT: note_on channel=12 note=45 velocity=80 time=0
EXTRACT: note_on channel=2 note=65 velocity=0 time=0.24895833333333334
EXTRACT: note_on channel=2 note=70 velocity=64 time=0.0010416666666666667
EXTRACT: note_on channel=2 note=70 velocity=0 time=0.24895833333333334
EXTRACT: note_on channel=2 note=65 velocity=64 time=0.0010416666666666667
EXTRACT: note_on channel=2 note=65 velocity=0 time=0.24895833333333334
EXTRACT: note_on channel=2 note=70 velocity=64 time=0.0010416666666666667
EXTRACT: note_on channel=2 note=70 velocity=0 time=0.24895833333333334
EXTRACT: note_on channel=10 note=45 velocity=0 time=0
EXTRACT: note_on channel=10 note=46 velocity=0 time=0
EXTRACT: note_on channel=11 note=48 velocity=0 time=0
EXTRACT: note_on channel=12 note=33 velocity=0 time=0
EXTRACT: note_on channel=12 note=45 velocity=0 time=0
EXTRACT: note_on channel=2 note=67 velocity=64 time=0.0010416666666666667
EXTRACT: note_on channel=4 note=67 velocity=64 time=0
EXTRACT: note_on channel=10 note=46 velocity=80 time=0
EXTRACT: note_on channel=10 note=55 velocity=80 time=0
EXTRACT: note_on channel=11 note=50 velocity=80 time=0
EXTRACT: note_on channel=12 note=43 velocity=80 time=0
EXTRACT: note_on channel=2 note=67 velocity=0 time=0.24895833333333334
EXTRACT: note_on channel=4 note=67 velocity=0 time=0
EXTRACT: note_on channel=4 note=70 velocity=64 time=0.0010416666666666667
EXTRACT: note_on channel=4 note=70 velocity=0 time=0.24895833333333334
EXTRACT: note_on channel=4 note=67 velocity=64 time=0.0010416666666666667
EXTRACT: note_on channel=8 note=46 velocity=127 time=0
EXTRACT: note_on channel=4 note=67 velocity=0 time=0.24895833333333334
EXTRACT: note_on channel=4 note=70 velocity=64 time=0.0010416666666666667
EXTRACT: note_on channel=4 note=70 velocity=0 time=0.24895833333333334
EXTRACT: note_on channel=8 note=46 velocity=0 time=0
EXTRACT: note_on channel=4 note=67 velocity=64 time=0.0010416666666666667
EXTRACT: note_on channel=8 note=58 velocity=127 time=0
EXTRACT: note_on channel=4 note=67 velocity=0 time=0.24895833333333334
EXTRACT: note_on channel=8 note=58 velocity=0 time=0
EXTRACT: note_on channel=4 note=70 velocity=64 time=0.0010416666666666667
EXTRACT: note_on channel=8 note=57 velocity=127 time=0
EXTRACT: note_on channel=4 note=70 velocity=0 time=0.24895833333333334
EXTRACT: note_on channel=4 note=67 velocity=64 time=0.0010416666666666667
EXTRACT: note_on channel=4 note=67 velocity=0 time=0.24895833333333334
EXTRACT: note_on channel=8 note=57 velocity=0 time=0
EXTRACT: note_on channel=4 note=70 velocity=64 time=0.0010416666666666667
EXTRACT: note_on channel=8 note=55 velocity=127 time=0
EXTRACT: note_on channel=4 note=70 velocity=0 time=0.24895833333333334
EXTRACT: note_on channel=10 note=46 velocity=0 time=0
EXTRACT: note_on channel=10 note=55 velocity=0 time=0
EXTRACT: note_on channel=11 note=50 velocity=0 time=0
EXTRACT: note_on channel=12 note=43 velocity=0 time=0
EXTRACT: note_on channel=4 note=67 velocity=64 time=0.0010416666666666667
EXTRACT: note_on channel=10 note=46 velocity=80 time=0
EXTRACT: note_on channel=10 note=51 velocity=80 time=0
EXTRACT: note_on channel=11 note=46 velocity=80 time=0
EXTRACT: note_on channel=12 note=39 velocity=80 time=0
EXTRACT: note_on channel=4 note=67 velocity=0 time=0.24895833333333334
EXTRACT: note_on channel=4 note=70 velocity=64 time=0.0010416666666666667
EXTRACT: note_on channel=4 note=70 velocity=0 time=0.24895833333333334
EXTRACT: note_on channel=8 note=55 velocity=0 time=0
EXTRACT: note_on channel=4 note=67 velocity=64 time=0.0010416666666666667
EXTRACT: note_on channel=8 note=53 velocity=127 time=0
EXTRACT: note_on channel=4 note=67 velocity=0 time=0.24895833333333334
EXTRACT: note_on channel=8 note=53 velocity=0 time=0
EXTRACT: note_on channel=4 note=70 velocity=64 time=0.0010416666666666667
EXTRACT: note_on channel=8 note=46 velocity=127 time=0
EXTRACT: note_on channel=4 note=70 velocity=0 time=0.24895833333333334
EXTRACT: note_on channel=11 note=46 velocity=0 time=0
EXTRACT: note_on channel=4 note=67 velocity=64 time=0.0010416666666666667
EXTRACT: note_on channel=11 note=51 velocity=80 time=0
EXTRACT: note_on channel=4 note=67 velocity=0 time=0.24895833333333334
EXTRACT: note_on channel=8 note=46 velocity=0 time=0
EXTRACT: note_on channel=4 note=70 velocity=64 time=0.0010416666666666667
EXTRACT: note_on channel=8 note=48 velocity=127 time=0
EXTRACT: note_on channel=4 note=70 velocity=0 time=0.24895833333333334
EXTRACT: note_on channel=4 note=67 velocity=64 time=0.0010416666666666667
EXTRACT: note_on channel=4 note=67 velocity=0 time=0.24895833333333334
EXTRACT: note_on channel=8 note=48 velocity=0 time=0
EXTRACT: note_on channel=4 note=70 velocity=64 time=0.0010416666666666667
EXTRACT: note_on channel=8 note=50 velocity=127 time=0
EXTRACT: note_on channel=4 note=70 velocity=0 time=0.24895833333333334
EXTRACT: note_on channel=10 note=46 velocity=0 time=0
EXTRACT: note_on channel=10 note=51 velocity=0 time=0
EXTRACT: note_on channel=11 note=51 velocity=0 time=0
EXTRACT: note_on channel=12 note=39 velocity=0 time=0
EXTRACT: note_on channel=2 note=65 velocity=64 time=0.0010416666666666667
EXTRACT: note_on channel=4 note=65 velocity=64 time=0
EXTRACT: note_on channel=10 note=46 velocity=80 time=0
EXTRACT: note_on channel=11 note=50 velocity=80 time=0
EXTRACT: note_on channel=12 note=34 velocity=80 time=0
EXTRACT: note_on channel=12 note=46 velocity=80 time=0
EXTRACT: note_on channel=2 note=65 velocity=0 time=0.24895833333333334
EXTRACT: note_on channel=4 note=65 velocity=0 time=0
EXTRACT: note_on channel=2 note=70 velocity=64 time=0.0010416666666666667
EXTRACT: note_on channel=2 note=70 velocity=0 time=0.24895833333333334
EXTRACT: note_on channel=2 note=65 velocity=64 time=0.0010416666666666667
EXTRACT: note_on channel=2 note=65 velocity=0 time=0.24895833333333334
EXTRACT: note_on channel=2 note=70 velocity=64 time=0.0010416666666666667
EXTRACT: note_on channel=2 note=70 velocity=0 time=0.24895833333333334
EXTRACT: note_on channel=2 note=65 velocity=64 time=0.0010416666666666667
EXTRACT: note_on channel=2 note=65 velocity=0 time=0.24895833333333334
EXTRACT: note_on channel=2 note=70 velocity=64 time=0.0010416666666666667
EXTRACT: note_on channel=2 note=70 velocity=0 time=0.24895833333333334
EXTRACT: note_on channel=2 note=65 velocity=64 time=0.0010416666666666667
EXTRACT: note_on channel=2 note=65 velocity=0 time=0.24895833333333334
EXTRACT: note_on channel=2 note=70 velocity=64 time=0.0010416666666666667
EXTRACT: note_on channel=2 note=70 velocity=0 time=0.24895833333333334
EXTRACT: note_on channel=8 note=50 velocity=0 time=0
EXTRACT: note_on channel=10 note=46 velocity=0 time=0
EXTRACT: note_on channel=11 note=50 velocity=0 time=0
EXTRACT: note_on channel=12 note=34 velocity=0 time=0
EXTRACT: note_on channel=12 note=46 velocity=0 time=0
EXTRACT: note_on channel=2 note=65 velocity=64 time=0.0010416666666666667
EXTRACT: note_on channel=10 note=46 velocity=80 time=0
EXTRACT: note_on channel=11 note=50 velocity=80 time=0
EXTRACT: note_on channel=12 note=34 velocity=80 time=0
EXTRACT: note_on channel=12 note=46 velocity=80 time=0
EXTRACT: note_on channel=2 note=65 velocity=0 time=0.24895833333333334
EXTRACT: note_on channel=2 note=70 velocity=64 time=0.0010416666666666667
EXTRACT: note_on channel=2 note=70 velocity=0 time=0.24895833333333334
EXTRACT: note_on channel=2 note=65 velocity=64 time=0.0010416666666666667
EXTRACT: note_on channel=2 note=65 velocity=0 time=0.24895833333333334
EXTRACT: note_on channel=2 note=70 velocity=64 time=0.0010416666666666667
EXTRACT: note_on channel=2 note=70 velocity=0 time=0.24895833333333334
EXTRACT: note_on channel=10 note=46 velocity=0 time=0
EXTRACT: note_on channel=11 note=50 velocity=0 time=0
EXTRACT: note_on channel=12 note=34 velocity=0 time=0
EXTRACT: note_on channel=12 note=46 velocity=0 time=0
EXTRACT: note_on channel=2 note=65 velocity=64 time=0.0010416666666666667
EXTRACT: note_on channel=10 note=45 velocity=80 time=0
EXTRACT: note_on channel=10 note=46 velocity=80 time=0
EXTRACT: note_on channel=11 note=48 velocity=80 time=0
EXTRACT: note_on channel=12 note=33 velocity=80 time=0
EXTRACT: note_on channel=12 note=45 velocity=80 time=0
EXTRACT: note_on channel=2 note=65 velocity=0 time=0.24895833333333334
EXTRACT: note_on channel=2 note=70 velocity=64 time=0.0010416666666666667
EXTRACT: note_on channel=2 note=70 velocity=0 time=0.24895833333333334
EXTRACT: note_on channel=2 note=65 velocity=64 time=0.0010416666666666667
EXTRACT: note_on channel=2 note=65 velocity=0 time=0.24895833333333334
EXTRACT: note_on channel=2 note=70 velocity=64 time=0.0010416666666666667
EXTRACT: note_on channel=2 note=70 velocity=0 time=0.24895833333333334
EXTRACT: note_on channel=10 note=45 velocity=0 time=0
EXTRACT: note_on channel=10 note=46 velocity=0 time=0
EXTRACT: note_on channel=11 note=48 velocity=0 time=0
EXTRACT: note_on channel=12 note=33 velocity=0 time=0
EXTRACT: note_on channel=12 note=45 velocity=0 time=0
EXTRACT: note_on channel=2 note=67 velocity=64 time=0.0010416666666666667
EXTRACT: note_on channel=4 note=67 velocity=64 time=0
EXTRACT: note_on channel=10 note=46 velocity=80 time=0
EXTRACT: note_on channel=10 note=55 velocity=80 time=0
EXTRACT: note_on channel=11 note=50 velocity=80 time=0
EXTRACT: note_on channel=12 note=43 velocity=80 time=0
EXTRACT: note_on channel=2 note=67 velocity=0 time=0.24895833333333334
EXTRACT: note_on channel=4 note=67 velocity=0 time=0
EXTRACT: note_on channel=4 note=70 velocity=64 time=0.0010416666666666667
EXTRACT: note_on channel=4 note=70 velocity=0 time=0.24895833333333334
EXTRACT: note_on channel=4 note=67 velocity=64 time=0.0010416666666666667
EXTRACT: note_on channel=4 note=67 velocity=0 time=0.24895833333333334
EXTRACT: note_on channel=4 note=70 velocity=64 time=0.0010416666666666667
EXTRACT: note_on channel=8 note=46 velocity=127 time=0
EXTRACT: note_on channel=4 note=70 velocity=0 time=0.24895833333333334
EXTRACT: note_on channel=8 note=46 velocity=0 time=0
EXTRACT: note_on channel=4 note=67 velocity=64 time=0.0010416666666666667
EXTRACT: note_on channel=8 note=58 velocity=127 time=0
EXTRACT: note_on channel=4 note=67 velocity=0 time=0.24895833333333334
EXTRACT: note_on channel=8 note=58 velocity=0 time=0
EXTRACT: note_on channel=4 note=70 velocity=64 time=0.0010416666666666667
EXTRACT: note_on channel=8 note=57 velocity=127 time=0
EXTRACT: note_on channel=4 note=70 velocity=0 time=0.24895833333333334
EXTRACT: note_on channel=4 note=67 velocity=64 time=0.0010416666666666667
EXTRACT: note_on channel=4 note=67 velocity=0 time=0.24895833333333334
EXTRACT: note_on channel=8 note=57 velocity=0 time=0
EXTRACT: note_on channel=4 note=70 velocity=64 time=0.0010416666666666667
EXTRACT: note_on channel=8 note=55 velocity=127 time=0
EXTRACT: note_on channel=4 note=70 velocity=0 time=0.24895833333333334
EXTRACT: note_on channel=10 note=46 velocity=0 time=0
EXTRACT: note_on channel=10 note=55 velocity=0 time=0
EXTRACT: note_on channel=11 note=50 velocity=0 time=0
EXTRACT: note_on channel=12 note=43 velocity=0 time=0
EXTRACT: note_on channel=4 note=67 velocity=64 time=0.0010416666666666667
EXTRACT: note_on channel=10 note=46 velocity=80 time=0
EXTRACT: note_on channel=10 note=51 velocity=80 time=0
EXTRACT: note_on channel=11 note=46 velocity=80 time=0
EXTRACT: note_on channel=12 note=39 velocity=80 time=0
EXTRACT: note_on channel=4 note=67 velocity=0 time=0.24895833333333334
EXTRACT: note_on channel=4 note=70 velocity=64 time=0.0010416666666666667
EXTRACT: note_on channel=4 note=70 velocity=0 time=0.24895833333333334
EXTRACT: note_on channel=8 note=55 velocity=0 time=0
EXTRACT: note_on channel=4 note=67 velocity=64 time=0.0010416666666666667
EXTRACT: note_on channel=8 note=53 velocity=127 time=0
EXTRACT: note_on channel=4 note=67 velocity=0 time=0.24895833333333334
EXTRACT: note_on channel=8 note=53 velocity=0 time=0
EXTRACT: note_on channel=4 note=70 velocity=64 time=0.0010416666666666667
EXTRACT: note_on channel=8 note=46 velocity=127 time=0
EXTRACT: note_on channel=4 note=70 velocity=0 time=0.24895833333333334
EXTRACT: note_on channel=4 note=67 velocity=64 time=0.0010416666666666667
EXTRACT: note_on channel=4 note=67 velocity=0 time=0.24895833333333334
EXTRACT: note_on channel=8 note=46 velocity=0 time=0
EXTRACT: note_on channel=4 note=70 velocity=64 time=0.0010416666666666667
EXTRACT: note_on channel=8 note=48 velocity=127 time=0
EXTRACT: note_on channel=4 note=70 velocity=0 time=0.24895833333333334
EXTRACT: note_on channel=4 note=67 velocity=64 time=0.0010416666666666667
EXTRACT: note_on channel=4 note=67 velocity=0 time=0.24895833333333334
EXTRACT: note_on channel=8 note=48 velocity=0 time=0
EXTRACT: note_on channel=4 note=70 velocity=64 time=0.0010416666666666667
EXTRACT: note_on channel=8 note=50 velocity=127 time=0
EXTRACT: note_on channel=4 note=70 velocity=0 time=0.24895833333333334
EXTRACT: note_on channel=10 note=46 velocity=0 time=0
EXTRACT: note_on channel=10 note=51 velocity=0 time=0
EXTRACT: note_on channel=11 note=46 velocity=0 time=0
EXTRACT: note_on channel=12 note=39 velocity=0 time=0
EXTRACT: note_on channel=2 note=65 velocity=64 time=0.0010416666666666667
EXTRACT: note_on channel=4 note=65 velocity=64 time=0
EXTRACT: note_on channel=10 note=46 velocity=80 time=0
EXTRACT: note_on channel=10 note=50 velocity=80 time=0
EXTRACT: note_on channel=11 note=50 velocity=80 time=0
EXTRACT: note_on channel=12 note=34 velocity=80 time=0
EXTRACT: note_on channel=12 note=46 velocity=80 time=0
EXTRACT: note_on channel=2 note=65 velocity=0 time=0.24895833333333334
EXTRACT: note_on channel=4 note=65 velocity=0 time=0
EXTRACT: note_on channel=8 note=50 velocity=0 time=0
EXTRACT: note_on channel=2 note=70 velocity=64 time=0.0010416666666666667
EXTRACT: note_on channel=8 note=51 velocity=127 time=0
EXTRACT: note_on channel=8 note=51 velocity=0 time=0.08229166666666667
EXTRACT: note_on channel=8 note=50 velocity=127 time=0.0010416666666666667
EXTRACT: note_on channel=8 note=50 velocity=0 time=0.08229166666666667
EXTRACT: note_on channel=8 note=48 velocity=127 time=0.0010416666666666667
EXTRACT: note_on channel=2 note=70 velocity=0 time=0.08229166666666667
EXTRACT: note_on channel=8 note=48 velocity=0 time=0
EXTRACT: note_on channel=2 note=65 velocity=64 time=0.0010416666666666667
EXTRACT: note_on channel=8 note=50 velocity=127 time=0
EXTRACT: note_on channel=2 note=65 velocity=0 time=0.24895833333333334
EXTRACT: note_on channel=2 note=70 velocity=64 time=0.0010416666666666667
EXTRACT: note_on channel=2 note=70 velocity=0 time=0.24895833333333334
EXTRACT: note_on channel=2 note=65 velocity=64 time=0.0010416666666666667
EXTRACT: note_on channel=2 note=65 velocity=0 time=0.24895833333333334
EXTRACT: note_on channel=2 note=70 velocity=64 time=0.0010416666666666667
EXTRACT: note_on channel=2 note=70 velocity=0 time=0.24895833333333334
EXTRACT: note_on channel=2 note=65 velocity=64 time=0.0010416666666666667
EXTRACT: note_on channel=2 note=65 velocity=0 time=0.24895833333333334
EXTRACT: note_on channel=2 note=70 velocity=64 time=0.0010416666666666667
EXTRACT: note_on channel=2 note=70 velocity=0 time=0.24895833333333334
EXTRACT: note_on channel=8 note=50 velocity=0 time=0
EXTRACT: note_on channel=10 note=46 velocity=0 time=0
EXTRACT: note_on channel=10 note=50 velocity=0 time=0
EXTRACT: note_on channel=11 note=50 velocity=0 time=0
EXTRACT: note_on channel=12 note=34 velocity=0 time=0
EXTRACT: note_on channel=12 note=46 velocity=0 time=0
EXTRACT: note_on channel=2 note=65 velocity=64 time=0.0010416666666666667
EXTRACT: note_on channel=10 note=50 velocity=80 time=0
EXTRACT: note_on channel=10 note=53 velocity=80 time=0
EXTRACT: note_on channel=11 note=46 velocity=80 time=0
EXTRACT: note_on channel=12 note=34 velocity=80 time=0
EXTRACT: note_on channel=12 note=46 velocity=80 time=0
EXTRACT: note_on channel=2 note=65 velocity=0 time=0.24895833333333334
EXTRACT: note_on channel=2 note=70 velocity=64 time=0.0010416666666666667
EXTRACT: note_on channel=6 note=67 velocity=64 time=0
EXTRACT: note_on channel=7 note=63 velocity=64 time=0
EXTRACT: note_on channel=2 note=70 velocity=0 time=0.24895833333333334
EXTRACT: note_on channel=2 note=65 velocity=64 time=0.0010416666666666667
EXTRACT: note_on channel=2 note=65 velocity=0 time=0.24895833333333334
EXTRACT: note_on channel=6 note=67 velocity=0 time=0
EXTRACT: note_on channel=7 note=63 velocity=0 time=0
EXTRACT: note_on channel=2 note=70 velocity=64 time=0.0010416666666666667
EXTRACT: note_on channel=6 note=65 velocity=64 time=0
EXTRACT: note_on channel=7 note=62 velocity=64 time=0
EXTRACT: note_on channel=2 note=70 velocity=0 time=0.24895833333333334
EXTRACT: note_on channel=6 note=65 velocity=0 time=0
EXTRACT: note_on channel=7 note=62 velocity=0 time=0
EXTRACT: note_on channel=10 note=50 velocity=0 time=0
EXTRACT: note_on channel=10 note=53 velocity=0 time=0
EXTRACT: note_on channel=11 note=46 velocity=0 time=0
EXTRACT: note_on channel=12 note=34 velocity=0 time=0
EXTRACT: note_on channel=12 note=46 velocity=0 time=0
EXTRACT: note_on channel=2 note=65 velocity=64 time=0.0010416666666666667
EXTRACT: note_on channel=6 note=63 velocity=64 time=0
EXTRACT: note_on channel=7 note=60 velocity=64 time=0
EXTRACT: note_on channel=10 note=48 velocity=80 time=0
EXTRACT: note_on channel=10 note=53 velocity=80 time=0
EXTRACT: note_on channel=11 note=45 velocity=80 time=0
EXTRACT: note_on channel=11 note=46 velocity=80 time=0
EXTRACT: note_on channel=12 note=33 velocity=80 time=0
EXTRACT: note_on channel=12 note=45 velocity=80 time=0
EXTRACT: note_on channel=2 note=65 velocity=0 time=0.24895833333333334
EXTRACT: note_on channel=6 note=63 velocity=0 time=0
EXTRACT: note_on channel=7 note=60 velocity=0 time=0
EXTRACT: note_on channel=2 note=70 velocity=64 time=0.0010416666666666667
EXTRACT: note_on channel=6 note=62 velocity=64 time=0
EXTRACT: note_on channel=7 note=58 velocity=64 time=0
EXTRACT: note_on channel=2 note=70 velocity=0 time=0.24895833333333334
EXTRACT: note_on channel=2 note=65 velocity=64 time=0.0010416666666666667
EXTRACT: note_on channel=8 note=46 velocity=127 time=0
EXTRACT: note_on channel=2 note=65 velocity=0 time=0.24895833333333334
EXTRACT: note_on channel=8 note=46 velocity=0 time=0
EXTRACT: note_on channel=2 note=70 velocity=64 time=0.0010416666666666667
EXTRACT: note_on channel=8 note=48 velocity=127 time=0
EXTRACT: note_on channel=2 note=70 velocity=0 time=0.24895833333333334
EXTRACT: note_on channel=6 note=62 velocity=0 time=0
EXTRACT: note_on channel=7 note=58 velocity=0 time=0
EXTRACT: note_on channel=8 note=48 velocity=0 time=0
EXTRACT: note_on channel=10 note=48 velocity=0 time=0
EXTRACT: note_on channel=10 note=53 velocity=0 time=0
EXTRACT: note_on channel=11 note=45 velocity=0 time=0
EXTRACT: note_on channel=11 note=46 velocity=0 time=0
EXTRACT: note_on channel=12 note=33 velocity=0 time=0
EXTRACT: note_on channel=12 note=45 velocity=0 time=0
EXTRACT: note_on channel=2 note=67 velocity=64 time=0.0010416666666666667
EXTRACT: note_on channel=4 note=67 velocity=64 time=0
EXTRACT: note_on channel=8 note=50 velocity=127 time=0
EXTRACT: note_on channel=10 note=51 velocity=80 time=0
EXTRACT: note_on channel=10 note=55 velocity=80 time=0
EXTRACT: note_on channel=11 note=46 velocity=80 time=0
EXTRACT: note_on channel=12 note=39 velocity=80 time=0
EXTRACT: note_on channel=2 note=67 velocity=0 time=0.24895833333333334
EXTRACT: note_on channel=4 note=67 velocity=0 time=0
EXTRACT: note_on channel=4 note=70 velocity=64 time=0.0010416666666666667
EXTRACT: note_on channel=4 note=70 velocity=0 time=0.24895833333333334
EXTRACT: note_on channel=8 note=50 velocity=0 time=0
EXTRACT: note_on channel=4 note=67 velocity=64 time=0.0010416666666666667
EXTRACT: note_on channel=8 note=51 velocity=127 time=0
EXTRACT: note_on channel=4 note=67 velocity=0 time=0.24895833333333334
EXTRACT: note_on channel=8 note=51 velocity=0 time=0
EXTRACT: note_on channel=4 note=70 velocity=64 time=0.0010416666666666667
EXTRACT: note_on channel=8 note=50 velocity=127 time=0
EXTRACT: note_on channel=4 note=70 velocity=0 time=0.24895833333333334
EXTRACT: note_on channel=4 note=67 velocity=64 time=0.0010416666666666667
EXTRACT: note_on channel=4 note=67 velocity=0 time=0.24895833333333334
EXTRACT: note_on channel=4 note=70 velocity=64 time=0.0010416666666666667
EXTRACT: note_on channel=4 note=70 velocity=0 time=0.24895833333333334
EXTRACT: note_on channel=8 note=50 velocity=0 time=0
EXTRACT: note_on channel=4 note=67 velocity=64 time=0.0010416666666666667
EXTRACT: note_on channel=8 note=51 velocity=127 time=0
EXTRACT: note_on channel=4 note=67 velocity=0 time=0.24895833333333334
EXTRACT: note_on channel=8 note=51 velocity=0 time=0
EXTRACT: note_on channel=4 note=70 velocity=64 time=0.0010416666666666667
EXTRACT: note_on channel=8 note=50 velocity=127 time=0
EXTRACT: note_on channel=4 note=70 velocity=0 time=0.24895833333333334
EXTRACT: note_on channel=10 note=51 velocity=0 time=0
EXTRACT: note_on channel=10 note=55 velocity=0 time=0
EXTRACT: note_on channel=11 note=46 velocity=0 time=0
EXTRACT: note_on channel=12 note=39 velocity=0 time=0
EXTRACT: note_on channel=4 note=69 velocity=64 time=0.0010416666666666667
EXTRACT: note_on channel=10 note=53 velocity=80 time=0
EXTRACT: note_on channel=10 note=57 velocity=80 time=0
EXTRACT: note_on channel=11 note=48 velocity=80 time=0
EXTRACT: note_on channel=12 note=41 velocity=80 time=0
EXTRACT: note_on channel=4 note=69 velocity=0 time=0.24895833333333334
EXTRACT: note_on channel=4 note=72 velocity=64 time=0.0010416666666666667
EXTRACT: note_on channel=4 note=72 velocity=0 time=0.24895833333333334
EXTRACT: note_on channel=8 note=50 velocity=0 time=0
EXTRACT: note_on channel=4 note=69 velocity=64 time=0.0010416666666666667
EXTRACT: note_on channel=8 note=51 velocity=127 time=0
EXTRACT: note_on channel=4 note=69 velocity=0 time=0.24895833333333334
EXTRACT: note_on channel=8 note=51 velocity=0 time=0
EXTRACT: note_on channel=4 note=72 velocity=64 time=0.0010416666666666667
EXTRACT: note_on channel=8 note=50 velocity=127 time=0
EXTRACT: note_on channel=4 note=72 velocity=0 time=0.24895833333333334
EXTRACT: note_on channel=4 note=69 velocity=64 time=0.0010416666666666667
EXTRACT: note_on channel=4 note=69 velocity=0 time=0.24895833333333334
EXTRACT: note_on channel=8 note=50 velocity=0 time=0
EXTRACT: note_on channel=4 note=72 velocity=64 time=0.0010416666666666667
EXTRACT: note_on channel=8 note=46 velocity=127 time=0
EXTRACT: note_on channel=4 note=72 velocity=0 time=0.24895833333333334
EXTRACT: note_on channel=4 note=69 velocity=64 time=0.0010416666666666667
EXTRACT: note_on channel=4 note=69 velocity=0 time=0.24895833333333334
EXTRACT: note_on channel=8 note=46 velocity=0 time=0
EXTRACT: note_on channel=4 note=72 velocity=64 time=0.0010416666666666667
EXTRACT: note_on channel=8 note=46 velocity=127 time=0
EXTRACT: note_on channel=4 note=72 velocity=0 time=0.24895833333333334
EXTRACT: note_on channel=10 note=53 velocity=0 time=0
EXTRACT: note_on channel=10 note=57 velocity=0 time=0
EXTRACT: note_on channel=11 note=48 velocity=0 time=0
EXTRACT: note_on channel=12 note=41 velocity=0 time=0
EXTRACT: note_on channel=2 note=65 velocity=64 time=0.0010416666666666667
EXTRACT: note_on channel=4 note=65 velocity=64 time=0
EXTRACT: note_on channel=10 note=53 velocity=80 time=0
EXTRACT: note_on channel=11 note=50 velocity=80 time=0
EXTRACT: note_on channel=12 note=34 velocity=80 time=0
EXTRACT: note_on channel=12 note=46 velocity=80 time=0
EXTRACT: note_on channel=2 note=65 velocity=0 time=0.24895833333333334
EXTRACT: note_on channel=4 note=65 velocity=0 time=0
EXTRACT: note_on channel=2 note=70 velocity=64 time=0.0010416666666666667
EXTRACT: note_on channel=2 note=70 velocity=0 time=0.24895833333333334
EXTRACT: note_on channel=2 note=65 velocity=64 time=0.0010416666666666667
EXTRACT: note_on channel=2 note=65 velocity=0 time=0.24895833333333334
EXTRACT: note_on channel=2 note=70 velocity=64 time=0.0010416666666666667
EXTRACT: note_on channel=2 note=70 velocity=0 time=0.24895833333333334
EXTRACT: note_on channel=2 note=65 velocity=64 time=0.0010416666666666667
EXTRACT: note_on channel=2 note=65 velocity=0 time=0.24895833333333334
EXTRACT: note_on channel=2 note=70 velocity=64 time=0.0010416666666666667
EXTRACT: note_on channel=2 note=70 velocity=0 time=0.24895833333333334
EXTRACT: note_on channel=2 note=65 velocity=64 time=0.0010416666666666667
EXTRACT: note_on channel=2 note=65 velocity=0 time=0.24895833333333334
EXTRACT: note_on channel=2 note=70 velocity=64 time=0.0010416666666666667
EXTRACT: note_on channel=2 note=70 velocity=0 time=0.24895833333333334
EXTRACT: note_on channel=8 note=46 velocity=0 time=0
EXTRACT: note_on channel=2 note=65 velocity=64 time=0.0010416666666666667
EXTRACT: note_on channel=2 note=65 velocity=0 time=0.24895833333333334
EXTRACT: note_on channel=2 note=70 velocity=64 time=0.0010416666666666667
EXTRACT: note_on channel=2 note=70 velocity=0 time=0.24895833333333334
EXTRACT: note_on channel=2 note=65 velocity=64 time=0.0010416666666666667
EXTRACT: note_on channel=2 note=65 velocity=0 time=0.24895833333333334
EXTRACT: note_on channel=2 note=70 velocity=64 time=0.0010416666666666667
EXTRACT: note_on channel=2 note=70 velocity=0 time=0.24895833333333334
EXTRACT: note_on channel=2 note=65 velocity=64 time=0.0010416666666666667
EXTRACT: note_on channel=2 note=65 velocity=0 time=0.24895833333333334
EXTRACT: note_on channel=2 note=70 velocity=64 time=0.0010416666666666667
EXTRACT: note_on channel=2 note=70 velocity=0 time=0.24895833333333334
EXTRACT: note_on channel=2 note=65 velocity=64 time=0.0010416666666666667
EXTRACT: note_on channel=2 note=65 velocity=0 time=0.24895833333333334
EXTRACT: note_on channel=11 note=50 velocity=0 time=0
EXTRACT: note_on channel=12 note=34 velocity=0 time=0
EXTRACT: note_on channel=12 note=46 velocity=0 time=0
EXTRACT: note_on channel=2 note=70 velocity=64 time=0.0010416666666666667
EXTRACT: note_on channel=11 note=45 velocity=80 time=0
EXTRACT: note_on channel=12 note=33 velocity=80 time=0
EXTRACT: note_on channel=12 note=45 velocity=80 time=0
EXTRACT: note_on channel=2 note=70 velocity=0 time=0.24895833333333334
EXTRACT: note_on channel=10 note=53 velocity=0 time=0
EXTRACT: note_on channel=11 note=45 velocity=0 time=0
EXTRACT: note_on channel=12 note=33 velocity=0 time=0
EXTRACT: note_on channel=12 note=45 velocity=0 time=0
EXTRACT: note_on channel=2 note=69 velocity=64 time=0.0010416666666666667
EXTRACT: note_on channel=6 note=65 velocity=80 time=0
EXTRACT: note_on channel=7 note=62 velocity=80 time=0
EXTRACT: note_on channel=8 note=57 velocity=80 time=0
EXTRACT: note_on channel=10 note=45 velocity=80 time=0
EXTRACT: note_on channel=11 note=45 velocity=80 time=0
EXTRACT: note_on channel=12 note=38 velocity=80 time=0
EXTRACT: note_on channel=2 note=69 velocity=0 time=0.24895833333333334
EXTRACT: note_on channel=0 note=58 velocity=96 time=0.5010416666666666
EXTRACT: note_on channel=2 note=58 velocity=80 time=0
EXTRACT: note_on channel=4 note=58 velocity=33 time=0
EXTRACT: note_on channel=0 note=58 velocity=0 time=0.24895833333333334
EXTRACT: note_on channel=2 note=58 velocity=0 time=0
EXTRACT: note_on channel=4 note=58 velocity=0 time=0
EXTRACT: note_on channel=10 note=45 velocity=0 time=0
EXTRACT: note_on channel=0 note=65 velocity=96 time=0.0010416666666666667
EXTRACT: note_on channel=2 note=62 velocity=80 time=0
EXTRACT: note_on channel=4 note=62 velocity=33 time=0
EXTRACT: note_on channel=10 note=50 velocity=80 time=0
EXTRACT: note_on channel=0 note=65 velocity=0 time=0.24895833333333334
EXTRACT: note_on channel=2 note=62 velocity=0 time=0
EXTRACT: note_on channel=4 note=62 velocity=0 time=0
EXTRACT: note_on channel=0 note=67 velocity=96 time=0.0010416666666666667
EXTRACT: note_on channel=2 note=63 velocity=80 time=0
EXTRACT: note_on channel=4 note=63 velocity=33 time=0
EXTRACT: note_on channel=0 note=67 velocity=0 time=0.24895833333333334
EXTRACT: note_on channel=2 note=63 velocity=0 time=0
EXTRACT: note_on channel=4 note=63 velocity=0 time=0
EXTRACT: note_on channel=0 note=65 velocity=96 time=0.0010416666666666667
EXTRACT: note_on channel=2 note=62 velocity=80 time=0
EXTRACT: note_on channel=4 note=62 velocity=33 time=0
EXTRACT: note_on channel=0 note=65 velocity=0 time=0.49895833333333334
EXTRACT: note_on channel=2 note=62 velocity=0 time=0
EXTRACT: note_on channel=4 note=62 velocity=0 time=0
EXTRACT: note_on channel=6 note=65 velocity=0 time=0
EXTRACT: note_on channel=7 note=62 velocity=0 time=0
EXTRACT: note_on channel=8 note=57 velocity=0 time=0
EXTRACT: note_on channel=10 note=50 velocity=0 time=0
EXTRACT: note_on channel=11 note=45 velocity=0 time=0
EXTRACT: note_on channel=12 note=38 velocity=0 time=0
EXTRACT: note_on channel=0 note=65 velocity=96 time=0.0010416666666666667
EXTRACT: note_on channel=2 note=62 velocity=80 time=0
EXTRACT: note_on channel=4 note=62 velocity=33 time=0
EXTRACT: note_on channel=6 note=67 velocity=80 time=0
EXTRACT: note_on channel=7 note=62 velocity=80 time=0
EXTRACT: note_on channel=8 note=58 velocity=80 time=0
EXTRACT: note_on channel=10 note=50 velocity=80 time=0
EXTRACT: note_on channel=11 note=46 velocity=80 time=0
EXTRACT: note_on channel=12 note=43 velocity=80 time=0
EXTRACT: note_on channel=0 note=65 velocity=0 time=0.24895833333333334
EXTRACT: note_on channel=2 note=62 velocity=0 time=0
EXTRACT: note_on channel=4 note=62 velocity=0 time=0
EXTRACT: note_on channel=0 note=67 velocity=96 time=0.0010416666666666667
EXTRACT: note_on channel=2 note=63 velocity=80 time=0
EXTRACT: note_on channel=4 note=63 velocity=33 time=0
EXTRACT: note_on channel=0 note=67 velocity=0 time=0.24895833333333334
EXTRACT: note_on channel=2 note=63 velocity=0 time=0
EXTRACT: note_on channel=4 note=63 velocity=0 time=0
EXTRACT: note_on channel=0 note=65 velocity=96 time=0.0010416666666666667
EXTRACT: note_on channel=2 note=62 velocity=80 time=0
EXTRACT: note_on channel=4 note=62 velocity=33 time=0
EXTRACT: note_on channel=0 note=65 velocity=0 time=0.49895833333333334
EXTRACT: note_on channel=2 note=62 velocity=0 time=0
EXTRACT: note_on channel=4 note=62 velocity=0 time=0
EXTRACT: note_on channel=0 note=65 velocity=96 time=0.0010416666666666667
EXTRACT: note_on channel=2 note=62 velocity=80 time=0
EXTRACT: note_on channel=4 note=62 velocity=33 time=0
EXTRACT: note_on channel=0 note=65 velocity=0 time=0.49895833333333334
EXTRACT: note_on channel=2 note=62 velocity=0 time=0
EXTRACT: note_on channel=4 note=62 velocity=0 time=0
EXTRACT: note_on channel=0 note=62 velocity=96 time=0.0010416666666666667
EXTRACT: note_on channel=2 note=58 velocity=80 time=0
EXTRACT: note_on channel=4 note=58 velocity=33 time=0
EXTRACT: note_on channel=6 note=67 velocity=0 time=0.49895833333333334
EXTRACT: note_on channel=7 note=62 velocity=0 time=0
EXTRACT: note_on channel=8 note=58 velocity=0 time=0
EXTRACT: note_on channel=10 note=50 velocity=0 time=0
EXTRACT: note_on channel=11 note=46 velocity=0 time=0
EXTRACT: note_on channel=12 note=43 velocity=0 time=0
EXTRACT: note_on channel=6 note=67 velocity=80 time=0.0010416666666666667
EXTRACT: note_on channel=7 note=63 velocity=80 time=0
EXTRACT: note_on channel=8 note=58 velocity=80 time=0
EXTRACT: note_on channel=10 note=46 velocity=80 time=0
EXTRACT: note_on channel=11 note=46 velocity=80 time=0
EXTRACT: note_on channel=12 note=39 velocity=80 time=0
EXTRACT: note_on channel=0 note=62 velocity=0 time=0.24895833333333334
EXTRACT: note_on channel=2 note=58 velocity=0 time=0
EXTRACT: note_on channel=4 note=58 velocity=0 time=0
EXTRACT: note_on channel=0 note=60 velocity=96 time=0.0010416666666666667
EXTRACT: note_on channel=2 note=57 velocity=80 time=0
EXTRACT: note_on channel=4 note=57 velocity=33 time=0
EXTRACT: note_on channel=0 note=60 velocity=0 time=0.24895833333333334
EXTRACT: note_on channel=2 note=57 velocity=0 time=0
EXTRACT: note_on channel=4 note=57 velocity=0 time=0
EXTRACT: note_on channel=0 note=58 velocity=96 time=0.0010416666666666667
EXTRACT: note_on channel=2 note=53 velocity=80 time=0
EXTRACT: note_on channel=4 note=53 velocity=33 time=0
EXTRACT: note_on channel=10 note=46 velocity=0 time=0.49895833333333334
EXTRACT: note_on channel=10 note=51 velocity=80 time=0.0010416666666666667
EXTRACT: note_on channel=0 note=58 velocity=0 time=0.24895833333333334
EXTRACT: note_on channel=2 note=53 velocity=0 time=0
EXTRACT: note_on channel=4 note=53 velocity=0 time=0
EXTRACT: note_on channel=0 note=60 velocity=96 time=0.0010416666666666667
EXTRACT: note_on channel=2 note=55 velocity=80 time=0
EXTRACT: note_on channel=4 note=55 velocity=33 time=0
EXTRACT: note_on channel=0 note=60 velocity=0 time=0.24895833333333334
EXTRACT: note_on channel=2 note=55 velocity=0 time=0
EXTRACT: note_on channel=4 note=55 velocity=0 time=0
EXTRACT: note_on channel=0 note=62 velocity=96 time=0.0010416666666666667
EXTRACT: note_on channel=2 note=58 velocity=80 time=0
EXTRACT: note_on channel=4 note=58 velocity=33 time=0
EXTRACT: note_on channel=0 note=62 velocity=0 time=0.24895833333333334
EXTRACT: note_on channel=2 note=58 velocity=0 time=0
EXTRACT: note_on channel=4 note=58 velocity=0 time=0
EXTRACT: note_on channel=0 note=63 velocity=96 time=0.0010416666666666667
EXTRACT: note_on channel=2 note=60 velocity=80 time=0
EXTRACT: note_on channel=4 note=60 velocity=33 time=0
EXTRACT: note_on channel=0 note=63 velocity=0 time=0.24895833333333334
EXTRACT: note_on channel=2 note=60 velocity=0 time=0
EXTRACT: note_on channel=4 note=60 velocity=0 time=0
EXTRACT: note_on channel=6 note=67 velocity=0 time=0
EXTRACT: note_on channel=7 note=63 velocity=0 time=0
EXTRACT: note_on channel=8 note=58 velocity=0 time=0
EXTRACT: note_on channel=10 note=51 velocity=0 time=0
EXTRACT: note_on channel=11 note=46 velocity=0 time=0
EXTRACT: note_on channel=12 note=39 velocity=0 time=0
EXTRACT: note_on channel=0 note=62 velocity=96 time=0.0010416666666666667
EXTRACT: note_on channel=2 note=58 velocity=80 time=0
EXTRACT: note_on channel=4 note=58 velocity=33 time=0
EXTRACT: note_on channel=6 note=65 velocity=80 time=0
EXTRACT: note_on channel=7 note=62 velocity=80 time=0
EXTRACT: note_on channel=8 note=58 velocity=80 time=0
EXTRACT: note_on channel=10 note=50 velocity=80 time=0
EXTRACT: note_on channel=11 note=46 velocity=80 time=0
EXTRACT: note_on channel=12 note=34 velocity=80 time=0
EXTRACT: note_on channel=0 note=62 velocity=0 time=0.9989583333333333
EXTRACT: note_on channel=2 note=58 velocity=0 time=0
EXTRACT: note_on channel=4 note=58 velocity=0 time=0
EXTRACT: note_on channel=6 note=65 velocity=0 time=1.0
EXTRACT: note_on channel=7 note=62 velocity=0 time=0
EXTRACT: note_on channel=8 note=58 velocity=0 time=0
EXTRACT: note_on channel=10 note=50 velocity=0 time=0
EXTRACT: note_on channel=11 note=46 velocity=0 time=0
EXTRACT: note_on channel=12 note=34 velocity=0 time=0
EXTRACT: note_on channel=2 note=69 velocity=80 time=0.0010416666666666667
EXTRACT: note_on channel=8 note=57 velocity=80 time=0
EXTRACT: note_on channel=10 note=45 velocity=80 time=0
EXTRACT: note_on channel=11 note=45 velocity=80 time=0
EXTRACT: note_on channel=12 note=38 velocity=80 time=0
EXTRACT: note_on channel=2 note=69 velocity=0 time=0.24895833333333334
EXTRACT: note_on channel=2 note=65 velocity=80 time=0.0010416666666666667
EXTRACT: note_on channel=2 note=65 velocity=0 time=0.24895833333333334
EXTRACT: note_on channel=2 note=69 velocity=80 time=0.0010416666666666667
EXTRACT: note_on channel=2 note=69 velocity=0 time=0.24895833333333334
EXTRACT: note_on channel=2 note=65 velocity=80 time=0.0010416666666666667
EXTRACT: note_on channel=2 note=65 velocity=0 time=0.24895833333333334
EXTRACT: note_on channel=10 note=45 velocity=0 time=0
EXTRACT: note_on channel=2 note=69 velocity=80 time=0.0010416666666666667
EXTRACT: note_on channel=6 note=65 velocity=96 time=0
EXTRACT: note_on channel=7 note=62 velocity=96 time=0
EXTRACT: note_on channel=10 note=50 velocity=80 time=0
EXTRACT: note_on channel=2 note=69 velocity=0 time=0.24895833333333334
EXTRACT: note_on channel=6 note=65 velocity=0 time=0
EXTRACT: note_on channel=7 note=62 velocity=0 time=0
EXTRACT: note_on channel=2 note=65 velocity=80 time=0.0010416666666666667
EXTRACT: note_on channel=6 note=67 velocity=96 time=0
EXTRACT: note_on channel=7 note=63 velocity=96 time=0
EXTRACT: note_on channel=2 note=65 velocity=0 time=0.24895833333333334
EXTRACT: note_on channel=6 note=67 velocity=0 time=0
EXTRACT: note_on channel=7 note=63 velocity=0 time=0
EXTRACT: note_on channel=2 note=69 velocity=80 time=0.0010416666666666667
EXTRACT: note_on channel=6 note=65 velocity=96 time=0
EXTRACT: note_on channel=7 note=62 velocity=96 time=0
EXTRACT: note_on channel=2 note=69 velocity=0 time=0.24895833333333334
EXTRACT: note_on channel=2 note=65 velocity=80 time=0.0010416666666666667
EXTRACT: note_on channel=2 note=65 velocity=0 time=0.24895833333333334
EXTRACT: note_on channel=6 note=65 velocity=0 time=0
EXTRACT: note_on channel=7 note=62 velocity=0 time=0
EXTRACT: note_on channel=8 note=57 velocity=0 time=0
EXTRACT: note_on channel=10 note=50 velocity=0 time=0
EXTRACT: note_on channel=11 note=45 velocity=0 time=0
EXTRACT: note_on channel=12 note=38 velocity=0 time=0
EXTRACT: note_on channel=2 note=70 velocity=80 time=0.0010416666666666667
EXTRACT: note_on channel=4 note=70 velocity=80 time=0
EXTRACT: note_on channel=6 note=65 velocity=96 time=0
EXTRACT: note_on channel=7 note=62 velocity=96 time=0
EXTRACT: note_on channel=8 note=58 velocity=80 time=0
EXTRACT: note_on channel=10 note=50 velocity=80 time=0
EXTRACT: note_on channel=11 note=46 velocity=80 time=0
EXTRACT: note_on channel=12 note=43 velocity=80 time=0
EXTRACT: note_on channel=2 note=70 velocity=0 time=0.24895833333333334
EXTRACT: note_on channel=4 note=70 velocity=0 time=0
EXTRACT: note_on channel=6 note=65 velocity=0 time=0
EXTRACT: note_on channel=7 note=62 velocity=0 time=0
EXTRACT: note_on channel=4 note=67 velocity=80 time=0.0010416666666666667
EXTRACT: note_on channel=6 note=67 velocity=96 time=0
EXTRACT: note_on channel=7 note=63 velocity=96 time=0
EXTRACT: note_on channel=4 note=67 velocity=0 time=0.24895833333333334
EXTRACT: note_on channel=6 note=67 velocity=0 time=0
EXTRACT: note_on channel=7 note=63 velocity=0 time=0
EXTRACT: note_on channel=4 note=70 velocity=80 time=0.0010416666666666667
EXTRACT: note_on channel=6 note=65 velocity=96 time=0
EXTRACT: note_on channel=7 note=62 velocity=96 time=0
EXTRACT: note_on channel=4 note=70 velocity=0 time=0.24895833333333334
EXTRACT: note_on channel=4 note=67 velocity=80 time=0.0010416666666666667
EXTRACT: note_on channel=4 note=67 velocity=0 time=0.24895833333333334
EXTRACT: note_on channel=6 note=65 velocity=0 time=0
EXTRACT: note_on channel=7 note=62 velocity=0 time=0
EXTRACT: note_on channel=4 note=70 velocity=80 time=0.0010416666666666667
EXTRACT: note_on channel=6 note=65 velocity=96 time=0
EXTRACT: note_on channel=7 note=62 velocity=96 time=0
EXTRACT: note_on channel=4 note=70 velocity=0 time=0.24895833333333334
EXTRACT: note_on channel=4 note=67 velocity=80 time=0.0010416666666666667
EXTRACT: note_on channel=4 note=67 velocity=0 time=0.24895833333333334
EXTRACT: note_on channel=6 note=65 velocity=0 time=0
EXTRACT: note_on channel=7 note=62 velocity=0 time=0
EXTRACT: note_on channel=4 note=70 velocity=80 time=0.0010416666666666667
EXTRACT: note_on channel=6 note=62 velocity=96 time=0
EXTRACT: note_on channel=7 note=58 velocity=96 time=0
EXTRACT: note_on channel=4 note=70 velocity=0 time=0.24895833333333334
EXTRACT: note_on channel=4 note=67 velocity=80 time=0.0010416666666666667
EXTRACT: note_on channel=4 note=67 velocity=0 time=0.24895833333333334
EXTRACT: note_on channel=8 note=58 velocity=0 time=0
EXTRACT: note_on channel=10 note=50 velocity=0 time=0
EXTRACT: note_on channel=11 note=46 velocity=0 time=0
EXTRACT: note_on channel=12 note=43 velocity=0 time=0
EXTRACT: note_on channel=4 note=70 velocity=80 time=0.0010416666666666667
EXTRACT: note_on channel=8 note=58 velocity=80 time=0
EXTRACT: note_on channel=10 note=46 velocity=80 time=0
EXTRACT: note_on channel=11 note=46 velocity=80 time=0
EXTRACT: note_on channel=12 note=39 velocity=80 time=0
EXTRACT: note_on channel=4 note=70 velocity=0 time=0.24895833333333334
EXTRACT: note_on channel=4 note=67 velocity=80 time=0.0010416666666666667
EXTRACT: note_on channel=4 note=67 velocity=0 time=0.24895833333333334
EXTRACT: note_on channel=4 note=70 velocity=80 time=0.0010416666666666667
EXTRACT: note_on channel=4 note=70 velocity=0 time=0.24895833333333334
EXTRACT: note_on channel=4 note=67 velocity=80 time=0.0010416666666666667
EXTRACT: note_on channel=4 note=67 velocity=0 time=0.24895833333333334
EXTRACT: note_on channel=6 note=62 velocity=0 time=0
EXTRACT: note_on channel=7 note=58 velocity=0 time=0
EXTRACT: note_on channel=10 note=46 velocity=0 time=0
EXTRACT: note_on channel=4 note=70 velocity=80 time=0.0010416666666666667
EXTRACT: note_on channel=6 note=58 velocity=96 time=0
EXTRACT: note_on channel=7 note=53 velocity=96 time=0
EXTRACT: note_on channel=10 note=51 velocity=80 time=0
EXTRACT: note_on channel=4 note=70 velocity=0 time=0.24895833333333334
EXTRACT: note_on channel=6 note=58 velocity=0 time=0
EXTRACT: note_on channel=7 note=53 velocity=0 time=0
EXTRACT: note_on channel=4 note=67 velocity=80 time=0.0010416666666666667
EXTRACT: note_on channel=6 note=60 velocity=96 time=0
EXTRACT: note_on channel=7 note=55 velocity=96 time=0
EXTRACT: note_on channel=4 note=67 velocity=0 time=0.24895833333333334
EXTRACT: note_on channel=6 note=60 velocity=0 time=0
EXTRACT: note_on channel=7 note=55 velocity=0 time=0
EXTRACT: note_on channel=4 note=70 velocity=80 time=0.0010416666666666667
EXTRACT: note_on channel=6 note=62 velocity=96 time=0
EXTRACT: note_on channel=7 note=58 velocity=96 time=0
EXTRACT: note_on channel=4 note=70 velocity=0 time=0.24895833333333334
EXTRACT: note_on channel=6 note=62 velocity=0 time=0
EXTRACT: note_on channel=7 note=58 velocity=0 time=0
EXTRACT: note_on channel=4 note=67 velocity=80 time=0.0010416666666666667
EXTRACT: note_on channel=6 note=63 velocity=96 time=0
EXTRACT: note_on channel=7 note=60 velocity=96 time=0
EXTRACT: note_on channel=4 note=67 velocity=0 time=0.24895833333333334
EXTRACT: note_on channel=6 note=63 velocity=0 time=0
EXTRACT: note_on channel=7 note=60 velocity=0 time=0
EXTRACT: note_on channel=8 note=58 velocity=0 time=0
EXTRACT: note_on channel=10 note=51 velocity=0 time=0
EXTRACT: note_on channel=11 note=46 velocity=0 time=0
EXTRACT: note_on channel=12 note=39 velocity=0 time=0
EXTRACT: note_on channel=0 note=74 velocity=80 time=0.0010416666666666667
EXTRACT: note_on channel=4 note=74 velocity=80 time=0
EXTRACT: note_on channel=6 note=62 velocity=96 time=0
EXTRACT: note_on channel=7 note=58 velocity=96 time=0
EXTRACT: note_on channel=8 note=58 velocity=80 time=0
EXTRACT: note_on channel=10 note=50 velocity=80 time=0
EXTRACT: note_on channel=11 note=46 velocity=80 time=0
EXTRACT: note_on channel=12 note=34 velocity=80 time=0
EXTRACT: note_on channel=0 note=74 velocity=0 time=0.24895833333333334
EXTRACT: note_on channel=4 note=74 velocity=0 time=0
EXTRACT: note_on channel=0 note=77 velocity=80 time=0.0010416666666666667
EXTRACT: note_on channel=0 note=77 velocity=0 time=0.24895833333333334
EXTRACT: note_on channel=0 note=74 velocity=80 time=0.0010416666666666667
EXTRACT: note_on channel=0 note=74 velocity=0 time=0.24895833333333334
EXTRACT: note_on channel=0 note=77 velocity=80 time=0.0010416666666666667
EXTRACT: note_on channel=0 note=77 velocity=0 time=0.24895833333333334
EXTRACT: note_on channel=6 note=62 velocity=0 time=0
EXTRACT: note_on channel=7 note=58 velocity=0 time=0
EXTRACT: note_on channel=0 note=74 velocity=80 time=0.0010416666666666667
EXTRACT: note_on channel=6 note=62 velocity=96 time=0
EXTRACT: note_on channel=7 note=58 velocity=96 time=0
EXTRACT: note_on channel=0 note=74 velocity=0 time=0.24895833333333334
EXTRACT: note_on channel=6 note=62 velocity=0 time=0
EXTRACT: note_on channel=7 note=58 velocity=0 time=0
EXTRACT: note_on channel=0 note=77 velocity=80 time=0.0010416666666666667
EXTRACT: note_on channel=6 note=63 velocity=96 time=0
EXTRACT: note_on channel=7 note=60 velocity=96 time=0
EXTRACT: note_on channel=6 note=63 velocity=0 time=0.12395833333333334
EXTRACT: note_on channel=7 note=60 velocity=0 time=0
EXTRACT: note_on channel=6 note=62 velocity=96 time=0.0010416666666666667
EXTRACT: note_on channel=7 note=58 velocity=96 time=0
EXTRACT: note_on channel=0 note=77 velocity=0 time=0.12395833333333334
EXTRACT: note_on channel=6 note=62 velocity=0 time=0
EXTRACT: note_on channel=7 note=58 velocity=0 time=0
EXTRACT: note_on channel=0 note=74 velocity=80 time=0.0010416666666666667
EXTRACT: note_on channel=6 note=60 velocity=96 time=0
EXTRACT: note_on channel=7 note=57 velocity=96 time=0
EXTRACT: note_on channel=0 note=74 velocity=0 time=0.24895833333333334
EXTRACT: note_on channel=6 note=60 velocity=0 time=0
EXTRACT: note_on channel=7 note=57 velocity=0 time=0
EXTRACT: note_on channel=0 note=77 velocity=80 time=0.0010416666666666667
EXTRACT: note_on channel=6 note=62 velocity=96 time=0
EXTRACT: note_on channel=7 note=58 velocity=96 time=0
EXTRACT: note_on channel=0 note=77 velocity=0 time=0.24895833333333334
EXTRACT: note_on channel=6 note=62 velocity=0 time=0
EXTRACT: note_on channel=7 note=58 velocity=0 time=0
EXTRACT: note_on channel=8 note=58 velocity=0 time=0
EXTRACT: note_on channel=10 note=50 velocity=0 time=0
EXTRACT: note_on channel=11 note=46 velocity=0 time=0
EXTRACT: note_on channel=12 note=34 velocity=0 time=0
EXTRACT: note_on channel=0 note=69 velocity=80 time=0.0010416666666666667
EXTRACT: note_on channel=2 note=69 velocity=80 time=0
EXTRACT: note_on channel=6 note=60 velocity=96 time=0
EXTRACT: note_on channel=7 note=57 velocity=96 time=0
EXTRACT: note_on channel=8 note=53 velocity=80 time=0
EXTRACT: note_on channel=10 note=48 velocity=80 time=0
EXTRACT: note_on channel=11 note=45 velocity=80 time=0
EXTRACT: note_on channel=12 note=38 velocity=80 time=0
EXTRACT: note_on channel=0 note=69 velocity=0 time=0.24895833333333334
EXTRACT: note_on channel=2 note=69 velocity=0 time=0
EXTRACT: note_on channel=2 note=65 velocity=80 time=0.0010416666666666667
EXTRACT: note_on channel=2 note=65 velocity=0 time=0.24895833333333334
EXTRACT: note_on channel=2 note=69 velocity=80 time=0.0010416666666666667
EXTRACT: note_on channel=2 note=69 velocity=0 time=0.24895833333333334
EXTRACT: note_on channel=6 note=60 velocity=0 time=0
EXTRACT: note_on channel=7 note=57 velocity=0 time=0
EXTRACT: note_on channel=2 note=65 velocity=80 time=0.0010416666666666667
EXTRACT: note_on channel=6 note=57 velocity=96 time=0
EXTRACT: note_on channel=7 note=53 velocity=96 time=0
EXTRACT: note_on channel=2 note=65 velocity=0 time=0.24895833333333334
EXTRACT: note_on channel=10 note=48 velocity=0 time=0
EXTRACT: note_on channel=2 note=69 velocity=80 time=0.0010416666666666667
EXTRACT: note_on channel=10 note=50 velocity=80 time=0
EXTRACT: note_on channel=2 note=69 velocity=0 time=0.24895833333333334
EXTRACT: note_on channel=2 note=65 velocity=80 time=0.0010416666666666667
EXTRACT: note_on channel=2 note=65 velocity=0 time=0.24895833333333334
EXTRACT: note_on channel=6 note=57 velocity=0 time=0
EXTRACT: note_on channel=7 note=53 velocity=0 time=0
EXTRACT: note_on channel=2 note=69 velocity=80 time=0.0010416666666666667
EXTRACT: note_on channel=2 note=69 velocity=0 time=0.24895833333333334
EXTRACT: note_on channel=2 note=65 velocity=80 time=0.0010416666666666667
EXTRACT: note_on channel=2 note=65 velocity=0 time=0.24895833333333334
EXTRACT: note_on channel=8 note=53 velocity=0 time=0
EXTRACT: note_on channel=10 note=50 velocity=0 time=0
EXTRACT: note_on channel=11 note=45 velocity=0 time=0
EXTRACT: note_on channel=12 note=38 velocity=0 time=0
EXTRACT: note_on channel=2 note=69 velocity=80 time=0.0010416666666666667
EXTRACT: note_on channel=8 note=53 velocity=80 time=0
EXTRACT: note_on channel=10 note=50 velocity=80 time=0
EXTRACT: note_on channel=11 note=45 velocity=80 time=0
EXTRACT: note_on channel=12 note=38 velocity=80 time=0
EXTRACT: note_on channel=2 note=69 velocity=0 time=0.24895833333333334
EXTRACT: note_on channel=2 note=65 velocity=80 time=0.0010416666666666667
EXTRACT: note_on channel=2 note=65 velocity=0 time=0.24895833333333334
EXTRACT: note_on channel=2 note=69 velocity=80 time=0.0010416666666666667
EXTRACT: note_on channel=2 note=69 velocity=0 time=0.24895833333333334
EXTRACT: note_on channel=2 note=65 velocity=80 time=0.0010416666666666667
EXTRACT: note_on channel=2 note=65 velocity=0 time=0.24895833333333334
EXTRACT: note_on channel=2 note=69 velocity=80 time=0.0010416666666666667
EXTRACT: note_on channel=2 note=69 velocity=0 time=0.24895833333333334
EXTRACT: note_on channel=2 note=65 velocity=80 time=0.0010416666666666667
EXTRACT: note_on channel=2 note=65 velocity=0 time=0.24895833333333334
EXTRACT: note_on channel=2 note=69 velocity=80 time=0.0010416666666666667
EXTRACT: note_on channel=2 note=69 velocity=0 time=0.24895833333333334
EXTRACT: note_on channel=2 note=65 velocity=80 time=0.0010416666666666667
EXTRACT: note_on channel=2 note=65 velocity=0 time=0.24895833333333334
EXTRACT: note_on channel=8 note=53 velocity=0 time=0
EXTRACT: note_on channel=10 note=50 velocity=0 time=0
EXTRACT: note_on channel=11 note=45 velocity=0 time=0
EXTRACT: note_on channel=12 note=38 velocity=0 time=0
EXTRACT: note_on channel=2 note=70 velocity=80 time=0.0010416666666666667
EXTRACT: note_on channel=6 note=67 velocity=80 time=0
EXTRACT: note_on channel=7 note=62 velocity=80 time=0
EXTRACT: note_on channel=8 note=55 velocity=80 time=0
EXTRACT: note_on channel=10 note=50 velocity=80 time=0
EXTRACT: note_on channel=11 note=46 velocity=80 time=0
EXTRACT: note_on channel=12 note=43 velocity=80 time=0
EXTRACT: note_on channel=2 note=70 velocity=0 time=0.24895833333333334
EXTRACT: note_on channel=0 note=70 velocity=96 time=0.5010416666666666
EXTRACT: note_on channel=0 note=82 velocity=96 time=0
EXTRACT: note_on channel=2 note=70 velocity=96 time=0
EXTRACT: note_on channel=4 note=58 velocity=96 time=0
EXTRACT: note_on channel=0 note=70 velocity=0 time=0.24895833333333334
EXTRACT: note_on channel=0 note=82 velocity=0 time=0
EXTRACT: note_on channel=2 note=70 velocity=0 time=0
EXTRACT: note_on channel=4 note=58 velocity=0 time=0
EXTRACT: note_on channel=0 note=70 velocity=96 time=0.0010416666666666667
EXTRACT: note_on channel=0 note=82 velocity=96 time=0
EXTRACT: note_on channel=2 note=70 velocity=96 time=0
EXTRACT: note_on channel=4 note=58 velocity=96 time=0
EXTRACT: note_on channel=0 note=70 velocity=0 time=0.24895833333333334
EXTRACT: note_on channel=0 note=82 velocity=0 time=0
EXTRACT: note_on channel=2 note=70 velocity=0 time=0
EXTRACT: note_on channel=4 note=58 velocity=0 time=0
EXTRACT: note_on channel=0 note=72 velocity=96 time=0.0010416666666666667
EXTRACT: note_on channel=0 note=84 velocity=96 time=0
EXTRACT: note_on channel=2 note=72 velocity=96 time=0
EXTRACT: note_on channel=4 note=60 velocity=96 time=0
EXTRACT: note_on channel=0 note=72 velocity=0 time=0.24895833333333334
EXTRACT: note_on channel=0 note=84 velocity=0 time=0
EXTRACT: note_on channel=2 note=72 velocity=0 time=0
EXTRACT: note_on channel=4 note=60 velocity=0 time=0
EXTRACT: note_on channel=0 note=74 velocity=96 time=0.0010416666666666667
EXTRACT: note_on channel=0 note=86 velocity=96 time=0
EXTRACT: note_on channel=2 note=74 velocity=96 time=0
EXTRACT: note_on channel=4 note=62 velocity=96 time=0
EXTRACT: note_on channel=0 note=74 velocity=0 time=0.24895833333333334
EXTRACT: note_on channel=0 note=86 velocity=0 time=0
EXTRACT: note_on channel=2 note=74 velocity=0 time=0
EXTRACT: note_on channel=4 note=62 velocity=0 time=0
EXTRACT: note_on channel=0 note=75 velocity=96 time=0.0010416666666666667
EXTRACT: note_on channel=0 note=87 velocity=96 time=0
EXTRACT: note_on channel=2 note=75 velocity=96 time=0
EXTRACT: note_on channel=4 note=63 velocity=96 time=0
EXTRACT: note_on channel=0 note=75 velocity=0 time=0.24895833333333334
EXTRACT: note_on channel=0 note=87 velocity=0 time=0
EXTRACT: note_on channel=2 note=75 velocity=0 time=0
EXTRACT: note_on channel=4 note=63 velocity=0 time=0
EXTRACT: note_on channel=6 note=67 velocity=0 time=0
EXTRACT: note_on channel=7 note=62 velocity=0 time=0
EXTRACT: note_on channel=8 note=55 velocity=0 time=0
EXTRACT: note_on channel=10 note=50 velocity=0 time=0
EXTRACT: note_on channel=11 note=46 velocity=0 time=0
EXTRACT: note_on channel=12 note=43 velocity=0 time=0
EXTRACT: note_on channel=0 note=74 velocity=96 time=0.0010416666666666667
EXTRACT: note_on channel=0 note=86 velocity=96 time=0
EXTRACT: note_on channel=2 note=74 velocity=96 time=0
EXTRACT: note_on channel=4 note=62 velocity=96 time=0
EXTRACT: note_on channel=6 note=67 velocity=80 time=0
EXTRACT: note_on channel=7 note=63 velocity=80 time=0
EXTRACT: note_on channel=8 note=55 velocity=80 time=0
EXTRACT: note_on channel=10 note=51 velocity=80 time=0
EXTRACT: note_on channel=11 note=46 velocity=80 time=0
EXTRACT: note_on channel=12 note=39 velocity=80 time=0
EXTRACT: note_on channel=0 note=74 velocity=0 time=0.7489583333333333
EXTRACT: note_on channel=0 note=86 velocity=0 time=0
EXTRACT: note_on channel=2 note=74 velocity=0 time=0
EXTRACT: note_on channel=4 note=62 velocity=0 time=0
EXTRACT: note_on channel=0 note=77 velocity=96 time=0.0010416666666666667
EXTRACT: note_on channel=2 note=65 velocity=96 time=0
EXTRACT: note_on channel=4 note=65 velocity=96 time=0
EXTRACT: note_on channel=0 note=77 velocity=0 time=0.24895833333333334
EXTRACT: note_on channel=2 note=65 velocity=0 time=0
EXTRACT: note_on channel=4 note=65 velocity=0 time=0
EXTRACT: note_on channel=0 note=77 velocity=96 time=0.0010416666666666667
EXTRACT: note_on channel=2 note=65 velocity=96 time=0
EXTRACT: note_on channel=4 note=65 velocity=96 time=0
EXTRACT: note_on channel=10 note=51 velocity=0 time=0.7489583333333333
EXTRACT: note_on channel=12 note=39 velocity=0 time=0
EXTRACT: note_on channel=10 note=51 velocity=80 time=0.0010416666666666667
EXTRACT: note_on channel=12 note=39 velocity=80 time=0
EXTRACT: note_on channel=0 note=77 velocity=0 time=0.24895833333333334
EXTRACT: note_on channel=2 note=65 velocity=0 time=0
EXTRACT: note_on channel=4 note=65 velocity=0 time=0
EXTRACT: note_on channel=6 note=67 velocity=0 time=0
EXTRACT: note_on channel=7 note=63 velocity=0 time=0
EXTRACT: note_on channel=8 note=55 velocity=0 time=0
EXTRACT: note_on channel=10 note=51 velocity=0 time=0
EXTRACT: note_on channel=11 note=46 velocity=0 time=0
EXTRACT: note_on channel=12 note=39 velocity=0 time=0
EXTRACT: note_on channel=2 note=69 velocity=80 time=0.0010416666666666667
EXTRACT: note_on channel=6 note=65 velocity=80 time=0
EXTRACT: note_on channel=7 note=62 velocity=80 time=0
EXTRACT: note_on channel=8 note=53 velocity=80 time=0
EXTRACT: note_on channel=10 note=50 velocity=80 time=0
EXTRACT: note_on channel=11 note=45 velocity=80 time=0
EXTRACT: note_on channel=12 note=38 velocity=80 time=0
EXTRACT: note_on channel=2 note=69 velocity=0 time=0.24895833333333334
EXTRACT: note_on channel=2 note=65 velocity=80 time=0.0010416666666666667
EXTRACT: note_on channel=2 note=65 velocity=0 time=0.24895833333333334
EXTRACT: note_on channel=2 note=69 velocity=80 time=0.0010416666666666667
EXTRACT: note_on channel=2 note=69 velocity=0 time=0.24895833333333334
EXTRACT: note_on channel=2 note=65 velocity=80 time=0.0010416666666666667
EXTRACT: note_on channel=2 note=65 velocity=0 time=0.24895833333333334
EXTRACT: note_on channel=2 note=69 velocity=80 time=0.0010416666666666667
EXTRACT: note_on channel=2 note=69 velocity=0 time=0.24895833333333334
EXTRACT: note_on channel=2 note=65 velocity=80 time=0.0010416666666666667
EXTRACT: note_on channel=2 note=65 velocity=0 time=0.24895833333333334
EXTRACT: note_on channel=2 note=69 velocity=80 time=0.0010416666666666667
EXTRACT: note_on channel=2 note=69 velocity=0 time=0.24895833333333334
EXTRACT: note_on channel=2 note=65 velocity=80 time=0.0010416666666666667
EXTRACT: note_on channel=2 note=65 velocity=0 time=0.24895833333333334
EXTRACT: note_on channel=2 note=69 velocity=80 time=0.0010416666666666667
EXTRACT: note_on channel=2 note=69 velocity=0 time=0.24895833333333334
EXTRACT: note_on channel=2 note=65 velocity=80 time=0.0010416666666666667
EXTRACT: note_on channel=2 note=65 velocity=0 time=0.24895833333333334
EXTRACT: note_on channel=2 note=69 velocity=80 time=0.0010416666666666667
EXTRACT: note_on channel=2 note=69 velocity=0 time=0.24895833333333334
EXTRACT: note_on channel=2 note=65 velocity=80 time=0.0010416666666666667
EXTRACT: note_on channel=2 note=65 velocity=0 time=0.24895833333333334
EXTRACT: note_on channel=2 note=69 velocity=80 time=0.0010416666666666667
EXTRACT: note_on channel=2 note=69 velocity=0 time=0.24895833333333334
EXTRACT: note_on channel=2 note=65 velocity=80 time=0.0010416666666666667
EXTRACT: note_on channel=2 note=65 velocity=0 time=0.24895833333333334
EXTRACT: note_on channel=2 note=69 velocity=80 time=0.0010416666666666667
EXTRACT: note_on channel=2 note=69 velocity=0 time=0.24895833333333334
EXTRACT: note_on channel=2 note=65 velocity=80 time=0.0010416666666666667
EXTRACT: note_on channel=2 note=65 velocity=0 time=0.24895833333333334
EXTRACT: note_on channel=6 note=65 velocity=0 time=0
EXTRACT: note_on channel=7 note=62 velocity=0 time=0
EXTRACT: note_on channel=8 note=53 velocity=0 time=0
EXTRACT: note_on channel=10 note=50 velocity=0 time=0
EXTRACT: note_on channel=11 note=45 velocity=0 time=0
EXTRACT: note_on channel=12 note=38 velocity=0 time=0
EXTRACT: note_on channel=2 note=70 velocity=80 time=0.0010416666666666667
EXTRACT: note_on channel=6 note=67 velocity=80 time=0
EXTRACT: note_on channel=7 note=62 velocity=80 time=0
EXTRACT: note_on channel=8 note=55 velocity=80 time=0
EXTRACT: note_on channel=10 note=50 velocity=80 time=0
EXTRACT: note_on channel=11 note=46 velocity=80 time=0
EXTRACT: note_on channel=12 note=43 velocity=80 time=0
EXTRACT: note_on channel=2 note=70 velocity=0 time=0.24895833333333334
EXTRACT: note_on channel=0 note=70 velocity=96 time=0.5010416666666666
EXTRACT: note_on channel=0 note=82 velocity=96 time=0
EXTRACT: note_on channel=2 note=70 velocity=96 time=0
EXTRACT: note_on channel=4 note=58 velocity=96 time=0
EXTRACT: note_on channel=0 note=70 velocity=0 time=0.24895833333333334
EXTRACT: note_on channel=0 note=82 velocity=0 time=0
EXTRACT: note_on channel=2 note=70 velocity=0 time=0
EXTRACT: note_on channel=4 note=58 velocity=0 time=0
EXTRACT: note_on channel=0 note=70 velocity=96 time=0.0010416666666666667
EXTRACT: note_on channel=0 note=82 velocity=96 time=0
EXTRACT: note_on channel=2 note=70 velocity=96 time=0
EXTRACT: note_on channel=4 note=58 velocity=96 time=0
EXTRACT: note_on channel=0 note=70 velocity=0 time=0.24895833333333334
EXTRACT: note_on channel=0 note=82 velocity=0 time=0
EXTRACT: note_on channel=2 note=70 velocity=0 time=0
EXTRACT: note_on channel=4 note=58 velocity=0 time=0
EXTRACT: note_on channel=0 note=72 velocity=96 time=0.0010416666666666667
EXTRACT: note_on channel=0 note=84 velocity=96 time=0
EXTRACT: note_on channel=2 note=72 velocity=96 time=0
EXTRACT: note_on channel=4 note=60 velocity=96 time=0
EXTRACT: note_on channel=0 note=72 velocity=0 time=0.24895833333333334
EXTRACT: note_on channel=0 note=84 velocity=0 time=0
EXTRACT: note_on channel=2 note=72 velocity=0 time=0
EXTRACT: note_on channel=4 note=60 velocity=0 time=0
EXTRACT: note_on channel=0 note=74 velocity=96 time=0.0010416666666666667
EXTRACT: note_on channel=0 note=86 velocity=96 time=0
EXTRACT: note_on channel=2 note=74 velocity=96 time=0
EXTRACT: note_on channel=4 note=62 velocity=96 time=0
EXTRACT: note_on channel=0 note=74 velocity=0 time=0.24895833333333334
EXTRACT: note_on channel=0 note=86 velocity=0 time=0
EXTRACT: note_on channel=2 note=74 velocity=0 time=0
EXTRACT: note_on channel=4 note=62 velocity=0 time=0
EXTRACT: note_on channel=0 note=75 velocity=96 time=0.0010416666666666667
EXTRACT: note_on channel=0 note=87 velocity=96 time=0
EXTRACT: note_on channel=2 note=75 velocity=96 time=0
EXTRACT: note_on channel=4 note=63 velocity=96 time=0
EXTRACT: note_on channel=0 note=75 velocity=0 time=0.24895833333333334
EXTRACT: note_on channel=0 note=87 velocity=0 time=0
EXTRACT: note_on channel=2 note=75 velocity=0 time=0
EXTRACT: note_on channel=4 note=63 velocity=0 time=0
EXTRACT: note_on channel=6 note=67 velocity=0 time=0
EXTRACT: note_on channel=7 note=62 velocity=0 time=0
EXTRACT: note_on channel=8 note=55 velocity=0 time=0
EXTRACT: note_on channel=10 note=50 velocity=0 time=0
EXTRACT: note_on channel=11 note=46 velocity=0 time=0
EXTRACT: note_on channel=12 note=43 velocity=0 time=0
EXTRACT: note_on channel=0 note=74 velocity=96 time=0.0010416666666666667
EXTRACT: note_on channel=0 note=86 velocity=96 time=0
EXTRACT: note_on channel=2 note=74 velocity=96 time=0
EXTRACT: note_on channel=4 note=62 velocity=96 time=0
EXTRACT: note_on channel=6 note=65 velocity=80 time=0
EXTRACT: note_on channel=7 note=63 velocity=80 time=0
EXTRACT: note_on channel=8 note=53 velocity=80 time=0
EXTRACT: note_on channel=10 note=51 velocity=80 time=0
EXTRACT: note_on channel=11 note=46 velocity=80 time=0
EXTRACT: note_on channel=12 note=39 velocity=80 time=0
EXTRACT: note_on channel=0 note=74 velocity=0 time=2.9989583333333334
EXTRACT: note_on channel=0 note=86 velocity=0 time=0
EXTRACT: note_on channel=2 note=74 velocity=0 time=0
EXTRACT: note_on channel=4 note=62 velocity=0 time=0
EXTRACT: note_on channel=0 note=77 velocity=96 time=0.5010416666666666
EXTRACT: note_on channel=0 note=89 velocity=96 time=0
EXTRACT: note_on channel=2 note=74 velocity=96 time=0
EXTRACT: note_on channel=4 note=62 velocity=96 time=0
EXTRACT: note_on channel=4 note=65 velocity=96 time=0
EXTRACT: note_on channel=0 note=77 velocity=0 time=0.24895833333333334
EXTRACT: note_on channel=0 note=89 velocity=0 time=0
EXTRACT: note_on channel=2 note=74 velocity=0 time=0
EXTRACT: note_on channel=4 note=62 velocity=0 time=0
EXTRACT: note_on channel=4 note=65 velocity=0 time=0
EXTRACT: note_on channel=0 note=77 velocity=96 time=0.0010416666666666667
EXTRACT: note_on channel=0 note=89 velocity=96 time=0
EXTRACT: note_on channel=2 note=74 velocity=96 time=0
EXTRACT: note_on channel=4 note=62 velocity=96 time=0
EXTRACT: note_on channel=4 note=65 velocity=96 time=0
EXTRACT: note_on channel=6 note=65 velocity=0 time=0.24895833333333334
EXTRACT: note_on channel=7 note=63 velocity=0 time=0
EXTRACT: note_on channel=8 note=53 velocity=0 time=0
EXTRACT: note_on channel=10 note=51 velocity=0 time=0
EXTRACT: note_on channel=11 note=46 velocity=0 time=0
EXTRACT: note_on channel=12 note=39 velocity=0 time=0
EXTRACT: note_on channel=6 note=65 velocity=80 time=0.0010416666666666667
EXTRACT: note_on channel=7 note=60 velocity=80 time=0
EXTRACT: note_on channel=8 note=51 velocity=80 time=0
EXTRACT: note_on channel=10 note=48 velocity=80 time=0
EXTRACT: note_on channel=11 note=45 velocity=80 time=0
EXTRACT: note_on channel=12 note=41 velocity=80 time=0
EXTRACT: note_on channel=10 note=48 velocity=0 time=3.7489583333333334
EXTRACT: note_on channel=11 note=45 velocity=0 time=0
EXTRACT: note_on channel=12 note=41 velocity=0 time=0
EXTRACT: note_on channel=10 note=46 velocity=80 time=0.0010416666666666667
EXTRACT: note_on channel=11 note=46 velocity=80 time=0
EXTRACT: note_on channel=12 note=34 velocity=80 time=0
EXTRACT: note_on channel=0 note=77 velocity=0 time=0.24895833333333334
EXTRACT: note_on channel=0 note=89 velocity=0 time=0
EXTRACT: note_on channel=2 note=74 velocity=0 time=0
EXTRACT: note_on channel=4 note=62 velocity=0 time=0
EXTRACT: note_on channel=4 note=65 velocity=0 time=0
EXTRACT: note_on channel=6 note=65 velocity=0 time=0
EXTRACT: note_on channel=7 note=60 velocity=0 time=0
EXTRACT: note_on channel=8 note=51 velocity=0 time=0
EXTRACT: note_on channel=10 note=46 velocity=0 time=0
EXTRACT: note_on channel=11 note=46 velocity=0 time=0
EXTRACT: note_on channel=12 note=34 velocity=0 time=0
EXTRACT: note_on channel=12 note=39 velocity=112 time=0.0010416666666666667
EXTRACT: note_on channel=11 note=46 velocity=112 time=0.25
EXTRACT: note_on channel=8 note=58 velocity=112 time=0.25
EXTRACT: note_on channel=10 note=51 velocity=112 time=0
EXTRACT: note_on channel=0 note=70 velocity=112 time=0.25
EXTRACT: note_on channel=2 note=70 velocity=112 time=0
EXTRACT: note_on channel=4 note=58 velocity=112 time=0
EXTRACT: note_on channel=0 note=70 velocity=0 time=0.24895833333333334
EXTRACT: note_on channel=2 note=70 velocity=0 time=0
EXTRACT: note_on channel=4 note=58 velocity=0 time=0
EXTRACT: note_on channel=0 note=77 velocity=112 time=0.0010416666666666667
EXTRACT: note_on channel=2 note=74 velocity=112 time=0
EXTRACT: note_on channel=4 note=65 velocity=112 time=0
EXTRACT: note_on channel=0 note=77 velocity=0 time=0.24895833333333334
EXTRACT: note_on channel=2 note=74 velocity=0 time=0
EXTRACT: note_on channel=4 note=65 velocity=0 time=0
EXTRACT: note_on channel=0 note=79 velocity=112 time=0.0010416666666666667
EXTRACT: note_on channel=2 note=75 velocity=112 time=0
EXTRACT: note_on channel=4 note=67 velocity=112 time=0
EXTRACT: note_on channel=0 note=79 velocity=0 time=0.24895833333333334
EXTRACT: note_on channel=2 note=75 velocity=0 time=0
EXTRACT: note_on channel=4 note=67 velocity=0 time=0
EXTRACT: note_on channel=0 note=77 velocity=112 time=0.0010416666666666667
EXTRACT: note_on channel=2 note=74 velocity=112 time=0
EXTRACT: note_on channel=4 note=65 velocity=112 time=0
EXTRACT: note_on channel=0 note=77 velocity=0 time=0.49895833333333334
EXTRACT: note_on channel=2 note=74 velocity=0 time=0
EXTRACT: note_on channel=4 note=65 velocity=0 time=0
EXTRACT: note_on channel=8 note=58 velocity=0 time=0
EXTRACT: note_on channel=10 note=51 velocity=0 time=0
EXTRACT: note_on channel=11 note=46 velocity=0 time=0
EXTRACT: note_on channel=12 note=39 velocity=0 time=0
EXTRACT: note_on channel=0 note=77 velocity=112 time=0.0010416666666666667
EXTRACT: note_on channel=2 note=74 velocity=112 time=0
EXTRACT: note_on channel=4 note=65 velocity=112 time=0
EXTRACT: note_on channel=12 note=41 velocity=112 time=0
EXTRACT: note_on channel=0 note=77 velocity=0 time=0.24895833333333334
EXTRACT: note_on channel=2 note=74 velocity=0 time=0
EXTRACT: note_on channel=4 note=65 velocity=0 time=0
EXTRACT: note_on channel=0 note=79 velocity=112 time=0.0010416666666666667
EXTRACT: note_on channel=2 note=75 velocity=112 time=0
EXTRACT: note_on channel=4 note=67 velocity=112 time=0
EXTRACT: note_on channel=11 note=48 velocity=112 time=0
EXTRACT: note_on channel=0 note=79 velocity=0 time=0.24895833333333334
EXTRACT: note_on channel=2 note=75 velocity=0 time=0
EXTRACT: note_on channel=4 note=67 velocity=0 time=0
EXTRACT: note_on channel=0 note=77 velocity=112 time=0.0010416666666666667
EXTRACT: note_on channel=2 note=74 velocity=112 time=0
EXTRACT: note_on channel=4 note=65 velocity=112 time=0
EXTRACT: note_on channel=8 note=60 velocity=112 time=0
EXTRACT: note_on channel=10 note=53 velocity=112 time=0
EXTRACT: note_on channel=0 note=77 velocity=0 time=0.49895833333333334
EXTRACT: note_on channel=2 note=74 velocity=0 time=0
EXTRACT: note_on channel=4 note=65 velocity=0 time=0
EXTRACT: note_on channel=0 note=77 velocity=112 time=0.0010416666666666667
EXTRACT: note_on channel=2 note=74 velocity=112 time=0
EXTRACT: note_on channel=4 note=65 velocity=112 time=0
EXTRACT: note_on channel=0 note=77 velocity=0 time=0.49895833333333334
EXTRACT: note_on channel=2 note=74 velocity=0 time=0
EXTRACT: note_on channel=4 note=65 velocity=0 time=0
EXTRACT: note_on channel=0 note=74 velocity=112 time=0.0010416666666666667
EXTRACT: note_on channel=2 note=70 velocity=112 time=0
EXTRACT: note_on channel=4 note=62 velocity=112 time=0
EXTRACT: note_on channel=8 note=60 velocity=0 time=0.49895833333333334
EXTRACT: note_on channel=10 note=53 velocity=0 time=0
EXTRACT: note_on channel=11 note=48 velocity=0 time=0
EXTRACT: note_on channel=12 note=41 velocity=0 time=0
EXTRACT: note_on channel=8 note=62 velocity=112 time=0.0010416666666666667
EXTRACT: note_on channel=10 note=55 velocity=112 time=0
EXTRACT: note_on channel=11 note=50 velocity=112 time=0
EXTRACT: note_on channel=12 note=43 velocity=112 time=0
EXTRACT: note_on channel=0 note=74 velocity=0 time=0.24895833333333334
EXTRACT: note_on channel=2 note=70 velocity=0 time=0
EXTRACT: note_on channel=4 note=62 velocity=0 time=0
EXTRACT: note_on channel=0 note=72 velocity=112 time=0.0010416666666666667
EXTRACT: note_on channel=2 note=69 velocity=112 time=0
EXTRACT: note_on channel=4 note=60 velocity=112 time=0
EXTRACT: note_on channel=0 note=72 velocity=0 time=0.24895833333333334
EXTRACT: note_on channel=2 note=69 velocity=0 time=0
EXTRACT: note_on channel=4 note=60 velocity=0 time=0
EXTRACT: note_on channel=0 note=70 velocity=112 time=0.0010416666666666667
EXTRACT: note_on channel=2 note=65 velocity=112 time=0
EXTRACT: note_on channel=4 note=58 velocity=112 time=0
EXTRACT: note_on channel=8 note=62 velocity=0 time=0.49895833333333334
EXTRACT: note_on channel=10 note=55 velocity=0 time=0
EXTRACT: note_on channel=11 note=50 velocity=0 time=0
EXTRACT: note_on channel=12 note=43 velocity=0 time=0
EXTRACT: note_on channel=8 note=60 velocity=112 time=0.0010416666666666667
EXTRACT: note_on channel=10 note=53 velocity=112 time=0
EXTRACT: note_on channel=11 note=48 velocity=112 time=0
EXTRACT: note_on channel=12 note=41 velocity=112 time=0
EXTRACT: note_on channel=0 note=70 velocity=0 time=0.24895833333333334
EXTRACT: note_on channel=2 note=65 velocity=0 time=0
EXTRACT: note_on channel=4 note=58 velocity=0 time=0
EXTRACT: note_on channel=0 note=72 velocity=112 time=0.0010416666666666667
EXTRACT: note_on channel=2 note=67 velocity=112 time=0
EXTRACT: note_on channel=4 note=60 velocity=112 time=0
EXTRACT: note_on channel=0 note=72 velocity=0 time=0.24895833333333334
EXTRACT: note_on channel=2 note=67 velocity=0 time=0
EXTRACT: note_on channel=4 note=60 velocity=0 time=0
EXTRACT: note_on channel=0 note=74 velocity=112 time=0.0010416666666666667
EXTRACT: note_on channel=2 note=70 velocity=112 time=0
EXTRACT: note_on channel=4 note=62 velocity=112 time=0
EXTRACT: note_on channel=0 note=74 velocity=0 time=0.24895833333333334
EXTRACT: note_on channel=2 note=70 velocity=0 time=0
EXTRACT: note_on channel=4 note=62 velocity=0 time=0
EXTRACT: note_on channel=0 note=75 velocity=112 time=0.0010416666666666667
EXTRACT: note_on channel=2 note=72 velocity=112 time=0
EXTRACT: note_on channel=4 note=63 velocity=112 time=0
EXTRACT: note_on channel=0 note=75 velocity=0 time=0.24895833333333334
EXTRACT: note_on channel=2 note=72 velocity=0 time=0
EXTRACT: note_on channel=4 note=63 velocity=0 time=0
EXTRACT: note_on channel=8 note=60 velocity=0 time=0
EXTRACT: note_on channel=10 note=53 velocity=0 time=0
EXTRACT: note_on channel=11 note=48 velocity=0 time=0
EXTRACT: note_on channel=12 note=41 velocity=0 time=0
EXTRACT: note_on channel=0 note=74 velocity=112 time=0.0010416666666666667
EXTRACT: note_on channel=2 note=70 velocity=112 time=0
EXTRACT: note_on channel=4 note=62 velocity=112 time=0
EXTRACT: note_on channel=8 note=62 velocity=112 time=0
EXTRACT: note_on channel=10 note=55 velocity=112 time=0
EXTRACT: note_on channel=11 note=50 velocity=112 time=0
EXTRACT: note_on channel=12 note=43 velocity=112 time=0
EXTRACT: note_on channel=8 note=62 velocity=0 time=0.9989583333333333
EXTRACT: note_on channel=10 note=55 velocity=0 time=0
EXTRACT: note_on channel=11 note=50 velocity=0 time=0
EXTRACT: note_on channel=12 note=43 velocity=0 time=0
EXTRACT: note_on channel=6 note=77 velocity=127 time=0.0010416666666666667
EXTRACT: note_on channel=7 note=74 velocity=127 time=0
EXTRACT: note_on channel=8 note=57 velocity=112 time=0
EXTRACT: note_on channel=10 note=50 velocity=112 time=0
EXTRACT: note_on channel=11 note=45 velocity=112 time=0
EXTRACT: note_on channel=12 note=38 velocity=112 time=0
EXTRACT: note_on channel=0 note=74 velocity=0 time=0.9989583333333333
EXTRACT: note_on channel=2 note=70 velocity=0 time=0
EXTRACT: note_on channel=4 note=62 velocity=0 time=0
EXTRACT: note_on channel=8 note=57 velocity=0 time=0
EXTRACT: note_on channel=10 note=50 velocity=0 time=0
EXTRACT: note_on channel=11 note=45 velocity=0 time=0
EXTRACT: note_on channel=12 note=38 velocity=0 time=0
EXTRACT: note_on channel=8 note=58 velocity=112 time=0.0010416666666666667
EXTRACT: note_on channel=10 note=51 velocity=112 time=0
EXTRACT: note_on channel=11 note=46 velocity=112 time=0
EXTRACT: note_on channel=12 note=39 velocity=112 time=0
EXTRACT: note_on channel=6 note=77 velocity=0 time=0.49895833333333334
EXTRACT: note_on channel=7 note=74 velocity=0 time=0
EXTRACT: note_on channel=6 note=74 velocity=126 time=0.0010416666666666667
EXTRACT: note_on channel=7 note=74 velocity=126 time=0
EXTRACT: note_on channel=0 note=77 velocity=112 time=0.5
EXTRACT: note_on channel=2 note=74 velocity=112 time=0
EXTRACT: note_on channel=4 note=65 velocity=112 time=0
EXTRACT: note_on channel=0 note=77 velocity=0 time=0.24895833333333334
EXTRACT: note_on channel=2 note=74 velocity=0 time=0
EXTRACT: note_on channel=4 note=65 velocity=0 time=0
EXTRACT: note_on channel=0 note=79 velocity=112 time=0.0010416666666666667
EXTRACT: note_on channel=2 note=75 velocity=112 time=0
EXTRACT: note_on channel=4 note=67 velocity=112 time=0
EXTRACT: note_on channel=0 note=79 velocity=0 time=0.24895833333333334
EXTRACT: note_on channel=2 note=75 velocity=0 time=0
EXTRACT: note_on channel=4 note=67 velocity=0 time=0
EXTRACT: note_on channel=0 note=77 velocity=112 time=0.0010416666666666667
EXTRACT: note_on channel=2 note=74 velocity=112 time=0
EXTRACT: note_on channel=4 note=65 velocity=112 time=0
EXTRACT: note_on channel=0 note=77 velocity=0 time=0.49895833333333334
EXTRACT: note_on channel=2 note=74 velocity=0 time=0
EXTRACT: note_on channel=4 note=65 velocity=0 time=0
EXTRACT: note_on channel=8 note=58 velocity=0 time=0
EXTRACT: note_on channel=10 note=51 velocity=0 time=0
EXTRACT: note_on channel=11 note=46 velocity=0 time=0
EXTRACT: note_on channel=12 note=39 velocity=0 time=0
EXTRACT: note_on channel=0 note=77 velocity=112 time=0.0010416666666666667
EXTRACT: note_on channel=2 note=74 velocity=112 time=0
EXTRACT: note_on channel=4 note=65 velocity=112 time=0
EXTRACT: note_on channel=8 note=60 velocity=112 time=0
EXTRACT: note_on channel=10 note=53 velocity=112 time=0
EXTRACT: note_on channel=11 note=48 velocity=112 time=0
EXTRACT: note_on channel=12 note=41 velocity=112 time=0
EXTRACT: note_on channel=0 note=77 velocity=0 time=0.24895833333333334
EXTRACT: note_on channel=2 note=74 velocity=0 time=0
EXTRACT: note_on channel=4 note=65 velocity=0 time=0
EXTRACT: note_on channel=0 note=79 velocity=112 time=0.0010416666666666667
EXTRACT: note_on channel=2 note=75 velocity=112 time=0
EXTRACT: note_on channel=4 note=67 velocity=112 time=0
EXTRACT: note_on channel=0 note=79 velocity=0 time=0.24895833333333334
EXTRACT: note_on channel=2 note=75 velocity=0 time=0
EXTRACT: note_on channel=4 note=67 velocity=0 time=0
EXTRACT: note_on channel=0 note=77 velocity=112 time=0.0010416666666666667
EXTRACT: note_on channel=2 note=74 velocity=112 time=0
EXTRACT: note_on channel=4 note=65 velocity=112 time=0
EXTRACT: note_on channel=0 note=77 velocity=0 time=0.49895833333333334
EXTRACT: note_on channel=2 note=74 velocity=0 time=0
EXTRACT: note_on channel=4 note=65 velocity=0 time=0
EXTRACT: note_on channel=0 note=77 velocity=112 time=0.0010416666666666667
EXTRACT: note_on channel=2 note=74 velocity=112 time=0
EXTRACT: note_on channel=4 note=65 velocity=112 time=0
EXTRACT: note_on channel=0 note=77 velocity=0 time=0.49895833333333334
EXTRACT: note_on channel=2 note=74 velocity=0 time=0
EXTRACT: note_on channel=4 note=65 velocity=0 time=0
EXTRACT: note_on channel=6 note=74 velocity=0 time=0
EXTRACT: note_on channel=7 note=74 velocity=0 time=0
EXTRACT: note_on channel=8 note=60 velocity=0 time=0
EXTRACT: note_on channel=10 note=53 velocity=0 time=0
EXTRACT: note_on channel=11 note=48 velocity=0 time=0
EXTRACT: note_on channel=12 note=41 velocity=0 time=0
EXTRACT: note_on channel=0 note=74 velocity=112 time=0.0010416666666666667
EXTRACT: note_on channel=2 note=70 velocity=112 time=0
EXTRACT: note_on channel=4 note=62 velocity=112 time=0
EXTRACT: note_on channel=6 note=70 velocity=126 time=1.0
EXTRACT: note_on channel=0 note=74 velocity=0 time=0.49895833333333334
EXTRACT: note_on channel=2 note=70 velocity=0 time=0
EXTRACT: note_on channel=4 note=62 velocity=0 time=0
EXTRACT: note_on channel=6 note=70 velocity=0 time=0
EXTRACT: note_on channel=0 note=77 velocity=112 time=0.0010416666666666667
EXTRACT: note_on channel=2 note=74 velocity=112 time=0
EXTRACT: note_on channel=4 note=65 velocity=112 time=0
EXTRACT: note_on channel=6 note=74 velocity=126 time=0
EXTRACT: note_on channel=6 note=74 velocity=0 time=0.49895833333333334
EXTRACT: note_on channel=6 note=75 velocity=126 time=0.0010416666666666667
EXTRACT: note_on channel=0 note=77 velocity=0 time=0.24895833333333334
EXTRACT: note_on channel=2 note=74 velocity=0 time=0
EXTRACT: note_on channel=4 note=65 velocity=0 time=0
EXTRACT: note_on channel=0 note=79 velocity=112 time=0.0010416666666666667
EXTRACT: note_on channel=2 note=74 velocity=112 time=0
EXTRACT: note_on channel=4 note=67 velocity=112 time=0
EXTRACT: note_on channel=6 note=75 velocity=0 time=0.24895833333333334
EXTRACT: note_on channel=6 note=74 velocity=126 time=0.0010416666666666667
EXTRACT: note_on channel=6 note=77 velocity=126 time=0
EXTRACT: note_on channel=7 note=70 velocity=126 time=1.0
EXTRACT: note_on channel=7 note=70 velocity=0 time=0.9989583333333333
EXTRACT: note_on channel=7 note=67 velocity=126 time=0.0010416666666666667
EXTRACT: note_on channel=8 note=58 velocity=112 time=0
EXTRACT: note_on channel=10 note=51 velocity=112 time=0
EXTRACT: note_on channel=11 note=46 velocity=112 time=0
EXTRACT: note_on channel=12 note=39 velocity=112 time=0
EXTRACT: note_on channel=0 note=79 velocity=0 time=3.9989583333333334
EXTRACT: note_on channel=2 note=74 velocity=0 time=0
EXTRACT: note_on channel=4 note=67 velocity=0 time=0
EXTRACT: note_on channel=6 note=74 velocity=0 time=0
EXTRACT: note_on channel=6 note=77 velocity=0 time=0
EXTRACT: note_on channel=7 note=67 velocity=0 time=0
EXTRACT: note_on channel=8 note=58 velocity=0 time=0
EXTRACT: note_on channel=10 note=51 velocity=0 time=0
EXTRACT: note_on channel=11 note=46 velocity=0 time=0
EXTRACT: note_on channel=12 note=39 velocity=0 time=0
EXTRACT: note_on channel=0 note=77 velocity=112 time=0
EXTRACT: note_on channel=2 note=72 velocity=112 time=0
EXTRACT: note_on channel=4 note=65 velocity=112 time=0
EXTRACT: note_on channel=6 note=72 velocity=126 time=0
EXTRACT: note_on channel=6 note=77 velocity=126 time=0
EXTRACT: note_on channel=7 note=69 velocity=126 time=0
EXTRACT: note_on channel=8 note=60 velocity=112 time=0
EXTRACT: note_on channel=10 note=53 velocity=112 time=0
EXTRACT: note_on channel=11 note=48 velocity=112 time=0
EXTRACT: note_on channel=12 note=41 velocity=112 time=0
EXTRACT: note_on channel=0 note=77 velocity=0 time=7.997916666666667
EXTRACT: note_on channel=2 note=72 velocity=0 time=0
EXTRACT: note_on channel=4 note=65 velocity=0 time=0
EXTRACT: note_on channel=6 note=72 velocity=0 time=0
EXTRACT: note_on channel=6 note=77 velocity=0 time=0
EXTRACT: note_on channel=7 note=69 velocity=0 time=0
EXTRACT: note_on channel=8 note=60 velocity=0 time=0
EXTRACT: note_on channel=10 note=53 velocity=0 time=0
EXTRACT: note_on channel=11 note=48 velocity=0 time=0
EXTRACT: note_on channel=12 note=41 velocity=0 time=0
EXTRACT: note_on channel=8 note=51 velocity=64 time=0
EXTRACT: note_on channel=10 note=46 velocity=64 time=0
EXTRACT: note_on channel=11 note=43 velocity=64 time=0
EXTRACT: note_on channel=12 note=39 velocity=64 time=0
EXTRACT: note_on channel=0 note=58 velocity=80 time=0.8999984999999999
EXTRACT: note_on channel=0 note=58 velocity=0 time=0.2987495020833333
EXTRACT: note_on channel=0 note=65 velocity=80 time=0.0012499979166666665
EXTRACT: note_on channel=0 note=65 velocity=0 time=0.2987495020833333
EXTRACT: note_on channel=0 note=67 velocity=80 time=0.0012499979166666665
EXTRACT: note_on channel=0 note=67 velocity=0 time=0.2987495020833333
EXTRACT: note_on channel=0 note=65 velocity=80 time=0.0012499979166666665
EXTRACT: note_on channel=0 note=65 velocity=0 time=0.5987490020833333
EXTRACT: note_on channel=8 note=51 velocity=0 time=0
EXTRACT: note_on channel=10 note=46 velocity=0 time=0
EXTRACT: note_on channel=11 note=43 velocity=0 time=0
EXTRACT: note_on channel=12 note=39 velocity=0 time=0
EXTRACT: note_on channel=0 note=65 velocity=80 time=0.0012499979166666665
EXTRACT: note_on channel=8 note=53 velocity=64 time=0
EXTRACT: note_on channel=10 note=48 velocity=64 time=0
EXTRACT: note_on channel=11 note=45 velocity=64 time=0
EXTRACT: note_on channel=12 note=41 velocity=64 time=0
EXTRACT: note_on channel=0 note=65 velocity=0 time=0.2987495020833333
EXTRACT: note_on channel=0 note=67 velocity=80 time=0.0012499979166666665
EXTRACT: note_on channel=0 note=67 velocity=0 time=0.2987495020833333
EXTRACT: note_on channel=0 note=65 velocity=80 time=0.0012499979166666665
EXTRACT: note_on channel=0 note=65 velocity=0 time=0.5987490020833333
EXTRACT: note_on channel=0 note=65 velocity=80 time=0.0012499979166666665
EXTRACT: note_on channel=0 note=65 velocity=0 time=0.5987490020833333
EXTRACT: note_on channel=0 note=62 velocity=80 time=0.0012499979166666665
EXTRACT: note_on channel=0 note=62 velocity=0 time=1.1987480020833332
EXTRACT: note_on channel=8 note=53 velocity=0 time=0
EXTRACT: note_on channel=10 note=48 velocity=0 time=0
EXTRACT: note_on channel=11 note=45 velocity=0 time=0
EXTRACT: note_on channel=12 note=41 velocity=0 time=0
EXTRACT: note_on channel=0 note=58 velocity=80 time=0.6012489979166665
EXTRACT: note_on channel=6 note=62 velocity=64 time=0
EXTRACT: note_on channel=7 note=58 velocity=64 time=0
EXTRACT: note_on channel=0 note=58 velocity=0 time=0.2987495020833333
EXTRACT: note_on channel=6 note=62 velocity=0 time=0
EXTRACT: note_on channel=7 note=58 velocity=0 time=0
EXTRACT: note_on channel=0 note=60 velocity=80 time=0.0012499979166666665
EXTRACT: note_on channel=6 note=63 velocity=64 time=0
EXTRACT: note_on channel=7 note=60 velocity=64 time=0
EXTRACT: note_on channel=0 note=60 velocity=0 time=0.2987495020833333
EXTRACT: note_on channel=6 note=63 velocity=0 time=0
EXTRACT: note_on channel=7 note=60 velocity=0 time=0
EXTRACT: note_on channel=0 note=62 velocity=80 time=0.0012499979166666665
EXTRACT: note_on channel=6 note=65 velocity=64 time=0
EXTRACT: note_on channel=7 note=62 velocity=64 time=0
EXTRACT: note_on channel=0 note=62 velocity=0 time=0.2987495020833333
EXTRACT: note_on channel=6 note=65 velocity=0 time=0
EXTRACT: note_on channel=7 note=62 velocity=0 time=0
EXTRACT: note_on channel=0 note=63 velocity=80 time=0.0012499979166666665
EXTRACT: note_on channel=6 note=67 velocity=64 time=0
EXTRACT: note_on channel=7 note=63 velocity=64 time=0
EXTRACT: note_on channel=0 note=63 velocity=0 time=0.2987495020833333
EXTRACT: note_on channel=6 note=67 velocity=0 time=0
EXTRACT: note_on channel=7 note=63 velocity=0 time=0
EXTRACT: note_on channel=0 note=62 velocity=80 time=0.0012499979166666665
EXTRACT: note_on channel=6 note=65 velocity=64 time=0
EXTRACT: note_on channel=7 note=62 velocity=64 time=0
EXTRACT: note_on channel=0 note=62 velocity=0 time=0.8987485020833332
EXTRACT: note_on channel=6 note=65 velocity=0 time=0
EXTRACT: note_on channel=7 note=62 velocity=0 time=0
EXTRACT: note_on channel=0 note=60 velocity=80 time=0.3012494979166666
EXTRACT: note_on channel=6 note=63 velocity=64 time=0
EXTRACT: note_on channel=7 note=60 velocity=64 time=0
EXTRACT: note_on channel=0 note=60 velocity=0 time=0.5987490020833333
EXTRACT: note_on channel=6 note=63 velocity=0 time=0
EXTRACT: note_on channel=7 note=60 velocity=0 time=0
EXTRACT: note_on channel=0 note=58 velocity=80 time=0.3012494979166666
EXTRACT: note_on channel=6 note=62 velocity=64 time=0
EXTRACT: note_on channel=7 note=58 velocity=64 time=0
EXTRACT: note_on channel=8 note=53 velocity=64 time=0.2999995
EXTRACT: note_on channel=8 note=58 velocity=64 time=0
EXTRACT: note_on channel=10 note=50 velocity=64 time=0
EXTRACT: note_on channel=11 note=46 velocity=64 time=0
EXTRACT: note_on channel=0 note=58 velocity=0 time=2.398746002083333
EXTRACT: note_on channel=12 note=34 velocity=96 time=0.0012499979166666665
EXTRACT: note_on channel=6 note=62 velocity=0 time=4.7987420020833325
EXTRACT: note_on channel=7 note=58 velocity=0 time=0
EXTRACT: note_on channel=8 note=53 velocity=0 time=0
EXTRACT: note_on channel=8 note=58 velocity=0 time=0
EXTRACT: note_on channel=10 note=50 velocity=0 time=0
EXTRACT: note_on channel=11 note=46 velocity=0 time=0
EXTRACT: note_on channel=12 note=34 velocity=0 time=0
MUSIC041 - Birdy Not About Angels Lyrics.mid
INTERVALS041 - Birdy Not About Angels Lyrics.mid
unison185
2m22
2M50
3m5
3M14
4m4
4M0
5m9
5M16
6m33
7m4
7M3
