EXTRACT: control_change channel=0 control=121 value=0 time=0
EXTRACT: program_change channel=0 program=52 time=0
EXTRACT: control_change channel=0 control=7 value=99 time=0
EXTRACT: control_change channel=0 control=10 value=64 time=0
EXTRACT: control_change channel=0 control=91 value=0 time=0
EXTRACT: control_change channel=0 control=93 value=0 time=0
EXTRACT: control_change channel=1 control=121 value=0 time=0
EXTRACT: program_change channel=1 program=0 time=0
EXTRACT: control_change channel=1 control=7 value=100 time=0
EXTRACT: control_change channel=1 control=10 value=64 time=0
EXTRACT: control_change channel=1 control=91 value=0 time=0
EXTRACT: control_change channel=1 control=93 value=0 time=0
EXTRACT: note_on channel=1 note=47 velocity=80 time=0
EXTRACT: note_on channel=1 note=47 velocity=0 time=0.3278842875
EXTRACT: note_on channel=1 note=54 velocity=80 time=0.0182692125
EXTRACT: note_on channel=1 note=54 velocity=0 time=0.3278842875
EXTRACT: note_on channel=1 note=59 velocity=80 time=0.0182692125
EXTRACT: note_on channel=1 note=59 velocity=0 time=0.2182690125
EXTRACT: note_on channel=1 note=42 velocity=80 time=0.9355759875
EXTRACT: note_on channel=1 note=42 velocity=0 time=0.3278842875
EXTRACT: note_on channel=1 note=49 velocity=80 time=0.0182692125
EXTRACT: note_on channel=1 note=49 velocity=0 time=0.3278842875
EXTRACT: note_on channel=1 note=61 velocity=80 time=0.0182692125
EXTRACT: note_on channel=1 note=61 velocity=0 time=0.2182690125
EXTRACT: note_on channel=1 note=44 velocity=80 time=0.9355759875
EXTRACT: note_on channel=1 note=44 velocity=0 time=0.3278842875
EXTRACT: note_on channel=1 note=51 velocity=80 time=0.0182692125
EXTRACT: note_on channel=1 note=51 velocity=0 time=0.3278842875
EXTRACT: note_on channel=1 note=59 velocity=80 time=0.0182692125
EXTRACT: note_on channel=1 note=59 velocity=0 time=0.2182690125
EXTRACT: note_on channel=1 note=49 velocity=80 time=0.7048069875
EXTRACT: note_on channel=1 note=49 velocity=0 time=0.2182690125
EXTRACT: note_on channel=1 note=52 velocity=80 time=0.0124999875
EXTRACT: note_on channel=1 note=52 velocity=0 time=0.3278842875
EXTRACT: note_on channel=1 note=52 velocity=80 time=0.0182692125
EXTRACT: note_on channel=1 note=52 velocity=0 time=0.3278842875
EXTRACT: note_on channel=1 note=52 velocity=80 time=0.0182692125
EXTRACT: note_on channel=1 note=52 velocity=0 time=0.2182690125
EXTRACT: note_on channel=1 note=51 velocity=80 time=0.0124999875
EXTRACT: note_on channel=1 note=51 velocity=0 time=0.4374995625
EXTRACT: note_on channel=1 note=49 velocity=80 time=0.0240384375
EXTRACT: note_on channel=1 note=49 velocity=0 time=0.4374995625
EXTRACT: note_on channel=1 note=47 velocity=80 time=0.0240384375
EXTRACT: note_on channel=1 note=47 velocity=0 time=0.3278842875
EXTRACT: note_on channel=1 note=54 velocity=80 time=0.0182692125
EXTRACT: note_on channel=1 note=54 velocity=0 time=0.3278842875
EXTRACT: note_on channel=1 note=59 velocity=80 time=0.0182692125
EXTRACT: note_on channel=1 note=59 velocity=0 time=0.2182690125
EXTRACT: note_on channel=1 note=42 velocity=80 time=0.9355759875
EXTRACT: note_on channel=1 note=42 velocity=0 time=0.3278842875
EXTRACT: note_on channel=1 note=49 velocity=80 time=0.0182692125
EXTRACT: note_on channel=1 note=49 velocity=0 time=0.3278842875
EXTRACT: note_on channel=1 note=61 velocity=80 time=0.0182692125
EXTRACT: note_on channel=1 note=61 velocity=0 time=0.2182690125
EXTRACT: note_on channel=1 note=44 velocity=80 time=0.9355759875
EXTRACT: note_on channel=1 note=44 velocity=0 time=0.3278842875
EXTRACT: note_on channel=1 note=51 velocity=80 time=0.0182692125
EXTRACT: note_on channel=1 note=51 velocity=0 time=0.3278842875
EXTRACT: note_on channel=1 note=59 velocity=80 time=0.0182692125
EXTRACT: note_on channel=1 note=59 velocity=0 time=0.2182690125
EXTRACT: note_on channel=1 note=49 velocity=80 time=0.7048069875
EXTRACT: note_on channel=1 note=49 velocity=0 time=0.2182690125
EXTRACT: note_on channel=1 note=52 velocity=80 time=0.0124999875
EXTRACT: note_on channel=1 note=52 velocity=0 time=0.3278842875
EXTRACT: note_on channel=1 note=52 velocity=80 time=0.0182692125
EXTRACT: note_on channel=1 note=52 velocity=0 time=0.3278842875
EXTRACT: note_on channel=1 note=52 velocity=80 time=0.0182692125
EXTRACT: note_on channel=1 note=52 velocity=0 time=0.2182690125
EXTRACT: note_on channel=1 note=51 velocity=80 time=0.0124999875
EXTRACT: note_on channel=1 note=51 velocity=0 time=0.4374995625
EXTRACT: note_on channel=1 note=49 velocity=80 time=0.0240384375
EXTRACT: note_on channel=1 note=49 velocity=0 time=0.4374995625
EXTRACT: note_on channel=0 note=63 velocity=80 time=0.0240384375
EXTRACT: note_on channel=1 note=59 velocity=80 time=0
EXTRACT: note_on channel=1 note=66 velocity=80 time=0
EXTRACT: note_on channel=1 note=47 velocity=80 time=0
EXTRACT: note_on channel=1 note=54 velocity=80 time=0
EXTRACT: note_on channel=0 note=63 velocity=0 time=0.3451919625
EXTRACT: note_on channel=0 note=63 velocity=80 time=0.0009615375
EXTRACT: note_on channel=0 note=63 velocity=0 time=0.3451919625
EXTRACT: note_on channel=0 note=63 velocity=80 time=0.0009615375
EXTRACT: note_on channel=0 note=63 velocity=0 time=0.2298074625
EXTRACT: note_on channel=0 note=63 velocity=80 time=0.0009615375
EXTRACT: note_on channel=0 note=63 velocity=0 time=0.3451919625
EXTRACT: note_on channel=0 note=61 velocity=80 time=0.0009615375
EXTRACT: note_on channel=0 note=61 velocity=0 time=0.3451919625
EXTRACT: note_on channel=0 note=59 velocity=80 time=0.0009615375
EXTRACT: note_on channel=1 note=59 velocity=0 time=0.1374998625
EXTRACT: note_on channel=1 note=66 velocity=0 time=0
EXTRACT: note_on channel=1 note=47 velocity=0 time=0
EXTRACT: note_on channel=1 note=54 velocity=0 time=0
EXTRACT: note_on channel=0 note=59 velocity=0 time=0.0923076
EXTRACT: note_on channel=0 note=61 velocity=80 time=0.0009615375
EXTRACT: note_on channel=1 note=59 velocity=80 time=0
EXTRACT: note_on channel=1 note=66 velocity=80 time=0
EXTRACT: note_on channel=1 note=47 velocity=80 time=0
EXTRACT: note_on channel=1 note=54 velocity=80 time=0
EXTRACT: note_on channel=0 note=61 velocity=0 time=0.4605764625
EXTRACT: note_on channel=0 note=61 velocity=80 time=0.0009615375
EXTRACT: note_on channel=0 note=61 velocity=0 time=0.4605764625
EXTRACT: note_on channel=0 note=59 velocity=80 time=0.6932685375
EXTRACT: note_on channel=1 note=59 velocity=0 time=0.1374998625
EXTRACT: note_on channel=1 note=66 velocity=0 time=0
EXTRACT: note_on channel=1 note=47 velocity=0 time=0
EXTRACT: note_on channel=1 note=54 velocity=0 time=0
EXTRACT: note_on channel=0 note=59 velocity=0 time=0.0923076
EXTRACT: note_on channel=0 note=63 velocity=80 time=0.0009615375
EXTRACT: note_on channel=1 note=56 velocity=80 time=0
EXTRACT: note_on channel=1 note=63 velocity=80 time=0
EXTRACT: note_on channel=1 note=44 velocity=80 time=0
EXTRACT: note_on channel=1 note=51 velocity=80 time=0
EXTRACT: note_on channel=0 note=63 velocity=0 time=0.3451919625
EXTRACT: note_on channel=0 note=63 velocity=80 time=0.0009615375
EXTRACT: note_on channel=0 note=63 velocity=0 time=0.3451919625
EXTRACT: note_on channel=0 note=63 velocity=80 time=0.0009615375
EXTRACT: note_on channel=0 note=63 velocity=0 time=0.2298074625
EXTRACT: note_on channel=0 note=63 velocity=80 time=0.0009615375
EXTRACT: note_on channel=0 note=63 velocity=0 time=0.3451919625
EXTRACT: note_on channel=0 note=61 velocity=80 time=0.0009615375
EXTRACT: note_on channel=0 note=61 velocity=0 time=0.3451919625
EXTRACT: note_on channel=0 note=59 velocity=80 time=0.0009615375
EXTRACT: note_on channel=1 note=56 velocity=0 time=0.1374998625
EXTRACT: note_on channel=1 note=63 velocity=0 time=0
EXTRACT: note_on channel=1 note=44 velocity=0 time=0
EXTRACT: note_on channel=1 note=51 velocity=0 time=0
EXTRACT: note_on channel=0 note=59 velocity=0 time=0.0923076
EXTRACT: note_on channel=0 note=61 velocity=80 time=0.0009615375
EXTRACT: note_on channel=1 note=56 velocity=80 time=0
EXTRACT: note_on channel=1 note=63 velocity=80 time=0
EXTRACT: note_on channel=1 note=44 velocity=80 time=0
EXTRACT: note_on channel=1 note=51 velocity=80 time=0
EXTRACT: note_on channel=0 note=61 velocity=0 time=0.9221144625
EXTRACT: note_on channel=0 note=59 velocity=80 time=0.6932685375
EXTRACT: note_on channel=1 note=56 velocity=0 time=0.1374998625
EXTRACT: note_on channel=1 note=63 velocity=0 time=0
EXTRACT: note_on channel=1 note=44 velocity=0 time=0
EXTRACT: note_on channel=1 note=51 velocity=0 time=0
EXTRACT: note_on channel=0 note=59 velocity=0 time=0.0923076
EXTRACT: note_on channel=0 note=63 velocity=80 time=0.0009615375
EXTRACT: note_on channel=1 note=59 velocity=80 time=0
EXTRACT: note_on channel=1 note=66 velocity=80 time=0
EXTRACT: note_on channel=1 note=47 velocity=80 time=0
EXTRACT: note_on channel=1 note=54 velocity=80 time=0
EXTRACT: note_on channel=0 note=63 velocity=0 time=0.3451919625
EXTRACT: note_on channel=0 note=63 velocity=80 time=0.0009615375
EXTRACT: note_on channel=0 note=63 velocity=0 time=0.3451919625
EXTRACT: note_on channel=0 note=63 velocity=80 time=0.0009615375
EXTRACT: note_on channel=0 note=63 velocity=0 time=0.2298074625
EXTRACT: note_on channel=0 note=66 velocity=80 time=0.0009615375
EXTRACT: note_on channel=0 note=66 velocity=0 time=0.3451919625
EXTRACT: note_on channel=0 note=61 velocity=80 time=0.0009615375
EXTRACT: note_on channel=0 note=61 velocity=0 time=0.3451919625
EXTRACT: note_on channel=0 note=59 velocity=80 time=0.0009615375
EXTRACT: note_on channel=1 note=59 velocity=0 time=0.1374998625
EXTRACT: note_on channel=1 note=66 velocity=0 time=0
EXTRACT: note_on channel=1 note=47 velocity=0 time=0
EXTRACT: note_on channel=1 note=54 velocity=0 time=0
EXTRACT: note_on channel=0 note=59 velocity=0 time=0.0923076
EXTRACT: note_on channel=0 note=61 velocity=80 time=0.0009615375
EXTRACT: note_on channel=1 note=54 velocity=80 time=0
EXTRACT: note_on channel=1 note=61 velocity=80 time=0
EXTRACT: note_on channel=1 note=42 velocity=80 time=0
EXTRACT: note_on channel=1 note=49 velocity=80 time=0
EXTRACT: note_on channel=0 note=61 velocity=0 time=0.4605764625
EXTRACT: note_on channel=0 note=61 velocity=80 time=0.0009615375
EXTRACT: note_on channel=0 note=61 velocity=0 time=0.4605764625
EXTRACT: note_on channel=0 note=59 velocity=80 time=0.6932685375
EXTRACT: note_on channel=1 note=54 velocity=0 time=0.1374998625
EXTRACT: note_on channel=1 note=61 velocity=0 time=0
EXTRACT: note_on channel=1 note=42 velocity=0 time=0
EXTRACT: note_on channel=1 note=49 velocity=0 time=0
EXTRACT: note_on channel=0 note=59 velocity=0 time=0.0923076
EXTRACT: note_on channel=0 note=63 velocity=80 time=0.0009615375
EXTRACT: note_on channel=1 note=56 velocity=80 time=0
EXTRACT: note_on channel=1 note=63 velocity=80 time=0
EXTRACT: note_on channel=1 note=44 velocity=80 time=0
EXTRACT: note_on channel=1 note=51 velocity=80 time=0
EXTRACT: note_on channel=0 note=63 velocity=0 time=0.3451919625
EXTRACT: note_on channel=0 note=63 velocity=80 time=0.0009615375
EXTRACT: note_on channel=0 note=63 velocity=0 time=0.3451919625
EXTRACT: note_on channel=0 note=63 velocity=80 time=0.0009615375
EXTRACT: note_on channel=0 note=63 velocity=0 time=0.2298074625
EXTRACT: note_on channel=0 note=63 velocity=80 time=0.0009615375
EXTRACT: note_on channel=0 note=63 velocity=0 time=0.3451919625
EXTRACT: note_on channel=0 note=61 velocity=80 time=0.0009615375
EXTRACT: note_on channel=0 note=61 velocity=0 time=0.3451919625
EXTRACT: note_on channel=0 note=59 velocity=80 time=0.0009615375
EXTRACT: note_on channel=1 note=56 velocity=0 time=0.1374998625
EXTRACT: note_on channel=1 note=63 velocity=0 time=0
EXTRACT: note_on channel=1 note=44 velocity=0 time=0
EXTRACT: note_on channel=1 note=51 velocity=0 time=0
EXTRACT: note_on channel=0 note=59 velocity=0 time=0.0923076
EXTRACT: note_on channel=0 note=56 velocity=80 time=0.0009615375
EXTRACT: note_on channel=1 note=52 velocity=80 time=0
EXTRACT: note_on channel=1 note=59 velocity=80 time=0
EXTRACT: note_on channel=1 note=40 velocity=80 time=0
EXTRACT: note_on channel=1 note=47 velocity=80 time=0
EXTRACT: note_on channel=0 note=56 velocity=0 time=0.6913454625
EXTRACT: note_on channel=0 note=54 velocity=80 time=0.0009615375
EXTRACT: note_on channel=0 note=54 velocity=0 time=0.2298074625
EXTRACT: note_on channel=0 note=59 velocity=80 time=0.0009615375
EXTRACT: note_on channel=0 note=59 velocity=0 time=0.2298074625
EXTRACT: note_on channel=0 note=61 velocity=80 time=0.0009615375
EXTRACT: note_on channel=0 note=61 velocity=0 time=0.2298074625
EXTRACT: note_on channel=0 note=63 velocity=80 time=0.0009615375
EXTRACT: note_on channel=0 note=63 velocity=0 time=0.2298074625
EXTRACT: note_on channel=0 note=63 velocity=80 time=0.0009615375
EXTRACT: note_on channel=1 note=52 velocity=0 time=0.1374998625
EXTRACT: note_on channel=1 note=59 velocity=0 time=0
EXTRACT: note_on channel=1 note=40 velocity=0 time=0
EXTRACT: note_on channel=1 note=47 velocity=0 time=0
EXTRACT: note_on channel=0 note=63 velocity=0 time=0.0923076
EXTRACT: note_on channel=1 note=59 velocity=80 time=0.0009615375
EXTRACT: note_on channel=1 note=66 velocity=80 time=0
EXTRACT: note_on channel=1 note=47 velocity=80 time=0
EXTRACT: note_on channel=1 note=54 velocity=80 time=0
EXTRACT: note_on channel=0 note=59 velocity=80 time=0.692307
EXTRACT: note_on channel=0 note=59 velocity=0 time=0.2298074625
EXTRACT: note_on channel=0 note=61 velocity=80 time=0.0009615375
EXTRACT: note_on channel=0 note=61 velocity=0 time=0.2298074625
EXTRACT: note_on channel=0 note=59 velocity=80 time=0.0009615375
EXTRACT: note_on channel=0 note=59 velocity=0 time=0.2298074625
EXTRACT: note_on channel=0 note=61 velocity=80 time=0.0009615375
EXTRACT: note_on channel=1 note=59 velocity=0 time=0.3682688625
EXTRACT: note_on channel=1 note=66 velocity=0 time=0
EXTRACT: note_on channel=1 note=47 velocity=0 time=0
EXTRACT: note_on channel=1 note=54 velocity=0 time=0
EXTRACT: note_on channel=0 note=61 velocity=0 time=0.0923076
EXTRACT: note_on channel=1 note=54 velocity=80 time=0.0009615375
EXTRACT: note_on channel=1 note=61 velocity=80 time=0
EXTRACT: note_on channel=1 note=42 velocity=80 time=0
EXTRACT: note_on channel=1 note=49 velocity=80 time=0
EXTRACT: note_on channel=0 note=54 velocity=80 time=0.692307
EXTRACT: note_on channel=0 note=54 velocity=0 time=0.2298074625
EXTRACT: note_on channel=0 note=59 velocity=80 time=0.0009615375
EXTRACT: note_on channel=0 note=59 velocity=0 time=0.2298074625
EXTRACT: note_on channel=0 note=61 velocity=80 time=0.0009615375
EXTRACT: note_on channel=0 note=61 velocity=0 time=0.2298074625
EXTRACT: note_on channel=0 note=63 velocity=80 time=0.0009615375
EXTRACT: note_on channel=0 note=63 velocity=0 time=0.2298074625
EXTRACT: note_on channel=0 note=63 velocity=80 time=0.0009615375
EXTRACT: note_on channel=1 note=54 velocity=0 time=0.1374998625
EXTRACT: note_on channel=1 note=61 velocity=0 time=0
EXTRACT: note_on channel=1 note=42 velocity=0 time=0
EXTRACT: note_on channel=1 note=49 velocity=0 time=0
EXTRACT: note_on channel=0 note=63 velocity=0 time=0.0923076
EXTRACT: note_on channel=1 note=56 velocity=80 time=0.0009615375
EXTRACT: note_on channel=1 note=63 velocity=80 time=0
EXTRACT: note_on channel=1 note=44 velocity=80 time=0
EXTRACT: note_on channel=1 note=51 velocity=80 time=0
EXTRACT: note_on channel=0 note=61 velocity=80 time=0.461538
EXTRACT: note_on channel=0 note=61 velocity=0 time=0.2298074625
EXTRACT: note_on channel=0 note=61 velocity=80 time=0.0009615375
EXTRACT: note_on channel=0 note=61 velocity=0 time=0.2298074625
EXTRACT: note_on channel=0 note=61 velocity=80 time=0.0009615375
EXTRACT: note_on channel=0 note=61 velocity=0 time=0.2298074625
EXTRACT: note_on channel=0 note=61 velocity=80 time=0.0009615375
EXTRACT: note_on channel=0 note=61 velocity=0 time=0.2298074625
EXTRACT: note_on channel=0 note=59 velocity=80 time=0.0009615375
EXTRACT: note_on channel=0 note=59 velocity=0 time=0.2298074625
EXTRACT: note_on channel=0 note=59 velocity=80 time=0.0009615375
EXTRACT: note_on channel=1 note=56 velocity=0 time=0.1374998625
EXTRACT: note_on channel=1 note=63 velocity=0 time=0
EXTRACT: note_on channel=1 note=44 velocity=0 time=0
EXTRACT: note_on channel=1 note=51 velocity=0 time=0
EXTRACT: note_on channel=0 note=59 velocity=0 time=0.0923076
EXTRACT: note_on channel=0 note=64 velocity=80 time=0.0009615375
EXTRACT: note_on channel=1 note=52 velocity=80 time=0
EXTRACT: note_on channel=1 note=59 velocity=80 time=0
EXTRACT: note_on channel=1 note=40 velocity=80 time=0
EXTRACT: note_on channel=1 note=47 velocity=80 time=0
EXTRACT: note_on channel=0 note=64 velocity=0 time=0.4605764625
EXTRACT: note_on channel=0 note=63 velocity=80 time=0.0009615375
EXTRACT: note_on channel=0 note=63 velocity=0 time=0.4605764625
EXTRACT: note_on channel=0 note=61 velocity=80 time=0.0009615375
EXTRACT: note_on channel=0 note=61 velocity=0 time=0.2298074625
EXTRACT: note_on channel=0 note=66 velocity=80 time=0.0009615375
EXTRACT: note_on channel=0 note=66 velocity=0 time=0.4605764625
EXTRACT: note_on channel=0 note=63 velocity=80 time=0.0009615375
EXTRACT: note_on channel=1 note=52 velocity=0 time=0.1374998625
EXTRACT: note_on channel=1 note=59 velocity=0 time=0
EXTRACT: note_on channel=1 note=40 velocity=0 time=0
EXTRACT: note_on channel=1 note=47 velocity=0 time=0
EXTRACT: note_on channel=0 note=63 velocity=0 time=0.0923076
EXTRACT: note_on channel=0 note=61 velocity=80 time=0.0009615375
EXTRACT: note_on channel=1 note=59 velocity=80 time=0
EXTRACT: note_on channel=1 note=66 velocity=80 time=0
EXTRACT: note_on channel=1 note=47 velocity=80 time=0
EXTRACT: note_on channel=1 note=54 velocity=80 time=0
EXTRACT: note_on channel=0 note=61 velocity=0 time=0.4605764625
EXTRACT: note_on channel=0 note=59 velocity=80 time=0.0009615375
EXTRACT: note_on channel=0 note=59 velocity=0 time=0.9221144625
EXTRACT: note_on channel=0 note=59 velocity=80 time=0.0009615375
EXTRACT: note_on channel=0 note=59 velocity=0 time=0.2298074625
EXTRACT: note_on channel=0 note=59 velocity=80 time=0.0009615375
EXTRACT: note_on channel=1 note=59 velocity=0 time=0.1374998625
EXTRACT: note_on channel=1 note=66 velocity=0 time=0
EXTRACT: note_on channel=1 note=47 velocity=0 time=0
EXTRACT: note_on channel=1 note=54 velocity=0 time=0
EXTRACT: note_on channel=0 note=59 velocity=0 time=0.0923076
EXTRACT: note_on channel=1 note=54 velocity=80 time=0.0009615375
EXTRACT: note_on channel=1 note=61 velocity=80 time=0
EXTRACT: note_on channel=1 note=42 velocity=80 time=0
EXTRACT: note_on channel=1 note=49 velocity=80 time=0
EXTRACT: note_on channel=0 note=66 velocity=80 time=0.230769
EXTRACT: note_on channel=0 note=66 velocity=0 time=0.4605764625
EXTRACT: note_on channel=0 note=63 velocity=80 time=0.0009615375
EXTRACT: note_on channel=0 note=63 velocity=0 time=0.2298074625
EXTRACT: note_on channel=0 note=63 velocity=80 time=0.0009615375
EXTRACT: note_on channel=0 note=63 velocity=0 time=0.3451919625
EXTRACT: note_on channel=0 note=61 velocity=80 time=0.0009615375
EXTRACT: note_on channel=0 note=61 velocity=0 time=0.3451919625
EXTRACT: note_on channel=0 note=59 velocity=80 time=0.0009615375
EXTRACT: note_on channel=1 note=54 velocity=0 time=0.1374998625
EXTRACT: note_on channel=1 note=61 velocity=0 time=0
EXTRACT: note_on channel=1 note=42 velocity=0 time=0
EXTRACT: note_on channel=1 note=49 velocity=0 time=0
EXTRACT: note_on channel=0 note=59 velocity=0 time=0.0923076
EXTRACT: note_on channel=0 note=59 velocity=80 time=0.0009615375
EXTRACT: note_on channel=1 note=56 velocity=80 time=0
EXTRACT: note_on channel=1 note=63 velocity=80 time=0
EXTRACT: note_on channel=1 note=44 velocity=80 time=0
EXTRACT: note_on channel=1 note=51 velocity=80 time=0
EXTRACT: note_on channel=0 note=59 velocity=0 time=0.3451919625
EXTRACT: note_on channel=0 note=59 velocity=80 time=0.0009615375
EXTRACT: note_on channel=0 note=59 velocity=0 time=0.3451919625
EXTRACT: note_on channel=0 note=56 velocity=80 time=0.0009615375
EXTRACT: note_on channel=0 note=56 velocity=0 time=0.2298074625
EXTRACT: note_on channel=0 note=59 velocity=80 time=0.0009615375
EXTRACT: note_on channel=0 note=59 velocity=0 time=0.3451919625
EXTRACT: note_on channel=0 note=59 velocity=80 time=0.0009615375
EXTRACT: note_on channel=0 note=59 velocity=0 time=0.3451919625
EXTRACT: note_on channel=0 note=56 velocity=80 time=0.0009615375
EXTRACT: note_on channel=1 note=56 velocity=0 time=0.1374998625
EXTRACT: note_on channel=1 note=63 velocity=0 time=0
EXTRACT: note_on channel=1 note=44 velocity=0 time=0
EXTRACT: note_on channel=1 note=51 velocity=0 time=0
EXTRACT: note_on channel=0 note=56 velocity=0 time=0.0923076
EXTRACT: note_on channel=0 note=64 velocity=80 time=0.0009615375
EXTRACT: note_on channel=1 note=52 velocity=80 time=0
EXTRACT: note_on channel=1 note=59 velocity=80 time=0
EXTRACT: note_on channel=1 note=40 velocity=80 time=0
EXTRACT: note_on channel=1 note=47 velocity=80 time=0
EXTRACT: note_on channel=0 note=64 velocity=0 time=0.3451919625
EXTRACT: note_on channel=0 note=63 velocity=80 time=0.0009615375
EXTRACT: note_on channel=0 note=63 velocity=0 time=0.3451919625
EXTRACT: note_on channel=0 note=63 velocity=80 time=0.4624995375
EXTRACT: note_on channel=0 note=63 velocity=0 time=0.2298074625
EXTRACT: note_on channel=0 note=63 velocity=80 time=0.0009615375
EXTRACT: note_on channel=0 note=63 velocity=0 time=0.2298074625
EXTRACT: note_on channel=0 note=66 velocity=80 time=0.0009615375
EXTRACT: note_on channel=1 note=52 velocity=0 time=0.1374998625
EXTRACT: note_on channel=1 note=59 velocity=0 time=0
EXTRACT: note_on channel=1 note=40 velocity=0 time=0
EXTRACT: note_on channel=1 note=47 velocity=0 time=0
EXTRACT: note_on channel=0 note=66 velocity=0 time=0.0923076
EXTRACT: note_on channel=0 note=66 velocity=80 time=0.0009615375
EXTRACT: note_on channel=1 note=59 velocity=80 time=0
EXTRACT: note_on channel=1 note=66 velocity=80 time=0
EXTRACT: note_on channel=1 note=47 velocity=80 time=0
EXTRACT: note_on channel=1 note=54 velocity=80 time=0
EXTRACT: note_on channel=1 note=59 velocity=0 time=0.2182690125
EXTRACT: note_on channel=1 note=66 velocity=0 time=0
EXTRACT: note_on channel=1 note=47 velocity=0 time=0
EXTRACT: note_on channel=1 note=54 velocity=0 time=0
EXTRACT: note_on channel=0 note=66 velocity=0 time=0.24230745
EXTRACT: note_on channel=0 note=63 velocity=80 time=0.0009615375
EXTRACT: note_on channel=1 note=59 velocity=80 time=0.230769
EXTRACT: note_on channel=1 note=66 velocity=80 time=0
EXTRACT: note_on channel=1 note=47 velocity=80 time=0
EXTRACT: note_on channel=1 note=54 velocity=80 time=0
EXTRACT: note_on channel=1 note=59 velocity=0 time=0.2182690125
EXTRACT: note_on channel=1 note=66 velocity=0 time=0
EXTRACT: note_on channel=1 note=47 velocity=0 time=0
EXTRACT: note_on channel=1 note=54 velocity=0 time=0
EXTRACT: note_on channel=0 note=63 velocity=0 time=0.24230745
EXTRACT: note_on channel=0 note=63 velocity=80 time=0.0009615375
EXTRACT: note_on channel=0 note=63 velocity=0 time=0.2298074625
EXTRACT: note_on channel=0 note=61 velocity=80 time=0.0009615375
EXTRACT: note_on channel=1 note=59 velocity=80 time=0
EXTRACT: note_on channel=1 note=66 velocity=80 time=0
EXTRACT: note_on channel=1 note=47 velocity=80 time=0
EXTRACT: note_on channel=1 note=54 velocity=80 time=0
EXTRACT: note_on channel=0 note=61 velocity=0 time=0.2298074625
EXTRACT: note_on channel=0 note=59 velocity=80 time=0.0009615375
EXTRACT: note_on channel=1 note=59 velocity=0 time=0.2067305625
EXTRACT: note_on channel=1 note=66 velocity=0 time=0
EXTRACT: note_on channel=1 note=47 velocity=0 time=0
EXTRACT: note_on channel=1 note=54 velocity=0 time=0
EXTRACT: note_on channel=0 note=59 velocity=0 time=0.0230769
EXTRACT: note_on channel=0 note=61 velocity=80 time=0.0009615375
EXTRACT: note_on channel=1 note=54 velocity=80 time=0
EXTRACT: note_on channel=1 note=61 velocity=80 time=0
EXTRACT: note_on channel=1 note=42 velocity=80 time=0
EXTRACT: note_on channel=1 note=49 velocity=80 time=0
EXTRACT: note_on channel=1 note=54 velocity=0 time=0.2182690125
EXTRACT: note_on channel=1 note=61 velocity=0 time=0
EXTRACT: note_on channel=1 note=42 velocity=0 time=0
EXTRACT: note_on channel=1 note=49 velocity=0 time=0
EXTRACT: note_on channel=0 note=61 velocity=0 time=0.12692295
EXTRACT: note_on channel=0 note=61 velocity=80 time=0.0009615375
EXTRACT: note_on channel=0 note=61 velocity=0 time=0.3451919625
EXTRACT: note_on channel=0 note=59 velocity=80 time=0.0009615375
EXTRACT: note_on channel=1 note=54 velocity=80 time=0
EXTRACT: note_on channel=1 note=61 velocity=80 time=0
EXTRACT: note_on channel=1 note=42 velocity=80 time=0
EXTRACT: note_on channel=1 note=49 velocity=80 time=0
EXTRACT: note_on channel=1 note=54 velocity=0 time=0.2182690125
EXTRACT: note_on channel=1 note=61 velocity=0 time=0
EXTRACT: note_on channel=1 note=42 velocity=0 time=0
EXTRACT: note_on channel=1 note=49 velocity=0 time=0
EXTRACT: note_on channel=0 note=59 velocity=0 time=0.01153845
EXTRACT: note_on channel=0 note=61 velocity=80 time=0.0009615375
EXTRACT: note_on channel=0 note=61 velocity=0 time=0.4605764625
EXTRACT: note_on channel=0 note=63 velocity=80 time=0.0009615375
EXTRACT: note_on channel=1 note=54 velocity=80 time=0
EXTRACT: note_on channel=1 note=61 velocity=80 time=0
EXTRACT: note_on channel=1 note=42 velocity=80 time=0
EXTRACT: note_on channel=1 note=49 velocity=80 time=0
EXTRACT: note_on channel=1 note=54 velocity=0 time=0.4374995625
EXTRACT: note_on channel=1 note=61 velocity=0 time=0
EXTRACT: note_on channel=1 note=42 velocity=0 time=0
EXTRACT: note_on channel=1 note=49 velocity=0 time=0
EXTRACT: note_on channel=0 note=63 velocity=0 time=0.0230769
EXTRACT: note_on channel=1 note=56 velocity=80 time=0.0009615375
EXTRACT: note_on channel=1 note=63 velocity=80 time=0
EXTRACT: note_on channel=1 note=44 velocity=80 time=0
EXTRACT: note_on channel=1 note=51 velocity=80 time=0
EXTRACT: note_on channel=1 note=56 velocity=0 time=0.2182690125
EXTRACT: note_on channel=1 note=63 velocity=0 time=0
EXTRACT: note_on channel=1 note=44 velocity=0 time=0
EXTRACT: note_on channel=1 note=51 velocity=0 time=0
EXTRACT: note_on channel=0 note=63 velocity=80 time=0.0124999875
EXTRACT: note_on channel=0 note=63 velocity=0 time=0.2298074625
EXTRACT: note_on channel=0 note=63 velocity=80 time=0.0009615375
EXTRACT: note_on channel=0 note=63 velocity=0 time=0.2298074625
EXTRACT: note_on channel=0 note=63 velocity=80 time=0.0009615375
EXTRACT: note_on channel=1 note=56 velocity=80 time=0
EXTRACT: note_on channel=1 note=63 velocity=80 time=0
EXTRACT: note_on channel=1 note=44 velocity=80 time=0
EXTRACT: note_on channel=1 note=51 velocity=80 time=0
EXTRACT: note_on channel=1 note=56 velocity=0 time=0.2182690125
EXTRACT: note_on channel=1 note=63 velocity=0 time=0
EXTRACT: note_on channel=1 note=44 velocity=0 time=0
EXTRACT: note_on channel=1 note=51 velocity=0 time=0
EXTRACT: note_on channel=0 note=63 velocity=0 time=0.01153845
EXTRACT: note_on channel=0 note=64 velocity=80 time=0.0009615375
EXTRACT: note_on channel=0 note=64 velocity=0 time=0.2298074625
EXTRACT: note_on channel=0 note=63 velocity=80 time=0.0009615375
EXTRACT: note_on channel=0 note=63 velocity=0 time=0.2298074625
EXTRACT: note_on channel=0 note=61 velocity=80 time=0.0009615375
EXTRACT: note_on channel=1 note=56 velocity=80 time=0
EXTRACT: note_on channel=1 note=63 velocity=80 time=0
EXTRACT: note_on channel=1 note=44 velocity=80 time=0
EXTRACT: note_on channel=1 note=51 velocity=80 time=0
EXTRACT: note_on channel=0 note=61 velocity=0 time=0.2298074625
EXTRACT: note_on channel=0 note=59 velocity=80 time=0.0009615375
EXTRACT: note_on channel=1 note=56 velocity=0 time=0.2067305625
EXTRACT: note_on channel=1 note=63 velocity=0 time=0
EXTRACT: note_on channel=1 note=44 velocity=0 time=0
EXTRACT: note_on channel=1 note=51 velocity=0 time=0
EXTRACT: note_on channel=0 note=59 velocity=0 time=0.0230769
EXTRACT: note_on channel=0 note=61 velocity=80 time=0.0009615375
EXTRACT: note_on channel=1 note=52 velocity=80 time=0
EXTRACT: note_on channel=1 note=59 velocity=80 time=0
EXTRACT: note_on channel=1 note=40 velocity=80 time=0
EXTRACT: note_on channel=1 note=47 velocity=80 time=0
EXTRACT: note_on channel=1 note=52 velocity=0 time=0.2182690125
EXTRACT: note_on channel=1 note=59 velocity=0 time=0
EXTRACT: note_on channel=1 note=40 velocity=0 time=0
EXTRACT: note_on channel=1 note=47 velocity=0 time=0
EXTRACT: note_on channel=0 note=61 velocity=0 time=0.01153845
EXTRACT: note_on channel=0 note=61 velocity=80 time=0.0009615375
EXTRACT: note_on channel=0 note=61 velocity=0 time=0.2298074625
EXTRACT: note_on channel=0 note=61 velocity=80 time=0.0009615375
EXTRACT: note_on channel=0 note=61 velocity=0 time=0.2298074625
EXTRACT: note_on channel=0 note=59 velocity=80 time=0.0009615375
EXTRACT: note_on channel=1 note=52 velocity=80 time=0
EXTRACT: note_on channel=1 note=59 velocity=80 time=0
EXTRACT: note_on channel=1 note=40 velocity=80 time=0
EXTRACT: note_on channel=1 note=47 velocity=80 time=0
EXTRACT: note_on channel=1 note=52 velocity=0 time=0.2182690125
EXTRACT: note_on channel=1 note=59 velocity=0 time=0
EXTRACT: note_on channel=1 note=40 velocity=0 time=0
EXTRACT: note_on channel=1 note=47 velocity=0 time=0
EXTRACT: note_on channel=0 note=59 velocity=0 time=0.01153845
EXTRACT: note_on channel=0 note=61 velocity=80 time=0.0009615375
EXTRACT: note_on channel=0 note=61 velocity=0 time=0.4605764625
EXTRACT: note_on channel=0 note=63 velocity=80 time=0.0009615375
EXTRACT: note_on channel=1 note=52 velocity=80 time=0
EXTRACT: note_on channel=1 note=59 velocity=80 time=0
EXTRACT: note_on channel=1 note=40 velocity=80 time=0
EXTRACT: note_on channel=1 note=47 velocity=80 time=0
EXTRACT: note_on channel=1 note=52 velocity=0 time=0.4374995625
EXTRACT: note_on channel=1 note=59 velocity=0 time=0
EXTRACT: note_on channel=1 note=40 velocity=0 time=0
EXTRACT: note_on channel=1 note=47 velocity=0 time=0
EXTRACT: note_on channel=0 note=63 velocity=0 time=0.0230769
EXTRACT: note_on channel=1 note=59 velocity=80 time=0.0009615375
EXTRACT: note_on channel=1 note=66 velocity=80 time=0
EXTRACT: note_on channel=1 note=47 velocity=80 time=0
EXTRACT: note_on channel=1 note=54 velocity=80 time=0
EXTRACT: note_on channel=1 note=59 velocity=0 time=0.2182690125
EXTRACT: note_on channel=1 note=66 velocity=0 time=0
EXTRACT: note_on channel=1 note=47 velocity=0 time=0
EXTRACT: note_on channel=1 note=54 velocity=0 time=0
EXTRACT: note_on channel=1 note=59 velocity=80 time=0.4740379875
EXTRACT: note_on channel=1 note=66 velocity=80 time=0
EXTRACT: note_on channel=1 note=47 velocity=80 time=0
EXTRACT: note_on channel=1 note=54 velocity=80 time=0
EXTRACT: note_on channel=1 note=59 velocity=0 time=0.2182690125
EXTRACT: note_on channel=1 note=66 velocity=0 time=0
EXTRACT: note_on channel=1 note=47 velocity=0 time=0
EXTRACT: note_on channel=1 note=54 velocity=0 time=0
EXTRACT: note_on channel=0 note=59 velocity=80 time=0.2432689875
EXTRACT: note_on channel=0 note=59 velocity=0 time=0.2298074625
EXTRACT: note_on channel=0 note=66 velocity=80 time=0.0009615375
EXTRACT: note_on channel=1 note=59 velocity=80 time=0
EXTRACT: note_on channel=1 note=66 velocity=80 time=0
EXTRACT: note_on channel=1 note=47 velocity=80 time=0
EXTRACT: note_on channel=1 note=54 velocity=80 time=0
EXTRACT: note_on channel=0 note=66 velocity=0 time=0.2298074625
EXTRACT: note_on channel=0 note=64 velocity=80 time=0.0009615375
EXTRACT: note_on channel=1 note=59 velocity=0 time=0.2067305625
EXTRACT: note_on channel=1 note=66 velocity=0 time=0
EXTRACT: note_on channel=1 note=47 velocity=0 time=0
EXTRACT: note_on channel=1 note=54 velocity=0 time=0
EXTRACT: note_on channel=1 note=54 velocity=80 time=0.0240384375
EXTRACT: note_on channel=1 note=61 velocity=80 time=0
EXTRACT: note_on channel=1 note=42 velocity=80 time=0
EXTRACT: note_on channel=1 note=49 velocity=80 time=0
EXTRACT: note_on channel=1 note=54 velocity=0 time=0.2182690125
EXTRACT: note_on channel=1 note=61 velocity=0 time=0
EXTRACT: note_on channel=1 note=42 velocity=0 time=0
EXTRACT: note_on channel=1 note=49 velocity=0 time=0
EXTRACT: note_on channel=0 note=64 velocity=0 time=0.01153845
EXTRACT: note_on channel=0 note=63 velocity=80 time=0.0009615375
EXTRACT: note_on channel=0 note=63 velocity=0 time=0.4605764625
EXTRACT: note_on channel=0 note=61 velocity=80 time=0.0009615375
EXTRACT: note_on channel=1 note=54 velocity=80 time=0
EXTRACT: note_on channel=1 note=61 velocity=80 time=0
EXTRACT: note_on channel=1 note=42 velocity=80 time=0
EXTRACT: note_on channel=1 note=49 velocity=80 time=0
EXTRACT: note_on channel=1 note=54 velocity=0 time=0.2182690125
EXTRACT: note_on channel=1 note=61 velocity=0 time=0
EXTRACT: note_on channel=1 note=42 velocity=0 time=0
EXTRACT: note_on channel=1 note=49 velocity=0 time=0
EXTRACT: note_on channel=0 note=61 velocity=0 time=0.24230745
EXTRACT: note_on channel=0 note=63 velocity=80 time=0.0009615375
EXTRACT: note_on channel=1 note=54 velocity=80 time=0.230769
EXTRACT: note_on channel=1 note=61 velocity=80 time=0
EXTRACT: note_on channel=1 note=42 velocity=80 time=0
EXTRACT: note_on channel=1 note=49 velocity=80 time=0
EXTRACT: note_on channel=0 note=63 velocity=0 time=0.2298074625
EXTRACT: note_on channel=0 note=59 velocity=80 time=0.0009615375
EXTRACT: note_on channel=1 note=54 velocity=0 time=0.2067305625
EXTRACT: note_on channel=1 note=61 velocity=0 time=0
EXTRACT: note_on channel=1 note=42 velocity=0 time=0
EXTRACT: note_on channel=1 note=49 velocity=0 time=0
EXTRACT: note_on channel=0 note=59 velocity=0 time=0.0230769
EXTRACT: note_on channel=1 note=56 velocity=80 time=0.0009615375
EXTRACT: note_on channel=1 note=63 velocity=80 time=0
EXTRACT: note_on channel=1 note=44 velocity=80 time=0
EXTRACT: note_on channel=1 note=51 velocity=80 time=0
EXTRACT: note_on channel=1 note=56 velocity=0 time=0.2182690125
EXTRACT: note_on channel=1 note=63 velocity=0 time=0
EXTRACT: note_on channel=1 note=44 velocity=0 time=0
EXTRACT: note_on channel=1 note=51 velocity=0 time=0
EXTRACT: note_on channel=1 note=56 velocity=80 time=0.4740379875
EXTRACT: note_on channel=1 note=63 velocity=80 time=0
EXTRACT: note_on channel=1 note=44 velocity=80 time=0
EXTRACT: note_on channel=1 note=51 velocity=80 time=0
EXTRACT: note_on channel=1 note=56 velocity=0 time=0.2182690125
EXTRACT: note_on channel=1 note=63 velocity=0 time=0
EXTRACT: note_on channel=1 note=44 velocity=0 time=0
EXTRACT: note_on channel=1 note=51 velocity=0 time=0
EXTRACT: note_on channel=1 note=56 velocity=80 time=0.4740379875
EXTRACT: note_on channel=1 note=63 velocity=80 time=0
EXTRACT: note_on channel=1 note=44 velocity=80 time=0
EXTRACT: note_on channel=1 note=51 velocity=80 time=0
EXTRACT: note_on channel=1 note=56 velocity=0 time=0.2182690125
EXTRACT: note_on channel=1 note=63 velocity=0 time=0
EXTRACT: note_on channel=1 note=44 velocity=0 time=0
EXTRACT: note_on channel=1 note=51 velocity=0 time=0
EXTRACT: note_on channel=1 note=61 velocity=80 time=0.0124999875
EXTRACT: note_on channel=1 note=49 velocity=80 time=0
EXTRACT: note_on channel=1 note=61 velocity=0 time=0.2182690125
EXTRACT: note_on channel=1 note=49 velocity=0 time=0
EXTRACT: note_on channel=1 note=64 velocity=80 time=0.0124999875
EXTRACT: note_on channel=1 note=52 velocity=80 time=0
EXTRACT: note_on channel=1 note=64 velocity=0 time=0.3278842875
EXTRACT: note_on channel=1 note=52 velocity=0 time=0
EXTRACT: note_on channel=1 note=64 velocity=80 time=0.0182692125
EXTRACT: note_on channel=1 note=52 velocity=80 time=0
EXTRACT: note_on channel=1 note=64 velocity=0 time=0.3278842875
EXTRACT: note_on channel=1 note=52 velocity=0 time=0
EXTRACT: note_on channel=1 note=64 velocity=80 time=0.0182692125
EXTRACT: note_on channel=1 note=52 velocity=80 time=0
EXTRACT: note_on channel=1 note=64 velocity=0 time=0.2182690125
EXTRACT: note_on channel=1 note=52 velocity=0 time=0
EXTRACT: note_on channel=1 note=63 velocity=80 time=0.0124999875
EXTRACT: note_on channel=1 note=51 velocity=80 time=0
EXTRACT: note_on channel=0 note=63 velocity=80 time=0.230769
EXTRACT: note_on channel=1 note=63 velocity=0 time=0.2067305625
EXTRACT: note_on channel=1 note=51 velocity=0 time=0
EXTRACT: note_on channel=0 note=63 velocity=0 time=0.0230769
EXTRACT: note_on channel=0 note=63 velocity=80 time=0.0009615375
EXTRACT: note_on channel=1 note=61 velocity=80 time=0
EXTRACT: note_on channel=1 note=49 velocity=80 time=0
EXTRACT: note_on channel=0 note=63 velocity=0 time=0.2298074625
EXTRACT: note_on channel=0 note=66 velocity=80 time=0.0009615375
EXTRACT: note_on channel=1 note=61 velocity=0 time=0.2067305625
EXTRACT: note_on channel=1 note=49 velocity=0 time=0
EXTRACT: note_on channel=0 note=66 velocity=0 time=0.0230769
EXTRACT: note_on channel=0 note=66 velocity=80 time=0.0009615375
EXTRACT: note_on channel=1 note=59 velocity=80 time=0
EXTRACT: note_on channel=1 note=66 velocity=80 time=0
EXTRACT: note_on channel=1 note=47 velocity=80 time=0
EXTRACT: note_on channel=1 note=54 velocity=80 time=0
EXTRACT: note_on channel=1 note=59 velocity=0 time=0.2182690125
EXTRACT: note_on channel=1 note=66 velocity=0 time=0
EXTRACT: note_on channel=1 note=47 velocity=0 time=0
EXTRACT: note_on channel=1 note=54 velocity=0 time=0
EXTRACT: note_on channel=0 note=66 velocity=0 time=0.24230745
EXTRACT: note_on channel=0 note=63 velocity=80 time=0.0009615375
EXTRACT: note_on channel=1 note=59 velocity=80 time=0.230769
EXTRACT: note_on channel=1 note=66 velocity=80 time=0
EXTRACT: note_on channel=1 note=47 velocity=80 time=0
EXTRACT: note_on channel=1 note=54 velocity=80 time=0
EXTRACT: note_on channel=1 note=59 velocity=0 time=0.2182690125
EXTRACT: note_on channel=1 note=66 velocity=0 time=0
EXTRACT: note_on channel=1 note=47 velocity=0 time=0
EXTRACT: note_on channel=1 note=54 velocity=0 time=0
EXTRACT: note_on channel=0 note=63 velocity=0 time=0.24230745
EXTRACT: note_on channel=0 note=63 velocity=80 time=0.0009615375
EXTRACT: note_on channel=0 note=63 velocity=0 time=0.2298074625
EXTRACT: note_on channel=0 note=61 velocity=80 time=0.0009615375
EXTRACT: note_on channel=1 note=59 velocity=80 time=0
EXTRACT: note_on channel=1 note=66 velocity=80 time=0
EXTRACT: note_on channel=1 note=47 velocity=80 time=0
EXTRACT: note_on channel=1 note=54 velocity=80 time=0
EXTRACT: note_on channel=0 note=61 velocity=0 time=0.2298074625
EXTRACT: note_on channel=0 note=59 velocity=80 time=0.0009615375
EXTRACT: note_on channel=1 note=59 velocity=0 time=0.2067305625
EXTRACT: note_on channel=1 note=66 velocity=0 time=0
EXTRACT: note_on channel=1 note=47 velocity=0 time=0
EXTRACT: note_on channel=1 note=54 velocity=0 time=0
EXTRACT: note_on channel=0 note=59 velocity=0 time=0.0230769
EXTRACT: note_on channel=0 note=61 velocity=80 time=0.0009615375
EXTRACT: note_on channel=1 note=54 velocity=80 time=0
EXTRACT: note_on channel=1 note=61 velocity=80 time=0
EXTRACT: note_on channel=1 note=42 velocity=80 time=0
EXTRACT: note_on channel=1 note=49 velocity=80 time=0
EXTRACT: note_on channel=1 note=54 velocity=0 time=0.2182690125
EXTRACT: note_on channel=1 note=61 velocity=0 time=0
EXTRACT: note_on channel=1 note=42 velocity=0 time=0
EXTRACT: note_on channel=1 note=49 velocity=0 time=0
EXTRACT: note_on channel=0 note=61 velocity=0 time=0.12692295
EXTRACT: note_on channel=0 note=61 velocity=80 time=0.0009615375
EXTRACT: note_on channel=0 note=61 velocity=0 time=0.3451919625
EXTRACT: note_on channel=0 note=59 velocity=80 time=0.0009615375
EXTRACT: note_on channel=1 note=54 velocity=80 time=0
EXTRACT: note_on channel=1 note=61 velocity=80 time=0
EXTRACT: note_on channel=1 note=42 velocity=80 time=0
EXTRACT: note_on channel=1 note=49 velocity=80 time=0
EXTRACT: note_on channel=1 note=54 velocity=0 time=0.2182690125
EXTRACT: note_on channel=1 note=61 velocity=0 time=0
EXTRACT: note_on channel=1 note=42 velocity=0 time=0
EXTRACT: note_on channel=1 note=49 velocity=0 time=0
EXTRACT: note_on channel=0 note=59 velocity=0 time=0.01153845
EXTRACT: note_on channel=0 note=61 velocity=80 time=0.0009615375
EXTRACT: note_on channel=0 note=61 velocity=0 time=0.4605764625
EXTRACT: note_on channel=0 note=63 velocity=80 time=0.0009615375
EXTRACT: note_on channel=1 note=54 velocity=80 time=0
EXTRACT: note_on channel=1 note=61 velocity=80 time=0
EXTRACT: note_on channel=1 note=42 velocity=80 time=0
EXTRACT: note_on channel=1 note=49 velocity=80 time=0
EXTRACT: note_on channel=1 note=54 velocity=0 time=0.4374995625
EXTRACT: note_on channel=1 note=61 velocity=0 time=0
EXTRACT: note_on channel=1 note=42 velocity=0 time=0
EXTRACT: note_on channel=1 note=49 velocity=0 time=0
EXTRACT: note_on channel=0 note=63 velocity=0 time=0.0230769
EXTRACT: note_on channel=1 note=56 velocity=80 time=0.0009615375
EXTRACT: note_on channel=1 note=63 velocity=80 time=0
EXTRACT: note_on channel=1 note=44 velocity=80 time=0
EXTRACT: note_on channel=1 note=51 velocity=80 time=0
EXTRACT: note_on channel=1 note=56 velocity=0 time=0.2182690125
EXTRACT: note_on channel=1 note=63 velocity=0 time=0
EXTRACT: note_on channel=1 note=44 velocity=0 time=0
EXTRACT: note_on channel=1 note=51 velocity=0 time=0
EXTRACT: note_on channel=0 note=63 velocity=80 time=0.0124999875
EXTRACT: note_on channel=0 note=63 velocity=0 time=0.2298074625
EXTRACT: note_on channel=0 note=63 velocity=80 time=0.0009615375
EXTRACT: note_on channel=0 note=63 velocity=0 time=0.2298074625
EXTRACT: note_on channel=0 note=63 velocity=80 time=0.0009615375
EXTRACT: note_on channel=1 note=56 velocity=80 time=0
EXTRACT: note_on channel=1 note=63 velocity=80 time=0
EXTRACT: note_on channel=1 note=44 velocity=80 time=0
EXTRACT: note_on channel=1 note=51 velocity=80 time=0
EXTRACT: note_on channel=1 note=56 velocity=0 time=0.2182690125
EXTRACT: note_on channel=1 note=63 velocity=0 time=0
EXTRACT: note_on channel=1 note=44 velocity=0 time=0
EXTRACT: note_on channel=1 note=51 velocity=0 time=0
EXTRACT: note_on channel=0 note=63 velocity=0 time=0.01153845
EXTRACT: note_on channel=0 note=64 velocity=80 time=0.0009615375
EXTRACT: note_on channel=0 note=64 velocity=0 time=0.2298074625
EXTRACT: note_on channel=0 note=63 velocity=80 time=0.0009615375
EXTRACT: note_on channel=0 note=63 velocity=0 time=0.2298074625
EXTRACT: note_on channel=0 note=61 velocity=80 time=0.0009615375
EXTRACT: note_on channel=1 note=56 velocity=80 time=0
EXTRACT: note_on channel=1 note=63 velocity=80 time=0
EXTRACT: note_on channel=1 note=44 velocity=80 time=0
EXTRACT: note_on channel=1 note=51 velocity=80 time=0
EXTRACT: note_on channel=0 note=61 velocity=0 time=0.2298074625
EXTRACT: note_on channel=0 note=59 velocity=80 time=0.0009615375
EXTRACT: note_on channel=1 note=56 velocity=0 time=0.2067305625
EXTRACT: note_on channel=1 note=63 velocity=0 time=0
EXTRACT: note_on channel=1 note=44 velocity=0 time=0
EXTRACT: note_on channel=1 note=51 velocity=0 time=0
EXTRACT: note_on channel=0 note=59 velocity=0 time=0.0230769
EXTRACT: note_on channel=0 note=61 velocity=80 time=0.0009615375
EXTRACT: note_on channel=1 note=52 velocity=80 time=0
EXTRACT: note_on channel=1 note=59 velocity=80 time=0
EXTRACT: note_on channel=1 note=40 velocity=80 time=0
EXTRACT: note_on channel=1 note=47 velocity=80 time=0
EXTRACT: note_on channel=1 note=52 velocity=0 time=0.2182690125
EXTRACT: note_on channel=1 note=59 velocity=0 time=0
EXTRACT: note_on channel=1 note=40 velocity=0 time=0
EXTRACT: note_on channel=1 note=47 velocity=0 time=0
EXTRACT: note_on channel=0 note=61 velocity=0 time=0.12692295
EXTRACT: note_on channel=0 note=61 velocity=80 time=0.0009615375
EXTRACT: note_on channel=0 note=61 velocity=0 time=0.3451919625
EXTRACT: note_on channel=0 note=59 velocity=80 time=0.0009615375
EXTRACT: note_on channel=1 note=52 velocity=80 time=0
EXTRACT: note_on channel=1 note=59 velocity=80 time=0
EXTRACT: note_on channel=1 note=40 velocity=80 time=0
EXTRACT: note_on channel=1 note=47 velocity=80 time=0
EXTRACT: note_on channel=1 note=52 velocity=0 time=0.2182690125
EXTRACT: note_on channel=1 note=59 velocity=0 time=0
EXTRACT: note_on channel=1 note=40 velocity=0 time=0
EXTRACT: note_on channel=1 note=47 velocity=0 time=0
EXTRACT: note_on channel=0 note=59 velocity=0 time=0.01153845
EXTRACT: note_on channel=0 note=61 velocity=80 time=0.0009615375
EXTRACT: note_on channel=0 note=61 velocity=0 time=0.4605764625
EXTRACT: note_on channel=0 note=63 velocity=80 time=0.0009615375
EXTRACT: note_on channel=1 note=52 velocity=80 time=0
EXTRACT: note_on channel=1 note=59 velocity=80 time=0
EXTRACT: note_on channel=1 note=40 velocity=80 time=0
EXTRACT: note_on channel=1 note=47 velocity=80 time=0
EXTRACT: note_on channel=1 note=52 velocity=0 time=0.4374995625
EXTRACT: note_on channel=1 note=59 velocity=0 time=0
EXTRACT: note_on channel=1 note=40 velocity=0 time=0
EXTRACT: note_on channel=1 note=47 velocity=0 time=0
EXTRACT: note_on channel=0 note=63 velocity=0 time=0.0230769
EXTRACT: note_on channel=1 note=59 velocity=80 time=0.0009615375
EXTRACT: note_on channel=1 note=66 velocity=80 time=0
EXTRACT: note_on channel=1 note=47 velocity=80 time=0
EXTRACT: note_on channel=1 note=54 velocity=80 time=0
EXTRACT: note_on channel=1 note=59 velocity=0 time=0.2182690125
EXTRACT: note_on channel=1 note=66 velocity=0 time=0
EXTRACT: note_on channel=1 note=47 velocity=0 time=0
EXTRACT: note_on channel=1 note=54 velocity=0 time=0
EXTRACT: note_on channel=1 note=59 velocity=80 time=0.4740379875
EXTRACT: note_on channel=1 note=66 velocity=80 time=0
EXTRACT: note_on channel=1 note=47 velocity=80 time=0
EXTRACT: note_on channel=1 note=54 velocity=80 time=0
EXTRACT: note_on channel=1 note=59 velocity=0 time=0.2182690125
EXTRACT: note_on channel=1 note=66 velocity=0 time=0
EXTRACT: note_on channel=1 note=47 velocity=0 time=0
EXTRACT: note_on channel=1 note=54 velocity=0 time=0
EXTRACT: note_on channel=0 note=59 velocity=80 time=0.2432689875
EXTRACT: note_on channel=0 note=59 velocity=0 time=0.2298074625
EXTRACT: note_on channel=0 note=66 velocity=80 time=0.0009615375
EXTRACT: note_on channel=1 note=59 velocity=80 time=0
EXTRACT: note_on channel=1 note=66 velocity=80 time=0
EXTRACT: note_on channel=1 note=47 velocity=80 time=0
EXTRACT: note_on channel=1 note=54 velocity=80 time=0
EXTRACT: note_on channel=0 note=66 velocity=0 time=0.2298074625
EXTRACT: note_on channel=0 note=64 velocity=80 time=0.0009615375
EXTRACT: note_on channel=1 note=59 velocity=0 time=0.2067305625
EXTRACT: note_on channel=1 note=66 velocity=0 time=0
EXTRACT: note_on channel=1 note=47 velocity=0 time=0
EXTRACT: note_on channel=1 note=54 velocity=0 time=0
EXTRACT: note_on channel=1 note=54 velocity=80 time=0.0240384375
EXTRACT: note_on channel=1 note=61 velocity=80 time=0
EXTRACT: note_on channel=1 note=42 velocity=80 time=0
EXTRACT: note_on channel=1 note=49 velocity=80 time=0
EXTRACT: note_on channel=1 note=54 velocity=0 time=0.2182690125
EXTRACT: note_on channel=1 note=61 velocity=0 time=0
EXTRACT: note_on channel=1 note=42 velocity=0 time=0
EXTRACT: note_on channel=1 note=49 velocity=0 time=0
EXTRACT: note_on channel=0 note=64 velocity=0 time=0.01153845
EXTRACT: note_on channel=0 note=63 velocity=80 time=0.0009615375
EXTRACT: note_on channel=0 note=63 velocity=0 time=0.4605764625
EXTRACT: note_on channel=0 note=61 velocity=80 time=0.0009615375
EXTRACT: note_on channel=1 note=54 velocity=80 time=0
EXTRACT: note_on channel=1 note=61 velocity=80 time=0
EXTRACT: note_on channel=1 note=42 velocity=80 time=0
EXTRACT: note_on channel=1 note=49 velocity=80 time=0
EXTRACT: note_on channel=1 note=54 velocity=0 time=0.2182690125
EXTRACT: note_on channel=1 note=61 velocity=0 time=0
EXTRACT: note_on channel=1 note=42 velocity=0 time=0
EXTRACT: note_on channel=1 note=49 velocity=0 time=0
EXTRACT: note_on channel=0 note=61 velocity=0 time=0.24230745
EXTRACT: note_on channel=0 note=63 velocity=80 time=0.0009615375
EXTRACT: note_on channel=1 note=54 velocity=80 time=0.230769
EXTRACT: note_on channel=1 note=61 velocity=80 time=0
EXTRACT: note_on channel=1 note=42 velocity=80 time=0
EXTRACT: note_on channel=1 note=49 velocity=80 time=0
EXTRACT: note_on channel=0 note=63 velocity=0 time=0.2298074625
EXTRACT: note_on channel=0 note=59 velocity=80 time=0.0009615375
EXTRACT: note_on channel=1 note=54 velocity=0 time=0.2067305625
EXTRACT: note_on channel=1 note=61 velocity=0 time=0
EXTRACT: note_on channel=1 note=42 velocity=0 time=0
EXTRACT: note_on channel=1 note=49 velocity=0 time=0
EXTRACT: note_on channel=0 note=59 velocity=0 time=0.0230769
EXTRACT: note_on channel=1 note=56 velocity=80 time=0.0009615375
EXTRACT: note_on channel=1 note=63 velocity=80 time=0
EXTRACT: note_on channel=1 note=44 velocity=80 time=0
EXTRACT: note_on channel=1 note=51 velocity=80 time=0
EXTRACT: note_on channel=1 note=56 velocity=0 time=0.2182690125
EXTRACT: note_on channel=1 note=63 velocity=0 time=0
EXTRACT: note_on channel=1 note=44 velocity=0 time=0
EXTRACT: note_on channel=1 note=51 velocity=0 time=0
EXTRACT: note_on channel=1 note=56 velocity=80 time=0.4740379875
EXTRACT: note_on channel=1 note=63 velocity=80 time=0
EXTRACT: note_on channel=1 note=44 velocity=80 time=0
EXTRACT: note_on channel=1 note=51 velocity=80 time=0
EXTRACT: note_on channel=1 note=56 velocity=0 time=0.2182690125
EXTRACT: note_on channel=1 note=63 velocity=0 time=0
EXTRACT: note_on channel=1 note=44 velocity=0 time=0
EXTRACT: note_on channel=1 note=51 velocity=0 time=0
EXTRACT: note_on channel=1 note=56 velocity=80 time=0.4740379875
EXTRACT: note_on channel=1 note=63 velocity=80 time=0
EXTRACT: note_on channel=1 note=44 velocity=80 time=0
EXTRACT: note_on channel=1 note=51 velocity=80 time=0
EXTRACT: note_on channel=1 note=56 velocity=0 time=0.2182690125
EXTRACT: note_on channel=1 note=63 velocity=0 time=0
EXTRACT: note_on channel=1 note=44 velocity=0 time=0
EXTRACT: note_on channel=1 note=51 velocity=0 time=0
EXTRACT: note_on channel=1 note=61 velocity=80 time=0.0124999875
EXTRACT: note_on channel=1 note=49 velocity=80 time=0
EXTRACT: note_on channel=1 note=61 velocity=0 time=0.2182690125
EXTRACT: note_on channel=1 note=49 velocity=0 time=0
EXTRACT: note_on channel=1 note=64 velocity=80 time=0.0124999875
EXTRACT: note_on channel=1 note=52 velocity=80 time=0
EXTRACT: note_on channel=1 note=64 velocity=0 time=0.3278842875
EXTRACT: note_on channel=1 note=52 velocity=0 time=0
EXTRACT: note_on channel=1 note=64 velocity=80 time=0.0182692125
EXTRACT: note_on channel=1 note=52 velocity=80 time=0
EXTRACT: note_on channel=1 note=64 velocity=0 time=0.3278842875
EXTRACT: note_on channel=1 note=52 velocity=0 time=0
EXTRACT: note_on channel=1 note=64 velocity=80 time=0.0182692125
EXTRACT: note_on channel=1 note=52 velocity=80 time=0
EXTRACT: note_on channel=1 note=64 velocity=0 time=0.2182690125
EXTRACT: note_on channel=1 note=52 velocity=0 time=0
EXTRACT: note_on channel=1 note=63 velocity=80 time=0.0124999875
EXTRACT: note_on channel=1 note=51 velocity=80 time=0
EXTRACT: note_on channel=1 note=63 velocity=0 time=0.4374995625
EXTRACT: note_on channel=1 note=51 velocity=0 time=0
EXTRACT: note_on channel=1 note=61 velocity=80 time=0.0240384375
EXTRACT: note_on channel=1 note=49 velocity=80 time=0
EXTRACT: note_on channel=1 note=61 velocity=0 time=0.4374995625
EXTRACT: note_on channel=1 note=49 velocity=0 time=0
EXTRACT: note_on channel=1 note=56 velocity=80 time=0.0240384375
EXTRACT: note_on channel=1 note=63 velocity=80 time=0
EXTRACT: note_on channel=1 note=44 velocity=80 time=0
EXTRACT: note_on channel=1 note=51 velocity=80 time=0
EXTRACT: note_on channel=1 note=56 velocity=0 time=0.2182690125
EXTRACT: note_on channel=1 note=63 velocity=0 time=0
EXTRACT: note_on channel=1 note=44 velocity=0 time=0
EXTRACT: note_on channel=1 note=51 velocity=0 time=0
EXTRACT: note_on channel=0 note=59 velocity=80 time=0.4740379875
EXTRACT: note_on channel=0 note=59 velocity=0 time=0.2298074625
EXTRACT: note_on channel=0 note=68 velocity=80 time=0.0009615375
EXTRACT: note_on channel=0 note=68 velocity=0 time=0.2298074625
EXTRACT: note_on channel=0 note=66 velocity=80 time=0.0009615375
EXTRACT: note_on channel=0 note=66 velocity=0 time=0.2298074625
EXTRACT: note_on channel=0 note=63 velocity=80 time=0.0009615375
EXTRACT: note_on channel=0 note=63 velocity=0 time=0.2298074625
EXTRACT: note_on channel=0 note=63 velocity=80 time=0.0009615375
EXTRACT: note_on channel=0 note=63 velocity=0 time=0.4605764625
EXTRACT: note_on channel=0 note=66 velocity=80 time=0.0009615375
EXTRACT: note_on channel=0 note=66 velocity=0 time=0.4605764625
EXTRACT: note_on channel=0 note=61 velocity=80 time=0.0009615375
EXTRACT: note_on channel=0 note=61 velocity=0 time=0.6913454625
EXTRACT: note_on channel=0 note=59 velocity=80 time=0.0009615375
EXTRACT: note_on channel=0 note=59 velocity=0 time=0.2298074625
EXTRACT: note_on channel=0 note=59 velocity=80 time=0.0009615375
EXTRACT: note_on channel=0 note=59 velocity=0 time=0.2298074625
EXTRACT: note_on channel=0 note=63 velocity=80 time=0.0009615375
EXTRACT: note_on channel=1 note=52 velocity=80 time=0
EXTRACT: note_on channel=1 note=59 velocity=80 time=0
EXTRACT: note_on channel=1 note=40 velocity=80 time=0
EXTRACT: note_on channel=1 note=47 velocity=80 time=0
EXTRACT: note_on channel=1 note=52 velocity=0 time=0.4374995625
EXTRACT: note_on channel=1 note=59 velocity=0 time=0
EXTRACT: note_on channel=1 note=40 velocity=0 time=0
EXTRACT: note_on channel=1 note=47 velocity=0 time=0
EXTRACT: note_on channel=0 note=63 velocity=0 time=0.0230769
EXTRACT: note_on channel=0 note=63 velocity=80 time=0.0009615375
EXTRACT: note_on channel=1 note=52 velocity=80 time=0
EXTRACT: note_on channel=1 note=59 velocity=80 time=0
EXTRACT: note_on channel=1 note=40 velocity=80 time=0
EXTRACT: note_on channel=1 note=47 velocity=80 time=0
EXTRACT: note_on channel=1 note=52 velocity=0 time=0.4374995625
EXTRACT: note_on channel=1 note=59 velocity=0 time=0
EXTRACT: note_on channel=1 note=40 velocity=0 time=0
EXTRACT: note_on channel=1 note=47 velocity=0 time=0
EXTRACT: note_on channel=0 note=63 velocity=0 time=0.0230769
EXTRACT: note_on channel=0 note=63 velocity=80 time=0.0009615375
EXTRACT: note_on channel=1 note=52 velocity=80 time=0
EXTRACT: note_on channel=1 note=59 velocity=80 time=0
EXTRACT: note_on channel=1 note=40 velocity=80 time=0
EXTRACT: note_on channel=1 note=47 velocity=80 time=0
EXTRACT: note_on channel=1 note=52 velocity=0 time=0.4374995625
EXTRACT: note_on channel=1 note=59 velocity=0 time=0
EXTRACT: note_on channel=1 note=40 velocity=0 time=0
EXTRACT: note_on channel=1 note=47 velocity=0 time=0
EXTRACT: note_on channel=0 note=63 velocity=0 time=0.0230769
EXTRACT: note_on channel=0 note=63 velocity=80 time=0.0009615375
EXTRACT: note_on channel=1 note=52 velocity=80 time=0
EXTRACT: note_on channel=1 note=59 velocity=80 time=0
EXTRACT: note_on channel=1 note=40 velocity=80 time=0
EXTRACT: note_on channel=1 note=47 velocity=80 time=0
EXTRACT: note_on channel=1 note=52 velocity=0 time=0.4374995625
EXTRACT: note_on channel=1 note=59 velocity=0 time=0
EXTRACT: note_on channel=1 note=40 velocity=0 time=0
EXTRACT: note_on channel=1 note=47 velocity=0 time=0
EXTRACT: note_on channel=0 note=63 velocity=0 time=0.0230769
EXTRACT: note_on channel=0 note=63 velocity=80 time=0.0009615375
EXTRACT: note_on channel=1 note=52 velocity=80 time=0
EXTRACT: note_on channel=1 note=59 velocity=80 time=0
EXTRACT: note_on channel=1 note=40 velocity=80 time=0
EXTRACT: note_on channel=1 note=47 velocity=80 time=0
EXTRACT: note_on channel=0 note=63 velocity=0 time=0.2298074625
EXTRACT: note_on channel=0 note=61 velocity=80 time=0.0009615375
EXTRACT: note_on channel=0 note=61 velocity=0 time=0.9221144625
EXTRACT: note_on channel=0 note=59 velocity=80 time=0.0009615375
EXTRACT: note_on channel=0 note=59 velocity=0 time=0.2298074625
EXTRACT: note_on channel=0 note=63 velocity=80 time=0.0009615375
EXTRACT: note_on channel=0 note=63 velocity=0 time=0.2298074625
EXTRACT: note_on channel=0 note=63 velocity=80 time=0.0009615375
EXTRACT: note_on channel=1 note=52 velocity=0 time=0.1374998625
EXTRACT: note_on channel=1 note=59 velocity=0 time=0
EXTRACT: note_on channel=1 note=40 velocity=0 time=0
EXTRACT: note_on channel=1 note=47 velocity=0 time=0
EXTRACT: note_on channel=1 note=47 velocity=80 time=0.0932691375
EXTRACT: note_on channel=1 note=47 velocity=0 time=0.2182690125
EXTRACT: note_on channel=0 note=63 velocity=0 time=0.01153845
EXTRACT: note_on channel=0 note=61 velocity=80 time=0.0009615375
EXTRACT: note_on channel=1 note=54 velocity=80 time=0
EXTRACT: note_on channel=1 note=54 velocity=0 time=0.2182690125
EXTRACT: note_on channel=0 note=61 velocity=0 time=0.01153845
EXTRACT: note_on channel=0 note=59 velocity=80 time=0.0009615375
EXTRACT: note_on channel=1 note=59 velocity=80 time=0
EXTRACT: note_on channel=1 note=59 velocity=0 time=0.2182690125
EXTRACT: note_on channel=0 note=59 velocity=0 time=0.01153845
EXTRACT: note_on channel=0 note=61 velocity=80 time=0.0009615375
EXTRACT: note_on channel=1 note=61 velocity=80 time=0
EXTRACT: note_on channel=0 note=61 velocity=0 time=0.4605764625
EXTRACT: note_on channel=0 note=59 velocity=80 time=0.0009615375
EXTRACT: note_on channel=0 note=59 velocity=0 time=0.2298074625
EXTRACT: note_on channel=0 note=63 velocity=80 time=0.0009615375
EXTRACT: note_on channel=1 note=61 velocity=0 time=0.1836536625
EXTRACT: note_on channel=0 note=63 velocity=0 time=0.0461538
EXTRACT: note_on channel=0 note=63 velocity=80 time=0.0009615375
EXTRACT: note_on channel=1 note=42 velocity=80 time=0.230769
EXTRACT: note_on channel=1 note=42 velocity=0 time=0.2182690125
EXTRACT: note_on channel=0 note=63 velocity=0 time=0.01153845
EXTRACT: note_on channel=0 note=61 velocity=80 time=0.0009615375
EXTRACT: note_on channel=1 note=49 velocity=80 time=0
EXTRACT: note_on channel=1 note=49 velocity=0 time=0.2182690125
EXTRACT: note_on channel=0 note=61 velocity=0 time=0.01153845
EXTRACT: note_on channel=0 note=59 velocity=80 time=0.0009615375
EXTRACT: note_on channel=1 note=54 velocity=80 time=0
EXTRACT: note_on channel=1 note=54 velocity=0 time=0.2182690125
EXTRACT: note_on channel=0 note=59 velocity=0 time=0.01153845
EXTRACT: note_on channel=0 note=61 velocity=80 time=0.0009615375
EXTRACT: note_on channel=1 note=58 velocity=80 time=0
EXTRACT: note_on channel=0 note=61 velocity=0 time=0.4605764625
EXTRACT: note_on channel=0 note=59 velocity=80 time=0.0009615375
EXTRACT: note_on channel=0 note=59 velocity=0 time=0.2298074625
EXTRACT: note_on channel=0 note=63 velocity=80 time=0.0009615375
EXTRACT: note_on channel=1 note=58 velocity=0 time=0.1836536625
EXTRACT: note_on channel=0 note=63 velocity=0 time=0.0461538
EXTRACT: note_on channel=0 note=63 velocity=80 time=0.0009615375
EXTRACT: note_on channel=1 note=44 velocity=80 time=0.230769
EXTRACT: note_on channel=1 note=44 velocity=0 time=0.2182690125
EXTRACT: note_on channel=0 note=63 velocity=0 time=0.01153845
EXTRACT: note_on channel=0 note=61 velocity=80 time=0.0009615375
EXTRACT: note_on channel=1 note=51 velocity=80 time=0
EXTRACT: note_on channel=1 note=51 velocity=0 time=0.2182690125
EXTRACT: note_on channel=0 note=61 velocity=0 time=0.01153845
EXTRACT: note_on channel=0 note=59 velocity=80 time=0.0009615375
EXTRACT: note_on channel=1 note=56 velocity=80 time=0
EXTRACT: note_on channel=1 note=56 velocity=0 time=0.2182690125
EXTRACT: note_on channel=0 note=59 velocity=0 time=0.01153845
EXTRACT: note_on channel=0 note=61 velocity=80 time=0.0009615375
EXTRACT: note_on channel=1 note=59 velocity=80 time=0
EXTRACT: note_on channel=0 note=61 velocity=0 time=0.6913454625
EXTRACT: note_on channel=0 note=59 velocity=80 time=0.0009615375
EXTRACT: note_on channel=1 note=59 velocity=0 time=0.1836536625
EXTRACT: note_on channel=1 note=49 velocity=80 time=0.0471153375
EXTRACT: note_on channel=1 note=49 velocity=0 time=0.2182690125
EXTRACT: note_on channel=0 note=59 velocity=0 time=0.01153845
EXTRACT: note_on channel=1 note=52 velocity=80 time=0.0009615375
EXTRACT: note_on channel=1 note=52 velocity=0 time=0.3278842875
EXTRACT: note_on channel=1 note=52 velocity=80 time=0.0182692125
EXTRACT: note_on channel=1 note=52 velocity=0 time=0.3278842875
EXTRACT: note_on channel=1 note=52 velocity=80 time=0.0182692125
EXTRACT: note_on channel=1 note=52 velocity=0 time=0.2182690125
EXTRACT: note_on channel=1 note=51 velocity=80 time=0.0124999875
EXTRACT: note_on channel=0 note=59 velocity=80 time=0.230769
EXTRACT: note_on channel=1 note=51 velocity=0 time=0.2067305625
EXTRACT: note_on channel=0 note=59 velocity=0 time=0.0230769
EXTRACT: note_on channel=0 note=63 velocity=80 time=0.0009615375
EXTRACT: note_on channel=1 note=49 velocity=80 time=0
EXTRACT: note_on channel=0 note=63 velocity=0 time=0.2298074625
EXTRACT: note_on channel=0 note=63 velocity=80 time=0.0009615375
EXTRACT: note_on channel=1 note=49 velocity=0 time=0.2067305625
EXTRACT: note_on channel=1 note=47 velocity=80 time=0.0240384375
EXTRACT: note_on channel=1 note=47 velocity=0 time=0.2182690125
EXTRACT: note_on channel=0 note=63 velocity=0 time=0.01153845
EXTRACT: note_on channel=0 note=61 velocity=80 time=0.0009615375
EXTRACT: note_on channel=1 note=54 velocity=80 time=0
EXTRACT: note_on channel=1 note=54 velocity=0 time=0.2182690125
EXTRACT: note_on channel=0 note=61 velocity=0 time=0.01153845
EXTRACT: note_on channel=0 note=59 velocity=80 time=0.0009615375
EXTRACT: note_on channel=1 note=59 velocity=80 time=0
EXTRACT: note_on channel=1 note=59 velocity=0 time=0.2182690125
EXTRACT: note_on channel=0 note=59 velocity=0 time=0.01153845
EXTRACT: note_on channel=0 note=61 velocity=80 time=0.0009615375
EXTRACT: note_on channel=1 note=61 velocity=80 time=0
EXTRACT: note_on channel=0 note=61 velocity=0 time=0.4605764625
EXTRACT: note_on channel=0 note=59 velocity=80 time=0.0009615375
EXTRACT: note_on channel=0 note=59 velocity=0 time=0.2298074625
EXTRACT: note_on channel=0 note=63 velocity=80 time=0.0009615375
EXTRACT: note_on channel=1 note=61 velocity=0 time=0.1836536625
EXTRACT: note_on channel=0 note=63 velocity=0 time=0.0461538
EXTRACT: note_on channel=0 note=63 velocity=80 time=0.0009615375
EXTRACT: note_on channel=1 note=42 velocity=80 time=0.230769
EXTRACT: note_on channel=1 note=42 velocity=0 time=0.2182690125
EXTRACT: note_on channel=0 note=63 velocity=0 time=0.01153845
EXTRACT: note_on channel=0 note=61 velocity=80 time=0.0009615375
EXTRACT: note_on channel=1 note=49 velocity=80 time=0
EXTRACT: note_on channel=1 note=49 velocity=0 time=0.2182690125
EXTRACT: note_on channel=0 note=61 velocity=0 time=0.01153845
EXTRACT: note_on channel=0 note=59 velocity=80 time=0.0009615375
EXTRACT: note_on channel=1 note=54 velocity=80 time=0
EXTRACT: note_on channel=1 note=54 velocity=0 time=0.2182690125
EXTRACT: note_on channel=0 note=59 velocity=0 time=0.01153845
EXTRACT: note_on channel=0 note=61 velocity=80 time=0.0009615375
EXTRACT: note_on channel=1 note=58 velocity=80 time=0
EXTRACT: note_on channel=0 note=61 velocity=0 time=0.4605764625
EXTRACT: note_on channel=0 note=59 velocity=80 time=0.0009615375
EXTRACT: note_on channel=0 note=59 velocity=0 time=0.2298074625
EXTRACT: note_on channel=0 note=61 velocity=80 time=0.0009615375
EXTRACT: note_on channel=1 note=58 velocity=0 time=0.1836536625
EXTRACT: note_on channel=0 note=61 velocity=0 time=0.2769228
EXTRACT: note_on channel=0 note=64 velocity=80 time=0.0009615375
EXTRACT: note_on channel=1 note=40 velocity=80 time=0
EXTRACT: note_on channel=1 note=40 velocity=0 time=0.2182690125
EXTRACT: note_on channel=1 note=47 velocity=80 time=0.0124999875
EXTRACT: note_on channel=1 note=47 velocity=0 time=0.2182690125
EXTRACT: note_on channel=1 note=52 velocity=80 time=0.0124999875
EXTRACT: note_on channel=1 note=52 velocity=0 time=0.2182690125
EXTRACT: note_on channel=0 note=64 velocity=0 time=0.01153845
EXTRACT: note_on channel=0 note=63 velocity=80 time=0.0009615375
EXTRACT: note_on channel=1 note=56 velocity=80 time=0
EXTRACT: note_on channel=0 note=63 velocity=0 time=0.6913454625
EXTRACT: note_on channel=0 note=59 velocity=80 time=0.0009615375
EXTRACT: note_on channel=1 note=56 velocity=0 time=0.1836536625
EXTRACT: note_on channel=0 note=59 velocity=0 time=0.2769228
EXTRACT: note_on channel=0 note=59 velocity=80 time=0.0009615375
EXTRACT: note_on channel=1 note=42 velocity=80 time=0
EXTRACT: note_on channel=1 note=54 velocity=80 time=0
EXTRACT: note_on channel=0 note=59 velocity=0 time=0.9221144625
EXTRACT: note_on channel=0 note=61 velocity=80 time=0.0009615375
EXTRACT: note_on channel=0 note=61 velocity=0 time=0.4605764625
EXTRACT: note_on channel=0 note=59 velocity=80 time=0.0009615375
EXTRACT: note_on channel=1 note=42 velocity=0 time=0.3682688625
EXTRACT: note_on channel=1 note=54 velocity=0 time=0
EXTRACT: note_on channel=0 note=59 velocity=0 time=0.0923076
EXTRACT: note_on channel=1 note=47 velocity=80 time=0.0009615375
EXTRACT: note_on channel=1 note=54 velocity=80 time=0
EXTRACT: note_on channel=1 note=47 velocity=0 time=0.4374995625
EXTRACT: note_on channel=1 note=54 velocity=0 time=0
EXTRACT: note_on channel=1 note=47 velocity=80 time=0.0240384375
EXTRACT: note_on channel=1 note=54 velocity=80 time=0
EXTRACT: note_on channel=1 note=47 velocity=0 time=0.4374995625
EXTRACT: note_on channel=1 note=54 velocity=0 time=0
EXTRACT: note_on channel=1 note=47 velocity=80 time=0.0240384375
EXTRACT: note_on channel=1 note=54 velocity=80 time=0
EXTRACT: note_on channel=1 note=47 velocity=0 time=0.4374995625
EXTRACT: note_on channel=1 note=54 velocity=0 time=0
EXTRACT: note_on channel=1 note=47 velocity=80 time=0.0240384375
EXTRACT: note_on channel=1 note=54 velocity=80 time=0
EXTRACT: note_on channel=1 note=47 velocity=0 time=0.4374995625
EXTRACT: note_on channel=1 note=54 velocity=0 time=0
EXTRACT: note_on channel=1 note=47 velocity=80 time=0.0240384375
EXTRACT: note_on channel=1 note=54 velocity=80 time=0
EXTRACT: note_on channel=1 note=47 velocity=0 time=0.4374995625
EXTRACT: note_on channel=1 note=54 velocity=0 time=0
EXTRACT: note_on channel=0 note=59 velocity=80 time=0.2548074375
EXTRACT: note_on channel=0 note=59 velocity=0 time=0.2298074625
EXTRACT: note_on channel=0 note=64 velocity=80 time=0.0009615375
EXTRACT: note_on channel=0 note=64 velocity=0 time=0.3451919625
EXTRACT: note_on channel=0 note=64 velocity=80 time=0.0009615375
EXTRACT: note_on channel=0 note=64 velocity=0 time=0.3451919625
EXTRACT: note_on channel=0 note=63 velocity=80 time=0.0009615375
EXTRACT: note_on channel=0 note=63 velocity=0 time=0.2298074625
EXTRACT: note_on channel=0 note=59 velocity=80 time=0.0009615375
EXTRACT: note_on channel=1 note=59 velocity=80 time=0
EXTRACT: note_on channel=1 note=66 velocity=80 time=0
EXTRACT: note_on channel=1 note=47 velocity=80 time=0
EXTRACT: note_on channel=1 note=54 velocity=80 time=0
EXTRACT: note_on channel=1 note=59 velocity=0 time=0.2182690125
EXTRACT: note_on channel=1 note=66 velocity=0 time=0
EXTRACT: note_on channel=1 note=47 velocity=0 time=0
EXTRACT: note_on channel=1 note=54 velocity=0 time=0
EXTRACT: note_on channel=0 note=59 velocity=0 time=0.12692295
EXTRACT: note_on channel=0 note=59 velocity=80 time=0.3471150375
EXTRACT: note_on channel=1 note=59 velocity=80 time=0
EXTRACT: note_on channel=1 note=66 velocity=80 time=0
EXTRACT: note_on channel=1 note=47 velocity=80 time=0
EXTRACT: note_on channel=1 note=54 velocity=80 time=0
EXTRACT: note_on channel=1 note=59 velocity=0 time=0.2182690125
EXTRACT: note_on channel=1 note=66 velocity=0 time=0
EXTRACT: note_on channel=1 note=47 velocity=0 time=0
EXTRACT: note_on channel=1 note=54 velocity=0 time=0
EXTRACT: note_on channel=0 note=59 velocity=0 time=0.01153845
EXTRACT: note_on channel=0 note=66 velocity=80 time=0.0009615375
EXTRACT: note_on channel=0 note=66 velocity=0 time=0.3451919625
EXTRACT: note_on channel=0 note=66 velocity=80 time=0.0009615375
EXTRACT: note_on channel=0 note=66 velocity=0 time=0.3451919625
EXTRACT: note_on channel=0 note=66 velocity=80 time=0.0009615375
EXTRACT: note_on channel=0 note=66 velocity=0 time=0.2298074625
EXTRACT: note_on channel=0 note=66 velocity=80 time=0.0009615375
EXTRACT: note_on channel=1 note=54 velocity=80 time=0
EXTRACT: note_on channel=1 note=61 velocity=80 time=0
EXTRACT: note_on channel=1 note=42 velocity=80 time=0
EXTRACT: note_on channel=1 note=49 velocity=80 time=0
EXTRACT: note_on channel=1 note=54 velocity=0 time=0.2182690125
EXTRACT: note_on channel=1 note=61 velocity=0 time=0
EXTRACT: note_on channel=1 note=42 velocity=0 time=0
EXTRACT: note_on channel=1 note=49 velocity=0 time=0
EXTRACT: note_on channel=0 note=66 velocity=0 time=0.24230745
EXTRACT: note_on channel=0 note=63 velocity=80 time=0.0009615375
EXTRACT: note_on channel=1 note=54 velocity=80 time=0.230769
EXTRACT: note_on channel=1 note=61 velocity=80 time=0
EXTRACT: note_on channel=1 note=42 velocity=80 time=0
EXTRACT: note_on channel=1 note=49 velocity=80 time=0
EXTRACT: note_on channel=1 note=54 velocity=0 time=0.2182690125
EXTRACT: note_on channel=1 note=61 velocity=0 time=0
EXTRACT: note_on channel=1 note=42 velocity=0 time=0
EXTRACT: note_on channel=1 note=49 velocity=0 time=0
EXTRACT: note_on channel=0 note=63 velocity=0 time=0.01153845
EXTRACT: note_on channel=0 note=61 velocity=80 time=0.0009615375
EXTRACT: note_on channel=0 note=61 velocity=0 time=0.4605764625
EXTRACT: note_on channel=0 note=63 velocity=80 time=0.0009615375
EXTRACT: note_on channel=0 note=63 velocity=0 time=0.4605764625
EXTRACT: note_on channel=1 note=56 velocity=80 time=0.0009615375
EXTRACT: note_on channel=1 note=63 velocity=80 time=0
EXTRACT: note_on channel=1 note=44 velocity=80 time=0
EXTRACT: note_on channel=1 note=51 velocity=80 time=0
EXTRACT: note_on channel=1 note=56 velocity=0 time=0.2182690125
EXTRACT: note_on channel=1 note=63 velocity=0 time=0
EXTRACT: note_on channel=1 note=44 velocity=0 time=0
EXTRACT: note_on channel=1 note=51 velocity=0 time=0
EXTRACT: note_on channel=0 note=59 velocity=80 time=0.4740379875
EXTRACT: note_on channel=1 note=56 velocity=80 time=0
EXTRACT: note_on channel=1 note=63 velocity=80 time=0
EXTRACT: note_on channel=1 note=44 velocity=80 time=0
EXTRACT: note_on channel=1 note=51 velocity=80 time=0
EXTRACT: note_on channel=1 note=56 velocity=0 time=0.2182690125
EXTRACT: note_on channel=1 note=63 velocity=0 time=0
EXTRACT: note_on channel=1 note=44 velocity=0 time=0
EXTRACT: note_on channel=1 note=51 velocity=0 time=0
EXTRACT: note_on channel=0 note=59 velocity=0 time=0.01153845
EXTRACT: note_on channel=0 note=66 velocity=80 time=0.0009615375
EXTRACT: note_on channel=0 note=66 velocity=0 time=0.3451919625
EXTRACT: note_on channel=0 note=66 velocity=80 time=0.0009615375
EXTRACT: note_on channel=0 note=66 velocity=0 time=0.3451919625
EXTRACT: note_on channel=0 note=66 velocity=80 time=0.0009615375
EXTRACT: note_on channel=0 note=66 velocity=0 time=0.2298074625
EXTRACT: note_on channel=1 note=52 velocity=80 time=0.0009615375
EXTRACT: note_on channel=1 note=59 velocity=80 time=0
EXTRACT: note_on channel=1 note=40 velocity=80 time=0
EXTRACT: note_on channel=1 note=47 velocity=80 time=0
EXTRACT: note_on channel=1 note=52 velocity=0 time=0.2182690125
EXTRACT: note_on channel=1 note=59 velocity=0 time=0
EXTRACT: note_on channel=1 note=40 velocity=0 time=0
EXTRACT: note_on channel=1 note=47 velocity=0 time=0
EXTRACT: note_on channel=0 note=63 velocity=80 time=0.0124999875
EXTRACT: note_on channel=0 note=63 velocity=0 time=0.4605764625
EXTRACT: note_on channel=0 note=64 velocity=80 time=0.0009615375
EXTRACT: note_on channel=1 note=52 velocity=80 time=0
EXTRACT: note_on channel=1 note=59 velocity=80 time=0
EXTRACT: note_on channel=1 note=40 velocity=80 time=0
EXTRACT: note_on channel=1 note=47 velocity=80 time=0
EXTRACT: note_on channel=1 note=52 velocity=0 time=0.2182690125
EXTRACT: note_on channel=1 note=59 velocity=0 time=0
EXTRACT: note_on channel=1 note=40 velocity=0 time=0
EXTRACT: note_on channel=1 note=47 velocity=0 time=0
EXTRACT: note_on channel=0 note=64 velocity=0 time=0.24230745
EXTRACT: note_on channel=0 note=63 velocity=80 time=0.0009615375
EXTRACT: note_on channel=0 note=63 velocity=0 time=0.2298074625
EXTRACT: note_on channel=0 note=61 velocity=80 time=0.0009615375
EXTRACT: note_on channel=0 note=61 velocity=0 time=0.4605764625
EXTRACT: note_on channel=0 note=59 velocity=80 time=0.0009615375
EXTRACT: note_on channel=1 note=59 velocity=80 time=0
EXTRACT: note_on channel=1 note=66 velocity=80 time=0
EXTRACT: note_on channel=1 note=47 velocity=80 time=0
EXTRACT: note_on channel=1 note=54 velocity=80 time=0
EXTRACT: note_on channel=1 note=59 velocity=0 time=0.2182690125
EXTRACT: note_on channel=1 note=66 velocity=0 time=0
EXTRACT: note_on channel=1 note=47 velocity=0 time=0
EXTRACT: note_on channel=1 note=54 velocity=0 time=0
EXTRACT: note_on channel=0 note=59 velocity=0 time=0.01153845
EXTRACT: note_on channel=0 note=59 velocity=80 time=0.4624995375
EXTRACT: note_on channel=1 note=59 velocity=80 time=0
EXTRACT: note_on channel=1 note=66 velocity=80 time=0
EXTRACT: note_on channel=1 note=47 velocity=80 time=0
EXTRACT: note_on channel=1 note=54 velocity=80 time=0
EXTRACT: note_on channel=1 note=59 velocity=0 time=0.2182690125
EXTRACT: note_on channel=1 note=66 velocity=0 time=0
EXTRACT: note_on channel=1 note=47 velocity=0 time=0
EXTRACT: note_on channel=1 note=54 velocity=0 time=0
EXTRACT: note_on channel=0 note=59 velocity=0 time=0.01153845
EXTRACT: note_on channel=0 note=61 velocity=80 time=0.0009615375
EXTRACT: note_on channel=0 note=61 velocity=0 time=0.3451919625
EXTRACT: note_on channel=0 note=61 velocity=80 time=0.0009615375
EXTRACT: note_on channel=0 note=61 velocity=0 time=0.3451919625
EXTRACT: note_on channel=0 note=59 velocity=80 time=0.0009615375
EXTRACT: note_on channel=0 note=59 velocity=0 time=0.2298074625
EXTRACT: note_on channel=0 note=63 velocity=80 time=0.0009615375
EXTRACT: note_on channel=1 note=54 velocity=80 time=0
EXTRACT: note_on channel=1 note=61 velocity=80 time=0
EXTRACT: note_on channel=1 note=42 velocity=80 time=0
EXTRACT: note_on channel=1 note=49 velocity=80 time=0
EXTRACT: note_on channel=1 note=54 velocity=0 time=0.2182690125
EXTRACT: note_on channel=1 note=61 velocity=0 time=0
EXTRACT: note_on channel=1 note=42 velocity=0 time=0
EXTRACT: note_on channel=1 note=49 velocity=0 time=0
EXTRACT: note_on channel=0 note=63 velocity=0 time=0.01153845
EXTRACT: note_on channel=0 note=63 velocity=80 time=0.4624995375
EXTRACT: note_on channel=1 note=54 velocity=80 time=0
EXTRACT: note_on channel=1 note=61 velocity=80 time=0
EXTRACT: note_on channel=1 note=42 velocity=80 time=0
EXTRACT: note_on channel=1 note=49 velocity=80 time=0
EXTRACT: note_on channel=1 note=54 velocity=0 time=0.2182690125
EXTRACT: note_on channel=1 note=61 velocity=0 time=0
EXTRACT: note_on channel=1 note=42 velocity=0 time=0
EXTRACT: note_on channel=1 note=49 velocity=0 time=0
EXTRACT: note_on channel=0 note=63 velocity=0 time=0.01153845
EXTRACT: note_on channel=0 note=63 velocity=80 time=0.0009615375
EXTRACT: note_on channel=0 note=63 velocity=0 time=0.3451919625
EXTRACT: note_on channel=0 note=64 velocity=80 time=0.0009615375
EXTRACT: note_on channel=0 note=64 velocity=0 time=0.3451919625
EXTRACT: note_on channel=0 note=63 velocity=80 time=0.0009615375
EXTRACT: note_on channel=0 note=63 velocity=0 time=0.2298074625
EXTRACT: note_on channel=0 note=66 velocity=80 time=0.0009615375
EXTRACT: note_on channel=1 note=56 velocity=80 time=0
EXTRACT: note_on channel=1 note=63 velocity=80 time=0
EXTRACT: note_on channel=1 note=44 velocity=80 time=0
EXTRACT: note_on channel=1 note=51 velocity=80 time=0
EXTRACT: note_on channel=1 note=56 velocity=0 time=0.2182690125
EXTRACT: note_on channel=1 note=63 velocity=0 time=0
EXTRACT: note_on channel=1 note=44 velocity=0 time=0
EXTRACT: note_on channel=1 note=51 velocity=0 time=0
EXTRACT: note_on channel=0 note=66 velocity=0 time=0.01153845
EXTRACT: note_on channel=0 note=66 velocity=80 time=0.4624995375
EXTRACT: note_on channel=1 note=56 velocity=80 time=0
EXTRACT: note_on channel=1 note=63 velocity=80 time=0
EXTRACT: note_on channel=1 note=44 velocity=80 time=0
EXTRACT: note_on channel=1 note=51 velocity=80 time=0
EXTRACT: note_on channel=1 note=56 velocity=0 time=0.2182690125
EXTRACT: note_on channel=1 note=63 velocity=0 time=0
EXTRACT: note_on channel=1 note=44 velocity=0 time=0
EXTRACT: note_on channel=1 note=51 velocity=0 time=0
EXTRACT: note_on channel=0 note=66 velocity=0 time=0.01153845
EXTRACT: note_on channel=0 note=66 velocity=80 time=0.0009615375
EXTRACT: note_on channel=0 note=66 velocity=0 time=0.3451919625
EXTRACT: note_on channel=0 note=68 velocity=80 time=0.0009615375
EXTRACT: note_on channel=0 note=68 velocity=0 time=0.3451919625
EXTRACT: note_on channel=0 note=66 velocity=80 time=0.0009615375
EXTRACT: note_on channel=0 note=66 velocity=0 time=0.2298074625
EXTRACT: note_on channel=0 note=71 velocity=80 time=0.0009615375
EXTRACT: note_on channel=1 note=52 velocity=80 time=0
EXTRACT: note_on channel=1 note=59 velocity=80 time=0
EXTRACT: note_on channel=1 note=40 velocity=80 time=0
EXTRACT: note_on channel=1 note=47 velocity=80 time=0
EXTRACT: note_on channel=1 note=52 velocity=0 time=0.2182690125
EXTRACT: note_on channel=1 note=59 velocity=0 time=0
EXTRACT: note_on channel=1 note=40 velocity=0 time=0
EXTRACT: note_on channel=1 note=47 velocity=0 time=0
EXTRACT: note_on channel=0 note=71 velocity=0 time=0.01153845
EXTRACT: note_on channel=0 note=59 velocity=80 time=0.4624995375
EXTRACT: note_on channel=0 note=59 velocity=0 time=0.2298074625
EXTRACT: note_on channel=0 note=68 velocity=80 time=0.0009615375
EXTRACT: note_on channel=0 note=68 velocity=0 time=0.2298074625
EXTRACT: note_on channel=0 note=66 velocity=80 time=0.0009615375
EXTRACT: note_on channel=0 note=66 velocity=0 time=0.2298074625
EXTRACT: note_on channel=0 note=66 velocity=80 time=0.0009615375
EXTRACT: note_on channel=0 note=66 velocity=0 time=0.4605764625
EXTRACT: note_on channel=0 note=63 velocity=80 time=0.0009615375
EXTRACT: note_on channel=1 note=59 velocity=80 time=0
EXTRACT: note_on channel=1 note=66 velocity=80 time=0
EXTRACT: note_on channel=1 note=47 velocity=80 time=0
EXTRACT: note_on channel=1 note=54 velocity=80 time=0
EXTRACT: note_on channel=1 note=59 velocity=0 time=0.2182690125
EXTRACT: note_on channel=1 note=66 velocity=0 time=0
EXTRACT: note_on channel=1 note=47 velocity=0 time=0
EXTRACT: note_on channel=1 note=54 velocity=0 time=0
EXTRACT: note_on channel=0 note=63 velocity=0 time=0.01153845
EXTRACT: note_on channel=0 note=59 velocity=80 time=0.4624995375
EXTRACT: note_on channel=1 note=59 velocity=80 time=0
EXTRACT: note_on channel=1 note=66 velocity=80 time=0
EXTRACT: note_on channel=1 note=47 velocity=80 time=0
EXTRACT: note_on channel=1 note=54 velocity=80 time=0
EXTRACT: note_on channel=1 note=59 velocity=0 time=0.2182690125
EXTRACT: note_on channel=1 note=66 velocity=0 time=0
EXTRACT: note_on channel=1 note=47 velocity=0 time=0
EXTRACT: note_on channel=1 note=54 velocity=0 time=0
EXTRACT: note_on channel=0 note=59 velocity=0 time=0.01153845
EXTRACT: note_on channel=0 note=63 velocity=80 time=0.0009615375
EXTRACT: note_on channel=0 note=63 velocity=0 time=0.2298074625
EXTRACT: note_on channel=0 note=66 velocity=80 time=0.0009615375
EXTRACT: note_on channel=0 note=66 velocity=0 time=0.2298074625
EXTRACT: note_on channel=0 note=66 velocity=80 time=0.0009615375
EXTRACT: note_on channel=0 note=66 velocity=0 time=0.2298074625
EXTRACT: note_on channel=0 note=66 velocity=80 time=0.0009615375
EXTRACT: note_on channel=0 note=66 velocity=0 time=0.2298074625
EXTRACT: note_on channel=0 note=66 velocity=80 time=0.0009615375
EXTRACT: note_on channel=1 note=54 velocity=80 time=0
EXTRACT: note_on channel=1 note=61 velocity=80 time=0
EXTRACT: note_on channel=1 note=42 velocity=80 time=0
EXTRACT: note_on channel=1 note=49 velocity=80 time=0
EXTRACT: note_on channel=1 note=54 velocity=0 time=0.2182690125
EXTRACT: note_on channel=1 note=61 velocity=0 time=0
EXTRACT: note_on channel=1 note=42 velocity=0 time=0
EXTRACT: note_on channel=1 note=49 velocity=0 time=0
EXTRACT: note_on channel=0 note=66 velocity=0 time=0.47307645
EXTRACT: note_on channel=0 note=63 velocity=80 time=0.0009615375
EXTRACT: note_on channel=1 note=54 velocity=80 time=0
EXTRACT: note_on channel=1 note=61 velocity=80 time=0
EXTRACT: note_on channel=1 note=42 velocity=80 time=0
EXTRACT: note_on channel=1 note=49 velocity=80 time=0
EXTRACT: note_on channel=1 note=54 velocity=0 time=0.2182690125
EXTRACT: note_on channel=1 note=61 velocity=0 time=0
EXTRACT: note_on channel=1 note=42 velocity=0 time=0
EXTRACT: note_on channel=1 note=49 velocity=0 time=0
EXTRACT: note_on channel=0 note=63 velocity=0 time=0.01153845
EXTRACT: note_on channel=0 note=64 velocity=80 time=0.0009615375
EXTRACT: note_on channel=0 note=64 velocity=0 time=0.3451919625
EXTRACT: note_on channel=0 note=63 velocity=80 time=0.0009615375
EXTRACT: note_on channel=0 note=63 velocity=0 time=0.3451919625
EXTRACT: note_on channel=0 note=61 velocity=80 time=0.0009615375
EXTRACT: note_on channel=0 note=61 velocity=0 time=0.2298074625
EXTRACT: note_on channel=1 note=56 velocity=80 time=0.0009615375
EXTRACT: note_on channel=1 note=63 velocity=80 time=0
EXTRACT: note_on channel=1 note=44 velocity=80 time=0
EXTRACT: note_on channel=1 note=51 velocity=80 time=0
EXTRACT: note_on channel=1 note=56 velocity=0 time=0.2182690125
EXTRACT: note_on channel=1 note=63 velocity=0 time=0
EXTRACT: note_on channel=1 note=44 velocity=0 time=0
EXTRACT: note_on channel=1 note=51 velocity=0 time=0
EXTRACT: note_on channel=0 note=59 velocity=80 time=0.4740379875
EXTRACT: note_on channel=1 note=56 velocity=80 time=0
EXTRACT: note_on channel=1 note=63 velocity=80 time=0
EXTRACT: note_on channel=1 note=44 velocity=80 time=0
EXTRACT: note_on channel=1 note=51 velocity=80 time=0
EXTRACT: note_on channel=1 note=56 velocity=0 time=0.2182690125
EXTRACT: note_on channel=1 note=63 velocity=0 time=0
EXTRACT: note_on channel=1 note=44 velocity=0 time=0
EXTRACT: note_on channel=1 note=51 velocity=0 time=0
EXTRACT: note_on channel=0 note=59 velocity=0 time=0.01153845
EXTRACT: note_on channel=0 note=63 velocity=80 time=0.0009615375
EXTRACT: note_on channel=0 note=63 velocity=0 time=0.2298074625
EXTRACT: note_on channel=0 note=66 velocity=80 time=0.0009615375
EXTRACT: note_on channel=0 note=66 velocity=0 time=0.2298074625
EXTRACT: note_on channel=0 note=66 velocity=80 time=0.0009615375
EXTRACT: note_on channel=0 note=66 velocity=0 time=0.2298074625
EXTRACT: note_on channel=0 note=66 velocity=80 time=0.0009615375
EXTRACT: note_on channel=0 note=66 velocity=0 time=0.2298074625
EXTRACT: note_on channel=0 note=66 velocity=80 time=0.0009615375
EXTRACT: note_on channel=1 note=52 velocity=80 time=0
EXTRACT: note_on channel=1 note=59 velocity=80 time=0
EXTRACT: note_on channel=1 note=40 velocity=80 time=0
EXTRACT: note_on channel=1 note=47 velocity=80 time=0
EXTRACT: note_on channel=1 note=52 velocity=0 time=0.2182690125
EXTRACT: note_on channel=1 note=59 velocity=0 time=0
EXTRACT: note_on channel=1 note=40 velocity=0 time=0
EXTRACT: note_on channel=1 note=47 velocity=0 time=0
EXTRACT: note_on channel=0 note=66 velocity=0 time=0.12692295
EXTRACT: note_on channel=0 note=66 velocity=80 time=0.0009615375
EXTRACT: note_on channel=0 note=66 velocity=0 time=0.3451919625
EXTRACT: note_on channel=0 note=63 velocity=80 time=0.0009615375
EXTRACT: note_on channel=1 note=52 velocity=80 time=0
EXTRACT: note_on channel=1 note=59 velocity=80 time=0
EXTRACT: note_on channel=1 note=40 velocity=80 time=0
EXTRACT: note_on channel=1 note=47 velocity=80 time=0
EXTRACT: note_on channel=1 note=52 velocity=0 time=0.2182690125
EXTRACT: note_on channel=1 note=59 velocity=0 time=0
EXTRACT: note_on channel=1 note=40 velocity=0 time=0
EXTRACT: note_on channel=1 note=47 velocity=0 time=0
EXTRACT: note_on channel=0 note=63 velocity=0 time=0.01153845
EXTRACT: note_on channel=0 note=64 velocity=80 time=0.0009615375
EXTRACT: note_on channel=0 note=64 velocity=0 time=0.3451919625
EXTRACT: note_on channel=0 note=63 velocity=80 time=0.0009615375
EXTRACT: note_on channel=0 note=63 velocity=0 time=0.3451919625
EXTRACT: note_on channel=0 note=61 velocity=80 time=0.0009615375
EXTRACT: note_on channel=0 note=61 velocity=0 time=0.2298074625
EXTRACT: note_on channel=1 note=59 velocity=80 time=0.0009615375
EXTRACT: note_on channel=1 note=66 velocity=80 time=0
EXTRACT: note_on channel=1 note=47 velocity=80 time=0
EXTRACT: note_on channel=1 note=54 velocity=80 time=0
EXTRACT: note_on channel=1 note=59 velocity=0 time=0.2182690125
EXTRACT: note_on channel=1 note=66 velocity=0 time=0
EXTRACT: note_on channel=1 note=47 velocity=0 time=0
EXTRACT: note_on channel=1 note=54 velocity=0 time=0
EXTRACT: note_on channel=1 note=59 velocity=80 time=0.4740379875
EXTRACT: note_on channel=1 note=66 velocity=80 time=0
EXTRACT: note_on channel=1 note=47 velocity=80 time=0
EXTRACT: note_on channel=1 note=54 velocity=80 time=0
EXTRACT: note_on channel=1 note=59 velocity=0 time=0.2182690125
EXTRACT: note_on channel=1 note=66 velocity=0 time=0
EXTRACT: note_on channel=1 note=47 velocity=0 time=0
EXTRACT: note_on channel=1 note=54 velocity=0 time=0
EXTRACT: note_on channel=0 note=59 velocity=80 time=0.2432689875
EXTRACT: note_on channel=0 note=59 velocity=0 time=0.2298074625
EXTRACT: note_on channel=0 note=59 velocity=80 time=0.0009615375
EXTRACT: note_on channel=0 note=59 velocity=0 time=0.2298074625
EXTRACT: note_on channel=0 note=61 velocity=80 time=0.0009615375
EXTRACT: note_on channel=0 note=61 velocity=0 time=0.2298074625
EXTRACT: note_on channel=0 note=63 velocity=80 time=0.0009615375
EXTRACT: note_on channel=1 note=54 velocity=80 time=0
EXTRACT: note_on channel=1 note=61 velocity=80 time=0
EXTRACT: note_on channel=1 note=42 velocity=80 time=0
EXTRACT: note_on channel=1 note=49 velocity=80 time=0
EXTRACT: note_on channel=1 note=54 velocity=0 time=0.2182690125
EXTRACT: note_on channel=1 note=61 velocity=0 time=0
EXTRACT: note_on channel=1 note=42 velocity=0 time=0
EXTRACT: note_on channel=1 note=49 velocity=0 time=0
EXTRACT: note_on channel=0 note=63 velocity=0 time=0.12692295
EXTRACT: note_on channel=0 note=59 velocity=80 time=0.0009615375
EXTRACT: note_on channel=0 note=59 velocity=0 time=0.3451919625
EXTRACT: note_on channel=0 note=61 velocity=80 time=0.0009615375
EXTRACT: note_on channel=1 note=54 velocity=80 time=0
EXTRACT: note_on channel=1 note=61 velocity=80 time=0
EXTRACT: note_on channel=1 note=42 velocity=80 time=0
EXTRACT: note_on channel=1 note=49 velocity=80 time=0
EXTRACT: note_on channel=1 note=54 velocity=0 time=0.2182690125
EXTRACT: note_on channel=1 note=61 velocity=0 time=0
EXTRACT: note_on channel=1 note=42 velocity=0 time=0
EXTRACT: note_on channel=1 note=49 velocity=0 time=0
EXTRACT: note_on channel=0 note=61 velocity=0 time=0.47307645
EXTRACT: note_on channel=0 note=59 velocity=80 time=0.0009615375
EXTRACT: note_on channel=0 note=59 velocity=0 time=0.2298074625
EXTRACT: note_on channel=0 note=59 velocity=80 time=0.0009615375
EXTRACT: note_on channel=0 note=59 velocity=0 time=0.2298074625
EXTRACT: note_on channel=0 note=63 velocity=80 time=0.0009615375
EXTRACT: note_on channel=1 note=52 velocity=80 time=0
EXTRACT: note_on channel=1 note=59 velocity=80 time=0
EXTRACT: note_on channel=1 note=40 velocity=80 time=0
EXTRACT: note_on channel=1 note=47 velocity=80 time=0
EXTRACT: note_on channel=1 note=52 velocity=0 time=0.4374995625
EXTRACT: note_on channel=1 note=59 velocity=0 time=0
EXTRACT: note_on channel=1 note=40 velocity=0 time=0
EXTRACT: note_on channel=1 note=47 velocity=0 time=0
EXTRACT: note_on channel=0 note=63 velocity=0 time=0.0230769
EXTRACT: note_on channel=0 note=63 velocity=80 time=0.0009615375
EXTRACT: note_on channel=1 note=52 velocity=80 time=0
EXTRACT: note_on channel=1 note=59 velocity=80 time=0
EXTRACT: note_on channel=1 note=40 velocity=80 time=0
EXTRACT: note_on channel=1 note=47 velocity=80 time=0
EXTRACT: note_on channel=1 note=52 velocity=0 time=0.4374995625
EXTRACT: note_on channel=1 note=59 velocity=0 time=0
EXTRACT: note_on channel=1 note=40 velocity=0 time=0
EXTRACT: note_on channel=1 note=47 velocity=0 time=0
EXTRACT: note_on channel=0 note=63 velocity=0 time=0.0230769
EXTRACT: note_on channel=0 note=63 velocity=80 time=0.0009615375
EXTRACT: note_on channel=1 note=52 velocity=80 time=0
EXTRACT: note_on channel=1 note=59 velocity=80 time=0
EXTRACT: note_on channel=1 note=40 velocity=80 time=0
EXTRACT: note_on channel=1 note=47 velocity=80 time=0
EXTRACT: note_on channel=1 note=52 velocity=0 time=0.4374995625
EXTRACT: note_on channel=1 note=59 velocity=0 time=0
EXTRACT: note_on channel=1 note=40 velocity=0 time=0
EXTRACT: note_on channel=1 note=47 velocity=0 time=0
EXTRACT: note_on channel=0 note=63 velocity=0 time=0.0230769
EXTRACT: note_on channel=0 note=63 velocity=80 time=0.0009615375
EXTRACT: note_on channel=1 note=52 velocity=80 time=0
EXTRACT: note_on channel=1 note=59 velocity=80 time=0
EXTRACT: note_on channel=1 note=40 velocity=80 time=0
EXTRACT: note_on channel=1 note=47 velocity=80 time=0
EXTRACT: note_on channel=1 note=52 velocity=0 time=0.4374995625
EXTRACT: note_on channel=1 note=59 velocity=0 time=0
EXTRACT: note_on channel=1 note=40 velocity=0 time=0
EXTRACT: note_on channel=1 note=47 velocity=0 time=0
EXTRACT: note_on channel=0 note=63 velocity=0 time=0.0230769
EXTRACT: note_on channel=0 note=63 velocity=80 time=0.0009615375
EXTRACT: note_on channel=1 note=52 velocity=80 time=0
EXTRACT: note_on channel=1 note=59 velocity=80 time=0
EXTRACT: note_on channel=1 note=40 velocity=80 time=0
EXTRACT: note_on channel=1 note=47 velocity=80 time=0
EXTRACT: note_on channel=0 note=63 velocity=0 time=0.2298074625
EXTRACT: note_on channel=0 note=61 velocity=80 time=0.0009615375
EXTRACT: note_on channel=0 note=61 velocity=0 time=0.9221144625
EXTRACT: note_on channel=0 note=63 velocity=80 time=0.0009615375
EXTRACT: note_on channel=0 note=63 velocity=0 time=0.2298074625
EXTRACT: note_on channel=0 note=63 velocity=80 time=0.0009615375
EXTRACT: note_on channel=0 note=63 velocity=0 time=0.2298074625
EXTRACT: note_on channel=0 note=66 velocity=80 time=0.0009615375
EXTRACT: note_on channel=1 note=52 velocity=0 time=0.1374998625
EXTRACT: note_on channel=1 note=59 velocity=0 time=0
EXTRACT: note_on channel=1 note=40 velocity=0 time=0
EXTRACT: note_on channel=1 note=47 velocity=0 time=0
EXTRACT: note_on channel=0 note=66 velocity=0 time=0.0923076
EXTRACT: note_on channel=0 note=66 velocity=80 time=0.0009615375
EXTRACT: note_on channel=1 note=47 velocity=80 time=0
EXTRACT: note_on channel=1 note=47 velocity=0 time=0.2182690125
EXTRACT: note_on channel=1 note=54 velocity=80 time=0.0124999875
EXTRACT: note_on channel=1 note=54 velocity=0 time=0.2182690125
EXTRACT: note_on channel=0 note=66 velocity=0 time=0.01153845
EXTRACT: note_on channel=0 note=63 velocity=80 time=0.0009615375
EXTRACT: note_on channel=1 note=59 velocity=80 time=0
EXTRACT: note_on channel=1 note=59 velocity=0 time=0.2182690125
EXTRACT: note_on channel=1 note=61 velocity=80 time=0.0124999875
EXTRACT: note_on channel=0 note=63 velocity=0 time=0.4605764625
EXTRACT: note_on channel=0 note=63 velocity=80 time=0.0009615375
EXTRACT: note_on channel=0 note=63 velocity=0 time=0.2298074625
EXTRACT: note_on channel=0 note=61 velocity=80 time=0.0009615375
EXTRACT: note_on channel=1 note=61 velocity=0 time=0.1836536625
EXTRACT: note_on channel=0 note=61 velocity=0 time=0.0461538
EXTRACT: note_on channel=0 note=59 velocity=80 time=0.0009615375
EXTRACT: note_on channel=0 note=59 velocity=0 time=0.2298074625
EXTRACT: note_on channel=0 note=61 velocity=80 time=0.0009615375
EXTRACT: note_on channel=1 note=42 velocity=80 time=0
EXTRACT: note_on channel=1 note=42 velocity=0 time=0.2182690125
EXTRACT: note_on channel=1 note=49 velocity=80 time=0.0124999875
EXTRACT: note_on channel=0 note=61 velocity=0 time=0.1144229625
EXTRACT: note_on channel=0 note=61 velocity=80 time=0.0009615375
EXTRACT: note_on channel=1 note=49 velocity=0 time=0.1028845125
EXTRACT: note_on channel=1 note=54 velocity=80 time=0.0124999875
EXTRACT: note_on channel=1 note=54 velocity=0 time=0.2182690125
EXTRACT: note_on channel=0 note=61 velocity=0 time=0.01153845
EXTRACT: note_on channel=0 note=59 velocity=80 time=0.0009615375
EXTRACT: note_on channel=1 note=58 velocity=80 time=0
EXTRACT: note_on channel=0 note=59 velocity=0 time=0.2298074625
EXTRACT: note_on channel=0 note=61 velocity=80 time=0.0009615375
EXTRACT: note_on channel=0 note=61 velocity=0 time=0.4605764625
EXTRACT: note_on channel=0 note=63 velocity=80 time=0.0009615375
EXTRACT: note_on channel=1 note=58 velocity=0 time=0.1836536625
EXTRACT: note_on channel=0 note=63 velocity=0 time=0.2769228
EXTRACT: note_on channel=1 note=44 velocity=80 time=0.0009615375
EXTRACT: note_on channel=1 note=44 velocity=0 time=0.2182690125
EXTRACT: note_on channel=0 note=63 velocity=80 time=0.0124999875
EXTRACT: note_on channel=1 note=51 velocity=80 time=0
EXTRACT: note_on channel=1 note=51 velocity=0 time=0.2182690125
EXTRACT: note_on channel=0 note=63 velocity=0 time=0.01153845
EXTRACT: note_on channel=0 note=63 velocity=80 time=0.0009615375
EXTRACT: note_on channel=1 note=56 velocity=80 time=0
EXTRACT: note_on channel=1 note=56 velocity=0 time=0.2182690125
EXTRACT: note_on channel=0 note=63 velocity=0 time=0.01153845
EXTRACT: note_on channel=0 note=63 velocity=80 time=0.0009615375
EXTRACT: note_on channel=1 note=59 velocity=80 time=0
EXTRACT: note_on channel=0 note=63 velocity=0 time=0.2298074625
EXTRACT: note_on channel=0 note=64 velocity=80 time=0.0009615375
EXTRACT: note_on channel=0 note=64 velocity=0 time=0.2298074625
EXTRACT: note_on channel=0 note=63 velocity=80 time=0.0009615375
EXTRACT: note_on channel=0 note=63 velocity=0 time=0.2298074625
EXTRACT: note_on channel=0 note=61 velocity=80 time=0.0009615375
EXTRACT: note_on channel=1 note=59 velocity=0 time=0.1836536625
EXTRACT: note_on channel=0 note=61 velocity=0 time=0.0461538
EXTRACT: note_on channel=0 note=59 velocity=80 time=0.0009615375
EXTRACT: note_on channel=0 note=59 velocity=0 time=0.2298074625
EXTRACT: note_on channel=0 note=61 velocity=80 time=0.0009615375
EXTRACT: note_on channel=1 note=40 velocity=80 time=0
EXTRACT: note_on channel=1 note=40 velocity=0 time=0.2182690125
EXTRACT: note_on channel=0 note=61 velocity=0 time=0.01153845
EXTRACT: note_on channel=0 note=61 velocity=80 time=0.0009615375
EXTRACT: note_on channel=1 note=47 velocity=80 time=0
EXTRACT: note_on channel=1 note=47 velocity=0 time=0.2182690125
EXTRACT: note_on channel=0 note=61 velocity=0 time=0.01153845
EXTRACT: note_on channel=0 note=61 velocity=80 time=0.0009615375
EXTRACT: note_on channel=1 note=52 velocity=80 time=0
EXTRACT: note_on channel=1 note=52 velocity=0 time=0.2182690125
EXTRACT: note_on channel=0 note=61 velocity=0 time=0.01153845
EXTRACT: note_on channel=0 note=59 velocity=80 time=0.0009615375
EXTRACT: note_on channel=1 note=56 velocity=80 time=0
EXTRACT: note_on channel=0 note=59 velocity=0 time=0.2298074625
EXTRACT: note_on channel=0 note=61 velocity=80 time=0.0009615375
EXTRACT: note_on channel=0 note=61 velocity=0 time=0.4605764625
EXTRACT: note_on channel=0 note=63 velocity=80 time=0.0009615375
EXTRACT: note_on channel=1 note=56 velocity=0 time=0.1836536625
EXTRACT: note_on channel=0 note=63 velocity=0 time=0.2769228
EXTRACT: note_on channel=1 note=47 velocity=80 time=0.0009615375
EXTRACT: note_on channel=1 note=47 velocity=0 time=0.2182690125
EXTRACT: note_on channel=1 note=54 velocity=80 time=0.0124999875
EXTRACT: note_on channel=1 note=54 velocity=0 time=0.2182690125
EXTRACT: note_on channel=1 note=59 velocity=80 time=0.0124999875
EXTRACT: note_on channel=1 note=59 velocity=0 time=0.2182690125
EXTRACT: note_on channel=1 note=61 velocity=80 time=0.0124999875
EXTRACT: note_on channel=0 note=59 velocity=80 time=0.461538
EXTRACT: note_on channel=0 note=59 velocity=0 time=0.2298074625
EXTRACT: note_on channel=0 note=66 velocity=80 time=0.0009615375
EXTRACT: note_on channel=1 note=61 velocity=0 time=0.1836536625
EXTRACT: note_on channel=0 note=66 velocity=0 time=0.0461538
EXTRACT: note_on channel=0 note=64 velocity=80 time=0.0009615375
EXTRACT: note_on channel=1 note=42 velocity=80 time=0.230769
EXTRACT: note_on channel=1 note=42 velocity=0 time=0.2182690125
EXTRACT: note_on channel=0 note=64 velocity=0 time=0.01153845
EXTRACT: note_on channel=0 note=63 velocity=80 time=0.0009615375
EXTRACT: note_on channel=1 note=49 velocity=80 time=0
EXTRACT: note_on channel=1 note=49 velocity=0 time=0.2182690125
EXTRACT: note_on channel=1 note=54 velocity=80 time=0.0124999875
EXTRACT: note_on channel=1 note=54 velocity=0 time=0.2182690125
EXTRACT: note_on channel=0 note=63 velocity=0 time=0.01153845
EXTRACT: note_on channel=0 note=61 velocity=80 time=0.0009615375
EXTRACT: note_on channel=1 note=58 velocity=80 time=0
EXTRACT: note_on channel=0 note=61 velocity=0 time=0.4605764625
EXTRACT: note_on channel=0 note=63 velocity=80 time=0.0009615375
EXTRACT: note_on channel=1 note=58 velocity=0 time=0.4144226625
EXTRACT: note_on channel=0 note=63 velocity=0 time=0.0461538
EXTRACT: note_on channel=0 note=59 velocity=80 time=0.0009615375
EXTRACT: note_on channel=0 note=59 velocity=0 time=0.2298074625
EXTRACT: note_on channel=1 note=44 velocity=80 time=0.0009615375
EXTRACT: note_on channel=1 note=44 velocity=0 time=0.2182690125
EXTRACT: note_on channel=1 note=51 velocity=80 time=0.0124999875
EXTRACT: note_on channel=1 note=51 velocity=0 time=0.2182690125
EXTRACT: note_on channel=1 note=56 velocity=80 time=0.0124999875
EXTRACT: note_on channel=1 note=56 velocity=0 time=0.2182690125
EXTRACT: note_on channel=1 note=59 velocity=80 time=0.0124999875
EXTRACT: note_on channel=1 note=59 velocity=0 time=0.8759606625
EXTRACT: note_on channel=1 note=49 velocity=80 time=0.0471153375
EXTRACT: note_on channel=1 note=49 velocity=0 time=0.2182690125
EXTRACT: note_on channel=1 note=52 velocity=80 time=0.0124999875
EXTRACT: note_on channel=1 note=52 velocity=0 time=0.3278842875
EXTRACT: note_on channel=1 note=52 velocity=80 time=0.0182692125
EXTRACT: note_on channel=1 note=52 velocity=0 time=0.3278842875
EXTRACT: note_on channel=1 note=52 velocity=80 time=0.0182692125
EXTRACT: note_on channel=1 note=52 velocity=0 time=0.2182690125
EXTRACT: note_on channel=1 note=51 velocity=80 time=0.0124999875
EXTRACT: note_on channel=0 note=63 velocity=80 time=0.230769
EXTRACT: note_on channel=1 note=51 velocity=0 time=0.2067305625
EXTRACT: note_on channel=0 note=63 velocity=0 time=0.0230769
EXTRACT: note_on channel=0 note=63 velocity=80 time=0.0009615375
EXTRACT: note_on channel=1 note=49 velocity=80 time=0
EXTRACT: note_on channel=0 note=63 velocity=0 time=0.2298074625
EXTRACT: note_on channel=0 note=66 velocity=80 time=0.0009615375
EXTRACT: note_on channel=1 note=49 velocity=0 time=0.2067305625
EXTRACT: note_on channel=0 note=66 velocity=0 time=0.0230769
EXTRACT: note_on channel=0 note=66 velocity=80 time=0.0009615375
EXTRACT: note_on channel=1 note=47 velocity=80 time=0
EXTRACT: note_on channel=1 note=47 velocity=0 time=0.2182690125
EXTRACT: note_on channel=1 note=54 velocity=80 time=0.0124999875
EXTRACT: note_on channel=1 note=54 velocity=0 time=0.2182690125
EXTRACT: note_on channel=0 note=66 velocity=0 time=0.01153845
EXTRACT: note_on channel=0 note=63 velocity=80 time=0.0009615375
EXTRACT: note_on channel=1 note=59 velocity=80 time=0
EXTRACT: note_on channel=1 note=59 velocity=0 time=0.2182690125
EXTRACT: note_on channel=1 note=61 velocity=80 time=0.0124999875
EXTRACT: note_on channel=0 note=63 velocity=0 time=0.4605764625
EXTRACT: note_on channel=0 note=63 velocity=80 time=0.0009615375
EXTRACT: note_on channel=0 note=63 velocity=0 time=0.2298074625
EXTRACT: note_on channel=0 note=61 velocity=80 time=0.0009615375
EXTRACT: note_on channel=1 note=61 velocity=0 time=0.1836536625
EXTRACT: note_on channel=0 note=61 velocity=0 time=0.0461538
EXTRACT: note_on channel=0 note=59 velocity=80 time=0.0009615375
EXTRACT: note_on channel=0 note=59 velocity=0 time=0.2298074625
EXTRACT: note_on channel=0 note=61 velocity=80 time=0.0009615375
EXTRACT: note_on channel=1 note=42 velocity=80 time=0
EXTRACT: note_on channel=1 note=42 velocity=0 time=0.2182690125
EXTRACT: note_on channel=1 note=49 velocity=80 time=0.0124999875
EXTRACT: note_on channel=0 note=61 velocity=0 time=0.1144229625
EXTRACT: note_on channel=0 note=61 velocity=80 time=0.0009615375
EXTRACT: note_on channel=1 note=49 velocity=0 time=0.1028845125
EXTRACT: note_on channel=1 note=54 velocity=80 time=0.0124999875
EXTRACT: note_on channel=1 note=54 velocity=0 time=0.2182690125
EXTRACT: note_on channel=0 note=61 velocity=0 time=0.01153845
EXTRACT: note_on channel=0 note=59 velocity=80 time=0.0009615375
EXTRACT: note_on channel=1 note=58 velocity=80 time=0
EXTRACT: note_on channel=0 note=59 velocity=0 time=0.2298074625
EXTRACT: note_on channel=0 note=61 velocity=80 time=0.0009615375
EXTRACT: note_on channel=0 note=61 velocity=0 time=0.4605764625
EXTRACT: note_on channel=0 note=63 velocity=80 time=0.0009615375
EXTRACT: note_on channel=1 note=58 velocity=0 time=0.1836536625
EXTRACT: note_on channel=0 note=63 velocity=0 time=0.2769228
EXTRACT: note_on channel=1 note=44 velocity=80 time=0.0009615375
EXTRACT: note_on channel=1 note=44 velocity=0 time=0.2182690125
EXTRACT: note_on channel=0 note=63 velocity=80 time=0.0124999875
EXTRACT: note_on channel=1 note=51 velocity=80 time=0
EXTRACT: note_on channel=1 note=51 velocity=0 time=0.2182690125
EXTRACT: note_on channel=0 note=63 velocity=0 time=0.01153845
EXTRACT: note_on channel=0 note=63 velocity=80 time=0.0009615375
EXTRACT: note_on channel=1 note=56 velocity=80 time=0
EXTRACT: note_on channel=1 note=56 velocity=0 time=0.2182690125
EXTRACT: note_on channel=0 note=63 velocity=0 time=0.01153845
EXTRACT: note_on channel=0 note=63 velocity=80 time=0.0009615375
EXTRACT: note_on channel=1 note=59 velocity=80 time=0
EXTRACT: note_on channel=0 note=63 velocity=0 time=0.2298074625
EXTRACT: note_on channel=0 note=64 velocity=80 time=0.0009615375
EXTRACT: note_on channel=0 note=64 velocity=0 time=0.2298074625
EXTRACT: note_on channel=0 note=63 velocity=80 time=0.0009615375
EXTRACT: note_on channel=0 note=63 velocity=0 time=0.2298074625
EXTRACT: note_on channel=0 note=61 velocity=80 time=0.0009615375
EXTRACT: note_on channel=1 note=59 velocity=0 time=0.1836536625
EXTRACT: note_on channel=0 note=61 velocity=0 time=0.0461538
EXTRACT: note_on channel=0 note=59 velocity=80 time=0.0009615375
EXTRACT: note_on channel=0 note=59 velocity=0 time=0.2298074625
EXTRACT: note_on channel=0 note=61 velocity=80 time=0.0009615375
EXTRACT: note_on channel=1 note=40 velocity=80 time=0
EXTRACT: note_on channel=1 note=40 velocity=0 time=0.2182690125
EXTRACT: note_on channel=1 note=47 velocity=80 time=0.0124999875
EXTRACT: note_on channel=0 note=61 velocity=0 time=0.1144229625
EXTRACT: note_on channel=0 note=61 velocity=80 time=0.0009615375
EXTRACT: note_on channel=1 note=47 velocity=0 time=0.1028845125
EXTRACT: note_on channel=1 note=52 velocity=80 time=0.0124999875
EXTRACT: note_on channel=1 note=52 velocity=0 time=0.2182690125
EXTRACT: note_on channel=0 note=61 velocity=0 time=0.01153845
EXTRACT: note_on channel=0 note=59 velocity=80 time=0.0009615375
EXTRACT: note_on channel=1 note=56 velocity=80 time=0
EXTRACT: note_on channel=0 note=59 velocity=0 time=0.2298074625
EXTRACT: note_on channel=0 note=61 velocity=80 time=0.0009615375
EXTRACT: note_on channel=0 note=61 velocity=0 time=0.4605764625
EXTRACT: note_on channel=0 note=63 velocity=80 time=0.0009615375
EXTRACT: note_on channel=1 note=56 velocity=0 time=0.1836536625
EXTRACT: note_on channel=0 note=63 velocity=0 time=0.2769228
EXTRACT: note_on channel=1 note=47 velocity=80 time=0.0009615375
EXTRACT: note_on channel=1 note=47 velocity=0 time=0.2182690125
EXTRACT: note_on channel=1 note=54 velocity=80 time=0.0124999875
EXTRACT: note_on channel=1 note=54 velocity=0 time=0.2182690125
EXTRACT: note_on channel=1 note=59 velocity=80 time=0.0124999875
EXTRACT: note_on channel=1 note=59 velocity=0 time=0.2182690125
EXTRACT: note_on channel=1 note=61 velocity=80 time=0.0124999875
EXTRACT: note_on channel=0 note=59 velocity=80 time=0.461538
EXTRACT: note_on channel=0 note=59 velocity=0 time=0.2298074625
EXTRACT: note_on channel=0 note=66 velocity=80 time=0.0009615375
EXTRACT: note_on channel=1 note=61 velocity=0 time=0.1836536625
EXTRACT: note_on channel=0 note=66 velocity=0 time=0.0461538
EXTRACT: note_on channel=0 note=64 velocity=80 time=0.0009615375
EXTRACT: note_on channel=1 note=42 velocity=80 time=0.230769
EXTRACT: note_on channel=1 note=42 velocity=0 time=0.2182690125
EXTRACT: note_on channel=0 note=64 velocity=0 time=0.01153845
EXTRACT: note_on channel=0 note=63 velocity=80 time=0.0009615375
EXTRACT: note_on channel=1 note=49 velocity=80 time=0
EXTRACT: note_on channel=1 note=49 velocity=0 time=0.2182690125
EXTRACT: note_on channel=1 note=54 velocity=80 time=0.0124999875
EXTRACT: note_on channel=1 note=54 velocity=0 time=0.2182690125
EXTRACT: note_on channel=0 note=63 velocity=0 time=0.01153845
EXTRACT: note_on channel=0 note=61 velocity=80 time=0.0009615375
EXTRACT: note_on channel=1 note=58 velocity=80 time=0
EXTRACT: note_on channel=0 note=61 velocity=0 time=0.4605764625
EXTRACT: note_on channel=0 note=63 velocity=80 time=0.0009615375
EXTRACT: note_on channel=1 note=58 velocity=0 time=0.4144226625
EXTRACT: note_on channel=0 note=63 velocity=0 time=0.0461538
EXTRACT: note_on channel=0 note=59 velocity=80 time=0.0009615375
EXTRACT: note_on channel=0 note=59 velocity=0 time=0.2298074625
EXTRACT: note_on channel=1 note=44 velocity=80 time=0.0009615375
EXTRACT: note_on channel=1 note=44 velocity=0 time=0.2182690125
EXTRACT: note_on channel=1 note=51 velocity=80 time=0.0124999875
EXTRACT: note_on channel=1 note=51 velocity=0 time=0.2182690125
EXTRACT: note_on channel=1 note=56 velocity=80 time=0.0124999875
EXTRACT: note_on channel=1 note=56 velocity=0 time=0.2182690125
EXTRACT: note_on channel=1 note=59 velocity=80 time=0.0124999875
EXTRACT: note_on channel=0 note=54 velocity=80 time=0.461538
EXTRACT: note_on channel=0 note=54 velocity=0 time=0.2298074625
EXTRACT: note_on channel=0 note=63 velocity=80 time=0.0009615375
EXTRACT: note_on channel=1 note=59 velocity=0 time=0.1836536625
EXTRACT: note_on channel=0 note=63 velocity=0 time=0.0461538
EXTRACT: note_on channel=0 note=61 velocity=80 time=0.0009615375
EXTRACT: note_on channel=0 note=61 velocity=0 time=0.2298074625
EXTRACT: note_on channel=1 note=40 velocity=80 time=0.0009615375
EXTRACT: note_on channel=1 note=40 velocity=0 time=0.2182690125
EXTRACT: note_on channel=1 note=47 velocity=80 time=0.0124999875
EXTRACT: note_on channel=1 note=47 velocity=0 time=0.2182690125
EXTRACT: note_on channel=1 note=52 velocity=80 time=0.0124999875
EXTRACT: note_on channel=1 note=52 velocity=0 time=0.2182690125
EXTRACT: note_on channel=1 note=56 velocity=80 time=0.0124999875
EXTRACT: note_on channel=1 note=56 velocity=0 time=0.8759606625
EXTRACT: note_on channel=1 note=44 velocity=80 time=0.2778843375
EXTRACT: note_on channel=1 note=51 velocity=80 time=0
EXTRACT: note_on channel=0 note=59 velocity=80 time=0.692307
EXTRACT: note_on channel=0 note=59 velocity=0 time=0.2298074625
EXTRACT: note_on channel=0 note=68 velocity=80 time=0.0009615375
EXTRACT: note_on channel=0 note=68 velocity=0 time=0.2298074625
EXTRACT: note_on channel=0 note=66 velocity=80 time=0.0009615375
EXTRACT: note_on channel=0 note=66 velocity=0 time=0.2298074625
EXTRACT: note_on channel=0 note=63 velocity=80 time=0.0009615375
EXTRACT: note_on channel=0 note=63 velocity=0 time=0.2298074625
EXTRACT: note_on channel=0 note=63 velocity=80 time=0.0009615375
EXTRACT: note_on channel=1 note=44 velocity=0 time=0.1374998625
EXTRACT: note_on channel=1 note=51 velocity=0 time=0
EXTRACT: note_on channel=0 note=63 velocity=0 time=0.3230766
EXTRACT: note_on channel=0 note=66 velocity=80 time=0.0009615375
EXTRACT: note_on channel=0 note=66 velocity=0 time=0.4605764625
EXTRACT: note_on channel=0 note=61 velocity=80 time=0.0009615375
EXTRACT: note_on channel=0 note=61 velocity=0 time=0.6913454625
EXTRACT: note_on channel=0 note=59 velocity=80 time=0.0009615375
EXTRACT: note_on channel=0 note=59 velocity=0 time=0.2298074625
EXTRACT: note_on channel=0 note=59 velocity=80 time=0.0009615375
EXTRACT: note_on channel=0 note=59 velocity=0 time=0.2298074625
EXTRACT: note_on channel=0 note=66 velocity=80 time=0.0009615375
EXTRACT: note_on channel=1 note=40 velocity=80 time=0
EXTRACT: note_on channel=1 note=47 velocity=80 time=0
EXTRACT: note_on channel=1 note=40 velocity=0 time=0.4374995625
EXTRACT: note_on channel=1 note=47 velocity=0 time=0
EXTRACT: note_on channel=0 note=66 velocity=0 time=0.0230769
EXTRACT: note_on channel=0 note=66 velocity=80 time=0.0009615375
EXTRACT: note_on channel=1 note=40 velocity=80 time=0
EXTRACT: note_on channel=1 note=47 velocity=80 time=0
EXTRACT: note_on channel=1 note=40 velocity=0 time=0.4374995625
EXTRACT: note_on channel=1 note=47 velocity=0 time=0
EXTRACT: note_on channel=0 note=66 velocity=0 time=0.0230769
EXTRACT: note_on channel=0 note=66 velocity=80 time=0.0009615375
EXTRACT: note_on channel=1 note=40 velocity=80 time=0
EXTRACT: note_on channel=1 note=47 velocity=80 time=0
EXTRACT: note_on channel=1 note=40 velocity=0 time=0.4374995625
EXTRACT: note_on channel=1 note=47 velocity=0 time=0
EXTRACT: note_on channel=0 note=66 velocity=0 time=0.0230769
EXTRACT: note_on channel=0 note=68 velocity=80 time=0.0009615375
EXTRACT: note_on channel=1 note=40 velocity=80 time=0
EXTRACT: note_on channel=1 note=47 velocity=80 time=0
EXTRACT: note_on channel=1 note=40 velocity=0 time=0.4374995625
EXTRACT: note_on channel=1 note=47 velocity=0 time=0
EXTRACT: note_on channel=0 note=68 velocity=0 time=0.0230769
EXTRACT: note_on channel=0 note=66 velocity=80 time=0.0009615375
EXTRACT: note_on channel=1 note=40 velocity=80 time=0
EXTRACT: note_on channel=1 note=47 velocity=80 time=0
EXTRACT: note_on channel=0 note=66 velocity=0 time=0.2298074625
EXTRACT: note_on channel=0 note=63 velocity=80 time=0.0009615375
EXTRACT: note_on channel=0 note=63 velocity=0 time=0.2298074625
EXTRACT: note_on channel=0 note=61 velocity=80 time=0.0009615375
EXTRACT: note_on channel=0 note=61 velocity=0 time=0.9221144625
EXTRACT: note_on channel=0 note=59 velocity=80 time=0.0009615375
EXTRACT: note_on channel=1 note=40 velocity=0 time=0.3682688625
EXTRACT: note_on channel=1 note=47 velocity=0 time=0
EXTRACT: note_on channel=0 note=59 velocity=0 time=0.0923076
EXTRACT: note_on channel=1 note=47 velocity=80 time=0.0009615375
EXTRACT: note_on channel=1 note=47 velocity=0 time=0.2182690125
EXTRACT: note_on channel=1 note=54 velocity=80 time=0.0124999875
EXTRACT: note_on channel=1 note=54 velocity=0 time=0.2182690125
EXTRACT: note_on channel=1 note=59 velocity=80 time=0.0124999875
EXTRACT: note_on channel=1 note=59 velocity=0 time=0.2182690125
EXTRACT: note_on channel=1 note=61 velocity=80 time=0.0124999875
EXTRACT: note_on channel=0 note=59 velocity=64 time=0.461538
EXTRACT: note_on channel=0 note=59 velocity=0 time=0.2298074625
EXTRACT: note_on channel=0 note=63 velocity=64 time=0.0009615375
EXTRACT: note_on channel=1 note=61 velocity=0 time=0.1836536625
EXTRACT: note_on channel=0 note=63 velocity=0 time=0.0461538
EXTRACT: note_on channel=0 note=63 velocity=64 time=0.0009615375
EXTRACT: note_on channel=1 note=42 velocity=80 time=0.230769
EXTRACT: note_on channel=1 note=42 velocity=0 time=0.2182690125
EXTRACT: note_on channel=0 note=63 velocity=0 time=0.01153845
EXTRACT: note_on channel=0 note=61 velocity=64 time=0.0009615375
EXTRACT: note_on channel=1 note=49 velocity=80 time=0
EXTRACT: note_on channel=1 note=49 velocity=0 time=0.2182690125
EXTRACT: note_on channel=1 note=54 velocity=80 time=0.0124999875
EXTRACT: note_on channel=1 note=54 velocity=0 time=0.2182690125
EXTRACT: note_on channel=0 note=61 velocity=0 time=0.01153845
EXTRACT: note_on channel=0 note=61 velocity=64 time=0.0009615375
EXTRACT: note_on channel=1 note=58 velocity=80 time=0
EXTRACT: note_on channel=0 note=61 velocity=0 time=0.6913454625
EXTRACT: note_on channel=0 note=59 velocity=64 time=0.0009615375
EXTRACT: note_on channel=1 note=58 velocity=0 time=0.1836536625
EXTRACT: note_on channel=0 note=59 velocity=0 time=0.2769228
EXTRACT: note_on channel=1 note=44 velocity=80 time=0.0009615375
EXTRACT: note_on channel=1 note=44 velocity=0 time=0.2182690125
EXTRACT: note_on channel=1 note=51 velocity=80 time=0.0124999875
EXTRACT: note_on channel=1 note=51 velocity=0 time=0.2182690125
EXTRACT: note_on channel=1 note=56 velocity=80 time=0.0124999875
EXTRACT: note_on channel=1 note=56 velocity=0 time=0.2182690125
EXTRACT: note_on channel=1 note=59 velocity=80 time=0.0124999875
EXTRACT: note_on channel=0 note=59 velocity=64 time=0.461538
EXTRACT: note_on channel=0 note=59 velocity=0 time=0.2298074625
EXTRACT: note_on channel=0 note=63 velocity=64 time=0.0009615375
EXTRACT: note_on channel=1 note=59 velocity=0 time=0.1836536625
EXTRACT: note_on channel=0 note=63 velocity=0 time=0.0461538
EXTRACT: note_on channel=0 note=63 velocity=64 time=0.0009615375
EXTRACT: note_on channel=1 note=40 velocity=80 time=0.230769
EXTRACT: note_on channel=1 note=40 velocity=0 time=0.2182690125
EXTRACT: note_on channel=0 note=63 velocity=0 time=0.01153845
EXTRACT: note_on channel=0 note=66 velocity=64 time=0.0009615375
EXTRACT: note_on channel=1 note=47 velocity=80 time=0
EXTRACT: note_on channel=1 note=47 velocity=0 time=0.2182690125
EXTRACT: note_on channel=1 note=52 velocity=80 time=0.0124999875
EXTRACT: note_on channel=1 note=52 velocity=0 time=0.2182690125
EXTRACT: note_on channel=0 note=66 velocity=0 time=0.01153845
EXTRACT: note_on channel=0 note=61 velocity=64 time=0.0009615375
EXTRACT: note_on channel=1 note=56 velocity=80 time=0
EXTRACT: note_on channel=0 note=61 velocity=0 time=0.6913454625
EXTRACT: note_on channel=0 note=59 velocity=64 time=0.0009615375
EXTRACT: note_on channel=1 note=56 velocity=0 time=0.1836536625
EXTRACT: note_on channel=0 note=59 velocity=0 time=0.2769228
EXTRACT: note_on channel=1 note=47 velocity=80 time=0.0009615375
EXTRACT: note_on channel=1 note=47 velocity=0 time=0.2182690125
EXTRACT: note_on channel=1 note=54 velocity=80 time=0.0124999875
EXTRACT: note_on channel=1 note=54 velocity=0 time=0.2182690125
EXTRACT: note_on channel=1 note=59 velocity=80 time=0.0124999875
EXTRACT: note_on channel=1 note=59 velocity=0 time=0.2182690125
EXTRACT: note_on channel=0 note=59 velocity=64 time=0.0124999875
EXTRACT: note_on channel=1 note=61 velocity=80 time=0
EXTRACT: note_on channel=0 note=59 velocity=0 time=0.2298074625
EXTRACT: note_on channel=0 note=59 velocity=64 time=0.0009615375
EXTRACT: note_on channel=0 note=59 velocity=0 time=0.2298074625
EXTRACT: note_on channel=0 note=63 velocity=64 time=0.0009615375
EXTRACT: note_on channel=1 note=61 velocity=0 time=0.4144226625
EXTRACT: note_on channel=0 note=63 velocity=0 time=0.0461538
EXTRACT: note_on channel=0 note=63 velocity=64 time=0.0009615375
EXTRACT: note_on channel=1 note=42 velocity=80 time=0.230769
EXTRACT: note_on channel=1 note=42 velocity=0 time=0.2182690125
EXTRACT: note_on channel=0 note=63 velocity=0 time=0.01153845
EXTRACT: note_on channel=0 note=61 velocity=64 time=0.0009615375
EXTRACT: note_on channel=1 note=49 velocity=80 time=0
EXTRACT: note_on channel=1 note=49 velocity=0 time=0.2182690125
EXTRACT: note_on channel=1 note=54 velocity=80 time=0.0124999875
EXTRACT: note_on channel=1 note=54 velocity=0 time=0.2182690125
EXTRACT: note_on channel=0 note=61 velocity=0 time=0.01153845
EXTRACT: note_on channel=0 note=61 velocity=64 time=0.0009615375
EXTRACT: note_on channel=1 note=58 velocity=80 time=0
EXTRACT: note_on channel=0 note=61 velocity=0 time=0.6913454625
EXTRACT: note_on channel=0 note=59 velocity=64 time=0.0009615375
EXTRACT: note_on channel=1 note=58 velocity=0 time=0.1836536625
EXTRACT: note_on channel=0 note=59 velocity=0 time=0.0461538
EXTRACT: note_on channel=0 note=59 velocity=64 time=0.0009615375
EXTRACT: note_on channel=1 note=44 velocity=80 time=0.230769
EXTRACT: note_on channel=1 note=44 velocity=0 time=0.2182690125
EXTRACT: note_on channel=1 note=51 velocity=80 time=0.0124999875
EXTRACT: note_on channel=1 note=51 velocity=0 time=0.2182690125
EXTRACT: note_on channel=1 note=56 velocity=80 time=0.0124999875
EXTRACT: note_on channel=1 note=56 velocity=0 time=0.2182690125
EXTRACT: note_on channel=1 note=59 velocity=80 time=0.0124999875
EXTRACT: note_on channel=0 note=59 velocity=0 time=0.2298074625
EXTRACT: note_on channel=0 note=66 velocity=64 time=0.4624995375
EXTRACT: note_on channel=1 note=59 velocity=0 time=0.1836536625
EXTRACT: note_on channel=0 note=66 velocity=0 time=0.0461538
EXTRACT: note_on channel=0 note=66 velocity=64 time=0.0009615375
EXTRACT: note_on channel=1 note=40 velocity=80 time=0.230769
EXTRACT: note_on channel=1 note=40 velocity=0 time=0.2182690125
EXTRACT: note_on channel=0 note=66 velocity=0 time=0.01153845
EXTRACT: note_on channel=0 note=64 velocity=64 time=0.0009615375
EXTRACT: note_on channel=1 note=47 velocity=80 time=0
EXTRACT: note_on channel=1 note=47 velocity=0 time=0.2182690125
EXTRACT: note_on channel=1 note=52 velocity=80 time=0.0124999875
EXTRACT: note_on channel=1 note=52 velocity=0 time=0.2182690125
EXTRACT: note_on channel=1 note=56 velocity=80 time=0.0124999875
EXTRACT: note_on channel=0 note=64 velocity=0 time=0.4605764625
EXTRACT: note_on channel=1 note=56 velocity=0 time=0.4153842
EXTRACT: note_on channel=1 note=47 velocity=80 time=0.2778843375
EXTRACT: note_on channel=1 note=47 velocity=0 time=0.2182690125
EXTRACT: note_on channel=1 note=54 velocity=80 time=0.0124999875
EXTRACT: note_on channel=1 note=54 velocity=0 time=0.2182690125
EXTRACT: note_on channel=1 note=59 velocity=80 time=0.0124999875
EXTRACT: note_on channel=1 note=59 velocity=0 time=0.2182690125
EXTRACT: note_on channel=1 note=61 velocity=80 time=0.0124999875
EXTRACT: note_on channel=0 note=59 velocity=64 time=0.461538
EXTRACT: note_on channel=0 note=59 velocity=0 time=0.2298074625
EXTRACT: note_on channel=0 note=63 velocity=64 time=0.0009615375
EXTRACT: note_on channel=1 note=61 velocity=0 time=0.1836536625
EXTRACT: note_on channel=0 note=63 velocity=0 time=0.0461538
EXTRACT: note_on channel=0 note=63 velocity=64 time=0.0009615375
EXTRACT: note_on channel=1 note=42 velocity=80 time=0.230769
EXTRACT: note_on channel=1 note=42 velocity=0 time=0.2182690125
EXTRACT: note_on channel=0 note=63 velocity=0 time=0.01153845
EXTRACT: note_on channel=0 note=61 velocity=64 time=0.0009615375
EXTRACT: note_on channel=1 note=49 velocity=80 time=0
EXTRACT: note_on channel=1 note=49 velocity=0 time=0.2182690125
EXTRACT: note_on channel=1 note=54 velocity=80 time=0.0124999875
EXTRACT: note_on channel=1 note=54 velocity=0 time=0.2182690125
EXTRACT: note_on channel=0 note=61 velocity=0 time=0.01153845
EXTRACT: note_on channel=0 note=61 velocity=64 time=0.0009615375
EXTRACT: note_on channel=1 note=58 velocity=80 time=0
EXTRACT: note_on channel=0 note=61 velocity=0 time=0.6913454625
EXTRACT: note_on channel=0 note=59 velocity=64 time=0.0009615375
EXTRACT: note_on channel=1 note=58 velocity=0 time=0.1836536625
EXTRACT: note_on channel=0 note=59 velocity=0 time=0.2769228
EXTRACT: note_on channel=1 note=44 velocity=80 time=0.0009615375
EXTRACT: note_on channel=1 note=44 velocity=0 time=0.2182690125
EXTRACT: note_on channel=1 note=51 velocity=80 time=0.0124999875
EXTRACT: note_on channel=1 note=51 velocity=0 time=0.2182690125
EXTRACT: note_on channel=1 note=56 velocity=80 time=0.0124999875
EXTRACT: note_on channel=1 note=56 velocity=0 time=0.2182690125
EXTRACT: note_on channel=1 note=59 velocity=80 time=0.0124999875
EXTRACT: note_on channel=0 note=59 velocity=64 time=0.461538
EXTRACT: note_on channel=0 note=59 velocity=0 time=0.2298074625
EXTRACT: note_on channel=0 note=63 velocity=64 time=0.0009615375
EXTRACT: note_on channel=1 note=59 velocity=0 time=0.1836536625
EXTRACT: note_on channel=0 note=63 velocity=0 time=0.0461538
EXTRACT: note_on channel=0 note=63 velocity=64 time=0.0009615375
EXTRACT: note_on channel=1 note=40 velocity=80 time=0.230769
EXTRACT: note_on channel=1 note=40 velocity=0 time=0.2182690125
EXTRACT: note_on channel=0 note=63 velocity=0 time=0.01153845
EXTRACT: note_on channel=0 note=66 velocity=64 time=0.0009615375
EXTRACT: note_on channel=1 note=47 velocity=80 time=0
EXTRACT: note_on channel=1 note=47 velocity=0 time=0.2182690125
EXTRACT: note_on channel=1 note=52 velocity=80 time=0.0124999875
EXTRACT: note_on channel=1 note=52 velocity=0 time=0.2182690125
EXTRACT: note_on channel=0 note=66 velocity=0 time=0.01153845
EXTRACT: note_on channel=0 note=61 velocity=64 time=0.0009615375
EXTRACT: note_on channel=1 note=56 velocity=80 time=0
EXTRACT: note_on channel=0 note=61 velocity=0 time=0.6913454625
EXTRACT: note_on channel=0 note=59 velocity=64 time=0.0009615375
EXTRACT: note_on channel=1 note=56 velocity=0 time=0.1836536625
EXTRACT: note_on channel=0 note=59 velocity=0 time=0.2769228
EXTRACT: note_on channel=1 note=47 velocity=80 time=0.0009615375
EXTRACT: note_on channel=1 note=47 velocity=0 time=0.2182690125
EXTRACT: note_on channel=1 note=54 velocity=80 time=0.0124999875
EXTRACT: note_on channel=1 note=54 velocity=0 time=0.2182690125
EXTRACT: note_on channel=1 note=59 velocity=80 time=0.0124999875
EXTRACT: note_on channel=1 note=59 velocity=0 time=0.2182690125
EXTRACT: note_on channel=0 note=59 velocity=64 time=0.0124999875
EXTRACT: note_on channel=1 note=61 velocity=80 time=0
EXTRACT: note_on channel=0 note=59 velocity=0 time=0.2298074625
EXTRACT: note_on channel=0 note=59 velocity=64 time=0.0009615375
EXTRACT: note_on channel=0 note=59 velocity=0 time=0.2298074625
EXTRACT: note_on channel=0 note=63 velocity=64 time=0.0009615375
EXTRACT: note_on channel=1 note=61 velocity=0 time=0.4144226625
EXTRACT: note_on channel=0 note=63 velocity=0 time=0.0461538
EXTRACT: note_on channel=0 note=63 velocity=64 time=0.0009615375
EXTRACT: note_on channel=1 note=42 velocity=80 time=0.230769
EXTRACT: note_on channel=1 note=42 velocity=0 time=0.2182690125
EXTRACT: note_on channel=0 note=63 velocity=0 time=0.01153845
EXTRACT: note_on channel=0 note=61 velocity=64 time=0.0009615375
EXTRACT: note_on channel=1 note=49 velocity=80 time=0
EXTRACT: note_on channel=1 note=49 velocity=0 time=0.2182690125
EXTRACT: note_on channel=1 note=54 velocity=80 time=0.0124999875
EXTRACT: note_on channel=1 note=54 velocity=0 time=0.2182690125
EXTRACT: note_on channel=0 note=61 velocity=0 time=0.01153845
EXTRACT: note_on channel=0 note=61 velocity=64 time=0.0009615375
EXTRACT: note_on channel=1 note=58 velocity=80 time=0
EXTRACT: note_on channel=0 note=61 velocity=0 time=0.6913454625
EXTRACT: note_on channel=0 note=59 velocity=64 time=0.0009615375
EXTRACT: note_on channel=1 note=58 velocity=0 time=0.1836536625
EXTRACT: note_on channel=0 note=59 velocity=0 time=0.0461538
EXTRACT: note_on channel=0 note=59 velocity=64 time=0.0009615375
EXTRACT: note_on channel=1 note=44 velocity=80 time=0.230769
EXTRACT: control_change channel=1 control=64 value=127 time=0.001923075
EXTRACT: note_on channel=1 note=44 velocity=0 time=0.2163459375
EXTRACT: note_on channel=1 note=51 velocity=80 time=0.0124999875
EXTRACT: note_on channel=1 note=51 velocity=0 time=0.2182690125
EXTRACT: note_on channel=1 note=56 velocity=80 time=0.0124999875
EXTRACT: note_on channel=1 note=56 velocity=0 time=0.2182690125
EXTRACT: note_on channel=1 note=59 velocity=80 time=0.0124999875
EXTRACT: note_on channel=0 note=59 velocity=0 time=0.2298074625
EXTRACT: note_on channel=0 note=66 velocity=64 time=0.4624995375
EXTRACT: note_on channel=1 note=59 velocity=0 time=0.1836536625
EXTRACT: note_on channel=0 note=66 velocity=0 time=0.0461538
EXTRACT: note_on channel=0 note=66 velocity=64 time=0.0009615375
EXTRACT: note_on channel=1 note=40 velocity=80 time=0.230769
EXTRACT: control_change channel=1 control=64 value=0 time=0.0009615375
EXTRACT: control_change channel=1 control=64 value=127 time=0.0009615375
EXTRACT: note_on channel=0 note=66 velocity=0 time=0.2278843875
EXTRACT: note_on channel=0 note=64 velocity=64 time=0.0009615375
EXTRACT: note_on channel=1 note=47 velocity=80 time=0
EXTRACT: note_on channel=1 note=52 velocity=80 time=0.230769
EXTRACT: note_on channel=1 note=56 velocity=80 time=0.230769
EXTRACT: note_on channel=0 note=64 velocity=0 time=0.4605764625
EXTRACT: control_change channel=1 control=64 value=0 time=0.694230075
EXTRACT: note_on channel=1 note=40 velocity=0 time=0.124999875
EXTRACT: note_on channel=1 note=47 velocity=0 time=0.230769
EXTRACT: note_on channel=1 note=52 velocity=0 time=0.230769
EXTRACT: note_on channel=1 note=56 velocity=0 time=0.88846065
