EXTRACT: control_change channel=0 control=121 value=0 time=0EXTRACT: program_change channel=0 program=0 time=0EXTRACT: control_change channel=0 control=7 value=100 time=0EXTRACT: control_change channel=0 control=10 value=64 time=0EXTRACT: control_change channel=0 control=91 value=0 time=0EXTRACT: control_change channel=0 control=93 value=0 time=0EXTRACT: control_change channel=1 control=121 value=0 time=0EXTRACT: program_change channel=1 program=0 time=0EXTRACT: control_change channel=1 control=7 value=100 time=0EXTRACT: control_change channel=1 control=10 value=64 time=0EXTRACT: control_change channel=1 control=91 value=0 time=0EXTRACT: control_change channel=1 control=93 value=0 time=0EXTRACT: note_on channel=1 note=51 velocity=80 time=0EXTRACT: note_on channel=1 note=55 velocity=80 time=0EXTRACT: note_on channel=1 note=58 velocity=80 time=0EXTRACT: note_on channel=1 note=62 velocity=80 time=0EXTRACT: note_on channel=1 note=24 velocity=80 time=0EXTRACT: note_on channel=1 note=36 velocity=80 time=0EXTRACT: note_on channel=1 note=51 velocity=0 time=1.5183333333333333EXTRACT: note_on channel=1 note=55 velocity=0 time=0EXTRACT: note_on channel=1 note=58 velocity=0 time=0EXTRACT: note_on channel=1 note=62 velocity=0 time=0EXTRACT: note_on channel=1 note=24 velocity=0 time=0EXTRACT: note_on channel=1 note=36 velocity=0 time=0EXTRACT: note_on channel=1 note=51 velocity=80 time=0.08166666666666667EXTRACT: note_on channel=1 note=55 velocity=80 time=0EXTRACT: note_on channel=1 note=58 velocity=80 time=0EXTRACT: note_on channel=1 note=62 velocity=80 time=0EXTRACT: note_on channel=1 note=24 velocity=80 time=0EXTRACT: note_on channel=1 note=36 velocity=80 time=0EXTRACT: note_on channel=1 note=51 velocity=0 time=0.7583333333333333EXTRACT: note_on channel=1 note=55 velocity=0 time=0EXTRACT: note_on channel=1 note=58 velocity=0 time=0EXTRACT: note_on channel=1 note=62 velocity=0 time=0EXTRACT: note_on channel=1 note=24 velocity=0 time=0EXTRACT: note_on channel=1 note=36 velocity=0 time=0EXTRACT: note_on channel=1 note=55 velocity=80 time=0.041666666666666664EXTRACT: note_on channel=1 note=58 velocity=80 time=0EXTRACT: note_on channel=1 note=63 velocity=80 time=0EXTRACT: note_on channel=1 note=27 velocity=80 time=0EXTRACT: note_on channel=1 note=39 velocity=80 time=0EXTRACT: note_on channel=1 note=55 velocity=0 time=0.7583333333333333EXTRACT: note_on channel=1 note=58 velocity=0 time=0EXTRACT: note_on channel=1 note=63 velocity=0 time=0EXTRACT: note_on channel=1 note=27 velocity=0 time=0EXTRACT: note_on channel=1 note=39 velocity=0 time=0EXTRACT: note_on channel=1 note=58 velocity=80 time=0.041666666666666664EXTRACT: note_on channel=1 note=60 velocity=80 time=0EXTRACT: note_on channel=1 note=63 velocity=80 time=0EXTRACT: note_on channel=1 note=67 velocity=80 time=0EXTRACT: note_on channel=1 note=32 velocity=80 time=0EXTRACT: note_on channel=1 note=44 velocity=80 time=0EXTRACT: note_on channel=1 note=58 velocity=0 time=1.5183333333333333EXTRACT: note_on channel=1 note=60 velocity=0 time=0EXTRACT: note_on channel=1 note=63 velocity=0 time=0EXTRACT: note_on channel=1 note=67 velocity=0 time=0EXTRACT: note_on channel=1 note=58 velocity=80 time=0.08166666666666667EXTRACT: note_on channel=1 note=60 velocity=80 time=0EXTRACT: note_on channel=1 note=63 velocity=80 time=0EXTRACT: note_on channel=1 note=67 velocity=80 time=0EXTRACT: note_on channel=1 note=58 velocity=0 time=0.3783333333333333EXTRACT: note_on channel=1 note=60 velocity=0 time=0EXTRACT: note_on channel=1 note=63 velocity=0 time=0EXTRACT: note_on channel=1 note=67 velocity=0 time=0EXTRACT: note_on channel=1 note=65 velocity=80 time=0.021666666666666664EXTRACT: note_on channel=1 note=65 velocity=0 time=0.3783333333333333EXTRACT: note_on channel=1 note=63 velocity=80 time=0.021666666666666664EXTRACT: note_on channel=1 note=63 velocity=0 time=0.3783333333333333EXTRACT: note_on channel=1 note=62 velocity=80 time=0.021666666666666664EXTRACT: note_on channel=1 note=32 velocity=0 time=0.2383333333333333EXTRACT: note_on channel=1 note=44 velocity=0 time=0EXTRACT: note_on channel=1 note=62 velocity=0 time=0.13999999999999999EXTRACT: note_on channel=1 note=51 velocity=80 time=0.021666666666666664EXTRACT: note_on channel=1 note=55 velocity=80 time=0EXTRACT: note_on channel=1 note=58 velocity=80 time=0EXTRACT: note_on channel=1 note=62 velocity=80 time=0EXTRACT: note_on channel=1 note=24 velocity=80 time=0EXTRACT: note_on channel=1 note=36 velocity=80 time=0EXTRACT: note_on channel=1 note=51 velocity=0 time=1.5183333333333333EXTRACT: note_on channel=1 note=55 velocity=0 time=0EXTRACT: note_on channel=1 note=58 velocity=0 time=0EXTRACT: note_on channel=1 note=62 velocity=0 time=0EXTRACT: note_on channel=1 note=24 velocity=0 time=0EXTRACT: note_on channel=1 note=36 velocity=0 time=0EXTRACT: note_on channel=1 note=51 velocity=80 time=0.08166666666666667EXTRACT: note_on channel=1 note=55 velocity=80 time=0EXTRACT: note_on channel=1 note=58 velocity=80 time=0EXTRACT: note_on channel=1 note=62 velocity=80 time=0EXTRACT: note_on channel=1 note=24 velocity=80 time=0EXTRACT: note_on channel=1 note=36 velocity=80 time=0EXTRACT: note_on channel=1 note=51 velocity=0 time=0.7583333333333333EXTRACT: note_on channel=1 note=55 velocity=0 time=0EXTRACT: note_on channel=1 note=58 velocity=0 time=0EXTRACT: note_on channel=1 note=62 velocity=0 time=0EXTRACT: note_on channel=1 note=24 velocity=0 time=0EXTRACT: note_on channel=1 note=36 velocity=0 time=0EXTRACT: note_on channel=1 note=55 velocity=80 time=0.041666666666666664EXTRACT: note_on channel=1 note=58 velocity=80 time=0EXTRACT: note_on channel=1 note=63 velocity=80 time=0EXTRACT: note_on channel=1 note=27 velocity=80 time=0EXTRACT: note_on channel=1 note=39 velocity=80 time=0EXTRACT: note_on channel=1 note=55 velocity=0 time=0.7583333333333333EXTRACT: note_on channel=1 note=58 velocity=0 time=0EXTRACT: note_on channel=1 note=63 velocity=0 time=0EXTRACT: note_on channel=1 note=27 velocity=0 time=0EXTRACT: note_on channel=1 note=39 velocity=0 time=0EXTRACT: note_on channel=1 note=58 velocity=80 time=0.041666666666666664EXTRACT: note_on channel=1 note=60 velocity=80 time=0EXTRACT: note_on channel=1 note=63 velocity=80 time=0EXTRACT: note_on channel=1 note=67 velocity=80 time=0EXTRACT: note_on channel=1 note=32 velocity=80 time=0EXTRACT: note_on channel=1 note=44 velocity=80 time=0EXTRACT: note_on channel=1 note=58 velocity=0 time=1.5183333333333333EXTRACT: note_on channel=1 note=60 velocity=0 time=0EXTRACT: note_on channel=1 note=63 velocity=0 time=0EXTRACT: note_on channel=1 note=67 velocity=0 time=0EXTRACT: note_on channel=1 note=58 velocity=80 time=0.08166666666666667EXTRACT: note_on channel=1 note=60 velocity=80 time=0EXTRACT: note_on channel=1 note=63 velocity=80 time=0EXTRACT: note_on channel=1 note=67 velocity=80 time=0EXTRACT: note_on channel=1 note=58 velocity=0 time=0.7583333333333333EXTRACT: note_on channel=1 note=60 velocity=0 time=0EXTRACT: note_on channel=1 note=63 velocity=0 time=0EXTRACT: note_on channel=1 note=67 velocity=0 time=0EXTRACT: note_on channel=1 note=63 velocity=80 time=0.041666666666666664EXTRACT: note_on channel=1 note=32 velocity=0 time=0.6383333333333333EXTRACT: note_on channel=1 note=44 velocity=0 time=0EXTRACT: note_on channel=1 note=63 velocity=0 time=0.12EXTRACT: note_on channel=1 note=51 velocity=80 time=0EXTRACT: note_on channel=1 note=55 velocity=80 time=0EXTRACT: note_on channel=1 note=58 velocity=80 time=0EXTRACT: note_on channel=1 note=62 velocity=80 time=0EXTRACT: note_on channel=1 note=24 velocity=80 time=0EXTRACT: note_on channel=1 note=36 velocity=80 time=0EXTRACT: note_on channel=1 note=51 velocity=0 time=1.5183333333333333EXTRACT: note_on channel=1 note=55 velocity=0 time=0EXTRACT: note_on channel=1 note=58 velocity=0 time=0EXTRACT: note_on channel=1 note=62 velocity=0 time=0EXTRACT: note_on channel=1 note=24 velocity=0 time=0EXTRACT: note_on channel=1 note=36 velocity=0 time=0EXTRACT: note_on channel=1 note=51 velocity=80 time=0.08166666666666667EXTRACT: note_on channel=1 note=55 velocity=80 time=0EXTRACT: note_on channel=1 note=58 velocity=80 time=0EXTRACT: note_on channel=1 note=62 velocity=80 time=0EXTRACT: note_on channel=1 note=24 velocity=80 time=0EXTRACT: note_on channel=1 note=36 velocity=80 time=0EXTRACT: note_on channel=1 note=51 velocity=0 time=0.7583333333333333EXTRACT: note_on channel=1 note=55 velocity=0 time=0EXTRACT: note_on channel=1 note=58 velocity=0 time=0EXTRACT: note_on channel=1 note=62 velocity=0 time=0EXTRACT: note_on channel=1 note=24 velocity=0 time=0EXTRACT: note_on channel=1 note=36 velocity=0 time=0EXTRACT: note_on channel=1 note=55 velocity=80 time=0.041666666666666664EXTRACT: note_on channel=1 note=58 velocity=80 time=0EXTRACT: note_on channel=1 note=63 velocity=80 time=0EXTRACT: note_on channel=1 note=27 velocity=80 time=0EXTRACT: note_on channel=1 note=39 velocity=80 time=0EXTRACT: note_on channel=1 note=55 velocity=0 time=0.7583333333333333EXTRACT: note_on channel=1 note=58 velocity=0 time=0EXTRACT: note_on channel=1 note=63 velocity=0 time=0EXTRACT: note_on channel=1 note=27 velocity=0 time=0EXTRACT: note_on channel=1 note=39 velocity=0 time=0EXTRACT: note_on channel=1 note=58 velocity=80 time=0.041666666666666664EXTRACT: note_on channel=1 note=60 velocity=80 time=0EXTRACT: note_on channel=1 note=63 velocity=80 time=0EXTRACT: note_on channel=1 note=67 velocity=80 time=0EXTRACT: note_on channel=1 note=32 velocity=80 time=0EXTRACT: note_on channel=1 note=44 velocity=80 time=0EXTRACT: note_on channel=1 note=58 velocity=0 time=1.5183333333333333EXTRACT: note_on channel=1 note=60 velocity=0 time=0EXTRACT: note_on channel=1 note=63 velocity=0 time=0EXTRACT: note_on channel=1 note=67 velocity=0 time=0EXTRACT: note_on channel=1 note=58 velocity=80 time=0.08166666666666667EXTRACT: note_on channel=1 note=60 velocity=80 time=0EXTRACT: note_on channel=1 note=63 velocity=80 time=0EXTRACT: note_on channel=1 note=67 velocity=80 time=0EXTRACT: note_on channel=1 note=58 velocity=0 time=0.3783333333333333EXTRACT: note_on channel=1 note=60 velocity=0 time=0EXTRACT: note_on channel=1 note=63 velocity=0 time=0EXTRACT: note_on channel=1 note=67 velocity=0 time=0EXTRACT: note_on channel=1 note=65 velocity=80 time=0.021666666666666664EXTRACT: note_on channel=1 note=65 velocity=0 time=0.3783333333333333EXTRACT: note_on channel=1 note=63 velocity=80 time=0.021666666666666664EXTRACT: note_on channel=1 note=63 velocity=0 time=0.3783333333333333EXTRACT: note_on channel=1 note=62 velocity=80 time=0.021666666666666664EXTRACT: note_on channel=1 note=32 velocity=0 time=0.2383333333333333EXTRACT: note_on channel=1 note=44 velocity=0 time=0EXTRACT: note_on channel=1 note=62 velocity=0 time=0.13999999999999999EXTRACT: note_on channel=1 note=51 velocity=80 time=0.021666666666666664EXTRACT: note_on channel=1 note=55 velocity=80 time=0EXTRACT: note_on channel=1 note=58 velocity=80 time=0EXTRACT: note_on channel=1 note=62 velocity=80 time=0EXTRACT: note_on channel=1 note=24 velocity=80 time=0EXTRACT: note_on channel=1 note=36 velocity=80 time=0EXTRACT: note_on channel=1 note=51 velocity=0 time=1.5183333333333333EXTRACT: note_on channel=1 note=55 velocity=0 time=0EXTRACT: note_on channel=1 note=58 velocity=0 time=0EXTRACT: note_on channel=1 note=62 velocity=0 time=0EXTRACT: note_on channel=1 note=24 velocity=0 time=0EXTRACT: note_on channel=1 note=36 velocity=0 time=0EXTRACT: note_on channel=1 note=51 velocity=80 time=0.08166666666666667EXTRACT: note_on channel=1 note=55 velocity=80 time=0EXTRACT: note_on channel=1 note=58 velocity=80 time=0EXTRACT: note_on channel=1 note=62 velocity=80 time=0EXTRACT: note_on channel=1 note=24 velocity=80 time=0EXTRACT: note_on channel=1 note=36 velocity=80 time=0EXTRACT: note_on channel=1 note=51 velocity=0 time=0.7583333333333333EXTRACT: note_on channel=1 note=55 velocity=0 time=0EXTRACT: note_on channel=1 note=58 velocity=0 time=0EXTRACT: note_on channel=1 note=62 velocity=0 time=0EXTRACT: note_on channel=1 note=24 velocity=0 time=0EXTRACT: note_on channel=1 note=36 velocity=0 time=0EXTRACT: note_on channel=1 note=55 velocity=80 time=0.041666666666666664EXTRACT: note_on channel=1 note=58 velocity=80 time=0EXTRACT: note_on channel=1 note=63 velocity=80 time=0EXTRACT: note_on channel=1 note=27 velocity=80 time=0EXTRACT: note_on channel=1 note=39 velocity=80 time=0EXTRACT: note_on channel=1 note=55 velocity=0 time=0.7583333333333333EXTRACT: note_on channel=1 note=58 velocity=0 time=0EXTRACT: note_on channel=1 note=63 velocity=0 time=0EXTRACT: note_on channel=1 note=27 velocity=0 time=0EXTRACT: note_on channel=1 note=39 velocity=0 time=0EXTRACT: note_on channel=1 note=58 velocity=80 time=0.041666666666666664EXTRACT: note_on channel=1 note=60 velocity=80 time=0EXTRACT: note_on channel=1 note=63 velocity=80 time=0EXTRACT: note_on channel=1 note=67 velocity=80 time=0EXTRACT: note_on channel=1 note=32 velocity=80 time=0EXTRACT: note_on channel=1 note=44 velocity=80 time=0EXTRACT: note_on channel=1 note=58 velocity=0 time=1.5183333333333333EXTRACT: note_on channel=1 note=60 velocity=0 time=0EXTRACT: note_on channel=1 note=63 velocity=0 time=0EXTRACT: note_on channel=1 note=67 velocity=0 time=0EXTRACT: note_on channel=1 note=58 velocity=80 time=0.08166666666666667EXTRACT: note_on channel=1 note=60 velocity=80 time=0EXTRACT: note_on channel=1 note=63 velocity=80 time=0EXTRACT: note_on channel=1 note=67 velocity=80 time=0EXTRACT: note_on channel=1 note=58 velocity=0 time=0.7583333333333333EXTRACT: note_on channel=1 note=60 velocity=0 time=0EXTRACT: note_on channel=1 note=63 velocity=0 time=0EXTRACT: note_on channel=1 note=67 velocity=0 time=0EXTRACT: note_on channel=1 note=63 velocity=80 time=0.041666666666666664EXTRACT: note_on channel=1 note=32 velocity=0 time=0.6383333333333333EXTRACT: note_on channel=1 note=44 velocity=0 time=0EXTRACT: note_on channel=1 note=63 velocity=0 time=0.12EXTRACT: note_on channel=1 note=51 velocity=80 time=0.041666666666666664EXTRACT: note_on channel=1 note=55 velocity=80 time=0EXTRACT: note_on channel=1 note=58 velocity=80 time=0EXTRACT: note_on channel=1 note=62 velocity=80 time=0EXTRACT: note_on channel=1 note=24 velocity=80 time=0EXTRACT: note_on channel=1 note=36 velocity=80 time=0EXTRACT: note_on channel=1 note=51 velocity=0 time=1.5183333333333333EXTRACT: note_on channel=1 note=55 velocity=0 time=0EXTRACT: note_on channel=1 note=58 velocity=0 time=0EXTRACT: note_on channel=1 note=62 velocity=0 time=0EXTRACT: note_on channel=1 note=24 velocity=0 time=0EXTRACT: note_on channel=1 note=36 velocity=0 time=0EXTRACT: note_on channel=1 note=51 velocity=80 time=0.08166666666666667EXTRACT: note_on channel=1 note=55 velocity=80 time=0EXTRACT: note_on channel=1 note=58 velocity=80 time=0EXTRACT: note_on channel=1 note=62 velocity=80 time=0EXTRACT: note_on channel=1 note=24 velocity=80 time=0EXTRACT: note_on channel=1 note=36 velocity=80 time=0EXTRACT: note_on channel=1 note=51 velocity=0 time=0.7583333333333333EXTRACT: note_on channel=1 note=55 velocity=0 time=0EXTRACT: note_on channel=1 note=58 velocity=0 time=0EXTRACT: note_on channel=1 note=62 velocity=0 time=0EXTRACT: note_on channel=1 note=24 velocity=0 time=0EXTRACT: note_on channel=1 note=36 velocity=0 time=0EXTRACT: note_on channel=1 note=55 velocity=80 time=0.041666666666666664EXTRACT: note_on channel=1 note=58 velocity=80 time=0EXTRACT: note_on channel=1 note=63 velocity=80 time=0EXTRACT: note_on channel=1 note=27 velocity=80 time=0EXTRACT: note_on channel=1 note=39 velocity=80 time=0EXTRACT: note_on channel=1 note=55 velocity=0 time=0.7583333333333333EXTRACT: note_on channel=1 note=58 velocity=0 time=0EXTRACT: note_on channel=1 note=63 velocity=0 time=0EXTRACT: note_on channel=1 note=27 velocity=0 time=0EXTRACT: note_on channel=1 note=39 velocity=0 time=0EXTRACT: note_on channel=1 note=58 velocity=80 time=0.041666666666666664EXTRACT: note_on channel=1 note=60 velocity=80 time=0EXTRACT: note_on channel=1 note=63 velocity=80 time=0EXTRACT: note_on channel=1 note=67 velocity=80 time=0EXTRACT: note_on channel=1 note=32 velocity=80 time=0EXTRACT: note_on channel=1 note=44 velocity=80 time=0EXTRACT: note_on channel=1 note=58 velocity=0 time=1.5183333333333333EXTRACT: note_on channel=1 note=60 velocity=0 time=0EXTRACT: note_on channel=1 note=63 velocity=0 time=0EXTRACT: note_on channel=1 note=67 velocity=0 time=0EXTRACT: note_on channel=1 note=58 velocity=80 time=0.08166666666666667EXTRACT: note_on channel=1 note=60 velocity=80 time=0EXTRACT: note_on channel=1 note=63 velocity=80 time=0EXTRACT: note_on channel=1 note=67 velocity=80 time=0EXTRACT: note_on channel=1 note=58 velocity=0 time=0.3783333333333333EXTRACT: note_on channel=1 note=60 velocity=0 time=0EXTRACT: note_on channel=1 note=63 velocity=0 time=0EXTRACT: note_on channel=1 note=67 velocity=0 time=0EXTRACT: note_on channel=1 note=65 velocity=80 time=0.021666666666666664EXTRACT: note_on channel=1 note=65 velocity=0 time=0.3783333333333333EXTRACT: note_on channel=1 note=63 velocity=80 time=0.021666666666666664EXTRACT: note_on channel=1 note=63 velocity=0 time=0.3783333333333333EXTRACT: note_on channel=1 note=62 velocity=80 time=0.021666666666666664EXTRACT: note_on channel=1 note=32 velocity=0 time=0.2383333333333333EXTRACT: note_on channel=1 note=44 velocity=0 time=0EXTRACT: note_on channel=1 note=62 velocity=0 time=0.13999999999999999EXTRACT: note_on channel=1 note=51 velocity=80 time=0.021666666666666664EXTRACT: note_on channel=1 note=55 velocity=80 time=0EXTRACT: note_on channel=1 note=58 velocity=80 time=0EXTRACT: note_on channel=1 note=62 velocity=80 time=0EXTRACT: note_on channel=1 note=24 velocity=80 time=0EXTRACT: note_on channel=1 note=36 velocity=80 time=0EXTRACT: note_on channel=1 note=51 velocity=0 time=1.5183333333333333EXTRACT: note_on channel=1 note=55 velocity=0 time=0EXTRACT: note_on channel=1 note=58 velocity=0 time=0EXTRACT: note_on channel=1 note=62 velocity=0 time=0EXTRACT: note_on channel=1 note=24 velocity=0 time=0EXTRACT: note_on channel=1 note=36 velocity=0 time=0EXTRACT: note_on channel=1 note=51 velocity=80 time=0.08166666666666667EXTRACT: note_on channel=1 note=55 velocity=80 time=0EXTRACT: note_on channel=1 note=58 velocity=80 time=0EXTRACT: note_on channel=1 note=62 velocity=80 time=0EXTRACT: note_on channel=1 note=24 velocity=80 time=0EXTRACT: note_on channel=1 note=36 velocity=80 time=0EXTRACT: note_on channel=1 note=51 velocity=0 time=0.7583333333333333EXTRACT: note_on channel=1 note=55 velocity=0 time=0EXTRACT: note_on channel=1 note=58 velocity=0 time=0EXTRACT: note_on channel=1 note=62 velocity=0 time=0EXTRACT: note_on channel=1 note=24 velocity=0 time=0EXTRACT: note_on channel=1 note=36 velocity=0 time=0EXTRACT: note_on channel=1 note=55 velocity=80 time=0.041666666666666664EXTRACT: note_on channel=1 note=58 velocity=80 time=0EXTRACT: note_on channel=1 note=63 velocity=80 time=0EXTRACT: note_on channel=1 note=27 velocity=80 time=0EXTRACT: note_on channel=1 note=39 velocity=80 time=0EXTRACT: note_on channel=1 note=55 velocity=0 time=0.7583333333333333EXTRACT: note_on channel=1 note=58 velocity=0 time=0EXTRACT: note_on channel=1 note=63 velocity=0 time=0EXTRACT: note_on channel=1 note=27 velocity=0 time=0EXTRACT: note_on channel=1 note=39 velocity=0 time=0EXTRACT: note_on channel=1 note=58 velocity=80 time=0.041666666666666664EXTRACT: note_on channel=1 note=60 velocity=80 time=0EXTRACT: note_on channel=1 note=63 velocity=80 time=0EXTRACT: note_on channel=1 note=67 velocity=80 time=0EXTRACT: note_on channel=1 note=32 velocity=80 time=0EXTRACT: note_on channel=1 note=44 velocity=80 time=0EXTRACT: note_on channel=1 note=58 velocity=0 time=1.5183333333333333EXTRACT: note_on channel=1 note=60 velocity=0 time=0EXTRACT: note_on channel=1 note=63 velocity=0 time=0EXTRACT: note_on channel=1 note=67 velocity=0 time=0EXTRACT: note_on channel=1 note=58 velocity=80 time=0.08166666666666667EXTRACT: note_on channel=1 note=60 velocity=80 time=0EXTRACT: note_on channel=1 note=63 velocity=80 time=0EXTRACT: note_on channel=1 note=67 velocity=80 time=0EXTRACT: note_on channel=1 note=58 velocity=0 time=0.7583333333333333EXTRACT: note_on channel=1 note=60 velocity=0 time=0EXTRACT: note_on channel=1 note=63 velocity=0 time=0EXTRACT: note_on channel=1 note=67 velocity=0 time=0EXTRACT: note_on channel=1 note=63 velocity=80 time=0.041666666666666664EXTRACT: note_on channel=1 note=32 velocity=0 time=0.6383333333333333EXTRACT: note_on channel=1 note=44 velocity=0 time=0EXTRACT: note_on channel=1 note=63 velocity=0 time=0.12EXTRACT: note_on channel=1 note=51 velocity=80 time=0.041666666666666664EXTRACT: note_on channel=1 note=55 velocity=80 time=0EXTRACT: note_on channel=1 note=58 velocity=80 time=0EXTRACT: note_on channel=1 note=62 velocity=80 time=0EXTRACT: note_on channel=1 note=24 velocity=80 time=0EXTRACT: note_on channel=1 note=36 velocity=80 time=0EXTRACT: note_on channel=1 note=51 velocity=0 time=1.5183333333333333EXTRACT: note_on channel=1 note=55 velocity=0 time=0EXTRACT: note_on channel=1 note=58 velocity=0 time=0EXTRACT: note_on channel=1 note=62 velocity=0 time=0EXTRACT: note_on channel=1 note=24 velocity=0 time=0EXTRACT: note_on channel=1 note=36 velocity=0 time=0EXTRACT: note_on channel=1 note=51 velocity=80 time=0.08166666666666667EXTRACT: note_on channel=1 note=55 velocity=80 time=0EXTRACT: note_on channel=1 note=58 velocity=80 time=0EXTRACT: note_on channel=1 note=62 velocity=80 time=0EXTRACT: note_on channel=1 note=24 velocity=80 time=0EXTRACT: note_on channel=1 note=36 velocity=80 time=0EXTRACT: note_on channel=1 note=51 velocity=0 time=0.7583333333333333EXTRACT: note_on channel=1 note=55 velocity=0 time=0EXTRACT: note_on channel=1 note=58 velocity=0 time=0EXTRACT: note_on channel=1 note=62 velocity=0 time=0EXTRACT: note_on channel=1 note=24 velocity=0 time=0EXTRACT: note_on channel=1 note=36 velocity=0 time=0EXTRACT: note_on channel=1 note=55 velocity=80 time=0.041666666666666664EXTRACT: note_on channel=1 note=58 velocity=80 time=0EXTRACT: note_on channel=1 note=63 velocity=80 time=0EXTRACT: note_on channel=1 note=27 velocity=80 time=0EXTRACT: note_on channel=1 note=39 velocity=80 time=0EXTRACT: note_on channel=1 note=55 velocity=0 time=0.7583333333333333EXTRACT: note_on channel=1 note=58 velocity=0 time=0EXTRACT: note_on channel=1 note=63 velocity=0 time=0EXTRACT: note_on channel=1 note=27 velocity=0 time=0EXTRACT: note_on channel=1 note=39 velocity=0 time=0EXTRACT: note_on channel=1 note=58 velocity=80 time=0.041666666666666664EXTRACT: note_on channel=1 note=60 velocity=80 time=0EXTRACT: note_on channel=1 note=63 velocity=80 time=0EXTRACT: note_on channel=1 note=67 velocity=80 time=0EXTRACT: note_on channel=1 note=32 velocity=80 time=0EXTRACT: note_on channel=1 note=44 velocity=80 time=0EXTRACT: note_on channel=1 note=58 velocity=0 time=1.5183333333333333EXTRACT: note_on channel=1 note=60 velocity=0 time=0EXTRACT: note_on channel=1 note=63 velocity=0 time=0EXTRACT: note_on channel=1 note=67 velocity=0 time=0EXTRACT: note_on channel=1 note=58 velocity=80 time=0.08166666666666667EXTRACT: note_on channel=1 note=60 velocity=80 time=0EXTRACT: note_on channel=1 note=63 velocity=80 time=0EXTRACT: note_on channel=1 note=67 velocity=80 time=0EXTRACT: note_on channel=1 note=58 velocity=0 time=0.3783333333333333EXTRACT: note_on channel=1 note=60 velocity=0 time=0EXTRACT: note_on channel=1 note=63 velocity=0 time=0EXTRACT: note_on channel=1 note=67 velocity=0 time=0EXTRACT: note_on channel=1 note=65 velocity=80 time=0.021666666666666664EXTRACT: note_on channel=1 note=65 velocity=0 time=0.3783333333333333EXTRACT: note_on channel=1 note=63 velocity=80 time=0.021666666666666664EXTRACT: note_on channel=1 note=63 velocity=0 time=0.3783333333333333EXTRACT: note_on channel=1 note=62 velocity=80 time=0.021666666666666664EXTRACT: note_on channel=1 note=32 velocity=0 time=0.2383333333333333EXTRACT: note_on channel=1 note=44 velocity=0 time=0EXTRACT: note_on channel=1 note=62 velocity=0 time=0.13999999999999999EXTRACT: note_on channel=1 note=51 velocity=80 time=0.021666666666666664EXTRACT: note_on channel=1 note=55 velocity=80 time=0EXTRACT: note_on channel=1 note=58 velocity=80 time=0EXTRACT: note_on channel=1 note=62 velocity=80 time=0EXTRACT: note_on channel=1 note=24 velocity=80 time=0EXTRACT: note_on channel=1 note=36 velocity=80 time=0EXTRACT: note_on channel=1 note=51 velocity=0 time=1.5183333333333333EXTRACT: note_on channel=1 note=55 velocity=0 time=0EXTRACT: note_on channel=1 note=58 velocity=0 time=0EXTRACT: note_on channel=1 note=62 velocity=0 time=0EXTRACT: note_on channel=1 note=24 velocity=0 time=0EXTRACT: note_on channel=1 note=36 velocity=0 time=0EXTRACT: note_on channel=1 note=51 velocity=80 time=0.08166666666666667EXTRACT: note_on channel=1 note=55 velocity=80 time=0EXTRACT: note_on channel=1 note=58 velocity=80 time=0EXTRACT: note_on channel=1 note=62 velocity=80 time=0EXTRACT: note_on channel=1 note=24 velocity=80 time=0EXTRACT: note_on channel=1 note=36 velocity=80 time=0EXTRACT: note_on channel=1 note=51 velocity=0 time=0.7583333333333333EXTRACT: note_on channel=1 note=55 velocity=0 time=0EXTRACT: note_on channel=1 note=58 velocity=0 time=0EXTRACT: note_on channel=1 note=62 velocity=0 time=0EXTRACT: note_on channel=1 note=24 velocity=0 time=0EXTRACT: note_on channel=1 note=36 velocity=0 time=0EXTRACT: note_on channel=1 note=55 velocity=80 time=0.041666666666666664EXTRACT: note_on channel=1 note=58 velocity=80 time=0EXTRACT: note_on channel=1 note=63 velocity=80 time=0EXTRACT: note_on channel=1 note=27 velocity=80 time=0EXTRACT: note_on channel=1 note=39 velocity=80 time=0EXTRACT: note_on channel=1 note=55 velocity=0 time=0.7583333333333333EXTRACT: note_on channel=1 note=58 velocity=0 time=0EXTRACT: note_on channel=1 note=63 velocity=0 time=0EXTRACT: note_on channel=1 note=27 velocity=0 time=0EXTRACT: note_on channel=1 note=39 velocity=0 time=0EXTRACT: note_on channel=1 note=58 velocity=80 time=0.041666666666666664EXTRACT: note_on channel=1 note=60 velocity=80 time=0EXTRACT: note_on channel=1 note=63 velocity=80 time=0EXTRACT: note_on channel=1 note=67 velocity=80 time=0EXTRACT: note_on channel=1 note=32 velocity=80 time=0EXTRACT: note_on channel=1 note=44 velocity=80 time=0EXTRACT: note_on channel=1 note=58 velocity=0 time=1.5183333333333333EXTRACT: note_on channel=1 note=60 velocity=0 time=0EXTRACT: note_on channel=1 note=63 velocity=0 time=0EXTRACT: note_on channel=1 note=67 velocity=0 time=0EXTRACT: note_on channel=1 note=58 velocity=80 time=0.08166666666666667EXTRACT: note_on channel=1 note=60 velocity=80 time=0EXTRACT: note_on channel=1 note=63 velocity=80 time=0EXTRACT: note_on channel=1 note=67 velocity=80 time=0EXTRACT: note_on channel=1 note=58 velocity=0 time=0.7583333333333333EXTRACT: note_on channel=1 note=60 velocity=0 time=0EXTRACT: note_on channel=1 note=63 velocity=0 time=0EXTRACT: note_on channel=1 note=67 velocity=0 time=0EXTRACT: note_on channel=1 note=63 velocity=80 time=0.041666666666666664EXTRACT: note_on channel=1 note=32 velocity=0 time=0.6383333333333333EXTRACT: note_on channel=1 note=44 velocity=0 time=0EXTRACT: note_on channel=1 note=63 velocity=0 time=0.12EXTRACT: note_on channel=1 note=51 velocity=80 time=0.041666666666666664EXTRACT: note_on channel=1 note=55 velocity=80 time=0EXTRACT: note_on channel=1 note=58 velocity=80 time=0EXTRACT: note_on channel=1 note=62 velocity=80 time=0EXTRACT: note_on channel=1 note=24 velocity=80 time=0EXTRACT: note_on channel=1 note=36 velocity=80 time=0EXTRACT: note_on channel=1 note=51 velocity=0 time=1.5183333333333333EXTRACT: note_on channel=1 note=55 velocity=0 time=0EXTRACT: note_on channel=1 note=58 velocity=0 time=0EXTRACT: note_on channel=1 note=62 velocity=0 time=0EXTRACT: note_on channel=1 note=24 velocity=0 time=0EXTRACT: note_on channel=1 note=36 velocity=0 time=0EXTRACT: note_on channel=1 note=51 velocity=80 time=0.08166666666666667EXTRACT: note_on channel=1 note=55 velocity=80 time=0EXTRACT: note_on channel=1 note=58 velocity=80 time=0EXTRACT: note_on channel=1 note=62 velocity=80 time=0EXTRACT: note_on channel=1 note=24 velocity=80 time=0EXTRACT: note_on channel=1 note=36 velocity=80 time=0EXTRACT: note_on channel=1 note=51 velocity=0 time=0.7583333333333333EXTRACT: note_on channel=1 note=55 velocity=0 time=0EXTRACT: note_on channel=1 note=58 velocity=0 time=0EXTRACT: note_on channel=1 note=62 velocity=0 time=0EXTRACT: note_on channel=1 note=24 velocity=0 time=0EXTRACT: note_on channel=1 note=36 velocity=0 time=0EXTRACT: note_on channel=1 note=55 velocity=80 time=0.041666666666666664EXTRACT: note_on channel=1 note=58 velocity=80 time=0EXTRACT: note_on channel=1 note=63 velocity=80 time=0EXTRACT: note_on channel=1 note=27 velocity=80 time=0EXTRACT: note_on channel=1 note=39 velocity=80 time=0EXTRACT: note_on channel=1 note=55 velocity=0 time=0.7583333333333333EXTRACT: note_on channel=1 note=58 velocity=0 time=0EXTRACT: note_on channel=1 note=63 velocity=0 time=0EXTRACT: note_on channel=1 note=27 velocity=0 time=0EXTRACT: note_on channel=1 note=39 velocity=0 time=0EXTRACT: note_on channel=1 note=58 velocity=80 time=0.041666666666666664EXTRACT: note_on channel=1 note=60 velocity=80 time=0EXTRACT: note_on channel=1 note=63 velocity=80 time=0EXTRACT: note_on channel=1 note=67 velocity=80 time=0EXTRACT: note_on channel=1 note=32 velocity=80 time=0EXTRACT: note_on channel=1 note=44 velocity=80 time=0EXTRACT: note_on channel=1 note=58 velocity=0 time=1.5183333333333333EXTRACT: note_on channel=1 note=60 velocity=0 time=0EXTRACT: note_on channel=1 note=63 velocity=0 time=0EXTRACT: note_on channel=1 note=67 velocity=0 time=0EXTRACT: note_on channel=1 note=58 velocity=80 time=0.08166666666666667EXTRACT: note_on channel=1 note=60 velocity=80 time=0EXTRACT: note_on channel=1 note=63 velocity=80 time=0EXTRACT: note_on channel=1 note=67 velocity=80 time=0EXTRACT: note_on channel=1 note=58 velocity=0 time=0.3783333333333333EXTRACT: note_on channel=1 note=60 velocity=0 time=0EXTRACT: note_on channel=1 note=63 velocity=0 time=0EXTRACT: note_on channel=1 note=67 velocity=0 time=0EXTRACT: note_on channel=1 note=65 velocity=80 time=0.021666666666666664EXTRACT: note_on channel=1 note=65 velocity=0 time=0.3783333333333333EXTRACT: note_on channel=1 note=63 velocity=80 time=0.021666666666666664EXTRACT: note_on channel=1 note=63 velocity=0 time=0.3783333333333333EXTRACT: note_on channel=1 note=62 velocity=80 time=0.021666666666666664EXTRACT: note_on channel=1 note=32 velocity=0 time=0.2383333333333333EXTRACT: note_on channel=1 note=44 velocity=0 time=0EXTRACT: note_on channel=1 note=62 velocity=0 time=0.13999999999999999EXTRACT: note_on channel=1 note=51 velocity=80 time=0.021666666666666664EXTRACT: note_on channel=1 note=55 velocity=80 time=0EXTRACT: note_on channel=1 note=58 velocity=80 time=0EXTRACT: note_on channel=1 note=62 velocity=80 time=0EXTRACT: note_on channel=1 note=24 velocity=80 time=0EXTRACT: note_on channel=1 note=36 velocity=80 time=0EXTRACT: note_on channel=1 note=51 velocity=0 time=1.5183333333333333EXTRACT: note_on channel=1 note=55 velocity=0 time=0EXTRACT: note_on channel=1 note=58 velocity=0 time=0EXTRACT: note_on channel=1 note=62 velocity=0 time=0EXTRACT: note_on channel=1 note=24 velocity=0 time=0EXTRACT: note_on channel=1 note=36 velocity=0 time=0EXTRACT: note_on channel=1 note=51 velocity=80 time=0.08166666666666667EXTRACT: note_on channel=1 note=55 velocity=80 time=0EXTRACT: note_on channel=1 note=58 velocity=80 time=0EXTRACT: note_on channel=1 note=62 velocity=80 time=0EXTRACT: note_on channel=1 note=24 velocity=80 time=0EXTRACT: note_on channel=1 note=36 velocity=80 time=0EXTRACT: note_on channel=1 note=51 velocity=0 time=0.7583333333333333EXTRACT: note_on channel=1 note=55 velocity=0 time=0EXTRACT: note_on channel=1 note=58 velocity=0 time=0EXTRACT: note_on channel=1 note=62 velocity=0 time=0EXTRACT: note_on channel=1 note=24 velocity=0 time=0EXTRACT: note_on channel=1 note=36 velocity=0 time=0EXTRACT: note_on channel=1 note=55 velocity=80 time=0.041666666666666664EXTRACT: note_on channel=1 note=58 velocity=80 time=0EXTRACT: note_on channel=1 note=63 velocity=80 time=0EXTRACT: note_on channel=1 note=27 velocity=80 time=0EXTRACT: note_on channel=1 note=39 velocity=80 time=0EXTRACT: note_on channel=1 note=55 velocity=0 time=0.7583333333333333EXTRACT: note_on channel=1 note=58 velocity=0 time=0EXTRACT: note_on channel=1 note=63 velocity=0 time=0EXTRACT: note_on channel=1 note=27 velocity=0 time=0EXTRACT: note_on channel=1 note=39 velocity=0 time=0EXTRACT: note_on channel=1 note=58 velocity=80 time=0.041666666666666664EXTRACT: note_on channel=1 note=60 velocity=80 time=0EXTRACT: note_on channel=1 note=63 velocity=80 time=0EXTRACT: note_on channel=1 note=67 velocity=80 time=0EXTRACT: note_on channel=1 note=32 velocity=80 time=0EXTRACT: note_on channel=1 note=44 velocity=80 time=0EXTRACT: note_on channel=1 note=58 velocity=0 time=1.5183333333333333EXTRACT: note_on channel=1 note=60 velocity=0 time=0EXTRACT: note_on channel=1 note=63 velocity=0 time=0EXTRACT: note_on channel=1 note=67 velocity=0 time=0EXTRACT: note_on channel=1 note=58 velocity=80 time=0.08166666666666667EXTRACT: note_on channel=1 note=60 velocity=80 time=0EXTRACT: note_on channel=1 note=63 velocity=80 time=0EXTRACT: note_on channel=1 note=67 velocity=80 time=0EXTRACT: note_on channel=1 note=58 velocity=0 time=0.7583333333333333EXTRACT: note_on channel=1 note=60 velocity=0 time=0EXTRACT: note_on channel=1 note=63 velocity=0 time=0EXTRACT: note_on channel=1 note=67 velocity=0 time=0EXTRACT: note_on channel=1 note=63 velocity=80 time=0.041666666666666664EXTRACT: note_on channel=1 note=32 velocity=0 time=0.6383333333333333EXTRACT: note_on channel=1 note=44 velocity=0 time=0EXTRACT: note_on channel=1 note=63 velocity=0 time=0.12EXTRACT: note_on channel=1 note=51 velocity=80 time=0.041666666666666664EXTRACT: note_on channel=1 note=55 velocity=80 time=0EXTRACT: note_on channel=1 note=58 velocity=80 time=0EXTRACT: note_on channel=1 note=62 velocity=80 time=0EXTRACT: note_on channel=1 note=24 velocity=80 time=0EXTRACT: note_on channel=1 note=36 velocity=80 time=0EXTRACT: note_on channel=1 note=51 velocity=0 time=1.5183333333333333EXTRACT: note_on channel=1 note=55 velocity=0 time=0EXTRACT: note_on channel=1 note=58 velocity=0 time=0EXTRACT: note_on channel=1 note=62 velocity=0 time=0EXTRACT: note_on channel=1 note=24 velocity=0 time=0EXTRACT: note_on channel=1 note=36 velocity=0 time=0EXTRACT: note_on channel=1 note=51 velocity=80 time=0.08166666666666667EXTRACT: note_on channel=1 note=55 velocity=80 time=0EXTRACT: note_on channel=1 note=58 velocity=80 time=0EXTRACT: note_on channel=1 note=62 velocity=80 time=0EXTRACT: note_on channel=1 note=24 velocity=80 time=0EXTRACT: note_on channel=1 note=36 velocity=80 time=0EXTRACT: note_on channel=1 note=51 velocity=0 time=0.7583333333333333EXTRACT: note_on channel=1 note=55 velocity=0 time=0EXTRACT: note_on channel=1 note=58 velocity=0 time=0EXTRACT: note_on channel=1 note=62 velocity=0 time=0EXTRACT: note_on channel=1 note=24 velocity=0 time=0EXTRACT: note_on channel=1 note=36 velocity=0 time=0EXTRACT: note_on channel=1 note=55 velocity=80 time=0.041666666666666664EXTRACT: note_on channel=1 note=58 velocity=80 time=0EXTRACT: note_on channel=1 note=63 velocity=80 time=0EXTRACT: note_on channel=1 note=27 velocity=80 time=0EXTRACT: note_on channel=1 note=39 velocity=80 time=0EXTRACT: note_on channel=1 note=55 velocity=0 time=0.7583333333333333EXTRACT: note_on channel=1 note=58 velocity=0 time=0EXTRACT: note_on channel=1 note=63 velocity=0 time=0EXTRACT: note_on channel=1 note=27 velocity=0 time=0EXTRACT: note_on channel=1 note=39 velocity=0 time=0EXTRACT: note_on channel=1 note=58 velocity=80 time=0.041666666666666664EXTRACT: note_on channel=1 note=60 velocity=80 time=0EXTRACT: note_on channel=1 note=63 velocity=80 time=0EXTRACT: note_on channel=1 note=67 velocity=80 time=0EXTRACT: note_on channel=1 note=32 velocity=80 time=0EXTRACT: note_on channel=1 note=44 velocity=80 time=0EXTRACT: note_on channel=1 note=58 velocity=0 time=1.5183333333333333EXTRACT: note_on channel=1 note=60 velocity=0 time=0EXTRACT: note_on channel=1 note=63 velocity=0 time=0EXTRACT: note_on channel=1 note=67 velocity=0 time=0EXTRACT: note_on channel=1 note=58 velocity=80 time=0.08166666666666667EXTRACT: note_on channel=1 note=60 velocity=80 time=0EXTRACT: note_on channel=1 note=63 velocity=80 time=0EXTRACT: note_on channel=1 note=67 velocity=80 time=0EXTRACT: note_on channel=1 note=58 velocity=0 time=0.3783333333333333EXTRACT: note_on channel=1 note=60 velocity=0 time=0EXTRACT: note_on channel=1 note=63 velocity=0 time=0EXTRACT: note_on channel=1 note=67 velocity=0 time=0EXTRACT: note_on channel=1 note=65 velocity=80 time=0.021666666666666664EXTRACT: note_on channel=1 note=65 velocity=0 time=0.3783333333333333EXTRACT: note_on channel=1 note=63 velocity=80 time=0.021666666666666664EXTRACT: note_on channel=1 note=63 velocity=0 time=0.3783333333333333EXTRACT: note_on channel=1 note=62 velocity=80 time=0.021666666666666664EXTRACT: note_on channel=1 note=32 velocity=0 time=0.2383333333333333EXTRACT: note_on channel=1 note=44 velocity=0 time=0EXTRACT: note_on channel=1 note=62 velocity=0 time=0.13999999999999999EXTRACT: note_on channel=1 note=51 velocity=80 time=0.021666666666666664EXTRACT: note_on channel=1 note=55 velocity=80 time=0EXTRACT: note_on channel=1 note=58 velocity=80 time=0EXTRACT: note_on channel=1 note=62 velocity=80 time=0EXTRACT: note_on channel=1 note=24 velocity=80 time=0EXTRACT: note_on channel=1 note=36 velocity=80 time=0EXTRACT: note_on channel=1 note=51 velocity=0 time=1.5183333333333333EXTRACT: note_on channel=1 note=55 velocity=0 time=0EXTRACT: note_on channel=1 note=58 velocity=0 time=0EXTRACT: note_on channel=1 note=62 velocity=0 time=0EXTRACT: note_on channel=1 note=24 velocity=0 time=0EXTRACT: note_on channel=1 note=36 velocity=0 time=0EXTRACT: note_on channel=1 note=51 velocity=80 time=0.08166666666666667EXTRACT: note_on channel=1 note=55 velocity=80 time=0EXTRACT: note_on channel=1 note=58 velocity=80 time=0EXTRACT: note_on channel=1 note=62 velocity=80 time=0EXTRACT: note_on channel=1 note=24 velocity=80 time=0EXTRACT: note_on channel=1 note=36 velocity=80 time=0EXTRACT: note_on channel=1 note=51 velocity=0 time=0.7583333333333333EXTRACT: note_on channel=1 note=55 velocity=0 time=0EXTRACT: note_on channel=1 note=58 velocity=0 time=0EXTRACT: note_on channel=1 note=62 velocity=0 time=0EXTRACT: note_on channel=1 note=24 velocity=0 time=0EXTRACT: note_on channel=1 note=36 velocity=0 time=0EXTRACT: note_on channel=1 note=55 velocity=80 time=0.041666666666666664EXTRACT: note_on channel=1 note=58 velocity=80 time=0EXTRACT: note_on channel=1 note=63 velocity=80 time=0EXTRACT: note_on channel=1 note=27 velocity=80 time=0EXTRACT: note_on channel=1 note=39 velocity=80 time=0EXTRACT: note_on channel=1 note=55 velocity=0 time=0.7583333333333333EXTRACT: note_on channel=1 note=58 velocity=0 time=0EXTRACT: note_on channel=1 note=63 velocity=0 time=0EXTRACT: note_on channel=1 note=27 velocity=0 time=0EXTRACT: note_on channel=1 note=39 velocity=0 time=0EXTRACT: note_on channel=1 note=58 velocity=80 time=0.041666666666666664EXTRACT: note_on channel=1 note=60 velocity=80 time=0EXTRACT: note_on channel=1 note=63 velocity=80 time=0EXTRACT: note_on channel=1 note=67 velocity=80 time=0EXTRACT: note_on channel=1 note=32 velocity=80 time=0EXTRACT: note_on channel=1 note=44 velocity=80 time=0EXTRACT: note_on channel=1 note=58 velocity=0 time=1.5183333333333333EXTRACT: note_on channel=1 note=60 velocity=0 time=0EXTRACT: note_on channel=1 note=63 velocity=0 time=0EXTRACT: note_on channel=1 note=67 velocity=0 time=0EXTRACT: note_on channel=1 note=58 velocity=80 time=0.08166666666666667EXTRACT: note_on channel=1 note=60 velocity=80 time=0EXTRACT: note_on channel=1 note=63 velocity=80 time=0EXTRACT: note_on channel=1 note=67 velocity=80 time=0EXTRACT: note_on channel=1 note=58 velocity=0 time=0.7583333333333333EXTRACT: note_on channel=1 note=60 velocity=0 time=0EXTRACT: note_on channel=1 note=63 velocity=0 time=0EXTRACT: note_on channel=1 note=67 velocity=0 time=0EXTRACT: note_on channel=1 note=63 velocity=80 time=0.041666666666666664EXTRACT: note_on channel=1 note=32 velocity=0 time=0.6383333333333333EXTRACT: note_on channel=1 note=44 velocity=0 time=0EXTRACT: note_on channel=1 note=63 velocity=0 time=0.12EXTRACT: note_on channel=1 note=51 velocity=80 time=0.041666666666666664EXTRACT: note_on channel=1 note=55 velocity=80 time=0EXTRACT: note_on channel=1 note=58 velocity=80 time=0EXTRACT: note_on channel=1 note=62 velocity=80 time=0EXTRACT: note_on channel=1 note=24 velocity=80 time=0EXTRACT: note_on channel=1 note=36 velocity=80 time=0EXTRACT: note_on channel=1 note=51 velocity=0 time=1.5183333333333333EXTRACT: note_on channel=1 note=55 velocity=0 time=0EXTRACT: note_on channel=1 note=58 velocity=0 time=0EXTRACT: note_on channel=1 note=62 velocity=0 time=0EXTRACT: note_on channel=1 note=24 velocity=0 time=0EXTRACT: note_on channel=1 note=36 velocity=0 time=0EXTRACT: note_on channel=1 note=51 velocity=80 time=0.08166666666666667EXTRACT: note_on channel=1 note=55 velocity=80 time=0EXTRACT: note_on channel=1 note=58 velocity=80 time=0EXTRACT: note_on channel=1 note=62 velocity=80 time=0EXTRACT: note_on channel=1 note=24 velocity=80 time=0EXTRACT: note_on channel=1 note=36 velocity=80 time=0EXTRACT: note_on channel=1 note=51 velocity=0 time=0.7583333333333333EXTRACT: note_on channel=1 note=55 velocity=0 time=0EXTRACT: note_on channel=1 note=58 velocity=0 time=0EXTRACT: note_on channel=1 note=62 velocity=0 time=0EXTRACT: note_on channel=1 note=24 velocity=0 time=0EXTRACT: note_on channel=1 note=36 velocity=0 time=0EXTRACT: note_on channel=1 note=55 velocity=80 time=0.041666666666666664EXTRACT: note_on channel=1 note=58 velocity=80 time=0EXTRACT: note_on channel=1 note=63 velocity=80 time=0EXTRACT: note_on channel=1 note=27 velocity=80 time=0EXTRACT: note_on channel=1 note=39 velocity=80 time=0EXTRACT: note_on channel=1 note=55 velocity=0 time=0.7583333333333333EXTRACT: note_on channel=1 note=58 velocity=0 time=0EXTRACT: note_on channel=1 note=63 velocity=0 time=0EXTRACT: note_on channel=1 note=27 velocity=0 time=0EXTRACT: note_on channel=1 note=39 velocity=0 time=0EXTRACT: note_on channel=1 note=58 velocity=80 time=0.041666666666666664EXTRACT: note_on channel=1 note=60 velocity=80 time=0EXTRACT: note_on channel=1 note=63 velocity=80 time=0EXTRACT: note_on channel=1 note=67 velocity=80 time=0EXTRACT: note_on channel=1 note=32 velocity=80 time=0EXTRACT: note_on channel=1 note=44 velocity=80 time=0EXTRACT: note_on channel=1 note=58 velocity=0 time=1.5183333333333333EXTRACT: note_on channel=1 note=60 velocity=0 time=0EXTRACT: note_on channel=1 note=63 velocity=0 time=0EXTRACT: note_on channel=1 note=67 velocity=0 time=0EXTRACT: note_on channel=1 note=58 velocity=80 time=0.08166666666666667EXTRACT: note_on channel=1 note=60 velocity=80 time=0EXTRACT: note_on channel=1 note=63 velocity=80 time=0EXTRACT: note_on channel=1 note=67 velocity=80 time=0EXTRACT: note_on channel=1 note=58 velocity=0 time=0.3783333333333333EXTRACT: note_on channel=1 note=60 velocity=0 time=0EXTRACT: note_on channel=1 note=63 velocity=0 time=0EXTRACT: note_on channel=1 note=67 velocity=0 time=0EXTRACT: note_on channel=1 note=65 velocity=80 time=0.021666666666666664EXTRACT: note_on channel=1 note=65 velocity=0 time=0.3783333333333333EXTRACT: note_on channel=1 note=63 velocity=80 time=0.021666666666666664EXTRACT: note_on channel=1 note=63 velocity=0 time=0.3783333333333333EXTRACT: note_on channel=1 note=62 velocity=80 time=0.021666666666666664EXTRACT: note_on channel=1 note=32 velocity=0 time=0.2383333333333333EXTRACT: note_on channel=1 note=44 velocity=0 time=0EXTRACT: note_on channel=1 note=62 velocity=0 time=0.13999999999999999EXTRACT: note_on channel=1 note=51 velocity=80 time=0.021666666666666664EXTRACT: note_on channel=1 note=55 velocity=80 time=0EXTRACT: note_on channel=1 note=58 velocity=80 time=0EXTRACT: note_on channel=1 note=62 velocity=80 time=0EXTRACT: note_on channel=1 note=24 velocity=80 time=0EXTRACT: note_on channel=1 note=36 velocity=80 time=0EXTRACT: note_on channel=1 note=51 velocity=0 time=1.5183333333333333EXTRACT: note_on channel=1 note=55 velocity=0 time=0EXTRACT: note_on channel=1 note=58 velocity=0 time=0EXTRACT: note_on channel=1 note=62 velocity=0 time=0EXTRACT: note_on channel=1 note=24 velocity=0 time=0EXTRACT: note_on channel=1 note=36 velocity=0 time=0EXTRACT: note_on channel=1 note=51 velocity=80 time=0.08166666666666667EXTRACT: note_on channel=1 note=55 velocity=80 time=0EXTRACT: note_on channel=1 note=58 velocity=80 time=0EXTRACT: note_on channel=1 note=62 velocity=80 time=0EXTRACT: note_on channel=1 note=24 velocity=80 time=0EXTRACT: note_on channel=1 note=36 velocity=80 time=0EXTRACT: note_on channel=1 note=51 velocity=0 time=0.7583333333333333EXTRACT: note_on channel=1 note=55 velocity=0 time=0EXTRACT: note_on channel=1 note=58 velocity=0 time=0EXTRACT: note_on channel=1 note=62 velocity=0 time=0EXTRACT: note_on channel=1 note=24 velocity=0 time=0EXTRACT: note_on channel=1 note=36 velocity=0 time=0EXTRACT: note_on channel=1 note=55 velocity=80 time=0.041666666666666664EXTRACT: note_on channel=1 note=58 velocity=80 time=0EXTRACT: note_on channel=1 note=63 velocity=80 time=0EXTRACT: note_on channel=1 note=27 velocity=80 time=0EXTRACT: note_on channel=1 note=39 velocity=80 time=0EXTRACT: note_on channel=1 note=55 velocity=0 time=0.7583333333333333EXTRACT: note_on channel=1 note=58 velocity=0 time=0EXTRACT: note_on channel=1 note=63 velocity=0 time=0EXTRACT: note_on channel=1 note=27 velocity=0 time=0EXTRACT: note_on channel=1 note=39 velocity=0 time=0EXTRACT: note_on channel=1 note=58 velocity=80 time=0.041666666666666664EXTRACT: note_on channel=1 note=60 velocity=80 time=0EXTRACT: note_on channel=1 note=63 velocity=80 time=0EXTRACT: note_on channel=1 note=67 velocity=80 time=0EXTRACT: note_on channel=1 note=32 velocity=80 time=0EXTRACT: note_on channel=1 note=44 velocity=80 time=0EXTRACT: note_on channel=1 note=58 velocity=0 time=1.5183333333333333EXTRACT: note_on channel=1 note=60 velocity=0 time=0EXTRACT: note_on channel=1 note=63 velocity=0 time=0EXTRACT: note_on channel=1 note=67 velocity=0 time=0EXTRACT: note_on channel=1 note=58 velocity=80 time=0.08166666666666667EXTRACT: note_on channel=1 note=60 velocity=80 time=0EXTRACT: note_on channel=1 note=63 velocity=80 time=0EXTRACT: note_on channel=1 note=67 velocity=80 time=0EXTRACT: note_on channel=1 note=58 velocity=0 time=0.7583333333333333EXTRACT: note_on channel=1 note=60 velocity=0 time=0EXTRACT: note_on channel=1 note=63 velocity=0 time=0EXTRACT: note_on channel=1 note=67 velocity=0 time=0EXTRACT: note_on channel=1 note=63 velocity=80 time=0.041666666666666664EXTRACT: note_on channel=1 note=32 velocity=0 time=0.6383333333333333EXTRACT: note_on channel=1 note=44 velocity=0 time=0EXTRACT: note_on channel=1 note=63 velocity=0 time=0.12EXTRACT: note_on channel=1 note=51 velocity=80 time=0.041666666666666664EXTRACT: note_on channel=1 note=55 velocity=80 time=0EXTRACT: note_on channel=1 note=58 velocity=80 time=0EXTRACT: note_on channel=1 note=62 velocity=80 time=0EXTRACT: note_on channel=1 note=24 velocity=80 time=0EXTRACT: note_on channel=1 note=36 velocity=80 time=0EXTRACT: note_on channel=1 note=51 velocity=0 time=1.5183333333333333EXTRACT: note_on channel=1 note=55 velocity=0 time=0EXTRACT: note_on channel=1 note=58 velocity=0 time=0EXTRACT: note_on channel=1 note=62 velocity=0 time=0EXTRACT: note_on channel=1 note=24 velocity=0 time=0EXTRACT: note_on channel=1 note=36 velocity=0 time=0EXTRACT: note_on channel=1 note=51 velocity=80 time=0.08166666666666667EXTRACT: note_on channel=1 note=55 velocity=80 time=0EXTRACT: note_on channel=1 note=58 velocity=80 time=0EXTRACT: note_on channel=1 note=62 velocity=80 time=0EXTRACT: note_on channel=1 note=24 velocity=80 time=0EXTRACT: note_on channel=1 note=36 velocity=80 time=0EXTRACT: note_on channel=1 note=51 velocity=0 time=0.7583333333333333EXTRACT: note_on channel=1 note=55 velocity=0 time=0EXTRACT: note_on channel=1 note=58 velocity=0 time=0EXTRACT: note_on channel=1 note=62 velocity=0 time=0EXTRACT: note_on channel=1 note=24 velocity=0 time=0EXTRACT: note_on channel=1 note=36 velocity=0 time=0EXTRACT: note_on channel=1 note=55 velocity=80 time=0.041666666666666664EXTRACT: note_on channel=1 note=58 velocity=80 time=0EXTRACT: note_on channel=1 note=63 velocity=80 time=0EXTRACT: note_on channel=1 note=27 velocity=80 time=0EXTRACT: note_on channel=1 note=39 velocity=80 time=0EXTRACT: note_on channel=1 note=55 velocity=0 time=0.7583333333333333EXTRACT: note_on channel=1 note=58 velocity=0 time=0EXTRACT: note_on channel=1 note=63 velocity=0 time=0EXTRACT: note_on channel=1 note=27 velocity=0 time=0EXTRACT: note_on channel=1 note=39 velocity=0 time=0EXTRACT: note_on channel=1 note=58 velocity=80 time=0.041666666666666664EXTRACT: note_on channel=1 note=60 velocity=80 time=0EXTRACT: note_on channel=1 note=63 velocity=80 time=0EXTRACT: note_on channel=1 note=67 velocity=80 time=0EXTRACT: note_on channel=1 note=32 velocity=80 time=0EXTRACT: note_on channel=1 note=44 velocity=80 time=0EXTRACT: note_on channel=1 note=58 velocity=0 time=1.5183333333333333EXTRACT: note_on channel=1 note=60 velocity=0 time=0EXTRACT: note_on channel=1 note=63 velocity=0 time=0EXTRACT: note_on channel=1 note=67 velocity=0 time=0EXTRACT: note_on channel=1 note=58 velocity=80 time=0.08166666666666667EXTRACT: note_on channel=1 note=60 velocity=80 time=0EXTRACT: note_on channel=1 note=63 velocity=80 time=0EXTRACT: note_on channel=1 note=67 velocity=80 time=0EXTRACT: note_on channel=1 note=58 velocity=0 time=0.3783333333333333EXTRACT: note_on channel=1 note=60 velocity=0 time=0EXTRACT: note_on channel=1 note=63 velocity=0 time=0EXTRACT: note_on channel=1 note=67 velocity=0 time=0EXTRACT: note_on channel=1 note=65 velocity=80 time=0.021666666666666664EXTRACT: note_on channel=1 note=65 velocity=0 time=0.3783333333333333EXTRACT: note_on channel=1 note=63 velocity=80 time=0.021666666666666664EXTRACT: note_on channel=1 note=63 velocity=0 time=0.3783333333333333EXTRACT: note_on channel=1 note=62 velocity=80 time=0.021666666666666664EXTRACT: note_on channel=1 note=32 velocity=0 time=0.2383333333333333EXTRACT: note_on channel=1 note=44 velocity=0 time=0EXTRACT: note_on channel=1 note=62 velocity=0 time=0.13999999999999999EXTRACT: note_on channel=1 note=51 velocity=80 time=0.021666666666666664EXTRACT: note_on channel=1 note=55 velocity=80 time=0EXTRACT: note_on channel=1 note=58 velocity=80 time=0EXTRACT: note_on channel=1 note=62 velocity=80 time=0EXTRACT: note_on channel=1 note=24 velocity=80 time=0EXTRACT: note_on channel=1 note=36 velocity=80 time=0EXTRACT: note_on channel=1 note=51 velocity=0 time=1.5183333333333333EXTRACT: note_on channel=1 note=55 velocity=0 time=0EXTRACT: note_on channel=1 note=58 velocity=0 time=0EXTRACT: note_on channel=1 note=62 velocity=0 time=0EXTRACT: note_on channel=1 note=24 velocity=0 time=0EXTRACT: note_on channel=1 note=36 velocity=0 time=0EXTRACT: note_on channel=1 note=51 velocity=80 time=0.08166666666666667EXTRACT: note_on channel=1 note=55 velocity=80 time=0EXTRACT: note_on channel=1 note=58 velocity=80 time=0EXTRACT: note_on channel=1 note=62 velocity=80 time=0EXTRACT: note_on channel=1 note=24 velocity=80 time=0EXTRACT: note_on channel=1 note=36 velocity=80 time=0EXTRACT: note_on channel=1 note=51 velocity=0 time=0.7583333333333333EXTRACT: note_on channel=1 note=55 velocity=0 time=0EXTRACT: note_on channel=1 note=58 velocity=0 time=0EXTRACT: note_on channel=1 note=62 velocity=0 time=0EXTRACT: note_on channel=1 note=24 velocity=0 time=0EXTRACT: note_on channel=1 note=36 velocity=0 time=0EXTRACT: note_on channel=1 note=55 velocity=80 time=0.041666666666666664EXTRACT: note_on channel=1 note=58 velocity=80 time=0EXTRACT: note_on channel=1 note=63 velocity=80 time=0EXTRACT: note_on channel=1 note=27 velocity=80 time=0EXTRACT: note_on channel=1 note=39 velocity=80 time=0EXTRACT: note_on channel=1 note=55 velocity=0 time=0.7583333333333333EXTRACT: note_on channel=1 note=58 velocity=0 time=0EXTRACT: note_on channel=1 note=63 velocity=0 time=0EXTRACT: note_on channel=1 note=27 velocity=0 time=0EXTRACT: note_on channel=1 note=39 velocity=0 time=0EXTRACT: note_on channel=1 note=58 velocity=80 time=0.041666666666666664EXTRACT: note_on channel=1 note=60 velocity=80 time=0EXTRACT: note_on channel=1 note=63 velocity=80 time=0EXTRACT: note_on channel=1 note=67 velocity=80 time=0EXTRACT: note_on channel=1 note=32 velocity=80 time=0EXTRACT: note_on channel=1 note=44 velocity=80 time=0EXTRACT: note_on channel=1 note=58 velocity=0 time=1.5183333333333333EXTRACT: note_on channel=1 note=60 velocity=0 time=0EXTRACT: note_on channel=1 note=63 velocity=0 time=0EXTRACT: note_on channel=1 note=67 velocity=0 time=0EXTRACT: note_on channel=1 note=58 velocity=80 time=0.08166666666666667EXTRACT: note_on channel=1 note=60 velocity=80 time=0EXTRACT: note_on channel=1 note=63 velocity=80 time=0EXTRACT: note_on channel=1 note=67 velocity=80 time=0EXTRACT: note_on channel=1 note=58 velocity=0 time=0.7583333333333333EXTRACT: note_on channel=1 note=60 velocity=0 time=0EXTRACT: note_on channel=1 note=63 velocity=0 time=0EXTRACT: note_on channel=1 note=67 velocity=0 time=0EXTRACT: note_on channel=1 note=63 velocity=80 time=0.041666666666666664EXTRACT: note_on channel=1 note=32 velocity=0 time=0.6383333333333333EXTRACT: note_on channel=1 note=44 velocity=0 time=0EXTRACT: note_on channel=1 note=63 velocity=0 time=0.12EXTRACT: note_on channel=1 note=51 velocity=80 time=0.041666666666666664EXTRACT: note_on channel=1 note=55 velocity=80 time=0EXTRACT: note_on channel=1 note=58 velocity=80 time=0EXTRACT: note_on channel=1 note=62 velocity=80 time=0EXTRACT: note_on channel=1 note=24 velocity=80 time=0EXTRACT: note_on channel=1 note=36 velocity=80 time=0EXTRACT: note_on channel=1 note=51 velocity=0 time=1.5183333333333333EXTRACT: note_on channel=1 note=55 velocity=0 time=0EXTRACT: note_on channel=1 note=58 velocity=0 time=0EXTRACT: note_on channel=1 note=62 velocity=0 time=0EXTRACT: note_on channel=1 note=24 velocity=0 time=0EXTRACT: note_on channel=1 note=36 velocity=0 time=0EXTRACT: note_on channel=1 note=51 velocity=80 time=0.08166666666666667EXTRACT: note_on channel=1 note=55 velocity=80 time=0EXTRACT: note_on channel=1 note=58 velocity=80 time=0EXTRACT: note_on channel=1 note=62 velocity=80 time=0EXTRACT: note_on channel=1 note=24 velocity=80 time=0EXTRACT: note_on channel=1 note=36 velocity=80 time=0EXTRACT: note_on channel=1 note=51 velocity=0 time=0.7583333333333333EXTRACT: note_on channel=1 note=55 velocity=0 time=0EXTRACT: note_on channel=1 note=58 velocity=0 time=0EXTRACT: note_on channel=1 note=62 velocity=0 time=0EXTRACT: note_on channel=1 note=24 velocity=0 time=0EXTRACT: note_on channel=1 note=36 velocity=0 time=0EXTRACT: note_on channel=1 note=55 velocity=80 time=0.041666666666666664EXTRACT: note_on channel=1 note=58 velocity=80 time=0EXTRACT: note_on channel=1 note=63 velocity=80 time=0EXTRACT: note_on channel=1 note=27 velocity=80 time=0EXTRACT: note_on channel=1 note=39 velocity=80 time=0EXTRACT: note_on channel=1 note=55 velocity=0 time=0.7583333333333333EXTRACT: note_on channel=1 note=58 velocity=0 time=0EXTRACT: note_on channel=1 note=63 velocity=0 time=0EXTRACT: note_on channel=1 note=27 velocity=0 time=0EXTRACT: note_on channel=1 note=39 velocity=0 time=0EXTRACT: note_on channel=1 note=58 velocity=80 time=0.041666666666666664EXTRACT: note_on channel=1 note=60 velocity=80 time=0EXTRACT: note_on channel=1 note=63 velocity=80 time=0EXTRACT: note_on channel=1 note=67 velocity=80 time=0EXTRACT: note_on channel=1 note=32 velocity=80 time=0EXTRACT: note_on channel=1 note=44 velocity=80 time=0EXTRACT: note_on channel=1 note=58 velocity=0 time=1.5183333333333333EXTRACT: note_on channel=1 note=60 velocity=0 time=0EXTRACT: note_on channel=1 note=63 velocity=0 time=0EXTRACT: note_on channel=1 note=67 velocity=0 time=0EXTRACT: note_on channel=1 note=58 velocity=80 time=0.08166666666666667EXTRACT: note_on channel=1 note=60 velocity=80 time=0EXTRACT: note_on channel=1 note=63 velocity=80 time=0EXTRACT: note_on channel=1 note=67 velocity=80 time=0EXTRACT: note_on channel=1 note=58 velocity=0 time=0.3783333333333333EXTRACT: note_on channel=1 note=60 velocity=0 time=0EXTRACT: note_on channel=1 note=63 velocity=0 time=0EXTRACT: note_on channel=1 note=67 velocity=0 time=0EXTRACT: note_on channel=1 note=65 velocity=80 time=0.021666666666666664EXTRACT: note_on channel=1 note=65 velocity=0 time=0.3783333333333333EXTRACT: note_on channel=1 note=63 velocity=80 time=0.021666666666666664EXTRACT: note_on channel=1 note=63 velocity=0 time=0.3783333333333333EXTRACT: note_on channel=1 note=62 velocity=80 time=0.021666666666666664EXTRACT: note_on channel=1 note=32 velocity=0 time=0.2383333333333333EXTRACT: note_on channel=1 note=44 velocity=0 time=0EXTRACT: note_on channel=1 note=62 velocity=0 time=0.13999999999999999EXTRACT: note_on channel=1 note=51 velocity=80 time=0.021666666666666664EXTRACT: note_on channel=1 note=55 velocity=80 time=0EXTRACT: note_on channel=1 note=58 velocity=80 time=0EXTRACT: note_on channel=1 note=62 velocity=80 time=0EXTRACT: note_on channel=1 note=24 velocity=80 time=0EXTRACT: note_on channel=1 note=36 velocity=80 time=0EXTRACT: note_on channel=1 note=51 velocity=0 time=1.5183333333333333EXTRACT: note_on channel=1 note=55 velocity=0 time=0EXTRACT: note_on channel=1 note=58 velocity=0 time=0EXTRACT: note_on channel=1 note=62 velocity=0 time=0EXTRACT: note_on channel=1 note=24 velocity=0 time=0EXTRACT: note_on channel=1 note=36 velocity=0 time=0EXTRACT: note_on channel=1 note=51 velocity=80 time=0.08166666666666667EXTRACT: note_on channel=1 note=55 velocity=80 time=0EXTRACT: note_on channel=1 note=58 velocity=80 time=0EXTRACT: note_on channel=1 note=62 velocity=80 time=0EXTRACT: note_on channel=1 note=24 velocity=80 time=0EXTRACT: note_on channel=1 note=36 velocity=80 time=0EXTRACT: note_on channel=1 note=51 velocity=0 time=0.7583333333333333EXTRACT: note_on channel=1 note=55 velocity=0 time=0EXTRACT: note_on channel=1 note=58 velocity=0 time=0EXTRACT: note_on channel=1 note=62 velocity=0 time=0EXTRACT: note_on channel=1 note=24 velocity=0 time=0EXTRACT: note_on channel=1 note=36 velocity=0 time=0EXTRACT: note_on channel=1 note=55 velocity=80 time=0.041666666666666664EXTRACT: note_on channel=1 note=58 velocity=80 time=0EXTRACT: note_on channel=1 note=63 velocity=80 time=0EXTRACT: note_on channel=1 note=27 velocity=80 time=0EXTRACT: note_on channel=1 note=39 velocity=80 time=0EXTRACT: note_on channel=1 note=55 velocity=0 time=0.7583333333333333EXTRACT: note_on channel=1 note=58 velocity=0 time=0EXTRACT: note_on channel=1 note=63 velocity=0 time=0EXTRACT: note_on channel=1 note=27 velocity=0 time=0EXTRACT: note_on channel=1 note=39 velocity=0 time=0EXTRACT: note_on channel=1 note=58 velocity=80 time=0.041666666666666664EXTRACT: note_on channel=1 note=60 velocity=80 time=0EXTRACT: note_on channel=1 note=63 velocity=80 time=0EXTRACT: note_on channel=1 note=67 velocity=80 time=0EXTRACT: note_on channel=1 note=32 velocity=80 time=0EXTRACT: note_on channel=1 note=44 velocity=80 time=0EXTRACT: note_on channel=1 note=58 velocity=0 time=1.5183333333333333EXTRACT: note_on channel=1 note=60 velocity=0 time=0EXTRACT: note_on channel=1 note=63 velocity=0 time=0EXTRACT: note_on channel=1 note=67 velocity=0 time=0EXTRACT: note_on channel=1 note=58 velocity=80 time=0.08166666666666667EXTRACT: note_on channel=1 note=60 velocity=80 time=0EXTRACT: note_on channel=1 note=63 velocity=80 time=0EXTRACT: note_on channel=1 note=67 velocity=80 time=0EXTRACT: note_on channel=1 note=58 velocity=0 time=0.7583333333333333EXTRACT: note_on channel=1 note=60 velocity=0 time=0EXTRACT: note_on channel=1 note=63 velocity=0 time=0EXTRACT: note_on channel=1 note=67 velocity=0 time=0EXTRACT: note_on channel=1 note=63 velocity=80 time=0.041666666666666664EXTRACT: note_on channel=1 note=32 velocity=0 time=0.6383333333333333EXTRACT: note_on channel=1 note=44 velocity=0 time=0EXTRACT: note_on channel=1 note=63 velocity=0 time=0.12EXTRACT: note_on channel=1 note=51 velocity=80 time=0.041666666666666664EXTRACT: note_on channel=1 note=55 velocity=80 time=0EXTRACT: note_on channel=1 note=58 velocity=80 time=0EXTRACT: note_on channel=1 note=62 velocity=80 time=0EXTRACT: note_on channel=1 note=24 velocity=80 time=0EXTRACT: note_on channel=1 note=36 velocity=80 time=0EXTRACT: note_on channel=1 note=51 velocity=0 time=1.5183333333333333EXTRACT: note_on channel=1 note=55 velocity=0 time=0EXTRACT: note_on channel=1 note=58 velocity=0 time=0EXTRACT: note_on channel=1 note=62 velocity=0 time=0EXTRACT: note_on channel=1 note=24 velocity=0 time=0EXTRACT: note_on channel=1 note=36 velocity=0 time=0EXTRACT: note_on channel=1 note=51 velocity=80 time=0.08166666666666667EXTRACT: note_on channel=1 note=55 velocity=80 time=0EXTRACT: note_on channel=1 note=58 velocity=80 time=0EXTRACT: note_on channel=1 note=62 velocity=80 time=0EXTRACT: note_on channel=1 note=24 velocity=80 time=0EXTRACT: note_on channel=1 note=36 velocity=80 time=0EXTRACT: note_on channel=1 note=51 velocity=0 time=0.7583333333333333EXTRACT: note_on channel=1 note=55 velocity=0 time=0EXTRACT: note_on channel=1 note=58 velocity=0 time=0EXTRACT: note_on channel=1 note=62 velocity=0 time=0EXTRACT: note_on channel=1 note=24 velocity=0 time=0EXTRACT: note_on channel=1 note=36 velocity=0 time=0EXTRACT: note_on channel=1 note=55 velocity=80 time=0.041666666666666664EXTRACT: note_on channel=1 note=58 velocity=80 time=0EXTRACT: note_on channel=1 note=63 velocity=80 time=0EXTRACT: note_on channel=1 note=27 velocity=80 time=0EXTRACT: note_on channel=1 note=39 velocity=80 time=0EXTRACT: note_on channel=1 note=55 velocity=0 time=0.7583333333333333EXTRACT: note_on channel=1 note=58 velocity=0 time=0EXTRACT: note_on channel=1 note=63 velocity=0 time=0EXTRACT: note_on channel=1 note=27 velocity=0 time=0EXTRACT: note_on channel=1 note=39 velocity=0 time=0EXTRACT: note_on channel=1 note=58 velocity=80 time=0.041666666666666664EXTRACT: note_on channel=1 note=60 velocity=80 time=0EXTRACT: note_on channel=1 note=63 velocity=80 time=0EXTRACT: note_on channel=1 note=67 velocity=80 time=0EXTRACT: note_on channel=1 note=32 velocity=80 time=0EXTRACT: note_on channel=1 note=44 velocity=80 time=0EXTRACT: note_on channel=1 note=58 velocity=0 time=1.5183333333333333EXTRACT: note_on channel=1 note=60 velocity=0 time=0EXTRACT: note_on channel=1 note=63 velocity=0 time=0EXTRACT: note_on channel=1 note=67 velocity=0 time=0EXTRACT: note_on channel=1 note=58 velocity=80 time=0.08166666666666667EXTRACT: note_on channel=1 note=60 velocity=80 time=0EXTRACT: note_on channel=1 note=63 velocity=80 time=0EXTRACT: note_on channel=1 note=67 velocity=80 time=0EXTRACT: note_on channel=1 note=58 velocity=0 time=0.3783333333333333EXTRACT: note_on channel=1 note=60 velocity=0 time=0EXTRACT: note_on channel=1 note=63 velocity=0 time=0EXTRACT: note_on channel=1 note=67 velocity=0 time=0EXTRACT: note_on channel=1 note=65 velocity=80 time=0.021666666666666664EXTRACT: note_on channel=1 note=65 velocity=0 time=0.3783333333333333EXTRACT: note_on channel=1 note=63 velocity=80 time=0.021666666666666664EXTRACT: note_on channel=1 note=63 velocity=0 time=0.3783333333333333EXTRACT: note_on channel=1 note=62 velocity=80 time=0.021666666666666664EXTRACT: note_on channel=1 note=32 velocity=0 time=0.2383333333333333EXTRACT: note_on channel=1 note=44 velocity=0 time=0EXTRACT: note_on channel=1 note=62 velocity=0 time=0.13999999999999999EXTRACT: note_on channel=1 note=51 velocity=80 time=0.021666666666666664EXTRACT: note_on channel=1 note=55 velocity=80 time=0EXTRACT: note_on channel=1 note=58 velocity=80 time=0EXTRACT: note_on channel=1 note=62 velocity=80 time=0EXTRACT: note_on channel=1 note=24 velocity=80 time=0EXTRACT: note_on channel=1 note=36 velocity=80 time=0EXTRACT: note_on channel=1 note=51 velocity=0 time=1.5183333333333333EXTRACT: note_on channel=1 note=55 velocity=0 time=0EXTRACT: note_on channel=1 note=58 velocity=0 time=0EXTRACT: note_on channel=1 note=62 velocity=0 time=0EXTRACT: note_on channel=1 note=24 velocity=0 time=0EXTRACT: note_on channel=1 note=36 velocity=0 time=0EXTRACT: note_on channel=1 note=51 velocity=80 time=0.08166666666666667EXTRACT: note_on channel=1 note=55 velocity=80 time=0EXTRACT: note_on channel=1 note=58 velocity=80 time=0EXTRACT: note_on channel=1 note=62 velocity=80 time=0EXTRACT: note_on channel=1 note=24 velocity=80 time=0EXTRACT: note_on channel=1 note=36 velocity=80 time=0EXTRACT: note_on channel=1 note=51 velocity=0 time=0.7583333333333333EXTRACT: note_on channel=1 note=55 velocity=0 time=0EXTRACT: note_on channel=1 note=58 velocity=0 time=0EXTRACT: note_on channel=1 note=62 velocity=0 time=0EXTRACT: note_on channel=1 note=24 velocity=0 time=0EXTRACT: note_on channel=1 note=36 velocity=0 time=0EXTRACT: note_on channel=1 note=55 velocity=80 time=0.041666666666666664EXTRACT: note_on channel=1 note=58 velocity=80 time=0EXTRACT: note_on channel=1 note=63 velocity=80 time=0EXTRACT: note_on channel=1 note=27 velocity=80 time=0EXTRACT: note_on channel=1 note=39 velocity=80 time=0EXTRACT: note_on channel=1 note=55 velocity=0 time=0.7583333333333333EXTRACT: note_on channel=1 note=58 velocity=0 time=0EXTRACT: note_on channel=1 note=63 velocity=0 time=0EXTRACT: note_on channel=1 note=27 velocity=0 time=0EXTRACT: note_on channel=1 note=39 velocity=0 time=0EXTRACT: note_on channel=1 note=58 velocity=80 time=0.041666666666666664EXTRACT: note_on channel=1 note=60 velocity=80 time=0EXTRACT: note_on channel=1 note=63 velocity=80 time=0EXTRACT: note_on channel=1 note=67 velocity=80 time=0EXTRACT: note_on channel=1 note=32 velocity=80 time=0EXTRACT: note_on channel=1 note=44 velocity=80 time=0EXTRACT: note_on channel=1 note=58 velocity=0 time=1.5183333333333333EXTRACT: note_on channel=1 note=60 velocity=0 time=0EXTRACT: note_on channel=1 note=63 velocity=0 time=0EXTRACT: note_on channel=1 note=67 velocity=0 time=0EXTRACT: note_on channel=1 note=58 velocity=80 time=0.08166666666666667EXTRACT: note_on channel=1 note=60 velocity=80 time=0EXTRACT: note_on channel=1 note=63 velocity=80 time=0EXTRACT: note_on channel=1 note=67 velocity=80 time=0EXTRACT: note_on channel=1 note=58 velocity=0 time=0.7583333333333333EXTRACT: note_on channel=1 note=60 velocity=0 time=0EXTRACT: note_on channel=1 note=63 velocity=0 time=0EXTRACT: note_on channel=1 note=67 velocity=0 time=0EXTRACT: note_on channel=1 note=63 velocity=80 time=0.041666666666666664EXTRACT: note_on channel=1 note=32 velocity=0 time=0.6383333333333333EXTRACT: note_on channel=1 note=44 velocity=0 time=0EXTRACT: note_on channel=1 note=63 velocity=0 time=0.12EXTRACT: note_on channel=1 note=51 velocity=80 time=0.041666666666666664EXTRACT: note_on channel=1 note=55 velocity=80 time=0EXTRACT: note_on channel=1 note=58 velocity=80 time=0EXTRACT: note_on channel=1 note=62 velocity=80 time=0EXTRACT: note_on channel=1 note=24 velocity=80 time=0EXTRACT: note_on channel=1 note=36 velocity=80 time=0EXTRACT: note_on channel=1 note=51 velocity=0 time=1.5183333333333333EXTRACT: note_on channel=1 note=55 velocity=0 time=0EXTRACT: note_on channel=1 note=58 velocity=0 time=0EXTRACT: note_on channel=1 note=62 velocity=0 time=0EXTRACT: note_on channel=1 note=24 velocity=0 time=0EXTRACT: note_on channel=1 note=36 velocity=0 time=0EXTRACT: note_on channel=1 note=51 velocity=80 time=0.08166666666666667EXTRACT: note_on channel=1 note=55 velocity=80 time=0EXTRACT: note_on channel=1 note=58 velocity=80 time=0EXTRACT: note_on channel=1 note=62 velocity=80 time=0EXTRACT: note_on channel=1 note=24 velocity=80 time=0EXTRACT: note_on channel=1 note=36 velocity=80 time=0EXTRACT: note_on channel=1 note=51 velocity=0 time=0.7583333333333333EXTRACT: note_on channel=1 note=55 velocity=0 time=0EXTRACT: note_on channel=1 note=58 velocity=0 time=0EXTRACT: note_on channel=1 note=62 velocity=0 time=0EXTRACT: note_on channel=1 note=24 velocity=0 time=0EXTRACT: note_on channel=1 note=36 velocity=0 time=0EXTRACT: note_on channel=1 note=55 velocity=80 time=0.041666666666666664EXTRACT: note_on channel=1 note=58 velocity=80 time=0EXTRACT: note_on channel=1 note=63 velocity=80 time=0EXTRACT: note_on channel=1 note=27 velocity=80 time=0EXTRACT: note_on channel=1 note=39 velocity=80 time=0EXTRACT: note_on channel=1 note=55 velocity=0 time=0.7583333333333333EXTRACT: note_on channel=1 note=58 velocity=0 time=0EXTRACT: note_on channel=1 note=63 velocity=0 time=0EXTRACT: note_on channel=1 note=27 velocity=0 time=0EXTRACT: note_on channel=1 note=39 velocity=0 time=0EXTRACT: note_on channel=1 note=58 velocity=80 time=0.041666666666666664EXTRACT: note_on channel=1 note=60 velocity=80 time=0EXTRACT: note_on channel=1 note=63 velocity=80 time=0EXTRACT: note_on channel=1 note=67 velocity=80 time=0EXTRACT: note_on channel=1 note=32 velocity=80 time=0EXTRACT: note_on channel=1 note=44 velocity=80 time=0EXTRACT: note_on channel=1 note=58 velocity=0 time=1.5183333333333333EXTRACT: note_on channel=1 note=60 velocity=0 time=0EXTRACT: note_on channel=1 note=63 velocity=0 time=0EXTRACT: note_on channel=1 note=67 velocity=0 time=0EXTRACT: note_on channel=1 note=58 velocity=80 time=0.08166666666666667EXTRACT: note_on channel=1 note=60 velocity=80 time=0EXTRACT: note_on channel=1 note=63 velocity=80 time=0EXTRACT: note_on channel=1 note=67 velocity=80 time=0EXTRACT: note_on channel=1 note=58 velocity=0 time=0.3783333333333333EXTRACT: note_on channel=1 note=60 velocity=0 time=0EXTRACT: note_on channel=1 note=63 velocity=0 time=0EXTRACT: note_on channel=1 note=67 velocity=0 time=0EXTRACT: note_on channel=1 note=65 velocity=80 time=0.021666666666666664EXTRACT: note_on channel=1 note=65 velocity=0 time=0.3783333333333333EXTRACT: note_on channel=1 note=63 velocity=80 time=0.021666666666666664EXTRACT: note_on channel=1 note=63 velocity=0 time=0.3783333333333333EXTRACT: note_on channel=1 note=62 velocity=80 time=0.021666666666666664EXTRACT: note_on channel=1 note=32 velocity=0 time=0.2383333333333333EXTRACT: note_on channel=1 note=44 velocity=0 time=0EXTRACT: note_on channel=1 note=62 velocity=0 time=0.13999999999999999EXTRACT: note_on channel=1 note=51 velocity=80 time=0.021666666666666664EXTRACT: note_on channel=1 note=55 velocity=80 time=0EXTRACT: note_on channel=1 note=58 velocity=80 time=0EXTRACT: note_on channel=1 note=62 velocity=80 time=0EXTRACT: note_on channel=1 note=24 velocity=80 time=0EXTRACT: note_on channel=1 note=36 velocity=80 time=0EXTRACT: note_on channel=1 note=51 velocity=0 time=1.5183333333333333EXTRACT: note_on channel=1 note=55 velocity=0 time=0EXTRACT: note_on channel=1 note=58 velocity=0 time=0EXTRACT: note_on channel=1 note=62 velocity=0 time=0EXTRACT: note_on channel=1 note=24 velocity=0 time=0EXTRACT: note_on channel=1 note=36 velocity=0 time=0EXTRACT: note_on channel=1 note=51 velocity=80 time=0.08166666666666667EXTRACT: note_on channel=1 note=55 velocity=80 time=0EXTRACT: note_on channel=1 note=58 velocity=80 time=0EXTRACT: note_on channel=1 note=62 velocity=80 time=0EXTRACT: note_on channel=1 note=24 velocity=80 time=0EXTRACT: note_on channel=1 note=36 velocity=80 time=0EXTRACT: note_on channel=1 note=51 velocity=0 time=0.7583333333333333EXTRACT: note_on channel=1 note=55 velocity=0 time=0EXTRACT: note_on channel=1 note=58 velocity=0 time=0EXTRACT: note_on channel=1 note=62 velocity=0 time=0EXTRACT: note_on channel=1 note=24 velocity=0 time=0EXTRACT: note_on channel=1 note=36 velocity=0 time=0EXTRACT: note_on channel=1 note=55 velocity=80 time=0.041666666666666664EXTRACT: note_on channel=1 note=58 velocity=80 time=0EXTRACT: note_on channel=1 note=63 velocity=80 time=0EXTRACT: note_on channel=1 note=27 velocity=80 time=0EXTRACT: note_on channel=1 note=39 velocity=80 time=0EXTRACT: note_on channel=1 note=55 velocity=0 time=0.7583333333333333EXTRACT: note_on channel=1 note=58 velocity=0 time=0EXTRACT: note_on channel=1 note=63 velocity=0 time=0EXTRACT: note_on channel=1 note=27 velocity=0 time=0EXTRACT: note_on channel=1 note=39 velocity=0 time=0EXTRACT: note_on channel=1 note=58 velocity=80 time=0.041666666666666664EXTRACT: note_on channel=1 note=60 velocity=80 time=0EXTRACT: note_on channel=1 note=63 velocity=80 time=0EXTRACT: note_on channel=1 note=67 velocity=80 time=0EXTRACT: note_on channel=1 note=32 velocity=80 time=0EXTRACT: note_on channel=1 note=44 velocity=80 time=0EXTRACT: note_on channel=1 note=58 velocity=0 time=1.5183333333333333EXTRACT: note_on channel=1 note=60 velocity=0 time=0EXTRACT: note_on channel=1 note=63 velocity=0 time=0EXTRACT: note_on channel=1 note=67 velocity=0 time=0EXTRACT: note_on channel=1 note=58 velocity=80 time=0.08166666666666667EXTRACT: note_on channel=1 note=60 velocity=80 time=0EXTRACT: note_on channel=1 note=63 velocity=80 time=0EXTRACT: note_on channel=1 note=67 velocity=80 time=0EXTRACT: note_on channel=1 note=58 velocity=0 time=0.7583333333333333EXTRACT: note_on channel=1 note=60 velocity=0 time=0EXTRACT: note_on channel=1 note=63 velocity=0 time=0EXTRACT: note_on channel=1 note=67 velocity=0 time=0EXTRACT: note_on channel=1 note=63 velocity=80 time=0.041666666666666664EXTRACT: note_on channel=1 note=32 velocity=0 time=0.6383333333333333EXTRACT: note_on channel=1 note=44 velocity=0 time=0EXTRACT: note_on channel=1 note=63 velocity=0 time=0.12EXTRACT: note_on channel=1 note=51 velocity=80 time=0.041666666666666664EXTRACT: note_on channel=1 note=55 velocity=80 time=0EXTRACT: note_on channel=1 note=58 velocity=80 time=0EXTRACT: note_on channel=1 note=62 velocity=80 time=0EXTRACT: note_on channel=1 note=24 velocity=80 time=0EXTRACT: note_on channel=1 note=36 velocity=80 time=0EXTRACT: note_on channel=1 note=51 velocity=0 time=1.5183333333333333EXTRACT: note_on channel=1 note=55 velocity=0 time=0EXTRACT: note_on channel=1 note=58 velocity=0 time=0EXTRACT: note_on channel=1 note=62 velocity=0 time=0EXTRACT: note_on channel=1 note=24 velocity=0 time=0EXTRACT: note_on channel=1 note=36 velocity=0 time=0EXTRACT: note_on channel=1 note=51 velocity=80 time=0.08166666666666667EXTRACT: note_on channel=1 note=55 velocity=80 time=0EXTRACT: note_on channel=1 note=58 velocity=80 time=0EXTRACT: note_on channel=1 note=62 velocity=80 time=0EXTRACT: note_on channel=1 note=24 velocity=80 time=0EXTRACT: note_on channel=1 note=36 velocity=80 time=0EXTRACT: note_on channel=1 note=51 velocity=0 time=0.7583333333333333EXTRACT: note_on channel=1 note=55 velocity=0 time=0EXTRACT: note_on channel=1 note=58 velocity=0 time=0EXTRACT: note_on channel=1 note=62 velocity=0 time=0EXTRACT: note_on channel=1 note=24 velocity=0 time=0EXTRACT: note_on channel=1 note=36 velocity=0 time=0EXTRACT: note_on channel=1 note=55 velocity=80 time=0.041666666666666664EXTRACT: note_on channel=1 note=58 velocity=80 time=0EXTRACT: note_on channel=1 note=63 velocity=80 time=0EXTRACT: note_on channel=1 note=27 velocity=80 time=0EXTRACT: note_on channel=1 note=39 velocity=80 time=0EXTRACT: note_on channel=1 note=55 velocity=0 time=0.7583333333333333EXTRACT: note_on channel=1 note=58 velocity=0 time=0EXTRACT: note_on channel=1 note=63 velocity=0 time=0EXTRACT: note_on channel=1 note=27 velocity=0 time=0EXTRACT: note_on channel=1 note=39 velocity=0 time=0EXTRACT: note_on channel=1 note=58 velocity=80 time=0.041666666666666664EXTRACT: note_on channel=1 note=60 velocity=80 time=0EXTRACT: note_on channel=1 note=63 velocity=80 time=0EXTRACT: note_on channel=1 note=67 velocity=80 time=0EXTRACT: note_on channel=1 note=32 velocity=80 time=0EXTRACT: note_on channel=1 note=44 velocity=80 time=0EXTRACT: note_on channel=1 note=58 velocity=0 time=1.5183333333333333EXTRACT: note_on channel=1 note=60 velocity=0 time=0EXTRACT: note_on channel=1 note=63 velocity=0 time=0EXTRACT: note_on channel=1 note=67 velocity=0 time=0EXTRACT: note_on channel=1 note=58 velocity=80 time=0.08166666666666667EXTRACT: note_on channel=1 note=60 velocity=80 time=0EXTRACT: note_on channel=1 note=63 velocity=80 time=0EXTRACT: note_on channel=1 note=67 velocity=80 time=0EXTRACT: note_on channel=1 note=58 velocity=0 time=0.3783333333333333EXTRACT: note_on channel=1 note=60 velocity=0 time=0EXTRACT: note_on channel=1 note=63 velocity=0 time=0EXTRACT: note_on channel=1 note=67 velocity=0 time=0EXTRACT: note_on channel=1 note=65 velocity=80 time=0.021666666666666664EXTRACT: note_on channel=1 note=65 velocity=0 time=0.3783333333333333EXTRACT: note_on channel=1 note=63 velocity=80 time=0.021666666666666664EXTRACT: note_on channel=1 note=63 velocity=0 time=0.3783333333333333EXTRACT: note_on channel=1 note=62 velocity=80 time=0.021666666666666664EXTRACT: note_on channel=1 note=32 velocity=0 time=0.2383333333333333EXTRACT: note_on channel=1 note=44 velocity=0 time=0EXTRACT: note_on channel=1 note=62 velocity=0 time=0.13999999999999999EXTRACT: note_on channel=1 note=51 velocity=80 time=0.021666666666666664EXTRACT: note_on channel=1 note=55 velocity=80 time=0EXTRACT: note_on channel=1 note=58 velocity=80 time=0EXTRACT: note_on channel=1 note=62 velocity=80 time=0EXTRACT: note_on channel=1 note=24 velocity=80 time=0EXTRACT: note_on channel=1 note=36 velocity=80 time=0EXTRACT: note_on channel=1 note=51 velocity=0 time=1.5183333333333333EXTRACT: note_on channel=1 note=55 velocity=0 time=0EXTRACT: note_on channel=1 note=58 velocity=0 time=0EXTRACT: note_on channel=1 note=62 velocity=0 time=0EXTRACT: note_on channel=1 note=24 velocity=0 time=0EXTRACT: note_on channel=1 note=36 velocity=0 time=0EXTRACT: note_on channel=1 note=51 velocity=80 time=0.08166666666666667EXTRACT: note_on channel=1 note=55 velocity=80 time=0EXTRACT: note_on channel=1 note=58 velocity=80 time=0EXTRACT: note_on channel=1 note=62 velocity=80 time=0EXTRACT: note_on channel=1 note=24 velocity=80 time=0EXTRACT: note_on channel=1 note=36 velocity=80 time=0EXTRACT: note_on channel=1 note=51 velocity=0 time=0.7583333333333333EXTRACT: note_on channel=1 note=55 velocity=0 time=0EXTRACT: note_on channel=1 note=58 velocity=0 time=0EXTRACT: note_on channel=1 note=62 velocity=0 time=0EXTRACT: note_on channel=1 note=24 velocity=0 time=0EXTRACT: note_on channel=1 note=36 velocity=0 time=0EXTRACT: note_on channel=1 note=55 velocity=80 time=0.041666666666666664EXTRACT: note_on channel=1 note=58 velocity=80 time=0EXTRACT: note_on channel=1 note=63 velocity=80 time=0EXTRACT: note_on channel=1 note=27 velocity=80 time=0EXTRACT: note_on channel=1 note=39 velocity=80 time=0EXTRACT: note_on channel=1 note=55 velocity=0 time=0.7583333333333333EXTRACT: note_on channel=1 note=58 velocity=0 time=0EXTRACT: note_on channel=1 note=63 velocity=0 time=0EXTRACT: note_on channel=1 note=27 velocity=0 time=0EXTRACT: note_on channel=1 note=39 velocity=0 time=0EXTRACT: note_on channel=1 note=58 velocity=80 time=0.041666666666666664EXTRACT: note_on channel=1 note=60 velocity=80 time=0EXTRACT: note_on channel=1 note=63 velocity=80 time=0EXTRACT: note_on channel=1 note=67 velocity=80 time=0EXTRACT: note_on channel=1 note=32 velocity=80 time=0EXTRACT: note_on channel=1 note=44 velocity=80 time=0EXTRACT: note_on channel=1 note=58 velocity=0 time=1.5183333333333333EXTRACT: note_on channel=1 note=60 velocity=0 time=0EXTRACT: note_on channel=1 note=63 velocity=0 time=0EXTRACT: note_on channel=1 note=67 velocity=0 time=0EXTRACT: note_on channel=1 note=58 velocity=80 time=0.08166666666666667EXTRACT: note_on channel=1 note=60 velocity=80 time=0EXTRACT: note_on channel=1 note=63 velocity=80 time=0EXTRACT: note_on channel=1 note=67 velocity=80 time=0EXTRACT: note_on channel=1 note=58 velocity=0 time=0.7583333333333333EXTRACT: note_on channel=1 note=60 velocity=0 time=0EXTRACT: note_on channel=1 note=63 velocity=0 time=0EXTRACT: note_on channel=1 note=67 velocity=0 time=0EXTRACT: note_on channel=1 note=63 velocity=80 time=0.041666666666666664EXTRACT: note_on channel=1 note=32 velocity=0 time=0.6383333333333333EXTRACT: note_on channel=1 note=44 velocity=0 time=0EXTRACT: note_on channel=1 note=63 velocity=0 time=0.12EXTRACT: note_on channel=1 note=51 velocity=80 time=0.041666666666666664EXTRACT: note_on channel=1 note=55 velocity=80 time=0EXTRACT: note_on channel=1 note=58 velocity=80 time=0EXTRACT: note_on channel=1 note=62 velocity=80 time=0EXTRACT: note_on channel=1 note=24 velocity=80 time=0EXTRACT: note_on channel=1 note=36 velocity=80 time=0EXTRACT: note_on channel=1 note=51 velocity=0 time=1.5183333333333333EXTRACT: note_on channel=1 note=55 velocity=0 time=0EXTRACT: note_on channel=1 note=58 velocity=0 time=0EXTRACT: note_on channel=1 note=62 velocity=0 time=0EXTRACT: note_on channel=1 note=24 velocity=0 time=0EXTRACT: note_on channel=1 note=36 velocity=0 time=0EXTRACT: note_on channel=1 note=51 velocity=80 time=0.08166666666666667EXTRACT: note_on channel=1 note=55 velocity=80 time=0EXTRACT: note_on channel=1 note=58 velocity=80 time=0EXTRACT: note_on channel=1 note=62 velocity=80 time=0EXTRACT: note_on channel=1 note=24 velocity=80 time=0EXTRACT: note_on channel=1 note=36 velocity=80 time=0EXTRACT: note_on channel=1 note=51 velocity=0 time=0.7583333333333333EXTRACT: note_on channel=1 note=55 velocity=0 time=0EXTRACT: note_on channel=1 note=58 velocity=0 time=0EXTRACT: note_on channel=1 note=62 velocity=0 time=0EXTRACT: note_on channel=1 note=24 velocity=0 time=0EXTRACT: note_on channel=1 note=36 velocity=0 time=0EXTRACT: note_on channel=1 note=55 velocity=80 time=0.041666666666666664EXTRACT: note_on channel=1 note=58 velocity=80 time=0EXTRACT: note_on channel=1 note=63 velocity=80 time=0EXTRACT: note_on channel=1 note=27 velocity=80 time=0EXTRACT: note_on channel=1 note=39 velocity=80 time=0EXTRACT: note_on channel=1 note=55 velocity=0 time=0.7583333333333333EXTRACT: note_on channel=1 note=58 velocity=0 time=0EXTRACT: note_on channel=1 note=63 velocity=0 time=0EXTRACT: note_on channel=1 note=27 velocity=0 time=0EXTRACT: note_on channel=1 note=39 velocity=0 time=0EXTRACT: note_on channel=1 note=58 velocity=80 time=0.041666666666666664EXTRACT: note_on channel=1 note=60 velocity=80 time=0EXTRACT: note_on channel=1 note=63 velocity=80 time=0EXTRACT: note_on channel=1 note=67 velocity=80 time=0EXTRACT: note_on channel=1 note=32 velocity=80 time=0EXTRACT: note_on channel=1 note=44 velocity=80 time=0EXTRACT: note_on channel=1 note=58 velocity=0 time=1.5183333333333333EXTRACT: note_on channel=1 note=60 velocity=0 time=0EXTRACT: note_on channel=1 note=63 velocity=0 time=0EXTRACT: note_on channel=1 note=67 velocity=0 time=0EXTRACT: note_on channel=1 note=58 velocity=80 time=0.08166666666666667EXTRACT: note_on channel=1 note=60 velocity=80 time=0EXTRACT: note_on channel=1 note=63 velocity=80 time=0EXTRACT: note_on channel=1 note=67 velocity=80 time=0EXTRACT: note_on channel=1 note=58 velocity=0 time=0.3783333333333333EXTRACT: note_on channel=1 note=60 velocity=0 time=0EXTRACT: note_on channel=1 note=63 velocity=0 time=0EXTRACT: note_on channel=1 note=67 velocity=0 time=0EXTRACT: note_on channel=1 note=65 velocity=80 time=0.021666666666666664EXTRACT: note_on channel=1 note=65 velocity=0 time=0.3783333333333333EXTRACT: note_on channel=1 note=63 velocity=80 time=0.021666666666666664EXTRACT: note_on channel=1 note=63 velocity=0 time=0.3783333333333333EXTRACT: note_on channel=1 note=62 velocity=80 time=0.021666666666666664EXTRACT: note_on channel=1 note=32 velocity=0 time=0.2383333333333333EXTRACT: note_on channel=1 note=44 velocity=0 time=0EXTRACT: note_on channel=1 note=62 velocity=0 time=0.13999999999999999EXTRACT: note_on channel=1 note=51 velocity=80 time=0.021666666666666664EXTRACT: note_on channel=1 note=55 velocity=80 time=0EXTRACT: note_on channel=1 note=58 velocity=80 time=0EXTRACT: note_on channel=1 note=62 velocity=80 time=0EXTRACT: note_on channel=1 note=24 velocity=80 time=0EXTRACT: note_on channel=1 note=36 velocity=80 time=0EXTRACT: note_on channel=1 note=51 velocity=0 time=1.5183333333333333EXTRACT: note_on channel=1 note=55 velocity=0 time=0EXTRACT: note_on channel=1 note=58 velocity=0 time=0EXTRACT: note_on channel=1 note=62 velocity=0 time=0EXTRACT: note_on channel=1 note=24 velocity=0 time=0EXTRACT: note_on channel=1 note=36 velocity=0 time=0EXTRACT: note_on channel=1 note=51 velocity=80 time=0.08166666666666667EXTRACT: note_on channel=1 note=55 velocity=80 time=0EXTRACT: note_on channel=1 note=58 velocity=80 time=0EXTRACT: note_on channel=1 note=62 velocity=80 time=0EXTRACT: note_on channel=1 note=24 velocity=80 time=0EXTRACT: note_on channel=1 note=36 velocity=80 time=0EXTRACT: note_on channel=1 note=51 velocity=0 time=0.7583333333333333EXTRACT: note_on channel=1 note=55 velocity=0 time=0EXTRACT: note_on channel=1 note=58 velocity=0 time=0EXTRACT: note_on channel=1 note=62 velocity=0 time=0EXTRACT: note_on channel=1 note=24 velocity=0 time=0EXTRACT: note_on channel=1 note=36 velocity=0 time=0EXTRACT: note_on channel=1 note=55 velocity=80 time=0.041666666666666664EXTRACT: note_on channel=1 note=58 velocity=80 time=0EXTRACT: note_on channel=1 note=63 velocity=80 time=0EXTRACT: note_on channel=1 note=27 velocity=80 time=0EXTRACT: note_on channel=1 note=39 velocity=80 time=0EXTRACT: note_on channel=1 note=55 velocity=0 time=0.7583333333333333EXTRACT: note_on channel=1 note=58 velocity=0 time=0EXTRACT: note_on channel=1 note=63 velocity=0 time=0EXTRACT: note_on channel=1 note=27 velocity=0 time=0EXTRACT: note_on channel=1 note=39 velocity=0 time=0EXTRACT: note_on channel=1 note=58 velocity=80 time=0.041666666666666664EXTRACT: note_on channel=1 note=60 velocity=80 time=0EXTRACT: note_on channel=1 note=63 velocity=80 time=0EXTRACT: note_on channel=1 note=67 velocity=80 time=0EXTRACT: note_on channel=1 note=32 velocity=80 time=0EXTRACT: note_on channel=1 note=44 velocity=80 time=0EXTRACT: note_on channel=1 note=58 velocity=0 time=1.5183333333333333EXTRACT: note_on channel=1 note=60 velocity=0 time=0EXTRACT: note_on channel=1 note=63 velocity=0 time=0EXTRACT: note_on channel=1 note=67 velocity=0 time=0EXTRACT: note_on channel=1 note=58 velocity=80 time=0.08166666666666667EXTRACT: note_on channel=1 note=60 velocity=80 time=0EXTRACT: note_on channel=1 note=63 velocity=80 time=0EXTRACT: note_on channel=1 note=67 velocity=80 time=0EXTRACT: note_on channel=1 note=58 velocity=0 time=0.7583333333333333EXTRACT: note_on channel=1 note=60 velocity=0 time=0EXTRACT: note_on channel=1 note=63 velocity=0 time=0EXTRACT: note_on channel=1 note=67 velocity=0 time=0EXTRACT: note_on channel=1 note=63 velocity=80 time=0.041666666666666664EXTRACT: note_on channel=1 note=32 velocity=0 time=0.6383333333333333EXTRACT: note_on channel=1 note=44 velocity=0 time=0EXTRACT: note_on channel=1 note=63 velocity=0 time=0.12EXTRACT: note_on channel=1 note=51 velocity=80 time=0.041666666666666664EXTRACT: note_on channel=1 note=55 velocity=80 time=0EXTRACT: note_on channel=1 note=58 velocity=80 time=0EXTRACT: note_on channel=1 note=62 velocity=80 time=0EXTRACT: note_on channel=1 note=24 velocity=80 time=0EXTRACT: note_on channel=1 note=36 velocity=80 time=0EXTRACT: note_on channel=1 note=51 velocity=0 time=1.5183333333333333EXTRACT: note_on channel=1 note=55 velocity=0 time=0EXTRACT: note_on channel=1 note=58 velocity=0 time=0EXTRACT: note_on channel=1 note=62 velocity=0 time=0EXTRACT: note_on channel=1 note=24 velocity=0 time=0EXTRACT: note_on channel=1 note=36 velocity=0 time=0EXTRACT: note_on channel=1 note=51 velocity=80 time=0.08166666666666667EXTRACT: note_on channel=1 note=55 velocity=80 time=0EXTRACT: note_on channel=1 note=58 velocity=80 time=0EXTRACT: note_on channel=1 note=62 velocity=80 time=0EXTRACT: note_on channel=1 note=24 velocity=80 time=0EXTRACT: note_on channel=1 note=36 velocity=80 time=0EXTRACT: note_on channel=1 note=51 velocity=0 time=0.7583333333333333EXTRACT: note_on channel=1 note=55 velocity=0 time=0EXTRACT: note_on channel=1 note=58 velocity=0 time=0EXTRACT: note_on channel=1 note=62 velocity=0 time=0EXTRACT: note_on channel=1 note=24 velocity=0 time=0EXTRACT: note_on channel=1 note=36 velocity=0 time=0EXTRACT: note_on channel=1 note=55 velocity=80 time=0.041666666666666664EXTRACT: note_on channel=1 note=58 velocity=80 time=0EXTRACT: note_on channel=1 note=63 velocity=80 time=0EXTRACT: note_on channel=1 note=27 velocity=80 time=0EXTRACT: note_on channel=1 note=39 velocity=80 time=0EXTRACT: note_on channel=1 note=55 velocity=0 time=0.7583333333333333EXTRACT: note_on channel=1 note=58 velocity=0 time=0EXTRACT: note_on channel=1 note=63 velocity=0 time=0EXTRACT: note_on channel=1 note=27 velocity=0 time=0EXTRACT: note_on channel=1 note=39 velocity=0 time=0EXTRACT: note_on channel=1 note=58 velocity=80 time=0.041666666666666664EXTRACT: note_on channel=1 note=60 velocity=80 time=0EXTRACT: note_on channel=1 note=63 velocity=80 time=0EXTRACT: note_on channel=1 note=67 velocity=80 time=0EXTRACT: note_on channel=1 note=32 velocity=80 time=0EXTRACT: note_on channel=1 note=44 velocity=80 time=0EXTRACT: note_on channel=1 note=58 velocity=0 time=1.5183333333333333EXTRACT: note_on channel=1 note=60 velocity=0 time=0EXTRACT: note_on channel=1 note=63 velocity=0 time=0EXTRACT: note_on channel=1 note=67 velocity=0 time=0EXTRACT: note_on channel=1 note=58 velocity=80 time=0.08166666666666667EXTRACT: note_on channel=1 note=60 velocity=80 time=0EXTRACT: note_on channel=1 note=63 velocity=80 time=0EXTRACT: note_on channel=1 note=67 velocity=80 time=0EXTRACT: note_on channel=1 note=58 velocity=0 time=0.3783333333333333EXTRACT: note_on channel=1 note=60 velocity=0 time=0EXTRACT: note_on channel=1 note=63 velocity=0 time=0EXTRACT: note_on channel=1 note=67 velocity=0 time=0EXTRACT: note_on channel=1 note=65 velocity=80 time=0.021666666666666664EXTRACT: note_on channel=1 note=65 velocity=0 time=0.3783333333333333EXTRACT: note_on channel=1 note=63 velocity=80 time=0.021666666666666664EXTRACT: note_on channel=1 note=63 velocity=0 time=0.3783333333333333EXTRACT: note_on channel=1 note=62 velocity=80 time=0.021666666666666664EXTRACT: note_on channel=1 note=32 velocity=0 time=0.2383333333333333EXTRACT: note_on channel=1 note=44 velocity=0 time=0EXTRACT: note_on channel=1 note=62 velocity=0 time=0.13999999999999999EXTRACT: note_on channel=1 note=51 velocity=80 time=0.021666666666666664EXTRACT: note_on channel=1 note=55 velocity=80 time=0EXTRACT: note_on channel=1 note=58 velocity=80 time=0EXTRACT: note_on channel=1 note=62 velocity=80 time=0EXTRACT: note_on channel=1 note=24 velocity=80 time=0EXTRACT: note_on channel=1 note=36 velocity=80 time=0EXTRACT: note_on channel=1 note=51 velocity=0 time=1.5183333333333333EXTRACT: note_on channel=1 note=55 velocity=0 time=0EXTRACT: note_on channel=1 note=58 velocity=0 time=0EXTRACT: note_on channel=1 note=62 velocity=0 time=0EXTRACT: note_on channel=1 note=24 velocity=0 time=0EXTRACT: note_on channel=1 note=36 velocity=0 time=0EXTRACT: note_on channel=1 note=51 velocity=80 time=0.08166666666666667EXTRACT: note_on channel=1 note=55 velocity=80 time=0EXTRACT: note_on channel=1 note=58 velocity=80 time=0EXTRACT: note_on channel=1 note=62 velocity=80 time=0EXTRACT: note_on channel=1 note=24 velocity=80 time=0EXTRACT: note_on channel=1 note=36 velocity=80 time=0EXTRACT: note_on channel=1 note=51 velocity=0 time=0.7583333333333333EXTRACT: note_on channel=1 note=55 velocity=0 time=0EXTRACT: note_on channel=1 note=58 velocity=0 time=0EXTRACT: note_on channel=1 note=62 velocity=0 time=0EXTRACT: note_on channel=1 note=24 velocity=0 time=0EXTRACT: note_on channel=1 note=36 velocity=0 time=0EXTRACT: note_on channel=1 note=55 velocity=80 time=0.041666666666666664EXTRACT: note_on channel=1 note=58 velocity=80 time=0EXTRACT: note_on channel=1 note=63 velocity=80 time=0EXTRACT: note_on channel=1 note=27 velocity=80 time=0EXTRACT: note_on channel=1 note=39 velocity=80 time=0EXTRACT: note_on channel=1 note=55 velocity=0 time=0.7583333333333333EXTRACT: note_on channel=1 note=58 velocity=0 time=0EXTRACT: note_on channel=1 note=63 velocity=0 time=0EXTRACT: note_on channel=1 note=27 velocity=0 time=0EXTRACT: note_on channel=1 note=39 velocity=0 time=0EXTRACT: note_on channel=1 note=58 velocity=80 time=0.041666666666666664EXTRACT: note_on channel=1 note=60 velocity=80 time=0EXTRACT: note_on channel=1 note=63 velocity=80 time=0EXTRACT: note_on channel=1 note=67 velocity=80 time=0EXTRACT: note_on channel=1 note=32 velocity=80 time=0EXTRACT: note_on channel=1 note=44 velocity=80 time=0EXTRACT: note_on channel=1 note=58 velocity=0 time=1.5183333333333333EXTRACT: note_on channel=1 note=60 velocity=0 time=0EXTRACT: note_on channel=1 note=63 velocity=0 time=0EXTRACT: note_on channel=1 note=67 velocity=0 time=0EXTRACT: note_on channel=1 note=58 velocity=80 time=0.08166666666666667EXTRACT: note_on channel=1 note=60 velocity=80 time=0EXTRACT: note_on channel=1 note=63 velocity=80 time=0EXTRACT: note_on channel=1 note=67 velocity=80 time=0EXTRACT: note_on channel=1 note=58 velocity=0 time=0.7583333333333333EXTRACT: note_on channel=1 note=60 velocity=0 time=0EXTRACT: note_on channel=1 note=63 velocity=0 time=0EXTRACT: note_on channel=1 note=67 velocity=0 time=0EXTRACT: note_on channel=1 note=63 velocity=80 time=0.041666666666666664EXTRACT: note_on channel=1 note=32 velocity=0 time=0.6383333333333333EXTRACT: note_on channel=1 note=44 velocity=0 time=0EXTRACT: note_on channel=1 note=63 velocity=0 time=0.12EXTRACT: note_on channel=1 note=51 velocity=80 time=0.041666666666666664EXTRACT: note_on channel=1 note=55 velocity=80 time=0EXTRACT: note_on channel=1 note=58 velocity=80 time=0EXTRACT: note_on channel=1 note=62 velocity=80 time=0EXTRACT: note_on channel=1 note=24 velocity=80 time=0EXTRACT: note_on channel=1 note=36 velocity=80 time=0EXTRACT: note_on channel=1 note=51 velocity=0 time=1.5183333333333333EXTRACT: note_on channel=1 note=55 velocity=0 time=0EXTRACT: note_on channel=1 note=58 velocity=0 time=0EXTRACT: note_on channel=1 note=62 velocity=0 time=0EXTRACT: note_on channel=1 note=24 velocity=0 time=0EXTRACT: note_on channel=1 note=36 velocity=0 time=0EXTRACT: note_on channel=1 note=51 velocity=80 time=0.08166666666666667EXTRACT: note_on channel=1 note=55 velocity=80 time=0EXTRACT: note_on channel=1 note=58 velocity=80 time=0EXTRACT: note_on channel=1 note=62 velocity=80 time=0EXTRACT: note_on channel=1 note=24 velocity=80 time=0EXTRACT: note_on channel=1 note=36 velocity=80 time=0EXTRACT: note_on channel=1 note=51 velocity=0 time=0.7583333333333333EXTRACT: note_on channel=1 note=55 velocity=0 time=0EXTRACT: note_on channel=1 note=58 velocity=0 time=0EXTRACT: note_on channel=1 note=62 velocity=0 time=0EXTRACT: note_on channel=1 note=24 velocity=0 time=0EXTRACT: note_on channel=1 note=36 velocity=0 time=0EXTRACT: note_on channel=1 note=55 velocity=80 time=0.041666666666666664EXTRACT: note_on channel=1 note=58 velocity=80 time=0EXTRACT: note_on channel=1 note=63 velocity=80 time=0EXTRACT: note_on channel=1 note=27 velocity=80 time=0EXTRACT: note_on channel=1 note=39 velocity=80 time=0EXTRACT: note_on channel=1 note=55 velocity=0 time=0.7583333333333333EXTRACT: note_on channel=1 note=58 velocity=0 time=0EXTRACT: note_on channel=1 note=63 velocity=0 time=0EXTRACT: note_on channel=1 note=27 velocity=0 time=0EXTRACT: note_on channel=1 note=39 velocity=0 time=0EXTRACT: note_on channel=1 note=58 velocity=80 time=0.041666666666666664EXTRACT: note_on channel=1 note=60 velocity=80 time=0EXTRACT: note_on channel=1 note=63 velocity=80 time=0EXTRACT: note_on channel=1 note=67 velocity=80 time=0EXTRACT: note_on channel=1 note=32 velocity=80 time=0EXTRACT: note_on channel=1 note=44 velocity=80 time=0EXTRACT: note_on channel=1 note=58 velocity=0 time=1.5183333333333333EXTRACT: note_on channel=1 note=60 velocity=0 time=0EXTRACT: note_on channel=1 note=63 velocity=0 time=0EXTRACT: note_on channel=1 note=67 velocity=0 time=0EXTRACT: note_on channel=1 note=58 velocity=80 time=0.08166666666666667EXTRACT: note_on channel=1 note=60 velocity=80 time=0EXTRACT: note_on channel=1 note=63 velocity=80 time=0EXTRACT: note_on channel=1 note=67 velocity=80 time=0EXTRACT: note_on channel=1 note=58 velocity=0 time=0.3783333333333333EXTRACT: note_on channel=1 note=60 velocity=0 time=0EXTRACT: note_on channel=1 note=63 velocity=0 time=0EXTRACT: note_on channel=1 note=67 velocity=0 time=0EXTRACT: note_on channel=1 note=65 velocity=80 time=0.021666666666666664EXTRACT: note_on channel=1 note=65 velocity=0 time=0.3783333333333333EXTRACT: note_on channel=1 note=63 velocity=80 time=0.021666666666666664EXTRACT: note_on channel=1 note=63 velocity=0 time=0.3783333333333333EXTRACT: note_on channel=1 note=62 velocity=80 time=0.021666666666666664EXTRACT: note_on channel=1 note=32 velocity=0 time=0.2383333333333333EXTRACT: note_on channel=1 note=44 velocity=0 time=0EXTRACT: note_on channel=1 note=62 velocity=0 time=0.13999999999999999EXTRACT: note_on channel=1 note=51 velocity=80 time=0.021666666666666664EXTRACT: note_on channel=1 note=55 velocity=80 time=0EXTRACT: note_on channel=1 note=58 velocity=80 time=0EXTRACT: note_on channel=1 note=62 velocity=80 time=0EXTRACT: note_on channel=1 note=24 velocity=80 time=0EXTRACT: note_on channel=1 note=36 velocity=80 time=0EXTRACT: note_on channel=1 note=51 velocity=0 time=1.5183333333333333EXTRACT: note_on channel=1 note=55 velocity=0 time=0EXTRACT: note_on channel=1 note=58 velocity=0 time=0EXTRACT: note_on channel=1 note=62 velocity=0 time=0EXTRACT: note_on channel=1 note=24 velocity=0 time=0EXTRACT: note_on channel=1 note=36 velocity=0 time=0EXTRACT: note_on channel=1 note=51 velocity=80 time=0.08166666666666667EXTRACT: note_on channel=1 note=55 velocity=80 time=0EXTRACT: note_on channel=1 note=58 velocity=80 time=0EXTRACT: note_on channel=1 note=62 velocity=80 time=0EXTRACT: note_on channel=1 note=24 velocity=80 time=0EXTRACT: note_on channel=1 note=36 velocity=80 time=0EXTRACT: note_on channel=1 note=51 velocity=0 time=0.7583333333333333EXTRACT: note_on channel=1 note=55 velocity=0 time=0EXTRACT: note_on channel=1 note=58 velocity=0 time=0EXTRACT: note_on channel=1 note=62 velocity=0 time=0EXTRACT: note_on channel=1 note=24 velocity=0 time=0EXTRACT: note_on channel=1 note=36 velocity=0 time=0EXTRACT: note_on channel=1 note=55 velocity=80 time=0.041666666666666664EXTRACT: note_on channel=1 note=58 velocity=80 time=0EXTRACT: note_on channel=1 note=63 velocity=80 time=0EXTRACT: note_on channel=1 note=27 velocity=80 time=0EXTRACT: note_on channel=1 note=39 velocity=80 time=0EXTRACT: note_on channel=1 note=55 velocity=0 time=0.7583333333333333EXTRACT: note_on channel=1 note=58 velocity=0 time=0EXTRACT: note_on channel=1 note=63 velocity=0 time=0EXTRACT: note_on channel=1 note=27 velocity=0 time=0EXTRACT: note_on channel=1 note=39 velocity=0 time=0EXTRACT: note_on channel=1 note=58 velocity=80 time=0.041666666666666664EXTRACT: note_on channel=1 note=60 velocity=80 time=0EXTRACT: note_on channel=1 note=63 velocity=80 time=0EXTRACT: note_on channel=1 note=67 velocity=80 time=0EXTRACT: note_on channel=1 note=32 velocity=80 time=0EXTRACT: note_on channel=1 note=44 velocity=80 time=0EXTRACT: note_on channel=1 note=58 velocity=0 time=1.5183333333333333EXTRACT: note_on channel=1 note=60 velocity=0 time=0EXTRACT: note_on channel=1 note=63 velocity=0 time=0EXTRACT: note_on channel=1 note=67 velocity=0 time=0EXTRACT: note_on channel=1 note=58 velocity=80 time=0.08166666666666667EXTRACT: note_on channel=1 note=60 velocity=80 time=0EXTRACT: note_on channel=1 note=63 velocity=80 time=0EXTRACT: note_on channel=1 note=67 velocity=80 time=0EXTRACT: note_on channel=1 note=58 velocity=0 time=0.7583333333333333EXTRACT: note_on channel=1 note=60 velocity=0 time=0EXTRACT: note_on channel=1 note=63 velocity=0 time=0EXTRACT: note_on channel=1 note=67 velocity=0 time=0EXTRACT: note_on channel=1 note=55 velocity=80 time=0.041666666666666664EXTRACT: note_on channel=1 note=58 velocity=80 time=0EXTRACT: note_on channel=1 note=63 velocity=80 time=0EXTRACT: note_on channel=1 note=32 velocity=0 time=0.6383333333333333EXTRACT: note_on channel=1 note=44 velocity=0 time=0EXTRACT: note_on channel=1 note=55 velocity=0 time=0.12EXTRACT: note_on channel=1 note=58 velocity=0 time=0EXTRACT: note_on channel=1 note=63 velocity=0 time=0
MUSIC027 - J.Cole _Love Yourz_ (Official Video).mid
INTERVALS027 - J.Cole _Love Yourz_ (Official Video).mid
unison0
2m0
2M0
3m0
3M0
4m0
4M0
5m0
5M0
6m0
7m0
7M0
