EXTRACT: control_change channel=0 control=121 value=0 time=0
EXTRACT: program_change channel=0 program=0 time=0
EXTRACT: control_change channel=0 control=7 value=100 time=0
EXTRACT: control_change channel=0 control=10 value=64 time=0
EXTRACT: control_change channel=0 control=91 value=0 time=0
EXTRACT: control_change channel=0 control=93 value=0 time=0
EXTRACT: note_on channel=0 note=75 velocity=49 time=1.428572
EXTRACT: note_on channel=0 note=61 velocity=49 time=0
EXTRACT: note_on channel=0 note=68 velocity=49 time=0
EXTRACT: note_on channel=0 note=75 velocity=0 time=0.062500025
EXTRACT: note_on channel=0 note=77 velocity=49 time=0.0014880958333333334
EXTRACT: note_on channel=0 note=77 velocity=0 time=0.27529772916666667
EXTRACT: note_on channel=0 note=75 velocity=49 time=0.017857150000000002
EXTRACT: note_on channel=0 note=61 velocity=0 time=0.3199406041666667
EXTRACT: note_on channel=0 note=68 velocity=0 time=0
EXTRACT: note_on channel=0 note=75 velocity=0 time=0.017857150000000002
EXTRACT: note_on channel=0 note=68 velocity=49 time=0.019345245833333333
EXTRACT: note_on channel=0 note=54 velocity=49 time=0
EXTRACT: note_on channel=0 note=61 velocity=49 time=0
EXTRACT: note_on channel=0 note=68 velocity=0 time=0.062500025
EXTRACT: note_on channel=0 note=70 velocity=49 time=0.0014880958333333334
EXTRACT: note_on channel=0 note=70 velocity=0 time=0.27529772916666667
EXTRACT: note_on channel=0 note=68 velocity=49 time=0.017857150000000002
EXTRACT: note_on channel=0 note=54 velocity=0 time=0.3199406041666667
EXTRACT: note_on channel=0 note=61 velocity=0 time=0
EXTRACT: note_on channel=0 note=68 velocity=0 time=0.017857150000000002
EXTRACT: note_on channel=0 note=73 velocity=49 time=0.019345245833333333
EXTRACT: note_on channel=0 note=58 velocity=49 time=0
EXTRACT: note_on channel=0 note=65 velocity=49 time=0
EXTRACT: note_on channel=0 note=73 velocity=0 time=4.069942104166667
EXTRACT: note_on channel=0 note=58 velocity=0 time=0
EXTRACT: note_on channel=0 note=65 velocity=0 time=0
EXTRACT: note_on channel=0 note=75 velocity=49 time=0.21577389583333334
EXTRACT: note_on channel=0 note=61 velocity=49 time=0
EXTRACT: note_on channel=0 note=68 velocity=49 time=0
EXTRACT: note_on channel=0 note=75 velocity=0 time=0.062500025
EXTRACT: note_on channel=0 note=77 velocity=49 time=0.0014880958333333334
EXTRACT: note_on channel=0 note=77 velocity=0 time=0.27529772916666667
EXTRACT: note_on channel=0 note=75 velocity=49 time=0.017857150000000002
EXTRACT: note_on channel=0 note=61 velocity=0 time=0.3199406041666667
EXTRACT: note_on channel=0 note=68 velocity=0 time=0
EXTRACT: note_on channel=0 note=75 velocity=0 time=0.017857150000000002
EXTRACT: note_on channel=0 note=68 velocity=49 time=0.019345245833333333
EXTRACT: note_on channel=0 note=54 velocity=49 time=0
EXTRACT: note_on channel=0 note=61 velocity=49 time=0
EXTRACT: note_on channel=0 note=68 velocity=0 time=0.062500025
EXTRACT: note_on channel=0 note=70 velocity=49 time=0.0014880958333333334
EXTRACT: note_on channel=0 note=70 velocity=0 time=0.27529772916666667
EXTRACT: note_on channel=0 note=68 velocity=49 time=0.017857150000000002
EXTRACT: note_on channel=0 note=54 velocity=0 time=0.3199406041666667
EXTRACT: note_on channel=0 note=61 velocity=0 time=0
EXTRACT: note_on channel=0 note=68 velocity=0 time=0.017857150000000002
EXTRACT: note_on channel=0 note=73 velocity=49 time=0.019345245833333333
EXTRACT: note_on channel=0 note=58 velocity=49 time=0
EXTRACT: note_on channel=0 note=65 velocity=49 time=0
EXTRACT: note_on channel=0 note=73 velocity=0 time=4.069942104166667
EXTRACT: note_on channel=0 note=58 velocity=0 time=0
EXTRACT: note_on channel=0 note=65 velocity=0 time=0
EXTRACT: note_on channel=0 note=72 velocity=49 time=0.21577389583333334
EXTRACT: note_on channel=0 note=61 velocity=49 time=0
EXTRACT: note_on channel=0 note=68 velocity=49 time=0
EXTRACT: note_on channel=0 note=72 velocity=0 time=0.062500025
EXTRACT: note_on channel=0 note=73 velocity=49 time=0.0014880958333333334
EXTRACT: note_on channel=0 note=73 velocity=0 time=0.27529772916666667
EXTRACT: note_on channel=0 note=72 velocity=49 time=0.017857150000000002
EXTRACT: note_on channel=0 note=61 velocity=0 time=0.3199406041666667
EXTRACT: note_on channel=0 note=68 velocity=0 time=0
EXTRACT: note_on channel=0 note=72 velocity=0 time=0.017857150000000002
EXTRACT: note_on channel=0 note=68 velocity=49 time=0.019345245833333333
EXTRACT: note_on channel=0 note=54 velocity=49 time=0
EXTRACT: note_on channel=0 note=61 velocity=49 time=0
EXTRACT: note_on channel=0 note=68 velocity=0 time=0.062500025
EXTRACT: note_on channel=0 note=70 velocity=49 time=0.0014880958333333334
EXTRACT: note_on channel=0 note=70 velocity=0 time=0.27529772916666667
EXTRACT: note_on channel=0 note=68 velocity=49 time=0.017857150000000002
EXTRACT: note_on channel=0 note=54 velocity=0 time=0.3199406041666667
EXTRACT: note_on channel=0 note=61 velocity=0 time=0
EXTRACT: note_on channel=0 note=68 velocity=0 time=0.017857150000000002
EXTRACT: note_on channel=0 note=68 velocity=49 time=0.019345245833333333
EXTRACT: note_on channel=0 note=49 velocity=49 time=0
EXTRACT: note_on channel=0 note=56 velocity=49 time=0
EXTRACT: note_on channel=0 note=68 velocity=0 time=3.3913704041666666
EXTRACT: note_on channel=0 note=63 velocity=49 time=0.5372025958333333
EXTRACT: note_on channel=0 note=49 velocity=0 time=0.14136910416666668
EXTRACT: note_on channel=0 note=56 velocity=0 time=0
EXTRACT: note_on channel=0 note=63 velocity=0 time=0.026785725
EXTRACT: note_on channel=0 note=65 velocity=49 time=0.010416670833333334
EXTRACT: note_on channel=0 note=65 velocity=0 time=0.16815482916666666
EXTRACT: note_on channel=0 note=66 velocity=49 time=0.010416670833333334
EXTRACT: note_on channel=0 note=54 velocity=49 time=0
EXTRACT: note_on channel=0 note=61 velocity=49 time=0
EXTRACT: note_on channel=0 note=66 velocity=0 time=0.3377977541666667
EXTRACT: note_on channel=0 note=65 velocity=49 time=0.019345245833333333
EXTRACT: note_on channel=0 note=54 velocity=0 time=0.3199406041666667
EXTRACT: note_on channel=0 note=61 velocity=0 time=0
EXTRACT: note_on channel=0 note=65 velocity=0 time=0.017857150000000002
EXTRACT: note_on channel=0 note=63 velocity=49 time=0.019345245833333333
EXTRACT: note_on channel=0 note=56 velocity=49 time=0
EXTRACT: note_on channel=0 note=63 velocity=0 time=0.5074406791666667
EXTRACT: note_on channel=0 note=61 velocity=49 time=0.028273820833333334
EXTRACT: note_on channel=0 note=56 velocity=0 time=0.14136910416666668
EXTRACT: note_on channel=0 note=61 velocity=0 time=0.026785725
EXTRACT: note_on channel=0 note=61 velocity=49 time=0.010416670833333334
EXTRACT: note_on channel=0 note=58 velocity=49 time=0
EXTRACT: note_on channel=0 note=68 velocity=49 time=3.928573
EXTRACT: note_on channel=0 note=61 velocity=0 time=0.14136910416666668
EXTRACT: note_on channel=0 note=58 velocity=0 time=0
EXTRACT: note_on channel=0 note=68 velocity=0 time=0.19642865
EXTRACT: note_on channel=0 note=77 velocity=49 time=0.019345245833333333
EXTRACT: note_on channel=0 note=63 velocity=49 time=0
EXTRACT: note_on channel=0 note=49 velocity=49 time=0
EXTRACT: note_on channel=0 note=56 velocity=49 time=0
EXTRACT: note_on channel=0 note=63 velocity=0 time=0.062500025
EXTRACT: note_on channel=0 note=65 velocity=49 time=0.0014880958333333334
EXTRACT: note_on channel=0 note=77 velocity=0 time=0.27380963333333336
EXTRACT: note_on channel=0 note=65 velocity=0 time=0.0014880958333333334
EXTRACT: note_on channel=0 note=75 velocity=49 time=0.017857150000000002
EXTRACT: note_on channel=0 note=63 velocity=49 time=0
EXTRACT: note_on channel=0 note=49 velocity=0 time=0.3199406041666667
EXTRACT: note_on channel=0 note=56 velocity=0 time=0
EXTRACT: note_on channel=0 note=75 velocity=0 time=0.017857150000000002
EXTRACT: note_on channel=0 note=63 velocity=0 time=0
EXTRACT: note_on channel=0 note=70 velocity=49 time=0.019345245833333333
EXTRACT: note_on channel=0 note=56 velocity=49 time=0
EXTRACT: note_on channel=0 note=42 velocity=49 time=0
EXTRACT: note_on channel=0 note=49 velocity=49 time=0
EXTRACT: note_on channel=0 note=56 velocity=0 time=0.062500025
EXTRACT: note_on channel=0 note=58 velocity=49 time=0.0014880958333333334
EXTRACT: note_on channel=0 note=70 velocity=0 time=0.27380963333333336
EXTRACT: note_on channel=0 note=58 velocity=0 time=0.0014880958333333334
EXTRACT: note_on channel=0 note=68 velocity=49 time=0.017857150000000002
EXTRACT: note_on channel=0 note=56 velocity=49 time=0
EXTRACT: note_on channel=0 note=68 velocity=0 time=0.16815482916666666
EXTRACT: note_on channel=0 note=73 velocity=49 time=0.010416670833333334
EXTRACT: note_on channel=0 note=42 velocity=0 time=0.14136910416666668
EXTRACT: note_on channel=0 note=49 velocity=0 time=0
EXTRACT: note_on channel=0 note=56 velocity=0 time=0.017857150000000002
EXTRACT: note_on channel=0 note=61 velocity=49 time=0.019345245833333333
EXTRACT: note_on channel=0 note=46 velocity=49 time=0
EXTRACT: note_on channel=0 note=53 velocity=49 time=0
EXTRACT: note_on channel=0 note=73 velocity=0 time=0.6681550291666667
EXTRACT: note_on channel=0 note=68 velocity=49 time=3.2604179708333336
EXTRACT: note_on channel=0 note=61 velocity=0 time=0.14136910416666668
EXTRACT: note_on channel=0 note=46 velocity=0 time=0
EXTRACT: note_on channel=0 note=53 velocity=0 time=0
EXTRACT: note_on channel=0 note=68 velocity=0 time=0.19642865
EXTRACT: note_on channel=0 note=77 velocity=49 time=0.019345245833333333
EXTRACT: note_on channel=0 note=63 velocity=49 time=0
EXTRACT: note_on channel=0 note=49 velocity=49 time=0
EXTRACT: note_on channel=0 note=56 velocity=49 time=0
EXTRACT: note_on channel=0 note=63 velocity=0 time=0.062500025
EXTRACT: note_on channel=0 note=65 velocity=49 time=0.0014880958333333334
EXTRACT: note_on channel=0 note=65 velocity=0 time=0.27529772916666667
EXTRACT: note_on channel=0 note=63 velocity=49 time=0.017857150000000002
EXTRACT: note_on channel=0 note=77 velocity=0 time=0.15029767916666667
EXTRACT: note_on channel=0 note=75 velocity=49 time=0.028273820833333334
EXTRACT: note_on channel=0 note=49 velocity=0 time=0.14136910416666668
EXTRACT: note_on channel=0 note=56 velocity=0 time=0
EXTRACT: note_on channel=0 note=63 velocity=0 time=0.017857150000000002
EXTRACT: note_on channel=0 note=75 velocity=0 time=0.008928575000000001
EXTRACT: note_on channel=0 note=70 velocity=49 time=0.010416670833333334
EXTRACT: note_on channel=0 note=56 velocity=49 time=0
EXTRACT: note_on channel=0 note=42 velocity=49 time=0
EXTRACT: note_on channel=0 note=49 velocity=49 time=0
EXTRACT: note_on channel=0 note=56 velocity=0 time=0.062500025
EXTRACT: note_on channel=0 note=58 velocity=49 time=0.0014880958333333334
EXTRACT: note_on channel=0 note=70 velocity=0 time=0.27380963333333336
EXTRACT: note_on channel=0 note=58 velocity=0 time=0.0014880958333333334
EXTRACT: note_on channel=0 note=68 velocity=49 time=0.017857150000000002
EXTRACT: note_on channel=0 note=56 velocity=49 time=0
EXTRACT: note_on channel=0 note=42 velocity=0 time=0.3199406041666667
EXTRACT: note_on channel=0 note=49 velocity=0 time=0
EXTRACT: note_on channel=0 note=68 velocity=0 time=0.017857150000000002
EXTRACT: note_on channel=0 note=56 velocity=0 time=0
EXTRACT: note_on channel=0 note=73 velocity=49 time=0.019345245833333333
EXTRACT: note_on channel=0 note=61 velocity=49 time=0
EXTRACT: note_on channel=0 note=46 velocity=49 time=0
EXTRACT: note_on channel=0 note=53 velocity=49 time=0
EXTRACT: note_on channel=0 note=73 velocity=0 time=0.6770836041666667
EXTRACT: note_on channel=0 note=68 velocity=49 time=3.2514893958333335
EXTRACT: note_on channel=0 note=61 velocity=0 time=0.14136910416666668
EXTRACT: note_on channel=0 note=46 velocity=0 time=0
EXTRACT: note_on channel=0 note=53 velocity=0 time=0
EXTRACT: note_on channel=0 note=68 velocity=0 time=0.19642865
EXTRACT: note_on channel=0 note=73 velocity=49 time=0.019345245833333333
EXTRACT: note_on channel=0 note=60 velocity=49 time=0
EXTRACT: note_on channel=0 note=49 velocity=49 time=0
EXTRACT: note_on channel=0 note=56 velocity=49 time=0
EXTRACT: note_on channel=0 note=60 velocity=0 time=0.062500025
EXTRACT: note_on channel=0 note=61 velocity=49 time=0.0014880958333333334
EXTRACT: note_on channel=0 note=73 velocity=0 time=0.27380963333333336
EXTRACT: note_on channel=0 note=61 velocity=0 time=0.0014880958333333334
EXTRACT: note_on channel=0 note=72 velocity=49 time=0.017857150000000002
EXTRACT: note_on channel=0 note=60 velocity=49 time=0
EXTRACT: note_on channel=0 note=49 velocity=0 time=0.3199406041666667
EXTRACT: note_on channel=0 note=56 velocity=0 time=0
EXTRACT: note_on channel=0 note=72 velocity=0 time=0.017857150000000002
EXTRACT: note_on channel=0 note=60 velocity=0 time=0
EXTRACT: note_on channel=0 note=70 velocity=49 time=0.019345245833333333
EXTRACT: note_on channel=0 note=56 velocity=49 time=0
EXTRACT: note_on channel=0 note=42 velocity=49 time=0
EXTRACT: note_on channel=0 note=49 velocity=49 time=0
EXTRACT: note_on channel=0 note=56 velocity=0 time=0.062500025
EXTRACT: note_on channel=0 note=58 velocity=49 time=0.0014880958333333334
EXTRACT: note_on channel=0 note=70 velocity=0 time=0.27380963333333336
EXTRACT: note_on channel=0 note=58 velocity=0 time=0.0014880958333333334
EXTRACT: note_on channel=0 note=68 velocity=49 time=0.017857150000000002
EXTRACT: note_on channel=0 note=56 velocity=49 time=0
EXTRACT: note_on channel=0 note=42 velocity=0 time=0.3199406041666667
EXTRACT: note_on channel=0 note=49 velocity=0 time=0
EXTRACT: note_on channel=0 note=68 velocity=0 time=0.017857150000000002
EXTRACT: note_on channel=0 note=56 velocity=0 time=0
EXTRACT: note_on channel=0 note=68 velocity=49 time=0.019345245833333333
EXTRACT: note_on channel=0 note=56 velocity=49 time=0
EXTRACT: note_on channel=0 note=37 velocity=49 time=0
EXTRACT: note_on channel=0 note=44 velocity=49 time=0
EXTRACT: note_on channel=0 note=68 velocity=0 time=0.3377977541666667
EXTRACT: note_on channel=0 note=70 velocity=49 time=0.019345245833333333
EXTRACT: note_on channel=0 note=70 velocity=0 time=0.3377977541666667
EXTRACT: note_on channel=0 note=65 velocity=49 time=0.019345245833333333
EXTRACT: note_on channel=0 note=65 velocity=0 time=0.6770836041666667
EXTRACT: note_on channel=0 note=56 velocity=0 time=2.0000008
EXTRACT: note_on channel=0 note=65 velocity=49 time=0.5372025958333333
EXTRACT: note_on channel=0 note=51 velocity=49 time=0
EXTRACT: note_on channel=0 note=37 velocity=0 time=0.14136910416666668
EXTRACT: note_on channel=0 note=44 velocity=0 time=0
EXTRACT: note_on channel=0 note=51 velocity=0 time=0.026785725
EXTRACT: note_on channel=0 note=53 velocity=49 time=0.010416670833333334
EXTRACT: note_on channel=0 note=65 velocity=0 time=0.15922625416666666
EXTRACT: note_on channel=0 note=53 velocity=0 time=0.008928575000000001
EXTRACT: note_on channel=0 note=66 velocity=49 time=0.010416670833333334
EXTRACT: note_on channel=0 note=54 velocity=49 time=0
EXTRACT: note_on channel=0 note=42 velocity=49 time=0
EXTRACT: note_on channel=0 note=49 velocity=49 time=0
EXTRACT: note_on channel=0 note=66 velocity=0 time=0.3377977541666667
EXTRACT: note_on channel=0 note=54 velocity=0 time=0
EXTRACT: note_on channel=0 note=65 velocity=49 time=0.019345245833333333
EXTRACT: note_on channel=0 note=53 velocity=49 time=0
EXTRACT: note_on channel=0 note=42 velocity=0 time=0.3199406041666667
EXTRACT: note_on channel=0 note=49 velocity=0 time=0
EXTRACT: note_on channel=0 note=65 velocity=0 time=0.017857150000000002
EXTRACT: note_on channel=0 note=53 velocity=0 time=0
EXTRACT: note_on channel=0 note=63 velocity=49 time=0.019345245833333333
EXTRACT: note_on channel=0 note=51 velocity=49 time=0
EXTRACT: note_on channel=0 note=44 velocity=49 time=0
EXTRACT: note_on channel=0 note=63 velocity=0 time=0.3377977541666667
EXTRACT: note_on channel=0 note=61 velocity=49 time=0.019345245833333333
EXTRACT: note_on channel=0 note=61 velocity=0 time=0.16815482916666666
EXTRACT: note_on channel=0 note=61 velocity=49 time=0.010416670833333334
EXTRACT: note_on channel=0 note=51 velocity=0 time=0.14136910416666668
EXTRACT: note_on channel=0 note=44 velocity=0 time=0
EXTRACT: note_on channel=0 note=49 velocity=49 time=0.03720239583333333
EXTRACT: note_on channel=0 note=46 velocity=49 time=0
EXTRACT: note_on channel=0 note=61 velocity=0 time=0.6681550291666667
EXTRACT: note_on channel=0 note=68 velocity=49 time=3.2604179708333336
EXTRACT: note_on channel=0 note=49 velocity=0 time=0.14136910416666668
EXTRACT: note_on channel=0 note=46 velocity=0 time=0
EXTRACT: note_on channel=0 note=68 velocity=0 time=0.19642865
EXTRACT: note_on channel=0 note=77 velocity=49 time=0.019345245833333333
EXTRACT: note_on channel=0 note=63 velocity=49 time=0
EXTRACT: note_on channel=0 note=49 velocity=49 time=0
EXTRACT: note_on channel=0 note=56 velocity=49 time=0
EXTRACT: note_on channel=0 note=63 velocity=0 time=0.062500025
EXTRACT: note_on channel=0 note=65 velocity=49 time=0.0014880958333333334
EXTRACT: note_on channel=0 note=77 velocity=0 time=0.27380963333333336
EXTRACT: note_on channel=0 note=65 velocity=0 time=0.0014880958333333334
EXTRACT: note_on channel=0 note=75 velocity=49 time=0.017857150000000002
EXTRACT: note_on channel=0 note=63 velocity=49 time=0
EXTRACT: note_on channel=0 note=49 velocity=0 time=0.3199406041666667
EXTRACT: note_on channel=0 note=56 velocity=0 time=0
EXTRACT: note_on channel=0 note=75 velocity=0 time=0.017857150000000002
EXTRACT: note_on channel=0 note=63 velocity=0 time=0
EXTRACT: note_on channel=0 note=70 velocity=49 time=0.019345245833333333
EXTRACT: note_on channel=0 note=56 velocity=49 time=0
EXTRACT: note_on channel=0 note=42 velocity=49 time=0
EXTRACT: note_on channel=0 note=49 velocity=49 time=0
EXTRACT: note_on channel=0 note=56 velocity=0 time=0.062500025
EXTRACT: note_on channel=0 note=58 velocity=49 time=0.0014880958333333334
EXTRACT: note_on channel=0 note=70 velocity=0 time=0.27380963333333336
EXTRACT: note_on channel=0 note=58 velocity=0 time=0.0014880958333333334
EXTRACT: note_on channel=0 note=68 velocity=49 time=0.017857150000000002
EXTRACT: note_on channel=0 note=56 velocity=49 time=0
EXTRACT: note_on channel=0 note=68 velocity=0 time=0.16815482916666666
EXTRACT: note_on channel=0 note=73 velocity=49 time=0.010416670833333334
EXTRACT: note_on channel=0 note=42 velocity=0 time=0.14136910416666668
EXTRACT: note_on channel=0 note=49 velocity=0 time=0
EXTRACT: note_on channel=0 note=56 velocity=0 time=0.017857150000000002
EXTRACT: note_on channel=0 note=61 velocity=33 time=0.019345245833333333
EXTRACT: note_on channel=0 note=53 velocity=33 time=0
EXTRACT: note_on channel=0 note=46 velocity=33 time=0
EXTRACT: note_on channel=0 note=73 velocity=0 time=0.6681550291666667
EXTRACT: note_on channel=0 note=61 velocity=0 time=0.008928575000000001
EXTRACT: note_on channel=0 note=53 velocity=0 time=0
EXTRACT: note_on channel=0 note=61 velocity=33 time=0.03720239583333333
EXTRACT: note_on channel=0 note=53 velocity=33 time=0
EXTRACT: note_on channel=0 note=61 velocity=0 time=0.6770836041666667
EXTRACT: note_on channel=0 note=53 velocity=0 time=0
EXTRACT: note_on channel=0 note=61 velocity=43 time=0.03720239583333333
EXTRACT: note_on channel=0 note=53 velocity=43 time=0
EXTRACT: note_on channel=0 note=61 velocity=0 time=0.6770836041666667
EXTRACT: note_on channel=0 note=53 velocity=0 time=0
EXTRACT: note_on channel=0 note=61 velocity=53 time=0.03720239583333333
EXTRACT: note_on channel=0 note=53 velocity=53 time=0
EXTRACT: note_on channel=0 note=61 velocity=0 time=0.6770836041666667
EXTRACT: note_on channel=0 note=53 velocity=0 time=0
EXTRACT: note_on channel=0 note=61 velocity=64 time=0.03720239583333333
EXTRACT: note_on channel=0 note=53 velocity=64 time=0
EXTRACT: note_on channel=0 note=61 velocity=0 time=0.6770836041666667
EXTRACT: note_on channel=0 note=53 velocity=0 time=0
EXTRACT: note_on channel=0 note=61 velocity=64 time=0.03720239583333333
EXTRACT: note_on channel=0 note=53 velocity=64 time=0
EXTRACT: note_on channel=0 note=68 velocity=64 time=0.357143
EXTRACT: note_on channel=0 note=46 velocity=0 time=0.14136910416666668
EXTRACT: note_on channel=0 note=61 velocity=0 time=0.1785715
EXTRACT: note_on channel=0 note=53 velocity=0 time=0
EXTRACT: note_on channel=0 note=68 velocity=0 time=0.017857150000000002
EXTRACT: note_on channel=0 note=77 velocity=64 time=0.019345245833333333
EXTRACT: note_on channel=0 note=63 velocity=64 time=0
EXTRACT: note_on channel=0 note=49 velocity=64 time=0
EXTRACT: note_on channel=0 note=56 velocity=64 time=0
EXTRACT: note_on channel=0 note=63 velocity=0 time=0.062500025
EXTRACT: note_on channel=0 note=65 velocity=64 time=0.0014880958333333334
EXTRACT: note_on channel=0 note=77 velocity=0 time=0.27380963333333336
EXTRACT: note_on channel=0 note=65 velocity=0 time=0.0014880958333333334
EXTRACT: note_on channel=0 note=75 velocity=64 time=0.017857150000000002
EXTRACT: note_on channel=0 note=63 velocity=64 time=0
EXTRACT: note_on channel=0 note=49 velocity=0 time=0.3199406041666667
EXTRACT: note_on channel=0 note=56 velocity=0 time=0
EXTRACT: note_on channel=0 note=75 velocity=0 time=0.017857150000000002
EXTRACT: note_on channel=0 note=63 velocity=0 time=0
EXTRACT: note_on channel=0 note=70 velocity=64 time=0.019345245833333333
EXTRACT: note_on channel=0 note=56 velocity=64 time=0
EXTRACT: note_on channel=0 note=42 velocity=64 time=0
EXTRACT: note_on channel=0 note=49 velocity=64 time=0
EXTRACT: note_on channel=0 note=56 velocity=0 time=0.062500025
EXTRACT: note_on channel=0 note=58 velocity=64 time=0.0014880958333333334
EXTRACT: note_on channel=0 note=70 velocity=0 time=0.27380963333333336
EXTRACT: note_on channel=0 note=58 velocity=0 time=0.0014880958333333334
EXTRACT: note_on channel=0 note=68 velocity=64 time=0.017857150000000002
EXTRACT: note_on channel=0 note=56 velocity=64 time=0
EXTRACT: note_on channel=0 note=42 velocity=0 time=0.3199406041666667
EXTRACT: note_on channel=0 note=49 velocity=0 time=0
EXTRACT: note_on channel=0 note=68 velocity=0 time=0.017857150000000002
EXTRACT: note_on channel=0 note=56 velocity=0 time=0
EXTRACT: note_on channel=0 note=73 velocity=33 time=0.019345245833333333
EXTRACT: note_on channel=0 note=61 velocity=33 time=0
EXTRACT: note_on channel=0 note=53 velocity=33 time=0
EXTRACT: note_on channel=0 note=46 velocity=33 time=0
EXTRACT: note_on channel=0 note=73 velocity=0 time=0.6770836041666667
EXTRACT: note_on channel=0 note=61 velocity=0 time=0
EXTRACT: note_on channel=0 note=53 velocity=0 time=0
EXTRACT: note_on channel=0 note=61 velocity=40 time=0.03720239583333333
EXTRACT: note_on channel=0 note=53 velocity=40 time=0
EXTRACT: note_on channel=0 note=61 velocity=0 time=0.6770836041666667
EXTRACT: note_on channel=0 note=53 velocity=0 time=0
EXTRACT: note_on channel=0 note=61 velocity=48 time=0.03720239583333333
EXTRACT: note_on channel=0 note=53 velocity=48 time=0
EXTRACT: note_on channel=0 note=61 velocity=0 time=0.6770836041666667
EXTRACT: note_on channel=0 note=53 velocity=0 time=0
EXTRACT: note_on channel=0 note=61 velocity=56 time=0.03720239583333333
EXTRACT: note_on channel=0 note=53 velocity=56 time=0
EXTRACT: note_on channel=0 note=61 velocity=0 time=0.6770836041666667
EXTRACT: note_on channel=0 note=53 velocity=0 time=0
EXTRACT: note_on channel=0 note=61 velocity=64 time=0.03720239583333333
EXTRACT: note_on channel=0 note=53 velocity=64 time=0
EXTRACT: note_on channel=0 note=61 velocity=0 time=0.6770836041666667
EXTRACT: note_on channel=0 note=53 velocity=0 time=0
EXTRACT: note_on channel=0 note=61 velocity=64 time=0.03720239583333333
EXTRACT: note_on channel=0 note=53 velocity=64 time=0
EXTRACT: note_on channel=0 note=68 velocity=64 time=0.357143
EXTRACT: note_on channel=0 note=46 velocity=0 time=0.14136910416666668
EXTRACT: note_on channel=0 note=61 velocity=0 time=0.1785715
EXTRACT: note_on channel=0 note=53 velocity=0 time=0
EXTRACT: note_on channel=0 note=68 velocity=0 time=0.017857150000000002
EXTRACT: note_on channel=0 note=73 velocity=64 time=0.019345245833333333
EXTRACT: note_on channel=0 note=60 velocity=64 time=0
EXTRACT: note_on channel=0 note=49 velocity=64 time=0
EXTRACT: note_on channel=0 note=56 velocity=64 time=0
EXTRACT: note_on channel=0 note=60 velocity=0 time=0.062500025
EXTRACT: note_on channel=0 note=61 velocity=64 time=0.0014880958333333334
EXTRACT: note_on channel=0 note=73 velocity=0 time=0.27380963333333336
EXTRACT: note_on channel=0 note=61 velocity=0 time=0.0014880958333333334
EXTRACT: note_on channel=0 note=72 velocity=64 time=0.017857150000000002
EXTRACT: note_on channel=0 note=60 velocity=64 time=0
EXTRACT: note_on channel=0 note=49 velocity=0 time=0.3199406041666667
EXTRACT: note_on channel=0 note=56 velocity=0 time=0
EXTRACT: note_on channel=0 note=72 velocity=0 time=0.017857150000000002
EXTRACT: note_on channel=0 note=60 velocity=0 time=0
EXTRACT: note_on channel=0 note=70 velocity=64 time=0.019345245833333333
EXTRACT: note_on channel=0 note=56 velocity=64 time=0
EXTRACT: note_on channel=0 note=42 velocity=64 time=0
EXTRACT: note_on channel=0 note=49 velocity=64 time=0
EXTRACT: note_on channel=0 note=56 velocity=0 time=0.062500025
EXTRACT: note_on channel=0 note=58 velocity=64 time=0.0014880958333333334
EXTRACT: note_on channel=0 note=70 velocity=0 time=0.27380963333333336
EXTRACT: note_on channel=0 note=58 velocity=0 time=0.0014880958333333334
EXTRACT: note_on channel=0 note=68 velocity=64 time=0.017857150000000002
EXTRACT: note_on channel=0 note=56 velocity=64 time=0
EXTRACT: note_on channel=0 note=42 velocity=0 time=0.3199406041666667
EXTRACT: note_on channel=0 note=49 velocity=0 time=0
EXTRACT: note_on channel=0 note=68 velocity=0 time=0.017857150000000002
EXTRACT: note_on channel=0 note=56 velocity=0 time=0
EXTRACT: note_on channel=0 note=68 velocity=64 time=0.019345245833333333
EXTRACT: note_on channel=0 note=49 velocity=64 time=0
EXTRACT: note_on channel=0 note=53 velocity=64 time=0
EXTRACT: note_on channel=0 note=37 velocity=64 time=0
EXTRACT: note_on channel=0 note=44 velocity=64 time=0
EXTRACT: note_on channel=0 note=68 velocity=0 time=0.17708340416666668
EXTRACT: note_on channel=0 note=70 velocity=63 time=0.0014880958333333334
EXTRACT: note_on channel=0 note=70 velocity=0 time=0.3377977541666667
EXTRACT: note_on channel=0 note=65 velocity=59 time=0.019345245833333333
EXTRACT: note_on channel=0 note=49 velocity=0 time=0.17708340416666668
EXTRACT: note_on channel=0 note=53 velocity=0 time=0
EXTRACT: note_on channel=0 note=49 velocity=57 time=0.0014880958333333334
EXTRACT: note_on channel=0 note=53 velocity=57 time=0
EXTRACT: note_on channel=0 note=65 velocity=0 time=0.6681550291666667
EXTRACT: note_on channel=0 note=49 velocity=0 time=0.008928575000000001
EXTRACT: note_on channel=0 note=53 velocity=0 time=0
EXTRACT: note_on channel=0 note=49 velocity=49 time=0.03720239583333333
EXTRACT: note_on channel=0 note=53 velocity=49 time=0
EXTRACT: note_on channel=0 note=49 velocity=0 time=0.6770836041666667
EXTRACT: note_on channel=0 note=53 velocity=0 time=0
EXTRACT: note_on channel=0 note=49 velocity=41 time=0.03720239583333333
EXTRACT: note_on channel=0 note=53 velocity=41 time=0
EXTRACT: note_on channel=0 note=49 velocity=0 time=0.6770836041666667
EXTRACT: note_on channel=0 note=53 velocity=0 time=0
EXTRACT: note_on channel=0 note=49 velocity=33 time=0.03720239583333333
EXTRACT: note_on channel=0 note=53 velocity=33 time=0
EXTRACT: note_on channel=0 note=49 velocity=0 time=0.6770836041666667
EXTRACT: note_on channel=0 note=53 velocity=0 time=0
EXTRACT: note_on channel=0 note=49 velocity=40 time=0.03720239583333333
EXTRACT: note_on channel=0 note=53 velocity=40 time=0
EXTRACT: note_on channel=0 note=49 velocity=0 time=0.3377977541666667
EXTRACT: note_on channel=0 note=53 velocity=0 time=0
EXTRACT: note_on channel=0 note=63 velocity=44 time=0.019345245833333333
EXTRACT: note_on channel=0 note=51 velocity=44 time=0
EXTRACT: note_on channel=0 note=37 velocity=0 time=0.14136910416666668
EXTRACT: note_on channel=0 note=44 velocity=0 time=0
EXTRACT: note_on channel=0 note=63 velocity=0 time=0.026785725
EXTRACT: note_on channel=0 note=51 velocity=0 time=0
EXTRACT: note_on channel=0 note=65 velocity=46 time=0.010416670833333334
EXTRACT: note_on channel=0 note=53 velocity=46 time=0
EXTRACT: note_on channel=0 note=65 velocity=0 time=0.16815482916666666
EXTRACT: note_on channel=0 note=53 velocity=0 time=0
EXTRACT: note_on channel=0 note=66 velocity=48 time=0.010416670833333334
EXTRACT: note_on channel=0 note=54 velocity=48 time=0
EXTRACT: note_on channel=0 note=42 velocity=48 time=0
EXTRACT: note_on channel=0 note=49 velocity=48 time=0
EXTRACT: note_on channel=0 note=66 velocity=0 time=0.3377977541666667
EXTRACT: note_on channel=0 note=54 velocity=0 time=0
EXTRACT: note_on channel=0 note=65 velocity=52 time=0.019345245833333333
EXTRACT: note_on channel=0 note=53 velocity=52 time=0
EXTRACT: note_on channel=0 note=42 velocity=0 time=0.3199406041666667
EXTRACT: note_on channel=0 note=49 velocity=0 time=0
EXTRACT: note_on channel=0 note=65 velocity=0 time=0.017857150000000002
EXTRACT: note_on channel=0 note=53 velocity=0 time=0
EXTRACT: note_on channel=0 note=63 velocity=56 time=0.019345245833333333
EXTRACT: note_on channel=0 note=44 velocity=56 time=0
EXTRACT: note_on channel=0 note=51 velocity=56 time=0
EXTRACT: note_on channel=0 note=63 velocity=0 time=0.3377977541666667
EXTRACT: note_on channel=0 note=61 velocity=60 time=0.019345245833333333
EXTRACT: note_on channel=0 note=61 velocity=0 time=0.16815482916666666
EXTRACT: note_on channel=0 note=61 velocity=62 time=0.010416670833333334
EXTRACT: note_on channel=0 note=44 velocity=0 time=0.14136910416666668
EXTRACT: note_on channel=0 note=51 velocity=0 time=0
EXTRACT: note_on channel=0 note=46 velocity=64 time=0.03720239583333333
EXTRACT: note_on channel=0 note=49 velocity=64 time=0
EXTRACT: note_on channel=0 note=53 velocity=64 time=0
EXTRACT: note_on channel=0 note=61 velocity=0 time=0.6681550291666667
EXTRACT: note_on channel=0 note=58 velocity=64 time=0.7604169708333334
EXTRACT: note_on channel=0 note=61 velocity=64 time=0
EXTRACT: note_on channel=0 note=65 velocity=64 time=0
EXTRACT: note_on channel=0 note=58 velocity=0 time=1.3556553041666668
EXTRACT: note_on channel=0 note=61 velocity=0 time=0
EXTRACT: note_on channel=0 note=65 velocity=0 time=0
EXTRACT: note_on channel=0 note=70 velocity=64 time=0.07291669583333334
EXTRACT: note_on channel=0 note=73 velocity=64 time=0
EXTRACT: note_on channel=0 note=77 velocity=64 time=0
EXTRACT: note_on channel=0 note=46 velocity=0 time=1.2127981041666667
EXTRACT: note_on channel=0 note=49 velocity=0 time=0
EXTRACT: note_on channel=0 note=53 velocity=0 time=0
EXTRACT: note_on channel=0 note=70 velocity=0 time=0.14285720000000002
EXTRACT: note_on channel=0 note=73 velocity=0 time=0
EXTRACT: note_on channel=0 note=77 velocity=0 time=0
EXTRACT: note_on channel=0 note=73 velocity=64 time=0.9657741958333333
EXTRACT: note_on channel=0 note=73 velocity=0 time=0.16815482916666666
EXTRACT: note_on channel=0 note=77 velocity=64 time=0.010416670833333334
EXTRACT: note_on channel=0 note=77 velocity=0 time=0.3377977541666667
EXTRACT: note_on channel=0 note=77 velocity=80 time=0.019345245833333333
EXTRACT: note_on channel=0 note=56 velocity=80 time=0
EXTRACT: note_on channel=0 note=61 velocity=80 time=0
EXTRACT: note_on channel=0 note=65 velocity=80 time=0
EXTRACT: note_on channel=0 note=37 velocity=80 time=0
EXTRACT: note_on channel=0 note=49 velocity=80 time=0
EXTRACT: note_on channel=0 note=77 velocity=0 time=0.3377977541666667
EXTRACT: note_on channel=0 note=77 velocity=80 time=0.019345245833333333
EXTRACT: note_on channel=0 note=56 velocity=0 time=0.3199406041666667
EXTRACT: note_on channel=0 note=61 velocity=0 time=0
EXTRACT: note_on channel=0 note=65 velocity=0 time=0
EXTRACT: note_on channel=0 note=56 velocity=80 time=0.03720239583333333
EXTRACT: note_on channel=0 note=61 velocity=80 time=0
EXTRACT: note_on channel=0 note=65 velocity=80 time=0
EXTRACT: note_on channel=0 note=77 velocity=0 time=0.6592264541666667
EXTRACT: note_on channel=0 note=56 velocity=0 time=0.017857150000000002
EXTRACT: note_on channel=0 note=61 velocity=0 time=0
EXTRACT: note_on channel=0 note=65 velocity=0 time=0
EXTRACT: note_on channel=0 note=56 velocity=80 time=0.03720239583333333
EXTRACT: note_on channel=0 note=61 velocity=80 time=0
EXTRACT: note_on channel=0 note=65 velocity=80 time=0
EXTRACT: note_on channel=0 note=56 velocity=0 time=0.6770836041666667
EXTRACT: note_on channel=0 note=61 velocity=0 time=0
EXTRACT: note_on channel=0 note=65 velocity=0 time=0
EXTRACT: note_on channel=0 note=56 velocity=80 time=0.03720239583333333
EXTRACT: note_on channel=0 note=61 velocity=80 time=0
EXTRACT: note_on channel=0 note=65 velocity=80 time=0
EXTRACT: note_on channel=0 note=77 velocity=80 time=0.357143
EXTRACT: note_on channel=0 note=77 velocity=0 time=0.16815482916666666
EXTRACT: note_on channel=0 note=77 velocity=80 time=0.010416670833333334
EXTRACT: note_on channel=0 note=37 velocity=0 time=0.03422620416666667
EXTRACT: note_on channel=0 note=49 velocity=0 time=0
EXTRACT: note_on channel=0 note=56 velocity=0 time=0.1071429
EXTRACT: note_on channel=0 note=61 velocity=0 time=0
EXTRACT: note_on channel=0 note=65 velocity=0 time=0
EXTRACT: note_on channel=0 note=58 velocity=80 time=0.03720239583333333
EXTRACT: note_on channel=0 note=61 velocity=80 time=0
EXTRACT: note_on channel=0 note=65 velocity=80 time=0
EXTRACT: note_on channel=0 note=34 velocity=80 time=0
EXTRACT: note_on channel=0 note=46 velocity=80 time=0
EXTRACT: note_on channel=0 note=77 velocity=0 time=0.15922625416666666
EXTRACT: note_on channel=0 note=77 velocity=80 time=0.019345245833333333
EXTRACT: note_on channel=0 note=58 velocity=0 time=0.4985121041666667
EXTRACT: note_on channel=0 note=61 velocity=0 time=0
EXTRACT: note_on channel=0 note=65 velocity=0 time=0
EXTRACT: note_on channel=0 note=77 velocity=0 time=0.008928575000000001
EXTRACT: note_on channel=0 note=58 velocity=80 time=0.028273820833333334
EXTRACT: note_on channel=0 note=61 velocity=80 time=0
EXTRACT: note_on channel=0 note=65 velocity=80 time=0
EXTRACT: note_on channel=0 note=58 velocity=0 time=0.6770836041666667
EXTRACT: note_on channel=0 note=61 velocity=0 time=0
EXTRACT: note_on channel=0 note=65 velocity=0 time=0
EXTRACT: note_on channel=0 note=58 velocity=80 time=0.03720239583333333
EXTRACT: note_on channel=0 note=61 velocity=80 time=0
EXTRACT: note_on channel=0 note=65 velocity=80 time=0
EXTRACT: note_on channel=0 note=58 velocity=0 time=0.6770836041666667
EXTRACT: note_on channel=0 note=61 velocity=0 time=0
EXTRACT: note_on channel=0 note=65 velocity=0 time=0
EXTRACT: note_on channel=0 note=58 velocity=80 time=0.03720239583333333
EXTRACT: note_on channel=0 note=61 velocity=80 time=0
EXTRACT: note_on channel=0 note=65 velocity=80 time=0
EXTRACT: note_on channel=0 note=78 velocity=80 time=0.357143
EXTRACT: note_on channel=0 note=34 velocity=0 time=0.21279770416666668
EXTRACT: note_on channel=0 note=46 velocity=0 time=0
EXTRACT: note_on channel=0 note=58 velocity=0 time=0.1071429
EXTRACT: note_on channel=0 note=61 velocity=0 time=0
EXTRACT: note_on channel=0 note=65 velocity=0 time=0
EXTRACT: note_on channel=0 note=58 velocity=80 time=0.03720239583333333
EXTRACT: note_on channel=0 note=63 velocity=80 time=0
EXTRACT: note_on channel=0 note=66 velocity=80 time=0
EXTRACT: note_on channel=0 note=39 velocity=80 time=0
EXTRACT: note_on channel=0 note=51 velocity=80 time=0
EXTRACT: note_on channel=0 note=78 velocity=0 time=0.6592264541666667
EXTRACT: note_on channel=0 note=58 velocity=0 time=0.017857150000000002
EXTRACT: note_on channel=0 note=63 velocity=0 time=0
EXTRACT: note_on channel=0 note=66 velocity=0 time=0
EXTRACT: note_on channel=0 note=77 velocity=80 time=0.03720239583333333
EXTRACT: note_on channel=0 note=58 velocity=80 time=0
EXTRACT: note_on channel=0 note=63 velocity=80 time=0
EXTRACT: note_on channel=0 note=66 velocity=80 time=0
EXTRACT: note_on channel=0 note=77 velocity=0 time=0.3377977541666667
EXTRACT: note_on channel=0 note=75 velocity=80 time=0.019345245833333333
EXTRACT: note_on channel=0 note=58 velocity=0 time=0.3199406041666667
EXTRACT: note_on channel=0 note=63 velocity=0 time=0
EXTRACT: note_on channel=0 note=66 velocity=0 time=0
EXTRACT: note_on channel=0 note=58 velocity=80 time=0.03720239583333333
EXTRACT: note_on channel=0 note=63 velocity=80 time=0
EXTRACT: note_on channel=0 note=66 velocity=80 time=0
EXTRACT: note_on channel=0 note=75 velocity=0 time=0.6592264541666667
EXTRACT: note_on channel=0 note=58 velocity=0 time=0.017857150000000002
EXTRACT: note_on channel=0 note=63 velocity=0 time=0
EXTRACT: note_on channel=0 note=66 velocity=0 time=0
EXTRACT: note_on channel=0 note=77 velocity=80 time=0.03720239583333333
EXTRACT: note_on channel=0 note=58 velocity=80 time=0
EXTRACT: note_on channel=0 note=63 velocity=80 time=0
EXTRACT: note_on channel=0 note=66 velocity=80 time=0
EXTRACT: note_on channel=0 note=77 velocity=0 time=0.3377977541666667
EXTRACT: note_on channel=0 note=75 velocity=80 time=0.019345245833333333
EXTRACT: note_on channel=0 note=39 velocity=0 time=0.21279770416666668
EXTRACT: note_on channel=0 note=51 velocity=0 time=0
EXTRACT: note_on channel=0 note=58 velocity=0 time=0.1071429
EXTRACT: note_on channel=0 note=63 velocity=0 time=0
EXTRACT: note_on channel=0 note=66 velocity=0 time=0
EXTRACT: note_on channel=0 note=56 velocity=80 time=0.03720239583333333
EXTRACT: note_on channel=0 note=60 velocity=80 time=0
EXTRACT: note_on channel=0 note=63 velocity=80 time=0
EXTRACT: note_on channel=0 note=32 velocity=80 time=0
EXTRACT: note_on channel=0 note=44 velocity=80 time=0
EXTRACT: note_on channel=0 note=75 velocity=0 time=0.6592264541666667
EXTRACT: note_on channel=0 note=56 velocity=0 time=0.017857150000000002
EXTRACT: note_on channel=0 note=60 velocity=0 time=0
EXTRACT: note_on channel=0 note=63 velocity=0 time=0
EXTRACT: note_on channel=0 note=56 velocity=76 time=0.03720239583333333
EXTRACT: note_on channel=0 note=60 velocity=76 time=0
EXTRACT: note_on channel=0 note=63 velocity=76 time=0
EXTRACT: note_on channel=0 note=56 velocity=0 time=0.6770836041666667
EXTRACT: note_on channel=0 note=60 velocity=0 time=0
EXTRACT: note_on channel=0 note=63 velocity=0 time=0
EXTRACT: note_on channel=0 note=54 velocity=72 time=0.03720239583333333
EXTRACT: note_on channel=0 note=56 velocity=72 time=0
EXTRACT: note_on channel=0 note=60 velocity=72 time=0
EXTRACT: note_on channel=0 note=63 velocity=72 time=0
EXTRACT: note_on channel=0 note=73 velocity=69 time=0.5357145
EXTRACT: note_on channel=0 note=54 velocity=0 time=0.14136910416666668
EXTRACT: note_on channel=0 note=56 velocity=0 time=0
EXTRACT: note_on channel=0 note=60 velocity=0 time=0
EXTRACT: note_on channel=0 note=63 velocity=0 time=0
EXTRACT: note_on channel=0 note=73 velocity=0 time=0.026785725
EXTRACT: note_on channel=0 note=73 velocity=68 time=0.010416670833333334
EXTRACT: note_on channel=0 note=54 velocity=68 time=0
EXTRACT: note_on channel=0 note=56 velocity=68 time=0
EXTRACT: note_on channel=0 note=60 velocity=68 time=0
EXTRACT: note_on channel=0 note=63 velocity=68 time=0
EXTRACT: note_on channel=0 note=73 velocity=0 time=0.3377977541666667
EXTRACT: note_on channel=0 note=77 velocity=66 time=0.019345245833333333
EXTRACT: note_on channel=0 note=32 velocity=0 time=0.21279770416666668
EXTRACT: note_on channel=0 note=44 velocity=0 time=0
EXTRACT: note_on channel=0 note=54 velocity=0 time=0.1071429
EXTRACT: note_on channel=0 note=56 velocity=0 time=0
EXTRACT: note_on channel=0 note=60 velocity=0 time=0
EXTRACT: note_on channel=0 note=63 velocity=0 time=0
EXTRACT: note_on channel=0 note=77 velocity=0 time=0.017857150000000002
EXTRACT: note_on channel=0 note=77 velocity=64 time=0.019345245833333333
EXTRACT: note_on channel=0 note=56 velocity=64 time=0
EXTRACT: note_on channel=0 note=61 velocity=64 time=0
EXTRACT: note_on channel=0 note=65 velocity=64 time=0
EXTRACT: note_on channel=0 note=37 velocity=64 time=0
EXTRACT: note_on channel=0 note=49 velocity=64 time=0
EXTRACT: note_on channel=0 note=77 velocity=0 time=0.6770836041666667
EXTRACT: note_on channel=0 note=56 velocity=0 time=0
EXTRACT: note_on channel=0 note=61 velocity=0 time=0
EXTRACT: note_on channel=0 note=65 velocity=0 time=0
EXTRACT: note_on channel=0 note=56 velocity=64 time=0.03720239583333333
EXTRACT: note_on channel=0 note=61 velocity=64 time=0
EXTRACT: note_on channel=0 note=65 velocity=64 time=0
EXTRACT: note_on channel=0 note=56 velocity=0 time=0.6770836041666667
EXTRACT: note_on channel=0 note=61 velocity=0 time=0
EXTRACT: note_on channel=0 note=65 velocity=0 time=0
EXTRACT: note_on channel=0 note=56 velocity=64 time=0.03720239583333333
EXTRACT: note_on channel=0 note=61 velocity=64 time=0
EXTRACT: note_on channel=0 note=65 velocity=64 time=0
EXTRACT: note_on channel=0 note=75 velocity=64 time=0.5357145
EXTRACT: note_on channel=0 note=56 velocity=0 time=0.14136910416666668
EXTRACT: note_on channel=0 note=61 velocity=0 time=0
EXTRACT: note_on channel=0 note=65 velocity=0 time=0
EXTRACT: note_on channel=0 note=75 velocity=0 time=0.026785725
EXTRACT: note_on channel=0 note=73 velocity=64 time=0.010416670833333334
EXTRACT: note_on channel=0 note=56 velocity=64 time=0
EXTRACT: note_on channel=0 note=61 velocity=64 time=0
EXTRACT: note_on channel=0 note=65 velocity=64 time=0
EXTRACT: note_on channel=0 note=73 velocity=0 time=0.3377977541666667
EXTRACT: note_on channel=0 note=77 velocity=64 time=0.019345245833333333
EXTRACT: note_on channel=0 note=37 velocity=0 time=0.21279770416666668
EXTRACT: note_on channel=0 note=49 velocity=0 time=0
EXTRACT: note_on channel=0 note=56 velocity=0 time=0.1071429
EXTRACT: note_on channel=0 note=61 velocity=0 time=0
EXTRACT: note_on channel=0 note=65 velocity=0 time=0
EXTRACT: note_on channel=0 note=77 velocity=0 time=0.017857150000000002
EXTRACT: note_on channel=0 note=77 velocity=64 time=0.019345245833333333
EXTRACT: note_on channel=0 note=58 velocity=64 time=0
EXTRACT: note_on channel=0 note=61 velocity=64 time=0
EXTRACT: note_on channel=0 note=65 velocity=64 time=0
EXTRACT: note_on channel=0 note=34 velocity=64 time=0
EXTRACT: note_on channel=0 note=46 velocity=64 time=0
EXTRACT: note_on channel=0 note=77 velocity=0 time=0.6770836041666667
EXTRACT: note_on channel=0 note=58 velocity=0 time=0
EXTRACT: note_on channel=0 note=61 velocity=0 time=0
EXTRACT: note_on channel=0 note=65 velocity=0 time=0
EXTRACT: note_on channel=0 note=58 velocity=64 time=0.03720239583333333
EXTRACT: note_on channel=0 note=61 velocity=64 time=0
EXTRACT: note_on channel=0 note=65 velocity=64 time=0
EXTRACT: note_on channel=0 note=58 velocity=0 time=0.6770836041666667
EXTRACT: note_on channel=0 note=61 velocity=0 time=0
EXTRACT: note_on channel=0 note=65 velocity=0 time=0
EXTRACT: note_on channel=0 note=58 velocity=64 time=0.03720239583333333
EXTRACT: note_on channel=0 note=61 velocity=64 time=0
EXTRACT: note_on channel=0 note=65 velocity=64 time=0
EXTRACT: note_on channel=0 note=58 velocity=0 time=0.6770836041666667
EXTRACT: note_on channel=0 note=61 velocity=0 time=0
EXTRACT: note_on channel=0 note=65 velocity=0 time=0
EXTRACT: note_on channel=0 note=73 velocity=64 time=0.03720239583333333
EXTRACT: note_on channel=0 note=58 velocity=64 time=0
EXTRACT: note_on channel=0 note=61 velocity=64 time=0
EXTRACT: note_on channel=0 note=65 velocity=64 time=0
EXTRACT: note_on channel=0 note=73 velocity=0 time=0.3377977541666667
EXTRACT: note_on channel=0 note=78 velocity=64 time=0.019345245833333333
EXTRACT: note_on channel=0 note=34 velocity=0 time=0.21279770416666668
EXTRACT: note_on channel=0 note=46 velocity=0 time=0
EXTRACT: note_on channel=0 note=58 velocity=0 time=0.1071429
EXTRACT: note_on channel=0 note=61 velocity=0 time=0
EXTRACT: note_on channel=0 note=65 velocity=0 time=0
EXTRACT: note_on channel=0 note=58 velocity=64 time=0.03720239583333333
EXTRACT: note_on channel=0 note=63 velocity=64 time=0
EXTRACT: note_on channel=0 note=66 velocity=64 time=0
EXTRACT: note_on channel=0 note=39 velocity=64 time=0
EXTRACT: note_on channel=0 note=51 velocity=64 time=0
EXTRACT: note_on channel=0 note=78 velocity=0 time=0.3199406041666667
EXTRACT: note_on channel=0 note=77 velocity=64 time=0.03720239583333333
EXTRACT: note_on channel=0 note=58 velocity=0 time=0.3199406041666667
EXTRACT: note_on channel=0 note=63 velocity=0 time=0
EXTRACT: note_on channel=0 note=66 velocity=0 time=0
EXTRACT: note_on channel=0 note=58 velocity=64 time=0.03720239583333333
EXTRACT: note_on channel=0 note=63 velocity=64 time=0
EXTRACT: note_on channel=0 note=66 velocity=64 time=0
EXTRACT: note_on channel=0 note=77 velocity=0 time=0.3199406041666667
EXTRACT: note_on channel=0 note=75 velocity=64 time=0.03720239583333333
EXTRACT: note_on channel=0 note=58 velocity=0 time=0.3199406041666667
EXTRACT: note_on channel=0 note=63 velocity=0 time=0
EXTRACT: note_on channel=0 note=66 velocity=0 time=0
EXTRACT: note_on channel=0 note=58 velocity=64 time=0.03720239583333333
EXTRACT: note_on channel=0 note=63 velocity=64 time=0
EXTRACT: note_on channel=0 note=66 velocity=64 time=0
EXTRACT: note_on channel=0 note=75 velocity=0 time=0.3199406041666667
EXTRACT: note_on channel=0 note=77 velocity=64 time=0.03720239583333333
EXTRACT: note_on channel=0 note=58 velocity=0 time=0.3199406041666667
EXTRACT: note_on channel=0 note=63 velocity=0 time=0
EXTRACT: note_on channel=0 note=66 velocity=0 time=0
EXTRACT: note_on channel=0 note=58 velocity=64 time=0.03720239583333333
EXTRACT: note_on channel=0 note=63 velocity=64 time=0
EXTRACT: note_on channel=0 note=66 velocity=64 time=0
EXTRACT: note_on channel=0 note=77 velocity=0 time=0.3199406041666667
EXTRACT: note_on channel=0 note=75 velocity=64 time=0.03720239583333333
EXTRACT: note_on channel=0 note=39 velocity=0 time=0.21279770416666668
EXTRACT: note_on channel=0 note=51 velocity=0 time=0
EXTRACT: note_on channel=0 note=58 velocity=0 time=0.1071429
EXTRACT: note_on channel=0 note=63 velocity=0 time=0
EXTRACT: note_on channel=0 note=66 velocity=0 time=0
EXTRACT: note_on channel=0 note=56 velocity=64 time=0.03720239583333333
EXTRACT: note_on channel=0 note=60 velocity=64 time=0
EXTRACT: note_on channel=0 note=63 velocity=64 time=0
EXTRACT: note_on channel=0 note=68 velocity=64 time=0
EXTRACT: note_on channel=0 note=32 velocity=64 time=0
EXTRACT: note_on channel=0 note=44 velocity=64 time=0
EXTRACT: note_on channel=0 note=75 velocity=0 time=0.6592264541666667
EXTRACT: note_on channel=0 note=56 velocity=0 time=0.017857150000000002
EXTRACT: note_on channel=0 note=60 velocity=0 time=0
EXTRACT: note_on channel=0 note=63 velocity=0 time=0
EXTRACT: note_on channel=0 note=68 velocity=0 time=0
EXTRACT: note_on channel=0 note=56 velocity=72 time=0.03720239583333333
EXTRACT: note_on channel=0 note=60 velocity=72 time=0
EXTRACT: note_on channel=0 note=63 velocity=72 time=0
EXTRACT: note_on channel=0 note=68 velocity=72 time=0
EXTRACT: note_on channel=0 note=68 velocity=76 time=0.357143
EXTRACT: note_on channel=0 note=68 velocity=0 time=0.16815482916666666
EXTRACT: note_on channel=0 note=68 velocity=78 time=0.010416670833333334
EXTRACT: note_on channel=0 note=56 velocity=0 time=0.14136910416666668
EXTRACT: note_on channel=0 note=60 velocity=0 time=0
EXTRACT: note_on channel=0 note=63 velocity=0 time=0
EXTRACT: note_on channel=0 note=68 velocity=0 time=0
EXTRACT: note_on channel=0 note=68 velocity=0 time=0.026785725
EXTRACT: note_on channel=0 note=77 velocity=80 time=0.010416670833333334
EXTRACT: note_on channel=0 note=56 velocity=80 time=0
EXTRACT: note_on channel=0 note=60 velocity=80 time=0
EXTRACT: note_on channel=0 note=63 velocity=80 time=0
EXTRACT: note_on channel=0 note=68 velocity=80 time=0
EXTRACT: note_on channel=0 note=77 velocity=0 time=0.3377977541666667
EXTRACT: note_on channel=0 note=75 velocity=84 time=0.019345245833333333
EXTRACT: note_on channel=0 note=56 velocity=0 time=0.3199406041666667
EXTRACT: note_on channel=0 note=60 velocity=0 time=0
EXTRACT: note_on channel=0 note=63 velocity=0 time=0
EXTRACT: note_on channel=0 note=68 velocity=0 time=0
EXTRACT: note_on channel=0 note=75 velocity=0 time=0.017857150000000002
EXTRACT: note_on channel=0 note=73 velocity=88 time=0.019345245833333333
EXTRACT: note_on channel=0 note=56 velocity=88 time=0
EXTRACT: note_on channel=0 note=60 velocity=88 time=0
EXTRACT: note_on channel=0 note=63 velocity=88 time=0
EXTRACT: note_on channel=0 note=68 velocity=88 time=0
EXTRACT: note_on channel=0 note=73 velocity=0 time=0.3377977541666667
EXTRACT: note_on channel=0 note=72 velocity=92 time=0.019345245833333333
EXTRACT: note_on channel=0 note=32 velocity=0 time=0.21279770416666668
EXTRACT: note_on channel=0 note=44 velocity=0 time=0
EXTRACT: note_on channel=0 note=56 velocity=0 time=0.1071429
EXTRACT: note_on channel=0 note=60 velocity=0 time=0
EXTRACT: note_on channel=0 note=63 velocity=0 time=0
EXTRACT: note_on channel=0 note=68 velocity=0 time=0
EXTRACT: note_on channel=0 note=72 velocity=0 time=0.017857150000000002
EXTRACT: note_on channel=0 note=72 velocity=96 time=0.019345245833333333
EXTRACT: note_on channel=0 note=54 velocity=96 time=0
EXTRACT: note_on channel=0 note=58 velocity=96 time=0
EXTRACT: note_on channel=0 note=61 velocity=96 time=0
EXTRACT: note_on channel=0 note=30 velocity=96 time=0
EXTRACT: note_on channel=0 note=42 velocity=96 time=0
EXTRACT: note_on channel=0 note=72 velocity=0 time=0.3377977541666667
EXTRACT: note_on channel=0 note=73 velocity=96 time=0.019345245833333333
EXTRACT: note_on channel=0 note=54 velocity=0 time=0.3199406041666667
EXTRACT: note_on channel=0 note=58 velocity=0 time=0
EXTRACT: note_on channel=0 note=61 velocity=0 time=0
EXTRACT: note_on channel=0 note=73 velocity=0 time=0.017857150000000002
EXTRACT: note_on channel=0 note=54 velocity=96 time=0.019345245833333333
EXTRACT: note_on channel=0 note=58 velocity=96 time=0
EXTRACT: note_on channel=0 note=61 velocity=96 time=0
EXTRACT: note_on channel=0 note=54 velocity=0 time=0.6770836041666667
EXTRACT: note_on channel=0 note=58 velocity=0 time=0
EXTRACT: note_on channel=0 note=61 velocity=0 time=0
EXTRACT: note_on channel=0 note=72 velocity=96 time=0.03720239583333333
EXTRACT: note_on channel=0 note=54 velocity=96 time=0
EXTRACT: note_on channel=0 note=58 velocity=96 time=0
EXTRACT: note_on channel=0 note=61 velocity=96 time=0
EXTRACT: note_on channel=0 note=72 velocity=0 time=0.3377977541666667
EXTRACT: note_on channel=0 note=73 velocity=96 time=0.019345245833333333
EXTRACT: note_on channel=0 note=54 velocity=0 time=0.3199406041666667
EXTRACT: note_on channel=0 note=58 velocity=0 time=0
EXTRACT: note_on channel=0 note=61 velocity=0 time=0
EXTRACT: note_on channel=0 note=73 velocity=0 time=0.017857150000000002
EXTRACT: note_on channel=0 note=54 velocity=96 time=0.019345245833333333
EXTRACT: note_on channel=0 note=58 velocity=96 time=0
EXTRACT: note_on channel=0 note=61 velocity=96 time=0
EXTRACT: note_on channel=0 note=30 velocity=0 time=0.5699407041666666
EXTRACT: note_on channel=0 note=42 velocity=0 time=0
EXTRACT: note_on channel=0 note=54 velocity=0 time=0.1071429
EXTRACT: note_on channel=0 note=58 velocity=0 time=0
EXTRACT: note_on channel=0 note=61 velocity=0 time=0
EXTRACT: note_on channel=0 note=72 velocity=96 time=0.03720239583333333
EXTRACT: note_on channel=0 note=58 velocity=96 time=0
EXTRACT: note_on channel=0 note=61 velocity=96 time=0
EXTRACT: note_on channel=0 note=65 velocity=96 time=0
EXTRACT: note_on channel=0 note=34 velocity=96 time=0
EXTRACT: note_on channel=0 note=46 velocity=96 time=0
EXTRACT: note_on channel=0 note=72 velocity=0 time=0.3377977541666667
EXTRACT: note_on channel=0 note=73 velocity=96 time=0.019345245833333333
EXTRACT: note_on channel=0 note=58 velocity=0 time=0.3199406041666667
EXTRACT: note_on channel=0 note=61 velocity=0 time=0
EXTRACT: note_on channel=0 note=65 velocity=0 time=0
EXTRACT: note_on channel=0 note=58 velocity=96 time=0.03720239583333333
EXTRACT: note_on channel=0 note=61 velocity=96 time=0
EXTRACT: note_on channel=0 note=65 velocity=96 time=0
EXTRACT: note_on channel=0 note=73 velocity=0 time=0.3199406041666667
EXTRACT: note_on channel=0 note=73 velocity=96 time=0.03720239583333333
EXTRACT: note_on channel=0 note=58 velocity=0 time=0.3199406041666667
EXTRACT: note_on channel=0 note=61 velocity=0 time=0
EXTRACT: note_on channel=0 note=65 velocity=0 time=0
EXTRACT: note_on channel=0 note=58 velocity=96 time=0.03720239583333333
EXTRACT: note_on channel=0 note=61 velocity=96 time=0
EXTRACT: note_on channel=0 note=65 velocity=96 time=0
EXTRACT: note_on channel=0 note=73 velocity=0 time=0.6592264541666667
EXTRACT: note_on channel=0 note=58 velocity=0 time=0.017857150000000002
EXTRACT: note_on channel=0 note=61 velocity=0 time=0
EXTRACT: note_on channel=0 note=65 velocity=0 time=0
EXTRACT: note_on channel=0 note=68 velocity=96 time=0.03720239583333333
EXTRACT: note_on channel=0 note=58 velocity=96 time=0
EXTRACT: note_on channel=0 note=61 velocity=96 time=0
EXTRACT: note_on channel=0 note=65 velocity=96 time=0
EXTRACT: note_on channel=0 note=34 velocity=0 time=0.5699407041666666
EXTRACT: note_on channel=0 note=46 velocity=0 time=0
EXTRACT: note_on channel=0 note=68 velocity=0 time=0.1071429
EXTRACT: note_on channel=0 note=58 velocity=0 time=0
EXTRACT: note_on channel=0 note=61 velocity=0 time=0
EXTRACT: note_on channel=0 note=65 velocity=0 time=0
EXTRACT: note_on channel=0 note=56 velocity=64 time=0.03720239583333333
EXTRACT: note_on channel=0 note=61 velocity=64 time=0
EXTRACT: note_on channel=0 note=65 velocity=64 time=0
EXTRACT: note_on channel=0 note=37 velocity=64 time=0
EXTRACT: note_on channel=0 note=49 velocity=64 time=0
EXTRACT: note_on channel=0 note=56 velocity=0 time=0.6770836041666667
EXTRACT: note_on channel=0 note=61 velocity=0 time=0
EXTRACT: note_on channel=0 note=65 velocity=0 time=0
EXTRACT: note_on channel=0 note=73 velocity=64 time=0.03720239583333333
EXTRACT: note_on channel=0 note=56 velocity=64 time=0
EXTRACT: note_on channel=0 note=61 velocity=64 time=0
EXTRACT: note_on channel=0 note=65 velocity=64 time=0
EXTRACT: note_on channel=0 note=73 velocity=0 time=0.3377977541666667
EXTRACT: note_on channel=0 note=73 velocity=64 time=0.019345245833333333
EXTRACT: note_on channel=0 note=56 velocity=0 time=0.3199406041666667
EXTRACT: note_on channel=0 note=61 velocity=0 time=0
EXTRACT: note_on channel=0 note=65 velocity=0 time=0
EXTRACT: note_on channel=0 note=56 velocity=64 time=0.03720239583333333
EXTRACT: note_on channel=0 note=61 velocity=64 time=0
EXTRACT: note_on channel=0 note=65 velocity=64 time=0
EXTRACT: note_on channel=0 note=73 velocity=0 time=0.3199406041666667
EXTRACT: note_on channel=0 note=68 velocity=64 time=0.03720239583333333
EXTRACT: note_on channel=0 note=56 velocity=0 time=0.3199406041666667
EXTRACT: note_on channel=0 note=61 velocity=0 time=0
EXTRACT: note_on channel=0 note=65 velocity=0 time=0
EXTRACT: note_on channel=0 note=68 velocity=0 time=0.017857150000000002
EXTRACT: note_on channel=0 note=68 velocity=64 time=0.019345245833333333
EXTRACT: note_on channel=0 note=56 velocity=64 time=0
EXTRACT: note_on channel=0 note=61 velocity=64 time=0
EXTRACT: note_on channel=0 note=65 velocity=64 time=0
EXTRACT: note_on channel=0 note=68 velocity=0 time=0.16815482916666666
EXTRACT: note_on channel=0 note=65 velocity=64 time=0.010416670833333334
EXTRACT: note_on channel=0 note=65 velocity=0 time=0.16815482916666666
EXTRACT: note_on channel=0 note=66 velocity=64 time=0.010416670833333334
EXTRACT: note_on channel=0 note=37 velocity=0 time=0.21279770416666668
EXTRACT: note_on channel=0 note=49 velocity=0 time=0
EXTRACT: note_on channel=0 note=56 velocity=0 time=0.1071429
EXTRACT: note_on channel=0 note=61 velocity=0 time=0
EXTRACT: note_on channel=0 note=65 velocity=0 time=0
EXTRACT: note_on channel=0 note=58 velocity=64 time=0.03720239583333333
EXTRACT: note_on channel=0 note=61 velocity=64 time=0
EXTRACT: note_on channel=0 note=66 velocity=64 time=0
EXTRACT: note_on channel=0 note=30 velocity=64 time=0
EXTRACT: note_on channel=0 note=42 velocity=64 time=0
EXTRACT: note_on channel=0 note=66 velocity=0 time=0.6592264541666667
EXTRACT: note_on channel=0 note=58 velocity=0 time=0.017857150000000002
EXTRACT: note_on channel=0 note=61 velocity=0 time=0
EXTRACT: note_on channel=0 note=66 velocity=0 time=0
EXTRACT: note_on channel=0 note=58 velocity=76 time=0.03720239583333333
EXTRACT: note_on channel=0 note=61 velocity=76 time=0
EXTRACT: note_on channel=0 note=66 velocity=76 time=0
EXTRACT: note_on channel=0 note=73 velocity=82 time=0.357143
EXTRACT: note_on channel=0 note=58 velocity=0 time=0.3199406041666667
EXTRACT: note_on channel=0 note=61 velocity=0 time=0
EXTRACT: note_on channel=0 note=66 velocity=0 time=0
EXTRACT: note_on channel=0 note=73 velocity=0 time=0.017857150000000002
EXTRACT: note_on channel=0 note=80 velocity=88 time=0.019345245833333333
EXTRACT: note_on channel=0 note=58 velocity=88 time=0
EXTRACT: note_on channel=0 note=61 velocity=88 time=0
EXTRACT: note_on channel=0 note=66 velocity=88 time=0
EXTRACT: note_on channel=0 note=80 velocity=0 time=0.3377977541666667
EXTRACT: note_on channel=0 note=78 velocity=94 time=0.019345245833333333
EXTRACT: note_on channel=0 note=58 velocity=0 time=0.3199406041666667
EXTRACT: note_on channel=0 note=61 velocity=0 time=0
EXTRACT: note_on channel=0 note=66 velocity=0 time=0
EXTRACT: note_on channel=0 note=78 velocity=0 time=0.017857150000000002
EXTRACT: note_on channel=0 note=77 velocity=100 time=0.019345245833333333
EXTRACT: note_on channel=0 note=58 velocity=100 time=0
EXTRACT: note_on channel=0 note=61 velocity=100 time=0
EXTRACT: note_on channel=0 note=66 velocity=100 time=0
EXTRACT: note_on channel=0 note=77 velocity=0 time=0.16815482916666666
EXTRACT: note_on channel=0 note=75 velocity=103 time=0.010416670833333334
EXTRACT: note_on channel=0 note=75 velocity=0 time=0.16815482916666666
EXTRACT: note_on channel=0 note=78 velocity=106 time=0.010416670833333334
EXTRACT: note_on channel=0 note=30 velocity=0 time=0.21279770416666668
EXTRACT: note_on channel=0 note=42 velocity=0 time=0
EXTRACT: note_on channel=0 note=58 velocity=0 time=0.1071429
EXTRACT: note_on channel=0 note=61 velocity=0 time=0
EXTRACT: note_on channel=0 note=66 velocity=0 time=0
EXTRACT: note_on channel=0 note=58 velocity=112 time=0.03720239583333333
EXTRACT: note_on channel=0 note=63 velocity=112 time=0
EXTRACT: note_on channel=0 note=66 velocity=112 time=0
EXTRACT: note_on channel=0 note=27 velocity=112 time=0
EXTRACT: note_on channel=0 note=39 velocity=112 time=0
EXTRACT: note_on channel=0 note=78 velocity=0 time=0.6592264541666667
EXTRACT: note_on channel=0 note=58 velocity=0 time=0.017857150000000002
EXTRACT: note_on channel=0 note=63 velocity=0 time=0
EXTRACT: note_on channel=0 note=66 velocity=0 time=0
EXTRACT: note_on channel=0 note=58 velocity=108 time=0.03720239583333333
EXTRACT: note_on channel=0 note=63 velocity=108 time=0
EXTRACT: note_on channel=0 note=66 velocity=108 time=0
EXTRACT: note_on channel=0 note=75 velocity=106 time=0.357143
EXTRACT: note_on channel=0 note=58 velocity=0 time=0.3199406041666667
EXTRACT: note_on channel=0 note=63 velocity=0 time=0
EXTRACT: note_on channel=0 note=66 velocity=0 time=0
EXTRACT: note_on channel=0 note=75 velocity=0 time=0.017857150000000002
EXTRACT: note_on channel=0 note=80 velocity=104 time=0.019345245833333333
EXTRACT: note_on channel=0 note=58 velocity=104 time=0
EXTRACT: note_on channel=0 note=63 velocity=104 time=0
EXTRACT: note_on channel=0 note=66 velocity=104 time=0
EXTRACT: note_on channel=0 note=80 velocity=0 time=0.3377977541666667
EXTRACT: note_on channel=0 note=78 velocity=102 time=0.019345245833333333
EXTRACT: note_on channel=0 note=58 velocity=0 time=0.3199406041666667
EXTRACT: note_on channel=0 note=63 velocity=0 time=0
EXTRACT: note_on channel=0 note=66 velocity=0 time=0
EXTRACT: note_on channel=0 note=78 velocity=0 time=0.017857150000000002
EXTRACT: note_on channel=0 note=77 velocity=100 time=0.019345245833333333
EXTRACT: note_on channel=0 note=58 velocity=100 time=0
EXTRACT: note_on channel=0 note=63 velocity=100 time=0
EXTRACT: note_on channel=0 note=66 velocity=100 time=0
EXTRACT: note_on channel=0 note=77 velocity=0 time=0.16815482916666666
EXTRACT: note_on channel=0 note=75 velocity=99 time=0.010416670833333334
EXTRACT: note_on channel=0 note=75 velocity=0 time=0.16815482916666666
EXTRACT: note_on channel=0 note=78 velocity=98 time=0.010416670833333334
EXTRACT: note_on channel=0 note=27 velocity=0 time=0.21279770416666668
EXTRACT: note_on channel=0 note=39 velocity=0 time=0
EXTRACT: note_on channel=0 note=58 velocity=0 time=0.1071429
EXTRACT: note_on channel=0 note=63 velocity=0 time=0
EXTRACT: note_on channel=0 note=66 velocity=0 time=0
EXTRACT: note_on channel=0 note=54 velocity=96 time=0.03720239583333333
EXTRACT: note_on channel=0 note=58 velocity=96 time=0
EXTRACT: note_on channel=0 note=61 velocity=96 time=0
EXTRACT: note_on channel=0 note=66 velocity=96 time=0
EXTRACT: note_on channel=0 note=30 velocity=96 time=0
EXTRACT: note_on channel=0 note=42 velocity=96 time=0
EXTRACT: note_on channel=0 note=78 velocity=0 time=0.6592264541666667
EXTRACT: note_on channel=0 note=54 velocity=0 time=0.017857150000000002
EXTRACT: note_on channel=0 note=58 velocity=0 time=0
EXTRACT: note_on channel=0 note=61 velocity=0 time=0
EXTRACT: note_on channel=0 note=66 velocity=0 time=0
EXTRACT: note_on channel=0 note=54 velocity=91 time=0.03720239583333333
EXTRACT: note_on channel=0 note=58 velocity=91 time=0
EXTRACT: note_on channel=0 note=61 velocity=91 time=0
EXTRACT: note_on channel=0 note=66 velocity=91 time=0
EXTRACT: note_on channel=0 note=68 velocity=89 time=0.357143
EXTRACT: note_on channel=0 note=54 velocity=0 time=0.3199406041666667
EXTRACT: note_on channel=0 note=58 velocity=0 time=0
EXTRACT: note_on channel=0 note=61 velocity=0 time=0
EXTRACT: note_on channel=0 note=66 velocity=0 time=0
EXTRACT: note_on channel=0 note=68 velocity=0 time=0.017857150000000002
EXTRACT: note_on channel=0 note=78 velocity=87 time=0.019345245833333333
EXTRACT: note_on channel=0 note=54 velocity=87 time=0
EXTRACT: note_on channel=0 note=58 velocity=87 time=0
EXTRACT: note_on channel=0 note=61 velocity=87 time=0
EXTRACT: note_on channel=0 note=66 velocity=87 time=0
EXTRACT: note_on channel=0 note=78 velocity=0 time=0.3377977541666667
EXTRACT: note_on channel=0 note=77 velocity=85 time=0.019345245833333333
EXTRACT: note_on channel=0 note=30 velocity=0 time=0.24851200416666666
EXTRACT: note_on channel=0 note=42 velocity=0 time=0
EXTRACT: note_on channel=0 note=54 velocity=0 time=0.07142860000000001
EXTRACT: note_on channel=0 note=58 velocity=0 time=0
EXTRACT: note_on channel=0 note=61 velocity=0 time=0
EXTRACT: note_on channel=0 note=66 velocity=0 time=0
EXTRACT: note_on channel=0 note=77 velocity=0 time=0.017857150000000002
EXTRACT: note_on channel=0 note=75 velocity=83 time=0.019345245833333333
EXTRACT: note_on channel=0 note=56 velocity=83 time=0
EXTRACT: note_on channel=0 note=60 velocity=83 time=0
EXTRACT: note_on channel=0 note=63 velocity=83 time=0
EXTRACT: note_on channel=0 note=68 velocity=83 time=0
EXTRACT: note_on channel=0 note=32 velocity=83 time=0
EXTRACT: note_on channel=0 note=44 velocity=83 time=0
EXTRACT: note_on channel=0 note=75 velocity=0 time=0.3377977541666667
EXTRACT: note_on channel=0 note=73 velocity=81 time=0.019345245833333333
EXTRACT: note_on channel=0 note=56 velocity=0 time=0.3199406041666667
EXTRACT: note_on channel=0 note=60 velocity=0 time=0
EXTRACT: note_on channel=0 note=63 velocity=0 time=0
EXTRACT: note_on channel=0 note=68 velocity=0 time=0
EXTRACT: note_on channel=0 note=32 velocity=0 time=0
EXTRACT: note_on channel=0 note=44 velocity=0 time=0
EXTRACT: note_on channel=0 note=58 velocity=79 time=0.03720239583333333
EXTRACT: note_on channel=0 note=61 velocity=79 time=0
EXTRACT: note_on channel=0 note=65 velocity=79 time=0
EXTRACT: note_on channel=0 note=34 velocity=79 time=0
EXTRACT: note_on channel=0 note=46 velocity=79 time=0
EXTRACT: note_on channel=0 note=73 velocity=0 time=0.3556549041666667
EXTRACT: note_on channel=0 note=73 velocity=77 time=0.0014880958333333334
EXTRACT: note_on channel=0 note=58 velocity=0 time=0.3556549041666667
EXTRACT: note_on channel=0 note=61 velocity=0 time=0
EXTRACT: note_on channel=0 note=65 velocity=0 time=0
EXTRACT: note_on channel=0 note=58 velocity=75 time=0.0014880958333333334
EXTRACT: note_on channel=0 note=61 velocity=75 time=0
EXTRACT: note_on channel=0 note=65 velocity=75 time=0
EXTRACT: note_on channel=0 note=73 velocity=0 time=0.3556549041666667
EXTRACT: note_on channel=0 note=34 velocity=0 time=0.28571440000000004
EXTRACT: note_on channel=0 note=46 velocity=0 time=0
EXTRACT: note_on channel=0 note=58 velocity=0 time=0.07142860000000001
EXTRACT: note_on channel=0 note=61 velocity=0 time=0
EXTRACT: note_on channel=0 note=65 velocity=0 time=0
EXTRACT: note_on channel=0 note=58 velocity=70 time=0.0014880958333333334
EXTRACT: note_on channel=0 note=61 velocity=70 time=0
EXTRACT: note_on channel=0 note=65 velocity=70 time=0
EXTRACT: note_on channel=0 note=58 velocity=0 time=0.7127979041666667
EXTRACT: note_on channel=0 note=61 velocity=0 time=0
EXTRACT: note_on channel=0 note=65 velocity=0 time=0
EXTRACT: note_on channel=0 note=58 velocity=66 time=0.0014880958333333334
EXTRACT: note_on channel=0 note=61 velocity=66 time=0
EXTRACT: note_on channel=0 note=65 velocity=66 time=0
EXTRACT: note_on channel=0 note=58 velocity=0 time=0.7127979041666667
EXTRACT: note_on channel=0 note=61 velocity=0 time=0
EXTRACT: note_on channel=0 note=65 velocity=0 time=0
EXTRACT: note_on channel=0 note=58 velocity=62 time=0
EXTRACT: note_on channel=0 note=61 velocity=62 time=0
EXTRACT: note_on channel=0 note=65 velocity=62 time=0
EXTRACT: note_on channel=0 note=34 velocity=62 time=0
EXTRACT: note_on channel=0 note=46 velocity=62 time=0
EXTRACT: note_on channel=0 note=58 velocity=0 time=0.7127979041666667
EXTRACT: note_on channel=0 note=61 velocity=0 time=0
EXTRACT: note_on channel=0 note=65 velocity=0 time=0
EXTRACT: note_on channel=0 note=58 velocity=58 time=0.0014880958333333334
EXTRACT: note_on channel=0 note=61 velocity=58 time=0
EXTRACT: note_on channel=0 note=65 velocity=58 time=0
EXTRACT: note_on channel=0 note=58 velocity=0 time=0.7127979041666667
EXTRACT: note_on channel=0 note=61 velocity=0 time=0
EXTRACT: note_on channel=0 note=65 velocity=0 time=0
EXTRACT: note_on channel=0 note=58 velocity=54 time=0.0014880958333333334
EXTRACT: note_on channel=0 note=61 velocity=54 time=0
EXTRACT: note_on channel=0 note=65 velocity=54 time=0
EXTRACT: note_on channel=0 note=68 velocity=52 time=0.357143
EXTRACT: note_on channel=0 note=34 velocity=0 time=0.24851200416666666
EXTRACT: note_on channel=0 note=46 velocity=0 time=0
EXTRACT: note_on channel=0 note=58 velocity=0 time=0.1071429
EXTRACT: note_on channel=0 note=61 velocity=0 time=0
EXTRACT: note_on channel=0 note=65 velocity=0 time=0
EXTRACT: note_on channel=0 note=68 velocity=0 time=0
EXTRACT: note_on channel=0 note=77 velocity=49 time=0.0014880958333333334
EXTRACT: note_on channel=0 note=63 velocity=49 time=0
EXTRACT: note_on channel=0 note=49 velocity=49 time=0
EXTRACT: note_on channel=0 note=56 velocity=49 time=0
EXTRACT: note_on channel=0 note=63 velocity=0 time=0.062500025
EXTRACT: note_on channel=0 note=65 velocity=49 time=0.0014880958333333334
EXTRACT: note_on channel=0 note=65 velocity=0 time=0.29017868750000003
EXTRACT: note_on channel=0 note=77 velocity=0 time=0.0014880958333333334
EXTRACT: note_on channel=0 note=75 velocity=49 time=0.0014880958333333334
EXTRACT: note_on channel=0 note=63 velocity=49 time=0
EXTRACT: note_on channel=0 note=49 velocity=0 time=0.3199406041666667
EXTRACT: note_on channel=0 note=56 velocity=0 time=0
EXTRACT: note_on channel=0 note=75 velocity=0 time=0.035714300000000004
EXTRACT: note_on channel=0 note=63 velocity=0 time=0
EXTRACT: note_on channel=0 note=70 velocity=49 time=0.0014880958333333334
EXTRACT: note_on channel=0 note=56 velocity=49 time=0
EXTRACT: note_on channel=0 note=42 velocity=49 time=0
EXTRACT: note_on channel=0 note=49 velocity=49 time=0
EXTRACT: note_on channel=0 note=56 velocity=0 time=0.062500025
EXTRACT: note_on channel=0 note=58 velocity=49 time=0.0014880958333333334
EXTRACT: note_on channel=0 note=58 velocity=0 time=0.29017868750000003
EXTRACT: note_on channel=0 note=70 velocity=0 time=0.0014880958333333334
EXTRACT: note_on channel=0 note=68 velocity=49 time=0.0014880958333333334
EXTRACT: note_on channel=0 note=56 velocity=49 time=0
EXTRACT: note_on channel=0 note=68 velocity=0 time=0.17708340416666668
EXTRACT: note_on channel=0 note=73 velocity=49 time=0.0014880958333333334
EXTRACT: note_on channel=0 note=42 velocity=0 time=0.14136910416666668
EXTRACT: note_on channel=0 note=49 velocity=0 time=0
EXTRACT: note_on channel=0 note=56 velocity=0 time=0.035714300000000004
EXTRACT: note_on channel=0 note=73 velocity=0 time=0
EXTRACT: note_on channel=0 note=73 velocity=33 time=0
EXTRACT: note_on channel=0 note=58 velocity=33 time=0
EXTRACT: note_on channel=0 note=61 velocity=33 time=0
EXTRACT: note_on channel=0 note=53 velocity=33 time=0
EXTRACT: note_on channel=0 note=46 velocity=33 time=0
EXTRACT: note_on channel=0 note=53 velocity=0 time=0.6770836041666667
EXTRACT: note_on channel=0 note=73 velocity=0 time=0.035714300000000004
EXTRACT: note_on channel=0 note=58 velocity=0 time=0
EXTRACT: note_on channel=0 note=61 velocity=0 time=0
EXTRACT: note_on channel=0 note=58 velocity=35 time=0.0014880958333333334
EXTRACT: note_on channel=0 note=61 velocity=35 time=0
EXTRACT: note_on channel=0 note=53 velocity=35 time=0
EXTRACT: note_on channel=0 note=53 velocity=0 time=0.6770836041666667
EXTRACT: note_on channel=0 note=58 velocity=0 time=0.035714300000000004
EXTRACT: note_on channel=0 note=61 velocity=0 time=0
EXTRACT: note_on channel=0 note=58 velocity=38 time=0.0014880958333333334
EXTRACT: note_on channel=0 note=61 velocity=38 time=0
EXTRACT: note_on channel=0 note=53 velocity=38 time=0
EXTRACT: note_on channel=0 note=53 velocity=0 time=0.6770836041666667
EXTRACT: note_on channel=0 note=58 velocity=0 time=0.035714300000000004
EXTRACT: note_on channel=0 note=61 velocity=0 time=0
EXTRACT: note_on channel=0 note=58 velocity=41 time=0.0014880958333333334
EXTRACT: note_on channel=0 note=61 velocity=41 time=0
EXTRACT: note_on channel=0 note=53 velocity=41 time=0
EXTRACT: note_on channel=0 note=53 velocity=0 time=0.6770836041666667
EXTRACT: note_on channel=0 note=58 velocity=0 time=0.035714300000000004
EXTRACT: note_on channel=0 note=61 velocity=0 time=0
EXTRACT: note_on channel=0 note=58 velocity=44 time=0.0014880958333333334
EXTRACT: note_on channel=0 note=61 velocity=44 time=0
EXTRACT: note_on channel=0 note=53 velocity=44 time=0
EXTRACT: note_on channel=0 note=53 velocity=0 time=0.6770836041666667
EXTRACT: note_on channel=0 note=58 velocity=0 time=0.035714300000000004
EXTRACT: note_on channel=0 note=61 velocity=0 time=0
EXTRACT: note_on channel=0 note=58 velocity=46 time=0.0014880958333333334
EXTRACT: note_on channel=0 note=61 velocity=46 time=0
EXTRACT: note_on channel=0 note=53 velocity=46 time=0
EXTRACT: note_on channel=0 note=46 velocity=0 time=0.4985121041666667
EXTRACT: note_on channel=0 note=68 velocity=49 time=0.03720239583333333
EXTRACT: note_on channel=0 note=53 velocity=0 time=0.14136910416666668
EXTRACT: note_on channel=0 note=58 velocity=0 time=0.035714300000000004
EXTRACT: note_on channel=0 note=61 velocity=0 time=0
EXTRACT: note_on channel=0 note=68 velocity=0 time=0
EXTRACT: note_on channel=0 note=77 velocity=49 time=0.0014880958333333334
EXTRACT: note_on channel=0 note=63 velocity=49 time=0
EXTRACT: note_on channel=0 note=49 velocity=49 time=0
EXTRACT: note_on channel=0 note=56 velocity=49 time=0
EXTRACT: note_on channel=0 note=63 velocity=0 time=0.062500025
EXTRACT: note_on channel=0 note=65 velocity=49 time=0.0014880958333333334
EXTRACT: note_on channel=0 note=65 velocity=0 time=0.29017868750000003
EXTRACT: note_on channel=0 note=77 velocity=0 time=0.0014880958333333334
EXTRACT: note_on channel=0 note=75 velocity=49 time=0.0014880958333333334
EXTRACT: note_on channel=0 note=63 velocity=49 time=0
EXTRACT: note_on channel=0 note=49 velocity=0 time=0.3199406041666667
EXTRACT: note_on channel=0 note=56 velocity=0 time=0
EXTRACT: note_on channel=0 note=75 velocity=0 time=0.035714300000000004
EXTRACT: note_on channel=0 note=63 velocity=0 time=0
EXTRACT: note_on channel=0 note=70 velocity=49 time=0.0014880958333333334
EXTRACT: note_on channel=0 note=56 velocity=49 time=0
EXTRACT: note_on channel=0 note=42 velocity=49 time=0
EXTRACT: note_on channel=0 note=49 velocity=49 time=0
EXTRACT: note_on channel=0 note=56 velocity=0 time=0.062500025
EXTRACT: note_on channel=0 note=58 velocity=49 time=0.0014880958333333334
EXTRACT: note_on channel=0 note=58 velocity=0 time=0.29017868750000003
EXTRACT: note_on channel=0 note=56 velocity=49 time=0.0029761916666666667
EXTRACT: note_on channel=0 note=70 velocity=0 time=0.17708340416666668
EXTRACT: note_on channel=0 note=68 velocity=49 time=0.0014880958333333334
EXTRACT: note_on channel=0 note=42 velocity=0 time=0.14136910416666668
EXTRACT: note_on channel=0 note=49 velocity=0 time=0
EXTRACT: note_on channel=0 note=56 velocity=0 time=0.035714300000000004
EXTRACT: note_on channel=0 note=68 velocity=0 time=0
EXTRACT: note_on channel=0 note=73 velocity=33 time=0.0014880958333333334
EXTRACT: note_on channel=0 note=58 velocity=33 time=0
EXTRACT: note_on channel=0 note=61 velocity=33 time=0
EXTRACT: note_on channel=0 note=53 velocity=33 time=0
EXTRACT: note_on channel=0 note=46 velocity=33 time=0
EXTRACT: note_on channel=0 note=53 velocity=0 time=0.6770836041666667
EXTRACT: note_on channel=0 note=73 velocity=0 time=0.035714300000000004
EXTRACT: note_on channel=0 note=58 velocity=0 time=0
EXTRACT: note_on channel=0 note=61 velocity=0 time=0
EXTRACT: note_on channel=0 note=58 velocity=33 time=0.0014880958333333334
EXTRACT: note_on channel=0 note=61 velocity=33 time=0
EXTRACT: note_on channel=0 note=53 velocity=33 time=0
EXTRACT: note_on channel=0 note=53 velocity=0 time=0.6770836041666667
EXTRACT: note_on channel=0 note=58 velocity=0 time=0.035714300000000004
EXTRACT: note_on channel=0 note=61 velocity=0 time=0
EXTRACT: note_on channel=0 note=58 velocity=36 time=0.0014880958333333334
EXTRACT: note_on channel=0 note=61 velocity=36 time=0
EXTRACT: note_on channel=0 note=53 velocity=36 time=0
EXTRACT: note_on channel=0 note=53 velocity=0 time=0.6770836041666667
EXTRACT: note_on channel=0 note=58 velocity=0 time=0.035714300000000004
EXTRACT: note_on channel=0 note=61 velocity=0 time=0
EXTRACT: note_on channel=0 note=58 velocity=39 time=0.0014880958333333334
EXTRACT: note_on channel=0 note=61 velocity=39 time=0
EXTRACT: note_on channel=0 note=53 velocity=39 time=0
EXTRACT: note_on channel=0 note=53 velocity=0 time=0.6770836041666667
EXTRACT: note_on channel=0 note=58 velocity=0 time=0.035714300000000004
EXTRACT: note_on channel=0 note=61 velocity=0 time=0
EXTRACT: note_on channel=0 note=58 velocity=43 time=0.0014880958333333334
EXTRACT: note_on channel=0 note=61 velocity=43 time=0
EXTRACT: note_on channel=0 note=53 velocity=43 time=0
EXTRACT: note_on channel=0 note=53 velocity=0 time=0.6770836041666667
EXTRACT: note_on channel=0 note=58 velocity=0 time=0.035714300000000004
EXTRACT: note_on channel=0 note=61 velocity=0 time=0
EXTRACT: note_on channel=0 note=58 velocity=46 time=0.0014880958333333334
EXTRACT: note_on channel=0 note=61 velocity=46 time=0
EXTRACT: note_on channel=0 note=53 velocity=46 time=0
EXTRACT: note_on channel=0 note=46 velocity=0 time=0.4985121041666667
EXTRACT: note_on channel=0 note=68 velocity=49 time=0.03720239583333333
EXTRACT: note_on channel=0 note=53 velocity=0 time=0.14136910416666668
EXTRACT: note_on channel=0 note=58 velocity=0 time=0.035714300000000004
EXTRACT: note_on channel=0 note=61 velocity=0 time=0
EXTRACT: note_on channel=0 note=68 velocity=0 time=0
EXTRACT: note_on channel=0 note=73 velocity=49 time=0.0014880958333333334
EXTRACT: note_on channel=0 note=60 velocity=49 time=0
EXTRACT: note_on channel=0 note=49 velocity=49 time=0
EXTRACT: note_on channel=0 note=56 velocity=49 time=0
EXTRACT: note_on channel=0 note=60 velocity=0 time=0.062500025
EXTRACT: note_on channel=0 note=61 velocity=49 time=0.0014880958333333334
EXTRACT: note_on channel=0 note=61 velocity=0 time=0.29017868750000003
EXTRACT: note_on channel=0 note=73 velocity=0 time=0.0014880958333333334
EXTRACT: note_on channel=0 note=72 velocity=49 time=0.0014880958333333334
EXTRACT: note_on channel=0 note=60 velocity=49 time=0
EXTRACT: note_on channel=0 note=49 velocity=0 time=0.3199406041666667
EXTRACT: note_on channel=0 note=56 velocity=0 time=0
EXTRACT: note_on channel=0 note=72 velocity=0 time=0.035714300000000004
EXTRACT: note_on channel=0 note=60 velocity=0 time=0
EXTRACT: note_on channel=0 note=70 velocity=49 time=0.0014880958333333334
EXTRACT: note_on channel=0 note=56 velocity=49 time=0
EXTRACT: note_on channel=0 note=42 velocity=49 time=0
EXTRACT: note_on channel=0 note=49 velocity=49 time=0
EXTRACT: note_on channel=0 note=56 velocity=0 time=0.062500025
EXTRACT: note_on channel=0 note=58 velocity=49 time=0.0014880958333333334
EXTRACT: note_on channel=0 note=58 velocity=0 time=0.29017868750000003
EXTRACT: note_on channel=0 note=70 velocity=0 time=0.0014880958333333334
EXTRACT: note_on channel=0 note=68 velocity=49 time=0.0014880958333333334
EXTRACT: note_on channel=0 note=56 velocity=49 time=0
EXTRACT: note_on channel=0 note=42 velocity=0 time=0.3199406041666667
EXTRACT: note_on channel=0 note=49 velocity=0 time=0
EXTRACT: note_on channel=0 note=68 velocity=0 time=0.035714300000000004
EXTRACT: note_on channel=0 note=56 velocity=0 time=0
EXTRACT: note_on channel=0 note=68 velocity=49 time=0.0014880958333333334
EXTRACT: note_on channel=0 note=49 velocity=49 time=0
EXTRACT: note_on channel=0 note=53 velocity=49 time=0
EXTRACT: note_on channel=0 note=37 velocity=49 time=0
EXTRACT: note_on channel=0 note=44 velocity=49 time=0
EXTRACT: note_on channel=0 note=68 velocity=0 time=0.3556549041666667
EXTRACT: note_on channel=0 note=70 velocity=49 time=0.0014880958333333334
EXTRACT: note_on channel=0 note=49 velocity=0 time=0.3556549041666667
EXTRACT: note_on channel=0 note=53 velocity=0 time=0
EXTRACT: note_on channel=0 note=70 velocity=0 time=0
EXTRACT: note_on channel=0 note=65 velocity=47 time=0.0014880958333333334
EXTRACT: note_on channel=0 note=49 velocity=47 time=0
EXTRACT: note_on channel=0 note=53 velocity=47 time=0
EXTRACT: note_on channel=0 note=65 velocity=0 time=0.7127979041666667
EXTRACT: note_on channel=0 note=49 velocity=0 time=0
EXTRACT: note_on channel=0 note=53 velocity=0 time=0
EXTRACT: note_on channel=0 note=49 velocity=43 time=0.0014880958333333334
EXTRACT: note_on channel=0 note=53 velocity=43 time=0
EXTRACT: note_on channel=0 note=49 velocity=0 time=0.7127979041666667
EXTRACT: note_on channel=0 note=53 velocity=0 time=0
EXTRACT: note_on channel=0 note=49 velocity=38 time=0.0014880958333333334
EXTRACT: note_on channel=0 note=53 velocity=38 time=0
EXTRACT: note_on channel=0 note=49 velocity=0 time=0.7127979041666667
EXTRACT: note_on channel=0 note=53 velocity=0 time=0
EXTRACT: note_on channel=0 note=49 velocity=33 time=0.0014880958333333334
EXTRACT: note_on channel=0 note=53 velocity=33 time=0
EXTRACT: note_on channel=0 note=49 velocity=0 time=0.7127979041666667
EXTRACT: note_on channel=0 note=53 velocity=0 time=0
EXTRACT: note_on channel=0 note=49 velocity=33 time=0.0014880958333333334
EXTRACT: note_on channel=0 note=53 velocity=33 time=0
EXTRACT: note_on channel=0 note=49 velocity=0 time=0.3556549041666667
EXTRACT: note_on channel=0 note=53 velocity=0 time=0
EXTRACT: note_on channel=0 note=63 velocity=33 time=0.0014880958333333334
EXTRACT: note_on channel=0 note=51 velocity=33 time=0
EXTRACT: note_on channel=0 note=37 velocity=0 time=0.14136910416666668
EXTRACT: note_on channel=0 note=44 velocity=0 time=0
EXTRACT: note_on channel=0 note=63 velocity=0 time=0.035714300000000004
EXTRACT: note_on channel=0 note=51 velocity=0 time=0
EXTRACT: note_on channel=0 note=65 velocity=33 time=0.0014880958333333334
EXTRACT: note_on channel=0 note=53 velocity=33 time=0
EXTRACT: note_on channel=0 note=65 velocity=0 time=0.17708340416666668
EXTRACT: note_on channel=0 note=53 velocity=0 time=0
EXTRACT: note_on channel=0 note=66 velocity=33 time=0.0014880958333333334
EXTRACT: note_on channel=0 note=54 velocity=33 time=0
EXTRACT: note_on channel=0 note=42 velocity=33 time=0
EXTRACT: note_on channel=0 note=49 velocity=33 time=0
EXTRACT: note_on channel=0 note=66 velocity=0 time=0.3556549041666667
EXTRACT: note_on channel=0 note=54 velocity=0 time=0
EXTRACT: note_on channel=0 note=65 velocity=33 time=0.0014880958333333334
EXTRACT: note_on channel=0 note=53 velocity=33 time=0
EXTRACT: note_on channel=0 note=42 velocity=0 time=0.3199406041666667
EXTRACT: note_on channel=0 note=49 velocity=0 time=0
EXTRACT: note_on channel=0 note=65 velocity=0 time=0.035714300000000004
EXTRACT: note_on channel=0 note=53 velocity=0 time=0
EXTRACT: note_on channel=0 note=63 velocity=33 time=0.0014880958333333334
EXTRACT: note_on channel=0 note=51 velocity=33 time=0
EXTRACT: note_on channel=0 note=44 velocity=33 time=0
EXTRACT: note_on channel=0 note=63 velocity=0 time=0.3556549041666667
EXTRACT: note_on channel=0 note=61 velocity=33 time=0.0014880958333333334
EXTRACT: note_on channel=0 note=61 velocity=0 time=0.17708340416666668
EXTRACT: note_on channel=0 note=61 velocity=33 time=0.0014880958333333334
EXTRACT: note_on channel=0 note=44 velocity=0 time=0.14136910416666668
EXTRACT: note_on channel=0 note=51 velocity=0 time=0.035714300000000004
EXTRACT: note_on channel=0 note=53 velocity=33 time=0.0014880958333333334
EXTRACT: note_on channel=0 note=58 velocity=33 time=0
EXTRACT: note_on channel=0 note=61 velocity=33 time=0
EXTRACT: note_on channel=0 note=46 velocity=33 time=0
EXTRACT: note_on channel=0 note=61 velocity=0 time=0.7127979041666667
EXTRACT: note_on channel=0 note=53 velocity=0 time=0
EXTRACT: note_on channel=0 note=58 velocity=0 time=0
EXTRACT: note_on channel=0 note=61 velocity=0 time=0
EXTRACT: note_on channel=0 note=53 velocity=33 time=0.0014880958333333334
EXTRACT: note_on channel=0 note=58 velocity=33 time=0
EXTRACT: note_on channel=0 note=61 velocity=33 time=0
EXTRACT: note_on channel=0 note=53 velocity=0 time=0.7127979041666667
EXTRACT: note_on channel=0 note=58 velocity=0 time=0
EXTRACT: note_on channel=0 note=61 velocity=0 time=0
EXTRACT: note_on channel=0 note=53 velocity=33 time=0.0014880958333333334
EXTRACT: note_on channel=0 note=58 velocity=33 time=0
EXTRACT: note_on channel=0 note=61 velocity=33 time=0
EXTRACT: note_on channel=0 note=53 velocity=0 time=0.7127979041666667
EXTRACT: note_on channel=0 note=58 velocity=0 time=0
EXTRACT: note_on channel=0 note=61 velocity=0 time=0
EXTRACT: note_on channel=0 note=53 velocity=33 time=0.0014880958333333334
EXTRACT: note_on channel=0 note=58 velocity=33 time=0
EXTRACT: note_on channel=0 note=61 velocity=33 time=0
EXTRACT: note_on channel=0 note=53 velocity=0 time=0.7127979041666667
EXTRACT: note_on channel=0 note=58 velocity=0 time=0
EXTRACT: note_on channel=0 note=61 velocity=0 time=0
EXTRACT: note_on channel=0 note=53 velocity=33 time=0.0014880958333333334
EXTRACT: note_on channel=0 note=58 velocity=33 time=0
EXTRACT: note_on channel=0 note=61 velocity=33 time=0
EXTRACT: note_on channel=0 note=53 velocity=0 time=0.7127979041666667
EXTRACT: note_on channel=0 note=58 velocity=0 time=0
EXTRACT: note_on channel=0 note=61 velocity=0 time=0
EXTRACT: note_on channel=0 note=53 velocity=33 time=0.0014880958333333334
EXTRACT: note_on channel=0 note=58 velocity=33 time=0
EXTRACT: note_on channel=0 note=61 velocity=33 time=0
EXTRACT: note_on channel=0 note=46 velocity=0 time=0.4985121041666667
EXTRACT: note_on channel=0 note=68 velocity=49 time=0.03720239583333333
EXTRACT: note_on channel=0 note=53 velocity=0 time=0.17708340416666668
EXTRACT: note_on channel=0 note=58 velocity=0 time=0
EXTRACT: note_on channel=0 note=61 velocity=0 time=0
EXTRACT: note_on channel=0 note=68 velocity=0 time=0
EXTRACT: note_on channel=0 note=77 velocity=49 time=0.0014880958333333334
EXTRACT: note_on channel=0 note=63 velocity=49 time=0
EXTRACT: note_on channel=0 note=49 velocity=49 time=0
EXTRACT: note_on channel=0 note=56 velocity=49 time=0
EXTRACT: note_on channel=0 note=63 velocity=0 time=0.062500025
EXTRACT: note_on channel=0 note=65 velocity=49 time=0.0014880958333333334
EXTRACT: note_on channel=0 note=65 velocity=0 time=0.29017868750000003
EXTRACT: note_on channel=0 note=77 velocity=0 time=0.0014880958333333334
EXTRACT: note_on channel=0 note=75 velocity=49 time=0.0014880958333333334
EXTRACT: note_on channel=0 note=63 velocity=49 time=0
EXTRACT: note_on channel=0 note=49 velocity=0 time=0.3199406041666667
EXTRACT: note_on channel=0 note=56 velocity=0 time=0
EXTRACT: note_on channel=0 note=75 velocity=0 time=0.035714300000000004
EXTRACT: note_on channel=0 note=63 velocity=0 time=0
EXTRACT: note_on channel=0 note=80 velocity=49 time=0.0014880958333333334
EXTRACT: note_on channel=0 note=56 velocity=49 time=0
EXTRACT: note_on channel=0 note=42 velocity=49 time=0
EXTRACT: note_on channel=0 note=49 velocity=49 time=0
EXTRACT: note_on channel=0 note=56 velocity=0 time=0.062500025
EXTRACT: note_on channel=0 note=58 velocity=49 time=0.0014880958333333334
EXTRACT: note_on channel=0 note=58 velocity=0 time=0.29017868750000003
EXTRACT: note_on channel=0 note=80 velocity=0 time=0.0014880958333333334
EXTRACT: note_on channel=0 note=68 velocity=49 time=0.0014880958333333334
EXTRACT: note_on channel=0 note=56 velocity=49 time=0
EXTRACT: note_on channel=0 note=68 velocity=0 time=0.17708340416666668
EXTRACT: note_on channel=0 note=73 velocity=49 time=0.0014880958333333334
EXTRACT: note_on channel=0 note=42 velocity=0 time=0.14136910416666668
EXTRACT: note_on channel=0 note=49 velocity=0 time=0
EXTRACT: note_on channel=0 note=56 velocity=0 time=0.035714300000000004
EXTRACT: note_on channel=0 note=73 velocity=0 time=0
EXTRACT: note_on channel=0 note=73 velocity=33 time=0
EXTRACT: note_on channel=0 note=58 velocity=33 time=0
EXTRACT: note_on channel=0 note=61 velocity=33 time=0
EXTRACT: note_on channel=0 note=53 velocity=33 time=0
EXTRACT: note_on channel=0 note=46 velocity=33 time=0
EXTRACT: note_on channel=0 note=53 velocity=0 time=0.6770836041666667
EXTRACT: note_on channel=0 note=73 velocity=0 time=0.035714300000000004
EXTRACT: note_on channel=0 note=58 velocity=0 time=0
EXTRACT: note_on channel=0 note=61 velocity=0 time=0
EXTRACT: note_on channel=0 note=58 velocity=35 time=0.0014880958333333334
EXTRACT: note_on channel=0 note=61 velocity=35 time=0
EXTRACT: note_on channel=0 note=53 velocity=35 time=0
EXTRACT: note_on channel=0 note=53 velocity=0 time=0.6770836041666667
EXTRACT: note_on channel=0 note=58 velocity=0 time=0.035714300000000004
EXTRACT: note_on channel=0 note=61 velocity=0 time=0
EXTRACT: note_on channel=0 note=58 velocity=38 time=0.0014880958333333334
EXTRACT: note_on channel=0 note=61 velocity=38 time=0
EXTRACT: note_on channel=0 note=53 velocity=38 time=0
EXTRACT: note_on channel=0 note=53 velocity=0 time=0.6770836041666667
EXTRACT: note_on channel=0 note=58 velocity=0 time=0.035714300000000004
EXTRACT: note_on channel=0 note=61 velocity=0 time=0
EXTRACT: note_on channel=0 note=58 velocity=41 time=0.0014880958333333334
EXTRACT: note_on channel=0 note=61 velocity=41 time=0
EXTRACT: note_on channel=0 note=53 velocity=41 time=0
EXTRACT: note_on channel=0 note=53 velocity=0 time=0.6770836041666667
EXTRACT: note_on channel=0 note=58 velocity=0 time=0.035714300000000004
EXTRACT: note_on channel=0 note=61 velocity=0 time=0
EXTRACT: note_on channel=0 note=58 velocity=44 time=0.0014880958333333334
EXTRACT: note_on channel=0 note=61 velocity=44 time=0
EXTRACT: note_on channel=0 note=53 velocity=44 time=0
EXTRACT: note_on channel=0 note=53 velocity=0 time=0.6770836041666667
EXTRACT: note_on channel=0 note=58 velocity=0 time=0.035714300000000004
EXTRACT: note_on channel=0 note=61 velocity=0 time=0
EXTRACT: note_on channel=0 note=58 velocity=46 time=0.0014880958333333334
EXTRACT: note_on channel=0 note=61 velocity=46 time=0
EXTRACT: note_on channel=0 note=53 velocity=46 time=0
EXTRACT: note_on channel=0 note=46 velocity=0 time=0.4985121041666667
EXTRACT: note_on channel=0 note=68 velocity=49 time=0.03720239583333333
EXTRACT: note_on channel=0 note=53 velocity=0 time=0.14136910416666668
EXTRACT: note_on channel=0 note=58 velocity=0 time=0.035714300000000004
EXTRACT: note_on channel=0 note=61 velocity=0 time=0
EXTRACT: note_on channel=0 note=68 velocity=0 time=0
EXTRACT: note_on channel=0 note=77 velocity=49 time=0.0014880958333333334
EXTRACT: note_on channel=0 note=63 velocity=49 time=0
EXTRACT: note_on channel=0 note=49 velocity=49 time=0
EXTRACT: note_on channel=0 note=56 velocity=49 time=0
EXTRACT: note_on channel=0 note=63 velocity=0 time=0.062500025
EXTRACT: note_on channel=0 note=65 velocity=49 time=0.0014880958333333334
EXTRACT: note_on channel=0 note=65 velocity=0 time=0.29017868750000003
EXTRACT: note_on channel=0 note=77 velocity=0 time=0.0014880958333333334
EXTRACT: note_on channel=0 note=75 velocity=49 time=0.0014880958333333334
EXTRACT: note_on channel=0 note=63 velocity=49 time=0
EXTRACT: note_on channel=0 note=49 velocity=0 time=0.3199406041666667
EXTRACT: note_on channel=0 note=56 velocity=0 time=0
EXTRACT: note_on channel=0 note=75 velocity=0 time=0.035714300000000004
EXTRACT: note_on channel=0 note=63 velocity=0 time=0
EXTRACT: note_on channel=0 note=70 velocity=49 time=0.0014880958333333334
EXTRACT: note_on channel=0 note=56 velocity=49 time=0
EXTRACT: note_on channel=0 note=42 velocity=49 time=0
EXTRACT: note_on channel=0 note=49 velocity=49 time=0
EXTRACT: note_on channel=0 note=56 velocity=0 time=0.062500025
EXTRACT: note_on channel=0 note=58 velocity=49 time=0.0014880958333333334
EXTRACT: note_on channel=0 note=58 velocity=0 time=0.29017868750000003
EXTRACT: note_on channel=0 note=56 velocity=49 time=0.0029761916666666667
EXTRACT: note_on channel=0 note=70 velocity=0 time=0.17708340416666668
EXTRACT: note_on channel=0 note=68 velocity=49 time=0.0014880958333333334
EXTRACT: note_on channel=0 note=42 velocity=0 time=0.14136910416666668
EXTRACT: note_on channel=0 note=49 velocity=0 time=0
EXTRACT: note_on channel=0 note=56 velocity=0 time=0.035714300000000004
EXTRACT: note_on channel=0 note=68 velocity=0 time=0
EXTRACT: note_on channel=0 note=73 velocity=33 time=0.0014880958333333334
EXTRACT: note_on channel=0 note=58 velocity=33 time=0
EXTRACT: note_on channel=0 note=61 velocity=33 time=0
EXTRACT: note_on channel=0 note=53 velocity=33 time=0
EXTRACT: note_on channel=0 note=46 velocity=33 time=0
EXTRACT: note_on channel=0 note=53 velocity=0 time=0.6770836041666667
EXTRACT: note_on channel=0 note=73 velocity=0 time=0.035714300000000004
EXTRACT: note_on channel=0 note=58 velocity=0 time=0
EXTRACT: note_on channel=0 note=61 velocity=0 time=0
EXTRACT: note_on channel=0 note=58 velocity=33 time=0.0014880958333333334
EXTRACT: note_on channel=0 note=61 velocity=33 time=0
EXTRACT: note_on channel=0 note=53 velocity=33 time=0
EXTRACT: note_on channel=0 note=53 velocity=0 time=0.6770836041666667
EXTRACT: note_on channel=0 note=58 velocity=0 time=0.035714300000000004
EXTRACT: note_on channel=0 note=61 velocity=0 time=0
EXTRACT: note_on channel=0 note=58 velocity=36 time=0.0014880958333333334
EXTRACT: note_on channel=0 note=61 velocity=36 time=0
EXTRACT: note_on channel=0 note=53 velocity=36 time=0
EXTRACT: note_on channel=0 note=53 velocity=0 time=0.6770836041666667
EXTRACT: note_on channel=0 note=58 velocity=0 time=0.035714300000000004
EXTRACT: note_on channel=0 note=61 velocity=0 time=0
EXTRACT: note_on channel=0 note=58 velocity=39 time=0.0014880958333333334
EXTRACT: note_on channel=0 note=61 velocity=39 time=0
EXTRACT: note_on channel=0 note=53 velocity=39 time=0
EXTRACT: note_on channel=0 note=53 velocity=0 time=0.6770836041666667
EXTRACT: note_on channel=0 note=58 velocity=0 time=0.035714300000000004
EXTRACT: note_on channel=0 note=61 velocity=0 time=0
EXTRACT: note_on channel=0 note=58 velocity=43 time=0.0014880958333333334
EXTRACT: note_on channel=0 note=61 velocity=43 time=0
EXTRACT: note_on channel=0 note=53 velocity=43 time=0
EXTRACT: note_on channel=0 note=53 velocity=0 time=0.6770836041666667
EXTRACT: note_on channel=0 note=58 velocity=0 time=0.035714300000000004
EXTRACT: note_on channel=0 note=61 velocity=0 time=0
EXTRACT: note_on channel=0 note=58 velocity=46 time=0.0014880958333333334
EXTRACT: note_on channel=0 note=61 velocity=46 time=0
EXTRACT: note_on channel=0 note=53 velocity=46 time=0
EXTRACT: note_on channel=0 note=46 velocity=0 time=0.4985121041666667
EXTRACT: note_on channel=0 note=68 velocity=49 time=0.03720239583333333
EXTRACT: note_on channel=0 note=53 velocity=0 time=0.14136910416666668
EXTRACT: note_on channel=0 note=58 velocity=0 time=0.035714300000000004
EXTRACT: note_on channel=0 note=61 velocity=0 time=0
EXTRACT: note_on channel=0 note=68 velocity=0 time=0
EXTRACT: note_on channel=0 note=73 velocity=49 time=0.0014880958333333334
EXTRACT: note_on channel=0 note=60 velocity=49 time=0
EXTRACT: note_on channel=0 note=49 velocity=49 time=0
EXTRACT: note_on channel=0 note=56 velocity=49 time=0
EXTRACT: note_on channel=0 note=60 velocity=0 time=0.062500025
EXTRACT: note_on channel=0 note=61 velocity=49 time=0.0014880958333333334
EXTRACT: note_on channel=0 note=61 velocity=0 time=0.29017868750000003
EXTRACT: note_on channel=0 note=73 velocity=0 time=0.0014880958333333334
EXTRACT: note_on channel=0 note=72 velocity=49 time=0.0014880958333333334
EXTRACT: note_on channel=0 note=60 velocity=49 time=0
EXTRACT: note_on channel=0 note=49 velocity=0 time=0.3199406041666667
EXTRACT: note_on channel=0 note=56 velocity=0 time=0
EXTRACT: note_on channel=0 note=72 velocity=0 time=0.035714300000000004
EXTRACT: note_on channel=0 note=60 velocity=0 time=0
EXTRACT: note_on channel=0 note=70 velocity=49 time=0.0014880958333333334
EXTRACT: note_on channel=0 note=56 velocity=49 time=0
EXTRACT: note_on channel=0 note=42 velocity=49 time=0
EXTRACT: note_on channel=0 note=49 velocity=49 time=0
EXTRACT: note_on channel=0 note=56 velocity=0 time=0.062500025
EXTRACT: note_on channel=0 note=58 velocity=49 time=0.0014880958333333334
EXTRACT: note_on channel=0 note=58 velocity=0 time=0.29017868750000003
EXTRACT: note_on channel=0 note=70 velocity=0 time=0.0014880958333333334
EXTRACT: note_on channel=0 note=68 velocity=49 time=0.0014880958333333334
EXTRACT: note_on channel=0 note=56 velocity=49 time=0
EXTRACT: note_on channel=0 note=42 velocity=0 time=0.3199406041666667
EXTRACT: note_on channel=0 note=49 velocity=0 time=0
EXTRACT: note_on channel=0 note=68 velocity=0 time=0.035714300000000004
EXTRACT: note_on channel=0 note=56 velocity=0 time=0
EXTRACT: note_on channel=0 note=68 velocity=49 time=0.0014880958333333334
EXTRACT: note_on channel=0 note=49 velocity=49 time=0
EXTRACT: note_on channel=0 note=53 velocity=49 time=0
EXTRACT: note_on channel=0 note=37 velocity=49 time=0
EXTRACT: note_on channel=0 note=44 velocity=49 time=0
EXTRACT: note_on channel=0 note=68 velocity=0 time=0.3556549041666667
EXTRACT: note_on channel=0 note=70 velocity=49 time=0.0014880958333333334
EXTRACT: note_on channel=0 note=49 velocity=0 time=0.3556549041666667
EXTRACT: note_on channel=0 note=53 velocity=0 time=0
EXTRACT: note_on channel=0 note=70 velocity=0 time=0
EXTRACT: note_on channel=0 note=65 velocity=47 time=0.0014880958333333334
EXTRACT: note_on channel=0 note=49 velocity=47 time=0
EXTRACT: note_on channel=0 note=53 velocity=47 time=0
EXTRACT: note_on channel=0 note=65 velocity=0 time=0.7127979041666667
EXTRACT: note_on channel=0 note=49 velocity=0 time=0
EXTRACT: note_on channel=0 note=53 velocity=0 time=0
EXTRACT: note_on channel=0 note=49 velocity=43 time=0.0014880958333333334
EXTRACT: note_on channel=0 note=53 velocity=43 time=0
EXTRACT: note_on channel=0 note=49 velocity=0 time=0.7127979041666667
EXTRACT: note_on channel=0 note=53 velocity=0 time=0
EXTRACT: note_on channel=0 note=49 velocity=38 time=0.0014880958333333334
EXTRACT: note_on channel=0 note=53 velocity=38 time=0
EXTRACT: note_on channel=0 note=49 velocity=0 time=0.7127979041666667
EXTRACT: note_on channel=0 note=53 velocity=0 time=0
EXTRACT: note_on channel=0 note=49 velocity=33 time=0.0014880958333333334
EXTRACT: note_on channel=0 note=53 velocity=33 time=0
EXTRACT: note_on channel=0 note=49 velocity=0 time=0.7127979041666667
EXTRACT: note_on channel=0 note=53 velocity=0 time=0
EXTRACT: note_on channel=0 note=49 velocity=33 time=0.0014880958333333334
EXTRACT: note_on channel=0 note=53 velocity=33 time=0
EXTRACT: note_on channel=0 note=49 velocity=0 time=0.3556549041666667
EXTRACT: note_on channel=0 note=53 velocity=0 time=0
EXTRACT: note_on channel=0 note=63 velocity=33 time=0.0014880958333333334
EXTRACT: note_on channel=0 note=51 velocity=33 time=0
EXTRACT: note_on channel=0 note=37 velocity=0 time=0.14136910416666668
EXTRACT: note_on channel=0 note=44 velocity=0 time=0
EXTRACT: note_on channel=0 note=63 velocity=0 time=0.035714300000000004
EXTRACT: note_on channel=0 note=51 velocity=0 time=0
EXTRACT: note_on channel=0 note=65 velocity=33 time=0.0014880958333333334
EXTRACT: note_on channel=0 note=53 velocity=33 time=0
EXTRACT: note_on channel=0 note=65 velocity=0 time=0.17708340416666668
EXTRACT: note_on channel=0 note=53 velocity=0 time=0
EXTRACT: note_on channel=0 note=66 velocity=33 time=0.0014880958333333334
EXTRACT: note_on channel=0 note=54 velocity=33 time=0
EXTRACT: note_on channel=0 note=42 velocity=33 time=0
EXTRACT: note_on channel=0 note=49 velocity=33 time=0
EXTRACT: note_on channel=0 note=66 velocity=0 time=0.3556549041666667
EXTRACT: note_on channel=0 note=54 velocity=0 time=0
EXTRACT: note_on channel=0 note=65 velocity=33 time=0.0014880958333333334
EXTRACT: note_on channel=0 note=53 velocity=33 time=0
EXTRACT: note_on channel=0 note=42 velocity=0 time=0.3199406041666667
EXTRACT: note_on channel=0 note=49 velocity=0 time=0
EXTRACT: note_on channel=0 note=65 velocity=0 time=0.035714300000000004
EXTRACT: note_on channel=0 note=53 velocity=0 time=0
EXTRACT: note_on channel=0 note=63 velocity=33 time=0.0014880958333333334
EXTRACT: note_on channel=0 note=51 velocity=33 time=0
EXTRACT: note_on channel=0 note=44 velocity=33 time=0
EXTRACT: note_on channel=0 note=63 velocity=0 time=0.3556549041666667
EXTRACT: note_on channel=0 note=61 velocity=33 time=0.0014880958333333334
EXTRACT: note_on channel=0 note=61 velocity=0 time=0.17708340416666668
EXTRACT: note_on channel=0 note=61 velocity=33 time=0.0014880958333333334
EXTRACT: note_on channel=0 note=44 velocity=0 time=0.14136910416666668
EXTRACT: note_on channel=0 note=51 velocity=0 time=0.035714300000000004
EXTRACT: note_on channel=0 note=61 velocity=33 time=0
EXTRACT: note_on channel=0 note=53 velocity=33 time=0
EXTRACT: note_on channel=0 note=58 velocity=33 time=0
EXTRACT: note_on channel=0 note=61 velocity=33 time=0
EXTRACT: note_on channel=0 note=46 velocity=33 time=0
EXTRACT: note_on channel=0 note=61 velocity=0 time=0.7127979041666667
EXTRACT: note_on channel=0 note=61 velocity=0 time=0
EXTRACT: note_on channel=0 note=53 velocity=0 time=0
EXTRACT: note_on channel=0 note=58 velocity=0 time=0
EXTRACT: note_on channel=0 note=61 velocity=0 time=0
EXTRACT: note_on channel=0 note=53 velocity=33 time=0.0014880958333333334
EXTRACT: note_on channel=0 note=58 velocity=33 time=0
EXTRACT: note_on channel=0 note=61 velocity=33 time=0
EXTRACT: note_on channel=0 note=53 velocity=0 time=0.7127979041666667
EXTRACT: note_on channel=0 note=58 velocity=0 time=0
EXTRACT: note_on channel=0 note=61 velocity=0 time=0
EXTRACT: note_on channel=0 note=53 velocity=33 time=0.0014880958333333334
EXTRACT: note_on channel=0 note=58 velocity=33 time=0
EXTRACT: note_on channel=0 note=61 velocity=33 time=0
EXTRACT: note_on channel=0 note=53 velocity=0 time=0.7127979041666667
EXTRACT: note_on channel=0 note=58 velocity=0 time=0
EXTRACT: note_on channel=0 note=61 velocity=0 time=0
EXTRACT: note_on channel=0 note=53 velocity=33 time=0.0014880958333333334
EXTRACT: note_on channel=0 note=58 velocity=33 time=0
EXTRACT: note_on channel=0 note=61 velocity=33 time=0
EXTRACT: note_on channel=0 note=53 velocity=0 time=0.7127979041666667
EXTRACT: note_on channel=0 note=58 velocity=0 time=0
EXTRACT: note_on channel=0 note=61 velocity=0 time=0
EXTRACT: note_on channel=0 note=53 velocity=33 time=0.0014880958333333334
EXTRACT: note_on channel=0 note=58 velocity=33 time=0
EXTRACT: note_on channel=0 note=61 velocity=33 time=0
EXTRACT: note_on channel=0 note=75 velocity=80 time=0.357143
EXTRACT: note_on channel=0 note=46 velocity=0 time=0.17708340416666668
EXTRACT: note_on channel=0 note=53 velocity=0 time=0.1785715
EXTRACT: note_on channel=0 note=58 velocity=0 time=0
EXTRACT: note_on channel=0 note=61 velocity=0 time=0
EXTRACT: note_on channel=0 note=75 velocity=0 time=0
EXTRACT: note_on channel=0 note=77 velocity=80 time=0.0014880958333333334
EXTRACT: note_on channel=0 note=56 velocity=80 time=0
EXTRACT: note_on channel=0 note=61 velocity=80 time=0
EXTRACT: note_on channel=0 note=65 velocity=80 time=0
EXTRACT: note_on channel=0 note=37 velocity=80 time=0
EXTRACT: note_on channel=0 note=49 velocity=80 time=0
EXTRACT: note_on channel=0 note=77 velocity=0 time=0.3377977541666667
EXTRACT: note_on channel=0 note=77 velocity=80 time=0.019345245833333333
EXTRACT: note_on channel=0 note=56 velocity=0 time=0.3199406041666667
EXTRACT: note_on channel=0 note=61 velocity=0 time=0
EXTRACT: note_on channel=0 note=65 velocity=0 time=0
EXTRACT: note_on channel=0 note=56 velocity=80 time=0.03720239583333333
EXTRACT: note_on channel=0 note=61 velocity=80 time=0
EXTRACT: note_on channel=0 note=65 velocity=80 time=0
EXTRACT: note_on channel=0 note=77 velocity=0 time=0.6592264541666667
EXTRACT: note_on channel=0 note=56 velocity=0 time=0.017857150000000002
EXTRACT: note_on channel=0 note=61 velocity=0 time=0
EXTRACT: note_on channel=0 note=65 velocity=0 time=0
EXTRACT: note_on channel=0 note=56 velocity=80 time=0.03720239583333333
EXTRACT: note_on channel=0 note=61 velocity=80 time=0
EXTRACT: note_on channel=0 note=65 velocity=80 time=0
EXTRACT: note_on channel=0 note=56 velocity=0 time=0.6770836041666667
EXTRACT: note_on channel=0 note=61 velocity=0 time=0
EXTRACT: note_on channel=0 note=65 velocity=0 time=0
EXTRACT: note_on channel=0 note=56 velocity=80 time=0.03720239583333333
EXTRACT: note_on channel=0 note=61 velocity=80 time=0
EXTRACT: note_on channel=0 note=65 velocity=80 time=0
EXTRACT: note_on channel=0 note=77 velocity=80 time=0.357143
EXTRACT: note_on channel=0 note=77 velocity=0 time=0.16815482916666666
EXTRACT: note_on channel=0 note=77 velocity=80 time=0.010416670833333334
EXTRACT: note_on channel=0 note=37 velocity=0 time=0.03422620416666667
EXTRACT: note_on channel=0 note=49 velocity=0 time=0
EXTRACT: note_on channel=0 note=56 velocity=0 time=0.1071429
EXTRACT: note_on channel=0 note=61 velocity=0 time=0
EXTRACT: note_on channel=0 note=65 velocity=0 time=0
EXTRACT: note_on channel=0 note=58 velocity=80 time=0.03720239583333333
EXTRACT: note_on channel=0 note=61 velocity=80 time=0
EXTRACT: note_on channel=0 note=65 velocity=80 time=0
EXTRACT: note_on channel=0 note=34 velocity=80 time=0
EXTRACT: note_on channel=0 note=46 velocity=80 time=0
EXTRACT: note_on channel=0 note=77 velocity=0 time=0.15922625416666666
EXTRACT: note_on channel=0 note=77 velocity=80 time=0.019345245833333333
EXTRACT: note_on channel=0 note=58 velocity=0 time=0.4985121041666667
EXTRACT: note_on channel=0 note=61 velocity=0 time=0
EXTRACT: note_on channel=0 note=65 velocity=0 time=0
EXTRACT: note_on channel=0 note=77 velocity=0 time=0.008928575000000001
EXTRACT: note_on channel=0 note=58 velocity=80 time=0.028273820833333334
EXTRACT: note_on channel=0 note=61 velocity=80 time=0
EXTRACT: note_on channel=0 note=65 velocity=80 time=0
EXTRACT: note_on channel=0 note=58 velocity=0 time=0.6770836041666667
EXTRACT: note_on channel=0 note=61 velocity=0 time=0
EXTRACT: note_on channel=0 note=65 velocity=0 time=0
EXTRACT: note_on channel=0 note=58 velocity=80 time=0.03720239583333333
EXTRACT: note_on channel=0 note=61 velocity=80 time=0
EXTRACT: note_on channel=0 note=65 velocity=80 time=0
EXTRACT: note_on channel=0 note=58 velocity=0 time=0.6770836041666667
EXTRACT: note_on channel=0 note=61 velocity=0 time=0
EXTRACT: note_on channel=0 note=65 velocity=0 time=0
EXTRACT: note_on channel=0 note=58 velocity=80 time=0.03720239583333333
EXTRACT: note_on channel=0 note=61 velocity=80 time=0
EXTRACT: note_on channel=0 note=65 velocity=80 time=0
EXTRACT: note_on channel=0 note=78 velocity=80 time=0.357143
EXTRACT: note_on channel=0 note=34 velocity=0 time=0.21279770416666668
EXTRACT: note_on channel=0 note=46 velocity=0 time=0
EXTRACT: note_on channel=0 note=58 velocity=0 time=0.1071429
EXTRACT: note_on channel=0 note=61 velocity=0 time=0
EXTRACT: note_on channel=0 note=65 velocity=0 time=0
EXTRACT: note_on channel=0 note=58 velocity=80 time=0.03720239583333333
EXTRACT: note_on channel=0 note=63 velocity=80 time=0
EXTRACT: note_on channel=0 note=66 velocity=80 time=0
EXTRACT: note_on channel=0 note=39 velocity=80 time=0
EXTRACT: note_on channel=0 note=51 velocity=80 time=0
EXTRACT: note_on channel=0 note=78 velocity=0 time=0.6592264541666667
EXTRACT: note_on channel=0 note=58 velocity=0 time=0.017857150000000002
EXTRACT: note_on channel=0 note=63 velocity=0 time=0
EXTRACT: note_on channel=0 note=66 velocity=0 time=0
EXTRACT: note_on channel=0 note=77 velocity=80 time=0.03720239583333333
EXTRACT: note_on channel=0 note=58 velocity=80 time=0
EXTRACT: note_on channel=0 note=63 velocity=80 time=0
EXTRACT: note_on channel=0 note=66 velocity=80 time=0
EXTRACT: note_on channel=0 note=77 velocity=0 time=0.3377977541666667
EXTRACT: note_on channel=0 note=75 velocity=80 time=0.019345245833333333
EXTRACT: note_on channel=0 note=58 velocity=0 time=0.3199406041666667
EXTRACT: note_on channel=0 note=63 velocity=0 time=0
EXTRACT: note_on channel=0 note=66 velocity=0 time=0
EXTRACT: note_on channel=0 note=58 velocity=80 time=0.03720239583333333
EXTRACT: note_on channel=0 note=63 velocity=80 time=0
EXTRACT: note_on channel=0 note=66 velocity=80 time=0
EXTRACT: note_on channel=0 note=75 velocity=0 time=0.6592264541666667
EXTRACT: note_on channel=0 note=58 velocity=0 time=0.017857150000000002
EXTRACT: note_on channel=0 note=63 velocity=0 time=0
EXTRACT: note_on channel=0 note=66 velocity=0 time=0
EXTRACT: note_on channel=0 note=77 velocity=80 time=0.03720239583333333
EXTRACT: note_on channel=0 note=58 velocity=80 time=0
EXTRACT: note_on channel=0 note=63 velocity=80 time=0
EXTRACT: note_on channel=0 note=66 velocity=80 time=0
EXTRACT: note_on channel=0 note=77 velocity=0 time=0.3377977541666667
EXTRACT: note_on channel=0 note=75 velocity=80 time=0.019345245833333333
EXTRACT: note_on channel=0 note=39 velocity=0 time=0.21279770416666668
EXTRACT: note_on channel=0 note=51 velocity=0 time=0
EXTRACT: note_on channel=0 note=58 velocity=0 time=0.1071429
EXTRACT: note_on channel=0 note=63 velocity=0 time=0
EXTRACT: note_on channel=0 note=66 velocity=0 time=0
EXTRACT: note_on channel=0 note=56 velocity=80 time=0.03720239583333333
EXTRACT: note_on channel=0 note=60 velocity=80 time=0
EXTRACT: note_on channel=0 note=63 velocity=80 time=0
EXTRACT: note_on channel=0 note=32 velocity=80 time=0
EXTRACT: note_on channel=0 note=44 velocity=80 time=0
EXTRACT: note_on channel=0 note=75 velocity=0 time=0.6592264541666667
EXTRACT: note_on channel=0 note=56 velocity=0 time=0.017857150000000002
EXTRACT: note_on channel=0 note=60 velocity=0 time=0
EXTRACT: note_on channel=0 note=63 velocity=0 time=0
EXTRACT: note_on channel=0 note=56 velocity=76 time=0.03720239583333333
EXTRACT: note_on channel=0 note=60 velocity=76 time=0
EXTRACT: note_on channel=0 note=63 velocity=76 time=0
EXTRACT: note_on channel=0 note=56 velocity=0 time=0.6770836041666667
EXTRACT: note_on channel=0 note=60 velocity=0 time=0
EXTRACT: note_on channel=0 note=63 velocity=0 time=0
EXTRACT: note_on channel=0 note=54 velocity=72 time=0.03720239583333333
EXTRACT: note_on channel=0 note=56 velocity=72 time=0
EXTRACT: note_on channel=0 note=60 velocity=72 time=0
EXTRACT: note_on channel=0 note=63 velocity=72 time=0
EXTRACT: note_on channel=0 note=73 velocity=69 time=0.5357145
EXTRACT: note_on channel=0 note=54 velocity=0 time=0.14136910416666668
EXTRACT: note_on channel=0 note=56 velocity=0 time=0
EXTRACT: note_on channel=0 note=60 velocity=0 time=0
EXTRACT: note_on channel=0 note=63 velocity=0 time=0
EXTRACT: note_on channel=0 note=73 velocity=0 time=0.026785725
EXTRACT: note_on channel=0 note=73 velocity=68 time=0.010416670833333334
EXTRACT: note_on channel=0 note=54 velocity=68 time=0
EXTRACT: note_on channel=0 note=56 velocity=68 time=0
EXTRACT: note_on channel=0 note=60 velocity=68 time=0
EXTRACT: note_on channel=0 note=63 velocity=68 time=0
EXTRACT: note_on channel=0 note=73 velocity=0 time=0.3377977541666667
EXTRACT: note_on channel=0 note=77 velocity=66 time=0.019345245833333333
EXTRACT: note_on channel=0 note=32 velocity=0 time=0.21279770416666668
EXTRACT: note_on channel=0 note=44 velocity=0 time=0
EXTRACT: note_on channel=0 note=54 velocity=0 time=0.1071429
EXTRACT: note_on channel=0 note=56 velocity=0 time=0
EXTRACT: note_on channel=0 note=60 velocity=0 time=0
EXTRACT: note_on channel=0 note=63 velocity=0 time=0
EXTRACT: note_on channel=0 note=77 velocity=0 time=0.017857150000000002
EXTRACT: note_on channel=0 note=77 velocity=64 time=0.019345245833333333
EXTRACT: note_on channel=0 note=56 velocity=64 time=0
EXTRACT: note_on channel=0 note=61 velocity=64 time=0
EXTRACT: note_on channel=0 note=65 velocity=64 time=0
EXTRACT: note_on channel=0 note=37 velocity=64 time=0
EXTRACT: note_on channel=0 note=49 velocity=64 time=0
EXTRACT: note_on channel=0 note=77 velocity=0 time=0.6770836041666667
EXTRACT: note_on channel=0 note=56 velocity=0 time=0
EXTRACT: note_on channel=0 note=61 velocity=0 time=0
EXTRACT: note_on channel=0 note=65 velocity=0 time=0
EXTRACT: note_on channel=0 note=56 velocity=64 time=0.03720239583333333
EXTRACT: note_on channel=0 note=61 velocity=64 time=0
EXTRACT: note_on channel=0 note=65 velocity=64 time=0
EXTRACT: note_on channel=0 note=56 velocity=0 time=0.6770836041666667
EXTRACT: note_on channel=0 note=61 velocity=0 time=0
EXTRACT: note_on channel=0 note=65 velocity=0 time=0
EXTRACT: note_on channel=0 note=56 velocity=64 time=0.03720239583333333
EXTRACT: note_on channel=0 note=61 velocity=64 time=0
EXTRACT: note_on channel=0 note=65 velocity=64 time=0
EXTRACT: note_on channel=0 note=75 velocity=64 time=0.5357145
EXTRACT: note_on channel=0 note=56 velocity=0 time=0.14136910416666668
EXTRACT: note_on channel=0 note=61 velocity=0 time=0
EXTRACT: note_on channel=0 note=65 velocity=0 time=0
EXTRACT: note_on channel=0 note=75 velocity=0 time=0.026785725
EXTRACT: note_on channel=0 note=73 velocity=64 time=0.010416670833333334
EXTRACT: note_on channel=0 note=56 velocity=64 time=0
EXTRACT: note_on channel=0 note=61 velocity=64 time=0
EXTRACT: note_on channel=0 note=65 velocity=64 time=0
EXTRACT: note_on channel=0 note=73 velocity=0 time=0.3377977541666667
EXTRACT: note_on channel=0 note=77 velocity=64 time=0.019345245833333333
EXTRACT: note_on channel=0 note=37 velocity=0 time=0.21279770416666668
EXTRACT: note_on channel=0 note=49 velocity=0 time=0
EXTRACT: note_on channel=0 note=56 velocity=0 time=0.1071429
EXTRACT: note_on channel=0 note=61 velocity=0 time=0
EXTRACT: note_on channel=0 note=65 velocity=0 time=0
EXTRACT: note_on channel=0 note=77 velocity=0 time=0.017857150000000002
EXTRACT: note_on channel=0 note=77 velocity=64 time=0.019345245833333333
EXTRACT: note_on channel=0 note=58 velocity=64 time=0
EXTRACT: note_on channel=0 note=61 velocity=64 time=0
EXTRACT: note_on channel=0 note=65 velocity=64 time=0
EXTRACT: note_on channel=0 note=34 velocity=64 time=0
EXTRACT: note_on channel=0 note=46 velocity=64 time=0
EXTRACT: note_on channel=0 note=77 velocity=0 time=0.6770836041666667
EXTRACT: note_on channel=0 note=58 velocity=0 time=0
EXTRACT: note_on channel=0 note=61 velocity=0 time=0
EXTRACT: note_on channel=0 note=65 velocity=0 time=0
EXTRACT: note_on channel=0 note=58 velocity=64 time=0.03720239583333333
EXTRACT: note_on channel=0 note=61 velocity=64 time=0
EXTRACT: note_on channel=0 note=65 velocity=64 time=0
EXTRACT: note_on channel=0 note=58 velocity=0 time=0.6770836041666667
EXTRACT: note_on channel=0 note=61 velocity=0 time=0
EXTRACT: note_on channel=0 note=65 velocity=0 time=0
EXTRACT: note_on channel=0 note=58 velocity=64 time=0.03720239583333333
EXTRACT: note_on channel=0 note=61 velocity=64 time=0
EXTRACT: note_on channel=0 note=65 velocity=64 time=0
EXTRACT: note_on channel=0 note=58 velocity=0 time=0.6770836041666667
EXTRACT: note_on channel=0 note=61 velocity=0 time=0
EXTRACT: note_on channel=0 note=65 velocity=0 time=0
EXTRACT: note_on channel=0 note=73 velocity=64 time=0.03720239583333333
EXTRACT: note_on channel=0 note=58 velocity=64 time=0
EXTRACT: note_on channel=0 note=61 velocity=64 time=0
EXTRACT: note_on channel=0 note=65 velocity=64 time=0
EXTRACT: note_on channel=0 note=73 velocity=0 time=0.3377977541666667
EXTRACT: note_on channel=0 note=78 velocity=64 time=0.019345245833333333
EXTRACT: note_on channel=0 note=34 velocity=0 time=0.21279770416666668
EXTRACT: note_on channel=0 note=46 velocity=0 time=0
EXTRACT: note_on channel=0 note=58 velocity=0 time=0.1071429
EXTRACT: note_on channel=0 note=61 velocity=0 time=0
EXTRACT: note_on channel=0 note=65 velocity=0 time=0
EXTRACT: note_on channel=0 note=58 velocity=64 time=0.03720239583333333
EXTRACT: note_on channel=0 note=63 velocity=64 time=0
EXTRACT: note_on channel=0 note=66 velocity=64 time=0
EXTRACT: note_on channel=0 note=39 velocity=64 time=0
EXTRACT: note_on channel=0 note=51 velocity=64 time=0
EXTRACT: note_on channel=0 note=78 velocity=0 time=0.3199406041666667
EXTRACT: note_on channel=0 note=77 velocity=64 time=0.03720239583333333
EXTRACT: note_on channel=0 note=58 velocity=0 time=0.3199406041666667
EXTRACT: note_on channel=0 note=63 velocity=0 time=0
EXTRACT: note_on channel=0 note=66 velocity=0 time=0
EXTRACT: note_on channel=0 note=58 velocity=64 time=0.03720239583333333
EXTRACT: note_on channel=0 note=63 velocity=64 time=0
EXTRACT: note_on channel=0 note=66 velocity=64 time=0
EXTRACT: note_on channel=0 note=77 velocity=0 time=0.3199406041666667
EXTRACT: note_on channel=0 note=75 velocity=64 time=0.03720239583333333
EXTRACT: note_on channel=0 note=58 velocity=0 time=0.3199406041666667
EXTRACT: note_on channel=0 note=63 velocity=0 time=0
EXTRACT: note_on channel=0 note=66 velocity=0 time=0
EXTRACT: note_on channel=0 note=58 velocity=64 time=0.03720239583333333
EXTRACT: note_on channel=0 note=63 velocity=64 time=0
EXTRACT: note_on channel=0 note=66 velocity=64 time=0
EXTRACT: note_on channel=0 note=75 velocity=0 time=0.3199406041666667
EXTRACT: note_on channel=0 note=77 velocity=64 time=0.03720239583333333
EXTRACT: note_on channel=0 note=58 velocity=0 time=0.3199406041666667
EXTRACT: note_on channel=0 note=63 velocity=0 time=0
EXTRACT: note_on channel=0 note=66 velocity=0 time=0
EXTRACT: note_on channel=0 note=58 velocity=64 time=0.03720239583333333
EXTRACT: note_on channel=0 note=63 velocity=64 time=0
EXTRACT: note_on channel=0 note=66 velocity=64 time=0
EXTRACT: note_on channel=0 note=77 velocity=0 time=0.3199406041666667
EXTRACT: note_on channel=0 note=75 velocity=64 time=0.03720239583333333
EXTRACT: note_on channel=0 note=39 velocity=0 time=0.21279770416666668
EXTRACT: note_on channel=0 note=51 velocity=0 time=0
EXTRACT: note_on channel=0 note=58 velocity=0 time=0.1071429
EXTRACT: note_on channel=0 note=63 velocity=0 time=0
EXTRACT: note_on channel=0 note=66 velocity=0 time=0
EXTRACT: note_on channel=0 note=56 velocity=64 time=0.03720239583333333
EXTRACT: note_on channel=0 note=60 velocity=64 time=0
EXTRACT: note_on channel=0 note=63 velocity=64 time=0
EXTRACT: note_on channel=0 note=68 velocity=64 time=0
EXTRACT: note_on channel=0 note=32 velocity=64 time=0
EXTRACT: note_on channel=0 note=44 velocity=64 time=0
EXTRACT: note_on channel=0 note=75 velocity=0 time=0.6592264541666667
EXTRACT: note_on channel=0 note=56 velocity=0 time=0.017857150000000002
EXTRACT: note_on channel=0 note=60 velocity=0 time=0
EXTRACT: note_on channel=0 note=63 velocity=0 time=0
EXTRACT: note_on channel=0 note=68 velocity=0 time=0
EXTRACT: note_on channel=0 note=56 velocity=72 time=0.03720239583333333
EXTRACT: note_on channel=0 note=60 velocity=72 time=0
EXTRACT: note_on channel=0 note=63 velocity=72 time=0
EXTRACT: note_on channel=0 note=68 velocity=72 time=0
EXTRACT: note_on channel=0 note=68 velocity=76 time=0.357143
EXTRACT: note_on channel=0 note=68 velocity=0 time=0.16815482916666666
EXTRACT: note_on channel=0 note=68 velocity=78 time=0.010416670833333334
EXTRACT: note_on channel=0 note=56 velocity=0 time=0.14136910416666668
EXTRACT: note_on channel=0 note=60 velocity=0 time=0
EXTRACT: note_on channel=0 note=63 velocity=0 time=0
EXTRACT: note_on channel=0 note=68 velocity=0 time=0
EXTRACT: note_on channel=0 note=68 velocity=0 time=0.026785725
EXTRACT: note_on channel=0 note=77 velocity=80 time=0.010416670833333334
EXTRACT: note_on channel=0 note=56 velocity=80 time=0
EXTRACT: note_on channel=0 note=60 velocity=80 time=0
EXTRACT: note_on channel=0 note=63 velocity=80 time=0
EXTRACT: note_on channel=0 note=68 velocity=80 time=0
EXTRACT: note_on channel=0 note=77 velocity=0 time=0.3377977541666667
EXTRACT: note_on channel=0 note=75 velocity=84 time=0.019345245833333333
EXTRACT: note_on channel=0 note=56 velocity=0 time=0.3199406041666667
EXTRACT: note_on channel=0 note=60 velocity=0 time=0
EXTRACT: note_on channel=0 note=63 velocity=0 time=0
EXTRACT: note_on channel=0 note=68 velocity=0 time=0
EXTRACT: note_on channel=0 note=75 velocity=0 time=0.017857150000000002
EXTRACT: note_on channel=0 note=73 velocity=88 time=0.019345245833333333
EXTRACT: note_on channel=0 note=56 velocity=88 time=0
EXTRACT: note_on channel=0 note=60 velocity=88 time=0
EXTRACT: note_on channel=0 note=63 velocity=88 time=0
EXTRACT: note_on channel=0 note=68 velocity=88 time=0
EXTRACT: note_on channel=0 note=73 velocity=0 time=0.3377977541666667
EXTRACT: note_on channel=0 note=72 velocity=92 time=0.019345245833333333
EXTRACT: note_on channel=0 note=32 velocity=0 time=0.21279770416666668
EXTRACT: note_on channel=0 note=44 velocity=0 time=0
EXTRACT: note_on channel=0 note=56 velocity=0 time=0.1071429
EXTRACT: note_on channel=0 note=60 velocity=0 time=0
EXTRACT: note_on channel=0 note=63 velocity=0 time=0
EXTRACT: note_on channel=0 note=68 velocity=0 time=0
EXTRACT: note_on channel=0 note=72 velocity=0 time=0.017857150000000002
EXTRACT: note_on channel=0 note=72 velocity=96 time=0.019345245833333333
EXTRACT: note_on channel=0 note=54 velocity=96 time=0
EXTRACT: note_on channel=0 note=58 velocity=96 time=0
EXTRACT: note_on channel=0 note=61 velocity=96 time=0
EXTRACT: note_on channel=0 note=30 velocity=96 time=0
EXTRACT: note_on channel=0 note=42 velocity=96 time=0
EXTRACT: note_on channel=0 note=72 velocity=0 time=0.3377977541666667
EXTRACT: note_on channel=0 note=73 velocity=96 time=0.019345245833333333
EXTRACT: note_on channel=0 note=54 velocity=0 time=0.3199406041666667
EXTRACT: note_on channel=0 note=58 velocity=0 time=0
EXTRACT: note_on channel=0 note=61 velocity=0 time=0
EXTRACT: note_on channel=0 note=73 velocity=0 time=0.017857150000000002
EXTRACT: note_on channel=0 note=54 velocity=96 time=0.019345245833333333
EXTRACT: note_on channel=0 note=58 velocity=96 time=0
EXTRACT: note_on channel=0 note=61 velocity=96 time=0
EXTRACT: note_on channel=0 note=54 velocity=0 time=0.6770836041666667
EXTRACT: note_on channel=0 note=58 velocity=0 time=0
EXTRACT: note_on channel=0 note=61 velocity=0 time=0
EXTRACT: note_on channel=0 note=72 velocity=96 time=0.03720239583333333
EXTRACT: note_on channel=0 note=54 velocity=96 time=0
EXTRACT: note_on channel=0 note=58 velocity=96 time=0
EXTRACT: note_on channel=0 note=61 velocity=96 time=0
EXTRACT: note_on channel=0 note=72 velocity=0 time=0.3377977541666667
EXTRACT: note_on channel=0 note=73 velocity=96 time=0.019345245833333333
EXTRACT: note_on channel=0 note=54 velocity=0 time=0.3199406041666667
EXTRACT: note_on channel=0 note=58 velocity=0 time=0
EXTRACT: note_on channel=0 note=61 velocity=0 time=0
EXTRACT: note_on channel=0 note=73 velocity=0 time=0.017857150000000002
EXTRACT: note_on channel=0 note=54 velocity=96 time=0.019345245833333333
EXTRACT: note_on channel=0 note=58 velocity=96 time=0
EXTRACT: note_on channel=0 note=61 velocity=96 time=0
EXTRACT: note_on channel=0 note=30 velocity=0 time=0.5699407041666666
EXTRACT: note_on channel=0 note=42 velocity=0 time=0
EXTRACT: note_on channel=0 note=54 velocity=0 time=0.1071429
EXTRACT: note_on channel=0 note=58 velocity=0 time=0
EXTRACT: note_on channel=0 note=61 velocity=0 time=0
EXTRACT: note_on channel=0 note=72 velocity=96 time=0.03720239583333333
EXTRACT: note_on channel=0 note=58 velocity=96 time=0
EXTRACT: note_on channel=0 note=61 velocity=96 time=0
EXTRACT: note_on channel=0 note=65 velocity=96 time=0
EXTRACT: note_on channel=0 note=34 velocity=96 time=0
EXTRACT: note_on channel=0 note=46 velocity=96 time=0
EXTRACT: note_on channel=0 note=72 velocity=0 time=0.3377977541666667
EXTRACT: note_on channel=0 note=73 velocity=96 time=0.019345245833333333
EXTRACT: note_on channel=0 note=58 velocity=0 time=0.3199406041666667
EXTRACT: note_on channel=0 note=61 velocity=0 time=0
EXTRACT: note_on channel=0 note=65 velocity=0 time=0
EXTRACT: note_on channel=0 note=58 velocity=96 time=0.03720239583333333
EXTRACT: note_on channel=0 note=61 velocity=96 time=0
EXTRACT: note_on channel=0 note=65 velocity=96 time=0
EXTRACT: note_on channel=0 note=73 velocity=0 time=0.3199406041666667
EXTRACT: note_on channel=0 note=73 velocity=96 time=0.03720239583333333
EXTRACT: note_on channel=0 note=58 velocity=0 time=0.3199406041666667
EXTRACT: note_on channel=0 note=61 velocity=0 time=0
EXTRACT: note_on channel=0 note=65 velocity=0 time=0
EXTRACT: note_on channel=0 note=58 velocity=96 time=0.03720239583333333
EXTRACT: note_on channel=0 note=61 velocity=96 time=0
EXTRACT: note_on channel=0 note=65 velocity=96 time=0
EXTRACT: note_on channel=0 note=73 velocity=0 time=0.6592264541666667
EXTRACT: note_on channel=0 note=58 velocity=0 time=0.017857150000000002
EXTRACT: note_on channel=0 note=61 velocity=0 time=0
EXTRACT: note_on channel=0 note=65 velocity=0 time=0
EXTRACT: note_on channel=0 note=68 velocity=96 time=0.03720239583333333
EXTRACT: note_on channel=0 note=58 velocity=96 time=0
EXTRACT: note_on channel=0 note=61 velocity=96 time=0
EXTRACT: note_on channel=0 note=65 velocity=96 time=0
EXTRACT: note_on channel=0 note=34 velocity=0 time=0.5699407041666666
EXTRACT: note_on channel=0 note=46 velocity=0 time=0
EXTRACT: note_on channel=0 note=68 velocity=0 time=0.1071429
EXTRACT: note_on channel=0 note=58 velocity=0 time=0
EXTRACT: note_on channel=0 note=61 velocity=0 time=0
EXTRACT: note_on channel=0 note=65 velocity=0 time=0
EXTRACT: note_on channel=0 note=56 velocity=64 time=0.03720239583333333
EXTRACT: note_on channel=0 note=61 velocity=64 time=0
EXTRACT: note_on channel=0 note=65 velocity=64 time=0
EXTRACT: note_on channel=0 note=37 velocity=64 time=0
EXTRACT: note_on channel=0 note=49 velocity=64 time=0
EXTRACT: note_on channel=0 note=56 velocity=0 time=0.6770836041666667
EXTRACT: note_on channel=0 note=61 velocity=0 time=0
EXTRACT: note_on channel=0 note=65 velocity=0 time=0
EXTRACT: note_on channel=0 note=73 velocity=64 time=0.03720239583333333
EXTRACT: note_on channel=0 note=56 velocity=64 time=0
EXTRACT: note_on channel=0 note=61 velocity=64 time=0
EXTRACT: note_on channel=0 note=65 velocity=64 time=0
EXTRACT: note_on channel=0 note=73 velocity=0 time=0.3377977541666667
EXTRACT: note_on channel=0 note=73 velocity=64 time=0.019345245833333333
EXTRACT: note_on channel=0 note=56 velocity=0 time=0.3199406041666667
EXTRACT: note_on channel=0 note=61 velocity=0 time=0
EXTRACT: note_on channel=0 note=65 velocity=0 time=0
EXTRACT: note_on channel=0 note=56 velocity=64 time=0.03720239583333333
EXTRACT: note_on channel=0 note=61 velocity=64 time=0
EXTRACT: note_on channel=0 note=65 velocity=64 time=0
EXTRACT: note_on channel=0 note=73 velocity=0 time=0.3199406041666667
EXTRACT: note_on channel=0 note=68 velocity=64 time=0.03720239583333333
EXTRACT: note_on channel=0 note=56 velocity=0 time=0.3199406041666667
EXTRACT: note_on channel=0 note=61 velocity=0 time=0
EXTRACT: note_on channel=0 note=65 velocity=0 time=0
EXTRACT: note_on channel=0 note=68 velocity=0 time=0.017857150000000002
EXTRACT: note_on channel=0 note=68 velocity=64 time=0.019345245833333333
EXTRACT: note_on channel=0 note=56 velocity=64 time=0
EXTRACT: note_on channel=0 note=61 velocity=64 time=0
EXTRACT: note_on channel=0 note=65 velocity=64 time=0
EXTRACT: note_on channel=0 note=68 velocity=0 time=0.16815482916666666
EXTRACT: note_on channel=0 note=65 velocity=64 time=0.010416670833333334
EXTRACT: note_on channel=0 note=65 velocity=0 time=0.16815482916666666
EXTRACT: note_on channel=0 note=66 velocity=64 time=0.010416670833333334
EXTRACT: note_on channel=0 note=37 velocity=0 time=0.21279770416666668
EXTRACT: note_on channel=0 note=49 velocity=0 time=0
EXTRACT: note_on channel=0 note=56 velocity=0 time=0.1071429
EXTRACT: note_on channel=0 note=61 velocity=0 time=0
EXTRACT: note_on channel=0 note=65 velocity=0 time=0
EXTRACT: note_on channel=0 note=58 velocity=64 time=0.03720239583333333
EXTRACT: note_on channel=0 note=61 velocity=64 time=0
EXTRACT: note_on channel=0 note=66 velocity=64 time=0
EXTRACT: note_on channel=0 note=30 velocity=64 time=0
EXTRACT: note_on channel=0 note=42 velocity=64 time=0
EXTRACT: note_on channel=0 note=66 velocity=0 time=0.6592264541666667
EXTRACT: note_on channel=0 note=58 velocity=0 time=0.017857150000000002
EXTRACT: note_on channel=0 note=61 velocity=0 time=0
EXTRACT: note_on channel=0 note=66 velocity=0 time=0
EXTRACT: note_on channel=0 note=58 velocity=76 time=0.03720239583333333
EXTRACT: note_on channel=0 note=61 velocity=76 time=0
EXTRACT: note_on channel=0 note=66 velocity=76 time=0
EXTRACT: note_on channel=0 note=73 velocity=82 time=0.357143
EXTRACT: note_on channel=0 note=58 velocity=0 time=0.3199406041666667
EXTRACT: note_on channel=0 note=61 velocity=0 time=0
EXTRACT: note_on channel=0 note=66 velocity=0 time=0
EXTRACT: note_on channel=0 note=73 velocity=0 time=0.017857150000000002
EXTRACT: note_on channel=0 note=80 velocity=88 time=0.019345245833333333
EXTRACT: note_on channel=0 note=58 velocity=88 time=0
EXTRACT: note_on channel=0 note=61 velocity=88 time=0
EXTRACT: note_on channel=0 note=66 velocity=88 time=0
EXTRACT: note_on channel=0 note=80 velocity=0 time=0.3377977541666667
EXTRACT: note_on channel=0 note=78 velocity=94 time=0.019345245833333333
EXTRACT: note_on channel=0 note=58 velocity=0 time=0.3199406041666667
EXTRACT: note_on channel=0 note=61 velocity=0 time=0
EXTRACT: note_on channel=0 note=66 velocity=0 time=0
EXTRACT: note_on channel=0 note=78 velocity=0 time=0.017857150000000002
EXTRACT: note_on channel=0 note=77 velocity=100 time=0.019345245833333333
EXTRACT: note_on channel=0 note=58 velocity=100 time=0
EXTRACT: note_on channel=0 note=61 velocity=100 time=0
EXTRACT: note_on channel=0 note=66 velocity=100 time=0
EXTRACT: note_on channel=0 note=77 velocity=0 time=0.16815482916666666
EXTRACT: note_on channel=0 note=75 velocity=103 time=0.010416670833333334
EXTRACT: note_on channel=0 note=75 velocity=0 time=0.16815482916666666
EXTRACT: note_on channel=0 note=78 velocity=106 time=0.010416670833333334
EXTRACT: note_on channel=0 note=30 velocity=0 time=0.21279770416666668
EXTRACT: note_on channel=0 note=42 velocity=0 time=0
EXTRACT: note_on channel=0 note=58 velocity=0 time=0.1071429
EXTRACT: note_on channel=0 note=61 velocity=0 time=0
EXTRACT: note_on channel=0 note=66 velocity=0 time=0
EXTRACT: note_on channel=0 note=58 velocity=112 time=0.03720239583333333
EXTRACT: note_on channel=0 note=63 velocity=112 time=0
EXTRACT: note_on channel=0 note=66 velocity=112 time=0
EXTRACT: note_on channel=0 note=27 velocity=112 time=0
EXTRACT: note_on channel=0 note=39 velocity=112 time=0
EXTRACT: note_on channel=0 note=78 velocity=0 time=0.6592264541666667
EXTRACT: note_on channel=0 note=58 velocity=0 time=0.017857150000000002
EXTRACT: note_on channel=0 note=63 velocity=0 time=0
EXTRACT: note_on channel=0 note=66 velocity=0 time=0
EXTRACT: note_on channel=0 note=58 velocity=108 time=0.03720239583333333
EXTRACT: note_on channel=0 note=63 velocity=108 time=0
EXTRACT: note_on channel=0 note=66 velocity=108 time=0
EXTRACT: note_on channel=0 note=75 velocity=106 time=0.357143
EXTRACT: note_on channel=0 note=58 velocity=0 time=0.3199406041666667
EXTRACT: note_on channel=0 note=63 velocity=0 time=0
EXTRACT: note_on channel=0 note=66 velocity=0 time=0
EXTRACT: note_on channel=0 note=75 velocity=0 time=0.017857150000000002
EXTRACT: note_on channel=0 note=80 velocity=104 time=0.019345245833333333
EXTRACT: note_on channel=0 note=58 velocity=104 time=0
EXTRACT: note_on channel=0 note=63 velocity=104 time=0
EXTRACT: note_on channel=0 note=66 velocity=104 time=0
EXTRACT: note_on channel=0 note=80 velocity=0 time=0.3377977541666667
EXTRACT: note_on channel=0 note=78 velocity=102 time=0.019345245833333333
EXTRACT: note_on channel=0 note=58 velocity=0 time=0.3199406041666667
EXTRACT: note_on channel=0 note=63 velocity=0 time=0
EXTRACT: note_on channel=0 note=66 velocity=0 time=0
EXTRACT: note_on channel=0 note=78 velocity=0 time=0.017857150000000002
EXTRACT: note_on channel=0 note=77 velocity=100 time=0.019345245833333333
EXTRACT: note_on channel=0 note=58 velocity=100 time=0
EXTRACT: note_on channel=0 note=63 velocity=100 time=0
EXTRACT: note_on channel=0 note=66 velocity=100 time=0
EXTRACT: note_on channel=0 note=77 velocity=0 time=0.16815482916666666
EXTRACT: note_on channel=0 note=75 velocity=99 time=0.010416670833333334
EXTRACT: note_on channel=0 note=75 velocity=0 time=0.16815482916666666
EXTRACT: note_on channel=0 note=78 velocity=98 time=0.010416670833333334
EXTRACT: note_on channel=0 note=27 velocity=0 time=0.21279770416666668
EXTRACT: note_on channel=0 note=39 velocity=0 time=0
EXTRACT: note_on channel=0 note=58 velocity=0 time=0.1071429
EXTRACT: note_on channel=0 note=63 velocity=0 time=0
EXTRACT: note_on channel=0 note=66 velocity=0 time=0
EXTRACT: note_on channel=0 note=54 velocity=96 time=0.03720239583333333
EXTRACT: note_on channel=0 note=58 velocity=96 time=0
EXTRACT: note_on channel=0 note=61 velocity=96 time=0
EXTRACT: note_on channel=0 note=66 velocity=96 time=0
EXTRACT: note_on channel=0 note=30 velocity=96 time=0
EXTRACT: note_on channel=0 note=42 velocity=96 time=0
EXTRACT: note_on channel=0 note=78 velocity=0 time=0.6592264541666667
EXTRACT: note_on channel=0 note=54 velocity=0 time=0.017857150000000002
EXTRACT: note_on channel=0 note=58 velocity=0 time=0
EXTRACT: note_on channel=0 note=61 velocity=0 time=0
EXTRACT: note_on channel=0 note=66 velocity=0 time=0
EXTRACT: note_on channel=0 note=54 velocity=91 time=0.03720239583333333
EXTRACT: note_on channel=0 note=58 velocity=91 time=0
EXTRACT: note_on channel=0 note=61 velocity=91 time=0
EXTRACT: note_on channel=0 note=66 velocity=91 time=0
EXTRACT: note_on channel=0 note=68 velocity=89 time=0.357143
EXTRACT: note_on channel=0 note=54 velocity=0 time=0.3199406041666667
EXTRACT: note_on channel=0 note=58 velocity=0 time=0
EXTRACT: note_on channel=0 note=61 velocity=0 time=0
EXTRACT: note_on channel=0 note=66 velocity=0 time=0
EXTRACT: note_on channel=0 note=68 velocity=0 time=0.017857150000000002
EXTRACT: note_on channel=0 note=78 velocity=87 time=0.019345245833333333
EXTRACT: note_on channel=0 note=54 velocity=87 time=0
EXTRACT: note_on channel=0 note=58 velocity=87 time=0
EXTRACT: note_on channel=0 note=61 velocity=87 time=0
EXTRACT: note_on channel=0 note=66 velocity=87 time=0
EXTRACT: note_on channel=0 note=78 velocity=0 time=0.3377977541666667
EXTRACT: note_on channel=0 note=77 velocity=85 time=0.019345245833333333
EXTRACT: note_on channel=0 note=30 velocity=0 time=0.24851200416666666
EXTRACT: note_on channel=0 note=42 velocity=0 time=0
EXTRACT: note_on channel=0 note=54 velocity=0 time=0.07142860000000001
EXTRACT: note_on channel=0 note=58 velocity=0 time=0
EXTRACT: note_on channel=0 note=61 velocity=0 time=0
EXTRACT: note_on channel=0 note=66 velocity=0 time=0
EXTRACT: note_on channel=0 note=77 velocity=0 time=0.017857150000000002
EXTRACT: note_on channel=0 note=75 velocity=83 time=0.019345245833333333
EXTRACT: note_on channel=0 note=56 velocity=83 time=0
EXTRACT: note_on channel=0 note=60 velocity=83 time=0
EXTRACT: note_on channel=0 note=63 velocity=83 time=0
EXTRACT: note_on channel=0 note=68 velocity=83 time=0
EXTRACT: note_on channel=0 note=32 velocity=83 time=0
EXTRACT: note_on channel=0 note=44 velocity=83 time=0
EXTRACT: note_on channel=0 note=75 velocity=0 time=0.3377977541666667
EXTRACT: note_on channel=0 note=73 velocity=81 time=0.019345245833333333
EXTRACT: note_on channel=0 note=56 velocity=0 time=0.3199406041666667
EXTRACT: note_on channel=0 note=60 velocity=0 time=0
EXTRACT: note_on channel=0 note=63 velocity=0 time=0
EXTRACT: note_on channel=0 note=68 velocity=0 time=0
EXTRACT: note_on channel=0 note=32 velocity=0 time=0
EXTRACT: note_on channel=0 note=44 velocity=0 time=0
EXTRACT: note_on channel=0 note=73 velocity=64 time=0
EXTRACT: note_on channel=0 note=58 velocity=64 time=0
EXTRACT: note_on channel=0 note=61 velocity=64 time=0
EXTRACT: note_on channel=0 note=65 velocity=64 time=0
EXTRACT: note_on channel=0 note=46 velocity=64 time=0
EXTRACT: note_on channel=0 note=73 velocity=0 time=0.3377977541666667
EXTRACT: note_on channel=0 note=73 velocity=0 time=0.017857150000000002
EXTRACT: note_on channel=0 note=73 velocity=61 time=0.0014880958333333334
EXTRACT: note_on channel=0 note=58 velocity=0 time=0.3199406041666667
EXTRACT: note_on channel=0 note=61 velocity=0 time=0
EXTRACT: note_on channel=0 note=65 velocity=0 time=0
EXTRACT: note_on channel=0 note=58 velocity=57 time=0.03720239583333333
EXTRACT: note_on channel=0 note=61 velocity=57 time=0
EXTRACT: note_on channel=0 note=65 velocity=57 time=0
EXTRACT: note_on channel=0 note=73 velocity=0 time=0.3199406041666667
EXTRACT: note_on channel=0 note=58 velocity=0 time=0.357143
EXTRACT: note_on channel=0 note=61 velocity=0 time=0
EXTRACT: note_on channel=0 note=65 velocity=0 time=0
EXTRACT: note_on channel=0 note=61 velocity=49 time=0.03720239583333333
EXTRACT: note_on channel=0 note=65 velocity=49 time=0
EXTRACT: note_on channel=0 note=70 velocity=49 time=0
EXTRACT: note_on channel=0 note=61 velocity=0 time=0.6770836041666667
EXTRACT: note_on channel=0 note=65 velocity=0 time=0
EXTRACT: note_on channel=0 note=70 velocity=0 time=0
EXTRACT: note_on channel=0 note=65 velocity=41 time=0.03720239583333333
EXTRACT: note_on channel=0 note=70 velocity=41 time=0
EXTRACT: note_on channel=0 note=73 velocity=41 time=0
EXTRACT: note_on channel=0 note=46 velocity=0 time=0.23065485416666667
EXTRACT: note_on channel=0 note=61 velocity=39 time=0.007440479166666666
EXTRACT: note_on channel=0 note=44 velocity=37 time=0.11904766666666666
EXTRACT: note_on channel=0 note=61 velocity=0 time=0.10565480416666667
EXTRACT: note_on channel=0 note=61 velocity=36 time=0.0133928625
EXTRACT: note_on channel=0 note=65 velocity=0 time=0.2008929375
EXTRACT: note_on channel=0 note=70 velocity=0 time=0
EXTRACT: note_on channel=0 note=73 velocity=0 time=0
EXTRACT: note_on channel=0 note=44 velocity=0 time=0.017857150000000002
EXTRACT: note_on channel=0 note=61 velocity=0 time=0.0059523833333333335
EXTRACT: note_on channel=0 note=60 velocity=33 time=0
EXTRACT: note_on channel=0 note=43 velocity=33 time=0
EXTRACT: note_on channel=0 note=60 velocity=0 time=0.6770836041666667
EXTRACT: note_on channel=0 note=67 velocity=33 time=0.03720239583333333
EXTRACT: note_on channel=0 note=72 velocity=33 time=0
EXTRACT: note_on channel=0 note=76 velocity=33 time=0
EXTRACT: note_on channel=0 note=58 velocity=33 time=0
EXTRACT: note_on channel=0 note=67 velocity=0 time=0.6770836041666667
EXTRACT: note_on channel=0 note=72 velocity=0 time=0
EXTRACT: note_on channel=0 note=76 velocity=0 time=0
EXTRACT: note_on channel=0 note=58 velocity=0 time=0
EXTRACT: note_on channel=0 note=64 velocity=37 time=0.03720239583333333
EXTRACT: note_on channel=0 note=70 velocity=37 time=0
EXTRACT: note_on channel=0 note=72 velocity=37 time=0
EXTRACT: note_on channel=0 note=55 velocity=37 time=0
EXTRACT: note_on channel=0 note=64 velocity=0 time=0.6770836041666667
EXTRACT: note_on channel=0 note=70 velocity=0 time=0
EXTRACT: note_on channel=0 note=72 velocity=0 time=0
EXTRACT: note_on channel=0 note=55 velocity=0 time=0
EXTRACT: note_on channel=0 note=60 velocity=41 time=0.03720239583333333
EXTRACT: note_on channel=0 note=67 velocity=41 time=0
EXTRACT: note_on channel=0 note=70 velocity=41 time=0
EXTRACT: note_on channel=0 note=52 velocity=41 time=0
EXTRACT: note_on channel=0 note=60 velocity=42 time=0.23809533333333333
EXTRACT: note_on channel=0 note=60 velocity=0 time=0.22470247083333333
EXTRACT: note_on channel=0 note=62 velocity=44 time=0.0133928625
EXTRACT: note_on channel=0 note=43 velocity=0 time=0.09375003750000001
EXTRACT: note_on channel=0 note=60 velocity=0 time=0.1071429
EXTRACT: note_on channel=0 note=67 velocity=0 time=0
EXTRACT: note_on channel=0 note=70 velocity=0 time=0
EXTRACT: note_on channel=0 note=52 velocity=0 time=0
EXTRACT: note_on channel=0 note=62 velocity=0 time=0.023809533333333334
EXTRACT: note_on channel=0 note=64 velocity=45 time=0.0133928625
EXTRACT: note_on channel=0 note=41 velocity=45 time=0
EXTRACT: note_on channel=0 note=64 velocity=0 time=0.6770836041666667
EXTRACT: note_on channel=0 note=70 velocity=50 time=0.03720239583333333
EXTRACT: note_on channel=0 note=76 velocity=50 time=0
EXTRACT: note_on channel=0 note=79 velocity=50 time=0
EXTRACT: note_on channel=0 note=64 velocity=50 time=0
EXTRACT: note_on channel=0 note=70 velocity=0 time=0.6770836041666667
EXTRACT: note_on channel=0 note=76 velocity=0 time=0
EXTRACT: note_on channel=0 note=79 velocity=0 time=0
EXTRACT: note_on channel=0 note=64 velocity=0 time=0
EXTRACT: note_on channel=0 note=67 velocity=54 time=0.03720239583333333
EXTRACT: note_on channel=0 note=72 velocity=54 time=0
EXTRACT: note_on channel=0 note=76 velocity=54 time=0
EXTRACT: note_on channel=0 note=60 velocity=54 time=0
EXTRACT: note_on channel=0 note=67 velocity=0 time=0.6770836041666667
EXTRACT: note_on channel=0 note=72 velocity=0 time=0
EXTRACT: note_on channel=0 note=76 velocity=0 time=0
EXTRACT: note_on channel=0 note=60 velocity=0 time=0
EXTRACT: note_on channel=0 note=64 velocity=58 time=0.03720239583333333
EXTRACT: note_on channel=0 note=70 velocity=58 time=0
EXTRACT: note_on channel=0 note=72 velocity=58 time=0
EXTRACT: note_on channel=0 note=60 velocity=60 time=0.23809533333333333
EXTRACT: note_on channel=0 note=60 velocity=0 time=0.22470247083333333
EXTRACT: note_on channel=0 note=62 velocity=61 time=0.0133928625
EXTRACT: note_on channel=0 note=41 velocity=0 time=0.09375003750000001
EXTRACT: note_on channel=0 note=64 velocity=0 time=0.1071429
EXTRACT: note_on channel=0 note=70 velocity=0 time=0
EXTRACT: note_on channel=0 note=72 velocity=0 time=0
EXTRACT: note_on channel=0 note=62 velocity=0 time=0.023809533333333334
EXTRACT: note_on channel=0 note=64 velocity=62 time=0.0133928625
EXTRACT: note_on channel=0 note=43 velocity=62 time=0
EXTRACT: note_on channel=0 note=64 velocity=0 time=0.6770836041666667
EXTRACT: note_on channel=0 note=67 velocity=67 time=0.03720239583333333
EXTRACT: note_on channel=0 note=72 velocity=67 time=0
EXTRACT: note_on channel=0 note=76 velocity=67 time=0
EXTRACT: note_on channel=0 note=58 velocity=67 time=0
EXTRACT: note_on channel=0 note=67 velocity=0 time=0.6770836041666667
EXTRACT: note_on channel=0 note=72 velocity=0 time=0
EXTRACT: note_on channel=0 note=76 velocity=0 time=0
EXTRACT: note_on channel=0 note=58 velocity=0 time=0
EXTRACT: note_on channel=0 note=64 velocity=71 time=0.03720239583333333
EXTRACT: note_on channel=0 note=70 velocity=71 time=0
EXTRACT: note_on channel=0 note=72 velocity=71 time=0
EXTRACT: note_on channel=0 note=55 velocity=71 time=0
EXTRACT: note_on channel=0 note=64 velocity=0 time=0.6770836041666667
EXTRACT: note_on channel=0 note=70 velocity=0 time=0
EXTRACT: note_on channel=0 note=72 velocity=0 time=0
EXTRACT: note_on channel=0 note=55 velocity=0 time=0
EXTRACT: note_on channel=0 note=60 velocity=75 time=0.03720239583333333
EXTRACT: note_on channel=0 note=67 velocity=75 time=0
EXTRACT: note_on channel=0 note=70 velocity=75 time=0
EXTRACT: note_on channel=0 note=52 velocity=75 time=0
EXTRACT: note_on channel=0 note=64 velocity=77 time=0.23809533333333333
EXTRACT: note_on channel=0 note=64 velocity=0 time=0.22470247083333333
EXTRACT: note_on channel=0 note=65 velocity=78 time=0.0133928625
EXTRACT: note_on channel=0 note=43 velocity=0 time=0.09375003750000001
EXTRACT: note_on channel=0 note=60 velocity=0 time=0.1071429
EXTRACT: note_on channel=0 note=67 velocity=0 time=0
EXTRACT: note_on channel=0 note=70 velocity=0 time=0
EXTRACT: note_on channel=0 note=52 velocity=0 time=0
EXTRACT: note_on channel=0 note=65 velocity=0 time=0.023809533333333334
EXTRACT: note_on channel=0 note=68 velocity=80 time=0
EXTRACT: note_on channel=0 note=61 velocity=80 time=0
EXTRACT: note_on channel=0 note=64 velocity=80 time=0
EXTRACT: note_on channel=0 note=68 velocity=80 time=0
EXTRACT: note_on channel=0 note=45 velocity=80 time=0
EXTRACT: note_on channel=0 note=56 velocity=80 time=0
EXTRACT: note_on channel=0 note=61 velocity=0 time=0.6770836041666667
EXTRACT: note_on channel=0 note=64 velocity=0 time=0
EXTRACT: note_on channel=0 note=68 velocity=0 time=0
EXTRACT: note_on channel=0 note=61 velocity=80 time=0.03720239583333333
EXTRACT: note_on channel=0 note=64 velocity=80 time=0
EXTRACT: note_on channel=0 note=68 velocity=80 time=0
EXTRACT: note_on channel=0 note=68 velocity=0 time=0.30208345416666665
EXTRACT: note_on channel=0 note=45 velocity=0 time=0.33928585
EXTRACT: note_on channel=0 note=56 velocity=0 time=0
EXTRACT: note_on channel=0 note=61 velocity=0 time=0.035714300000000004
EXTRACT: note_on channel=0 note=64 velocity=0 time=0
EXTRACT: note_on channel=0 note=68 velocity=0 time=0
EXTRACT: note_on channel=0 note=78 velocity=80 time=0.03720239583333333
EXTRACT: note_on channel=0 note=61 velocity=80 time=0
EXTRACT: note_on channel=0 note=64 velocity=80 time=0
EXTRACT: note_on channel=0 note=68 velocity=80 time=0
EXTRACT: note_on channel=0 note=45 velocity=80 time=0
EXTRACT: note_on channel=0 note=56 velocity=80 time=0
EXTRACT: note_on channel=0 note=61 velocity=0 time=0.6770836041666667
EXTRACT: note_on channel=0 note=64 velocity=0 time=0
EXTRACT: note_on channel=0 note=68 velocity=0 time=0
EXTRACT: note_on channel=0 note=61 velocity=80 time=0.03720239583333333
EXTRACT: note_on channel=0 note=64 velocity=80 time=0
EXTRACT: note_on channel=0 note=68 velocity=80 time=0
EXTRACT: note_on channel=0 note=78 velocity=0 time=0.18898817083333333
EXTRACT: note_on channel=0 note=78 velocity=80 time=0.0491071625
EXTRACT: note_on channel=0 note=45 velocity=0 time=0.06398812083333333
EXTRACT: note_on channel=0 note=56 velocity=0 time=0
EXTRACT: note_on channel=0 note=45 velocity=80 time=0.055059545833333334
EXTRACT: note_on channel=0 note=78 velocity=0 time=0.10565480416666667
EXTRACT: note_on channel=0 note=76 velocity=80 time=0.0133928625
EXTRACT: note_on channel=0 note=61 velocity=0 time=0.2008929375
EXTRACT: note_on channel=0 note=64 velocity=0 time=0
EXTRACT: note_on channel=0 note=68 velocity=0 time=0
EXTRACT: note_on channel=0 note=45 velocity=0 time=0.017857150000000002
EXTRACT: note_on channel=0 note=76 velocity=0 time=0.0059523833333333335
EXTRACT: note_on channel=0 note=75 velocity=80 time=0.0133928625
EXTRACT: note_on channel=0 note=59 velocity=80 time=0
EXTRACT: note_on channel=0 note=63 velocity=80 time=0
EXTRACT: note_on channel=0 note=68 velocity=80 time=0
EXTRACT: note_on channel=0 note=40 velocity=80 time=0
EXTRACT: note_on channel=0 note=52 velocity=80 time=0
EXTRACT: note_on channel=0 note=75 velocity=0 time=0.6770836041666667
EXTRACT: note_on channel=0 note=59 velocity=0 time=0
EXTRACT: note_on channel=0 note=63 velocity=0 time=0
EXTRACT: note_on channel=0 note=68 velocity=0 time=0
EXTRACT: note_on channel=0 note=78 velocity=78 time=0.03720239583333333
EXTRACT: note_on channel=0 note=59 velocity=78 time=0
EXTRACT: note_on channel=0 note=63 velocity=78 time=0
EXTRACT: note_on channel=0 note=68 velocity=78 time=0
EXTRACT: note_on channel=0 note=40 velocity=0 time=0.30208345416666665
EXTRACT: note_on channel=0 note=52 velocity=0 time=0
EXTRACT: note_on channel=0 note=78 velocity=0 time=0.035714300000000004
EXTRACT: note_on channel=0 note=71 velocity=77 time=0.019345245833333333
EXTRACT: note_on channel=0 note=40 velocity=77 time=0
EXTRACT: note_on channel=0 note=59 velocity=0 time=0.3199406041666667
EXTRACT: note_on channel=0 note=63 velocity=0 time=0
EXTRACT: note_on channel=0 note=68 velocity=0 time=0
EXTRACT: note_on channel=0 note=71 velocity=0 time=0.017857150000000002
EXTRACT: note_on channel=0 note=40 velocity=0 time=0
EXTRACT: note_on channel=0 note=73 velocity=76 time=0.019345245833333333
EXTRACT: note_on channel=0 note=61 velocity=76 time=0
EXTRACT: note_on channel=0 note=64 velocity=76 time=0
EXTRACT: note_on channel=0 note=68 velocity=76 time=0
EXTRACT: note_on channel=0 note=45 velocity=76 time=0
EXTRACT: note_on channel=0 note=56 velocity=76 time=0
EXTRACT: note_on channel=0 note=73 velocity=0 time=0.3377977541666667
EXTRACT: note_on channel=0 note=73 velocity=75 time=0.019345245833333333
EXTRACT: note_on channel=0 note=61 velocity=0 time=0.3199406041666667
EXTRACT: note_on channel=0 note=64 velocity=0 time=0
EXTRACT: note_on channel=0 note=68 velocity=0 time=0
EXTRACT: note_on channel=0 note=61 velocity=74 time=0.03720239583333333
EXTRACT: note_on channel=0 note=64 velocity=74 time=0
EXTRACT: note_on channel=0 note=68 velocity=74 time=0
EXTRACT: note_on channel=0 note=45 velocity=0 time=0.30208345416666665
EXTRACT: note_on channel=0 note=56 velocity=0 time=0
EXTRACT: note_on channel=0 note=45 velocity=73 time=0.055059545833333334
EXTRACT: note_on channel=0 note=73 velocity=0 time=0.30208345416666665
EXTRACT: note_on channel=0 note=61 velocity=0 time=0.017857150000000002
EXTRACT: note_on channel=0 note=64 velocity=0 time=0
EXTRACT: note_on channel=0 note=68 velocity=0 time=0
EXTRACT: note_on channel=0 note=45 velocity=0 time=0.017857150000000002
EXTRACT: note_on channel=0 note=71 velocity=72 time=0.019345245833333333
EXTRACT: note_on channel=0 note=59 velocity=72 time=0
EXTRACT: note_on channel=0 note=63 velocity=72 time=0
EXTRACT: note_on channel=0 note=68 velocity=72 time=0
EXTRACT: note_on channel=0 note=40 velocity=72 time=0
EXTRACT: note_on channel=0 note=52 velocity=72 time=0
EXTRACT: note_on channel=0 note=71 velocity=0 time=0.7127979041666667
EXTRACT: note_on channel=0 note=59 velocity=0 time=0
EXTRACT: note_on channel=0 note=63 velocity=0 time=0
EXTRACT: note_on channel=0 note=68 velocity=0 time=0
EXTRACT: note_on channel=0 note=59 velocity=70 time=0.0014880958333333334
EXTRACT: note_on channel=0 note=63 velocity=70 time=0
EXTRACT: note_on channel=0 note=68 velocity=70 time=0
EXTRACT: note_on channel=0 note=40 velocity=0 time=0.30208345416666665
EXTRACT: note_on channel=0 note=52 velocity=0 time=0
EXTRACT: note_on channel=0 note=40 velocity=69 time=0.055059545833333334
EXTRACT: note_on channel=0 note=40 velocity=0 time=0.3377977541666667
EXTRACT: note_on channel=0 note=59 velocity=0 time=0.017857150000000002
EXTRACT: note_on channel=0 note=63 velocity=0 time=0
EXTRACT: note_on channel=0 note=68 velocity=0 time=0
EXTRACT: note_on channel=0 note=68 velocity=68 time=0.0014880958333333334
EXTRACT: note_on channel=0 note=59 velocity=68 time=0
EXTRACT: note_on channel=0 note=65 velocity=68 time=0
EXTRACT: note_on channel=0 note=68 velocity=68 time=0
EXTRACT: note_on channel=0 note=37 velocity=68 time=0
EXTRACT: note_on channel=0 note=49 velocity=68 time=0
EXTRACT: note_on channel=0 note=68 velocity=0 time=0.6770836041666667
EXTRACT: note_on channel=0 note=59 velocity=0 time=0
EXTRACT: note_on channel=0 note=65 velocity=0 time=0
EXTRACT: note_on channel=0 note=68 velocity=0 time=0
EXTRACT: note_on channel=0 note=59 velocity=66 time=0.03720239583333333
EXTRACT: note_on channel=0 note=65 velocity=66 time=0
EXTRACT: note_on channel=0 note=68 velocity=66 time=0
EXTRACT: note_on channel=0 note=37 velocity=0 time=0.30208345416666665
EXTRACT: note_on channel=0 note=49 velocity=0 time=0
EXTRACT: note_on channel=0 note=66 velocity=65 time=0.055059545833333334
EXTRACT: note_on channel=0 note=37 velocity=65 time=0
EXTRACT: note_on channel=0 note=59 velocity=0 time=0.3199406041666667
EXTRACT: note_on channel=0 note=65 velocity=0 time=0
EXTRACT: note_on channel=0 note=68 velocity=0 time=0
EXTRACT: note_on channel=0 note=66 velocity=0 time=0.017857150000000002
EXTRACT: note_on channel=0 note=37 velocity=0 time=0
EXTRACT: note_on channel=0 note=68 velocity=64 time=0.019345245833333333
EXTRACT: note_on channel=0 note=57 velocity=64 time=0
EXTRACT: note_on channel=0 note=61 velocity=64 time=0
EXTRACT: note_on channel=0 note=66 velocity=64 time=0
EXTRACT: note_on channel=0 note=42 velocity=64 time=0
EXTRACT: note_on channel=0 note=52 velocity=64 time=0
EXTRACT: note_on channel=0 note=68 velocity=0 time=0.6770836041666667
EXTRACT: note_on channel=0 note=57 velocity=0 time=0
EXTRACT: note_on channel=0 note=61 velocity=0 time=0
EXTRACT: note_on channel=0 note=66 velocity=0 time=0
EXTRACT: note_on channel=0 note=66 velocity=64 time=0.03720239583333333
EXTRACT: note_on channel=0 note=57 velocity=64 time=0
EXTRACT: note_on channel=0 note=61 velocity=64 time=0
EXTRACT: note_on channel=0 note=66 velocity=64 time=0
EXTRACT: note_on channel=0 note=42 velocity=0 time=0.6413693041666667
EXTRACT: note_on channel=0 note=52 velocity=0 time=0
EXTRACT: note_on channel=0 note=66 velocity=0 time=0.035714300000000004
EXTRACT: note_on channel=0 note=57 velocity=0 time=0
EXTRACT: note_on channel=0 note=61 velocity=0 time=0
EXTRACT: note_on channel=0 note=66 velocity=0 time=0
EXTRACT: note_on channel=0 note=68 velocity=64 time=0.03720239583333333
EXTRACT: note_on channel=0 note=57 velocity=64 time=0
EXTRACT: note_on channel=0 note=61 velocity=64 time=0
EXTRACT: note_on channel=0 note=66 velocity=64 time=0
EXTRACT: note_on channel=0 note=42 velocity=64 time=0
EXTRACT: note_on channel=0 note=52 velocity=64 time=0
EXTRACT: note_on channel=0 note=68 velocity=0 time=0.16815482916666666
EXTRACT: note_on channel=0 note=66 velocity=65 time=0.010416670833333334
EXTRACT: note_on channel=0 note=57 velocity=0 time=0.4985121041666667
EXTRACT: note_on channel=0 note=61 velocity=0 time=0
EXTRACT: note_on channel=0 note=66 velocity=0 time=0
EXTRACT: note_on channel=0 note=66 velocity=0 time=0.008928575000000001
EXTRACT: note_on channel=0 note=68 velocity=69 time=0.028273820833333334
EXTRACT: note_on channel=0 note=57 velocity=69 time=0
EXTRACT: note_on channel=0 note=61 velocity=69 time=0
EXTRACT: note_on channel=0 note=66 velocity=69 time=0
EXTRACT: note_on channel=0 note=42 velocity=0 time=0.30208345416666665
EXTRACT: note_on channel=0 note=52 velocity=0 time=0
EXTRACT: note_on channel=0 note=42 velocity=72 time=0.055059545833333334
EXTRACT: note_on channel=0 note=68 velocity=0 time=0.3199406041666667
EXTRACT: note_on channel=0 note=57 velocity=0 time=0
EXTRACT: note_on channel=0 note=61 velocity=0 time=0
EXTRACT: note_on channel=0 note=66 velocity=0 time=0
EXTRACT: note_on channel=0 note=42 velocity=0 time=0.017857150000000002
EXTRACT: note_on channel=0 note=68 velocity=74 time=0.019345245833333333
EXTRACT: note_on channel=0 note=57 velocity=74 time=0
EXTRACT: note_on channel=0 note=63 velocity=74 time=0
EXTRACT: note_on channel=0 note=66 velocity=74 time=0
EXTRACT: note_on channel=0 note=35 velocity=74 time=0
EXTRACT: note_on channel=0 note=47 velocity=74 time=0
EXTRACT: note_on channel=0 note=68 velocity=0 time=0.3377977541666667
EXTRACT: note_on channel=0 note=69 velocity=77 time=0.019345245833333333
EXTRACT: note_on channel=0 note=57 velocity=0 time=0.3199406041666667
EXTRACT: note_on channel=0 note=63 velocity=0 time=0
EXTRACT: note_on channel=0 note=66 velocity=0 time=0
EXTRACT: note_on channel=0 note=57 velocity=80 time=0.03720239583333333
EXTRACT: note_on channel=0 note=63 velocity=80 time=0
EXTRACT: note_on channel=0 note=66 velocity=80 time=0
EXTRACT: note_on channel=0 note=69 velocity=0 time=0.3199406041666667
EXTRACT: note_on channel=0 note=71 velocity=82 time=0.03720239583333333
EXTRACT: note_on channel=0 note=35 velocity=0 time=0.28422630416666667
EXTRACT: note_on channel=0 note=47 velocity=0 time=0
EXTRACT: note_on channel=0 note=57 velocity=0 time=0.035714300000000004
EXTRACT: note_on channel=0 note=63 velocity=0 time=0
EXTRACT: note_on channel=0 note=66 velocity=0 time=0
EXTRACT: note_on channel=0 note=71 velocity=0 time=0.017857150000000002
EXTRACT: note_on channel=0 note=73 velocity=85 time=0.019345245833333333
EXTRACT: note_on channel=0 note=57 velocity=85 time=0
EXTRACT: note_on channel=0 note=63 velocity=85 time=0
EXTRACT: note_on channel=0 note=66 velocity=85 time=0
EXTRACT: note_on channel=0 note=47 velocity=85 time=0
EXTRACT: note_on channel=0 note=73 velocity=0 time=0.3377977541666667
EXTRACT: note_on channel=0 note=76 velocity=88 time=0.019345245833333333
EXTRACT: note_on channel=0 note=57 velocity=0 time=0.3199406041666667
EXTRACT: note_on channel=0 note=63 velocity=0 time=0
EXTRACT: note_on channel=0 note=66 velocity=0 time=0
EXTRACT: note_on channel=0 note=47 velocity=0 time=0
EXTRACT: note_on channel=0 note=57 velocity=90 time=0.03720239583333333
EXTRACT: note_on channel=0 note=63 velocity=90 time=0
EXTRACT: note_on channel=0 note=66 velocity=90 time=0
EXTRACT: note_on channel=0 note=35 velocity=90 time=0
EXTRACT: note_on channel=0 note=76 velocity=0 time=0.3199406041666667
EXTRACT: note_on channel=0 note=35 velocity=0 time=0.017857150000000002
EXTRACT: note_on channel=0 note=80 velocity=93 time=0.019345245833333333
EXTRACT: note_on channel=0 note=47 velocity=93 time=0
EXTRACT: note_on channel=0 note=57 velocity=0 time=0.3199406041666667
EXTRACT: note_on channel=0 note=63 velocity=0 time=0
EXTRACT: note_on channel=0 note=66 velocity=0 time=0
EXTRACT: note_on channel=0 note=80 velocity=0 time=0.017857150000000002
EXTRACT: note_on channel=0 note=47 velocity=0 time=0
EXTRACT: note_on channel=0 note=80 velocity=96 time=0.019345245833333333
EXTRACT: note_on channel=0 note=59 velocity=96 time=0
EXTRACT: note_on channel=0 note=64 velocity=96 time=0
EXTRACT: note_on channel=0 note=68 velocity=96 time=0
EXTRACT: note_on channel=0 note=40 velocity=96 time=0
EXTRACT: note_on channel=0 note=52 velocity=96 time=0
EXTRACT: note_on channel=0 note=80 velocity=0 time=0.6770836041666667
EXTRACT: note_on channel=0 note=59 velocity=0 time=0
EXTRACT: note_on channel=0 note=64 velocity=0 time=0
EXTRACT: note_on channel=0 note=68 velocity=0 time=0
EXTRACT: note_on channel=0 note=59 velocity=96 time=0.03720239583333333
EXTRACT: note_on channel=0 note=64 velocity=96 time=0
EXTRACT: note_on channel=0 note=68 velocity=96 time=0
EXTRACT: note_on channel=0 note=59 velocity=0 time=0.6770836041666667
EXTRACT: note_on channel=0 note=64 velocity=0 time=0
EXTRACT: note_on channel=0 note=68 velocity=0 time=0
EXTRACT: note_on channel=0 note=59 velocity=96 time=0.03720239583333333
EXTRACT: note_on channel=0 note=64 velocity=96 time=0
EXTRACT: note_on channel=0 note=68 velocity=96 time=0
EXTRACT: note_on channel=0 note=59 velocity=0 time=0.6770836041666667
EXTRACT: note_on channel=0 note=64 velocity=0 time=0
EXTRACT: note_on channel=0 note=68 velocity=0 time=0
EXTRACT: note_on channel=0 note=76 velocity=96 time=0.03720239583333333
EXTRACT: note_on channel=0 note=59 velocity=96 time=0
EXTRACT: note_on channel=0 note=64 velocity=96 time=0
EXTRACT: note_on channel=0 note=68 velocity=96 time=0
EXTRACT: note_on channel=0 note=76 velocity=0 time=0.3377977541666667
EXTRACT: note_on channel=0 note=80 velocity=96 time=0.019345245833333333
EXTRACT: note_on channel=0 note=40 velocity=0 time=0.21279770416666668
EXTRACT: note_on channel=0 note=52 velocity=0 time=0
EXTRACT: note_on channel=0 note=59 velocity=0 time=0.1071429
EXTRACT: note_on channel=0 note=64 velocity=0 time=0
EXTRACT: note_on channel=0 note=68 velocity=0 time=0
EXTRACT: note_on channel=0 note=80 velocity=0 time=0.017857150000000002
EXTRACT: note_on channel=0 note=80 velocity=96 time=0.019345245833333333
EXTRACT: note_on channel=0 note=59 velocity=96 time=0
EXTRACT: note_on channel=0 note=65 velocity=96 time=0
EXTRACT: note_on channel=0 note=68 velocity=96 time=0
EXTRACT: note_on channel=0 note=37 velocity=96 time=0
EXTRACT: note_on channel=0 note=49 velocity=96 time=0
EXTRACT: note_on channel=0 note=80 velocity=0 time=0.6770836041666667
EXTRACT: note_on channel=0 note=59 velocity=0 time=0
EXTRACT: note_on channel=0 note=65 velocity=0 time=0
EXTRACT: note_on channel=0 note=68 velocity=0 time=0
EXTRACT: note_on channel=0 note=59 velocity=96 time=0.03720239583333333
EXTRACT: note_on channel=0 note=65 velocity=96 time=0
EXTRACT: note_on channel=0 note=68 velocity=96 time=0
EXTRACT: note_on channel=0 note=59 velocity=0 time=0.6770836041666667
EXTRACT: note_on channel=0 note=65 velocity=0 time=0
EXTRACT: note_on channel=0 note=68 velocity=0 time=0
EXTRACT: note_on channel=0 note=59 velocity=96 time=0.03720239583333333
EXTRACT: note_on channel=0 note=65 velocity=96 time=0
EXTRACT: note_on channel=0 note=68 velocity=96 time=0
EXTRACT: note_on channel=0 note=59 velocity=0 time=0.6770836041666667
EXTRACT: note_on channel=0 note=65 velocity=0 time=0
EXTRACT: note_on channel=0 note=68 velocity=0 time=0
EXTRACT: note_on channel=0 note=59 velocity=96 time=0.03720239583333333
EXTRACT: note_on channel=0 note=65 velocity=96 time=0
EXTRACT: note_on channel=0 note=68 velocity=96 time=0
EXTRACT: note_on channel=0 note=81 velocity=96 time=0.357143
EXTRACT: note_on channel=0 note=37 velocity=0 time=0.21279770416666668
EXTRACT: note_on channel=0 note=49 velocity=0 time=0
EXTRACT: note_on channel=0 note=59 velocity=0 time=0.1071429
EXTRACT: note_on channel=0 note=65 velocity=0 time=0
EXTRACT: note_on channel=0 note=68 velocity=0 time=0
EXTRACT: note_on channel=0 note=61 velocity=96 time=0.03720239583333333
EXTRACT: note_on channel=0 note=66 velocity=96 time=0
EXTRACT: note_on channel=0 note=69 velocity=96 time=0
EXTRACT: note_on channel=0 note=42 velocity=96 time=0
EXTRACT: note_on channel=0 note=52 velocity=96 time=0
EXTRACT: note_on channel=0 note=81 velocity=0 time=0.6592264541666667
EXTRACT: note_on channel=0 note=61 velocity=0 time=0.017857150000000002
EXTRACT: note_on channel=0 note=66 velocity=0 time=0
EXTRACT: note_on channel=0 note=69 velocity=0 time=0
EXTRACT: note_on channel=0 note=80 velocity=96 time=0.03720239583333333
EXTRACT: note_on channel=0 note=61 velocity=96 time=0
EXTRACT: note_on channel=0 note=66 velocity=96 time=0
EXTRACT: note_on channel=0 note=69 velocity=96 time=0
EXTRACT: note_on channel=0 note=80 velocity=0 time=0.3377977541666667
EXTRACT: note_on channel=0 note=78 velocity=96 time=0.019345245833333333
EXTRACT: note_on channel=0 note=61 velocity=0 time=0.3199406041666667
EXTRACT: note_on channel=0 note=66 velocity=0 time=0
EXTRACT: note_on channel=0 note=69 velocity=0 time=0
EXTRACT: note_on channel=0 note=61 velocity=96 time=0.03720239583333333
EXTRACT: note_on channel=0 note=66 velocity=96 time=0
EXTRACT: note_on channel=0 note=69 velocity=96 time=0
EXTRACT: note_on channel=0 note=78 velocity=0 time=0.6592264541666667
EXTRACT: note_on channel=0 note=61 velocity=0 time=0.017857150000000002
EXTRACT: note_on channel=0 note=66 velocity=0 time=0
EXTRACT: note_on channel=0 note=69 velocity=0 time=0
EXTRACT: note_on channel=0 note=80 velocity=96 time=0.03720239583333333
EXTRACT: note_on channel=0 note=61 velocity=96 time=0
EXTRACT: note_on channel=0 note=66 velocity=96 time=0
EXTRACT: note_on channel=0 note=69 velocity=96 time=0
EXTRACT: note_on channel=0 note=80 velocity=0 time=0.3377977541666667
EXTRACT: note_on channel=0 note=78 velocity=96 time=0.019345245833333333
EXTRACT: note_on channel=0 note=42 velocity=0 time=0.21279770416666668
EXTRACT: note_on channel=0 note=52 velocity=0 time=0
EXTRACT: note_on channel=0 note=61 velocity=0 time=0.1071429
EXTRACT: note_on channel=0 note=66 velocity=0 time=0
EXTRACT: note_on channel=0 note=69 velocity=0 time=0
EXTRACT: note_on channel=0 note=54 velocity=96 time=0.03720239583333333
EXTRACT: note_on channel=0 note=59 velocity=96 time=0
EXTRACT: note_on channel=0 note=63 velocity=96 time=0
EXTRACT: note_on channel=0 note=35 velocity=96 time=0
EXTRACT: note_on channel=0 note=47 velocity=96 time=0
EXTRACT: note_on channel=0 note=78 velocity=0 time=0.6592264541666667
EXTRACT: note_on channel=0 note=54 velocity=0 time=0.017857150000000002
EXTRACT: note_on channel=0 note=59 velocity=0 time=0
EXTRACT: note_on channel=0 note=63 velocity=0 time=0
EXTRACT: note_on channel=0 note=56 velocity=88 time=0.03720239583333333
EXTRACT: note_on channel=0 note=61 velocity=88 time=0
EXTRACT: note_on channel=0 note=64 velocity=88 time=0
EXTRACT: note_on channel=0 note=56 velocity=0 time=0.6770836041666667
EXTRACT: note_on channel=0 note=61 velocity=0 time=0
EXTRACT: note_on channel=0 note=64 velocity=0 time=0
EXTRACT: note_on channel=0 note=57 velocity=80 time=0.03720239583333333
EXTRACT: note_on channel=0 note=63 velocity=80 time=0
EXTRACT: note_on channel=0 note=66 velocity=80 time=0
EXTRACT: note_on channel=0 note=76 velocity=74 time=0.5357145
EXTRACT: note_on channel=0 note=57 velocity=0 time=0.14136910416666668
EXTRACT: note_on channel=0 note=63 velocity=0 time=0
EXTRACT: note_on channel=0 note=66 velocity=0 time=0
EXTRACT: note_on channel=0 note=76 velocity=0 time=0.026785725
EXTRACT: note_on channel=0 note=76 velocity=72 time=0.010416670833333334
EXTRACT: note_on channel=0 note=59 velocity=72 time=0
EXTRACT: note_on channel=0 note=63 velocity=72 time=0
EXTRACT: note_on channel=0 note=69 velocity=72 time=0
EXTRACT: note_on channel=0 note=76 velocity=0 time=0.3377977541666667
EXTRACT: note_on channel=0 note=80 velocity=68 time=0.019345245833333333
EXTRACT: note_on channel=0 note=35 velocity=0 time=0.21279770416666668
EXTRACT: note_on channel=0 note=47 velocity=0 time=0
EXTRACT: note_on channel=0 note=59 velocity=0 time=0.1071429
EXTRACT: note_on channel=0 note=63 velocity=0 time=0
EXTRACT: note_on channel=0 note=69 velocity=0 time=0
EXTRACT: note_on channel=0 note=80 velocity=0 time=0.017857150000000002
EXTRACT: note_on channel=0 note=80 velocity=64 time=0.019345245833333333
EXTRACT: note_on channel=0 note=59 velocity=64 time=0
EXTRACT: note_on channel=0 note=64 velocity=64 time=0
EXTRACT: note_on channel=0 note=68 velocity=64 time=0
EXTRACT: note_on channel=0 note=40 velocity=64 time=0
EXTRACT: note_on channel=0 note=52 velocity=64 time=0
EXTRACT: note_on channel=0 note=80 velocity=0 time=0.6770836041666667
EXTRACT: note_on channel=0 note=59 velocity=0 time=0
EXTRACT: note_on channel=0 note=64 velocity=0 time=0
EXTRACT: note_on channel=0 note=68 velocity=0 time=0
EXTRACT: note_on channel=0 note=59 velocity=64 time=0.03720239583333333
EXTRACT: note_on channel=0 note=64 velocity=64 time=0
EXTRACT: note_on channel=0 note=68 velocity=64 time=0
EXTRACT: note_on channel=0 note=59 velocity=0 time=0.6770836041666667
EXTRACT: note_on channel=0 note=64 velocity=0 time=0
EXTRACT: note_on channel=0 note=68 velocity=0 time=0
EXTRACT: note_on channel=0 note=59 velocity=64 time=0.03720239583333333
EXTRACT: note_on channel=0 note=64 velocity=64 time=0
EXTRACT: note_on channel=0 note=68 velocity=64 time=0
EXTRACT: note_on channel=0 note=78 velocity=64 time=0.5357145
EXTRACT: note_on channel=0 note=59 velocity=0 time=0.14136910416666668
EXTRACT: note_on channel=0 note=64 velocity=0 time=0
EXTRACT: note_on channel=0 note=68 velocity=0 time=0
EXTRACT: note_on channel=0 note=78 velocity=0 time=0.026785725
EXTRACT: note_on channel=0 note=76 velocity=64 time=0.010416670833333334
EXTRACT: note_on channel=0 note=59 velocity=64 time=0
EXTRACT: note_on channel=0 note=64 velocity=64 time=0
EXTRACT: note_on channel=0 note=68 velocity=64 time=0
EXTRACT: note_on channel=0 note=76 velocity=0 time=0.3377977541666667
EXTRACT: note_on channel=0 note=80 velocity=64 time=0.019345245833333333
EXTRACT: note_on channel=0 note=40 velocity=0 time=0.21279770416666668
EXTRACT: note_on channel=0 note=52 velocity=0 time=0
EXTRACT: note_on channel=0 note=59 velocity=0 time=0.1071429
EXTRACT: note_on channel=0 note=64 velocity=0 time=0
EXTRACT: note_on channel=0 note=68 velocity=0 time=0
EXTRACT: note_on channel=0 note=80 velocity=0 time=0.017857150000000002
EXTRACT: note_on channel=0 note=80 velocity=64 time=0.019345245833333333
EXTRACT: note_on channel=0 note=59 velocity=64 time=0
EXTRACT: note_on channel=0 note=64 velocity=64 time=0
EXTRACT: note_on channel=0 note=68 velocity=64 time=0
EXTRACT: note_on channel=0 note=37 velocity=64 time=0
EXTRACT: note_on channel=0 note=49 velocity=64 time=0
EXTRACT: note_on channel=0 note=80 velocity=0 time=0.6770836041666667
EXTRACT: note_on channel=0 note=59 velocity=0 time=0
EXTRACT: note_on channel=0 note=64 velocity=0 time=0
EXTRACT: note_on channel=0 note=68 velocity=0 time=0
EXTRACT: note_on channel=0 note=59 velocity=64 time=0.03720239583333333
EXTRACT: note_on channel=0 note=64 velocity=64 time=0
EXTRACT: note_on channel=0 note=68 velocity=64 time=0
EXTRACT: note_on channel=0 note=59 velocity=0 time=0.6770836041666667
EXTRACT: note_on channel=0 note=64 velocity=0 time=0
EXTRACT: note_on channel=0 note=68 velocity=0 time=0
EXTRACT: note_on channel=0 note=59 velocity=64 time=0.03720239583333333
EXTRACT: note_on channel=0 note=64 velocity=64 time=0
EXTRACT: note_on channel=0 note=68 velocity=64 time=0
EXTRACT: note_on channel=0 note=37 velocity=0 time=0.6056550041666667
EXTRACT: note_on channel=0 note=49 velocity=0 time=0
EXTRACT: note_on channel=0 note=59 velocity=0 time=0.07142860000000001
EXTRACT: note_on channel=0 note=64 velocity=0 time=0
EXTRACT: note_on channel=0 note=68 velocity=0 time=0
EXTRACT: note_on channel=0 note=76 velocity=64 time=0.03720239583333333
EXTRACT: note_on channel=0 note=59 velocity=64 time=0
EXTRACT: note_on channel=0 note=64 velocity=64 time=0
EXTRACT: note_on channel=0 note=68 velocity=64 time=0
EXTRACT: note_on channel=0 note=49 velocity=64 time=0
EXTRACT: note_on channel=0 note=76 velocity=0 time=0.3377977541666667
EXTRACT: note_on channel=0 note=49 velocity=0 time=0
EXTRACT: note_on channel=0 note=81 velocity=64 time=0.019345245833333333
EXTRACT: note_on channel=0 note=37 velocity=64 time=0
EXTRACT: note_on channel=0 note=59 velocity=0 time=0.3199406041666667
EXTRACT: note_on channel=0 note=64 velocity=0 time=0
EXTRACT: note_on channel=0 note=68 velocity=0 time=0
EXTRACT: note_on channel=0 note=37 velocity=0 time=0.017857150000000002
EXTRACT: note_on channel=0 note=61 velocity=64 time=0.019345245833333333
EXTRACT: note_on channel=0 note=66 velocity=64 time=0
EXTRACT: note_on channel=0 note=69 velocity=64 time=0
EXTRACT: note_on channel=0 note=42 velocity=64 time=0
EXTRACT: note_on channel=0 note=52 velocity=64 time=0
EXTRACT: note_on channel=0 note=81 velocity=0 time=0.3199406041666667
EXTRACT: note_on channel=0 note=80 velocity=68 time=0.03720239583333333
EXTRACT: note_on channel=0 note=61 velocity=0 time=0.3199406041666667
EXTRACT: note_on channel=0 note=66 velocity=0 time=0
EXTRACT: note_on channel=0 note=69 velocity=0 time=0
EXTRACT: note_on channel=0 note=61 velocity=72 time=0.03720239583333333
EXTRACT: note_on channel=0 note=66 velocity=72 time=0
EXTRACT: note_on channel=0 note=69 velocity=72 time=0
EXTRACT: note_on channel=0 note=80 velocity=0 time=0.3199406041666667
EXTRACT: note_on channel=0 note=78 velocity=76 time=0.03720239583333333
EXTRACT: note_on channel=0 note=61 velocity=0 time=0.3199406041666667
EXTRACT: note_on channel=0 note=66 velocity=0 time=0
EXTRACT: note_on channel=0 note=69 velocity=0 time=0
EXTRACT: note_on channel=0 note=61 velocity=80 time=0.03720239583333333
EXTRACT: note_on channel=0 note=66 velocity=80 time=0
EXTRACT: note_on channel=0 note=69 velocity=80 time=0
EXTRACT: note_on channel=0 note=78 velocity=0 time=0.3199406041666667
EXTRACT: note_on channel=0 note=80 velocity=84 time=0.03720239583333333
EXTRACT: note_on channel=0 note=61 velocity=0 time=0.3199406041666667
EXTRACT: note_on channel=0 note=66 velocity=0 time=0
EXTRACT: note_on channel=0 note=69 velocity=0 time=0
EXTRACT: note_on channel=0 note=61 velocity=88 time=0.03720239583333333
EXTRACT: note_on channel=0 note=66 velocity=88 time=0
EXTRACT: note_on channel=0 note=69 velocity=88 time=0
EXTRACT: note_on channel=0 note=42 velocity=0 time=0.23065485416666667
EXTRACT: note_on channel=0 note=52 velocity=0 time=0
EXTRACT: note_on channel=0 note=80 velocity=0 time=0.08928575
EXTRACT: note_on channel=0 note=78 velocity=92 time=0.03720239583333333
EXTRACT: note_on channel=0 note=42 velocity=92 time=0
EXTRACT: note_on channel=0 note=61 velocity=0 time=0.3199406041666667
EXTRACT: note_on channel=0 note=66 velocity=0 time=0
EXTRACT: note_on channel=0 note=69 velocity=0 time=0
EXTRACT: note_on channel=0 note=42 velocity=0 time=0.017857150000000002
EXTRACT: note_on channel=0 note=57 velocity=96 time=0.019345245833333333
EXTRACT: note_on channel=0 note=60 velocity=96 time=0
EXTRACT: note_on channel=0 note=63 velocity=96 time=0
EXTRACT: note_on channel=0 note=66 velocity=96 time=0
EXTRACT: note_on channel=0 note=38 velocity=96 time=0
EXTRACT: note_on channel=0 note=50 velocity=96 time=0
EXTRACT: note_on channel=0 note=78 velocity=0 time=0.6592264541666667
EXTRACT: note_on channel=0 note=57 velocity=0 time=0.017857150000000002
EXTRACT: note_on channel=0 note=60 velocity=0 time=0
EXTRACT: note_on channel=0 note=63 velocity=0 time=0
EXTRACT: note_on channel=0 note=66 velocity=0 time=0
EXTRACT: note_on channel=0 note=57 velocity=96 time=0.03720239583333333
EXTRACT: note_on channel=0 note=60 velocity=96 time=0
EXTRACT: note_on channel=0 note=63 velocity=96 time=0
EXTRACT: note_on channel=0 note=66 velocity=96 time=0
EXTRACT: note_on channel=0 note=38 velocity=0 time=0.30208345416666665
EXTRACT: note_on channel=0 note=50 velocity=0 time=0
EXTRACT: note_on channel=0 note=71 velocity=96 time=0.055059545833333334
EXTRACT: note_on channel=0 note=38 velocity=96 time=0
EXTRACT: note_on channel=0 note=71 velocity=0 time=0.16815482916666666
EXTRACT: note_on channel=0 note=71 velocity=96 time=0.010416670833333334
EXTRACT: note_on channel=0 note=57 velocity=0 time=0.14136910416666668
EXTRACT: note_on channel=0 note=60 velocity=0 time=0
EXTRACT: note_on channel=0 note=63 velocity=0 time=0
EXTRACT: note_on channel=0 note=66 velocity=0 time=0
EXTRACT: note_on channel=0 note=38 velocity=0 time=0.017857150000000002
EXTRACT: note_on channel=0 note=71 velocity=0 time=0.008928575000000001
EXTRACT: note_on channel=0 note=80 velocity=96 time=0.010416670833333334
EXTRACT: note_on channel=0 note=59 velocity=96 time=0
EXTRACT: note_on channel=0 note=62 velocity=96 time=0
EXTRACT: note_on channel=0 note=65 velocity=96 time=0
EXTRACT: note_on channel=0 note=68 velocity=96 time=0
EXTRACT: note_on channel=0 note=34 velocity=96 time=0
EXTRACT: note_on channel=0 note=46 velocity=96 time=0
EXTRACT: note_on channel=0 note=80 velocity=0 time=0.3377977541666667
EXTRACT: note_on channel=0 note=78 velocity=96 time=0.019345245833333333
EXTRACT: note_on channel=0 note=59 velocity=0 time=0.3199406041666667
EXTRACT: note_on channel=0 note=62 velocity=0 time=0
EXTRACT: note_on channel=0 note=65 velocity=0 time=0
EXTRACT: note_on channel=0 note=68 velocity=0 time=0
EXTRACT: note_on channel=0 note=78 velocity=0 time=0.017857150000000002
EXTRACT: note_on channel=0 note=76 velocity=96 time=0.019345245833333333
EXTRACT: note_on channel=0 note=59 velocity=96 time=0
EXTRACT: note_on channel=0 note=62 velocity=96 time=0
EXTRACT: note_on channel=0 note=65 velocity=96 time=0
EXTRACT: note_on channel=0 note=68 velocity=96 time=0
EXTRACT: note_on channel=0 note=76 velocity=0 time=0.3377977541666667
EXTRACT: note_on channel=0 note=75 velocity=96 time=0.019345245833333333
EXTRACT: note_on channel=0 note=34 velocity=0 time=0.28422630416666667
EXTRACT: note_on channel=0 note=46 velocity=0 time=0
EXTRACT: note_on channel=0 note=59 velocity=0 time=0.035714300000000004
EXTRACT: note_on channel=0 note=62 velocity=0 time=0
EXTRACT: note_on channel=0 note=65 velocity=0 time=0
EXTRACT: note_on channel=0 note=68 velocity=0 time=0
EXTRACT: note_on channel=0 note=75 velocity=0 time=0.017857150000000002
EXTRACT: note_on channel=0 note=75 velocity=96 time=0.019345245833333333
EXTRACT: note_on channel=0 note=57 velocity=96 time=0
EXTRACT: note_on channel=0 note=61 velocity=96 time=0
EXTRACT: note_on channel=0 note=64 velocity=96 time=0
EXTRACT: note_on channel=0 note=33 velocity=96 time=0
EXTRACT: note_on channel=0 note=45 velocity=96 time=0
EXTRACT: note_on channel=0 note=75 velocity=0 time=0.3377977541666667
EXTRACT: note_on channel=0 note=76 velocity=94 time=0.019345245833333333
EXTRACT: note_on channel=0 note=57 velocity=0 time=0.3199406041666667
EXTRACT: note_on channel=0 note=61 velocity=0 time=0
EXTRACT: note_on channel=0 note=64 velocity=0 time=0
EXTRACT: note_on channel=0 note=76 velocity=0 time=0.017857150000000002
EXTRACT: note_on channel=0 note=57 velocity=92 time=0.019345245833333333
EXTRACT: note_on channel=0 note=61 velocity=92 time=0
EXTRACT: note_on channel=0 note=64 velocity=92 time=0
EXTRACT: note_on channel=0 note=57 velocity=0 time=0.6770836041666667
EXTRACT: note_on channel=0 note=61 velocity=0 time=0
EXTRACT: note_on channel=0 note=64 velocity=0 time=0
EXTRACT: note_on channel=0 note=75 velocity=88 time=0.03720239583333333
EXTRACT: note_on channel=0 note=57 velocity=88 time=0
EXTRACT: note_on channel=0 note=61 velocity=88 time=0
EXTRACT: note_on channel=0 note=64 velocity=88 time=0
EXTRACT: note_on channel=0 note=75 velocity=0 time=0.3377977541666667
EXTRACT: note_on channel=0 note=76 velocity=86 time=0.019345245833333333
EXTRACT: note_on channel=0 note=33 velocity=0 time=0.24851200416666666
EXTRACT: note_on channel=0 note=45 velocity=0 time=0
EXTRACT: note_on channel=0 note=57 velocity=0 time=0.07142860000000001
EXTRACT: note_on channel=0 note=61 velocity=0 time=0
EXTRACT: note_on channel=0 note=64 velocity=0 time=0
EXTRACT: note_on channel=0 note=76 velocity=0 time=0.017857150000000002
EXTRACT: note_on channel=0 note=57 velocity=84 time=0.019345245833333333
EXTRACT: note_on channel=0 note=61 velocity=84 time=0
EXTRACT: note_on channel=0 note=64 velocity=84 time=0
EXTRACT: note_on channel=0 note=35 velocity=84 time=0
EXTRACT: note_on channel=0 note=47 velocity=84 time=0
EXTRACT: note_on channel=0 note=57 velocity=0 time=0.6770836041666667
EXTRACT: note_on channel=0 note=61 velocity=0 time=0
EXTRACT: note_on channel=0 note=64 velocity=0 time=0
EXTRACT: note_on channel=0 note=35 velocity=0 time=0
EXTRACT: note_on channel=0 note=47 velocity=0 time=0
EXTRACT: note_on channel=0 note=75 velocity=80 time=0.03720239583333333
EXTRACT: note_on channel=0 note=61 velocity=80 time=0
EXTRACT: note_on channel=0 note=64 velocity=80 time=0
EXTRACT: note_on channel=0 note=68 velocity=80 time=0
EXTRACT: note_on channel=0 note=37 velocity=80 time=0
EXTRACT: note_on channel=0 note=49 velocity=80 time=0
EXTRACT: note_on channel=0 note=75 velocity=0 time=0.3377977541666667
EXTRACT: note_on channel=0 note=76 velocity=80 time=0.019345245833333333
EXTRACT: note_on channel=0 note=61 velocity=0 time=0.3199406041666667
EXTRACT: note_on channel=0 note=64 velocity=0 time=0
EXTRACT: note_on channel=0 note=68 velocity=0 time=0
EXTRACT: note_on channel=0 note=61 velocity=80 time=0.03720239583333333
EXTRACT: note_on channel=0 note=64 velocity=80 time=0
EXTRACT: note_on channel=0 note=68 velocity=80 time=0
EXTRACT: note_on channel=0 note=76 velocity=0 time=0.3199406041666667
EXTRACT: note_on channel=0 note=76 velocity=80 time=0.03720239583333333
EXTRACT: note_on channel=0 note=61 velocity=0 time=0.3199406041666667
EXTRACT: note_on channel=0 note=64 velocity=0 time=0
EXTRACT: note_on channel=0 note=68 velocity=0 time=0
EXTRACT: note_on channel=0 note=76 velocity=0 time=0.017857150000000002
EXTRACT: note_on channel=0 note=76 velocity=80 time=0.019345245833333333
EXTRACT: note_on channel=0 note=61 velocity=80 time=0
EXTRACT: note_on channel=0 note=64 velocity=80 time=0
EXTRACT: note_on channel=0 note=68 velocity=80 time=0
EXTRACT: note_on channel=0 note=76 velocity=0 time=0.3377977541666667
EXTRACT: note_on channel=0 note=71 velocity=80 time=0.019345245833333333
EXTRACT: note_on channel=0 note=61 velocity=0 time=0.3199406041666667
EXTRACT: note_on channel=0 note=64 velocity=0 time=0
EXTRACT: note_on channel=0 note=68 velocity=0 time=0
EXTRACT: note_on channel=0 note=61 velocity=80 time=0.03720239583333333
EXTRACT: note_on channel=0 note=64 velocity=80 time=0
EXTRACT: note_on channel=0 note=68 velocity=80 time=0
EXTRACT: note_on channel=0 note=71 velocity=0 time=0.3199406041666667
EXTRACT: note_on channel=0 note=37 velocity=0 time=0.2500001
EXTRACT: note_on channel=0 note=49 velocity=0 time=0
EXTRACT: note_on channel=0 note=61 velocity=0 time=0.1071429
EXTRACT: note_on channel=0 note=64 velocity=0 time=0
EXTRACT: note_on channel=0 note=68 velocity=0 time=0
EXTRACT: note_on channel=0 note=59 velocity=80 time=0.03720239583333333
EXTRACT: note_on channel=0 note=64 velocity=80 time=0
EXTRACT: note_on channel=0 note=68 velocity=80 time=0
EXTRACT: note_on channel=0 note=40 velocity=80 time=0
EXTRACT: note_on channel=0 note=52 velocity=80 time=0
EXTRACT: note_on channel=0 note=59 velocity=0 time=0.6770836041666667
EXTRACT: note_on channel=0 note=64 velocity=0 time=0
EXTRACT: note_on channel=0 note=68 velocity=0 time=0
EXTRACT: note_on channel=0 note=76 velocity=80 time=0.03720239583333333
EXTRACT: note_on channel=0 note=59 velocity=80 time=0
EXTRACT: note_on channel=0 note=64 velocity=80 time=0
EXTRACT: note_on channel=0 note=68 velocity=80 time=0
EXTRACT: note_on channel=0 note=76 velocity=0 time=0.3377977541666667
EXTRACT: note_on channel=0 note=76 velocity=80 time=0.019345245833333333
EXTRACT: note_on channel=0 note=59 velocity=0 time=0.3199406041666667
EXTRACT: note_on channel=0 note=64 velocity=0 time=0
EXTRACT: note_on channel=0 note=68 velocity=0 time=0
EXTRACT: note_on channel=0 note=59 velocity=80 time=0.03720239583333333
EXTRACT: note_on channel=0 note=64 velocity=80 time=0
EXTRACT: note_on channel=0 note=68 velocity=80 time=0
EXTRACT: note_on channel=0 note=76 velocity=0 time=0.3199406041666667
EXTRACT: note_on channel=0 note=71 velocity=80 time=0.03720239583333333
EXTRACT: note_on channel=0 note=59 velocity=0 time=0.3199406041666667
EXTRACT: note_on channel=0 note=64 velocity=0 time=0
EXTRACT: note_on channel=0 note=68 velocity=0 time=0
EXTRACT: note_on channel=0 note=71 velocity=0 time=0.017857150000000002
EXTRACT: note_on channel=0 note=71 velocity=80 time=0.019345245833333333
EXTRACT: note_on channel=0 note=59 velocity=80 time=0
EXTRACT: note_on channel=0 note=64 velocity=80 time=0
EXTRACT: note_on channel=0 note=68 velocity=80 time=0
EXTRACT: note_on channel=0 note=71 velocity=0 time=0.16815482916666666
EXTRACT: note_on channel=0 note=68 velocity=80 time=0.010416670833333334
EXTRACT: note_on channel=0 note=68 velocity=0 time=0.16815482916666666
EXTRACT: note_on channel=0 note=69 velocity=80 time=0.010416670833333334
EXTRACT: note_on channel=0 note=40 velocity=0 time=0.21279770416666668
EXTRACT: note_on channel=0 note=52 velocity=0 time=0
EXTRACT: note_on channel=0 note=59 velocity=0 time=0.1071429
EXTRACT: note_on channel=0 note=64 velocity=0 time=0
EXTRACT: note_on channel=0 note=68 velocity=0 time=0
EXTRACT: note_on channel=0 note=57 velocity=80 time=0.03720239583333333
EXTRACT: note_on channel=0 note=61 velocity=80 time=0
EXTRACT: note_on channel=0 note=64 velocity=80 time=0
EXTRACT: note_on channel=0 note=33 velocity=80 time=0
EXTRACT: note_on channel=0 note=45 velocity=80 time=0
EXTRACT: note_on channel=0 note=69 velocity=0 time=0.6592264541666667
EXTRACT: note_on channel=0 note=57 velocity=0 time=0.017857150000000002
EXTRACT: note_on channel=0 note=61 velocity=0 time=0
EXTRACT: note_on channel=0 note=64 velocity=0 time=0
EXTRACT: note_on channel=0 note=57 velocity=84 time=0.03720239583333333
EXTRACT: note_on channel=0 note=61 velocity=84 time=0
EXTRACT: note_on channel=0 note=64 velocity=84 time=0
EXTRACT: note_on channel=0 note=76 velocity=86 time=0.357143
EXTRACT: note_on channel=0 note=57 velocity=0 time=0.3199406041666667
EXTRACT: note_on channel=0 note=61 velocity=0 time=0
EXTRACT: note_on channel=0 note=64 velocity=0 time=0
EXTRACT: note_on channel=0 note=76 velocity=0 time=0.017857150000000002
EXTRACT: note_on channel=0 note=83 velocity=88 time=0.019345245833333333
EXTRACT: note_on channel=0 note=57 velocity=88 time=0
EXTRACT: note_on channel=0 note=61 velocity=88 time=0
EXTRACT: note_on channel=0 note=64 velocity=88 time=0
EXTRACT: note_on channel=0 note=83 velocity=0 time=0.3377977541666667
EXTRACT: note_on channel=0 note=81 velocity=90 time=0.019345245833333333
EXTRACT: note_on channel=0 note=57 velocity=0 time=0.3199406041666667
EXTRACT: note_on channel=0 note=61 velocity=0 time=0
EXTRACT: note_on channel=0 note=64 velocity=0 time=0
EXTRACT: note_on channel=0 note=81 velocity=0 time=0.017857150000000002
EXTRACT: note_on channel=0 note=80 velocity=92 time=0.019345245833333333
EXTRACT: note_on channel=0 note=57 velocity=92 time=0
EXTRACT: note_on channel=0 note=61 velocity=92 time=0
EXTRACT: note_on channel=0 note=64 velocity=92 time=0
EXTRACT: note_on channel=0 note=80 velocity=0 time=0.16815482916666666
EXTRACT: note_on channel=0 note=78 velocity=93 time=0.010416670833333334
EXTRACT: note_on channel=0 note=78 velocity=0 time=0.16815482916666666
EXTRACT: note_on channel=0 note=81 velocity=94 time=0.010416670833333334
EXTRACT: note_on channel=0 note=33 velocity=0 time=0.21279770416666668
EXTRACT: note_on channel=0 note=45 velocity=0 time=0
EXTRACT: note_on channel=0 note=57 velocity=0 time=0.1071429
EXTRACT: note_on channel=0 note=61 velocity=0 time=0
EXTRACT: note_on channel=0 note=64 velocity=0 time=0
EXTRACT: note_on channel=0 note=61 velocity=96 time=0.03720239583333333
EXTRACT: note_on channel=0 note=66 velocity=96 time=0
EXTRACT: note_on channel=0 note=69 velocity=96 time=0
EXTRACT: note_on channel=0 note=42 velocity=96 time=0
EXTRACT: note_on channel=0 note=52 velocity=96 time=0
EXTRACT: note_on channel=0 note=81 velocity=0 time=0.6592264541666667
EXTRACT: note_on channel=0 note=61 velocity=0 time=0.017857150000000002
EXTRACT: note_on channel=0 note=66 velocity=0 time=0
EXTRACT: note_on channel=0 note=69 velocity=0 time=0
EXTRACT: note_on channel=0 note=61 velocity=96 time=0.03720239583333333
EXTRACT: note_on channel=0 note=66 velocity=96 time=0
EXTRACT: note_on channel=0 note=69 velocity=96 time=0
EXTRACT: note_on channel=0 note=78 velocity=96 time=0.357143
EXTRACT: note_on channel=0 note=61 velocity=0 time=0.3199406041666667
EXTRACT: note_on channel=0 note=66 velocity=0 time=0
EXTRACT: note_on channel=0 note=69 velocity=0 time=0
EXTRACT: note_on channel=0 note=78 velocity=0 time=0.017857150000000002
EXTRACT: note_on channel=0 note=83 velocity=96 time=0.019345245833333333
EXTRACT: note_on channel=0 note=61 velocity=96 time=0
EXTRACT: note_on channel=0 note=69 velocity=96 time=0
EXTRACT: note_on channel=0 note=83 velocity=0 time=0.3377977541666667
EXTRACT: note_on channel=0 note=81 velocity=96 time=0.019345245833333333
EXTRACT: note_on channel=0 note=61 velocity=0 time=0.3199406041666667
EXTRACT: note_on channel=0 note=69 velocity=0 time=0
EXTRACT: note_on channel=0 note=81 velocity=0 time=0.017857150000000002
EXTRACT: note_on channel=0 note=80 velocity=96 time=0.019345245833333333
EXTRACT: note_on channel=0 note=61 velocity=96 time=0
EXTRACT: note_on channel=0 note=66 velocity=96 time=0
EXTRACT: note_on channel=0 note=69 velocity=96 time=0
EXTRACT: note_on channel=0 note=80 velocity=0 time=0.5074406791666667
EXTRACT: note_on channel=0 note=78 velocity=96 time=0.028273820833333334
EXTRACT: note_on channel=0 note=42 velocity=0 time=0.03422620416666667
EXTRACT: note_on channel=0 note=52 velocity=0 time=0
EXTRACT: note_on channel=0 note=61 velocity=0 time=0.1071429
EXTRACT: note_on channel=0 note=66 velocity=0 time=0
EXTRACT: note_on channel=0 note=69 velocity=0 time=0
EXTRACT: note_on channel=0 note=78 velocity=0 time=0.026785725
EXTRACT: note_on channel=0 note=81 velocity=96 time=0.010416670833333334
EXTRACT: note_on channel=0 note=57 velocity=96 time=0
EXTRACT: note_on channel=0 note=61 velocity=96 time=0
EXTRACT: note_on channel=0 note=64 velocity=96 time=0
EXTRACT: note_on channel=0 note=45 velocity=96 time=0
EXTRACT: note_on channel=0 note=81 velocity=0 time=0.6770836041666667
EXTRACT: note_on channel=0 note=57 velocity=0 time=0
EXTRACT: note_on channel=0 note=61 velocity=0 time=0
EXTRACT: note_on channel=0 note=64 velocity=0 time=0
EXTRACT: note_on channel=0 note=57 velocity=96 time=0.03720239583333333
EXTRACT: note_on channel=0 note=61 velocity=96 time=0
EXTRACT: note_on channel=0 note=64 velocity=96 time=0
EXTRACT: note_on channel=0 note=71 velocity=96 time=0.357143
EXTRACT: note_on channel=0 note=57 velocity=0 time=0.3199406041666667
EXTRACT: note_on channel=0 note=61 velocity=0 time=0
EXTRACT: note_on channel=0 note=64 velocity=0 time=0
EXTRACT: note_on channel=0 note=71 velocity=0 time=0.017857150000000002
EXTRACT: note_on channel=0 note=81 velocity=96 time=0.019345245833333333
EXTRACT: note_on channel=0 note=57 velocity=96 time=0
EXTRACT: note_on channel=0 note=61 velocity=96 time=0
EXTRACT: note_on channel=0 note=64 velocity=96 time=0
EXTRACT: note_on channel=0 note=81 velocity=0 time=0.3377977541666667
EXTRACT: note_on channel=0 note=80 velocity=96 time=0.019345245833333333
EXTRACT: note_on channel=0 note=45 velocity=0 time=0.24851200416666666
EXTRACT: note_on channel=0 note=57 velocity=0 time=0.07142860000000001
EXTRACT: note_on channel=0 note=61 velocity=0 time=0
EXTRACT: note_on channel=0 note=64 velocity=0 time=0
EXTRACT: note_on channel=0 note=80 velocity=0 time=0.017857150000000002
EXTRACT: note_on channel=0 note=78 velocity=96 time=0.019345245833333333
EXTRACT: note_on channel=0 note=59 velocity=96 time=0
EXTRACT: note_on channel=0 note=63 velocity=96 time=0
EXTRACT: note_on channel=0 note=66 velocity=96 time=0
EXTRACT: note_on channel=0 note=35 velocity=96 time=0
EXTRACT: note_on channel=0 note=47 velocity=96 time=0
EXTRACT: note_on channel=0 note=78 velocity=0 time=0.3377977541666667
EXTRACT: note_on channel=0 note=76 velocity=96 time=0.019345245833333333
EXTRACT: note_on channel=0 note=59 velocity=0 time=0.3199406041666667
EXTRACT: note_on channel=0 note=63 velocity=0 time=0
EXTRACT: note_on channel=0 note=66 velocity=0 time=0
EXTRACT: note_on channel=0 note=35 velocity=0 time=0
EXTRACT: note_on channel=0 note=47 velocity=0 time=0
EXTRACT: note_on channel=0 note=61 velocity=96 time=0.03720239583333333
EXTRACT: note_on channel=0 note=64 velocity=96 time=0
EXTRACT: note_on channel=0 note=68 velocity=96 time=0
EXTRACT: note_on channel=0 note=37 velocity=96 time=0
EXTRACT: note_on channel=0 note=49 velocity=96 time=0
EXTRACT: note_on channel=0 note=76 velocity=0 time=0.3199406041666667
EXTRACT: note_on channel=0 note=76 velocity=95 time=0.03720239583333333
EXTRACT: note_on channel=0 note=61 velocity=0 time=0.3199406041666667
EXTRACT: note_on channel=0 note=64 velocity=0 time=0
EXTRACT: note_on channel=0 note=68 velocity=0 time=0
EXTRACT: note_on channel=0 note=61 velocity=94 time=0.03720239583333333
EXTRACT: note_on channel=0 note=64 velocity=94 time=0
EXTRACT: note_on channel=0 note=68 velocity=94 time=0
EXTRACT: note_on channel=0 note=76 velocity=0 time=0.3199406041666667
EXTRACT: note_on channel=0 note=61 velocity=0 time=0.357143
EXTRACT: note_on channel=0 note=64 velocity=0 time=0
EXTRACT: note_on channel=0 note=68 velocity=0 time=0
EXTRACT: note_on channel=0 note=61 velocity=92 time=0.03720239583333333
EXTRACT: note_on channel=0 note=64 velocity=92 time=0
EXTRACT: note_on channel=0 note=68 velocity=92 time=0
EXTRACT: note_on channel=0 note=61 velocity=0 time=0.6770836041666667
EXTRACT: note_on channel=0 note=64 velocity=0 time=0
EXTRACT: note_on channel=0 note=68 velocity=0 time=0
EXTRACT: note_on channel=0 note=61 velocity=90 time=0.03720239583333333
EXTRACT: note_on channel=0 note=64 velocity=90 time=0
EXTRACT: note_on channel=0 note=68 velocity=90 time=0
EXTRACT: note_on channel=0 note=37 velocity=0 time=0.23065485416666667
EXTRACT: note_on channel=0 note=49 velocity=0 time=0
EXTRACT: note_on channel=0 note=80 velocity=89 time=0.12648814583333334
EXTRACT: note_on channel=0 note=37 velocity=89 time=0
EXTRACT: note_on channel=0 note=80 velocity=0 time=0.17708340416666668
EXTRACT: note_on channel=0 note=76 velocity=89 time=0.0014880958333333334
EXTRACT: note_on channel=0 note=61 velocity=0 time=0.14136910416666668
EXTRACT: note_on channel=0 note=64 velocity=0 time=0
EXTRACT: note_on channel=0 note=68 velocity=0 time=0
EXTRACT: note_on channel=0 note=37 velocity=0 time=0.017857150000000002
EXTRACT: note_on channel=0 note=76 velocity=0 time=0.017857150000000002
EXTRACT: note_on channel=0 note=78 velocity=88 time=0.0014880958333333334
EXTRACT: note_on channel=0 note=58 velocity=88 time=0
EXTRACT: note_on channel=0 note=61 velocity=88 time=0
EXTRACT: note_on channel=0 note=66 velocity=88 time=0
EXTRACT: note_on channel=0 note=42 velocity=88 time=0
EXTRACT: note_on channel=0 note=52 velocity=88 time=0
EXTRACT: note_on channel=0 note=78 velocity=0 time=0.3556549041666667
EXTRACT: note_on channel=0 note=76 velocity=87 time=0.0014880958333333334
EXTRACT: note_on channel=0 note=76 velocity=0 time=0.17708340416666668
EXTRACT: note_on channel=0 note=73 velocity=87 time=0.0014880958333333334
EXTRACT: note_on channel=0 note=73 velocity=0 time=0.16815482916666666
EXTRACT: note_on channel=0 note=76 velocity=85 time=0.5461311708333334
EXTRACT: note_on channel=0 note=76 velocity=0 time=0.16815482916666666
EXTRACT: note_on channel=0 note=83 velocity=84 time=0.010416670833333334
EXTRACT: note_on channel=0 note=83 velocity=0 time=0.3377977541666667
EXTRACT: note_on channel=0 note=81 velocity=83 time=0.019345245833333333
EXTRACT: note_on channel=0 note=42 velocity=0 time=0.24851200416666666
EXTRACT: note_on channel=0 note=52 velocity=0 time=0
EXTRACT: note_on channel=0 note=81 velocity=0 time=0.08928575
EXTRACT: note_on channel=0 note=80 velocity=82 time=0.019345245833333333
EXTRACT: note_on channel=0 note=42 velocity=82 time=0
EXTRACT: note_on channel=0 note=80 velocity=0 time=0.16815482916666666
EXTRACT: note_on channel=0 note=78 velocity=82 time=0.010416670833333334
EXTRACT: note_on channel=0 note=42 velocity=0 time=0.15922625416666666
EXTRACT: note_on channel=0 note=78 velocity=0 time=0.008928575000000001
EXTRACT: note_on channel=0 note=81 velocity=81 time=0.010416670833333334
EXTRACT: note_on channel=0 note=44 velocity=81 time=0
EXTRACT: note_on channel=0 note=44 velocity=0 time=0.3377977541666667
EXTRACT: note_on channel=0 note=58 velocity=0 time=0.017857150000000002
EXTRACT: note_on channel=0 note=61 velocity=0 time=0
EXTRACT: note_on channel=0 note=66 velocity=0 time=0
EXTRACT: note_on channel=0 note=57 velocity=80 time=0.0014880958333333334
EXTRACT: note_on channel=0 note=61 velocity=80 time=0
EXTRACT: note_on channel=0 note=64 velocity=80 time=0
EXTRACT: note_on channel=0 note=45 velocity=80 time=0
EXTRACT: note_on channel=0 note=81 velocity=0 time=0.6592264541666667
EXTRACT: note_on channel=0 note=57 velocity=0 time=0.017857150000000002
EXTRACT: note_on channel=0 note=61 velocity=0 time=0
EXTRACT: note_on channel=0 note=64 velocity=0 time=0
EXTRACT: note_on channel=0 note=57 velocity=78 time=0.03720239583333333
EXTRACT: note_on channel=0 note=61 velocity=78 time=0
EXTRACT: note_on channel=0 note=64 velocity=78 time=0
EXTRACT: note_on channel=0 note=78 velocity=77 time=0.357143
EXTRACT: note_on channel=0 note=57 velocity=0 time=0.3199406041666667
EXTRACT: note_on channel=0 note=61 velocity=0 time=0
EXTRACT: note_on channel=0 note=64 velocity=0 time=0
EXTRACT: note_on channel=0 note=78 velocity=0 time=0.017857150000000002
EXTRACT: note_on channel=0 note=83 velocity=76 time=0.019345245833333333
EXTRACT: note_on channel=0 note=57 velocity=76 time=0
EXTRACT: note_on channel=0 note=61 velocity=76 time=0
EXTRACT: note_on channel=0 note=64 velocity=76 time=0
EXTRACT: note_on channel=0 note=83 velocity=0 time=0.3377977541666667
EXTRACT: note_on channel=0 note=81 velocity=75 time=0.019345245833333333
EXTRACT: note_on channel=0 note=57 velocity=0 time=0.3199406041666667
EXTRACT: note_on channel=0 note=61 velocity=0 time=0
EXTRACT: note_on channel=0 note=64 velocity=0 time=0
EXTRACT: note_on channel=0 note=81 velocity=0 time=0.017857150000000002
EXTRACT: note_on channel=0 note=80 velocity=74 time=0.019345245833333333
EXTRACT: note_on channel=0 note=57 velocity=74 time=0
EXTRACT: note_on channel=0 note=61 velocity=74 time=0
EXTRACT: note_on channel=0 note=64 velocity=74 time=0
EXTRACT: note_on channel=0 note=80 velocity=0 time=0.5074406791666667
EXTRACT: note_on channel=0 note=78 velocity=73 time=0.028273820833333334
EXTRACT: note_on channel=0 note=45 velocity=0 time=0.03422620416666667
EXTRACT: note_on channel=0 note=57 velocity=0 time=0.1071429
EXTRACT: note_on channel=0 note=61 velocity=0 time=0
EXTRACT: note_on channel=0 note=64 velocity=0 time=0
EXTRACT: note_on channel=0 note=78 velocity=0 time=0.026785725
EXTRACT: note_on channel=0 note=81 velocity=72 time=0.010416670833333334
EXTRACT: note_on channel=0 note=59 velocity=72 time=0
EXTRACT: note_on channel=0 note=63 velocity=72 time=0
EXTRACT: note_on channel=0 note=66 velocity=72 time=0
EXTRACT: note_on channel=0 note=47 velocity=72 time=0
EXTRACT: note_on channel=0 note=81 velocity=0 time=0.6770836041666667
EXTRACT: note_on channel=0 note=59 velocity=0 time=0
EXTRACT: note_on channel=0 note=63 velocity=0 time=0
EXTRACT: note_on channel=0 note=66 velocity=0 time=0
EXTRACT: note_on channel=0 note=59 velocity=70 time=0.03720239583333333
EXTRACT: note_on channel=0 note=63 velocity=70 time=0
EXTRACT: note_on channel=0 note=66 velocity=70 time=0
EXTRACT: note_on channel=0 note=71 velocity=69 time=0.357143
EXTRACT: note_on channel=0 note=59 velocity=0 time=0.3199406041666667
EXTRACT: note_on channel=0 note=63 velocity=0 time=0
EXTRACT: note_on channel=0 note=66 velocity=0 time=0
EXTRACT: note_on channel=0 note=71 velocity=0 time=0.017857150000000002
EXTRACT: note_on channel=0 note=81 velocity=68 time=0.019345245833333333
EXTRACT: note_on channel=0 note=59 velocity=68 time=0
EXTRACT: note_on channel=0 note=63 velocity=68 time=0
EXTRACT: note_on channel=0 note=66 velocity=68 time=0
EXTRACT: note_on channel=0 note=81 velocity=0 time=0.3377977541666667
EXTRACT: note_on channel=0 note=80 velocity=67 time=0.019345245833333333
EXTRACT: note_on channel=0 note=59 velocity=0 time=0.3199406041666667
EXTRACT: note_on channel=0 note=63 velocity=0 time=0
EXTRACT: note_on channel=0 note=66 velocity=0 time=0
EXTRACT: note_on channel=0 note=80 velocity=0 time=0.017857150000000002
EXTRACT: note_on channel=0 note=78 velocity=66 time=0.019345245833333333
EXTRACT: note_on channel=0 note=59 velocity=66 time=0
EXTRACT: note_on channel=0 note=63 velocity=66 time=0
EXTRACT: note_on channel=0 note=66 velocity=66 time=0
EXTRACT: note_on channel=0 note=78 velocity=0 time=0.3377977541666667
EXTRACT: note_on channel=0 note=76 velocity=65 time=0.019345245833333333
EXTRACT: note_on channel=0 note=47 velocity=0 time=0.21279770416666668
EXTRACT: note_on channel=0 note=59 velocity=0 time=0.1071429
EXTRACT: note_on channel=0 note=63 velocity=0 time=0
EXTRACT: note_on channel=0 note=66 velocity=0 time=0
EXTRACT: note_on channel=0 note=61 velocity=64 time=0.03720239583333333
EXTRACT: note_on channel=0 note=64 velocity=64 time=0
EXTRACT: note_on channel=0 note=68 velocity=64 time=0
EXTRACT: note_on channel=0 note=37 velocity=64 time=0
EXTRACT: note_on channel=0 note=49 velocity=64 time=0
EXTRACT: note_on channel=0 note=76 velocity=0 time=0.3199406041666667
EXTRACT: note_on channel=0 note=76 velocity=80 time=0.03720239583333333
EXTRACT: note_on channel=0 note=76 velocity=0 time=0.6770836041666667
EXTRACT: note_on channel=0 note=61 velocity=0 time=1.6785721
EXTRACT: note_on channel=0 note=64 velocity=0 time=0
EXTRACT: note_on channel=0 note=68 velocity=0 time=0
EXTRACT: note_on channel=0 note=37 velocity=0 time=0
EXTRACT: note_on channel=0 note=49 velocity=0 time=0
MUSIC49 - Jealous.mid
INTERVALS49 - Jealous.mid
unison125
2m44
2M136
3m398
3M476
4m322
4M36
5m270
5M143
6m82
7m79
7M69