EXTRACT: control_change channel=0 control=101 value=0 time=0
EXTRACT: control_change channel=0 control=100 value=0 time=0
EXTRACT: control_change channel=0 control=6 value=12 time=0
EXTRACT: control_change channel=0 control=38 value=0 time=0
EXTRACT: control_change channel=1 control=101 value=0 time=0
EXTRACT: control_change channel=1 control=100 value=0 time=0
EXTRACT: control_change channel=1 control=6 value=12 time=0
EXTRACT: control_change channel=1 control=38 value=0 time=0
EXTRACT: control_change channel=2 control=101 value=0 time=0
EXTRACT: control_change channel=2 control=100 value=0 time=0
EXTRACT: control_change channel=2 control=6 value=12 time=0
EXTRACT: control_change channel=2 control=38 value=0 time=0
EXTRACT: control_change channel=3 control=101 value=0 time=0
EXTRACT: control_change channel=3 control=100 value=0 time=0
EXTRACT: control_change channel=3 control=6 value=12 time=0
EXTRACT: control_change channel=3 control=38 value=0 time=0
EXTRACT: control_change channel=4 control=101 value=0 time=0
EXTRACT: control_change channel=4 control=100 value=0 time=0
EXTRACT: control_change channel=4 control=6 value=12 time=0
EXTRACT: control_change channel=4 control=38 value=0 time=0
EXTRACT: control_change channel=5 control=101 value=0 time=0
EXTRACT: control_change channel=5 control=100 value=0 time=0
EXTRACT: control_change channel=5 control=6 value=12 time=0
EXTRACT: control_change channel=5 control=38 value=0 time=0
EXTRACT: control_change channel=6 control=101 value=0 time=0
EXTRACT: control_change channel=6 control=100 value=0 time=0
EXTRACT: control_change channel=6 control=6 value=12 time=0
EXTRACT: control_change channel=6 control=38 value=0 time=0
EXTRACT: control_change channel=7 control=101 value=0 time=0
EXTRACT: control_change channel=7 control=100 value=0 time=0
EXTRACT: control_change channel=7 control=6 value=12 time=0
EXTRACT: control_change channel=7 control=38 value=0 time=0
EXTRACT: control_change channel=8 control=101 value=0 time=0
EXTRACT: control_change channel=8 control=100 value=0 time=0
EXTRACT: control_change channel=8 control=6 value=12 time=0
EXTRACT: control_change channel=8 control=38 value=0 time=0
EXTRACT: control_change channel=9 control=101 value=0 time=0
EXTRACT: control_change channel=9 control=100 value=0 time=0
EXTRACT: control_change channel=9 control=6 value=12 time=0
EXTRACT: control_change channel=9 control=38 value=0 time=0
EXTRACT: control_change channel=10 control=101 value=0 time=0
EXTRACT: control_change channel=10 control=100 value=0 time=0
EXTRACT: control_change channel=10 control=6 value=12 time=0
EXTRACT: control_change channel=10 control=38 value=0 time=0
EXTRACT: control_change channel=11 control=101 value=0 time=0
EXTRACT: control_change channel=11 control=100 value=0 time=0
EXTRACT: control_change channel=11 control=6 value=12 time=0
EXTRACT: control_change channel=11 control=38 value=0 time=0
EXTRACT: control_change channel=12 control=101 value=0 time=0
EXTRACT: control_change channel=12 control=100 value=0 time=0
EXTRACT: control_change channel=12 control=6 value=12 time=0
EXTRACT: control_change channel=12 control=38 value=0 time=0
EXTRACT: control_change channel=13 control=101 value=0 time=0
EXTRACT: control_change channel=13 control=100 value=0 time=0
EXTRACT: control_change channel=13 control=6 value=12 time=0
EXTRACT: control_change channel=13 control=38 value=0 time=0
EXTRACT: control_change channel=14 control=101 value=0 time=0
EXTRACT: control_change channel=14 control=100 value=0 time=0
EXTRACT: control_change channel=14 control=6 value=12 time=0
EXTRACT: control_change channel=14 control=38 value=0 time=0
EXTRACT: control_change channel=15 control=101 value=0 time=0
EXTRACT: control_change channel=15 control=100 value=0 time=0
EXTRACT: control_change channel=15 control=6 value=12 time=0
EXTRACT: control_change channel=15 control=38 value=0 time=0
EXTRACT: pitchwheel channel=0 pitch=0 time=0
EXTRACT: control_change channel=0 control=7 value=127 time=0
EXTRACT: control_change channel=0 control=10 value=63 time=0
EXTRACT: control_change channel=0 control=93 value=0 time=0
EXTRACT: control_change channel=0 control=91 value=0 time=0
EXTRACT: control_change channel=0 control=95 value=0 time=0
EXTRACT: control_change channel=0 control=92 value=0 time=0
EXTRACT: control_change channel=0 control=11 value=127 time=0
EXTRACT: program_change channel=0 program=75 time=0
EXTRACT: control_change channel=1 control=7 value=127 time=0
EXTRACT: control_change channel=1 control=10 value=63 time=0
EXTRACT: control_change channel=1 control=93 value=0 time=0
EXTRACT: control_change channel=1 control=91 value=0 time=0
EXTRACT: control_change channel=1 control=95 value=0 time=0
EXTRACT: control_change channel=1 control=92 value=0 time=0
EXTRACT: control_change channel=1 control=11 value=127 time=0
EXTRACT: program_change channel=1 program=75 time=0
EXTRACT: pitchwheel channel=2 pitch=0 time=0
EXTRACT: control_change channel=2 control=7 value=95 time=0
EXTRACT: control_change channel=2 control=10 value=63 time=0
EXTRACT: control_change channel=2 control=93 value=0 time=0
EXTRACT: control_change channel=2 control=91 value=0 time=0
EXTRACT: control_change channel=2 control=95 value=0 time=0
EXTRACT: control_change channel=2 control=92 value=0 time=0
EXTRACT: control_change channel=2 control=11 value=127 time=0
EXTRACT: program_change channel=2 program=25 time=0
EXTRACT: control_change channel=3 control=7 value=95 time=0
EXTRACT: control_change channel=3 control=10 value=63 time=0
EXTRACT: control_change channel=3 control=93 value=0 time=0
EXTRACT: control_change channel=3 control=91 value=0 time=0
EXTRACT: control_change channel=3 control=95 value=0 time=0
EXTRACT: control_change channel=3 control=92 value=0 time=0
EXTRACT: control_change channel=3 control=11 value=127 time=0
EXTRACT: program_change channel=3 program=25 time=0
EXTRACT: note_on channel=2 note=72 velocity=79 time=0
EXTRACT: pitchwheel channel=4 pitch=0 time=0
EXTRACT: control_change channel=4 control=7 value=103 time=0
EXTRACT: control_change channel=4 control=10 value=63 time=0
EXTRACT: control_change channel=4 control=93 value=0 time=0
EXTRACT: control_change channel=4 control=91 value=0 time=0
EXTRACT: control_change channel=4 control=95 value=0 time=0
EXTRACT: control_change channel=4 control=92 value=0 time=0
EXTRACT: control_change channel=4 control=11 value=127 time=0
EXTRACT: program_change channel=4 program=49 time=0
EXTRACT: control_change channel=5 control=7 value=103 time=0
EXTRACT: control_change channel=5 control=10 value=63 time=0
EXTRACT: control_change channel=5 control=93 value=0 time=0
EXTRACT: control_change channel=5 control=91 value=0 time=0
EXTRACT: control_change channel=5 control=95 value=0 time=0
EXTRACT: control_change channel=5 control=92 value=0 time=0
EXTRACT: control_change channel=5 control=11 value=127 time=0
EXTRACT: program_change channel=5 program=49 time=0
EXTRACT: pitchwheel channel=6 pitch=0 time=0
EXTRACT: control_change channel=6 control=7 value=119 time=0
EXTRACT: control_change channel=6 control=10 value=63 time=0
EXTRACT: control_change channel=6 control=93 value=0 time=0
EXTRACT: control_change channel=6 control=91 value=0 time=0
EXTRACT: control_change channel=6 control=95 value=0 time=0
EXTRACT: control_change channel=6 control=92 value=0 time=0
EXTRACT: control_change channel=6 control=11 value=127 time=0
EXTRACT: program_change channel=6 program=33 time=0
EXTRACT: control_change channel=7 control=7 value=119 time=0
EXTRACT: control_change channel=7 control=10 value=63 time=0
EXTRACT: control_change channel=7 control=93 value=0 time=0
EXTRACT: control_change channel=7 control=91 value=0 time=0
EXTRACT: control_change channel=7 control=95 value=0 time=0
EXTRACT: control_change channel=7 control=92 value=0 time=0
EXTRACT: control_change channel=7 control=11 value=127 time=0
EXTRACT: program_change channel=7 program=33 time=0
EXTRACT: pitchwheel channel=9 pitch=0 time=0
EXTRACT: control_change channel=9 control=7 value=103 time=0
EXTRACT: control_change channel=9 control=10 value=63 time=0
EXTRACT: control_change channel=9 control=93 value=0 time=0
EXTRACT: control_change channel=9 control=91 value=0 time=0
EXTRACT: control_change channel=9 control=95 value=0 time=0
EXTRACT: control_change channel=9 control=92 value=0 time=0
EXTRACT: control_change channel=9 control=11 value=127 time=0
EXTRACT: program_change channel=9 program=0 time=0
EXTRACT: note_off channel=2 note=72 velocity=79 time=0.428571
EXTRACT: note_on channel=2 note=70 velocity=79 time=0
EXTRACT: note_off channel=2 note=70 velocity=79 time=0.2142855
EXTRACT: note_on channel=2 note=68 velocity=79 time=0
EXTRACT: note_off channel=2 note=68 velocity=79 time=0
EXTRACT: note_on channel=2 note=53 velocity=79 time=0
EXTRACT: note_off channel=2 note=53 velocity=79 time=0.428571
EXTRACT: note_on channel=2 note=60 velocity=79 time=0
EXTRACT: note_off channel=2 note=60 velocity=79 time=0.2142855
EXTRACT: note_on channel=2 note=65 velocity=79 time=0
EXTRACT: note_on channel=0 note=67 velocity=79 time=0.2142855
EXTRACT: note_off channel=2 note=65 velocity=79 time=0
EXTRACT: note_on channel=2 note=68 velocity=79 time=0
EXTRACT: note_off channel=2 note=68 velocity=79 time=0.2142855
EXTRACT: note_on channel=2 note=70 velocity=79 time=0
EXTRACT: note_off channel=0 note=67 velocity=79 time=0.2142855
EXTRACT: note_on channel=0 note=68 velocity=79 time=0
EXTRACT: note_off channel=2 note=70 velocity=79 time=0
EXTRACT: note_on channel=2 note=72 velocity=79 time=0
EXTRACT: note_off channel=2 note=72 velocity=79 time=0.428571
EXTRACT: note_on channel=2 note=65 velocity=79 time=0
EXTRACT: note_on channel=2 note=49 velocity=79 time=0
EXTRACT: note_off channel=2 note=65 velocity=79 time=0.428571
EXTRACT: note_off channel=2 note=49 velocity=79 time=0
EXTRACT: note_on channel=2 note=56 velocity=79 time=0
EXTRACT: note_off channel=2 note=56 velocity=79 time=0.2142855
EXTRACT: note_on channel=2 note=61 velocity=79 time=0
EXTRACT: note_off channel=0 note=68 velocity=79 time=0.2142855
EXTRACT: note_off channel=2 note=61 velocity=79 time=0
EXTRACT: note_on channel=2 note=68 velocity=79 time=0
EXTRACT: note_on channel=0 note=68 velocity=79 time=0.857142
EXTRACT: note_off channel=2 note=68 velocity=79 time=0
EXTRACT: note_on channel=2 note=68 velocity=79 time=0
EXTRACT: note_on channel=2 note=51 velocity=79 time=0
EXTRACT: note_off channel=2 note=68 velocity=79 time=0.428571
EXTRACT: note_off channel=2 note=51 velocity=79 time=0
EXTRACT: note_on channel=2 note=58 velocity=79 time=0
EXTRACT: note_off channel=0 note=68 velocity=79 time=0.428571
EXTRACT: note_on channel=0 note=67 velocity=79 time=0
EXTRACT: note_off channel=2 note=58 velocity=79 time=0
EXTRACT: note_on channel=2 note=67 velocity=79 time=0
EXTRACT: note_on channel=2 note=63 velocity=79 time=0
EXTRACT: note_off channel=2 note=67 velocity=79 time=1.714284
EXTRACT: note_off channel=2 note=63 velocity=79 time=0
EXTRACT: note_on channel=2 note=72 velocity=79 time=0
EXTRACT: note_off channel=2 note=72 velocity=79 time=0.2142855
EXTRACT: note_on channel=2 note=73 velocity=79 time=0
EXTRACT: note_off channel=0 note=67 velocity=79 time=0.2142855
EXTRACT: note_off channel=2 note=73 velocity=79 time=0
EXTRACT: note_on channel=2 note=75 velocity=79 time=0
EXTRACT: note_off channel=2 note=75 velocity=79 time=0.428571
EXTRACT: note_on channel=2 note=68 velocity=79 time=0
EXTRACT: note_on channel=2 note=53 velocity=79 time=0
EXTRACT: note_off channel=2 note=68 velocity=79 time=0.428571
EXTRACT: note_off channel=2 note=53 velocity=79 time=0
EXTRACT: note_on channel=2 note=60 velocity=79 time=0
EXTRACT: note_off channel=2 note=60 velocity=79 time=0.2142855
EXTRACT: note_on channel=2 note=68 velocity=79 time=0
EXTRACT: note_off channel=2 note=68 velocity=79 time=0.2142855
EXTRACT: note_on channel=2 note=72 velocity=79 time=0
EXTRACT: note_off channel=2 note=72 velocity=79 time=0.428571
EXTRACT: note_on channel=2 note=60 velocity=79 time=0
EXTRACT: note_off channel=2 note=60 velocity=79 time=0.2142855
EXTRACT: note_on channel=2 note=68 velocity=79 time=0
EXTRACT: note_off channel=2 note=68 velocity=79 time=0.2142855
EXTRACT: note_on channel=2 note=65 velocity=79 time=0
EXTRACT: note_on channel=2 note=49 velocity=79 time=0
EXTRACT: note_on channel=0 note=65 velocity=79 time=0.428571
EXTRACT: note_off channel=2 note=65 velocity=79 time=0
EXTRACT: note_off channel=2 note=49 velocity=79 time=0
EXTRACT: note_on channel=2 note=56 velocity=79 time=0
EXTRACT: note_off channel=2 note=56 velocity=79 time=0.2142855
EXTRACT: note_on channel=2 note=61 velocity=79 time=0
EXTRACT: note_off channel=0 note=65 velocity=79 time=0.2142855
EXTRACT: note_on channel=0 note=63 velocity=79 time=0
EXTRACT: note_off channel=2 note=61 velocity=79 time=0
EXTRACT: note_on channel=2 note=68 velocity=79 time=0
EXTRACT: note_off channel=0 note=63 velocity=79 time=0.428571
EXTRACT: note_on channel=0 note=61 velocity=79 time=0
EXTRACT: note_off channel=2 note=68 velocity=79 time=0
EXTRACT: note_on channel=2 note=65 velocity=79 time=0
EXTRACT: note_off channel=2 note=65 velocity=79 time=0.2142855
EXTRACT: note_on channel=2 note=68 velocity=79 time=0
EXTRACT: note_off channel=0 note=61 velocity=79 time=0.2142855
EXTRACT: note_on channel=0 note=60 velocity=79 time=0
EXTRACT: note_off channel=2 note=68 velocity=79 time=0
EXTRACT: note_on channel=2 note=70 velocity=79 time=0
EXTRACT: note_on channel=2 note=51 velocity=79 time=0
EXTRACT: note_off channel=0 note=60 velocity=79 time=0.428571
EXTRACT: note_on channel=0 note=58 velocity=79 time=0
EXTRACT: note_off channel=0 note=58 velocity=79 time=1.285713
EXTRACT: note_off channel=2 note=70 velocity=79 time=0.857142
EXTRACT: note_off channel=2 note=51 velocity=79 time=0
EXTRACT: note_on channel=2 note=58 velocity=79 time=0
EXTRACT: note_off channel=2 note=58 velocity=79 time=0.2142855
EXTRACT: note_on channel=2 note=63 velocity=79 time=0
EXTRACT: note_off channel=2 note=63 velocity=79 time=0.2142855
EXTRACT: note_on channel=2 note=67 velocity=79 time=0
EXTRACT: note_off channel=2 note=67 velocity=79 time=0.2142855
EXTRACT: note_on channel=2 note=68 velocity=79 time=0
EXTRACT: note_off channel=2 note=68 velocity=79 time=0.2142855
EXTRACT: note_on channel=2 note=63 velocity=79 time=0
EXTRACT: note_on channel=2 note=56 velocity=79 time=0
EXTRACT: note_on channel=2 note=51 velocity=79 time=0
EXTRACT: note_on channel=2 note=44 velocity=79 time=0
EXTRACT: note_on channel=0 note=72 velocity=79 time=0.428571
EXTRACT: note_off channel=0 note=72 velocity=79 time=0.428571
EXTRACT: note_on channel=0 note=72 velocity=79 time=0
EXTRACT: note_off channel=2 note=63 velocity=79 time=0
EXTRACT: note_off channel=2 note=56 velocity=79 time=0
EXTRACT: note_off channel=2 note=51 velocity=79 time=0
EXTRACT: note_off channel=2 note=44 velocity=79 time=0
EXTRACT: note_on channel=2 note=68 velocity=79 time=0
EXTRACT: note_on channel=2 note=63 velocity=79 time=0
EXTRACT: note_on channel=2 note=60 velocity=79 time=0
EXTRACT: note_off channel=0 note=72 velocity=79 time=0.428571
EXTRACT: note_on channel=0 note=68 velocity=79 time=0
EXTRACT: note_off channel=2 note=68 velocity=79 time=0
EXTRACT: note_off channel=2 note=63 velocity=79 time=0
EXTRACT: note_off channel=2 note=60 velocity=79 time=0
EXTRACT: note_on channel=2 note=63 velocity=79 time=0
EXTRACT: note_off channel=2 note=63 velocity=79 time=0.2142855
EXTRACT: note_on channel=2 note=68 velocity=79 time=0
EXTRACT: note_off channel=0 note=68 velocity=79 time=0.2142855
EXTRACT: note_on channel=0 note=75 velocity=79 time=0
EXTRACT: note_off channel=2 note=68 velocity=79 time=0
EXTRACT: note_on channel=2 note=67 velocity=79 time=0
EXTRACT: note_on channel=2 note=63 velocity=79 time=0
EXTRACT: note_on channel=2 note=60 velocity=79 time=0
EXTRACT: note_on channel=2 note=55 velocity=79 time=0
EXTRACT: note_on channel=2 note=48 velocity=79 time=0
EXTRACT: note_off channel=2 note=67 velocity=79 time=0.857142
EXTRACT: note_off channel=2 note=63 velocity=79 time=0
EXTRACT: note_off channel=2 note=60 velocity=79 time=0
EXTRACT: note_off channel=2 note=55 velocity=79 time=0
EXTRACT: note_off channel=2 note=48 velocity=79 time=0
EXTRACT: note_on channel=2 note=67 velocity=79 time=0
EXTRACT: note_on channel=2 note=63 velocity=79 time=0
EXTRACT: note_on channel=2 note=60 velocity=79 time=0
EXTRACT: note_off channel=0 note=75 velocity=79 time=0.2142855
EXTRACT: note_on channel=0 note=70 velocity=79 time=0.2142855
EXTRACT: note_off channel=0 note=70 velocity=79 time=0.2142855
EXTRACT: note_on channel=0 note=72 velocity=79 time=0
EXTRACT: note_off channel=2 note=67 velocity=79 time=0
EXTRACT: note_off channel=2 note=63 velocity=79 time=0
EXTRACT: note_off channel=2 note=60 velocity=79 time=0
EXTRACT: note_on channel=2 note=48 velocity=79 time=0
EXTRACT: note_off channel=2 note=48 velocity=79 time=0.2142855
EXTRACT: note_on channel=2 note=68 velocity=79 time=0
EXTRACT: note_on channel=2 note=65 velocity=79 time=0
EXTRACT: note_on channel=2 note=60 velocity=79 time=0
EXTRACT: note_on channel=2 note=53 velocity=79 time=0
EXTRACT: note_on channel=2 note=48 velocity=79 time=0
EXTRACT: note_on channel=2 note=41 velocity=79 time=0
EXTRACT: note_off channel=0 note=72 velocity=79 time=0.428571
EXTRACT: note_on channel=0 note=70 velocity=79 time=0
EXTRACT: note_off channel=0 note=70 velocity=79 time=0.2142855
EXTRACT: note_on channel=0 note=72 velocity=79 time=0
EXTRACT: note_off channel=2 note=68 velocity=79 time=0.2142855
EXTRACT: note_off channel=2 note=65 velocity=79 time=0
EXTRACT: note_off channel=2 note=60 velocity=79 time=0
EXTRACT: note_off channel=2 note=53 velocity=79 time=0
EXTRACT: note_off channel=2 note=48 velocity=79 time=0
EXTRACT: note_off channel=2 note=41 velocity=79 time=0
EXTRACT: note_on channel=2 note=68 velocity=79 time=0
EXTRACT: note_on channel=2 note=65 velocity=79 time=0
EXTRACT: note_on channel=2 note=60 velocity=79 time=0
EXTRACT: note_off channel=0 note=72 velocity=79 time=0.428571
EXTRACT: note_on channel=0 note=70 velocity=79 time=0
EXTRACT: note_off channel=0 note=70 velocity=79 time=0.2142855
EXTRACT: note_on channel=0 note=72 velocity=79 time=0
EXTRACT: note_off channel=2 note=68 velocity=79 time=0.2142855
EXTRACT: note_off channel=2 note=65 velocity=79 time=0
EXTRACT: note_off channel=2 note=60 velocity=79 time=0
EXTRACT: note_on channel=2 note=68 velocity=79 time=0
EXTRACT: note_on channel=2 note=65 velocity=79 time=0
EXTRACT: note_off channel=0 note=72 velocity=79 time=0.2142855
EXTRACT: note_on channel=0 note=70 velocity=79 time=0
EXTRACT: note_off channel=0 note=70 velocity=79 time=0.428571
EXTRACT: note_off channel=2 note=68 velocity=79 time=0
EXTRACT: note_off channel=2 note=65 velocity=79 time=0
EXTRACT: note_on channel=2 note=68 velocity=79 time=0
EXTRACT: note_on channel=2 note=41 velocity=79 time=0
EXTRACT: note_on channel=0 note=72 velocity=79 time=0.2142855
EXTRACT: note_off channel=2 note=68 velocity=79 time=0
EXTRACT: note_off channel=2 note=41 velocity=79 time=0
EXTRACT: note_on channel=2 note=67 velocity=79 time=0
EXTRACT: note_on channel=2 note=63 velocity=79 time=0
EXTRACT: note_on channel=2 note=58 velocity=79 time=0
EXTRACT: note_on channel=2 note=51 velocity=79 time=0
EXTRACT: note_on channel=2 note=46 velocity=79 time=0
EXTRACT: note_off channel=0 note=72 velocity=79 time=0.2142855
EXTRACT: note_on channel=0 note=73 velocity=79 time=0
EXTRACT: note_off channel=0 note=73 velocity=79 time=0.2142855
EXTRACT: note_on channel=0 note=70 velocity=79 time=0
EXTRACT: note_off channel=2 note=67 velocity=79 time=0
EXTRACT: note_off channel=2 note=63 velocity=79 time=0
EXTRACT: note_off channel=2 note=58 velocity=79 time=0
EXTRACT: note_off channel=2 note=51 velocity=79 time=0
EXTRACT: note_off channel=2 note=46 velocity=79 time=0
EXTRACT: note_on channel=2 note=63 velocity=79 time=0
EXTRACT: note_off channel=2 note=63 velocity=79 time=0.2142855
EXTRACT: note_on channel=2 note=67 velocity=79 time=0
EXTRACT: note_off channel=0 note=70 velocity=79 time=0.2142855
EXTRACT: note_on channel=0 note=68 velocity=79 time=0
EXTRACT: note_off channel=2 note=67 velocity=79 time=0
EXTRACT: note_on channel=2 note=68 velocity=79 time=0
EXTRACT: note_on channel=2 note=63 velocity=79 time=0
EXTRACT: note_on channel=2 note=56 velocity=79 time=0
EXTRACT: note_on channel=2 note=51 velocity=79 time=0
EXTRACT: note_on channel=2 note=44 velocity=79 time=0
EXTRACT: note_off channel=0 note=68 velocity=79 time=0.6428565
EXTRACT: note_on channel=0 note=72 velocity=79 time=0.2142855
EXTRACT: note_off channel=2 note=68 velocity=79 time=0
EXTRACT: note_off channel=2 note=63 velocity=79 time=0
EXTRACT: note_off channel=2 note=56 velocity=79 time=0
EXTRACT: note_off channel=2 note=51 velocity=79 time=0
EXTRACT: note_off channel=2 note=44 velocity=79 time=0
EXTRACT: note_on channel=2 note=68 velocity=79 time=0
EXTRACT: note_on channel=2 note=63 velocity=79 time=0
EXTRACT: note_on channel=2 note=60 velocity=79 time=0
EXTRACT: note_off channel=0 note=72 velocity=79 time=0.428571
EXTRACT: note_on channel=0 note=68 velocity=79 time=0
EXTRACT: note_off channel=0 note=68 velocity=79 time=0.428571
EXTRACT: note_on channel=0 note=75 velocity=79 time=0
EXTRACT: note_off channel=2 note=68 velocity=79 time=0
EXTRACT: note_off channel=2 note=63 velocity=79 time=0
EXTRACT: note_off channel=2 note=60 velocity=79 time=0
EXTRACT: note_on channel=2 note=72 velocity=79 time=0
EXTRACT: note_on channel=2 note=67 velocity=79 time=0
EXTRACT: note_on channel=2 note=63 velocity=79 time=0
EXTRACT: note_on channel=2 note=55 velocity=79 time=0
EXTRACT: note_on channel=2 note=48 velocity=79 time=0
EXTRACT: note_off channel=0 note=75 velocity=79 time=0.428571
EXTRACT: note_on channel=0 note=70 velocity=79 time=0
EXTRACT: note_off channel=0 note=70 velocity=79 time=0.428571
EXTRACT: note_on channel=0 note=70 velocity=79 time=0
EXTRACT: note_off channel=2 note=72 velocity=79 time=0
EXTRACT: note_off channel=2 note=67 velocity=79 time=0
EXTRACT: note_off channel=2 note=63 velocity=79 time=0
EXTRACT: note_off channel=2 note=55 velocity=79 time=0
EXTRACT: note_off channel=2 note=48 velocity=79 time=0
EXTRACT: note_on channel=2 note=67 velocity=79 time=0
EXTRACT: note_on channel=2 note=63 velocity=79 time=0
EXTRACT: note_on channel=2 note=60 velocity=79 time=0
EXTRACT: note_off channel=0 note=70 velocity=79 time=0.428571
EXTRACT: note_off channel=2 note=67 velocity=79 time=0
EXTRACT: note_off channel=2 note=63 velocity=79 time=0
EXTRACT: note_off channel=2 note=60 velocity=79 time=0
EXTRACT: note_on channel=2 note=63 velocity=79 time=0
EXTRACT: note_off channel=2 note=63 velocity=79 time=0.2142855
EXTRACT: note_on channel=2 note=68 velocity=79 time=0
EXTRACT: note_on channel=2 note=48 velocity=79 time=0
EXTRACT: note_on channel=0 note=72 velocity=79 time=0.2142855
EXTRACT: note_off channel=2 note=68 velocity=79 time=0
EXTRACT: note_off channel=2 note=48 velocity=79 time=0
EXTRACT: note_on channel=2 note=68 velocity=79 time=0
EXTRACT: note_on channel=2 note=65 velocity=79 time=0
EXTRACT: note_on channel=2 note=60 velocity=79 time=0
EXTRACT: note_on channel=2 note=53 velocity=79 time=0
EXTRACT: note_on channel=2 note=48 velocity=79 time=0
EXTRACT: note_on channel=2 note=41 velocity=79 time=0
EXTRACT: note_off channel=0 note=72 velocity=79 time=0.428571
EXTRACT: note_on channel=0 note=70 velocity=79 time=0
EXTRACT: note_off channel=0 note=70 velocity=79 time=0.2142855
EXTRACT: note_on channel=0 note=72 velocity=79 time=0
EXTRACT: note_off channel=2 note=68 velocity=79 time=0.2142855
EXTRACT: note_off channel=2 note=65 velocity=79 time=0
EXTRACT: note_off channel=2 note=60 velocity=79 time=0
EXTRACT: note_off channel=2 note=53 velocity=79 time=0
EXTRACT: note_off channel=2 note=48 velocity=79 time=0
EXTRACT: note_off channel=2 note=41 velocity=79 time=0
EXTRACT: note_on channel=2 note=68 velocity=79 time=0
EXTRACT: note_on channel=2 note=65 velocity=79 time=0
EXTRACT: note_on channel=2 note=60 velocity=79 time=0
EXTRACT: note_off channel=0 note=72 velocity=79 time=0.2142855
EXTRACT: note_on channel=0 note=70 velocity=79 time=0
EXTRACT: note_off channel=0 note=70 velocity=79 time=0.2142855
EXTRACT: note_on channel=0 note=72 velocity=79 time=0
EXTRACT: note_off channel=0 note=72 velocity=79 time=0.428571
EXTRACT: note_on channel=0 note=72 velocity=79 time=0
EXTRACT: note_off channel=2 note=68 velocity=79 time=0
EXTRACT: note_off channel=2 note=65 velocity=79 time=0
EXTRACT: note_off channel=2 note=60 velocity=79 time=0
EXTRACT: note_on channel=2 note=68 velocity=79 time=0
EXTRACT: note_on channel=2 note=65 velocity=79 time=0
EXTRACT: note_on channel=2 note=60 velocity=79 time=0
EXTRACT: note_off channel=0 note=72 velocity=79 time=0.2142855
EXTRACT: note_on channel=0 note=70 velocity=79 time=0
EXTRACT: note_off channel=0 note=70 velocity=79 time=0.2142855
EXTRACT: note_on channel=0 note=70 velocity=79 time=0
EXTRACT: note_off channel=0 note=70 velocity=79 time=0.428571
EXTRACT: note_off channel=2 note=68 velocity=79 time=0
EXTRACT: note_off channel=2 note=65 velocity=79 time=0
EXTRACT: note_off channel=2 note=60 velocity=79 time=0
EXTRACT: note_on channel=2 note=51 velocity=79 time=0
EXTRACT: note_off channel=2 note=51 velocity=79 time=0.2142855
EXTRACT: note_on channel=2 note=56 velocity=79 time=0
EXTRACT: note_off channel=2 note=56 velocity=79 time=0.2142855
EXTRACT: note_on channel=2 note=63 velocity=79 time=0
EXTRACT: note_off channel=2 note=63 velocity=79 time=0.2142855
EXTRACT: note_on channel=2 note=67 velocity=79 time=0
EXTRACT: note_off channel=2 note=67 velocity=79 time=0.2142855
EXTRACT: note_on channel=2 note=68 velocity=79 time=0
EXTRACT: note_on channel=2 note=63 velocity=79 time=0
EXTRACT: note_on channel=2 note=60 velocity=79 time=0
EXTRACT: note_on channel=2 note=56 velocity=79 time=0
EXTRACT: note_on channel=2 note=51 velocity=79 time=0
EXTRACT: note_on channel=2 note=44 velocity=79 time=0
EXTRACT: note_on channel=0 note=80 velocity=79 time=0.428571
EXTRACT: note_off channel=0 note=80 velocity=79 time=0.428571
EXTRACT: note_on channel=0 note=79 velocity=79 time=0
EXTRACT: note_off channel=2 note=68 velocity=79 time=0
EXTRACT: note_off channel=2 note=63 velocity=79 time=0
EXTRACT: note_off channel=2 note=60 velocity=79 time=0
EXTRACT: note_off channel=2 note=56 velocity=79 time=0
EXTRACT: note_off channel=2 note=51 velocity=79 time=0
EXTRACT: note_off channel=2 note=44 velocity=79 time=0
EXTRACT: note_on channel=2 note=68 velocity=79 time=0
EXTRACT: note_on channel=2 note=63 velocity=79 time=0
EXTRACT: note_on channel=2 note=60 velocity=79 time=0
EXTRACT: note_off channel=0 note=79 velocity=79 time=0.428571
EXTRACT: note_on channel=0 note=77 velocity=79 time=0
EXTRACT: note_off channel=0 note=77 velocity=79 time=0.428571
EXTRACT: note_on channel=0 note=75 velocity=79 time=0
EXTRACT: note_off channel=2 note=68 velocity=79 time=0
EXTRACT: note_off channel=2 note=63 velocity=79 time=0
EXTRACT: note_off channel=2 note=60 velocity=79 time=0
EXTRACT: note_on channel=2 note=67 velocity=79 time=0
EXTRACT: note_on channel=2 note=63 velocity=79 time=0
EXTRACT: note_on channel=2 note=60 velocity=79 time=0
EXTRACT: note_on channel=2 note=55 velocity=79 time=0
EXTRACT: note_on channel=2 note=48 velocity=79 time=0
EXTRACT: note_off channel=0 note=75 velocity=79 time=0.857142
EXTRACT: note_off channel=2 note=67 velocity=79 time=0
EXTRACT: note_off channel=2 note=63 velocity=79 time=0
EXTRACT: note_off channel=2 note=60 velocity=79 time=0
EXTRACT: note_off channel=2 note=55 velocity=79 time=0
EXTRACT: note_off channel=2 note=48 velocity=79 time=0
EXTRACT: note_on channel=2 note=67 velocity=79 time=0
EXTRACT: note_on channel=2 note=63 velocity=79 time=0
EXTRACT: note_on channel=2 note=60 velocity=79 time=0
EXTRACT: note_on channel=0 note=70 velocity=79 time=0.428571
EXTRACT: note_off channel=2 note=67 velocity=79 time=0
EXTRACT: note_off channel=2 note=63 velocity=79 time=0
EXTRACT: note_off channel=2 note=60 velocity=79 time=0
EXTRACT: note_on channel=2 note=63 velocity=79 time=0
EXTRACT: note_off channel=0 note=70 velocity=79 time=0.2142855
EXTRACT: note_on channel=0 note=72 velocity=79 time=0
EXTRACT: note_off channel=2 note=63 velocity=79 time=0
EXTRACT: note_on channel=2 note=55 velocity=79 time=0
EXTRACT: note_on channel=2 note=48 velocity=79 time=0
EXTRACT: note_off channel=2 note=55 velocity=79 time=0.2142855
EXTRACT: note_off channel=2 note=48 velocity=79 time=0
EXTRACT: note_on channel=2 note=68 velocity=79 time=0
EXTRACT: note_on channel=2 note=65 velocity=79 time=0
EXTRACT: note_on channel=2 note=60 velocity=79 time=0
EXTRACT: note_on channel=2 note=53 velocity=79 time=0
EXTRACT: note_on channel=2 note=48 velocity=79 time=0
EXTRACT: note_on channel=2 note=41 velocity=79 time=0
EXTRACT: note_off channel=0 note=72 velocity=79 time=0.428571
EXTRACT: note_on channel=0 note=70 velocity=79 time=0
EXTRACT: note_off channel=0 note=70 velocity=79 time=0.2142855
EXTRACT: note_on channel=0 note=72 velocity=79 time=0
EXTRACT: note_off channel=2 note=68 velocity=79 time=0.2142855
EXTRACT: note_off channel=2 note=65 velocity=79 time=0
EXTRACT: note_off channel=2 note=60 velocity=79 time=0
EXTRACT: note_off channel=2 note=53 velocity=79 time=0
EXTRACT: note_off channel=2 note=48 velocity=79 time=0
EXTRACT: note_off channel=2 note=41 velocity=79 time=0
EXTRACT: note_on channel=2 note=68 velocity=79 time=0
EXTRACT: note_on channel=2 note=65 velocity=79 time=0
EXTRACT: note_on channel=2 note=60 velocity=79 time=0
EXTRACT: note_off channel=0 note=72 velocity=79 time=0.428571
EXTRACT: note_on channel=0 note=70 velocity=79 time=0
EXTRACT: note_off channel=0 note=70 velocity=79 time=0.2142855
EXTRACT: note_on channel=0 note=72 velocity=79 time=0
EXTRACT: note_off channel=2 note=68 velocity=79 time=0.2142855
EXTRACT: note_off channel=2 note=65 velocity=79 time=0
EXTRACT: note_off channel=2 note=60 velocity=79 time=0
EXTRACT: note_on channel=2 note=65 velocity=79 time=0
EXTRACT: note_on channel=2 note=60 velocity=79 time=0
EXTRACT: note_off channel=0 note=72 velocity=79 time=0.2142855
EXTRACT: note_on channel=0 note=73 velocity=79 time=0
EXTRACT: note_off channel=0 note=73 velocity=79 time=0.6428565
EXTRACT: note_on channel=0 note=72 velocity=79 time=0
EXTRACT: note_off channel=2 note=65 velocity=79 time=0
EXTRACT: note_off channel=2 note=60 velocity=79 time=0
EXTRACT: note_on channel=2 note=67 velocity=79 time=0
EXTRACT: note_on channel=2 note=63 velocity=79 time=0
EXTRACT: note_on channel=2 note=58 velocity=79 time=0
EXTRACT: note_on channel=2 note=51 velocity=79 time=0
EXTRACT: note_on channel=2 note=46 velocity=79 time=0
EXTRACT: note_off channel=0 note=72 velocity=79 time=0.428571
EXTRACT: note_off channel=2 note=67 velocity=79 time=0
EXTRACT: note_off channel=2 note=63 velocity=79 time=0
EXTRACT: note_off channel=2 note=58 velocity=79 time=0
EXTRACT: note_off channel=2 note=51 velocity=79 time=0
EXTRACT: note_off channel=2 note=46 velocity=79 time=0
EXTRACT: note_on channel=2 note=63 velocity=79 time=0
EXTRACT: note_off channel=2 note=63 velocity=79 time=0.2142855
EXTRACT: note_on channel=2 note=67 velocity=79 time=0
EXTRACT: note_off channel=2 note=67 velocity=79 time=0.2142855
EXTRACT: note_on channel=2 note=68 velocity=79 time=0
EXTRACT: note_on channel=2 note=63 velocity=79 time=0
EXTRACT: note_on channel=2 note=60 velocity=79 time=0
EXTRACT: note_on channel=2 note=56 velocity=79 time=0
EXTRACT: note_on channel=2 note=51 velocity=79 time=0
EXTRACT: note_on channel=2 note=44 velocity=79 time=0
EXTRACT: note_on channel=0 note=80 velocity=79 time=0.428571
EXTRACT: note_off channel=0 note=80 velocity=79 time=0.428571
EXTRACT: note_on channel=0 note=80 velocity=79 time=0
EXTRACT: note_off channel=2 note=68 velocity=79 time=0
EXTRACT: note_off channel=2 note=63 velocity=79 time=0
EXTRACT: note_off channel=2 note=60 velocity=79 time=0
EXTRACT: note_off channel=2 note=56 velocity=79 time=0
EXTRACT: note_off channel=2 note=51 velocity=79 time=0
EXTRACT: note_off channel=2 note=44 velocity=79 time=0
EXTRACT: note_on channel=2 note=68 velocity=79 time=0
EXTRACT: note_on channel=2 note=63 velocity=79 time=0
EXTRACT: note_on channel=2 note=60 velocity=79 time=0
EXTRACT: note_off channel=0 note=80 velocity=79 time=0.428571
EXTRACT: note_on channel=0 note=80 velocity=79 time=0
EXTRACT: note_off channel=2 note=68 velocity=79 time=0
EXTRACT: note_off channel=2 note=63 velocity=79 time=0
EXTRACT: note_off channel=2 note=60 velocity=79 time=0
EXTRACT: note_on channel=2 note=56 velocity=79 time=0
EXTRACT: note_off channel=0 note=80 velocity=79 time=0.2142855
EXTRACT: note_on channel=0 note=82 velocity=79 time=0
EXTRACT: note_off channel=2 note=56 velocity=79 time=0.2142855
EXTRACT: note_on channel=2 note=67 velocity=79 time=0
EXTRACT: note_on channel=2 note=63 velocity=79 time=0
EXTRACT: note_on channel=2 note=60 velocity=79 time=0
EXTRACT: note_on channel=2 note=55 velocity=79 time=0
EXTRACT: note_on channel=2 note=48 velocity=79 time=0
EXTRACT: note_off channel=0 note=82 velocity=79 time=0.428571
EXTRACT: note_on channel=0 note=80 velocity=79 time=0
EXTRACT: note_off channel=2 note=67 velocity=79 time=0.428571
EXTRACT: note_off channel=2 note=63 velocity=79 time=0
EXTRACT: note_off channel=2 note=60 velocity=79 time=0
EXTRACT: note_off channel=2 note=55 velocity=79 time=0
EXTRACT: note_off channel=2 note=48 velocity=79 time=0
EXTRACT: note_on channel=2 note=67 velocity=79 time=0
EXTRACT: note_on channel=2 note=63 velocity=79 time=0
EXTRACT: note_on channel=2 note=60 velocity=79 time=0
EXTRACT: note_off channel=0 note=80 velocity=79 time=0.2142855
EXTRACT: note_off channel=2 note=67 velocity=79 time=0.2142855
EXTRACT: note_off channel=2 note=63 velocity=79 time=0
EXTRACT: note_off channel=2 note=60 velocity=79 time=0
EXTRACT: note_on channel=2 note=60 velocity=79 time=0
EXTRACT: note_on channel=0 note=80 velocity=79 time=0.2142855
EXTRACT: note_off channel=2 note=60 velocity=79 time=0
EXTRACT: note_on channel=2 note=48 velocity=79 time=0
EXTRACT: note_off channel=0 note=80 velocity=79 time=0.2142855
EXTRACT: note_on channel=0 note=80 velocity=79 time=0
EXTRACT: note_off channel=2 note=48 velocity=79 time=0
EXTRACT: note_on channel=2 note=68 velocity=79 time=0
EXTRACT: note_on channel=2 note=65 velocity=79 time=0
EXTRACT: note_on channel=2 note=60 velocity=79 time=0
EXTRACT: note_on channel=2 note=53 velocity=79 time=0
EXTRACT: note_on channel=2 note=48 velocity=79 time=0
EXTRACT: note_on channel=2 note=41 velocity=79 time=0
EXTRACT: note_off channel=0 note=80 velocity=79 time=0.2142855
EXTRACT: note_on channel=0 note=82 velocity=79 time=0
EXTRACT: note_off channel=0 note=82 velocity=79 time=0.2142855
EXTRACT: note_on channel=0 note=82 velocity=79 time=0
EXTRACT: note_off channel=2 note=68 velocity=79 time=0
EXTRACT: note_off channel=2 note=65 velocity=79 time=0
EXTRACT: note_off channel=2 note=60 velocity=79 time=0
EXTRACT: note_off channel=2 note=53 velocity=79 time=0
EXTRACT: note_off channel=2 note=48 velocity=79 time=0
EXTRACT: note_off channel=2 note=41 velocity=79 time=0
EXTRACT: note_on channel=2 note=60 velocity=79 time=0
EXTRACT: note_off channel=0 note=82 velocity=79 time=0.2142855
EXTRACT: note_on channel=0 note=82 velocity=79 time=0
EXTRACT: note_off channel=0 note=82 velocity=79 time=0.2142855
EXTRACT: note_on channel=0 note=82 velocity=79 time=0
EXTRACT: note_off channel=2 note=60 velocity=79 time=0
EXTRACT: note_on channel=2 note=68 velocity=79 time=0
EXTRACT: note_on channel=2 note=65 velocity=79 time=0
EXTRACT: note_on channel=2 note=60 velocity=79 time=0
EXTRACT: note_off channel=0 note=82 velocity=79 time=0.2142855
EXTRACT: note_on channel=0 note=80 velocity=79 time=0
EXTRACT: note_off channel=2 note=68 velocity=79 time=0.2142855
EXTRACT: note_off channel=2 note=65 velocity=79 time=0
EXTRACT: note_off channel=2 note=60 velocity=79 time=0
EXTRACT: note_on channel=2 note=60 velocity=79 time=0
EXTRACT: note_off channel=0 note=80 velocity=79 time=0.2142855
EXTRACT: note_on channel=0 note=82 velocity=79 time=0
EXTRACT: note_off channel=2 note=60 velocity=79 time=0
EXTRACT: note_on channel=2 note=48 velocity=79 time=0
EXTRACT: note_off channel=2 note=48 velocity=79 time=0.2142855
EXTRACT: note_on channel=2 note=70 velocity=79 time=0
EXTRACT: note_on channel=2 note=67 velocity=79 time=0
EXTRACT: note_on channel=2 note=63 velocity=79 time=0
EXTRACT: note_on channel=2 note=51 velocity=79 time=0
EXTRACT: note_on channel=2 note=46 velocity=79 time=0
EXTRACT: note_on channel=4 note=51 velocity=63 time=0
EXTRACT: note_off channel=2 note=70 velocity=79 time=0.428571
EXTRACT: note_off channel=2 note=67 velocity=79 time=0
EXTRACT: note_off channel=2 note=63 velocity=79 time=0
EXTRACT: note_off channel=2 note=51 velocity=79 time=0
EXTRACT: note_off channel=2 note=46 velocity=79 time=0
EXTRACT: note_on channel=2 note=58 velocity=79 time=0
EXTRACT: note_off channel=2 note=58 velocity=79 time=0.428571
EXTRACT: note_on channel=2 note=82 velocity=79 time=0
EXTRACT: note_on channel=2 note=75 velocity=79 time=0
EXTRACT: note_on channel=2 note=70 velocity=79 time=0
EXTRACT: note_on channel=2 note=63 velocity=79 time=0
EXTRACT: note_on channel=9 note=42 velocity=79 time=0
EXTRACT: note_off channel=2 note=82 velocity=79 time=0.428571
EXTRACT: note_off channel=2 note=75 velocity=79 time=0
EXTRACT: note_off channel=2 note=70 velocity=79 time=0
EXTRACT: note_off channel=2 note=63 velocity=79 time=0
EXTRACT: note_on channel=2 note=58 velocity=79 time=0
EXTRACT: note_off channel=4 note=51 velocity=63 time=0
EXTRACT: note_on channel=4 note=65 velocity=63 time=0
EXTRACT: note_off channel=0 note=82 velocity=79 time=0
EXTRACT: note_off channel=2 note=58 velocity=79 time=0
EXTRACT: note_on channel=2 note=68 velocity=79 time=0
EXTRACT: note_on channel=2 note=63 velocity=79 time=0
EXTRACT: note_on channel=2 note=51 velocity=79 time=0
EXTRACT: note_on channel=2 note=46 velocity=79 time=0
EXTRACT: note_off channel=4 note=65 velocity=63 time=0
EXTRACT: note_on channel=4 note=63 velocity=63 time=0
EXTRACT: note_off channel=9 note=42 velocity=79 time=0
EXTRACT: note_on channel=9 note=42 velocity=79 time=0
EXTRACT: note_on channel=0 note=84 velocity=79 time=0.428571
EXTRACT: note_off channel=2 note=68 velocity=79 time=0
EXTRACT: note_off channel=2 note=63 velocity=79 time=0
EXTRACT: note_off channel=2 note=51 velocity=79 time=0
EXTRACT: note_off channel=2 note=46 velocity=79 time=0
EXTRACT: note_on channel=2 note=58 velocity=79 time=0
EXTRACT: note_off channel=9 note=42 velocity=79 time=0
EXTRACT: note_on channel=9 note=40 velocity=79 time=0
EXTRACT: note_off channel=0 note=84 velocity=79 time=0.428571
EXTRACT: note_on channel=0 note=82 velocity=79 time=0
EXTRACT: note_off channel=2 note=58 velocity=79 time=0
EXTRACT: note_on channel=2 note=67 velocity=79 time=0
EXTRACT: note_on channel=2 note=63 velocity=79 time=0
EXTRACT: note_off channel=4 note=63 velocity=63 time=0
EXTRACT: note_on channel=4 note=58 velocity=63 time=0
EXTRACT: note_off channel=9 note=40 velocity=79 time=0
EXTRACT: note_on channel=9 note=40 velocity=79 time=0
EXTRACT: note_off channel=9 note=40 velocity=79 time=0.2142855
EXTRACT: note_on channel=9 note=47 velocity=79 time=0
EXTRACT: note_off channel=0 note=82 velocity=79 time=0.2142855
EXTRACT: note_on channel=0 note=80 velocity=79 time=0
EXTRACT: note_off channel=2 note=67 velocity=79 time=0
EXTRACT: note_off channel=2 note=63 velocity=79 time=0
EXTRACT: note_on channel=2 note=58 velocity=79 time=0
EXTRACT: note_off channel=9 note=47 velocity=79 time=0
EXTRACT: note_on channel=9 note=43 velocity=79 time=0
EXTRACT: note_off channel=0 note=80 velocity=79 time=0
EXTRACT: note_on channel=0 note=80 velocity=79 time=0
EXTRACT: note_off channel=2 note=58 velocity=79 time=0
EXTRACT: note_on channel=2 note=68 velocity=79 time=0
EXTRACT: note_on channel=2 note=65 velocity=79 time=0
EXTRACT: note_on channel=2 note=60 velocity=79 time=0
EXTRACT: note_on channel=2 note=53 velocity=79 time=0
EXTRACT: note_on channel=2 note=48 velocity=79 time=0
EXTRACT: note_on channel=2 note=41 velocity=79 time=0
EXTRACT: note_off channel=4 note=58 velocity=63 time=0
EXTRACT: note_on channel=4 note=60 velocity=63 time=0
EXTRACT: note_on channel=6 note=29 velocity=79 time=0
EXTRACT: note_off channel=9 note=43 velocity=79 time=0
EXTRACT: note_on channel=9 note=49 velocity=79 time=0
EXTRACT: note_on channel=9 note=35 velocity=79 time=0
EXTRACT: note_off channel=0 note=80 velocity=79 time=0.428571
EXTRACT: note_on channel=0 note=80 velocity=79 time=0
EXTRACT: note_on channel=0 note=77 velocity=63 time=0
EXTRACT: note_off channel=2 note=68 velocity=79 time=0
EXTRACT: note_off channel=2 note=65 velocity=79 time=0
EXTRACT: note_off channel=2 note=60 velocity=79 time=0
EXTRACT: note_off channel=2 note=53 velocity=79 time=0
EXTRACT: note_off channel=2 note=48 velocity=79 time=0
EXTRACT: note_off channel=2 note=41 velocity=79 time=0
EXTRACT: note_on channel=2 note=60 velocity=79 time=0
EXTRACT: note_off channel=9 note=49 velocity=79 time=0
EXTRACT: note_off channel=9 note=35 velocity=79 time=0
EXTRACT: note_on channel=9 note=42 velocity=79 time=0
EXTRACT: note_off channel=0 note=80 velocity=79 time=0.428571
EXTRACT: note_off channel=0 note=77 velocity=63 time=0
EXTRACT: note_on channel=0 note=80 velocity=79 time=0
EXTRACT: note_on channel=0 note=77 velocity=63 time=0
EXTRACT: note_off channel=2 note=60 velocity=79 time=0
EXTRACT: note_on channel=2 note=68 velocity=79 time=0
EXTRACT: note_on channel=2 note=65 velocity=79 time=0
EXTRACT: note_on channel=2 note=60 velocity=79 time=0
EXTRACT: note_on channel=2 note=41 velocity=79 time=0
EXTRACT: note_off channel=9 note=42 velocity=79 time=0
EXTRACT: note_on channel=9 note=42 velocity=79 time=0
EXTRACT: note_on channel=9 note=40 velocity=79 time=0
EXTRACT: note_off channel=0 note=80 velocity=79 time=0.2142855
EXTRACT: note_off channel=0 note=77 velocity=63 time=0
EXTRACT: note_on channel=0 note=79 velocity=79 time=0
EXTRACT: note_on channel=0 note=75 velocity=63 time=0
EXTRACT: note_off channel=0 note=79 velocity=79 time=0.2142855
EXTRACT: note_off channel=0 note=75 velocity=63 time=0
EXTRACT: note_on channel=0 note=80 velocity=79 time=0
EXTRACT: note_on channel=0 note=77 velocity=63 time=0
EXTRACT: note_off channel=2 note=68 velocity=79 time=0
EXTRACT: note_off channel=2 note=65 velocity=79 time=0
EXTRACT: note_off channel=2 note=60 velocity=79 time=0
EXTRACT: note_off channel=2 note=41 velocity=79 time=0
EXTRACT: note_on channel=2 note=60 velocity=79 time=0
EXTRACT: note_off channel=6 note=29 velocity=79 time=0
EXTRACT: note_on channel=6 note=29 velocity=79 time=0
EXTRACT: note_off channel=9 note=42 velocity=79 time=0
EXTRACT: note_off channel=9 note=40 velocity=79 time=0
EXTRACT: note_on channel=9 note=42 velocity=79 time=0
EXTRACT: note_off channel=2 note=60 velocity=79 time=0.428571
EXTRACT: note_on channel=2 note=68 velocity=79 time=0
EXTRACT: note_on channel=2 note=65 velocity=79 time=0
EXTRACT: note_on channel=2 note=61 velocity=79 time=0
EXTRACT: note_on channel=2 note=49 velocity=79 time=0
EXTRACT: note_on channel=2 note=44 velocity=79 time=0
EXTRACT: note_off channel=6 note=29 velocity=79 time=0
EXTRACT: note_on channel=6 note=25 velocity=79 time=0
EXTRACT: note_off channel=9 note=42 velocity=79 time=0
EXTRACT: note_on channel=9 note=42 velocity=79 time=0
EXTRACT: note_on channel=9 note=35 velocity=79 time=0
EXTRACT: note_off channel=0 note=80 velocity=79 time=0.428571
EXTRACT: note_off channel=0 note=77 velocity=63 time=0
EXTRACT: note_on channel=0 note=80 velocity=79 time=0
EXTRACT: note_on channel=0 note=77 velocity=63 time=0
EXTRACT: note_off channel=2 note=68 velocity=79 time=0
EXTRACT: note_off channel=2 note=65 velocity=79 time=0
EXTRACT: note_off channel=2 note=61 velocity=79 time=0
EXTRACT: note_off channel=2 note=49 velocity=79 time=0
EXTRACT: note_off channel=2 note=44 velocity=79 time=0
EXTRACT: note_on channel=2 note=56 velocity=79 time=0
EXTRACT: note_off channel=4 note=60 velocity=63 time=0
EXTRACT: note_on channel=4 note=70 velocity=63 time=0
EXTRACT: note_off channel=9 note=42 velocity=79 time=0
EXTRACT: note_off channel=9 note=35 velocity=79 time=0
EXTRACT: note_on channel=9 note=42 velocity=79 time=0
EXTRACT: note_off channel=0 note=80 velocity=79 time=0.428571
EXTRACT: note_off channel=0 note=77 velocity=63 time=0
EXTRACT: note_on channel=0 note=80 velocity=79 time=0
EXTRACT: note_on channel=0 note=77 velocity=63 time=0
EXTRACT: note_off channel=2 note=56 velocity=79 time=0
EXTRACT: note_on channel=2 note=68 velocity=79 time=0
EXTRACT: note_on channel=2 note=65 velocity=79 time=0
EXTRACT: note_on channel=2 note=61 velocity=79 time=0
EXTRACT: note_off channel=4 note=70 velocity=63 time=0
EXTRACT: note_on channel=4 note=72 velocity=63 time=0
EXTRACT: note_off channel=9 note=42 velocity=79 time=0
EXTRACT: note_on channel=9 note=42 velocity=79 time=0
EXTRACT: note_on channel=9 note=40 velocity=79 time=0
EXTRACT: note_off channel=0 note=80 velocity=79 time=0.428571
EXTRACT: note_off channel=0 note=77 velocity=63 time=0
EXTRACT: note_on channel=0 note=80 velocity=79 time=0
EXTRACT: note_on channel=0 note=77 velocity=63 time=0
EXTRACT: note_off channel=2 note=68 velocity=79 time=0
EXTRACT: note_off channel=2 note=65 velocity=79 time=0
EXTRACT: note_off channel=2 note=61 velocity=79 time=0
EXTRACT: note_on channel=2 note=56 velocity=79 time=0
EXTRACT: note_off channel=6 note=25 velocity=79 time=0
EXTRACT: note_on channel=6 note=25 velocity=79 time=0
EXTRACT: note_off channel=9 note=42 velocity=79 time=0
EXTRACT: note_off channel=9 note=40 velocity=79 time=0
EXTRACT: note_on channel=9 note=42 velocity=79 time=0
EXTRACT: note_off channel=0 note=80 velocity=79 time=0.2142855
EXTRACT: note_off channel=0 note=77 velocity=63 time=0
EXTRACT: note_on channel=0 note=79 velocity=79 time=0
EXTRACT: note_on channel=0 note=75 velocity=63 time=0
EXTRACT: note_off channel=0 note=79 velocity=79 time=0.2142855
EXTRACT: note_off channel=0 note=75 velocity=63 time=0
EXTRACT: note_on channel=0 note=80 velocity=79 time=0
EXTRACT: note_on channel=0 note=77 velocity=63 time=0
EXTRACT: note_off channel=2 note=56 velocity=79 time=0
EXTRACT: note_on channel=2 note=63 velocity=79 time=0
EXTRACT: note_on channel=2 note=58 velocity=79 time=0
EXTRACT: note_on channel=2 note=51 velocity=79 time=0
EXTRACT: note_on channel=2 note=46 velocity=79 time=0
EXTRACT: note_off channel=4 note=72 velocity=63 time=0
EXTRACT: note_on channel=4 note=70 velocity=63 time=0
EXTRACT: note_on channel=4 note=63 velocity=63 time=0
EXTRACT: note_on channel=4 note=58 velocity=63 time=0
EXTRACT: note_off channel=6 note=25 velocity=79 time=0
EXTRACT: note_on channel=6 note=27 velocity=79 time=0
EXTRACT: note_off channel=9 note=42 velocity=79 time=0
EXTRACT: note_on channel=9 note=42 velocity=79 time=0
EXTRACT: note_on channel=9 note=35 velocity=79 time=0
EXTRACT: note_off channel=0 note=80 velocity=79 time=0.428571
EXTRACT: note_off channel=0 note=77 velocity=63 time=0
EXTRACT: note_on channel=0 note=79 velocity=79 time=0
EXTRACT: note_on channel=0 note=75 velocity=63 time=0
EXTRACT: note_off channel=2 note=63 velocity=79 time=0
EXTRACT: note_off channel=2 note=58 velocity=79 time=0
EXTRACT: note_off channel=2 note=51 velocity=79 time=0
EXTRACT: note_off channel=2 note=46 velocity=79 time=0
EXTRACT: note_on channel=2 note=58 velocity=79 time=0
EXTRACT: note_off channel=9 note=42 velocity=79 time=0
EXTRACT: note_off channel=9 note=35 velocity=79 time=0
EXTRACT: note_on channel=9 note=42 velocity=79 time=0
EXTRACT: note_off channel=2 note=58 velocity=79 time=0.2142855
EXTRACT: note_on channel=2 note=67 velocity=79 time=0
EXTRACT: note_off channel=2 note=67 velocity=79 time=0.2142855
EXTRACT: note_on channel=2 note=67 velocity=79 time=0
EXTRACT: note_on channel=2 note=63 velocity=79 time=0
EXTRACT: note_on channel=2 note=58 velocity=79 time=0
EXTRACT: note_off channel=9 note=42 velocity=79 time=0
EXTRACT: note_on channel=9 note=42 velocity=79 time=0
EXTRACT: note_on channel=9 note=40 velocity=79 time=0
EXTRACT: note_off channel=2 note=67 velocity=79 time=0.428571
EXTRACT: note_off channel=2 note=63 velocity=79 time=0
EXTRACT: note_off channel=2 note=58 velocity=79 time=0
EXTRACT: note_on channel=2 note=58 velocity=79 time=0
EXTRACT: note_off channel=9 note=42 velocity=79 time=0
EXTRACT: note_off channel=9 note=40 velocity=79 time=0
EXTRACT: note_on channel=9 note=42 velocity=79 time=0
EXTRACT: note_off channel=2 note=58 velocity=79 time=0.2142855
EXTRACT: note_on channel=2 note=63 velocity=79 time=0
EXTRACT: note_off channel=0 note=79 velocity=79 time=0.2142855
EXTRACT: note_off channel=0 note=75 velocity=63 time=0
EXTRACT: note_off channel=2 note=63 velocity=79 time=0
EXTRACT: note_on channel=2 note=68 velocity=79 time=0
EXTRACT: note_on channel=2 note=63 velocity=79 time=0
EXTRACT: note_on channel=2 note=51 velocity=79 time=0
EXTRACT: note_on channel=2 note=46 velocity=79 time=0
EXTRACT: note_off channel=6 note=27 velocity=79 time=0
EXTRACT: note_on channel=6 note=27 velocity=79 time=0
EXTRACT: note_off channel=9 note=42 velocity=79 time=0
EXTRACT: note_on channel=9 note=42 velocity=79 time=0
EXTRACT: note_on channel=9 note=35 velocity=79 time=0
EXTRACT: note_on channel=0 note=84 velocity=79 time=0.428571
EXTRACT: note_off channel=2 note=68 velocity=79 time=0
EXTRACT: note_off channel=2 note=63 velocity=79 time=0
EXTRACT: note_off channel=2 note=51 velocity=79 time=0
EXTRACT: note_off channel=2 note=46 velocity=79 time=0
EXTRACT: note_on channel=2 note=58 velocity=79 time=0
EXTRACT: note_off channel=9 note=42 velocity=79 time=0
EXTRACT: note_off channel=9 note=35 velocity=79 time=0
EXTRACT: note_on channel=9 note=42 velocity=79 time=0
EXTRACT: note_off channel=2 note=58 velocity=79 time=0.2142855
EXTRACT: note_on channel=2 note=63 velocity=79 time=0
EXTRACT: note_off channel=0 note=84 velocity=79 time=0.2142855
EXTRACT: note_on channel=0 note=82 velocity=79 time=0
EXTRACT: note_off channel=2 note=63 velocity=79 time=0
EXTRACT: note_on channel=2 note=70 velocity=79 time=0
EXTRACT: note_on channel=2 note=67 velocity=79 time=0
EXTRACT: note_on channel=2 note=63 velocity=79 time=0
EXTRACT: note_off channel=4 note=70 velocity=63 time=0
EXTRACT: note_off channel=4 note=63 velocity=63 time=0
EXTRACT: note_off channel=4 note=58 velocity=63 time=0
EXTRACT: note_on channel=4 note=73 velocity=63 time=0
EXTRACT: note_off channel=9 note=42 velocity=79 time=0
EXTRACT: note_on channel=9 note=42 velocity=79 time=0
EXTRACT: note_on channel=9 note=40 velocity=79 time=0
EXTRACT: note_off channel=0 note=82 velocity=79 time=0.428571
EXTRACT: note_on channel=0 note=80 velocity=79 time=0
EXTRACT: note_off channel=2 note=70 velocity=79 time=0
EXTRACT: note_off channel=2 note=67 velocity=79 time=0
EXTRACT: note_off channel=2 note=63 velocity=79 time=0
EXTRACT: note_on channel=2 note=58 velocity=79 time=0
EXTRACT: note_off channel=6 note=27 velocity=79 time=0
EXTRACT: note_on channel=6 note=27 velocity=79 time=0
EXTRACT: note_off channel=9 note=42 velocity=79 time=0
EXTRACT: note_off channel=9 note=40 velocity=79 time=0
EXTRACT: note_on channel=9 note=46 velocity=79 time=0
EXTRACT: note_off channel=2 note=58 velocity=79 time=0.2142855
EXTRACT: note_on channel=2 note=51 velocity=79 time=0
EXTRACT: note_off channel=0 note=80 velocity=79 time=0.2142855
EXTRACT: note_on channel=0 note=80 velocity=79 time=0
EXTRACT: note_off channel=2 note=51 velocity=79 time=0
EXTRACT: note_on channel=2 note=68 velocity=79 time=0
EXTRACT: note_on channel=2 note=65 velocity=79 time=0
EXTRACT: note_on channel=2 note=60 velocity=79 time=0
EXTRACT: note_on channel=2 note=53 velocity=79 time=0
EXTRACT: note_on channel=2 note=48 velocity=79 time=0
EXTRACT: note_on channel=2 note=41 velocity=79 time=0
EXTRACT: note_off channel=4 note=73 velocity=63 time=0
EXTRACT: note_on channel=4 note=72 velocity=63 time=0
EXTRACT: note_on channel=4 note=65 velocity=63 time=0
EXTRACT: note_on channel=4 note=60 velocity=63 time=0
EXTRACT: note_off channel=6 note=27 velocity=79 time=0
EXTRACT: note_on channel=6 note=29 velocity=79 time=0
EXTRACT: note_off channel=9 note=46 velocity=79 time=0
EXTRACT: note_on channel=9 note=49 velocity=79 time=0
EXTRACT: note_on channel=9 note=35 velocity=79 time=0
EXTRACT: note_off channel=0 note=80 velocity=79 time=0.2142855
EXTRACT: note_on channel=0 note=79 velocity=79 time=0
EXTRACT: note_on channel=0 note=75 velocity=63 time=0
EXTRACT: note_off channel=0 note=79 velocity=79 time=0.2142855
EXTRACT: note_off channel=0 note=75 velocity=63 time=0
EXTRACT: note_on channel=0 note=80 velocity=79 time=0
EXTRACT: note_on channel=0 note=77 velocity=63 time=0
EXTRACT: note_off channel=2 note=68 velocity=79 time=0
EXTRACT: note_off channel=2 note=65 velocity=79 time=0
EXTRACT: note_off channel=2 note=60 velocity=79 time=0
EXTRACT: note_off channel=2 note=53 velocity=79 time=0
EXTRACT: note_off channel=2 note=48 velocity=79 time=0
EXTRACT: note_off channel=2 note=41 velocity=79 time=0
EXTRACT: note_on channel=2 note=60 velocity=79 time=0
EXTRACT: note_off channel=9 note=49 velocity=79 time=0
EXTRACT: note_off channel=9 note=35 velocity=79 time=0
EXTRACT: note_on channel=9 note=42 velocity=79 time=0
EXTRACT: note_off channel=0 note=80 velocity=79 time=0.2142855
EXTRACT: note_off channel=0 note=77 velocity=63 time=0
EXTRACT: note_on channel=0 note=79 velocity=79 time=0
EXTRACT: note_on channel=0 note=75 velocity=63 time=0
EXTRACT: note_off channel=0 note=79 velocity=79 time=0.2142855
EXTRACT: note_off channel=0 note=75 velocity=63 time=0
EXTRACT: note_on channel=0 note=80 velocity=79 time=0
EXTRACT: note_on channel=0 note=77 velocity=63 time=0
EXTRACT: note_off channel=2 note=60 velocity=79 time=0
EXTRACT: note_on channel=2 note=68 velocity=79 time=0
EXTRACT: note_on channel=2 note=65 velocity=79 time=0
EXTRACT: note_on channel=2 note=60 velocity=79 time=0
EXTRACT: note_on channel=2 note=41 velocity=79 time=0
EXTRACT: note_off channel=9 note=42 velocity=79 time=0
EXTRACT: note_on channel=9 note=42 velocity=79 time=0
EXTRACT: note_on channel=9 note=40 velocity=79 time=0
EXTRACT: note_off channel=0 note=80 velocity=79 time=0.428571
EXTRACT: note_off channel=0 note=77 velocity=63 time=0
EXTRACT: note_on channel=0 note=80 velocity=79 time=0
EXTRACT: note_on channel=0 note=77 velocity=63 time=0
EXTRACT: note_off channel=2 note=68 velocity=79 time=0
EXTRACT: note_off channel=2 note=65 velocity=79 time=0
EXTRACT: note_off channel=2 note=60 velocity=79 time=0
EXTRACT: note_off channel=2 note=41 velocity=79 time=0
EXTRACT: note_on channel=2 note=60 velocity=79 time=0
EXTRACT: note_off channel=6 note=29 velocity=79 time=0
EXTRACT: note_on channel=6 note=29 velocity=79 time=0
EXTRACT: note_off channel=9 note=42 velocity=79 time=0
EXTRACT: note_off channel=9 note=40 velocity=79 time=0
EXTRACT: note_on channel=9 note=42 velocity=79 time=0
EXTRACT: note_off channel=0 note=80 velocity=79 time=0.2142855
EXTRACT: note_off channel=0 note=77 velocity=63 time=0
EXTRACT: note_on channel=0 note=79 velocity=79 time=0
EXTRACT: note_on channel=0 note=75 velocity=63 time=0
EXTRACT: note_off channel=0 note=79 velocity=79 time=0.2142855
EXTRACT: note_off channel=0 note=75 velocity=63 time=0
EXTRACT: note_on channel=0 note=80 velocity=79 time=0
EXTRACT: note_on channel=0 note=77 velocity=63 time=0
EXTRACT: note_off channel=2 note=60 velocity=79 time=0
EXTRACT: note_on channel=2 note=68 velocity=79 time=0
EXTRACT: note_on channel=2 note=65 velocity=79 time=0
EXTRACT: note_on channel=2 note=61 velocity=79 time=0
EXTRACT: note_on channel=2 note=49 velocity=79 time=0
EXTRACT: note_on channel=2 note=44 velocity=79 time=0
EXTRACT: note_off channel=4 note=72 velocity=63 time=0
EXTRACT: note_off channel=4 note=65 velocity=63 time=0
EXTRACT: note_off channel=4 note=60 velocity=63 time=0
EXTRACT: note_on channel=4 note=75 velocity=63 time=0
EXTRACT: note_on channel=4 note=61 velocity=63 time=0
EXTRACT: note_on channel=4 note=56 velocity=63 time=0
EXTRACT: note_off channel=6 note=29 velocity=79 time=0
EXTRACT: note_on channel=6 note=25 velocity=79 time=0
EXTRACT: note_off channel=9 note=42 velocity=79 time=0
EXTRACT: note_on channel=9 note=42 velocity=79 time=0
EXTRACT: note_on channel=9 note=35 velocity=79 time=0
EXTRACT: note_off channel=0 note=80 velocity=79 time=0.428571
EXTRACT: note_off channel=0 note=77 velocity=63 time=0
EXTRACT: note_on channel=0 note=80 velocity=79 time=0
EXTRACT: note_on channel=0 note=77 velocity=63 time=0
EXTRACT: note_off channel=2 note=68 velocity=79 time=0
EXTRACT: note_off channel=2 note=65 velocity=79 time=0
EXTRACT: note_off channel=2 note=61 velocity=79 time=0
EXTRACT: note_off channel=2 note=49 velocity=79 time=0
EXTRACT: note_off channel=2 note=44 velocity=79 time=0
EXTRACT: note_on channel=2 note=56 velocity=79 time=0
EXTRACT: note_off channel=9 note=42 velocity=79 time=0
EXTRACT: note_off channel=9 note=35 velocity=79 time=0
EXTRACT: note_on channel=9 note=42 velocity=79 time=0
EXTRACT: note_off channel=0 note=80 velocity=79 time=0.428571
EXTRACT: note_off channel=0 note=77 velocity=63 time=0
EXTRACT: note_on channel=0 note=80 velocity=79 time=0
EXTRACT: note_on channel=0 note=77 velocity=63 time=0
EXTRACT: note_off channel=2 note=56 velocity=79 time=0
EXTRACT: note_on channel=2 note=68 velocity=79 time=0
EXTRACT: note_on channel=2 note=65 velocity=79 time=0
EXTRACT: note_on channel=2 note=61 velocity=79 time=0
EXTRACT: note_off channel=9 note=42 velocity=79 time=0
EXTRACT: note_on channel=9 note=42 velocity=79 time=0
EXTRACT: note_on channel=9 note=40 velocity=79 time=0
EXTRACT: note_off channel=0 note=80 velocity=79 time=0.2142855
EXTRACT: note_off channel=0 note=77 velocity=63 time=0
EXTRACT: note_on channel=0 note=82 velocity=79 time=0
EXTRACT: note_on channel=0 note=79 velocity=63 time=0
EXTRACT: note_off channel=2 note=68 velocity=79 time=0.2142855
EXTRACT: note_off channel=2 note=65 velocity=79 time=0
EXTRACT: note_off channel=2 note=61 velocity=79 time=0
EXTRACT: note_on channel=2 note=56 velocity=79 time=0
EXTRACT: note_off channel=6 note=25 velocity=79 time=0
EXTRACT: note_on channel=6 note=25 velocity=79 time=0
EXTRACT: note_off channel=9 note=42 velocity=79 time=0
EXTRACT: note_off channel=9 note=40 velocity=79 time=0
EXTRACT: note_on channel=9 note=42 velocity=79 time=0
EXTRACT: note_off channel=0 note=82 velocity=79 time=0.2142855
EXTRACT: note_off channel=0 note=79 velocity=63 time=0
EXTRACT: note_on channel=0 note=80 velocity=79 time=0
EXTRACT: note_on channel=0 note=77 velocity=63 time=0
EXTRACT: note_off channel=2 note=56 velocity=79 time=0.2142855
EXTRACT: note_on channel=2 note=70 velocity=79 time=0
EXTRACT: note_on channel=2 note=67 velocity=79 time=0
EXTRACT: note_on channel=2 note=63 velocity=79 time=0
EXTRACT: note_on channel=2 note=51 velocity=79 time=0
EXTRACT: note_on channel=2 note=46 velocity=79 time=0
EXTRACT: note_off channel=4 note=75 velocity=63 time=0
EXTRACT: note_off channel=4 note=61 velocity=63 time=0
EXTRACT: note_off channel=4 note=56 velocity=63 time=0
EXTRACT: note_on channel=4 note=70 velocity=63 time=0
EXTRACT: note_on channel=4 note=63 velocity=63 time=0
EXTRACT: note_on channel=4 note=58 velocity=63 time=0
EXTRACT: note_off channel=6 note=25 velocity=79 time=0
EXTRACT: note_on channel=6 note=27 velocity=79 time=0
EXTRACT: note_off channel=9 note=42 velocity=79 time=0
EXTRACT: note_on channel=9 note=42 velocity=79 time=0
EXTRACT: note_on channel=9 note=35 velocity=79 time=0
EXTRACT: note_off channel=0 note=80 velocity=79 time=0.2142855
EXTRACT: note_off channel=0 note=77 velocity=63 time=0
EXTRACT: note_on channel=0 note=79 velocity=79 time=0
EXTRACT: note_on channel=0 note=75 velocity=63 time=0
EXTRACT: note_off channel=2 note=70 velocity=79 time=0.2142855
EXTRACT: note_off channel=2 note=67 velocity=79 time=0
EXTRACT: note_off channel=2 note=63 velocity=79 time=0
EXTRACT: note_off channel=2 note=51 velocity=79 time=0
EXTRACT: note_off channel=2 note=46 velocity=79 time=0
EXTRACT: note_on channel=2 note=58 velocity=79 time=0
EXTRACT: note_off channel=9 note=42 velocity=79 time=0
EXTRACT: note_off channel=9 note=35 velocity=79 time=0
EXTRACT: note_on channel=9 note=42 velocity=79 time=0
EXTRACT: note_off channel=0 note=79 velocity=79 time=0.2142855
EXTRACT: note_off channel=0 note=75 velocity=63 time=0
EXTRACT: note_on channel=0 note=79 velocity=79 time=0
EXTRACT: note_on channel=0 note=75 velocity=63 time=0
EXTRACT: note_off channel=2 note=58 velocity=79 time=0.2142855
EXTRACT: note_on channel=2 note=70 velocity=79 time=0
EXTRACT: note_on channel=2 note=67 velocity=79 time=0
EXTRACT: note_on channel=2 note=63 velocity=79 time=0
EXTRACT: note_off channel=9 note=42 velocity=79 time=0
EXTRACT: note_on channel=9 note=42 velocity=79 time=0
EXTRACT: note_on channel=9 note=40 velocity=79 time=0
EXTRACT: note_off channel=2 note=70 velocity=79 time=0.428571
EXTRACT: note_off channel=2 note=67 velocity=79 time=0
EXTRACT: note_off channel=2 note=63 velocity=79 time=0
EXTRACT: note_on channel=2 note=58 velocity=79 time=0
EXTRACT: note_on channel=2 note=46 velocity=79 time=0
EXTRACT: note_off channel=6 note=27 velocity=79 time=0
EXTRACT: note_on channel=6 note=27 velocity=79 time=0
EXTRACT: note_off channel=9 note=42 velocity=79 time=0
EXTRACT: note_off channel=9 note=40 velocity=79 time=0
EXTRACT: note_on channel=9 note=42 velocity=79 time=0
EXTRACT: note_off channel=0 note=79 velocity=79 time=0.428571
EXTRACT: note_off channel=0 note=75 velocity=63 time=0
EXTRACT: note_off channel=2 note=58 velocity=79 time=0
EXTRACT: note_off channel=2 note=46 velocity=79 time=0
EXTRACT: note_on channel=2 note=67 velocity=79 time=0
EXTRACT: note_on channel=2 note=64 velocity=79 time=0
EXTRACT: note_on channel=2 note=60 velocity=79 time=0
EXTRACT: note_on channel=2 note=48 velocity=79 time=0
EXTRACT: note_on channel=2 note=43 velocity=79 time=0
EXTRACT: note_off channel=4 note=70 velocity=63 time=0
EXTRACT: note_off channel=4 note=63 velocity=63 time=0
EXTRACT: note_off channel=4 note=58 velocity=63 time=0
EXTRACT: note_on channel=4 note=60 velocity=63 time=0
EXTRACT: note_off channel=6 note=27 velocity=79 time=0
EXTRACT: note_on channel=6 note=24 velocity=79 time=0
EXTRACT: note_off channel=9 note=42 velocity=79 time=0
EXTRACT: note_on channel=9 note=42 velocity=79 time=0
EXTRACT: note_on channel=9 note=35 velocity=79 time=0
EXTRACT: note_on channel=0 note=84 velocity=79 time=0.428571
EXTRACT: note_off channel=2 note=67 velocity=79 time=0
EXTRACT: note_off channel=2 note=64 velocity=79 time=0
EXTRACT: note_off channel=2 note=60 velocity=79 time=0
EXTRACT: note_off channel=2 note=48 velocity=79 time=0
EXTRACT: note_off channel=2 note=43 velocity=79 time=0
EXTRACT: note_on channel=2 note=55 velocity=79 time=0
EXTRACT: note_off channel=9 note=42 velocity=79 time=0
EXTRACT: note_off channel=9 note=35 velocity=79 time=0
EXTRACT: note_on channel=9 note=42 velocity=79 time=0
EXTRACT: note_off channel=0 note=84 velocity=79 time=0.428571
EXTRACT: note_on channel=0 note=82 velocity=79 time=0
EXTRACT: note_off channel=2 note=55 velocity=79 time=0
EXTRACT: note_on channel=2 note=67 velocity=79 time=0
EXTRACT: note_on channel=2 note=64 velocity=79 time=0
EXTRACT: note_on channel=2 note=60 velocity=79 time=0
EXTRACT: note_off channel=4 note=60 velocity=63 time=0
EXTRACT: note_on channel=4 note=72 velocity=63 time=0
EXTRACT: note_off channel=9 note=42 velocity=79 time=0
EXTRACT: note_on channel=9 note=42 velocity=79 time=0
EXTRACT: note_on channel=9 note=40 velocity=79 time=0
EXTRACT: note_off channel=0 note=82 velocity=79 time=0.428571
EXTRACT: note_on channel=0 note=80 velocity=79 time=0
EXTRACT: note_off channel=2 note=67 velocity=79 time=0
EXTRACT: note_off channel=2 note=64 velocity=79 time=0
EXTRACT: note_off channel=2 note=60 velocity=79 time=0
EXTRACT: note_on channel=2 note=55 velocity=79 time=0
EXTRACT: note_on channel=2 note=48 velocity=79 time=0
EXTRACT: note_off channel=9 note=42 velocity=79 time=0
EXTRACT: note_off channel=9 note=40 velocity=79 time=0
EXTRACT: note_on channel=9 note=42 velocity=79 time=0
EXTRACT: note_off channel=0 note=80 velocity=79 time=0.428571
EXTRACT: note_on channel=0 note=82 velocity=63 time=0
EXTRACT: note_on channel=0 note=80 velocity=79 time=0
EXTRACT: note_off channel=2 note=55 velocity=79 time=0
EXTRACT: note_off channel=2 note=48 velocity=79 time=0
EXTRACT: note_on channel=2 note=68 velocity=79 time=0
EXTRACT: note_on channel=2 note=65 velocity=79 time=0
EXTRACT: note_on channel=2 note=61 velocity=79 time=0
EXTRACT: note_on channel=2 note=46 velocity=79 time=0
EXTRACT: note_on channel=2 note=41 velocity=79 time=0
EXTRACT: note_off channel=4 note=72 velocity=63 time=0
EXTRACT: note_on channel=4 note=70 velocity=63 time=0
EXTRACT: note_on channel=4 note=58 velocity=63 time=0
EXTRACT: note_off channel=6 note=24 velocity=79 time=0
EXTRACT: note_on channel=6 note=34 velocity=79 time=0
EXTRACT: note_off channel=9 note=42 velocity=79 time=0
EXTRACT: note_on channel=9 note=49 velocity=79 time=0
EXTRACT: note_on channel=9 note=35 velocity=79 time=0
EXTRACT: note_off channel=0 note=82 velocity=63 time=0.2142855
EXTRACT: note_off channel=0 note=80 velocity=79 time=0
EXTRACT: note_on channel=0 note=77 velocity=79 time=0
EXTRACT: note_off channel=0 note=77 velocity=79 time=0.2142855
EXTRACT: note_on channel=0 note=80 velocity=79 time=0
EXTRACT: note_off channel=2 note=68 velocity=79 time=0
EXTRACT: note_off channel=2 note=65 velocity=79 time=0
EXTRACT: note_off channel=2 note=61 velocity=79 time=0
EXTRACT: note_off channel=2 note=46 velocity=79 time=0
EXTRACT: note_off channel=2 note=41 velocity=79 time=0
EXTRACT: note_on channel=2 note=56 velocity=79 time=0
EXTRACT: note_off channel=9 note=49 velocity=79 time=0
EXTRACT: note_off channel=9 note=35 velocity=79 time=0
EXTRACT: note_on channel=9 note=42 velocity=79 time=0
EXTRACT: note_off channel=0 note=80 velocity=79 time=0.2142855
EXTRACT: note_on channel=0 note=77 velocity=79 time=0
EXTRACT: note_off channel=0 note=77 velocity=79 time=0.2142855
EXTRACT: note_on channel=0 note=80 velocity=79 time=0
EXTRACT: note_off channel=2 note=56 velocity=79 time=0
EXTRACT: note_on channel=2 note=68 velocity=79 time=0
EXTRACT: note_on channel=2 note=65 velocity=79 time=0
EXTRACT: note_on channel=2 note=61 velocity=79 time=0
EXTRACT: note_off channel=9 note=42 velocity=79 time=0
EXTRACT: note_on channel=9 note=42 velocity=79 time=0
EXTRACT: note_on channel=9 note=40 velocity=79 time=0
EXTRACT: note_off channel=0 note=80 velocity=79 time=0.428571
EXTRACT: note_on channel=0 note=77 velocity=79 time=0
EXTRACT: note_off channel=2 note=68 velocity=79 time=0
EXTRACT: note_off channel=2 note=65 velocity=79 time=0
EXTRACT: note_off channel=2 note=61 velocity=79 time=0
EXTRACT: note_on channel=2 note=56 velocity=79 time=0
EXTRACT: note_on channel=2 note=41 velocity=79 time=0
EXTRACT: note_off channel=6 note=34 velocity=79 time=0
EXTRACT: note_on channel=6 note=34 velocity=79 time=0
EXTRACT: note_off channel=9 note=42 velocity=79 time=0
EXTRACT: note_off channel=9 note=40 velocity=79 time=0
EXTRACT: note_on channel=9 note=42 velocity=79 time=0
EXTRACT: note_off channel=0 note=77 velocity=79 time=0.2142855
EXTRACT: note_on channel=0 note=80 velocity=79 time=0
EXTRACT: note_off channel=0 note=80 velocity=79 time=0.2142855
EXTRACT: note_on channel=0 note=80 velocity=63 time=0
EXTRACT: note_off channel=2 note=56 velocity=79 time=0
EXTRACT: note_off channel=2 note=41 velocity=79 time=0
EXTRACT: note_on channel=2 note=68 velocity=79 time=0
EXTRACT: note_on channel=2 note=63 velocity=79 time=0
EXTRACT: note_on channel=2 note=60 velocity=79 time=0
EXTRACT: note_on channel=2 note=44 velocity=79 time=0
EXTRACT: note_off channel=4 note=70 velocity=63 time=0
EXTRACT: note_off channel=4 note=58 velocity=63 time=0
EXTRACT: note_on channel=4 note=68 velocity=63 time=0
EXTRACT: note_on channel=4 note=56 velocity=63 time=0
EXTRACT: note_off channel=6 note=34 velocity=79 time=0
EXTRACT: note_on channel=6 note=32 velocity=79 time=0
EXTRACT: note_off channel=9 note=42 velocity=79 time=0
EXTRACT: note_on channel=9 note=42 velocity=79 time=0
EXTRACT: note_on channel=9 note=35 velocity=79 time=0
EXTRACT: note_off channel=0 note=80 velocity=63 time=0.2142855
EXTRACT: note_on channel=0 note=80 velocity=79 time=0
EXTRACT: note_off channel=2 note=68 velocity=79 time=0.2142855
EXTRACT: note_off channel=2 note=63 velocity=79 time=0
EXTRACT: note_off channel=2 note=60 velocity=79 time=0
EXTRACT: note_off channel=2 note=44 velocity=79 time=0
EXTRACT: note_on channel=2 note=56 velocity=79 time=0
EXTRACT: note_off channel=9 note=42 velocity=79 time=0
EXTRACT: note_off channel=9 note=35 velocity=79 time=0
EXTRACT: note_on channel=9 note=42 velocity=79 time=0
EXTRACT: note_off channel=0 note=80 velocity=79 time=0.2142855
EXTRACT: note_on channel=0 note=80 velocity=79 time=0
EXTRACT: note_off channel=2 note=56 velocity=79 time=0.2142855
EXTRACT: note_on channel=2 note=68 velocity=79 time=0
EXTRACT: note_on channel=2 note=63 velocity=79 time=0
EXTRACT: note_on channel=2 note=60 velocity=79 time=0
EXTRACT: note_off channel=9 note=42 velocity=79 time=0
EXTRACT: note_on channel=9 note=42 velocity=79 time=0
EXTRACT: note_on channel=9 note=40 velocity=79 time=0
EXTRACT: note_off channel=0 note=80 velocity=79 time=0.2142855
EXTRACT: note_on channel=0 note=80 velocity=79 time=0
EXTRACT: note_off channel=2 note=68 velocity=79 time=0.2142855
EXTRACT: note_off channel=2 note=63 velocity=79 time=0
EXTRACT: note_off channel=2 note=60 velocity=79 time=0
EXTRACT: note_on channel=2 note=56 velocity=79 time=0
EXTRACT: note_on channel=2 note=44 velocity=79 time=0
EXTRACT: note_off channel=6 note=32 velocity=79 time=0
EXTRACT: note_on channel=6 note=32 velocity=79 time=0
EXTRACT: note_off channel=9 note=42 velocity=79 time=0
EXTRACT: note_off channel=9 note=40 velocity=79 time=0
EXTRACT: note_on channel=9 note=42 velocity=79 time=0
EXTRACT: note_off channel=0 note=80 velocity=79 time=0.2142855
EXTRACT: note_on channel=0 note=82 velocity=79 time=0
EXTRACT: note_off channel=0 note=82 velocity=79 time=0.2142855
EXTRACT: note_on channel=0 note=82 velocity=63 time=0
EXTRACT: note_off channel=2 note=56 velocity=79 time=0
EXTRACT: note_off channel=2 note=44 velocity=79 time=0
EXTRACT: note_on channel=2 note=70 velocity=79 time=0
EXTRACT: note_on channel=2 note=67 velocity=79 time=0
EXTRACT: note_on channel=2 note=63 velocity=79 time=0
EXTRACT: note_on channel=2 note=51 velocity=79 time=0
EXTRACT: note_on channel=2 note=46 velocity=79 time=0
EXTRACT: note_off channel=4 note=68 velocity=63 time=0
EXTRACT: note_off channel=4 note=56 velocity=63 time=0
EXTRACT: note_on channel=4 note=70 velocity=63 time=0
EXTRACT: note_on channel=4 note=63 velocity=63 time=0
EXTRACT: note_off channel=6 note=32 velocity=79 time=0
EXTRACT: note_on channel=6 note=27 velocity=79 time=0
EXTRACT: note_off channel=9 note=42 velocity=79 time=0
EXTRACT: note_on channel=9 note=42 velocity=79 time=0
EXTRACT: note_on channel=9 note=35 velocity=79 time=0
EXTRACT: note_off channel=0 note=82 velocity=63 time=0.2142855
EXTRACT: note_on channel=0 note=80 velocity=79 time=0
EXTRACT: note_off channel=0 note=80 velocity=79 time=0.2142855
EXTRACT: note_on channel=0 note=82 velocity=79 time=0
EXTRACT: note_off channel=2 note=70 velocity=79 time=0
EXTRACT: note_off channel=2 note=67 velocity=79 time=0
EXTRACT: note_off channel=2 note=63 velocity=79 time=0
EXTRACT: note_off channel=2 note=51 velocity=79 time=0
EXTRACT: note_off channel=2 note=46 velocity=79 time=0
EXTRACT: note_on channel=2 note=58 velocity=79 time=0
EXTRACT: note_off channel=9 note=42 velocity=79 time=0
EXTRACT: note_off channel=9 note=35 velocity=79 time=0
EXTRACT: note_on channel=9 note=42 velocity=79 time=0
EXTRACT: note_off channel=0 note=82 velocity=79 time=0.2142855
EXTRACT: note_on channel=0 note=80 velocity=79 time=0
EXTRACT: note_off channel=0 note=80 velocity=79 time=0.2142855
EXTRACT: note_on channel=0 note=82 velocity=79 time=0
EXTRACT: note_off channel=2 note=58 velocity=79 time=0
EXTRACT: note_on channel=2 note=67 velocity=79 time=0
EXTRACT: note_on channel=2 note=58 velocity=79 time=0
EXTRACT: note_off channel=9 note=42 velocity=79 time=0
EXTRACT: note_on channel=9 note=42 velocity=79 time=0
EXTRACT: note_on channel=9 note=40 velocity=79 time=0
EXTRACT: note_off channel=0 note=82 velocity=79 time=0.428571
EXTRACT: note_on channel=0 note=80 velocity=79 time=0
EXTRACT: note_off channel=2 note=67 velocity=79 time=0
EXTRACT: note_off channel=2 note=58 velocity=79 time=0
EXTRACT: note_on channel=2 note=63 velocity=79 time=0
EXTRACT: note_on channel=2 note=51 velocity=79 time=0
EXTRACT: note_off channel=6 note=27 velocity=79 time=0
EXTRACT: note_on channel=6 note=27 velocity=79 time=0
EXTRACT: note_off channel=9 note=42 velocity=79 time=0
EXTRACT: note_off channel=9 note=40 velocity=79 time=0
EXTRACT: note_on channel=9 note=42 velocity=79 time=0
EXTRACT: note_off channel=0 note=80 velocity=79 time=0.2142855
EXTRACT: note_on channel=0 note=84 velocity=79 time=0
EXTRACT: note_off channel=2 note=63 velocity=79 time=0.2142855
EXTRACT: note_off channel=2 note=51 velocity=79 time=0
EXTRACT: note_on channel=2 note=70 velocity=79 time=0
EXTRACT: note_on channel=2 note=65 velocity=79 time=0
EXTRACT: note_on channel=2 note=61 velocity=79 time=0
EXTRACT: note_on channel=2 note=46 velocity=79 time=0
EXTRACT: note_on channel=2 note=41 velocity=79 time=0
EXTRACT: note_off channel=4 note=70 velocity=63 time=0
EXTRACT: note_off channel=4 note=63 velocity=63 time=0
EXTRACT: note_on channel=4 note=72 velocity=63 time=0
EXTRACT: note_on channel=4 note=58 velocity=63 time=0
EXTRACT: note_off channel=6 note=27 velocity=79 time=0
EXTRACT: note_on channel=6 note=34 velocity=79 time=0
EXTRACT: note_off channel=9 note=42 velocity=79 time=0
EXTRACT: note_on channel=9 note=42 velocity=79 time=0
EXTRACT: note_on channel=9 note=35 velocity=79 time=0
EXTRACT: note_off channel=0 note=84 velocity=79 time=0.2142855
EXTRACT: note_on channel=0 note=82 velocity=79 time=0
EXTRACT: note_off channel=2 note=70 velocity=79 time=0.2142855
EXTRACT: note_off channel=2 note=65 velocity=79 time=0
EXTRACT: note_off channel=2 note=61 velocity=79 time=0
EXTRACT: note_off channel=2 note=46 velocity=79 time=0
EXTRACT: note_off channel=2 note=41 velocity=79 time=0
EXTRACT: note_on channel=2 note=58 velocity=79 time=0
EXTRACT: note_off channel=9 note=42 velocity=79 time=0
EXTRACT: note_off channel=9 note=35 velocity=79 time=0
EXTRACT: note_on channel=9 note=42 velocity=79 time=0
EXTRACT: note_off channel=0 note=82 velocity=79 time=0.2142855
EXTRACT: note_on channel=0 note=80 velocity=79 time=0
EXTRACT: note_off channel=0 note=80 velocity=79 time=0.2142855
EXTRACT: note_on channel=0 note=82 velocity=79 time=0
EXTRACT: note_off channel=2 note=58 velocity=79 time=0
EXTRACT: note_on channel=2 note=65 velocity=79 time=0
EXTRACT: note_on channel=2 note=61 velocity=79 time=0
EXTRACT: note_on channel=2 note=58 velocity=79 time=0
EXTRACT: note_off channel=9 note=42 velocity=79 time=0
EXTRACT: note_on channel=9 note=42 velocity=79 time=0
EXTRACT: note_on channel=9 note=40 velocity=79 time=0
EXTRACT: note_off channel=0 note=82 velocity=79 time=0.428571
EXTRACT: note_on channel=0 note=80 velocity=79 time=0
EXTRACT: note_off channel=2 note=65 velocity=79 time=0
EXTRACT: note_off channel=2 note=61 velocity=79 time=0
EXTRACT: note_off channel=2 note=58 velocity=79 time=0
EXTRACT: note_on channel=2 note=53 velocity=79 time=0
EXTRACT: note_on channel=2 note=41 velocity=79 time=0
EXTRACT: note_off channel=6 note=34 velocity=79 time=0
EXTRACT: note_on channel=6 note=34 velocity=79 time=0
EXTRACT: note_off channel=9 note=42 velocity=79 time=0
EXTRACT: note_off channel=9 note=40 velocity=79 time=0
EXTRACT: note_on channel=9 note=46 velocity=79 time=0
EXTRACT: note_off channel=0 note=80 velocity=79 time=0.2142855
EXTRACT: note_on channel=0 note=84 velocity=79 time=0
EXTRACT: note_off channel=0 note=84 velocity=79 time=0.2142855
EXTRACT: note_on channel=0 note=80 velocity=63 time=0
EXTRACT: note_off channel=2 note=53 velocity=79 time=0
EXTRACT: note_off channel=2 note=41 velocity=79 time=0
EXTRACT: note_on channel=2 note=65 velocity=79 time=0
EXTRACT: note_on channel=2 note=61 velocity=79 time=0
EXTRACT: note_on channel=2 note=56 velocity=79 time=0
EXTRACT: note_on channel=2 note=49 velocity=79 time=0
EXTRACT: note_on channel=2 note=44 velocity=79 time=0
EXTRACT: note_off channel=4 note=72 velocity=63 time=0
EXTRACT: note_off channel=4 note=58 velocity=63 time=0
EXTRACT: note_on channel=4 note=61 velocity=63 time=0
EXTRACT: note_on channel=4 note=56 velocity=63 time=0
EXTRACT: note_off channel=6 note=34 velocity=79 time=0
EXTRACT: note_on channel=6 note=37 velocity=79 time=0
EXTRACT: note_off channel=9 note=46 velocity=79 time=0
EXTRACT: note_on channel=9 note=49 velocity=79 time=0
EXTRACT: note_on channel=9 note=35 velocity=79 time=0
EXTRACT: note_off channel=0 note=80 velocity=63 time=0.2142855
EXTRACT: note_on channel=0 note=85 velocity=79 time=0
EXTRACT: note_off channel=0 note=85 velocity=79 time=0.2142855
EXTRACT: note_on channel=0 note=84 velocity=79 time=0
EXTRACT: note_off channel=2 note=65 velocity=79 time=0
EXTRACT: note_off channel=2 note=61 velocity=79 time=0
EXTRACT: note_off channel=2 note=56 velocity=79 time=0
EXTRACT: note_off channel=2 note=49 velocity=79 time=0
EXTRACT: note_off channel=2 note=44 velocity=79 time=0
EXTRACT: note_on channel=2 note=53 velocity=79 time=0
EXTRACT: note_off channel=9 note=49 velocity=79 time=0
EXTRACT: note_off channel=9 note=35 velocity=79 time=0
EXTRACT: note_on channel=9 note=42 velocity=79 time=0
EXTRACT: note_off channel=0 note=84 velocity=79 time=0.2142855
EXTRACT: note_on channel=0 note=82 velocity=79 time=0
EXTRACT: note_off channel=0 note=82 velocity=79 time=0.2142855
EXTRACT: note_on channel=0 note=80 velocity=79 time=0
EXTRACT: note_off channel=2 note=53 velocity=79 time=0
EXTRACT: note_on channel=2 note=65 velocity=79 time=0
EXTRACT: note_on channel=2 note=61 velocity=79 time=0
EXTRACT: note_on channel=2 note=56 velocity=79 time=0
EXTRACT: note_off channel=9 note=42 velocity=79 time=0
EXTRACT: note_on channel=9 note=42 velocity=79 time=0
EXTRACT: note_on channel=9 note=40 velocity=79 time=0
EXTRACT: note_off channel=2 note=65 velocity=79 time=0.428571
EXTRACT: note_off channel=2 note=61 velocity=79 time=0
EXTRACT: note_off channel=2 note=56 velocity=79 time=0
EXTRACT: note_on channel=2 note=53 velocity=79 time=0
EXTRACT: note_on channel=2 note=49 velocity=79 time=0
EXTRACT: note_off channel=6 note=37 velocity=79 time=0
EXTRACT: note_on channel=6 note=37 velocity=79 time=0
EXTRACT: note_off channel=9 note=42 velocity=79 time=0
EXTRACT: note_off channel=9 note=40 velocity=79 time=0
EXTRACT: note_on channel=9 note=42 velocity=79 time=0
EXTRACT: note_off channel=2 note=53 velocity=79 time=0.428571
EXTRACT: note_off channel=2 note=49 velocity=79 time=0
EXTRACT: note_on channel=2 note=65 velocity=79 time=0
EXTRACT: note_on channel=2 note=61 velocity=79 time=0
EXTRACT: note_on channel=2 note=56 velocity=79 time=0
EXTRACT: note_on channel=2 note=49 velocity=79 time=0
EXTRACT: note_on channel=2 note=44 velocity=79 time=0
EXTRACT: note_off channel=4 note=61 velocity=63 time=0
EXTRACT: note_off channel=4 note=56 velocity=63 time=0
EXTRACT: note_on channel=4 note=75 velocity=63 time=0
EXTRACT: note_off channel=6 note=37 velocity=79 time=0
EXTRACT: note_on channel=6 note=37 velocity=79 time=0
EXTRACT: note_off channel=9 note=42 velocity=79 time=0
EXTRACT: note_on channel=9 note=42 velocity=79 time=0
EXTRACT: note_on channel=9 note=35 velocity=79 time=0
EXTRACT: note_off channel=0 note=80 velocity=79 time=0.428571
EXTRACT: note_on channel=0 note=80 velocity=63 time=0
EXTRACT: note_off channel=2 note=65 velocity=79 time=0
EXTRACT: note_off channel=2 note=61 velocity=79 time=0
EXTRACT: note_off channel=2 note=56 velocity=79 time=0
EXTRACT: note_off channel=2 note=49 velocity=79 time=0
EXTRACT: note_off channel=2 note=44 velocity=79 time=0
EXTRACT: note_on channel=2 note=53 velocity=79 time=0
EXTRACT: note_off channel=9 note=42 velocity=79 time=0
EXTRACT: note_off channel=9 note=35 velocity=79 time=0
EXTRACT: note_on channel=9 note=42 velocity=79 time=0
EXTRACT: note_off channel=0 note=80 velocity=63 time=0.428571
EXTRACT: note_on channel=0 note=80 velocity=63 time=0
EXTRACT: note_off channel=2 note=53 velocity=79 time=0
EXTRACT: note_on channel=2 note=65 velocity=79 time=0
EXTRACT: note_on channel=2 note=61 velocity=79 time=0
EXTRACT: note_on channel=2 note=56 velocity=79 time=0
EXTRACT: note_off channel=9 note=42 velocity=79 time=0
EXTRACT: note_on channel=9 note=42 velocity=79 time=0
EXTRACT: note_on channel=9 note=40 velocity=79 time=0
EXTRACT: note_off channel=0 note=80 velocity=63 time=0.428571
EXTRACT: note_on channel=0 note=80 velocity=63 time=0
EXTRACT: note_off channel=2 note=65 velocity=79 time=0
EXTRACT: note_off channel=2 note=61 velocity=79 time=0
EXTRACT: note_off channel=2 note=56 velocity=79 time=0
EXTRACT: note_on channel=2 note=53 velocity=79 time=0
EXTRACT: note_on channel=2 note=49 velocity=79 time=0
EXTRACT: note_off channel=6 note=37 velocity=79 time=0
EXTRACT: note_on channel=6 note=37 velocity=79 time=0
EXTRACT: note_off channel=9 note=42 velocity=79 time=0
EXTRACT: note_off channel=9 note=40 velocity=79 time=0
EXTRACT: note_on channel=9 note=42 velocity=79 time=0
EXTRACT: note_off channel=0 note=80 velocity=63 time=0.2142855
EXTRACT: note_on channel=0 note=80 velocity=63 time=0
EXTRACT: note_off channel=9 note=42 velocity=79 time=0
EXTRACT: note_on channel=9 note=35 velocity=79 time=0
EXTRACT: note_off channel=2 note=53 velocity=79 time=0.2142855
EXTRACT: note_off channel=2 note=49 velocity=79 time=0
EXTRACT: note_on channel=2 note=63 velocity=79 time=0
EXTRACT: note_on channel=2 note=58 velocity=79 time=0
EXTRACT: note_on channel=2 note=51 velocity=79 time=0
EXTRACT: note_on channel=2 note=46 velocity=79 time=0
EXTRACT: note_off channel=4 note=75 velocity=63 time=0
EXTRACT: note_on channel=4 note=70 velocity=63 time=0
EXTRACT: note_on channel=4 note=51 velocity=63 time=0
EXTRACT: note_off channel=6 note=37 velocity=79 time=0
EXTRACT: note_on channel=6 note=27 velocity=79 time=0
EXTRACT: note_off channel=9 note=35 velocity=79 time=0
EXTRACT: note_on channel=9 note=57 velocity=79 time=0
EXTRACT: note_on channel=9 note=35 velocity=79 time=0
EXTRACT: note_off channel=0 note=80 velocity=63 time=0.2142855
EXTRACT: note_on channel=0 note=79 velocity=63 time=0
EXTRACT: note_off channel=9 note=57 velocity=79 time=0.6428565
EXTRACT: note_off channel=9 note=35 velocity=79 time=0
EXTRACT: note_off channel=0 note=79 velocity=63 time=0.857142
EXTRACT: note_off channel=4 note=70 velocity=63 time=0.857142
EXTRACT: note_off channel=4 note=51 velocity=63 time=0
EXTRACT: note_on channel=9 note=42 velocity=79 time=0
EXTRACT: note_off channel=2 note=63 velocity=79 time=0.2142855
EXTRACT: note_off channel=2 note=58 velocity=79 time=0
EXTRACT: note_off channel=2 note=51 velocity=79 time=0
EXTRACT: note_off channel=2 note=46 velocity=79 time=0
EXTRACT: note_on channel=2 note=55 velocity=79 time=0
EXTRACT: note_off channel=9 note=42 velocity=79 time=0
EXTRACT: note_on channel=9 note=42 velocity=79 time=0
EXTRACT: note_off channel=2 note=55 velocity=79 time=0.2142855
EXTRACT: note_on channel=2 note=56 velocity=79 time=0
EXTRACT: note_off channel=9 note=42 velocity=79 time=0
EXTRACT: note_on channel=9 note=46 velocity=79 time=0
EXTRACT: note_off channel=2 note=56 velocity=79 time=0.2142855
EXTRACT: note_on channel=2 note=63 velocity=79 time=0
EXTRACT: note_off channel=2 note=63 velocity=79 time=0.2142855
EXTRACT: note_on channel=2 note=56 velocity=79 time=0
EXTRACT: note_on channel=2 note=51 velocity=79 time=0
EXTRACT: note_on channel=2 note=44 velocity=79 time=0
EXTRACT: note_off channel=6 note=27 velocity=79 time=0
EXTRACT: note_on channel=6 note=32 velocity=79 time=0
EXTRACT: note_off channel=9 note=46 velocity=79 time=0
EXTRACT: note_on channel=9 note=42 velocity=79 time=0
EXTRACT: note_on channel=9 note=35 velocity=79 time=0
EXTRACT: note_off channel=9 note=42 velocity=79 time=0.2142855
EXTRACT: note_off channel=9 note=35 velocity=79 time=0
EXTRACT: note_on channel=9 note=44 velocity=79 time=0
EXTRACT: note_on channel=0 note=72 velocity=79 time=0.2142855
EXTRACT: note_off channel=9 note=44 velocity=79 time=0
EXTRACT: note_on channel=9 note=42 velocity=79 time=0
EXTRACT: note_off channel=0 note=72 velocity=79 time=0.428571
EXTRACT: note_on channel=0 note=72 velocity=79 time=0
EXTRACT: note_off channel=2 note=56 velocity=79 time=0
EXTRACT: note_off channel=2 note=51 velocity=79 time=0
EXTRACT: note_off channel=2 note=44 velocity=79 time=0
EXTRACT: note_on channel=2 note=68 velocity=79 time=0
EXTRACT: note_on channel=2 note=63 velocity=79 time=0
EXTRACT: note_on channel=2 note=60 velocity=79 time=0
EXTRACT: note_on channel=4 note=68 velocity=63 time=0
EXTRACT: note_on channel=4 note=56 velocity=63 time=0
EXTRACT: note_off channel=9 note=42 velocity=79 time=0
EXTRACT: note_on channel=9 note=42 velocity=79 time=0
EXTRACT: note_on channel=9 note=40 velocity=79 time=0
EXTRACT: note_off channel=0 note=72 velocity=79 time=0.428571
EXTRACT: note_on channel=0 note=68 velocity=79 time=0
EXTRACT: note_off channel=2 note=68 velocity=79 time=0
EXTRACT: note_off channel=2 note=63 velocity=79 time=0
EXTRACT: note_off channel=2 note=60 velocity=79 time=0
EXTRACT: note_on channel=2 note=63 velocity=79 time=0
EXTRACT: note_on channel=2 note=44 velocity=79 time=0
EXTRACT: note_off channel=6 note=32 velocity=79 time=0
EXTRACT: note_on channel=6 note=32 velocity=79 time=0
EXTRACT: note_off channel=9 note=42 velocity=79 time=0
EXTRACT: note_off channel=9 note=40 velocity=79 time=0
EXTRACT: note_on channel=9 note=42 velocity=79 time=0
EXTRACT: note_off channel=2 note=63 velocity=79 time=0.2142855
EXTRACT: note_off channel=2 note=44 velocity=79 time=0
EXTRACT: note_on channel=2 note=68 velocity=79 time=0
EXTRACT: note_off channel=0 note=68 velocity=79 time=0.2142855
EXTRACT: note_on channel=0 note=75 velocity=79 time=0
EXTRACT: note_off channel=2 note=68 velocity=79 time=0
EXTRACT: note_on channel=2 note=67 velocity=79 time=0
EXTRACT: note_on channel=2 note=63 velocity=79 time=0
EXTRACT: note_on channel=2 note=60 velocity=79 time=0
EXTRACT: note_on channel=2 note=55 velocity=79 time=0
EXTRACT: note_on channel=2 note=48 velocity=79 time=0
EXTRACT: note_off channel=4 note=68 velocity=63 time=0
EXTRACT: note_off channel=4 note=56 velocity=63 time=0
EXTRACT: note_on channel=4 note=67 velocity=63 time=0
EXTRACT: note_on channel=4 note=60 velocity=63 time=0
EXTRACT: note_off channel=6 note=32 velocity=79 time=0
EXTRACT: note_on channel=6 note=36 velocity=79 time=0
EXTRACT: note_off channel=9 note=42 velocity=79 time=0
EXTRACT: note_on channel=9 note=42 velocity=79 time=0
EXTRACT: note_on channel=9 note=35 velocity=79 time=0
EXTRACT: note_off channel=9 note=42 velocity=79 time=0.2142855
EXTRACT: note_off channel=9 note=35 velocity=79 time=0
EXTRACT: note_on channel=9 note=44 velocity=79 time=0
EXTRACT: note_off channel=9 note=44 velocity=79 time=0.2142855
EXTRACT: note_on channel=9 note=42 velocity=79 time=0
EXTRACT: note_off channel=2 note=67 velocity=79 time=0.428571
EXTRACT: note_off channel=2 note=63 velocity=79 time=0
EXTRACT: note_off channel=2 note=60 velocity=79 time=0
EXTRACT: note_off channel=2 note=55 velocity=79 time=0
EXTRACT: note_off channel=2 note=48 velocity=79 time=0
EXTRACT: note_on channel=2 note=67 velocity=79 time=0
EXTRACT: note_on channel=2 note=63 velocity=79 time=0
EXTRACT: note_on channel=2 note=60 velocity=79 time=0
EXTRACT: note_off channel=9 note=42 velocity=79 time=0
EXTRACT: note_on channel=9 note=42 velocity=79 time=0
EXTRACT: note_on channel=9 note=40 velocity=79 time=0
EXTRACT: note_off channel=0 note=75 velocity=79 time=0.2142855
EXTRACT: note_on channel=0 note=70 velocity=79 time=0.2142855
EXTRACT: note_off channel=4 note=67 velocity=63 time=0
EXTRACT: note_off channel=4 note=60 velocity=63 time=0
EXTRACT: note_on channel=4 note=63 velocity=63 time=0
EXTRACT: note_off channel=6 note=36 velocity=79 time=0
EXTRACT: note_on channel=6 note=36 velocity=79 time=0
EXTRACT: note_off channel=9 note=42 velocity=79 time=0
EXTRACT: note_off channel=9 note=40 velocity=79 time=0
EXTRACT: note_on channel=9 note=42 velocity=79 time=0
EXTRACT: note_off channel=0 note=70 velocity=79 time=0.2142855
EXTRACT: note_on channel=0 note=70 velocity=79 time=0
EXTRACT: note_off channel=2 note=67 velocity=79 time=0
EXTRACT: note_off channel=2 note=63 velocity=79 time=0
EXTRACT: note_off channel=2 note=60 velocity=79 time=0
EXTRACT: note_on channel=2 note=48 velocity=79 time=0
EXTRACT: note_off channel=0 note=70 velocity=79 time=0.2142855
EXTRACT: note_on channel=0 note=72 velocity=79 time=0
EXTRACT: note_off channel=2 note=48 velocity=79 time=0
EXTRACT: note_on channel=2 note=68 velocity=79 time=0
EXTRACT: note_on channel=2 note=65 velocity=79 time=0
EXTRACT: note_on channel=2 note=60 velocity=79 time=0
EXTRACT: note_on channel=2 note=53 velocity=79 time=0
EXTRACT: note_on channel=2 note=48 velocity=79 time=0
EXTRACT: note_on channel=2 note=41 velocity=79 time=0
EXTRACT: note_off channel=4 note=63 velocity=63 time=0
EXTRACT: note_on channel=4 note=67 velocity=63 time=0
EXTRACT: note_on channel=4 note=56 velocity=63 time=0
EXTRACT: note_off channel=6 note=36 velocity=79 time=0
EXTRACT: note_on channel=6 note=29 velocity=79 time=0
EXTRACT: note_off channel=9 note=42 velocity=79 time=0
EXTRACT: note_on channel=9 note=42 velocity=79 time=0
EXTRACT: note_on channel=9 note=35 velocity=79 time=0
EXTRACT: note_off channel=9 note=42 velocity=79 time=0.2142855
EXTRACT: note_off channel=9 note=35 velocity=79 time=0
EXTRACT: note_on channel=9 note=44 velocity=79 time=0
EXTRACT: note_off channel=0 note=72 velocity=79 time=0.2142855
EXTRACT: note_on channel=0 note=70 velocity=79 time=0
EXTRACT: note_off channel=9 note=44 velocity=79 time=0
EXTRACT: note_on channel=9 note=42 velocity=79 time=0
EXTRACT: note_off channel=0 note=70 velocity=79 time=0.2142855
EXTRACT: note_on channel=0 note=72 velocity=79 time=0
EXTRACT: note_off channel=2 note=68 velocity=79 time=0.2142855
EXTRACT: note_off channel=2 note=65 velocity=79 time=0
EXTRACT: note_off channel=2 note=60 velocity=79 time=0
EXTRACT: note_off channel=2 note=53 velocity=79 time=0
EXTRACT: note_off channel=2 note=48 velocity=79 time=0
EXTRACT: note_off channel=2 note=41 velocity=79 time=0
EXTRACT: note_on channel=2 note=68 velocity=79 time=0
EXTRACT: note_on channel=2 note=65 velocity=79 time=0
EXTRACT: note_on channel=2 note=60 velocity=79 time=0
EXTRACT: note_off channel=9 note=42 velocity=79 time=0
EXTRACT: note_on channel=9 note=42 velocity=79 time=0
EXTRACT: note_on channel=9 note=40 velocity=79 time=0
EXTRACT: note_off channel=0 note=72 velocity=79 time=0.428571
EXTRACT: note_on channel=0 note=70 velocity=79 time=0
EXTRACT: note_off channel=6 note=29 velocity=79 time=0
EXTRACT: note_on channel=6 note=29 velocity=79 time=0
EXTRACT: note_off channel=9 note=42 velocity=79 time=0
EXTRACT: note_off channel=9 note=40 velocity=79 time=0
EXTRACT: note_on channel=9 note=42 velocity=79 time=0
EXTRACT: note_off channel=0 note=70 velocity=79 time=0.2142855
EXTRACT: note_on channel=0 note=72 velocity=79 time=0
EXTRACT: note_on channel=0 note=68 velocity=63 time=0
EXTRACT: note_off channel=2 note=68 velocity=79 time=0.2142855
EXTRACT: note_off channel=2 note=65 velocity=79 time=0
EXTRACT: note_off channel=2 note=60 velocity=79 time=0
EXTRACT: note_on channel=2 note=68 velocity=79 time=0
EXTRACT: note_on channel=2 note=65 velocity=79 time=0
EXTRACT: note_off channel=4 note=67 velocity=63 time=0
EXTRACT: note_off channel=4 note=56 velocity=63 time=0
EXTRACT: note_on channel=4 note=65 velocity=63 time=0
EXTRACT: note_off channel=6 note=29 velocity=79 time=0
EXTRACT: note_on channel=6 note=29 velocity=79 time=0
EXTRACT: note_off channel=9 note=42 velocity=79 time=0
EXTRACT: note_on channel=9 note=42 velocity=79 time=0
EXTRACT: note_on channel=9 note=35 velocity=79 time=0
EXTRACT: note_off channel=0 note=72 velocity=79 time=0.2142855
EXTRACT: note_off channel=0 note=68 velocity=63 time=0
EXTRACT: note_on channel=0 note=70 velocity=79 time=0
EXTRACT: note_on channel=0 note=70 velocity=63 time=0
EXTRACT: note_off channel=9 note=42 velocity=79 time=0
EXTRACT: note_off channel=9 note=35 velocity=79 time=0
EXTRACT: note_on channel=9 note=44 velocity=79 time=0
EXTRACT: note_off channel=9 note=44 velocity=79 time=0.2142855
EXTRACT: note_on channel=9 note=42 velocity=79 time=0
EXTRACT: note_off channel=2 note=68 velocity=79 time=0.2142855
EXTRACT: note_off channel=2 note=65 velocity=79 time=0
EXTRACT: note_on channel=2 note=68 velocity=79 time=0
EXTRACT: note_on channel=2 note=41 velocity=79 time=0
EXTRACT: note_off channel=0 note=70 velocity=79 time=0.2142855
EXTRACT: note_off channel=0 note=70 velocity=63 time=0
EXTRACT: note_on channel=0 note=72 velocity=79 time=0
EXTRACT: note_on channel=0 note=67 velocity=63 time=0
EXTRACT: note_off channel=2 note=68 velocity=79 time=0
EXTRACT: note_off channel=2 note=41 velocity=79 time=0
EXTRACT: note_on channel=2 note=67 velocity=79 time=0
EXTRACT: note_on channel=2 note=63 velocity=79 time=0
EXTRACT: note_on channel=2 note=58 velocity=79 time=0
EXTRACT: note_on channel=2 note=51 velocity=79 time=0
EXTRACT: note_on channel=2 note=46 velocity=79 time=0
EXTRACT: note_off channel=4 note=65 velocity=63 time=0
EXTRACT: note_on channel=4 note=55 velocity=63 time=0
EXTRACT: note_off channel=6 note=29 velocity=79 time=0
EXTRACT: note_on channel=6 note=27 velocity=79 time=0
EXTRACT: note_off channel=9 note=42 velocity=79 time=0
EXTRACT: note_on channel=9 note=42 velocity=79 time=0
EXTRACT: note_on channel=9 note=40 velocity=79 time=0
EXTRACT: note_off channel=0 note=72 velocity=79 time=0.428571
EXTRACT: note_off channel=0 note=67 velocity=63 time=0
EXTRACT: note_on channel=0 note=73 velocity=79 time=0
EXTRACT: note_on channel=0 note=68 velocity=63 time=0
EXTRACT: note_off channel=2 note=67 velocity=79 time=0
EXTRACT: note_off channel=2 note=63 velocity=79 time=0
EXTRACT: note_off channel=2 note=58 velocity=79 time=0
EXTRACT: note_off channel=2 note=51 velocity=79 time=0
EXTRACT: note_off channel=2 note=46 velocity=79 time=0
EXTRACT: note_on channel=2 note=63 velocity=79 time=0
EXTRACT: note_off channel=9 note=42 velocity=79 time=0
EXTRACT: note_off channel=9 note=40 velocity=79 time=0
EXTRACT: note_on channel=9 note=42 velocity=79 time=0
EXTRACT: note_off channel=0 note=73 velocity=79 time=0.2142855
EXTRACT: note_off channel=0 note=68 velocity=63 time=0
EXTRACT: note_on channel=0 note=72 velocity=79 time=0
EXTRACT: note_on channel=0 note=68 velocity=63 time=0
EXTRACT: note_off channel=2 note=63 velocity=79 time=0
EXTRACT: note_on channel=2 note=67 velocity=79 time=0
EXTRACT: note_off channel=2 note=67 velocity=79 time=0.2142855
EXTRACT: note_on channel=2 note=68 velocity=79 time=0
EXTRACT: note_on channel=2 note=63 velocity=79 time=0
EXTRACT: note_on channel=2 note=56 velocity=79 time=0
EXTRACT: note_on channel=2 note=51 velocity=79 time=0
EXTRACT: note_on channel=2 note=44 velocity=79 time=0
EXTRACT: note_off channel=4 note=55 velocity=63 time=0
EXTRACT: note_off channel=6 note=27 velocity=79 time=0
EXTRACT: note_on channel=6 note=32 velocity=79 time=0
EXTRACT: note_off channel=9 note=42 velocity=79 time=0
EXTRACT: note_on channel=9 note=42 velocity=79 time=0
EXTRACT: note_on channel=9 note=35 velocity=79 time=0
EXTRACT: note_off channel=9 note=42 velocity=79 time=0.2142855
EXTRACT: note_off channel=9 note=35 velocity=79 time=0
EXTRACT: note_on channel=9 note=44 velocity=79 time=0
EXTRACT: note_off channel=0 note=72 velocity=79 time=0.2142855
EXTRACT: note_off channel=0 note=68 velocity=63 time=0
EXTRACT: note_on channel=0 note=72 velocity=79 time=0
EXTRACT: note_off channel=9 note=44 velocity=79 time=0
EXTRACT: note_on channel=9 note=42 velocity=79 time=0
EXTRACT: note_off channel=0 note=72 velocity=79 time=0.428571
EXTRACT: note_on channel=0 note=72 velocity=79 time=0
EXTRACT: note_off channel=2 note=68 velocity=79 time=0
EXTRACT: note_off channel=2 note=63 velocity=79 time=0
EXTRACT: note_off channel=2 note=56 velocity=79 time=0
EXTRACT: note_off channel=2 note=51 velocity=79 time=0
EXTRACT: note_off channel=2 note=44 velocity=79 time=0
EXTRACT: note_on channel=2 note=68 velocity=79 time=0
EXTRACT: note_on channel=2 note=63 velocity=79 time=0
EXTRACT: note_on channel=2 note=60 velocity=79 time=0
EXTRACT: note_on channel=4 note=68 velocity=63 time=0
EXTRACT: note_on channel=4 note=56 velocity=63 time=0
EXTRACT: note_off channel=9 note=42 velocity=79 time=0
EXTRACT: note_on channel=9 note=42 velocity=79 time=0
EXTRACT: note_on channel=9 note=40 velocity=79 time=0
EXTRACT: note_off channel=0 note=72 velocity=79 time=0.428571
EXTRACT: note_on channel=0 note=68 velocity=79 time=0
EXTRACT: note_off channel=2 note=68 velocity=79 time=0
EXTRACT: note_off channel=2 note=63 velocity=79 time=0
EXTRACT: note_off channel=2 note=60 velocity=79 time=0
EXTRACT: note_on channel=2 note=44 velocity=79 time=0
EXTRACT: note_off channel=6 note=32 velocity=79 time=0
EXTRACT: note_on channel=6 note=32 velocity=79 time=0
EXTRACT: note_off channel=9 note=42 velocity=79 time=0
EXTRACT: note_off channel=9 note=40 velocity=79 time=0
EXTRACT: note_on channel=9 note=42 velocity=79 time=0
EXTRACT: note_off channel=0 note=68 velocity=79 time=0.428571
EXTRACT: note_on channel=0 note=75 velocity=79 time=0
EXTRACT: note_off channel=2 note=44 velocity=79 time=0
EXTRACT: note_on channel=2 note=67 velocity=79 time=0
EXTRACT: note_on channel=2 note=63 velocity=79 time=0
EXTRACT: note_on channel=2 note=60 velocity=79 time=0
EXTRACT: note_on channel=2 note=55 velocity=79 time=0
EXTRACT: note_on channel=2 note=48 velocity=79 time=0
EXTRACT: note_off channel=4 note=68 velocity=63 time=0
EXTRACT: note_off channel=4 note=56 velocity=63 time=0
EXTRACT: note_on channel=4 note=67 velocity=63 time=0
EXTRACT: note_on channel=4 note=55 velocity=63 time=0
EXTRACT: note_off channel=6 note=32 velocity=79 time=0
EXTRACT: note_on channel=6 note=36 velocity=79 time=0
EXTRACT: note_off channel=9 note=42 velocity=79 time=0
EXTRACT: note_on channel=9 note=42 velocity=79 time=0
EXTRACT: note_on channel=9 note=35 velocity=79 time=0
EXTRACT: note_off channel=9 note=42 velocity=79 time=0.2142855
EXTRACT: note_off channel=9 note=35 velocity=79 time=0
EXTRACT: note_on channel=9 note=44 velocity=79 time=0
EXTRACT: note_off channel=9 note=44 velocity=79 time=0.2142855
EXTRACT: note_on channel=9 note=42 velocity=79 time=0
EXTRACT: note_off channel=0 note=75 velocity=79 time=0.428571
EXTRACT: note_off channel=2 note=67 velocity=79 time=0
EXTRACT: note_off channel=2 note=63 velocity=79 time=0
EXTRACT: note_off channel=2 note=60 velocity=79 time=0
EXTRACT: note_off channel=2 note=55 velocity=79 time=0
EXTRACT: note_off channel=2 note=48 velocity=79 time=0
EXTRACT: note_on channel=2 note=67 velocity=79 time=0
EXTRACT: note_on channel=2 note=63 velocity=79 time=0
EXTRACT: note_on channel=2 note=60 velocity=79 time=0
EXTRACT: note_off channel=9 note=42 velocity=79 time=0
EXTRACT: note_on channel=9 note=42 velocity=79 time=0
EXTRACT: note_on channel=9 note=40 velocity=79 time=0
EXTRACT: note_off channel=2 note=67 velocity=79 time=0.428571
EXTRACT: note_off channel=2 note=63 velocity=79 time=0
EXTRACT: note_off channel=2 note=60 velocity=79 time=0
EXTRACT: note_on channel=2 note=63 velocity=79 time=0
EXTRACT: note_off channel=4 note=67 velocity=63 time=0
EXTRACT: note_off channel=4 note=55 velocity=63 time=0
EXTRACT: note_on channel=4 note=60 velocity=63 time=0
EXTRACT: note_off channel=6 note=36 velocity=79 time=0
EXTRACT: note_on channel=6 note=36 velocity=79 time=0
EXTRACT: note_off channel=9 note=42 velocity=79 time=0
EXTRACT: note_off channel=9 note=40 velocity=79 time=0
EXTRACT: note_on channel=9 note=42 velocity=79 time=0
EXTRACT: note_on channel=0 note=70 velocity=79 time=0.2142855
EXTRACT: note_off channel=2 note=63 velocity=79 time=0
EXTRACT: note_on channel=2 note=55 velocity=79 time=0
EXTRACT: note_on channel=2 note=48 velocity=79 time=0
EXTRACT: note_off channel=0 note=70 velocity=79 time=0.2142855
EXTRACT: note_on channel=0 note=72 velocity=79 time=0
EXTRACT: note_off channel=2 note=55 velocity=79 time=0
EXTRACT: note_off channel=2 note=48 velocity=79 time=0
EXTRACT: note_on channel=2 note=68 velocity=79 time=0
EXTRACT: note_on channel=2 note=65 velocity=79 time=0
EXTRACT: note_on channel=2 note=60 velocity=79 time=0
EXTRACT: note_on channel=2 note=53 velocity=79 time=0
EXTRACT: note_on channel=2 note=48 velocity=79 time=0
EXTRACT: note_on channel=2 note=41 velocity=79 time=0
EXTRACT: note_off channel=4 note=60 velocity=63 time=0
EXTRACT: note_on channel=4 note=60 velocity=63 time=0
EXTRACT: note_on channel=4 note=53 velocity=63 time=0
EXTRACT: note_off channel=6 note=36 velocity=79 time=0
EXTRACT: note_on channel=6 note=29 velocity=79 time=0
EXTRACT: note_off channel=9 note=42 velocity=79 time=0
EXTRACT: note_on channel=9 note=42 velocity=79 time=0
EXTRACT: note_on channel=9 note=35 velocity=79 time=0
EXTRACT: note_off channel=9 note=42 velocity=79 time=0.2142855
EXTRACT: note_off channel=9 note=35 velocity=79 time=0
EXTRACT: note_on channel=9 note=44 velocity=79 time=0
EXTRACT: note_off channel=0 note=72 velocity=79 time=0.2142855
EXTRACT: note_on channel=0 note=70 velocity=79 time=0
EXTRACT: note_off channel=9 note=44 velocity=79 time=0
EXTRACT: note_on channel=9 note=42 velocity=79 time=0
EXTRACT: note_off channel=0 note=70 velocity=79 time=0.2142855
EXTRACT: note_on channel=0 note=72 velocity=79 time=0
EXTRACT: note_off channel=2 note=68 velocity=79 time=0.2142855
EXTRACT: note_off channel=2 note=65 velocity=79 time=0
EXTRACT: note_off channel=2 note=60 velocity=79 time=0
EXTRACT: note_off channel=2 note=53 velocity=79 time=0
EXTRACT: note_off channel=2 note=48 velocity=79 time=0
EXTRACT: note_off channel=2 note=41 velocity=79 time=0
EXTRACT: note_on channel=2 note=68 velocity=79 time=0
EXTRACT: note_on channel=2 note=65 velocity=79 time=0
EXTRACT: note_on channel=2 note=60 velocity=79 time=0
EXTRACT: note_off channel=9 note=42 velocity=79 time=0
EXTRACT: note_on channel=9 note=42 velocity=79 time=0
EXTRACT: note_on channel=9 note=40 velocity=79 time=0
EXTRACT: note_off channel=0 note=72 velocity=79 time=0.2142855
EXTRACT: note_on channel=0 note=70 velocity=79 time=0
EXTRACT: note_off channel=6 note=29 velocity=79 time=0.2142855
EXTRACT: note_on channel=6 note=29 velocity=79 time=0
EXTRACT: note_off channel=9 note=42 velocity=79 time=0
EXTRACT: note_off channel=9 note=40 velocity=79 time=0
EXTRACT: note_on channel=9 note=42 velocity=79 time=0
EXTRACT: note_off channel=0 note=70 velocity=79 time=0.2142855
EXTRACT: note_on channel=0 note=72 velocity=79 time=0
EXTRACT: note_off channel=2 note=68 velocity=79 time=0.2142855
EXTRACT: note_off channel=2 note=65 velocity=79 time=0
EXTRACT: note_off channel=2 note=60 velocity=79 time=0
EXTRACT: note_on channel=2 note=68 velocity=79 time=0
EXTRACT: note_on channel=2 note=65 velocity=79 time=0
EXTRACT: note_on channel=2 note=60 velocity=79 time=0
EXTRACT: note_off channel=6 note=29 velocity=79 time=0
EXTRACT: note_on channel=6 note=29 velocity=79 time=0
EXTRACT: note_off channel=9 note=42 velocity=79 time=0
EXTRACT: note_on channel=9 note=42 velocity=79 time=0
EXTRACT: note_on channel=9 note=35 velocity=79 time=0
EXTRACT: note_off channel=0 note=72 velocity=79 time=0.2142855
EXTRACT: note_on channel=0 note=70 velocity=79 time=0
EXTRACT: note_off channel=9 note=42 velocity=79 time=0
EXTRACT: note_off channel=9 note=35 velocity=79 time=0
EXTRACT: note_on channel=9 note=44 velocity=79 time=0
EXTRACT: note_off channel=9 note=44 velocity=79 time=0.2142855
EXTRACT: note_on channel=9 note=42 velocity=79 time=0
EXTRACT: note_off channel=0 note=70 velocity=79 time=0.2142855
EXTRACT: note_on channel=0 note=72 velocity=79 time=0
EXTRACT: note_off channel=2 note=68 velocity=79 time=0.2142855
EXTRACT: note_off channel=2 note=65 velocity=79 time=0
EXTRACT: note_off channel=2 note=60 velocity=79 time=0
EXTRACT: note_on channel=2 note=58 velocity=79 time=0
EXTRACT: note_on channel=2 note=51 velocity=79 time=0
EXTRACT: note_on channel=2 note=46 velocity=79 time=0
EXTRACT: note_off channel=4 note=60 velocity=63 time=0
EXTRACT: note_off channel=4 note=53 velocity=63 time=0
EXTRACT: note_on channel=4 note=55 velocity=63 time=0
EXTRACT: note_off channel=6 note=29 velocity=79 time=0
EXTRACT: note_on channel=6 note=27 velocity=79 time=0
EXTRACT: note_off channel=9 note=42 velocity=79 time=0
EXTRACT: note_on channel=9 note=42 velocity=79 time=0
EXTRACT: note_on channel=9 note=40 velocity=79 time=0
EXTRACT: note_off channel=0 note=72 velocity=79 time=0.2142855
EXTRACT: note_on channel=0 note=73 velocity=79 time=0
EXTRACT: note_off channel=2 note=58 velocity=79 time=0
EXTRACT: note_off channel=2 note=51 velocity=79 time=0
EXTRACT: note_off channel=2 note=46 velocity=79 time=0
EXTRACT: note_on channel=2 note=63 velocity=79 time=0
EXTRACT: note_off channel=2 note=63 velocity=79 time=0.2142855
EXTRACT: note_on channel=2 note=67 velocity=79 time=0
EXTRACT: note_off channel=9 note=42 velocity=79 time=0
EXTRACT: note_off channel=9 note=40 velocity=79 time=0
EXTRACT: note_on channel=9 note=42 velocity=79 time=0
EXTRACT: note_off channel=0 note=73 velocity=79 time=0.2142855
EXTRACT: note_on channel=0 note=75 velocity=79 time=0
EXTRACT: note_off channel=2 note=67 velocity=79 time=0
EXTRACT: note_on channel=2 note=70 velocity=79 time=0
EXTRACT: note_off channel=2 note=70 velocity=79 time=0.2142855
EXTRACT: note_on channel=2 note=68 velocity=79 time=0
EXTRACT: note_on channel=2 note=63 velocity=79 time=0
EXTRACT: note_on channel=2 note=60 velocity=79 time=0
EXTRACT: note_on channel=2 note=56 velocity=79 time=0
EXTRACT: note_on channel=2 note=51 velocity=79 time=0
EXTRACT: note_on channel=2 note=44 velocity=79 time=0
EXTRACT: note_off channel=4 note=55 velocity=63 time=0
EXTRACT: note_on channel=4 note=72 velocity=63 time=0
EXTRACT: note_on channel=4 note=68 velocity=63 time=0
EXTRACT: note_on channel=4 note=56 velocity=63 time=0
EXTRACT: note_off channel=6 note=27 velocity=79 time=0
EXTRACT: note_on channel=6 note=32 velocity=79 time=0
EXTRACT: note_off channel=9 note=42 velocity=79 time=0
EXTRACT: note_on channel=9 note=42 velocity=79 time=0
EXTRACT: note_on channel=9 note=35 velocity=79 time=0
EXTRACT: note_off channel=9 note=42 velocity=79 time=0.2142855
EXTRACT: note_off channel=9 note=35 velocity=79 time=0
EXTRACT: note_on channel=9 note=44 velocity=79 time=0
EXTRACT: note_off channel=0 note=75 velocity=79 time=0.2142855
EXTRACT: note_on channel=0 note=80 velocity=79 time=0
EXTRACT: note_off channel=9 note=44 velocity=79 time=0
EXTRACT: note_on channel=9 note=42 velocity=79 time=0
EXTRACT: note_off channel=0 note=80 velocity=79 time=0.428571
EXTRACT: note_on channel=0 note=79 velocity=79 time=0
EXTRACT: note_off channel=2 note=68 velocity=79 time=0
EXTRACT: note_off channel=2 note=63 velocity=79 time=0
EXTRACT: note_off channel=2 note=60 velocity=79 time=0
EXTRACT: note_off channel=2 note=56 velocity=79 time=0
EXTRACT: note_off channel=2 note=51 velocity=79 time=0
EXTRACT: note_off channel=2 note=44 velocity=79 time=0
EXTRACT: note_on channel=2 note=70 velocity=79 time=0
EXTRACT: note_on channel=2 note=60 velocity=79 time=0
EXTRACT: note_on channel=2 note=63 velocity=79 time=0
EXTRACT: note_off channel=4 note=72 velocity=63 time=0
EXTRACT: note_off channel=4 note=68 velocity=63 time=0
EXTRACT: note_off channel=4 note=56 velocity=63 time=0
EXTRACT: note_on channel=4 note=70 velocity=63 time=0
EXTRACT: note_on channel=4 note=63 velocity=63 time=0
EXTRACT: note_off channel=9 note=42 velocity=79 time=0
EXTRACT: note_on channel=9 note=42 velocity=79 time=0
EXTRACT: note_on channel=9 note=40 velocity=79 time=0
EXTRACT: note_off channel=0 note=79 velocity=79 time=0.428571
EXTRACT: note_on channel=0 note=77 velocity=79 time=0
EXTRACT: note_off channel=2 note=70 velocity=79 time=0
EXTRACT: note_off channel=2 note=60 velocity=79 time=0
EXTRACT: note_off channel=2 note=63 velocity=79 time=0
EXTRACT: note_on channel=2 note=63 velocity=79 time=0
EXTRACT: note_on channel=2 note=44 velocity=79 time=0
EXTRACT: note_off channel=6 note=32 velocity=79 time=0
EXTRACT: note_on channel=6 note=32 velocity=79 time=0
EXTRACT: note_off channel=9 note=42 velocity=79 time=0
EXTRACT: note_off channel=9 note=40 velocity=79 time=0
EXTRACT: note_on channel=9 note=42 velocity=79 time=0
EXTRACT: note_off channel=2 note=63 velocity=79 time=0.2142855
EXTRACT: note_off channel=2 note=44 velocity=79 time=0
EXTRACT: note_on channel=2 note=68 velocity=79 time=0
EXTRACT: note_off channel=0 note=77 velocity=79 time=0.2142855
EXTRACT: note_on channel=0 note=75 velocity=79 time=0
EXTRACT: note_off channel=2 note=68 velocity=79 time=0
EXTRACT: note_on channel=2 note=67 velocity=79 time=0
EXTRACT: note_on channel=2 note=63 velocity=79 time=0
EXTRACT: note_on channel=2 note=60 velocity=79 time=0
EXTRACT: note_on channel=2 note=55 velocity=79 time=0
EXTRACT: note_on channel=2 note=48 velocity=79 time=0
EXTRACT: note_off channel=4 note=70 velocity=63 time=0
EXTRACT: note_off channel=4 note=63 velocity=63 time=0
EXTRACT: note_on channel=4 note=60 velocity=63 time=0
EXTRACT: note_off channel=6 note=32 velocity=79 time=0
EXTRACT: note_on channel=6 note=36 velocity=79 time=0
EXTRACT: note_off channel=9 note=42 velocity=79 time=0
EXTRACT: note_on channel=9 note=42 velocity=79 time=0
EXTRACT: note_on channel=9 note=35 velocity=79 time=0
EXTRACT: note_off channel=9 note=42 velocity=79 time=0.2142855
EXTRACT: note_off channel=9 note=35 velocity=79 time=0
EXTRACT: note_on channel=9 note=44 velocity=79 time=0
EXTRACT: note_off channel=9 note=44 velocity=79 time=0.2142855
EXTRACT: note_on channel=9 note=42 velocity=79 time=0
EXTRACT: note_off channel=0 note=75 velocity=79 time=0.428571
EXTRACT: note_off channel=2 note=67 velocity=79 time=0
EXTRACT: note_off channel=2 note=63 velocity=79 time=0
EXTRACT: note_off channel=2 note=60 velocity=79 time=0
EXTRACT: note_off channel=2 note=55 velocity=79 time=0
EXTRACT: note_off channel=2 note=48 velocity=79 time=0
EXTRACT: note_on channel=2 note=67 velocity=79 time=0
EXTRACT: note_on channel=2 note=63 velocity=79 time=0
EXTRACT: note_on channel=2 note=60 velocity=79 time=0
EXTRACT: note_off channel=4 note=60 velocity=63 time=0
EXTRACT: note_on channel=4 note=67 velocity=63 time=0
EXTRACT: note_on channel=4 note=63 velocity=63 time=0
EXTRACT: note_off channel=9 note=42 velocity=79 time=0
EXTRACT: note_on channel=9 note=42 velocity=79 time=0
EXTRACT: note_on channel=9 note=40 velocity=79 time=0
EXTRACT: note_on channel=0 note=70 velocity=79 time=0.428571
EXTRACT: note_off channel=6 note=36 velocity=79 time=0
EXTRACT: note_on channel=6 note=36 velocity=79 time=0
EXTRACT: note_off channel=9 note=42 velocity=79 time=0
EXTRACT: note_off channel=9 note=40 velocity=79 time=0
EXTRACT: note_on channel=9 note=42 velocity=79 time=0
EXTRACT: note_off channel=0 note=70 velocity=79 time=0.2142855
EXTRACT: note_on channel=0 note=72 velocity=79 time=0
EXTRACT: note_off channel=2 note=67 velocity=79 time=0
EXTRACT: note_off channel=2 note=63 velocity=79 time=0
EXTRACT: note_off channel=2 note=60 velocity=79 time=0
EXTRACT: note_on channel=2 note=48 velocity=79 time=0
EXTRACT: note_off channel=2 note=48 velocity=79 time=0.2142855
EXTRACT: note_on channel=2 note=68 velocity=79 time=0
EXTRACT: note_on channel=2 note=65 velocity=79 time=0
EXTRACT: note_on channel=2 note=60 velocity=79 time=0
EXTRACT: note_on channel=2 note=53 velocity=79 time=0
EXTRACT: note_on channel=2 note=48 velocity=79 time=0
EXTRACT: note_on channel=2 note=41 velocity=79 time=0
EXTRACT: note_off channel=6 note=36 velocity=79 time=0
EXTRACT: note_on channel=6 note=29 velocity=79 time=0
EXTRACT: note_off channel=9 note=42 velocity=79 time=0
EXTRACT: note_on channel=9 note=42 velocity=79 time=0
EXTRACT: note_on channel=9 note=35 velocity=79 time=0
EXTRACT: note_off channel=9 note=42 velocity=79 time=0.2142855
EXTRACT: note_off channel=9 note=35 velocity=79 time=0
EXTRACT: note_on channel=9 note=44 velocity=79 time=0
EXTRACT: note_off channel=0 note=72 velocity=79 time=0.2142855
EXTRACT: note_on channel=0 note=70 velocity=79 time=0
EXTRACT: note_off channel=9 note=44 velocity=79 time=0
EXTRACT: note_on channel=9 note=42 velocity=79 time=0
EXTRACT: note_off channel=0 note=70 velocity=79 time=0.2142855
EXTRACT: note_on channel=0 note=72 velocity=79 time=0
EXTRACT: note_off channel=2 note=68 velocity=79 time=0.2142855
EXTRACT: note_off channel=2 note=65 velocity=79 time=0
EXTRACT: note_off channel=2 note=60 velocity=79 time=0
EXTRACT: note_off channel=2 note=53 velocity=79 time=0
EXTRACT: note_off channel=2 note=48 velocity=79 time=0
EXTRACT: note_off channel=2 note=41 velocity=79 time=0
EXTRACT: note_on channel=2 note=68 velocity=79 time=0
EXTRACT: note_on channel=2 note=65 velocity=79 time=0
EXTRACT: note_on channel=2 note=60 velocity=79 time=0
EXTRACT: note_off channel=9 note=42 velocity=79 time=0
EXTRACT: note_on channel=9 note=42 velocity=79 time=0
EXTRACT: note_on channel=9 note=40 velocity=79 time=0
EXTRACT: note_off channel=0 note=72 velocity=79 time=0.2142855
EXTRACT: note_off channel=6 note=29 velocity=79 time=0.2142855
EXTRACT: note_on channel=6 note=29 velocity=79 time=0
EXTRACT: note_off channel=9 note=42 velocity=79 time=0
EXTRACT: note_off channel=9 note=40 velocity=79 time=0
EXTRACT: note_on channel=9 note=42 velocity=79 time=0
EXTRACT: note_on channel=0 note=72 velocity=79 time=0.2142855
EXTRACT: note_off channel=2 note=68 velocity=79 time=0.2142855
EXTRACT: note_off channel=2 note=65 velocity=79 time=0
EXTRACT: note_off channel=2 note=60 velocity=79 time=0
EXTRACT: note_on channel=2 note=65 velocity=79 time=0
EXTRACT: note_on channel=2 note=60 velocity=79 time=0
EXTRACT: note_off channel=4 note=67 velocity=63 time=0
EXTRACT: note_off channel=4 note=63 velocity=63 time=0
EXTRACT: note_on channel=4 note=65 velocity=63 time=0
EXTRACT: note_off channel=6 note=29 velocity=79 time=0
EXTRACT: note_on channel=6 note=29 velocity=79 time=0
EXTRACT: note_off channel=9 note=42 velocity=79 time=0
EXTRACT: note_on channel=9 note=42 velocity=79 time=0
EXTRACT: note_on channel=9 note=35 velocity=79 time=0
EXTRACT: note_off channel=0 note=72 velocity=79 time=0.2142855
EXTRACT: note_on channel=0 note=70 velocity=79 time=0
EXTRACT: note_off channel=9 note=42 velocity=79 time=0
EXTRACT: note_off channel=9 note=35 velocity=79 time=0
EXTRACT: note_on channel=9 note=44 velocity=79 time=0
EXTRACT: note_off channel=9 note=44 velocity=79 time=0.2142855
EXTRACT: note_on channel=9 note=42 velocity=79 time=0
EXTRACT: note_off channel=0 note=70 velocity=79 time=0.2142855
EXTRACT: note_on channel=0 note=72 velocity=79 time=0
EXTRACT: note_off channel=2 note=65 velocity=79 time=0.2142855
EXTRACT: note_off channel=2 note=60 velocity=79 time=0
EXTRACT: note_on channel=2 note=67 velocity=79 time=0
EXTRACT: note_on channel=2 note=63 velocity=79 time=0
EXTRACT: note_on channel=2 note=58 velocity=79 time=0
EXTRACT: note_on channel=2 note=51 velocity=79 time=0
EXTRACT: note_on channel=2 note=46 velocity=79 time=0
EXTRACT: note_off channel=4 note=65 velocity=63 time=0
EXTRACT: note_on channel=4 note=63 velocity=63 time=0
EXTRACT: note_on channel=4 note=55 velocity=63 time=0
EXTRACT: note_off channel=6 note=29 velocity=79 time=0
EXTRACT: note_on channel=6 note=27 velocity=79 time=0
EXTRACT: note_off channel=9 note=42 velocity=79 time=0
EXTRACT: note_on channel=9 note=42 velocity=79 time=0
EXTRACT: note_on channel=9 note=40 velocity=79 time=0
EXTRACT: note_off channel=0 note=72 velocity=79 time=0.2142855
EXTRACT: note_on channel=0 note=72 velocity=79 time=0
EXTRACT: note_off channel=0 note=72 velocity=79 time=0.2142855
EXTRACT: note_on channel=0 note=73 velocity=79 time=0
EXTRACT: note_off channel=2 note=67 velocity=79 time=0
EXTRACT: note_off channel=2 note=63 velocity=79 time=0
EXTRACT: note_off channel=2 note=58 velocity=79 time=0
EXTRACT: note_off channel=2 note=51 velocity=79 time=0
EXTRACT: note_off channel=2 note=46 velocity=79 time=0
EXTRACT: note_on channel=2 note=63 velocity=79 time=0
EXTRACT: note_off channel=9 note=42 velocity=79 time=0
EXTRACT: note_off channel=9 note=40 velocity=79 time=0
EXTRACT: note_on channel=9 note=42 velocity=79 time=0
EXTRACT: note_off channel=2 note=63 velocity=79 time=0.2142855
EXTRACT: note_on channel=2 note=67 velocity=79 time=0
EXTRACT: note_off channel=0 note=73 velocity=79 time=0.2142855
EXTRACT: note_on channel=0 note=75 velocity=79 time=0
EXTRACT: note_off channel=2 note=67 velocity=79 time=0
EXTRACT: note_on channel=2 note=68 velocity=79 time=0
EXTRACT: note_on channel=2 note=63 velocity=79 time=0
EXTRACT: note_on channel=2 note=60 velocity=79 time=0
EXTRACT: note_on channel=2 note=56 velocity=79 time=0
EXTRACT: note_on channel=2 note=51 velocity=79 time=0
EXTRACT: note_on channel=2 note=44 velocity=79 time=0
EXTRACT: note_off channel=4 note=63 velocity=63 time=0
EXTRACT: note_off channel=4 note=55 velocity=63 time=0
EXTRACT: note_on channel=4 note=68 velocity=63 time=0
EXTRACT: note_on channel=4 note=56 velocity=63 time=0
EXTRACT: note_off channel=6 note=27 velocity=79 time=0
EXTRACT: note_on channel=6 note=32 velocity=79 time=0
EXTRACT: note_off channel=9 note=42 velocity=79 time=0
EXTRACT: note_on channel=9 note=42 velocity=79 time=0
EXTRACT: note_on channel=9 note=35 velocity=79 time=0
EXTRACT: note_off channel=0 note=75 velocity=79 time=0.2142855
EXTRACT: note_off channel=9 note=42 velocity=79 time=0
EXTRACT: note_off channel=9 note=35 velocity=79 time=0
EXTRACT: note_on channel=9 note=44 velocity=79 time=0
EXTRACT: note_on channel=0 note=80 velocity=79 time=0.2142855
EXTRACT: note_off channel=9 note=44 velocity=79 time=0
EXTRACT: note_on channel=9 note=42 velocity=79 time=0
EXTRACT: note_off channel=0 note=80 velocity=79 time=0.428571
EXTRACT: note_on channel=0 note=80 velocity=79 time=0
EXTRACT: note_off channel=2 note=68 velocity=79 time=0
EXTRACT: note_off channel=2 note=63 velocity=79 time=0
EXTRACT: note_off channel=2 note=60 velocity=79 time=0
EXTRACT: note_off channel=2 note=56 velocity=79 time=0
EXTRACT: note_off channel=2 note=51 velocity=79 time=0
EXTRACT: note_off channel=2 note=44 velocity=79 time=0
EXTRACT: note_on channel=2 note=68 velocity=79 time=0
EXTRACT: note_on channel=2 note=63 velocity=79 time=0
EXTRACT: note_on channel=2 note=60 velocity=79 time=0
EXTRACT: note_off channel=4 note=68 velocity=63 time=0
EXTRACT: note_off channel=4 note=56 velocity=63 time=0
EXTRACT: note_on channel=4 note=75 velocity=63 time=0
EXTRACT: note_off channel=9 note=42 velocity=79 time=0
EXTRACT: note_on channel=9 note=42 velocity=79 time=0
EXTRACT: note_on channel=9 note=40 velocity=79 time=0
EXTRACT: note_off channel=0 note=80 velocity=79 time=0.428571
EXTRACT: note_on channel=0 note=80 velocity=79 time=0
EXTRACT: note_off channel=2 note=68 velocity=79 time=0
EXTRACT: note_off channel=2 note=63 velocity=79 time=0
EXTRACT: note_off channel=2 note=60 velocity=79 time=0
EXTRACT: note_on channel=2 note=56 velocity=79 time=0
EXTRACT: note_off channel=6 note=32 velocity=79 time=0
EXTRACT: note_on channel=6 note=32 velocity=79 time=0
EXTRACT: note_off channel=9 note=42 velocity=79 time=0
EXTRACT: note_off channel=9 note=40 velocity=79 time=0
EXTRACT: note_on channel=9 note=42 velocity=79 time=0
EXTRACT: note_off channel=0 note=80 velocity=79 time=0.428571
EXTRACT: note_on channel=0 note=82 velocity=79 time=0
EXTRACT: note_off channel=2 note=56 velocity=79 time=0
EXTRACT: note_on channel=2 note=72 velocity=79 time=0
EXTRACT: note_on channel=2 note=67 velocity=79 time=0
EXTRACT: note_on channel=2 note=63 velocity=79 time=0
EXTRACT: note_on channel=2 note=60 velocity=79 time=0
EXTRACT: note_on channel=2 note=55 velocity=79 time=0
EXTRACT: note_on channel=2 note=48 velocity=79 time=0
EXTRACT: note_off channel=4 note=75 velocity=63 time=0
EXTRACT: note_on channel=4 note=60 velocity=63 time=0
EXTRACT: note_off channel=6 note=32 velocity=79 time=0
EXTRACT: note_on channel=6 note=36 velocity=79 time=0
EXTRACT: note_off channel=9 note=42 velocity=79 time=0
EXTRACT: note_on channel=9 note=42 velocity=79 time=0
EXTRACT: note_on channel=9 note=35 velocity=79 time=0
EXTRACT: note_off channel=0 note=82 velocity=79 time=0.2142855
EXTRACT: note_on channel=0 note=80 velocity=79 time=0
EXTRACT: note_off channel=9 note=42 velocity=79 time=0
EXTRACT: note_off channel=9 note=35 velocity=79 time=0
EXTRACT: note_on channel=9 note=44 velocity=79 time=0
EXTRACT: note_off channel=0 note=80 velocity=79 time=0.2142855
EXTRACT: note_on channel=0 note=80 velocity=79 time=0
EXTRACT: note_off channel=9 note=44 velocity=79 time=0
EXTRACT: note_on channel=9 note=42 velocity=79 time=0
EXTRACT: note_off channel=0 note=80 velocity=79 time=0.2142855
EXTRACT: note_on channel=0 note=80 velocity=79 time=0
EXTRACT: note_off channel=2 note=72 velocity=79 time=0.2142855
EXTRACT: note_off channel=2 note=67 velocity=79 time=0
EXTRACT: note_off channel=2 note=63 velocity=79 time=0
EXTRACT: note_off channel=2 note=60 velocity=79 time=0
EXTRACT: note_off channel=2 note=55 velocity=79 time=0
EXTRACT: note_off channel=2 note=48 velocity=79 time=0
EXTRACT: note_on channel=2 note=72 velocity=79 time=0
EXTRACT: note_on channel=2 note=67 velocity=79 time=0
EXTRACT: note_on channel=2 note=63 velocity=79 time=0
EXTRACT: note_on channel=2 note=60 velocity=79 time=0
EXTRACT: note_off channel=4 note=60 velocity=63 time=0
EXTRACT: note_on channel=4 note=77 velocity=63 time=0
EXTRACT: note_off channel=9 note=42 velocity=79 time=0
EXTRACT: note_on channel=9 note=42 velocity=79 time=0
EXTRACT: note_on channel=9 note=40 velocity=79 time=0
EXTRACT: note_off channel=0 note=80 velocity=79 time=0.2142855
EXTRACT: note_on channel=0 note=80 velocity=79 time=0.2142855
EXTRACT: note_off channel=2 note=72 velocity=79 time=0
EXTRACT: note_off channel=2 note=67 velocity=79 time=0
EXTRACT: note_off channel=2 note=63 velocity=79 time=0
EXTRACT: note_off channel=2 note=60 velocity=79 time=0
EXTRACT: note_on channel=2 note=60 velocity=79 time=0
EXTRACT: note_off channel=4 note=77 velocity=63 time=0
EXTRACT: note_on channel=4 note=72 velocity=63 time=0
EXTRACT: note_off channel=6 note=36 velocity=79 time=0
EXTRACT: note_on channel=6 note=36 velocity=79 time=0
EXTRACT: note_off channel=9 note=42 velocity=79 time=0
EXTRACT: note_off channel=9 note=40 velocity=79 time=0
EXTRACT: note_on channel=9 note=42 velocity=79 time=0
EXTRACT: note_off channel=0 note=80 velocity=79 time=0.2142855
EXTRACT: note_on channel=0 note=80 velocity=79 time=0
EXTRACT: note_off channel=2 note=60 velocity=79 time=0
EXTRACT: note_on channel=2 note=48 velocity=79 time=0
EXTRACT: note_off channel=0 note=80 velocity=79 time=0.2142855
EXTRACT: note_on channel=0 note=82 velocity=79 time=0
EXTRACT: note_off channel=2 note=48 velocity=79 time=0
EXTRACT: note_on channel=2 note=68 velocity=79 time=0
EXTRACT: note_on channel=2 note=65 velocity=79 time=0
EXTRACT: note_on channel=2 note=60 velocity=79 time=0
EXTRACT: note_on channel=2 note=53 velocity=79 time=0
EXTRACT: note_on channel=2 note=48 velocity=79 time=0
EXTRACT: note_on channel=2 note=41 velocity=79 time=0
EXTRACT: note_off channel=4 note=72 velocity=63 time=0
EXTRACT: note_on channel=4 note=65 velocity=63 time=0
EXTRACT: note_on channel=4 note=53 velocity=63 time=0
EXTRACT: note_off channel=6 note=36 velocity=79 time=0
EXTRACT: note_on channel=6 note=29 velocity=79 time=0
EXTRACT: note_off channel=9 note=42 velocity=79 time=0
EXTRACT: note_on channel=9 note=42 velocity=79 time=0
EXTRACT: note_on channel=9 note=35 velocity=79 time=0
EXTRACT: note_off channel=0 note=82 velocity=79 time=0.2142855
EXTRACT: note_on channel=0 note=82 velocity=79 time=0
EXTRACT: note_off channel=9 note=42 velocity=79 time=0
EXTRACT: note_off channel=9 note=35 velocity=79 time=0
EXTRACT: note_on channel=9 note=44 velocity=79 time=0
EXTRACT: note_off channel=0 note=82 velocity=79 time=0.2142855
EXTRACT: note_on channel=0 note=82 velocity=79 time=0
EXTRACT: note_off channel=2 note=68 velocity=79 time=0
EXTRACT: note_off channel=2 note=65 velocity=79 time=0
EXTRACT: note_off channel=2 note=60 velocity=79 time=0
EXTRACT: note_off channel=2 note=53 velocity=79 time=0
EXTRACT: note_off channel=2 note=48 velocity=79 time=0
EXTRACT: note_off channel=2 note=41 velocity=79 time=0
EXTRACT: note_on channel=2 note=60 velocity=79 time=0
EXTRACT: note_off channel=9 note=44 velocity=79 time=0
EXTRACT: note_on channel=9 note=42 velocity=79 time=0
EXTRACT: note_off channel=0 note=82 velocity=79 time=0.2142855
EXTRACT: note_on channel=0 note=82 velocity=79 time=0
EXTRACT: note_off channel=0 note=82 velocity=79 time=0.2142855
EXTRACT: note_on channel=0 note=82 velocity=79 time=0
EXTRACT: note_off channel=2 note=60 velocity=79 time=0
EXTRACT: note_on channel=2 note=68 velocity=79 time=0
EXTRACT: note_on channel=2 note=65 velocity=79 time=0
EXTRACT: note_on channel=2 note=60 velocity=79 time=0
EXTRACT: note_off channel=9 note=42 velocity=79 time=0
EXTRACT: note_on channel=9 note=46 velocity=79 time=0
EXTRACT: note_on channel=9 note=40 velocity=79 time=0
EXTRACT: note_off channel=0 note=82 velocity=79 time=0.428571
EXTRACT: note_on channel=0 note=80 velocity=79 time=0
EXTRACT: note_off channel=2 note=68 velocity=79 time=0
EXTRACT: note_off channel=2 note=65 velocity=79 time=0
EXTRACT: note_off channel=2 note=60 velocity=79 time=0
EXTRACT: note_on channel=2 note=60 velocity=79 time=0
EXTRACT: note_off channel=6 note=29 velocity=79 time=0
EXTRACT: note_on channel=6 note=29 velocity=79 time=0
EXTRACT: note_off channel=9 note=46 velocity=79 time=0
EXTRACT: note_off channel=9 note=40 velocity=79 time=0
EXTRACT: note_on channel=9 note=46 velocity=79 time=0
EXTRACT: note_off channel=0 note=80 velocity=79 time=0.2142855
EXTRACT: note_on channel=0 note=84 velocity=79 time=0
EXTRACT: note_off channel=2 note=60 velocity=79 time=0
EXTRACT: note_on channel=2 note=48 velocity=79 time=0
EXTRACT: note_off channel=2 note=48 velocity=79 time=0.2142855
EXTRACT: note_on channel=2 note=70 velocity=79 time=0
EXTRACT: note_on channel=2 note=67 velocity=79 time=0
EXTRACT: note_on channel=2 note=63 velocity=79 time=0
EXTRACT: note_on channel=2 note=51 velocity=79 time=0
EXTRACT: note_on channel=2 note=46 velocity=79 time=0
EXTRACT: note_off channel=4 note=65 velocity=63 time=0
EXTRACT: note_off channel=4 note=53 velocity=63 time=0
EXTRACT: note_on channel=4 note=63 velocity=63 time=0
EXTRACT: note_on channel=4 note=58 velocity=63 time=0
EXTRACT: note_on channel=4 note=51 velocity=63 time=0
EXTRACT: note_off channel=6 note=29 velocity=79 time=0
EXTRACT: note_on channel=6 note=27 velocity=79 time=0
EXTRACT: note_off channel=9 note=46 velocity=79 time=0
EXTRACT: note_on channel=9 note=49 velocity=79 time=0
EXTRACT: note_on channel=9 note=35 velocity=79 time=0
EXTRACT: note_off channel=0 note=84 velocity=79 time=0.2142855
EXTRACT: note_on channel=0 note=82 velocity=79 time=0
EXTRACT: note_off channel=9 note=49 velocity=79 time=0
EXTRACT: note_off channel=9 note=35 velocity=79 time=0
EXTRACT: note_on channel=9 note=44 velocity=79 time=0
EXTRACT: note_off channel=2 note=70 velocity=79 time=0.2142855
EXTRACT: note_off channel=2 note=67 velocity=79 time=0
EXTRACT: note_off channel=2 note=63 velocity=79 time=0
EXTRACT: note_off channel=2 note=51 velocity=79 time=0
EXTRACT: note_off channel=2 note=46 velocity=79 time=0
EXTRACT: note_on channel=2 note=58 velocity=79 time=0
EXTRACT: note_off channel=6 note=27 velocity=79 time=0
EXTRACT: note_on channel=6 note=27 velocity=79 time=0
EXTRACT: note_off channel=9 note=44 velocity=79 time=0
EXTRACT: note_on channel=9 note=42 velocity=79 time=0
EXTRACT: note_off channel=2 note=58 velocity=79 time=0.428571
EXTRACT: note_on channel=2 note=82 velocity=79 time=0
EXTRACT: note_on channel=2 note=75 velocity=79 time=0
EXTRACT: note_on channel=2 note=70 velocity=79 time=0
EXTRACT: note_on channel=2 note=63 velocity=79 time=0
EXTRACT: note_off channel=6 note=27 velocity=79 time=0
EXTRACT: note_on channel=6 note=27 velocity=79 time=0
EXTRACT: note_off channel=9 note=42 velocity=79 time=0
EXTRACT: note_on channel=9 note=42 velocity=79 time=0
EXTRACT: note_on channel=9 note=40 velocity=79 time=0
EXTRACT: note_off channel=2 note=82 velocity=79 time=0.428571
EXTRACT: note_off channel=2 note=75 velocity=79 time=0
EXTRACT: note_off channel=2 note=70 velocity=79 time=0
EXTRACT: note_off channel=2 note=63 velocity=79 time=0
EXTRACT: note_on channel=2 note=58 velocity=79 time=0
EXTRACT: note_off channel=6 note=27 velocity=79 time=0
EXTRACT: note_on channel=6 note=27 velocity=79 time=0
EXTRACT: note_off channel=9 note=42 velocity=79 time=0
EXTRACT: note_off channel=9 note=40 velocity=79 time=0
EXTRACT: note_on channel=9 note=42 velocity=79 time=0
EXTRACT: note_off channel=2 note=58 velocity=79 time=0
EXTRACT: note_on channel=2 note=67 velocity=79 time=0
EXTRACT: note_on channel=2 note=63 velocity=79 time=0
EXTRACT: note_on channel=2 note=51 velocity=79 time=0
EXTRACT: note_on channel=2 note=46 velocity=79 time=0
EXTRACT: note_off channel=4 note=63 velocity=63 time=0
EXTRACT: note_off channel=4 note=58 velocity=63 time=0
EXTRACT: note_off channel=4 note=51 velocity=63 time=0
EXTRACT: note_on channel=4 note=63 velocity=63 time=0
EXTRACT: note_off channel=6 note=27 velocity=79 time=0
EXTRACT: note_on channel=6 note=27 velocity=79 time=0
EXTRACT: note_off channel=9 note=42 velocity=79 time=0
EXTRACT: note_on channel=9 note=42 velocity=79 time=0
EXTRACT: note_on channel=9 note=35 velocity=79 time=0
EXTRACT: note_off channel=0 note=82 velocity=79 time=0.2142855
EXTRACT: note_off channel=9 note=42 velocity=79 time=0
EXTRACT: note_off channel=9 note=35 velocity=79 time=0
EXTRACT: note_on channel=9 note=44 velocity=79 time=0
EXTRACT: note_on channel=0 note=84 velocity=79 time=0.2142855
EXTRACT: note_off channel=2 note=67 velocity=79 time=0
EXTRACT: note_off channel=2 note=63 velocity=79 time=0
EXTRACT: note_off channel=2 note=51 velocity=79 time=0
EXTRACT: note_off channel=2 note=46 velocity=79 time=0
EXTRACT: note_on channel=2 note=58 velocity=79 time=0
EXTRACT: note_off channel=4 note=63 velocity=63 time=0
EXTRACT: note_on channel=4 note=70 velocity=63 time=0
EXTRACT: note_off channel=6 note=27 velocity=79 time=0
EXTRACT: note_on channel=6 note=27 velocity=79 time=0
EXTRACT: note_off channel=9 note=44 velocity=79 time=0
EXTRACT: note_on channel=9 note=42 velocity=79 time=0
EXTRACT: note_off channel=2 note=58 velocity=79 time=0.2142855
EXTRACT: note_on channel=2 note=63 velocity=79 time=0
EXTRACT: note_off channel=0 note=84 velocity=79 time=0.2142855
EXTRACT: note_on channel=0 note=82 velocity=79 time=0
EXTRACT: note_off channel=2 note=63 velocity=79 time=0
EXTRACT: note_on channel=2 note=67 velocity=79 time=0
EXTRACT: note_on channel=2 note=63 velocity=79 time=0
EXTRACT: note_off channel=4 note=70 velocity=63 time=0
EXTRACT: note_on channel=4 note=72 velocity=63 time=0
EXTRACT: note_off channel=6 note=27 velocity=79 time=0
EXTRACT: note_on channel=6 note=27 velocity=79 time=0
EXTRACT: note_off channel=9 note=42 velocity=79 time=0
EXTRACT: note_on channel=9 note=42 velocity=79 time=0
EXTRACT: note_on channel=9 note=40 velocity=79 time=0
EXTRACT: note_off channel=0 note=82 velocity=79 time=0.428571
EXTRACT: note_on channel=0 note=80 velocity=79 time=0
EXTRACT: note_off channel=2 note=67 velocity=79 time=0
EXTRACT: note_off channel=2 note=63 velocity=79 time=0
EXTRACT: note_on channel=2 note=58 velocity=79 time=0
EXTRACT: note_off channel=4 note=72 velocity=63 time=0
EXTRACT: note_on channel=4 note=73 velocity=63 time=0
EXTRACT: note_off channel=6 note=27 velocity=79 time=0
EXTRACT: note_on channel=6 note=27 velocity=79 time=0
EXTRACT: note_off channel=9 note=42 velocity=79 time=0
EXTRACT: note_off channel=9 note=40 velocity=79 time=0
EXTRACT: note_on channel=9 note=42 velocity=79 time=0
EXTRACT: note_on channel=9 note=40 velocity=79 time=0
EXTRACT: note_off channel=9 note=42 velocity=79 time=0.2142855
EXTRACT: note_off channel=9 note=40 velocity=79 time=0
EXTRACT: note_on channel=9 note=40 velocity=79 time=0
EXTRACT: note_off channel=0 note=80 velocity=79 time=0
EXTRACT: note_on channel=0 note=80 velocity=79 time=0
EXTRACT: note_off channel=2 note=58 velocity=79 time=0
EXTRACT: note_on channel=2 note=68 velocity=79 time=0
EXTRACT: note_on channel=2 note=65 velocity=79 time=0
EXTRACT: note_on channel=2 note=60 velocity=79 time=0
EXTRACT: note_on channel=2 note=53 velocity=79 time=0
EXTRACT: note_on channel=2 note=48 velocity=79 time=0
EXTRACT: note_on channel=2 note=41 velocity=79 time=0
EXTRACT: note_off channel=4 note=73 velocity=63 time=0
EXTRACT: note_on channel=4 note=72 velocity=63 time=0
EXTRACT: note_on channel=4 note=60 velocity=63 time=0
EXTRACT: note_on channel=4 note=53 velocity=63 time=0
EXTRACT: note_off channel=6 note=27 velocity=79 time=0
EXTRACT: note_on channel=6 note=29 velocity=79 time=0
EXTRACT: note_off channel=9 note=40 velocity=79 time=0
EXTRACT: note_on channel=9 note=57 velocity=79 time=0
EXTRACT: note_on channel=9 note=35 velocity=79 time=0
EXTRACT: note_off channel=9 note=57 velocity=79 time=0.2142855
EXTRACT: note_off channel=9 note=35 velocity=79 time=0
EXTRACT: note_on channel=9 note=44 velocity=79 time=0
EXTRACT: note_off channel=0 note=80 velocity=79 time=0.2142855
EXTRACT: note_on channel=0 note=80 velocity=79 time=0
EXTRACT: note_on channel=0 note=77 velocity=63 time=0
EXTRACT: note_off channel=2 note=68 velocity=79 time=0
EXTRACT: note_off channel=2 note=65 velocity=79 time=0
EXTRACT: note_off channel=2 note=60 velocity=79 time=0
EXTRACT: note_off channel=2 note=53 velocity=79 time=0
EXTRACT: note_off channel=2 note=48 velocity=79 time=0
EXTRACT: note_off channel=2 note=41 velocity=79 time=0
EXTRACT: note_on channel=2 note=60 velocity=79 time=0
EXTRACT: note_off channel=9 note=44 velocity=79 time=0
EXTRACT: note_on channel=9 note=42 velocity=79 time=0
EXTRACT: note_off channel=0 note=80 velocity=79 time=0.428571
EXTRACT: note_off channel=0 note=77 velocity=63 time=0
EXTRACT: note_on channel=0 note=80 velocity=79 time=0
EXTRACT: note_on channel=0 note=77 velocity=63 time=0
EXTRACT: note_off channel=2 note=60 velocity=79 time=0
EXTRACT: note_on channel=2 note=68 velocity=79 time=0
EXTRACT: note_on channel=2 note=65 velocity=79 time=0
EXTRACT: note_on channel=2 note=60 velocity=79 time=0
EXTRACT: note_on channel=2 note=41 velocity=79 time=0
EXTRACT: note_off channel=9 note=42 velocity=79 time=0
EXTRACT: note_on channel=9 note=42 velocity=79 time=0
EXTRACT: note_on channel=9 note=40 velocity=79 time=0
EXTRACT: note_off channel=0 note=80 velocity=79 time=0.2142855
EXTRACT: note_off channel=0 note=77 velocity=63 time=0
EXTRACT: note_on channel=0 note=79 velocity=79 time=0
EXTRACT: note_on channel=0 note=75 velocity=63 time=0
EXTRACT: note_off channel=0 note=79 velocity=79 time=0.2142855
EXTRACT: note_off channel=0 note=75 velocity=63 time=0
EXTRACT: note_on channel=0 note=80 velocity=79 time=0
EXTRACT: note_on channel=0 note=77 velocity=63 time=0
EXTRACT: note_off channel=2 note=68 velocity=79 time=0
EXTRACT: note_off channel=2 note=65 velocity=79 time=0
EXTRACT: note_off channel=2 note=60 velocity=79 time=0
EXTRACT: note_off channel=2 note=41 velocity=79 time=0
EXTRACT: note_on channel=2 note=60 velocity=79 time=0
EXTRACT: note_off channel=6 note=29 velocity=79 time=0
EXTRACT: note_on channel=6 note=29 velocity=79 time=0
EXTRACT: note_off channel=9 note=42 velocity=79 time=0
EXTRACT: note_off channel=9 note=40 velocity=79 time=0
EXTRACT: note_on channel=9 note=42 velocity=79 time=0
EXTRACT: note_off channel=2 note=60 velocity=79 time=0.428571
EXTRACT: note_on channel=2 note=68 velocity=79 time=0
EXTRACT: note_on channel=2 note=65 velocity=79 time=0
EXTRACT: note_on channel=2 note=61 velocity=79 time=0
EXTRACT: note_on channel=2 note=49 velocity=79 time=0
EXTRACT: note_on channel=2 note=44 velocity=79 time=0
EXTRACT: note_off channel=4 note=72 velocity=63 time=0
EXTRACT: note_off channel=4 note=60 velocity=63 time=0
EXTRACT: note_off channel=4 note=53 velocity=63 time=0
EXTRACT: note_on channel=4 note=68 velocity=63 time=0
EXTRACT: note_on channel=4 note=61 velocity=63 time=0
EXTRACT: note_on channel=4 note=56 velocity=63 time=0
EXTRACT: note_off channel=6 note=29 velocity=79 time=0
EXTRACT: note_on channel=6 note=25 velocity=79 time=0
EXTRACT: note_off channel=9 note=42 velocity=79 time=0
EXTRACT: note_on channel=9 note=42 velocity=79 time=0
EXTRACT: note_on channel=9 note=35 velocity=79 time=0
EXTRACT: note_off channel=9 note=42 velocity=79 time=0.2142855
EXTRACT: note_off channel=9 note=35 velocity=79 time=0
EXTRACT: note_on channel=9 note=44 velocity=79 time=0
EXTRACT: note_off channel=0 note=80 velocity=79 time=0.2142855
EXTRACT: note_off channel=0 note=77 velocity=63 time=0
EXTRACT: note_on channel=0 note=80 velocity=79 time=0
EXTRACT: note_on channel=0 note=77 velocity=63 time=0
EXTRACT: note_off channel=2 note=68 velocity=79 time=0
EXTRACT: note_off channel=2 note=65 velocity=79 time=0
EXTRACT: note_off channel=2 note=61 velocity=79 time=0
EXTRACT: note_off channel=2 note=49 velocity=79 time=0
EXTRACT: note_off channel=2 note=44 velocity=79 time=0
EXTRACT: note_on channel=2 note=56 velocity=79 time=0
EXTRACT: note_off channel=9 note=44 velocity=79 time=0
EXTRACT: note_on channel=9 note=42 velocity=79 time=0
EXTRACT: note_off channel=0 note=80 velocity=79 time=0.428571
EXTRACT: note_off channel=0 note=77 velocity=63 time=0
EXTRACT: note_on channel=0 note=80 velocity=79 time=0
EXTRACT: note_on channel=0 note=77 velocity=63 time=0
EXTRACT: note_off channel=2 note=56 velocity=79 time=0
EXTRACT: note_on channel=2 note=68 velocity=79 time=0
EXTRACT: note_on channel=2 note=65 velocity=79 time=0
EXTRACT: note_on channel=2 note=61 velocity=79 time=0
EXTRACT: note_off channel=4 note=68 velocity=63 time=0
EXTRACT: note_off channel=4 note=61 velocity=63 time=0
EXTRACT: note_off channel=4 note=56 velocity=63 time=0
EXTRACT: note_on channel=4 note=72 velocity=63 time=0
EXTRACT: note_off channel=9 note=42 velocity=79 time=0
EXTRACT: note_on channel=9 note=42 velocity=79 time=0
EXTRACT: note_on channel=9 note=40 velocity=79 time=0
EXTRACT: note_off channel=0 note=80 velocity=79 time=0.428571
EXTRACT: note_off channel=0 note=77 velocity=63 time=0
EXTRACT: note_on channel=0 note=80 velocity=79 time=0
EXTRACT: note_on channel=0 note=77 velocity=63 time=0
EXTRACT: note_off channel=2 note=68 velocity=79 time=0
EXTRACT: note_off channel=2 note=65 velocity=79 time=0
EXTRACT: note_off channel=2 note=61 velocity=79 time=0
EXTRACT: note_on channel=2 note=56 velocity=79 time=0
EXTRACT: note_off channel=6 note=25 velocity=79 time=0
EXTRACT: note_on channel=6 note=25 velocity=79 time=0
EXTRACT: note_off channel=9 note=42 velocity=79 time=0
EXTRACT: note_off channel=9 note=40 velocity=79 time=0
EXTRACT: note_on channel=9 note=42 velocity=79 time=0
EXTRACT: note_off channel=0 note=80 velocity=79 time=0.2142855
EXTRACT: note_off channel=0 note=77 velocity=63 time=0
EXTRACT: note_on channel=0 note=79 velocity=79 time=0
EXTRACT: note_on channel=0 note=75 velocity=63 time=0
EXTRACT: note_off channel=0 note=79 velocity=79 time=0.2142855
EXTRACT: note_off channel=0 note=75 velocity=63 time=0
EXTRACT: note_on channel=0 note=80 velocity=79 time=0
EXTRACT: note_on channel=0 note=77 velocity=63 time=0
EXTRACT: note_off channel=2 note=56 velocity=79 time=0
EXTRACT: note_on channel=2 note=63 velocity=79 time=0
EXTRACT: note_on channel=2 note=58 velocity=79 time=0
EXTRACT: note_on channel=2 note=51 velocity=79 time=0
EXTRACT: note_on channel=2 note=46 velocity=79 time=0
EXTRACT: note_off channel=4 note=72 velocity=63 time=0
EXTRACT: note_on channel=4 note=70 velocity=63 time=0
EXTRACT: note_on channel=4 note=58 velocity=63 time=0
EXTRACT: note_on channel=4 note=51 velocity=63 time=0
EXTRACT: note_off channel=6 note=25 velocity=79 time=0
EXTRACT: note_on channel=6 note=27 velocity=79 time=0
EXTRACT: note_off channel=9 note=42 velocity=79 time=0
EXTRACT: note_on channel=9 note=42 velocity=79 time=0
EXTRACT: note_on channel=9 note=35 velocity=79 time=0
EXTRACT: note_off channel=9 note=42 velocity=79 time=0.2142855
EXTRACT: note_off channel=9 note=35 velocity=79 time=0
EXTRACT: note_on channel=9 note=44 velocity=79 time=0
EXTRACT: note_off channel=0 note=80 velocity=79 time=0.2142855
EXTRACT: note_off channel=0 note=77 velocity=63 time=0
EXTRACT: note_on channel=0 note=79 velocity=79 time=0
EXTRACT: note_on channel=0 note=75 velocity=63 time=0
EXTRACT: note_off channel=2 note=63 velocity=79 time=0
EXTRACT: note_off channel=2 note=58 velocity=79 time=0
EXTRACT: note_off channel=2 note=51 velocity=79 time=0
EXTRACT: note_off channel=2 note=46 velocity=79 time=0
EXTRACT: note_on channel=2 note=58 velocity=79 time=0
EXTRACT: note_off channel=9 note=44 velocity=79 time=0
EXTRACT: note_on channel=9 note=42 velocity=79 time=0
EXTRACT: note_off channel=2 note=58 velocity=79 time=0.2142855
EXTRACT: note_on channel=2 note=67 velocity=79 time=0
EXTRACT: note_off channel=2 note=67 velocity=79 time=0.2142855
EXTRACT: note_on channel=2 note=67 velocity=79 time=0
EXTRACT: note_on channel=2 note=63 velocity=79 time=0
EXTRACT: note_on channel=2 note=58 velocity=79 time=0
EXTRACT: note_off channel=9 note=42 velocity=79 time=0
EXTRACT: note_on channel=9 note=42 velocity=79 time=0
EXTRACT: note_on channel=9 note=40 velocity=79 time=0
EXTRACT: note_off channel=2 note=67 velocity=79 time=0.428571
EXTRACT: note_off channel=2 note=63 velocity=79 time=0
EXTRACT: note_off channel=2 note=58 velocity=79 time=0
EXTRACT: note_on channel=2 note=58 velocity=79 time=0
EXTRACT: note_off channel=9 note=42 velocity=79 time=0
EXTRACT: note_off channel=9 note=40 velocity=79 time=0
EXTRACT: note_on channel=9 note=42 velocity=79 time=0
EXTRACT: note_off channel=2 note=58 velocity=79 time=0.2142855
EXTRACT: note_on channel=2 note=63 velocity=79 time=0
EXTRACT: note_off channel=0 note=79 velocity=79 time=0.2142855
EXTRACT: note_off channel=0 note=75 velocity=63 time=0
EXTRACT: note_off channel=2 note=63 velocity=79 time=0
EXTRACT: note_on channel=2 note=68 velocity=79 time=0
EXTRACT: note_on channel=2 note=63 velocity=79 time=0
EXTRACT: note_on channel=2 note=56 velocity=79 time=0
EXTRACT: note_on channel=2 note=51 velocity=79 time=0
EXTRACT: note_on channel=2 note=46 velocity=79 time=0
EXTRACT: note_off channel=6 note=27 velocity=79 time=0
EXTRACT: note_on channel=6 note=27 velocity=79 time=0
EXTRACT: note_off channel=9 note=42 velocity=79 time=0
EXTRACT: note_on channel=9 note=42 velocity=79 time=0
EXTRACT: note_on channel=9 note=35 velocity=79 time=0
EXTRACT: note_off channel=9 note=42 velocity=79 time=0.2142855
EXTRACT: note_off channel=9 note=35 velocity=79 time=0
EXTRACT: note_on channel=9 note=44 velocity=79 time=0
EXTRACT: note_on channel=0 note=84 velocity=79 time=0.2142855
EXTRACT: note_off channel=2 note=68 velocity=79 time=0
EXTRACT: note_off channel=2 note=63 velocity=79 time=0
EXTRACT: note_off channel=2 note=56 velocity=79 time=0
EXTRACT: note_off channel=2 note=51 velocity=79 time=0
EXTRACT: note_off channel=2 note=46 velocity=79 time=0
EXTRACT: note_on channel=2 note=58 velocity=79 time=0
EXTRACT: note_off channel=9 note=44 velocity=79 time=0
EXTRACT: note_on channel=9 note=42 velocity=79 time=0
EXTRACT: note_off channel=2 note=58 velocity=79 time=0.2142855
EXTRACT: note_on channel=2 note=63 velocity=79 time=0
EXTRACT: note_off channel=0 note=84 velocity=79 time=0.2142855
EXTRACT: note_on channel=0 note=82 velocity=79 time=0
EXTRACT: note_off channel=2 note=63 velocity=79 time=0
EXTRACT: note_on channel=2 note=70 velocity=79 time=0
EXTRACT: note_on channel=2 note=67 velocity=79 time=0
EXTRACT: note_on channel=2 note=63 velocity=79 time=0
EXTRACT: note_on channel=2 note=58 velocity=79 time=0
EXTRACT: note_off channel=4 note=70 velocity=63 time=0
EXTRACT: note_off channel=4 note=58 velocity=63 time=0
EXTRACT: note_off channel=4 note=51 velocity=63 time=0
EXTRACT: note_on channel=4 note=73 velocity=63 time=0
EXTRACT: note_off channel=9 note=42 velocity=79 time=0
EXTRACT: note_on channel=9 note=42 velocity=79 time=0
EXTRACT: note_on channel=9 note=40 velocity=79 time=0
EXTRACT: note_off channel=0 note=82 velocity=79 time=0.428571
EXTRACT: note_on channel=0 note=80 velocity=79 time=0
EXTRACT: note_off channel=2 note=70 velocity=79 time=0
EXTRACT: note_off channel=2 note=67 velocity=79 time=0
EXTRACT: note_off channel=2 note=63 velocity=79 time=0
EXTRACT: note_off channel=2 note=58 velocity=79 time=0
EXTRACT: note_on channel=2 note=58 velocity=79 time=0
EXTRACT: note_off channel=6 note=27 velocity=79 time=0
EXTRACT: note_on channel=6 note=27 velocity=79 time=0
EXTRACT: note_off channel=9 note=42 velocity=79 time=0
EXTRACT: note_off channel=9 note=40 velocity=79 time=0
EXTRACT: note_on channel=9 note=42 velocity=79 time=0
EXTRACT: note_off channel=2 note=58 velocity=79 time=0.2142855
EXTRACT: note_on channel=2 note=51 velocity=79 time=0
EXTRACT: note_off channel=0 note=80 velocity=79 time=0.2142855
EXTRACT: note_on channel=0 note=80 velocity=79 time=0
EXTRACT: note_off channel=2 note=51 velocity=79 time=0
EXTRACT: note_on channel=2 note=68 velocity=79 time=0
EXTRACT: note_on channel=2 note=65 velocity=79 time=0
EXTRACT: note_on channel=2 note=60 velocity=79 time=0
EXTRACT: note_on channel=2 note=53 velocity=79 time=0
EXTRACT: note_on channel=2 note=48 velocity=79 time=0
EXTRACT: note_on channel=2 note=41 velocity=79 time=0
EXTRACT: note_off channel=4 note=73 velocity=63 time=0
EXTRACT: note_on channel=4 note=72 velocity=63 time=0
EXTRACT: note_on channel=4 note=60 velocity=63 time=0
EXTRACT: note_on channel=4 note=53 velocity=63 time=0
EXTRACT: note_off channel=6 note=27 velocity=79 time=0
EXTRACT: note_on channel=6 note=29 velocity=79 time=0
EXTRACT: note_off channel=9 note=42 velocity=79 time=0
EXTRACT: note_on channel=9 note=42 velocity=79 time=0
EXTRACT: note_on channel=9 note=35 velocity=79 time=0
EXTRACT: note_off channel=0 note=80 velocity=79 time=0.2142855
EXTRACT: note_on channel=0 note=79 velocity=79 time=0
EXTRACT: note_on channel=0 note=75 velocity=63 time=0
EXTRACT: note_off channel=9 note=42 velocity=79 time=0
EXTRACT: note_off channel=9 note=35 velocity=79 time=0
EXTRACT: note_on channel=9 note=44 velocity=79 time=0
EXTRACT: note_off channel=0 note=79 velocity=79 time=0.2142855
EXTRACT: note_off channel=0 note=75 velocity=63 time=0
EXTRACT: note_on channel=0 note=80 velocity=79 time=0
EXTRACT: note_on channel=0 note=77 velocity=63 time=0
EXTRACT: note_off channel=2 note=68 velocity=79 time=0
EXTRACT: note_off channel=2 note=65 velocity=79 time=0
EXTRACT: note_off channel=2 note=60 velocity=79 time=0
EXTRACT: note_off channel=2 note=53 velocity=79 time=0
EXTRACT: note_off channel=2 note=48 velocity=79 time=0
EXTRACT: note_off channel=2 note=41 velocity=79 time=0
EXTRACT: note_on channel=2 note=60 velocity=79 time=0
EXTRACT: note_off channel=9 note=44 velocity=79 time=0
EXTRACT: note_on channel=9 note=42 velocity=79 time=0
EXTRACT: note_off channel=0 note=80 velocity=79 time=0.2142855
EXTRACT: note_off channel=0 note=77 velocity=63 time=0
EXTRACT: note_on channel=0 note=79 velocity=79 time=0
EXTRACT: note_on channel=0 note=75 velocity=63 time=0
EXTRACT: note_off channel=0 note=79 velocity=79 time=0.2142855
EXTRACT: note_off channel=0 note=75 velocity=63 time=0
EXTRACT: note_on channel=0 note=80 velocity=79 time=0
EXTRACT: note_on channel=0 note=77 velocity=63 time=0
EXTRACT: note_off channel=2 note=60 velocity=79 time=0
EXTRACT: note_on channel=2 note=68 velocity=79 time=0
EXTRACT: note_on channel=2 note=65 velocity=79 time=0
EXTRACT: note_on channel=2 note=60 velocity=79 time=0
EXTRACT: note_on channel=2 note=41 velocity=79 time=0
EXTRACT: note_off channel=9 note=42 velocity=79 time=0
EXTRACT: note_on channel=9 note=42 velocity=79 time=0
EXTRACT: note_on channel=9 note=40 velocity=79 time=0
EXTRACT: note_off channel=0 note=80 velocity=79 time=0.428571
EXTRACT: note_off channel=0 note=77 velocity=63 time=0
EXTRACT: note_on channel=0 note=80 velocity=79 time=0
EXTRACT: note_on channel=0 note=77 velocity=63 time=0
EXTRACT: note_off channel=2 note=68 velocity=79 time=0
EXTRACT: note_off channel=2 note=65 velocity=79 time=0
EXTRACT: note_off channel=2 note=60 velocity=79 time=0
EXTRACT: note_off channel=2 note=41 velocity=79 time=0
EXTRACT: note_on channel=2 note=60 velocity=79 time=0
EXTRACT: note_off channel=6 note=29 velocity=79 time=0
EXTRACT: note_on channel=6 note=29 velocity=79 time=0
EXTRACT: note_off channel=9 note=42 velocity=79 time=0
EXTRACT: note_off channel=9 note=40 velocity=79 time=0
EXTRACT: note_on channel=9 note=42 velocity=79 time=0
EXTRACT: note_off channel=0 note=80 velocity=79 time=0.2142855
EXTRACT: note_off channel=0 note=77 velocity=63 time=0
EXTRACT: note_on channel=0 note=79 velocity=79 time=0
EXTRACT: note_on channel=0 note=75 velocity=63 time=0
EXTRACT: note_off channel=0 note=79 velocity=79 time=0.2142855
EXTRACT: note_off channel=0 note=75 velocity=63 time=0
EXTRACT: note_on channel=0 note=80 velocity=79 time=0
EXTRACT: note_on channel=0 note=77 velocity=63 time=0
EXTRACT: note_off channel=2 note=60 velocity=79 time=0
EXTRACT: note_on channel=2 note=68 velocity=79 time=0
EXTRACT: note_on channel=2 note=65 velocity=79 time=0
EXTRACT: note_on channel=2 note=61 velocity=79 time=0
EXTRACT: note_on channel=2 note=49 velocity=79 time=0
EXTRACT: note_on channel=2 note=44 velocity=79 time=0
EXTRACT: note_off channel=4 note=72 velocity=63 time=0
EXTRACT: note_off channel=4 note=60 velocity=63 time=0
EXTRACT: note_off channel=4 note=53 velocity=63 time=0
EXTRACT: note_on channel=4 note=77 velocity=63 time=0
EXTRACT: note_on channel=4 note=61 velocity=63 time=0
EXTRACT: note_on channel=4 note=56 velocity=63 time=0
EXTRACT: note_off channel=6 note=29 velocity=79 time=0
EXTRACT: note_on channel=6 note=25 velocity=79 time=0
EXTRACT: note_off channel=9 note=42 velocity=79 time=0
EXTRACT: note_on channel=9 note=42 velocity=79 time=0
EXTRACT: note_on channel=9 note=35 velocity=79 time=0
EXTRACT: note_off channel=9 note=42 velocity=79 time=0.2142855
EXTRACT: note_off channel=9 note=35 velocity=79 time=0
EXTRACT: note_on channel=9 note=44 velocity=79 time=0
EXTRACT: note_off channel=0 note=80 velocity=79 time=0.2142855
EXTRACT: note_off channel=0 note=77 velocity=63 time=0
EXTRACT: note_on channel=0 note=80 velocity=79 time=0
EXTRACT: note_on channel=0 note=77 velocity=63 time=0
EXTRACT: note_off channel=2 note=68 velocity=79 time=0
EXTRACT: note_off channel=2 note=65 velocity=79 time=0
EXTRACT: note_off channel=2 note=61 velocity=79 time=0
EXTRACT: note_off channel=2 note=49 velocity=79 time=0
EXTRACT: note_off channel=2 note=44 velocity=79 time=0
EXTRACT: note_on channel=2 note=56 velocity=79 time=0
EXTRACT: note_off channel=9 note=44 velocity=79 time=0
EXTRACT: note_on channel=9 note=42 velocity=79 time=0
EXTRACT: note_off channel=0 note=80 velocity=79 time=0.428571
EXTRACT: note_off channel=0 note=77 velocity=63 time=0
EXTRACT: note_on channel=0 note=80 velocity=79 time=0
EXTRACT: note_on channel=0 note=77 velocity=63 time=0
EXTRACT: note_off channel=2 note=56 velocity=79 time=0
EXTRACT: note_on channel=2 note=68 velocity=79 time=0
EXTRACT: note_on channel=2 note=65 velocity=79 time=0
EXTRACT: note_on channel=2 note=61 velocity=79 time=0
EXTRACT: note_off channel=4 note=77 velocity=63 time=0
EXTRACT: note_off channel=4 note=61 velocity=63 time=0
EXTRACT: note_off channel=4 note=56 velocity=63 time=0
EXTRACT: note_on channel=4 note=72 velocity=63 time=0
EXTRACT: note_off channel=9 note=42 velocity=79 time=0
EXTRACT: note_on channel=9 note=42 velocity=79 time=0
EXTRACT: note_on channel=9 note=40 velocity=79 time=0
EXTRACT: note_off channel=0 note=80 velocity=79 time=0.2142855
EXTRACT: note_off channel=0 note=77 velocity=63 time=0
EXTRACT: note_on channel=0 note=82 velocity=79 time=0
EXTRACT: note_on channel=0 note=79 velocity=63 time=0
EXTRACT: note_off channel=2 note=68 velocity=79 time=0.2142855
EXTRACT: note_off channel=2 note=65 velocity=79 time=0
EXTRACT: note_off channel=2 note=61 velocity=79 time=0
EXTRACT: note_on channel=2 note=56 velocity=79 time=0
EXTRACT: note_off channel=6 note=25 velocity=79 time=0
EXTRACT: note_on channel=6 note=25 velocity=79 time=0
EXTRACT: note_off channel=9 note=42 velocity=79 time=0
EXTRACT: note_off channel=9 note=40 velocity=79 time=0
EXTRACT: note_on channel=9 note=42 velocity=79 time=0
EXTRACT: note_off channel=0 note=82 velocity=79 time=0.2142855
EXTRACT: note_off channel=0 note=79 velocity=63 time=0
EXTRACT: note_on channel=0 note=80 velocity=79 time=0
EXTRACT: note_on channel=0 note=77 velocity=63 time=0
EXTRACT: note_off channel=2 note=56 velocity=79 time=0.2142855
EXTRACT: note_on channel=2 note=70 velocity=79 time=0
EXTRACT: note_on channel=2 note=67 velocity=79 time=0
EXTRACT: note_on channel=2 note=63 velocity=79 time=0
EXTRACT: note_on channel=2 note=51 velocity=79 time=0
EXTRACT: note_on channel=2 note=46 velocity=79 time=0
EXTRACT: note_off channel=4 note=72 velocity=63 time=0
EXTRACT: note_on channel=4 note=70 velocity=63 time=0
EXTRACT: note_on channel=4 note=58 velocity=63 time=0
EXTRACT: note_on channel=4 note=51 velocity=63 time=0
EXTRACT: note_off channel=6 note=25 velocity=79 time=0
EXTRACT: note_on channel=6 note=27 velocity=79 time=0
EXTRACT: note_off channel=9 note=42 velocity=79 time=0
EXTRACT: note_on channel=9 note=42 velocity=79 time=0
EXTRACT: note_on channel=9 note=35 velocity=79 time=0
EXTRACT: note_off channel=0 note=80 velocity=79 time=0.2142855
EXTRACT: note_off channel=0 note=77 velocity=63 time=0
EXTRACT: note_on channel=0 note=79 velocity=79 time=0
EXTRACT: note_on channel=0 note=75 velocity=63 time=0
EXTRACT: note_off channel=9 note=42 velocity=79 time=0
EXTRACT: note_off channel=9 note=35 velocity=79 time=0
EXTRACT: note_on channel=9 note=44 velocity=79 time=0
EXTRACT: note_off channel=2 note=70 velocity=79 time=0.2142855
EXTRACT: note_off channel=2 note=67 velocity=79 time=0
EXTRACT: note_off channel=2 note=63 velocity=79 time=0
EXTRACT: note_off channel=2 note=51 velocity=79 time=0
EXTRACT: note_off channel=2 note=46 velocity=79 time=0
EXTRACT: note_on channel=2 note=58 velocity=79 time=0
EXTRACT: note_off channel=9 note=44 velocity=79 time=0
EXTRACT: note_on channel=9 note=42 velocity=79 time=0
EXTRACT: note_off channel=0 note=79 velocity=79 time=0.2142855
EXTRACT: note_off channel=0 note=75 velocity=63 time=0
EXTRACT: note_on channel=0 note=79 velocity=79 time=0
EXTRACT: note_on channel=0 note=75 velocity=63 time=0
EXTRACT: note_off channel=2 note=58 velocity=79 time=0.2142855
EXTRACT: note_on channel=2 note=70 velocity=79 time=0
EXTRACT: note_on channel=2 note=67 velocity=79 time=0
EXTRACT: note_on channel=2 note=63 velocity=79 time=0
EXTRACT: note_off channel=9 note=42 velocity=79 time=0
EXTRACT: note_on channel=9 note=42 velocity=79 time=0
EXTRACT: note_on channel=9 note=40 velocity=79 time=0
EXTRACT: note_off channel=2 note=70 velocity=79 time=0.428571
EXTRACT: note_off channel=2 note=67 velocity=79 time=0
EXTRACT: note_off channel=2 note=63 velocity=79 time=0
EXTRACT: note_on channel=2 note=58 velocity=79 time=0
EXTRACT: note_on channel=2 note=46 velocity=79 time=0
EXTRACT: note_off channel=6 note=27 velocity=79 time=0
EXTRACT: note_on channel=6 note=27 velocity=79 time=0
EXTRACT: note_off channel=9 note=42 velocity=79 time=0
EXTRACT: note_off channel=9 note=40 velocity=79 time=0
EXTRACT: note_on channel=9 note=42 velocity=79 time=0
EXTRACT: note_off channel=0 note=79 velocity=79 time=0.428571
EXTRACT: note_off channel=0 note=75 velocity=63 time=0
EXTRACT: note_off channel=2 note=58 velocity=79 time=0
EXTRACT: note_off channel=2 note=46 velocity=79 time=0
EXTRACT: note_on channel=2 note=67 velocity=79 time=0
EXTRACT: note_on channel=2 note=64 velocity=79 time=0
EXTRACT: note_on channel=2 note=60 velocity=79 time=0
EXTRACT: note_on channel=2 note=48 velocity=79 time=0
EXTRACT: note_on channel=2 note=43 velocity=79 time=0
EXTRACT: note_off channel=4 note=70 velocity=63 time=0
EXTRACT: note_off channel=4 note=58 velocity=63 time=0
EXTRACT: note_off channel=4 note=51 velocity=63 time=0
EXTRACT: note_on channel=4 note=60 velocity=63 time=0
EXTRACT: note_on channel=4 note=55 velocity=63 time=0
EXTRACT: note_off channel=6 note=27 velocity=79 time=0
EXTRACT: note_on channel=6 note=24 velocity=79 time=0
EXTRACT: note_off channel=9 note=42 velocity=79 time=0
EXTRACT: note_on channel=9 note=42 velocity=79 time=0
EXTRACT: note_on channel=9 note=35 velocity=79 time=0
EXTRACT: note_off channel=9 note=42 velocity=79 time=0.2142855
EXTRACT: note_off channel=9 note=35 velocity=79 time=0
EXTRACT: note_on channel=9 note=44 velocity=79 time=0
EXTRACT: note_on channel=0 note=84 velocity=79 time=0.2142855
EXTRACT: note_off channel=2 note=67 velocity=79 time=0
EXTRACT: note_off channel=2 note=64 velocity=79 time=0
EXTRACT: note_off channel=2 note=60 velocity=79 time=0
EXTRACT: note_off channel=2 note=48 velocity=79 time=0
EXTRACT: note_off channel=2 note=43 velocity=79 time=0
EXTRACT: note_on channel=2 note=55 velocity=79 time=0
EXTRACT: note_off channel=9 note=44 velocity=79 time=0
EXTRACT: note_on channel=9 note=42 velocity=79 time=0
EXTRACT: note_off channel=0 note=84 velocity=79 time=0.428571
EXTRACT: note_on channel=0 note=82 velocity=79 time=0
EXTRACT: note_off channel=2 note=55 velocity=79 time=0
EXTRACT: note_on channel=2 note=67 velocity=79 time=0
EXTRACT: note_on channel=2 note=64 velocity=79 time=0
EXTRACT: note_on channel=2 note=60 velocity=79 time=0
EXTRACT: note_off channel=4 note=60 velocity=63 time=0
EXTRACT: note_off channel=4 note=55 velocity=63 time=0
EXTRACT: note_on channel=4 note=72 velocity=63 time=0
EXTRACT: note_on channel=4 note=67 velocity=63 time=0
EXTRACT: note_off channel=9 note=42 velocity=79 time=0
EXTRACT: note_on channel=9 note=42 velocity=79 time=0
EXTRACT: note_on channel=9 note=40 velocity=79 time=0
EXTRACT: note_off channel=0 note=82 velocity=79 time=0.428571
EXTRACT: note_on channel=0 note=80 velocity=79 time=0
EXTRACT: note_off channel=2 note=67 velocity=79 time=0
EXTRACT: note_off channel=2 note=64 velocity=79 time=0
EXTRACT: note_off channel=2 note=60 velocity=79 time=0
EXTRACT: note_on channel=2 note=55 velocity=79 time=0
EXTRACT: note_on channel=2 note=48 velocity=79 time=0
EXTRACT: note_off channel=6 note=24 velocity=79 time=0
EXTRACT: note_on channel=6 note=24 velocity=79 time=0
EXTRACT: note_off channel=9 note=42 velocity=79 time=0
EXTRACT: note_off channel=9 note=40 velocity=79 time=0
EXTRACT: note_on channel=9 note=42 velocity=79 time=0
EXTRACT: note_off channel=9 note=42 velocity=79 time=0.2142855
EXTRACT: note_on channel=9 note=35 velocity=79 time=0
EXTRACT: note_off channel=0 note=80 velocity=79 time=0.2142855
EXTRACT: note_on channel=0 note=82 velocity=63 time=0
EXTRACT: note_on channel=0 note=80 velocity=79 time=0
EXTRACT: note_off channel=2 note=55 velocity=79 time=0
EXTRACT: note_off channel=2 note=48 velocity=79 time=0
EXTRACT: note_on channel=2 note=68 velocity=79 time=0
EXTRACT: note_on channel=2 note=65 velocity=79 time=0
EXTRACT: note_on channel=2 note=61 velocity=79 time=0
EXTRACT: note_on channel=2 note=46 velocity=79 time=0
EXTRACT: note_on channel=2 note=41 velocity=79 time=0
EXTRACT: note_off channel=4 note=72 velocity=63 time=0
EXTRACT: note_off channel=4 note=67 velocity=63 time=0
EXTRACT: note_on channel=4 note=70 velocity=63 time=0
EXTRACT: note_on channel=4 note=58 velocity=63 time=0
EXTRACT: note_on channel=4 note=53 velocity=63 time=0
EXTRACT: note_off channel=6 note=24 velocity=79 time=0
EXTRACT: note_on channel=6 note=34 velocity=79 time=0
EXTRACT: note_off channel=9 note=35 velocity=79 time=0
EXTRACT: note_on channel=9 note=49 velocity=79 time=0
EXTRACT: note_on channel=9 note=35 velocity=79 time=0
EXTRACT: note_off channel=0 note=82 velocity=63 time=0.2142855
EXTRACT: note_off channel=0 note=80 velocity=79 time=0
EXTRACT: note_on channel=0 note=77 velocity=79 time=0
EXTRACT: note_off channel=9 note=49 velocity=79 time=0
EXTRACT: note_off channel=9 note=35 velocity=79 time=0
EXTRACT: note_on channel=9 note=44 velocity=79 time=0
EXTRACT: note_off channel=0 note=77 velocity=79 time=0.2142855
EXTRACT: note_on channel=0 note=80 velocity=79 time=0
EXTRACT: note_off channel=2 note=68 velocity=79 time=0
EXTRACT: note_off channel=2 note=65 velocity=79 time=0
EXTRACT: note_off channel=2 note=61 velocity=79 time=0
EXTRACT: note_off channel=2 note=46 velocity=79 time=0
EXTRACT: note_off channel=2 note=41 velocity=79 time=0
EXTRACT: note_on channel=2 note=56 velocity=79 time=0
EXTRACT: note_off channel=9 note=44 velocity=79 time=0
EXTRACT: note_on channel=9 note=42 velocity=79 time=0
EXTRACT: note_off channel=0 note=80 velocity=79 time=0.2142855
EXTRACT: note_on channel=0 note=77 velocity=79 time=0
EXTRACT: note_off channel=0 note=77 velocity=79 time=0.2142855
EXTRACT: note_on channel=0 note=80 velocity=79 time=0
EXTRACT: note_off channel=2 note=56 velocity=79 time=0
EXTRACT: note_on channel=2 note=68 velocity=79 time=0
EXTRACT: note_on channel=2 note=65 velocity=79 time=0
EXTRACT: note_on channel=2 note=61 velocity=79 time=0
EXTRACT: note_off channel=9 note=42 velocity=79 time=0
EXTRACT: note_on channel=9 note=42 velocity=79 time=0
EXTRACT: note_on channel=9 note=40 velocity=79 time=0
EXTRACT: note_off channel=0 note=80 velocity=79 time=0.428571
EXTRACT: note_on channel=0 note=77 velocity=79 time=0
EXTRACT: note_off channel=2 note=68 velocity=79 time=0
EXTRACT: note_off channel=2 note=65 velocity=79 time=0
EXTRACT: note_off channel=2 note=61 velocity=79 time=0
EXTRACT: note_on channel=2 note=56 velocity=79 time=0
EXTRACT: note_on channel=2 note=41 velocity=79 time=0
EXTRACT: note_off channel=6 note=34 velocity=79 time=0
EXTRACT: note_on channel=6 note=34 velocity=79 time=0
EXTRACT: note_off channel=9 note=42 velocity=79 time=0
EXTRACT: note_off channel=9 note=40 velocity=79 time=0
EXTRACT: note_on channel=9 note=42 velocity=79 time=0
EXTRACT: note_off channel=0 note=77 velocity=79 time=0.2142855
EXTRACT: note_on channel=0 note=80 velocity=79 time=0
EXTRACT: note_off channel=0 note=80 velocity=79 time=0.2142855
EXTRACT: note_on channel=0 note=80 velocity=63 time=0
EXTRACT: note_off channel=2 note=56 velocity=79 time=0
EXTRACT: note_off channel=2 note=41 velocity=79 time=0
EXTRACT: note_on channel=2 note=68 velocity=79 time=0
EXTRACT: note_on channel=2 note=63 velocity=79 time=0
EXTRACT: note_on channel=2 note=60 velocity=79 time=0
EXTRACT: note_on channel=2 note=44 velocity=79 time=0
EXTRACT: note_off channel=4 note=70 velocity=63 time=0
EXTRACT: note_off channel=4 note=58 velocity=63 time=0
EXTRACT: note_off channel=4 note=53 velocity=63 time=0
EXTRACT: note_on channel=4 note=56 velocity=63 time=0
EXTRACT: note_off channel=6 note=34 velocity=79 time=0
EXTRACT: note_on channel=6 note=32 velocity=79 time=0
EXTRACT: note_off channel=9 note=42 velocity=79 time=0
EXTRACT: note_on channel=9 note=42 velocity=79 time=0
EXTRACT: note_on channel=9 note=35 velocity=79 time=0
EXTRACT: note_off channel=0 note=80 velocity=63 time=0.2142855
EXTRACT: note_on channel=0 note=80 velocity=79 time=0
EXTRACT: note_off channel=9 note=42 velocity=79 time=0
EXTRACT: note_off channel=9 note=35 velocity=79 time=0
EXTRACT: note_on channel=9 note=44 velocity=79 time=0
EXTRACT: note_off channel=2 note=68 velocity=79 time=0.2142855
EXTRACT: note_off channel=2 note=63 velocity=79 time=0
EXTRACT: note_off channel=2 note=60 velocity=79 time=0
EXTRACT: note_off channel=2 note=44 velocity=79 time=0
EXTRACT: note_on channel=2 note=56 velocity=79 time=0
EXTRACT: note_off channel=9 note=44 velocity=79 time=0
EXTRACT: note_on channel=9 note=42 velocity=79 time=0
EXTRACT: note_off channel=0 note=80 velocity=79 time=0.2142855
EXTRACT: note_on channel=0 note=80 velocity=79 time=0
EXTRACT: note_off channel=2 note=56 velocity=79 time=0.2142855
EXTRACT: note_on channel=2 note=68 velocity=79 time=0
EXTRACT: note_on channel=2 note=63 velocity=79 time=0
EXTRACT: note_on channel=2 note=60 velocity=79 time=0
EXTRACT: note_off channel=4 note=56 velocity=63 time=0
EXTRACT: note_on channel=4 note=72 velocity=63 time=0
EXTRACT: note_off channel=9 note=42 velocity=79 time=0
EXTRACT: note_on channel=9 note=42 velocity=79 time=0
EXTRACT: note_on channel=9 note=40 velocity=79 time=0
EXTRACT: note_off channel=0 note=80 velocity=79 time=0.2142855
EXTRACT: note_on channel=0 note=80 velocity=79 time=0
EXTRACT: note_off channel=2 note=68 velocity=79 time=0.2142855
EXTRACT: note_off channel=2 note=63 velocity=79 time=0
EXTRACT: note_off channel=2 note=60 velocity=79 time=0
EXTRACT: note_on channel=2 note=56 velocity=79 time=0
EXTRACT: note_on channel=2 note=44 velocity=79 time=0
EXTRACT: note_off channel=6 note=32 velocity=79 time=0
EXTRACT: note_on channel=6 note=32 velocity=79 time=0
EXTRACT: note_off channel=9 note=42 velocity=79 time=0
EXTRACT: note_off channel=9 note=40 velocity=79 time=0
EXTRACT: note_on channel=9 note=42 velocity=79 time=0
EXTRACT: note_off channel=0 note=80 velocity=79 time=0.2142855
EXTRACT: note_on channel=0 note=82 velocity=79 time=0
EXTRACT: note_off channel=0 note=82 velocity=79 time=0.2142855
EXTRACT: note_on channel=0 note=82 velocity=63 time=0
EXTRACT: note_off channel=2 note=56 velocity=79 time=0
EXTRACT: note_off channel=2 note=44 velocity=79 time=0
EXTRACT: note_on channel=2 note=67 velocity=79 time=0
EXTRACT: note_on channel=2 note=63 velocity=79 time=0
EXTRACT: note_on channel=2 note=58 velocity=79 time=0
EXTRACT: note_on channel=2 note=51 velocity=79 time=0
EXTRACT: note_on channel=2 note=46 velocity=79 time=0
EXTRACT: note_off channel=4 note=72 velocity=63 time=0
EXTRACT: note_on channel=4 note=70 velocity=63 time=0
EXTRACT: note_on channel=4 note=63 velocity=63 time=0
EXTRACT: note_on channel=4 note=58 velocity=63 time=0
EXTRACT: note_off channel=6 note=32 velocity=79 time=0
EXTRACT: note_on channel=6 note=27 velocity=79 time=0
EXTRACT: note_off channel=9 note=42 velocity=79 time=0
EXTRACT: note_on channel=9 note=57 velocity=79 time=0
EXTRACT: note_on channel=9 note=42 velocity=79 time=0
EXTRACT: note_on channel=9 note=35 velocity=79 time=0
EXTRACT: note_off channel=0 note=82 velocity=63 time=0.2142855
EXTRACT: note_on channel=0 note=80 velocity=79 time=0
EXTRACT: note_off channel=9 note=57 velocity=79 time=0
EXTRACT: note_off channel=9 note=42 velocity=79 time=0
EXTRACT: note_off channel=9 note=35 velocity=79 time=0
EXTRACT: note_on channel=9 note=44 velocity=79 time=0
EXTRACT: note_off channel=0 note=80 velocity=79 time=0.2142855
EXTRACT: note_on channel=0 note=82 velocity=79 time=0
EXTRACT: note_off channel=2 note=67 velocity=79 time=0
EXTRACT: note_off channel=2 note=63 velocity=79 time=0
EXTRACT: note_off channel=2 note=58 velocity=79 time=0
EXTRACT: note_off channel=2 note=51 velocity=79 time=0
EXTRACT: note_off channel=2 note=46 velocity=79 time=0
EXTRACT: note_on channel=2 note=58 velocity=79 time=0
EXTRACT: note_off channel=9 note=44 velocity=79 time=0
EXTRACT: note_on channel=9 note=42 velocity=79 time=0
EXTRACT: note_off channel=0 note=82 velocity=79 time=0.2142855
EXTRACT: note_on channel=0 note=80 velocity=79 time=0
EXTRACT: note_off channel=0 note=80 velocity=79 time=0.2142855
EXTRACT: note_on channel=0 note=82 velocity=79 time=0
EXTRACT: note_off channel=2 note=58 velocity=79 time=0
EXTRACT: note_on channel=2 note=67 velocity=79 time=0
EXTRACT: note_on channel=2 note=63 velocity=79 time=0
EXTRACT: note_on channel=2 note=58 velocity=79 time=0
EXTRACT: note_off channel=4 note=70 velocity=63 time=0
EXTRACT: note_off channel=4 note=63 velocity=63 time=0
EXTRACT: note_off channel=4 note=58 velocity=63 time=0
EXTRACT: note_on channel=4 note=75 velocity=63 time=0
EXTRACT: note_off channel=9 note=42 velocity=79 time=0
EXTRACT: note_on channel=9 note=42 velocity=79 time=0
EXTRACT: note_on channel=9 note=40 velocity=79 time=0
EXTRACT: note_off channel=0 note=82 velocity=79 time=0.428571
EXTRACT: note_on channel=0 note=80 velocity=79 time=0
EXTRACT: note_off channel=2 note=67 velocity=79 time=0
EXTRACT: note_off channel=2 note=63 velocity=79 time=0
EXTRACT: note_off channel=2 note=58 velocity=79 time=0
EXTRACT: note_on channel=2 note=58 velocity=79 time=0
EXTRACT: note_on channel=2 note=51 velocity=79 time=0
EXTRACT: note_off channel=6 note=27 velocity=79 time=0
EXTRACT: note_on channel=6 note=27 velocity=79 time=0
EXTRACT: note_off channel=9 note=42 velocity=79 time=0
EXTRACT: note_off channel=9 note=40 velocity=79 time=0
EXTRACT: note_on channel=9 note=42 velocity=79 time=0
EXTRACT: note_off channel=0 note=80 velocity=79 time=0.2142855
EXTRACT: note_on channel=0 note=84 velocity=79 time=0
EXTRACT: note_off channel=2 note=58 velocity=79 time=0.2142855
EXTRACT: note_off channel=2 note=51 velocity=79 time=0
EXTRACT: note_on channel=2 note=65 velocity=79 time=0
EXTRACT: note_on channel=2 note=61 velocity=79 time=0
EXTRACT: note_on channel=2 note=58 velocity=79 time=0
EXTRACT: note_on channel=2 note=46 velocity=79 time=0
EXTRACT: note_on channel=2 note=41 velocity=79 time=0
EXTRACT: note_off channel=4 note=75 velocity=63 time=0
EXTRACT: note_on channel=4 note=72 velocity=63 time=0
EXTRACT: note_on channel=4 note=58 velocity=63 time=0
EXTRACT: note_on channel=4 note=53 velocity=63 time=0
EXTRACT: note_off channel=6 note=27 velocity=79 time=0
EXTRACT: note_on channel=6 note=34 velocity=79 time=0
EXTRACT: note_off channel=9 note=42 velocity=79 time=0
EXTRACT: note_on channel=9 note=42 velocity=79 time=0
EXTRACT: note_on channel=9 note=35 velocity=79 time=0
EXTRACT: note_off channel=0 note=84 velocity=79 time=0.2142855
EXTRACT: note_on channel=0 note=82 velocity=79 time=0
EXTRACT: note_off channel=9 note=42 velocity=79 time=0
EXTRACT: note_off channel=9 note=35 velocity=79 time=0
EXTRACT: note_on channel=9 note=44 velocity=79 time=0
EXTRACT: note_off channel=2 note=65 velocity=79 time=0.2142855
EXTRACT: note_off channel=2 note=61 velocity=79 time=0
EXTRACT: note_off channel=2 note=58 velocity=79 time=0
EXTRACT: note_off channel=2 note=46 velocity=79 time=0
EXTRACT: note_off channel=2 note=41 velocity=79 time=0
EXTRACT: note_on channel=2 note=58 velocity=79 time=0
EXTRACT: note_off channel=9 note=44 velocity=79 time=0
EXTRACT: note_on channel=9 note=42 velocity=79 time=0
EXTRACT: note_off channel=0 note=82 velocity=79 time=0.2142855
EXTRACT: note_on channel=0 note=80 velocity=79 time=0
EXTRACT: note_off channel=0 note=80 velocity=79 time=0.2142855
EXTRACT: note_on channel=0 note=82 velocity=79 time=0
EXTRACT: note_off channel=2 note=58 velocity=79 time=0
EXTRACT: note_on channel=2 note=65 velocity=79 time=0
EXTRACT: note_on channel=2 note=61 velocity=79 time=0
EXTRACT: note_on channel=2 note=58 velocity=79 time=0
EXTRACT: note_off channel=9 note=42 velocity=79 time=0
EXTRACT: note_on channel=9 note=46 velocity=79 time=0
EXTRACT: note_on channel=9 note=40 velocity=79 time=0
EXTRACT: note_off channel=0 note=82 velocity=79 time=0.428571
EXTRACT: note_on channel=0 note=80 velocity=79 time=0
EXTRACT: note_off channel=2 note=65 velocity=79 time=0
EXTRACT: note_off channel=2 note=61 velocity=79 time=0
EXTRACT: note_off channel=2 note=58 velocity=79 time=0
EXTRACT: note_on channel=2 note=53 velocity=79 time=0
EXTRACT: note_on channel=2 note=41 velocity=79 time=0
EXTRACT: note_off channel=4 note=72 velocity=63 time=0
EXTRACT: note_off channel=4 note=58 velocity=63 time=0
EXTRACT: note_off channel=4 note=53 velocity=63 time=0
EXTRACT: note_on channel=4 note=79 velocity=63 time=0
EXTRACT: note_off channel=6 note=34 velocity=79 time=0
EXTRACT: note_on channel=6 note=34 velocity=79 time=0
EXTRACT: note_off channel=9 note=46 velocity=79 time=0
EXTRACT: note_off channel=9 note=40 velocity=79 time=0
EXTRACT: note_on channel=9 note=46 velocity=79 time=0
EXTRACT: note_off channel=0 note=80 velocity=79 time=0.2142855
EXTRACT: note_on channel=0 note=84 velocity=79 time=0
EXTRACT: note_off channel=0 note=84 velocity=79 time=0.2142855
EXTRACT: note_on channel=0 note=80 velocity=63 time=0
EXTRACT: note_off channel=2 note=53 velocity=79 time=0
EXTRACT: note_off channel=2 note=41 velocity=79 time=0
EXTRACT: note_on channel=2 note=65 velocity=79 time=0
EXTRACT: note_on channel=2 note=61 velocity=79 time=0
EXTRACT: note_on channel=2 note=56 velocity=79 time=0
EXTRACT: note_on channel=2 note=49 velocity=79 time=0
EXTRACT: note_on channel=2 note=44 velocity=79 time=0
EXTRACT: note_off channel=4 note=79 velocity=63 time=0
EXTRACT: note_on channel=4 note=77 velocity=63 time=0
EXTRACT: note_on channel=4 note=68 velocity=63 time=0
EXTRACT: note_on channel=4 note=61 velocity=63 time=0
EXTRACT: note_on channel=4 note=56 velocity=63 time=0
EXTRACT: note_off channel=6 note=34 velocity=79 time=0
EXTRACT: note_on channel=6 note=37 velocity=79 time=0
EXTRACT: note_off channel=9 note=46 velocity=79 time=0
EXTRACT: note_on channel=9 note=49 velocity=79 time=0
EXTRACT: note_on channel=9 note=35 velocity=79 time=0
EXTRACT: note_off channel=0 note=80 velocity=63 time=0.2142855
EXTRACT: note_on channel=0 note=85 velocity=79 time=0
EXTRACT: note_off channel=9 note=49 velocity=79 time=0
EXTRACT: note_off channel=9 note=35 velocity=79 time=0
EXTRACT: note_on channel=9 note=44 velocity=79 time=0
EXTRACT: note_off channel=0 note=85 velocity=79 time=0.2142855
EXTRACT: note_on channel=0 note=84 velocity=79 time=0
EXTRACT: note_off channel=2 note=65 velocity=79 time=0
EXTRACT: note_off channel=2 note=61 velocity=79 time=0
EXTRACT: note_off channel=2 note=56 velocity=79 time=0
EXTRACT: note_off channel=2 note=49 velocity=79 time=0
EXTRACT: note_off channel=2 note=44 velocity=79 time=0
EXTRACT: note_on channel=2 note=53 velocity=79 time=0
EXTRACT: note_off channel=9 note=44 velocity=79 time=0
EXTRACT: note_on channel=9 note=42 velocity=79 time=0
EXTRACT: note_off channel=0 note=84 velocity=79 time=0.2142855
EXTRACT: note_on channel=0 note=82 velocity=79 time=0
EXTRACT: note_off channel=0 note=82 velocity=79 time=0.2142855
EXTRACT: note_on channel=0 note=80 velocity=79 time=0
EXTRACT: note_off channel=2 note=53 velocity=79 time=0
EXTRACT: note_on channel=2 note=65 velocity=79 time=0
EXTRACT: note_on channel=2 note=61 velocity=79 time=0
EXTRACT: note_on channel=2 note=56 velocity=79 time=0
EXTRACT: note_off channel=9 note=42 velocity=79 time=0
EXTRACT: note_on channel=9 note=42 velocity=79 time=0
EXTRACT: note_on channel=9 note=40 velocity=79 time=0
EXTRACT: note_off channel=0 note=80 velocity=79 time=0.2142855
EXTRACT: note_on channel=0 note=77 velocity=79 time=0
EXTRACT: note_off channel=2 note=65 velocity=79 time=0.2142855
EXTRACT: note_off channel=2 note=61 velocity=79 time=0
EXTRACT: note_off channel=2 note=56 velocity=79 time=0
EXTRACT: note_on channel=2 note=53 velocity=79 time=0
EXTRACT: note_on channel=2 note=49 velocity=79 time=0
EXTRACT: note_off channel=6 note=37 velocity=79 time=0
EXTRACT: note_on channel=6 note=37 velocity=79 time=0
EXTRACT: note_off channel=9 note=42 velocity=79 time=0
EXTRACT: note_off channel=9 note=40 velocity=79 time=0
EXTRACT: note_on channel=9 note=42 velocity=79 time=0
EXTRACT: note_off channel=0 note=77 velocity=79 time=0.2142855
EXTRACT: note_off channel=2 note=53 velocity=79 time=0.2142855
EXTRACT: note_off channel=2 note=49 velocity=79 time=0
EXTRACT: note_on channel=2 note=65 velocity=79 time=0
EXTRACT: note_on channel=2 note=61 velocity=79 time=0
EXTRACT: note_on channel=2 note=56 velocity=79 time=0
EXTRACT: note_on channel=2 note=49 velocity=79 time=0
EXTRACT: note_on channel=2 note=44 velocity=79 time=0
EXTRACT: note_off channel=6 note=37 velocity=79 time=0
EXTRACT: note_on channel=6 note=37 velocity=79 time=0
EXTRACT: note_off channel=9 note=42 velocity=79 time=0
EXTRACT: note_on channel=9 note=42 velocity=79 time=0
EXTRACT: note_on channel=9 note=35 velocity=79 time=0
EXTRACT: note_off channel=9 note=42 velocity=79 time=0.2142855
EXTRACT: note_off channel=9 note=35 velocity=79 time=0
EXTRACT: note_on channel=9 note=44 velocity=79 time=0
EXTRACT: note_on channel=0 note=80 velocity=79 time=0.2142855
EXTRACT: note_off channel=2 note=65 velocity=79 time=0
EXTRACT: note_off channel=2 note=61 velocity=79 time=0
EXTRACT: note_off channel=2 note=56 velocity=79 time=0
EXTRACT: note_off channel=2 note=49 velocity=79 time=0
EXTRACT: note_off channel=2 note=44 velocity=79 time=0
EXTRACT: note_on channel=2 note=53 velocity=79 time=0
EXTRACT: note_off channel=9 note=44 velocity=79 time=0
EXTRACT: note_on channel=9 note=42 velocity=79 time=0
EXTRACT: note_off channel=0 note=80 velocity=79 time=0.428571
EXTRACT: note_on channel=0 note=80 velocity=79 time=0
EXTRACT: note_off channel=2 note=53 velocity=79 time=0
EXTRACT: note_on channel=2 note=65 velocity=79 time=0
EXTRACT: note_on channel=2 note=61 velocity=79 time=0
EXTRACT: note_on channel=2 note=56 velocity=79 time=0
EXTRACT: note_off channel=4 note=77 velocity=63 time=0
EXTRACT: note_off channel=4 note=68 velocity=63 time=0
EXTRACT: note_off channel=4 note=61 velocity=63 time=0
EXTRACT: note_off channel=4 note=56 velocity=63 time=0
EXTRACT: note_on channel=4 note=80 velocity=63 time=0
EXTRACT: note_off channel=9 note=42 velocity=79 time=0
EXTRACT: note_on channel=9 note=42 velocity=79 time=0
EXTRACT: note_on channel=9 note=40 velocity=79 time=0
EXTRACT: note_off channel=0 note=80 velocity=79 time=0.428571
EXTRACT: note_on channel=0 note=80 velocity=79 time=0
EXTRACT: note_off channel=2 note=65 velocity=79 time=0
EXTRACT: note_off channel=2 note=61 velocity=79 time=0
EXTRACT: note_off channel=2 note=56 velocity=79 time=0
EXTRACT: note_on channel=2 note=53 velocity=79 time=0
EXTRACT: note_on channel=2 note=49 velocity=79 time=0
EXTRACT: note_off channel=6 note=37 velocity=79 time=0
EXTRACT: note_on channel=6 note=37 velocity=79 time=0
EXTRACT: note_off channel=9 note=42 velocity=79 time=0
EXTRACT: note_off channel=9 note=40 velocity=79 time=0
EXTRACT: note_on channel=9 note=42 velocity=79 time=0
EXTRACT: note_off channel=0 note=80 velocity=79 time=0.2142855
EXTRACT: note_on channel=0 note=80 velocity=79 time=0
EXTRACT: note_off channel=2 note=53 velocity=79 time=0.2142855
EXTRACT: note_off channel=2 note=49 velocity=79 time=0
EXTRACT: note_on channel=2 note=67 velocity=79 time=0
EXTRACT: note_on channel=2 note=63 velocity=79 time=0
EXTRACT: note_on channel=2 note=58 velocity=79 time=0
EXTRACT: note_on channel=2 note=51 velocity=79 time=0
EXTRACT: note_on channel=2 note=46 velocity=79 time=0
EXTRACT: note_off channel=4 note=80 velocity=63 time=0
EXTRACT: note_on channel=4 note=70 velocity=63 time=0
EXTRACT: note_on channel=4 note=58 velocity=63 time=0
EXTRACT: note_on channel=4 note=51 velocity=63 time=0
EXTRACT: note_off channel=6 note=37 velocity=79 time=0
EXTRACT: note_on channel=6 note=27 velocity=79 time=0
EXTRACT: note_off channel=9 note=42 velocity=79 time=0
EXTRACT: note_on channel=9 note=49 velocity=79 time=0
EXTRACT: note_on channel=9 note=35 velocity=79 time=0
EXTRACT: note_off channel=0 note=80 velocity=79 time=0.2142855
EXTRACT: note_on channel=0 note=79 velocity=79 time=0
EXTRACT: note_off channel=9 note=49 velocity=79 time=0
EXTRACT: note_off channel=9 note=35 velocity=79 time=0
EXTRACT: note_on channel=9 note=44 velocity=79 time=0
EXTRACT: note_off channel=2 note=67 velocity=79 time=0.2142855
EXTRACT: note_off channel=2 note=63 velocity=79 time=0
EXTRACT: note_off channel=2 note=58 velocity=79 time=0
EXTRACT: note_off channel=2 note=51 velocity=79 time=0
EXTRACT: note_off channel=2 note=46 velocity=79 time=0
EXTRACT: note_on channel=2 note=58 velocity=79 time=0
EXTRACT: note_on channel=2 note=51 velocity=79 time=0
EXTRACT: note_off channel=6 note=27 velocity=79 time=0
EXTRACT: note_on channel=6 note=27 velocity=79 time=0
EXTRACT: note_off channel=9 note=44 velocity=79 time=0
EXTRACT: note_on channel=9 note=42 velocity=79 time=0
EXTRACT: note_off channel=2 note=58 velocity=79 time=0.2142855
EXTRACT: note_off channel=2 note=51 velocity=79 time=0
EXTRACT: note_on channel=2 note=46 velocity=79 time=0
EXTRACT: note_off channel=2 note=46 velocity=79 time=0.2142855
EXTRACT: note_on channel=2 note=67 velocity=79 time=0
EXTRACT: note_on channel=2 note=63 velocity=79 time=0
EXTRACT: note_on channel=2 note=58 velocity=79 time=0
EXTRACT: note_on channel=2 note=51 velocity=79 time=0
EXTRACT: note_off channel=6 note=27 velocity=79 time=0
EXTRACT: note_on channel=6 note=27 velocity=79 time=0
EXTRACT: note_off channel=9 note=42 velocity=79 time=0
EXTRACT: note_on channel=9 note=42 velocity=79 time=0
EXTRACT: note_on channel=9 note=40 velocity=79 time=0
EXTRACT: note_off channel=6 note=27 velocity=79 time=0.428571
EXTRACT: note_on channel=6 note=27 velocity=79 time=0
EXTRACT: note_off channel=9 note=42 velocity=79 time=0
EXTRACT: note_off channel=9 note=40 velocity=79 time=0
EXTRACT: note_on channel=9 note=42 velocity=79 time=0
EXTRACT: note_off channel=2 note=67 velocity=79 time=0.2142855
EXTRACT: note_off channel=2 note=63 velocity=79 time=0
EXTRACT: note_off channel=2 note=58 velocity=79 time=0
EXTRACT: note_off channel=2 note=51 velocity=79 time=0
EXTRACT: note_on channel=2 note=58 velocity=79 time=0
EXTRACT: note_off channel=0 note=79 velocity=79 time=0.2142855
EXTRACT: note_off channel=2 note=58 velocity=79 time=0
EXTRACT: note_on channel=2 note=67 velocity=79 time=0
EXTRACT: note_on channel=2 note=63 velocity=79 time=0
EXTRACT: note_on channel=2 note=58 velocity=79 time=0
EXTRACT: note_on channel=2 note=51 velocity=79 time=0
EXTRACT: note_on channel=2 note=46 velocity=79 time=0
EXTRACT: note_off channel=6 note=27 velocity=79 time=0
EXTRACT: note_on channel=6 note=27 velocity=79 time=0
EXTRACT: note_off channel=9 note=42 velocity=79 time=0
EXTRACT: note_on channel=9 note=57 velocity=79 time=0
EXTRACT: note_on channel=9 note=42 velocity=79 time=0
EXTRACT: note_on channel=9 note=35 velocity=79 time=0
EXTRACT: note_off channel=9 note=57 velocity=79 time=0.2142855
EXTRACT: note_off channel=9 note=42 velocity=79 time=0
EXTRACT: note_off channel=9 note=35 velocity=79 time=0
EXTRACT: note_on channel=9 note=44 velocity=79 time=0
EXTRACT: note_on channel=0 note=72 velocity=95 time=0.2142855
EXTRACT: note_off channel=2 note=67 velocity=79 time=0
EXTRACT: note_off channel=2 note=63 velocity=79 time=0
EXTRACT: note_off channel=2 note=58 velocity=79 time=0
EXTRACT: note_off channel=2 note=51 velocity=79 time=0
EXTRACT: note_off channel=2 note=46 velocity=79 time=0
EXTRACT: note_on channel=2 note=58 velocity=79 time=0
EXTRACT: note_off channel=4 note=70 velocity=63 time=0
EXTRACT: note_off channel=4 note=58 velocity=63 time=0
EXTRACT: note_off channel=4 note=51 velocity=63 time=0
EXTRACT: note_on channel=4 note=72 velocity=63 time=0
EXTRACT: note_on channel=4 note=60 velocity=63 time=0
EXTRACT: note_off channel=6 note=27 velocity=79 time=0
EXTRACT: note_on channel=6 note=27 velocity=79 time=0
EXTRACT: note_off channel=9 note=44 velocity=79 time=0
EXTRACT: note_on channel=9 note=42 velocity=79 time=0
EXTRACT: note_on channel=9 note=40 velocity=79 time=0
EXTRACT: note_off channel=0 note=72 velocity=95 time=0.428571
EXTRACT: note_on channel=0 note=72 velocity=95 time=0
EXTRACT: note_off channel=2 note=58 velocity=79 time=0
EXTRACT: note_on channel=2 note=67 velocity=79 time=0
EXTRACT: note_on channel=2 note=63 velocity=79 time=0
EXTRACT: note_on channel=2 note=58 velocity=79 time=0
EXTRACT: note_off channel=6 note=27 velocity=79 time=0
EXTRACT: note_on channel=6 note=27 velocity=79 time=0
EXTRACT: note_off channel=9 note=42 velocity=79 time=0
EXTRACT: note_off channel=9 note=40 velocity=79 time=0
EXTRACT: note_on channel=9 note=42 velocity=79 time=0
EXTRACT: note_on channel=9 note=40 velocity=79 time=0
EXTRACT: note_off channel=9 note=42 velocity=79 time=0.2142855
EXTRACT: note_off channel=9 note=40 velocity=79 time=0
EXTRACT: note_on channel=9 note=47 velocity=79 time=0
EXTRACT: note_on channel=9 note=45 velocity=79 time=0
EXTRACT: note_off channel=0 note=72 velocity=95 time=0.2142855
EXTRACT: note_on channel=0 note=73 velocity=95 time=0
EXTRACT: note_off channel=2 note=67 velocity=79 time=0
EXTRACT: note_off channel=2 note=63 velocity=79 time=0
EXTRACT: note_off channel=2 note=58 velocity=79 time=0
EXTRACT: note_on channel=2 note=58 velocity=79 time=0
EXTRACT: note_off channel=6 note=27 velocity=79 time=0
EXTRACT: note_on channel=6 note=27 velocity=79 time=0
EXTRACT: note_off channel=9 note=47 velocity=79 time=0
EXTRACT: note_off channel=9 note=45 velocity=79 time=0
EXTRACT: note_on channel=9 note=43 velocity=79 time=0
EXTRACT: note_on channel=9 note=35 velocity=79 time=0
EXTRACT: note_off channel=2 note=58 velocity=79 time=0.2142855
EXTRACT: note_on channel=2 note=60 velocity=79 time=0
EXTRACT: note_off channel=0 note=73 velocity=95 time=0.2142855
EXTRACT: note_on channel=0 note=75 velocity=63 time=0
EXTRACT: note_on channel=0 note=72 velocity=95 time=0
EXTRACT: note_off channel=2 note=60 velocity=79 time=0
EXTRACT: note_on channel=2 note=67 velocity=79 time=0
EXTRACT: note_on channel=2 note=63 velocity=79 time=0
EXTRACT: note_on channel=2 note=60 velocity=79 time=0
EXTRACT: note_on channel=2 note=48 velocity=79 time=0
EXTRACT: note_on channel=2 note=43 velocity=79 time=0
EXTRACT: note_off channel=4 note=72 velocity=63 time=0
EXTRACT: note_off channel=4 note=60 velocity=63 time=0
EXTRACT: note_on channel=4 note=60 velocity=63 time=0
EXTRACT: note_on channel=4 note=55 velocity=63 time=0
EXTRACT: note_on channel=4 note=48 velocity=63 time=0
EXTRACT: note_off channel=6 note=27 velocity=79 time=0
EXTRACT: note_on channel=6 note=36 velocity=79 time=0
EXTRACT: note_off channel=9 note=43 velocity=79 time=0
EXTRACT: note_off channel=9 note=35 velocity=79 time=0
EXTRACT: note_on channel=9 note=57 velocity=79 time=0
EXTRACT: note_on channel=9 note=35 velocity=79 time=0
EXTRACT: note_off channel=0 note=75 velocity=63 time=0.428571
EXTRACT: note_off channel=0 note=72 velocity=95 time=0
EXTRACT: note_on channel=0 note=72 velocity=95 time=0
EXTRACT: note_off channel=2 note=67 velocity=79 time=0
EXTRACT: note_off channel=2 note=63 velocity=79 time=0
EXTRACT: note_off channel=2 note=60 velocity=79 time=0
EXTRACT: note_off channel=2 note=48 velocity=79 time=0
EXTRACT: note_off channel=2 note=43 velocity=79 time=0
EXTRACT: note_on channel=2 note=55 velocity=79 time=0
EXTRACT: note_off channel=6 note=36 velocity=79 time=0
EXTRACT: note_on channel=6 note=36 velocity=79 time=0
EXTRACT: note_off channel=9 note=57 velocity=79 time=0
EXTRACT: note_off channel=9 note=35 velocity=79 time=0
EXTRACT: note_on channel=9 note=46 velocity=79 time=0
EXTRACT: note_off channel=0 note=72 velocity=95 time=0.428571
EXTRACT: note_on channel=0 note=72 velocity=95 time=0
EXTRACT: note_off channel=2 note=55 velocity=79 time=0
EXTRACT: note_on channel=2 note=75 velocity=79 time=0
EXTRACT: note_on channel=2 note=72 velocity=79 time=0
EXTRACT: note_on channel=2 note=67 velocity=79 time=0
EXTRACT: note_on channel=2 note=63 velocity=79 time=0
EXTRACT: note_off channel=4 note=60 velocity=63 time=0
EXTRACT: note_off channel=4 note=55 velocity=63 time=0
EXTRACT: note_off channel=4 note=48 velocity=63 time=0
EXTRACT: note_on channel=4 note=63 velocity=63 time=0
EXTRACT: note_off channel=6 note=36 velocity=79 time=0
EXTRACT: note_on channel=6 note=36 velocity=79 time=0
EXTRACT: note_off channel=9 note=46 velocity=79 time=0
EXTRACT: note_on channel=9 note=46 velocity=79 time=0
EXTRACT: note_on channel=9 note=40 velocity=79 time=0
EXTRACT: note_off channel=0 note=72 velocity=95 time=0.428571
EXTRACT: note_on channel=0 note=73 velocity=95 time=0
EXTRACT: note_off channel=2 note=75 velocity=79 time=0
EXTRACT: note_off channel=2 note=72 velocity=79 time=0
EXTRACT: note_off channel=2 note=67 velocity=79 time=0
EXTRACT: note_off channel=2 note=63 velocity=79 time=0
EXTRACT: note_on channel=2 note=60 velocity=79 time=0
EXTRACT: note_off channel=6 note=36 velocity=79 time=0
EXTRACT: note_on channel=6 note=36 velocity=79 time=0
EXTRACT: note_off channel=9 note=46 velocity=79 time=0
EXTRACT: note_off channel=9 note=40 velocity=79 time=0
EXTRACT: note_on channel=9 note=46 velocity=79 time=0
EXTRACT: note_off channel=0 note=73 velocity=95 time=0.428571
EXTRACT: note_on channel=0 note=77 velocity=63 time=0
EXTRACT: note_on channel=0 note=72 velocity=95 time=0
EXTRACT: note_off channel=2 note=60 velocity=79 time=0
EXTRACT: note_on channel=2 note=68 velocity=79 time=0
EXTRACT: note_on channel=2 note=65 velocity=79 time=0
EXTRACT: note_on channel=2 note=60 velocity=79 time=0
EXTRACT: note_on channel=2 note=53 velocity=79 time=0
EXTRACT: note_on channel=2 note=48 velocity=79 time=0
EXTRACT: note_on channel=2 note=41 velocity=79 time=0
EXTRACT: note_off channel=4 note=63 velocity=63 time=0
EXTRACT: note_on channel=4 note=65 velocity=63 time=0
EXTRACT: note_on channel=4 note=60 velocity=63 time=0
EXTRACT: note_on channel=4 note=53 velocity=63 time=0
EXTRACT: note_off channel=6 note=36 velocity=79 time=0
EXTRACT: note_on channel=6 note=29 velocity=79 time=0
EXTRACT: note_off channel=9 note=46 velocity=79 time=0
EXTRACT: note_on channel=9 note=46 velocity=79 time=0
EXTRACT: note_on channel=9 note=35 velocity=79 time=0
EXTRACT: note_off channel=0 note=77 velocity=63 time=0.428571
EXTRACT: note_off channel=0 note=72 velocity=95 time=0
EXTRACT: note_on channel=0 note=72 velocity=95 time=0
EXTRACT: note_off channel=2 note=68 velocity=79 time=0
EXTRACT: note_off channel=2 note=65 velocity=79 time=0
EXTRACT: note_off channel=2 note=60 velocity=79 time=0
EXTRACT: note_off channel=2 note=53 velocity=79 time=0
EXTRACT: note_off channel=2 note=48 velocity=79 time=0
EXTRACT: note_off channel=2 note=41 velocity=79 time=0
EXTRACT: note_on channel=2 note=56 velocity=79 time=0
EXTRACT: note_off channel=6 note=29 velocity=79 time=0
EXTRACT: note_on channel=6 note=29 velocity=79 time=0
EXTRACT: note_off channel=9 note=46 velocity=79 time=0
EXTRACT: note_off channel=9 note=35 velocity=79 time=0
EXTRACT: note_on channel=9 note=46 velocity=79 time=0
EXTRACT: note_off channel=0 note=72 velocity=95 time=0.2142855
EXTRACT: note_on channel=0 note=70 velocity=95 time=0
EXTRACT: note_off channel=0 note=70 velocity=95 time=0.2142855
EXTRACT: note_on channel=0 note=80 velocity=63 time=0
EXTRACT: note_on channel=0 note=72 velocity=95 time=0
EXTRACT: note_off channel=2 note=56 velocity=79 time=0
EXTRACT: note_on channel=2 note=68 velocity=79 time=0
EXTRACT: note_on channel=2 note=65 velocity=79 time=0
EXTRACT: note_on channel=2 note=60 velocity=79 time=0
EXTRACT: note_off channel=6 note=29 velocity=79 time=0
EXTRACT: note_on channel=6 note=29 velocity=79 time=0
EXTRACT: note_off channel=9 note=46 velocity=79 time=0
EXTRACT: note_on channel=9 note=46 velocity=79 time=0
EXTRACT: note_on channel=9 note=40 velocity=79 time=0
EXTRACT: note_off channel=0 note=80 velocity=63 time=0.428571
EXTRACT: note_off channel=0 note=72 velocity=95 time=0
EXTRACT: note_on channel=0 note=72 velocity=95 time=0
EXTRACT: note_off channel=2 note=68 velocity=79 time=0
EXTRACT: note_off channel=2 note=65 velocity=79 time=0
EXTRACT: note_off channel=2 note=60 velocity=79 time=0
EXTRACT: note_on channel=2 note=56 velocity=79 time=0
EXTRACT: note_on channel=2 note=41 velocity=79 time=0
EXTRACT: note_off channel=6 note=29 velocity=79 time=0
EXTRACT: note_on channel=6 note=29 velocity=79 time=0
EXTRACT: note_off channel=9 note=46 velocity=79 time=0
EXTRACT: note_off channel=9 note=40 velocity=79 time=0
EXTRACT: note_on channel=9 note=46 velocity=79 time=0
EXTRACT: note_off channel=0 note=72 velocity=95 time=0.2142855
EXTRACT: note_on channel=0 note=72 velocity=95 time=0
EXTRACT: note_off channel=0 note=72 velocity=95 time=0.2142855
EXTRACT: note_on channel=0 note=79 velocity=63 time=0
EXTRACT: note_off channel=2 note=56 velocity=79 time=0
EXTRACT: note_off channel=2 note=41 velocity=79 time=0
EXTRACT: note_on channel=2 note=70 velocity=79 time=0
EXTRACT: note_on channel=2 note=67 velocity=79 time=0
EXTRACT: note_on channel=2 note=63 velocity=79 time=0
EXTRACT: note_on channel=2 note=51 velocity=79 time=0
EXTRACT: note_on channel=2 note=46 velocity=79 time=0
EXTRACT: note_off channel=4 note=65 velocity=63 time=0
EXTRACT: note_off channel=4 note=60 velocity=63 time=0
EXTRACT: note_off channel=4 note=53 velocity=63 time=0
EXTRACT: note_on channel=4 note=55 velocity=63 time=0
EXTRACT: note_on channel=4 note=58 velocity=63 time=0
EXTRACT: note_on channel=4 note=51 velocity=63 time=0
EXTRACT: note_off channel=6 note=29 velocity=79 time=0
EXTRACT: note_on channel=6 note=27 velocity=79 time=0
EXTRACT: note_off channel=9 note=46 velocity=79 time=0
EXTRACT: note_on channel=9 note=46 velocity=79 time=0
EXTRACT: note_on channel=9 note=35 velocity=79 time=0
EXTRACT: note_off channel=0 note=79 velocity=63 time=0.2142855
EXTRACT: note_on channel=0 note=70 velocity=95 time=0
EXTRACT: note_off channel=2 note=70 velocity=79 time=0.2142855
EXTRACT: note_off channel=2 note=67 velocity=79 time=0
EXTRACT: note_off channel=2 note=63 velocity=79 time=0
EXTRACT: note_off channel=2 note=51 velocity=79 time=0
EXTRACT: note_off channel=2 note=46 velocity=79 time=0
EXTRACT: note_on channel=2 note=63 velocity=79 time=0
EXTRACT: note_off channel=6 note=27 velocity=79 time=0
EXTRACT: note_on channel=6 note=27 velocity=79 time=0
EXTRACT: note_off channel=9 note=46 velocity=79 time=0
EXTRACT: note_off channel=9 note=35 velocity=79 time=0
EXTRACT: note_on channel=9 note=46 velocity=79 time=0
EXTRACT: note_off channel=2 note=63 velocity=79 time=0.428571
EXTRACT: note_on channel=2 note=67 velocity=79 time=0
EXTRACT: note_on channel=2 note=63 velocity=79 time=0
EXTRACT: note_on channel=2 note=58 velocity=79 time=0
EXTRACT: note_off channel=4 note=55 velocity=63 time=0
EXTRACT: note_off channel=4 note=58 velocity=63 time=0
EXTRACT: note_off channel=4 note=51 velocity=63 time=0
EXTRACT: note_on channel=4 note=63 velocity=63 time=0
EXTRACT: note_off channel=6 note=27 velocity=79 time=0
EXTRACT: note_on channel=6 note=27 velocity=79 time=0
EXTRACT: note_off channel=9 note=46 velocity=79 time=0
EXTRACT: note_on channel=9 note=46 velocity=79 time=0
EXTRACT: note_on channel=9 note=40 velocity=79 time=0
EXTRACT: note_off channel=2 note=67 velocity=79 time=0.428571
EXTRACT: note_off channel=2 note=63 velocity=79 time=0
EXTRACT: note_off channel=2 note=58 velocity=79 time=0
EXTRACT: note_on channel=2 note=63 velocity=79 time=0
EXTRACT: note_off channel=6 note=27 velocity=79 time=0
EXTRACT: note_on channel=6 note=27 velocity=79 time=0
EXTRACT: note_off channel=9 note=46 velocity=79 time=0
EXTRACT: note_off channel=9 note=40 velocity=79 time=0
EXTRACT: note_on channel=9 note=46 velocity=79 time=0
EXTRACT: note_off channel=0 note=70 velocity=95 time=0.32142825
EXTRACT: note_on channel=0 note=79 velocity=63 time=0.10714275
EXTRACT: note_off channel=2 note=63 velocity=79 time=0
EXTRACT: note_on channel=2 note=65 velocity=79 time=0
EXTRACT: note_on channel=2 note=58 velocity=79 time=0
EXTRACT: note_on channel=2 note=51 velocity=79 time=0
EXTRACT: note_on channel=2 note=46 velocity=79 time=0
EXTRACT: note_off channel=4 note=63 velocity=63 time=0
EXTRACT: note_on channel=4 note=65 velocity=63 time=0
EXTRACT: note_off channel=6 note=27 velocity=79 time=0
EXTRACT: note_on channel=6 note=27 velocity=79 time=0
EXTRACT: note_off channel=9 note=46 velocity=79 time=0
EXTRACT: note_on channel=9 note=46 velocity=79 time=0
EXTRACT: note_on channel=9 note=35 velocity=79 time=0
EXTRACT: note_off channel=0 note=79 velocity=63 time=0.428571
EXTRACT: note_on channel=0 note=72 velocity=95 time=0
EXTRACT: note_off channel=2 note=65 velocity=79 time=0
EXTRACT: note_off channel=2 note=58 velocity=79 time=0
EXTRACT: note_off channel=2 note=51 velocity=79 time=0
EXTRACT: note_off channel=2 note=46 velocity=79 time=0
EXTRACT: note_on channel=2 note=63 velocity=79 time=0
EXTRACT: note_off channel=6 note=27 velocity=79 time=0
EXTRACT: note_on channel=6 note=27 velocity=79 time=0
EXTRACT: note_off channel=9 note=46 velocity=79 time=0
EXTRACT: note_off channel=9 note=35 velocity=79 time=0
EXTRACT: note_on channel=9 note=46 velocity=79 time=0
EXTRACT: note_off channel=0 note=72 velocity=95 time=0.428571
EXTRACT: note_on channel=0 note=80 velocity=63 time=0
EXTRACT: note_on channel=0 note=72 velocity=95 time=0
EXTRACT: note_off channel=2 note=63 velocity=79 time=0
EXTRACT: note_on channel=2 note=67 velocity=79 time=0
EXTRACT: note_on channel=2 note=63 velocity=79 time=0
EXTRACT: note_on channel=2 note=58 velocity=79 time=0
EXTRACT: note_off channel=4 note=65 velocity=63 time=0
EXTRACT: note_off channel=6 note=27 velocity=79 time=0
EXTRACT: note_on channel=6 note=27 velocity=79 time=0
EXTRACT: note_off channel=9 note=46 velocity=79 time=0
EXTRACT: note_on channel=9 note=46 velocity=79 time=0
EXTRACT: note_on channel=9 note=40 velocity=79 time=0
EXTRACT: note_off channel=0 note=80 velocity=63 time=0.428571
EXTRACT: note_off channel=0 note=72 velocity=95 time=0
EXTRACT: note_on channel=0 note=73 velocity=95 time=0
EXTRACT: note_off channel=2 note=67 velocity=79 time=0
EXTRACT: note_off channel=2 note=63 velocity=79 time=0
EXTRACT: note_off channel=2 note=58 velocity=79 time=0
EXTRACT: note_on channel=2 note=63 velocity=79 time=0
EXTRACT: note_off channel=6 note=27 velocity=79 time=0
EXTRACT: note_on channel=6 note=27 velocity=79 time=0
EXTRACT: note_off channel=9 note=46 velocity=79 time=0
EXTRACT: note_off channel=9 note=40 velocity=79 time=0
EXTRACT: note_on channel=9 note=46 velocity=79 time=0
EXTRACT: note_off channel=0 note=73 velocity=95 time=0.428571
EXTRACT: note_on channel=0 note=80 velocity=63 time=0
EXTRACT: note_on channel=0 note=72 velocity=95 time=0
EXTRACT: note_off channel=2 note=63 velocity=79 time=0
EXTRACT: note_on channel=2 note=67 velocity=79 time=0
EXTRACT: note_on channel=2 note=63 velocity=79 time=0
EXTRACT: note_on channel=2 note=60 velocity=79 time=0
EXTRACT: note_on channel=2 note=48 velocity=79 time=0
EXTRACT: note_on channel=2 note=43 velocity=79 time=0
EXTRACT: note_on channel=4 note=60 velocity=63 time=0
EXTRACT: note_on channel=4 note=55 velocity=63 time=0
EXTRACT: note_on channel=4 note=48 velocity=63 time=0
EXTRACT: note_off channel=6 note=27 velocity=79 time=0
EXTRACT: note_on channel=6 note=36 velocity=79 time=0
EXTRACT: note_off channel=9 note=46 velocity=79 time=0
EXTRACT: note_on channel=9 note=46 velocity=79 time=0
EXTRACT: note_on channel=9 note=35 velocity=79 time=0
EXTRACT: note_off channel=0 note=80 velocity=63 time=0.428571
EXTRACT: note_off channel=0 note=72 velocity=95 time=0
EXTRACT: note_on channel=0 note=72 velocity=95 time=0
EXTRACT: note_off channel=2 note=67 velocity=79 time=0
EXTRACT: note_off channel=2 note=63 velocity=79 time=0
EXTRACT: note_off channel=2 note=60 velocity=79 time=0
EXTRACT: note_off channel=2 note=48 velocity=79 time=0
EXTRACT: note_off channel=2 note=43 velocity=79 time=0
EXTRACT: note_on channel=2 note=60 velocity=79 time=0
EXTRACT: note_off channel=6 note=36 velocity=79 time=0
EXTRACT: note_on channel=6 note=36 velocity=79 time=0
EXTRACT: note_off channel=9 note=46 velocity=79 time=0
EXTRACT: note_off channel=9 note=35 velocity=79 time=0
EXTRACT: note_on channel=9 note=46 velocity=79 time=0
EXTRACT: note_off channel=2 note=60 velocity=79 time=0.2142855
EXTRACT: note_on channel=2 note=55 velocity=79 time=0
EXTRACT: note_off channel=0 note=72 velocity=95 time=0.2142855
EXTRACT: note_on channel=0 note=79 velocity=63 time=0
EXTRACT: note_on channel=0 note=72 velocity=95 time=0
EXTRACT: note_off channel=2 note=55 velocity=79 time=0
EXTRACT: note_on channel=2 note=51 velocity=79 time=0
EXTRACT: note_off channel=4 note=60 velocity=63 time=0
EXTRACT: note_off channel=4 note=55 velocity=63 time=0
EXTRACT: note_off channel=4 note=48 velocity=63 time=0
EXTRACT: note_on channel=4 note=63 velocity=63 time=0
EXTRACT: note_off channel=6 note=36 velocity=79 time=0
EXTRACT: note_on channel=6 note=36 velocity=79 time=0
EXTRACT: note_off channel=9 note=46 velocity=79 time=0
EXTRACT: note_on channel=9 note=46 velocity=79 time=0
EXTRACT: note_on channel=9 note=40 velocity=79 time=0
EXTRACT: note_off channel=2 note=51 velocity=79 time=0.2142855
EXTRACT: note_on channel=2 note=60 velocity=79 time=0
EXTRACT: note_off channel=0 note=79 velocity=63 time=0.2142855
EXTRACT: note_off channel=0 note=72 velocity=95 time=0
EXTRACT: note_on channel=0 note=73 velocity=95 time=0
EXTRACT: note_off channel=2 note=60 velocity=79 time=0
EXTRACT: note_on channel=2 note=63 velocity=79 time=0
EXTRACT: note_off channel=6 note=36 velocity=79 time=0
EXTRACT: note_on channel=6 note=36 velocity=79 time=0
EXTRACT: note_off channel=9 note=46 velocity=79 time=0
EXTRACT: note_off channel=9 note=40 velocity=79 time=0
EXTRACT: note_on channel=9 note=46 velocity=79 time=0
EXTRACT: note_off channel=2 note=63 velocity=79 time=0.2142855
EXTRACT: note_on channel=2 note=67 velocity=79 time=0
EXTRACT: note_off channel=0 note=73 velocity=95 time=0.2142855
EXTRACT: note_on channel=0 note=80 velocity=63 time=0
EXTRACT: note_on channel=0 note=72 velocity=95 time=0
EXTRACT: note_off channel=2 note=67 velocity=79 time=0
EXTRACT: note_on channel=2 note=68 velocity=79 time=0
EXTRACT: note_on channel=2 note=65 velocity=79 time=0
EXTRACT: note_on channel=2 note=60 velocity=79 time=0
EXTRACT: note_on channel=2 note=53 velocity=79 time=0
EXTRACT: note_on channel=2 note=48 velocity=79 time=0
EXTRACT: note_on channel=2 note=41 velocity=79 time=0
EXTRACT: note_off channel=4 note=63 velocity=63 time=0
EXTRACT: note_on channel=4 note=65 velocity=63 time=0
EXTRACT: note_on channel=4 note=60 velocity=63 time=0
EXTRACT: note_on channel=4 note=53 velocity=63 time=0
EXTRACT: note_off channel=6 note=36 velocity=79 time=0
EXTRACT: note_on channel=6 note=29 velocity=79 time=0
EXTRACT: note_off channel=9 note=46 velocity=79 time=0
EXTRACT: note_on channel=9 note=46 velocity=79 time=0
EXTRACT: note_on channel=9 note=35 velocity=79 time=0
EXTRACT: note_off channel=0 note=80 velocity=63 time=0.428571
EXTRACT: note_off channel=0 note=72 velocity=95 time=0
EXTRACT: note_on channel=0 note=72 velocity=95 time=0
EXTRACT: note_off channel=2 note=68 velocity=79 time=0
EXTRACT: note_off channel=2 note=65 velocity=79 time=0
EXTRACT: note_off channel=2 note=60 velocity=79 time=0
EXTRACT: note_off channel=2 note=53 velocity=79 time=0
EXTRACT: note_off channel=2 note=48 velocity=79 time=0
EXTRACT: note_off channel=2 note=41 velocity=79 time=0
EXTRACT: note_on channel=2 note=56 velocity=79 time=0
EXTRACT: note_off channel=6 note=29 velocity=79 time=0
EXTRACT: note_on channel=6 note=29 velocity=79 time=0
EXTRACT: note_off channel=9 note=46 velocity=79 time=0
EXTRACT: note_off channel=9 note=35 velocity=79 time=0
EXTRACT: note_on channel=9 note=46 velocity=79 time=0
EXTRACT: note_off channel=0 note=72 velocity=95 time=0.2142855
EXTRACT: note_on channel=0 note=70 velocity=95 time=0
EXTRACT: note_off channel=0 note=70 velocity=95 time=0.2142855
EXTRACT: note_on channel=0 note=82 velocity=63 time=0
EXTRACT: note_on channel=0 note=72 velocity=95 time=0
EXTRACT: note_off channel=2 note=56 velocity=79 time=0
EXTRACT: note_on channel=2 note=68 velocity=79 time=0
EXTRACT: note_on channel=2 note=65 velocity=79 time=0
EXTRACT: note_on channel=2 note=60 velocity=79 time=0
EXTRACT: note_off channel=6 note=29 velocity=79 time=0
EXTRACT: note_on channel=6 note=29 velocity=79 time=0
EXTRACT: note_off channel=9 note=46 velocity=79 time=0
EXTRACT: note_on channel=9 note=46 velocity=79 time=0
EXTRACT: note_on channel=9 note=40 velocity=79 time=0
EXTRACT: note_off channel=0 note=82 velocity=63 time=0.428571
EXTRACT: note_off channel=0 note=72 velocity=95 time=0
EXTRACT: note_on channel=0 note=70 velocity=95 time=0
EXTRACT: note_off channel=2 note=68 velocity=79 time=0
EXTRACT: note_off channel=2 note=65 velocity=79 time=0
EXTRACT: note_off channel=2 note=60 velocity=79 time=0
EXTRACT: note_on channel=2 note=75 velocity=79 time=0
EXTRACT: note_on channel=2 note=72 velocity=79 time=0
EXTRACT: note_on channel=2 note=67 velocity=79 time=0
EXTRACT: note_on channel=2 note=41 velocity=79 time=0
EXTRACT: note_off channel=6 note=29 velocity=79 time=0
EXTRACT: note_on channel=6 note=29 velocity=79 time=0
EXTRACT: note_off channel=9 note=46 velocity=79 time=0
EXTRACT: note_off channel=9 note=40 velocity=79 time=0
EXTRACT: note_on channel=9 note=46 velocity=79 time=0
EXTRACT: note_off channel=0 note=70 velocity=95 time=0.2142855
EXTRACT: note_on channel=0 note=72 velocity=95 time=0
EXTRACT: note_off channel=0 note=72 velocity=95 time=0.2142855
EXTRACT: note_on channel=0 note=80 velocity=63 time=0
EXTRACT: note_off channel=2 note=75 velocity=79 time=0
EXTRACT: note_off channel=2 note=72 velocity=79 time=0
EXTRACT: note_off channel=2 note=67 velocity=79 time=0
EXTRACT: note_off channel=2 note=41 velocity=79 time=0
EXTRACT: note_on channel=2 note=72 velocity=79 time=0
EXTRACT: note_on channel=2 note=67 velocity=79 time=0
EXTRACT: note_on channel=2 note=63 velocity=79 time=0
EXTRACT: note_on channel=2 note=51 velocity=79 time=0
EXTRACT: note_on channel=2 note=46 velocity=79 time=0
EXTRACT: note_off channel=4 note=65 velocity=63 time=0
EXTRACT: note_off channel=4 note=60 velocity=63 time=0
EXTRACT: note_off channel=4 note=53 velocity=63 time=0
EXTRACT: note_on channel=4 note=63 velocity=63 time=0
EXTRACT: note_on channel=4 note=58 velocity=63 time=0
EXTRACT: note_on channel=4 note=51 velocity=63 time=0
EXTRACT: note_off channel=6 note=29 velocity=79 time=0
EXTRACT: note_on channel=6 note=27 velocity=79 time=0
EXTRACT: note_off channel=9 note=46 velocity=79 time=0
EXTRACT: note_on channel=9 note=46 velocity=79 time=0
EXTRACT: note_on channel=9 note=35 velocity=79 time=0
EXTRACT: note_off channel=0 note=80 velocity=63 time=0.2142855
EXTRACT: note_on channel=0 note=75 velocity=95 time=0
EXTRACT: note_off channel=2 note=72 velocity=79 time=0.2142855
EXTRACT: note_off channel=2 note=67 velocity=79 time=0
EXTRACT: note_off channel=2 note=63 velocity=79 time=0
EXTRACT: note_off channel=2 note=51 velocity=79 time=0
EXTRACT: note_off channel=2 note=46 velocity=79 time=0
EXTRACT: note_on channel=2 note=58 velocity=79 time=0
EXTRACT: note_off channel=6 note=27 velocity=79 time=0
EXTRACT: note_on channel=6 note=27 velocity=79 time=0
EXTRACT: note_off channel=9 note=46 velocity=79 time=0
EXTRACT: note_off channel=9 note=35 velocity=79 time=0
EXTRACT: note_on channel=9 note=46 velocity=79 time=0
EXTRACT: note_off channel=0 note=75 velocity=95 time=0.2142855
EXTRACT: note_on channel=0 note=75 velocity=95 time=0
EXTRACT: note_off channel=2 note=58 velocity=79 time=0.2142855
EXTRACT: note_on channel=2 note=70 velocity=79 time=0
EXTRACT: note_on channel=2 note=67 velocity=79 time=0
EXTRACT: note_on channel=2 note=63 velocity=79 time=0
EXTRACT: note_off channel=6 note=27 velocity=79 time=0
EXTRACT: note_on channel=6 note=27 velocity=79 time=0
EXTRACT: note_off channel=9 note=46 velocity=79 time=0
EXTRACT: note_on channel=9 note=46 velocity=79 time=0
EXTRACT: note_on channel=9 note=40 velocity=79 time=0
EXTRACT: note_off channel=0 note=75 velocity=95 time=0.428571
EXTRACT: note_on channel=0 note=82 velocity=63 time=0
EXTRACT: note_off channel=2 note=70 velocity=79 time=0
EXTRACT: note_off channel=2 note=67 velocity=79 time=0
EXTRACT: note_off channel=2 note=63 velocity=79 time=0
EXTRACT: note_on channel=2 note=58 velocity=79 time=0
EXTRACT: note_off channel=6 note=27 velocity=79 time=0
EXTRACT: note_on channel=6 note=27 velocity=79 time=0
EXTRACT: note_off channel=9 note=46 velocity=79 time=0
EXTRACT: note_off channel=9 note=40 velocity=79 time=0
EXTRACT: note_on channel=9 note=46 velocity=79 time=0
EXTRACT: note_off channel=2 note=58 velocity=79 time=0.428571
EXTRACT: note_on channel=2 note=68 velocity=79 time=0
EXTRACT: note_on channel=2 note=63 velocity=79 time=0
EXTRACT: note_on channel=2 note=58 velocity=79 time=0
EXTRACT: note_on channel=2 note=51 velocity=79 time=0
EXTRACT: note_on channel=2 note=46 velocity=79 time=0
EXTRACT: note_off channel=6 note=27 velocity=79 time=0
EXTRACT: note_on channel=6 note=27 velocity=79 time=0
EXTRACT: note_off channel=9 note=46 velocity=79 time=0
EXTRACT: note_on channel=9 note=46 velocity=79 time=0
EXTRACT: note_on channel=9 note=35 velocity=79 time=0
EXTRACT: note_off channel=0 note=82 velocity=63 time=0.428571
EXTRACT: note_on channel=0 note=80 velocity=63 time=0
EXTRACT: note_on channel=0 note=72 velocity=95 time=0
EXTRACT: note_off channel=2 note=68 velocity=79 time=0
EXTRACT: note_off channel=2 note=63 velocity=79 time=0
EXTRACT: note_off channel=2 note=58 velocity=79 time=0
EXTRACT: note_off channel=2 note=51 velocity=79 time=0
EXTRACT: note_off channel=2 note=46 velocity=79 time=0
EXTRACT: note_on channel=2 note=68 velocity=79 time=0
EXTRACT: note_off channel=6 note=27 velocity=79 time=0
EXTRACT: note_on channel=6 note=27 velocity=79 time=0
EXTRACT: note_off channel=9 note=46 velocity=79 time=0
EXTRACT: note_off channel=9 note=35 velocity=79 time=0
EXTRACT: note_on channel=9 note=46 velocity=79 time=0
EXTRACT: note_off channel=2 note=68 velocity=79 time=0.2142855
EXTRACT: note_on channel=2 note=70 velocity=79 time=0
EXTRACT: note_off channel=0 note=80 velocity=63 time=0.2142855
EXTRACT: note_off channel=0 note=72 velocity=95 time=0
EXTRACT: note_on channel=0 note=79 velocity=63 time=0
EXTRACT: note_on channel=0 note=72 velocity=95 time=0
EXTRACT: note_off channel=2 note=70 velocity=79 time=0
EXTRACT: note_on channel=2 note=67 velocity=79 time=0
EXTRACT: note_off channel=6 note=27 velocity=79 time=0
EXTRACT: note_on channel=6 note=27 velocity=79 time=0
EXTRACT: note_off channel=9 note=46 velocity=79 time=0
EXTRACT: note_on channel=9 note=46 velocity=79 time=0
EXTRACT: note_on channel=9 note=40 velocity=79 time=0
EXTRACT: note_off channel=2 note=67 velocity=79 time=0.2142855
EXTRACT: note_on channel=2 note=63 velocity=79 time=0
EXTRACT: note_off channel=0 note=79 velocity=63 time=0.2142855
EXTRACT: note_off channel=0 note=72 velocity=95 time=0
EXTRACT: note_on channel=0 note=80 velocity=63 time=0
EXTRACT: note_on channel=0 note=73 velocity=95 time=0
EXTRACT: note_off channel=2 note=63 velocity=79 time=0
EXTRACT: note_on channel=2 note=68 velocity=79 time=0
EXTRACT: note_off channel=6 note=27 velocity=79 time=0
EXTRACT: note_on channel=6 note=27 velocity=79 time=0
EXTRACT: note_off channel=9 note=46 velocity=79 time=0
EXTRACT: note_off channel=9 note=40 velocity=79 time=0
EXTRACT: note_on channel=9 note=46 velocity=79 time=0
EXTRACT: note_off channel=2 note=68 velocity=79 time=0.2142855
EXTRACT: note_on channel=2 note=70 velocity=79 time=0
EXTRACT: note_off channel=0 note=80 velocity=63 time=0.2142855
EXTRACT: note_off channel=0 note=73 velocity=95 time=0
EXTRACT: note_on channel=0 note=79 velocity=63 time=0
EXTRACT: note_on channel=0 note=72 velocity=95 time=0
EXTRACT: note_off channel=2 note=70 velocity=79 time=0
EXTRACT: note_on channel=2 note=67 velocity=79 time=0
EXTRACT: note_on channel=2 note=63 velocity=79 time=0
EXTRACT: note_on channel=2 note=60 velocity=79 time=0
EXTRACT: note_on channel=2 note=48 velocity=79 time=0
EXTRACT: note_on channel=2 note=43 velocity=79 time=0
EXTRACT: note_off channel=4 note=63 velocity=63 time=0
EXTRACT: note_off channel=4 note=58 velocity=63 time=0
EXTRACT: note_off channel=4 note=51 velocity=63 time=0
EXTRACT: note_on channel=4 note=67 velocity=63 time=0
EXTRACT: note_on channel=4 note=60 velocity=63 time=0
EXTRACT: note_on channel=4 note=55 velocity=63 time=0
EXTRACT: note_off channel=6 note=27 velocity=79 time=0
EXTRACT: note_on channel=6 note=36 velocity=79 time=0
EXTRACT: note_off channel=9 note=46 velocity=79 time=0
EXTRACT: note_on channel=9 note=49 velocity=79 time=0
EXTRACT: note_on channel=9 note=35 velocity=79 time=0
EXTRACT: note_off channel=0 note=79 velocity=63 time=0.428571
EXTRACT: note_off channel=0 note=72 velocity=95 time=0
EXTRACT: note_on channel=0 note=72 velocity=95 time=0
EXTRACT: note_off channel=2 note=67 velocity=79 time=0
EXTRACT: note_off channel=2 note=63 velocity=79 time=0
EXTRACT: note_off channel=2 note=60 velocity=79 time=0
EXTRACT: note_off channel=2 note=48 velocity=79 time=0
EXTRACT: note_off channel=2 note=43 velocity=79 time=0
EXTRACT: note_on channel=2 note=67 velocity=79 time=0
EXTRACT: note_off channel=6 note=36 velocity=79 time=0
EXTRACT: note_on channel=6 note=36 velocity=79 time=0
EXTRACT: note_off channel=9 note=49 velocity=79 time=0
EXTRACT: note_off channel=9 note=35 velocity=79 time=0
EXTRACT: note_on channel=9 note=46 velocity=79 time=0
EXTRACT: note_off channel=2 note=67 velocity=79 time=0.2142855
EXTRACT: note_on channel=2 note=75 velocity=79 time=0
EXTRACT: note_off channel=0 note=72 velocity=95 time=0.2142855
EXTRACT: note_on channel=0 note=79 velocity=63 time=0
EXTRACT: note_on channel=0 note=72 velocity=95 time=0
EXTRACT: note_off channel=2 note=75 velocity=79 time=0
EXTRACT: note_on channel=2 note=75 velocity=79 time=0
EXTRACT: note_on channel=2 note=72 velocity=79 time=0
EXTRACT: note_on channel=2 note=67 velocity=79 time=0
EXTRACT: note_off channel=4 note=67 velocity=63 time=0
EXTRACT: note_off channel=4 note=60 velocity=63 time=0
EXTRACT: note_off channel=4 note=55 velocity=63 time=0
EXTRACT: note_on channel=4 note=79 velocity=63 time=0
EXTRACT: note_on channel=4 note=72 velocity=63 time=0
EXTRACT: note_off channel=6 note=36 velocity=79 time=0
EXTRACT: note_on channel=6 note=36 velocity=79 time=0
EXTRACT: note_off channel=9 note=46 velocity=79 time=0
EXTRACT: note_on channel=9 note=46 velocity=79 time=0
EXTRACT: note_on channel=9 note=40 velocity=79 time=0
EXTRACT: note_off channel=0 note=79 velocity=63 time=0.2142855
EXTRACT: note_off channel=0 note=72 velocity=95 time=0
EXTRACT: note_on channel=0 note=72 velocity=95 time=0
EXTRACT: note_off channel=0 note=72 velocity=95 time=0.2142855
EXTRACT: note_on channel=0 note=73 velocity=95 time=0
EXTRACT: note_off channel=2 note=75 velocity=79 time=0
EXTRACT: note_off channel=2 note=72 velocity=79 time=0
EXTRACT: note_off channel=2 note=67 velocity=79 time=0
EXTRACT: note_on channel=2 note=63 velocity=79 time=0
EXTRACT: note_off channel=6 note=36 velocity=79 time=0
EXTRACT: note_on channel=6 note=36 velocity=79 time=0
EXTRACT: note_off channel=9 note=46 velocity=79 time=0
EXTRACT: note_off channel=9 note=40 velocity=79 time=0
EXTRACT: note_on channel=9 note=46 velocity=79 time=0
EXTRACT: note_off channel=0 note=73 velocity=95 time=0.428571
EXTRACT: note_on channel=0 note=80 velocity=63 time=0
EXTRACT: note_on channel=0 note=72 velocity=95 time=0
EXTRACT: note_off channel=2 note=63 velocity=79 time=0
EXTRACT: note_on channel=2 note=68 velocity=79 time=0
EXTRACT: note_on channel=2 note=65 velocity=79 time=0
EXTRACT: note_on channel=2 note=60 velocity=79 time=0
EXTRACT: note_on channel=2 note=53 velocity=79 time=0
EXTRACT: note_on channel=2 note=48 velocity=79 time=0
EXTRACT: note_on channel=2 note=41 velocity=79 time=0
EXTRACT: note_off channel=4 note=79 velocity=63 time=0
EXTRACT: note_off channel=4 note=72 velocity=63 time=0
EXTRACT: note_on channel=4 note=77 velocity=63 time=0
EXTRACT: note_on channel=4 note=68 velocity=63 time=0
EXTRACT: note_on channel=4 note=60 velocity=63 time=0
EXTRACT: note_on channel=4 note=53 velocity=63 time=0
EXTRACT: note_off channel=6 note=36 velocity=79 time=0
EXTRACT: note_on channel=6 note=29 velocity=79 time=0
EXTRACT: note_off channel=9 note=46 velocity=79 time=0
EXTRACT: note_on channel=9 note=46 velocity=79 time=0
EXTRACT: note_on channel=9 note=35 velocity=79 time=0
EXTRACT: note_off channel=0 note=80 velocity=63 time=0.428571
EXTRACT: note_off channel=0 note=72 velocity=95 time=0
EXTRACT: note_on channel=0 note=72 velocity=95 time=0
EXTRACT: note_off channel=2 note=68 velocity=79 time=0
EXTRACT: note_off channel=2 note=65 velocity=79 time=0
EXTRACT: note_off channel=2 note=60 velocity=79 time=0
EXTRACT: note_off channel=2 note=53 velocity=79 time=0
EXTRACT: note_off channel=2 note=48 velocity=79 time=0
EXTRACT: note_off channel=2 note=41 velocity=79 time=0
EXTRACT: note_on channel=2 note=56 velocity=79 time=0
EXTRACT: note_off channel=6 note=29 velocity=79 time=0
EXTRACT: note_on channel=6 note=29 velocity=79 time=0
EXTRACT: note_off channel=9 note=46 velocity=79 time=0
EXTRACT: note_off channel=9 note=35 velocity=79 time=0
EXTRACT: note_on channel=9 note=46 velocity=79 time=0
EXTRACT: note_off channel=0 note=72 velocity=95 time=0.428571
EXTRACT: note_on channel=0 note=82 velocity=63 time=0
EXTRACT: note_on channel=0 note=72 velocity=95 time=0
EXTRACT: note_off channel=2 note=56 velocity=79 time=0
EXTRACT: note_on channel=2 note=68 velocity=79 time=0
EXTRACT: note_on channel=2 note=65 velocity=79 time=0
EXTRACT: note_on channel=2 note=60 velocity=79 time=0
EXTRACT: note_off channel=4 note=77 velocity=63 time=0
EXTRACT: note_off channel=4 note=68 velocity=63 time=0
EXTRACT: note_off channel=4 note=60 velocity=63 time=0
EXTRACT: note_off channel=4 note=53 velocity=63 time=0
EXTRACT: note_on channel=4 note=72 velocity=63 time=0
EXTRACT: note_on channel=4 note=65 velocity=63 time=0
EXTRACT: note_off channel=6 note=29 velocity=79 time=0
EXTRACT: note_on channel=6 note=29 velocity=79 time=0
EXTRACT: note_off channel=9 note=46 velocity=79 time=0
EXTRACT: note_on channel=9 note=46 velocity=79 time=0
EXTRACT: note_on channel=9 note=40 velocity=79 time=0
EXTRACT: note_off channel=0 note=82 velocity=63 time=0.428571
EXTRACT: note_off channel=0 note=72 velocity=95 time=0
EXTRACT: note_on channel=0 note=73 velocity=95 time=0
EXTRACT: note_off channel=2 note=68 velocity=79 time=0
EXTRACT: note_off channel=2 note=65 velocity=79 time=0
EXTRACT: note_off channel=2 note=60 velocity=79 time=0
EXTRACT: note_on channel=2 note=56 velocity=79 time=0
EXTRACT: note_on channel=2 note=41 velocity=79 time=0
EXTRACT: note_off channel=6 note=29 velocity=79 time=0
EXTRACT: note_on channel=6 note=29 velocity=79 time=0
EXTRACT: note_off channel=9 note=46 velocity=79 time=0
EXTRACT: note_off channel=9 note=40 velocity=79 time=0
EXTRACT: note_on channel=9 note=46 velocity=79 time=0
EXTRACT: note_off channel=0 note=73 velocity=95 time=0.428571
EXTRACT: note_on channel=0 note=82 velocity=63 time=0
EXTRACT: note_on channel=0 note=72 velocity=95 time=0
EXTRACT: note_off channel=2 note=56 velocity=79 time=0
EXTRACT: note_off channel=2 note=41 velocity=79 time=0
EXTRACT: note_on channel=2 note=70 velocity=79 time=0
EXTRACT: note_on channel=2 note=67 velocity=79 time=0
EXTRACT: note_on channel=2 note=63 velocity=79 time=0
EXTRACT: note_on channel=2 note=51 velocity=79 time=0
EXTRACT: note_on channel=2 note=46 velocity=79 time=0
EXTRACT: note_off channel=4 note=72 velocity=63 time=0
EXTRACT: note_off channel=4 note=65 velocity=63 time=0
EXTRACT: note_on channel=4 note=70 velocity=63 time=0
EXTRACT: note_on channel=4 note=63 velocity=63 time=0
EXTRACT: note_on channel=4 note=58 velocity=63 time=0
EXTRACT: note_on channel=4 note=51 velocity=63 time=0
EXTRACT: note_off channel=6 note=29 velocity=79 time=0
EXTRACT: note_on channel=6 note=27 velocity=79 time=0
EXTRACT: note_off channel=9 note=46 velocity=79 time=0
EXTRACT: note_on channel=9 note=46 velocity=79 time=0
EXTRACT: note_on channel=9 note=35 velocity=79 time=0
EXTRACT: note_off channel=0 note=82 velocity=63 time=0.428571
EXTRACT: note_off channel=0 note=72 velocity=95 time=0
EXTRACT: note_on channel=0 note=70 velocity=95 time=0
EXTRACT: note_off channel=2 note=70 velocity=79 time=0
EXTRACT: note_off channel=2 note=67 velocity=79 time=0
EXTRACT: note_off channel=2 note=63 velocity=79 time=0
EXTRACT: note_off channel=2 note=51 velocity=79 time=0
EXTRACT: note_off channel=2 note=46 velocity=79 time=0
EXTRACT: note_on channel=2 note=58 velocity=79 time=0
EXTRACT: note_off channel=6 note=27 velocity=79 time=0
EXTRACT: note_on channel=6 note=27 velocity=79 time=0
EXTRACT: note_off channel=9 note=46 velocity=79 time=0
EXTRACT: note_off channel=9 note=35 velocity=79 time=0
EXTRACT: note_on channel=9 note=46 velocity=79 time=0
EXTRACT: note_off channel=2 note=58 velocity=79 time=0.428571
EXTRACT: note_on channel=2 note=75 velocity=79 time=0
EXTRACT: note_on channel=2 note=70 velocity=79 time=0
EXTRACT: note_on channel=2 note=67 velocity=79 time=0
EXTRACT: note_off channel=6 note=27 velocity=79 time=0
EXTRACT: note_on channel=6 note=27 velocity=79 time=0
EXTRACT: note_off channel=9 note=46 velocity=79 time=0
EXTRACT: note_on channel=9 note=46 velocity=79 time=0
EXTRACT: note_on channel=9 note=40 velocity=79 time=0
EXTRACT: note_off channel=2 note=75 velocity=79 time=0.428571
EXTRACT: note_off channel=2 note=70 velocity=79 time=0
EXTRACT: note_off channel=2 note=67 velocity=79 time=0
EXTRACT: note_on channel=2 note=58 velocity=79 time=0
EXTRACT: note_off channel=6 note=27 velocity=79 time=0
EXTRACT: note_on channel=6 note=27 velocity=79 time=0
EXTRACT: note_off channel=9 note=46 velocity=79 time=0
EXTRACT: note_off channel=9 note=40 velocity=79 time=0
EXTRACT: note_on channel=9 note=46 velocity=79 time=0
EXTRACT: note_off channel=0 note=70 velocity=95 time=0.32142825
EXTRACT: note_on channel=0 note=79 velocity=63 time=0.10714275
EXTRACT: note_off channel=2 note=58 velocity=79 time=0
EXTRACT: note_on channel=2 note=70 velocity=79 time=0
EXTRACT: note_on channel=2 note=67 velocity=79 time=0
EXTRACT: note_on channel=2 note=63 velocity=79 time=0
EXTRACT: note_on channel=2 note=51 velocity=79 time=0
EXTRACT: note_on channel=2 note=46 velocity=79 time=0
EXTRACT: note_off channel=4 note=70 velocity=63 time=0
EXTRACT: note_off channel=4 note=63 velocity=63 time=0
EXTRACT: note_off channel=4 note=58 velocity=63 time=0
EXTRACT: note_off channel=4 note=51 velocity=63 time=0
EXTRACT: note_on channel=4 note=72 velocity=63 time=0
EXTRACT: note_on channel=4 note=67 velocity=63 time=0
EXTRACT: note_off channel=6 note=27 velocity=79 time=0
EXTRACT: note_on channel=6 note=27 velocity=79 time=0
EXTRACT: note_off channel=9 note=46 velocity=79 time=0
EXTRACT: note_on channel=9 note=46 velocity=79 time=0
EXTRACT: note_on channel=9 note=35 velocity=79 time=0
EXTRACT: note_off channel=0 note=79 velocity=63 time=0.428571
EXTRACT: note_on channel=0 note=84 velocity=79 time=0
EXTRACT: note_off channel=2 note=70 velocity=79 time=0
EXTRACT: note_off channel=2 note=67 velocity=79 time=0
EXTRACT: note_off channel=2 note=63 velocity=79 time=0
EXTRACT: note_off channel=2 note=51 velocity=79 time=0
EXTRACT: note_off channel=2 note=46 velocity=79 time=0
EXTRACT: note_on channel=2 note=58 velocity=79 time=0
EXTRACT: note_off channel=6 note=27 velocity=79 time=0
EXTRACT: note_on channel=6 note=27 velocity=79 time=0
EXTRACT: note_off channel=9 note=46 velocity=79 time=0
EXTRACT: note_off channel=9 note=35 velocity=79 time=0
EXTRACT: note_on channel=9 note=46 velocity=79 time=0
EXTRACT: note_off channel=0 note=84 velocity=79 time=0.428571
EXTRACT: note_on channel=0 note=84 velocity=79 time=0
EXTRACT: note_off channel=2 note=58 velocity=79 time=0
EXTRACT: note_on channel=2 note=68 velocity=79 time=0
EXTRACT: note_on channel=2 note=63 velocity=79 time=0
EXTRACT: note_off channel=4 note=72 velocity=63 time=0
EXTRACT: note_off channel=4 note=67 velocity=63 time=0
EXTRACT: note_on channel=4 note=75 velocity=63 time=0
EXTRACT: note_on channel=4 note=70 velocity=63 time=0
EXTRACT: note_off channel=6 note=27 velocity=79 time=0
EXTRACT: note_on channel=6 note=27 velocity=79 time=0
EXTRACT: note_off channel=9 note=46 velocity=79 time=0
EXTRACT: note_on channel=9 note=46 velocity=79 time=0
EXTRACT: note_on channel=9 note=40 velocity=79 time=0
EXTRACT: note_off channel=0 note=84 velocity=79 time=0.428571
EXTRACT: note_on channel=0 note=85 velocity=79 time=0
EXTRACT: note_off channel=2 note=68 velocity=79 time=0
EXTRACT: note_off channel=2 note=63 velocity=79 time=0
EXTRACT: note_on channel=2 note=58 velocity=79 time=0
EXTRACT: note_off channel=4 note=75 velocity=63 time=0
EXTRACT: note_off channel=4 note=70 velocity=63 time=0
EXTRACT: note_on channel=4 note=77 velocity=63 time=0
EXTRACT: note_on channel=4 note=72 velocity=63 time=0
EXTRACT: note_off channel=6 note=27 velocity=79 time=0
EXTRACT: note_on channel=6 note=27 velocity=79 time=0
EXTRACT: note_off channel=9 note=46 velocity=79 time=0
EXTRACT: note_off channel=9 note=40 velocity=79 time=0
EXTRACT: note_on channel=9 note=46 velocity=79 time=0
EXTRACT: note_off channel=0 note=85 velocity=79 time=0.428571
EXTRACT: note_on channel=0 note=84 velocity=79 time=0
EXTRACT: note_on channel=0 note=72 velocity=63 time=0
EXTRACT: note_off channel=2 note=58 velocity=79 time=0
EXTRACT: note_on channel=2 note=72 velocity=79 time=0
EXTRACT: note_on channel=2 note=67 velocity=79 time=0
EXTRACT: note_on channel=2 note=63 velocity=79 time=0
EXTRACT: note_on channel=2 note=60 velocity=79 time=0
EXTRACT: note_on channel=2 note=55 velocity=79 time=0
EXTRACT: note_on channel=2 note=48 velocity=79 time=0
EXTRACT: note_off channel=4 note=77 velocity=63 time=0
EXTRACT: note_off channel=4 note=72 velocity=63 time=0
EXTRACT: note_on channel=4 note=75 velocity=63 time=0
EXTRACT: note_on channel=4 note=72 velocity=63 time=0
EXTRACT: note_on channel=4 note=67 velocity=63 time=0
EXTRACT: note_on channel=4 note=60 velocity=63 time=0
EXTRACT: note_on channel=4 note=55 velocity=63 time=0
EXTRACT: note_off channel=6 note=27 velocity=79 time=0
EXTRACT: note_on channel=6 note=36 velocity=79 time=0
EXTRACT: note_off channel=9 note=46 velocity=79 time=0
EXTRACT: note_on channel=9 note=57 velocity=79 time=0
EXTRACT: note_on channel=9 note=35 velocity=79 time=0
EXTRACT: note_off channel=0 note=84 velocity=79 time=0.428571
EXTRACT: note_off channel=0 note=72 velocity=63 time=0
EXTRACT: note_on channel=0 note=84 velocity=79 time=0
EXTRACT: note_on channel=0 note=72 velocity=63 time=0
EXTRACT: note_off channel=2 note=72 velocity=79 time=0
EXTRACT: note_off channel=2 note=67 velocity=79 time=0
EXTRACT: note_off channel=2 note=63 velocity=79 time=0
EXTRACT: note_off channel=2 note=60 velocity=79 time=0
EXTRACT: note_off channel=2 note=55 velocity=79 time=0
EXTRACT: note_off channel=2 note=48 velocity=79 time=0
EXTRACT: note_on channel=2 note=55 velocity=79 time=0
EXTRACT: note_off channel=6 note=36 velocity=79 time=0
EXTRACT: note_on channel=6 note=36 velocity=79 time=0
EXTRACT: note_off channel=9 note=57 velocity=79 time=0
EXTRACT: note_off channel=9 note=35 velocity=79 time=0
EXTRACT: note_on channel=9 note=46 velocity=79 time=0
EXTRACT: note_off channel=0 note=84 velocity=79 time=0.2142855
EXTRACT: note_off channel=0 note=72 velocity=63 time=0
EXTRACT: note_on channel=0 note=82 velocity=79 time=0
EXTRACT: note_on channel=0 note=70 velocity=63 time=0
EXTRACT: note_off channel=0 note=82 velocity=79 time=0.2142855
EXTRACT: note_off channel=0 note=70 velocity=63 time=0
EXTRACT: note_on channel=0 note=84 velocity=79 time=0
EXTRACT: note_on channel=0 note=72 velocity=63 time=0
EXTRACT: note_off channel=2 note=55 velocity=79 time=0
EXTRACT: note_on channel=2 note=72 velocity=79 time=0
EXTRACT: note_on channel=2 note=67 velocity=79 time=0
EXTRACT: note_on channel=2 note=63 velocity=79 time=0
EXTRACT: note_on channel=2 note=60 velocity=79 time=0
EXTRACT: note_off channel=4 note=75 velocity=63 time=0
EXTRACT: note_off channel=4 note=72 velocity=63 time=0
EXTRACT: note_off channel=4 note=67 velocity=63 time=0
EXTRACT: note_off channel=4 note=60 velocity=63 time=0
EXTRACT: note_off channel=4 note=55 velocity=63 time=0
EXTRACT: note_on channel=4 note=77 velocity=63 time=0
EXTRACT: note_off channel=6 note=36 velocity=79 time=0
EXTRACT: note_on channel=6 note=36 velocity=79 time=0
EXTRACT: note_off channel=9 note=46 velocity=79 time=0
EXTRACT: note_on channel=9 note=46 velocity=79 time=0
EXTRACT: note_on channel=9 note=40 velocity=79 time=0
EXTRACT: note_off channel=0 note=84 velocity=79 time=0.2142855
EXTRACT: note_off channel=0 note=72 velocity=63 time=0
EXTRACT: note_on channel=0 note=82 velocity=79 time=0
EXTRACT: note_on channel=0 note=70 velocity=63 time=0
EXTRACT: note_off channel=0 note=82 velocity=79 time=0.2142855
EXTRACT: note_off channel=0 note=70 velocity=63 time=0
EXTRACT: note_on channel=0 note=84 velocity=79 time=0
EXTRACT: note_on channel=0 note=72 velocity=63 time=0
EXTRACT: note_off channel=2 note=72 velocity=79 time=0
EXTRACT: note_off channel=2 note=67 velocity=79 time=0
EXTRACT: note_off channel=2 note=63 velocity=79 time=0
EXTRACT: note_off channel=2 note=60 velocity=79 time=0
EXTRACT: note_on channel=2 note=55 velocity=79 time=0
EXTRACT: note_off channel=4 note=77 velocity=63 time=0
EXTRACT: note_on channel=4 note=79 velocity=63 time=0
EXTRACT: note_on channel=4 note=75 velocity=63 time=0
EXTRACT: note_off channel=6 note=36 velocity=79 time=0
EXTRACT: note_on channel=6 note=36 velocity=79 time=0
EXTRACT: note_off channel=9 note=46 velocity=79 time=0
EXTRACT: note_off channel=9 note=40 velocity=79 time=0
EXTRACT: note_on channel=9 note=46 velocity=79 time=0
EXTRACT: note_off channel=0 note=84 velocity=79 time=0.2142855
EXTRACT: note_off channel=0 note=72 velocity=63 time=0
EXTRACT: note_on channel=0 note=82 velocity=79 time=0
EXTRACT: note_on channel=0 note=70 velocity=63 time=0
EXTRACT: note_off channel=0 note=82 velocity=79 time=0.2142855
EXTRACT: note_off channel=0 note=70 velocity=63 time=0
EXTRACT: note_on channel=0 note=84 velocity=79 time=0
EXTRACT: note_on channel=0 note=72 velocity=63 time=0
EXTRACT: note_off channel=2 note=55 velocity=79 time=0
EXTRACT: note_on channel=2 note=72 velocity=79 time=0
EXTRACT: note_on channel=2 note=68 velocity=79 time=0
EXTRACT: note_on channel=2 note=65 velocity=79 time=0
EXTRACT: note_on channel=2 note=60 velocity=79 time=0
EXTRACT: note_on channel=2 note=53 velocity=79 time=0
EXTRACT: note_on channel=2 note=48 velocity=79 time=0
EXTRACT: note_off channel=4 note=79 velocity=63 time=0
EXTRACT: note_off channel=4 note=75 velocity=63 time=0
EXTRACT: note_on channel=4 note=77 velocity=63 time=0
EXTRACT: note_on channel=4 note=72 velocity=63 time=0
EXTRACT: note_on channel=4 note=65 velocity=63 time=0
EXTRACT: note_on channel=4 note=60 velocity=63 time=0
EXTRACT: note_off channel=6 note=36 velocity=79 time=0
EXTRACT: note_on channel=6 note=29 velocity=79 time=0
EXTRACT: note_off channel=9 note=46 velocity=79 time=0
EXTRACT: note_on channel=9 note=46 velocity=79 time=0
EXTRACT: note_on channel=9 note=35 velocity=79 time=0
EXTRACT: note_off channel=2 note=72 velocity=79 time=0.428571
EXTRACT: note_off channel=2 note=68 velocity=79 time=0
EXTRACT: note_off channel=2 note=65 velocity=79 time=0
EXTRACT: note_off channel=2 note=60 velocity=79 time=0
EXTRACT: note_off channel=2 note=53 velocity=79 time=0
EXTRACT: note_off channel=2 note=48 velocity=79 time=0
EXTRACT: note_on channel=2 note=56 velocity=79 time=0
EXTRACT: note_off channel=6 note=29 velocity=79 time=0
EXTRACT: note_on channel=6 note=29 velocity=79 time=0
EXTRACT: note_off channel=9 note=46 velocity=79 time=0
EXTRACT: note_off channel=9 note=35 velocity=79 time=0
EXTRACT: note_on channel=9 note=46 velocity=79 time=0
EXTRACT: note_off channel=0 note=84 velocity=79 time=0.2142855
EXTRACT: note_off channel=0 note=72 velocity=63 time=0
EXTRACT: note_on channel=0 note=84 velocity=79 time=0.2142855
EXTRACT: note_on channel=0 note=72 velocity=63 time=0
EXTRACT: note_off channel=2 note=56 velocity=79 time=0
EXTRACT: note_on channel=2 note=72 velocity=79 time=0
EXTRACT: note_on channel=2 note=68 velocity=79 time=0
EXTRACT: note_on channel=2 note=65 velocity=79 time=0
EXTRACT: note_on channel=2 note=60 velocity=79 time=0
EXTRACT: note_off channel=4 note=77 velocity=63 time=0
EXTRACT: note_off channel=4 note=72 velocity=63 time=0
EXTRACT: note_off channel=4 note=65 velocity=63 time=0
EXTRACT: note_off channel=4 note=60 velocity=63 time=0
EXTRACT: note_on channel=4 note=79 velocity=63 time=0
EXTRACT: note_on channel=4 note=72 velocity=63 time=0
EXTRACT: note_off channel=6 note=29 velocity=79 time=0
EXTRACT: note_on channel=6 note=29 velocity=79 time=0
EXTRACT: note_off channel=9 note=46 velocity=79 time=0
EXTRACT: note_on channel=9 note=46 velocity=79 time=0
EXTRACT: note_on channel=9 note=40 velocity=79 time=0
EXTRACT: note_off channel=0 note=84 velocity=79 time=0.2142855
EXTRACT: note_off channel=0 note=72 velocity=63 time=0
EXTRACT: note_on channel=0 note=84 velocity=79 time=0
EXTRACT: note_on channel=0 note=72 velocity=63 time=0
EXTRACT: note_off channel=0 note=84 velocity=79 time=0.2142855
EXTRACT: note_off channel=0 note=72 velocity=63 time=0
EXTRACT: note_off channel=2 note=72 velocity=79 time=0
EXTRACT: note_off channel=2 note=68 velocity=79 time=0
EXTRACT: note_off channel=2 note=65 velocity=79 time=0
EXTRACT: note_off channel=2 note=60 velocity=79 time=0
EXTRACT: note_on channel=2 note=56 velocity=79 time=0
EXTRACT: note_on channel=2 note=41 velocity=79 time=0
EXTRACT: note_off channel=6 note=29 velocity=79 time=0
EXTRACT: note_on channel=6 note=29 velocity=79 time=0
EXTRACT: note_off channel=9 note=46 velocity=79 time=0
EXTRACT: note_off channel=9 note=40 velocity=79 time=0
EXTRACT: note_on channel=9 note=46 velocity=79 time=0
EXTRACT: note_on channel=0 note=84 velocity=79 time=0.428571
EXTRACT: note_on channel=0 note=72 velocity=63 time=0
EXTRACT: note_off channel=2 note=56 velocity=79 time=0
EXTRACT: note_off channel=2 note=41 velocity=79 time=0
EXTRACT: note_on channel=2 note=70 velocity=79 time=0
EXTRACT: note_on channel=2 note=67 velocity=79 time=0
EXTRACT: note_on channel=2 note=63 velocity=79 time=0
EXTRACT: note_on channel=2 note=58 velocity=79 time=0
EXTRACT: note_on channel=2 note=51 velocity=79 time=0
EXTRACT: note_on channel=2 note=46 velocity=79 time=0
EXTRACT: note_off channel=4 note=79 velocity=63 time=0
EXTRACT: note_off channel=4 note=72 velocity=63 time=0
EXTRACT: note_on channel=4 note=80 velocity=63 time=0
EXTRACT: note_on channel=4 note=63 velocity=63 time=0
EXTRACT: note_on channel=4 note=58 velocity=63 time=0
EXTRACT: note_on channel=4 note=51 velocity=63 time=0
EXTRACT: note_off channel=6 note=29 velocity=79 time=0
EXTRACT: note_on channel=6 note=27 velocity=79 time=0
EXTRACT: note_off channel=9 note=46 velocity=79 time=0
EXTRACT: note_on channel=9 note=49 velocity=79 time=0
EXTRACT: note_on channel=9 note=35 velocity=79 time=0
EXTRACT: note_off channel=2 note=70 velocity=79 time=0.428571
EXTRACT: note_off channel=2 note=67 velocity=79 time=0
EXTRACT: note_off channel=2 note=63 velocity=79 time=0
EXTRACT: note_off channel=2 note=58 velocity=79 time=0
EXTRACT: note_off channel=2 note=51 velocity=79 time=0
EXTRACT: note_off channel=2 note=46 velocity=79 time=0
EXTRACT: note_on channel=2 note=58 velocity=79 time=0
EXTRACT: note_off channel=6 note=27 velocity=79 time=0
EXTRACT: note_on channel=6 note=27 velocity=79 time=0
EXTRACT: note_off channel=9 note=49 velocity=79 time=0
EXTRACT: note_off channel=9 note=35 velocity=79 time=0
EXTRACT: note_on channel=9 note=46 velocity=79 time=0
EXTRACT: note_off channel=0 note=84 velocity=79 time=0.32142825
EXTRACT: note_off channel=0 note=72 velocity=63 time=0
EXTRACT: note_on channel=0 note=85 velocity=79 time=0.10714275
EXTRACT: note_on channel=0 note=73 velocity=63 time=0
EXTRACT: note_off channel=2 note=58 velocity=79 time=0
EXTRACT: note_on channel=2 note=70 velocity=79 time=0
EXTRACT: note_on channel=2 note=67 velocity=79 time=0
EXTRACT: note_on channel=2 note=63 velocity=79 time=0
EXTRACT: note_off channel=6 note=27 velocity=79 time=0
EXTRACT: note_on channel=6 note=27 velocity=79 time=0
EXTRACT: note_off channel=9 note=46 velocity=79 time=0
EXTRACT: note_on channel=9 note=46 velocity=79 time=0
EXTRACT: note_on channel=9 note=40 velocity=79 time=0
EXTRACT: note_off channel=2 note=70 velocity=79 time=0.428571
EXTRACT: note_off channel=2 note=67 velocity=79 time=0
EXTRACT: note_off channel=2 note=63 velocity=79 time=0
EXTRACT: note_on channel=2 note=58 velocity=79 time=0
EXTRACT: note_off channel=4 note=80 velocity=63 time=0
EXTRACT: note_off channel=4 note=63 velocity=63 time=0
EXTRACT: note_off channel=4 note=58 velocity=63 time=0
EXTRACT: note_off channel=4 note=51 velocity=63 time=0
EXTRACT: note_on channel=4 note=82 velocity=63 time=0
EXTRACT: note_on channel=4 note=75 velocity=63 time=0
EXTRACT: note_off channel=6 note=27 velocity=79 time=0
EXTRACT: note_on channel=6 note=27 velocity=79 time=0
EXTRACT: note_off channel=9 note=46 velocity=79 time=0
EXTRACT: note_off channel=9 note=40 velocity=79 time=0
EXTRACT: note_on channel=9 note=46 velocity=79 time=0
EXTRACT: note_off channel=0 note=85 velocity=79 time=0.32142825
EXTRACT: note_off channel=0 note=73 velocity=63 time=0
EXTRACT: note_on channel=0 note=87 velocity=79 time=0.10714275
EXTRACT: note_on channel=0 note=75 velocity=63 time=0
EXTRACT: note_off channel=2 note=58 velocity=79 time=0
EXTRACT: note_on channel=2 note=67 velocity=79 time=0
EXTRACT: note_on channel=2 note=63 velocity=79 time=0
EXTRACT: note_on channel=2 note=58 velocity=79 time=0
EXTRACT: note_on channel=2 note=51 velocity=79 time=0
EXTRACT: note_on channel=2 note=46 velocity=79 time=0
EXTRACT: note_off channel=6 note=27 velocity=79 time=0
EXTRACT: note_on channel=6 note=27 velocity=79 time=0
EXTRACT: note_off channel=9 note=46 velocity=79 time=0
EXTRACT: note_on channel=9 note=46 velocity=79 time=0
EXTRACT: note_on channel=9 note=35 velocity=79 time=0
EXTRACT: note_off channel=2 note=67 velocity=79 time=0.428571
EXTRACT: note_off channel=2 note=63 velocity=79 time=0
EXTRACT: note_off channel=2 note=58 velocity=79 time=0
EXTRACT: note_off channel=2 note=51 velocity=79 time=0
EXTRACT: note_off channel=2 note=46 velocity=79 time=0
EXTRACT: note_on channel=2 note=55 velocity=79 time=0
EXTRACT: note_off channel=6 note=27 velocity=79 time=0
EXTRACT: note_on channel=6 note=27 velocity=79 time=0
EXTRACT: note_off channel=9 note=46 velocity=79 time=0
EXTRACT: note_off channel=9 note=35 velocity=79 time=0
EXTRACT: note_on channel=9 note=46 velocity=79 time=0
EXTRACT: note_off channel=2 note=55 velocity=79 time=0.428571
EXTRACT: note_on channel=2 note=67 velocity=79 time=0
EXTRACT: note_on channel=2 note=63 velocity=79 time=0
EXTRACT: note_on channel=2 note=58 velocity=79 time=0
EXTRACT: note_off channel=6 note=27 velocity=79 time=0
EXTRACT: note_on channel=6 note=27 velocity=79 time=0
EXTRACT: note_off channel=9 note=46 velocity=79 time=0
EXTRACT: note_on channel=9 note=46 velocity=79 time=0
EXTRACT: note_on channel=9 note=40 velocity=79 time=0
EXTRACT: note_off channel=2 note=67 velocity=79 time=0.428571
EXTRACT: note_off channel=2 note=63 velocity=79 time=0
EXTRACT: note_off channel=2 note=58 velocity=79 time=0
EXTRACT: note_on channel=2 note=55 velocity=79 time=0
EXTRACT: note_off channel=6 note=27 velocity=79 time=0
EXTRACT: note_on channel=6 note=27 velocity=79 time=0
EXTRACT: note_off channel=9 note=46 velocity=79 time=0
EXTRACT: note_off channel=9 note=40 velocity=79 time=0
EXTRACT: note_on channel=9 note=46 velocity=79 time=0
EXTRACT: note_off channel=9 note=46 velocity=79 time=0.2142855
EXTRACT: note_on channel=9 note=57 velocity=79 time=0
EXTRACT: note_off channel=2 note=55 velocity=79 time=0.2142855
EXTRACT: note_on channel=2 note=68 velocity=79 time=0
EXTRACT: note_on channel=2 note=63 velocity=79 time=0
EXTRACT: note_on channel=2 note=58 velocity=79 time=0
EXTRACT: note_on channel=2 note=51 velocity=79 time=0
EXTRACT: note_on channel=2 note=46 velocity=79 time=0
EXTRACT: note_off channel=6 note=27 velocity=79 time=0
EXTRACT: note_on channel=6 note=27 velocity=79 time=0
EXTRACT: note_off channel=9 note=57 velocity=79 time=0
EXTRACT: note_on channel=9 note=49 velocity=79 time=0
EXTRACT: note_on channel=9 note=35 velocity=79 time=0
EXTRACT: note_off channel=9 note=49 velocity=79 time=0.2142855
EXTRACT: note_off channel=9 note=35 velocity=79 time=0
EXTRACT: note_on channel=9 note=40 velocity=79 time=0
EXTRACT: note_off channel=2 note=68 velocity=79 time=0.2142855
EXTRACT: note_off channel=2 note=63 velocity=79 time=0
EXTRACT: note_off channel=2 note=58 velocity=79 time=0
EXTRACT: note_off channel=2 note=51 velocity=79 time=0
EXTRACT: note_off channel=2 note=46 velocity=79 time=0
EXTRACT: note_on channel=2 note=55 velocity=79 time=0
EXTRACT: note_off channel=6 note=27 velocity=79 time=0
EXTRACT: note_on channel=6 note=27 velocity=79 time=0
EXTRACT: note_off channel=9 note=40 velocity=79 time=0
EXTRACT: note_on channel=9 note=46 velocity=79 time=0
EXTRACT: note_off channel=9 note=46 velocity=79 time=0.2142855
EXTRACT: note_on channel=9 note=35 velocity=79 time=0
EXTRACT: note_off channel=2 note=55 velocity=79 time=0.2142855
EXTRACT: note_on channel=2 note=67 velocity=79 time=0
EXTRACT: note_on channel=2 note=63 velocity=79 time=0
EXTRACT: note_on channel=2 note=58 velocity=79 time=0
EXTRACT: note_off channel=6 note=27 velocity=79 time=0
EXTRACT: note_on channel=6 note=27 velocity=79 time=0
EXTRACT: note_off channel=9 note=35 velocity=79 time=0
EXTRACT: note_on channel=9 note=46 velocity=79 time=0
EXTRACT: note_on channel=9 note=40 velocity=79 time=0
EXTRACT: note_off channel=2 note=67 velocity=79 time=0.428571
EXTRACT: note_off channel=2 note=63 velocity=79 time=0
EXTRACT: note_off channel=2 note=58 velocity=79 time=0
EXTRACT: note_on channel=2 note=55 velocity=79 time=0
EXTRACT: note_off channel=6 note=27 velocity=79 time=0
EXTRACT: note_on channel=6 note=27 velocity=79 time=0
EXTRACT: note_off channel=9 note=46 velocity=79 time=0
EXTRACT: note_off channel=9 note=40 velocity=79 time=0
EXTRACT: note_on channel=9 note=46 velocity=79 time=0
EXTRACT: note_off channel=0 note=87 velocity=79 time=0.428571
EXTRACT: note_off channel=0 note=75 velocity=63 time=0
EXTRACT: note_off channel=2 note=55 velocity=79 time=0
EXTRACT: note_on channel=2 note=68 velocity=79 time=0
EXTRACT: note_on channel=2 note=63 velocity=79 time=0
EXTRACT: note_on channel=2 note=58 velocity=79 time=0
EXTRACT: note_on channel=2 note=51 velocity=79 time=0
EXTRACT: note_on channel=2 note=46 velocity=79 time=0
EXTRACT: note_off channel=4 note=82 velocity=63 time=0
EXTRACT: note_off channel=4 note=75 velocity=63 time=0
EXTRACT: note_on channel=4 note=80 velocity=63 time=0
EXTRACT: note_on channel=4 note=75 velocity=63 time=0
EXTRACT: note_off channel=6 note=27 velocity=79 time=0
EXTRACT: note_on channel=6 note=27 velocity=79 time=0
EXTRACT: note_off channel=9 note=46 velocity=79 time=0
EXTRACT: note_on channel=9 note=46 velocity=79 time=0
EXTRACT: note_on channel=9 note=35 velocity=79 time=0
EXTRACT: note_on channel=0 note=84 velocity=63 time=0.428571
EXTRACT: note_off channel=2 note=68 velocity=79 time=0
EXTRACT: note_off channel=2 note=63 velocity=79 time=0
EXTRACT: note_off channel=2 note=58 velocity=79 time=0
EXTRACT: note_off channel=2 note=51 velocity=79 time=0
EXTRACT: note_off channel=2 note=46 velocity=79 time=0
EXTRACT: note_on channel=2 note=55 velocity=79 time=0
EXTRACT: note_off channel=6 note=27 velocity=79 time=0
EXTRACT: note_on channel=6 note=27 velocity=79 time=0
EXTRACT: note_off channel=9 note=46 velocity=79 time=0
EXTRACT: note_off channel=9 note=35 velocity=79 time=0
EXTRACT: note_on channel=9 note=40 velocity=79 time=0
EXTRACT: note_off channel=9 note=40 velocity=79 time=0.10714275
EXTRACT: note_on channel=9 note=40 velocity=79 time=0
EXTRACT: note_off channel=9 note=40 velocity=79 time=0.10714275
EXTRACT: note_on channel=9 note=47 velocity=79 time=0
EXTRACT: note_off channel=0 note=84 velocity=63 time=0.2142855
EXTRACT: note_on channel=0 note=82 velocity=63 time=0
EXTRACT: note_off channel=2 note=55 velocity=79 time=0
EXTRACT: note_on channel=2 note=70 velocity=79 time=0
EXTRACT: note_on channel=2 note=67 velocity=79 time=0
EXTRACT: note_on channel=2 note=63 velocity=79 time=0
EXTRACT: note_off channel=4 note=80 velocity=63 time=0
EXTRACT: note_off channel=4 note=75 velocity=63 time=0
EXTRACT: note_on channel=4 note=82 velocity=63 time=0
EXTRACT: note_on channel=4 note=79 velocity=63 time=0
EXTRACT: note_off channel=6 note=27 velocity=79 time=0
EXTRACT: note_on channel=6 note=27 velocity=79 time=0
EXTRACT: note_off channel=9 note=47 velocity=79 time=0
EXTRACT: note_on channel=9 note=45 velocity=79 time=0
EXTRACT: note_off channel=9 note=45 velocity=79 time=0.2142855
EXTRACT: note_on channel=9 note=43 velocity=79 time=0
EXTRACT: note_off channel=0 note=82 velocity=63 time=0.2142855
EXTRACT: note_on channel=0 note=80 velocity=63 time=0
EXTRACT: note_off channel=2 note=70 velocity=79 time=0
EXTRACT: note_off channel=2 note=67 velocity=79 time=0
EXTRACT: note_off channel=2 note=63 velocity=79 time=0
EXTRACT: note_on channel=2 note=58 velocity=79 time=0
EXTRACT: note_off channel=6 note=27 velocity=79 time=0
EXTRACT: note_on channel=6 note=27 velocity=79 time=0
EXTRACT: note_off channel=9 note=43 velocity=79 time=0
EXTRACT: note_on channel=9 note=41 velocity=79 time=0
EXTRACT: note_off channel=9 note=41 velocity=79 time=0.2142855
EXTRACT: note_on channel=9 note=45 velocity=79 time=0
EXTRACT: note_off channel=0 note=80 velocity=63 time=0.2142855
EXTRACT: note_on channel=0 note=80 velocity=63 time=0
EXTRACT: note_off channel=2 note=58 velocity=79 time=0
EXTRACT: note_on channel=2 note=65 velocity=79 time=0
EXTRACT: note_on channel=2 note=60 velocity=79 time=0
EXTRACT: note_on channel=2 note=53 velocity=79 time=0
EXTRACT: note_off channel=4 note=82 velocity=63 time=0
EXTRACT: note_off channel=4 note=79 velocity=63 time=0
EXTRACT: note_on channel=4 note=72 velocity=63 time=0
EXTRACT: note_on channel=4 note=53 velocity=63 time=0
EXTRACT: note_off channel=6 note=27 velocity=79 time=0
EXTRACT: note_off channel=9 note=45 velocity=79 time=0
EXTRACT: note_on channel=9 note=49 velocity=79 time=0
EXTRACT: note_on channel=9 note=35 velocity=79 time=0
EXTRACT: note_off channel=9 note=49 velocity=79 time=0.2142855
EXTRACT: note_off channel=9 note=35 velocity=79 time=0
EXTRACT: note_off channel=0 note=80 velocity=63 time=0.2142855
EXTRACT: note_on channel=0 note=80 velocity=63 time=0
EXTRACT: note_off channel=2 note=65 velocity=79 time=0
EXTRACT: note_off channel=2 note=60 velocity=79 time=0
EXTRACT: note_off channel=2 note=53 velocity=79 time=0
EXTRACT: note_on channel=2 note=68 velocity=79 time=0
EXTRACT: note_off channel=2 note=68 velocity=79 time=0.2142855
EXTRACT: note_on channel=2 note=72 velocity=79 time=0
EXTRACT: note_off channel=0 note=80 velocity=63 time=0.2142855
EXTRACT: note_on channel=0 note=80 velocity=63 time=0
EXTRACT: note_off channel=2 note=72 velocity=79 time=0
EXTRACT: note_on channel=2 note=77 velocity=79 time=0
EXTRACT: note_off channel=0 note=80 velocity=63 time=0.2142855
EXTRACT: note_on channel=0 note=79 velocity=63 time=0
EXTRACT: note_off channel=0 note=79 velocity=63 time=0.2142855
EXTRACT: note_on channel=0 note=80 velocity=63 time=0
EXTRACT: note_off channel=2 note=77 velocity=79 time=0.428571
EXTRACT: note_on channel=2 note=56 velocity=79 time=0
EXTRACT: note_on channel=2 note=49 velocity=79 time=0
EXTRACT: note_off channel=4 note=72 velocity=63 time=0
EXTRACT: note_off channel=4 note=53 velocity=63 time=0
EXTRACT: note_on channel=4 note=75 velocity=63 time=0
EXTRACT: note_on channel=4 note=61 velocity=63 time=0
EXTRACT: note_off channel=0 note=80 velocity=63 time=0.428571
EXTRACT: note_on channel=0 note=80 velocity=63 time=0
EXTRACT: note_off channel=0 note=80 velocity=63 time=0.428571
EXTRACT: note_on channel=0 note=80 velocity=63 time=0
EXTRACT: note_off channel=2 note=56 velocity=79 time=0
EXTRACT: note_off channel=2 note=49 velocity=79 time=0
EXTRACT: note_on channel=2 note=68 velocity=79 time=0
EXTRACT: note_off channel=4 note=75 velocity=63 time=0
EXTRACT: note_off channel=4 note=61 velocity=63 time=0
EXTRACT: note_on channel=4 note=72 velocity=63 time=0
EXTRACT: note_off channel=0 note=80 velocity=63 time=0.428571
EXTRACT: note_on channel=0 note=80 velocity=63 time=0
EXTRACT: note_off channel=0 note=80 velocity=63 time=0.2142855
EXTRACT: note_on channel=0 note=79 velocity=63 time=0
EXTRACT: note_off channel=0 note=79 velocity=63 time=0.2142855
EXTRACT: note_on channel=0 note=80 velocity=63 time=0
EXTRACT: note_off channel=2 note=68 velocity=79 time=0
EXTRACT: note_on channel=2 note=70 velocity=79 time=0
EXTRACT: note_on channel=2 note=63 velocity=79 time=0
EXTRACT: note_on channel=2 note=58 velocity=79 time=0
EXTRACT: note_on channel=2 note=51 velocity=79 time=0
EXTRACT: note_off channel=4 note=72 velocity=63 time=0
EXTRACT: note_on channel=4 note=70 velocity=63 time=0
EXTRACT: note_on channel=4 note=51 velocity=63 time=0
EXTRACT: note_off channel=0 note=80 velocity=63 time=0.428571
EXTRACT: note_on channel=0 note=79 velocity=63 time=0
EXTRACT: note_off channel=4 note=70 velocity=63 time=0.428571
EXTRACT: note_off channel=4 note=51 velocity=63 time=0
EXTRACT: note_on channel=4 note=56 velocity=63 time=0
EXTRACT: note_off channel=0 note=79 velocity=63 time=0.857142
EXTRACT: note_off channel=4 note=56 velocity=63 time=0
EXTRACT: note_on channel=4 note=58 velocity=63 time=0
EXTRACT: note_on channel=0 note=84 velocity=63 time=0.428571
EXTRACT: note_off channel=0 note=84 velocity=63 time=0.428571
EXTRACT: note_on channel=0 note=82 velocity=63 time=0
EXTRACT: note_off channel=2 note=70 velocity=79 time=0
EXTRACT: note_off channel=2 note=63 velocity=79 time=0
EXTRACT: note_off channel=2 note=58 velocity=79 time=0
EXTRACT: note_off channel=2 note=51 velocity=79 time=0
EXTRACT: note_on channel=2 note=68 velocity=79 time=0
EXTRACT: note_off channel=2 note=68 velocity=79 time=0.2142855
EXTRACT: note_on channel=2 note=67 velocity=79 time=0
EXTRACT: note_off channel=0 note=82 velocity=63 time=0.2142855
EXTRACT: note_on channel=0 note=80 velocity=63 time=0
EXTRACT: note_off channel=2 note=67 velocity=79 time=0
EXTRACT: note_on channel=2 note=63 velocity=79 time=0
EXTRACT: note_off channel=2 note=63 velocity=79 time=0.2142855
EXTRACT: note_on channel=2 note=58 velocity=79 time=0
EXTRACT: note_off channel=0 note=80 velocity=63 time=0.2142855
EXTRACT: note_on channel=0 note=80 velocity=63 time=0
EXTRACT: note_off channel=2 note=58 velocity=79 time=0
EXTRACT: note_on channel=2 note=53 velocity=79 time=0
EXTRACT: note_on channel=2 note=48 velocity=79 time=0
EXTRACT: note_on channel=2 note=41 velocity=79 time=0
EXTRACT: note_off channel=4 note=58 velocity=63 time=0
EXTRACT: note_on channel=4 note=72 velocity=63 time=0
EXTRACT: note_on channel=4 note=53 velocity=63 time=0
EXTRACT: note_off channel=0 note=80 velocity=63 time=0.2142855
EXTRACT: note_on channel=0 note=79 velocity=63 time=0
EXTRACT: note_off channel=0 note=79 velocity=63 time=0.2142855
EXTRACT: note_on channel=0 note=80 velocity=63 time=0
EXTRACT: note_off channel=2 note=53 velocity=79 time=0
EXTRACT: note_off channel=2 note=48 velocity=79 time=0
EXTRACT: note_off channel=2 note=41 velocity=79 time=0
EXTRACT: note_on channel=2 note=48 velocity=79 time=0
EXTRACT: note_off channel=0 note=80 velocity=63 time=0.2142855
EXTRACT: note_on channel=0 note=79 velocity=63 time=0
EXTRACT: note_off channel=2 note=48 velocity=79 time=0
EXTRACT: note_on channel=2 note=53 velocity=79 time=0
EXTRACT: note_off channel=0 note=79 velocity=63 time=0.2142855
EXTRACT: note_on channel=0 note=80 velocity=63 time=0
EXTRACT: note_off channel=2 note=53 velocity=79 time=0
EXTRACT: note_on channel=2 note=56 velocity=79 time=0
EXTRACT: note_off channel=2 note=56 velocity=79 time=0.2142855
EXTRACT: note_on channel=2 note=58 velocity=79 time=0
EXTRACT: note_off channel=0 note=80 velocity=63 time=0.2142855
EXTRACT: note_on channel=0 note=80 velocity=63 time=0
EXTRACT: note_off channel=2 note=58 velocity=79 time=0
EXTRACT: note_on channel=2 note=60 velocity=79 time=0
EXTRACT: note_off channel=0 note=80 velocity=63 time=0.2142855
EXTRACT: note_on channel=0 note=79 velocity=63 time=0
EXTRACT: note_off channel=2 note=60 velocity=79 time=0
EXTRACT: note_on channel=2 note=56 velocity=79 time=0
EXTRACT: note_off channel=0 note=79 velocity=63 time=0.2142855
EXTRACT: note_on channel=0 note=80 velocity=63 time=0
EXTRACT: note_off channel=2 note=56 velocity=79 time=0
EXTRACT: note_on channel=2 note=65 velocity=79 time=0
EXTRACT: note_on channel=2 note=53 velocity=79 time=0
EXTRACT: note_off channel=4 note=72 velocity=63 time=0
EXTRACT: note_off channel=4 note=53 velocity=63 time=0
EXTRACT: note_on channel=4 note=68 velocity=63 time=0
EXTRACT: note_on channel=4 note=61 velocity=63 time=0
EXTRACT: note_off channel=0 note=80 velocity=63 time=0.428571
EXTRACT: note_on channel=0 note=80 velocity=63 time=0
EXTRACT: note_off channel=2 note=53 velocity=79 time=0
EXTRACT: note_off channel=2 note=65 velocity=79 time=0.2142855
EXTRACT: note_on channel=2 note=44 velocity=79 time=0
EXTRACT: note_off channel=0 note=80 velocity=63 time=0.2142855
EXTRACT: note_on channel=0 note=80 velocity=63 time=0
EXTRACT: note_off channel=2 note=44 velocity=79 time=0
EXTRACT: note_on channel=2 note=63 velocity=79 time=0
EXTRACT: note_on channel=2 note=49 velocity=79 time=0
EXTRACT: note_off channel=0 note=80 velocity=63 time=0.2142855
EXTRACT: note_on channel=0 note=82 velocity=63 time=0
EXTRACT: note_off channel=2 note=63 velocity=79 time=0
EXTRACT: note_off channel=2 note=49 velocity=79 time=0
EXTRACT: note_on channel=2 note=53 velocity=79 time=0
EXTRACT: note_off channel=2 note=53 velocity=79 time=0.2142855
EXTRACT: note_on channel=2 note=49 velocity=79 time=0
EXTRACT: note_off channel=0 note=82 velocity=63 time=0.2142855
EXTRACT: note_on channel=0 note=80 velocity=63 time=0
EXTRACT: note_off channel=2 note=49 velocity=79 time=0.2142855
EXTRACT: note_on channel=2 note=51 velocity=79 time=0
EXTRACT: note_on channel=2 note=46 velocity=79 time=0
EXTRACT: note_off channel=4 note=68 velocity=63 time=0
EXTRACT: note_off channel=4 note=61 velocity=63 time=0
EXTRACT: note_on channel=4 note=70 velocity=63 time=0
EXTRACT: note_on channel=4 note=63 velocity=63 time=0
EXTRACT: note_off channel=0 note=80 velocity=63 time=0.2142855
EXTRACT: note_on channel=0 note=82 velocity=63 time=0
EXTRACT: note_off channel=0 note=82 velocity=63 time=0.428571
EXTRACT: note_on channel=0 note=82 velocity=79 time=0
EXTRACT: note_off channel=2 note=51 velocity=79 time=0
EXTRACT: note_off channel=2 note=46 velocity=79 time=0
EXTRACT: note_on channel=2 note=46 velocity=79 time=0
EXTRACT: note_off channel=2 note=46 velocity=79 time=0.2142855
EXTRACT: note_on channel=2 note=51 velocity=79 time=0
EXTRACT: note_off channel=4 note=70 velocity=63 time=0
EXTRACT: note_off channel=4 note=63 velocity=63 time=0
EXTRACT: note_on channel=4 note=75 velocity=63 time=0
EXTRACT: note_on channel=4 note=70 velocity=63 time=0
EXTRACT: note_on channel=9 note=41 velocity=79 time=0
EXTRACT: note_on channel=9 note=40 velocity=79 time=0
EXTRACT: note_off channel=2 note=51 velocity=79 time=0.2142855
EXTRACT: note_on channel=2 note=55 velocity=79 time=0
EXTRACT: note_off channel=9 note=41 velocity=79 time=0
EXTRACT: note_off channel=9 note=40 velocity=79 time=0
EXTRACT: note_on channel=9 note=41 velocity=79 time=0
EXTRACT: note_on channel=9 note=40 velocity=79 time=0
EXTRACT: note_off channel=2 note=55 velocity=79 time=0.2142855
EXTRACT: note_on channel=2 note=51 velocity=79 time=0
EXTRACT: note_off channel=4 note=75 velocity=63 time=0
EXTRACT: note_off channel=4 note=70 velocity=63 time=0
EXTRACT: note_on channel=4 note=80 velocity=63 time=0
EXTRACT: note_on channel=4 note=75 velocity=63 time=0
EXTRACT: note_off channel=9 note=41 velocity=79 time=0
EXTRACT: note_off channel=9 note=40 velocity=79 time=0
EXTRACT: note_on channel=9 note=41 velocity=79 time=0
EXTRACT: note_on channel=9 note=40 velocity=79 time=0
EXTRACT: note_off channel=4 note=80 velocity=63 time=0.2142855
EXTRACT: note_off channel=4 note=75 velocity=63 time=0
EXTRACT: note_on channel=4 note=82 velocity=63 time=0
EXTRACT: note_off channel=9 note=41 velocity=79 time=0
EXTRACT: note_off channel=9 note=40 velocity=79 time=0
EXTRACT: note_on channel=9 note=41 velocity=79 time=0
EXTRACT: note_on channel=9 note=40 velocity=79 time=0
EXTRACT: note_off channel=0 note=82 velocity=79 time=0.2142855
EXTRACT: note_off channel=2 note=51 velocity=79 time=0
EXTRACT: note_on channel=2 note=63 velocity=79 time=0
EXTRACT: note_on channel=2 note=58 velocity=79 time=0
EXTRACT: note_on channel=2 note=51 velocity=79 time=0
EXTRACT: note_on channel=2 note=46 velocity=79 time=0
EXTRACT: note_off channel=9 note=41 velocity=79 time=0
EXTRACT: note_off channel=9 note=40 velocity=79 time=0
EXTRACT: note_on channel=9 note=41 velocity=79 time=0
EXTRACT: note_on channel=9 note=40 velocity=79 time=0
EXTRACT: note_off channel=4 note=82 velocity=63 time=0.2142855
EXTRACT: note_on channel=0 note=86 velocity=79 time=0.2142855
EXTRACT: note_off channel=2 note=63 velocity=79 time=0
EXTRACT: note_off channel=2 note=58 velocity=79 time=0
EXTRACT: note_off channel=2 note=51 velocity=79 time=0
EXTRACT: note_off channel=2 note=46 velocity=79 time=0
EXTRACT: note_off channel=9 note=41 velocity=79 time=0
EXTRACT: note_off channel=9 note=40 velocity=79 time=0
EXTRACT: note_on channel=9 note=40 velocity=79 time=0.32142825
EXTRACT: note_on channel=9 note=40 velocity=79 time=0
EXTRACT: note_off channel=0 note=86 velocity=79 time=0.10714275
EXTRACT: note_on channel=0 note=84 velocity=79 time=0
EXTRACT: note_off channel=9 note=40 velocity=79 time=0
EXTRACT: note_off channel=9 note=40 velocity=79 time=0
EXTRACT: note_on channel=9 note=48 velocity=79 time=0
EXTRACT: note_on channel=9 note=45 velocity=79 time=0
EXTRACT: note_off channel=9 note=48 velocity=79 time=0.142857
EXTRACT: note_off channel=9 note=45 velocity=79 time=0
EXTRACT: note_on channel=9 note=47 velocity=79 time=0
EXTRACT: note_on channel=9 note=45 velocity=79 time=0
EXTRACT: note_off channel=9 note=47 velocity=79 time=0.142857
EXTRACT: note_off channel=9 note=45 velocity=79 time=0
EXTRACT: note_on channel=9 note=47 velocity=79 time=0
EXTRACT: note_on channel=9 note=45 velocity=79 time=0
EXTRACT: note_off channel=0 note=84 velocity=79 time=0.142857
EXTRACT: note_on channel=0 note=82 velocity=79 time=0
EXTRACT: note_off channel=9 note=47 velocity=79 time=0
EXTRACT: note_off channel=9 note=45 velocity=79 time=0
EXTRACT: note_on channel=9 note=43 velocity=79 time=0
EXTRACT: note_off channel=9 note=43 velocity=79 time=0.142857
EXTRACT: note_on channel=9 note=43 velocity=79 time=0
EXTRACT: note_on channel=9 note=35 velocity=79 time=0
EXTRACT: note_off channel=9 note=43 velocity=79 time=0.142857
EXTRACT: note_off channel=9 note=35 velocity=79 time=0
EXTRACT: note_on channel=9 note=41 velocity=79 time=0
EXTRACT: note_on channel=9 note=35 velocity=79 time=0
EXTRACT: note_off channel=0 note=82 velocity=79 time=0.142857
EXTRACT: note_on channel=0 note=82 velocity=79 time=0
EXTRACT: note_on channel=2 note=74 velocity=79 time=0
EXTRACT: note_on channel=2 note=70 velocity=79 time=0
EXTRACT: note_on channel=2 note=67 velocity=79 time=0
EXTRACT: note_on channel=2 note=55 velocity=79 time=0
EXTRACT: note_on channel=2 note=50 velocity=79 time=0
EXTRACT: note_on channel=4 note=86 velocity=63 time=0
EXTRACT: note_on channel=4 note=55 velocity=63 time=0
EXTRACT: note_on channel=4 note=74 velocity=63 time=0
EXTRACT: note_on channel=4 note=67 velocity=63 time=0
EXTRACT: note_on channel=4 note=62 velocity=63 time=0
EXTRACT: note_on channel=6 note=31 velocity=79 time=0
EXTRACT: note_off channel=9 note=41 velocity=79 time=0
EXTRACT: note_off channel=9 note=35 velocity=79 time=0
EXTRACT: note_on channel=9 note=49 velocity=79 time=0
EXTRACT: note_on channel=9 note=35 velocity=79 time=0
EXTRACT: note_off channel=0 note=82 velocity=79 time=0.2142855
EXTRACT: note_on channel=0 note=79 velocity=79 time=0
EXTRACT: note_on channel=0 note=75 velocity=63 time=0
EXTRACT: note_off channel=9 note=49 velocity=79 time=0
EXTRACT: note_off channel=9 note=35 velocity=79 time=0
EXTRACT: note_on channel=9 note=44 velocity=79 time=0
EXTRACT: note_off channel=0 note=79 velocity=79 time=0.2142855
EXTRACT: note_off channel=0 note=75 velocity=63 time=0
EXTRACT: note_on channel=0 note=82 velocity=79 time=0
EXTRACT: note_on channel=0 note=79 velocity=63 time=0
EXTRACT: note_off channel=2 note=74 velocity=79 time=0
EXTRACT: note_off channel=2 note=70 velocity=79 time=0
EXTRACT: note_off channel=2 note=67 velocity=79 time=0
EXTRACT: note_off channel=2 note=55 velocity=79 time=0
EXTRACT: note_off channel=2 note=50 velocity=79 time=0
EXTRACT: note_on channel=2 note=62 velocity=79 time=0
EXTRACT: note_off channel=9 note=44 velocity=79 time=0
EXTRACT: note_on channel=9 note=42 velocity=79 time=0
EXTRACT: note_off channel=0 note=82 velocity=79 time=0.2142855
EXTRACT: note_off channel=0 note=79 velocity=63 time=0
EXTRACT: note_on channel=0 note=79 velocity=79 time=0
EXTRACT: note_on channel=0 note=75 velocity=63 time=0
EXTRACT: note_off channel=0 note=79 velocity=79 time=0.2142855
EXTRACT: note_off channel=0 note=75 velocity=63 time=0
EXTRACT: note_on channel=0 note=82 velocity=79 time=0
EXTRACT: note_on channel=0 note=79 velocity=63 time=0
EXTRACT: note_off channel=2 note=62 velocity=79 time=0
EXTRACT: note_on channel=2 note=74 velocity=79 time=0
EXTRACT: note_on channel=2 note=70 velocity=79 time=0
EXTRACT: note_on channel=2 note=67 velocity=79 time=0
EXTRACT: note_off channel=9 note=42 velocity=79 time=0
EXTRACT: note_on channel=9 note=42 velocity=79 time=0
EXTRACT: note_on channel=9 note=40 velocity=79 time=0
EXTRACT: note_off channel=0 note=82 velocity=79 time=0.2142855
EXTRACT: note_off channel=0 note=79 velocity=63 time=0
EXTRACT: note_on channel=0 note=79 velocity=79 time=0
EXTRACT: note_on channel=0 note=75 velocity=63 time=0
EXTRACT: note_off channel=2 note=74 velocity=79 time=0.2142855
EXTRACT: note_off channel=2 note=70 velocity=79 time=0
EXTRACT: note_off channel=2 note=67 velocity=79 time=0
EXTRACT: note_on channel=2 note=62 velocity=79 time=0
EXTRACT: note_on channel=2 note=55 velocity=79 time=0
EXTRACT: note_off channel=4 note=86 velocity=63 time=0
EXTRACT: note_off channel=4 note=55 velocity=63 time=0
EXTRACT: note_off channel=4 note=74 velocity=63 time=0
EXTRACT: note_off channel=4 note=67 velocity=63 time=0
EXTRACT: note_off channel=4 note=62 velocity=63 time=0
EXTRACT: note_on channel=4 note=84 velocity=63 time=0
EXTRACT: note_on channel=4 note=72 velocity=63 time=0
EXTRACT: note_off channel=6 note=31 velocity=79 time=0
EXTRACT: note_on channel=6 note=31 velocity=79 time=0
EXTRACT: note_off channel=9 note=42 velocity=79 time=0
EXTRACT: note_off channel=9 note=40 velocity=79 time=0
EXTRACT: note_on channel=9 note=42 velocity=79 time=0
EXTRACT: note_off channel=0 note=79 velocity=79 time=0.2142855
EXTRACT: note_off channel=0 note=75 velocity=63 time=0
EXTRACT: note_on channel=0 note=82 velocity=79 time=0
EXTRACT: note_on channel=0 note=79 velocity=63 time=0
EXTRACT: note_off channel=2 note=62 velocity=79 time=0.2142855
EXTRACT: note_off channel=2 note=55 velocity=79 time=0
EXTRACT: note_on channel=2 note=70 velocity=79 time=0
EXTRACT: note_on channel=2 note=67 velocity=79 time=0
EXTRACT: note_on channel=2 note=63 velocity=79 time=0
EXTRACT: note_on channel=2 note=51 velocity=79 time=0
EXTRACT: note_on channel=2 note=46 velocity=79 time=0
EXTRACT: note_off channel=4 note=84 velocity=63 time=0
EXTRACT: note_off channel=4 note=72 velocity=63 time=0
EXTRACT: note_on channel=4 note=84 velocity=63 time=0
EXTRACT: note_on channel=4 note=72 velocity=63 time=0
EXTRACT: note_on channel=4 note=63 velocity=63 time=0
EXTRACT: note_on channel=4 note=58 velocity=63 time=0
EXTRACT: note_on channel=4 note=51 velocity=63 time=0
EXTRACT: note_off channel=6 note=31 velocity=79 time=0
EXTRACT: note_on channel=6 note=27 velocity=79 time=0
EXTRACT: note_off channel=9 note=42 velocity=79 time=0
EXTRACT: note_on channel=9 note=42 velocity=79 time=0
EXTRACT: note_on channel=9 note=35 velocity=79 time=0
EXTRACT: note_off channel=0 note=82 velocity=79 time=0.2142855
EXTRACT: note_off channel=0 note=79 velocity=63 time=0
EXTRACT: note_on channel=0 note=79 velocity=79 time=0
EXTRACT: note_on channel=0 note=75 velocity=63 time=0
EXTRACT: note_off channel=9 note=42 velocity=79 time=0
EXTRACT: note_off channel=9 note=35 velocity=79 time=0
EXTRACT: note_on channel=9 note=44 velocity=79 time=0
EXTRACT: note_off channel=2 note=70 velocity=79 time=0.2142855
EXTRACT: note_off channel=2 note=67 velocity=79 time=0
EXTRACT: note_off channel=2 note=63 velocity=79 time=0
EXTRACT: note_off channel=2 note=51 velocity=79 time=0
EXTRACT: note_off channel=2 note=46 velocity=79 time=0
EXTRACT: note_on channel=2 note=58 velocity=79 time=0
EXTRACT: note_off channel=9 note=44 velocity=79 time=0
EXTRACT: note_on channel=9 note=42 velocity=79 time=0
EXTRACT: note_off channel=0 note=79 velocity=79 time=0.2142855
EXTRACT: note_off channel=0 note=75 velocity=63 time=0
EXTRACT: note_on channel=0 note=82 velocity=79 time=0
EXTRACT: note_on channel=0 note=79 velocity=63 time=0
EXTRACT: note_off channel=2 note=58 velocity=79 time=0.2142855
EXTRACT: note_on channel=2 note=70 velocity=79 time=0
EXTRACT: note_on channel=2 note=67 velocity=79 time=0
EXTRACT: note_on channel=2 note=63 velocity=79 time=0
EXTRACT: note_off channel=4 note=84 velocity=63 time=0
EXTRACT: note_off channel=4 note=72 velocity=63 time=0
EXTRACT: note_off channel=4 note=63 velocity=63 time=0
EXTRACT: note_off channel=4 note=58 velocity=63 time=0
EXTRACT: note_off channel=4 note=51 velocity=63 time=0
EXTRACT: note_on channel=4 note=86 velocity=63 time=0
EXTRACT: note_on channel=4 note=74 velocity=63 time=0
EXTRACT: note_off channel=9 note=42 velocity=79 time=0
EXTRACT: note_on channel=9 note=42 velocity=79 time=0
EXTRACT: note_on channel=9 note=40 velocity=79 time=0
EXTRACT: note_off channel=0 note=82 velocity=79 time=0.2142855
EXTRACT: note_off channel=0 note=79 velocity=63 time=0
EXTRACT: note_on channel=0 note=82 velocity=79 time=0
EXTRACT: note_on channel=0 note=79 velocity=63 time=0
EXTRACT: note_off channel=2 note=70 velocity=79 time=0.2142855
EXTRACT: note_off channel=2 note=67 velocity=79 time=0
EXTRACT: note_off channel=2 note=63 velocity=79 time=0
EXTRACT: note_on channel=2 note=58 velocity=79 time=0
EXTRACT: note_off channel=6 note=27 velocity=79 time=0
EXTRACT: note_on channel=6 note=27 velocity=79 time=0
EXTRACT: note_off channel=9 note=42 velocity=79 time=0
EXTRACT: note_off channel=9 note=40 velocity=79 time=0
EXTRACT: note_on channel=9 note=42 velocity=79 time=0
EXTRACT: note_off channel=0 note=82 velocity=79 time=0.2142855
EXTRACT: note_off channel=0 note=79 velocity=63 time=0
EXTRACT: note_on channel=0 note=82 velocity=79 time=0
EXTRACT: note_on channel=0 note=79 velocity=63 time=0
EXTRACT: note_off channel=2 note=58 velocity=79 time=0.2142855
EXTRACT: note_on channel=2 note=72 velocity=79 time=0
EXTRACT: note_on channel=2 note=69 velocity=79 time=0
EXTRACT: note_on channel=2 note=65 velocity=79 time=0
EXTRACT: note_on channel=2 note=53 velocity=79 time=0
EXTRACT: note_on channel=2 note=48 velocity=79 time=0
EXTRACT: note_off channel=4 note=86 velocity=63 time=0
EXTRACT: note_off channel=4 note=74 velocity=63 time=0
EXTRACT: note_on channel=4 note=65 velocity=63 time=0
EXTRACT: note_on channel=4 note=60 velocity=63 time=0
EXTRACT: note_on channel=4 note=53 velocity=63 time=0
EXTRACT: note_off channel=6 note=27 velocity=79 time=0
EXTRACT: note_on channel=6 note=29 velocity=79 time=0
EXTRACT: note_off channel=9 note=42 velocity=79 time=0
EXTRACT: note_on channel=9 note=57 velocity=79 time=0
EXTRACT: note_on channel=9 note=42 velocity=79 time=0
EXTRACT: note_on channel=9 note=35 velocity=79 time=0
EXTRACT: note_off channel=0 note=82 velocity=79 time=0.2142855
EXTRACT: note_off channel=0 note=79 velocity=63 time=0
EXTRACT: note_on channel=0 note=81 velocity=79 time=0
EXTRACT: note_on channel=0 note=77 velocity=63 time=0
EXTRACT: note_off channel=9 note=57 velocity=79 time=0
EXTRACT: note_off channel=9 note=42 velocity=79 time=0
EXTRACT: note_off channel=9 note=35 velocity=79 time=0
EXTRACT: note_on channel=9 note=44 velocity=79 time=0
EXTRACT: note_off channel=2 note=72 velocity=79 time=0.2142855
EXTRACT: note_off channel=2 note=69 velocity=79 time=0
EXTRACT: note_off channel=2 note=65 velocity=79 time=0
EXTRACT: note_off channel=2 note=53 velocity=79 time=0
EXTRACT: note_off channel=2 note=48 velocity=79 time=0
EXTRACT: note_on channel=2 note=60 velocity=79 time=0
EXTRACT: note_off channel=9 note=44 velocity=79 time=0
EXTRACT: note_on channel=9 note=42 velocity=79 time=0
EXTRACT: note_off channel=0 note=81 velocity=79 time=0.2142855
EXTRACT: note_off channel=0 note=77 velocity=63 time=0
EXTRACT: note_on channel=0 note=81 velocity=79 time=0
EXTRACT: note_on channel=0 note=77 velocity=63 time=0
EXTRACT: note_off channel=2 note=60 velocity=79 time=0.2142855
EXTRACT: note_on channel=2 note=72 velocity=79 time=0
EXTRACT: note_on channel=2 note=69 velocity=79 time=0
EXTRACT: note_on channel=2 note=65 velocity=79 time=0
EXTRACT: note_off channel=4 note=65 velocity=63 time=0
EXTRACT: note_off channel=4 note=60 velocity=63 time=0
EXTRACT: note_off channel=4 note=53 velocity=63 time=0
EXTRACT: note_on channel=4 note=84 velocity=63 time=0
EXTRACT: note_on channel=4 note=72 velocity=63 time=0
EXTRACT: note_off channel=9 note=42 velocity=79 time=0
EXTRACT: note_on channel=9 note=42 velocity=79 time=0
EXTRACT: note_on channel=9 note=40 velocity=79 time=0
EXTRACT: note_off channel=2 note=72 velocity=79 time=0.428571
EXTRACT: note_off channel=2 note=69 velocity=79 time=0
EXTRACT: note_off channel=2 note=65 velocity=79 time=0
EXTRACT: note_on channel=2 note=60 velocity=79 time=0
EXTRACT: note_on channel=2 note=53 velocity=79 time=0
EXTRACT: note_off channel=6 note=29 velocity=79 time=0
EXTRACT: note_on channel=6 note=29 velocity=79 time=0
EXTRACT: note_off channel=9 note=42 velocity=79 time=0
EXTRACT: note_off channel=9 note=40 velocity=79 time=0
EXTRACT: note_on channel=9 note=42 velocity=79 time=0
EXTRACT: note_off channel=0 note=81 velocity=79 time=0.32142825
EXTRACT: note_off channel=0 note=77 velocity=63 time=0
EXTRACT: note_off channel=2 note=60 velocity=79 time=0.10714275
EXTRACT: note_off channel=2 note=53 velocity=79 time=0
EXTRACT: note_on channel=2 note=72 velocity=79 time=0
EXTRACT: note_on channel=2 note=69 velocity=79 time=0
EXTRACT: note_on channel=2 note=65 velocity=79 time=0
EXTRACT: note_on channel=2 note=60 velocity=79 time=0
EXTRACT: note_on channel=2 note=53 velocity=79 time=0
EXTRACT: note_on channel=2 note=48 velocity=79 time=0
EXTRACT: note_off channel=6 note=29 velocity=79 time=0
EXTRACT: note_on channel=6 note=29 velocity=79 time=0
EXTRACT: note_off channel=9 note=42 velocity=79 time=0
EXTRACT: note_on channel=9 note=42 velocity=79 time=0
EXTRACT: note_on channel=9 note=35 velocity=79 time=0
EXTRACT: note_off channel=9 note=42 velocity=79 time=0.2142855
EXTRACT: note_off channel=9 note=35 velocity=79 time=0
EXTRACT: note_on channel=9 note=44 velocity=79 time=0
EXTRACT: note_on channel=0 note=86 velocity=79 time=0.2142855
EXTRACT: note_off channel=2 note=72 velocity=79 time=0
EXTRACT: note_off channel=2 note=69 velocity=79 time=0
EXTRACT: note_off channel=2 note=65 velocity=79 time=0
EXTRACT: note_off channel=2 note=60 velocity=79 time=0
EXTRACT: note_off channel=2 note=53 velocity=79 time=0
EXTRACT: note_off channel=2 note=48 velocity=79 time=0
EXTRACT: note_on channel=2 note=60 velocity=79 time=0
EXTRACT: note_off channel=4 note=84 velocity=63 time=0
EXTRACT: note_off channel=4 note=72 velocity=63 time=0
EXTRACT: note_on channel=4 note=86 velocity=63 time=0
EXTRACT: note_on channel=4 note=74 velocity=63 time=0
EXTRACT: note_off channel=9 note=44 velocity=79 time=0
EXTRACT: note_on channel=9 note=42 velocity=79 time=0
EXTRACT: note_off channel=0 note=86 velocity=79 time=0.428571
EXTRACT: note_on channel=0 note=84 velocity=79 time=0
EXTRACT: note_off channel=2 note=60 velocity=79 time=0
EXTRACT: note_on channel=2 note=72 velocity=79 time=0
EXTRACT: note_on channel=2 note=69 velocity=79 time=0
EXTRACT: note_on channel=2 note=65 velocity=79 time=0
EXTRACT: note_off channel=4 note=86 velocity=63 time=0
EXTRACT: note_off channel=4 note=74 velocity=63 time=0
EXTRACT: note_on channel=4 note=87 velocity=63 time=0
EXTRACT: note_on channel=4 note=75 velocity=63 time=0
EXTRACT: note_off channel=9 note=42 velocity=79 time=0
EXTRACT: note_on channel=9 note=42 velocity=79 time=0
EXTRACT: note_on channel=9 note=40 velocity=79 time=0
EXTRACT: note_off channel=0 note=84 velocity=79 time=0.428571
EXTRACT: note_on channel=0 note=82 velocity=79 time=0
EXTRACT: note_off channel=2 note=72 velocity=79 time=0
EXTRACT: note_off channel=2 note=69 velocity=79 time=0
EXTRACT: note_off channel=2 note=65 velocity=79 time=0
EXTRACT: note_on channel=2 note=60 velocity=79 time=0
EXTRACT: note_on channel=2 note=53 velocity=79 time=0
EXTRACT: note_off channel=4 note=87 velocity=63 time=0
EXTRACT: note_off channel=4 note=75 velocity=63 time=0
EXTRACT: note_on channel=4 note=89 velocity=63 time=0
EXTRACT: note_on channel=4 note=77 velocity=63 time=0
EXTRACT: note_off channel=6 note=29 velocity=79 time=0
EXTRACT: note_on channel=6 note=29 velocity=79 time=0
EXTRACT: note_off channel=9 note=42 velocity=79 time=0
EXTRACT: note_off channel=9 note=40 velocity=79 time=0
EXTRACT: note_on channel=9 note=42 velocity=79 time=0
EXTRACT: note_off channel=0 note=82 velocity=79 time=0.428571
EXTRACT: note_on channel=0 note=82 velocity=79 time=0
EXTRACT: note_off channel=2 note=60 velocity=79 time=0
EXTRACT: note_off channel=2 note=53 velocity=79 time=0
EXTRACT: note_on channel=2 note=74 velocity=79 time=0
EXTRACT: note_on channel=2 note=70 velocity=79 time=0
EXTRACT: note_on channel=2 note=67 velocity=79 time=0
EXTRACT: note_on channel=2 note=55 velocity=79 time=0
EXTRACT: note_on channel=2 note=50 velocity=79 time=0
EXTRACT: note_off channel=4 note=89 velocity=63 time=0
EXTRACT: note_off channel=4 note=77 velocity=63 time=0
EXTRACT: note_on channel=4 note=86 velocity=63 time=0
EXTRACT: note_on channel=4 note=55 velocity=63 time=0
EXTRACT: note_on channel=4 note=74 velocity=63 time=0
EXTRACT: note_on channel=4 note=67 velocity=63 time=0
EXTRACT: note_on channel=4 note=62 velocity=63 time=0
EXTRACT: note_off channel=6 note=29 velocity=79 time=0
EXTRACT: note_on channel=6 note=31 velocity=79 time=0
EXTRACT: note_off channel=9 note=42 velocity=79 time=0
EXTRACT: note_on channel=9 note=57 velocity=79 time=0
EXTRACT: note_on channel=9 note=35 velocity=79 time=0
EXTRACT: note_off channel=0 note=82 velocity=79 time=0.2142855
EXTRACT: note_on channel=0 note=79 velocity=79 time=0
EXTRACT: note_on channel=0 note=75 velocity=63 time=0
EXTRACT: note_off channel=9 note=57 velocity=79 time=0
EXTRACT: note_off channel=9 note=35 velocity=79 time=0
EXTRACT: note_on channel=9 note=44 velocity=79 time=0
EXTRACT: note_off channel=0 note=79 velocity=79 time=0.2142855
EXTRACT: note_off channel=0 note=75 velocity=63 time=0
EXTRACT: note_on channel=0 note=82 velocity=79 time=0
EXTRACT: note_on channel=0 note=79 velocity=63 time=0
EXTRACT: note_off channel=2 note=74 velocity=79 time=0
EXTRACT: note_off channel=2 note=70 velocity=79 time=0
EXTRACT: note_off channel=2 note=67 velocity=79 time=0
EXTRACT: note_off channel=2 note=55 velocity=79 time=0
EXTRACT: note_off channel=2 note=50 velocity=79 time=0
EXTRACT: note_on channel=2 note=62 velocity=79 time=0
EXTRACT: note_off channel=9 note=44 velocity=79 time=0
EXTRACT: note_on channel=9 note=42 velocity=79 time=0
EXTRACT: note_off channel=0 note=82 velocity=79 time=0.2142855
EXTRACT: note_off channel=0 note=79 velocity=63 time=0
EXTRACT: note_on channel=0 note=79 velocity=79 time=0
EXTRACT: note_on channel=0 note=75 velocity=63 time=0
EXTRACT: note_off channel=0 note=79 velocity=79 time=0.2142855
EXTRACT: note_off channel=0 note=75 velocity=63 time=0
EXTRACT: note_on channel=0 note=82 velocity=79 time=0
EXTRACT: note_on channel=0 note=79 velocity=63 time=0
EXTRACT: note_off channel=2 note=62 velocity=79 time=0
EXTRACT: note_on channel=2 note=74 velocity=79 time=0
EXTRACT: note_on channel=2 note=70 velocity=79 time=0
EXTRACT: note_on channel=2 note=67 velocity=79 time=0
EXTRACT: note_off channel=9 note=42 velocity=79 time=0
EXTRACT: note_on channel=9 note=42 velocity=79 time=0
EXTRACT: note_on channel=9 note=40 velocity=79 time=0
EXTRACT: note_off channel=0 note=82 velocity=79 time=0.428571
EXTRACT: note_off channel=0 note=79 velocity=63 time=0
EXTRACT: note_on channel=0 note=79 velocity=79 time=0
EXTRACT: note_on channel=0 note=75 velocity=63 time=0
EXTRACT: note_off channel=2 note=74 velocity=79 time=0
EXTRACT: note_off channel=2 note=70 velocity=79 time=0
EXTRACT: note_off channel=2 note=67 velocity=79 time=0
EXTRACT: note_on channel=2 note=62 velocity=79 time=0
EXTRACT: note_on channel=2 note=55 velocity=79 time=0
EXTRACT: note_off channel=4 note=86 velocity=63 time=0
EXTRACT: note_off channel=4 note=55 velocity=63 time=0
EXTRACT: note_off channel=4 note=74 velocity=63 time=0
EXTRACT: note_off channel=4 note=67 velocity=63 time=0
EXTRACT: note_off channel=4 note=62 velocity=63 time=0
EXTRACT: note_on channel=4 note=91 velocity=63 time=0
EXTRACT: note_on channel=4 note=79 velocity=63 time=0
EXTRACT: note_off channel=6 note=31 velocity=79 time=0
EXTRACT: note_on channel=6 note=31 velocity=79 time=0
EXTRACT: note_off channel=9 note=42 velocity=79 time=0
EXTRACT: note_off channel=9 note=40 velocity=79 time=0
EXTRACT: note_on channel=9 note=42 velocity=79 time=0
EXTRACT: note_off channel=0 note=79 velocity=79 time=0.2142855
EXTRACT: note_off channel=0 note=75 velocity=63 time=0
EXTRACT: note_on channel=0 note=82 velocity=79 time=0
EXTRACT: note_on channel=0 note=79 velocity=63 time=0
EXTRACT: note_off channel=0 note=82 velocity=79 time=0.2142855
EXTRACT: note_off channel=0 note=79 velocity=63 time=0
EXTRACT: note_off channel=2 note=62 velocity=79 time=0
EXTRACT: note_off channel=2 note=55 velocity=79 time=0
EXTRACT: note_on channel=2 note=70 velocity=79 time=0
EXTRACT: note_on channel=2 note=67 velocity=79 time=0
EXTRACT: note_on channel=2 note=63 velocity=79 time=0
EXTRACT: note_on channel=2 note=51 velocity=79 time=0
EXTRACT: note_on channel=2 note=46 velocity=79 time=0
EXTRACT: note_off channel=4 note=91 velocity=63 time=0
EXTRACT: note_off channel=4 note=79 velocity=63 time=0
EXTRACT: note_on channel=4 note=63 velocity=63 time=0
EXTRACT: note_on channel=4 note=58 velocity=63 time=0
EXTRACT: note_on channel=4 note=51 velocity=63 time=0
EXTRACT: note_off channel=6 note=31 velocity=79 time=0
EXTRACT: note_on channel=6 note=27 velocity=79 time=0
EXTRACT: note_off channel=9 note=42 velocity=79 time=0
EXTRACT: note_on channel=9 note=42 velocity=79 time=0
EXTRACT: note_on channel=9 note=35 velocity=79 time=0
EXTRACT: note_on channel=0 note=89 velocity=79 time=0.2142855
EXTRACT: note_on channel=0 note=86 velocity=63 time=0
EXTRACT: note_off channel=9 note=42 velocity=79 time=0
EXTRACT: note_off channel=9 note=35 velocity=79 time=0
EXTRACT: note_on channel=9 note=44 velocity=79 time=0
EXTRACT: note_off channel=2 note=70 velocity=79 time=0.2142855
EXTRACT: note_off channel=2 note=67 velocity=79 time=0
EXTRACT: note_off channel=2 note=63 velocity=79 time=0
EXTRACT: note_off channel=2 note=51 velocity=79 time=0
EXTRACT: note_off channel=2 note=46 velocity=79 time=0
EXTRACT: note_on channel=2 note=58 velocity=79 time=0
EXTRACT: note_off channel=9 note=44 velocity=79 time=0
EXTRACT: note_on channel=9 note=42 velocity=79 time=0
EXTRACT: note_off channel=0 note=89 velocity=79 time=0.2142855
EXTRACT: note_off channel=0 note=86 velocity=63 time=0
EXTRACT: note_on channel=0 note=86 velocity=79 time=0
EXTRACT: note_on channel=0 note=82 velocity=63 time=0
EXTRACT: note_off channel=2 note=58 velocity=79 time=0.2142855
EXTRACT: note_on channel=2 note=70 velocity=79 time=0
EXTRACT: note_on channel=2 note=67 velocity=79 time=0
EXTRACT: note_on channel=2 note=63 velocity=79 time=0
EXTRACT: note_off channel=4 note=63 velocity=63 time=0
EXTRACT: note_off channel=4 note=58 velocity=63 time=0
EXTRACT: note_off channel=4 note=51 velocity=63 time=0
EXTRACT: note_on channel=4 note=86 velocity=63 time=0
EXTRACT: note_on channel=4 note=74 velocity=63 time=0
EXTRACT: note_off channel=9 note=42 velocity=79 time=0
EXTRACT: note_on channel=9 note=42 velocity=79 time=0
EXTRACT: note_on channel=9 note=40 velocity=79 time=0
EXTRACT: note_off channel=0 note=86 velocity=79 time=0.2142855
EXTRACT: note_off channel=0 note=82 velocity=63 time=0
EXTRACT: note_on channel=0 note=86 velocity=79 time=0
EXTRACT: note_on channel=0 note=82 velocity=63 time=0
EXTRACT: note_off channel=2 note=70 velocity=79 time=0.2142855
EXTRACT: note_off channel=2 note=67 velocity=79 time=0
EXTRACT: note_off channel=2 note=63 velocity=79 time=0
EXTRACT: note_on channel=2 note=58 velocity=79 time=0
EXTRACT: note_off channel=6 note=27 velocity=79 time=0
EXTRACT: note_on channel=6 note=27 velocity=79 time=0
EXTRACT: note_off channel=9 note=42 velocity=79 time=0
EXTRACT: note_off channel=9 note=40 velocity=79 time=0
EXTRACT: note_on channel=9 note=46 velocity=79 time=0
EXTRACT: note_off channel=0 note=86 velocity=79 time=0.2142855
EXTRACT: note_off channel=0 note=82 velocity=63 time=0
EXTRACT: note_on channel=0 note=86 velocity=79 time=0
EXTRACT: note_on channel=0 note=82 velocity=63 time=0
EXTRACT: note_off channel=2 note=58 velocity=79 time=0.2142855
EXTRACT: note_on channel=2 note=72 velocity=79 time=0
EXTRACT: note_on channel=2 note=69 velocity=79 time=0
EXTRACT: note_on channel=2 note=65 velocity=79 time=0
EXTRACT: note_on channel=2 note=53 velocity=79 time=0
EXTRACT: note_on channel=2 note=48 velocity=79 time=0
EXTRACT: note_off channel=4 note=86 velocity=63 time=0
EXTRACT: note_off channel=4 note=74 velocity=63 time=0
EXTRACT: note_on channel=4 note=81 velocity=63 time=0
EXTRACT: note_on channel=4 note=72 velocity=63 time=0
EXTRACT: note_on channel=4 note=65 velocity=63 time=0
EXTRACT: note_on channel=4 note=60 velocity=63 time=0
EXTRACT: note_on channel=4 note=53 velocity=63 time=0
EXTRACT: note_off channel=6 note=27 velocity=79 time=0
EXTRACT: note_on channel=6 note=29 velocity=79 time=0
EXTRACT: note_off channel=9 note=46 velocity=79 time=0
EXTRACT: note_on channel=9 note=49 velocity=79 time=0
EXTRACT: note_on channel=9 note=35 velocity=79 time=0
EXTRACT: note_off channel=0 note=86 velocity=79 time=0.2142855
EXTRACT: note_off channel=0 note=82 velocity=63 time=0
EXTRACT: note_on channel=0 note=84 velocity=79 time=0
EXTRACT: note_on channel=0 note=81 velocity=63 time=0
EXTRACT: note_off channel=9 note=49 velocity=79 time=0
EXTRACT: note_off channel=9 note=35 velocity=79 time=0
EXTRACT: note_on channel=9 note=44 velocity=79 time=0
EXTRACT: note_on channel=9 note=40 velocity=79 time=0
EXTRACT: note_off channel=2 note=72 velocity=79 time=0.2142855
EXTRACT: note_off channel=2 note=69 velocity=79 time=0
EXTRACT: note_off channel=2 note=65 velocity=79 time=0
EXTRACT: note_off channel=2 note=53 velocity=79 time=0
EXTRACT: note_off channel=2 note=48 velocity=79 time=0
EXTRACT: note_on channel=2 note=60 velocity=79 time=0
EXTRACT: note_off channel=9 note=44 velocity=79 time=0
EXTRACT: note_off channel=9 note=40 velocity=79 time=0
EXTRACT: note_on channel=9 note=42 velocity=79 time=0
EXTRACT: note_off channel=9 note=42 velocity=79 time=0.2142855
EXTRACT: note_on channel=9 note=35 velocity=79 time=0
EXTRACT: note_off channel=2 note=60 velocity=79 time=0.2142855
EXTRACT: note_on channel=2 note=72 velocity=79 time=0
EXTRACT: note_on channel=2 note=69 velocity=79 time=0
EXTRACT: note_on channel=2 note=65 velocity=79 time=0
EXTRACT: note_off channel=9 note=35 velocity=79 time=0
EXTRACT: note_on channel=9 note=42 velocity=79 time=0
EXTRACT: note_on channel=9 note=40 velocity=79 time=0
EXTRACT: note_off channel=2 note=72 velocity=79 time=0.428571
EXTRACT: note_off channel=2 note=69 velocity=79 time=0
EXTRACT: note_off channel=2 note=65 velocity=79 time=0
EXTRACT: note_on channel=2 note=60 velocity=79 time=0
EXTRACT: note_on channel=2 note=53 velocity=79 time=0
EXTRACT: note_off channel=6 note=29 velocity=79 time=0
EXTRACT: note_on channel=6 note=29 velocity=79 time=0
EXTRACT: note_off channel=9 note=42 velocity=79 time=0
EXTRACT: note_off channel=9 note=40 velocity=79 time=0
EXTRACT: note_on channel=9 note=42 velocity=79 time=0
EXTRACT: note_off channel=0 note=84 velocity=79 time=0.428571
EXTRACT: note_off channel=0 note=81 velocity=63 time=0
EXTRACT: note_off channel=2 note=60 velocity=79 time=0
EXTRACT: note_off channel=2 note=53 velocity=79 time=0
EXTRACT: note_on channel=2 note=69 velocity=79 time=0
EXTRACT: note_on channel=2 note=66 velocity=79 time=0
EXTRACT: note_on channel=2 note=62 velocity=79 time=0
EXTRACT: note_on channel=2 note=50 velocity=79 time=0
EXTRACT: note_on channel=2 note=45 velocity=79 time=0
EXTRACT: note_off channel=4 note=81 velocity=63 time=0
EXTRACT: note_off channel=4 note=72 velocity=63 time=0
EXTRACT: note_off channel=4 note=65 velocity=63 time=0
EXTRACT: note_off channel=4 note=60 velocity=63 time=0
EXTRACT: note_off channel=4 note=53 velocity=63 time=0
EXTRACT: note_on channel=4 note=50 velocity=63 time=0
EXTRACT: note_on channel=4 note=62 velocity=63 time=0
EXTRACT: note_on channel=4 note=57 velocity=63 time=0
EXTRACT: note_off channel=6 note=29 velocity=79 time=0
EXTRACT: note_on channel=6 note=26 velocity=79 time=0
EXTRACT: note_off channel=9 note=42 velocity=79 time=0
EXTRACT: note_on channel=9 note=42 velocity=79 time=0
EXTRACT: note_on channel=9 note=35 velocity=79 time=0
EXTRACT: note_off channel=9 note=42 velocity=79 time=0.2142855
EXTRACT: note_off channel=9 note=35 velocity=79 time=0
EXTRACT: note_on channel=9 note=44 velocity=79 time=0
EXTRACT: note_on channel=9 note=40 velocity=79 time=0
EXTRACT: note_off channel=2 note=69 velocity=79 time=0.2142855
EXTRACT: note_off channel=2 note=66 velocity=79 time=0
EXTRACT: note_off channel=2 note=62 velocity=79 time=0
EXTRACT: note_off channel=2 note=50 velocity=79 time=0
EXTRACT: note_off channel=2 note=45 velocity=79 time=0
EXTRACT: note_on channel=2 note=57 velocity=79 time=0
EXTRACT: note_off channel=4 note=50 velocity=63 time=0
EXTRACT: note_off channel=4 note=62 velocity=63 time=0
EXTRACT: note_off channel=4 note=57 velocity=63 time=0
EXTRACT: note_on channel=4 note=78 velocity=63 time=0
EXTRACT: note_off channel=9 note=44 velocity=79 time=0
EXTRACT: note_off channel=9 note=40 velocity=79 time=0
EXTRACT: note_on channel=9 note=42 velocity=79 time=0
EXTRACT: note_on channel=0 note=82 velocity=79 time=0.2142855
EXTRACT: note_off channel=0 note=82 velocity=79 time=0.2142855
EXTRACT: note_on channel=0 note=84 velocity=79 time=0
EXTRACT: note_off channel=2 note=57 velocity=79 time=0
EXTRACT: note_on channel=2 note=69 velocity=79 time=0
EXTRACT: note_on channel=2 note=66 velocity=79 time=0
EXTRACT: note_on channel=2 note=62 velocity=79 time=0
EXTRACT: note_off channel=4 note=78 velocity=63 time=0
EXTRACT: note_on channel=4 note=79 velocity=63 time=0
EXTRACT: note_off channel=9 note=42 velocity=79 time=0
EXTRACT: note_on channel=9 note=40 velocity=79 time=0
EXTRACT: note_off channel=9 note=40 velocity=79 time=0.2142855
EXTRACT: note_on channel=9 note=45 velocity=79 time=0
EXTRACT: note_off channel=0 note=84 velocity=79 time=0.2142855
EXTRACT: note_on channel=0 note=82 velocity=79 time=0
EXTRACT: note_off channel=2 note=69 velocity=79 time=0
EXTRACT: note_off channel=2 note=66 velocity=79 time=0
EXTRACT: note_off channel=2 note=62 velocity=79 time=0
EXTRACT: note_on channel=2 note=57 velocity=79 time=0
EXTRACT: note_off channel=4 note=79 velocity=63 time=0
EXTRACT: note_on channel=4 note=81 velocity=63 time=0
EXTRACT: note_off channel=6 note=26 velocity=79 time=0
EXTRACT: note_on channel=6 note=26 velocity=79 time=0
EXTRACT: note_off channel=9 note=45 velocity=79 time=0
EXTRACT: note_on channel=9 note=43 velocity=79 time=0
EXTRACT: note_on channel=9 note=41 velocity=79 time=0
EXTRACT: note_off channel=0 note=82 velocity=79 time=0.2142855
EXTRACT: note_on channel=0 note=86 velocity=79 time=0
EXTRACT: note_off channel=9 note=43 velocity=79 time=0
EXTRACT: note_off channel=9 note=41 velocity=79 time=0
EXTRACT: note_on channel=9 note=35 velocity=79 time=0
EXTRACT: note_off channel=2 note=57 velocity=79 time=0.2142855
EXTRACT: note_on channel=2 note=67 velocity=79 time=0
EXTRACT: note_on channel=2 note=63 velocity=79 time=0
EXTRACT: note_on channel=2 note=60 velocity=79 time=0
EXTRACT: note_on channel=2 note=48 velocity=79 time=0
EXTRACT: note_on channel=2 note=43 velocity=79 time=0
EXTRACT: note_off channel=4 note=81 velocity=63 time=0
EXTRACT: note_on channel=4 note=82 velocity=63 time=0
EXTRACT: note_on channel=4 note=72 velocity=63 time=0
EXTRACT: note_on channel=4 note=55 velocity=63 time=0
EXTRACT: note_on channel=4 note=60 velocity=63 time=0
EXTRACT: note_on channel=4 note=48 velocity=63 time=0
EXTRACT: note_off channel=6 note=26 velocity=79 time=0
EXTRACT: note_on channel=6 note=24 velocity=79 time=0
EXTRACT: note_off channel=9 note=35 velocity=79 time=0
EXTRACT: note_on channel=9 note=49 velocity=79 time=0
EXTRACT: note_on channel=9 note=35 velocity=79 time=0
EXTRACT: note_off channel=0 note=86 velocity=79 time=0.2142855
EXTRACT: note_on channel=0 note=84 velocity=79 time=0
EXTRACT: note_off channel=9 note=49 velocity=79 time=0
EXTRACT: note_off channel=9 note=35 velocity=79 time=0
EXTRACT: note_on channel=9 note=44 velocity=79 time=0
EXTRACT: note_off channel=0 note=84 velocity=79 time=0.2142855
EXTRACT: note_on channel=0 note=86 velocity=79 time=0
EXTRACT: note_on channel=0 note=82 velocity=63 time=0
EXTRACT: note_off channel=2 note=67 velocity=79 time=0
EXTRACT: note_off channel=2 note=63 velocity=79 time=0
EXTRACT: note_off channel=2 note=60 velocity=79 time=0
EXTRACT: note_off channel=2 note=48 velocity=79 time=0
EXTRACT: note_off channel=2 note=43 velocity=79 time=0
EXTRACT: note_on channel=2 note=55 velocity=79 time=0
EXTRACT: note_off channel=9 note=44 velocity=79 time=0
EXTRACT: note_on channel=9 note=42 velocity=79 time=0
EXTRACT: note_off channel=0 note=86 velocity=79 time=0.2142855
EXTRACT: note_off channel=0 note=82 velocity=63 time=0
EXTRACT: note_on channel=0 note=84 velocity=79 time=0
EXTRACT: note_on channel=0 note=81 velocity=63 time=0
EXTRACT: note_off channel=0 note=84 velocity=79 time=0.2142855
EXTRACT: note_off channel=0 note=81 velocity=63 time=0
EXTRACT: note_on channel=0 note=86 velocity=79 time=0
EXTRACT: note_on channel=0 note=82 velocity=63 time=0
EXTRACT: note_off channel=2 note=55 velocity=79 time=0
EXTRACT: note_on channel=2 note=67 velocity=79 time=0
EXTRACT: note_on channel=2 note=63 velocity=79 time=0
EXTRACT: note_on channel=2 note=60 velocity=79 time=0
EXTRACT: note_off channel=9 note=42 velocity=79 time=0
EXTRACT: note_on channel=9 note=42 velocity=79 time=0
EXTRACT: note_on channel=9 note=40 velocity=79 time=0
EXTRACT: note_off channel=0 note=86 velocity=79 time=0.2142855
EXTRACT: note_off channel=0 note=82 velocity=63 time=0
EXTRACT: note_on channel=0 note=84 velocity=79 time=0
EXTRACT: note_on channel=0 note=81 velocity=63 time=0
EXTRACT: note_off channel=0 note=84 velocity=79 time=0.2142855
EXTRACT: note_off channel=0 note=81 velocity=63 time=0
EXTRACT: note_on channel=0 note=86 velocity=79 time=0
EXTRACT: note_on channel=0 note=82 velocity=63 time=0
EXTRACT: note_off channel=2 note=67 velocity=79 time=0
EXTRACT: note_off channel=2 note=63 velocity=79 time=0
EXTRACT: note_off channel=2 note=60 velocity=79 time=0
EXTRACT: note_on channel=2 note=55 velocity=79 time=0
EXTRACT: note_off channel=6 note=24 velocity=79 time=0
EXTRACT: note_on channel=6 note=24 velocity=79 time=0
EXTRACT: note_off channel=9 note=42 velocity=79 time=0
EXTRACT: note_off channel=9 note=40 velocity=79 time=0
EXTRACT: note_on channel=9 note=42 velocity=79 time=0
EXTRACT: note_off channel=2 note=55 velocity=79 time=0.2142855
EXTRACT: note_on channel=2 note=67 velocity=79 time=0
EXTRACT: note_off channel=0 note=86 velocity=79 time=0.2142855
EXTRACT: note_off channel=0 note=82 velocity=63 time=0
EXTRACT: note_on channel=0 note=86 velocity=79 time=0
EXTRACT: note_on channel=0 note=82 velocity=63 time=0
EXTRACT: note_off channel=2 note=67 velocity=79 time=0
EXTRACT: note_on channel=2 note=69 velocity=79 time=0
EXTRACT: note_on channel=2 note=65 velocity=79 time=0
EXTRACT: note_on channel=2 note=62 velocity=79 time=0
EXTRACT: note_on channel=2 note=50 velocity=79 time=0
EXTRACT: note_on channel=2 note=45 velocity=79 time=0
EXTRACT: note_off channel=4 note=82 velocity=63 time=0
EXTRACT: note_off channel=4 note=72 velocity=63 time=0
EXTRACT: note_off channel=4 note=55 velocity=63 time=0
EXTRACT: note_off channel=4 note=60 velocity=63 time=0
EXTRACT: note_off channel=4 note=48 velocity=63 time=0
EXTRACT: note_on channel=4 note=84 velocity=63 time=0
EXTRACT: note_on channel=4 note=74 velocity=63 time=0
EXTRACT: note_on channel=4 note=50 velocity=63 time=0
EXTRACT: note_on channel=4 note=62 velocity=63 time=0
EXTRACT: note_on channel=4 note=57 velocity=63 time=0
EXTRACT: note_off channel=6 note=24 velocity=79 time=0
EXTRACT: note_on channel=6 note=26 velocity=79 time=0
EXTRACT: note_off channel=9 note=42 velocity=79 time=0
EXTRACT: note_on channel=9 note=57 velocity=79 time=0
EXTRACT: note_on channel=9 note=35 velocity=79 time=0
EXTRACT: note_off channel=0 note=86 velocity=79 time=0.2142855
EXTRACT: note_off channel=0 note=82 velocity=63 time=0
EXTRACT: note_on channel=0 note=82 velocity=79 time=0
EXTRACT: note_on channel=0 note=79 velocity=63 time=0
EXTRACT: note_off channel=9 note=57 velocity=79 time=0
EXTRACT: note_off channel=9 note=35 velocity=79 time=0
EXTRACT: note_on channel=9 note=44 velocity=79 time=0
EXTRACT: note_off channel=0 note=82 velocity=79 time=0.2142855
EXTRACT: note_off channel=0 note=79 velocity=63 time=0
EXTRACT: note_off channel=2 note=69 velocity=79 time=0
EXTRACT: note_off channel=2 note=65 velocity=79 time=0
EXTRACT: note_off channel=2 note=62 velocity=79 time=0
EXTRACT: note_off channel=2 note=50 velocity=79 time=0
EXTRACT: note_off channel=2 note=45 velocity=79 time=0
EXTRACT: note_on channel=2 note=57 velocity=79 time=0
EXTRACT: note_off channel=9 note=44 velocity=79 time=0
EXTRACT: note_on channel=9 note=42 velocity=79 time=0
EXTRACT: note_on channel=0 note=82 velocity=79 time=0.2142855
EXTRACT: note_on channel=0 note=79 velocity=63 time=0
EXTRACT: note_off channel=0 note=82 velocity=79 time=0.2142855
EXTRACT: note_off channel=0 note=79 velocity=63 time=0
EXTRACT: note_on channel=0 note=86 velocity=79 time=0
EXTRACT: note_on channel=0 note=82 velocity=63 time=0
EXTRACT: note_off channel=2 note=57 velocity=79 time=0
EXTRACT: note_on channel=2 note=69 velocity=79 time=0
EXTRACT: note_on channel=2 note=65 velocity=79 time=0
EXTRACT: note_on channel=2 note=62 velocity=79 time=0
EXTRACT: note_off channel=4 note=84 velocity=63 time=0
EXTRACT: note_off channel=4 note=74 velocity=63 time=0
EXTRACT: note_off channel=4 note=50 velocity=63 time=0
EXTRACT: note_off channel=4 note=62 velocity=63 time=0
EXTRACT: note_off channel=4 note=57 velocity=63 time=0
EXTRACT: note_on channel=4 note=86 velocity=63 time=0
EXTRACT: note_on channel=4 note=77 velocity=63 time=0
EXTRACT: note_off channel=9 note=42 velocity=79 time=0
EXTRACT: note_on channel=9 note=42 velocity=79 time=0
EXTRACT: note_on channel=9 note=40 velocity=79 time=0
EXTRACT: note_off channel=0 note=86 velocity=79 time=0.428571
EXTRACT: note_off channel=0 note=82 velocity=63 time=0
EXTRACT: note_on channel=0 note=86 velocity=79 time=0
EXTRACT: note_on channel=0 note=82 velocity=63 time=0
EXTRACT: note_off channel=2 note=69 velocity=79 time=0
EXTRACT: note_off channel=2 note=65 velocity=79 time=0
EXTRACT: note_off channel=2 note=62 velocity=79 time=0
EXTRACT: note_on channel=2 note=57 velocity=79 time=0
EXTRACT: note_off channel=6 note=26 velocity=79 time=0
EXTRACT: note_on channel=6 note=26 velocity=79 time=0
EXTRACT: note_off channel=9 note=42 velocity=79 time=0
EXTRACT: note_off channel=9 note=40 velocity=79 time=0
EXTRACT: note_on channel=9 note=42 velocity=79 time=0
EXTRACT: note_off channel=0 note=86 velocity=79 time=0.2142855
EXTRACT: note_off channel=0 note=82 velocity=63 time=0
EXTRACT: note_on channel=0 note=86 velocity=79 time=0
EXTRACT: note_on channel=0 note=82 velocity=63 time=0
EXTRACT: note_off channel=2 note=57 velocity=79 time=0.2142855
EXTRACT: note_on channel=2 note=72 velocity=79 time=0
EXTRACT: note_on channel=2 note=69 velocity=79 time=0
EXTRACT: note_on channel=2 note=65 velocity=79 time=0
EXTRACT: note_on channel=2 note=53 velocity=79 time=0
EXTRACT: note_on channel=2 note=48 velocity=79 time=0
EXTRACT: note_off channel=4 note=86 velocity=63 time=0
EXTRACT: note_off channel=4 note=77 velocity=63 time=0
EXTRACT: note_on channel=4 note=86 velocity=63 time=0
EXTRACT: note_on channel=4 note=65 velocity=63 time=0
EXTRACT: note_on channel=4 note=60 velocity=63 time=0
EXTRACT: note_on channel=4 note=53 velocity=63 time=0
EXTRACT: note_off channel=6 note=26 velocity=79 time=0
EXTRACT: note_on channel=6 note=29 velocity=79 time=0
EXTRACT: note_off channel=9 note=42 velocity=79 time=0
EXTRACT: note_on channel=9 note=57 velocity=79 time=0
EXTRACT: note_on channel=9 note=35 velocity=79 time=0
EXTRACT: note_off channel=0 note=86 velocity=79 time=0.2142855
EXTRACT: note_off channel=0 note=82 velocity=63 time=0
EXTRACT: note_on channel=0 note=84 velocity=79 time=0
EXTRACT: note_on channel=0 note=81 velocity=63 time=0
EXTRACT: note_off channel=9 note=57 velocity=79 time=0
EXTRACT: note_off channel=9 note=35 velocity=79 time=0
EXTRACT: note_on channel=9 note=44 velocity=79 time=0
EXTRACT: note_off channel=2 note=72 velocity=79 time=0.2142855
EXTRACT: note_off channel=2 note=69 velocity=79 time=0
EXTRACT: note_off channel=2 note=65 velocity=79 time=0
EXTRACT: note_off channel=2 note=53 velocity=79 time=0
EXTRACT: note_off channel=2 note=48 velocity=79 time=0
EXTRACT: note_on channel=2 note=60 velocity=79 time=0
EXTRACT: note_off channel=4 note=86 velocity=63 time=0
EXTRACT: note_off channel=4 note=65 velocity=63 time=0
EXTRACT: note_off channel=4 note=60 velocity=63 time=0
EXTRACT: note_off channel=4 note=53 velocity=63 time=0
EXTRACT: note_on channel=4 note=87 velocity=63 time=0
EXTRACT: note_off channel=9 note=44 velocity=79 time=0
EXTRACT: note_on channel=9 note=42 velocity=79 time=0
EXTRACT: note_off channel=2 note=60 velocity=79 time=0.428571
EXTRACT: note_on channel=2 note=72 velocity=79 time=0
EXTRACT: note_on channel=2 note=69 velocity=79 time=0
EXTRACT: note_on channel=2 note=65 velocity=79 time=0
EXTRACT: note_off channel=9 note=42 velocity=79 time=0
EXTRACT: note_on channel=9 note=42 velocity=79 time=0
EXTRACT: note_on channel=9 note=40 velocity=79 time=0
EXTRACT: note_off channel=2 note=72 velocity=79 time=0.428571
EXTRACT: note_off channel=2 note=69 velocity=79 time=0
EXTRACT: note_off channel=2 note=65 velocity=79 time=0
EXTRACT: note_on channel=2 note=60 velocity=79 time=0
EXTRACT: note_on channel=2 note=53 velocity=79 time=0
EXTRACT: note_off channel=4 note=87 velocity=63 time=0
EXTRACT: note_on channel=4 note=89 velocity=63 time=0
EXTRACT: note_off channel=6 note=29 velocity=79 time=0
EXTRACT: note_on channel=6 note=29 velocity=79 time=0
EXTRACT: note_off channel=9 note=42 velocity=79 time=0
EXTRACT: note_off channel=9 note=40 velocity=79 time=0
EXTRACT: note_on channel=9 note=42 velocity=79 time=0
EXTRACT: note_off channel=0 note=84 velocity=79 time=0.428571
EXTRACT: note_off channel=0 note=81 velocity=63 time=0
EXTRACT: note_off channel=2 note=60 velocity=79 time=0
EXTRACT: note_off channel=2 note=53 velocity=79 time=0
EXTRACT: note_on channel=2 note=69 velocity=79 time=0
EXTRACT: note_on channel=2 note=65 velocity=79 time=0
EXTRACT: note_on channel=2 note=62 velocity=79 time=0
EXTRACT: note_on channel=2 note=50 velocity=79 time=0
EXTRACT: note_on channel=2 note=45 velocity=79 time=0
EXTRACT: note_off channel=4 note=89 velocity=63 time=0
EXTRACT: note_on channel=4 note=91 velocity=63 time=0
EXTRACT: note_on channel=4 note=50 velocity=63 time=0
EXTRACT: note_on channel=4 note=62 velocity=63 time=0
EXTRACT: note_on channel=4 note=57 velocity=63 time=0
EXTRACT: note_off channel=6 note=29 velocity=79 time=0
EXTRACT: note_on channel=6 note=26 velocity=79 time=0
EXTRACT: note_off channel=9 note=42 velocity=79 time=0
EXTRACT: note_on channel=9 note=42 velocity=79 time=0
EXTRACT: note_on channel=9 note=35 velocity=79 time=0
EXTRACT: note_off channel=9 note=42 velocity=79 time=0.2142855
EXTRACT: note_off channel=9 note=35 velocity=79 time=0
EXTRACT: note_on channel=9 note=44 velocity=79 time=0
EXTRACT: note_off channel=2 note=69 velocity=79 time=0.2142855
EXTRACT: note_off channel=2 note=65 velocity=79 time=0
EXTRACT: note_off channel=2 note=62 velocity=79 time=0
EXTRACT: note_off channel=2 note=50 velocity=79 time=0
EXTRACT: note_off channel=2 note=45 velocity=79 time=0
EXTRACT: note_on channel=2 note=57 velocity=79 time=0
EXTRACT: note_off channel=4 note=91 velocity=63 time=0
EXTRACT: note_off channel=4 note=50 velocity=63 time=0
EXTRACT: note_off channel=4 note=62 velocity=63 time=0
EXTRACT: note_off channel=4 note=57 velocity=63 time=0
EXTRACT: note_on channel=4 note=93 velocity=63 time=0
EXTRACT: note_off channel=9 note=44 velocity=79 time=0
EXTRACT: note_on channel=9 note=42 velocity=79 time=0
EXTRACT: note_on channel=0 note=82 velocity=79 time=0.2142855
EXTRACT: note_on channel=0 note=79 velocity=63 time=0
EXTRACT: note_off channel=0 note=82 velocity=79 time=0.2142855
EXTRACT: note_off channel=0 note=79 velocity=63 time=0
EXTRACT: note_on channel=0 note=84 velocity=79 time=0
EXTRACT: note_on channel=0 note=81 velocity=63 time=0
EXTRACT: note_off channel=2 note=57 velocity=79 time=0
EXTRACT: note_on channel=2 note=69 velocity=79 time=0
EXTRACT: note_on channel=2 note=65 velocity=79 time=0
EXTRACT: note_on channel=2 note=62 velocity=79 time=0
EXTRACT: note_off channel=9 note=42 velocity=79 time=0
EXTRACT: note_on channel=9 note=42 velocity=79 time=0
EXTRACT: note_on channel=9 note=40 velocity=79 time=0
EXTRACT: note_off channel=0 note=84 velocity=79 time=0.428571
EXTRACT: note_off channel=0 note=81 velocity=63 time=0
EXTRACT: note_on channel=0 note=82 velocity=79 time=0
EXTRACT: note_on channel=0 note=79 velocity=63 time=0
EXTRACT: note_off channel=2 note=69 velocity=79 time=0
EXTRACT: note_off channel=2 note=65 velocity=79 time=0
EXTRACT: note_off channel=2 note=62 velocity=79 time=0
EXTRACT: note_on channel=2 note=57 velocity=79 time=0
EXTRACT: note_off channel=6 note=26 velocity=79 time=0
EXTRACT: note_on channel=6 note=26 velocity=79 time=0
EXTRACT: note_off channel=9 note=42 velocity=79 time=0
EXTRACT: note_off channel=9 note=40 velocity=79 time=0
EXTRACT: note_on channel=9 note=42 velocity=79 time=0
EXTRACT: note_off channel=0 note=82 velocity=79 time=0.2142855
EXTRACT: note_off channel=0 note=79 velocity=63 time=0
EXTRACT: note_on channel=0 note=86 velocity=79 time=0
EXTRACT: note_on channel=0 note=82 velocity=63 time=0
EXTRACT: note_off channel=2 note=57 velocity=79 time=0.2142855
EXTRACT: note_on channel=2 note=70 velocity=79 time=0
EXTRACT: note_on channel=2 note=67 velocity=79 time=0
EXTRACT: note_on channel=2 note=63 velocity=79 time=0
EXTRACT: note_on channel=2 note=51 velocity=79 time=0
EXTRACT: note_on channel=2 note=46 velocity=79 time=0
EXTRACT: note_off channel=4 note=93 velocity=63 time=0
EXTRACT: note_on channel=4 note=94 velocity=63 time=0
EXTRACT: note_on channel=4 note=63 velocity=63 time=0
EXTRACT: note_on channel=4 note=58 velocity=63 time=0
EXTRACT: note_on channel=4 note=51 velocity=63 time=0
EXTRACT: note_off channel=6 note=26 velocity=79 time=0
EXTRACT: note_on channel=6 note=27 velocity=79 time=0
EXTRACT: note_off channel=9 note=42 velocity=79 time=0
EXTRACT: note_on channel=9 note=57 velocity=79 time=0
EXTRACT: note_on channel=9 note=35 velocity=79 time=0
EXTRACT: note_off channel=9 note=57 velocity=79 time=0.2142855
EXTRACT: note_off channel=9 note=35 velocity=79 time=0
EXTRACT: note_on channel=9 note=44 velocity=79 time=0
EXTRACT: note_off channel=0 note=86 velocity=79 time=0.2142855
EXTRACT: note_off channel=0 note=82 velocity=63 time=0
EXTRACT: note_on channel=0 note=84 velocity=79 time=0
EXTRACT: note_on channel=0 note=81 velocity=63 time=0
EXTRACT: note_off channel=2 note=70 velocity=79 time=0
EXTRACT: note_off channel=2 note=67 velocity=79 time=0
EXTRACT: note_off channel=2 note=63 velocity=79 time=0
EXTRACT: note_off channel=2 note=51 velocity=79 time=0
EXTRACT: note_off channel=2 note=46 velocity=79 time=0
EXTRACT: note_on channel=2 note=58 velocity=79 time=0
EXTRACT: note_off channel=6 note=27 velocity=79 time=0
EXTRACT: note_on channel=6 note=27 velocity=79 time=0
EXTRACT: note_off channel=9 note=44 velocity=79 time=0
EXTRACT: note_on channel=9 note=42 velocity=79 time=0
EXTRACT: note_off channel=0 note=84 velocity=79 time=0.2142855
EXTRACT: note_off channel=0 note=81 velocity=63 time=0
EXTRACT: note_on channel=0 note=84 velocity=79 time=0.2142855
EXTRACT: note_on channel=0 note=81 velocity=63 time=0
EXTRACT: note_off channel=2 note=58 velocity=79 time=0
EXTRACT: note_on channel=2 note=70 velocity=79 time=0
EXTRACT: note_on channel=2 note=67 velocity=79 time=0
EXTRACT: note_on channel=2 note=63 velocity=79 time=0
EXTRACT: note_off channel=6 note=27 velocity=79 time=0
EXTRACT: note_on channel=6 note=27 velocity=79 time=0
EXTRACT: note_off channel=9 note=42 velocity=79 time=0
EXTRACT: note_on channel=9 note=42 velocity=79 time=0
EXTRACT: note_on channel=9 note=40 velocity=79 time=0
EXTRACT: note_off channel=2 note=70 velocity=79 time=0.428571
EXTRACT: note_off channel=2 note=67 velocity=79 time=0
EXTRACT: note_off channel=2 note=63 velocity=79 time=0
EXTRACT: note_on channel=2 note=58 velocity=79 time=0
EXTRACT: note_off channel=6 note=27 velocity=79 time=0
EXTRACT: note_on channel=6 note=27 velocity=79 time=0
EXTRACT: note_off channel=9 note=42 velocity=79 time=0
EXTRACT: note_off channel=9 note=40 velocity=79 time=0
EXTRACT: note_on channel=9 note=42 velocity=79 time=0
EXTRACT: note_off channel=0 note=84 velocity=79 time=0.2142855
EXTRACT: note_off channel=0 note=81 velocity=63 time=0
EXTRACT: note_on channel=0 note=82 velocity=79 time=0
EXTRACT: note_on channel=0 note=79 velocity=63 time=0
EXTRACT: note_off channel=2 note=58 velocity=79 time=0.2142855
EXTRACT: note_on channel=2 note=70 velocity=79 time=0
EXTRACT: note_on channel=2 note=67 velocity=79 time=0
EXTRACT: note_on channel=2 note=63 velocity=79 time=0
EXTRACT: note_on channel=2 note=51 velocity=79 time=0
EXTRACT: note_on channel=2 note=46 velocity=79 time=0
EXTRACT: note_off channel=4 note=94 velocity=63 time=0
EXTRACT: note_off channel=4 note=63 velocity=63 time=0
EXTRACT: note_off channel=4 note=58 velocity=63 time=0
EXTRACT: note_off channel=4 note=51 velocity=63 time=0
EXTRACT: note_on channel=4 note=82 velocity=63 time=0
EXTRACT: note_off channel=6 note=27 velocity=79 time=0
EXTRACT: note_on channel=6 note=27 velocity=79 time=0
EXTRACT: note_off channel=9 note=42 velocity=79 time=0
EXTRACT: note_on channel=9 note=42 velocity=79 time=0
EXTRACT: note_on channel=9 note=35 velocity=79 time=0
EXTRACT: note_off channel=9 note=42 velocity=79 time=0.2142855
EXTRACT: note_off channel=9 note=35 velocity=79 time=0
EXTRACT: note_on channel=9 note=44 velocity=79 time=0
EXTRACT: note_off channel=2 note=70 velocity=79 time=0.2142855
EXTRACT: note_off channel=2 note=67 velocity=79 time=0
EXTRACT: note_off channel=2 note=63 velocity=79 time=0
EXTRACT: note_off channel=2 note=51 velocity=79 time=0
EXTRACT: note_off channel=2 note=46 velocity=79 time=0
EXTRACT: note_on channel=2 note=58 velocity=79 time=0
EXTRACT: note_off channel=6 note=27 velocity=79 time=0
EXTRACT: note_on channel=6 note=27 velocity=79 time=0
EXTRACT: note_off channel=9 note=44 velocity=79 time=0
EXTRACT: note_on channel=9 note=42 velocity=79 time=0
EXTRACT: note_on channel=9 note=40 velocity=79 time=0
EXTRACT: note_off channel=2 note=58 velocity=79 time=0.428571
EXTRACT: note_on channel=2 note=70 velocity=79 time=0
EXTRACT: note_on channel=2 note=67 velocity=79 time=0
EXTRACT: note_on channel=2 note=63 velocity=79 time=0
EXTRACT: note_off channel=6 note=27 velocity=79 time=0
EXTRACT: note_on channel=6 note=27 velocity=79 time=0
EXTRACT: note_off channel=9 note=42 velocity=79 time=0
EXTRACT: note_off channel=9 note=40 velocity=79 time=0
EXTRACT: note_on channel=9 note=40 velocity=79 time=0
EXTRACT: note_off channel=0 note=82 velocity=79 time=0.2142855
EXTRACT: note_off channel=0 note=79 velocity=63 time=0
EXTRACT: note_off channel=9 note=40 velocity=79 time=0
EXTRACT: note_on channel=9 note=45 velocity=79 time=0
EXTRACT: note_on channel=0 note=79 velocity=79 time=0.2142855
EXTRACT: note_on channel=0 note=75 velocity=63 time=0
EXTRACT: note_off channel=2 note=70 velocity=79 time=0
EXTRACT: note_off channel=2 note=67 velocity=79 time=0
EXTRACT: note_off channel=2 note=63 velocity=79 time=0
EXTRACT: note_on channel=2 note=58 velocity=79 time=0
EXTRACT: note_off channel=6 note=27 velocity=79 time=0
EXTRACT: note_on channel=6 note=27 velocity=79 time=0
EXTRACT: note_off channel=9 note=45 velocity=79 time=0
EXTRACT: note_on channel=9 note=41 velocity=79 time=0
EXTRACT: note_off channel=0 note=79 velocity=79 time=0.2142855
EXTRACT: note_off channel=0 note=75 velocity=63 time=0
EXTRACT: note_on channel=0 note=81 velocity=79 time=0
EXTRACT: note_on channel=0 note=77 velocity=63 time=0
EXTRACT: note_off channel=9 note=41 velocity=79 time=0
EXTRACT: note_on channel=9 note=35 velocity=79 time=0
EXTRACT: note_off channel=2 note=58 velocity=79 time=0.2142855
EXTRACT: note_on channel=2 note=65 velocity=79 time=0
EXTRACT: note_on channel=2 note=53 velocity=79 time=0
EXTRACT: note_on channel=2 note=48 velocity=79 time=0
EXTRACT: note_on channel=2 note=41 velocity=79 time=0
EXTRACT: note_off channel=4 note=82 velocity=63 time=0
EXTRACT: note_on channel=4 note=81 velocity=63 time=0
EXTRACT: note_on channel=4 note=53 velocity=63 time=0
EXTRACT: note_on channel=4 note=41 velocity=63 time=0
EXTRACT: note_off channel=6 note=27 velocity=79 time=0
EXTRACT: note_on channel=6 note=29 velocity=79 time=0
EXTRACT: note_off channel=9 note=35 velocity=79 time=0
EXTRACT: note_on channel=9 note=49 velocity=79 time=0
EXTRACT: note_on channel=9 note=35 velocity=79 time=0
EXTRACT: note_off channel=9 note=49 velocity=79 time=0.857142
EXTRACT: note_off channel=9 note=35 velocity=79 time=0
EXTRACT: note_off channel=0 note=81 velocity=79 time=0.32142825
EXTRACT: note_off channel=0 note=77 velocity=63 time=0
EXTRACT: note_on channel=0 note=79 velocity=63 time=1.17857025
EXTRACT: note_off channel=0 note=79 velocity=63 time=0.2142855
EXTRACT: note_on channel=0 note=81 velocity=63 time=0
EXTRACT: note_off channel=0 note=81 velocity=63 time=0.428571
EXTRACT: note_on channel=0 note=82 velocity=63 time=0
EXTRACT: note_off channel=0 note=82 velocity=63 time=0.2142855
EXTRACT: note_on channel=0 note=82 velocity=63 time=0
EXTRACT: note_on channel=9 note=57 velocity=47 time=0
EXTRACT: note_on channel=9 note=57 velocity=47 time=0
EXTRACT: note_off channel=9 note=57 velocity=47 time=0.10714275
EXTRACT: note_off channel=9 note=57 velocity=47 time=0
EXTRACT: note_on channel=9 note=57 velocity=47 time=0
EXTRACT: note_on channel=9 note=57 velocity=47 time=0
EXTRACT: note_off channel=2 note=65 velocity=79 time=0.10714275
EXTRACT: note_off channel=2 note=53 velocity=79 time=0
EXTRACT: note_off channel=2 note=48 velocity=79 time=0
EXTRACT: note_off channel=2 note=41 velocity=79 time=0
EXTRACT: note_on channel=2 note=70 velocity=63 time=0
EXTRACT: note_on channel=2 note=55 velocity=63 time=0
EXTRACT: note_off channel=4 note=81 velocity=63 time=0
EXTRACT: note_off channel=4 note=53 velocity=63 time=0
EXTRACT: note_off channel=4 note=41 velocity=63 time=0
EXTRACT: note_off channel=6 note=29 velocity=79 time=0
EXTRACT: note_off channel=9 note=57 velocity=47 time=0
EXTRACT: note_off channel=9 note=57 velocity=47 time=0
EXTRACT: note_on channel=9 note=57 velocity=47 time=0
EXTRACT: note_off channel=2 note=70 velocity=63 time=0.428571
EXTRACT: note_off channel=2 note=55 velocity=63 time=0
EXTRACT: note_on channel=2 note=62 velocity=63 time=0
EXTRACT: note_off channel=2 note=62 velocity=63 time=0.2142855
EXTRACT: note_on channel=2 note=67 velocity=63 time=0
EXTRACT: note_off channel=0 note=82 velocity=63 time=0.2142855
EXTRACT: note_on channel=0 note=86 velocity=63 time=0
EXTRACT: note_off channel=2 note=67 velocity=63 time=0
EXTRACT: note_on channel=2 note=70 velocity=63 time=0
EXTRACT: note_off channel=2 note=70 velocity=63 time=0.2142855
EXTRACT: note_on channel=2 note=72 velocity=63 time=0
EXTRACT: note_off channel=0 note=86 velocity=63 time=0.2142855
EXTRACT: note_on channel=0 note=84 velocity=63 time=0
EXTRACT: note_off channel=2 note=72 velocity=63 time=0
EXTRACT: note_on channel=2 note=74 velocity=63 time=0
EXTRACT: note_off channel=2 note=74 velocity=63 time=0.428571
EXTRACT: note_on channel=2 note=67 velocity=63 time=0
EXTRACT: note_on channel=2 note=51 velocity=63 time=0
EXTRACT: note_off channel=0 note=84 velocity=63 time=0.428571
EXTRACT: note_on channel=0 note=82 velocity=63 time=0
EXTRACT: note_off channel=0 note=82 velocity=63 time=0.428571
EXTRACT: note_on channel=0 note=82 velocity=63 time=0
EXTRACT: note_off channel=2 note=67 velocity=63 time=0
EXTRACT: note_off channel=2 note=51 velocity=63 time=0
EXTRACT: note_on channel=2 note=70 velocity=63 time=0
EXTRACT: note_off channel=0 note=82 velocity=63 time=0.2142855
EXTRACT: note_on channel=0 note=81 velocity=63 time=0
EXTRACT: note_off channel=2 note=70 velocity=63 time=0.6428565
EXTRACT: note_on channel=2 note=69 velocity=63 time=0
EXTRACT: note_on channel=2 note=60 velocity=63 time=0
EXTRACT: note_on channel=2 note=53 velocity=63 time=0
EXTRACT: note_off channel=9 note=57 velocity=47 time=0
EXTRACT: note_off channel=0 note=81 velocity=63 time=0.6428565
EXTRACT: note_off channel=2 note=69 velocity=63 time=1.0714275
EXTRACT: note_off channel=2 note=60 velocity=63 time=0
EXTRACT: note_off channel=2 note=53 velocity=63 time=0
EXTRACT: note_on channel=2 note=70 velocity=63 time=0
EXTRACT: note_on channel=2 note=65 velocity=63 time=0
EXTRACT: note_on channel=2 note=53 velocity=63 time=0
EXTRACT: note_on channel=4 note=41 velocity=63 time=0
EXTRACT: note_on channel=0 note=81 velocity=63 time=0.6428565
EXTRACT: note_off channel=0 note=81 velocity=63 time=0.2142855
EXTRACT: note_on channel=0 note=82 velocity=63 time=0
EXTRACT: note_off channel=2 note=70 velocity=63 time=0
EXTRACT: note_off channel=2 note=65 velocity=63 time=0
EXTRACT: note_off channel=2 note=53 velocity=63 time=0
EXTRACT: note_on channel=2 note=72 velocity=63 time=0
EXTRACT: note_on channel=2 note=67 velocity=63 time=0
EXTRACT: note_off channel=4 note=41 velocity=63 time=0
EXTRACT: note_on channel=4 note=53 velocity=63 time=0
EXTRACT: note_off channel=0 note=82 velocity=63 time=0.428571
EXTRACT: note_on channel=0 note=82 velocity=63 time=0
EXTRACT: note_off channel=4 note=53 velocity=63 time=0
EXTRACT: note_on channel=4 note=48 velocity=63 time=0
EXTRACT: note_off channel=0 note=82 velocity=63 time=0.2142855
EXTRACT: note_on channel=0 note=84 velocity=63 time=0
EXTRACT: note_off channel=2 note=72 velocity=63 time=0.2142855
EXTRACT: note_off channel=2 note=67 velocity=63 time=0
EXTRACT: note_on channel=2 note=70 velocity=63 time=0
EXTRACT: note_on channel=2 note=62 velocity=79 time=0
EXTRACT: note_on channel=2 note=55 velocity=79 time=0
EXTRACT: note_off channel=4 note=48 velocity=63 time=0
EXTRACT: note_on channel=4 note=50 velocity=63 time=0
EXTRACT: note_off channel=0 note=84 velocity=63 time=0.2142855
EXTRACT: note_on channel=0 note=82 velocity=63 time=0
EXTRACT: note_off channel=2 note=70 velocity=63 time=0.2142855
EXTRACT: note_off channel=2 note=62 velocity=79 time=0
EXTRACT: note_off channel=2 note=55 velocity=79 time=0
EXTRACT: note_on channel=2 note=55 velocity=63 time=0
EXTRACT: note_off channel=0 note=82 velocity=63 time=0.428571
EXTRACT: note_off channel=2 note=55 velocity=63 time=0
EXTRACT: note_on channel=2 note=70 velocity=63 time=0
EXTRACT: note_on channel=2 note=67 velocity=63 time=0
EXTRACT: note_on channel=2 note=62 velocity=63 time=0
EXTRACT: note_on channel=0 note=82 velocity=63 time=0.2142855
EXTRACT: note_off channel=2 note=70 velocity=63 time=0
EXTRACT: note_off channel=2 note=67 velocity=63 time=0
EXTRACT: note_off channel=2 note=62 velocity=63 time=0
EXTRACT: note_on channel=2 note=72 velocity=63 time=0
EXTRACT: note_off channel=0 note=82 velocity=63 time=0.2142855
EXTRACT: note_on channel=0 note=84 velocity=63 time=0
EXTRACT: note_off channel=2 note=72 velocity=63 time=0
EXTRACT: note_on channel=2 note=74 velocity=63 time=0
EXTRACT: note_off channel=0 note=84 velocity=63 time=0.2142855
EXTRACT: note_on channel=0 note=86 velocity=63 time=0
EXTRACT: note_off channel=0 note=86 velocity=63 time=0.2142855
EXTRACT: note_on channel=0 note=84 velocity=63 time=0
EXTRACT: note_off channel=2 note=74 velocity=63 time=0
EXTRACT: note_on channel=2 note=67 velocity=63 time=0
EXTRACT: note_on channel=2 note=51 velocity=63 time=0
EXTRACT: note_off channel=4 note=50 velocity=63 time=0
EXTRACT: note_on channel=4 note=58 velocity=63 time=0
EXTRACT: note_on channel=4 note=51 velocity=63 time=0
EXTRACT: note_off channel=0 note=84 velocity=63 time=0.857142
EXTRACT: note_off channel=2 note=67 velocity=63 time=0
EXTRACT: note_off channel=2 note=51 velocity=63 time=0
EXTRACT: note_on channel=2 note=70 velocity=63 time=0
EXTRACT: note_off channel=2 note=70 velocity=63 time=0.857142
EXTRACT: note_on channel=2 note=65 velocity=63 time=0
EXTRACT: note_on channel=2 note=69 velocity=63 time=0
EXTRACT: note_on channel=2 note=53 velocity=63 time=0
EXTRACT: note_on channel=2 note=41 velocity=63 time=0
EXTRACT: note_off channel=4 note=58 velocity=63 time=0
EXTRACT: note_off channel=4 note=51 velocity=63 time=0
EXTRACT: note_on channel=4 note=60 velocity=47 time=0
EXTRACT: note_on channel=4 note=53 velocity=47 time=0
EXTRACT: note_on channel=0 note=82 velocity=63 time=0.857142
EXTRACT: note_off channel=0 note=82 velocity=63 time=0.428571
EXTRACT: note_on channel=0 note=81 velocity=63 time=0
EXTRACT: note_off channel=0 note=81 velocity=63 time=1.285713
EXTRACT: note_off channel=2 note=65 velocity=63 time=4.28571
EXTRACT: note_off channel=2 note=69 velocity=63 time=0
EXTRACT: note_off channel=2 note=53 velocity=63 time=0
EXTRACT: note_off channel=2 note=41 velocity=63 time=0
EXTRACT: note_off channel=4 note=60 velocity=47 time=0
EXTRACT: note_off channel=4 note=53 velocity=47 time=0
MUSIC51 - Clarkson,_Kelly_-_Because_Of_You.mid
^NINTERVALS51 - Clarkson,_Kelly_-_Because_Of_You.mid
unison90
2m45
2M150
3m66
3M88
4m31
4M3
5m29
5M10
6m10
7m10
7M0