EXTRACT: control_change channel=0 control=121 value=0 time=0
EXTRACT: program_change channel=0 program=0 time=0
EXTRACT: control_change channel=0 control=7 value=100 time=0
EXTRACT: control_change channel=0 control=10 value=64 time=0
EXTRACT: control_change channel=0 control=91 value=0 time=0
EXTRACT: control_change channel=0 control=93 value=0 time=0
EXTRACT: note_on channel=0 note=60 velocity=80 time=0
EXTRACT: note_on channel=0 note=69 velocity=80 time=0
EXTRACT: note_on channel=0 note=40 velocity=80 time=0
EXTRACT: note_on channel=0 note=45 velocity=80 time=0
EXTRACT: control_change channel=1 control=121 value=0 time=0
EXTRACT: program_change channel=1 program=41 time=0
EXTRACT: control_change channel=1 control=7 value=100 time=0
EXTRACT: control_change channel=1 control=10 value=64 time=0
EXTRACT: control_change channel=1 control=91 value=0 time=0
EXTRACT: control_change channel=1 control=93 value=0 time=0
EXTRACT: control_change channel=2 control=121 value=0 time=0
EXTRACT: program_change channel=2 program=45 time=0
EXTRACT: control_change channel=2 control=7 value=100 time=0
EXTRACT: control_change channel=2 control=10 value=64 time=0
EXTRACT: control_change channel=2 control=91 value=0 time=0
EXTRACT: control_change channel=2 control=93 value=0 time=0
EXTRACT: control_change channel=3 control=121 value=0 time=0
EXTRACT: program_change channel=3 program=44 time=0
EXTRACT: control_change channel=3 control=7 value=100 time=0
EXTRACT: control_change channel=3 control=10 value=64 time=0
EXTRACT: control_change channel=3 control=91 value=0 time=0
EXTRACT: control_change channel=3 control=93 value=0 time=0
EXTRACT: control_change channel=4 control=121 value=0 time=0
EXTRACT: program_change channel=4 program=42 time=0
EXTRACT: control_change channel=4 control=7 value=100 time=0
EXTRACT: control_change channel=4 control=10 value=64 time=0
EXTRACT: control_change channel=4 control=91 value=0 time=0
EXTRACT: control_change channel=4 control=93 value=0 time=0
EXTRACT: note_on channel=4 note=45 velocity=80 time=0
EXTRACT: control_change channel=5 control=121 value=0 time=0
EXTRACT: program_change channel=5 program=45 time=0
EXTRACT: control_change channel=5 control=7 value=100 time=0
EXTRACT: control_change channel=5 control=10 value=64 time=0
EXTRACT: control_change channel=5 control=91 value=0 time=0
EXTRACT: control_change channel=5 control=93 value=0 time=0
EXTRACT: control_change channel=6 control=121 value=0 time=0
EXTRACT: program_change channel=6 program=44 time=0
EXTRACT: control_change channel=6 control=7 value=100 time=0
EXTRACT: control_change channel=6 control=10 value=64 time=0
EXTRACT: control_change channel=6 control=91 value=0 time=0
EXTRACT: control_change channel=6 control=93 value=0 time=0
EXTRACT: control_change channel=0 control=64 value=127 time=0.0023809541666666664
EXTRACT: note_on channel=0 note=60 velocity=0 time=0.28214306874999995
EXTRACT: note_on channel=0 note=69 velocity=0 time=0
EXTRACT: note_on channel=0 note=72 velocity=80 time=0.0011904770833333332
EXTRACT: note_on channel=0 note=72 velocity=0 time=0.2845240229166666
EXTRACT: note_on channel=0 note=40 velocity=0 time=0
EXTRACT: note_on channel=0 note=45 velocity=0 time=0
EXTRACT: note_on channel=0 note=60 velocity=64 time=0.0011904770833333332
EXTRACT: note_on channel=0 note=69 velocity=64 time=0
EXTRACT: note_on channel=0 note=40 velocity=64 time=0
EXTRACT: note_on channel=0 note=45 velocity=64 time=0
EXTRACT: note_on channel=0 note=60 velocity=0 time=0.27023829791666665
EXTRACT: note_on channel=0 note=69 velocity=0 time=0
EXTRACT: note_on channel=0 note=72 velocity=64 time=0.015476202083333331
EXTRACT: note_on channel=0 note=72 velocity=0 time=0.27023829791666665
EXTRACT: note_on channel=0 note=60 velocity=64 time=0.015476202083333331
EXTRACT: note_on channel=0 note=69 velocity=64 time=0
EXTRACT: note_on channel=0 note=60 velocity=0 time=0.27023829791666665
EXTRACT: note_on channel=0 note=69 velocity=0 time=0
EXTRACT: note_on channel=0 note=72 velocity=64 time=0.015476202083333331
EXTRACT: note_on channel=0 note=72 velocity=0 time=0.27023829791666665
EXTRACT: note_on channel=0 note=60 velocity=64 time=0.015476202083333331
EXTRACT: note_on channel=0 note=69 velocity=64 time=0
EXTRACT: note_on channel=0 note=60 velocity=0 time=0.27023829791666665
EXTRACT: note_on channel=0 note=69 velocity=0 time=0
EXTRACT: note_on channel=0 note=72 velocity=64 time=0.015476202083333331
EXTRACT: note_on channel=0 note=40 velocity=0 time=0.19880967291666665
EXTRACT: note_on channel=0 note=45 velocity=0 time=0
EXTRACT: note_on channel=0 note=72 velocity=0 time=0.071428625
EXTRACT: note_on channel=4 note=45 velocity=0 time=0.014285724999999999
EXTRACT: note_on channel=0 note=60 velocity=64 time=0.0011904770833333332
EXTRACT: note_on channel=0 note=67 velocity=64 time=0
EXTRACT: note_on channel=0 note=40 velocity=64 time=0
EXTRACT: note_on channel=0 note=48 velocity=64 time=0
EXTRACT: note_on channel=4 note=36 velocity=80 time=0
EXTRACT: note_on channel=4 note=48 velocity=80 time=0
EXTRACT: control_change channel=0 control=64 value=0 time=0.0011904770833333332
EXTRACT: control_change channel=0 control=64 value=127 time=0.0011904770833333332
EXTRACT: note_on channel=0 note=60 velocity=0 time=0.26785734375
EXTRACT: note_on channel=0 note=67 velocity=0 time=0
EXTRACT: note_on channel=0 note=72 velocity=64 time=0.015476202083333331
EXTRACT: note_on channel=0 note=72 velocity=0 time=0.27023829791666665
EXTRACT: note_on channel=0 note=40 velocity=0 time=0.014285724999999999
EXTRACT: note_on channel=0 note=48 velocity=0 time=0
EXTRACT: note_on channel=0 note=60 velocity=64 time=0.0011904770833333332
EXTRACT: note_on channel=0 note=67 velocity=64 time=0
EXTRACT: note_on channel=0 note=40 velocity=64 time=0
EXTRACT: note_on channel=0 note=48 velocity=64 time=0
EXTRACT: note_on channel=0 note=60 velocity=0 time=0.27023829791666665
EXTRACT: note_on channel=0 note=67 velocity=0 time=0
EXTRACT: note_on channel=0 note=72 velocity=64 time=0.015476202083333331
EXTRACT: note_on channel=0 note=72 velocity=0 time=0.27023829791666665
EXTRACT: note_on channel=0 note=60 velocity=64 time=0.015476202083333331
EXTRACT: note_on channel=0 note=67 velocity=64 time=0
EXTRACT: note_on channel=0 note=60 velocity=0 time=0.27023829791666665
EXTRACT: note_on channel=0 note=67 velocity=0 time=0
EXTRACT: note_on channel=0 note=76 velocity=64 time=0.015476202083333331
EXTRACT: note_on channel=0 note=76 velocity=0 time=0.27023829791666665
EXTRACT: note_on channel=0 note=60 velocity=64 time=0.015476202083333331
EXTRACT: note_on channel=0 note=67 velocity=64 time=0
EXTRACT: note_on channel=0 note=60 velocity=0 time=0.27023829791666665
EXTRACT: note_on channel=0 note=67 velocity=0 time=0
EXTRACT: note_on channel=0 note=76 velocity=64 time=0.015476202083333331
EXTRACT: note_on channel=0 note=40 velocity=0 time=0.19880967291666665
EXTRACT: note_on channel=0 note=48 velocity=0 time=0
EXTRACT: note_on channel=0 note=76 velocity=0 time=0.071428625
EXTRACT: note_on channel=4 note=36 velocity=0 time=0.014285724999999999
EXTRACT: note_on channel=4 note=48 velocity=0 time=0
EXTRACT: note_on channel=0 note=60 velocity=64 time=0.0011904770833333332
EXTRACT: note_on channel=0 note=65 velocity=64 time=0
EXTRACT: note_on channel=0 note=36 velocity=64 time=0
EXTRACT: note_on channel=0 note=41 velocity=64 time=0
EXTRACT: note_on channel=4 note=41 velocity=80 time=0
EXTRACT: control_change channel=0 control=64 value=0 time=0.0011904770833333332
EXTRACT: control_change channel=0 control=64 value=127 time=0.0011904770833333332
EXTRACT: note_on channel=0 note=60 velocity=0 time=0.26785734375
EXTRACT: note_on channel=0 note=65 velocity=0 time=0
EXTRACT: note_on channel=0 note=72 velocity=64 time=0.015476202083333331
EXTRACT: note_on channel=0 note=72 velocity=0 time=0.27023829791666665
EXTRACT: note_on channel=0 note=36 velocity=0 time=0.014285724999999999
EXTRACT: note_on channel=0 note=41 velocity=0 time=0
EXTRACT: note_on channel=0 note=60 velocity=64 time=0.0011904770833333332
EXTRACT: note_on channel=0 note=65 velocity=64 time=0
EXTRACT: note_on channel=0 note=36 velocity=64 time=0
EXTRACT: note_on channel=0 note=41 velocity=64 time=0
EXTRACT: note_on channel=0 note=60 velocity=0 time=0.27023829791666665
EXTRACT: note_on channel=0 note=65 velocity=0 time=0
EXTRACT: note_on channel=0 note=72 velocity=64 time=0.015476202083333331
EXTRACT: note_on channel=0 note=72 velocity=0 time=0.27023829791666665
EXTRACT: note_on channel=0 note=65 velocity=64 time=0.015476202083333331
EXTRACT: note_on channel=0 note=65 velocity=0 time=0.27023829791666665
EXTRACT: note_on channel=0 note=79 velocity=64 time=0.015476202083333331
EXTRACT: note_on channel=0 note=79 velocity=0 time=0.27023829791666665
EXTRACT: note_on channel=0 note=65 velocity=64 time=0.015476202083333331
EXTRACT: note_on channel=0 note=72 velocity=64 time=0
EXTRACT: note_on channel=0 note=65 velocity=0 time=0.27023829791666665
EXTRACT: note_on channel=0 note=72 velocity=0 time=0
EXTRACT: note_on channel=0 note=79 velocity=64 time=0.015476202083333331
EXTRACT: note_on channel=0 note=79 velocity=0 time=0.27023829791666665
EXTRACT: note_on channel=0 note=65 velocity=64 time=0.015476202083333331
EXTRACT: note_on channel=0 note=72 velocity=64 time=0
EXTRACT: control_change channel=0 control=64 value=0 time=0.0011904770833333332
EXTRACT: note_on channel=0 note=65 velocity=0 time=0.2690478208333333
EXTRACT: note_on channel=0 note=72 velocity=0 time=0
EXTRACT: note_on channel=0 note=79 velocity=64 time=0.015476202083333331
EXTRACT: note_on channel=0 note=79 velocity=0 time=0.27023829791666665
EXTRACT: note_on channel=0 note=65 velocity=64 time=0.015476202083333331
EXTRACT: note_on channel=0 note=72 velocity=64 time=0
EXTRACT: note_on channel=0 note=65 velocity=0 time=0.27023829791666665
EXTRACT: note_on channel=0 note=72 velocity=0 time=0
EXTRACT: note_on channel=0 note=79 velocity=64 time=0.015476202083333331
EXTRACT: note_on channel=0 note=79 velocity=0 time=0.27023829791666665
EXTRACT: note_on channel=0 note=65 velocity=64 time=0.015476202083333331
EXTRACT: note_on channel=0 note=72 velocity=64 time=0
EXTRACT: note_on channel=0 note=65 velocity=0 time=0.27023829791666665
EXTRACT: note_on channel=0 note=72 velocity=0 time=0
EXTRACT: note_on channel=0 note=79 velocity=64 time=0.015476202083333331
EXTRACT: note_on channel=0 note=79 velocity=0 time=0.27023829791666665
EXTRACT: note_on channel=0 note=65 velocity=64 time=0.015476202083333331
EXTRACT: note_on channel=0 note=72 velocity=64 time=0
EXTRACT: note_on channel=0 note=65 velocity=0 time=0.27023829791666665
EXTRACT: note_on channel=0 note=72 velocity=0 time=0
EXTRACT: note_on channel=0 note=79 velocity=64 time=0.015476202083333331
EXTRACT: note_on channel=0 note=36 velocity=0 time=0.08452387291666666
EXTRACT: note_on channel=0 note=41 velocity=0 time=0
EXTRACT: note_on channel=0 note=79 velocity=0 time=0.185714425
EXTRACT: note_on channel=4 note=41 velocity=0 time=0.014285724999999999
EXTRACT: note_on channel=0 note=60 velocity=64 time=0.0011904770833333332
EXTRACT: note_on channel=0 note=69 velocity=64 time=0
EXTRACT: note_on channel=0 note=40 velocity=64 time=0
EXTRACT: note_on channel=0 note=45 velocity=64 time=0
EXTRACT: note_on channel=4 note=45 velocity=80 time=0
EXTRACT: control_change channel=0 control=64 value=127 time=0.0023809541666666664
EXTRACT: note_on channel=0 note=60 velocity=0 time=0.26785734375
EXTRACT: note_on channel=0 note=69 velocity=0 time=0
EXTRACT: note_on channel=0 note=72 velocity=64 time=0.015476202083333331
EXTRACT: note_on channel=0 note=72 velocity=0 time=0.27023829791666665
EXTRACT: note_on channel=0 note=40 velocity=0 time=0.014285724999999999
EXTRACT: note_on channel=0 note=45 velocity=0 time=0
EXTRACT: note_on channel=0 note=60 velocity=64 time=0.0011904770833333332
EXTRACT: note_on channel=0 note=69 velocity=64 time=0
EXTRACT: note_on channel=0 note=40 velocity=64 time=0
EXTRACT: note_on channel=0 note=45 velocity=64 time=0
EXTRACT: note_on channel=0 note=60 velocity=0 time=0.27023829791666665
EXTRACT: note_on channel=0 note=69 velocity=0 time=0
EXTRACT: note_on channel=0 note=72 velocity=64 time=0.015476202083333331
EXTRACT: note_on channel=0 note=72 velocity=0 time=0.27023829791666665
EXTRACT: note_on channel=0 note=60 velocity=64 time=0.015476202083333331
EXTRACT: note_on channel=0 note=69 velocity=64 time=0
EXTRACT: note_on channel=0 note=60 velocity=0 time=0.27023829791666665
EXTRACT: note_on channel=0 note=69 velocity=0 time=0
EXTRACT: note_on channel=0 note=72 velocity=64 time=0.015476202083333331
EXTRACT: note_on channel=0 note=72 velocity=0 time=0.27023829791666665
EXTRACT: note_on channel=0 note=60 velocity=64 time=0.015476202083333331
EXTRACT: note_on channel=0 note=69 velocity=64 time=0
EXTRACT: note_on channel=0 note=60 velocity=0 time=0.27023829791666665
EXTRACT: note_on channel=0 note=69 velocity=0 time=0
EXTRACT: note_on channel=0 note=72 velocity=64 time=0.015476202083333331
EXTRACT: note_on channel=0 note=40 velocity=0 time=0.19880967291666665
EXTRACT: note_on channel=0 note=45 velocity=0 time=0
EXTRACT: note_on channel=0 note=72 velocity=0 time=0.071428625
EXTRACT: note_on channel=4 note=45 velocity=0 time=0.014285724999999999
EXTRACT: note_on channel=0 note=60 velocity=64 time=0.0011904770833333332
EXTRACT: note_on channel=0 note=67 velocity=64 time=0
EXTRACT: note_on channel=0 note=40 velocity=64 time=0
EXTRACT: note_on channel=0 note=48 velocity=64 time=0
EXTRACT: note_on channel=4 note=36 velocity=80 time=0
EXTRACT: note_on channel=4 note=48 velocity=80 time=0
EXTRACT: control_change channel=0 control=64 value=0 time=0.0011904770833333332
EXTRACT: note_on channel=0 note=60 velocity=0 time=0.2690478208333333
EXTRACT: note_on channel=0 note=67 velocity=0 time=0
EXTRACT: note_on channel=0 note=72 velocity=64 time=0.015476202083333331
EXTRACT: note_on channel=0 note=72 velocity=0 time=0.27023829791666665
EXTRACT: note_on channel=0 note=40 velocity=0 time=0.014285724999999999
EXTRACT: note_on channel=0 note=48 velocity=0 time=0
EXTRACT: note_on channel=0 note=60 velocity=64 time=0.0011904770833333332
EXTRACT: note_on channel=0 note=67 velocity=64 time=0
EXTRACT: note_on channel=0 note=40 velocity=64 time=0
EXTRACT: note_on channel=0 note=48 velocity=64 time=0
EXTRACT: control_change channel=0 control=64 value=127 time=0.0023809541666666664
EXTRACT: note_on channel=0 note=60 velocity=0 time=0.26785734375
EXTRACT: note_on channel=0 note=67 velocity=0 time=0
EXTRACT: note_on channel=0 note=72 velocity=64 time=0.015476202083333331
EXTRACT: note_on channel=0 note=72 velocity=0 time=0.27023829791666665
EXTRACT: note_on channel=0 note=60 velocity=64 time=0.015476202083333331
EXTRACT: note_on channel=0 note=67 velocity=64 time=0
EXTRACT: note_on channel=0 note=72 velocity=64 time=0
EXTRACT: note_on channel=0 note=60 velocity=0 time=0.27023829791666665
EXTRACT: note_on channel=0 note=67 velocity=0 time=0
EXTRACT: note_on channel=0 note=72 velocity=0 time=0
EXTRACT: note_on channel=0 note=76 velocity=64 time=0.015476202083333331
EXTRACT: note_on channel=0 note=76 velocity=0 time=0.27023829791666665
EXTRACT: note_on channel=0 note=67 velocity=64 time=0.015476202083333331
EXTRACT: note_on channel=0 note=72 velocity=64 time=0
EXTRACT: note_on channel=0 note=67 velocity=0 time=0.27023829791666665
EXTRACT: note_on channel=0 note=72 velocity=0 time=0
EXTRACT: note_on channel=0 note=76 velocity=64 time=0.015476202083333331
EXTRACT: note_on channel=0 note=40 velocity=0 time=0.19880967291666665
EXTRACT: note_on channel=0 note=48 velocity=0 time=0
EXTRACT: note_on channel=0 note=76 velocity=0 time=0.071428625
EXTRACT: note_on channel=4 note=36 velocity=0 time=0.014285724999999999
EXTRACT: note_on channel=4 note=48 velocity=0 time=0
EXTRACT: note_on channel=0 note=60 velocity=64 time=0.0011904770833333332
EXTRACT: note_on channel=0 note=65 velocity=64 time=0
EXTRACT: note_on channel=0 note=36 velocity=64 time=0
EXTRACT: note_on channel=0 note=41 velocity=64 time=0
EXTRACT: note_on channel=4 note=41 velocity=80 time=0
EXTRACT: control_change channel=0 control=64 value=0 time=0.0011904770833333332
EXTRACT: control_change channel=0 control=64 value=127 time=0.0011904770833333332
EXTRACT: note_on channel=0 note=60 velocity=0 time=0.26785734375
EXTRACT: note_on channel=0 note=65 velocity=0 time=0
EXTRACT: note_on channel=0 note=72 velocity=64 time=0.015476202083333331
EXTRACT: note_on channel=0 note=72 velocity=0 time=0.27023829791666665
EXTRACT: note_on channel=0 note=36 velocity=0 time=0.014285724999999999
EXTRACT: note_on channel=0 note=41 velocity=0 time=0
EXTRACT: note_on channel=0 note=60 velocity=64 time=0.0011904770833333332
EXTRACT: note_on channel=0 note=65 velocity=64 time=0
EXTRACT: note_on channel=0 note=36 velocity=64 time=0
EXTRACT: note_on channel=0 note=41 velocity=64 time=0
EXTRACT: note_on channel=0 note=60 velocity=0 time=0.27023829791666665
EXTRACT: note_on channel=0 note=65 velocity=0 time=0
EXTRACT: note_on channel=0 note=72 velocity=64 time=0.015476202083333331
EXTRACT: note_on channel=0 note=72 velocity=0 time=0.27023829791666665
EXTRACT: note_on channel=0 note=65 velocity=64 time=0.015476202083333331
EXTRACT: note_on channel=0 note=65 velocity=0 time=0.27023829791666665
EXTRACT: note_on channel=0 note=79 velocity=64 time=0.015476202083333331
EXTRACT: note_on channel=0 note=79 velocity=0 time=0.27023829791666665
EXTRACT: note_on channel=0 note=65 velocity=64 time=0.015476202083333331
EXTRACT: note_on channel=0 note=72 velocity=64 time=0
EXTRACT: note_on channel=0 note=65 velocity=0 time=0.27023829791666665
EXTRACT: note_on channel=0 note=72 velocity=0 time=0
EXTRACT: note_on channel=0 note=79 velocity=64 time=0.015476202083333331
EXTRACT: note_on channel=0 note=79 velocity=0 time=0.27023829791666665
EXTRACT: note_on channel=0 note=65 velocity=64 time=0.015476202083333331
EXTRACT: note_on channel=0 note=72 velocity=64 time=0
EXTRACT: control_change channel=0 control=64 value=0 time=0.0011904770833333332
EXTRACT: note_on channel=0 note=65 velocity=0 time=0.2690478208333333
EXTRACT: note_on channel=0 note=72 velocity=0 time=0
EXTRACT: note_on channel=0 note=79 velocity=64 time=0.015476202083333331
EXTRACT: note_on channel=0 note=79 velocity=0 time=0.27023829791666665
EXTRACT: note_on channel=0 note=65 velocity=64 time=0.015476202083333331
EXTRACT: note_on channel=0 note=72 velocity=64 time=0
EXTRACT: note_on channel=0 note=65 velocity=0 time=0.27023829791666665
EXTRACT: note_on channel=0 note=72 velocity=0 time=0
EXTRACT: note_on channel=0 note=79 velocity=64 time=0.015476202083333331
EXTRACT: note_on channel=0 note=79 velocity=0 time=0.27023829791666665
EXTRACT: note_on channel=0 note=65 velocity=64 time=0.015476202083333331
EXTRACT: note_on channel=0 note=72 velocity=64 time=0
EXTRACT: note_on channel=0 note=65 velocity=0 time=0.27023829791666665
EXTRACT: note_on channel=0 note=72 velocity=0 time=0
EXTRACT: note_on channel=0 note=79 velocity=64 time=0.015476202083333331
EXTRACT: note_on channel=0 note=79 velocity=0 time=0.27023829791666665
EXTRACT: note_on channel=0 note=65 velocity=64 time=0.015476202083333331
EXTRACT: note_on channel=0 note=72 velocity=64 time=0
EXTRACT: note_on channel=0 note=65 velocity=0 time=0.27023829791666665
EXTRACT: note_on channel=0 note=72 velocity=0 time=0
EXTRACT: note_on channel=0 note=79 velocity=64 time=0.015476202083333331
EXTRACT: note_on channel=0 note=36 velocity=0 time=0.08452387291666666
EXTRACT: note_on channel=0 note=41 velocity=0 time=0
EXTRACT: note_on channel=0 note=79 velocity=0 time=0.185714425
EXTRACT: note_on channel=4 note=41 velocity=0 time=0.014285724999999999
EXTRACT: note_on channel=0 note=60 velocity=64 time=0.0011904770833333332
EXTRACT: note_on channel=0 note=69 velocity=64 time=0
EXTRACT: note_on channel=0 note=40 velocity=64 time=0
EXTRACT: note_on channel=0 note=45 velocity=64 time=0
EXTRACT: note_on channel=1 note=57 velocity=80 time=0
EXTRACT: note_on channel=4 note=45 velocity=80 time=0
EXTRACT: control_change channel=0 control=64 value=127 time=0.0023809541666666664
EXTRACT: note_on channel=0 note=60 velocity=0 time=0.28214306874999995
EXTRACT: note_on channel=0 note=69 velocity=0 time=0
EXTRACT: note_on channel=0 note=72 velocity=33 time=0.0011904770833333332
EXTRACT: note_on channel=0 note=72 velocity=0 time=0.2845240229166666
EXTRACT: note_on channel=0 note=40 velocity=0 time=0
EXTRACT: note_on channel=0 note=45 velocity=0 time=0
EXTRACT: note_on channel=0 note=60 velocity=33 time=0.0011904770833333332
EXTRACT: note_on channel=0 note=69 velocity=33 time=0
EXTRACT: note_on channel=0 note=40 velocity=33 time=0
EXTRACT: note_on channel=0 note=45 velocity=33 time=0
EXTRACT: note_on channel=0 note=60 velocity=0 time=0.27023829791666665
EXTRACT: note_on channel=0 note=69 velocity=0 time=0
EXTRACT: note_on channel=0 note=72 velocity=33 time=0.015476202083333331
EXTRACT: note_on channel=0 note=72 velocity=0 time=0.27023829791666665
EXTRACT: note_on channel=0 note=60 velocity=33 time=0.015476202083333331
EXTRACT: note_on channel=0 note=69 velocity=33 time=0
EXTRACT: note_on channel=0 note=60 velocity=0 time=0.27023829791666665
EXTRACT: note_on channel=0 note=69 velocity=0 time=0
EXTRACT: note_on channel=0 note=72 velocity=33 time=0.015476202083333331
EXTRACT: note_on channel=0 note=72 velocity=0 time=0.27023829791666665
EXTRACT: note_on channel=1 note=57 velocity=0 time=0.014285724999999999
EXTRACT: note_on channel=0 note=60 velocity=33 time=0.0011904770833333332
EXTRACT: note_on channel=0 note=69 velocity=33 time=0
EXTRACT: note_on channel=1 note=57 velocity=80 time=0
EXTRACT: note_on channel=0 note=60 velocity=0 time=0.27023829791666665
EXTRACT: note_on channel=0 note=69 velocity=0 time=0
EXTRACT: note_on channel=1 note=57 velocity=0 time=0.014285724999999999
EXTRACT: note_on channel=0 note=72 velocity=33 time=0.0011904770833333332
EXTRACT: note_on channel=1 note=59 velocity=80 time=0
EXTRACT: note_on channel=0 note=40 velocity=0 time=0.19880967291666665
EXTRACT: note_on channel=0 note=45 velocity=0 time=0
EXTRACT: note_on channel=0 note=72 velocity=0 time=0.071428625
EXTRACT: note_on channel=1 note=59 velocity=0 time=0.014285724999999999
EXTRACT: note_on channel=4 note=45 velocity=0 time=0
EXTRACT: note_on channel=0 note=60 velocity=33 time=0.0011904770833333332
EXTRACT: note_on channel=0 note=67 velocity=33 time=0
EXTRACT: note_on channel=0 note=40 velocity=33 time=0
EXTRACT: note_on channel=0 note=48 velocity=33 time=0
EXTRACT: note_on channel=1 note=60 velocity=80 time=0
EXTRACT: note_on channel=4 note=36 velocity=80 time=0
EXTRACT: note_on channel=4 note=48 velocity=80 time=0
EXTRACT: control_change channel=0 control=64 value=0 time=0.0011904770833333332
EXTRACT: control_change channel=0 control=64 value=127 time=0.0011904770833333332
EXTRACT: note_on channel=0 note=60 velocity=0 time=0.26785734375
EXTRACT: note_on channel=0 note=67 velocity=0 time=0
EXTRACT: note_on channel=0 note=72 velocity=33 time=0.015476202083333331
EXTRACT: note_on channel=0 note=72 velocity=0 time=0.27023829791666665
EXTRACT: note_on channel=0 note=40 velocity=0 time=0.014285724999999999
EXTRACT: note_on channel=0 note=48 velocity=0 time=0
EXTRACT: note_on channel=0 note=60 velocity=33 time=0.0011904770833333332
EXTRACT: note_on channel=0 note=67 velocity=33 time=0
EXTRACT: note_on channel=0 note=40 velocity=33 time=0
EXTRACT: note_on channel=0 note=48 velocity=33 time=0
EXTRACT: note_on channel=0 note=60 velocity=0 time=0.27023829791666665
EXTRACT: note_on channel=0 note=67 velocity=0 time=0
EXTRACT: note_on channel=1 note=60 velocity=0 time=0.014285724999999999
EXTRACT: note_on channel=0 note=72 velocity=33 time=0.0011904770833333332
EXTRACT: note_on channel=1 note=55 velocity=80 time=0
EXTRACT: note_on channel=0 note=72 velocity=0 time=0.27023829791666665
EXTRACT: note_on channel=0 note=60 velocity=33 time=0.015476202083333331
EXTRACT: note_on channel=0 note=67 velocity=33 time=0
EXTRACT: note_on channel=0 note=60 velocity=0 time=0.27023829791666665
EXTRACT: note_on channel=0 note=67 velocity=0 time=0
EXTRACT: note_on channel=0 note=76 velocity=33 time=0.015476202083333331
EXTRACT: note_on channel=0 note=76 velocity=0 time=0.27023829791666665
EXTRACT: note_on channel=1 note=55 velocity=0 time=0.014285724999999999
EXTRACT: note_on channel=0 note=60 velocity=33 time=0.0011904770833333332
EXTRACT: note_on channel=0 note=67 velocity=33 time=0
EXTRACT: note_on channel=0 note=60 velocity=0 time=0.27023829791666665
EXTRACT: note_on channel=0 note=67 velocity=0 time=0
EXTRACT: note_on channel=0 note=76 velocity=33 time=0.015476202083333331
EXTRACT: note_on channel=1 note=53 velocity=80 time=0
EXTRACT: note_on channel=0 note=40 velocity=0 time=0.19880967291666665
EXTRACT: note_on channel=0 note=48 velocity=0 time=0
EXTRACT: note_on channel=0 note=76 velocity=0 time=0.071428625
EXTRACT: note_on channel=4 note=36 velocity=0 time=0.014285724999999999
EXTRACT: note_on channel=4 note=48 velocity=0 time=0
EXTRACT: note_on channel=0 note=60 velocity=33 time=0.0011904770833333332
EXTRACT: note_on channel=0 note=65 velocity=33 time=0
EXTRACT: note_on channel=0 note=36 velocity=33 time=0
EXTRACT: note_on channel=0 note=41 velocity=33 time=0
EXTRACT: note_on channel=4 note=41 velocity=80 time=0
EXTRACT: control_change channel=0 control=64 value=0 time=0.0011904770833333332
EXTRACT: control_change channel=0 control=64 value=127 time=0.0011904770833333332
EXTRACT: note_on channel=0 note=60 velocity=0 time=0.26785734375
EXTRACT: note_on channel=0 note=65 velocity=0 time=0
EXTRACT: note_on channel=1 note=53 velocity=0 time=0.014285724999999999
EXTRACT: note_on channel=0 note=72 velocity=33 time=0.0011904770833333332
EXTRACT: note_on channel=0 note=72 velocity=0 time=0.27023829791666665
EXTRACT: note_on channel=0 note=36 velocity=0 time=0.014285724999999999
EXTRACT: note_on channel=0 note=41 velocity=0 time=0
EXTRACT: note_on channel=0 note=60 velocity=33 time=0.0011904770833333332
EXTRACT: note_on channel=0 note=65 velocity=33 time=0
EXTRACT: note_on channel=0 note=36 velocity=33 time=0
EXTRACT: note_on channel=0 note=41 velocity=33 time=0
EXTRACT: note_on channel=1 note=53 velocity=80 time=0
EXTRACT: note_on channel=0 note=60 velocity=0 time=0.27023829791666665
EXTRACT: note_on channel=0 note=65 velocity=0 time=0
EXTRACT: note_on channel=0 note=72 velocity=33 time=0.015476202083333331
EXTRACT: note_on channel=0 note=72 velocity=0 time=0.27023829791666665
EXTRACT: note_on channel=0 note=65 velocity=33 time=0.015476202083333331
EXTRACT: note_on channel=0 note=65 velocity=0 time=0.27023829791666665
EXTRACT: note_on channel=0 note=79 velocity=33 time=0.015476202083333331
EXTRACT: note_on channel=0 note=79 velocity=0 time=0.27023829791666665
EXTRACT: note_on channel=0 note=65 velocity=33 time=0.015476202083333331
EXTRACT: note_on channel=0 note=72 velocity=33 time=0
EXTRACT: note_on channel=0 note=65 velocity=0 time=0.27023829791666665
EXTRACT: note_on channel=0 note=72 velocity=0 time=0
EXTRACT: note_on channel=0 note=79 velocity=33 time=0.015476202083333331
EXTRACT: note_on channel=0 note=79 velocity=0 time=0.27023829791666665
EXTRACT: note_on channel=1 note=53 velocity=0 time=0.014285724999999999
EXTRACT: note_on channel=0 note=65 velocity=33 time=0.0011904770833333332
EXTRACT: note_on channel=0 note=72 velocity=33 time=0
EXTRACT: control_change channel=0 control=64 value=0 time=0.0011904770833333332
EXTRACT: note_on channel=0 note=65 velocity=0 time=0.2690478208333333
EXTRACT: note_on channel=0 note=72 velocity=0 time=0
EXTRACT: note_on channel=0 note=79 velocity=33 time=0.015476202083333331
EXTRACT: note_on channel=0 note=79 velocity=0 time=0.27023829791666665
EXTRACT: note_on channel=0 note=65 velocity=33 time=0.015476202083333331
EXTRACT: note_on channel=0 note=72 velocity=33 time=0
EXTRACT: note_on channel=0 note=65 velocity=0 time=0.27023829791666665
EXTRACT: note_on channel=0 note=72 velocity=0 time=0
EXTRACT: note_on channel=0 note=79 velocity=33 time=0.015476202083333331
EXTRACT: note_on channel=0 note=79 velocity=0 time=0.27023829791666665
EXTRACT: note_on channel=0 note=65 velocity=33 time=0.015476202083333331
EXTRACT: note_on channel=0 note=72 velocity=33 time=0
EXTRACT: note_on channel=0 note=65 velocity=0 time=0.27023829791666665
EXTRACT: note_on channel=0 note=72 velocity=0 time=0
EXTRACT: note_on channel=0 note=79 velocity=33 time=0.015476202083333331
EXTRACT: note_on channel=0 note=79 velocity=0 time=0.27023829791666665
EXTRACT: note_on channel=0 note=65 velocity=33 time=0.015476202083333331
EXTRACT: note_on channel=0 note=72 velocity=33 time=0
EXTRACT: note_on channel=0 note=65 velocity=0 time=0.27023829791666665
EXTRACT: note_on channel=0 note=72 velocity=0 time=0
EXTRACT: note_on channel=0 note=79 velocity=33 time=0.015476202083333331
EXTRACT: note_on channel=0 note=36 velocity=0 time=0.08452387291666666
EXTRACT: note_on channel=0 note=41 velocity=0 time=0
EXTRACT: note_on channel=0 note=79 velocity=0 time=0.185714425
EXTRACT: note_on channel=4 note=41 velocity=0 time=0.014285724999999999
EXTRACT: note_on channel=0 note=60 velocity=64 time=0.0011904770833333332
EXTRACT: note_on channel=0 note=69 velocity=64 time=0
EXTRACT: note_on channel=0 note=40 velocity=64 time=0
EXTRACT: note_on channel=0 note=45 velocity=64 time=0
EXTRACT: note_on channel=1 note=57 velocity=80 time=0
EXTRACT: note_on channel=4 note=45 velocity=80 time=0
EXTRACT: control_change channel=0 control=64 value=127 time=0.0023809541666666664
EXTRACT: note_on channel=0 note=60 velocity=0 time=0.26785734375
EXTRACT: note_on channel=0 note=69 velocity=0 time=0
EXTRACT: note_on channel=0 note=72 velocity=64 time=0.015476202083333331
EXTRACT: note_on channel=0 note=72 velocity=0 time=0.27023829791666665
EXTRACT: note_on channel=0 note=40 velocity=0 time=0.014285724999999999
EXTRACT: note_on channel=0 note=45 velocity=0 time=0
EXTRACT: note_on channel=0 note=60 velocity=64 time=0.0011904770833333332
EXTRACT: note_on channel=0 note=69 velocity=64 time=0
EXTRACT: note_on channel=0 note=40 velocity=64 time=0
EXTRACT: note_on channel=0 note=45 velocity=64 time=0
EXTRACT: note_on channel=0 note=60 velocity=0 time=0.27023829791666665
EXTRACT: note_on channel=0 note=69 velocity=0 time=0
EXTRACT: note_on channel=0 note=72 velocity=64 time=0.015476202083333331
EXTRACT: note_on channel=0 note=72 velocity=0 time=0.27023829791666665
EXTRACT: note_on channel=0 note=60 velocity=64 time=0.015476202083333331
EXTRACT: note_on channel=0 note=69 velocity=64 time=0
EXTRACT: note_on channel=0 note=60 velocity=0 time=0.27023829791666665
EXTRACT: note_on channel=0 note=69 velocity=0 time=0
EXTRACT: note_on channel=0 note=72 velocity=64 time=0.015476202083333331
EXTRACT: note_on channel=0 note=72 velocity=0 time=0.27023829791666665
EXTRACT: note_on channel=1 note=57 velocity=0 time=0.014285724999999999
EXTRACT: note_on channel=0 note=60 velocity=64 time=0.0011904770833333332
EXTRACT: note_on channel=0 note=69 velocity=64 time=0
EXTRACT: note_on channel=0 note=60 velocity=0 time=0.27023829791666665
EXTRACT: note_on channel=0 note=69 velocity=0 time=0
EXTRACT: note_on channel=0 note=72 velocity=64 time=0.015476202083333331
EXTRACT: note_on channel=1 note=59 velocity=80 time=0
EXTRACT: note_on channel=0 note=40 velocity=0 time=0.19880967291666665
EXTRACT: note_on channel=0 note=45 velocity=0 time=0
EXTRACT: note_on channel=0 note=72 velocity=0 time=0.071428625
EXTRACT: note_on channel=1 note=59 velocity=0 time=0.014285724999999999
EXTRACT: note_on channel=4 note=45 velocity=0 time=0
EXTRACT: note_on channel=0 note=60 velocity=64 time=0.0011904770833333332
EXTRACT: note_on channel=0 note=67 velocity=64 time=0
EXTRACT: note_on channel=0 note=40 velocity=64 time=0
EXTRACT: note_on channel=0 note=48 velocity=64 time=0
EXTRACT: note_on channel=1 note=60 velocity=80 time=0
EXTRACT: note_on channel=4 note=36 velocity=80 time=0
EXTRACT: note_on channel=4 note=48 velocity=80 time=0
EXTRACT: control_change channel=0 control=64 value=0 time=0.0011904770833333332
EXTRACT: control_change channel=0 control=64 value=127 time=0.0011904770833333332
EXTRACT: note_on channel=0 note=60 velocity=0 time=0.26785734375
EXTRACT: note_on channel=0 note=67 velocity=0 time=0
EXTRACT: note_on channel=0 note=72 velocity=64 time=0.015476202083333331
EXTRACT: note_on channel=0 note=72 velocity=0 time=0.27023829791666665
EXTRACT: note_on channel=0 note=40 velocity=0 time=0.014285724999999999
EXTRACT: note_on channel=0 note=48 velocity=0 time=0
EXTRACT: note_on channel=0 note=60 velocity=64 time=0.0011904770833333332
EXTRACT: note_on channel=0 note=67 velocity=64 time=0
EXTRACT: note_on channel=0 note=40 velocity=64 time=0
EXTRACT: note_on channel=0 note=48 velocity=64 time=0
EXTRACT: note_on channel=0 note=60 velocity=0 time=0.27023829791666665
EXTRACT: note_on channel=0 note=67 velocity=0 time=0
EXTRACT: note_on channel=1 note=60 velocity=0 time=0.014285724999999999
EXTRACT: note_on channel=0 note=72 velocity=64 time=0.0011904770833333332
EXTRACT: note_on channel=1 note=55 velocity=80 time=0
EXTRACT: note_on channel=0 note=72 velocity=0 time=0.27023829791666665
EXTRACT: note_on channel=0 note=60 velocity=64 time=0.015476202083333331
EXTRACT: note_on channel=0 note=67 velocity=64 time=0
EXTRACT: note_on channel=0 note=60 velocity=0 time=0.27023829791666665
EXTRACT: note_on channel=0 note=67 velocity=0 time=0
EXTRACT: note_on channel=1 note=55 velocity=0 time=0.014285724999999999
EXTRACT: note_on channel=0 note=76 velocity=64 time=0.0011904770833333332
EXTRACT: note_on channel=0 note=76 velocity=0 time=0.27023829791666665
EXTRACT: note_on channel=0 note=60 velocity=64 time=0.015476202083333331
EXTRACT: note_on channel=0 note=67 velocity=64 time=0
EXTRACT: note_on channel=1 note=52 velocity=80 time=0.14285725
EXTRACT: note_on channel=0 note=60 velocity=0 time=0.12738104791666666
EXTRACT: note_on channel=0 note=67 velocity=0 time=0
EXTRACT: note_on channel=1 note=52 velocity=0 time=0.014285724999999999
EXTRACT: note_on channel=0 note=76 velocity=64 time=0.0011904770833333332
EXTRACT: note_on channel=1 note=55 velocity=80 time=0
EXTRACT: note_on channel=1 note=55 velocity=0 time=0.14166677291666666
EXTRACT: note_on channel=1 note=53 velocity=80 time=0.0011904770833333332
EXTRACT: note_on channel=0 note=40 velocity=0 time=0.05595242291666666
EXTRACT: note_on channel=0 note=48 velocity=0 time=0
EXTRACT: note_on channel=0 note=76 velocity=0 time=0.071428625
EXTRACT: note_on channel=4 note=36 velocity=0 time=0.014285724999999999
EXTRACT: note_on channel=4 note=48 velocity=0 time=0
EXTRACT: note_on channel=0 note=60 velocity=64 time=0.0011904770833333332
EXTRACT: note_on channel=0 note=65 velocity=64 time=0
EXTRACT: note_on channel=0 note=36 velocity=64 time=0
EXTRACT: note_on channel=0 note=41 velocity=64 time=0
EXTRACT: note_on channel=4 note=41 velocity=80 time=0
EXTRACT: control_change channel=0 control=64 value=0 time=0.0011904770833333332
EXTRACT: control_change channel=0 control=64 value=127 time=0.0011904770833333332
EXTRACT: note_on channel=0 note=60 velocity=0 time=0.26785734375
EXTRACT: note_on channel=0 note=65 velocity=0 time=0
EXTRACT: note_on channel=0 note=72 velocity=64 time=0.015476202083333331
EXTRACT: note_on channel=0 note=72 velocity=0 time=0.27023829791666665
EXTRACT: note_on channel=0 note=36 velocity=0 time=0.014285724999999999
EXTRACT: note_on channel=0 note=41 velocity=0 time=0
EXTRACT: note_on channel=0 note=60 velocity=64 time=0.0011904770833333332
EXTRACT: note_on channel=0 note=65 velocity=64 time=0
EXTRACT: note_on channel=0 note=36 velocity=64 time=0
EXTRACT: note_on channel=0 note=41 velocity=64 time=0
EXTRACT: note_on channel=0 note=60 velocity=0 time=0.27023829791666665
EXTRACT: note_on channel=0 note=65 velocity=0 time=0
EXTRACT: note_on channel=1 note=53 velocity=0 time=0.014285724999999999
EXTRACT: note_on channel=0 note=72 velocity=64 time=0.0011904770833333332
EXTRACT: note_on channel=1 note=55 velocity=80 time=0
EXTRACT: note_on channel=0 note=72 velocity=0 time=0.27023829791666665
EXTRACT: note_on channel=0 note=65 velocity=64 time=0.015476202083333331
EXTRACT: note_on channel=0 note=65 velocity=0 time=0.27023829791666665
EXTRACT: note_on channel=1 note=55 velocity=0 time=0.014285724999999999
EXTRACT: note_on channel=0 note=79 velocity=64 time=0.0011904770833333332
EXTRACT: note_on channel=1 note=57 velocity=80 time=0
EXTRACT: note_on channel=0 note=79 velocity=0 time=0.27023829791666665
EXTRACT: note_on channel=0 note=65 velocity=64 time=0.015476202083333331
EXTRACT: note_on channel=0 note=72 velocity=64 time=0
EXTRACT: note_on channel=0 note=65 velocity=0 time=0.27023829791666665
EXTRACT: note_on channel=0 note=72 velocity=0 time=0
EXTRACT: note_on channel=0 note=79 velocity=64 time=0.015476202083333331
EXTRACT: note_on channel=0 note=79 velocity=0 time=0.27023829791666665
EXTRACT: note_on channel=1 note=57 velocity=0 time=0.014285724999999999
EXTRACT: note_on channel=0 note=65 velocity=64 time=0.0011904770833333332
EXTRACT: note_on channel=0 note=72 velocity=64 time=0
EXTRACT: control_change channel=0 control=64 value=0 time=0.0011904770833333332
EXTRACT: note_on channel=0 note=65 velocity=0 time=0.2690478208333333
EXTRACT: note_on channel=0 note=72 velocity=0 time=0
EXTRACT: note_on channel=0 note=79 velocity=64 time=0.015476202083333331
EXTRACT: note_on channel=0 note=79 velocity=0 time=0.27023829791666665
EXTRACT: note_on channel=0 note=65 velocity=64 time=0.015476202083333331
EXTRACT: note_on channel=0 note=72 velocity=64 time=0
EXTRACT: note_on channel=1 note=60 velocity=80 time=0
EXTRACT: note_on channel=0 note=65 velocity=0 time=0.27023829791666665
EXTRACT: note_on channel=0 note=72 velocity=0 time=0
EXTRACT: note_on channel=1 note=60 velocity=0 time=0.014285724999999999
EXTRACT: note_on channel=0 note=79 velocity=64 time=0.0011904770833333332
EXTRACT: note_on channel=1 note=59 velocity=80 time=0
EXTRACT: note_on channel=0 note=79 velocity=0 time=0.27023829791666665
EXTRACT: note_on channel=0 note=65 velocity=64 time=0.015476202083333331
EXTRACT: note_on channel=0 note=72 velocity=64 time=0
EXTRACT: note_on channel=1 note=59 velocity=0 time=0.14166677291666666
EXTRACT: note_on channel=1 note=60 velocity=80 time=0.0011904770833333332
EXTRACT: note_on channel=0 note=65 velocity=0 time=0.12738104791666666
EXTRACT: note_on channel=0 note=72 velocity=0 time=0
EXTRACT: note_on channel=0 note=79 velocity=64 time=0.015476202083333331
EXTRACT: note_on channel=0 note=79 velocity=0 time=0.27023829791666665
EXTRACT: note_on channel=0 note=65 velocity=64 time=0.015476202083333331
EXTRACT: note_on channel=0 note=72 velocity=64 time=0
EXTRACT: note_on channel=0 note=65 velocity=0 time=0.27023829791666665
EXTRACT: note_on channel=0 note=72 velocity=0 time=0
EXTRACT: note_on channel=0 note=79 velocity=64 time=0.015476202083333331
EXTRACT: note_on channel=0 note=36 velocity=0 time=0.08452387291666666
EXTRACT: note_on channel=0 note=41 velocity=0 time=0
EXTRACT: note_on channel=0 note=79 velocity=0 time=0.185714425
EXTRACT: note_on channel=4 note=41 velocity=0 time=0.014285724999999999
EXTRACT: note_on channel=0 note=60 velocity=64 time=0.0011904770833333332
EXTRACT: note_on channel=0 note=69 velocity=64 time=0
EXTRACT: note_on channel=0 note=40 velocity=64 time=0
EXTRACT: note_on channel=0 note=45 velocity=64 time=0
EXTRACT: note_on channel=4 note=45 velocity=80 time=0
EXTRACT: control_change channel=0 control=64 value=127 time=0.0023809541666666664
EXTRACT: note_on channel=0 note=60 velocity=0 time=0.28214306874999995
EXTRACT: note_on channel=0 note=69 velocity=0 time=0
EXTRACT: note_on channel=1 note=60 velocity=0 time=0
EXTRACT: note_on channel=0 note=72 velocity=64 time=0.0011904770833333332
EXTRACT: note_on channel=0 note=72 velocity=0 time=0.2845240229166666
EXTRACT: note_on channel=0 note=40 velocity=0 time=0
EXTRACT: note_on channel=0 note=45 velocity=0 time=0
EXTRACT: note_on channel=0 note=60 velocity=64 time=0.0011904770833333332
EXTRACT: note_on channel=0 note=69 velocity=64 time=0
EXTRACT: note_on channel=0 note=40 velocity=64 time=0
EXTRACT: note_on channel=0 note=45 velocity=64 time=0
EXTRACT: note_on channel=0 note=60 velocity=0 time=0.27023829791666665
EXTRACT: note_on channel=0 note=69 velocity=0 time=0
EXTRACT: note_on channel=0 note=72 velocity=64 time=0.015476202083333331
EXTRACT: note_on channel=0 note=72 velocity=0 time=0.27023829791666665
EXTRACT: note_on channel=0 note=60 velocity=64 time=0.015476202083333331
EXTRACT: note_on channel=0 note=69 velocity=64 time=0
EXTRACT: note_on channel=1 note=67 velocity=80 time=0
EXTRACT: note_on channel=0 note=60 velocity=0 time=0.27023829791666665
EXTRACT: note_on channel=0 note=69 velocity=0 time=0
EXTRACT: note_on channel=0 note=72 velocity=64 time=0.015476202083333331
EXTRACT: note_on channel=1 note=67 velocity=0 time=0.14166677291666666
EXTRACT: note_on channel=1 note=64 velocity=80 time=0.0011904770833333332
EXTRACT: note_on channel=0 note=72 velocity=0 time=0.12738104791666666
EXTRACT: note_on channel=0 note=60 velocity=64 time=0.015476202083333331
EXTRACT: note_on channel=0 note=69 velocity=64 time=0
EXTRACT: note_on channel=0 note=60 velocity=0 time=0.27023829791666665
EXTRACT: note_on channel=0 note=69 velocity=0 time=0
EXTRACT: note_on channel=1 note=64 velocity=0 time=0.014285724999999999
EXTRACT: note_on channel=0 note=72 velocity=64 time=0.0011904770833333332
EXTRACT: note_on channel=1 note=60 velocity=80 time=0
EXTRACT: note_on channel=0 note=40 velocity=0 time=0.19880967291666665
EXTRACT: note_on channel=0 note=45 velocity=0 time=0
EXTRACT: note_on channel=0 note=72 velocity=0 time=0.071428625
EXTRACT: note_on channel=4 note=45 velocity=0 time=0.014285724999999999
EXTRACT: note_on channel=0 note=60 velocity=64 time=0.0011904770833333332
EXTRACT: note_on channel=0 note=67 velocity=64 time=0
EXTRACT: note_on channel=0 note=40 velocity=64 time=0
EXTRACT: note_on channel=0 note=48 velocity=64 time=0
EXTRACT: note_on channel=4 note=36 velocity=80 time=0
EXTRACT: note_on channel=4 note=48 velocity=80 time=0
EXTRACT: control_change channel=0 control=64 value=0 time=0.0011904770833333332
EXTRACT: control_change channel=0 control=64 value=127 time=0.0011904770833333332
EXTRACT: note_on channel=0 note=60 velocity=0 time=0.26785734375
EXTRACT: note_on channel=0 note=67 velocity=0 time=0
EXTRACT: note_on channel=0 note=72 velocity=64 time=0.015476202083333331
EXTRACT: note_on channel=0 note=72 velocity=0 time=0.27023829791666665
EXTRACT: note_on channel=0 note=40 velocity=0 time=0.014285724999999999
EXTRACT: note_on channel=0 note=48 velocity=0 time=0
EXTRACT: note_on channel=0 note=60 velocity=64 time=0.0011904770833333332
EXTRACT: note_on channel=0 note=67 velocity=64 time=0
EXTRACT: note_on channel=0 note=40 velocity=64 time=0
EXTRACT: note_on channel=0 note=48 velocity=64 time=0
EXTRACT: note_on channel=0 note=60 velocity=0 time=0.27023829791666665
EXTRACT: note_on channel=0 note=67 velocity=0 time=0
EXTRACT: note_on channel=0 note=72 velocity=64 time=0.015476202083333331
EXTRACT: note_on channel=0 note=72 velocity=0 time=0.27023829791666665
EXTRACT: note_on channel=0 note=60 velocity=64 time=0.015476202083333331
EXTRACT: note_on channel=0 note=67 velocity=64 time=0
EXTRACT: note_on channel=0 note=60 velocity=0 time=0.27023829791666665
EXTRACT: note_on channel=0 note=67 velocity=0 time=0
EXTRACT: note_on channel=0 note=76 velocity=64 time=0.015476202083333331
EXTRACT: note_on channel=0 note=76 velocity=0 time=0.27023829791666665
EXTRACT: note_on channel=0 note=60 velocity=64 time=0.015476202083333331
EXTRACT: note_on channel=0 note=67 velocity=64 time=0
EXTRACT: note_on channel=0 note=60 velocity=0 time=0.27023829791666665
EXTRACT: note_on channel=0 note=67 velocity=0 time=0
EXTRACT: note_on channel=0 note=76 velocity=64 time=0.015476202083333331
EXTRACT: note_on channel=0 note=40 velocity=0 time=0.19880967291666665
EXTRACT: note_on channel=0 note=48 velocity=0 time=0
EXTRACT: note_on channel=0 note=76 velocity=0 time=0.071428625
EXTRACT: note_on channel=4 note=36 velocity=0 time=0.014285724999999999
EXTRACT: note_on channel=4 note=48 velocity=0 time=0
EXTRACT: note_on channel=0 note=60 velocity=64 time=0.0011904770833333332
EXTRACT: note_on channel=0 note=65 velocity=64 time=0
EXTRACT: note_on channel=0 note=36 velocity=64 time=0
EXTRACT: note_on channel=0 note=41 velocity=64 time=0
EXTRACT: note_on channel=4 note=41 velocity=80 time=0
EXTRACT: control_change channel=0 control=64 value=0 time=0.0011904770833333332
EXTRACT: control_change channel=0 control=64 value=127 time=0.0011904770833333332
EXTRACT: note_on channel=0 note=60 velocity=0 time=0.26785734375
EXTRACT: note_on channel=0 note=65 velocity=0 time=0
EXTRACT: note_on channel=0 note=72 velocity=64 time=0.015476202083333331
EXTRACT: note_on channel=0 note=72 velocity=0 time=0.27023829791666665
EXTRACT: note_on channel=0 note=36 velocity=0 time=0.014285724999999999
EXTRACT: note_on channel=0 note=41 velocity=0 time=0
EXTRACT: note_on channel=0 note=60 velocity=64 time=0.0011904770833333332
EXTRACT: note_on channel=0 note=65 velocity=64 time=0
EXTRACT: note_on channel=0 note=36 velocity=64 time=0
EXTRACT: note_on channel=0 note=41 velocity=64 time=0
EXTRACT: note_on channel=0 note=60 velocity=0 time=0.27023829791666665
EXTRACT: note_on channel=0 note=65 velocity=0 time=0
EXTRACT: note_on channel=0 note=72 velocity=64 time=0.015476202083333331
EXTRACT: note_on channel=0 note=72 velocity=0 time=0.27023829791666665
EXTRACT: note_on channel=1 note=60 velocity=0 time=0.014285724999999999
EXTRACT: note_on channel=0 note=65 velocity=64 time=0.0011904770833333332
EXTRACT: note_on channel=0 note=65 velocity=0 time=0.27023829791666665
EXTRACT: note_on channel=0 note=79 velocity=64 time=0.015476202083333331
EXTRACT: note_on channel=0 note=79 velocity=0 time=0.27023829791666665
EXTRACT: note_on channel=0 note=65 velocity=64 time=0.015476202083333331
EXTRACT: note_on channel=0 note=72 velocity=64 time=0
EXTRACT: note_on channel=0 note=65 velocity=0 time=0.27023829791666665
EXTRACT: note_on channel=0 note=72 velocity=0 time=0
EXTRACT: note_on channel=0 note=79 velocity=64 time=0.015476202083333331
EXTRACT: note_on channel=0 note=36 velocity=0 time=0.19880967291666665
EXTRACT: note_on channel=0 note=41 velocity=0 time=0
EXTRACT: note_on channel=0 note=79 velocity=0 time=0.071428625
EXTRACT: note_on channel=0 note=65 velocity=64 time=0.015476202083333331
EXTRACT: note_on channel=0 note=72 velocity=64 time=0
EXTRACT: note_on channel=0 note=36 velocity=64 time=0
EXTRACT: note_on channel=0 note=41 velocity=64 time=0
EXTRACT: control_change channel=0 control=64 value=0 time=0.0011904770833333332
EXTRACT: control_change channel=0 control=64 value=127 time=0.0011904770833333332
EXTRACT: note_on channel=0 note=65 velocity=0 time=0.26785734375
EXTRACT: note_on channel=0 note=72 velocity=0 time=0
EXTRACT: note_on channel=0 note=79 velocity=64 time=0.015476202083333331
EXTRACT: note_on channel=0 note=79 velocity=0 time=0.27023829791666665
EXTRACT: note_on channel=0 note=65 velocity=64 time=0.015476202083333331
EXTRACT: note_on channel=0 note=72 velocity=64 time=0
EXTRACT: note_on channel=1 note=64 velocity=80 time=0
EXTRACT: note_on channel=0 note=65 velocity=0 time=0.27023829791666665
EXTRACT: note_on channel=0 note=72 velocity=0 time=0
EXTRACT: note_on channel=0 note=79 velocity=64 time=0.015476202083333331
EXTRACT: note_on channel=0 note=79 velocity=0 time=0.27023829791666665
EXTRACT: note_on channel=0 note=65 velocity=64 time=0.015476202083333331
EXTRACT: note_on channel=0 note=72 velocity=64 time=0
EXTRACT: note_on channel=0 note=65 velocity=0 time=0.27023829791666665
EXTRACT: note_on channel=0 note=72 velocity=0 time=0
EXTRACT: note_on channel=1 note=64 velocity=0 time=0.014285724999999999
EXTRACT: note_on channel=0 note=79 velocity=64 time=0.0011904770833333332
EXTRACT: note_on channel=1 note=65 velocity=80 time=0
EXTRACT: note_on channel=0 note=79 velocity=0 time=0.27023829791666665
EXTRACT: note_on channel=0 note=65 velocity=64 time=0.015476202083333331
EXTRACT: note_on channel=0 note=72 velocity=64 time=0
EXTRACT: note_on channel=0 note=65 velocity=0 time=0.27023829791666665
EXTRACT: note_on channel=0 note=72 velocity=0 time=0
EXTRACT: note_on channel=0 note=79 velocity=64 time=0.015476202083333331
EXTRACT: note_on channel=0 note=36 velocity=0 time=0.17023822291666665
EXTRACT: note_on channel=0 note=41 velocity=0 time=0
EXTRACT: note_on channel=0 note=79 velocity=0 time=0.100000075
EXTRACT: note_on channel=1 note=65 velocity=0 time=0.014285724999999999
EXTRACT: note_on channel=4 note=41 velocity=0 time=0
EXTRACT: note_on channel=0 note=60 velocity=64 time=0.0011904770833333332
EXTRACT: note_on channel=0 note=69 velocity=64 time=0
EXTRACT: note_on channel=0 note=40 velocity=64 time=0
EXTRACT: note_on channel=0 note=45 velocity=64 time=0
EXTRACT: note_on channel=4 note=45 velocity=80 time=0
EXTRACT: control_change channel=0 control=64 value=0 time=0.0011904770833333332
EXTRACT: control_change channel=0 control=64 value=127 time=0.0011904770833333332
EXTRACT: note_on channel=1 note=64 velocity=80 time=0.14047629583333332
EXTRACT: note_on channel=0 note=60 velocity=0 time=0.14166677291666666
EXTRACT: note_on channel=0 note=69 velocity=0 time=0
EXTRACT: note_on channel=0 note=72 velocity=64 time=0.0011904770833333332
EXTRACT: note_on channel=0 note=72 velocity=0 time=0.2845240229166666
EXTRACT: note_on channel=0 note=40 velocity=0 time=0
EXTRACT: note_on channel=0 note=45 velocity=0 time=0
EXTRACT: note_on channel=0 note=60 velocity=64 time=0.0011904770833333332
EXTRACT: note_on channel=0 note=69 velocity=64 time=0
EXTRACT: note_on channel=0 note=40 velocity=64 time=0
EXTRACT: note_on channel=0 note=45 velocity=64 time=0
EXTRACT: note_on channel=0 note=60 velocity=0 time=0.27023829791666665
EXTRACT: note_on channel=0 note=69 velocity=0 time=0
EXTRACT: note_on channel=0 note=72 velocity=64 time=0.015476202083333331
EXTRACT: note_on channel=1 note=64 velocity=0 time=0.14166677291666666
EXTRACT: note_on channel=0 note=72 velocity=0 time=0.128571525
EXTRACT: note_on channel=0 note=60 velocity=64 time=0.015476202083333331
EXTRACT: note_on channel=0 note=69 velocity=64 time=0
EXTRACT: note_on channel=1 note=67 velocity=80 time=0
EXTRACT: note_on channel=0 note=60 velocity=0 time=0.27023829791666665
EXTRACT: note_on channel=0 note=69 velocity=0 time=0
EXTRACT: note_on channel=0 note=72 velocity=64 time=0.015476202083333331
EXTRACT: note_on channel=1 note=67 velocity=0 time=0.14166677291666666
EXTRACT: note_on channel=1 note=64 velocity=80 time=0.0011904770833333332
EXTRACT: note_on channel=0 note=72 velocity=0 time=0.12738104791666666
EXTRACT: note_on channel=0 note=60 velocity=64 time=0.015476202083333331
EXTRACT: note_on channel=0 note=69 velocity=64 time=0
EXTRACT: note_on channel=0 note=60 velocity=0 time=0.27023829791666665
EXTRACT: note_on channel=0 note=69 velocity=0 time=0
EXTRACT: note_on channel=1 note=64 velocity=0 time=0.014285724999999999
EXTRACT: note_on channel=0 note=72 velocity=64 time=0.0011904770833333332
EXTRACT: note_on channel=1 note=60 velocity=80 time=0
EXTRACT: note_on channel=0 note=40 velocity=0 time=0.19880967291666665
EXTRACT: note_on channel=0 note=45 velocity=0 time=0
EXTRACT: note_on channel=0 note=72 velocity=0 time=0.071428625
EXTRACT: note_on channel=4 note=45 velocity=0 time=0.014285724999999999
EXTRACT: note_on channel=0 note=60 velocity=64 time=0.0011904770833333332
EXTRACT: note_on channel=0 note=67 velocity=64 time=0
EXTRACT: note_on channel=0 note=40 velocity=64 time=0
EXTRACT: note_on channel=0 note=48 velocity=64 time=0
EXTRACT: note_on channel=4 note=36 velocity=80 time=0
EXTRACT: note_on channel=4 note=48 velocity=80 time=0
EXTRACT: control_change channel=0 control=64 value=0 time=0.0011904770833333332
EXTRACT: control_change channel=0 control=64 value=127 time=0.0011904770833333332
EXTRACT: note_on channel=0 note=60 velocity=0 time=0.26785734375
EXTRACT: note_on channel=0 note=67 velocity=0 time=0
EXTRACT: note_on channel=0 note=72 velocity=64 time=0.015476202083333331
EXTRACT: note_on channel=0 note=72 velocity=0 time=0.27023829791666665
EXTRACT: note_on channel=0 note=40 velocity=0 time=0.014285724999999999
EXTRACT: note_on channel=0 note=48 velocity=0 time=0
EXTRACT: note_on channel=0 note=60 velocity=64 time=0.0011904770833333332
EXTRACT: note_on channel=0 note=67 velocity=64 time=0
EXTRACT: note_on channel=0 note=40 velocity=64 time=0
EXTRACT: note_on channel=0 note=48 velocity=64 time=0
EXTRACT: note_on channel=0 note=60 velocity=0 time=0.27023829791666665
EXTRACT: note_on channel=0 note=67 velocity=0 time=0
EXTRACT: note_on channel=1 note=60 velocity=0 time=0.014285724999999999
EXTRACT: note_on channel=0 note=72 velocity=64 time=0.0011904770833333332
EXTRACT: note_on channel=0 note=72 velocity=0 time=0.27023829791666665
EXTRACT: note_on channel=0 note=60 velocity=64 time=0.015476202083333331
EXTRACT: note_on channel=0 note=67 velocity=64 time=0
EXTRACT: note_on channel=1 note=62 velocity=80 time=0
EXTRACT: note_on channel=0 note=60 velocity=0 time=0.27023829791666665
EXTRACT: note_on channel=0 note=67 velocity=0 time=0
EXTRACT: note_on channel=0 note=76 velocity=64 time=0.015476202083333331
EXTRACT: note_on channel=1 note=62 velocity=0 time=0.14166677291666666
EXTRACT: note_on channel=1 note=60 velocity=80 time=0.0011904770833333332
EXTRACT: note_on channel=0 note=76 velocity=0 time=0.12738104791666666
EXTRACT: note_on channel=0 note=60 velocity=64 time=0.015476202083333331
EXTRACT: note_on channel=0 note=67 velocity=64 time=0
EXTRACT: note_on channel=0 note=60 velocity=0 time=0.27023829791666665
EXTRACT: note_on channel=0 note=67 velocity=0 time=0
EXTRACT: note_on channel=0 note=76 velocity=64 time=0.015476202083333331
EXTRACT: note_on channel=1 note=60 velocity=0 time=0.14166677291666666
EXTRACT: note_on channel=0 note=40 velocity=0 time=0.057142899999999996
EXTRACT: note_on channel=0 note=48 velocity=0 time=0
EXTRACT: note_on channel=0 note=76 velocity=0 time=0.071428625
EXTRACT: note_on channel=4 note=36 velocity=0 time=0.014285724999999999
EXTRACT: note_on channel=4 note=48 velocity=0 time=0
EXTRACT: note_on channel=0 note=60 velocity=64 time=0.0011904770833333332
EXTRACT: note_on channel=0 note=65 velocity=64 time=0
EXTRACT: note_on channel=0 note=36 velocity=64 time=0
EXTRACT: note_on channel=0 note=41 velocity=64 time=0
EXTRACT: note_on channel=4 note=41 velocity=80 time=0
EXTRACT: control_change channel=0 control=64 value=0 time=0.0011904770833333332
EXTRACT: control_change channel=0 control=64 value=127 time=0.0011904770833333332
EXTRACT: note_on channel=0 note=60 velocity=0 time=0.26785734375
EXTRACT: note_on channel=0 note=65 velocity=0 time=0
EXTRACT: note_on channel=0 note=72 velocity=64 time=0.015476202083333331
EXTRACT: note_on channel=0 note=72 velocity=0 time=0.27023829791666665
EXTRACT: note_on channel=0 note=36 velocity=0 time=0.014285724999999999
EXTRACT: note_on channel=0 note=41 velocity=0 time=0
EXTRACT: note_on channel=0 note=60 velocity=64 time=0.0011904770833333332
EXTRACT: note_on channel=0 note=65 velocity=64 time=0
EXTRACT: note_on channel=0 note=36 velocity=64 time=0
EXTRACT: note_on channel=0 note=41 velocity=64 time=0
EXTRACT: note_on channel=0 note=60 velocity=0 time=0.27023829791666665
EXTRACT: note_on channel=0 note=65 velocity=0 time=0
EXTRACT: note_on channel=0 note=72 velocity=64 time=0.015476202083333331
EXTRACT: note_on channel=0 note=72 velocity=0 time=0.27023829791666665
EXTRACT: note_on channel=0 note=65 velocity=64 time=0.015476202083333331
EXTRACT: note_on channel=0 note=65 velocity=0 time=0.27023829791666665
EXTRACT: note_on channel=0 note=79 velocity=64 time=0.015476202083333331
EXTRACT: note_on channel=0 note=79 velocity=0 time=0.27023829791666665
EXTRACT: note_on channel=0 note=65 velocity=64 time=0.015476202083333331
EXTRACT: note_on channel=0 note=72 velocity=64 time=0
EXTRACT: note_on channel=0 note=65 velocity=0 time=0.27023829791666665
EXTRACT: note_on channel=0 note=72 velocity=0 time=0
EXTRACT: note_on channel=0 note=79 velocity=64 time=0.015476202083333331
EXTRACT: note_on channel=0 note=79 velocity=0 time=0.27023829791666665
EXTRACT: note_on channel=0 note=65 velocity=64 time=0.015476202083333331
EXTRACT: note_on channel=0 note=72 velocity=64 time=0
EXTRACT: control_change channel=0 control=64 value=0 time=0.0011904770833333332
EXTRACT: control_change channel=0 control=64 value=127 time=0.0011904770833333332
EXTRACT: note_on channel=0 note=65 velocity=0 time=0.26785734375
EXTRACT: note_on channel=0 note=72 velocity=0 time=0
EXTRACT: note_on channel=0 note=79 velocity=64 time=0.015476202083333331
EXTRACT: note_on channel=0 note=79 velocity=0 time=0.27023829791666665
EXTRACT: note_on channel=0 note=65 velocity=64 time=0.015476202083333331
EXTRACT: note_on channel=0 note=72 velocity=64 time=0
EXTRACT: note_on channel=1 note=64 velocity=80 time=0
EXTRACT: note_on channel=0 note=65 velocity=0 time=0.27023829791666665
EXTRACT: note_on channel=0 note=72 velocity=0 time=0
EXTRACT: note_on channel=0 note=79 velocity=64 time=0.015476202083333331
EXTRACT: note_on channel=0 note=79 velocity=0 time=0.27023829791666665
EXTRACT: note_on channel=0 note=65 velocity=64 time=0.015476202083333331
EXTRACT: note_on channel=0 note=72 velocity=64 time=0
EXTRACT: note_on channel=0 note=65 velocity=0 time=0.27023829791666665
EXTRACT: note_on channel=0 note=72 velocity=0 time=0
EXTRACT: note_on channel=1 note=64 velocity=0 time=0.014285724999999999
EXTRACT: note_on channel=0 note=79 velocity=64 time=0.0011904770833333332
EXTRACT: note_on channel=1 note=65 velocity=80 time=0
EXTRACT: note_on channel=0 note=79 velocity=0 time=0.27023829791666665
EXTRACT: note_on channel=0 note=65 velocity=64 time=0.015476202083333331
EXTRACT: note_on channel=0 note=72 velocity=64 time=0
EXTRACT: note_on channel=0 note=65 velocity=0 time=0.27023829791666665
EXTRACT: note_on channel=0 note=72 velocity=0 time=0
EXTRACT: note_on channel=0 note=79 velocity=64 time=0.015476202083333331
EXTRACT: note_on channel=0 note=36 velocity=0 time=0.08452387291666666
EXTRACT: note_on channel=0 note=41 velocity=0 time=0
EXTRACT: note_on channel=0 note=79 velocity=0 time=0.185714425
EXTRACT: note_on channel=4 note=41 velocity=0 time=0.014285724999999999
EXTRACT: note_on channel=0 note=60 velocity=64 time=0.0011904770833333332
EXTRACT: note_on channel=0 note=69 velocity=64 time=0
EXTRACT: note_on channel=0 note=40 velocity=64 time=0
EXTRACT: note_on channel=0 note=45 velocity=64 time=0
EXTRACT: note_on channel=4 note=45 velocity=80 time=0
EXTRACT: control_change channel=0 control=64 value=0 time=0.0011904770833333332
EXTRACT: control_change channel=0 control=64 value=127 time=0.0011904770833333332
EXTRACT: note_on channel=0 note=60 velocity=0 time=0.26785734375
EXTRACT: note_on channel=0 note=69 velocity=0 time=0
EXTRACT: note_on channel=1 note=65 velocity=0 time=0.014285724999999999
EXTRACT: note_on channel=0 note=72 velocity=64 time=0.0011904770833333332
EXTRACT: note_on channel=1 note=64 velocity=80 time=0
EXTRACT: note_on channel=0 note=72 velocity=0 time=0.27023829791666665
EXTRACT: note_on channel=0 note=40 velocity=0 time=0.014285724999999999
EXTRACT: note_on channel=0 note=45 velocity=0 time=0
EXTRACT: note_on channel=0 note=60 velocity=64 time=0.0011904770833333332
EXTRACT: note_on channel=0 note=69 velocity=64 time=0
EXTRACT: note_on channel=0 note=40 velocity=64 time=0
EXTRACT: note_on channel=0 note=45 velocity=64 time=0
EXTRACT: note_on channel=0 note=60 velocity=0 time=0.27023829791666665
EXTRACT: note_on channel=0 note=69 velocity=0 time=0
EXTRACT: note_on channel=1 note=64 velocity=0 time=0.014285724999999999
EXTRACT: note_on channel=0 note=72 velocity=64 time=0.0011904770833333332
EXTRACT: note_on channel=0 note=72 velocity=0 time=0.27023829791666665
EXTRACT: note_on channel=0 note=60 velocity=64 time=0.015476202083333331
EXTRACT: note_on channel=0 note=69 velocity=64 time=0
EXTRACT: note_on channel=1 note=67 velocity=80 time=0
EXTRACT: note_on channel=0 note=60 velocity=0 time=0.27023829791666665
EXTRACT: note_on channel=0 note=69 velocity=0 time=0
EXTRACT: note_on channel=0 note=72 velocity=64 time=0.015476202083333331
EXTRACT: note_on channel=1 note=67 velocity=0 time=0.14166677291666666
EXTRACT: note_on channel=1 note=64 velocity=80 time=0.0011904770833333332
EXTRACT: note_on channel=0 note=72 velocity=0 time=0.12738104791666666
EXTRACT: note_on channel=0 note=60 velocity=64 time=0.015476202083333331
EXTRACT: note_on channel=0 note=69 velocity=64 time=0
EXTRACT: note_on channel=0 note=60 velocity=0 time=0.27023829791666665
EXTRACT: note_on channel=0 note=69 velocity=0 time=0
EXTRACT: note_on channel=1 note=64 velocity=0 time=0.014285724999999999
EXTRACT: note_on channel=0 note=72 velocity=64 time=0.0011904770833333332
EXTRACT: note_on channel=1 note=60 velocity=80 time=0
EXTRACT: note_on channel=0 note=40 velocity=0 time=0.19880967291666665
EXTRACT: note_on channel=0 note=45 velocity=0 time=0
EXTRACT: note_on channel=0 note=72 velocity=0 time=0.071428625
EXTRACT: note_on channel=4 note=45 velocity=0 time=0.014285724999999999
EXTRACT: note_on channel=0 note=60 velocity=64 time=0.0011904770833333332
EXTRACT: note_on channel=0 note=67 velocity=64 time=0
EXTRACT: note_on channel=0 note=40 velocity=64 time=0
EXTRACT: note_on channel=0 note=48 velocity=64 time=0
EXTRACT: note_on channel=4 note=36 velocity=80 time=0
EXTRACT: note_on channel=4 note=48 velocity=80 time=0
EXTRACT: control_change channel=0 control=64 value=0 time=0.0011904770833333332
EXTRACT: control_change channel=0 control=64 value=127 time=0.0011904770833333332
EXTRACT: note_on channel=0 note=60 velocity=0 time=0.26785734375
EXTRACT: note_on channel=0 note=67 velocity=0 time=0
EXTRACT: note_on channel=0 note=72 velocity=64 time=0.015476202083333331
EXTRACT: note_on channel=0 note=72 velocity=0 time=0.27023829791666665
EXTRACT: note_on channel=0 note=40 velocity=0 time=0.014285724999999999
EXTRACT: note_on channel=0 note=48 velocity=0 time=0
EXTRACT: note_on channel=0 note=60 velocity=64 time=0.0011904770833333332
EXTRACT: note_on channel=0 note=67 velocity=64 time=0
EXTRACT: note_on channel=0 note=40 velocity=64 time=0
EXTRACT: note_on channel=0 note=48 velocity=64 time=0
EXTRACT: note_on channel=0 note=60 velocity=0 time=0.27023829791666665
EXTRACT: note_on channel=0 note=67 velocity=0 time=0
EXTRACT: note_on channel=0 note=72 velocity=64 time=0.015476202083333331
EXTRACT: note_on channel=0 note=72 velocity=0 time=0.27023829791666665
EXTRACT: note_on channel=1 note=60 velocity=0 time=0.014285724999999999
EXTRACT: note_on channel=0 note=60 velocity=64 time=0.0011904770833333332
EXTRACT: note_on channel=0 note=67 velocity=64 time=0
EXTRACT: note_on channel=0 note=60 velocity=0 time=0.27023829791666665
EXTRACT: note_on channel=0 note=67 velocity=0 time=0
EXTRACT: note_on channel=0 note=76 velocity=64 time=0.015476202083333331
EXTRACT: note_on channel=1 note=64 velocity=80 time=0
EXTRACT: note_on channel=0 note=76 velocity=0 time=0.27023829791666665
EXTRACT: note_on channel=1 note=64 velocity=0 time=0.014285724999999999
EXTRACT: note_on channel=0 note=60 velocity=64 time=0.0011904770833333332
EXTRACT: note_on channel=0 note=67 velocity=64 time=0
EXTRACT: note_on channel=1 note=62 velocity=80 time=0
EXTRACT: note_on channel=0 note=60 velocity=0 time=0.27023829791666665
EXTRACT: note_on channel=0 note=67 velocity=0 time=0
EXTRACT: note_on channel=1 note=62 velocity=0 time=0.014285724999999999
EXTRACT: note_on channel=0 note=76 velocity=64 time=0.0011904770833333332
EXTRACT: note_on channel=1 note=62 velocity=80 time=0
EXTRACT: note_on channel=0 note=40 velocity=0 time=0.19880967291666665
EXTRACT: note_on channel=0 note=48 velocity=0 time=0
EXTRACT: note_on channel=0 note=76 velocity=0 time=0.071428625
EXTRACT: note_on channel=4 note=36 velocity=0 time=0.014285724999999999
EXTRACT: note_on channel=4 note=48 velocity=0 time=0
EXTRACT: note_on channel=0 note=60 velocity=64 time=0.0011904770833333332
EXTRACT: note_on channel=0 note=65 velocity=64 time=0
EXTRACT: note_on channel=0 note=36 velocity=64 time=0
EXTRACT: note_on channel=0 note=41 velocity=64 time=0
EXTRACT: note_on channel=4 note=41 velocity=80 time=0
EXTRACT: control_change channel=0 control=64 value=0 time=0.0011904770833333332
EXTRACT: control_change channel=0 control=64 value=127 time=0.0011904770833333332
EXTRACT: note_on channel=0 note=60 velocity=0 time=0.26785734375
EXTRACT: note_on channel=0 note=65 velocity=0 time=0
EXTRACT: note_on channel=1 note=62 velocity=0 time=0.014285724999999999
EXTRACT: note_on channel=0 note=72 velocity=64 time=0.0011904770833333332
EXTRACT: note_on channel=1 note=60 velocity=80 time=0
EXTRACT: note_on channel=0 note=72 velocity=0 time=0.27023829791666665
EXTRACT: note_on channel=0 note=36 velocity=0 time=0.014285724999999999
EXTRACT: note_on channel=0 note=41 velocity=0 time=0
EXTRACT: note_on channel=1 note=60 velocity=0 time=0
EXTRACT: note_on channel=0 note=60 velocity=64 time=0.0011904770833333332
EXTRACT: note_on channel=0 note=65 velocity=64 time=0
EXTRACT: note_on channel=0 note=36 velocity=64 time=0
EXTRACT: note_on channel=0 note=41 velocity=64 time=0
EXTRACT: note_on channel=1 note=57 velocity=80 time=0
EXTRACT: note_on channel=0 note=60 velocity=0 time=0.27023829791666665
EXTRACT: note_on channel=0 note=65 velocity=0 time=0
EXTRACT: note_on channel=1 note=57 velocity=0 time=0.014285724999999999
EXTRACT: note_on channel=0 note=72 velocity=64 time=0.0011904770833333332
EXTRACT: note_on channel=0 note=72 velocity=0 time=0.27023829791666665
EXTRACT: note_on channel=0 note=65 velocity=64 time=0.015476202083333331
EXTRACT: note_on channel=0 note=65 velocity=0 time=0.27023829791666665
EXTRACT: note_on channel=0 note=79 velocity=64 time=0.015476202083333331
EXTRACT: note_on channel=0 note=79 velocity=0 time=0.27023829791666665
EXTRACT: note_on channel=0 note=65 velocity=64 time=0.015476202083333331
EXTRACT: note_on channel=0 note=72 velocity=64 time=0
EXTRACT: note_on channel=0 note=65 velocity=0 time=0.27023829791666665
EXTRACT: note_on channel=0 note=72 velocity=0 time=0
EXTRACT: note_on channel=0 note=79 velocity=64 time=0.015476202083333331
EXTRACT: note_on channel=0 note=79 velocity=0 time=0.27023829791666665
EXTRACT: note_on channel=0 note=65 velocity=64 time=0.015476202083333331
EXTRACT: note_on channel=0 note=72 velocity=64 time=0
EXTRACT: control_change channel=0 control=64 value=0 time=0.0011904770833333332
EXTRACT: control_change channel=0 control=64 value=127 time=0.0011904770833333332
EXTRACT: note_on channel=0 note=65 velocity=0 time=0.26785734375
EXTRACT: note_on channel=0 note=72 velocity=0 time=0
EXTRACT: note_on channel=0 note=79 velocity=64 time=0.015476202083333331
EXTRACT: note_on channel=0 note=79 velocity=0 time=0.27023829791666665
EXTRACT: note_on channel=0 note=65 velocity=64 time=0.015476202083333331
EXTRACT: note_on channel=0 note=72 velocity=64 time=0
EXTRACT: note_on channel=1 note=64 velocity=80 time=0
EXTRACT: note_on channel=0 note=65 velocity=0 time=0.27023829791666665
EXTRACT: note_on channel=0 note=72 velocity=0 time=0
EXTRACT: note_on channel=0 note=79 velocity=64 time=0.015476202083333331
EXTRACT: note_on channel=0 note=79 velocity=0 time=0.27023829791666665
EXTRACT: note_on channel=0 note=65 velocity=64 time=0.015476202083333331
EXTRACT: note_on channel=0 note=72 velocity=64 time=0
EXTRACT: note_on channel=0 note=65 velocity=0 time=0.27023829791666665
EXTRACT: note_on channel=0 note=72 velocity=0 time=0
EXTRACT: note_on channel=1 note=64 velocity=0 time=0.014285724999999999
EXTRACT: note_on channel=0 note=79 velocity=64 time=0.0011904770833333332
EXTRACT: note_on channel=1 note=65 velocity=80 time=0
EXTRACT: note_on channel=0 note=79 velocity=0 time=0.27023829791666665
EXTRACT: note_on channel=0 note=65 velocity=64 time=0.015476202083333331
EXTRACT: note_on channel=0 note=72 velocity=64 time=0
EXTRACT: note_on channel=0 note=65 velocity=0 time=0.27023829791666665
EXTRACT: note_on channel=0 note=72 velocity=0 time=0
EXTRACT: note_on channel=0 note=79 velocity=64 time=0.015476202083333331
EXTRACT: note_on channel=0 note=36 velocity=0 time=0.08452387291666666
EXTRACT: note_on channel=0 note=41 velocity=0 time=0
EXTRACT: note_on channel=0 note=79 velocity=0 time=0.185714425
EXTRACT: note_on channel=4 note=41 velocity=0 time=0.014285724999999999
EXTRACT: note_on channel=0 note=60 velocity=64 time=0.0011904770833333332
EXTRACT: note_on channel=0 note=69 velocity=64 time=0
EXTRACT: note_on channel=0 note=40 velocity=64 time=0
EXTRACT: note_on channel=0 note=45 velocity=64 time=0
EXTRACT: note_on channel=4 note=45 velocity=80 time=0
EXTRACT: control_change channel=0 control=64 value=0 time=0.0011904770833333332
EXTRACT: control_change channel=0 control=64 value=127 time=0.0011904770833333332
EXTRACT: note_on channel=0 note=60 velocity=0 time=0.26785734375
EXTRACT: note_on channel=0 note=69 velocity=0 time=0
EXTRACT: note_on channel=1 note=65 velocity=0 time=0.014285724999999999
EXTRACT: note_on channel=0 note=72 velocity=64 time=0.0011904770833333332
EXTRACT: note_on channel=1 note=64 velocity=80 time=0
EXTRACT: note_on channel=0 note=72 velocity=0 time=0.27023829791666665
EXTRACT: note_on channel=0 note=40 velocity=0 time=0.014285724999999999
EXTRACT: note_on channel=0 note=45 velocity=0 time=0
EXTRACT: note_on channel=0 note=60 velocity=64 time=0.0011904770833333332
EXTRACT: note_on channel=0 note=69 velocity=64 time=0
EXTRACT: note_on channel=0 note=40 velocity=64 time=0
EXTRACT: note_on channel=0 note=45 velocity=64 time=0
EXTRACT: note_on channel=0 note=60 velocity=0 time=0.27023829791666665
EXTRACT: note_on channel=0 note=69 velocity=0 time=0
EXTRACT: note_on channel=1 note=64 velocity=0 time=0.014285724999999999
EXTRACT: note_on channel=0 note=72 velocity=64 time=0.0011904770833333332
EXTRACT: note_on channel=0 note=72 velocity=0 time=0.27023829791666665
EXTRACT: note_on channel=0 note=60 velocity=64 time=0.015476202083333331
EXTRACT: note_on channel=0 note=69 velocity=64 time=0
EXTRACT: note_on channel=1 note=67 velocity=80 time=0
EXTRACT: note_on channel=0 note=60 velocity=0 time=0.27023829791666665
EXTRACT: note_on channel=0 note=69 velocity=0 time=0
EXTRACT: note_on channel=0 note=72 velocity=64 time=0.015476202083333331
EXTRACT: note_on channel=1 note=67 velocity=0 time=0.14166677291666666
EXTRACT: note_on channel=1 note=64 velocity=80 time=0.0011904770833333332
EXTRACT: note_on channel=0 note=72 velocity=0 time=0.12738104791666666
EXTRACT: note_on channel=0 note=60 velocity=64 time=0.015476202083333331
EXTRACT: note_on channel=0 note=69 velocity=64 time=0
EXTRACT: note_on channel=0 note=60 velocity=0 time=0.27023829791666665
EXTRACT: note_on channel=0 note=69 velocity=0 time=0
EXTRACT: note_on channel=1 note=64 velocity=0 time=0.014285724999999999
EXTRACT: note_on channel=0 note=72 velocity=64 time=0.0011904770833333332
EXTRACT: note_on channel=1 note=60 velocity=80 time=0
EXTRACT: note_on channel=0 note=40 velocity=0 time=0.19880967291666665
EXTRACT: note_on channel=0 note=45 velocity=0 time=0
EXTRACT: note_on channel=0 note=72 velocity=0 time=0.071428625
EXTRACT: note_on channel=4 note=45 velocity=0 time=0.014285724999999999
EXTRACT: note_on channel=0 note=60 velocity=64 time=0.0011904770833333332
EXTRACT: note_on channel=0 note=67 velocity=64 time=0
EXTRACT: note_on channel=0 note=40 velocity=64 time=0
EXTRACT: note_on channel=0 note=48 velocity=64 time=0
EXTRACT: note_on channel=4 note=36 velocity=80 time=0
EXTRACT: note_on channel=4 note=48 velocity=80 time=0
EXTRACT: control_change channel=0 control=64 value=0 time=0.0011904770833333332
EXTRACT: control_change channel=0 control=64 value=127 time=0.0011904770833333332
EXTRACT: note_on channel=0 note=60 velocity=0 time=0.26785734375
EXTRACT: note_on channel=0 note=67 velocity=0 time=0
EXTRACT: note_on channel=0 note=72 velocity=64 time=0.015476202083333331
EXTRACT: note_on channel=0 note=72 velocity=0 time=0.27023829791666665
EXTRACT: note_on channel=0 note=40 velocity=0 time=0.014285724999999999
EXTRACT: note_on channel=0 note=48 velocity=0 time=0
EXTRACT: note_on channel=0 note=60 velocity=64 time=0.0011904770833333332
EXTRACT: note_on channel=0 note=67 velocity=64 time=0
EXTRACT: note_on channel=0 note=40 velocity=64 time=0
EXTRACT: note_on channel=0 note=48 velocity=64 time=0
EXTRACT: note_on channel=0 note=60 velocity=0 time=0.27023829791666665
EXTRACT: note_on channel=0 note=67 velocity=0 time=0
EXTRACT: note_on channel=0 note=72 velocity=64 time=0.015476202083333331
EXTRACT: note_on channel=0 note=72 velocity=0 time=0.27023829791666665
EXTRACT: note_on channel=0 note=60 velocity=64 time=0.015476202083333331
EXTRACT: note_on channel=0 note=67 velocity=64 time=0
EXTRACT: note_on channel=0 note=60 velocity=0 time=0.27023829791666665
EXTRACT: note_on channel=0 note=67 velocity=0 time=0
EXTRACT: note_on channel=0 note=76 velocity=64 time=0.015476202083333331
EXTRACT: note_on channel=0 note=76 velocity=0 time=0.27023829791666665
EXTRACT: note_on channel=0 note=60 velocity=64 time=0.015476202083333331
EXTRACT: note_on channel=0 note=67 velocity=64 time=0
EXTRACT: note_on channel=0 note=60 velocity=0 time=0.27023829791666665
EXTRACT: note_on channel=0 note=67 velocity=0 time=0
EXTRACT: note_on channel=0 note=76 velocity=64 time=0.015476202083333331
EXTRACT: note_on channel=0 note=40 velocity=0 time=0.19880967291666665
EXTRACT: note_on channel=0 note=48 velocity=0 time=0
EXTRACT: note_on channel=0 note=76 velocity=0 time=0.071428625
EXTRACT: note_on channel=4 note=36 velocity=0 time=0.014285724999999999
EXTRACT: note_on channel=4 note=48 velocity=0 time=0
EXTRACT: note_on channel=0 note=60 velocity=64 time=0.0011904770833333332
EXTRACT: note_on channel=0 note=65 velocity=64 time=0
EXTRACT: note_on channel=0 note=36 velocity=64 time=0
EXTRACT: note_on channel=0 note=41 velocity=64 time=0
EXTRACT: note_on channel=4 note=41 velocity=80 time=0
EXTRACT: control_change channel=0 control=64 value=0 time=0.0011904770833333332
EXTRACT: control_change channel=0 control=64 value=127 time=0.0011904770833333332
EXTRACT: note_on channel=0 note=60 velocity=0 time=0.26785734375
EXTRACT: note_on channel=0 note=65 velocity=0 time=0
EXTRACT: note_on channel=0 note=72 velocity=64 time=0.015476202083333331
EXTRACT: note_on channel=0 note=72 velocity=0 time=0.27023829791666665
EXTRACT: note_on channel=0 note=36 velocity=0 time=0.014285724999999999
EXTRACT: note_on channel=0 note=41 velocity=0 time=0
EXTRACT: note_on channel=0 note=60 velocity=64 time=0.0011904770833333332
EXTRACT: note_on channel=0 note=65 velocity=64 time=0
EXTRACT: note_on channel=0 note=36 velocity=64 time=0
EXTRACT: note_on channel=0 note=41 velocity=64 time=0
EXTRACT: note_on channel=0 note=60 velocity=0 time=0.27023829791666665
EXTRACT: note_on channel=0 note=65 velocity=0 time=0
EXTRACT: note_on channel=0 note=72 velocity=64 time=0.015476202083333331
EXTRACT: note_on channel=0 note=72 velocity=0 time=0.27023829791666665
EXTRACT: note_on channel=0 note=65 velocity=64 time=0.015476202083333331
EXTRACT: note_on channel=0 note=65 velocity=0 time=0.27023829791666665
EXTRACT: note_on channel=0 note=79 velocity=64 time=0.015476202083333331
EXTRACT: note_on channel=0 note=79 velocity=0 time=0.27023829791666665
EXTRACT: note_on channel=0 note=65 velocity=64 time=0.015476202083333331
EXTRACT: note_on channel=0 note=72 velocity=64 time=0
EXTRACT: note_on channel=0 note=65 velocity=0 time=0.27023829791666665
EXTRACT: note_on channel=0 note=72 velocity=0 time=0
EXTRACT: note_on channel=0 note=79 velocity=64 time=0.015476202083333331
EXTRACT: note_on channel=0 note=79 velocity=0 time=0.27023829791666665
EXTRACT: note_on channel=1 note=60 velocity=0 time=0.014285724999999999
EXTRACT: note_on channel=0 note=65 velocity=64 time=0.0011904770833333332
EXTRACT: note_on channel=0 note=72 velocity=64 time=0
EXTRACT: control_change channel=0 control=64 value=0 time=0.0011904770833333332
EXTRACT: control_change channel=0 control=64 value=127 time=0.0011904770833333332
EXTRACT: note_on channel=0 note=65 velocity=0 time=0.26785734375
EXTRACT: note_on channel=0 note=72 velocity=0 time=0
EXTRACT: note_on channel=0 note=79 velocity=64 time=0.015476202083333331
EXTRACT: note_on channel=0 note=79 velocity=0 time=0.27023829791666665
EXTRACT: note_on channel=0 note=65 velocity=64 time=0.015476202083333331
EXTRACT: note_on channel=0 note=72 velocity=64 time=0
EXTRACT: note_on channel=0 note=65 velocity=0 time=0.27023829791666665
EXTRACT: note_on channel=0 note=72 velocity=0 time=0
EXTRACT: note_on channel=0 note=79 velocity=64 time=0.015476202083333331
EXTRACT: note_on channel=0 note=79 velocity=0 time=0.27023829791666665
EXTRACT: note_on channel=0 note=65 velocity=64 time=0.015476202083333331
EXTRACT: note_on channel=0 note=72 velocity=64 time=0
EXTRACT: note_on channel=0 note=65 velocity=0 time=0.27023829791666665
EXTRACT: note_on channel=0 note=72 velocity=0 time=0
EXTRACT: note_on channel=0 note=79 velocity=64 time=0.015476202083333331
EXTRACT: note_on channel=0 note=79 velocity=0 time=0.27023829791666665
EXTRACT: note_on channel=0 note=65 velocity=64 time=0.015476202083333331
EXTRACT: note_on channel=0 note=72 velocity=64 time=0
EXTRACT: note_on channel=0 note=65 velocity=0 time=0.27023829791666665
EXTRACT: note_on channel=0 note=72 velocity=0 time=0
EXTRACT: note_on channel=0 note=79 velocity=64 time=0.015476202083333331
EXTRACT: note_on channel=0 note=36 velocity=0 time=0.08452387291666666
EXTRACT: note_on channel=0 note=41 velocity=0 time=0
EXTRACT: note_on channel=0 note=79 velocity=0 time=0.185714425
EXTRACT: note_on channel=4 note=41 velocity=0 time=0.014285724999999999
EXTRACT: note_on channel=0 note=60 velocity=64 time=0.0011904770833333332
EXTRACT: note_on channel=0 note=69 velocity=64 time=0
EXTRACT: note_on channel=0 note=40 velocity=64 time=0
EXTRACT: note_on channel=0 note=45 velocity=64 time=0
EXTRACT: note_on channel=1 note=57 velocity=80 time=0
EXTRACT: note_on channel=4 note=45 velocity=80 time=0
EXTRACT: control_change channel=0 control=64 value=0 time=0.0011904770833333332
EXTRACT: control_change channel=0 control=64 value=127 time=0.0011904770833333332
EXTRACT: note_on channel=0 note=60 velocity=0 time=0.26785734375
EXTRACT: note_on channel=0 note=69 velocity=0 time=0
EXTRACT: note_on channel=1 note=57 velocity=0 time=0.014285724999999999
EXTRACT: note_on channel=0 note=72 velocity=64 time=0.0011904770833333332
EXTRACT: note_on channel=1 note=59 velocity=80 time=0
EXTRACT: note_on channel=0 note=72 velocity=0 time=0.27023829791666665
EXTRACT: note_on channel=0 note=40 velocity=0 time=0.014285724999999999
EXTRACT: note_on channel=0 note=45 velocity=0 time=0
EXTRACT: note_on channel=1 note=59 velocity=0 time=0
EXTRACT: note_on channel=0 note=60 velocity=64 time=0.0011904770833333332
EXTRACT: note_on channel=0 note=69 velocity=64 time=0
EXTRACT: note_on channel=0 note=40 velocity=64 time=0
EXTRACT: note_on channel=0 note=45 velocity=64 time=0
EXTRACT: note_on channel=1 note=60 velocity=80 time=0
EXTRACT: note_on channel=0 note=60 velocity=0 time=0.27023829791666665
EXTRACT: note_on channel=0 note=69 velocity=0 time=0
EXTRACT: note_on channel=1 note=60 velocity=0 time=0.014285724999999999
EXTRACT: note_on channel=0 note=72 velocity=64 time=0.0011904770833333332
EXTRACT: note_on channel=1 note=62 velocity=80 time=0
EXTRACT: note_on channel=0 note=72 velocity=0 time=0.27023829791666665
EXTRACT: note_on channel=1 note=62 velocity=0 time=0.014285724999999999
EXTRACT: note_on channel=0 note=60 velocity=64 time=0.0011904770833333332
EXTRACT: note_on channel=0 note=69 velocity=64 time=0
EXTRACT: note_on channel=1 note=60 velocity=80 time=0
EXTRACT: note_on channel=0 note=60 velocity=0 time=0.27023829791666665
EXTRACT: note_on channel=0 note=69 velocity=0 time=0
EXTRACT: note_on channel=1 note=60 velocity=0 time=0.014285724999999999
EXTRACT: note_on channel=0 note=72 velocity=64 time=0.0011904770833333332
EXTRACT: note_on channel=1 note=59 velocity=80 time=0
EXTRACT: note_on channel=0 note=72 velocity=0 time=0.27023829791666665
EXTRACT: note_on channel=1 note=59 velocity=0 time=0.014285724999999999
EXTRACT: note_on channel=0 note=60 velocity=64 time=0.0011904770833333332
EXTRACT: note_on channel=0 note=69 velocity=64 time=0
EXTRACT: note_on channel=1 note=57 velocity=80 time=0
EXTRACT: note_on channel=0 note=60 velocity=0 time=0.27023829791666665
EXTRACT: note_on channel=0 note=69 velocity=0 time=0
EXTRACT: note_on channel=1 note=57 velocity=0 time=0.014285724999999999
EXTRACT: note_on channel=0 note=72 velocity=64 time=0.0011904770833333332
EXTRACT: note_on channel=1 note=59 velocity=80 time=0
EXTRACT: note_on channel=0 note=40 velocity=0 time=0.19880967291666665
EXTRACT: note_on channel=0 note=45 velocity=0 time=0
EXTRACT: note_on channel=0 note=72 velocity=0 time=0.071428625
EXTRACT: note_on channel=1 note=59 velocity=0 time=0.014285724999999999
EXTRACT: note_on channel=4 note=45 velocity=0 time=0
EXTRACT: note_on channel=0 note=60 velocity=64 time=0.0011904770833333332
EXTRACT: note_on channel=0 note=67 velocity=64 time=0
EXTRACT: note_on channel=0 note=40 velocity=64 time=0
EXTRACT: note_on channel=0 note=48 velocity=64 time=0
EXTRACT: note_on channel=1 note=60 velocity=80 time=0
EXTRACT: note_on channel=4 note=36 velocity=80 time=0
EXTRACT: note_on channel=4 note=48 velocity=80 time=0
EXTRACT: control_change channel=0 control=64 value=0 time=0.0011904770833333332
EXTRACT: control_change channel=0 control=64 value=127 time=0.0011904770833333332
EXTRACT: note_on channel=0 note=60 velocity=0 time=0.26785734375
EXTRACT: note_on channel=0 note=67 velocity=0 time=0
EXTRACT: note_on channel=1 note=60 velocity=0 time=0.014285724999999999
EXTRACT: note_on channel=0 note=72 velocity=64 time=0.0011904770833333332
EXTRACT: note_on channel=1 note=62 velocity=80 time=0
EXTRACT: note_on channel=0 note=72 velocity=0 time=0.27023829791666665
EXTRACT: note_on channel=0 note=40 velocity=0 time=0.014285724999999999
EXTRACT: note_on channel=0 note=48 velocity=0 time=0
EXTRACT: note_on channel=1 note=62 velocity=0 time=0
EXTRACT: note_on channel=0 note=60 velocity=64 time=0.0011904770833333332
EXTRACT: note_on channel=0 note=67 velocity=64 time=0
EXTRACT: note_on channel=0 note=40 velocity=64 time=0
EXTRACT: note_on channel=0 note=48 velocity=64 time=0
EXTRACT: note_on channel=1 note=60 velocity=80 time=0
EXTRACT: note_on channel=0 note=60 velocity=0 time=0.27023829791666665
EXTRACT: note_on channel=0 note=67 velocity=0 time=0
EXTRACT: note_on channel=1 note=60 velocity=0 time=0.014285724999999999
EXTRACT: note_on channel=0 note=72 velocity=64 time=0.0011904770833333332
EXTRACT: note_on channel=1 note=59 velocity=80 time=0
EXTRACT: note_on channel=0 note=72 velocity=0 time=0.27023829791666665
EXTRACT: note_on channel=1 note=59 velocity=0 time=0.014285724999999999
EXTRACT: note_on channel=0 note=60 velocity=64 time=0.0011904770833333332
EXTRACT: note_on channel=0 note=67 velocity=64 time=0
EXTRACT: note_on channel=1 note=57 velocity=80 time=0
EXTRACT: note_on channel=0 note=60 velocity=0 time=0.27023829791666665
EXTRACT: note_on channel=0 note=67 velocity=0 time=0
EXTRACT: note_on channel=1 note=57 velocity=0 time=0.014285724999999999
EXTRACT: note_on channel=0 note=76 velocity=64 time=0.0011904770833333332
EXTRACT: note_on channel=1 note=59 velocity=80 time=0
EXTRACT: note_on channel=0 note=76 velocity=0 time=0.27023829791666665
EXTRACT: note_on channel=1 note=59 velocity=0 time=0.014285724999999999
EXTRACT: note_on channel=0 note=60 velocity=64 time=0.0011904770833333332
EXTRACT: note_on channel=0 note=67 velocity=64 time=0
EXTRACT: note_on channel=1 note=60 velocity=80 time=0
EXTRACT: note_on channel=0 note=60 velocity=0 time=0.27023829791666665
EXTRACT: note_on channel=0 note=67 velocity=0 time=0
EXTRACT: note_on channel=1 note=60 velocity=0 time=0.014285724999999999
EXTRACT: note_on channel=0 note=76 velocity=64 time=0.0011904770833333332
EXTRACT: note_on channel=1 note=62 velocity=80 time=0
EXTRACT: note_on channel=0 note=40 velocity=0 time=0.19880967291666665
EXTRACT: note_on channel=0 note=48 velocity=0 time=0
EXTRACT: note_on channel=0 note=76 velocity=0 time=0.071428625
EXTRACT: note_on channel=1 note=62 velocity=0 time=0.014285724999999999
EXTRACT: note_on channel=4 note=36 velocity=0 time=0
EXTRACT: note_on channel=4 note=48 velocity=0 time=0
EXTRACT: note_on channel=0 note=60 velocity=64 time=0.0011904770833333332
EXTRACT: note_on channel=0 note=65 velocity=64 time=0
EXTRACT: note_on channel=0 note=36 velocity=64 time=0
EXTRACT: note_on channel=0 note=41 velocity=64 time=0
EXTRACT: note_on channel=1 note=64 velocity=80 time=0
EXTRACT: note_on channel=4 note=41 velocity=80 time=0
EXTRACT: control_change channel=0 control=64 value=0 time=0.0011904770833333332
EXTRACT: control_change channel=0 control=64 value=127 time=0.0011904770833333332
EXTRACT: note_on channel=0 note=60 velocity=0 time=0.26785734375
EXTRACT: note_on channel=0 note=65 velocity=0 time=0
EXTRACT: note_on channel=1 note=64 velocity=0 time=0.014285724999999999
EXTRACT: note_on channel=0 note=72 velocity=64 time=0.0011904770833333332
EXTRACT: note_on channel=1 note=60 velocity=80 time=0
EXTRACT: note_on channel=0 note=72 velocity=0 time=0.27023829791666665
EXTRACT: note_on channel=0 note=36 velocity=0 time=0.014285724999999999
EXTRACT: note_on channel=0 note=41 velocity=0 time=0
EXTRACT: note_on channel=1 note=60 velocity=0 time=0
EXTRACT: note_on channel=0 note=60 velocity=64 time=0.0011904770833333332
EXTRACT: note_on channel=0 note=65 velocity=64 time=0
EXTRACT: note_on channel=0 note=36 velocity=64 time=0
EXTRACT: note_on channel=0 note=41 velocity=64 time=0
EXTRACT: note_on channel=1 note=62 velocity=80 time=0
EXTRACT: note_on channel=0 note=60 velocity=0 time=0.27023829791666665
EXTRACT: note_on channel=0 note=65 velocity=0 time=0
EXTRACT: note_on channel=1 note=62 velocity=0 time=0.014285724999999999
EXTRACT: note_on channel=0 note=72 velocity=64 time=0.0011904770833333332
EXTRACT: note_on channel=1 note=59 velocity=80 time=0
EXTRACT: note_on channel=0 note=72 velocity=0 time=0.27023829791666665
EXTRACT: note_on channel=1 note=59 velocity=0 time=0.014285724999999999
EXTRACT: note_on channel=0 note=65 velocity=64 time=0.0011904770833333332
EXTRACT: note_on channel=1 note=60 velocity=80 time=0
EXTRACT: note_on channel=0 note=65 velocity=0 time=0.27023829791666665
EXTRACT: note_on channel=1 note=60 velocity=0 time=0.014285724999999999
EXTRACT: note_on channel=0 note=79 velocity=64 time=0.0011904770833333332
EXTRACT: note_on channel=1 note=57 velocity=80 time=0
EXTRACT: note_on channel=0 note=79 velocity=0 time=0.27023829791666665
EXTRACT: note_on channel=1 note=57 velocity=0 time=0.014285724999999999
EXTRACT: note_on channel=0 note=65 velocity=64 time=0.0011904770833333332
EXTRACT: note_on channel=0 note=72 velocity=64 time=0
EXTRACT: note_on channel=1 note=59 velocity=80 time=0
EXTRACT: note_on channel=0 note=65 velocity=0 time=0.27023829791666665
EXTRACT: note_on channel=0 note=72 velocity=0 time=0
EXTRACT: note_on channel=1 note=59 velocity=0 time=0.014285724999999999
EXTRACT: note_on channel=0 note=79 velocity=64 time=0.0011904770833333332
EXTRACT: note_on channel=1 note=55 velocity=80 time=0
EXTRACT: note_on channel=0 note=79 velocity=0 time=0.27023829791666665
EXTRACT: note_on channel=1 note=55 velocity=0 time=0.014285724999999999
EXTRACT: note_on channel=0 note=65 velocity=64 time=0.0011904770833333332
EXTRACT: note_on channel=0 note=72 velocity=64 time=0
EXTRACT: note_on channel=1 note=57 velocity=80 time=0
EXTRACT: control_change channel=0 control=64 value=0 time=0.0011904770833333332
EXTRACT: note_on channel=0 note=65 velocity=0 time=0.2690478208333333
EXTRACT: note_on channel=0 note=72 velocity=0 time=0
EXTRACT: note_on channel=1 note=57 velocity=0 time=0.014285724999999999
EXTRACT: note_on channel=0 note=79 velocity=64 time=0.0011904770833333332
EXTRACT: note_on channel=1 note=59 velocity=80 time=0
EXTRACT: note_on channel=0 note=79 velocity=0 time=0.27023829791666665
EXTRACT: note_on channel=1 note=59 velocity=0 time=0.014285724999999999
EXTRACT: note_on channel=0 note=65 velocity=64 time=0.0011904770833333332
EXTRACT: note_on channel=0 note=72 velocity=64 time=0
EXTRACT: note_on channel=1 note=60 velocity=80 time=0
EXTRACT: note_on channel=0 note=65 velocity=0 time=0.27023829791666665
EXTRACT: note_on channel=0 note=72 velocity=0 time=0
EXTRACT: note_on channel=1 note=60 velocity=0 time=0.014285724999999999
EXTRACT: note_on channel=0 note=79 velocity=64 time=0.0011904770833333332
EXTRACT: note_on channel=1 note=62 velocity=80 time=0
EXTRACT: note_on channel=0 note=79 velocity=0 time=0.27023829791666665
EXTRACT: note_on channel=1 note=62 velocity=0 time=0.014285724999999999
EXTRACT: note_on channel=0 note=65 velocity=64 time=0.0011904770833333332
EXTRACT: note_on channel=0 note=72 velocity=64 time=0
EXTRACT: note_on channel=1 note=60 velocity=80 time=0
EXTRACT: note_on channel=0 note=65 velocity=0 time=0.27023829791666665
EXTRACT: note_on channel=0 note=72 velocity=0 time=0
EXTRACT: note_on channel=1 note=60 velocity=0 time=0.014285724999999999
EXTRACT: note_on channel=0 note=79 velocity=64 time=0.0011904770833333332
EXTRACT: note_on channel=1 note=59 velocity=80 time=0
EXTRACT: note_on channel=0 note=79 velocity=0 time=0.27023829791666665
EXTRACT: note_on channel=1 note=59 velocity=0 time=0.014285724999999999
EXTRACT: note_on channel=0 note=65 velocity=64 time=0.0011904770833333332
EXTRACT: note_on channel=0 note=72 velocity=64 time=0
EXTRACT: note_on channel=1 note=57 velocity=80 time=0
EXTRACT: note_on channel=0 note=65 velocity=0 time=0.27023829791666665
EXTRACT: note_on channel=0 note=72 velocity=0 time=0
EXTRACT: note_on channel=1 note=57 velocity=0 time=0.014285724999999999
EXTRACT: note_on channel=0 note=79 velocity=64 time=0.0011904770833333332
EXTRACT: note_on channel=1 note=59 velocity=80 time=0
EXTRACT: note_on channel=0 note=36 velocity=0 time=0.08452387291666666
EXTRACT: note_on channel=0 note=41 velocity=0 time=0
EXTRACT: note_on channel=0 note=79 velocity=0 time=0.185714425
EXTRACT: note_on channel=1 note=59 velocity=0 time=0.014285724999999999
EXTRACT: note_on channel=4 note=41 velocity=0 time=0
EXTRACT: note_on channel=0 note=40 velocity=64 time=0.0011904770833333332
EXTRACT: note_on channel=0 note=45 velocity=64 time=0
EXTRACT: note_on channel=1 note=60 velocity=80 time=0
EXTRACT: note_on channel=4 note=45 velocity=80 time=0
EXTRACT: control_change channel=0 control=64 value=127 time=0.0023809541666666664
EXTRACT: note_on channel=1 note=60 velocity=0 time=0.28214306874999995
EXTRACT: note_on channel=1 note=62 velocity=80 time=0.0011904770833333332
EXTRACT: note_on channel=0 note=40 velocity=0 time=0.2845240229166666
EXTRACT: note_on channel=0 note=45 velocity=0 time=0
EXTRACT: note_on channel=1 note=62 velocity=0 time=0
EXTRACT: note_on channel=0 note=40 velocity=64 time=0.0011904770833333332
EXTRACT: note_on channel=0 note=45 velocity=64 time=0
EXTRACT: note_on channel=1 note=60 velocity=80 time=0
EXTRACT: note_on channel=1 note=60 velocity=0 time=0.2845240229166666
EXTRACT: note_on channel=1 note=59 velocity=80 time=0.0011904770833333332
EXTRACT: note_on channel=1 note=59 velocity=0 time=0.2845240229166666
EXTRACT: note_on channel=1 note=57 velocity=80 time=0.0011904770833333332
EXTRACT: note_on channel=1 note=57 velocity=0 time=0.2845240229166666
EXTRACT: note_on channel=1 note=59 velocity=80 time=0.0011904770833333332
EXTRACT: note_on channel=1 note=59 velocity=0 time=0.2845240229166666
EXTRACT: note_on channel=1 note=60 velocity=80 time=0.0011904770833333332
EXTRACT: note_on channel=1 note=60 velocity=0 time=0.2845240229166666
EXTRACT: note_on channel=1 note=62 velocity=80 time=0.0011904770833333332
EXTRACT: note_on channel=0 note=40 velocity=0 time=0.19880967291666665
EXTRACT: note_on channel=0 note=45 velocity=0 time=0
EXTRACT: note_on channel=1 note=62 velocity=0 time=0.08571435
EXTRACT: note_on channel=4 note=45 velocity=0 time=0
EXTRACT: note_on channel=0 note=40 velocity=64 time=0.0011904770833333332
EXTRACT: note_on channel=0 note=48 velocity=64 time=0
EXTRACT: note_on channel=1 note=64 velocity=80 time=0
EXTRACT: note_on channel=4 note=36 velocity=80 time=0
EXTRACT: note_on channel=4 note=48 velocity=80 time=0
EXTRACT: control_change channel=0 control=64 value=0 time=0.0011904770833333332
EXTRACT: control_change channel=0 control=64 value=127 time=0.0011904770833333332
EXTRACT: note_on channel=1 note=64 velocity=0 time=0.28214306874999995
EXTRACT: note_on channel=1 note=60 velocity=80 time=0.0011904770833333332
EXTRACT: note_on channel=0 note=40 velocity=0 time=0.2845240229166666
EXTRACT: note_on channel=0 note=48 velocity=0 time=0
EXTRACT: note_on channel=1 note=60 velocity=0 time=0
EXTRACT: note_on channel=0 note=40 velocity=64 time=0.0011904770833333332
EXTRACT: note_on channel=0 note=48 velocity=64 time=0
EXTRACT: note_on channel=1 note=62 velocity=80 time=0
EXTRACT: note_on channel=1 note=62 velocity=0 time=0.2845240229166666
EXTRACT: note_on channel=1 note=59 velocity=80 time=0.0011904770833333332
EXTRACT: note_on channel=1 note=59 velocity=0 time=0.2845240229166666
EXTRACT: note_on channel=1 note=60 velocity=80 time=0.0011904770833333332
EXTRACT: note_on channel=1 note=60 velocity=0 time=0.2845240229166666
EXTRACT: note_on channel=1 note=57 velocity=80 time=0.0011904770833333332
EXTRACT: note_on channel=1 note=57 velocity=0 time=0.2845240229166666
EXTRACT: note_on channel=1 note=59 velocity=80 time=0.0011904770833333332
EXTRACT: note_on channel=1 note=59 velocity=0 time=0.2845240229166666
EXTRACT: note_on channel=1 note=55 velocity=80 time=0.0011904770833333332
EXTRACT: note_on channel=0 note=40 velocity=0 time=0.19880967291666665
EXTRACT: note_on channel=0 note=48 velocity=0 time=0
EXTRACT: note_on channel=1 note=55 velocity=0 time=0.08571435
EXTRACT: note_on channel=4 note=36 velocity=0 time=0
EXTRACT: note_on channel=4 note=48 velocity=0 time=0
EXTRACT: note_on channel=0 note=36 velocity=64 time=0.0011904770833333332
EXTRACT: note_on channel=0 note=41 velocity=64 time=0
EXTRACT: note_on channel=1 note=57 velocity=80 time=0
EXTRACT: note_on channel=4 note=41 velocity=80 time=0
EXTRACT: control_change channel=0 control=64 value=0 time=0.0011904770833333332
EXTRACT: control_change channel=0 control=64 value=127 time=0.0011904770833333332
EXTRACT: note_on channel=1 note=57 velocity=0 time=0.28214306874999995
EXTRACT: note_on channel=1 note=59 velocity=80 time=0.0011904770833333332
EXTRACT: note_on channel=0 note=36 velocity=0 time=0.2845240229166666
EXTRACT: note_on channel=0 note=41 velocity=0 time=0
EXTRACT: note_on channel=1 note=59 velocity=0 time=0
EXTRACT: note_on channel=0 note=36 velocity=64 time=0.0011904770833333332
EXTRACT: note_on channel=0 note=41 velocity=64 time=0
EXTRACT: note_on channel=1 note=60 velocity=80 time=0
EXTRACT: note_on channel=1 note=60 velocity=0 time=0.2845240229166666
EXTRACT: note_on channel=1 note=62 velocity=80 time=0.0011904770833333332
EXTRACT: note_on channel=1 note=62 velocity=0 time=0.2845240229166666
EXTRACT: note_on channel=1 note=60 velocity=80 time=0.0011904770833333332
EXTRACT: note_on channel=1 note=60 velocity=0 time=0.2845240229166666
EXTRACT: note_on channel=1 note=59 velocity=80 time=0.0011904770833333332
EXTRACT: note_on channel=1 note=59 velocity=0 time=0.2845240229166666
EXTRACT: note_on channel=1 note=57 velocity=80 time=0.0011904770833333332
EXTRACT: note_on channel=1 note=57 velocity=0 time=0.2845240229166666
EXTRACT: note_on channel=1 note=59 velocity=80 time=0.0011904770833333332
EXTRACT: note_on channel=1 note=59 velocity=0 time=0.2845240229166666
EXTRACT: note_on channel=1 note=60 velocity=80 time=0.0011904770833333332
EXTRACT: control_change channel=0 control=64 value=0 time=0.0011904770833333332
EXTRACT: note_on channel=1 note=60 velocity=0 time=0.2833335458333333
EXTRACT: note_on channel=1 note=62 velocity=80 time=0.0011904770833333332
EXTRACT: note_on channel=1 note=62 velocity=0 time=0.2845240229166666
EXTRACT: note_on channel=1 note=60 velocity=80 time=0.0011904770833333332
EXTRACT: note_on channel=1 note=60 velocity=0 time=0.2845240229166666
EXTRACT: note_on channel=1 note=59 velocity=80 time=0.0011904770833333332
EXTRACT: note_on channel=1 note=59 velocity=0 time=0.2845240229166666
EXTRACT: note_on channel=1 note=57 velocity=80 time=0.0011904770833333332
EXTRACT: note_on channel=1 note=57 velocity=0 time=0.2845240229166666
EXTRACT: note_on channel=1 note=59 velocity=80 time=0.0011904770833333332
EXTRACT: note_on channel=1 note=59 velocity=0 time=0.2845240229166666
EXTRACT: note_on channel=1 note=60 velocity=80 time=0.0011904770833333332
EXTRACT: note_on channel=1 note=60 velocity=0 time=0.2845240229166666
EXTRACT: note_on channel=1 note=62 velocity=80 time=0.0011904770833333332
EXTRACT: note_on channel=0 note=36 velocity=0 time=0.08452387291666666
EXTRACT: note_on channel=0 note=41 velocity=0 time=0
EXTRACT: note_on channel=1 note=62 velocity=0 time=0.20000015
EXTRACT: note_on channel=4 note=41 velocity=0 time=0
EXTRACT: note_on channel=1 note=64 velocity=80 time=0.0011904770833333332
EXTRACT: note_on channel=4 note=45 velocity=80 time=0
EXTRACT: note_on channel=1 note=64 velocity=0 time=0.2845240229166666
EXTRACT: note_on channel=1 note=60 velocity=80 time=0.0011904770833333332
EXTRACT: note_on channel=1 note=60 velocity=0 time=0.2845240229166666
EXTRACT: note_on channel=1 note=62 velocity=80 time=0.0011904770833333332
EXTRACT: note_on channel=1 note=62 velocity=0 time=0.2845240229166666
EXTRACT: note_on channel=1 note=59 velocity=80 time=0.0011904770833333332
EXTRACT: note_on channel=1 note=59 velocity=0 time=0.2845240229166666
EXTRACT: note_on channel=1 note=60 velocity=80 time=0.0011904770833333332
EXTRACT: note_on channel=1 note=60 velocity=0 time=0.2845240229166666
EXTRACT: note_on channel=1 note=57 velocity=80 time=0.0011904770833333332
EXTRACT: note_on channel=1 note=57 velocity=0 time=0.2845240229166666
EXTRACT: note_on channel=1 note=59 velocity=80 time=0.0011904770833333332
EXTRACT: note_on channel=1 note=59 velocity=0 time=0.2845240229166666
EXTRACT: note_on channel=1 note=55 velocity=80 time=0.0011904770833333332
EXTRACT: note_on channel=1 note=55 velocity=0 time=0.2845240229166666
EXTRACT: note_on channel=4 note=45 velocity=0 time=0
EXTRACT: note_on channel=1 note=57 velocity=80 time=0.0011904770833333332
EXTRACT: note_on channel=4 note=36 velocity=80 time=0
EXTRACT: note_on channel=4 note=48 velocity=80 time=0
EXTRACT: note_on channel=1 note=57 velocity=0 time=0.2845240229166666
EXTRACT: note_on channel=1 note=59 velocity=80 time=0.0011904770833333332
EXTRACT: note_on channel=1 note=59 velocity=0 time=0.2845240229166666
EXTRACT: note_on channel=1 note=60 velocity=80 time=0.0011904770833333332
EXTRACT: note_on channel=1 note=60 velocity=0 time=0.2845240229166666
EXTRACT: note_on channel=1 note=62 velocity=80 time=0.0011904770833333332
EXTRACT: note_on channel=1 note=62 velocity=0 time=0.2845240229166666
EXTRACT: note_on channel=1 note=60 velocity=80 time=0.0011904770833333332
EXTRACT: note_on channel=1 note=60 velocity=0 time=0.2845240229166666
EXTRACT: note_on channel=1 note=59 velocity=80 time=0.0011904770833333332
EXTRACT: note_on channel=1 note=59 velocity=0 time=0.2845240229166666
EXTRACT: note_on channel=1 note=57 velocity=80 time=0.0011904770833333332
EXTRACT: note_on channel=1 note=57 velocity=0 time=0.2845240229166666
EXTRACT: note_on channel=1 note=59 velocity=80 time=0.0011904770833333332
EXTRACT: note_on channel=1 note=59 velocity=0 time=0.2845240229166666
EXTRACT: note_on channel=4 note=36 velocity=0 time=0
EXTRACT: note_on channel=4 note=48 velocity=0 time=0
EXTRACT: note_on channel=1 note=60 velocity=80 time=0.0011904770833333332
EXTRACT: note_on channel=4 note=41 velocity=80 time=0
EXTRACT: note_on channel=1 note=60 velocity=0 time=0.2845240229166666
EXTRACT: note_on channel=1 note=62 velocity=80 time=0.0011904770833333332
EXTRACT: note_on channel=1 note=62 velocity=0 time=0.2845240229166666
EXTRACT: note_on channel=1 note=60 velocity=80 time=0.0011904770833333332
EXTRACT: note_on channel=1 note=60 velocity=0 time=0.2845240229166666
EXTRACT: note_on channel=1 note=59 velocity=80 time=0.0011904770833333332
EXTRACT: note_on channel=1 note=59 velocity=0 time=0.2845240229166666
EXTRACT: note_on channel=1 note=57 velocity=80 time=0.0011904770833333332
EXTRACT: note_on channel=1 note=57 velocity=0 time=0.2845240229166666
EXTRACT: note_on channel=1 note=59 velocity=80 time=0.0011904770833333332
EXTRACT: note_on channel=1 note=59 velocity=0 time=0.2845240229166666
EXTRACT: note_on channel=1 note=60 velocity=80 time=0.0011904770833333332
EXTRACT: note_on channel=1 note=60 velocity=0 time=0.2845240229166666
EXTRACT: note_on channel=1 note=62 velocity=80 time=0.0011904770833333332
EXTRACT: note_on channel=1 note=62 velocity=0 time=0.2845240229166666
EXTRACT: note_on channel=1 note=64 velocity=80 time=0.0011904770833333332
EXTRACT: note_on channel=1 note=64 velocity=0 time=0.2845240229166666
EXTRACT: note_on channel=1 note=60 velocity=80 time=0.0011904770833333332
EXTRACT: note_on channel=1 note=60 velocity=0 time=0.2845240229166666
EXTRACT: note_on channel=1 note=62 velocity=80 time=0.0011904770833333332
EXTRACT: note_on channel=1 note=62 velocity=0 time=0.2845240229166666
EXTRACT: note_on channel=1 note=59 velocity=80 time=0.0011904770833333332
EXTRACT: note_on channel=1 note=59 velocity=0 time=0.2845240229166666
EXTRACT: note_on channel=1 note=60 velocity=80 time=0.0011904770833333332
EXTRACT: note_on channel=1 note=60 velocity=0 time=0.2845240229166666
EXTRACT: note_on channel=1 note=57 velocity=80 time=0.0011904770833333332
EXTRACT: note_on channel=1 note=57 velocity=0 time=0.2845240229166666
EXTRACT: note_on channel=1 note=59 velocity=80 time=0.0011904770833333332
EXTRACT: note_on channel=1 note=59 velocity=0 time=0.2845240229166666
EXTRACT: note_on channel=1 note=55 velocity=80 time=0.0011904770833333332
EXTRACT: note_on channel=1 note=55 velocity=0 time=0.2845240229166666
EXTRACT: note_on channel=1 note=57 velocity=80 time=0.0011904770833333332
EXTRACT: note_on channel=1 note=57 velocity=0 time=4.570241522916666
EXTRACT: note_on channel=4 note=41 velocity=0 time=0
